tick,type,time,meta,track,frame_rate,hours,minutes,seconds,frames,sub_frames,numerator,denominator,clocks_per_click,notated_32nd_notes_per_beat,key,tempo,port,program,channel,control,value,note,velocity
0,track_name,0,1,0,,,,,,,,,,,,,,,,,,,
0,program_change,0,0,1,,,,,,,,,,,,,,1,0,,,,
0,control_change,0,0,1,,,,,,,,,,,,,,,0,7,100,,
0,control_change,0,0,1,,,,,,,,,,,,,,,0,91,127,,
0,text,0,1,1,,,,,,,,,,,,,,,,,,,
0,midi_port,0,1,10,,,,,,,,,,,,,0,,,,,,
0,midi_port,0,1,2,,,,,,,,,,,,,0,,,,,,
0,track_name,0,1,2,,,,,,,,,,,,,,,,,,,
0,program_change,0,0,2,,,,,,,,,,,,,,1,0,,,,
0,control_change,0,0,2,,,,,,,,,,,,,,,0,7,100,,
0,control_change,0,0,2,,,,,,,,,,,,,,,0,64,0,,
0,note_on,0,0,2,,,,,,,,,,,,,,,0,,,67,94
0,note_on,0,0,2,,,,,,,,,,,,,,,0,,,55,78
0,midi_port,0,1,3,,,,,,,,,,,,,0,,,,,,
0,track_name,0,1,3,,,,,,,,,,,,,,,,,,,
0,end_of_track,0,1,3,,,,,,,,,,,,,,,,,,,
0,midi_port,0,1,4,,,,,,,,,,,,,0,,,,,,
0,track_name,0,1,4,,,,,,,,,,,,,,,,,,,
0,end_of_track,0,1,9,,,,,,,,,,,,,,,,,,,
0,midi_port,0,1,9,,,,,,,,,,,,,0,,,,,,
0,end_of_track,0,1,8,,,,,,,,,,,,,,,,,,,
0,midi_port,0,1,8,,,,,,,,,,,,,0,,,,,,
0,end_of_track,0,1,7,,,,,,,,,,,,,,,,,,,
0,track_name,0,1,7,,,,,,,,,,,,,,,,,,,
0,track_name,0,1,1,,,,,,,,,,,,,,,,,,,
0,midi_port,0,1,7,,,,,,,,,,,,,0,,,,,,
0,track_name,0,1,6,,,,,,,,,,,,,,,,,,,
0,midi_port,0,1,6,,,,,,,,,,,,,0,,,,,,
0,end_of_track,0,1,5,,,,,,,,,,,,,,,,,,,
0,track_name,0,1,5,,,,,,,,,,,,,,,,,,,
0,midi_port,0,1,5,,,,,,,,,,,,,0,,,,,,
0,end_of_track,0,1,4,,,,,,,,,,,,,,,,,,,
0,end_of_track,0,1,6,,,,,,,,,,,,,,,,,,,
0,midi_port,0,1,1,,,,,,,,,,,,,0,,,,,,
0,end_of_track,0,1,10,,,,,,,,,,,,,,,,,,,
0,copyright,0,1,0,,,,,,,,,,,,,,,,,,,
0,text,0,1,0,,,,,,,,,,,,,,,,,,,
0,text,0,1,0,,,,,,,,,,,,,,,,,,,
0,text,0,1,0,,,,,,,,,,,,,,,,,,,
0,smpte_offset,0,1,0,25,32,0,3,0,0,,,,,,,,,,,,,
0,time_signature,0,1,0,,,,,,,2,4,24,8,,,,,,,,,
0,key_signature,0,1,0,,,,,,,,,,,Bb,,,,,,,,
0,set_tempo,0,1,0,,,,,,,,,,,,464073,,,,,,,
0,text,0,1,0,,,,,,,,,,,,,,,,,,,
0,text,0,1,0,,,,,,,,,,,,,,,,,,,
119,set_tempo,119,1,0,,,,,,,,,,,,438725,,,,,,,
1680,note_on,1680,0,1,,,,,,,,,,,,,,,0,,,74,52
1680,set_tempo,1561,1,0,,,,,,,,,,,,452625,,,,,,,
1800,note_on,120,0,1,,,,,,,,,,,,,,,0,,,74,0
1920,set_tempo,240,1,0,,,,,,,,,,,,432059,,,,,,,
1920,note_on,120,0,1,,,,,,,,,,,,,,,0,,,72,63
1920,note_on,1920,0,2,,,,,,,,,,,,,,,0,,,55,0
1920,note_on,0,0,2,,,,,,,,,,,,,,,0,,,67,0
1920,note_on,0,0,2,,,,,,,,,,,,,,,0,,,55,42
2160,note_on,240,0,1,,,,,,,,,,,,,,,0,,,72,0
2160,note_on,0,0,1,,,,,,,,,,,,,,,0,,,71,37
2160,note_on,240,0,2,,,,,,,,,,,,,,,0,,,55,0
2160,note_on,0,0,2,,,,,,,,,,,,,,,0,,,67,31
2280,note_on,120,0,2,,,,,,,,,,,,,,,0,,,67,0
2280,note_on,120,0,1,,,,,,,,,,,,,,,0,,,71,0
2400,note_on,120,0,1,,,,,,,,,,,,,,,0,,,71,43
2400,note_on,120,0,2,,,,,,,,,,,,,,,0,,,62,26
2400,note_on,0,0,2,,,,,,,,,,,,,,,0,,,65,31
2400,set_tempo,480,1,0,,,,,,,,,,,,438725,,,,,,,
2520,note_on,0,0,2,,,,,,,,,,,,,,,0,,,62,0
2520,note_on,120,0,1,,,,,,,,,,,,,,,0,,,71,0
2520,note_on,120,0,2,,,,,,,,,,,,,,,0,,,65,0
2640,note_on,120,0,1,,,,,,,,,,,,,,,0,,,71,37
2640,set_tempo,240,1,0,,,,,,,,,,,,445567,,,,,,,
2640,note_on,120,0,2,,,,,,,,,,,,,,,0,,,67,32
2760,note_on,120,0,1,,,,,,,,,,,,,,,0,,,71,0
2760,note_on,120,0,2,,,,,,,,,,,,,,,0,,,67,0
2880,note_on,120,0,1,,,,,,,,,,,,,,,0,,,71,55
2880,set_tempo,240,1,0,,,,,,,,,,,,438725,,,,,,,
2880,note_on,120,0,2,,,,,,,,,,,,,,,0,,,55,44
3120,note_on,240,0,2,,,,,,,,,,,,,,,0,,,55,0
3120,note_on,0,0,2,,,,,,,,,,,,,,,0,,,67,28
3120,note_on,240,0,1,,,,,,,,,,,,,,,0,,,71,0
3120,note_on,0,0,1,,,,,,,,,,,,,,,0,,,72,40
3240,note_on,120,0,1,,,,,,,,,,,,,,,0,,,72,0
3240,note_on,120,0,2,,,,,,,,,,,,,,,0,,,67,0
3360,note_on,0,0,2,,,,,,,,,,,,,,,0,,,63,35
3360,note_on,120,0,2,,,,,,,,,,,,,,,0,,,60,29
3480,note_on,0,0,2,,,,,,,,,,,,,,,0,,,60,0
3480,note_on,120,0,2,,,,,,,,,,,,,,,0,,,63,0
3600,note_on,360,0,1,,,,,,,,,,,,,,,0,,,75,51
3600,set_tempo,720,1,0,,,,,,,,,,,,449068,,,,,,,
3600,note_on,120,0,2,,,,,,,,,,,,,,,0,,,67,32
3720,note_on,120,0,2,,,,,,,,,,,,,,,0,,,67,0
3720,note_on,120,0,1,,,,,,,,,,,,,,,0,,,75,0
3840,note_on,120,0,1,,,,,,,,,,,,,,,0,,,72,63
3840,note_on,120,0,2,,,,,,,,,,,,,,,0,,,55,42
3840,set_tempo,240,1,0,,,,,,,,,,,,432059,,,,,,,
4080,note_on,240,0,1,,,,,,,,,,,,,,,0,,,72,0
4080,note_on,0,0,2,,,,,,,,,,,,,,,0,,,67,31
4080,note_on,240,0,2,,,,,,,,,,,,,,,0,,,55,0
4080,note_on,0,0,1,,,,,,,,,,,,,,,0,,,71,37
4200,note_on,120,0,1,,,,,,,,,,,,,,,0,,,71,0
4200,note_on,120,0,2,,,,,,,,,,,,,,,0,,,67,0
4320,set_tempo,480,1,0,,,,,,,,,,,,437031,,,,,,,
4320,note_on,0,0,2,,,,,,,,,,,,,,,0,,,65,31
4320,note_on,120,0,2,,,,,,,,,,,,,,,0,,,62,26
4320,note_on,120,0,1,,,,,,,,,,,,,,,0,,,71,44
4440,note_on,0,0,2,,,,,,,,,,,,,,,0,,,62,0
4440,note_on,120,0,2,,,,,,,,,,,,,,,0,,,65,0
4440,note_on,120,0,1,,,,,,,,,,,,,,,0,,,71,0
4560,note_on,120,0,2,,,,,,,,,,,,,,,0,,,67,29
4560,set_tempo,240,1,0,,,,,,,,,,,,449068,,,,,,,
4560,note_on,120,0,1,,,,,,,,,,,,,,,0,,,71,37
4680,note_on,120,0,2,,,,,,,,,,,,,,,0,,,67,0
4680,note_on,120,0,1,,,,,,,,,,,,,,,0,,,71,0
4800,note_on,120,0,2,,,,,,,,,,,,,,,0,,,55,44
4800,set_tempo,240,1,0,,,,,,,,,,,,438725,,,,,,,
4800,note_on,120,0,1,,,,,,,,,,,,,,,0,,,71,57
5040,note_on,0,0,1,,,,,,,,,,,,,,,0,,,72,47
5040,note_on,240,0,2,,,,,,,,,,,,,,,0,,,55,0
5040,note_on,0,0,2,,,,,,,,,,,,,,,0,,,67,32
5040,note_on,240,0,1,,,,,,,,,,,,,,,0,,,71,0
5160,note_on,120,0,2,,,,,,,,,,,,,,,0,,,67,0
5160,note_on,120,0,1,,,,,,,,,,,,,,,0,,,72,0
5280,note_on,120,0,2,,,,,,,,,,,,,,,0,,,60,29
5280,note_on,0,0,2,,,,,,,,,,,,,,,0,,,63,35
5280,note_on,0,0,2,,,,,,,,,,,,,,,0,,,54,29
5460,note_on,0,0,2,,,,,,,,,,,,,,,0,,,60,0
5460,note_on,0,0,2,,,,,,,,,,,,,,,0,,,63,0
5460,note_on,180,0,2,,,,,,,,,,,,,,,0,,,54,0
5520,set_tempo,720,1,0,,,,,,,,,,,,447327,,,,,,,
5520,note_on,60,0,2,,,,,,,,,,,,,,,0,,,66,35
5520,note_on,360,0,1,,,,,,,,,,,,,,,0,,,75,54
5700,note_on,180,0,2,,,,,,,,,,,,,,,0,,,66,0
5760,set_tempo,240,1,0,,,,,,,,,,,,430447,,,,,,,
5760,note_on,240,0,1,,,,,,,,,,,,,,,0,,,75,0
5760,note_on,0,0,1,,,,,,,,,,,,,,,0,,,72,63
5760,note_on,60,0,2,,,,,,,,,,,,,,,0,,,53,42
6000,note_on,240,0,2,,,,,,,,,,,,,,,0,,,53,0
6000,note_on,0,0,2,,,,,,,,,,,,,,,0,,,65,35
6000,note_on,0,0,1,,,,,,,,,,,,,,,0,,,70,52
6000,note_on,240,0,1,,,,,,,,,,,,,,,0,,,72,0
6120,note_on,120,0,1,,,,,,,,,,,,,,,0,,,70,0
6120,note_on,120,0,2,,,,,,,,,,,,,,,0,,,65,0
6240,note_on,120,0,2,,,,,,,,,,,,,,,0,,,62,35
6240,note_on,120,0,1,,,,,,,,,,,,,,,0,,,70,54
6240,set_tempo,480,1,0,,,,,,,,,,,,438725,,,,,,,
6360,note_on,120,0,1,,,,,,,,,,,,,,,0,,,70,0
6360,note_on,120,0,2,,,,,,,,,,,,,,,0,,,62,0
6480,note_on,120,0,1,,,,,,,,,,,,,,,0,,,70,54
6480,note_on,120,0,2,,,,,,,,,,,,,,,0,,,65,36
6600,note_on,120,0,1,,,,,,,,,,,,,,,0,,,70,0
6600,note_on,120,0,2,,,,,,,,,,,,,,,0,,,65,0
6720,note_on,120,0,1,,,,,,,,,,,,,,,0,,,72,63
6720,set_tempo,480,1,0,,,,,,,,,,,,432059,,,,,,,
6720,note_on,120,0,2,,,,,,,,,,,,,,,0,,,55,42
6960,note_on,0,0,2,,,,,,,,,,,,,,,0,,,64,36
6960,note_on,240,0,2,,,,,,,,,,,,,,,0,,,55,0
6960,note_on,0,0,1,,,,,,,,,,,,,,,0,,,70,53
6960,note_on,240,0,1,,,,,,,,,,,,,,,0,,,72,0
7080,note_on,120,0,2,,,,,,,,,,,,,,,0,,,64,0
7080,note_on,120,0,1,,,,,,,,,,,,,,,0,,,70,0
7200,note_on,120,0,1,,,,,,,,,,,,,,,0,,,70,55
7200,set_tempo,480,1,0,,,,,,,,,,,,438725,,,,,,,
7200,note_on,120,0,2,,,,,,,,,,,,,,,0,,,60,36
7320,note_on,120,0,1,,,,,,,,,,,,,,,0,,,70,0
7320,note_on,120,0,2,,,,,,,,,,,,,,,0,,,60,0
7440,note_on,120,0,1,,,,,,,,,,,,,,,0,,,70,55
7440,note_on,120,0,2,,,,,,,,,,,,,,,0,,,64,36
7560,note_on,120,0,1,,,,,,,,,,,,,,,0,,,70,0
7560,note_on,120,0,2,,,,,,,,,,,,,,,0,,,64,0
7680,note_on,120,0,1,,,,,,,,,,,,,,,0,,,72,63
7680,set_tempo,480,1,0,,,,,,,,,,,,430447,,,,,,,
7680,note_on,0,0,2,,,,,,,,,,,,,,,0,,,53,35
7680,note_on,120,0,2,,,,,,,,,,,,,,,0,,,62,42
7722,control_change,42,0,2,,,,,,,,,,,,,,,0,64,127,,
7800,note_on,120,0,1,,,,,,,,,,,,,,,0,,,72,0
7800,note_on,0,0,1,,,,,,,,,,,,,,,0,,,70,52
7920,note_on,0,0,1,,,,,,,,,,,,,,,0,,,69,53
7920,note_on,0,0,2,,,,,,,,,,,,,,,0,,,65,33
7920,note_on,0,0,2,,,,,,,,,,,,,,,0,,,62,0
7920,note_on,198,0,2,,,,,,,,,,,,,,,0,,,53,0
7920,note_on,120,0,1,,,,,,,,,,,,,,,0,,,70,0
8040,note_on,0,0,1,,,,,,,,,,,,,,,0,,,70,53
8040,note_on,120,0,1,,,,,,,,,,,,,,,0,,,69,0
8160,note_on,240,0,2,,,,,,,,,,,,,,,0,,,65,0
8160,note_on,0,0,2,,,,,,,,,,,,,,,0,,,63,35
8160,note_on,120,0,1,,,,,,,,,,,,,,,0,,,70,0
8160,note_on,0,0,1,,,,,,,,,,,,,,,0,,,72,58
8160,set_tempo,480,1,0,,,,,,,,,,,,443820,,,,,,,
8160,note_on,0,0,2,,,,,,,,,,,,,,,0,,,53,29
8195,control_change,35,0,2,,,,,,,,,,,,,,,0,64,0,,
8280,note_on,85,0,2,,,,,,,,,,,,,,,0,,,53,0
8280,note_on,0,0,2,,,,,,,,,,,,,,,0,,,63,0
8280,note_on,120,0,1,,,,,,,,,,,,,,,0,,,72,0
8400,note_on,120,0,2,,,,,,,,,,,,,,,0,,,65,34
8400,set_tempo,240,1,0,,,,,,,,,,,,456274,,,,,,,
8400,note_on,120,0,1,,,,,,,,,,,,,,,0,,,74,54
8520,note_on,120,0,2,,,,,,,,,,,,,,,0,,,65,0
8520,note_on,120,0,1,,,,,,,,,,,,,,,0,,,74,0
8640,note_on,0,0,2,,,,,,,,,,,,,,,0,,,58,42
8640,note_on,120,0,2,,,,,,,,,,,,,,,0,,,62,42
8640,note_on,120,0,1,,,,,,,,,,,,,,,0,,,70,58
8640,set_tempo,240,1,0,,,,,,,,,,,,464073,,,,,,,
8759,set_tempo,119,1,0,,,,,,,,,,,,438725,,,,,,,
8880,note_on,240,0,1,,,,,,,,,,,,,,,0,,,70,0
8880,note_on,0,0,2,,,,,,,,,,,,,,,0,,,62,0
8880,note_on,240,0,2,,,,,,,,,,,,,,,0,,,58,0
9120,note_on,0,0,2,,,,,,,,,,,,,,,0,,,67,94
9120,note_on,240,0,2,,,,,,,,,,,,,,,0,,,55,78
10320,note_on,1440,0,1,,,,,,,,,,,,,,,0,,,86,52
10320,set_tempo,1561,1,0,,,,,,,,,,,,452625,,,,,,,
10440,note_on,120,0,1,,,,,,,,,,,,,,,0,,,86,0
10560,note_on,0,0,2,,,,,,,,,,,,,,,0,,,55,42
10560,note_on,1440,0,2,,,,,,,,,,,,,,,0,,,67,0
10560,note_on,0,0,2,,,,,,,,,,,,,,,0,,,55,0
10560,note_on,120,0,1,,,,,,,,,,,,,,,0,,,84,64
10560,set_tempo,240,1,0,,,,,,,,,,,,432059,,,,,,,
10800,note_on,240,0,2,,,,,,,,,,,,,,,0,,,55,0
10800,note_on,0,0,2,,,,,,,,,,,,,,,0,,,67,31
10800,note_on,240,0,1,,,,,,,,,,,,,,,0,,,84,0
10800,note_on,0,0,1,,,,,,,,,,,,,,,0,,,83,37
10920,note_on,120,0,2,,,,,,,,,,,,,,,0,,,67,0
10920,note_on,120,0,1,,,,,,,,,,,,,,,0,,,83,0
11040,note_on,120,0,1,,,,,,,,,,,,,,,0,,,83,43
11040,set_tempo,480,1,0,,,,,,,,,,,,438725,,,,,,,
11040,note_on,0,0,2,,,,,,,,,,,,,,,0,,,62,26
11040,note_on,120,0,2,,,,,,,,,,,,,,,0,,,65,31
11160,note_on,0,0,2,,,,,,,,,,,,,,,0,,,65,0
11160,note_on,120,0,2,,,,,,,,,,,,,,,0,,,62,0
11160,note_on,120,0,1,,,,,,,,,,,,,,,0,,,83,0
11280,note_on,120,0,1,,,,,,,,,,,,,,,0,,,83,37
11280,note_on,120,0,2,,,,,,,,,,,,,,,0,,,67,32
11280,set_tempo,240,1,0,,,,,,,,,,,,445567,,,,,,,
11400,note_on,120,0,1,,,,,,,,,,,,,,,0,,,83,0
11400,note_on,120,0,2,,,,,,,,,,,,,,,0,,,67,0
11520,set_tempo,240,1,0,,,,,,,,,,,,438725,,,,,,,
11520,note_on,120,0,1,,,,,,,,,,,,,,,0,,,83,55
11520,note_on,120,0,2,,,,,,,,,,,,,,,0,,,55,44
11760,note_on,240,0,1,,,,,,,,,,,,,,,0,,,83,0
11760,note_on,0,0,1,,,,,,,,,,,,,,,0,,,84,42
11760,note_on,240,0,2,,,,,,,,,,,,,,,0,,,55,0
11760,note_on,0,0,2,,,,,,,,,,,,,,,0,,,67,31
11880,note_on,120,0,1,,,,,,,,,,,,,,,0,,,84,0
11880,note_on,120,0,2,,,,,,,,,,,,,,,0,,,67,0
12000,note_on,0,0,2,,,,,,,,,,,,,,,0,,,63,35
12000,note_on,120,0,2,,,,,,,,,,,,,,,0,,,60,29
12120,note_on,120,0,2,,,,,,,,,,,,,,,0,,,63,0
12120,note_on,0,0,2,,,,,,,,,,,,,,,0,,,60,0
12240,note_on,120,0,2,,,,,,,,,,,,,,,0,,,67,32
12240,note_on,360,0,1,,,,,,,,,,,,,,,0,,,87,51
12240,set_tempo,720,1,0,,,,,,,,,,,,449068,,,,,,,
12360,note_on,120,0,1,,,,,,,,,,,,,,,0,,,87,0
12360,note_on,120,0,2,,,,,,,,,,,,,,,0,,,67,0
12480,set_tempo,240,1,0,,,,,,,,,,,,432059,,,,,,,
12480,note_on,120,0,2,,,,,,,,,,,,,,,0,,,55,42
12480,note_on,120,0,1,,,,,,,,,,,,,,,0,,,84,64
12720,note_on,240,0,2,,,,,,,,,,,,,,,0,,,55,0
12720,note_on,240,0,1,,,,,,,,,,,,,,,0,,,84,0
12720,note_on,0,0,1,,,,,,,,,,,,,,,0,,,83,37
12720,note_on,0,0,2,,,,,,,,,,,,,,,0,,,67,31
12840,note_on,120,0,1,,,,,,,,,,,,,,,0,,,83,0
12840,note_on,120,0,2,,,,,,,,,,,,,,,0,,,67,0
12960,set_tempo,480,1,0,,,,,,,,,,,,437031,,,,,,,
12960,note_on,0,0,2,,,,,,,,,,,,,,,0,,,65,31
12960,note_on,120,0,2,,,,,,,,,,,,,,,0,,,62,26
12960,note_on,120,0,1,,,,,,,,,,,,,,,0,,,83,44
13080,note_on,0,0,2,,,,,,,,,,,,,,,0,,,62,0
13080,note_on,120,0,2,,,,,,,,,,,,,,,0,,,65,0
13080,note_on,120,0,1,,,,,,,,,,,,,,,0,,,83,0
13200,note_on,120,0,1,,,,,,,,,,,,,,,0,,,83,37
13200,set_tempo,240,1,0,,,,,,,,,,,,449068,,,,,,,
13200,note_on,120,0,2,,,,,,,,,,,,,,,0,,,67,29
13320,note_on,120,0,1,,,,,,,,,,,,,,,0,,,83,0
13320,note_on,120,0,2,,,,,,,,,,,,,,,0,,,67,0
13440,note_on,120,0,1,,,,,,,,,,,,,,,0,,,83,57
13440,set_tempo,240,1,0,,,,,,,,,,,,438725,,,,,,,
13440,note_on,120,0,2,,,,,,,,,,,,,,,0,,,55,44
13680,note_on,0,0,1,,,,,,,,,,,,,,,0,,,84,47
13680,note_on,240,0,2,,,,,,,,,,,,,,,0,,,55,0
13680,note_on,0,0,2,,,,,,,,,,,,,,,0,,,67,32
13680,note_on,240,0,1,,,,,,,,,,,,,,,0,,,83,0
13800,note_on,120,0,2,,,,,,,,,,,,,,,0,,,67,0
13800,note_on,120,0,1,,,,,,,,,,,,,,,0,,,84,0
13920,note_on,0,0,2,,,,,,,,,,,,,,,0,,,60,29
13920,note_on,0,0,2,,,,,,,,,,,,,,,0,,,63,35
13920,note_on,120,0,2,,,,,,,,,,,,,,,0,,,54,29
14040,note_on,120,0,2,,,,,,,,,,,,,,,0,,,63,0
14040,note_on,0,0,2,,,,,,,,,,,,,,,0,,,54,0
14040,note_on,0,0,2,,,,,,,,,,,,,,,0,,,60,0
14160,set_tempo,720,1,0,,,,,,,,,,,,447327,,,,,,,
14160,note_on,120,0,2,,,,,,,,,,,,,,,0,,,66,35
14160,note_on,360,0,1,,,,,,,,,,,,,,,0,,,87,54
14280,note_on,120,0,2,,,,,,,,,,,,,,,0,,,66,0
14400,note_on,120,0,2,,,,,,,,,,,,,,,0,,,53,42
14400,note_on,0,0,1,,,,,,,,,,,,,,,0,,,84,64
14400,note_on,240,0,1,,,,,,,,,,,,,,,0,,,87,0
14400,set_tempo,240,1,0,,,,,,,,,,,,430447,,,,,,,
14640,note_on,0,0,1,,,,,,,,,,,,,,,0,,,82,52
14640,note_on,240,0,1,,,,,,,,,,,,,,,0,,,84,0
14640,note_on,240,0,2,,,,,,,,,,,,,,,0,,,53,0
14640,note_on,0,0,2,,,,,,,,,,,,,,,0,,,65,35
14760,note_on,120,0,1,,,,,,,,,,,,,,,0,,,82,0
14760,note_on,120,0,2,,,,,,,,,,,,,,,0,,,65,0
14880,set_tempo,480,1,0,,,,,,,,,,,,438725,,,,,,,
14880,note_on,120,0,1,,,,,,,,,,,,,,,0,,,82,54
14880,note_on,120,0,2,,,,,,,,,,,,,,,0,,,62,35
15000,note_on,120,0,2,,,,,,,,,,,,,,,0,,,62,0
15000,note_on,120,0,1,,,,,,,,,,,,,,,0,,,82,0
15120,note_on,120,0,2,,,,,,,,,,,,,,,0,,,65,36
15120,note_on,120,0,1,,,,,,,,,,,,,,,0,,,82,54
15240,note_on,120,0,2,,,,,,,,,,,,,,,0,,,65,0
15240,note_on,120,0,1,,,,,,,,,,,,,,,0,,,82,0
15360,set_tempo,480,1,0,,,,,,,,,,,,432059,,,,,,,
15360,note_on,120,0,1,,,,,,,,,,,,,,,0,,,84,64
15360,note_on,120,0,2,,,,,,,,,,,,,,,0,,,55,42
15600,note_on,0,0,1,,,,,,,,,,,,,,,0,,,82,53
15600,note_on,0,0,2,,,,,,,,,,,,,,,0,,,64,36
15600,note_on,240,0,1,,,,,,,,,,,,,,,0,,,84,0
15600,note_on,240,0,2,,,,,,,,,,,,,,,0,,,55,0
15720,note_on,120,0,1,,,,,,,,,,,,,,,0,,,82,0
15720,note_on,120,0,2,,,,,,,,,,,,,,,0,,,64,0
15840,note_on,120,0,1,,,,,,,,,,,,,,,0,,,82,55
15840,note_on,120,0,2,,,,,,,,,,,,,,,0,,,60,36
15840,set_tempo,480,1,0,,,,,,,,,,,,438725,,,,,,,
15960,note_on,120,0,2,,,,,,,,,,,,,,,0,,,60,0
15960,note_on,120,0,1,,,,,,,,,,,,,,,0,,,82,0
16080,note_on,120,0,2,,,,,,,,,,,,,,,0,,,64,36
16080,note_on,120,0,1,,,,,,,,,,,,,,,0,,,82,55
16200,note_on,120,0,2,,,,,,,,,,,,,,,0,,,64,0
16200,note_on,120,0,1,,,,,,,,,,,,,,,0,,,82,0
16320,note_on,120,0,1,,,,,,,,,,,,,,,0,,,84,64
16320,note_on,120,0,2,,,,,,,,,,,,,,,0,,,53,35
16320,set_tempo,480,1,0,,,,,,,,,,,,430447,,,,,,,
16320,note_on,0,0,2,,,,,,,,,,,,,,,0,,,62,42
16362,control_change,42,0,2,,,,,,,,,,,,,,,0,64,127,,
16440,note_on,120,0,1,,,,,,,,,,,,,,,0,,,84,0
16440,note_on,0,0,1,,,,,,,,,,,,,,,0,,,82,52
16560,note_on,0,0,2,,,,,,,,,,,,,,,0,,,65,33
16560,note_on,0,0,2,,,,,,,,,,,,,,,0,,,53,0
16560,note_on,198,0,2,,,,,,,,,,,,,,,0,,,62,0
16560,note_on,0,0,1,,,,,,,,,,,,,,,0,,,81,53
16560,note_on,120,0,1,,,,,,,,,,,,,,,0,,,82,0
16680,note_on,120,0,1,,,,,,,,,,,,,,,0,,,81,0
16680,note_on,0,0,1,,,,,,,,,,,,,,,0,,,82,53
16800,note_on,120,0,1,,,,,,,,,,,,,,,0,,,82,0
16800,note_on,0,0,2,,,,,,,,,,,,,,,0,,,53,29
16800,note_on,0,0,2,,,,,,,,,,,,,,,0,,,63,35
16800,note_on,240,0,2,,,,,,,,,,,,,,,0,,,65,0
16800,note_on,0,0,1,,,,,,,,,,,,,,,0,,,84,58
16800,set_tempo,480,1,0,,,,,,,,,,,,443820,,,,,,,
16835,control_change,35,0,2,,,,,,,,,,,,,,,0,64,0,,
16920,note_on,120,0,1,,,,,,,,,,,,,,,0,,,84,0
16920,note_on,0,0,2,,,,,,,,,,,,,,,0,,,63,0
16920,note_on,85,0,2,,,,,,,,,,,,,,,0,,,53,0
17040,note_on,120,0,2,,,,,,,,,,,,,,,0,,,65,34
17040,set_tempo,240,1,0,,,,,,,,,,,,456274,,,,,,,
17040,note_on,120,0,1,,,,,,,,,,,,,,,0,,,86,54
17160,note_on,120,0,1,,,,,,,,,,,,,,,0,,,86,0
17160,note_on,120,0,2,,,,,,,,,,,,,,,0,,,65,0
17280,note_on,120,0,1,,,,,,,,,,,,,,,0,,,82,58
17280,set_tempo,240,1,0,,,,,,,,,,,,438725,,,,,,,
17280,note_on,120,0,2,,,,,,,,,,,,,,,0,,,58,42
17280,note_on,0,0,2,,,,,,,,,,,,,,,0,,,62,42
17400,note_on,120,0,2,,,,,,,,,,,,,,,0,,,62,0
17400,note_on,0,0,2,,,,,,,,,,,,,,,0,,,58,0
17520,set_tempo,240,1,0,,,,,,,,,,,,447327,,,,,,,
17520,note_on,120,0,2,,,,,,,,,,,,,,,0,,,57,38
17640,note_on,120,0,2,,,,,,,,,,,,,,,0,,,57,0
17760,note_on,120,0,2,,,,,,,,,,,,,,,0,,,55,37
17760,note_on,480,0,1,,,,,,,,,,,,,,,0,,,82,0
17880,note_on,120,0,2,,,,,,,,,,,,,,,0,,,55,0
18000,note_on,120,0,2,,,,,,,,,,,,,,,0,,,53,36
18000,note_on,240,0,1,,,,,,,,,,,,,,,0,,,74,57
18000,set_tempo,480,1,0,,,,,,,,,,,,450857,,,,,,,
18120,note_on,120,0,1,,,,,,,,,,,,,,,0,,,74,0
18120,note_on,120,0,2,,,,,,,,,,,,,,,0,,,53,0
18240,note_on,120,0,1,,,,,,,,,,,,,,,0,,,79,60
18240,note_on,120,0,2,,,,,,,,,,,,,,,0,,,51,42
18240,set_tempo,240,1,0,,,,,,,,,,,,445567,,,,,,,
18360,note_on,120,0,2,,,,,,,,,,,,,,,0,,,51,0
18480,note_on,120,0,2,,,,,,,,,,,,,,,0,,,55,36
18480,note_on,0,0,2,,,,,,,,,,,,,,,0,,,58,36
18600,note_on,120,0,2,,,,,,,,,,,,,,,0,,,58,0
18600,note_on,0,0,2,,,,,,,,,,,,,,,0,,,55,0
18720,note_on,480,0,1,,,,,,,,,,,,,,,0,,,79,0
18720,note_on,0,0,1,,,,,,,,,,,,,,,0,,,75,60
18720,note_on,120,0,2,,,,,,,,,,,,,,,0,,,48,36
18840,note_on,120,0,2,,,,,,,,,,,,,,,0,,,48,0
18960,note_on,120,0,2,,,,,,,,,,,,,,,0,,,60,36
18960,note_on,0,0,2,,,,,,,,,,,,,,,0,,,55,36
19080,note_on,120,0,2,,,,,,,,,,,,,,,0,,,55,0
19080,note_on,0,0,2,,,,,,,,,,,,,,,0,,,60,0
19200,note_on,480,0,1,,,,,,,,,,,,,,,0,,,75,0
19200,note_on,0,0,1,,,,,,,,,,,,,,,0,,,72,60
19200,set_tempo,960,1,0,,,,,,,,,,,,438725,,,,,,,
19200,note_on,120,0,2,,,,,,,,,,,,,,,0,,,53,42
19320,note_on,120,0,2,,,,,,,,,,,,,,,0,,,53,0
19440,note_on,0,0,2,,,,,,,,,,,,,,,0,,,60,35
19440,note_on,120,0,2,,,,,,,,,,,,,,,0,,,57,35
19560,note_on,120,0,2,,,,,,,,,,,,,,,0,,,60,0
19560,note_on,0,0,2,,,,,,,,,,,,,,,0,,,57,0
19680,note_on,480,0,1,,,,,,,,,,,,,,,0,,,72,0
19680,note_on,120,0,2,,,,,,,,,,,,,,,0,,,51,36
19680,note_on,0,0,1,,,,,,,,,,,,,,,0,,,74,60
19800,note_on,120,0,2,,,,,,,,,,,,,,,0,,,51,0
19800,note_on,120,0,1,,,,,,,,,,,,,,,0,,,74,0
19920,note_on,120,0,1,,,,,,,,,,,,,,,0,,,75,58
19920,note_on,120,0,2,,,,,,,,,,,,,,,0,,,57,36
19920,note_on,0,0,2,,,,,,,,,,,,,,,0,,,60,36
20040,note_on,120,0,1,,,,,,,,,,,,,,,0,,,75,0
20040,note_on,120,0,2,,,,,,,,,,,,,,,0,,,60,0
20040,note_on,0,0,2,,,,,,,,,,,,,,,0,,,57,0
20160,note_on,120,0,1,,,,,,,,,,,,,,,0,,,77,57
20160,set_tempo,960,1,0,,,,,,,,,,,,432059,,,,,,,
20160,note_on,120,0,2,,,,,,,,,,,,,,,0,,,50,39
20174,control_change,14,0,2,,,,,,,,,,,,,,,0,64,127,,
20280,note_on,120,0,1,,,,,,,,,,,,,,,0,,,77,0
20280,note_on,0,0,1,,,,,,,,,,,,,,,0,,,79,53
20400,note_on,120,0,1,,,,,,,,,,,,,,,0,,,79,0
20400,note_on,0,0,2,,,,,,,,,,,,,,,0,,,58,34
20400,note_on,0,0,1,,,,,,,,,,,,,,,0,,,77,53
20400,note_on,226,0,2,,,,,,,,,,,,,,,0,,,50,0
20400,note_on,0,0,2,,,,,,,,,,,,,,,0,,,53,29
20520,note_on,0,0,1,,,,,,,,,,,,,,,0,,,75,53
20520,note_on,120,0,1,,,,,,,,,,,,,,,0,,,77,0
20640,note_on,240,0,2,,,,,,,,,,,,,,,0,,,53,0
20640,note_on,0,0,2,,,,,,,,,,,,,,,0,,,58,0
20640,note_on,0,0,2,,,,,,,,,,,,,,,0,,,46,34
20640,note_on,0,0,1,,,,,,,,,,,,,,,0,,,74,59
20640,note_on,120,0,1,,,,,,,,,,,,,,,0,,,75,0
20640,set_tempo,480,1,0,,,,,,,,,,,,440399,,,,,,,
20654,control_change,14,0,2,,,,,,,,,,,,,,,0,64,0,,
20704,control_change,50,0,2,,,,,,,,,,,,,,,0,64,127,,
20760,note_on,120,0,1,,,,,,,,,,,,,,,0,,,74,0
20760,note_on,0,0,1,,,,,,,,,,,,,,,0,,,75,52
20880,note_on,0,0,2,,,,,,,,,,,,,,,0,,,53,29
20880,note_on,0,0,2,,,,,,,,,,,,,,,0,,,58,34
20880,set_tempo,240,1,0,,,,,,,,,,,,456274,,,,,,,
20880,note_on,176,0,2,,,,,,,,,,,,,,,0,,,46,0
20880,note_on,120,0,1,,,,,,,,,,,,,,,0,,,75,0
20880,note_on,0,0,1,,,,,,,,,,,,,,,0,,,74,52
21000,note_on,120,0,1,,,,,,,,,,,,,,,0,,,74,0
21000,note_on,0,0,1,,,,,,,,,,,,,,,0,,,72,53
21120,note_on,0,0,1,,,,,,,,,,,,,,,0,,,70,60
21120,note_on,0,0,2,,,,,,,,,,,,,,,0,,,58,0
21120,note_on,0,0,2,,,,,,,,,,,,,,,0,,,51,40
21120,control_change,0,0,2,,,,,,,,,,,,,,,0,64,0,,
21120,set_tempo,240,1,0,,,,,,,,,,,,447327,,,,,,,
21120,note_on,120,0,1,,,,,,,,,,,,,,,0,,,72,0
21120,note_on,240,0,2,,,,,,,,,,,,,,,0,,,53,0
21268,control_change,148,0,2,,,,,,,,,,,,,,,0,64,127,,
21360,note_on,0,0,2,,,,,,,,,,,,,,,0,,,58,34
21360,note_on,0,0,2,,,,,,,,,,,,,,,0,,,55,29
21360,note_on,92,0,2,,,,,,,,,,,,,,,0,,,51,0
21586,control_change,226,0,2,,,,,,,,,,,,,,,0,64,0,,
21600,note_on,0,0,2,,,,,,,,,,,,,,,0,,,50,34
21600,note_on,0,0,2,,,,,,,,,,,,,,,0,,,55,0
21600,note_on,14,0,2,,,,,,,,,,,,,,,0,,,58,0
21840,note_on,720,0,1,,,,,,,,,,,,,,,0,,,70,0
21840,note_on,0,0,1,,,,,,,,,,,,,,,0,,,70,57
21840,note_on,0,0,2,,,,,,,,,,,,,,,0,,,58,34
21840,note_on,0,0,2,,,,,,,,,,,,,,,0,,,55,29
21840,set_tempo,720,1,0,,,,,,,,,,,,450857,,,,,,,
21840,note_on,240,0,2,,,,,,,,,,,,,,,0,,,50,0
21960,note_on,120,0,1,,,,,,,,,,,,,,,0,,,70,0
22080,set_tempo,240,1,0,,,,,,,,,,,,445567,,,,,,,
22080,note_on,0,0,2,,,,,,,,,,,,,,,0,,,48,42
22080,note_on,120,0,1,,,,,,,,,,,,,,,0,,,75,60
22080,note_on,240,0,2,,,,,,,,,,,,,,,0,,,58,0
22080,note_on,0,0,2,,,,,,,,,,,,,,,0,,,55,0
22094,control_change,14,0,2,,,,,,,,,,,,,,,0,64,127,,
22320,note_on,226,0,2,,,,,,,,,,,,,,,0,,,48,0
22320,note_on,0,0,2,,,,,,,,,,,,,,,0,,,51,30
22320,note_on,0,0,2,,,,,,,,,,,,,,,0,,,57,36
22560,note_on,480,0,1,,,,,,,,,,,,,,,0,,,75,0
22560,note_on,240,0,2,,,,,,,,,,,,,,,0,,,57,0
22560,note_on,0,0,2,,,,,,,,,,,,,,,0,,,45,36
22560,note_on,0,0,1,,,,,,,,,,,,,,,0,,,72,60
22560,note_on,0,0,2,,,,,,,,,,,,,,,0,,,51,0
22800,note_on,240,0,2,,,,,,,,,,,,,,,0,,,45,0
22800,note_on,0,0,2,,,,,,,,,,,,,,,0,,,51,30
22800,note_on,0,0,2,,,,,,,,,,,,,,,0,,,57,36
23040,set_tempo,960,1,0,,,,,,,,,,,,450857,,,,,,,
23040,note_on,0,0,1,,,,,,,,,,,,,,,0,,,69,60
23040,note_on,480,0,1,,,,,,,,,,,,,,,0,,,72,0
23040,note_on,240,0,2,,,,,,,,,,,,,,,0,,,57,0
23040,note_on,0,0,2,,,,,,,,,,,,,,,0,,,51,0
23040,note_on,0,0,2,,,,,,,,,,,,,,,0,,,50,42
23054,control_change,14,0,2,,,,,,,,,,,,,,,0,64,0,,
23089,control_change,35,0,2,,,,,,,,,,,,,,,0,64,127,,
23280,note_on,191,0,2,,,,,,,,,,,,,,,0,,,50,0
23280,note_on,0,0,2,,,,,,,,,,,,,,,0,,,57,35
23280,note_on,0,0,2,,,,,,,,,,,,,,,0,,,54,29
23329,control_change,49,0,2,,,,,,,,,,,,,,,0,64,0,,
23520,set_tempo,480,1,0,,,,,,,,,,,,438725,,,,,,,
23520,note_on,0,0,1,,,,,,,,,,,,,,,0,,,74,65
23520,note_on,480,0,1,,,,,,,,,,,,,,,0,,,69,0
23520,note_on,0,0,1,,,,,,,,,,,,,,,0,,,62,54
23520,note_on,191,0,2,,,,,,,,,,,,,,,0,,,54,0
23520,note_on,0,0,2,,,,,,,,,,,,,,,0,,,57,0
23520,note_on,0,0,2,,,,,,,,,,,,,,,0,,,42,42
23640,note_on,0,0,1,,,,,,,,,,,,,,,0,,,74,0
23640,note_on,120,0,1,,,,,,,,,,,,,,,0,,,62,0
23640,note_on,120,0,2,,,,,,,,,,,,,,,0,,,42,0
23760,note_on,0,0,1,,,,,,,,,,,,,,,0,,,72,58
23760,note_on,120,0,2,,,,,,,,,,,,,,,0,,,50,30
23760,note_on,120,0,1,,,,,,,,,,,,,,,0,,,60,49
23760,note_on,0,0,2,,,,,,,,,,,,,,,0,,,54,36
23880,note_on,0,0,1,,,,,,,,,,,,,,,0,,,60,0
23880,note_on,0,0,2,,,,,,,,,,,,,,,0,,,50,0
23880,note_on,120,0,1,,,,,,,,,,,,,,,0,,,72,0
23880,note_on,120,0,2,,,,,,,,,,,,,,,0,,,54,0
24000,note_on,120,0,1,,,,,,,,,,,,,,,0,,,60,55
24000,note_on,0,0,1,,,,,,,,,,,,,,,0,,,72,66
24000,set_tempo,480,1,0,,,,,,,,,,,,427198,,,,,,,
24000,note_on,120,0,2,,,,,,,,,,,,,,,0,,,43,47
24120,note_on,120,0,2,,,,,,,,,,,,,,,0,,,43,0
24240,note_on,240,0,1,,,,,,,,,,,,,,,0,,,72,0
24240,note_on,0,0,1,,,,,,,,,,,,,,,0,,,60,0
24240,note_on,0,0,1,,,,,,,,,,,,,,,0,,,58,51
24240,note_on,0,0,1,,,,,,,,,,,,,,,0,,,70,60
24240,note_on,120,0,2,,,,,,,,,,,,,,,0,,,55,39
24360,note_on,120,0,1,,,,,,,,,,,,,,,0,,,70,0
24360,note_on,0,0,1,,,,,,,,,,,,,,,0,,,58,0
24360,note_on,120,0,2,,,,,,,,,,,,,,,0,,,55,0
24480,note_on,120,0,1,,,,,,,,,,,,,,,0,,,69,67
24480,note_on,120,0,2,,,,,,,,,,,,,,,0,,,39,49
24480,set_tempo,480,1,0,,,,,,,,,,,,438725,,,,,,,
24480,note_on,0,0,1,,,,,,,,,,,,,,,0,,,57,56
24600,note_on,120,0,2,,,,,,,,,,,,,,,0,,,39,0
24600,note_on,120,0,1,,,,,,,,,,,,,,,0,,,57,0
24600,note_on,0,0,1,,,,,,,,,,,,,,,0,,,69,0
24720,note_on,120,0,2,,,,,,,,,,,,,,,0,,,51,44
24720,note_on,0,0,1,,,,,,,,,,,,,,,0,,,67,61
24720,note_on,120,0,1,,,,,,,,,,,,,,,0,,,55,52
24840,note_on,0,0,1,,,,,,,,,,,,,,,0,,,55,0
24840,note_on,120,0,1,,,,,,,,,,,,,,,0,,,67,0
24840,note_on,120,0,2,,,,,,,,,,,,,,,0,,,51,0
24960,note_on,120,0,2,,,,,,,,,,,,,,,0,,,36,51
24960,note_on,120,0,1,,,,,,,,,,,,,,,0,,,70,73
24960,note_on,0,0,1,,,,,,,,,,,,,,,0,,,58,61
25080,note_on,120,0,2,,,,,,,,,,,,,,,0,,,36,0
25200,note_on,120,0,2,,,,,,,,,,,,,,,0,,,48,46
25200,note_on,0,0,1,,,,,,,,,,,,,,,0,,,70,0
25200,note_on,0,0,1,,,,,,,,,,,,,,,0,,,57,55
25200,note_on,0,0,1,,,,,,,,,,,,,,,0,,,69,66
25200,note_on,240,0,1,,,,,,,,,,,,,,,0,,,58,0
25320,note_on,0,0,1,,,,,,,,,,,,,,,0,,,69,0
25320,note_on,120,0,2,,,,,,,,,,,,,,,0,,,48,0
25320,note_on,120,0,1,,,,,,,,,,,,,,,0,,,57,0
25440,note_on,0,0,1,,,,,,,,,,,,,,,0,,,67,71
25440,note_on,120,0,1,,,,,,,,,,,,,,,0,,,55,59
25440,note_on,120,0,2,,,,,,,,,,,,,,,0,,,38,54
25440,set_tempo,960,1,0,,,,,,,,,,,,430447,,,,,,,
25560,note_on,120,0,2,,,,,,,,,,,,,,,0,,,38,0
25560,note_on,0,0,1,,,,,,,,,,,,,,,0,,,55,0
25560,note_on,120,0,1,,,,,,,,,,,,,,,0,,,67,0
25680,note_on,120,0,2,,,,,,,,,,,,,,,0,,,50,45
25680,note_on,120,0,1,,,,,,,,,,,,,,,0,,,66,66
25680,note_on,0,0,1,,,,,,,,,,,,,,,0,,,54,55
25800,note_on,120,0,1,,,,,,,,,,,,,,,0,,,54,0
25800,note_on,120,0,2,,,,,,,,,,,,,,,0,,,50,0
25800,note_on,0,0,1,,,,,,,,,,,,,,,0,,,66,0
25920,note_on,0,0,2,,,,,,,,,,,,,,,0,,,51,52
25920,note_on,120,0,2,,,,,,,,,,,,,,,0,,,36,44
25920,note_on,120,0,1,,,,,,,,,,,,,,,0,,,55,60
25920,note_on,0,0,1,,,,,,,,,,,,,,,0,,,67,72
25920,set_tempo,480,1,0,,,,,,,,,,,,459946,,,,,,,
26160,note_on,240,0,2,,,,,,,,,,,,,,,0,,,51,0
26160,note_on,240,0,1,,,,,,,,,,,,,,,0,,,67,0
26160,note_on,0,0,1,,,,,,,,,,,,,,,0,,,55,0
26160,note_on,0,0,2,,,,,,,,,,,,,,,0,,,36,0
26400,note_on,0,0,2,,,,,,,,,,,,,,,0,,,42,51
26400,note_on,0,0,2,,,,,,,,,,,,,,,0,,,54,60
26400,note_on,240,0,2,,,,,,,,,,,,,,,0,,,50,51
26400,note_on,240,0,1,,,,,,,,,,,,,,,0,,,74,81
26400,note_on,0,0,1,,,,,,,,,,,,,,,0,,,62,69
26400,note_on,0,0,1,,,,,,,,,,,,,,,0,,,69,69
26442,control_change,42,0,2,,,,,,,,,,,,,,,0,64,127,,
26880,set_tempo,960,1,0,,,,,,,,,,,,438725,,,,,,,
27120,note_on,720,0,1,,,,,,,,,,,,,,,0,,,69,0
27120,set_tempo,240,1,0,,,,,,,,,,,,450857,,,,,,,
27120,note_on,0,0,1,,,,,,,,,,,,,,,0,,,62,0
27120,note_on,0,0,1,,,,,,,,,,,,,,,0,,,63,53
27120,note_on,0,0,1,,,,,,,,,,,,,,,0,,,74,0
27120,note_on,0,0,1,,,,,,,,,,,,,,,0,,,75,64
27155,control_change,713,0,2,,,,,,,,,,,,,,,0,64,0,,
27240,note_on,120,0,1,,,,,,,,,,,,,,,0,,,75,0
27240,note_on,0,0,1,,,,,,,,,,,,,,,0,,,63,0
27360,set_tempo,240,1,0,,,,,,,,,,,,440399,,,,,,,
27360,note_on,120,0,1,,,,,,,,,,,,,,,0,,,74,68
27360,note_on,0,0,1,,,,,,,,,,,,,,,0,,,62,57
27480,note_on,120,0,1,,,,,,,,,,,,,,,0,,,62,0
27480,note_on,0,0,1,,,,,,,,,,,,,,,0,,,74,0
27600,note_on,0,0,1,,,,,,,,,,,,,,,0,,,60,53
27600,note_on,120,0,1,,,,,,,,,,,,,,,0,,,72,64
27720,note_on,0,0,1,,,,,,,,,,,,,,,0,,,72,0
27720,note_on,120,0,1,,,,,,,,,,,,,,,0,,,60,0
27800,set_tempo,440,1,0,,,,,,,,,,,,430447,,,,,,,
27840,note_on,120,0,1,,,,,,,,,,,,,,,0,,,60,58
27840,note_on,0,0,2,,,,,,,,,,,,,,,0,,,54,0
27840,note_on,0,0,2,,,,,,,,,,,,,,,0,,,50,0
27840,note_on,685,0,2,,,,,,,,,,,,,,,0,,,42,0
27840,note_on,0,0,2,,,,,,,,,,,,,,,0,,,43,50
27840,note_on,0,0,1,,,,,,,,,,,,,,,0,,,72,69
27889,control_change,49,0,2,,,,,,,,,,,,,,,0,64,127,,
28080,note_on,191,0,2,,,,,,,,,,,,,,,0,,,43,0
28080,note_on,0,0,2,,,,,,,,,,,,,,,0,,,55,45
28080,note_on,0,0,1,,,,,,,,,,,,,,,0,,,58,53
28080,note_on,0,0,1,,,,,,,,,,,,,,,0,,,70,64
28080,note_on,0,0,1,,,,,,,,,,,,,,,0,,,60,0
28080,note_on,240,0,1,,,,,,,,,,,,,,,0,,,72,0
28108,control_change,28,0,2,,,,,,,,,,,,,,,0,64,0,,
28200,note_on,120,0,1,,,,,,,,,,,,,,,0,,,58,0
28200,note_on,92,0,2,,,,,,,,,,,,,,,0,,,55,0
28200,note_on,0,0,1,,,,,,,,,,,,,,,0,,,70,0
28320,note_on,0,0,1,,,,,,,,,,,,,,,0,,,69,69
28320,note_on,120,0,1,,,,,,,,,,,,,,,0,,,57,58
28320,set_tempo,520,1,0,,,,,,,,,,,,438725,,,,,,,
28320,note_on,120,0,2,,,,,,,,,,,,,,,0,,,39,45
28440,note_on,0,0,1,,,,,,,,,,,,,,,0,,,57,0
28440,note_on,120,0,1,,,,,,,,,,,,,,,0,,,69,0
28560,note_on,0,0,1,,,,,,,,,,,,,,,0,,,67,64
28560,note_on,120,0,1,,,,,,,,,,,,,,,0,,,55,53
28560,note_on,240,0,2,,,,,,,,,,,,,,,0,,,39,0
28560,set_tempo,240,1,0,,,,,,,,,,,,463679,,,,,,,
28560,note_on,0,0,2,,,,,,,,,,,,,,,0,,,51,45
28680,note_on,120,0,1,,,,,,,,,,,,,,,0,,,67,0
28680,note_on,0,0,1,,,,,,,,,,,,,,,0,,,55,0
28800,note_on,0,0,2,,,,,,,,,,,,,,,0,,,36,50
28800,note_on,240,0,2,,,,,,,,,,,,,,,0,,,51,0
28800,note_on,120,0,1,,,,,,,,,,,,,,,0,,,68,72
28800,note_on,0,0,1,,,,,,,,,,,,,,,0,,,56,60
28800,set_tempo,240,1,0,,,,,,,,,,,,447327,,,,,,,
28856,control_change,56,0,2,,,,,,,,,,,,,,,0,64,127,,
29040,note_on,184,0,2,,,,,,,,,,,,,,,0,,,36,0
29040,note_on,0,0,2,,,,,,,,,,,,,,,0,,,48,45
29280,note_on,0,0,1,,,,,,,,,,,,,,,0,,,66,66
29280,note_on,0,0,1,,,,,,,,,,,,,,,0,,,54,55
29280,note_on,0,0,1,,,,,,,,,,,,,,,0,,,68,0
29280,note_on,480,0,1,,,,,,,,,,,,,,,0,,,56,0
29280,note_on,240,0,2,,,,,,,,,,,,,,,0,,,48,0
29280,note_on,0,0,2,,,,,,,,,,,,,,,0,,,38,45
29280,set_tempo,480,1,0,,,,,,,,,,,,454442,,,,,,,
29365,control_change,85,0,2,,,,,,,,,,,,,,,0,64,0,,
29464,control_change,99,0,2,,,,,,,,,,,,,,,0,64,127,,
29520,set_tempo,240,1,0,,,,,,,,,,,,475285,,,,,,,
29520,note_on,0,0,2,,,,,,,,,,,,,,,0,,,50,45
29520,note_on,56,0,2,,,,,,,,,,,,,,,0,,,38,0
29760,note_on,480,0,1,,,,,,,,,,,,,,,0,,,66,0
29760,note_on,0,0,2,,,,,,,,,,,,,,,0,,,31,42
29760,note_on,0,0,2,,,,,,,,,,,,,,,0,,,43,50
29760,control_change,0,0,2,,,,,,,,,,,,,,,0,64,0,,
29760,note_on,240,0,2,,,,,,,,,,,,,,,0,,,50,0
29760,note_on,0,0,1,,,,,,,,,,,,,,,0,,,55,59
29760,note_on,0,0,1,,,,,,,,,,,,,,,0,,,67,71
29760,control_change,0,0,1,,,,,,,,,,,,,,,0,91,127,,
29760,note_on,0,0,1,,,,,,,,,,,,,,,0,,,54,0
30000,note_on,0,0,2,,,,,,,,,,,,,,,0,,,43,0
30000,note_on,240,0,2,,,,,,,,,,,,,,,0,,,31,0
30000,note_on,240,0,1,,,,,,,,,,,,,,,0,,,67,0
30000,note_on,0,0,1,,,,,,,,,,,,,,,0,,,55,0
30240,set_tempo,720,1,0,,,,,,,,,,,,438725,,,,,,,
30240,note_on,0,0,2,,,,,,,,,,,,,,,0,,,67,94
30240,note_on,240,0,2,,,,,,,,,,,,,,,0,,,55,78
31440,set_tempo,1200,1,0,,,,,,,,,,,,452625,,,,,,,
31440,note_on,1440,0,1,,,,,,,,,,,,,,,0,,,74,52
31560,note_on,120,0,1,,,,,,,,,,,,,,,0,,,74,0
31680,set_tempo,240,1,0,,,,,,,,,,,,432059,,,,,,,
31680,note_on,120,0,1,,,,,,,,,,,,,,,0,,,72,63
31680,note_on,0,0,2,,,,,,,,,,,,,,,0,,,55,42
31680,note_on,0,0,2,,,,,,,,,,,,,,,0,,,55,0
31680,note_on,1440,0,2,,,,,,,,,,,,,,,0,,,67,0
31920,note_on,0,0,1,,,,,,,,,,,,,,,0,,,71,37
31920,note_on,240,0,1,,,,,,,,,,,,,,,0,,,72,0
31920,note_on,0,0,2,,,,,,,,,,,,,,,0,,,67,31
31920,note_on,240,0,2,,,,,,,,,,,,,,,0,,,55,0
32040,note_on,120,0,2,,,,,,,,,,,,,,,0,,,67,0
32040,note_on,120,0,1,,,,,,,,,,,,,,,0,,,71,0
32160,note_on,120,0,2,,,,,,,,,,,,,,,0,,,65,31
32160,set_tempo,480,1,0,,,,,,,,,,,,438725,,,,,,,
32160,note_on,0,0,2,,,,,,,,,,,,,,,0,,,62,26
32160,note_on,120,0,1,,,,,,,,,,,,,,,0,,,71,43
32280,note_on,120,0,2,,,,,,,,,,,,,,,0,,,62,0
32280,note_on,0,0,2,,,,,,,,,,,,,,,0,,,65,0
32280,note_on,120,0,1,,,,,,,,,,,,,,,0,,,71,0
32400,note_on,120,0,2,,,,,,,,,,,,,,,0,,,67,32
32400,note_on,120,0,1,,,,,,,,,,,,,,,0,,,71,37
32400,set_tempo,240,1,0,,,,,,,,,,,,445567,,,,,,,
32520,note_on,120,0,2,,,,,,,,,,,,,,,0,,,67,0
32520,note_on,120,0,1,,,,,,,,,,,,,,,0,,,71,0
32640,set_tempo,240,1,0,,,,,,,,,,,,422476,,,,,,,
32640,note_on,120,0,2,,,,,,,,,,,,,,,0,,,55,44
32640,note_on,120,0,1,,,,,,,,,,,,,,,0,,,71,55
32760,note_on,120,0,1,,,,,,,,,,,,,,,0,,,71,0
32760,note_on,0,0,1,,,,,,,,,,,,,,,0,,,72,49
32760,set_tempo,120,1,0,,,,,,,,,,,,459946,,,,,,,
32880,note_on,0,0,2,,,,,,,,,,,,,,,0,,,67,31
32880,set_tempo,120,1,0,,,,,,,,,,,,430447,,,,,,,
32880,note_on,240,0,2,,,,,,,,,,,,,,,0,,,55,0
32880,note_on,120,0,1,,,,,,,,,,,,,,,0,,,72,0
32880,note_on,0,0,1,,,,,,,,,,,,,,,0,,,79,59
33120,set_tempo,240,1,0,,,,,,,,,,,,433714,,,,,,,
33120,note_on,0,0,2,,,,,,,,,,,,,,,0,,,60,29
33120,note_on,0,0,2,,,,,,,,,,,,,,,0,,,63,35
33120,note_on,240,0,1,,,,,,,,,,,,,,,0,,,79,0
33120,note_on,0,0,1,,,,,,,,,,,,,,,0,,,77,50
33120,note_on,240,0,2,,,,,,,,,,,,,,,0,,,67,0
33240,note_on,120,0,1,,,,,,,,,,,,,,,0,,,77,0
33240,note_on,0,0,1,,,,,,,,,,,,,,,0,,,75,45
33360,note_on,0,0,2,,,,,,,,,,,,,,,0,,,67,32
33360,note_on,120,0,1,,,,,,,,,,,,,,,0,,,75,0
33360,note_on,0,0,1,,,,,,,,,,,,,,,0,,,74,45
33360,note_on,0,0,2,,,,,,,,,,,,,,,0,,,63,0
33360,set_tempo,240,1,0,,,,,,,,,,,,449068,,,,,,,
33360,note_on,240,0,2,,,,,,,,,,,,,,,0,,,60,0
33480,note_on,120,0,1,,,,,,,,,,,,,,,0,,,74,0
33480,note_on,0,0,1,,,,,,,,,,,,,,,0,,,72,45
33600,set_tempo,240,1,0,,,,,,,,,,,,432059,,,,,,,
33600,note_on,240,0,2,,,,,,,,,,,,,,,0,,,67,0
33600,note_on,0,0,2,,,,,,,,,,,,,,,0,,,55,42
33600,note_on,0,0,1,,,,,,,,,,,,,,,0,,,72,63
33600,note_on,120,0,1,,,,,,,,,,,,,,,0,,,72,0
33840,note_on,0,0,2,,,,,,,,,,,,,,,0,,,67,31
33840,note_on,240,0,2,,,,,,,,,,,,,,,0,,,55,0
33840,note_on,240,0,1,,,,,,,,,,,,,,,0,,,72,0
33840,note_on,0,0,1,,,,,,,,,,,,,,,0,,,71,37
33960,note_on,120,0,2,,,,,,,,,,,,,,,0,,,67,0
33960,note_on,120,0,1,,,,,,,,,,,,,,,0,,,71,0
34080,note_on,120,0,2,,,,,,,,,,,,,,,0,,,65,31
34080,note_on,120,0,1,,,,,,,,,,,,,,,0,,,71,44
34080,note_on,0,0,2,,,,,,,,,,,,,,,0,,,62,26
34080,set_tempo,480,1,0,,,,,,,,,,,,437031,,,,,,,
34200,note_on,120,0,1,,,,,,,,,,,,,,,0,,,71,0
34200,note_on,0,0,2,,,,,,,,,,,,,,,0,,,65,0
34200,note_on,120,0,2,,,,,,,,,,,,,,,0,,,62,0
34320,note_on,120,0,1,,,,,,,,,,,,,,,0,,,71,37
34320,note_on,120,0,2,,,,,,,,,,,,,,,0,,,67,29
34320,set_tempo,240,1,0,,,,,,,,,,,,449068,,,,,,,
34440,note_on,120,0,1,,,,,,,,,,,,,,,0,,,71,0
34440,note_on,120,0,2,,,,,,,,,,,,,,,0,,,67,0
34560,note_on,120,0,2,,,,,,,,,,,,,,,0,,,55,44
34560,note_on,120,0,1,,,,,,,,,,,,,,,0,,,71,57
34560,set_tempo,240,1,0,,,,,,,,,,,,438725,,,,,,,
34800,note_on,0,0,2,,,,,,,,,,,,,,,0,,,67,32
34800,note_on,240,0,2,,,,,,,,,,,,,,,0,,,55,0
34800,note_on,0,0,1,,,,,,,,,,,,,,,0,,,72,47
34800,note_on,240,0,1,,,,,,,,,,,,,,,0,,,71,0
34920,note_on,120,0,2,,,,,,,,,,,,,,,0,,,67,0
34920,note_on,120,0,1,,,,,,,,,,,,,,,0,,,72,0
35040,note_on,0,0,2,,,,,,,,,,,,,,,0,,,60,29
35040,note_on,0,0,2,,,,,,,,,,,,,,,0,,,63,35
35040,note_on,120,0,2,,,,,,,,,,,,,,,0,,,54,29
35160,note_on,0,0,2,,,,,,,,,,,,,,,0,,,54,0
35160,note_on,120,0,2,,,,,,,,,,,,,,,0,,,60,0
35160,note_on,0,0,2,,,,,,,,,,,,,,,0,,,63,0
35280,set_tempo,720,1,0,,,,,,,,,,,,447327,,,,,,,
35280,note_on,360,0,1,,,,,,,,,,,,,,,0,,,75,54
35280,note_on,120,0,2,,,,,,,,,,,,,,,0,,,66,35
35520,note_on,240,0,1,,,,,,,,,,,,,,,0,,,75,0
35520,note_on,0,0,2,,,,,,,,,,,,,,,0,,,53,42
35520,set_tempo,240,1,0,,,,,,,,,,,,430447,,,,,,,
35520,note_on,0,0,1,,,,,,,,,,,,,,,0,,,72,63
35520,note_on,240,0,2,,,,,,,,,,,,,,,0,,,66,0
35760,note_on,240,0,2,,,,,,,,,,,,,,,0,,,53,0
35760,note_on,0,0,2,,,,,,,,,,,,,,,0,,,65,35
35760,note_on,0,0,1,,,,,,,,,,,,,,,0,,,70,52
35760,note_on,240,0,1,,,,,,,,,,,,,,,0,,,72,0
35880,note_on,120,0,2,,,,,,,,,,,,,,,0,,,65,0
35880,note_on,120,0,1,,,,,,,,,,,,,,,0,,,70,0
36000,note_on,120,0,1,,,,,,,,,,,,,,,0,,,70,54
36000,note_on,120,0,2,,,,,,,,,,,,,,,0,,,62,35
36000,set_tempo,480,1,0,,,,,,,,,,,,438725,,,,,,,
36120,note_on,120,0,2,,,,,,,,,,,,,,,0,,,62,0
36120,note_on,120,0,1,,,,,,,,,,,,,,,0,,,70,0
36240,note_on,120,0,2,,,,,,,,,,,,,,,0,,,65,36
36240,note_on,120,0,1,,,,,,,,,,,,,,,0,,,70,54
36360,note_on,120,0,1,,,,,,,,,,,,,,,0,,,70,0
36360,note_on,120,0,2,,,,,,,,,,,,,,,0,,,65,0
36480,note_on,120,0,2,,,,,,,,,,,,,,,0,,,55,42
36480,set_tempo,480,1,0,,,,,,,,,,,,432059,,,,,,,
36480,note_on,120,0,1,,,,,,,,,,,,,,,0,,,72,63
36720,note_on,240,0,2,,,,,,,,,,,,,,,0,,,55,0
36720,note_on,0,0,2,,,,,,,,,,,,,,,0,,,64,36
36720,note_on,0,0,1,,,,,,,,,,,,,,,0,,,70,53
36720,note_on,240,0,1,,,,,,,,,,,,,,,0,,,72,0
36840,note_on,120,0,1,,,,,,,,,,,,,,,0,,,70,0
36840,note_on,120,0,2,,,,,,,,,,,,,,,0,,,64,0
36960,note_on,120,0,1,,,,,,,,,,,,,,,0,,,70,55
36960,note_on,120,0,2,,,,,,,,,,,,,,,0,,,60,36
36960,set_tempo,480,1,0,,,,,,,,,,,,438725,,,,,,,
37080,note_on,120,0,1,,,,,,,,,,,,,,,0,,,70,0
37080,note_on,120,0,2,,,,,,,,,,,,,,,0,,,60,0
37200,note_on,120,0,1,,,,,,,,,,,,,,,0,,,70,55
37200,note_on,120,0,2,,,,,,,,,,,,,,,0,,,64,36
37320,note_on,120,0,2,,,,,,,,,,,,,,,0,,,64,0
37320,note_on,120,0,1,,,,,,,,,,,,,,,0,,,70,0
37440,note_on,0,0,2,,,,,,,,,,,,,,,0,,,53,35
37440,note_on,120,0,2,,,,,,,,,,,,,,,0,,,62,42
37440,set_tempo,480,1,0,,,,,,,,,,,,430447,,,,,,,
37440,note_on,120,0,1,,,,,,,,,,,,,,,0,,,72,63
37482,control_change,42,0,2,,,,,,,,,,,,,,,0,64,127,,
37560,note_on,120,0,1,,,,,,,,,,,,,,,0,,,72,0
37560,note_on,0,0,1,,,,,,,,,,,,,,,0,,,70,52
37680,note_on,0,0,2,,,,,,,,,,,,,,,0,,,65,33
37680,note_on,0,0,2,,,,,,,,,,,,,,,0,,,62,0
37680,note_on,0,0,1,,,,,,,,,,,,,,,0,,,69,53
37680,note_on,198,0,2,,,,,,,,,,,,,,,0,,,53,0
37680,note_on,120,0,1,,,,,,,,,,,,,,,0,,,70,0
37800,note_on,120,0,1,,,,,,,,,,,,,,,0,,,69,0
37800,note_on,0,0,1,,,,,,,,,,,,,,,0,,,70,53
37920,note_on,0,0,2,,,,,,,,,,,,,,,0,,,53,29
37920,note_on,0,0,2,,,,,,,,,,,,,,,0,,,63,35
37920,note_on,240,0,2,,,,,,,,,,,,,,,0,,,65,0
37920,note_on,0,0,1,,,,,,,,,,,,,,,0,,,72,58
37920,set_tempo,480,1,0,,,,,,,,,,,,443820,,,,,,,
37920,note_on,120,0,1,,,,,,,,,,,,,,,0,,,70,0
37955,control_change,35,0,2,,,,,,,,,,,,,,,0,64,0,,
38040,note_on,120,0,1,,,,,,,,,,,,,,,0,,,72,0
38040,note_on,85,0,2,,,,,,,,,,,,,,,0,,,53,0
38040,note_on,0,0,2,,,,,,,,,,,,,,,0,,,63,0
38160,set_tempo,240,1,0,,,,,,,,,,,,456274,,,,,,,
38160,note_on,120,0,2,,,,,,,,,,,,,,,0,,,65,34
38160,note_on,120,0,1,,,,,,,,,,,,,,,0,,,74,54
38280,note_on,120,0,1,,,,,,,,,,,,,,,0,,,74,0
38280,note_on,120,0,2,,,,,,,,,,,,,,,0,,,65,0
38400,note_on,0,0,2,,,,,,,,,,,,,,,0,,,62,42
38400,set_tempo,240,1,0,,,,,,,,,,,,439560,,,,,,,
38400,note_on,120,0,2,,,,,,,,,,,,,,,0,,,58,42
38400,note_on,120,0,1,,,,,,,,,,,,,,,0,,,70,58
38519,set_tempo,119,1,0,,,,,,,,,,,,438725,,,,,,,
38520,note_on,0,0,2,,,,,,,,,,,,,,,0,,,58,0
38520,note_on,120,0,2,,,,,,,,,,,,,,,0,,,62,0
38640,set_tempo,121,1,0,,,,,,,,,,,,447327,,,,,,,
38640,note_on,120,0,2,,,,,,,,,,,,,,,0,,,57,38
38760,note_on,120,0,2,,,,,,,,,,,,,,,0,,,57,0
38880,note_on,480,0,1,,,,,,,,,,,,,,,0,,,70,0
38880,note_on,120,0,2,,,,,,,,,,,,,,,0,,,55,37
39000,note_on,120,0,2,,,,,,,,,,,,,,,0,,,55,0
39120,note_on,240,0,1,,,,,,,,,,,,,,,0,,,74,57
39120,set_tempo,480,1,0,,,,,,,,,,,,450857,,,,,,,
39120,note_on,120,0,2,,,,,,,,,,,,,,,0,,,53,36
39240,note_on,120,0,2,,,,,,,,,,,,,,,0,,,53,0
39240,note_on,120,0,1,,,,,,,,,,,,,,,0,,,74,0
39360,note_on,120,0,2,,,,,,,,,,,,,,,0,,,51,42
39360,set_tempo,240,1,0,,,,,,,,,,,,445567,,,,,,,
39360,note_on,120,0,1,,,,,,,,,,,,,,,0,,,79,60
39480,note_on,120,0,2,,,,,,,,,,,,,,,0,,,51,0
39600,note_on,120,0,2,,,,,,,,,,,,,,,0,,,58,36
39600,note_on,0,0,2,,,,,,,,,,,,,,,0,,,55,36
39720,note_on,0,0,2,,,,,,,,,,,,,,,0,,,58,0
39720,note_on,120,0,2,,,,,,,,,,,,,,,0,,,55,0
39840,note_on,480,0,1,,,,,,,,,,,,,,,0,,,79,0
39840,note_on,120,0,2,,,,,,,,,,,,,,,0,,,48,36
39840,note_on,0,0,1,,,,,,,,,,,,,,,0,,,75,60
39960,note_on,120,0,2,,,,,,,,,,,,,,,0,,,48,0
40080,note_on,0,0,2,,,,,,,,,,,,,,,0,,,60,36
40080,note_on,120,0,2,,,,,,,,,,,,,,,0,,,55,36
40200,note_on,120,0,2,,,,,,,,,,,,,,,0,,,60,0
40200,note_on,0,0,2,,,,,,,,,,,,,,,0,,,55,0
40320,note_on,0,0,1,,,,,,,,,,,,,,,0,,,72,60
40320,note_on,480,0,1,,,,,,,,,,,,,,,0,,,75,0
40320,set_tempo,960,1,0,,,,,,,,,,,,438725,,,,,,,
40320,note_on,120,0,2,,,,,,,,,,,,,,,0,,,53,42
40440,note_on,120,0,2,,,,,,,,,,,,,,,0,,,53,0
40560,note_on,120,0,2,,,,,,,,,,,,,,,0,,,60,35
40560,note_on,0,0,2,,,,,,,,,,,,,,,0,,,57,35
40680,note_on,0,0,2,,,,,,,,,,,,,,,0,,,60,0
40680,note_on,120,0,2,,,,,,,,,,,,,,,0,,,57,0
40800,note_on,0,0,1,,,,,,,,,,,,,,,0,,,74,60
40800,note_on,480,0,1,,,,,,,,,,,,,,,0,,,72,0
40800,note_on,120,0,2,,,,,,,,,,,,,,,0,,,51,36
40920,note_on,120,0,2,,,,,,,,,,,,,,,0,,,51,0
40920,note_on,120,0,1,,,,,,,,,,,,,,,0,,,74,0
41040,note_on,120,0,1,,,,,,,,,,,,,,,0,,,75,58
41040,note_on,120,0,2,,,,,,,,,,,,,,,0,,,57,36
41040,note_on,0,0,2,,,,,,,,,,,,,,,0,,,60,36
41160,note_on,120,0,1,,,,,,,,,,,,,,,0,,,75,0
41160,note_on,120,0,2,,,,,,,,,,,,,,,0,,,60,0
41160,note_on,0,0,2,,,,,,,,,,,,,,,0,,,57,0
41280,set_tempo,960,1,0,,,,,,,,,,,,432059,,,,,,,
41280,note_on,120,0,1,,,,,,,,,,,,,,,0,,,77,57
41280,note_on,120,0,2,,,,,,,,,,,,,,,0,,,50,39
41294,control_change,14,0,2,,,,,,,,,,,,,,,0,64,127,,
41400,note_on,0,0,1,,,,,,,,,,,,,,,0,,,79,53
41400,note_on,120,0,1,,,,,,,,,,,,,,,0,,,77,0
41520,note_on,0,0,1,,,,,,,,,,,,,,,0,,,77,53
41520,note_on,120,0,1,,,,,,,,,,,,,,,0,,,79,0
41520,note_on,0,0,2,,,,,,,,,,,,,,,0,,,53,29
41520,note_on,0,0,2,,,,,,,,,,,,,,,0,,,58,34
41520,note_on,226,0,2,,,,,,,,,,,,,,,0,,,50,0
41640,note_on,120,0,1,,,,,,,,,,,,,,,0,,,77,0
41640,note_on,0,0,1,,,,,,,,,,,,,,,0,,,75,53
41760,note_on,0,0,1,,,,,,,,,,,,,,,0,,,74,59
41760,note_on,240,0,2,,,,,,,,,,,,,,,0,,,53,0
41760,note_on,0,0,2,,,,,,,,,,,,,,,0,,,58,0
41760,note_on,0,0,2,,,,,,,,,,,,,,,0,,,46,34
41760,note_on,120,0,1,,,,,,,,,,,,,,,0,,,75,0
41760,set_tempo,480,1,0,,,,,,,,,,,,440399,,,,,,,
41774,control_change,14,0,2,,,,,,,,,,,,,,,0,64,0,,
41824,control_change,50,0,2,,,,,,,,,,,,,,,0,64,127,,
41880,note_on,120,0,1,,,,,,,,,,,,,,,0,,,74,0
41880,note_on,0,0,1,,,,,,,,,,,,,,,0,,,75,52
42000,note_on,176,0,2,,,,,,,,,,,,,,,0,,,46,0
42000,note_on,0,0,2,,,,,,,,,,,,,,,0,,,53,29
42000,note_on,0,0,2,,,,,,,,,,,,,,,0,,,58,34
42000,set_tempo,240,1,0,,,,,,,,,,,,456274,,,,,,,
42000,note_on,0,0,1,,,,,,,,,,,,,,,0,,,74,52
42000,note_on,120,0,1,,,,,,,,,,,,,,,0,,,75,0
42120,note_on,0,0,1,,,,,,,,,,,,,,,0,,,72,53
42120,note_on,120,0,1,,,,,,,,,,,,,,,0,,,74,0
42240,set_tempo,240,1,0,,,,,,,,,,,,447327,,,,,,,
42240,control_change,0,0,2,,,,,,,,,,,,,,,0,64,0,,
42240,note_on,0,0,2,,,,,,,,,,,,,,,0,,,51,40
42240,note_on,0,0,2,,,,,,,,,,,,,,,0,,,53,0
42240,note_on,240,0,2,,,,,,,,,,,,,,,0,,,58,0
42240,note_on,0,0,1,,,,,,,,,,,,,,,0,,,70,60
42240,note_on,120,0,1,,,,,,,,,,,,,,,0,,,72,0
42388,control_change,148,0,2,,,,,,,,,,,,,,,0,64,127,,
42480,note_on,0,0,2,,,,,,,,,,,,,,,0,,,58,34
42480,note_on,92,0,2,,,,,,,,,,,,,,,0,,,51,0
42480,note_on,0,0,2,,,,,,,,,,,,,,,0,,,55,29
42706,control_change,226,0,2,,,,,,,,,,,,,,,0,64,0,,
42720,set_tempo,480,1,0,,,,,,,,,,,,461787,,,,,,,
42720,note_on,14,0,2,,,,,,,,,,,,,,,0,,,55,0
42720,note_on,0,0,2,,,,,,,,,,,,,,,0,,,58,0
42720,note_on,0,0,2,,,,,,,,,,,,,,,0,,,50,34
42960,set_tempo,240,1,0,,,,,,,,,,,,456274,,,,,,,
42960,note_on,720,0,1,,,,,,,,,,,,,,,0,,,70,0
42960,note_on,0,0,1,,,,,,,,,,,,,,,0,,,70,46
42960,note_on,0,0,2,,,,,,,,,,,,,,,0,,,55,29
42960,note_on,0,0,2,,,,,,,,,,,,,,,0,,,58,29
42960,note_on,240,0,2,,,,,,,,,,,,,,,0,,,50,0
43080,note_on,120,0,1,,,,,,,,,,,,,,,0,,,70,0
43200,set_tempo,240,1,0,,,,,,,,,,,,445567,,,,,,,
43200,control_change,0,0,2,,,,,,,,,,,,,,,0,64,127,,
43200,note_on,0,0,2,,,,,,,,,,,,,,,0,,,48,33
43200,note_on,0,0,2,,,,,,,,,,,,,,,0,,,58,0
43200,note_on,240,0,2,,,,,,,,,,,,,,,0,,,55,0
43200,note_on,120,0,1,,,,,,,,,,,,,,,0,,,75,48
43440,note_on,0,0,2,,,,,,,,,,,,,,,0,,,56,29
43440,note_on,240,0,2,,,,,,,,,,,,,,,0,,,48,0
43440,note_on,0,0,2,,,,,,,,,,,,,,,0,,,60,29
43680,note_on,0,0,2,,,,,,,,,,,,,,,0,,,60,0
43680,note_on,0,0,1,,,,,,,,,,,,,,,0,,,72,48
43680,note_on,480,0,1,,,,,,,,,,,,,,,0,,,75,0
43680,note_on,0,0,2,,,,,,,,,,,,,,,0,,,51,29
43680,note_on,240,0,2,,,,,,,,,,,,,,,0,,,56,0
43920,note_on,240,0,2,,,,,,,,,,,,,,,0,,,51,0
43920,note_on,0,0,2,,,,,,,,,,,,,,,0,,,60,29
43920,note_on,0,0,2,,,,,,,,,,,,,,,0,,,56,29
44160,note_on,480,0,1,,,,,,,,,,,,,,,0,,,72,0
44160,note_on,0,0,2,,,,,,,,,,,,,,,0,,,60,0
44160,note_on,0,0,2,,,,,,,,,,,,,,,0,,,48,33
44160,note_on,0,0,1,,,,,,,,,,,,,,,0,,,68,48
44160,set_tempo,960,1,0,,,,,,,,,,,,438725,,,,,,,
44160,note_on,240,0,2,,,,,,,,,,,,,,,0,,,56,0
44160,control_change,0,0,2,,,,,,,,,,,,,,,0,64,0,,
44274,control_change,114,0,2,,,,,,,,,,,,,,,0,64,127,,
44400,note_on,0,0,2,,,,,,,,,,,,,,,0,,,56,28
44400,note_on,0,0,2,,,,,,,,,,,,,,,0,,,60,28
44400,note_on,126,0,2,,,,,,,,,,,,,,,0,,,48,0
44640,note_on,240,0,2,,,,,,,,,,,,,,,0,,,56,0
44640,note_on,0,0,2,,,,,,,,,,,,,,,0,,,60,0
44640,note_on,0,0,2,,,,,,,,,,,,,,,0,,,51,29
44640,note_on,480,0,1,,,,,,,,,,,,,,,0,,,68,0
44640,note_on,0,0,1,,,,,,,,,,,,,,,0,,,70,48
44880,note_on,240,0,2,,,,,,,,,,,,,,,0,,,51,0
44880,note_on,0,0,2,,,,,,,,,,,,,,,0,,,56,29
44880,note_on,0,0,2,,,,,,,,,,,,,,,0,,,60,29
44880,note_on,240,0,1,,,,,,,,,,,,,,,0,,,70,0
44880,note_on,0,0,1,,,,,,,,,,,,,,,0,,,72,46
45120,note_on,240,0,1,,,,,,,,,,,,,,,0,,,72,0
45120,note_on,0,0,1,,,,,,,,,,,,,,,0,,,75,48
45120,set_tempo,960,1,0,,,,,,,,,,,,445567,,,,,,,
45120,note_on,0,0,2,,,,,,,,,,,,,,,0,,,49,33
45120,control_change,0,0,2,,,,,,,,,,,,,,,0,64,0,,
45120,note_on,240,0,2,,,,,,,,,,,,,,,0,,,60,0
45120,note_on,0,0,2,,,,,,,,,,,,,,,0,,,56,0
45234,control_change,114,0,2,,,,,,,,,,,,,,,0,64,127,,
45360,note_on,0,0,2,,,,,,,,,,,,,,,0,,,58,29
45360,note_on,0,0,2,,,,,,,,,,,,,,,0,,,55,29
45360,note_on,126,0,2,,,,,,,,,,,,,,,0,,,49,0
45600,note_on,0,0,1,,,,,,,,,,,,,,,0,,,73,48
45600,note_on,480,0,1,,,,,,,,,,,,,,,0,,,75,0
45600,note_on,240,0,2,,,,,,,,,,,,,,,0,,,58,0
45600,note_on,0,0,2,,,,,,,,,,,,,,,0,,,51,29
45600,note_on,0,0,2,,,,,,,,,,,,,,,0,,,55,0
45634,control_change,34,0,2,,,,,,,,,,,,,,,0,64,0,,
45714,control_change,80,0,2,,,,,,,,,,,,,,,0,64,127,,
45840,note_on,0,0,2,,,,,,,,,,,,,,,0,,,55,29
45840,note_on,0,0,2,,,,,,,,,,,,,,,0,,,58,29
45840,note_on,126,0,2,,,,,,,,,,,,,,,0,,,51,0
45840,note_on,240,0,1,,,,,,,,,,,,,,,0,,,73,0
45840,note_on,0,0,1,,,,,,,,,,,,,,,0,,,72,48
46080,note_on,240,0,1,,,,,,,,,,,,,,,0,,,72,0
46080,note_on,0,0,1,,,,,,,,,,,,,,,0,,,70,48
46080,note_on,0,0,2,,,,,,,,,,,,,,,0,,,49,33
46080,control_change,0,0,2,,,,,,,,,,,,,,,0,64,0,,
46080,set_tempo,960,1,0,,,,,,,,,,,,438725,,,,,,,
46080,note_on,0,0,2,,,,,,,,,,,,,,,0,,,58,0
46080,note_on,240,0,2,,,,,,,,,,,,,,,0,,,55,0
46131,control_change,51,0,2,,,,,,,,,,,,,,,0,64,127,,
46320,note_on,0,0,2,,,,,,,,,,,,,,,0,,,55,28
46320,note_on,0,0,2,,,,,,,,,,,,,,,0,,,58,28
46320,note_on,189,0,2,,,,,,,,,,,,,,,0,,,49,0
46560,note_on,0,0,1,,,,,,,,,,,,,,,0,,,72,48
46560,note_on,0,0,2,,,,,,,,,,,,,,,0,,,58,0
46560,note_on,240,0,2,,,,,,,,,,,,,,,0,,,55,0
46560,note_on,480,0,1,,,,,,,,,,,,,,,0,,,70,0
46560,note_on,0,0,2,,,,,,,,,,,,,,,0,,,51,29
46566,control_change,6,0,2,,,,,,,,,,,,,,,0,64,0,,
46680,note_on,120,0,1,,,,,,,,,,,,,,,0,,,72,0
46680,note_on,114,0,2,,,,,,,,,,,,,,,0,,,51,0
46800,note_on,0,0,2,,,,,,,,,,,,,,,0,,,58,29
46800,note_on,120,0,2,,,,,,,,,,,,,,,0,,,55,29
46800,note_on,120,0,1,,,,,,,,,,,,,,,0,,,73,46
46920,note_on,120,0,1,,,,,,,,,,,,,,,0,,,73,0
46920,note_on,120,0,2,,,,,,,,,,,,,,,0,,,58,0
46920,note_on,0,0,2,,,,,,,,,,,,,,,0,,,55,0
47040,note_on,120,0,1,,,,,,,,,,,,,,,0,,,75,46
47040,note_on,120,0,2,,,,,,,,,,,,,,,0,,,48,31
47160,note_on,120,0,1,,,,,,,,,,,,,,,0,,,75,0
47160,note_on,0,0,1,,,,,,,,,,,,,,,0,,,77,42
47160,note_on,120,0,2,,,,,,,,,,,,,,,0,,,48,0
47280,note_on,120,0,1,,,,,,,,,,,,,,,0,,,77,0
47280,note_on,0,0,1,,,,,,,,,,,,,,,0,,,75,42
47280,note_on,120,0,2,,,,,,,,,,,,,,,0,,,60,27
47280,note_on,0,0,2,,,,,,,,,,,,,,,0,,,56,23
47400,note_on,0,0,2,,,,,,,,,,,,,,,0,,,60,0
47400,note_on,0,0,1,,,,,,,,,,,,,,,0,,,73,42
47400,note_on,120,0,1,,,,,,,,,,,,,,,0,,,75,0
47400,note_on,120,0,2,,,,,,,,,,,,,,,0,,,56,0
47520,note_on,120,0,2,,,,,,,,,,,,,,,0,,,51,27
47520,note_on,120,0,1,,,,,,,,,,,,,,,0,,,73,0
47520,note_on,0,0,1,,,,,,,,,,,,,,,0,,,72,47
47520,set_tempo,1440,1,0,,,,,,,,,,,,440399,,,,,,,
47640,note_on,120,0,2,,,,,,,,,,,,,,,0,,,51,0
47640,note_on,120,0,1,,,,,,,,,,,,,,,0,,,72,0
47640,note_on,0,0,1,,,,,,,,,,,,,,,0,,,73,42
47760,note_on,120,0,1,,,,,,,,,,,,,,,0,,,73,0
47760,note_on,0,0,1,,,,,,,,,,,,,,,0,,,72,42
47760,note_on,120,0,2,,,,,,,,,,,,,,,0,,,60,27
47760,note_on,0,0,2,,,,,,,,,,,,,,,0,,,56,23
47760,set_tempo,240,1,0,,,,,,,,,,,,449068,,,,,,,
47880,note_on,0,0,1,,,,,,,,,,,,,,,0,,,70,42
47880,note_on,120,0,2,,,,,,,,,,,,,,,0,,,56,0
47880,note_on,0,0,2,,,,,,,,,,,,,,,0,,,60,0
47880,note_on,120,0,1,,,,,,,,,,,,,,,0,,,72,0
48000,note_on,120,0,1,,,,,,,,,,,,,,,0,,,70,0
48000,note_on,0,0,1,,,,,,,,,,,,,,,0,,,68,48
48000,note_on,120,0,2,,,,,,,,,,,,,,,0,,,48,32
48000,set_tempo,240,1,0,,,,,,,,,,,,447327,,,,,,,
48120,note_on,120,0,2,,,,,,,,,,,,,,,0,,,48,0
48148,control_change,28,0,2,,,,,,,,,,,,,,,0,64,127,,
48240,set_tempo,240,1,0,,,,,,,,,,,,454442,,,,,,,
48240,note_on,0,0,2,,,,,,,,,,,,,,,0,,,60,27
48240,note_on,92,0,2,,,,,,,,,,,,,,,0,,,56,23
48360,note_on,120,0,2,,,,,,,,,,,,,,,0,,,60,0
48360,note_on,0,0,2,,,,,,,,,,,,,,,0,,,56,0
48466,control_change,106,0,2,,,,,,,,,,,,,,,0,64,0,,
48480,note_on,0,0,1,,,,,,,,,,,,,,,0,,,70,48
48480,set_tempo,240,1,0,,,,,,,,,,,,447327,,,,,,,
48480,note_on,14,0,2,,,,,,,,,,,,,,,0,,,51,32
48480,note_on,480,0,1,,,,,,,,,,,,,,,0,,,68,0
48600,note_on,120,0,1,,,,,,,,,,,,,,,0,,,70,0
48600,note_on,120,0,2,,,,,,,,,,,,,,,0,,,51,0
48720,note_on,120,0,1,,,,,,,,,,,,,,,0,,,72,44
48720,note_on,120,0,2,,,,,,,,,,,,,,,0,,,56,23
48720,note_on,0,0,2,,,,,,,,,,,,,,,0,,,60,27
48840,note_on,120,0,1,,,,,,,,,,,,,,,0,,,72,0
48840,note_on,0,0,2,,,,,,,,,,,,,,,0,,,56,0
48840,note_on,120,0,2,,,,,,,,,,,,,,,0,,,60,0
48960,control_change,120,0,2,,,,,,,,,,,,,,,0,64,127,,
48960,note_on,0,0,2,,,,,,,,,,,,,,,0,,,49,32
48960,note_on,120,0,1,,,,,,,,,,,,,,,0,,,75,48
49200,note_on,0,0,2,,,,,,,,,,,,,,,0,,,58,29
49200,note_on,0,0,2,,,,,,,,,,,,,,,0,,,55,29
49200,note_on,240,0,2,,,,,,,,,,,,,,,0,,,49,0
49200,note_on,0,0,1,,,,,,,,,,,,,,,0,,,73,48
49200,note_on,240,0,1,,,,,,,,,,,,,,,0,,,75,0
49320,note_on,0,0,2,,,,,,,,,,,,,,,0,,,55,0
49320,note_on,120,0,1,,,,,,,,,,,,,,,0,,,73,0
49320,note_on,120,0,2,,,,,,,,,,,,,,,0,,,58,0
49429,control_change,109,0,2,,,,,,,,,,,,,,,0,64,0,,
49440,note_on,11,0,2,,,,,,,,,,,,,,,0,,,51,32
49440,set_tempo,960,1,0,,,,,,,,,,,,437031,,,,,,,
49440,note_on,120,0,1,,,,,,,,,,,,,,,0,,,73,48
49480,control_change,40,0,2,,,,,,,,,,,,,,,0,64,127,,
49560,note_on,120,0,1,,,,,,,,,,,,,,,0,,,73,0
49560,note_on,0,0,1,,,,,,,,,,,,,,,0,,,75,44
49680,note_on,0,0,2,,,,,,,,,,,,,,,0,,,58,29
49680,note_on,0,0,2,,,,,,,,,,,,,,,0,,,55,29
49680,note_on,200,0,2,,,,,,,,,,,,,,,0,,,51,0
49680,note_on,120,0,1,,,,,,,,,,,,,,,0,,,75,0
49680,note_on,0,0,1,,,,,,,,,,,,,,,0,,,73,44
49800,note_on,0,0,1,,,,,,,,,,,,,,,0,,,72,44
49800,note_on,120,0,1,,,,,,,,,,,,,,,0,,,73,0
49920,note_on,0,0,1,,,,,,,,,,,,,,,0,,,70,48
49920,note_on,120,0,1,,,,,,,,,,,,,,,0,,,72,0
49920,control_change,0,0,2,,,,,,,,,,,,,,,0,64,0,,
49920,note_on,0,0,2,,,,,,,,,,,,,,,0,,,49,34
49920,note_on,240,0,2,,,,,,,,,,,,,,,0,,,55,0
49920,note_on,0,0,2,,,,,,,,,,,,,,,0,,,58,0
49959,control_change,39,0,2,,,,,,,,,,,,,,,0,64,127,,
50160,note_on,0,0,2,,,,,,,,,,,,,,,0,,,55,29
50160,note_on,0,0,2,,,,,,,,,,,,,,,0,,,58,29
50160,note_on,201,0,2,,,,,,,,,,,,,,,0,,,49,0
50160,note_on,240,0,1,,,,,,,,,,,,,,,0,,,70,0
50160,note_on,0,0,1,,,,,,,,,,,,,,,0,,,75,49
50160,set_tempo,720,1,0,,,,,,,,,,,,447327,,,,,,,
50231,control_change,71,0,2,,,,,,,,,,,,,,,0,64,0,,
50280,note_on,120,0,1,,,,,,,,,,,,,,,0,,,75,0
50280,note_on,0,0,2,,,,,,,,,,,,,,,0,,,58,0
50280,note_on,49,0,2,,,,,,,,,,,,,,,0,,,55,0
50400,note_on,120,0,1,,,,,,,,,,,,,,,0,,,77,53
50400,note_on,120,0,2,,,,,,,,,,,,,,,0,,,51,31
50520,note_on,120,0,1,,,,,,,,,,,,,,,0,,,77,0
50520,note_on,120,0,2,,,,,,,,,,,,,,,0,,,51,0
50640,note_on,120,0,1,,,,,,,,,,,,,,,0,,,79,56
50640,note_on,120,0,2,,,,,,,,,,,,,,,0,,,58,34
50640,note_on,0,0,2,,,,,,,,,,,,,,,0,,,55,34
50760,note_on,120,0,1,,,,,,,,,,,,,,,0,,,79,0
50760,note_on,120,0,2,,,,,,,,,,,,,,,0,,,55,0
50760,note_on,0,0,2,,,,,,,,,,,,,,,0,,,58,0
50880,set_tempo,720,1,0,,,,,,,,,,,,437031,,,,,,,
50880,control_change,0,0,2,,,,,,,,,,,,,,,0,64,127,,
50880,note_on,120,0,2,,,,,,,,,,,,,,,0,,,48,37
50880,note_on,0,0,1,,,,,,,,,,,,,,,0,,,68,50
50880,note_on,120,0,1,,,,,,,,,,,,,,,0,,,80,59
51120,note_on,0,0,2,,,,,,,,,,,,,,,0,,,60,32
51120,note_on,0,0,2,,,,,,,,,,,,,,,0,,,56,27
51120,note_on,240,0,2,,,,,,,,,,,,,,,0,,,48,0
51360,set_tempo,480,1,0,,,,,,,,,,,,447327,,,,,,,
51360,note_on,0,0,2,,,,,,,,,,,,,,,0,,,56,0
51360,note_on,240,0,2,,,,,,,,,,,,,,,0,,,60,0
51360,note_on,0,0,2,,,,,,,,,,,,,,,0,,,51,32
51600,note_on,0,0,2,,,,,,,,,,,,,,,0,,,56,27
51600,note_on,240,0,2,,,,,,,,,,,,,,,0,,,51,0
51600,note_on,0,0,2,,,,,,,,,,,,,,,0,,,60,32
51840,note_on,0,0,2,,,,,,,,,,,,,,,0,,,56,0
51840,note_on,0,0,2,,,,,,,,,,,,,,,0,,,48,37
51840,control_change,0,0,2,,,,,,,,,,,,,,,0,64,0,,
51840,set_tempo,480,1,0,,,,,,,,,,,,437031,,,,,,,
51840,note_on,960,0,1,,,,,,,,,,,,,,,0,,,68,0
51840,note_on,0,0,1,,,,,,,,,,,,,,,0,,,72,51
51840,note_on,0,0,1,,,,,,,,,,,,,,,0,,,84,60
51840,note_on,0,0,1,,,,,,,,,,,,,,,0,,,80,0
51840,note_on,240,0,2,,,,,,,,,,,,,,,0,,,60,0
51977,control_change,137,0,2,,,,,,,,,,,,,,,0,64,127,,
52080,note_on,0,0,2,,,,,,,,,,,,,,,0,,,56,27
52080,note_on,103,0,2,,,,,,,,,,,,,,,0,,,48,0
52080,note_on,0,0,2,,,,,,,,,,,,,,,0,,,60,32
52160,set_tempo,320,1,0,,,,,,,,,,,,445567,,,,,,,
52320,note_on,0,0,2,,,,,,,,,,,,,,,0,,,51,32
52320,set_tempo,160,1,0,,,,,,,,,,,,447327,,,,,,,
52320,note_on,0,0,2,,,,,,,,,,,,,,,0,,,60,0
52320,note_on,240,0,2,,,,,,,,,,,,,,,0,,,56,0
52560,note_on,720,0,1,,,,,,,,,,,,,,,0,,,72,0
52560,note_on,0,0,1,,,,,,,,,,,,,,,0,,,84,0
52560,note_on,0,0,1,,,,,,,,,,,,,,,0,,,68,47
52560,note_on,0,0,1,,,,,,,,,,,,,,,0,,,80,55
52560,note_on,240,0,2,,,,,,,,,,,,,,,0,,,51,0
52560,note_on,0,0,2,,,,,,,,,,,,,,,0,,,60,32
52560,note_on,0,0,2,,,,,,,,,,,,,,,0,,,56,27
52800,control_change,0,0,2,,,,,,,,,,,,,,,0,64,0,,
52800,note_on,240,0,1,,,,,,,,,,,,,,,0,,,68,0
52800,note_on,240,0,2,,,,,,,,,,,,,,,0,,,56,0
52800,set_tempo,480,1,0,,,,,,,,,,,,447327,,,,,,,
52800,note_on,0,0,2,,,,,,,,,,,,,,,0,,,49,37
52800,note_on,0,0,2,,,,,,,,,,,,,,,0,,,60,0
52800,note_on,0,0,1,,,,,,,,,,,,,,,0,,,68,50
52800,note_on,0,0,1,,,,,,,,,,,,,,,0,,,80,59
52800,note_on,0,0,1,,,,,,,,,,,,,,,0,,,80,0
52880,set_tempo,80,1,0,,,,,,,,,,,,445567,,,,,,,
52880,control_change,80,0,2,,,,,,,,,,,,,,,0,64,127,,
52960,set_tempo,80,1,0,,,,,,,,,,,,443820,,,,,,,
53000,set_tempo,40,1,0,,,,,,,,,,,,442119,,,,,,,
53040,note_on,0,0,2,,,,,,,,,,,,,,,0,,,55,27
53040,note_on,0,0,2,,,,,,,,,,,,,,,0,,,58,32
53040,note_on,160,0,2,,,,,,,,,,,,,,,0,,,49,0
53080,set_tempo,80,1,0,,,,,,,,,,,,440399,,,,,,,
53160,set_tempo,80,1,0,,,,,,,,,,,,438725,,,,,,,
53200,set_tempo,40,1,0,,,,,,,,,,,,437031,,,,,,,
53280,set_tempo,80,1,0,,,,,,,,,,,,437031,,,,,,,
53280,note_on,0,0,2,,,,,,,,,,,,,,,0,,,58,0
53280,note_on,0,0,2,,,,,,,,,,,,,,,0,,,52,32
53280,note_on,480,0,1,,,,,,,,,,,,,,,0,,,68,0
53280,note_on,0,0,1,,,,,,,,,,,,,,,0,,,80,0
53280,note_on,0,0,1,,,,,,,,,,,,,,,0,,,67,47
53280,note_on,0,0,1,,,,,,,,,,,,,,,0,,,79,55
53280,note_on,240,0,2,,,,,,,,,,,,,,,0,,,55,0
53291,control_change,11,0,2,,,,,,,,,,,,,,,0,64,0,,
53383,control_change,92,0,2,,,,,,,,,,,,,,,0,64,127,,
53400,set_tempo,120,1,0,,,,,,,,,,,,438725,,,,,,,
53480,set_tempo,80,1,0,,,,,,,,,,,,440399,,,,,,,
53520,note_on,137,0,2,,,,,,,,,,,,,,,0,,,52,0
53520,note_on,0,0,2,,,,,,,,,,,,,,,0,,,58,32
53520,note_on,0,0,2,,,,,,,,,,,,,,,0,,,55,27
53600,set_tempo,120,1,0,,,,,,,,,,,,442119,,,,,,,
53680,set_tempo,80,1,0,,,,,,,,,,,,443820,,,,,,,
53760,set_tempo,80,1,0,,,,,,,,,,,,445567,,,,,,,
53760,note_on,240,0,2,,,,,,,,,,,,,,,0,,,58,0
53760,note_on,0,0,2,,,,,,,,,,,,,,,0,,,55,0
53760,note_on,0,0,2,,,,,,,,,,,,,,,0,,,49,37
54000,note_on,0,0,2,,,,,,,,,,,,,,,0,,,55,27
54000,note_on,0,0,2,,,,,,,,,,,,,,,0,,,58,32
54000,note_on,240,0,2,,,,,,,,,,,,,,,0,,,49,0
54000,set_tempo,240,1,0,,,,,,,,,,,,452625,,,,,,,
54240,note_on,0,0,2,,,,,,,,,,,,,,,0,,,58,0
54240,note_on,0,0,1,,,,,,,,,,,,,,,0,,,67,0
54240,note_on,960,0,1,,,,,,,,,,,,,,,0,,,79,0
54240,set_tempo,240,1,0,,,,,,,,,,,,443820,,,,,,,
54240,note_on,240,0,2,,,,,,,,,,,,,,,0,,,55,0
54240,note_on,0,0,2,,,,,,,,,,,,,,,0,,,52,36
54240,note_on,0,0,1,,,,,,,,,,,,,,,0,,,79,57
54240,note_on,0,0,1,,,,,,,,,,,,,,,0,,,67,48
54480,note_on,0,0,2,,,,,,,,,,,,,,,0,,,55,32
54480,note_on,0,0,2,,,,,,,,,,,,,,,0,,,58,39
54480,note_on,240,0,2,,,,,,,,,,,,,,,0,,,52,0
54720,note_on,0,0,2,,,,,,,,,,,,,,,0,,,58,0
54720,note_on,0,0,2,,,,,,,,,,,,,,,0,,,50,44
54720,control_change,0,0,2,,,,,,,,,,,,,,,0,64,0,,
54720,set_tempo,480,1,0,,,,,,,,,,,,437031,,,,,,,
54720,note_on,0,0,1,,,,,,,,,,,,,,,0,,,67,0
54720,note_on,0,0,1,,,,,,,,,,,,,,,0,,,67,52
54720,note_on,240,0,2,,,,,,,,,,,,,,,0,,,55,0
54720,note_on,0,0,1,,,,,,,,,,,,,,,0,,,79,63
54720,note_on,480,0,1,,,,,,,,,,,,,,,0,,,79,0
54819,control_change,99,0,2,,,,,,,,,,,,,,,0,64,127,,
54960,note_on,0,0,2,,,,,,,,,,,,,,,0,,,62,38
54960,note_on,0,0,2,,,,,,,,,,,,,,,0,,,58,31
54960,note_on,141,0,2,,,,,,,,,,,,,,,0,,,50,0
55200,note_on,0,0,2,,,,,,,,,,,,,,,0,,,53,38
55200,note_on,0,0,2,,,,,,,,,,,,,,,0,,,58,0
55200,note_on,240,0,2,,,,,,,,,,,,,,,0,,,62,0
55200,set_tempo,480,1,0,,,,,,,,,,,,443820,,,,,,,
55200,note_on,0,0,1,,,,,,,,,,,,,,,0,,,65,49
55200,note_on,0,0,1,,,,,,,,,,,,,,,0,,,77,58
55200,note_on,0,0,1,,,,,,,,,,,,,,,0,,,67,0
55200,note_on,480,0,1,,,,,,,,,,,,,,,0,,,79,0
55228,control_change,28,0,2,,,,,,,,,,,,,,,0,64,0,,
55341,control_change,113,0,2,,,,,,,,,,,,,,,0,64,127,,
55440,note_on,99,0,2,,,,,,,,,,,,,,,0,,,53,0
55440,note_on,0,0,2,,,,,,,,,,,,,,,0,,,62,38
55440,note_on,0,0,2,,,,,,,,,,,,,,,0,,,58,31
55680,control_change,0,0,2,,,,,,,,,,,,,,,0,64,0,,
55680,note_on,0,0,2,,,,,,,,,,,,,,,0,,,50,48
55680,note_on,0,0,2,,,,,,,,,,,,,,,0,,,58,0
55680,note_on,240,0,2,,,,,,,,,,,,,,,0,,,62,0
55680,note_on,0,0,1,,,,,,,,,,,,,,,0,,,70,57
55680,note_on,480,0,1,,,,,,,,,,,,,,,0,,,65,0
55680,note_on,0,0,1,,,,,,,,,,,,,,,0,,,82,67
55680,note_on,0,0,1,,,,,,,,,,,,,,,0,,,77,0
55793,control_change,113,0,2,,,,,,,,,,,,,,,0,64,127,,
55920,note_on,127,0,2,,,,,,,,,,,,,,,0,,,50,0
55920,note_on,0,0,2,,,,,,,,,,,,,,,0,,,62,37
55920,note_on,0,0,2,,,,,,,,,,,,,,,0,,,58,31
56160,note_on,0,0,2,,,,,,,,,,,,,,,0,,,53,37
56160,set_tempo,960,1,0,,,,,,,,,,,,447327,,,,,,,
56160,note_on,240,0,2,,,,,,,,,,,,,,,0,,,58,0
56160,note_on,0,0,2,,,,,,,,,,,,,,,0,,,62,0
56400,note_on,0,0,2,,,,,,,,,,,,,,,0,,,58,31
56400,note_on,0,0,2,,,,,,,,,,,,,,,0,,,62,37
56400,note_on,0,0,1,,,,,,,,,,,,,,,0,,,70,0
56400,note_on,720,0,1,,,,,,,,,,,,,,,0,,,82,0
56400,note_on,240,0,2,,,,,,,,,,,,,,,0,,,53,0
56400,note_on,0,0,1,,,,,,,,,,,,,,,0,,,81,61
56400,note_on,0,0,1,,,,,,,,,,,,,,,0,,,69,51
56640,note_on,240,0,2,,,,,,,,,,,,,,,0,,,58,0
56640,set_tempo,480,1,0,,,,,,,,,,,,437031,,,,,,,
56640,note_on,240,0,1,,,,,,,,,,,,,,,0,,,69,0
56640,note_on,0,0,2,,,,,,,,,,,,,,,0,,,62,0
56640,note_on,0,0,1,,,,,,,,,,,,,,,0,,,81,0
56640,note_on,0,0,1,,,,,,,,,,,,,,,0,,,69,51
56640,note_on,0,0,2,,,,,,,,,,,,,,,0,,,51,50
56640,note_on,0,0,1,,,,,,,,,,,,,,,0,,,81,61
56640,control_change,0,0,2,,,,,,,,,,,,,,,0,64,0,,
56767,control_change,127,0,2,,,,,,,,,,,,,,,0,64,127,,
56880,note_on,240,0,1,,,,,,,,,,,,,,,0,,,81,0
56880,note_on,0,0,1,,,,,,,,,,,,,,,0,,,79,54
56880,note_on,0,0,2,,,,,,,,,,,,,,,0,,,63,40
56880,note_on,0,0,2,,,,,,,,,,,,,,,0,,,60,34
56880,note_on,113,0,2,,,,,,,,,,,,,,,0,,,51,0
56880,note_on,0,0,1,,,,,,,,,,,,,,,0,,,69,0
56880,note_on,0,0,1,,,,,,,,,,,,,,,0,,,67,46
57120,note_on,240,0,1,,,,,,,,,,,,,,,0,,,67,0
57120,note_on,0,0,1,,,,,,,,,,,,,,,0,,,79,0
57120,note_on,0,0,1,,,,,,,,,,,,,,,0,,,75,59
57120,note_on,0,0,1,,,,,,,,,,,,,,,0,,,87,71
57120,note_on,0,0,2,,,,,,,,,,,,,,,0,,,60,0
57120,note_on,0,0,2,,,,,,,,,,,,,,,0,,,55,37
57120,note_on,240,0,2,,,,,,,,,,,,,,,0,,,63,0
57120,set_tempo,480,1,0,,,,,,,,,,,,447327,,,,,,,
57148,control_change,28,0,2,,,,,,,,,,,,,,,0,64,0,,
57247,control_change,99,0,2,,,,,,,,,,,,,,,0,64,127,,
57360,note_on,0,0,2,,,,,,,,,,,,,,,0,,,63,37
57360,note_on,0,0,2,,,,,,,,,,,,,,,0,,,60,31
57360,note_on,113,0,2,,,,,,,,,,,,,,,0,,,55,0
57600,note_on,0,0,2,,,,,,,,,,,,,,,0,,,53,44
57600,note_on,0,0,2,,,,,,,,,,,,,,,0,,,60,0
57600,note_on,240,0,2,,,,,,,,,,,,,,,0,,,63,0
57600,note_on,0,0,1,,,,,,,,,,,,,,,0,,,75,0
57600,control_change,0,0,2,,,,,,,,,,,,,,,0,64,0,,
57600,note_on,480,0,1,,,,,,,,,,,,,,,0,,,87,0
57600,note_on,0,0,1,,,,,,,,,,,,,,,0,,,86,63
57600,note_on,0,0,1,,,,,,,,,,,,,,,0,,,74,52
57713,control_change,113,0,2,,,,,,,,,,,,,,,0,64,127,,
57840,note_on,127,0,2,,,,,,,,,,,,,,,0,,,53,0
57840,note_on,0,0,2,,,,,,,,,,,,,,,0,,,62,34
57840,note_on,0,0,2,,,,,,,,,,,,,,,0,,,58,28
58080,note_on,0,0,2,,,,,,,,,,,,,,,0,,,62,0
58080,note_on,0,0,2,,,,,,,,,,,,,,,0,,,53,34
58080,note_on,240,0,2,,,,,,,,,,,,,,,0,,,58,0
58080,note_on,0,0,1,,,,,,,,,,,,,,,0,,,84,53
58080,note_on,0,0,1,,,,,,,,,,,,,,,0,,,72,45
58080,note_on,0,0,1,,,,,,,,,,,,,,,0,,,86,0
58080,note_on,480,0,1,,,,,,,,,,,,,,,0,,,74,0
58122,control_change,42,0,2,,,,,,,,,,,,,,,0,64,0,,
58207,control_change,85,0,2,,,,,,,,,,,,,,,0,64,127,,
58320,note_on,0,0,2,,,,,,,,,,,,,,,0,,,57,28
58320,note_on,113,0,2,,,,,,,,,,,,,,,0,,,53,0
58320,note_on,0,0,2,,,,,,,,,,,,,,,0,,,60,34
58560,note_on,240,0,2,,,,,,,,,,,,,,,0,,,60,0
58560,note_on,0,0,1,,,,,,,,,,,,,,,0,,,70,44
58560,note_on,0,0,1,,,,,,,,,,,,,,,0,,,82,53
58560,note_on,0,0,1,,,,,,,,,,,,,,,0,,,72,0
58560,note_on,0,0,2,,,,,,,,,,,,,,,0,,,57,0
58560,note_on,0,0,2,,,,,,,,,,,,,,,0,,,46,38
58560,control_change,0,0,2,,,,,,,,,,,,,,,0,64,0,,
58560,note_on,480,0,1,,,,,,,,,,,,,,,0,,,84,0
58609,control_change,49,0,2,,,,,,,,,,,,,,,0,64,127,,
58800,note_on,0,0,2,,,,,,,,,,,,,,,0,,,58,25
58800,note_on,0,0,1,,,,,,,,,,,,,,,0,,,82,0
58800,note_on,240,0,1,,,,,,,,,,,,,,,0,,,70,0
58800,note_on,0,0,2,,,,,,,,,,,,,,,0,,,62,30
58800,note_on,191,0,2,,,,,,,,,,,,,,,0,,,46,0
59019,control_change,219,0,2,,,,,,,,,,,,,,,0,64,0,,
59040,set_tempo,1920,1,0,,,,,,,,,,,,437031,,,,,,,
59040,note_on,0,0,2,,,,,,,,,,,,,,,0,,,62,0
59040,note_on,0,0,2,,,,,,,,,,,,,,,0,,,50,30
59040,note_on,240,0,1,,,,,,,,,,,,,,,0,,,74,46
59040,note_on,21,0,2,,,,,,,,,,,,,,,0,,,58,0
59061,control_change,21,0,2,,,,,,,,,,,,,,,0,64,127,,
59160,note_on,120,0,1,,,,,,,,,,,,,,,0,,,74,0
59200,note_on,40,0,1,,,,,,,,,,,,,,,0,,,74,48
59280,note_on,219,0,2,,,,,,,,,,,,,,,0,,,50,0
59280,note_on,0,0,2,,,,,,,,,,,,,,,0,,,58,25
59280,note_on,0,0,2,,,,,,,,,,,,,,,0,,,62,30
59320,note_on,120,0,1,,,,,,,,,,,,,,,0,,,74,0
59360,note_on,40,0,1,,,,,,,,,,,,,,,0,,,74,50
59480,note_on,120,0,1,,,,,,,,,,,,,,,0,,,74,0
59520,note_on,240,0,2,,,,,,,,,,,,,,,0,,,62,0
59520,note_on,0,0,2,,,,,,,,,,,,,,,0,,,58,0
59520,note_on,0,0,2,,,,,,,,,,,,,,,0,,,53,36
59520,note_on,40,0,1,,,,,,,,,,,,,,,0,,,74,51
59640,note_on,120,0,1,,,,,,,,,,,,,,,0,,,74,0
59680,note_on,40,0,1,,,,,,,,,,,,,,,0,,,74,49
59760,note_on,240,0,2,,,,,,,,,,,,,,,0,,,53,0
59760,note_on,0,0,2,,,,,,,,,,,,,,,0,,,62,30
59760,note_on,0,0,2,,,,,,,,,,,,,,,0,,,58,25
59800,note_on,120,0,1,,,,,,,,,,,,,,,0,,,74,0
59840,note_on,40,0,1,,,,,,,,,,,,,,,0,,,74,47
59960,note_on,120,0,1,,,,,,,,,,,,,,,0,,,74,0
60000,note_on,0,0,2,,,,,,,,,,,,,,,0,,,54,30
60000,note_on,240,0,2,,,,,,,,,,,,,,,0,,,58,0
60000,note_on,40,0,1,,,,,,,,,,,,,,,0,,,74,51
60000,note_on,0,0,2,,,,,,,,,,,,,,,0,,,62,0
60000,set_tempo,960,1,0,,,,,,,,,,,,449068,,,,,,,
60021,control_change,21,0,2,,,,,,,,,,,,,,,0,64,0,,
60056,control_change,35,0,2,,,,,,,,,,,,,,,0,64,127,,
60120,note_on,0,0,1,,,,,,,,,,,,,,,0,,,72,46
60120,note_on,120,0,1,,,,,,,,,,,,,,,0,,,74,0
60240,note_on,0,0,1,,,,,,,,,,,,,,,0,,,74,47
60240,note_on,120,0,1,,,,,,,,,,,,,,,0,,,72,0
60240,note_on,184,0,2,,,,,,,,,,,,,,,0,,,54,0
60240,note_on,0,0,2,,,,,,,,,,,,,,,0,,,60,26
60240,note_on,0,0,2,,,,,,,,,,,,,,,0,,,62,31
60360,note_on,0,0,1,,,,,,,,,,,,,,,0,,,75,47
60360,note_on,120,0,1,,,,,,,,,,,,,,,0,,,74,0
60480,note_on,0,0,2,,,,,,,,,,,,,,,0,,,55,29
60480,note_on,0,0,2,,,,,,,,,,,,,,,0,,,62,34
60480,note_on,0,0,2,,,,,,,,,,,,,,,0,,,60,0
60480,note_on,120,0,1,,,,,,,,,,,,,,,0,,,75,0
60480,note_on,0,0,2,,,,,,,,,,,,,,,0,,,59,29
60480,set_tempo,480,1,0,,,,,,,,,,,,477251,,,,,,,
60480,note_on,240,0,2,,,,,,,,,,,,,,,0,,,62,0
60480,control_change,0,0,2,,,,,,,,,,,,,,,0,64,0,,
60480,note_on,0,0,1,,,,,,,,,,,,,,,0,,,74,53
60720,note_on,0,0,2,,,,,,,,,,,,,,,0,,,55,0
60720,note_on,240,0,1,,,,,,,,,,,,,,,0,,,74,0
60720,note_on,0,0,2,,,,,,,,,,,,,,,0,,,62,0
60720,note_on,240,0,2,,,,,,,,,,,,,,,0,,,59,0
60960,set_tempo,480,1,0,,,,,,,,,,,,438725,,,,,,,
60960,note_on,0,0,2,,,,,,,,,,,,,,,0,,,67,94
60960,note_on,240,0,2,,,,,,,,,,,,,,,0,,,55,78
62160,note_on,1440,0,1,,,,,,,,,,,,,,,0,,,86,52
62160,set_tempo,1200,1,0,,,,,,,,,,,,452625,,,,,,,
62280,note_on,120,0,1,,,,,,,,,,,,,,,0,,,86,0
62400,note_on,120,0,1,,,,,,,,,,,,,,,0,,,84,63
62400,note_on,0,0,2,,,,,,,,,,,,,,,0,,,55,42
62400,note_on,1440,0,2,,,,,,,,,,,,,,,0,,,67,0
62400,note_on,0,0,2,,,,,,,,,,,,,,,0,,,55,0
62400,set_tempo,240,1,0,,,,,,,,,,,,432059,,,,,,,
62640,note_on,240,0,2,,,,,,,,,,,,,,,0,,,55,0
62640,note_on,0,0,2,,,,,,,,,,,,,,,0,,,67,31
62640,note_on,240,0,1,,,,,,,,,,,,,,,0,,,84,0
62640,note_on,0,0,1,,,,,,,,,,,,,,,0,,,83,37
62760,note_on,120,0,2,,,,,,,,,,,,,,,0,,,67,0
62760,note_on,120,0,1,,,,,,,,,,,,,,,0,,,83,0
62880,note_on,120,0,1,,,,,,,,,,,,,,,0,,,83,43
62880,note_on,120,0,2,,,,,,,,,,,,,,,0,,,65,31
62880,note_on,0,0,2,,,,,,,,,,,,,,,0,,,62,26
62880,set_tempo,480,1,0,,,,,,,,,,,,438725,,,,,,,
63000,note_on,120,0,1,,,,,,,,,,,,,,,0,,,83,0
63000,note_on,0,0,2,,,,,,,,,,,,,,,0,,,65,0
63000,note_on,120,0,2,,,,,,,,,,,,,,,0,,,62,0
63120,note_on,120,0,2,,,,,,,,,,,,,,,0,,,67,32
63120,set_tempo,240,1,0,,,,,,,,,,,,445567,,,,,,,
63120,note_on,120,0,1,,,,,,,,,,,,,,,0,,,83,37
63240,note_on,120,0,2,,,,,,,,,,,,,,,0,,,67,0
63240,note_on,120,0,1,,,,,,,,,,,,,,,0,,,83,0
63360,note_on,120,0,1,,,,,,,,,,,,,,,0,,,83,55
63360,set_tempo,240,1,0,,,,,,,,,,,,422476,,,,,,,
63360,note_on,120,0,2,,,,,,,,,,,,,,,0,,,55,44
63480,note_on,0,0,1,,,,,,,,,,,,,,,0,,,84,49
63480,note_on,120,0,1,,,,,,,,,,,,,,,0,,,83,0
63480,set_tempo,120,1,0,,,,,,,,,,,,459946,,,,,,,
63600,note_on,0,0,2,,,,,,,,,,,,,,,0,,,67,31
63600,set_tempo,120,1,0,,,,,,,,,,,,430447,,,,,,,
63600,note_on,120,0,1,,,,,,,,,,,,,,,0,,,84,0
63600,note_on,0,0,1,,,,,,,,,,,,,,,0,,,91,59
63600,note_on,240,0,2,,,,,,,,,,,,,,,0,,,55,0
63840,note_on,240,0,2,,,,,,,,,,,,,,,0,,,67,0
63840,note_on,0,0,2,,,,,,,,,,,,,,,0,,,63,35
63840,note_on,0,0,2,,,,,,,,,,,,,,,0,,,60,29
63840,note_on,0,0,1,,,,,,,,,,,,,,,0,,,89,50
63840,note_on,240,0,1,,,,,,,,,,,,,,,0,,,91,0
63840,set_tempo,240,1,0,,,,,,,,,,,,433714,,,,,,,
63960,note_on,0,0,1,,,,,,,,,,,,,,,0,,,87,45
63960,note_on,120,0,1,,,,,,,,,,,,,,,0,,,89,0
64080,note_on,0,0,1,,,,,,,,,,,,,,,0,,,86,45
64080,set_tempo,240,1,0,,,,,,,,,,,,449068,,,,,,,
64080,note_on,0,0,2,,,,,,,,,,,,,,,0,,,63,0
64080,note_on,0,0,2,,,,,,,,,,,,,,,0,,,67,32
64080,note_on,240,0,2,,,,,,,,,,,,,,,0,,,60,0
64080,note_on,120,0,1,,,,,,,,,,,,,,,0,,,87,0
64200,note_on,120,0,1,,,,,,,,,,,,,,,0,,,86,0
64200,note_on,0,0,1,,,,,,,,,,,,,,,0,,,84,45
64320,note_on,0,0,1,,,,,,,,,,,,,,,0,,,84,63
64320,note_on,0,0,2,,,,,,,,,,,,,,,0,,,55,42
64320,note_on,240,0,2,,,,,,,,,,,,,,,0,,,67,0
64320,note_on,120,0,1,,,,,,,,,,,,,,,0,,,84,0
64320,set_tempo,240,1,0,,,,,,,,,,,,432059,,,,,,,
64560,note_on,0,0,1,,,,,,,,,,,,,,,0,,,83,37
64560,note_on,240,0,2,,,,,,,,,,,,,,,0,,,55,0
64560,note_on,240,0,1,,,,,,,,,,,,,,,0,,,84,0
64560,note_on,0,0,2,,,,,,,,,,,,,,,0,,,67,31
64680,note_on,120,0,1,,,,,,,,,,,,,,,0,,,83,0
64680,note_on,120,0,2,,,,,,,,,,,,,,,0,,,67,0
64800,note_on,120,0,2,,,,,,,,,,,,,,,0,,,65,31
64800,set_tempo,480,1,0,,,,,,,,,,,,437031,,,,,,,
64800,note_on,120,0,1,,,,,,,,,,,,,,,0,,,83,44
64800,note_on,0,0,2,,,,,,,,,,,,,,,0,,,62,26
64920,note_on,120,0,2,,,,,,,,,,,,,,,0,,,62,0
64920,note_on,120,0,1,,,,,,,,,,,,,,,0,,,83,0
64920,note_on,0,0,2,,,,,,,,,,,,,,,0,,,65,0
65040,set_tempo,240,1,0,,,,,,,,,,,,449068,,,,,,,
65040,note_on,120,0,2,,,,,,,,,,,,,,,0,,,67,29
65040,note_on,120,0,1,,,,,,,,,,,,,,,0,,,83,37
65160,note_on,120,0,1,,,,,,,,,,,,,,,0,,,83,0
65160,note_on,120,0,2,,,,,,,,,,,,,,,0,,,67,0
65280,note_on,120,0,1,,,,,,,,,,,,,,,0,,,83,57
65280,set_tempo,240,1,0,,,,,,,,,,,,438725,,,,,,,
65280,note_on,120,0,2,,,,,,,,,,,,,,,0,,,55,44
65520,note_on,240,0,2,,,,,,,,,,,,,,,0,,,55,0
65520,note_on,0,0,2,,,,,,,,,,,,,,,0,,,67,32
65520,note_on,0,0,1,,,,,,,,,,,,,,,0,,,84,47
65520,note_on,240,0,1,,,,,,,,,,,,,,,0,,,83,0
65640,note_on,120,0,2,,,,,,,,,,,,,,,0,,,67,0
65640,note_on,120,0,1,,,,,,,,,,,,,,,0,,,84,0
65760,note_on,0,0,2,,,,,,,,,,,,,,,0,,,63,35
65760,note_on,0,0,2,,,,,,,,,,,,,,,0,,,60,29
65760,note_on,120,0,2,,,,,,,,,,,,,,,0,,,54,29
65880,note_on,120,0,2,,,,,,,,,,,,,,,0,,,60,0
65880,note_on,0,0,2,,,,,,,,,,,,,,,0,,,63,0
65880,note_on,0,0,2,,,,,,,,,,,,,,,0,,,54,0
66000,note_on,360,0,1,,,,,,,,,,,,,,,0,,,87,54
66000,note_on,120,0,2,,,,,,,,,,,,,,,0,,,66,35
66000,set_tempo,720,1,0,,,,,,,,,,,,447327,,,,,,,
66240,set_tempo,240,1,0,,,,,,,,,,,,430447,,,,,,,
66240,note_on,0,0,2,,,,,,,,,,,,,,,0,,,53,42
66240,note_on,240,0,1,,,,,,,,,,,,,,,0,,,87,0
66240,note_on,0,0,1,,,,,,,,,,,,,,,0,,,84,63
66240,note_on,240,0,2,,,,,,,,,,,,,,,0,,,66,0
66480,note_on,240,0,2,,,,,,,,,,,,,,,0,,,53,0
66480,note_on,0,0,1,,,,,,,,,,,,,,,0,,,82,52
66480,note_on,240,0,1,,,,,,,,,,,,,,,0,,,84,0
66480,note_on,0,0,2,,,,,,,,,,,,,,,0,,,65,35
66600,note_on,120,0,2,,,,,,,,,,,,,,,0,,,65,0
66600,note_on,120,0,1,,,,,,,,,,,,,,,0,,,82,0
66720,note_on,120,0,2,,,,,,,,,,,,,,,0,,,62,35
66720,note_on,120,0,1,,,,,,,,,,,,,,,0,,,82,54
66720,set_tempo,480,1,0,,,,,,,,,,,,438725,,,,,,,
66840,note_on,120,0,1,,,,,,,,,,,,,,,0,,,82,0
66840,note_on,120,0,2,,,,,,,,,,,,,,,0,,,62,0
66960,note_on,120,0,2,,,,,,,,,,,,,,,0,,,65,36
66960,note_on,120,0,1,,,,,,,,,,,,,,,0,,,82,54
67080,note_on,120,0,2,,,,,,,,,,,,,,,0,,,65,0
67080,note_on,120,0,1,,,,,,,,,,,,,,,0,,,82,0
67200,note_on,120,0,1,,,,,,,,,,,,,,,0,,,84,63
67200,set_tempo,480,1,0,,,,,,,,,,,,432059,,,,,,,
67200,note_on,120,0,2,,,,,,,,,,,,,,,0,,,55,42
67440,note_on,0,0,2,,,,,,,,,,,,,,,0,,,64,36
67440,note_on,240,0,1,,,,,,,,,,,,,,,0,,,84,0
67440,note_on,0,0,1,,,,,,,,,,,,,,,0,,,82,53
67440,note_on,240,0,2,,,,,,,,,,,,,,,0,,,55,0
67560,note_on,120,0,1,,,,,,,,,,,,,,,0,,,82,0
67560,note_on,120,0,2,,,,,,,,,,,,,,,0,,,64,0
67680,note_on,120,0,1,,,,,,,,,,,,,,,0,,,82,55
67680,set_tempo,480,1,0,,,,,,,,,,,,438725,,,,,,,
67680,note_on,120,0,2,,,,,,,,,,,,,,,0,,,60,36
67800,note_on,120,0,2,,,,,,,,,,,,,,,0,,,60,0
67800,note_on,120,0,1,,,,,,,,,,,,,,,0,,,82,0
67920,note_on,120,0,2,,,,,,,,,,,,,,,0,,,64,36
67920,note_on,120,0,1,,,,,,,,,,,,,,,0,,,82,55
68040,note_on,120,0,2,,,,,,,,,,,,,,,0,,,64,0
68040,note_on,120,0,1,,,,,,,,,,,,,,,0,,,82,0
68160,note_on,120,0,1,,,,,,,,,,,,,,,0,,,79,63
68160,set_tempo,480,1,0,,,,,,,,,,,,430447,,,,,,,
68160,note_on,120,0,2,,,,,,,,,,,,,,,0,,,53,35
68160,note_on,0,0,2,,,,,,,,,,,,,,,0,,,62,42
68202,control_change,42,0,2,,,,,,,,,,,,,,,0,64,127,,
68280,note_on,0,0,1,,,,,,,,,,,,,,,0,,,77,52
68280,note_on,120,0,1,,,,,,,,,,,,,,,0,,,79,0
68400,note_on,0,0,2,,,,,,,,,,,,,,,0,,,53,0
68400,note_on,0,0,1,,,,,,,,,,,,,,,0,,,76,53
68400,note_on,198,0,2,,,,,,,,,,,,,,,0,,,62,0
68400,note_on,0,0,2,,,,,,,,,,,,,,,0,,,65,33
68400,note_on,120,0,1,,,,,,,,,,,,,,,0,,,77,0
68520,note_on,120,0,1,,,,,,,,,,,,,,,0,,,76,0
68520,note_on,0,0,1,,,,,,,,,,,,,,,0,,,77,53
68640,set_tempo,480,1,0,,,,,,,,,,,,443820,,,,,,,
68640,note_on,0,0,1,,,,,,,,,,,,,,,0,,,75,58
68640,note_on,0,0,2,,,,,,,,,,,,,,,0,,,57,35
68640,note_on,0,0,2,,,,,,,,,,,,,,,0,,,53,29
68640,note_on,240,0,2,,,,,,,,,,,,,,,0,,,65,0
68640,note_on,120,0,1,,,,,,,,,,,,,,,0,,,77,0
68675,control_change,35,0,2,,,,,,,,,,,,,,,0,64,0,,
68760,note_on,120,0,1,,,,,,,,,,,,,,,0,,,75,0
68760,note_on,85,0,2,,,,,,,,,,,,,,,0,,,57,0
68760,note_on,0,0,2,,,,,,,,,,,,,,,0,,,53,0
68880,note_on,120,0,1,,,,,,,,,,,,,,,0,,,72,54
68880,set_tempo,240,1,0,,,,,,,,,,,,456274,,,,,,,
68880,note_on,120,0,2,,,,,,,,,,,,,,,0,,,63,34
69000,note_on,120,0,1,,,,,,,,,,,,,,,0,,,72,0
69000,note_on,120,0,2,,,,,,,,,,,,,,,0,,,63,0
69120,note_on,120,0,2,,,,,,,,,,,,,,,0,,,58,42
69120,note_on,0,0,2,,,,,,,,,,,,,,,0,,,62,42
69120,note_on,120,0,1,,,,,,,,,,,,,,,0,,,70,58
69120,set_tempo,240,1,0,,,,,,,,,,,,442119,,,,,,,
69240,note_on,120,0,1,,,,,,,,,,,,,,,0,,,70,0
69360,note_on,120,0,1,,,,,,,,,,,,,,,0,,,74,55
69360,note_on,0,0,2,,,,,,,,,,,,,,,0,,,65,38
69360,note_on,240,0,2,,,,,,,,,,,,,,,0,,,62,0
69360,set_tempo,240,1,0,,,,,,,,,,,,430447,,,,,,,
69360,note_on,0,0,2,,,,,,,,,,,,,,,0,,,58,0
69480,note_on,120,0,1,,,,,,,,,,,,,,,0,,,74,0
69600,note_on,240,0,2,,,,,,,,,,,,,,,0,,,65,0
69600,note_on,0,0,2,,,,,,,,,,,,,,,0,,,62,38
69600,set_tempo,240,1,0,,,,,,,,,,,,438725,,,,,,,
69600,note_on,120,0,1,,,,,,,,,,,,,,,0,,,77,55
69720,note_on,120,0,1,,,,,,,,,,,,,,,0,,,77,0
69840,note_on,0,0,2,,,,,,,,,,,,,,,0,,,58,38
69840,set_tempo,240,1,0,,,,,,,,,,,,449068,,,,,,,
69840,note_on,120,0,1,,,,,,,,,,,,,,,0,,,82,55
69840,note_on,240,0,2,,,,,,,,,,,,,,,0,,,62,0
69960,note_on,120,0,1,,,,,,,,,,,,,,,0,,,82,0
70080,note_on,0,0,2,,,,,,,,,,,,,,,0,,,55,43
70080,set_tempo,240,1,0,,,,,,,,,,,,449068,,,,,,,
70080,note_on,240,0,2,,,,,,,,,,,,,,,0,,,58,0
70080,note_on,120,0,1,,,,,,,,,,,,,,,0,,,86,60
70320,note_on,0,0,1,,,,,,,,,,,,,,,0,,,84,58
70320,note_on,0,0,2,,,,,,,,,,,,,,,0,,,64,37
70320,note_on,240,0,2,,,,,,,,,,,,,,,0,,,55,0
70320,note_on,240,0,1,,,,,,,,,,,,,,,0,,,86,0
70320,set_tempo,240,1,0,,,,,,,,,,,,443820,,,,,,,
70440,note_on,120,0,2,,,,,,,,,,,,,,,0,,,64,0
70440,note_on,120,0,1,,,,,,,,,,,,,,,0,,,84,0
70560,note_on,120,0,1,,,,,,,,,,,,,,,0,,,84,61
70560,note_on,120,0,2,,,,,,,,,,,,,,,0,,,58,39
70680,note_on,120,0,2,,,,,,,,,,,,,,,0,,,58,0
70680,note_on,120,0,1,,,,,,,,,,,,,,,0,,,84,0
70800,note_on,120,0,2,,,,,,,,,,,,,,,0,,,64,42
70800,note_on,120,0,1,,,,,,,,,,,,,,,0,,,84,58
70920,note_on,120,0,2,,,,,,,,,,,,,,,0,,,64,0
70920,note_on,120,0,1,,,,,,,,,,,,,,,0,,,84,0
71040,note_on,120,0,2,,,,,,,,,,,,,,,0,,,53,35
71040,set_tempo,720,1,0,,,,,,,,,,,,430447,,,,,,,
71040,note_on,120,0,1,,,,,,,,,,,,,,,0,,,79,63
71082,control_change,42,0,2,,,,,,,,,,,,,,,0,64,127,,
71160,note_on,120,0,1,,,,,,,,,,,,,,,0,,,79,0
71160,note_on,0,0,1,,,,,,,,,,,,,,,0,,,77,52
71280,note_on,198,0,2,,,,,,,,,,,,,,,0,,,53,0
71280,note_on,120,0,1,,,,,,,,,,,,,,,0,,,77,0
71280,note_on,0,0,1,,,,,,,,,,,,,,,0,,,76,53
71280,note_on,0,0,2,,,,,,,,,,,,,,,0,,,65,33
71400,note_on,120,0,1,,,,,,,,,,,,,,,0,,,76,0
71400,note_on,0,0,1,,,,,,,,,,,,,,,0,,,77,53
71520,note_on,120,0,1,,,,,,,,,,,,,,,0,,,77,0
71520,note_on,0,0,1,,,,,,,,,,,,,,,0,,,72,58
71520,note_on,240,0,2,,,,,,,,,,,,,,,0,,,65,0
71520,note_on,0,0,2,,,,,,,,,,,,,,,0,,,57,35
71520,set_tempo,480,1,0,,,,,,,,,,,,443820,,,,,,,
71555,control_change,35,0,2,,,,,,,,,,,,,,,0,64,0,,
71640,note_on,120,0,1,,,,,,,,,,,,,,,0,,,72,0
71640,note_on,85,0,2,,,,,,,,,,,,,,,0,,,57,0
71760,set_tempo,240,1,0,,,,,,,,,,,,452625,,,,,,,
71760,note_on,120,0,1,,,,,,,,,,,,,,,0,,,69,54
71760,note_on,120,0,2,,,,,,,,,,,,,,,0,,,65,34
71880,note_on,120,0,1,,,,,,,,,,,,,,,0,,,69,0
71880,note_on,120,0,2,,,,,,,,,,,,,,,0,,,65,0
72000,note_on,120,0,2,,,,,,,,,,,,,,,0,,,55,43
72000,note_on,120,0,1,,,,,,,,,,,,,,,0,,,86,65
72000,set_tempo,240,1,0,,,,,,,,,,,,437031,,,,,,,
72240,note_on,240,0,2,,,,,,,,,,,,,,,0,,,55,0
72240,note_on,0,0,2,,,,,,,,,,,,,,,0,,,64,35
72240,set_tempo,240,1,0,,,,,,,,,,,,447327,,,,,,,
72240,note_on,0,0,1,,,,,,,,,,,,,,,0,,,84,58
72240,note_on,240,0,1,,,,,,,,,,,,,,,0,,,86,0
72360,note_on,120,0,2,,,,,,,,,,,,,,,0,,,64,0
72360,note_on,120,0,1,,,,,,,,,,,,,,,0,,,84,0
72480,note_on,120,0,1,,,,,,,,,,,,,,,0,,,84,61
72480,note_on,120,0,2,,,,,,,,,,,,,,,0,,,58,35
72600,note_on,120,0,1,,,,,,,,,,,,,,,0,,,84,0
72600,note_on,120,0,2,,,,,,,,,,,,,,,0,,,58,0
72720,note_on,120,0,2,,,,,,,,,,,,,,,0,,,64,36
72720,note_on,120,0,1,,,,,,,,,,,,,,,0,,,84,58
72840,note_on,120,0,2,,,,,,,,,,,,,,,0,,,64,0
72840,note_on,120,0,1,,,,,,,,,,,,,,,0,,,84,0
72960,note_on,120,0,1,,,,,,,,,,,,,,,0,,,79,63
72960,note_on,120,0,2,,,,,,,,,,,,,,,0,,,53,35
72960,set_tempo,720,1,0,,,,,,,,,,,,430447,,,,,,,
73002,control_change,42,0,2,,,,,,,,,,,,,,,0,64,127,,
73080,note_on,0,0,1,,,,,,,,,,,,,,,0,,,77,52
73080,note_on,120,0,1,,,,,,,,,,,,,,,0,,,79,0
73200,note_on,0,0,1,,,,,,,,,,,,,,,0,,,76,53
73200,note_on,198,0,2,,,,,,,,,,,,,,,0,,,53,0
73200,note_on,120,0,1,,,,,,,,,,,,,,,0,,,77,0
73200,note_on,0,0,2,,,,,,,,,,,,,,,0,,,65,33
73320,note_on,120,0,1,,,,,,,,,,,,,,,0,,,76,0
73320,note_on,0,0,1,,,,,,,,,,,,,,,0,,,77,53
73440,note_on,240,0,2,,,,,,,,,,,,,,,0,,,65,0
73440,note_on,120,0,1,,,,,,,,,,,,,,,0,,,77,0
73440,note_on,0,0,1,,,,,,,,,,,,,,,0,,,72,58
73440,set_tempo,480,1,0,,,,,,,,,,,,443820,,,,,,,
73440,note_on,0,0,2,,,,,,,,,,,,,,,0,,,57,35
73475,control_change,35,0,2,,,,,,,,,,,,,,,0,64,0,,
73560,note_on,85,0,2,,,,,,,,,,,,,,,0,,,57,0
73560,note_on,120,0,1,,,,,,,,,,,,,,,0,,,72,0
73680,note_on,120,0,1,,,,,,,,,,,,,,,0,,,69,54
73680,set_tempo,240,1,0,,,,,,,,,,,,456274,,,,,,,
73680,note_on,120,0,2,,,,,,,,,,,,,,,0,,,65,34
73800,note_on,120,0,2,,,,,,,,,,,,,,,0,,,65,0
73800,note_on,120,0,1,,,,,,,,,,,,,,,0,,,69,0
73920,set_tempo,240,1,0,,,,,,,,,,,,437031,,,,,,,
73920,note_on,120,0,2,,,,,,,,,,,,,,,0,,,50,35
73920,note_on,120,0,1,,,,,,,,,,,,,,,0,,,81,54
74160,note_on,0,0,1,,,,,,,,,,,,,,,0,,,79,49
74160,note_on,240,0,1,,,,,,,,,,,,,,,0,,,81,0
74160,note_on,240,0,2,,,,,,,,,,,,,,,0,,,50,0
74160,note_on,0,0,2,,,,,,,,,,,,,,,0,,,59,29
74160,set_tempo,240,1,0,,,,,,,,,,,,447327,,,,,,,
74280,note_on,120,0,2,,,,,,,,,,,,,,,0,,,59,0
74280,note_on,120,0,1,,,,,,,,,,,,,,,0,,,79,0
74400,note_on,120,0,1,,,,,,,,,,,,,,,0,,,79,52
74400,note_on,120,0,2,,,,,,,,,,,,,,,0,,,53,29
74520,note_on,120,0,1,,,,,,,,,,,,,,,0,,,79,0
74520,note_on,120,0,2,,,,,,,,,,,,,,,0,,,53,0
74640,note_on,120,0,2,,,,,,,,,,,,,,,0,,,59,30
74640,note_on,120,0,1,,,,,,,,,,,,,,,0,,,79,49
74760,note_on,120,0,2,,,,,,,,,,,,,,,0,,,59,0
74760,note_on,120,0,1,,,,,,,,,,,,,,,0,,,79,0
74880,note_on,120,0,1,,,,,,,,,,,,,,,0,,,86,53
74880,note_on,120,0,2,,,,,,,,,,,,,,,0,,,48,29
74880,set_tempo,720,1,0,,,,,,,,,,,,430447,,,,,,,
74922,control_change,42,0,2,,,,,,,,,,,,,,,0,64,127,,
75000,note_on,120,0,1,,,,,,,,,,,,,,,0,,,86,0
75000,note_on,0,0,1,,,,,,,,,,,,,,,0,,,84,44
75120,note_on,0,0,2,,,,,,,,,,,,,,,0,,,60,28
75120,note_on,198,0,2,,,,,,,,,,,,,,,0,,,48,0
75120,note_on,120,0,1,,,,,,,,,,,,,,,0,,,84,0
75120,note_on,0,0,1,,,,,,,,,,,,,,,0,,,83,45
75240,note_on,120,0,1,,,,,,,,,,,,,,,0,,,83,0
75240,note_on,0,0,1,,,,,,,,,,,,,,,0,,,84,45
75360,note_on,120,0,1,,,,,,,,,,,,,,,0,,,84,0
75360,note_on,0,0,1,,,,,,,,,,,,,,,0,,,79,49
75360,note_on,240,0,2,,,,,,,,,,,,,,,0,,,60,0
75360,note_on,0,0,2,,,,,,,,,,,,,,,0,,,52,29
75360,set_tempo,480,1,0,,,,,,,,,,,,443820,,,,,,,
75395,control_change,35,0,2,,,,,,,,,,,,,,,0,64,0,,
75480,note_on,120,0,1,,,,,,,,,,,,,,,0,,,79,0
75480,note_on,85,0,2,,,,,,,,,,,,,,,0,,,52,0
75600,note_on,120,0,1,,,,,,,,,,,,,,,0,,,76,46
75600,note_on,120,0,2,,,,,,,,,,,,,,,0,,,60,29
75600,set_tempo,240,1,0,,,,,,,,,,,,456274,,,,,,,
75720,note_on,120,0,1,,,,,,,,,,,,,,,0,,,76,0
75720,note_on,120,0,2,,,,,,,,,,,,,,,0,,,60,0
75840,note_on,120,0,1,,,,,,,,,,,,,,,0,,,81,54
75840,note_on,120,0,2,,,,,,,,,,,,,,,0,,,50,35
75840,set_tempo,240,1,0,,,,,,,,,,,,437031,,,,,,,
76080,set_tempo,240,1,0,,,,,,,,,,,,447327,,,,,,,
76080,note_on,0,0,1,,,,,,,,,,,,,,,0,,,79,49
76080,note_on,240,0,1,,,,,,,,,,,,,,,0,,,81,0
76080,note_on,0,0,2,,,,,,,,,,,,,,,0,,,59,29
76080,note_on,240,0,2,,,,,,,,,,,,,,,0,,,50,0
76200,note_on,120,0,2,,,,,,,,,,,,,,,0,,,59,0
76200,note_on,120,0,1,,,,,,,,,,,,,,,0,,,79,0
76320,note_on,120,0,1,,,,,,,,,,,,,,,0,,,79,52
76320,note_on,120,0,2,,,,,,,,,,,,,,,0,,,53,29
76440,note_on,120,0,2,,,,,,,,,,,,,,,0,,,53,0
76440,note_on,120,0,1,,,,,,,,,,,,,,,0,,,79,0
76560,note_on,120,0,1,,,,,,,,,,,,,,,0,,,79,49
76560,note_on,120,0,2,,,,,,,,,,,,,,,0,,,59,30
76680,note_on,120,0,1,,,,,,,,,,,,,,,0,,,79,0
76680,note_on,120,0,2,,,,,,,,,,,,,,,0,,,59,0
76800,note_on,120,0,1,,,,,,,,,,,,,,,0,,,86,53
76800,set_tempo,720,1,0,,,,,,,,,,,,430447,,,,,,,
76800,note_on,0,0,2,,,,,,,,,,,,,,,0,,,60,29
76800,note_on,0,0,2,,,,,,,,,,,,,,,0,,,48,29
76800,note_on,120,0,2,,,,,,,,,,,,,,,0,,,52,29
76842,control_change,42,0,2,,,,,,,,,,,,,,,0,64,127,,
76920,note_on,120,0,1,,,,,,,,,,,,,,,0,,,86,0
76920,note_on,0,0,1,,,,,,,,,,,,,,,0,,,84,44
77040,note_on,0,0,1,,,,,,,,,,,,,,,0,,,83,45
77040,note_on,120,0,1,,,,,,,,,,,,,,,0,,,84,0
77160,note_on,0,0,1,,,,,,,,,,,,,,,0,,,84,45
77160,note_on,120,0,1,,,,,,,,,,,,,,,0,,,83,0
77280,note_on,438,0,2,,,,,,,,,,,,,,,0,,,60,0
77280,note_on,0,0,2,,,,,,,,,,,,,,,0,,,48,0
77280,note_on,0,0,2,,,,,,,,,,,,,,,0,,,52,0
77280,set_tempo,480,1,0,,,,,,,,,,,,443820,,,,,,,
77280,note_on,0,0,1,,,,,,,,,,,,,,,0,,,79,49
77280,note_on,120,0,1,,,,,,,,,,,,,,,0,,,84,0
77315,control_change,35,0,2,,,,,,,,,,,,,,,0,64,0,,
77400,note_on,120,0,1,,,,,,,,,,,,,,,0,,,79,0
77520,set_tempo,240,1,0,,,,,,,,,,,,456274,,,,,,,
77520,note_on,120,0,1,,,,,,,,,,,,,,,0,,,76,46
77640,note_on,120,0,1,,,,,,,,,,,,,,,0,,,76,0
77760,set_tempo,240,1,0,,,,,,,,,,,,430447,,,,,,,
77760,note_on,120,0,1,,,,,,,,,,,,,,,0,,,74,53
77802,control_change,487,0,2,,,,,,,,,,,,,,,0,64,127,,
77880,note_on,120,0,1,,,,,,,,,,,,,,,0,,,74,0
77880,note_on,0,0,1,,,,,,,,,,,,,,,0,,,72,44
78000,note_on,120,0,1,,,,,,,,,,,,,,,0,,,72,0
78000,note_on,0,0,1,,,,,,,,,,,,,,,0,,,71,45
78120,note_on,0,0,1,,,,,,,,,,,,,,,0,,,72,45
78120,note_on,120,0,1,,,,,,,,,,,,,,,0,,,71,0
78240,set_tempo,480,1,0,,,,,,,,,,,,443820,,,,,,,
78240,note_on,0,0,1,,,,,,,,,,,,,,,0,,,67,49
78240,note_on,120,0,1,,,,,,,,,,,,,,,0,,,72,0
78275,control_change,473,0,2,,,,,,,,,,,,,,,0,64,0,,
78360,note_on,120,0,1,,,,,,,,,,,,,,,0,,,67,0
78480,set_tempo,240,1,0,,,,,,,,,,,,456274,,,,,,,
78480,note_on,120,0,1,,,,,,,,,,,,,,,0,,,64,46
78600,note_on,120,0,1,,,,,,,,,,,,,,,0,,,64,0
78720,set_tempo,240,1,0,,,,,,,,,,,,430447,,,,,,,
78720,note_on,445,0,2,,,,,,,,,,,,,,,0,,,62,53
78840,note_on,120,0,2,,,,,,,,,,,,,,,0,,,62,0
78840,note_on,0,0,2,,,,,,,,,,,,,,,0,,,60,44
78960,note_on,120,0,2,,,,,,,,,,,,,,,0,,,60,0
78960,note_on,0,0,2,,,,,,,,,,,,,,,0,,,59,45
79080,note_on,0,0,2,,,,,,,,,,,,,,,0,,,60,45
79080,note_on,120,0,2,,,,,,,,,,,,,,,0,,,59,0
79200,note_on,120,0,2,,,,,,,,,,,,,,,0,,,60,0
79200,note_on,0,0,2,,,,,,,,,,,,,,,0,,,55,49
79200,set_tempo,480,1,0,,,,,,,,,,,,443820,,,,,,,
79320,note_on,120,0,2,,,,,,,,,,,,,,,0,,,55,0
79440,note_on,120,0,2,,,,,,,,,,,,,,,0,,,52,46
79440,set_tempo,240,1,0,,,,,,,,,,,,468750,,,,,,,
79560,note_on,120,0,2,,,,,,,,,,,,,,,0,,,52,0
79680,note_on,120,0,2,,,,,,,,,,,,,,,0,,,48,46
79800,note_on,120,0,2,,,,,,,,,,,,,,,0,,,48,0
79920,note_on,120,0,2,,,,,,,,,,,,,,,0,,,43,39
80040,note_on,120,0,2,,,,,,,,,,,,,,,0,,,43,0
80120,set_tempo,680,1,0,,,,,,,,,,,,468750,,,,,,,
80160,note_on,120,0,2,,,,,,,,,,,,,,,0,,,40,43
80200,set_tempo,80,1,0,,,,,,,,,,,,470588,,,,,,,
80280,note_on,120,0,2,,,,,,,,,,,,,,,0,,,40,0
80280,set_tempo,80,1,0,,,,,,,,,,,,472441,,,,,,,
80360,set_tempo,80,1,0,,,,,,,,,,,,474308,,,,,,,
80400,note_on,120,0,2,,,,,,,,,,,,,,,0,,,38,47
80440,set_tempo,80,1,0,,,,,,,,,,,,476190,,,,,,,
80520,set_tempo,80,1,0,,,,,,,,,,,,478088,,,,,,,
80520,note_on,120,0,2,,,,,,,,,,,,,,,0,,,38,0
80600,set_tempo,80,1,0,,,,,,,,,,,,480000,,,,,,,
80640,note_on,120,0,2,,,,,,,,,,,,,,,0,,,36,50
80640,set_tempo,40,1,0,,,,,,,,,,,,470588,,,,,,,
80760,note_on,120,0,2,,,,,,,,,,,,,,,0,,,36,0
80880,note_on,2280,0,1,,,,,,,,,,,,,,,0,,,67,52
80880,note_on,0,0,1,,,,,,,,,,,,,,,0,,,64,52
80880,note_on,0,0,1,,,,,,,,,,,,,,,0,,,72,52
80880,set_tempo,240,1,0,,,,,,,,,,,,497925,,,,,,,
80880,note_on,120,0,2,,,,,,,,,,,,,,,0,,,34,46
80960,set_tempo,80,1,0,,,,,,,,,,,,500000,,,,,,,
81000,note_on,120,0,1,,,,,,,,,,,,,,,0,,,72,0
81000,note_on,120,0,2,,,,,,,,,,,,,,,0,,,34,0
81000,set_tempo,40,1,0,,,,,,,,,,,,502092,,,,,,,
81000,note_on,0,0,1,,,,,,,,,,,,,,,0,,,64,0
81000,note_on,0,0,1,,,,,,,,,,,,,,,0,,,67,0
81040,set_tempo,40,1,0,,,,,,,,,,,,504202,,,,,,,
81080,set_tempo,40,1,0,,,,,,,,,,,,506329,,,,,,,
81120,note_on,120,0,2,,,,,,,,,,,,,,,0,,,33,43
81120,note_on,120,0,1,,,,,,,,,,,,,,,0,,,64,52
81120,note_on,0,0,1,,,,,,,,,,,,,,,0,,,69,52
81120,note_on,0,0,1,,,,,,,,,,,,,,,0,,,72,52
81160,set_tempo,80,1,0,,,,,,,,,,,,508475,,,,,,,
81200,set_tempo,40,1,0,,,,,,,,,,,,510638,,,,,,,
81240,note_on,120,0,1,,,,,,,,,,,,,,,0,,,69,0
81240,note_on,0,0,1,,,,,,,,,,,,,,,0,,,72,0
81240,note_on,120,0,2,,,,,,,,,,,,,,,0,,,33,0
81240,set_tempo,40,1,0,,,,,,,,,,,,512821,,,,,,,
81240,note_on,0,0,1,,,,,,,,,,,,,,,0,,,64,0
81280,set_tempo,40,1,0,,,,,,,,,,,,515021,,,,,,,
81320,set_tempo,40,1,0,,,,,,,,,,,,517241,,,,,,,
81360,note_on,120,0,1,,,,,,,,,,,,,,,0,,,64,52
81360,note_on,0,0,1,,,,,,,,,,,,,,,0,,,70,52
81360,note_on,120,0,2,,,,,,,,,,,,,,,0,,,31,39
81360,note_on,0,0,1,,,,,,,,,,,,,,,0,,,72,52
81400,set_tempo,80,1,0,,,,,,,,,,,,519481,,,,,,,
81440,set_tempo,40,1,0,,,,,,,,,,,,521739,,,,,,,
81480,note_on,120,0,2,,,,,,,,,,,,,,,0,,,31,0
81480,note_on,0,0,1,,,,,,,,,,,,,,,0,,,64,0
81480,note_on,120,0,1,,,,,,,,,,,,,,,0,,,72,0
81480,note_on,0,0,1,,,,,,,,,,,,,,,0,,,70,0
81480,set_tempo,40,1,0,,,,,,,,,,,,524017,,,,,,,
81520,set_tempo,40,1,0,,,,,,,,,,,,526316,,,,,,,
81560,set_tempo,40,1,0,,,,,,,,,,,,528634,,,,,,,
81600,set_tempo,40,1,0,,,,,,,,,,,,533333,,,,,,,
81600,note_on,120,0,1,,,,,,,,,,,,,,,0,,,72,52
81600,control_change,120,0,2,,,,,,,,,,,,,,,0,64,127,,
81640,set_tempo,40,1,0,,,,,,,,,,,,528634,,,,,,,
81680,set_tempo,40,1,0,,,,,,,,,,,,524017,,,,,,,
81720,set_tempo,40,1,0,,,,,,,,,,,,519481,,,,,,,
81720,note_on,120,0,1,,,,,,,,,,,,,,,0,,,69,34
81760,set_tempo,40,1,0,,,,,,,,,,,,512821,,,,,,,
81800,set_tempo,40,1,0,,,,,,,,,,,,508475,,,,,,,
81840,note_on,0,0,1,,,,,,,,,,,,,,,0,,,65,33
81840,note_on,120,0,1,,,,,,,,,,,,,,,0,,,69,0
81840,set_tempo,40,1,0,,,,,,,,,,,,504202,,,,,,,
81840,note_on,240,0,2,,,,,,,,,,,,,,,0,,,29,33
81880,set_tempo,40,1,0,,,,,,,,,,,,497925,,,,,,,
81920,set_tempo,40,1,0,,,,,,,,,,,,493827,,,,,,,
81960,set_tempo,40,1,0,,,,,,,,,,,,489796,,,,,,,
81960,note_on,120,0,1,,,,,,,,,,,,,,,0,,,65,0
81960,note_on,0,0,1,,,,,,,,,,,,,,,0,,,69,33
81960,note_on,120,0,2,,,,,,,,,,,,,,,0,,,29,0
82000,set_tempo,40,1,0,,,,,,,,,,,,485830,,,,,,,
82040,set_tempo,40,1,0,,,,,,,,,,,,480000,,,,,,,
82059,control_change,99,0,2,,,,,,,,,,,,,,,0,64,0,,
82080,note_on,120,0,1,,,,,,,,,,,,,,,0,,,69,0
82080,note_on,0,0,1,,,,,,,,,,,,,,,0,,,72,0
82080,note_on,0,0,1,,,,,,,,,,,,,,,0,,,77,53
82080,set_tempo,40,1,0,,,,,,,,,,,,476190,,,,,,,
82108,control_change,49,0,2,,,,,,,,,,,,,,,0,64,127,,
82120,set_tempo,40,1,0,,,,,,,,,,,,472441,,,,,,,
82160,set_tempo,40,1,0,,,,,,,,,,,,466926,,,,,,,
82200,note_on,120,0,1,,,,,,,,,,,,,,,0,,,69,39
82200,set_tempo,40,1,0,,,,,,,,,,,,460370,,,,,,,
82240,set_tempo,40,1,0,,,,,,,,,,,,462214,,,,,,,
82280,set_tempo,40,1,0,,,,,,,,,,,,464037,,,,,,,
82320,note_on,212,0,2,,,,,,,,,,,,,,,0,,,41,33
82320,note_on,120,0,1,,,,,,,,,,,,,,,0,,,69,0
82320,note_on,0,0,1,,,,,,,,,,,,,,,0,,,65,39
82440,note_on,120,0,2,,,,,,,,,,,,,,,0,,,41,0
82440,note_on,120,0,1,,,,,,,,,,,,,,,0,,,65,0
82440,note_on,0,0,1,,,,,,,,,,,,,,,0,,,69,39
82560,note_on,0,0,1,,,,,,,,,,,,,,,0,,,77,0
82560,note_on,0,0,1,,,,,,,,,,,,,,,0,,,72,52
82560,note_on,0,0,1,,,,,,,,,,,,,,,0,,,76,52
82560,set_tempo,280,1,0,,,,,,,,,,,,467800,,,,,,,
82560,note_on,120,0,1,,,,,,,,,,,,,,,0,,,69,0
82560,control_change,120,0,2,,,,,,,,,,,,,,,0,64,0,,
82606,control_change,46,0,2,,,,,,,,,,,,,,,0,64,127,,
82640,set_tempo,80,1,0,,,,,,,,,,,,465911,,,,,,,
82680,note_on,120,0,1,,,,,,,,,,,,,,,0,,,72,0
82680,note_on,0,0,1,,,,,,,,,,,,,,,0,,,69,38
82720,set_tempo,80,1,0,,,,,,,,,,,,464037,,,,,,,
82760,set_tempo,40,1,0,,,,,,,,,,,,462214,,,,,,,
82800,note_on,120,0,1,,,,,,,,,,,,,,,0,,,69,0
82800,note_on,0,0,1,,,,,,,,,,,,,,,0,,,64,38
82800,note_on,194,0,2,,,,,,,,,,,,,,,0,,,45,33
82840,set_tempo,80,1,0,,,,,,,,,,,,460370,,,,,,,
82880,set_tempo,40,1,0,,,,,,,,,,,,458540,,,,,,,
82920,note_on,120,0,1,,,,,,,,,,,,,,,0,,,64,0
82920,note_on,0,0,1,,,,,,,,,,,,,,,0,,,69,38
82920,note_on,120,0,2,,,,,,,,,,,,,,,0,,,45,0
82960,set_tempo,80,1,0,,,,,,,,,,,,456725,,,,,,,
83000,set_tempo,40,1,0,,,,,,,,,,,,454959,,,,,,,
83040,note_on,0,0,1,,,,,,,,,,,,,,,0,,,74,51
83040,note_on,120,0,1,,,,,,,,,,,,,,,0,,,69,0
83040,note_on,0,0,1,,,,,,,,,,,,,,,0,,,76,0
83040,note_on,0,0,1,,,,,,,,,,,,,,,0,,,70,51
83069,control_change,149,0,2,,,,,,,,,,,,,,,0,64,0,,
83080,set_tempo,80,1,0,,,,,,,,,,,,456725,,,,,,,
83120,control_change,51,0,2,,,,,,,,,,,,,,,0,64,127,,
83160,note_on,0,0,1,,,,,,,,,,,,,,,0,,,65,34
83160,set_tempo,80,1,0,,,,,,,,,,,,458540,,,,,,,
83160,note_on,120,0,1,,,,,,,,,,,,,,,0,,,70,0
83240,set_tempo,80,1,0,,,,,,,,,,,,460370,,,,,,,
83280,note_on,120,0,1,,,,,,,,,,,,,,,0,,,65,0
83280,note_on,0,0,1,,,,,,,,,,,,,,,0,,,62,34
83280,note_on,160,0,2,,,,,,,,,,,,,,,0,,,46,33
83320,set_tempo,80,1,0,,,,,,,,,,,,462214,,,,,,,
83400,set_tempo,80,1,0,,,,,,,,,,,,464037,,,,,,,
83400,note_on,120,0,1,,,,,,,,,,,,,,,0,,,62,0
83400,note_on,120,0,2,,,,,,,,,,,,,,,0,,,46,0
83400,note_on,0,0,1,,,,,,,,,,,,,,,0,,,65,34
83440,set_tempo,40,1,0,,,,,,,,,,,,460370,,,,,,,
83520,control_change,120,0,2,,,,,,,,,,,,,,,0,64,0,,
83520,note_on,120,0,1,,,,,,,,,,,,,,,0,,,65,0
83520,note_on,0,0,1,,,,,,,,,,,,,,,0,,,74,0
83520,note_on,0,0,1,,,,,,,,,,,,,,,0,,,69,51
83520,note_on,0,0,1,,,,,,,,,,,,,,,0,,,74,51
83520,set_tempo,80,1,0,,,,,,,,,,,,462214,,,,,,,
83584,control_change,64,0,2,,,,,,,,,,,,,,,0,64,127,,
83640,note_on,0,0,1,,,,,,,,,,,,,,,0,,,65,35
83640,note_on,120,0,1,,,,,,,,,,,,,,,0,,,69,0
83640,set_tempo,120,1,0,,,,,,,,,,,,460370,,,,,,,
83760,set_tempo,120,1,0,,,,,,,,,,,,458540,,,,,,,
83760,note_on,120,0,1,,,,,,,,,,,,,,,0,,,65,0
83760,note_on,176,0,2,,,,,,,,,,,,,,,0,,,50,33
83760,note_on,0,0,1,,,,,,,,,,,,,,,0,,,62,35
83840,set_tempo,80,1,0,,,,,,,,,,,,456725,,,,,,,
83880,note_on,120,0,1,,,,,,,,,,,,,,,0,,,62,0
83880,note_on,0,0,1,,,,,,,,,,,,,,,0,,,65,35
83960,set_tempo,120,1,0,,,,,,,,,,,,454959,,,,,,,
84000,note_on,120,0,1,,,,,,,,,,,,,,,0,,,65,0
84000,note_on,240,0,2,,,,,,,,,,,,,,,0,,,50,0
84000,note_on,0,0,1,,,,,,,,,,,,,,,0,,,69,49
84000,note_on,0,0,1,,,,,,,,,,,,,,,0,,,72,49
84000,control_change,0,0,2,,,,,,,,,,,,,,,0,64,0,,
84000,note_on,0,0,1,,,,,,,,,,,,,,,0,,,74,0
84040,set_tempo,80,1,0,,,,,,,,,,,,453172,,,,,,,
84049,control_change,49,0,2,,,,,,,,,,,,,,,0,64,127,,
84120,note_on,120,0,1,,,,,,,,,,,,,,,0,,,69,0
84120,note_on,0,0,1,,,,,,,,,,,,,,,0,,,65,35
84160,set_tempo,120,1,0,,,,,,,,,,,,454959,,,,,,,
84240,note_on,120,0,1,,,,,,,,,,,,,,,0,,,65,0
84240,note_on,0,0,1,,,,,,,,,,,,,,,0,,,60,35
84240,note_on,191,0,2,,,,,,,,,,,,,,,0,,,53,33
84240,set_tempo,80,1,0,,,,,,,,,,,,456725,,,,,,,
84360,set_tempo,120,1,0,,,,,,,,,,,,458540,,,,,,,
84360,note_on,120,0,1,,,,,,,,,,,,,,,0,,,60,0
84360,note_on,0,0,1,,,,,,,,,,,,,,,0,,,65,35
84440,set_tempo,80,1,0,,,,,,,,,,,,460370,,,,,,,
84480,control_change,0,0,2,,,,,,,,,,,,,,,0,64,0,,
84480,note_on,240,0,2,,,,,,,,,,,,,,,0,,,53,0
84480,note_on,120,0,1,,,,,,,,,,,,,,,0,,,65,0
84480,note_on,0,0,1,,,,,,,,,,,,,,,0,,,72,0
84480,note_on,0,0,1,,,,,,,,,,,,,,,0,,,72,50
84480,note_on,0,0,1,,,,,,,,,,,,,,,0,,,69,50
84480,set_tempo,40,1,0,,,,,,,,,,,,454959,,,,,,,
84549,control_change,69,0,2,,,,,,,,,,,,,,,0,64,127,,
84600,note_on,120,0,1,,,,,,,,,,,,,,,0,,,69,0
84600,note_on,0,0,1,,,,,,,,,,,,,,,0,,,64,36
84640,set_tempo,160,1,0,,,,,,,,,,,,453172,,,,,,,
84720,note_on,120,0,1,,,,,,,,,,,,,,,0,,,64,0
84720,note_on,0,0,1,,,,,,,,,,,,,,,0,,,60,36
84720,note_on,171,0,2,,,,,,,,,,,,,,,0,,,57,33
84760,set_tempo,120,1,0,,,,,,,,,,,,451399,,,,,,,
84840,note_on,120,0,1,,,,,,,,,,,,,,,0,,,60,0
84840,note_on,0,0,1,,,,,,,,,,,,,,,0,,,64,36
84880,set_tempo,120,1,0,,,,,,,,,,,,449640,,,,,,,
84960,note_on,120,0,1,,,,,,,,,,,,,,,0,,,64,0
84960,note_on,0,0,1,,,,,,,,,,,,,,,0,,,72,0
84960,note_on,0,0,1,,,,,,,,,,,,,,,0,,,67,49
84960,note_on,0,0,1,,,,,,,,,,,,,,,0,,,70,49
84960,set_tempo,80,1,0,,,,,,,,,,,,462214,,,,,,,
84960,note_on,240,0,2,,,,,,,,,,,,,,,0,,,57,0
84989,control_change,29,0,2,,,,,,,,,,,,,,,0,64,0,,
85040,control_change,51,0,2,,,,,,,,,,,,,,,0,64,127,,
85080,note_on,120,0,1,,,,,,,,,,,,,,,0,,,67,0
85080,note_on,0,0,1,,,,,,,,,,,,,,,0,,,64,34
85200,note_on,0,0,1,,,,,,,,,,,,,,,0,,,58,34
85200,note_on,120,0,1,,,,,,,,,,,,,,,0,,,64,0
85200,note_on,160,0,2,,,,,,,,,,,,,,,0,,,36,33
85320,note_on,120,0,1,,,,,,,,,,,,,,,0,,,58,0
85320,note_on,0,0,1,,,,,,,,,,,,,,,0,,,64,34
85360,set_tempo,400,1,0,,,,,,,,,,,,453172,,,,,,,
85400,set_tempo,40,1,0,,,,,,,,,,,,451399,,,,,,,
85440,note_on,0,0,1,,,,,,,,,,,,,,,0,,,67,50
85440,note_on,0,0,1,,,,,,,,,,,,,,,0,,,70,50
85440,note_on,0,0,1,,,,,,,,,,,,,,,0,,,70,0
85440,note_on,240,0,2,,,,,,,,,,,,,,,0,,,36,0
85440,control_change,0,0,2,,,,,,,,,,,,,,,0,64,0,,
85440,note_on,120,0,1,,,,,,,,,,,,,,,0,,,64,0
85496,control_change,56,0,2,,,,,,,,,,,,,,,0,64,127,,
85560,note_on,120,0,1,,,,,,,,,,,,,,,0,,,67,0
85560,set_tempo,160,1,0,,,,,,,,,,,,453172,,,,,,,
85560,note_on,0,0,1,,,,,,,,,,,,,,,0,,,62,35
85680,note_on,0,0,1,,,,,,,,,,,,,,,0,,,58,35
85680,note_on,184,0,2,,,,,,,,,,,,,,,0,,,38,33
85680,note_on,120,0,1,,,,,,,,,,,,,,,0,,,62,0
85720,set_tempo,160,1,0,,,,,,,,,,,,454959,,,,,,,
85800,note_on,120,0,1,,,,,,,,,,,,,,,0,,,58,0
85800,note_on,0,0,1,,,,,,,,,,,,,,,0,,,62,35
85880,set_tempo,160,1,0,,,,,,,,,,,,456725,,,,,,,
85920,note_on,120,0,1,,,,,,,,,,,,,,,0,,,62,0
85920,note_on,0,0,1,,,,,,,,,,,,,,,0,,,65,49
85920,note_on,0,0,1,,,,,,,,,,,,,,,0,,,69,49
85920,note_on,240,0,2,,,,,,,,,,,,,,,0,,,38,0
85920,note_on,0,0,1,,,,,,,,,,,,,,,0,,,70,0
85948,control_change,28,0,2,,,,,,,,,,,,,,,0,64,0,,
86026,control_change,78,0,2,,,,,,,,,,,,,,,0,64,127,,
86040,note_on,120,0,1,,,,,,,,,,,,,,,0,,,65,0
86040,note_on,0,0,1,,,,,,,,,,,,,,,0,,,62,35
86040,set_tempo,160,1,0,,,,,,,,,,,,458540,,,,,,,
86160,note_on,0,0,1,,,,,,,,,,,,,,,0,,,57,35
86160,note_on,120,0,1,,,,,,,,,,,,,,,0,,,62,0
86160,note_on,134,0,2,,,,,,,,,,,,,,,0,,,41,33
86200,set_tempo,160,1,0,,,,,,,,,,,,460370,,,,,,,
86280,note_on,120,0,1,,,,,,,,,,,,,,,0,,,57,0
86280,note_on,0,0,1,,,,,,,,,,,,,,,0,,,62,35
86360,set_tempo,160,1,0,,,,,,,,,,,,462214,,,,,,,
86400,control_change,0,0,2,,,,,,,,,,,,,,,0,64,0,,
86400,note_on,240,0,2,,,,,,,,,,,,,,,0,,,41,0
86400,set_tempo,40,1,0,,,,,,,,,,,,464037,,,,,,,
86400,note_on,120,0,1,,,,,,,,,,,,,,,0,,,62,0
86400,note_on,0,0,1,,,,,,,,,,,,,,,0,,,69,0
86400,note_on,0,0,1,,,,,,,,,,,,,,,0,,,64,48
86400,note_on,0,0,1,,,,,,,,,,,,,,,0,,,69,48
86440,control_change,40,0,2,,,,,,,,,,,,,,,0,64,127,,
86520,note_on,0,0,1,,,,,,,,,,,,,,,0,,,61,36
86520,note_on,120,0,1,,,,,,,,,,,,,,,0,,,64,0
86640,note_on,200,0,2,,,,,,,,,,,,,,,0,,,45,33
86640,note_on,120,0,1,,,,,,,,,,,,,,,0,,,61,0
86640,note_on,0,0,1,,,,,,,,,,,,,,,0,,,57,36
86640,set_tempo,240,1,0,,,,,,,,,,,,462214,,,,,,,
86760,note_on,120,0,1,,,,,,,,,,,,,,,0,,,57,0
86760,note_on,0,0,1,,,,,,,,,,,,,,,0,,,61,36
86880,note_on,120,0,1,,,,,,,,,,,,,,,0,,,61,0
86880,note_on,240,0,2,,,,,,,,,,,,,,,0,,,45,0
86880,set_tempo,240,1,0,,,,,,,,,,,,458540,,,,,,,
86880,note_on,0,0,1,,,,,,,,,,,,,,,0,,,69,0
86880,note_on,0,0,1,,,,,,,,,,,,,,,0,,,67,47
86937,control_change,57,0,2,,,,,,,,,,,,,,,0,64,0,,
86989,control_change,52,0,2,,,,,,,,,,,,,,,0,64,127,,
87000,note_on,120,0,1,,,,,,,,,,,,,,,0,,,64,35
87040,set_tempo,160,1,0,,,,,,,,,,,,460370,,,,,,,
87120,note_on,131,0,2,,,,,,,,,,,,,,,0,,,49,33
87120,note_on,120,0,1,,,,,,,,,,,,,,,0,,,64,0
87120,note_on,0,0,1,,,,,,,,,,,,,,,0,,,57,35
87200,set_tempo,160,1,0,,,,,,,,,,,,462214,,,,,,,
87240,note_on,120,0,1,,,,,,,,,,,,,,,0,,,57,0
87240,note_on,0,0,1,,,,,,,,,,,,,,,0,,,64,35
87360,set_tempo,160,1,0,,,,,,,,,,,,458540,,,,,,,
87360,note_on,240,0,2,,,,,,,,,,,,,,,0,,,49,0
87360,control_change,0,0,2,,,,,,,,,,,,,,,0,64,0,,
87360,note_on,0,0,1,,,,,,,,,,,,,,,0,,,67,48
87360,note_on,0,0,1,,,,,,,,,,,,,,,0,,,67,0
87360,note_on,120,0,1,,,,,,,,,,,,,,,0,,,64,0
87423,control_change,63,0,2,,,,,,,,,,,,,,,0,64,127,,
87480,note_on,120,0,1,,,,,,,,,,,,,,,0,,,64,38
87600,set_tempo,240,1,0,,,,,,,,,,,,456725,,,,,,,
87600,note_on,0,0,1,,,,,,,,,,,,,,,0,,,57,42
87600,note_on,120,0,1,,,,,,,,,,,,,,,0,,,64,0
87600,note_on,177,0,2,,,,,,,,,,,,,,,0,,,50,33
87720,note_on,120,0,1,,,,,,,,,,,,,,,0,,,57,0
87720,note_on,0,0,1,,,,,,,,,,,,,,,0,,,64,45
87720,note_on,120,0,2,,,,,,,,,,,,,,,0,,,50,0
87840,note_on,120,0,1,,,,,,,,,,,,,,,0,,,64,0
87840,note_on,0,0,1,,,,,,,,,,,,,,,0,,,67,0
87840,note_on,0,0,1,,,,,,,,,,,,,,,0,,,65,52
87840,set_tempo,240,1,0,,,,,,,,,,,,454959,,,,,,,
87840,note_on,120,0,2,,,,,,,,,,,,,,,0,,,52,33
87920,control_change,80,0,2,,,,,,,,,,,,,,,0,64,0,,
87960,note_on,120,0,1,,,,,,,,,,,,,,,0,,,62,39
87960,note_on,40,0,2,,,,,,,,,,,,,,,0,,,52,0
87966,control_change,6,0,2,,,,,,,,,,,,,,,0,64,127,,
88080,note_on,120,0,1,,,,,,,,,,,,,,,0,,,62,0
88080,note_on,0,0,1,,,,,,,,,,,,,,,0,,,57,39
88080,set_tempo,240,1,0,,,,,,,,,,,,453172,,,,,,,
88080,note_on,114,0,2,,,,,,,,,,,,,,,0,,,53,33
88200,note_on,120,0,2,,,,,,,,,,,,,,,0,,,53,0
88200,note_on,120,0,1,,,,,,,,,,,,,,,0,,,57,0
88200,note_on,0,0,1,,,,,,,,,,,,,,,0,,,62,39
88280,set_tempo,200,1,0,,,,,,,,,,,,451399,,,,,,,
88320,note_on,0,0,2,,,,,,,,,,,,,,,0,,,55,33
88320,control_change,120,0,2,,,,,,,,,,,,,,,0,64,0,,
88320,set_tempo,40,1,0,,,,,,,,,,,,453172,,,,,,,
88320,note_on,120,0,1,,,,,,,,,,,,,,,0,,,62,0
88320,note_on,0,0,1,,,,,,,,,,,,,,,0,,,65,0
88320,note_on,0,0,1,,,,,,,,,,,,,,,0,,,64,49
88389,control_change,69,0,2,,,,,,,,,,,,,,,0,64,127,,
88440,note_on,51,0,2,,,,,,,,,,,,,,,0,,,60,35
88560,note_on,0,0,2,,,,,,,,,,,,,,,0,,,55,35
88560,note_on,120,0,2,,,,,,,,,,,,,,,0,,,60,0
88560,note_on,0,0,2,,,,,,,,,,,,,,,0,,,55,0
88680,note_on,0,0,2,,,,,,,,,,,,,,,0,,,60,35
88680,note_on,120,0,2,,,,,,,,,,,,,,,0,,,55,0
88800,note_on,0,0,1,,,,,,,,,,,,,,,0,,,62,47
88800,note_on,0,0,2,,,,,,,,,,,,,,,0,,,43,33
88800,note_on,120,0,2,,,,,,,,,,,,,,,0,,,60,0
88800,note_on,480,0,1,,,,,,,,,,,,,,,0,,,64,0
88840,control_change,40,0,2,,,,,,,,,,,,,,,0,64,0,,
88891,control_change,51,0,2,,,,,,,,,,,,,,,0,64,127,,
88920,note_on,29,0,2,,,,,,,,,,,,,,,0,,,59,33
89040,note_on,0,0,2,,,,,,,,,,,,,,,0,,,53,33
89040,note_on,120,0,2,,,,,,,,,,,,,,,0,,,59,0
89040,note_on,0,0,2,,,,,,,,,,,,,,,0,,,43,0
89160,note_on,120,0,2,,,,,,,,,,,,,,,0,,,53,0
89160,note_on,0,0,2,,,,,,,,,,,,,,,0,,,59,33
89280,note_on,0,0,2,,,,,,,,,,,,,,,0,,,36,33
89280,note_on,120,0,2,,,,,,,,,,,,,,,0,,,59,0
89280,control_change,0,0,2,,,,,,,,,,,,,,,0,64,0,,
89280,note_on,0,0,2,,,,,,,,,,,,,,,0,,,52,33
89280,note_on,480,0,1,,,,,,,,,,,,,,,0,,,62,0
89280,set_tempo,960,1,0,,,,,,,,,,,,458540,,,,,,,
89280,note_on,0,0,2,,,,,,,,,,,,,,,0,,,60,46
89280,note_on,0,0,2,,,,,,,,,,,,,,,0,,,48,33
89400,note_on,0,0,2,,,,,,,,,,,,,,,0,,,48,0
89400,note_on,0,0,2,,,,,,,,,,,,,,,0,,,36,0
89400,note_on,0,0,2,,,,,,,,,,,,,,,0,,,52,0
89400,note_on,120,0,2,,,,,,,,,,,,,,,0,,,60,0
89440,set_tempo,160,1,0,,,,,,,,,,,,460370,,,,,,,
89520,note_on,120,0,2,,,,,,,,,,,,,,,0,,,55,39
89600,set_tempo,160,1,0,,,,,,,,,,,,462214,,,,,,,
89640,note_on,120,0,2,,,,,,,,,,,,,,,0,,,55,0
89760,note_on,120,0,2,,,,,,,,,,,,,,,0,,,52,43
89760,set_tempo,160,1,0,,,,,,,,,,,,464037,,,,,,,
89800,set_tempo,40,1,0,,,,,,,,,,,,462214,,,,,,,
89880,note_on,120,0,2,,,,,,,,,,,,,,,0,,,52,0
89920,set_tempo,120,1,0,,,,,,,,,,,,464037,,,,,,,
90000,set_tempo,80,1,0,,,,,,,,,,,,465911,,,,,,,
90000,note_on,120,0,2,,,,,,,,,,,,,,,0,,,50,47
90080,set_tempo,80,1,0,,,,,,,,,,,,467800,,,,,,,
90120,note_on,120,0,2,,,,,,,,,,,,,,,0,,,50,0
90160,set_tempo,80,1,0,,,,,,,,,,,,469667,,,,,,,
90240,note_on,120,0,2,,,,,,,,,,,,,,,0,,,48,50
90240,set_tempo,80,1,0,,,,,,,,,,,,456725,,,,,,,
90360,note_on,120,0,2,,,,,,,,,,,,,,,0,,,48,0
90480,note_on,120,0,2,,,,,,,,,,,,,,,0,,,46,46
90480,note_on,1200,0,1,,,,,,,,,,,,,,,0,,,64,52
90480,note_on,0,0,1,,,,,,,,,,,,,,,0,,,67,52
90480,note_on,0,0,1,,,,,,,,,,,,,,,0,,,72,52
90480,set_tempo,240,1,0,,,,,,,,,,,,481928,,,,,,,
90520,set_tempo,40,1,0,,,,,,,,,,,,483871,,,,,,,
90560,set_tempo,40,1,0,,,,,,,,,,,,485830,,,,,,,
90600,set_tempo,40,1,0,,,,,,,,,,,,487805,,,,,,,
90600,note_on,0,0,1,,,,,,,,,,,,,,,0,,,64,0
90600,note_on,0,0,1,,,,,,,,,,,,,,,0,,,67,0
90600,note_on,120,0,1,,,,,,,,,,,,,,,0,,,72,0
90600,note_on,120,0,2,,,,,,,,,,,,,,,0,,,46,0
90640,set_tempo,40,1,0,,,,,,,,,,,,489796,,,,,,,
90680,set_tempo,40,1,0,,,,,,,,,,,,491803,,,,,,,
90720,note_on,0,0,1,,,,,,,,,,,,,,,0,,,72,52
90720,set_tempo,40,1,0,,,,,,,,,,,,493827,,,,,,,
90720,note_on,120,0,2,,,,,,,,,,,,,,,0,,,45,43
90720,note_on,120,0,1,,,,,,,,,,,,,,,0,,,64,52
90720,note_on,0,0,1,,,,,,,,,,,,,,,0,,,69,52
90760,set_tempo,40,1,0,,,,,,,,,,,,495868,,,,,,,
90800,set_tempo,40,1,0,,,,,,,,,,,,497925,,,,,,,
90840,set_tempo,40,1,0,,,,,,,,,,,,500000,,,,,,,
90840,note_on,120,0,1,,,,,,,,,,,,,,,0,,,72,0
90840,note_on,0,0,1,,,,,,,,,,,,,,,0,,,64,0
90840,note_on,0,0,1,,,,,,,,,,,,,,,0,,,69,0
90840,note_on,120,0,2,,,,,,,,,,,,,,,0,,,45,0
90880,set_tempo,40,1,0,,,,,,,,,,,,502092,,,,,,,
90920,set_tempo,40,1,0,,,,,,,,,,,,504202,,,,,,,
90960,note_on,120,0,1,,,,,,,,,,,,,,,0,,,64,52
90960,note_on,120,0,2,,,,,,,,,,,,,,,0,,,43,39
90960,set_tempo,40,1,0,,,,,,,,,,,,506329,,,,,,,
90960,note_on,0,0,1,,,,,,,,,,,,,,,0,,,72,52
90960,note_on,0,0,1,,,,,,,,,,,,,,,0,,,70,52
91000,set_tempo,40,1,0,,,,,,,,,,,,508475,,,,,,,
91040,set_tempo,40,1,0,,,,,,,,,,,,510638,,,,,,,
91080,set_tempo,40,1,0,,,,,,,,,,,,512821,,,,,,,
91080,note_on,120,0,1,,,,,,,,,,,,,,,0,,,72,0
91080,note_on,0,0,1,,,,,,,,,,,,,,,0,,,70,0
91080,note_on,0,0,1,,,,,,,,,,,,,,,0,,,64,0
91080,note_on,120,0,2,,,,,,,,,,,,,,,0,,,43,0
91120,set_tempo,40,1,0,,,,,,,,,,,,515021,,,,,,,
91160,set_tempo,40,1,0,,,,,,,,,,,,519481,,,,,,,
91200,control_change,120,0,2,,,,,,,,,,,,,,,0,64,127,,
91200,set_tempo,40,1,0,,,,,,,,,,,,519481,,,,,,,
91200,note_on,120,0,1,,,,,,,,,,,,,,,0,,,72,52
91240,set_tempo,40,1,0,,,,,,,,,,,,515021,,,,,,,
91280,set_tempo,40,1,0,,,,,,,,,,,,510638,,,,,,,
91320,set_tempo,40,1,0,,,,,,,,,,,,506329,,,,,,,
91320,note_on,120,0,1,,,,,,,,,,,,,,,0,,,69,37
91360,set_tempo,40,1,0,,,,,,,,,,,,502092,,,,,,,
91400,set_tempo,40,1,0,,,,,,,,,,,,497925,,,,,,,
91440,note_on,240,0,2,,,,,,,,,,,,,,,0,,,29,33
91440,note_on,0,0,1,,,,,,,,,,,,,,,0,,,65,37
91440,set_tempo,40,1,0,,,,,,,,,,,,493827,,,,,,,
91440,note_on,120,0,1,,,,,,,,,,,,,,,0,,,69,0
91480,set_tempo,40,1,0,,,,,,,,,,,,489796,,,,,,,
91520,set_tempo,40,1,0,,,,,,,,,,,,485830,,,,,,,
91560,note_on,120,0,1,,,,,,,,,,,,,,,0,,,65,0
91560,note_on,0,0,1,,,,,,,,,,,,,,,0,,,69,37
91560,set_tempo,40,1,0,,,,,,,,,,,,481928,,,,,,,
91560,note_on,120,0,2,,,,,,,,,,,,,,,0,,,29,0
91600,set_tempo,40,1,0,,,,,,,,,,,,478088,,,,,,,
91640,set_tempo,40,1,0,,,,,,,,,,,,474308,,,,,,,
91680,set_tempo,40,1,0,,,,,,,,,,,,470588,,,,,,,
91680,control_change,120,0,2,,,,,,,,,,,,,,,0,64,0,,
91680,note_on,120,0,1,,,,,,,,,,,,,,,0,,,69,0
91680,note_on,0,0,1,,,,,,,,,,,,,,,0,,,72,0
91680,note_on,0,0,1,,,,,,,,,,,,,,,0,,,77,53
91715,control_change,35,0,2,,,,,,,,,,,,,,,0,64,127,,
91720,set_tempo,40,1,0,,,,,,,,,,,,467800,,,,,,,
91760,set_tempo,40,1,0,,,,,,,,,,,,458540,,,,,,,
91800,set_tempo,40,1,0,,,,,,,,,,,,460370,,,,,,,
91800,note_on,120,0,1,,,,,,,,,,,,,,,0,,,69,40
91840,set_tempo,40,1,0,,,,,,,,,,,,462214,,,,,,,
91880,set_tempo,40,1,0,,,,,,,,,,,,464037,,,,,,,
91920,note_on,120,0,1,,,,,,,,,,,,,,,0,,,69,0
91920,note_on,0,0,1,,,,,,,,,,,,,,,0,,,65,40
91920,note_on,205,0,2,,,,,,,,,,,,,,,0,,,41,33
92040,note_on,120,0,1,,,,,,,,,,,,,,,0,,,65,0
92040,note_on,0,0,1,,,,,,,,,,,,,,,0,,,69,42
92040,note_on,120,0,2,,,,,,,,,,,,,,,0,,,41,0
92160,control_change,120,0,2,,,,,,,,,,,,,,,0,64,0,,
92160,set_tempo,280,1,0,,,,,,,,,,,,467800,,,,,,,
92160,note_on,0,0,1,,,,,,,,,,,,,,,0,,,76,52
92160,note_on,0,0,1,,,,,,,,,,,,,,,0,,,72,52
92160,note_on,0,0,1,,,,,,,,,,,,,,,0,,,77,0
92160,note_on,120,0,1,,,,,,,,,,,,,,,0,,,69,0
92206,control_change,46,0,2,,,,,,,,,,,,,,,0,64,127,,
92240,set_tempo,80,1,0,,,,,,,,,,,,465911,,,,,,,
92280,note_on,120,0,1,,,,,,,,,,,,,,,0,,,72,0
92280,note_on,0,0,1,,,,,,,,,,,,,,,0,,,69,38
92320,set_tempo,80,1,0,,,,,,,,,,,,464037,,,,,,,
92360,set_tempo,40,1,0,,,,,,,,,,,,462214,,,,,,,
92400,note_on,194,0,2,,,,,,,,,,,,,,,0,,,45,33
92400,note_on,120,0,1,,,,,,,,,,,,,,,0,,,69,0
92400,note_on,0,0,1,,,,,,,,,,,,,,,0,,,64,38
92440,set_tempo,80,1,0,,,,,,,,,,,,460370,,,,,,,
92480,set_tempo,40,1,0,,,,,,,,,,,,458540,,,,,,,
92520,note_on,120,0,1,,,,,,,,,,,,,,,0,,,64,0
92520,note_on,120,0,2,,,,,,,,,,,,,,,0,,,45,0
92520,note_on,0,0,1,,,,,,,,,,,,,,,0,,,69,38
92560,set_tempo,80,1,0,,,,,,,,,,,,456725,,,,,,,
92600,set_tempo,40,1,0,,,,,,,,,,,,454959,,,,,,,
92640,note_on,0,0,1,,,,,,,,,,,,,,,0,,,74,51
92640,note_on,120,0,1,,,,,,,,,,,,,,,0,,,69,0
92640,note_on,0,0,1,,,,,,,,,,,,,,,0,,,76,0
92640,note_on,0,0,1,,,,,,,,,,,,,,,0,,,70,51
92669,control_change,149,0,2,,,,,,,,,,,,,,,0,64,0,,
92680,set_tempo,80,1,0,,,,,,,,,,,,456725,,,,,,,
92720,control_change,51,0,2,,,,,,,,,,,,,,,0,64,127,,
92760,set_tempo,80,1,0,,,,,,,,,,,,458540,,,,,,,
92760,note_on,0,0,1,,,,,,,,,,,,,,,0,,,65,34
92760,note_on,120,0,1,,,,,,,,,,,,,,,0,,,70,0
92840,set_tempo,80,1,0,,,,,,,,,,,,460370,,,,,,,
92880,note_on,0,0,1,,,,,,,,,,,,,,,0,,,62,34
92880,note_on,120,0,1,,,,,,,,,,,,,,,0,,,65,0
92880,note_on,160,0,2,,,,,,,,,,,,,,,0,,,46,33
92920,set_tempo,80,1,0,,,,,,,,,,,,462214,,,,,,,
93000,set_tempo,80,1,0,,,,,,,,,,,,464037,,,,,,,
93000,note_on,0,0,1,,,,,,,,,,,,,,,0,,,65,34
93000,note_on,120,0,1,,,,,,,,,,,,,,,0,,,62,0
93000,note_on,120,0,2,,,,,,,,,,,,,,,0,,,46,0
93040,set_tempo,40,1,0,,,,,,,,,,,,460370,,,,,,,
93120,note_on,0,0,1,,,,,,,,,,,,,,,0,,,74,48
93120,note_on,0,0,1,,,,,,,,,,,,,,,0,,,74,0
93120,note_on,120,0,1,,,,,,,,,,,,,,,0,,,65,0
93120,set_tempo,80,1,0,,,,,,,,,,,,462214,,,,,,,
93120,note_on,0,0,1,,,,,,,,,,,,,,,0,,,69,48
93120,control_change,120,0,2,,,,,,,,,,,,,,,0,64,0,,
93184,control_change,64,0,2,,,,,,,,,,,,,,,0,64,127,,
93240,set_tempo,120,1,0,,,,,,,,,,,,460370,,,,,,,
93240,note_on,120,0,1,,,,,,,,,,,,,,,0,,,69,0
93240,note_on,0,0,1,,,,,,,,,,,,,,,0,,,65,37
93360,set_tempo,120,1,0,,,,,,,,,,,,458540,,,,,,,
93360,note_on,176,0,2,,,,,,,,,,,,,,,0,,,50,33
93360,note_on,0,0,1,,,,,,,,,,,,,,,0,,,62,37
93360,note_on,120,0,1,,,,,,,,,,,,,,,0,,,65,0
93440,set_tempo,80,1,0,,,,,,,,,,,,456725,,,,,,,
93480,note_on,120,0,1,,,,,,,,,,,,,,,0,,,62,0
93480,note_on,0,0,1,,,,,,,,,,,,,,,0,,,65,37
93560,set_tempo,120,1,0,,,,,,,,,,,,454959,,,,,,,
93600,control_change,0,0,2,,,,,,,,,,,,,,,0,64,0,,
93600,note_on,240,0,2,,,,,,,,,,,,,,,0,,,50,0
93600,note_on,120,0,1,,,,,,,,,,,,,,,0,,,65,0
93600,note_on,0,0,1,,,,,,,,,,,,,,,0,,,69,49
93600,note_on,0,0,1,,,,,,,,,,,,,,,0,,,72,49
93600,note_on,0,0,1,,,,,,,,,,,,,,,0,,,74,0
93640,set_tempo,80,1,0,,,,,,,,,,,,453172,,,,,,,
93649,control_change,49,0,2,,,,,,,,,,,,,,,0,64,127,,
93720,note_on,120,0,1,,,,,,,,,,,,,,,0,,,69,0
93720,note_on,0,0,1,,,,,,,,,,,,,,,0,,,65,35
93760,set_tempo,120,1,0,,,,,,,,,,,,454959,,,,,,,
93840,note_on,191,0,2,,,,,,,,,,,,,,,0,,,53,33
93840,note_on,120,0,1,,,,,,,,,,,,,,,0,,,65,0
93840,set_tempo,80,1,0,,,,,,,,,,,,456725,,,,,,,
93840,note_on,0,0,1,,,,,,,,,,,,,,,0,,,60,35
93960,note_on,120,0,1,,,,,,,,,,,,,,,0,,,60,0
93960,set_tempo,120,1,0,,,,,,,,,,,,458540,,,,,,,
93960,note_on,0,0,1,,,,,,,,,,,,,,,0,,,65,35
94040,set_tempo,80,1,0,,,,,,,,,,,,460370,,,,,,,
94080,note_on,240,0,2,,,,,,,,,,,,,,,0,,,53,0
94080,note_on,120,0,1,,,,,,,,,,,,,,,0,,,65,0
94080,set_tempo,40,1,0,,,,,,,,,,,,454959,,,,,,,
94080,note_on,0,0,1,,,,,,,,,,,,,,,0,,,72,0
94080,note_on,0,0,1,,,,,,,,,,,,,,,0,,,69,49
94080,note_on,0,0,1,,,,,,,,,,,,,,,0,,,72,49
94080,control_change,0,0,2,,,,,,,,,,,,,,,0,64,0,,
94149,control_change,69,0,2,,,,,,,,,,,,,,,0,64,127,,
94200,note_on,120,0,1,,,,,,,,,,,,,,,0,,,69,0
94200,note_on,0,0,1,,,,,,,,,,,,,,,0,,,64,36
94240,set_tempo,160,1,0,,,,,,,,,,,,453172,,,,,,,
94320,note_on,0,0,1,,,,,,,,,,,,,,,0,,,60,36
94320,note_on,120,0,1,,,,,,,,,,,,,,,0,,,64,0
94320,note_on,171,0,2,,,,,,,,,,,,,,,0,,,57,33
94360,set_tempo,120,1,0,,,,,,,,,,,,451399,,,,,,,
94440,note_on,0,0,1,,,,,,,,,,,,,,,0,,,64,37
94440,note_on,120,0,1,,,,,,,,,,,,,,,0,,,60,0
94480,set_tempo,120,1,0,,,,,,,,,,,,449640,,,,,,,
94560,note_on,120,0,1,,,,,,,,,,,,,,,0,,,64,0
94560,note_on,0,0,1,,,,,,,,,,,,,,,0,,,72,0
94560,note_on,0,0,1,,,,,,,,,,,,,,,0,,,67,49
94560,note_on,0,0,1,,,,,,,,,,,,,,,0,,,70,49
94560,note_on,240,0,2,,,,,,,,,,,,,,,0,,,57,0
94560,set_tempo,80,1,0,,,,,,,,,,,,467800,,,,,,,
94589,control_change,29,0,2,,,,,,,,,,,,,,,0,64,0,,
94640,control_change,51,0,2,,,,,,,,,,,,,,,0,64,127,,
94680,note_on,120,0,1,,,,,,,,,,,,,,,0,,,67,0
94680,note_on,0,0,1,,,,,,,,,,,,,,,0,,,64,35
94800,note_on,160,0,2,,,,,,,,,,,,,,,0,,,36,33
94800,note_on,120,0,1,,,,,,,,,,,,,,,0,,,64,0
94800,note_on,0,0,1,,,,,,,,,,,,,,,0,,,58,35
94920,note_on,120,0,1,,,,,,,,,,,,,,,0,,,58,0
94920,note_on,0,0,1,,,,,,,,,,,,,,,0,,,64,35
94960,set_tempo,400,1,0,,,,,,,,,,,,453172,,,,,,,
95000,set_tempo,40,1,0,,,,,,,,,,,,451399,,,,,,,
95040,control_change,0,0,2,,,,,,,,,,,,,,,0,64,0,,
95040,note_on,0,0,1,,,,,,,,,,,,,,,0,,,70,0
95040,note_on,0,0,1,,,,,,,,,,,,,,,0,,,67,50
95040,note_on,240,0,2,,,,,,,,,,,,,,,0,,,36,0
95040,note_on,0,0,1,,,,,,,,,,,,,,,0,,,70,50
95040,note_on,120,0,1,,,,,,,,,,,,,,,0,,,64,0
95096,control_change,56,0,2,,,,,,,,,,,,,,,0,64,127,,
95160,note_on,120,0,1,,,,,,,,,,,,,,,0,,,67,0
95160,note_on,0,0,1,,,,,,,,,,,,,,,0,,,62,36
95160,set_tempo,160,1,0,,,,,,,,,,,,453172,,,,,,,
95280,note_on,184,0,2,,,,,,,,,,,,,,,0,,,38,33
95280,note_on,120,0,1,,,,,,,,,,,,,,,0,,,62,0
95280,note_on,0,0,1,,,,,,,,,,,,,,,0,,,58,36
95320,set_tempo,160,1,0,,,,,,,,,,,,454959,,,,,,,
95400,note_on,0,0,1,,,,,,,,,,,,,,,0,,,62,36
95400,note_on,120,0,1,,,,,,,,,,,,,,,0,,,58,0
95480,set_tempo,160,1,0,,,,,,,,,,,,456725,,,,,,,
95520,note_on,120,0,1,,,,,,,,,,,,,,,0,,,62,0
95520,note_on,0,0,1,,,,,,,,,,,,,,,0,,,65,49
95520,note_on,0,0,1,,,,,,,,,,,,,,,0,,,69,49
95520,note_on,240,0,2,,,,,,,,,,,,,,,0,,,38,0
95520,note_on,0,0,1,,,,,,,,,,,,,,,0,,,70,0
95548,control_change,28,0,2,,,,,,,,,,,,,,,0,64,0,,
95626,control_change,78,0,2,,,,,,,,,,,,,,,0,64,127,,
95640,note_on,120,0,1,,,,,,,,,,,,,,,0,,,65,0
95640,note_on,0,0,1,,,,,,,,,,,,,,,0,,,62,36
95640,set_tempo,160,1,0,,,,,,,,,,,,458540,,,,,,,
95760,note_on,0,0,1,,,,,,,,,,,,,,,0,,,57,36
95760,note_on,120,0,1,,,,,,,,,,,,,,,0,,,62,0
95760,note_on,134,0,2,,,,,,,,,,,,,,,0,,,41,33
95800,set_tempo,160,1,0,,,,,,,,,,,,460370,,,,,,,
95880,note_on,120,0,1,,,,,,,,,,,,,,,0,,,57,0
95880,note_on,0,0,1,,,,,,,,,,,,,,,0,,,62,36
95960,set_tempo,160,1,0,,,,,,,,,,,,462214,,,,,,,
96000,set_tempo,40,1,0,,,,,,,,,,,,464037,,,,,,,
96000,note_on,240,0,2,,,,,,,,,,,,,,,0,,,41,0
96000,note_on,0,0,1,,,,,,,,,,,,,,,0,,,69,0
96000,control_change,0,0,2,,,,,,,,,,,,,,,0,64,0,,
96000,note_on,120,0,1,,,,,,,,,,,,,,,0,,,62,0
96000,note_on,0,0,1,,,,,,,,,,,,,,,0,,,64,48
96000,note_on,0,0,1,,,,,,,,,,,,,,,0,,,69,48
96040,control_change,40,0,2,,,,,,,,,,,,,,,0,64,127,,
96120,note_on,0,0,1,,,,,,,,,,,,,,,0,,,61,36
96120,note_on,120,0,1,,,,,,,,,,,,,,,0,,,64,0
96240,note_on,200,0,2,,,,,,,,,,,,,,,0,,,45,33
96240,set_tempo,240,1,0,,,,,,,,,,,,462214,,,,,,,
96240,note_on,120,0,1,,,,,,,,,,,,,,,0,,,61,0
96240,note_on,0,0,1,,,,,,,,,,,,,,,0,,,57,36
96360,note_on,0,0,1,,,,,,,,,,,,,,,0,,,61,36
96360,note_on,120,0,1,,,,,,,,,,,,,,,0,,,57,0
96480,note_on,0,0,1,,,,,,,,,,,,,,,0,,,67,47
96480,note_on,0,0,1,,,,,,,,,,,,,,,0,,,69,0
96480,note_on,120,0,1,,,,,,,,,,,,,,,0,,,61,0
96480,set_tempo,240,1,0,,,,,,,,,,,,458540,,,,,,,
96480,note_on,240,0,2,,,,,,,,,,,,,,,0,,,45,0
96537,control_change,57,0,2,,,,,,,,,,,,,,,0,64,0,,
96589,control_change,52,0,2,,,,,,,,,,,,,,,0,64,127,,
96600,note_on,120,0,1,,,,,,,,,,,,,,,0,,,64,37
96640,set_tempo,160,1,0,,,,,,,,,,,,460370,,,,,,,
96720,note_on,0,0,1,,,,,,,,,,,,,,,0,,,57,37
96720,note_on,120,0,1,,,,,,,,,,,,,,,0,,,64,0
96720,set_tempo,80,1,0,,,,,,,,,,,,473522,,,,,,,
96720,note_on,131,0,2,,,,,,,,,,,,,,,0,,,49,33
96840,note_on,0,0,1,,,,,,,,,,,,,,,0,,,64,37
96840,note_on,120,0,1,,,,,,,,,,,,,,,0,,,57,0
96960,set_tempo,240,1,0,,,,,,,,,,,,458540,,,,,,,
96960,note_on,120,0,1,,,,,,,,,,,,,,,0,,,64,0
96960,control_change,0,0,2,,,,,,,,,,,,,,,0,64,0,,
96960,note_on,240,0,2,,,,,,,,,,,,,,,0,,,49,0
96960,note_on,0,0,1,,,,,,,,,,,,,,,0,,,67,48
96960,note_on,0,0,1,,,,,,,,,,,,,,,0,,,67,0
97023,control_change,63,0,2,,,,,,,,,,,,,,,0,64,127,,
97080,note_on,120,0,1,,,,,,,,,,,,,,,0,,,64,38
97200,set_tempo,240,1,0,,,,,,,,,,,,456725,,,,,,,
97200,note_on,177,0,2,,,,,,,,,,,,,,,0,,,50,33
97200,note_on,120,0,1,,,,,,,,,,,,,,,0,,,64,0
97200,note_on,0,0,1,,,,,,,,,,,,,,,0,,,57,42
97320,note_on,120,0,1,,,,,,,,,,,,,,,0,,,57,0
97320,note_on,120,0,2,,,,,,,,,,,,,,,0,,,50,0
97320,note_on,0,0,1,,,,,,,,,,,,,,,0,,,64,45
97440,set_tempo,240,1,0,,,,,,,,,,,,454959,,,,,,,
97440,note_on,120,0,2,,,,,,,,,,,,,,,0,,,52,33
97440,note_on,120,0,1,,,,,,,,,,,,,,,0,,,64,0
97440,note_on,0,0,1,,,,,,,,,,,,,,,0,,,67,0
97440,note_on,0,0,1,,,,,,,,,,,,,,,0,,,66,52
97520,control_change,80,0,2,,,,,,,,,,,,,,,0,64,0,,
97560,note_on,120,0,1,,,,,,,,,,,,,,,0,,,62,43
97560,note_on,40,0,2,,,,,,,,,,,,,,,0,,,52,0
97566,control_change,6,0,2,,,,,,,,,,,,,,,0,64,127,,
97680,note_on,114,0,2,,,,,,,,,,,,,,,0,,,54,33
97680,set_tempo,240,1,0,,,,,,,,,,,,453172,,,,,,,
97680,note_on,120,0,1,,,,,,,,,,,,,,,0,,,62,0
97680,note_on,0,0,1,,,,,,,,,,,,,,,0,,,57,44
97800,note_on,0,0,1,,,,,,,,,,,,,,,0,,,62,44
97800,note_on,120,0,2,,,,,,,,,,,,,,,0,,,54,0
97800,note_on,120,0,1,,,,,,,,,,,,,,,0,,,57,0
97880,set_tempo,200,1,0,,,,,,,,,,,,451399,,,,,,,
97920,note_on,120,0,1,,,,,,,,,,,,,,,0,,,62,0
97920,note_on,0,0,1,,,,,,,,,,,,,,,0,,,64,49
97920,note_on,0,0,1,,,,,,,,,,,,,,,0,,,66,0
97920,note_on,0,0,2,,,,,,,,,,,,,,,0,,,43,33
97920,set_tempo,40,1,0,,,,,,,,,,,,453172,,,,,,,
97920,control_change,120,0,2,,,,,,,,,,,,,,,0,64,0,,
97960,set_tempo,40,1,0,,,,,,,,,,,,451399,,,,,,,
97989,control_change,69,0,2,,,,,,,,,,,,,,,0,64,127,,
98040,note_on,120,0,1,,,,,,,,,,,,,,,0,,,62,40
98080,set_tempo,120,1,0,,,,,,,,,,,,453172,,,,,,,
98160,note_on,120,0,1,,,,,,,,,,,,,,,0,,,62,0
98160,note_on,171,0,2,,,,,,,,,,,,,,,0,,,43,0
98160,note_on,0,0,1,,,,,,,,,,,,,,,0,,,59,38
98200,set_tempo,120,1,0,,,,,,,,,,,,454959,,,,,,,
98280,note_on,0,0,1,,,,,,,,,,,,,,,0,,,62,36
98280,note_on,120,0,1,,,,,,,,,,,,,,,0,,,59,0
98320,set_tempo,120,1,0,,,,,,,,,,,,456725,,,,,,,
98400,note_on,120,0,1,,,,,,,,,,,,,,,0,,,62,0
98400,note_on,0,0,1,,,,,,,,,,,,,,,0,,,64,0
98400,set_tempo,80,1,0,,,,,,,,,,,,458540,,,,,,,
98400,note_on,0,0,1,,,,,,,,,,,,,,,0,,,66,45
98400,note_on,240,0,2,,,,,,,,,,,,,,,0,,,45,33
98440,set_tempo,40,1,0,,,,,,,,,,,,458015,,,,,,,
98440,control_change,40,0,2,,,,,,,,,,,,,,,0,64,0,,
98480,set_tempo,40,1,0,,,,,,,,,,,,459770,,,,,,,
98491,control_change,51,0,2,,,,,,,,,,,,,,,0,64,127,,
98520,set_tempo,40,1,0,,,,,,,,,,,,461538,,,,,,,
98520,note_on,120,0,1,,,,,,,,,,,,,,,0,,,61,33
98560,set_tempo,40,1,0,,,,,,,,,,,,465116,,,,,,,
98600,set_tempo,40,1,0,,,,,,,,,,,,466926,,,,,,,
98640,note_on,149,0,2,,,,,,,,,,,,,,,0,,,45,0
98640,note_on,120,0,1,,,,,,,,,,,,,,,0,,,61,0
98640,note_on,0,0,1,,,,,,,,,,,,,,,0,,,57,33
98640,set_tempo,40,1,0,,,,,,,,,,,,470588,,,,,,,
98680,set_tempo,40,1,0,,,,,,,,,,,,472441,,,,,,,
98720,set_tempo,40,1,0,,,,,,,,,,,,474308,,,,,,,
98760,note_on,120,0,1,,,,,,,,,,,,,,,0,,,57,0
98760,set_tempo,40,1,0,,,,,,,,,,,,478088,,,,,,,
98760,note_on,0,0,1,,,,,,,,,,,,,,,0,,,61,33
98800,set_tempo,40,1,0,,,,,,,,,,,,480000,,,,,,,
98840,set_tempo,40,1,0,,,,,,,,,,,,483871,,,,,,,
98880,set_tempo,40,1,0,,,,,,,,,,,,506586,,,,,,,
98880,note_on,120,0,1,,,,,,,,,,,,,,,0,,,61,0
98880,note_on,0,0,1,,,,,,,,,,,,,,,0,,,66,0
98880,control_change,240,0,2,,,,,,,,,,,,,,,0,64,0,,
98880,note_on,0,0,1,,,,,,,,,,,,,,,0,,,62,43
98931,control_change,51,0,2,,,,,,,,,,,,,,,0,64,127,,
99000,set_tempo,120,1,0,,,,,,,,,,,,468750,,,,,,,
99000,note_on,120,0,1,,,,,,,,,,,,,,,0,,,57,35
99120,note_on,120,0,1,,,,,,,,,,,,,,,0,,,57,0
99120,note_on,0,0,1,,,,,,,,,,,,,,,0,,,54,35
99120,note_on,189,0,2,,,,,,,,,,,,,,,0,,,50,33
99120,set_tempo,120,1,0,,,,,,,,,,,,466926,,,,,,,
99240,set_tempo,120,1,0,,,,,,,,,,,,465116,,,,,,,
99240,note_on,0,0,1,,,,,,,,,,,,,,,0,,,57,35
99240,note_on,120,0,1,,,,,,,,,,,,,,,0,,,54,0
99360,note_on,0,0,1,,,,,,,,,,,,,,,0,,,64,49
99360,note_on,240,0,2,,,,,,,,,,,,,,,0,,,50,0
99360,set_tempo,120,1,0,,,,,,,,,,,,463320,,,,,,,
99360,note_on,0,0,1,,,,,,,,,,,,,,,0,,,62,0
99360,note_on,120,0,1,,,,,,,,,,,,,,,0,,,57,0
99389,control_change,29,0,2,,,,,,,,,,,,,,,0,64,0,,
99446,control_change,57,0,2,,,,,,,,,,,,,,,0,64,127,,
99480,set_tempo,120,1,0,,,,,,,,,,,,461538,,,,,,,
99480,note_on,120,0,1,,,,,,,,,,,,,,,0,,,59,35
99600,note_on,0,0,1,,,,,,,,,,,,,,,0,,,55,35
99600,note_on,120,0,1,,,,,,,,,,,,,,,0,,,59,0
99600,note_on,154,0,2,,,,,,,,,,,,,,,0,,,43,33
99600,set_tempo,120,1,0,,,,,,,,,,,,459770,,,,,,,
99720,note_on,0,0,1,,,,,,,,,,,,,,,0,,,59,35
99720,note_on,120,0,1,,,,,,,,,,,,,,,0,,,55,0
99720,set_tempo,120,1,0,,,,,,,,,,,,458015,,,,,,,
99840,note_on,0,0,1,,,,,,,,,,,,,,,0,,,66,49
99840,note_on,240,0,2,,,,,,,,,,,,,,,0,,,43,0
99840,note_on,0,0,1,,,,,,,,,,,,,,,0,,,64,0
99840,note_on,120,0,1,,,,,,,,,,,,,,,0,,,59,0
99840,control_change,0,0,2,,,,,,,,,,,,,,,0,64,0,,
99840,set_tempo,120,1,0,,,,,,,,,,,,447761,,,,,,,
99896,control_change,56,0,2,,,,,,,,,,,,,,,0,64,127,,
99960,note_on,120,0,1,,,,,,,,,,,,,,,0,,,60,35
99980,set_tempo,140,1,0,,,,,,,,,,,,451399,,,,,,,
100080,note_on,0,0,1,,,,,,,,,,,,,,,0,,,57,36
100080,note_on,184,0,2,,,,,,,,,,,,,,,0,,,38,33
100080,note_on,120,0,1,,,,,,,,,,,,,,,0,,,60,0
100200,note_on,120,0,1,,,,,,,,,,,,,,,0,,,57,0
100200,note_on,0,0,1,,,,,,,,,,,,,,,0,,,60,36
100320,set_tempo,340,1,0,,,,,,,,,,,,458015,,,,,,,
100320,note_on,120,0,1,,,,,,,,,,,,,,,0,,,60,0
100320,note_on,0,0,1,,,,,,,,,,,,,,,0,,,66,0
100320,note_on,0,0,1,,,,,,,,,,,,,,,0,,,66,52
100320,note_on,240,0,2,,,,,,,,,,,,,,,0,,,38,0
100384,control_change,64,0,2,,,,,,,,,,,,,,,0,64,0,,
100426,control_change,42,0,2,,,,,,,,,,,,,,,0,64,127,,
100440,note_on,120,0,1,,,,,,,,,,,,,,,0,,,60,38
100560,note_on,120,0,1,,,,,,,,,,,,,,,0,,,60,0
100560,note_on,134,0,2,,,,,,,,,,,,,,,0,,,38,36
100560,note_on,0,0,1,,,,,,,,,,,,,,,0,,,57,38
100680,note_on,120,0,1,,,,,,,,,,,,,,,0,,,57,0
100680,note_on,0,0,1,,,,,,,,,,,,,,,0,,,60,39
100800,control_change,0,0,2,,,,,,,,,,,,,,,0,64,0,,
100800,set_tempo,480,1,0,,,,,,,,,,,,447761,,,,,,,
100800,note_on,120,0,1,,,,,,,,,,,,,,,0,,,60,0
100800,note_on,240,0,2,,,,,,,,,,,,,,,0,,,38,0
100800,note_on,0,0,1,,,,,,,,,,,,,,,0,,,66,0
100800,note_on,0,0,1,,,,,,,,,,,,,,,0,,,66,56
100840,control_change,40,0,2,,,,,,,,,,,,,,,0,64,127,,
100920,note_on,120,0,1,,,,,,,,,,,,,,,0,,,60,39
101040,note_on,120,0,1,,,,,,,,,,,,,,,0,,,60,0
101040,note_on,0,0,1,,,,,,,,,,,,,,,0,,,57,39
101040,note_on,200,0,2,,,,,,,,,,,,,,,0,,,31,36
101160,note_on,120,0,1,,,,,,,,,,,,,,,0,,,57,0
101160,note_on,0,0,1,,,,,,,,,,,,,,,0,,,60,38
101280,note_on,0,0,1,,,,,,,,,,,,,,,0,,,67,52
101280,set_tempo,480,1,0,,,,,,,,,,,,451128,,,,,,,
101280,note_on,0,0,1,,,,,,,,,,,,,,,0,,,66,0
101280,note_on,120,0,1,,,,,,,,,,,,,,,0,,,60,0
101280,note_on,240,0,2,,,,,,,,,,,,,,,0,,,31,0
101337,control_change,57,0,2,,,,,,,,,,,,,,,0,64,0,,
101377,control_change,40,0,2,,,,,,,,,,,,,,,0,64,127,,
101400,note_on,120,0,1,,,,,,,,,,,,,,,0,,,62,37
101520,note_on,120,0,1,,,,,,,,,,,,,,,0,,,62,0
101520,note_on,0,0,1,,,,,,,,,,,,,,,0,,,59,36
101520,note_on,143,0,2,,,,,,,,,,,,,,,0,,,31,34
101640,note_on,120,0,1,,,,,,,,,,,,,,,0,,,59,0
101640,note_on,0,0,1,,,,,,,,,,,,,,,0,,,62,35
101760,note_on,0,0,1,,,,,,,,,,,,,,,0,,,66,49
101760,note_on,0,0,1,,,,,,,,,,,,,,,0,,,67,0
101760,control_change,0,0,2,,,,,,,,,,,,,,,0,64,0,,
101760,note_on,240,0,2,,,,,,,,,,,,,,,0,,,31,0
101760,note_on,120,0,1,,,,,,,,,,,,,,,0,,,62,0
101829,control_change,69,0,2,,,,,,,,,,,,,,,0,64,127,,
101880,note_on,120,0,1,,,,,,,,,,,,,,,0,,,62,35
102000,note_on,120,0,1,,,,,,,,,,,,,,,0,,,62,0
102000,note_on,0,0,1,,,,,,,,,,,,,,,0,,,57,35
102000,note_on,171,0,2,,,,,,,,,,,,,,,0,,,33,33
102120,note_on,0,0,1,,,,,,,,,,,,,,,0,,,62,35
102120,note_on,120,0,1,,,,,,,,,,,,,,,0,,,57,0
102240,note_on,240,0,2,,,,,,,,,,,,,,,0,,,33,0
102240,note_on,0,0,1,,,,,,,,,,,,,,,0,,,64,49
102240,note_on,0,0,1,,,,,,,,,,,,,,,0,,,66,0
102240,note_on,120,0,1,,,,,,,,,,,,,,,0,,,62,0
102280,set_tempo,1000,1,0,,,,,,,,,,,,451399,,,,,,,
102303,control_change,63,0,2,,,,,,,,,,,,,,,0,64,0,,
102349,control_change,46,0,2,,,,,,,,,,,,,,,0,64,127,,
102360,note_on,120,0,1,,,,,,,,,,,,,,,0,,,61,35
102360,set_tempo,80,1,0,,,,,,,,,,,,453172,,,,,,,
102440,set_tempo,80,1,0,,,,,,,,,,,,454959,,,,,,,
102480,note_on,131,0,2,,,,,,,,,,,,,,,0,,,33,33
102480,set_tempo,40,1,0,,,,,,,,,,,,456725,,,,,,,
102480,note_on,0,0,1,,,,,,,,,,,,,,,0,,,57,35
102480,note_on,120,0,1,,,,,,,,,,,,,,,0,,,61,0
102560,set_tempo,80,1,0,,,,,,,,,,,,458540,,,,,,,
102600,note_on,0,0,1,,,,,,,,,,,,,,,0,,,61,35
102600,note_on,120,0,1,,,,,,,,,,,,,,,0,,,57,0
102640,set_tempo,80,1,0,,,,,,,,,,,,460370,,,,,,,
102680,set_tempo,40,1,0,,,,,,,,,,,,462214,,,,,,,
102720,note_on,120,0,1,,,,,,,,,,,,,,,0,,,61,0
102720,note_on,0,0,1,,,,,,,,,,,,,,,0,,,64,0
102720,note_on,0,0,1,,,,,,,,,,,,,,,0,,,66,47
102720,set_tempo,40,1,0,,,,,,,,,,,,506586,,,,,,,
102720,note_on,240,0,2,,,,,,,,,,,,,,,0,,,33,0
102720,control_change,0,0,2,,,,,,,,,,,,,,,0,64,0,,
102747,control_change,27,0,2,,,,,,,,,,,,,,,0,64,0,,
102771,control_change,24,0,2,,,,,,,,,,,,,,,0,64,127,,
102820,set_tempo,100,1,0,,,,,,,,,,,,462214,,,,,,,
102840,note_on,120,0,1,,,,,,,,,,,,,,,0,,,62,35
102960,note_on,120,0,1,,,,,,,,,,,,,,,0,,,62,0
102960,note_on,189,0,2,,,,,,,,,,,,,,,0,,,38,33
102960,note_on,0,0,1,,,,,,,,,,,,,,,0,,,60,35
102980,set_tempo,160,1,0,,,,,,,,,,,,460370,,,,,,,
103080,note_on,0,0,1,,,,,,,,,,,,,,,0,,,62,35
103080,note_on,120,0,1,,,,,,,,,,,,,,,0,,,60,0
103100,set_tempo,120,1,0,,,,,,,,,,,,458540,,,,,,,
103200,note_on,0,0,1,,,,,,,,,,,,,,,0,,,67,49
103200,note_on,0,0,1,,,,,,,,,,,,,,,0,,,66,0
103200,note_on,120,0,1,,,,,,,,,,,,,,,0,,,62,0
103200,note_on,240,0,2,,,,,,,,,,,,,,,0,,,38,0
103229,control_change,29,0,2,,,,,,,,,,,,,,,0,64,0,,
103260,set_tempo,160,1,0,,,,,,,,,,,,456725,,,,,,,
103286,control_change,57,0,2,,,,,,,,,,,,,,,0,64,127,,
103320,note_on,120,0,1,,,,,,,,,,,,,,,0,,,64,35
103380,set_tempo,120,1,0,,,,,,,,,,,,454959,,,,,,,
103440,note_on,120,0,1,,,,,,,,,,,,,,,0,,,64,0
103440,note_on,0,0,1,,,,,,,,,,,,,,,0,,,60,35
103440,note_on,154,0,2,,,,,,,,,,,,,,,0,,,50,33
103540,set_tempo,160,1,0,,,,,,,,,,,,453172,,,,,,,
103560,note_on,0,0,1,,,,,,,,,,,,,,,0,,,64,35
103560,note_on,120,0,1,,,,,,,,,,,,,,,0,,,60,0
103660,set_tempo,120,1,0,,,,,,,,,,,,451399,,,,,,,
103680,note_on,0,0,1,,,,,,,,,,,,,,,0,,,67,0
103680,note_on,120,0,1,,,,,,,,,,,,,,,0,,,64,0
103680,note_on,0,0,1,,,,,,,,,,,,,,,0,,,69,49
103680,note_on,240,0,2,,,,,,,,,,,,,,,0,,,50,0
103680,control_change,0,0,2,,,,,,,,,,,,,,,0,64,0,,
103736,control_change,56,0,2,,,,,,,,,,,,,,,0,64,127,,
103800,note_on,120,0,1,,,,,,,,,,,,,,,0,,,66,35
103820,set_tempo,160,1,0,,,,,,,,,,,,449640,,,,,,,
103920,note_on,184,0,2,,,,,,,,,,,,,,,0,,,50,33
103920,note_on,0,0,1,,,,,,,,,,,,,,,0,,,60,36
103920,note_on,120,0,1,,,,,,,,,,,,,,,0,,,66,0
103940,set_tempo,120,1,0,,,,,,,,,,,,447928,,,,,,,
104040,note_on,0,0,1,,,,,,,,,,,,,,,0,,,66,36
104040,note_on,120,0,1,,,,,,,,,,,,,,,0,,,60,0
104060,set_tempo,120,1,0,,,,,,,,,,,,446196,,,,,,,
104140,set_tempo,80,1,0,,,,,,,,,,,,453172,,,,,,,
104160,note_on,240,0,2,,,,,,,,,,,,,,,0,,,50,0
104160,note_on,0,0,1,,,,,,,,,,,,,,,0,,,69,52
104160,set_tempo,20,1,0,,,,,,,,,,,,460370,,,,,,,
104160,note_on,120,0,1,,,,,,,,,,,,,,,0,,,66,0
104160,note_on,0,0,1,,,,,,,,,,,,,,,0,,,69,0
104224,control_change,64,0,2,,,,,,,,,,,,,,,0,64,0,,
104266,control_change,42,0,2,,,,,,,,,,,,,,,0,64,127,,
104280,note_on,120,0,1,,,,,,,,,,,,,,,0,,,66,38
104400,note_on,120,0,1,,,,,,,,,,,,,,,0,,,66,0
104400,note_on,0,0,1,,,,,,,,,,,,,,,0,,,60,38
104400,note_on,134,0,2,,,,,,,,,,,,,,,0,,,50,36
104520,note_on,120,0,1,,,,,,,,,,,,,,,0,,,60,0
104520,note_on,0,0,1,,,,,,,,,,,,,,,0,,,66,39
104640,note_on,120,0,1,,,,,,,,,,,,,,,0,,,66,0
104640,note_on,240,0,2,,,,,,,,,,,,,,,0,,,50,0
104640,control_change,0,0,2,,,,,,,,,,,,,,,0,64,0,,
104640,note_on,0,0,1,,,,,,,,,,,,,,,0,,,69,0
104640,note_on,0,0,1,,,,,,,,,,,,,,,0,,,69,56
104640,set_tempo,480,1,0,,,,,,,,,,,,456725,,,,,,,
104680,control_change,40,0,2,,,,,,,,,,,,,,,0,64,127,,
104760,note_on,120,0,1,,,,,,,,,,,,,,,0,,,66,39
104880,note_on,120,0,1,,,,,,,,,,,,,,,0,,,66,0
104880,note_on,0,0,1,,,,,,,,,,,,,,,0,,,60,39
104880,note_on,200,0,2,,,,,,,,,,,,,,,0,,,43,36
105000,note_on,0,0,1,,,,,,,,,,,,,,,0,,,66,38
105000,note_on,120,0,1,,,,,,,,,,,,,,,0,,,60,0
105120,note_on,0,0,1,,,,,,,,,,,,,,,0,,,69,0
105120,note_on,0,0,1,,,,,,,,,,,,,,,0,,,71,52
105120,note_on,240,0,2,,,,,,,,,,,,,,,0,,,43,0
105120,note_on,120,0,1,,,,,,,,,,,,,,,0,,,66,0
105160,set_tempo,520,1,0,,,,,,,,,,,,453172,,,,,,,
105177,control_change,57,0,2,,,,,,,,,,,,,,,0,64,0,,
105217,control_change,40,0,2,,,,,,,,,,,,,,,0,64,127,,
105240,note_on,120,0,1,,,,,,,,,,,,,,,0,,,67,37
105360,note_on,143,0,2,,,,,,,,,,,,,,,0,,,43,34
105360,note_on,120,0,1,,,,,,,,,,,,,,,0,,,67,0
105360,note_on,0,0,1,,,,,,,,,,,,,,,0,,,59,36
105480,note_on,120,0,1,,,,,,,,,,,,,,,0,,,59,0
105480,note_on,0,0,1,,,,,,,,,,,,,,,0,,,67,35
105600,note_on,240,0,2,,,,,,,,,,,,,,,0,,,43,0
105600,control_change,0,0,2,,,,,,,,,,,,,,,0,64,0,,
105600,note_on,0,0,1,,,,,,,,,,,,,,,0,,,69,49
105600,note_on,0,0,1,,,,,,,,,,,,,,,0,,,71,0
105600,note_on,120,0,1,,,,,,,,,,,,,,,0,,,67,0
105669,control_change,69,0,2,,,,,,,,,,,,,,,0,64,127,,
105720,note_on,120,0,1,,,,,,,,,,,,,,,0,,,66,35
105840,note_on,0,0,1,,,,,,,,,,,,,,,0,,,62,35
105840,note_on,120,0,1,,,,,,,,,,,,,,,0,,,66,0
105840,note_on,171,0,2,,,,,,,,,,,,,,,0,,,45,33
105960,note_on,120,0,1,,,,,,,,,,,,,,,0,,,62,0
105960,note_on,0,0,1,,,,,,,,,,,,,,,0,,,66,35
106080,note_on,240,0,2,,,,,,,,,,,,,,,0,,,45,0
106080,note_on,120,0,1,,,,,,,,,,,,,,,0,,,66,0
106080,note_on,0,0,1,,,,,,,,,,,,,,,0,,,69,0
106080,note_on,0,0,1,,,,,,,,,,,,,,,0,,,69,49
106120,set_tempo,960,1,0,,,,,,,,,,,,451399,,,,,,,
106143,control_change,63,0,2,,,,,,,,,,,,,,,0,64,0,,
106189,control_change,46,0,2,,,,,,,,,,,,,,,0,64,127,,
106200,set_tempo,80,1,0,,,,,,,,,,,,453172,,,,,,,
106200,note_on,120,0,1,,,,,,,,,,,,,,,0,,,64,35
106280,set_tempo,80,1,0,,,,,,,,,,,,454959,,,,,,,
106320,note_on,120,0,1,,,,,,,,,,,,,,,0,,,64,0
106320,note_on,0,0,1,,,,,,,,,,,,,,,0,,,61,35
106320,set_tempo,40,1,0,,,,,,,,,,,,473522,,,,,,,
106320,note_on,131,0,2,,,,,,,,,,,,,,,0,,,45,33
106440,note_on,120,0,1,,,,,,,,,,,,,,,0,,,61,0
106440,note_on,0,0,1,,,,,,,,,,,,,,,0,,,64,35
106560,set_tempo,240,1,0,,,,,,,,,,,,506586,,,,,,,
106560,note_on,240,0,2,,,,,,,,,,,,,,,0,,,45,0
106560,note_on,0,0,1,,,,,,,,,,,,,,,0,,,69,42
106560,note_on,0,0,1,,,,,,,,,,,,,,,0,,,69,0
106560,note_on,120,0,1,,,,,,,,,,,,,,,0,,,64,0
106560,control_change,0,0,2,,,,,,,,,,,,,,,0,64,0,,
106560,note_on,0,0,2,,,,,,,,,,,,,,,0,,,50,29
106587,control_change,27,0,2,,,,,,,,,,,,,,,0,64,0,,
106611,control_change,24,0,2,,,,,,,,,,,,,,,0,64,127,,
106680,note_on,120,0,1,,,,,,,,,,,,,,,0,,,66,31
106680,set_tempo,120,1,0,,,,,,,,,,,,471587,,,,,,,
106720,set_tempo,40,1,0,,,,,,,,,,,,471587,,,,,,,
106800,note_on,0,0,1,,,,,,,,,,,,,,,0,,,62,31
106800,note_on,120,0,1,,,,,,,,,,,,,,,0,,,66,0
106920,note_on,0,0,1,,,,,,,,,,,,,,,0,,,66,31
106920,note_on,120,0,1,,,,,,,,,,,,,,,0,,,62,0
107000,set_tempo,280,1,0,,,,,,,,,,,,469667,,,,,,,
107040,note_on,0,0,1,,,,,,,,,,,,,,,0,,,74,39
107040,note_on,0,0,1,,,,,,,,,,,,,,,0,,,69,0
107040,set_tempo,40,1,0,,,,,,,,,,,,460370,,,,,,,
107040,note_on,120,0,1,,,,,,,,,,,,,,,0,,,66,0
107040,note_on,429,0,2,,,,,,,,,,,,,,,0,,,54,29
107069,control_change,29,0,2,,,,,,,,,,,,,,,0,64,0,,
107126,control_change,57,0,2,,,,,,,,,,,,,,,0,64,127,,
107160,note_on,120,0,1,,,,,,,,,,,,,,,0,,,69,31
107280,note_on,120,0,1,,,,,,,,,,,,,,,0,,,69,0
107280,note_on,0,0,1,,,,,,,,,,,,,,,0,,,62,31
107400,note_on,0,0,1,,,,,,,,,,,,,,,0,,,69,31
107400,note_on,120,0,1,,,,,,,,,,,,,,,0,,,62,0
107400,set_tempo,360,1,0,,,,,,,,,,,,458540,,,,,,,
107520,note_on,394,0,2,,,,,,,,,,,,,,,0,,,54,0
107520,note_on,0,0,2,,,,,,,,,,,,,,,0,,,57,29
107520,control_change,0,0,2,,,,,,,,,,,,,,,0,64,0,,
107520,note_on,120,0,1,,,,,,,,,,,,,,,0,,,69,0
107520,note_on,0,0,1,,,,,,,,,,,,,,,0,,,74,0
107520,note_on,0,0,1,,,,,,,,,,,,,,,0,,,73,44
107576,control_change,56,0,2,,,,,,,,,,,,,,,0,64,127,,
107640,note_on,120,0,1,,,,,,,,,,,,,,,0,,,69,31
107720,set_tempo,320,1,0,,,,,,,,,,,,456725,,,,,,,
107760,note_on,120,0,1,,,,,,,,,,,,,,,0,,,69,0
107760,note_on,0,0,1,,,,,,,,,,,,,,,0,,,64,32
107880,note_on,120,0,1,,,,,,,,,,,,,,,0,,,64,0
107880,note_on,0,0,1,,,,,,,,,,,,,,,0,,,69,32
108000,note_on,120,0,1,,,,,,,,,,,,,,,0,,,69,0
108000,note_on,0,0,1,,,,,,,,,,,,,,,0,,,73,0
108000,note_on,424,0,2,,,,,,,,,,,,,,,0,,,57,0
108000,note_on,0,0,1,,,,,,,,,,,,,,,0,,,76,40
108000,note_on,0,0,2,,,,,,,,,,,,,,,0,,,55,32
108000,set_tempo,280,1,0,,,,,,,,,,,,464037,,,,,,,
108064,control_change,64,0,2,,,,,,,,,,,,,,,0,64,0,,
108106,control_change,42,0,2,,,,,,,,,,,,,,,0,64,127,,
108120,note_on,120,0,1,,,,,,,,,,,,,,,0,,,69,34
108240,note_on,120,0,1,,,,,,,,,,,,,,,0,,,69,0
108240,note_on,0,0,1,,,,,,,,,,,,,,,0,,,64,33
108360,note_on,0,0,1,,,,,,,,,,,,,,,0,,,69,33
108360,note_on,120,0,1,,,,,,,,,,,,,,,0,,,64,0
108400,set_tempo,400,1,0,,,,,,,,,,,,453172,,,,,,,
108480,note_on,120,0,1,,,,,,,,,,,,,,,0,,,69,0
108480,note_on,0,0,1,,,,,,,,,,,,,,,0,,,69,39
108480,note_on,0,0,1,,,,,,,,,,,,,,,0,,,76,0
108480,set_tempo,80,1,0,,,,,,,,,,,,456725,,,,,,,
108480,note_on,374,0,2,,,,,,,,,,,,,,,0,,,55,0
108480,note_on,0,0,2,,,,,,,,,,,,,,,0,,,54,32
108480,control_change,0,0,2,,,,,,,,,,,,,,,0,64,0,,
108520,control_change,40,0,2,,,,,,,,,,,,,,,0,64,127,,
108600,note_on,120,0,1,,,,,,,,,,,,,,,0,,,66,32
108720,note_on,0,0,1,,,,,,,,,,,,,,,0,,,62,32
108720,note_on,120,0,1,,,,,,,,,,,,,,,0,,,66,0
108840,note_on,0,0,1,,,,,,,,,,,,,,,0,,,66,32
108840,note_on,120,0,1,,,,,,,,,,,,,,,0,,,62,0
108960,note_on,120,0,1,,,,,,,,,,,,,,,0,,,66,0
108960,note_on,0,0,1,,,,,,,,,,,,,,,0,,,69,0
108960,note_on,0,0,1,,,,,,,,,,,,,,,0,,,71,39
108960,note_on,440,0,2,,,,,,,,,,,,,,,0,,,54,0
108960,set_tempo,480,1,0,,,,,,,,,,,,464037,,,,,,,
108960,note_on,0,0,2,,,,,,,,,,,,,,,0,,,43,30
108960,note_on,0,0,2,,,,,,,,,,,,,,,0,,,50,30
108960,note_on,0,0,2,,,,,,,,,,,,,,,0,,,50,0
109017,control_change,57,0,2,,,,,,,,,,,,,,,0,64,0,,
109057,control_change,40,0,2,,,,,,,,,,,,,,,0,64,127,,
109080,note_on,120,0,1,,,,,,,,,,,,,,,0,,,67,31
109200,note_on,0,0,1,,,,,,,,,,,,,,,0,,,62,31
109200,note_on,120,0,1,,,,,,,,,,,,,,,0,,,67,0
109320,note_on,0,0,1,,,,,,,,,,,,,,,0,,,67,31
109320,note_on,120,0,1,,,,,,,,,,,,,,,0,,,62,0
109360,set_tempo,400,1,0,,,,,,,,,,,,456725,,,,,,,
109440,note_on,0,0,1,,,,,,,,,,,,,,,0,,,71,0
109440,note_on,0,0,1,,,,,,,,,,,,,,,0,,,69,40
109440,note_on,120,0,1,,,,,,,,,,,,,,,0,,,67,0
109440,note_on,0,0,2,,,,,,,,,,,,,,,0,,,49,29
109440,note_on,0,0,2,,,,,,,,,,,,,,,0,,,45,29
109440,control_change,0,0,2,,,,,,,,,,,,,,,0,64,0,,
109440,note_on,383,0,2,,,,,,,,,,,,,,,0,,,50,0
109440,note_on,0,0,2,,,,,,,,,,,,,,,0,,,43,0
109480,set_tempo,120,1,0,,,,,,,,,,,,458540,,,,,,,
109509,control_change,69,0,2,,,,,,,,,,,,,,,0,64,127,,
109560,note_on,120,0,1,,,,,,,,,,,,,,,0,,,67,31
109680,note_on,120,0,1,,,,,,,,,,,,,,,0,,,67,0
109680,note_on,0,0,1,,,,,,,,,,,,,,,0,,,64,31
109800,note_on,0,0,1,,,,,,,,,,,,,,,0,,,67,31
109800,note_on,120,0,1,,,,,,,,,,,,,,,0,,,64,0
109920,note_on,0,0,1,,,,,,,,,,,,,,,0,,,69,38
109920,note_on,0,0,1,,,,,,,,,,,,,,,0,,,69,0
109920,note_on,120,0,1,,,,,,,,,,,,,,,0,,,67,0
109920,note_on,0,0,2,,,,,,,,,,,,,,,0,,,52,29
109920,note_on,411,0,2,,,,,,,,,,,,,,,0,,,49,0
109960,set_tempo,480,1,0,,,,,,,,,,,,456725,,,,,,,
109983,control_change,63,0,2,,,,,,,,,,,,,,,0,64,0,,
110029,control_change,46,0,2,,,,,,,,,,,,,,,0,64,127,,
110040,note_on,120,0,1,,,,,,,,,,,,,,,0,,,67,31
110080,set_tempo,120,1,0,,,,,,,,,,,,458540,,,,,,,
110160,note_on,120,0,1,,,,,,,,,,,,,,,0,,,67,0
110160,note_on,0,0,1,,,,,,,,,,,,,,,0,,,61,31
110200,set_tempo,120,1,0,,,,,,,,,,,,460370,,,,,,,
110280,note_on,120,0,1,,,,,,,,,,,,,,,0,,,61,0
110280,note_on,0,0,1,,,,,,,,,,,,,,,0,,,67,31
110320,set_tempo,120,1,0,,,,,,,,,,,,462214,,,,,,,
110400,control_change,0,0,2,,,,,,,,,,,,,,,0,64,0,,
110400,note_on,0,0,2,,,,,,,,,,,,,,,0,,,45,0
110400,note_on,371,0,2,,,,,,,,,,,,,,,0,,,52,0
110400,set_tempo,80,1,0,,,,,,,,,,,,506586,,,,,,,
110400,note_on,120,0,1,,,,,,,,,,,,,,,0,,,67,0
110400,note_on,0,0,1,,,,,,,,,,,,,,,0,,,69,0
110400,note_on,0,0,1,,,,,,,,,,,,,,,0,,,69,42
110400,note_on,0,0,2,,,,,,,,,,,,,,,0,,,50,29
110427,control_change,27,0,2,,,,,,,,,,,,,,,0,64,0,,
110451,control_change,24,0,2,,,,,,,,,,,,,,,0,64,127,,
110520,note_on,120,0,1,,,,,,,,,,,,,,,0,,,66,31
110520,set_tempo,120,1,0,,,,,,,,,,,,471587,,,,,,,
110560,set_tempo,40,1,0,,,,,,,,,,,,471587,,,,,,,
110640,note_on,120,0,1,,,,,,,,,,,,,,,0,,,66,0
110640,note_on,0,0,1,,,,,,,,,,,,,,,0,,,62,31
110760,note_on,120,0,1,,,,,,,,,,,,,,,0,,,62,0
110760,note_on,0,0,1,,,,,,,,,,,,,,,0,,,66,31
110840,set_tempo,280,1,0,,,,,,,,,,,,454959,,,,,,,
110880,note_on,429,0,2,,,,,,,,,,,,,,,0,,,54,29
110880,note_on,120,0,1,,,,,,,,,,,,,,,0,,,66,0
110880,note_on,0,0,1,,,,,,,,,,,,,,,0,,,69,0
110880,note_on,0,0,1,,,,,,,,,,,,,,,0,,,74,39
110909,control_change,29,0,2,,,,,,,,,,,,,,,0,64,0,,
110966,control_change,57,0,2,,,,,,,,,,,,,,,0,64,127,,
111000,note_on,120,0,1,,,,,,,,,,,,,,,0,,,69,31
111120,note_on,0,0,1,,,,,,,,,,,,,,,0,,,62,31
111120,note_on,120,0,1,,,,,,,,,,,,,,,0,,,69,0
111240,note_on,0,0,1,,,,,,,,,,,,,,,0,,,69,31
111240,note_on,120,0,1,,,,,,,,,,,,,,,0,,,62,0
111360,note_on,0,0,1,,,,,,,,,,,,,,,0,,,74,0
111360,note_on,0,0,1,,,,,,,,,,,,,,,0,,,73,44
111360,note_on,394,0,2,,,,,,,,,,,,,,,0,,,54,0
111360,note_on,0,0,2,,,,,,,,,,,,,,,0,,,57,29
111360,note_on,120,0,1,,,,,,,,,,,,,,,0,,,69,0
111360,control_change,0,0,2,,,,,,,,,,,,,,,0,64,0,,
111416,control_change,56,0,2,,,,,,,,,,,,,,,0,64,127,,
111480,note_on,120,0,1,,,,,,,,,,,,,,,0,,,69,31
111520,set_tempo,680,1,0,,,,,,,,,,,,453172,,,,,,,
111600,note_on,120,0,1,,,,,,,,,,,,,,,0,,,69,0
111600,note_on,184,0,2,,,,,,,,,,,,,,,0,,,57,0
111600,note_on,0,0,2,,,,,,,,,,,,,,,0,,,58,26
111600,note_on,0,0,1,,,,,,,,,,,,,,,0,,,64,32
111720,note_on,120,0,1,,,,,,,,,,,,,,,0,,,64,0
111720,note_on,0,0,1,,,,,,,,,,,,,,,0,,,69,32
111840,note_on,0,0,1,,,,,,,,,,,,,,,0,,,73,0
111840,note_on,0,0,1,,,,,,,,,,,,,,,0,,,76,40
111840,set_tempo,320,1,0,,,,,,,,,,,,458540,,,,,,,
111840,note_on,240,0,2,,,,,,,,,,,,,,,0,,,58,0
111840,note_on,0,0,2,,,,,,,,,,,,,,,0,,,57,29
111840,note_on,120,0,1,,,,,,,,,,,,,,,0,,,69,0
111904,control_change,64,0,2,,,,,,,,,,,,,,,0,64,0,,
111946,control_change,42,0,2,,,,,,,,,,,,,,,0,64,127,,
111960,note_on,120,0,1,,,,,,,,,,,,,,,0,,,69,34
112080,note_on,0,0,2,,,,,,,,,,,,,,,0,,,55,27
112080,note_on,134,0,2,,,,,,,,,,,,,,,0,,,57,0
112080,note_on,120,0,1,,,,,,,,,,,,,,,0,,,69,0
112080,note_on,0,0,1,,,,,,,,,,,,,,,0,,,64,33
112200,note_on,0,0,1,,,,,,,,,,,,,,,0,,,69,33
112200,set_tempo,360,1,0,,,,,,,,,,,,451399,,,,,,,
112200,note_on,120,0,1,,,,,,,,,,,,,,,0,,,64,0
112320,note_on,0,0,2,,,,,,,,,,,,,,,0,,,54,32
112320,set_tempo,120,1,0,,,,,,,,,,,,464037,,,,,,,
112320,control_change,0,0,2,,,,,,,,,,,,,,,0,64,0,,
112320,note_on,120,0,1,,,,,,,,,,,,,,,0,,,69,0
112320,note_on,0,0,1,,,,,,,,,,,,,,,0,,,76,0
112320,note_on,0,0,1,,,,,,,,,,,,,,,0,,,69,40
112320,note_on,240,0,2,,,,,,,,,,,,,,,0,,,55,0
112360,control_change,40,0,2,,,,,,,,,,,,,,,0,64,127,,
112440,note_on,120,0,1,,,,,,,,,,,,,,,0,,,66,32
112560,note_on,120,0,1,,,,,,,,,,,,,,,0,,,66,0
112560,note_on,0,0,1,,,,,,,,,,,,,,,0,,,62,32
112680,note_on,120,0,1,,,,,,,,,,,,,,,0,,,62,0
112680,note_on,0,0,1,,,,,,,,,,,,,,,0,,,66,32
112800,note_on,0,0,2,,,,,,,,,,,,,,,0,,,50,30
112800,note_on,440,0,2,,,,,,,,,,,,,,,0,,,54,0
112800,set_tempo,480,1,0,,,,,,,,,,,,461538,,,,,,,
112800,note_on,0,0,1,,,,,,,,,,,,,,,0,,,69,0
112800,note_on,0,0,2,,,,,,,,,,,,,,,0,,,50,0
112800,note_on,120,0,1,,,,,,,,,,,,,,,0,,,66,0
112800,note_on,0,0,1,,,,,,,,,,,,,,,0,,,70,39
112800,note_on,0,0,2,,,,,,,,,,,,,,,0,,,43,30
112857,control_change,57,0,2,,,,,,,,,,,,,,,0,64,0,,
112897,control_change,40,0,2,,,,,,,,,,,,,,,0,64,127,,
112920,note_on,120,0,1,,,,,,,,,,,,,,,0,,,67,31
113040,note_on,0,0,1,,,,,,,,,,,,,,,0,,,62,31
113040,note_on,120,0,1,,,,,,,,,,,,,,,0,,,67,0
113160,note_on,0,0,1,,,,,,,,,,,,,,,0,,,67,31
113160,note_on,120,0,1,,,,,,,,,,,,,,,0,,,62,0
113280,note_on,383,0,2,,,,,,,,,,,,,,,0,,,50,0
113280,note_on,0,0,2,,,,,,,,,,,,,,,0,,,43,0
113280,note_on,0,0,2,,,,,,,,,,,,,,,0,,,49,29
113280,note_on,0,0,2,,,,,,,,,,,,,,,0,,,45,29
113280,control_change,0,0,2,,,,,,,,,,,,,,,0,64,0,,
113280,note_on,0,0,1,,,,,,,,,,,,,,,0,,,69,39
113280,note_on,120,0,1,,,,,,,,,,,,,,,0,,,67,0
113280,note_on,0,0,1,,,,,,,,,,,,,,,0,,,70,0
113320,set_tempo,520,1,0,,,,,,,,,,,,458540,,,,,,,
113349,control_change,69,0,2,,,,,,,,,,,,,,,0,64,127,,
113400,note_on,120,0,1,,,,,,,,,,,,,,,0,,,67,31
113520,note_on,0,0,1,,,,,,,,,,,,,,,0,,,64,31
113520,note_on,120,0,1,,,,,,,,,,,,,,,0,,,67,0
113640,note_on,0,0,1,,,,,,,,,,,,,,,0,,,67,31
113640,note_on,120,0,1,,,,,,,,,,,,,,,0,,,64,0
113760,note_on,0,0,1,,,,,,,,,,,,,,,0,,,69,0
113760,note_on,0,0,1,,,,,,,,,,,,,,,0,,,69,38
113760,note_on,120,0,1,,,,,,,,,,,,,,,0,,,67,0
113760,note_on,411,0,2,,,,,,,,,,,,,,,0,,,49,0
113760,note_on,0,0,2,,,,,,,,,,,,,,,0,,,52,29
113800,set_tempo,480,1,0,,,,,,,,,,,,456725,,,,,,,
113823,control_change,63,0,2,,,,,,,,,,,,,,,0,64,0,,
113869,control_change,46,0,2,,,,,,,,,,,,,,,0,64,127,,
113880,note_on,120,0,1,,,,,,,,,,,,,,,0,,,67,31
113920,set_tempo,120,1,0,,,,,,,,,,,,458540,,,,,,,
114000,note_on,120,0,1,,,,,,,,,,,,,,,0,,,67,0
114000,note_on,0,0,1,,,,,,,,,,,,,,,0,,,61,31
114040,set_tempo,120,1,0,,,,,,,,,,,,460370,,,,,,,
114120,note_on,0,0,1,,,,,,,,,,,,,,,0,,,67,31
114120,note_on,120,0,1,,,,,,,,,,,,,,,0,,,61,0
114160,set_tempo,120,1,0,,,,,,,,,,,,462214,,,,,,,
114240,note_on,0,0,1,,,,,,,,,,,,,,,0,,,69,0
114240,note_on,0,0,1,,,,,,,,,,,,,,,0,,,69,44
114240,set_tempo,80,1,0,,,,,,,,,,,,464037,,,,,,,
114240,note_on,0,0,2,,,,,,,,,,,,,,,0,,,45,0
114240,note_on,0,0,2,,,,,,,,,,,,,,,0,,,50,32
114240,note_on,371,0,2,,,,,,,,,,,,,,,0,,,52,0
114240,note_on,120,0,1,,,,,,,,,,,,,,,0,,,67,0
114240,control_change,0,0,2,,,,,,,,,,,,,,,0,64,0,,
114280,control_change,40,0,2,,,,,,,,,,,,,,,0,64,127,,
114360,note_on,120,0,1,,,,,,,,,,,,,,,0,,,66,31
114480,note_on,120,0,1,,,,,,,,,,,,,,,0,,,66,0
114480,note_on,0,0,1,,,,,,,,,,,,,,,0,,,62,31
114600,note_on,0,0,1,,,,,,,,,,,,,,,0,,,66,31
114600,note_on,120,0,1,,,,,,,,,,,,,,,0,,,62,0
114720,note_on,0,0,1,,,,,,,,,,,,,,,0,,,69,0
114720,note_on,120,0,1,,,,,,,,,,,,,,,0,,,66,0
114720,note_on,440,0,2,,,,,,,,,,,,,,,0,,,43,28
114720,note_on,0,0,1,,,,,,,,,,,,,,,0,,,70,37
114720,set_tempo,480,1,0,,,,,,,,,,,,463320,,,,,,,
114777,control_change,57,0,2,,,,,,,,,,,,,,,0,64,0,,
114817,control_change,40,0,2,,,,,,,,,,,,,,,0,64,127,,
114840,note_on,120,0,1,,,,,,,,,,,,,,,0,,,67,29
114960,note_on,0,0,1,,,,,,,,,,,,,,,0,,,62,28
114960,note_on,120,0,1,,,,,,,,,,,,,,,0,,,67,0
115080,note_on,0,0,1,,,,,,,,,,,,,,,0,,,67,28
115080,note_on,120,0,1,,,,,,,,,,,,,,,0,,,62,0
115200,note_on,0,0,1,,,,,,,,,,,,,,,0,,,69,36
115200,note_on,0,0,1,,,,,,,,,,,,,,,0,,,70,0
115200,note_on,120,0,1,,,,,,,,,,,,,,,0,,,67,0
115200,note_on,0,0,2,,,,,,,,,,,,,,,0,,,50,0
115200,control_change,0,0,2,,,,,,,,,,,,,,,0,64,0,,
115200,note_on,0,0,2,,,,,,,,,,,,,,,0,,,45,26
115200,note_on,383,0,2,,,,,,,,,,,,,,,0,,,43,0
115200,note_on,0,0,2,,,,,,,,,,,,,,,0,,,49,26
115240,set_tempo,520,1,0,,,,,,,,,,,,458540,,,,,,,
115269,control_change,69,0,2,,,,,,,,,,,,,,,0,64,127,,
115320,note_on,120,0,1,,,,,,,,,,,,,,,0,,,67,28
115440,note_on,120,0,1,,,,,,,,,,,,,,,0,,,67,0
115440,note_on,0,0,1,,,,,,,,,,,,,,,0,,,64,28
115560,note_on,120,0,1,,,,,,,,,,,,,,,0,,,64,0
115560,note_on,0,0,1,,,,,,,,,,,,,,,0,,,67,28
115680,note_on,0,0,1,,,,,,,,,,,,,,,0,,,69,0
115680,note_on,0,0,1,,,,,,,,,,,,,,,0,,,69,34
115680,note_on,411,0,2,,,,,,,,,,,,,,,0,,,49,0
115680,note_on,0,0,2,,,,,,,,,,,,,,,0,,,52,26
115680,note_on,120,0,1,,,,,,,,,,,,,,,0,,,67,0
115720,set_tempo,480,1,0,,,,,,,,,,,,456725,,,,,,,
115743,control_change,63,0,2,,,,,,,,,,,,,,,0,64,0,,
115789,control_change,46,0,2,,,,,,,,,,,,,,,0,64,127,,
115800,note_on,120,0,1,,,,,,,,,,,,,,,0,,,67,28
115840,set_tempo,120,1,0,,,,,,,,,,,,458540,,,,,,,
115920,note_on,120,0,1,,,,,,,,,,,,,,,0,,,67,0
115920,note_on,0,0,1,,,,,,,,,,,,,,,0,,,61,28
115928,set_tempo,88,1,0,,,,,,,,,,,,460370,,,,,,,
115968,set_tempo,40,1,0,,,,,,,,,,,,462214,,,,,,,
116008,set_tempo,40,1,0,,,,,,,,,,,,464037,,,,,,,
116040,note_on,0,0,1,,,,,,,,,,,,,,,0,,,67,28
116040,note_on,120,0,1,,,,,,,,,,,,,,,0,,,61,0
116048,set_tempo,40,1,0,,,,,,,,,,,,465911,,,,,,,
116088,set_tempo,40,1,0,,,,,,,,,,,,469667,,,,,,,
116128,set_tempo,40,1,0,,,,,,,,,,,,467800,,,,,,,
116160,note_on,0,0,1,,,,,,,,,,,,,,,0,,,69,0
116160,note_on,371,0,2,,,,,,,,,,,,,,,0,,,52,0
116160,note_on,120,0,1,,,,,,,,,,,,,,,0,,,67,0
116160,note_on,0,0,1,,,,,,,,,,,,,,,0,,,69,36
116160,control_change,0,0,2,,,,,,,,,,,,,,,0,64,0,,
116160,note_on,0,0,2,,,,,,,,,,,,,,,0,,,45,0
116160,note_on,0,0,2,,,,,,,,,,,,,,,0,,,38,26
116208,set_tempo,80,1,0,,,,,,,,,,,,465911,,,,,,,
116229,control_change,69,0,2,,,,,,,,,,,,,,,0,64,127,,
116248,set_tempo,40,1,0,,,,,,,,,,,,464037,,,,,,,
116280,note_on,120,0,1,,,,,,,,,,,,,,,0,,,65,28
116328,set_tempo,80,1,0,,,,,,,,,,,,462214,,,,,,,
116368,set_tempo,40,1,0,,,,,,,,,,,,460370,,,,,,,
116400,note_on,120,0,1,,,,,,,,,,,,,,,0,,,65,0
116400,note_on,0,0,1,,,,,,,,,,,,,,,0,,,62,28
116448,set_tempo,80,1,0,,,,,,,,,,,,458540,,,,,,,
116488,set_tempo,40,1,0,,,,,,,,,,,,456725,,,,,,,
116520,note_on,0,0,1,,,,,,,,,,,,,,,0,,,65,28
116520,note_on,120,0,1,,,,,,,,,,,,,,,0,,,62,0
116640,note_on,120,0,1,,,,,,,,,,,,,,,0,,,65,0
116640,note_on,411,0,2,,,,,,,,,,,,,,,0,,,38,0
116640,note_on,0,0,2,,,,,,,,,,,,,,,0,,,41,26
116640,note_on,0,0,1,,,,,,,,,,,,,,,0,,,69,34
116640,note_on,0,0,1,,,,,,,,,,,,,,,0,,,69,0
116680,set_tempo,192,1,0,,,,,,,,,,,,456725,,,,,,,
116703,control_change,63,0,2,,,,,,,,,,,,,,,0,64,0,,
116749,control_change,46,0,2,,,,,,,,,,,,,,,0,64,127,,
116760,note_on,120,0,1,,,,,,,,,,,,,,,0,,,65,28
116800,set_tempo,120,1,0,,,,,,,,,,,,458540,,,,,,,
116880,note_on,120,0,1,,,,,,,,,,,,,,,0,,,65,0
116880,note_on,0,0,1,,,,,,,,,,,,,,,0,,,60,28
117000,note_on,120,0,1,,,,,,,,,,,,,,,0,,,60,0
117000,note_on,0,0,1,,,,,,,,,,,,,,,0,,,65,28
117120,note_on,120,0,1,,,,,,,,,,,,,,,0,,,65,0
117120,note_on,0,0,1,,,,,,,,,,,,,,,0,,,69,0
117120,note_on,0,0,1,,,,,,,,,,,,,,,0,,,69,36
117120,note_on,371,0,2,,,,,,,,,,,,,,,0,,,41,0
117120,note_on,0,0,2,,,,,,,,,,,,,,,0,,,45,26
117120,set_tempo,320,1,0,,,,,,,,,,,,449438,,,,,,,
117120,control_change,0,0,2,,,,,,,,,,,,,,,0,64,0,,
117189,control_change,69,0,2,,,,,,,,,,,,,,,0,64,127,,
117240,note_on,120,0,1,,,,,,,,,,,,,,,0,,,64,28
117360,note_on,120,0,1,,,,,,,,,,,,,,,0,,,64,0
117360,note_on,0,0,1,,,,,,,,,,,,,,,0,,,60,28
117480,note_on,0,0,1,,,,,,,,,,,,,,,0,,,64,28
117480,note_on,120,0,1,,,,,,,,,,,,,,,0,,,60,0
117600,note_on,0,0,1,,,,,,,,,,,,,,,0,,,69,0
117600,note_on,0,0,1,,,,,,,,,,,,,,,0,,,67,34
117600,note_on,0,0,2,,,,,,,,,,,,,,,0,,,48,26
117600,note_on,411,0,2,,,,,,,,,,,,,,,0,,,45,0
117600,note_on,120,0,1,,,,,,,,,,,,,,,0,,,64,0
117640,set_tempo,520,1,0,,,,,,,,,,,,456725,,,,,,,
117663,control_change,63,0,2,,,,,,,,,,,,,,,0,64,0,,
117709,control_change,46,0,2,,,,,,,,,,,,,,,0,64,127,,
117720,note_on,120,0,1,,,,,,,,,,,,,,,0,,,64,28
117760,set_tempo,120,1,0,,,,,,,,,,,,458540,,,,,,,
117840,note_on,0,0,1,,,,,,,,,,,,,,,0,,,60,28
117840,note_on,120,0,1,,,,,,,,,,,,,,,0,,,64,0
117880,set_tempo,120,1,0,,,,,,,,,,,,460370,,,,,,,
117960,note_on,120,0,1,,,,,,,,,,,,,,,0,,,60,0
117960,note_on,0,0,1,,,,,,,,,,,,,,,0,,,64,28
118000,set_tempo,120,1,0,,,,,,,,,,,,462214,,,,,,,
118080,note_on,0,0,2,,,,,,,,,,,,,,,0,,,36,26
118080,control_change,0,0,2,,,,,,,,,,,,,,,0,64,0,,
118080,set_tempo,80,1,0,,,,,,,,,,,,461538,,,,,,,
118080,note_on,0,0,1,,,,,,,,,,,,,,,0,,,67,0
118080,note_on,120,0,1,,,,,,,,,,,,,,,0,,,64,0
118080,note_on,371,0,2,,,,,,,,,,,,,,,0,,,48,0
118080,note_on,0,0,1,,,,,,,,,,,,,,,0,,,67,36
118149,control_change,69,0,2,,,,,,,,,,,,,,,0,64,127,,
118160,set_tempo,80,1,0,,,,,,,,,,,,459770,,,,,,,
118200,note_on,120,0,1,,,,,,,,,,,,,,,0,,,63,28
118240,set_tempo,80,1,0,,,,,,,,,,,,458015,,,,,,,
118280,set_tempo,40,1,0,,,,,,,,,,,,456274,,,,,,,
118320,note_on,0,0,1,,,,,,,,,,,,,,,0,,,60,28
118320,note_on,120,0,1,,,,,,,,,,,,,,,0,,,63,0
118360,set_tempo,80,1,0,,,,,,,,,,,,454545,,,,,,,
118400,set_tempo,40,1,0,,,,,,,,,,,,452830,,,,,,,
118440,note_on,0,0,1,,,,,,,,,,,,,,,0,,,63,28
118440,note_on,120,0,1,,,,,,,,,,,,,,,0,,,60,0
118480,set_tempo,80,1,0,,,,,,,,,,,,451128,,,,,,,
118520,set_tempo,40,1,0,,,,,,,,,,,,449438,,,,,,,
118560,note_on,411,0,2,,,,,,,,,,,,,,,0,,,36,0
118560,note_on,0,0,1,,,,,,,,,,,,,,,0,,,67,34
118560,note_on,0,0,1,,,,,,,,,,,,,,,0,,,67,0
118560,note_on,120,0,1,,,,,,,,,,,,,,,0,,,63,0
118560,note_on,0,0,2,,,,,,,,,,,,,,,0,,,39,26
118600,set_tempo,80,1,0,,,,,,,,,,,,456725,,,,,,,
118623,control_change,63,0,2,,,,,,,,,,,,,,,0,64,0,,
118669,control_change,46,0,2,,,,,,,,,,,,,,,0,64,127,,
118680,note_on,120,0,1,,,,,,,,,,,,,,,0,,,63,28
118720,set_tempo,120,1,0,,,,,,,,,,,,458540,,,,,,,
118800,note_on,120,0,1,,,,,,,,,,,,,,,0,,,63,0
118800,note_on,0,0,1,,,,,,,,,,,,,,,0,,,58,28
118840,set_tempo,120,1,0,,,,,,,,,,,,460370,,,,,,,
118920,note_on,120,0,1,,,,,,,,,,,,,,,0,,,58,0
118920,note_on,0,0,1,,,,,,,,,,,,,,,0,,,63,28
118960,set_tempo,120,1,0,,,,,,,,,,,,462214,,,,,,,
119040,set_tempo,80,1,0,,,,,,,,,,,,458540,,,,,,,
119040,note_on,371,0,2,,,,,,,,,,,,,,,0,,,39,0
119040,note_on,0,0,2,,,,,,,,,,,,,,,0,,,43,26
119040,control_change,0,0,2,,,,,,,,,,,,,,,0,64,0,,
119040,note_on,120,0,1,,,,,,,,,,,,,,,0,,,63,0
119040,note_on,0,0,1,,,,,,,,,,,,,,,0,,,67,0
119040,note_on,0,0,1,,,,,,,,,,,,,,,0,,,67,36
119080,set_tempo,40,1,0,,,,,,,,,,,,458540,,,,,,,
119109,control_change,69,0,2,,,,,,,,,,,,,,,0,64,127,,
119160,note_on,120,0,1,,,,,,,,,,,,,,,0,,,62,28
119280,note_on,120,0,1,,,,,,,,,,,,,,,0,,,62,0
119280,note_on,0,0,1,,,,,,,,,,,,,,,0,,,58,28
119400,note_on,120,0,1,,,,,,,,,,,,,,,0,,,58,0
119400,note_on,0,0,1,,,,,,,,,,,,,,,0,,,62,28
119520,note_on,411,0,2,,,,,,,,,,,,,,,0,,,43,0
119520,note_on,120,0,1,,,,,,,,,,,,,,,0,,,62,0
119520,note_on,0,0,1,,,,,,,,,,,,,,,0,,,67,0
119520,note_on,0,0,1,,,,,,,,,,,,,,,0,,,65,34
119520,note_on,0,0,2,,,,,,,,,,,,,,,0,,,46,26
119560,set_tempo,480,1,0,,,,,,,,,,,,456725,,,,,,,
119583,control_change,63,0,2,,,,,,,,,,,,,,,0,64,0,,
119629,control_change,46,0,2,,,,,,,,,,,,,,,0,64,127,,
119640,note_on,120,0,1,,,,,,,,,,,,,,,0,,,62,28
119680,set_tempo,120,1,0,,,,,,,,,,,,458540,,,,,,,
119760,note_on,0,0,1,,,,,,,,,,,,,,,0,,,58,28
119760,note_on,120,0,1,,,,,,,,,,,,,,,0,,,62,0
119800,set_tempo,120,1,0,,,,,,,,,,,,460370,,,,,,,
119880,note_on,120,0,1,,,,,,,,,,,,,,,0,,,58,0
119880,note_on,0,0,1,,,,,,,,,,,,,,,0,,,62,28
120000,note_on,0,0,2,,,,,,,,,,,,,,,0,,,34,29
120000,control_change,0,0,2,,,,,,,,,,,,,,,0,64,0,,
120000,note_on,0,0,1,,,,,,,,,,,,,,,0,,,65,42
120000,note_on,0,0,1,,,,,,,,,,,,,,,0,,,65,0
120000,note_on,120,0,1,,,,,,,,,,,,,,,0,,,62,0
120000,note_on,371,0,2,,,,,,,,,,,,,,,0,,,46,0
120048,set_tempo,248,1,0,,,,,,,,,,,,465911,,,,,,,
120069,control_change,69,0,2,,,,,,,,,,,,,,,0,64,127,,
120088,set_tempo,40,1,0,,,,,,,,,,,,464037,,,,,,,
120120,note_on,120,0,1,,,,,,,,,,,,,,,0,,,62,32
120168,set_tempo,80,1,0,,,,,,,,,,,,462214,,,,,,,
120208,set_tempo,40,1,0,,,,,,,,,,,,460370,,,,,,,
120240,note_on,120,0,1,,,,,,,,,,,,,,,0,,,62,0
120240,note_on,0,0,1,,,,,,,,,,,,,,,0,,,58,32
120288,set_tempo,80,1,0,,,,,,,,,,,,458540,,,,,,,
120328,set_tempo,40,1,0,,,,,,,,,,,,456725,,,,,,,
120360,note_on,0,0,1,,,,,,,,,,,,,,,0,,,62,32
120360,note_on,120,0,1,,,,,,,,,,,,,,,0,,,58,0
120480,note_on,120,0,1,,,,,,,,,,,,,,,0,,,62,0
120480,note_on,0,0,1,,,,,,,,,,,,,,,0,,,65,0
120480,note_on,0,0,1,,,,,,,,,,,,,,,0,,,65,39
120480,note_on,0,0,2,,,,,,,,,,,,,,,0,,,38,30
120480,note_on,411,0,2,,,,,,,,,,,,,,,0,,,34,0
120520,set_tempo,192,1,0,,,,,,,,,,,,456725,,,,,,,
120543,control_change,63,0,2,,,,,,,,,,,,,,,0,64,0,,
120589,control_change,46,0,2,,,,,,,,,,,,,,,0,64,127,,
120600,note_on,120,0,1,,,,,,,,,,,,,,,0,,,62,33
120640,set_tempo,120,1,0,,,,,,,,,,,,458540,,,,,,,
120720,note_on,120,0,1,,,,,,,,,,,,,,,0,,,62,0
120720,note_on,0,0,1,,,,,,,,,,,,,,,0,,,57,33
120760,set_tempo,120,1,0,,,,,,,,,,,,460370,,,,,,,
120840,note_on,120,0,1,,,,,,,,,,,,,,,0,,,57,0
120840,note_on,0,0,1,,,,,,,,,,,,,,,0,,,62,33
120880,set_tempo,120,1,0,,,,,,,,,,,,462214,,,,,,,
120960,note_on,0,0,2,,,,,,,,,,,,,,,0,,,41,31
120960,control_change,0,0,2,,,,,,,,,,,,,,,0,64,0,,
120960,note_on,0,0,1,,,,,,,,,,,,,,,0,,,65,44
120960,note_on,0,0,1,,,,,,,,,,,,,,,0,,,65,0
120960,note_on,120,0,1,,,,,,,,,,,,,,,0,,,62,0
120960,set_tempo,80,1,0,,,,,,,,,,,,458540,,,,,,,
120960,note_on,371,0,2,,,,,,,,,,,,,,,0,,,38,0
121000,set_tempo,40,1,0,,,,,,,,,,,,458540,,,,,,,
121029,control_change,69,0,2,,,,,,,,,,,,,,,0,64,127,,
121080,note_on,120,0,1,,,,,,,,,,,,,,,0,,,60,34
121200,note_on,120,0,1,,,,,,,,,,,,,,,0,,,60,0
121200,note_on,0,0,1,,,,,,,,,,,,,,,0,,,57,34
121320,note_on,120,0,1,,,,,,,,,,,,,,,0,,,57,0
121320,note_on,0,0,1,,,,,,,,,,,,,,,0,,,60,34
121440,note_on,120,0,1,,,,,,,,,,,,,,,0,,,60,0
121440,note_on,0,0,1,,,,,,,,,,,,,,,0,,,64,43
121440,note_on,0,0,1,,,,,,,,,,,,,,,0,,,65,0
121440,note_on,0,0,2,,,,,,,,,,,,,,,0,,,45,32
121440,note_on,411,0,2,,,,,,,,,,,,,,,0,,,41,0
121480,set_tempo,480,1,0,,,,,,,,,,,,456725,,,,,,,
121503,control_change,63,0,2,,,,,,,,,,,,,,,0,64,0,,
121549,control_change,46,0,2,,,,,,,,,,,,,,,0,64,127,,
121560,note_on,120,0,1,,,,,,,,,,,,,,,0,,,60,35
121600,set_tempo,120,1,0,,,,,,,,,,,,458540,,,,,,,
121680,note_on,0,0,1,,,,,,,,,,,,,,,0,,,57,35
121680,note_on,120,0,1,,,,,,,,,,,,,,,0,,,60,0
121720,set_tempo,120,1,0,,,,,,,,,,,,460370,,,,,,,
121800,note_on,0,0,1,,,,,,,,,,,,,,,0,,,60,35
121800,note_on,120,0,1,,,,,,,,,,,,,,,0,,,57,0
121840,set_tempo,120,1,0,,,,,,,,,,,,462214,,,,,,,
121920,note_on,0,0,1,,,,,,,,,,,,,,,0,,,64,0
121920,note_on,0,0,1,,,,,,,,,,,,,,,0,,,64,46
121920,note_on,120,0,1,,,,,,,,,,,,,,,0,,,60,0
121920,control_change,0,0,2,,,,,,,,,,,,,,,0,64,0,,
121920,note_on,371,0,2,,,,,,,,,,,,,,,0,,,45,0
121920,set_tempo,80,1,0,,,,,,,,,,,,471587,,,,,,,
121920,note_on,0,0,2,,,,,,,,,,,,,,,0,,,33,29
121968,set_tempo,48,1,0,,,,,,,,,,,,465911,,,,,,,
121989,control_change,69,0,2,,,,,,,,,,,,,,,0,64,127,,
122008,set_tempo,40,1,0,,,,,,,,,,,,464037,,,,,,,
122040,note_on,120,0,1,,,,,,,,,,,,,,,0,,,60,34
122088,set_tempo,80,1,0,,,,,,,,,,,,462214,,,,,,,
122128,set_tempo,40,1,0,,,,,,,,,,,,460370,,,,,,,
122160,note_on,120,0,1,,,,,,,,,,,,,,,0,,,60,0
122160,note_on,0,0,1,,,,,,,,,,,,,,,0,,,57,36
122208,set_tempo,80,1,0,,,,,,,,,,,,458540,,,,,,,
122248,set_tempo,40,1,0,,,,,,,,,,,,456725,,,,,,,
122280,note_on,120,0,1,,,,,,,,,,,,,,,0,,,57,0
122280,note_on,0,0,1,,,,,,,,,,,,,,,0,,,60,38
122400,note_on,0,0,1,,,,,,,,,,,,,,,0,,,64,0
122400,note_on,0,0,1,,,,,,,,,,,,,,,0,,,72,50
122400,note_on,120,0,1,,,,,,,,,,,,,,,0,,,60,0
122400,note_on,0,0,2,,,,,,,,,,,,,,,0,,,34,32
122400,note_on,411,0,2,,,,,,,,,,,,,,,0,,,33,0
122440,set_tempo,192,1,0,,,,,,,,,,,,456725,,,,,,,
122463,control_change,63,0,2,,,,,,,,,,,,,,,0,64,0,,
122509,control_change,46,0,2,,,,,,,,,,,,,,,0,64,127,,
122520,note_on,120,0,1,,,,,,,,,,,,,,,0,,,67,38
122560,set_tempo,120,1,0,,,,,,,,,,,,458540,,,,,,,
122640,note_on,0,0,1,,,,,,,,,,,,,,,0,,,64,38
122640,note_on,120,0,1,,,,,,,,,,,,,,,0,,,67,0
122680,set_tempo,120,1,0,,,,,,,,,,,,460370,,,,,,,
122760,note_on,120,0,1,,,,,,,,,,,,,,,0,,,64,0
122760,note_on,0,0,1,,,,,,,,,,,,,,,0,,,67,38
122800,set_tempo,120,1,0,,,,,,,,,,,,462214,,,,,,,
122880,note_on,120,0,1,,,,,,,,,,,,,,,0,,,67,0
122880,control_change,0,0,2,,,,,,,,,,,,,,,0,64,0,,
122880,note_on,0,0,2,,,,,,,,,,,,,,,0,,,33,36
122880,set_tempo,80,1,0,,,,,,,,,,,,458540,,,,,,,
122880,note_on,371,0,2,,,,,,,,,,,,,,,0,,,34,0
122880,note_on,0,0,1,,,,,,,,,,,,,,,0,,,72,0
122880,note_on,0,0,1,,,,,,,,,,,,,,,0,,,72,51
122920,set_tempo,40,1,0,,,,,,,,,,,,464037,,,,,,,
122949,control_change,69,0,2,,,,,,,,,,,,,,,0,64,127,,
123000,note_on,120,0,1,,,,,,,,,,,,,,,0,,,69,38
123120,set_tempo,200,1,0,,,,,,,,,,,,465911,,,,,,,
123120,note_on,120,0,1,,,,,,,,,,,,,,,0,,,69,0
123120,note_on,0,0,1,,,,,,,,,,,,,,,0,,,65,37
123240,note_on,120,0,1,,,,,,,,,,,,,,,0,,,65,0
123240,note_on,0,0,1,,,,,,,,,,,,,,,0,,,69,34
123280,set_tempo,160,1,0,,,,,,,,,,,,467800,,,,,,,
123360,set_tempo,80,1,0,,,,,,,,,,,,467800,,,,,,,
123360,note_on,411,0,2,,,,,,,,,,,,,,,0,,,33,0
123360,note_on,0,0,2,,,,,,,,,,,,,,,0,,,31,32
123360,note_on,0,0,1,,,,,,,,,,,,,,,0,,,72,43
123360,note_on,0,0,1,,,,,,,,,,,,,,,0,,,72,0
123360,note_on,120,0,1,,,,,,,,,,,,,,,0,,,69,0
123400,set_tempo,40,1,0,,,,,,,,,,,,471587,,,,,,,
123423,control_change,63,0,2,,,,,,,,,,,,,,,0,64,0,,
123440,set_tempo,40,1,0,,,,,,,,,,,,475473,,,,,,,
123469,control_change,46,0,2,,,,,,,,,,,,,,,0,64,127,,
123480,note_on,120,0,1,,,,,,,,,,,,,,,0,,,70,35
123480,set_tempo,40,1,0,,,,,,,,,,,,481386,,,,,,,
123520,set_tempo,40,1,0,,,,,,,,,,,,485398,,,,,,,
123560,set_tempo,40,1,0,,,,,,,,,,,,489516,,,,,,,
123600,note_on,0,0,1,,,,,,,,,,,,,,,0,,,64,35
123600,set_tempo,40,1,0,,,,,,,,,,,,495786,,,,,,,
123600,note_on,120,0,1,,,,,,,,,,,,,,,0,,,70,0
123640,set_tempo,40,1,0,,,,,,,,,,,,500042,,,,,,,
123680,set_tempo,40,1,0,,,,,,,,,,,,504414,,,,,,,
123720,note_on,0,0,1,,,,,,,,,,,,,,,0,,,70,35
123720,note_on,120,0,1,,,,,,,,,,,,,,,0,,,64,0
123720,set_tempo,40,1,0,,,,,,,,,,,,511073,,,,,,,
123760,set_tempo,40,1,0,,,,,,,,,,,,515597,,,,,,,
123800,set_tempo,40,1,0,,,,,,,,,,,,522557,,,,,,,
123840,note_on,371,0,2,,,,,,,,,,,,,,,0,,,31,0
123840,note_on,120,0,1,,,,,,,,,,,,,,,0,,,70,0
123840,note_on,0,0,1,,,,,,,,,,,,,,,0,,,72,0
123840,note_on,0,0,1,,,,,,,,,,,,,,,0,,,72,52
123840,set_tempo,40,1,0,,,,,,,,,,,,515597,,,,,,,
123840,control_change,0,0,2,,,,,,,,,,,,,,,0,64,0,,
123880,set_tempo,40,1,0,,,,,,,,,,,,511073,,,,,,,
123882,control_change,42,0,2,,,,,,,,,,,,,,,0,64,127,,
123920,set_tempo,40,1,0,,,,,,,,,,,,506586,,,,,,,
123960,set_tempo,40,1,0,,,,,,,,,,,,502218,,,,,,,
123960,note_on,120,0,1,,,,,,,,,,,,,,,0,,,69,38
124000,set_tempo,40,1,0,,,,,,,,,,,,495786,,,,,,,
124040,set_tempo,40,1,0,,,,,,,,,,,,491562,,,,,,,
124080,set_tempo,40,1,0,,,,,,,,,,,,487448,,,,,,,
124080,note_on,0,0,1,,,,,,,,,,,,,,,0,,,65,38
124080,note_on,198,0,2,,,,,,,,,,,,,,,0,,,29,33
124080,note_on,120,0,1,,,,,,,,,,,,,,,0,,,69,0
124120,set_tempo,40,1,0,,,,,,,,,,,,483364,,,,,,,
124160,set_tempo,40,1,0,,,,,,,,,,,,477403,,,,,,,
124200,note_on,0,0,1,,,,,,,,,,,,,,,0,,,69,38
124200,set_tempo,40,1,0,,,,,,,,,,,,475473,,,,,,,
124200,note_on,120,0,1,,,,,,,,,,,,,,,0,,,65,0
124200,note_on,120,0,2,,,,,,,,,,,,,,,0,,,29,0
124240,set_tempo,40,1,0,,,,,,,,,,,,473522,,,,,,,
124280,set_tempo,40,1,0,,,,,,,,,,,,471587,,,,,,,
124320,set_tempo,40,1,0,,,,,,,,,,,,469667,,,,,,,
124320,note_on,0,0,1,,,,,,,,,,,,,,,0,,,77,53
124320,note_on,120,0,1,,,,,,,,,,,,,,,0,,,69,0
124320,note_on,0,0,1,,,,,,,,,,,,,,,0,,,72,0
124360,set_tempo,40,1,0,,,,,,,,,,,,467800,,,,,,,
124362,control_change,162,0,2,,,,,,,,,,,,,,,0,64,0,,
124400,set_tempo,40,1,0,,,,,,,,,,,,458540,,,,,,,
124419,control_change,57,0,2,,,,,,,,,,,,,,,0,64,127,,
124440,set_tempo,40,1,0,,,,,,,,,,,,460370,,,,,,,
124440,note_on,120,0,1,,,,,,,,,,,,,,,0,,,69,43
124480,set_tempo,40,1,0,,,,,,,,,,,,462214,,,,,,,
124520,set_tempo,40,1,0,,,,,,,,,,,,464037,,,,,,,
124560,note_on,120,0,1,,,,,,,,,,,,,,,0,,,69,0
124560,note_on,141,0,2,,,,,,,,,,,,,,,0,,,41,33
124560,note_on,0,0,1,,,,,,,,,,,,,,,0,,,65,44
124680,note_on,120,0,1,,,,,,,,,,,,,,,0,,,65,0
124680,note_on,0,0,1,,,,,,,,,,,,,,,0,,,69,44
124680,note_on,120,0,2,,,,,,,,,,,,,,,0,,,41,0
124800,control_change,120,0,2,,,,,,,,,,,,,,,0,64,0,,
124800,set_tempo,280,1,0,,,,,,,,,,,,467800,,,,,,,
124800,note_on,0,0,1,,,,,,,,,,,,,,,0,,,76,52
124800,note_on,0,0,1,,,,,,,,,,,,,,,0,,,72,52
124800,note_on,0,0,1,,,,,,,,,,,,,,,0,,,77,0
124800,note_on,120,0,1,,,,,,,,,,,,,,,0,,,69,0
124846,control_change,46,0,2,,,,,,,,,,,,,,,0,64,127,,
124880,set_tempo,80,1,0,,,,,,,,,,,,465911,,,,,,,
124920,note_on,120,0,1,,,,,,,,,,,,,,,0,,,72,0
124920,note_on,0,0,1,,,,,,,,,,,,,,,0,,,69,38
124960,set_tempo,80,1,0,,,,,,,,,,,,464037,,,,,,,
125000,set_tempo,40,1,0,,,,,,,,,,,,462214,,,,,,,
125040,note_on,0,0,1,,,,,,,,,,,,,,,0,,,64,38
125040,note_on,120,0,1,,,,,,,,,,,,,,,0,,,69,0
125040,note_on,194,0,2,,,,,,,,,,,,,,,0,,,45,33
125080,set_tempo,80,1,0,,,,,,,,,,,,460370,,,,,,,
125120,set_tempo,40,1,0,,,,,,,,,,,,458540,,,,,,,
125160,note_on,120,0,2,,,,,,,,,,,,,,,0,,,45,0
125160,note_on,120,0,1,,,,,,,,,,,,,,,0,,,64,0
125160,note_on,0,0,1,,,,,,,,,,,,,,,0,,,69,38
125200,set_tempo,80,1,0,,,,,,,,,,,,456725,,,,,,,
125240,set_tempo,40,1,0,,,,,,,,,,,,454959,,,,,,,
125280,note_on,0,0,1,,,,,,,,,,,,,,,0,,,76,0
125280,note_on,0,0,1,,,,,,,,,,,,,,,0,,,70,51
125280,note_on,0,0,1,,,,,,,,,,,,,,,0,,,74,51
125280,note_on,120,0,1,,,,,,,,,,,,,,,0,,,69,0
125291,control_change,131,0,2,,,,,,,,,,,,,,,0,64,0,,
125320,set_tempo,80,1,0,,,,,,,,,,,,456725,,,,,,,
125337,control_change,46,0,2,,,,,,,,,,,,,,,0,64,127,,
125400,note_on,0,0,1,,,,,,,,,,,,,,,0,,,65,34
125400,set_tempo,80,1,0,,,,,,,,,,,,458540,,,,,,,
125400,note_on,120,0,1,,,,,,,,,,,,,,,0,,,70,0
125480,set_tempo,80,1,0,,,,,,,,,,,,460370,,,,,,,
125520,note_on,183,0,2,,,,,,,,,,,,,,,0,,,46,33
125520,note_on,0,0,1,,,,,,,,,,,,,,,0,,,62,34
125520,note_on,120,0,1,,,,,,,,,,,,,,,0,,,65,0
125560,set_tempo,80,1,0,,,,,,,,,,,,462214,,,,,,,
125640,note_on,120,0,2,,,,,,,,,,,,,,,0,,,46,0
125640,note_on,0,0,1,,,,,,,,,,,,,,,0,,,65,34
125640,note_on,120,0,1,,,,,,,,,,,,,,,0,,,62,0
125640,set_tempo,80,1,0,,,,,,,,,,,,464037,,,,,,,
125680,set_tempo,40,1,0,,,,,,,,,,,,460370,,,,,,,
125760,control_change,120,0,2,,,,,,,,,,,,,,,0,64,0,,
125760,note_on,0,0,1,,,,,,,,,,,,,,,0,,,74,50
125760,set_tempo,80,1,0,,,,,,,,,,,,462214,,,,,,,
125760,note_on,0,0,1,,,,,,,,,,,,,,,0,,,69,50
125760,note_on,120,0,1,,,,,,,,,,,,,,,0,,,65,0
125760,note_on,0,0,1,,,,,,,,,,,,,,,0,,,74,0
125824,control_change,64,0,2,,,,,,,,,,,,,,,0,64,127,,
125880,note_on,0,0,1,,,,,,,,,,,,,,,0,,,65,36
125880,note_on,120,0,1,,,,,,,,,,,,,,,0,,,69,0
125880,set_tempo,120,1,0,,,,,,,,,,,,460370,,,,,,,
126000,note_on,176,0,2,,,,,,,,,,,,,,,0,,,50,33
126000,note_on,120,0,1,,,,,,,,,,,,,,,0,,,65,0
126000,note_on,0,0,1,,,,,,,,,,,,,,,0,,,62,36
126000,set_tempo,120,1,0,,,,,,,,,,,,458540,,,,,,,
126080,set_tempo,80,1,0,,,,,,,,,,,,456725,,,,,,,
126120,note_on,120,0,1,,,,,,,,,,,,,,,0,,,62,0
126120,note_on,0,0,1,,,,,,,,,,,,,,,0,,,65,36
126200,set_tempo,120,1,0,,,,,,,,,,,,454959,,,,,,,
126240,note_on,0,0,1,,,,,,,,,,,,,,,0,,,69,49
126240,note_on,0,0,1,,,,,,,,,,,,,,,0,,,72,49
126240,control_change,0,0,2,,,,,,,,,,,,,,,0,64,0,,
126240,note_on,120,0,1,,,,,,,,,,,,,,,0,,,65,0
126240,note_on,240,0,2,,,,,,,,,,,,,,,0,,,50,0
126240,note_on,0,0,1,,,,,,,,,,,,,,,0,,,74,0
126280,set_tempo,80,1,0,,,,,,,,,,,,453172,,,,,,,
126289,control_change,49,0,2,,,,,,,,,,,,,,,0,64,127,,
126360,note_on,0,0,1,,,,,,,,,,,,,,,0,,,65,35
126360,note_on,120,0,1,,,,,,,,,,,,,,,0,,,69,0
126400,set_tempo,120,1,0,,,,,,,,,,,,454959,,,,,,,
126480,set_tempo,80,1,0,,,,,,,,,,,,456725,,,,,,,
126480,note_on,191,0,2,,,,,,,,,,,,,,,0,,,53,33
126480,note_on,0,0,1,,,,,,,,,,,,,,,0,,,60,35
126480,note_on,120,0,1,,,,,,,,,,,,,,,0,,,65,0
126600,note_on,0,0,1,,,,,,,,,,,,,,,0,,,65,35
126600,set_tempo,120,1,0,,,,,,,,,,,,458540,,,,,,,
126600,note_on,120,0,1,,,,,,,,,,,,,,,0,,,60,0
126680,set_tempo,80,1,0,,,,,,,,,,,,460370,,,,,,,
126720,note_on,0,0,1,,,,,,,,,,,,,,,0,,,72,0
126720,note_on,0,0,1,,,,,,,,,,,,,,,0,,,69,50
126720,control_change,0,0,2,,,,,,,,,,,,,,,0,64,0,,
126720,note_on,240,0,2,,,,,,,,,,,,,,,0,,,53,0
126720,note_on,120,0,1,,,,,,,,,,,,,,,0,,,65,0
126720,note_on,0,0,1,,,,,,,,,,,,,,,0,,,72,50
126720,set_tempo,40,1,0,,,,,,,,,,,,454959,,,,,,,
126789,control_change,69,0,2,,,,,,,,,,,,,,,0,64,127,,
126840,note_on,120,0,1,,,,,,,,,,,,,,,0,,,69,0
126840,note_on,0,0,1,,,,,,,,,,,,,,,0,,,64,36
126880,set_tempo,160,1,0,,,,,,,,,,,,453172,,,,,,,
126960,note_on,171,0,2,,,,,,,,,,,,,,,0,,,57,33
126960,note_on,120,0,1,,,,,,,,,,,,,,,0,,,64,0
126960,note_on,0,0,1,,,,,,,,,,,,,,,0,,,60,36
127000,set_tempo,120,1,0,,,,,,,,,,,,451399,,,,,,,
127080,note_on,120,0,1,,,,,,,,,,,,,,,0,,,60,0
127080,note_on,0,0,1,,,,,,,,,,,,,,,0,,,64,36
127120,set_tempo,120,1,0,,,,,,,,,,,,449640,,,,,,,
127200,note_on,240,0,2,,,,,,,,,,,,,,,0,,,57,0
127200,note_on,0,0,1,,,,,,,,,,,,,,,0,,,70,49
127200,note_on,0,0,1,,,,,,,,,,,,,,,0,,,67,49
127200,note_on,0,0,1,,,,,,,,,,,,,,,0,,,72,0
127200,note_on,120,0,1,,,,,,,,,,,,,,,0,,,64,0
127229,control_change,29,0,2,,,,,,,,,,,,,,,0,64,0,,
127240,set_tempo,120,1,0,,,,,,,,,,,,447928,,,,,,,
127280,control_change,51,0,2,,,,,,,,,,,,,,,0,64,127,,
127320,note_on,120,0,1,,,,,,,,,,,,,,,0,,,67,0
127320,note_on,0,0,1,,,,,,,,,,,,,,,0,,,64,35
127360,set_tempo,120,1,0,,,,,,,,,,,,449640,,,,,,,
127440,note_on,120,0,1,,,,,,,,,,,,,,,0,,,64,0
127440,note_on,0,0,1,,,,,,,,,,,,,,,0,,,58,35
127440,note_on,160,0,2,,,,,,,,,,,,,,,0,,,36,33
127480,set_tempo,120,1,0,,,,,,,,,,,,451399,,,,,,,
127560,note_on,120,0,1,,,,,,,,,,,,,,,0,,,58,0
127560,note_on,0,0,1,,,,,,,,,,,,,,,0,,,64,35
127600,set_tempo,120,1,0,,,,,,,,,,,,453172,,,,,,,
127640,set_tempo,40,1,0,,,,,,,,,,,,451399,,,,,,,
127680,control_change,0,0,2,,,,,,,,,,,,,,,0,64,0,,
127680,note_on,240,0,2,,,,,,,,,,,,,,,0,,,36,0
127680,note_on,0,0,1,,,,,,,,,,,,,,,0,,,70,50
127680,note_on,0,0,1,,,,,,,,,,,,,,,0,,,67,50
127680,note_on,0,0,1,,,,,,,,,,,,,,,0,,,70,0
127680,note_on,120,0,1,,,,,,,,,,,,,,,0,,,64,0
127736,control_change,56,0,2,,,,,,,,,,,,,,,0,64,127,,
127800,note_on,120,0,1,,,,,,,,,,,,,,,0,,,67,0
127800,note_on,0,0,1,,,,,,,,,,,,,,,0,,,62,36
127800,set_tempo,160,1,0,,,,,,,,,,,,453172,,,,,,,
127920,note_on,0,0,1,,,,,,,,,,,,,,,0,,,58,36
127920,note_on,184,0,2,,,,,,,,,,,,,,,0,,,38,33
127920,note_on,120,0,1,,,,,,,,,,,,,,,0,,,62,0
127960,set_tempo,160,1,0,,,,,,,,,,,,454959,,,,,,,
128040,note_on,120,0,1,,,,,,,,,,,,,,,0,,,58,0
128040,note_on,0,0,1,,,,,,,,,,,,,,,0,,,62,36
128120,set_tempo,160,1,0,,,,,,,,,,,,456725,,,,,,,
128160,note_on,0,0,1,,,,,,,,,,,,,,,0,,,65,49
128160,note_on,120,0,1,,,,,,,,,,,,,,,0,,,62,0
128160,note_on,0,0,1,,,,,,,,,,,,,,,0,,,70,0
128160,note_on,240,0,2,,,,,,,,,,,,,,,0,,,38,0
128160,note_on,0,0,1,,,,,,,,,,,,,,,0,,,69,49
128188,control_change,28,0,2,,,,,,,,,,,,,,,0,64,0,,
128266,control_change,78,0,2,,,,,,,,,,,,,,,0,64,127,,
128280,note_on,0,0,1,,,,,,,,,,,,,,,0,,,62,36
128280,set_tempo,160,1,0,,,,,,,,,,,,458540,,,,,,,
128280,note_on,120,0,1,,,,,,,,,,,,,,,0,,,65,0
128400,note_on,134,0,2,,,,,,,,,,,,,,,0,,,41,33
128400,note_on,0,0,1,,,,,,,,,,,,,,,0,,,57,36
128400,note_on,120,0,1,,,,,,,,,,,,,,,0,,,62,0
128440,set_tempo,160,1,0,,,,,,,,,,,,460370,,,,,,,
128520,note_on,0,0,1,,,,,,,,,,,,,,,0,,,62,36
128520,note_on,120,0,1,,,,,,,,,,,,,,,0,,,57,0
128600,set_tempo,160,1,0,,,,,,,,,,,,462214,,,,,,,
128640,note_on,0,0,1,,,,,,,,,,,,,,,0,,,69,0
128640,control_change,0,0,2,,,,,,,,,,,,,,,0,64,0,,
128640,note_on,240,0,2,,,,,,,,,,,,,,,0,,,41,0
128640,set_tempo,40,1,0,,,,,,,,,,,,464037,,,,,,,
128640,note_on,120,0,1,,,,,,,,,,,,,,,0,,,62,0
128640,note_on,0,0,1,,,,,,,,,,,,,,,0,,,69,48
128640,note_on,0,0,1,,,,,,,,,,,,,,,0,,,64,48
128680,control_change,40,0,2,,,,,,,,,,,,,,,0,64,127,,
128760,note_on,0,0,1,,,,,,,,,,,,,,,0,,,61,36
128760,note_on,120,0,1,,,,,,,,,,,,,,,0,,,64,0
128880,set_tempo,240,1,0,,,,,,,,,,,,462214,,,,,,,
128880,note_on,120,0,1,,,,,,,,,,,,,,,0,,,61,0
128880,note_on,200,0,2,,,,,,,,,,,,,,,0,,,45,33
128880,note_on,0,0,1,,,,,,,,,,,,,,,0,,,57,36
129000,note_on,120,0,1,,,,,,,,,,,,,,,0,,,57,0
129000,note_on,0,0,1,,,,,,,,,,,,,,,0,,,61,36
129120,note_on,0,0,1,,,,,,,,,,,,,,,0,,,67,47
129120,note_on,240,0,2,,,,,,,,,,,,,,,0,,,45,0
129120,note_on,120,0,1,,,,,,,,,,,,,,,0,,,61,0
129120,set_tempo,240,1,0,,,,,,,,,,,,458540,,,,,,,
129120,note_on,0,0,1,,,,,,,,,,,,,,,0,,,69,0
129177,control_change,57,0,2,,,,,,,,,,,,,,,0,64,0,,
129229,control_change,52,0,2,,,,,,,,,,,,,,,0,64,127,,
129240,note_on,120,0,1,,,,,,,,,,,,,,,0,,,64,37
129280,set_tempo,160,1,0,,,,,,,,,,,,460370,,,,,,,
129360,note_on,131,0,2,,,,,,,,,,,,,,,0,,,49,33
129360,note_on,0,0,1,,,,,,,,,,,,,,,0,,,57,37
129360,note_on,120,0,1,,,,,,,,,,,,,,,0,,,64,0
129440,set_tempo,160,1,0,,,,,,,,,,,,462214,,,,,,,
129480,note_on,0,0,1,,,,,,,,,,,,,,,0,,,64,37
129480,note_on,120,0,1,,,,,,,,,,,,,,,0,,,57,0
129600,note_on,0,0,1,,,,,,,,,,,,,,,0,,,67,48
129600,note_on,0,0,1,,,,,,,,,,,,,,,0,,,67,0
129600,set_tempo,160,1,0,,,,,,,,,,,,458540,,,,,,,
129600,note_on,120,0,1,,,,,,,,,,,,,,,0,,,64,0
129600,control_change,0,0,2,,,,,,,,,,,,,,,0,64,0,,
129600,note_on,240,0,2,,,,,,,,,,,,,,,0,,,49,0
129663,control_change,63,0,2,,,,,,,,,,,,,,,0,64,127,,
129720,note_on,120,0,1,,,,,,,,,,,,,,,0,,,64,38
129840,note_on,0,0,1,,,,,,,,,,,,,,,0,,,57,42
129840,note_on,120,0,1,,,,,,,,,,,,,,,0,,,64,0
129840,set_tempo,240,1,0,,,,,,,,,,,,456725,,,,,,,
129840,note_on,177,0,2,,,,,,,,,,,,,,,0,,,50,33
129960,note_on,120,0,2,,,,,,,,,,,,,,,0,,,50,0
129960,note_on,0,0,1,,,,,,,,,,,,,,,0,,,64,45
129960,note_on,120,0,1,,,,,,,,,,,,,,,0,,,57,0
130080,note_on,120,0,1,,,,,,,,,,,,,,,0,,,64,0
130080,note_on,0,0,1,,,,,,,,,,,,,,,0,,,67,0
130080,note_on,0,0,1,,,,,,,,,,,,,,,0,,,65,52
130080,note_on,120,0,2,,,,,,,,,,,,,,,0,,,52,33
130080,set_tempo,240,1,0,,,,,,,,,,,,454959,,,,,,,
130160,control_change,80,0,2,,,,,,,,,,,,,,,0,64,0,,
130200,note_on,120,0,1,,,,,,,,,,,,,,,0,,,62,43
130200,note_on,40,0,2,,,,,,,,,,,,,,,0,,,52,0
130206,control_change,6,0,2,,,,,,,,,,,,,,,0,64,127,,
130320,note_on,0,0,1,,,,,,,,,,,,,,,0,,,57,44
130320,note_on,114,0,2,,,,,,,,,,,,,,,0,,,53,33
130320,note_on,120,0,1,,,,,,,,,,,,,,,0,,,62,0
130320,set_tempo,240,1,0,,,,,,,,,,,,453172,,,,,,,
130440,note_on,0,0,1,,,,,,,,,,,,,,,0,,,62,44
130440,note_on,120,0,1,,,,,,,,,,,,,,,0,,,57,0
130440,note_on,120,0,2,,,,,,,,,,,,,,,0,,,53,0
130520,set_tempo,200,1,0,,,,,,,,,,,,451399,,,,,,,
130560,note_on,120,0,1,,,,,,,,,,,,,,,0,,,62,0
130560,note_on,0,0,2,,,,,,,,,,,,,,,0,,,46,33
130560,set_tempo,40,1,0,,,,,,,,,,,,453172,,,,,,,
130560,note_on,0,0,1,,,,,,,,,,,,,,,0,,,65,0
130560,note_on,0,0,1,,,,,,,,,,,,,,,0,,,67,49
130560,control_change,120,0,2,,,,,,,,,,,,,,,0,64,0,,
130600,set_tempo,40,1,0,,,,,,,,,,,,451399,,,,,,,
130629,control_change,69,0,2,,,,,,,,,,,,,,,0,64,127,,
130680,note_on,120,0,1,,,,,,,,,,,,,,,0,,,65,35
130720,set_tempo,120,1,0,,,,,,,,,,,,453172,,,,,,,
130800,note_on,120,0,1,,,,,,,,,,,,,,,0,,,65,0
130800,note_on,0,0,1,,,,,,,,,,,,,,,0,,,62,35
130800,note_on,171,0,2,,,,,,,,,,,,,,,0,,,46,0
130840,set_tempo,120,1,0,,,,,,,,,,,,454959,,,,,,,
130920,note_on,120,0,1,,,,,,,,,,,,,,,0,,,62,0
130920,note_on,0,0,1,,,,,,,,,,,,,,,0,,,65,35
130960,set_tempo,120,1,0,,,,,,,,,,,,456725,,,,,,,
131040,note_on,0,0,1,,,,,,,,,,,,,,,0,,,67,0
131040,note_on,0,0,1,,,,,,,,,,,,,,,0,,,69,45
131040,note_on,120,0,1,,,,,,,,,,,,,,,0,,,65,0
131040,note_on,240,0,2,,,,,,,,,,,,,,,0,,,48,33
131040,set_tempo,80,1,0,,,,,,,,,,,,458540,,,,,,,
131080,control_change,40,0,2,,,,,,,,,,,,,,,0,64,0,,
131131,control_change,51,0,2,,,,,,,,,,,,,,,0,64,127,,
131160,note_on,120,0,1,,,,,,,,,,,,,,,0,,,64,33
131160,set_tempo,120,1,0,,,,,,,,,,,,460370,,,,,,,
131280,note_on,0,0,1,,,,,,,,,,,,,,,0,,,60,33
131280,note_on,120,0,1,,,,,,,,,,,,,,,0,,,64,0
131280,set_tempo,120,1,0,,,,,,,,,,,,462214,,,,,,,
131280,note_on,149,0,2,,,,,,,,,,,,,,,0,,,48,0
131400,note_on,0,0,1,,,,,,,,,,,,,,,0,,,64,33
131400,note_on,120,0,1,,,,,,,,,,,,,,,0,,,60,0
131400,set_tempo,120,1,0,,,,,,,,,,,,464037,,,,,,,
131480,set_tempo,80,1,0,,,,,,,,,,,,465911,,,,,,,
131520,note_on,0,0,1,,,,,,,,,,,,,,,0,,,69,0
131520,note_on,0,0,1,,,,,,,,,,,,,,,0,,,65,47
131520,note_on,120,0,1,,,,,,,,,,,,,,,0,,,64,0
131520,control_change,240,0,2,,,,,,,,,,,,,,,0,64,0,,
131520,set_tempo,40,1,0,,,,,,,,,,,,506586,,,,,,,
131571,control_change,51,0,2,,,,,,,,,,,,,,,0,64,127,,
131640,note_on,120,0,1,,,,,,,,,,,,,,,0,,,60,35
131640,set_tempo,120,1,0,,,,,,,,,,,,471587,,,,,,,
131680,set_tempo,40,1,0,,,,,,,,,,,,471587,,,,,,,
131760,note_on,189,0,2,,,,,,,,,,,,,,,0,,,53,33
131760,note_on,0,0,1,,,,,,,,,,,,,,,0,,,57,35
131760,note_on,120,0,1,,,,,,,,,,,,,,,0,,,60,0
131880,note_on,120,0,1,,,,,,,,,,,,,,,0,,,57,0
131880,note_on,0,0,1,,,,,,,,,,,,,,,0,,,60,35
131960,set_tempo,280,1,0,,,,,,,,,,,,460370,,,,,,,
132000,note_on,240,0,2,,,,,,,,,,,,,,,0,,,53,0
132000,note_on,0,0,1,,,,,,,,,,,,,,,0,,,67,49
132000,note_on,120,0,1,,,,,,,,,,,,,,,0,,,60,0
132000,note_on,0,0,1,,,,,,,,,,,,,,,0,,,65,0
132029,control_change,29,0,2,,,,,,,,,,,,,,,0,64,0,,
132086,control_change,57,0,2,,,,,,,,,,,,,,,0,64,127,,
132120,note_on,120,0,1,,,,,,,,,,,,,,,0,,,62,35
132240,note_on,154,0,2,,,,,,,,,,,,,,,0,,,46,33
132240,note_on,120,0,1,,,,,,,,,,,,,,,0,,,62,0
132240,note_on,0,0,1,,,,,,,,,,,,,,,0,,,58,35
132320,set_tempo,360,1,0,,,,,,,,,,,,458540,,,,,,,
132360,note_on,120,0,1,,,,,,,,,,,,,,,0,,,58,0
132360,note_on,0,0,1,,,,,,,,,,,,,,,0,,,62,35
132480,note_on,0,0,1,,,,,,,,,,,,,,,0,,,69,49
132480,note_on,240,0,2,,,,,,,,,,,,,,,0,,,46,0
132480,control_change,0,0,2,,,,,,,,,,,,,,,0,64,0,,
132480,note_on,120,0,1,,,,,,,,,,,,,,,0,,,62,0
132480,note_on,0,0,1,,,,,,,,,,,,,,,0,,,67,0
132480,set_tempo,160,1,0,,,,,,,,,,,,458015,,,,,,,
132536,control_change,56,0,2,,,,,,,,,,,,,,,0,64,127,,
132600,note_on,120,0,1,,,,,,,,,,,,,,,0,,,63,35
132640,set_tempo,160,1,0,,,,,,,,,,,,456274,,,,,,,
132720,note_on,120,0,1,,,,,,,,,,,,,,,0,,,63,0
132720,note_on,0,0,1,,,,,,,,,,,,,,,0,,,60,36
132720,note_on,184,0,2,,,,,,,,,,,,,,,0,,,41,33
132800,set_tempo,160,1,0,,,,,,,,,,,,454545,,,,,,,
132840,note_on,0,0,1,,,,,,,,,,,,,,,0,,,63,36
132840,note_on,120,0,1,,,,,,,,,,,,,,,0,,,60,0
132960,note_on,0,0,1,,,,,,,,,,,,,,,0,,,69,52
132960,note_on,0,0,1,,,,,,,,,,,,,,,0,,,69,0
132960,note_on,120,0,1,,,,,,,,,,,,,,,0,,,63,0
132960,note_on,240,0,2,,,,,,,,,,,,,,,0,,,41,0
132960,set_tempo,160,1,0,,,,,,,,,,,,452830,,,,,,,
133024,control_change,64,0,2,,,,,,,,,,,,,,,0,64,0,,
133066,control_change,42,0,2,,,,,,,,,,,,,,,0,64,127,,
133080,note_on,120,0,1,,,,,,,,,,,,,,,0,,,63,38
133120,set_tempo,160,1,0,,,,,,,,,,,,451128,,,,,,,
133200,note_on,120,0,1,,,,,,,,,,,,,,,0,,,63,0
133200,note_on,0,0,1,,,,,,,,,,,,,,,0,,,60,38
133200,note_on,134,0,2,,,,,,,,,,,,,,,0,,,41,36
133280,set_tempo,160,1,0,,,,,,,,,,,,449438,,,,,,,
133320,note_on,120,0,1,,,,,,,,,,,,,,,0,,,60,0
133320,note_on,0,0,1,,,,,,,,,,,,,,,0,,,63,39
133400,set_tempo,120,1,0,,,,,,,,,,,,447761,,,,,,,
133440,note_on,120,0,1,,,,,,,,,,,,,,,0,,,63,0
133440,note_on,240,0,2,,,,,,,,,,,,,,,0,,,41,0
133440,control_change,0,0,2,,,,,,,,,,,,,,,0,64,0,,
133440,set_tempo,40,1,0,,,,,,,,,,,,456725,,,,,,,
133440,note_on,0,0,1,,,,,,,,,,,,,,,0,,,69,53
133440,note_on,0,0,1,,,,,,,,,,,,,,,0,,,69,0
133480,control_change,40,0,2,,,,,,,,,,,,,,,0,64,127,,
133560,note_on,120,0,1,,,,,,,,,,,,,,,0,,,63,37
133680,note_on,200,0,2,,,,,,,,,,,,,,,0,,,34,36
133680,note_on,0,0,1,,,,,,,,,,,,,,,0,,,60,36
133680,note_on,120,0,1,,,,,,,,,,,,,,,0,,,63,0
133800,note_on,0,0,1,,,,,,,,,,,,,,,0,,,63,36
133800,note_on,120,0,1,,,,,,,,,,,,,,,0,,,60,0
133920,note_on,0,0,1,,,,,,,,,,,,,,,0,,,69,0
133920,note_on,0,0,1,,,,,,,,,,,,,,,0,,,70,49
133920,note_on,240,0,2,,,,,,,,,,,,,,,0,,,34,0
133920,set_tempo,480,1,0,,,,,,,,,,,,447761,,,,,,,
133920,note_on,120,0,1,,,,,,,,,,,,,,,0,,,63,0
133977,control_change,57,0,2,,,,,,,,,,,,,,,0,64,0,,
134017,control_change,40,0,2,,,,,,,,,,,,,,,0,64,127,,
134040,note_on,120,0,1,,,,,,,,,,,,,,,0,,,65,37
134160,note_on,143,0,2,,,,,,,,,,,,,,,0,,,34,34
134160,note_on,0,0,1,,,,,,,,,,,,,,,0,,,62,36
134160,note_on,120,0,1,,,,,,,,,,,,,,,0,,,65,0
134280,note_on,120,0,1,,,,,,,,,,,,,,,0,,,62,0
134280,note_on,0,0,1,,,,,,,,,,,,,,,0,,,65,35
134400,note_on,120,0,1,,,,,,,,,,,,,,,0,,,65,0
134400,note_on,240,0,2,,,,,,,,,,,,,,,0,,,34,0
134400,set_tempo,480,1,0,,,,,,,,,,,,452830,,,,,,,
134400,control_change,0,0,2,,,,,,,,,,,,,,,0,64,0,,
134400,note_on,0,0,1,,,,,,,,,,,,,,,0,,,69,49
134400,note_on,0,0,1,,,,,,,,,,,,,,,0,,,70,0
134469,control_change,69,0,2,,,,,,,,,,,,,,,0,64,127,,
134520,note_on,120,0,1,,,,,,,,,,,,,,,0,,,65,35
134640,note_on,171,0,2,,,,,,,,,,,,,,,0,,,36,33
134640,note_on,0,0,1,,,,,,,,,,,,,,,0,,,60,35
134640,note_on,120,0,1,,,,,,,,,,,,,,,0,,,65,0
134760,note_on,120,0,1,,,,,,,,,,,,,,,0,,,60,0
134760,note_on,0,0,1,,,,,,,,,,,,,,,0,,,65,35
134880,note_on,120,0,1,,,,,,,,,,,,,,,0,,,65,0
134880,note_on,0,0,1,,,,,,,,,,,,,,,0,,,69,0
134880,note_on,0,0,1,,,,,,,,,,,,,,,0,,,67,49
134880,note_on,240,0,2,,,,,,,,,,,,,,,0,,,36,0
134920,set_tempo,520,1,0,,,,,,,,,,,,451399,,,,,,,
134943,control_change,63,0,2,,,,,,,,,,,,,,,0,64,0,,
134989,control_change,46,0,2,,,,,,,,,,,,,,,0,64,127,,
135000,note_on,120,0,1,,,,,,,,,,,,,,,0,,,64,35
135000,set_tempo,80,1,0,,,,,,,,,,,,453172,,,,,,,
135080,set_tempo,80,1,0,,,,,,,,,,,,454959,,,,,,,
135120,note_on,131,0,2,,,,,,,,,,,,,,,0,,,36,33
135120,set_tempo,40,1,0,,,,,,,,,,,,456725,,,,,,,
135120,note_on,0,0,1,,,,,,,,,,,,,,,0,,,60,35
135120,note_on,120,0,1,,,,,,,,,,,,,,,0,,,64,0
135200,set_tempo,80,1,0,,,,,,,,,,,,458540,,,,,,,
135240,note_on,0,0,1,,,,,,,,,,,,,,,0,,,64,35
135240,note_on,120,0,1,,,,,,,,,,,,,,,0,,,60,0
135280,set_tempo,80,1,0,,,,,,,,,,,,460370,,,,,,,
135320,set_tempo,40,1,0,,,,,,,,,,,,462214,,,,,,,
135360,note_on,120,0,1,,,,,,,,,,,,,,,0,,,64,0
135360,note_on,0,0,1,,,,,,,,,,,,,,,0,,,67,0
135360,note_on,0,0,1,,,,,,,,,,,,,,,0,,,69,47
135360,control_change,0,0,2,,,,,,,,,,,,,,,0,64,0,,
135360,note_on,240,0,2,,,,,,,,,,,,,,,0,,,36,0
135360,set_tempo,40,1,0,,,,,,,,,,,,506586,,,,,,,
135387,control_change,27,0,2,,,,,,,,,,,,,,,0,64,0,,
135411,control_change,24,0,2,,,,,,,,,,,,,,,0,64,127,,
135480,set_tempo,120,1,0,,,,,,,,,,,,462214,,,,,,,
135480,note_on,120,0,1,,,,,,,,,,,,,,,0,,,65,35
135600,note_on,120,0,1,,,,,,,,,,,,,,,0,,,65,0
135600,note_on,0,0,1,,,,,,,,,,,,,,,0,,,63,35
135600,note_on,189,0,2,,,,,,,,,,,,,,,0,,,41,33
135720,note_on,120,0,1,,,,,,,,,,,,,,,0,,,63,0
135720,note_on,0,0,1,,,,,,,,,,,,,,,0,,,65,35
135840,note_on,240,0,2,,,,,,,,,,,,,,,0,,,41,0
135840,note_on,0,0,1,,,,,,,,,,,,,,,0,,,70,49
135840,note_on,0,0,1,,,,,,,,,,,,,,,0,,,69,0
135840,note_on,120,0,1,,,,,,,,,,,,,,,0,,,65,0
135840,set_tempo,360,1,0,,,,,,,,,,,,460370,,,,,,,
135869,control_change,29,0,2,,,,,,,,,,,,,,,0,64,0,,
135926,control_change,57,0,2,,,,,,,,,,,,,,,0,64,127,,
135960,note_on,120,0,1,,,,,,,,,,,,,,,0,,,67,35
136080,note_on,120,0,1,,,,,,,,,,,,,,,0,,,67,0
136080,note_on,154,0,2,,,,,,,,,,,,,,,0,,,53,33
136080,note_on,0,0,1,,,,,,,,,,,,,,,0,,,63,35
136200,set_tempo,360,1,0,,,,,,,,,,,,458540,,,,,,,
136200,note_on,0,0,1,,,,,,,,,,,,,,,0,,,67,35
136200,note_on,120,0,1,,,,,,,,,,,,,,,0,,,63,0
136320,control_change,0,0,2,,,,,,,,,,,,,,,0,64,0,,
136320,note_on,240,0,2,,,,,,,,,,,,,,,0,,,53,0
136320,note_on,0,0,1,,,,,,,,,,,,,,,0,,,72,49
136320,note_on,0,0,1,,,,,,,,,,,,,,,0,,,70,0
136320,note_on,120,0,1,,,,,,,,,,,,,,,0,,,67,0
136376,control_change,56,0,2,,,,,,,,,,,,,,,0,64,127,,
136440,note_on,120,0,1,,,,,,,,,,,,,,,0,,,69,35
136560,note_on,184,0,2,,,,,,,,,,,,,,,0,,,53,33
136560,note_on,0,0,1,,,,,,,,,,,,,,,0,,,63,36
136560,note_on,120,0,1,,,,,,,,,,,,,,,0,,,69,0
136560,set_tempo,360,1,0,,,,,,,,,,,,456725,,,,,,,
136680,note_on,0,0,1,,,,,,,,,,,,,,,0,,,69,36
136680,note_on,120,0,1,,,,,,,,,,,,,,,0,,,63,0
136800,note_on,0,0,1,,,,,,,,,,,,,,,0,,,72,0
136800,set_tempo,240,1,0,,,,,,,,,,,,462214,,,,,,,
136800,note_on,120,0,1,,,,,,,,,,,,,,,0,,,69,0
136800,note_on,240,0,2,,,,,,,,,,,,,,,0,,,53,0
136800,note_on,0,0,1,,,,,,,,,,,,,,,0,,,72,52
136864,control_change,64,0,2,,,,,,,,,,,,,,,0,64,0,,
136906,control_change,42,0,2,,,,,,,,,,,,,,,0,64,127,,
136920,note_on,120,0,1,,,,,,,,,,,,,,,0,,,69,38
137040,note_on,134,0,2,,,,,,,,,,,,,,,0,,,53,36
137040,note_on,0,0,1,,,,,,,,,,,,,,,0,,,63,38
137040,note_on,120,0,1,,,,,,,,,,,,,,,0,,,69,0
137160,note_on,120,0,1,,,,,,,,,,,,,,,0,,,63,0
137160,note_on,0,0,1,,,,,,,,,,,,,,,0,,,69,39
137240,set_tempo,440,1,0,,,,,,,,,,,,453172,,,,,,,
137280,note_on,0,0,1,,,,,,,,,,,,,,,0,,,72,56
137280,note_on,120,0,1,,,,,,,,,,,,,,,0,,,69,0
137280,note_on,0,0,1,,,,,,,,,,,,,,,0,,,72,0
137280,set_tempo,40,1,0,,,,,,,,,,,,456725,,,,,,,
137280,note_on,240,0,2,,,,,,,,,,,,,,,0,,,53,0
137280,control_change,0,0,2,,,,,,,,,,,,,,,0,64,0,,
137320,control_change,40,0,2,,,,,,,,,,,,,,,0,64,127,,
137400,note_on,120,0,1,,,,,,,,,,,,,,,0,,,69,39
137520,note_on,120,0,1,,,,,,,,,,,,,,,0,,,69,0
137520,note_on,200,0,2,,,,,,,,,,,,,,,0,,,46,36
137520,note_on,0,0,1,,,,,,,,,,,,,,,0,,,63,39
137640,note_on,120,0,1,,,,,,,,,,,,,,,0,,,63,0
137640,note_on,0,0,1,,,,,,,,,,,,,,,0,,,69,38
137760,note_on,240,0,2,,,,,,,,,,,,,,,0,,,46,0
137760,note_on,0,0,1,,,,,,,,,,,,,,,0,,,74,52
137760,note_on,120,0,1,,,,,,,,,,,,,,,0,,,69,0
137760,note_on,0,0,1,,,,,,,,,,,,,,,0,,,72,0
137800,set_tempo,520,1,0,,,,,,,,,,,,453172,,,,,,,
137817,control_change,57,0,2,,,,,,,,,,,,,,,0,64,0,,
137857,control_change,40,0,2,,,,,,,,,,,,,,,0,64,127,,
137880,note_on,120,0,1,,,,,,,,,,,,,,,0,,,70,37
138000,note_on,0,0,1,,,,,,,,,,,,,,,0,,,62,36
138000,note_on,120,0,1,,,,,,,,,,,,,,,0,,,70,0
138000,note_on,143,0,2,,,,,,,,,,,,,,,0,,,46,32
138120,note_on,0,0,1,,,,,,,,,,,,,,,0,,,70,35
138120,note_on,120,0,1,,,,,,,,,,,,,,,0,,,62,0
138240,note_on,120,0,1,,,,,,,,,,,,,,,0,,,70,0
138240,note_on,0,0,1,,,,,,,,,,,,,,,0,,,72,49
138240,control_change,0,0,2,,,,,,,,,,,,,,,0,64,0,,
138240,note_on,240,0,2,,,,,,,,,,,,,,,0,,,46,0
138240,note_on,0,0,1,,,,,,,,,,,,,,,0,,,74,0
138309,control_change,69,0,2,,,,,,,,,,,,,,,0,64,127,,
138360,note_on,120,0,1,,,,,,,,,,,,,,,0,,,69,34
138480,note_on,0,0,1,,,,,,,,,,,,,,,0,,,65,34
138480,note_on,120,0,1,,,,,,,,,,,,,,,0,,,69,0
138480,note_on,171,0,2,,,,,,,,,,,,,,,0,,,48,33
138600,note_on,120,0,1,,,,,,,,,,,,,,,0,,,65,0
138600,note_on,0,0,1,,,,,,,,,,,,,,,0,,,69,34
138720,note_on,120,0,1,,,,,,,,,,,,,,,0,,,69,0
138720,note_on,0,0,1,,,,,,,,,,,,,,,0,,,72,0
138720,note_on,0,0,1,,,,,,,,,,,,,,,0,,,72,47
138720,note_on,240,0,2,,,,,,,,,,,,,,,0,,,48,0
138760,set_tempo,960,1,0,,,,,,,,,,,,451399,,,,,,,
138783,control_change,63,0,2,,,,,,,,,,,,,,,0,64,0,,
138829,control_change,46,0,2,,,,,,,,,,,,,,,0,64,127,,
138840,set_tempo,80,1,0,,,,,,,,,,,,453172,,,,,,,
138840,note_on,120,0,1,,,,,,,,,,,,,,,0,,,67,34
138920,set_tempo,80,1,0,,,,,,,,,,,,454959,,,,,,,
138960,set_tempo,40,1,0,,,,,,,,,,,,473522,,,,,,,
138960,note_on,0,0,1,,,,,,,,,,,,,,,0,,,64,33
138960,note_on,120,0,1,,,,,,,,,,,,,,,0,,,67,0
138960,note_on,131,0,2,,,,,,,,,,,,,,,0,,,48,33
139080,note_on,0,0,1,,,,,,,,,,,,,,,0,,,67,32
139080,note_on,120,0,1,,,,,,,,,,,,,,,0,,,64,0
139200,note_on,0,0,1,,,,,,,,,,,,,,,0,,,72,42
139200,set_tempo,240,1,0,,,,,,,,,,,,506586,,,,,,,
139200,note_on,0,0,1,,,,,,,,,,,,,,,0,,,72,0
139200,note_on,120,0,1,,,,,,,,,,,,,,,0,,,67,0
139200,note_on,240,0,2,,,,,,,,,,,,,,,0,,,48,0
139200,note_on,0,0,2,,,,,,,,,,,,,,,0,,,53,29
139200,control_change,0,0,2,,,,,,,,,,,,,,,0,64,0,,
139227,control_change,27,0,2,,,,,,,,,,,,,,,0,64,0,,
139251,control_change,24,0,2,,,,,,,,,,,,,,,0,64,127,,
139320,note_on,120,0,1,,,,,,,,,,,,,,,0,,,69,31
139320,set_tempo,120,1,0,,,,,,,,,,,,471587,,,,,,,
139360,set_tempo,40,1,0,,,,,,,,,,,,471587,,,,,,,
139440,note_on,120,0,1,,,,,,,,,,,,,,,0,,,69,0
139440,note_on,0,0,1,,,,,,,,,,,,,,,0,,,65,31
139560,note_on,120,0,1,,,,,,,,,,,,,,,0,,,65,0
139560,note_on,0,0,1,,,,,,,,,,,,,,,0,,,69,31
139640,set_tempo,280,1,0,,,,,,,,,,,,469667,,,,,,,
139680,note_on,120,0,1,,,,,,,,,,,,,,,0,,,69,0
139680,set_tempo,40,1,0,,,,,,,,,,,,460370,,,,,,,
139680,note_on,0,0,1,,,,,,,,,,,,,,,0,,,77,39
139680,note_on,429,0,2,,,,,,,,,,,,,,,0,,,57,29
139680,note_on,0,0,1,,,,,,,,,,,,,,,0,,,72,0
139709,control_change,29,0,2,,,,,,,,,,,,,,,0,64,0,,
139766,control_change,57,0,2,,,,,,,,,,,,,,,0,64,127,,
139800,note_on,120,0,1,,,,,,,,,,,,,,,0,,,72,31
139920,note_on,0,0,1,,,,,,,,,,,,,,,0,,,65,31
139920,note_on,120,0,1,,,,,,,,,,,,,,,0,,,72,0
140040,note_on,0,0,1,,,,,,,,,,,,,,,0,,,72,31
140040,note_on,120,0,1,,,,,,,,,,,,,,,0,,,65,0
140160,note_on,120,0,1,,,,,,,,,,,,,,,0,,,72,0
140160,note_on,0,0,1,,,,,,,,,,,,,,,0,,,77,0
140160,note_on,0,0,1,,,,,,,,,,,,,,,0,,,76,44
140160,control_change,0,0,2,,,,,,,,,,,,,,,0,64,0,,
140160,note_on,0,0,2,,,,,,,,,,,,,,,0,,,60,29
140160,note_on,394,0,2,,,,,,,,,,,,,,,0,,,57,0
140160,set_tempo,480,1,0,,,,,,,,,,,,458540,,,,,,,
140216,control_change,56,0,2,,,,,,,,,,,,,,,0,64,127,,
140280,note_on,120,0,1,,,,,,,,,,,,,,,0,,,72,31
140400,note_on,0,0,1,,,,,,,,,,,,,,,0,,,67,32
140400,note_on,120,0,1,,,,,,,,,,,,,,,0,,,72,0
140520,note_on,120,0,1,,,,,,,,,,,,,,,0,,,67,0
140520,note_on,0,0,1,,,,,,,,,,,,,,,0,,,72,32
140600,set_tempo,440,1,0,,,,,,,,,,,,456725,,,,,,,
140640,note_on,0,0,1,,,,,,,,,,,,,,,0,,,76,0
140640,note_on,424,0,2,,,,,,,,,,,,,,,0,,,60,0
140640,note_on,0,0,2,,,,,,,,,,,,,,,0,,,58,32
140640,note_on,120,0,1,,,,,,,,,,,,,,,0,,,72,0
140640,note_on,0,0,1,,,,,,,,,,,,,,,0,,,79,40
140704,control_change,64,0,2,,,,,,,,,,,,,,,0,64,0,,
140746,control_change,42,0,2,,,,,,,,,,,,,,,0,64,127,,
140760,note_on,120,0,1,,,,,,,,,,,,,,,0,,,72,34
140880,note_on,120,0,1,,,,,,,,,,,,,,,0,,,72,0
140880,note_on,0,0,1,,,,,,,,,,,,,,,0,,,67,33
141000,note_on,120,0,1,,,,,,,,,,,,,,,0,,,67,0
141000,note_on,0,0,1,,,,,,,,,,,,,,,0,,,72,33
141040,set_tempo,440,1,0,,,,,,,,,,,,454959,,,,,,,
141120,note_on,374,0,2,,,,,,,,,,,,,,,0,,,58,0
141120,note_on,0,0,2,,,,,,,,,,,,,,,0,,,57,32
141120,note_on,120,0,1,,,,,,,,,,,,,,,0,,,72,0
141120,note_on,0,0,1,,,,,,,,,,,,,,,0,,,72,44
141120,note_on,0,0,1,,,,,,,,,,,,,,,0,,,79,0
141120,control_change,0,0,2,,,,,,,,,,,,,,,0,64,0,,
141120,set_tempo,80,1,0,,,,,,,,,,,,464037,,,,,,,
141160,control_change,40,0,2,,,,,,,,,,,,,,,0,64,127,,
141240,note_on,120,0,1,,,,,,,,,,,,,,,0,,,69,32
141360,note_on,120,0,1,,,,,,,,,,,,,,,0,,,69,0
141360,note_on,0,0,1,,,,,,,,,,,,,,,0,,,65,32
141480,note_on,120,0,1,,,,,,,,,,,,,,,0,,,65,0
141480,note_on,0,0,1,,,,,,,,,,,,,,,0,,,69,32
141600,note_on,0,0,2,,,,,,,,,,,,,,,0,,,46,30
141600,note_on,0,0,2,,,,,,,,,,,,,,,0,,,53,30
141600,note_on,0,0,1,,,,,,,,,,,,,,,0,,,74,39
141600,note_on,0,0,2,,,,,,,,,,,,,,,0,,,53,0
141600,note_on,120,0,1,,,,,,,,,,,,,,,0,,,69,0
141600,note_on,0,0,1,,,,,,,,,,,,,,,0,,,72,0
141600,note_on,440,0,2,,,,,,,,,,,,,,,0,,,57,0
141635,control_change,35,0,2,,,,,,,,,,,,,,,0,64,0,,
141640,set_tempo,520,1,0,,,,,,,,,,,,453172,,,,,,,
141678,control_change,43,0,2,,,,,,,,,,,,,,,0,64,127,,
141720,set_tempo,80,1,0,,,,,,,,,,,,453172,,,,,,,
141720,note_on,120,0,1,,,,,,,,,,,,,,,0,,,70,31
141840,note_on,0,0,1,,,,,,,,,,,,,,,0,,,65,31
141840,note_on,120,0,1,,,,,,,,,,,,,,,0,,,70,0
141880,set_tempo,160,1,0,,,,,,,,,,,,454959,,,,,,,
141960,note_on,120,0,1,,,,,,,,,,,,,,,0,,,65,0
141960,note_on,0,0,1,,,,,,,,,,,,,,,0,,,70,31
142000,set_tempo,120,1,0,,,,,,,,,,,,456725,,,,,,,
142080,note_on,402,0,2,,,,,,,,,,,,,,,0,,,53,0
142080,note_on,0,0,2,,,,,,,,,,,,,,,0,,,46,0
142080,note_on,0,0,2,,,,,,,,,,,,,,,0,,,52,29
142080,control_change,0,0,2,,,,,,,,,,,,,,,0,64,0,,
142080,note_on,0,0,2,,,,,,,,,,,,,,,0,,,48,29
142080,note_on,120,0,1,,,,,,,,,,,,,,,0,,,70,0
142080,note_on,0,0,1,,,,,,,,,,,,,,,0,,,72,40
142080,note_on,0,0,1,,,,,,,,,,,,,,,0,,,74,0
142120,set_tempo,120,1,0,,,,,,,,,,,,458540,,,,,,,
142149,control_change,69,0,2,,,,,,,,,,,,,,,0,64,127,,
142200,note_on,120,0,1,,,,,,,,,,,,,,,0,,,70,31
142320,note_on,0,0,1,,,,,,,,,,,,,,,0,,,67,31
142320,note_on,120,0,1,,,,,,,,,,,,,,,0,,,70,0
142440,note_on,0,0,1,,,,,,,,,,,,,,,0,,,70,31
142440,note_on,120,0,1,,,,,,,,,,,,,,,0,,,67,0
142560,note_on,411,0,2,,,,,,,,,,,,,,,0,,,52,0
142560,note_on,0,0,2,,,,,,,,,,,,,,,0,,,55,29
142560,note_on,0,0,1,,,,,,,,,,,,,,,0,,,72,0
142560,note_on,0,0,1,,,,,,,,,,,,,,,0,,,72,38
142560,note_on,120,0,1,,,,,,,,,,,,,,,0,,,70,0
142600,set_tempo,480,1,0,,,,,,,,,,,,456725,,,,,,,
142623,control_change,63,0,2,,,,,,,,,,,,,,,0,64,0,,
142669,control_change,46,0,2,,,,,,,,,,,,,,,0,64,127,,
142680,note_on,120,0,1,,,,,,,,,,,,,,,0,,,70,31
142720,set_tempo,120,1,0,,,,,,,,,,,,458540,,,,,,,
142800,note_on,120,0,1,,,,,,,,,,,,,,,0,,,70,0
142800,note_on,0,0,1,,,,,,,,,,,,,,,0,,,64,31
142840,set_tempo,120,1,0,,,,,,,,,,,,460370,,,,,,,
142879,set_tempo,39,1,0,,,,,,,,,,,,476190,,,,,,,
142920,note_on,120,0,1,,,,,,,,,,,,,,,0,,,64,0
142920,note_on,0,0,1,,,,,,,,,,,,,,,0,,,70,31
142960,set_tempo,81,1,0,,,,,,,,,,,,478088,,,,,,,
143040,note_on,0,0,1,,,,,,,,,,,,,,,0,,,72,0
143040,note_on,120,0,1,,,,,,,,,,,,,,,0,,,70,0
143040,note_on,0,0,1,,,,,,,,,,,,,,,0,,,72,42
143040,control_change,0,0,2,,,,,,,,,,,,,,,0,64,0,,
143040,set_tempo,80,1,0,,,,,,,,,,,,524017,,,,,,,
143040,note_on,0,0,2,,,,,,,,,,,,,,,0,,,53,29
143040,note_on,0,0,2,,,,,,,,,,,,,,,0,,,48,0
143040,note_on,371,0,2,,,,,,,,,,,,,,,0,,,55,0
143067,control_change,27,0,2,,,,,,,,,,,,,,,0,64,0,,
143091,control_change,24,0,2,,,,,,,,,,,,,,,0,64,127,,
143160,note_on,120,0,1,,,,,,,,,,,,,,,0,,,69,31
143160,set_tempo,120,1,0,,,,,,,,,,,,472441,,,,,,,
143280,note_on,0,0,1,,,,,,,,,,,,,,,0,,,65,31
143280,note_on,120,0,1,,,,,,,,,,,,,,,0,,,69,0
143400,note_on,120,0,1,,,,,,,,,,,,,,,0,,,65,0
143400,note_on,0,0,1,,,,,,,,,,,,,,,0,,,69,31
143520,set_tempo,360,1,0,,,,,,,,,,,,463320,,,,,,,
143520,note_on,429,0,2,,,,,,,,,,,,,,,0,,,57,29
143520,note_on,120,0,1,,,,,,,,,,,,,,,0,,,69,0
143520,note_on,0,0,1,,,,,,,,,,,,,,,0,,,72,0
143520,note_on,0,0,1,,,,,,,,,,,,,,,0,,,77,39
143549,control_change,29,0,2,,,,,,,,,,,,,,,0,64,0,,
143606,control_change,57,0,2,,,,,,,,,,,,,,,0,64,127,,
143640,note_on,120,0,1,,,,,,,,,,,,,,,0,,,72,31
143760,note_on,120,0,1,,,,,,,,,,,,,,,0,,,72,0
143760,note_on,0,0,1,,,,,,,,,,,,,,,0,,,65,31
143840,set_tempo,320,1,0,,,,,,,,,,,,463320,,,,,,,
143880,note_on,120,0,1,,,,,,,,,,,,,,,0,,,65,0
143880,note_on,0,0,1,,,,,,,,,,,,,,,0,,,72,31
144000,set_tempo,160,1,0,,,,,,,,,,,,461538,,,,,,,
144000,note_on,0,0,1,,,,,,,,,,,,,,,0,,,77,0
144000,note_on,120,0,1,,,,,,,,,,,,,,,0,,,72,0
144000,note_on,394,0,2,,,,,,,,,,,,,,,0,,,57,0
144000,note_on,0,0,2,,,,,,,,,,,,,,,0,,,60,29
144000,control_change,0,0,2,,,,,,,,,,,,,,,0,64,0,,
144000,note_on,0,0,1,,,,,,,,,,,,,,,0,,,76,44
144056,control_change,56,0,2,,,,,,,,,,,,,,,0,64,127,,
144120,note_on,120,0,1,,,,,,,,,,,,,,,0,,,72,31
144160,set_tempo,160,1,0,,,,,,,,,,,,459770,,,,,,,
144240,note_on,120,0,1,,,,,,,,,,,,,,,0,,,72,0
144240,note_on,0,0,1,,,,,,,,,,,,,,,0,,,67,32
144240,note_on,0,0,2,,,,,,,,,,,,,,,0,,,61,26
144240,note_on,184,0,2,,,,,,,,,,,,,,,0,,,60,0
144320,set_tempo,160,1,0,,,,,,,,,,,,458015,,,,,,,
144360,note_on,0,0,1,,,,,,,,,,,,,,,0,,,72,32
144360,note_on,120,0,1,,,,,,,,,,,,,,,0,,,67,0
144480,note_on,0,0,1,,,,,,,,,,,,,,,0,,,76,0
144480,set_tempo,160,1,0,,,,,,,,,,,,456274,,,,,,,
144480,note_on,0,0,2,,,,,,,,,,,,,,,0,,,60,29
144480,note_on,240,0,2,,,,,,,,,,,,,,,0,,,61,0
144480,note_on,0,0,1,,,,,,,,,,,,,,,0,,,79,40
144480,note_on,120,0,1,,,,,,,,,,,,,,,0,,,72,0
144529,control_change,49,0,2,,,,,,,,,,,,,,,0,64,0,,
144565,control_change,36,0,2,,,,,,,,,,,,,,,0,64,127,,
144600,note_on,120,0,1,,,,,,,,,,,,,,,0,,,72,34
144720,note_on,0,0,2,,,,,,,,,,,,,,,0,,,58,27
144720,note_on,155,0,2,,,,,,,,,,,,,,,0,,,60,0
144720,note_on,0,0,1,,,,,,,,,,,,,,,0,,,67,33
144720,note_on,120,0,1,,,,,,,,,,,,,,,0,,,72,0
144840,note_on,0,0,1,,,,,,,,,,,,,,,0,,,72,33
144840,note_on,120,0,1,,,,,,,,,,,,,,,0,,,67,0
144960,note_on,240,0,2,,,,,,,,,,,,,,,0,,,58,0
144960,note_on,0,0,1,,,,,,,,,,,,,,,0,,,79,0
144960,note_on,120,0,1,,,,,,,,,,,,,,,0,,,72,0
144960,note_on,0,0,1,,,,,,,,,,,,,,,0,,,72,44
144960,set_tempo,480,1,0,,,,,,,,,,,,465116,,,,,,,
144960,control_change,0,0,2,,,,,,,,,,,,,,,0,64,0,,
144960,note_on,0,0,2,,,,,,,,,,,,,,,0,,,57,32
145000,control_change,40,0,2,,,,,,,,,,,,,,,0,64,127,,
145080,note_on,120,0,1,,,,,,,,,,,,,,,0,,,69,32
145200,note_on,0,0,1,,,,,,,,,,,,,,,0,,,65,32
145200,note_on,120,0,1,,,,,,,,,,,,,,,0,,,69,0
145320,note_on,0,0,1,,,,,,,,,,,,,,,0,,,69,32
145320,note_on,120,0,1,,,,,,,,,,,,,,,0,,,65,0
145440,note_on,0,0,2,,,,,,,,,,,,,,,0,,,53,30
145440,note_on,120,0,1,,,,,,,,,,,,,,,0,,,69,0
145440,set_tempo,480,1,0,,,,,,,,,,,,468750,,,,,,,
145440,note_on,440,0,2,,,,,,,,,,,,,,,0,,,57,0
145440,note_on,0,0,2,,,,,,,,,,,,,,,0,,,53,0
145440,note_on,0,0,2,,,,,,,,,,,,,,,0,,,46,30
145440,note_on,0,0,1,,,,,,,,,,,,,,,0,,,72,0
145440,note_on,0,0,1,,,,,,,,,,,,,,,0,,,73,39
145454,control_change,14,0,2,,,,,,,,,,,,,,,0,64,0,,
145489,control_change,35,0,2,,,,,,,,,,,,,,,0,64,127,,
145560,note_on,120,0,1,,,,,,,,,,,,,,,0,,,70,31
145680,note_on,120,0,1,,,,,,,,,,,,,,,0,,,70,0
145680,note_on,0,0,1,,,,,,,,,,,,,,,0,,,65,31
145800,note_on,120,0,1,,,,,,,,,,,,,,,0,,,65,0
145800,note_on,0,0,1,,,,,,,,,,,,,,,0,,,70,31
145920,note_on,431,0,2,,,,,,,,,,,,,,,0,,,53,0
145920,note_on,0,0,2,,,,,,,,,,,,,,,0,,,48,29
145920,note_on,0,0,2,,,,,,,,,,,,,,,0,,,46,0
145920,note_on,0,0,2,,,,,,,,,,,,,,,0,,,52,29
145920,control_change,0,0,2,,,,,,,,,,,,,,,0,64,0,,
145920,note_on,0,0,1,,,,,,,,,,,,,,,0,,,72,39
145920,note_on,120,0,1,,,,,,,,,,,,,,,0,,,70,0
145920,note_on,0,0,1,,,,,,,,,,,,,,,0,,,73,0
145960,set_tempo,520,1,0,,,,,,,,,,,,474308,,,,,,,
145989,control_change,69,0,2,,,,,,,,,,,,,,,0,64,127,,
146040,note_on,120,0,1,,,,,,,,,,,,,,,0,,,70,31
146160,note_on,0,0,1,,,,,,,,,,,,,,,0,,,67,31
146160,note_on,120,0,1,,,,,,,,,,,,,,,0,,,70,0
146280,note_on,0,0,1,,,,,,,,,,,,,,,0,,,70,31
146280,note_on,120,0,1,,,,,,,,,,,,,,,0,,,67,0
146400,note_on,411,0,2,,,,,,,,,,,,,,,0,,,52,0
146400,note_on,120,0,1,,,,,,,,,,,,,,,0,,,70,0
146400,note_on,0,0,1,,,,,,,,,,,,,,,0,,,72,0
146400,note_on,0,0,1,,,,,,,,,,,,,,,0,,,72,38
146400,note_on,0,0,2,,,,,,,,,,,,,,,0,,,55,29
146440,set_tempo,480,1,0,,,,,,,,,,,,472441,,,,,,,
146463,control_change,63,0,2,,,,,,,,,,,,,,,0,64,0,,
146509,control_change,46,0,2,,,,,,,,,,,,,,,0,64,127,,
146520,note_on,120,0,1,,,,,,,,,,,,,,,0,,,70,31
146560,set_tempo,120,1,0,,,,,,,,,,,,474308,,,,,,,
146640,note_on,0,0,1,,,,,,,,,,,,,,,0,,,64,31
146640,note_on,120,0,1,,,,,,,,,,,,,,,0,,,70,0
146680,set_tempo,120,1,0,,,,,,,,,,,,476190,,,,,,,
146760,note_on,120,0,1,,,,,,,,,,,,,,,0,,,64,0
146760,note_on,0,0,1,,,,,,,,,,,,,,,0,,,70,31
146800,set_tempo,120,1,0,,,,,,,,,,,,478088,,,,,,,
146880,note_on,0,0,1,,,,,,,,,,,,,,,0,,,72,0
146880,note_on,0,0,2,,,,,,,,,,,,,,,0,,,48,0
146880,note_on,120,0,1,,,,,,,,,,,,,,,0,,,70,0
146880,control_change,0,0,2,,,,,,,,,,,,,,,0,64,0,,
146880,note_on,371,0,2,,,,,,,,,,,,,,,0,,,55,0
148800,note_on,0,0,2,,,,,,,,,,,,,,,0,,,48,76
148800,note_on,1920,0,2,,,,,,,,,,,,,,,0,,,41,76
148800,note_on,1920,0,1,,,,,,,,,,,,,,,0,,,68,89
148800,note_on,0,0,1,,,,,,,,,,,,,,,0,,,72,89
148800,note_on,0,0,1,,,,,,,,,,,,,,,0,,,77,106
148800,note_on,0,0,2,,,,,,,,,,,,,,,0,,,53,92
148864,control_change,64,0,2,,,,,,,,,,,,,,,0,64,127,,
149640,note_on,840,0,1,,,,,,,,,,,,,,,0,,,77,0
149640,note_on,0,0,1,,,,,,,,,,,,,,,0,,,68,77
149640,note_on,0,0,1,,,,,,,,,,,,,,,0,,,72,0
149640,note_on,0,0,1,,,,,,,,,,,,,,,0,,,77,92
149640,note_on,0,0,2,,,,,,,,,,,,,,,0,,,53,77
149640,note_on,0,0,2,,,,,,,,,,,,,,,0,,,48,66
149640,note_on,0,0,2,,,,,,,,,,,,,,,0,,,41,66
149640,note_on,0,0,2,,,,,,,,,,,,,,,0,,,41,0
149640,note_on,0,0,2,,,,,,,,,,,,,,,0,,,48,0
149640,note_on,776,0,2,,,,,,,,,,,,,,,0,,,53,0
149640,note_on,0,0,1,,,,,,,,,,,,,,,0,,,72,77
149640,note_on,0,0,1,,,,,,,,,,,,,,,0,,,68,0
149760,note_on,120,0,2,,,,,,,,,,,,,,,0,,,53,0
149760,note_on,0,0,2,,,,,,,,,,,,,,,0,,,48,0
149760,note_on,0,0,2,,,,,,,,,,,,,,,0,,,41,0
149760,note_on,0,0,2,,,,,,,,,,,,,,,0,,,41,70
149760,note_on,0,0,2,,,,,,,,,,,,,,,0,,,53,84
149760,note_on,0,0,1,,,,,,,,,,,,,,,0,,,72,81
149760,note_on,0,0,1,,,,,,,,,,,,,,,0,,,80,96
149760,note_on,0,0,1,,,,,,,,,,,,,,,0,,,68,81
149760,note_on,0,0,1,,,,,,,,,,,,,,,0,,,68,0
149760,note_on,0,0,1,,,,,,,,,,,,,,,0,,,72,0
149760,note_on,120,0,1,,,,,,,,,,,,,,,0,,,77,0
149760,set_tempo,2960,1,0,,,,,,,,,,,,459770,,,,,,,
149767,control_change,7,0,2,,,,,,,,,,,,,,,0,64,0,,
149800,set_tempo,40,1,0,,,,,,,,,,,,458015,,,,,,,
149831,control_change,64,0,2,,,,,,,,,,,,,,,0,64,127,,
149960,set_tempo,160,1,0,,,,,,,,,,,,456274,,,,,,,
150120,note_on,0,0,1,,,,,,,,,,,,,,,0,,,72,0
150120,note_on,0,0,1,,,,,,,,,,,,,,,0,,,72,76
150120,note_on,289,0,2,,,,,,,,,,,,,,,0,,,53,0
150120,set_tempo,160,1,0,,,,,,,,,,,,454545,,,,,,,
150120,note_on,0,0,2,,,,,,,,,,,,,,,0,,,41,67
150120,note_on,360,0,1,,,,,,,,,,,,,,,0,,,80,0
150120,note_on,0,0,1,,,,,,,,,,,,,,,0,,,68,0
150120,note_on,0,0,2,,,,,,,,,,,,,,,0,,,53,80
150120,note_on,0,0,1,,,,,,,,,,,,,,,0,,,80,91
150120,note_on,0,0,2,,,,,,,,,,,,,,,0,,,41,0
150120,note_on,0,0,1,,,,,,,,,,,,,,,0,,,68,76
150240,note_on,120,0,1,,,,,,,,,,,,,,,0,,,80,0
150240,note_on,0,0,1,,,,,,,,,,,,,,,0,,,72,0
150240,note_on,0,0,1,,,,,,,,,,,,,,,0,,,68,0
150240,note_on,0,0,1,,,,,,,,,,,,,,,0,,,68,81
150240,note_on,0,0,1,,,,,,,,,,,,,,,0,,,72,81
150240,note_on,0,0,1,,,,,,,,,,,,,,,0,,,77,96
150240,set_tempo,120,1,0,,,,,,,,,,,,452830,,,,,,,
150240,note_on,0,0,2,,,,,,,,,,,,,,,0,,,56,84
150240,note_on,0,0,2,,,,,,,,,,,,,,,0,,,41,0
150240,note_on,0,0,2,,,,,,,,,,,,,,,0,,,44,70
150240,note_on,120,0,2,,,,,,,,,,,,,,,0,,,53,0
150400,set_tempo,160,1,0,,,,,,,,,,,,451128,,,,,,,
150560,set_tempo,160,1,0,,,,,,,,,,,,449438,,,,,,,
150600,note_on,0,0,2,,,,,,,,,,,,,,,0,,,44,66
150600,note_on,0,0,2,,,,,,,,,,,,,,,0,,,56,77
150600,note_on,360,0,1,,,,,,,,,,,,,,,0,,,77,0
150600,note_on,0,0,1,,,,,,,,,,,,,,,0,,,72,0
150600,note_on,0,0,1,,,,,,,,,,,,,,,0,,,68,0
150600,note_on,0,0,1,,,,,,,,,,,,,,,0,,,68,77
150600,note_on,0,0,1,,,,,,,,,,,,,,,0,,,72,77
150600,note_on,0,0,2,,,,,,,,,,,,,,,0,,,44,0
150600,note_on,360,0,2,,,,,,,,,,,,,,,0,,,56,0
150600,note_on,0,0,1,,,,,,,,,,,,,,,0,,,77,92
150680,set_tempo,120,1,0,,,,,,,,,,,,447761,,,,,,,
150720,note_on,120,0,2,,,,,,,,,,,,,,,0,,,56,0
150720,note_on,0,0,2,,,,,,,,,,,,,,,0,,,44,0
150720,note_on,120,0,1,,,,,,,,,,,,,,,0,,,77,0
150720,note_on,0,0,1,,,,,,,,,,,,,,,0,,,72,0
150720,note_on,0,0,1,,,,,,,,,,,,,,,0,,,68,0
150720,note_on,0,0,1,,,,,,,,,,,,,,,0,,,65,81
150720,note_on,0,0,1,,,,,,,,,,,,,,,0,,,68,81
150720,note_on,0,0,1,,,,,,,,,,,,,,,0,,,72,96
150720,note_on,0,0,2,,,,,,,,,,,,,,,0,,,29,70
150720,note_on,0,0,2,,,,,,,,,,,,,,,0,,,41,84
150720,control_change,0,0,2,,,,,,,,,,,,,,,0,64,0,,
150791,control_change,71,0,2,,,,,,,,,,,,,,,0,64,127,,
151080,note_on,0,0,1,,,,,,,,,,,,,,,0,,,65,77
151080,note_on,0,0,1,,,,,,,,,,,,,,,0,,,72,92
151080,note_on,0,0,1,,,,,,,,,,,,,,,0,,,68,77
151080,note_on,0,0,1,,,,,,,,,,,,,,,0,,,65,0
151080,note_on,0,0,1,,,,,,,,,,,,,,,0,,,68,0
151080,note_on,360,0,1,,,,,,,,,,,,,,,0,,,72,0
151080,note_on,289,0,2,,,,,,,,,,,,,,,0,,,41,0
151080,note_on,0,0,2,,,,,,,,,,,,,,,0,,,29,66
151080,note_on,0,0,2,,,,,,,,,,,,,,,0,,,41,77
151080,note_on,0,0,2,,,,,,,,,,,,,,,0,,,29,0
151200,note_on,0,0,2,,,,,,,,,,,,,,,0,,,32,66
151200,note_on,0,0,2,,,,,,,,,,,,,,,0,,,29,0
151200,note_on,120,0,2,,,,,,,,,,,,,,,0,,,41,0
151200,note_on,0,0,1,,,,,,,,,,,,,,,0,,,68,91
151200,note_on,0,0,1,,,,,,,,,,,,,,,0,,,65,77
151200,note_on,0,0,1,,,,,,,,,,,,,,,0,,,60,77
151200,note_on,0,0,1,,,,,,,,,,,,,,,0,,,65,0
151200,note_on,0,0,1,,,,,,,,,,,,,,,0,,,68,0
151200,note_on,120,0,1,,,,,,,,,,,,,,,0,,,72,0
151200,note_on,0,0,2,,,,,,,,,,,,,,,0,,,44,79
151560,note_on,360,0,1,,,,,,,,,,,,,,,0,,,68,0
151560,note_on,0,0,1,,,,,,,,,,,,,,,0,,,60,0
151560,note_on,0,0,2,,,,,,,,,,,,,,,0,,,44,73
151560,note_on,0,0,2,,,,,,,,,,,,,,,0,,,32,61
151560,note_on,0,0,2,,,,,,,,,,,,,,,0,,,32,0
151560,note_on,360,0,2,,,,,,,,,,,,,,,0,,,44,0
151560,note_on,0,0,1,,,,,,,,,,,,,,,0,,,65,0
151560,note_on,0,0,1,,,,,,,,,,,,,,,0,,,68,86
151560,note_on,0,0,1,,,,,,,,,,,,,,,0,,,65,72
151560,note_on,0,0,1,,,,,,,,,,,,,,,0,,,60,72
151680,note_on,0,0,1,,,,,,,,,,,,,,,0,,,60,77
151680,note_on,0,0,1,,,,,,,,,,,,,,,0,,,56,77
151680,note_on,0,0,1,,,,,,,,,,,,,,,0,,,60,0
151680,note_on,0,0,1,,,,,,,,,,,,,,,0,,,65,91
151680,note_on,120,0,1,,,,,,,,,,,,,,,0,,,68,0
151680,set_tempo,1000,1,0,,,,,,,,,,,,451128,,,,,,,
151680,note_on,0,0,1,,,,,,,,,,,,,,,0,,,65,0
151680,note_on,120,0,2,,,,,,,,,,,,,,,0,,,44,0
151680,note_on,0,0,2,,,,,,,,,,,,,,,0,,,32,0
151680,note_on,0,0,2,,,,,,,,,,,,,,,0,,,36,66
151680,note_on,0,0,2,,,,,,,,,,,,,,,0,,,48,79
151694,control_change,14,0,2,,,,,,,,,,,,,,,0,64,0,,
151729,control_change,35,0,2,,,,,,,,,,,,,,,0,64,127,,
152040,note_on,0,0,1,,,,,,,,,,,,,,,0,,,65,86
152040,note_on,0,0,1,,,,,,,,,,,,,,,0,,,60,0
152040,note_on,0,0,1,,,,,,,,,,,,,,,0,,,56,0
152040,note_on,0,0,1,,,,,,,,,,,,,,,0,,,56,72
152040,note_on,0,0,1,,,,,,,,,,,,,,,0,,,60,72
152040,note_on,311,0,2,,,,,,,,,,,,,,,0,,,48,0
152040,note_on,0,0,2,,,,,,,,,,,,,,,0,,,36,0
152040,note_on,0,0,2,,,,,,,,,,,,,,,0,,,36,61
152040,note_on,0,0,2,,,,,,,,,,,,,,,0,,,48,73
152040,note_on,360,0,1,,,,,,,,,,,,,,,0,,,65,0
152160,note_on,120,0,2,,,,,,,,,,,,,,,0,,,48,0
152160,note_on,0,0,2,,,,,,,,,,,,,,,0,,,36,0
152160,note_on,0,0,2,,,,,,,,,,,,,,,0,,,41,66
152160,note_on,0,0,2,,,,,,,,,,,,,,,0,,,53,79
152160,note_on,0,0,1,,,,,,,,,,,,,,,0,,,60,91
152160,note_on,120,0,1,,,,,,,,,,,,,,,0,,,65,0
152160,note_on,0,0,1,,,,,,,,,,,,,,,0,,,60,0
152160,note_on,0,0,1,,,,,,,,,,,,,,,0,,,56,0
152160,note_on,0,0,1,,,,,,,,,,,,,,,0,,,56,77
152520,note_on,360,0,1,,,,,,,,,,,,,,,0,,,60,0
152520,note_on,0,0,1,,,,,,,,,,,,,,,0,,,56,0
152520,note_on,0,0,1,,,,,,,,,,,,,,,0,,,56,71
152520,note_on,0,0,1,,,,,,,,,,,,,,,0,,,60,71
152520,note_on,0,0,1,,,,,,,,,,,,,,,0,,,65,85
152520,note_on,360,0,2,,,,,,,,,,,,,,,0,,,53,0
152520,note_on,0,0,2,,,,,,,,,,,,,,,0,,,41,0
152520,note_on,0,0,2,,,,,,,,,,,,,,,0,,,41,59
152520,note_on,0,0,2,,,,,,,,,,,,,,,0,,,53,71
152640,note_on,0,0,1,,,,,,,,,,,,,,,0,,,60,0
152640,note_on,120,0,2,,,,,,,,,,,,,,,0,,,53,0
152640,note_on,0,0,2,,,,,,,,,,,,,,,0,,,41,0
152640,note_on,0,0,2,,,,,,,,,,,,,,,0,,,46,70
152640,note_on,0,0,2,,,,,,,,,,,,,,,0,,,49,70
152640,set_tempo,960,1,0,,,,,,,,,,,,446097,,,,,,,
152640,control_change,0,0,2,,,,,,,,,,,,,,,0,64,0,,
152640,note_on,0,0,1,,,,,,,,,,,,,,,0,,,66,96
152640,note_on,0,0,1,,,,,,,,,,,,,,,0,,,61,81
152640,note_on,0,0,1,,,,,,,,,,,,,,,0,,,58,81
152640,note_on,0,0,1,,,,,,,,,,,,,,,0,,,56,0
152640,note_on,120,0,1,,,,,,,,,,,,,,,0,,,65,0
152640,note_on,0,0,2,,,,,,,,,,,,,,,0,,,54,84
152760,note_on,0,0,2,,,,,,,,,,,,,,,0,,,46,0
152760,note_on,0,0,2,,,,,,,,,,,,,,,0,,,49,0
152760,note_on,120,0,2,,,,,,,,,,,,,,,0,,,54,0
152760,note_on,0,0,1,,,,,,,,,,,,,,,0,,,58,0
152760,note_on,0,0,1,,,,,,,,,,,,,,,0,,,61,0
152760,note_on,120,0,1,,,,,,,,,,,,,,,0,,,66,0
152880,note_on,120,0,1,,,,,,,,,,,,,,,0,,,78,61
153000,note_on,120,0,1,,,,,,,,,,,,,,,0,,,82,65
153020,note_on,20,0,1,,,,,,,,,,,,,,,0,,,78,0
153120,note_on,100,0,1,,,,,,,,,,,,,,,0,,,85,68
153140,note_on,20,0,1,,,,,,,,,,,,,,,0,,,82,0
153240,note_on,100,0,1,,,,,,,,,,,,,,,0,,,83,68
153260,note_on,20,0,1,,,,,,,,,,,,,,,0,,,85,0
153360,note_on,100,0,1,,,,,,,,,,,,,,,0,,,82,67
153380,note_on,20,0,1,,,,,,,,,,,,,,,0,,,83,0
153480,note_on,100,0,1,,,,,,,,,,,,,,,0,,,80,67
153500,note_on,20,0,1,,,,,,,,,,,,,,,0,,,82,0
153600,note_on,100,0,1,,,,,,,,,,,,,,,0,,,78,68
153620,note_on,20,0,1,,,,,,,,,,,,,,,0,,,80,0
153720,note_on,100,0,1,,,,,,,,,,,,,,,0,,,77,68
153740,note_on,20,0,1,,,,,,,,,,,,,,,0,,,78,0
153840,note_on,100,0,1,,,,,,,,,,,,,,,0,,,75,67
153860,note_on,20,0,1,,,,,,,,,,,,,,,0,,,77,0
153960,note_on,100,0,1,,,,,,,,,,,,,,,0,,,73,67
153980,note_on,20,0,1,,,,,,,,,,,,,,,0,,,75,0
154080,note_on,100,0,1,,,,,,,,,,,,,,,0,,,71,67
154100,note_on,20,0,1,,,,,,,,,,,,,,,0,,,73,0
154200,note_on,100,0,1,,,,,,,,,,,,,,,0,,,70,67
154220,note_on,20,0,1,,,,,,,,,,,,,,,0,,,71,0
154320,note_on,100,0,1,,,,,,,,,,,,,,,0,,,68,67
154340,note_on,20,0,1,,,,,,,,,,,,,,,0,,,70,0
154440,note_on,100,0,1,,,,,,,,,,,,,,,0,,,66,67
154460,note_on,20,0,1,,,,,,,,,,,,,,,0,,,68,0
154560,note_on,100,0,1,,,,,,,,,,,,,,,0,,,68,67
154560,set_tempo,1920,1,0,,,,,,,,,,,,452830,,,,,,,
154580,note_on,20,0,1,,,,,,,,,,,,,,,0,,,66,0
154680,note_on,100,0,1,,,,,,,,,,,,,,,0,,,65,68
154700,note_on,20,0,1,,,,,,,,,,,,,,,0,,,68,0
154800,note_on,100,0,1,,,,,,,,,,,,,,,0,,,66,72
154800,note_on,2040,0,2,,,,,,,,,,,,,,,0,,,54,63
154820,note_on,20,0,1,,,,,,,,,,,,,,,0,,,65,0
154920,note_on,100,0,1,,,,,,,,,,,,,,,0,,,70,75
154920,note_on,120,0,2,,,,,,,,,,,,,,,0,,,58,65
154940,note_on,20,0,2,,,,,,,,,,,,,,,0,,,54,0
154940,note_on,20,0,1,,,,,,,,,,,,,,,0,,,66,0
155040,note_on,100,0,1,,,,,,,,,,,,,,,0,,,73,74
155040,note_on,100,0,2,,,,,,,,,,,,,,,0,,,61,68
155040,set_tempo,480,1,0,,,,,,,,,,,,449438,,,,,,,
155060,note_on,20,0,1,,,,,,,,,,,,,,,0,,,70,0
155060,note_on,20,0,2,,,,,,,,,,,,,,,0,,,58,0
155080,set_tempo,40,1,0,,,,,,,,,,,,444444,,,,,,,
155160,note_on,100,0,2,,,,,,,,,,,,,,,0,,,59,66
155160,note_on,100,0,1,,,,,,,,,,,,,,,0,,,71,73
155180,note_on,20,0,2,,,,,,,,,,,,,,,0,,,61,0
155180,note_on,20,0,1,,,,,,,,,,,,,,,0,,,73,0
155280,note_on,100,0,2,,,,,,,,,,,,,,,0,,,58,64
155280,note_on,100,0,1,,,,,,,,,,,,,,,0,,,70,73
155280,set_tempo,200,1,0,,,,,,,,,,,,442804,,,,,,,
155300,note_on,20,0,2,,,,,,,,,,,,,,,0,,,59,0
155300,note_on,20,0,1,,,,,,,,,,,,,,,0,,,71,0
155400,note_on,100,0,2,,,,,,,,,,,,,,,0,,,56,63
155400,note_on,100,0,1,,,,,,,,,,,,,,,0,,,68,72
155420,note_on,20,0,1,,,,,,,,,,,,,,,0,,,70,0
155420,note_on,20,0,2,,,,,,,,,,,,,,,0,,,58,0
155480,set_tempo,200,1,0,,,,,,,,,,,,441176,,,,,,,
155520,note_on,100,0,1,,,,,,,,,,,,,,,0,,,66,71
155520,note_on,100,0,2,,,,,,,,,,,,,,,0,,,54,61
155540,note_on,20,0,1,,,,,,,,,,,,,,,0,,,68,0
155540,note_on,20,0,2,,,,,,,,,,,,,,,0,,,56,0
155640,note_on,100,0,1,,,,,,,,,,,,,,,0,,,65,71
155640,note_on,100,0,2,,,,,,,,,,,,,,,0,,,53,61
155660,note_on,20,0,1,,,,,,,,,,,,,,,0,,,66,0
155660,note_on,20,0,2,,,,,,,,,,,,,,,0,,,54,0
155680,set_tempo,200,1,0,,,,,,,,,,,,439560,,,,,,,
155760,note_on,100,0,1,,,,,,,,,,,,,,,0,,,63,72
155760,note_on,100,0,2,,,,,,,,,,,,,,,0,,,51,63
155780,note_on,20,0,1,,,,,,,,,,,,,,,0,,,65,0
155780,note_on,20,0,2,,,,,,,,,,,,,,,0,,,53,0
155880,note_on,100,0,2,,,,,,,,,,,,,,,0,,,49,64
155880,set_tempo,200,1,0,,,,,,,,,,,,437956,,,,,,,
155880,note_on,100,0,1,,,,,,,,,,,,,,,0,,,61,73
155900,note_on,20,0,2,,,,,,,,,,,,,,,0,,,51,0
155900,note_on,20,0,1,,,,,,,,,,,,,,,0,,,63,0
156000,note_on,100,0,2,,,,,,,,,,,,,,,0,,,47,64
156000,note_on,100,0,1,,,,,,,,,,,,,,,0,,,59,74
156020,note_on,20,0,2,,,,,,,,,,,,,,,0,,,49,0
156020,note_on,20,0,1,,,,,,,,,,,,,,,0,,,61,0
156080,set_tempo,200,1,0,,,,,,,,,,,,436364,,,,,,,
156120,note_on,100,0,2,,,,,,,,,,,,,,,0,,,46,65
156120,note_on,100,0,1,,,,,,,,,,,,,,,0,,,58,75
156140,note_on,20,0,2,,,,,,,,,,,,,,,0,,,47,0
156140,note_on,20,0,1,,,,,,,,,,,,,,,0,,,59,0
156240,note_on,100,0,1,,,,,,,,,,,,,,,0,,,56,76
156240,note_on,100,0,2,,,,,,,,,,,,,,,0,,,44,66
156260,note_on,20,0,1,,,,,,,,,,,,,,,0,,,58,0
156260,note_on,20,0,2,,,,,,,,,,,,,,,0,,,46,0
156280,set_tempo,200,1,0,,,,,,,,,,,,434783,,,,,,,
156360,note_on,100,0,1,,,,,,,,,,,,,,,0,,,54,79
156360,note_on,100,0,2,,,,,,,,,,,,,,,0,,,42,66
156380,note_on,20,0,2,,,,,,,,,,,,,,,0,,,44,0
156380,note_on,20,0,1,,,,,,,,,,,,,,,0,,,56,0
156440,set_tempo,160,1,0,,,,,,,,,,,,433213,,,,,,,
156480,set_tempo,40,1,0,,,,,,,,,,,,441599,,,,,,,
156480,note_on,100,0,1,,,,,,,,,,,,,,,0,,,54,0
156480,note_on,0,0,1,,,,,,,,,,,,,,,0,,,49,86
156480,note_on,0,0,2,,,,,,,,,,,,,,,0,,,46,73
156480,note_on,0,0,2,,,,,,,,,,,,,,,0,,,34,61
156480,note_on,100,0,2,,,,,,,,,,,,,,,0,,,42,0
156480,note_on,0,0,1,,,,,,,,,,,,,,,0,,,54,86
156583,control_change,103,0,2,,,,,,,,,,,,,,,0,64,127,,
156720,note_on,137,0,2,,,,,,,,,,,,,,,0,,,46,0
156720,note_on,0,0,2,,,,,,,,,,,,,,,0,,,34,0
156720,note_on,0,0,1,,,,,,,,,,,,,,,0,,,66,88
156720,note_on,240,0,1,,,,,,,,,,,,,,,0,,,54,0
156720,note_on,0,0,1,,,,,,,,,,,,,,,0,,,49,0
156720,note_on,0,0,1,,,,,,,,,,,,,,,0,,,58,74
156720,note_on,0,0,1,,,,,,,,,,,,,,,0,,,61,74
156960,note_on,240,0,2,,,,,,,,,,,,,,,0,,,34,65
156960,note_on,0,0,2,,,,,,,,,,,,,,,0,,,46,77
156960,set_tempo,480,1,0,,,,,,,,,,,,436554,,,,,,,
157200,note_on,480,0,1,,,,,,,,,,,,,,,0,,,66,0
157200,note_on,0,0,2,,,,,,,,,,,,,,,0,,,34,0
157200,note_on,0,0,1,,,,,,,,,,,,,,,0,,,70,87
157200,note_on,0,0,1,,,,,,,,,,,,,,,0,,,66,73
157200,note_on,240,0,2,,,,,,,,,,,,,,,0,,,46,0
157200,note_on,0,0,1,,,,,,,,,,,,,,,0,,,58,0
157200,note_on,0,0,1,,,,,,,,,,,,,,,0,,,61,0
157200,note_on,0,0,1,,,,,,,,,,,,,,,0,,,61,73
157440,note_on,240,0,2,,,,,,,,,,,,,,,0,,,34,64
157440,note_on,0,0,2,,,,,,,,,,,,,,,0,,,46,76
157680,set_tempo,720,1,0,,,,,,,,,,,,431624,,,,,,,
157680,note_on,240,0,2,,,,,,,,,,,,,,,0,,,46,0
157680,note_on,0,0,2,,,,,,,,,,,,,,,0,,,34,0
157680,note_on,0,0,2,,,,,,,,,,,,,,,0,,,34,52
157680,note_on,0,0,1,,,,,,,,,,,,,,,0,,,73,81
157680,note_on,0,0,1,,,,,,,,,,,,,,,0,,,66,69
157680,note_on,0,0,1,,,,,,,,,,,,,,,0,,,61,0
157680,note_on,0,0,1,,,,,,,,,,,,,,,0,,,66,0
157680,note_on,480,0,1,,,,,,,,,,,,,,,0,,,70,0
157680,note_on,0,0,2,,,,,,,,,,,,,,,0,,,46,63
157680,note_on,0,0,1,,,,,,,,,,,,,,,0,,,70,69
157737,control_change,57,0,2,,,,,,,,,,,,,,,0,64,0,,
157800,note_on,63,0,2,,,,,,,,,,,,,,,0,,,46,0
157800,note_on,0,0,1,,,,,,,,,,,,,,,0,,,66,0
157800,note_on,0,0,1,,,,,,,,,,,,,,,0,,,70,0
157800,note_on,120,0,1,,,,,,,,,,,,,,,0,,,73,0
157800,note_on,0,0,2,,,,,,,,,,,,,,,0,,,34,0
157920,note_on,120,0,2,,,,,,,,,,,,,,,0,,,34,57
157920,note_on,0,0,2,,,,,,,,,,,,,,,0,,,46,67
157920,note_on,0,0,1,,,,,,,,,,,,,,,0,,,78,85
157920,note_on,0,0,1,,,,,,,,,,,,,,,0,,,73,71
157920,note_on,120,0,1,,,,,,,,,,,,,,,0,,,70,71
158040,note_on,120,0,1,,,,,,,,,,,,,,,0,,,78,0
158040,note_on,0,0,1,,,,,,,,,,,,,,,0,,,73,0
158040,note_on,120,0,2,,,,,,,,,,,,,,,0,,,46,0
158040,note_on,0,0,1,,,,,,,,,,,,,,,0,,,70,0
158040,note_on,0,0,2,,,,,,,,,,,,,,,0,,,34,0
158160,note_on,120,0,2,,,,,,,,,,,,,,,0,,,34,60
158160,note_on,0,0,2,,,,,,,,,,,,,,,0,,,46,72
158160,note_on,0,0,1,,,,,,,,,,,,,,,0,,,78,74
158160,note_on,120,0,1,,,,,,,,,,,,,,,0,,,73,74
158160,set_tempo,480,1,0,,,,,,,,,,,,457526,,,,,,,
158160,note_on,0,0,1,,,,,,,,,,,,,,,0,,,82,88
158280,note_on,120,0,1,,,,,,,,,,,,,,,0,,,82,0
158280,note_on,0,0,1,,,,,,,,,,,,,,,0,,,78,0
158280,note_on,0,0,1,,,,,,,,,,,,,,,0,,,73,0
158280,note_on,120,0,2,,,,,,,,,,,,,,,0,,,46,0
158280,note_on,0,0,2,,,,,,,,,,,,,,,0,,,34,0
158343,control_change,63,0,2,,,,,,,,,,,,,,,0,64,0,,
158400,note_on,120,0,1,,,,,,,,,,,,,,,0,,,58,75
158400,note_on,0,0,1,,,,,,,,,,,,,,,0,,,64,75
158400,control_change,57,0,2,,,,,,,,,,,,,,,0,64,127,,
158400,note_on,0,0,2,,,,,,,,,,,,,,,0,,,36,61
158400,note_on,0,0,2,,,,,,,,,,,,,,,0,,,48,73
158400,note_on,0,0,1,,,,,,,,,,,,,,,0,,,67,86
158400,set_tempo,240,1,0,,,,,,,,,,,,441599,,,,,,,
158640,note_on,0,0,1,,,,,,,,,,,,,,,0,,,67,74
158640,note_on,0,0,1,,,,,,,,,,,,,,,0,,,70,88
158640,note_on,0,0,1,,,,,,,,,,,,,,,0,,,64,74
158640,note_on,0,0,1,,,,,,,,,,,,,,,0,,,58,0
158640,note_on,0,0,1,,,,,,,,,,,,,,,0,,,64,0
158640,note_on,240,0,1,,,,,,,,,,,,,,,0,,,67,0
158640,note_on,240,0,2,,,,,,,,,,,,,,,0,,,48,0
158640,note_on,0,0,2,,,,,,,,,,,,,,,0,,,36,0
158880,set_tempo,480,1,0,,,,,,,,,,,,436554,,,,,,,
158880,note_on,240,0,2,,,,,,,,,,,,,,,0,,,36,65
158880,note_on,0,0,2,,,,,,,,,,,,,,,0,,,48,77
159120,note_on,0,0,1,,,,,,,,,,,,,,,0,,,64,0
159120,note_on,0,0,1,,,,,,,,,,,,,,,0,,,67,0
159120,note_on,0,0,2,,,,,,,,,,,,,,,0,,,36,0
159120,note_on,240,0,2,,,,,,,,,,,,,,,0,,,48,0
159120,note_on,0,0,1,,,,,,,,,,,,,,,0,,,67,73
159120,note_on,480,0,1,,,,,,,,,,,,,,,0,,,70,0
159120,note_on,0,0,1,,,,,,,,,,,,,,,0,,,76,87
159120,note_on,0,0,1,,,,,,,,,,,,,,,0,,,70,73
159360,note_on,0,0,2,,,,,,,,,,,,,,,0,,,48,76
159360,note_on,240,0,2,,,,,,,,,,,,,,,0,,,36,64
159600,note_on,480,0,1,,,,,,,,,,,,,,,0,,,76,0
159600,note_on,240,0,2,,,,,,,,,,,,,,,0,,,48,0
159600,note_on,0,0,1,,,,,,,,,,,,,,,0,,,67,0
159600,note_on,0,0,1,,,,,,,,,,,,,,,0,,,70,69
159600,note_on,0,0,1,,,,,,,,,,,,,,,0,,,76,69
159600,note_on,0,0,1,,,,,,,,,,,,,,,0,,,79,81
159600,note_on,0,0,2,,,,,,,,,,,,,,,0,,,48,63
159600,set_tempo,720,1,0,,,,,,,,,,,,431624,,,,,,,
159600,note_on,0,0,2,,,,,,,,,,,,,,,0,,,36,0
159600,note_on,0,0,2,,,,,,,,,,,,,,,0,,,36,52
159600,note_on,0,0,1,,,,,,,,,,,,,,,0,,,70,0
159657,control_change,57,0,2,,,,,,,,,,,,,,,0,64,0,,
159720,note_on,0,0,2,,,,,,,,,,,,,,,0,,,36,0
159720,note_on,63,0,2,,,,,,,,,,,,,,,0,,,48,0
159720,note_on,120,0,1,,,,,,,,,,,,,,,0,,,79,0
159720,note_on,0,0,1,,,,,,,,,,,,,,,0,,,76,0
159720,note_on,0,0,1,,,,,,,,,,,,,,,0,,,70,0
159840,note_on,0,0,1,,,,,,,,,,,,,,,0,,,82,85
159840,note_on,0,0,2,,,,,,,,,,,,,,,0,,,48,67
159840,note_on,120,0,2,,,,,,,,,,,,,,,0,,,36,57
159840,note_on,0,0,1,,,,,,,,,,,,,,,0,,,79,71
159840,note_on,120,0,1,,,,,,,,,,,,,,,0,,,76,71
159960,note_on,120,0,2,,,,,,,,,,,,,,,0,,,48,0
159960,note_on,0,0,1,,,,,,,,,,,,,,,0,,,76,0
159960,note_on,0,0,1,,,,,,,,,,,,,,,0,,,79,0
159960,note_on,120,0,1,,,,,,,,,,,,,,,0,,,82,0
159960,note_on,0,0,2,,,,,,,,,,,,,,,0,,,36,0
160080,note_on,0,0,1,,,,,,,,,,,,,,,0,,,82,74
160080,note_on,0,0,2,,,,,,,,,,,,,,,0,,,48,72
160080,note_on,0,0,1,,,,,,,,,,,,,,,0,,,88,88
160080,set_tempo,480,1,0,,,,,,,,,,,,453892,,,,,,,
160080,note_on,120,0,1,,,,,,,,,,,,,,,0,,,79,74
160080,note_on,120,0,2,,,,,,,,,,,,,,,0,,,36,60
160200,note_on,120,0,1,,,,,,,,,,,,,,,0,,,88,0
160200,note_on,0,0,1,,,,,,,,,,,,,,,0,,,82,0
160200,note_on,0,0,1,,,,,,,,,,,,,,,0,,,79,0
160200,note_on,120,0,2,,,,,,,,,,,,,,,0,,,48,0
160200,note_on,0,0,2,,,,,,,,,,,,,,,0,,,36,0
160320,note_on,120,0,2,,,,,,,,,,,,,,,0,,,41,67
160320,set_tempo,240,1,0,,,,,,,,,,,,480000,,,,,,,
160320,note_on,120,0,1,,,,,,,,,,,,,,,0,,,77,89
160320,note_on,0,0,1,,,,,,,,,,,,,,,0,,,80,89
160320,note_on,0,0,1,,,,,,,,,,,,,,,0,,,84,89
160320,note_on,0,0,1,,,,,,,,,,,,,,,0,,,89,106
160354,control_change,34,0,2,,,,,,,,,,,,,,,0,64,127,,
160360,set_tempo,40,1,0,,,,,,,,,,,,465116,,,,,,,
160440,note_on,0,0,2,,,,,,,,,,,,,,,0,,,44,57
160440,note_on,86,0,2,,,,,,,,,,,,,,,0,,,41,0
160480,set_tempo,120,1,0,,,,,,,,,,,,463320,,,,,,,
160560,note_on,120,0,2,,,,,,,,,,,,,,,0,,,44,0
160560,note_on,0,0,2,,,,,,,,,,,,,,,0,,,48,57
160600,set_tempo,120,1,0,,,,,,,,,,,,461538,,,,,,,
160680,note_on,120,0,2,,,,,,,,,,,,,,,0,,,48,0
160680,note_on,0,0,2,,,,,,,,,,,,,,,0,,,53,57
160720,set_tempo,120,1,0,,,,,,,,,,,,459770,,,,,,,
160800,note_on,120,0,2,,,,,,,,,,,,,,,0,,,53,0
160800,note_on,0,0,2,,,,,,,,,,,,,,,0,,,41,67
160840,set_tempo,120,1,0,,,,,,,,,,,,458015,,,,,,,
160920,note_on,0,0,2,,,,,,,,,,,,,,,0,,,44,57
160920,note_on,120,0,2,,,,,,,,,,,,,,,0,,,41,0
160960,set_tempo,120,1,0,,,,,,,,,,,,456274,,,,,,,
161040,note_on,120,0,2,,,,,,,,,,,,,,,0,,,44,0
161040,note_on,0,0,2,,,,,,,,,,,,,,,0,,,48,57
161080,set_tempo,120,1,0,,,,,,,,,,,,454545,,,,,,,
161160,note_on,120,0,2,,,,,,,,,,,,,,,0,,,48,0
161160,note_on,0,0,1,,,,,,,,,,,,,,,0,,,77,77
161160,note_on,0,0,1,,,,,,,,,,,,,,,0,,,89,92
161160,note_on,0,0,1,,,,,,,,,,,,,,,0,,,84,0
161160,note_on,840,0,1,,,,,,,,,,,,,,,0,,,89,0
161160,note_on,0,0,1,,,,,,,,,,,,,,,0,,,77,0
161160,note_on,0,0,1,,,,,,,,,,,,,,,0,,,80,0
161160,note_on,0,0,2,,,,,,,,,,,,,,,0,,,53,57
161200,set_tempo,120,1,0,,,,,,,,,,,,452830,,,,,,,
161280,set_tempo,80,1,0,,,,,,,,,,,,449438,,,,,,,
161280,note_on,0,0,1,,,,,,,,,,,,,,,0,,,77,0
161280,note_on,120,0,1,,,,,,,,,,,,,,,0,,,89,0
161280,note_on,0,0,1,,,,,,,,,,,,,,,0,,,80,81
161280,note_on,0,0,1,,,,,,,,,,,,,,,0,,,92,96
161280,note_on,120,0,2,,,,,,,,,,,,,,,0,,,53,0
161280,note_on,0,0,2,,,,,,,,,,,,,,,0,,,41,67
161314,control_change,34,0,2,,,,,,,,,,,,,,,0,64,0,,
161366,control_change,52,0,2,,,,,,,,,,,,,,,0,64,127,,
161400,note_on,34,0,2,,,,,,,,,,,,,,,0,,,41,0
161400,note_on,0,0,2,,,,,,,,,,,,,,,0,,,44,56
161520,note_on,120,0,2,,,,,,,,,,,,,,,0,,,44,0
161520,note_on,0,0,2,,,,,,,,,,,,,,,0,,,48,57
161600,set_tempo,320,1,0,,,,,,,,,,,,447761,,,,,,,
161640,note_on,120,0,2,,,,,,,,,,,,,,,0,,,48,0
161640,note_on,0,0,1,,,,,,,,,,,,,,,0,,,92,91
161640,note_on,0,0,1,,,,,,,,,,,,,,,0,,,80,76
161640,note_on,0,0,1,,,,,,,,,,,,,,,0,,,80,0
161640,note_on,360,0,1,,,,,,,,,,,,,,,0,,,92,0
161640,note_on,0,0,2,,,,,,,,,,,,,,,0,,,53,57
161760,note_on,0,0,1,,,,,,,,,,,,,,,0,,,80,0
161760,note_on,0,0,1,,,,,,,,,,,,,,,0,,,89,96
161760,note_on,0,0,1,,,,,,,,,,,,,,,0,,,77,81
161760,note_on,120,0,1,,,,,,,,,,,,,,,0,,,92,0
161760,note_on,0,0,2,,,,,,,,,,,,,,,0,,,41,67
161760,note_on,120,0,2,,,,,,,,,,,,,,,0,,,53,0
161880,note_on,0,0,2,,,,,,,,,,,,,,,0,,,44,59
161880,note_on,120,0,2,,,,,,,,,,,,,,,0,,,41,0
161920,set_tempo,320,1,0,,,,,,,,,,,,446097,,,,,,,
162000,note_on,0,0,2,,,,,,,,,,,,,,,0,,,48,59
162000,note_on,120,0,2,,,,,,,,,,,,,,,0,,,44,0
162120,note_on,0,0,1,,,,,,,,,,,,,,,0,,,89,92
162120,note_on,0,0,1,,,,,,,,,,,,,,,0,,,77,77
162120,note_on,0,0,1,,,,,,,,,,,,,,,0,,,77,0
162120,note_on,360,0,1,,,,,,,,,,,,,,,0,,,89,0
162120,note_on,120,0,2,,,,,,,,,,,,,,,0,,,48,0
162120,note_on,0,0,2,,,,,,,,,,,,,,,0,,,53,60
162240,note_on,0,0,1,,,,,,,,,,,,,,,0,,,77,0
162240,note_on,120,0,2,,,,,,,,,,,,,,,0,,,53,0
162240,set_tempo,320,1,0,,,,,,,,,,,,442804,,,,,,,
162240,note_on,120,0,1,,,,,,,,,,,,,,,0,,,89,0
162240,control_change,0,0,2,,,,,,,,,,,,,,,0,64,0,,
162240,note_on,0,0,1,,,,,,,,,,,,,,,0,,,73,81
162240,note_on,0,0,1,,,,,,,,,,,,,,,0,,,85,96
162240,note_on,0,0,2,,,,,,,,,,,,,,,0,,,41,67
162280,control_change,40,0,2,,,,,,,,,,,,,,,0,64,127,,
162360,note_on,0,0,2,,,,,,,,,,,,,,,0,,,44,58
162360,note_on,80,0,2,,,,,,,,,,,,,,,0,,,41,0
162400,set_tempo,160,1,0,,,,,,,,,,,,444444,,,,,,,
162480,note_on,120,0,2,,,,,,,,,,,,,,,0,,,44,0
162480,note_on,0,0,2,,,,,,,,,,,,,,,0,,,49,58
162560,set_tempo,160,1,0,,,,,,,,,,,,446097,,,,,,,
162600,note_on,120,0,2,,,,,,,,,,,,,,,0,,,49,0
162600,note_on,0,0,2,,,,,,,,,,,,,,,0,,,53,58
162600,note_on,0,0,1,,,,,,,,,,,,,,,0,,,73,77
162600,note_on,360,0,1,,,,,,,,,,,,,,,0,,,85,0
162600,note_on,0,0,1,,,,,,,,,,,,,,,0,,,73,0
162600,note_on,0,0,1,,,,,,,,,,,,,,,0,,,85,92
162720,note_on,0,0,2,,,,,,,,,,,,,,,0,,,41,67
162720,note_on,120,0,2,,,,,,,,,,,,,,,0,,,53,0
162720,note_on,120,0,1,,,,,,,,,,,,,,,0,,,85,0
162720,set_tempo,160,1,0,,,,,,,,,,,,447761,,,,,,,
162720,note_on,0,0,1,,,,,,,,,,,,,,,0,,,68,77
162720,note_on,0,0,1,,,,,,,,,,,,,,,0,,,80,91
162720,note_on,0,0,1,,,,,,,,,,,,,,,0,,,73,0
162726,control_change,6,0,2,,,,,,,,,,,,,,,0,64,0,,
162754,control_change,28,0,2,,,,,,,,,,,,,,,0,64,127,,
162840,note_on,0,0,2,,,,,,,,,,,,,,,0,,,44,60
162840,note_on,86,0,2,,,,,,,,,,,,,,,0,,,41,0
162960,note_on,0,0,2,,,,,,,,,,,,,,,0,,,49,60
162960,note_on,120,0,2,,,,,,,,,,,,,,,0,,,44,0
163040,set_tempo,320,1,0,,,,,,,,,,,,452830,,,,,,,
163080,note_on,120,0,2,,,,,,,,,,,,,,,0,,,49,0
163080,note_on,0,0,2,,,,,,,,,,,,,,,0,,,53,60
163080,note_on,0,0,1,,,,,,,,,,,,,,,0,,,80,86
163080,note_on,0,0,1,,,,,,,,,,,,,,,0,,,68,72
163080,note_on,360,0,1,,,,,,,,,,,,,,,0,,,80,0
163080,note_on,0,0,1,,,,,,,,,,,,,,,0,,,68,0
163160,set_tempo,120,1,0,,,,,,,,,,,,454545,,,,,,,
163200,note_on,120,0,2,,,,,,,,,,,,,,,0,,,53,0
163200,note_on,0,0,2,,,,,,,,,,,,,,,0,,,41,67
163200,note_on,0,0,1,,,,,,,,,,,,,,,0,,,81,91
163200,note_on,120,0,1,,,,,,,,,,,,,,,0,,,80,0
163200,note_on,0,0,1,,,,,,,,,,,,,,,0,,,68,0
163200,note_on,0,0,1,,,,,,,,,,,,,,,0,,,69,77
163240,control_change,40,0,2,,,,,,,,,,,,,,,0,64,0,,
163280,set_tempo,120,1,0,,,,,,,,,,,,456274,,,,,,,
163292,control_change,52,0,2,,,,,,,,,,,,,,,0,64,127,,
163320,note_on,28,0,2,,,,,,,,,,,,,,,0,,,41,0
163320,note_on,0,0,2,,,,,,,,,,,,,,,0,,,48,58
163400,set_tempo,120,1,0,,,,,,,,,,,,458015,,,,,,,
163440,note_on,120,0,2,,,,,,,,,,,,,,,0,,,48,0
163440,note_on,0,0,2,,,,,,,,,,,,,,,0,,,51,58
163520,set_tempo,120,1,0,,,,,,,,,,,,459770,,,,,,,
163560,note_on,0,0,2,,,,,,,,,,,,,,,0,,,53,58
163560,note_on,0,0,1,,,,,,,,,,,,,,,0,,,69,0
163560,note_on,0,0,1,,,,,,,,,,,,,,,0,,,81,86
163560,note_on,0,0,1,,,,,,,,,,,,,,,0,,,69,72
163560,note_on,360,0,1,,,,,,,,,,,,,,,0,,,81,0
163560,note_on,120,0,2,,,,,,,,,,,,,,,0,,,51,0
163640,set_tempo,120,1,0,,,,,,,,,,,,461538,,,,,,,
163680,note_on,0,0,1,,,,,,,,,,,,,,,0,,,77,91
163680,note_on,0,0,1,,,,,,,,,,,,,,,0,,,69,0
163680,note_on,0,0,1,,,,,,,,,,,,,,,0,,,65,77
163680,note_on,120,0,1,,,,,,,,,,,,,,,0,,,81,0
163680,note_on,0,0,2,,,,,,,,,,,,,,,0,,,41,67
163680,note_on,120,0,2,,,,,,,,,,,,,,,0,,,53,0
163722,control_change,42,0,2,,,,,,,,,,,,,,,0,64,0,,
163744,control_change,22,0,2,,,,,,,,,,,,,,,0,64,127,,
163800,note_on,0,0,2,,,,,,,,,,,,,,,0,,,48,57
163800,note_on,56,0,2,,,,,,,,,,,,,,,0,,,41,0
163920,note_on,0,0,2,,,,,,,,,,,,,,,0,,,51,57
163920,note_on,120,0,2,,,,,,,,,,,,,,,0,,,48,0
164040,note_on,0,0,1,,,,,,,,,,,,,,,0,,,65,71
164040,note_on,0,0,1,,,,,,,,,,,,,,,0,,,65,0
164040,note_on,360,0,1,,,,,,,,,,,,,,,0,,,77,0
164040,note_on,120,0,2,,,,,,,,,,,,,,,0,,,51,0
164040,note_on,0,0,2,,,,,,,,,,,,,,,0,,,53,57
164040,note_on,0,0,1,,,,,,,,,,,,,,,0,,,77,85
164160,note_on,0,0,1,,,,,,,,,,,,,,,0,,,73,79
164160,note_on,0,0,1,,,,,,,,,,,,,,,0,,,82,94
164160,note_on,0,0,1,,,,,,,,,,,,,,,0,,,70,79
164160,note_on,0,0,1,,,,,,,,,,,,,,,0,,,65,0
164160,note_on,120,0,1,,,,,,,,,,,,,,,0,,,77,0
164160,note_on,0,0,2,,,,,,,,,,,,,,,0,,,41,67
164160,note_on,120,0,2,,,,,,,,,,,,,,,0,,,53,0
164160,note_on,0,0,1,,,,,,,,,,,,,,,0,,,77,79
164160,set_tempo,520,1,0,,,,,,,,,,,,480000,,,,,,,
164171,control_change,11,0,2,,,,,,,,,,,,,,,0,64,0,,
164200,set_tempo,40,1,0,,,,,,,,,,,,465116,,,,,,,
164200,control_change,29,0,2,,,,,,,,,,,,,,,0,64,127,,
164280,note_on,0,0,2,,,,,,,,,,,,,,,0,,,46,57
164280,note_on,80,0,2,,,,,,,,,,,,,,,0,,,41,0
164320,set_tempo,120,1,0,,,,,,,,,,,,463320,,,,,,,
164400,note_on,0,0,2,,,,,,,,,,,,,,,0,,,49,57
164400,note_on,120,0,2,,,,,,,,,,,,,,,0,,,46,0
164440,set_tempo,120,1,0,,,,,,,,,,,,461538,,,,,,,
164520,note_on,0,0,2,,,,,,,,,,,,,,,0,,,53,57
164520,note_on,120,0,2,,,,,,,,,,,,,,,0,,,49,0
164560,set_tempo,120,1,0,,,,,,,,,,,,459770,,,,,,,
164640,note_on,120,0,2,,,,,,,,,,,,,,,0,,,53,0
164640,note_on,0,0,2,,,,,,,,,,,,,,,0,,,41,67
164680,set_tempo,120,1,0,,,,,,,,,,,,458015,,,,,,,
164760,note_on,120,0,2,,,,,,,,,,,,,,,0,,,41,0
164760,note_on,0,0,2,,,,,,,,,,,,,,,0,,,46,55
164800,set_tempo,120,1,0,,,,,,,,,,,,456274,,,,,,,
164880,note_on,0,0,2,,,,,,,,,,,,,,,0,,,49,55
164880,note_on,120,0,2,,,,,,,,,,,,,,,0,,,46,0
164920,set_tempo,120,1,0,,,,,,,,,,,,454545,,,,,,,
165000,note_on,120,0,2,,,,,,,,,,,,,,,0,,,49,0
165000,note_on,0,0,1,,,,,,,,,,,,,,,0,,,82,73
165000,note_on,0,0,2,,,,,,,,,,,,,,,0,,,53,54
165000,note_on,0,0,1,,,,,,,,,,,,,,,0,,,94,87
165000,note_on,0,0,1,,,,,,,,,,,,,,,0,,,70,0
165000,note_on,0,0,1,,,,,,,,,,,,,,,0,,,73,0
165000,note_on,0,0,1,,,,,,,,,,,,,,,0,,,77,0
165000,note_on,840,0,1,,,,,,,,,,,,,,,0,,,82,0
165040,set_tempo,120,1,0,,,,,,,,,,,,452830,,,,,,,
165120,note_on,120,0,1,,,,,,,,,,,,,,,0,,,94,0
165120,note_on,0,0,1,,,,,,,,,,,,,,,0,,,82,0
165120,note_on,0,0,1,,,,,,,,,,,,,,,0,,,85,77
165120,note_on,0,0,1,,,,,,,,,,,,,,,0,,,97,91
165120,set_tempo,80,1,0,,,,,,,,,,,,449438,,,,,,,
165120,note_on,0,0,2,,,,,,,,,,,,,,,0,,,41,63
165120,note_on,120,0,2,,,,,,,,,,,,,,,0,,,53,0
165154,control_change,34,0,2,,,,,,,,,,,,,,,0,64,0,,
165206,control_change,52,0,2,,,,,,,,,,,,,,,0,64,127,,
165240,note_on,0,0,2,,,,,,,,,,,,,,,0,,,46,53
165240,note_on,34,0,2,,,,,,,,,,,,,,,0,,,41,0
165360,note_on,0,0,2,,,,,,,,,,,,,,,0,,,49,54
165360,note_on,120,0,2,,,,,,,,,,,,,,,0,,,46,0
165440,set_tempo,320,1,0,,,,,,,,,,,,447761,,,,,,,
165480,note_on,0,0,1,,,,,,,,,,,,,,,0,,,85,0
165480,note_on,0,0,2,,,,,,,,,,,,,,,0,,,53,54
165480,note_on,120,0,2,,,,,,,,,,,,,,,0,,,49,0
165480,note_on,0,0,1,,,,,,,,,,,,,,,0,,,85,72
165480,note_on,360,0,1,,,,,,,,,,,,,,,0,,,97,0
165480,note_on,0,0,1,,,,,,,,,,,,,,,0,,,97,86
165600,note_on,0,0,1,,,,,,,,,,,,,,,0,,,85,0
165600,note_on,0,0,1,,,,,,,,,,,,,,,0,,,94,91
165600,note_on,0,0,1,,,,,,,,,,,,,,,0,,,82,77
165600,note_on,0,0,2,,,,,,,,,,,,,,,0,,,41,63
165600,note_on,120,0,2,,,,,,,,,,,,,,,0,,,53,0
165600,note_on,120,0,1,,,,,,,,,,,,,,,0,,,97,0
165720,note_on,120,0,2,,,,,,,,,,,,,,,0,,,41,0
165720,note_on,0,0,2,,,,,,,,,,,,,,,0,,,46,56
165760,set_tempo,320,1,0,,,,,,,,,,,,446097,,,,,,,
165840,note_on,120,0,2,,,,,,,,,,,,,,,0,,,46,0
165840,note_on,0,0,2,,,,,,,,,,,,,,,0,,,49,56
165960,note_on,0,0,1,,,,,,,,,,,,,,,0,,,82,73
165960,note_on,120,0,2,,,,,,,,,,,,,,,0,,,49,0
165960,note_on,0,0,2,,,,,,,,,,,,,,,0,,,53,57
165960,note_on,0,0,1,,,,,,,,,,,,,,,0,,,82,0
165960,note_on,360,0,1,,,,,,,,,,,,,,,0,,,94,0
165960,note_on,0,0,1,,,,,,,,,,,,,,,0,,,94,87
166080,note_on,120,0,1,,,,,,,,,,,,,,,0,,,94,0
166080,set_tempo,320,1,0,,,,,,,,,,,,442804,,,,,,,
166080,note_on,0,0,2,,,,,,,,,,,,,,,0,,,42,63
166080,note_on,0,0,1,,,,,,,,,,,,,,,0,,,82,0
166080,note_on,0,0,1,,,,,,,,,,,,,,,0,,,78,77
166080,note_on,0,0,1,,,,,,,,,,,,,,,0,,,90,91
166080,note_on,120,0,2,,,,,,,,,,,,,,,0,,,53,0
166080,control_change,0,0,2,,,,,,,,,,,,,,,0,64,0,,
166120,control_change,40,0,2,,,,,,,,,,,,,,,0,64,127,,
166200,note_on,80,0,2,,,,,,,,,,,,,,,0,,,42,0
166200,note_on,0,0,2,,,,,,,,,,,,,,,0,,,46,55
166240,set_tempo,160,1,0,,,,,,,,,,,,444444,,,,,,,
166320,note_on,120,0,2,,,,,,,,,,,,,,,0,,,46,0
166320,note_on,0,0,2,,,,,,,,,,,,,,,0,,,49,55
166400,set_tempo,160,1,0,,,,,,,,,,,,446097,,,,,,,
166440,note_on,0,0,1,,,,,,,,,,,,,,,0,,,78,73
166440,note_on,0,0,1,,,,,,,,,,,,,,,0,,,78,0
166440,note_on,360,0,1,,,,,,,,,,,,,,,0,,,90,0
166440,note_on,0,0,1,,,,,,,,,,,,,,,0,,,90,87
166440,note_on,120,0,2,,,,,,,,,,,,,,,0,,,49,0
166440,note_on,0,0,2,,,,,,,,,,,,,,,0,,,54,55
166560,set_tempo,160,1,0,,,,,,,,,,,,447761,,,,,,,
166560,note_on,120,0,1,,,,,,,,,,,,,,,0,,,90,0
166560,note_on,0,0,1,,,,,,,,,,,,,,,0,,,78,0
166560,note_on,0,0,1,,,,,,,,,,,,,,,0,,,77,73
166560,note_on,0,0,1,,,,,,,,,,,,,,,0,,,89,86
166560,note_on,0,0,2,,,,,,,,,,,,,,,0,,,42,63
166560,note_on,120,0,2,,,,,,,,,,,,,,,0,,,54,0
166566,control_change,6,0,2,,,,,,,,,,,,,,,0,64,0,,
166594,control_change,28,0,2,,,,,,,,,,,,,,,0,64,127,,
166680,note_on,0,0,2,,,,,,,,,,,,,,,0,,,46,57
166680,note_on,86,0,2,,,,,,,,,,,,,,,0,,,42,0
166800,note_on,120,0,2,,,,,,,,,,,,,,,0,,,46,0
166800,note_on,0,0,2,,,,,,,,,,,,,,,0,,,49,57
166880,set_tempo,320,1,0,,,,,,,,,,,,452830,,,,,,,
166920,note_on,0,0,2,,,,,,,,,,,,,,,0,,,54,57
166920,note_on,120,0,2,,,,,,,,,,,,,,,0,,,49,0
166920,note_on,0,0,1,,,,,,,,,,,,,,,0,,,89,80
166920,note_on,0,0,1,,,,,,,,,,,,,,,0,,,77,68
166920,note_on,0,0,1,,,,,,,,,,,,,,,0,,,77,0
166920,note_on,360,0,1,,,,,,,,,,,,,,,0,,,89,0
167000,set_tempo,120,1,0,,,,,,,,,,,,454545,,,,,,,
167040,note_on,0,0,2,,,,,,,,,,,,,,,0,,,43,63
167040,note_on,0,0,1,,,,,,,,,,,,,,,0,,,88,86
167040,note_on,0,0,1,,,,,,,,,,,,,,,0,,,76,73
167040,note_on,0,0,1,,,,,,,,,,,,,,,0,,,77,0
167040,note_on,120,0,1,,,,,,,,,,,,,,,0,,,89,0
167040,note_on,120,0,2,,,,,,,,,,,,,,,0,,,54,0
167080,control_change,40,0,2,,,,,,,,,,,,,,,0,64,0,,
167120,set_tempo,120,1,0,,,,,,,,,,,,456274,,,,,,,
167132,control_change,52,0,2,,,,,,,,,,,,,,,0,64,127,,
167160,note_on,0,0,2,,,,,,,,,,,,,,,0,,,46,55
167160,note_on,28,0,2,,,,,,,,,,,,,,,0,,,43,0
167240,set_tempo,120,1,0,,,,,,,,,,,,458015,,,,,,,
167280,note_on,0,0,2,,,,,,,,,,,,,,,0,,,48,55
167280,note_on,120,0,2,,,,,,,,,,,,,,,0,,,46,0
167360,set_tempo,120,1,0,,,,,,,,,,,,459770,,,,,,,
167400,note_on,0,0,1,,,,,,,,,,,,,,,0,,,88,80
167400,note_on,0,0,1,,,,,,,,,,,,,,,0,,,76,68
167400,note_on,0,0,1,,,,,,,,,,,,,,,0,,,76,0
167400,note_on,360,0,1,,,,,,,,,,,,,,,0,,,88,0
167400,note_on,0,0,2,,,,,,,,,,,,,,,0,,,55,55
167400,note_on,120,0,2,,,,,,,,,,,,,,,0,,,48,0
167480,set_tempo,120,1,0,,,,,,,,,,,,461538,,,,,,,
167520,note_on,120,0,2,,,,,,,,,,,,,,,0,,,55,0
167520,note_on,0,0,2,,,,,,,,,,,,,,,0,,,43,63
167520,note_on,120,0,1,,,,,,,,,,,,,,,0,,,88,0
167520,note_on,0,0,1,,,,,,,,,,,,,,,0,,,76,0
167520,note_on,0,0,1,,,,,,,,,,,,,,,0,,,84,73
167520,note_on,0,0,1,,,,,,,,,,,,,,,0,,,96,86
167562,control_change,42,0,2,,,,,,,,,,,,,,,0,64,0,,
167584,control_change,22,0,2,,,,,,,,,,,,,,,0,64,127,,
167640,note_on,0,0,2,,,,,,,,,,,,,,,0,,,46,54
167640,note_on,56,0,2,,,,,,,,,,,,,,,0,,,43,0
167760,note_on,0,0,2,,,,,,,,,,,,,,,0,,,48,54
167760,note_on,120,0,2,,,,,,,,,,,,,,,0,,,46,0
167880,note_on,0,0,1,,,,,,,,,,,,,,,0,,,96,79
167880,note_on,360,0,1,,,,,,,,,,,,,,,0,,,96,0
167880,note_on,0,0,1,,,,,,,,,,,,,,,0,,,84,0
167880,note_on,0,0,1,,,,,,,,,,,,,,,0,,,84,67
167880,note_on,120,0,2,,,,,,,,,,,,,,,0,,,48,0
167880,note_on,0,0,2,,,,,,,,,,,,,,,0,,,55,54
168000,note_on,0,0,1,,,,,,,,,,,,,,,0,,,84,0
168000,note_on,120,0,2,,,,,,,,,,,,,,,0,,,55,0
168000,note_on,0,0,2,,,,,,,,,,,,,,,0,,,44,63
168000,set_tempo,520,1,0,,,,,,,,,,,,480000,,,,,,,
168000,note_on,0,0,1,,,,,,,,,,,,,,,0,,,80,79
168000,note_on,0,0,1,,,,,,,,,,,,,,,0,,,84,79
168000,note_on,0,0,1,,,,,,,,,,,,,,,0,,,89,94
168000,note_on,120,0,1,,,,,,,,,,,,,,,0,,,96,0
168000,note_on,0,0,1,,,,,,,,,,,,,,,0,,,77,79
168011,control_change,11,0,2,,,,,,,,,,,,,,,0,64,0,,
168034,control_change,23,0,2,,,,,,,,,,,,,,,0,64,127,,
168040,set_tempo,40,1,0,,,,,,,,,,,,465116,,,,,,,
168120,note_on,86,0,2,,,,,,,,,,,,,,,0,,,44,0
168120,note_on,0,0,2,,,,,,,,,,,,,,,0,,,48,54
168160,set_tempo,120,1,0,,,,,,,,,,,,463320,,,,,,,
168240,note_on,120,0,2,,,,,,,,,,,,,,,0,,,48,0
168240,note_on,0,0,2,,,,,,,,,,,,,,,0,,,53,54
168280,set_tempo,120,1,0,,,,,,,,,,,,461538,,,,,,,
168360,note_on,120,0,2,,,,,,,,,,,,,,,0,,,53,0
168360,note_on,0,0,2,,,,,,,,,,,,,,,0,,,56,54
168400,set_tempo,120,1,0,,,,,,,,,,,,459770,,,,,,,
168480,note_on,120,0,2,,,,,,,,,,,,,,,0,,,56,0
168480,note_on,0,0,2,,,,,,,,,,,,,,,0,,,44,63
168520,set_tempo,120,1,0,,,,,,,,,,,,458015,,,,,,,
168600,note_on,120,0,2,,,,,,,,,,,,,,,0,,,44,0
168600,note_on,0,0,2,,,,,,,,,,,,,,,0,,,48,54
168640,set_tempo,120,1,0,,,,,,,,,,,,456274,,,,,,,
168720,note_on,0,0,2,,,,,,,,,,,,,,,0,,,53,54
168720,note_on,120,0,2,,,,,,,,,,,,,,,0,,,48,0
168760,set_tempo,120,1,0,,,,,,,,,,,,454545,,,,,,,
168840,note_on,120,0,2,,,,,,,,,,,,,,,0,,,53,0
168840,note_on,0,0,2,,,,,,,,,,,,,,,0,,,56,54
168840,note_on,0,0,1,,,,,,,,,,,,,,,0,,,84,0
168840,note_on,0,0,1,,,,,,,,,,,,,,,0,,,77,73
168840,note_on,0,0,1,,,,,,,,,,,,,,,0,,,89,87
168840,note_on,0,0,1,,,,,,,,,,,,,,,0,,,80,0
168840,note_on,0,0,1,,,,,,,,,,,,,,,0,,,77,0
168840,note_on,840,0,1,,,,,,,,,,,,,,,0,,,89,0
168880,set_tempo,120,1,0,,,,,,,,,,,,452830,,,,,,,
168960,control_change,0,0,2,,,,,,,,,,,,,,,0,64,0,,
168960,note_on,0,0,2,,,,,,,,,,,,,,,0,,,44,63
168960,set_tempo,80,1,0,,,,,,,,,,,,449438,,,,,,,
168960,note_on,120,0,1,,,,,,,,,,,,,,,0,,,89,0
168960,note_on,0,0,1,,,,,,,,,,,,,,,0,,,77,0
168960,note_on,0,0,1,,,,,,,,,,,,,,,0,,,80,77
168960,note_on,0,0,1,,,,,,,,,,,,,,,0,,,92,91
168960,note_on,120,0,2,,,,,,,,,,,,,,,0,,,56,0
169006,control_change,46,0,2,,,,,,,,,,,,,,,0,64,127,,
169080,note_on,0,0,2,,,,,,,,,,,,,,,0,,,48,53
169080,note_on,74,0,2,,,,,,,,,,,,,,,0,,,44,0
169200,note_on,0,0,2,,,,,,,,,,,,,,,0,,,53,54
169200,note_on,120,0,2,,,,,,,,,,,,,,,0,,,48,0
169280,set_tempo,320,1,0,,,,,,,,,,,,447761,,,,,,,
169320,note_on,0,0,1,,,,,,,,,,,,,,,0,,,92,86
169320,note_on,360,0,1,,,,,,,,,,,,,,,0,,,92,0
169320,note_on,0,0,1,,,,,,,,,,,,,,,0,,,80,72
169320,note_on,0,0,2,,,,,,,,,,,,,,,0,,,56,54
169320,note_on,0,0,1,,,,,,,,,,,,,,,0,,,80,0
169320,note_on,120,0,2,,,,,,,,,,,,,,,0,,,53,0
169440,note_on,0,0,1,,,,,,,,,,,,,,,0,,,89,91
169440,note_on,0,0,1,,,,,,,,,,,,,,,0,,,80,0
169440,note_on,0,0,1,,,,,,,,,,,,,,,0,,,77,77
169440,note_on,120,0,1,,,,,,,,,,,,,,,0,,,92,0
169440,note_on,120,0,2,,,,,,,,,,,,,,,0,,,56,0
169440,note_on,0,0,2,,,,,,,,,,,,,,,0,,,44,63
169560,note_on,120,0,2,,,,,,,,,,,,,,,0,,,44,0
169560,note_on,0,0,2,,,,,,,,,,,,,,,0,,,48,56
169600,set_tempo,320,1,0,,,,,,,,,,,,446097,,,,,,,
169680,note_on,0,0,2,,,,,,,,,,,,,,,0,,,53,56
169680,note_on,120,0,2,,,,,,,,,,,,,,,0,,,48,0
169800,note_on,120,0,2,,,,,,,,,,,,,,,0,,,53,0
169800,note_on,360,0,1,,,,,,,,,,,,,,,0,,,89,0
169800,note_on,0,0,1,,,,,,,,,,,,,,,0,,,77,0
169800,note_on,0,0,1,,,,,,,,,,,,,,,0,,,77,73
169800,note_on,0,0,1,,,,,,,,,,,,,,,0,,,89,87
169800,note_on,0,0,2,,,,,,,,,,,,,,,0,,,56,57
169920,note_on,120,0,1,,,,,,,,,,,,,,,0,,,89,0
169920,note_on,0,0,1,,,,,,,,,,,,,,,0,,,77,0
169920,note_on,0,0,1,,,,,,,,,,,,,,,0,,,85,91
169920,note_on,0,0,1,,,,,,,,,,,,,,,0,,,73,77
169920,control_change,0,0,2,,,,,,,,,,,,,,,0,64,0,,
169920,note_on,0,0,2,,,,,,,,,,,,,,,0,,,44,63
169920,note_on,120,0,2,,,,,,,,,,,,,,,0,,,56,0
169920,set_tempo,320,1,0,,,,,,,,,,,,442804,,,,,,,
169960,control_change,40,0,2,,,,,,,,,,,,,,,0,64,127,,
170040,note_on,0,0,2,,,,,,,,,,,,,,,0,,,49,55
170040,note_on,80,0,2,,,,,,,,,,,,,,,0,,,44,0
170080,set_tempo,160,1,0,,,,,,,,,,,,444444,,,,,,,
170160,note_on,0,0,2,,,,,,,,,,,,,,,0,,,53,55
170160,note_on,120,0,2,,,,,,,,,,,,,,,0,,,49,0
170240,set_tempo,160,1,0,,,,,,,,,,,,446097,,,,,,,
170280,note_on,0,0,2,,,,,,,,,,,,,,,0,,,56,55
170280,note_on,120,0,2,,,,,,,,,,,,,,,0,,,53,0
170280,note_on,360,0,1,,,,,,,,,,,,,,,0,,,85,0
170280,note_on,0,0,1,,,,,,,,,,,,,,,0,,,73,0
170280,note_on,0,0,1,,,,,,,,,,,,,,,0,,,73,73
170280,note_on,0,0,1,,,,,,,,,,,,,,,0,,,85,87
170400,note_on,0,0,2,,,,,,,,,,,,,,,0,,,44,63
170400,set_tempo,160,1,0,,,,,,,,,,,,447761,,,,,,,
170400,note_on,120,0,2,,,,,,,,,,,,,,,0,,,56,0
170400,note_on,120,0,1,,,,,,,,,,,,,,,0,,,85,0
170400,note_on,0,0,1,,,,,,,,,,,,,,,0,,,73,0
170400,note_on,0,0,1,,,,,,,,,,,,,,,0,,,68,73
170400,note_on,0,0,1,,,,,,,,,,,,,,,0,,,80,86
170406,control_change,6,0,2,,,,,,,,,,,,,,,0,64,0,,
170434,control_change,28,0,2,,,,,,,,,,,,,,,0,64,127,,
170520,note_on,86,0,2,,,,,,,,,,,,,,,0,,,44,0
170520,note_on,0,0,2,,,,,,,,,,,,,,,0,,,49,57
170640,note_on,120,0,2,,,,,,,,,,,,,,,0,,,49,0
170640,note_on,0,0,2,,,,,,,,,,,,,,,0,,,53,57
170720,set_tempo,320,1,0,,,,,,,,,,,,452830,,,,,,,
170760,note_on,0,0,2,,,,,,,,,,,,,,,0,,,56,57
170760,note_on,120,0,2,,,,,,,,,,,,,,,0,,,53,0
170760,note_on,0,0,1,,,,,,,,,,,,,,,0,,,80,80
170760,note_on,0,0,1,,,,,,,,,,,,,,,0,,,68,68
170760,note_on,360,0,1,,,,,,,,,,,,,,,0,,,80,0
170760,note_on,0,0,1,,,,,,,,,,,,,,,0,,,68,0
170840,set_tempo,120,1,0,,,,,,,,,,,,454545,,,,,,,
170880,note_on,120,0,1,,,,,,,,,,,,,,,0,,,80,0
170880,note_on,0,0,1,,,,,,,,,,,,,,,0,,,68,0
170880,note_on,120,0,2,,,,,,,,,,,,,,,0,,,56,0
170880,note_on,0,0,1,,,,,,,,,,,,,,,0,,,72,73
170880,note_on,0,0,2,,,,,,,,,,,,,,,0,,,44,63
170880,note_on,0,0,1,,,,,,,,,,,,,,,0,,,84,86
170897,control_change,17,0,2,,,,,,,,,,,,,,,0,64,0,,
170926,control_change,29,0,2,,,,,,,,,,,,,,,0,64,127,,
170960,set_tempo,120,1,0,,,,,,,,,,,,456274,,,,,,,
171000,note_on,0,0,2,,,,,,,,,,,,,,,0,,,51,55
171000,note_on,74,0,2,,,,,,,,,,,,,,,0,,,44,0
171080,set_tempo,120,1,0,,,,,,,,,,,,458015,,,,,,,
171120,note_on,120,0,2,,,,,,,,,,,,,,,0,,,51,0
171120,note_on,0,0,2,,,,,,,,,,,,,,,0,,,54,55
171200,set_tempo,120,1,0,,,,,,,,,,,,459770,,,,,,,
171240,note_on,120,0,2,,,,,,,,,,,,,,,0,,,54,0
171240,note_on,360,0,1,,,,,,,,,,,,,,,0,,,84,0
171240,note_on,0,0,2,,,,,,,,,,,,,,,0,,,56,55
171240,note_on,0,0,1,,,,,,,,,,,,,,,0,,,72,0
171240,note_on,0,0,1,,,,,,,,,,,,,,,0,,,72,68
171240,note_on,0,0,1,,,,,,,,,,,,,,,0,,,84,80
171320,set_tempo,120,1,0,,,,,,,,,,,,461538,,,,,,,
171360,note_on,0,0,2,,,,,,,,,,,,,,,0,,,44,63
171360,note_on,120,0,2,,,,,,,,,,,,,,,0,,,56,0
171360,note_on,120,0,1,,,,,,,,,,,,,,,0,,,84,0
171360,note_on,0,0,1,,,,,,,,,,,,,,,0,,,72,0
171360,note_on,0,0,1,,,,,,,,,,,,,,,0,,,68,73
171360,note_on,0,0,1,,,,,,,,,,,,,,,0,,,80,86
171402,control_change,42,0,2,,,,,,,,,,,,,,,0,64,0,,
171424,control_change,22,0,2,,,,,,,,,,,,,,,0,64,127,,
171480,note_on,56,0,2,,,,,,,,,,,,,,,0,,,44,0
171480,note_on,0,0,2,,,,,,,,,,,,,,,0,,,51,54
171600,note_on,120,0,2,,,,,,,,,,,,,,,0,,,51,0
171600,note_on,0,0,2,,,,,,,,,,,,,,,0,,,54,54
171720,note_on,0,0,1,,,,,,,,,,,,,,,0,,,80,79
171720,note_on,0,0,1,,,,,,,,,,,,,,,0,,,68,67
171720,note_on,120,0,2,,,,,,,,,,,,,,,0,,,54,0
171720,note_on,360,0,1,,,,,,,,,,,,,,,0,,,80,0
171720,note_on,0,0,1,,,,,,,,,,,,,,,0,,,68,0
171720,note_on,0,0,2,,,,,,,,,,,,,,,0,,,56,54
171840,control_change,0,0,2,,,,,,,,,,,,,,,0,64,0,,
171840,note_on,120,0,2,,,,,,,,,,,,,,,0,,,56,0
171840,note_on,0,0,2,,,,,,,,,,,,,,,0,,,44,67
171840,note_on,0,0,1,,,,,,,,,,,,,,,0,,,73,79
171840,set_tempo,520,1,0,,,,,,,,,,,,480000,,,,,,,
171840,note_on,120,0,1,,,,,,,,,,,,,,,0,,,80,0
171840,note_on,0,0,1,,,,,,,,,,,,,,,0,,,68,0
171840,note_on,0,0,1,,,,,,,,,,,,,,,0,,,85,94
171840,note_on,0,0,1,,,,,,,,,,,,,,,0,,,80,79
171840,note_on,0,0,1,,,,,,,,,,,,,,,0,,,77,79
171880,set_tempo,40,1,0,,,,,,,,,,,,465116,,,,,,,
171897,control_change,57,0,2,,,,,,,,,,,,,,,0,64,127,,
171960,note_on,0,0,2,,,,,,,,,,,,,,,0,,,49,57
171960,note_on,63,0,2,,,,,,,,,,,,,,,0,,,44,0
172000,set_tempo,120,1,0,,,,,,,,,,,,463320,,,,,,,
172080,note_on,0,0,2,,,,,,,,,,,,,,,0,,,53,57
172080,note_on,120,0,2,,,,,,,,,,,,,,,0,,,49,0
172120,set_tempo,120,1,0,,,,,,,,,,,,461538,,,,,,,
172200,note_on,0,0,2,,,,,,,,,,,,,,,0,,,56,57
172200,note_on,120,0,2,,,,,,,,,,,,,,,0,,,53,0
172240,set_tempo,120,1,0,,,,,,,,,,,,459770,,,,,,,
172320,note_on,120,0,2,,,,,,,,,,,,,,,0,,,56,0
172320,note_on,0,0,2,,,,,,,,,,,,,,,0,,,44,67
172360,set_tempo,120,1,0,,,,,,,,,,,,458015,,,,,,,
172440,note_on,120,0,2,,,,,,,,,,,,,,,0,,,44,0
172440,note_on,0,0,2,,,,,,,,,,,,,,,0,,,49,55
172480,set_tempo,120,1,0,,,,,,,,,,,,456274,,,,,,,
172560,note_on,120,0,2,,,,,,,,,,,,,,,0,,,49,0
172560,note_on,0,0,2,,,,,,,,,,,,,,,0,,,53,55
172600,set_tempo,120,1,0,,,,,,,,,,,,454545,,,,,,,
172680,note_on,120,0,2,,,,,,,,,,,,,,,0,,,53,0
172680,note_on,0,0,1,,,,,,,,,,,,,,,0,,,85,81
172680,note_on,0,0,1,,,,,,,,,,,,,,,0,,,73,69
172680,note_on,840,0,1,,,,,,,,,,,,,,,0,,,85,0
172680,note_on,0,0,1,,,,,,,,,,,,,,,0,,,77,0
172680,note_on,0,0,1,,,,,,,,,,,,,,,0,,,73,0
172680,note_on,0,0,2,,,,,,,,,,,,,,,0,,,56,51
172680,note_on,0,0,1,,,,,,,,,,,,,,,0,,,80,0
172720,set_tempo,120,1,0,,,,,,,,,,,,452830,,,,,,,
172800,note_on,120,0,2,,,,,,,,,,,,,,,0,,,56,0
172800,control_change,0,0,2,,,,,,,,,,,,,,,0,64,0,,
172800,note_on,0,0,2,,,,,,,,,,,,,,,0,,,45,59
172800,note_on,0,0,1,,,,,,,,,,,,,,,0,,,77,73
172800,note_on,0,0,1,,,,,,,,,,,,,,,0,,,89,86
172800,note_on,0,0,1,,,,,,,,,,,,,,,0,,,73,0
172800,note_on,120,0,1,,,,,,,,,,,,,,,0,,,85,0
172800,set_tempo,80,1,0,,,,,,,,,,,,449438,,,,,,,
172834,control_change,34,0,2,,,,,,,,,,,,,,,0,64,127,,
172920,note_on,86,0,2,,,,,,,,,,,,,,,0,,,45,0
172920,note_on,0,0,2,,,,,,,,,,,,,,,0,,,49,50
173040,note_on,0,0,2,,,,,,,,,,,,,,,0,,,53,51
173040,note_on,120,0,2,,,,,,,,,,,,,,,0,,,49,0
173120,set_tempo,320,1,0,,,,,,,,,,,,447761,,,,,,,
173160,note_on,120,0,2,,,,,,,,,,,,,,,0,,,53,0
173160,note_on,0,0,2,,,,,,,,,,,,,,,0,,,57,51
173160,note_on,0,0,1,,,,,,,,,,,,,,,0,,,77,68
173160,note_on,360,0,1,,,,,,,,,,,,,,,0,,,89,0
173160,note_on,0,0,1,,,,,,,,,,,,,,,0,,,77,0
173160,note_on,0,0,1,,,,,,,,,,,,,,,0,,,89,80
173280,note_on,0,0,2,,,,,,,,,,,,,,,0,,,46,59
173280,note_on,120,0,2,,,,,,,,,,,,,,,0,,,57,0
173280,note_on,120,0,1,,,,,,,,,,,,,,,0,,,89,0
173280,note_on,0,0,1,,,,,,,,,,,,,,,0,,,77,0
173280,note_on,0,0,1,,,,,,,,,,,,,,,0,,,73,73
173280,note_on,0,0,1,,,,,,,,,,,,,,,0,,,85,86
173400,note_on,120,0,2,,,,,,,,,,,,,,,0,,,46,0
173400,note_on,0,0,2,,,,,,,,,,,,,,,0,,,49,53
173440,set_tempo,320,1,0,,,,,,,,,,,,446097,,,,,,,
173520,note_on,120,0,2,,,,,,,,,,,,,,,0,,,49,0
173520,note_on,0,0,2,,,,,,,,,,,,,,,0,,,53,53
173640,note_on,360,0,1,,,,,,,,,,,,,,,0,,,85,0
173640,note_on,0,0,1,,,,,,,,,,,,,,,0,,,73,0
173640,note_on,0,0,1,,,,,,,,,,,,,,,0,,,73,69
173640,note_on,0,0,1,,,,,,,,,,,,,,,0,,,85,81
173640,note_on,120,0,2,,,,,,,,,,,,,,,0,,,53,0
173640,note_on,0,0,2,,,,,,,,,,,,,,,0,,,58,54
173760,control_change,0,0,2,,,,,,,,,,,,,,,0,64,0,,
173760,note_on,0,0,2,,,,,,,,,,,,,,,0,,,48,59
173760,set_tempo,320,1,0,,,,,,,,,,,,442804,,,,,,,
173760,note_on,120,0,2,,,,,,,,,,,,,,,0,,,58,0
173760,note_on,0,0,1,,,,,,,,,,,,,,,0,,,84,86
173760,note_on,0,0,1,,,,,,,,,,,,,,,0,,,72,73
173760,note_on,0,0,1,,,,,,,,,,,,,,,0,,,73,0
173760,note_on,120,0,1,,,,,,,,,,,,,,,0,,,85,0
173800,control_change,40,0,2,,,,,,,,,,,,,,,0,64,127,,
173880,note_on,80,0,2,,,,,,,,,,,,,,,0,,,48,0
173880,note_on,0,0,2,,,,,,,,,,,,,,,0,,,53,52
173920,set_tempo,160,1,0,,,,,,,,,,,,444444,,,,,,,
174000,note_on,0,0,2,,,,,,,,,,,,,,,0,,,56,52
174000,note_on,120,0,2,,,,,,,,,,,,,,,0,,,53,0
174080,set_tempo,160,1,0,,,,,,,,,,,,446097,,,,,,,
174120,note_on,0,0,1,,,,,,,,,,,,,,,0,,,72,0
174120,note_on,360,0,1,,,,,,,,,,,,,,,0,,,84,0
174120,note_on,120,0,2,,,,,,,,,,,,,,,0,,,56,0
174120,note_on,0,0,1,,,,,,,,,,,,,,,0,,,84,81
174120,note_on,0,0,1,,,,,,,,,,,,,,,0,,,72,69
174120,note_on,0,0,2,,,,,,,,,,,,,,,0,,,60,52
174240,note_on,120,0,2,,,,,,,,,,,,,,,0,,,60,0
174240,note_on,0,0,2,,,,,,,,,,,,,,,0,,,49,59
174240,note_on,0,0,1,,,,,,,,,,,,,,,0,,,72,0
174240,set_tempo,160,1,0,,,,,,,,,,,,447761,,,,,,,
174240,note_on,0,0,1,,,,,,,,,,,,,,,0,,,70,69
174240,note_on,120,0,1,,,,,,,,,,,,,,,0,,,84,0
174240,note_on,0,0,1,,,,,,,,,,,,,,,0,,,82,80
174246,control_change,6,0,2,,,,,,,,,,,,,,,0,64,0,,
174274,control_change,28,0,2,,,,,,,,,,,,,,,0,64,127,,
174360,note_on,0,0,2,,,,,,,,,,,,,,,0,,,53,54
174360,note_on,86,0,2,,,,,,,,,,,,,,,0,,,49,0
174480,note_on,0,0,2,,,,,,,,,,,,,,,0,,,56,54
174480,note_on,120,0,2,,,,,,,,,,,,,,,0,,,53,0
174560,set_tempo,320,1,0,,,,,,,,,,,,452830,,,,,,,
174600,note_on,0,0,1,,,,,,,,,,,,,,,0,,,70,64
174600,note_on,360,0,1,,,,,,,,,,,,,,,0,,,82,0
174600,note_on,120,0,2,,,,,,,,,,,,,,,0,,,56,0
174600,note_on,0,0,2,,,,,,,,,,,,,,,0,,,61,54
174600,note_on,0,0,1,,,,,,,,,,,,,,,0,,,70,0
174600,note_on,0,0,1,,,,,,,,,,,,,,,0,,,82,76
174680,set_tempo,120,1,0,,,,,,,,,,,,454545,,,,,,,
174720,note_on,0,0,1,,,,,,,,,,,,,,,0,,,70,0
174720,note_on,0,0,1,,,,,,,,,,,,,,,0,,,72,69
174720,note_on,0,0,1,,,,,,,,,,,,,,,0,,,84,80
174720,note_on,120,0,2,,,,,,,,,,,,,,,0,,,61,0
174720,control_change,0,0,2,,,,,,,,,,,,,,,0,64,0,,
174720,note_on,0,0,2,,,,,,,,,,,,,,,0,,,48,59
174720,note_on,120,0,1,,,,,,,,,,,,,,,0,,,82,0
174760,control_change,40,0,2,,,,,,,,,,,,,,,0,64,127,,
174800,set_tempo,120,1,0,,,,,,,,,,,,456274,,,,,,,
174840,note_on,0,0,2,,,,,,,,,,,,,,,0,,,53,52
174840,note_on,80,0,2,,,,,,,,,,,,,,,0,,,48,0
174920,set_tempo,120,1,0,,,,,,,,,,,,458015,,,,,,,
174960,note_on,0,0,2,,,,,,,,,,,,,,,0,,,56,52
174960,note_on,120,0,2,,,,,,,,,,,,,,,0,,,53,0
175040,set_tempo,120,1,0,,,,,,,,,,,,459770,,,,,,,
175080,note_on,0,0,2,,,,,,,,,,,,,,,0,,,60,52
175080,note_on,0,0,1,,,,,,,,,,,,,,,0,,,84,76
175080,note_on,360,0,1,,,,,,,,,,,,,,,0,,,84,0
175080,note_on,0,0,1,,,,,,,,,,,,,,,0,,,72,0
175080,note_on,120,0,2,,,,,,,,,,,,,,,0,,,56,0
175080,note_on,0,0,1,,,,,,,,,,,,,,,0,,,72,64
175160,set_tempo,120,1,0,,,,,,,,,,,,461538,,,,,,,
175200,note_on,0,0,2,,,,,,,,,,,,,,,0,,,48,59
175200,note_on,0,0,1,,,,,,,,,,,,,,,0,,,84,80
175200,note_on,0,0,1,,,,,,,,,,,,,,,0,,,72,69
175200,note_on,0,0,1,,,,,,,,,,,,,,,0,,,72,0
175200,note_on,120,0,2,,,,,,,,,,,,,,,0,,,60,0
175200,note_on,120,0,1,,,,,,,,,,,,,,,0,,,84,0
175242,control_change,42,0,2,,,,,,,,,,,,,,,0,64,0,,
175264,control_change,22,0,2,,,,,,,,,,,,,,,0,64,127,,
175320,note_on,56,0,2,,,,,,,,,,,,,,,0,,,48,0
175320,note_on,0,0,2,,,,,,,,,,,,,,,0,,,53,51
175440,note_on,120,0,2,,,,,,,,,,,,,,,0,,,53,0
175440,note_on,0,0,2,,,,,,,,,,,,,,,0,,,56,51
175560,note_on,0,0,2,,,,,,,,,,,,,,,0,,,60,51
175560,note_on,120,0,2,,,,,,,,,,,,,,,0,,,56,0
175560,note_on,0,0,1,,,,,,,,,,,,,,,0,,,72,63
175560,note_on,0,0,1,,,,,,,,,,,,,,,0,,,84,75
175560,note_on,0,0,1,,,,,,,,,,,,,,,0,,,72,0
175560,note_on,360,0,1,,,,,,,,,,,,,,,0,,,84,0
175680,note_on,0,0,1,,,,,,,,,,,,,,,0,,,72,0
175680,set_tempo,520,1,0,,,,,,,,,,,,470588,,,,,,,
175680,note_on,0,0,2,,,,,,,,,,,,,,,0,,,48,56
175680,note_on,0,0,1,,,,,,,,,,,,,,,0,,,84,76
175680,note_on,120,0,2,,,,,,,,,,,,,,,0,,,60,0
175680,control_change,0,0,2,,,,,,,,,,,,,,,0,64,0,,
175680,note_on,120,0,1,,,,,,,,,,,,,,,0,,,84,0
175680,note_on,0,0,1,,,,,,,,,,,,,,,0,,,72,66
175737,control_change,57,0,2,,,,,,,,,,,,,,,0,64,127,,
175760,set_tempo,80,1,0,,,,,,,,,,,,456274,,,,,,,
175800,note_on,0,0,2,,,,,,,,,,,,,,,0,,,53,49
175800,note_on,63,0,2,,,,,,,,,,,,,,,0,,,48,0
175880,set_tempo,120,1,0,,,,,,,,,,,,458015,,,,,,,
175920,note_on,120,0,2,,,,,,,,,,,,,,,0,,,53,0
175920,note_on,0,0,2,,,,,,,,,,,,,,,0,,,55,48
176000,set_tempo,120,1,0,,,,,,,,,,,,459770,,,,,,,
176040,note_on,120,0,2,,,,,,,,,,,,,,,0,,,55,0
176040,note_on,0,0,2,,,,,,,,,,,,,,,0,,,60,47
176040,note_on,0,0,1,,,,,,,,,,,,,,,0,,,72,0
176040,note_on,0,0,1,,,,,,,,,,,,,,,0,,,72,57
176040,note_on,360,0,1,,,,,,,,,,,,,,,0,,,84,0
176040,note_on,0,0,1,,,,,,,,,,,,,,,0,,,84,68
176120,set_tempo,120,1,0,,,,,,,,,,,,461538,,,,,,,
176160,note_on,0,0,2,,,,,,,,,,,,,,,0,,,48,51
176160,note_on,0,0,1,,,,,,,,,,,,,,,0,,,84,71
176160,note_on,0,0,1,,,,,,,,,,,,,,,0,,,72,60
176160,note_on,0,0,1,,,,,,,,,,,,,,,0,,,72,0
176160,note_on,120,0,1,,,,,,,,,,,,,,,0,,,84,0
176160,note_on,120,0,2,,,,,,,,,,,,,,,0,,,60,0
176202,control_change,42,0,2,,,,,,,,,,,,,,,0,64,0,,
176224,control_change,22,0,2,,,,,,,,,,,,,,,0,64,127,,
176280,note_on,0,0,2,,,,,,,,,,,,,,,0,,,52,44
176280,note_on,56,0,2,,,,,,,,,,,,,,,0,,,48,0
176400,note_on,0,0,2,,,,,,,,,,,,,,,0,,,55,43
176400,note_on,120,0,2,,,,,,,,,,,,,,,0,,,52,0
176520,note_on,360,0,1,,,,,,,,,,,,,,,0,,,84,0
176520,note_on,0,0,1,,,,,,,,,,,,,,,0,,,72,0
176520,note_on,0,0,1,,,,,,,,,,,,,,,0,,,72,51
176520,note_on,0,0,1,,,,,,,,,,,,,,,0,,,84,61
176520,note_on,0,0,2,,,,,,,,,,,,,,,0,,,60,42
176520,note_on,120,0,2,,,,,,,,,,,,,,,0,,,55,0
176633,control_change,113,0,2,,,,,,,,,,,,,,,0,64,0,,
176640,note_on,0,0,1,,,,,,,,,,,,,,,0,,,77,58
176640,note_on,0,0,1,,,,,,,,,,,,,,,0,,,72,0
176640,note_on,120,0,1,,,,,,,,,,,,,,,0,,,84,0
176640,note_on,0,0,2,,,,,,,,,,,,,,,0,,,41,42
176640,note_on,7,0,2,,,,,,,,,,,,,,,0,,,60,0
176732,control_change,92,0,2,,,,,,,,,,,,,,,0,64,127,,
176800,note_on,0,0,2,,,,,,,,,,,,,,,0,,,57,42
176800,note_on,68,0,2,,,,,,,,,,,,,,,0,,,41,0
176960,note_on,160,0,2,,,,,,,,,,,,,,,0,,,57,0
176960,note_on,0,0,2,,,,,,,,,,,,,,,0,,,60,34
177113,control_change,153,0,2,,,,,,,,,,,,,,,0,64,0,,
177120,note_on,480,0,1,,,,,,,,,,,,,,,0,,,77,0
177120,note_on,0,0,2,,,,,,,,,,,,,,,0,,,53,34
177120,note_on,7,0,2,,,,,,,,,,,,,,,0,,,60,0
177176,control_change,56,0,2,,,,,,,,,,,,,,,0,64,127,,
177280,note_on,0,0,2,,,,,,,,,,,,,,,0,,,57,30
177280,note_on,104,0,2,,,,,,,,,,,,,,,0,,,53,0
177440,note_on,160,0,2,,,,,,,,,,,,,,,0,,,57,0
177440,note_on,0,0,2,,,,,,,,,,,,,,,0,,,60,30
177480,note_on,360,0,1,,,,,,,,,,,,,,,0,,,77,43
177600,note_on,0,0,2,,,,,,,,,,,,,,,0,,,53,34
177600,note_on,0,0,1,,,,,,,,,,,,,,,0,,,81,48
177600,set_tempo,1480,1,0,,,,,,,,,,,,449438,,,,,,,
177600,note_on,160,0,2,,,,,,,,,,,,,,,0,,,60,0
177600,note_on,120,0,1,,,,,,,,,,,,,,,0,,,77,0
177642,control_change,42,0,2,,,,,,,,,,,,,,,0,64,0,,
177706,control_change,64,0,2,,,,,,,,,,,,,,,0,64,127,,
177760,note_on,54,0,2,,,,,,,,,,,,,,,0,,,53,0
177760,note_on,0,0,2,,,,,,,,,,,,,,,0,,,57,29
177920,set_tempo,320,1,0,,,,,,,,,,,,447761,,,,,,,
177920,note_on,160,0,2,,,,,,,,,,,,,,,0,,,57,0
177920,note_on,0,0,2,,,,,,,,,,,,,,,0,,,60,29
177960,note_on,0,0,1,,,,,,,,,,,,,,,0,,,81,43
177960,note_on,360,0,1,,,,,,,,,,,,,,,0,,,81,0
178080,note_on,160,0,2,,,,,,,,,,,,,,,0,,,60,0
178080,note_on,120,0,1,,,,,,,,,,,,,,,0,,,81,0
178080,note_on,0,0,1,,,,,,,,,,,,,,,0,,,77,48
178080,note_on,0,0,2,,,,,,,,,,,,,,,0,,,53,34
178240,note_on,0,0,2,,,,,,,,,,,,,,,0,,,57,30
178240,note_on,160,0,2,,,,,,,,,,,,,,,0,,,53,0
178240,set_tempo,320,1,0,,,,,,,,,,,,446097,,,,,,,
178400,note_on,0,0,2,,,,,,,,,,,,,,,0,,,60,30
178400,note_on,160,0,2,,,,,,,,,,,,,,,0,,,57,0
178440,note_on,360,0,1,,,,,,,,,,,,,,,0,,,77,0
178440,note_on,0,0,1,,,,,,,,,,,,,,,0,,,77,42
178560,set_tempo,320,1,0,,,,,,,,,,,,442804,,,,,,,
178560,note_on,120,0,1,,,,,,,,,,,,,,,0,,,77,0
178560,note_on,0,0,1,,,,,,,,,,,,,,,0,,,72,48
178560,note_on,0,0,2,,,,,,,,,,,,,,,0,,,53,34
178560,note_on,160,0,2,,,,,,,,,,,,,,,0,,,60,0
178631,control_change,71,0,2,,,,,,,,,,,,,,,0,64,0,,
178701,control_change,70,0,2,,,,,,,,,,,,,,,0,64,127,,
178720,set_tempo,160,1,0,,,,,,,,,,,,444444,,,,,,,
178720,note_on,0,0,2,,,,,,,,,,,,,,,0,,,57,30
178720,note_on,19,0,2,,,,,,,,,,,,,,,0,,,53,0
178880,note_on,0,0,2,,,,,,,,,,,,,,,0,,,60,30
178880,note_on,160,0,2,,,,,,,,,,,,,,,0,,,57,0
178880,set_tempo,160,1,0,,,,,,,,,,,,446097,,,,,,,
178920,note_on,360,0,1,,,,,,,,,,,,,,,0,,,72,0
178920,note_on,0,0,1,,,,,,,,,,,,,,,0,,,72,43
179040,note_on,0,0,1,,,,,,,,,,,,,,,0,,,69,48
179040,note_on,120,0,1,,,,,,,,,,,,,,,0,,,72,0
179040,set_tempo,160,1,0,,,,,,,,,,,,447761,,,,,,,
179040,note_on,0,0,2,,,,,,,,,,,,,,,0,,,51,34
179040,note_on,160,0,2,,,,,,,,,,,,,,,0,,,60,0
179104,control_change,64,0,2,,,,,,,,,,,,,,,0,64,0,,
179153,control_change,49,0,2,,,,,,,,,,,,,,,0,64,127,,
179200,note_on,0,0,2,,,,,,,,,,,,,,,0,,,57,30
179200,note_on,47,0,2,,,,,,,,,,,,,,,0,,,51,0
179360,note_on,0,0,2,,,,,,,,,,,,,,,0,,,60,30
179360,set_tempo,320,1,0,,,,,,,,,,,,452830,,,,,,,
179360,note_on,160,0,2,,,,,,,,,,,,,,,0,,,57,0
179400,note_on,360,0,1,,,,,,,,,,,,,,,0,,,69,0
179400,note_on,0,0,1,,,,,,,,,,,,,,,0,,,69,43
179480,set_tempo,120,1,0,,,,,,,,,,,,454545,,,,,,,
179520,note_on,0,0,1,,,,,,,,,,,,,,,0,,,70,48
179520,note_on,160,0,2,,,,,,,,,,,,,,,0,,,60,0
179520,control_change,0,0,2,,,,,,,,,,,,,,,0,64,0,,
179520,note_on,0,0,2,,,,,,,,,,,,,,,0,,,50,34
179520,note_on,120,0,1,,,,,,,,,,,,,,,0,,,69,0
179554,control_change,34,0,2,,,,,,,,,,,,,,,0,64,127,,
179600,set_tempo,120,1,0,,,,,,,,,,,,456274,,,,,,,
179680,note_on,126,0,2,,,,,,,,,,,,,,,0,,,50,0
179680,note_on,0,0,2,,,,,,,,,,,,,,,0,,,58,29
179720,set_tempo,120,1,0,,,,,,,,,,,,458015,,,,,,,
179840,note_on,0,0,2,,,,,,,,,,,,,,,0,,,60,29
179840,note_on,160,0,2,,,,,,,,,,,,,,,0,,,58,0
179840,set_tempo,120,1,0,,,,,,,,,,,,459770,,,,,,,
179880,note_on,360,0,1,,,,,,,,,,,,,,,0,,,70,0
179880,note_on,0,0,1,,,,,,,,,,,,,,,0,,,70,42
179960,set_tempo,120,1,0,,,,,,,,,,,,461538,,,,,,,
180000,note_on,0,0,2,,,,,,,,,,,,,,,0,,,52,34
180000,note_on,160,0,2,,,,,,,,,,,,,,,0,,,60,0
180000,note_on,120,0,1,,,,,,,,,,,,,,,0,,,70,0
180000,note_on,0,0,1,,,,,,,,,,,,,,,0,,,67,48
180011,control_change,11,0,2,,,,,,,,,,,,,,,0,64,0,,
180046,control_change,35,0,2,,,,,,,,,,,,,,,0,64,127,,
180160,note_on,0,0,2,,,,,,,,,,,,,,,0,,,58,30
180160,note_on,114,0,2,,,,,,,,,,,,,,,0,,,52,0
180320,note_on,0,0,2,,,,,,,,,,,,,,,0,,,60,30
180320,note_on,160,0,2,,,,,,,,,,,,,,,0,,,58,0
180360,note_on,0,0,1,,,,,,,,,,,,,,,0,,,67,42
180360,note_on,360,0,1,,,,,,,,,,,,,,,0,,,67,0
180480,note_on,0,0,2,,,,,,,,,,,,,,,0,,,53,34
180480,note_on,160,0,2,,,,,,,,,,,,,,,0,,,60,0
180480,note_on,120,0,1,,,,,,,,,,,,,,,0,,,67,0
180480,note_on,0,0,1,,,,,,,,,,,,,,,0,,,72,48
180501,control_change,21,0,2,,,,,,,,,,,,,,,0,64,0,,
180551,control_change,50,0,2,,,,,,,,,,,,,,,0,64,127,,
180640,note_on,89,0,2,,,,,,,,,,,,,,,0,,,53,0
180640,note_on,0,0,2,,,,,,,,,,,,,,,0,,,57,31
180800,note_on,0,0,2,,,,,,,,,,,,,,,0,,,60,31
180800,note_on,160,0,2,,,,,,,,,,,,,,,0,,,57,0
180840,note_on,360,0,1,,,,,,,,,,,,,,,0,,,72,0
180840,note_on,0,0,1,,,,,,,,,,,,,,,0,,,77,36
180960,note_on,0,0,2,,,,,,,,,,,,,,,0,,,53,34
180960,note_on,160,0,2,,,,,,,,,,,,,,,0,,,60,0
180960,note_on,120,0,1,,,,,,,,,,,,,,,0,,,77,0
180960,note_on,0,0,1,,,,,,,,,,,,,,,0,,,72,45
180995,control_change,35,0,2,,,,,,,,,,,,,,,0,64,0,,
181038,control_change,43,0,2,,,,,,,,,,,,,,,0,64,127,,
181120,note_on,82,0,2,,,,,,,,,,,,,,,0,,,53,0
181120,note_on,0,0,2,,,,,,,,,,,,,,,0,,,57,30
181200,note_on,240,0,1,,,,,,,,,,,,,,,0,,,72,0
181280,note_on,160,0,2,,,,,,,,,,,,,,,0,,,57,0
181280,note_on,0,0,2,,,,,,,,,,,,,,,0,,,60,30
181320,note_on,120,0,1,,,,,,,,,,,,,,,0,,,77,43
181440,set_tempo,1480,1,0,,,,,,,,,,,,449438,,,,,,,
181440,note_on,0,0,1,,,,,,,,,,,,,,,0,,,81,48
181440,note_on,120,0,1,,,,,,,,,,,,,,,0,,,77,0
181440,note_on,160,0,2,,,,,,,,,,,,,,,0,,,60,0
181440,note_on,0,0,2,,,,,,,,,,,,,,,0,,,53,34
181482,control_change,42,0,2,,,,,,,,,,,,,,,0,64,0,,
181546,control_change,64,0,2,,,,,,,,,,,,,,,0,64,127,,
181600,note_on,54,0,2,,,,,,,,,,,,,,,0,,,53,0
181600,note_on,0,0,2,,,,,,,,,,,,,,,0,,,57,29
181760,note_on,0,0,2,,,,,,,,,,,,,,,0,,,60,29
181760,note_on,160,0,2,,,,,,,,,,,,,,,0,,,57,0
181760,set_tempo,320,1,0,,,,,,,,,,,,447761,,,,,,,
181800,note_on,360,0,1,,,,,,,,,,,,,,,0,,,81,0
181800,note_on,0,0,1,,,,,,,,,,,,,,,0,,,81,45
181920,note_on,0,0,2,,,,,,,,,,,,,,,0,,,52,34
181920,note_on,160,0,2,,,,,,,,,,,,,,,0,,,60,0
181920,note_on,120,0,1,,,,,,,,,,,,,,,0,,,81,0
181920,note_on,0,0,1,,,,,,,,,,,,,,,0,,,84,52
182080,note_on,0,0,2,,,,,,,,,,,,,,,0,,,55,30
182080,note_on,160,0,2,,,,,,,,,,,,,,,0,,,52,0
182080,set_tempo,320,1,0,,,,,,,,,,,,446097,,,,,,,
182240,note_on,0,0,2,,,,,,,,,,,,,,,0,,,60,30
182240,note_on,160,0,2,,,,,,,,,,,,,,,0,,,55,0
182280,note_on,0,0,1,,,,,,,,,,,,,,,0,,,84,48
182280,note_on,360,0,1,,,,,,,,,,,,,,,0,,,84,0
182400,note_on,120,0,1,,,,,,,,,,,,,,,0,,,84,0
182400,note_on,0,0,1,,,,,,,,,,,,,,,0,,,89,52
182400,note_on,0,0,2,,,,,,,,,,,,,,,0,,,50,34
182400,set_tempo,320,1,0,,,,,,,,,,,,442804,,,,,,,
182400,note_on,160,0,2,,,,,,,,,,,,,,,0,,,60,0
182471,control_change,71,0,2,,,,,,,,,,,,,,,0,64,0,,
182541,control_change,70,0,2,,,,,,,,,,,,,,,0,64,127,,
182560,note_on,19,0,2,,,,,,,,,,,,,,,0,,,50,0
182560,set_tempo,160,1,0,,,,,,,,,,,,444444,,,,,,,
182560,note_on,0,0,2,,,,,,,,,,,,,,,0,,,53,30
182720,note_on,0,0,2,,,,,,,,,,,,,,,0,,,57,30
182720,note_on,160,0,2,,,,,,,,,,,,,,,0,,,53,0
182720,set_tempo,160,1,0,,,,,,,,,,,,446097,,,,,,,
182760,note_on,0,0,1,,,,,,,,,,,,,,,0,,,89,50
182760,note_on,360,0,1,,,,,,,,,,,,,,,0,,,89,0
182880,note_on,0,0,2,,,,,,,,,,,,,,,0,,,50,34
182880,note_on,160,0,2,,,,,,,,,,,,,,,0,,,57,0
182880,note_on,0,0,1,,,,,,,,,,,,,,,0,,,91,56
182880,note_on,120,0,1,,,,,,,,,,,,,,,0,,,89,0
182880,set_tempo,160,1,0,,,,,,,,,,,,447761,,,,,,,
182944,control_change,64,0,2,,,,,,,,,,,,,,,0,64,0,,
182993,control_change,49,0,2,,,,,,,,,,,,,,,0,64,127,,
183040,note_on,47,0,2,,,,,,,,,,,,,,,0,,,50,0
183040,note_on,0,0,2,,,,,,,,,,,,,,,0,,,53,30
183200,set_tempo,320,1,0,,,,,,,,,,,,452830,,,,,,,
183200,note_on,0,0,2,,,,,,,,,,,,,,,0,,,59,30
183200,note_on,160,0,2,,,,,,,,,,,,,,,0,,,53,0
183240,note_on,0,0,1,,,,,,,,,,,,,,,0,,,91,49
183240,note_on,360,0,1,,,,,,,,,,,,,,,0,,,91,0
183320,set_tempo,120,1,0,,,,,,,,,,,,454545,,,,,,,
183360,note_on,120,0,1,,,,,,,,,,,,,,,0,,,91,0
183360,note_on,0,0,2,,,,,,,,,,,,,,,0,,,48,34
183360,control_change,0,0,2,,,,,,,,,,,,,,,0,64,0,,
183360,note_on,160,0,2,,,,,,,,,,,,,,,0,,,59,0
183360,note_on,0,0,1,,,,,,,,,,,,,,,0,,,93,55
183394,control_change,34,0,2,,,,,,,,,,,,,,,0,64,127,,
183440,set_tempo,120,1,0,,,,,,,,,,,,456274,,,,,,,
183520,note_on,0,0,2,,,,,,,,,,,,,,,0,,,53,29
183520,note_on,126,0,2,,,,,,,,,,,,,,,0,,,48,0
183560,set_tempo,120,1,0,,,,,,,,,,,,458015,,,,,,,
183680,note_on,160,0,2,,,,,,,,,,,,,,,0,,,53,0
183680,note_on,0,0,2,,,,,,,,,,,,,,,0,,,60,29
183680,set_tempo,120,1,0,,,,,,,,,,,,459770,,,,,,,
183720,note_on,0,0,1,,,,,,,,,,,,,,,0,,,93,48
183720,note_on,360,0,1,,,,,,,,,,,,,,,0,,,93,0
183800,set_tempo,120,1,0,,,,,,,,,,,,461538,,,,,,,
183840,note_on,160,0,2,,,,,,,,,,,,,,,0,,,60,0
183840,note_on,0,0,1,,,,,,,,,,,,,,,0,,,96,54
183840,note_on,120,0,1,,,,,,,,,,,,,,,0,,,93,0
183840,note_on,0,0,2,,,,,,,,,,,,,,,0,,,48,34
183851,control_change,11,0,2,,,,,,,,,,,,,,,0,64,0,,
183886,control_change,35,0,2,,,,,,,,,,,,,,,0,64,127,,
184000,note_on,114,0,2,,,,,,,,,,,,,,,0,,,48,0
184000,note_on,0,0,2,,,,,,,,,,,,,,,0,,,52,30
184160,note_on,160,0,2,,,,,,,,,,,,,,,0,,,52,0
184160,note_on,0,0,2,,,,,,,,,,,,,,,0,,,60,30
184200,note_on,360,0,1,,,,,,,,,,,,,,,0,,,96,0
184200,note_on,0,0,1,,,,,,,,,,,,,,,0,,,96,47
184320,note_on,160,0,2,,,,,,,,,,,,,,,0,,,60,0
184320,note_on,0,0,2,,,,,,,,,,,,,,,0,,,41,34
184320,note_on,120,0,1,,,,,,,,,,,,,,,0,,,96,0
184320,note_on,0,0,1,,,,,,,,,,,,,,,0,,,93,53
184341,control_change,21,0,2,,,,,,,,,,,,,,,0,64,0,,
184391,control_change,50,0,2,,,,,,,,,,,,,,,0,64,127,,
184480,note_on,89,0,2,,,,,,,,,,,,,,,0,,,41,0
184480,note_on,0,0,2,,,,,,,,,,,,,,,0,,,57,31
184560,note_on,240,0,1,,,,,,,,,,,,,,,0,,,93,0
184640,note_on,160,0,2,,,,,,,,,,,,,,,0,,,57,0
184640,note_on,0,0,2,,,,,,,,,,,,,,,0,,,60,31
184800,note_on,160,0,2,,,,,,,,,,,,,,,0,,,60,0
184800,note_on,0,0,2,,,,,,,,,,,,,,,0,,,53,34
184800,set_tempo,1000,1,0,,,,,,,,,,,,452830,,,,,,,
184814,control_change,14,0,2,,,,,,,,,,,,,,,0,64,0,,
184856,control_change,42,0,2,,,,,,,,,,,,,,,0,64,127,,
184960,note_on,104,0,2,,,,,,,,,,,,,,,0,,,53,0
184960,note_on,0,0,2,,,,,,,,,,,,,,,0,,,57,30
185120,note_on,160,0,2,,,,,,,,,,,,,,,0,,,57,0
185120,note_on,0,0,2,,,,,,,,,,,,,,,0,,,60,30
185160,note_on,600,0,1,,,,,,,,,,,,,,,0,,,77,43
185280,note_on,120,0,1,,,,,,,,,,,,,,,0,,,77,0
185280,note_on,0,0,1,,,,,,,,,,,,,,,0,,,81,48
185280,note_on,0,0,2,,,,,,,,,,,,,,,0,,,53,34
185280,set_tempo,480,1,0,,,,,,,,,,,,449438,,,,,,,
185280,note_on,160,0,2,,,,,,,,,,,,,,,0,,,60,0
185322,control_change,42,0,2,,,,,,,,,,,,,,,0,64,0,,
185386,control_change,64,0,2,,,,,,,,,,,,,,,0,64,127,,
185440,note_on,54,0,2,,,,,,,,,,,,,,,0,,,53,0
185440,note_on,0,0,2,,,,,,,,,,,,,,,0,,,57,29
185600,note_on,160,0,2,,,,,,,,,,,,,,,0,,,57,0
185600,note_on,0,0,2,,,,,,,,,,,,,,,0,,,60,29
185600,set_tempo,320,1,0,,,,,,,,,,,,447761,,,,,,,
185640,note_on,0,0,1,,,,,,,,,,,,,,,0,,,81,43
185640,note_on,360,0,1,,,,,,,,,,,,,,,0,,,81,0
185760,note_on,120,0,1,,,,,,,,,,,,,,,0,,,81,0
185760,note_on,0,0,1,,,,,,,,,,,,,,,0,,,77,48
185760,note_on,160,0,2,,,,,,,,,,,,,,,0,,,60,0
185760,note_on,0,0,2,,,,,,,,,,,,,,,0,,,53,34
185920,note_on,160,0,2,,,,,,,,,,,,,,,0,,,53,0
185920,note_on,0,0,2,,,,,,,,,,,,,,,0,,,57,30
185920,set_tempo,320,1,0,,,,,,,,,,,,446097,,,,,,,
186080,note_on,160,0,2,,,,,,,,,,,,,,,0,,,57,0
186080,note_on,0,0,2,,,,,,,,,,,,,,,0,,,60,30
186120,note_on,0,0,1,,,,,,,,,,,,,,,0,,,77,42
186120,note_on,360,0,1,,,,,,,,,,,,,,,0,,,77,0
186240,note_on,0,0,2,,,,,,,,,,,,,,,0,,,53,34
186240,note_on,160,0,2,,,,,,,,,,,,,,,0,,,60,0
186240,note_on,0,0,1,,,,,,,,,,,,,,,0,,,72,48
186240,note_on,120,0,1,,,,,,,,,,,,,,,0,,,77,0
186240,set_tempo,320,1,0,,,,,,,,,,,,442804,,,,,,,
186311,control_change,71,0,2,,,,,,,,,,,,,,,0,64,0,,
186381,control_change,70,0,2,,,,,,,,,,,,,,,0,64,127,,
186400,set_tempo,160,1,0,,,,,,,,,,,,444444,,,,,,,
186400,note_on,0,0,2,,,,,,,,,,,,,,,0,,,57,30
186400,note_on,19,0,2,,,,,,,,,,,,,,,0,,,53,0
186560,set_tempo,160,1,0,,,,,,,,,,,,446097,,,,,,,
186560,note_on,0,0,2,,,,,,,,,,,,,,,0,,,60,30
186560,note_on,160,0,2,,,,,,,,,,,,,,,0,,,57,0
186600,note_on,360,0,1,,,,,,,,,,,,,,,0,,,72,0
186600,note_on,0,0,1,,,,,,,,,,,,,,,0,,,72,43
186720,set_tempo,160,1,0,,,,,,,,,,,,447761,,,,,,,
186720,note_on,120,0,1,,,,,,,,,,,,,,,0,,,72,0
186720,note_on,0,0,1,,,,,,,,,,,,,,,0,,,69,48
186720,note_on,160,0,2,,,,,,,,,,,,,,,0,,,60,0
186720,note_on,0,0,2,,,,,,,,,,,,,,,0,,,51,34
186784,control_change,64,0,2,,,,,,,,,,,,,,,0,64,0,,
186833,control_change,49,0,2,,,,,,,,,,,,,,,0,64,127,,
186880,note_on,47,0,2,,,,,,,,,,,,,,,0,,,51,0
186880,note_on,0,0,2,,,,,,,,,,,,,,,0,,,57,30
187040,set_tempo,320,1,0,,,,,,,,,,,,452830,,,,,,,
187040,note_on,0,0,2,,,,,,,,,,,,,,,0,,,60,30
187040,note_on,160,0,2,,,,,,,,,,,,,,,0,,,57,0
187080,note_on,360,0,1,,,,,,,,,,,,,,,0,,,69,0
187080,note_on,0,0,1,,,,,,,,,,,,,,,0,,,69,43
187160,set_tempo,120,1,0,,,,,,,,,,,,454545,,,,,,,
187200,note_on,160,0,2,,,,,,,,,,,,,,,0,,,60,0
187200,control_change,0,0,2,,,,,,,,,,,,,,,0,64,0,,
187200,note_on,0,0,1,,,,,,,,,,,,,,,0,,,72,48
187200,note_on,120,0,1,,,,,,,,,,,,,,,0,,,69,0
187200,note_on,0,0,2,,,,,,,,,,,,,,,0,,,50,34
187234,control_change,34,0,2,,,,,,,,,,,,,,,0,64,127,,
187280,set_tempo,120,1,0,,,,,,,,,,,,456274,,,,,,,
187360,note_on,126,0,2,,,,,,,,,,,,,,,0,,,50,0
187360,note_on,0,0,2,,,,,,,,,,,,,,,0,,,58,29
187400,set_tempo,120,1,0,,,,,,,,,,,,458015,,,,,,,
187520,note_on,0,0,2,,,,,,,,,,,,,,,0,,,60,29
187520,set_tempo,120,1,0,,,,,,,,,,,,459770,,,,,,,
187520,note_on,160,0,2,,,,,,,,,,,,,,,0,,,58,0
187560,note_on,0,0,1,,,,,,,,,,,,,,,0,,,72,42
187560,note_on,360,0,1,,,,,,,,,,,,,,,0,,,72,0
187640,set_tempo,120,1,0,,,,,,,,,,,,461538,,,,,,,
187680,note_on,120,0,1,,,,,,,,,,,,,,,0,,,72,0
187680,note_on,0,0,1,,,,,,,,,,,,,,,0,,,70,48
187680,note_on,0,0,2,,,,,,,,,,,,,,,0,,,52,34
187680,note_on,160,0,2,,,,,,,,,,,,,,,0,,,60,0
187691,control_change,11,0,2,,,,,,,,,,,,,,,0,64,0,,
187726,control_change,35,0,2,,,,,,,,,,,,,,,0,64,127,,
187840,note_on,114,0,2,,,,,,,,,,,,,,,0,,,52,0
187840,note_on,0,0,2,,,,,,,,,,,,,,,0,,,58,30
188000,note_on,0,0,2,,,,,,,,,,,,,,,0,,,60,30
188000,note_on,160,0,2,,,,,,,,,,,,,,,0,,,58,0
188040,note_on,360,0,1,,,,,,,,,,,,,,,0,,,70,0
188040,note_on,0,0,1,,,,,,,,,,,,,,,0,,,70,42
188160,note_on,0,0,1,,,,,,,,,,,,,,,0,,,69,48
188160,note_on,0,0,2,,,,,,,,,,,,,,,0,,,53,34
188160,note_on,160,0,2,,,,,,,,,,,,,,,0,,,60,0
188160,note_on,120,0,1,,,,,,,,,,,,,,,0,,,70,0
188181,control_change,21,0,2,,,,,,,,,,,,,,,0,64,0,,
188231,control_change,50,0,2,,,,,,,,,,,,,,,0,64,127,,
188320,note_on,0,0,2,,,,,,,,,,,,,,,0,,,57,31
188320,note_on,89,0,2,,,,,,,,,,,,,,,0,,,53,0
188480,note_on,0,0,2,,,,,,,,,,,,,,,0,,,60,31
188480,note_on,160,0,2,,,,,,,,,,,,,,,0,,,57,0
188520,note_on,0,0,1,,,,,,,,,,,,,,,0,,,77,36
188520,note_on,360,0,1,,,,,,,,,,,,,,,0,,,69,0
188640,note_on,120,0,1,,,,,,,,,,,,,,,0,,,77,0
188640,note_on,0,0,2,,,,,,,,,,,,,,,0,,,53,34
188640,note_on,160,0,2,,,,,,,,,,,,,,,0,,,60,0
188640,note_on,0,0,1,,,,,,,,,,,,,,,0,,,72,45
188675,control_change,35,0,2,,,,,,,,,,,,,,,0,64,0,,
188718,control_change,43,0,2,,,,,,,,,,,,,,,0,64,127,,
188800,note_on,82,0,2,,,,,,,,,,,,,,,0,,,53,0
188800,note_on,0,0,2,,,,,,,,,,,,,,,0,,,57,30
188880,note_on,240,0,1,,,,,,,,,,,,,,,0,,,72,0
188960,note_on,160,0,2,,,,,,,,,,,,,,,0,,,57,0
188960,note_on,0,0,2,,,,,,,,,,,,,,,0,,,60,30
189000,note_on,120,0,1,,,,,,,,,,,,,,,0,,,77,43
189120,note_on,0,0,2,,,,,,,,,,,,,,,0,,,53,34
189120,note_on,0,0,1,,,,,,,,,,,,,,,0,,,81,48
189120,note_on,160,0,2,,,,,,,,,,,,,,,0,,,60,0
189120,set_tempo,1480,1,0,,,,,,,,,,,,449438,,,,,,,
189120,note_on,120,0,1,,,,,,,,,,,,,,,0,,,77,0
189162,control_change,42,0,2,,,,,,,,,,,,,,,0,64,0,,
189226,control_change,64,0,2,,,,,,,,,,,,,,,0,64,127,,
189280,note_on,54,0,2,,,,,,,,,,,,,,,0,,,53,0
189280,note_on,0,0,2,,,,,,,,,,,,,,,0,,,57,29
189440,note_on,0,0,2,,,,,,,,,,,,,,,0,,,60,29
189440,set_tempo,320,1,0,,,,,,,,,,,,447761,,,,,,,
189440,note_on,160,0,2,,,,,,,,,,,,,,,0,,,57,0
189480,note_on,0,0,1,,,,,,,,,,,,,,,0,,,81,45
189480,note_on,360,0,1,,,,,,,,,,,,,,,0,,,81,0
189600,note_on,160,0,2,,,,,,,,,,,,,,,0,,,60,0
189600,note_on,0,0,2,,,,,,,,,,,,,,,0,,,52,34
189600,note_on,0,0,1,,,,,,,,,,,,,,,0,,,84,52
189600,note_on,120,0,1,,,,,,,,,,,,,,,0,,,81,0
189617,control_change,17,0,2,,,,,,,,,,,,,,,0,64,0,,
189640,control_change,23,0,2,,,,,,,,,,,,,,,0,64,127,,
189760,set_tempo,320,1,0,,,,,,,,,,,,446097,,,,,,,
189760,note_on,0,0,2,,,,,,,,,,,,,,,0,,,55,30
189760,note_on,120,0,2,,,,,,,,,,,,,,,0,,,52,0
189920,note_on,0,0,2,,,,,,,,,,,,,,,0,,,60,30
189920,note_on,160,0,2,,,,,,,,,,,,,,,0,,,55,0
189960,note_on,0,0,1,,,,,,,,,,,,,,,0,,,84,48
189960,note_on,360,0,1,,,,,,,,,,,,,,,0,,,84,0
190080,set_tempo,320,1,0,,,,,,,,,,,,442804,,,,,,,
190080,note_on,160,0,2,,,,,,,,,,,,,,,0,,,60,0
190080,note_on,0,0,2,,,,,,,,,,,,,,,0,,,50,34
190080,note_on,120,0,1,,,,,,,,,,,,,,,0,,,84,0
190080,note_on,0,0,1,,,,,,,,,,,,,,,0,,,89,52
190151,control_change,71,0,2,,,,,,,,,,,,,,,0,64,0,,
190221,control_change,70,0,2,,,,,,,,,,,,,,,0,64,127,,
190240,note_on,19,0,2,,,,,,,,,,,,,,,0,,,50,0
190240,set_tempo,160,1,0,,,,,,,,,,,,444444,,,,,,,
190240,note_on,0,0,2,,,,,,,,,,,,,,,0,,,53,30
190400,set_tempo,160,1,0,,,,,,,,,,,,446097,,,,,,,
190400,note_on,160,0,2,,,,,,,,,,,,,,,0,,,53,0
190400,note_on,0,0,2,,,,,,,,,,,,,,,0,,,57,30
190440,note_on,0,0,1,,,,,,,,,,,,,,,0,,,89,50
190440,note_on,360,0,1,,,,,,,,,,,,,,,0,,,89,0
190560,note_on,160,0,2,,,,,,,,,,,,,,,0,,,57,0
190560,set_tempo,160,1,0,,,,,,,,,,,,447761,,,,,,,
190560,note_on,0,0,1,,,,,,,,,,,,,,,0,,,91,56
190560,note_on,120,0,1,,,,,,,,,,,,,,,0,,,89,0
190560,note_on,0,0,2,,,,,,,,,,,,,,,0,,,50,34
190624,control_change,64,0,2,,,,,,,,,,,,,,,0,64,0,,
190673,control_change,49,0,2,,,,,,,,,,,,,,,0,64,127,,
190720,note_on,0,0,2,,,,,,,,,,,,,,,0,,,53,30
190720,note_on,47,0,2,,,,,,,,,,,,,,,0,,,50,0
190880,note_on,0,0,2,,,,,,,,,,,,,,,0,,,59,30
190880,set_tempo,320,1,0,,,,,,,,,,,,452830,,,,,,,
190880,note_on,160,0,2,,,,,,,,,,,,,,,0,,,53,0
190920,note_on,0,0,1,,,,,,,,,,,,,,,0,,,91,49
190920,note_on,360,0,1,,,,,,,,,,,,,,,0,,,91,0
191000,set_tempo,120,1,0,,,,,,,,,,,,454545,,,,,,,
191040,note_on,160,0,2,,,,,,,,,,,,,,,0,,,59,0
191040,control_change,0,0,2,,,,,,,,,,,,,,,0,64,0,,
191040,note_on,0,0,2,,,,,,,,,,,,,,,0,,,48,34
191040,note_on,0,0,1,,,,,,,,,,,,,,,0,,,93,55
191040,note_on,120,0,1,,,,,,,,,,,,,,,0,,,91,0
191074,control_change,34,0,2,,,,,,,,,,,,,,,0,64,127,,
191120,set_tempo,120,1,0,,,,,,,,,,,,456274,,,,,,,
191200,note_on,0,0,2,,,,,,,,,,,,,,,0,,,53,29
191200,note_on,126,0,2,,,,,,,,,,,,,,,0,,,48,0
191240,set_tempo,120,1,0,,,,,,,,,,,,458015,,,,,,,
191360,note_on,0,0,2,,,,,,,,,,,,,,,0,,,60,29
191360,note_on,160,0,2,,,,,,,,,,,,,,,0,,,53,0
191360,set_tempo,120,1,0,,,,,,,,,,,,459770,,,,,,,
191400,note_on,360,0,1,,,,,,,,,,,,,,,0,,,93,0
191400,note_on,0,0,1,,,,,,,,,,,,,,,0,,,93,48
191480,set_tempo,120,1,0,,,,,,,,,,,,461538,,,,,,,
191520,note_on,160,0,2,,,,,,,,,,,,,,,0,,,60,0
191520,note_on,0,0,2,,,,,,,,,,,,,,,0,,,48,34
191520,note_on,120,0,1,,,,,,,,,,,,,,,0,,,93,0
191520,note_on,0,0,1,,,,,,,,,,,,,,,0,,,96,54
191531,control_change,11,0,2,,,,,,,,,,,,,,,0,64,0,,
191566,control_change,35,0,2,,,,,,,,,,,,,,,0,64,127,,
191680,note_on,114,0,2,,,,,,,,,,,,,,,0,,,48,0
191680,note_on,0,0,2,,,,,,,,,,,,,,,0,,,52,30
191840,note_on,160,0,2,,,,,,,,,,,,,,,0,,,52,0
191840,note_on,0,0,2,,,,,,,,,,,,,,,0,,,60,30
191880,note_on,360,0,1,,,,,,,,,,,,,,,0,,,96,0
191880,note_on,0,0,1,,,,,,,,,,,,,,,0,,,96,47
192000,note_on,0,0,2,,,,,,,,,,,,,,,0,,,41,34
192000,note_on,120,0,1,,,,,,,,,,,,,,,0,,,96,0
192000,note_on,0,0,1,,,,,,,,,,,,,,,0,,,101,53
192000,note_on,160,0,2,,,,,,,,,,,,,,,0,,,60,0
192021,control_change,21,0,2,,,,,,,,,,,,,,,0,64,0,,
192071,control_change,50,0,2,,,,,,,,,,,,,,,0,64,127,,
192160,note_on,89,0,2,,,,,,,,,,,,,,,0,,,41,0
192160,note_on,0,0,2,,,,,,,,,,,,,,,0,,,57,31
192240,note_on,240,0,1,,,,,,,,,,,,,,,0,,,101,0
192320,note_on,160,0,2,,,,,,,,,,,,,,,0,,,57,0
192320,note_on,0,0,2,,,,,,,,,,,,,,,0,,,60,31
192480,note_on,0,0,2,,,,,,,,,,,,,,,0,,,53,34
192480,set_tempo,1000,1,0,,,,,,,,,,,,456274,,,,,,,
192480,note_on,160,0,2,,,,,,,,,,,,,,,0,,,60,0
192515,control_change,35,0,2,,,,,,,,,,,,,,,0,64,0,,
192558,control_change,43,0,2,,,,,,,,,,,,,,,0,64,127,,
192640,note_on,82,0,2,,,,,,,,,,,,,,,0,,,53,0
192640,note_on,0,0,2,,,,,,,,,,,,,,,0,,,57,30
192800,note_on,160,0,2,,,,,,,,,,,,,,,0,,,57,0
192800,note_on,0,0,2,,,,,,,,,,,,,,,0,,,60,30
192840,note_on,600,0,1,,,,,,,,,,,,,,,0,,,88,43
192960,note_on,0,0,2,,,,,,,,,,,,,,,0,,,53,34
192960,note_on,120,0,1,,,,,,,,,,,,,,,0,,,88,0
192960,note_on,0,0,1,,,,,,,,,,,,,,,0,,,89,48
192960,set_tempo,480,1,0,,,,,,,,,,,,449438,,,,,,,
192960,note_on,160,0,2,,,,,,,,,,,,,,,0,,,60,0
193002,control_change,42,0,2,,,,,,,,,,,,,,,0,64,0,,
193066,control_change,64,0,2,,,,,,,,,,,,,,,0,64,127,,
193120,note_on,54,0,2,,,,,,,,,,,,,,,0,,,53,0
193120,note_on,0,0,2,,,,,,,,,,,,,,,0,,,57,29
193280,note_on,160,0,2,,,,,,,,,,,,,,,0,,,57,0
193280,note_on,0,0,2,,,,,,,,,,,,,,,0,,,60,29
193280,set_tempo,320,1,0,,,,,,,,,,,,447761,,,,,,,
193320,note_on,360,0,1,,,,,,,,,,,,,,,0,,,89,0
193320,note_on,0,0,1,,,,,,,,,,,,,,,0,,,89,45
193440,note_on,160,0,2,,,,,,,,,,,,,,,0,,,60,0
193440,note_on,0,0,2,,,,,,,,,,,,,,,0,,,54,34
193440,note_on,120,0,1,,,,,,,,,,,,,,,0,,,89,0
193440,note_on,0,0,1,,,,,,,,,,,,,,,0,,,87,52
193446,control_change,6,0,2,,,,,,,,,,,,,,,0,64,0,,
193480,control_change,34,0,2,,,,,,,,,,,,,,,0,64,127,,
193600,note_on,120,0,2,,,,,,,,,,,,,,,0,,,54,0
193600,set_tempo,320,1,0,,,,,,,,,,,,446097,,,,,,,
193600,note_on,0,0,2,,,,,,,,,,,,,,,0,,,57,30
193760,note_on,0,0,2,,,,,,,,,,,,,,,0,,,60,30
193760,note_on,160,0,2,,,,,,,,,,,,,,,0,,,57,0
193800,note_on,360,0,1,,,,,,,,,,,,,,,0,,,87,0
193800,note_on,0,0,1,,,,,,,,,,,,,,,0,,,87,48
193920,note_on,160,0,2,,,,,,,,,,,,,,,0,,,60,0
193920,note_on,0,0,2,,,,,,,,,,,,,,,0,,,53,34
193920,set_tempo,320,1,0,,,,,,,,,,,,442804,,,,,,,
193920,note_on,120,0,1,,,,,,,,,,,,,,,0,,,87,0
193920,note_on,0,0,1,,,,,,,,,,,,,,,0,,,84,52
193991,control_change,71,0,2,,,,,,,,,,,,,,,0,64,0,,
194061,control_change,70,0,2,,,,,,,,,,,,,,,0,64,127,,
194080,note_on,0,0,2,,,,,,,,,,,,,,,0,,,57,30
194080,set_tempo,160,1,0,,,,,,,,,,,,444444,,,,,,,
194080,note_on,19,0,2,,,,,,,,,,,,,,,0,,,53,0
194240,note_on,0,0,2,,,,,,,,,,,,,,,0,,,60,30
194240,set_tempo,160,1,0,,,,,,,,,,,,446097,,,,,,,
194240,note_on,160,0,2,,,,,,,,,,,,,,,0,,,57,0
194280,note_on,360,0,1,,,,,,,,,,,,,,,0,,,84,0
194280,note_on,0,0,1,,,,,,,,,,,,,,,0,,,84,50
194400,set_tempo,160,1,0,,,,,,,,,,,,447761,,,,,,,
194400,note_on,160,0,2,,,,,,,,,,,,,,,0,,,60,0
194400,note_on,0,0,2,,,,,,,,,,,,,,,0,,,54,34
194400,note_on,120,0,1,,,,,,,,,,,,,,,0,,,84,0
194400,note_on,0,0,1,,,,,,,,,,,,,,,0,,,81,56
194440,set_tempo,40,1,0,,,,,,,,,,,,446097,,,,,,,
194440,control_change,40,0,2,,,,,,,,,,,,,,,0,64,0,,
194513,control_change,73,0,2,,,,,,,,,,,,,,,0,64,127,,
194560,note_on,47,0,2,,,,,,,,,,,,,,,0,,,54,0
194560,note_on,0,0,2,,,,,,,,,,,,,,,0,,,57,30
194720,note_on,160,0,2,,,,,,,,,,,,,,,0,,,57,0
194720,note_on,0,0,2,,,,,,,,,,,,,,,0,,,60,30
194760,note_on,360,0,1,,,,,,,,,,,,,,,0,,,81,0
194760,note_on,0,0,1,,,,,,,,,,,,,,,0,,,81,49
194880,note_on,160,0,2,,,,,,,,,,,,,,,0,,,60,0
194880,note_on,120,0,1,,,,,,,,,,,,,,,0,,,81,0
194880,note_on,0,0,1,,,,,,,,,,,,,,,0,,,84,55
194880,note_on,0,0,2,,,,,,,,,,,,,,,0,,,53,34
194880,control_change,0,0,2,,,,,,,,,,,,,,,0,64,0,,
194914,control_change,34,0,2,,,,,,,,,,,,,,,0,64,127,,
194920,set_tempo,480,1,0,,,,,,,,,,,,447761,,,,,,,
195040,note_on,126,0,2,,,,,,,,,,,,,,,0,,,53,0
195040,note_on,0,0,2,,,,,,,,,,,,,,,0,,,57,29
195200,note_on,0,0,2,,,,,,,,,,,,,,,0,,,60,29
195200,note_on,160,0,2,,,,,,,,,,,,,,,0,,,57,0
195240,note_on,360,0,1,,,,,,,,,,,,,,,0,,,84,0
195240,note_on,0,0,1,,,,,,,,,,,,,,,0,,,84,48
195360,note_on,120,0,1,,,,,,,,,,,,,,,0,,,84,0
195360,note_on,0,0,1,,,,,,,,,,,,,,,0,,,85,54
195360,note_on,160,0,2,,,,,,,,,,,,,,,0,,,60,0
195360,note_on,0,0,2,,,,,,,,,,,,,,,0,,,51,34
195371,control_change,11,0,2,,,,,,,,,,,,,,,0,64,0,,
195400,set_tempo,480,1,0,,,,,,,,,,,,449438,,,,,,,
195406,control_change,35,0,2,,,,,,,,,,,,,,,0,64,127,,
195520,note_on,114,0,2,,,,,,,,,,,,,,,0,,,51,0
195520,note_on,0,0,2,,,,,,,,,,,,,,,0,,,55,30
195680,note_on,160,0,2,,,,,,,,,,,,,,,0,,,55,0
195680,note_on,0,0,2,,,,,,,,,,,,,,,0,,,61,30
195720,note_on,0,0,1,,,,,,,,,,,,,,,0,,,85,47
195720,note_on,360,0,1,,,,,,,,,,,,,,,0,,,85,0
195840,control_change,0,0,2,,,,,,,,,,,,,,,0,64,0,,
195840,note_on,0,0,2,,,,,,,,,,,,,,,0,,,50,34
195840,note_on,160,0,2,,,,,,,,,,,,,,,0,,,61,0
195840,set_tempo,440,1,0,,,,,,,,,,,,447761,,,,,,,
195840,note_on,0,0,1,,,,,,,,,,,,,,,0,,,86,55
195840,note_on,120,0,1,,,,,,,,,,,,,,,0,,,85,0
195874,control_change,34,0,2,,,,,,,,,,,,,,,0,64,127,,
196000,note_on,0,0,2,,,,,,,,,,,,,,,0,,,54,28
196000,note_on,126,0,2,,,,,,,,,,,,,,,0,,,50,0
196160,note_on,160,0,2,,,,,,,,,,,,,,,0,,,54,0
196160,note_on,0,0,2,,,,,,,,,,,,,,,0,,,62,28
196200,note_on,0,0,1,,,,,,,,,,,,,,,0,,,86,47
196200,note_on,360,0,1,,,,,,,,,,,,,,,0,,,86,0
196320,note_on,160,0,2,,,,,,,,,,,,,,,0,,,62,0
196320,note_on,0,0,1,,,,,,,,,,,,,,,0,,,86,52
196320,note_on,120,0,1,,,,,,,,,,,,,,,0,,,86,0
196320,note_on,0,0,2,,,,,,,,,,,,,,,0,,,50,33
196331,control_change,11,0,2,,,,,,,,,,,,,,,0,64,0,,
196360,set_tempo,520,1,0,,,,,,,,,,,,449438,,,,,,,
196366,control_change,35,0,2,,,,,,,,,,,,,,,0,64,127,,
196480,note_on,0,0,2,,,,,,,,,,,,,,,0,,,55,28
196480,note_on,114,0,2,,,,,,,,,,,,,,,0,,,50,0
196640,note_on,0,0,2,,,,,,,,,,,,,,,0,,,58,28
196640,note_on,160,0,2,,,,,,,,,,,,,,,0,,,55,0
196680,note_on,0,0,1,,,,,,,,,,,,,,,0,,,86,44
196680,note_on,360,0,1,,,,,,,,,,,,,,,0,,,86,0
196800,note_on,0,0,2,,,,,,,,,,,,,,,0,,,50,31
196800,control_change,0,0,2,,,,,,,,,,,,,,,0,64,0,,
196800,note_on,0,0,1,,,,,,,,,,,,,,,0,,,86,51
196800,note_on,160,0,2,,,,,,,,,,,,,,,0,,,58,0
196800,note_on,120,0,1,,,,,,,,,,,,,,,0,,,86,0
196834,control_change,34,0,2,,,,,,,,,,,,,,,0,64,127,,
196840,set_tempo,480,1,0,,,,,,,,,,,,452830,,,,,,,
196960,note_on,126,0,2,,,,,,,,,,,,,,,0,,,50,0
196960,note_on,0,0,2,,,,,,,,,,,,,,,0,,,54,26
197000,set_tempo,160,1,0,,,,,,,,,,,,454545,,,,,,,
197120,note_on,160,0,2,,,,,,,,,,,,,,,0,,,54,0
197120,note_on,0,0,2,,,,,,,,,,,,,,,0,,,57,26
197160,note_on,0,0,1,,,,,,,,,,,,,,,0,,,86,43
197160,set_tempo,160,1,0,,,,,,,,,,,,456274,,,,,,,
197160,note_on,360,0,1,,,,,,,,,,,,,,,0,,,86,0
197280,note_on,0,0,1,,,,,,,,,,,,,,,0,,,86,48
197280,note_on,120,0,1,,,,,,,,,,,,,,,0,,,86,0
197280,note_on,160,0,2,,,,,,,,,,,,,,,0,,,57,0
197280,note_on,0,0,2,,,,,,,,,,,,,,,0,,,50,30
197291,control_change,11,0,2,,,,,,,,,,,,,,,0,64,0,,
197320,set_tempo,160,1,0,,,,,,,,,,,,458015,,,,,,,
197326,control_change,35,0,2,,,,,,,,,,,,,,,0,64,127,,
197440,note_on,114,0,2,,,,,,,,,,,,,,,0,,,50,0
197440,note_on,0,0,2,,,,,,,,,,,,,,,0,,,55,26
197480,set_tempo,160,1,0,,,,,,,,,,,,459770,,,,,,,
197600,note_on,0,0,2,,,,,,,,,,,,,,,0,,,58,26
197600,note_on,160,0,2,,,,,,,,,,,,,,,0,,,55,0
197640,set_tempo,160,1,0,,,,,,,,,,,,461538,,,,,,,
197640,note_on,0,0,1,,,,,,,,,,,,,,,0,,,86,40
197640,note_on,360,0,1,,,,,,,,,,,,,,,0,,,86,0
197760,note_on,120,0,1,,,,,,,,,,,,,,,0,,,86,0
197760,note_on,160,0,2,,,,,,,,,,,,,,,0,,,58,0
197760,note_on,0,0,2,,,,,,,,,,,,,,,0,,,50,29
197760,control_change,0,0,2,,,,,,,,,,,,,,,0,64,0,,
197760,note_on,0,0,1,,,,,,,,,,,,,,,0,,,86,47
197794,control_change,34,0,2,,,,,,,,,,,,,,,0,64,127,,
197840,set_tempo,200,1,0,,,,,,,,,,,,456274,,,,,,,
197920,note_on,0,0,2,,,,,,,,,,,,,,,0,,,54,27
197920,note_on,126,0,2,,,,,,,,,,,,,,,0,,,50,0
197960,set_tempo,120,1,0,,,,,,,,,,,,458015,,,,,,,
198000,note_on,240,0,1,,,,,,,,,,,,,,,0,,,86,0
198080,note_on,160,0,2,,,,,,,,,,,,,,,0,,,54,0
198080,note_on,0,0,2,,,,,,,,,,,,,,,0,,,57,28
198080,set_tempo,120,1,0,,,,,,,,,,,,459770,,,,,,,
198200,set_tempo,120,1,0,,,,,,,,,,,,461538,,,,,,,
198240,note_on,160,0,2,,,,,,,,,,,,,,,0,,,57,0
198240,note_on,0,0,2,,,,,,,,,,,,,,,0,,,50,34
198251,control_change,11,0,2,,,,,,,,,,,,,,,0,64,0,,
198286,control_change,35,0,2,,,,,,,,,,,,,,,0,64,127,,
198400,note_on,114,0,2,,,,,,,,,,,,,,,0,,,50,0
198400,note_on,0,0,2,,,,,,,,,,,,,,,0,,,55,30
198480,set_tempo,280,1,0,,,,,,,,,,,,468750,,,,,,,
198560,note_on,0,0,2,,,,,,,,,,,,,,,0,,,58,30
198560,note_on,160,0,2,,,,,,,,,,,,,,,0,,,55,0
198600,note_on,600,0,1,,,,,,,,,,,,,,,0,,,74,48
198669,control_change,109,0,2,,,,,,,,,,,,,,,0,64,0,,
198690,note_on,90,0,1,,,,,,,,,,,,,,,0,,,74,0
198720,note_on,51,0,2,,,,,,,,,,,,,,,0,,,58,0
198720,control_change,0,0,2,,,,,,,,,,,,,,,0,64,127,,
198720,note_on,30,0,1,,,,,,,,,,,,,,,0,,,75,53
198720,note_on,0,0,2,,,,,,,,,,,,,,,0,,,50,34
198880,note_on,0,0,2,,,,,,,,,,,,,,,0,,,54,31
198880,note_on,160,0,2,,,,,,,,,,,,,,,0,,,50,0
198960,note_on,0,0,1,,,,,,,,,,,,,,,0,,,74,49
198960,note_on,240,0,1,,,,,,,,,,,,,,,0,,,75,0
199000,set_tempo,520,1,0,,,,,,,,,,,,476190,,,,,,,
199040,note_on,0,0,2,,,,,,,,,,,,,,,0,,,57,31
199040,note_on,160,0,2,,,,,,,,,,,,,,,0,,,54,0
199200,note_on,0,0,1,,,,,,,,,,,,,,,0,,,74,51
199200,note_on,240,0,1,,,,,,,,,,,,,,,0,,,74,0
199200,note_on,0,0,2,,,,,,,,,,,,,,,0,,,48,34
199200,note_on,160,0,2,,,,,,,,,,,,,,,0,,,57,0
199251,control_change,51,0,2,,,,,,,,,,,,,,,0,64,0,,
199320,control_change,69,0,2,,,,,,,,,,,,,,,0,64,127,,
199320,note_on,120,0,1,,,,,,,,,,,,,,,0,,,74,0
199360,note_on,40,0,2,,,,,,,,,,,,,,,0,,,48,0
199360,note_on,0,0,2,,,,,,,,,,,,,,,0,,,54,31
199440,note_on,120,0,1,,,,,,,,,,,,,,,0,,,74,49
199440,set_tempo,440,1,0,,,,,,,,,,,,481928,,,,,,,
199520,note_on,160,0,2,,,,,,,,,,,,,,,0,,,54,0
199520,note_on,0,0,2,,,,,,,,,,,,,,,0,,,57,31
199560,note_on,120,0,1,,,,,,,,,,,,,,,0,,,74,0
199680,note_on,160,0,2,,,,,,,,,,,,,,,0,,,57,0
199680,control_change,0,0,2,,,,,,,,,,,,,,,0,64,0,,
199680,note_on,0,0,2,,,,,,,,,,,,,,,0,,,46,34
199680,note_on,0,0,2,,,,,,,,,,,,,,,0,,,53,34
199680,set_tempo,240,1,0,,,,,,,,,,,,468750,,,,,,,
199680,note_on,0,0,2,,,,,,,,,,,,,,,0,,,58,34
199680,note_on,120,0,1,,,,,,,,,,,,,,,0,,,74,47
199736,control_change,56,0,2,,,,,,,,,,,,,,,0,64,127,,
199760,note_on,0,0,2,,,,,,,,,,,,,,,0,,,46,0
199760,note_on,0,0,2,,,,,,,,,,,,,,,0,,,53,0
199760,note_on,24,0,2,,,,,,,,,,,,,,,0,,,58,0
199840,note_on,80,0,2,,,,,,,,,,,,,,,0,,,62,30
199920,note_on,240,0,1,,,,,,,,,,,,,,,0,,,74,0
200000,note_on,160,0,2,,,,,,,,,,,,,,,0,,,62,0
200000,note_on,0,0,2,,,,,,,,,,,,,,,0,,,65,30
200160,note_on,160,0,2,,,,,,,,,,,,,,,0,,,65,0
200160,note_on,0,0,2,,,,,,,,,,,,,,,0,,,58,34
200195,control_change,35,0,2,,,,,,,,,,,,,,,0,64,0,,
200252,control_change,57,0,2,,,,,,,,,,,,,,,0,64,127,,
200320,note_on,68,0,2,,,,,,,,,,,,,,,0,,,58,0
200320,note_on,0,0,2,,,,,,,,,,,,,,,0,,,62,30
200480,note_on,160,0,2,,,,,,,,,,,,,,,0,,,62,0
200480,note_on,0,0,2,,,,,,,,,,,,,,,0,,,65,30
200520,note_on,600,0,1,,,,,,,,,,,,,,,0,,,93,43
200640,note_on,160,0,2,,,,,,,,,,,,,,,0,,,65,0
200640,note_on,0,0,1,,,,,,,,,,,,,,,0,,,94,48
200640,note_on,0,0,2,,,,,,,,,,,,,,,0,,,58,34
200640,note_on,120,0,1,,,,,,,,,,,,,,,0,,,93,0
200640,set_tempo,960,1,0,,,,,,,,,,,,449438,,,,,,,
200682,control_change,42,0,2,,,,,,,,,,,,,,,0,64,0,,
200693,control_change,11,0,2,,,,,,,,,,,,,,,0,64,0,,
200746,control_change,53,0,2,,,,,,,,,,,,,,,0,64,127,,
200800,note_on,0,0,2,,,,,,,,,,,,,,,0,,,62,29
200800,note_on,54,0,2,,,,,,,,,,,,,,,0,,,58,0
200960,note_on,160,0,2,,,,,,,,,,,,,,,0,,,62,0
200960,set_tempo,320,1,0,,,,,,,,,,,,447761,,,,,,,
200960,note_on,0,0,2,,,,,,,,,,,,,,,0,,,65,29
201000,note_on,0,0,1,,,,,,,,,,,,,,,0,,,94,45
201000,note_on,360,0,1,,,,,,,,,,,,,,,0,,,94,0
201120,note_on,120,0,1,,,,,,,,,,,,,,,0,,,94,0
201120,note_on,0,0,1,,,,,,,,,,,,,,,0,,,92,52
201120,note_on,0,0,2,,,,,,,,,,,,,,,0,,,59,34
201120,note_on,160,0,2,,,,,,,,,,,,,,,0,,,65,0
201126,control_change,6,0,2,,,,,,,,,,,,,,,0,64,0,,
201160,control_change,34,0,2,,,,,,,,,,,,,,,0,64,127,,
201280,note_on,0,0,2,,,,,,,,,,,,,,,0,,,62,30
201280,set_tempo,320,1,0,,,,,,,,,,,,446097,,,,,,,
201280,note_on,120,0,2,,,,,,,,,,,,,,,0,,,59,0
201440,note_on,0,0,2,,,,,,,,,,,,,,,0,,,65,30
201440,note_on,160,0,2,,,,,,,,,,,,,,,0,,,62,0
201480,note_on,0,0,1,,,,,,,,,,,,,,,0,,,92,48
201480,note_on,360,0,1,,,,,,,,,,,,,,,0,,,92,0
201600,note_on,160,0,2,,,,,,,,,,,,,,,0,,,65,0
201600,set_tempo,320,1,0,,,,,,,,,,,,442804,,,,,,,
201600,note_on,120,0,1,,,,,,,,,,,,,,,0,,,92,0
201600,note_on,0,0,1,,,,,,,,,,,,,,,0,,,89,52
201600,note_on,0,0,2,,,,,,,,,,,,,,,0,,,58,34
201671,control_change,71,0,2,,,,,,,,,,,,,,,0,64,0,,
201741,control_change,70,0,2,,,,,,,,,,,,,,,0,64,127,,
201760,set_tempo,160,1,0,,,,,,,,,,,,444444,,,,,,,
201760,note_on,0,0,2,,,,,,,,,,,,,,,0,,,62,30
201760,note_on,19,0,2,,,,,,,,,,,,,,,0,,,58,0
201920,set_tempo,160,1,0,,,,,,,,,,,,446097,,,,,,,
201920,note_on,0,0,2,,,,,,,,,,,,,,,0,,,65,30
201920,note_on,160,0,2,,,,,,,,,,,,,,,0,,,62,0
201960,note_on,0,0,1,,,,,,,,,,,,,,,0,,,89,48
201960,note_on,360,0,1,,,,,,,,,,,,,,,0,,,89,0
202080,note_on,0,0,2,,,,,,,,,,,,,,,0,,,59,34
202080,set_tempo,160,1,0,,,,,,,,,,,,447761,,,,,,,
202080,note_on,0,0,1,,,,,,,,,,,,,,,0,,,86,54
202080,note_on,120,0,1,,,,,,,,,,,,,,,0,,,89,0
202080,note_on,160,0,2,,,,,,,,,,,,,,,0,,,65,0
202086,control_change,6,0,2,,,,,,,,,,,,,,,0,64,0,,
202120,set_tempo,40,1,0,,,,,,,,,,,,446097,,,,,,,
202143,control_change,57,0,2,,,,,,,,,,,,,,,0,64,127,,
202240,note_on,0,0,2,,,,,,,,,,,,,,,0,,,62,30
202240,note_on,97,0,2,,,,,,,,,,,,,,,0,,,59,0
202400,note_on,160,0,2,,,,,,,,,,,,,,,0,,,62,0
202400,note_on,0,0,2,,,,,,,,,,,,,,,0,,,65,30
202440,note_on,0,0,1,,,,,,,,,,,,,,,0,,,86,49
202440,note_on,360,0,1,,,,,,,,,,,,,,,0,,,86,0
202560,note_on,160,0,2,,,,,,,,,,,,,,,0,,,65,0
202560,control_change,0,0,2,,,,,,,,,,,,,,,0,64,0,,
202560,note_on,0,0,2,,,,,,,,,,,,,,,0,,,58,34
202560,note_on,0,0,1,,,,,,,,,,,,,,,0,,,89,54
202560,note_on,120,0,1,,,,,,,,,,,,,,,0,,,86,0
202594,control_change,34,0,2,,,,,,,,,,,,,,,0,64,127,,
202600,set_tempo,480,1,0,,,,,,,,,,,,447761,,,,,,,
202720,note_on,0,0,2,,,,,,,,,,,,,,,0,,,62,29
202720,note_on,126,0,2,,,,,,,,,,,,,,,0,,,58,0
202880,note_on,0,0,2,,,,,,,,,,,,,,,0,,,65,29
202880,note_on,160,0,2,,,,,,,,,,,,,,,0,,,62,0
202920,note_on,360,0,1,,,,,,,,,,,,,,,0,,,89,0
202920,note_on,0,0,1,,,,,,,,,,,,,,,0,,,89,48
203040,note_on,120,0,1,,,,,,,,,,,,,,,0,,,89,0
203040,note_on,0,0,1,,,,,,,,,,,,,,,0,,,90,54
203040,note_on,160,0,2,,,,,,,,,,,,,,,0,,,65,0
203040,note_on,0,0,2,,,,,,,,,,,,,,,0,,,56,34
203051,control_change,11,0,2,,,,,,,,,,,,,,,0,64,0,,
203080,set_tempo,480,1,0,,,,,,,,,,,,449438,,,,,,,
203086,control_change,35,0,2,,,,,,,,,,,,,,,0,64,127,,
203200,note_on,114,0,2,,,,,,,,,,,,,,,0,,,56,0
203200,note_on,0,0,2,,,,,,,,,,,,,,,0,,,60,30
203360,note_on,160,0,2,,,,,,,,,,,,,,,0,,,60,0
203360,note_on,0,0,2,,,,,,,,,,,,,,,0,,,66,30
203400,note_on,360,0,1,,,,,,,,,,,,,,,0,,,90,0
203400,note_on,0,0,1,,,,,,,,,,,,,,,0,,,90,47
203520,note_on,0,0,1,,,,,,,,,,,,,,,0,,,91,55
203520,set_tempo,440,1,0,,,,,,,,,,,,447761,,,,,,,
203520,note_on,120,0,1,,,,,,,,,,,,,,,0,,,90,0
203520,note_on,0,0,2,,,,,,,,,,,,,,,0,,,55,34
203520,control_change,0,0,2,,,,,,,,,,,,,,,0,64,0,,
203520,note_on,160,0,2,,,,,,,,,,,,,,,0,,,66,0
203554,control_change,34,0,2,,,,,,,,,,,,,,,0,64,127,,
203680,note_on,126,0,2,,,,,,,,,,,,,,,0,,,55,0
203680,note_on,0,0,2,,,,,,,,,,,,,,,0,,,59,28
203840,note_on,0,0,2,,,,,,,,,,,,,,,0,,,67,28
203840,note_on,160,0,2,,,,,,,,,,,,,,,0,,,59,0
203880,note_on,0,0,1,,,,,,,,,,,,,,,0,,,91,47
203880,note_on,360,0,1,,,,,,,,,,,,,,,0,,,91,0
204000,note_on,0,0,1,,,,,,,,,,,,,,,0,,,91,52
204000,note_on,120,0,1,,,,,,,,,,,,,,,0,,,91,0
204000,note_on,0,0,2,,,,,,,,,,,,,,,0,,,55,33
204000,note_on,160,0,2,,,,,,,,,,,,,,,0,,,67,0
204011,control_change,11,0,2,,,,,,,,,,,,,,,0,64,0,,
204040,set_tempo,520,1,0,,,,,,,,,,,,449438,,,,,,,
204046,control_change,35,0,2,,,,,,,,,,,,,,,0,64,127,,
204160,note_on,114,0,2,,,,,,,,,,,,,,,0,,,55,0
204160,note_on,0,0,2,,,,,,,,,,,,,,,0,,,60,28
204320,note_on,160,0,2,,,,,,,,,,,,,,,0,,,60,0
204320,note_on,0,0,2,,,,,,,,,,,,,,,0,,,63,28
204360,note_on,0,0,1,,,,,,,,,,,,,,,0,,,91,44
204360,note_on,360,0,1,,,,,,,,,,,,,,,0,,,91,0
204480,note_on,120,0,1,,,,,,,,,,,,,,,0,,,91,0
204480,note_on,0,0,1,,,,,,,,,,,,,,,0,,,91,51
204480,note_on,160,0,2,,,,,,,,,,,,,,,0,,,63,0
204480,control_change,0,0,2,,,,,,,,,,,,,,,0,64,0,,
204480,note_on,0,0,2,,,,,,,,,,,,,,,0,,,55,31
204514,control_change,34,0,2,,,,,,,,,,,,,,,0,64,127,,
204520,set_tempo,480,1,0,,,,,,,,,,,,452830,,,,,,,
204640,note_on,126,0,2,,,,,,,,,,,,,,,0,,,55,0
204640,note_on,0,0,2,,,,,,,,,,,,,,,0,,,59,26
204680,set_tempo,160,1,0,,,,,,,,,,,,454545,,,,,,,
204800,note_on,0,0,2,,,,,,,,,,,,,,,0,,,62,26
204800,note_on,160,0,2,,,,,,,,,,,,,,,0,,,59,0
204840,note_on,0,0,1,,,,,,,,,,,,,,,0,,,91,43
204840,set_tempo,160,1,0,,,,,,,,,,,,456274,,,,,,,
204840,note_on,360,0,1,,,,,,,,,,,,,,,0,,,91,0
204960,note_on,160,0,2,,,,,,,,,,,,,,,0,,,62,0
204960,note_on,0,0,2,,,,,,,,,,,,,,,0,,,55,30
204960,note_on,120,0,1,,,,,,,,,,,,,,,0,,,91,0
204960,note_on,0,0,1,,,,,,,,,,,,,,,0,,,91,48
204971,control_change,11,0,2,,,,,,,,,,,,,,,0,64,0,,
205000,set_tempo,160,1,0,,,,,,,,,,,,458015,,,,,,,
205006,control_change,35,0,2,,,,,,,,,,,,,,,0,64,127,,
205120,note_on,0,0,2,,,,,,,,,,,,,,,0,,,60,26
205120,note_on,114,0,2,,,,,,,,,,,,,,,0,,,55,0
205160,set_tempo,160,1,0,,,,,,,,,,,,459770,,,,,,,
205280,note_on,0,0,2,,,,,,,,,,,,,,,0,,,63,26
205280,note_on,160,0,2,,,,,,,,,,,,,,,0,,,60,0
205320,note_on,0,0,1,,,,,,,,,,,,,,,0,,,91,40
205320,set_tempo,160,1,0,,,,,,,,,,,,461538,,,,,,,
205320,note_on,360,0,1,,,,,,,,,,,,,,,0,,,91,0
205440,control_change,0,0,2,,,,,,,,,,,,,,,0,64,0,,
205440,note_on,0,0,1,,,,,,,,,,,,,,,0,,,91,47
205440,note_on,0,0,2,,,,,,,,,,,,,,,0,,,55,29
205440,note_on,160,0,2,,,,,,,,,,,,,,,0,,,63,0
205440,note_on,120,0,1,,,,,,,,,,,,,,,0,,,91,0
205474,control_change,34,0,2,,,,,,,,,,,,,,,0,64,127,,
205520,set_tempo,200,1,0,,,,,,,,,,,,456274,,,,,,,
205600,note_on,0,0,2,,,,,,,,,,,,,,,0,,,59,27
205600,note_on,126,0,2,,,,,,,,,,,,,,,0,,,55,0
205640,set_tempo,120,1,0,,,,,,,,,,,,458015,,,,,,,
205680,note_on,240,0,1,,,,,,,,,,,,,,,0,,,91,0
205760,note_on,0,0,2,,,,,,,,,,,,,,,0,,,62,28
205760,set_tempo,120,1,0,,,,,,,,,,,,459770,,,,,,,
205760,note_on,160,0,2,,,,,,,,,,,,,,,0,,,59,0
205880,set_tempo,120,1,0,,,,,,,,,,,,461538,,,,,,,
205920,note_on,0,0,2,,,,,,,,,,,,,,,0,,,55,34
205920,note_on,160,0,2,,,,,,,,,,,,,,,0,,,62,0
205931,control_change,11,0,2,,,,,,,,,,,,,,,0,64,0,,
205966,control_change,35,0,2,,,,,,,,,,,,,,,0,64,127,,
206080,note_on,0,0,2,,,,,,,,,,,,,,,0,,,60,30
206080,note_on,114,0,2,,,,,,,,,,,,,,,0,,,55,0
206160,set_tempo,280,1,0,,,,,,,,,,,,468750,,,,,,,
206240,note_on,160,0,2,,,,,,,,,,,,,,,0,,,60,0
206240,note_on,0,0,2,,,,,,,,,,,,,,,0,,,63,30
206280,note_on,600,0,1,,,,,,,,,,,,,,,0,,,79,48
206349,control_change,109,0,2,,,,,,,,,,,,,,,0,64,0,,
206370,note_on,90,0,1,,,,,,,,,,,,,,,0,,,79,0
206400,control_change,0,0,2,,,,,,,,,,,,,,,0,64,127,,
206400,note_on,0,0,2,,,,,,,,,,,,,,,0,,,55,34
206400,note_on,51,0,2,,,,,,,,,,,,,,,0,,,63,0
206400,note_on,30,0,1,,,,,,,,,,,,,,,0,,,80,53
206560,note_on,0,0,2,,,,,,,,,,,,,,,0,,,59,31
206560,note_on,160,0,2,,,,,,,,,,,,,,,0,,,55,0
206640,note_on,240,0,1,,,,,,,,,,,,,,,0,,,80,0
206640,note_on,0,0,1,,,,,,,,,,,,,,,0,,,79,49
206680,set_tempo,520,1,0,,,,,,,,,,,,476190,,,,,,,
206720,note_on,0,0,2,,,,,,,,,,,,,,,0,,,62,31
206720,note_on,160,0,2,,,,,,,,,,,,,,,0,,,59,0
206760,note_on,120,0,1,,,,,,,,,,,,,,,0,,,79,0
206880,note_on,160,0,2,,,,,,,,,,,,,,,0,,,62,0
206880,note_on,0,0,2,,,,,,,,,,,,,,,0,,,55,34
206880,note_on,120,0,1,,,,,,,,,,,,,,,0,,,79,51
206931,control_change,51,0,2,,,,,,,,,,,,,,,0,64,0,,
207000,control_change,69,0,2,,,,,,,,,,,,,,,0,64,127,,
207000,note_on,120,0,1,,,,,,,,,,,,,,,0,,,79,0
207040,note_on,40,0,2,,,,,,,,,,,,,,,0,,,55,0
207040,note_on,0,0,2,,,,,,,,,,,,,,,0,,,60,31
207120,set_tempo,440,1,0,,,,,,,,,,,,481928,,,,,,,
207120,note_on,120,0,1,,,,,,,,,,,,,,,0,,,79,49
207200,note_on,160,0,2,,,,,,,,,,,,,,,0,,,60,0
207200,note_on,0,0,2,,,,,,,,,,,,,,,0,,,63,31
207240,note_on,120,0,1,,,,,,,,,,,,,,,0,,,79,0
207360,note_on,0,0,2,,,,,,,,,,,,,,,0,,,55,34
207360,control_change,0,0,2,,,,,,,,,,,,,,,0,64,0,,
207360,note_on,160,0,2,,,,,,,,,,,,,,,0,,,63,0
207360,set_tempo,240,1,0,,,,,,,,,,,,468750,,,,,,,
207360,note_on,120,0,1,,,,,,,,,,,,,,,0,,,79,47
207416,control_change,56,0,2,,,,,,,,,,,,,,,0,64,127,,
207520,note_on,104,0,2,,,,,,,,,,,,,,,0,,,55,0
207520,note_on,0,0,2,,,,,,,,,,,,,,,0,,,59,30
207600,note_on,240,0,1,,,,,,,,,,,,,,,0,,,79,0
207680,note_on,160,0,2,,,,,,,,,,,,,,,0,,,59,0
207680,note_on,0,0,2,,,,,,,,,,,,,,,0,,,62,30
207840,note_on,160,0,2,,,,,,,,,,,,,,,0,,,62,0
207840,note_on,0,0,2,,,,,,,,,,,,,,,0,,,55,34
207851,control_change,11,0,2,,,,,,,,,,,,,,,0,64,0,,
207886,control_change,35,0,2,,,,,,,,,,,,,,,0,64,127,,
208000,note_on,0,0,2,,,,,,,,,,,,,,,0,,,60,30
208000,note_on,114,0,2,,,,,,,,,,,,,,,0,,,55,0
208080,set_tempo,720,1,0,,,,,,,,,,,,468750,,,,,,,
208160,note_on,160,0,2,,,,,,,,,,,,,,,0,,,60,0
208160,note_on,0,0,2,,,,,,,,,,,,,,,0,,,63,30
208200,note_on,600,0,1,,,,,,,,,,,,,,,0,,,94,48
208269,control_change,109,0,2,,,,,,,,,,,,,,,0,64,0,,
208290,note_on,90,0,1,,,,,,,,,,,,,,,0,,,94,0
208320,control_change,0,0,2,,,,,,,,,,,,,,,0,64,127,,
208320,note_on,0,0,2,,,,,,,,,,,,,,,0,,,55,34
208320,note_on,30,0,1,,,,,,,,,,,,,,,0,,,92,53
208320,note_on,51,0,2,,,,,,,,,,,,,,,0,,,63,0
208480,note_on,0,0,2,,,,,,,,,,,,,,,0,,,59,31
208480,note_on,160,0,2,,,,,,,,,,,,,,,0,,,55,0
208560,note_on,0,0,1,,,,,,,,,,,,,,,0,,,91,49
208560,note_on,240,0,1,,,,,,,,,,,,,,,0,,,92,0
208600,set_tempo,520,1,0,,,,,,,,,,,,476190,,,,,,,
208640,note_on,160,0,2,,,,,,,,,,,,,,,0,,,59,0
208640,note_on,0,0,2,,,,,,,,,,,,,,,0,,,62,31
208680,note_on,120,0,1,,,,,,,,,,,,,,,0,,,91,0
208800,note_on,0,0,2,,,,,,,,,,,,,,,0,,,55,34
208800,note_on,160,0,2,,,,,,,,,,,,,,,0,,,62,0
208800,note_on,120,0,1,,,,,,,,,,,,,,,0,,,91,51
208851,control_change,51,0,2,,,,,,,,,,,,,,,0,64,0,,
208920,note_on,120,0,1,,,,,,,,,,,,,,,0,,,91,0
208920,control_change,69,0,2,,,,,,,,,,,,,,,0,64,127,,
208960,note_on,0,0,2,,,,,,,,,,,,,,,0,,,60,31
208960,note_on,40,0,2,,,,,,,,,,,,,,,0,,,55,0
209040,note_on,120,0,1,,,,,,,,,,,,,,,0,,,91,49
209040,set_tempo,440,1,0,,,,,,,,,,,,481928,,,,,,,
209120,note_on,0,0,2,,,,,,,,,,,,,,,0,,,63,31
209120,note_on,160,0,2,,,,,,,,,,,,,,,0,,,60,0
209160,note_on,120,0,1,,,,,,,,,,,,,,,0,,,91,0
209280,set_tempo,240,1,0,,,,,,,,,,,,468750,,,,,,,
209280,note_on,120,0,1,,,,,,,,,,,,,,,0,,,91,47
209280,note_on,160,0,2,,,,,,,,,,,,,,,0,,,63,0
209280,control_change,0,0,2,,,,,,,,,,,,,,,0,64,0,,
209280,note_on,0,0,2,,,,,,,,,,,,,,,0,,,55,34
209336,control_change,56,0,2,,,,,,,,,,,,,,,0,64,127,,
209440,note_on,104,0,2,,,,,,,,,,,,,,,0,,,55,0
209440,note_on,0,0,2,,,,,,,,,,,,,,,0,,,59,30
209520,note_on,240,0,1,,,,,,,,,,,,,,,0,,,91,0
209600,note_on,160,0,2,,,,,,,,,,,,,,,0,,,59,0
209600,note_on,0,0,2,,,,,,,,,,,,,,,0,,,62,30
209760,note_on,0,0,2,,,,,,,,,,,,,,,0,,,55,34
209760,note_on,160,0,2,,,,,,,,,,,,,,,0,,,62,0
209771,control_change,11,0,2,,,,,,,,,,,,,,,0,64,0,,
209806,control_change,35,0,2,,,,,,,,,,,,,,,0,64,127,,
209920,note_on,114,0,2,,,,,,,,,,,,,,,0,,,55,0
209920,note_on,0,0,2,,,,,,,,,,,,,,,0,,,60,30
210000,set_tempo,720,1,0,,,,,,,,,,,,468750,,,,,,,
210080,note_on,0,0,2,,,,,,,,,,,,,,,0,,,63,30
210080,note_on,160,0,2,,,,,,,,,,,,,,,0,,,60,0
210120,note_on,600,0,1,,,,,,,,,,,,,,,0,,,67,48
210189,control_change,109,0,2,,,,,,,,,,,,,,,0,64,0,,
210210,note_on,90,0,1,,,,,,,,,,,,,,,0,,,67,0
210240,note_on,51,0,2,,,,,,,,,,,,,,,0,,,63,0
210240,control_change,0,0,2,,,,,,,,,,,,,,,0,64,127,,
210240,note_on,30,0,1,,,,,,,,,,,,,,,0,,,68,53
210240,note_on,0,0,2,,,,,,,,,,,,,,,0,,,55,34
210400,note_on,160,0,2,,,,,,,,,,,,,,,0,,,55,0
210400,note_on,0,0,2,,,,,,,,,,,,,,,0,,,59,31
210480,note_on,240,0,1,,,,,,,,,,,,,,,0,,,68,0
210480,note_on,0,0,1,,,,,,,,,,,,,,,0,,,67,49
210520,set_tempo,520,1,0,,,,,,,,,,,,476190,,,,,,,
210560,note_on,160,0,2,,,,,,,,,,,,,,,0,,,59,0
210560,note_on,0,0,2,,,,,,,,,,,,,,,0,,,62,31
210600,note_on,120,0,1,,,,,,,,,,,,,,,0,,,67,0
210720,note_on,0,0,2,,,,,,,,,,,,,,,0,,,55,34
210720,note_on,120,0,1,,,,,,,,,,,,,,,0,,,67,51
210720,note_on,160,0,2,,,,,,,,,,,,,,,0,,,62,0
210771,control_change,51,0,2,,,,,,,,,,,,,,,0,64,0,,
210840,note_on,120,0,1,,,,,,,,,,,,,,,0,,,67,0
210840,control_change,69,0,2,,,,,,,,,,,,,,,0,64,127,,
210880,note_on,40,0,2,,,,,,,,,,,,,,,0,,,55,0
210880,note_on,0,0,2,,,,,,,,,,,,,,,0,,,60,31
210960,set_tempo,440,1,0,,,,,,,,,,,,481928,,,,,,,
210960,note_on,120,0,1,,,,,,,,,,,,,,,0,,,67,49
211040,note_on,160,0,2,,,,,,,,,,,,,,,0,,,60,0
211040,note_on,0,0,2,,,,,,,,,,,,,,,0,,,63,31
211080,note_on,120,0,1,,,,,,,,,,,,,,,0,,,67,0
211200,set_tempo,240,1,0,,,,,,,,,,,,468750,,,,,,,
211200,note_on,120,0,1,,,,,,,,,,,,,,,0,,,67,47
211200,note_on,0,0,2,,,,,,,,,,,,,,,0,,,55,34
211200,control_change,0,0,2,,,,,,,,,,,,,,,0,64,0,,
211200,note_on,160,0,2,,,,,,,,,,,,,,,0,,,63,0
211256,control_change,56,0,2,,,,,,,,,,,,,,,0,64,127,,
211360,note_on,104,0,2,,,,,,,,,,,,,,,0,,,55,0
211360,note_on,0,0,2,,,,,,,,,,,,,,,0,,,59,30
211440,note_on,240,0,1,,,,,,,,,,,,,,,0,,,67,0
211520,note_on,0,0,2,,,,,,,,,,,,,,,0,,,62,30
211520,note_on,160,0,2,,,,,,,,,,,,,,,0,,,59,0
211680,note_on,160,0,2,,,,,,,,,,,,,,,0,,,62,0
211680,note_on,0,0,2,,,,,,,,,,,,,,,0,,,55,34
211691,control_change,11,0,2,,,,,,,,,,,,,,,0,64,0,,
211726,control_change,35,0,2,,,,,,,,,,,,,,,0,64,127,,
211840,note_on,114,0,2,,,,,,,,,,,,,,,0,,,55,0
211840,note_on,0,0,2,,,,,,,,,,,,,,,0,,,60,30
211920,set_tempo,720,1,0,,,,,,,,,,,,468750,,,,,,,
212000,note_on,160,0,2,,,,,,,,,,,,,,,0,,,60,0
212000,note_on,0,0,2,,,,,,,,,,,,,,,0,,,63,30
212040,note_on,600,0,1,,,,,,,,,,,,,,,0,,,82,48
212109,control_change,109,0,2,,,,,,,,,,,,,,,0,64,0,,
212130,note_on,90,0,1,,,,,,,,,,,,,,,0,,,82,0
212160,control_change,0,0,2,,,,,,,,,,,,,,,0,64,127,,
212160,note_on,30,0,1,,,,,,,,,,,,,,,0,,,80,53
212160,note_on,0,0,2,,,,,,,,,,,,,,,0,,,55,34
212160,note_on,51,0,2,,,,,,,,,,,,,,,0,,,63,0
212320,note_on,160,0,2,,,,,,,,,,,,,,,0,,,55,0
212320,note_on,0,0,2,,,,,,,,,,,,,,,0,,,59,31
212400,note_on,240,0,1,,,,,,,,,,,,,,,0,,,80,0
212400,note_on,0,0,1,,,,,,,,,,,,,,,0,,,79,49
212440,set_tempo,520,1,0,,,,,,,,,,,,476190,,,,,,,
212480,note_on,0,0,2,,,,,,,,,,,,,,,0,,,62,31
212480,note_on,160,0,2,,,,,,,,,,,,,,,0,,,59,0
212520,note_on,120,0,1,,,,,,,,,,,,,,,0,,,79,0
212640,note_on,160,0,2,,,,,,,,,,,,,,,0,,,62,0
212640,note_on,120,0,1,,,,,,,,,,,,,,,0,,,79,51
212640,note_on,0,0,2,,,,,,,,,,,,,,,0,,,55,34
212691,control_change,51,0,2,,,,,,,,,,,,,,,0,64,0,,
212760,control_change,69,0,2,,,,,,,,,,,,,,,0,64,127,,
212760,note_on,120,0,1,,,,,,,,,,,,,,,0,,,79,0
212800,note_on,0,0,2,,,,,,,,,,,,,,,0,,,60,31
212800,note_on,40,0,2,,,,,,,,,,,,,,,0,,,55,0
212880,note_on,120,0,1,,,,,,,,,,,,,,,0,,,79,49
212880,set_tempo,440,1,0,,,,,,,,,,,,481928,,,,,,,
212960,note_on,0,0,2,,,,,,,,,,,,,,,0,,,63,31
212960,note_on,160,0,2,,,,,,,,,,,,,,,0,,,60,0
213000,note_on,120,0,1,,,,,,,,,,,,,,,0,,,79,0
213120,note_on,120,0,1,,,,,,,,,,,,,,,0,,,80,53
213120,note_on,0,0,2,,,,,,,,,,,,,,,0,,,55,34
213120,control_change,0,0,2,,,,,,,,,,,,,,,0,64,127,,
213120,note_on,160,0,2,,,,,,,,,,,,,,,0,,,63,0
213280,note_on,0,0,2,,,,,,,,,,,,,,,0,,,59,31
213280,note_on,160,0,2,,,,,,,,,,,,,,,0,,,55,0
213360,note_on,0,0,1,,,,,,,,,,,,,,,0,,,79,49
213360,note_on,240,0,1,,,,,,,,,,,,,,,0,,,80,0
213400,set_tempo,520,1,0,,,,,,,,,,,,476190,,,,,,,
213440,note_on,160,0,2,,,,,,,,,,,,,,,0,,,59,0
213440,note_on,0,0,2,,,,,,,,,,,,,,,0,,,62,31
213480,note_on,120,0,1,,,,,,,,,,,,,,,0,,,79,0
213600,note_on,0,0,2,,,,,,,,,,,,,,,0,,,55,34
213600,note_on,160,0,2,,,,,,,,,,,,,,,0,,,62,0
213600,note_on,120,0,1,,,,,,,,,,,,,,,0,,,79,51
213651,control_change,51,0,2,,,,,,,,,,,,,,,0,64,0,,
213720,note_on,120,0,1,,,,,,,,,,,,,,,0,,,79,0
213720,control_change,69,0,2,,,,,,,,,,,,,,,0,64,127,,
213760,note_on,40,0,2,,,,,,,,,,,,,,,0,,,55,0
213760,note_on,0,0,2,,,,,,,,,,,,,,,0,,,60,31
213840,set_tempo,440,1,0,,,,,,,,,,,,515021,,,,,,,
213840,note_on,120,0,1,,,,,,,,,,,,,,,0,,,79,49
213920,note_on,160,0,2,,,,,,,,,,,,,,,0,,,60,0
213920,note_on,0,0,2,,,,,,,,,,,,,,,0,,,63,31
213960,note_on,120,0,1,,,,,,,,,,,,,,,0,,,79,0
214080,note_on,120,0,1,,,,,,,,,,,,,,,0,,,79,53
214080,control_change,0,0,1,,,,,,,,,,,,,,,0,91,127,,
214080,note_on,0,0,2,,,,,,,,,,,,,,,0,,,55,34
214080,note_on,160,0,2,,,,,,,,,,,,,,,0,,,63,0
214080,set_tempo,240,1,0,,,,,,,,,,,,497925,,,,,,,
214080,control_change,0,0,2,,,,,,,,,,,,,,,0,64,0,,
214080,note_on,0,0,2,,,,,,,,,,,,,,,0,,,62,34
214080,note_on,0,0,2,,,,,,,,,,,,,,,0,,,59,34
214320,note_on,240,0,2,,,,,,,,,,,,,,,0,,,55,0
214320,note_on,240,0,1,,,,,,,,,,,,,,,0,,,79,0
214320,note_on,0,0,2,,,,,,,,,,,,,,,0,,,62,0
214320,note_on,0,0,2,,,,,,,,,,,,,,,0,,,59,0
214560,note_on,0,0,2,,,,,,,,,,,,,,,0,,,55,78
214560,note_on,240,0,2,,,,,,,,,,,,,,,0,,,67,94
214560,set_tempo,480,1,0,,,,,,,,,,,,437956,,,,,,,
215760,set_tempo,1200,1,0,,,,,,,,,,,,452625,,,,,,,
215880,note_on,1560,0,1,,,,,,,,,,,,,,,0,,,74,52
215970,note_on,90,0,1,,,,,,,,,,,,,,,0,,,74,0
216000,note_on,0,0,2,,,,,,,,,,,,,,,0,,,55,42
216000,note_on,30,0,1,,,,,,,,,,,,,,,0,,,72,63
216000,note_on,1440,0,2,,,,,,,,,,,,,,,0,,,55,0
216000,note_on,0,0,2,,,,,,,,,,,,,,,0,,,67,0
216000,set_tempo,240,1,0,,,,,,,,,,,,432059,,,,,,,
216240,note_on,0,0,1,,,,,,,,,,,,,,,0,,,71,37
216240,note_on,240,0,1,,,,,,,,,,,,,,,0,,,72,0
216240,note_on,240,0,2,,,,,,,,,,,,,,,0,,,55,0
216240,note_on,0,0,2,,,,,,,,,,,,,,,0,,,67,31
216360,note_on,120,0,1,,,,,,,,,,,,,,,0,,,71,0
216360,note_on,120,0,2,,,,,,,,,,,,,,,0,,,67,0
216480,note_on,120,0,2,,,,,,,,,,,,,,,0,,,65,31
216480,note_on,0,0,2,,,,,,,,,,,,,,,0,,,62,26
216480,note_on,120,0,1,,,,,,,,,,,,,,,0,,,71,43
216480,set_tempo,480,1,0,,,,,,,,,,,,438725,,,,,,,
216600,note_on,0,0,2,,,,,,,,,,,,,,,0,,,65,0
216600,note_on,120,0,2,,,,,,,,,,,,,,,0,,,62,0
216600,note_on,120,0,1,,,,,,,,,,,,,,,0,,,71,0
216720,note_on,120,0,1,,,,,,,,,,,,,,,0,,,71,37
216720,note_on,120,0,2,,,,,,,,,,,,,,,0,,,67,32
216720,set_tempo,240,1,0,,,,,,,,,,,,445567,,,,,,,
216840,note_on,120,0,2,,,,,,,,,,,,,,,0,,,67,0
216840,note_on,120,0,1,,,,,,,,,,,,,,,0,,,71,0
216960,note_on,120,0,1,,,,,,,,,,,,,,,0,,,71,55
216960,set_tempo,240,1,0,,,,,,,,,,,,438725,,,,,,,
216960,note_on,120,0,2,,,,,,,,,,,,,,,0,,,55,44
217200,note_on,0,0,1,,,,,,,,,,,,,,,0,,,72,40
217200,note_on,0,0,2,,,,,,,,,,,,,,,0,,,67,28
217200,note_on,240,0,2,,,,,,,,,,,,,,,0,,,55,0
217200,note_on,240,0,1,,,,,,,,,,,,,,,0,,,71,0
217320,note_on,120,0,2,,,,,,,,,,,,,,,0,,,67,0
217320,note_on,120,0,1,,,,,,,,,,,,,,,0,,,72,0
217440,note_on,0,0,2,,,,,,,,,,,,,,,0,,,63,35
217440,note_on,120,0,2,,,,,,,,,,,,,,,0,,,60,29
217560,note_on,0,0,2,,,,,,,,,,,,,,,0,,,60,0
217560,note_on,120,0,2,,,,,,,,,,,,,,,0,,,63,0
217680,note_on,120,0,2,,,,,,,,,,,,,,,0,,,67,32
217680,set_tempo,720,1,0,,,,,,,,,,,,449068,,,,,,,
217800,note_on,480,0,1,,,,,,,,,,,,,,,0,,,75,51
217800,note_on,120,0,2,,,,,,,,,,,,,,,0,,,67,0
217890,note_on,90,0,1,,,,,,,,,,,,,,,0,,,75,0
217920,note_on,30,0,1,,,,,,,,,,,,,,,0,,,72,63
217920,set_tempo,240,1,0,,,,,,,,,,,,432059,,,,,,,
217920,note_on,120,0,2,,,,,,,,,,,,,,,0,,,55,42
218160,note_on,0,0,1,,,,,,,,,,,,,,,0,,,71,37
218160,note_on,240,0,1,,,,,,,,,,,,,,,0,,,72,0
218160,note_on,240,0,2,,,,,,,,,,,,,,,0,,,55,0
218160,note_on,0,0,2,,,,,,,,,,,,,,,0,,,67,31
218280,note_on,120,0,1,,,,,,,,,,,,,,,0,,,71,0
218280,note_on,120,0,2,,,,,,,,,,,,,,,0,,,67,0
218400,set_tempo,480,1,0,,,,,,,,,,,,437031,,,,,,,
218400,note_on,120,0,1,,,,,,,,,,,,,,,0,,,71,44
218400,note_on,0,0,2,,,,,,,,,,,,,,,0,,,62,26
218400,note_on,120,0,2,,,,,,,,,,,,,,,0,,,65,31
218520,note_on,120,0,1,,,,,,,,,,,,,,,0,,,71,0
218520,note_on,0,0,2,,,,,,,,,,,,,,,0,,,65,0
218520,note_on,120,0,2,,,,,,,,,,,,,,,0,,,62,0
218640,note_on,120,0,1,,,,,,,,,,,,,,,0,,,71,37
218640,set_tempo,240,1,0,,,,,,,,,,,,449068,,,,,,,
218640,note_on,120,0,2,,,,,,,,,,,,,,,0,,,67,29
218760,note_on,120,0,2,,,,,,,,,,,,,,,0,,,67,0
218760,note_on,120,0,1,,,,,,,,,,,,,,,0,,,71,0
218880,note_on,120,0,2,,,,,,,,,,,,,,,0,,,55,44
218880,set_tempo,240,1,0,,,,,,,,,,,,438725,,,,,,,
218880,note_on,120,0,1,,,,,,,,,,,,,,,0,,,71,57
219120,note_on,240,0,2,,,,,,,,,,,,,,,0,,,55,0
219120,note_on,0,0,2,,,,,,,,,,,,,,,0,,,67,32
219120,note_on,0,0,1,,,,,,,,,,,,,,,0,,,72,47
219120,note_on,240,0,1,,,,,,,,,,,,,,,0,,,71,0
219240,note_on,120,0,1,,,,,,,,,,,,,,,0,,,72,0
219240,note_on,120,0,2,,,,,,,,,,,,,,,0,,,67,0
219360,note_on,0,0,2,,,,,,,,,,,,,,,0,,,63,35
219360,note_on,120,0,2,,,,,,,,,,,,,,,0,,,54,29
219360,note_on,0,0,2,,,,,,,,,,,,,,,0,,,60,29
219480,note_on,120,0,2,,,,,,,,,,,,,,,0,,,63,0
219480,note_on,0,0,2,,,,,,,,,,,,,,,0,,,60,0
219480,note_on,0,0,2,,,,,,,,,,,,,,,0,,,54,0
219600,note_on,120,0,2,,,,,,,,,,,,,,,0,,,66,35
219600,set_tempo,720,1,0,,,,,,,,,,,,447327,,,,,,,
219720,note_on,120,0,2,,,,,,,,,,,,,,,0,,,66,0
219720,note_on,480,0,1,,,,,,,,,,,,,,,0,,,75,54
219810,note_on,90,0,1,,,,,,,,,,,,,,,0,,,75,0
219840,note_on,120,0,2,,,,,,,,,,,,,,,0,,,53,42
219840,note_on,30,0,1,,,,,,,,,,,,,,,0,,,72,63
219840,set_tempo,240,1,0,,,,,,,,,,,,430447,,,,,,,
220080,note_on,0,0,2,,,,,,,,,,,,,,,0,,,65,35
220080,note_on,240,0,2,,,,,,,,,,,,,,,0,,,53,0
220080,note_on,240,0,1,,,,,,,,,,,,,,,0,,,72,0
220080,note_on,0,0,1,,,,,,,,,,,,,,,0,,,70,52
220200,note_on,120,0,2,,,,,,,,,,,,,,,0,,,65,0
220200,note_on,120,0,1,,,,,,,,,,,,,,,0,,,70,0
220320,set_tempo,480,1,0,,,,,,,,,,,,438725,,,,,,,
220320,note_on,120,0,2,,,,,,,,,,,,,,,0,,,62,35
220320,note_on,120,0,1,,,,,,,,,,,,,,,0,,,70,54
220440,note_on,120,0,2,,,,,,,,,,,,,,,0,,,62,0
220440,note_on,120,0,1,,,,,,,,,,,,,,,0,,,70,0
220560,note_on,120,0,2,,,,,,,,,,,,,,,0,,,65,36
220560,note_on,120,0,1,,,,,,,,,,,,,,,0,,,70,54
220680,note_on,120,0,1,,,,,,,,,,,,,,,0,,,70,0
220680,note_on,120,0,2,,,,,,,,,,,,,,,0,,,65,0
220800,note_on,120,0,1,,,,,,,,,,,,,,,0,,,72,63
220800,set_tempo,480,1,0,,,,,,,,,,,,432059,,,,,,,
220800,note_on,120,0,2,,,,,,,,,,,,,,,0,,,55,42
221040,note_on,0,0,2,,,,,,,,,,,,,,,0,,,64,36
221040,note_on,240,0,2,,,,,,,,,,,,,,,0,,,55,0
221040,note_on,0,0,1,,,,,,,,,,,,,,,0,,,70,53
221040,note_on,240,0,1,,,,,,,,,,,,,,,0,,,72,0
221160,note_on,120,0,1,,,,,,,,,,,,,,,0,,,70,0
221160,note_on,120,0,2,,,,,,,,,,,,,,,0,,,64,0
221280,note_on,120,0,1,,,,,,,,,,,,,,,0,,,70,55
221280,note_on,120,0,2,,,,,,,,,,,,,,,0,,,60,36
221280,set_tempo,480,1,0,,,,,,,,,,,,438725,,,,,,,
221400,note_on,120,0,1,,,,,,,,,,,,,,,0,,,70,0
221400,note_on,120,0,2,,,,,,,,,,,,,,,0,,,60,0
221520,note_on,120,0,1,,,,,,,,,,,,,,,0,,,70,55
221520,note_on,120,0,2,,,,,,,,,,,,,,,0,,,64,36
221640,note_on,120,0,1,,,,,,,,,,,,,,,0,,,70,0
221640,note_on,120,0,2,,,,,,,,,,,,,,,0,,,64,0
221760,note_on,120,0,1,,,,,,,,,,,,,,,0,,,72,63
221760,set_tempo,480,1,0,,,,,,,,,,,,430447,,,,,,,
221760,note_on,120,0,2,,,,,,,,,,,,,,,0,,,62,42
221760,note_on,0,0,2,,,,,,,,,,,,,,,0,,,53,35
221802,control_change,42,0,2,,,,,,,,,,,,,,,0,64,127,,
221880,note_on,120,0,1,,,,,,,,,,,,,,,0,,,72,0
221880,note_on,0,0,1,,,,,,,,,,,,,,,0,,,70,52
222000,note_on,198,0,2,,,,,,,,,,,,,,,0,,,53,0
222000,note_on,0,0,2,,,,,,,,,,,,,,,0,,,62,0
222000,note_on,0,0,2,,,,,,,,,,,,,,,0,,,65,33
222000,note_on,120,0,1,,,,,,,,,,,,,,,0,,,70,0
222000,note_on,0,0,1,,,,,,,,,,,,,,,0,,,69,53
222120,note_on,0,0,1,,,,,,,,,,,,,,,0,,,70,53
222120,note_on,120,0,1,,,,,,,,,,,,,,,0,,,69,0
222240,note_on,0,0,1,,,,,,,,,,,,,,,0,,,72,58
222240,set_tempo,480,1,0,,,,,,,,,,,,443820,,,,,,,
222240,note_on,120,0,1,,,,,,,,,,,,,,,0,,,70,0
222240,note_on,240,0,2,,,,,,,,,,,,,,,0,,,65,0
222240,note_on,0,0,2,,,,,,,,,,,,,,,0,,,63,35
222240,note_on,0,0,2,,,,,,,,,,,,,,,0,,,53,29
222275,control_change,35,0,2,,,,,,,,,,,,,,,0,64,0,,
222360,note_on,85,0,2,,,,,,,,,,,,,,,0,,,53,0
222360,note_on,0,0,2,,,,,,,,,,,,,,,0,,,63,0
222360,note_on,120,0,1,,,,,,,,,,,,,,,0,,,72,0
222480,note_on,120,0,2,,,,,,,,,,,,,,,0,,,65,34
222480,note_on,120,0,1,,,,,,,,,,,,,,,0,,,74,54
222480,set_tempo,240,1,0,,,,,,,,,,,,456274,,,,,,,
222600,note_on,120,0,2,,,,,,,,,,,,,,,0,,,65,0
222600,note_on,120,0,1,,,,,,,,,,,,,,,0,,,74,0
222720,note_on,120,0,2,,,,,,,,,,,,,,,0,,,62,42
222720,note_on,0,0,2,,,,,,,,,,,,,,,0,,,58,42
222720,note_on,120,0,1,,,,,,,,,,,,,,,0,,,70,58
222720,set_tempo,240,1,0,,,,,,,,,,,,464073,,,,,,,
222839,set_tempo,119,1,0,,,,,,,,,,,,438725,,,,,,,
222960,note_on,240,0,1,,,,,,,,,,,,,,,0,,,70,0
222960,note_on,0,0,2,,,,,,,,,,,,,,,0,,,62,0
222960,note_on,240,0,2,,,,,,,,,,,,,,,0,,,58,0
223200,note_on,0,0,2,,,,,,,,,,,,,,,0,,,55,78
223200,note_on,240,0,2,,,,,,,,,,,,,,,0,,,67,94
224400,set_tempo,1561,1,0,,,,,,,,,,,,452625,,,,,,,
224520,note_on,1560,0,1,,,,,,,,,,,,,,,0,,,86,52
224610,note_on,90,0,1,,,,,,,,,,,,,,,0,,,86,0
224640,note_on,0,0,2,,,,,,,,,,,,,,,0,,,67,0
224640,note_on,0,0,2,,,,,,,,,,,,,,,0,,,55,42
224640,note_on,30,0,1,,,,,,,,,,,,,,,0,,,84,64
224640,set_tempo,240,1,0,,,,,,,,,,,,432059,,,,,,,
224640,note_on,1440,0,2,,,,,,,,,,,,,,,0,,,55,0
224880,note_on,0,0,1,,,,,,,,,,,,,,,0,,,83,37
224880,note_on,240,0,2,,,,,,,,,,,,,,,0,,,55,0
224880,note_on,0,0,2,,,,,,,,,,,,,,,0,,,67,31
224880,note_on,240,0,1,,,,,,,,,,,,,,,0,,,84,0
225000,note_on,120,0,2,,,,,,,,,,,,,,,0,,,67,0
225000,note_on,120,0,1,,,,,,,,,,,,,,,0,,,83,0
225120,set_tempo,480,1,0,,,,,,,,,,,,438725,,,,,,,
225120,note_on,120,0,1,,,,,,,,,,,,,,,0,,,83,43
225120,note_on,0,0,2,,,,,,,,,,,,,,,0,,,62,26
225120,note_on,120,0,2,,,,,,,,,,,,,,,0,,,65,31
225240,note_on,0,0,2,,,,,,,,,,,,,,,0,,,65,0
225240,note_on,120,0,1,,,,,,,,,,,,,,,0,,,83,0
225240,note_on,120,0,2,,,,,,,,,,,,,,,0,,,62,0
225360,note_on,120,0,1,,,,,,,,,,,,,,,0,,,83,37
225360,set_tempo,240,1,0,,,,,,,,,,,,445567,,,,,,,
225360,note_on,120,0,2,,,,,,,,,,,,,,,0,,,67,32
225480,note_on,120,0,2,,,,,,,,,,,,,,,0,,,67,0
225480,note_on,120,0,1,,,,,,,,,,,,,,,0,,,83,0
225600,note_on,120,0,2,,,,,,,,,,,,,,,0,,,55,44
225600,set_tempo,240,1,0,,,,,,,,,,,,438725,,,,,,,
225600,note_on,120,0,1,,,,,,,,,,,,,,,0,,,83,55
225840,note_on,0,0,2,,,,,,,,,,,,,,,0,,,67,31
225840,note_on,240,0,2,,,,,,,,,,,,,,,0,,,55,0
225840,note_on,240,0,1,,,,,,,,,,,,,,,0,,,83,0
225840,note_on,0,0,1,,,,,,,,,,,,,,,0,,,84,42
225960,note_on,120,0,2,,,,,,,,,,,,,,,0,,,67,0
225960,note_on,120,0,1,,,,,,,,,,,,,,,0,,,84,0
226080,note_on,120,0,2,,,,,,,,,,,,,,,0,,,60,29
226080,note_on,0,0,2,,,,,,,,,,,,,,,0,,,63,35
226200,note_on,120,0,2,,,,,,,,,,,,,,,0,,,63,0
226200,note_on,0,0,2,,,,,,,,,,,,,,,0,,,60,0
226320,set_tempo,720,1,0,,,,,,,,,,,,449068,,,,,,,
226320,note_on,120,0,2,,,,,,,,,,,,,,,0,,,67,32
226440,note_on,480,0,1,,,,,,,,,,,,,,,0,,,87,51
226440,note_on,120,0,2,,,,,,,,,,,,,,,0,,,67,0
226530,note_on,90,0,1,,,,,,,,,,,,,,,0,,,87,0
226560,set_tempo,240,1,0,,,,,,,,,,,,432059,,,,,,,
226560,note_on,120,0,2,,,,,,,,,,,,,,,0,,,55,42
226560,note_on,30,0,1,,,,,,,,,,,,,,,0,,,84,64
226800,note_on,240,0,2,,,,,,,,,,,,,,,0,,,55,0
226800,note_on,0,0,2,,,,,,,,,,,,,,,0,,,67,31
226800,note_on,240,0,1,,,,,,,,,,,,,,,0,,,84,0
226800,note_on,0,0,1,,,,,,,,,,,,,,,0,,,83,37
226920,note_on,120,0,1,,,,,,,,,,,,,,,0,,,83,0
226920,note_on,120,0,2,,,,,,,,,,,,,,,0,,,67,0
227040,note_on,0,0,2,,,,,,,,,,,,,,,0,,,62,26
227040,note_on,120,0,1,,,,,,,,,,,,,,,0,,,83,44
227040,set_tempo,480,1,0,,,,,,,,,,,,437031,,,,,,,
227040,note_on,120,0,2,,,,,,,,,,,,,,,0,,,65,31
227160,note_on,120,0,1,,,,,,,,,,,,,,,0,,,83,0
227160,note_on,120,0,2,,,,,,,,,,,,,,,0,,,62,0
227160,note_on,0,0,2,,,,,,,,,,,,,,,0,,,65,0
227280,note_on,120,0,2,,,,,,,,,,,,,,,0,,,67,29
227280,set_tempo,240,1,0,,,,,,,,,,,,449068,,,,,,,
227280,note_on,120,0,1,,,,,,,,,,,,,,,0,,,83,37
227400,note_on,120,0,2,,,,,,,,,,,,,,,0,,,67,0
227400,note_on,120,0,1,,,,,,,,,,,,,,,0,,,83,0
227520,note_on,120,0,2,,,,,,,,,,,,,,,0,,,55,44
227520,set_tempo,240,1,0,,,,,,,,,,,,438725,,,,,,,
227520,note_on,120,0,1,,,,,,,,,,,,,,,0,,,83,57
227760,note_on,240,0,2,,,,,,,,,,,,,,,0,,,55,0
227760,note_on,0,0,2,,,,,,,,,,,,,,,0,,,67,32
227760,note_on,240,0,1,,,,,,,,,,,,,,,0,,,83,0
227760,note_on,0,0,1,,,,,,,,,,,,,,,0,,,84,47
227880,note_on,120,0,1,,,,,,,,,,,,,,,0,,,84,0
227880,note_on,120,0,2,,,,,,,,,,,,,,,0,,,67,0
228000,note_on,0,0,2,,,,,,,,,,,,,,,0,,,63,35
228000,note_on,0,0,2,,,,,,,,,,,,,,,0,,,60,29
228000,note_on,120,0,2,,,,,,,,,,,,,,,0,,,54,29
228120,note_on,0,0,2,,,,,,,,,,,,,,,0,,,54,0
228120,note_on,0,0,2,,,,,,,,,,,,,,,0,,,60,0
228120,note_on,120,0,2,,,,,,,,,,,,,,,0,,,63,0
228240,set_tempo,720,1,0,,,,,,,,,,,,447327,,,,,,,
228240,note_on,120,0,2,,,,,,,,,,,,,,,0,,,66,35
228360,note_on,480,0,1,,,,,,,,,,,,,,,0,,,87,54
228360,note_on,120,0,2,,,,,,,,,,,,,,,0,,,66,0
228450,note_on,90,0,1,,,,,,,,,,,,,,,0,,,87,0
228480,note_on,30,0,1,,,,,,,,,,,,,,,0,,,84,64
228480,set_tempo,240,1,0,,,,,,,,,,,,430447,,,,,,,
228480,note_on,120,0,2,,,,,,,,,,,,,,,0,,,53,42
228720,note_on,240,0,1,,,,,,,,,,,,,,,0,,,84,0
228720,note_on,0,0,1,,,,,,,,,,,,,,,0,,,82,52
228720,note_on,240,0,2,,,,,,,,,,,,,,,0,,,53,0
228720,note_on,0,0,2,,,,,,,,,,,,,,,0,,,65,35
228840,note_on,120,0,2,,,,,,,,,,,,,,,0,,,65,0
228840,note_on,120,0,1,,,,,,,,,,,,,,,0,,,82,0
228960,set_tempo,480,1,0,,,,,,,,,,,,438725,,,,,,,
228960,note_on,120,0,2,,,,,,,,,,,,,,,0,,,62,35
228960,note_on,120,0,1,,,,,,,,,,,,,,,0,,,82,54
229080,note_on,120,0,1,,,,,,,,,,,,,,,0,,,82,0
229080,note_on,120,0,2,,,,,,,,,,,,,,,0,,,62,0
229200,note_on,120,0,1,,,,,,,,,,,,,,,0,,,82,54
229200,note_on,120,0,2,,,,,,,,,,,,,,,0,,,65,36
229320,note_on,120,0,1,,,,,,,,,,,,,,,0,,,82,0
229320,note_on,120,0,2,,,,,,,,,,,,,,,0,,,65,0
229440,set_tempo,480,1,0,,,,,,,,,,,,432059,,,,,,,
229440,note_on,120,0,2,,,,,,,,,,,,,,,0,,,55,42
229440,note_on,120,0,1,,,,,,,,,,,,,,,0,,,84,64
229680,note_on,0,0,1,,,,,,,,,,,,,,,0,,,82,53
229680,note_on,240,0,1,,,,,,,,,,,,,,,0,,,84,0
229680,note_on,240,0,2,,,,,,,,,,,,,,,0,,,55,0
229680,note_on,0,0,2,,,,,,,,,,,,,,,0,,,64,36
229800,note_on,120,0,2,,,,,,,,,,,,,,,0,,,64,0
229800,note_on,120,0,1,,,,,,,,,,,,,,,0,,,82,0
229920,note_on,120,0,2,,,,,,,,,,,,,,,0,,,60,36
229920,note_on,120,0,1,,,,,,,,,,,,,,,0,,,82,55
229920,set_tempo,480,1,0,,,,,,,,,,,,438725,,,,,,,
230040,note_on,120,0,2,,,,,,,,,,,,,,,0,,,60,0
230040,note_on,120,0,1,,,,,,,,,,,,,,,0,,,82,0
230160,note_on,120,0,1,,,,,,,,,,,,,,,0,,,82,55
230160,note_on,120,0,2,,,,,,,,,,,,,,,0,,,64,36
230280,note_on,120,0,2,,,,,,,,,,,,,,,0,,,64,0
230280,note_on,120,0,1,,,,,,,,,,,,,,,0,,,82,0
230400,note_on,120,0,1,,,,,,,,,,,,,,,0,,,84,64
230400,set_tempo,480,1,0,,,,,,,,,,,,430447,,,,,,,
230400,note_on,120,0,2,,,,,,,,,,,,,,,0,,,62,42
230400,note_on,0,0,2,,,,,,,,,,,,,,,0,,,53,35
230442,control_change,42,0,2,,,,,,,,,,,,,,,0,64,127,,
230520,note_on,120,0,1,,,,,,,,,,,,,,,0,,,84,0
230520,note_on,0,0,1,,,,,,,,,,,,,,,0,,,82,52
230640,note_on,198,0,2,,,,,,,,,,,,,,,0,,,53,0
230640,note_on,0,0,2,,,,,,,,,,,,,,,0,,,65,33
230640,note_on,120,0,1,,,,,,,,,,,,,,,0,,,82,0
230640,note_on,0,0,1,,,,,,,,,,,,,,,0,,,81,53
230640,note_on,0,0,2,,,,,,,,,,,,,,,0,,,62,0
230760,note_on,120,0,1,,,,,,,,,,,,,,,0,,,81,0
230760,note_on,0,0,1,,,,,,,,,,,,,,,0,,,82,53
230880,note_on,0,0,1,,,,,,,,,,,,,,,0,,,84,58
230880,note_on,120,0,1,,,,,,,,,,,,,,,0,,,82,0
230880,note_on,240,0,2,,,,,,,,,,,,,,,0,,,65,0
230880,note_on,0,0,2,,,,,,,,,,,,,,,0,,,63,35
230880,note_on,0,0,2,,,,,,,,,,,,,,,0,,,53,29
230880,set_tempo,480,1,0,,,,,,,,,,,,443820,,,,,,,
230915,control_change,35,0,2,,,,,,,,,,,,,,,0,64,0,,
231000,note_on,120,0,1,,,,,,,,,,,,,,,0,,,84,0
231000,note_on,85,0,2,,,,,,,,,,,,,,,0,,,53,0
231000,note_on,0,0,2,,,,,,,,,,,,,,,0,,,63,0
231120,note_on,120,0,2,,,,,,,,,,,,,,,0,,,65,34
231120,note_on,120,0,1,,,,,,,,,,,,,,,0,,,86,54
231120,set_tempo,240,1,0,,,,,,,,,,,,456274,,,,,,,
231240,note_on,120,0,1,,,,,,,,,,,,,,,0,,,86,0
231240,note_on,120,0,2,,,,,,,,,,,,,,,0,,,65,0
231360,note_on,120,0,1,,,,,,,,,,,,,,,0,,,82,58
231360,note_on,0,0,2,,,,,,,,,,,,,,,0,,,58,42
231360,note_on,120,0,2,,,,,,,,,,,,,,,0,,,62,42
231360,set_tempo,240,1,0,,,,,,,,,,,,438725,,,,,,,
231480,note_on,120,0,2,,,,,,,,,,,,,,,0,,,58,0
231480,note_on,0,0,2,,,,,,,,,,,,,,,0,,,62,0
231600,note_on,240,0,1,,,,,,,,,,,,,,,0,,,82,0
231600,note_on,120,0,2,,,,,,,,,,,,,,,0,,,57,38
231600,set_tempo,240,1,0,,,,,,,,,,,,447327,,,,,,,
231720,note_on,120,0,2,,,,,,,,,,,,,,,0,,,57,0
231840,note_on,120,0,2,,,,,,,,,,,,,,,0,,,55,37
231960,note_on,120,0,2,,,,,,,,,,,,,,,0,,,55,0
232080,set_tempo,480,1,0,,,,,,,,,,,,450857,,,,,,,
232080,note_on,120,0,2,,,,,,,,,,,,,,,0,,,53,36
232080,note_on,480,0,1,,,,,,,,,,,,,,,0,,,74,57
232200,note_on,120,0,2,,,,,,,,,,,,,,,0,,,53,0
232200,note_on,120,0,1,,,,,,,,,,,,,,,0,,,74,0
232320,note_on,120,0,2,,,,,,,,,,,,,,,0,,,51,42
232320,note_on,120,0,1,,,,,,,,,,,,,,,0,,,79,60
232320,set_tempo,240,1,0,,,,,,,,,,,,445567,,,,,,,
232440,note_on,120,0,2,,,,,,,,,,,,,,,0,,,51,0
232560,note_on,120,0,2,,,,,,,,,,,,,,,0,,,58,36
232560,note_on,0,0,2,,,,,,,,,,,,,,,0,,,55,36
232680,note_on,120,0,2,,,,,,,,,,,,,,,0,,,55,0
232680,note_on,0,0,2,,,,,,,,,,,,,,,0,,,58,0
232800,note_on,120,0,2,,,,,,,,,,,,,,,0,,,48,36
232800,note_on,0,0,1,,,,,,,,,,,,,,,0,,,75,60
232800,note_on,480,0,1,,,,,,,,,,,,,,,0,,,79,0
232920,note_on,120,0,2,,,,,,,,,,,,,,,0,,,48,0
233040,note_on,0,0,2,,,,,,,,,,,,,,,0,,,55,36
233040,note_on,120,0,2,,,,,,,,,,,,,,,0,,,60,36
233160,note_on,0,0,2,,,,,,,,,,,,,,,0,,,60,0
233160,note_on,120,0,2,,,,,,,,,,,,,,,0,,,55,0
233280,note_on,0,0,1,,,,,,,,,,,,,,,0,,,72,60
233280,set_tempo,960,1,0,,,,,,,,,,,,438725,,,,,,,
233280,note_on,120,0,2,,,,,,,,,,,,,,,0,,,53,42
233280,note_on,480,0,1,,,,,,,,,,,,,,,0,,,75,0
233400,note_on,120,0,2,,,,,,,,,,,,,,,0,,,53,0
233520,note_on,0,0,2,,,,,,,,,,,,,,,0,,,60,35
233520,note_on,120,0,2,,,,,,,,,,,,,,,0,,,57,35
233640,note_on,120,0,2,,,,,,,,,,,,,,,0,,,60,0
233640,note_on,0,0,2,,,,,,,,,,,,,,,0,,,57,0
233760,note_on,120,0,2,,,,,,,,,,,,,,,0,,,51,36
233760,note_on,480,0,1,,,,,,,,,,,,,,,0,,,72,0
233760,note_on,0,0,1,,,,,,,,,,,,,,,0,,,74,60
233880,note_on,120,0,1,,,,,,,,,,,,,,,0,,,74,0
233880,note_on,120,0,2,,,,,,,,,,,,,,,0,,,51,0
234000,note_on,120,0,1,,,,,,,,,,,,,,,0,,,75,58
234000,note_on,120,0,2,,,,,,,,,,,,,,,0,,,60,36
234000,note_on,0,0,2,,,,,,,,,,,,,,,0,,,57,36
234120,note_on,120,0,1,,,,,,,,,,,,,,,0,,,75,0
234120,note_on,120,0,2,,,,,,,,,,,,,,,0,,,57,0
234120,note_on,0,0,2,,,,,,,,,,,,,,,0,,,60,0
234240,note_on,120,0,2,,,,,,,,,,,,,,,0,,,50,39
234240,set_tempo,960,1,0,,,,,,,,,,,,432059,,,,,,,
234240,note_on,120,0,1,,,,,,,,,,,,,,,0,,,77,57
234254,control_change,14,0,2,,,,,,,,,,,,,,,0,64,127,,
234360,note_on,0,0,1,,,,,,,,,,,,,,,0,,,79,53
234360,note_on,120,0,1,,,,,,,,,,,,,,,0,,,77,0
234480,note_on,0,0,2,,,,,,,,,,,,,,,0,,,58,34
234480,note_on,0,0,2,,,,,,,,,,,,,,,0,,,53,29
234480,note_on,226,0,2,,,,,,,,,,,,,,,0,,,50,0
234480,note_on,120,0,1,,,,,,,,,,,,,,,0,,,79,0
234480,note_on,0,0,1,,,,,,,,,,,,,,,0,,,77,53
234600,note_on,120,0,1,,,,,,,,,,,,,,,0,,,77,0
234600,note_on,0,0,1,,,,,,,,,,,,,,,0,,,75,53
234720,note_on,240,0,2,,,,,,,,,,,,,,,0,,,53,0
234720,note_on,120,0,1,,,,,,,,,,,,,,,0,,,75,0
234720,note_on,0,0,1,,,,,,,,,,,,,,,0,,,74,59
234720,set_tempo,480,1,0,,,,,,,,,,,,440399,,,,,,,
234720,note_on,0,0,2,,,,,,,,,,,,,,,0,,,46,34
234720,note_on,0,0,2,,,,,,,,,,,,,,,0,,,58,0
234734,control_change,14,0,2,,,,,,,,,,,,,,,0,64,0,,
234784,control_change,50,0,2,,,,,,,,,,,,,,,0,64,127,,
234840,note_on,0,0,1,,,,,,,,,,,,,,,0,,,75,52
234840,note_on,120,0,1,,,,,,,,,,,,,,,0,,,74,0
234960,note_on,0,0,1,,,,,,,,,,,,,,,0,,,74,52
234960,note_on,176,0,2,,,,,,,,,,,,,,,0,,,46,0
234960,note_on,0,0,2,,,,,,,,,,,,,,,0,,,58,34
234960,note_on,120,0,1,,,,,,,,,,,,,,,0,,,75,0
234960,note_on,0,0,2,,,,,,,,,,,,,,,0,,,53,29
234960,set_tempo,240,1,0,,,,,,,,,,,,456274,,,,,,,
235080,note_on,120,0,1,,,,,,,,,,,,,,,0,,,74,0
235080,note_on,0,0,1,,,,,,,,,,,,,,,0,,,72,53
235200,set_tempo,240,1,0,,,,,,,,,,,,447327,,,,,,,
235200,note_on,0,0,1,,,,,,,,,,,,,,,0,,,70,60
235200,note_on,120,0,1,,,,,,,,,,,,,,,0,,,72,0
235200,note_on,240,0,2,,,,,,,,,,,,,,,0,,,53,0
235200,note_on,0,0,2,,,,,,,,,,,,,,,0,,,58,0
235200,note_on,0,0,2,,,,,,,,,,,,,,,0,,,51,40
235200,control_change,0,0,2,,,,,,,,,,,,,,,0,64,0,,
235348,control_change,148,0,2,,,,,,,,,,,,,,,0,64,127,,
235440,note_on,92,0,2,,,,,,,,,,,,,,,0,,,51,0
235440,note_on,0,0,2,,,,,,,,,,,,,,,0,,,58,34
235440,note_on,0,0,2,,,,,,,,,,,,,,,0,,,55,29
235666,control_change,226,0,2,,,,,,,,,,,,,,,0,64,0,,
235680,note_on,14,0,2,,,,,,,,,,,,,,,0,,,55,0
235680,note_on,0,0,2,,,,,,,,,,,,,,,0,,,58,0
235680,note_on,0,0,2,,,,,,,,,,,,,,,0,,,50,34
235920,set_tempo,720,1,0,,,,,,,,,,,,450857,,,,,,,
235920,note_on,720,0,1,,,,,,,,,,,,,,,0,,,70,0
235920,note_on,0,0,1,,,,,,,,,,,,,,,0,,,70,57
235920,note_on,0,0,2,,,,,,,,,,,,,,,0,,,55,29
235920,note_on,0,0,2,,,,,,,,,,,,,,,0,,,58,34
235920,note_on,240,0,2,,,,,,,,,,,,,,,0,,,50,0
236040,note_on,120,0,1,,,,,,,,,,,,,,,0,,,70,0
236160,note_on,240,0,2,,,,,,,,,,,,,,,0,,,55,0
236160,note_on,0,0,2,,,,,,,,,,,,,,,0,,,58,0
236160,note_on,0,0,2,,,,,,,,,,,,,,,0,,,48,42
236160,note_on,120,0,1,,,,,,,,,,,,,,,0,,,75,60
236160,set_tempo,240,1,0,,,,,,,,,,,,445567,,,,,,,
236174,control_change,14,0,2,,,,,,,,,,,,,,,0,64,127,,
236400,note_on,0,0,2,,,,,,,,,,,,,,,0,,,55,30
236400,note_on,226,0,2,,,,,,,,,,,,,,,0,,,48,0
236400,note_on,0,0,2,,,,,,,,,,,,,,,0,,,60,36
236640,note_on,480,0,1,,,,,,,,,,,,,,,0,,,75,0
236640,note_on,0,0,1,,,,,,,,,,,,,,,0,,,72,60
236640,note_on,0,0,2,,,,,,,,,,,,,,,0,,,60,0
236640,note_on,0,0,2,,,,,,,,,,,,,,,0,,,45,36
236640,note_on,240,0,2,,,,,,,,,,,,,,,0,,,55,0
236880,note_on,240,0,2,,,,,,,,,,,,,,,0,,,45,0
236880,note_on,0,0,2,,,,,,,,,,,,,,,0,,,57,36
236880,note_on,0,0,2,,,,,,,,,,,,,,,0,,,51,30
237120,set_tempo,960,1,0,,,,,,,,,,,,450857,,,,,,,
237120,note_on,240,0,2,,,,,,,,,,,,,,,0,,,51,0
237120,note_on,0,0,2,,,,,,,,,,,,,,,0,,,57,0
237120,note_on,0,0,2,,,,,,,,,,,,,,,0,,,50,42
237120,note_on,0,0,1,,,,,,,,,,,,,,,0,,,69,60
237120,note_on,480,0,1,,,,,,,,,,,,,,,0,,,72,0
237134,control_change,14,0,2,,,,,,,,,,,,,,,0,64,0,,
237169,control_change,35,0,2,,,,,,,,,,,,,,,0,64,127,,
237360,note_on,0,0,2,,,,,,,,,,,,,,,0,,,54,29
237360,note_on,0,0,2,,,,,,,,,,,,,,,0,,,57,35
237360,note_on,191,0,2,,,,,,,,,,,,,,,0,,,50,0
237409,control_change,49,0,2,,,,,,,,,,,,,,,0,64,0,,
237600,note_on,0,0,2,,,,,,,,,,,,,,,0,,,54,0
237600,note_on,480,0,1,,,,,,,,,,,,,,,0,,,69,0
237600,note_on,0,0,1,,,,,,,,,,,,,,,0,,,62,54
237600,note_on,0,0,1,,,,,,,,,,,,,,,0,,,74,65
237600,note_on,191,0,2,,,,,,,,,,,,,,,0,,,57,0
237600,set_tempo,480,1,0,,,,,,,,,,,,438725,,,,,,,
237600,note_on,0,0,2,,,,,,,,,,,,,,,0,,,42,42
237720,note_on,120,0,1,,,,,,,,,,,,,,,0,,,74,0
237720,note_on,0,0,1,,,,,,,,,,,,,,,0,,,62,0
237780,note_on,180,0,2,,,,,,,,,,,,,,,0,,,42,0
237840,note_on,120,0,1,,,,,,,,,,,,,,,0,,,60,49
237840,note_on,0,0,1,,,,,,,,,,,,,,,0,,,72,58
237840,note_on,60,0,2,,,,,,,,,,,,,,,0,,,50,30
237840,note_on,0,0,2,,,,,,,,,,,,,,,0,,,54,36
237960,note_on,120,0,1,,,,,,,,,,,,,,,0,,,72,0
237960,note_on,0,0,1,,,,,,,,,,,,,,,0,,,60,0
238020,note_on,180,0,2,,,,,,,,,,,,,,,0,,,54,0
238020,note_on,0,0,2,,,,,,,,,,,,,,,0,,,50,0
238080,note_on,60,0,2,,,,,,,,,,,,,,,0,,,43,47
238080,set_tempo,480,1,0,,,,,,,,,,,,427198,,,,,,,
238080,note_on,120,0,1,,,,,,,,,,,,,,,0,,,60,55
238080,note_on,0,0,1,,,,,,,,,,,,,,,0,,,72,66
238200,note_on,120,0,2,,,,,,,,,,,,,,,0,,,43,0
238320,note_on,120,0,2,,,,,,,,,,,,,,,0,,,55,39
238320,note_on,240,0,1,,,,,,,,,,,,,,,0,,,72,0
238320,note_on,0,0,1,,,,,,,,,,,,,,,0,,,60,0
238320,note_on,0,0,1,,,,,,,,,,,,,,,0,,,58,51
238320,note_on,0,0,1,,,,,,,,,,,,,,,0,,,70,60
238440,note_on,120,0,1,,,,,,,,,,,,,,,0,,,70,0
238440,note_on,0,0,1,,,,,,,,,,,,,,,0,,,58,0
238440,note_on,120,0,2,,,,,,,,,,,,,,,0,,,55,0
238560,note_on,120,0,2,,,,,,,,,,,,,,,0,,,39,49
238560,set_tempo,480,1,0,,,,,,,,,,,,438725,,,,,,,
238560,note_on,0,0,1,,,,,,,,,,,,,,,0,,,69,67
238560,note_on,120,0,1,,,,,,,,,,,,,,,0,,,57,56
238680,note_on,120,0,2,,,,,,,,,,,,,,,0,,,39,0
238680,note_on,120,0,1,,,,,,,,,,,,,,,0,,,69,0
238680,note_on,0,0,1,,,,,,,,,,,,,,,0,,,57,0
238800,note_on,120,0,1,,,,,,,,,,,,,,,0,,,55,52
238800,note_on,0,0,1,,,,,,,,,,,,,,,0,,,67,61
238800,note_on,120,0,2,,,,,,,,,,,,,,,0,,,51,44
238920,note_on,120,0,2,,,,,,,,,,,,,,,0,,,51,0
238920,note_on,120,0,1,,,,,,,,,,,,,,,0,,,67,0
238920,note_on,0,0,1,,,,,,,,,,,,,,,0,,,55,0
239040,note_on,0,0,1,,,,,,,,,,,,,,,0,,,70,73
239040,note_on,120,0,2,,,,,,,,,,,,,,,0,,,36,51
239040,note_on,120,0,1,,,,,,,,,,,,,,,0,,,58,61
239160,note_on,120,0,2,,,,,,,,,,,,,,,0,,,36,0
239280,note_on,0,0,1,,,,,,,,,,,,,,,0,,,57,55
239280,note_on,0,0,1,,,,,,,,,,,,,,,0,,,58,0
239280,note_on,0,0,1,,,,,,,,,,,,,,,0,,,69,66
239280,note_on,120,0,2,,,,,,,,,,,,,,,0,,,48,46
239280,note_on,240,0,1,,,,,,,,,,,,,,,0,,,70,0
239400,note_on,120,0,2,,,,,,,,,,,,,,,0,,,48,0
239400,note_on,120,0,1,,,,,,,,,,,,,,,0,,,57,0
239400,note_on,0,0,1,,,,,,,,,,,,,,,0,,,69,0
239520,note_on,120,0,1,,,,,,,,,,,,,,,0,,,55,59
239520,note_on,0,0,1,,,,,,,,,,,,,,,0,,,67,71
239520,note_on,120,0,2,,,,,,,,,,,,,,,0,,,38,54
239520,set_tempo,960,1,0,,,,,,,,,,,,430447,,,,,,,
239640,note_on,120,0,2,,,,,,,,,,,,,,,0,,,38,0
239640,note_on,0,0,1,,,,,,,,,,,,,,,0,,,55,0
239640,note_on,120,0,1,,,,,,,,,,,,,,,0,,,67,0
239760,note_on,120,0,2,,,,,,,,,,,,,,,0,,,50,45
239760,note_on,0,0,1,,,,,,,,,,,,,,,0,,,66,66
239760,note_on,120,0,1,,,,,,,,,,,,,,,0,,,54,55
239880,note_on,0,0,1,,,,,,,,,,,,,,,0,,,54,0
239880,note_on,120,0,2,,,,,,,,,,,,,,,0,,,50,0
239880,note_on,120,0,1,,,,,,,,,,,,,,,0,,,66,0
240000,note_on,0,0,1,,,,,,,,,,,,,,,0,,,67,72
240000,note_on,120,0,2,,,,,,,,,,,,,,,0,,,39,44
240000,note_on,0,0,2,,,,,,,,,,,,,,,0,,,51,52
240000,set_tempo,480,1,0,,,,,,,,,,,,459946,,,,,,,
240000,note_on,120,0,1,,,,,,,,,,,,,,,0,,,55,60
240240,note_on,240,0,1,,,,,,,,,,,,,,,0,,,67,0
240240,note_on,0,0,1,,,,,,,,,,,,,,,0,,,55,0
240240,note_on,240,0,2,,,,,,,,,,,,,,,0,,,51,0
240240,note_on,0,0,2,,,,,,,,,,,,,,,0,,,39,0
240480,note_on,240,0,2,,,,,,,,,,,,,,,0,,,42,51
240480,note_on,0,0,2,,,,,,,,,,,,,,,0,,,50,51
240480,note_on,0,0,2,,,,,,,,,,,,,,,0,,,54,60
240480,note_on,0,0,1,,,,,,,,,,,,,,,0,,,74,81
240480,note_on,240,0,1,,,,,,,,,,,,,,,0,,,62,69
240522,control_change,42,0,2,,,,,,,,,,,,,,,0,64,127,,
240960,set_tempo,960,1,0,,,,,,,,,,,,438725,,,,,,,
241200,note_on,0,0,1,,,,,,,,,,,,,,,0,,,75,64
241200,note_on,0,0,1,,,,,,,,,,,,,,,0,,,63,53
241200,note_on,0,0,1,,,,,,,,,,,,,,,0,,,62,0
241200,note_on,720,0,1,,,,,,,,,,,,,,,0,,,74,0
241200,set_tempo,240,1,0,,,,,,,,,,,,450857,,,,,,,
241320,note_on,120,0,1,,,,,,,,,,,,,,,0,,,75,0
241320,note_on,0,0,1,,,,,,,,,,,,,,,0,,,63,0
241440,set_tempo,240,1,0,,,,,,,,,,,,440399,,,,,,,
241440,note_on,120,0,1,,,,,,,,,,,,,,,0,,,62,57
241440,note_on,0,0,1,,,,,,,,,,,,,,,0,,,74,68
241482,control_change,960,0,2,,,,,,,,,,,,,,,0,64,0,,
241560,note_on,0,0,1,,,,,,,,,,,,,,,0,,,62,0
241560,note_on,120,0,1,,,,,,,,,,,,,,,0,,,74,0
241680,note_on,0,0,1,,,,,,,,,,,,,,,0,,,72,64
241680,note_on,120,0,1,,,,,,,,,,,,,,,0,,,60,53
241800,note_on,120,0,1,,,,,,,,,,,,,,,0,,,72,0
241800,note_on,0,0,1,,,,,,,,,,,,,,,0,,,60,0
241880,set_tempo,440,1,0,,,,,,,,,,,,430447,,,,,,,
241920,note_on,120,0,1,,,,,,,,,,,,,,,0,,,60,58
241920,note_on,0,0,2,,,,,,,,,,,,,,,0,,,43,50
241920,note_on,0,0,2,,,,,,,,,,,,,,,0,,,50,0
241920,note_on,438,0,2,,,,,,,,,,,,,,,0,,,54,0
241920,note_on,0,0,2,,,,,,,,,,,,,,,0,,,42,0
241920,note_on,0,0,1,,,,,,,,,,,,,,,0,,,72,69
241969,control_change,49,0,2,,,,,,,,,,,,,,,0,64,127,,
242160,note_on,240,0,1,,,,,,,,,,,,,,,0,,,72,0
242160,note_on,0,0,1,,,,,,,,,,,,,,,0,,,60,0
242160,note_on,0,0,1,,,,,,,,,,,,,,,0,,,58,53
242160,note_on,0,0,1,,,,,,,,,,,,,,,0,,,70,64
242160,note_on,191,0,2,,,,,,,,,,,,,,,0,,,43,0
242160,note_on,0,0,2,,,,,,,,,,,,,,,0,,,55,45
242195,control_change,35,0,2,,,,,,,,,,,,,,,0,64,0,,
242280,note_on,120,0,1,,,,,,,,,,,,,,,0,,,70,0
242280,note_on,0,0,1,,,,,,,,,,,,,,,0,,,58,0
242400,set_tempo,520,1,0,,,,,,,,,,,,438725,,,,,,,
242400,note_on,205,0,2,,,,,,,,,,,,,,,0,,,55,0
242400,note_on,0,0,2,,,,,,,,,,,,,,,0,,,39,45
242400,note_on,120,0,1,,,,,,,,,,,,,,,0,,,57,58
242400,note_on,0,0,1,,,,,,,,,,,,,,,0,,,69,69
242520,note_on,120,0,1,,,,,,,,,,,,,,,0,,,69,0
242520,note_on,0,0,1,,,,,,,,,,,,,,,0,,,57,0
242640,note_on,120,0,1,,,,,,,,,,,,,,,0,,,55,53
242640,note_on,0,0,1,,,,,,,,,,,,,,,0,,,67,64
242640,note_on,0,0,2,,,,,,,,,,,,,,,0,,,51,45
242640,note_on,240,0,2,,,,,,,,,,,,,,,0,,,39,0
242640,set_tempo,240,1,0,,,,,,,,,,,,463679,,,,,,,
242760,note_on,0,0,1,,,,,,,,,,,,,,,0,,,55,0
242760,note_on,120,0,1,,,,,,,,,,,,,,,0,,,67,0
242880,set_tempo,240,1,0,,,,,,,,,,,,447327,,,,,,,
242880,note_on,0,0,1,,,,,,,,,,,,,,,0,,,68,72
242880,note_on,120,0,1,,,,,,,,,,,,,,,0,,,56,60
242880,note_on,240,0,2,,,,,,,,,,,,,,,0,,,51,0
242880,note_on,0,0,2,,,,,,,,,,,,,,,0,,,36,56
242936,control_change,56,0,2,,,,,,,,,,,,,,,0,64,127,,
243120,note_on,184,0,2,,,,,,,,,,,,,,,0,,,36,0
243120,note_on,0,0,2,,,,,,,,,,,,,,,0,,,48,49
243360,note_on,0,0,1,,,,,,,,,,,,,,,0,,,66,66
243360,note_on,0,0,1,,,,,,,,,,,,,,,0,,,54,55
243360,note_on,0,0,1,,,,,,,,,,,,,,,0,,,56,0
243360,note_on,480,0,1,,,,,,,,,,,,,,,0,,,68,0
243360,set_tempo,480,1,0,,,,,,,,,,,,454442,,,,,,,
243360,note_on,240,0,2,,,,,,,,,,,,,,,0,,,48,0
243360,note_on,0,0,2,,,,,,,,,,,,,,,0,,,38,49
243445,control_change,85,0,2,,,,,,,,,,,,,,,0,64,0,,
243544,control_change,99,0,2,,,,,,,,,,,,,,,0,64,127,,
243600,note_on,56,0,2,,,,,,,,,,,,,,,0,,,38,0
243600,set_tempo,240,1,0,,,,,,,,,,,,475285,,,,,,,
243600,note_on,0,0,2,,,,,,,,,,,,,,,0,,,50,49
243840,note_on,480,0,1,,,,,,,,,,,,,,,0,,,66,0
243840,control_change,0,0,1,,,,,,,,,,,,,,,0,91,127,,
243840,note_on,0,0,1,,,,,,,,,,,,,,,0,,,67,71
243840,note_on,0,0,1,,,,,,,,,,,,,,,0,,,55,59
243840,note_on,0,0,1,,,,,,,,,,,,,,,0,,,54,0
243840,note_on,0,0,2,,,,,,,,,,,,,,,0,,,31,52
243840,control_change,0,0,2,,,,,,,,,,,,,,,0,64,0,,
243840,note_on,240,0,2,,,,,,,,,,,,,,,0,,,50,0
243840,set_tempo,240,1,0,,,,,,,,,,,,446097,,,,,,,
243911,control_change,71,0,2,,,,,,,,,,,,,,,0,64,127,,
244080,note_on,0,0,2,,,,,,,,,,,,,,,0,,,43,55
244080,note_on,169,0,2,,,,,,,,,,,,,,,0,,,31,0
244080,note_on,0,0,1,,,,,,,,,,,,,,,0,,,55,0
244080,note_on,240,0,1,,,,,,,,,,,,,,,0,,,67,0
244299,control_change,219,0,2,,,,,,,,,,,,,,,0,64,0,,
244320,note_on,0,0,2,,,,,,,,,,,,,,,0,,,50,55
244320,note_on,21,0,2,,,,,,,,,,,,,,,0,,,43,0
244320,note_on,0,0,2,,,,,,,,,,,,,,,0,,,62,66
244560,note_on,0,0,1,,,,,,,,,,,,,,,0,,,82,76
244560,note_on,480,0,1,,,,,,,,,,,,,,,0,,,70,64
244560,set_tempo,720,1,0,,,,,,,,,,,,452625,,,,,,,
244680,note_on,0,0,1,,,,,,,,,,,,,,,0,,,70,0
244680,note_on,120,0,1,,,,,,,,,,,,,,,0,,,82,0
244800,note_on,480,0,2,,,,,,,,,,,,,,,0,,,62,0
244800,note_on,0,0,2,,,,,,,,,,,,,,,0,,,63,65
244800,note_on,0,0,2,,,,,,,,,,,,,,,0,,,51,54
244800,note_on,0,0,2,,,,,,,,,,,,,,,0,,,50,0
244800,note_on,0,0,1,,,,,,,,,,,,,,,0,,,81,84
244800,note_on,120,0,1,,,,,,,,,,,,,,,0,,,69,71
244800,set_tempo,240,1,0,,,,,,,,,,,,432059,,,,,,,
244807,control_change,7,0,2,,,,,,,,,,,,,,,0,64,127,,
245040,note_on,0,0,1,,,,,,,,,,,,,,,0,,,79,65
245040,note_on,0,0,1,,,,,,,,,,,,,,,0,,,67,54
245040,note_on,240,0,1,,,,,,,,,,,,,,,0,,,81,0
245040,note_on,0,0,1,,,,,,,,,,,,,,,0,,,69,0
245082,control_change,275,0,2,,,,,,,,,,,,,,,0,64,0,,
245160,note_on,0,0,1,,,,,,,,,,,,,,,0,,,67,0
245160,note_on,120,0,1,,,,,,,,,,,,,,,0,,,79,0
245280,note_on,0,0,2,,,,,,,,,,,,,,,0,,,51,0
245280,note_on,120,0,1,,,,,,,,,,,,,,,0,,,67,59
245280,note_on,198,0,2,,,,,,,,,,,,,,,0,,,63,0
245280,set_tempo,480,1,0,,,,,,,,,,,,438725,,,,,,,
245280,note_on,0,0,2,,,,,,,,,,,,,,,0,,,49,48
245280,note_on,0,0,2,,,,,,,,,,,,,,,0,,,61,57
245280,note_on,0,0,1,,,,,,,,,,,,,,,0,,,79,71
245400,note_on,120,0,1,,,,,,,,,,,,,,,0,,,79,0
245400,note_on,0,0,1,,,,,,,,,,,,,,,0,,,67,0
245520,note_on,0,0,1,,,,,,,,,,,,,,,0,,,79,64
245520,set_tempo,240,1,0,,,,,,,,,,,,445567,,,,,,,
245520,note_on,120,0,1,,,,,,,,,,,,,,,0,,,67,53
245640,note_on,0,0,1,,,,,,,,,,,,,,,0,,,67,0
245640,note_on,120,0,1,,,,,,,,,,,,,,,0,,,79,0
245760,set_tempo,240,1,0,,,,,,,,,,,,438725,,,,,,,
245760,note_on,480,0,2,,,,,,,,,,,,,,,0,,,61,0
245760,note_on,0,0,2,,,,,,,,,,,,,,,0,,,49,0
245760,note_on,0,0,2,,,,,,,,,,,,,,,0,,,50,48
245760,note_on,0,0,1,,,,,,,,,,,,,,,0,,,79,82
245760,note_on,120,0,1,,,,,,,,,,,,,,,0,,,67,70
245760,note_on,0,0,2,,,,,,,,,,,,,,,0,,,62,57
245823,control_change,63,0,2,,,,,,,,,,,,,,,0,64,127,,
246000,note_on,0,0,1,,,,,,,,,,,,,,,0,,,78,76
246000,note_on,0,0,1,,,,,,,,,,,,,,,0,,,66,64
246000,note_on,0,0,1,,,,,,,,,,,,,,,0,,,67,0
246000,note_on,240,0,1,,,,,,,,,,,,,,,0,,,79,0
246091,control_change,268,0,2,,,,,,,,,,,,,,,0,64,0,,
246120,note_on,120,0,1,,,,,,,,,,,,,,,0,,,78,0
246120,note_on,0,0,1,,,,,,,,,,,,,,,0,,,66,0
246240,note_on,0,0,2,,,,,,,,,,,,,,,0,,,50,0
246240,note_on,0,0,2,,,,,,,,,,,,,,,0,,,47,61
246240,note_on,149,0,2,,,,,,,,,,,,,,,0,,,62,0
246246,control_change,6,0,2,,,,,,,,,,,,,,,0,64,127,,
246400,note_on,154,0,2,,,,,,,,,,,,,,,0,,,47,0
246400,note_on,0,0,2,,,,,,,,,,,,,,,0,,,59,52
246480,note_on,360,0,1,,,,,,,,,,,,,,,0,,,67,64
246480,note_on,0,0,1,,,,,,,,,,,,,,,0,,,79,76
246480,set_tempo,720,1,0,,,,,,,,,,,,452625,,,,,,,
246560,note_on,0,0,2,,,,,,,,,,,,,,,0,,,47,52
246560,note_on,160,0,2,,,,,,,,,,,,,,,0,,,59,0
246600,note_on,120,0,1,,,,,,,,,,,,,,,0,,,79,0
246600,note_on,0,0,1,,,,,,,,,,,,,,,0,,,67,0
246720,set_tempo,240,1,0,,,,,,,,,,,,432059,,,,,,,
246720,note_on,0,0,2,,,,,,,,,,,,,,,0,,,48,63
246720,note_on,160,0,2,,,,,,,,,,,,,,,0,,,47,0
246720,control_change,0,0,2,,,,,,,,,,,,,,,0,64,0,,
246720,note_on,0,0,1,,,,,,,,,,,,,,,0,,,77,84
246720,note_on,120,0,1,,,,,,,,,,,,,,,0,,,65,71
246789,control_change,69,0,2,,,,,,,,,,,,,,,0,64,127,,
246880,note_on,0,0,2,,,,,,,,,,,,,,,0,,,60,55
246880,note_on,91,0,2,,,,,,,,,,,,,,,0,,,48,0
246960,note_on,0,0,1,,,,,,,,,,,,,,,0,,,76,65
246960,note_on,240,0,1,,,,,,,,,,,,,,,0,,,77,0
246960,note_on,0,0,1,,,,,,,,,,,,,,,0,,,64,54
246960,note_on,0,0,1,,,,,,,,,,,,,,,0,,,65,0
246983,control_change,103,0,2,,,,,,,,,,,,,,,0,64,0,,
247040,note_on,57,0,2,,,,,,,,,,,,,,,0,,,60,0
247040,note_on,0,0,2,,,,,,,,,,,,,,,0,,,48,54
247080,note_on,120,0,1,,,,,,,,,,,,,,,0,,,76,0
247080,note_on,0,0,1,,,,,,,,,,,,,,,0,,,64,0
247200,note_on,0,0,2,,,,,,,,,,,,,,,0,,,45,59
247200,note_on,0,0,1,,,,,,,,,,,,,,,0,,,75,71
247200,note_on,120,0,1,,,,,,,,,,,,,,,0,,,63,59
247200,note_on,160,0,2,,,,,,,,,,,,,,,0,,,48,0
247200,set_tempo,480,1,0,,,,,,,,,,,,438725,,,,,,,
247320,note_on,0,0,1,,,,,,,,,,,,,,,0,,,63,0
247320,note_on,120,0,1,,,,,,,,,,,,,,,0,,,75,0
247360,note_on,160,0,2,,,,,,,,,,,,,,,0,,,45,0
247360,note_on,0,0,2,,,,,,,,,,,,,,,0,,,57,52
247440,note_on,120,0,1,,,,,,,,,,,,,,,0,,,63,53
247440,note_on,0,0,1,,,,,,,,,,,,,,,0,,,75,64
247440,set_tempo,240,1,0,,,,,,,,,,,,445567,,,,,,,
247520,note_on,160,0,2,,,,,,,,,,,,,,,0,,,57,0
247520,note_on,0,0,2,,,,,,,,,,,,,,,0,,,45,52
247560,note_on,0,0,1,,,,,,,,,,,,,,,0,,,63,0
247560,note_on,120,0,1,,,,,,,,,,,,,,,0,,,75,0
247680,note_on,160,0,2,,,,,,,,,,,,,,,0,,,45,0
247680,note_on,0,0,2,,,,,,,,,,,,,,,0,,,46,57
247680,note_on,0,0,1,,,,,,,,,,,,,,,0,,,75,82
247680,set_tempo,240,1,0,,,,,,,,,,,,438725,,,,,,,
247680,note_on,120,0,1,,,,,,,,,,,,,,,0,,,63,70
247751,control_change,71,0,2,,,,,,,,,,,,,,,0,64,127,,
247840,note_on,0,0,2,,,,,,,,,,,,,,,0,,,58,52
247840,note_on,89,0,2,,,,,,,,,,,,,,,0,,,46,0
247920,note_on,0,0,1,,,,,,,,,,,,,,,0,,,63,0
247920,note_on,240,0,1,,,,,,,,,,,,,,,0,,,75,0
247920,note_on,0,0,1,,,,,,,,,,,,,,,0,,,62,64
247920,note_on,0,0,1,,,,,,,,,,,,,,,0,,,74,76
247948,control_change,108,0,2,,,,,,,,,,,,,,,0,64,0,,
248000,note_on,0,0,2,,,,,,,,,,,,,,,0,,,46,52
248000,note_on,52,0,2,,,,,,,,,,,,,,,0,,,58,0
248040,note_on,0,0,1,,,,,,,,,,,,,,,0,,,62,0
248040,note_on,120,0,1,,,,,,,,,,,,,,,0,,,74,0
248160,note_on,120,0,1,,,,,,,,,,,,,,,0,,,74,66
248160,note_on,0,0,1,,,,,,,,,,,,,,,0,,,86,78
248160,set_tempo,480,1,0,,,,,,,,,,,,428571,,,,,,,
248160,note_on,160,0,2,,,,,,,,,,,,,,,0,,,46,0
248259,control_change,99,0,2,,,,,,,,,,,,,,,0,64,127,,
248400,note_on,0,0,2,,,,,,,,,,,,,,,0,,,58,72
248400,note_on,141,0,2,,,,,,,,,,,,,,,0,,,46,59
248400,set_tempo,240,1,0,,,,,,,,,,,,447761,,,,,,,
248520,note_on,120,0,2,,,,,,,,,,,,,,,0,,,58,0
248520,note_on,0,0,2,,,,,,,,,,,,,,,0,,,46,0
248640,control_change,120,0,2,,,,,,,,,,,,,,,0,64,0,,
248640,note_on,0,0,2,,,,,,,,,,,,,,,0,,,45,67
248640,note_on,0,0,2,,,,,,,,,,,,,,,0,,,57,79
248640,set_tempo,240,1,0,,,,,,,,,,,,432059,,,,,,,
248640,note_on,480,0,1,,,,,,,,,,,,,,,0,,,86,0
248640,note_on,0,0,1,,,,,,,,,,,,,,,0,,,74,0
248640,note_on,0,0,1,,,,,,,,,,,,,,,0,,,75,65
248640,note_on,0,0,1,,,,,,,,,,,,,,,0,,,87,77
248711,control_change,71,0,2,,,,,,,,,,,,,,,0,64,127,,
248880,note_on,0,0,2,,,,,,,,,,,,,,,0,,,43,54
248880,note_on,169,0,2,,,,,,,,,,,,,,,0,,,57,0
248880,note_on,0,0,2,,,,,,,,,,,,,,,0,,,45,0
248880,note_on,0,0,2,,,,,,,,,,,,,,,0,,,55,65
248958,control_change,78,0,2,,,,,,,,,,,,,,,0,64,0,,
249000,note_on,42,0,2,,,,,,,,,,,,,,,0,,,55,0
249000,note_on,0,0,2,,,,,,,,,,,,,,,0,,,43,0
249120,note_on,120,0,2,,,,,,,,,,,,,,,0,,,43,59
249120,note_on,0,0,2,,,,,,,,,,,,,,,0,,,55,71
249120,note_on,0,0,1,,,,,,,,,,,,,,,0,,,73,57
249120,set_tempo,480,1,0,,,,,,,,,,,,438725,,,,,,,
249120,note_on,480,0,1,,,,,,,,,,,,,,,0,,,87,0
249120,note_on,0,0,1,,,,,,,,,,,,,,,0,,,75,0
249120,note_on,0,0,1,,,,,,,,,,,,,,,0,,,85,69
249240,note_on,120,0,2,,,,,,,,,,,,,,,0,,,55,0
249240,note_on,0,0,2,,,,,,,,,,,,,,,0,,,43,0
249360,note_on,120,0,2,,,,,,,,,,,,,,,0,,,43,53
249360,note_on,0,0,2,,,,,,,,,,,,,,,0,,,55,64
249360,set_tempo,240,1,0,,,,,,,,,,,,445567,,,,,,,
249480,note_on,120,0,2,,,,,,,,,,,,,,,0,,,55,0
249480,note_on,0,0,2,,,,,,,,,,,,,,,0,,,43,0
249600,note_on,120,0,2,,,,,,,,,,,,,,,0,,,43,66
249600,note_on,0,0,2,,,,,,,,,,,,,,,0,,,55,78
249600,set_tempo,240,1,0,,,,,,,,,,,,438725,,,,,,,
249600,note_on,480,0,1,,,,,,,,,,,,,,,0,,,85,0
249600,note_on,0,0,1,,,,,,,,,,,,,,,0,,,74,57
249600,note_on,0,0,1,,,,,,,,,,,,,,,0,,,86,69
249600,note_on,0,0,1,,,,,,,,,,,,,,,0,,,73,0
249657,control_change,57,0,2,,,,,,,,,,,,,,,0,64,127,,
249840,note_on,183,0,2,,,,,,,,,,,,,,,0,,,55,0
249840,note_on,0,0,2,,,,,,,,,,,,,,,0,,,43,0
249840,note_on,0,0,2,,,,,,,,,,,,,,,0,,,42,59
249840,note_on,0,0,2,,,,,,,,,,,,,,,0,,,54,72
249874,control_change,34,0,2,,,,,,,,,,,,,,,0,64,0,,
249960,note_on,86,0,2,,,,,,,,,,,,,,,0,,,54,0
249960,note_on,0,0,2,,,,,,,,,,,,,,,0,,,42,0
250080,note_on,0,0,1,,,,,,,,,,,,,,,0,,,83,81
250080,note_on,480,0,1,,,,,,,,,,,,,,,0,,,86,0
250080,note_on,0,0,1,,,,,,,,,,,,,,,0,,,74,0
250240,note_on,160,0,1,,,,,,,,,,,,,,,0,,,83,0
250240,note_on,0,0,1,,,,,,,,,,,,,,,0,,,71,69
250320,set_tempo,720,1,0,,,,,,,,,,,,452625,,,,,,,
250320,note_on,0,0,2,,,,,,,,,,,,,,,0,,,53,72
250320,note_on,360,0,2,,,,,,,,,,,,,,,0,,,41,59
250400,note_on,160,0,1,,,,,,,,,,,,,,,0,,,71,0
250400,note_on,0,0,1,,,,,,,,,,,,,,,0,,,83,69
250440,note_on,120,0,2,,,,,,,,,,,,,,,0,,,53,0
250440,note_on,0,0,2,,,,,,,,,,,,,,,0,,,41,0
250560,note_on,160,0,1,,,,,,,,,,,,,,,0,,,83,0
250560,note_on,0,0,1,,,,,,,,,,,,,,,0,,,84,78
250560,set_tempo,240,1,0,,,,,,,,,,,,432059,,,,,,,
250560,note_on,120,0,2,,,,,,,,,,,,,,,0,,,41,67
250560,note_on,0,0,2,,,,,,,,,,,,,,,0,,,53,79
250623,control_change,63,0,2,,,,,,,,,,,,,,,0,64,127,,
250720,note_on,0,0,1,,,,,,,,,,,,,,,0,,,72,69
250720,note_on,160,0,1,,,,,,,,,,,,,,,0,,,84,0
250800,note_on,0,0,2,,,,,,,,,,,,,,,0,,,52,60
250800,note_on,0,0,2,,,,,,,,,,,,,,,0,,,41,0
250800,note_on,0,0,2,,,,,,,,,,,,,,,0,,,40,51
250800,note_on,177,0,2,,,,,,,,,,,,,,,0,,,53,0
250857,control_change,57,0,2,,,,,,,,,,,,,,,0,64,0,,
250880,note_on,0,0,1,,,,,,,,,,,,,,,0,,,84,69
250880,note_on,160,0,1,,,,,,,,,,,,,,,0,,,72,0
250920,note_on,0,0,2,,,,,,,,,,,,,,,0,,,40,0
250920,note_on,63,0,2,,,,,,,,,,,,,,,0,,,52,0
251040,note_on,120,0,2,,,,,,,,,,,,,,,0,,,39,56
251040,note_on,0,0,2,,,,,,,,,,,,,,,0,,,51,67
251040,set_tempo,480,1,0,,,,,,,,,,,,438725,,,,,,,
251040,note_on,160,0,1,,,,,,,,,,,,,,,0,,,84,0
251040,note_on,0,0,1,,,,,,,,,,,,,,,0,,,81,76
251160,note_on,120,0,2,,,,,,,,,,,,,,,0,,,51,0
251160,note_on,0,0,2,,,,,,,,,,,,,,,0,,,39,0
251200,note_on,160,0,1,,,,,,,,,,,,,,,0,,,81,0
251200,note_on,0,0,1,,,,,,,,,,,,,,,0,,,69,69
251280,note_on,0,0,2,,,,,,,,,,,,,,,0,,,51,59
251280,set_tempo,240,1,0,,,,,,,,,,,,445567,,,,,,,
251280,note_on,120,0,2,,,,,,,,,,,,,,,0,,,39,50
251360,note_on,160,0,1,,,,,,,,,,,,,,,0,,,69,0
251360,note_on,0,0,1,,,,,,,,,,,,,,,0,,,81,69
251400,note_on,0,0,2,,,,,,,,,,,,,,,0,,,39,0
251400,note_on,120,0,2,,,,,,,,,,,,,,,0,,,51,0
251520,note_on,120,0,2,,,,,,,,,,,,,,,0,,,39,66
251520,set_tempo,240,1,0,,,,,,,,,,,,438725,,,,,,,
251520,note_on,0,0,2,,,,,,,,,,,,,,,0,,,51,78
251520,note_on,0,0,1,,,,,,,,,,,,,,,0,,,82,77
251520,note_on,160,0,1,,,,,,,,,,,,,,,0,,,81,0
251591,control_change,71,0,2,,,,,,,,,,,,,,,0,64,127,,
251680,note_on,160,0,1,,,,,,,,,,,,,,,0,,,82,0
251680,note_on,0,0,1,,,,,,,,,,,,,,,0,,,70,70
251760,note_on,0,0,2,,,,,,,,,,,,,,,0,,,39,0
251760,note_on,169,0,2,,,,,,,,,,,,,,,0,,,51,0
251760,note_on,0,0,2,,,,,,,,,,,,,,,0,,,50,72
251760,note_on,0,0,2,,,,,,,,,,,,,,,0,,,38,59
251840,note_on,160,0,1,,,,,,,,,,,,,,,0,,,70,0
251840,note_on,0,0,1,,,,,,,,,,,,,,,0,,,82,70
251880,note_on,0,0,2,,,,,,,,,,,,,,,0,,,38,0
251880,note_on,120,0,2,,,,,,,,,,,,,,,0,,,50,0
251994,control_change,114,0,2,,,,,,,,,,,,,,,0,64,0,,
252000,note_on,160,0,1,,,,,,,,,,,,,,,0,,,82,0
252000,note_on,0,0,1,,,,,,,,,,,,,,,0,,,81,77
252000,set_tempo,480,1,0,,,,,,,,,,,,431655,,,,,,,
252000,note_on,6,0,2,,,,,,,,,,,,,,,0,,,39,78
252000,note_on,0,0,1,,,,,,,,,,,,,,,0,,,79,61
252044,control_change,44,0,2,,,,,,,,,,,,,,,0,64,127,,
252160,note_on,0,0,1,,,,,,,,,,,,,,,0,,,69,70
252160,note_on,160,0,1,,,,,,,,,,,,,,,0,,,81,0
252160,note_on,0,0,1,,,,,,,,,,,,,,,0,,,79,0
252240,note_on,196,0,2,,,,,,,,,,,,,,,0,,,39,0
252240,note_on,0,0,2,,,,,,,,,,,,,,,0,,,51,70
252320,note_on,160,0,1,,,,,,,,,,,,,,,0,,,69,0
252320,note_on,0,0,1,,,,,,,,,,,,,,,0,,,81,70
252320,note_on,0,0,1,,,,,,,,,,,,,,,0,,,79,55
252480,note_on,0,0,2,,,,,,,,,,,,,,,0,,,38,78
252480,note_on,0,0,1,,,,,,,,,,,,,,,0,,,81,77
252480,note_on,0,0,1,,,,,,,,,,,,,,,0,,,79,61
252480,note_on,0,0,1,,,,,,,,,,,,,,,0,,,79,0
252480,note_on,160,0,1,,,,,,,,,,,,,,,0,,,81,0
252480,set_tempo,480,1,0,,,,,,,,,,,,436364,,,,,,,
252480,note_on,240,0,2,,,,,,,,,,,,,,,0,,,51,0
252493,control_change,13,0,2,,,,,,,,,,,,,,,0,64,0,,
252537,control_change,44,0,2,,,,,,,,,,,,,,,0,64,127,,
252640,note_on,0,0,1,,,,,,,,,,,,,,,0,,,69,70
252640,note_on,0,0,1,,,,,,,,,,,,,,,0,,,79,0
252640,note_on,160,0,1,,,,,,,,,,,,,,,0,,,81,0
252720,note_on,0,0,2,,,,,,,,,,,,,,,0,,,50,71
252720,note_on,183,0,2,,,,,,,,,,,,,,,0,,,38,0
252800,note_on,0,0,1,,,,,,,,,,,,,,,0,,,81,70
252800,note_on,0,0,1,,,,,,,,,,,,,,,0,,,79,55
252800,note_on,160,0,1,,,,,,,,,,,,,,,0,,,69,0
252960,note_on,240,0,2,,,,,,,,,,,,,,,0,,,50,0
252960,note_on,0,0,2,,,,,,,,,,,,,,,0,,,37,78
252960,note_on,0,0,1,,,,,,,,,,,,,,,0,,,79,61
252960,note_on,0,0,1,,,,,,,,,,,,,,,0,,,79,0
252960,note_on,160,0,1,,,,,,,,,,,,,,,0,,,81,0
252960,note_on,0,0,1,,,,,,,,,,,,,,,0,,,81,77
253011,control_change,51,0,2,,,,,,,,,,,,,,,0,64,0,,
253061,control_change,50,0,2,,,,,,,,,,,,,,,0,64,127,,
253120,note_on,0,0,1,,,,,,,,,,,,,,,0,,,79,0
253120,note_on,160,0,1,,,,,,,,,,,,,,,0,,,81,0
253120,note_on,0,0,1,,,,,,,,,,,,,,,0,,,69,70
253200,note_on,0,0,2,,,,,,,,,,,,,,,0,,,49,68
253200,note_on,139,0,2,,,,,,,,,,,,,,,0,,,37,0
253200,set_tempo,720,1,0,,,,,,,,,,,,449438,,,,,,,
253280,note_on,0,0,1,,,,,,,,,,,,,,,0,,,81,72
253280,note_on,0,0,1,,,,,,,,,,,,,,,0,,,79,57
253280,note_on,160,0,1,,,,,,,,,,,,,,,0,,,69,0
253440,note_on,0,0,2,,,,,,,,,,,,,,,0,,,38,78
253440,control_change,0,0,2,,,,,,,,,,,,,,,0,64,0,,
253440,note_on,240,0,2,,,,,,,,,,,,,,,0,,,49,0
253440,note_on,160,0,1,,,,,,,,,,,,,,,0,,,81,0
253440,note_on,0,0,1,,,,,,,,,,,,,,,0,,,81,77
253440,note_on,0,0,1,,,,,,,,,,,,,,,0,,,79,0
253440,note_on,0,0,1,,,,,,,,,,,,,,,0,,,78,73
253440,set_tempo,240,1,0,,,,,,,,,,,,437956,,,,,,,
253497,control_change,57,0,2,,,,,,,,,,,,,,,0,64,127,,
253600,note_on,103,0,2,,,,,,,,,,,,,,,0,,,38,0
253600,note_on,0,0,2,,,,,,,,,,,,,,,0,,,42,69
253760,note_on,0,0,2,,,,,,,,,,,,,,,0,,,45,69
253760,note_on,160,0,2,,,,,,,,,,,,,,,0,,,42,0
253920,note_on,0,0,2,,,,,,,,,,,,,,,0,,,50,76
253920,note_on,160,0,2,,,,,,,,,,,,,,,0,,,45,0
253920,set_tempo,480,1,0,,,,,,,,,,,,428571,,,,,,,
253920,note_on,0,0,1,,,,,,,,,,,,,,,0,,,78,0
253920,note_on,480,0,1,,,,,,,,,,,,,,,0,,,81,0
254080,note_on,160,0,2,,,,,,,,,,,,,,,0,,,50,0
254080,note_on,0,0,2,,,,,,,,,,,,,,,0,,,54,67
254160,note_on,240,0,1,,,,,,,,,,,,,,,0,,,74,69
254160,note_on,0,0,1,,,,,,,,,,,,,,,0,,,86,81
254160,set_tempo,240,1,0,,,,,,,,,,,,447761,,,,,,,
254240,note_on,160,0,2,,,,,,,,,,,,,,,0,,,54,0
254240,note_on,0,0,2,,,,,,,,,,,,,,,0,,,57,67
254400,note_on,0,0,2,,,,,,,,,,,,,,,0,,,50,73
254400,set_tempo,240,1,0,,,,,,,,,,,,432059,,,,,,,
254400,control_change,0,0,2,,,,,,,,,,,,,,,0,64,0,,
254400,note_on,0,0,1,,,,,,,,,,,,,,,0,,,87,80
254400,note_on,0,0,1,,,,,,,,,,,,,,,0,,,75,68
254400,note_on,0,0,1,,,,,,,,,,,,,,,0,,,74,0
254400,note_on,240,0,1,,,,,,,,,,,,,,,0,,,86,0
254400,note_on,160,0,2,,,,,,,,,,,,,,,0,,,57,0
254460,control_change,60,0,2,,,,,,,,,,,,,,,0,64,127,,
254560,note_on,0,0,2,,,,,,,,,,,,,,,0,,,55,61
254560,note_on,100,0,2,,,,,,,,,,,,,,,0,,,50,0
254720,note_on,160,0,2,,,,,,,,,,,,,,,0,,,55,0
254720,note_on,0,0,2,,,,,,,,,,,,,,,0,,,58,61
254880,note_on,0,0,2,,,,,,,,,,,,,,,0,,,57,67
254880,note_on,160,0,2,,,,,,,,,,,,,,,0,,,58,0
254880,note_on,480,0,1,,,,,,,,,,,,,,,0,,,87,0
254880,note_on,0,0,1,,,,,,,,,,,,,,,0,,,75,0
254880,set_tempo,480,1,0,,,,,,,,,,,,438725,,,,,,,
254880,note_on,0,0,1,,,,,,,,,,,,,,,0,,,73,61
254880,note_on,0,0,1,,,,,,,,,,,,,,,0,,,85,75
254908,control_change,28,0,2,,,,,,,,,,,,,,,0,64,0,,
254958,control_change,50,0,2,,,,,,,,,,,,,,,0,64,127,,
255040,note_on,0,0,2,,,,,,,,,,,,,,,0,,,58,55
255040,note_on,82,0,2,,,,,,,,,,,,,,,0,,,57,0
255120,set_tempo,240,1,0,,,,,,,,,,,,445567,,,,,,,
255200,note_on,160,0,2,,,,,,,,,,,,,,,0,,,58,0
255200,note_on,0,0,2,,,,,,,,,,,,,,,0,,,55,55
255360,note_on,0,0,1,,,,,,,,,,,,,,,0,,,73,0
255360,note_on,0,0,1,,,,,,,,,,,,,,,0,,,74,61
255360,set_tempo,240,1,0,,,,,,,,,,,,438725,,,,,,,
255360,note_on,160,0,2,,,,,,,,,,,,,,,0,,,55,0
255360,note_on,0,0,1,,,,,,,,,,,,,,,0,,,86,75
255360,control_change,0,0,2,,,,,,,,,,,,,,,0,64,0,,
255360,note_on,0,0,2,,,,,,,,,,,,,,,0,,,50,64
255360,note_on,480,0,1,,,,,,,,,,,,,,,0,,,85,0
255400,control_change,40,0,2,,,,,,,,,,,,,,,0,64,127,,
255520,note_on,120,0,2,,,,,,,,,,,,,,,0,,,50,0
255520,note_on,0,0,2,,,,,,,,,,,,,,,0,,,54,56
255680,note_on,0,0,2,,,,,,,,,,,,,,,0,,,57,56
255680,note_on,160,0,2,,,,,,,,,,,,,,,0,,,54,0
255840,note_on,0,0,2,,,,,,,,,,,,,,,0,,,56,47
255840,note_on,0,0,1,,,,,,,,,,,,,,,0,,,74,0
255840,note_on,480,0,1,,,,,,,,,,,,,,,0,,,86,0
255840,note_on,160,0,2,,,,,,,,,,,,,,,0,,,57,0
255846,control_change,6,0,2,,,,,,,,,,,,,,,0,64,0,,
255909,control_change,63,0,2,,,,,,,,,,,,,,,0,64,127,,
256000,note_on,0,0,2,,,,,,,,,,,,,,,0,,,57,36
256000,note_on,91,0,2,,,,,,,,,,,,,,,0,,,56,0
256080,set_tempo,720,1,0,,,,,,,,,,,,452625,,,,,,,
256080,note_on,240,0,1,,,,,,,,,,,,,,,0,,,74,44
256080,note_on,0,0,1,,,,,,,,,,,,,,,0,,,86,52
256160,note_on,160,0,2,,,,,,,,,,,,,,,0,,,57,0
256160,note_on,0,0,2,,,,,,,,,,,,,,,0,,,54,36
256320,note_on,0,0,2,,,,,,,,,,,,,,,0,,,50,42
256320,note_on,240,0,1,,,,,,,,,,,,,,,0,,,86,0
256320,note_on,0,0,1,,,,,,,,,,,,,,,0,,,74,0
256320,note_on,0,0,1,,,,,,,,,,,,,,,0,,,72,53
256320,note_on,160,0,2,,,,,,,,,,,,,,,0,,,54,0
256320,set_tempo,240,1,0,,,,,,,,,,,,432059,,,,,,,
256320,control_change,0,0,2,,,,,,,,,,,,,,,0,64,0,,
256320,note_on,0,0,1,,,,,,,,,,,,,,,0,,,84,64
256366,control_change,46,0,2,,,,,,,,,,,,,,,0,64,127,,
256480,note_on,114,0,2,,,,,,,,,,,,,,,0,,,50,0
256480,note_on,0,0,2,,,,,,,,,,,,,,,0,,,53,33
256560,note_on,0,0,1,,,,,,,,,,,,,,,0,,,83,42
256560,note_on,0,0,1,,,,,,,,,,,,,,,0,,,71,35
256560,note_on,0,0,1,,,,,,,,,,,,,,,0,,,72,0
256560,note_on,240,0,1,,,,,,,,,,,,,,,0,,,84,0
256640,note_on,160,0,2,,,,,,,,,,,,,,,0,,,53,0
256640,note_on,0,0,2,,,,,,,,,,,,,,,0,,,56,33
256680,note_on,0,0,1,,,,,,,,,,,,,,,0,,,71,0
256680,note_on,120,0,1,,,,,,,,,,,,,,,0,,,83,0
256749,control_change,109,0,2,,,,,,,,,,,,,,,0,64,0,,
256800,note_on,0,0,2,,,,,,,,,,,,,,,0,,,55,43
256800,set_tempo,480,1,0,,,,,,,,,,,,438725,,,,,,,
256800,note_on,120,0,1,,,,,,,,,,,,,,,0,,,71,40
256800,note_on,0,0,1,,,,,,,,,,,,,,,0,,,83,48
256800,note_on,51,0,2,,,,,,,,,,,,,,,0,,,56,0
256920,note_on,120,0,1,,,,,,,,,,,,,,,0,,,83,0
256920,note_on,0,0,1,,,,,,,,,,,,,,,0,,,71,0
256960,note_on,0,0,2,,,,,,,,,,,,,,,0,,,56,35
256960,note_on,160,0,2,,,,,,,,,,,,,,,0,,,55,0
257040,note_on,120,0,1,,,,,,,,,,,,,,,0,,,71,35
257040,note_on,0,0,1,,,,,,,,,,,,,,,0,,,83,43
257040,set_tempo,240,1,0,,,,,,,,,,,,445567,,,,,,,
257120,note_on,160,0,2,,,,,,,,,,,,,,,0,,,56,0
257120,note_on,0,0,2,,,,,,,,,,,,,,,0,,,53,35
257160,note_on,120,0,1,,,,,,,,,,,,,,,0,,,83,0
257160,note_on,0,0,1,,,,,,,,,,,,,,,0,,,71,0
257280,note_on,0,0,2,,,,,,,,,,,,,,,0,,,48,43
257280,set_tempo,240,1,0,,,,,,,,,,,,438725,,,,,,,
257280,note_on,0,0,1,,,,,,,,,,,,,,,0,,,83,55
257280,note_on,120,0,1,,,,,,,,,,,,,,,0,,,71,47
257280,note_on,160,0,2,,,,,,,,,,,,,,,0,,,53,0
257314,control_change,34,0,2,,,,,,,,,,,,,,,0,64,127,,
257440,note_on,126,0,2,,,,,,,,,,,,,,,0,,,48,0
257440,note_on,0,0,2,,,,,,,,,,,,,,,0,,,53,36
257520,note_on,240,0,1,,,,,,,,,,,,,,,0,,,83,0
257520,note_on,0,0,1,,,,,,,,,,,,,,,0,,,71,0
257520,note_on,0,0,1,,,,,,,,,,,,,,,0,,,72,35
257520,note_on,0,0,1,,,,,,,,,,,,,,,0,,,84,42
257600,note_on,160,0,2,,,,,,,,,,,,,,,0,,,53,0
257600,control_change,0,0,2,,,,,,,,,,,,,,,0,64,0,,
257600,note_on,0,0,2,,,,,,,,,,,,,,,0,,,56,36
257640,note_on,120,0,1,,,,,,,,,,,,,,,0,,,84,0
257640,note_on,0,0,1,,,,,,,,,,,,,,,0,,,72,0
257760,note_on,0,0,2,,,,,,,,,,,,,,,0,,,48,76
257760,note_on,160,0,2,,,,,,,,,,,,,,,0,,,56,0
257760,set_tempo,480,1,0,,,,,,,,,,,,428571,,,,,,,
257840,control_change,80,0,2,,,,,,,,,,,,,,,0,64,127,,
257920,note_on,0,0,2,,,,,,,,,,,,,,,0,,,52,67
257920,note_on,80,0,2,,,,,,,,,,,,,,,0,,,48,0
258000,set_tempo,240,1,0,,,,,,,,,,,,447761,,,,,,,
258000,note_on,0,0,1,,,,,,,,,,,,,,,0,,,84,81
258000,note_on,360,0,1,,,,,,,,,,,,,,,0,,,72,69
258080,note_on,0,0,2,,,,,,,,,,,,,,,0,,,55,67
258080,note_on,160,0,2,,,,,,,,,,,,,,,0,,,52,0
258240,control_change,0,0,2,,,,,,,,,,,,,,,0,64,0,,
258240,note_on,160,0,2,,,,,,,,,,,,,,,0,,,55,0
258240,note_on,0,0,2,,,,,,,,,,,,,,,0,,,48,73
258240,note_on,0,0,1,,,,,,,,,,,,,,,0,,,85,80
258240,note_on,0,0,1,,,,,,,,,,,,,,,0,,,72,0
258240,note_on,0,0,1,,,,,,,,,,,,,,,0,,,73,68
258240,note_on,240,0,1,,,,,,,,,,,,,,,0,,,84,0
258240,set_tempo,240,1,0,,,,,,,,,,,,432059,,,,,,,
258297,control_change,57,0,2,,,,,,,,,,,,,,,0,64,127,,
258400,note_on,0,0,2,,,,,,,,,,,,,,,0,,,53,61
258400,note_on,103,0,2,,,,,,,,,,,,,,,0,,,48,0
258560,note_on,160,0,2,,,,,,,,,,,,,,,0,,,53,0
258560,note_on,0,0,2,,,,,,,,,,,,,,,0,,,56,61
258720,note_on,0,0,2,,,,,,,,,,,,,,,0,,,55,67
258720,set_tempo,480,1,0,,,,,,,,,,,,438725,,,,,,,
258720,note_on,0,0,1,,,,,,,,,,,,,,,0,,,83,72
258720,note_on,0,0,1,,,,,,,,,,,,,,,0,,,71,59
258720,note_on,0,0,1,,,,,,,,,,,,,,,0,,,73,0
258720,note_on,480,0,1,,,,,,,,,,,,,,,0,,,85,0
258720,note_on,160,0,2,,,,,,,,,,,,,,,0,,,56,0
258748,control_change,28,0,2,,,,,,,,,,,,,,,0,64,0,,
258806,control_change,58,0,2,,,,,,,,,,,,,,,0,64,127,,
258880,note_on,74,0,2,,,,,,,,,,,,,,,0,,,55,0
258880,note_on,0,0,2,,,,,,,,,,,,,,,0,,,56,55
258960,set_tempo,240,1,0,,,,,,,,,,,,445567,,,,,,,
259040,note_on,160,0,2,,,,,,,,,,,,,,,0,,,56,0
259040,note_on,0,0,2,,,,,,,,,,,,,,,0,,,53,55
259200,note_on,160,0,2,,,,,,,,,,,,,,,0,,,53,0
259200,control_change,0,0,2,,,,,,,,,,,,,,,0,64,0,,
259200,note_on,480,0,1,,,,,,,,,,,,,,,0,,,83,0
259200,note_on,0,0,1,,,,,,,,,,,,,,,0,,,71,0
259200,note_on,0,0,2,,,,,,,,,,,,,,,0,,,48,64
259200,note_on,0,0,1,,,,,,,,,,,,,,,0,,,72,59
259200,set_tempo,240,1,0,,,,,,,,,,,,438725,,,,,,,
259200,note_on,0,0,1,,,,,,,,,,,,,,,0,,,84,72
259240,control_change,40,0,2,,,,,,,,,,,,,,,0,64,127,,
259360,note_on,120,0,2,,,,,,,,,,,,,,,0,,,48,0
259360,note_on,0,0,2,,,,,,,,,,,,,,,0,,,52,56
259520,note_on,160,0,2,,,,,,,,,,,,,,,0,,,52,0
259520,note_on,0,0,2,,,,,,,,,,,,,,,0,,,55,56
259680,note_on,0,0,1,,,,,,,,,,,,,,,0,,,72,0
259680,note_on,480,0,1,,,,,,,,,,,,,,,0,,,84,0
259680,note_on,160,0,2,,,,,,,,,,,,,,,0,,,55,0
259680,note_on,0,0,2,,,,,,,,,,,,,,,0,,,54,47
259686,control_change,6,0,2,,,,,,,,,,,,,,,0,64,0,,
259749,control_change,63,0,2,,,,,,,,,,,,,,,0,64,127,,
259840,note_on,91,0,2,,,,,,,,,,,,,,,0,,,54,0
259840,note_on,0,0,2,,,,,,,,,,,,,,,0,,,55,36
259920,note_on,240,0,1,,,,,,,,,,,,,,,0,,,72,44
259920,set_tempo,720,1,0,,,,,,,,,,,,452625,,,,,,,
259920,note_on,0,0,1,,,,,,,,,,,,,,,0,,,84,52
260000,note_on,160,0,2,,,,,,,,,,,,,,,0,,,55,0
260000,note_on,0,0,2,,,,,,,,,,,,,,,0,,,52,36
260160,note_on,160,0,2,,,,,,,,,,,,,,,0,,,52,0
260160,note_on,240,0,1,,,,,,,,,,,,,,,0,,,84,0
260160,note_on,0,0,1,,,,,,,,,,,,,,,0,,,72,0
260160,set_tempo,240,1,0,,,,,,,,,,,,432059,,,,,,,
260160,control_change,0,0,2,,,,,,,,,,,,,,,0,64,0,,
260160,note_on,0,0,2,,,,,,,,,,,,,,,0,,,48,42
260160,note_on,0,0,1,,,,,,,,,,,,,,,0,,,82,64
260160,note_on,0,0,1,,,,,,,,,,,,,,,0,,,70,53
260206,control_change,46,0,2,,,,,,,,,,,,,,,0,64,127,,
260320,note_on,114,0,2,,,,,,,,,,,,,,,0,,,48,0
260320,note_on,0,0,2,,,,,,,,,,,,,,,0,,,51,33
260400,note_on,0,0,1,,,,,,,,,,,,,,,0,,,70,0
260400,note_on,0,0,1,,,,,,,,,,,,,,,0,,,69,35
260400,note_on,0,0,1,,,,,,,,,,,,,,,0,,,81,42
260400,note_on,240,0,1,,,,,,,,,,,,,,,0,,,82,0
260463,control_change,143,0,2,,,,,,,,,,,,,,,0,64,0,,
260480,note_on,17,0,2,,,,,,,,,,,,,,,0,,,51,0
260480,note_on,0,0,2,,,,,,,,,,,,,,,0,,,54,33
260520,note_on,120,0,1,,,,,,,,,,,,,,,0,,,81,0
260520,note_on,0,0,1,,,,,,,,,,,,,,,0,,,69,0
260640,note_on,160,0,2,,,,,,,,,,,,,,,0,,,54,0
260640,note_on,0,0,2,,,,,,,,,,,,,,,0,,,53,43
260640,note_on,120,0,1,,,,,,,,,,,,,,,0,,,69,40
260640,note_on,0,0,1,,,,,,,,,,,,,,,0,,,81,48
260640,set_tempo,480,1,0,,,,,,,,,,,,438725,,,,,,,
260760,note_on,120,0,1,,,,,,,,,,,,,,,0,,,81,0
260760,note_on,0,0,1,,,,,,,,,,,,,,,0,,,69,0
260800,note_on,160,0,2,,,,,,,,,,,,,,,0,,,53,0
260800,note_on,0,0,2,,,,,,,,,,,,,,,0,,,54,35
260880,note_on,120,0,1,,,,,,,,,,,,,,,0,,,69,35
260880,note_on,0,0,1,,,,,,,,,,,,,,,0,,,81,43
260880,set_tempo,240,1,0,,,,,,,,,,,,445567,,,,,,,
260960,note_on,160,0,2,,,,,,,,,,,,,,,0,,,54,0
260960,note_on,0,0,2,,,,,,,,,,,,,,,0,,,51,35
261000,note_on,120,0,1,,,,,,,,,,,,,,,0,,,81,0
261000,note_on,0,0,1,,,,,,,,,,,,,,,0,,,69,0
261120,note_on,160,0,2,,,,,,,,,,,,,,,0,,,51,0
261120,note_on,0,0,2,,,,,,,,,,,,,,,0,,,46,43
261120,set_tempo,240,1,0,,,,,,,,,,,,438725,,,,,,,
261120,note_on,0,0,1,,,,,,,,,,,,,,,0,,,81,55
261120,note_on,120,0,1,,,,,,,,,,,,,,,0,,,69,47
261154,control_change,34,0,2,,,,,,,,,,,,,,,0,64,127,,
261280,note_on,0,0,2,,,,,,,,,,,,,,,0,,,51,36
261280,note_on,126,0,2,,,,,,,,,,,,,,,0,,,46,0
261360,note_on,0,0,1,,,,,,,,,,,,,,,0,,,69,0
261360,note_on,0,0,1,,,,,,,,,,,,,,,0,,,70,35
261360,note_on,0,0,1,,,,,,,,,,,,,,,0,,,82,42
261360,note_on,240,0,1,,,,,,,,,,,,,,,0,,,81,0
261400,control_change,120,0,2,,,,,,,,,,,,,,,0,64,0,,
261440,note_on,0,0,2,,,,,,,,,,,,,,,0,,,54,36
261440,note_on,40,0,2,,,,,,,,,,,,,,,0,,,51,0
261480,note_on,120,0,1,,,,,,,,,,,,,,,0,,,82,0
261480,note_on,0,0,1,,,,,,,,,,,,,,,0,,,70,0
261600,note_on,160,0,2,,,,,,,,,,,,,,,0,,,54,0
261606,note_on,6,0,2,,,,,,,,,,,,,,,0,,,46,51
261640,control_change,34,0,2,,,,,,,,,,,,,,,0,64,127,,
261759,note_on,119,0,2,,,,,,,,,,,,,,,0,,,50,44
261766,note_on,7,0,2,,,,,,,,,,,,,,,0,,,46,0
261840,note_on,360,0,1,,,,,,,,,,,,,,,0,,,74,44
261919,note_on,153,0,2,,,,,,,,,,,,,,,0,,,50,0
261921,note_on,2,0,2,,,,,,,,,,,,,,,0,,,53,44
262080,note_on,0,0,2,,,,,,,,,,,,,,,0,,,60,60
262080,control_change,159,0,2,,,,,,,,,,,,,,,0,64,0,,
262080,set_tempo,960,1,0,,,,,,,,,,,,432059,,,,,,,
262080,note_on,240,0,1,,,,,,,,,,,,,,,0,,,74,0
262080,note_on,0,0,1,,,,,,,,,,,,,,,0,,,77,47
262081,note_on,1,0,2,,,,,,,,,,,,,,,0,,,53,0
262136,control_change,55,0,2,,,,,,,,,,,,,,,0,64,127,,
262240,note_on,160,0,1,,,,,,,,,,,,,,,0,,,77,0
262240,note_on,0,0,1,,,,,,,,,,,,,,,0,,,75,40
262400,note_on,0,0,1,,,,,,,,,,,,,,,0,,,65,40
262400,note_on,160,0,1,,,,,,,,,,,,,,,0,,,75,0
262560,note_on,0,0,2,,,,,,,,,,,,,,,0,,,57,50
262560,note_on,160,0,1,,,,,,,,,,,,,,,0,,,65,0
262560,note_on,0,0,1,,,,,,,,,,,,,,,0,,,77,47
262560,set_tempo,480,1,0,,,,,,,,,,,,438725,,,,,,,
262560,note_on,424,0,2,,,,,,,,,,,,,,,0,,,60,0
262720,note_on,160,0,1,,,,,,,,,,,,,,,0,,,77,0
262720,note_on,0,0,1,,,,,,,,,,,,,,,0,,,72,39
262800,set_tempo,240,1,0,,,,,,,,,,,,445567,,,,,,,
262880,note_on,160,0,1,,,,,,,,,,,,,,,0,,,72,0
262880,note_on,0,0,1,,,,,,,,,,,,,,,0,,,65,40
263040,note_on,160,0,1,,,,,,,,,,,,,,,0,,,65,0
263040,set_tempo,240,1,0,,,,,,,,,,,,438725,,,,,,,
263040,note_on,0,0,2,,,,,,,,,,,,,,,0,,,58,59
263040,control_change,0,0,2,,,,,,,,,,,,,,,0,64,0,,
263040,note_on,480,0,2,,,,,,,,,,,,,,,0,,,57,0
263040,note_on,0,0,1,,,,,,,,,,,,,,,0,,,77,47
263104,control_change,64,0,2,,,,,,,,,,,,,,,0,64,127,,
263200,note_on,160,0,1,,,,,,,,,,,,,,,0,,,77,0
263200,note_on,0,0,1,,,,,,,,,,,,,,,0,,,74,42
263360,note_on,160,0,1,,,,,,,,,,,,,,,0,,,74,0
263360,note_on,0,0,1,,,,,,,,,,,,,,,0,,,65,40
263520,note_on,0,0,1,,,,,,,,,,,,,,,0,,,82,47
263520,note_on,160,0,1,,,,,,,,,,,,,,,0,,,65,0
263680,note_on,0,0,1,,,,,,,,,,,,,,,0,,,77,38
263680,note_on,160,0,1,,,,,,,,,,,,,,,0,,,82,0
263760,set_tempo,720,1,0,,,,,,,,,,,,452625,,,,,,,
263760,note_on,656,0,2,,,,,,,,,,,,,,,0,,,58,0
263760,note_on,0,0,2,,,,,,,,,,,,,,,0,,,62,45
263840,note_on,160,0,1,,,,,,,,,,,,,,,0,,,77,0
263840,note_on,0,0,1,,,,,,,,,,,,,,,0,,,70,38
263880,note_on,120,0,2,,,,,,,,,,,,,,,0,,,62,0
264000,set_tempo,240,1,0,,,,,,,,,,,,432059,,,,,,,
264000,note_on,160,0,1,,,,,,,,,,,,,,,0,,,70,0
264000,note_on,0,0,1,,,,,,,,,,,,,,,0,,,84,47
264000,control_change,120,0,2,,,,,,,,,,,,,,,0,64,0,,
264000,note_on,0,0,2,,,,,,,,,,,,,,,0,,,58,51
264000,note_on,0,0,2,,,,,,,,,,,,,,,0,,,65,53
264092,control_change,92,0,2,,,,,,,,,,,,,,,0,64,127,,
264160,note_on,160,0,1,,,,,,,,,,,,,,,0,,,84,0
264160,note_on,0,0,1,,,,,,,,,,,,,,,0,,,77,39
264240,note_on,0,0,2,,,,,,,,,,,,,,,0,,,63,46
264240,note_on,148,0,2,,,,,,,,,,,,,,,0,,,65,0
264320,note_on,160,0,1,,,,,,,,,,,,,,,0,,,77,0
264320,note_on,0,0,1,,,,,,,,,,,,,,,0,,,72,39
264360,note_on,120,0,2,,,,,,,,,,,,,,,0,,,63,0
264388,control_change,28,0,2,,,,,,,,,,,,,,,0,64,0,,
264480,note_on,92,0,2,,,,,,,,,,,,,,,0,,,63,46
264480,set_tempo,480,1,0,,,,,,,,,,,,438725,,,,,,,
264480,note_on,160,0,1,,,,,,,,,,,,,,,0,,,72,0
264480,note_on,0,0,1,,,,,,,,,,,,,,,0,,,81,47
264600,note_on,120,0,2,,,,,,,,,,,,,,,0,,,63,0
264640,note_on,160,0,1,,,,,,,,,,,,,,,0,,,81,0
264640,note_on,0,0,1,,,,,,,,,,,,,,,0,,,77,38
264720,note_on,120,0,2,,,,,,,,,,,,,,,0,,,63,46
264720,set_tempo,240,1,0,,,,,,,,,,,,445567,,,,,,,
264800,note_on,160,0,1,,,,,,,,,,,,,,,0,,,77,0
264800,note_on,0,0,1,,,,,,,,,,,,,,,0,,,69,38
264840,note_on,120,0,2,,,,,,,,,,,,,,,0,,,63,0
264960,note_on,0,0,2,,,,,,,,,,,,,,,0,,,63,53
264960,note_on,120,0,2,,,,,,,,,,,,,,,0,,,58,0
264960,set_tempo,240,1,0,,,,,,,,,,,,438725,,,,,,,
264960,note_on,0,0,2,,,,,,,,,,,,,,,0,,,58,51
264960,note_on,160,0,1,,,,,,,,,,,,,,,0,,,69,0
264960,note_on,0,0,1,,,,,,,,,,,,,,,0,,,82,47
265016,control_change,56,0,2,,,,,,,,,,,,,,,0,64,127,,
265120,note_on,0,0,1,,,,,,,,,,,,,,,0,,,77,39
265120,note_on,160,0,1,,,,,,,,,,,,,,,0,,,82,0
265200,note_on,184,0,2,,,,,,,,,,,,,,,0,,,63,0
265200,note_on,0,0,2,,,,,,,,,,,,,,,0,,,62,46
265271,control_change,71,0,2,,,,,,,,,,,,,,,0,64,0,,
265280,note_on,0,0,1,,,,,,,,,,,,,,,0,,,70,40
265280,note_on,160,0,1,,,,,,,,,,,,,,,0,,,77,0
265320,note_on,49,0,2,,,,,,,,,,,,,,,0,,,62,0
265440,note_on,160,0,1,,,,,,,,,,,,,,,0,,,70,0
265440,note_on,0,0,1,,,,,,,,,,,,,,,0,,,77,44
265440,note_on,120,0,2,,,,,,,,,,,,,,,0,,,58,0
265480,control_change,40,0,2,,,,,,,,,,,,,,,0,64,127,,
265600,note_on,160,0,1,,,,,,,,,,,,,,,0,,,77,0
265600,note_on,0,0,1,,,,,,,,,,,,,,,0,,,74,37
265680,set_tempo,720,1,0,,,,,,,,,,,,442804,,,,,,,
265680,note_on,200,0,2,,,,,,,,,,,,,,,0,,,58,53
265760,note_on,0,0,1,,,,,,,,,,,,,,,0,,,65,37
265760,note_on,160,0,1,,,,,,,,,,,,,,,0,,,74,0
265886,control_change,206,0,2,,,,,,,,,,,,,,,0,64,0,,
265920,control_change,0,0,2,,,,,,,,,,,,,,,0,64,127,,
265920,note_on,160,0,1,,,,,,,,,,,,,,,0,,,65,0
265920,set_tempo,240,1,0,,,,,,,,,,,,431655,,,,,,,
265920,note_on,34,0,2,,,,,,,,,,,,,,,0,,,58,0
265920,note_on,0,0,2,,,,,,,,,,,,,,,0,,,60,59
265920,note_on,0,0,1,,,,,,,,,,,,,,,0,,,77,47
266080,note_on,160,0,1,,,,,,,,,,,,,,,0,,,77,0
266080,note_on,0,0,1,,,,,,,,,,,,,,,0,,,75,40
266160,note_on,0,0,2,,,,,,,,,,,,,,,0,,,62,50
266160,set_tempo,240,1,0,,,,,,,,,,,,444444,,,,,,,
266160,note_on,240,0,2,,,,,,,,,,,,,,,0,,,60,0
266240,note_on,0,0,1,,,,,,,,,,,,,,,0,,,65,40
266240,note_on,160,0,1,,,,,,,,,,,,,,,0,,,75,0
266400,set_tempo,240,1,0,,,,,,,,,,,,438725,,,,,,,
266400,note_on,0,0,1,,,,,,,,,,,,,,,0,,,77,47
266400,note_on,160,0,1,,,,,,,,,,,,,,,0,,,65,0
266400,note_on,240,0,2,,,,,,,,,,,,,,,0,,,62,0
266400,note_on,0,0,2,,,,,,,,,,,,,,,0,,,55,55
266560,note_on,0,0,1,,,,,,,,,,,,,,,0,,,72,39
266560,note_on,160,0,1,,,,,,,,,,,,,,,0,,,77,0
266640,note_on,240,0,2,,,,,,,,,,,,,,,0,,,55,0
266640,note_on,0,0,2,,,,,,,,,,,,,,,0,,,57,50
266640,set_tempo,240,1,0,,,,,,,,,,,,445567,,,,,,,
266720,note_on,0,0,1,,,,,,,,,,,,,,,0,,,65,40
266720,note_on,160,0,1,,,,,,,,,,,,,,,0,,,72,0
266880,note_on,0,0,2,,,,,,,,,,,,,,,0,,,58,59
266880,set_tempo,240,1,0,,,,,,,,,,,,438725,,,,,,,
266880,note_on,160,0,1,,,,,,,,,,,,,,,0,,,65,0
266880,note_on,0,0,1,,,,,,,,,,,,,,,0,,,77,47
266880,control_change,0,0,2,,,,,,,,,,,,,,,0,64,0,,
266880,note_on,240,0,2,,,,,,,,,,,,,,,0,,,57,0
266944,control_change,64,0,2,,,,,,,,,,,,,,,0,64,127,,
267040,note_on,0,0,1,,,,,,,,,,,,,,,0,,,74,42
267040,note_on,160,0,1,,,,,,,,,,,,,,,0,,,77,0
267200,note_on,160,0,1,,,,,,,,,,,,,,,0,,,74,0
267200,note_on,0,0,1,,,,,,,,,,,,,,,0,,,65,40
267360,note_on,0,0,1,,,,,,,,,,,,,,,0,,,82,47
267360,note_on,160,0,1,,,,,,,,,,,,,,,0,,,65,0
267520,note_on,0,0,1,,,,,,,,,,,,,,,0,,,77,38
267520,note_on,160,0,1,,,,,,,,,,,,,,,0,,,82,0
267600,note_on,656,0,2,,,,,,,,,,,,,,,0,,,58,0
267600,note_on,0,0,2,,,,,,,,,,,,,,,0,,,62,45
267600,set_tempo,720,1,0,,,,,,,,,,,,452625,,,,,,,
267680,note_on,0,0,1,,,,,,,,,,,,,,,0,,,70,38
267680,note_on,160,0,1,,,,,,,,,,,,,,,0,,,77,0
267720,note_on,120,0,2,,,,,,,,,,,,,,,0,,,62,0
267840,note_on,0,0,1,,,,,,,,,,,,,,,0,,,84,47
267840,set_tempo,240,1,0,,,,,,,,,,,,432059,,,,,,,
267840,note_on,160,0,1,,,,,,,,,,,,,,,0,,,70,0
267840,control_change,120,0,2,,,,,,,,,,,,,,,0,64,0,,
267840,note_on,0,0,2,,,,,,,,,,,,,,,0,,,58,53
267840,note_on,0,0,2,,,,,,,,,,,,,,,0,,,65,53
267932,control_change,92,0,2,,,,,,,,,,,,,,,0,64,127,,
268000,note_on,160,0,1,,,,,,,,,,,,,,,0,,,84,0
268000,note_on,0,0,1,,,,,,,,,,,,,,,0,,,77,39
268080,note_on,0,0,2,,,,,,,,,,,,,,,0,,,63,46
268080,note_on,148,0,2,,,,,,,,,,,,,,,0,,,65,0
268160,note_on,160,0,1,,,,,,,,,,,,,,,0,,,77,0
268160,note_on,0,0,1,,,,,,,,,,,,,,,0,,,72,39
268200,note_on,120,0,2,,,,,,,,,,,,,,,0,,,63,0
268235,control_change,35,0,2,,,,,,,,,,,,,,,0,64,0,,
268320,note_on,0,0,1,,,,,,,,,,,,,,,0,,,81,47
268320,note_on,160,0,1,,,,,,,,,,,,,,,0,,,72,0
268320,set_tempo,480,1,0,,,,,,,,,,,,438725,,,,,,,
268320,note_on,85,0,2,,,,,,,,,,,,,,,0,,,63,46
268440,note_on,120,0,2,,,,,,,,,,,,,,,0,,,63,0
268480,note_on,160,0,1,,,,,,,,,,,,,,,0,,,81,0
268480,note_on,0,0,1,,,,,,,,,,,,,,,0,,,77,38
268560,note_on,120,0,2,,,,,,,,,,,,,,,0,,,63,46
268560,set_tempo,240,1,0,,,,,,,,,,,,445567,,,,,,,
268640,note_on,0,0,1,,,,,,,,,,,,,,,0,,,69,38
268640,note_on,160,0,1,,,,,,,,,,,,,,,0,,,77,0
268680,note_on,120,0,2,,,,,,,,,,,,,,,0,,,63,0
268800,note_on,0,0,2,,,,,,,,,,,,,,,0,,,63,53
268800,note_on,0,0,1,,,,,,,,,,,,,,,0,,,82,47
268800,note_on,160,0,1,,,,,,,,,,,,,,,0,,,69,0
268800,note_on,0,0,2,,,,,,,,,,,,,,,0,,,58,53
268800,set_tempo,240,1,0,,,,,,,,,,,,438725,,,,,,,
268800,note_on,120,0,2,,,,,,,,,,,,,,,0,,,58,0
268856,control_change,56,0,2,,,,,,,,,,,,,,,0,64,127,,
268960,note_on,160,0,1,,,,,,,,,,,,,,,0,,,82,0
268960,note_on,0,0,1,,,,,,,,,,,,,,,0,,,77,39
269040,note_on,0,0,2,,,,,,,,,,,,,,,0,,,62,46
269040,note_on,184,0,2,,,,,,,,,,,,,,,0,,,63,0
269075,control_change,35,0,2,,,,,,,,,,,,,,,0,64,0,,
269120,note_on,0,0,1,,,,,,,,,,,,,,,0,,,70,40
269120,note_on,160,0,1,,,,,,,,,,,,,,,0,,,77,0
269160,note_on,85,0,2,,,,,,,,,,,,,,,0,,,62,0
269280,note_on,0,0,1,,,,,,,,,,,,,,,0,,,77,75
269280,note_on,160,0,1,,,,,,,,,,,,,,,0,,,70,0
269280,note_on,120,0,2,,,,,,,,,,,,,,,0,,,58,0
269320,control_change,40,0,2,,,,,,,,,,,,,,,0,64,127,,
269440,note_on,0,0,1,,,,,,,,,,,,,,,0,,,74,66
269440,note_on,160,0,1,,,,,,,,,,,,,,,0,,,77,0
269520,note_on,0,0,2,,,,,,,,,,,,,,,0,,,58,68
269520,note_on,200,0,2,,,,,,,,,,,,,,,0,,,46,57
269520,set_tempo,720,1,0,,,,,,,,,,,,442804,,,,,,,
269600,note_on,0,0,1,,,,,,,,,,,,,,,0,,,65,65
269600,note_on,160,0,1,,,,,,,,,,,,,,,0,,,74,0
269760,note_on,0,0,1,,,,,,,,,,,,,,,0,,,68,73
269760,note_on,0,0,1,,,,,,,,,,,,,,,0,,,65,73
269760,note_on,160,0,1,,,,,,,,,,,,,,,0,,,65,0
269760,control_change,0,0,2,,,,,,,,,,,,,,,0,64,0,,
269760,set_tempo,240,1,0,,,,,,,,,,,,431655,,,,,,,
269760,note_on,240,0,2,,,,,,,,,,,,,,,0,,,58,0
269760,note_on,0,0,2,,,,,,,,,,,,,,,0,,,46,0
269760,note_on,0,0,2,,,,,,,,,,,,,,,0,,,47,65
269760,note_on,0,0,2,,,,,,,,,,,,,,,0,,,59,77
269760,note_on,0,0,1,,,,,,,,,,,,,,,0,,,75,87
269818,control_change,58,0,2,,,,,,,,,,,,,,,0,64,127,,
270000,note_on,0,0,1,,,,,,,,,,,,,,,0,,,73,76
270000,note_on,240,0,1,,,,,,,,,,,,,,,0,,,75,0
270000,set_tempo,240,1,0,,,,,,,,,,,,444444,,,,,,,
270120,note_on,120,0,1,,,,,,,,,,,,,,,0,,,73,0
270237,control_change,419,0,2,,,,,,,,,,,,,,,0,64,0,,
270240,note_on,0,0,2,,,,,,,,,,,,,,,0,,,56,71
270240,note_on,0,0,2,,,,,,,,,,,,,,,0,,,44,59
270240,note_on,0,0,2,,,,,,,,,,,,,,,0,,,47,0
270240,note_on,3,0,2,,,,,,,,,,,,,,,0,,,59,0
270240,set_tempo,240,1,0,,,,,,,,,,,,438725,,,,,,,
270240,note_on,120,0,1,,,,,,,,,,,,,,,0,,,68,0
270240,note_on,0,0,1,,,,,,,,,,,,,,,0,,,65,67
270240,note_on,0,0,1,,,,,,,,,,,,,,,0,,,71,80
270240,note_on,0,0,1,,,,,,,,,,,,,,,0,,,73,80
270240,note_on,0,0,1,,,,,,,,,,,,,,,0,,,65,0
270259,control_change,19,0,2,,,,,,,,,,,,,,,0,64,127,,
270360,note_on,120,0,1,,,,,,,,,,,,,,,0,,,73,0
270360,note_on,0,0,1,,,,,,,,,,,,,,,0,,,71,0
270360,note_on,0,0,1,,,,,,,,,,,,,,,0,,,65,0
270480,set_tempo,240,1,0,,,,,,,,,,,,445567,,,,,,,
270480,note_on,120,0,1,,,,,,,,,,,,,,,0,,,65,59
270480,note_on,0,0,1,,,,,,,,,,,,,,,0,,,71,71
270480,note_on,0,0,1,,,,,,,,,,,,,,,0,,,73,71
270600,note_on,0,0,1,,,,,,,,,,,,,,,0,,,71,0
270600,note_on,120,0,1,,,,,,,,,,,,,,,0,,,73,0
270600,note_on,0,0,1,,,,,,,,,,,,,,,0,,,65,0
270720,note_on,0,0,1,,,,,,,,,,,,,,,0,,,73,77
270720,note_on,0,0,1,,,,,,,,,,,,,,,0,,,70,65
270720,note_on,120,0,1,,,,,,,,,,,,,,,0,,,66,65
270720,set_tempo,240,1,0,,,,,,,,,,,,438725,,,,,,,
270720,note_on,461,0,2,,,,,,,,,,,,,,,0,,,56,0
270720,note_on,0,0,2,,,,,,,,,,,,,,,0,,,44,0
270720,note_on,0,0,2,,,,,,,,,,,,,,,0,,,46,65
270720,note_on,0,0,2,,,,,,,,,,,,,,,0,,,58,77
270720,control_change,0,0,2,,,,,,,,,,,,,,,0,64,0,,
270784,control_change,64,0,2,,,,,,,,,,,,,,,0,64,127,,
270960,note_on,0,0,1,,,,,,,,,,,,,,,0,,,78,71
270960,note_on,240,0,1,,,,,,,,,,,,,,,0,,,73,0
271200,note_on,0,0,1,,,,,,,,,,,,,,,0,,,82,80
271200,note_on,0,0,1,,,,,,,,,,,,,,,0,,,70,0
271200,note_on,0,0,1,,,,,,,,,,,,,,,0,,,66,0
271200,note_on,240,0,1,,,,,,,,,,,,,,,0,,,78,0
271200,note_on,416,0,2,,,,,,,,,,,,,,,0,,,58,0
271200,note_on,0,0,2,,,,,,,,,,,,,,,0,,,46,0
271360,note_on,160,0,1,,,,,,,,,,,,,,,0,,,82,0
271360,note_on,0,0,1,,,,,,,,,,,,,,,0,,,85,60
271440,set_tempo,720,1,0,,,,,,,,,,,,452625,,,,,,,
271440,note_on,240,0,2,,,,,,,,,,,,,,,0,,,51,55
271440,note_on,0,0,2,,,,,,,,,,,,,,,0,,,63,66
271520,note_on,0,0,1,,,,,,,,,,,,,,,0,,,90,60
271520,note_on,160,0,1,,,,,,,,,,,,,,,0,,,85,0
271560,note_on,0,0,2,,,,,,,,,,,,,,,0,,,51,0
271560,note_on,120,0,2,,,,,,,,,,,,,,,0,,,63,0
271680,note_on,160,0,1,,,,,,,,,,,,,,,0,,,90,0
271680,note_on,0,0,1,,,,,,,,,,,,,,,0,,,85,65
271680,note_on,0,0,2,,,,,,,,,,,,,,,0,,,61,78
271680,note_on,120,0,2,,,,,,,,,,,,,,,0,,,49,66
271680,control_change,0,0,2,,,,,,,,,,,,,,,0,64,0,,
271680,note_on,0,0,1,,,,,,,,,,,,,,,0,,,92,77
271680,set_tempo,240,1,0,,,,,,,,,,,,432059,,,,,,,
271772,control_change,92,0,2,,,,,,,,,,,,,,,0,64,127,,
271840,note_on,160,0,1,,,,,,,,,,,,,,,0,,,92,0
271840,note_on,0,0,1,,,,,,,,,,,,,,,0,,,85,0
271840,note_on,0,0,1,,,,,,,,,,,,,,,0,,,80,61
271920,note_on,0,0,2,,,,,,,,,,,,,,,0,,,49,0
271920,note_on,148,0,2,,,,,,,,,,,,,,,0,,,61,0
271920,note_on,0,0,2,,,,,,,,,,,,,,,0,,,59,65
271920,note_on,0,0,2,,,,,,,,,,,,,,,0,,,47,54
272000,note_on,0,0,1,,,,,,,,,,,,,,,0,,,85,51
272000,note_on,0,0,1,,,,,,,,,,,,,,,0,,,92,61
272000,note_on,160,0,1,,,,,,,,,,,,,,,0,,,80,0
272040,note_on,0,0,2,,,,,,,,,,,,,,,0,,,47,0
272040,note_on,120,0,2,,,,,,,,,,,,,,,0,,,59,0
272126,control_change,86,0,2,,,,,,,,,,,,,,,0,64,0,,
272160,note_on,160,0,1,,,,,,,,,,,,,,,0,,,92,0
272160,note_on,0,0,1,,,,,,,,,,,,,,,0,,,85,66
272160,note_on,0,0,1,,,,,,,,,,,,,,,0,,,89,78
272160,set_tempo,480,1,0,,,,,,,,,,,,438725,,,,,,,
272160,note_on,34,0,2,,,,,,,,,,,,,,,0,,,47,54
272160,note_on,0,0,2,,,,,,,,,,,,,,,0,,,59,65
272160,note_on,0,0,1,,,,,,,,,,,,,,,0,,,85,0
272166,control_change,6,0,2,,,,,,,,,,,,,,,0,64,127,,
272280,note_on,0,0,2,,,,,,,,,,,,,,,0,,,47,0
272280,note_on,114,0,2,,,,,,,,,,,,,,,0,,,59,0
272320,note_on,0,0,1,,,,,,,,,,,,,,,0,,,77,58
272320,note_on,160,0,1,,,,,,,,,,,,,,,0,,,89,0
272320,note_on,0,0,1,,,,,,,,,,,,,,,0,,,85,0
272400,note_on,120,0,2,,,,,,,,,,,,,,,0,,,47,53
272400,note_on,0,0,2,,,,,,,,,,,,,,,0,,,59,64
272400,set_tempo,240,1,0,,,,,,,,,,,,445567,,,,,,,
272480,note_on,0,0,1,,,,,,,,,,,,,,,0,,,89,57
272480,note_on,160,0,1,,,,,,,,,,,,,,,0,,,77,0
272480,note_on,0,0,1,,,,,,,,,,,,,,,0,,,85,48
272520,note_on,120,0,2,,,,,,,,,,,,,,,0,,,59,0
272520,note_on,0,0,2,,,,,,,,,,,,,,,0,,,47,0
272640,note_on,160,0,1,,,,,,,,,,,,,,,0,,,89,0
272640,note_on,0,0,1,,,,,,,,,,,,,,,0,,,85,0
272640,note_on,0,0,1,,,,,,,,,,,,,,,0,,,85,63
272640,note_on,0,0,1,,,,,,,,,,,,,,,0,,,90,74
272640,set_tempo,240,1,0,,,,,,,,,,,,438725,,,,,,,
272640,note_on,0,0,2,,,,,,,,,,,,,,,0,,,59,76
272640,control_change,0,0,2,,,,,,,,,,,,,,,0,64,0,,
272640,note_on,120,0,2,,,,,,,,,,,,,,,0,,,47,64
272696,control_change,56,0,2,,,,,,,,,,,,,,,0,64,127,,
272800,note_on,0,0,1,,,,,,,,,,,,,,,0,,,85,0
272800,note_on,160,0,1,,,,,,,,,,,,,,,0,,,90,0
272800,note_on,0,0,1,,,,,,,,,,,,,,,0,,,78,59
272880,note_on,0,0,2,,,,,,,,,,,,,,,0,,,46,54
272880,note_on,0,0,2,,,,,,,,,,,,,,,0,,,47,0
272880,note_on,184,0,2,,,,,,,,,,,,,,,0,,,59,0
272880,note_on,0,0,2,,,,,,,,,,,,,,,0,,,58,65
272960,note_on,0,0,1,,,,,,,,,,,,,,,0,,,90,59
272960,note_on,0,0,1,,,,,,,,,,,,,,,0,,,85,50
272960,note_on,160,0,1,,,,,,,,,,,,,,,0,,,78,0
273000,note_on,120,0,2,,,,,,,,,,,,,,,0,,,58,0
273000,note_on,0,0,2,,,,,,,,,,,,,,,0,,,46,0
273103,control_change,103,0,2,,,,,,,,,,,,,,,0,64,0,,
273120,note_on,17,0,2,,,,,,,,,,,,,,,0,,,49,68
273120,set_tempo,480,1,0,,,,,,,,,,,,428571,,,,,,,
273120,note_on,0,0,1,,,,,,,,,,,,,,,0,,,85,0
273120,note_on,160,0,1,,,,,,,,,,,,,,,0,,,90,0
273160,control_change,40,0,2,,,,,,,,,,,,,,,0,64,127,,
273280,note_on,120,0,2,,,,,,,,,,,,,,,0,,,49,0
273280,note_on,0,0,2,,,,,,,,,,,,,,,0,,,54,61
273360,set_tempo,240,1,0,,,,,,,,,,,,442804,,,,,,,
273360,note_on,240,0,1,,,,,,,,,,,,,,,0,,,78,75
273440,note_on,160,0,2,,,,,,,,,,,,,,,0,,,54,0
273440,note_on,0,0,2,,,,,,,,,,,,,,,0,,,58,61
273480,note_on,120,0,1,,,,,,,,,,,,,,,0,,,78,0
273566,control_change,126,0,2,,,,,,,,,,,,,,,0,64,0,,
273600,note_on,0,0,1,,,,,,,,,,,,,,,0,,,68,73
273600,note_on,0,0,1,,,,,,,,,,,,,,,0,,,75,87
273600,note_on,34,0,2,,,,,,,,,,,,,,,0,,,58,0
273600,note_on,0,0,2,,,,,,,,,,,,,,,0,,,47,65
273600,note_on,0,0,2,,,,,,,,,,,,,,,0,,,59,77
273600,note_on,120,0,1,,,,,,,,,,,,,,,0,,,65,73
273600,set_tempo,240,1,0,,,,,,,,,,,,431655,,,,,,,
273658,control_change,58,0,2,,,,,,,,,,,,,,,0,64,127,,
273840,note_on,240,0,1,,,,,,,,,,,,,,,0,,,75,0
273840,set_tempo,240,1,0,,,,,,,,,,,,444444,,,,,,,
273840,note_on,0,0,1,,,,,,,,,,,,,,,0,,,73,76
273960,note_on,120,0,1,,,,,,,,,,,,,,,0,,,73,0
274077,control_change,419,0,2,,,,,,,,,,,,,,,0,64,0,,
274080,set_tempo,240,1,0,,,,,,,,,,,,438725,,,,,,,
274080,note_on,0,0,2,,,,,,,,,,,,,,,0,,,44,59
274080,note_on,0,0,1,,,,,,,,,,,,,,,0,,,71,80
274080,note_on,0,0,1,,,,,,,,,,,,,,,0,,,65,67
274080,note_on,0,0,2,,,,,,,,,,,,,,,0,,,47,0
274080,note_on,0,0,1,,,,,,,,,,,,,,,0,,,65,0
274080,note_on,0,0,2,,,,,,,,,,,,,,,0,,,56,71
274080,note_on,3,0,2,,,,,,,,,,,,,,,0,,,59,0
274080,note_on,120,0,1,,,,,,,,,,,,,,,0,,,68,0
274080,note_on,0,0,1,,,,,,,,,,,,,,,0,,,73,80
274099,control_change,19,0,2,,,,,,,,,,,,,,,0,64,127,,
274200,note_on,120,0,1,,,,,,,,,,,,,,,0,,,73,0
274200,note_on,0,0,1,,,,,,,,,,,,,,,0,,,65,0
274200,note_on,0,0,1,,,,,,,,,,,,,,,0,,,71,0
274320,note_on,0,0,1,,,,,,,,,,,,,,,0,,,73,71
274320,note_on,0,0,1,,,,,,,,,,,,,,,0,,,71,71
274320,note_on,120,0,1,,,,,,,,,,,,,,,0,,,65,59
274320,set_tempo,240,1,0,,,,,,,,,,,,445567,,,,,,,
274440,note_on,120,0,1,,,,,,,,,,,,,,,0,,,73,0
274440,note_on,0,0,1,,,,,,,,,,,,,,,0,,,71,0
274440,note_on,0,0,1,,,,,,,,,,,,,,,0,,,65,0
274560,note_on,0,0,1,,,,,,,,,,,,,,,0,,,70,65
274560,note_on,0,0,1,,,,,,,,,,,,,,,0,,,73,77
274560,note_on,461,0,2,,,,,,,,,,,,,,,0,,,56,0
274560,set_tempo,240,1,0,,,,,,,,,,,,438725,,,,,,,
274560,control_change,0,0,2,,,,,,,,,,,,,,,0,64,0,,
274560,note_on,0,0,2,,,,,,,,,,,,,,,0,,,58,77
274560,note_on,0,0,2,,,,,,,,,,,,,,,0,,,46,65
274560,note_on,120,0,1,,,,,,,,,,,,,,,0,,,66,65
274560,note_on,0,0,2,,,,,,,,,,,,,,,0,,,44,0
274624,control_change,64,0,2,,,,,,,,,,,,,,,0,64,127,,
274800,note_on,240,0,1,,,,,,,,,,,,,,,0,,,73,0
274800,note_on,0,0,1,,,,,,,,,,,,,,,0,,,78,71
275040,note_on,240,0,1,,,,,,,,,,,,,,,0,,,78,0
275040,note_on,416,0,2,,,,,,,,,,,,,,,0,,,58,0
275040,note_on,0,0,1,,,,,,,,,,,,,,,0,,,66,0
275040,note_on,0,0,1,,,,,,,,,,,,,,,0,,,82,80
275040,note_on,0,0,1,,,,,,,,,,,,,,,0,,,70,0
275040,note_on,0,0,2,,,,,,,,,,,,,,,0,,,46,0
275200,note_on,0,0,1,,,,,,,,,,,,,,,0,,,85,60
275200,note_on,160,0,1,,,,,,,,,,,,,,,0,,,82,0
275280,note_on,0,0,2,,,,,,,,,,,,,,,0,,,63,66
275280,note_on,240,0,2,,,,,,,,,,,,,,,0,,,51,55
275280,set_tempo,720,1,0,,,,,,,,,,,,452625,,,,,,,
275360,note_on,0,0,1,,,,,,,,,,,,,,,0,,,90,60
275360,note_on,160,0,1,,,,,,,,,,,,,,,0,,,85,0
275400,note_on,0,0,2,,,,,,,,,,,,,,,0,,,51,0
275400,note_on,120,0,2,,,,,,,,,,,,,,,0,,,63,0
275520,note_on,120,0,2,,,,,,,,,,,,,,,0,,,49,66
275520,control_change,0,0,2,,,,,,,,,,,,,,,0,64,0,,
275520,note_on,0,0,2,,,,,,,,,,,,,,,0,,,61,78
275520,note_on,0,0,1,,,,,,,,,,,,,,,0,,,85,65
275520,note_on,160,0,1,,,,,,,,,,,,,,,0,,,90,0
275520,note_on,0,0,1,,,,,,,,,,,,,,,0,,,92,77
275520,set_tempo,240,1,0,,,,,,,,,,,,432059,,,,,,,
275612,control_change,92,0,2,,,,,,,,,,,,,,,0,64,127,,
275680,note_on,160,0,1,,,,,,,,,,,,,,,0,,,92,0
275680,note_on,0,0,1,,,,,,,,,,,,,,,0,,,85,0
275680,note_on,0,0,1,,,,,,,,,,,,,,,0,,,80,61
275760,note_on,0,0,2,,,,,,,,,,,,,,,0,,,59,65
275760,note_on,0,0,2,,,,,,,,,,,,,,,0,,,47,54
275760,note_on,0,0,2,,,,,,,,,,,,,,,0,,,49,0
275760,note_on,148,0,2,,,,,,,,,,,,,,,0,,,61,0
275840,note_on,160,0,1,,,,,,,,,,,,,,,0,,,80,0
275840,note_on,0,0,1,,,,,,,,,,,,,,,0,,,92,61
275840,note_on,0,0,1,,,,,,,,,,,,,,,0,,,85,51
275880,note_on,0,0,2,,,,,,,,,,,,,,,0,,,47,0
275880,note_on,120,0,2,,,,,,,,,,,,,,,0,,,59,0
275949,control_change,69,0,2,,,,,,,,,,,,,,,0,64,0,,
276000,note_on,51,0,2,,,,,,,,,,,,,,,0,,,47,54
276000,note_on,0,0,2,,,,,,,,,,,,,,,0,,,59,65
276000,set_tempo,480,1,0,,,,,,,,,,,,438725,,,,,,,
276000,note_on,160,0,1,,,,,,,,,,,,,,,0,,,92,0
276000,note_on,0,0,1,,,,,,,,,,,,,,,0,,,85,0
276000,note_on,0,0,1,,,,,,,,,,,,,,,0,,,85,66
276000,note_on,0,0,1,,,,,,,,,,,,,,,0,,,89,78
276034,control_change,34,0,2,,,,,,,,,,,,,,,0,64,127,,
276120,note_on,86,0,2,,,,,,,,,,,,,,,0,,,59,0
276120,note_on,0,0,2,,,,,,,,,,,,,,,0,,,47,0
276160,note_on,0,0,1,,,,,,,,,,,,,,,0,,,77,58
276160,note_on,0,0,1,,,,,,,,,,,,,,,0,,,85,0
276160,note_on,160,0,1,,,,,,,,,,,,,,,0,,,89,0
276240,set_tempo,240,1,0,,,,,,,,,,,,445567,,,,,,,
276240,note_on,0,0,2,,,,,,,,,,,,,,,0,,,59,64
276240,note_on,120,0,2,,,,,,,,,,,,,,,0,,,47,53
276320,note_on,0,0,1,,,,,,,,,,,,,,,0,,,89,57
276320,note_on,0,0,1,,,,,,,,,,,,,,,0,,,85,48
276320,note_on,160,0,1,,,,,,,,,,,,,,,0,,,77,0
276360,note_on,0,0,2,,,,,,,,,,,,,,,0,,,47,0
276360,note_on,120,0,2,,,,,,,,,,,,,,,0,,,59,0
276480,note_on,0,0,1,,,,,,,,,,,,,,,0,,,85,65
276480,note_on,0,0,1,,,,,,,,,,,,,,,0,,,90,77
276480,set_tempo,240,1,0,,,,,,,,,,,,432059,,,,,,,
276480,note_on,0,0,2,,,,,,,,,,,,,,,0,,,59,78
276480,note_on,120,0,2,,,,,,,,,,,,,,,0,,,47,66
276480,note_on,160,0,1,,,,,,,,,,,,,,,0,,,89,0
276480,note_on,0,0,1,,,,,,,,,,,,,,,0,,,85,0
276543,control_change,63,0,2,,,,,,,,,,,,,,,0,64,0,,
276572,control_change,29,0,2,,,,,,,,,,,,,,,0,64,127,,
276640,note_on,160,0,1,,,,,,,,,,,,,,,0,,,90,0
276640,note_on,0,0,1,,,,,,,,,,,,,,,0,,,85,0
276640,note_on,0,0,1,,,,,,,,,,,,,,,0,,,78,61
276720,note_on,148,0,2,,,,,,,,,,,,,,,0,,,59,0
276720,note_on,0,0,2,,,,,,,,,,,,,,,0,,,47,0
276720,note_on,0,0,2,,,,,,,,,,,,,,,0,,,46,54
276720,note_on,0,0,2,,,,,,,,,,,,,,,0,,,58,65
276800,note_on,0,0,1,,,,,,,,,,,,,,,0,,,90,61
276800,note_on,0,0,1,,,,,,,,,,,,,,,0,,,85,51
276800,note_on,160,0,1,,,,,,,,,,,,,,,0,,,78,0
276840,note_on,120,0,2,,,,,,,,,,,,,,,0,,,58,0
276840,note_on,0,0,2,,,,,,,,,,,,,,,0,,,46,0
276960,set_tempo,480,1,0,,,,,,,,,,,,438725,,,,,,,
276960,note_on,0,0,1,,,,,,,,,,,,,,,0,,,85,0
276960,note_on,160,0,1,,,,,,,,,,,,,,,0,,,90,0
276960,note_on,0,0,1,,,,,,,,,,,,,,,0,,,78,66
276960,note_on,0,0,1,,,,,,,,,,,,,,,0,,,85,78
276960,note_on,0,0,2,,,,,,,,,,,,,,,0,,,58,65
276960,control_change,120,0,2,,,,,,,,,,,,,,,0,64,0,,
276960,note_on,0,0,2,,,,,,,,,,,,,,,0,,,46,54
277029,control_change,69,0,2,,,,,,,,,,,,,,,0,64,127,,
277080,note_on,51,0,2,,,,,,,,,,,,,,,0,,,58,0
277080,note_on,0,0,2,,,,,,,,,,,,,,,0,,,46,0
277120,note_on,160,0,1,,,,,,,,,,,,,,,0,,,85,0
277120,note_on,0,0,1,,,,,,,,,,,,,,,0,,,78,0
277120,note_on,0,0,1,,,,,,,,,,,,,,,0,,,73,58
277200,note_on,0,0,2,,,,,,,,,,,,,,,0,,,58,64
277200,note_on,120,0,2,,,,,,,,,,,,,,,0,,,46,53
277200,set_tempo,240,1,0,,,,,,,,,,,,445567,,,,,,,
277280,note_on,0,0,1,,,,,,,,,,,,,,,0,,,85,57
277280,note_on,160,0,1,,,,,,,,,,,,,,,0,,,73,0
277320,note_on,0,0,2,,,,,,,,,,,,,,,0,,,46,0
277320,note_on,120,0,2,,,,,,,,,,,,,,,0,,,58,0
277440,note_on,0,0,1,,,,,,,,,,,,,,,0,,,89,77
277440,set_tempo,240,1,0,,,,,,,,,,,,432059,,,,,,,
277440,note_on,0,0,2,,,,,,,,,,,,,,,0,,,58,78
277440,note_on,120,0,2,,,,,,,,,,,,,,,0,,,46,66
277440,note_on,0,0,1,,,,,,,,,,,,,,,0,,,82,65
277440,note_on,160,0,1,,,,,,,,,,,,,,,0,,,85,0
277480,control_change,40,0,2,,,,,,,,,,,,,,,0,64,0,,
277532,control_change,52,0,2,,,,,,,,,,,,,,,0,64,127,,
277600,note_on,160,0,1,,,,,,,,,,,,,,,0,,,89,0
277600,note_on,0,0,1,,,,,,,,,,,,,,,0,,,82,0
277600,note_on,0,0,1,,,,,,,,,,,,,,,0,,,77,61
277680,note_on,0,0,2,,,,,,,,,,,,,,,0,,,46,0
277680,note_on,0,0,2,,,,,,,,,,,,,,,0,,,56,65
277680,note_on,148,0,2,,,,,,,,,,,,,,,0,,,58,0
277680,note_on,0,0,2,,,,,,,,,,,,,,,0,,,44,54
277760,note_on,0,0,1,,,,,,,,,,,,,,,0,,,82,51
277760,note_on,0,0,1,,,,,,,,,,,,,,,0,,,89,61
277760,note_on,160,0,1,,,,,,,,,,,,,,,0,,,77,0
277800,note_on,120,0,2,,,,,,,,,,,,,,,0,,,56,0
277800,note_on,0,0,2,,,,,,,,,,,,,,,0,,,44,0
277914,control_change,114,0,2,,,,,,,,,,,,,,,0,64,0,,
277920,note_on,6,0,2,,,,,,,,,,,,,,,0,,,44,54
277920,note_on,160,0,1,,,,,,,,,,,,,,,0,,,89,0
277920,note_on,0,0,1,,,,,,,,,,,,,,,0,,,82,0
277920,note_on,0,0,1,,,,,,,,,,,,,,,0,,,82,66
277920,note_on,0,0,1,,,,,,,,,,,,,,,0,,,86,78
277920,note_on,0,0,2,,,,,,,,,,,,,,,0,,,56,65
277920,set_tempo,480,1,0,,,,,,,,,,,,438725,,,,,,,
277977,control_change,57,0,2,,,,,,,,,,,,,,,0,64,127,,
278040,note_on,0,0,2,,,,,,,,,,,,,,,0,,,44,0
278040,note_on,63,0,2,,,,,,,,,,,,,,,0,,,56,0
278080,note_on,0,0,1,,,,,,,,,,,,,,,0,,,82,0
278080,note_on,0,0,1,,,,,,,,,,,,,,,0,,,74,58
278080,note_on,160,0,1,,,,,,,,,,,,,,,0,,,86,0
278160,set_tempo,240,1,0,,,,,,,,,,,,445567,,,,,,,
278160,note_on,120,0,2,,,,,,,,,,,,,,,0,,,44,53
278160,note_on,0,0,2,,,,,,,,,,,,,,,0,,,56,64
278240,note_on,160,0,1,,,,,,,,,,,,,,,0,,,74,0
278240,note_on,0,0,1,,,,,,,,,,,,,,,0,,,82,48
278240,note_on,0,0,1,,,,,,,,,,,,,,,0,,,86,57
278280,note_on,0,0,2,,,,,,,,,,,,,,,0,,,44,0
278280,note_on,120,0,2,,,,,,,,,,,,,,,0,,,56,0
278400,note_on,0,0,1,,,,,,,,,,,,,,,0,,,87,77
278400,note_on,0,0,1,,,,,,,,,,,,,,,0,,,82,65
278400,note_on,0,0,1,,,,,,,,,,,,,,,0,,,82,0
278400,note_on,160,0,1,,,,,,,,,,,,,,,0,,,86,0
278400,note_on,0,0,2,,,,,,,,,,,,,,,0,,,56,78
278400,note_on,120,0,2,,,,,,,,,,,,,,,0,,,44,66
278400,set_tempo,240,1,0,,,,,,,,,,,,432059,,,,,,,
278469,control_change,69,0,2,,,,,,,,,,,,,,,0,64,0,,
278492,control_change,23,0,2,,,,,,,,,,,,,,,0,64,127,,
278560,note_on,160,0,1,,,,,,,,,,,,,,,0,,,87,0
278560,note_on,0,0,1,,,,,,,,,,,,,,,0,,,82,0
278560,note_on,0,0,1,,,,,,,,,,,,,,,0,,,75,61
278640,note_on,0,0,2,,,,,,,,,,,,,,,0,,,42,54
278640,note_on,148,0,2,,,,,,,,,,,,,,,0,,,56,0
278640,note_on,0,0,2,,,,,,,,,,,,,,,0,,,44,0
278640,note_on,0,0,2,,,,,,,,,,,,,,,0,,,54,65
278720,note_on,0,0,1,,,,,,,,,,,,,,,0,,,87,61
278720,note_on,0,0,1,,,,,,,,,,,,,,,0,,,82,51
278720,note_on,160,0,1,,,,,,,,,,,,,,,0,,,75,0
278760,note_on,0,0,2,,,,,,,,,,,,,,,0,,,42,0
278760,note_on,120,0,2,,,,,,,,,,,,,,,0,,,54,0
278863,control_change,103,0,2,,,,,,,,,,,,,,,0,64,0,,
278880,set_tempo,480,1,0,,,,,,,,,,,,438725,,,,,,,
278880,note_on,17,0,2,,,,,,,,,,,,,,,0,,,42,54
278880,note_on,0,0,2,,,,,,,,,,,,,,,0,,,54,65
278880,note_on,0,0,1,,,,,,,,,,,,,,,0,,,75,66
278880,note_on,0,0,1,,,,,,,,,,,,,,,0,,,82,78
278880,note_on,0,0,1,,,,,,,,,,,,,,,0,,,82,0
278880,note_on,160,0,1,,,,,,,,,,,,,,,0,,,87,0
278943,control_change,63,0,2,,,,,,,,,,,,,,,0,64,127,,
279000,note_on,57,0,2,,,,,,,,,,,,,,,0,,,54,0
279000,note_on,0,0,2,,,,,,,,,,,,,,,0,,,42,0
279040,note_on,0,0,1,,,,,,,,,,,,,,,0,,,70,58
279040,note_on,0,0,1,,,,,,,,,,,,,,,0,,,75,0
279040,note_on,160,0,1,,,,,,,,,,,,,,,0,,,82,0
279120,set_tempo,240,1,0,,,,,,,,,,,,445567,,,,,,,
279120,note_on,0,0,2,,,,,,,,,,,,,,,0,,,54,64
279120,note_on,120,0,2,,,,,,,,,,,,,,,0,,,42,53
279200,note_on,160,0,1,,,,,,,,,,,,,,,0,,,70,0
279200,note_on,0,0,1,,,,,,,,,,,,,,,0,,,75,53
279200,note_on,0,0,1,,,,,,,,,,,,,,,0,,,82,57
279240,note_on,120,0,2,,,,,,,,,,,,,,,0,,,54,0
279240,note_on,0,0,2,,,,,,,,,,,,,,,0,,,42,0
279360,control_change,120,0,2,,,,,,,,,,,,,,,0,64,0,,
279360,note_on,0,0,1,,,,,,,,,,,,,,,0,,,75,0
279360,note_on,0,0,2,,,,,,,,,,,,,,,0,,,35,88
279360,note_on,0,0,2,,,,,,,,,,,,,,,0,,,47,103
279360,note_on,160,0,1,,,,,,,,,,,,,,,0,,,82,0
279429,control_change,69,0,2,,,,,,,,,,,,,,,0,64,127,,
279480,note_on,120,0,1,,,,,,,,,,,,,,,0,,,63,72
279600,note_on,120,0,1,,,,,,,,,,,,,,,0,,,63,0
279600,note_on,0,0,1,,,,,,,,,,,,,,,0,,,66,73
279600,set_tempo,480,1,0,,,,,,,,,,,,434783,,,,,,,
279720,note_on,120,0,1,,,,,,,,,,,,,,,0,,,66,0
279720,note_on,0,0,1,,,,,,,,,,,,,,,0,,,71,75
279840,note_on,120,0,1,,,,,,,,,,,,,,,0,,,71,0
279840,note_on,0,0,1,,,,,,,,,,,,,,,0,,,75,76
279960,note_on,120,0,1,,,,,,,,,,,,,,,0,,,75,0
279960,note_on,0,0,1,,,,,,,,,,,,,,,0,,,78,77
280040,set_tempo,440,1,0,,,,,,,,,,,,434783,,,,,,,
280080,note_on,120,0,1,,,,,,,,,,,,,,,0,,,78,0
280080,note_on,0,0,1,,,,,,,,,,,,,,,0,,,83,79
280120,set_tempo,80,1,0,,,,,,,,,,,,436364,,,,,,,
280160,set_tempo,40,1,0,,,,,,,,,,,,437956,,,,,,,
280200,set_tempo,40,1,0,,,,,,,,,,,,439560,,,,,,,
280200,note_on,120,0,1,,,,,,,,,,,,,,,0,,,83,0
280200,note_on,0,0,1,,,,,,,,,,,,,,,0,,,87,80
280240,set_tempo,40,1,0,,,,,,,,,,,,441176,,,,,,,
280280,set_tempo,40,1,0,,,,,,,,,,,,442804,,,,,,,
280320,note_on,120,0,1,,,,,,,,,,,,,,,0,,,87,0
280320,set_tempo,40,1,0,,,,,,,,,,,,444444,,,,,,,
280320,note_on,0,0,1,,,,,,,,,,,,,,,0,,,76,75
280320,note_on,0,0,1,,,,,,,,,,,,,,,0,,,78,75
280320,note_on,0,0,2,,,,,,,,,,,,,,,0,,,47,89
280320,note_on,0,0,2,,,,,,,,,,,,,,,0,,,35,75
280320,note_on,0,0,2,,,,,,,,,,,,,,,0,,,35,0
280320,note_on,891,0,2,,,,,,,,,,,,,,,0,,,47,0
280320,control_change,0,0,2,,,,,,,,,,,,,,,0,64,0,,
280320,note_on,0,0,1,,,,,,,,,,,,,,,0,,,88,89
280376,control_change,56,0,2,,,,,,,,,,,,,,,0,64,127,,
280560,note_on,0,0,2,,,,,,,,,,,,,,,0,,,34,64
280560,note_on,0,0,2,,,,,,,,,,,,,,,0,,,35,0
280560,note_on,184,0,2,,,,,,,,,,,,,,,0,,,47,0
280560,note_on,0,0,2,,,,,,,,,,,,,,,0,,,46,75
280680,note_on,120,0,2,,,,,,,,,,,,,,,0,,,46,0
280680,note_on,0,0,2,,,,,,,,,,,,,,,0,,,34,0
280779,control_change,99,0,2,,,,,,,,,,,,,,,0,64,0,,
280800,note_on,480,0,1,,,,,,,,,,,,,,,0,,,78,0
280800,note_on,0,0,1,,,,,,,,,,,,,,,0,,,76,0
280800,note_on,0,0,1,,,,,,,,,,,,,,,0,,,88,0
280800,note_on,0,0,1,,,,,,,,,,,,,,,0,,,73,69
280800,note_on,0,0,1,,,,,,,,,,,,,,,0,,,78,69
280800,note_on,0,0,2,,,,,,,,,,,,,,,0,,,46,75
280800,note_on,21,0,2,,,,,,,,,,,,,,,0,,,34,64
280800,note_on,0,0,1,,,,,,,,,,,,,,,0,,,85,81
280828,control_change,28,0,2,,,,,,,,,,,,,,,0,64,127,,
280920,note_on,92,0,2,,,,,,,,,,,,,,,0,,,46,0
280920,note_on,0,0,2,,,,,,,,,,,,,,,0,,,34,0
281040,note_on,0,0,2,,,,,,,,,,,,,,,0,,,46,75
281040,note_on,120,0,2,,,,,,,,,,,,,,,0,,,34,64
281160,note_on,120,0,2,,,,,,,,,,,,,,,0,,,46,0
281160,note_on,0,0,2,,,,,,,,,,,,,,,0,,,34,0
281280,control_change,0,0,2,,,,,,,,,,,,,,,0,64,0,,
281280,note_on,480,0,1,,,,,,,,,,,,,,,0,,,73,0
281280,note_on,0,0,1,,,,,,,,,,,,,,,0,,,78,0
281280,note_on,0,0,2,,,,,,,,,,,,,,,0,,,47,103
281280,note_on,120,0,2,,,,,,,,,,,,,,,0,,,35,88
281280,note_on,0,0,1,,,,,,,,,,,,,,,0,,,85,0
281349,control_change,69,0,2,,,,,,,,,,,,,,,0,64,127,,
281400,note_on,120,0,1,,,,,,,,,,,,,,,0,,,63,72
281520,set_tempo,1200,1,0,,,,,,,,,,,,434783,,,,,,,
281520,note_on,0,0,1,,,,,,,,,,,,,,,0,,,66,73
281520,note_on,120,0,1,,,,,,,,,,,,,,,0,,,63,0
281640,note_on,0,0,1,,,,,,,,,,,,,,,0,,,71,75
281640,note_on,120,0,1,,,,,,,,,,,,,,,0,,,66,0
281760,note_on,120,0,1,,,,,,,,,,,,,,,0,,,71,0
281760,note_on,0,0,1,,,,,,,,,,,,,,,0,,,75,76
281880,note_on,0,0,1,,,,,,,,,,,,,,,0,,,78,77
281880,note_on,120,0,1,,,,,,,,,,,,,,,0,,,75,0
281960,set_tempo,440,1,0,,,,,,,,,,,,434783,,,,,,,
282000,note_on,0,0,1,,,,,,,,,,,,,,,0,,,83,79
282000,note_on,120,0,1,,,,,,,,,,,,,,,0,,,78,0
282040,set_tempo,80,1,0,,,,,,,,,,,,436364,,,,,,,
282080,set_tempo,40,1,0,,,,,,,,,,,,437956,,,,,,,
282120,set_tempo,40,1,0,,,,,,,,,,,,439560,,,,,,,
282120,note_on,0,0,1,,,,,,,,,,,,,,,0,,,87,80
282120,note_on,120,0,1,,,,,,,,,,,,,,,0,,,83,0
282160,set_tempo,40,1,0,,,,,,,,,,,,441176,,,,,,,
282200,set_tempo,40,1,0,,,,,,,,,,,,442804,,,,,,,
282240,control_change,0,0,2,,,,,,,,,,,,,,,0,64,0,,
282240,note_on,891,0,2,,,,,,,,,,,,,,,0,,,47,0
282240,note_on,0,0,2,,,,,,,,,,,,,,,0,,,35,75
282240,note_on,120,0,1,,,,,,,,,,,,,,,0,,,87,0
282240,note_on,0,0,1,,,,,,,,,,,,,,,0,,,76,75
282240,note_on,0,0,1,,,,,,,,,,,,,,,0,,,78,75
282240,note_on,0,0,1,,,,,,,,,,,,,,,0,,,88,89
282240,note_on,0,0,2,,,,,,,,,,,,,,,0,,,35,0
282240,note_on,0,0,2,,,,,,,,,,,,,,,0,,,47,89
282240,set_tempo,40,1,0,,,,,,,,,,,,444444,,,,,,,
282296,control_change,56,0,2,,,,,,,,,,,,,,,0,64,127,,
282480,note_on,0,0,2,,,,,,,,,,,,,,,0,,,35,0
282480,note_on,184,0,2,,,,,,,,,,,,,,,0,,,47,0
282480,note_on,0,0,2,,,,,,,,,,,,,,,0,,,46,75
282480,note_on,0,0,2,,,,,,,,,,,,,,,0,,,34,64
282600,note_on,120,0,2,,,,,,,,,,,,,,,0,,,46,0
282600,note_on,0,0,2,,,,,,,,,,,,,,,0,,,34,0
282699,control_change,99,0,2,,,,,,,,,,,,,,,0,64,0,,
282720,note_on,21,0,2,,,,,,,,,,,,,,,0,,,34,64
282720,note_on,0,0,2,,,,,,,,,,,,,,,0,,,46,75
282720,note_on,0,0,1,,,,,,,,,,,,,,,0,,,85,81
282720,note_on,0,0,1,,,,,,,,,,,,,,,0,,,78,69
282720,note_on,0,0,1,,,,,,,,,,,,,,,0,,,73,69
282720,note_on,0,0,1,,,,,,,,,,,,,,,0,,,76,0
282720,note_on,0,0,1,,,,,,,,,,,,,,,0,,,78,0
282720,note_on,480,0,1,,,,,,,,,,,,,,,0,,,88,0
282748,control_change,28,0,2,,,,,,,,,,,,,,,0,64,127,,
282840,note_on,92,0,2,,,,,,,,,,,,,,,0,,,46,0
282840,note_on,0,0,2,,,,,,,,,,,,,,,0,,,34,0
282960,note_on,120,0,2,,,,,,,,,,,,,,,0,,,34,64
282960,note_on,0,0,2,,,,,,,,,,,,,,,0,,,46,75
283080,note_on,120,0,2,,,,,,,,,,,,,,,0,,,46,0
283080,note_on,0,0,2,,,,,,,,,,,,,,,0,,,34,0
283200,note_on,0,0,1,,,,,,,,,,,,,,,0,,,73,0
283200,note_on,0,0,1,,,,,,,,,,,,,,,0,,,85,0
283200,note_on,480,0,1,,,,,,,,,,,,,,,0,,,78,0
283200,note_on,0,0,2,,,,,,,,,,,,,,,0,,,35,88
283200,control_change,0,0,2,,,,,,,,,,,,,,,0,64,0,,
283200,note_on,120,0,2,,,,,,,,,,,,,,,0,,,47,103
283200,control_change,0,0,2,,,,,,,,,,,,,,,0,64,0,,
283269,control_change,69,0,2,,,,,,,,,,,,,,,0,64,127,,
283320,note_on,120,0,1,,,,,,,,,,,,,,,0,,,63,72
283440,note_on,0,0,1,,,,,,,,,,,,,,,0,,,66,73
283440,set_tempo,1200,1,0,,,,,,,,,,,,434783,,,,,,,
283440,note_on,120,0,1,,,,,,,,,,,,,,,0,,,63,0
283560,note_on,0,0,1,,,,,,,,,,,,,,,0,,,71,75
283560,note_on,120,0,1,,,,,,,,,,,,,,,0,,,66,0
283680,note_on,0,0,1,,,,,,,,,,,,,,,0,,,75,76
283680,note_on,120,0,1,,,,,,,,,,,,,,,0,,,71,0
283800,note_on,0,0,1,,,,,,,,,,,,,,,0,,,78,77
283800,note_on,120,0,1,,,,,,,,,,,,,,,0,,,75,0
283880,set_tempo,440,1,0,,,,,,,,,,,,434783,,,,,,,
283920,note_on,120,0,1,,,,,,,,,,,,,,,0,,,78,0
283920,note_on,0,0,1,,,,,,,,,,,,,,,0,,,83,79
283960,set_tempo,80,1,0,,,,,,,,,,,,436364,,,,,,,
284000,set_tempo,40,1,0,,,,,,,,,,,,437956,,,,,,,
284040,set_tempo,40,1,0,,,,,,,,,,,,439560,,,,,,,
284040,note_on,120,0,1,,,,,,,,,,,,,,,0,,,83,0
284040,note_on,0,0,1,,,,,,,,,,,,,,,0,,,87,80
284080,set_tempo,40,1,0,,,,,,,,,,,,441176,,,,,,,
284120,set_tempo,40,1,0,,,,,,,,,,,,442804,,,,,,,
284160,note_on,120,0,1,,,,,,,,,,,,,,,0,,,87,0
284160,note_on,0,0,2,,,,,,,,,,,,,,,0,,,46,89
284160,note_on,0,0,2,,,,,,,,,,,,,,,0,,,47,0
284160,note_on,0,0,2,,,,,,,,,,,,,,,0,,,34,75
284160,note_on,0,0,1,,,,,,,,,,,,,,,0,,,89,89
284160,control_change,0,0,2,,,,,,,,,,,,,,,0,64,0,,
284160,note_on,891,0,2,,,,,,,,,,,,,,,0,,,35,0
284160,set_tempo,40,1,0,,,,,,,,,,,,444444,,,,,,,
284160,note_on,0,0,1,,,,,,,,,,,,,,,0,,,77,64
284216,control_change,56,0,2,,,,,,,,,,,,,,,0,64,127,,
284400,note_on,0,0,1,,,,,,,,,,,,,,,0,,,87,66
284400,note_on,0,0,1,,,,,,,,,,,,,,,0,,,89,0
284400,note_on,240,0,1,,,,,,,,,,,,,,,0,,,77,0
284400,note_on,0,0,1,,,,,,,,,,,,,,,0,,,78,66
284400,note_on,0,0,1,,,,,,,,,,,,,,,0,,,90,78
284520,note_on,120,0,1,,,,,,,,,,,,,,,0,,,90,0
284520,note_on,0,0,1,,,,,,,,,,,,,,,0,,,87,0
284520,note_on,0,0,1,,,,,,,,,,,,,,,0,,,78,0
284619,control_change,403,0,2,,,,,,,,,,,,,,,0,64,0,,
284640,note_on,0,0,2,,,,,,,,,,,,,,,0,,,46,0
284640,note_on,0,0,2,,,,,,,,,,,,,,,0,,,45,75
284640,note_on,0,0,1,,,,,,,,,,,,,,,0,,,90,78
284640,note_on,0,0,1,,,,,,,,,,,,,,,0,,,87,66
284640,note_on,120,0,1,,,,,,,,,,,,,,,0,,,78,66
284640,note_on,0,0,2,,,,,,,,,,,,,,,0,,,33,64
284640,note_on,21,0,2,,,,,,,,,,,,,,,0,,,34,0
284668,control_change,28,0,2,,,,,,,,,,,,,,,0,64,127,,
284760,note_on,0,0,1,,,,,,,,,,,,,,,0,,,87,0
284760,note_on,120,0,1,,,,,,,,,,,,,,,0,,,90,0
284760,note_on,0,0,1,,,,,,,,,,,,,,,0,,,78,0
284880,note_on,120,0,1,,,,,,,,,,,,,,,0,,,78,66
284880,note_on,0,0,1,,,,,,,,,,,,,,,0,,,87,66
284880,note_on,0,0,1,,,,,,,,,,,,,,,0,,,90,78
285000,note_on,120,0,1,,,,,,,,,,,,,,,0,,,90,0
285000,note_on,0,0,1,,,,,,,,,,,,,,,0,,,87,0
285000,note_on,0,0,1,,,,,,,,,,,,,,,0,,,78,0
285120,note_on,452,0,2,,,,,,,,,,,,,,,0,,,33,0
285120,control_change,0,0,2,,,,,,,,,,,,,,,0,64,0,,
285120,note_on,0,0,2,,,,,,,,,,,,,,,0,,,45,0
285120,note_on,0,0,2,,,,,,,,,,,,,,,0,,,34,88
285120,note_on,0,0,2,,,,,,,,,,,,,,,0,,,46,103
285189,control_change,69,0,2,,,,,,,,,,,,,,,0,64,127,,
285240,note_on,240,0,1,,,,,,,,,,,,,,,0,,,62,72
285360,note_on,0,0,1,,,,,,,,,,,,,,,0,,,65,73
285360,set_tempo,1200,1,0,,,,,,,,,,,,434783,,,,,,,
285360,note_on,120,0,1,,,,,,,,,,,,,,,0,,,62,0
285480,note_on,0,0,1,,,,,,,,,,,,,,,0,,,70,74
285480,note_on,120,0,1,,,,,,,,,,,,,,,0,,,65,0
285600,note_on,120,0,1,,,,,,,,,,,,,,,0,,,70,0
285600,note_on,0,0,1,,,,,,,,,,,,,,,0,,,74,75
285720,note_on,120,0,1,,,,,,,,,,,,,,,0,,,74,0
285720,note_on,0,0,1,,,,,,,,,,,,,,,0,,,77,75
285800,set_tempo,440,1,0,,,,,,,,,,,,434783,,,,,,,
285840,note_on,0,0,1,,,,,,,,,,,,,,,0,,,82,77
285840,note_on,120,0,1,,,,,,,,,,,,,,,0,,,77,0
285880,set_tempo,80,1,0,,,,,,,,,,,,436364,,,,,,,
285920,set_tempo,40,1,0,,,,,,,,,,,,437956,,,,,,,
285960,note_on,0,0,1,,,,,,,,,,,,,,,0,,,86,77
285960,note_on,120,0,1,,,,,,,,,,,,,,,0,,,82,0
285960,set_tempo,40,1,0,,,,,,,,,,,,439560,,,,,,,
286000,set_tempo,40,1,0,,,,,,,,,,,,441176,,,,,,,
286040,set_tempo,40,1,0,,,,,,,,,,,,442804,,,,,,,
286080,note_on,0,0,1,,,,,,,,,,,,,,,0,,,77,72
286080,note_on,0,0,1,,,,,,,,,,,,,,,0,,,75,72
286080,note_on,120,0,1,,,,,,,,,,,,,,,0,,,86,0
286080,note_on,0,0,2,,,,,,,,,,,,,,,0,,,46,86
286080,note_on,891,0,2,,,,,,,,,,,,,,,0,,,46,0
286080,note_on,0,0,2,,,,,,,,,,,,,,,0,,,34,72
286080,note_on,0,0,1,,,,,,,,,,,,,,,0,,,87,86
286080,control_change,0,0,2,,,,,,,,,,,,,,,0,64,0,,
286080,note_on,0,0,2,,,,,,,,,,,,,,,0,,,34,0
286080,set_tempo,40,1,0,,,,,,,,,,,,444444,,,,,,,
286136,control_change,56,0,2,,,,,,,,,,,,,,,0,64,127,,
286320,note_on,184,0,2,,,,,,,,,,,,,,,0,,,46,0
286320,note_on,0,0,2,,,,,,,,,,,,,,,0,,,34,0
286320,note_on,0,0,2,,,,,,,,,,,,,,,0,,,33,60
286320,note_on,0,0,2,,,,,,,,,,,,,,,0,,,45,72
286440,note_on,120,0,2,,,,,,,,,,,,,,,0,,,45,0
286440,note_on,0,0,2,,,,,,,,,,,,,,,0,,,33,0
286539,control_change,99,0,2,,,,,,,,,,,,,,,0,64,0,,
286560,note_on,0,0,1,,,,,,,,,,,,,,,0,,,77,65
286560,note_on,480,0,1,,,,,,,,,,,,,,,0,,,87,0
286560,note_on,0,0,1,,,,,,,,,,,,,,,0,,,77,0
286560,note_on,0,0,1,,,,,,,,,,,,,,,0,,,75,0
286560,note_on,0,0,1,,,,,,,,,,,,,,,0,,,72,65
286560,note_on,0,0,2,,,,,,,,,,,,,,,0,,,45,71
286560,note_on,21,0,2,,,,,,,,,,,,,,,0,,,33,59
286560,note_on,0,0,1,,,,,,,,,,,,,,,0,,,84,77
286588,control_change,28,0,2,,,,,,,,,,,,,,,0,64,127,,
286680,note_on,0,0,2,,,,,,,,,,,,,,,0,,,33,0
286680,note_on,92,0,2,,,,,,,,,,,,,,,0,,,45,0
286800,note_on,0,0,2,,,,,,,,,,,,,,,0,,,45,70
286800,note_on,120,0,2,,,,,,,,,,,,,,,0,,,33,59
286920,note_on,120,0,2,,,,,,,,,,,,,,,0,,,45,0
286920,note_on,0,0,2,,,,,,,,,,,,,,,0,,,33,0
287040,control_change,0,0,2,,,,,,,,,,,,,,,0,64,0,,
287040,note_on,0,0,2,,,,,,,,,,,,,,,0,,,46,96
287040,note_on,480,0,1,,,,,,,,,,,,,,,0,,,77,0
287040,note_on,0,0,1,,,,,,,,,,,,,,,0,,,84,0
287040,note_on,0,0,1,,,,,,,,,,,,,,,0,,,72,0
287040,note_on,120,0,2,,,,,,,,,,,,,,,0,,,34,81
287109,control_change,69,0,2,,,,,,,,,,,,,,,0,64,127,,
287160,note_on,120,0,1,,,,,,,,,,,,,,,0,,,62,67
287280,set_tempo,1200,1,0,,,,,,,,,,,,434783,,,,,,,
287280,note_on,120,0,1,,,,,,,,,,,,,,,0,,,62,0
287280,note_on,0,0,1,,,,,,,,,,,,,,,0,,,65,67
287400,note_on,120,0,1,,,,,,,,,,,,,,,0,,,65,0
287400,note_on,0,0,1,,,,,,,,,,,,,,,0,,,70,69
287520,note_on,120,0,1,,,,,,,,,,,,,,,0,,,70,0
287520,note_on,0,0,1,,,,,,,,,,,,,,,0,,,74,69
287640,note_on,0,0,1,,,,,,,,,,,,,,,0,,,77,70
287640,note_on,120,0,1,,,,,,,,,,,,,,,0,,,74,0
287720,set_tempo,440,1,0,,,,,,,,,,,,434783,,,,,,,
287760,note_on,0,0,1,,,,,,,,,,,,,,,0,,,82,71
287760,note_on,120,0,1,,,,,,,,,,,,,,,0,,,77,0
287800,set_tempo,80,1,0,,,,,,,,,,,,436364,,,,,,,
287840,set_tempo,40,1,0,,,,,,,,,,,,437956,,,,,,,
287880,set_tempo,40,1,0,,,,,,,,,,,,439560,,,,,,,
287880,note_on,0,0,1,,,,,,,,,,,,,,,0,,,86,72
287880,note_on,120,0,1,,,,,,,,,,,,,,,0,,,82,0
287920,set_tempo,40,1,0,,,,,,,,,,,,441176,,,,,,,
287960,set_tempo,40,1,0,,,,,,,,,,,,442804,,,,,,,
288000,note_on,0,0,1,,,,,,,,,,,,,,,0,,,77,67
288000,note_on,0,0,1,,,,,,,,,,,,,,,0,,,75,67
288000,note_on,120,0,1,,,,,,,,,,,,,,,0,,,86,0
288000,note_on,0,0,1,,,,,,,,,,,,,,,0,,,87,78
288000,control_change,0,0,2,,,,,,,,,,,,,,,0,64,0,,
288000,set_tempo,40,1,0,,,,,,,,,,,,444444,,,,,,,
288000,note_on,891,0,2,,,,,,,,,,,,,,,0,,,46,0
288000,note_on,0,0,2,,,,,,,,,,,,,,,0,,,34,0
288000,note_on,0,0,2,,,,,,,,,,,,,,,0,,,34,67
288000,note_on,0,0,2,,,,,,,,,,,,,,,0,,,46,78
288056,control_change,56,0,2,,,,,,,,,,,,,,,0,64,127,,
288240,note_on,184,0,2,,,,,,,,,,,,,,,0,,,46,0
288240,note_on,0,0,2,,,,,,,,,,,,,,,0,,,34,0
288240,note_on,0,0,2,,,,,,,,,,,,,,,0,,,45,66
288240,note_on,0,0,2,,,,,,,,,,,,,,,0,,,33,55
288360,note_on,0,0,2,,,,,,,,,,,,,,,0,,,33,0
288360,note_on,120,0,2,,,,,,,,,,,,,,,0,,,45,0
288459,control_change,99,0,2,,,,,,,,,,,,,,,0,64,0,,
288480,note_on,0,0,2,,,,,,,,,,,,,,,0,,,45,65
288480,note_on,21,0,2,,,,,,,,,,,,,,,0,,,33,55
288480,note_on,480,0,1,,,,,,,,,,,,,,,0,,,87,0
288480,note_on,0,0,1,,,,,,,,,,,,,,,0,,,77,59
288480,note_on,0,0,1,,,,,,,,,,,,,,,0,,,84,70
288480,note_on,0,0,1,,,,,,,,,,,,,,,0,,,72,59
288480,note_on,0,0,1,,,,,,,,,,,,,,,0,,,75,0
288480,note_on,0,0,1,,,,,,,,,,,,,,,0,,,77,0
288508,control_change,28,0,2,,,,,,,,,,,,,,,0,64,127,,
288600,note_on,92,0,2,,,,,,,,,,,,,,,0,,,45,0
288600,note_on,0,0,2,,,,,,,,,,,,,,,0,,,33,0
288720,note_on,120,0,2,,,,,,,,,,,,,,,0,,,33,54
288720,note_on,0,0,2,,,,,,,,,,,,,,,0,,,45,64
288840,note_on,120,0,2,,,,,,,,,,,,,,,0,,,45,0
288840,note_on,0,0,2,,,,,,,,,,,,,,,0,,,33,0
288960,note_on,0,0,1,,,,,,,,,,,,,,,0,,,84,0
288960,note_on,0,0,1,,,,,,,,,,,,,,,0,,,72,0
288960,note_on,120,0,2,,,,,,,,,,,,,,,0,,,34,74
288960,control_change,0,0,2,,,,,,,,,,,,,,,0,64,0,,
288960,note_on,0,0,2,,,,,,,,,,,,,,,0,,,46,88
288960,note_on,480,0,1,,,,,,,,,,,,,,,0,,,77,0
289029,control_change,69,0,2,,,,,,,,,,,,,,,0,64,127,,
289080,note_on,120,0,1,,,,,,,,,,,,,,,0,,,62,60
289200,note_on,120,0,1,,,,,,,,,,,,,,,0,,,62,0
289200,note_on,0,0,1,,,,,,,,,,,,,,,0,,,65,61
289200,set_tempo,1200,1,0,,,,,,,,,,,,434783,,,,,,,
289320,note_on,120,0,1,,,,,,,,,,,,,,,0,,,65,0
289320,note_on,0,0,1,,,,,,,,,,,,,,,0,,,70,63
289440,note_on,120,0,1,,,,,,,,,,,,,,,0,,,70,0
289440,note_on,0,0,1,,,,,,,,,,,,,,,0,,,74,64
289560,note_on,120,0,1,,,,,,,,,,,,,,,0,,,74,0
289560,note_on,0,0,1,,,,,,,,,,,,,,,0,,,77,64
289640,set_tempo,440,1,0,,,,,,,,,,,,434783,,,,,,,
289680,note_on,120,0,1,,,,,,,,,,,,,,,0,,,77,0
289680,note_on,0,0,1,,,,,,,,,,,,,,,0,,,82,66
289720,set_tempo,80,1,0,,,,,,,,,,,,436364,,,,,,,
289760,set_tempo,40,1,0,,,,,,,,,,,,437956,,,,,,,
289800,note_on,120,0,1,,,,,,,,,,,,,,,0,,,82,0
289800,note_on,0,0,1,,,,,,,,,,,,,,,0,,,86,66
289800,set_tempo,40,1,0,,,,,,,,,,,,439560,,,,,,,
289840,set_tempo,40,1,0,,,,,,,,,,,,441176,,,,,,,
289880,set_tempo,40,1,0,,,,,,,,,,,,442804,,,,,,,
289920,note_on,891,0,2,,,,,,,,,,,,,,,0,,,46,0
289920,note_on,0,0,2,,,,,,,,,,,,,,,0,,,34,0
289920,note_on,0,0,1,,,,,,,,,,,,,,,0,,,77,61
289920,set_tempo,40,1,0,,,,,,,,,,,,444444,,,,,,,
289920,note_on,120,0,1,,,,,,,,,,,,,,,0,,,86,0
289920,note_on,0,0,2,,,,,,,,,,,,,,,0,,,46,72
289920,control_change,0,0,2,,,,,,,,,,,,,,,0,64,0,,
289920,note_on,0,0,1,,,,,,,,,,,,,,,0,,,87,72
289920,note_on,0,0,1,,,,,,,,,,,,,,,0,,,75,61
289920,note_on,0,0,2,,,,,,,,,,,,,,,0,,,34,61
289976,control_change,56,0,2,,,,,,,,,,,,,,,0,64,127,,
290160,note_on,0,0,2,,,,,,,,,,,,,,,0,,,45,60
290160,note_on,0,0,2,,,,,,,,,,,,,,,0,,,33,51
290160,note_on,0,0,2,,,,,,,,,,,,,,,0,,,34,0
290160,note_on,184,0,2,,,,,,,,,,,,,,,0,,,46,0
290280,note_on,0,0,2,,,,,,,,,,,,,,,0,,,33,0
290280,note_on,120,0,2,,,,,,,,,,,,,,,0,,,45,0
290379,control_change,99,0,2,,,,,,,,,,,,,,,0,64,0,,
290400,note_on,0,0,2,,,,,,,,,,,,,,,0,,,45,59
290400,note_on,21,0,2,,,,,,,,,,,,,,,0,,,33,50
290400,note_on,480,0,1,,,,,,,,,,,,,,,0,,,87,0
290400,note_on,0,0,1,,,,,,,,,,,,,,,0,,,77,0
290400,note_on,0,0,1,,,,,,,,,,,,,,,0,,,75,0
290400,note_on,0,0,1,,,,,,,,,,,,,,,0,,,72,54
290400,note_on,0,0,1,,,,,,,,,,,,,,,0,,,84,65
290400,note_on,0,0,1,,,,,,,,,,,,,,,0,,,77,54
290428,control_change,28,0,2,,,,,,,,,,,,,,,0,64,127,,
290520,note_on,0,0,2,,,,,,,,,,,,,,,0,,,33,0
290520,note_on,92,0,2,,,,,,,,,,,,,,,0,,,45,0
290640,note_on,0,0,2,,,,,,,,,,,,,,,0,,,45,58
290640,note_on,120,0,2,,,,,,,,,,,,,,,0,,,33,50
290760,note_on,120,0,2,,,,,,,,,,,,,,,0,,,45,0
290760,note_on,0,0,2,,,,,,,,,,,,,,,0,,,33,0
290880,control_change,0,0,2,,,,,,,,,,,,,,,0,64,0,,
290880,control_change,0,0,2,,,,,,,,,,,,,,,0,64,0,,
290880,note_on,0,0,1,,,,,,,,,,,,,,,0,,,72,0
290880,note_on,0,0,1,,,,,,,,,,,,,,,0,,,84,0
290880,note_on,480,0,1,,,,,,,,,,,,,,,0,,,77,0
290880,note_on,0,0,2,,,,,,,,,,,,,,,0,,,34,68
290880,note_on,120,0,2,,,,,,,,,,,,,,,0,,,46,80
290949,control_change,69,0,2,,,,,,,,,,,,,,,0,64,127,,
291000,note_on,120,0,1,,,,,,,,,,,,,,,0,,,62,55
291120,note_on,120,0,1,,,,,,,,,,,,,,,0,,,62,0
291120,note_on,0,0,1,,,,,,,,,,,,,,,0,,,65,55
291120,set_tempo,1200,1,0,,,,,,,,,,,,434783,,,,,,,
291240,note_on,120,0,1,,,,,,,,,,,,,,,0,,,65,0
291240,note_on,0,0,1,,,,,,,,,,,,,,,0,,,70,57
291360,note_on,120,0,1,,,,,,,,,,,,,,,0,,,70,0
291360,note_on,0,0,1,,,,,,,,,,,,,,,0,,,74,57
291480,note_on,120,0,1,,,,,,,,,,,,,,,0,,,74,0
291480,note_on,0,0,1,,,,,,,,,,,,,,,0,,,77,58
291560,set_tempo,440,1,0,,,,,,,,,,,,434783,,,,,,,
291600,note_on,120,0,1,,,,,,,,,,,,,,,0,,,77,0
291600,note_on,651,0,2,,,,,,,,,,,,,,,0,,,34,0
291600,note_on,0,0,2,,,,,,,,,,,,,,,0,,,46,0
291600,note_on,0,0,2,,,,,,,,,,,,,,,0,,,34,66
291600,note_on,0,0,2,,,,,,,,,,,,,,,0,,,46,77
291600,note_on,0,0,1,,,,,,,,,,,,,,,0,,,82,59
291640,set_tempo,80,1,0,,,,,,,,,,,,436364,,,,,,,
291680,set_tempo,40,1,0,,,,,,,,,,,,437956,,,,,,,
291720,note_on,0,0,1,,,,,,,,,,,,,,,0,,,86,59
291720,note_on,120,0,1,,,,,,,,,,,,,,,0,,,82,0
291720,set_tempo,40,1,0,,,,,,,,,,,,439560,,,,,,,
291760,set_tempo,40,1,0,,,,,,,,,,,,441176,,,,,,,
291800,set_tempo,40,1,0,,,,,,,,,,,,442804,,,,,,,
291840,note_on,0,0,2,,,,,,,,,,,,,,,0,,,34,0
291840,set_tempo,40,1,0,,,,,,,,,,,,444444,,,,,,,
291840,note_on,0,0,1,,,,,,,,,,,,,,,0,,,76,47
291840,note_on,0,0,1,,,,,,,,,,,,,,,0,,,88,65
291840,note_on,120,0,1,,,,,,,,,,,,,,,0,,,86,0
291840,note_on,240,0,2,,,,,,,,,,,,,,,0,,,46,0
291840,control_change,0,0,2,,,,,,,,,,,,,,,0,64,0,,
291840,note_on,0,0,2,,,,,,,,,,,,,,,0,,,45,65
291840,note_on,0,0,2,,,,,,,,,,,,,,,0,,,33,55
291896,control_change,56,0,2,,,,,,,,,,,,,,,0,64,127,,
292080,note_on,0,0,1,,,,,,,,,,,,,,,0,,,89,56
292080,note_on,240,0,1,,,,,,,,,,,,,,,0,,,76,0
292080,note_on,0,0,1,,,,,,,,,,,,,,,0,,,88,0
292080,note_on,0,0,1,,,,,,,,,,,,,,,0,,,77,47
292080,note_on,0,0,1,,,,,,,,,,,,,,,0,,,86,47
292200,note_on,0,0,1,,,,,,,,,,,,,,,0,,,86,0
292200,note_on,0,0,1,,,,,,,,,,,,,,,0,,,77,0
292200,note_on,120,0,1,,,,,,,,,,,,,,,0,,,89,0
292299,control_change,403,0,2,,,,,,,,,,,,,,,0,64,0,,
292320,note_on,0,0,2,,,,,,,,,,,,,,,0,,,45,0
292320,note_on,0,0,2,,,,,,,,,,,,,,,0,,,44,53
292320,note_on,0,0,2,,,,,,,,,,,,,,,0,,,32,45
292320,note_on,21,0,2,,,,,,,,,,,,,,,0,,,33,0
292320,note_on,120,0,1,,,,,,,,,,,,,,,0,,,77,47
292320,note_on,0,0,1,,,,,,,,,,,,,,,0,,,86,47
292320,note_on,0,0,1,,,,,,,,,,,,,,,0,,,89,56
292348,control_change,28,0,2,,,,,,,,,,,,,,,0,64,127,,
292440,note_on,120,0,1,,,,,,,,,,,,,,,0,,,89,0
292440,note_on,0,0,1,,,,,,,,,,,,,,,0,,,86,0
292440,note_on,0,0,1,,,,,,,,,,,,,,,0,,,77,0
292560,note_on,0,0,1,,,,,,,,,,,,,,,0,,,89,55
292560,note_on,0,0,1,,,,,,,,,,,,,,,0,,,86,46
292560,note_on,120,0,1,,,,,,,,,,,,,,,0,,,77,46
292680,note_on,0,0,1,,,,,,,,,,,,,,,0,,,86,0
292680,note_on,120,0,1,,,,,,,,,,,,,,,0,,,89,0
292680,note_on,0,0,1,,,,,,,,,,,,,,,0,,,77,0
292800,control_change,0,0,2,,,,,,,,,,,,,,,0,64,0,,
292800,note_on,452,0,2,,,,,,,,,,,,,,,0,,,32,0
292800,note_on,0,0,2,,,,,,,,,,,,,,,0,,,44,0
292800,note_on,0,0,2,,,,,,,,,,,,,,,0,,,45,68
292800,note_on,0,0,2,,,,,,,,,,,,,,,0,,,33,57
292800,control_change,0,0,2,,,,,,,,,,,,,,,0,64,0,,
292869,control_change,69,0,2,,,,,,,,,,,,,,,0,64,127,,
292920,note_on,240,0,1,,,,,,,,,,,,,,,0,,,61,50
293040,note_on,120,0,1,,,,,,,,,,,,,,,0,,,61,0
293040,note_on,0,0,1,,,,,,,,,,,,,,,0,,,64,51
293040,set_tempo,1200,1,0,,,,,,,,,,,,434783,,,,,,,
293160,note_on,120,0,1,,,,,,,,,,,,,,,0,,,64,0
293160,note_on,0,0,1,,,,,,,,,,,,,,,0,,,69,52
293280,note_on,120,0,1,,,,,,,,,,,,,,,0,,,69,0
293280,note_on,0,0,1,,,,,,,,,,,,,,,0,,,73,53
293400,note_on,0,0,1,,,,,,,,,,,,,,,0,,,76,53
293400,note_on,120,0,1,,,,,,,,,,,,,,,0,,,73,0
293480,set_tempo,440,1,0,,,,,,,,,,,,434783,,,,,,,
293520,note_on,0,0,1,,,,,,,,,,,,,,,0,,,81,55
293520,note_on,651,0,2,,,,,,,,,,,,,,,0,,,33,0
293520,note_on,0,0,2,,,,,,,,,,,,,,,0,,,45,0
293520,note_on,0,0,2,,,,,,,,,,,,,,,0,,,33,56
293520,note_on,0,0,2,,,,,,,,,,,,,,,0,,,45,56
293520,note_on,120,0,1,,,,,,,,,,,,,,,0,,,76,0
293560,set_tempo,80,1,0,,,,,,,,,,,,436364,,,,,,,
293600,set_tempo,40,1,0,,,,,,,,,,,,437956,,,,,,,
293640,note_on,0,0,1,,,,,,,,,,,,,,,0,,,85,55
293640,note_on,120,0,1,,,,,,,,,,,,,,,0,,,81,0
293640,set_tempo,40,1,0,,,,,,,,,,,,439560,,,,,,,
293680,set_tempo,40,1,0,,,,,,,,,,,,441176,,,,,,,
293720,set_tempo,40,1,0,,,,,,,,,,,,442804,,,,,,,
293760,set_tempo,40,1,0,,,,,,,,,,,,444444,,,,,,,
293760,note_on,0,0,1,,,,,,,,,,,,,,,0,,,86,61
293760,note_on,120,0,1,,,,,,,,,,,,,,,0,,,85,0
293760,control_change,0,0,2,,,,,,,,,,,,,,,0,64,0,,
293760,note_on,0,0,2,,,,,,,,,,,,,,,0,,,31,49
293760,note_on,0,0,2,,,,,,,,,,,,,,,0,,,43,58
293760,note_on,0,0,2,,,,,,,,,,,,,,,0,,,33,0
293760,note_on,240,0,2,,,,,,,,,,,,,,,0,,,45,0
293760,note_on,0,0,1,,,,,,,,,,,,,,,0,,,74,44
293816,control_change,56,0,2,,,,,,,,,,,,,,,0,64,127,,
294000,note_on,0,0,1,,,,,,,,,,,,,,,0,,,86,0
294000,note_on,0,0,1,,,,,,,,,,,,,,,0,,,87,54
294000,note_on,240,0,1,,,,,,,,,,,,,,,0,,,74,0
294000,note_on,0,0,1,,,,,,,,,,,,,,,0,,,84,46
294000,note_on,0,0,1,,,,,,,,,,,,,,,0,,,75,46
294120,note_on,120,0,1,,,,,,,,,,,,,,,0,,,87,0
294120,note_on,0,0,1,,,,,,,,,,,,,,,0,,,75,0
294120,note_on,0,0,1,,,,,,,,,,,,,,,0,,,84,0
294219,control_change,403,0,2,,,,,,,,,,,,,,,0,64,0,,
294240,note_on,0,0,1,,,,,,,,,,,,,,,0,,,87,54
294240,note_on,0,0,2,,,,,,,,,,,,,,,0,,,30,40
294240,note_on,0,0,2,,,,,,,,,,,,,,,0,,,42,49
294240,note_on,0,0,2,,,,,,,,,,,,,,,0,,,43,0
294240,note_on,21,0,2,,,,,,,,,,,,,,,0,,,31,0
294240,note_on,120,0,1,,,,,,,,,,,,,,,0,,,75,46
294240,note_on,0,0,1,,,,,,,,,,,,,,,0,,,84,46
294268,control_change,28,0,2,,,,,,,,,,,,,,,0,64,127,,
294360,note_on,120,0,1,,,,,,,,,,,,,,,0,,,87,0
294360,note_on,0,0,1,,,,,,,,,,,,,,,0,,,84,0
294360,note_on,0,0,1,,,,,,,,,,,,,,,0,,,75,0
294480,note_on,0,0,1,,,,,,,,,,,,,,,0,,,84,46
294480,note_on,0,0,1,,,,,,,,,,,,,,,0,,,87,54
294480,note_on,120,0,1,,,,,,,,,,,,,,,0,,,75,46
294600,note_on,120,0,1,,,,,,,,,,,,,,,0,,,87,0
294600,note_on,0,0,1,,,,,,,,,,,,,,,0,,,84,0
294600,note_on,0,0,1,,,,,,,,,,,,,,,0,,,75,0
294720,note_on,0,0,2,,,,,,,,,,,,,,,0,,,43,68
294720,note_on,0,0,2,,,,,,,,,,,,,,,0,,,31,57
294720,control_change,0,0,2,,,,,,,,,,,,,,,0,64,0,,
294720,note_on,0,0,2,,,,,,,,,,,,,,,0,,,42,0
294720,note_on,452,0,2,,,,,,,,,,,,,,,0,,,30,0
294789,control_change,69,0,2,,,,,,,,,,,,,,,0,64,127,,
294840,note_on,240,0,1,,,,,,,,,,,,,,,0,,,59,50
294960,note_on,120,0,1,,,,,,,,,,,,,,,0,,,59,0
294960,set_tempo,1200,1,0,,,,,,,,,,,,434783,,,,,,,
294960,note_on,0,0,1,,,,,,,,,,,,,,,0,,,62,51
295080,note_on,0,0,1,,,,,,,,,,,,,,,0,,,67,52
295080,note_on,120,0,1,,,,,,,,,,,,,,,0,,,62,0
295200,note_on,120,0,1,,,,,,,,,,,,,,,0,,,67,0
295200,note_on,0,0,1,,,,,,,,,,,,,,,0,,,71,53
295320,note_on,120,0,1,,,,,,,,,,,,,,,0,,,71,0
295320,note_on,0,0,1,,,,,,,,,,,,,,,0,,,74,53
295400,set_tempo,440,1,0,,,,,,,,,,,,434783,,,,,,,
295440,note_on,0,0,1,,,,,,,,,,,,,,,0,,,79,55
295440,note_on,120,0,1,,,,,,,,,,,,,,,0,,,74,0
295480,set_tempo,80,1,0,,,,,,,,,,,,436364,,,,,,,
295520,set_tempo,40,1,0,,,,,,,,,,,,437956,,,,,,,
295560,set_tempo,40,1,0,,,,,,,,,,,,439560,,,,,,,
295560,note_on,0,0,1,,,,,,,,,,,,,,,0,,,83,55
295560,note_on,120,0,1,,,,,,,,,,,,,,,0,,,79,0
295600,set_tempo,40,1,0,,,,,,,,,,,,441176,,,,,,,
295640,set_tempo,40,1,0,,,,,,,,,,,,442804,,,,,,,
295680,note_on,0,0,1,,,,,,,,,,,,,,,0,,,86,61
295680,note_on,0,0,1,,,,,,,,,,,,,,,0,,,78,52
295680,control_change,0,0,2,,,,,,,,,,,,,,,0,64,0,,
295680,note_on,0,0,2,,,,,,,,,,,,,,,0,,,43,58
295680,set_tempo,40,1,0,,,,,,,,,,,,444444,,,,,,,
295680,note_on,0,0,2,,,,,,,,,,,,,,,0,,,31,0
295680,note_on,0,0,2,,,,,,,,,,,,,,,0,,,31,49
295680,note_on,120,0,1,,,,,,,,,,,,,,,0,,,83,0
295680,note_on,0,0,1,,,,,,,,,,,,,,,0,,,74,52
295680,note_on,891,0,2,,,,,,,,,,,,,,,0,,,43,0
295736,control_change,56,0,2,,,,,,,,,,,,,,,0,64,127,,
295920,note_on,0,0,2,,,,,,,,,,,,,,,0,,,44,49
295920,note_on,0,0,2,,,,,,,,,,,,,,,0,,,31,0
295920,note_on,184,0,2,,,,,,,,,,,,,,,0,,,43,0
295920,note_on,0,0,2,,,,,,,,,,,,,,,0,,,32,40
296040,note_on,120,0,2,,,,,,,,,,,,,,,0,,,44,0
296040,note_on,0,0,2,,,,,,,,,,,,,,,0,,,32,0
296139,control_change,99,0,2,,,,,,,,,,,,,,,0,64,0,,
296160,note_on,480,0,1,,,,,,,,,,,,,,,0,,,86,0
296160,note_on,0,0,1,,,,,,,,,,,,,,,0,,,78,0
296160,note_on,0,0,1,,,,,,,,,,,,,,,0,,,74,0
296160,note_on,0,0,1,,,,,,,,,,,,,,,0,,,78,48
296160,note_on,0,0,1,,,,,,,,,,,,,,,0,,,84,56
296160,note_on,21,0,2,,,,,,,,,,,,,,,0,,,32,40
296160,note_on,0,0,1,,,,,,,,,,,,,,,0,,,72,48
296160,note_on,0,0,2,,,,,,,,,,,,,,,0,,,44,49
296188,control_change,28,0,2,,,,,,,,,,,,,,,0,64,127,,
296280,note_on,0,0,2,,,,,,,,,,,,,,,0,,,32,0
296280,note_on,92,0,2,,,,,,,,,,,,,,,0,,,44,0
296400,note_on,0,0,2,,,,,,,,,,,,,,,0,,,44,49
296400,note_on,120,0,2,,,,,,,,,,,,,,,0,,,32,40
296520,note_on,120,0,2,,,,,,,,,,,,,,,0,,,44,0
296520,note_on,0,0,2,,,,,,,,,,,,,,,0,,,32,0
296640,note_on,0,0,2,,,,,,,,,,,,,,,0,,,43,68
296640,control_change,0,0,2,,,,,,,,,,,,,,,0,64,0,,
296640,note_on,120,0,2,,,,,,,,,,,,,,,0,,,31,57
296640,note_on,0,0,1,,,,,,,,,,,,,,,0,,,72,0
296640,note_on,480,0,1,,,,,,,,,,,,,,,0,,,78,0
296640,note_on,0,0,1,,,,,,,,,,,,,,,0,,,84,0
296709,control_change,69,0,2,,,,,,,,,,,,,,,0,64,127,,
296760,note_on,120,0,1,,,,,,,,,,,,,,,0,,,59,49
296880,set_tempo,1200,1,0,,,,,,,,,,,,434783,,,,,,,
296880,note_on,120,0,1,,,,,,,,,,,,,,,0,,,59,0
296880,note_on,0,0,1,,,,,,,,,,,,,,,0,,,62,48
297000,note_on,120,0,1,,,,,,,,,,,,,,,0,,,62,0
297000,note_on,0,0,1,,,,,,,,,,,,,,,0,,,67,48
297120,note_on,0,0,1,,,,,,,,,,,,,,,0,,,71,47
297120,note_on,120,0,1,,,,,,,,,,,,,,,0,,,67,0
297240,note_on,0,0,1,,,,,,,,,,,,,,,0,,,74,46
297240,note_on,120,0,1,,,,,,,,,,,,,,,0,,,71,0
297280,set_tempo,400,1,0,,,,,,,,,,,,436364,,,,,,,
297320,set_tempo,40,1,0,,,,,,,,,,,,437956,,,,,,,
297360,note_on,120,0,1,,,,,,,,,,,,,,,0,,,74,0
297360,note_on,0,0,1,,,,,,,,,,,,,,,0,,,79,47
297360,set_tempo,40,1,0,,,,,,,,,,,,439560,,,,,,,
297400,set_tempo,40,1,0,,,,,,,,,,,,442804,,,,,,,
297440,set_tempo,40,1,0,,,,,,,,,,,,444444,,,,,,,
297480,set_tempo,40,1,0,,,,,,,,,,,,447761,,,,,,,
297480,note_on,120,0,1,,,,,,,,,,,,,,,0,,,79,0
297480,note_on,0,0,1,,,,,,,,,,,,,,,0,,,83,45
297520,set_tempo,40,1,0,,,,,,,,,,,,449438,,,,,,,
297560,set_tempo,40,1,0,,,,,,,,,,,,452830,,,,,,,
297600,control_change,0,0,2,,,,,,,,,,,,,,,0,64,0,,
297600,note_on,0,0,2,,,,,,,,,,,,,,,0,,,43,46
297600,note_on,0,0,2,,,,,,,,,,,,,,,0,,,31,38
297600,note_on,891,0,2,,,,,,,,,,,,,,,0,,,43,0
297600,note_on,0,0,1,,,,,,,,,,,,,,,0,,,86,49
297600,note_on,120,0,1,,,,,,,,,,,,,,,0,,,83,0
297600,note_on,0,0,1,,,,,,,,,,,,,,,0,,,74,42
297600,note_on,0,0,1,,,,,,,,,,,,,,,0,,,78,42
297600,set_tempo,40,1,0,,,,,,,,,,,,461538,,,,,,,
297600,note_on,0,0,2,,,,,,,,,,,,,,,0,,,31,0
297656,control_change,56,0,2,,,,,,,,,,,,,,,0,64,127,,
297680,set_tempo,80,1,0,,,,,,,,,,,,463320,,,,,,,
297720,set_tempo,40,1,0,,,,,,,,,,,,465116,,,,,,,
297800,set_tempo,80,1,0,,,,,,,,,,,,466926,,,,,,,
297840,set_tempo,40,1,0,,,,,,,,,,,,468750,,,,,,,
297840,note_on,0,0,2,,,,,,,,,,,,,,,0,,,44,38
297840,note_on,0,0,2,,,,,,,,,,,,,,,0,,,32,32
297840,note_on,0,0,2,,,,,,,,,,,,,,,0,,,31,0
297840,note_on,184,0,2,,,,,,,,,,,,,,,0,,,43,0
297920,set_tempo,80,1,0,,,,,,,,,,,,470588,,,,,,,
297960,note_on,0,0,2,,,,,,,,,,,,,,,0,,,32,0
297960,set_tempo,40,1,0,,,,,,,,,,,,472441,,,,,,,
297960,note_on,120,0,2,,,,,,,,,,,,,,,0,,,44,0
298000,set_tempo,40,1,0,,,,,,,,,,,,474308,,,,,,,
298059,control_change,99,0,2,,,,,,,,,,,,,,,0,64,0,,
298080,note_on,0,0,2,,,,,,,,,,,,,,,0,,,44,38
298080,note_on,21,0,2,,,,,,,,,,,,,,,0,,,32,32
298080,note_on,0,0,1,,,,,,,,,,,,,,,0,,,78,0
298080,note_on,0,0,1,,,,,,,,,,,,,,,0,,,74,0
298080,note_on,0,0,1,,,,,,,,,,,,,,,0,,,72,37
298080,note_on,0,0,1,,,,,,,,,,,,,,,0,,,84,45
298080,note_on,0,0,1,,,,,,,,,,,,,,,0,,,78,37
298080,note_on,480,0,1,,,,,,,,,,,,,,,0,,,86,0
298080,set_tempo,80,1,0,,,,,,,,,,,,476190,,,,,,,
298108,control_change,28,0,2,,,,,,,,,,,,,,,0,64,127,,
298120,set_tempo,40,1,0,,,,,,,,,,,,478088,,,,,,,
298200,set_tempo,80,1,0,,,,,,,,,,,,480000,,,,,,,
298200,note_on,0,0,2,,,,,,,,,,,,,,,0,,,32,0
298200,note_on,92,0,2,,,,,,,,,,,,,,,0,,,44,0
298240,set_tempo,40,1,0,,,,,,,,,,,,481928,,,,,,,
298280,set_tempo,40,1,0,,,,,,,,,,,,483871,,,,,,,
298320,note_on,120,0,2,,,,,,,,,,,,,,,0,,,32,32
298320,note_on,0,0,2,,,,,,,,,,,,,,,0,,,44,38
298360,set_tempo,80,1,0,,,,,,,,,,,,485830,,,,,,,
298400,set_tempo,40,1,0,,,,,,,,,,,,487805,,,,,,,
298440,note_on,0,0,2,,,,,,,,,,,,,,,0,,,32,0
298440,note_on,120,0,2,,,,,,,,,,,,,,,0,,,44,0
298480,set_tempo,80,1,0,,,,,,,,,,,,489796,,,,,,,
298520,set_tempo,40,1,0,,,,,,,,,,,,491803,,,,,,,
298560,control_change,120,0,2,,,,,,,,,,,,,,,0,64,0,,
298560,note_on,0,0,2,,,,,,,,,,,,,,,0,,,31,38
298560,note_on,0,0,2,,,,,,,,,,,,,,,0,,,43,46
298560,note_on,480,0,1,,,,,,,,,,,,,,,0,,,78,0
298560,set_tempo,40,1,0,,,,,,,,,,,,493827,,,,,,,
298560,note_on,0,0,1,,,,,,,,,,,,,,,0,,,84,0
298560,note_on,0,0,1,,,,,,,,,,,,,,,0,,,83,45
298560,note_on,0,0,1,,,,,,,,,,,,,,,0,,,79,37
298560,note_on,0,0,1,,,,,,,,,,,,,,,0,,,71,37
298560,note_on,0,0,1,,,,,,,,,,,,,,,0,,,72,0
298800,note_on,0,0,1,,,,,,,,,,,,,,,0,,,79,0
298800,note_on,240,0,1,,,,,,,,,,,,,,,0,,,83,0
298800,note_on,240,0,2,,,,,,,,,,,,,,,0,,,43,0
298800,note_on,0,0,2,,,,,,,,,,,,,,,0,,,31,0
298800,note_on,0,0,1,,,,,,,,,,,,,,,0,,,71,0
299040,note_on,0,0,2,,,,,,,,,,,,,,,0,,,67,94
299040,set_tempo,480,1,0,,,,,,,,,,,,438725,,,,,,,
299040,note_on,240,0,2,,,,,,,,,,,,,,,0,,,55,78
300240,note_on,1440,0,1,,,,,,,,,,,,,,,0,,,74,52
300240,set_tempo,1200,1,0,,,,,,,,,,,,452625,,,,,,,
300360,note_on,120,0,1,,,,,,,,,,,,,,,0,,,74,0
300480,note_on,1440,0,2,,,,,,,,,,,,,,,0,,,67,0
300480,note_on,0,0,2,,,,,,,,,,,,,,,0,,,55,0
300480,note_on,0,0,2,,,,,,,,,,,,,,,0,,,55,42
300480,note_on,120,0,1,,,,,,,,,,,,,,,0,,,72,63
300480,set_tempo,240,1,0,,,,,,,,,,,,432059,,,,,,,
300720,note_on,240,0,2,,,,,,,,,,,,,,,0,,,55,0
300720,note_on,0,0,2,,,,,,,,,,,,,,,0,,,67,31
300720,note_on,0,0,1,,,,,,,,,,,,,,,0,,,71,37
300720,note_on,240,0,1,,,,,,,,,,,,,,,0,,,72,0
300840,note_on,120,0,2,,,,,,,,,,,,,,,0,,,67,0
300840,note_on,120,0,1,,,,,,,,,,,,,,,0,,,71,0
300960,set_tempo,480,1,0,,,,,,,,,,,,438725,,,,,,,
300960,note_on,0,0,2,,,,,,,,,,,,,,,0,,,62,26
300960,note_on,120,0,2,,,,,,,,,,,,,,,0,,,65,31
300960,note_on,120,0,1,,,,,,,,,,,,,,,0,,,71,43
301080,note_on,120,0,1,,,,,,,,,,,,,,,0,,,71,0
301080,note_on,0,0,2,,,,,,,,,,,,,,,0,,,65,0
301080,note_on,120,0,2,,,,,,,,,,,,,,,0,,,62,0
301200,note_on,120,0,1,,,,,,,,,,,,,,,0,,,71,37
301200,set_tempo,240,1,0,,,,,,,,,,,,445567,,,,,,,
301200,note_on,120,0,2,,,,,,,,,,,,,,,0,,,67,32
301320,note_on,120,0,1,,,,,,,,,,,,,,,0,,,71,0
301320,note_on,120,0,2,,,,,,,,,,,,,,,0,,,67,0
301440,note_on,120,0,1,,,,,,,,,,,,,,,0,,,71,55
301440,set_tempo,240,1,0,,,,,,,,,,,,422476,,,,,,,
301440,note_on,120,0,2,,,,,,,,,,,,,,,0,,,55,44
301560,note_on,0,0,1,,,,,,,,,,,,,,,0,,,72,49
301560,set_tempo,120,1,0,,,,,,,,,,,,459946,,,,,,,
301560,note_on,120,0,1,,,,,,,,,,,,,,,0,,,71,0
301680,note_on,0,0,1,,,,,,,,,,,,,,,0,,,79,59
301680,set_tempo,120,1,0,,,,,,,,,,,,430447,,,,,,,
301680,note_on,240,0,2,,,,,,,,,,,,,,,0,,,55,0
301680,note_on,0,0,2,,,,,,,,,,,,,,,0,,,67,31
301680,note_on,120,0,1,,,,,,,,,,,,,,,0,,,72,0
301920,note_on,240,0,1,,,,,,,,,,,,,,,0,,,79,0
301920,note_on,0,0,1,,,,,,,,,,,,,,,0,,,77,50
301920,set_tempo,240,1,0,,,,,,,,,,,,433714,,,,,,,
301920,note_on,240,0,2,,,,,,,,,,,,,,,0,,,67,0
301920,note_on,0,0,2,,,,,,,,,,,,,,,0,,,60,29
301920,note_on,0,0,2,,,,,,,,,,,,,,,0,,,63,35
302040,note_on,0,0,1,,,,,,,,,,,,,,,0,,,75,45
302040,note_on,120,0,1,,,,,,,,,,,,,,,0,,,77,0
302160,note_on,0,0,2,,,,,,,,,,,,,,,0,,,67,32
302160,set_tempo,240,1,0,,,,,,,,,,,,449068,,,,,,,
302160,note_on,0,0,2,,,,,,,,,,,,,,,0,,,60,0
302160,note_on,240,0,2,,,,,,,,,,,,,,,0,,,63,0
302160,note_on,0,0,1,,,,,,,,,,,,,,,0,,,74,45
302160,note_on,120,0,1,,,,,,,,,,,,,,,0,,,75,0
302280,note_on,0,0,1,,,,,,,,,,,,,,,0,,,72,45
302280,note_on,120,0,1,,,,,,,,,,,,,,,0,,,74,0
302400,note_on,120,0,1,,,,,,,,,,,,,,,0,,,72,0
302400,note_on,0,0,2,,,,,,,,,,,,,,,0,,,55,42
302400,note_on,240,0,2,,,,,,,,,,,,,,,0,,,67,0
302400,set_tempo,240,1,0,,,,,,,,,,,,432059,,,,,,,
302400,note_on,0,0,1,,,,,,,,,,,,,,,0,,,72,63
302640,note_on,240,0,2,,,,,,,,,,,,,,,0,,,55,0
302640,note_on,0,0,2,,,,,,,,,,,,,,,0,,,67,31
302640,note_on,240,0,1,,,,,,,,,,,,,,,0,,,72,0
302640,note_on,0,0,1,,,,,,,,,,,,,,,0,,,71,37
302760,note_on,120,0,1,,,,,,,,,,,,,,,0,,,71,0
302760,note_on,120,0,2,,,,,,,,,,,,,,,0,,,67,0
302880,note_on,0,0,2,,,,,,,,,,,,,,,0,,,62,26
302880,note_on,120,0,2,,,,,,,,,,,,,,,0,,,65,31
302880,set_tempo,480,1,0,,,,,,,,,,,,437031,,,,,,,
302880,note_on,120,0,1,,,,,,,,,,,,,,,0,,,71,44
303000,note_on,120,0,1,,,,,,,,,,,,,,,0,,,71,0
303000,note_on,120,0,2,,,,,,,,,,,,,,,0,,,62,0
303000,note_on,0,0,2,,,,,,,,,,,,,,,0,,,65,0
303120,set_tempo,240,1,0,,,,,,,,,,,,449068,,,,,,,
303120,note_on,120,0,1,,,,,,,,,,,,,,,0,,,71,37
303120,note_on,120,0,2,,,,,,,,,,,,,,,0,,,67,29
303240,note_on,120,0,2,,,,,,,,,,,,,,,0,,,67,0
303240,note_on,120,0,1,,,,,,,,,,,,,,,0,,,71,0
303360,note_on,120,0,2,,,,,,,,,,,,,,,0,,,55,44
303360,note_on,120,0,1,,,,,,,,,,,,,,,0,,,71,57
303360,set_tempo,240,1,0,,,,,,,,,,,,438725,,,,,,,
303600,note_on,240,0,2,,,,,,,,,,,,,,,0,,,55,0
303600,note_on,240,0,1,,,,,,,,,,,,,,,0,,,71,0
303600,note_on,0,0,1,,,,,,,,,,,,,,,0,,,72,47
303600,note_on,0,0,2,,,,,,,,,,,,,,,0,,,67,32
303720,note_on,120,0,1,,,,,,,,,,,,,,,0,,,72,0
303720,note_on,120,0,2,,,,,,,,,,,,,,,0,,,67,0
303840,note_on,120,0,2,,,,,,,,,,,,,,,0,,,54,29
303840,note_on,0,0,2,,,,,,,,,,,,,,,0,,,60,29
303840,note_on,0,0,2,,,,,,,,,,,,,,,0,,,63,35
303960,note_on,120,0,2,,,,,,,,,,,,,,,0,,,63,0
303960,note_on,0,0,2,,,,,,,,,,,,,,,0,,,60,0
303960,note_on,0,0,2,,,,,,,,,,,,,,,0,,,54,0
304080,set_tempo,720,1,0,,,,,,,,,,,,447327,,,,,,,
304080,note_on,120,0,2,,,,,,,,,,,,,,,0,,,66,35
304080,note_on,360,0,1,,,,,,,,,,,,,,,0,,,75,54
304320,set_tempo,240,1,0,,,,,,,,,,,,430447,,,,,,,
304320,note_on,240,0,2,,,,,,,,,,,,,,,0,,,66,0
304320,note_on,0,0,2,,,,,,,,,,,,,,,0,,,53,42
304320,note_on,0,0,1,,,,,,,,,,,,,,,0,,,72,63
304320,note_on,240,0,1,,,,,,,,,,,,,,,0,,,75,0
304560,note_on,240,0,2,,,,,,,,,,,,,,,0,,,53,0
304560,note_on,240,0,1,,,,,,,,,,,,,,,0,,,72,0
304560,note_on,0,0,1,,,,,,,,,,,,,,,0,,,70,52
304560,note_on,0,0,2,,,,,,,,,,,,,,,0,,,65,35
304680,note_on,120,0,1,,,,,,,,,,,,,,,0,,,70,0
304680,note_on,120,0,2,,,,,,,,,,,,,,,0,,,65,0
304800,note_on,120,0,1,,,,,,,,,,,,,,,0,,,70,54
304800,set_tempo,480,1,0,,,,,,,,,,,,438725,,,,,,,
304800,note_on,120,0,2,,,,,,,,,,,,,,,0,,,62,35
304920,note_on,120,0,1,,,,,,,,,,,,,,,0,,,70,0
304920,note_on,120,0,2,,,,,,,,,,,,,,,0,,,62,0
305040,note_on,120,0,1,,,,,,,,,,,,,,,0,,,70,54
305040,note_on,120,0,2,,,,,,,,,,,,,,,0,,,65,36
305160,note_on,120,0,2,,,,,,,,,,,,,,,0,,,65,0
305160,note_on,120,0,1,,,,,,,,,,,,,,,0,,,70,0
305280,note_on,120,0,2,,,,,,,,,,,,,,,0,,,55,42
305280,set_tempo,480,1,0,,,,,,,,,,,,432059,,,,,,,
305280,note_on,120,0,1,,,,,,,,,,,,,,,0,,,72,63
305520,note_on,240,0,1,,,,,,,,,,,,,,,0,,,72,0
305520,note_on,0,0,1,,,,,,,,,,,,,,,0,,,70,53
305520,note_on,0,0,2,,,,,,,,,,,,,,,0,,,64,36
305520,note_on,240,0,2,,,,,,,,,,,,,,,0,,,55,0
305640,note_on,120,0,2,,,,,,,,,,,,,,,0,,,64,0
305640,note_on,120,0,1,,,,,,,,,,,,,,,0,,,70,0
305760,set_tempo,480,1,0,,,,,,,,,,,,438725,,,,,,,
305760,note_on,120,0,1,,,,,,,,,,,,,,,0,,,70,55
305760,note_on,120,0,2,,,,,,,,,,,,,,,0,,,60,36
305880,note_on,120,0,1,,,,,,,,,,,,,,,0,,,70,0
305880,note_on,120,0,2,,,,,,,,,,,,,,,0,,,60,0
306000,note_on,120,0,1,,,,,,,,,,,,,,,0,,,70,55
306000,note_on,120,0,2,,,,,,,,,,,,,,,0,,,64,36
306120,note_on,120,0,1,,,,,,,,,,,,,,,0,,,70,0
306120,note_on,120,0,2,,,,,,,,,,,,,,,0,,,64,0
306240,set_tempo,480,1,0,,,,,,,,,,,,430447,,,,,,,
306240,note_on,120,0,2,,,,,,,,,,,,,,,0,,,62,42
306240,note_on,120,0,1,,,,,,,,,,,,,,,0,,,72,63
306240,note_on,0,0,2,,,,,,,,,,,,,,,0,,,53,35
306282,control_change,42,0,2,,,,,,,,,,,,,,,0,64,127,,
306360,note_on,120,0,1,,,,,,,,,,,,,,,0,,,72,0
306360,note_on,0,0,1,,,,,,,,,,,,,,,0,,,70,52
306480,note_on,120,0,1,,,,,,,,,,,,,,,0,,,70,0
306480,note_on,0,0,1,,,,,,,,,,,,,,,0,,,69,53
306480,note_on,0,0,2,,,,,,,,,,,,,,,0,,,65,33
306480,note_on,0,0,2,,,,,,,,,,,,,,,0,,,62,0
306480,note_on,198,0,2,,,,,,,,,,,,,,,0,,,53,0
306600,note_on,120,0,1,,,,,,,,,,,,,,,0,,,69,0
306600,note_on,0,0,1,,,,,,,,,,,,,,,0,,,70,53
306720,note_on,120,0,1,,,,,,,,,,,,,,,0,,,70,0
306720,note_on,240,0,2,,,,,,,,,,,,,,,0,,,65,0
306720,note_on,0,0,2,,,,,,,,,,,,,,,0,,,63,35
306720,note_on,0,0,2,,,,,,,,,,,,,,,0,,,53,29
306720,set_tempo,480,1,0,,,,,,,,,,,,443820,,,,,,,
306720,note_on,0,0,1,,,,,,,,,,,,,,,0,,,72,58
306755,control_change,35,0,2,,,,,,,,,,,,,,,0,64,0,,
306840,note_on,120,0,1,,,,,,,,,,,,,,,0,,,72,0
306840,note_on,0,0,2,,,,,,,,,,,,,,,0,,,63,0
306840,note_on,85,0,2,,,,,,,,,,,,,,,0,,,53,0
306960,note_on,120,0,2,,,,,,,,,,,,,,,0,,,65,34
306960,set_tempo,240,1,0,,,,,,,,,,,,456274,,,,,,,
306960,note_on,120,0,1,,,,,,,,,,,,,,,0,,,74,54
307080,note_on,120,0,2,,,,,,,,,,,,,,,0,,,65,0
307080,note_on,120,0,1,,,,,,,,,,,,,,,0,,,74,0
307200,note_on,0,0,2,,,,,,,,,,,,,,,0,,,58,42
307200,set_tempo,240,1,0,,,,,,,,,,,,464073,,,,,,,
307200,note_on,120,0,2,,,,,,,,,,,,,,,0,,,62,42
307200,note_on,120,0,1,,,,,,,,,,,,,,,0,,,70,58
307319,set_tempo,119,1,0,,,,,,,,,,,,438725,,,,,,,
307320,note_on,0,0,2,,,,,,,,,,,,,,,0,,,62,0
307320,note_on,120,0,2,,,,,,,,,,,,,,,0,,,58,0
307440,set_tempo,121,1,0,,,,,,,,,,,,447327,,,,,,,
307440,note_on,240,0,1,,,,,,,,,,,,,,,0,,,70,0
307440,note_on,120,0,2,,,,,,,,,,,,,,,0,,,57,38
307560,note_on,120,0,2,,,,,,,,,,,,,,,0,,,57,0
307680,note_on,120,0,2,,,,,,,,,,,,,,,0,,,55,37
307800,note_on,120,0,2,,,,,,,,,,,,,,,0,,,55,0
307920,note_on,480,0,1,,,,,,,,,,,,,,,0,,,74,57
307920,set_tempo,480,1,0,,,,,,,,,,,,450857,,,,,,,
307920,note_on,120,0,2,,,,,,,,,,,,,,,0,,,53,36
308040,note_on,120,0,1,,,,,,,,,,,,,,,0,,,74,0
308040,note_on,120,0,2,,,,,,,,,,,,,,,0,,,53,0
308160,note_on,120,0,2,,,,,,,,,,,,,,,0,,,51,42
308160,set_tempo,240,1,0,,,,,,,,,,,,445567,,,,,,,
308160,note_on,120,0,1,,,,,,,,,,,,,,,0,,,79,60
308280,note_on,120,0,2,,,,,,,,,,,,,,,0,,,51,0
308400,note_on,0,0,2,,,,,,,,,,,,,,,0,,,55,36
308400,note_on,120,0,2,,,,,,,,,,,,,,,0,,,58,36
308520,note_on,0,0,2,,,,,,,,,,,,,,,0,,,58,0
308520,note_on,120,0,2,,,,,,,,,,,,,,,0,,,55,0
308640,note_on,480,0,1,,,,,,,,,,,,,,,0,,,79,0
308640,note_on,120,0,2,,,,,,,,,,,,,,,0,,,48,36
308640,note_on,0,0,1,,,,,,,,,,,,,,,0,,,75,60
308760,note_on,120,0,2,,,,,,,,,,,,,,,0,,,48,0
308880,note_on,120,0,2,,,,,,,,,,,,,,,0,,,60,36
308880,note_on,0,0,2,,,,,,,,,,,,,,,0,,,55,36
309000,note_on,120,0,2,,,,,,,,,,,,,,,0,,,55,0
309000,note_on,0,0,2,,,,,,,,,,,,,,,0,,,60,0
309120,note_on,120,0,2,,,,,,,,,,,,,,,0,,,53,42
309120,note_on,0,0,1,,,,,,,,,,,,,,,0,,,72,60
309120,note_on,480,0,1,,,,,,,,,,,,,,,0,,,75,0
309120,set_tempo,960,1,0,,,,,,,,,,,,438725,,,,,,,
309240,note_on,120,0,2,,,,,,,,,,,,,,,0,,,53,0
309360,note_on,120,0,2,,,,,,,,,,,,,,,0,,,57,35
309360,note_on,0,0,2,,,,,,,,,,,,,,,0,,,60,35
309480,note_on,120,0,2,,,,,,,,,,,,,,,0,,,60,0
309480,note_on,0,0,2,,,,,,,,,,,,,,,0,,,57,0
309600,note_on,120,0,2,,,,,,,,,,,,,,,0,,,51,36
309600,note_on,480,0,1,,,,,,,,,,,,,,,0,,,72,0
309600,note_on,0,0,1,,,,,,,,,,,,,,,0,,,74,60
309720,note_on,120,0,2,,,,,,,,,,,,,,,0,,,51,0
309720,note_on,120,0,1,,,,,,,,,,,,,,,0,,,74,0
309840,note_on,120,0,2,,,,,,,,,,,,,,,0,,,60,36
309840,note_on,0,0,2,,,,,,,,,,,,,,,0,,,57,36
309840,note_on,120,0,1,,,,,,,,,,,,,,,0,,,75,58
309960,note_on,0,0,2,,,,,,,,,,,,,,,0,,,60,0
309960,note_on,120,0,2,,,,,,,,,,,,,,,0,,,57,0
309960,note_on,120,0,1,,,,,,,,,,,,,,,0,,,75,0
310080,note_on,120,0,1,,,,,,,,,,,,,,,0,,,77,57
310080,note_on,120,0,2,,,,,,,,,,,,,,,0,,,50,39
310080,set_tempo,960,1,0,,,,,,,,,,,,432059,,,,,,,
310094,control_change,14,0,2,,,,,,,,,,,,,,,0,64,127,,
310200,note_on,106,0,2,,,,,,,,,,,,,,,0,,,50,0
310200,note_on,120,0,1,,,,,,,,,,,,,,,0,,,77,0
310200,note_on,0,0,1,,,,,,,,,,,,,,,0,,,79,53
310320,note_on,0,0,1,,,,,,,,,,,,,,,0,,,77,53
310320,note_on,0,0,2,,,,,,,,,,,,,,,0,,,53,29
310320,note_on,120,0,2,,,,,,,,,,,,,,,0,,,58,34
310320,note_on,120,0,1,,,,,,,,,,,,,,,0,,,79,0
310440,note_on,120,0,1,,,,,,,,,,,,,,,0,,,77,0
310440,note_on,0,0,1,,,,,,,,,,,,,,,0,,,75,53
310440,note_on,0,0,2,,,,,,,,,,,,,,,0,,,58,0
310440,note_on,120,0,2,,,,,,,,,,,,,,,0,,,53,0
310560,note_on,120,0,2,,,,,,,,,,,,,,,0,,,46,34
310560,set_tempo,480,1,0,,,,,,,,,,,,440399,,,,,,,
310560,note_on,120,0,1,,,,,,,,,,,,,,,0,,,75,0
310560,note_on,0,0,1,,,,,,,,,,,,,,,0,,,74,59
310574,control_change,14,0,2,,,,,,,,,,,,,,,0,64,0,,
310624,control_change,50,0,2,,,,,,,,,,,,,,,0,64,127,,
310680,note_on,56,0,2,,,,,,,,,,,,,,,0,,,46,0
310680,note_on,120,0,1,,,,,,,,,,,,,,,0,,,74,0
310680,note_on,0,0,1,,,,,,,,,,,,,,,0,,,75,52
310800,note_on,120,0,2,,,,,,,,,,,,,,,0,,,58,34
310800,set_tempo,240,1,0,,,,,,,,,,,,456274,,,,,,,
310800,note_on,0,0,2,,,,,,,,,,,,,,,0,,,53,29
310800,note_on,120,0,1,,,,,,,,,,,,,,,0,,,75,0
310800,note_on,0,0,1,,,,,,,,,,,,,,,0,,,74,52
310920,note_on,0,0,2,,,,,,,,,,,,,,,0,,,58,0
310920,note_on,0,0,1,,,,,,,,,,,,,,,0,,,72,53
310920,note_on,120,0,2,,,,,,,,,,,,,,,0,,,53,0
310920,note_on,120,0,1,,,,,,,,,,,,,,,0,,,74,0
311040,note_on,120,0,1,,,,,,,,,,,,,,,0,,,72,0
311040,note_on,0,0,1,,,,,,,,,,,,,,,0,,,70,60
311040,note_on,0,0,2,,,,,,,,,,,,,,,0,,,51,40
311040,set_tempo,240,1,0,,,,,,,,,,,,447327,,,,,,,
311040,control_change,120,0,2,,,,,,,,,,,,,,,0,64,0,,
311160,note_on,120,0,2,,,,,,,,,,,,,,,0,,,51,0
311188,control_change,28,0,2,,,,,,,,,,,,,,,0,64,127,,
311280,note_on,0,0,2,,,,,,,,,,,,,,,0,,,55,29
311280,note_on,92,0,2,,,,,,,,,,,,,,,0,,,58,34
311400,note_on,0,0,2,,,,,,,,,,,,,,,0,,,58,0
311400,note_on,120,0,2,,,,,,,,,,,,,,,0,,,55,0
311506,control_change,106,0,2,,,,,,,,,,,,,,,0,64,0,,
311520,set_tempo,480,1,0,,,,,,,,,,,,461787,,,,,,,
311520,note_on,14,0,2,,,,,,,,,,,,,,,0,,,50,34
311640,note_on,120,0,2,,,,,,,,,,,,,,,0,,,50,0
311760,note_on,120,0,2,,,,,,,,,,,,,,,0,,,58,29
311760,set_tempo,240,1,0,,,,,,,,,,,,456274,,,,,,,
311760,note_on,0,0,2,,,,,,,,,,,,,,,0,,,55,29
311760,note_on,720,0,1,,,,,,,,,,,,,,,0,,,70,0
311760,note_on,0,0,1,,,,,,,,,,,,,,,0,,,70,46
311880,note_on,120,0,1,,,,,,,,,,,,,,,0,,,70,0
311880,note_on,120,0,2,,,,,,,,,,,,,,,0,,,55,0
311880,note_on,0,0,2,,,,,,,,,,,,,,,0,,,58,0
312000,note_on,120,0,1,,,,,,,,,,,,,,,0,,,75,48
312000,control_change,120,0,2,,,,,,,,,,,,,,,0,64,127,,
312000,note_on,0,0,2,,,,,,,,,,,,,,,0,,,48,33
312000,set_tempo,240,1,0,,,,,,,,,,,,445567,,,,,,,
312120,note_on,120,0,2,,,,,,,,,,,,,,,0,,,48,0
312240,note_on,120,0,2,,,,,,,,,,,,,,,0,,,60,29
312240,note_on,0,0,2,,,,,,,,,,,,,,,0,,,56,29
312360,note_on,0,0,2,,,,,,,,,,,,,,,0,,,60,0
312360,note_on,120,0,2,,,,,,,,,,,,,,,0,,,56,0
312480,note_on,480,0,1,,,,,,,,,,,,,,,0,,,75,0
312480,note_on,0,0,1,,,,,,,,,,,,,,,0,,,72,48
312480,note_on,120,0,2,,,,,,,,,,,,,,,0,,,51,29
312600,note_on,120,0,2,,,,,,,,,,,,,,,0,,,51,0
312720,note_on,120,0,2,,,,,,,,,,,,,,,0,,,60,29
312720,note_on,0,0,2,,,,,,,,,,,,,,,0,,,56,29
312840,note_on,120,0,2,,,,,,,,,,,,,,,0,,,56,0
312840,note_on,0,0,2,,,,,,,,,,,,,,,0,,,60,0
312960,set_tempo,960,1,0,,,,,,,,,,,,438725,,,,,,,
312960,control_change,120,0,2,,,,,,,,,,,,,,,0,64,0,,
312960,note_on,0,0,2,,,,,,,,,,,,,,,0,,,48,33
312960,note_on,480,0,1,,,,,,,,,,,,,,,0,,,72,0
312960,note_on,0,0,1,,,,,,,,,,,,,,,0,,,68,48
313074,control_change,114,0,2,,,,,,,,,,,,,,,0,64,127,,
313080,note_on,6,0,2,,,,,,,,,,,,,,,0,,,48,0
313200,note_on,120,0,2,,,,,,,,,,,,,,,0,,,56,28
313200,note_on,0,0,2,,,,,,,,,,,,,,,0,,,60,28
313320,note_on,120,0,2,,,,,,,,,,,,,,,0,,,60,0
313320,note_on,0,0,2,,,,,,,,,,,,,,,0,,,56,0
313440,note_on,480,0,1,,,,,,,,,,,,,,,0,,,68,0
313440,note_on,0,0,1,,,,,,,,,,,,,,,0,,,70,48
313440,note_on,120,0,2,,,,,,,,,,,,,,,0,,,51,29
313560,note_on,120,0,2,,,,,,,,,,,,,,,0,,,51,0
313560,note_on,120,0,1,,,,,,,,,,,,,,,0,,,70,0
313680,note_on,120,0,2,,,,,,,,,,,,,,,0,,,60,29
313680,note_on,120,0,1,,,,,,,,,,,,,,,0,,,72,46
313680,note_on,0,0,2,,,,,,,,,,,,,,,0,,,56,29
313800,note_on,120,0,1,,,,,,,,,,,,,,,0,,,72,0
313800,note_on,0,0,2,,,,,,,,,,,,,,,0,,,60,0
313800,note_on,120,0,2,,,,,,,,,,,,,,,0,,,56,0
313920,note_on,0,0,2,,,,,,,,,,,,,,,0,,,49,33
313920,control_change,120,0,2,,,,,,,,,,,,,,,0,64,0,,
313920,set_tempo,960,1,0,,,,,,,,,,,,445567,,,,,,,
313920,note_on,120,0,1,,,,,,,,,,,,,,,0,,,75,48
314034,control_change,114,0,2,,,,,,,,,,,,,,,0,64,127,,
314160,note_on,0,0,2,,,,,,,,,,,,,,,0,,,55,29
314160,note_on,126,0,2,,,,,,,,,,,,,,,0,,,49,0
314160,note_on,0,0,2,,,,,,,,,,,,,,,0,,,58,29
314400,note_on,0,0,2,,,,,,,,,,,,,,,0,,,55,0
314400,note_on,240,0,2,,,,,,,,,,,,,,,0,,,58,0
314400,note_on,0,0,2,,,,,,,,,,,,,,,0,,,51,29
314400,note_on,480,0,1,,,,,,,,,,,,,,,0,,,75,0
314400,note_on,0,0,1,,,,,,,,,,,,,,,0,,,73,48
314434,control_change,34,0,2,,,,,,,,,,,,,,,0,64,0,,
314514,control_change,80,0,2,,,,,,,,,,,,,,,0,64,127,,
314640,note_on,0,0,2,,,,,,,,,,,,,,,0,,,55,29
314640,note_on,0,0,2,,,,,,,,,,,,,,,0,,,58,29
314640,note_on,126,0,2,,,,,,,,,,,,,,,0,,,51,0
314640,note_on,240,0,1,,,,,,,,,,,,,,,0,,,73,0
314640,note_on,0,0,1,,,,,,,,,,,,,,,0,,,72,48
314880,note_on,240,0,2,,,,,,,,,,,,,,,0,,,55,0
314880,control_change,0,0,2,,,,,,,,,,,,,,,0,64,0,,
314880,note_on,0,0,2,,,,,,,,,,,,,,,0,,,49,33
314880,note_on,0,0,2,,,,,,,,,,,,,,,0,,,58,0
314880,note_on,240,0,1,,,,,,,,,,,,,,,0,,,72,0
314880,note_on,0,0,1,,,,,,,,,,,,,,,0,,,70,48
314880,set_tempo,960,1,0,,,,,,,,,,,,438725,,,,,,,
314931,control_change,51,0,2,,,,,,,,,,,,,,,0,64,127,,
315120,note_on,0,0,2,,,,,,,,,,,,,,,0,,,55,28
315120,note_on,0,0,2,,,,,,,,,,,,,,,0,,,58,28
315120,note_on,189,0,2,,,,,,,,,,,,,,,0,,,49,0
315360,note_on,0,0,1,,,,,,,,,,,,,,,0,,,72,48
315360,note_on,480,0,1,,,,,,,,,,,,,,,0,,,70,0
315360,note_on,0,0,2,,,,,,,,,,,,,,,0,,,51,29
315360,note_on,0,0,2,,,,,,,,,,,,,,,0,,,55,0
315360,note_on,240,0,2,,,,,,,,,,,,,,,0,,,58,0
315366,control_change,6,0,2,,,,,,,,,,,,,,,0,64,0,,
315480,note_on,120,0,1,,,,,,,,,,,,,,,0,,,72,0
315540,note_on,174,0,2,,,,,,,,,,,,,,,0,,,51,0
315600,note_on,0,0,2,,,,,,,,,,,,,,,0,,,55,29
315600,note_on,60,0,2,,,,,,,,,,,,,,,0,,,58,29
315600,note_on,120,0,1,,,,,,,,,,,,,,,0,,,73,46
315720,note_on,120,0,1,,,,,,,,,,,,,,,0,,,73,0
315780,note_on,0,0,2,,,,,,,,,,,,,,,0,,,58,0
315780,note_on,180,0,2,,,,,,,,,,,,,,,0,,,55,0
315840,note_on,60,0,2,,,,,,,,,,,,,,,0,,,48,31
315840,note_on,120,0,1,,,,,,,,,,,,,,,0,,,75,46
315960,note_on,120,0,1,,,,,,,,,,,,,,,0,,,75,0
315960,note_on,0,0,1,,,,,,,,,,,,,,,0,,,77,42
316080,note_on,0,0,2,,,,,,,,,,,,,,,0,,,60,27
316080,note_on,120,0,1,,,,,,,,,,,,,,,0,,,77,0
316080,note_on,0,0,1,,,,,,,,,,,,,,,0,,,75,42
316080,note_on,240,0,2,,,,,,,,,,,,,,,0,,,48,0
316080,note_on,0,0,2,,,,,,,,,,,,,,,0,,,56,23
316200,note_on,120,0,1,,,,,,,,,,,,,,,0,,,75,0
316200,note_on,0,0,1,,,,,,,,,,,,,,,0,,,73,42
316320,note_on,240,0,2,,,,,,,,,,,,,,,0,,,60,0
316320,note_on,0,0,2,,,,,,,,,,,,,,,0,,,56,0
316320,note_on,0,0,2,,,,,,,,,,,,,,,0,,,51,27
316320,note_on,0,0,1,,,,,,,,,,,,,,,0,,,72,47
316320,note_on,120,0,1,,,,,,,,,,,,,,,0,,,73,0
316320,set_tempo,1440,1,0,,,,,,,,,,,,440399,,,,,,,
316440,note_on,0,0,1,,,,,,,,,,,,,,,0,,,73,42
316440,note_on,120,0,1,,,,,,,,,,,,,,,0,,,72,0
316560,note_on,0,0,2,,,,,,,,,,,,,,,0,,,56,23
316560,note_on,0,0,1,,,,,,,,,,,,,,,0,,,72,42
316560,note_on,240,0,2,,,,,,,,,,,,,,,0,,,51,0
316560,note_on,0,0,2,,,,,,,,,,,,,,,0,,,60,27
316560,set_tempo,240,1,0,,,,,,,,,,,,449068,,,,,,,
316560,note_on,120,0,1,,,,,,,,,,,,,,,0,,,73,0
316680,note_on,120,0,1,,,,,,,,,,,,,,,0,,,72,0
316680,note_on,0,0,1,,,,,,,,,,,,,,,0,,,70,42
316800,note_on,240,0,2,,,,,,,,,,,,,,,0,,,56,0
316800,note_on,120,0,1,,,,,,,,,,,,,,,0,,,70,0
316800,note_on,0,0,1,,,,,,,,,,,,,,,0,,,68,48
316800,note_on,0,0,2,,,,,,,,,,,,,,,0,,,48,32
316800,note_on,0,0,2,,,,,,,,,,,,,,,0,,,60,0
316800,set_tempo,240,1,0,,,,,,,,,,,,447327,,,,,,,
316948,control_change,148,0,2,,,,,,,,,,,,,,,0,64,127,,
317040,set_tempo,240,1,0,,,,,,,,,,,,454442,,,,,,,
317040,note_on,0,0,2,,,,,,,,,,,,,,,0,,,56,23
317040,note_on,0,0,2,,,,,,,,,,,,,,,0,,,60,27
317040,note_on,92,0,2,,,,,,,,,,,,,,,0,,,48,0
317266,control_change,226,0,2,,,,,,,,,,,,,,,0,64,0,,
317280,note_on,0,0,2,,,,,,,,,,,,,,,0,,,60,0
317280,set_tempo,240,1,0,,,,,,,,,,,,447327,,,,,,,
317280,note_on,480,0,1,,,,,,,,,,,,,,,0,,,68,0
317280,note_on,0,0,1,,,,,,,,,,,,,,,0,,,70,48
317280,note_on,14,0,2,,,,,,,,,,,,,,,0,,,56,0
317280,note_on,0,0,2,,,,,,,,,,,,,,,0,,,51,32
317400,note_on,120,0,1,,,,,,,,,,,,,,,0,,,70,0
317400,note_on,120,0,2,,,,,,,,,,,,,,,0,,,51,0
317520,note_on,120,0,1,,,,,,,,,,,,,,,0,,,72,44
317520,note_on,0,0,2,,,,,,,,,,,,,,,0,,,60,27
317520,note_on,120,0,2,,,,,,,,,,,,,,,0,,,56,23
317640,note_on,120,0,1,,,,,,,,,,,,,,,0,,,72,0
317640,note_on,0,0,2,,,,,,,,,,,,,,,0,,,56,0
317640,note_on,120,0,2,,,,,,,,,,,,,,,0,,,60,0
317760,note_on,120,0,1,,,,,,,,,,,,,,,0,,,75,48
317760,note_on,0,0,2,,,,,,,,,,,,,,,0,,,49,32
317760,control_change,120,0,2,,,,,,,,,,,,,,,0,64,127,,
318000,note_on,0,0,1,,,,,,,,,,,,,,,0,,,73,48
318000,note_on,0,0,2,,,,,,,,,,,,,,,0,,,58,29
318000,note_on,240,0,2,,,,,,,,,,,,,,,0,,,49,0
318000,note_on,240,0,1,,,,,,,,,,,,,,,0,,,75,0
318000,note_on,0,0,2,,,,,,,,,,,,,,,0,,,55,29
318120,note_on,120,0,1,,,,,,,,,,,,,,,0,,,73,0
318120,note_on,0,0,2,,,,,,,,,,,,,,,0,,,58,0
318120,note_on,120,0,2,,,,,,,,,,,,,,,0,,,55,0
318229,control_change,109,0,2,,,,,,,,,,,,,,,0,64,0,,
318240,note_on,11,0,2,,,,,,,,,,,,,,,0,,,51,32
318240,note_on,120,0,1,,,,,,,,,,,,,,,0,,,73,48
318240,set_tempo,960,1,0,,,,,,,,,,,,437031,,,,,,,
318280,control_change,40,0,2,,,,,,,,,,,,,,,0,64,127,,
318360,note_on,0,0,1,,,,,,,,,,,,,,,0,,,75,44
318360,note_on,120,0,1,,,,,,,,,,,,,,,0,,,73,0
318480,note_on,0,0,1,,,,,,,,,,,,,,,0,,,73,44
318480,note_on,200,0,2,,,,,,,,,,,,,,,0,,,51,0
318480,note_on,0,0,2,,,,,,,,,,,,,,,0,,,58,29
318480,note_on,0,0,2,,,,,,,,,,,,,,,0,,,55,29
318480,note_on,120,0,1,,,,,,,,,,,,,,,0,,,75,0
318600,note_on,120,0,1,,,,,,,,,,,,,,,0,,,73,0
318600,note_on,0,0,1,,,,,,,,,,,,,,,0,,,72,44
318720,note_on,120,0,1,,,,,,,,,,,,,,,0,,,72,0
318720,note_on,0,0,1,,,,,,,,,,,,,,,0,,,70,48
318720,note_on,0,0,2,,,,,,,,,,,,,,,0,,,49,34
318720,note_on,240,0,2,,,,,,,,,,,,,,,0,,,55,0
318720,note_on,0,0,2,,,,,,,,,,,,,,,0,,,58,0
318720,control_change,0,0,2,,,,,,,,,,,,,,,0,64,0,,
318759,control_change,39,0,2,,,,,,,,,,,,,,,0,64,127,,
318960,note_on,0,0,1,,,,,,,,,,,,,,,0,,,75,49
318960,set_tempo,720,1,0,,,,,,,,,,,,447327,,,,,,,
318960,note_on,240,0,1,,,,,,,,,,,,,,,0,,,70,0
318960,note_on,201,0,2,,,,,,,,,,,,,,,0,,,49,0
318960,note_on,0,0,2,,,,,,,,,,,,,,,0,,,58,29
318960,note_on,0,0,2,,,,,,,,,,,,,,,0,,,55,29
319031,control_change,71,0,2,,,,,,,,,,,,,,,0,64,0,,
319080,note_on,120,0,1,,,,,,,,,,,,,,,0,,,75,0
319080,note_on,0,0,2,,,,,,,,,,,,,,,0,,,58,0
319080,note_on,49,0,2,,,,,,,,,,,,,,,0,,,55,0
319200,note_on,120,0,2,,,,,,,,,,,,,,,0,,,51,31
319200,note_on,120,0,1,,,,,,,,,,,,,,,0,,,77,53
319320,note_on,120,0,2,,,,,,,,,,,,,,,0,,,51,0
319320,note_on,120,0,1,,,,,,,,,,,,,,,0,,,77,0
319440,note_on,120,0,1,,,,,,,,,,,,,,,0,,,79,56
319440,note_on,120,0,2,,,,,,,,,,,,,,,0,,,58,34
319440,note_on,0,0,2,,,,,,,,,,,,,,,0,,,55,34
319560,note_on,120,0,2,,,,,,,,,,,,,,,0,,,55,0
319560,note_on,0,0,2,,,,,,,,,,,,,,,0,,,58,0
319560,note_on,120,0,1,,,,,,,,,,,,,,,0,,,79,0
319680,control_change,120,0,2,,,,,,,,,,,,,,,0,64,127,,
319680,set_tempo,720,1,0,,,,,,,,,,,,437031,,,,,,,
319680,note_on,0,0,2,,,,,,,,,,,,,,,0,,,48,37
319680,note_on,0,0,1,,,,,,,,,,,,,,,0,,,68,50
319680,note_on,120,0,1,,,,,,,,,,,,,,,0,,,80,59
319920,note_on,240,0,2,,,,,,,,,,,,,,,0,,,48,0
319920,note_on,0,0,2,,,,,,,,,,,,,,,0,,,56,27
319920,note_on,0,0,2,,,,,,,,,,,,,,,0,,,60,32
320160,set_tempo,480,1,0,,,,,,,,,,,,447327,,,,,,,
320160,note_on,0,0,2,,,,,,,,,,,,,,,0,,,56,0
320160,note_on,0,0,2,,,,,,,,,,,,,,,0,,,51,32
320160,note_on,240,0,2,,,,,,,,,,,,,,,0,,,60,0
320400,note_on,0,0,2,,,,,,,,,,,,,,,0,,,60,32
320400,note_on,0,0,2,,,,,,,,,,,,,,,0,,,56,27
320400,note_on,240,0,2,,,,,,,,,,,,,,,0,,,51,0
320640,note_on,0,0,2,,,,,,,,,,,,,,,0,,,48,37
320640,note_on,0,0,2,,,,,,,,,,,,,,,0,,,56,0
320640,note_on,240,0,2,,,,,,,,,,,,,,,0,,,60,0
320640,control_change,0,0,2,,,,,,,,,,,,,,,0,64,0,,
320640,note_on,960,0,1,,,,,,,,,,,,,,,0,,,68,0
320640,note_on,0,0,1,,,,,,,,,,,,,,,0,,,80,0
320640,note_on,0,0,1,,,,,,,,,,,,,,,0,,,72,51
320640,note_on,0,0,1,,,,,,,,,,,,,,,0,,,84,60
320640,set_tempo,480,1,0,,,,,,,,,,,,437031,,,,,,,
320777,control_change,137,0,2,,,,,,,,,,,,,,,0,64,127,,
320880,note_on,0,0,2,,,,,,,,,,,,,,,0,,,60,32
320880,note_on,103,0,2,,,,,,,,,,,,,,,0,,,48,0
320880,note_on,0,0,2,,,,,,,,,,,,,,,0,,,56,27
320960,set_tempo,320,1,0,,,,,,,,,,,,445567,,,,,,,
321120,note_on,0,0,2,,,,,,,,,,,,,,,0,,,51,32
321120,note_on,0,0,2,,,,,,,,,,,,,,,0,,,60,0
321120,note_on,240,0,2,,,,,,,,,,,,,,,0,,,56,0
321120,set_tempo,160,1,0,,,,,,,,,,,,447327,,,,,,,
321360,note_on,0,0,1,,,,,,,,,,,,,,,0,,,68,47
321360,note_on,720,0,1,,,,,,,,,,,,,,,0,,,84,0
321360,note_on,0,0,1,,,,,,,,,,,,,,,0,,,80,55
321360,note_on,0,0,1,,,,,,,,,,,,,,,0,,,72,0
321360,note_on,0,0,2,,,,,,,,,,,,,,,0,,,56,27
321360,note_on,240,0,2,,,,,,,,,,,,,,,0,,,51,0
321360,note_on,0,0,2,,,,,,,,,,,,,,,0,,,60,32
321600,note_on,0,0,1,,,,,,,,,,,,,,,0,,,80,59
321600,note_on,0,0,1,,,,,,,,,,,,,,,0,,,68,50
321600,note_on,0,0,1,,,,,,,,,,,,,,,0,,,80,0
321600,note_on,240,0,1,,,,,,,,,,,,,,,0,,,68,0
321600,note_on,0,0,2,,,,,,,,,,,,,,,0,,,60,0
321600,note_on,0,0,2,,,,,,,,,,,,,,,0,,,49,37
321600,control_change,0,0,2,,,,,,,,,,,,,,,0,64,0,,
321600,note_on,240,0,2,,,,,,,,,,,,,,,0,,,56,0
321600,set_tempo,480,1,0,,,,,,,,,,,,447327,,,,,,,
321680,control_change,80,0,2,,,,,,,,,,,,,,,0,64,127,,
321680,set_tempo,80,1,0,,,,,,,,,,,,445567,,,,,,,
321760,set_tempo,80,1,0,,,,,,,,,,,,443820,,,,,,,
321800,set_tempo,40,1,0,,,,,,,,,,,,442119,,,,,,,
321840,note_on,0,0,2,,,,,,,,,,,,,,,0,,,55,27
321840,note_on,0,0,2,,,,,,,,,,,,,,,0,,,58,32
321840,note_on,160,0,2,,,,,,,,,,,,,,,0,,,49,0
321880,set_tempo,80,1,0,,,,,,,,,,,,440399,,,,,,,
321960,set_tempo,80,1,0,,,,,,,,,,,,438725,,,,,,,
322000,set_tempo,40,1,0,,,,,,,,,,,,437031,,,,,,,
322080,note_on,0,0,1,,,,,,,,,,,,,,,0,,,79,55
322080,set_tempo,80,1,0,,,,,,,,,,,,437031,,,,,,,
322080,note_on,480,0,1,,,,,,,,,,,,,,,0,,,80,0
322080,note_on,0,0,1,,,,,,,,,,,,,,,0,,,68,0
322080,note_on,0,0,1,,,,,,,,,,,,,,,0,,,67,47
322080,note_on,240,0,2,,,,,,,,,,,,,,,0,,,55,0
322080,note_on,0,0,2,,,,,,,,,,,,,,,0,,,58,0
322080,note_on,0,0,2,,,,,,,,,,,,,,,0,,,52,32
322091,control_change,11,0,2,,,,,,,,,,,,,,,0,64,0,,
322183,control_change,92,0,2,,,,,,,,,,,,,,,0,64,127,,
322200,set_tempo,120,1,0,,,,,,,,,,,,438725,,,,,,,
322280,set_tempo,80,1,0,,,,,,,,,,,,440399,,,,,,,
322320,note_on,137,0,2,,,,,,,,,,,,,,,0,,,52,0
322320,note_on,0,0,2,,,,,,,,,,,,,,,0,,,58,32
322320,note_on,0,0,2,,,,,,,,,,,,,,,0,,,55,27
322400,set_tempo,120,1,0,,,,,,,,,,,,442119,,,,,,,
322480,set_tempo,80,1,0,,,,,,,,,,,,443820,,,,,,,
322560,set_tempo,80,1,0,,,,,,,,,,,,445567,,,,,,,
322560,note_on,0,0,2,,,,,,,,,,,,,,,0,,,49,37
322560,note_on,0,0,2,,,,,,,,,,,,,,,0,,,58,0
322560,note_on,240,0,2,,,,,,,,,,,,,,,0,,,55,0
322800,note_on,0,0,2,,,,,,,,,,,,,,,0,,,55,27
322800,set_tempo,240,1,0,,,,,,,,,,,,452625,,,,,,,
322800,note_on,240,0,2,,,,,,,,,,,,,,,0,,,49,0
322800,note_on,0,0,2,,,,,,,,,,,,,,,0,,,58,32
323040,note_on,0,0,1,,,,,,,,,,,,,,,0,,,67,48
323040,note_on,0,0,2,,,,,,,,,,,,,,,0,,,58,0
323040,note_on,0,0,1,,,,,,,,,,,,,,,0,,,67,0
323040,note_on,240,0,2,,,,,,,,,,,,,,,0,,,55,0
323040,note_on,0,0,2,,,,,,,,,,,,,,,0,,,52,36
323040,set_tempo,240,1,0,,,,,,,,,,,,443820,,,,,,,
323040,note_on,0,0,1,,,,,,,,,,,,,,,0,,,79,57
323040,note_on,960,0,1,,,,,,,,,,,,,,,0,,,79,0
323280,note_on,0,0,2,,,,,,,,,,,,,,,0,,,55,32
323280,note_on,0,0,2,,,,,,,,,,,,,,,0,,,58,39
323280,note_on,240,0,2,,,,,,,,,,,,,,,0,,,52,0
323520,note_on,0,0,1,,,,,,,,,,,,,,,0,,,79,63
323520,note_on,0,0,1,,,,,,,,,,,,,,,0,,,67,52
323520,note_on,0,0,1,,,,,,,,,,,,,,,0,,,67,0
323520,note_on,480,0,1,,,,,,,,,,,,,,,0,,,79,0
323520,note_on,0,0,2,,,,,,,,,,,,,,,0,,,58,0
323520,note_on,0,0,2,,,,,,,,,,,,,,,0,,,50,44
323520,control_change,0,0,2,,,,,,,,,,,,,,,0,64,0,,
323520,note_on,240,0,2,,,,,,,,,,,,,,,0,,,55,0
323520,set_tempo,480,1,0,,,,,,,,,,,,437031,,,,,,,
323619,control_change,99,0,2,,,,,,,,,,,,,,,0,64,127,,
323760,note_on,0,0,1,,,,,,,,,,,,,,,0,,,77,59
323760,note_on,0,0,1,,,,,,,,,,,,,,,0,,,67,0
323760,note_on,0,0,1,,,,,,,,,,,,,,,0,,,65,48
323760,note_on,0,0,2,,,,,,,,,,,,,,,0,,,62,38
323760,note_on,0,0,2,,,,,,,,,,,,,,,0,,,58,31
323760,note_on,240,0,1,,,,,,,,,,,,,,,0,,,79,0
323760,note_on,141,0,2,,,,,,,,,,,,,,,0,,,50,0
324000,note_on,0,0,2,,,,,,,,,,,,,,,0,,,53,38
324000,set_tempo,480,1,0,,,,,,,,,,,,443820,,,,,,,
324000,note_on,240,0,2,,,,,,,,,,,,,,,0,,,58,0
324000,note_on,0,0,2,,,,,,,,,,,,,,,0,,,62,0
324000,note_on,240,0,1,,,,,,,,,,,,,,,0,,,77,0
324000,note_on,0,0,1,,,,,,,,,,,,,,,0,,,82,58
324000,note_on,0,0,1,,,,,,,,,,,,,,,0,,,70,49
324000,note_on,0,0,1,,,,,,,,,,,,,,,0,,,65,0
324028,control_change,28,0,2,,,,,,,,,,,,,,,0,64,0,,
324141,control_change,113,0,2,,,,,,,,,,,,,,,0,64,127,,
324240,note_on,99,0,2,,,,,,,,,,,,,,,0,,,53,0
324240,note_on,0,0,2,,,,,,,,,,,,,,,0,,,62,38
324240,note_on,0,0,2,,,,,,,,,,,,,,,0,,,58,31
324480,note_on,240,0,2,,,,,,,,,,,,,,,0,,,58,0
324480,note_on,0,0,2,,,,,,,,,,,,,,,0,,,62,0
324480,note_on,0,0,2,,,,,,,,,,,,,,,0,,,50,48
324480,control_change,0,0,2,,,,,,,,,,,,,,,0,64,0,,
324593,control_change,113,0,2,,,,,,,,,,,,,,,0,64,127,,
324720,note_on,0,0,2,,,,,,,,,,,,,,,0,,,58,31
324720,note_on,0,0,2,,,,,,,,,,,,,,,0,,,62,37
324720,note_on,127,0,2,,,,,,,,,,,,,,,0,,,50,0
324960,note_on,0,0,2,,,,,,,,,,,,,,,0,,,62,0
324960,note_on,0,0,2,,,,,,,,,,,,,,,0,,,53,37
324960,set_tempo,960,1,0,,,,,,,,,,,,447327,,,,,,,
324960,note_on,0,0,1,,,,,,,,,,,,,,,0,,,81,61
324960,note_on,0,0,1,,,,,,,,,,,,,,,0,,,69,51
324960,note_on,0,0,1,,,,,,,,,,,,,,,0,,,70,0
324960,note_on,960,0,1,,,,,,,,,,,,,,,0,,,82,0
324960,note_on,240,0,2,,,,,,,,,,,,,,,0,,,58,0
325200,note_on,0,0,2,,,,,,,,,,,,,,,0,,,58,31
325200,note_on,240,0,2,,,,,,,,,,,,,,,0,,,53,0
325200,note_on,0,0,2,,,,,,,,,,,,,,,0,,,62,37
325440,note_on,0,0,1,,,,,,,,,,,,,,,0,,,69,51
325440,note_on,240,0,2,,,,,,,,,,,,,,,0,,,58,0
325440,set_tempo,480,1,0,,,,,,,,,,,,437031,,,,,,,
325440,control_change,0,0,2,,,,,,,,,,,,,,,0,64,0,,
325440,note_on,0,0,2,,,,,,,,,,,,,,,0,,,62,0
325440,note_on,0,0,2,,,,,,,,,,,,,,,0,,,51,50
325440,note_on,0,0,1,,,,,,,,,,,,,,,0,,,81,61
325440,note_on,480,0,1,,,,,,,,,,,,,,,0,,,81,0
325440,note_on,0,0,1,,,,,,,,,,,,,,,0,,,69,0
325567,control_change,127,0,2,,,,,,,,,,,,,,,0,64,127,,
325680,note_on,240,0,1,,,,,,,,,,,,,,,0,,,81,0
325680,note_on,113,0,2,,,,,,,,,,,,,,,0,,,51,0
325680,note_on,0,0,2,,,,,,,,,,,,,,,0,,,63,40
325680,note_on,0,0,1,,,,,,,,,,,,,,,0,,,69,0
325680,note_on,0,0,1,,,,,,,,,,,,,,,0,,,79,54
325680,note_on,0,0,1,,,,,,,,,,,,,,,0,,,67,46
325680,note_on,0,0,2,,,,,,,,,,,,,,,0,,,60,34
325920,note_on,0,0,1,,,,,,,,,,,,,,,0,,,87,71
325920,note_on,0,0,2,,,,,,,,,,,,,,,0,,,55,37
325920,note_on,0,0,2,,,,,,,,,,,,,,,0,,,63,0
325920,note_on,240,0,1,,,,,,,,,,,,,,,0,,,67,0
325920,set_tempo,480,1,0,,,,,,,,,,,,447327,,,,,,,
325920,note_on,0,0,1,,,,,,,,,,,,,,,0,,,75,59
325920,note_on,240,0,2,,,,,,,,,,,,,,,0,,,60,0
325920,note_on,0,0,1,,,,,,,,,,,,,,,0,,,79,0
325948,control_change,28,0,2,,,,,,,,,,,,,,,0,64,0,,
326047,control_change,99,0,2,,,,,,,,,,,,,,,0,64,127,,
326160,note_on,113,0,2,,,,,,,,,,,,,,,0,,,55,0
326160,note_on,0,0,2,,,,,,,,,,,,,,,0,,,60,31
326160,note_on,0,0,2,,,,,,,,,,,,,,,0,,,63,37
326400,note_on,480,0,1,,,,,,,,,,,,,,,0,,,75,0
326400,note_on,0,0,1,,,,,,,,,,,,,,,0,,,74,52
326400,note_on,0,0,1,,,,,,,,,,,,,,,0,,,87,0
326400,note_on,0,0,1,,,,,,,,,,,,,,,0,,,86,63
326400,note_on,240,0,2,,,,,,,,,,,,,,,0,,,60,0
326400,note_on,0,0,2,,,,,,,,,,,,,,,0,,,63,0
326400,note_on,0,0,2,,,,,,,,,,,,,,,0,,,53,44
326400,control_change,0,0,2,,,,,,,,,,,,,,,0,64,0,,
326513,control_change,113,0,2,,,,,,,,,,,,,,,0,64,127,,
326640,note_on,127,0,2,,,,,,,,,,,,,,,0,,,53,0
326640,note_on,0,0,2,,,,,,,,,,,,,,,0,,,62,34
326640,note_on,0,0,2,,,,,,,,,,,,,,,0,,,58,28
326880,note_on,480,0,1,,,,,,,,,,,,,,,0,,,74,0
326880,note_on,0,0,2,,,,,,,,,,,,,,,0,,,62,0
326880,note_on,0,0,1,,,,,,,,,,,,,,,0,,,86,0
326880,note_on,240,0,2,,,,,,,,,,,,,,,0,,,58,0
326880,note_on,0,0,2,,,,,,,,,,,,,,,0,,,53,34
326880,note_on,0,0,1,,,,,,,,,,,,,,,0,,,84,53
326880,note_on,0,0,1,,,,,,,,,,,,,,,0,,,72,45
326922,control_change,42,0,2,,,,,,,,,,,,,,,0,64,0,,
327007,control_change,85,0,2,,,,,,,,,,,,,,,0,64,127,,
327120,note_on,113,0,2,,,,,,,,,,,,,,,0,,,53,0
327120,note_on,0,0,2,,,,,,,,,,,,,,,0,,,63,34
327120,note_on,0,0,2,,,,,,,,,,,,,,,0,,,57,28
327360,note_on,480,0,1,,,,,,,,,,,,,,,0,,,72,0
327360,control_change,0,0,2,,,,,,,,,,,,,,,0,64,0,,
327360,note_on,0,0,1,,,,,,,,,,,,,,,0,,,70,44
327360,note_on,0,0,1,,,,,,,,,,,,,,,0,,,82,53
327360,note_on,0,0,2,,,,,,,,,,,,,,,0,,,46,38
327360,note_on,0,0,2,,,,,,,,,,,,,,,0,,,63,0
327360,note_on,240,0,2,,,,,,,,,,,,,,,0,,,57,0
327360,note_on,0,0,1,,,,,,,,,,,,,,,0,,,84,0
327409,control_change,49,0,2,,,,,,,,,,,,,,,0,64,127,,
327600,note_on,240,0,1,,,,,,,,,,,,,,,0,,,82,0
327600,note_on,0,0,1,,,,,,,,,,,,,,,0,,,70,0
327600,note_on,0,0,2,,,,,,,,,,,,,,,0,,,58,25
327600,note_on,0,0,2,,,,,,,,,,,,,,,0,,,62,30
327600,note_on,191,0,2,,,,,,,,,,,,,,,0,,,46,0
327819,control_change,219,0,2,,,,,,,,,,,,,,,0,64,0,,
327840,note_on,240,0,1,,,,,,,,,,,,,,,0,,,74,46
327840,note_on,21,0,2,,,,,,,,,,,,,,,0,,,58,0
327840,note_on,0,0,2,,,,,,,,,,,,,,,0,,,62,0
327840,note_on,0,0,2,,,,,,,,,,,,,,,0,,,50,30
327840,set_tempo,1920,1,0,,,,,,,,,,,,437031,,,,,,,
327861,control_change,21,0,2,,,,,,,,,,,,,,,0,64,127,,
327960,note_on,120,0,1,,,,,,,,,,,,,,,0,,,74,0
328000,note_on,40,0,1,,,,,,,,,,,,,,,0,,,74,48
328080,note_on,0,0,2,,,,,,,,,,,,,,,0,,,62,30
328080,note_on,219,0,2,,,,,,,,,,,,,,,0,,,50,0
328080,note_on,0,0,2,,,,,,,,,,,,,,,0,,,58,25
328120,note_on,120,0,1,,,,,,,,,,,,,,,0,,,74,0
328160,note_on,40,0,1,,,,,,,,,,,,,,,0,,,74,50
328280,note_on,120,0,1,,,,,,,,,,,,,,,0,,,74,0
328320,note_on,40,0,1,,,,,,,,,,,,,,,0,,,74,51
328320,note_on,240,0,2,,,,,,,,,,,,,,,0,,,58,0
328320,note_on,0,0,2,,,,,,,,,,,,,,,0,,,62,0
328320,note_on,0,0,2,,,,,,,,,,,,,,,0,,,53,36
328440,note_on,120,0,1,,,,,,,,,,,,,,,0,,,74,0
328480,note_on,40,0,1,,,,,,,,,,,,,,,0,,,74,49
328560,note_on,0,0,2,,,,,,,,,,,,,,,0,,,62,30
328560,note_on,0,0,2,,,,,,,,,,,,,,,0,,,58,25
328560,note_on,240,0,2,,,,,,,,,,,,,,,0,,,53,0
328600,note_on,120,0,1,,,,,,,,,,,,,,,0,,,74,0
328640,note_on,40,0,1,,,,,,,,,,,,,,,0,,,74,47
328760,note_on,120,0,1,,,,,,,,,,,,,,,0,,,74,0
328800,set_tempo,960,1,0,,,,,,,,,,,,449068,,,,,,,
328800,note_on,0,0,2,,,,,,,,,,,,,,,0,,,54,30
328800,note_on,40,0,1,,,,,,,,,,,,,,,0,,,74,51
328800,note_on,0,0,2,,,,,,,,,,,,,,,0,,,62,0
328800,note_on,240,0,2,,,,,,,,,,,,,,,0,,,58,0
328821,control_change,21,0,2,,,,,,,,,,,,,,,0,64,0,,
328856,control_change,35,0,2,,,,,,,,,,,,,,,0,64,127,,
328920,note_on,120,0,1,,,,,,,,,,,,,,,0,,,74,0
328920,note_on,0,0,1,,,,,,,,,,,,,,,0,,,72,46
329040,note_on,120,0,1,,,,,,,,,,,,,,,0,,,72,0
329040,note_on,0,0,1,,,,,,,,,,,,,,,0,,,74,47
329040,note_on,0,0,2,,,,,,,,,,,,,,,0,,,60,26
329040,note_on,0,0,2,,,,,,,,,,,,,,,0,,,62,31
329040,note_on,184,0,2,,,,,,,,,,,,,,,0,,,54,0
329160,note_on,120,0,1,,,,,,,,,,,,,,,0,,,74,0
329160,note_on,0,0,1,,,,,,,,,,,,,,,0,,,75,47
329280,note_on,120,0,1,,,,,,,,,,,,,,,0,,,75,0
329280,note_on,240,0,2,,,,,,,,,,,,,,,0,,,60,0
329280,note_on,0,0,2,,,,,,,,,,,,,,,0,,,62,0
329280,note_on,0,0,1,,,,,,,,,,,,,,,0,,,74,53
329280,note_on,0,0,2,,,,,,,,,,,,,,,0,,,62,34
329280,note_on,0,0,2,,,,,,,,,,,,,,,0,,,59,29
329280,note_on,0,0,2,,,,,,,,,,,,,,,0,,,55,29
329280,control_change,0,0,2,,,,,,,,,,,,,,,0,64,0,,
329280,set_tempo,480,1,0,,,,,,,,,,,,477251,,,,,,,
329520,note_on,240,0,1,,,,,,,,,,,,,,,0,,,74,0
329520,note_on,240,0,2,,,,,,,,,,,,,,,0,,,55,0
329520,note_on,0,0,2,,,,,,,,,,,,,,,0,,,59,0
329520,note_on,0,0,2,,,,,,,,,,,,,,,0,,,62,0
329760,set_tempo,480,1,0,,,,,,,,,,,,438725,,,,,,,
329760,note_on,0,0,2,,,,,,,,,,,,,,,0,,,67,94
329760,note_on,240,0,2,,,,,,,,,,,,,,,0,,,55,78
330960,note_on,1440,0,1,,,,,,,,,,,,,,,0,,,86,52
330960,set_tempo,1200,1,0,,,,,,,,,,,,452625,,,,,,,
331080,note_on,120,0,1,,,,,,,,,,,,,,,0,,,86,0
331200,note_on,0,0,2,,,,,,,,,,,,,,,0,,,55,42
331200,note_on,0,0,2,,,,,,,,,,,,,,,0,,,55,0
331200,note_on,1440,0,2,,,,,,,,,,,,,,,0,,,67,0
331200,note_on,120,0,1,,,,,,,,,,,,,,,0,,,84,63
331200,set_tempo,240,1,0,,,,,,,,,,,,432059,,,,,,,
331440,note_on,0,0,1,,,,,,,,,,,,,,,0,,,83,37
331440,note_on,240,0,1,,,,,,,,,,,,,,,0,,,84,0
331440,note_on,0,0,2,,,,,,,,,,,,,,,0,,,67,31
331440,note_on,240,0,2,,,,,,,,,,,,,,,0,,,55,0
331560,note_on,120,0,2,,,,,,,,,,,,,,,0,,,67,0
331560,note_on,120,0,1,,,,,,,,,,,,,,,0,,,83,0
331680,note_on,120,0,1,,,,,,,,,,,,,,,0,,,83,43
331680,note_on,120,0,2,,,,,,,,,,,,,,,0,,,65,31
331680,note_on,0,0,2,,,,,,,,,,,,,,,0,,,62,26
331680,set_tempo,480,1,0,,,,,,,,,,,,438725,,,,,,,
331800,note_on,0,0,2,,,,,,,,,,,,,,,0,,,65,0
331800,note_on,120,0,1,,,,,,,,,,,,,,,0,,,83,0
331800,note_on,120,0,2,,,,,,,,,,,,,,,0,,,62,0
331920,set_tempo,240,1,0,,,,,,,,,,,,445567,,,,,,,
331920,note_on,120,0,2,,,,,,,,,,,,,,,0,,,67,32
331920,note_on,120,0,1,,,,,,,,,,,,,,,0,,,83,37
332040,note_on,120,0,2,,,,,,,,,,,,,,,0,,,67,0
332040,note_on,120,0,1,,,,,,,,,,,,,,,0,,,83,0
332160,set_tempo,240,1,0,,,,,,,,,,,,422476,,,,,,,
332160,note_on,120,0,2,,,,,,,,,,,,,,,0,,,55,44
332160,note_on,120,0,1,,,,,,,,,,,,,,,0,,,83,55
332280,set_tempo,120,1,0,,,,,,,,,,,,459946,,,,,,,
332280,note_on,120,0,1,,,,,,,,,,,,,,,0,,,83,0
332280,note_on,0,0,1,,,,,,,,,,,,,,,0,,,84,49
332400,note_on,240,0,2,,,,,,,,,,,,,,,0,,,55,0
332400,note_on,0,0,2,,,,,,,,,,,,,,,0,,,67,31
332400,set_tempo,120,1,0,,,,,,,,,,,,430447,,,,,,,
332400,note_on,0,0,1,,,,,,,,,,,,,,,0,,,91,59
332400,note_on,120,0,1,,,,,,,,,,,,,,,0,,,84,0
332640,note_on,240,0,2,,,,,,,,,,,,,,,0,,,67,0
332640,set_tempo,240,1,0,,,,,,,,,,,,433714,,,,,,,
332640,note_on,0,0,1,,,,,,,,,,,,,,,0,,,89,50
332640,note_on,240,0,1,,,,,,,,,,,,,,,0,,,91,0
332640,note_on,0,0,2,,,,,,,,,,,,,,,0,,,60,29
332640,note_on,0,0,2,,,,,,,,,,,,,,,0,,,63,35
332760,note_on,120,0,1,,,,,,,,,,,,,,,0,,,89,0
332760,note_on,0,0,1,,,,,,,,,,,,,,,0,,,87,45
332880,note_on,240,0,2,,,,,,,,,,,,,,,0,,,63,0
332880,note_on,0,0,1,,,,,,,,,,,,,,,0,,,86,45
332880,note_on,120,0,1,,,,,,,,,,,,,,,0,,,87,0
332880,set_tempo,240,1,0,,,,,,,,,,,,449068,,,,,,,
332880,note_on,0,0,2,,,,,,,,,,,,,,,0,,,60,0
332880,note_on,0,0,2,,,,,,,,,,,,,,,0,,,67,32
333000,note_on,0,0,1,,,,,,,,,,,,,,,0,,,84,45
333000,note_on,120,0,1,,,,,,,,,,,,,,,0,,,86,0
333120,note_on,0,0,1,,,,,,,,,,,,,,,0,,,84,63
333120,note_on,120,0,1,,,,,,,,,,,,,,,0,,,84,0
333120,set_tempo,240,1,0,,,,,,,,,,,,432059,,,,,,,
333120,note_on,240,0,2,,,,,,,,,,,,,,,0,,,67,0
333120,note_on,0,0,2,,,,,,,,,,,,,,,0,,,55,42
333360,note_on,0,0,1,,,,,,,,,,,,,,,0,,,83,37
333360,note_on,240,0,1,,,,,,,,,,,,,,,0,,,84,0
333360,note_on,240,0,2,,,,,,,,,,,,,,,0,,,55,0
333360,note_on,0,0,2,,,,,,,,,,,,,,,0,,,67,31
333480,note_on,120,0,2,,,,,,,,,,,,,,,0,,,67,0
333480,note_on,120,0,1,,,,,,,,,,,,,,,0,,,83,0
333600,note_on,120,0,1,,,,,,,,,,,,,,,0,,,83,44
333600,set_tempo,480,1,0,,,,,,,,,,,,437031,,,,,,,
333600,note_on,120,0,2,,,,,,,,,,,,,,,0,,,65,31
333600,note_on,0,0,2,,,,,,,,,,,,,,,0,,,62,26
333720,note_on,120,0,1,,,,,,,,,,,,,,,0,,,83,0
333720,note_on,120,0,2,,,,,,,,,,,,,,,0,,,62,0
333720,note_on,0,0,2,,,,,,,,,,,,,,,0,,,65,0
333840,set_tempo,240,1,0,,,,,,,,,,,,449068,,,,,,,
333840,note_on,120,0,1,,,,,,,,,,,,,,,0,,,83,37
333840,note_on,120,0,2,,,,,,,,,,,,,,,0,,,67,29
333960,note_on,120,0,2,,,,,,,,,,,,,,,0,,,67,0
333960,note_on,120,0,1,,,,,,,,,,,,,,,0,,,83,0
334080,note_on,120,0,2,,,,,,,,,,,,,,,0,,,55,44
334080,set_tempo,240,1,0,,,,,,,,,,,,438725,,,,,,,
334080,note_on,120,0,1,,,,,,,,,,,,,,,0,,,83,57
334320,note_on,0,0,2,,,,,,,,,,,,,,,0,,,67,32
334320,note_on,240,0,2,,,,,,,,,,,,,,,0,,,55,0
334320,note_on,240,0,1,,,,,,,,,,,,,,,0,,,83,0
334320,note_on,0,0,1,,,,,,,,,,,,,,,0,,,84,47
334440,note_on,120,0,2,,,,,,,,,,,,,,,0,,,67,0
334440,note_on,120,0,1,,,,,,,,,,,,,,,0,,,84,0
334560,note_on,0,0,2,,,,,,,,,,,,,,,0,,,63,35
334560,note_on,0,0,2,,,,,,,,,,,,,,,0,,,60,29
334560,note_on,120,0,2,,,,,,,,,,,,,,,0,,,54,29
334680,note_on,120,0,2,,,,,,,,,,,,,,,0,,,63,0
334680,note_on,0,0,2,,,,,,,,,,,,,,,0,,,60,0
334680,note_on,0,0,2,,,,,,,,,,,,,,,0,,,54,0
334800,note_on,360,0,1,,,,,,,,,,,,,,,0,,,87,54
334800,set_tempo,720,1,0,,,,,,,,,,,,447327,,,,,,,
334800,note_on,120,0,2,,,,,,,,,,,,,,,0,,,66,35
335040,note_on,240,0,1,,,,,,,,,,,,,,,0,,,87,0
335040,note_on,0,0,1,,,,,,,,,,,,,,,0,,,84,63
335040,set_tempo,240,1,0,,,,,,,,,,,,430447,,,,,,,
335040,note_on,240,0,2,,,,,,,,,,,,,,,0,,,66,0
335040,note_on,0,0,2,,,,,,,,,,,,,,,0,,,53,42
335280,note_on,0,0,1,,,,,,,,,,,,,,,0,,,82,52
335280,note_on,240,0,1,,,,,,,,,,,,,,,0,,,84,0
335280,note_on,0,0,2,,,,,,,,,,,,,,,0,,,65,35
335280,note_on,240,0,2,,,,,,,,,,,,,,,0,,,53,0
335400,note_on,120,0,1,,,,,,,,,,,,,,,0,,,82,0
335400,note_on,120,0,2,,,,,,,,,,,,,,,0,,,65,0
335520,set_tempo,480,1,0,,,,,,,,,,,,438725,,,,,,,
335520,note_on,120,0,2,,,,,,,,,,,,,,,0,,,62,35
335520,note_on,120,0,1,,,,,,,,,,,,,,,0,,,82,54
335640,note_on,120,0,2,,,,,,,,,,,,,,,0,,,62,0
335640,note_on,120,0,1,,,,,,,,,,,,,,,0,,,82,0
335760,note_on,120,0,2,,,,,,,,,,,,,,,0,,,65,36
335760,note_on,120,0,1,,,,,,,,,,,,,,,0,,,82,54
335880,note_on,120,0,1,,,,,,,,,,,,,,,0,,,82,0
335880,note_on,120,0,2,,,,,,,,,,,,,,,0,,,65,0
336000,note_on,120,0,1,,,,,,,,,,,,,,,0,,,84,63
336000,set_tempo,480,1,0,,,,,,,,,,,,432059,,,,,,,
336000,note_on,120,0,2,,,,,,,,,,,,,,,0,,,55,42
336240,note_on,240,0,1,,,,,,,,,,,,,,,0,,,84,0
336240,note_on,0,0,1,,,,,,,,,,,,,,,0,,,82,53
336240,note_on,240,0,2,,,,,,,,,,,,,,,0,,,55,0
336240,note_on,0,0,2,,,,,,,,,,,,,,,0,,,64,36
336360,note_on,120,0,1,,,,,,,,,,,,,,,0,,,82,0
336360,note_on,120,0,2,,,,,,,,,,,,,,,0,,,64,0
336480,note_on,120,0,1,,,,,,,,,,,,,,,0,,,82,55
336480,note_on,120,0,2,,,,,,,,,,,,,,,0,,,60,36
336480,set_tempo,480,1,0,,,,,,,,,,,,438725,,,,,,,
336600,note_on,120,0,1,,,,,,,,,,,,,,,0,,,82,0
336600,note_on,120,0,2,,,,,,,,,,,,,,,0,,,60,0
336720,note_on,120,0,1,,,,,,,,,,,,,,,0,,,82,55
336720,note_on,120,0,2,,,,,,,,,,,,,,,0,,,64,36
336840,note_on,120,0,1,,,,,,,,,,,,,,,0,,,82,0
336840,note_on,120,0,2,,,,,,,,,,,,,,,0,,,64,0
336960,set_tempo,480,1,0,,,,,,,,,,,,430447,,,,,,,
336960,note_on,120,0,1,,,,,,,,,,,,,,,0,,,79,63
336960,note_on,0,0,2,,,,,,,,,,,,,,,0,,,53,35
336960,note_on,120,0,2,,,,,,,,,,,,,,,0,,,62,42
337002,control_change,42,0,2,,,,,,,,,,,,,,,0,64,127,,
337080,note_on,120,0,1,,,,,,,,,,,,,,,0,,,79,0
337080,note_on,0,0,1,,,,,,,,,,,,,,,0,,,77,52
337200,note_on,198,0,2,,,,,,,,,,,,,,,0,,,53,0
337200,note_on,0,0,2,,,,,,,,,,,,,,,0,,,62,0
337200,note_on,0,0,2,,,,,,,,,,,,,,,0,,,65,33
337200,note_on,120,0,1,,,,,,,,,,,,,,,0,,,77,0
337200,note_on,0,0,1,,,,,,,,,,,,,,,0,,,76,53
337320,note_on,120,0,1,,,,,,,,,,,,,,,0,,,76,0
337320,note_on,0,0,1,,,,,,,,,,,,,,,0,,,77,53
337440,note_on,0,0,2,,,,,,,,,,,,,,,0,,,57,35
337440,set_tempo,480,1,0,,,,,,,,,,,,443820,,,,,,,
337440,note_on,120,0,1,,,,,,,,,,,,,,,0,,,77,0
337440,note_on,0,0,2,,,,,,,,,,,,,,,0,,,53,29
337440,note_on,0,0,1,,,,,,,,,,,,,,,0,,,75,58
337440,note_on,240,0,2,,,,,,,,,,,,,,,0,,,65,0
337475,control_change,35,0,2,,,,,,,,,,,,,,,0,64,0,,
337560,note_on,120,0,1,,,,,,,,,,,,,,,0,,,75,0
337560,note_on,85,0,2,,,,,,,,,,,,,,,0,,,53,0
337560,note_on,0,0,2,,,,,,,,,,,,,,,0,,,57,0
337680,note_on,120,0,2,,,,,,,,,,,,,,,0,,,63,34
337680,set_tempo,240,1,0,,,,,,,,,,,,456274,,,,,,,
337680,note_on,120,0,1,,,,,,,,,,,,,,,0,,,72,54
337800,note_on,120,0,1,,,,,,,,,,,,,,,0,,,72,0
337800,note_on,120,0,2,,,,,,,,,,,,,,,0,,,63,0
337920,note_on,120,0,2,,,,,,,,,,,,,,,0,,,62,42
337920,set_tempo,240,1,0,,,,,,,,,,,,442119,,,,,,,
337920,note_on,120,0,1,,,,,,,,,,,,,,,0,,,70,58
337920,note_on,0,0,2,,,,,,,,,,,,,,,0,,,58,42
338040,note_on,120,0,1,,,,,,,,,,,,,,,0,,,70,0
338160,note_on,240,0,2,,,,,,,,,,,,,,,0,,,58,0
338160,note_on,0,0,2,,,,,,,,,,,,,,,0,,,62,0
338160,set_tempo,240,1,0,,,,,,,,,,,,430447,,,,,,,
338160,note_on,120,0,1,,,,,,,,,,,,,,,0,,,74,55
338160,note_on,0,0,2,,,,,,,,,,,,,,,0,,,65,38
338280,note_on,120,0,1,,,,,,,,,,,,,,,0,,,74,0
338400,note_on,120,0,1,,,,,,,,,,,,,,,0,,,77,55
338400,set_tempo,240,1,0,,,,,,,,,,,,438725,,,,,,,
338400,note_on,240,0,2,,,,,,,,,,,,,,,0,,,65,0
338400,note_on,0,0,2,,,,,,,,,,,,,,,0,,,62,38
338520,note_on,120,0,1,,,,,,,,,,,,,,,0,,,77,0
338640,note_on,120,0,1,,,,,,,,,,,,,,,0,,,82,55
338640,set_tempo,240,1,0,,,,,,,,,,,,449068,,,,,,,
338640,note_on,240,0,2,,,,,,,,,,,,,,,0,,,62,0
338640,note_on,0,0,2,,,,,,,,,,,,,,,0,,,58,38
338760,note_on,120,0,1,,,,,,,,,,,,,,,0,,,82,0
338880,note_on,240,0,2,,,,,,,,,,,,,,,0,,,58,0
338880,note_on,0,0,2,,,,,,,,,,,,,,,0,,,55,43
338880,note_on,120,0,1,,,,,,,,,,,,,,,0,,,86,60
338880,set_tempo,240,1,0,,,,,,,,,,,,449068,,,,,,,
339120,note_on,0,0,2,,,,,,,,,,,,,,,0,,,64,37
339120,note_on,240,0,2,,,,,,,,,,,,,,,0,,,55,0
339120,note_on,240,0,1,,,,,,,,,,,,,,,0,,,86,0
339120,note_on,0,0,1,,,,,,,,,,,,,,,0,,,84,58
339120,set_tempo,240,1,0,,,,,,,,,,,,443820,,,,,,,
339240,note_on,120,0,2,,,,,,,,,,,,,,,0,,,64,0
339240,note_on,120,0,1,,,,,,,,,,,,,,,0,,,84,0
339360,note_on,120,0,1,,,,,,,,,,,,,,,0,,,84,61
339360,note_on,120,0,2,,,,,,,,,,,,,,,0,,,58,39
339480,note_on,120,0,1,,,,,,,,,,,,,,,0,,,84,0
339600,note_on,0,0,2,,,,,,,,,,,,,,,0,,,64,42
339600,note_on,120,0,1,,,,,,,,,,,,,,,0,,,84,58
339600,note_on,240,0,2,,,,,,,,,,,,,,,0,,,58,0
339720,note_on,120,0,1,,,,,,,,,,,,,,,0,,,84,0
339840,set_tempo,720,1,0,,,,,,,,,,,,430447,,,,,,,
339840,note_on,0,0,2,,,,,,,,,,,,,,,0,,,53,35
339840,note_on,240,0,2,,,,,,,,,,,,,,,0,,,64,0
339840,note_on,120,0,1,,,,,,,,,,,,,,,0,,,79,63
339882,control_change,42,0,2,,,,,,,,,,,,,,,0,64,127,,
339960,note_on,120,0,1,,,,,,,,,,,,,,,0,,,79,0
339960,note_on,0,0,1,,,,,,,,,,,,,,,0,,,77,52
340080,note_on,0,0,2,,,,,,,,,,,,,,,0,,,65,33
340080,note_on,198,0,2,,,,,,,,,,,,,,,0,,,53,0
340080,note_on,0,0,1,,,,,,,,,,,,,,,0,,,76,53
340080,note_on,120,0,1,,,,,,,,,,,,,,,0,,,77,0
340200,note_on,0,0,1,,,,,,,,,,,,,,,0,,,77,53
340200,note_on,120,0,1,,,,,,,,,,,,,,,0,,,76,0
340320,note_on,0,0,2,,,,,,,,,,,,,,,0,,,57,35
340320,note_on,240,0,2,,,,,,,,,,,,,,,0,,,65,0
340320,note_on,120,0,1,,,,,,,,,,,,,,,0,,,77,0
340320,set_tempo,480,1,0,,,,,,,,,,,,443820,,,,,,,
340320,note_on,0,0,1,,,,,,,,,,,,,,,0,,,72,58
340355,control_change,35,0,2,,,,,,,,,,,,,,,0,64,0,,
340440,note_on,120,0,1,,,,,,,,,,,,,,,0,,,72,0
340440,note_on,85,0,2,,,,,,,,,,,,,,,0,,,57,0
340560,set_tempo,240,1,0,,,,,,,,,,,,452625,,,,,,,
340560,note_on,120,0,1,,,,,,,,,,,,,,,0,,,69,54
340560,note_on,120,0,2,,,,,,,,,,,,,,,0,,,65,34
340680,note_on,120,0,1,,,,,,,,,,,,,,,0,,,69,0
340680,note_on,120,0,2,,,,,,,,,,,,,,,0,,,65,0
340800,set_tempo,240,1,0,,,,,,,,,,,,437031,,,,,,,
340800,note_on,120,0,2,,,,,,,,,,,,,,,0,,,55,43
340800,note_on,120,0,1,,,,,,,,,,,,,,,0,,,86,65
341040,note_on,240,0,1,,,,,,,,,,,,,,,0,,,86,0
341040,note_on,240,0,2,,,,,,,,,,,,,,,0,,,55,0
341040,note_on,0,0,2,,,,,,,,,,,,,,,0,,,64,35
341040,note_on,0,0,1,,,,,,,,,,,,,,,0,,,84,58
341040,set_tempo,240,1,0,,,,,,,,,,,,447327,,,,,,,
341160,note_on,120,0,1,,,,,,,,,,,,,,,0,,,84,0
341160,note_on,120,0,2,,,,,,,,,,,,,,,0,,,64,0
341280,note_on,120,0,1,,,,,,,,,,,,,,,0,,,84,61
341280,note_on,120,0,2,,,,,,,,,,,,,,,0,,,58,35
341400,note_on,120,0,1,,,,,,,,,,,,,,,0,,,84,0
341520,note_on,0,0,2,,,,,,,,,,,,,,,0,,,64,36
341520,note_on,120,0,1,,,,,,,,,,,,,,,0,,,84,58
341520,note_on,240,0,2,,,,,,,,,,,,,,,0,,,58,0
341640,note_on,120,0,1,,,,,,,,,,,,,,,0,,,84,0
341760,note_on,0,0,2,,,,,,,,,,,,,,,0,,,53,29
341760,note_on,240,0,2,,,,,,,,,,,,,,,0,,,64,0
341760,note_on,0,0,2,,,,,,,,,,,,,,,0,,,65,35
341760,note_on,120,0,1,,,,,,,,,,,,,,,0,,,79,63
341760,set_tempo,720,1,0,,,,,,,,,,,,430447,,,,,,,
341760,note_on,0,0,2,,,,,,,,,,,,,,,0,,,57,29
341802,control_change,42,0,2,,,,,,,,,,,,,,,0,64,127,,
341880,note_on,120,0,1,,,,,,,,,,,,,,,0,,,79,0
341880,note_on,0,0,1,,,,,,,,,,,,,,,0,,,77,52
342000,note_on,120,0,1,,,,,,,,,,,,,,,0,,,77,0
342000,note_on,0,0,1,,,,,,,,,,,,,,,0,,,76,53
342120,note_on,0,0,1,,,,,,,,,,,,,,,0,,,77,53
342120,note_on,120,0,1,,,,,,,,,,,,,,,0,,,76,0
342240,note_on,0,0,2,,,,,,,,,,,,,,,0,,,53,0
342240,note_on,0,0,1,,,,,,,,,,,,,,,0,,,72,58
342240,note_on,120,0,1,,,,,,,,,,,,,,,0,,,77,0
342240,note_on,0,0,2,,,,,,,,,,,,,,,0,,,57,0
342240,note_on,438,0,2,,,,,,,,,,,,,,,0,,,65,0
342240,set_tempo,480,1,0,,,,,,,,,,,,443820,,,,,,,
342275,control_change,35,0,2,,,,,,,,,,,,,,,0,64,0,,
342360,note_on,120,0,1,,,,,,,,,,,,,,,0,,,72,0
342480,note_on,120,0,1,,,,,,,,,,,,,,,0,,,69,54
342480,set_tempo,240,1,0,,,,,,,,,,,,456274,,,,,,,
342600,note_on,120,0,1,,,,,,,,,,,,,,,0,,,69,0
342720,note_on,120,0,1,,,,,,,,,,,,,,,0,,,65,46
342720,set_tempo,240,1,0,,,,,,,,,,,,461538,,,,,,,
342840,note_on,120,0,1,,,,,,,,,,,,,,,0,,,65,0
342960,note_on,685,0,2,,,,,,,,,,,,,,,0,,,60,39
343080,note_on,120,0,2,,,,,,,,,,,,,,,0,,,60,0
343200,note_on,120,0,2,,,,,,,,,,,,,,,0,,,57,43
343200,set_tempo,480,1,0,,,,,,,,,,,,472441,,,,,,,
343320,note_on,120,0,2,,,,,,,,,,,,,,,0,,,57,0
343440,note_on,120,0,2,,,,,,,,,,,,,,,0,,,55,47
343560,note_on,120,0,2,,,,,,,,,,,,,,,0,,,55,0
343640,set_tempo,440,1,0,,,,,,,,,,,,481928,,,,,,,
343680,set_tempo,40,1,0,,,,,,,,,,,,481928,,,,,,,
343680,note_on,120,0,2,,,,,,,,,,,,,,,0,,,53,50
343800,note_on,120,0,2,,,,,,,,,,,,,,,0,,,53,0
343920,set_tempo,240,1,0,,,,,,,,,,,,497925,,,,,,,
343920,note_on,0,0,1,,,,,,,,,,,,,,,0,,,77,52
343920,note_on,120,0,2,,,,,,,,,,,,,,,0,,,51,46
343920,note_on,0,0,1,,,,,,,,,,,,,,,0,,,72,52
343920,note_on,1080,0,1,,,,,,,,,,,,,,,0,,,69,52
344000,set_tempo,80,1,0,,,,,,,,,,,,500000,,,,,,,
344040,set_tempo,40,1,0,,,,,,,,,,,,502092,,,,,,,
344040,note_on,120,0,2,,,,,,,,,,,,,,,0,,,51,0
344040,note_on,0,0,1,,,,,,,,,,,,,,,0,,,69,0
344040,note_on,0,0,1,,,,,,,,,,,,,,,0,,,72,0
344040,note_on,120,0,1,,,,,,,,,,,,,,,0,,,77,0
344080,set_tempo,40,1,0,,,,,,,,,,,,504202,,,,,,,
344120,set_tempo,40,1,0,,,,,,,,,,,,506329,,,,,,,
344160,note_on,0,0,1,,,,,,,,,,,,,,,0,,,74,52
344160,note_on,0,0,1,,,,,,,,,,,,,,,0,,,77,52
344160,note_on,120,0,2,,,,,,,,,,,,,,,0,,,50,43
344160,note_on,120,0,1,,,,,,,,,,,,,,,0,,,69,52
344200,set_tempo,80,1,0,,,,,,,,,,,,508475,,,,,,,
344240,set_tempo,40,1,0,,,,,,,,,,,,510638,,,,,,,
344280,set_tempo,40,1,0,,,,,,,,,,,,512821,,,,,,,
344280,note_on,0,0,1,,,,,,,,,,,,,,,0,,,69,0
344280,note_on,0,0,1,,,,,,,,,,,,,,,0,,,74,0
344280,note_on,120,0,2,,,,,,,,,,,,,,,0,,,50,0
344280,note_on,120,0,1,,,,,,,,,,,,,,,0,,,77,0
344320,set_tempo,40,1,0,,,,,,,,,,,,515021,,,,,,,
344360,set_tempo,40,1,0,,,,,,,,,,,,517241,,,,,,,
344400,note_on,0,0,1,,,,,,,,,,,,,,,0,,,77,52
344400,note_on,120,0,2,,,,,,,,,,,,,,,0,,,48,39
344400,note_on,120,0,1,,,,,,,,,,,,,,,0,,,69,52
344400,note_on,0,0,1,,,,,,,,,,,,,,,0,,,75,52
344440,set_tempo,80,1,0,,,,,,,,,,,,519481,,,,,,,
344480,set_tempo,40,1,0,,,,,,,,,,,,521739,,,,,,,
344520,note_on,0,0,1,,,,,,,,,,,,,,,0,,,75,0
344520,set_tempo,40,1,0,,,,,,,,,,,,524017,,,,,,,
344520,note_on,0,0,1,,,,,,,,,,,,,,,0,,,69,0
344520,note_on,120,0,1,,,,,,,,,,,,,,,0,,,77,0
344520,note_on,120,0,2,,,,,,,,,,,,,,,0,,,48,0
344560,set_tempo,40,1,0,,,,,,,,,,,,526316,,,,,,,
344600,set_tempo,40,1,0,,,,,,,,,,,,528634,,,,,,,
344640,set_tempo,40,1,0,,,,,,,,,,,,533333,,,,,,,
344640,control_change,120,0,2,,,,,,,,,,,,,,,0,64,127,,
344640,note_on,120,0,1,,,,,,,,,,,,,,,0,,,77,52
344680,set_tempo,40,1,0,,,,,,,,,,,,528634,,,,,,,
344720,set_tempo,40,1,0,,,,,,,,,,,,524017,,,,,,,
344760,note_on,120,0,1,,,,,,,,,,,,,,,0,,,74,34
344760,set_tempo,40,1,0,,,,,,,,,,,,519481,,,,,,,
344800,set_tempo,40,1,0,,,,,,,,,,,,512821,,,,,,,
344840,set_tempo,40,1,0,,,,,,,,,,,,508475,,,,,,,
344880,set_tempo,40,1,0,,,,,,,,,,,,504202,,,,,,,
344880,note_on,240,0,2,,,,,,,,,,,,,,,0,,,34,33
344880,note_on,0,0,1,,,,,,,,,,,,,,,0,,,70,33
344880,note_on,120,0,1,,,,,,,,,,,,,,,0,,,74,0
344920,set_tempo,40,1,0,,,,,,,,,,,,497925,,,,,,,
344960,set_tempo,40,1,0,,,,,,,,,,,,493827,,,,,,,
345000,note_on,120,0,1,,,,,,,,,,,,,,,0,,,70,0
345000,set_tempo,40,1,0,,,,,,,,,,,,489796,,,,,,,
345000,note_on,120,0,2,,,,,,,,,,,,,,,0,,,34,0
345000,note_on,0,0,1,,,,,,,,,,,,,,,0,,,74,33
345040,set_tempo,40,1,0,,,,,,,,,,,,485830,,,,,,,
345080,set_tempo,40,1,0,,,,,,,,,,,,480000,,,,,,,
345120,set_tempo,40,1,0,,,,,,,,,,,,476190,,,,,,,
345120,note_on,120,0,1,,,,,,,,,,,,,,,0,,,74,0
345120,note_on,0,0,1,,,,,,,,,,,,,,,0,,,77,0
345120,note_on,0,0,1,,,,,,,,,,,,,,,0,,,82,53
345160,set_tempo,40,1,0,,,,,,,,,,,,472441,,,,,,,
345200,set_tempo,40,1,0,,,,,,,,,,,,466926,,,,,,,
345240,set_tempo,40,1,0,,,,,,,,,,,,460370,,,,,,,
345240,note_on,120,0,1,,,,,,,,,,,,,,,0,,,74,39
345280,set_tempo,40,1,0,,,,,,,,,,,,462214,,,,,,,
345320,set_tempo,40,1,0,,,,,,,,,,,,464037,,,,,,,
345360,note_on,120,0,1,,,,,,,,,,,,,,,0,,,74,0
345360,note_on,0,0,1,,,,,,,,,,,,,,,0,,,70,39
345360,note_on,360,0,2,,,,,,,,,,,,,,,0,,,46,33
345480,note_on,0,0,1,,,,,,,,,,,,,,,0,,,74,39
345480,note_on,120,0,1,,,,,,,,,,,,,,,0,,,70,0
345480,note_on,120,0,2,,,,,,,,,,,,,,,0,,,46,0
345600,set_tempo,280,1,0,,,,,,,,,,,,467800,,,,,,,
345600,control_change,120,0,2,,,,,,,,,,,,,,,0,64,0,,
345600,note_on,120,0,1,,,,,,,,,,,,,,,0,,,74,0
345600,note_on,0,0,1,,,,,,,,,,,,,,,0,,,81,52
345600,note_on,0,0,1,,,,,,,,,,,,,,,0,,,77,52
345600,note_on,0,0,1,,,,,,,,,,,,,,,0,,,82,0
345646,control_change,46,0,2,,,,,,,,,,,,,,,0,64,127,,
345680,set_tempo,80,1,0,,,,,,,,,,,,465911,,,,,,,
345720,note_on,120,0,1,,,,,,,,,,,,,,,0,,,77,0
345720,note_on,0,0,1,,,,,,,,,,,,,,,0,,,74,38
345760,set_tempo,80,1,0,,,,,,,,,,,,464037,,,,,,,
345800,set_tempo,40,1,0,,,,,,,,,,,,462214,,,,,,,
345840,note_on,194,0,2,,,,,,,,,,,,,,,0,,,50,33
345840,note_on,0,0,1,,,,,,,,,,,,,,,0,,,69,38
345840,note_on,120,0,1,,,,,,,,,,,,,,,0,,,74,0
345880,set_tempo,80,1,0,,,,,,,,,,,,460370,,,,,,,
345920,set_tempo,40,1,0,,,,,,,,,,,,458540,,,,,,,
345960,note_on,0,0,1,,,,,,,,,,,,,,,0,,,74,38
345960,note_on,120,0,1,,,,,,,,,,,,,,,0,,,69,0
345960,note_on,120,0,2,,,,,,,,,,,,,,,0,,,50,0
346000,set_tempo,80,1,0,,,,,,,,,,,,456725,,,,,,,
346040,set_tempo,40,1,0,,,,,,,,,,,,454959,,,,,,,
346080,note_on,120,0,1,,,,,,,,,,,,,,,0,,,74,0
346080,note_on,0,0,1,,,,,,,,,,,,,,,0,,,81,0
346080,note_on,0,0,1,,,,,,,,,,,,,,,0,,,75,51
346080,note_on,0,0,1,,,,,,,,,,,,,,,0,,,79,51
346109,control_change,149,0,2,,,,,,,,,,,,,,,0,64,0,,
346120,set_tempo,80,1,0,,,,,,,,,,,,456725,,,,,,,
346160,control_change,51,0,2,,,,,,,,,,,,,,,0,64,127,,
346200,note_on,0,0,1,,,,,,,,,,,,,,,0,,,70,34
346200,note_on,120,0,1,,,,,,,,,,,,,,,0,,,75,0
346200,set_tempo,80,1,0,,,,,,,,,,,,458540,,,,,,,
346280,set_tempo,80,1,0,,,,,,,,,,,,460370,,,,,,,
346320,note_on,0,0,1,,,,,,,,,,,,,,,0,,,67,34
346320,note_on,120,0,1,,,,,,,,,,,,,,,0,,,70,0
346320,note_on,160,0,2,,,,,,,,,,,,,,,0,,,51,33
346360,set_tempo,80,1,0,,,,,,,,,,,,462214,,,,,,,
346440,note_on,0,0,1,,,,,,,,,,,,,,,0,,,70,34
346440,set_tempo,80,1,0,,,,,,,,,,,,464037,,,,,,,
346440,note_on,120,0,2,,,,,,,,,,,,,,,0,,,51,0
346440,note_on,120,0,1,,,,,,,,,,,,,,,0,,,67,0
346480,set_tempo,40,1,0,,,,,,,,,,,,460370,,,,,,,
346560,note_on,0,0,1,,,,,,,,,,,,,,,0,,,79,0
346560,set_tempo,80,1,0,,,,,,,,,,,,462214,,,,,,,
346560,note_on,120,0,1,,,,,,,,,,,,,,,0,,,70,0
346560,control_change,120,0,2,,,,,,,,,,,,,,,0,64,0,,
346560,note_on,0,0,1,,,,,,,,,,,,,,,0,,,74,51
346560,note_on,0,0,1,,,,,,,,,,,,,,,0,,,79,51
346624,control_change,64,0,2,,,,,,,,,,,,,,,0,64,127,,
346680,note_on,0,0,1,,,,,,,,,,,,,,,0,,,70,35
346680,note_on,120,0,1,,,,,,,,,,,,,,,0,,,74,0
346680,set_tempo,120,1,0,,,,,,,,,,,,460370,,,,,,,
346800,note_on,120,0,1,,,,,,,,,,,,,,,0,,,70,0
346800,note_on,176,0,2,,,,,,,,,,,,,,,0,,,55,33
346800,set_tempo,120,1,0,,,,,,,,,,,,458540,,,,,,,
346800,note_on,0,0,1,,,,,,,,,,,,,,,0,,,67,35
346880,set_tempo,80,1,0,,,,,,,,,,,,456725,,,,,,,
346920,note_on,0,0,1,,,,,,,,,,,,,,,0,,,70,35
346920,note_on,120,0,1,,,,,,,,,,,,,,,0,,,67,0
347000,set_tempo,120,1,0,,,,,,,,,,,,454959,,,,,,,
347040,note_on,240,0,2,,,,,,,,,,,,,,,0,,,55,0
347040,control_change,0,0,2,,,,,,,,,,,,,,,0,64,0,,
347040,note_on,120,0,1,,,,,,,,,,,,,,,0,,,70,0
347040,note_on,0,0,1,,,,,,,,,,,,,,,0,,,79,0
347040,note_on,0,0,1,,,,,,,,,,,,,,,0,,,77,49
347040,note_on,0,0,1,,,,,,,,,,,,,,,0,,,74,49
347080,set_tempo,80,1,0,,,,,,,,,,,,453172,,,,,,,
347089,control_change,49,0,2,,,,,,,,,,,,,,,0,64,127,,
347160,note_on,0,0,1,,,,,,,,,,,,,,,0,,,70,35
347160,note_on,120,0,1,,,,,,,,,,,,,,,0,,,74,0
347200,set_tempo,120,1,0,,,,,,,,,,,,454959,,,,,,,
347280,note_on,0,0,1,,,,,,,,,,,,,,,0,,,65,35
347280,note_on,120,0,1,,,,,,,,,,,,,,,0,,,70,0
347280,set_tempo,80,1,0,,,,,,,,,,,,456725,,,,,,,
347280,note_on,191,0,2,,,,,,,,,,,,,,,0,,,58,33
347400,set_tempo,120,1,0,,,,,,,,,,,,458540,,,,,,,
347400,note_on,120,0,1,,,,,,,,,,,,,,,0,,,65,0
347400,note_on,0,0,1,,,,,,,,,,,,,,,0,,,70,35
347480,set_tempo,80,1,0,,,,,,,,,,,,460370,,,,,,,
347520,note_on,120,0,1,,,,,,,,,,,,,,,0,,,70,0
347520,note_on,0,0,1,,,,,,,,,,,,,,,0,,,77,0
347520,note_on,0,0,1,,,,,,,,,,,,,,,0,,,74,50
347520,note_on,0,0,1,,,,,,,,,,,,,,,0,,,77,50
347520,set_tempo,40,1,0,,,,,,,,,,,,454959,,,,,,,
347520,control_change,0,0,2,,,,,,,,,,,,,,,0,64,0,,
347520,note_on,240,0,2,,,,,,,,,,,,,,,0,,,58,0
347589,control_change,69,0,2,,,,,,,,,,,,,,,0,64,127,,
347640,note_on,120,0,1,,,,,,,,,,,,,,,0,,,74,0
347640,note_on,0,0,1,,,,,,,,,,,,,,,0,,,69,36
347680,set_tempo,160,1,0,,,,,,,,,,,,453172,,,,,,,
347760,note_on,0,0,1,,,,,,,,,,,,,,,0,,,65,36
347760,note_on,171,0,2,,,,,,,,,,,,,,,0,,,62,33
347760,note_on,120,0,1,,,,,,,,,,,,,,,0,,,69,0
347800,set_tempo,120,1,0,,,,,,,,,,,,451399,,,,,,,
347880,note_on,0,0,1,,,,,,,,,,,,,,,0,,,69,36
347880,note_on,120,0,1,,,,,,,,,,,,,,,0,,,65,0
347920,set_tempo,120,1,0,,,,,,,,,,,,449640,,,,,,,
348000,note_on,0,0,1,,,,,,,,,,,,,,,0,,,77,0
348000,note_on,240,0,2,,,,,,,,,,,,,,,0,,,62,0
348000,note_on,0,0,1,,,,,,,,,,,,,,,0,,,75,49
348000,set_tempo,80,1,0,,,,,,,,,,,,462214,,,,,,,
348000,note_on,120,0,1,,,,,,,,,,,,,,,0,,,69,0
348000,note_on,0,0,1,,,,,,,,,,,,,,,0,,,72,49
348029,control_change,29,0,2,,,,,,,,,,,,,,,0,64,0,,
348080,control_change,51,0,2,,,,,,,,,,,,,,,0,64,127,,
348120,note_on,120,0,1,,,,,,,,,,,,,,,0,,,72,0
348120,note_on,0,0,1,,,,,,,,,,,,,,,0,,,69,34
348240,note_on,120,0,1,,,,,,,,,,,,,,,0,,,69,0
348240,note_on,0,0,1,,,,,,,,,,,,,,,0,,,63,34
348240,note_on,160,0,2,,,,,,,,,,,,,,,0,,,41,33
348360,note_on,120,0,1,,,,,,,,,,,,,,,0,,,63,0
348360,note_on,0,0,1,,,,,,,,,,,,,,,0,,,69,34
348400,set_tempo,400,1,0,,,,,,,,,,,,453172,,,,,,,
348440,set_tempo,40,1,0,,,,,,,,,,,,451399,,,,,,,
348480,note_on,120,0,1,,,,,,,,,,,,,,,0,,,69,0
348480,note_on,0,0,1,,,,,,,,,,,,,,,0,,,70,50
348480,note_on,0,0,1,,,,,,,,,,,,,,,0,,,75,50
348480,note_on,240,0,2,,,,,,,,,,,,,,,0,,,41,0
348480,control_change,0,0,2,,,,,,,,,,,,,,,0,64,0,,
348480,note_on,0,0,1,,,,,,,,,,,,,,,0,,,75,0
348536,control_change,56,0,2,,,,,,,,,,,,,,,0,64,127,,
348600,note_on,0,0,1,,,,,,,,,,,,,,,0,,,67,35
348600,set_tempo,160,1,0,,,,,,,,,,,,453172,,,,,,,
348600,note_on,120,0,1,,,,,,,,,,,,,,,0,,,70,0
348720,note_on,184,0,2,,,,,,,,,,,,,,,0,,,43,33
348720,note_on,0,0,1,,,,,,,,,,,,,,,0,,,63,35
348720,note_on,120,0,1,,,,,,,,,,,,,,,0,,,67,0
348760,set_tempo,160,1,0,,,,,,,,,,,,454959,,,,,,,
348840,note_on,120,0,1,,,,,,,,,,,,,,,0,,,63,0
348840,note_on,0,0,1,,,,,,,,,,,,,,,0,,,67,35
348920,set_tempo,160,1,0,,,,,,,,,,,,456725,,,,,,,
348960,note_on,240,0,2,,,,,,,,,,,,,,,0,,,43,0
348960,note_on,0,0,1,,,,,,,,,,,,,,,0,,,74,49
348960,note_on,0,0,1,,,,,,,,,,,,,,,0,,,70,49
348960,note_on,0,0,1,,,,,,,,,,,,,,,0,,,75,0
348960,note_on,120,0,1,,,,,,,,,,,,,,,0,,,67,0
348988,control_change,28,0,2,,,,,,,,,,,,,,,0,64,0,,
349024,control_change,36,0,2,,,,,,,,,,,,,,,0,64,127,,
349080,note_on,0,0,1,,,,,,,,,,,,,,,0,,,67,35
349080,note_on,120,0,1,,,,,,,,,,,,,,,0,,,70,0
349080,set_tempo,160,1,0,,,,,,,,,,,,458540,,,,,,,
349200,note_on,176,0,2,,,,,,,,,,,,,,,0,,,46,33
349200,note_on,120,0,1,,,,,,,,,,,,,,,0,,,67,0
349200,note_on,0,0,1,,,,,,,,,,,,,,,0,,,62,35
349240,set_tempo,160,1,0,,,,,,,,,,,,460370,,,,,,,
349320,note_on,0,0,1,,,,,,,,,,,,,,,0,,,67,35
349320,note_on,120,0,1,,,,,,,,,,,,,,,0,,,62,0
349400,set_tempo,160,1,0,,,,,,,,,,,,462214,,,,,,,
349440,note_on,0,0,1,,,,,,,,,,,,,,,0,,,74,48
349440,note_on,0,0,1,,,,,,,,,,,,,,,0,,,69,48
349440,note_on,0,0,1,,,,,,,,,,,,,,,0,,,74,0
349440,note_on,120,0,1,,,,,,,,,,,,,,,0,,,67,0
349440,control_change,0,0,2,,,,,,,,,,,,,,,0,64,0,,
349440,set_tempo,40,1,0,,,,,,,,,,,,464037,,,,,,,
349440,note_on,240,0,2,,,,,,,,,,,,,,,0,,,46,0
349480,control_change,40,0,2,,,,,,,,,,,,,,,0,64,127,,
349560,note_on,0,0,1,,,,,,,,,,,,,,,0,,,66,36
349560,note_on,120,0,1,,,,,,,,,,,,,,,0,,,69,0
349680,note_on,200,0,2,,,,,,,,,,,,,,,0,,,50,33
349680,note_on,120,0,1,,,,,,,,,,,,,,,0,,,66,0
349680,set_tempo,240,1,0,,,,,,,,,,,,462214,,,,,,,
349680,note_on,0,0,1,,,,,,,,,,,,,,,0,,,62,36
349800,note_on,120,0,1,,,,,,,,,,,,,,,0,,,62,0
349800,note_on,0,0,1,,,,,,,,,,,,,,,0,,,66,36
349920,note_on,0,0,1,,,,,,,,,,,,,,,0,,,72,47
349920,note_on,120,0,1,,,,,,,,,,,,,,,0,,,66,0
349920,set_tempo,240,1,0,,,,,,,,,,,,458540,,,,,,,
349920,note_on,240,0,2,,,,,,,,,,,,,,,0,,,50,0
349920,note_on,0,0,1,,,,,,,,,,,,,,,0,,,74,0
349977,control_change,57,0,2,,,,,,,,,,,,,,,0,64,0,,
350029,control_change,52,0,2,,,,,,,,,,,,,,,0,64,127,,
350040,note_on,120,0,1,,,,,,,,,,,,,,,0,,,69,35
350080,set_tempo,160,1,0,,,,,,,,,,,,460370,,,,,,,
350160,note_on,120,0,1,,,,,,,,,,,,,,,0,,,69,0
350160,note_on,0,0,1,,,,,,,,,,,,,,,0,,,62,35
350160,note_on,131,0,2,,,,,,,,,,,,,,,0,,,54,33
350240,set_tempo,160,1,0,,,,,,,,,,,,462214,,,,,,,
350280,note_on,120,0,1,,,,,,,,,,,,,,,0,,,62,0
350280,note_on,0,0,1,,,,,,,,,,,,,,,0,,,69,35
350400,note_on,240,0,2,,,,,,,,,,,,,,,0,,,54,0
350400,control_change,0,0,2,,,,,,,,,,,,,,,0,64,0,,
350400,note_on,0,0,1,,,,,,,,,,,,,,,0,,,72,48
350400,note_on,0,0,1,,,,,,,,,,,,,,,0,,,72,0
350400,set_tempo,160,1,0,,,,,,,,,,,,458540,,,,,,,
350400,note_on,120,0,1,,,,,,,,,,,,,,,0,,,69,0
350463,control_change,63,0,2,,,,,,,,,,,,,,,0,64,127,,
350520,note_on,120,0,1,,,,,,,,,,,,,,,0,,,67,38
350640,note_on,177,0,2,,,,,,,,,,,,,,,0,,,55,33
350640,note_on,120,0,1,,,,,,,,,,,,,,,0,,,67,0
350640,note_on,0,0,1,,,,,,,,,,,,,,,0,,,62,42
350640,set_tempo,240,1,0,,,,,,,,,,,,456725,,,,,,,
350760,note_on,120,0,2,,,,,,,,,,,,,,,0,,,55,0
350760,note_on,120,0,1,,,,,,,,,,,,,,,0,,,62,0
350760,note_on,0,0,1,,,,,,,,,,,,,,,0,,,67,45
350880,note_on,0,0,1,,,,,,,,,,,,,,,0,,,72,0
350880,set_tempo,240,1,0,,,,,,,,,,,,454959,,,,,,,
350880,note_on,0,0,1,,,,,,,,,,,,,,,0,,,70,52
350880,note_on,120,0,2,,,,,,,,,,,,,,,0,,,57,33
350880,note_on,120,0,1,,,,,,,,,,,,,,,0,,,67,0
350960,control_change,80,0,2,,,,,,,,,,,,,,,0,64,0,,
351000,note_on,40,0,2,,,,,,,,,,,,,,,0,,,57,0
351000,note_on,120,0,1,,,,,,,,,,,,,,,0,,,67,39
351006,control_change,6,0,2,,,,,,,,,,,,,,,0,64,127,,
351120,note_on,120,0,1,,,,,,,,,,,,,,,0,,,67,0
351120,set_tempo,240,1,0,,,,,,,,,,,,453172,,,,,,,
351120,note_on,114,0,2,,,,,,,,,,,,,,,0,,,58,33
351120,note_on,0,0,1,,,,,,,,,,,,,,,0,,,62,39
351240,note_on,120,0,2,,,,,,,,,,,,,,,0,,,58,0
351240,note_on,120,0,1,,,,,,,,,,,,,,,0,,,62,0
351240,note_on,0,0,1,,,,,,,,,,,,,,,0,,,67,39
351320,set_tempo,200,1,0,,,,,,,,,,,,451399,,,,,,,
351360,control_change,120,0,2,,,,,,,,,,,,,,,0,64,0,,
351360,note_on,0,0,2,,,,,,,,,,,,,,,0,,,60,33
351360,note_on,0,0,1,,,,,,,,,,,,,,,0,,,70,0
351360,note_on,0,0,1,,,,,,,,,,,,,,,0,,,69,49
351360,set_tempo,40,1,0,,,,,,,,,,,,453172,,,,,,,
351360,note_on,120,0,1,,,,,,,,,,,,,,,0,,,67,0
351429,control_change,69,0,2,,,,,,,,,,,,,,,0,64,127,,
351480,note_on,51,0,2,,,,,,,,,,,,,,,0,,,65,35
351600,note_on,0,0,2,,,,,,,,,,,,,,,0,,,60,0
351600,note_on,120,0,2,,,,,,,,,,,,,,,0,,,65,0
351600,note_on,0,0,2,,,,,,,,,,,,,,,0,,,60,35
351720,note_on,0,0,2,,,,,,,,,,,,,,,0,,,65,35
351720,note_on,120,0,2,,,,,,,,,,,,,,,0,,,60,0
351840,note_on,0,0,2,,,,,,,,,,,,,,,0,,,48,33
351840,note_on,480,0,1,,,,,,,,,,,,,,,0,,,69,0
351840,note_on,0,0,1,,,,,,,,,,,,,,,0,,,67,47
351840,note_on,120,0,2,,,,,,,,,,,,,,,0,,,65,0
351880,control_change,40,0,2,,,,,,,,,,,,,,,0,64,0,,
351931,control_change,51,0,2,,,,,,,,,,,,,,,0,64,127,,
351960,note_on,29,0,2,,,,,,,,,,,,,,,0,,,64,33
352080,note_on,0,0,2,,,,,,,,,,,,,,,0,,,58,33
352080,note_on,120,0,2,,,,,,,,,,,,,,,0,,,64,0
352080,note_on,0,0,2,,,,,,,,,,,,,,,0,,,48,0
352200,note_on,120,0,2,,,,,,,,,,,,,,,0,,,58,0
352200,note_on,0,0,2,,,,,,,,,,,,,,,0,,,64,33
352320,note_on,480,0,1,,,,,,,,,,,,,,,0,,,67,0
352320,note_on,120,0,2,,,,,,,,,,,,,,,0,,,64,0
352320,set_tempo,960,1,0,,,,,,,,,,,,458540,,,,,,,
352320,control_change,0,0,2,,,,,,,,,,,,,,,0,64,0,,
352320,note_on,0,0,2,,,,,,,,,,,,,,,0,,,57,33
352320,note_on,0,0,2,,,,,,,,,,,,,,,0,,,41,33
352320,note_on,0,0,2,,,,,,,,,,,,,,,0,,,53,33
352320,note_on,0,0,2,,,,,,,,,,,,,,,0,,,65,46
352440,note_on,0,0,2,,,,,,,,,,,,,,,0,,,41,0
352440,note_on,0,0,2,,,,,,,,,,,,,,,0,,,57,0
352440,note_on,0,0,2,,,,,,,,,,,,,,,0,,,53,0
352440,note_on,120,0,2,,,,,,,,,,,,,,,0,,,65,0
352480,set_tempo,160,1,0,,,,,,,,,,,,460370,,,,,,,
352560,note_on,120,0,2,,,,,,,,,,,,,,,0,,,60,39
352640,set_tempo,160,1,0,,,,,,,,,,,,462214,,,,,,,
352680,note_on,120,0,2,,,,,,,,,,,,,,,0,,,60,0
352800,note_on,120,0,2,,,,,,,,,,,,,,,0,,,57,43
352800,set_tempo,160,1,0,,,,,,,,,,,,464037,,,,,,,
352840,set_tempo,40,1,0,,,,,,,,,,,,462214,,,,,,,
352920,note_on,120,0,2,,,,,,,,,,,,,,,0,,,57,0
352960,set_tempo,120,1,0,,,,,,,,,,,,464037,,,,,,,
353040,note_on,120,0,2,,,,,,,,,,,,,,,0,,,55,47
353040,set_tempo,80,1,0,,,,,,,,,,,,465911,,,,,,,
353120,set_tempo,80,1,0,,,,,,,,,,,,467800,,,,,,,
353160,note_on,120,0,2,,,,,,,,,,,,,,,0,,,55,0
353200,set_tempo,80,1,0,,,,,,,,,,,,469667,,,,,,,
353280,note_on,120,0,2,,,,,,,,,,,,,,,0,,,53,50
353280,set_tempo,80,1,0,,,,,,,,,,,,456725,,,,,,,
353400,note_on,120,0,2,,,,,,,,,,,,,,,0,,,53,0
353520,note_on,0,0,1,,,,,,,,,,,,,,,0,,,72,52
353520,note_on,1200,0,1,,,,,,,,,,,,,,,0,,,69,52
353520,note_on,120,0,2,,,,,,,,,,,,,,,0,,,51,46
353520,set_tempo,240,1,0,,,,,,,,,,,,481928,,,,,,,
353520,note_on,0,0,1,,,,,,,,,,,,,,,0,,,77,52
353560,set_tempo,40,1,0,,,,,,,,,,,,483871,,,,,,,
353600,set_tempo,40,1,0,,,,,,,,,,,,485830,,,,,,,
353640,note_on,0,0,1,,,,,,,,,,,,,,,0,,,69,0
353640,note_on,0,0,1,,,,,,,,,,,,,,,0,,,72,0
353640,set_tempo,40,1,0,,,,,,,,,,,,487805,,,,,,,
353640,note_on,120,0,1,,,,,,,,,,,,,,,0,,,77,0
353640,note_on,120,0,2,,,,,,,,,,,,,,,0,,,51,0
353680,set_tempo,40,1,0,,,,,,,,,,,,489796,,,,,,,
353720,set_tempo,40,1,0,,,,,,,,,,,,491803,,,,,,,
353760,note_on,120,0,2,,,,,,,,,,,,,,,0,,,50,43
353760,note_on,0,0,1,,,,,,,,,,,,,,,0,,,77,52
353760,note_on,0,0,1,,,,,,,,,,,,,,,0,,,74,52
353760,set_tempo,40,1,0,,,,,,,,,,,,493827,,,,,,,
353760,note_on,120,0,1,,,,,,,,,,,,,,,0,,,69,52
353800,set_tempo,40,1,0,,,,,,,,,,,,495868,,,,,,,
353840,set_tempo,40,1,0,,,,,,,,,,,,497925,,,,,,,
353880,note_on,120,0,1,,,,,,,,,,,,,,,0,,,77,0
353880,note_on,0,0,1,,,,,,,,,,,,,,,0,,,74,0
353880,note_on,0,0,1,,,,,,,,,,,,,,,0,,,69,0
353880,set_tempo,40,1,0,,,,,,,,,,,,500000,,,,,,,
353880,note_on,120,0,2,,,,,,,,,,,,,,,0,,,50,0
353920,set_tempo,40,1,0,,,,,,,,,,,,502092,,,,,,,
353960,set_tempo,40,1,0,,,,,,,,,,,,504202,,,,,,,
354000,note_on,0,0,1,,,,,,,,,,,,,,,0,,,75,52
354000,note_on,120,0,1,,,,,,,,,,,,,,,0,,,69,52
354000,note_on,0,0,1,,,,,,,,,,,,,,,0,,,77,52
354000,note_on,120,0,2,,,,,,,,,,,,,,,0,,,48,39
354000,set_tempo,40,1,0,,,,,,,,,,,,506329,,,,,,,
354040,set_tempo,40,1,0,,,,,,,,,,,,508475,,,,,,,
354080,set_tempo,40,1,0,,,,,,,,,,,,510638,,,,,,,
354120,note_on,0,0,1,,,,,,,,,,,,,,,0,,,75,0
354120,note_on,120,0,1,,,,,,,,,,,,,,,0,,,77,0
354120,set_tempo,40,1,0,,,,,,,,,,,,512821,,,,,,,
354120,note_on,0,0,1,,,,,,,,,,,,,,,0,,,69,0
354120,note_on,120,0,2,,,,,,,,,,,,,,,0,,,48,0
354160,set_tempo,40,1,0,,,,,,,,,,,,515021,,,,,,,
354200,set_tempo,40,1,0,,,,,,,,,,,,519481,,,,,,,
354240,set_tempo,40,1,0,,,,,,,,,,,,519481,,,,,,,
354240,control_change,120,0,2,,,,,,,,,,,,,,,0,64,127,,
354240,note_on,120,0,1,,,,,,,,,,,,,,,0,,,77,52
354280,set_tempo,40,1,0,,,,,,,,,,,,515021,,,,,,,
354320,set_tempo,40,1,0,,,,,,,,,,,,510638,,,,,,,
354360,set_tempo,40,1,0,,,,,,,,,,,,506329,,,,,,,
354360,note_on,120,0,1,,,,,,,,,,,,,,,0,,,74,37
354400,set_tempo,40,1,0,,,,,,,,,,,,502092,,,,,,,
354440,set_tempo,40,1,0,,,,,,,,,,,,497925,,,,,,,
354480,set_tempo,40,1,0,,,,,,,,,,,,493827,,,,,,,
354480,note_on,240,0,2,,,,,,,,,,,,,,,0,,,34,33
354480,note_on,0,0,1,,,,,,,,,,,,,,,0,,,70,37
354480,note_on,120,0,1,,,,,,,,,,,,,,,0,,,74,0
354520,set_tempo,40,1,0,,,,,,,,,,,,489796,,,,,,,
354560,set_tempo,40,1,0,,,,,,,,,,,,485830,,,,,,,
354600,set_tempo,40,1,0,,,,,,,,,,,,481928,,,,,,,
354600,note_on,0,0,1,,,,,,,,,,,,,,,0,,,74,37
354600,note_on,120,0,1,,,,,,,,,,,,,,,0,,,70,0
354640,set_tempo,40,1,0,,,,,,,,,,,,478088,,,,,,,
354680,set_tempo,40,1,0,,,,,,,,,,,,474308,,,,,,,
354720,set_tempo,40,1,0,,,,,,,,,,,,470588,,,,,,,
354720,note_on,240,0,2,,,,,,,,,,,,,,,0,,,34,0
354720,note_on,120,0,1,,,,,,,,,,,,,,,0,,,74,0
354720,note_on,0,0,1,,,,,,,,,,,,,,,0,,,77,0
354720,note_on,0,0,1,,,,,,,,,,,,,,,0,,,82,53
354760,set_tempo,40,1,0,,,,,,,,,,,,467800,,,,,,,
354800,set_tempo,40,1,0,,,,,,,,,,,,458540,,,,,,,
354840,note_on,120,0,1,,,,,,,,,,,,,,,0,,,74,40
354840,set_tempo,40,1,0,,,,,,,,,,,,460370,,,,,,,
354880,set_tempo,40,1,0,,,,,,,,,,,,462214,,,,,,,
354920,set_tempo,40,1,0,,,,,,,,,,,,464037,,,,,,,
354960,note_on,0,0,1,,,,,,,,,,,,,,,0,,,70,40
354960,note_on,120,0,1,,,,,,,,,,,,,,,0,,,74,0
354960,note_on,240,0,2,,,,,,,,,,,,,,,0,,,46,33
355080,note_on,120,0,1,,,,,,,,,,,,,,,0,,,70,0
355080,note_on,0,0,1,,,,,,,,,,,,,,,0,,,74,42
355200,note_on,120,0,1,,,,,,,,,,,,,,,0,,,74,0
355200,note_on,240,0,2,,,,,,,,,,,,,,,0,,,46,0
355200,note_on,0,0,1,,,,,,,,,,,,,,,0,,,82,0
355200,set_tempo,280,1,0,,,,,,,,,,,,467800,,,,,,,
355200,note_on,0,0,1,,,,,,,,,,,,,,,0,,,77,52
355200,note_on,0,0,1,,,,,,,,,,,,,,,0,,,81,52
355200,control_change,0,0,2,,,,,,,,,,,,,,,0,64,0,,
355246,control_change,46,0,2,,,,,,,,,,,,,,,0,64,127,,
355280,set_tempo,80,1,0,,,,,,,,,,,,465911,,,,,,,
355320,note_on,0,0,1,,,,,,,,,,,,,,,0,,,74,38
355320,note_on,120,0,1,,,,,,,,,,,,,,,0,,,77,0
355360,set_tempo,80,1,0,,,,,,,,,,,,464037,,,,,,,
355400,set_tempo,40,1,0,,,,,,,,,,,,462214,,,,,,,
355440,note_on,194,0,2,,,,,,,,,,,,,,,0,,,50,33
355440,note_on,120,0,1,,,,,,,,,,,,,,,0,,,74,0
355440,note_on,0,0,1,,,,,,,,,,,,,,,0,,,69,38
355480,set_tempo,80,1,0,,,,,,,,,,,,460370,,,,,,,
355520,set_tempo,40,1,0,,,,,,,,,,,,458540,,,,,,,
355560,note_on,0,0,1,,,,,,,,,,,,,,,0,,,74,38
355560,note_on,120,0,1,,,,,,,,,,,,,,,0,,,69,0
355600,set_tempo,80,1,0,,,,,,,,,,,,456725,,,,,,,
355640,set_tempo,40,1,0,,,,,,,,,,,,454959,,,,,,,
355680,note_on,0,0,1,,,,,,,,,,,,,,,0,,,75,51
355680,note_on,0,0,1,,,,,,,,,,,,,,,0,,,81,0
355680,note_on,120,0,1,,,,,,,,,,,,,,,0,,,74,0
355680,note_on,240,0,2,,,,,,,,,,,,,,,0,,,50,0
355680,note_on,0,0,1,,,,,,,,,,,,,,,0,,,79,51
355709,control_change,29,0,2,,,,,,,,,,,,,,,0,64,0,,
355720,set_tempo,80,1,0,,,,,,,,,,,,456725,,,,,,,
355760,control_change,51,0,2,,,,,,,,,,,,,,,0,64,127,,
355800,note_on,120,0,1,,,,,,,,,,,,,,,0,,,75,0
355800,set_tempo,80,1,0,,,,,,,,,,,,458540,,,,,,,
355800,note_on,0,0,1,,,,,,,,,,,,,,,0,,,70,34
355880,set_tempo,80,1,0,,,,,,,,,,,,460370,,,,,,,
355920,note_on,160,0,2,,,,,,,,,,,,,,,0,,,51,33
355920,note_on,120,0,1,,,,,,,,,,,,,,,0,,,70,0
355920,note_on,0,0,1,,,,,,,,,,,,,,,0,,,67,34
355960,set_tempo,80,1,0,,,,,,,,,,,,462214,,,,,,,
356040,set_tempo,80,1,0,,,,,,,,,,,,464037,,,,,,,
356040,note_on,120,0,1,,,,,,,,,,,,,,,0,,,67,0
356040,note_on,0,0,1,,,,,,,,,,,,,,,0,,,70,34
356080,set_tempo,40,1,0,,,,,,,,,,,,460370,,,,,,,
356160,note_on,240,0,2,,,,,,,,,,,,,,,0,,,51,0
356160,control_change,0,0,2,,,,,,,,,,,,,,,0,64,0,,
356160,note_on,0,0,1,,,,,,,,,,,,,,,0,,,79,0
356160,note_on,0,0,1,,,,,,,,,,,,,,,0,,,74,48
356160,note_on,0,0,1,,,,,,,,,,,,,,,0,,,79,48
356160,note_on,120,0,1,,,,,,,,,,,,,,,0,,,70,0
356160,set_tempo,80,1,0,,,,,,,,,,,,462214,,,,,,,
356224,control_change,64,0,2,,,,,,,,,,,,,,,0,64,127,,
356280,note_on,0,0,1,,,,,,,,,,,,,,,0,,,70,37
356280,note_on,120,0,1,,,,,,,,,,,,,,,0,,,74,0
356280,set_tempo,120,1,0,,,,,,,,,,,,460370,,,,,,,
356400,note_on,0,0,1,,,,,,,,,,,,,,,0,,,67,37
356400,note_on,176,0,2,,,,,,,,,,,,,,,0,,,55,33
356400,set_tempo,120,1,0,,,,,,,,,,,,458540,,,,,,,
356400,note_on,120,0,1,,,,,,,,,,,,,,,0,,,70,0
356480,set_tempo,80,1,0,,,,,,,,,,,,456725,,,,,,,
356520,note_on,120,0,1,,,,,,,,,,,,,,,0,,,67,0
356520,note_on,0,0,1,,,,,,,,,,,,,,,0,,,70,37
356600,set_tempo,120,1,0,,,,,,,,,,,,454959,,,,,,,
356640,note_on,240,0,2,,,,,,,,,,,,,,,0,,,55,0
356640,control_change,0,0,2,,,,,,,,,,,,,,,0,64,0,,
356640,note_on,0,0,1,,,,,,,,,,,,,,,0,,,77,49
356640,note_on,0,0,1,,,,,,,,,,,,,,,0,,,79,0
356640,note_on,120,0,1,,,,,,,,,,,,,,,0,,,70,0
356640,note_on,0,0,1,,,,,,,,,,,,,,,0,,,74,49
356680,set_tempo,80,1,0,,,,,,,,,,,,453172,,,,,,,
356689,control_change,49,0,2,,,,,,,,,,,,,,,0,64,127,,
356760,note_on,0,0,1,,,,,,,,,,,,,,,0,,,70,35
356760,note_on,120,0,1,,,,,,,,,,,,,,,0,,,74,0
356800,set_tempo,120,1,0,,,,,,,,,,,,454959,,,,,,,
356880,set_tempo,80,1,0,,,,,,,,,,,,456725,,,,,,,
356880,note_on,191,0,2,,,,,,,,,,,,,,,0,,,58,33
356880,note_on,120,0,1,,,,,,,,,,,,,,,0,,,70,0
356880,note_on,0,0,1,,,,,,,,,,,,,,,0,,,65,35
357000,note_on,120,0,1,,,,,,,,,,,,,,,0,,,65,0
357000,note_on,0,0,1,,,,,,,,,,,,,,,0,,,70,35
357000,set_tempo,120,1,0,,,,,,,,,,,,458540,,,,,,,
357080,set_tempo,80,1,0,,,,,,,,,,,,460370,,,,,,,
357120,note_on,240,0,2,,,,,,,,,,,,,,,0,,,58,0
357120,note_on,0,0,1,,,,,,,,,,,,,,,0,,,74,49
357120,note_on,0,0,1,,,,,,,,,,,,,,,0,,,77,0
357120,set_tempo,40,1,0,,,,,,,,,,,,454959,,,,,,,
357120,note_on,0,0,1,,,,,,,,,,,,,,,0,,,77,49
357120,note_on,120,0,1,,,,,,,,,,,,,,,0,,,70,0
357120,control_change,0,0,2,,,,,,,,,,,,,,,0,64,0,,
357189,control_change,69,0,2,,,,,,,,,,,,,,,0,64,127,,
357240,note_on,0,0,1,,,,,,,,,,,,,,,0,,,69,36
357240,note_on,120,0,1,,,,,,,,,,,,,,,0,,,74,0
357280,set_tempo,160,1,0,,,,,,,,,,,,453172,,,,,,,
357360,note_on,0,0,1,,,,,,,,,,,,,,,0,,,65,36
357360,note_on,171,0,2,,,,,,,,,,,,,,,0,,,62,33
357360,note_on,120,0,1,,,,,,,,,,,,,,,0,,,69,0
357400,set_tempo,120,1,0,,,,,,,,,,,,451399,,,,,,,
357480,note_on,120,0,1,,,,,,,,,,,,,,,0,,,65,0
357480,note_on,0,0,1,,,,,,,,,,,,,,,0,,,69,37
357520,set_tempo,120,1,0,,,,,,,,,,,,449640,,,,,,,
357600,note_on,0,0,1,,,,,,,,,,,,,,,0,,,77,0
357600,set_tempo,80,1,0,,,,,,,,,,,,467800,,,,,,,
357600,note_on,0,0,1,,,,,,,,,,,,,,,0,,,75,49
357600,note_on,0,0,1,,,,,,,,,,,,,,,0,,,72,49
357600,note_on,240,0,2,,,,,,,,,,,,,,,0,,,62,0
357600,note_on,120,0,1,,,,,,,,,,,,,,,0,,,69,0
357629,control_change,29,0,2,,,,,,,,,,,,,,,0,64,0,,
357680,control_change,51,0,2,,,,,,,,,,,,,,,0,64,127,,
357720,note_on,120,0,1,,,,,,,,,,,,,,,0,,,72,0
357720,note_on,0,0,1,,,,,,,,,,,,,,,0,,,69,35
357840,note_on,120,0,1,,,,,,,,,,,,,,,0,,,69,0
357840,note_on,0,0,1,,,,,,,,,,,,,,,0,,,63,35
357840,note_on,160,0,2,,,,,,,,,,,,,,,0,,,41,33
357960,note_on,120,0,1,,,,,,,,,,,,,,,0,,,63,0
357960,note_on,0,0,1,,,,,,,,,,,,,,,0,,,69,35
358000,set_tempo,400,1,0,,,,,,,,,,,,453172,,,,,,,
358040,set_tempo,40,1,0,,,,,,,,,,,,451399,,,,,,,
358080,note_on,0,0,1,,,,,,,,,,,,,,,0,,,75,50
358080,note_on,120,0,1,,,,,,,,,,,,,,,0,,,69,0
358080,note_on,0,0,1,,,,,,,,,,,,,,,0,,,75,0
358080,note_on,0,0,1,,,,,,,,,,,,,,,0,,,70,50
358080,note_on,240,0,2,,,,,,,,,,,,,,,0,,,41,0
358080,control_change,0,0,2,,,,,,,,,,,,,,,0,64,0,,
358136,control_change,56,0,2,,,,,,,,,,,,,,,0,64,127,,
358200,set_tempo,160,1,0,,,,,,,,,,,,453172,,,,,,,
358200,note_on,0,0,1,,,,,,,,,,,,,,,0,,,67,36
358200,note_on,120,0,1,,,,,,,,,,,,,,,0,,,70,0
358320,note_on,184,0,2,,,,,,,,,,,,,,,0,,,43,33
358320,note_on,0,0,1,,,,,,,,,,,,,,,0,,,63,36
358320,note_on,120,0,1,,,,,,,,,,,,,,,0,,,67,0
358360,set_tempo,160,1,0,,,,,,,,,,,,454959,,,,,,,
358440,note_on,120,0,1,,,,,,,,,,,,,,,0,,,63,0
358440,note_on,0,0,1,,,,,,,,,,,,,,,0,,,67,36
358520,set_tempo,160,1,0,,,,,,,,,,,,456725,,,,,,,
358560,note_on,120,0,1,,,,,,,,,,,,,,,0,,,67,0
358560,note_on,0,0,1,,,,,,,,,,,,,,,0,,,75,0
358560,note_on,0,0,1,,,,,,,,,,,,,,,0,,,70,49
358560,note_on,0,0,1,,,,,,,,,,,,,,,0,,,74,49
358560,note_on,240,0,2,,,,,,,,,,,,,,,0,,,43,0
358588,control_change,28,0,2,,,,,,,,,,,,,,,0,64,0,,
358631,control_change,43,0,2,,,,,,,,,,,,,,,0,64,127,,
358680,set_tempo,160,1,0,,,,,,,,,,,,458540,,,,,,,
358680,note_on,0,0,1,,,,,,,,,,,,,,,0,,,67,36
358680,note_on,120,0,1,,,,,,,,,,,,,,,0,,,70,0
358800,note_on,120,0,1,,,,,,,,,,,,,,,0,,,67,0
358800,note_on,169,0,2,,,,,,,,,,,,,,,0,,,46,33
358800,note_on,0,0,1,,,,,,,,,,,,,,,0,,,62,36
358840,set_tempo,160,1,0,,,,,,,,,,,,460370,,,,,,,
358920,note_on,0,0,1,,,,,,,,,,,,,,,0,,,67,36
358920,note_on,120,0,1,,,,,,,,,,,,,,,0,,,62,0
359000,set_tempo,160,1,0,,,,,,,,,,,,462214,,,,,,,
359040,note_on,0,0,1,,,,,,,,,,,,,,,0,,,69,48
359040,note_on,0,0,1,,,,,,,,,,,,,,,0,,,74,48
359040,note_on,0,0,1,,,,,,,,,,,,,,,0,,,74,0
359040,note_on,120,0,1,,,,,,,,,,,,,,,0,,,67,0
359040,control_change,0,0,2,,,,,,,,,,,,,,,0,64,0,,
359040,set_tempo,40,1,0,,,,,,,,,,,,464037,,,,,,,
359040,note_on,240,0,2,,,,,,,,,,,,,,,0,,,46,0
359080,control_change,40,0,2,,,,,,,,,,,,,,,0,64,127,,
359160,note_on,120,0,1,,,,,,,,,,,,,,,0,,,69,0
359160,note_on,0,0,1,,,,,,,,,,,,,,,0,,,66,36
359280,note_on,200,0,2,,,,,,,,,,,,,,,0,,,50,33
359280,note_on,120,0,1,,,,,,,,,,,,,,,0,,,66,0
359280,note_on,0,0,1,,,,,,,,,,,,,,,0,,,62,36
359280,set_tempo,240,1,0,,,,,,,,,,,,462214,,,,,,,
359400,note_on,120,0,1,,,,,,,,,,,,,,,0,,,62,0
359400,note_on,0,0,1,,,,,,,,,,,,,,,0,,,66,36
359520,note_on,240,0,2,,,,,,,,,,,,,,,0,,,50,0
359520,note_on,120,0,1,,,,,,,,,,,,,,,0,,,66,0
359520,note_on,0,0,1,,,,,,,,,,,,,,,0,,,74,0
359520,set_tempo,240,1,0,,,,,,,,,,,,458540,,,,,,,
359520,note_on,0,0,1,,,,,,,,,,,,,,,0,,,72,47
359577,control_change,57,0,2,,,,,,,,,,,,,,,0,64,0,,
359629,control_change,52,0,2,,,,,,,,,,,,,,,0,64,127,,
359640,note_on,120,0,1,,,,,,,,,,,,,,,0,,,69,37
359680,set_tempo,160,1,0,,,,,,,,,,,,460370,,,,,,,
359760,set_tempo,80,1,0,,,,,,,,,,,,473522,,,,,,,
359760,note_on,120,0,1,,,,,,,,,,,,,,,0,,,69,0
359760,note_on,0,0,1,,,,,,,,,,,,,,,0,,,62,37
359760,note_on,131,0,2,,,,,,,,,,,,,,,0,,,54,33
359880,note_on,120,0,1,,,,,,,,,,,,,,,0,,,62,0
359880,note_on,0,0,1,,,,,,,,,,,,,,,0,,,69,37
360000,set_tempo,240,1,0,,,,,,,,,,,,458540,,,,,,,
360000,note_on,120,0,1,,,,,,,,,,,,,,,0,,,69,0
360000,note_on,0,0,1,,,,,,,,,,,,,,,0,,,72,0
360000,note_on,0,0,1,,,,,,,,,,,,,,,0,,,72,48
360000,control_change,0,0,2,,,,,,,,,,,,,,,0,64,0,,
360000,note_on,240,0,2,,,,,,,,,,,,,,,0,,,54,0
360063,control_change,63,0,2,,,,,,,,,,,,,,,0,64,127,,
360120,note_on,120,0,1,,,,,,,,,,,,,,,0,,,69,38
360240,note_on,0,0,1,,,,,,,,,,,,,,,0,,,62,42
360240,note_on,120,0,1,,,,,,,,,,,,,,,0,,,69,0
360240,note_on,177,0,2,,,,,,,,,,,,,,,0,,,55,33
360240,set_tempo,240,1,0,,,,,,,,,,,,456725,,,,,,,
360360,note_on,120,0,1,,,,,,,,,,,,,,,0,,,62,0
360360,note_on,0,0,1,,,,,,,,,,,,,,,0,,,69,45
360360,note_on,120,0,2,,,,,,,,,,,,,,,0,,,55,0
360480,note_on,120,0,2,,,,,,,,,,,,,,,0,,,57,33
360480,note_on,120,0,1,,,,,,,,,,,,,,,0,,,69,0
360480,note_on,0,0,1,,,,,,,,,,,,,,,0,,,72,0
360480,set_tempo,240,1,0,,,,,,,,,,,,454959,,,,,,,
360480,note_on,0,0,1,,,,,,,,,,,,,,,0,,,71,52
360560,control_change,80,0,2,,,,,,,,,,,,,,,0,64,0,,
360600,note_on,40,0,2,,,,,,,,,,,,,,,0,,,57,0
360600,note_on,120,0,1,,,,,,,,,,,,,,,0,,,67,43
360606,control_change,6,0,2,,,,,,,,,,,,,,,0,64,127,,
360720,note_on,114,0,2,,,,,,,,,,,,,,,0,,,59,33
360720,note_on,120,0,1,,,,,,,,,,,,,,,0,,,67,0
360720,note_on,0,0,1,,,,,,,,,,,,,,,0,,,62,44
360720,set_tempo,240,1,0,,,,,,,,,,,,453172,,,,,,,
360840,note_on,120,0,1,,,,,,,,,,,,,,,0,,,62,0
360840,note_on,0,0,1,,,,,,,,,,,,,,,0,,,67,44
360840,note_on,120,0,2,,,,,,,,,,,,,,,0,,,59,0
360920,set_tempo,200,1,0,,,,,,,,,,,,451399,,,,,,,
360960,note_on,0,0,1,,,,,,,,,,,,,,,0,,,69,49
360960,note_on,0,0,1,,,,,,,,,,,,,,,0,,,71,0
360960,note_on,120,0,1,,,,,,,,,,,,,,,0,,,67,0
360960,note_on,0,0,2,,,,,,,,,,,,,,,0,,,48,33
360960,control_change,120,0,2,,,,,,,,,,,,,,,0,64,0,,
360960,set_tempo,40,1,0,,,,,,,,,,,,453172,,,,,,,
361000,set_tempo,40,1,0,,,,,,,,,,,,451399,,,,,,,
361029,control_change,69,0,2,,,,,,,,,,,,,,,0,64,127,,
361080,note_on,120,0,1,,,,,,,,,,,,,,,0,,,67,40
361120,set_tempo,120,1,0,,,,,,,,,,,,453172,,,,,,,
361200,note_on,171,0,2,,,,,,,,,,,,,,,0,,,48,0
361200,note_on,120,0,1,,,,,,,,,,,,,,,0,,,67,0
361200,note_on,0,0,1,,,,,,,,,,,,,,,0,,,64,38
361240,set_tempo,120,1,0,,,,,,,,,,,,454959,,,,,,,
361320,note_on,120,0,1,,,,,,,,,,,,,,,0,,,64,0
361320,note_on,0,0,1,,,,,,,,,,,,,,,0,,,67,36
361360,set_tempo,120,1,0,,,,,,,,,,,,456725,,,,,,,
361440,note_on,240,0,2,,,,,,,,,,,,,,,0,,,50,33
361440,set_tempo,80,1,0,,,,,,,,,,,,458540,,,,,,,
361440,note_on,0,0,1,,,,,,,,,,,,,,,0,,,71,45
361440,note_on,120,0,1,,,,,,,,,,,,,,,0,,,67,0
361440,note_on,0,0,1,,,,,,,,,,,,,,,0,,,69,0
361446,control_change,6,0,2,,,,,,,,,,,,,,,0,64,0,,
361480,set_tempo,40,1,0,,,,,,,,,,,,458015,,,,,,,
361491,control_change,45,0,2,,,,,,,,,,,,,,,0,64,127,,
361520,set_tempo,40,1,0,,,,,,,,,,,,459770,,,,,,,
361560,set_tempo,40,1,0,,,,,,,,,,,,461538,,,,,,,
361560,note_on,120,0,1,,,,,,,,,,,,,,,0,,,66,33
361600,set_tempo,40,1,0,,,,,,,,,,,,465116,,,,,,,
361640,set_tempo,40,1,0,,,,,,,,,,,,466926,,,,,,,
361680,note_on,189,0,2,,,,,,,,,,,,,,,0,,,50,0
361680,set_tempo,40,1,0,,,,,,,,,,,,470588,,,,,,,
361680,note_on,120,0,1,,,,,,,,,,,,,,,0,,,66,0
361680,note_on,0,0,1,,,,,,,,,,,,,,,0,,,62,33
361720,set_tempo,40,1,0,,,,,,,,,,,,472441,,,,,,,
361760,set_tempo,40,1,0,,,,,,,,,,,,474308,,,,,,,
361800,note_on,120,0,1,,,,,,,,,,,,,,,0,,,62,0
361800,note_on,0,0,1,,,,,,,,,,,,,,,0,,,66,33
361800,set_tempo,40,1,0,,,,,,,,,,,,478088,,,,,,,
361840,set_tempo,40,1,0,,,,,,,,,,,,480000,,,,,,,
361880,set_tempo,40,1,0,,,,,,,,,,,,483871,,,,,,,
361920,note_on,120,0,1,,,,,,,,,,,,,,,0,,,66,0
361920,note_on,0,0,1,,,,,,,,,,,,,,,0,,,71,0
361920,note_on,0,0,1,,,,,,,,,,,,,,,0,,,67,43
361920,control_change,240,0,2,,,,,,,,,,,,,,,0,64,0,,
361920,set_tempo,40,1,0,,,,,,,,,,,,506586,,,,,,,
361971,control_change,51,0,2,,,,,,,,,,,,,,,0,64,127,,
362040,set_tempo,120,1,0,,,,,,,,,,,,468750,,,,,,,
362040,note_on,120,0,1,,,,,,,,,,,,,,,0,,,62,35
362160,note_on,0,0,1,,,,,,,,,,,,,,,0,,,59,35
362160,note_on,120,0,1,,,,,,,,,,,,,,,0,,,62,0
362160,set_tempo,120,1,0,,,,,,,,,,,,466926,,,,,,,
362160,note_on,189,0,2,,,,,,,,,,,,,,,0,,,55,33
362280,set_tempo,120,1,0,,,,,,,,,,,,465116,,,,,,,
362280,note_on,120,0,1,,,,,,,,,,,,,,,0,,,59,0
362280,note_on,0,0,1,,,,,,,,,,,,,,,0,,,62,35
362400,set_tempo,120,1,0,,,,,,,,,,,,463320,,,,,,,
362400,note_on,240,0,2,,,,,,,,,,,,,,,0,,,55,0
362400,note_on,0,0,1,,,,,,,,,,,,,,,0,,,69,49
362400,note_on,0,0,1,,,,,,,,,,,,,,,0,,,67,0
362400,note_on,120,0,1,,,,,,,,,,,,,,,0,,,62,0
362429,control_change,29,0,2,,,,,,,,,,,,,,,0,64,0,,
362486,control_change,57,0,2,,,,,,,,,,,,,,,0,64,127,,
362520,set_tempo,120,1,0,,,,,,,,,,,,461538,,,,,,,
362520,note_on,120,0,1,,,,,,,,,,,,,,,0,,,64,35
362640,note_on,0,0,1,,,,,,,,,,,,,,,0,,,60,35
362640,note_on,154,0,2,,,,,,,,,,,,,,,0,,,48,33
362640,set_tempo,120,1,0,,,,,,,,,,,,459770,,,,,,,
362640,note_on,120,0,1,,,,,,,,,,,,,,,0,,,64,0
362760,set_tempo,120,1,0,,,,,,,,,,,,458015,,,,,,,
362760,note_on,120,0,1,,,,,,,,,,,,,,,0,,,60,0
362760,note_on,0,0,1,,,,,,,,,,,,,,,0,,,64,35
362880,note_on,0,0,1,,,,,,,,,,,,,,,0,,,71,49
362880,note_on,240,0,2,,,,,,,,,,,,,,,0,,,48,0
362880,note_on,0,0,1,,,,,,,,,,,,,,,0,,,69,0
362880,note_on,120,0,1,,,,,,,,,,,,,,,0,,,64,0
362880,control_change,0,0,2,,,,,,,,,,,,,,,0,64,0,,
362880,set_tempo,120,1,0,,,,,,,,,,,,447761,,,,,,,
362936,control_change,56,0,2,,,,,,,,,,,,,,,0,64,127,,
363000,note_on,120,0,1,,,,,,,,,,,,,,,0,,,65,35
363020,set_tempo,140,1,0,,,,,,,,,,,,451399,,,,,,,
363120,note_on,184,0,2,,,,,,,,,,,,,,,0,,,43,33
363120,note_on,120,0,1,,,,,,,,,,,,,,,0,,,65,0
363120,note_on,0,0,1,,,,,,,,,,,,,,,0,,,62,36
363240,note_on,120,0,1,,,,,,,,,,,,,,,0,,,62,0
363240,note_on,0,0,1,,,,,,,,,,,,,,,0,,,65,36
363360,set_tempo,340,1,0,,,,,,,,,,,,458015,,,,,,,
363360,note_on,240,0,2,,,,,,,,,,,,,,,0,,,43,0
363360,note_on,0,0,1,,,,,,,,,,,,,,,0,,,71,52
363360,note_on,0,0,1,,,,,,,,,,,,,,,0,,,71,0
363360,note_on,120,0,1,,,,,,,,,,,,,,,0,,,65,0
363424,control_change,64,0,2,,,,,,,,,,,,,,,0,64,0,,
363466,control_change,42,0,2,,,,,,,,,,,,,,,0,64,127,,
363480,note_on,120,0,1,,,,,,,,,,,,,,,0,,,65,38
363600,note_on,120,0,1,,,,,,,,,,,,,,,0,,,65,0
363600,note_on,134,0,2,,,,,,,,,,,,,,,0,,,43,36
363600,note_on,0,0,1,,,,,,,,,,,,,,,0,,,62,38
363720,note_on,0,0,1,,,,,,,,,,,,,,,0,,,65,39
363720,note_on,120,0,1,,,,,,,,,,,,,,,0,,,62,0
363840,control_change,0,0,2,,,,,,,,,,,,,,,0,64,0,,
363840,note_on,240,0,2,,,,,,,,,,,,,,,0,,,43,0
363840,note_on,120,0,1,,,,,,,,,,,,,,,0,,,65,0
363840,note_on,0,0,1,,,,,,,,,,,,,,,0,,,71,56
363840,note_on,0,0,1,,,,,,,,,,,,,,,0,,,71,0
363840,set_tempo,480,1,0,,,,,,,,,,,,447761,,,,,,,
363880,control_change,40,0,2,,,,,,,,,,,,,,,0,64,127,,
363960,note_on,120,0,1,,,,,,,,,,,,,,,0,,,65,39
364080,note_on,120,0,1,,,,,,,,,,,,,,,0,,,65,0
364080,note_on,200,0,2,,,,,,,,,,,,,,,0,,,36,36
364080,note_on,0,0,1,,,,,,,,,,,,,,,0,,,62,39
364200,note_on,0,0,1,,,,,,,,,,,,,,,0,,,65,38
364200,note_on,120,0,1,,,,,,,,,,,,,,,0,,,62,0
364320,note_on,240,0,2,,,,,,,,,,,,,,,0,,,36,0
364320,note_on,0,0,1,,,,,,,,,,,,,,,0,,,72,52
364320,note_on,0,0,1,,,,,,,,,,,,,,,0,,,71,0
364320,set_tempo,480,1,0,,,,,,,,,,,,451128,,,,,,,
364320,note_on,120,0,1,,,,,,,,,,,,,,,0,,,65,0
364377,control_change,57,0,2,,,,,,,,,,,,,,,0,64,0,,
364417,control_change,40,0,2,,,,,,,,,,,,,,,0,64,127,,
364440,note_on,120,0,1,,,,,,,,,,,,,,,0,,,67,37
364560,note_on,143,0,2,,,,,,,,,,,,,,,0,,,36,34
364560,note_on,120,0,1,,,,,,,,,,,,,,,0,,,67,0
364560,note_on,0,0,1,,,,,,,,,,,,,,,0,,,64,36
364680,note_on,0,0,1,,,,,,,,,,,,,,,0,,,67,35
364680,note_on,120,0,1,,,,,,,,,,,,,,,0,,,64,0
364800,note_on,0,0,1,,,,,,,,,,,,,,,0,,,72,0
364800,note_on,0,0,1,,,,,,,,,,,,,,,0,,,71,49
364800,note_on,120,0,1,,,,,,,,,,,,,,,0,,,67,0
364800,note_on,240,0,2,,,,,,,,,,,,,,,0,,,36,0
364800,control_change,0,0,2,,,,,,,,,,,,,,,0,64,0,,
364869,control_change,69,0,2,,,,,,,,,,,,,,,0,64,127,,
364920,note_on,120,0,1,,,,,,,,,,,,,,,0,,,67,35
365040,note_on,171,0,2,,,,,,,,,,,,,,,0,,,38,33
365040,note_on,0,0,1,,,,,,,,,,,,,,,0,,,62,35
365040,note_on,120,0,1,,,,,,,,,,,,,,,0,,,67,0
365160,note_on,0,0,1,,,,,,,,,,,,,,,0,,,67,35
365160,note_on,120,0,1,,,,,,,,,,,,,,,0,,,62,0
365280,note_on,0,0,1,,,,,,,,,,,,,,,0,,,69,49
365280,note_on,0,0,1,,,,,,,,,,,,,,,0,,,71,0
365280,note_on,120,0,1,,,,,,,,,,,,,,,0,,,67,0
365280,note_on,240,0,2,,,,,,,,,,,,,,,0,,,38,0
365320,set_tempo,1000,1,0,,,,,,,,,,,,451399,,,,,,,
365343,control_change,63,0,2,,,,,,,,,,,,,,,0,64,0,,
365389,control_change,46,0,2,,,,,,,,,,,,,,,0,64,127,,
365400,set_tempo,80,1,0,,,,,,,,,,,,453172,,,,,,,
365400,note_on,120,0,1,,,,,,,,,,,,,,,0,,,66,35
365480,set_tempo,80,1,0,,,,,,,,,,,,454959,,,,,,,
365520,set_tempo,40,1,0,,,,,,,,,,,,456725,,,,,,,
365520,note_on,0,0,1,,,,,,,,,,,,,,,0,,,62,35
365520,note_on,120,0,1,,,,,,,,,,,,,,,0,,,66,0
365520,note_on,131,0,2,,,,,,,,,,,,,,,0,,,38,33
365600,set_tempo,80,1,0,,,,,,,,,,,,458540,,,,,,,
365640,note_on,0,0,1,,,,,,,,,,,,,,,0,,,66,35
365640,note_on,120,0,1,,,,,,,,,,,,,,,0,,,62,0
365680,set_tempo,80,1,0,,,,,,,,,,,,460370,,,,,,,
365720,set_tempo,40,1,0,,,,,,,,,,,,462214,,,,,,,
365760,set_tempo,40,1,0,,,,,,,,,,,,506586,,,,,,,
365760,control_change,0,0,2,,,,,,,,,,,,,,,0,64,0,,
365760,note_on,240,0,2,,,,,,,,,,,,,,,0,,,38,0
365760,note_on,120,0,1,,,,,,,,,,,,,,,0,,,66,0
365760,note_on,0,0,1,,,,,,,,,,,,,,,0,,,69,0
365760,note_on,0,0,1,,,,,,,,,,,,,,,0,,,71,47
365787,control_change,27,0,2,,,,,,,,,,,,,,,0,64,0,,
365811,control_change,24,0,2,,,,,,,,,,,,,,,0,64,127,,
365860,set_tempo,100,1,0,,,,,,,,,,,,462214,,,,,,,
365880,note_on,120,0,1,,,,,,,,,,,,,,,0,,,67,35
366000,note_on,189,0,2,,,,,,,,,,,,,,,0,,,43,33
366000,note_on,120,0,1,,,,,,,,,,,,,,,0,,,67,0
366000,note_on,0,0,1,,,,,,,,,,,,,,,0,,,65,35
366020,set_tempo,160,1,0,,,,,,,,,,,,460370,,,,,,,
366120,note_on,0,0,1,,,,,,,,,,,,,,,0,,,67,35
366120,note_on,120,0,1,,,,,,,,,,,,,,,0,,,65,0
366140,set_tempo,120,1,0,,,,,,,,,,,,458540,,,,,,,
366240,note_on,0,0,1,,,,,,,,,,,,,,,0,,,72,49
366240,note_on,120,0,1,,,,,,,,,,,,,,,0,,,67,0
366240,note_on,240,0,2,,,,,,,,,,,,,,,0,,,43,0
366240,note_on,0,0,1,,,,,,,,,,,,,,,0,,,71,0
366269,control_change,29,0,2,,,,,,,,,,,,,,,0,64,0,,
366300,set_tempo,160,1,0,,,,,,,,,,,,456725,,,,,,,
366326,control_change,57,0,2,,,,,,,,,,,,,,,0,64,127,,
366360,note_on,120,0,1,,,,,,,,,,,,,,,0,,,69,35
366420,set_tempo,120,1,0,,,,,,,,,,,,454959,,,,,,,
366480,note_on,154,0,2,,,,,,,,,,,,,,,0,,,55,33
366480,note_on,0,0,1,,,,,,,,,,,,,,,0,,,65,35
366480,note_on,120,0,1,,,,,,,,,,,,,,,0,,,69,0
366580,set_tempo,160,1,0,,,,,,,,,,,,453172,,,,,,,
366600,note_on,0,0,1,,,,,,,,,,,,,,,0,,,69,35
366600,note_on,120,0,1,,,,,,,,,,,,,,,0,,,65,0
366700,set_tempo,120,1,0,,,,,,,,,,,,451399,,,,,,,
366720,control_change,0,0,2,,,,,,,,,,,,,,,0,64,0,,
366720,note_on,240,0,2,,,,,,,,,,,,,,,0,,,55,0
366720,note_on,120,0,1,,,,,,,,,,,,,,,0,,,69,0
366720,note_on,0,0,1,,,,,,,,,,,,,,,0,,,72,0
366720,note_on,0,0,1,,,,,,,,,,,,,,,0,,,74,49
366776,control_change,56,0,2,,,,,,,,,,,,,,,0,64,127,,
366840,note_on,120,0,1,,,,,,,,,,,,,,,0,,,71,35
366860,set_tempo,160,1,0,,,,,,,,,,,,449640,,,,,,,
366960,note_on,120,0,1,,,,,,,,,,,,,,,0,,,71,0
366960,note_on,184,0,2,,,,,,,,,,,,,,,0,,,55,33
366960,note_on,0,0,1,,,,,,,,,,,,,,,0,,,65,36
366980,set_tempo,120,1,0,,,,,,,,,,,,447928,,,,,,,
367080,note_on,0,0,1,,,,,,,,,,,,,,,0,,,71,36
367080,note_on,120,0,1,,,,,,,,,,,,,,,0,,,65,0
367100,set_tempo,120,1,0,,,,,,,,,,,,446196,,,,,,,
367180,set_tempo,80,1,0,,,,,,,,,,,,453172,,,,,,,
367200,note_on,120,0,1,,,,,,,,,,,,,,,0,,,71,0
367200,note_on,0,0,1,,,,,,,,,,,,,,,0,,,74,0
367200,note_on,0,0,1,,,,,,,,,,,,,,,0,,,74,52
367200,note_on,240,0,2,,,,,,,,,,,,,,,0,,,55,0
367200,set_tempo,20,1,0,,,,,,,,,,,,460370,,,,,,,
367234,control_change,34,0,2,,,,,,,,,,,,,,,0,64,0,,
367263,control_change,29,0,2,,,,,,,,,,,,,,,0,64,127,,
367320,note_on,120,0,1,,,,,,,,,,,,,,,0,,,71,38
367440,note_on,177,0,2,,,,,,,,,,,,,,,0,,,55,36
367440,note_on,0,0,1,,,,,,,,,,,,,,,0,,,65,38
367440,note_on,120,0,1,,,,,,,,,,,,,,,0,,,71,0
367560,note_on,120,0,1,,,,,,,,,,,,,,,0,,,65,0
367560,note_on,0,0,1,,,,,,,,,,,,,,,0,,,71,39
367680,control_change,0,0,2,,,,,,,,,,,,,,,0,64,0,,
367680,note_on,240,0,2,,,,,,,,,,,,,,,0,,,55,0
367680,note_on,120,0,1,,,,,,,,,,,,,,,0,,,71,0
367680,set_tempo,480,1,0,,,,,,,,,,,,456725,,,,,,,
367680,note_on,0,0,1,,,,,,,,,,,,,,,0,,,74,0
367680,note_on,0,0,1,,,,,,,,,,,,,,,0,,,74,56
367720,control_change,40,0,2,,,,,,,,,,,,,,,0,64,127,,
367800,note_on,120,0,1,,,,,,,,,,,,,,,0,,,71,39
367920,note_on,0,0,1,,,,,,,,,,,,,,,0,,,65,39
367920,note_on,200,0,2,,,,,,,,,,,,,,,0,,,48,36
367920,note_on,120,0,1,,,,,,,,,,,,,,,0,,,71,0
368040,note_on,120,0,1,,,,,,,,,,,,,,,0,,,65,0
368040,note_on,0,0,1,,,,,,,,,,,,,,,0,,,71,38
368160,note_on,120,0,1,,,,,,,,,,,,,,,0,,,71,0
368160,note_on,0,0,1,,,,,,,,,,,,,,,0,,,74,0
368160,note_on,0,0,1,,,,,,,,,,,,,,,0,,,76,52
368160,note_on,240,0,2,,,,,,,,,,,,,,,0,,,48,0
368200,set_tempo,520,1,0,,,,,,,,,,,,453172,,,,,,,
368217,control_change,57,0,2,,,,,,,,,,,,,,,0,64,0,,
368257,control_change,40,0,2,,,,,,,,,,,,,,,0,64,127,,
368280,note_on,120,0,1,,,,,,,,,,,,,,,0,,,72,37
368400,note_on,120,0,1,,,,,,,,,,,,,,,0,,,72,0
368400,note_on,143,0,2,,,,,,,,,,,,,,,0,,,48,34
368400,note_on,0,0,1,,,,,,,,,,,,,,,0,,,64,36
368520,note_on,0,0,1,,,,,,,,,,,,,,,0,,,72,35
368520,note_on,120,0,1,,,,,,,,,,,,,,,0,,,64,0
368640,note_on,0,0,1,,,,,,,,,,,,,,,0,,,74,49
368640,note_on,0,0,1,,,,,,,,,,,,,,,0,,,76,0
368640,note_on,240,0,2,,,,,,,,,,,,,,,0,,,48,0
368640,control_change,0,0,2,,,,,,,,,,,,,,,0,64,0,,
368640,note_on,120,0,1,,,,,,,,,,,,,,,0,,,72,0
368709,control_change,69,0,2,,,,,,,,,,,,,,,0,64,127,,
368760,note_on,120,0,1,,,,,,,,,,,,,,,0,,,71,35
368880,note_on,0,0,1,,,,,,,,,,,,,,,0,,,67,35
368880,note_on,171,0,2,,,,,,,,,,,,,,,0,,,50,33
368880,note_on,120,0,1,,,,,,,,,,,,,,,0,,,71,0
369000,note_on,120,0,1,,,,,,,,,,,,,,,0,,,67,0
369000,note_on,0,0,1,,,,,,,,,,,,,,,0,,,71,35
369120,note_on,120,0,1,,,,,,,,,,,,,,,0,,,71,0
369120,note_on,0,0,1,,,,,,,,,,,,,,,0,,,74,0
369120,note_on,240,0,2,,,,,,,,,,,,,,,0,,,50,0
369120,note_on,0,0,1,,,,,,,,,,,,,,,0,,,74,49
369149,control_change,29,0,2,,,,,,,,,,,,,,,0,64,0,,
369160,set_tempo,960,1,0,,,,,,,,,,,,451399,,,,,,,
369183,control_change,34,0,2,,,,,,,,,,,,,,,0,64,127,,
369240,set_tempo,80,1,0,,,,,,,,,,,,453172,,,,,,,
369240,note_on,120,0,1,,,,,,,,,,,,,,,0,,,69,35
369320,set_tempo,80,1,0,,,,,,,,,,,,454959,,,,,,,
369360,note_on,120,0,1,,,,,,,,,,,,,,,0,,,69,0
369360,note_on,0,0,1,,,,,,,,,,,,,,,0,,,66,35
369360,set_tempo,40,1,0,,,,,,,,,,,,473522,,,,,,,
369360,note_on,177,0,2,,,,,,,,,,,,,,,0,,,50,33
369480,note_on,120,0,1,,,,,,,,,,,,,,,0,,,66,0
369480,note_on,0,0,1,,,,,,,,,,,,,,,0,,,69,35
369600,note_on,120,0,1,,,,,,,,,,,,,,,0,,,69,0
369600,note_on,0,0,1,,,,,,,,,,,,,,,0,,,74,0
369600,note_on,0,0,1,,,,,,,,,,,,,,,0,,,74,42
369600,set_tempo,240,1,0,,,,,,,,,,,,506586,,,,,,,
369600,note_on,0,0,2,,,,,,,,,,,,,,,0,,,55,29
369600,note_on,240,0,2,,,,,,,,,,,,,,,0,,,50,0
369600,control_change,0,0,2,,,,,,,,,,,,,,,0,64,0,,
369627,control_change,27,0,2,,,,,,,,,,,,,,,0,64,0,,
369651,control_change,24,0,2,,,,,,,,,,,,,,,0,64,127,,
369720,note_on,120,0,1,,,,,,,,,,,,,,,0,,,71,31
369720,set_tempo,120,1,0,,,,,,,,,,,,471587,,,,,,,
369760,set_tempo,40,1,0,,,,,,,,,,,,471587,,,,,,,
369840,note_on,120,0,1,,,,,,,,,,,,,,,0,,,71,0
369840,note_on,0,0,1,,,,,,,,,,,,,,,0,,,67,31
369960,note_on,0,0,1,,,,,,,,,,,,,,,0,,,71,31
369960,note_on,120,0,1,,,,,,,,,,,,,,,0,,,67,0
370040,set_tempo,280,1,0,,,,,,,,,,,,469667,,,,,,,
370080,note_on,120,0,1,,,,,,,,,,,,,,,0,,,71,0
370080,note_on,0,0,1,,,,,,,,,,,,,,,0,,,74,0
370080,note_on,0,0,1,,,,,,,,,,,,,,,0,,,79,39
370080,note_on,429,0,2,,,,,,,,,,,,,,,0,,,59,29
370080,set_tempo,40,1,0,,,,,,,,,,,,460370,,,,,,,
370109,control_change,29,0,2,,,,,,,,,,,,,,,0,64,0,,
370166,control_change,57,0,2,,,,,,,,,,,,,,,0,64,127,,
370200,note_on,120,0,1,,,,,,,,,,,,,,,0,,,74,31
370320,note_on,120,0,1,,,,,,,,,,,,,,,0,,,74,0
370320,note_on,0,0,1,,,,,,,,,,,,,,,0,,,67,31
370440,note_on,0,0,1,,,,,,,,,,,,,,,0,,,74,31
370440,set_tempo,360,1,0,,,,,,,,,,,,458540,,,,,,,
370440,note_on,120,0,1,,,,,,,,,,,,,,,0,,,67,0
370560,note_on,120,0,1,,,,,,,,,,,,,,,0,,,74,0
370560,note_on,0,0,1,,,,,,,,,,,,,,,0,,,79,0
370560,control_change,0,0,2,,,,,,,,,,,,,,,0,64,0,,
370560,note_on,0,0,1,,,,,,,,,,,,,,,0,,,78,44
370560,note_on,394,0,2,,,,,,,,,,,,,,,0,,,59,0
370560,note_on,0,0,2,,,,,,,,,,,,,,,0,,,62,29
370616,control_change,56,0,2,,,,,,,,,,,,,,,0,64,127,,
370680,note_on,120,0,1,,,,,,,,,,,,,,,0,,,74,31
370760,set_tempo,320,1,0,,,,,,,,,,,,456725,,,,,,,
370800,note_on,120,0,1,,,,,,,,,,,,,,,0,,,74,0
370800,note_on,0,0,1,,,,,,,,,,,,,,,0,,,69,32
370920,note_on,120,0,1,,,,,,,,,,,,,,,0,,,69,0
370920,note_on,0,0,1,,,,,,,,,,,,,,,0,,,74,32
371040,note_on,0,0,2,,,,,,,,,,,,,,,0,,,60,32
371040,note_on,120,0,1,,,,,,,,,,,,,,,0,,,74,0
371040,note_on,0,0,1,,,,,,,,,,,,,,,0,,,78,0
371040,note_on,0,0,1,,,,,,,,,,,,,,,0,,,81,40
371040,set_tempo,280,1,0,,,,,,,,,,,,464037,,,,,,,
371040,note_on,424,0,2,,,,,,,,,,,,,,,0,,,62,0
371054,control_change,14,0,2,,,,,,,,,,,,,,,0,64,0,,
371096,control_change,42,0,2,,,,,,,,,,,,,,,0,64,127,,
371160,note_on,120,0,1,,,,,,,,,,,,,,,0,,,74,34
371280,note_on,0,0,1,,,,,,,,,,,,,,,0,,,69,33
371280,note_on,120,0,1,,,,,,,,,,,,,,,0,,,74,0
371400,note_on,120,0,1,,,,,,,,,,,,,,,0,,,69,0
371400,note_on,0,0,1,,,,,,,,,,,,,,,0,,,74,33
371440,set_tempo,400,1,0,,,,,,,,,,,,453172,,,,,,,
371520,set_tempo,80,1,0,,,,,,,,,,,,456725,,,,,,,
371520,control_change,0,0,2,,,,,,,,,,,,,,,0,64,0,,
371520,note_on,0,0,2,,,,,,,,,,,,,,,0,,,59,32
371520,note_on,424,0,2,,,,,,,,,,,,,,,0,,,60,0
371520,note_on,120,0,1,,,,,,,,,,,,,,,0,,,74,0
371520,note_on,0,0,1,,,,,,,,,,,,,,,0,,,81,0
371520,note_on,0,0,1,,,,,,,,,,,,,,,0,,,74,39
371560,control_change,40,0,2,,,,,,,,,,,,,,,0,64,127,,
371640,note_on,120,0,1,,,,,,,,,,,,,,,0,,,71,32
371760,note_on,0,0,1,,,,,,,,,,,,,,,0,,,67,32
371760,note_on,120,0,1,,,,,,,,,,,,,,,0,,,71,0
371880,note_on,0,0,1,,,,,,,,,,,,,,,0,,,71,32
371880,note_on,120,0,1,,,,,,,,,,,,,,,0,,,67,0
372000,note_on,0,0,2,,,,,,,,,,,,,,,0,,,55,0
372000,note_on,440,0,2,,,,,,,,,,,,,,,0,,,59,0
372000,note_on,0,0,2,,,,,,,,,,,,,,,0,,,48,30
372000,note_on,120,0,1,,,,,,,,,,,,,,,0,,,71,0
372000,note_on,0,0,1,,,,,,,,,,,,,,,0,,,74,0
372000,note_on,0,0,1,,,,,,,,,,,,,,,0,,,76,39
372000,set_tempo,480,1,0,,,,,,,,,,,,464037,,,,,,,
372000,note_on,0,0,2,,,,,,,,,,,,,,,0,,,55,30
372017,control_change,17,0,2,,,,,,,,,,,,,,,0,64,0,,
372057,control_change,40,0,2,,,,,,,,,,,,,,,0,64,127,,
372120,note_on,120,0,1,,,,,,,,,,,,,,,0,,,72,31
372240,note_on,120,0,1,,,,,,,,,,,,,,,0,,,72,0
372240,note_on,0,0,1,,,,,,,,,,,,,,,0,,,67,31
372360,note_on,120,0,1,,,,,,,,,,,,,,,0,,,67,0
372360,note_on,0,0,1,,,,,,,,,,,,,,,0,,,72,31
372400,set_tempo,400,1,0,,,,,,,,,,,,456725,,,,,,,
372480,note_on,0,0,2,,,,,,,,,,,,,,,0,,,48,0
372480,note_on,0,0,1,,,,,,,,,,,,,,,0,,,74,40
372480,note_on,0,0,1,,,,,,,,,,,,,,,0,,,76,0
372480,note_on,423,0,2,,,,,,,,,,,,,,,0,,,55,0
372480,note_on,120,0,1,,,,,,,,,,,,,,,0,,,72,0
372480,control_change,0,0,2,,,,,,,,,,,,,,,0,64,0,,
372480,note_on,0,0,2,,,,,,,,,,,,,,,0,,,50,29
372480,note_on,0,0,2,,,,,,,,,,,,,,,0,,,54,29
372520,set_tempo,120,1,0,,,,,,,,,,,,458540,,,,,,,
372526,control_change,46,0,2,,,,,,,,,,,,,,,0,64,127,,
372600,note_on,120,0,1,,,,,,,,,,,,,,,0,,,72,31
372720,note_on,0,0,1,,,,,,,,,,,,,,,0,,,69,31
372720,note_on,120,0,1,,,,,,,,,,,,,,,0,,,72,0
372840,note_on,0,0,1,,,,,,,,,,,,,,,0,,,72,31
372840,note_on,120,0,1,,,,,,,,,,,,,,,0,,,69,0
372960,note_on,120,0,1,,,,,,,,,,,,,,,0,,,72,0
372960,note_on,0,0,1,,,,,,,,,,,,,,,0,,,74,0
372960,note_on,0,0,1,,,,,,,,,,,,,,,0,,,74,38
372960,note_on,434,0,2,,,,,,,,,,,,,,,0,,,54,0
372960,note_on,0,0,2,,,,,,,,,,,,,,,0,,,57,29
373000,set_tempo,480,1,0,,,,,,,,,,,,456725,,,,,,,
373023,control_change,63,0,2,,,,,,,,,,,,,,,0,64,0,,
373069,control_change,46,0,2,,,,,,,,,,,,,,,0,64,127,,
373080,note_on,120,0,1,,,,,,,,,,,,,,,0,,,72,31
373120,set_tempo,120,1,0,,,,,,,,,,,,458540,,,,,,,
373200,note_on,0,0,1,,,,,,,,,,,,,,,0,,,66,31
373200,note_on,120,0,1,,,,,,,,,,,,,,,0,,,72,0
373240,set_tempo,120,1,0,,,,,,,,,,,,460370,,,,,,,
373320,note_on,120,0,1,,,,,,,,,,,,,,,0,,,66,0
373320,note_on,0,0,1,,,,,,,,,,,,,,,0,,,72,31
373360,set_tempo,120,1,0,,,,,,,,,,,,462214,,,,,,,
373440,set_tempo,80,1,0,,,,,,,,,,,,506586,,,,,,,
373440,note_on,0,0,1,,,,,,,,,,,,,,,0,,,74,42
373440,note_on,0,0,1,,,,,,,,,,,,,,,0,,,74,0
373440,note_on,120,0,1,,,,,,,,,,,,,,,0,,,72,0
373440,control_change,0,0,2,,,,,,,,,,,,,,,0,64,0,,
373440,note_on,371,0,2,,,,,,,,,,,,,,,0,,,57,0
373440,note_on,0,0,2,,,,,,,,,,,,,,,0,,,50,0
373440,note_on,0,0,2,,,,,,,,,,,,,,,0,,,55,29
373467,control_change,27,0,2,,,,,,,,,,,,,,,0,64,0,,
373491,control_change,24,0,2,,,,,,,,,,,,,,,0,64,127,,
373560,note_on,120,0,1,,,,,,,,,,,,,,,0,,,71,31
373560,set_tempo,120,1,0,,,,,,,,,,,,471587,,,,,,,
373600,set_tempo,40,1,0,,,,,,,,,,,,471587,,,,,,,
373680,note_on,120,0,1,,,,,,,,,,,,,,,0,,,71,0
373680,note_on,0,0,1,,,,,,,,,,,,,,,0,,,67,31
373800,note_on,120,0,1,,,,,,,,,,,,,,,0,,,67,0
373800,note_on,0,0,1,,,,,,,,,,,,,,,0,,,71,31
373880,set_tempo,280,1,0,,,,,,,,,,,,454959,,,,,,,
373920,note_on,429,0,2,,,,,,,,,,,,,,,0,,,59,29
373920,note_on,0,0,1,,,,,,,,,,,,,,,0,,,79,39
373920,note_on,0,0,1,,,,,,,,,,,,,,,0,,,74,0
373920,note_on,120,0,1,,,,,,,,,,,,,,,0,,,71,0
373949,control_change,29,0,2,,,,,,,,,,,,,,,0,64,0,,
374006,control_change,57,0,2,,,,,,,,,,,,,,,0,64,127,,
374040,note_on,120,0,1,,,,,,,,,,,,,,,0,,,74,31
374160,note_on,0,0,1,,,,,,,,,,,,,,,0,,,67,31
374160,note_on,120,0,1,,,,,,,,,,,,,,,0,,,74,0
374280,note_on,0,0,1,,,,,,,,,,,,,,,0,,,74,31
374280,note_on,120,0,1,,,,,,,,,,,,,,,0,,,67,0
374400,note_on,394,0,2,,,,,,,,,,,,,,,0,,,59,0
374400,note_on,0,0,1,,,,,,,,,,,,,,,0,,,78,44
374400,note_on,0,0,1,,,,,,,,,,,,,,,0,,,79,0
374400,note_on,120,0,1,,,,,,,,,,,,,,,0,,,74,0
374400,control_change,0,0,2,,,,,,,,,,,,,,,0,64,0,,
374400,note_on,0,0,2,,,,,,,,,,,,,,,0,,,62,29
374456,control_change,56,0,2,,,,,,,,,,,,,,,0,64,127,,
374520,note_on,120,0,1,,,,,,,,,,,,,,,0,,,74,31
374560,set_tempo,680,1,0,,,,,,,,,,,,453172,,,,,,,
374640,note_on,120,0,1,,,,,,,,,,,,,,,0,,,74,0
374640,note_on,0,0,1,,,,,,,,,,,,,,,0,,,69,32
374640,note_on,0,0,2,,,,,,,,,,,,,,,0,,,63,26
374640,note_on,184,0,2,,,,,,,,,,,,,,,0,,,62,0
374760,note_on,120,0,1,,,,,,,,,,,,,,,0,,,69,0
374760,note_on,0,0,1,,,,,,,,,,,,,,,0,,,74,32
374880,set_tempo,320,1,0,,,,,,,,,,,,458540,,,,,,,
374880,note_on,0,0,2,,,,,,,,,,,,,,,0,,,62,29
374880,note_on,240,0,2,,,,,,,,,,,,,,,0,,,63,0
374880,note_on,120,0,1,,,,,,,,,,,,,,,0,,,74,0
374880,note_on,0,0,1,,,,,,,,,,,,,,,0,,,78,0
374880,note_on,0,0,1,,,,,,,,,,,,,,,0,,,81,40
374894,control_change,14,0,2,,,,,,,,,,,,,,,0,64,0,,
374936,control_change,42,0,2,,,,,,,,,,,,,,,0,64,127,,
375000,note_on,120,0,1,,,,,,,,,,,,,,,0,,,74,34
375120,note_on,0,0,2,,,,,,,,,,,,,,,0,,,60,27
375120,note_on,0,0,1,,,,,,,,,,,,,,,0,,,69,33
375120,note_on,184,0,2,,,,,,,,,,,,,,,0,,,62,0
375120,note_on,120,0,1,,,,,,,,,,,,,,,0,,,74,0
375240,set_tempo,360,1,0,,,,,,,,,,,,451399,,,,,,,
375240,note_on,120,0,1,,,,,,,,,,,,,,,0,,,69,0
375240,note_on,0,0,1,,,,,,,,,,,,,,,0,,,74,33
375360,note_on,120,0,1,,,,,,,,,,,,,,,0,,,74,0
375360,note_on,0,0,1,,,,,,,,,,,,,,,0,,,81,0
375360,note_on,0,0,1,,,,,,,,,,,,,,,0,,,74,40
375360,set_tempo,120,1,0,,,,,,,,,,,,464037,,,,,,,
375360,note_on,240,0,2,,,,,,,,,,,,,,,0,,,60,0
375360,control_change,0,0,2,,,,,,,,,,,,,,,0,64,0,,
375360,note_on,0,0,2,,,,,,,,,,,,,,,0,,,59,32
375400,control_change,40,0,2,,,,,,,,,,,,,,,0,64,127,,
375480,note_on,120,0,1,,,,,,,,,,,,,,,0,,,71,32
375600,note_on,0,0,1,,,,,,,,,,,,,,,0,,,67,32
375600,note_on,120,0,1,,,,,,,,,,,,,,,0,,,71,0
375720,note_on,0,0,1,,,,,,,,,,,,,,,0,,,71,32
375720,note_on,120,0,1,,,,,,,,,,,,,,,0,,,67,0
375840,note_on,0,0,1,,,,,,,,,,,,,,,0,,,75,39
375840,note_on,0,0,2,,,,,,,,,,,,,,,0,,,48,30
375840,set_tempo,480,1,0,,,,,,,,,,,,461538,,,,,,,
375840,note_on,0,0,2,,,,,,,,,,,,,,,0,,,55,30
375840,note_on,440,0,2,,,,,,,,,,,,,,,0,,,59,0
375840,note_on,0,0,1,,,,,,,,,,,,,,,0,,,74,0
375840,note_on,0,0,2,,,,,,,,,,,,,,,0,,,55,0
375840,note_on,120,0,1,,,,,,,,,,,,,,,0,,,71,0
375857,control_change,17,0,2,,,,,,,,,,,,,,,0,64,0,,
375891,control_change,34,0,2,,,,,,,,,,,,,,,0,64,127,,
375960,note_on,120,0,1,,,,,,,,,,,,,,,0,,,72,31
376080,note_on,0,0,1,,,,,,,,,,,,,,,0,,,67,31
376080,note_on,120,0,1,,,,,,,,,,,,,,,0,,,72,0
376200,note_on,120,0,1,,,,,,,,,,,,,,,0,,,67,0
376200,note_on,0,0,1,,,,,,,,,,,,,,,0,,,72,31
376320,note_on,0,0,2,,,,,,,,,,,,,,,0,,,54,29
376320,note_on,0,0,2,,,,,,,,,,,,,,,0,,,48,0
376320,note_on,429,0,2,,,,,,,,,,,,,,,0,,,55,0
376320,note_on,120,0,1,,,,,,,,,,,,,,,0,,,72,0
376320,note_on,0,0,2,,,,,,,,,,,,,,,0,,,50,29
376320,control_change,0,0,2,,,,,,,,,,,,,,,0,64,0,,
376320,note_on,0,0,1,,,,,,,,,,,,,,,0,,,74,39
376320,note_on,0,0,1,,,,,,,,,,,,,,,0,,,75,0
376360,set_tempo,520,1,0,,,,,,,,,,,,458540,,,,,,,
376389,control_change,69,0,2,,,,,,,,,,,,,,,0,64,127,,
376440,note_on,120,0,1,,,,,,,,,,,,,,,0,,,72,31
376560,note_on,120,0,1,,,,,,,,,,,,,,,0,,,72,0
376560,note_on,0,0,1,,,,,,,,,,,,,,,0,,,69,31
376680,note_on,120,0,1,,,,,,,,,,,,,,,0,,,69,0
376680,note_on,0,0,1,,,,,,,,,,,,,,,0,,,72,31
376800,note_on,0,0,2,,,,,,,,,,,,,,,0,,,57,29
376800,note_on,411,0,2,,,,,,,,,,,,,,,0,,,54,0
376800,note_on,120,0,1,,,,,,,,,,,,,,,0,,,72,0
376800,note_on,0,0,1,,,,,,,,,,,,,,,0,,,74,0
376800,note_on,0,0,1,,,,,,,,,,,,,,,0,,,74,38
376829,control_change,29,0,2,,,,,,,,,,,,,,,0,64,0,,
376840,set_tempo,480,1,0,,,,,,,,,,,,456725,,,,,,,
376857,control_change,28,0,2,,,,,,,,,,,,,,,0,64,127,,
376920,note_on,120,0,1,,,,,,,,,,,,,,,0,,,72,31
376960,set_tempo,120,1,0,,,,,,,,,,,,458540,,,,,,,
377040,note_on,120,0,1,,,,,,,,,,,,,,,0,,,72,0
377040,note_on,0,0,1,,,,,,,,,,,,,,,0,,,66,31
377080,set_tempo,120,1,0,,,,,,,,,,,,460370,,,,,,,
377160,note_on,120,0,1,,,,,,,,,,,,,,,0,,,66,0
377160,note_on,0,0,1,,,,,,,,,,,,,,,0,,,72,31
377200,set_tempo,120,1,0,,,,,,,,,,,,462214,,,,,,,
377280,note_on,0,0,2,,,,,,,,,,,,,,,0,,,55,32
377280,note_on,423,0,2,,,,,,,,,,,,,,,0,,,57,0
377280,note_on,0,0,2,,,,,,,,,,,,,,,0,,,50,0
377280,control_change,0,0,2,,,,,,,,,,,,,,,0,64,0,,
377280,note_on,0,0,1,,,,,,,,,,,,,,,0,,,74,44
377280,note_on,0,0,1,,,,,,,,,,,,,,,0,,,74,0
377280,note_on,120,0,1,,,,,,,,,,,,,,,0,,,72,0
377280,set_tempo,80,1,0,,,,,,,,,,,,464037,,,,,,,
377320,control_change,40,0,2,,,,,,,,,,,,,,,0,64,127,,
377400,note_on,120,0,1,,,,,,,,,,,,,,,0,,,71,31
377520,note_on,120,0,1,,,,,,,,,,,,,,,0,,,71,0
377520,note_on,0,0,1,,,,,,,,,,,,,,,0,,,67,31
377640,note_on,0,0,1,,,,,,,,,,,,,,,0,,,71,31
377640,note_on,120,0,1,,,,,,,,,,,,,,,0,,,67,0
377760,note_on,0,0,1,,,,,,,,,,,,,,,0,,,75,37
377760,note_on,0,0,1,,,,,,,,,,,,,,,0,,,74,0
377760,note_on,120,0,1,,,,,,,,,,,,,,,0,,,71,0
377760,set_tempo,480,1,0,,,,,,,,,,,,463320,,,,,,,
377760,note_on,440,0,2,,,,,,,,,,,,,,,0,,,48,28
377817,control_change,57,0,2,,,,,,,,,,,,,,,0,64,0,,
377857,control_change,40,0,2,,,,,,,,,,,,,,,0,64,127,,
377880,note_on,120,0,1,,,,,,,,,,,,,,,0,,,72,29
378000,note_on,120,0,1,,,,,,,,,,,,,,,0,,,72,0
378000,note_on,0,0,1,,,,,,,,,,,,,,,0,,,67,28
378120,note_on,120,0,1,,,,,,,,,,,,,,,0,,,67,0
378120,note_on,0,0,1,,,,,,,,,,,,,,,0,,,72,28
378240,note_on,0,0,2,,,,,,,,,,,,,,,0,,,54,26
378240,note_on,383,0,2,,,,,,,,,,,,,,,0,,,48,0
378240,note_on,0,0,2,,,,,,,,,,,,,,,0,,,55,0
378240,note_on,0,0,1,,,,,,,,,,,,,,,0,,,74,36
378240,note_on,0,0,2,,,,,,,,,,,,,,,0,,,50,26
378240,note_on,0,0,1,,,,,,,,,,,,,,,0,,,75,0
378240,control_change,0,0,2,,,,,,,,,,,,,,,0,64,0,,
378240,note_on,120,0,1,,,,,,,,,,,,,,,0,,,72,0
378280,set_tempo,520,1,0,,,,,,,,,,,,458540,,,,,,,
378309,control_change,69,0,2,,,,,,,,,,,,,,,0,64,127,,
378360,note_on,120,0,1,,,,,,,,,,,,,,,0,,,72,28
378480,note_on,120,0,1,,,,,,,,,,,,,,,0,,,72,0
378480,note_on,0,0,1,,,,,,,,,,,,,,,0,,,69,28
378600,note_on,120,0,1,,,,,,,,,,,,,,,0,,,69,0
378600,note_on,0,0,1,,,,,,,,,,,,,,,0,,,72,28
378720,note_on,0,0,2,,,,,,,,,,,,,,,0,,,57,26
378720,note_on,411,0,2,,,,,,,,,,,,,,,0,,,54,0
378720,note_on,120,0,1,,,,,,,,,,,,,,,0,,,72,0
378720,note_on,0,0,1,,,,,,,,,,,,,,,0,,,74,0
378720,note_on,0,0,1,,,,,,,,,,,,,,,0,,,74,34
378760,set_tempo,480,1,0,,,,,,,,,,,,456725,,,,,,,
378783,control_change,63,0,2,,,,,,,,,,,,,,,0,64,0,,
378817,control_change,34,0,2,,,,,,,,,,,,,,,0,64,127,,
378840,note_on,120,0,1,,,,,,,,,,,,,,,0,,,72,28
378880,set_tempo,120,1,0,,,,,,,,,,,,458540,,,,,,,
378960,note_on,120,0,1,,,,,,,,,,,,,,,0,,,72,0
378960,note_on,0,0,1,,,,,,,,,,,,,,,0,,,66,28
378968,set_tempo,88,1,0,,,,,,,,,,,,460370,,,,,,,
379008,set_tempo,40,1,0,,,,,,,,,,,,462214,,,,,,,
379048,set_tempo,40,1,0,,,,,,,,,,,,464037,,,,,,,
379080,note_on,120,0,1,,,,,,,,,,,,,,,0,,,66,0
379080,note_on,0,0,1,,,,,,,,,,,,,,,0,,,72,28
379088,set_tempo,40,1,0,,,,,,,,,,,,465911,,,,,,,
379128,set_tempo,40,1,0,,,,,,,,,,,,469667,,,,,,,
379168,set_tempo,40,1,0,,,,,,,,,,,,467800,,,,,,,
379200,note_on,383,0,2,,,,,,,,,,,,,,,0,,,57,0
379200,note_on,0,0,1,,,,,,,,,,,,,,,0,,,74,0
379200,control_change,0,0,2,,,,,,,,,,,,,,,0,64,0,,
379200,note_on,0,0,2,,,,,,,,,,,,,,,0,,,43,26
379200,note_on,0,0,1,,,,,,,,,,,,,,,0,,,74,36
379200,note_on,0,0,2,,,,,,,,,,,,,,,0,,,50,0
379200,note_on,120,0,1,,,,,,,,,,,,,,,0,,,72,0
379242,control_change,42,0,2,,,,,,,,,,,,,,,0,64,127,,
379248,set_tempo,80,1,0,,,,,,,,,,,,465911,,,,,,,
379288,set_tempo,40,1,0,,,,,,,,,,,,464037,,,,,,,
379320,note_on,120,0,1,,,,,,,,,,,,,,,0,,,70,28
379368,set_tempo,80,1,0,,,,,,,,,,,,462214,,,,,,,
379408,set_tempo,40,1,0,,,,,,,,,,,,460370,,,,,,,
379440,note_on,0,0,1,,,,,,,,,,,,,,,0,,,67,28
379440,note_on,120,0,1,,,,,,,,,,,,,,,0,,,70,0
379488,set_tempo,80,1,0,,,,,,,,,,,,458540,,,,,,,
379528,set_tempo,40,1,0,,,,,,,,,,,,456725,,,,,,,
379560,note_on,0,0,1,,,,,,,,,,,,,,,0,,,70,28
379560,note_on,120,0,1,,,,,,,,,,,,,,,0,,,67,0
379680,note_on,438,0,2,,,,,,,,,,,,,,,0,,,43,0
379680,note_on,0,0,1,,,,,,,,,,,,,,,0,,,74,34
379680,note_on,0,0,1,,,,,,,,,,,,,,,0,,,74,0
379680,note_on,120,0,1,,,,,,,,,,,,,,,0,,,70,0
379680,note_on,0,0,2,,,,,,,,,,,,,,,0,,,46,26
379687,control_change,7,0,2,,,,,,,,,,,,,,,0,64,0,,
379720,set_tempo,192,1,0,,,,,,,,,,,,456725,,,,,,,
379729,control_change,42,0,2,,,,,,,,,,,,,,,0,64,127,,
379800,note_on,120,0,1,,,,,,,,,,,,,,,0,,,70,28
379840,set_tempo,120,1,0,,,,,,,,,,,,458540,,,,,,,
379920,note_on,0,0,1,,,,,,,,,,,,,,,0,,,65,28
379920,note_on,120,0,1,,,,,,,,,,,,,,,0,,,70,0
380040,note_on,0,0,1,,,,,,,,,,,,,,,0,,,70,28
380040,note_on,120,0,1,,,,,,,,,,,,,,,0,,,65,0
380160,note_on,0,0,2,,,,,,,,,,,,,,,0,,,50,26
380160,control_change,0,0,2,,,,,,,,,,,,,,,0,64,0,,
380160,set_tempo,320,1,0,,,,,,,,,,,,449438,,,,,,,
380160,note_on,431,0,2,,,,,,,,,,,,,,,0,,,46,0
380160,note_on,120,0,1,,,,,,,,,,,,,,,0,,,70,0
380160,note_on,0,0,1,,,,,,,,,,,,,,,0,,,74,0
380160,note_on,0,0,1,,,,,,,,,,,,,,,0,,,74,36
380195,control_change,35,0,2,,,,,,,,,,,,,,,0,64,127,,
380280,note_on,120,0,1,,,,,,,,,,,,,,,0,,,69,28
380400,note_on,120,0,1,,,,,,,,,,,,,,,0,,,69,0
380400,note_on,0,0,1,,,,,,,,,,,,,,,0,,,65,28
380520,note_on,120,0,1,,,,,,,,,,,,,,,0,,,65,0
380520,note_on,0,0,1,,,,,,,,,,,,,,,0,,,69,28
380640,note_on,120,0,1,,,,,,,,,,,,,,,0,,,69,0
380640,note_on,0,0,2,,,,,,,,,,,,,,,0,,,53,26
380640,note_on,0,0,1,,,,,,,,,,,,,,,0,,,74,0
380640,note_on,445,0,2,,,,,,,,,,,,,,,0,,,50,0
380640,note_on,0,0,1,,,,,,,,,,,,,,,0,,,72,34
380661,control_change,21,0,2,,,,,,,,,,,,,,,0,64,0,,
380680,set_tempo,520,1,0,,,,,,,,,,,,456725,,,,,,,
380711,control_change,50,0,2,,,,,,,,,,,,,,,0,64,127,,
380760,note_on,120,0,1,,,,,,,,,,,,,,,0,,,69,28
380800,set_tempo,120,1,0,,,,,,,,,,,,458540,,,,,,,
380880,note_on,0,0,1,,,,,,,,,,,,,,,0,,,65,28
380880,note_on,120,0,1,,,,,,,,,,,,,,,0,,,69,0
380920,set_tempo,120,1,0,,,,,,,,,,,,460370,,,,,,,
381000,note_on,0,0,1,,,,,,,,,,,,,,,0,,,69,28
381000,note_on,120,0,1,,,,,,,,,,,,,,,0,,,65,0
381040,set_tempo,120,1,0,,,,,,,,,,,,462214,,,,,,,
381120,control_change,0,0,2,,,,,,,,,,,,,,,0,64,0,,
381120,note_on,0,0,1,,,,,,,,,,,,,,,0,,,72,36
381120,note_on,0,0,1,,,,,,,,,,,,,,,0,,,72,0
381120,note_on,120,0,1,,,,,,,,,,,,,,,0,,,69,0
381120,note_on,409,0,2,,,,,,,,,,,,,,,0,,,53,0
381120,set_tempo,80,1,0,,,,,,,,,,,,461538,,,,,,,
381120,note_on,0,0,2,,,,,,,,,,,,,,,0,,,41,26
381160,control_change,40,0,2,,,,,,,,,,,,,,,0,64,127,,
381200,set_tempo,80,1,0,,,,,,,,,,,,459770,,,,,,,
381240,note_on,120,0,1,,,,,,,,,,,,,,,0,,,68,28
381280,set_tempo,80,1,0,,,,,,,,,,,,458015,,,,,,,
381320,set_tempo,40,1,0,,,,,,,,,,,,456274,,,,,,,
381360,note_on,120,0,1,,,,,,,,,,,,,,,0,,,68,0
381360,note_on,0,0,1,,,,,,,,,,,,,,,0,,,65,28
381400,set_tempo,80,1,0,,,,,,,,,,,,454545,,,,,,,
381440,set_tempo,40,1,0,,,,,,,,,,,,452830,,,,,,,
381480,note_on,120,0,1,,,,,,,,,,,,,,,0,,,65,0
381480,note_on,0,0,1,,,,,,,,,,,,,,,0,,,68,28
381520,set_tempo,80,1,0,,,,,,,,,,,,451128,,,,,,,
381560,set_tempo,40,1,0,,,,,,,,,,,,449438,,,,,,,
381600,note_on,120,0,1,,,,,,,,,,,,,,,0,,,68,0
381600,note_on,440,0,2,,,,,,,,,,,,,,,0,,,41,0
381600,note_on,0,0,2,,,,,,,,,,,,,,,0,,,44,26
381600,note_on,0,0,1,,,,,,,,,,,,,,,0,,,72,0
381600,note_on,0,0,1,,,,,,,,,,,,,,,0,,,72,34
381617,control_change,17,0,2,,,,,,,,,,,,,,,0,64,0,,
381640,set_tempo,80,1,0,,,,,,,,,,,,456725,,,,,,,
381657,control_change,40,0,2,,,,,,,,,,,,,,,0,64,127,,
381720,note_on,120,0,1,,,,,,,,,,,,,,,0,,,68,28
381760,set_tempo,120,1,0,,,,,,,,,,,,458540,,,,,,,
381840,note_on,120,0,1,,,,,,,,,,,,,,,0,,,68,0
381840,note_on,0,0,1,,,,,,,,,,,,,,,0,,,63,28
381880,set_tempo,120,1,0,,,,,,,,,,,,460370,,,,,,,
381960,note_on,120,0,1,,,,,,,,,,,,,,,0,,,63,0
381960,note_on,0,0,1,,,,,,,,,,,,,,,0,,,68,28
382000,set_tempo,120,1,0,,,,,,,,,,,,462214,,,,,,,
382080,note_on,0,0,1,,,,,,,,,,,,,,,0,,,72,0
382080,note_on,120,0,1,,,,,,,,,,,,,,,0,,,68,0
382080,note_on,0,0,1,,,,,,,,,,,,,,,0,,,72,36
382080,set_tempo,80,1,0,,,,,,,,,,,,458540,,,,,,,
382080,note_on,423,0,2,,,,,,,,,,,,,,,0,,,44,0
382080,note_on,0,0,2,,,,,,,,,,,,,,,0,,,48,26
382080,control_change,0,0,2,,,,,,,,,,,,,,,0,64,0,,
382120,set_tempo,40,1,0,,,,,,,,,,,,458540,,,,,,,
382149,control_change,69,0,2,,,,,,,,,,,,,,,0,64,127,,
382200,note_on,120,0,1,,,,,,,,,,,,,,,0,,,67,28
382320,note_on,120,0,1,,,,,,,,,,,,,,,0,,,67,0
382320,note_on,0,0,1,,,,,,,,,,,,,,,0,,,63,28
382440,note_on,120,0,1,,,,,,,,,,,,,,,0,,,63,0
382440,note_on,0,0,1,,,,,,,,,,,,,,,0,,,67,28
382560,note_on,0,0,1,,,,,,,,,,,,,,,0,,,72,0
382560,note_on,0,0,1,,,,,,,,,,,,,,,0,,,70,34
382560,note_on,120,0,1,,,,,,,,,,,,,,,0,,,67,0
382560,note_on,0,0,2,,,,,,,,,,,,,,,0,,,51,26
382560,note_on,411,0,2,,,,,,,,,,,,,,,0,,,48,0
382567,control_change,7,0,2,,,,,,,,,,,,,,,0,64,0,,
382600,set_tempo,480,1,0,,,,,,,,,,,,456725,,,,,,,
382602,control_change,35,0,2,,,,,,,,,,,,,,,0,64,127,,
382680,note_on,120,0,1,,,,,,,,,,,,,,,0,,,67,28
382720,set_tempo,120,1,0,,,,,,,,,,,,458540,,,,,,,
382800,note_on,0,0,1,,,,,,,,,,,,,,,0,,,63,28
382800,note_on,120,0,1,,,,,,,,,,,,,,,0,,,67,0
382840,set_tempo,120,1,0,,,,,,,,,,,,460370,,,,,,,
382920,note_on,120,0,1,,,,,,,,,,,,,,,0,,,63,0
382920,note_on,0,0,1,,,,,,,,,,,,,,,0,,,67,28
383040,note_on,0,0,1,,,,,,,,,,,,,,,0,,,70,42
383040,note_on,0,0,2,,,,,,,,,,,,,,,0,,,39,29
383040,control_change,0,0,2,,,,,,,,,,,,,,,0,64,0,,
383040,note_on,0,0,1,,,,,,,,,,,,,,,0,,,70,0
383040,note_on,120,0,1,,,,,,,,,,,,,,,0,,,67,0
383040,note_on,438,0,2,,,,,,,,,,,,,,,0,,,51,0
383088,set_tempo,248,1,0,,,,,,,,,,,,465911,,,,,,,
383109,control_change,69,0,2,,,,,,,,,,,,,,,0,64,127,,
383128,set_tempo,40,1,0,,,,,,,,,,,,464037,,,,,,,
383160,note_on,120,0,1,,,,,,,,,,,,,,,0,,,67,32
383208,set_tempo,80,1,0,,,,,,,,,,,,462214,,,,,,,
383248,set_tempo,40,1,0,,,,,,,,,,,,460370,,,,,,,
383280,note_on,0,0,1,,,,,,,,,,,,,,,0,,,63,32
383280,note_on,120,0,1,,,,,,,,,,,,,,,0,,,67,0
383328,set_tempo,80,1,0,,,,,,,,,,,,458540,,,,,,,
383368,set_tempo,40,1,0,,,,,,,,,,,,456725,,,,,,,
383400,note_on,0,0,1,,,,,,,,,,,,,,,0,,,67,32
383400,note_on,120,0,1,,,,,,,,,,,,,,,0,,,63,0
383520,note_on,411,0,2,,,,,,,,,,,,,,,0,,,39,0
383520,note_on,0,0,1,,,,,,,,,,,,,,,0,,,70,39
383520,note_on,0,0,1,,,,,,,,,,,,,,,0,,,70,0
383520,note_on,0,0,2,,,,,,,,,,,,,,,0,,,43,30
383520,note_on,120,0,1,,,,,,,,,,,,,,,0,,,67,0
383534,control_change,14,0,2,,,,,,,,,,,,,,,0,64,0,,
383560,set_tempo,192,1,0,,,,,,,,,,,,456725,,,,,,,
383576,control_change,42,0,2,,,,,,,,,,,,,,,0,64,127,,
383640,note_on,120,0,1,,,,,,,,,,,,,,,0,,,67,33
383680,set_tempo,120,1,0,,,,,,,,,,,,458540,,,,,,,
383760,note_on,120,0,1,,,,,,,,,,,,,,,0,,,67,0
383760,note_on,0,0,1,,,,,,,,,,,,,,,0,,,62,33
383800,set_tempo,120,1,0,,,,,,,,,,,,460370,,,,,,,
383880,note_on,120,0,1,,,,,,,,,,,,,,,0,,,62,0
383880,note_on,0,0,1,,,,,,,,,,,,,,,0,,,67,33
383920,set_tempo,120,1,0,,,,,,,,,,,,462214,,,,,,,
384000,set_tempo,80,1,0,,,,,,,,,,,,458540,,,,,,,
384000,note_on,424,0,2,,,,,,,,,,,,,,,0,,,43,0
384000,note_on,120,0,1,,,,,,,,,,,,,,,0,,,67,0
384000,note_on,0,0,2,,,,,,,,,,,,,,,0,,,46,31
384000,note_on,0,0,1,,,,,,,,,,,,,,,0,,,70,44
384000,note_on,0,0,1,,,,,,,,,,,,,,,0,,,70,0
384000,control_change,0,0,2,,,,,,,,,,,,,,,0,64,0,,
384040,set_tempo,40,1,0,,,,,,,,,,,,458540,,,,,,,
384069,control_change,69,0,2,,,,,,,,,,,,,,,0,64,127,,
384120,note_on,120,0,1,,,,,,,,,,,,,,,0,,,65,34
384240,note_on,0,0,1,,,,,,,,,,,,,,,0,,,62,34
384240,note_on,120,0,1,,,,,,,,,,,,,,,0,,,65,0
384360,note_on,120,0,1,,,,,,,,,,,,,,,0,,,62,0
384360,note_on,0,0,1,,,,,,,,,,,,,,,0,,,65,34
384480,note_on,0,0,1,,,,,,,,,,,,,,,0,,,70,0
384480,note_on,120,0,1,,,,,,,,,,,,,,,0,,,65,0
384480,note_on,0,0,1,,,,,,,,,,,,,,,0,,,69,43
384480,note_on,0,0,2,,,,,,,,,,,,,,,0,,,50,32
384480,note_on,411,0,2,,,,,,,,,,,,,,,0,,,46,0
384520,set_tempo,480,1,0,,,,,,,,,,,,456725,,,,,,,
384543,control_change,63,0,2,,,,,,,,,,,,,,,0,64,0,,
384589,control_change,46,0,2,,,,,,,,,,,,,,,0,64,127,,
384600,note_on,120,0,1,,,,,,,,,,,,,,,0,,,65,35
384640,set_tempo,120,1,0,,,,,,,,,,,,458540,,,,,,,
384720,note_on,120,0,1,,,,,,,,,,,,,,,0,,,65,0
384720,note_on,0,0,1,,,,,,,,,,,,,,,0,,,62,35
384760,set_tempo,120,1,0,,,,,,,,,,,,460370,,,,,,,
384840,note_on,0,0,1,,,,,,,,,,,,,,,0,,,65,35
384840,note_on,120,0,1,,,,,,,,,,,,,,,0,,,62,0
384880,set_tempo,120,1,0,,,,,,,,,,,,462214,,,,,,,
384960,note_on,0,0,2,,,,,,,,,,,,,,,0,,,41,29
384960,set_tempo,80,1,0,,,,,,,,,,,,471587,,,,,,,
384960,note_on,371,0,2,,,,,,,,,,,,,,,0,,,50,0
384960,control_change,0,0,2,,,,,,,,,,,,,,,0,64,0,,
384960,note_on,120,0,1,,,,,,,,,,,,,,,0,,,65,0
384960,note_on,0,0,1,,,,,,,,,,,,,,,0,,,69,0
384960,note_on,0,0,1,,,,,,,,,,,,,,,0,,,69,46
385008,set_tempo,48,1,0,,,,,,,,,,,,465911,,,,,,,
385029,control_change,69,0,2,,,,,,,,,,,,,,,0,64,127,,
385048,set_tempo,40,1,0,,,,,,,,,,,,464037,,,,,,,
385080,note_on,120,0,1,,,,,,,,,,,,,,,0,,,65,34
385128,set_tempo,80,1,0,,,,,,,,,,,,462214,,,,,,,
385168,set_tempo,40,1,0,,,,,,,,,,,,460370,,,,,,,
385200,note_on,120,0,1,,,,,,,,,,,,,,,0,,,65,0
385200,note_on,0,0,1,,,,,,,,,,,,,,,0,,,60,36
385248,set_tempo,80,1,0,,,,,,,,,,,,458540,,,,,,,
385288,set_tempo,40,1,0,,,,,,,,,,,,456725,,,,,,,
385320,note_on,120,0,1,,,,,,,,,,,,,,,0,,,60,0
385320,note_on,0,0,1,,,,,,,,,,,,,,,0,,,65,38
385440,note_on,120,0,1,,,,,,,,,,,,,,,0,,,65,0
385440,note_on,0,0,1,,,,,,,,,,,,,,,0,,,69,0
385440,note_on,0,0,1,,,,,,,,,,,,,,,0,,,77,50
385440,note_on,0,0,2,,,,,,,,,,,,,,,0,,,39,32
385440,note_on,411,0,2,,,,,,,,,,,,,,,0,,,41,0
385480,set_tempo,192,1,0,,,,,,,,,,,,456725,,,,,,,
385482,control_change,42,0,2,,,,,,,,,,,,,,,0,64,0,,
385518,control_change,36,0,2,,,,,,,,,,,,,,,0,64,127,,
385560,note_on,120,0,1,,,,,,,,,,,,,,,0,,,72,38
385600,set_tempo,120,1,0,,,,,,,,,,,,458540,,,,,,,
385680,note_on,120,0,1,,,,,,,,,,,,,,,0,,,72,0
385680,note_on,0,0,1,,,,,,,,,,,,,,,0,,,69,38
385720,set_tempo,120,1,0,,,,,,,,,,,,460370,,,,,,,
385800,note_on,0,0,1,,,,,,,,,,,,,,,0,,,72,38
385800,note_on,120,0,1,,,,,,,,,,,,,,,0,,,69,0
385840,set_tempo,120,1,0,,,,,,,,,,,,462214,,,,,,,
385920,note_on,120,0,1,,,,,,,,,,,,,,,0,,,72,0
385920,set_tempo,80,1,0,,,,,,,,,,,,458540,,,,,,,
385920,note_on,0,0,1,,,,,,,,,,,,,,,0,,,77,0
385920,note_on,0,0,1,,,,,,,,,,,,,,,0,,,77,51
385920,note_on,0,0,2,,,,,,,,,,,,,,,0,,,38,36
385920,control_change,0,0,2,,,,,,,,,,,,,,,0,64,0,,
385920,note_on,402,0,2,,,,,,,,,,,,,,,0,,,39,0
385960,set_tempo,40,1,0,,,,,,,,,,,,464037,,,,,,,
385989,control_change,69,0,2,,,,,,,,,,,,,,,0,64,127,,
386040,note_on,120,0,1,,,,,,,,,,,,,,,0,,,74,38
386160,note_on,120,0,1,,,,,,,,,,,,,,,0,,,74,0
386160,note_on,0,0,1,,,,,,,,,,,,,,,0,,,70,37
386160,set_tempo,200,1,0,,,,,,,,,,,,465911,,,,,,,
386280,note_on,120,0,1,,,,,,,,,,,,,,,0,,,70,0
386280,note_on,0,0,1,,,,,,,,,,,,,,,0,,,74,34
386320,set_tempo,160,1,0,,,,,,,,,,,,467800,,,,,,,
386386,control_change,397,0,2,,,,,,,,,,,,,,,0,64,0,,
386400,note_on,0,0,2,,,,,,,,,,,,,,,0,,,36,32
386400,note_on,14,0,2,,,,,,,,,,,,,,,0,,,38,0
386400,set_tempo,80,1,0,,,,,,,,,,,,467800,,,,,,,
386400,note_on,120,0,1,,,,,,,,,,,,,,,0,,,74,0
386400,note_on,0,0,1,,,,,,,,,,,,,,,0,,,77,0
386400,note_on,0,0,1,,,,,,,,,,,,,,,0,,,77,43
386428,control_change,28,0,2,,,,,,,,,,,,,,,0,64,127,,
386440,set_tempo,40,1,0,,,,,,,,,,,,471587,,,,,,,
386480,set_tempo,40,1,0,,,,,,,,,,,,475473,,,,,,,
386520,note_on,120,0,1,,,,,,,,,,,,,,,0,,,75,35
386520,set_tempo,40,1,0,,,,,,,,,,,,481386,,,,,,,
386560,set_tempo,40,1,0,,,,,,,,,,,,485398,,,,,,,
386600,set_tempo,40,1,0,,,,,,,,,,,,489516,,,,,,,
386640,note_on,120,0,1,,,,,,,,,,,,,,,0,,,75,0
386640,set_tempo,40,1,0,,,,,,,,,,,,495786,,,,,,,
386640,note_on,0,0,1,,,,,,,,,,,,,,,0,,,69,35
386680,set_tempo,40,1,0,,,,,,,,,,,,500042,,,,,,,
386720,set_tempo,40,1,0,,,,,,,,,,,,504414,,,,,,,
386760,note_on,120,0,1,,,,,,,,,,,,,,,0,,,69,0
386760,note_on,0,0,1,,,,,,,,,,,,,,,0,,,75,35
386760,set_tempo,40,1,0,,,,,,,,,,,,511073,,,,,,,
386800,set_tempo,40,1,0,,,,,,,,,,,,515597,,,,,,,
386840,set_tempo,40,1,0,,,,,,,,,,,,522557,,,,,,,
386880,set_tempo,40,1,0,,,,,,,,,,,,515597,,,,,,,
386880,note_on,0,0,1,,,,,,,,,,,,,,,0,,,77,52
386880,note_on,0,0,1,,,,,,,,,,,,,,,0,,,77,0
386880,note_on,120,0,1,,,,,,,,,,,,,,,0,,,75,0
386880,note_on,452,0,2,,,,,,,,,,,,,,,0,,,36,0
386915,control_change,35,0,2,,,,,,,,,,,,,,,0,64,0,,
386920,set_tempo,40,1,0,,,,,,,,,,,,511073,,,,,,,
386936,control_change,21,0,2,,,,,,,,,,,,,,,0,64,127,,
386960,set_tempo,40,1,0,,,,,,,,,,,,506586,,,,,,,
387000,set_tempo,40,1,0,,,,,,,,,,,,502218,,,,,,,
387000,note_on,120,0,1,,,,,,,,,,,,,,,0,,,74,38
387040,set_tempo,40,1,0,,,,,,,,,,,,495786,,,,,,,
387080,set_tempo,40,1,0,,,,,,,,,,,,491562,,,,,,,
387120,set_tempo,40,1,0,,,,,,,,,,,,487448,,,,,,,
387120,note_on,120,0,1,,,,,,,,,,,,,,,0,,,74,0
387120,note_on,184,0,2,,,,,,,,,,,,,,,0,,,34,33
387120,note_on,0,0,1,,,,,,,,,,,,,,,0,,,70,38
387160,set_tempo,40,1,0,,,,,,,,,,,,483364,,,,,,,
387200,set_tempo,40,1,0,,,,,,,,,,,,477403,,,,,,,
387240,set_tempo,40,1,0,,,,,,,,,,,,475473,,,,,,,
387240,note_on,120,0,1,,,,,,,,,,,,,,,0,,,70,0
387240,note_on,0,0,1,,,,,,,,,,,,,,,0,,,74,38
387280,set_tempo,40,1,0,,,,,,,,,,,,473522,,,,,,,
387320,set_tempo,40,1,0,,,,,,,,,,,,471587,,,,,,,
387360,note_on,0,0,1,,,,,,,,,,,,,,,0,,,77,0
387360,note_on,120,0,1,,,,,,,,,,,,,,,0,,,74,0
387360,note_on,0,0,1,,,,,,,,,,,,,,,0,,,82,53
387360,note_on,240,0,2,,,,,,,,,,,,,,,0,,,34,0
387360,set_tempo,40,1,0,,,,,,,,,,,,469667,,,,,,,
387400,set_tempo,40,1,0,,,,,,,,,,,,467800,,,,,,,
387440,set_tempo,40,1,0,,,,,,,,,,,,458540,,,,,,,
387480,note_on,120,0,1,,,,,,,,,,,,,,,0,,,74,43
387480,set_tempo,40,1,0,,,,,,,,,,,,460370,,,,,,,
387520,set_tempo,40,1,0,,,,,,,,,,,,462214,,,,,,,
387560,set_tempo,40,1,0,,,,,,,,,,,,464037,,,,,,,
387600,note_on,0,0,1,,,,,,,,,,,,,,,0,,,70,44
387600,note_on,120,0,1,,,,,,,,,,,,,,,0,,,74,0
387600,note_on,240,0,2,,,,,,,,,,,,,,,0,,,46,33
387720,note_on,0,0,1,,,,,,,,,,,,,,,0,,,74,44
387720,note_on,120,0,1,,,,,,,,,,,,,,,0,,,70,0
387840,note_on,0,0,1,,,,,,,,,,,,,,,0,,,82,0
387840,note_on,0,0,1,,,,,,,,,,,,,,,0,,,77,52
387840,control_change,0,0,2,,,,,,,,,,,,,,,0,64,0,,
387840,note_on,240,0,2,,,,,,,,,,,,,,,0,,,46,0
387840,note_on,120,0,1,,,,,,,,,,,,,,,0,,,74,0
387840,set_tempo,280,1,0,,,,,,,,,,,,467800,,,,,,,
387840,note_on,0,0,1,,,,,,,,,,,,,,,0,,,81,52
387886,control_change,46,0,2,,,,,,,,,,,,,,,0,64,127,,
387920,set_tempo,80,1,0,,,,,,,,,,,,465911,,,,,,,
387960,note_on,0,0,1,,,,,,,,,,,,,,,0,,,74,38
387960,note_on,120,0,1,,,,,,,,,,,,,,,0,,,77,0
388000,set_tempo,80,1,0,,,,,,,,,,,,464037,,,,,,,
388040,set_tempo,40,1,0,,,,,,,,,,,,462214,,,,,,,
388080,note_on,120,0,1,,,,,,,,,,,,,,,0,,,74,0
388080,note_on,194,0,2,,,,,,,,,,,,,,,0,,,50,33
388080,note_on,0,0,1,,,,,,,,,,,,,,,0,,,69,38
388120,set_tempo,80,1,0,,,,,,,,,,,,460370,,,,,,,
388160,set_tempo,40,1,0,,,,,,,,,,,,458540,,,,,,,
388200,note_on,0,0,1,,,,,,,,,,,,,,,0,,,74,38
388200,note_on,120,0,1,,,,,,,,,,,,,,,0,,,69,0
388240,set_tempo,80,1,0,,,,,,,,,,,,456725,,,,,,,
388280,set_tempo,40,1,0,,,,,,,,,,,,454959,,,,,,,
388320,note_on,120,0,1,,,,,,,,,,,,,,,0,,,74,0
388320,note_on,0,0,1,,,,,,,,,,,,,,,0,,,81,0
388320,note_on,0,0,1,,,,,,,,,,,,,,,0,,,79,51
388320,note_on,0,0,1,,,,,,,,,,,,,,,0,,,75,51
388320,note_on,240,0,2,,,,,,,,,,,,,,,0,,,50,0
388349,control_change,29,0,2,,,,,,,,,,,,,,,0,64,0,,
388360,set_tempo,80,1,0,,,,,,,,,,,,456725,,,,,,,
388400,control_change,51,0,2,,,,,,,,,,,,,,,0,64,127,,
388440,set_tempo,80,1,0,,,,,,,,,,,,458540,,,,,,,
388440,note_on,120,0,1,,,,,,,,,,,,,,,0,,,75,0
388440,note_on,0,0,1,,,,,,,,,,,,,,,0,,,70,34
388520,set_tempo,80,1,0,,,,,,,,,,,,460370,,,,,,,
388560,note_on,120,0,1,,,,,,,,,,,,,,,0,,,70,0
388560,note_on,0,0,1,,,,,,,,,,,,,,,0,,,67,34
388560,note_on,160,0,2,,,,,,,,,,,,,,,0,,,51,33
388600,set_tempo,80,1,0,,,,,,,,,,,,462214,,,,,,,
388680,set_tempo,80,1,0,,,,,,,,,,,,464037,,,,,,,
388680,note_on,120,0,1,,,,,,,,,,,,,,,0,,,67,0
388680,note_on,0,0,1,,,,,,,,,,,,,,,0,,,70,34
388720,set_tempo,40,1,0,,,,,,,,,,,,460370,,,,,,,
388800,control_change,0,0,2,,,,,,,,,,,,,,,0,64,0,,
388800,note_on,240,0,2,,,,,,,,,,,,,,,0,,,51,0
388800,set_tempo,80,1,0,,,,,,,,,,,,462214,,,,,,,
388800,note_on,0,0,1,,,,,,,,,,,,,,,0,,,79,50
388800,note_on,0,0,1,,,,,,,,,,,,,,,0,,,79,0
388800,note_on,120,0,1,,,,,,,,,,,,,,,0,,,70,0
388800,note_on,0,0,1,,,,,,,,,,,,,,,0,,,74,50
388864,control_change,64,0,2,,,,,,,,,,,,,,,0,64,127,,
388920,note_on,120,0,1,,,,,,,,,,,,,,,0,,,74,0
388920,note_on,0,0,1,,,,,,,,,,,,,,,0,,,70,36
388920,set_tempo,120,1,0,,,,,,,,,,,,460370,,,,,,,
389040,note_on,176,0,2,,,,,,,,,,,,,,,0,,,55,33
389040,set_tempo,120,1,0,,,,,,,,,,,,458540,,,,,,,
389040,note_on,120,0,1,,,,,,,,,,,,,,,0,,,70,0
389040,note_on,0,0,1,,,,,,,,,,,,,,,0,,,67,36
389120,set_tempo,80,1,0,,,,,,,,,,,,456725,,,,,,,
389160,note_on,120,0,1,,,,,,,,,,,,,,,0,,,67,0
389160,note_on,0,0,1,,,,,,,,,,,,,,,0,,,70,36
389240,set_tempo,120,1,0,,,,,,,,,,,,454959,,,,,,,
389280,control_change,0,0,2,,,,,,,,,,,,,,,0,64,0,,
389280,note_on,120,0,1,,,,,,,,,,,,,,,0,,,70,0
389280,note_on,240,0,2,,,,,,,,,,,,,,,0,,,55,0
389280,note_on,0,0,1,,,,,,,,,,,,,,,0,,,74,49
389280,note_on,0,0,1,,,,,,,,,,,,,,,0,,,77,49
389280,note_on,0,0,1,,,,,,,,,,,,,,,0,,,79,0
389320,set_tempo,80,1,0,,,,,,,,,,,,453172,,,,,,,
389329,control_change,49,0,2,,,,,,,,,,,,,,,0,64,127,,
389400,note_on,0,0,1,,,,,,,,,,,,,,,0,,,70,35
389400,note_on,120,0,1,,,,,,,,,,,,,,,0,,,74,0
389440,set_tempo,120,1,0,,,,,,,,,,,,454959,,,,,,,
389520,set_tempo,80,1,0,,,,,,,,,,,,456725,,,,,,,
389520,note_on,0,0,1,,,,,,,,,,,,,,,0,,,65,35
389520,note_on,120,0,1,,,,,,,,,,,,,,,0,,,70,0
389520,note_on,191,0,2,,,,,,,,,,,,,,,0,,,58,33
389640,note_on,0,0,1,,,,,,,,,,,,,,,0,,,70,35
389640,set_tempo,120,1,0,,,,,,,,,,,,458540,,,,,,,
389640,note_on,120,0,1,,,,,,,,,,,,,,,0,,,65,0
389720,set_tempo,80,1,0,,,,,,,,,,,,460370,,,,,,,
389760,control_change,0,0,2,,,,,,,,,,,,,,,0,64,0,,
389760,set_tempo,40,1,0,,,,,,,,,,,,454959,,,,,,,
389760,note_on,0,0,1,,,,,,,,,,,,,,,0,,,77,50
389760,note_on,0,0,1,,,,,,,,,,,,,,,0,,,74,50
389760,note_on,0,0,1,,,,,,,,,,,,,,,0,,,77,0
389760,note_on,120,0,1,,,,,,,,,,,,,,,0,,,70,0
389760,note_on,240,0,2,,,,,,,,,,,,,,,0,,,58,0
389829,control_change,69,0,2,,,,,,,,,,,,,,,0,64,127,,
389880,note_on,0,0,1,,,,,,,,,,,,,,,0,,,69,36
389880,note_on,120,0,1,,,,,,,,,,,,,,,0,,,74,0
389920,set_tempo,160,1,0,,,,,,,,,,,,453172,,,,,,,
390000,note_on,0,0,1,,,,,,,,,,,,,,,0,,,65,36
390000,note_on,120,0,1,,,,,,,,,,,,,,,0,,,69,0
390000,note_on,171,0,2,,,,,,,,,,,,,,,0,,,62,33
390040,set_tempo,120,1,0,,,,,,,,,,,,451399,,,,,,,
390120,note_on,0,0,1,,,,,,,,,,,,,,,0,,,69,36
390120,note_on,120,0,1,,,,,,,,,,,,,,,0,,,65,0
390160,set_tempo,120,1,0,,,,,,,,,,,,449640,,,,,,,
390240,note_on,120,0,1,,,,,,,,,,,,,,,0,,,69,0
390240,note_on,0,0,1,,,,,,,,,,,,,,,0,,,75,49
390240,note_on,240,0,2,,,,,,,,,,,,,,,0,,,62,0
390240,note_on,0,0,1,,,,,,,,,,,,,,,0,,,77,0
390240,note_on,0,0,1,,,,,,,,,,,,,,,0,,,72,49
390269,control_change,29,0,2,,,,,,,,,,,,,,,0,64,0,,
390280,set_tempo,120,1,0,,,,,,,,,,,,447928,,,,,,,
390320,control_change,51,0,2,,,,,,,,,,,,,,,0,64,127,,
390360,note_on,120,0,1,,,,,,,,,,,,,,,0,,,72,0
390360,note_on,0,0,1,,,,,,,,,,,,,,,0,,,69,35
390400,set_tempo,120,1,0,,,,,,,,,,,,449640,,,,,,,
390480,note_on,0,0,1,,,,,,,,,,,,,,,0,,,63,35
390480,note_on,120,0,1,,,,,,,,,,,,,,,0,,,69,0
390480,note_on,160,0,2,,,,,,,,,,,,,,,0,,,41,33
390520,set_tempo,120,1,0,,,,,,,,,,,,451399,,,,,,,
390600,note_on,120,0,1,,,,,,,,,,,,,,,0,,,63,0
390600,note_on,0,0,1,,,,,,,,,,,,,,,0,,,69,35
390640,set_tempo,120,1,0,,,,,,,,,,,,453172,,,,,,,
390680,set_tempo,40,1,0,,,,,,,,,,,,451399,,,,,,,
390720,note_on,240,0,2,,,,,,,,,,,,,,,0,,,41,0
390720,control_change,0,0,2,,,,,,,,,,,,,,,0,64,0,,
390720,note_on,120,0,1,,,,,,,,,,,,,,,0,,,69,0
390720,note_on,0,0,1,,,,,,,,,,,,,,,0,,,75,0
390720,note_on,0,0,1,,,,,,,,,,,,,,,0,,,70,50
390720,note_on,0,0,1,,,,,,,,,,,,,,,0,,,75,50
390776,control_change,56,0,2,,,,,,,,,,,,,,,0,64,127,,
390840,set_tempo,160,1,0,,,,,,,,,,,,453172,,,,,,,
390840,note_on,120,0,1,,,,,,,,,,,,,,,0,,,70,0
390840,note_on,0,0,1,,,,,,,,,,,,,,,0,,,67,36
390960,note_on,0,0,1,,,,,,,,,,,,,,,0,,,63,36
390960,note_on,120,0,1,,,,,,,,,,,,,,,0,,,67,0
390960,note_on,184,0,2,,,,,,,,,,,,,,,0,,,43,33
391000,set_tempo,160,1,0,,,,,,,,,,,,454959,,,,,,,
391080,note_on,0,0,1,,,,,,,,,,,,,,,0,,,67,36
391080,note_on,120,0,1,,,,,,,,,,,,,,,0,,,63,0
391160,set_tempo,160,1,0,,,,,,,,,,,,456725,,,,,,,
391172,control_change,212,0,2,,,,,,,,,,,,,,,0,64,0,,
391200,note_on,120,0,1,,,,,,,,,,,,,,,0,,,67,0
391200,note_on,0,0,1,,,,,,,,,,,,,,,0,,,75,0
391200,note_on,0,0,1,,,,,,,,,,,,,,,0,,,70,49
391200,note_on,0,0,1,,,,,,,,,,,,,,,0,,,74,49
391200,note_on,28,0,2,,,,,,,,,,,,,,,0,,,43,0
391221,control_change,21,0,2,,,,,,,,,,,,,,,0,64,127,,
391320,note_on,0,0,1,,,,,,,,,,,,,,,0,,,67,36
391320,note_on,120,0,1,,,,,,,,,,,,,,,0,,,70,0
391320,set_tempo,160,1,0,,,,,,,,,,,,458540,,,,,,,
391440,note_on,0,0,1,,,,,,,,,,,,,,,0,,,62,36
391440,note_on,120,0,1,,,,,,,,,,,,,,,0,,,67,0
391440,note_on,219,0,2,,,,,,,,,,,,,,,0,,,46,33
391480,set_tempo,160,1,0,,,,,,,,,,,,460370,,,,,,,
391560,note_on,0,0,1,,,,,,,,,,,,,,,0,,,67,36
391560,note_on,120,0,1,,,,,,,,,,,,,,,0,,,62,0
391640,set_tempo,160,1,0,,,,,,,,,,,,462214,,,,,,,
391680,note_on,0,0,1,,,,,,,,,,,,,,,0,,,69,48
391680,note_on,0,0,1,,,,,,,,,,,,,,,0,,,74,0
391680,note_on,120,0,1,,,,,,,,,,,,,,,0,,,67,0
391680,note_on,0,0,1,,,,,,,,,,,,,,,0,,,74,48
391680,set_tempo,40,1,0,,,,,,,,,,,,464037,,,,,,,
391680,control_change,0,0,2,,,,,,,,,,,,,,,0,64,0,,
391680,note_on,240,0,2,,,,,,,,,,,,,,,0,,,46,0
391720,control_change,40,0,2,,,,,,,,,,,,,,,0,64,127,,
391800,note_on,120,0,1,,,,,,,,,,,,,,,0,,,69,0
391800,note_on,0,0,1,,,,,,,,,,,,,,,0,,,66,36
391920,set_tempo,240,1,0,,,,,,,,,,,,462214,,,,,,,
391920,note_on,200,0,2,,,,,,,,,,,,,,,0,,,50,33
391920,note_on,120,0,1,,,,,,,,,,,,,,,0,,,66,0
391920,note_on,0,0,1,,,,,,,,,,,,,,,0,,,62,36
392040,note_on,120,0,1,,,,,,,,,,,,,,,0,,,62,0
392040,note_on,0,0,1,,,,,,,,,,,,,,,0,,,66,36
392160,note_on,240,0,2,,,,,,,,,,,,,,,0,,,50,0
392160,note_on,120,0,1,,,,,,,,,,,,,,,0,,,66,0
392160,note_on,0,0,1,,,,,,,,,,,,,,,0,,,74,0
392160,note_on,0,0,1,,,,,,,,,,,,,,,0,,,72,47
392160,set_tempo,240,1,0,,,,,,,,,,,,458540,,,,,,,
392217,control_change,57,0,2,,,,,,,,,,,,,,,0,64,0,,
392269,control_change,52,0,2,,,,,,,,,,,,,,,0,64,127,,
392280,note_on,120,0,1,,,,,,,,,,,,,,,0,,,69,37
392320,set_tempo,160,1,0,,,,,,,,,,,,460370,,,,,,,
392400,note_on,120,0,1,,,,,,,,,,,,,,,0,,,69,0
392400,note_on,0,0,1,,,,,,,,,,,,,,,0,,,62,37
392400,note_on,131,0,2,,,,,,,,,,,,,,,0,,,54,33
392480,set_tempo,160,1,0,,,,,,,,,,,,462214,,,,,,,
392520,note_on,120,0,1,,,,,,,,,,,,,,,0,,,62,0
392520,note_on,0,0,1,,,,,,,,,,,,,,,0,,,69,37
392640,set_tempo,160,1,0,,,,,,,,,,,,458540,,,,,,,
392640,control_change,0,0,2,,,,,,,,,,,,,,,0,64,0,,
392640,note_on,240,0,2,,,,,,,,,,,,,,,0,,,54,0
392640,note_on,120,0,1,,,,,,,,,,,,,,,0,,,69,0
392640,note_on,0,0,1,,,,,,,,,,,,,,,0,,,72,0
392640,note_on,0,0,1,,,,,,,,,,,,,,,0,,,72,48
392703,control_change,63,0,2,,,,,,,,,,,,,,,0,64,127,,
392760,note_on,120,0,1,,,,,,,,,,,,,,,0,,,67,38
392880,note_on,177,0,2,,,,,,,,,,,,,,,0,,,55,33
392880,note_on,0,0,1,,,,,,,,,,,,,,,0,,,62,42
392880,note_on,120,0,1,,,,,,,,,,,,,,,0,,,67,0
392880,set_tempo,240,1,0,,,,,,,,,,,,456725,,,,,,,
393000,note_on,0,0,1,,,,,,,,,,,,,,,0,,,67,45
393000,note_on,120,0,1,,,,,,,,,,,,,,,0,,,62,0
393000,note_on,120,0,2,,,,,,,,,,,,,,,0,,,55,0
393120,note_on,120,0,2,,,,,,,,,,,,,,,0,,,57,33
393120,set_tempo,240,1,0,,,,,,,,,,,,454959,,,,,,,
393120,note_on,0,0,1,,,,,,,,,,,,,,,0,,,70,52
393120,note_on,120,0,1,,,,,,,,,,,,,,,0,,,67,0
393120,note_on,0,0,1,,,,,,,,,,,,,,,0,,,72,0
393200,control_change,80,0,2,,,,,,,,,,,,,,,0,64,0,,
393240,note_on,120,0,1,,,,,,,,,,,,,,,0,,,67,43
393240,note_on,40,0,2,,,,,,,,,,,,,,,0,,,57,0
393246,control_change,6,0,2,,,,,,,,,,,,,,,0,64,127,,
393360,set_tempo,240,1,0,,,,,,,,,,,,453172,,,,,,,
393360,note_on,0,0,1,,,,,,,,,,,,,,,0,,,62,44
393360,note_on,120,0,1,,,,,,,,,,,,,,,0,,,67,0
393360,note_on,114,0,2,,,,,,,,,,,,,,,0,,,58,33
393480,note_on,0,0,1,,,,,,,,,,,,,,,0,,,67,44
393480,note_on,120,0,2,,,,,,,,,,,,,,,0,,,58,0
393480,note_on,120,0,1,,,,,,,,,,,,,,,0,,,62,0
393560,set_tempo,200,1,0,,,,,,,,,,,,451399,,,,,,,
393600,note_on,0,0,2,,,,,,,,,,,,,,,0,,,51,33
393600,set_tempo,40,1,0,,,,,,,,,,,,453172,,,,,,,
393600,note_on,120,0,1,,,,,,,,,,,,,,,0,,,67,0
393600,note_on,0,0,1,,,,,,,,,,,,,,,0,,,70,0
393600,note_on,0,0,1,,,,,,,,,,,,,,,0,,,72,49
393600,control_change,120,0,2,,,,,,,,,,,,,,,0,64,0,,
393640,set_tempo,40,1,0,,,,,,,,,,,,451399,,,,,,,
393669,control_change,69,0,2,,,,,,,,,,,,,,,0,64,127,,
393720,note_on,120,0,1,,,,,,,,,,,,,,,0,,,70,35
393760,set_tempo,120,1,0,,,,,,,,,,,,453172,,,,,,,
393840,note_on,120,0,1,,,,,,,,,,,,,,,0,,,70,0
393840,note_on,171,0,2,,,,,,,,,,,,,,,0,,,51,0
393840,note_on,0,0,1,,,,,,,,,,,,,,,0,,,67,35
393880,set_tempo,120,1,0,,,,,,,,,,,,454959,,,,,,,
393960,note_on,0,0,1,,,,,,,,,,,,,,,0,,,70,35
393960,note_on,120,0,1,,,,,,,,,,,,,,,0,,,67,0
394000,set_tempo,120,1,0,,,,,,,,,,,,456725,,,,,,,
394080,set_tempo,80,1,0,,,,,,,,,,,,458540,,,,,,,
394080,control_change,240,0,2,,,,,,,,,,,,,,,0,64,0,,
394080,note_on,120,0,1,,,,,,,,,,,,,,,0,,,70,0
394080,note_on,0,0,1,,,,,,,,,,,,,,,0,,,72,0
394080,note_on,0,0,1,,,,,,,,,,,,,,,0,,,74,45
394080,note_on,0,0,2,,,,,,,,,,,,,,,0,,,53,33
394115,control_change,35,0,2,,,,,,,,,,,,,,,0,64,127,,
394200,set_tempo,120,1,0,,,,,,,,,,,,460370,,,,,,,
394200,note_on,120,0,1,,,,,,,,,,,,,,,0,,,69,33
394320,set_tempo,120,1,0,,,,,,,,,,,,462214,,,,,,,
394320,note_on,120,0,1,,,,,,,,,,,,,,,0,,,69,0
394320,note_on,205,0,2,,,,,,,,,,,,,,,0,,,53,0
394320,note_on,0,0,1,,,,,,,,,,,,,,,0,,,65,33
394440,set_tempo,120,1,0,,,,,,,,,,,,464037,,,,,,,
394440,note_on,0,0,1,,,,,,,,,,,,,,,0,,,69,33
394440,note_on,120,0,1,,,,,,,,,,,,,,,0,,,65,0
394520,set_tempo,80,1,0,,,,,,,,,,,,465911,,,,,,,
394560,control_change,240,0,2,,,,,,,,,,,,,,,0,64,0,,
394560,set_tempo,40,1,0,,,,,,,,,,,,506586,,,,,,,
394560,note_on,0,0,1,,,,,,,,,,,,,,,0,,,70,47
394560,note_on,0,0,1,,,,,,,,,,,,,,,0,,,74,0
394560,note_on,120,0,1,,,,,,,,,,,,,,,0,,,69,0
394611,control_change,51,0,2,,,,,,,,,,,,,,,0,64,127,,
394680,set_tempo,120,1,0,,,,,,,,,,,,471587,,,,,,,
394680,note_on,120,0,1,,,,,,,,,,,,,,,0,,,65,35
394720,set_tempo,40,1,0,,,,,,,,,,,,471587,,,,,,,
394800,note_on,120,0,1,,,,,,,,,,,,,,,0,,,65,0
394800,note_on,0,0,1,,,,,,,,,,,,,,,0,,,62,35
394800,note_on,189,0,2,,,,,,,,,,,,,,,0,,,58,33
394920,note_on,120,0,1,,,,,,,,,,,,,,,0,,,62,0
394920,note_on,0,0,1,,,,,,,,,,,,,,,0,,,65,35
395000,set_tempo,280,1,0,,,,,,,,,,,,460370,,,,,,,
395040,note_on,240,0,2,,,,,,,,,,,,,,,0,,,58,0
395040,note_on,120,0,1,,,,,,,,,,,,,,,0,,,65,0
395040,note_on,0,0,1,,,,,,,,,,,,,,,0,,,70,0
395040,note_on,0,0,1,,,,,,,,,,,,,,,0,,,72,49
395069,control_change,29,0,2,,,,,,,,,,,,,,,0,64,0,,
395126,control_change,57,0,2,,,,,,,,,,,,,,,0,64,127,,
395160,note_on,120,0,1,,,,,,,,,,,,,,,0,,,67,35
395280,note_on,154,0,2,,,,,,,,,,,,,,,0,,,51,33
395280,note_on,120,0,1,,,,,,,,,,,,,,,0,,,67,0
395280,note_on,0,0,1,,,,,,,,,,,,,,,0,,,63,35
395360,set_tempo,360,1,0,,,,,,,,,,,,458540,,,,,,,
395400,note_on,120,0,1,,,,,,,,,,,,,,,0,,,63,0
395400,note_on,0,0,1,,,,,,,,,,,,,,,0,,,67,35
395520,control_change,0,0,2,,,,,,,,,,,,,,,0,64,0,,
395520,note_on,240,0,2,,,,,,,,,,,,,,,0,,,51,0
395520,set_tempo,160,1,0,,,,,,,,,,,,458015,,,,,,,
395520,note_on,0,0,1,,,,,,,,,,,,,,,0,,,74,49
395520,note_on,0,0,1,,,,,,,,,,,,,,,0,,,72,0
395520,note_on,120,0,1,,,,,,,,,,,,,,,0,,,67,0
395576,control_change,56,0,2,,,,,,,,,,,,,,,0,64,127,,
395640,note_on,120,0,1,,,,,,,,,,,,,,,0,,,68,35
395680,set_tempo,160,1,0,,,,,,,,,,,,456274,,,,,,,
395760,note_on,184,0,2,,,,,,,,,,,,,,,0,,,46,33
395760,note_on,0,0,1,,,,,,,,,,,,,,,0,,,65,36
395760,note_on,120,0,1,,,,,,,,,,,,,,,0,,,68,0
395840,set_tempo,160,1,0,,,,,,,,,,,,454545,,,,,,,
395880,note_on,0,0,1,,,,,,,,,,,,,,,0,,,68,36
395880,note_on,120,0,1,,,,,,,,,,,,,,,0,,,65,0
395989,control_change,229,0,2,,,,,,,,,,,,,,,0,64,0,,
396000,note_on,0,0,1,,,,,,,,,,,,,,,0,,,74,52
396000,note_on,11,0,2,,,,,,,,,,,,,,,0,,,46,0
396000,note_on,0,0,1,,,,,,,,,,,,,,,0,,,74,0
396000,note_on,120,0,1,,,,,,,,,,,,,,,0,,,68,0
396000,set_tempo,160,1,0,,,,,,,,,,,,452830,,,,,,,
396029,control_change,29,0,2,,,,,,,,,,,,,,,0,64,127,,
396120,note_on,120,0,1,,,,,,,,,,,,,,,0,,,68,38
396160,set_tempo,160,1,0,,,,,,,,,,,,451128,,,,,,,
396240,note_on,120,0,1,,,,,,,,,,,,,,,0,,,68,0
396240,note_on,0,0,1,,,,,,,,,,,,,,,0,,,65,38
396240,note_on,211,0,2,,,,,,,,,,,,,,,0,,,46,36
396320,set_tempo,160,1,0,,,,,,,,,,,,449438,,,,,,,
396360,note_on,120,0,1,,,,,,,,,,,,,,,0,,,65,0
396360,note_on,0,0,1,,,,,,,,,,,,,,,0,,,68,39
396440,set_tempo,120,1,0,,,,,,,,,,,,447761,,,,,,,
396480,note_on,240,0,2,,,,,,,,,,,,,,,0,,,46,0
396480,control_change,0,0,2,,,,,,,,,,,,,,,0,64,0,,
396480,note_on,120,0,1,,,,,,,,,,,,,,,0,,,68,0
396480,set_tempo,40,1,0,,,,,,,,,,,,456725,,,,,,,
396480,note_on,0,0,1,,,,,,,,,,,,,,,0,,,74,53
396480,note_on,0,0,1,,,,,,,,,,,,,,,0,,,74,0
396520,control_change,40,0,2,,,,,,,,,,,,,,,0,64,127,,
396600,note_on,120,0,1,,,,,,,,,,,,,,,0,,,68,37
396720,note_on,200,0,2,,,,,,,,,,,,,,,0,,,39,36
396720,note_on,120,0,1,,,,,,,,,,,,,,,0,,,68,0
396720,note_on,0,0,1,,,,,,,,,,,,,,,0,,,65,36
396840,note_on,120,0,1,,,,,,,,,,,,,,,0,,,65,0
396840,note_on,0,0,1,,,,,,,,,,,,,,,0,,,68,36
396960,note_on,120,0,1,,,,,,,,,,,,,,,0,,,68,0
396960,note_on,0,0,1,,,,,,,,,,,,,,,0,,,74,0
396960,note_on,0,0,1,,,,,,,,,,,,,,,0,,,75,49
396960,note_on,240,0,2,,,,,,,,,,,,,,,0,,,39,0
396960,set_tempo,480,1,0,,,,,,,,,,,,447761,,,,,,,
396960,control_change,0,0,2,,,,,,,,,,,,,,,0,64,0,,
396989,control_change,29,0,2,,,,,,,,,,,,,,,0,64,127,,
397080,note_on,120,0,1,,,,,,,,,,,,,,,0,,,70,37
397200,note_on,120,0,1,,,,,,,,,,,,,,,0,,,70,0
397200,note_on,0,0,1,,,,,,,,,,,,,,,0,,,67,36
397200,note_on,211,0,2,,,,,,,,,,,,,,,0,,,39,34
397320,note_on,0,0,1,,,,,,,,,,,,,,,0,,,70,35
397320,note_on,120,0,1,,,,,,,,,,,,,,,0,,,67,0
397440,note_on,120,0,1,,,,,,,,,,,,,,,0,,,70,0
397440,note_on,0,0,1,,,,,,,,,,,,,,,0,,,75,0
397440,control_change,0,0,2,,,,,,,,,,,,,,,0,64,0,,
397440,note_on,0,0,1,,,,,,,,,,,,,,,0,,,74,49
397440,set_tempo,480,1,0,,,,,,,,,,,,452830,,,,,,,
397440,note_on,240,0,2,,,,,,,,,,,,,,,0,,,39,0
397509,control_change,69,0,2,,,,,,,,,,,,,,,0,64,127,,
397560,note_on,120,0,1,,,,,,,,,,,,,,,0,,,70,35
397680,note_on,171,0,2,,,,,,,,,,,,,,,0,,,41,33
397680,note_on,120,0,1,,,,,,,,,,,,,,,0,,,70,0
397680,note_on,0,0,1,,,,,,,,,,,,,,,0,,,65,35
397800,note_on,0,0,1,,,,,,,,,,,,,,,0,,,70,35
397800,note_on,120,0,1,,,,,,,,,,,,,,,0,,,65,0
397920,note_on,240,0,2,,,,,,,,,,,,,,,0,,,41,0
397920,note_on,0,0,1,,,,,,,,,,,,,,,0,,,72,49
397920,note_on,0,0,1,,,,,,,,,,,,,,,0,,,74,0
397920,note_on,120,0,1,,,,,,,,,,,,,,,0,,,70,0
397960,set_tempo,520,1,0,,,,,,,,,,,,451399,,,,,,,
397983,control_change,63,0,2,,,,,,,,,,,,,,,0,64,0,,
398029,control_change,46,0,2,,,,,,,,,,,,,,,0,64,127,,
398040,set_tempo,80,1,0,,,,,,,,,,,,453172,,,,,,,
398040,note_on,120,0,1,,,,,,,,,,,,,,,0,,,69,35
398120,set_tempo,80,1,0,,,,,,,,,,,,454959,,,,,,,
398160,note_on,131,0,2,,,,,,,,,,,,,,,0,,,41,33
398160,set_tempo,40,1,0,,,,,,,,,,,,456725,,,,,,,
398160,note_on,120,0,1,,,,,,,,,,,,,,,0,,,69,0
398160,note_on,0,0,1,,,,,,,,,,,,,,,0,,,65,35
398240,set_tempo,80,1,0,,,,,,,,,,,,458540,,,,,,,
398280,note_on,0,0,1,,,,,,,,,,,,,,,0,,,69,35
398280,note_on,120,0,1,,,,,,,,,,,,,,,0,,,65,0
398320,set_tempo,80,1,0,,,,,,,,,,,,460370,,,,,,,
398360,set_tempo,40,1,0,,,,,,,,,,,,462214,,,,,,,
398400,note_on,120,0,1,,,,,,,,,,,,,,,0,,,69,0
398400,note_on,0,0,1,,,,,,,,,,,,,,,0,,,72,0
398400,note_on,240,0,2,,,,,,,,,,,,,,,0,,,41,0
398400,set_tempo,40,1,0,,,,,,,,,,,,506586,,,,,,,
398400,control_change,0,0,2,,,,,,,,,,,,,,,0,64,0,,
398400,note_on,0,0,1,,,,,,,,,,,,,,,0,,,74,47
398427,control_change,27,0,2,,,,,,,,,,,,,,,0,64,0,,
398451,control_change,24,0,2,,,,,,,,,,,,,,,0,64,127,,
398520,note_on,120,0,1,,,,,,,,,,,,,,,0,,,70,35
398520,set_tempo,120,1,0,,,,,,,,,,,,462214,,,,,,,
398640,note_on,189,0,2,,,,,,,,,,,,,,,0,,,46,33
398640,note_on,120,0,1,,,,,,,,,,,,,,,0,,,70,0
398640,note_on,0,0,1,,,,,,,,,,,,,,,0,,,68,35
398760,note_on,0,0,1,,,,,,,,,,,,,,,0,,,70,35
398760,note_on,120,0,1,,,,,,,,,,,,,,,0,,,68,0
398880,note_on,0,0,1,,,,,,,,,,,,,,,0,,,74,0
398880,note_on,0,0,1,,,,,,,,,,,,,,,0,,,75,49
398880,note_on,240,0,2,,,,,,,,,,,,,,,0,,,46,0
398880,note_on,120,0,1,,,,,,,,,,,,,,,0,,,70,0
398880,set_tempo,360,1,0,,,,,,,,,,,,460370,,,,,,,
398909,control_change,29,0,2,,,,,,,,,,,,,,,0,64,0,,
398937,control_change,28,0,2,,,,,,,,,,,,,,,0,64,127,,
399000,note_on,120,0,1,,,,,,,,,,,,,,,0,,,72,35
399120,note_on,120,0,1,,,,,,,,,,,,,,,0,,,72,0
399120,note_on,0,0,1,,,,,,,,,,,,,,,0,,,68,35
399120,note_on,183,0,2,,,,,,,,,,,,,,,0,,,58,33
399240,set_tempo,360,1,0,,,,,,,,,,,,458540,,,,,,,
399240,note_on,0,0,1,,,,,,,,,,,,,,,0,,,72,35
399240,note_on,120,0,1,,,,,,,,,,,,,,,0,,,68,0
399360,control_change,0,0,2,,,,,,,,,,,,,,,0,64,0,,
399360,note_on,240,0,2,,,,,,,,,,,,,,,0,,,58,0
399360,note_on,0,0,1,,,,,,,,,,,,,,,0,,,75,0
399360,note_on,120,0,1,,,,,,,,,,,,,,,0,,,72,0
399360,note_on,0,0,1,,,,,,,,,,,,,,,0,,,77,49
399416,control_change,56,0,2,,,,,,,,,,,,,,,0,64,127,,
399480,note_on,120,0,1,,,,,,,,,,,,,,,0,,,74,35
399600,set_tempo,360,1,0,,,,,,,,,,,,456725,,,,,,,
399600,note_on,184,0,2,,,,,,,,,,,,,,,0,,,58,33
399600,note_on,0,0,1,,,,,,,,,,,,,,,0,,,68,36
399600,note_on,120,0,1,,,,,,,,,,,,,,,0,,,74,0
399720,note_on,0,0,1,,,,,,,,,,,,,,,0,,,74,36
399720,note_on,120,0,1,,,,,,,,,,,,,,,0,,,68,0
399840,note_on,0,0,1,,,,,,,,,,,,,,,0,,,77,52
399840,set_tempo,240,1,0,,,,,,,,,,,,462214,,,,,,,
399840,note_on,120,0,1,,,,,,,,,,,,,,,0,,,74,0
399840,note_on,240,0,2,,,,,,,,,,,,,,,0,,,58,0
399840,note_on,0,0,1,,,,,,,,,,,,,,,0,,,77,0
399874,control_change,34,0,2,,,,,,,,,,,,,,,0,64,0,,
399914,control_change,40,0,2,,,,,,,,,,,,,,,0,64,127,,
399960,note_on,120,0,1,,,,,,,,,,,,,,,0,,,74,38
400080,note_on,166,0,2,,,,,,,,,,,,,,,0,,,58,36
400080,note_on,0,0,1,,,,,,,,,,,,,,,0,,,68,38
400080,note_on,120,0,1,,,,,,,,,,,,,,,0,,,74,0
400200,note_on,0,0,1,,,,,,,,,,,,,,,0,,,74,39
400200,note_on,120,0,1,,,,,,,,,,,,,,,0,,,68,0
400280,set_tempo,440,1,0,,,,,,,,,,,,453172,,,,,,,
400320,note_on,240,0,2,,,,,,,,,,,,,,,0,,,58,0
400320,control_change,0,0,2,,,,,,,,,,,,,,,0,64,0,,
400320,note_on,0,0,1,,,,,,,,,,,,,,,0,,,77,0
400320,note_on,120,0,1,,,,,,,,,,,,,,,0,,,74,0
400320,note_on,0,0,1,,,,,,,,,,,,,,,0,,,77,56
400320,set_tempo,40,1,0,,,,,,,,,,,,456725,,,,,,,
400360,control_change,40,0,2,,,,,,,,,,,,,,,0,64,127,,
400440,note_on,120,0,1,,,,,,,,,,,,,,,0,,,74,39
400560,note_on,200,0,2,,,,,,,,,,,,,,,0,,,51,36
400560,note_on,120,0,1,,,,,,,,,,,,,,,0,,,74,0
400560,note_on,0,0,1,,,,,,,,,,,,,,,0,,,68,39
400680,note_on,120,0,1,,,,,,,,,,,,,,,0,,,68,0
400680,note_on,0,0,1,,,,,,,,,,,,,,,0,,,74,38
400800,note_on,120,0,1,,,,,,,,,,,,,,,0,,,74,0
400800,note_on,0,0,1,,,,,,,,,,,,,,,0,,,77,0
400800,note_on,0,0,1,,,,,,,,,,,,,,,0,,,79,52
400800,note_on,240,0,2,,,,,,,,,,,,,,,0,,,51,0
400840,set_tempo,520,1,0,,,,,,,,,,,,453172,,,,,,,
400857,control_change,57,0,2,,,,,,,,,,,,,,,0,64,0,,
400897,control_change,40,0,2,,,,,,,,,,,,,,,0,64,127,,
400920,note_on,120,0,1,,,,,,,,,,,,,,,0,,,75,37
401040,note_on,120,0,1,,,,,,,,,,,,,,,0,,,75,0
401040,note_on,143,0,2,,,,,,,,,,,,,,,0,,,51,32
401040,note_on,0,0,1,,,,,,,,,,,,,,,0,,,67,36
401160,note_on,120,0,1,,,,,,,,,,,,,,,0,,,67,0
401160,note_on,0,0,1,,,,,,,,,,,,,,,0,,,75,35
401280,note_on,120,0,1,,,,,,,,,,,,,,,0,,,75,0
401280,note_on,0,0,1,,,,,,,,,,,,,,,0,,,79,0
401280,note_on,0,0,1,,,,,,,,,,,,,,,0,,,77,49
401280,note_on,240,0,2,,,,,,,,,,,,,,,0,,,51,0
401280,control_change,0,0,2,,,,,,,,,,,,,,,0,64,0,,
401349,control_change,69,0,2,,,,,,,,,,,,,,,0,64,127,,
401400,note_on,120,0,1,,,,,,,,,,,,,,,0,,,74,34
401520,note_on,120,0,1,,,,,,,,,,,,,,,0,,,74,0
401520,note_on,171,0,2,,,,,,,,,,,,,,,0,,,53,33
401520,note_on,0,0,1,,,,,,,,,,,,,,,0,,,70,34
401640,note_on,0,0,1,,,,,,,,,,,,,,,0,,,74,34
401640,note_on,120,0,1,,,,,,,,,,,,,,,0,,,70,0
401760,note_on,0,0,1,,,,,,,,,,,,,,,0,,,77,0
401760,note_on,0,0,1,,,,,,,,,,,,,,,0,,,77,47
401760,note_on,120,0,1,,,,,,,,,,,,,,,0,,,74,0
401760,note_on,240,0,2,,,,,,,,,,,,,,,0,,,53,0
401788,control_change,28,0,2,,,,,,,,,,,,,,,0,64,0,,
401800,set_tempo,960,1,0,,,,,,,,,,,,451399,,,,,,,
401831,control_change,43,0,2,,,,,,,,,,,,,,,0,64,127,,
401880,set_tempo,80,1,0,,,,,,,,,,,,453172,,,,,,,
401880,note_on,120,0,1,,,,,,,,,,,,,,,0,,,72,34
401960,set_tempo,80,1,0,,,,,,,,,,,,454959,,,,,,,
402000,set_tempo,40,1,0,,,,,,,,,,,,473522,,,,,,,
402000,note_on,120,0,1,,,,,,,,,,,,,,,0,,,72,0
402000,note_on,0,0,1,,,,,,,,,,,,,,,0,,,69,33
402000,note_on,169,0,2,,,,,,,,,,,,,,,0,,,53,33
402120,note_on,0,0,1,,,,,,,,,,,,,,,0,,,72,32
402120,note_on,120,0,1,,,,,,,,,,,,,,,0,,,69,0
402240,note_on,240,0,2,,,,,,,,,,,,,,,0,,,53,0
402240,set_tempo,240,1,0,,,,,,,,,,,,506586,,,,,,,
402240,note_on,0,0,1,,,,,,,,,,,,,,,0,,,77,0
402240,note_on,120,0,1,,,,,,,,,,,,,,,0,,,72,0
402240,note_on,0,0,1,,,,,,,,,,,,,,,0,,,77,42
402240,control_change,0,0,2,,,,,,,,,,,,,,,0,64,0,,
402240,note_on,0,0,2,,,,,,,,,,,,,,,0,,,58,29
402267,control_change,27,0,2,,,,,,,,,,,,,,,0,64,0,,
402291,control_change,24,0,2,,,,,,,,,,,,,,,0,64,127,,
402360,note_on,120,0,1,,,,,,,,,,,,,,,0,,,74,31
402360,set_tempo,120,1,0,,,,,,,,,,,,471587,,,,,,,
402400,set_tempo,40,1,0,,,,,,,,,,,,471587,,,,,,,
402480,note_on,120,0,1,,,,,,,,,,,,,,,0,,,74,0
402480,note_on,0,0,1,,,,,,,,,,,,,,,0,,,70,31
402600,note_on,120,0,1,,,,,,,,,,,,,,,0,,,70,0
402600,note_on,0,0,1,,,,,,,,,,,,,,,0,,,74,31
402600,control_change,309,0,2,,,,,,,,,,,,,,,0,64,0,,
402656,control_change,56,0,2,,,,,,,,,,,,,,,0,64,127,,
402680,set_tempo,280,1,0,,,,,,,,,,,,469667,,,,,,,
402720,note_on,0,0,1,,,,,,,,,,,,,,,0,,,82,39
402720,note_on,0,0,1,,,,,,,,,,,,,,,0,,,77,0
402720,note_on,120,0,1,,,,,,,,,,,,,,,0,,,74,0
402720,note_on,64,0,2,,,,,,,,,,,,,,,0,,,62,29
402720,set_tempo,40,1,0,,,,,,,,,,,,460370,,,,,,,
402840,note_on,120,0,1,,,,,,,,,,,,,,,0,,,77,31
402960,note_on,120,0,1,,,,,,,,,,,,,,,0,,,77,0
402960,note_on,0,0,1,,,,,,,,,,,,,,,0,,,70,31
403080,note_on,120,0,1,,,,,,,,,,,,,,,0,,,70,0
403080,note_on,0,0,1,,,,,,,,,,,,,,,0,,,77,31
403200,note_on,480,0,2,,,,,,,,,,,,,,,0,,,62,0
403200,control_change,0,0,2,,,,,,,,,,,,,,,0,64,0,,
403200,note_on,0,0,2,,,,,,,,,,,,,,,0,,,65,29
403200,note_on,0,0,1,,,,,,,,,,,,,,,0,,,81,44
403200,note_on,0,0,1,,,,,,,,,,,,,,,0,,,82,0
403200,note_on,120,0,1,,,,,,,,,,,,,,,0,,,77,0
403200,set_tempo,480,1,0,,,,,,,,,,,,458540,,,,,,,
403256,control_change,56,0,2,,,,,,,,,,,,,,,0,64,127,,
403320,note_on,120,0,1,,,,,,,,,,,,,,,0,,,77,31
403440,note_on,0,0,1,,,,,,,,,,,,,,,0,,,72,32
403440,note_on,120,0,1,,,,,,,,,,,,,,,0,,,77,0
403560,note_on,120,0,1,,,,,,,,,,,,,,,0,,,72,0
403560,note_on,0,0,1,,,,,,,,,,,,,,,0,,,77,32
403640,set_tempo,440,1,0,,,,,,,,,,,,456725,,,,,,,
403680,note_on,0,0,2,,,,,,,,,,,,,,,0,,,63,32
403680,control_change,0,0,2,,,,,,,,,,,,,,,0,64,0,,
403680,note_on,424,0,2,,,,,,,,,,,,,,,0,,,65,0
403680,note_on,120,0,1,,,,,,,,,,,,,,,0,,,77,0
403680,note_on,0,0,1,,,,,,,,,,,,,,,0,,,81,0
403680,note_on,0,0,1,,,,,,,,,,,,,,,0,,,84,40
403715,control_change,35,0,2,,,,,,,,,,,,,,,0,64,127,,
403800,note_on,120,0,1,,,,,,,,,,,,,,,0,,,77,34
403920,note_on,0,0,1,,,,,,,,,,,,,,,0,,,72,33
403920,note_on,120,0,1,,,,,,,,,,,,,,,0,,,77,0
404040,note_on,0,0,1,,,,,,,,,,,,,,,0,,,77,33
404040,note_on,120,0,1,,,,,,,,,,,,,,,0,,,72,0
404080,set_tempo,440,1,0,,,,,,,,,,,,454959,,,,,,,
404160,note_on,120,0,1,,,,,,,,,,,,,,,0,,,77,0
404160,note_on,0,0,1,,,,,,,,,,,,,,,0,,,77,44
404160,set_tempo,80,1,0,,,,,,,,,,,,464037,,,,,,,
404160,control_change,0,0,2,,,,,,,,,,,,,,,0,64,0,,
404160,note_on,0,0,2,,,,,,,,,,,,,,,0,,,62,32
404160,note_on,445,0,2,,,,,,,,,,,,,,,0,,,63,0
404160,note_on,0,0,1,,,,,,,,,,,,,,,0,,,84,0
404200,control_change,40,0,2,,,,,,,,,,,,,,,0,64,127,,
404280,note_on,120,0,1,,,,,,,,,,,,,,,0,,,74,32
404400,note_on,0,0,1,,,,,,,,,,,,,,,0,,,70,32
404400,note_on,120,0,1,,,,,,,,,,,,,,,0,,,74,0
404520,note_on,120,0,1,,,,,,,,,,,,,,,0,,,70,0
404520,note_on,0,0,1,,,,,,,,,,,,,,,0,,,74,32
404640,note_on,0,0,1,,,,,,,,,,,,,,,0,,,77,0
404640,note_on,0,0,1,,,,,,,,,,,,,,,0,,,79,39
404640,note_on,440,0,2,,,,,,,,,,,,,,,0,,,62,0
404640,note_on,120,0,1,,,,,,,,,,,,,,,0,,,74,0
404640,note_on,0,0,2,,,,,,,,,,,,,,,0,,,58,0
404640,note_on,0,0,2,,,,,,,,,,,,,,,0,,,58,30
404640,note_on,0,0,2,,,,,,,,,,,,,,,0,,,51,30
404647,control_change,7,0,2,,,,,,,,,,,,,,,0,64,0,,
404680,set_tempo,520,1,0,,,,,,,,,,,,453172,,,,,,,
404696,control_change,49,0,2,,,,,,,,,,,,,,,0,64,127,,
404760,set_tempo,80,1,0,,,,,,,,,,,,453172,,,,,,,
404760,note_on,120,0,1,,,,,,,,,,,,,,,0,,,75,31
404880,note_on,0,0,1,,,,,,,,,,,,,,,0,,,70,31
404880,note_on,120,0,1,,,,,,,,,,,,,,,0,,,75,0
404920,set_tempo,160,1,0,,,,,,,,,,,,454959,,,,,,,
405000,note_on,120,0,1,,,,,,,,,,,,,,,0,,,70,0
405000,note_on,0,0,1,,,,,,,,,,,,,,,0,,,75,31
405040,set_tempo,120,1,0,,,,,,,,,,,,456725,,,,,,,
405120,note_on,120,0,1,,,,,,,,,,,,,,,0,,,75,0
405120,note_on,0,0,1,,,,,,,,,,,,,,,0,,,79,0
405120,note_on,0,0,1,,,,,,,,,,,,,,,0,,,77,40
405120,note_on,0,0,2,,,,,,,,,,,,,,,0,,,51,0
405120,note_on,0,0,2,,,,,,,,,,,,,,,0,,,57,29
405120,note_on,0,0,2,,,,,,,,,,,,,,,0,,,53,29
405120,control_change,0,0,2,,,,,,,,,,,,,,,0,64,0,,
405120,note_on,424,0,2,,,,,,,,,,,,,,,0,,,58,0
405160,set_tempo,120,1,0,,,,,,,,,,,,458540,,,,,,,
405189,control_change,69,0,2,,,,,,,,,,,,,,,0,64,127,,
405240,note_on,120,0,1,,,,,,,,,,,,,,,0,,,75,31
405360,note_on,120,0,1,,,,,,,,,,,,,,,0,,,75,0
405360,note_on,0,0,1,,,,,,,,,,,,,,,0,,,72,31
405480,note_on,0,0,1,,,,,,,,,,,,,,,0,,,75,31
405480,note_on,120,0,1,,,,,,,,,,,,,,,0,,,72,0
405593,control_change,404,0,2,,,,,,,,,,,,,,,0,64,0,,
405600,note_on,0,0,2,,,,,,,,,,,,,,,0,,,60,29
405600,note_on,0,0,1,,,,,,,,,,,,,,,0,,,77,38
405600,note_on,0,0,1,,,,,,,,,,,,,,,0,,,77,0
405600,note_on,120,0,1,,,,,,,,,,,,,,,0,,,75,0
405600,note_on,7,0,2,,,,,,,,,,,,,,,0,,,57,0
405640,set_tempo,480,1,0,,,,,,,,,,,,456725,,,,,,,
405649,control_change,49,0,2,,,,,,,,,,,,,,,0,64,127,,
405720,note_on,120,0,1,,,,,,,,,,,,,,,0,,,75,31
405760,set_tempo,120,1,0,,,,,,,,,,,,458540,,,,,,,
405840,note_on,0,0,1,,,,,,,,,,,,,,,0,,,69,31
405840,note_on,120,0,1,,,,,,,,,,,,,,,0,,,75,0
405880,set_tempo,120,1,0,,,,,,,,,,,,460370,,,,,,,
405919,set_tempo,39,1,0,,,,,,,,,,,,476190,,,,,,,
405960,note_on,120,0,1,,,,,,,,,,,,,,,0,,,69,0
405960,note_on,0,0,1,,,,,,,,,,,,,,,0,,,75,31
406000,set_tempo,81,1,0,,,,,,,,,,,,478088,,,,,,,
406080,note_on,0,0,2,,,,,,,,,,,,,,,0,,,58,29
406080,set_tempo,80,1,0,,,,,,,,,,,,524017,,,,,,,
406080,note_on,0,0,1,,,,,,,,,,,,,,,0,,,77,42
406080,note_on,0,0,1,,,,,,,,,,,,,,,0,,,77,0
406080,note_on,120,0,1,,,,,,,,,,,,,,,0,,,75,0
406080,control_change,0,0,2,,,,,,,,,,,,,,,0,64,0,,
406080,note_on,0,0,2,,,,,,,,,,,,,,,0,,,53,0
406080,note_on,431,0,2,,,,,,,,,,,,,,,0,,,60,0
406107,control_change,27,0,2,,,,,,,,,,,,,,,0,64,0,,
406131,control_change,24,0,2,,,,,,,,,,,,,,,0,64,127,,
406200,note_on,120,0,1,,,,,,,,,,,,,,,0,,,74,31
406200,set_tempo,120,1,0,,,,,,,,,,,,472441,,,,,,,
406320,note_on,0,0,1,,,,,,,,,,,,,,,0,,,70,31
406320,note_on,120,0,1,,,,,,,,,,,,,,,0,,,74,0
406440,note_on,120,0,1,,,,,,,,,,,,,,,0,,,70,0
406440,note_on,0,0,1,,,,,,,,,,,,,,,0,,,74,31
406525,control_change,394,0,2,,,,,,,,,,,,,,,0,64,0,,
406560,set_tempo,360,1,0,,,,,,,,,,,,463320,,,,,,,
406560,note_on,0,0,1,,,,,,,,,,,,,,,0,,,82,39
406560,note_on,35,0,2,,,,,,,,,,,,,,,0,,,62,29
406560,note_on,120,0,1,,,,,,,,,,,,,,,0,,,74,0
406560,note_on,0,0,1,,,,,,,,,,,,,,,0,,,77,0
406567,control_change,7,0,2,,,,,,,,,,,,,,,0,64,127,,
406680,note_on,120,0,1,,,,,,,,,,,,,,,0,,,77,31
406800,note_on,0,0,1,,,,,,,,,,,,,,,0,,,70,31
406800,note_on,120,0,1,,,,,,,,,,,,,,,0,,,77,0
406880,set_tempo,320,1,0,,,,,,,,,,,,463320,,,,,,,
406920,note_on,120,0,1,,,,,,,,,,,,,,,0,,,70,0
406920,note_on,0,0,1,,,,,,,,,,,,,,,0,,,77,31
407040,note_on,0,0,1,,,,,,,,,,,,,,,0,,,82,0
407040,control_change,0,0,2,,,,,,,,,,,,,,,0,64,0,,
407040,note_on,0,0,1,,,,,,,,,,,,,,,0,,,81,44
407040,note_on,120,0,1,,,,,,,,,,,,,,,0,,,77,0
407040,set_tempo,160,1,0,,,,,,,,,,,,461538,,,,,,,
407040,note_on,473,0,2,,,,,,,,,,,,,,,0,,,62,0
407040,note_on,0,0,2,,,,,,,,,,,,,,,0,,,65,29
407096,control_change,56,0,2,,,,,,,,,,,,,,,0,64,127,,
407160,note_on,120,0,1,,,,,,,,,,,,,,,0,,,77,31
407200,set_tempo,160,1,0,,,,,,,,,,,,459770,,,,,,,
407280,note_on,0,0,1,,,,,,,,,,,,,,,0,,,72,32
407280,note_on,120,0,1,,,,,,,,,,,,,,,0,,,77,0
407280,note_on,184,0,2,,,,,,,,,,,,,,,0,,,65,0
407280,note_on,0,0,2,,,,,,,,,,,,,,,0,,,66,26
407360,set_tempo,160,1,0,,,,,,,,,,,,458015,,,,,,,
407400,note_on,120,0,1,,,,,,,,,,,,,,,0,,,72,0
407400,note_on,0,0,1,,,,,,,,,,,,,,,0,,,77,32
407520,note_on,240,0,2,,,,,,,,,,,,,,,0,,,66,0
407520,set_tempo,160,1,0,,,,,,,,,,,,456274,,,,,,,
407520,note_on,120,0,1,,,,,,,,,,,,,,,0,,,77,0
407520,note_on,0,0,1,,,,,,,,,,,,,,,0,,,81,0
407520,note_on,0,0,1,,,,,,,,,,,,,,,0,,,84,40
407520,note_on,0,0,2,,,,,,,,,,,,,,,0,,,65,29
407584,control_change,64,0,2,,,,,,,,,,,,,,,0,64,0,,
407626,control_change,42,0,2,,,,,,,,,,,,,,,0,64,127,,
407640,note_on,120,0,1,,,,,,,,,,,,,,,0,,,77,34
407760,note_on,134,0,2,,,,,,,,,,,,,,,0,,,65,0
407760,note_on,0,0,2,,,,,,,,,,,,,,,0,,,63,27
407760,note_on,0,0,1,,,,,,,,,,,,,,,0,,,72,33
407760,note_on,120,0,1,,,,,,,,,,,,,,,0,,,77,0
407880,note_on,0,0,1,,,,,,,,,,,,,,,0,,,77,33
407880,note_on,120,0,1,,,,,,,,,,,,,,,0,,,72,0
408000,set_tempo,480,1,0,,,,,,,,,,,,465116,,,,,,,
408000,note_on,240,0,2,,,,,,,,,,,,,,,0,,,63,0
408000,note_on,0,0,2,,,,,,,,,,,,,,,0,,,62,32
408000,control_change,0,0,2,,,,,,,,,,,,,,,0,64,0,,
408000,note_on,0,0,1,,,,,,,,,,,,,,,0,,,77,44
408000,note_on,0,0,1,,,,,,,,,,,,,,,0,,,84,0
408000,note_on,120,0,1,,,,,,,,,,,,,,,0,,,77,0
408040,control_change,40,0,2,,,,,,,,,,,,,,,0,64,127,,
408120,note_on,120,0,1,,,,,,,,,,,,,,,0,,,74,32
408240,note_on,120,0,1,,,,,,,,,,,,,,,0,,,74,0
408240,note_on,0,0,1,,,,,,,,,,,,,,,0,,,70,32
408360,note_on,120,0,1,,,,,,,,,,,,,,,0,,,70,0
408360,note_on,0,0,1,,,,,,,,,,,,,,,0,,,74,32
408466,control_change,426,0,2,,,,,,,,,,,,,,,0,64,0,,
408480,set_tempo,480,1,0,,,,,,,,,,,,468750,,,,,,,
408480,note_on,14,0,2,,,,,,,,,,,,,,,0,,,62,0
408480,note_on,0,0,2,,,,,,,,,,,,,,,0,,,58,0
408480,note_on,0,0,2,,,,,,,,,,,,,,,0,,,51,30
408480,note_on,0,0,2,,,,,,,,,,,,,,,0,,,58,30
408480,note_on,120,0,1,,,,,,,,,,,,,,,0,,,74,0
408480,note_on,0,0,1,,,,,,,,,,,,,,,0,,,78,39
408480,note_on,0,0,1,,,,,,,,,,,,,,,0,,,77,0
408494,control_change,14,0,2,,,,,,,,,,,,,,,0,64,127,,
408600,note_on,120,0,1,,,,,,,,,,,,,,,0,,,75,31
408720,note_on,0,0,1,,,,,,,,,,,,,,,0,,,70,31
408720,note_on,120,0,1,,,,,,,,,,,,,,,0,,,75,0
408840,note_on,120,0,1,,,,,,,,,,,,,,,0,,,70,0
408840,note_on,0,0,1,,,,,,,,,,,,,,,0,,,75,31
408960,note_on,0,0,1,,,,,,,,,,,,,,,0,,,77,39
408960,note_on,0,0,1,,,,,,,,,,,,,,,0,,,78,0
408960,note_on,120,0,1,,,,,,,,,,,,,,,0,,,75,0
408960,control_change,0,0,2,,,,,,,,,,,,,,,0,64,0,,
408960,note_on,0,0,2,,,,,,,,,,,,,,,0,,,57,29
408960,note_on,466,0,2,,,,,,,,,,,,,,,0,,,58,0
408960,note_on,0,0,2,,,,,,,,,,,,,,,0,,,51,0
408960,note_on,0,0,2,,,,,,,,,,,,,,,0,,,53,29
409000,set_tempo,520,1,0,,,,,,,,,,,,474308,,,,,,,
409029,control_change,69,0,2,,,,,,,,,,,,,,,0,64,127,,
409080,note_on,120,0,1,,,,,,,,,,,,,,,0,,,75,31
409200,note_on,0,0,1,,,,,,,,,,,,,,,0,,,72,31
409200,note_on,120,0,1,,,,,,,,,,,,,,,0,,,75,0
409320,note_on,0,0,1,,,,,,,,,,,,,,,0,,,75,31
409320,note_on,120,0,1,,,,,,,,,,,,,,,0,,,72,0
409440,note_on,120,0,1,,,,,,,,,,,,,,,0,,,75,0
409440,note_on,0,0,1,,,,,,,,,,,,,,,0,,,77,38
409440,note_on,0,0,2,,,,,,,,,,,,,,,0,,,60,29
409440,note_on,0,0,1,,,,,,,,,,,,,,,0,,,77,0
409440,note_on,411,0,2,,,,,,,,,,,,,,,0,,,57,0
409480,set_tempo,480,1,0,,,,,,,,,,,,472441,,,,,,,
409503,control_change,63,0,2,,,,,,,,,,,,,,,0,64,0,,
409549,control_change,46,0,2,,,,,,,,,,,,,,,0,64,127,,
409560,note_on,120,0,1,,,,,,,,,,,,,,,0,,,75,31
409600,set_tempo,120,1,0,,,,,,,,,,,,474308,,,,,,,
409680,note_on,0,0,1,,,,,,,,,,,,,,,0,,,69,31
409680,note_on,120,0,1,,,,,,,,,,,,,,,0,,,75,0
409720,set_tempo,120,1,0,,,,,,,,,,,,476190,,,,,,,
409800,note_on,120,0,1,,,,,,,,,,,,,,,0,,,69,0
409800,note_on,0,0,1,,,,,,,,,,,,,,,0,,,75,31
409840,set_tempo,120,1,0,,,,,,,,,,,,478088,,,,,,,
409920,note_on,0,0,1,,,,,,,,,,,,,,,0,,,77,0
409920,note_on,371,0,2,,,,,,,,,,,,,,,0,,,60,0
409920,note_on,0,0,2,,,,,,,,,,,,,,,0,,,53,0
409920,control_change,0,0,2,,,,,,,,,,,,,,,0,64,0,,
409920,note_on,120,0,1,,,,,,,,,,,,,,,0,,,75,0
411840,note_on,1920,0,2,,,,,,,,,,,,,,,0,,,46,76
411840,note_on,0,0,2,,,,,,,,,,,,,,,0,,,53,76
411840,note_on,0,0,2,,,,,,,,,,,,,,,0,,,58,92
411840,note_on,0,0,1,,,,,,,,,,,,,,,0,,,77,89
411840,note_on,1920,0,1,,,,,,,,,,,,,,,0,,,73,89
411840,note_on,0,0,1,,,,,,,,,,,,,,,0,,,82,106
411904,control_change,64,0,2,,,,,,,,,,,,,,,0,64,127,,
412680,note_on,0,0,2,,,,,,,,,,,,,,,0,,,58,77
412680,note_on,776,0,2,,,,,,,,,,,,,,,0,,,58,0
412680,note_on,0,0,2,,,,,,,,,,,,,,,0,,,53,0
412680,note_on,0,0,2,,,,,,,,,,,,,,,0,,,46,0
412680,note_on,0,0,1,,,,,,,,,,,,,,,0,,,77,77
412680,note_on,0,0,1,,,,,,,,,,,,,,,0,,,73,77
412680,note_on,0,0,2,,,,,,,,,,,,,,,0,,,46,66
412680,note_on,0,0,1,,,,,,,,,,,,,,,0,,,73,0
412680,note_on,0,0,2,,,,,,,,,,,,,,,0,,,53,66
412680,note_on,0,0,1,,,,,,,,,,,,,,,0,,,82,92
412680,note_on,840,0,1,,,,,,,,,,,,,,,0,,,82,0
412680,note_on,0,0,1,,,,,,,,,,,,,,,0,,,77,0
412800,note_on,0,0,1,,,,,,,,,,,,,,,0,,,85,96
412800,note_on,0,0,1,,,,,,,,,,,,,,,0,,,77,81
412800,set_tempo,2960,1,0,,,,,,,,,,,,459770,,,,,,,
412800,note_on,0,0,2,,,,,,,,,,,,,,,0,,,46,0
412800,note_on,0,0,2,,,,,,,,,,,,,,,0,,,53,0
412800,note_on,0,0,1,,,,,,,,,,,,,,,0,,,77,0
412800,note_on,0,0,1,,,,,,,,,,,,,,,0,,,73,81
412800,note_on,0,0,1,,,,,,,,,,,,,,,0,,,73,0
412800,note_on,0,0,2,,,,,,,,,,,,,,,0,,,58,84
412800,note_on,0,0,2,,,,,,,,,,,,,,,0,,,46,70
412800,note_on,120,0,2,,,,,,,,,,,,,,,0,,,58,0
412800,note_on,120,0,1,,,,,,,,,,,,,,,0,,,82,0
412807,control_change,7,0,2,,,,,,,,,,,,,,,0,64,0,,
412840,set_tempo,40,1,0,,,,,,,,,,,,458015,,,,,,,
412871,control_change,64,0,2,,,,,,,,,,,,,,,0,64,127,,
413000,set_tempo,160,1,0,,,,,,,,,,,,456274,,,,,,,
413160,note_on,289,0,2,,,,,,,,,,,,,,,0,,,58,0
413160,note_on,0,0,2,,,,,,,,,,,,,,,0,,,46,0
413160,note_on,0,0,2,,,,,,,,,,,,,,,0,,,46,67
413160,note_on,0,0,2,,,,,,,,,,,,,,,0,,,58,80
413160,note_on,360,0,1,,,,,,,,,,,,,,,0,,,85,0
413160,note_on,0,0,1,,,,,,,,,,,,,,,0,,,77,0
413160,note_on,0,0,1,,,,,,,,,,,,,,,0,,,73,0
413160,note_on,0,0,1,,,,,,,,,,,,,,,0,,,73,76
413160,note_on,0,0,1,,,,,,,,,,,,,,,0,,,77,76
413160,note_on,0,0,1,,,,,,,,,,,,,,,0,,,85,91
413160,set_tempo,160,1,0,,,,,,,,,,,,454545,,,,,,,
413280,note_on,0,0,2,,,,,,,,,,,,,,,0,,,46,0
413280,note_on,0,0,2,,,,,,,,,,,,,,,0,,,49,70
413280,note_on,0,0,2,,,,,,,,,,,,,,,0,,,61,84
413280,note_on,120,0,2,,,,,,,,,,,,,,,0,,,58,0
413280,note_on,0,0,1,,,,,,,,,,,,,,,0,,,77,0
413280,note_on,0,0,1,,,,,,,,,,,,,,,0,,,82,96
413280,note_on,0,0,1,,,,,,,,,,,,,,,0,,,77,81
413280,set_tempo,120,1,0,,,,,,,,,,,,452830,,,,,,,
413280,note_on,0,0,1,,,,,,,,,,,,,,,0,,,73,0
413280,note_on,0,0,1,,,,,,,,,,,,,,,0,,,73,81
413280,note_on,120,0,1,,,,,,,,,,,,,,,0,,,85,0
413440,set_tempo,160,1,0,,,,,,,,,,,,451128,,,,,,,
413600,set_tempo,160,1,0,,,,,,,,,,,,449438,,,,,,,
413640,note_on,0,0,1,,,,,,,,,,,,,,,0,,,73,0
413640,note_on,0,0,1,,,,,,,,,,,,,,,0,,,73,77
413640,note_on,0,0,1,,,,,,,,,,,,,,,0,,,77,77
413640,note_on,0,0,1,,,,,,,,,,,,,,,0,,,82,92
413640,note_on,360,0,2,,,,,,,,,,,,,,,0,,,61,0
413640,note_on,0,0,2,,,,,,,,,,,,,,,0,,,49,66
413640,note_on,0,0,1,,,,,,,,,,,,,,,0,,,77,0
413640,note_on,0,0,2,,,,,,,,,,,,,,,0,,,61,77
413640,note_on,0,0,2,,,,,,,,,,,,,,,0,,,49,0
413640,note_on,360,0,1,,,,,,,,,,,,,,,0,,,82,0
413720,set_tempo,120,1,0,,,,,,,,,,,,447761,,,,,,,
413760,note_on,120,0,2,,,,,,,,,,,,,,,0,,,61,0
413760,note_on,0,0,2,,,,,,,,,,,,,,,0,,,49,0
413760,note_on,0,0,2,,,,,,,,,,,,,,,0,,,34,70
413760,note_on,0,0,2,,,,,,,,,,,,,,,0,,,46,84
413760,control_change,0,0,2,,,,,,,,,,,,,,,0,64,0,,
413760,note_on,120,0,1,,,,,,,,,,,,,,,0,,,82,0
413760,note_on,0,0,1,,,,,,,,,,,,,,,0,,,77,0
413760,note_on,0,0,1,,,,,,,,,,,,,,,0,,,73,0
413760,note_on,0,0,1,,,,,,,,,,,,,,,0,,,70,81
413760,note_on,0,0,1,,,,,,,,,,,,,,,0,,,73,81
413760,note_on,0,0,1,,,,,,,,,,,,,,,0,,,77,96
413831,control_change,71,0,2,,,,,,,,,,,,,,,0,64,127,,
414120,note_on,289,0,2,,,,,,,,,,,,,,,0,,,46,0
414120,note_on,0,0,2,,,,,,,,,,,,,,,0,,,34,0
414120,note_on,0,0,2,,,,,,,,,,,,,,,0,,,34,66
414120,note_on,0,0,2,,,,,,,,,,,,,,,0,,,46,77
414120,note_on,0,0,1,,,,,,,,,,,,,,,0,,,73,0
414120,note_on,0,0,1,,,,,,,,,,,,,,,0,,,70,0
414120,note_on,0,0,1,,,,,,,,,,,,,,,0,,,77,92
414120,note_on,360,0,1,,,,,,,,,,,,,,,0,,,77,0
414120,note_on,0,0,1,,,,,,,,,,,,,,,0,,,70,77
414120,note_on,0,0,1,,,,,,,,,,,,,,,0,,,73,77
414240,note_on,0,0,1,,,,,,,,,,,,,,,0,,,73,91
414240,note_on,0,0,2,,,,,,,,,,,,,,,0,,,34,0
414240,note_on,0,0,2,,,,,,,,,,,,,,,0,,,37,66
414240,note_on,0,0,2,,,,,,,,,,,,,,,0,,,49,79
414240,note_on,0,0,1,,,,,,,,,,,,,,,0,,,70,77
414240,note_on,0,0,1,,,,,,,,,,,,,,,0,,,65,77
414240,note_on,0,0,1,,,,,,,,,,,,,,,0,,,70,0
414240,note_on,0,0,1,,,,,,,,,,,,,,,0,,,73,0
414240,note_on,120,0,1,,,,,,,,,,,,,,,0,,,77,0
414240,note_on,120,0,2,,,,,,,,,,,,,,,0,,,46,0
414600,note_on,360,0,1,,,,,,,,,,,,,,,0,,,73,0
414600,note_on,0,0,1,,,,,,,,,,,,,,,0,,,70,72
414600,note_on,0,0,1,,,,,,,,,,,,,,,0,,,65,72
414600,note_on,0,0,1,,,,,,,,,,,,,,,0,,,65,0
414600,note_on,0,0,1,,,,,,,,,,,,,,,0,,,70,0
414600,note_on,0,0,1,,,,,,,,,,,,,,,0,,,73,86
414600,note_on,360,0,2,,,,,,,,,,,,,,,0,,,49,0
414600,note_on,0,0,2,,,,,,,,,,,,,,,0,,,37,0
414600,note_on,0,0,2,,,,,,,,,,,,,,,0,,,37,61
414600,note_on,0,0,2,,,,,,,,,,,,,,,0,,,49,73
414720,note_on,0,0,2,,,,,,,,,,,,,,,0,,,41,66
414720,note_on,0,0,2,,,,,,,,,,,,,,,0,,,37,0
414720,note_on,0,0,1,,,,,,,,,,,,,,,0,,,70,91
414720,note_on,0,0,2,,,,,,,,,,,,,,,0,,,53,79
414720,note_on,0,0,1,,,,,,,,,,,,,,,0,,,65,77
414720,note_on,0,0,1,,,,,,,,,,,,,,,0,,,61,77
414720,note_on,0,0,1,,,,,,,,,,,,,,,0,,,65,0
414720,note_on,0,0,1,,,,,,,,,,,,,,,0,,,70,0
414720,note_on,120,0,1,,,,,,,,,,,,,,,0,,,73,0
414720,note_on,120,0,2,,,,,,,,,,,,,,,0,,,49,0
414720,set_tempo,1000,1,0,,,,,,,,,,,,451128,,,,,,,
414734,control_change,14,0,2,,,,,,,,,,,,,,,0,64,0,,
414769,control_change,35,0,2,,,,,,,,,,,,,,,0,64,127,,
415080,note_on,360,0,1,,,,,,,,,,,,,,,0,,,70,0
415080,note_on,0,0,2,,,,,,,,,,,,,,,0,,,41,61
415080,note_on,311,0,2,,,,,,,,,,,,,,,0,,,53,0
415080,note_on,0,0,1,,,,,,,,,,,,,,,0,,,65,0
415080,note_on,0,0,1,,,,,,,,,,,,,,,0,,,61,0
415080,note_on,0,0,1,,,,,,,,,,,,,,,0,,,61,72
415080,note_on,0,0,1,,,,,,,,,,,,,,,0,,,65,72
415080,note_on,0,0,1,,,,,,,,,,,,,,,0,,,70,86
415080,note_on,0,0,2,,,,,,,,,,,,,,,0,,,53,73
415080,note_on,0,0,2,,,,,,,,,,,,,,,0,,,41,0
415200,note_on,0,0,1,,,,,,,,,,,,,,,0,,,61,77
415200,note_on,0,0,2,,,,,,,,,,,,,,,0,,,41,0
415200,note_on,0,0,1,,,,,,,,,,,,,,,0,,,61,0
415200,note_on,0,0,1,,,,,,,,,,,,,,,0,,,65,91
415200,note_on,0,0,1,,,,,,,,,,,,,,,0,,,65,0
415200,note_on,120,0,1,,,,,,,,,,,,,,,0,,,70,0
415200,note_on,0,0,2,,,,,,,,,,,,,,,0,,,58,79
415200,note_on,0,0,2,,,,,,,,,,,,,,,0,,,46,66
415200,note_on,120,0,2,,,,,,,,,,,,,,,0,,,53,0
415560,note_on,0,0,1,,,,,,,,,,,,,,,0,,,70,85
415560,note_on,360,0,1,,,,,,,,,,,,,,,0,,,65,0
415560,note_on,0,0,1,,,,,,,,,,,,,,,0,,,61,71
415560,note_on,360,0,2,,,,,,,,,,,,,,,0,,,58,0
415560,note_on,0,0,2,,,,,,,,,,,,,,,0,,,46,0
415560,note_on,0,0,2,,,,,,,,,,,,,,,0,,,58,71
415560,note_on,0,0,1,,,,,,,,,,,,,,,0,,,61,0
415560,note_on,0,0,1,,,,,,,,,,,,,,,0,,,65,71
415560,note_on,0,0,2,,,,,,,,,,,,,,,0,,,46,59
415680,note_on,0,0,1,,,,,,,,,,,,,,,0,,,61,0
415680,set_tempo,960,1,0,,,,,,,,,,,,446097,,,,,,,
415680,note_on,0,0,1,,,,,,,,,,,,,,,0,,,65,0
415680,note_on,120,0,1,,,,,,,,,,,,,,,0,,,70,0
415680,note_on,0,0,1,,,,,,,,,,,,,,,0,,,66,81
415680,note_on,0,0,1,,,,,,,,,,,,,,,0,,,63,81
415680,control_change,0,0,2,,,,,,,,,,,,,,,0,64,0,,
415680,note_on,0,0,2,,,,,,,,,,,,,,,0,,,51,84
415680,note_on,0,0,2,,,,,,,,,,,,,,,0,,,39,70
415680,note_on,0,0,2,,,,,,,,,,,,,,,0,,,46,0
415680,note_on,120,0,2,,,,,,,,,,,,,,,0,,,58,0
415680,note_on,0,0,1,,,,,,,,,,,,,,,0,,,71,96
415800,note_on,0,0,1,,,,,,,,,,,,,,,0,,,63,0
415800,note_on,0,0,1,,,,,,,,,,,,,,,0,,,66,0
415800,note_on,120,0,2,,,,,,,,,,,,,,,0,,,51,0
415800,note_on,0,0,2,,,,,,,,,,,,,,,0,,,39,0
415800,note_on,120,0,1,,,,,,,,,,,,,,,0,,,71,0
415920,note_on,120,0,1,,,,,,,,,,,,,,,0,,,83,61
416040,note_on,120,0,1,,,,,,,,,,,,,,,0,,,87,65
416060,note_on,20,0,1,,,,,,,,,,,,,,,0,,,83,0
416160,note_on,100,0,1,,,,,,,,,,,,,,,0,,,90,68
416180,note_on,20,0,1,,,,,,,,,,,,,,,0,,,87,0
416280,note_on,100,0,1,,,,,,,,,,,,,,,0,,,88,68
416300,note_on,20,0,1,,,,,,,,,,,,,,,0,,,90,0
416400,note_on,100,0,1,,,,,,,,,,,,,,,0,,,87,67
416420,note_on,20,0,1,,,,,,,,,,,,,,,0,,,88,0
416520,note_on,100,0,1,,,,,,,,,,,,,,,0,,,85,67
416540,note_on,20,0,1,,,,,,,,,,,,,,,0,,,87,0
416640,note_on,100,0,1,,,,,,,,,,,,,,,0,,,83,68
416660,note_on,20,0,1,,,,,,,,,,,,,,,0,,,85,0
416760,note_on,100,0,1,,,,,,,,,,,,,,,0,,,82,68
416780,note_on,20,0,1,,,,,,,,,,,,,,,0,,,83,0
416880,note_on,100,0,1,,,,,,,,,,,,,,,0,,,80,67
416900,note_on,20,0,1,,,,,,,,,,,,,,,0,,,82,0
417000,note_on,100,0,1,,,,,,,,,,,,,,,0,,,78,67
417020,note_on,20,0,1,,,,,,,,,,,,,,,0,,,80,0
417120,note_on,100,0,1,,,,,,,,,,,,,,,0,,,76,67
417140,note_on,20,0,1,,,,,,,,,,,,,,,0,,,78,0
417240,note_on,100,0,1,,,,,,,,,,,,,,,0,,,75,67
417260,note_on,20,0,1,,,,,,,,,,,,,,,0,,,76,0
417360,note_on,100,0,1,,,,,,,,,,,,,,,0,,,73,67
417380,note_on,20,0,1,,,,,,,,,,,,,,,0,,,75,0
417480,note_on,100,0,1,,,,,,,,,,,,,,,0,,,71,67
417500,note_on,20,0,1,,,,,,,,,,,,,,,0,,,73,0
417600,set_tempo,1920,1,0,,,,,,,,,,,,452830,,,,,,,
417600,note_on,100,0,1,,,,,,,,,,,,,,,0,,,73,67
417620,note_on,20,0,1,,,,,,,,,,,,,,,0,,,71,0
417720,note_on,100,0,1,,,,,,,,,,,,,,,0,,,70,68
417740,note_on,20,0,1,,,,,,,,,,,,,,,0,,,73,0
417840,note_on,100,0,1,,,,,,,,,,,,,,,0,,,71,72
417840,note_on,2040,0,2,,,,,,,,,,,,,,,0,,,59,63
417860,note_on,20,0,1,,,,,,,,,,,,,,,0,,,70,0
417960,note_on,100,0,1,,,,,,,,,,,,,,,0,,,75,75
417960,note_on,120,0,2,,,,,,,,,,,,,,,0,,,63,65
417980,note_on,20,0,2,,,,,,,,,,,,,,,0,,,59,0
417980,note_on,20,0,1,,,,,,,,,,,,,,,0,,,71,0
418080,set_tempo,480,1,0,,,,,,,,,,,,449438,,,,,,,
418080,note_on,100,0,2,,,,,,,,,,,,,,,0,,,66,68
418080,note_on,100,0,1,,,,,,,,,,,,,,,0,,,78,74
418100,note_on,20,0,2,,,,,,,,,,,,,,,0,,,63,0
418100,note_on,20,0,1,,,,,,,,,,,,,,,0,,,75,0
418120,set_tempo,40,1,0,,,,,,,,,,,,444444,,,,,,,
418200,note_on,100,0,2,,,,,,,,,,,,,,,0,,,64,66
418200,note_on,100,0,1,,,,,,,,,,,,,,,0,,,76,73
418220,note_on,20,0,2,,,,,,,,,,,,,,,0,,,66,0
418220,note_on,20,0,1,,,,,,,,,,,,,,,0,,,78,0
418320,note_on,100,0,2,,,,,,,,,,,,,,,0,,,63,64
418320,set_tempo,200,1,0,,,,,,,,,,,,442804,,,,,,,
418320,note_on,100,0,1,,,,,,,,,,,,,,,0,,,75,73
418340,note_on,20,0,2,,,,,,,,,,,,,,,0,,,64,0
418340,note_on,20,0,1,,,,,,,,,,,,,,,0,,,76,0
418440,note_on,100,0,2,,,,,,,,,,,,,,,0,,,61,63
418440,note_on,100,0,1,,,,,,,,,,,,,,,0,,,73,72
418460,note_on,20,0,2,,,,,,,,,,,,,,,0,,,63,0
418460,note_on,20,0,1,,,,,,,,,,,,,,,0,,,75,0
418520,set_tempo,200,1,0,,,,,,,,,,,,441176,,,,,,,
418560,note_on,100,0,2,,,,,,,,,,,,,,,0,,,59,61
418560,note_on,100,0,1,,,,,,,,,,,,,,,0,,,71,71
418580,note_on,20,0,2,,,,,,,,,,,,,,,0,,,61,0
418580,note_on,20,0,1,,,,,,,,,,,,,,,0,,,73,0
418680,note_on,100,0,2,,,,,,,,,,,,,,,0,,,58,61
418680,note_on,100,0,1,,,,,,,,,,,,,,,0,,,70,71
418700,note_on,20,0,2,,,,,,,,,,,,,,,0,,,59,0
418700,note_on,20,0,1,,,,,,,,,,,,,,,0,,,71,0
418720,set_tempo,200,1,0,,,,,,,,,,,,439560,,,,,,,
418800,note_on,100,0,2,,,,,,,,,,,,,,,0,,,56,63
418800,note_on,100,0,1,,,,,,,,,,,,,,,0,,,68,72
418820,note_on,20,0,2,,,,,,,,,,,,,,,0,,,58,0
418820,note_on,20,0,1,,,,,,,,,,,,,,,0,,,70,0
418920,set_tempo,200,1,0,,,,,,,,,,,,437956,,,,,,,
418920,note_on,100,0,2,,,,,,,,,,,,,,,0,,,54,64
418920,note_on,100,0,1,,,,,,,,,,,,,,,0,,,66,73
418940,note_on,20,0,1,,,,,,,,,,,,,,,0,,,68,0
418940,note_on,20,0,2,,,,,,,,,,,,,,,0,,,56,0
419040,note_on,100,0,1,,,,,,,,,,,,,,,0,,,64,74
419040,note_on,100,0,2,,,,,,,,,,,,,,,0,,,52,64
419060,note_on,20,0,2,,,,,,,,,,,,,,,0,,,54,0
419060,note_on,20,0,1,,,,,,,,,,,,,,,0,,,66,0
419120,set_tempo,200,1,0,,,,,,,,,,,,436364,,,,,,,
419160,note_on,100,0,2,,,,,,,,,,,,,,,0,,,51,65
419160,note_on,100,0,1,,,,,,,,,,,,,,,0,,,63,75
419180,note_on,20,0,1,,,,,,,,,,,,,,,0,,,64,0
419180,note_on,20,0,2,,,,,,,,,,,,,,,0,,,52,0
419280,note_on,100,0,2,,,,,,,,,,,,,,,0,,,49,66
419280,note_on,100,0,1,,,,,,,,,,,,,,,0,,,61,76
419300,note_on,20,0,2,,,,,,,,,,,,,,,0,,,51,0
419300,note_on,20,0,1,,,,,,,,,,,,,,,0,,,63,0
419320,set_tempo,200,1,0,,,,,,,,,,,,434783,,,,,,,
419400,note_on,100,0,2,,,,,,,,,,,,,,,0,,,47,66
419400,note_on,100,0,1,,,,,,,,,,,,,,,0,,,59,79
419420,note_on,20,0,1,,,,,,,,,,,,,,,0,,,61,0
419420,note_on,20,0,2,,,,,,,,,,,,,,,0,,,49,0
419480,set_tempo,160,1,0,,,,,,,,,,,,433213,,,,,,,
419520,note_on,100,0,1,,,,,,,,,,,,,,,0,,,59,0
419520,note_on,0,0,1,,,,,,,,,,,,,,,0,,,54,86
419520,set_tempo,40,1,0,,,,,,,,,,,,441599,,,,,,,
419520,note_on,100,0,2,,,,,,,,,,,,,,,0,,,47,0
419520,note_on,0,0,2,,,,,,,,,,,,,,,0,,,39,61
419520,note_on,0,0,2,,,,,,,,,,,,,,,0,,,51,73
419520,note_on,0,0,1,,,,,,,,,,,,,,,0,,,59,86
419623,control_change,103,0,2,,,,,,,,,,,,,,,0,64,127,,
419760,note_on,240,0,1,,,,,,,,,,,,,,,0,,,59,0
419760,note_on,0,0,1,,,,,,,,,,,,,,,0,,,54,74
419760,note_on,0,0,1,,,,,,,,,,,,,,,0,,,59,74
419760,note_on,0,0,1,,,,,,,,,,,,,,,0,,,63,88
419760,note_on,0,0,2,,,,,,,,,,,,,,,0,,,39,0
419760,note_on,0,0,1,,,,,,,,,,,,,,,0,,,54,0
419760,note_on,137,0,2,,,,,,,,,,,,,,,0,,,51,0
420000,note_on,0,0,2,,,,,,,,,,,,,,,0,,,51,77
420000,set_tempo,480,1,0,,,,,,,,,,,,436554,,,,,,,
420000,note_on,240,0,2,,,,,,,,,,,,,,,0,,,39,65
420240,note_on,0,0,1,,,,,,,,,,,,,,,0,,,54,0
420240,note_on,0,0,2,,,,,,,,,,,,,,,0,,,39,0
420240,note_on,240,0,2,,,,,,,,,,,,,,,0,,,51,0
420240,note_on,0,0,1,,,,,,,,,,,,,,,0,,,59,0
420240,note_on,480,0,1,,,,,,,,,,,,,,,0,,,63,0
420240,note_on,0,0,1,,,,,,,,,,,,,,,0,,,59,73
420240,note_on,0,0,1,,,,,,,,,,,,,,,0,,,63,73
420240,note_on,0,0,1,,,,,,,,,,,,,,,0,,,66,87
420480,note_on,240,0,2,,,,,,,,,,,,,,,0,,,39,64
420480,note_on,0,0,2,,,,,,,,,,,,,,,0,,,51,76
420720,note_on,0,0,2,,,,,,,,,,,,,,,0,,,39,0
420720,note_on,480,0,1,,,,,,,,,,,,,,,0,,,66,0
420720,note_on,0,0,1,,,,,,,,,,,,,,,0,,,63,0
420720,note_on,0,0,1,,,,,,,,,,,,,,,0,,,59,0
420720,note_on,240,0,2,,,,,,,,,,,,,,,0,,,51,0
420720,note_on,0,0,1,,,,,,,,,,,,,,,0,,,71,81
420720,note_on,0,0,2,,,,,,,,,,,,,,,0,,,39,52
420720,note_on,0,0,2,,,,,,,,,,,,,,,0,,,51,63
420720,note_on,0,0,1,,,,,,,,,,,,,,,0,,,66,69
420720,note_on,0,0,1,,,,,,,,,,,,,,,0,,,63,69
420720,set_tempo,720,1,0,,,,,,,,,,,,431624,,,,,,,
420777,control_change,57,0,2,,,,,,,,,,,,,,,0,64,0,,
420840,note_on,120,0,1,,,,,,,,,,,,,,,0,,,71,0
420840,note_on,0,0,1,,,,,,,,,,,,,,,0,,,66,0
420840,note_on,0,0,1,,,,,,,,,,,,,,,0,,,63,0
420960,note_on,0,0,2,,,,,,,,,,,,,,,0,,,51,67
420960,note_on,0,0,2,,,,,,,,,,,,,,,0,,,39,0
420960,note_on,183,0,2,,,,,,,,,,,,,,,0,,,51,0
420960,note_on,0,0,1,,,,,,,,,,,,,,,0,,,71,71
420960,note_on,0,0,1,,,,,,,,,,,,,,,0,,,75,85
420960,note_on,0,0,2,,,,,,,,,,,,,,,0,,,39,57
420960,note_on,120,0,1,,,,,,,,,,,,,,,0,,,66,71
421080,note_on,120,0,1,,,,,,,,,,,,,,,0,,,75,0
421080,note_on,0,0,1,,,,,,,,,,,,,,,0,,,71,0
421080,note_on,0,0,1,,,,,,,,,,,,,,,0,,,66,0
421200,note_on,120,0,1,,,,,,,,,,,,,,,0,,,71,74
421200,note_on,0,0,1,,,,,,,,,,,,,,,0,,,75,74
421200,note_on,0,0,1,,,,,,,,,,,,,,,0,,,78,88
421200,note_on,0,0,2,,,,,,,,,,,,,,,0,,,51,72
421200,note_on,240,0,2,,,,,,,,,,,,,,,0,,,51,0
421200,note_on,0,0,2,,,,,,,,,,,,,,,0,,,39,0
421200,set_tempo,480,1,0,,,,,,,,,,,,457526,,,,,,,
421200,note_on,0,0,2,,,,,,,,,,,,,,,0,,,39,60
421320,note_on,0,0,1,,,,,,,,,,,,,,,0,,,71,0
421320,note_on,0,0,1,,,,,,,,,,,,,,,0,,,75,0
421320,note_on,120,0,1,,,,,,,,,,,,,,,0,,,78,0
421383,control_change,183,0,2,,,,,,,,,,,,,,,0,64,0,,
421440,note_on,0,0,1,,,,,,,,,,,,,,,0,,,69,75
421440,note_on,120,0,1,,,,,,,,,,,,,,,0,,,63,75
421440,note_on,0,0,2,,,,,,,,,,,,,,,0,,,39,0
421440,note_on,0,0,1,,,,,,,,,,,,,,,0,,,72,86
421440,note_on,0,0,2,,,,,,,,,,,,,,,0,,,41,61
421440,note_on,0,0,2,,,,,,,,,,,,,,,0,,,53,73
421440,control_change,0,0,2,,,,,,,,,,,,,,,0,64,127,,
421440,set_tempo,240,1,0,,,,,,,,,,,,441599,,,,,,,
421440,note_on,57,0,2,,,,,,,,,,,,,,,0,,,51,0
421680,note_on,0,0,1,,,,,,,,,,,,,,,0,,,69,74
421680,note_on,0,0,1,,,,,,,,,,,,,,,0,,,63,0
421680,note_on,0,0,1,,,,,,,,,,,,,,,0,,,72,74
421680,note_on,240,0,1,,,,,,,,,,,,,,,0,,,72,0
421680,note_on,240,0,2,,,,,,,,,,,,,,,0,,,53,0
421680,note_on,0,0,1,,,,,,,,,,,,,,,0,,,69,0
421680,note_on,0,0,1,,,,,,,,,,,,,,,0,,,75,88
421680,note_on,0,0,2,,,,,,,,,,,,,,,0,,,41,0
421920,set_tempo,480,1,0,,,,,,,,,,,,436554,,,,,,,
421920,note_on,240,0,2,,,,,,,,,,,,,,,0,,,41,65
421920,note_on,0,0,2,,,,,,,,,,,,,,,0,,,53,77
422160,note_on,0,0,1,,,,,,,,,,,,,,,0,,,69,0
422160,note_on,0,0,1,,,,,,,,,,,,,,,0,,,81,87
422160,note_on,240,0,2,,,,,,,,,,,,,,,0,,,53,0
422160,note_on,0,0,2,,,,,,,,,,,,,,,0,,,41,0
422160,note_on,480,0,1,,,,,,,,,,,,,,,0,,,75,0
422160,note_on,0,0,1,,,,,,,,,,,,,,,0,,,72,0
422160,note_on,0,0,1,,,,,,,,,,,,,,,0,,,75,73
422160,note_on,0,0,1,,,,,,,,,,,,,,,0,,,72,73
422400,note_on,0,0,2,,,,,,,,,,,,,,,0,,,53,76
422400,note_on,240,0,2,,,,,,,,,,,,,,,0,,,41,64
422640,note_on,0,0,1,,,,,,,,,,,,,,,0,,,81,69
422640,note_on,0,0,1,,,,,,,,,,,,,,,0,,,75,69
422640,note_on,0,0,1,,,,,,,,,,,,,,,0,,,72,0
422640,note_on,0,0,1,,,,,,,,,,,,,,,0,,,84,81
422640,note_on,0,0,1,,,,,,,,,,,,,,,0,,,75,0
422640,note_on,480,0,1,,,,,,,,,,,,,,,0,,,81,0
422640,note_on,0,0,2,,,,,,,,,,,,,,,0,,,53,63
422640,note_on,0,0,2,,,,,,,,,,,,,,,0,,,41,52
422640,note_on,0,0,2,,,,,,,,,,,,,,,0,,,41,0
422640,note_on,240,0,2,,,,,,,,,,,,,,,0,,,53,0
422640,set_tempo,720,1,0,,,,,,,,,,,,431624,,,,,,,
422697,control_change,57,0,2,,,,,,,,,,,,,,,0,64,0,,
422760,note_on,120,0,1,,,,,,,,,,,,,,,0,,,84,0
422760,note_on,0,0,1,,,,,,,,,,,,,,,0,,,75,0
422760,note_on,0,0,1,,,,,,,,,,,,,,,0,,,81,0
422880,note_on,120,0,1,,,,,,,,,,,,,,,0,,,81,71
422880,note_on,0,0,1,,,,,,,,,,,,,,,0,,,84,71
422880,note_on,0,0,1,,,,,,,,,,,,,,,0,,,87,85
422880,note_on,183,0,2,,,,,,,,,,,,,,,0,,,53,0
422880,note_on,0,0,2,,,,,,,,,,,,,,,0,,,53,67
422880,note_on,0,0,2,,,,,,,,,,,,,,,0,,,41,57
422880,note_on,0,0,2,,,,,,,,,,,,,,,0,,,41,0
423000,note_on,0,0,1,,,,,,,,,,,,,,,0,,,84,0
423000,note_on,0,0,1,,,,,,,,,,,,,,,0,,,81,0
423000,note_on,120,0,1,,,,,,,,,,,,,,,0,,,87,0
423120,note_on,0,0,2,,,,,,,,,,,,,,,0,,,53,72
423120,note_on,120,0,1,,,,,,,,,,,,,,,0,,,84,74
423120,note_on,0,0,1,,,,,,,,,,,,,,,0,,,93,88
423120,note_on,0,0,1,,,,,,,,,,,,,,,0,,,87,74
423120,note_on,240,0,2,,,,,,,,,,,,,,,0,,,53,0
423120,set_tempo,480,1,0,,,,,,,,,,,,453892,,,,,,,
423120,note_on,0,0,2,,,,,,,,,,,,,,,0,,,41,0
423120,note_on,0,0,2,,,,,,,,,,,,,,,0,,,41,60
423240,note_on,0,0,1,,,,,,,,,,,,,,,0,,,87,0
423240,note_on,120,0,1,,,,,,,,,,,,,,,0,,,93,0
423240,note_on,0,0,1,,,,,,,,,,,,,,,0,,,84,0
423360,set_tempo,240,1,0,,,,,,,,,,,,480000,,,,,,,
423360,note_on,120,0,1,,,,,,,,,,,,,,,0,,,82,89
423360,note_on,0,0,1,,,,,,,,,,,,,,,0,,,85,89
423360,note_on,0,0,1,,,,,,,,,,,,,,,0,,,89,89
423360,note_on,0,0,1,,,,,,,,,,,,,,,0,,,94,106
423360,note_on,240,0,2,,,,,,,,,,,,,,,0,,,53,0
423360,note_on,0,0,2,,,,,,,,,,,,,,,0,,,41,0
423360,note_on,0,0,2,,,,,,,,,,,,,,,0,,,46,67
423394,control_change,34,0,2,,,,,,,,,,,,,,,0,64,127,,
423400,set_tempo,40,1,0,,,,,,,,,,,,465116,,,,,,,
423480,note_on,0,0,2,,,,,,,,,,,,,,,0,,,49,57
423480,note_on,86,0,2,,,,,,,,,,,,,,,0,,,46,0
423520,set_tempo,120,1,0,,,,,,,,,,,,463320,,,,,,,
423600,note_on,120,0,2,,,,,,,,,,,,,,,0,,,49,0
423600,note_on,0,0,2,,,,,,,,,,,,,,,0,,,53,57
423640,set_tempo,120,1,0,,,,,,,,,,,,461538,,,,,,,
423720,note_on,0,0,2,,,,,,,,,,,,,,,0,,,58,57
423720,note_on,120,0,2,,,,,,,,,,,,,,,0,,,53,0
423760,set_tempo,120,1,0,,,,,,,,,,,,459770,,,,,,,
423840,note_on,0,0,2,,,,,,,,,,,,,,,0,,,46,67
423840,note_on,120,0,2,,,,,,,,,,,,,,,0,,,58,0
423880,set_tempo,120,1,0,,,,,,,,,,,,458015,,,,,,,
423960,note_on,0,0,2,,,,,,,,,,,,,,,0,,,49,57
423960,note_on,120,0,2,,,,,,,,,,,,,,,0,,,46,0
424000,set_tempo,120,1,0,,,,,,,,,,,,456274,,,,,,,
424080,note_on,0,0,2,,,,,,,,,,,,,,,0,,,53,57
424080,note_on,120,0,2,,,,,,,,,,,,,,,0,,,49,0
424120,set_tempo,120,1,0,,,,,,,,,,,,454545,,,,,,,
424200,note_on,0,0,2,,,,,,,,,,,,,,,0,,,58,57
424200,note_on,120,0,2,,,,,,,,,,,,,,,0,,,53,0
424200,note_on,840,0,1,,,,,,,,,,,,,,,0,,,94,0
424200,note_on,0,0,1,,,,,,,,,,,,,,,0,,,94,92
424200,note_on,0,0,1,,,,,,,,,,,,,,,0,,,82,77
424200,note_on,0,0,1,,,,,,,,,,,,,,,0,,,89,0
424200,note_on,0,0,1,,,,,,,,,,,,,,,0,,,85,0
424200,note_on,0,0,1,,,,,,,,,,,,,,,0,,,82,0
424240,set_tempo,120,1,0,,,,,,,,,,,,452830,,,,,,,
424320,note_on,120,0,2,,,,,,,,,,,,,,,0,,,58,0
424320,note_on,0,0,2,,,,,,,,,,,,,,,0,,,46,67
424320,set_tempo,80,1,0,,,,,,,,,,,,449438,,,,,,,
424320,note_on,0,0,1,,,,,,,,,,,,,,,0,,,97,96
424320,note_on,0,0,1,,,,,,,,,,,,,,,0,,,85,81
424320,note_on,0,0,1,,,,,,,,,,,,,,,0,,,82,0
424320,note_on,120,0,1,,,,,,,,,,,,,,,0,,,94,0
424354,control_change,34,0,2,,,,,,,,,,,,,,,0,64,0,,
424406,control_change,52,0,2,,,,,,,,,,,,,,,0,64,127,,
424440,note_on,0,0,2,,,,,,,,,,,,,,,0,,,49,56
424440,note_on,34,0,2,,,,,,,,,,,,,,,0,,,46,0
424560,note_on,120,0,2,,,,,,,,,,,,,,,0,,,49,0
424560,note_on,0,0,2,,,,,,,,,,,,,,,0,,,53,57
424640,set_tempo,320,1,0,,,,,,,,,,,,447761,,,,,,,
424680,note_on,0,0,1,,,,,,,,,,,,,,,0,,,97,91
424680,note_on,0,0,2,,,,,,,,,,,,,,,0,,,58,57
424680,note_on,120,0,2,,,,,,,,,,,,,,,0,,,53,0
424680,note_on,360,0,1,,,,,,,,,,,,,,,0,,,97,0
424680,note_on,0,0,1,,,,,,,,,,,,,,,0,,,85,0
424680,note_on,0,0,1,,,,,,,,,,,,,,,0,,,85,76
424800,note_on,0,0,1,,,,,,,,,,,,,,,0,,,85,0
424800,note_on,0,0,1,,,,,,,,,,,,,,,0,,,94,96
424800,note_on,0,0,1,,,,,,,,,,,,,,,0,,,82,81
424800,note_on,120,0,1,,,,,,,,,,,,,,,0,,,97,0
424800,note_on,0,0,2,,,,,,,,,,,,,,,0,,,46,67
424800,note_on,120,0,2,,,,,,,,,,,,,,,0,,,58,0
424920,note_on,0,0,2,,,,,,,,,,,,,,,0,,,49,59
424920,note_on,120,0,2,,,,,,,,,,,,,,,0,,,46,0
424960,set_tempo,320,1,0,,,,,,,,,,,,446097,,,,,,,
425040,note_on,120,0,2,,,,,,,,,,,,,,,0,,,49,0
425040,note_on,0,0,2,,,,,,,,,,,,,,,0,,,53,59
425160,note_on,0,0,2,,,,,,,,,,,,,,,0,,,58,60
425160,note_on,120,0,2,,,,,,,,,,,,,,,0,,,53,0
425160,note_on,0,0,1,,,,,,,,,,,,,,,0,,,94,92
425160,note_on,360,0,1,,,,,,,,,,,,,,,0,,,94,0
425160,note_on,0,0,1,,,,,,,,,,,,,,,0,,,82,0
425160,note_on,0,0,1,,,,,,,,,,,,,,,0,,,82,77
425280,note_on,0,0,1,,,,,,,,,,,,,,,0,,,82,0
425280,note_on,0,0,1,,,,,,,,,,,,,,,0,,,78,81
425280,note_on,120,0,1,,,,,,,,,,,,,,,0,,,94,0
425280,note_on,120,0,2,,,,,,,,,,,,,,,0,,,58,0
425280,control_change,0,0,2,,,,,,,,,,,,,,,0,64,0,,
425280,note_on,0,0,2,,,,,,,,,,,,,,,0,,,46,67
425280,set_tempo,320,1,0,,,,,,,,,,,,442804,,,,,,,
425280,note_on,0,0,1,,,,,,,,,,,,,,,0,,,90,96
425320,control_change,40,0,2,,,,,,,,,,,,,,,0,64,127,,
425400,note_on,80,0,2,,,,,,,,,,,,,,,0,,,46,0
425400,note_on,0,0,2,,,,,,,,,,,,,,,0,,,49,58
425440,set_tempo,160,1,0,,,,,,,,,,,,444444,,,,,,,
425520,note_on,0,0,2,,,,,,,,,,,,,,,0,,,54,58
425520,note_on,120,0,2,,,,,,,,,,,,,,,0,,,49,0
425600,set_tempo,160,1,0,,,,,,,,,,,,446097,,,,,,,
425640,note_on,0,0,2,,,,,,,,,,,,,,,0,,,58,58
425640,note_on,120,0,2,,,,,,,,,,,,,,,0,,,54,0
425640,note_on,360,0,1,,,,,,,,,,,,,,,0,,,90,0
425640,note_on,0,0,1,,,,,,,,,,,,,,,0,,,78,0
425640,note_on,0,0,1,,,,,,,,,,,,,,,0,,,78,77
425640,note_on,0,0,1,,,,,,,,,,,,,,,0,,,90,92
425760,note_on,0,0,2,,,,,,,,,,,,,,,0,,,46,67
425760,note_on,120,0,2,,,,,,,,,,,,,,,0,,,58,0
425760,set_tempo,160,1,0,,,,,,,,,,,,447761,,,,,,,
425760,note_on,120,0,1,,,,,,,,,,,,,,,0,,,90,0
425760,note_on,0,0,1,,,,,,,,,,,,,,,0,,,78,0
425760,note_on,0,0,1,,,,,,,,,,,,,,,0,,,73,77
425760,note_on,0,0,1,,,,,,,,,,,,,,,0,,,85,91
425766,control_change,6,0,2,,,,,,,,,,,,,,,0,64,0,,
425794,control_change,28,0,2,,,,,,,,,,,,,,,0,64,127,,
425880,note_on,86,0,2,,,,,,,,,,,,,,,0,,,46,0
425880,note_on,0,0,2,,,,,,,,,,,,,,,0,,,49,60
426000,note_on,120,0,2,,,,,,,,,,,,,,,0,,,49,0
426000,note_on,0,0,2,,,,,,,,,,,,,,,0,,,54,60
426080,set_tempo,320,1,0,,,,,,,,,,,,452830,,,,,,,
426120,note_on,120,0,2,,,,,,,,,,,,,,,0,,,54,0
426120,note_on,360,0,1,,,,,,,,,,,,,,,0,,,85,0
426120,note_on,0,0,2,,,,,,,,,,,,,,,0,,,58,60
426120,note_on,0,0,1,,,,,,,,,,,,,,,0,,,73,0
426120,note_on,0,0,1,,,,,,,,,,,,,,,0,,,73,72
426120,note_on,0,0,1,,,,,,,,,,,,,,,0,,,85,86
426200,set_tempo,120,1,0,,,,,,,,,,,,454545,,,,,,,
426240,note_on,120,0,1,,,,,,,,,,,,,,,0,,,85,0
426240,note_on,0,0,1,,,,,,,,,,,,,,,0,,,73,0
426240,note_on,0,0,1,,,,,,,,,,,,,,,0,,,86,91
426240,note_on,0,0,1,,,,,,,,,,,,,,,0,,,74,77
426240,note_on,120,0,2,,,,,,,,,,,,,,,0,,,58,0
426240,control_change,0,0,2,,,,,,,,,,,,,,,0,64,0,,
426240,note_on,0,0,2,,,,,,,,,,,,,,,0,,,46,67
426274,control_change,34,0,2,,,,,,,,,,,,,,,0,64,127,,
426320,set_tempo,120,1,0,,,,,,,,,,,,456274,,,,,,,
426360,note_on,0,0,2,,,,,,,,,,,,,,,0,,,53,58
426360,note_on,86,0,2,,,,,,,,,,,,,,,0,,,46,0
426440,set_tempo,120,1,0,,,,,,,,,,,,458015,,,,,,,
426480,note_on,120,0,2,,,,,,,,,,,,,,,0,,,53,0
426480,note_on,0,0,2,,,,,,,,,,,,,,,0,,,56,58
426560,set_tempo,120,1,0,,,,,,,,,,,,459770,,,,,,,
426600,note_on,0,0,1,,,,,,,,,,,,,,,0,,,74,0
426600,note_on,0,0,1,,,,,,,,,,,,,,,0,,,74,72
426600,note_on,0,0,1,,,,,,,,,,,,,,,0,,,86,86
426600,note_on,0,0,2,,,,,,,,,,,,,,,0,,,58,58
426600,note_on,120,0,2,,,,,,,,,,,,,,,0,,,56,0
426600,note_on,360,0,1,,,,,,,,,,,,,,,0,,,86,0
426680,set_tempo,120,1,0,,,,,,,,,,,,461538,,,,,,,
426720,note_on,120,0,2,,,,,,,,,,,,,,,0,,,58,0
426720,note_on,0,0,2,,,,,,,,,,,,,,,0,,,46,67
426720,note_on,0,0,1,,,,,,,,,,,,,,,0,,,70,77
426720,note_on,0,0,1,,,,,,,,,,,,,,,0,,,82,91
426720,note_on,120,0,1,,,,,,,,,,,,,,,0,,,86,0
426720,note_on,0,0,1,,,,,,,,,,,,,,,0,,,74,0
426762,control_change,42,0,2,,,,,,,,,,,,,,,0,64,0,,
426784,control_change,22,0,2,,,,,,,,,,,,,,,0,64,127,,
426840,note_on,56,0,2,,,,,,,,,,,,,,,0,,,46,0
426840,note_on,0,0,2,,,,,,,,,,,,,,,0,,,53,57
426960,note_on,120,0,2,,,,,,,,,,,,,,,0,,,53,0
426960,note_on,0,0,2,,,,,,,,,,,,,,,0,,,56,57
427080,note_on,0,0,1,,,,,,,,,,,,,,,0,,,82,85
427080,note_on,0,0,1,,,,,,,,,,,,,,,0,,,70,71
427080,note_on,360,0,1,,,,,,,,,,,,,,,0,,,82,0
427080,note_on,0,0,1,,,,,,,,,,,,,,,0,,,70,0
427080,note_on,0,0,2,,,,,,,,,,,,,,,0,,,58,57
427080,note_on,120,0,2,,,,,,,,,,,,,,,0,,,56,0
427200,note_on,0,0,1,,,,,,,,,,,,,,,0,,,87,94
427200,note_on,0,0,1,,,,,,,,,,,,,,,0,,,82,79
427200,note_on,0,0,1,,,,,,,,,,,,,,,0,,,78,79
427200,note_on,0,0,1,,,,,,,,,,,,,,,0,,,75,79
427200,note_on,0,0,1,,,,,,,,,,,,,,,0,,,70,0
427200,note_on,120,0,1,,,,,,,,,,,,,,,0,,,82,0
427200,note_on,0,0,2,,,,,,,,,,,,,,,0,,,46,67
427200,set_tempo,520,1,0,,,,,,,,,,,,480000,,,,,,,
427200,note_on,120,0,2,,,,,,,,,,,,,,,0,,,58,0
427211,control_change,11,0,2,,,,,,,,,,,,,,,0,64,0,,
427240,control_change,29,0,2,,,,,,,,,,,,,,,0,64,127,,
427240,set_tempo,40,1,0,,,,,,,,,,,,465116,,,,,,,
427320,note_on,0,0,2,,,,,,,,,,,,,,,0,,,51,57
427320,note_on,80,0,2,,,,,,,,,,,,,,,0,,,46,0
427360,set_tempo,120,1,0,,,,,,,,,,,,463320,,,,,,,
427440,note_on,0,0,2,,,,,,,,,,,,,,,0,,,54,57
427440,note_on,120,0,2,,,,,,,,,,,,,,,0,,,51,0
427480,set_tempo,120,1,0,,,,,,,,,,,,461538,,,,,,,
427560,note_on,0,0,2,,,,,,,,,,,,,,,0,,,58,57
427560,note_on,120,0,2,,,,,,,,,,,,,,,0,,,54,0
427600,set_tempo,120,1,0,,,,,,,,,,,,459770,,,,,,,
427680,note_on,120,0,2,,,,,,,,,,,,,,,0,,,58,0
427680,note_on,0,0,2,,,,,,,,,,,,,,,0,,,46,67
427720,set_tempo,120,1,0,,,,,,,,,,,,458015,,,,,,,
427800,note_on,120,0,2,,,,,,,,,,,,,,,0,,,46,0
427800,note_on,0,0,2,,,,,,,,,,,,,,,0,,,51,55
427840,set_tempo,120,1,0,,,,,,,,,,,,456274,,,,,,,
427920,note_on,120,0,2,,,,,,,,,,,,,,,0,,,51,0
427920,note_on,0,0,2,,,,,,,,,,,,,,,0,,,54,55
427960,set_tempo,120,1,0,,,,,,,,,,,,454545,,,,,,,
428040,note_on,120,0,2,,,,,,,,,,,,,,,0,,,54,0
428040,note_on,0,0,2,,,,,,,,,,,,,,,0,,,58,54
428040,note_on,840,0,1,,,,,,,,,,,,,,,0,,,87,0
428040,note_on,0,0,1,,,,,,,,,,,,,,,0,,,87,87
428040,note_on,0,0,1,,,,,,,,,,,,,,,0,,,75,73
428040,note_on,0,0,1,,,,,,,,,,,,,,,0,,,82,0
428040,note_on,0,0,1,,,,,,,,,,,,,,,0,,,78,0
428040,note_on,0,0,1,,,,,,,,,,,,,,,0,,,75,0
428080,set_tempo,120,1,0,,,,,,,,,,,,452830,,,,,,,
428160,note_on,0,0,1,,,,,,,,,,,,,,,0,,,90,91
428160,set_tempo,80,1,0,,,,,,,,,,,,449438,,,,,,,
428160,note_on,120,0,1,,,,,,,,,,,,,,,0,,,87,0
428160,note_on,0,0,1,,,,,,,,,,,,,,,0,,,75,0
428160,note_on,0,0,1,,,,,,,,,,,,,,,0,,,78,77
428160,note_on,120,0,2,,,,,,,,,,,,,,,0,,,58,0
428160,note_on,0,0,2,,,,,,,,,,,,,,,0,,,46,63
428194,control_change,34,0,2,,,,,,,,,,,,,,,0,64,0,,
428246,control_change,52,0,2,,,,,,,,,,,,,,,0,64,127,,
428280,note_on,34,0,2,,,,,,,,,,,,,,,0,,,46,0
428280,note_on,0,0,2,,,,,,,,,,,,,,,0,,,51,53
428400,note_on,120,0,2,,,,,,,,,,,,,,,0,,,51,0
428400,note_on,0,0,2,,,,,,,,,,,,,,,0,,,54,54
428480,set_tempo,320,1,0,,,,,,,,,,,,447761,,,,,,,
428520,note_on,0,0,1,,,,,,,,,,,,,,,0,,,90,86
428520,note_on,120,0,2,,,,,,,,,,,,,,,0,,,54,0
428520,note_on,360,0,1,,,,,,,,,,,,,,,0,,,90,0
428520,note_on,0,0,1,,,,,,,,,,,,,,,0,,,78,0
428520,note_on,0,0,2,,,,,,,,,,,,,,,0,,,58,54
428520,note_on,0,0,1,,,,,,,,,,,,,,,0,,,78,72
428640,note_on,0,0,1,,,,,,,,,,,,,,,0,,,75,77
428640,note_on,120,0,1,,,,,,,,,,,,,,,0,,,90,0
428640,note_on,120,0,2,,,,,,,,,,,,,,,0,,,58,0
428640,note_on,0,0,1,,,,,,,,,,,,,,,0,,,87,91
428640,note_on,0,0,1,,,,,,,,,,,,,,,0,,,78,0
428640,note_on,0,0,2,,,,,,,,,,,,,,,0,,,46,63
428760,note_on,0,0,2,,,,,,,,,,,,,,,0,,,51,56
428760,note_on,120,0,2,,,,,,,,,,,,,,,0,,,46,0
428800,set_tempo,320,1,0,,,,,,,,,,,,446097,,,,,,,
428880,note_on,0,0,2,,,,,,,,,,,,,,,0,,,54,56
428880,note_on,120,0,2,,,,,,,,,,,,,,,0,,,51,0
429000,note_on,0,0,1,,,,,,,,,,,,,,,0,,,87,87
429000,note_on,0,0,1,,,,,,,,,,,,,,,0,,,75,73
429000,note_on,0,0,1,,,,,,,,,,,,,,,0,,,75,0
429000,note_on,360,0,1,,,,,,,,,,,,,,,0,,,87,0
429000,note_on,120,0,2,,,,,,,,,,,,,,,0,,,54,0
429000,note_on,0,0,2,,,,,,,,,,,,,,,0,,,58,57
429120,control_change,0,0,2,,,,,,,,,,,,,,,0,64,0,,
429120,note_on,0,0,1,,,,,,,,,,,,,,,0,,,71,77
429120,set_tempo,320,1,0,,,,,,,,,,,,442804,,,,,,,
429120,note_on,0,0,1,,,,,,,,,,,,,,,0,,,83,91
429120,note_on,120,0,2,,,,,,,,,,,,,,,0,,,58,0
429120,note_on,120,0,1,,,,,,,,,,,,,,,0,,,87,0
429120,note_on,0,0,2,,,,,,,,,,,,,,,0,,,47,63
429120,note_on,0,0,1,,,,,,,,,,,,,,,0,,,75,0
429160,control_change,40,0,2,,,,,,,,,,,,,,,0,64,127,,
429240,note_on,80,0,2,,,,,,,,,,,,,,,0,,,47,0
429240,note_on,0,0,2,,,,,,,,,,,,,,,0,,,51,55
429280,set_tempo,160,1,0,,,,,,,,,,,,444444,,,,,,,
429360,note_on,120,0,2,,,,,,,,,,,,,,,0,,,51,0
429360,note_on,0,0,2,,,,,,,,,,,,,,,0,,,54,55
429440,set_tempo,160,1,0,,,,,,,,,,,,446097,,,,,,,
429480,note_on,120,0,2,,,,,,,,,,,,,,,0,,,54,0
429480,note_on,0,0,2,,,,,,,,,,,,,,,0,,,59,55
429480,note_on,360,0,1,,,,,,,,,,,,,,,0,,,83,0
429480,note_on,0,0,1,,,,,,,,,,,,,,,0,,,71,0
429480,note_on,0,0,1,,,,,,,,,,,,,,,0,,,71,73
429480,note_on,0,0,1,,,,,,,,,,,,,,,0,,,83,87
429600,note_on,120,0,1,,,,,,,,,,,,,,,0,,,83,0
429600,note_on,0,0,1,,,,,,,,,,,,,,,0,,,71,0
429600,set_tempo,160,1,0,,,,,,,,,,,,447761,,,,,,,
429600,note_on,0,0,1,,,,,,,,,,,,,,,0,,,82,86
429600,note_on,120,0,2,,,,,,,,,,,,,,,0,,,59,0
429600,note_on,0,0,2,,,,,,,,,,,,,,,0,,,47,63
429600,note_on,0,0,1,,,,,,,,,,,,,,,0,,,70,73
429606,control_change,6,0,2,,,,,,,,,,,,,,,0,64,0,,
429634,control_change,28,0,2,,,,,,,,,,,,,,,0,64,127,,
429720,note_on,86,0,2,,,,,,,,,,,,,,,0,,,47,0
429720,note_on,0,0,2,,,,,,,,,,,,,,,0,,,51,57
429840,note_on,0,0,2,,,,,,,,,,,,,,,0,,,54,57
429840,note_on,120,0,2,,,,,,,,,,,,,,,0,,,51,0
429920,set_tempo,320,1,0,,,,,,,,,,,,452830,,,,,,,
429960,note_on,120,0,2,,,,,,,,,,,,,,,0,,,54,0
429960,note_on,0,0,2,,,,,,,,,,,,,,,0,,,59,57
429960,note_on,360,0,1,,,,,,,,,,,,,,,0,,,82,0
429960,note_on,0,0,1,,,,,,,,,,,,,,,0,,,70,0
429960,note_on,0,0,1,,,,,,,,,,,,,,,0,,,70,68
429960,note_on,0,0,1,,,,,,,,,,,,,,,0,,,82,80
430040,set_tempo,120,1,0,,,,,,,,,,,,454545,,,,,,,
430080,note_on,0,0,1,,,,,,,,,,,,,,,0,,,81,86
430080,note_on,0,0,1,,,,,,,,,,,,,,,0,,,70,0
430080,note_on,120,0,1,,,,,,,,,,,,,,,0,,,82,0
430080,note_on,0,0,2,,,,,,,,,,,,,,,0,,,48,63
430080,note_on,120,0,2,,,,,,,,,,,,,,,0,,,59,0
430080,note_on,0,0,1,,,,,,,,,,,,,,,0,,,69,73
430120,control_change,40,0,2,,,,,,,,,,,,,,,0,64,0,,
430160,set_tempo,120,1,0,,,,,,,,,,,,456274,,,,,,,
430172,control_change,52,0,2,,,,,,,,,,,,,,,0,64,127,,
430200,note_on,28,0,2,,,,,,,,,,,,,,,0,,,48,0
430200,note_on,0,0,2,,,,,,,,,,,,,,,0,,,51,55
430280,set_tempo,120,1,0,,,,,,,,,,,,458015,,,,,,,
430320,note_on,0,0,2,,,,,,,,,,,,,,,0,,,53,55
430320,note_on,120,0,2,,,,,,,,,,,,,,,0,,,51,0
430400,set_tempo,120,1,0,,,,,,,,,,,,459770,,,,,,,
430440,note_on,0,0,2,,,,,,,,,,,,,,,0,,,60,55
430440,note_on,120,0,2,,,,,,,,,,,,,,,0,,,53,0
430440,note_on,0,0,1,,,,,,,,,,,,,,,0,,,81,80
430440,note_on,0,0,1,,,,,,,,,,,,,,,0,,,69,68
430440,note_on,0,0,1,,,,,,,,,,,,,,,0,,,69,0
430440,note_on,360,0,1,,,,,,,,,,,,,,,0,,,81,0
430520,set_tempo,120,1,0,,,,,,,,,,,,461538,,,,,,,
430560,note_on,120,0,2,,,,,,,,,,,,,,,0,,,60,0
430560,note_on,0,0,1,,,,,,,,,,,,,,,0,,,89,86
430560,note_on,0,0,1,,,,,,,,,,,,,,,0,,,77,73
430560,note_on,0,0,1,,,,,,,,,,,,,,,0,,,69,0
430560,note_on,120,0,1,,,,,,,,,,,,,,,0,,,81,0
430560,note_on,0,0,2,,,,,,,,,,,,,,,0,,,48,63
430602,control_change,42,0,2,,,,,,,,,,,,,,,0,64,0,,
430624,control_change,22,0,2,,,,,,,,,,,,,,,0,64,127,,
430680,note_on,56,0,2,,,,,,,,,,,,,,,0,,,48,0
430680,note_on,0,0,2,,,,,,,,,,,,,,,0,,,51,54
430800,note_on,0,0,2,,,,,,,,,,,,,,,0,,,53,54
430800,note_on,120,0,2,,,,,,,,,,,,,,,0,,,51,0
430920,note_on,360,0,1,,,,,,,,,,,,,,,0,,,89,0
430920,note_on,0,0,1,,,,,,,,,,,,,,,0,,,77,0
430920,note_on,0,0,1,,,,,,,,,,,,,,,0,,,77,67
430920,note_on,0,0,1,,,,,,,,,,,,,,,0,,,89,79
430920,note_on,120,0,2,,,,,,,,,,,,,,,0,,,53,0
430920,note_on,0,0,2,,,,,,,,,,,,,,,0,,,60,54
431040,note_on,0,0,1,,,,,,,,,,,,,,,0,,,82,94
431040,note_on,0,0,1,,,,,,,,,,,,,,,0,,,73,79
431040,set_tempo,520,1,0,,,,,,,,,,,,480000,,,,,,,
431040,note_on,0,0,1,,,,,,,,,,,,,,,0,,,77,79
431040,note_on,0,0,1,,,,,,,,,,,,,,,0,,,70,79
431040,note_on,0,0,1,,,,,,,,,,,,,,,0,,,77,0
431040,note_on,120,0,1,,,,,,,,,,,,,,,0,,,89,0
431040,note_on,120,0,2,,,,,,,,,,,,,,,0,,,60,0
431040,note_on,0,0,2,,,,,,,,,,,,,,,0,,,49,63
431051,control_change,11,0,2,,,,,,,,,,,,,,,0,64,0,,
431074,control_change,23,0,2,,,,,,,,,,,,,,,0,64,127,,
431080,set_tempo,40,1,0,,,,,,,,,,,,465116,,,,,,,
431160,note_on,86,0,2,,,,,,,,,,,,,,,0,,,49,0
431160,note_on,0,0,2,,,,,,,,,,,,,,,0,,,53,54
431200,set_tempo,120,1,0,,,,,,,,,,,,463320,,,,,,,
431280,note_on,120,0,2,,,,,,,,,,,,,,,0,,,53,0
431280,note_on,0,0,2,,,,,,,,,,,,,,,0,,,58,54
431320,set_tempo,120,1,0,,,,,,,,,,,,461538,,,,,,,
431400,note_on,120,0,2,,,,,,,,,,,,,,,0,,,58,0
431400,note_on,0,0,2,,,,,,,,,,,,,,,0,,,61,54
431440,set_tempo,120,1,0,,,,,,,,,,,,459770,,,,,,,
431520,note_on,120,0,2,,,,,,,,,,,,,,,0,,,61,0
431520,note_on,0,0,2,,,,,,,,,,,,,,,0,,,49,63
431560,set_tempo,120,1,0,,,,,,,,,,,,458015,,,,,,,
431640,note_on,120,0,2,,,,,,,,,,,,,,,0,,,49,0
431640,note_on,0,0,2,,,,,,,,,,,,,,,0,,,53,54
431680,set_tempo,120,1,0,,,,,,,,,,,,456274,,,,,,,
431760,note_on,120,0,2,,,,,,,,,,,,,,,0,,,53,0
431760,note_on,0,0,2,,,,,,,,,,,,,,,0,,,58,54
431800,set_tempo,120,1,0,,,,,,,,,,,,454545,,,,,,,
431880,note_on,0,0,1,,,,,,,,,,,,,,,0,,,73,0
431880,note_on,840,0,1,,,,,,,,,,,,,,,0,,,82,0
431880,note_on,0,0,1,,,,,,,,,,,,,,,0,,,70,0
431880,note_on,0,0,1,,,,,,,,,,,,,,,0,,,82,73
431880,note_on,0,0,1,,,,,,,,,,,,,,,0,,,77,0
431880,note_on,120,0,2,,,,,,,,,,,,,,,0,,,58,0
431880,note_on,0,0,1,,,,,,,,,,,,,,,0,,,94,87
431880,note_on,0,0,2,,,,,,,,,,,,,,,0,,,61,54
431920,set_tempo,120,1,0,,,,,,,,,,,,452830,,,,,,,
432000,note_on,0,0,1,,,,,,,,,,,,,,,0,,,97,91
432000,note_on,0,0,1,,,,,,,,,,,,,,,0,,,85,77
432000,note_on,0,0,1,,,,,,,,,,,,,,,0,,,82,0
432000,note_on,120,0,1,,,,,,,,,,,,,,,0,,,94,0
432000,note_on,0,0,2,,,,,,,,,,,,,,,0,,,49,63
432000,note_on,120,0,2,,,,,,,,,,,,,,,0,,,61,0
432000,set_tempo,80,1,0,,,,,,,,,,,,449438,,,,,,,
432034,control_change,34,0,2,,,,,,,,,,,,,,,0,64,0,,
432063,control_change,29,0,2,,,,,,,,,,,,,,,0,64,127,,
432120,note_on,57,0,2,,,,,,,,,,,,,,,0,,,49,0
432120,note_on,0,0,2,,,,,,,,,,,,,,,0,,,53,53
432240,note_on,0,0,2,,,,,,,,,,,,,,,0,,,58,54
432240,note_on,120,0,2,,,,,,,,,,,,,,,0,,,53,0
432320,set_tempo,320,1,0,,,,,,,,,,,,447761,,,,,,,
432360,note_on,0,0,1,,,,,,,,,,,,,,,0,,,97,86
432360,note_on,360,0,1,,,,,,,,,,,,,,,0,,,97,0
432360,note_on,0,0,1,,,,,,,,,,,,,,,0,,,85,0
432360,note_on,120,0,2,,,,,,,,,,,,,,,0,,,58,0
432360,note_on,0,0,2,,,,,,,,,,,,,,,0,,,61,54
432360,note_on,0,0,1,,,,,,,,,,,,,,,0,,,85,72
432480,note_on,0,0,1,,,,,,,,,,,,,,,0,,,85,0
432480,note_on,0,0,1,,,,,,,,,,,,,,,0,,,82,77
432480,note_on,0,0,1,,,,,,,,,,,,,,,0,,,94,91
432480,note_on,120,0,2,,,,,,,,,,,,,,,0,,,61,0
432480,note_on,120,0,1,,,,,,,,,,,,,,,0,,,97,0
432480,note_on,0,0,2,,,,,,,,,,,,,,,0,,,49,63
432600,note_on,120,0,2,,,,,,,,,,,,,,,0,,,49,0
432600,note_on,0,0,2,,,,,,,,,,,,,,,0,,,53,56
432640,set_tempo,320,1,0,,,,,,,,,,,,446097,,,,,,,
432720,note_on,0,0,2,,,,,,,,,,,,,,,0,,,58,56
432720,note_on,120,0,2,,,,,,,,,,,,,,,0,,,53,0
432840,note_on,0,0,2,,,,,,,,,,,,,,,0,,,61,57
432840,note_on,120,0,2,,,,,,,,,,,,,,,0,,,58,0
432840,note_on,360,0,1,,,,,,,,,,,,,,,0,,,94,0
432840,note_on,0,0,1,,,,,,,,,,,,,,,0,,,82,0
432840,note_on,0,0,1,,,,,,,,,,,,,,,0,,,82,73
432840,note_on,0,0,1,,,,,,,,,,,,,,,0,,,94,87
432960,set_tempo,320,1,0,,,,,,,,,,,,442804,,,,,,,
432960,note_on,120,0,1,,,,,,,,,,,,,,,0,,,94,0
432960,note_on,120,0,2,,,,,,,,,,,,,,,0,,,61,0
432960,control_change,0,0,2,,,,,,,,,,,,,,,0,64,0,,
432960,note_on,0,0,1,,,,,,,,,,,,,,,0,,,90,91
432960,note_on,0,0,2,,,,,,,,,,,,,,,0,,,49,63
432960,note_on,0,0,1,,,,,,,,,,,,,,,0,,,82,0
432960,note_on,0,0,1,,,,,,,,,,,,,,,0,,,78,77
433000,control_change,40,0,2,,,,,,,,,,,,,,,0,64,127,,
433080,note_on,0,0,2,,,,,,,,,,,,,,,0,,,54,55
433080,note_on,80,0,2,,,,,,,,,,,,,,,0,,,49,0
433120,set_tempo,160,1,0,,,,,,,,,,,,444444,,,,,,,
433200,note_on,120,0,2,,,,,,,,,,,,,,,0,,,54,0
433200,note_on,0,0,2,,,,,,,,,,,,,,,0,,,58,55
433280,set_tempo,160,1,0,,,,,,,,,,,,446097,,,,,,,
433320,note_on,0,0,1,,,,,,,,,,,,,,,0,,,78,0
433320,note_on,360,0,1,,,,,,,,,,,,,,,0,,,90,0
433320,note_on,0,0,2,,,,,,,,,,,,,,,0,,,61,55
433320,note_on,120,0,2,,,,,,,,,,,,,,,0,,,58,0
433320,note_on,0,0,1,,,,,,,,,,,,,,,0,,,90,87
433320,note_on,0,0,1,,,,,,,,,,,,,,,0,,,78,73
433440,note_on,0,0,1,,,,,,,,,,,,,,,0,,,78,0
433440,note_on,0,0,1,,,,,,,,,,,,,,,0,,,73,73
433440,note_on,0,0,1,,,,,,,,,,,,,,,0,,,85,86
433440,set_tempo,160,1,0,,,,,,,,,,,,447761,,,,,,,
433440,note_on,0,0,2,,,,,,,,,,,,,,,0,,,49,63
433440,note_on,120,0,2,,,,,,,,,,,,,,,0,,,61,0
433440,note_on,120,0,1,,,,,,,,,,,,,,,0,,,90,0
433446,control_change,6,0,2,,,,,,,,,,,,,,,0,64,0,,
433474,control_change,28,0,2,,,,,,,,,,,,,,,0,64,127,,
433560,note_on,86,0,2,,,,,,,,,,,,,,,0,,,49,0
433560,note_on,0,0,2,,,,,,,,,,,,,,,0,,,54,57
433680,note_on,0,0,2,,,,,,,,,,,,,,,0,,,58,57
433680,note_on,120,0,2,,,,,,,,,,,,,,,0,,,54,0
433760,set_tempo,320,1,0,,,,,,,,,,,,452830,,,,,,,
433800,note_on,0,0,1,,,,,,,,,,,,,,,0,,,85,80
433800,note_on,360,0,1,,,,,,,,,,,,,,,0,,,85,0
433800,note_on,0,0,1,,,,,,,,,,,,,,,0,,,73,68
433800,note_on,0,0,1,,,,,,,,,,,,,,,0,,,73,0
433800,note_on,120,0,2,,,,,,,,,,,,,,,0,,,58,0
433800,note_on,0,0,2,,,,,,,,,,,,,,,0,,,61,57
433880,set_tempo,120,1,0,,,,,,,,,,,,454545,,,,,,,
433920,note_on,120,0,1,,,,,,,,,,,,,,,0,,,85,0
433920,note_on,0,0,1,,,,,,,,,,,,,,,0,,,73,0
433920,note_on,0,0,1,,,,,,,,,,,,,,,0,,,89,86
433920,note_on,0,0,1,,,,,,,,,,,,,,,0,,,77,73
433920,note_on,0,0,2,,,,,,,,,,,,,,,0,,,49,63
433920,note_on,120,0,2,,,,,,,,,,,,,,,0,,,61,0
433960,control_change,40,0,2,,,,,,,,,,,,,,,0,64,0,,
434000,set_tempo,120,1,0,,,,,,,,,,,,456274,,,,,,,
434012,control_change,52,0,2,,,,,,,,,,,,,,,0,64,127,,
434040,note_on,28,0,2,,,,,,,,,,,,,,,0,,,49,0
434040,note_on,0,0,2,,,,,,,,,,,,,,,0,,,56,55
434120,set_tempo,120,1,0,,,,,,,,,,,,458015,,,,,,,
434160,note_on,0,0,2,,,,,,,,,,,,,,,0,,,59,55
434160,note_on,120,0,2,,,,,,,,,,,,,,,0,,,56,0
434240,set_tempo,120,1,0,,,,,,,,,,,,459770,,,,,,,
434280,note_on,0,0,1,,,,,,,,,,,,,,,0,,,77,68
434280,note_on,0,0,1,,,,,,,,,,,,,,,0,,,77,0
434280,note_on,360,0,1,,,,,,,,,,,,,,,0,,,89,0
434280,note_on,120,0,2,,,,,,,,,,,,,,,0,,,59,0
434280,note_on,0,0,2,,,,,,,,,,,,,,,0,,,61,55
434280,note_on,0,0,1,,,,,,,,,,,,,,,0,,,89,80
434360,set_tempo,120,1,0,,,,,,,,,,,,461538,,,,,,,
434400,note_on,0,0,1,,,,,,,,,,,,,,,0,,,77,0
434400,note_on,0,0,1,,,,,,,,,,,,,,,0,,,73,73
434400,note_on,0,0,1,,,,,,,,,,,,,,,0,,,85,86
434400,note_on,120,0,1,,,,,,,,,,,,,,,0,,,89,0
434400,note_on,0,0,2,,,,,,,,,,,,,,,0,,,49,63
434400,note_on,120,0,2,,,,,,,,,,,,,,,0,,,61,0
434400,control_change,0,0,2,,,,,,,,,,,,,,,0,64,0,,
434417,control_change,17,0,2,,,,,,,,,,,,,,,0,64,127,,
434520,note_on,103,0,2,,,,,,,,,,,,,,,0,,,49,0
434520,note_on,0,0,2,,,,,,,,,,,,,,,0,,,56,54
434640,note_on,120,0,2,,,,,,,,,,,,,,,0,,,56,0
434640,note_on,0,0,2,,,,,,,,,,,,,,,0,,,59,54
434760,note_on,360,0,1,,,,,,,,,,,,,,,0,,,85,0
434760,note_on,0,0,1,,,,,,,,,,,,,,,0,,,73,67
434760,note_on,0,0,2,,,,,,,,,,,,,,,0,,,61,54
434760,note_on,120,0,2,,,,,,,,,,,,,,,0,,,59,0
434760,note_on,0,0,1,,,,,,,,,,,,,,,0,,,73,0
434760,note_on,0,0,1,,,,,,,,,,,,,,,0,,,85,79
434880,note_on,120,0,2,,,,,,,,,,,,,,,0,,,61,0
434880,note_on,0,0,1,,,,,,,,,,,,,,,0,,,90,94
434880,note_on,0,0,1,,,,,,,,,,,,,,,0,,,85,79
434880,note_on,0,0,1,,,,,,,,,,,,,,,0,,,82,79
434880,note_on,0,0,1,,,,,,,,,,,,,,,0,,,78,79
434880,note_on,0,0,1,,,,,,,,,,,,,,,0,,,73,0
434880,note_on,120,0,1,,,,,,,,,,,,,,,0,,,85,0
434880,set_tempo,520,1,0,,,,,,,,,,,,480000,,,,,,,
434880,note_on,0,0,2,,,,,,,,,,,,,,,0,,,49,67
434880,control_change,0,0,2,,,,,,,,,,,,,,,0,64,0,,
434920,set_tempo,40,1,0,,,,,,,,,,,,465116,,,,,,,
434937,control_change,57,0,2,,,,,,,,,,,,,,,0,64,127,,
435000,note_on,63,0,2,,,,,,,,,,,,,,,0,,,49,0
435000,note_on,0,0,2,,,,,,,,,,,,,,,0,,,54,57
435040,set_tempo,120,1,0,,,,,,,,,,,,463320,,,,,,,
435120,note_on,120,0,2,,,,,,,,,,,,,,,0,,,54,0
435120,note_on,0,0,2,,,,,,,,,,,,,,,0,,,58,57
435160,set_tempo,120,1,0,,,,,,,,,,,,461538,,,,,,,
435240,note_on,120,0,2,,,,,,,,,,,,,,,0,,,58,0
435240,note_on,0,0,2,,,,,,,,,,,,,,,0,,,61,57
435280,set_tempo,120,1,0,,,,,,,,,,,,459770,,,,,,,
435360,note_on,120,0,2,,,,,,,,,,,,,,,0,,,61,0
435360,note_on,0,0,2,,,,,,,,,,,,,,,0,,,49,67
435400,set_tempo,120,1,0,,,,,,,,,,,,458015,,,,,,,
435480,note_on,0,0,2,,,,,,,,,,,,,,,0,,,54,55
435480,note_on,120,0,2,,,,,,,,,,,,,,,0,,,49,0
435520,set_tempo,120,1,0,,,,,,,,,,,,456274,,,,,,,
435600,note_on,120,0,2,,,,,,,,,,,,,,,0,,,54,0
435600,note_on,0,0,2,,,,,,,,,,,,,,,0,,,58,55
435640,set_tempo,120,1,0,,,,,,,,,,,,454545,,,,,,,
435720,note_on,840,0,1,,,,,,,,,,,,,,,0,,,90,0
435720,note_on,0,0,1,,,,,,,,,,,,,,,0,,,78,0
435720,note_on,0,0,1,,,,,,,,,,,,,,,0,,,82,0
435720,note_on,0,0,1,,,,,,,,,,,,,,,0,,,78,69
435720,note_on,0,0,1,,,,,,,,,,,,,,,0,,,85,0
435720,note_on,0,0,1,,,,,,,,,,,,,,,0,,,90,81
435720,note_on,0,0,2,,,,,,,,,,,,,,,0,,,61,51
435720,note_on,120,0,2,,,,,,,,,,,,,,,0,,,58,0
435760,set_tempo,120,1,0,,,,,,,,,,,,452830,,,,,,,
435840,note_on,0,0,1,,,,,,,,,,,,,,,0,,,78,0
435840,note_on,0,0,1,,,,,,,,,,,,,,,0,,,82,73
435840,note_on,0,0,1,,,,,,,,,,,,,,,0,,,94,86
435840,set_tempo,80,1,0,,,,,,,,,,,,449438,,,,,,,
435840,note_on,120,0,2,,,,,,,,,,,,,,,0,,,61,0
435840,control_change,0,0,2,,,,,,,,,,,,,,,0,64,0,,
435840,note_on,0,0,2,,,,,,,,,,,,,,,0,,,50,59
435840,note_on,120,0,1,,,,,,,,,,,,,,,0,,,90,0
435869,control_change,29,0,2,,,,,,,,,,,,,,,0,64,127,,
435960,note_on,0,0,2,,,,,,,,,,,,,,,0,,,54,50
435960,note_on,91,0,2,,,,,,,,,,,,,,,0,,,50,0
436080,note_on,120,0,2,,,,,,,,,,,,,,,0,,,54,0
436080,note_on,0,0,2,,,,,,,,,,,,,,,0,,,58,51
436160,set_tempo,320,1,0,,,,,,,,,,,,447761,,,,,,,
436200,note_on,120,0,2,,,,,,,,,,,,,,,0,,,58,0
436200,note_on,0,0,2,,,,,,,,,,,,,,,0,,,62,51
436200,note_on,360,0,1,,,,,,,,,,,,,,,0,,,94,0
436200,note_on,0,0,1,,,,,,,,,,,,,,,0,,,82,0
436200,note_on,0,0,1,,,,,,,,,,,,,,,0,,,94,80
436200,note_on,0,0,1,,,,,,,,,,,,,,,0,,,82,68
436320,note_on,0,0,1,,,,,,,,,,,,,,,0,,,82,0
436320,note_on,120,0,1,,,,,,,,,,,,,,,0,,,94,0
436320,note_on,120,0,2,,,,,,,,,,,,,,,0,,,62,0
436320,note_on,0,0,1,,,,,,,,,,,,,,,0,,,90,86
436320,note_on,0,0,1,,,,,,,,,,,,,,,0,,,78,73
436320,note_on,0,0,2,,,,,,,,,,,,,,,0,,,51,59
436440,note_on,120,0,2,,,,,,,,,,,,,,,0,,,51,0
436440,note_on,0,0,2,,,,,,,,,,,,,,,0,,,54,53
436480,set_tempo,320,1,0,,,,,,,,,,,,446097,,,,,,,
436560,note_on,0,0,2,,,,,,,,,,,,,,,0,,,58,53
436560,note_on,120,0,2,,,,,,,,,,,,,,,0,,,54,0
436680,note_on,0,0,1,,,,,,,,,,,,,,,0,,,90,81
436680,note_on,0,0,1,,,,,,,,,,,,,,,0,,,78,0
436680,note_on,0,0,1,,,,,,,,,,,,,,,0,,,78,69
436680,note_on,0,0,2,,,,,,,,,,,,,,,0,,,63,54
436680,note_on,120,0,2,,,,,,,,,,,,,,,0,,,58,0
436680,note_on,360,0,1,,,,,,,,,,,,,,,0,,,90,0
436800,note_on,120,0,1,,,,,,,,,,,,,,,0,,,90,0
436800,note_on,0,0,1,,,,,,,,,,,,,,,0,,,78,0
436800,note_on,0,0,1,,,,,,,,,,,,,,,0,,,77,73
436800,set_tempo,320,1,0,,,,,,,,,,,,442804,,,,,,,
436800,note_on,0,0,2,,,,,,,,,,,,,,,0,,,53,59
436800,control_change,0,0,2,,,,,,,,,,,,,,,0,64,0,,
436800,note_on,120,0,2,,,,,,,,,,,,,,,0,,,63,0
436800,note_on,0,0,1,,,,,,,,,,,,,,,0,,,89,86
436840,control_change,40,0,2,,,,,,,,,,,,,,,0,64,127,,
436920,note_on,0,0,2,,,,,,,,,,,,,,,0,,,58,52
436920,note_on,80,0,2,,,,,,,,,,,,,,,0,,,53,0
436960,set_tempo,160,1,0,,,,,,,,,,,,444444,,,,,,,
437040,note_on,0,0,2,,,,,,,,,,,,,,,0,,,61,52
437040,note_on,120,0,2,,,,,,,,,,,,,,,0,,,58,0
437120,set_tempo,160,1,0,,,,,,,,,,,,446097,,,,,,,
437160,note_on,0,0,1,,,,,,,,,,,,,,,0,,,77,0
437160,note_on,0,0,2,,,,,,,,,,,,,,,0,,,65,52
437160,note_on,120,0,2,,,,,,,,,,,,,,,0,,,61,0
437160,note_on,360,0,1,,,,,,,,,,,,,,,0,,,89,0
437160,note_on,0,0,1,,,,,,,,,,,,,,,0,,,77,69
437160,note_on,0,0,1,,,,,,,,,,,,,,,0,,,89,81
437280,note_on,0,0,1,,,,,,,,,,,,,,,0,,,87,80
437280,note_on,0,0,1,,,,,,,,,,,,,,,0,,,75,69
437280,note_on,0,0,1,,,,,,,,,,,,,,,0,,,77,0
437280,note_on,120,0,1,,,,,,,,,,,,,,,0,,,89,0
437280,note_on,120,0,2,,,,,,,,,,,,,,,0,,,65,0
437280,note_on,0,0,2,,,,,,,,,,,,,,,0,,,54,59
437280,set_tempo,160,1,0,,,,,,,,,,,,447761,,,,,,,
437286,control_change,6,0,2,,,,,,,,,,,,,,,0,64,0,,
437314,control_change,28,0,2,,,,,,,,,,,,,,,0,64,127,,
437400,note_on,0,0,2,,,,,,,,,,,,,,,0,,,58,54
437400,note_on,86,0,2,,,,,,,,,,,,,,,0,,,54,0
437520,note_on,0,0,2,,,,,,,,,,,,,,,0,,,61,54
437520,note_on,120,0,2,,,,,,,,,,,,,,,0,,,58,0
437600,set_tempo,320,1,0,,,,,,,,,,,,452830,,,,,,,
437640,note_on,0,0,2,,,,,,,,,,,,,,,0,,,66,54
437640,note_on,0,0,1,,,,,,,,,,,,,,,0,,,75,0
437640,note_on,0,0,1,,,,,,,,,,,,,,,0,,,75,64
437640,note_on,360,0,1,,,,,,,,,,,,,,,0,,,87,0
437640,note_on,0,0,1,,,,,,,,,,,,,,,0,,,87,76
437640,note_on,120,0,2,,,,,,,,,,,,,,,0,,,61,0
437720,set_tempo,120,1,0,,,,,,,,,,,,454545,,,,,,,
437760,note_on,0,0,1,,,,,,,,,,,,,,,0,,,89,80
437760,note_on,120,0,2,,,,,,,,,,,,,,,0,,,66,0
437760,note_on,0,0,1,,,,,,,,,,,,,,,0,,,75,0
437760,note_on,120,0,1,,,,,,,,,,,,,,,0,,,87,0
437760,note_on,0,0,2,,,,,,,,,,,,,,,0,,,53,59
437760,note_on,0,0,1,,,,,,,,,,,,,,,0,,,77,69
437800,control_change,40,0,2,,,,,,,,,,,,,,,0,64,0,,
437840,set_tempo,120,1,0,,,,,,,,,,,,456274,,,,,,,
437852,control_change,52,0,2,,,,,,,,,,,,,,,0,64,127,,
437880,note_on,0,0,2,,,,,,,,,,,,,,,0,,,58,52
437880,note_on,28,0,2,,,,,,,,,,,,,,,0,,,53,0
437960,set_tempo,120,1,0,,,,,,,,,,,,458015,,,,,,,
438000,note_on,120,0,2,,,,,,,,,,,,,,,0,,,58,0
438000,note_on,0,0,2,,,,,,,,,,,,,,,0,,,61,52
438080,set_tempo,120,1,0,,,,,,,,,,,,459770,,,,,,,
438120,note_on,360,0,1,,,,,,,,,,,,,,,0,,,89,0
438120,note_on,0,0,1,,,,,,,,,,,,,,,0,,,77,0
438120,note_on,0,0,1,,,,,,,,,,,,,,,0,,,77,64
438120,note_on,0,0,1,,,,,,,,,,,,,,,0,,,89,76
438120,note_on,0,0,2,,,,,,,,,,,,,,,0,,,65,52
438120,note_on,120,0,2,,,,,,,,,,,,,,,0,,,61,0
438200,set_tempo,120,1,0,,,,,,,,,,,,461538,,,,,,,
438240,note_on,120,0,1,,,,,,,,,,,,,,,0,,,89,0
438240,note_on,0,0,1,,,,,,,,,,,,,,,0,,,77,0
438240,note_on,0,0,1,,,,,,,,,,,,,,,0,,,77,69
438240,note_on,0,0,1,,,,,,,,,,,,,,,0,,,89,80
438240,note_on,0,0,2,,,,,,,,,,,,,,,0,,,53,59
438240,note_on,120,0,2,,,,,,,,,,,,,,,0,,,65,0
438282,control_change,42,0,2,,,,,,,,,,,,,,,0,64,0,,
438304,control_change,22,0,2,,,,,,,,,,,,,,,0,64,127,,
438360,note_on,0,0,2,,,,,,,,,,,,,,,0,,,58,51
438360,note_on,56,0,2,,,,,,,,,,,,,,,0,,,53,0
438480,note_on,0,0,2,,,,,,,,,,,,,,,0,,,61,51
438480,note_on,120,0,2,,,,,,,,,,,,,,,0,,,58,0
438600,note_on,120,0,2,,,,,,,,,,,,,,,0,,,61,0
438600,note_on,0,0,1,,,,,,,,,,,,,,,0,,,89,75
438600,note_on,0,0,1,,,,,,,,,,,,,,,0,,,77,63
438600,note_on,0,0,1,,,,,,,,,,,,,,,0,,,77,0
438600,note_on,360,0,1,,,,,,,,,,,,,,,0,,,89,0
438600,note_on,0,0,2,,,,,,,,,,,,,,,0,,,65,51
438720,note_on,0,0,1,,,,,,,,,,,,,,,0,,,77,0
438720,note_on,120,0,2,,,,,,,,,,,,,,,0,,,65,0
438720,control_change,0,0,2,,,,,,,,,,,,,,,0,64,0,,
438720,note_on,0,0,2,,,,,,,,,,,,,,,0,,,53,56
438720,note_on,0,0,1,,,,,,,,,,,,,,,0,,,89,76
438720,set_tempo,520,1,0,,,,,,,,,,,,470588,,,,,,,
438720,note_on,120,0,1,,,,,,,,,,,,,,,0,,,89,0
438720,note_on,0,0,1,,,,,,,,,,,,,,,0,,,77,66
438777,control_change,57,0,2,,,,,,,,,,,,,,,0,64,127,,
438800,set_tempo,80,1,0,,,,,,,,,,,,456274,,,,,,,
438840,note_on,0,0,2,,,,,,,,,,,,,,,0,,,58,49
438840,note_on,63,0,2,,,,,,,,,,,,,,,0,,,53,0
438920,set_tempo,120,1,0,,,,,,,,,,,,458015,,,,,,,
438960,note_on,0,0,2,,,,,,,,,,,,,,,0,,,60,48
438960,note_on,120,0,2,,,,,,,,,,,,,,,0,,,58,0
439040,set_tempo,120,1,0,,,,,,,,,,,,459770,,,,,,,
439080,note_on,0,0,1,,,,,,,,,,,,,,,0,,,89,68
439080,note_on,0,0,2,,,,,,,,,,,,,,,0,,,65,47
439080,note_on,0,0,1,,,,,,,,,,,,,,,0,,,77,0
439080,note_on,360,0,1,,,,,,,,,,,,,,,0,,,89,0
439080,note_on,0,0,1,,,,,,,,,,,,,,,0,,,77,57
439080,note_on,120,0,2,,,,,,,,,,,,,,,0,,,60,0
439160,set_tempo,120,1,0,,,,,,,,,,,,461538,,,,,,,
439200,note_on,0,0,1,,,,,,,,,,,,,,,0,,,89,71
439200,note_on,120,0,1,,,,,,,,,,,,,,,0,,,89,0
439200,note_on,0,0,1,,,,,,,,,,,,,,,0,,,77,0
439200,note_on,0,0,1,,,,,,,,,,,,,,,0,,,77,60
439200,note_on,120,0,2,,,,,,,,,,,,,,,0,,,65,0
439200,note_on,0,0,2,,,,,,,,,,,,,,,0,,,53,51
439242,control_change,42,0,2,,,,,,,,,,,,,,,0,64,0,,
439264,control_change,22,0,2,,,,,,,,,,,,,,,0,64,127,,
439320,note_on,56,0,2,,,,,,,,,,,,,,,0,,,53,0
439320,note_on,0,0,2,,,,,,,,,,,,,,,0,,,57,44
439440,note_on,120,0,2,,,,,,,,,,,,,,,0,,,57,0
439440,note_on,0,0,2,,,,,,,,,,,,,,,0,,,60,43
439560,note_on,0,0,1,,,,,,,,,,,,,,,0,,,89,61
439560,note_on,0,0,1,,,,,,,,,,,,,,,0,,,77,51
439560,note_on,360,0,1,,,,,,,,,,,,,,,0,,,89,0
439560,note_on,120,0,2,,,,,,,,,,,,,,,0,,,60,0
439560,note_on,0,0,2,,,,,,,,,,,,,,,0,,,65,42
439560,note_on,0,0,1,,,,,,,,,,,,,,,0,,,77,0
439673,control_change,113,0,2,,,,,,,,,,,,,,,0,64,0,,
439680,note_on,7,0,2,,,,,,,,,,,,,,,0,,,65,0
439680,note_on,0,0,1,,,,,,,,,,,,,,,0,,,77,0
439680,note_on,120,0,1,,,,,,,,,,,,,,,0,,,89,0
439680,note_on,0,0,1,,,,,,,,,,,,,,,0,,,82,58
439680,note_on,0,0,2,,,,,,,,,,,,,,,0,,,46,42
439715,control_change,35,0,2,,,,,,,,,,,,,,,0,64,127,,
439760,note_on,45,0,2,,,,,,,,,,,,,,,0,,,46,0
439840,note_on,80,0,2,,,,,,,,,,,,,,,0,,,62,42
440000,note_on,160,0,2,,,,,,,,,,,,,,,0,,,62,0
440000,note_on,0,0,2,,,,,,,,,,,,,,,0,,,65,34
440153,control_change,153,0,2,,,,,,,,,,,,,,,0,64,0,,
440160,note_on,480,0,1,,,,,,,,,,,,,,,0,,,82,0
440160,note_on,0,0,2,,,,,,,,,,,,,,,0,,,58,34
440160,note_on,7,0,2,,,,,,,,,,,,,,,0,,,65,0
440216,control_change,56,0,2,,,,,,,,,,,,,,,0,64,127,,
440320,note_on,104,0,2,,,,,,,,,,,,,,,0,,,58,0
440320,note_on,0,0,2,,,,,,,,,,,,,,,0,,,62,30
440480,note_on,160,0,2,,,,,,,,,,,,,,,0,,,62,0
440480,note_on,0,0,2,,,,,,,,,,,,,,,0,,,65,30
440520,note_on,360,0,1,,,,,,,,,,,,,,,0,,,82,43
440640,control_change,0,0,2,,,,,,,,,,,,,,,0,64,0,,
440640,note_on,0,0,2,,,,,,,,,,,,,,,0,,,58,34
440640,note_on,0,0,1,,,,,,,,,,,,,,,0,,,86,48
440640,note_on,160,0,2,,,,,,,,,,,,,,,0,,,65,0
440640,set_tempo,1480,1,0,,,,,,,,,,,,449438,,,,,,,
440640,note_on,120,0,1,,,,,,,,,,,,,,,0,,,82,0
440689,control_change,49,0,2,,,,,,,,,,,,,,,0,64,127,,
440800,note_on,111,0,2,,,,,,,,,,,,,,,0,,,58,0
440800,note_on,0,0,2,,,,,,,,,,,,,,,0,,,62,29
440960,note_on,160,0,2,,,,,,,,,,,,,,,0,,,62,0
440960,note_on,0,0,2,,,,,,,,,,,,,,,0,,,65,29
440960,set_tempo,320,1,0,,,,,,,,,,,,447761,,,,,,,
441000,note_on,0,0,1,,,,,,,,,,,,,,,0,,,86,43
441000,note_on,360,0,1,,,,,,,,,,,,,,,0,,,86,0
441120,note_on,120,0,1,,,,,,,,,,,,,,,0,,,86,0
441120,note_on,0,0,1,,,,,,,,,,,,,,,0,,,82,48
441120,note_on,160,0,2,,,,,,,,,,,,,,,0,,,65,0
441120,note_on,0,0,2,,,,,,,,,,,,,,,0,,,58,34
441280,note_on,0,0,2,,,,,,,,,,,,,,,0,,,62,30
441280,note_on,160,0,2,,,,,,,,,,,,,,,0,,,58,0
441280,set_tempo,320,1,0,,,,,,,,,,,,446097,,,,,,,
441440,note_on,0,0,2,,,,,,,,,,,,,,,0,,,65,30
441440,note_on,160,0,2,,,,,,,,,,,,,,,0,,,62,0
441480,note_on,360,0,1,,,,,,,,,,,,,,,0,,,82,0
441480,note_on,0,0,1,,,,,,,,,,,,,,,0,,,82,42
441600,note_on,160,0,2,,,,,,,,,,,,,,,0,,,65,0
441600,note_on,0,0,2,,,,,,,,,,,,,,,0,,,58,34
441600,note_on,120,0,1,,,,,,,,,,,,,,,0,,,82,0
441600,set_tempo,320,1,0,,,,,,,,,,,,442804,,,,,,,
441600,note_on,0,0,1,,,,,,,,,,,,,,,0,,,77,48
441623,control_change,23,0,2,,,,,,,,,,,,,,,0,64,0,,
441669,control_change,46,0,2,,,,,,,,,,,,,,,0,64,127,,
441760,note_on,0,0,2,,,,,,,,,,,,,,,0,,,62,30
441760,note_on,91,0,2,,,,,,,,,,,,,,,0,,,58,0
441760,set_tempo,160,1,0,,,,,,,,,,,,444444,,,,,,,
441920,note_on,0,0,2,,,,,,,,,,,,,,,0,,,65,30
441920,note_on,160,0,2,,,,,,,,,,,,,,,0,,,62,0
441920,set_tempo,160,1,0,,,,,,,,,,,,446097,,,,,,,
441960,note_on,0,0,1,,,,,,,,,,,,,,,0,,,77,43
441960,note_on,360,0,1,,,,,,,,,,,,,,,0,,,77,0
442080,note_on,0,0,1,,,,,,,,,,,,,,,0,,,74,48
442080,note_on,0,0,2,,,,,,,,,,,,,,,0,,,56,34
442080,note_on,160,0,2,,,,,,,,,,,,,,,0,,,65,0
442080,note_on,120,0,1,,,,,,,,,,,,,,,0,,,77,0
442080,set_tempo,160,1,0,,,,,,,,,,,,447761,,,,,,,
442097,control_change,17,0,2,,,,,,,,,,,,,,,0,64,0,,
442149,control_change,52,0,2,,,,,,,,,,,,,,,0,64,127,,
442240,note_on,0,0,2,,,,,,,,,,,,,,,0,,,62,30
442240,note_on,91,0,2,,,,,,,,,,,,,,,0,,,56,0
442400,set_tempo,320,1,0,,,,,,,,,,,,452830,,,,,,,
442400,note_on,160,0,2,,,,,,,,,,,,,,,0,,,62,0
442400,note_on,0,0,2,,,,,,,,,,,,,,,0,,,65,30
442440,note_on,0,0,1,,,,,,,,,,,,,,,0,,,74,43
442440,note_on,360,0,1,,,,,,,,,,,,,,,0,,,74,0
442520,set_tempo,120,1,0,,,,,,,,,,,,454545,,,,,,,
442560,note_on,0,0,1,,,,,,,,,,,,,,,0,,,75,48
442560,note_on,120,0,1,,,,,,,,,,,,,,,0,,,74,0
442560,note_on,0,0,2,,,,,,,,,,,,,,,0,,,55,34
442560,control_change,0,0,2,,,,,,,,,,,,,,,0,64,0,,
442560,note_on,160,0,2,,,,,,,,,,,,,,,0,,,65,0
442594,control_change,34,0,2,,,,,,,,,,,,,,,0,64,127,,
442640,set_tempo,120,1,0,,,,,,,,,,,,456274,,,,,,,
442720,note_on,126,0,2,,,,,,,,,,,,,,,0,,,55,0
442720,note_on,0,0,2,,,,,,,,,,,,,,,0,,,63,29
442760,set_tempo,120,1,0,,,,,,,,,,,,458015,,,,,,,
442880,note_on,0,0,2,,,,,,,,,,,,,,,0,,,65,29
442880,set_tempo,120,1,0,,,,,,,,,,,,459770,,,,,,,
442880,note_on,160,0,2,,,,,,,,,,,,,,,0,,,63,0
442920,note_on,0,0,1,,,,,,,,,,,,,,,0,,,75,42
442920,note_on,360,0,1,,,,,,,,,,,,,,,0,,,75,0
443000,set_tempo,120,1,0,,,,,,,,,,,,461538,,,,,,,
443040,note_on,0,0,1,,,,,,,,,,,,,,,0,,,72,48
443040,note_on,120,0,1,,,,,,,,,,,,,,,0,,,75,0
443040,note_on,0,0,2,,,,,,,,,,,,,,,0,,,57,34
443040,note_on,160,0,2,,,,,,,,,,,,,,,0,,,65,0
443051,control_change,11,0,2,,,,,,,,,,,,,,,0,64,0,,
443086,control_change,35,0,2,,,,,,,,,,,,,,,0,64,127,,
443200,note_on,0,0,2,,,,,,,,,,,,,,,0,,,63,30
443200,note_on,114,0,2,,,,,,,,,,,,,,,0,,,57,0
443360,note_on,160,0,2,,,,,,,,,,,,,,,0,,,63,0
443360,note_on,0,0,2,,,,,,,,,,,,,,,0,,,65,30
443400,note_on,360,0,1,,,,,,,,,,,,,,,0,,,72,0
443400,note_on,0,0,1,,,,,,,,,,,,,,,0,,,72,42
443520,note_on,120,0,1,,,,,,,,,,,,,,,0,,,72,0
443520,note_on,0,0,1,,,,,,,,,,,,,,,0,,,77,48
443520,note_on,0,0,2,,,,,,,,,,,,,,,0,,,58,34
443520,note_on,160,0,2,,,,,,,,,,,,,,,0,,,65,0
443541,control_change,21,0,2,,,,,,,,,,,,,,,0,64,0,,
443562,control_change,21,0,2,,,,,,,,,,,,,,,0,64,127,,
443680,note_on,0,0,2,,,,,,,,,,,,,,,0,,,62,31
443680,note_on,118,0,2,,,,,,,,,,,,,,,0,,,58,0
443840,note_on,0,0,2,,,,,,,,,,,,,,,0,,,65,31
443840,note_on,160,0,2,,,,,,,,,,,,,,,0,,,62,0
443880,note_on,0,0,1,,,,,,,,,,,,,,,0,,,82,36
443880,note_on,360,0,1,,,,,,,,,,,,,,,0,,,77,0
444000,note_on,0,0,1,,,,,,,,,,,,,,,0,,,77,45
444000,note_on,0,0,2,,,,,,,,,,,,,,,0,,,58,34
444000,note_on,160,0,2,,,,,,,,,,,,,,,0,,,65,0
444000,note_on,120,0,1,,,,,,,,,,,,,,,0,,,82,0
444035,control_change,35,0,2,,,,,,,,,,,,,,,0,64,0,,
444078,control_change,43,0,2,,,,,,,,,,,,,,,0,64,127,,
444160,note_on,0,0,2,,,,,,,,,,,,,,,0,,,62,30
444160,note_on,82,0,2,,,,,,,,,,,,,,,0,,,58,0
444240,note_on,240,0,1,,,,,,,,,,,,,,,0,,,77,0
444320,note_on,0,0,2,,,,,,,,,,,,,,,0,,,65,30
444320,note_on,160,0,2,,,,,,,,,,,,,,,0,,,62,0
444360,note_on,120,0,1,,,,,,,,,,,,,,,0,,,82,43
444480,note_on,0,0,2,,,,,,,,,,,,,,,0,,,58,34
444480,note_on,160,0,2,,,,,,,,,,,,,,,0,,,65,0
444480,note_on,0,0,1,,,,,,,,,,,,,,,0,,,86,48
444480,note_on,120,0,1,,,,,,,,,,,,,,,0,,,82,0
444480,set_tempo,1480,1,0,,,,,,,,,,,,449438,,,,,,,
444522,control_change,42,0,2,,,,,,,,,,,,,,,0,64,0,,
444586,control_change,64,0,2,,,,,,,,,,,,,,,0,64,127,,
444640,note_on,0,0,2,,,,,,,,,,,,,,,0,,,62,29
444640,note_on,54,0,2,,,,,,,,,,,,,,,0,,,58,0
444800,note_on,0,0,2,,,,,,,,,,,,,,,0,,,65,29
444800,note_on,160,0,2,,,,,,,,,,,,,,,0,,,62,0
444800,set_tempo,320,1,0,,,,,,,,,,,,447761,,,,,,,
444840,note_on,0,0,1,,,,,,,,,,,,,,,0,,,86,45
444840,note_on,360,0,1,,,,,,,,,,,,,,,0,,,86,0
444960,note_on,160,0,2,,,,,,,,,,,,,,,0,,,65,0
444960,note_on,120,0,1,,,,,,,,,,,,,,,0,,,86,0
444960,note_on,0,0,1,,,,,,,,,,,,,,,0,,,89,52
444960,note_on,0,0,2,,,,,,,,,,,,,,,0,,,57,34
445120,set_tempo,320,1,0,,,,,,,,,,,,446097,,,,,,,
445120,note_on,160,0,2,,,,,,,,,,,,,,,0,,,57,0
445120,note_on,0,0,2,,,,,,,,,,,,,,,0,,,60,30
445280,note_on,160,0,2,,,,,,,,,,,,,,,0,,,60,0
445280,note_on,0,0,2,,,,,,,,,,,,,,,0,,,65,30
445320,note_on,0,0,1,,,,,,,,,,,,,,,0,,,89,48
445320,note_on,360,0,1,,,,,,,,,,,,,,,0,,,89,0
445440,set_tempo,320,1,0,,,,,,,,,,,,442804,,,,,,,
445440,note_on,0,0,1,,,,,,,,,,,,,,,0,,,94,52
445440,note_on,160,0,2,,,,,,,,,,,,,,,0,,,65,0
445440,note_on,0,0,2,,,,,,,,,,,,,,,0,,,55,34
445440,note_on,120,0,1,,,,,,,,,,,,,,,0,,,89,0
445451,control_change,11,0,2,,,,,,,,,,,,,,,0,64,0,,
445497,control_change,46,0,2,,,,,,,,,,,,,,,0,64,127,,
445600,note_on,0,0,2,,,,,,,,,,,,,,,0,,,58,30
445600,note_on,103,0,2,,,,,,,,,,,,,,,0,,,55,0
445600,set_tempo,160,1,0,,,,,,,,,,,,444444,,,,,,,
445760,note_on,160,0,2,,,,,,,,,,,,,,,0,,,58,0
445760,note_on,0,0,2,,,,,,,,,,,,,,,0,,,62,30
445760,set_tempo,160,1,0,,,,,,,,,,,,446097,,,,,,,
445800,note_on,0,0,1,,,,,,,,,,,,,,,0,,,94,50
445800,note_on,360,0,1,,,,,,,,,,,,,,,0,,,94,0
445920,note_on,0,0,2,,,,,,,,,,,,,,,0,,,55,34
445920,note_on,160,0,2,,,,,,,,,,,,,,,0,,,62,0
445920,note_on,0,0,1,,,,,,,,,,,,,,,0,,,96,56
445920,note_on,120,0,1,,,,,,,,,,,,,,,0,,,94,0
445920,set_tempo,160,1,0,,,,,,,,,,,,447761,,,,,,,
445937,control_change,17,0,2,,,,,,,,,,,,,,,0,64,0,,
445966,control_change,29,0,2,,,,,,,,,,,,,,,0,64,127,,
446080,note_on,114,0,2,,,,,,,,,,,,,,,0,,,55,0
446080,note_on,0,0,2,,,,,,,,,,,,,,,0,,,58,30
446240,set_tempo,320,1,0,,,,,,,,,,,,452830,,,,,,,
446240,note_on,160,0,2,,,,,,,,,,,,,,,0,,,58,0
446240,note_on,0,0,2,,,,,,,,,,,,,,,0,,,64,30
446280,note_on,360,0,1,,,,,,,,,,,,,,,0,,,96,0
446280,note_on,0,0,1,,,,,,,,,,,,,,,0,,,96,49
446360,set_tempo,120,1,0,,,,,,,,,,,,454545,,,,,,,
446400,note_on,0,0,2,,,,,,,,,,,,,,,0,,,53,34
446400,control_change,0,0,2,,,,,,,,,,,,,,,0,64,0,,
446400,note_on,160,0,2,,,,,,,,,,,,,,,0,,,64,0
446400,note_on,120,0,1,,,,,,,,,,,,,,,0,,,96,0
446400,note_on,0,0,1,,,,,,,,,,,,,,,0,,,98,55
446434,control_change,34,0,2,,,,,,,,,,,,,,,0,64,127,,
446480,set_tempo,120,1,0,,,,,,,,,,,,456274,,,,,,,
446560,note_on,126,0,2,,,,,,,,,,,,,,,0,,,53,0
446560,note_on,0,0,2,,,,,,,,,,,,,,,0,,,58,29
446600,set_tempo,120,1,0,,,,,,,,,,,,458015,,,,,,,
446720,note_on,0,0,2,,,,,,,,,,,,,,,0,,,65,29
446720,note_on,160,0,2,,,,,,,,,,,,,,,0,,,58,0
446720,set_tempo,120,1,0,,,,,,,,,,,,459770,,,,,,,
446760,note_on,0,0,1,,,,,,,,,,,,,,,0,,,98,48
446760,note_on,360,0,1,,,,,,,,,,,,,,,0,,,98,0
446840,set_tempo,120,1,0,,,,,,,,,,,,461538,,,,,,,
446880,note_on,160,0,2,,,,,,,,,,,,,,,0,,,65,0
446880,note_on,0,0,2,,,,,,,,,,,,,,,0,,,53,34
446880,note_on,120,0,1,,,,,,,,,,,,,,,0,,,98,0
446880,note_on,0,0,1,,,,,,,,,,,,,,,0,,,101,54
446891,control_change,11,0,2,,,,,,,,,,,,,,,0,64,0,,
446926,control_change,35,0,2,,,,,,,,,,,,,,,0,64,127,,
447040,note_on,114,0,2,,,,,,,,,,,,,,,0,,,53,0
447040,note_on,0,0,2,,,,,,,,,,,,,,,0,,,57,30
447200,note_on,160,0,2,,,,,,,,,,,,,,,0,,,57,0
447200,note_on,0,0,2,,,,,,,,,,,,,,,0,,,65,30
447240,note_on,360,0,1,,,,,,,,,,,,,,,0,,,101,0
447240,note_on,0,0,1,,,,,,,,,,,,,,,0,,,101,47
447360,note_on,120,0,1,,,,,,,,,,,,,,,0,,,101,0
447360,note_on,0,0,1,,,,,,,,,,,,,,,0,,,98,53
447360,note_on,0,0,2,,,,,,,,,,,,,,,0,,,46,34
447360,note_on,160,0,2,,,,,,,,,,,,,,,0,,,65,0
447381,control_change,21,0,2,,,,,,,,,,,,,,,0,64,0,,
447431,control_change,50,0,2,,,,,,,,,,,,,,,0,64,127,,
447440,note_on,9,0,2,,,,,,,,,,,,,,,0,,,46,0
447520,note_on,80,0,2,,,,,,,,,,,,,,,0,,,62,31
447600,note_on,240,0,1,,,,,,,,,,,,,,,0,,,98,0
447680,note_on,160,0,2,,,,,,,,,,,,,,,0,,,62,0
447680,note_on,0,0,2,,,,,,,,,,,,,,,0,,,65,31
447840,set_tempo,1000,1,0,,,,,,,,,,,,452830,,,,,,,
447840,note_on,160,0,2,,,,,,,,,,,,,,,0,,,65,0
447840,note_on,0,0,2,,,,,,,,,,,,,,,0,,,58,34
447854,control_change,14,0,2,,,,,,,,,,,,,,,0,64,0,,
447896,control_change,42,0,2,,,,,,,,,,,,,,,0,64,127,,
448000,note_on,104,0,2,,,,,,,,,,,,,,,0,,,58,0
448000,note_on,0,0,2,,,,,,,,,,,,,,,0,,,62,30
448160,note_on,160,0,2,,,,,,,,,,,,,,,0,,,62,0
448160,note_on,0,0,2,,,,,,,,,,,,,,,0,,,65,30
448200,note_on,600,0,1,,,,,,,,,,,,,,,0,,,82,43
448320,note_on,160,0,2,,,,,,,,,,,,,,,0,,,65,0
448320,note_on,0,0,2,,,,,,,,,,,,,,,0,,,58,34
448320,note_on,120,0,1,,,,,,,,,,,,,,,0,,,82,0
448320,note_on,0,0,1,,,,,,,,,,,,,,,0,,,86,48
448320,set_tempo,480,1,0,,,,,,,,,,,,449438,,,,,,,
448320,control_change,0,0,2,,,,,,,,,,,,,,,0,64,0,,
448362,control_change,42,0,2,,,,,,,,,,,,,,,0,64,127,,
448480,note_on,118,0,2,,,,,,,,,,,,,,,0,,,58,0
448480,note_on,0,0,2,,,,,,,,,,,,,,,0,,,62,29
448640,note_on,160,0,2,,,,,,,,,,,,,,,0,,,62,0
448640,set_tempo,320,1,0,,,,,,,,,,,,447761,,,,,,,
448640,note_on,0,0,2,,,,,,,,,,,,,,,0,,,65,29
448680,note_on,0,0,1,,,,,,,,,,,,,,,0,,,86,43
448680,note_on,360,0,1,,,,,,,,,,,,,,,0,,,86,0
448800,note_on,120,0,1,,,,,,,,,,,,,,,0,,,86,0
448800,note_on,160,0,2,,,,,,,,,,,,,,,0,,,65,0
448800,note_on,0,0,2,,,,,,,,,,,,,,,0,,,58,34
448800,note_on,0,0,1,,,,,,,,,,,,,,,0,,,82,48
448960,note_on,160,0,2,,,,,,,,,,,,,,,0,,,58,0
448960,note_on,0,0,2,,,,,,,,,,,,,,,0,,,62,30
448960,set_tempo,320,1,0,,,,,,,,,,,,446097,,,,,,,
449120,note_on,160,0,2,,,,,,,,,,,,,,,0,,,62,0
449120,note_on,0,0,2,,,,,,,,,,,,,,,0,,,65,30
449160,note_on,360,0,1,,,,,,,,,,,,,,,0,,,82,0
449160,note_on,0,0,1,,,,,,,,,,,,,,,0,,,82,42
449280,set_tempo,320,1,0,,,,,,,,,,,,442804,,,,,,,
449280,note_on,160,0,2,,,,,,,,,,,,,,,0,,,65,0
449280,note_on,0,0,2,,,,,,,,,,,,,,,0,,,58,34
449280,note_on,120,0,1,,,,,,,,,,,,,,,0,,,82,0
449280,note_on,0,0,1,,,,,,,,,,,,,,,0,,,77,48
449309,control_change,29,0,2,,,,,,,,,,,,,,,0,64,0,,
449320,control_change,11,0,2,,,,,,,,,,,,,,,0,64,127,,
449440,note_on,120,0,2,,,,,,,,,,,,,,,0,,,58,0
449440,note_on,0,0,2,,,,,,,,,,,,,,,0,,,62,30
449440,set_tempo,160,1,0,,,,,,,,,,,,444444,,,,,,,
449600,set_tempo,160,1,0,,,,,,,,,,,,446097,,,,,,,
449600,note_on,160,0,2,,,,,,,,,,,,,,,0,,,62,0
449600,note_on,0,0,2,,,,,,,,,,,,,,,0,,,65,30
449640,note_on,0,0,1,,,,,,,,,,,,,,,0,,,77,43
449640,note_on,360,0,1,,,,,,,,,,,,,,,0,,,77,0
449760,note_on,160,0,2,,,,,,,,,,,,,,,0,,,65,0
449760,set_tempo,160,1,0,,,,,,,,,,,,447761,,,,,,,
449760,note_on,0,0,2,,,,,,,,,,,,,,,0,,,56,34
449760,note_on,0,0,1,,,,,,,,,,,,,,,0,,,74,48
449760,note_on,120,0,1,,,,,,,,,,,,,,,0,,,77,0
449766,control_change,6,0,2,,,,,,,,,,,,,,,0,64,0,,
449800,control_change,34,0,2,,,,,,,,,,,,,,,0,64,127,,
449920,note_on,0,0,2,,,,,,,,,,,,,,,0,,,62,30
449920,note_on,120,0,2,,,,,,,,,,,,,,,0,,,56,0
450080,note_on,160,0,2,,,,,,,,,,,,,,,0,,,62,0
450080,set_tempo,320,1,0,,,,,,,,,,,,452830,,,,,,,
450080,note_on,0,0,2,,,,,,,,,,,,,,,0,,,65,30
450120,note_on,0,0,1,,,,,,,,,,,,,,,0,,,74,43
450120,note_on,360,0,1,,,,,,,,,,,,,,,0,,,74,0
450200,set_tempo,120,1,0,,,,,,,,,,,,454545,,,,,,,
450240,note_on,0,0,1,,,,,,,,,,,,,,,0,,,77,48
450240,note_on,120,0,1,,,,,,,,,,,,,,,0,,,74,0
450240,note_on,0,0,2,,,,,,,,,,,,,,,0,,,55,34
450240,control_change,0,0,2,,,,,,,,,,,,,,,0,64,0,,
450240,note_on,160,0,2,,,,,,,,,,,,,,,0,,,65,0
450274,control_change,34,0,2,,,,,,,,,,,,,,,0,64,127,,
450320,set_tempo,120,1,0,,,,,,,,,,,,456274,,,,,,,
450400,note_on,0,0,2,,,,,,,,,,,,,,,0,,,63,29
450400,note_on,126,0,2,,,,,,,,,,,,,,,0,,,55,0
450440,set_tempo,120,1,0,,,,,,,,,,,,458015,,,,,,,
450560,set_tempo,120,1,0,,,,,,,,,,,,459770,,,,,,,
450560,note_on,160,0,2,,,,,,,,,,,,,,,0,,,63,0
450560,note_on,0,0,2,,,,,,,,,,,,,,,0,,,65,29
450600,note_on,0,0,1,,,,,,,,,,,,,,,0,,,77,42
450600,note_on,360,0,1,,,,,,,,,,,,,,,0,,,77,0
450680,set_tempo,120,1,0,,,,,,,,,,,,461538,,,,,,,
450720,note_on,120,0,1,,,,,,,,,,,,,,,0,,,77,0
450720,note_on,0,0,1,,,,,,,,,,,,,,,0,,,75,48
450720,note_on,0,0,2,,,,,,,,,,,,,,,0,,,57,34
450720,note_on,160,0,2,,,,,,,,,,,,,,,0,,,65,0
450731,control_change,11,0,2,,,,,,,,,,,,,,,0,64,0,,
450766,control_change,35,0,2,,,,,,,,,,,,,,,0,64,127,,
450880,note_on,0,0,2,,,,,,,,,,,,,,,0,,,63,30
450880,note_on,114,0,2,,,,,,,,,,,,,,,0,,,57,0
451040,note_on,160,0,2,,,,,,,,,,,,,,,0,,,63,0
451040,note_on,0,0,2,,,,,,,,,,,,,,,0,,,65,30
451080,note_on,360,0,1,,,,,,,,,,,,,,,0,,,75,0
451080,note_on,0,0,1,,,,,,,,,,,,,,,0,,,75,42
451200,note_on,160,0,2,,,,,,,,,,,,,,,0,,,65,0
451200,note_on,120,0,1,,,,,,,,,,,,,,,0,,,75,0
451200,note_on,0,0,1,,,,,,,,,,,,,,,0,,,74,48
451200,note_on,0,0,2,,,,,,,,,,,,,,,0,,,58,34
451221,control_change,21,0,2,,,,,,,,,,,,,,,0,64,0,,
451271,control_change,50,0,2,,,,,,,,,,,,,,,0,64,127,,
451360,note_on,0,0,2,,,,,,,,,,,,,,,0,,,62,31
451360,note_on,89,0,2,,,,,,,,,,,,,,,0,,,58,0
451520,note_on,0,0,2,,,,,,,,,,,,,,,0,,,65,31
451520,note_on,160,0,2,,,,,,,,,,,,,,,0,,,62,0
451560,note_on,0,0,1,,,,,,,,,,,,,,,0,,,82,36
451560,note_on,360,0,1,,,,,,,,,,,,,,,0,,,74,0
451680,note_on,160,0,2,,,,,,,,,,,,,,,0,,,65,0
451680,note_on,0,0,2,,,,,,,,,,,,,,,0,,,58,34
451680,note_on,120,0,1,,,,,,,,,,,,,,,0,,,82,0
451680,note_on,0,0,1,,,,,,,,,,,,,,,0,,,77,45
451715,control_change,35,0,2,,,,,,,,,,,,,,,0,64,0,,
451758,control_change,43,0,2,,,,,,,,,,,,,,,0,64,127,,
451840,note_on,0,0,2,,,,,,,,,,,,,,,0,,,62,30
451840,note_on,82,0,2,,,,,,,,,,,,,,,0,,,58,0
451920,note_on,240,0,1,,,,,,,,,,,,,,,0,,,77,0
452000,note_on,160,0,2,,,,,,,,,,,,,,,0,,,62,0
452000,note_on,0,0,2,,,,,,,,,,,,,,,0,,,65,30
452040,note_on,120,0,1,,,,,,,,,,,,,,,0,,,82,43
452160,control_change,0,0,2,,,,,,,,,,,,,,,0,64,0,,
452160,note_on,0,0,1,,,,,,,,,,,,,,,0,,,86,48
452160,note_on,120,0,1,,,,,,,,,,,,,,,0,,,82,0
452160,note_on,0,0,2,,,,,,,,,,,,,,,0,,,58,34
452160,set_tempo,1480,1,0,,,,,,,,,,,,449438,,,,,,,
452160,note_on,160,0,2,,,,,,,,,,,,,,,0,,,65,0
452220,control_change,60,0,2,,,,,,,,,,,,,,,0,64,127,,
452320,note_on,0,0,2,,,,,,,,,,,,,,,0,,,62,29
452320,note_on,100,0,2,,,,,,,,,,,,,,,0,,,58,0
452480,set_tempo,320,1,0,,,,,,,,,,,,447761,,,,,,,
452480,note_on,0,0,2,,,,,,,,,,,,,,,0,,,65,29
452480,note_on,160,0,2,,,,,,,,,,,,,,,0,,,62,0
452520,note_on,0,0,1,,,,,,,,,,,,,,,0,,,86,45
452520,note_on,360,0,1,,,,,,,,,,,,,,,0,,,86,0
452640,note_on,160,0,2,,,,,,,,,,,,,,,0,,,65,0
452640,note_on,0,0,1,,,,,,,,,,,,,,,0,,,89,52
452640,note_on,120,0,1,,,,,,,,,,,,,,,0,,,86,0
452640,note_on,0,0,2,,,,,,,,,,,,,,,0,,,57,34
452657,control_change,17,0,2,,,,,,,,,,,,,,,0,64,0,,
452680,control_change,23,0,2,,,,,,,,,,,,,,,0,64,127,,
452800,note_on,0,0,2,,,,,,,,,,,,,,,0,,,60,30
452800,note_on,120,0,2,,,,,,,,,,,,,,,0,,,57,0
452800,set_tempo,320,1,0,,,,,,,,,,,,446097,,,,,,,
452960,note_on,160,0,2,,,,,,,,,,,,,,,0,,,60,0
452960,note_on,0,0,2,,,,,,,,,,,,,,,0,,,65,30
453000,note_on,360,0,1,,,,,,,,,,,,,,,0,,,89,0
453000,note_on,0,0,1,,,,,,,,,,,,,,,0,,,89,48
453120,set_tempo,320,1,0,,,,,,,,,,,,442804,,,,,,,
453120,note_on,120,0,1,,,,,,,,,,,,,,,0,,,89,0
453120,note_on,0,0,1,,,,,,,,,,,,,,,0,,,94,52
453120,note_on,0,0,2,,,,,,,,,,,,,,,0,,,55,34
453120,control_change,0,0,2,,,,,,,,,,,,,,,0,64,0,,
453120,note_on,160,0,2,,,,,,,,,,,,,,,0,,,65,0
453154,control_change,34,0,2,,,,,,,,,,,,,,,0,64,127,,
453280,note_on,126,0,2,,,,,,,,,,,,,,,0,,,55,0
453280,set_tempo,160,1,0,,,,,,,,,,,,444444,,,,,,,
453280,note_on,0,0,2,,,,,,,,,,,,,,,0,,,58,30
453440,set_tempo,160,1,0,,,,,,,,,,,,446097,,,,,,,
453440,note_on,0,0,2,,,,,,,,,,,,,,,0,,,62,30
453440,note_on,160,0,2,,,,,,,,,,,,,,,0,,,58,0
453480,note_on,0,0,1,,,,,,,,,,,,,,,0,,,94,50
453480,note_on,360,0,1,,,,,,,,,,,,,,,0,,,94,0
453600,note_on,0,0,2,,,,,,,,,,,,,,,0,,,55,34
453600,note_on,160,0,2,,,,,,,,,,,,,,,0,,,62,0
453600,set_tempo,160,1,0,,,,,,,,,,,,447761,,,,,,,
453600,note_on,0,0,1,,,,,,,,,,,,,,,0,,,96,56
453600,note_on,120,0,1,,,,,,,,,,,,,,,0,,,94,0
453664,control_change,64,0,2,,,,,,,,,,,,,,,0,64,0,,
453713,control_change,49,0,2,,,,,,,,,,,,,,,0,64,127,,
453760,note_on,47,0,2,,,,,,,,,,,,,,,0,,,55,0
453760,note_on,0,0,2,,,,,,,,,,,,,,,0,,,58,30
453920,note_on,160,0,2,,,,,,,,,,,,,,,0,,,58,0
453920,note_on,0,0,2,,,,,,,,,,,,,,,0,,,64,30
453920,set_tempo,320,1,0,,,,,,,,,,,,452830,,,,,,,
453960,note_on,0,0,1,,,,,,,,,,,,,,,0,,,96,49
453960,note_on,360,0,1,,,,,,,,,,,,,,,0,,,96,0
454040,set_tempo,120,1,0,,,,,,,,,,,,454545,,,,,,,
454080,note_on,160,0,2,,,,,,,,,,,,,,,0,,,64,0
454080,note_on,0,0,2,,,,,,,,,,,,,,,0,,,53,34
454080,note_on,0,0,1,,,,,,,,,,,,,,,0,,,98,55
454080,note_on,120,0,1,,,,,,,,,,,,,,,0,,,96,0
454080,control_change,0,0,2,,,,,,,,,,,,,,,0,64,0,,
454114,control_change,34,0,2,,,,,,,,,,,,,,,0,64,127,,
454160,set_tempo,120,1,0,,,,,,,,,,,,456274,,,,,,,
454240,note_on,126,0,2,,,,,,,,,,,,,,,0,,,53,0
454240,note_on,0,0,2,,,,,,,,,,,,,,,0,,,58,29
454280,set_tempo,120,1,0,,,,,,,,,,,,458015,,,,,,,
454400,set_tempo,120,1,0,,,,,,,,,,,,459770,,,,,,,
454400,note_on,160,0,2,,,,,,,,,,,,,,,0,,,58,0
454400,note_on,0,0,2,,,,,,,,,,,,,,,0,,,65,29
454440,note_on,360,0,1,,,,,,,,,,,,,,,0,,,98,0
454440,note_on,0,0,1,,,,,,,,,,,,,,,0,,,98,48
454520,set_tempo,120,1,0,,,,,,,,,,,,461538,,,,,,,
454560,note_on,120,0,1,,,,,,,,,,,,,,,0,,,98,0
454560,note_on,0,0,1,,,,,,,,,,,,,,,0,,,101,54
454560,note_on,0,0,2,,,,,,,,,,,,,,,0,,,53,34
454560,note_on,160,0,2,,,,,,,,,,,,,,,0,,,65,0
454571,control_change,11,0,2,,,,,,,,,,,,,,,0,64,0,,
454606,control_change,35,0,2,,,,,,,,,,,,,,,0,64,127,,
454720,note_on,0,0,2,,,,,,,,,,,,,,,0,,,57,30
454720,note_on,114,0,2,,,,,,,,,,,,,,,0,,,53,0
454880,note_on,0,0,2,,,,,,,,,,,,,,,0,,,65,30
454880,note_on,160,0,2,,,,,,,,,,,,,,,0,,,57,0
454920,note_on,0,0,1,,,,,,,,,,,,,,,0,,,101,47
454920,note_on,360,0,1,,,,,,,,,,,,,,,0,,,101,0
455040,note_on,0,0,2,,,,,,,,,,,,,,,0,,,46,34
455040,note_on,160,0,2,,,,,,,,,,,,,,,0,,,65,0
455040,note_on,120,0,1,,,,,,,,,,,,,,,0,,,101,0
455040,note_on,0,0,1,,,,,,,,,,,,,,,0,,,94,53
455061,control_change,21,0,2,,,,,,,,,,,,,,,0,64,0,,
455111,control_change,50,0,2,,,,,,,,,,,,,,,0,64,127,,
455120,note_on,9,0,2,,,,,,,,,,,,,,,0,,,46,0
455200,note_on,80,0,2,,,,,,,,,,,,,,,0,,,62,31
455280,note_on,240,0,1,,,,,,,,,,,,,,,0,,,94,0
455360,note_on,160,0,2,,,,,,,,,,,,,,,0,,,62,0
455360,note_on,0,0,2,,,,,,,,,,,,,,,0,,,65,31
455520,set_tempo,1000,1,0,,,,,,,,,,,,456274,,,,,,,
455520,note_on,160,0,2,,,,,,,,,,,,,,,0,,,65,0
455520,note_on,0,0,2,,,,,,,,,,,,,,,0,,,58,34
455555,control_change,35,0,2,,,,,,,,,,,,,,,0,64,0,,
455598,control_change,43,0,2,,,,,,,,,,,,,,,0,64,127,,
455680,note_on,82,0,2,,,,,,,,,,,,,,,0,,,58,0
455680,note_on,0,0,2,,,,,,,,,,,,,,,0,,,62,30
455840,note_on,0,0,2,,,,,,,,,,,,,,,0,,,65,30
455840,note_on,160,0,2,,,,,,,,,,,,,,,0,,,62,0
455880,note_on,600,0,1,,,,,,,,,,,,,,,0,,,93,43
456000,note_on,0,0,1,,,,,,,,,,,,,,,0,,,94,48
456000,note_on,120,0,1,,,,,,,,,,,,,,,0,,,93,0
456000,note_on,0,0,2,,,,,,,,,,,,,,,0,,,58,34
456000,set_tempo,480,1,0,,,,,,,,,,,,449438,,,,,,,
456000,note_on,160,0,2,,,,,,,,,,,,,,,0,,,65,0
456042,control_change,42,0,2,,,,,,,,,,,,,,,0,64,0,,
456106,control_change,64,0,2,,,,,,,,,,,,,,,0,64,127,,
456160,note_on,54,0,2,,,,,,,,,,,,,,,0,,,58,0
456160,note_on,0,0,2,,,,,,,,,,,,,,,0,,,62,29
456320,note_on,160,0,2,,,,,,,,,,,,,,,0,,,62,0
456320,note_on,0,0,2,,,,,,,,,,,,,,,0,,,65,29
456320,set_tempo,320,1,0,,,,,,,,,,,,447761,,,,,,,
456360,note_on,360,0,1,,,,,,,,,,,,,,,0,,,94,0
456360,note_on,0,0,1,,,,,,,,,,,,,,,0,,,94,45
456480,note_on,0,0,1,,,,,,,,,,,,,,,0,,,92,52
456480,note_on,120,0,1,,,,,,,,,,,,,,,0,,,94,0
456480,note_on,160,0,2,,,,,,,,,,,,,,,0,,,65,0
456480,note_on,0,0,2,,,,,,,,,,,,,,,0,,,59,34
456486,control_change,6,0,2,,,,,,,,,,,,,,,0,64,0,,
456520,control_change,34,0,2,,,,,,,,,,,,,,,0,64,127,,
456640,note_on,0,0,2,,,,,,,,,,,,,,,0,,,62,30
456640,set_tempo,320,1,0,,,,,,,,,,,,446097,,,,,,,
456640,note_on,120,0,2,,,,,,,,,,,,,,,0,,,59,0
456800,note_on,160,0,2,,,,,,,,,,,,,,,0,,,62,0
456800,note_on,0,0,2,,,,,,,,,,,,,,,0,,,65,30
456840,note_on,0,0,1,,,,,,,,,,,,,,,0,,,92,48
456840,note_on,360,0,1,,,,,,,,,,,,,,,0,,,92,0
456960,note_on,0,0,1,,,,,,,,,,,,,,,0,,,89,52
456960,note_on,160,0,2,,,,,,,,,,,,,,,0,,,65,0
456960,note_on,120,0,1,,,,,,,,,,,,,,,0,,,92,0
456960,control_change,0,0,2,,,,,,,,,,,,,,,0,64,0,,
456960,note_on,0,0,2,,,,,,,,,,,,,,,0,,,58,34
456960,set_tempo,320,1,0,,,,,,,,,,,,442804,,,,,,,
457029,control_change,69,0,2,,,,,,,,,,,,,,,0,64,127,,
457120,note_on,0,0,2,,,,,,,,,,,,,,,0,,,62,30
457120,note_on,91,0,2,,,,,,,,,,,,,,,0,,,58,0
457120,set_tempo,160,1,0,,,,,,,,,,,,444444,,,,,,,
457280,note_on,0,0,2,,,,,,,,,,,,,,,0,,,65,30
457280,note_on,160,0,2,,,,,,,,,,,,,,,0,,,62,0
457280,set_tempo,160,1,0,,,,,,,,,,,,446097,,,,,,,
457320,note_on,0,0,1,,,,,,,,,,,,,,,0,,,89,50
457320,note_on,360,0,1,,,,,,,,,,,,,,,0,,,89,0
457440,note_on,0,0,1,,,,,,,,,,,,,,,0,,,86,56
457440,note_on,120,0,1,,,,,,,,,,,,,,,0,,,89,0
457440,note_on,0,0,2,,,,,,,,,,,,,,,0,,,59,34
457440,note_on,160,0,2,,,,,,,,,,,,,,,0,,,65,0
457440,set_tempo,160,1,0,,,,,,,,,,,,447761,,,,,,,
457446,control_change,6,0,2,,,,,,,,,,,,,,,0,64,0,,
457480,set_tempo,40,1,0,,,,,,,,,,,,446097,,,,,,,
457486,control_change,40,0,2,,,,,,,,,,,,,,,0,64,127,,
457600,note_on,114,0,2,,,,,,,,,,,,,,,0,,,59,0
457600,note_on,0,0,2,,,,,,,,,,,,,,,0,,,62,30
457760,note_on,160,0,2,,,,,,,,,,,,,,,0,,,62,0
457760,note_on,0,0,2,,,,,,,,,,,,,,,0,,,65,30
457800,note_on,0,0,1,,,,,,,,,,,,,,,0,,,86,49
457800,note_on,360,0,1,,,,,,,,,,,,,,,0,,,86,0
457920,note_on,0,0,1,,,,,,,,,,,,,,,0,,,89,55
457920,note_on,120,0,1,,,,,,,,,,,,,,,0,,,86,0
457920,note_on,160,0,2,,,,,,,,,,,,,,,0,,,65,0
457920,control_change,0,0,2,,,,,,,,,,,,,,,0,64,0,,
457920,note_on,0,0,2,,,,,,,,,,,,,,,0,,,58,34
457954,control_change,34,0,2,,,,,,,,,,,,,,,0,64,127,,
457960,set_tempo,480,1,0,,,,,,,,,,,,447761,,,,,,,
458080,note_on,126,0,2,,,,,,,,,,,,,,,0,,,58,0
458080,note_on,0,0,2,,,,,,,,,,,,,,,0,,,62,29
458240,note_on,160,0,2,,,,,,,,,,,,,,,0,,,62,0
458240,note_on,0,0,2,,,,,,,,,,,,,,,0,,,65,29
458280,note_on,360,0,1,,,,,,,,,,,,,,,0,,,89,0
458280,note_on,0,0,1,,,,,,,,,,,,,,,0,,,89,48
458400,note_on,120,0,1,,,,,,,,,,,,,,,0,,,89,0
458400,note_on,0,0,1,,,,,,,,,,,,,,,0,,,90,54
458400,note_on,160,0,2,,,,,,,,,,,,,,,0,,,65,0
458400,note_on,0,0,2,,,,,,,,,,,,,,,0,,,56,34
458411,control_change,11,0,2,,,,,,,,,,,,,,,0,64,0,,
458440,set_tempo,480,1,0,,,,,,,,,,,,449438,,,,,,,
458446,control_change,35,0,2,,,,,,,,,,,,,,,0,64,127,,
458560,note_on,114,0,2,,,,,,,,,,,,,,,0,,,56,0
458560,note_on,0,0,2,,,,,,,,,,,,,,,0,,,60,30
458720,note_on,0,0,2,,,,,,,,,,,,,,,0,,,66,30
458720,note_on,160,0,2,,,,,,,,,,,,,,,0,,,60,0
458760,note_on,360,0,1,,,,,,,,,,,,,,,0,,,90,0
458760,note_on,0,0,1,,,,,,,,,,,,,,,0,,,90,47
458880,note_on,120,0,1,,,,,,,,,,,,,,,0,,,90,0
458880,note_on,0,0,1,,,,,,,,,,,,,,,0,,,91,55
458880,set_tempo,440,1,0,,,,,,,,,,,,447761,,,,,,,
458880,note_on,160,0,2,,,,,,,,,,,,,,,0,,,66,0
458880,control_change,0,0,2,,,,,,,,,,,,,,,0,64,0,,
458880,note_on,0,0,2,,,,,,,,,,,,,,,0,,,55,34
458914,control_change,34,0,2,,,,,,,,,,,,,,,0,64,127,,
459040,note_on,126,0,2,,,,,,,,,,,,,,,0,,,55,0
459040,note_on,0,0,2,,,,,,,,,,,,,,,0,,,59,28
459200,note_on,160,0,2,,,,,,,,,,,,,,,0,,,59,0
459200,note_on,0,0,2,,,,,,,,,,,,,,,0,,,67,28
459240,note_on,360,0,1,,,,,,,,,,,,,,,0,,,91,0
459240,note_on,0,0,1,,,,,,,,,,,,,,,0,,,91,47
459360,note_on,0,0,1,,,,,,,,,,,,,,,0,,,91,52
459360,note_on,0,0,2,,,,,,,,,,,,,,,0,,,55,33
459360,note_on,120,0,1,,,,,,,,,,,,,,,0,,,91,0
459360,note_on,160,0,2,,,,,,,,,,,,,,,0,,,67,0
459371,control_change,11,0,2,,,,,,,,,,,,,,,0,64,0,,
459400,set_tempo,520,1,0,,,,,,,,,,,,449438,,,,,,,
459406,control_change,35,0,2,,,,,,,,,,,,,,,0,64,127,,
459520,note_on,0,0,2,,,,,,,,,,,,,,,0,,,60,28
459520,note_on,114,0,2,,,,,,,,,,,,,,,0,,,55,0
459680,note_on,160,0,2,,,,,,,,,,,,,,,0,,,60,0
459680,note_on,0,0,2,,,,,,,,,,,,,,,0,,,63,28
459720,note_on,0,0,1,,,,,,,,,,,,,,,0,,,91,44
459720,note_on,360,0,1,,,,,,,,,,,,,,,0,,,91,0
459840,control_change,0,0,2,,,,,,,,,,,,,,,0,64,0,,
459840,note_on,160,0,2,,,,,,,,,,,,,,,0,,,63,0
459840,note_on,0,0,2,,,,,,,,,,,,,,,0,,,55,31
459840,note_on,0,0,1,,,,,,,,,,,,,,,0,,,91,51
459840,note_on,120,0,1,,,,,,,,,,,,,,,0,,,91,0
459874,control_change,34,0,2,,,,,,,,,,,,,,,0,64,127,,
459880,set_tempo,480,1,0,,,,,,,,,,,,452830,,,,,,,
460000,note_on,0,0,2,,,,,,,,,,,,,,,0,,,59,26
460000,note_on,126,0,2,,,,,,,,,,,,,,,0,,,55,0
460040,set_tempo,160,1,0,,,,,,,,,,,,454545,,,,,,,
460160,note_on,0,0,2,,,,,,,,,,,,,,,0,,,62,26
460160,note_on,160,0,2,,,,,,,,,,,,,,,0,,,59,0
460200,set_tempo,160,1,0,,,,,,,,,,,,456274,,,,,,,
460200,note_on,360,0,1,,,,,,,,,,,,,,,0,,,91,0
460200,note_on,0,0,1,,,,,,,,,,,,,,,0,,,91,43
460320,note_on,160,0,2,,,,,,,,,,,,,,,0,,,62,0
460320,note_on,0,0,2,,,,,,,,,,,,,,,0,,,55,30
460320,note_on,0,0,1,,,,,,,,,,,,,,,0,,,91,48
460320,note_on,120,0,1,,,,,,,,,,,,,,,0,,,91,0
460331,control_change,11,0,2,,,,,,,,,,,,,,,0,64,0,,
460360,set_tempo,160,1,0,,,,,,,,,,,,458015,,,,,,,
460366,control_change,35,0,2,,,,,,,,,,,,,,,0,64,127,,
460480,note_on,114,0,2,,,,,,,,,,,,,,,0,,,55,0
460480,note_on,0,0,2,,,,,,,,,,,,,,,0,,,60,26
460520,set_tempo,160,1,0,,,,,,,,,,,,459770,,,,,,,
460640,note_on,0,0,2,,,,,,,,,,,,,,,0,,,63,26
460640,note_on,160,0,2,,,,,,,,,,,,,,,0,,,60,0
460680,note_on,360,0,1,,,,,,,,,,,,,,,0,,,91,0
460680,note_on,0,0,1,,,,,,,,,,,,,,,0,,,91,40
460680,set_tempo,160,1,0,,,,,,,,,,,,461538,,,,,,,
460800,note_on,0,0,2,,,,,,,,,,,,,,,0,,,55,29
460800,control_change,0,0,2,,,,,,,,,,,,,,,0,64,0,,
460800,note_on,160,0,2,,,,,,,,,,,,,,,0,,,63,0
460800,note_on,120,0,1,,,,,,,,,,,,,,,0,,,91,0
460800,note_on,0,0,1,,,,,,,,,,,,,,,0,,,91,47
460834,control_change,34,0,2,,,,,,,,,,,,,,,0,64,127,,
460880,set_tempo,200,1,0,,,,,,,,,,,,456274,,,,,,,
460960,note_on,126,0,2,,,,,,,,,,,,,,,0,,,55,0
460960,note_on,0,0,2,,,,,,,,,,,,,,,0,,,59,27
461000,set_tempo,120,1,0,,,,,,,,,,,,458015,,,,,,,
461040,note_on,240,0,1,,,,,,,,,,,,,,,0,,,91,0
461120,note_on,160,0,2,,,,,,,,,,,,,,,0,,,59,0
461120,set_tempo,120,1,0,,,,,,,,,,,,459770,,,,,,,
461120,note_on,0,0,2,,,,,,,,,,,,,,,0,,,62,28
461240,set_tempo,120,1,0,,,,,,,,,,,,461538,,,,,,,
461280,note_on,160,0,2,,,,,,,,,,,,,,,0,,,62,0
461280,note_on,0,0,2,,,,,,,,,,,,,,,0,,,55,34
461291,control_change,11,0,2,,,,,,,,,,,,,,,0,64,0,,
461326,control_change,35,0,2,,,,,,,,,,,,,,,0,64,127,,
461440,note_on,0,0,2,,,,,,,,,,,,,,,0,,,60,30
461440,note_on,114,0,2,,,,,,,,,,,,,,,0,,,55,0
461520,set_tempo,280,1,0,,,,,,,,,,,,468750,,,,,,,
461600,note_on,160,0,2,,,,,,,,,,,,,,,0,,,60,0
461600,note_on,0,0,2,,,,,,,,,,,,,,,0,,,63,30
461640,note_on,600,0,1,,,,,,,,,,,,,,,0,,,79,48
461709,control_change,109,0,2,,,,,,,,,,,,,,,0,64,0,,
461730,note_on,90,0,1,,,,,,,,,,,,,,,0,,,79,0
461760,note_on,30,0,1,,,,,,,,,,,,,,,0,,,80,53
461760,note_on,0,0,2,,,,,,,,,,,,,,,0,,,55,34
461760,control_change,0,0,2,,,,,,,,,,,,,,,0,64,127,,
461760,note_on,51,0,2,,,,,,,,,,,,,,,0,,,63,0
461920,note_on,0,0,2,,,,,,,,,,,,,,,0,,,59,31
461920,note_on,160,0,2,,,,,,,,,,,,,,,0,,,55,0
462000,note_on,240,0,1,,,,,,,,,,,,,,,0,,,80,0
462000,note_on,0,0,1,,,,,,,,,,,,,,,0,,,79,49
462040,set_tempo,520,1,0,,,,,,,,,,,,476190,,,,,,,
462080,note_on,160,0,2,,,,,,,,,,,,,,,0,,,59,0
462080,note_on,0,0,2,,,,,,,,,,,,,,,0,,,62,31
462120,note_on,120,0,1,,,,,,,,,,,,,,,0,,,79,0
462240,note_on,0,0,2,,,,,,,,,,,,,,,0,,,55,34
462240,note_on,160,0,2,,,,,,,,,,,,,,,0,,,62,0
462240,note_on,120,0,1,,,,,,,,,,,,,,,0,,,79,51
462291,control_change,51,0,2,,,,,,,,,,,,,,,0,64,0,,
462360,note_on,120,0,1,,,,,,,,,,,,,,,0,,,79,0
462360,control_change,69,0,2,,,,,,,,,,,,,,,0,64,127,,
462400,note_on,40,0,2,,,,,,,,,,,,,,,0,,,55,0
462400,note_on,0,0,2,,,,,,,,,,,,,,,0,,,60,31
462480,set_tempo,440,1,0,,,,,,,,,,,,481928,,,,,,,
462480,note_on,120,0,1,,,,,,,,,,,,,,,0,,,79,49
462560,note_on,160,0,2,,,,,,,,,,,,,,,0,,,60,0
462560,note_on,0,0,2,,,,,,,,,,,,,,,0,,,63,31
462600,note_on,120,0,1,,,,,,,,,,,,,,,0,,,79,0
462720,note_on,120,0,1,,,,,,,,,,,,,,,0,,,79,47
462720,note_on,160,0,2,,,,,,,,,,,,,,,0,,,63,0
462720,control_change,0,0,2,,,,,,,,,,,,,,,0,64,0,,
462720,note_on,0,0,2,,,,,,,,,,,,,,,0,,,55,34
462720,set_tempo,240,1,0,,,,,,,,,,,,468750,,,,,,,
462776,control_change,56,0,2,,,,,,,,,,,,,,,0,64,127,,
462880,note_on,0,0,2,,,,,,,,,,,,,,,0,,,59,30
462880,note_on,104,0,2,,,,,,,,,,,,,,,0,,,55,0
462960,note_on,240,0,1,,,,,,,,,,,,,,,0,,,79,0
463040,note_on,160,0,2,,,,,,,,,,,,,,,0,,,59,0
463040,note_on,0,0,2,,,,,,,,,,,,,,,0,,,62,30
463200,note_on,160,0,2,,,,,,,,,,,,,,,0,,,62,0
463200,note_on,0,0,2,,,,,,,,,,,,,,,0,,,55,34
463211,control_change,11,0,2,,,,,,,,,,,,,,,0,64,0,,
463246,control_change,35,0,2,,,,,,,,,,,,,,,0,64,127,,
463360,note_on,0,0,2,,,,,,,,,,,,,,,0,,,60,30
463360,note_on,114,0,2,,,,,,,,,,,,,,,0,,,55,0
463440,set_tempo,720,1,0,,,,,,,,,,,,468750,,,,,,,
463520,note_on,160,0,2,,,,,,,,,,,,,,,0,,,60,0
463520,note_on,0,0,2,,,,,,,,,,,,,,,0,,,63,30
463560,note_on,600,0,1,,,,,,,,,,,,,,,0,,,94,48
463629,control_change,109,0,2,,,,,,,,,,,,,,,0,64,0,,
463650,note_on,90,0,1,,,,,,,,,,,,,,,0,,,94,0
463680,note_on,51,0,2,,,,,,,,,,,,,,,0,,,63,0
463680,control_change,0,0,2,,,,,,,,,,,,,,,0,64,127,,
463680,note_on,0,0,2,,,,,,,,,,,,,,,0,,,55,34
463680,note_on,30,0,1,,,,,,,,,,,,,,,0,,,92,53
463840,note_on,0,0,2,,,,,,,,,,,,,,,0,,,59,31
463840,note_on,160,0,2,,,,,,,,,,,,,,,0,,,55,0
463920,note_on,0,0,1,,,,,,,,,,,,,,,0,,,91,49
463920,note_on,240,0,1,,,,,,,,,,,,,,,0,,,92,0
463960,set_tempo,520,1,0,,,,,,,,,,,,476190,,,,,,,
464000,note_on,160,0,2,,,,,,,,,,,,,,,0,,,59,0
464000,note_on,0,0,2,,,,,,,,,,,,,,,0,,,62,31
464040,note_on,120,0,1,,,,,,,,,,,,,,,0,,,91,0
464160,note_on,120,0,1,,,,,,,,,,,,,,,0,,,91,51
464160,note_on,160,0,2,,,,,,,,,,,,,,,0,,,62,0
464160,note_on,0,0,2,,,,,,,,,,,,,,,0,,,55,34
464211,control_change,51,0,2,,,,,,,,,,,,,,,0,64,0,,
464280,note_on,120,0,1,,,,,,,,,,,,,,,0,,,91,0
464280,control_change,69,0,2,,,,,,,,,,,,,,,0,64,127,,
464320,note_on,0,0,2,,,,,,,,,,,,,,,0,,,60,31
464320,note_on,40,0,2,,,,,,,,,,,,,,,0,,,55,0
464400,set_tempo,440,1,0,,,,,,,,,,,,481928,,,,,,,
464400,note_on,120,0,1,,,,,,,,,,,,,,,0,,,91,49
464480,note_on,160,0,2,,,,,,,,,,,,,,,0,,,60,0
464480,note_on,0,0,2,,,,,,,,,,,,,,,0,,,63,31
464520,note_on,120,0,1,,,,,,,,,,,,,,,0,,,91,0
464640,note_on,160,0,2,,,,,,,,,,,,,,,0,,,63,0
464640,control_change,0,0,2,,,,,,,,,,,,,,,0,64,0,,
464640,note_on,0,0,2,,,,,,,,,,,,,,,0,,,55,34
464640,set_tempo,240,1,0,,,,,,,,,,,,468750,,,,,,,
464640,note_on,120,0,1,,,,,,,,,,,,,,,0,,,91,47
464696,control_change,56,0,2,,,,,,,,,,,,,,,0,64,127,,
464800,note_on,104,0,2,,,,,,,,,,,,,,,0,,,55,0
464800,note_on,0,0,2,,,,,,,,,,,,,,,0,,,59,30
464880,note_on,240,0,1,,,,,,,,,,,,,,,0,,,91,0
464960,note_on,0,0,2,,,,,,,,,,,,,,,0,,,62,30
464960,note_on,160,0,2,,,,,,,,,,,,,,,0,,,59,0
465120,note_on,160,0,2,,,,,,,,,,,,,,,0,,,62,0
465120,note_on,0,0,2,,,,,,,,,,,,,,,0,,,55,34
465131,control_change,11,0,2,,,,,,,,,,,,,,,0,64,0,,
465166,control_change,35,0,2,,,,,,,,,,,,,,,0,64,127,,
465280,note_on,114,0,2,,,,,,,,,,,,,,,0,,,55,0
465280,note_on,0,0,2,,,,,,,,,,,,,,,0,,,60,30
465360,set_tempo,720,1,0,,,,,,,,,,,,468750,,,,,,,
465440,note_on,160,0,2,,,,,,,,,,,,,,,0,,,60,0
465440,note_on,0,0,2,,,,,,,,,,,,,,,0,,,63,30
465480,note_on,600,0,1,,,,,,,,,,,,,,,0,,,67,48
465549,control_change,109,0,2,,,,,,,,,,,,,,,0,64,0,,
465570,note_on,90,0,1,,,,,,,,,,,,,,,0,,,67,0
465600,note_on,0,0,2,,,,,,,,,,,,,,,0,,,55,34
465600,note_on,51,0,2,,,,,,,,,,,,,,,0,,,63,0
465600,note_on,30,0,1,,,,,,,,,,,,,,,0,,,68,53
465600,control_change,0,0,2,,,,,,,,,,,,,,,0,64,127,,
465760,note_on,160,0,2,,,,,,,,,,,,,,,0,,,55,0
465760,note_on,0,0,2,,,,,,,,,,,,,,,0,,,59,31
465840,note_on,240,0,1,,,,,,,,,,,,,,,0,,,68,0
465840,note_on,0,0,1,,,,,,,,,,,,,,,0,,,67,49
465880,set_tempo,520,1,0,,,,,,,,,,,,476190,,,,,,,
465920,note_on,160,0,2,,,,,,,,,,,,,,,0,,,59,0
465920,note_on,0,0,2,,,,,,,,,,,,,,,0,,,62,31
465960,note_on,120,0,1,,,,,,,,,,,,,,,0,,,67,0
466080,note_on,160,0,2,,,,,,,,,,,,,,,0,,,62,0
466080,note_on,120,0,1,,,,,,,,,,,,,,,0,,,67,51
466080,note_on,0,0,2,,,,,,,,,,,,,,,0,,,55,34
466131,control_change,51,0,2,,,,,,,,,,,,,,,0,64,0,,
466200,control_change,69,0,2,,,,,,,,,,,,,,,0,64,127,,
466200,note_on,120,0,1,,,,,,,,,,,,,,,0,,,67,0
466240,note_on,40,0,2,,,,,,,,,,,,,,,0,,,55,0
466240,note_on,0,0,2,,,,,,,,,,,,,,,0,,,60,31
466320,note_on,120,0,1,,,,,,,,,,,,,,,0,,,67,49
466320,set_tempo,440,1,0,,,,,,,,,,,,481928,,,,,,,
466400,note_on,160,0,2,,,,,,,,,,,,,,,0,,,60,0
466400,note_on,0,0,2,,,,,,,,,,,,,,,0,,,63,31
466440,note_on,120,0,1,,,,,,,,,,,,,,,0,,,67,0
466560,note_on,160,0,2,,,,,,,,,,,,,,,0,,,63,0
466560,control_change,0,0,2,,,,,,,,,,,,,,,0,64,0,,
466560,note_on,0,0,2,,,,,,,,,,,,,,,0,,,55,34
466560,set_tempo,240,1,0,,,,,,,,,,,,468750,,,,,,,
466560,note_on,120,0,1,,,,,,,,,,,,,,,0,,,67,47
466616,control_change,56,0,2,,,,,,,,,,,,,,,0,64,127,,
466720,note_on,0,0,2,,,,,,,,,,,,,,,0,,,59,30
466720,note_on,104,0,2,,,,,,,,,,,,,,,0,,,55,0
466800,note_on,240,0,1,,,,,,,,,,,,,,,0,,,67,0
466880,note_on,160,0,2,,,,,,,,,,,,,,,0,,,59,0
466880,note_on,0,0,2,,,,,,,,,,,,,,,0,,,62,30
467040,note_on,0,0,2,,,,,,,,,,,,,,,0,,,55,34
467040,note_on,160,0,2,,,,,,,,,,,,,,,0,,,62,0
467051,control_change,11,0,2,,,,,,,,,,,,,,,0,64,0,,
467086,control_change,35,0,2,,,,,,,,,,,,,,,0,64,127,,
467200,note_on,114,0,2,,,,,,,,,,,,,,,0,,,55,0
467200,note_on,0,0,2,,,,,,,,,,,,,,,0,,,60,30
467280,set_tempo,720,1,0,,,,,,,,,,,,468750,,,,,,,
467360,note_on,0,0,2,,,,,,,,,,,,,,,0,,,63,30
467360,note_on,160,0,2,,,,,,,,,,,,,,,0,,,60,0
467400,note_on,600,0,1,,,,,,,,,,,,,,,0,,,82,48
467469,control_change,109,0,2,,,,,,,,,,,,,,,0,64,0,,
467490,note_on,90,0,1,,,,,,,,,,,,,,,0,,,82,0
467520,note_on,0,0,2,,,,,,,,,,,,,,,0,,,55,34
467520,control_change,0,0,2,,,,,,,,,,,,,,,0,64,127,,
467520,note_on,51,0,2,,,,,,,,,,,,,,,0,,,63,0
467520,note_on,30,0,1,,,,,,,,,,,,,,,0,,,80,53
467680,note_on,160,0,2,,,,,,,,,,,,,,,0,,,55,0
467680,note_on,0,0,2,,,,,,,,,,,,,,,0,,,59,31
467760,note_on,0,0,1,,,,,,,,,,,,,,,0,,,79,49
467760,note_on,240,0,1,,,,,,,,,,,,,,,0,,,80,0
467800,set_tempo,520,1,0,,,,,,,,,,,,476190,,,,,,,
467840,note_on,160,0,2,,,,,,,,,,,,,,,0,,,59,0
467840,note_on,0,0,2,,,,,,,,,,,,,,,0,,,62,31
467880,note_on,120,0,1,,,,,,,,,,,,,,,0,,,79,0
468000,note_on,0,0,2,,,,,,,,,,,,,,,0,,,55,34
468000,note_on,120,0,1,,,,,,,,,,,,,,,0,,,79,51
468000,note_on,160,0,2,,,,,,,,,,,,,,,0,,,62,0
468051,control_change,51,0,2,,,,,,,,,,,,,,,0,64,0,,
468120,note_on,120,0,1,,,,,,,,,,,,,,,0,,,79,0
468120,control_change,69,0,2,,,,,,,,,,,,,,,0,64,127,,
468160,note_on,40,0,2,,,,,,,,,,,,,,,0,,,55,0
468160,note_on,0,0,2,,,,,,,,,,,,,,,0,,,60,31
468240,note_on,120,0,1,,,,,,,,,,,,,,,0,,,79,49
468240,set_tempo,440,1,0,,,,,,,,,,,,481928,,,,,,,
468320,note_on,160,0,2,,,,,,,,,,,,,,,0,,,60,0
468320,note_on,0,0,2,,,,,,,,,,,,,,,0,,,63,31
468360,note_on,120,0,1,,,,,,,,,,,,,,,0,,,79,0
468480,note_on,120,0,1,,,,,,,,,,,,,,,0,,,80,53
468480,note_on,160,0,2,,,,,,,,,,,,,,,0,,,63,0
468480,control_change,0,0,2,,,,,,,,,,,,,,,0,64,127,,
468480,note_on,0,0,2,,,,,,,,,,,,,,,0,,,55,34
468640,note_on,0,0,2,,,,,,,,,,,,,,,0,,,59,31
468640,note_on,160,0,2,,,,,,,,,,,,,,,0,,,55,0
468720,note_on,0,0,1,,,,,,,,,,,,,,,0,,,79,49
468720,note_on,240,0,1,,,,,,,,,,,,,,,0,,,80,0
468760,set_tempo,520,1,0,,,,,,,,,,,,476190,,,,,,,
468800,note_on,160,0,2,,,,,,,,,,,,,,,0,,,59,0
468800,note_on,0,0,2,,,,,,,,,,,,,,,0,,,62,31
468840,note_on,120,0,1,,,,,,,,,,,,,,,0,,,79,0
468960,note_on,0,0,2,,,,,,,,,,,,,,,0,,,55,34
468960,note_on,120,0,1,,,,,,,,,,,,,,,0,,,79,51
468960,note_on,160,0,2,,,,,,,,,,,,,,,0,,,62,0
469011,control_change,51,0,2,,,,,,,,,,,,,,,0,64,0,,
469080,control_change,69,0,2,,,,,,,,,,,,,,,0,64,127,,
469080,note_on,120,0,1,,,,,,,,,,,,,,,0,,,79,0
469120,note_on,0,0,2,,,,,,,,,,,,,,,0,,,60,31
469120,note_on,40,0,2,,,,,,,,,,,,,,,0,,,55,0
469200,note_on,120,0,1,,,,,,,,,,,,,,,0,,,79,49
469200,set_tempo,440,1,0,,,,,,,,,,,,515021,,,,,,,
469280,note_on,160,0,2,,,,,,,,,,,,,,,0,,,60,0
469280,note_on,0,0,2,,,,,,,,,,,,,,,0,,,63,31
469320,note_on,120,0,1,,,,,,,,,,,,,,,0,,,79,0
469440,set_tempo,240,1,0,,,,,,,,,,,,497925,,,,,,,
469440,note_on,120,0,1,,,,,,,,,,,,,,,0,,,79,53
469440,control_change,0,0,1,,,,,,,,,,,,,,,0,91,127,,
469440,note_on,160,0,2,,,,,,,,,,,,,,,0,,,63,0
469440,control_change,0,0,2,,,,,,,,,,,,,,,0,64,0,,
469440,note_on,0,0,2,,,,,,,,,,,,,,,0,,,62,34
469440,note_on,0,0,2,,,,,,,,,,,,,,,0,,,59,34
469440,note_on,0,0,2,,,,,,,,,,,,,,,0,,,55,34
469680,note_on,240,0,2,,,,,,,,,,,,,,,0,,,55,0
469680,note_on,0,0,2,,,,,,,,,,,,,,,0,,,59,0
469680,note_on,0,0,2,,,,,,,,,,,,,,,0,,,62,0
469680,note_on,240,0,1,,,,,,,,,,,,,,,0,,,79,0
469920,set_tempo,480,1,0,,,,,,,,,,,,437956,,,,,,,
469920,note_on,240,0,2,,,,,,,,,,,,,,,0,,,67,94
469920,note_on,0,0,2,,,,,,,,,,,,,,,0,,,55,78
471120,note_on,1440,0,1,,,,,,,,,,,,,,,0,,,74,47
471120,set_tempo,1200,1,0,,,,,,,,,,,,487805,,,,,,,
471360,set_tempo,240,1,0,,,,,,,,,,,,442804,,,,,,,
471360,note_on,0,0,2,,,,,,,,,,,,,,,0,,,55,37
471360,note_on,0,0,1,,,,,,,,,,,,,,,0,,,72,56
471360,note_on,240,0,1,,,,,,,,,,,,,,,0,,,74,0
471360,note_on,1440,0,2,,,,,,,,,,,,,,,0,,,55,0
471360,note_on,0,0,2,,,,,,,,,,,,,,,0,,,67,0
471600,note_on,0,0,2,,,,,,,,,,,,,,,0,,,67,28
471600,note_on,0,0,1,,,,,,,,,,,,,,,0,,,71,33
471600,note_on,240,0,1,,,,,,,,,,,,,,,0,,,72,0
471600,note_on,240,0,2,,,,,,,,,,,,,,,0,,,55,0
471720,note_on,120,0,2,,,,,,,,,,,,,,,0,,,67,0
471720,note_on,120,0,1,,,,,,,,,,,,,,,0,,,71,0
471840,note_on,120,0,2,,,,,,,,,,,,,,,0,,,65,28
471840,note_on,0,0,2,,,,,,,,,,,,,,,0,,,62,23
471840,set_tempo,480,1,0,,,,,,,,,,,,438725,,,,,,,
471840,note_on,120,0,1,,,,,,,,,,,,,,,0,,,71,37
471960,note_on,120,0,2,,,,,,,,,,,,,,,0,,,62,0
471960,note_on,0,0,2,,,,,,,,,,,,,,,0,,,65,0
471960,note_on,120,0,1,,,,,,,,,,,,,,,0,,,71,0
472080,note_on,120,0,2,,,,,,,,,,,,,,,0,,,67,28
472080,set_tempo,240,1,0,,,,,,,,,,,,447761,,,,,,,
472080,note_on,120,0,1,,,,,,,,,,,,,,,0,,,71,33
472200,note_on,120,0,2,,,,,,,,,,,,,,,0,,,67,0
472200,note_on,120,0,1,,,,,,,,,,,,,,,0,,,71,0
472320,set_tempo,240,1,0,,,,,,,,,,,,438725,,,,,,,
472320,note_on,120,0,1,,,,,,,,,,,,,,,0,,,71,49
472320,note_on,120,0,2,,,,,,,,,,,,,,,0,,,55,38
472560,note_on,0,0,1,,,,,,,,,,,,,,,0,,,72,36
472560,note_on,240,0,1,,,,,,,,,,,,,,,0,,,71,0
472560,note_on,0,0,2,,,,,,,,,,,,,,,0,,,67,25
472560,note_on,240,0,2,,,,,,,,,,,,,,,0,,,55,0
472680,note_on,120,0,2,,,,,,,,,,,,,,,0,,,67,0
472680,note_on,120,0,1,,,,,,,,,,,,,,,0,,,72,0
472800,note_on,0,0,2,,,,,,,,,,,,,,,0,,,63,31
472800,note_on,120,0,2,,,,,,,,,,,,,,,0,,,60,26
472920,note_on,0,0,2,,,,,,,,,,,,,,,0,,,60,0
472920,note_on,120,0,2,,,,,,,,,,,,,,,0,,,63,0
473040,note_on,360,0,1,,,,,,,,,,,,,,,0,,,75,46
473040,set_tempo,720,1,0,,,,,,,,,,,,449068,,,,,,,
473040,note_on,120,0,2,,,,,,,,,,,,,,,0,,,67,28
473280,note_on,240,0,2,,,,,,,,,,,,,,,0,,,67,0
473280,set_tempo,240,1,0,,,,,,,,,,,,436364,,,,,,,
473280,note_on,0,0,1,,,,,,,,,,,,,,,0,,,72,56
473280,note_on,0,0,2,,,,,,,,,,,,,,,0,,,55,37
473280,note_on,240,0,1,,,,,,,,,,,,,,,0,,,75,0
473520,note_on,240,0,1,,,,,,,,,,,,,,,0,,,72,0
473520,note_on,0,0,2,,,,,,,,,,,,,,,0,,,67,28
473520,note_on,0,0,1,,,,,,,,,,,,,,,0,,,71,33
473520,note_on,240,0,2,,,,,,,,,,,,,,,0,,,55,0
473640,note_on,120,0,2,,,,,,,,,,,,,,,0,,,67,0
473640,note_on,120,0,1,,,,,,,,,,,,,,,0,,,71,0
473760,note_on,0,0,2,,,,,,,,,,,,,,,0,,,62,23
473760,note_on,120,0,2,,,,,,,,,,,,,,,0,,,65,28
473760,note_on,120,0,1,,,,,,,,,,,,,,,0,,,71,38
473760,set_tempo,480,1,0,,,,,,,,,,,,442804,,,,,,,
473880,note_on,0,0,2,,,,,,,,,,,,,,,0,,,65,0
473880,note_on,120,0,2,,,,,,,,,,,,,,,0,,,62,0
473880,note_on,120,0,1,,,,,,,,,,,,,,,0,,,71,0
474000,note_on,120,0,2,,,,,,,,,,,,,,,0,,,67,26
474000,note_on,120,0,1,,,,,,,,,,,,,,,0,,,71,33
474000,set_tempo,240,1,0,,,,,,,,,,,,452830,,,,,,,
474120,note_on,120,0,1,,,,,,,,,,,,,,,0,,,71,0
474120,note_on,120,0,2,,,,,,,,,,,,,,,0,,,67,0
474240,note_on,120,0,2,,,,,,,,,,,,,,,0,,,55,38
474240,set_tempo,240,1,0,,,,,,,,,,,,444444,,,,,,,
474240,note_on,120,0,1,,,,,,,,,,,,,,,0,,,71,51
474480,note_on,0,0,1,,,,,,,,,,,,,,,0,,,72,42
474480,note_on,0,0,2,,,,,,,,,,,,,,,0,,,67,28
474480,note_on,240,0,2,,,,,,,,,,,,,,,0,,,55,0
474480,note_on,240,0,1,,,,,,,,,,,,,,,0,,,71,0
474480,set_tempo,240,1,0,,,,,,,,,,,,459770,,,,,,,
474600,note_on,120,0,2,,,,,,,,,,,,,,,0,,,67,0
474600,note_on,120,0,1,,,,,,,,,,,,,,,0,,,72,0
474720,note_on,120,0,2,,,,,,,,,,,,,,,0,,,60,26
474720,note_on,0,0,2,,,,,,,,,,,,,,,0,,,63,31
474720,set_tempo,240,1,0,,,,,,,,,,,,474308,,,,,,,
474840,note_on,0,0,2,,,,,,,,,,,,,,,0,,,60,0
474840,note_on,120,0,2,,,,,,,,,,,,,,,0,,,63,0
474960,note_on,120,0,2,,,,,,,,,,,,,,,0,,,67,31
474960,set_tempo,240,1,0,,,,,,,,,,,,594059,,,,,,,
475080,note_on,120,0,2,,,,,,,,,,,,,,,0,,,67,0
475200,set_tempo,240,1,0,,,,,,,,,,,,446097,,,,,,,
475200,note_on,0,0,2,,,,,,,,,,,,,,,0,,,54,55
475200,note_on,120,0,2,,,,,,,,,,,,,,,0,,,66,67
475680,set_tempo,480,1,0,,,,,,,,,,,,442804,,,,,,,
476880,note_on,2280,0,1,,,,,,,,,,,,,,,0,,,75,47
476880,set_tempo,1200,1,0,,,,,,,,,,,,478088,,,,,,,
477120,note_on,0,0,2,,,,,,,,,,,,,,,0,,,66,0
477120,note_on,240,0,1,,,,,,,,,,,,,,,0,,,75,0
477120,note_on,0,0,1,,,,,,,,,,,,,,,0,,,72,56
477120,set_tempo,240,1,0,,,,,,,,,,,,442804,,,,,,,
477120,note_on,1920,0,2,,,,,,,,,,,,,,,0,,,54,0
477120,note_on,0,0,2,,,,,,,,,,,,,,,0,,,54,37
477360,note_on,240,0,2,,,,,,,,,,,,,,,0,,,54,0
477360,note_on,240,0,1,,,,,,,,,,,,,,,0,,,72,0
477360,note_on,0,0,1,,,,,,,,,,,,,,,0,,,71,32
477360,note_on,0,0,2,,,,,,,,,,,,,,,0,,,66,27
477480,note_on,120,0,1,,,,,,,,,,,,,,,0,,,71,0
477480,note_on,120,0,2,,,,,,,,,,,,,,,0,,,66,0
477600,note_on,0,0,2,,,,,,,,,,,,,,,0,,,56,22
477600,note_on,120,0,1,,,,,,,,,,,,,,,0,,,71,37
477600,note_on,120,0,2,,,,,,,,,,,,,,,0,,,63,27
477600,set_tempo,480,1,0,,,,,,,,,,,,438725,,,,,,,
477720,note_on,120,0,2,,,,,,,,,,,,,,,0,,,56,0
477720,note_on,120,0,1,,,,,,,,,,,,,,,0,,,71,0
477720,note_on,0,0,2,,,,,,,,,,,,,,,0,,,63,0
477840,note_on,120,0,1,,,,,,,,,,,,,,,0,,,71,33
477840,note_on,120,0,2,,,,,,,,,,,,,,,0,,,66,28
477840,set_tempo,240,1,0,,,,,,,,,,,,447761,,,,,,,
477960,note_on,120,0,1,,,,,,,,,,,,,,,0,,,71,0
477960,note_on,120,0,2,,,,,,,,,,,,,,,0,,,66,0
478080,note_on,120,0,1,,,,,,,,,,,,,,,0,,,71,47
478080,note_on,120,0,2,,,,,,,,,,,,,,,0,,,54,37
478080,set_tempo,240,1,0,,,,,,,,,,,,438725,,,,,,,
478320,note_on,240,0,2,,,,,,,,,,,,,,,0,,,54,0
478320,note_on,0,0,2,,,,,,,,,,,,,,,0,,,66,24
478320,note_on,0,0,1,,,,,,,,,,,,,,,0,,,72,34
478320,note_on,240,0,1,,,,,,,,,,,,,,,0,,,71,0
478440,note_on,120,0,2,,,,,,,,,,,,,,,0,,,66,0
478440,note_on,120,0,1,,,,,,,,,,,,,,,0,,,72,0
478560,note_on,120,0,2,,,,,,,,,,,,,,,0,,,57,24
478560,note_on,0,0,2,,,,,,,,,,,,,,,0,,,63,29
478680,note_on,0,0,2,,,,,,,,,,,,,,,0,,,57,0
478680,note_on,120,0,2,,,,,,,,,,,,,,,0,,,63,0
478800,note_on,360,0,1,,,,,,,,,,,,,,,0,,,75,44
478800,note_on,120,0,2,,,,,,,,,,,,,,,0,,,66,27
478800,set_tempo,720,1,0,,,,,,,,,,,,449068,,,,,,,
479040,note_on,0,0,1,,,,,,,,,,,,,,,0,,,72,53
479040,set_tempo,240,1,0,,,,,,,,,,,,437956,,,,,,,
479040,note_on,240,0,1,,,,,,,,,,,,,,,0,,,75,0
479040,note_on,0,0,2,,,,,,,,,,,,,,,0,,,54,35
479040,note_on,240,0,2,,,,,,,,,,,,,,,0,,,66,0
479280,note_on,0,0,1,,,,,,,,,,,,,,,0,,,71,31
479280,note_on,240,0,1,,,,,,,,,,,,,,,0,,,72,0
479280,note_on,0,0,2,,,,,,,,,,,,,,,0,,,66,26
479280,note_on,240,0,2,,,,,,,,,,,,,,,0,,,54,0
479400,note_on,120,0,1,,,,,,,,,,,,,,,0,,,71,0
479400,note_on,120,0,2,,,,,,,,,,,,,,,0,,,66,0
479520,set_tempo,480,1,0,,,,,,,,,,,,444444,,,,,,,
479520,note_on,120,0,1,,,,,,,,,,,,,,,0,,,71,36
479520,note_on,120,0,2,,,,,,,,,,,,,,,0,,,63,25
479520,note_on,0,0,2,,,,,,,,,,,,,,,0,,,56,21
479640,note_on,0,0,2,,,,,,,,,,,,,,,0,,,63,0
479640,note_on,120,0,1,,,,,,,,,,,,,,,0,,,71,0
479640,note_on,120,0,2,,,,,,,,,,,,,,,0,,,56,0
479760,note_on,120,0,2,,,,,,,,,,,,,,,0,,,66,24
479760,set_tempo,240,1,0,,,,,,,,,,,,463320,,,,,,,
479760,note_on,120,0,1,,,,,,,,,,,,,,,0,,,71,30
479880,note_on,120,0,1,,,,,,,,,,,,,,,0,,,71,0
479880,note_on,120,0,2,,,,,,,,,,,,,,,0,,,66,0
480000,set_tempo,240,1,0,,,,,,,,,,,,446097,,,,,,,
480000,note_on,120,0,2,,,,,,,,,,,,,,,0,,,54,36
480000,note_on,120,0,1,,,,,,,,,,,,,,,0,,,71,47
480240,note_on,0,0,2,,,,,,,,,,,,,,,0,,,66,26
480240,note_on,240,0,2,,,,,,,,,,,,,,,0,,,54,0
480240,note_on,240,0,1,,,,,,,,,,,,,,,0,,,71,0
480240,note_on,0,0,1,,,,,,,,,,,,,,,0,,,72,37
480240,set_tempo,240,1,0,,,,,,,,,,,,465116,,,,,,,
480360,note_on,120,0,1,,,,,,,,,,,,,,,0,,,72,0
480360,note_on,120,0,2,,,,,,,,,,,,,,,0,,,66,0
480480,set_tempo,240,1,0,,,,,,,,,,,,480000,,,,,,,
480480,note_on,120,0,2,,,,,,,,,,,,,,,0,,,57,23
480480,note_on,0,0,2,,,,,,,,,,,,,,,0,,,63,28
480600,note_on,120,0,2,,,,,,,,,,,,,,,0,,,63,0
480600,note_on,0,0,2,,,,,,,,,,,,,,,0,,,57,0
480720,note_on,120,0,2,,,,,,,,,,,,,,,0,,,66,28
480720,set_tempo,240,1,0,,,,,,,,,,,,576923,,,,,,,
480840,note_on,120,0,2,,,,,,,,,,,,,,,0,,,66,0
480960,set_tempo,240,1,0,,,,,,,,,,,,446097,,,,,,,
480960,note_on,0,0,2,,,,,,,,,,,,,,,0,,,53,50
480960,note_on,120,0,2,,,,,,,,,,,,,,,0,,,65,59
481440,set_tempo,480,1,0,,,,,,,,,,,,437956,,,,,,,
482640,note_on,2280,0,1,,,,,,,,,,,,,,,0,,,75,44
482640,set_tempo,1200,1,0,,,,,,,,,,,,452625,,,,,,,
482880,set_tempo,240,1,0,,,,,,,,,,,,434783,,,,,,,
482880,note_on,240,0,1,,,,,,,,,,,,,,,0,,,75,0
482880,note_on,0,0,1,,,,,,,,,,,,,,,0,,,72,53
482880,note_on,0,0,2,,,,,,,,,,,,,,,0,,,53,35
482880,note_on,0,0,2,,,,,,,,,,,,,,,0,,,65,0
482880,note_on,1920,0,2,,,,,,,,,,,,,,,0,,,53,0
483120,note_on,0,0,2,,,,,,,,,,,,,,,0,,,65,29
483120,note_on,240,0,2,,,,,,,,,,,,,,,0,,,53,0
483120,note_on,240,0,1,,,,,,,,,,,,,,,0,,,72,0
483120,note_on,0,0,1,,,,,,,,,,,,,,,0,,,71,35
483240,note_on,120,0,1,,,,,,,,,,,,,,,0,,,71,0
483240,note_on,120,0,2,,,,,,,,,,,,,,,0,,,65,0
483360,note_on,120,0,1,,,,,,,,,,,,,,,0,,,71,40
483360,note_on,120,0,2,,,,,,,,,,,,,,,0,,,62,29
483360,note_on,0,0,2,,,,,,,,,,,,,,,0,,,56,24
483360,set_tempo,480,1,0,,,,,,,,,,,,438725,,,,,,,
483480,note_on,120,0,1,,,,,,,,,,,,,,,0,,,71,0
483480,note_on,0,0,2,,,,,,,,,,,,,,,0,,,62,0
483480,note_on,120,0,2,,,,,,,,,,,,,,,0,,,56,0
483600,note_on,120,0,1,,,,,,,,,,,,,,,0,,,71,35
483600,note_on,120,0,2,,,,,,,,,,,,,,,0,,,65,30
483600,set_tempo,240,1,0,,,,,,,,,,,,447761,,,,,,,
483720,note_on,120,0,1,,,,,,,,,,,,,,,0,,,71,0
483720,note_on,120,0,2,,,,,,,,,,,,,,,0,,,65,0
483840,note_on,120,0,1,,,,,,,,,,,,,,,0,,,71,47
483840,note_on,120,0,2,,,,,,,,,,,,,,,0,,,53,36
483840,set_tempo,240,1,0,,,,,,,,,,,,438725,,,,,,,
484080,note_on,0,0,2,,,,,,,,,,,,,,,0,,,65,23
484080,note_on,0,0,1,,,,,,,,,,,,,,,0,,,72,34
484080,note_on,240,0,1,,,,,,,,,,,,,,,0,,,71,0
484080,note_on,240,0,2,,,,,,,,,,,,,,,0,,,53,0
484200,note_on,120,0,2,,,,,,,,,,,,,,,0,,,65,0
484200,note_on,120,0,1,,,,,,,,,,,,,,,0,,,72,0
484320,note_on,120,0,2,,,,,,,,,,,,,,,0,,,57,24
484320,note_on,0,0,2,,,,,,,,,,,,,,,0,,,63,29
484440,note_on,120,0,2,,,,,,,,,,,,,,,0,,,63,0
484440,note_on,0,0,2,,,,,,,,,,,,,,,0,,,57,0
484560,set_tempo,720,1,0,,,,,,,,,,,,449068,,,,,,,
484560,note_on,120,0,2,,,,,,,,,,,,,,,0,,,65,27
484560,note_on,360,0,1,,,,,,,,,,,,,,,0,,,75,43
484800,note_on,240,0,2,,,,,,,,,,,,,,,0,,,65,0
484800,note_on,0,0,1,,,,,,,,,,,,,,,0,,,72,53
484800,note_on,240,0,1,,,,,,,,,,,,,,,0,,,75,0
484800,note_on,0,0,2,,,,,,,,,,,,,,,0,,,53,35
484800,set_tempo,240,1,0,,,,,,,,,,,,434783,,,,,,,
485040,note_on,0,0,2,,,,,,,,,,,,,,,0,,,65,29
485040,note_on,240,0,2,,,,,,,,,,,,,,,0,,,53,0
485040,note_on,240,0,1,,,,,,,,,,,,,,,0,,,72,0
485040,note_on,0,0,1,,,,,,,,,,,,,,,0,,,71,35
485160,note_on,120,0,2,,,,,,,,,,,,,,,0,,,65,0
485160,note_on,120,0,1,,,,,,,,,,,,,,,0,,,71,0
485280,note_on,0,0,2,,,,,,,,,,,,,,,0,,,56,24
485280,set_tempo,480,1,0,,,,,,,,,,,,437031,,,,,,,
485280,note_on,120,0,1,,,,,,,,,,,,,,,0,,,71,40
485280,note_on,120,0,2,,,,,,,,,,,,,,,0,,,62,29
485400,note_on,120,0,2,,,,,,,,,,,,,,,0,,,56,0
485400,note_on,120,0,1,,,,,,,,,,,,,,,0,,,71,0
485400,note_on,0,0,2,,,,,,,,,,,,,,,0,,,62,0
485520,set_tempo,240,1,0,,,,,,,,,,,,449068,,,,,,,
485520,note_on,120,0,2,,,,,,,,,,,,,,,0,,,65,28
485520,note_on,120,0,1,,,,,,,,,,,,,,,0,,,71,35
485640,note_on,120,0,2,,,,,,,,,,,,,,,0,,,65,0
485640,note_on,120,0,1,,,,,,,,,,,,,,,0,,,71,0
485760,set_tempo,240,1,0,,,,,,,,,,,,438725,,,,,,,
485760,note_on,120,0,2,,,,,,,,,,,,,,,0,,,53,36
485760,note_on,120,0,1,,,,,,,,,,,,,,,0,,,71,48
486000,set_tempo,240,1,0,,,,,,,,,,,,466926,,,,,,,
486000,note_on,0,0,2,,,,,,,,,,,,,,,0,,,65,27
486000,note_on,240,0,2,,,,,,,,,,,,,,,0,,,53,0
486000,note_on,240,0,1,,,,,,,,,,,,,,,0,,,71,0
486000,note_on,0,0,1,,,,,,,,,,,,,,,0,,,72,39
486120,note_on,120,0,2,,,,,,,,,,,,,,,0,,,65,0
486120,note_on,120,0,1,,,,,,,,,,,,,,,0,,,72,0
486240,note_on,120,0,1,,,,,,,,,,,,,,,0,,,72,54
486240,control_change,120,0,2,,,,,,,,,,,,,,,0,64,127,,
486240,note_on,0,0,2,,,,,,,,,,,,,,,0,,,57,29
486240,note_on,0,0,2,,,,,,,,,,,,,,,0,,,63,35
486240,set_tempo,240,1,0,,,,,,,,,,,,437956,,,,,,,
486480,set_tempo,240,1,0,,,,,,,,,,,,447327,,,,,,,
486480,note_on,240,0,1,,,,,,,,,,,,,,,0,,,72,0
486480,note_on,0,0,1,,,,,,,,,,,,,,,0,,,79,48
486480,note_on,240,0,2,,,,,,,,,,,,,,,0,,,63,0
486480,note_on,0,0,2,,,,,,,,,,,,,,,0,,,57,0
486480,note_on,0,0,2,,,,,,,,,,,,,,,0,,,65,35
486720,note_on,240,0,1,,,,,,,,,,,,,,,0,,,79,0
486720,note_on,0,0,1,,,,,,,,,,,,,,,0,,,79,59
486720,note_on,0,0,2,,,,,,,,,,,,,,,0,,,53,44
486720,set_tempo,240,1,0,,,,,,,,,,,,430108,,,,,,,
486720,note_on,240,0,2,,,,,,,,,,,,,,,0,,,65,0
486720,control_change,0,0,2,,,,,,,,,,,,,,,0,64,0,,
486833,control_change,113,0,2,,,,,,,,,,,,,,,0,64,127,,
486960,note_on,240,0,1,,,,,,,,,,,,,,,0,,,79,0
486960,note_on,0,0,1,,,,,,,,,,,,,,,0,,,77,51
486960,set_tempo,240,1,0,,,,,,,,,,,,439560,,,,,,,
486960,note_on,0,0,2,,,,,,,,,,,,,,,0,,,65,33
486960,note_on,127,0,2,,,,,,,,,,,,,,,0,,,53,0
487200,note_on,0,0,1,,,,,,,,,,,,,,,0,,,77,55
487200,note_on,240,0,1,,,,,,,,,,,,,,,0,,,77,0
487200,note_on,0,0,2,,,,,,,,,,,,,,,0,,,58,35
487200,note_on,0,0,2,,,,,,,,,,,,,,,0,,,62,35
487200,note_on,240,0,2,,,,,,,,,,,,,,,0,,,65,0
487200,set_tempo,240,1,0,,,,,,,,,,,,442804,,,,,,,
487440,note_on,0,0,1,,,,,,,,,,,,,,,0,,,74,52
487440,note_on,0,0,2,,,,,,,,,,,,,,,0,,,65,33
487440,note_on,0,0,2,,,,,,,,,,,,,,,0,,,62,0
487440,note_on,240,0,2,,,,,,,,,,,,,,,0,,,58,0
487440,note_on,240,0,1,,,,,,,,,,,,,,,0,,,77,0
487680,note_on,240,0,1,,,,,,,,,,,,,,,0,,,74,0
487680,note_on,0,0,2,,,,,,,,,,,,,,,0,,,53,37
487680,control_change,0,0,2,,,,,,,,,,,,,,,0,64,0,,
487680,note_on,240,0,2,,,,,,,,,,,,,,,0,,,65,0
487680,note_on,0,0,1,,,,,,,,,,,,,,,0,,,71,57
487736,control_change,56,0,2,,,,,,,,,,,,,,,0,64,127,,
487920,note_on,184,0,2,,,,,,,,,,,,,,,0,,,53,0
487920,note_on,240,0,1,,,,,,,,,,,,,,,0,,,71,0
487920,note_on,0,0,1,,,,,,,,,,,,,,,0,,,72,47
487920,note_on,0,0,2,,,,,,,,,,,,,,,0,,,65,33
488033,control_change,113,0,2,,,,,,,,,,,,,,,0,64,0,,
488040,note_on,7,0,2,,,,,,,,,,,,,,,0,,,65,0
488040,note_on,120,0,1,,,,,,,,,,,,,,,0,,,72,0
488160,note_on,120,0,1,,,,,,,,,,,,,,,0,,,72,57
488160,note_on,0,0,2,,,,,,,,,,,,,,,0,,,63,35
488160,note_on,0,0,2,,,,,,,,,,,,,,,0,,,57,29
488160,control_change,120,0,2,,,,,,,,,,,,,,,0,64,127,,
488400,note_on,0,0,2,,,,,,,,,,,,,,,0,,,65,35
488400,note_on,240,0,1,,,,,,,,,,,,,,,0,,,72,0
488400,set_tempo,1200,1,0,,,,,,,,,,,,447327,,,,,,,
488400,note_on,0,0,1,,,,,,,,,,,,,,,0,,,79,50
488400,note_on,0,0,2,,,,,,,,,,,,,,,0,,,57,0
488400,note_on,240,0,2,,,,,,,,,,,,,,,0,,,63,0
488640,control_change,0,0,2,,,,,,,,,,,,,,,0,64,0,,
488640,note_on,0,0,2,,,,,,,,,,,,,,,0,,,53,44
488640,note_on,240,0,2,,,,,,,,,,,,,,,0,,,65,0
488640,note_on,0,0,1,,,,,,,,,,,,,,,0,,,79,64
488640,note_on,240,0,1,,,,,,,,,,,,,,,0,,,79,0
488640,set_tempo,240,1,0,,,,,,,,,,,,430108,,,,,,,
488753,control_change,113,0,2,,,,,,,,,,,,,,,0,64,127,,
488880,note_on,0,0,2,,,,,,,,,,,,,,,0,,,65,33
488880,note_on,127,0,2,,,,,,,,,,,,,,,0,,,53,0
488880,set_tempo,240,1,0,,,,,,,,,,,,439560,,,,,,,
488880,note_on,240,0,1,,,,,,,,,,,,,,,0,,,79,0
488880,note_on,0,0,1,,,,,,,,,,,,,,,0,,,77,55
489120,set_tempo,240,1,0,,,,,,,,,,,,442804,,,,,,,
489120,note_on,0,0,2,,,,,,,,,,,,,,,0,,,58,35
489120,note_on,240,0,2,,,,,,,,,,,,,,,0,,,65,0
489120,note_on,0,0,2,,,,,,,,,,,,,,,0,,,62,35
489120,note_on,0,0,1,,,,,,,,,,,,,,,0,,,77,57
489120,note_on,240,0,1,,,,,,,,,,,,,,,0,,,77,0
489360,note_on,0,0,1,,,,,,,,,,,,,,,0,,,74,52
489360,note_on,240,0,1,,,,,,,,,,,,,,,0,,,77,0
489360,note_on,240,0,2,,,,,,,,,,,,,,,0,,,58,0
489360,note_on,0,0,2,,,,,,,,,,,,,,,0,,,62,0
489360,note_on,0,0,2,,,,,,,,,,,,,,,0,,,65,33
489600,note_on,0,0,1,,,,,,,,,,,,,,,0,,,71,56
489600,note_on,0,0,2,,,,,,,,,,,,,,,0,,,53,37
489600,note_on,240,0,2,,,,,,,,,,,,,,,0,,,65,0
489600,control_change,0,0,2,,,,,,,,,,,,,,,0,64,0,,
489600,note_on,240,0,1,,,,,,,,,,,,,,,0,,,74,0
489656,control_change,56,0,2,,,,,,,,,,,,,,,0,64,127,,
489840,note_on,0,0,2,,,,,,,,,,,,,,,0,,,65,33
489840,note_on,184,0,2,,,,,,,,,,,,,,,0,,,53,0
489840,note_on,240,0,1,,,,,,,,,,,,,,,0,,,71,0
489840,note_on,0,0,1,,,,,,,,,,,,,,,0,,,72,44
490080,note_on,0,0,2,,,,,,,,,,,,,,,0,,,57,33
490080,note_on,0,0,2,,,,,,,,,,,,,,,0,,,63,33
490080,note_on,240,0,2,,,,,,,,,,,,,,,0,,,65,0
490080,note_on,240,0,1,,,,,,,,,,,,,,,0,,,72,0
490080,note_on,0,0,1,,,,,,,,,,,,,,,0,,,75,48
490087,control_change,7,0,2,,,,,,,,,,,,,,,0,64,0,,
490144,control_change,57,0,2,,,,,,,,,,,,,,,0,64,127,,
490320,note_on,240,0,1,,,,,,,,,,,,,,,0,,,75,0
490320,note_on,0,0,1,,,,,,,,,,,,,,,0,,,69,40
490320,note_on,0,0,2,,,,,,,,,,,,,,,0,,,63,0
490320,note_on,176,0,2,,,,,,,,,,,,,,,0,,,57,0
490320,note_on,0,0,2,,,,,,,,,,,,,,,0,,,65,33
490560,note_on,240,0,2,,,,,,,,,,,,,,,0,,,65,0
490560,control_change,0,0,2,,,,,,,,,,,,,,,0,64,0,,
490560,note_on,240,0,1,,,,,,,,,,,,,,,0,,,69,0
491040,set_tempo,1920,1,0,,,,,,,,,,,,432246,,,,,,,
491280,note_on,720,0,2,,,,,,,,,,,,,,,0,,,66,71
491280,note_on,0,0,2,,,,,,,,,,,,,,,0,,,54,59
491280,set_tempo,240,1,0,,,,,,,,,,,,350447,,,,,,,
491280,note_on,0,0,1,,,,,,,,,,,,,,,0,,,74,72
491280,note_on,720,0,1,,,,,,,,,,,,,,,0,,,86,86
491520,note_on,0,0,2,,,,,,,,,,,,,,,0,,,67,76
491520,note_on,0,0,2,,,,,,,,,,,,,,,0,,,66,0
491520,note_on,240,0,1,,,,,,,,,,,,,,,0,,,74,0
491520,set_tempo,240,1,0,,,,,,,,,,,,336059,,,,,,,
491520,note_on,0,0,2,,,,,,,,,,,,,,,0,,,55,64
491520,note_on,0,0,1,,,,,,,,,,,,,,,0,,,84,93
491520,note_on,240,0,2,,,,,,,,,,,,,,,0,,,54,0
491520,note_on,0,0,1,,,,,,,,,,,,,,,0,,,72,77
491520,note_on,0,0,1,,,,,,,,,,,,,,,0,,,86,0
491520,control_change,0,0,2,,,,,,,,,,,,,,,0,64,127,,
491760,note_on,0,0,1,,,,,,,,,,,,,,,0,,,82,86
491760,note_on,0,0,1,,,,,,,,,,,,,,,0,,,70,72
491760,set_tempo,240,1,0,,,,,,,,,,,,344135,,,,,,,
491760,note_on,0,0,1,,,,,,,,,,,,,,,0,,,84,0
491760,note_on,240,0,1,,,,,,,,,,,,,,,0,,,72,0
491880,note_on,120,0,1,,,,,,,,,,,,,,,0,,,70,0
491880,note_on,0,0,1,,,,,,,,,,,,,,,0,,,82,0
491986,control_change,466,0,2,,,,,,,,,,,,,,,0,64,0,,
492000,note_on,0,0,1,,,,,,,,,,,,,,,0,,,70,72
492000,note_on,14,0,2,,,,,,,,,,,,,,,0,,,67,0
492000,note_on,0,0,2,,,,,,,,,,,,,,,0,,,55,0
492000,note_on,0,0,2,,,,,,,,,,,,,,,0,,,50,55
492000,note_on,0,0,2,,,,,,,,,,,,,,,0,,,62,66
492000,note_on,120,0,1,,,,,,,,,,,,,,,0,,,82,86
492120,note_on,0,0,1,,,,,,,,,,,,,,,0,,,82,0
492120,note_on,120,0,1,,,,,,,,,,,,,,,0,,,70,0
492240,note_on,0,0,1,,,,,,,,,,,,,,,0,,,82,86
492240,note_on,120,0,1,,,,,,,,,,,,,,,0,,,70,72
492360,note_on,120,0,1,,,,,,,,,,,,,,,0,,,82,0
492360,note_on,0,0,1,,,,,,,,,,,,,,,0,,,70,0
492480,note_on,0,0,1,,,,,,,,,,,,,,,0,,,79,93
492480,note_on,120,0,1,,,,,,,,,,,,,,,0,,,67,77
492480,note_on,0,0,2,,,,,,,,,,,,,,,0,,,50,0
492480,note_on,480,0,2,,,,,,,,,,,,,,,0,,,62,0
492480,note_on,0,0,2,,,,,,,,,,,,,,,0,,,63,77
492480,set_tempo,720,1,0,,,,,,,,,,,,337041,,,,,,,
492480,note_on,0,0,2,,,,,,,,,,,,,,,0,,,51,65
492536,control_change,56,0,2,,,,,,,,,,,,,,,0,64,127,,
492720,note_on,0,0,1,,,,,,,,,,,,,,,0,,,67,0
492720,set_tempo,240,1,0,,,,,,,,,,,,344135,,,,,,,
492720,note_on,240,0,1,,,,,,,,,,,,,,,0,,,79,0
492720,note_on,0,0,1,,,,,,,,,,,,,,,0,,,65,73
492720,note_on,0,0,1,,,,,,,,,,,,,,,0,,,77,88
492840,note_on,0,0,1,,,,,,,,,,,,,,,0,,,65,0
492840,note_on,120,0,1,,,,,,,,,,,,,,,0,,,77,0
492960,note_on,0,0,1,,,,,,,,,,,,,,,0,,,77,88
492960,note_on,120,0,1,,,,,,,,,,,,,,,0,,,65,73
492960,note_on,0,0,2,,,,,,,,,,,,,,,0,,,57,67
492960,note_on,424,0,2,,,,,,,,,,,,,,,0,,,63,0
492960,note_on,0,0,2,,,,,,,,,,,,,,,0,,,51,0
492960,note_on,0,0,2,,,,,,,,,,,,,,,0,,,45,55
492995,control_change,35,0,2,,,,,,,,,,,,,,,0,64,0,,
493080,note_on,120,0,1,,,,,,,,,,,,,,,0,,,77,0
493080,note_on,0,0,1,,,,,,,,,,,,,,,0,,,65,0
493200,note_on,205,0,2,,,,,,,,,,,,,,,0,,,57,0
493200,note_on,0,0,2,,,,,,,,,,,,,,,0,,,45,55
493200,note_on,0,0,2,,,,,,,,,,,,,,,0,,,45,0
493200,note_on,0,0,1,,,,,,,,,,,,,,,0,,,77,88
493200,note_on,0,0,2,,,,,,,,,,,,,,,0,,,57,67
493200,note_on,120,0,1,,,,,,,,,,,,,,,0,,,65,73
493320,note_on,0,0,1,,,,,,,,,,,,,,,0,,,65,0
493320,note_on,120,0,1,,,,,,,,,,,,,,,0,,,77,0
493440,note_on,0,0,1,,,,,,,,,,,,,,,0,,,75,93
493440,set_tempo,720,1,0,,,,,,,,,,,,338028,,,,,,,
493440,note_on,120,0,1,,,,,,,,,,,,,,,0,,,65,77
493440,note_on,0,0,2,,,,,,,,,,,,,,,0,,,45,0
493440,note_on,240,0,2,,,,,,,,,,,,,,,0,,,57,0
493440,note_on,0,0,2,,,,,,,,,,,,,,,0,,,58,76
493440,note_on,0,0,2,,,,,,,,,,,,,,,0,,,46,64
493461,control_change,21,0,2,,,,,,,,,,,,,,,0,64,127,,
493680,set_tempo,240,1,0,,,,,,,,,,,,344135,,,,,,,
493680,note_on,240,0,1,,,,,,,,,,,,,,,0,,,75,0
493680,note_on,0,0,1,,,,,,,,,,,,,,,0,,,65,0
493680,note_on,0,0,1,,,,,,,,,,,,,,,0,,,62,73
493680,note_on,0,0,1,,,,,,,,,,,,,,,0,,,74,88
493800,note_on,120,0,1,,,,,,,,,,,,,,,0,,,74,0
493800,note_on,0,0,1,,,,,,,,,,,,,,,0,,,62,0
493920,note_on,459,0,2,,,,,,,,,,,,,,,0,,,58,0
493920,note_on,0,0,1,,,,,,,,,,,,,,,0,,,74,88
493920,note_on,0,0,2,,,,,,,,,,,,,,,0,,,42,55
493920,note_on,0,0,2,,,,,,,,,,,,,,,0,,,46,0
493920,note_on,0,0,2,,,,,,,,,,,,,,,0,,,54,67
493920,note_on,120,0,1,,,,,,,,,,,,,,,0,,,62,73
493941,control_change,21,0,2,,,,,,,,,,,,,,,0,64,0,,
494040,note_on,120,0,1,,,,,,,,,,,,,,,0,,,74,0
494040,note_on,0,0,1,,,,,,,,,,,,,,,0,,,62,0
494160,note_on,120,0,1,,,,,,,,,,,,,,,0,,,62,73
494160,note_on,0,0,1,,,,,,,,,,,,,,,0,,,74,88
494280,note_on,0,0,1,,,,,,,,,,,,,,,0,,,62,0
494280,note_on,120,0,1,,,,,,,,,,,,,,,0,,,74,0
494400,set_tempo,720,1,0,,,,,,,,,,,,335064,,,,,,,
494400,note_on,120,0,1,,,,,,,,,,,,,,,0,,,60,77
494400,note_on,0,0,2,,,,,,,,,,,,,,,0,,,55,76
494400,note_on,0,0,2,,,,,,,,,,,,,,,0,,,43,64
494400,note_on,0,0,2,,,,,,,,,,,,,,,0,,,42,0
494400,note_on,459,0,2,,,,,,,,,,,,,,,0,,,54,0
494400,note_on,0,0,1,,,,,,,,,,,,,,,0,,,72,92
494435,control_change,35,0,2,,,,,,,,,,,,,,,0,64,127,,
494640,note_on,0,0,1,,,,,,,,,,,,,,,0,,,60,0
494640,note_on,240,0,1,,,,,,,,,,,,,,,0,,,72,0
494640,note_on,0,0,1,,,,,,,,,,,,,,,0,,,70,88
494640,set_tempo,240,1,0,,,,,,,,,,,,343092,,,,,,,
494640,note_on,0,0,1,,,,,,,,,,,,,,,0,,,58,73
494760,note_on,120,0,1,,,,,,,,,,,,,,,0,,,70,0
494760,note_on,0,0,1,,,,,,,,,,,,,,,0,,,58,0
494873,control_change,438,0,2,,,,,,,,,,,,,,,0,64,0,,
494880,note_on,0,0,2,,,,,,,,,,,,,,,0,,,43,0
494880,note_on,120,0,1,,,,,,,,,,,,,,,0,,,58,73
494880,note_on,0,0,1,,,,,,,,,,,,,,,0,,,70,88
494880,note_on,7,0,2,,,,,,,,,,,,,,,0,,,55,0
494880,note_on,0,0,2,,,,,,,,,,,,,,,0,,,38,55
494880,note_on,0,0,2,,,,,,,,,,,,,,,0,,,50,67
495000,note_on,0,0,1,,,,,,,,,,,,,,,0,,,58,0
495000,note_on,120,0,1,,,,,,,,,,,,,,,0,,,70,0
495120,note_on,0,0,2,,,,,,,,,,,,,,,0,,,38,55
495120,note_on,0,0,2,,,,,,,,,,,,,,,0,,,50,67
495120,note_on,120,0,1,,,,,,,,,,,,,,,0,,,58,73
495120,note_on,0,0,1,,,,,,,,,,,,,,,0,,,70,88
495120,note_on,0,0,2,,,,,,,,,,,,,,,0,,,38,0
495120,note_on,240,0,2,,,,,,,,,,,,,,,0,,,50,0
495240,note_on,0,0,1,,,,,,,,,,,,,,,0,,,58,0
495240,note_on,120,0,1,,,,,,,,,,,,,,,0,,,70,0
495360,note_on,0,0,2,,,,,,,,,,,,,,,0,,,51,76
495360,note_on,0,0,1,,,,,,,,,,,,,,,0,,,69,92
495360,note_on,0,0,2,,,,,,,,,,,,,,,0,,,39,64
495360,note_on,240,0,2,,,,,,,,,,,,,,,0,,,50,0
495360,note_on,0,0,2,,,,,,,,,,,,,,,0,,,38,0
495360,set_tempo,720,1,0,,,,,,,,,,,,335064,,,,,,,
495360,note_on,120,0,1,,,,,,,,,,,,,,,0,,,57,77
495431,control_change,71,0,2,,,,,,,,,,,,,,,0,64,127,,
495600,note_on,0,0,1,,,,,,,,,,,,,,,0,,,67,88
495600,note_on,0,0,1,,,,,,,,,,,,,,,0,,,55,73
495600,note_on,0,0,1,,,,,,,,,,,,,,,0,,,57,0
495600,set_tempo,240,1,0,,,,,,,,,,,,344135,,,,,,,
495600,note_on,240,0,1,,,,,,,,,,,,,,,0,,,69,0
495720,note_on,0,0,1,,,,,,,,,,,,,,,0,,,55,0
495720,note_on,120,0,1,,,,,,,,,,,,,,,0,,,67,0
495840,note_on,409,0,2,,,,,,,,,,,,,,,0,,,51,0
495840,note_on,0,0,2,,,,,,,,,,,,,,,0,,,39,0
495840,note_on,0,0,2,,,,,,,,,,,,,,,0,,,48,67
495840,note_on,120,0,1,,,,,,,,,,,,,,,0,,,55,73
495840,note_on,0,0,1,,,,,,,,,,,,,,,0,,,67,88
495904,control_change,64,0,2,,,,,,,,,,,,,,,0,64,0,,
495960,note_on,120,0,1,,,,,,,,,,,,,,,0,,,67,0
495960,note_on,0,0,1,,,,,,,,,,,,,,,0,,,55,0
496080,note_on,176,0,2,,,,,,,,,,,,,,,0,,,48,0
496080,note_on,120,0,1,,,,,,,,,,,,,,,0,,,55,73
496080,note_on,0,0,1,,,,,,,,,,,,,,,0,,,67,88
496080,note_on,0,0,2,,,,,,,,,,,,,,,0,,,50,67
496200,note_on,120,0,1,,,,,,,,,,,,,,,0,,,67,0
496200,note_on,0,0,1,,,,,,,,,,,,,,,0,,,55,0
496320,note_on,240,0,2,,,,,,,,,,,,,,,0,,,50,0
496320,set_tempo,720,1,0,,,,,,,,,,,,335064,,,,,,,
496320,note_on,0,0,2,,,,,,,,,,,,,,,0,,,39,64
496320,note_on,0,0,2,,,,,,,,,,,,,,,0,,,51,76
496320,note_on,120,0,1,,,,,,,,,,,,,,,0,,,69,77
496320,note_on,0,0,1,,,,,,,,,,,,,,,0,,,81,92
496391,control_change,71,0,2,,,,,,,,,,,,,,,0,64,127,,
496560,note_on,0,0,1,,,,,,,,,,,,,,,0,,,79,88
496560,note_on,0,0,1,,,,,,,,,,,,,,,0,,,67,73
496560,note_on,0,0,1,,,,,,,,,,,,,,,0,,,69,0
496560,note_on,240,0,1,,,,,,,,,,,,,,,0,,,81,0
496560,set_tempo,240,1,0,,,,,,,,,,,,344135,,,,,,,
496680,note_on,120,0,1,,,,,,,,,,,,,,,0,,,79,0
496680,note_on,0,0,1,,,,,,,,,,,,,,,0,,,67,0
496800,note_on,0,0,1,,,,,,,,,,,,,,,0,,,79,88
496800,note_on,409,0,2,,,,,,,,,,,,,,,0,,,51,0
496800,note_on,0,0,2,,,,,,,,,,,,,,,0,,,39,0
496800,note_on,0,0,2,,,,,,,,,,,,,,,0,,,48,67
496800,note_on,120,0,1,,,,,,,,,,,,,,,0,,,67,73
496864,control_change,64,0,2,,,,,,,,,,,,,,,0,64,0,,
496920,note_on,120,0,1,,,,,,,,,,,,,,,0,,,79,0
496920,note_on,0,0,1,,,,,,,,,,,,,,,0,,,67,0
497040,note_on,0,0,2,,,,,,,,,,,,,,,0,,,50,67
497040,note_on,0,0,1,,,,,,,,,,,,,,,0,,,79,88
497040,note_on,176,0,2,,,,,,,,,,,,,,,0,,,48,0
497040,note_on,120,0,1,,,,,,,,,,,,,,,0,,,67,73
497160,note_on,120,0,1,,,,,,,,,,,,,,,0,,,79,0
497160,note_on,0,0,1,,,,,,,,,,,,,,,0,,,67,0
497280,note_on,120,0,1,,,,,,,,,,,,,,,0,,,81,77
497280,note_on,0,0,1,,,,,,,,,,,,,,,0,,,93,92
497280,note_on,0,0,2,,,,,,,,,,,,,,,0,,,39,64
497280,note_on,240,0,2,,,,,,,,,,,,,,,0,,,50,0
497280,note_on,0,0,2,,,,,,,,,,,,,,,0,,,51,76
497280,set_tempo,720,1,0,,,,,,,,,,,,335064,,,,,,,
497351,control_change,71,0,2,,,,,,,,,,,,,,,0,64,127,,
497520,set_tempo,240,1,0,,,,,,,,,,,,344135,,,,,,,
497520,note_on,0,0,1,,,,,,,,,,,,,,,0,,,79,73
497520,note_on,0,0,1,,,,,,,,,,,,,,,0,,,91,88
497520,note_on,0,0,1,,,,,,,,,,,,,,,0,,,81,0
497520,note_on,240,0,1,,,,,,,,,,,,,,,0,,,93,0
497640,note_on,0,0,1,,,,,,,,,,,,,,,0,,,79,0
497640,note_on,120,0,1,,,,,,,,,,,,,,,0,,,91,0
497760,note_on,0,0,2,,,,,,,,,,,,,,,0,,,48,67
497760,note_on,0,0,2,,,,,,,,,,,,,,,0,,,39,0
497760,note_on,409,0,2,,,,,,,,,,,,,,,0,,,51,0
497760,note_on,120,0,1,,,,,,,,,,,,,,,0,,,79,73
497760,note_on,0,0,1,,,,,,,,,,,,,,,0,,,91,88
497824,control_change,64,0,2,,,,,,,,,,,,,,,0,64,0,,
497880,note_on,120,0,1,,,,,,,,,,,,,,,0,,,91,0
497880,note_on,0,0,1,,,,,,,,,,,,,,,0,,,79,0
498000,note_on,120,0,1,,,,,,,,,,,,,,,0,,,79,73
498000,note_on,0,0,1,,,,,,,,,,,,,,,0,,,91,88
498000,note_on,176,0,2,,,,,,,,,,,,,,,0,,,48,0
498000,note_on,0,0,2,,,,,,,,,,,,,,,0,,,50,67
498120,note_on,120,0,1,,,,,,,,,,,,,,,0,,,91,0
498120,note_on,0,0,1,,,,,,,,,,,,,,,0,,,79,0
498240,note_on,0,0,2,,,,,,,,,,,,,,,0,,,39,64
498240,note_on,0,0,2,,,,,,,,,,,,,,,0,,,51,76
498240,note_on,240,0,2,,,,,,,,,,,,,,,0,,,50,0
498240,set_tempo,720,1,0,,,,,,,,,,,,335064,,,,,,,
498240,note_on,120,0,1,,,,,,,,,,,,,,,0,,,78,77
498240,note_on,0,0,1,,,,,,,,,,,,,,,0,,,90,92
498311,control_change,71,0,2,,,,,,,,,,,,,,,0,64,127,,
498480,note_on,0,0,2,,,,,,,,,,,,,,,0,,,51,67
498480,set_tempo,240,1,0,,,,,,,,,,,,344135,,,,,,,
498480,note_on,0,0,1,,,,,,,,,,,,,,,0,,,91,88
498480,note_on,0,0,1,,,,,,,,,,,,,,,0,,,79,73
498480,note_on,0,0,1,,,,,,,,,,,,,,,0,,,78,0
498480,note_on,240,0,1,,,,,,,,,,,,,,,0,,,90,0
498480,note_on,0,0,2,,,,,,,,,,,,,,,0,,,39,0
498480,note_on,169,0,2,,,,,,,,,,,,,,,0,,,51,0
498600,note_on,0,0,1,,,,,,,,,,,,,,,0,,,79,0
498600,note_on,120,0,2,,,,,,,,,,,,,,,0,,,51,0
498600,note_on,120,0,1,,,,,,,,,,,,,,,0,,,91,0
498720,note_on,120,0,2,,,,,,,,,,,,,,,0,,,48,67
498720,note_on,120,0,1,,,,,,,,,,,,,,,0,,,79,73
498720,note_on,0,0,1,,,,,,,,,,,,,,,0,,,91,88
498784,control_change,64,0,2,,,,,,,,,,,,,,,0,64,0,,
498840,note_on,0,0,1,,,,,,,,,,,,,,,0,,,79,0
498840,note_on,120,0,1,,,,,,,,,,,,,,,0,,,91,0
498960,set_tempo,480,1,0,,,,,,,,,,,,381971,,,,,,,
498960,note_on,176,0,2,,,,,,,,,,,,,,,0,,,48,0
498960,note_on,0,0,2,,,,,,,,,,,,,,,0,,,50,67
498960,note_on,120,0,1,,,,,,,,,,,,,,,0,,,79,73
498960,note_on,0,0,1,,,,,,,,,,,,,,,0,,,91,88
499080,note_on,120,0,1,,,,,,,,,,,,,,,0,,,91,0
499080,note_on,0,0,1,,,,,,,,,,,,,,,0,,,79,0
499200,note_on,0,0,2,,,,,,,,,,,,,,,0,,,63,82
499200,note_on,0,0,1,,,,,,,,,,,,,,,0,,,91,107
499200,note_on,0,0,2,,,,,,,,,,,,,,,0,,,58,70
499200,note_on,0,0,2,,,,,,,,,,,,,,,0,,,55,70
499200,note_on,0,0,2,,,,,,,,,,,,,,,0,,,51,70
499200,note_on,240,0,2,,,,,,,,,,,,,,,0,,,50,0
499200,note_on,0,0,1,,,,,,,,,,,,,,,0,,,87,90
499200,note_on,0,0,1,,,,,,,,,,,,,,,0,,,82,90
499200,note_on,120,0,1,,,,,,,,,,,,,,,0,,,79,90
499360,control_change,160,0,2,,,,,,,,,,,,,,,0,64,127,,
499680,note_on,0,0,1,,,,,,,,,,,,,,,0,,,87,0
499680,note_on,0,0,2,,,,,,,,,,,,,,,0,,,58,0
499680,note_on,0,0,2,,,,,,,,,,,,,,,0,,,55,0
499680,note_on,0,0,2,,,,,,,,,,,,,,,0,,,51,0
499680,note_on,0,0,1,,,,,,,,,,,,,,,0,,,82,0
499680,note_on,0,0,1,,,,,,,,,,,,,,,0,,,79,0
499680,note_on,480,0,1,,,,,,,,,,,,,,,0,,,91,0
499680,note_on,320,0,2,,,,,,,,,,,,,,,0,,,63,0
499760,control_change,80,0,2,,,,,,,,,,,,,,,0,64,0,,
501120,note_on,0,0,2,,,,,,,,,,,,,,,0,,,48,70
501120,note_on,0,0,1,,,,,,,,,,,,,,,0,,,93,107
501120,note_on,0,0,1,,,,,,,,,,,,,,,0,,,87,90
501120,note_on,1440,0,1,,,,,,,,,,,,,,,0,,,81,90
501120,control_change,1360,0,2,,,,,,,,,,,,,,,0,64,127,,
501120,note_on,0,0,2,,,,,,,,,,,,,,,0,,,41,70
501120,note_on,0,0,2,,,,,,,,,,,,,,,0,,,53,82
501600,note_on,480,0,2,,,,,,,,,,,,,,,0,,,53,0
501600,note_on,0,0,1,,,,,,,,,,,,,,,0,,,81,0
501600,note_on,0,0,2,,,,,,,,,,,,,,,0,,,48,0
501600,note_on,0,0,1,,,,,,,,,,,,,,,0,,,87,0
501600,note_on,0,0,2,,,,,,,,,,,,,,,0,,,41,0
501600,note_on,480,0,1,,,,,,,,,,,,,,,0,,,93,0
501760,control_change,160,0,2,,,,,,,,,,,,,,,0,64,0,,
502080,set_tempo,3120,1,0,,,,,,,,,,,,409277,,,,,,,
503040,note_on,1440,0,1,,,,,,,,,,,,,,,0,,,82,103
503040,note_on,0,0,1,,,,,,,,,,,,,,,0,,,86,103
503040,note_on,0,0,1,,,,,,,,,,,,,,,0,,,94,120
503040,set_tempo,960,1,0,,,,,,,,,,,,378191,,,,,,,
503040,note_on,0,0,2,,,,,,,,,,,,,,,0,,,34,82
503040,control_change,1280,0,2,,,,,,,,,,,,,,,0,64,127,,
503200,note_on,160,0,2,,,,,,,,,,,,,,,0,,,34,0
503200,note_on,0,0,2,,,,,,,,,,,,,,,0,,,41,52
503200,set_tempo,160,1,0,,,,,,,,,,,,363791,,,,,,,
503360,note_on,160,0,2,,,,,,,,,,,,,,,0,,,41,0
503360,note_on,0,0,2,,,,,,,,,,,,,,,0,,,46,52
503520,note_on,0,0,2,,,,,,,,,,,,,,,0,,,34,49
503520,note_on,480,0,1,,,,,,,,,,,,,,,0,,,94,0
503520,note_on,0,0,1,,,,,,,,,,,,,,,0,,,86,0
503520,note_on,0,0,1,,,,,,,,,,,,,,,0,,,82,0
503520,set_tempo,320,1,0,,,,,,,,,,,,358102,,,,,,,
503520,note_on,160,0,2,,,,,,,,,,,,,,,0,,,46,0
503541,control_change,21,0,2,,,,,,,,,,,,,,,0,64,0,,
503605,control_change,64,0,2,,,,,,,,,,,,,,,0,64,127,,
503680,note_on,0,0,2,,,,,,,,,,,,,,,0,,,41,45
503680,note_on,75,0,2,,,,,,,,,,,,,,,0,,,34,0
503760,set_tempo,240,1,0,,,,,,,,,,,,350447,,,,,,,
503760,note_on,0,0,1,,,,,,,,,,,,,,,0,,,75,46
503760,note_on,240,0,1,,,,,,,,,,,,,,,0,,,86,54
503840,note_on,160,0,2,,,,,,,,,,,,,,,0,,,41,0
503840,note_on,0,0,2,,,,,,,,,,,,,,,0,,,46,45
504000,note_on,160,0,2,,,,,,,,,,,,,,,0,,,46,0
504000,control_change,0,0,2,,,,,,,,,,,,,,,0,64,0,,
504000,note_on,0,0,2,,,,,,,,,,,,,,,0,,,34,50
504000,set_tempo,240,1,0,,,,,,,,,,,,336059,,,,,,,
504000,note_on,240,0,1,,,,,,,,,,,,,,,0,,,75,0
504000,note_on,0,0,1,,,,,,,,,,,,,,,0,,,86,0
504000,note_on,0,0,1,,,,,,,,,,,,,,,0,,,84,58
504000,note_on,0,0,1,,,,,,,,,,,,,,,0,,,77,49
504056,control_change,56,0,2,,,,,,,,,,,,,,,0,64,127,,
504160,note_on,104,0,2,,,,,,,,,,,,,,,0,,,34,0
504160,note_on,0,0,2,,,,,,,,,,,,,,,0,,,41,45
504240,set_tempo,240,1,0,,,,,,,,,,,,344135,,,,,,,
504240,note_on,240,0,1,,,,,,,,,,,,,,,0,,,84,0
504240,note_on,0,0,1,,,,,,,,,,,,,,,0,,,82,54
504320,note_on,160,0,2,,,,,,,,,,,,,,,0,,,41,0
504320,note_on,0,0,2,,,,,,,,,,,,,,,0,,,46,45
504360,note_on,120,0,1,,,,,,,,,,,,,,,0,,,82,0
504466,control_change,146,0,2,,,,,,,,,,,,,,,0,64,0,,
504480,note_on,0,0,2,,,,,,,,,,,,,,,0,,,34,49
504480,note_on,14,0,2,,,,,,,,,,,,,,,0,,,46,0
504480,note_on,120,0,1,,,,,,,,,,,,,,,0,,,77,0
504480,note_on,0,0,1,,,,,,,,,,,,,,,0,,,82,54
504480,note_on,0,0,1,,,,,,,,,,,,,,,0,,,74,46
504536,control_change,56,0,2,,,,,,,,,,,,,,,0,64,127,,
504600,note_on,0,0,1,,,,,,,,,,,,,,,0,,,82,0
504600,note_on,120,0,1,,,,,,,,,,,,,,,0,,,74,0
504640,note_on,104,0,2,,,,,,,,,,,,,,,0,,,34,0
504640,note_on,0,0,2,,,,,,,,,,,,,,,0,,,41,45
504720,note_on,120,0,1,,,,,,,,,,,,,,,0,,,74,46
504720,note_on,0,0,1,,,,,,,,,,,,,,,0,,,82,54
504800,note_on,0,0,2,,,,,,,,,,,,,,,0,,,46,45
504800,note_on,160,0,2,,,,,,,,,,,,,,,0,,,41,0
504840,note_on,0,0,1,,,,,,,,,,,,,,,0,,,74,0
504840,note_on,120,0,1,,,,,,,,,,,,,,,0,,,82,0
504960,note_on,0,0,1,,,,,,,,,,,,,,,0,,,79,58
504960,note_on,120,0,1,,,,,,,,,,,,,,,0,,,75,49
504960,note_on,160,0,2,,,,,,,,,,,,,,,0,,,46,0
504960,set_tempo,720,1,0,,,,,,,,,,,,337041,,,,,,,
504960,note_on,0,0,2,,,,,,,,,,,,,,,0,,,34,49
504960,control_change,0,0,2,,,,,,,,,,,,,,,0,64,0,,
505016,control_change,56,0,2,,,,,,,,,,,,,,,0,64,127,,
505120,note_on,104,0,2,,,,,,,,,,,,,,,0,,,34,0
505120,note_on,0,0,2,,,,,,,,,,,,,,,0,,,41,45
505200,note_on,240,0,1,,,,,,,,,,,,,,,0,,,79,0
505200,note_on,0,0,1,,,,,,,,,,,,,,,0,,,77,55
505200,set_tempo,240,1,0,,,,,,,,,,,,344135,,,,,,,
505200,note_on,0,0,1,,,,,,,,,,,,,,,0,,,75,0
505280,note_on,0,0,2,,,,,,,,,,,,,,,0,,,46,45
505280,note_on,160,0,2,,,,,,,,,,,,,,,0,,,41,0
505320,note_on,120,0,1,,,,,,,,,,,,,,,0,,,77,0
505440,note_on,160,0,2,,,,,,,,,,,,,,,0,,,46,0
505440,note_on,120,0,1,,,,,,,,,,,,,,,0,,,69,46
505440,note_on,0,0,2,,,,,,,,,,,,,,,0,,,34,48
505440,note_on,0,0,1,,,,,,,,,,,,,,,0,,,77,55
505496,control_change,56,0,2,,,,,,,,,,,,,,,0,64,0,,
505553,control_change,57,0,2,,,,,,,,,,,,,,,0,64,127,,
505560,note_on,0,0,1,,,,,,,,,,,,,,,0,,,69,0
505560,note_on,120,0,1,,,,,,,,,,,,,,,0,,,77,0
505600,note_on,0,0,2,,,,,,,,,,,,,,,0,,,41,45
505600,note_on,47,0,2,,,,,,,,,,,,,,,0,,,34,0
505680,note_on,0,0,1,,,,,,,,,,,,,,,0,,,77,55
505680,note_on,120,0,1,,,,,,,,,,,,,,,0,,,69,46
505760,note_on,160,0,2,,,,,,,,,,,,,,,0,,,41,0
505760,note_on,0,0,2,,,,,,,,,,,,,,,0,,,46,45
505800,note_on,0,0,1,,,,,,,,,,,,,,,0,,,69,0
505800,note_on,120,0,1,,,,,,,,,,,,,,,0,,,77,0
505920,note_on,160,0,2,,,,,,,,,,,,,,,0,,,46,0
505920,note_on,0,0,2,,,,,,,,,,,,,,,0,,,34,49
505920,set_tempo,720,1,0,,,,,,,,,,,,338028,,,,,,,
505920,note_on,120,0,1,,,,,,,,,,,,,,,0,,,70,49
505920,note_on,0,0,1,,,,,,,,,,,,,,,0,,,75,58
505954,control_change,34,0,2,,,,,,,,,,,,,,,0,64,0,,
505994,control_change,40,0,2,,,,,,,,,,,,,,,0,64,127,,
506080,note_on,0,0,2,,,,,,,,,,,,,,,0,,,41,45
506080,note_on,86,0,2,,,,,,,,,,,,,,,0,,,34,0
506160,note_on,0,0,1,,,,,,,,,,,,,,,0,,,74,55
506160,set_tempo,240,1,0,,,,,,,,,,,,344135,,,,,,,
506160,note_on,240,0,1,,,,,,,,,,,,,,,0,,,75,0
506240,note_on,160,0,2,,,,,,,,,,,,,,,0,,,41,0
506240,note_on,0,0,2,,,,,,,,,,,,,,,0,,,46,45
506280,note_on,120,0,1,,,,,,,,,,,,,,,0,,,74,0
506400,note_on,120,0,1,,,,,,,,,,,,,,,0,,,70,0
506400,note_on,0,0,1,,,,,,,,,,,,,,,0,,,64,46
506400,note_on,0,0,1,,,,,,,,,,,,,,,0,,,74,55
506400,note_on,160,0,2,,,,,,,,,,,,,,,0,,,46,0
506400,note_on,0,0,2,,,,,,,,,,,,,,,0,,,34,49
506440,control_change,40,0,2,,,,,,,,,,,,,,,0,64,0,,
506480,control_change,40,0,2,,,,,,,,,,,,,,,0,64,127,,
506520,note_on,0,0,1,,,,,,,,,,,,,,,0,,,64,0
506520,note_on,120,0,1,,,,,,,,,,,,,,,0,,,74,0
506560,note_on,0,0,2,,,,,,,,,,,,,,,0,,,41,45
506560,note_on,80,0,2,,,,,,,,,,,,,,,0,,,34,0
506640,note_on,120,0,1,,,,,,,,,,,,,,,0,,,64,46
506640,note_on,0,0,1,,,,,,,,,,,,,,,0,,,74,55
506720,note_on,160,0,2,,,,,,,,,,,,,,,0,,,41,0
506720,note_on,0,0,2,,,,,,,,,,,,,,,0,,,46,45
506760,note_on,120,0,1,,,,,,,,,,,,,,,0,,,74,0
506760,note_on,0,0,1,,,,,,,,,,,,,,,0,,,64,0
506880,set_tempo,720,1,0,,,,,,,,,,,,335064,,,,,,,
506880,note_on,120,0,1,,,,,,,,,,,,,,,0,,,65,49
506880,note_on,0,0,1,,,,,,,,,,,,,,,0,,,72,58
506880,note_on,160,0,2,,,,,,,,,,,,,,,0,,,46,0
506880,note_on,0,0,2,,,,,,,,,,,,,,,0,,,34,48
506936,control_change,56,0,2,,,,,,,,,,,,,,,0,64,0,,
506979,control_change,43,0,2,,,,,,,,,,,,,,,0,64,127,,
507040,note_on,0,0,2,,,,,,,,,,,,,,,0,,,41,45
507040,note_on,61,0,2,,,,,,,,,,,,,,,0,,,34,0
507120,note_on,0,0,1,,,,,,,,,,,,,,,0,,,70,55
507120,set_tempo,240,1,0,,,,,,,,,,,,343092,,,,,,,
507120,note_on,240,0,1,,,,,,,,,,,,,,,0,,,72,0
507200,note_on,0,0,2,,,,,,,,,,,,,,,0,,,46,45
507200,note_on,160,0,2,,,,,,,,,,,,,,,0,,,41,0
507240,note_on,120,0,1,,,,,,,,,,,,,,,0,,,70,0
507360,note_on,0,0,2,,,,,,,,,,,,,,,0,,,34,50
507360,note_on,160,0,2,,,,,,,,,,,,,,,0,,,46,0
507360,note_on,120,0,1,,,,,,,,,,,,,,,0,,,65,0
507360,note_on,0,0,1,,,,,,,,,,,,,,,0,,,62,46
507360,note_on,0,0,1,,,,,,,,,,,,,,,0,,,70,55
507395,control_change,35,0,2,,,,,,,,,,,,,,,0,64,0,,
507445,control_change,50,0,2,,,,,,,,,,,,,,,0,64,127,,
507480,note_on,120,0,1,,,,,,,,,,,,,,,0,,,70,0
507480,note_on,0,0,1,,,,,,,,,,,,,,,0,,,62,0
507520,note_on,75,0,2,,,,,,,,,,,,,,,0,,,34,0
507520,note_on,0,0,2,,,,,,,,,,,,,,,0,,,41,45
507600,note_on,120,0,1,,,,,,,,,,,,,,,0,,,62,46
507600,note_on,0,0,1,,,,,,,,,,,,,,,0,,,70,55
507680,note_on,0,0,2,,,,,,,,,,,,,,,0,,,46,45
507680,note_on,160,0,2,,,,,,,,,,,,,,,0,,,41,0
507720,note_on,120,0,1,,,,,,,,,,,,,,,0,,,70,0
507720,note_on,0,0,1,,,,,,,,,,,,,,,0,,,62,0
507840,note_on,0,0,1,,,,,,,,,,,,,,,0,,,67,58
507840,note_on,120,0,1,,,,,,,,,,,,,,,0,,,63,49
507840,set_tempo,720,1,0,,,,,,,,,,,,335064,,,,,,,
507840,note_on,160,0,2,,,,,,,,,,,,,,,0,,,46,0
507840,note_on,0,0,2,,,,,,,,,,,,,,,0,,,34,49
507868,control_change,28,0,2,,,,,,,,,,,,,,,0,64,0,,
507911,control_change,43,0,2,,,,,,,,,,,,,,,0,64,127,,
508000,note_on,0,0,2,,,,,,,,,,,,,,,0,,,41,45
508000,note_on,89,0,2,,,,,,,,,,,,,,,0,,,34,0
508080,note_on,0,0,1,,,,,,,,,,,,,,,0,,,65,55
508080,set_tempo,240,1,0,,,,,,,,,,,,344135,,,,,,,
508080,note_on,240,0,1,,,,,,,,,,,,,,,0,,,67,0
508160,note_on,0,0,2,,,,,,,,,,,,,,,0,,,46,45
508160,note_on,160,0,2,,,,,,,,,,,,,,,0,,,41,0
508200,note_on,120,0,1,,,,,,,,,,,,,,,0,,,65,0
508320,note_on,160,0,2,,,,,,,,,,,,,,,0,,,46,0
508320,note_on,0,0,2,,,,,,,,,,,,,,,0,,,34,50
508320,note_on,120,0,1,,,,,,,,,,,,,,,0,,,63,0
508320,note_on,0,0,1,,,,,,,,,,,,,,,0,,,57,46
508320,note_on,0,0,1,,,,,,,,,,,,,,,0,,,65,56
508355,control_change,35,0,2,,,,,,,,,,,,,,,0,64,0,,
508398,control_change,43,0,2,,,,,,,,,,,,,,,0,64,127,,
508440,note_on,120,0,1,,,,,,,,,,,,,,,0,,,65,0
508440,note_on,0,0,1,,,,,,,,,,,,,,,0,,,57,0
508480,note_on,82,0,2,,,,,,,,,,,,,,,0,,,34,0
508480,note_on,0,0,2,,,,,,,,,,,,,,,0,,,41,46
508560,note_on,120,0,1,,,,,,,,,,,,,,,0,,,57,47
508560,note_on,0,0,1,,,,,,,,,,,,,,,0,,,65,56
508640,note_on,160,0,2,,,,,,,,,,,,,,,0,,,41,0
508640,note_on,0,0,2,,,,,,,,,,,,,,,0,,,46,46
508680,note_on,120,0,1,,,,,,,,,,,,,,,0,,,65,0
508680,note_on,0,0,1,,,,,,,,,,,,,,,0,,,57,0
508800,note_on,160,0,2,,,,,,,,,,,,,,,0,,,46,0
508800,note_on,0,0,2,,,,,,,,,,,,,,,0,,,34,50
508800,note_on,120,0,1,,,,,,,,,,,,,,,0,,,63,50
508800,note_on,0,0,1,,,,,,,,,,,,,,,0,,,67,60
508800,set_tempo,720,1,0,,,,,,,,,,,,335064,,,,,,,
508828,control_change,28,0,2,,,,,,,,,,,,,,,0,64,0,,
508871,control_change,43,0,2,,,,,,,,,,,,,,,0,64,127,,
508960,note_on,0,0,2,,,,,,,,,,,,,,,0,,,41,47
508960,note_on,89,0,2,,,,,,,,,,,,,,,0,,,34,0
509040,set_tempo,240,1,0,,,,,,,,,,,,344135,,,,,,,
509040,note_on,240,0,1,,,,,,,,,,,,,,,0,,,67,0
509040,note_on,0,0,1,,,,,,,,,,,,,,,0,,,65,58
509120,note_on,0,0,2,,,,,,,,,,,,,,,0,,,46,47
509120,note_on,160,0,2,,,,,,,,,,,,,,,0,,,41,0
509160,note_on,120,0,1,,,,,,,,,,,,,,,0,,,65,0
509280,note_on,0,0,1,,,,,,,,,,,,,,,0,,,65,58
509280,note_on,0,0,1,,,,,,,,,,,,,,,0,,,57,49
509280,note_on,120,0,1,,,,,,,,,,,,,,,0,,,63,0
509280,note_on,160,0,2,,,,,,,,,,,,,,,0,,,46,0
509280,note_on,0,0,2,,,,,,,,,,,,,,,0,,,34,53
509308,control_change,28,0,2,,,,,,,,,,,,,,,0,64,0,,
509358,control_change,50,0,2,,,,,,,,,,,,,,,0,64,127,,
509400,note_on,0,0,1,,,,,,,,,,,,,,,0,,,57,0
509400,note_on,120,0,1,,,,,,,,,,,,,,,0,,,65,0
509440,note_on,0,0,2,,,,,,,,,,,,,,,0,,,41,48
509440,note_on,82,0,2,,,,,,,,,,,,,,,0,,,34,0
509520,note_on,120,0,1,,,,,,,,,,,,,,,0,,,57,49
509520,note_on,0,0,1,,,,,,,,,,,,,,,0,,,65,59
509600,note_on,0,0,2,,,,,,,,,,,,,,,0,,,46,48
509600,note_on,160,0,2,,,,,,,,,,,,,,,0,,,41,0
509640,note_on,120,0,1,,,,,,,,,,,,,,,0,,,65,0
509640,note_on,0,0,1,,,,,,,,,,,,,,,0,,,57,0
509760,set_tempo,720,1,0,,,,,,,,,,,,335064,,,,,,,
509760,note_on,0,0,2,,,,,,,,,,,,,,,0,,,34,52
509760,note_on,160,0,2,,,,,,,,,,,,,,,0,,,46,0
509760,note_on,0,0,1,,,,,,,,,,,,,,,0,,,67,63
509760,note_on,120,0,1,,,,,,,,,,,,,,,0,,,63,52
509788,control_change,28,0,2,,,,,,,,,,,,,,,0,64,0,,
509831,control_change,43,0,2,,,,,,,,,,,,,,,0,64,127,,
509920,note_on,89,0,2,,,,,,,,,,,,,,,0,,,34,0
509920,note_on,0,0,2,,,,,,,,,,,,,,,0,,,41,49
510000,set_tempo,240,1,0,,,,,,,,,,,,344135,,,,,,,
510000,note_on,0,0,1,,,,,,,,,,,,,,,0,,,65,60
510000,note_on,240,0,1,,,,,,,,,,,,,,,0,,,67,0
510080,note_on,160,0,2,,,,,,,,,,,,,,,0,,,41,0
510080,note_on,0,0,2,,,,,,,,,,,,,,,0,,,46,49
510120,note_on,120,0,1,,,,,,,,,,,,,,,0,,,65,0
510240,note_on,120,0,1,,,,,,,,,,,,,,,0,,,63,0
510240,note_on,0,0,1,,,,,,,,,,,,,,,0,,,57,51
510240,note_on,0,0,1,,,,,,,,,,,,,,,0,,,65,60
510240,note_on,160,0,2,,,,,,,,,,,,,,,0,,,46,0
510240,note_on,0,0,2,,,,,,,,,,,,,,,0,,,34,55
510268,control_change,28,0,2,,,,,,,,,,,,,,,0,64,0,,
510318,control_change,50,0,2,,,,,,,,,,,,,,,0,64,127,,
510360,note_on,120,0,1,,,,,,,,,,,,,,,0,,,65,0
510360,note_on,0,0,1,,,,,,,,,,,,,,,0,,,57,0
510400,note_on,0,0,2,,,,,,,,,,,,,,,0,,,41,50
510400,note_on,82,0,2,,,,,,,,,,,,,,,0,,,34,0
510480,note_on,120,0,1,,,,,,,,,,,,,,,0,,,65,61
510480,note_on,0,0,1,,,,,,,,,,,,,,,0,,,57,51
510560,note_on,160,0,2,,,,,,,,,,,,,,,0,,,41,0
510560,note_on,0,0,2,,,,,,,,,,,,,,,0,,,46,50
510600,note_on,120,0,1,,,,,,,,,,,,,,,0,,,57,0
510600,note_on,0,0,1,,,,,,,,,,,,,,,0,,,65,0
510720,note_on,0,0,1,,,,,,,,,,,,,,,0,,,67,67
510720,note_on,0,0,2,,,,,,,,,,,,,,,0,,,34,55
510720,control_change,0,0,2,,,,,,,,,,,,,,,0,64,0,,
510720,note_on,0,0,1,,,,,,,,,,,,,,,0,,,63,47
510720,note_on,160,0,2,,,,,,,,,,,,,,,0,,,46,0
510720,note_on,120,0,1,,,,,,,,,,,,,,,0,,,57,47
510748,control_change,28,0,2,,,,,,,,,,,,,,,0,64,0,,
510791,control_change,43,0,2,,,,,,,,,,,,,,,0,64,127,,
510880,note_on,0,0,2,,,,,,,,,,,,,,,0,,,41,51
510880,note_on,89,0,2,,,,,,,,,,,,,,,0,,,34,0
510960,set_tempo,960,1,0,,,,,,,,,,,,344135,,,,,,,
510960,note_on,240,0,1,,,,,,,,,,,,,,,0,,,67,0
510960,note_on,0,0,1,,,,,,,,,,,,,,,0,,,65,63
511040,note_on,160,0,2,,,,,,,,,,,,,,,0,,,41,0
511040,note_on,0,0,2,,,,,,,,,,,,,,,0,,,46,51
511080,note_on,120,0,1,,,,,,,,,,,,,,,0,,,65,0
511200,note_on,120,0,1,,,,,,,,,,,,,,,0,,,63,0
511200,note_on,0,0,1,,,,,,,,,,,,,,,0,,,57,0
511200,note_on,0,0,1,,,,,,,,,,,,,,,0,,,70,71
511200,note_on,160,0,2,,,,,,,,,,,,,,,0,,,46,0
511200,set_tempo,240,1,0,,,,,,,,,,,,333130,,,,,,,
511200,note_on,0,0,1,,,,,,,,,,,,,,,0,,,65,59
511200,note_on,0,0,1,,,,,,,,,,,,,,,0,,,63,59
511200,note_on,0,0,2,,,,,,,,,,,,,,,0,,,34,57
511228,control_change,28,0,2,,,,,,,,,,,,,,,0,64,0,,
511306,control_change,78,0,2,,,,,,,,,,,,,,,0,64,127,,
511360,note_on,54,0,2,,,,,,,,,,,,,,,0,,,34,0
511360,note_on,0,0,2,,,,,,,,,,,,,,,0,,,41,52
511440,note_on,240,0,1,,,,,,,,,,,,,,,0,,,70,0
511440,note_on,0,0,1,,,,,,,,,,,,,,,0,,,69,67
511440,set_tempo,240,1,0,,,,,,,,,,,,340040,,,,,,,
511520,note_on,0,0,2,,,,,,,,,,,,,,,0,,,46,52
511520,note_on,160,0,2,,,,,,,,,,,,,,,0,,,41,0
511560,note_on,120,0,1,,,,,,,,,,,,,,,0,,,69,0
511680,note_on,0,0,1,,,,,,,,,,,,,,,0,,,65,0
511680,note_on,0,0,1,,,,,,,,,,,,,,,0,,,74,75
511680,control_change,0,0,2,,,,,,,,,,,,,,,0,64,0,,
511680,note_on,0,0,1,,,,,,,,,,,,,,,0,,,63,63
511680,set_tempo,240,1,0,,,,,,,,,,,,329290,,,,,,,
511680,note_on,120,0,1,,,,,,,,,,,,,,,0,,,63,0
511680,note_on,0,0,2,,,,,,,,,,,,,,,0,,,34,55
511680,note_on,160,0,2,,,,,,,,,,,,,,,0,,,46,0
511680,control_change,0,0,2,,,,,,,,,,,,,,,0,64,0,,
511680,note_on,0,0,1,,,,,,,,,,,,,,,0,,,69,63
511708,control_change,28,0,2,,,,,,,,,,,,,,,0,64,0,,
511751,control_change,43,0,2,,,,,,,,,,,,,,,0,64,127,,
511840,note_on,89,0,2,,,,,,,,,,,,,,,0,,,34,0
511840,note_on,0,0,2,,,,,,,,,,,,,,,0,,,41,51
511920,set_tempo,240,1,0,,,,,,,,,,,,344135,,,,,,,
511920,note_on,240,0,1,,,,,,,,,,,,,,,0,,,74,0
511920,note_on,0,0,1,,,,,,,,,,,,,,,0,,,72,71
511960,set_tempo,40,1,0,,,,,,,,,,,,337041,,,,,,,
512000,note_on,160,0,2,,,,,,,,,,,,,,,0,,,41,0
512000,note_on,0,0,2,,,,,,,,,,,,,,,0,,,46,51
512040,note_on,120,0,1,,,,,,,,,,,,,,,0,,,72,0
512160,note_on,0,0,1,,,,,,,,,,,,,,,0,,,69,0
512160,note_on,0,0,1,,,,,,,,,,,,,,,0,,,69,64
512160,note_on,0,0,1,,,,,,,,,,,,,,,0,,,75,64
512160,set_tempo,200,1,0,,,,,,,,,,,,325556,,,,,,,
512160,note_on,120,0,1,,,,,,,,,,,,,,,0,,,63,0
512160,note_on,0,0,1,,,,,,,,,,,,,,,0,,,79,76
512160,note_on,0,0,2,,,,,,,,,,,,,,,0,,,34,58
512160,note_on,160,0,2,,,,,,,,,,,,,,,0,,,46,0
512245,control_change,85,0,2,,,,,,,,,,,,,,,0,64,0,,
512315,control_change,70,0,2,,,,,,,,,,,,,,,0,64,127,,
512320,note_on,5,0,2,,,,,,,,,,,,,,,0,,,34,0
512320,note_on,0,0,2,,,,,,,,,,,,,,,0,,,41,54
512400,set_tempo,240,1,0,,,,,,,,,,,,331199,,,,,,,
512400,note_on,240,0,1,,,,,,,,,,,,,,,0,,,79,0
512400,note_on,0,0,1,,,,,,,,,,,,,,,0,,,77,73
512480,note_on,160,0,2,,,,,,,,,,,,,,,0,,,41,0
512480,note_on,0,0,2,,,,,,,,,,,,,,,0,,,46,54
512520,note_on,120,0,1,,,,,,,,,,,,,,,0,,,77,0
512640,control_change,0,0,2,,,,,,,,,,,,,,,0,64,0,,
512640,note_on,160,0,2,,,,,,,,,,,,,,,0,,,46,0
512640,note_on,0,0,2,,,,,,,,,,,,,,,0,,,34,64
512640,note_on,120,0,1,,,,,,,,,,,,,,,0,,,75,0
512640,note_on,0,0,1,,,,,,,,,,,,,,,0,,,77,69
512640,note_on,0,0,1,,,,,,,,,,,,,,,0,,,75,69
512640,set_tempo,240,1,0,,,,,,,,,,,,323712,,,,,,,
512640,note_on,0,0,1,,,,,,,,,,,,,,,0,,,69,0
512640,note_on,0,0,1,,,,,,,,,,,,,,,0,,,82,80
512668,control_change,28,0,2,,,,,,,,,,,,,,,0,64,0,,
512711,control_change,43,0,2,,,,,,,,,,,,,,,0,64,127,,
512800,note_on,0,0,2,,,,,,,,,,,,,,,0,,,41,56
512800,note_on,89,0,2,,,,,,,,,,,,,,,0,,,34,0
512880,set_tempo,240,1,0,,,,,,,,,,,,331199,,,,,,,
512880,note_on,0,0,1,,,,,,,,,,,,,,,0,,,81,75
512880,note_on,240,0,1,,,,,,,,,,,,,,,0,,,82,0
512960,note_on,160,0,2,,,,,,,,,,,,,,,0,,,41,0
512960,note_on,0,0,2,,,,,,,,,,,,,,,0,,,46,56
513000,note_on,120,0,1,,,,,,,,,,,,,,,0,,,81,0
513120,note_on,160,0,2,,,,,,,,,,,,,,,0,,,46,0
513120,set_tempo,240,1,0,,,,,,,,,,,,320993,,,,,,,
513120,note_on,0,0,1,,,,,,,,,,,,,,,0,,,77,0
513120,note_on,0,0,2,,,,,,,,,,,,,,,0,,,34,69
513120,note_on,0,0,1,,,,,,,,,,,,,,,0,,,75,70
513120,note_on,120,0,1,,,,,,,,,,,,,,,0,,,75,0
513120,note_on,0,0,1,,,,,,,,,,,,,,,0,,,86,84
513120,note_on,0,0,1,,,,,,,,,,,,,,,0,,,81,70
513205,control_change,85,0,2,,,,,,,,,,,,,,,0,64,0,,
513275,control_change,70,0,2,,,,,,,,,,,,,,,0,64,127,,
513280,note_on,0,0,2,,,,,,,,,,,,,,,0,,,41,60
513280,note_on,5,0,2,,,,,,,,,,,,,,,0,,,34,0
513360,note_on,240,0,1,,,,,,,,,,,,,,,0,,,86,0
513360,note_on,0,0,1,,,,,,,,,,,,,,,0,,,84,79
513360,set_tempo,240,1,0,,,,,,,,,,,,326477,,,,,,,
513440,note_on,160,0,2,,,,,,,,,,,,,,,0,,,41,0
513440,note_on,0,0,2,,,,,,,,,,,,,,,0,,,46,60
513480,note_on,120,0,1,,,,,,,,,,,,,,,0,,,84,0
513600,note_on,0,0,1,,,,,,,,,,,,,,,0,,,87,76
513600,note_on,0,0,1,,,,,,,,,,,,,,,0,,,75,0
513600,note_on,120,0,1,,,,,,,,,,,,,,,0,,,81,0
513600,note_on,0,0,1,,,,,,,,,,,,,,,0,,,91,90
513600,note_on,160,0,2,,,,,,,,,,,,,,,0,,,46,0
513600,control_change,0,0,2,,,,,,,,,,,,,,,0,64,0,,
513600,note_on,0,0,2,,,,,,,,,,,,,,,0,,,34,74
513600,note_on,0,0,1,,,,,,,,,,,,,,,0,,,81,76
513600,set_tempo,240,1,0,,,,,,,,,,,,322806,,,,,,,
513628,control_change,28,0,2,,,,,,,,,,,,,,,0,64,0,,
513671,control_change,43,0,2,,,,,,,,,,,,,,,0,64,127,,
513760,note_on,89,0,2,,,,,,,,,,,,,,,0,,,34,0
513760,note_on,0,0,2,,,,,,,,,,,,,,,0,,,41,65
513840,set_tempo,240,1,0,,,,,,,,,,,,344135,,,,,,,
513840,note_on,240,0,1,,,,,,,,,,,,,,,0,,,91,0
513840,note_on,0,0,1,,,,,,,,,,,,,,,0,,,89,85
513920,note_on,0,0,2,,,,,,,,,,,,,,,0,,,46,66
513920,note_on,160,0,2,,,,,,,,,,,,,,,0,,,41,0
513960,note_on,120,0,1,,,,,,,,,,,,,,,0,,,89,0
514080,set_tempo,240,1,0,,,,,,,,,,,,333130,,,,,,,
514080,note_on,0,0,1,,,,,,,,,,,,,,,0,,,89,82
514080,note_on,0,0,1,,,,,,,,,,,,,,,0,,,94,97
514080,note_on,0,0,1,,,,,,,,,,,,,,,0,,,87,82
514080,note_on,0,0,1,,,,,,,,,,,,,,,0,,,81,0
514080,note_on,120,0,1,,,,,,,,,,,,,,,0,,,87,0
514080,note_on,160,0,2,,,,,,,,,,,,,,,0,,,46,0
514080,note_on,0,0,2,,,,,,,,,,,,,,,0,,,34,75
514165,control_change,85,0,2,,,,,,,,,,,,,,,0,64,0,,
514235,control_change,70,0,2,,,,,,,,,,,,,,,0,64,127,,
514240,note_on,0,0,2,,,,,,,,,,,,,,,0,,,41,66
514240,note_on,5,0,2,,,,,,,,,,,,,,,0,,,34,0
514320,note_on,0,0,1,,,,,,,,,,,,,,,0,,,93,94
514320,note_on,240,0,1,,,,,,,,,,,,,,,0,,,94,0
514320,set_tempo,240,1,0,,,,,,,,,,,,352589,,,,,,,
514400,note_on,160,0,2,,,,,,,,,,,,,,,0,,,41,0
514400,note_on,0,0,2,,,,,,,,,,,,,,,0,,,46,66
514440,note_on,120,0,1,,,,,,,,,,,,,,,0,,,93,0
514560,set_tempo,240,1,0,,,,,,,,,,,,381971,,,,,,,
514560,note_on,0,0,1,,,,,,,,,,,,,,,0,,,94,113
514560,note_on,0,0,1,,,,,,,,,,,,,,,0,,,89,96
514560,note_on,0,0,1,,,,,,,,,,,,,,,0,,,86,96
514560,note_on,120,0,1,,,,,,,,,,,,,,,0,,,89,0
514560,note_on,0,0,2,,,,,,,,,,,,,,,0,,,34,85
514560,control_change,0,0,2,,,,,,,,,,,,,,,0,64,0,,
514560,note_on,160,0,2,,,,,,,,,,,,,,,0,,,46,0
514560,note_on,0,0,1,,,,,,,,,,,,,,,0,,,87,0
514747,control_change,187,0,2,,,,,,,,,,,,,,,0,64,127,,
515040,note_on,293,0,2,,,,,,,,,,,,,,,0,,,34,0
515040,note_on,0,0,1,,,,,,,,,,,,,,,0,,,89,0
515040,note_on,480,0,1,,,,,,,,,,,,,,,0,,,86,0
515040,note_on,0,0,1,,,,,,,,,,,,,,,0,,,94,0
515360,control_change,320,0,2,,,,,,,,,,,,,,,0,64,0,,
515520,note_on,0,0,1,,,,,,,,,,,,,,,0,,,89,92
515520,note_on,480,0,1,,,,,,,,,,,,,,,0,,,98,110
515520,note_on,0,0,1,,,,,,,,,,,,,,,0,,,94,110
515520,note_on,0,0,1,,,,,,,,,,,,,,,0,,,86,92
515520,note_on,160,0,2,,,,,,,,,,,,,,,0,,,46,66
515520,note_on,0,0,2,,,,,,,,,,,,,,,0,,,58,77
515520,note_on,0,0,2,,,,,,,,,,,,,,,0,,,53,66
515520,note_on,0,0,2,,,,,,,,,,,,,,,0,,,50,66
515600,control_change,80,0,2,,,,,,,,,,,,,,,0,64,127,,
516000,note_on,400,0,2,,,,,,,,,,,,,,,0,,,58,0
516000,note_on,0,0,1,,,,,,,,,,,,,,,0,,,89,0
516000,note_on,0,0,1,,,,,,,,,,,,,,,0,,,98,0
516000,note_on,480,0,1,,,,,,,,,,,,,,,0,,,94,0
516000,note_on,0,0,1,,,,,,,,,,,,,,,0,,,86,0
516000,note_on,0,0,2,,,,,,,,,,,,,,,0,,,53,0
516000,note_on,0,0,2,,,,,,,,,,,,,,,0,,,50,0
516000,note_on,0,0,2,,,,,,,,,,,,,,,0,,,46,0
516160,control_change,160,0,2,,,,,,,,,,,,,,,0,64,0,,
516480,note_on,320,0,2,,,,,,,,,,,,,,,0,,,34,70
516480,note_on,480,0,1,,,,,,,,,,,,,,,0,,,58,116
516480,note_on,0,0,2,,,,,,,,,,,,,,,0,,,46,81
516587,control_change,107,0,2,,,,,,,,,,,,,,,0,64,127,,
516960,end_of_track,0,1,1,,,,,,,,,,,,,,,,,,,
516960,note_on,0,0,2,,,,,,,,,,,,,,,0,,,34,0
516960,note_on,373,0,2,,,,,,,,,,,,,,,0,,,46,0
516960,note_on,480,0,1,,,,,,,,,,,,,,,0,,,58,0
517040,control_change,80,0,2,,,,,,,,,,,,,,,0,64,0,,
517040,end_of_track,0,1,2,,,,,,,,,,,,,,,,,,,
517440,end_of_track,0,1,0,,,,,,,,,,,,,,,,,,,
517440,set_tempo,2880,1,0,,,,,,,,,,,,428571,,,,,,,
