tick,type,time,meta,track,numerator,denominator,clocks_per_click,notated_32nd_notes_per_beat,key,tempo,port,program,channel,control,value,note,velocity
0,track_name,0,1,0,,,,,,,,,,,,,
0,program_change,0,0,2,,,,,,,,0,1,,,,
0,control_change,0,0,2,,,,,,,,,1,7,127,,
0,control_change,0,0,2,,,,,,,,,1,10,97,,
0,note_on,0,0,1,,,,,,,,,0,,,75,75
0,control_change,0,0,1,,,,,,,,,0,10,97,,
0,control_change,0,0,1,,,,,,,,,0,7,127,,
0,program_change,0,0,1,,,,,,,,0,0,,,,
0,track_name,0,1,1,,,,,,,,,,,,,
0,midi_port,0,1,1,,,,,,,0,,,,,,
0,midi_port,0,1,3,,,,,,,0,,,,,,
0,track_name,0,1,3,,,,,,,,,,,,,
0,program_change,0,0,3,,,,,,,,0,2,,,,
0,track_name,0,1,2,,,,,,,,,,,,,
0,control_change,0,0,3,,,,,,,,,2,10,30,,
0,note_on,0,0,3,,,,,,,,,2,,,63,62
0,control_change,0,0,3,,,,,,,,,2,7,127,,
0,key_signature,0,1,0,,,,,B,,,,,,,,
0,copyright,0,1,0,,,,,,,,,,,,,
0,text,0,1,0,,,,,,,,,,,,,
0,time_signature,0,1,0,1,8,12,8,,,,,,,,,
0,set_tempo,0,1,0,,,,,,434783,,,,,,,
0,control_change,0,0,4,,,,,,,,,3,10,30,,
0,control_change,0,0,4,,,,,,,,,3,7,127,,
0,program_change,0,0,4,,,,,,,,0,3,,,,
0,track_name,0,1,4,,,,,,,,,,,,,
0,midi_port,0,1,4,,,,,,,0,,,,,,
0,midi_port,0,1,2,,,,,,,0,,,,,,
30,note_on,30,0,3,,,,,,,,,2,,,63,0
30,note_on,0,0,1,,,,,,,,,0,,,76,75
30,note_on,30,0,1,,,,,,,,,0,,,75,0
30,note_on,0,0,3,,,,,,,,,2,,,64,62
60,note_on,0,0,1,,,,,,,,,0,,,78,101
60,note_on,30,0,1,,,,,,,,,0,,,76,0
60,time_signature,60,1,0,3,8,12,8,,,,,,,,,
60,note_on,30,0,3,,,,,,,,,2,,,64,0
60,note_on,0,0,3,,,,,,,,,2,,,66,62
180,note_on,0,0,1,,,,,,,,,0,,,73,75
180,note_on,120,0,3,,,,,,,,,2,,,66,0
180,note_on,0,0,3,,,,,,,,,2,,,61,62
180,note_on,120,0,1,,,,,,,,,0,,,78,0
210,note_on,0,0,3,,,,,,,,,2,,,63,62
210,note_on,30,0,3,,,,,,,,,2,,,61,0
210,note_on,0,0,1,,,,,,,,,0,,,75,75
210,note_on,30,0,1,,,,,,,,,0,,,73,0
240,note_on,30,0,1,,,,,,,,,0,,,75,0
240,note_on,0,0,3,,,,,,,,,2,,,64,62
240,note_on,30,0,3,,,,,,,,,2,,,63,0
240,note_on,0,0,1,,,,,,,,,0,,,76,101
360,note_on,120,0,1,,,,,,,,,0,,,76,0
360,note_on,120,0,3,,,,,,,,,2,,,64,0
360,note_on,0,0,1,,,,,,,,,0,,,71,75
390,note_on,0,0,1,,,,,,,,,0,,,73,75
390,note_on,30,0,1,,,,,,,,,0,,,71,0
420,note_on,0,0,1,,,,,,,,,0,,,75,114
420,note_on,30,0,1,,,,,,,,,0,,,73,0
420,note_on,420,0,2,,,,,,,,,1,,,63,75
420,note_on,0,0,3,,,,,,,,,2,,,59,75
420,note_on,0,0,3,,,,,,,,,2,,,54,75
420,note_on,60,0,3,,,,,,,,,2,,,47,75
540,note_on,0,0,1,,,,,,,,,0,,,73,88
540,note_on,120,0,1,,,,,,,,,0,,,75,0
600,note_on,0,0,2,,,,,,,,,1,,,63,75
600,note_on,180,0,3,,,,,,,,,2,,,59,0
600,note_on,0,0,3,,,,,,,,,2,,,54,0
600,note_on,0,0,3,,,,,,,,,2,,,47,0
600,note_on,0,0,3,,,,,,,,,2,,,47,75
600,note_on,0,0,3,,,,,,,,,2,,,55,75
600,note_on,180,0,2,,,,,,,,,1,,,63,0
600,note_on,0,0,1,,,,,,,,,0,,,71,114
600,note_on,0,0,3,,,,,,,,,2,,,59,75
600,note_on,60,0,1,,,,,,,,,0,,,73,0
720,note_on,120,0,1,,,,,,,,,0,,,71,0
720,note_on,0,0,1,,,,,,,,,0,,,70,88
780,note_on,0,0,1,,,,,,,,,0,,,68,88
780,note_on,180,0,2,,,,,,,,,1,,,63,0
780,note_on,0,0,2,,,,,,,,,1,,,64,75
780,control_change,0,0,1,,,,,,,,,0,64,127,,
780,note_on,60,0,1,,,,,,,,,0,,,70,0
780,note_on,0,0,3,,,,,,,,,2,,,59,75
780,note_on,180,0,3,,,,,,,,,2,,,59,0
780,note_on,0,0,3,,,,,,,,,2,,,55,0
780,note_on,0,0,3,,,,,,,,,2,,,47,0
780,note_on,0,0,3,,,,,,,,,2,,,47,75
780,note_on,0,0,3,,,,,,,,,2,,,56,75
840,note_on,60,0,1,,,,,,,,,0,,,68,0
840,note_on,0,0,1,,,,,,,,,0,,,73,88
900,note_on,120,0,3,,,,,,,,,2,,,59,0
900,note_on,0,0,1,,,,,,,,,0,,,70,88
900,control_change,0,0,1,,,,,,,,,0,64,0,,
900,note_on,60,0,1,,,,,,,,,0,,,73,0
900,note_on,120,0,2,,,,,,,,,1,,,64,0
900,note_on,0,0,3,,,,,,,,,2,,,56,0
900,note_on,0,0,3,,,,,,,,,2,,,47,0
900,note_on,0,0,3,,,,,,,,,2,,,47,75
900,note_on,0,0,3,,,,,,,,,2,,,54,75
900,note_on,0,0,3,,,,,,,,,2,,,61,75
900,note_on,0,0,2,,,,,,,,,1,,,64,75
906,note_on,0,0,3,,,,,,,,,2,,,54,0
906,note_on,0,0,3,,,,,,,,,2,,,47,0
906,note_on,6,0,3,,,,,,,,,2,,,61,0
906,note_on,6,0,2,,,,,,,,,1,,,64,0
906,note_on,6,0,1,,,,,,,,,0,,,70,0
960,note_on,54,0,3,,,,,,,,,2,,,47,75
960,note_on,0,0,3,,,,,,,,,2,,,59,75
960,note_on,54,0,1,,,,,,,,,0,,,71,88
960,note_on,54,0,2,,,,,,,,,1,,,63,75
960,note_on,0,0,3,,,,,,,,,2,,,54,75
1080,note_on,120,0,2,,,,,,,,,1,,,63,0
1080,note_on,0,0,2,,,,,,,,,1,,,66,75
1080,note_on,120,0,3,,,,,,,,,2,,,59,0
1080,note_on,0,0,3,,,,,,,,,2,,,54,0
1080,note_on,0,0,3,,,,,,,,,2,,,54,75
1080,note_on,0,0,3,,,,,,,,,2,,,58,75
1080,note_on,0,0,3,,,,,,,,,2,,,47,0
1080,note_on,120,0,1,,,,,,,,,0,,,71,0
1080,note_on,0,0,1,,,,,,,,,0,,,73,88
1086,note_on,6,0,3,,,,,,,,,2,,,58,0
1086,note_on,6,0,2,,,,,,,,,1,,,66,0
1086,note_on,6,0,1,,,,,,,,,0,,,73,0
1086,note_on,0,0,3,,,,,,,,,2,,,54,0
1140,note_on,0,0,3,,,,,,,,,2,,,59,75
1140,note_on,54,0,3,,,,,,,,,2,,,54,75
1140,note_on,54,0,2,,,,,,,,,1,,,66,75
1140,control_change,54,0,1,,,,,,,,,0,64,127,,
1140,note_on,0,0,1,,,,,,,,,0,,,75,88
1200,note_on,0,0,1,,,,,,,,,0,,,80,88
1200,note_on,60,0,1,,,,,,,,,0,,,75,0
1260,note_on,120,0,3,,,,,,,,,2,,,59,0
1260,note_on,0,0,3,,,,,,,,,2,,,54,0
1260,note_on,0,0,3,,,,,,,,,2,,,54,75
1260,note_on,0,0,3,,,,,,,,,2,,,61,75
1260,note_on,0,0,2,,,,,,,,,1,,,71,75
1260,note_on,120,0,2,,,,,,,,,1,,,66,0
1260,note_on,60,0,1,,,,,,,,,0,,,80,0
1260,control_change,0,0,1,,,,,,,,,0,64,0,,
1260,note_on,0,0,1,,,,,,,,,0,,,77,88
1266,note_on,6,0,2,,,,,,,,,1,,,71,0
1266,note_on,0,0,3,,,,,,,,,2,,,54,0
1266,note_on,6,0,1,,,,,,,,,0,,,77,0
1266,note_on,6,0,3,,,,,,,,,2,,,61,0
1320,note_on,0,0,3,,,,,,,,,2,,,61,75
1320,note_on,54,0,3,,,,,,,,,2,,,54,75
1320,control_change,54,0,1,,,,,,,,,0,64,127,,
1320,note_on,54,0,2,,,,,,,,,1,,,70,75
1320,note_on,0,0,1,,,,,,,,,0,,,78,88
1440,note_on,120,0,1,,,,,,,,,0,,,78,0
1440,note_on,0,0,1,,,,,,,,,0,,,73,88
1440,note_on,120,0,3,,,,,,,,,2,,,61,0
1440,note_on,120,0,2,,,,,,,,,1,,,70,0
1440,note_on,0,0,3,,,,,,,,,2,,,54,0
1470,note_on,0,0,1,,,,,,,,,0,,,75,88
1470,control_change,0,0,1,,,,,,,,,0,64,0,,
1470,note_on,30,0,1,,,,,,,,,0,,,73,0
1500,note_on,30,0,1,,,,,,,,,0,,,75,0
1500,note_on,0,0,1,,,,,,,,,0,,,64,104
1500,note_on,0,0,1,,,,,,,,,0,,,68,109
1500,note_on,0,0,1,,,,,,,,,0,,,76,114
1500,note_on,0,0,3,,,,,,,,,2,,,61,101
1500,note_on,60,0,3,,,,,,,,,2,,,49,91
1500,note_on,0,0,3,,,,,,,,,2,,,56,96
1620,note_on,120,0,3,,,,,,,,,2,,,61,0
1620,note_on,0,0,3,,,,,,,,,2,,,51,75
1620,note_on,0,0,3,,,,,,,,,2,,,56,75
1620,note_on,0,0,3,,,,,,,,,2,,,60,75
1620,note_on,0,0,3,,,,,,,,,2,,,49,0
1620,note_on,0,0,3,,,,,,,,,2,,,56,0
1620,note_on,0,0,1,,,,,,,,,0,,,75,88
1620,note_on,120,0,1,,,,,,,,,0,,,76,0
1620,note_on,0,0,1,,,,,,,,,0,,,68,0
1620,note_on,0,0,1,,,,,,,,,0,,,64,0
1620,note_on,0,0,1,,,,,,,,,0,,,66,88
1620,note_on,0,0,1,,,,,,,,,0,,,68,88
1680,note_on,0,0,3,,,,,,,,,2,,,56,96
1680,note_on,0,0,1,,,,,,,,,0,,,68,0
1680,note_on,0,0,3,,,,,,,,,2,,,52,91
1680,note_on,0,0,3,,,,,,,,,2,,,51,0
1680,note_on,0,0,1,,,,,,,,,0,,,66,0
1680,note_on,0,0,3,,,,,,,,,2,,,61,101
1680,note_on,60,0,1,,,,,,,,,0,,,75,0
1680,note_on,60,0,3,,,,,,,,,2,,,60,0
1680,note_on,0,0,1,,,,,,,,,0,,,73,114
1680,note_on,0,0,1,,,,,,,,,0,,,68,109
1680,note_on,0,0,1,,,,,,,,,0,,,64,104
1680,note_on,0,0,3,,,,,,,,,2,,,56,0
1800,note_on,120,0,3,,,,,,,,,2,,,61,0
1800,note_on,0,0,3,,,,,,,,,2,,,56,75
1800,note_on,0,0,3,,,,,,,,,2,,,52,0
1800,note_on,0,0,3,,,,,,,,,2,,,53,75
1800,note_on,0,0,3,,,,,,,,,2,,,59,75
1800,note_on,0,0,1,,,,,,,,,0,,,71,88
1800,note_on,0,0,1,,,,,,,,,0,,,63,88
1800,note_on,0,0,1,,,,,,,,,0,,,64,0
1800,note_on,0,0,1,,,,,,,,,0,,,68,0
1800,note_on,120,0,1,,,,,,,,,0,,,73,0
1800,note_on,0,0,3,,,,,,,,,2,,,56,0
1800,note_on,0,0,1,,,,,,,,,0,,,68,88
1860,note_on,0,0,1,,,,,,,,,0,,,71,88
1860,note_on,60,0,1,,,,,,,,,0,,,71,0
1860,note_on,0,0,1,,,,,,,,,0,,,68,0
1860,note_on,420,0,2,,,,,,,,,1,,,63,75
1860,note_on,0,0,1,,,,,,,,,0,,,63,0
1860,control_change,0,0,1,,,,,,,,,0,64,127,,
1860,note_on,0,0,3,,,,,,,,,2,,,53,0
1860,note_on,60,0,3,,,,,,,,,2,,,59,0
1860,note_on,0,0,3,,,,,,,,,2,,,56,0
1860,note_on,0,0,3,,,,,,,,,2,,,54,75
1920,note_on,0,0,1,,,,,,,,,0,,,75,88
1920,note_on,60,0,1,,,,,,,,,0,,,71,0
1980,note_on,0,0,1,,,,,,,,,0,,,73,88
1980,control_change,0,0,1,,,,,,,,,0,64,0,,
1980,note_on,60,0,1,,,,,,,,,0,,,75,0
1980,note_on,0,0,3,,,,,,,,,2,,,58,75
1980,note_on,0,0,3,,,,,,,,,2,,,54,75
1980,note_on,120,0,3,,,,,,,,,2,,,54,0
1980,note_on,0,0,2,,,,,,,,,1,,,64,75
1980,note_on,120,0,2,,,,,,,,,1,,,63,0
1986,note_on,6,0,1,,,,,,,,,0,,,73,0
1986,note_on,6,0,3,,,,,,,,,2,,,58,0
1986,note_on,0,0,3,,,,,,,,,2,,,54,0
1986,note_on,6,0,2,,,,,,,,,1,,,64,0
2040,note_on,0,0,1,,,,,,,,,0,,,71,88
2040,note_on,54,0,1,,,,,,,,,0,,,63,88
2040,note_on,54,0,3,,,,,,,,,2,,,47,75
2040,note_on,0,0,3,,,,,,,,,2,,,59,75
2160,note_on,120,0,1,,,,,,,,,0,,,71,0
2160,note_on,0,0,1,,,,,,,,,0,,,75,88
2160,note_on,120,0,3,,,,,,,,,2,,,59,0
2160,note_on,0,0,3,,,,,,,,,2,,,47,0
2160,note_on,0,0,3,,,,,,,,,2,,,63,75
2160,note_on,0,0,1,,,,,,,,,0,,,63,0
2190,note_on,0,0,1,,,,,,,,,0,,,76,88
2190,note_on,30,0,1,,,,,,,,,0,,,75,0
2190,note_on,0,0,3,,,,,,,,,2,,,64,75
2190,note_on,30,0,3,,,,,,,,,2,,,63,0
2220,note_on,0,0,1,,,,,,,,,0,,,78,114
2220,note_on,0,0,1,,,,,,,,,0,,,66,106
2220,control_change,0,0,1,,,,,,,,,0,64,127,,
2220,note_on,30,0,1,,,,,,,,,0,,,76,0
2220,note_on,30,0,3,,,,,,,,,2,,,64,0
2520,note_on,0,0,3,,,,,,,,,2,,,47,49
2520,control_change,300,0,3,,,,,,,,,2,64,127,,
2550,note_on,30,0,3,,,,,,,,,2,,,47,0
2550,note_on,0,0,3,,,,,,,,,2,,,49,49
2580,note_on,0,0,3,,,,,,,,,2,,,50,88
2580,note_on,30,0,3,,,,,,,,,2,,,49,0
2580,control_change,360,0,1,,,,,,,,,0,64,0,,
2640,note_on,60,0,3,,,,,,,,,2,,,50,0
2640,control_change,0,0,3,,,,,,,,,2,64,0,,
2700,note_on,0,0,3,,,,,,,,,2,,,62,49
2700,note_on,0,0,3,,,,,,,,,2,,,57,49
2700,note_on,60,0,3,,,,,,,,,2,,,54,49
2706,note_on,6,0,3,,,,,,,,,2,,,62,0
2706,note_on,0,0,3,,,,,,,,,2,,,54,0
2706,note_on,0,0,3,,,,,,,,,2,,,57,0
2760,note_on,0,0,3,,,,,,,,,2,,,45,36
2760,control_change,54,0,3,,,,,,,,,2,64,127,,
2760,note_on,180,0,1,,,,,,,,,0,,,78,0
2760,note_on,0,0,1,,,,,,,,,0,,,64,49
2760,note_on,0,0,1,,,,,,,,,0,,,76,49
2760,control_change,0,0,1,,,,,,,,,0,64,127,,
2760,note_on,0,0,1,,,,,,,,,0,,,66,0
2766,note_on,6,0,1,,,,,,,,,0,,,76,0
2766,note_on,6,0,3,,,,,,,,,2,,,45,0
2766,note_on,0,0,1,,,,,,,,,0,,,64,0
2820,note_on,54,0,1,,,,,,,,,0,,,66,49
2820,note_on,0,0,1,,,,,,,,,0,,,78,49
2826,note_on,6,0,1,,,,,,,,,0,,,78,0
2826,note_on,0,0,1,,,,,,,,,0,,,66,0
2880,note_on,0,0,1,,,,,,,,,0,,,79,49
2880,note_on,54,0,1,,,,,,,,,0,,,67,49
2880,note_on,0,0,3,,,,,,,,,2,,,52,36
2880,note_on,0,0,3,,,,,,,,,2,,,57,36
2880,control_change,114,0,3,,,,,,,,,2,64,0,,
2880,note_on,0,0,3,,,,,,,,,2,,,61,36
2886,note_on,6,0,3,,,,,,,,,2,,,61,0
2886,note_on,0,0,3,,,,,,,,,2,,,52,0
2886,note_on,6,0,1,,,,,,,,,0,,,79,0
2886,note_on,0,0,1,,,,,,,,,0,,,67,0
2886,note_on,0,0,3,,,,,,,,,2,,,57,0
2940,control_change,54,0,3,,,,,,,,,2,64,127,,
2940,note_on,0,0,3,,,,,,,,,2,,,50,36
2940,control_change,54,0,1,,,,,,,,,0,64,0,,
2940,note_on,0,0,1,,,,,,,,,0,,,81,49
2940,note_on,0,0,1,,,,,,,,,0,,,69,49
2946,note_on,6,0,3,,,,,,,,,2,,,50,0
3060,control_change,114,0,3,,,,,,,,,2,64,0,,
3060,note_on,0,0,3,,,,,,,,,2,,,54,36
3060,note_on,0,0,3,,,,,,,,,2,,,57,36
3060,note_on,0,0,3,,,,,,,,,2,,,62,36
3066,note_on,0,0,3,,,,,,,,,2,,,54,0
3066,note_on,6,0,3,,,,,,,,,2,,,62,0
3066,note_on,0,0,3,,,,,,,,,2,,,57,0
3120,control_change,0,0,1,,,,,,,,,0,64,127,,
3120,note_on,0,0,1,,,,,,,,,0,,,83,49
3120,note_on,0,0,1,,,,,,,,,0,,,71,49
3120,note_on,0,0,1,,,,,,,,,0,,,69,0
3120,note_on,180,0,1,,,,,,,,,0,,,81,0
3120,control_change,54,0,3,,,,,,,,,2,64,127,,
3120,note_on,0,0,3,,,,,,,,,2,,,50,36
3126,note_on,0,0,1,,,,,,,,,0,,,71,0
3126,note_on,6,0,3,,,,,,,,,2,,,50,0
3126,note_on,6,0,1,,,,,,,,,0,,,83,0
3180,note_on,0,0,1,,,,,,,,,0,,,81,49
3180,note_on,54,0,1,,,,,,,,,0,,,69,49
3186,note_on,0,0,1,,,,,,,,,0,,,69,0
3186,note_on,6,0,1,,,,,,,,,0,,,81,0
3240,note_on,0,0,1,,,,,,,,,0,,,80,49
3240,note_on,54,0,1,,,,,,,,,0,,,68,49
3240,note_on,0,0,3,,,,,,,,,2,,,56,36
3240,note_on,0,0,3,,,,,,,,,2,,,53,36
3240,control_change,114,0,3,,,,,,,,,2,64,0,,
3240,note_on,0,0,3,,,,,,,,,2,,,62,36
3246,note_on,0,0,1,,,,,,,,,0,,,68,0
3246,note_on,6,0,1,,,,,,,,,0,,,80,0
3246,note_on,6,0,3,,,,,,,,,2,,,62,0
3246,note_on,0,0,3,,,,,,,,,2,,,56,0
3246,note_on,0,0,3,,,,,,,,,2,,,53,0
3300,note_on,0,0,1,,,,,,,,,0,,,81,49
3300,note_on,0,0,1,,,,,,,,,0,,,69,49
3300,control_change,54,0,1,,,,,,,,,0,64,0,,
3300,control_change,54,0,3,,,,,,,,,2,64,127,,
3300,note_on,0,0,3,,,,,,,,,2,,,50,36
3306,note_on,6,0,3,,,,,,,,,2,,,50,0
3420,control_change,114,0,3,,,,,,,,,2,64,0,,
3420,note_on,0,0,3,,,,,,,,,2,,,54,36
3420,note_on,0,0,3,,,,,,,,,2,,,57,36
3420,note_on,0,0,3,,,,,,,,,2,,,62,36
3426,note_on,6,0,3,,,,,,,,,2,,,62,0
3426,note_on,0,0,3,,,,,,,,,2,,,57,0
3426,note_on,0,0,3,,,,,,,,,2,,,54,0
3480,control_change,0,0,1,,,,,,,,,0,64,127,,
3480,note_on,0,0,1,,,,,,,,,0,,,67,49
3480,note_on,0,0,1,,,,,,,,,0,,,69,0
3480,note_on,180,0,1,,,,,,,,,0,,,81,0
3480,note_on,0,0,1,,,,,,,,,0,,,79,49
3480,note_on,0,0,3,,,,,,,,,2,,,45,36
3480,control_change,54,0,3,,,,,,,,,2,64,127,,
3486,note_on,6,0,3,,,,,,,,,2,,,45,0
3486,note_on,0,0,1,,,,,,,,,0,,,67,0
3486,note_on,6,0,1,,,,,,,,,0,,,79,0
3540,note_on,0,0,1,,,,,,,,,0,,,78,49
3540,note_on,54,0,1,,,,,,,,,0,,,66,49
3546,note_on,0,0,1,,,,,,,,,0,,,66,0
3546,note_on,6,0,1,,,,,,,,,0,,,78,0
3600,note_on,0,0,1,,,,,,,,,0,,,76,49
3600,note_on,0,0,3,,,,,,,,,2,,,57,36
3600,note_on,0,0,3,,,,,,,,,2,,,55,36
3600,control_change,114,0,3,,,,,,,,,2,64,0,,
3600,note_on,54,0,1,,,,,,,,,0,,,64,49
3600,note_on,0,0,3,,,,,,,,,2,,,61,36
3606,note_on,6,0,1,,,,,,,,,0,,,76,0
3606,note_on,0,0,1,,,,,,,,,0,,,64,0
3606,note_on,6,0,3,,,,,,,,,2,,,61,0
3606,note_on,0,0,3,,,,,,,,,2,,,55,0
3606,note_on,0,0,3,,,,,,,,,2,,,57,0
3660,control_change,54,0,3,,,,,,,,,2,64,127,,
3660,control_change,54,0,1,,,,,,,,,0,64,127,,
3660,control_change,0,0,1,,,,,,,,,0,64,0,,
3660,note_on,0,0,1,,,,,,,,,0,,,62,49
3660,note_on,0,0,1,,,,,,,,,0,,,74,49
3660,note_on,0,0,3,,,,,,,,,2,,,50,36
3666,note_on,6,0,3,,,,,,,,,2,,,50,0
3780,note_on,114,0,3,,,,,,,,,2,,,54,36
3780,note_on,0,0,3,,,,,,,,,2,,,57,36
3786,note_on,6,0,3,,,,,,,,,2,,,57,0
3786,note_on,0,0,3,,,,,,,,,2,,,54,0
3840,control_change,54,0,3,,,,,,,,,2,64,0,,
3840,note_on,0,0,3,,,,,,,,,2,,,50,36
3846,note_on,6,0,3,,,,,,,,,2,,,50,0
3900,control_change,0,0,1,,,,,,,,,0,64,0,,
3900,note_on,0,0,1,,,,,,,,,0,,,59,49
3900,note_on,0,0,1,,,,,,,,,0,,,62,0
3900,note_on,240,0,1,,,,,,,,,0,,,74,0
3900,note_on,0,0,1,,,,,,,,,0,,,71,49
3906,note_on,6,0,1,,,,,,,,,0,,,71,0
3906,note_on,0,0,1,,,,,,,,,0,,,59,0
3960,note_on,0,0,1,,,,,,,,,0,,,73,49
3960,note_on,54,0,1,,,,,,,,,0,,,61,49
3966,note_on,0,0,1,,,,,,,,,0,,,61,0
3966,note_on,6,0,1,,,,,,,,,0,,,73,0
4020,note_on,0,0,1,,,,,,,,,0,,,74,49
4020,note_on,0,0,1,,,,,,,,,0,,,62,49
4020,control_change,54,0,1,,,,,,,,,0,64,127,,
4020,note_on,0,0,3,,,,,,,,,2,,,47,36
4020,control_change,174,0,3,,,,,,,,,2,64,127,,
4026,note_on,6,0,3,,,,,,,,,2,,,47,0
4140,note_on,0,0,3,,,,,,,,,2,,,59,36
4140,note_on,114,0,3,,,,,,,,,2,,,54,36
4146,note_on,0,0,3,,,,,,,,,2,,,54,0
4146,note_on,6,0,3,,,,,,,,,2,,,59,0
4200,control_change,54,0,3,,,,,,,,,2,64,0,,
4200,control_change,0,0,1,,,,,,,,,0,64,0,,
4200,note_on,180,0,1,,,,,,,,,0,,,62,0
4200,note_on,0,0,3,,,,,,,,,2,,,47,36
4206,note_on,6,0,3,,,,,,,,,2,,,47,0
4260,note_on,60,0,1,,,,,,,,,0,,,74,0
4260,note_on,0,0,1,,,,,,,,,0,,,71,49
4266,note_on,6,0,1,,,,,,,,,0,,,71,0
4320,note_on,54,0,1,,,,,,,,,0,,,73,49
4326,note_on,6,0,1,,,,,,,,,0,,,73,0
4380,note_on,0,0,1,,,,,,,,,0,,,74,49
4380,control_change,54,0,1,,,,,,,,,0,64,127,,
4380,note_on,0,0,3,,,,,,,,,2,,,59,36
4380,note_on,0,0,3,,,,,,,,,2,,,54,36
4380,note_on,0,0,3,,,,,,,,,2,,,47,36
4380,control_change,174,0,3,,,,,,,,,2,64,127,,
4386,note_on,0,0,3,,,,,,,,,2,,,54,0
4386,note_on,6,0,3,,,,,,,,,2,,,59,0
4386,note_on,6,0,1,,,,,,,,,0,,,74,0
4386,note_on,0,0,3,,,,,,,,,2,,,47,0
4440,note_on,54,0,1,,,,,,,,,0,,,71,49
4446,note_on,6,0,1,,,,,,,,,0,,,71,0
4500,note_on,54,0,1,,,,,,,,,0,,,73,49
4506,note_on,6,0,1,,,,,,,,,0,,,73,0
4560,note_on,174,0,3,,,,,,,,,2,,,47,36
4560,note_on,0,0,3,,,,,,,,,2,,,54,36
4560,note_on,0,0,3,,,,,,,,,2,,,59,36
4560,note_on,54,0,1,,,,,,,,,0,,,74,49
4566,note_on,6,0,3,,,,,,,,,2,,,59,0
4566,note_on,6,0,1,,,,,,,,,0,,,74,0
4566,note_on,0,0,3,,,,,,,,,2,,,47,0
4566,note_on,0,0,3,,,,,,,,,2,,,54,0
4620,note_on,54,0,1,,,,,,,,,0,,,71,49
4626,note_on,6,0,1,,,,,,,,,0,,,71,0
4680,note_on,54,0,1,,,,,,,,,0,,,73,49
4686,note_on,6,0,1,,,,,,,,,0,,,73,0
4740,note_on,0,0,3,,,,,,,,,2,,,59,36
4740,note_on,0,0,3,,,,,,,,,2,,,54,36
4740,note_on,174,0,3,,,,,,,,,2,,,47,36
4740,note_on,54,0,1,,,,,,,,,0,,,74,49
4746,note_on,6,0,3,,,,,,,,,2,,,59,0
4746,note_on,0,0,3,,,,,,,,,2,,,47,0
4746,note_on,6,0,1,,,,,,,,,0,,,74,0
4746,note_on,0,0,3,,,,,,,,,2,,,54,0
4800,note_on,54,0,1,,,,,,,,,0,,,71,49
4806,note_on,6,0,1,,,,,,,,,0,,,71,0
4860,note_on,54,0,1,,,,,,,,,0,,,73,49
4866,note_on,6,0,1,,,,,,,,,0,,,73,0
4920,control_change,174,0,3,,,,,,,,,2,64,0,,
4920,note_on,54,0,1,,,,,,,,,0,,,74,49
4980,note_on,60,0,1,,,,,,,,,0,,,74,0
5040,note_on,0,0,1,,,,,,,,,0,,,71,49
5040,control_change,60,0,1,,,,,,,,,0,64,0,,
5070,note_on,30,0,1,,,,,,,,,0,,,71,0
5070,note_on,0,0,1,,,,,,,,,0,,,73,49
5100,note_on,0,0,1,,,,,,,,,0,,,75,114
5100,note_on,3114,0,2,,,,,,,,,1,,,63,75
5100,note_on,0,0,3,,,,,,,,,2,,,54,75
5100,note_on,0,0,3,,,,,,,,,2,,,59,75
5100,note_on,180,0,3,,,,,,,,,2,,,47,75
5100,note_on,30,0,1,,,,,,,,,0,,,73,0
5220,note_on,0,0,1,,,,,,,,,0,,,73,88
5220,note_on,120,0,1,,,,,,,,,0,,,75,0
5280,note_on,0,0,3,,,,,,,,,2,,,54,0
5280,note_on,0,0,3,,,,,,,,,2,,,47,0
5280,note_on,0,0,3,,,,,,,,,2,,,47,75
5280,note_on,0,0,3,,,,,,,,,2,,,55,75
5280,note_on,180,0,2,,,,,,,,,1,,,63,0
5280,note_on,0,0,2,,,,,,,,,1,,,63,75
5280,note_on,60,0,1,,,,,,,,,0,,,73,0
5280,note_on,0,0,3,,,,,,,,,2,,,59,75
5280,note_on,0,0,1,,,,,,,,,0,,,71,114
5280,note_on,180,0,3,,,,,,,,,2,,,59,0
5400,note_on,0,0,1,,,,,,,,,0,,,70,88
5400,note_on,120,0,1,,,,,,,,,0,,,71,0
5460,note_on,180,0,2,,,,,,,,,1,,,63,0
5460,note_on,0,0,3,,,,,,,,,2,,,59,75
5460,note_on,0,0,3,,,,,,,,,2,,,56,75
5460,note_on,0,0,2,,,,,,,,,1,,,64,75
5460,note_on,180,0,3,,,,,,,,,2,,,59,0
5460,note_on,0,0,3,,,,,,,,,2,,,55,0
5460,note_on,0,0,3,,,,,,,,,2,,,47,0
5460,note_on,60,0,1,,,,,,,,,0,,,70,0
5460,note_on,0,0,3,,,,,,,,,2,,,47,75
5460,note_on,0,0,1,,,,,,,,,0,,,68,88
5460,control_change,0,0,1,,,,,,,,,0,64,127,,
5520,note_on,60,0,1,,,,,,,,,0,,,68,0
5520,note_on,0,0,1,,,,,,,,,0,,,73,88
5580,note_on,120,0,3,,,,,,,,,2,,,59,0
5580,note_on,0,0,3,,,,,,,,,2,,,56,0
5580,note_on,0,0,3,,,,,,,,,2,,,47,0
5580,note_on,0,0,3,,,,,,,,,2,,,47,75
5580,note_on,0,0,3,,,,,,,,,2,,,54,75
5580,note_on,0,0,3,,,,,,,,,2,,,61,75
5580,note_on,0,0,2,,,,,,,,,1,,,64,75
5580,note_on,120,0,2,,,,,,,,,1,,,64,0
5580,control_change,0,0,1,,,,,,,,,0,64,0,,
5580,note_on,60,0,1,,,,,,,,,0,,,73,0
5580,note_on,0,0,1,,,,,,,,,0,,,70,88
5586,note_on,6,0,2,,,,,,,,,1,,,64,0
5586,note_on,0,0,3,,,,,,,,,2,,,47,0
5586,note_on,6,0,1,,,,,,,,,0,,,70,0
5586,note_on,6,0,3,,,,,,,,,2,,,61,0
5586,note_on,0,0,3,,,,,,,,,2,,,54,0
5640,note_on,0,0,3,,,,,,,,,2,,,59,75
5640,note_on,0,0,3,,,,,,,,,2,,,54,75
5640,note_on,54,0,3,,,,,,,,,2,,,47,75
5640,note_on,54,0,2,,,,,,,,,1,,,63,75
5640,note_on,54,0,1,,,,,,,,,0,,,71,88
5760,note_on,0,0,3,,,,,,,,,2,,,58,75
5760,note_on,0,0,3,,,,,,,,,2,,,54,0
5760,note_on,0,0,3,,,,,,,,,2,,,54,75
5760,note_on,0,0,3,,,,,,,,,2,,,47,0
5760,note_on,120,0,3,,,,,,,,,2,,,59,0
5760,note_on,120,0,2,,,,,,,,,1,,,63,0
5760,note_on,0,0,2,,,,,,,,,1,,,66,75
5760,note_on,120,0,1,,,,,,,,,0,,,71,0
5760,note_on,0,0,1,,,,,,,,,0,,,73,88
5766,note_on,0,0,3,,,,,,,,,2,,,54,0
5766,note_on,6,0,1,,,,,,,,,0,,,73,0
5766,note_on,6,0,3,,,,,,,,,2,,,58,0
5766,note_on,6,0,2,,,,,,,,,1,,,66,0
5820,note_on,0,0,1,,,,,,,,,0,,,75,88
5820,note_on,54,0,2,,,,,,,,,1,,,66,75
5820,note_on,54,0,3,,,,,,,,,2,,,54,75
5820,note_on,0,0,3,,,,,,,,,2,,,59,75
5820,control_change,54,0,1,,,,,,,,,0,64,127,,
5880,note_on,60,0,1,,,,,,,,,0,,,75,0
5880,note_on,0,0,1,,,,,,,,,0,,,80,88
5940,note_on,120,0,3,,,,,,,,,2,,,59,0
5940,note_on,0,0,3,,,,,,,,,2,,,54,0
5940,note_on,0,0,3,,,,,,,,,2,,,54,75
5940,note_on,0,0,3,,,,,,,,,2,,,61,75
5940,note_on,120,0,2,,,,,,,,,1,,,66,0
5940,note_on,0,0,1,,,,,,,,,0,,,77,88
5940,control_change,0,0,1,,,,,,,,,0,64,0,,
5940,note_on,60,0,1,,,,,,,,,0,,,80,0
5940,note_on,0,0,2,,,,,,,,,1,,,71,75
5946,note_on,0,0,3,,,,,,,,,2,,,54,0
5946,note_on,6,0,3,,,,,,,,,2,,,61,0
5946,note_on,6,0,2,,,,,,,,,1,,,71,0
5946,note_on,6,0,1,,,,,,,,,0,,,77,0
6000,note_on,54,0,3,,,,,,,,,2,,,54,75
6000,note_on,0,0,3,,,,,,,,,2,,,61,75
6000,control_change,54,0,1,,,,,,,,,0,64,127,,
6000,note_on,0,0,1,,,,,,,,,0,,,78,88
6000,note_on,54,0,2,,,,,,,,,1,,,70,75
6120,note_on,120,0,2,,,,,,,,,1,,,70,0
6120,note_on,120,0,3,,,,,,,,,2,,,61,0
6120,note_on,120,0,1,,,,,,,,,0,,,78,0
6120,note_on,0,0,1,,,,,,,,,0,,,73,88
6120,note_on,0,0,3,,,,,,,,,2,,,54,0
6150,note_on,30,0,1,,,,,,,,,0,,,73,0
6150,control_change,0,0,1,,,,,,,,,0,64,0,,
6150,note_on,0,0,1,,,,,,,,,0,,,75,88
6180,note_on,30,0,1,,,,,,,,,0,,,75,0
6180,note_on,0,0,1,,,,,,,,,0,,,64,104
6180,note_on,0,0,1,,,,,,,,,0,,,68,109
6180,note_on,0,0,1,,,,,,,,,0,,,76,114
6180,note_on,0,0,3,,,,,,,,,2,,,61,101
6180,note_on,0,0,3,,,,,,,,,2,,,56,96
6180,note_on,60,0,3,,,,,,,,,2,,,49,91
6300,note_on,120,0,1,,,,,,,,,0,,,76,0
6300,note_on,0,0,1,,,,,,,,,0,,,64,0
6300,note_on,0,0,1,,,,,,,,,0,,,66,88
6300,note_on,0,0,1,,,,,,,,,0,,,68,88
6300,note_on,0,0,1,,,,,,,,,0,,,75,88
6300,note_on,0,0,1,,,,,,,,,0,,,68,0
6300,note_on,0,0,3,,,,,,,,,2,,,49,0
6300,note_on,0,0,3,,,,,,,,,2,,,56,0
6300,note_on,0,0,3,,,,,,,,,2,,,51,75
6300,note_on,0,0,3,,,,,,,,,2,,,56,75
6300,note_on,0,0,3,,,,,,,,,2,,,60,75
6300,note_on,120,0,3,,,,,,,,,2,,,61,0
6360,note_on,0,0,1,,,,,,,,,0,,,66,0
6360,note_on,0,0,1,,,,,,,,,0,,,64,104
6360,note_on,0,0,1,,,,,,,,,0,,,68,109
6360,note_on,0,0,1,,,,,,,,,0,,,73,114
6360,note_on,0,0,1,,,,,,,,,0,,,68,0
6360,note_on,60,0,1,,,,,,,,,0,,,75,0
6360,note_on,0,0,3,,,,,,,,,2,,,52,91
6360,note_on,0,0,3,,,,,,,,,2,,,61,101
6360,note_on,0,0,3,,,,,,,,,2,,,51,0
6360,note_on,0,0,3,,,,,,,,,2,,,56,0
6360,note_on,60,0,3,,,,,,,,,2,,,60,0
6360,note_on,0,0,3,,,,,,,,,2,,,56,96
6480,note_on,0,0,1,,,,,,,,,0,,,64,0
6480,note_on,0,0,1,,,,,,,,,0,,,63,88
6480,note_on,0,0,1,,,,,,,,,0,,,68,88
6480,note_on,0,0,1,,,,,,,,,0,,,71,88
6480,note_on,0,0,1,,,,,,,,,0,,,68,0
6480,note_on,120,0,3,,,,,,,,,2,,,61,0
6480,note_on,0,0,3,,,,,,,,,2,,,59,75
6480,note_on,0,0,3,,,,,,,,,2,,,56,75
6480,note_on,0,0,3,,,,,,,,,2,,,53,75
6480,note_on,0,0,3,,,,,,,,,2,,,52,0
6480,note_on,0,0,3,,,,,,,,,2,,,56,0
6480,note_on,120,0,1,,,,,,,,,0,,,73,0
6540,note_on,0,0,3,,,,,,,,,2,,,54,75
6540,note_on,0,0,3,,,,,,,,,2,,,53,0
6540,note_on,0,0,3,,,,,,,,,2,,,56,0
6540,note_on,60,0,3,,,,,,,,,2,,,59,0
6540,control_change,0,0,1,,,,,,,,,0,64,127,,
6540,note_on,0,0,1,,,,,,,,,0,,,71,88
6540,note_on,0,0,1,,,,,,,,,0,,,63,0
6540,note_on,0,0,1,,,,,,,,,0,,,68,0
6540,note_on,60,0,1,,,,,,,,,0,,,71,0
6540,note_on,420,0,2,,,,,,,,,1,,,63,75
6600,note_on,60,0,1,,,,,,,,,0,,,71,0
6600,note_on,0,0,1,,,,,,,,,0,,,75,88
6660,note_on,60,0,1,,,,,,,,,0,,,75,0
6660,note_on,0,0,1,,,,,,,,,0,,,73,88
6660,note_on,120,0,2,,,,,,,,,1,,,63,0
6660,note_on,0,0,2,,,,,,,,,1,,,64,75
6660,control_change,0,0,1,,,,,,,,,0,64,0,,
6660,note_on,0,0,3,,,,,,,,,2,,,58,75
6660,note_on,120,0,3,,,,,,,,,2,,,54,0
6660,note_on,0,0,3,,,,,,,,,2,,,54,75
6666,note_on,0,0,3,,,,,,,,,2,,,54,0
6666,note_on,6,0,1,,,,,,,,,0,,,73,0
6666,note_on,6,0,2,,,,,,,,,1,,,64,0
6666,note_on,6,0,3,,,,,,,,,2,,,58,0
6720,note_on,54,0,3,,,,,,,,,2,,,47,75
6720,note_on,0,0,3,,,,,,,,,2,,,59,75
6720,note_on,0,0,1,,,,,,,,,0,,,71,88
6720,note_on,54,0,1,,,,,,,,,0,,,63,88
6840,note_on,0,0,3,,,,,,,,,2,,,47,0
6840,note_on,120,0,1,,,,,,,,,0,,,71,0
6840,note_on,0,0,1,,,,,,,,,0,,,63,0
6840,note_on,0,0,1,,,,,,,,,0,,,71,88
6840,note_on,120,0,3,,,,,,,,,2,,,59,0
6870,note_on,30,0,1,,,,,,,,,0,,,71,0
6870,note_on,0,0,1,,,,,,,,,0,,,73,88
6900,note_on,234,0,2,,,,,,,,,1,,,71,75
6900,note_on,60,0,3,,,,,,,,,2,,,59,75
6900,note_on,0,0,3,,,,,,,,,2,,,63,75
6900,note_on,30,0,1,,,,,,,,,0,,,73,0
6900,control_change,0,0,1,,,,,,,,,0,64,127,,
6900,note_on,0,0,1,,,,,,,,,0,,,75,88
6960,note_on,60,0,1,,,,,,,,,0,,,75,0
6960,note_on,0,0,1,,,,,,,,,0,,,80,88
7020,note_on,0,0,3,,,,,,,,,2,,,59,0
7020,note_on,120,0,3,,,,,,,,,2,,,63,0
7020,note_on,120,0,2,,,,,,,,,1,,,71,0
7020,note_on,0,0,2,,,,,,,,,1,,,71,75
7020,note_on,0,0,3,,,,,,,,,2,,,59,75
7020,note_on,0,0,3,,,,,,,,,2,,,62,75
7020,note_on,60,0,1,,,,,,,,,0,,,80,0
7020,control_change,0,0,1,,,,,,,,,0,64,0,,
7020,note_on,0,0,1,,,,,,,,,0,,,77,88
7026,note_on,6,0,2,,,,,,,,,1,,,71,0
7026,note_on,6,0,3,,,,,,,,,2,,,62,0
7026,note_on,0,0,3,,,,,,,,,2,,,59,0
7026,note_on,6,0,1,,,,,,,,,0,,,77,0
7080,note_on,54,0,1,,,,,,,,,0,,,78,88
7080,note_on,0,0,3,,,,,,,,,2,,,59,75
7080,note_on,0,0,3,,,,,,,,,2,,,63,75
7080,control_change,54,0,3,,,,,,,,,2,64,127,,
7080,note_on,54,0,2,,,,,,,,,1,,,71,75
7200,note_on,120,0,2,,,,,,,,,1,,,71,0
7200,note_on,0,0,3,,,,,,,,,2,,,59,49
7200,note_on,120,0,3,,,,,,,,,2,,,63,0
7200,note_on,0,0,3,,,,,,,,,2,,,59,0
7200,note_on,120,0,1,,,,,,,,,0,,,78,0
7230,note_on,0,0,3,,,,,,,,,2,,,56,49
7230,control_change,0,0,3,,,,,,,,,2,64,0,,
7230,note_on,30,0,3,,,,,,,,,2,,,59,0
7260,note_on,0,0,1,,,,,,,,,0,,,71,49
7260,note_on,60,0,2,,,,,,,,,1,,,63,36
7260,note_on,0,0,3,,,,,,,,,2,,,54,36
7260,note_on,30,0,3,,,,,,,,,2,,,56,0
7260,control_change,60,0,1,,,,,,,,,0,64,127,,
7320,note_on,0,0,1,,,,,,,,,0,,,75,49
7320,note_on,60,0,1,,,,,,,,,0,,,71,0
7380,note_on,120,0,3,,,,,,,,,2,,,54,0
7380,note_on,0,0,3,,,,,,,,,2,,,54,36
7380,note_on,0,0,3,,,,,,,,,2,,,58,36
7380,note_on,0,0,1,,,,,,,,,0,,,73,49
7380,control_change,0,0,1,,,,,,,,,0,64,0,,
7380,note_on,120,0,2,,,,,,,,,1,,,63,0
7380,note_on,0,0,2,,,,,,,,,1,,,64,36
7380,note_on,60,0,1,,,,,,,,,0,,,75,0
7386,note_on,6,0,3,,,,,,,,,2,,,58,0
7386,note_on,0,0,3,,,,,,,,,2,,,54,0
7386,note_on,6,0,1,,,,,,,,,0,,,73,0
7386,note_on,6,0,2,,,,,,,,,1,,,64,0
7440,note_on,0,0,1,,,,,,,,,0,,,71,49
7440,note_on,54,0,3,,,,,,,,,2,,,59,36
7440,control_change,54,0,1,,,,,,,,,0,64,127,,
7440,note_on,54,0,2,,,,,,,,,1,,,63,36
7560,note_on,120,0,1,,,,,,,,,0,,,71,0
7560,note_on,0,0,1,,,,,,,,,0,,,71,88
7560,note_on,120,0,3,,,,,,,,,2,,,59,0
7560,note_on,120,0,2,,,,,,,,,1,,,63,0
7590,note_on,0,0,1,,,,,,,,,0,,,73,88
7590,control_change,0,0,1,,,,,,,,,0,64,0,,
7590,note_on,30,0,1,,,,,,,,,0,,,71,0
7620,note_on,0,0,2,,,,,,,,,1,,,71,75
7620,note_on,0,0,3,,,,,,,,,2,,,63,75
7620,note_on,0,0,3,,,,,,,,,2,,,59,75
7620,control_change,60,0,3,,,,,,,,,2,64,127,,
7620,note_on,0,0,1,,,,,,,,,0,,,75,88
7620,control_change,0,0,1,,,,,,,,,0,64,127,,
7620,note_on,30,0,1,,,,,,,,,0,,,73,0
7620,control_change,60,0,2,,,,,,,,,1,64,127,,
7680,note_on,0,0,1,,,,,,,,,0,,,80,88
7680,note_on,60,0,1,,,,,,,,,0,,,75,0
7740,note_on,60,0,1,,,,,,,,,0,,,80,0
7740,note_on,0,0,1,,,,,,,,,0,,,77,88
7740,note_on,0,0,2,,,,,,,,,1,,,71,75
7740,note_on,120,0,2,,,,,,,,,1,,,71,0
7740,note_on,120,0,3,,,,,,,,,2,,,63,0
7740,note_on,0,0,3,,,,,,,,,2,,,59,0
7740,note_on,0,0,3,,,,,,,,,2,,,59,75
7740,note_on,0,0,3,,,,,,,,,2,,,62,75
7746,note_on,6,0,3,,,,,,,,,2,,,62,0
7746,note_on,0,0,3,,,,,,,,,2,,,59,0
7746,note_on,6,0,1,,,,,,,,,0,,,77,0
7746,note_on,6,0,2,,,,,,,,,1,,,71,0
7800,note_on,0,0,3,,,,,,,,,2,,,59,75
7800,note_on,0,0,3,,,,,,,,,2,,,63,75
7800,control_change,54,0,2,,,,,,,,,1,64,0,,
7800,note_on,0,0,2,,,,,,,,,1,,,71,75
7800,note_on,0,0,1,,,,,,,,,0,,,78,88
7800,control_change,54,0,1,,,,,,,,,0,64,0,,
7800,control_change,54,0,3,,,,,,,,,2,64,0,,
7920,note_on,120,0,2,,,,,,,,,1,,,71,0
7920,note_on,120,0,1,,,,,,,,,0,,,78,0
7920,note_on,0,0,3,,,,,,,,,2,,,59,49
7920,note_on,0,0,3,,,,,,,,,2,,,59,0
7920,note_on,120,0,3,,,,,,,,,2,,,63,0
7950,note_on,0,0,3,,,,,,,,,2,,,61,49
7950,control_change,0,0,3,,,,,,,,,2,64,0,,
7950,note_on,30,0,3,,,,,,,,,2,,,59,0
7980,note_on,0,0,3,,,,,,,,,2,,,54,36
7980,note_on,0,0,3,,,,,,,,,2,,,63,36
7980,control_change,60,0,1,,,,,,,,,0,64,127,,
7980,note_on,0,0,1,,,,,,,,,0,,,71,49
7980,control_change,0,0,3,,,,,,,,,2,64,127,,
7980,note_on,30,0,3,,,,,,,,,2,,,61,0
8040,note_on,60,0,1,,,,,,,,,0,,,71,0
8040,note_on,0,0,1,,,,,,,,,0,,,78,49
8100,note_on,60,0,1,,,,,,,,,0,,,78,0
8100,note_on,0,0,1,,,,,,,,,0,,,70,49
8100,control_change,0,0,1,,,,,,,,,0,64,0,,
8100,note_on,120,0,3,,,,,,,,,2,,,63,0
8100,note_on,0,0,3,,,,,,,,,2,,,54,0
8100,control_change,0,0,3,,,,,,,,,2,64,0,,
8100,note_on,0,0,3,,,,,,,,,2,,,54,36
8100,note_on,0,0,3,,,,,,,,,2,,,61,36
8106,note_on,0,0,3,,,,,,,,,2,,,54,0
8106,note_on,6,0,3,,,,,,,,,2,,,61,0
8106,note_on,6,0,1,,,,,,,,,0,,,70,0
8160,note_on,54,0,1,,,,,,,,,0,,,71,49
8160,note_on,54,0,3,,,,,,,,,2,,,47,36
8160,note_on,0,0,3,,,,,,,,,2,,,59,36
8280,note_on,120,0,1,,,,,,,,,0,,,71,0
8280,note_on,0,0,1,,,,,,,,,0,,,68,88
8280,note_on,0,0,3,,,,,,,,,2,,,56,75
8280,note_on,120,0,3,,,,,,,,,2,,,59,0
8280,note_on,0,0,3,,,,,,,,,2,,,47,0
8310,note_on,0,0,3,,,,,,,,,2,,,58,75
8310,note_on,30,0,3,,,,,,,,,2,,,56,0
8310,note_on,30,0,1,,,,,,,,,0,,,68,0
8310,note_on,0,0,1,,,,,,,,,0,,,70,88
8340,control_change,0,0,1,,,,,,,,,0,64,127,,
8340,note_on,30,0,1,,,,,,,,,0,,,70,0
8340,control_change,0,0,3,,,,,,,,,2,64,127,,
8340,note_on,30,0,3,,,,,,,,,2,,,58,0
8340,note_on,0,0,1,,,,,,,,,0,,,71,88
8340,note_on,0,0,3,,,,,,,,,2,,,59,75
8400,note_on,60,0,3,,,,,,,,,2,,,59,0
8400,note_on,0,0,3,,,,,,,,,2,,,63,75
8400,note_on,60,0,1,,,,,,,,,0,,,71,0
8400,note_on,0,0,1,,,,,,,,,0,,,75,88
8460,control_change,0,0,1,,,,,,,,,0,64,0,,
8460,note_on,60,0,3,,,,,,,,,2,,,63,0
8460,control_change,0,0,3,,,,,,,,,2,64,0,,
8460,note_on,0,0,3,,,,,,,,,2,,,58,75
8460,note_on,60,0,1,,,,,,,,,0,,,75,0
8460,note_on,0,0,1,,,,,,,,,0,,,70,88
8466,note_on,6,0,3,,,,,,,,,2,,,58,0
8466,note_on,6,0,1,,,,,,,,,0,,,70,0
8520,control_change,54,0,3,,,,,,,,,2,64,127,,
8520,note_on,0,0,3,,,,,,,,,2,,,56,75
8520,control_change,54,0,1,,,,,,,,,0,64,127,,
8520,note_on,0,0,1,,,,,,,,,0,,,68,88
8580,note_on,60,0,1,,,,,,,,,0,,,68,0
8580,note_on,0,0,1,,,,,,,,,0,,,71,88
8580,note_on,0,0,3,,,,,,,,,2,,,59,75
8580,note_on,60,0,3,,,,,,,,,2,,,56,0
8640,note_on,0,0,1,,,,,,,,,0,,,66,88
8640,note_on,0,0,3,,,,,,,,,2,,,54,75
8640,control_change,0,0,3,,,,,,,,,2,64,0,,
8640,note_on,60,0,3,,,,,,,,,2,,,59,0
8640,note_on,60,0,1,,,,,,,,,0,,,71,0
8640,control_change,0,0,1,,,,,,,,,0,64,0,,
8646,note_on,6,0,3,,,,,,,,,2,,,54,0
8646,note_on,6,0,1,,,,,,,,,0,,,66,0
8700,note_on,0,0,3,,,,,,,,,2,,,53,75
8700,control_change,54,0,3,,,,,,,,,2,64,127,,
8700,note_on,0,0,1,,,,,,,,,0,,,65,88
8700,control_change,54,0,1,,,,,,,,,0,64,127,,
8760,note_on,60,0,1,,,,,,,,,0,,,65,0
8760,note_on,0,0,1,,,,,,,,,0,,,68,88
8760,note_on,60,0,3,,,,,,,,,2,,,53,0
8760,note_on,0,0,3,,,,,,,,,2,,,56,75
8820,note_on,60,0,1,,,,,,,,,0,,,68,0
8820,control_change,0,0,1,,,,,,,,,0,64,0,,
8820,note_on,0,0,1,,,,,,,,,0,,,63,88
8820,note_on,60,0,3,,,,,,,,,2,,,56,0
8820,control_change,0,0,3,,,,,,,,,2,64,0,,
8820,note_on,0,0,3,,,,,,,,,2,,,51,75
8826,note_on,6,0,1,,,,,,,,,0,,,63,0
8826,note_on,6,0,3,,,,,,,,,2,,,51,0
8880,note_on,54,0,1,,,,,,,,,0,,,61,88
8880,note_on,54,0,3,,,,,,,,,2,,,49,75
9000,note_on,120,0,3,,,,,,,,,2,,,49,0
9000,note_on,120,0,1,,,,,,,,,0,,,61,0
9060,control_change,60,0,1,,,,,,,,,0,64,127,,
9060,note_on,0,0,3,,,,,,,,,2,,,42,36
9060,control_change,60,0,3,,,,,,,,,2,64,127,,
9060,note_on,0,0,1,,,,,,,,,0,,,73,49
9066,note_on,6,0,3,,,,,,,,,2,,,42,0
9120,note_on,0,0,1,,,,,,,,,0,,,75,49
9120,note_on,0,0,3,,,,,,,,,2,,,66,36
9120,note_on,54,0,3,,,,,,,,,2,,,58,36
9120,note_on,60,0,1,,,,,,,,,0,,,73,0
9126,note_on,6,0,3,,,,,,,,,2,,,66,0
9126,note_on,0,0,3,,,,,,,,,2,,,58,0
9180,note_on,54,0,3,,,,,,,,,2,,,58,36
9180,note_on,0,0,3,,,,,,,,,2,,,66,36
9180,note_on,60,0,1,,,,,,,,,0,,,75,0
9180,note_on,0,0,1,,,,,,,,,0,,,72,49
9186,note_on,0,0,3,,,,,,,,,2,,,58,0
9186,note_on,6,0,3,,,,,,,,,2,,,66,0
9240,note_on,60,0,1,,,,,,,,,0,,,72,0
9240,note_on,0,0,1,,,,,,,,,0,,,73,49
9240,note_on,54,0,3,,,,,,,,,2,,,58,36
9240,note_on,0,0,3,,,,,,,,,2,,,66,36
9246,note_on,6,0,3,,,,,,,,,2,,,66,0
9246,note_on,0,0,3,,,,,,,,,2,,,58,0
9300,note_on,54,0,3,,,,,,,,,2,,,58,36
9300,note_on,0,0,3,,,,,,,,,2,,,66,36
9306,note_on,6,0,3,,,,,,,,,2,,,66,0
9306,note_on,0,0,3,,,,,,,,,2,,,58,0
9360,note_on,0,0,3,,,,,,,,,2,,,66,36
9360,note_on,54,0,3,,,,,,,,,2,,,58,36
9360,note_on,120,0,1,,,,,,,,,0,,,73,0
9360,note_on,0,0,1,,,,,,,,,0,,,78,49
9366,note_on,0,0,3,,,,,,,,,2,,,58,0
9366,note_on,6,0,3,,,,,,,,,2,,,66,0
9420,note_on,0,0,3,,,,,,,,,2,,,61,62
9420,note_on,60,0,1,,,,,,,,,0,,,78,0
9420,note_on,0,0,1,,,,,,,,,0,,,78,49
9420,note_on,54,0,3,,,,,,,,,2,,,58,54
9426,note_on,6,0,3,,,,,,,,,2,,,61,0
9426,note_on,0,0,3,,,,,,,,,2,,,58,0
9480,note_on,0,0,3,,,,,,,,,2,,,66,36
9480,note_on,54,0,3,,,,,,,,,2,,,58,36
9486,note_on,0,0,3,,,,,,,,,2,,,58,0
9486,note_on,6,0,3,,,,,,,,,2,,,66,0
9540,note_on,0,0,1,,,,,,,,,0,,,73,49
9540,note_on,120,0,1,,,,,,,,,0,,,78,0
9540,note_on,54,0,3,,,,,,,,,2,,,58,36
9540,note_on,0,0,3,,,,,,,,,2,,,66,36
9546,note_on,6,0,3,,,,,,,,,2,,,66,0
9546,note_on,0,0,3,,,,,,,,,2,,,58,0
9600,note_on,0,0,3,,,,,,,,,2,,,66,36
9600,note_on,54,0,3,,,,,,,,,2,,,58,36
9600,control_change,0,0,1,,,,,,,,,0,64,0,,
9600,note_on,0,0,1,,,,,,,,,0,,,73,49
9600,note_on,60,0,1,,,,,,,,,0,,,73,0
9606,note_on,0,0,3,,,,,,,,,2,,,58,0
9606,note_on,6,0,3,,,,,,,,,2,,,66,0
9660,note_on,0,0,3,,,,,,,,,2,,,61,36
9660,note_on,54,0,3,,,,,,,,,2,,,58,36
9666,note_on,0,0,3,,,,,,,,,2,,,58,0
9666,note_on,6,0,3,,,,,,,,,2,,,61,0
9720,note_on,0,0,3,,,,,,,,,2,,,66,36
9720,control_change,54,0,3,,,,,,,,,2,64,0,,
9720,note_on,0,0,3,,,,,,,,,2,,,58,36
9720,note_on,120,0,1,,,,,,,,,0,,,73,0
9726,note_on,0,0,3,,,,,,,,,2,,,58,0
9726,note_on,6,0,3,,,,,,,,,2,,,66,0
9780,note_on,0,0,3,,,,,,,,,2,,,49,36
9780,control_change,54,0,3,,,,,,,,,2,64,127,,
9780,control_change,60,0,1,,,,,,,,,0,64,127,,
9780,note_on,0,0,1,,,,,,,,,0,,,73,49
9786,note_on,6,0,3,,,,,,,,,2,,,49,0
9840,note_on,0,0,3,,,,,,,,,2,,,65,36
9840,note_on,54,0,3,,,,,,,,,2,,,59,36
9840,note_on,60,0,1,,,,,,,,,0,,,73,0
9840,note_on,0,0,1,,,,,,,,,0,,,75,49
9846,note_on,6,0,3,,,,,,,,,2,,,65,0
9846,note_on,0,0,3,,,,,,,,,2,,,59,0
9900,note_on,0,0,3,,,,,,,,,2,,,65,36
9900,note_on,60,0,1,,,,,,,,,0,,,75,0
9900,note_on,0,0,1,,,,,,,,,0,,,72,49
9900,note_on,54,0,3,,,,,,,,,2,,,59,36
9906,note_on,6,0,3,,,,,,,,,2,,,65,0
9906,note_on,0,0,3,,,,,,,,,2,,,59,0
9960,note_on,0,0,1,,,,,,,,,0,,,73,49
9960,note_on,54,0,3,,,,,,,,,2,,,59,36
9960,note_on,0,0,3,,,,,,,,,2,,,65,36
9960,note_on,60,0,1,,,,,,,,,0,,,72,0
9966,note_on,6,0,3,,,,,,,,,2,,,65,0
9966,note_on,0,0,3,,,,,,,,,2,,,59,0
10020,note_on,54,0,3,,,,,,,,,2,,,59,36
10020,note_on,0,0,3,,,,,,,,,2,,,65,36
10026,note_on,6,0,3,,,,,,,,,2,,,65,0
10026,note_on,0,0,3,,,,,,,,,2,,,59,0
10080,note_on,54,0,3,,,,,,,,,2,,,59,36
10080,note_on,0,0,3,,,,,,,,,2,,,65,36
10080,note_on,0,0,1,,,,,,,,,0,,,80,49
10080,note_on,120,0,1,,,,,,,,,0,,,73,0
10086,note_on,0,0,3,,,,,,,,,2,,,59,0
10086,note_on,6,0,3,,,,,,,,,2,,,65,0
10140,note_on,0,0,1,,,,,,,,,0,,,80,75
10140,note_on,0,0,3,,,,,,,,,2,,,61,62
10140,note_on,54,0,3,,,,,,,,,2,,,59,54
10140,note_on,60,0,1,,,,,,,,,0,,,80,0
10146,note_on,0,0,3,,,,,,,,,2,,,59,0
10146,note_on,6,0,3,,,,,,,,,2,,,61,0
10200,note_on,54,0,3,,,,,,,,,2,,,59,36
10200,note_on,0,0,3,,,,,,,,,2,,,65,36
10206,note_on,0,0,3,,,,,,,,,2,,,59,0
10206,note_on,6,0,3,,,,,,,,,2,,,65,0
10260,note_on,0,0,1,,,,,,,,,0,,,73,49
10260,note_on,54,0,3,,,,,,,,,2,,,59,36
10260,note_on,0,0,3,,,,,,,,,2,,,65,36
10260,note_on,120,0,1,,,,,,,,,0,,,80,0
10266,note_on,6,0,3,,,,,,,,,2,,,65,0
10266,note_on,0,0,3,,,,,,,,,2,,,59,0
10320,note_on,54,0,3,,,,,,,,,2,,,59,36
10320,note_on,0,0,3,,,,,,,,,2,,,65,36
10320,note_on,60,0,1,,,,,,,,,0,,,73,0
10320,control_change,0,0,1,,,,,,,,,0,64,0,,
10320,note_on,0,0,1,,,,,,,,,0,,,73,49
10326,note_on,0,0,3,,,,,,,,,2,,,59,0
10326,note_on,6,0,3,,,,,,,,,2,,,65,0
10380,note_on,0,0,3,,,,,,,,,2,,,61,36
10380,note_on,54,0,3,,,,,,,,,2,,,59,36
10386,note_on,6,0,3,,,,,,,,,2,,,61,0
10386,note_on,0,0,3,,,,,,,,,2,,,59,0
10440,note_on,120,0,1,,,,,,,,,0,,,73,0
10440,control_change,54,0,3,,,,,,,,,2,64,0,,
10440,note_on,0,0,3,,,,,,,,,2,,,59,36
10440,note_on,0,0,3,,,,,,,,,2,,,65,36
10446,note_on,0,0,3,,,,,,,,,2,,,59,0
10446,note_on,6,0,3,,,,,,,,,2,,,65,0
10500,control_change,60,0,1,,,,,,,,,0,64,127,,
10500,note_on,0,0,1,,,,,,,,,0,,,73,49
10500,control_change,54,0,3,,,,,,,,,2,64,127,,
10500,note_on,0,0,3,,,,,,,,,2,,,42,36
10506,note_on,6,0,3,,,,,,,,,2,,,42,0
10560,note_on,60,0,1,,,,,,,,,0,,,73,0
10560,note_on,54,0,3,,,,,,,,,2,,,58,36
10560,note_on,0,0,3,,,,,,,,,2,,,61,36
10560,note_on,0,0,1,,,,,,,,,0,,,75,49
10566,note_on,6,0,3,,,,,,,,,2,,,61,0
10566,note_on,0,0,3,,,,,,,,,2,,,58,0
10620,note_on,54,0,3,,,,,,,,,2,,,57,36
10620,note_on,0,0,3,,,,,,,,,2,,,61,36
10620,note_on,60,0,1,,,,,,,,,0,,,75,0
10620,note_on,0,0,1,,,,,,,,,0,,,72,49
10626,note_on,0,0,3,,,,,,,,,2,,,57,0
10626,note_on,6,0,3,,,,,,,,,2,,,61,0
10626,note_on,6,0,1,,,,,,,,,0,,,72,0
10680,note_on,54,0,3,,,,,,,,,2,,,58,36
10680,note_on,54,0,1,,,,,,,,,0,,,73,49
10680,note_on,0,0,3,,,,,,,,,2,,,61,36
10740,note_on,60,0,3,,,,,,,,,2,,,61,0
10740,note_on,0,0,3,,,,,,,,,2,,,56,36
10740,note_on,0,0,3,,,,,,,,,2,,,59,36
10740,note_on,0,0,3,,,,,,,,,2,,,58,0
10800,note_on,120,0,1,,,,,,,,,0,,,73,0
10800,control_change,0,0,3,,,,,,,,,2,64,0,,
10800,note_on,60,0,3,,,,,,,,,2,,,59,0
10800,note_on,0,0,3,,,,,,,,,2,,,56,0
10800,note_on,0,0,3,,,,,,,,,2,,,54,36
10800,note_on,0,0,3,,,,,,,,,2,,,58,36
10800,control_change,0,0,1,,,,,,,,,0,64,0,,
10800,note_on,0,0,1,,,,,,,,,0,,,82,49
10806,note_on,0,0,3,,,,,,,,,2,,,54,0
10806,note_on,6,0,3,,,,,,,,,2,,,58,0
10860,control_change,0,0,1,,,,,,,,,0,64,127,,
10860,note_on,0,0,3,,,,,,,,,2,,,39,49
10860,note_on,0,0,1,,,,,,,,,0,,,70,62
10860,control_change,54,0,3,,,,,,,,,2,64,127,,
10860,note_on,60,0,1,,,,,,,,,0,,,82,0
10866,note_on,6,0,3,,,,,,,,,2,,,39,0
10920,note_on,54,0,3,,,,,,,,,2,,,54,49
10920,note_on,0,0,3,,,,,,,,,2,,,58,49
10920,note_on,60,0,1,,,,,,,,,0,,,70,0
10920,note_on,0,0,1,,,,,,,,,0,,,71,62
10926,note_on,6,0,3,,,,,,,,,2,,,58,0
10926,note_on,0,0,3,,,,,,,,,2,,,54,0
10980,note_on,60,0,1,,,,,,,,,0,,,71,0
10980,note_on,0,0,1,,,,,,,,,0,,,69,62
10980,note_on,54,0,3,,,,,,,,,2,,,53,49
10980,note_on,0,0,3,,,,,,,,,2,,,58,49
10986,note_on,0,0,3,,,,,,,,,2,,,53,0
10986,note_on,6,0,1,,,,,,,,,0,,,69,0
10986,note_on,6,0,3,,,,,,,,,2,,,58,0
11040,note_on,54,0,3,,,,,,,,,2,,,54,62
11040,note_on,54,0,1,,,,,,,,,0,,,70,75
11040,note_on,0,0,3,,,,,,,,,2,,,58,62
11100,note_on,60,0,3,,,,,,,,,2,,,58,0
11100,note_on,0,0,3,,,,,,,,,2,,,53,62
11100,note_on,0,0,3,,,,,,,,,2,,,56,62
11100,note_on,0,0,3,,,,,,,,,2,,,54,0
11160,control_change,0,0,3,,,,,,,,,2,64,0,,
11160,note_on,0,0,1,,,,,,,,,0,,,78,75
11160,control_change,0,0,1,,,,,,,,,0,64,0,,
11160,note_on,120,0,1,,,,,,,,,0,,,70,0
11160,note_on,60,0,3,,,,,,,,,2,,,56,0
11160,note_on,0,0,3,,,,,,,,,2,,,53,0
11160,note_on,0,0,3,,,,,,,,,2,,,54,62
11160,note_on,0,0,3,,,,,,,,,2,,,51,62
11166,note_on,0,0,3,,,,,,,,,2,,,51,0
11166,note_on,6,0,3,,,,,,,,,2,,,54,0
11220,control_change,54,0,3,,,,,,,,,2,64,127,,
11220,note_on,0,0,3,,,,,,,,,2,,,35,62
11220,note_on,60,0,1,,,,,,,,,0,,,78,0
11220,control_change,0,0,1,,,,,,,,,0,64,127,,
11220,note_on,0,0,1,,,,,,,,,0,,,66,75
11226,note_on,6,0,3,,,,,,,,,2,,,35,0
11280,note_on,0,0,3,,,,,,,,,2,,,54,62
11280,note_on,54,0,3,,,,,,,,,2,,,51,62
11280,note_on,0,0,1,,,,,,,,,0,,,68,75
11280,note_on,60,0,1,,,,,,,,,0,,,66,0
11286,note_on,0,0,3,,,,,,,,,2,,,51,0
11286,note_on,6,0,3,,,,,,,,,2,,,54,0
11340,note_on,54,0,3,,,,,,,,,2,,,50,62
11340,note_on,0,0,3,,,,,,,,,2,,,54,62
11340,note_on,60,0,1,,,,,,,,,0,,,68,0
11340,note_on,0,0,1,,,,,,,,,0,,,65,75
11346,note_on,0,0,3,,,,,,,,,2,,,50,0
11346,note_on,6,0,1,,,,,,,,,0,,,65,0
11346,note_on,6,0,3,,,,,,,,,2,,,54,0
11400,note_on,54,0,1,,,,,,,,,0,,,66,75
11400,note_on,0,0,3,,,,,,,,,2,,,54,62
11400,note_on,54,0,3,,,,,,,,,2,,,51,62
11460,note_on,0,0,3,,,,,,,,,2,,,52,62
11460,note_on,60,0,3,,,,,,,,,2,,,54,0
11460,note_on,0,0,3,,,,,,,,,2,,,49,62
11460,note_on,0,0,3,,,,,,,,,2,,,51,0
11520,note_on,60,0,3,,,,,,,,,2,,,52,0
11520,note_on,0,0,3,,,,,,,,,2,,,49,0
11520,control_change,0,0,3,,,,,,,,,2,64,0,,
11520,note_on,0,0,3,,,,,,,,,2,,,47,36
11520,note_on,0,0,3,,,,,,,,,2,,,51,36
11520,control_change,0,0,1,,,,,,,,,0,64,0,,
11520,note_on,120,0,1,,,,,,,,,0,,,66,0
11520,note_on,0,0,1,,,,,,,,,0,,,75,49
11526,note_on,0,0,3,,,,,,,,,2,,,47,0
11526,note_on,6,0,3,,,,,,,,,2,,,51,0
11580,note_on,60,0,1,,,,,,,,,0,,,75,0
11580,note_on,0,0,1,,,,,,,,,0,,,73,49
11580,note_on,0,0,3,,,,,,,,,2,,,53,36
11580,note_on,0,0,3,,,,,,,,,2,,,49,36
11580,control_change,54,0,3,,,,,,,,,2,64,127,,
11580,control_change,0,0,1,,,,,,,,,0,64,127,,
11640,note_on,0,0,3,,,,,,,,,2,,,49,0
11640,note_on,60,0,3,,,,,,,,,2,,,53,0
11640,note_on,0,0,3,,,,,,,,,2,,,61,36
11700,note_on,60,0,3,,,,,,,,,2,,,61,0
11700,control_change,0,0,3,,,,,,,,,2,64,0,,
11700,note_on,0,0,3,,,,,,,,,2,,,49,36
11700,note_on,0,0,3,,,,,,,,,2,,,53,36
11700,note_on,120,0,1,,,,,,,,,0,,,73,0
11700,note_on,0,0,1,,,,,,,,,0,,,69,49
11700,control_change,0,0,1,,,,,,,,,0,64,0,,
11760,control_change,0,0,3,,,,,,,,,2,64,127,,
11760,note_on,60,0,1,,,,,,,,,0,,,69,0
11760,note_on,0,0,3,,,,,,,,,2,,,49,0
11760,note_on,0,0,1,,,,,,,,,0,,,70,49
11760,note_on,0,0,3,,,,,,,,,2,,,54,36
11760,note_on,60,0,3,,,,,,,,,2,,,53,0
11820,note_on,60,0,3,,,,,,,,,2,,,54,0
11820,note_on,0,0,3,,,,,,,,,2,,,37,36
11826,note_on,6,0,3,,,,,,,,,2,,,37,0
11880,note_on,0,0,3,,,,,,,,,2,,,41,36
11880,note_on,120,0,1,,,,,,,,,0,,,70,0
11880,control_change,54,0,3,,,,,,,,,2,64,0,,
11886,note_on,6,0,3,,,,,,,,,2,,,41,0
11940,control_change,60,0,1,,,,,,,,,0,64,127,,
11940,note_on,0,0,1,,,,,,,,,0,,,73,36
11940,control_change,54,0,3,,,,,,,,,2,64,127,,
11940,note_on,0,0,3,,,,,,,,,2,,,42,36
11946,note_on,6,0,3,,,,,,,,,2,,,42,0
12000,note_on,0,0,3,,,,,,,,,2,,,66,36
12000,note_on,54,0,3,,,,,,,,,2,,,57,36
12000,note_on,60,0,1,,,,,,,,,0,,,73,0
12000,note_on,0,0,1,,,,,,,,,0,,,74,36
12006,note_on,6,0,3,,,,,,,,,2,,,66,0
12006,note_on,0,0,3,,,,,,,,,2,,,57,0
12060,note_on,0,0,3,,,,,,,,,2,,,66,36
12060,note_on,54,0,3,,,,,,,,,2,,,57,36
12060,note_on,60,0,1,,,,,,,,,0,,,74,0
12060,note_on,0,0,1,,,,,,,,,0,,,72,36
12066,note_on,0,0,3,,,,,,,,,2,,,57,0
12066,note_on,6,0,3,,,,,,,,,2,,,66,0
12120,note_on,0,0,3,,,,,,,,,2,,,66,36
12120,note_on,0,0,1,,,,,,,,,0,,,73,36
12120,note_on,54,0,3,,,,,,,,,2,,,57,36
12120,note_on,60,0,1,,,,,,,,,0,,,72,0
12126,note_on,0,0,3,,,,,,,,,2,,,57,0
12126,note_on,6,0,3,,,,,,,,,2,,,66,0
12180,note_on,0,0,3,,,,,,,,,2,,,66,36
12180,note_on,54,0,3,,,,,,,,,2,,,57,36
12186,note_on,0,0,3,,,,,,,,,2,,,57,0
12186,note_on,6,0,3,,,,,,,,,2,,,66,0
12240,note_on,54,0,3,,,,,,,,,2,,,57,36
12240,note_on,0,0,3,,,,,,,,,2,,,66,36
12240,note_on,0,0,1,,,,,,,,,0,,,78,36
12240,note_on,120,0,1,,,,,,,,,0,,,73,0
12246,note_on,0,0,3,,,,,,,,,2,,,57,0
12246,note_on,6,0,3,,,,,,,,,2,,,66,0
12300,note_on,0,0,3,,,,,,,,,2,,,61,36
12300,note_on,54,0,3,,,,,,,,,2,,,57,36
12300,note_on,0,0,1,,,,,,,,,0,,,78,62
12300,note_on,60,0,1,,,,,,,,,0,,,78,0
12306,note_on,0,0,3,,,,,,,,,2,,,57,0
12306,note_on,6,0,3,,,,,,,,,2,,,61,0
12360,note_on,0,0,3,,,,,,,,,2,,,66,36
12360,note_on,54,0,3,,,,,,,,,2,,,57,36
12366,note_on,0,0,3,,,,,,,,,2,,,57,0
12366,note_on,6,0,3,,,,,,,,,2,,,66,0
12420,note_on,120,0,1,,,,,,,,,0,,,78,0
12420,note_on,0,0,1,,,,,,,,,0,,,73,36
12420,note_on,54,0,3,,,,,,,,,2,,,57,36
12420,note_on,0,0,3,,,,,,,,,2,,,66,36
12426,note_on,6,0,3,,,,,,,,,2,,,66,0
12426,note_on,0,0,3,,,,,,,,,2,,,57,0
12480,note_on,60,0,1,,,,,,,,,0,,,73,0
12480,control_change,0,0,1,,,,,,,,,0,64,0,,
12480,note_on,0,0,1,,,,,,,,,0,,,73,36
12480,note_on,54,0,3,,,,,,,,,2,,,57,36
12480,note_on,0,0,3,,,,,,,,,2,,,66,36
12486,note_on,0,0,3,,,,,,,,,2,,,57,0
12486,note_on,6,0,3,,,,,,,,,2,,,66,0
12540,note_on,54,0,3,,,,,,,,,2,,,57,36
12540,note_on,0,0,3,,,,,,,,,2,,,61,36
12546,note_on,6,0,3,,,,,,,,,2,,,61,0
12546,note_on,0,0,3,,,,,,,,,2,,,57,0
12600,note_on,120,0,1,,,,,,,,,0,,,73,0
12600,note_on,0,0,3,,,,,,,,,2,,,66,36
12600,note_on,0,0,3,,,,,,,,,2,,,57,36
12600,control_change,54,0,3,,,,,,,,,2,64,0,,
12606,note_on,6,0,3,,,,,,,,,2,,,66,0
12606,note_on,0,0,3,,,,,,,,,2,,,57,0
12660,note_on,0,0,1,,,,,,,,,0,,,74,49
12660,control_change,60,0,1,,,,,,,,,0,64,127,,
12660,control_change,54,0,3,,,,,,,,,2,64,127,,
12660,note_on,0,0,3,,,,,,,,,2,,,40,36
12666,note_on,6,0,3,,,,,,,,,2,,,40,0
12720,note_on,0,0,3,,,,,,,,,2,,,59,36
12720,note_on,0,0,1,,,,,,,,,0,,,76,49
12720,note_on,60,0,1,,,,,,,,,0,,,74,0
12720,note_on,54,0,3,,,,,,,,,2,,,56,36
12720,note_on,0,0,3,,,,,,,,,2,,,64,36
12726,note_on,6,0,3,,,,,,,,,2,,,64,0
12726,note_on,0,0,3,,,,,,,,,2,,,59,0
12726,note_on,0,0,3,,,,,,,,,2,,,56,0
12780,note_on,0,0,3,,,,,,,,,2,,,64,36
12780,note_on,0,0,3,,,,,,,,,2,,,59,36
12780,note_on,54,0,3,,,,,,,,,2,,,56,36
12780,note_on,0,0,1,,,,,,,,,0,,,73,49
12780,note_on,60,0,1,,,,,,,,,0,,,76,0
12786,note_on,6,0,3,,,,,,,,,2,,,64,0
12786,note_on,0,0,3,,,,,,,,,2,,,59,0
12786,note_on,0,0,3,,,,,,,,,2,,,56,0
12840,note_on,60,0,1,,,,,,,,,0,,,73,0
12840,note_on,54,0,3,,,,,,,,,2,,,56,49
12840,note_on,0,0,3,,,,,,,,,2,,,64,49
12840,note_on,0,0,1,,,,,,,,,0,,,74,62
12840,note_on,0,0,3,,,,,,,,,2,,,59,49
12846,note_on,6,0,3,,,,,,,,,2,,,64,0
12846,note_on,0,0,3,,,,,,,,,2,,,59,0
12846,note_on,0,0,3,,,,,,,,,2,,,56,0
12900,note_on,54,0,3,,,,,,,,,2,,,56,49
12900,note_on,0,0,3,,,,,,,,,2,,,59,49
12900,note_on,0,0,3,,,,,,,,,2,,,64,49
12906,note_on,6,0,3,,,,,,,,,2,,,64,0
12906,note_on,0,0,3,,,,,,,,,2,,,59,0
12906,note_on,0,0,3,,,,,,,,,2,,,56,0
12960,note_on,0,0,1,,,,,,,,,0,,,83,62
12960,note_on,120,0,1,,,,,,,,,0,,,74,0
12960,note_on,0,0,3,,,,,,,,,2,,,59,49
12960,note_on,0,0,3,,,,,,,,,2,,,64,49
12960,note_on,54,0,3,,,,,,,,,2,,,56,49
12966,note_on,6,0,3,,,,,,,,,2,,,64,0
12966,note_on,0,0,3,,,,,,,,,2,,,59,0
12966,note_on,0,0,3,,,,,,,,,2,,,56,0
13020,note_on,0,0,3,,,,,,,,,2,,,59,62
13020,note_on,60,0,1,,,,,,,,,0,,,83,0
13020,note_on,0,0,1,,,,,,,,,0,,,83,101
13020,note_on,54,0,3,,,,,,,,,2,,,56,62
13026,note_on,6,0,3,,,,,,,,,2,,,59,0
13026,note_on,0,0,3,,,,,,,,,2,,,56,0
13080,note_on,54,0,3,,,,,,,,,2,,,56,62
13080,note_on,0,0,3,,,,,,,,,2,,,64,62
13086,note_on,6,0,3,,,,,,,,,2,,,64,0
13086,note_on,0,0,3,,,,,,,,,2,,,56,0
13140,note_on,54,0,3,,,,,,,,,2,,,56,62
13140,note_on,0,0,3,,,,,,,,,2,,,64,62
13140,note_on,0,0,1,,,,,,,,,0,,,74,75
13140,note_on,120,0,1,,,,,,,,,0,,,83,0
13146,note_on,6,0,3,,,,,,,,,2,,,64,0
13146,note_on,0,0,3,,,,,,,,,2,,,56,0
13200,note_on,60,0,1,,,,,,,,,0,,,74,0
13200,control_change,0,0,1,,,,,,,,,0,64,0,,
13200,note_on,0,0,3,,,,,,,,,2,,,64,62
13200,note_on,54,0,3,,,,,,,,,2,,,56,62
13200,note_on,0,0,1,,,,,,,,,0,,,74,75
13206,note_on,6,0,3,,,,,,,,,2,,,64,0
13206,note_on,0,0,3,,,,,,,,,2,,,56,0
13260,note_on,0,0,3,,,,,,,,,2,,,59,62
13260,note_on,54,0,3,,,,,,,,,2,,,56,62
13266,note_on,0,0,3,,,,,,,,,2,,,56,0
13266,note_on,6,0,3,,,,,,,,,2,,,59,0
13320,note_on,120,0,1,,,,,,,,,0,,,74,0
13320,control_change,54,0,3,,,,,,,,,2,64,0,,
13320,note_on,0,0,3,,,,,,,,,2,,,64,62
13320,note_on,0,0,3,,,,,,,,,2,,,56,62
13326,note_on,0,0,3,,,,,,,,,2,,,56,0
13326,note_on,6,0,3,,,,,,,,,2,,,64,0
13380,note_on,0,0,3,,,,,,,,,2,,,41,36
13380,control_change,54,0,3,,,,,,,,,2,64,127,,
13380,control_change,60,0,1,,,,,,,,,0,64,127,,
13380,note_on,0,0,1,,,,,,,,,0,,,73,49
13386,note_on,6,0,3,,,,,,,,,2,,,41,0
13440,note_on,54,0,3,,,,,,,,,2,,,59,36
13440,note_on,60,0,1,,,,,,,,,0,,,73,0
13440,note_on,0,0,3,,,,,,,,,2,,,61,36
13440,note_on,0,0,1,,,,,,,,,0,,,75,49
13446,note_on,6,0,3,,,,,,,,,2,,,61,0
13446,note_on,0,0,3,,,,,,,,,2,,,59,0
13500,note_on,0,0,1,,,,,,,,,0,,,72,49
13500,note_on,54,0,3,,,,,,,,,2,,,59,36
13500,note_on,0,0,3,,,,,,,,,2,,,61,36
13500,note_on,60,0,1,,,,,,,,,0,,,75,0
13506,note_on,6,0,3,,,,,,,,,2,,,61,0
13506,note_on,0,0,3,,,,,,,,,2,,,59,0
13506,note_on,6,0,1,,,,,,,,,0,,,72,0
13560,note_on,54,0,3,,,,,,,,,2,,,59,36
13560,note_on,54,0,1,,,,,,,,,0,,,73,49
13560,note_on,0,0,3,,,,,,,,,2,,,61,36
13566,note_on,6,0,3,,,,,,,,,2,,,61,0
13566,note_on,0,0,3,,,,,,,,,2,,,59,0
13620,note_on,54,0,3,,,,,,,,,2,,,59,36
13620,note_on,0,0,3,,,,,,,,,2,,,68,36
13626,note_on,6,0,3,,,,,,,,,2,,,68,0
13626,note_on,0,0,3,,,,,,,,,2,,,59,0
13680,control_change,0,0,1,,,,,,,,,0,64,0,,
13680,note_on,0,0,3,,,,,,,,,2,,,61,36
13680,note_on,0,0,3,,,,,,,,,2,,,59,36
13680,note_on,0,0,1,,,,,,,,,0,,,80,49
13680,note_on,120,0,1,,,,,,,,,0,,,73,0
13680,control_change,54,0,3,,,,,,,,,2,64,0,,
13686,note_on,0,0,3,,,,,,,,,2,,,59,0
13686,note_on,6,0,3,,,,,,,,,2,,,61,0
13740,control_change,0,0,1,,,,,,,,,0,64,127,,
13740,note_on,60,0,1,,,,,,,,,0,,,80,0
13740,note_on,0,0,3,,,,,,,,,2,,,42,36
13740,control_change,54,0,3,,,,,,,,,2,64,127,,
13740,note_on,0,0,1,,,,,,,,,0,,,73,49
13746,note_on,6,0,3,,,,,,,,,2,,,42,0
13800,note_on,0,0,1,,,,,,,,,0,,,75,49
13800,note_on,60,0,1,,,,,,,,,0,,,73,0
13800,note_on,54,0,3,,,,,,,,,2,,,58,36
13800,note_on,0,0,3,,,,,,,,,2,,,61,36
13806,note_on,6,0,3,,,,,,,,,2,,,61,0
13806,note_on,0,0,3,,,,,,,,,2,,,58,0
13860,note_on,0,0,1,,,,,,,,,0,,,72,49
13860,note_on,60,0,1,,,,,,,,,0,,,75,0
13860,note_on,54,0,3,,,,,,,,,2,,,58,36
13860,note_on,0,0,3,,,,,,,,,2,,,61,36
13866,note_on,6,0,3,,,,,,,,,2,,,61,0
13866,note_on,0,0,3,,,,,,,,,2,,,58,0
13866,note_on,6,0,1,,,,,,,,,0,,,72,0
13920,note_on,54,0,3,,,,,,,,,2,,,58,36
13920,note_on,0,0,3,,,,,,,,,2,,,61,36
13920,note_on,54,0,1,,,,,,,,,0,,,73,49
13926,note_on,0,0,3,,,,,,,,,2,,,58,0
13926,note_on,6,0,3,,,,,,,,,2,,,61,0
13980,note_on,54,0,3,,,,,,,,,2,,,58,36
13980,note_on,0,0,3,,,,,,,,,2,,,66,36
13986,note_on,0,0,3,,,,,,,,,2,,,58,0
13986,note_on,6,0,3,,,,,,,,,2,,,66,0
14040,note_on,0,0,1,,,,,,,,,0,,,82,49
14040,control_change,0,0,1,,,,,,,,,0,64,0,,
14040,note_on,120,0,1,,,,,,,,,0,,,73,0
14040,note_on,0,0,3,,,,,,,,,2,,,58,36
14040,note_on,0,0,3,,,,,,,,,2,,,61,36
14040,control_change,54,0,3,,,,,,,,,2,64,0,,
14046,note_on,0,0,3,,,,,,,,,2,,,58,0
14046,note_on,6,0,3,,,,,,,,,2,,,61,0
14100,note_on,0,0,3,,,,,,,,,2,,,49,36
14100,control_change,54,0,3,,,,,,,,,2,64,127,,
14100,control_change,0,0,1,,,,,,,,,0,64,127,,
14100,note_on,60,0,1,,,,,,,,,0,,,82,0
14100,note_on,0,0,1,,,,,,,,,0,,,82,49
14106,note_on,6,0,3,,,,,,,,,2,,,49,0
14160,note_on,54,0,3,,,,,,,,,2,,,59,36
14160,note_on,0,0,3,,,,,,,,,2,,,65,36
14166,note_on,0,0,3,,,,,,,,,2,,,59,0
14166,note_on,6,0,3,,,,,,,,,2,,,65,0
14220,note_on,120,0,1,,,,,,,,,0,,,82,0
14220,note_on,0,0,3,,,,,,,,,2,,,65,36
14220,note_on,54,0,3,,,,,,,,,2,,,61,36
14220,note_on,0,0,1,,,,,,,,,0,,,80,49
14226,note_on,6,0,3,,,,,,,,,2,,,65,0
14226,note_on,0,0,3,,,,,,,,,2,,,61,0
14280,control_change,54,0,3,,,,,,,,,2,64,0,,
14280,note_on,0,0,3,,,,,,,,,2,,,54,36
14280,note_on,0,0,3,,,,,,,,,2,,,58,36
14280,note_on,0,0,3,,,,,,,,,2,,,66,36
14280,note_on,0,0,1,,,,,,,,,0,,,78,49
14280,control_change,0,0,1,,,,,,,,,0,64,0,,
14280,note_on,60,0,1,,,,,,,,,0,,,80,0
14400,note_on,0,0,1,,,,,,,,,0,,,54,101
14400,note_on,120,0,1,,,,,,,,,0,,,78,0
14400,note_on,0,0,3,,,,,,,,,2,,,58,0
14400,note_on,0,0,3,,,,,,,,,2,,,42,88
14400,note_on,0,0,3,,,,,,,,,2,,,54,0
14400,note_on,120,0,3,,,,,,,,,2,,,66,0
14430,note_on,30,0,3,,,,,,,,,2,,,42,0
14430,note_on,30,0,1,,,,,,,,,0,,,54,0
14430,note_on,0,0,3,,,,,,,,,2,,,44,88
14430,note_on,0,0,1,,,,,,,,,0,,,56,101
14460,note_on,30,0,3,,,,,,,,,2,,,44,0
14460,note_on,0,0,1,,,,,,,,,0,,,57,127
14460,note_on,0,0,3,,,,,,,,,2,,,45,114
14460,note_on,30,0,1,,,,,,,,,0,,,56,0
14580,note_on,120,0,1,,,,,,,,,0,,,57,0
14580,note_on,0,0,1,,,,,,,,,0,,,56,101
14580,note_on,0,0,3,,,,,,,,,2,,,44,88
14580,note_on,120,0,3,,,,,,,,,2,,,45,0
14610,note_on,0,0,1,,,,,,,,,0,,,57,101
14610,note_on,30,0,1,,,,,,,,,0,,,56,0
14610,note_on,0,0,3,,,,,,,,,2,,,45,88
14610,note_on,30,0,3,,,,,,,,,2,,,44,0
14640,note_on,0,0,3,,,,,,,,,2,,,47,114
14640,note_on,0,0,1,,,,,,,,,0,,,59,127
14640,control_change,0,0,1,,,,,,,,,0,64,127,,
14640,control_change,0,0,3,,,,,,,,,2,64,127,,
14640,note_on,30,0,3,,,,,,,,,2,,,45,0
14640,note_on,30,0,1,,,,,,,,,0,,,57,0
14760,note_on,0,0,3,,,,,,,,,2,,,45,88
14760,note_on,120,0,1,,,,,,,,,0,,,59,0
14760,note_on,0,0,1,,,,,,,,,0,,,57,101
14760,note_on,120,0,3,,,,,,,,,2,,,47,0
14790,note_on,30,0,1,,,,,,,,,0,,,57,0
14790,control_change,0,0,1,,,,,,,,,0,64,0,,
14790,note_on,0,0,1,,,,,,,,,0,,,59,101
14790,note_on,30,0,3,,,,,,,,,2,,,45,0
14790,control_change,0,0,3,,,,,,,,,2,64,0,,
14790,note_on,0,0,3,,,,,,,,,2,,,47,88
14820,control_change,0,0,1,,,,,,,,,0,64,127,,
14820,note_on,30,0,3,,,,,,,,,2,,,47,0
14820,control_change,0,0,3,,,,,,,,,2,64,127,,
14820,note_on,0,0,3,,,,,,,,,2,,,49,114
14820,note_on,0,0,1,,,,,,,,,0,,,61,127
14820,note_on,30,0,1,,,,,,,,,0,,,59,0
14940,note_on,0,0,3,,,,,,,,,2,,,47,88
14940,note_on,0,0,1,,,,,,,,,0,,,59,101
14940,note_on,120,0,1,,,,,,,,,0,,,61,0
14940,note_on,120,0,3,,,,,,,,,2,,,49,0
14970,note_on,30,0,1,,,,,,,,,0,,,59,0
14970,note_on,0,0,3,,,,,,,,,2,,,49,88
14970,note_on,30,0,3,,,,,,,,,2,,,47,0
14970,note_on,0,0,1,,,,,,,,,0,,,61,101
15000,note_on,30,0,3,,,,,,,,,2,,,49,0
15000,note_on,30,0,1,,,,,,,,,0,,,61,0
15000,control_change,0,0,3,,,,,,,,,2,64,0,,
15000,note_on,0,0,3,,,,,,,,,2,,,50,88
15000,control_change,0,0,1,,,,,,,,,0,64,0,,
15000,note_on,0,0,1,,,,,,,,,0,,,62,101
15060,note_on,0,0,1,,,,,,,,,0,,,61,101
15060,note_on,60,0,3,,,,,,,,,2,,,50,0
15060,note_on,0,0,3,,,,,,,,,2,,,49,88
15060,note_on,60,0,1,,,,,,,,,0,,,62,0
15066,note_on,6,0,1,,,,,,,,,0,,,61,0
15066,note_on,6,0,3,,,,,,,,,2,,,49,0
15120,note_on,54,0,3,,,,,,,,,2,,,48,88
15120,note_on,54,0,1,,,,,,,,,0,,,60,101
15126,note_on,6,0,3,,,,,,,,,2,,,48,0
15126,note_on,6,0,1,,,,,,,,,0,,,60,0
15180,control_change,54,0,1,,,,,,,,,0,64,127,,
15180,note_on,0,0,1,,,,,,,,,0,,,61,127
15180,control_change,54,0,3,,,,,,,,,2,64,127,,
15180,note_on,0,0,3,,,,,,,,,2,,,49,114
15300,note_on,120,0,3,,,,,,,,,2,,,49,0
15300,note_on,0,0,3,,,,,,,,,2,,,47,88
15300,note_on,0,0,1,,,,,,,,,0,,,59,101
15300,note_on,120,0,1,,,,,,,,,0,,,61,0
15330,note_on,0,0,3,,,,,,,,,2,,,49,88
15330,note_on,0,0,1,,,,,,,,,0,,,61,101
15330,note_on,30,0,1,,,,,,,,,0,,,59,0
15330,note_on,30,0,3,,,,,,,,,2,,,47,0
15360,note_on,30,0,3,,,,,,,,,2,,,49,0
15360,control_change,0,0,1,,,,,,,,,0,64,0,,
15360,note_on,0,0,1,,,,,,,,,0,,,62,101
15360,control_change,0,0,3,,,,,,,,,2,64,0,,
15360,note_on,0,0,3,,,,,,,,,2,,,50,88
15360,note_on,30,0,1,,,,,,,,,0,,,61,0
15420,note_on,60,0,1,,,,,,,,,0,,,62,0
15420,note_on,0,0,3,,,,,,,,,2,,,49,88
15420,note_on,60,0,3,,,,,,,,,2,,,50,0
15420,note_on,0,0,1,,,,,,,,,0,,,61,101
15426,note_on,6,0,1,,,,,,,,,0,,,61,0
15426,note_on,6,0,3,,,,,,,,,2,,,49,0
15480,note_on,54,0,1,,,,,,,,,0,,,60,101
15480,note_on,54,0,3,,,,,,,,,2,,,48,88
15486,note_on,6,0,1,,,,,,,,,0,,,60,0
15486,note_on,6,0,3,,,,,,,,,2,,,48,0
15540,note_on,54,0,3,,,,,,,,,2,,,49,114
15540,note_on,54,0,1,,,,,,,,,0,,,61,127
15660,note_on,120,0,1,,,,,,,,,0,,,61,0
15660,note_on,120,0,3,,,,,,,,,2,,,49,0
15720,control_change,60,0,1,,,,,,,,,0,64,127,,
15720,note_on,0,0,1,,,,,,,,,0,,,75,49
15720,note_on,0,0,3,,,,,,,,,2,,,60,36
15720,control_change,60,0,3,,,,,,,,,2,64,127,,
15720,note_on,0,0,3,,,,,,,,,2,,,66,36
15720,note_on,0,0,1,,,,,,,,,0,,,82,49
15726,note_on,6,0,3,,,,,,,,,2,,,66,0
15726,note_on,0,0,1,,,,,,,,,0,,,75,0
15726,note_on,0,0,3,,,,,,,,,2,,,60,0
15726,note_on,6,0,1,,,,,,,,,0,,,82,0
15780,note_on,54,0,3,,,,,,,,,2,,,60,36
15780,note_on,0,0,3,,,,,,,,,2,,,68,36
15780,note_on,54,0,1,,,,,,,,,0,,,75,49
15780,note_on,0,0,1,,,,,,,,,0,,,80,49
15786,note_on,6,0,3,,,,,,,,,2,,,68,0
15786,note_on,0,0,1,,,,,,,,,0,,,75,0
15786,note_on,0,0,3,,,,,,,,,2,,,60,0
15786,note_on,6,0,1,,,,,,,,,0,,,80,0
15840,control_change,54,0,3,,,,,,,,,2,64,0,,
15840,note_on,0,0,3,,,,,,,,,2,,,60,36
15840,control_change,54,0,1,,,,,,,,,0,64,0,,
15840,note_on,0,0,1,,,,,,,,,0,,,78,49
15840,note_on,0,0,1,,,,,,,,,0,,,75,49
15840,note_on,0,0,3,,,,,,,,,2,,,70,36
15846,note_on,0,0,3,,,,,,,,,2,,,60,0
15846,note_on,0,0,1,,,,,,,,,0,,,75,0
15846,note_on,6,0,1,,,,,,,,,0,,,78,0
15846,note_on,6,0,3,,,,,,,,,2,,,70,0
15900,note_on,54,0,3,,,,,,,,,2,,,61,36
15900,note_on,0,0,3,,,,,,,,,2,,,70,36
15900,note_on,54,0,1,,,,,,,,,0,,,73,49
16080,note_on,0,0,3,,,,,,,,,2,,,68,36
16080,note_on,0,0,3,,,,,,,,,2,,,71,36
16080,note_on,180,0,1,,,,,,,,,0,,,73,0
16080,note_on,0,0,1,,,,,,,,,0,,,77,49
16080,note_on,180,0,3,,,,,,,,,2,,,70,0
16260,note_on,0,0,3,,,,,,,,,2,,,66,36
16260,note_on,180,0,3,,,,,,,,,2,,,71,0
16260,note_on,0,0,3,,,,,,,,,2,,,68,0
16260,note_on,0,0,3,,,,,,,,,2,,,61,0
16260,control_change,0,0,3,,,,,,,,,2,64,127,,
16260,note_on,0,0,3,,,,,,,,,2,,,54,36
16260,note_on,180,0,1,,,,,,,,,0,,,77,0
16260,control_change,0,0,1,,,,,,,,,0,64,127,,
16260,note_on,0,0,1,,,,,,,,,0,,,78,49
16260,note_on,0,0,1,,,,,,,,,0,,,70,49
16380,note_on,0,0,1,,,,,,,,,0,,,59,101
16380,note_on,120,0,3,,,,,,,,,2,,,66,0
16380,note_on,0,0,3,,,,,,,,,2,,,54,0
16380,note_on,0,0,3,,,,,,,,,2,,,47,88
16380,note_on,0,0,1,,,,,,,,,0,,,70,0
16380,note_on,120,0,1,,,,,,,,,0,,,78,0
16410,note_on,30,0,3,,,,,,,,,2,,,47,0
16410,note_on,0,0,3,,,,,,,,,2,,,49,88
16410,note_on,0,0,1,,,,,,,,,0,,,61,101
16410,note_on,30,0,1,,,,,,,,,0,,,59,0
16440,note_on,0,0,1,,,,,,,,,0,,,62,101
16440,control_change,0,0,1,,,,,,,,,0,64,0,,
16440,note_on,0,0,3,,,,,,,,,2,,,50,88
16440,control_change,0,0,3,,,,,,,,,2,64,0,,
16440,note_on,30,0,3,,,,,,,,,2,,,49,0
16440,note_on,30,0,1,,,,,,,,,0,,,61,0
16500,note_on,0,0,3,,,,,,,,,2,,,49,88
16500,note_on,0,0,1,,,,,,,,,0,,,61,101
16500,note_on,60,0,1,,,,,,,,,0,,,62,0
16500,note_on,60,0,3,,,,,,,,,2,,,50,0
16506,note_on,6,0,1,,,,,,,,,0,,,61,0
16506,note_on,6,0,3,,,,,,,,,2,,,49,0
16560,note_on,54,0,3,,,,,,,,,2,,,48,88
16560,note_on,54,0,1,,,,,,,,,0,,,60,101
16566,note_on,6,0,3,,,,,,,,,2,,,48,0
16566,note_on,6,0,1,,,,,,,,,0,,,60,0
16620,note_on,0,0,1,,,,,,,,,0,,,61,127
16620,control_change,54,0,3,,,,,,,,,2,64,127,,
16620,control_change,54,0,1,,,,,,,,,0,64,127,,
16620,note_on,0,0,3,,,,,,,,,2,,,49,114
16740,note_on,120,0,1,,,,,,,,,0,,,61,0
16740,note_on,0,0,1,,,,,,,,,0,,,59,101
16740,note_on,120,0,3,,,,,,,,,2,,,49,0
16740,note_on,0,0,3,,,,,,,,,2,,,47,88
16770,note_on,30,0,3,,,,,,,,,2,,,47,0
16770,note_on,30,0,1,,,,,,,,,0,,,59,0
16770,note_on,0,0,1,,,,,,,,,0,,,61,101
16770,note_on,0,0,3,,,,,,,,,2,,,49,88
16800,note_on,30,0,3,,,,,,,,,2,,,49,0
16800,note_on,0,0,3,,,,,,,,,2,,,50,88
16800,note_on,30,0,1,,,,,,,,,0,,,61,0
16800,control_change,0,0,1,,,,,,,,,0,64,0,,
16800,note_on,0,0,1,,,,,,,,,0,,,62,101
16800,control_change,0,0,3,,,,,,,,,2,64,0,,
16860,note_on,0,0,3,,,,,,,,,2,,,49,88
16860,note_on,0,0,1,,,,,,,,,0,,,61,101
16860,note_on,60,0,1,,,,,,,,,0,,,62,0
16860,note_on,60,0,3,,,,,,,,,2,,,50,0
16866,note_on,6,0,1,,,,,,,,,0,,,61,0
16866,note_on,6,0,3,,,,,,,,,2,,,49,0
16920,note_on,54,0,1,,,,,,,,,0,,,60,101
16920,note_on,54,0,3,,,,,,,,,2,,,48,88
16926,note_on,6,0,1,,,,,,,,,0,,,60,0
16926,note_on,6,0,3,,,,,,,,,2,,,48,0
16980,note_on,54,0,1,,,,,,,,,0,,,61,127
16980,note_on,54,0,3,,,,,,,,,2,,,49,114
17100,note_on,120,0,1,,,,,,,,,0,,,61,0
17100,note_on,120,0,3,,,,,,,,,2,,,49,0
17160,note_on,0,0,3,,,,,,,,,2,,,63,36
17160,control_change,60,0,1,,,,,,,,,0,64,127,,
17160,note_on,0,0,1,,,,,,,,,0,,,78,36
17160,note_on,0,0,3,,,,,,,,,2,,,69,36
17160,note_on,0,0,1,,,,,,,,,0,,,85,36
17160,control_change,60,0,3,,,,,,,,,2,64,127,,
17166,note_on,0,0,3,,,,,,,,,2,,,63,0
17166,note_on,0,0,1,,,,,,,,,0,,,78,0
17166,note_on,6,0,1,,,,,,,,,0,,,85,0
17166,note_on,6,0,3,,,,,,,,,2,,,69,0
17220,note_on,54,0,1,,,,,,,,,0,,,78,36
17220,note_on,0,0,3,,,,,,,,,2,,,71,36
17220,note_on,54,0,3,,,,,,,,,2,,,63,36
17220,note_on,0,0,1,,,,,,,,,0,,,83,36
17226,note_on,0,0,1,,,,,,,,,0,,,78,0
17226,note_on,0,0,3,,,,,,,,,2,,,63,0
17226,note_on,6,0,1,,,,,,,,,0,,,83,0
17226,note_on,6,0,3,,,,,,,,,2,,,71,0
17280,control_change,54,0,1,,,,,,,,,0,64,0,,
17280,note_on,0,0,3,,,,,,,,,2,,,73,36
17280,note_on,0,0,1,,,,,,,,,0,,,81,36
17280,note_on,0,0,3,,,,,,,,,2,,,63,36
17280,control_change,54,0,3,,,,,,,,,2,64,0,,
17280,note_on,0,0,1,,,,,,,,,0,,,78,36
17286,note_on,0,0,3,,,,,,,,,2,,,63,0
17286,note_on,6,0,1,,,,,,,,,0,,,81,0
17286,note_on,6,0,3,,,,,,,,,2,,,73,0
17286,note_on,0,0,1,,,,,,,,,0,,,78,0
17340,note_on,0,0,3,,,,,,,,,2,,,73,36
17340,note_on,54,0,3,,,,,,,,,2,,,64,36
17340,note_on,54,0,1,,,,,,,,,0,,,76,36
17520,note_on,180,0,3,,,,,,,,,2,,,73,0
17520,note_on,0,0,3,,,,,,,,,2,,,71,36
17520,note_on,0,0,3,,,,,,,,,2,,,65,36
17520,note_on,0,0,3,,,,,,,,,2,,,64,0
17520,note_on,0,0,1,,,,,,,,,0,,,80,36
17520,note_on,0,0,1,,,,,,,,,0,,,74,36
17520,note_on,180,0,1,,,,,,,,,0,,,76,0
17700,note_on,0,0,3,,,,,,,,,2,,,66,36
17700,note_on,0,0,1,,,,,,,,,0,,,73,36
17700,note_on,0,0,3,,,,,,,,,2,,,65,0
17700,note_on,180,0,3,,,,,,,,,2,,,71,0
17700,note_on,180,0,1,,,,,,,,,0,,,80,0
17700,note_on,0,0,1,,,,,,,,,0,,,74,0
17700,note_on,0,0,1,,,,,,,,,0,,,81,36
17700,note_on,0,0,3,,,,,,,,,2,,,69,36
17820,note_on,120,0,1,,,,,,,,,0,,,81,0
17820,note_on,0,0,3,,,,,,,,,2,,,66,0
17820,note_on,0,0,1,,,,,,,,,0,,,73,0
17820,note_on,120,0,3,,,,,,,,,2,,,69,0
17880,control_change,60,0,3,,,,,,,,,2,64,127,,
17880,note_on,0,0,3,,,,,,,,,2,,,60,36
17880,note_on,0,0,3,,,,,,,,,2,,,66,36
17880,note_on,0,0,1,,,,,,,,,0,,,82,49
17880,note_on,0,0,1,,,,,,,,,0,,,75,49
17880,control_change,60,0,1,,,,,,,,,0,64,127,,
17886,note_on,6,0,3,,,,,,,,,2,,,66,0
17886,note_on,0,0,3,,,,,,,,,2,,,60,0
17886,note_on,0,0,1,,,,,,,,,0,,,75,0
17886,note_on,6,0,1,,,,,,,,,0,,,82,0
17940,note_on,54,0,1,,,,,,,,,0,,,75,49
17940,note_on,0,0,1,,,,,,,,,0,,,80,49
17940,note_on,0,0,3,,,,,,,,,2,,,68,36
17940,note_on,54,0,3,,,,,,,,,2,,,60,36
17946,note_on,6,0,1,,,,,,,,,0,,,80,0
17946,note_on,0,0,1,,,,,,,,,0,,,75,0
17946,note_on,0,0,3,,,,,,,,,2,,,60,0
17946,note_on,6,0,3,,,,,,,,,2,,,68,0
18000,note_on,0,0,3,,,,,,,,,2,,,70,36
18000,note_on,0,0,3,,,,,,,,,2,,,60,36
18000,control_change,54,0,3,,,,,,,,,2,64,0,,
18000,control_change,54,0,1,,,,,,,,,0,64,0,,
18000,note_on,0,0,1,,,,,,,,,0,,,75,49
18000,note_on,0,0,1,,,,,,,,,0,,,78,49
18006,note_on,6,0,3,,,,,,,,,2,,,70,0
18006,note_on,0,0,3,,,,,,,,,2,,,60,0
18006,note_on,0,0,1,,,,,,,,,0,,,75,0
18006,note_on,6,0,1,,,,,,,,,0,,,78,0
18060,note_on,0,0,3,,,,,,,,,2,,,70,36
18060,note_on,54,0,3,,,,,,,,,2,,,61,36
18060,note_on,54,0,1,,,,,,,,,0,,,73,49
18240,note_on,0,0,1,,,,,,,,,0,,,77,49
18240,note_on,180,0,3,,,,,,,,,2,,,70,0
18240,note_on,0,0,3,,,,,,,,,2,,,68,36
18240,note_on,180,0,1,,,,,,,,,0,,,73,0
18240,note_on,0,0,1,,,,,,,,,0,,,71,49
18420,note_on,0,0,1,,,,,,,,,0,,,71,0
18420,note_on,0,0,1,,,,,,,,,0,,,70,49
18420,note_on,0,0,1,,,,,,,,,0,,,78,49
18420,control_change,0,0,1,,,,,,,,,0,64,127,,
18420,note_on,180,0,3,,,,,,,,,2,,,68,0
18420,note_on,0,0,3,,,,,,,,,2,,,61,0
18420,note_on,0,0,3,,,,,,,,,2,,,54,36
18420,note_on,180,0,1,,,,,,,,,0,,,77,0
18420,control_change,0,0,3,,,,,,,,,2,64,127,,
18420,note_on,0,0,3,,,,,,,,,2,,,66,36
18540,note_on,120,0,1,,,,,,,,,0,,,78,0
18540,note_on,0,0,3,,,,,,,,,2,,,54,36
18540,note_on,0,0,3,,,,,,,,,2,,,54,0
18540,note_on,120,0,3,,,,,,,,,2,,,66,0
18540,note_on,0,0,1,,,,,,,,,0,,,70,0
18540,note_on,0,0,1,,,,,,,,,0,,,66,49
18570,note_on,0,0,3,,,,,,,,,2,,,56,36
18570,control_change,0,0,3,,,,,,,,,2,64,0,,
18570,note_on,30,0,3,,,,,,,,,2,,,54,0
18570,note_on,30,0,1,,,,,,,,,0,,,66,0
18570,control_change,0,0,1,,,,,,,,,0,64,0,,
18570,note_on,0,0,1,,,,,,,,,0,,,68,49
18600,note_on,30,0,1,,,,,,,,,0,,,68,0
18600,note_on,0,0,1,,,,,,,,,0,,,70,49
18600,note_on,0,0,3,,,,,,,,,2,,,58,36
18600,note_on,30,0,3,,,,,,,,,2,,,56,0
18606,note_on,6,0,1,,,,,,,,,0,,,70,0
18606,note_on,6,0,3,,,,,,,,,2,,,58,0
18660,note_on,54,0,3,,,,,,,,,2,,,56,36
18660,note_on,54,0,1,,,,,,,,,0,,,68,49
18666,note_on,6,0,1,,,,,,,,,0,,,68,0
18666,note_on,6,0,3,,,,,,,,,2,,,56,0
18720,note_on,54,0,1,,,,,,,,,0,,,66,49
18720,note_on,54,0,3,,,,,,,,,2,,,54,36
18726,note_on,6,0,3,,,,,,,,,2,,,54,0
18726,note_on,6,0,1,,,,,,,,,0,,,66,0
18780,note_on,54,0,3,,,,,,,,,2,,,59,36
18780,note_on,54,0,1,,,,,,,,,0,,,65,49
18780,note_on,0,0,1,,,,,,,,,0,,,68,49
18780,note_on,0,0,1,,,,,,,,,0,,,74,49
18960,note_on,180,0,1,,,,,,,,,0,,,74,0
18960,note_on,180,0,3,,,,,,,,,2,,,59,0
18960,note_on,0,0,1,,,,,,,,,0,,,73,49
18960,note_on,0,0,3,,,,,,,,,2,,,61,36
19140,note_on,180,0,3,,,,,,,,,2,,,61,0
19140,note_on,0,0,3,,,,,,,,,2,,,54,36
19140,note_on,0,0,3,,,,,,,,,2,,,61,36
19140,note_on,0,0,1,,,,,,,,,0,,,70,49
19140,note_on,0,0,1,,,,,,,,,0,,,66,49
19140,note_on,0,0,1,,,,,,,,,0,,,65,0
19140,note_on,0,0,1,,,,,,,,,0,,,68,0
19140,note_on,180,0,1,,,,,,,,,0,,,73,0
19260,note_on,120,0,3,,,,,,,,,2,,,61,0
19260,note_on,0,0,3,,,,,,,,,2,,,42,36
19260,note_on,0,0,1,,,,,,,,,0,,,54,49
19260,note_on,0,0,1,,,,,,,,,0,,,66,0
19260,note_on,120,0,1,,,,,,,,,0,,,70,0
19260,note_on,0,0,3,,,,,,,,,2,,,54,0
19290,note_on,0,0,1,,,,,,,,,0,,,56,49
19290,note_on,30,0,1,,,,,,,,,0,,,54,0
19290,note_on,0,0,3,,,,,,,,,2,,,44,36
19290,note_on,30,0,3,,,,,,,,,2,,,42,0
19320,note_on,0,0,1,,,,,,,,,0,,,58,49
19320,note_on,0,0,3,,,,,,,,,2,,,46,36
19320,note_on,30,0,3,,,,,,,,,2,,,44,0
19320,note_on,30,0,1,,,,,,,,,0,,,56,0
19380,note_on,0,0,3,,,,,,,,,2,,,44,36
19380,note_on,60,0,3,,,,,,,,,2,,,46,0
19380,note_on,60,0,1,,,,,,,,,0,,,58,0
19380,note_on,0,0,1,,,,,,,,,0,,,56,49
19386,note_on,6,0,1,,,,,,,,,0,,,56,0
19386,note_on,6,0,3,,,,,,,,,2,,,44,0
19440,note_on,54,0,1,,,,,,,,,0,,,54,49
19440,note_on,54,0,3,,,,,,,,,2,,,42,36
19446,note_on,6,0,3,,,,,,,,,2,,,42,0
19446,note_on,6,0,1,,,,,,,,,0,,,54,0
19500,note_on,54,0,1,,,,,,,,,0,,,53,49
19500,note_on,0,0,1,,,,,,,,,0,,,56,49
19500,note_on,0,0,1,,,,,,,,,0,,,62,49
19500,note_on,54,0,3,,,,,,,,,2,,,47,36
19680,note_on,180,0,1,,,,,,,,,0,,,62,0
19680,note_on,0,0,1,,,,,,,,,0,,,61,49
19680,note_on,180,0,3,,,,,,,,,2,,,47,0
19680,note_on,0,0,3,,,,,,,,,2,,,49,36
19860,note_on,180,0,3,,,,,,,,,2,,,49,0
19860,note_on,0,0,1,,,,,,,,,0,,,54,49
19860,note_on,180,0,1,,,,,,,,,0,,,61,0
19860,note_on,0,0,1,,,,,,,,,0,,,56,0
19860,note_on,0,0,1,,,,,,,,,0,,,53,0
19860,control_change,0,0,1,,,,,,,,,0,64,127,,
19860,note_on,0,0,3,,,,,,,,,2,,,42,36
19860,note_on,0,0,3,,,,,,,,,2,,,46,36
19860,control_change,0,0,3,,,,,,,,,2,64,127,,
19980,note_on,120,0,1,,,,,,,,,0,,,54,0
19980,note_on,0,0,1,,,,,,,,,0,,,54,49
19980,note_on,120,0,3,,,,,,,,,2,,,46,0
19980,note_on,0,0,3,,,,,,,,,2,,,42,0
20010,note_on,30,0,1,,,,,,,,,0,,,54,0
20010,note_on,0,0,1,,,,,,,,,0,,,56,49
20040,note_on,30,0,1,,,,,,,,,0,,,56,0
20040,note_on,0,0,1,,,,,,,,,0,,,58,49
20100,note_on,0,0,1,,,,,,,,,0,,,56,49
20100,note_on,60,0,1,,,,,,,,,0,,,58,0
20106,note_on,6,0,1,,,,,,,,,0,,,56,0
20160,note_on,54,0,1,,,,,,,,,0,,,54,49
20166,note_on,6,0,1,,,,,,,,,0,,,54,0
20220,note_on,54,0,1,,,,,,,,,0,,,61,49
20226,note_on,6,0,1,,,,,,,,,0,,,61,0
20280,note_on,54,0,1,,,,,,,,,0,,,59,49
20286,note_on,6,0,1,,,,,,,,,0,,,59,0
20340,note_on,54,0,1,,,,,,,,,0,,,58,49
20346,note_on,6,0,1,,,,,,,,,0,,,58,0
20400,note_on,54,0,1,,,,,,,,,0,,,64,49
20406,note_on,6,0,1,,,,,,,,,0,,,64,0
20460,note_on,54,0,1,,,,,,,,,0,,,63,49
20466,note_on,6,0,1,,,,,,,,,0,,,63,0
20520,control_change,54,0,1,,,,,,,,,0,64,0,,
20520,note_on,0,0,1,,,,,,,,,0,,,61,49
20526,note_on,6,0,1,,,,,,,,,0,,,61,0
20580,note_on,0,0,3,,,,,,,,,2,,,37,36
20580,control_change,600,0,3,,,,,,,,,2,64,127,,
20580,control_change,54,0,1,,,,,,,,,0,64,127,,
20580,note_on,0,0,1,,,,,,,,,0,,,68,49
20580,note_on,0,0,1,,,,,,,,,0,,,58,49
20586,note_on,6,0,3,,,,,,,,,2,,,37,0
20640,note_on,54,0,3,,,,,,,,,2,,,39,36
20646,note_on,6,0,3,,,,,,,,,2,,,39,0
20700,note_on,54,0,3,,,,,,,,,2,,,40,36
20706,note_on,6,0,3,,,,,,,,,2,,,40,0
20760,note_on,180,0,1,,,,,,,,,0,,,68,0
20760,note_on,0,0,1,,,,,,,,,0,,,67,49
20760,note_on,54,0,3,,,,,,,,,2,,,49,36
20766,note_on,6,0,3,,,,,,,,,2,,,49,0
20820,note_on,54,0,3,,,,,,,,,2,,,51,36
20826,note_on,6,0,3,,,,,,,,,2,,,51,0
20880,note_on,54,0,3,,,,,,,,,2,,,52,36
20886,note_on,6,0,3,,,,,,,,,2,,,52,0
20940,note_on,180,0,1,,,,,,,,,0,,,67,0
20940,control_change,54,0,3,,,,,,,,,2,64,0,,
20940,note_on,0,0,3,,,,,,,,,2,,,52,36
20940,control_change,0,0,1,,,,,,,,,0,64,0,,
20940,note_on,0,0,1,,,,,,,,,0,,,66,49
21060,note_on,120,0,3,,,,,,,,,2,,,52,0
21060,note_on,120,0,1,,,,,,,,,0,,,66,0
21060,note_on,0,0,1,,,,,,,,,0,,,58,0
21060,control_change,0,0,1,,,,,,,,,0,64,127,,
21060,note_on,0,0,1,,,,,,,,,0,,,66,49
21090,note_on,30,0,1,,,,,,,,,0,,,66,0
21090,note_on,0,0,1,,,,,,,,,0,,,68,49
21120,note_on,0,0,1,,,,,,,,,0,,,70,49
21120,note_on,30,0,1,,,,,,,,,0,,,68,0
21180,set_tempo,21120,1,0,,,,,,444444,,,,,,,
21180,note_on,0,0,1,,,,,,,,,0,,,68,49
21180,note_on,60,0,1,,,,,,,,,0,,,70,0
21186,note_on,6,0,1,,,,,,,,,0,,,68,0
21240,note_on,54,0,1,,,,,,,,,0,,,66,49
21240,set_tempo,60,1,0,,,,,,454545,,,,,,,
21246,note_on,6,0,1,,,,,,,,,0,,,66,0
21300,note_on,54,0,1,,,,,,,,,0,,,73,49
21300,set_tempo,60,1,0,,,,,,465116,,,,,,,
21306,note_on,6,0,1,,,,,,,,,0,,,73,0
21360,set_tempo,60,1,0,,,,,,480000,,,,,,,
21360,note_on,54,0,1,,,,,,,,,0,,,71,49
21366,note_on,6,0,1,,,,,,,,,0,,,71,0
21420,set_tempo,60,1,0,,,,,,491803,,,,,,,
21420,note_on,54,0,1,,,,,,,,,0,,,70,49
21426,note_on,6,0,1,,,,,,,,,0,,,70,0
21480,set_tempo,60,1,0,,,,,,504202,,,,,,,
21480,note_on,54,0,1,,,,,,,,,0,,,76,49
21486,note_on,6,0,1,,,,,,,,,0,,,76,0
21540,set_tempo,60,1,0,,,,,,517241,,,,,,,
21540,note_on,54,0,1,,,,,,,,,0,,,75,49
21546,note_on,6,0,1,,,,,,,,,0,,,75,0
21600,set_tempo,60,1,0,,,,,,535714,,,,,,,
21600,note_on,54,0,1,,,,,,,,,0,,,73,49
21606,note_on,6,0,1,,,,,,,,,0,,,73,0
21660,note_on,54,0,1,,,,,,,,,0,,,70,49
21660,note_on,0,0,3,,,,,,,,,2,,,49,36
21660,control_change,600,0,3,,,,,,,,,2,64,127,,
21660,note_on,0,0,1,,,,,,,,,0,,,80,49
21666,note_on,6,0,3,,,,,,,,,2,,,49,0
21720,note_on,54,0,3,,,,,,,,,2,,,51,36
21726,note_on,6,0,3,,,,,,,,,2,,,51,0
21780,note_on,54,0,3,,,,,,,,,2,,,52,36
21786,note_on,6,0,3,,,,,,,,,2,,,52,0
21840,note_on,0,0,1,,,,,,,,,0,,,79,49
21840,note_on,180,0,1,,,,,,,,,0,,,80,0
21840,note_on,54,0,3,,,,,,,,,2,,,61,36
21846,note_on,6,0,3,,,,,,,,,2,,,61,0
21900,note_on,54,0,3,,,,,,,,,2,,,63,36
21906,note_on,6,0,3,,,,,,,,,2,,,63,0
21960,note_on,54,0,3,,,,,,,,,2,,,64,36
21966,note_on,6,0,3,,,,,,,,,2,,,64,0
22020,control_change,0,0,1,,,,,,,,,0,64,0,,
22020,note_on,180,0,1,,,,,,,,,0,,,79,0
22020,control_change,54,0,3,,,,,,,,,2,64,0,,
22020,note_on,0,0,1,,,,,,,,,0,,,78,49
22020,note_on,0,0,3,,,,,,,,,2,,,64,36
22140,note_on,120,0,1,,,,,,,,,0,,,78,0
22140,note_on,0,0,1,,,,,,,,,0,,,70,0
22140,note_on,120,0,3,,,,,,,,,2,,,64,0
22200,time_signature,600,1,0,2,8,12,8,,,,,,,,,
22320,set_tempo,0,1,0,,,,,,434783,,,,,,,
22320,note_on,180,0,3,,,,,,,,,2,,,63,62
22320,time_signature,120,1,0,1,8,12,8,,,,,,,,,
22320,note_on,180,0,1,,,,,,,,,0,,,75,75
22350,note_on,30,0,3,,,,,,,,,2,,,63,0
22350,note_on,30,0,1,,,,,,,,,0,,,75,0
22350,note_on,0,0,1,,,,,,,,,0,,,76,75
22350,note_on,0,0,3,,,,,,,,,2,,,64,62
22380,note_on,30,0,1,,,,,,,,,0,,,76,0
22380,time_signature,60,1,0,3,8,12,8,,,,,,,,,
22380,note_on,0,0,3,,,,,,,,,2,,,66,62
22380,note_on,30,0,3,,,,,,,,,2,,,64,0
22380,note_on,0,0,1,,,,,,,,,0,,,78,101
22500,note_on,0,0,3,,,,,,,,,2,,,61,62
22500,note_on,120,0,3,,,,,,,,,2,,,66,0
22500,note_on,120,0,1,,,,,,,,,0,,,78,0
22500,note_on,0,0,1,,,,,,,,,0,,,73,75
22530,note_on,0,0,1,,,,,,,,,0,,,75,75
22530,note_on,30,0,1,,,,,,,,,0,,,73,0
22530,note_on,30,0,3,,,,,,,,,2,,,61,0
22530,note_on,0,0,3,,,,,,,,,2,,,63,62
22560,note_on,30,0,1,,,,,,,,,0,,,75,0
22560,note_on,0,0,1,,,,,,,,,0,,,76,101
22560,note_on,30,0,3,,,,,,,,,2,,,63,0
22560,note_on,0,0,3,,,,,,,,,2,,,64,62
22680,note_on,0,0,1,,,,,,,,,0,,,71,75
22680,note_on,120,0,3,,,,,,,,,2,,,64,0
22680,note_on,120,0,1,,,,,,,,,0,,,76,0
22710,note_on,30,0,1,,,,,,,,,0,,,71,0
22710,note_on,0,0,1,,,,,,,,,0,,,73,75
22740,note_on,60,0,3,,,,,,,,,2,,,47,75
22740,note_on,0,0,3,,,,,,,,,2,,,54,75
22740,note_on,0,0,3,,,,,,,,,2,,,59,75
22740,note_on,0,0,1,,,,,,,,,0,,,75,114
22740,note_on,30,0,1,,,,,,,,,0,,,73,0
22740,note_on,14820,0,2,,,,,,,,,1,,,63,75
22860,note_on,120,0,1,,,,,,,,,0,,,75,0
22860,note_on,0,0,1,,,,,,,,,0,,,73,88
22920,note_on,180,0,2,,,,,,,,,1,,,63,0
22920,note_on,0,0,3,,,,,,,,,2,,,59,75
22920,note_on,0,0,1,,,,,,,,,0,,,71,114
22920,note_on,60,0,1,,,,,,,,,0,,,73,0
22920,note_on,0,0,3,,,,,,,,,2,,,55,75
22920,note_on,0,0,2,,,,,,,,,1,,,63,75
22920,note_on,180,0,3,,,,,,,,,2,,,59,0
22920,note_on,0,0,3,,,,,,,,,2,,,54,0
22920,note_on,0,0,3,,,,,,,,,2,,,47,0
22920,note_on,0,0,3,,,,,,,,,2,,,47,75
23040,note_on,0,0,1,,,,,,,,,0,,,70,88
23040,note_on,120,0,1,,,,,,,,,0,,,71,0
23100,note_on,0,0,3,,,,,,,,,2,,,47,75
23100,note_on,0,0,3,,,,,,,,,2,,,47,0
23100,note_on,0,0,3,,,,,,,,,2,,,55,0
23100,note_on,180,0,3,,,,,,,,,2,,,59,0
23100,note_on,180,0,2,,,,,,,,,1,,,63,0
23100,note_on,60,0,1,,,,,,,,,0,,,70,0
23100,control_change,0,0,1,,,,,,,,,0,64,127,,
23100,note_on,0,0,1,,,,,,,,,0,,,68,88
23100,note_on,0,0,2,,,,,,,,,1,,,64,75
23100,note_on,0,0,3,,,,,,,,,2,,,56,75
23100,note_on,0,0,3,,,,,,,,,2,,,59,75
23160,note_on,0,0,1,,,,,,,,,0,,,73,88
23160,note_on,60,0,1,,,,,,,,,0,,,68,0
23220,note_on,0,0,2,,,,,,,,,1,,,64,75
23220,note_on,0,0,1,,,,,,,,,0,,,70,88
23220,control_change,0,0,1,,,,,,,,,0,64,0,,
23220,note_on,120,0,2,,,,,,,,,1,,,64,0
23220,note_on,120,0,3,,,,,,,,,2,,,59,0
23220,note_on,0,0,3,,,,,,,,,2,,,56,0
23220,note_on,0,0,3,,,,,,,,,2,,,47,0
23220,note_on,0,0,3,,,,,,,,,2,,,47,75
23220,note_on,0,0,3,,,,,,,,,2,,,54,75
23220,note_on,0,0,3,,,,,,,,,2,,,61,75
23220,note_on,60,0,1,,,,,,,,,0,,,73,0
23226,note_on,0,0,3,,,,,,,,,2,,,47,0
23226,note_on,6,0,3,,,,,,,,,2,,,61,0
23226,note_on,0,0,3,,,,,,,,,2,,,54,0
23226,note_on,6,0,2,,,,,,,,,1,,,64,0
23226,note_on,6,0,1,,,,,,,,,0,,,70,0
23280,note_on,0,0,3,,,,,,,,,2,,,59,75
23280,note_on,0,0,3,,,,,,,,,2,,,54,75
23280,note_on,54,0,3,,,,,,,,,2,,,47,75
23280,note_on,54,0,2,,,,,,,,,1,,,63,75
23280,note_on,54,0,1,,,,,,,,,0,,,71,88
23400,note_on,120,0,2,,,,,,,,,1,,,63,0
23400,note_on,0,0,2,,,,,,,,,1,,,66,75
23400,note_on,0,0,1,,,,,,,,,0,,,73,88
23400,note_on,120,0,1,,,,,,,,,0,,,71,0
23400,note_on,0,0,3,,,,,,,,,2,,,47,0
23400,note_on,0,0,3,,,,,,,,,2,,,58,75
23400,note_on,120,0,3,,,,,,,,,2,,,59,0
23400,note_on,0,0,3,,,,,,,,,2,,,54,0
23400,note_on,0,0,3,,,,,,,,,2,,,54,75
23406,note_on,6,0,1,,,,,,,,,0,,,73,0
23406,note_on,0,0,3,,,,,,,,,2,,,54,0
23406,note_on,6,0,2,,,,,,,,,1,,,66,0
23406,note_on,6,0,3,,,,,,,,,2,,,58,0
23460,note_on,54,0,3,,,,,,,,,2,,,54,75
23460,note_on,54,0,2,,,,,,,,,1,,,66,75
23460,note_on,0,0,1,,,,,,,,,0,,,75,88
23460,note_on,0,0,3,,,,,,,,,2,,,59,75
23460,control_change,54,0,1,,,,,,,,,0,64,127,,
23520,note_on,0,0,1,,,,,,,,,0,,,80,88
23520,note_on,60,0,1,,,,,,,,,0,,,75,0
23580,note_on,60,0,1,,,,,,,,,0,,,80,0
23580,note_on,0,0,3,,,,,,,,,2,,,54,75
23580,note_on,120,0,3,,,,,,,,,2,,,59,0
23580,note_on,0,0,1,,,,,,,,,0,,,77,88
23580,note_on,0,0,2,,,,,,,,,1,,,71,75
23580,note_on,120,0,2,,,,,,,,,1,,,66,0
23580,note_on,0,0,3,,,,,,,,,2,,,61,75
23580,note_on,0,0,3,,,,,,,,,2,,,54,0
23580,control_change,0,0,1,,,,,,,,,0,64,0,,
23586,note_on,0,0,3,,,,,,,,,2,,,54,0
23586,note_on,6,0,2,,,,,,,,,1,,,71,0
23586,note_on,6,0,3,,,,,,,,,2,,,61,0
23586,note_on,6,0,1,,,,,,,,,0,,,77,0
23640,control_change,54,0,1,,,,,,,,,0,64,127,,
23640,note_on,0,0,1,,,,,,,,,0,,,78,88
23640,note_on,54,0,2,,,,,,,,,1,,,70,75
23640,note_on,0,0,3,,,,,,,,,2,,,61,75
23640,note_on,54,0,3,,,,,,,,,2,,,54,75
23760,note_on,0,0,3,,,,,,,,,2,,,54,0
23760,note_on,120,0,1,,,,,,,,,0,,,78,0
23760,note_on,0,0,1,,,,,,,,,0,,,73,88
23760,note_on,120,0,2,,,,,,,,,1,,,70,0
23760,note_on,120,0,3,,,,,,,,,2,,,61,0
23790,note_on,30,0,1,,,,,,,,,0,,,73,0
23790,control_change,0,0,1,,,,,,,,,0,64,0,,
23790,note_on,0,0,1,,,,,,,,,0,,,75,88
23820,note_on,60,0,3,,,,,,,,,2,,,49,91
23820,note_on,0,0,3,,,,,,,,,2,,,56,96
23820,note_on,0,0,3,,,,,,,,,2,,,61,101
23820,note_on,30,0,1,,,,,,,,,0,,,75,0
23820,note_on,0,0,1,,,,,,,,,0,,,64,104
23820,note_on,0,0,1,,,,,,,,,0,,,68,109
23820,note_on,0,0,1,,,,,,,,,0,,,76,114
23940,note_on,0,0,1,,,,,,,,,0,,,66,88
23940,note_on,0,0,3,,,,,,,,,2,,,60,75
23940,note_on,0,0,1,,,,,,,,,0,,,68,88
23940,note_on,0,0,1,,,,,,,,,0,,,75,88
23940,note_on,0,0,3,,,,,,,,,2,,,51,75
23940,note_on,0,0,1,,,,,,,,,0,,,68,0
23940,note_on,0,0,1,,,,,,,,,0,,,64,0
23940,note_on,0,0,3,,,,,,,,,2,,,49,0
23940,note_on,0,0,3,,,,,,,,,2,,,56,0
23940,note_on,120,0,3,,,,,,,,,2,,,61,0
23940,note_on,0,0,3,,,,,,,,,2,,,56,75
23940,note_on,120,0,1,,,,,,,,,0,,,76,0
24000,note_on,0,0,1,,,,,,,,,0,,,68,109
24000,note_on,0,0,1,,,,,,,,,0,,,64,104
24000,note_on,60,0,1,,,,,,,,,0,,,75,0
24000,note_on,0,0,1,,,,,,,,,0,,,68,0
24000,note_on,0,0,3,,,,,,,,,2,,,51,0
24000,note_on,0,0,3,,,,,,,,,2,,,56,0
24000,note_on,60,0,3,,,,,,,,,2,,,60,0
24000,note_on,0,0,3,,,,,,,,,2,,,52,91
24000,note_on,0,0,3,,,,,,,,,2,,,56,96
24000,note_on,0,0,3,,,,,,,,,2,,,61,101
24000,note_on,0,0,1,,,,,,,,,0,,,73,114
24000,note_on,0,0,1,,,,,,,,,0,,,66,0
24120,note_on,0,0,1,,,,,,,,,0,,,68,88
24120,note_on,0,0,1,,,,,,,,,0,,,64,0
24120,note_on,0,0,1,,,,,,,,,0,,,63,88
24120,note_on,0,0,1,,,,,,,,,0,,,71,88
24120,note_on,120,0,1,,,,,,,,,0,,,73,0
24120,note_on,0,0,1,,,,,,,,,0,,,68,0
24120,note_on,0,0,3,,,,,,,,,2,,,59,75
24120,note_on,120,0,3,,,,,,,,,2,,,61,0
24120,note_on,0,0,3,,,,,,,,,2,,,56,0
24120,note_on,0,0,3,,,,,,,,,2,,,52,0
24120,note_on,0,0,3,,,,,,,,,2,,,53,75
24120,note_on,0,0,3,,,,,,,,,2,,,56,75
24180,note_on,60,0,3,,,,,,,,,2,,,59,0
24180,note_on,0,0,3,,,,,,,,,2,,,56,0
24180,note_on,0,0,3,,,,,,,,,2,,,53,0
24180,note_on,0,0,3,,,,,,,,,2,,,54,75
24180,note_on,420,0,2,,,,,,,,,1,,,63,75
24180,note_on,60,0,1,,,,,,,,,0,,,71,0
24180,note_on,0,0,1,,,,,,,,,0,,,68,0
24180,note_on,0,0,1,,,,,,,,,0,,,63,0
24180,note_on,0,0,1,,,,,,,,,0,,,71,88
24180,control_change,0,0,1,,,,,,,,,0,64,127,,
24240,note_on,0,0,1,,,,,,,,,0,,,75,88
24240,note_on,60,0,1,,,,,,,,,0,,,71,0
24300,control_change,0,0,1,,,,,,,,,0,64,0,,
24300,note_on,60,0,1,,,,,,,,,0,,,75,0
24300,note_on,0,0,2,,,,,,,,,1,,,64,75
24300,note_on,120,0,3,,,,,,,,,2,,,54,0
24300,note_on,0,0,3,,,,,,,,,2,,,58,75
24300,note_on,0,0,3,,,,,,,,,2,,,54,75
24300,note_on,120,0,2,,,,,,,,,1,,,63,0
24300,note_on,0,0,1,,,,,,,,,0,,,73,88
24306,note_on,6,0,2,,,,,,,,,1,,,64,0
24306,note_on,0,0,3,,,,,,,,,2,,,54,0
24306,note_on,6,0,3,,,,,,,,,2,,,58,0
24306,note_on,6,0,1,,,,,,,,,0,,,73,0
24360,note_on,54,0,1,,,,,,,,,0,,,63,88
24360,note_on,54,0,3,,,,,,,,,2,,,47,75
24360,note_on,0,0,3,,,,,,,,,2,,,59,75
24360,note_on,0,0,1,,,,,,,,,0,,,71,88
24480,note_on,120,0,1,,,,,,,,,0,,,71,0
24480,note_on,0,0,1,,,,,,,,,0,,,63,0
24480,note_on,0,0,1,,,,,,,,,0,,,75,88
24480,note_on,0,0,3,,,,,,,,,2,,,63,75
24480,note_on,120,0,3,,,,,,,,,2,,,59,0
24480,note_on,0,0,3,,,,,,,,,2,,,47,0
24510,note_on,30,0,3,,,,,,,,,2,,,63,0
24510,note_on,30,0,1,,,,,,,,,0,,,75,0
24510,note_on,0,0,1,,,,,,,,,0,,,76,88
24510,note_on,0,0,3,,,,,,,,,2,,,64,75
24540,note_on,0,0,1,,,,,,,,,0,,,78,114
24540,control_change,0,0,1,,,,,,,,,0,64,127,,
24540,note_on,0,0,1,,,,,,,,,0,,,66,106
24540,note_on,30,0,3,,,,,,,,,2,,,64,0
24540,note_on,30,0,1,,,,,,,,,0,,,76,0
24840,note_on,0,0,3,,,,,,,,,2,,,47,49
24840,control_change,300,0,3,,,,,,,,,2,64,127,,
24870,note_on,30,0,3,,,,,,,,,2,,,47,0
24870,note_on,0,0,3,,,,,,,,,2,,,49,49
24900,note_on,30,0,3,,,,,,,,,2,,,49,0
24900,control_change,360,0,1,,,,,,,,,0,64,0,,
24900,note_on,0,0,3,,,,,,,,,2,,,50,88
24960,note_on,60,0,3,,,,,,,,,2,,,50,0
24960,control_change,0,0,3,,,,,,,,,2,64,0,,
25020,note_on,60,0,3,,,,,,,,,2,,,54,49
25020,note_on,0,0,3,,,,,,,,,2,,,57,49
25020,note_on,0,0,3,,,,,,,,,2,,,62,49
25026,note_on,6,0,3,,,,,,,,,2,,,62,0
25026,note_on,0,0,3,,,,,,,,,2,,,54,0
25026,note_on,0,0,3,,,,,,,,,2,,,57,0
25080,note_on,0,0,3,,,,,,,,,2,,,45,36
25080,note_on,180,0,1,,,,,,,,,0,,,78,0
25080,note_on,0,0,1,,,,,,,,,0,,,66,0
25080,note_on,0,0,1,,,,,,,,,0,,,64,49
25080,note_on,0,0,1,,,,,,,,,0,,,76,49
25080,control_change,0,0,1,,,,,,,,,0,64,127,,
25080,control_change,54,0,3,,,,,,,,,2,64,127,,
25086,note_on,6,0,1,,,,,,,,,0,,,76,0
25086,note_on,6,0,3,,,,,,,,,2,,,45,0
25086,note_on,0,0,1,,,,,,,,,0,,,64,0
25140,note_on,0,0,1,,,,,,,,,0,,,78,49
25140,note_on,54,0,1,,,,,,,,,0,,,66,49
25146,note_on,6,0,1,,,,,,,,,0,,,78,0
25146,note_on,0,0,1,,,,,,,,,0,,,66,0
25200,note_on,0,0,1,,,,,,,,,0,,,79,49
25200,note_on,54,0,1,,,,,,,,,0,,,67,49
25200,control_change,114,0,3,,,,,,,,,2,64,0,,
25200,note_on,0,0,3,,,,,,,,,2,,,52,36
25200,note_on,0,0,3,,,,,,,,,2,,,61,36
25200,note_on,0,0,3,,,,,,,,,2,,,57,36
25206,note_on,0,0,3,,,,,,,,,2,,,57,0
25206,note_on,0,0,3,,,,,,,,,2,,,52,0
25206,note_on,0,0,1,,,,,,,,,0,,,67,0
25206,note_on,6,0,1,,,,,,,,,0,,,79,0
25206,note_on,6,0,3,,,,,,,,,2,,,61,0
25260,control_change,54,0,3,,,,,,,,,2,64,127,,
25260,note_on,0,0,3,,,,,,,,,2,,,50,36
25260,note_on,0,0,1,,,,,,,,,0,,,81,49
25260,note_on,0,0,1,,,,,,,,,0,,,69,49
25260,control_change,54,0,1,,,,,,,,,0,64,0,,
25266,note_on,6,0,3,,,,,,,,,2,,,50,0
25380,note_on,0,0,3,,,,,,,,,2,,,54,36
25380,note_on,0,0,3,,,,,,,,,2,,,62,36
25380,control_change,114,0,3,,,,,,,,,2,64,0,,
25380,note_on,0,0,3,,,,,,,,,2,,,57,36
25386,note_on,0,0,3,,,,,,,,,2,,,57,0
25386,note_on,6,0,3,,,,,,,,,2,,,62,0
25386,note_on,0,0,3,,,,,,,,,2,,,54,0
25440,control_change,0,0,1,,,,,,,,,0,64,127,,
25440,note_on,0,0,1,,,,,,,,,0,,,83,49
25440,note_on,0,0,1,,,,,,,,,0,,,71,49
25440,note_on,0,0,1,,,,,,,,,0,,,69,0
25440,note_on,180,0,1,,,,,,,,,0,,,81,0
25440,control_change,54,0,3,,,,,,,,,2,64,127,,
25440,note_on,0,0,3,,,,,,,,,2,,,50,36
25446,note_on,0,0,1,,,,,,,,,0,,,71,0
25446,note_on,6,0,1,,,,,,,,,0,,,83,0
25446,note_on,6,0,3,,,,,,,,,2,,,50,0
25500,note_on,54,0,1,,,,,,,,,0,,,69,49
25500,note_on,0,0,1,,,,,,,,,0,,,81,49
25506,note_on,0,0,1,,,,,,,,,0,,,69,0
25506,note_on,6,0,1,,,,,,,,,0,,,81,0
25560,note_on,0,0,3,,,,,,,,,2,,,62,36
25560,note_on,0,0,3,,,,,,,,,2,,,56,36
25560,note_on,0,0,3,,,,,,,,,2,,,53,36
25560,control_change,114,0,3,,,,,,,,,2,64,0,,
25560,note_on,0,0,1,,,,,,,,,0,,,80,49
25560,note_on,54,0,1,,,,,,,,,0,,,68,49
25566,note_on,0,0,3,,,,,,,,,2,,,53,0
25566,note_on,0,0,3,,,,,,,,,2,,,56,0
25566,note_on,6,0,3,,,,,,,,,2,,,62,0
25566,note_on,0,0,1,,,,,,,,,0,,,68,0
25566,note_on,6,0,1,,,,,,,,,0,,,80,0
25620,control_change,54,0,3,,,,,,,,,2,64,127,,
25620,control_change,54,0,1,,,,,,,,,0,64,0,,
25620,note_on,0,0,3,,,,,,,,,2,,,50,36
25620,note_on,0,0,1,,,,,,,,,0,,,81,49
25620,note_on,0,0,1,,,,,,,,,0,,,69,49
25626,note_on,6,0,3,,,,,,,,,2,,,50,0
25740,note_on,0,0,3,,,,,,,,,2,,,62,36
25740,note_on,0,0,3,,,,,,,,,2,,,57,36
25740,note_on,0,0,3,,,,,,,,,2,,,54,36
25740,control_change,114,0,3,,,,,,,,,2,64,0,,
25746,note_on,0,0,3,,,,,,,,,2,,,54,0
25746,note_on,0,0,3,,,,,,,,,2,,,57,0
25746,note_on,6,0,3,,,,,,,,,2,,,62,0
25800,note_on,0,0,1,,,,,,,,,0,,,69,0
25800,note_on,0,0,1,,,,,,,,,0,,,79,49
25800,control_change,0,0,1,,,,,,,,,0,64,127,,
25800,note_on,0,0,1,,,,,,,,,0,,,67,49
25800,note_on,0,0,3,,,,,,,,,2,,,45,36
25800,control_change,54,0,3,,,,,,,,,2,64,127,,
25800,note_on,180,0,1,,,,,,,,,0,,,81,0
25806,note_on,6,0,3,,,,,,,,,2,,,45,0
25806,note_on,6,0,1,,,,,,,,,0,,,79,0
25806,note_on,0,0,1,,,,,,,,,0,,,67,0
25860,note_on,54,0,1,,,,,,,,,0,,,66,49
25860,note_on,0,0,1,,,,,,,,,0,,,78,49
25866,note_on,0,0,1,,,,,,,,,0,,,66,0
25866,note_on,6,0,1,,,,,,,,,0,,,78,0
25920,note_on,0,0,1,,,,,,,,,0,,,76,49
25920,note_on,54,0,1,,,,,,,,,0,,,64,49
25920,control_change,114,0,3,,,,,,,,,2,64,0,,
25920,note_on,0,0,3,,,,,,,,,2,,,55,36
25920,note_on,0,0,3,,,,,,,,,2,,,57,36
25920,note_on,0,0,3,,,,,,,,,2,,,61,36
25926,note_on,0,0,1,,,,,,,,,0,,,64,0
25926,note_on,6,0,1,,,,,,,,,0,,,76,0
25926,note_on,6,0,3,,,,,,,,,2,,,61,0
25926,note_on,0,0,3,,,,,,,,,2,,,57,0
25926,note_on,0,0,3,,,,,,,,,2,,,55,0
25980,note_on,0,0,3,,,,,,,,,2,,,50,36
25980,note_on,0,0,1,,,,,,,,,0,,,74,49
25980,control_change,0,0,1,,,,,,,,,0,64,0,,
25980,control_change,54,0,1,,,,,,,,,0,64,127,,
25980,note_on,0,0,1,,,,,,,,,0,,,62,49
25980,control_change,54,0,3,,,,,,,,,2,64,127,,
25986,note_on,6,0,3,,,,,,,,,2,,,50,0
26100,note_on,0,0,3,,,,,,,,,2,,,57,36
26100,note_on,114,0,3,,,,,,,,,2,,,54,36
26106,note_on,0,0,3,,,,,,,,,2,,,54,0
26106,note_on,6,0,3,,,,,,,,,2,,,57,0
26160,control_change,54,0,3,,,,,,,,,2,64,0,,
26160,note_on,0,0,3,,,,,,,,,2,,,50,36
26166,note_on,6,0,3,,,,,,,,,2,,,50,0
26220,control_change,0,0,1,,,,,,,,,0,64,0,,
26220,note_on,0,0,1,,,,,,,,,0,,,71,49
26220,note_on,0,0,1,,,,,,,,,0,,,59,49
26220,note_on,0,0,1,,,,,,,,,0,,,62,0
26220,note_on,240,0,1,,,,,,,,,0,,,74,0
26226,note_on,6,0,1,,,,,,,,,0,,,71,0
26226,note_on,0,0,1,,,,,,,,,0,,,59,0
26280,note_on,54,0,1,,,,,,,,,0,,,61,49
26280,note_on,0,0,1,,,,,,,,,0,,,73,49
26286,note_on,6,0,1,,,,,,,,,0,,,73,0
26286,note_on,0,0,1,,,,,,,,,0,,,61,0
26340,note_on,0,0,3,,,,,,,,,2,,,47,36
26340,control_change,174,0,3,,,,,,,,,2,64,127,,
26340,note_on,0,0,1,,,,,,,,,0,,,74,49
26340,control_change,54,0,1,,,,,,,,,0,64,127,,
26340,note_on,0,0,1,,,,,,,,,0,,,62,49
26346,note_on,6,0,3,,,,,,,,,2,,,47,0
26460,note_on,114,0,3,,,,,,,,,2,,,54,36
26460,note_on,0,0,3,,,,,,,,,2,,,59,36
26466,note_on,6,0,3,,,,,,,,,2,,,59,0
26466,note_on,0,0,3,,,,,,,,,2,,,54,0
26520,control_change,0,0,1,,,,,,,,,0,64,0,,
26520,note_on,180,0,1,,,,,,,,,0,,,62,0
26520,note_on,0,0,3,,,,,,,,,2,,,47,36
26520,control_change,54,0,3,,,,,,,,,2,64,0,,
26526,note_on,6,0,3,,,,,,,,,2,,,47,0
26580,note_on,60,0,1,,,,,,,,,0,,,74,0
26580,note_on,0,0,1,,,,,,,,,0,,,71,49
26586,note_on,6,0,1,,,,,,,,,0,,,71,0
26640,note_on,54,0,1,,,,,,,,,0,,,73,49
26646,note_on,6,0,1,,,,,,,,,0,,,73,0
26700,note_on,0,0,3,,,,,,,,,2,,,47,36
26700,note_on,0,0,3,,,,,,,,,2,,,59,36
26700,note_on,0,0,3,,,,,,,,,2,,,54,36
26700,control_change,174,0,3,,,,,,,,,2,64,127,,
26700,control_change,54,0,1,,,,,,,,,0,64,127,,
26700,note_on,0,0,1,,,,,,,,,0,,,74,49
26706,note_on,0,0,3,,,,,,,,,2,,,47,0
26706,note_on,0,0,3,,,,,,,,,2,,,54,0
26706,note_on,6,0,3,,,,,,,,,2,,,59,0
26706,note_on,6,0,1,,,,,,,,,0,,,74,0
26760,note_on,54,0,1,,,,,,,,,0,,,71,49
26766,note_on,6,0,1,,,,,,,,,0,,,71,0
26820,note_on,54,0,1,,,,,,,,,0,,,73,49
26826,note_on,6,0,1,,,,,,,,,0,,,73,0
26880,note_on,0,0,3,,,,,,,,,2,,,59,36
26880,note_on,0,0,3,,,,,,,,,2,,,54,36
26880,note_on,54,0,1,,,,,,,,,0,,,74,49
26880,note_on,174,0,3,,,,,,,,,2,,,47,36
26886,note_on,6,0,1,,,,,,,,,0,,,74,0
26886,note_on,0,0,3,,,,,,,,,2,,,47,0
26886,note_on,0,0,3,,,,,,,,,2,,,54,0
26886,note_on,6,0,3,,,,,,,,,2,,,59,0
26940,note_on,54,0,1,,,,,,,,,0,,,71,49
26946,note_on,6,0,1,,,,,,,,,0,,,71,0
27000,note_on,54,0,1,,,,,,,,,0,,,73,49
27006,note_on,6,0,1,,,,,,,,,0,,,73,0
27060,note_on,54,0,1,,,,,,,,,0,,,74,49
27060,note_on,0,0,3,,,,,,,,,2,,,59,36
27060,note_on,0,0,3,,,,,,,,,2,,,54,36
27060,note_on,174,0,3,,,,,,,,,2,,,47,36
27066,note_on,6,0,3,,,,,,,,,2,,,59,0
27066,note_on,6,0,1,,,,,,,,,0,,,74,0
27066,note_on,0,0,3,,,,,,,,,2,,,54,0
27066,note_on,0,0,3,,,,,,,,,2,,,47,0
27120,note_on,54,0,1,,,,,,,,,0,,,71,49
27126,note_on,6,0,1,,,,,,,,,0,,,71,0
27180,note_on,54,0,1,,,,,,,,,0,,,73,49
27186,note_on,6,0,1,,,,,,,,,0,,,73,0
27240,control_change,174,0,3,,,,,,,,,2,64,0,,
27240,note_on,54,0,1,,,,,,,,,0,,,74,49
27300,note_on,60,0,1,,,,,,,,,0,,,74,0
27360,control_change,60,0,1,,,,,,,,,0,64,0,,
27360,note_on,0,0,1,,,,,,,,,0,,,71,49
27390,note_on,30,0,1,,,,,,,,,0,,,71,0
27390,note_on,0,0,1,,,,,,,,,0,,,73,49
27420,note_on,3114,0,2,,,,,,,,,1,,,63,75
27420,note_on,0,0,3,,,,,,,,,2,,,59,75
27420,note_on,0,0,3,,,,,,,,,2,,,54,75
27420,note_on,180,0,3,,,,,,,,,2,,,47,75
27420,note_on,30,0,1,,,,,,,,,0,,,73,0
27420,note_on,0,0,1,,,,,,,,,0,,,75,114
27540,note_on,120,0,1,,,,,,,,,0,,,75,0
27540,note_on,0,0,1,,,,,,,,,0,,,73,88
27600,note_on,0,0,3,,,,,,,,,2,,,54,0
27600,note_on,180,0,3,,,,,,,,,2,,,59,0
27600,note_on,60,0,1,,,,,,,,,0,,,73,0
27600,note_on,0,0,1,,,,,,,,,0,,,71,114
27600,note_on,0,0,3,,,,,,,,,2,,,55,75
27600,note_on,0,0,3,,,,,,,,,2,,,59,75
27600,note_on,180,0,2,,,,,,,,,1,,,63,0
27600,note_on,0,0,2,,,,,,,,,1,,,63,75
27600,note_on,0,0,3,,,,,,,,,2,,,47,0
27600,note_on,0,0,3,,,,,,,,,2,,,47,75
27720,note_on,120,0,1,,,,,,,,,0,,,71,0
27720,note_on,0,0,1,,,,,,,,,0,,,70,88
27780,note_on,0,0,3,,,,,,,,,2,,,55,0
27780,note_on,0,0,3,,,,,,,,,2,,,47,0
27780,note_on,0,0,3,,,,,,,,,2,,,47,75
27780,note_on,0,0,3,,,,,,,,,2,,,56,75
27780,note_on,0,0,3,,,,,,,,,2,,,59,75
27780,note_on,0,0,2,,,,,,,,,1,,,64,75
27780,note_on,180,0,2,,,,,,,,,1,,,63,0
27780,note_on,180,0,3,,,,,,,,,2,,,59,0
27780,control_change,0,0,1,,,,,,,,,0,64,127,,
27780,note_on,0,0,1,,,,,,,,,0,,,68,88
27780,note_on,60,0,1,,,,,,,,,0,,,70,0
27840,note_on,60,0,1,,,,,,,,,0,,,68,0
27840,note_on,0,0,1,,,,,,,,,0,,,73,88
27900,note_on,0,0,2,,,,,,,,,1,,,64,75
27900,note_on,120,0,2,,,,,,,,,1,,,64,0
27900,note_on,0,0,3,,,,,,,,,2,,,61,75
27900,note_on,0,0,3,,,,,,,,,2,,,47,75
27900,note_on,0,0,3,,,,,,,,,2,,,54,75
27900,note_on,0,0,3,,,,,,,,,2,,,56,0
27900,note_on,120,0,3,,,,,,,,,2,,,59,0
27900,note_on,0,0,1,,,,,,,,,0,,,70,88
27900,control_change,0,0,1,,,,,,,,,0,64,0,,
27900,note_on,60,0,1,,,,,,,,,0,,,73,0
27900,note_on,0,0,3,,,,,,,,,2,,,47,0
27906,note_on,6,0,2,,,,,,,,,1,,,64,0
27906,note_on,6,0,3,,,,,,,,,2,,,61,0
27906,note_on,0,0,3,,,,,,,,,2,,,54,0
27906,note_on,0,0,3,,,,,,,,,2,,,47,0
27906,note_on,6,0,1,,,,,,,,,0,,,70,0
27960,note_on,54,0,1,,,,,,,,,0,,,71,88
27960,note_on,54,0,2,,,,,,,,,1,,,63,75
27960,note_on,54,0,3,,,,,,,,,2,,,47,75
27960,note_on,0,0,3,,,,,,,,,2,,,59,75
27960,note_on,0,0,3,,,,,,,,,2,,,54,75
28080,note_on,120,0,2,,,,,,,,,1,,,63,0
28080,note_on,0,0,3,,,,,,,,,2,,,58,75
28080,note_on,0,0,3,,,,,,,,,2,,,54,75
28080,note_on,0,0,3,,,,,,,,,2,,,47,0
28080,note_on,0,0,3,,,,,,,,,2,,,54,0
28080,note_on,120,0,1,,,,,,,,,0,,,71,0
28080,note_on,0,0,2,,,,,,,,,1,,,66,75
28080,note_on,0,0,1,,,,,,,,,0,,,73,88
28080,note_on,120,0,3,,,,,,,,,2,,,59,0
28086,note_on,6,0,3,,,,,,,,,2,,,58,0
28086,note_on,6,0,1,,,,,,,,,0,,,73,0
28086,note_on,0,0,3,,,,,,,,,2,,,54,0
28086,note_on,6,0,2,,,,,,,,,1,,,66,0
28140,note_on,54,0,2,,,,,,,,,1,,,66,75
28140,note_on,0,0,3,,,,,,,,,2,,,59,75
28140,note_on,54,0,3,,,,,,,,,2,,,54,75
28140,control_change,54,0,1,,,,,,,,,0,64,127,,
28140,note_on,0,0,1,,,,,,,,,0,,,75,88
28200,note_on,60,0,1,,,,,,,,,0,,,75,0
28200,note_on,0,0,1,,,,,,,,,0,,,80,88
28260,note_on,120,0,3,,,,,,,,,2,,,59,0
28260,note_on,0,0,3,,,,,,,,,2,,,54,0
28260,note_on,0,0,3,,,,,,,,,2,,,54,75
28260,note_on,0,0,3,,,,,,,,,2,,,61,75
28260,control_change,0,0,1,,,,,,,,,0,64,0,,
28260,note_on,120,0,2,,,,,,,,,1,,,66,0
28260,note_on,60,0,1,,,,,,,,,0,,,80,0
28260,note_on,0,0,1,,,,,,,,,0,,,77,88
28260,note_on,0,0,2,,,,,,,,,1,,,71,75
28266,note_on,6,0,1,,,,,,,,,0,,,77,0
28266,note_on,0,0,3,,,,,,,,,2,,,54,0
28266,note_on,6,0,3,,,,,,,,,2,,,61,0
28266,note_on,6,0,2,,,,,,,,,1,,,71,0
28320,control_change,54,0,1,,,,,,,,,0,64,127,,
28320,note_on,0,0,3,,,,,,,,,2,,,61,75
28320,note_on,54,0,3,,,,,,,,,2,,,54,75
28320,note_on,0,0,1,,,,,,,,,0,,,78,88
28320,note_on,54,0,2,,,,,,,,,1,,,70,75
28440,note_on,0,0,3,,,,,,,,,2,,,54,0
28440,note_on,120,0,3,,,,,,,,,2,,,61,0
28440,note_on,120,0,2,,,,,,,,,1,,,70,0
28440,note_on,120,0,1,,,,,,,,,0,,,78,0
28440,note_on,0,0,1,,,,,,,,,0,,,73,88
28470,note_on,30,0,1,,,,,,,,,0,,,73,0
28470,control_change,0,0,1,,,,,,,,,0,64,0,,
28470,note_on,0,0,1,,,,,,,,,0,,,75,88
28500,note_on,0,0,1,,,,,,,,,0,,,76,114
28500,note_on,0,0,3,,,,,,,,,2,,,61,101
28500,note_on,30,0,1,,,,,,,,,0,,,75,0
28500,note_on,0,0,3,,,,,,,,,2,,,56,96
28500,note_on,0,0,1,,,,,,,,,0,,,68,109
28500,note_on,0,0,1,,,,,,,,,0,,,64,104
28500,note_on,60,0,3,,,,,,,,,2,,,49,91
28620,note_on,0,0,1,,,,,,,,,0,,,75,88
28620,note_on,0,0,1,,,,,,,,,0,,,68,0
28620,note_on,0,0,1,,,,,,,,,0,,,64,0
28620,note_on,0,0,1,,,,,,,,,0,,,66,88
28620,note_on,0,0,1,,,,,,,,,0,,,68,88
28620,note_on,0,0,3,,,,,,,,,2,,,60,75
28620,note_on,0,0,3,,,,,,,,,2,,,56,0
28620,note_on,0,0,3,,,,,,,,,2,,,51,75
28620,note_on,0,0,3,,,,,,,,,2,,,56,75
28620,note_on,120,0,1,,,,,,,,,0,,,76,0
28620,note_on,120,0,3,,,,,,,,,2,,,61,0
28620,note_on,0,0,3,,,,,,,,,2,,,49,0
28680,note_on,60,0,3,,,,,,,,,2,,,60,0
28680,note_on,0,0,3,,,,,,,,,2,,,56,0
28680,note_on,0,0,3,,,,,,,,,2,,,51,0
28680,note_on,0,0,3,,,,,,,,,2,,,52,91
28680,note_on,0,0,3,,,,,,,,,2,,,56,96
28680,note_on,0,0,3,,,,,,,,,2,,,61,101
28680,note_on,0,0,1,,,,,,,,,0,,,64,104
28680,note_on,0,0,1,,,,,,,,,0,,,68,109
28680,note_on,0,0,1,,,,,,,,,0,,,66,0
28680,note_on,0,0,1,,,,,,,,,0,,,68,0
28680,note_on,60,0,1,,,,,,,,,0,,,75,0
28680,note_on,0,0,1,,,,,,,,,0,,,73,114
28800,note_on,0,0,3,,,,,,,,,2,,,53,75
28800,note_on,0,0,1,,,,,,,,,0,,,71,88
28800,note_on,0,0,1,,,,,,,,,0,,,68,88
28800,note_on,120,0,3,,,,,,,,,2,,,61,0
28800,note_on,0,0,3,,,,,,,,,2,,,56,0
28800,note_on,0,0,3,,,,,,,,,2,,,52,0
28800,note_on,0,0,3,,,,,,,,,2,,,56,75
28800,note_on,0,0,3,,,,,,,,,2,,,59,75
28800,note_on,0,0,1,,,,,,,,,0,,,63,88
28800,note_on,0,0,1,,,,,,,,,0,,,64,0
28800,note_on,0,0,1,,,,,,,,,0,,,68,0
28800,note_on,120,0,1,,,,,,,,,0,,,73,0
28860,note_on,0,0,1,,,,,,,,,0,,,63,0
28860,note_on,0,0,3,,,,,,,,,2,,,53,0
28860,note_on,0,0,3,,,,,,,,,2,,,54,75
28860,note_on,60,0,1,,,,,,,,,0,,,71,0
28860,note_on,0,0,1,,,,,,,,,0,,,68,0
28860,note_on,60,0,3,,,,,,,,,2,,,59,0
28860,note_on,0,0,3,,,,,,,,,2,,,56,0
28860,control_change,0,0,1,,,,,,,,,0,64,127,,
28860,note_on,420,0,2,,,,,,,,,1,,,63,75
28860,note_on,0,0,1,,,,,,,,,0,,,71,88
28920,note_on,60,0,1,,,,,,,,,0,,,71,0
28920,note_on,0,0,1,,,,,,,,,0,,,75,88
28980,note_on,120,0,2,,,,,,,,,1,,,63,0
28980,note_on,0,0,2,,,,,,,,,1,,,64,75
28980,note_on,0,0,3,,,,,,,,,2,,,54,75
28980,note_on,0,0,3,,,,,,,,,2,,,58,75
28980,note_on,120,0,3,,,,,,,,,2,,,54,0
28980,note_on,0,0,1,,,,,,,,,0,,,73,88
28980,control_change,0,0,1,,,,,,,,,0,64,0,,
28980,note_on,60,0,1,,,,,,,,,0,,,75,0
28986,note_on,0,0,3,,,,,,,,,2,,,54,0
28986,note_on,6,0,1,,,,,,,,,0,,,73,0
28986,note_on,6,0,2,,,,,,,,,1,,,64,0
28986,note_on,6,0,3,,,,,,,,,2,,,58,0
29040,note_on,0,0,3,,,,,,,,,2,,,59,75
29040,note_on,54,0,1,,,,,,,,,0,,,63,88
29040,note_on,0,0,1,,,,,,,,,0,,,71,88
29040,note_on,54,0,3,,,,,,,,,2,,,47,75
29160,note_on,0,0,1,,,,,,,,,0,,,71,88
29160,note_on,120,0,1,,,,,,,,,0,,,71,0
29160,note_on,120,0,3,,,,,,,,,2,,,59,0
29160,note_on,0,0,3,,,,,,,,,2,,,47,0
29160,note_on,0,0,1,,,,,,,,,0,,,63,0
29190,note_on,30,0,1,,,,,,,,,0,,,71,0
29190,note_on,0,0,1,,,,,,,,,0,,,73,88
29220,note_on,60,0,3,,,,,,,,,2,,,59,75
29220,note_on,0,0,3,,,,,,,,,2,,,63,75
29220,note_on,234,0,2,,,,,,,,,1,,,71,75
29220,note_on,30,0,1,,,,,,,,,0,,,73,0
29220,control_change,0,0,1,,,,,,,,,0,64,127,,
29220,note_on,0,0,1,,,,,,,,,0,,,75,88
29280,note_on,60,0,1,,,,,,,,,0,,,75,0
29280,note_on,0,0,1,,,,,,,,,0,,,80,88
29340,note_on,60,0,1,,,,,,,,,0,,,80,0
29340,control_change,0,0,1,,,,,,,,,0,64,0,,
29340,note_on,0,0,1,,,,,,,,,0,,,77,88
29340,note_on,0,0,3,,,,,,,,,2,,,59,0
29340,note_on,0,0,2,,,,,,,,,1,,,71,75
29340,note_on,0,0,3,,,,,,,,,2,,,62,75
29340,note_on,0,0,3,,,,,,,,,2,,,59,75
29340,note_on,120,0,3,,,,,,,,,2,,,63,0
29340,note_on,120,0,2,,,,,,,,,1,,,71,0
29346,note_on,0,0,3,,,,,,,,,2,,,59,0
29346,note_on,6,0,3,,,,,,,,,2,,,62,0
29346,note_on,6,0,1,,,,,,,,,0,,,77,0
29346,note_on,6,0,2,,,,,,,,,1,,,71,0
29400,note_on,54,0,2,,,,,,,,,1,,,71,75
29400,note_on,0,0,3,,,,,,,,,2,,,63,75
29400,note_on,0,0,3,,,,,,,,,2,,,59,75
29400,control_change,54,0,3,,,,,,,,,2,64,127,,
29400,note_on,54,0,1,,,,,,,,,0,,,78,88
29520,note_on,0,0,3,,,,,,,,,2,,,59,49
29520,note_on,120,0,1,,,,,,,,,0,,,78,0
29520,note_on,0,0,3,,,,,,,,,2,,,59,0
29520,note_on,120,0,2,,,,,,,,,1,,,71,0
29520,note_on,120,0,3,,,,,,,,,2,,,63,0
29550,control_change,0,0,3,,,,,,,,,2,64,0,,
29550,note_on,30,0,3,,,,,,,,,2,,,59,0
29550,note_on,0,0,3,,,,,,,,,2,,,56,49
29580,control_change,60,0,1,,,,,,,,,0,64,127,,
29580,note_on,30,0,3,,,,,,,,,2,,,56,0
29580,note_on,0,0,3,,,,,,,,,2,,,54,36
29580,note_on,60,0,2,,,,,,,,,1,,,63,36
29580,note_on,0,0,1,,,,,,,,,0,,,71,49
29640,note_on,0,0,1,,,,,,,,,0,,,75,49
29640,note_on,60,0,1,,,,,,,,,0,,,71,0
29700,note_on,0,0,1,,,,,,,,,0,,,73,49
29700,note_on,0,0,3,,,,,,,,,2,,,58,36
29700,note_on,0,0,2,,,,,,,,,1,,,64,36
29700,note_on,120,0,2,,,,,,,,,1,,,63,0
29700,note_on,0,0,3,,,,,,,,,2,,,54,36
29700,note_on,120,0,3,,,,,,,,,2,,,54,0
29700,note_on,60,0,1,,,,,,,,,0,,,75,0
29700,control_change,0,0,1,,,,,,,,,0,64,0,,
29706,note_on,6,0,3,,,,,,,,,2,,,58,0
29706,note_on,6,0,2,,,,,,,,,1,,,64,0
29706,note_on,6,0,1,,,,,,,,,0,,,73,0
29706,note_on,0,0,3,,,,,,,,,2,,,54,0
29760,note_on,54,0,3,,,,,,,,,2,,,59,36
29760,note_on,54,0,2,,,,,,,,,1,,,63,36
29760,control_change,54,0,1,,,,,,,,,0,64,127,,
29760,note_on,0,0,1,,,,,,,,,0,,,71,49
29880,note_on,0,0,1,,,,,,,,,0,,,71,88
29880,note_on,120,0,1,,,,,,,,,0,,,71,0
29880,note_on,120,0,3,,,,,,,,,2,,,59,0
29880,note_on,120,0,2,,,,,,,,,1,,,63,0
29910,control_change,0,0,1,,,,,,,,,0,64,0,,
29910,note_on,30,0,1,,,,,,,,,0,,,71,0
29910,note_on,0,0,1,,,,,,,,,0,,,73,88
29940,note_on,0,0,3,,,,,,,,,2,,,59,75
29940,control_change,60,0,3,,,,,,,,,2,64,127,,
29940,note_on,0,0,2,,,,,,,,,1,,,71,75
29940,note_on,0,0,3,,,,,,,,,2,,,63,75
29940,note_on,30,0,1,,,,,,,,,0,,,73,0
29940,note_on,0,0,1,,,,,,,,,0,,,75,88
29940,control_change,0,0,1,,,,,,,,,0,64,127,,
29940,control_change,60,0,2,,,,,,,,,1,64,127,,
30000,note_on,0,0,1,,,,,,,,,0,,,80,88
30000,note_on,60,0,1,,,,,,,,,0,,,75,0
30060,note_on,0,0,3,,,,,,,,,2,,,62,75
30060,note_on,0,0,1,,,,,,,,,0,,,77,88
30060,note_on,0,0,3,,,,,,,,,2,,,59,75
30060,note_on,120,0,3,,,,,,,,,2,,,63,0
30060,note_on,0,0,3,,,,,,,,,2,,,59,0
30060,note_on,0,0,2,,,,,,,,,1,,,71,75
30060,note_on,120,0,2,,,,,,,,,1,,,71,0
30060,note_on,60,0,1,,,,,,,,,0,,,80,0
30066,note_on,6,0,1,,,,,,,,,0,,,77,0
30066,note_on,6,0,3,,,,,,,,,2,,,62,0
30066,note_on,0,0,3,,,,,,,,,2,,,59,0
30066,note_on,6,0,2,,,,,,,,,1,,,71,0
30120,note_on,0,0,1,,,,,,,,,0,,,78,88
30120,control_change,54,0,3,,,,,,,,,2,64,0,,
30120,note_on,0,0,3,,,,,,,,,2,,,63,75
30120,note_on,0,0,2,,,,,,,,,1,,,71,75
30120,control_change,54,0,2,,,,,,,,,1,64,0,,
30120,control_change,54,0,1,,,,,,,,,0,64,0,,
30120,note_on,0,0,3,,,,,,,,,2,,,59,75
30240,note_on,120,0,3,,,,,,,,,2,,,63,0
30240,note_on,120,0,1,,,,,,,,,0,,,78,0
30240,note_on,120,0,2,,,,,,,,,1,,,71,0
30240,note_on,0,0,3,,,,,,,,,2,,,59,49
30240,note_on,0,0,3,,,,,,,,,2,,,59,0
30270,control_change,0,0,3,,,,,,,,,2,64,0,,
30270,note_on,0,0,3,,,,,,,,,2,,,61,49
30270,note_on,30,0,3,,,,,,,,,2,,,59,0
30300,control_change,60,0,1,,,,,,,,,0,64,127,,
30300,note_on,0,0,1,,,,,,,,,0,,,71,49
30300,note_on,30,0,3,,,,,,,,,2,,,61,0
30300,control_change,0,0,3,,,,,,,,,2,64,127,,
30300,note_on,0,0,3,,,,,,,,,2,,,54,36
30300,note_on,0,0,3,,,,,,,,,2,,,63,36
30360,note_on,0,0,1,,,,,,,,,0,,,78,49
30360,note_on,60,0,1,,,,,,,,,0,,,71,0
30420,note_on,60,0,1,,,,,,,,,0,,,78,0
30420,control_change,0,0,1,,,,,,,,,0,64,0,,
30420,note_on,0,0,3,,,,,,,,,2,,,61,36
30420,note_on,0,0,3,,,,,,,,,2,,,54,0
30420,control_change,0,0,3,,,,,,,,,2,64,0,,
30420,note_on,0,0,1,,,,,,,,,0,,,70,49
30420,note_on,120,0,3,,,,,,,,,2,,,63,0
30420,note_on,0,0,3,,,,,,,,,2,,,54,36
30426,note_on,6,0,1,,,,,,,,,0,,,70,0
30426,note_on,0,0,3,,,,,,,,,2,,,54,0
30426,note_on,6,0,3,,,,,,,,,2,,,61,0
30480,note_on,54,0,1,,,,,,,,,0,,,71,49
30480,note_on,0,0,3,,,,,,,,,2,,,59,36
30480,note_on,54,0,3,,,,,,,,,2,,,47,36
30600,note_on,0,0,3,,,,,,,,,2,,,56,75
30600,note_on,0,0,1,,,,,,,,,0,,,68,88
30600,note_on,120,0,3,,,,,,,,,2,,,59,0
30600,note_on,0,0,3,,,,,,,,,2,,,47,0
30600,note_on,120,0,1,,,,,,,,,0,,,71,0
30630,note_on,30,0,1,,,,,,,,,0,,,68,0
30630,note_on,0,0,1,,,,,,,,,0,,,70,88
30630,note_on,0,0,3,,,,,,,,,2,,,58,75
30630,note_on,30,0,3,,,,,,,,,2,,,56,0
30660,note_on,0,0,3,,,,,,,,,2,,,59,75
30660,control_change,0,0,3,,,,,,,,,2,64,127,,
30660,note_on,30,0,3,,,,,,,,,2,,,58,0
30660,note_on,30,0,1,,,,,,,,,0,,,70,0
30660,control_change,0,0,1,,,,,,,,,0,64,127,,
30660,note_on,0,0,1,,,,,,,,,0,,,71,88
30720,note_on,60,0,3,,,,,,,,,2,,,59,0
30720,note_on,0,0,1,,,,,,,,,0,,,75,88
30720,note_on,60,0,1,,,,,,,,,0,,,71,0
30720,note_on,0,0,3,,,,,,,,,2,,,63,75
30780,note_on,60,0,1,,,,,,,,,0,,,75,0
30780,control_change,0,0,1,,,,,,,,,0,64,0,,
30780,note_on,0,0,1,,,,,,,,,0,,,70,88
30780,note_on,0,0,3,,,,,,,,,2,,,58,75
30780,control_change,0,0,3,,,,,,,,,2,64,0,,
30780,note_on,60,0,3,,,,,,,,,2,,,63,0
30786,note_on,6,0,3,,,,,,,,,2,,,58,0
30786,note_on,6,0,1,,,,,,,,,0,,,70,0
30840,control_change,54,0,3,,,,,,,,,2,64,127,,
30840,note_on,0,0,1,,,,,,,,,0,,,68,88
30840,control_change,54,0,1,,,,,,,,,0,64,127,,
30840,note_on,0,0,3,,,,,,,,,2,,,56,75
30900,note_on,0,0,3,,,,,,,,,2,,,59,75
30900,note_on,0,0,1,,,,,,,,,0,,,71,88
30900,note_on,60,0,1,,,,,,,,,0,,,68,0
30900,note_on,60,0,3,,,,,,,,,2,,,56,0
30960,note_on,0,0,1,,,,,,,,,0,,,66,88
30960,note_on,0,0,3,,,,,,,,,2,,,54,75
30960,control_change,0,0,3,,,,,,,,,2,64,0,,
30960,note_on,60,0,3,,,,,,,,,2,,,59,0
30960,note_on,60,0,1,,,,,,,,,0,,,71,0
30960,control_change,0,0,1,,,,,,,,,0,64,0,,
30966,note_on,6,0,1,,,,,,,,,0,,,66,0
30966,note_on,6,0,3,,,,,,,,,2,,,54,0
31020,note_on,0,0,3,,,,,,,,,2,,,53,75
31020,note_on,0,0,1,,,,,,,,,0,,,65,88
31020,control_change,54,0,1,,,,,,,,,0,64,127,,
31020,control_change,54,0,3,,,,,,,,,2,64,127,,
31080,note_on,60,0,3,,,,,,,,,2,,,53,0
31080,note_on,0,0,3,,,,,,,,,2,,,56,75
31080,note_on,0,0,1,,,,,,,,,0,,,68,88
31080,note_on,60,0,1,,,,,,,,,0,,,65,0
31140,control_change,0,0,3,,,,,,,,,2,64,0,,
31140,note_on,60,0,3,,,,,,,,,2,,,56,0
31140,control_change,0,0,1,,,,,,,,,0,64,0,,
31140,note_on,0,0,3,,,,,,,,,2,,,51,75
31140,note_on,60,0,1,,,,,,,,,0,,,68,0
31140,note_on,0,0,1,,,,,,,,,0,,,63,88
31146,note_on,6,0,3,,,,,,,,,2,,,51,0
31146,note_on,6,0,1,,,,,,,,,0,,,63,0
31200,note_on,54,0,1,,,,,,,,,0,,,61,88
31200,note_on,54,0,3,,,,,,,,,2,,,49,75
31320,note_on,120,0,3,,,,,,,,,2,,,49,0
31320,note_on,120,0,1,,,,,,,,,0,,,61,0
31380,note_on,0,0,3,,,,,,,,,2,,,42,36
31380,control_change,60,0,3,,,,,,,,,2,64,127,,
31380,control_change,60,0,1,,,,,,,,,0,64,127,,
31380,note_on,0,0,1,,,,,,,,,0,,,73,49
31386,note_on,6,0,3,,,,,,,,,2,,,42,0
31440,note_on,54,0,3,,,,,,,,,2,,,58,36
31440,note_on,0,0,3,,,,,,,,,2,,,66,36
31440,note_on,0,0,1,,,,,,,,,0,,,75,49
31440,note_on,60,0,1,,,,,,,,,0,,,73,0
31446,note_on,0,0,3,,,,,,,,,2,,,58,0
31446,note_on,6,0,3,,,,,,,,,2,,,66,0
31500,note_on,0,0,1,,,,,,,,,0,,,72,49
31500,note_on,60,0,1,,,,,,,,,0,,,75,0
31500,note_on,54,0,3,,,,,,,,,2,,,58,36
31500,note_on,0,0,3,,,,,,,,,2,,,66,36
31506,note_on,0,0,3,,,,,,,,,2,,,58,0
31506,note_on,6,0,3,,,,,,,,,2,,,66,0
31560,note_on,60,0,1,,,,,,,,,0,,,72,0
31560,note_on,0,0,1,,,,,,,,,0,,,73,49
31560,note_on,0,0,3,,,,,,,,,2,,,66,36
31560,note_on,54,0,3,,,,,,,,,2,,,58,36
31566,note_on,0,0,3,,,,,,,,,2,,,58,0
31566,note_on,6,0,3,,,,,,,,,2,,,66,0
31620,note_on,0,0,3,,,,,,,,,2,,,66,36
31620,note_on,54,0,3,,,,,,,,,2,,,58,36
31626,note_on,6,0,3,,,,,,,,,2,,,66,0
31626,note_on,0,0,3,,,,,,,,,2,,,58,0
31680,note_on,0,0,3,,,,,,,,,2,,,66,36
31680,note_on,54,0,3,,,,,,,,,2,,,58,36
31680,note_on,0,0,1,,,,,,,,,0,,,78,49
31680,note_on,120,0,1,,,,,,,,,0,,,73,0
31686,note_on,0,0,3,,,,,,,,,2,,,58,0
31686,note_on,6,0,3,,,,,,,,,2,,,66,0
31740,note_on,54,0,3,,,,,,,,,2,,,58,54
31740,note_on,0,0,3,,,,,,,,,2,,,61,62
31740,note_on,60,0,1,,,,,,,,,0,,,78,0
31740,note_on,0,0,1,,,,,,,,,0,,,78,49
31746,note_on,6,0,3,,,,,,,,,2,,,61,0
31746,note_on,0,0,3,,,,,,,,,2,,,58,0
31800,note_on,54,0,3,,,,,,,,,2,,,58,36
31800,note_on,0,0,3,,,,,,,,,2,,,66,36
31806,note_on,6,0,3,,,,,,,,,2,,,66,0
31806,note_on,0,0,3,,,,,,,,,2,,,58,0
31860,note_on,120,0,1,,,,,,,,,0,,,78,0
31860,note_on,0,0,1,,,,,,,,,0,,,73,49
31860,note_on,54,0,3,,,,,,,,,2,,,58,36
31860,note_on,0,0,3,,,,,,,,,2,,,66,36
31866,note_on,6,0,3,,,,,,,,,2,,,66,0
31866,note_on,0,0,3,,,,,,,,,2,,,58,0
31920,note_on,60,0,1,,,,,,,,,0,,,73,0
31920,control_change,0,0,1,,,,,,,,,0,64,0,,
31920,note_on,0,0,1,,,,,,,,,0,,,73,49
31920,note_on,0,0,3,,,,,,,,,2,,,66,36
31920,note_on,54,0,3,,,,,,,,,2,,,58,36
31926,note_on,6,0,3,,,,,,,,,2,,,66,0
31926,note_on,0,0,3,,,,,,,,,2,,,58,0
31980,note_on,54,0,3,,,,,,,,,2,,,58,36
31980,note_on,0,0,3,,,,,,,,,2,,,61,36
31986,note_on,6,0,3,,,,,,,,,2,,,61,0
31986,note_on,0,0,3,,,,,,,,,2,,,58,0
32040,control_change,54,0,3,,,,,,,,,2,64,0,,
32040,note_on,0,0,3,,,,,,,,,2,,,58,36
32040,note_on,0,0,3,,,,,,,,,2,,,66,36
32040,note_on,120,0,1,,,,,,,,,0,,,73,0
32046,note_on,6,0,3,,,,,,,,,2,,,66,0
32046,note_on,0,0,3,,,,,,,,,2,,,58,0
32100,note_on,0,0,1,,,,,,,,,0,,,73,49
32100,control_change,60,0,1,,,,,,,,,0,64,127,,
32100,note_on,0,0,3,,,,,,,,,2,,,49,36
32100,control_change,54,0,3,,,,,,,,,2,64,127,,
32106,note_on,6,0,3,,,,,,,,,2,,,49,0
32160,note_on,0,0,3,,,,,,,,,2,,,65,36
32160,note_on,0,0,1,,,,,,,,,0,,,75,49
32160,note_on,60,0,1,,,,,,,,,0,,,73,0
32160,note_on,54,0,3,,,,,,,,,2,,,59,36
32166,note_on,6,0,3,,,,,,,,,2,,,65,0
32166,note_on,0,0,3,,,,,,,,,2,,,59,0
32220,note_on,60,0,1,,,,,,,,,0,,,75,0
32220,note_on,0,0,1,,,,,,,,,0,,,72,49
32220,note_on,0,0,3,,,,,,,,,2,,,65,36
32220,note_on,54,0,3,,,,,,,,,2,,,59,36
32226,note_on,0,0,3,,,,,,,,,2,,,59,0
32226,note_on,6,0,3,,,,,,,,,2,,,65,0
32280,note_on,0,0,3,,,,,,,,,2,,,65,36
32280,note_on,0,0,1,,,,,,,,,0,,,73,49
32280,note_on,60,0,1,,,,,,,,,0,,,72,0
32280,note_on,54,0,3,,,,,,,,,2,,,59,36
32286,note_on,6,0,3,,,,,,,,,2,,,65,0
32286,note_on,0,0,3,,,,,,,,,2,,,59,0
32340,note_on,54,0,3,,,,,,,,,2,,,59,36
32340,note_on,0,0,3,,,,,,,,,2,,,65,36
32346,note_on,6,0,3,,,,,,,,,2,,,65,0
32346,note_on,0,0,3,,,,,,,,,2,,,59,0
32400,note_on,120,0,1,,,,,,,,,0,,,73,0
32400,note_on,54,0,3,,,,,,,,,2,,,59,36
32400,note_on,0,0,3,,,,,,,,,2,,,65,36
32400,note_on,0,0,1,,,,,,,,,0,,,80,49
32406,note_on,6,0,3,,,,,,,,,2,,,65,0
32406,note_on,0,0,3,,,,,,,,,2,,,59,0
32460,note_on,60,0,1,,,,,,,,,0,,,80,0
32460,note_on,0,0,1,,,,,,,,,0,,,80,75
32460,note_on,0,0,3,,,,,,,,,2,,,61,62
32460,note_on,54,0,3,,,,,,,,,2,,,59,54
32466,note_on,6,0,3,,,,,,,,,2,,,61,0
32466,note_on,0,0,3,,,,,,,,,2,,,59,0
32520,note_on,0,0,3,,,,,,,,,2,,,65,36
32520,note_on,54,0,3,,,,,,,,,2,,,59,36
32526,note_on,0,0,3,,,,,,,,,2,,,59,0
32526,note_on,6,0,3,,,,,,,,,2,,,65,0
32580,note_on,0,0,3,,,,,,,,,2,,,65,36
32580,note_on,54,0,3,,,,,,,,,2,,,59,36
32580,note_on,120,0,1,,,,,,,,,0,,,80,0
32580,note_on,0,0,1,,,,,,,,,0,,,73,49
32586,note_on,6,0,3,,,,,,,,,2,,,65,0
32586,note_on,0,0,3,,,,,,,,,2,,,59,0
32640,note_on,0,0,1,,,,,,,,,0,,,73,49
32640,control_change,0,0,1,,,,,,,,,0,64,0,,
32640,note_on,60,0,1,,,,,,,,,0,,,73,0
32640,note_on,54,0,3,,,,,,,,,2,,,59,36
32640,note_on,0,0,3,,,,,,,,,2,,,65,36
32646,note_on,6,0,3,,,,,,,,,2,,,65,0
32646,note_on,0,0,3,,,,,,,,,2,,,59,0
32700,note_on,54,0,3,,,,,,,,,2,,,59,36
32700,note_on,0,0,3,,,,,,,,,2,,,61,36
32706,note_on,6,0,3,,,,,,,,,2,,,61,0
32706,note_on,0,0,3,,,,,,,,,2,,,59,0
32760,note_on,120,0,1,,,,,,,,,0,,,73,0
32760,note_on,0,0,3,,,,,,,,,2,,,59,36
32760,control_change,54,0,3,,,,,,,,,2,64,0,,
32760,note_on,0,0,3,,,,,,,,,2,,,65,36
32766,note_on,6,0,3,,,,,,,,,2,,,65,0
32766,note_on,0,0,3,,,,,,,,,2,,,59,0
32820,note_on,0,0,3,,,,,,,,,2,,,42,36
32820,note_on,0,0,1,,,,,,,,,0,,,73,49
32820,control_change,60,0,1,,,,,,,,,0,64,127,,
32820,control_change,54,0,3,,,,,,,,,2,64,127,,
32826,note_on,6,0,3,,,,,,,,,2,,,42,0
32880,note_on,0,0,1,,,,,,,,,0,,,75,49
32880,note_on,60,0,1,,,,,,,,,0,,,73,0
32880,note_on,0,0,3,,,,,,,,,2,,,61,36
32880,note_on,54,0,3,,,,,,,,,2,,,58,36
32886,note_on,0,0,3,,,,,,,,,2,,,58,0
32886,note_on,6,0,3,,,,,,,,,2,,,61,0
32940,note_on,0,0,1,,,,,,,,,0,,,72,49
32940,note_on,60,0,1,,,,,,,,,0,,,75,0
32940,note_on,54,0,3,,,,,,,,,2,,,57,36
32940,note_on,0,0,3,,,,,,,,,2,,,61,36
32946,note_on,6,0,3,,,,,,,,,2,,,61,0
32946,note_on,0,0,3,,,,,,,,,2,,,57,0
32946,note_on,6,0,1,,,,,,,,,0,,,72,0
33000,note_on,54,0,3,,,,,,,,,2,,,58,36
33000,note_on,0,0,3,,,,,,,,,2,,,61,36
33000,note_on,54,0,1,,,,,,,,,0,,,73,49
33060,note_on,60,0,3,,,,,,,,,2,,,61,0
33060,note_on,0,0,3,,,,,,,,,2,,,58,0
33060,note_on,0,0,3,,,,,,,,,2,,,59,36
33060,note_on,0,0,3,,,,,,,,,2,,,56,36
33120,note_on,0,0,3,,,,,,,,,2,,,56,0
33120,control_change,0,0,3,,,,,,,,,2,64,0,,
33120,note_on,0,0,3,,,,,,,,,2,,,54,36
33120,note_on,0,0,3,,,,,,,,,2,,,58,36
33120,note_on,60,0,3,,,,,,,,,2,,,59,0
33120,note_on,0,0,1,,,,,,,,,0,,,82,49
33120,control_change,0,0,1,,,,,,,,,0,64,0,,
33120,note_on,120,0,1,,,,,,,,,0,,,73,0
33126,note_on,0,0,3,,,,,,,,,2,,,54,0
33126,note_on,6,0,3,,,,,,,,,2,,,58,0
33180,control_change,54,0,3,,,,,,,,,2,64,127,,
33180,note_on,0,0,1,,,,,,,,,0,,,70,62
33180,control_change,0,0,1,,,,,,,,,0,64,127,,
33180,note_on,60,0,1,,,,,,,,,0,,,82,0
33180,note_on,0,0,3,,,,,,,,,2,,,39,49
33186,note_on,6,0,3,,,,,,,,,2,,,39,0
33240,note_on,0,0,3,,,,,,,,,2,,,58,49
33240,note_on,54,0,3,,,,,,,,,2,,,54,49
33240,note_on,60,0,1,,,,,,,,,0,,,70,0
33240,note_on,0,0,1,,,,,,,,,0,,,71,62
33246,note_on,6,0,3,,,,,,,,,2,,,58,0
33246,note_on,0,0,3,,,,,,,,,2,,,54,0
33300,note_on,54,0,3,,,,,,,,,2,,,53,49
33300,note_on,60,0,1,,,,,,,,,0,,,71,0
33300,note_on,0,0,1,,,,,,,,,0,,,69,62
33300,note_on,0,0,3,,,,,,,,,2,,,58,49
33306,note_on,6,0,3,,,,,,,,,2,,,58,0
33306,note_on,0,0,3,,,,,,,,,2,,,53,0
33306,note_on,6,0,1,,,,,,,,,0,,,69,0
33360,note_on,54,0,1,,,,,,,,,0,,,70,75
33360,note_on,54,0,3,,,,,,,,,2,,,54,62
33360,note_on,0,0,3,,,,,,,,,2,,,58,62
33420,note_on,0,0,3,,,,,,,,,2,,,53,62
33420,note_on,60,0,3,,,,,,,,,2,,,58,0
33420,note_on,0,0,3,,,,,,,,,2,,,54,0
33420,note_on,0,0,3,,,,,,,,,2,,,56,62
33480,note_on,0,0,3,,,,,,,,,2,,,51,62
33480,control_change,0,0,3,,,,,,,,,2,64,0,,
33480,note_on,0,0,3,,,,,,,,,2,,,53,0
33480,note_on,60,0,3,,,,,,,,,2,,,56,0
33480,note_on,0,0,1,,,,,,,,,0,,,78,75
33480,control_change,0,0,1,,,,,,,,,0,64,0,,
33480,note_on,120,0,1,,,,,,,,,0,,,70,0
33480,note_on,0,0,3,,,,,,,,,2,,,54,62
33486,note_on,0,0,3,,,,,,,,,2,,,51,0
33486,note_on,6,0,3,,,,,,,,,2,,,54,0
33540,control_change,54,0,3,,,,,,,,,2,64,127,,
33540,note_on,0,0,3,,,,,,,,,2,,,35,62
33540,note_on,60,0,1,,,,,,,,,0,,,78,0
33540,control_change,0,0,1,,,,,,,,,0,64,127,,
33540,note_on,0,0,1,,,,,,,,,0,,,66,75
33546,note_on,6,0,3,,,,,,,,,2,,,35,0
33600,note_on,0,0,1,,,,,,,,,0,,,68,75
33600,note_on,54,0,3,,,,,,,,,2,,,51,62
33600,note_on,0,0,3,,,,,,,,,2,,,54,62
33600,note_on,60,0,1,,,,,,,,,0,,,66,0
33606,note_on,6,0,3,,,,,,,,,2,,,54,0
33606,note_on,0,0,3,,,,,,,,,2,,,51,0
33660,note_on,54,0,3,,,,,,,,,2,,,50,62
33660,note_on,0,0,3,,,,,,,,,2,,,54,62
33660,note_on,0,0,1,,,,,,,,,0,,,65,75
33660,note_on,60,0,1,,,,,,,,,0,,,68,0
33666,note_on,0,0,3,,,,,,,,,2,,,50,0
33666,note_on,6,0,3,,,,,,,,,2,,,54,0
33666,note_on,6,0,1,,,,,,,,,0,,,65,0
33720,note_on,54,0,1,,,,,,,,,0,,,66,75
33720,note_on,54,0,3,,,,,,,,,2,,,51,62
33720,note_on,0,0,3,,,,,,,,,2,,,54,62
33780,note_on,60,0,3,,,,,,,,,2,,,54,0
33780,note_on,0,0,3,,,,,,,,,2,,,49,62
33780,note_on,0,0,3,,,,,,,,,2,,,52,62
33780,note_on,0,0,3,,,,,,,,,2,,,51,0
33840,note_on,0,0,3,,,,,,,,,2,,,49,0
33840,control_change,0,0,1,,,,,,,,,0,64,0,,
33840,control_change,0,0,3,,,,,,,,,2,64,0,,
33840,note_on,120,0,1,,,,,,,,,0,,,66,0
33840,note_on,0,0,3,,,,,,,,,2,,,47,36
33840,note_on,60,0,3,,,,,,,,,2,,,52,0
33840,note_on,0,0,3,,,,,,,,,2,,,51,36
33840,note_on,0,0,1,,,,,,,,,0,,,75,49
33846,note_on,6,0,3,,,,,,,,,2,,,51,0
33846,note_on,0,0,3,,,,,,,,,2,,,47,0
33900,note_on,0,0,3,,,,,,,,,2,,,53,36
33900,control_change,54,0,3,,,,,,,,,2,64,127,,
33900,note_on,60,0,1,,,,,,,,,0,,,75,0
33900,control_change,0,0,1,,,,,,,,,0,64,127,,
33900,note_on,0,0,3,,,,,,,,,2,,,49,36
33900,note_on,0,0,1,,,,,,,,,0,,,73,49
33960,note_on,0,0,3,,,,,,,,,2,,,49,0
33960,note_on,0,0,3,,,,,,,,,2,,,61,36
33960,note_on,60,0,3,,,,,,,,,2,,,53,0
34020,note_on,120,0,1,,,,,,,,,0,,,73,0
34020,control_change,0,0,1,,,,,,,,,0,64,0,,
34020,note_on,0,0,1,,,,,,,,,0,,,69,49
34020,note_on,60,0,3,,,,,,,,,2,,,61,0
34020,control_change,0,0,3,,,,,,,,,2,64,0,,
34020,note_on,0,0,3,,,,,,,,,2,,,49,36
34020,note_on,0,0,3,,,,,,,,,2,,,53,36
34080,note_on,0,0,1,,,,,,,,,0,,,70,49
34080,note_on,60,0,1,,,,,,,,,0,,,69,0
34080,note_on,60,0,3,,,,,,,,,2,,,53,0
34080,note_on,0,0,3,,,,,,,,,2,,,54,36
34080,control_change,0,0,3,,,,,,,,,2,64,127,,
34080,note_on,0,0,3,,,,,,,,,2,,,49,0
34140,note_on,60,0,3,,,,,,,,,2,,,54,0
34140,note_on,0,0,3,,,,,,,,,2,,,37,36
34146,note_on,6,0,3,,,,,,,,,2,,,37,0
34200,control_change,54,0,3,,,,,,,,,2,64,0,,
34200,note_on,120,0,1,,,,,,,,,0,,,70,0
34200,note_on,0,0,3,,,,,,,,,2,,,41,36
34206,note_on,6,0,3,,,,,,,,,2,,,41,0
34260,note_on,0,0,1,,,,,,,,,0,,,73,36
34260,control_change,60,0,1,,,,,,,,,0,64,127,,
34260,control_change,54,0,3,,,,,,,,,2,64,127,,
34260,note_on,0,0,3,,,,,,,,,2,,,42,36
34266,note_on,6,0,3,,,,,,,,,2,,,42,0
34320,note_on,54,0,3,,,,,,,,,2,,,57,36
34320,note_on,0,0,1,,,,,,,,,0,,,74,36
34320,note_on,0,0,3,,,,,,,,,2,,,66,36
34320,note_on,60,0,1,,,,,,,,,0,,,73,0
34326,note_on,6,0,3,,,,,,,,,2,,,66,0
34326,note_on,0,0,3,,,,,,,,,2,,,57,0
34380,note_on,54,0,3,,,,,,,,,2,,,57,36
34380,note_on,60,0,1,,,,,,,,,0,,,74,0
34380,note_on,0,0,1,,,,,,,,,0,,,72,36
34380,note_on,0,0,3,,,,,,,,,2,,,66,36
34386,note_on,0,0,3,,,,,,,,,2,,,57,0
34386,note_on,6,0,3,,,,,,,,,2,,,66,0
34440,note_on,0,0,3,,,,,,,,,2,,,66,36
34440,note_on,0,0,1,,,,,,,,,0,,,73,36
34440,note_on,60,0,1,,,,,,,,,0,,,72,0
34440,note_on,54,0,3,,,,,,,,,2,,,57,36
34446,note_on,6,0,3,,,,,,,,,2,,,66,0
34446,note_on,0,0,3,,,,,,,,,2,,,57,0
34500,note_on,54,0,3,,,,,,,,,2,,,57,36
34500,note_on,0,0,3,,,,,,,,,2,,,66,36
34506,note_on,6,0,3,,,,,,,,,2,,,66,0
34506,note_on,0,0,3,,,,,,,,,2,,,57,0
34560,note_on,54,0,3,,,,,,,,,2,,,57,36
34560,note_on,120,0,1,,,,,,,,,0,,,73,0
34560,note_on,0,0,1,,,,,,,,,0,,,78,36
34560,note_on,0,0,3,,,,,,,,,2,,,66,36
34566,note_on,6,0,3,,,,,,,,,2,,,66,0
34566,note_on,0,0,3,,,,,,,,,2,,,57,0
34620,note_on,54,0,3,,,,,,,,,2,,,57,36
34620,note_on,0,0,1,,,,,,,,,0,,,78,62
34620,note_on,60,0,1,,,,,,,,,0,,,78,0
34620,note_on,0,0,3,,,,,,,,,2,,,61,36
34626,note_on,6,0,3,,,,,,,,,2,,,61,0
34626,note_on,0,0,3,,,,,,,,,2,,,57,0
34680,note_on,54,0,3,,,,,,,,,2,,,57,36
34680,note_on,0,0,3,,,,,,,,,2,,,66,36
34686,note_on,6,0,3,,,,,,,,,2,,,66,0
34686,note_on,0,0,3,,,,,,,,,2,,,57,0
34740,note_on,54,0,3,,,,,,,,,2,,,57,36
34740,note_on,0,0,3,,,,,,,,,2,,,66,36
34740,note_on,0,0,1,,,,,,,,,0,,,73,36
34740,note_on,120,0,1,,,,,,,,,0,,,78,0
34746,note_on,6,0,3,,,,,,,,,2,,,66,0
34746,note_on,0,0,3,,,,,,,,,2,,,57,0
34800,note_on,0,0,3,,,,,,,,,2,,,66,36
34800,note_on,54,0,3,,,,,,,,,2,,,57,36
34800,note_on,60,0,1,,,,,,,,,0,,,73,0
34800,control_change,0,0,1,,,,,,,,,0,64,0,,
34800,note_on,0,0,1,,,,,,,,,0,,,73,36
34806,note_on,0,0,3,,,,,,,,,2,,,57,0
34806,note_on,6,0,3,,,,,,,,,2,,,66,0
34860,note_on,0,0,3,,,,,,,,,2,,,61,36
34860,note_on,54,0,3,,,,,,,,,2,,,57,36
34866,note_on,0,0,3,,,,,,,,,2,,,57,0
34866,note_on,6,0,3,,,,,,,,,2,,,61,0
34920,control_change,54,0,3,,,,,,,,,2,64,0,,
34920,note_on,0,0,3,,,,,,,,,2,,,57,36
34920,note_on,0,0,3,,,,,,,,,2,,,66,36
34920,note_on,120,0,1,,,,,,,,,0,,,73,0
34926,note_on,6,0,3,,,,,,,,,2,,,66,0
34926,note_on,0,0,3,,,,,,,,,2,,,57,0
34980,note_on,0,0,1,,,,,,,,,0,,,74,49
34980,control_change,60,0,1,,,,,,,,,0,64,127,,
34980,control_change,54,0,3,,,,,,,,,2,64,127,,
34980,note_on,0,0,3,,,,,,,,,2,,,40,36
34986,note_on,6,0,3,,,,,,,,,2,,,40,0
35040,note_on,0,0,1,,,,,,,,,0,,,76,49
35040,note_on,60,0,1,,,,,,,,,0,,,74,0
35040,note_on,54,0,3,,,,,,,,,2,,,56,36
35040,note_on,0,0,3,,,,,,,,,2,,,64,36
35040,note_on,0,0,3,,,,,,,,,2,,,59,36
35046,note_on,6,0,3,,,,,,,,,2,,,64,0
35046,note_on,0,0,3,,,,,,,,,2,,,59,0
35046,note_on,0,0,3,,,,,,,,,2,,,56,0
35100,note_on,60,0,1,,,,,,,,,0,,,76,0
35100,note_on,54,0,3,,,,,,,,,2,,,56,36
35100,note_on,0,0,3,,,,,,,,,2,,,59,36
35100,note_on,0,0,3,,,,,,,,,2,,,64,36
35100,note_on,0,0,1,,,,,,,,,0,,,73,49
35106,note_on,6,0,3,,,,,,,,,2,,,64,0
35106,note_on,0,0,3,,,,,,,,,2,,,56,0
35106,note_on,0,0,3,,,,,,,,,2,,,59,0
35160,note_on,0,0,1,,,,,,,,,0,,,74,62
35160,note_on,0,0,3,,,,,,,,,2,,,64,49
35160,note_on,0,0,3,,,,,,,,,2,,,59,49
35160,note_on,60,0,1,,,,,,,,,0,,,73,0
35160,note_on,54,0,3,,,,,,,,,2,,,56,49
35166,note_on,6,0,3,,,,,,,,,2,,,64,0
35166,note_on,0,0,3,,,,,,,,,2,,,59,0
35166,note_on,0,0,3,,,,,,,,,2,,,56,0
35220,note_on,0,0,3,,,,,,,,,2,,,64,49
35220,note_on,54,0,3,,,,,,,,,2,,,56,49
35220,note_on,0,0,3,,,,,,,,,2,,,59,49
35226,note_on,6,0,3,,,,,,,,,2,,,64,0
35226,note_on,0,0,3,,,,,,,,,2,,,59,0
35226,note_on,0,0,3,,,,,,,,,2,,,56,0
35280,note_on,0,0,1,,,,,,,,,0,,,83,62
35280,note_on,120,0,1,,,,,,,,,0,,,74,0
35280,note_on,54,0,3,,,,,,,,,2,,,56,49
35280,note_on,0,0,3,,,,,,,,,2,,,59,49
35280,note_on,0,0,3,,,,,,,,,2,,,64,49
35286,note_on,0,0,3,,,,,,,,,2,,,56,0
35286,note_on,6,0,3,,,,,,,,,2,,,64,0
35286,note_on,0,0,3,,,,,,,,,2,,,59,0
35340,note_on,0,0,1,,,,,,,,,0,,,83,101
35340,note_on,0,0,3,,,,,,,,,2,,,59,62
35340,note_on,54,0,3,,,,,,,,,2,,,56,62
35340,note_on,60,0,1,,,,,,,,,0,,,83,0
35346,note_on,0,0,3,,,,,,,,,2,,,56,0
35346,note_on,6,0,3,,,,,,,,,2,,,59,0
35400,note_on,0,0,3,,,,,,,,,2,,,64,62
35400,note_on,54,0,3,,,,,,,,,2,,,56,62
35406,note_on,0,0,3,,,,,,,,,2,,,56,0
35406,note_on,6,0,3,,,,,,,,,2,,,64,0
35460,note_on,0,0,1,,,,,,,,,0,,,74,75
35460,note_on,0,0,3,,,,,,,,,2,,,64,62
35460,note_on,54,0,3,,,,,,,,,2,,,56,62
35460,note_on,120,0,1,,,,,,,,,0,,,83,0
35466,note_on,0,0,3,,,,,,,,,2,,,56,0
35466,note_on,6,0,3,,,,,,,,,2,,,64,0
35520,control_change,0,0,1,,,,,,,,,0,64,0,,
35520,note_on,0,0,1,,,,,,,,,0,,,74,75
35520,note_on,54,0,3,,,,,,,,,2,,,56,62
35520,note_on,0,0,3,,,,,,,,,2,,,64,62
35520,note_on,60,0,1,,,,,,,,,0,,,74,0
35526,note_on,6,0,3,,,,,,,,,2,,,64,0
35526,note_on,0,0,3,,,,,,,,,2,,,56,0
35580,note_on,54,0,3,,,,,,,,,2,,,56,62
35580,note_on,0,0,3,,,,,,,,,2,,,59,62
35586,note_on,6,0,3,,,,,,,,,2,,,59,0
35586,note_on,0,0,3,,,,,,,,,2,,,56,0
35640,note_on,0,0,3,,,,,,,,,2,,,56,62
35640,note_on,120,0,1,,,,,,,,,0,,,74,0
35640,control_change,54,0,3,,,,,,,,,2,64,0,,
35640,note_on,0,0,3,,,,,,,,,2,,,64,62
35646,note_on,6,0,3,,,,,,,,,2,,,64,0
35646,note_on,0,0,3,,,,,,,,,2,,,56,0
35700,note_on,0,0,1,,,,,,,,,0,,,73,49
35700,control_change,54,0,3,,,,,,,,,2,64,127,,
35700,note_on,0,0,3,,,,,,,,,2,,,41,36
35700,control_change,60,0,1,,,,,,,,,0,64,127,,
35706,note_on,6,0,3,,,,,,,,,2,,,41,0
35760,note_on,0,0,1,,,,,,,,,0,,,75,49
35760,note_on,60,0,1,,,,,,,,,0,,,73,0
35760,note_on,54,0,3,,,,,,,,,2,,,59,36
35760,note_on,0,0,3,,,,,,,,,2,,,61,36
35766,note_on,6,0,3,,,,,,,,,2,,,61,0
35766,note_on,0,0,3,,,,,,,,,2,,,59,0
35820,note_on,54,0,3,,,,,,,,,2,,,59,36
35820,note_on,0,0,3,,,,,,,,,2,,,61,36
35820,note_on,0,0,1,,,,,,,,,0,,,72,49
35820,note_on,60,0,1,,,,,,,,,0,,,75,0
35826,note_on,6,0,1,,,,,,,,,0,,,72,0
35826,note_on,0,0,3,,,,,,,,,2,,,59,0
35826,note_on,6,0,3,,,,,,,,,2,,,61,0
35880,note_on,0,0,3,,,,,,,,,2,,,61,36
35880,note_on,54,0,1,,,,,,,,,0,,,73,49
35880,note_on,54,0,3,,,,,,,,,2,,,59,36
35886,note_on,6,0,3,,,,,,,,,2,,,61,0
35886,note_on,0,0,3,,,,,,,,,2,,,59,0
35940,note_on,0,0,3,,,,,,,,,2,,,68,36
35940,note_on,54,0,3,,,,,,,,,2,,,59,36
35946,note_on,0,0,3,,,,,,,,,2,,,59,0
35946,note_on,6,0,3,,,,,,,,,2,,,68,0
36000,note_on,0,0,3,,,,,,,,,2,,,59,36
36000,note_on,0,0,3,,,,,,,,,2,,,61,36
36000,control_change,0,0,1,,,,,,,,,0,64,0,,
36000,control_change,54,0,3,,,,,,,,,2,64,0,,
36000,note_on,120,0,1,,,,,,,,,0,,,73,0
36000,note_on,0,0,1,,,,,,,,,0,,,80,49
36006,note_on,0,0,3,,,,,,,,,2,,,59,0
36006,note_on,6,0,3,,,,,,,,,2,,,61,0
36060,note_on,0,0,3,,,,,,,,,2,,,42,36
36060,note_on,0,0,1,,,,,,,,,0,,,73,49
36060,control_change,0,0,1,,,,,,,,,0,64,127,,
36060,control_change,54,0,3,,,,,,,,,2,64,127,,
36060,note_on,60,0,1,,,,,,,,,0,,,80,0
36066,note_on,6,0,3,,,,,,,,,2,,,42,0
36120,note_on,0,0,1,,,,,,,,,0,,,75,49
36120,note_on,60,0,1,,,,,,,,,0,,,73,0
36120,note_on,0,0,3,,,,,,,,,2,,,61,36
36120,note_on,54,0,3,,,,,,,,,2,,,58,36
36126,note_on,0,0,3,,,,,,,,,2,,,58,0
36126,note_on,6,0,3,,,,,,,,,2,,,61,0
36180,note_on,0,0,1,,,,,,,,,0,,,72,49
36180,note_on,54,0,3,,,,,,,,,2,,,58,36
36180,note_on,0,0,3,,,,,,,,,2,,,61,36
36180,note_on,60,0,1,,,,,,,,,0,,,75,0
36186,note_on,0,0,3,,,,,,,,,2,,,58,0
36186,note_on,6,0,3,,,,,,,,,2,,,61,0
36186,note_on,6,0,1,,,,,,,,,0,,,72,0
36240,note_on,54,0,1,,,,,,,,,0,,,73,49
36240,note_on,54,0,3,,,,,,,,,2,,,58,36
36240,note_on,0,0,3,,,,,,,,,2,,,61,36
36246,note_on,6,0,3,,,,,,,,,2,,,61,0
36246,note_on,0,0,3,,,,,,,,,2,,,58,0
36300,note_on,0,0,3,,,,,,,,,2,,,66,36
36300,note_on,54,0,3,,,,,,,,,2,,,58,36
36306,note_on,0,0,3,,,,,,,,,2,,,58,0
36306,note_on,6,0,3,,,,,,,,,2,,,66,0
36360,note_on,120,0,1,,,,,,,,,0,,,73,0
36360,control_change,54,0,3,,,,,,,,,2,64,0,,
36360,note_on,0,0,3,,,,,,,,,2,,,61,36
36360,note_on,0,0,1,,,,,,,,,0,,,82,49
36360,control_change,0,0,1,,,,,,,,,0,64,0,,
36360,note_on,0,0,3,,,,,,,,,2,,,58,36
36366,note_on,6,0,3,,,,,,,,,2,,,61,0
36366,note_on,0,0,3,,,,,,,,,2,,,58,0
36420,note_on,0,0,3,,,,,,,,,2,,,49,36
36420,control_change,54,0,3,,,,,,,,,2,64,127,,
36420,control_change,0,0,1,,,,,,,,,0,64,127,,
36420,note_on,0,0,1,,,,,,,,,0,,,82,49
36420,note_on,60,0,1,,,,,,,,,0,,,82,0
36426,note_on,6,0,3,,,,,,,,,2,,,49,0
36480,note_on,0,0,3,,,,,,,,,2,,,65,36
36480,note_on,54,0,3,,,,,,,,,2,,,59,36
36486,note_on,6,0,3,,,,,,,,,2,,,65,0
36486,note_on,0,0,3,,,,,,,,,2,,,59,0
36540,note_on,120,0,1,,,,,,,,,0,,,82,0
36540,note_on,0,0,3,,,,,,,,,2,,,65,36
36540,note_on,54,0,3,,,,,,,,,2,,,61,36
36540,note_on,0,0,1,,,,,,,,,0,,,80,49
36546,note_on,0,0,3,,,,,,,,,2,,,61,0
36546,note_on,6,0,3,,,,,,,,,2,,,65,0
36600,note_on,60,0,1,,,,,,,,,0,,,80,0
36600,control_change,0,0,1,,,,,,,,,0,64,0,,
36600,note_on,0,0,1,,,,,,,,,0,,,78,49
36600,note_on,0,0,3,,,,,,,,,2,,,66,36
36600,control_change,54,0,3,,,,,,,,,2,64,0,,
36600,note_on,0,0,3,,,,,,,,,2,,,54,36
36600,note_on,0,0,3,,,,,,,,,2,,,58,36
36720,note_on,120,0,3,,,,,,,,,2,,,66,0
36720,note_on,0,0,3,,,,,,,,,2,,,58,0
36720,note_on,0,0,3,,,,,,,,,2,,,54,0
36720,note_on,0,0,3,,,,,,,,,2,,,42,88
36720,note_on,120,0,1,,,,,,,,,0,,,78,0
36720,note_on,0,0,1,,,,,,,,,0,,,54,101
36750,note_on,30,0,3,,,,,,,,,2,,,42,0
36750,note_on,30,0,1,,,,,,,,,0,,,54,0
36750,note_on,0,0,1,,,,,,,,,0,,,56,101
36750,note_on,0,0,3,,,,,,,,,2,,,44,88
36780,note_on,0,0,3,,,,,,,,,2,,,45,114
36780,note_on,30,0,3,,,,,,,,,2,,,44,0
36780,note_on,30,0,1,,,,,,,,,0,,,56,0
36780,note_on,0,0,1,,,,,,,,,0,,,57,127
36900,note_on,120,0,3,,,,,,,,,2,,,45,0
36900,note_on,0,0,3,,,,,,,,,2,,,44,88
36900,note_on,120,0,1,,,,,,,,,0,,,57,0
36900,note_on,0,0,1,,,,,,,,,0,,,56,101
36930,note_on,30,0,1,,,,,,,,,0,,,56,0
36930,note_on,0,0,3,,,,,,,,,2,,,45,88
36930,note_on,0,0,1,,,,,,,,,0,,,57,101
36930,note_on,30,0,3,,,,,,,,,2,,,44,0
36960,note_on,0,0,3,,,,,,,,,2,,,47,114
36960,control_change,0,0,3,,,,,,,,,2,64,127,,
36960,note_on,30,0,3,,,,,,,,,2,,,45,0
36960,note_on,0,0,1,,,,,,,,,0,,,59,127
36960,control_change,0,0,1,,,,,,,,,0,64,127,,
36960,note_on,30,0,1,,,,,,,,,0,,,57,0
37080,note_on,120,0,3,,,,,,,,,2,,,47,0
37080,note_on,0,0,1,,,,,,,,,0,,,57,101
37080,note_on,120,0,1,,,,,,,,,0,,,59,0
37080,note_on,0,0,3,,,,,,,,,2,,,45,88
37110,control_change,0,0,3,,,,,,,,,2,64,0,,
37110,note_on,0,0,3,,,,,,,,,2,,,47,88
37110,note_on,30,0,3,,,,,,,,,2,,,45,0
37110,note_on,30,0,1,,,,,,,,,0,,,57,0
37110,control_change,0,0,1,,,,,,,,,0,64,0,,
37110,note_on,0,0,1,,,,,,,,,0,,,59,101
37140,control_change,0,0,3,,,,,,,,,2,64,127,,
37140,note_on,0,0,3,,,,,,,,,2,,,49,114
37140,note_on,30,0,1,,,,,,,,,0,,,59,0
37140,control_change,0,0,1,,,,,,,,,0,64,127,,
37140,note_on,30,0,3,,,,,,,,,2,,,47,0
37140,note_on,0,0,1,,,,,,,,,0,,,61,127
37260,note_on,0,0,3,,,,,,,,,2,,,47,88
37260,note_on,120,0,1,,,,,,,,,0,,,61,0
37260,note_on,0,0,1,,,,,,,,,0,,,59,101
37260,note_on,120,0,3,,,,,,,,,2,,,49,0
37290,note_on,30,0,3,,,,,,,,,2,,,47,0
37290,note_on,0,0,3,,,,,,,,,2,,,49,88
37290,note_on,0,0,1,,,,,,,,,0,,,61,101
37290,note_on,30,0,1,,,,,,,,,0,,,59,0
37320,note_on,0,0,1,,,,,,,,,0,,,62,101
37320,note_on,30,0,1,,,,,,,,,0,,,61,0
37320,note_on,0,0,3,,,,,,,,,2,,,50,88
37320,control_change,0,0,1,,,,,,,,,0,64,0,,
37320,control_change,0,0,3,,,,,,,,,2,64,0,,
37320,note_on,30,0,3,,,,,,,,,2,,,49,0
37380,note_on,60,0,3,,,,,,,,,2,,,50,0
37380,note_on,0,0,3,,,,,,,,,2,,,49,88
37380,note_on,0,0,1,,,,,,,,,0,,,61,101
37380,note_on,60,0,1,,,,,,,,,0,,,62,0
37386,note_on,6,0,3,,,,,,,,,2,,,49,0
37386,note_on,6,0,1,,,,,,,,,0,,,61,0
37440,note_on,54,0,1,,,,,,,,,0,,,60,101
37440,note_on,54,0,3,,,,,,,,,2,,,48,88
37446,note_on,6,0,3,,,,,,,,,2,,,48,0
37446,note_on,6,0,1,,,,,,,,,0,,,60,0
37500,control_change,54,0,3,,,,,,,,,2,64,127,,
37500,note_on,0,0,3,,,,,,,,,2,,,49,114
37500,note_on,0,0,1,,,,,,,,,0,,,61,127
37500,control_change,54,0,1,,,,,,,,,0,64,127,,
37620,note_on,0,0,1,,,,,,,,,0,,,59,101
37620,note_on,0,0,3,,,,,,,,,2,,,47,88
37620,note_on,120,0,1,,,,,,,,,0,,,61,0
37620,note_on,120,0,3,,,,,,,,,2,,,49,0
37650,note_on,30,0,1,,,,,,,,,0,,,59,0
37650,note_on,0,0,3,,,,,,,,,2,,,49,88
37650,note_on,0,0,1,,,,,,,,,0,,,61,101
37650,note_on,30,0,3,,,,,,,,,2,,,47,0
37680,note_on,30,0,1,,,,,,,,,0,,,61,0
37680,note_on,0,0,1,,,,,,,,,0,,,62,101
37680,note_on,30,0,3,,,,,,,,,2,,,49,0
37680,control_change,0,0,3,,,,,,,,,2,64,0,,
37680,control_change,0,0,1,,,,,,,,,0,64,0,,
37680,note_on,0,0,3,,,,,,,,,2,,,50,88
37740,note_on,60,0,1,,,,,,,,,0,,,62,0
37740,note_on,0,0,1,,,,,,,,,0,,,61,101
37740,note_on,0,0,3,,,,,,,,,2,,,49,88
37740,note_on,60,0,3,,,,,,,,,2,,,50,0
37746,note_on,6,0,3,,,,,,,,,2,,,49,0
37746,note_on,6,0,1,,,,,,,,,0,,,61,0
37800,note_on,54,0,3,,,,,,,,,2,,,48,88
37800,note_on,54,0,1,,,,,,,,,0,,,60,101
37806,note_on,6,0,1,,,,,,,,,0,,,60,0
37806,note_on,6,0,3,,,,,,,,,2,,,48,0
37860,note_on,54,0,3,,,,,,,,,2,,,49,114
37860,note_on,54,0,1,,,,,,,,,0,,,61,127
37980,note_on,120,0,1,,,,,,,,,0,,,61,0
37980,note_on,120,0,3,,,,,,,,,2,,,49,0
38040,note_on,0,0,3,,,,,,,,,2,,,66,36
38040,control_change,60,0,3,,,,,,,,,2,64,127,,
38040,control_change,60,0,1,,,,,,,,,0,64,127,,
38040,note_on,0,0,1,,,,,,,,,0,,,75,49
38040,note_on,0,0,1,,,,,,,,,0,,,82,49
38040,note_on,0,0,3,,,,,,,,,2,,,60,36
38046,note_on,6,0,1,,,,,,,,,0,,,82,0
38046,note_on,0,0,3,,,,,,,,,2,,,60,0
38046,note_on,6,0,3,,,,,,,,,2,,,66,0
38046,note_on,0,0,1,,,,,,,,,0,,,75,0
38100,note_on,54,0,1,,,,,,,,,0,,,75,49
38100,note_on,0,0,1,,,,,,,,,0,,,80,49
38100,note_on,0,0,3,,,,,,,,,2,,,68,36
38100,note_on,54,0,3,,,,,,,,,2,,,60,36
38106,note_on,6,0,1,,,,,,,,,0,,,80,0
38106,note_on,0,0,1,,,,,,,,,0,,,75,0
38106,note_on,0,0,3,,,,,,,,,2,,,60,0
38106,note_on,6,0,3,,,,,,,,,2,,,68,0
38160,note_on,0,0,3,,,,,,,,,2,,,60,36
38160,note_on,0,0,3,,,,,,,,,2,,,70,36
38160,control_change,54,0,1,,,,,,,,,0,64,0,,
38160,control_change,54,0,3,,,,,,,,,2,64,0,,
38160,note_on,0,0,1,,,,,,,,,0,,,78,49
38160,note_on,0,0,1,,,,,,,,,0,,,75,49
38166,note_on,6,0,1,,,,,,,,,0,,,78,0
38166,note_on,6,0,3,,,,,,,,,2,,,70,0
38166,note_on,0,0,1,,,,,,,,,0,,,75,0
38166,note_on,0,0,3,,,,,,,,,2,,,60,0
38220,note_on,54,0,1,,,,,,,,,0,,,73,49
38220,note_on,54,0,3,,,,,,,,,2,,,61,36
38220,note_on,0,0,3,,,,,,,,,2,,,70,36
38400,note_on,0,0,1,,,,,,,,,0,,,77,49
38400,note_on,180,0,1,,,,,,,,,0,,,73,0
38400,note_on,0,0,3,,,,,,,,,2,,,71,36
38400,note_on,180,0,3,,,,,,,,,2,,,70,0
38400,note_on,0,0,3,,,,,,,,,2,,,68,36
38580,note_on,0,0,1,,,,,,,,,0,,,78,49
38580,note_on,0,0,1,,,,,,,,,0,,,70,49
38580,control_change,0,0,1,,,,,,,,,0,64,127,,
38580,note_on,180,0,3,,,,,,,,,2,,,71,0
38580,note_on,0,0,3,,,,,,,,,2,,,68,0
38580,note_on,0,0,3,,,,,,,,,2,,,61,0
38580,control_change,0,0,3,,,,,,,,,2,64,127,,
38580,note_on,0,0,3,,,,,,,,,2,,,54,36
38580,note_on,0,0,3,,,,,,,,,2,,,66,36
38580,note_on,180,0,1,,,,,,,,,0,,,77,0
38700,note_on,0,0,1,,,,,,,,,0,,,70,0
38700,note_on,0,0,1,,,,,,,,,0,,,59,101
38700,note_on,0,0,3,,,,,,,,,2,,,54,0
38700,note_on,120,0,3,,,,,,,,,2,,,66,0
38700,note_on,120,0,1,,,,,,,,,0,,,78,0
38700,note_on,0,0,3,,,,,,,,,2,,,47,88
38730,note_on,0,0,3,,,,,,,,,2,,,49,88
38730,note_on,0,0,1,,,,,,,,,0,,,61,101
38730,note_on,30,0,1,,,,,,,,,0,,,59,0
38730,note_on,30,0,3,,,,,,,,,2,,,47,0
38760,note_on,30,0,3,,,,,,,,,2,,,49,0
38760,control_change,0,0,3,,,,,,,,,2,64,0,,
38760,note_on,0,0,3,,,,,,,,,2,,,50,88
38760,note_on,0,0,1,,,,,,,,,0,,,62,101
38760,control_change,0,0,1,,,,,,,,,0,64,0,,
38760,note_on,30,0,1,,,,,,,,,0,,,61,0
38820,note_on,60,0,3,,,,,,,,,2,,,50,0
38820,note_on,0,0,3,,,,,,,,,2,,,49,88
38820,note_on,0,0,1,,,,,,,,,0,,,61,101
38820,note_on,60,0,1,,,,,,,,,0,,,62,0
38826,note_on,6,0,3,,,,,,,,,2,,,49,0
38826,note_on,6,0,1,,,,,,,,,0,,,61,0
38880,note_on,54,0,1,,,,,,,,,0,,,60,101
38880,note_on,54,0,3,,,,,,,,,2,,,48,88
38886,note_on,6,0,3,,,,,,,,,2,,,48,0
38886,note_on,6,0,1,,,,,,,,,0,,,60,0
38940,note_on,0,0,3,,,,,,,,,2,,,49,114
38940,note_on,0,0,1,,,,,,,,,0,,,61,127
38940,control_change,54,0,1,,,,,,,,,0,64,127,,
38940,control_change,54,0,3,,,,,,,,,2,64,127,,
39060,note_on,120,0,3,,,,,,,,,2,,,49,0
39060,note_on,120,0,1,,,,,,,,,0,,,61,0
39060,note_on,0,0,3,,,,,,,,,2,,,47,88
39060,note_on,0,0,1,,,,,,,,,0,,,59,101
39090,note_on,0,0,3,,,,,,,,,2,,,49,88
39090,note_on,30,0,1,,,,,,,,,0,,,59,0
39090,note_on,30,0,3,,,,,,,,,2,,,47,0
39090,note_on,0,0,1,,,,,,,,,0,,,61,101
39120,note_on,30,0,3,,,,,,,,,2,,,49,0
39120,control_change,0,0,3,,,,,,,,,2,64,0,,
39120,note_on,0,0,3,,,,,,,,,2,,,50,88
39120,note_on,0,0,1,,,,,,,,,0,,,62,101
39120,control_change,0,0,1,,,,,,,,,0,64,0,,
39120,note_on,30,0,1,,,,,,,,,0,,,61,0
39180,note_on,60,0,1,,,,,,,,,0,,,62,0
39180,note_on,0,0,3,,,,,,,,,2,,,49,88
39180,note_on,60,0,3,,,,,,,,,2,,,50,0
39180,note_on,0,0,1,,,,,,,,,0,,,61,101
39186,note_on,6,0,1,,,,,,,,,0,,,61,0
39186,note_on,6,0,3,,,,,,,,,2,,,49,0
39240,note_on,54,0,3,,,,,,,,,2,,,48,88
39240,note_on,54,0,1,,,,,,,,,0,,,60,101
39246,note_on,6,0,1,,,,,,,,,0,,,60,0
39246,note_on,6,0,3,,,,,,,,,2,,,48,0
39300,note_on,54,0,3,,,,,,,,,2,,,49,114
39300,note_on,54,0,1,,,,,,,,,0,,,61,127
39420,note_on,120,0,1,,,,,,,,,0,,,61,0
39420,note_on,120,0,3,,,,,,,,,2,,,49,0
39480,note_on,0,0,1,,,,,,,,,0,,,85,36
39480,note_on,0,0,1,,,,,,,,,0,,,78,36
39480,control_change,60,0,1,,,,,,,,,0,64,127,,
39480,control_change,60,0,3,,,,,,,,,2,64,127,,
39480,note_on,0,0,3,,,,,,,,,2,,,63,36
39480,note_on,0,0,3,,,,,,,,,2,,,69,36
39486,note_on,0,0,1,,,,,,,,,0,,,78,0
39486,note_on,6,0,1,,,,,,,,,0,,,85,0
39486,note_on,6,0,3,,,,,,,,,2,,,69,0
39486,note_on,0,0,3,,,,,,,,,2,,,63,0
39540,note_on,54,0,1,,,,,,,,,0,,,78,36
39540,note_on,0,0,1,,,,,,,,,0,,,83,36
39540,note_on,0,0,3,,,,,,,,,2,,,71,36
39540,note_on,54,0,3,,,,,,,,,2,,,63,36
39546,note_on,0,0,3,,,,,,,,,2,,,63,0
39546,note_on,0,0,1,,,,,,,,,0,,,78,0
39546,note_on,6,0,1,,,,,,,,,0,,,83,0
39546,note_on,6,0,3,,,,,,,,,2,,,71,0
39600,note_on,0,0,1,,,,,,,,,0,,,81,36
39600,note_on,0,0,1,,,,,,,,,0,,,78,36
39600,control_change,54,0,3,,,,,,,,,2,64,0,,
39600,control_change,54,0,1,,,,,,,,,0,64,0,,
39600,note_on,0,0,3,,,,,,,,,2,,,63,36
39600,note_on,0,0,3,,,,,,,,,2,,,73,36
39606,note_on,0,0,1,,,,,,,,,0,,,78,0
39606,note_on,6,0,1,,,,,,,,,0,,,81,0
39606,note_on,0,0,3,,,,,,,,,2,,,63,0
39606,note_on,6,0,3,,,,,,,,,2,,,73,0
39660,note_on,0,0,3,,,,,,,,,2,,,73,36
39660,note_on,54,0,3,,,,,,,,,2,,,64,36
39660,note_on,54,0,1,,,,,,,,,0,,,76,36
39840,note_on,180,0,1,,,,,,,,,0,,,76,0
39840,note_on,0,0,1,,,,,,,,,0,,,74,36
39840,note_on,0,0,1,,,,,,,,,0,,,80,36
39840,note_on,0,0,3,,,,,,,,,2,,,65,36
39840,note_on,0,0,3,,,,,,,,,2,,,64,0
39840,note_on,180,0,3,,,,,,,,,2,,,73,0
39840,note_on,0,0,3,,,,,,,,,2,,,71,36
40020,note_on,180,0,1,,,,,,,,,0,,,80,0
40020,note_on,0,0,1,,,,,,,,,0,,,74,0
40020,note_on,0,0,3,,,,,,,,,2,,,69,36
40020,note_on,0,0,1,,,,,,,,,0,,,73,36
40020,note_on,0,0,3,,,,,,,,,2,,,66,36
40020,note_on,0,0,3,,,,,,,,,2,,,65,0
40020,note_on,180,0,3,,,,,,,,,2,,,71,0
40020,note_on,0,0,1,,,,,,,,,0,,,81,36
40140,note_on,0,0,1,,,,,,,,,0,,,73,0
40140,note_on,120,0,1,,,,,,,,,0,,,81,0
40140,note_on,0,0,3,,,,,,,,,2,,,66,0
40140,note_on,120,0,3,,,,,,,,,2,,,69,0
40200,control_change,60,0,1,,,,,,,,,0,64,127,,
40200,note_on,0,0,1,,,,,,,,,0,,,75,49
40200,note_on,0,0,1,,,,,,,,,0,,,82,49
40200,control_change,60,0,3,,,,,,,,,2,64,127,,
40200,note_on,0,0,3,,,,,,,,,2,,,66,36
40200,note_on,0,0,3,,,,,,,,,2,,,60,36
40206,note_on,6,0,3,,,,,,,,,2,,,66,0
40206,note_on,0,0,3,,,,,,,,,2,,,60,0
40206,note_on,6,0,1,,,,,,,,,0,,,82,0
40206,note_on,0,0,1,,,,,,,,,0,,,75,0
40260,note_on,54,0,3,,,,,,,,,2,,,60,36
40260,note_on,0,0,3,,,,,,,,,2,,,68,36
40260,note_on,54,0,1,,,,,,,,,0,,,75,49
40260,note_on,0,0,1,,,,,,,,,0,,,80,49
40266,note_on,6,0,3,,,,,,,,,2,,,68,0
40266,note_on,0,0,3,,,,,,,,,2,,,60,0
40266,note_on,0,0,1,,,,,,,,,0,,,75,0
40266,note_on,6,0,1,,,,,,,,,0,,,80,0
40320,control_change,54,0,1,,,,,,,,,0,64,0,,
40320,note_on,0,0,3,,,,,,,,,2,,,60,36
40320,control_change,54,0,3,,,,,,,,,2,64,0,,
40320,note_on,0,0,3,,,,,,,,,2,,,70,36
40320,note_on,0,0,1,,,,,,,,,0,,,78,49
40320,note_on,0,0,1,,,,,,,,,0,,,75,49
40326,note_on,6,0,3,,,,,,,,,2,,,70,0
40326,note_on,0,0,1,,,,,,,,,0,,,75,0
40326,note_on,6,0,1,,,,,,,,,0,,,78,0
40326,note_on,0,0,3,,,,,,,,,2,,,60,0
40380,note_on,54,0,1,,,,,,,,,0,,,73,49
40380,note_on,54,0,3,,,,,,,,,2,,,61,36
40380,note_on,0,0,3,,,,,,,,,2,,,70,36
40560,note_on,0,0,1,,,,,,,,,0,,,77,49
40560,note_on,0,0,1,,,,,,,,,0,,,71,49
40560,note_on,180,0,3,,,,,,,,,2,,,70,0
40560,note_on,0,0,3,,,,,,,,,2,,,68,36
40560,note_on,180,0,1,,,,,,,,,0,,,73,0
40740,note_on,0,0,3,,,,,,,,,2,,,61,0
40740,control_change,0,0,3,,,,,,,,,2,64,127,,
40740,note_on,0,0,3,,,,,,,,,2,,,54,36
40740,note_on,0,0,3,,,,,,,,,2,,,66,36
40740,control_change,0,0,1,,,,,,,,,0,64,127,,
40740,note_on,0,0,1,,,,,,,,,0,,,78,49
40740,note_on,0,0,1,,,,,,,,,0,,,70,49
40740,note_on,0,0,1,,,,,,,,,0,,,71,0
40740,note_on,180,0,1,,,,,,,,,0,,,77,0
40740,note_on,180,0,3,,,,,,,,,2,,,68,0
40860,note_on,120,0,1,,,,,,,,,0,,,78,0
40860,note_on,0,0,1,,,,,,,,,0,,,70,0
40860,note_on,0,0,3,,,,,,,,,2,,,54,36
40860,note_on,0,0,3,,,,,,,,,2,,,54,0
40860,note_on,0,0,1,,,,,,,,,0,,,66,49
40860,note_on,120,0,3,,,,,,,,,2,,,66,0
40890,note_on,30,0,3,,,,,,,,,2,,,54,0
40890,note_on,0,0,1,,,,,,,,,0,,,68,49
40890,control_change,0,0,1,,,,,,,,,0,64,0,,
40890,note_on,30,0,1,,,,,,,,,0,,,66,0
40890,control_change,0,0,3,,,,,,,,,2,64,0,,
40890,note_on,0,0,3,,,,,,,,,2,,,56,36
40920,note_on,0,0,3,,,,,,,,,2,,,58,36
40920,note_on,30,0,3,,,,,,,,,2,,,56,0
40920,note_on,0,0,1,,,,,,,,,0,,,70,49
40920,note_on,30,0,1,,,,,,,,,0,,,68,0
40926,note_on,6,0,3,,,,,,,,,2,,,58,0
40926,note_on,6,0,1,,,,,,,,,0,,,70,0
40980,note_on,54,0,3,,,,,,,,,2,,,56,36
40980,note_on,54,0,1,,,,,,,,,0,,,68,49
40986,note_on,6,0,1,,,,,,,,,0,,,68,0
40986,note_on,6,0,3,,,,,,,,,2,,,56,0
41040,note_on,54,0,1,,,,,,,,,0,,,66,49
41040,note_on,54,0,3,,,,,,,,,2,,,54,36
41046,note_on,6,0,3,,,,,,,,,2,,,54,0
41046,note_on,6,0,1,,,,,,,,,0,,,66,0
41100,note_on,54,0,1,,,,,,,,,0,,,65,49
41100,note_on,0,0,1,,,,,,,,,0,,,68,49
41100,note_on,0,0,1,,,,,,,,,0,,,74,49
41100,note_on,54,0,3,,,,,,,,,2,,,59,36
41280,note_on,180,0,1,,,,,,,,,0,,,74,0
41280,note_on,180,0,3,,,,,,,,,2,,,59,0
41280,note_on,0,0,3,,,,,,,,,2,,,61,36
41280,note_on,0,0,1,,,,,,,,,0,,,73,49
41460,note_on,0,0,3,,,,,,,,,2,,,61,36
41460,note_on,0,0,3,,,,,,,,,2,,,54,36
41460,note_on,180,0,1,,,,,,,,,0,,,73,0
41460,note_on,0,0,1,,,,,,,,,0,,,68,0
41460,note_on,180,0,3,,,,,,,,,2,,,61,0
41460,note_on,0,0,1,,,,,,,,,0,,,65,0
41460,note_on,0,0,1,,,,,,,,,0,,,66,49
41460,note_on,0,0,1,,,,,,,,,0,,,70,49
41580,note_on,120,0,3,,,,,,,,,2,,,61,0
41580,note_on,0,0,3,,,,,,,,,2,,,54,0
41580,note_on,120,0,1,,,,,,,,,0,,,70,0
41580,note_on,0,0,1,,,,,,,,,0,,,66,0
41580,note_on,0,0,1,,,,,,,,,0,,,54,49
41580,note_on,0,0,3,,,,,,,,,2,,,42,36
41610,note_on,0,0,1,,,,,,,,,0,,,56,49
41610,note_on,30,0,3,,,,,,,,,2,,,42,0
41610,note_on,30,0,1,,,,,,,,,0,,,54,0
41610,note_on,0,0,3,,,,,,,,,2,,,44,36
41640,note_on,30,0,3,,,,,,,,,2,,,44,0
41640,note_on,0,0,1,,,,,,,,,0,,,58,49
41640,note_on,30,0,1,,,,,,,,,0,,,56,0
41640,note_on,0,0,3,,,,,,,,,2,,,46,36
41700,note_on,60,0,3,,,,,,,,,2,,,46,0
41700,note_on,0,0,3,,,,,,,,,2,,,44,36
41700,note_on,0,0,1,,,,,,,,,0,,,56,49
41700,note_on,60,0,1,,,,,,,,,0,,,58,0
41706,note_on,6,0,3,,,,,,,,,2,,,44,0
41706,note_on,6,0,1,,,,,,,,,0,,,56,0
41760,note_on,54,0,3,,,,,,,,,2,,,42,36
41760,note_on,54,0,1,,,,,,,,,0,,,54,49
41766,note_on,6,0,3,,,,,,,,,2,,,42,0
41766,note_on,6,0,1,,,,,,,,,0,,,54,0
41820,note_on,54,0,1,,,,,,,,,0,,,53,49
41820,note_on,0,0,1,,,,,,,,,0,,,62,49
41820,note_on,54,0,3,,,,,,,,,2,,,47,36
41820,note_on,0,0,1,,,,,,,,,0,,,56,49
42000,note_on,180,0,3,,,,,,,,,2,,,47,0
42000,note_on,180,0,1,,,,,,,,,0,,,62,0
42000,note_on,0,0,1,,,,,,,,,0,,,61,49
42000,note_on,0,0,3,,,,,,,,,2,,,49,36
42180,note_on,0,0,3,,,,,,,,,2,,,42,36
42180,note_on,0,0,3,,,,,,,,,2,,,46,36
42180,control_change,0,0,1,,,,,,,,,0,64,127,,
42180,note_on,0,0,1,,,,,,,,,0,,,54,49
42180,note_on,0,0,1,,,,,,,,,0,,,53,0
42180,note_on,0,0,1,,,,,,,,,0,,,56,0
42180,note_on,180,0,1,,,,,,,,,0,,,61,0
42180,control_change,0,0,3,,,,,,,,,2,64,127,,
42180,note_on,180,0,3,,,,,,,,,2,,,49,0
42300,note_on,0,0,1,,,,,,,,,0,,,54,49
42300,note_on,0,0,3,,,,,,,,,2,,,42,0
42300,note_on,120,0,1,,,,,,,,,0,,,54,0
42300,note_on,120,0,3,,,,,,,,,2,,,46,0
42330,note_on,30,0,1,,,,,,,,,0,,,54,0
42330,note_on,0,0,1,,,,,,,,,0,,,56,49
42360,note_on,30,0,1,,,,,,,,,0,,,56,0
42360,note_on,0,0,1,,,,,,,,,0,,,58,49
42420,note_on,60,0,1,,,,,,,,,0,,,58,0
42420,note_on,0,0,1,,,,,,,,,0,,,56,49
42426,note_on,6,0,1,,,,,,,,,0,,,56,0
42480,note_on,54,0,1,,,,,,,,,0,,,54,49
42486,note_on,6,0,1,,,,,,,,,0,,,54,0
42540,note_on,54,0,1,,,,,,,,,0,,,61,49
42546,note_on,6,0,1,,,,,,,,,0,,,61,0
42600,note_on,54,0,1,,,,,,,,,0,,,59,49
42606,note_on,6,0,1,,,,,,,,,0,,,59,0
42660,note_on,54,0,1,,,,,,,,,0,,,58,49
42666,note_on,6,0,1,,,,,,,,,0,,,58,0
42720,note_on,54,0,1,,,,,,,,,0,,,64,49
42726,note_on,6,0,1,,,,,,,,,0,,,64,0
42780,note_on,54,0,1,,,,,,,,,0,,,63,49
42786,note_on,6,0,1,,,,,,,,,0,,,63,0
42840,note_on,0,0,1,,,,,,,,,0,,,61,49
42840,control_change,54,0,1,,,,,,,,,0,64,0,,
42846,note_on,6,0,1,,,,,,,,,0,,,61,0
42900,control_change,54,0,1,,,,,,,,,0,64,127,,
42900,note_on,0,0,3,,,,,,,,,2,,,37,36
42900,note_on,0,0,1,,,,,,,,,0,,,58,49
42900,note_on,0,0,1,,,,,,,,,0,,,68,49
42900,control_change,600,0,3,,,,,,,,,2,64,127,,
42906,note_on,6,0,3,,,,,,,,,2,,,37,0
42960,note_on,54,0,3,,,,,,,,,2,,,39,36
42966,note_on,6,0,3,,,,,,,,,2,,,39,0
43020,note_on,54,0,3,,,,,,,,,2,,,40,36
43026,note_on,6,0,3,,,,,,,,,2,,,40,0
43080,note_on,0,0,1,,,,,,,,,0,,,67,49
43080,note_on,180,0,1,,,,,,,,,0,,,68,0
43080,note_on,54,0,3,,,,,,,,,2,,,49,36
43086,note_on,6,0,3,,,,,,,,,2,,,49,0
43140,note_on,54,0,3,,,,,,,,,2,,,51,36
43146,note_on,6,0,3,,,,,,,,,2,,,51,0
43200,note_on,54,0,3,,,,,,,,,2,,,52,36
43206,note_on,6,0,3,,,,,,,,,2,,,52,0
43260,note_on,180,0,1,,,,,,,,,0,,,67,0
43260,control_change,0,0,1,,,,,,,,,0,64,0,,
43260,note_on,0,0,1,,,,,,,,,0,,,66,49
43260,control_change,54,0,3,,,,,,,,,2,64,0,,
43260,note_on,0,0,3,,,,,,,,,2,,,52,36
43380,control_change,0,0,1,,,,,,,,,0,64,127,,
43380,note_on,120,0,3,,,,,,,,,2,,,52,0
43380,note_on,0,0,1,,,,,,,,,0,,,66,49
43380,note_on,0,0,1,,,,,,,,,0,,,58,0
43380,note_on,120,0,1,,,,,,,,,0,,,66,0
43410,note_on,30,0,1,,,,,,,,,0,,,66,0
43410,note_on,0,0,1,,,,,,,,,0,,,68,49
43440,note_on,30,0,1,,,,,,,,,0,,,68,0
43440,note_on,0,0,1,,,,,,,,,0,,,70,49
43500,note_on,60,0,1,,,,,,,,,0,,,70,0
43500,note_on,0,0,1,,,,,,,,,0,,,68,49
43500,set_tempo,21120,1,0,,,,,,444444,,,,,,,
43506,note_on,6,0,1,,,,,,,,,0,,,68,0
43560,note_on,54,0,1,,,,,,,,,0,,,66,49
43560,set_tempo,60,1,0,,,,,,454545,,,,,,,
43566,note_on,6,0,1,,,,,,,,,0,,,66,0
43620,note_on,54,0,1,,,,,,,,,0,,,73,49
43620,set_tempo,60,1,0,,,,,,465116,,,,,,,
43626,note_on,6,0,1,,,,,,,,,0,,,73,0
43680,note_on,54,0,1,,,,,,,,,0,,,71,49
43680,set_tempo,60,1,0,,,,,,480000,,,,,,,
43686,note_on,6,0,1,,,,,,,,,0,,,71,0
43740,set_tempo,60,1,0,,,,,,491803,,,,,,,
43740,note_on,54,0,1,,,,,,,,,0,,,70,49
43746,note_on,6,0,1,,,,,,,,,0,,,70,0
43800,set_tempo,60,1,0,,,,,,504202,,,,,,,
43800,note_on,54,0,1,,,,,,,,,0,,,76,49
43806,note_on,6,0,1,,,,,,,,,0,,,76,0
43860,set_tempo,60,1,0,,,,,,517241,,,,,,,
43860,note_on,54,0,1,,,,,,,,,0,,,75,49
43866,note_on,6,0,1,,,,,,,,,0,,,75,0
43920,note_on,54,0,1,,,,,,,,,0,,,73,49
43920,set_tempo,60,1,0,,,,,,535714,,,,,,,
43926,note_on,6,0,1,,,,,,,,,0,,,73,0
43980,note_on,54,0,1,,,,,,,,,0,,,70,49
43980,note_on,0,0,1,,,,,,,,,0,,,80,49
43980,note_on,0,0,3,,,,,,,,,2,,,49,36
43980,control_change,600,0,3,,,,,,,,,2,64,127,,
43986,note_on,6,0,3,,,,,,,,,2,,,49,0
44040,note_on,54,0,3,,,,,,,,,2,,,51,36
44046,note_on,6,0,3,,,,,,,,,2,,,51,0
44100,note_on,54,0,3,,,,,,,,,2,,,52,36
44106,note_on,6,0,3,,,,,,,,,2,,,52,0
44160,note_on,0,0,1,,,,,,,,,0,,,79,49
44160,note_on,180,0,1,,,,,,,,,0,,,80,0
44160,note_on,54,0,3,,,,,,,,,2,,,61,36
44166,note_on,6,0,3,,,,,,,,,2,,,61,0
44220,note_on,54,0,3,,,,,,,,,2,,,63,36
44226,note_on,6,0,3,,,,,,,,,2,,,63,0
44280,note_on,54,0,3,,,,,,,,,2,,,64,36
44286,note_on,6,0,3,,,,,,,,,2,,,64,0
44340,note_on,0,0,3,,,,,,,,,2,,,64,36
44340,control_change,54,0,3,,,,,,,,,2,64,0,,
44340,note_on,180,0,1,,,,,,,,,0,,,79,0
44340,note_on,0,0,1,,,,,,,,,0,,,78,49
44340,control_change,0,0,1,,,,,,,,,0,64,0,,
44460,note_on,0,0,1,,,,,,,,,0,,,70,0
44460,note_on,120,0,1,,,,,,,,,0,,,78,0
44460,note_on,120,0,3,,,,,,,,,2,,,64,0
44520,time_signature,600,1,0,2,8,12,8,,,,,,,,,
44640,time_signature,120,1,0,1,8,12,8,,,,,,,,,
44700,note_on,240,0,1,,,,,,,,,0,,,74,36
44700,note_on,0,0,1,,,,,,,,,0,,,78,36
44700,control_change,240,0,3,,,,,,,,,2,64,127,,
44700,note_on,0,0,3,,,,,,,,,2,,,47,36
44700,time_signature,60,1,0,3,8,12,8,,,,,,,,,
44706,note_on,6,0,3,,,,,,,,,2,,,47,0
44760,note_on,54,0,3,,,,,,,,,2,,,49,36
44766,note_on,6,0,3,,,,,,,,,2,,,49,0
44820,note_on,54,0,3,,,,,,,,,2,,,50,36
44826,note_on,6,0,3,,,,,,,,,2,,,50,0
44880,control_change,54,0,3,,,,,,,,,2,64,0,,
44880,note_on,0,0,3,,,,,,,,,2,,,59,36
44880,note_on,0,0,1,,,,,,,,,0,,,77,36
44880,note_on,180,0,1,,,,,,,,,0,,,78,0
44880,note_on,0,0,1,,,,,,,,,0,,,74,0
44880,note_on,0,0,1,,,,,,,,,0,,,68,36
44886,note_on,6,0,3,,,,,,,,,2,,,59,0
44940,note_on,54,0,3,,,,,,,,,2,,,61,36
44946,note_on,6,0,3,,,,,,,,,2,,,61,0
45000,note_on,54,0,3,,,,,,,,,2,,,62,36
45006,note_on,6,0,3,,,,,,,,,2,,,62,0
45060,note_on,0,0,1,,,,,,,,,0,,,76,36
45060,note_on,180,0,1,,,,,,,,,0,,,77,0
45060,note_on,54,0,3,,,,,,,,,2,,,62,36
45180,note_on,120,0,3,,,,,,,,,2,,,62,0
45180,note_on,0,0,1,,,,,,,,,0,,,68,0
45180,note_on,120,0,1,,,,,,,,,0,,,76,0
45420,note_on,240,0,1,,,,,,,,,0,,,72,36
45420,note_on,0,0,3,,,,,,,,,2,,,45,36
45420,control_change,240,0,3,,,,,,,,,2,64,127,,
45420,note_on,0,0,1,,,,,,,,,0,,,76,36
45426,note_on,6,0,3,,,,,,,,,2,,,45,0
45480,note_on,54,0,3,,,,,,,,,2,,,47,36
45486,note_on,6,0,3,,,,,,,,,2,,,47,0
45540,note_on,54,0,3,,,,,,,,,2,,,48,36
45546,note_on,6,0,3,,,,,,,,,2,,,48,0
45600,control_change,54,0,3,,,,,,,,,2,64,0,,
45600,note_on,180,0,1,,,,,,,,,0,,,76,0
45600,note_on,0,0,1,,,,,,,,,0,,,72,0
45600,note_on,0,0,1,,,,,,,,,0,,,66,36
45600,note_on,0,0,1,,,,,,,,,0,,,75,36
45600,note_on,0,0,3,,,,,,,,,2,,,57,36
45606,note_on,6,0,3,,,,,,,,,2,,,57,0
45660,note_on,54,0,3,,,,,,,,,2,,,59,36
45666,note_on,6,0,3,,,,,,,,,2,,,59,0
45720,note_on,54,0,3,,,,,,,,,2,,,60,36
45726,note_on,6,0,3,,,,,,,,,2,,,60,0
45780,note_on,180,0,1,,,,,,,,,0,,,75,0
45780,note_on,54,0,3,,,,,,,,,2,,,60,36
45780,note_on,0,0,1,,,,,,,,,0,,,74,36
45900,note_on,120,0,3,,,,,,,,,2,,,60,0
45900,note_on,120,0,1,,,,,,,,,0,,,74,0
45900,note_on,0,0,1,,,,,,,,,0,,,66,0
46140,set_tempo,0,1,0,,,,,,434783,,,,,,,
46140,key_signature,1440,1,0,,,,,G,,,,,,,,
46140,control_change,240,0,3,,,,,,,,,2,64,127,,
46140,note_on,0,0,3,,,,,,,,,2,,,55,36
46140,note_on,0,0,1,,,,,,,,,0,,,71,49
46140,note_on,0,0,3,,,,,,,,,2,,,59,36
46140,control_change,240,0,1,,,,,,,,,0,64,127,,
46146,note_on,6,0,3,,,,,,,,,2,,,59,0
46146,note_on,6,0,1,,,,,,,,,0,,,71,0
46146,note_on,0,0,3,,,,,,,,,2,,,55,0
46200,note_on,54,0,1,,,,,,,,,0,,,69,49
46206,note_on,6,0,1,,,,,,,,,0,,,69,0
46260,note_on,54,0,1,,,,,,,,,0,,,67,49
46260,note_on,114,0,3,,,,,,,,,2,,,62,36
46266,note_on,6,0,1,,,,,,,,,0,,,67,0
46320,note_on,0,0,3,,,,,,,,,2,,,59,36
46320,note_on,0,0,3,,,,,,,,,2,,,55,36
46320,note_on,54,0,1,,,,,,,,,0,,,74,49
46320,note_on,60,0,3,,,,,,,,,2,,,62,0
46380,note_on,0,0,3,,,,,,,,,2,,,55,0
46380,note_on,60,0,3,,,,,,,,,2,,,59,0
46440,note_on,120,0,1,,,,,,,,,0,,,74,0
46440,note_on,0,0,1,,,,,,,,,0,,,74,49
46500,note_on,0,0,3,,,,,,,,,2,,,59,36
46500,note_on,0,0,1,,,,,,,,,0,,,71,49
46500,note_on,60,0,1,,,,,,,,,0,,,74,0
46500,note_on,120,0,3,,,,,,,,,2,,,55,36
46560,note_on,0,0,1,,,,,,,,,0,,,69,49
46560,note_on,60,0,1,,,,,,,,,0,,,71,0
46560,note_on,0,0,3,,,,,,,,,2,,,55,0
46560,note_on,60,0,3,,,,,,,,,2,,,59,0
46566,note_on,6,0,1,,,,,,,,,0,,,69,0
46620,note_on,60,0,3,,,,,,,,,2,,,62,36
46620,note_on,54,0,1,,,,,,,,,0,,,67,49
46626,note_on,6,0,1,,,,,,,,,0,,,67,0
46680,note_on,0,0,3,,,,,,,,,2,,,55,36
46680,control_change,0,0,3,,,,,,,,,2,64,0,,
46680,note_on,60,0,3,,,,,,,,,2,,,62,0
46680,note_on,54,0,1,,,,,,,,,0,,,74,49
46680,note_on,0,0,3,,,,,,,,,2,,,59,36
46740,note_on,0,0,3,,,,,,,,,2,,,55,0
46740,note_on,60,0,3,,,,,,,,,2,,,59,0
46800,note_on,0,0,1,,,,,,,,,0,,,74,49
46800,control_change,0,0,1,,,,,,,,,0,64,0,,
46800,note_on,120,0,1,,,,,,,,,0,,,74,0
46860,note_on,0,0,1,,,,,,,,,0,,,74,75
46860,control_change,0,0,1,,,,,,,,,0,64,127,,
46860,control_change,120,0,3,,,,,,,,,2,64,127,,
46860,note_on,0,0,3,,,,,,,,,2,,,54,54
46860,note_on,0,0,3,,,,,,,,,2,,,57,62
46860,note_on,60,0,1,,,,,,,,,0,,,74,0
46920,note_on,60,0,3,,,,,,,,,2,,,57,0
46920,note_on,0,0,3,,,,,,,,,2,,,54,0
46980,note_on,0,0,3,,,,,,,,,2,,,50,36
46980,control_change,60,0,3,,,,,,,,,2,64,0,,
46980,note_on,0,0,1,,,,,,,,,0,,,76,49
46980,control_change,0,0,1,,,,,,,,,0,64,0,,
46980,note_on,120,0,1,,,,,,,,,0,,,74,0
47040,note_on,60,0,1,,,,,,,,,0,,,76,0
47040,note_on,60,0,3,,,,,,,,,2,,,50,0
47040,control_change,0,0,3,,,,,,,,,2,64,127,,
47040,note_on,0,0,3,,,,,,,,,2,,,55,54
47040,note_on,0,0,3,,,,,,,,,2,,,61,62
47040,control_change,0,0,1,,,,,,,,,0,64,127,,
47040,note_on,0,0,1,,,,,,,,,0,,,76,75
47100,note_on,60,0,3,,,,,,,,,2,,,61,0
47100,note_on,0,0,3,,,,,,,,,2,,,55,0
47160,control_change,60,0,3,,,,,,,,,2,64,0,,
47160,control_change,0,0,1,,,,,,,,,0,64,0,,
47160,note_on,120,0,1,,,,,,,,,0,,,76,0
47160,note_on,0,0,3,,,,,,,,,2,,,52,36
47160,note_on,0,0,1,,,,,,,,,0,,,73,49
47220,control_change,0,0,1,,,,,,,,,0,64,127,,
47220,note_on,60,0,3,,,,,,,,,2,,,52,0
47220,control_change,0,0,3,,,,,,,,,2,64,127,,
47220,note_on,0,0,3,,,,,,,,,2,,,54,54
47220,note_on,0,0,3,,,,,,,,,2,,,57,62
47220,note_on,60,0,1,,,,,,,,,0,,,73,0
47220,note_on,0,0,1,,,,,,,,,0,,,73,75
47280,note_on,60,0,3,,,,,,,,,2,,,57,0
47280,note_on,0,0,3,,,,,,,,,2,,,54,0
47340,note_on,120,0,1,,,,,,,,,0,,,73,0
47340,control_change,0,0,1,,,,,,,,,0,64,0,,
47340,note_on,0,0,1,,,,,,,,,0,,,74,49
47340,control_change,60,0,3,,,,,,,,,2,64,0,,
47340,note_on,0,0,3,,,,,,,,,2,,,50,36
47400,note_on,0,0,1,,,,,,,,,0,,,74,88
47400,note_on,60,0,1,,,,,,,,,0,,,74,0
47400,note_on,60,0,3,,,,,,,,,2,,,50,0
47400,control_change,0,0,1,,,,,,,,,0,64,127,,
47400,note_on,0,0,3,,,,,,,,,2,,,59,75
47400,note_on,0,0,3,,,,,,,,,2,,,62,75
47460,note_on,60,0,3,,,,,,,,,2,,,62,0
47460,note_on,0,0,3,,,,,,,,,2,,,59,0
47520,note_on,0,0,1,,,,,,,,,0,,,71,49
47520,control_change,0,0,1,,,,,,,,,0,64,0,,
47520,note_on,120,0,1,,,,,,,,,0,,,74,0
47580,control_change,120,0,3,,,,,,,,,2,64,127,,
47580,note_on,0,0,3,,,,,,,,,2,,,55,36
47580,note_on,0,0,1,,,,,,,,,0,,,71,49
47580,control_change,0,0,1,,,,,,,,,0,64,127,,
47580,note_on,60,0,1,,,,,,,,,0,,,71,0
47580,note_on,0,0,3,,,,,,,,,2,,,59,36
47586,note_on,0,0,3,,,,,,,,,2,,,55,0
47586,note_on,6,0,3,,,,,,,,,2,,,59,0
47586,note_on,6,0,1,,,,,,,,,0,,,71,0
47640,note_on,54,0,1,,,,,,,,,0,,,69,49
47646,note_on,6,0,1,,,,,,,,,0,,,69,0
47700,note_on,114,0,3,,,,,,,,,2,,,62,36
47700,note_on,54,0,1,,,,,,,,,0,,,67,49
47706,note_on,6,0,1,,,,,,,,,0,,,67,0
47760,note_on,54,0,1,,,,,,,,,0,,,74,49
47760,note_on,60,0,3,,,,,,,,,2,,,62,0
47760,note_on,0,0,3,,,,,,,,,2,,,59,36
47760,note_on,0,0,3,,,,,,,,,2,,,55,36
47820,note_on,60,0,3,,,,,,,,,2,,,59,0
47820,note_on,0,0,3,,,,,,,,,2,,,55,0
47880,note_on,120,0,1,,,,,,,,,0,,,74,0
47880,note_on,0,0,1,,,,,,,,,0,,,74,49
47940,note_on,0,0,1,,,,,,,,,0,,,71,49
47940,note_on,60,0,1,,,,,,,,,0,,,74,0
47940,note_on,120,0,3,,,,,,,,,2,,,55,36
47940,note_on,0,0,3,,,,,,,,,2,,,59,36
47946,note_on,0,0,3,,,,,,,,,2,,,55,0
47946,note_on,6,0,1,,,,,,,,,0,,,71,0
47946,note_on,6,0,3,,,,,,,,,2,,,59,0
48000,note_on,54,0,1,,,,,,,,,0,,,69,49
48006,note_on,6,0,1,,,,,,,,,0,,,69,0
48060,note_on,114,0,3,,,,,,,,,2,,,62,36
48060,note_on,54,0,1,,,,,,,,,0,,,67,49
48066,note_on,6,0,1,,,,,,,,,0,,,67,0
48120,note_on,0,0,3,,,,,,,,,2,,,55,36
48120,control_change,0,0,3,,,,,,,,,2,64,0,,
48120,note_on,0,0,3,,,,,,,,,2,,,59,36
48120,note_on,54,0,1,,,,,,,,,0,,,74,49
48120,note_on,60,0,3,,,,,,,,,2,,,62,0
48180,note_on,0,0,3,,,,,,,,,2,,,55,0
48180,note_on,60,0,3,,,,,,,,,2,,,59,0
48240,note_on,0,0,1,,,,,,,,,0,,,74,49
48240,note_on,120,0,1,,,,,,,,,0,,,74,0
48240,control_change,0,0,1,,,,,,,,,0,64,0,,
48300,note_on,0,0,3,,,,,,,,,2,,,57,62
48300,note_on,0,0,3,,,,,,,,,2,,,54,54
48300,control_change,120,0,3,,,,,,,,,2,64,127,,
48300,note_on,0,0,1,,,,,,,,,0,,,74,75
48300,control_change,0,0,1,,,,,,,,,0,64,127,,
48300,note_on,60,0,1,,,,,,,,,0,,,74,0
48360,note_on,0,0,3,,,,,,,,,2,,,54,0
48360,note_on,60,0,3,,,,,,,,,2,,,57,0
48420,control_change,60,0,3,,,,,,,,,2,64,0,,
48420,note_on,0,0,3,,,,,,,,,2,,,50,36
48420,note_on,120,0,1,,,,,,,,,0,,,74,0
48420,control_change,0,0,1,,,,,,,,,0,64,0,,
48420,note_on,0,0,1,,,,,,,,,0,,,81,49
48480,note_on,0,0,3,,,,,,,,,2,,,61,62
48480,note_on,0,0,3,,,,,,,,,2,,,55,54
48480,note_on,60,0,1,,,,,,,,,0,,,81,0
48480,control_change,0,0,1,,,,,,,,,0,64,127,,
48480,control_change,0,0,3,,,,,,,,,2,64,127,,
48480,note_on,0,0,1,,,,,,,,,0,,,81,75
48480,note_on,60,0,3,,,,,,,,,2,,,50,0
48540,note_on,60,0,3,,,,,,,,,2,,,61,0
48540,note_on,0,0,3,,,,,,,,,2,,,55,0
48600,note_on,120,0,1,,,,,,,,,0,,,81,0
48600,control_change,60,0,3,,,,,,,,,2,64,0,,
48600,note_on,0,0,3,,,,,,,,,2,,,52,36
48600,note_on,0,0,1,,,,,,,,,0,,,73,49
48600,control_change,0,0,1,,,,,,,,,0,64,0,,
48660,note_on,60,0,1,,,,,,,,,0,,,73,0
48660,control_change,0,0,1,,,,,,,,,0,64,127,,
48660,note_on,0,0,1,,,,,,,,,0,,,73,75
48660,note_on,60,0,3,,,,,,,,,2,,,52,0
48660,control_change,0,0,3,,,,,,,,,2,64,127,,
48660,note_on,0,0,3,,,,,,,,,2,,,54,54
48660,note_on,0,0,3,,,,,,,,,2,,,57,62
48720,note_on,60,0,3,,,,,,,,,2,,,57,0
48720,note_on,0,0,3,,,,,,,,,2,,,54,0
48780,control_change,0,0,1,,,,,,,,,0,64,0,,
48780,note_on,0,0,1,,,,,,,,,0,,,74,49
48780,note_on,120,0,1,,,,,,,,,0,,,73,0
48780,control_change,60,0,3,,,,,,,,,2,64,0,,
48780,note_on,0,0,3,,,,,,,,,2,,,50,36
48840,note_on,0,0,3,,,,,,,,,2,,,62,75
48840,note_on,60,0,3,,,,,,,,,2,,,50,0
48840,note_on,60,0,1,,,,,,,,,0,,,74,0
48840,note_on,0,0,1,,,,,,,,,0,,,74,88
48840,control_change,0,0,1,,,,,,,,,0,64,127,,
48840,note_on,0,0,3,,,,,,,,,2,,,59,75
48900,note_on,0,0,3,,,,,,,,,2,,,59,0
48900,note_on,60,0,3,,,,,,,,,2,,,62,0
48960,control_change,0,0,1,,,,,,,,,0,64,0,,
48960,note_on,0,0,1,,,,,,,,,0,,,71,49
48960,note_on,120,0,1,,,,,,,,,0,,,74,0
49020,control_change,0,0,1,,,,,,,,,0,64,127,,
49020,note_on,60,0,1,,,,,,,,,0,,,71,0
49020,note_on,0,0,1,,,,,,,,,0,,,71,49
49020,control_change,18780,0,2,,,,,,,,,1,64,127,,
49020,note_on,0,0,2,,,,,,,,,1,,,59,36
49020,note_on,0,0,3,,,,,,,,,2,,,55,36
49020,note_on,0,0,3,,,,,,,,,2,,,50,36
49020,note_on,0,0,3,,,,,,,,,2,,,43,36
49020,control_change,120,0,3,,,,,,,,,2,64,127,,
49026,note_on,6,0,1,,,,,,,,,0,,,71,0
49080,note_on,54,0,1,,,,,,,,,0,,,69,49
49086,note_on,6,0,1,,,,,,,,,0,,,69,0
49140,note_on,54,0,1,,,,,,,,,0,,,67,49
49146,note_on,6,0,1,,,,,,,,,0,,,67,0
49200,note_on,180,0,2,,,,,,,,,1,,,59,0
49200,note_on,49200,0,4,,,,,,,,,3,,,45,36
49200,note_on,54,0,1,,,,,,,,,0,,,74,49
49200,note_on,0,0,2,,,,,,,,,1,,,62,36
49200,note_on,180,0,3,,,,,,,,,2,,,55,0
49200,note_on,0,0,3,,,,,,,,,2,,,50,0
49200,note_on,0,0,3,,,,,,,,,2,,,43,0
49200,note_on,0,0,3,,,,,,,,,2,,,50,36
49200,note_on,0,0,3,,,,,,,,,2,,,54,36
49320,note_on,120,0,1,,,,,,,,,0,,,74,0
49320,note_on,120,0,4,,,,,,,,,3,,,45,0
49320,note_on,0,0,4,,,,,,,,,3,,,46,36
49320,note_on,0,0,1,,,,,,,,,0,,,74,49
49326,note_on,6,0,1,,,,,,,,,0,,,74,0
49380,control_change,54,0,1,,,,,,,,,0,64,0,,
49380,control_change,180,0,2,,,,,,,,,1,64,0,,
49380,note_on,180,0,3,,,,,,,,,2,,,54,0
49380,note_on,0,0,3,,,,,,,,,2,,,47,36
49380,control_change,0,0,3,,,,,,,,,2,64,0,,
49380,note_on,60,0,4,,,,,,,,,3,,,46,0
49380,note_on,0,0,3,,,,,,,,,2,,,50,0
49380,note_on,0,0,1,,,,,,,,,0,,,74,49
49386,note_on,6,0,3,,,,,,,,,2,,,47,0
49440,note_on,54,0,3,,,,,,,,,2,,,49,36
49446,note_on,6,0,3,,,,,,,,,2,,,49,0
49500,note_on,54,0,3,,,,,,,,,2,,,50,36
49506,note_on,6,0,3,,,,,,,,,2,,,50,0
49560,note_on,0,0,1,,,,,,,,,0,,,68,75
49560,note_on,180,0,1,,,,,,,,,0,,,74,0
49560,note_on,54,0,3,,,,,,,,,2,,,53,62
49680,note_on,120,0,3,,,,,,,,,2,,,53,0
49680,note_on,0,0,3,,,,,,,,,2,,,52,36
49740,control_change,0,0,1,,,,,,,,,0,64,127,,
49740,note_on,180,0,1,,,,,,,,,0,,,68,0
49740,note_on,0,0,1,,,,,,,,,0,,,72,49
49740,note_on,360,0,2,,,,,,,,,1,,,62,0
49740,note_on,60,0,3,,,,,,,,,2,,,52,0
49740,note_on,0,0,3,,,,,,,,,2,,,57,36
49740,note_on,0,0,3,,,,,,,,,2,,,52,36
49740,note_on,0,0,3,,,,,,,,,2,,,45,36
49740,note_on,0,0,2,,,,,,,,,1,,,60,36
49746,note_on,6,0,1,,,,,,,,,0,,,72,0
49800,note_on,54,0,1,,,,,,,,,0,,,71,49
49806,note_on,6,0,1,,,,,,,,,0,,,71,0
49860,note_on,0,0,1,,,,,,,,,0,,,69,49
49860,control_change,54,0,1,,,,,,,,,0,64,0,,
49866,note_on,6,0,1,,,,,,,,,0,,,69,0
49920,note_on,0,0,1,,,,,,,,,0,,,76,49
49920,note_on,540,0,4,,,,,,,,,3,,,47,36
49920,control_change,54,0,1,,,,,,,,,0,64,127,,
49920,note_on,0,0,2,,,,,,,,,1,,,64,36
49920,note_on,180,0,2,,,,,,,,,1,,,60,0
49920,note_on,180,0,3,,,,,,,,,2,,,57,0
49920,note_on,0,0,3,,,,,,,,,2,,,56,36
49920,note_on,0,0,3,,,,,,,,,2,,,52,0
49920,note_on,0,0,3,,,,,,,,,2,,,45,0
49920,note_on,0,0,3,,,,,,,,,2,,,52,36
50040,note_on,0,0,4,,,,,,,,,3,,,48,36
50040,note_on,120,0,4,,,,,,,,,3,,,47,0
50040,note_on,120,0,1,,,,,,,,,0,,,76,0
50040,note_on,0,0,1,,,,,,,,,0,,,76,49
50046,note_on,6,0,1,,,,,,,,,0,,,76,0
50100,note_on,0,0,3,,,,,,,,,2,,,49,49
50100,note_on,0,0,3,,,,,,,,,2,,,52,0
50100,note_on,180,0,3,,,,,,,,,2,,,56,0
50100,control_change,54,0,1,,,,,,,,,0,64,0,,
50100,note_on,0,0,1,,,,,,,,,0,,,76,62
50100,note_on,60,0,4,,,,,,,,,3,,,48,0
50106,note_on,6,0,3,,,,,,,,,2,,,49,0
50160,note_on,54,0,3,,,,,,,,,2,,,51,49
50166,note_on,6,0,3,,,,,,,,,2,,,51,0
50220,note_on,54,0,3,,,,,,,,,2,,,52,49
50226,note_on,6,0,3,,,,,,,,,2,,,52,0
50280,note_on,54,0,3,,,,,,,,,2,,,55,75
50280,note_on,0,0,1,,,,,,,,,0,,,70,62
50280,note_on,180,0,1,,,,,,,,,0,,,76,0
50400,note_on,120,0,3,,,,,,,,,2,,,55,0
50400,note_on,0,0,3,,,,,,,,,2,,,54,49
50460,note_on,0,0,2,,,,,,,,,1,,,62,62
50460,note_on,540,0,2,,,,,,,,,1,,,64,0
50460,note_on,0,0,3,,,,,,,,,2,,,59,62
50460,control_change,0,0,1,,,,,,,,,0,64,127,,
50460,note_on,0,0,1,,,,,,,,,0,,,74,75
50460,note_on,60,0,3,,,,,,,,,2,,,54,0
50460,note_on,0,0,3,,,,,,,,,2,,,47,62
50460,note_on,0,0,3,,,,,,,,,2,,,54,62
50460,note_on,180,0,1,,,,,,,,,0,,,70,0
50466,note_on,6,0,1,,,,,,,,,0,,,74,0
50520,note_on,54,0,1,,,,,,,,,0,,,73,75
50526,note_on,6,0,1,,,,,,,,,0,,,73,0
50580,note_on,54,0,1,,,,,,,,,0,,,71,75
50586,note_on,6,0,1,,,,,,,,,0,,,71,0
50640,note_on,180,0,3,,,,,,,,,2,,,59,0
50640,note_on,0,0,3,,,,,,,,,2,,,54,0
50640,note_on,540,0,4,,,,,,,,,3,,,49,62
50640,note_on,0,0,3,,,,,,,,,2,,,47,0
50640,note_on,0,0,3,,,,,,,,,2,,,54,62
50640,note_on,0,0,1,,,,,,,,,0,,,78,75
50640,control_change,54,0,1,,,,,,,,,0,64,0,,
50640,note_on,0,0,2,,,,,,,,,1,,,66,62
50640,note_on,180,0,2,,,,,,,,,1,,,62,0
50640,note_on,0,0,3,,,,,,,,,2,,,58,62
50760,note_on,120,0,4,,,,,,,,,3,,,49,0
50760,note_on,120,0,1,,,,,,,,,0,,,78,0
50760,note_on,0,0,1,,,,,,,,,0,,,78,75
50760,note_on,0,0,4,,,,,,,,,3,,,50,62
50766,note_on,6,0,1,,,,,,,,,0,,,78,0
50820,note_on,54,0,1,,,,,,,,,0,,,78,75
50820,note_on,180,0,3,,,,,,,,,2,,,58,0
50820,note_on,0,0,3,,,,,,,,,2,,,54,0
50820,note_on,0,0,3,,,,,,,,,2,,,51,62
50820,note_on,60,0,4,,,,,,,,,3,,,50,0
50826,note_on,6,0,3,,,,,,,,,2,,,51,0
50880,note_on,54,0,3,,,,,,,,,2,,,53,62
50886,note_on,6,0,3,,,,,,,,,2,,,53,0
50940,note_on,54,0,3,,,,,,,,,2,,,54,62
50946,note_on,6,0,3,,,,,,,,,2,,,54,0
51000,note_on,0,0,1,,,,,,,,,0,,,72,101
51000,note_on,180,0,1,,,,,,,,,0,,,78,0
51000,note_on,54,0,3,,,,,,,,,2,,,57,88
51120,note_on,120,0,3,,,,,,,,,2,,,57,0
51120,note_on,0,0,3,,,,,,,,,2,,,56,62
51180,note_on,180,0,1,,,,,,,,,0,,,72,0
51180,control_change,0,0,1,,,,,,,,,0,64,127,,
51180,note_on,0,0,1,,,,,,,,,0,,,73,36
51180,note_on,0,0,2,,,,,,,,,1,,,65,36
51180,note_on,540,0,2,,,,,,,,,1,,,66,0
51180,note_on,0,0,3,,,,,,,,,2,,,56,36
51180,note_on,0,0,3,,,,,,,,,2,,,49,36
51180,note_on,60,0,3,,,,,,,,,2,,,56,0
51186,note_on,6,0,1,,,,,,,,,0,,,73,0
51240,note_on,54,0,1,,,,,,,,,0,,,74,36
51246,note_on,6,0,1,,,,,,,,,0,,,74,0
51300,note_on,54,0,1,,,,,,,,,0,,,73,36
51306,note_on,6,0,1,,,,,,,,,0,,,73,0
51360,control_change,54,0,1,,,,,,,,,0,64,0,,
51360,note_on,0,0,1,,,,,,,,,0,,,74,36
51360,note_on,0,0,2,,,,,,,,,1,,,66,36
51360,note_on,0,0,3,,,,,,,,,2,,,56,36
51360,note_on,540,0,4,,,,,,,,,3,,,47,36
51360,note_on,180,0,2,,,,,,,,,1,,,65,0
51360,note_on,180,0,3,,,,,,,,,2,,,56,0
51360,note_on,0,0,3,,,,,,,,,2,,,49,0
51366,note_on,6,0,3,,,,,,,,,2,,,56,0
51372,note_on,12,0,1,,,,,,,,,0,,,74,0
51420,note_on,54,0,3,,,,,,,,,2,,,57,36
51426,note_on,6,0,3,,,,,,,,,2,,,57,0
51480,note_on,108,0,1,,,,,,,,,0,,,74,36
51480,note_on,0,0,4,,,,,,,,,3,,,48,36
51480,note_on,120,0,4,,,,,,,,,3,,,47,0
51480,note_on,54,0,3,,,,,,,,,2,,,56,36
51486,note_on,6,0,1,,,,,,,,,0,,,74,0
51486,note_on,6,0,3,,,,,,,,,2,,,56,0
51540,note_on,0,0,1,,,,,,,,,0,,,73,36
51540,control_change,54,0,1,,,,,,,,,0,64,127,,
51540,note_on,180,0,2,,,,,,,,,1,,,66,0
51540,note_on,0,0,2,,,,,,,,,1,,,65,36
51540,note_on,0,0,3,,,,,,,,,2,,,56,36
51540,note_on,54,0,3,,,,,,,,,2,,,49,36
51540,note_on,60,0,4,,,,,,,,,3,,,48,0
51546,note_on,6,0,1,,,,,,,,,0,,,73,0
51600,note_on,54,0,1,,,,,,,,,0,,,74,36
51606,note_on,6,0,1,,,,,,,,,0,,,74,0
51660,note_on,54,0,1,,,,,,,,,0,,,73,36
51666,note_on,6,0,1,,,,,,,,,0,,,73,0
51720,note_on,0,0,1,,,,,,,,,0,,,74,36
51720,note_on,180,0,2,,,,,,,,,1,,,65,0
51720,note_on,0,0,2,,,,,,,,,1,,,66,36
51720,note_on,180,0,3,,,,,,,,,2,,,56,0
51720,note_on,0,0,3,,,,,,,,,2,,,49,0
51720,note_on,0,0,3,,,,,,,,,2,,,56,36
51720,note_on,180,0,4,,,,,,,,,3,,,47,36
51720,control_change,54,0,1,,,,,,,,,0,64,0,,
51726,note_on,6,0,3,,,,,,,,,2,,,56,0
51732,note_on,12,0,1,,,,,,,,,0,,,74,0
51780,note_on,54,0,3,,,,,,,,,2,,,57,36
51786,note_on,6,0,3,,,,,,,,,2,,,57,0
51840,note_on,0,0,4,,,,,,,,,3,,,48,36
51840,note_on,120,0,4,,,,,,,,,3,,,47,0
51840,note_on,54,0,3,,,,,,,,,2,,,56,36
51840,note_on,108,0,1,,,,,,,,,0,,,74,36
51846,note_on,6,0,3,,,,,,,,,2,,,56,0
51846,note_on,6,0,1,,,,,,,,,0,,,74,0
51900,note_on,0,0,1,,,,,,,,,0,,,73,36
51900,control_change,54,0,1,,,,,,,,,0,64,127,,
51900,note_on,180,0,2,,,,,,,,,1,,,66,0
51900,note_on,0,0,2,,,,,,,,,1,,,65,36
51900,note_on,0,0,3,,,,,,,,,2,,,56,36
51900,note_on,54,0,3,,,,,,,,,2,,,49,36
51900,note_on,60,0,4,,,,,,,,,3,,,48,0
51906,note_on,6,0,1,,,,,,,,,0,,,73,0
51960,note_on,54,0,1,,,,,,,,,0,,,74,36
51966,note_on,6,0,1,,,,,,,,,0,,,74,0
52020,note_on,120,0,3,,,,,,,,,2,,,56,0
52020,note_on,0,0,1,,,,,,,,,0,,,73,36
52020,control_change,54,0,1,,,,,,,,,0,64,0,,
52020,note_on,0,0,3,,,,,,,,,2,,,49,0
52026,note_on,6,0,1,,,,,,,,,0,,,73,0
52080,note_on,0,0,1,,,,,,,,,0,,,80,36
52080,control_change,54,0,1,,,,,,,,,0,64,127,,
52080,note_on,0,0,3,,,,,,,,,2,,,72,36
52080,note_on,0,0,3,,,,,,,,,2,,,66,36
52080,control_change,60,0,3,,,,,,,,,2,64,127,,
52080,note_on,180,0,2,,,,,,,,,1,,,65,0
52092,note_on,12,0,1,,,,,,,,,0,,,80,0
52200,note_on,0,0,1,,,,,,,,,0,,,80,36
52200,control_change,108,0,1,,,,,,,,,0,64,0,,
52206,note_on,6,0,1,,,,,,,,,0,,,80,0
52260,note_on,0,0,1,,,,,,,,,0,,,80,49
52260,control_change,54,0,1,,,,,,,,,0,64,127,,
52260,note_on,180,0,3,,,,,,,,,2,,,72,0
52260,control_change,0,0,3,,,,,,,,,2,64,0,,
52260,note_on,0,0,3,,,,,,,,,2,,,73,36
52272,note_on,12,0,1,,,,,,,,,0,,,80,0
52380,control_change,108,0,1,,,,,,,,,0,64,0,,
52380,note_on,0,0,1,,,,,,,,,0,,,80,49
52386,note_on,6,0,1,,,,,,,,,0,,,80,0
52440,note_on,0,0,3,,,,,,,,,2,,,74,49
52440,note_on,180,0,3,,,,,,,,,2,,,73,0
52440,note_on,0,0,1,,,,,,,,,0,,,80,62
52440,control_change,54,0,1,,,,,,,,,0,64,127,,
52452,note_on,12,0,1,,,,,,,,,0,,,80,0
52560,note_on,0,0,1,,,,,,,,,0,,,80,62
52560,control_change,108,0,1,,,,,,,,,0,64,0,,
52566,note_on,6,0,1,,,,,,,,,0,,,80,0
52620,note_on,0,0,3,,,,,,,,,2,,,66,0
52620,note_on,0,0,3,,,,,,,,,2,,,65,36
52620,note_on,180,0,3,,,,,,,,,2,,,74,0
52620,note_on,0,0,3,,,,,,,,,2,,,73,36
52620,control_change,54,0,1,,,,,,,,,0,64,127,,
52620,note_on,0,0,1,,,,,,,,,0,,,80,36
52680,note_on,60,0,1,,,,,,,,,0,,,80,0
52680,note_on,0,0,1,,,,,,,,,0,,,82,36
52740,note_on,60,0,1,,,,,,,,,0,,,82,0
52740,control_change,0,0,1,,,,,,,,,0,64,0,,
52740,note_on,0,0,1,,,,,,,,,0,,,80,36
52800,control_change,0,0,1,,,,,,,,,0,64,127,,
52800,note_on,0,0,3,,,,,,,,,2,,,66,36
52800,note_on,0,0,3,,,,,,,,,2,,,75,36
52800,note_on,0,0,1,,,,,,,,,0,,,78,36
52800,note_on,180,0,3,,,,,,,,,2,,,73,0
52800,note_on,60,0,1,,,,,,,,,0,,,80,0
52800,note_on,0,0,3,,,,,,,,,2,,,65,0
52860,note_on,60,0,1,,,,,,,,,0,,,78,0
52860,note_on,0,0,1,,,,,,,,,0,,,80,36
52920,note_on,60,0,1,,,,,,,,,0,,,80,0
52920,note_on,0,0,1,,,,,,,,,0,,,78,36
52920,control_change,0,0,1,,,,,,,,,0,64,0,,
52980,note_on,180,0,3,,,,,,,,,2,,,75,0
52980,control_change,0,0,1,,,,,,,,,0,64,127,,
52980,note_on,0,0,3,,,,,,,,,2,,,73,36
52980,note_on,60,0,1,,,,,,,,,0,,,78,0
52980,note_on,0,0,3,,,,,,,,,2,,,66,0
52980,note_on,0,0,1,,,,,,,,,0,,,77,36
52980,note_on,0,0,3,,,,,,,,,2,,,68,36
53040,note_on,0,0,1,,,,,,,,,0,,,78,36
53040,note_on,60,0,1,,,,,,,,,0,,,77,0
53100,note_on,60,0,1,,,,,,,,,0,,,78,0
53100,control_change,0,0,1,,,,,,,,,0,64,0,,
53100,note_on,0,0,1,,,,,,,,,0,,,77,36
53160,note_on,1080,0,2,,,,,,,,,1,,,72,36
53160,note_on,0,0,3,,,,,,,,,2,,,68,0
53160,note_on,180,0,3,,,,,,,,,2,,,73,0
53160,note_on,0,0,1,,,,,,,,,0,,,75,36
53160,note_on,0,0,3,,,,,,,,,2,,,66,36
53160,note_on,0,0,3,,,,,,,,,2,,,56,36
53160,note_on,60,0,1,,,,,,,,,0,,,77,0
53160,control_change,0,0,1,,,,,,,,,0,64,127,,
53220,note_on,60,0,1,,,,,,,,,0,,,75,0
53220,note_on,0,0,1,,,,,,,,,0,,,77,36
53280,note_on,0,0,1,,,,,,,,,0,,,75,36
53280,control_change,0,0,1,,,,,,,,,0,64,0,,
53280,note_on,60,0,1,,,,,,,,,0,,,77,0
53340,note_on,0,0,1,,,,,,,,,0,,,75,36
53340,control_change,0,0,1,,,,,,,,,0,64,127,,
53340,note_on,60,0,1,,,,,,,,,0,,,75,0
53340,note_on,0,0,3,,,,,,,,,2,,,58,36
53340,note_on,180,0,2,,,,,,,,,1,,,72,0
53340,key_signature,7200,1,0,,,,,B,,,,,,,,
53340,note_on,180,0,3,,,,,,,,,2,,,66,0
53340,note_on,0,0,3,,,,,,,,,2,,,56,0
53340,note_on,0,0,3,,,,,,,,,2,,,51,36
53340,note_on,0,0,2,,,,,,,,,1,,,67,36
53346,note_on,6,0,1,,,,,,,,,0,,,75,0
53400,note_on,54,0,1,,,,,,,,,0,,,76,36
53406,note_on,6,0,1,,,,,,,,,0,,,76,0
53460,note_on,54,0,1,,,,,,,,,0,,,75,36
53466,note_on,6,0,1,,,,,,,,,0,,,75,0
53520,note_on,180,0,2,,,,,,,,,1,,,67,0
53520,note_on,0,0,2,,,,,,,,,1,,,68,36
53520,note_on,180,0,3,,,,,,,,,2,,,58,0
53520,note_on,0,0,3,,,,,,,,,2,,,51,0
53520,note_on,0,0,3,,,,,,,,,2,,,58,36
53520,note_on,0,0,1,,,,,,,,,0,,,76,36
53520,control_change,54,0,1,,,,,,,,,0,64,0,,
53520,note_on,1620,0,4,,,,,,,,,3,,,49,36
53526,note_on,6,0,3,,,,,,,,,2,,,58,0
53532,note_on,12,0,1,,,,,,,,,0,,,76,0
53580,note_on,54,0,3,,,,,,,,,2,,,59,36
53586,note_on,6,0,3,,,,,,,,,2,,,59,0
53640,note_on,54,0,3,,,,,,,,,2,,,58,36
53640,note_on,108,0,1,,,,,,,,,0,,,76,36
53640,note_on,120,0,4,,,,,,,,,3,,,49,0
53640,note_on,0,0,4,,,,,,,,,3,,,50,36
53646,note_on,6,0,3,,,,,,,,,2,,,58,0
53646,note_on,6,0,1,,,,,,,,,0,,,76,0
53700,note_on,54,0,3,,,,,,,,,2,,,51,36
53700,note_on,0,0,3,,,,,,,,,2,,,58,36
53700,note_on,0,0,1,,,,,,,,,0,,,75,36
53700,note_on,60,0,4,,,,,,,,,3,,,50,0
53700,note_on,180,0,2,,,,,,,,,1,,,68,0
53700,note_on,0,0,2,,,,,,,,,1,,,67,36
53700,control_change,54,0,1,,,,,,,,,0,64,127,,
53706,note_on,6,0,1,,,,,,,,,0,,,75,0
53760,note_on,54,0,1,,,,,,,,,0,,,76,36
53766,note_on,6,0,1,,,,,,,,,0,,,76,0
53820,note_on,54,0,1,,,,,,,,,0,,,75,36
53826,note_on,6,0,1,,,,,,,,,0,,,75,0
53880,note_on,180,0,2,,,,,,,,,1,,,67,0
53880,control_change,54,0,1,,,,,,,,,0,64,0,,
53880,note_on,180,0,4,,,,,,,,,3,,,49,36
53880,note_on,180,0,3,,,,,,,,,2,,,58,0
53880,note_on,0,0,3,,,,,,,,,2,,,51,0
53880,note_on,0,0,3,,,,,,,,,2,,,58,36
53880,note_on,0,0,1,,,,,,,,,0,,,76,36
53880,note_on,0,0,2,,,,,,,,,1,,,68,36
53886,note_on,6,0,3,,,,,,,,,2,,,58,0
53892,note_on,12,0,1,,,,,,,,,0,,,76,0
53940,note_on,54,0,3,,,,,,,,,2,,,59,36
53946,note_on,6,0,3,,,,,,,,,2,,,59,0
54000,note_on,54,0,3,,,,,,,,,2,,,58,36
54000,note_on,108,0,1,,,,,,,,,0,,,76,36
54000,note_on,0,0,4,,,,,,,,,3,,,50,36
54000,note_on,120,0,4,,,,,,,,,3,,,49,0
54006,note_on,6,0,3,,,,,,,,,2,,,58,0
54006,note_on,6,0,1,,,,,,,,,0,,,76,0
54060,note_on,54,0,1,,,,,,,,,0,,,75,36
54060,note_on,0,0,3,,,,,,,,,2,,,58,36
54060,note_on,54,0,3,,,,,,,,,2,,,51,36
54060,note_on,0,0,2,,,,,,,,,1,,,67,36
54060,note_on,180,0,2,,,,,,,,,1,,,68,0
54060,note_on,60,0,4,,,,,,,,,3,,,50,0
54066,note_on,6,0,1,,,,,,,,,0,,,75,0
54120,note_on,54,0,1,,,,,,,,,0,,,76,36
54126,note_on,6,0,1,,,,,,,,,0,,,76,0
54180,note_on,54,0,1,,,,,,,,,0,,,75,36
54186,note_on,6,0,1,,,,,,,,,0,,,75,0
54240,note_on,0,0,2,,,,,,,,,1,,,69,36
54240,note_on,0,0,1,,,,,,,,,0,,,77,49
54240,control_change,54,0,1,,,,,,,,,0,64,127,,
54240,note_on,180,0,2,,,,,,,,,1,,,67,0
54240,note_on,180,0,4,,,,,,,,,3,,,51,36
54240,note_on,180,0,3,,,,,,,,,2,,,58,0
54240,note_on,0,0,3,,,,,,,,,2,,,51,0
54240,control_change,0,0,3,,,,,,,,,2,64,127,,
54240,note_on,0,0,3,,,,,,,,,2,,,59,36
54246,note_on,6,0,3,,,,,,,,,2,,,59,0
54252,note_on,12,0,1,,,,,,,,,0,,,77,0
54300,note_on,54,0,3,,,,,,,,,2,,,60,36
54306,note_on,6,0,3,,,,,,,,,2,,,60,0
54360,note_on,54,0,3,,,,,,,,,2,,,59,36
54360,note_on,108,0,1,,,,,,,,,0,,,77,49
54366,note_on,6,0,3,,,,,,,,,2,,,59,0
54366,note_on,6,0,1,,,,,,,,,0,,,77,0
54420,control_change,54,0,1,,,,,,,,,0,64,0,,
54420,note_on,0,0,1,,,,,,,,,0,,,76,62
54420,note_on,180,0,4,,,,,,,,,3,,,51,0
54420,note_on,0,0,2,,,,,,,,,1,,,68,49
54420,note_on,0,0,3,,,,,,,,,2,,,52,49
54420,note_on,0,0,3,,,,,,,,,2,,,59,49
54420,control_change,54,0,3,,,,,,,,,2,64,0,,
54420,note_on,180,0,2,,,,,,,,,1,,,69,0
54426,note_on,6,0,1,,,,,,,,,0,,,76,0
54480,note_on,54,0,1,,,,,,,,,0,,,77,62
54486,note_on,6,0,1,,,,,,,,,0,,,77,0
54540,note_on,54,0,1,,,,,,,,,0,,,76,62
54546,note_on,6,0,1,,,,,,,,,0,,,76,0
54600,note_on,180,0,4,,,,,,,,,3,,,51,62
54600,note_on,0,0,1,,,,,,,,,0,,,77,75
54600,control_change,54,0,1,,,,,,,,,0,64,127,,
54600,note_on,0,0,3,,,,,,,,,2,,,59,62
54600,note_on,0,0,3,,,,,,,,,2,,,52,0
54600,control_change,0,0,3,,,,,,,,,2,64,127,,
54600,note_on,0,0,2,,,,,,,,,1,,,69,62
54600,note_on,180,0,3,,,,,,,,,2,,,59,0
54600,note_on,180,0,2,,,,,,,,,1,,,68,0
54606,note_on,6,0,3,,,,,,,,,2,,,59,0
54612,note_on,12,0,1,,,,,,,,,0,,,77,0
54660,note_on,54,0,3,,,,,,,,,2,,,60,62
54666,note_on,6,0,3,,,,,,,,,2,,,60,0
54720,note_on,108,0,1,,,,,,,,,0,,,77,75
54720,note_on,54,0,3,,,,,,,,,2,,,59,62
54726,note_on,6,0,1,,,,,,,,,0,,,77,0
54726,note_on,6,0,3,,,,,,,,,2,,,59,0
54780,note_on,180,0,4,,,,,,,,,3,,,51,0
54780,note_on,0,0,1,,,,,,,,,0,,,76,75
54780,control_change,54,0,3,,,,,,,,,2,64,0,,
54780,note_on,0,0,2,,,,,,,,,1,,,68,62
54780,note_on,0,0,3,,,,,,,,,2,,,52,62
54780,note_on,0,0,3,,,,,,,,,2,,,59,62
54780,control_change,54,0,1,,,,,,,,,0,64,0,,
54780,note_on,180,0,2,,,,,,,,,1,,,69,0
54786,note_on,6,0,1,,,,,,,,,0,,,76,0
54840,note_on,54,0,1,,,,,,,,,0,,,77,75
54846,note_on,6,0,1,,,,,,,,,0,,,77,0
54900,note_on,0,0,3,,,,,,,,,2,,,52,0
54900,note_on,54,0,1,,,,,,,,,0,,,76,75
54900,note_on,120,0,3,,,,,,,,,2,,,59,0
54906,note_on,6,0,1,,,,,,,,,0,,,76,0
54960,control_change,60,0,3,,,,,,,,,2,64,127,,
54960,note_on,0,0,3,,,,,,,,,2,,,69,62
54960,control_change,54,0,1,,,,,,,,,0,64,127,,
54960,note_on,0,0,1,,,,,,,,,0,,,83,75
54960,note_on,180,0,2,,,,,,,,,1,,,68,0
54960,note_on,0,0,3,,,,,,,,,2,,,75,62
54972,note_on,12,0,1,,,,,,,,,0,,,83,0
55080,note_on,108,0,1,,,,,,,,,0,,,83,75
55086,note_on,6,0,1,,,,,,,,,0,,,83,0
55140,note_on,180,0,3,,,,,,,,,2,,,75,0
55140,note_on,0,0,3,,,,,,,,,2,,,76,62
55140,note_on,54,0,1,,,,,,,,,0,,,83,75
55152,note_on,12,0,1,,,,,,,,,0,,,83,0
55260,note_on,108,0,1,,,,,,,,,0,,,83,75
55266,note_on,6,0,1,,,,,,,,,0,,,83,0
55320,note_on,0,0,3,,,,,,,,,2,,,77,75
55320,control_change,0,0,3,,,,,,,,,2,64,0,,
55320,note_on,54,0,1,,,,,,,,,0,,,83,88
55320,note_on,180,0,3,,,,,,,,,2,,,76,0
55332,note_on,12,0,1,,,,,,,,,0,,,83,0
55440,control_change,108,0,1,,,,,,,,,0,64,0,,
55440,note_on,0,0,1,,,,,,,,,0,,,83,88
55446,note_on,6,0,1,,,,,,,,,0,,,83,0
55500,note_on,180,0,3,,,,,,,,,2,,,77,0
55500,control_change,54,0,1,,,,,,,,,0,64,127,,
55500,note_on,0,0,1,,,,,,,,,0,,,83,36
55500,note_on,0,0,3,,,,,,,,,2,,,68,36
55500,note_on,0,0,3,,,,,,,,,2,,,69,0
55500,note_on,0,0,3,,,,,,,,,2,,,76,36
55560,note_on,0,0,1,,,,,,,,,0,,,85,36
55560,note_on,60,0,1,,,,,,,,,0,,,83,0
55620,note_on,60,0,1,,,,,,,,,0,,,85,0
55620,note_on,0,0,1,,,,,,,,,0,,,83,36
55680,note_on,0,0,1,,,,,,,,,0,,,81,36
55680,note_on,0,0,3,,,,,,,,,2,,,78,36
55680,note_on,0,0,3,,,,,,,,,2,,,69,36
55680,note_on,0,0,3,,,,,,,,,2,,,68,0
55680,note_on,180,0,3,,,,,,,,,2,,,76,0
55680,control_change,0,0,1,,,,,,,,,0,64,0,,
55680,note_on,60,0,1,,,,,,,,,0,,,83,0
55740,note_on,60,0,1,,,,,,,,,0,,,81,0
55740,note_on,0,0,1,,,,,,,,,0,,,83,36
55800,note_on,60,0,1,,,,,,,,,0,,,83,0
55800,note_on,0,0,1,,,,,,,,,0,,,81,36
55860,note_on,0,0,3,,,,,,,,,2,,,76,36
55860,note_on,0,0,3,,,,,,,,,2,,,71,36
55860,note_on,0,0,3,,,,,,,,,2,,,69,0
55860,note_on,180,0,3,,,,,,,,,2,,,78,0
55860,note_on,0,0,1,,,,,,,,,0,,,80,36
55860,control_change,0,0,1,,,,,,,,,0,64,127,,
55860,note_on,60,0,1,,,,,,,,,0,,,81,0
55920,note_on,60,0,1,,,,,,,,,0,,,80,0
55920,note_on,0,0,1,,,,,,,,,0,,,81,36
55980,note_on,60,0,1,,,,,,,,,0,,,81,0
55980,note_on,0,0,1,,,,,,,,,0,,,80,36
56040,note_on,0,0,1,,,,,,,,,0,,,78,36
56040,control_change,0,0,1,,,,,,,,,0,64,0,,
56040,note_on,60,0,1,,,,,,,,,0,,,80,0
56040,note_on,180,0,3,,,,,,,,,2,,,76,0
56040,note_on,0,0,3,,,,,,,,,2,,,71,0
56040,note_on,0,0,3,,,,,,,,,2,,,60,36
56040,note_on,0,0,3,,,,,,,,,2,,,69,36
56040,note_on,1080,0,2,,,,,,,,,1,,,75,36
56100,note_on,60,0,1,,,,,,,,,0,,,78,0
56100,note_on,0,0,1,,,,,,,,,0,,,80,36
56100,set_tempo,2760,1,0,,,,,,444444,,,,,,,
56160,set_tempo,60,1,0,,,,,,454545,,,,,,,
56160,note_on,0,0,1,,,,,,,,,0,,,78,36
56160,note_on,60,0,1,,,,,,,,,0,,,80,0
56220,set_tempo,60,1,0,,,,,,465116,,,,,,,
56220,note_on,0,0,3,,,,,,,,,2,,,61,36
56220,note_on,0,0,1,,,,,,,,,0,,,76,36
56220,control_change,0,0,1,,,,,,,,,0,64,127,,
56220,note_on,60,0,1,,,,,,,,,0,,,78,0
56220,note_on,180,0,2,,,,,,,,,1,,,75,0
56220,note_on,0,0,2,,,,,,,,,1,,,73,36
56220,note_on,0,0,3,,,,,,,,,2,,,60,0
56220,note_on,0,0,3,,,,,,,,,2,,,68,36
56220,note_on,180,0,3,,,,,,,,,2,,,69,0
56280,note_on,0,0,1,,,,,,,,,0,,,78,36
56280,note_on,60,0,1,,,,,,,,,0,,,76,0
56280,set_tempo,60,1,0,,,,,,480000,,,,,,,
56340,note_on,60,0,1,,,,,,,,,0,,,78,0
56340,note_on,0,0,1,,,,,,,,,0,,,76,36
56340,set_tempo,60,1,0,,,,,,491803,,,,,,,
56400,note_on,0,0,3,,,,,,,,,2,,,61,0
56400,note_on,60,0,1,,,,,,,,,0,,,76,0
56400,note_on,0,0,3,,,,,,,,,2,,,66,36
56400,note_on,0,0,3,,,,,,,,,2,,,63,36
56400,note_on,180,0,3,,,,,,,,,2,,,68,0
56400,set_tempo,60,1,0,,,,,,504202,,,,,,,
56400,note_on,180,0,2,,,,,,,,,1,,,73,0
56400,control_change,0,0,2,,,,,,,,,1,64,127,,
56400,note_on,0,0,2,,,,,,,,,1,,,71,36
56400,control_change,0,0,1,,,,,,,,,0,64,0,,
56400,note_on,0,0,1,,,,,,,,,0,,,75,36
56460,set_tempo,60,1,0,,,,,,517241,,,,,,,
56460,note_on,60,0,1,,,,,,,,,0,,,75,0
56460,note_on,0,0,1,,,,,,,,,0,,,76,36
56520,note_on,0,0,1,,,,,,,,,0,,,75,36
56520,note_on,60,0,1,,,,,,,,,0,,,76,0
56520,set_tempo,60,1,0,,,,,,535714,,,,,,,
56580,note_on,0,0,1,,,,,,,,,0,,,73,36
56580,control_change,0,0,1,,,,,,,,,0,64,127,,
56580,note_on,60,0,1,,,,,,,,,0,,,75,0
56580,note_on,0,0,3,,,,,,,,,2,,,68,36
56580,note_on,180,0,3,,,,,,,,,2,,,66,0
56580,note_on,0,0,3,,,,,,,,,2,,,64,36
56580,note_on,0,0,3,,,,,,,,,2,,,63,0
56640,note_on,60,0,1,,,,,,,,,0,,,73,0
56640,note_on,0,0,1,,,,,,,,,0,,,75,36
56700,note_on,60,0,1,,,,,,,,,0,,,75,0
56700,note_on,0,0,1,,,,,,,,,0,,,73,36
56760,note_on,360,0,2,,,,,,,,,1,,,71,0
56760,note_on,0,0,1,,,,,,,,,0,,,78,36
56760,control_change,0,0,1,,,,,,,,,0,64,0,,
56760,note_on,0,0,3,,,,,,,,,2,,,66,36
56760,note_on,0,0,3,,,,,,,,,2,,,64,0
56760,note_on,60,0,1,,,,,,,,,0,,,73,0
56760,note_on,180,0,3,,,,,,,,,2,,,68,0
56760,control_change,0,0,2,,,,,,,,,1,64,0,,
56760,note_on,0,0,2,,,,,,,,,1,,,70,36
56820,note_on,60,0,1,,,,,,,,,0,,,78,0
56820,note_on,0,0,1,,,,,,,,,0,,,80,36
56880,note_on,0,0,1,,,,,,,,,0,,,78,36
56880,note_on,60,0,1,,,,,,,,,0,,,80,0
56940,note_on,60,0,1,,,,,,,,,0,,,78,0
56940,note_on,180,0,2,,,,,,,,,1,,,70,0
56940,note_on,180,0,3,,,,,,,,,2,,,66,0
57240,set_tempo,720,1,0,,,,,,434783,,,,,,,
57240,note_on,300,0,1,,,,,,,,,0,,,75,75
57240,note_on,300,0,3,,,,,,,,,2,,,63,62
57270,note_on,0,0,1,,,,,,,,,0,,,76,75
57270,note_on,30,0,1,,,,,,,,,0,,,75,0
57270,note_on,30,0,3,,,,,,,,,2,,,63,0
57270,note_on,0,0,3,,,,,,,,,2,,,64,62
57300,note_on,30,0,3,,,,,,,,,2,,,64,0
57300,note_on,0,0,3,,,,,,,,,2,,,66,62
57300,note_on,30,0,1,,,,,,,,,0,,,76,0
57300,note_on,0,0,1,,,,,,,,,0,,,78,101
57420,note_on,120,0,3,,,,,,,,,2,,,66,0
57420,note_on,120,0,1,,,,,,,,,0,,,78,0
57420,note_on,0,0,3,,,,,,,,,2,,,61,62
57420,note_on,0,0,1,,,,,,,,,0,,,73,75
57450,note_on,30,0,1,,,,,,,,,0,,,73,0
57450,note_on,0,0,1,,,,,,,,,0,,,75,75
57450,note_on,30,0,3,,,,,,,,,2,,,61,0
57450,note_on,0,0,3,,,,,,,,,2,,,63,62
57480,note_on,0,0,3,,,,,,,,,2,,,64,62
57480,note_on,30,0,3,,,,,,,,,2,,,63,0
57480,note_on,30,0,1,,,,,,,,,0,,,75,0
57480,note_on,0,0,1,,,,,,,,,0,,,76,101
57600,note_on,120,0,1,,,,,,,,,0,,,76,0
57600,note_on,0,0,1,,,,,,,,,0,,,71,75
57600,note_on,120,0,3,,,,,,,,,2,,,64,0
57630,note_on,0,0,1,,,,,,,,,0,,,73,75
57630,note_on,30,0,1,,,,,,,,,0,,,71,0
57660,note_on,0,0,3,,,,,,,,,2,,,59,75
57660,note_on,60,0,3,,,,,,,,,2,,,47,75
57660,note_on,0,0,1,,,,,,,,,0,,,75,114
57660,note_on,30,0,1,,,,,,,,,0,,,73,0
57660,note_on,0,0,3,,,,,,,,,2,,,54,75
57660,note_on,720,0,2,,,,,,,,,1,,,63,75
57780,note_on,0,0,1,,,,,,,,,0,,,73,88
57780,note_on,120,0,1,,,,,,,,,0,,,75,0
57840,note_on,0,0,3,,,,,,,,,2,,,55,75
57840,note_on,180,0,2,,,,,,,,,1,,,63,0
57840,note_on,0,0,2,,,,,,,,,1,,,63,75
57840,note_on,60,0,1,,,,,,,,,0,,,73,0
57840,note_on,0,0,1,,,,,,,,,0,,,71,114
57840,note_on,0,0,3,,,,,,,,,2,,,59,75
57840,note_on,180,0,3,,,,,,,,,2,,,59,0
57840,note_on,0,0,3,,,,,,,,,2,,,54,0
57840,note_on,0,0,3,,,,,,,,,2,,,47,0
57840,note_on,0,0,3,,,,,,,,,2,,,47,75
57960,note_on,0,0,1,,,,,,,,,0,,,70,88
57960,note_on,120,0,1,,,,,,,,,0,,,71,0
58020,note_on,0,0,3,,,,,,,,,2,,,55,0
58020,note_on,0,0,3,,,,,,,,,2,,,47,75
58020,note_on,0,0,3,,,,,,,,,2,,,56,75
58020,note_on,0,0,3,,,,,,,,,2,,,59,75
58020,note_on,0,0,2,,,,,,,,,1,,,64,75
58020,note_on,180,0,2,,,,,,,,,1,,,63,0
58020,note_on,0,0,3,,,,,,,,,2,,,47,0
58020,note_on,180,0,3,,,,,,,,,2,,,59,0
58020,note_on,60,0,1,,,,,,,,,0,,,70,0
58020,control_change,0,0,1,,,,,,,,,0,64,127,,
58020,note_on,0,0,1,,,,,,,,,0,,,68,88
58080,note_on,60,0,1,,,,,,,,,0,,,68,0
58080,note_on,0,0,1,,,,,,,,,0,,,73,88
58140,note_on,0,0,3,,,,,,,,,2,,,54,75
58140,note_on,120,0,3,,,,,,,,,2,,,59,0
58140,note_on,0,0,2,,,,,,,,,1,,,64,75
58140,note_on,0,0,3,,,,,,,,,2,,,56,0
58140,note_on,0,0,3,,,,,,,,,2,,,47,75
58140,note_on,0,0,1,,,,,,,,,0,,,70,88
58140,note_on,120,0,2,,,,,,,,,1,,,64,0
58140,control_change,0,0,1,,,,,,,,,0,64,0,,
58140,note_on,60,0,1,,,,,,,,,0,,,73,0
58140,note_on,0,0,3,,,,,,,,,2,,,47,0
58140,note_on,0,0,3,,,,,,,,,2,,,61,75
58146,note_on,0,0,3,,,,,,,,,2,,,47,0
58146,note_on,0,0,3,,,,,,,,,2,,,54,0
58146,note_on,6,0,2,,,,,,,,,1,,,64,0
58146,note_on,6,0,1,,,,,,,,,0,,,70,0
58146,note_on,6,0,3,,,,,,,,,2,,,61,0
58200,note_on,54,0,2,,,,,,,,,1,,,63,75
58200,note_on,0,0,3,,,,,,,,,2,,,59,75
58200,note_on,0,0,3,,,,,,,,,2,,,54,75
58200,note_on,54,0,1,,,,,,,,,0,,,71,88
58200,note_on,54,0,3,,,,,,,,,2,,,47,75
58320,note_on,0,0,1,,,,,,,,,0,,,73,88
58320,note_on,120,0,1,,,,,,,,,0,,,71,0
58320,note_on,0,0,2,,,,,,,,,1,,,66,75
58320,note_on,120,0,3,,,,,,,,,2,,,59,0
58320,note_on,0,0,3,,,,,,,,,2,,,54,0
58320,note_on,120,0,2,,,,,,,,,1,,,63,0
58320,note_on,0,0,3,,,,,,,,,2,,,58,75
58320,note_on,0,0,3,,,,,,,,,2,,,54,75
58320,note_on,0,0,3,,,,,,,,,2,,,47,0
58326,note_on,0,0,3,,,,,,,,,2,,,54,0
58326,note_on,6,0,3,,,,,,,,,2,,,58,0
58326,note_on,6,0,2,,,,,,,,,1,,,66,0
58326,note_on,6,0,1,,,,,,,,,0,,,73,0
58380,note_on,0,0,3,,,,,,,,,2,,,59,75
58380,note_on,54,0,3,,,,,,,,,2,,,54,75
58380,note_on,54,0,2,,,,,,,,,1,,,66,75
58380,note_on,0,0,1,,,,,,,,,0,,,75,88
58380,control_change,54,0,1,,,,,,,,,0,64,127,,
58440,note_on,0,0,1,,,,,,,,,0,,,80,88
58440,note_on,60,0,1,,,,,,,,,0,,,75,0
58500,control_change,0,0,1,,,,,,,,,0,64,0,,
58500,note_on,60,0,1,,,,,,,,,0,,,80,0
58500,note_on,0,0,1,,,,,,,,,0,,,77,88
58500,note_on,0,0,2,,,,,,,,,1,,,71,75
58500,note_on,120,0,2,,,,,,,,,1,,,66,0
58500,note_on,120,0,3,,,,,,,,,2,,,59,0
58500,note_on,0,0,3,,,,,,,,,2,,,54,0
58500,note_on,0,0,3,,,,,,,,,2,,,54,75
58500,note_on,0,0,3,,,,,,,,,2,,,61,75
58506,note_on,0,0,3,,,,,,,,,2,,,54,0
58506,note_on,6,0,3,,,,,,,,,2,,,61,0
58506,note_on,6,0,2,,,,,,,,,1,,,71,0
58506,note_on,6,0,1,,,,,,,,,0,,,77,0
58560,note_on,54,0,2,,,,,,,,,1,,,70,75
58560,note_on,0,0,3,,,,,,,,,2,,,61,75
58560,note_on,54,0,3,,,,,,,,,2,,,54,75
58560,control_change,54,0,1,,,,,,,,,0,64,127,,
58560,note_on,0,0,1,,,,,,,,,0,,,78,88
58680,note_on,0,0,3,,,,,,,,,2,,,54,0
58680,note_on,120,0,3,,,,,,,,,2,,,61,0
58680,note_on,120,0,2,,,,,,,,,1,,,70,0
58680,note_on,120,0,1,,,,,,,,,0,,,78,0
58680,note_on,0,0,1,,,,,,,,,0,,,73,88
58710,note_on,0,0,1,,,,,,,,,0,,,75,88
58710,control_change,0,0,1,,,,,,,,,0,64,0,,
58710,note_on,30,0,1,,,,,,,,,0,,,73,0
58740,note_on,0,0,1,,,,,,,,,0,,,76,114
58740,note_on,0,0,1,,,,,,,,,0,,,68,109
58740,note_on,30,0,1,,,,,,,,,0,,,75,0
58740,note_on,60,0,3,,,,,,,,,2,,,49,91
58740,note_on,0,0,3,,,,,,,,,2,,,56,96
58740,note_on,0,0,3,,,,,,,,,2,,,61,101
58740,note_on,0,0,1,,,,,,,,,0,,,64,104
58860,note_on,0,0,3,,,,,,,,,2,,,49,0
58860,note_on,120,0,1,,,,,,,,,0,,,76,0
58860,note_on,0,0,3,,,,,,,,,2,,,51,75
58860,note_on,0,0,3,,,,,,,,,2,,,56,75
58860,note_on,0,0,3,,,,,,,,,2,,,60,75
58860,note_on,0,0,3,,,,,,,,,2,,,56,0
58860,note_on,120,0,3,,,,,,,,,2,,,61,0
58860,note_on,0,0,1,,,,,,,,,0,,,68,88
58860,note_on,0,0,1,,,,,,,,,0,,,66,88
58860,note_on,0,0,1,,,,,,,,,0,,,64,0
58860,note_on,0,0,1,,,,,,,,,0,,,68,0
58860,note_on,0,0,1,,,,,,,,,0,,,75,88
58920,note_on,0,0,3,,,,,,,,,2,,,56,96
58920,note_on,0,0,3,,,,,,,,,2,,,52,91
58920,note_on,0,0,3,,,,,,,,,2,,,51,0
58920,note_on,0,0,3,,,,,,,,,2,,,56,0
58920,note_on,60,0,3,,,,,,,,,2,,,60,0
58920,note_on,0,0,3,,,,,,,,,2,,,61,101
58920,note_on,0,0,1,,,,,,,,,0,,,73,114
58920,note_on,0,0,1,,,,,,,,,0,,,68,109
58920,note_on,0,0,1,,,,,,,,,0,,,64,104
58920,note_on,0,0,1,,,,,,,,,0,,,66,0
58920,note_on,0,0,1,,,,,,,,,0,,,68,0
58920,note_on,60,0,1,,,,,,,,,0,,,75,0
59040,note_on,0,0,1,,,,,,,,,0,,,68,88
59040,note_on,0,0,1,,,,,,,,,0,,,63,88
59040,note_on,0,0,1,,,,,,,,,0,,,68,0
59040,note_on,120,0,1,,,,,,,,,0,,,73,0
59040,note_on,0,0,3,,,,,,,,,2,,,56,75
59040,note_on,120,0,3,,,,,,,,,2,,,61,0
59040,note_on,0,0,3,,,,,,,,,2,,,56,0
59040,note_on,0,0,3,,,,,,,,,2,,,52,0
59040,note_on,0,0,3,,,,,,,,,2,,,53,75
59040,note_on,0,0,1,,,,,,,,,0,,,71,88
59040,note_on,0,0,3,,,,,,,,,2,,,59,75
59040,note_on,0,0,1,,,,,,,,,0,,,64,0
59100,note_on,0,0,3,,,,,,,,,2,,,54,75
59100,note_on,60,0,3,,,,,,,,,2,,,59,0
59100,note_on,0,0,3,,,,,,,,,2,,,56,0
59100,note_on,60,0,1,,,,,,,,,0,,,71,0
59100,note_on,0,0,1,,,,,,,,,0,,,68,0
59100,note_on,0,0,1,,,,,,,,,0,,,63,0
59100,note_on,0,0,1,,,,,,,,,0,,,71,88
59100,control_change,0,0,1,,,,,,,,,0,64,127,,
59100,note_on,0,0,3,,,,,,,,,2,,,53,0
59100,note_on,420,0,2,,,,,,,,,1,,,63,75
59160,note_on,60,0,1,,,,,,,,,0,,,71,0
59160,note_on,0,0,1,,,,,,,,,0,,,75,88
59220,note_on,60,0,1,,,,,,,,,0,,,75,0
59220,control_change,0,0,1,,,,,,,,,0,64,0,,
59220,note_on,0,0,1,,,,,,,,,0,,,73,88
59220,note_on,120,0,2,,,,,,,,,1,,,63,0
59220,note_on,0,0,2,,,,,,,,,1,,,64,75
59220,note_on,120,0,3,,,,,,,,,2,,,54,0
59220,note_on,0,0,3,,,,,,,,,2,,,54,75
59220,note_on,0,0,3,,,,,,,,,2,,,58,75
59226,note_on,6,0,2,,,,,,,,,1,,,64,0
59226,note_on,6,0,3,,,,,,,,,2,,,58,0
59226,note_on,0,0,3,,,,,,,,,2,,,54,0
59226,note_on,6,0,1,,,,,,,,,0,,,73,0
59280,note_on,0,0,1,,,,,,,,,0,,,71,88
59280,note_on,54,0,1,,,,,,,,,0,,,63,88
59280,note_on,54,0,3,,,,,,,,,2,,,47,75
59280,note_on,0,0,3,,,,,,,,,2,,,59,75
59400,note_on,0,0,1,,,,,,,,,0,,,75,88
59400,note_on,0,0,1,,,,,,,,,0,,,63,0
59400,note_on,120,0,1,,,,,,,,,0,,,71,0
59400,note_on,120,0,3,,,,,,,,,2,,,59,0
59400,note_on,0,0,3,,,,,,,,,2,,,47,0
59400,note_on,0,0,3,,,,,,,,,2,,,63,75
59430,note_on,30,0,1,,,,,,,,,0,,,75,0
59430,note_on,0,0,1,,,,,,,,,0,,,76,88
59430,note_on,0,0,3,,,,,,,,,2,,,64,75
59430,note_on,30,0,3,,,,,,,,,2,,,63,0
59460,note_on,30,0,3,,,,,,,,,2,,,64,0
59460,note_on,30,0,1,,,,,,,,,0,,,76,0
59460,control_change,0,0,1,,,,,,,,,0,64,127,,
59460,note_on,0,0,1,,,,,,,,,0,,,66,106
59460,note_on,0,0,1,,,,,,,,,0,,,78,114
59760,control_change,300,0,3,,,,,,,,,2,64,127,,
59760,note_on,0,0,3,,,,,,,,,2,,,47,49
59790,note_on,30,0,3,,,,,,,,,2,,,47,0
59790,note_on,0,0,3,,,,,,,,,2,,,49,49
59820,control_change,360,0,1,,,,,,,,,0,64,0,,
59820,note_on,0,0,3,,,,,,,,,2,,,50,88
59820,note_on,30,0,3,,,,,,,,,2,,,49,0
59880,note_on,60,0,3,,,,,,,,,2,,,50,0
59880,control_change,0,0,3,,,,,,,,,2,64,0,,
59940,note_on,0,0,3,,,,,,,,,2,,,57,49
59940,note_on,0,0,3,,,,,,,,,2,,,62,49
59940,note_on,60,0,3,,,,,,,,,2,,,54,49
59946,note_on,6,0,3,,,,,,,,,2,,,62,0
59946,note_on,0,0,3,,,,,,,,,2,,,57,0
59946,note_on,0,0,3,,,,,,,,,2,,,54,0
60000,control_change,54,0,3,,,,,,,,,2,64,127,,
60000,note_on,180,0,1,,,,,,,,,0,,,78,0
60000,note_on,0,0,1,,,,,,,,,0,,,66,0
60000,note_on,0,0,1,,,,,,,,,0,,,64,49
60000,note_on,0,0,3,,,,,,,,,2,,,45,36
60000,note_on,0,0,1,,,,,,,,,0,,,76,49
60000,control_change,0,0,1,,,,,,,,,0,64,127,,
60006,note_on,6,0,3,,,,,,,,,2,,,45,0
60006,note_on,6,0,1,,,,,,,,,0,,,76,0
60006,note_on,0,0,1,,,,,,,,,0,,,64,0
60060,note_on,54,0,1,,,,,,,,,0,,,66,49
60060,note_on,0,0,1,,,,,,,,,0,,,78,49
60066,note_on,6,0,1,,,,,,,,,0,,,78,0
60066,note_on,0,0,1,,,,,,,,,0,,,66,0
60120,note_on,0,0,3,,,,,,,,,2,,,61,36
60120,note_on,0,0,1,,,,,,,,,0,,,79,49
60120,control_change,114,0,3,,,,,,,,,2,64,0,,
60120,note_on,0,0,3,,,,,,,,,2,,,52,36
60120,note_on,0,0,3,,,,,,,,,2,,,57,36
60120,note_on,54,0,1,,,,,,,,,0,,,67,49
60126,note_on,6,0,1,,,,,,,,,0,,,79,0
60126,note_on,0,0,1,,,,,,,,,0,,,67,0
60126,note_on,6,0,3,,,,,,,,,2,,,61,0
60126,note_on,0,0,3,,,,,,,,,2,,,57,0
60126,note_on,0,0,3,,,,,,,,,2,,,52,0
60180,note_on,0,0,1,,,,,,,,,0,,,81,49
60180,control_change,54,0,3,,,,,,,,,2,64,127,,
60180,note_on,0,0,3,,,,,,,,,2,,,50,36
60180,note_on,0,0,1,,,,,,,,,0,,,69,49
60180,control_change,54,0,1,,,,,,,,,0,64,0,,
60186,note_on,6,0,3,,,,,,,,,2,,,50,0
60300,control_change,114,0,3,,,,,,,,,2,64,0,,
60300,note_on,0,0,3,,,,,,,,,2,,,54,36
60300,note_on,0,0,3,,,,,,,,,2,,,57,36
60300,note_on,0,0,3,,,,,,,,,2,,,62,36
60306,note_on,0,0,3,,,,,,,,,2,,,54,0
60306,note_on,0,0,3,,,,,,,,,2,,,57,0
60306,note_on,6,0,3,,,,,,,,,2,,,62,0
60360,note_on,0,0,1,,,,,,,,,0,,,69,0
60360,note_on,0,0,1,,,,,,,,,0,,,71,49
60360,note_on,0,0,1,,,,,,,,,0,,,83,49
60360,control_change,0,0,1,,,,,,,,,0,64,127,,
60360,note_on,180,0,1,,,,,,,,,0,,,81,0
60360,note_on,0,0,3,,,,,,,,,2,,,50,36
60360,control_change,54,0,3,,,,,,,,,2,64,127,,
60366,note_on,6,0,3,,,,,,,,,2,,,50,0
60366,note_on,0,0,1,,,,,,,,,0,,,71,0
60366,note_on,6,0,1,,,,,,,,,0,,,83,0
60420,note_on,54,0,1,,,,,,,,,0,,,69,49
60420,note_on,0,0,1,,,,,,,,,0,,,81,49
60426,note_on,6,0,1,,,,,,,,,0,,,81,0
60426,note_on,0,0,1,,,,,,,,,0,,,69,0
60480,note_on,0,0,3,,,,,,,,,2,,,53,36
60480,note_on,0,0,3,,,,,,,,,2,,,56,36
60480,note_on,0,0,3,,,,,,,,,2,,,62,36
60480,control_change,114,0,3,,,,,,,,,2,64,0,,
60480,note_on,0,0,1,,,,,,,,,0,,,80,49
60480,note_on,54,0,1,,,,,,,,,0,,,68,49
60486,note_on,0,0,1,,,,,,,,,0,,,68,0
60486,note_on,0,0,3,,,,,,,,,2,,,53,0
60486,note_on,0,0,3,,,,,,,,,2,,,56,0
60486,note_on,6,0,3,,,,,,,,,2,,,62,0
60486,note_on,6,0,1,,,,,,,,,0,,,80,0
60540,control_change,54,0,1,,,,,,,,,0,64,0,,
60540,note_on,0,0,3,,,,,,,,,2,,,50,36
60540,control_change,54,0,3,,,,,,,,,2,64,127,,
60540,note_on,0,0,1,,,,,,,,,0,,,81,49
60540,note_on,0,0,1,,,,,,,,,0,,,69,49
60546,note_on,6,0,3,,,,,,,,,2,,,50,0
60660,note_on,0,0,3,,,,,,,,,2,,,62,36
60660,note_on,0,0,3,,,,,,,,,2,,,57,36
60660,control_change,114,0,3,,,,,,,,,2,64,0,,
60660,note_on,0,0,3,,,,,,,,,2,,,54,36
60666,note_on,0,0,3,,,,,,,,,2,,,57,0
60666,note_on,0,0,3,,,,,,,,,2,,,54,0
60666,note_on,6,0,3,,,,,,,,,2,,,62,0
60720,note_on,0,0,1,,,,,,,,,0,,,69,0
60720,control_change,0,0,1,,,,,,,,,0,64,127,,
60720,note_on,0,0,1,,,,,,,,,0,,,79,49
60720,note_on,0,0,1,,,,,,,,,0,,,67,49
60720,note_on,180,0,1,,,,,,,,,0,,,81,0
60720,control_change,54,0,3,,,,,,,,,2,64,127,,
60720,note_on,0,0,3,,,,,,,,,2,,,45,36
60726,note_on,0,0,1,,,,,,,,,0,,,67,0
60726,note_on,6,0,3,,,,,,,,,2,,,45,0
60726,note_on,6,0,1,,,,,,,,,0,,,79,0
60780,note_on,0,0,1,,,,,,,,,0,,,78,49
60780,note_on,54,0,1,,,,,,,,,0,,,66,49
60786,note_on,0,0,1,,,,,,,,,0,,,66,0
60786,note_on,6,0,1,,,,,,,,,0,,,78,0
60840,note_on,0,0,3,,,,,,,,,2,,,55,36
60840,note_on,0,0,3,,,,,,,,,2,,,57,36
60840,note_on,0,0,3,,,,,,,,,2,,,61,36
60840,note_on,0,0,1,,,,,,,,,0,,,76,49
60840,note_on,54,0,1,,,,,,,,,0,,,64,49
60840,control_change,114,0,3,,,,,,,,,2,64,0,,
60846,note_on,6,0,3,,,,,,,,,2,,,61,0
60846,note_on,0,0,3,,,,,,,,,2,,,57,0
60846,note_on,0,0,3,,,,,,,,,2,,,55,0
60846,note_on,6,0,1,,,,,,,,,0,,,76,0
60846,note_on,0,0,1,,,,,,,,,0,,,64,0
60900,control_change,54,0,3,,,,,,,,,2,64,127,,
60900,control_change,54,0,1,,,,,,,,,0,64,127,,
60900,note_on,0,0,1,,,,,,,,,0,,,62,49
60900,note_on,0,0,1,,,,,,,,,0,,,74,49
60900,note_on,0,0,3,,,,,,,,,2,,,50,36
60900,control_change,0,0,1,,,,,,,,,0,64,0,,
60906,note_on,6,0,3,,,,,,,,,2,,,50,0
61020,note_on,114,0,3,,,,,,,,,2,,,54,36
61020,note_on,0,0,3,,,,,,,,,2,,,57,36
61026,note_on,6,0,3,,,,,,,,,2,,,57,0
61026,note_on,0,0,3,,,,,,,,,2,,,54,0
61080,control_change,54,0,3,,,,,,,,,2,64,0,,
61080,note_on,0,0,3,,,,,,,,,2,,,50,36
61086,note_on,6,0,3,,,,,,,,,2,,,50,0
61140,control_change,0,0,1,,,,,,,,,0,64,0,,
61140,note_on,0,0,1,,,,,,,,,0,,,71,49
61140,note_on,0,0,1,,,,,,,,,0,,,59,49
61140,note_on,0,0,1,,,,,,,,,0,,,62,0
61140,note_on,240,0,1,,,,,,,,,0,,,74,0
61146,note_on,0,0,1,,,,,,,,,0,,,59,0
61146,note_on,6,0,1,,,,,,,,,0,,,71,0
61200,note_on,0,0,1,,,,,,,,,0,,,73,49
61200,note_on,54,0,1,,,,,,,,,0,,,61,49
61206,note_on,0,0,1,,,,,,,,,0,,,61,0
61206,note_on,6,0,1,,,,,,,,,0,,,73,0
61260,note_on,0,0,1,,,,,,,,,0,,,74,49
61260,note_on,0,0,1,,,,,,,,,0,,,62,49
61260,control_change,54,0,1,,,,,,,,,0,64,127,,
61260,control_change,174,0,3,,,,,,,,,2,64,127,,
61260,note_on,0,0,3,,,,,,,,,2,,,47,36
61266,note_on,6,0,3,,,,,,,,,2,,,47,0
61380,note_on,0,0,3,,,,,,,,,2,,,59,36
61380,note_on,114,0,3,,,,,,,,,2,,,54,36
61386,note_on,6,0,3,,,,,,,,,2,,,59,0
61386,note_on,0,0,3,,,,,,,,,2,,,54,0
61440,note_on,54,0,3,,,,,,,,,2,,,47,36
61500,note_on,60,0,3,,,,,,,,,2,,,47,0
61500,control_change,0,0,3,,,,,,,,,2,64,0,,
61500,note_on,240,0,1,,,,,,,,,0,,,74,0
61500,note_on,0,0,1,,,,,,,,,0,,,62,0
61500,note_on,0,0,1,,,,,,,,,0,,,59,49
61500,note_on,0,0,1,,,,,,,,,0,,,71,49
61506,note_on,6,0,1,,,,,,,,,0,,,71,0
61506,note_on,0,0,1,,,,,,,,,0,,,59,0
61560,note_on,0,0,1,,,,,,,,,0,,,73,49
61560,note_on,0,0,1,,,,,,,,,0,,,61,49
61560,control_change,54,0,1,,,,,,,,,0,64,0,,
61566,note_on,6,0,1,,,,,,,,,0,,,73,0
61566,note_on,0,0,1,,,,,,,,,0,,,61,0
61620,note_on,0,0,3,,,,,,,,,2,,,43,36
61620,control_change,120,0,3,,,,,,,,,2,64,127,,
61620,note_on,0,0,1,,,,,,,,,0,,,74,49
61620,note_on,54,0,1,,,,,,,,,0,,,62,49
61626,note_on,6,0,3,,,,,,,,,2,,,43,0
61740,note_on,0,0,3,,,,,,,,,2,,,59,36
61740,note_on,0,0,3,,,,,,,,,2,,,55,36
61740,note_on,0,0,3,,,,,,,,,2,,,50,36
61740,control_change,114,0,3,,,,,,,,,2,64,0,,
61746,note_on,0,0,3,,,,,,,,,2,,,55,0
61746,note_on,0,0,3,,,,,,,,,2,,,50,0
61746,note_on,6,0,3,,,,,,,,,2,,,59,0
61800,note_on,0,0,1,,,,,,,,,0,,,64,49
61800,note_on,180,0,1,,,,,,,,,0,,,74,0
61800,note_on,0,0,1,,,,,,,,,0,,,62,0
61800,note_on,0,0,1,,,,,,,,,0,,,76,49
61800,control_change,0,0,1,,,,,,,,,0,64,127,,
61800,control_change,54,0,3,,,,,,,,,2,64,127,,
61800,note_on,0,0,3,,,,,,,,,2,,,43,36
61806,note_on,6,0,3,,,,,,,,,2,,,43,0
61806,note_on,6,0,1,,,,,,,,,0,,,76,0
61806,note_on,0,0,1,,,,,,,,,0,,,64,0
61860,note_on,0,0,1,,,,,,,,,0,,,74,49
61860,note_on,54,0,1,,,,,,,,,0,,,62,49
61866,note_on,0,0,1,,,,,,,,,0,,,62,0
61866,note_on,6,0,1,,,,,,,,,0,,,74,0
61920,control_change,114,0,3,,,,,,,,,2,64,0,,
61920,note_on,0,0,3,,,,,,,,,2,,,52,36
61920,note_on,0,0,3,,,,,,,,,2,,,55,36
61920,note_on,54,0,1,,,,,,,,,0,,,61,49
61920,note_on,0,0,3,,,,,,,,,2,,,58,36
61920,note_on,0,0,1,,,,,,,,,0,,,73,49
61926,note_on,6,0,3,,,,,,,,,2,,,58,0
61926,note_on,0,0,3,,,,,,,,,2,,,55,0
61926,note_on,0,0,3,,,,,,,,,2,,,52,0
61926,note_on,0,0,1,,,,,,,,,0,,,61,0
61926,note_on,6,0,1,,,,,,,,,0,,,73,0
61980,control_change,54,0,1,,,,,,,,,0,64,0,,
61980,note_on,0,0,1,,,,,,,,,0,,,62,49
61980,control_change,54,0,3,,,,,,,,,2,64,127,,
61980,note_on,0,0,3,,,,,,,,,2,,,43,36
61980,note_on,0,0,1,,,,,,,,,0,,,74,49
61986,note_on,6,0,3,,,,,,,,,2,,,43,0
62100,control_change,114,0,3,,,,,,,,,2,64,0,,
62100,note_on,0,0,3,,,,,,,,,2,,,50,36
62100,note_on,0,0,3,,,,,,,,,2,,,55,36
62100,note_on,0,0,3,,,,,,,,,2,,,59,36
62106,note_on,0,0,3,,,,,,,,,2,,,55,0
62106,note_on,0,0,3,,,,,,,,,2,,,50,0
62106,note_on,6,0,3,,,,,,,,,2,,,59,0
62160,control_change,54,0,3,,,,,,,,,2,64,127,,
62160,note_on,0,0,3,,,,,,,,,2,,,43,49
62160,control_change,0,0,1,,,,,,,,,0,64,127,,
62160,note_on,0,0,1,,,,,,,,,0,,,79,62
62160,note_on,0,0,1,,,,,,,,,0,,,67,62
62160,note_on,0,0,1,,,,,,,,,0,,,62,0
62160,note_on,180,0,1,,,,,,,,,0,,,74,0
62166,note_on,0,0,1,,,,,,,,,0,,,67,0
62166,note_on,6,0,1,,,,,,,,,0,,,79,0
62166,note_on,6,0,3,,,,,,,,,2,,,43,0
62220,note_on,0,0,1,,,,,,,,,0,,,79,62
62220,note_on,54,0,1,,,,,,,,,0,,,67,62
62226,note_on,6,0,1,,,,,,,,,0,,,79,0
62226,note_on,0,0,1,,,,,,,,,0,,,67,0
62280,note_on,0,0,1,,,,,,,,,0,,,81,62
62280,note_on,54,0,1,,,,,,,,,0,,,69,62
62280,note_on,0,0,3,,,,,,,,,2,,,59,49
62280,note_on,0,0,3,,,,,,,,,2,,,55,49
62280,note_on,0,0,3,,,,,,,,,2,,,50,49
62280,control_change,114,0,3,,,,,,,,,2,64,0,,
62286,note_on,6,0,3,,,,,,,,,2,,,59,0
62286,note_on,0,0,1,,,,,,,,,0,,,69,0
62286,note_on,6,0,1,,,,,,,,,0,,,81,0
62286,note_on,0,0,3,,,,,,,,,2,,,50,0
62286,note_on,0,0,3,,,,,,,,,2,,,55,0
62340,note_on,0,0,1,,,,,,,,,0,,,71,62
62340,control_change,54,0,1,,,,,,,,,0,64,0,,
62340,note_on,0,0,1,,,,,,,,,0,,,83,62
62340,control_change,54,0,3,,,,,,,,,2,64,127,,
62340,note_on,0,0,3,,,,,,,,,2,,,43,49
62346,note_on,6,0,3,,,,,,,,,2,,,43,0
62460,note_on,0,0,3,,,,,,,,,2,,,55,49
62460,control_change,114,0,3,,,,,,,,,2,64,0,,
62460,note_on,0,0,3,,,,,,,,,2,,,50,49
62460,note_on,0,0,3,,,,,,,,,2,,,59,49
62466,note_on,6,0,3,,,,,,,,,2,,,59,0
62466,note_on,0,0,3,,,,,,,,,2,,,55,0
62466,note_on,0,0,3,,,,,,,,,2,,,50,0
62520,control_change,0,0,1,,,,,,,,,0,64,127,,
62520,note_on,0,0,1,,,,,,,,,0,,,84,75
62520,note_on,0,0,1,,,,,,,,,0,,,72,75
62520,note_on,0,0,1,,,,,,,,,0,,,71,0
62520,note_on,180,0,1,,,,,,,,,0,,,83,0
62520,control_change,54,0,3,,,,,,,,,2,64,127,,
62520,note_on,0,0,3,,,,,,,,,2,,,38,62
62526,note_on,0,0,1,,,,,,,,,0,,,72,0
62526,note_on,6,0,1,,,,,,,,,0,,,84,0
62526,note_on,6,0,3,,,,,,,,,2,,,38,0
62580,note_on,54,0,1,,,,,,,,,0,,,71,75
62580,note_on,0,0,1,,,,,,,,,0,,,83,75
62586,note_on,0,0,1,,,,,,,,,0,,,71,0
62586,note_on,6,0,1,,,,,,,,,0,,,83,0
62640,note_on,0,0,1,,,,,,,,,0,,,81,75
62640,note_on,0,0,1,,,,,,,,,0,,,69,75
62640,control_change,54,0,1,,,,,,,,,0,64,0,,
62640,note_on,0,0,3,,,,,,,,,2,,,54,62
62640,control_change,114,0,3,,,,,,,,,2,64,0,,
62640,note_on,0,0,3,,,,,,,,,2,,,50,62
62640,note_on,0,0,3,,,,,,,,,2,,,60,62
62646,note_on,0,0,1,,,,,,,,,0,,,69,0
62646,note_on,6,0,3,,,,,,,,,2,,,60,0
62646,note_on,6,0,1,,,,,,,,,0,,,81,0
62646,note_on,0,0,3,,,,,,,,,2,,,54,0
62646,note_on,0,0,3,,,,,,,,,2,,,50,0
62700,note_on,0,0,1,,,,,,,,,0,,,79,75
62700,note_on,0,0,1,,,,,,,,,0,,,67,75
62700,control_change,54,0,1,,,,,,,,,0,64,127,,
62700,note_on,0,0,3,,,,,,,,,2,,,43,62
62700,control_change,54,0,3,,,,,,,,,2,64,127,,
62706,note_on,6,0,3,,,,,,,,,2,,,43,0
62820,control_change,114,0,3,,,,,,,,,2,64,0,,
62820,note_on,0,0,3,,,,,,,,,2,,,50,62
62820,note_on,0,0,3,,,,,,,,,2,,,55,62
62820,note_on,0,0,3,,,,,,,,,2,,,59,62
62826,note_on,6,0,3,,,,,,,,,2,,,59,0
62826,note_on,0,0,3,,,,,,,,,2,,,55,0
62826,note_on,0,0,3,,,,,,,,,2,,,50,0
62880,control_change,180,0,1,,,,,,,,,0,64,0,,
62880,note_on,54,0,3,,,,,,,,,2,,,43,62
62886,note_on,6,0,3,,,,,,,,,2,,,43,0
62940,note_on,0,0,1,,,,,,,,,0,,,64,75
62940,note_on,0,0,1,,,,,,,,,0,,,76,75
62940,note_on,0,0,1,,,,,,,,,0,,,67,0
62940,note_on,60,0,1,,,,,,,,,0,,,79,0
62946,note_on,0,0,1,,,,,,,,,0,,,64,0
62946,note_on,6,0,1,,,,,,,,,0,,,76,0
63000,note_on,54,0,1,,,,,,,,,0,,,66,75
63000,note_on,0,0,1,,,,,,,,,0,,,78,75
63006,note_on,6,0,1,,,,,,,,,0,,,78,0
63006,note_on,0,0,1,,,,,,,,,0,,,66,0
63060,control_change,54,0,1,,,,,,,,,0,64,127,,
63060,note_on,0,0,1,,,,,,,,,0,,,79,36
63060,note_on,0,0,1,,,,,,,,,0,,,67,36
63060,control_change,174,0,3,,,,,,,,,2,64,127,,
63060,note_on,0,0,3,,,,,,,,,2,,,52,36
63066,note_on,6,0,3,,,,,,,,,2,,,52,0
63180,note_on,114,0,3,,,,,,,,,2,,,59,36
63180,note_on,0,0,3,,,,,,,,,2,,,64,36
63186,note_on,0,0,3,,,,,,,,,2,,,59,0
63186,note_on,6,0,3,,,,,,,,,2,,,64,0
63240,note_on,54,0,3,,,,,,,,,2,,,52,36
63300,set_tempo,6060,1,0,,,,,,444444,,,,,,,
63300,note_on,0,0,1,,,,,,,,,0,,,76,36
63300,note_on,0,0,1,,,,,,,,,0,,,67,0
63300,note_on,240,0,1,,,,,,,,,0,,,79,0
63300,note_on,60,0,3,,,,,,,,,2,,,52,0
63306,note_on,6,0,1,,,,,,,,,0,,,76,0
63360,note_on,54,0,1,,,,,,,,,0,,,78,36
63360,set_tempo,60,1,0,,,,,,454545,,,,,,,
63366,note_on,6,0,1,,,,,,,,,0,,,78,0
63420,set_tempo,60,1,0,,,,,,465116,,,,,,,
63420,note_on,0,0,3,,,,,,,,,2,,,64,36
63420,note_on,54,0,1,,,,,,,,,0,,,79,36
63420,note_on,0,0,3,,,,,,,,,2,,,59,36
63420,note_on,120,0,3,,,,,,,,,2,,,52,36
63426,note_on,6,0,3,,,,,,,,,2,,,64,0
63426,note_on,0,0,3,,,,,,,,,2,,,59,0
63426,note_on,0,0,3,,,,,,,,,2,,,52,0
63426,note_on,6,0,1,,,,,,,,,0,,,79,0
63480,note_on,54,0,1,,,,,,,,,0,,,76,36
63480,set_tempo,60,1,0,,,,,,480000,,,,,,,
63486,note_on,6,0,1,,,,,,,,,0,,,76,0
63540,note_on,54,0,1,,,,,,,,,0,,,78,36
63540,set_tempo,60,1,0,,,,,,491803,,,,,,,
63546,note_on,6,0,1,,,,,,,,,0,,,78,0
63600,note_on,54,0,1,,,,,,,,,0,,,79,36
63600,note_on,174,0,3,,,,,,,,,2,,,52,36
63600,note_on,0,0,3,,,,,,,,,2,,,59,36
63600,note_on,0,0,3,,,,,,,,,2,,,64,36
63600,set_tempo,60,1,0,,,,,,504202,,,,,,,
63606,note_on,0,0,3,,,,,,,,,2,,,59,0
63606,note_on,6,0,1,,,,,,,,,0,,,79,0
63606,note_on,6,0,3,,,,,,,,,2,,,64,0
63606,note_on,0,0,3,,,,,,,,,2,,,52,0
63660,set_tempo,60,1,0,,,,,,517241,,,,,,,
63660,note_on,54,0,1,,,,,,,,,0,,,76,36
63666,note_on,6,0,1,,,,,,,,,0,,,76,0
63720,set_tempo,60,1,0,,,,,,535714,,,,,,,
63720,note_on,54,0,1,,,,,,,,,0,,,78,36
63726,note_on,6,0,1,,,,,,,,,0,,,78,0
63780,note_on,174,0,3,,,,,,,,,2,,,52,36
63780,note_on,0,0,3,,,,,,,,,2,,,64,36
63780,note_on,0,0,3,,,,,,,,,2,,,59,36
63780,note_on,54,0,1,,,,,,,,,0,,,79,36
63786,note_on,0,0,3,,,,,,,,,2,,,52,0
63786,note_on,0,0,3,,,,,,,,,2,,,59,0
63786,note_on,6,0,1,,,,,,,,,0,,,79,0
63786,note_on,6,0,3,,,,,,,,,2,,,64,0
63840,note_on,54,0,1,,,,,,,,,0,,,76,36
63840,control_change,54,0,3,,,,,,,,,2,64,0,,
63846,note_on,6,0,1,,,,,,,,,0,,,76,0
63900,note_on,54,0,1,,,,,,,,,0,,,78,36
63906,note_on,6,0,1,,,,,,,,,0,,,78,0
63960,note_on,0,0,1,,,,,,,,,0,,,79,36
63960,control_change,54,0,1,,,,,,,,,0,64,0,,
64020,note_on,60,0,1,,,,,,,,,0,,,79,0
64080,set_tempo,360,1,0,,,,,,434783,,,,,,,
64080,note_on,60,0,1,,,,,,,,,0,,,76,36
64110,note_on,30,0,1,,,,,,,,,0,,,76,0
64110,note_on,0,0,1,,,,,,,,,0,,,78,36
64140,note_on,4914,0,2,,,,,,,,,1,,,68,101
64140,note_on,0,0,3,,,,,,,,,2,,,64,101
64140,note_on,30,0,1,,,,,,,,,0,,,78,0
64140,note_on,0,0,1,,,,,,,,,0,,,80,114
64140,note_on,0,0,3,,,,,,,,,2,,,59,96
64140,note_on,300,0,3,,,,,,,,,2,,,52,91
64260,note_on,0,0,1,,,,,,,,,0,,,78,88
64260,note_on,120,0,1,,,,,,,,,0,,,80,0
64320,note_on,180,0,3,,,,,,,,,2,,,64,0
64320,note_on,0,0,3,,,,,,,,,2,,,59,0
64320,note_on,0,0,3,,,,,,,,,2,,,52,0
64320,note_on,0,0,3,,,,,,,,,2,,,52,91
64320,note_on,0,0,3,,,,,,,,,2,,,60,96
64320,note_on,0,0,3,,,,,,,,,2,,,64,101
64320,note_on,180,0,2,,,,,,,,,1,,,68,0
64320,note_on,0,0,1,,,,,,,,,0,,,76,114
64320,note_on,60,0,1,,,,,,,,,0,,,78,0
64320,note_on,0,0,2,,,,,,,,,1,,,68,101
64440,note_on,0,0,1,,,,,,,,,0,,,75,88
64440,note_on,120,0,1,,,,,,,,,0,,,76,0
64500,note_on,60,0,1,,,,,,,,,0,,,75,0
64500,note_on,0,0,2,,,,,,,,,1,,,69,101
64500,note_on,0,0,1,,,,,,,,,0,,,73,114
64500,note_on,180,0,3,,,,,,,,,2,,,64,0
64500,note_on,0,0,3,,,,,,,,,2,,,60,0
64500,note_on,0,0,3,,,,,,,,,2,,,52,0
64500,note_on,180,0,2,,,,,,,,,1,,,68,0
64500,note_on,0,0,3,,,,,,,,,2,,,61,96
64500,note_on,0,0,3,,,,,,,,,2,,,52,91
64500,control_change,0,0,1,,,,,,,,,0,64,127,,
64500,note_on,0,0,3,,,,,,,,,2,,,64,101
64560,note_on,0,0,1,,,,,,,,,0,,,78,88
64560,note_on,60,0,1,,,,,,,,,0,,,73,0
64620,note_on,0,0,3,,,,,,,,,2,,,61,0
64620,note_on,0,0,3,,,,,,,,,2,,,52,0
64620,note_on,0,0,3,,,,,,,,,2,,,52,75
64620,note_on,0,0,3,,,,,,,,,2,,,59,75
64620,note_on,120,0,2,,,,,,,,,1,,,69,0
64620,note_on,0,0,1,,,,,,,,,0,,,75,88
64620,control_change,0,0,1,,,,,,,,,0,64,0,,
64620,note_on,60,0,1,,,,,,,,,0,,,78,0
64620,note_on,0,0,3,,,,,,,,,2,,,66,75
64620,note_on,120,0,3,,,,,,,,,2,,,64,0
64620,note_on,0,0,2,,,,,,,,,1,,,69,75
64680,note_on,0,0,3,,,,,,,,,2,,,59,0
64680,note_on,0,0,3,,,,,,,,,2,,,52,75
64680,note_on,0,0,3,,,,,,,,,2,,,64,75
64680,note_on,0,0,3,,,,,,,,,2,,,59,75
64680,note_on,60,0,3,,,,,,,,,2,,,66,0
64680,note_on,0,0,2,,,,,,,,,1,,,68,75
64680,note_on,0,0,3,,,,,,,,,2,,,52,0
64680,note_on,60,0,2,,,,,,,,,1,,,69,0
64680,note_on,0,0,1,,,,,,,,,0,,,76,88
64680,note_on,60,0,1,,,,,,,,,0,,,75,0
64800,note_on,0,0,1,,,,,,,,,0,,,78,88
64800,note_on,120,0,1,,,,,,,,,0,,,76,0
64800,note_on,0,0,3,,,,,,,,,2,,,63,75
64800,note_on,0,0,3,,,,,,,,,2,,,59,75
64800,note_on,0,0,3,,,,,,,,,2,,,52,0
64800,note_on,0,0,3,,,,,,,,,2,,,59,0
64800,note_on,120,0,3,,,,,,,,,2,,,64,0
64800,note_on,120,0,2,,,,,,,,,1,,,68,0
64800,note_on,0,0,2,,,,,,,,,1,,,71,75
64806,note_on,6,0,3,,,,,,,,,2,,,63,0
64806,note_on,6,0,2,,,,,,,,,1,,,71,0
64806,note_on,0,0,3,,,,,,,,,2,,,59,0
64806,note_on,6,0,1,,,,,,,,,0,,,78,0
64860,note_on,0,0,1,,,,,,,,,0,,,80,88
64860,note_on,0,0,3,,,,,,,,,2,,,64,75
64860,note_on,54,0,3,,,,,,,,,2,,,59,75
64860,note_on,54,0,2,,,,,,,,,1,,,71,75
64860,control_change,54,0,1,,,,,,,,,0,64,127,,
64920,note_on,0,0,1,,,,,,,,,0,,,85,88
64920,note_on,60,0,1,,,,,,,,,0,,,80,0
64980,note_on,0,0,2,,,,,,,,,1,,,76,75
64980,note_on,120,0,2,,,,,,,,,1,,,71,0
64980,note_on,0,0,1,,,,,,,,,0,,,82,88
64980,control_change,0,0,1,,,,,,,,,0,64,0,,
64980,note_on,60,0,1,,,,,,,,,0,,,85,0
64980,note_on,0,0,3,,,,,,,,,2,,,66,75
64980,note_on,0,0,3,,,,,,,,,2,,,59,75
64980,note_on,0,0,3,,,,,,,,,2,,,59,0
64980,note_on,120,0,3,,,,,,,,,2,,,64,0
64986,note_on,6,0,1,,,,,,,,,0,,,82,0
64986,note_on,6,0,2,,,,,,,,,1,,,76,0
65040,note_on,54,0,2,,,,,,,,,1,,,75,75
65040,note_on,0,0,3,,,,,,,,,2,,,66,75
65040,note_on,0,0,3,,,,,,,,,2,,,59,75
65040,note_on,0,0,3,,,,,,,,,2,,,59,0
65040,note_on,60,0,3,,,,,,,,,2,,,66,0
65040,note_on,54,0,1,,,,,,,,,0,,,83,88
65160,note_on,120,0,3,,,,,,,,,2,,,66,0
65160,note_on,120,0,1,,,,,,,,,0,,,83,0
65160,note_on,0,0,3,,,,,,,,,2,,,59,0
65160,note_on,120,0,2,,,,,,,,,1,,,75,0
65160,note_on,0,0,1,,,,,,,,,0,,,78,88
65190,note_on,0,0,1,,,,,,,,,0,,,80,88
65190,note_on,30,0,1,,,,,,,,,0,,,78,0
65220,note_on,60,0,2,,,,,,,,,1,,,69,93
65220,note_on,30,0,1,,,,,,,,,0,,,80,0
65220,note_on,0,0,1,,,,,,,,,0,,,81,114
65220,note_on,60,0,3,,,,,,,,,2,,,54,91
65220,note_on,0,0,3,,,,,,,,,2,,,61,96
65220,note_on,0,0,3,,,,,,,,,2,,,66,101
65220,note_on,0,0,2,,,,,,,,,1,,,73,101
65340,note_on,0,0,3,,,,,,,,,2,,,61,0
65340,note_on,120,0,3,,,,,,,,,2,,,66,0
65340,note_on,0,0,3,,,,,,,,,2,,,56,75
65340,note_on,0,0,3,,,,,,,,,2,,,61,75
65340,note_on,0,0,3,,,,,,,,,2,,,65,75
65340,note_on,0,0,2,,,,,,,,,1,,,71,75
65340,note_on,0,0,2,,,,,,,,,1,,,73,75
65340,note_on,0,0,1,,,,,,,,,0,,,80,88
65340,note_on,120,0,1,,,,,,,,,0,,,81,0
65340,note_on,0,0,2,,,,,,,,,1,,,69,0
65340,note_on,120,0,2,,,,,,,,,1,,,73,0
65340,note_on,0,0,3,,,,,,,,,2,,,54,0
65400,note_on,60,0,2,,,,,,,,,1,,,73,0
65400,note_on,60,0,1,,,,,,,,,0,,,80,0
65400,note_on,0,0,3,,,,,,,,,2,,,57,91
65400,note_on,0,0,1,,,,,,,,,0,,,78,114
65400,note_on,60,0,3,,,,,,,,,2,,,65,0
65400,note_on,0,0,3,,,,,,,,,2,,,61,0
65400,note_on,0,0,3,,,,,,,,,2,,,56,0
65400,note_on,0,0,3,,,,,,,,,2,,,66,101
65400,note_on,0,0,2,,,,,,,,,1,,,71,0
65400,note_on,0,0,3,,,,,,,,,2,,,61,96
65400,note_on,0,0,2,,,,,,,,,1,,,69,93
65400,note_on,0,0,2,,,,,,,,,1,,,73,101
65520,note_on,0,0,3,,,,,,,,,2,,,57,0
65520,note_on,0,0,1,,,,,,,,,0,,,76,88
65520,note_on,120,0,1,,,,,,,,,0,,,78,0
65520,note_on,0,0,3,,,,,,,,,2,,,58,75
65520,note_on,0,0,3,,,,,,,,,2,,,64,75
65520,note_on,120,0,3,,,,,,,,,2,,,66,0
65520,note_on,0,0,3,,,,,,,,,2,,,61,0
65520,note_on,0,0,2,,,,,,,,,1,,,69,0
65520,note_on,0,0,3,,,,,,,,,2,,,61,75
65520,note_on,120,0,2,,,,,,,,,1,,,73,0
65520,note_on,0,0,2,,,,,,,,,1,,,68,75
65520,note_on,0,0,2,,,,,,,,,1,,,73,75
65580,note_on,0,0,2,,,,,,,,,1,,,68,0
65580,control_change,0,0,1,,,,,,,,,0,64,127,,
65580,note_on,0,0,1,,,,,,,,,0,,,76,75
65580,note_on,0,0,2,,,,,,,,,1,,,68,62
65580,note_on,60,0,1,,,,,,,,,0,,,76,0
65580,note_on,0,0,3,,,,,,,,,2,,,59,62
65580,note_on,0,0,3,,,,,,,,,2,,,58,0
65580,note_on,0,0,3,,,,,,,,,2,,,61,0
65580,note_on,60,0,3,,,,,,,,,2,,,64,0
65580,note_on,60,0,2,,,,,,,,,1,,,73,0
65640,note_on,60,0,1,,,,,,,,,0,,,76,0
65640,note_on,0,0,1,,,,,,,,,0,,,80,75
65700,note_on,120,0,2,,,,,,,,,1,,,68,0
65700,note_on,0,0,2,,,,,,,,,1,,,69,62
65700,note_on,60,0,1,,,,,,,,,0,,,80,0
65700,control_change,0,0,1,,,,,,,,,0,64,0,,
65700,note_on,0,0,1,,,,,,,,,0,,,78,75
65700,note_on,0,0,3,,,,,,,,,2,,,63,62
65700,note_on,120,0,3,,,,,,,,,2,,,59,0
65700,note_on,0,0,3,,,,,,,,,2,,,59,62
65706,note_on,6,0,2,,,,,,,,,1,,,69,0
65706,note_on,6,0,1,,,,,,,,,0,,,78,0
65760,note_on,60,0,3,,,,,,,,,2,,,63,0
65760,note_on,0,0,3,,,,,,,,,2,,,64,62
65760,note_on,54,0,2,,,,,,,,,1,,,68,62
65760,note_on,0,0,1,,,,,,,,,0,,,76,75
65760,control_change,54,0,1,,,,,,,,,0,64,127,,
65760,note_on,0,0,3,,,,,,,,,2,,,59,0
65880,note_on,120,0,2,,,,,,,,,1,,,68,0
65880,note_on,0,0,1,,,,,,,,,0,,,76,88
65880,note_on,120,0,1,,,,,,,,,0,,,76,0
65880,note_on,120,0,3,,,,,,,,,2,,,64,0
65910,note_on,0,0,1,,,,,,,,,0,,,78,88
65910,control_change,0,0,1,,,,,,,,,0,64,0,,
65910,note_on,30,0,1,,,,,,,,,0,,,76,0
65940,note_on,60,0,3,,,,,,,,,2,,,64,75
65940,note_on,0,0,3,,,,,,,,,2,,,68,75
65940,note_on,30,0,1,,,,,,,,,0,,,78,0
65940,note_on,60,0,2,,,,,,,,,1,,,76,75
65940,control_change,0,0,1,,,,,,,,,0,64,127,,
65940,note_on,0,0,1,,,,,,,,,0,,,80,88
66000,note_on,0,0,1,,,,,,,,,0,,,85,88
66000,note_on,60,0,1,,,,,,,,,0,,,80,0
66060,note_on,0,0,3,,,,,,,,,2,,,64,75
66060,note_on,120,0,2,,,,,,,,,1,,,76,0
66060,note_on,0,0,1,,,,,,,,,0,,,82,88
66060,control_change,0,0,1,,,,,,,,,0,64,0,,
66060,note_on,60,0,1,,,,,,,,,0,,,85,0
66060,note_on,120,0,3,,,,,,,,,2,,,68,0
66060,note_on,0,0,3,,,,,,,,,2,,,64,0
66060,note_on,0,0,2,,,,,,,,,1,,,76,75
66060,note_on,0,0,3,,,,,,,,,2,,,67,75
66066,note_on,6,0,1,,,,,,,,,0,,,82,0
66066,note_on,6,0,2,,,,,,,,,1,,,76,0
66120,note_on,54,0,2,,,,,,,,,1,,,76,75
66120,note_on,54,0,1,,,,,,,,,0,,,83,88
66120,note_on,0,0,3,,,,,,,,,2,,,64,0
66120,note_on,60,0,3,,,,,,,,,2,,,67,0
66120,note_on,0,0,3,,,,,,,,,2,,,68,75
66120,note_on,0,0,3,,,,,,,,,2,,,64,75
66240,note_on,0,0,3,,,,,,,,,2,,,64,49
66240,note_on,120,0,3,,,,,,,,,2,,,68,0
66240,note_on,120,0,1,,,,,,,,,0,,,83,0
66240,note_on,120,0,2,,,,,,,,,1,,,76,0
66240,note_on,0,0,3,,,,,,,,,2,,,64,0
66270,note_on,30,0,3,,,,,,,,,2,,,64,0
66270,note_on,0,0,3,,,,,,,,,2,,,61,49
66300,note_on,0,0,1,,,,,,,,,0,,,76,49
66300,note_on,60,0,2,,,,,,,,,1,,,68,36
66300,note_on,0,0,3,,,,,,,,,2,,,59,36
66300,note_on,30,0,3,,,,,,,,,2,,,61,0
66300,control_change,60,0,1,,,,,,,,,0,64,127,,
66360,note_on,60,0,1,,,,,,,,,0,,,76,0
66360,note_on,0,0,1,,,,,,,,,0,,,80,49
66420,note_on,120,0,2,,,,,,,,,1,,,68,0
66420,note_on,0,0,1,,,,,,,,,0,,,78,49
66420,note_on,0,0,2,,,,,,,,,1,,,69,36
66420,note_on,60,0,1,,,,,,,,,0,,,80,0
66420,control_change,0,0,1,,,,,,,,,0,64,0,,
66420,note_on,120,0,3,,,,,,,,,2,,,59,0
66420,note_on,0,0,3,,,,,,,,,2,,,59,36
66420,note_on,0,0,3,,,,,,,,,2,,,63,36
66426,note_on,6,0,2,,,,,,,,,1,,,69,0
66426,note_on,6,0,1,,,,,,,,,0,,,78,0
66480,note_on,54,0,1,,,,,,,,,0,,,76,49
66480,note_on,60,0,3,,,,,,,,,2,,,63,0
66480,note_on,0,0,3,,,,,,,,,2,,,59,0
66480,note_on,0,0,3,,,,,,,,,2,,,52,36
66480,note_on,0,0,3,,,,,,,,,2,,,64,36
66480,note_on,54,0,2,,,,,,,,,1,,,68,36
66600,note_on,120,0,3,,,,,,,,,2,,,64,0
66600,note_on,0,0,3,,,,,,,,,2,,,52,0
66600,note_on,120,0,2,,,,,,,,,1,,,68,0
66600,note_on,120,0,1,,,,,,,,,0,,,76,0
66600,note_on,0,0,1,,,,,,,,,0,,,76,88
66630,note_on,30,0,1,,,,,,,,,0,,,76,0
66630,note_on,0,0,1,,,,,,,,,0,,,78,88
66660,note_on,60,0,3,,,,,,,,,2,,,64,75
66660,note_on,0,0,1,,,,,,,,,0,,,80,88
66660,note_on,0,0,3,,,,,,,,,2,,,68,75
66660,control_change,0,0,1,,,,,,,,,0,64,127,,
66660,note_on,60,0,2,,,,,,,,,1,,,76,75
66660,note_on,30,0,1,,,,,,,,,0,,,78,0
66720,note_on,60,0,1,,,,,,,,,0,,,80,0
66720,note_on,0,0,1,,,,,,,,,0,,,85,88
66780,note_on,120,0,3,,,,,,,,,2,,,68,0
66780,note_on,120,0,2,,,,,,,,,1,,,76,0
66780,note_on,60,0,1,,,,,,,,,0,,,85,0
66780,control_change,0,0,1,,,,,,,,,0,64,0,,
66780,note_on,0,0,1,,,,,,,,,0,,,82,88
66780,note_on,0,0,2,,,,,,,,,1,,,76,75
66780,note_on,0,0,3,,,,,,,,,2,,,64,0
66780,note_on,0,0,3,,,,,,,,,2,,,64,75
66780,note_on,0,0,3,,,,,,,,,2,,,67,75
66786,note_on,6,0,1,,,,,,,,,0,,,82,0
66786,note_on,6,0,2,,,,,,,,,1,,,76,0
66840,note_on,54,0,2,,,,,,,,,1,,,76,75
66840,note_on,60,0,3,,,,,,,,,2,,,67,0
66840,note_on,0,0,3,,,,,,,,,2,,,64,75
66840,note_on,0,0,3,,,,,,,,,2,,,68,75
66840,note_on,54,0,1,,,,,,,,,0,,,83,88
66840,note_on,0,0,3,,,,,,,,,2,,,64,0
66960,note_on,120,0,2,,,,,,,,,1,,,76,0
66960,note_on,120,0,1,,,,,,,,,0,,,83,0
66960,note_on,120,0,3,,,,,,,,,2,,,68,0
66960,note_on,0,0,3,,,,,,,,,2,,,64,49
66960,note_on,0,0,3,,,,,,,,,2,,,64,0
66990,note_on,0,0,3,,,,,,,,,2,,,66,49
66990,note_on,30,0,3,,,,,,,,,2,,,64,0
67020,note_on,30,0,3,,,,,,,,,2,,,66,0
67020,note_on,0,0,3,,,,,,,,,2,,,59,36
67020,note_on,0,0,3,,,,,,,,,2,,,68,36
67020,control_change,60,0,1,,,,,,,,,0,64,127,,
67020,note_on,0,0,1,,,,,,,,,0,,,76,49
67020,note_on,60,0,2,,,,,,,,,1,,,71,36
67080,note_on,0,0,1,,,,,,,,,0,,,83,49
67080,note_on,60,0,1,,,,,,,,,0,,,76,0
67140,note_on,0,0,1,,,,,,,,,0,,,75,49
67140,control_change,0,0,1,,,,,,,,,0,64,0,,
67140,note_on,60,0,1,,,,,,,,,0,,,83,0
67140,note_on,0,0,3,,,,,,,,,2,,,66,36
67140,note_on,0,0,3,,,,,,,,,2,,,59,36
67140,note_on,0,0,3,,,,,,,,,2,,,59,0
67140,note_on,120,0,3,,,,,,,,,2,,,68,0
67140,note_on,0,0,2,,,,,,,,,1,,,69,36
67140,note_on,120,0,2,,,,,,,,,1,,,71,0
67146,note_on,0,0,3,,,,,,,,,2,,,59,0
67146,note_on,6,0,1,,,,,,,,,0,,,75,0
67146,note_on,6,0,3,,,,,,,,,2,,,66,0
67146,note_on,6,0,2,,,,,,,,,1,,,69,0
67200,control_change,54,0,3,,,,,,,,,2,64,127,,
67200,note_on,0,0,3,,,,,,,,,2,,,64,36
67200,note_on,0,0,3,,,,,,,,,2,,,52,36
67200,control_change,54,0,1,,,,,,,,,0,64,127,,
67200,note_on,54,0,2,,,,,,,,,1,,,68,36
67200,note_on,0,0,1,,,,,,,,,0,,,76,49
67320,note_on,0,0,3,,,,,,,,,2,,,52,0
67320,note_on,120,0,3,,,,,,,,,2,,,64,0
67320,note_on,0,0,3,,,,,,,,,2,,,49,75
67320,note_on,120,0,2,,,,,,,,,1,,,68,0
67320,note_on,0,0,1,,,,,,,,,0,,,61,88
67320,note_on,120,0,1,,,,,,,,,0,,,76,0
67350,note_on,30,0,1,,,,,,,,,0,,,61,0
67350,note_on,30,0,3,,,,,,,,,2,,,49,0
67350,note_on,0,0,3,,,,,,,,,2,,,51,75
67350,note_on,0,0,1,,,,,,,,,0,,,63,88
67380,note_on,30,0,3,,,,,,,,,2,,,51,0
67380,note_on,30,0,1,,,,,,,,,0,,,63,0
67380,note_on,0,0,1,,,,,,,,,0,,,64,88
67380,note_on,0,0,3,,,,,,,,,2,,,52,75
67440,note_on,60,0,3,,,,,,,,,2,,,52,0
67440,note_on,0,0,3,,,,,,,,,2,,,56,75
67440,note_on,0,0,1,,,,,,,,,0,,,68,88
67440,note_on,60,0,1,,,,,,,,,0,,,64,0
67500,note_on,60,0,3,,,,,,,,,2,,,56,0
67500,note_on,0,0,3,,,,,,,,,2,,,51,75
67500,note_on,0,0,1,,,,,,,,,0,,,63,88
67500,note_on,60,0,1,,,,,,,,,0,,,68,0
67506,note_on,6,0,3,,,,,,,,,2,,,51,0
67506,note_on,6,0,1,,,,,,,,,0,,,63,0
67560,note_on,54,0,1,,,,,,,,,0,,,61,88
67560,note_on,54,0,3,,,,,,,,,2,,,49,75
67620,note_on,60,0,1,,,,,,,,,0,,,61,0
67620,note_on,0,0,1,,,,,,,,,0,,,64,88
67620,note_on,60,0,3,,,,,,,,,2,,,49,0
67620,note_on,0,0,3,,,,,,,,,2,,,52,75
67680,control_change,0,0,1,,,,,,,,,0,64,0,,
67680,note_on,0,0,1,,,,,,,,,0,,,59,88
67680,note_on,60,0,1,,,,,,,,,0,,,64,0
67680,note_on,0,0,3,,,,,,,,,2,,,47,75
67680,control_change,0,0,3,,,,,,,,,2,64,0,,
67680,note_on,60,0,3,,,,,,,,,2,,,52,0
67686,note_on,6,0,1,,,,,,,,,0,,,59,0
67686,note_on,6,0,3,,,,,,,,,2,,,47,0
67740,control_change,54,0,1,,,,,,,,,0,64,127,,
67740,note_on,0,0,1,,,,,,,,,0,,,58,88
67740,note_on,0,0,3,,,,,,,,,2,,,46,75
67740,control_change,54,0,3,,,,,,,,,2,64,127,,
67800,note_on,0,0,3,,,,,,,,,2,,,49,75
67800,note_on,60,0,3,,,,,,,,,2,,,46,0
67800,note_on,0,0,1,,,,,,,,,0,,,61,88
67800,note_on,60,0,1,,,,,,,,,0,,,58,0
67860,note_on,0,0,1,,,,,,,,,0,,,56,88
67860,note_on,60,0,1,,,,,,,,,0,,,61,0
67860,note_on,60,0,3,,,,,,,,,2,,,49,0
67860,note_on,0,0,3,,,,,,,,,2,,,44,75
67866,note_on,6,0,1,,,,,,,,,0,,,56,0
67866,note_on,6,0,3,,,,,,,,,2,,,44,0
67920,note_on,0,0,1,,,,,,,,,0,,,54,88
67920,control_change,54,0,1,,,,,,,,,0,64,0,,
67920,note_on,0,0,3,,,,,,,,,2,,,42,75
67920,control_change,54,0,3,,,,,,,,,2,64,0,,
68040,note_on,120,0,1,,,,,,,,,0,,,54,0
68040,note_on,120,0,3,,,,,,,,,2,,,42,0
68100,control_change,60,0,3,,,,,,,,,2,64,127,,
68100,note_on,0,0,3,,,,,,,,,2,,,47,62
68100,control_change,60,0,1,,,,,,,,,0,64,127,,
68100,note_on,0,0,1,,,,,,,,,0,,,78,75
68106,note_on,6,0,3,,,,,,,,,2,,,47,0
68160,note_on,54,0,3,,,,,,,,,2,,,63,62
68160,note_on,0,0,3,,,,,,,,,2,,,71,62
68160,note_on,60,0,1,,,,,,,,,0,,,78,0
68160,note_on,0,0,1,,,,,,,,,0,,,80,75
68166,note_on,0,0,3,,,,,,,,,2,,,63,0
68166,note_on,6,0,3,,,,,,,,,2,,,71,0
68220,note_on,60,0,1,,,,,,,,,0,,,80,0
68220,note_on,54,0,3,,,,,,,,,2,,,63,62
68220,note_on,0,0,1,,,,,,,,,0,,,77,75
68220,note_on,0,0,3,,,,,,,,,2,,,71,62
68226,note_on,6,0,3,,,,,,,,,2,,,71,0
68226,note_on,0,0,3,,,,,,,,,2,,,63,0
68280,note_on,54,0,3,,,,,,,,,2,,,63,62
68280,note_on,0,0,1,,,,,,,,,0,,,78,75
68280,note_on,60,0,1,,,,,,,,,0,,,77,0
68280,note_on,0,0,3,,,,,,,,,2,,,71,62
68286,note_on,6,0,3,,,,,,,,,2,,,71,0
68286,note_on,0,0,3,,,,,,,,,2,,,63,0
68340,note_on,54,0,3,,,,,,,,,2,,,63,62
68340,note_on,0,0,3,,,,,,,,,2,,,71,62
68346,note_on,0,0,3,,,,,,,,,2,,,63,0
68346,note_on,6,0,3,,,,,,,,,2,,,71,0
68400,note_on,54,0,3,,,,,,,,,2,,,63,62
68400,note_on,0,0,3,,,,,,,,,2,,,71,62
68400,note_on,120,0,1,,,,,,,,,0,,,78,0
68400,note_on,0,0,1,,,,,,,,,0,,,83,75
68406,note_on,0,0,3,,,,,,,,,2,,,63,0
68406,note_on,6,0,3,,,,,,,,,2,,,71,0
68460,note_on,60,0,1,,,,,,,,,0,,,83,0
68460,note_on,0,0,1,,,,,,,,,0,,,83,75
68460,note_on,54,0,3,,,,,,,,,2,,,63,62
68460,note_on,0,0,3,,,,,,,,,2,,,66,62
68466,note_on,6,0,3,,,,,,,,,2,,,66,0
68466,note_on,0,0,3,,,,,,,,,2,,,63,0
68520,note_on,0,0,3,,,,,,,,,2,,,71,62
68520,note_on,54,0,3,,,,,,,,,2,,,63,62
68526,note_on,6,0,3,,,,,,,,,2,,,71,0
68526,note_on,0,0,3,,,,,,,,,2,,,63,0
68580,note_on,0,0,1,,,,,,,,,0,,,78,75
68580,note_on,0,0,3,,,,,,,,,2,,,71,62
68580,note_on,54,0,3,,,,,,,,,2,,,63,62
68580,note_on,120,0,1,,,,,,,,,0,,,83,0
68586,note_on,0,0,3,,,,,,,,,2,,,63,0
68586,note_on,6,0,3,,,,,,,,,2,,,71,0
68640,note_on,60,0,1,,,,,,,,,0,,,78,0
68640,control_change,0,0,1,,,,,,,,,0,64,0,,
68640,note_on,0,0,1,,,,,,,,,0,,,78,75
68640,note_on,0,0,3,,,,,,,,,2,,,71,62
68640,note_on,54,0,3,,,,,,,,,2,,,63,62
68646,note_on,0,0,3,,,,,,,,,2,,,63,0
68646,note_on,6,0,3,,,,,,,,,2,,,71,0
68700,note_on,54,0,3,,,,,,,,,2,,,63,62
68700,note_on,0,0,3,,,,,,,,,2,,,66,62
68706,note_on,6,0,3,,,,,,,,,2,,,66,0
68706,note_on,0,0,3,,,,,,,,,2,,,63,0
68760,note_on,0,0,3,,,,,,,,,2,,,71,62
68760,control_change,54,0,3,,,,,,,,,2,64,0,,
68760,note_on,120,0,1,,,,,,,,,0,,,78,0
68760,note_on,0,0,3,,,,,,,,,2,,,63,62
68766,note_on,6,0,3,,,,,,,,,2,,,71,0
68766,note_on,0,0,3,,,,,,,,,2,,,63,0
68820,control_change,54,0,3,,,,,,,,,2,64,127,,
68820,note_on,0,0,3,,,,,,,,,2,,,54,62
68820,control_change,60,0,1,,,,,,,,,0,64,127,,
68820,note_on,0,0,1,,,,,,,,,0,,,78,75
68880,note_on,60,0,3,,,,,,,,,2,,,54,0
68880,note_on,0,0,3,,,,,,,,,2,,,64,62
68880,note_on,0,0,3,,,,,,,,,2,,,70,62
68880,note_on,0,0,1,,,,,,,,,0,,,80,75
68880,note_on,60,0,1,,,,,,,,,0,,,78,0
68886,note_on,6,0,3,,,,,,,,,2,,,70,0
68886,note_on,0,0,3,,,,,,,,,2,,,64,0
68940,note_on,0,0,1,,,,,,,,,0,,,77,75
68940,note_on,0,0,3,,,,,,,,,2,,,70,62
68940,note_on,60,0,1,,,,,,,,,0,,,80,0
68940,note_on,54,0,3,,,,,,,,,2,,,64,62
68946,note_on,6,0,3,,,,,,,,,2,,,70,0
68946,note_on,0,0,3,,,,,,,,,2,,,64,0
69000,note_on,60,0,1,,,,,,,,,0,,,77,0
69000,note_on,54,0,3,,,,,,,,,2,,,64,62
69000,note_on,0,0,3,,,,,,,,,2,,,70,62
69000,note_on,0,0,1,,,,,,,,,0,,,78,75
69006,note_on,6,0,3,,,,,,,,,2,,,70,0
69006,note_on,0,0,3,,,,,,,,,2,,,64,0
69060,note_on,54,0,3,,,,,,,,,2,,,64,62
69060,note_on,0,0,3,,,,,,,,,2,,,70,62
69066,note_on,0,0,3,,,,,,,,,2,,,64,0
69066,note_on,6,0,3,,,,,,,,,2,,,70,0
69120,note_on,0,0,1,,,,,,,,,0,,,85,75
69120,note_on,120,0,1,,,,,,,,,0,,,78,0
69120,note_on,0,0,3,,,,,,,,,2,,,70,62
69120,note_on,54,0,3,,,,,,,,,2,,,64,62
69126,note_on,0,0,3,,,,,,,,,2,,,64,0
69126,note_on,6,0,3,,,,,,,,,2,,,70,0
69180,note_on,0,0,1,,,,,,,,,0,,,85,75
69180,note_on,60,0,1,,,,,,,,,0,,,85,0
69180,note_on,54,0,3,,,,,,,,,2,,,64,62
69180,note_on,0,0,3,,,,,,,,,2,,,66,62
69186,note_on,0,0,3,,,,,,,,,2,,,64,0
69186,note_on,6,0,3,,,,,,,,,2,,,66,0
69240,note_on,54,0,3,,,,,,,,,2,,,64,62
69240,note_on,0,0,3,,,,,,,,,2,,,70,62
69246,note_on,6,0,3,,,,,,,,,2,,,70,0
69246,note_on,0,0,3,,,,,,,,,2,,,64,0
69300,note_on,0,0,3,,,,,,,,,2,,,70,62
69300,note_on,54,0,3,,,,,,,,,2,,,64,62
69300,note_on,120,0,1,,,,,,,,,0,,,85,0
69300,note_on,0,0,1,,,,,,,,,0,,,78,75
69306,note_on,0,0,3,,,,,,,,,2,,,64,0
69306,note_on,6,0,3,,,,,,,,,2,,,70,0
69360,note_on,0,0,1,,,,,,,,,0,,,78,75
69360,note_on,60,0,1,,,,,,,,,0,,,78,0
69360,control_change,0,0,1,,,,,,,,,0,64,0,,
69360,note_on,54,0,3,,,,,,,,,2,,,64,62
69360,note_on,0,0,3,,,,,,,,,2,,,70,62
69366,note_on,6,0,3,,,,,,,,,2,,,70,0
69366,note_on,0,0,3,,,,,,,,,2,,,64,0
69420,note_on,54,0,3,,,,,,,,,2,,,64,62
69420,note_on,0,0,3,,,,,,,,,2,,,66,62
69426,note_on,6,0,3,,,,,,,,,2,,,66,0
69426,note_on,0,0,3,,,,,,,,,2,,,64,0
69480,note_on,120,0,1,,,,,,,,,0,,,78,0
69480,note_on,0,0,3,,,,,,,,,2,,,70,62
69480,note_on,0,0,3,,,,,,,,,2,,,64,62
69480,control_change,54,0,3,,,,,,,,,2,64,0,,
69486,note_on,6,0,3,,,,,,,,,2,,,70,0
69486,note_on,0,0,3,,,,,,,,,2,,,64,0
69540,control_change,54,0,3,,,,,,,,,2,64,127,,
69540,note_on,0,0,3,,,,,,,,,2,,,47,62
69540,control_change,60,0,1,,,,,,,,,0,64,127,,
69540,note_on,0,0,1,,,,,,,,,0,,,78,75
69546,note_on,6,0,3,,,,,,,,,2,,,47,0
69600,note_on,60,0,1,,,,,,,,,0,,,78,0
69600,note_on,0,0,1,,,,,,,,,0,,,80,75
69600,note_on,54,0,3,,,,,,,,,2,,,63,62
69600,note_on,0,0,3,,,,,,,,,2,,,66,62
69606,note_on,6,0,3,,,,,,,,,2,,,66,0
69606,note_on,0,0,3,,,,,,,,,2,,,63,0
69660,note_on,0,0,1,,,,,,,,,0,,,77,75
69660,note_on,60,0,1,,,,,,,,,0,,,80,0
69660,note_on,0,0,3,,,,,,,,,2,,,66,62
69660,note_on,54,0,3,,,,,,,,,2,,,62,62
69666,note_on,0,0,3,,,,,,,,,2,,,62,0
69666,note_on,6,0,3,,,,,,,,,2,,,66,0
69666,note_on,6,0,1,,,,,,,,,0,,,77,0
69720,note_on,54,0,1,,,,,,,,,0,,,78,75
69720,note_on,0,0,3,,,,,,,,,2,,,66,62
69720,note_on,54,0,3,,,,,,,,,2,,,63,62
69780,note_on,0,0,3,,,,,,,,,2,,,61,62
69780,note_on,0,0,3,,,,,,,,,2,,,64,62
69780,note_on,0,0,3,,,,,,,,,2,,,63,0
69780,note_on,60,0,3,,,,,,,,,2,,,66,0
69840,note_on,120,0,1,,,,,,,,,0,,,78,0
69840,control_change,0,0,1,,,,,,,,,0,64,0,,
69840,note_on,0,0,1,,,,,,,,,0,,,87,75
69840,note_on,60,0,3,,,,,,,,,2,,,64,0
69840,note_on,0,0,3,,,,,,,,,2,,,61,0
69840,control_change,0,0,3,,,,,,,,,2,64,0,,
69840,note_on,0,0,3,,,,,,,,,2,,,59,62
69840,note_on,0,0,3,,,,,,,,,2,,,63,62
69846,note_on,0,0,3,,,,,,,,,2,,,59,0
69846,note_on,6,0,3,,,,,,,,,2,,,63,0
69900,note_on,0,0,3,,,,,,,,,2,,,44,62
69900,note_on,0,0,1,,,,,,,,,0,,,75,75
69900,control_change,0,0,1,,,,,,,,,0,64,127,,
69900,note_on,60,0,1,,,,,,,,,0,,,87,0
69900,control_change,54,0,3,,,,,,,,,2,64,127,,
69906,note_on,6,0,3,,,,,,,,,2,,,44,0
69960,note_on,60,0,1,,,,,,,,,0,,,75,0
69960,note_on,0,0,1,,,,,,,,,0,,,76,75
69960,note_on,54,0,3,,,,,,,,,2,,,59,62
69960,note_on,0,0,3,,,,,,,,,2,,,63,62
69966,note_on,6,0,3,,,,,,,,,2,,,63,0
69966,note_on,0,0,3,,,,,,,,,2,,,59,0
70020,note_on,0,0,1,,,,,,,,,0,,,74,75
70020,note_on,60,0,1,,,,,,,,,0,,,76,0
70020,note_on,54,0,3,,,,,,,,,2,,,58,62
70020,note_on,0,0,3,,,,,,,,,2,,,63,62
70026,note_on,6,0,1,,,,,,,,,0,,,74,0
70026,note_on,0,0,3,,,,,,,,,2,,,58,0
70026,note_on,6,0,3,,,,,,,,,2,,,63,0
70080,note_on,54,0,3,,,,,,,,,2,,,59,62
70080,note_on,54,0,1,,,,,,,,,0,,,75,75
70080,note_on,0,0,3,,,,,,,,,2,,,63,62
70140,note_on,0,0,3,,,,,,,,,2,,,59,0
70140,note_on,0,0,3,,,,,,,,,2,,,61,62
70140,note_on,60,0,3,,,,,,,,,2,,,63,0
70140,note_on,0,0,3,,,,,,,,,2,,,58,62
70200,note_on,0,0,3,,,,,,,,,2,,,56,62
70200,note_on,120,0,1,,,,,,,,,0,,,75,0
70200,note_on,0,0,3,,,,,,,,,2,,,59,62
70200,control_change,0,0,3,,,,,,,,,2,64,0,,
70200,note_on,0,0,3,,,,,,,,,2,,,58,0
70200,control_change,0,0,1,,,,,,,,,0,64,0,,
70200,note_on,0,0,1,,,,,,,,,0,,,83,75
70200,note_on,60,0,3,,,,,,,,,2,,,61,0
70206,note_on,6,0,3,,,,,,,,,2,,,59,0
70206,note_on,0,0,3,,,,,,,,,2,,,56,0
70260,note_on,0,0,1,,,,,,,,,0,,,71,75
70260,control_change,0,0,1,,,,,,,,,0,64,127,,
70260,note_on,60,0,1,,,,,,,,,0,,,83,0
70260,note_on,0,0,3,,,,,,,,,2,,,40,62
70260,control_change,54,0,3,,,,,,,,,2,64,127,,
70266,note_on,6,0,3,,,,,,,,,2,,,40,0
70320,note_on,0,0,1,,,,,,,,,0,,,73,75
70320,note_on,0,0,3,,,,,,,,,2,,,59,62
70320,note_on,54,0,3,,,,,,,,,2,,,56,62
70320,note_on,60,0,1,,,,,,,,,0,,,71,0
70326,note_on,0,0,3,,,,,,,,,2,,,56,0
70326,note_on,6,0,3,,,,,,,,,2,,,59,0
70380,note_on,0,0,3,,,,,,,,,2,,,59,62
70380,note_on,0,0,1,,,,,,,,,0,,,70,75
70380,note_on,54,0,3,,,,,,,,,2,,,55,62
70380,note_on,60,0,1,,,,,,,,,0,,,73,0
70386,note_on,6,0,1,,,,,,,,,0,,,70,0
70386,note_on,0,0,3,,,,,,,,,2,,,55,0
70386,note_on,6,0,3,,,,,,,,,2,,,59,0
70440,note_on,54,0,3,,,,,,,,,2,,,56,62
70440,note_on,0,0,3,,,,,,,,,2,,,59,62
70440,note_on,54,0,1,,,,,,,,,0,,,71,75
70500,note_on,0,0,3,,,,,,,,,2,,,58,62
70500,note_on,0,0,3,,,,,,,,,2,,,54,62
70500,note_on,60,0,3,,,,,,,,,2,,,59,0
70500,note_on,0,0,3,,,,,,,,,2,,,56,0
70560,control_change,0,0,3,,,,,,,,,2,64,0,,
70560,note_on,60,0,3,,,,,,,,,2,,,58,0
70560,note_on,0,0,3,,,,,,,,,2,,,54,0
70560,note_on,0,0,1,,,,,,,,,0,,,80,49
70560,control_change,0,0,1,,,,,,,,,0,64,0,,
70560,note_on,120,0,1,,,,,,,,,0,,,71,0
70560,note_on,0,0,3,,,,,,,,,2,,,52,36
70560,note_on,0,0,3,,,,,,,,,2,,,56,36
70566,note_on,6,0,3,,,,,,,,,2,,,56,0
70566,note_on,0,0,3,,,,,,,,,2,,,52,0
70620,note_on,60,0,1,,,,,,,,,0,,,80,0
70620,control_change,54,0,3,,,,,,,,,2,64,127,,
70620,note_on,0,0,3,,,,,,,,,2,,,54,36
70620,note_on,0,0,3,,,,,,,,,2,,,58,36
70620,note_on,0,0,1,,,,,,,,,0,,,78,49
70620,control_change,0,0,1,,,,,,,,,0,64,127,,
70680,note_on,60,0,3,,,,,,,,,2,,,58,0
70680,note_on,0,0,3,,,,,,,,,2,,,54,0
70680,note_on,0,0,3,,,,,,,,,2,,,66,36
70740,note_on,60,0,3,,,,,,,,,2,,,66,0
70740,control_change,0,0,3,,,,,,,,,2,64,0,,
70740,note_on,0,0,3,,,,,,,,,2,,,54,36
70740,note_on,0,0,3,,,,,,,,,2,,,58,36
70740,note_on,0,0,1,,,,,,,,,0,,,74,49
70740,note_on,120,0,1,,,,,,,,,0,,,78,0
70746,note_on,0,0,3,,,,,,,,,2,,,54,0
70746,note_on,6,0,3,,,,,,,,,2,,,58,0
70800,note_on,0,0,1,,,,,,,,,0,,,75,49
70800,note_on,0,0,3,,,,,,,,,2,,,59,36
70800,control_change,54,0,3,,,,,,,,,2,64,127,,
70800,note_on,60,0,1,,,,,,,,,0,,,74,0
70800,control_change,0,0,1,,,,,,,,,0,64,0,,
70806,note_on,6,0,3,,,,,,,,,2,,,59,0
70860,note_on,54,0,3,,,,,,,,,2,,,42,36
70866,note_on,6,0,3,,,,,,,,,2,,,42,0
70920,note_on,120,0,1,,,,,,,,,0,,,75,0
70920,note_on,0,0,3,,,,,,,,,2,,,46,36
70920,control_change,54,0,3,,,,,,,,,2,64,0,,
70926,note_on,6,0,3,,,,,,,,,2,,,46,0
70980,control_change,60,0,1,,,,,,,,,0,64,127,,
70980,note_on,0,0,1,,,,,,,,,0,,,78,36
70980,control_change,54,0,3,,,,,,,,,2,64,127,,
70980,note_on,0,0,3,,,,,,,,,2,,,47,36
70984,note_on,4,0,3,,,,,,,,,2,,,47,0
71040,note_on,60,0,1,,,,,,,,,0,,,78,0
71040,note_on,0,0,1,,,,,,,,,0,,,79,36
71040,note_on,56,0,3,,,,,,,,,2,,,62,36
71040,note_on,0,0,3,,,,,,,,,2,,,71,36
71044,note_on,0,0,3,,,,,,,,,2,,,62,0
71044,note_on,4,0,3,,,,,,,,,2,,,71,0
71100,note_on,60,0,1,,,,,,,,,0,,,79,0
71100,note_on,0,0,1,,,,,,,,,0,,,77,36
71100,note_on,56,0,3,,,,,,,,,2,,,62,36
71100,note_on,0,0,3,,,,,,,,,2,,,71,36
71104,note_on,4,0,3,,,,,,,,,2,,,71,0
71104,note_on,0,0,3,,,,,,,,,2,,,62,0
71160,note_on,60,0,1,,,,,,,,,0,,,77,0
71160,note_on,0,0,1,,,,,,,,,0,,,78,36
71160,note_on,56,0,3,,,,,,,,,2,,,62,36
71160,note_on,0,0,3,,,,,,,,,2,,,71,36
71164,note_on,4,0,3,,,,,,,,,2,,,71,0
71164,note_on,0,0,3,,,,,,,,,2,,,62,0
71220,note_on,0,0,3,,,,,,,,,2,,,71,36
71220,note_on,56,0,3,,,,,,,,,2,,,62,36
71224,note_on,4,0,3,,,,,,,,,2,,,71,0
71224,note_on,0,0,3,,,,,,,,,2,,,62,0
71280,note_on,56,0,3,,,,,,,,,2,,,62,36
71280,note_on,0,0,3,,,,,,,,,2,,,71,36
71280,note_on,120,0,1,,,,,,,,,0,,,78,0
71280,note_on,0,0,1,,,,,,,,,0,,,83,36
71284,note_on,4,0,3,,,,,,,,,2,,,71,0
71284,note_on,0,0,3,,,,,,,,,2,,,62,0
71340,note_on,0,0,1,,,,,,,,,0,,,83,36
71340,note_on,56,0,3,,,,,,,,,2,,,62,36
71340,note_on,0,0,3,,,,,,,,,2,,,66,36
71340,note_on,60,0,1,,,,,,,,,0,,,83,0
71344,note_on,0,0,3,,,,,,,,,2,,,62,0
71344,note_on,4,0,3,,,,,,,,,2,,,66,0
71400,note_on,56,0,3,,,,,,,,,2,,,62,36
71400,note_on,0,0,3,,,,,,,,,2,,,71,36
71404,note_on,4,0,3,,,,,,,,,2,,,71,0
71404,note_on,0,0,3,,,,,,,,,2,,,62,0
71460,note_on,56,0,3,,,,,,,,,2,,,62,36
71460,note_on,0,0,1,,,,,,,,,0,,,78,36
71460,note_on,120,0,1,,,,,,,,,0,,,83,0
71460,note_on,0,0,3,,,,,,,,,2,,,71,36
71464,note_on,0,0,3,,,,,,,,,2,,,62,0
71464,note_on,4,0,3,,,,,,,,,2,,,71,0
71520,note_on,0,0,3,,,,,,,,,2,,,71,36
71520,note_on,56,0,3,,,,,,,,,2,,,62,36
71520,note_on,0,0,1,,,,,,,,,0,,,78,36
71520,control_change,0,0,1,,,,,,,,,0,64,0,,
71520,note_on,60,0,1,,,,,,,,,0,,,78,0
71524,note_on,0,0,3,,,,,,,,,2,,,62,0
71524,note_on,4,0,3,,,,,,,,,2,,,71,0
71580,note_on,56,0,3,,,,,,,,,2,,,62,36
71580,note_on,0,0,3,,,,,,,,,2,,,66,36
71584,note_on,0,0,3,,,,,,,,,2,,,62,0
71584,note_on,4,0,3,,,,,,,,,2,,,66,0
71640,control_change,56,0,3,,,,,,,,,2,64,0,,
71640,note_on,0,0,3,,,,,,,,,2,,,62,36
71640,note_on,0,0,3,,,,,,,,,2,,,71,36
71640,note_on,120,0,1,,,,,,,,,0,,,78,0
71644,note_on,4,0,3,,,,,,,,,2,,,71,0
71644,note_on,0,0,3,,,,,,,,,2,,,62,0
71700,control_change,56,0,3,,,,,,,,,2,64,127,,
71700,note_on,0,0,3,,,,,,,,,2,,,45,36
71700,control_change,60,0,1,,,,,,,,,0,64,127,,
71700,note_on,0,0,1,,,,,,,,,0,,,79,49
71706,note_on,6,0,3,,,,,,,,,2,,,45,0
71760,note_on,60,0,1,,,,,,,,,0,,,79,0
71760,note_on,0,0,1,,,,,,,,,0,,,81,49
71760,note_on,54,0,3,,,,,,,,,2,,,61,36
71760,note_on,0,0,3,,,,,,,,,2,,,64,36
71760,note_on,0,0,3,,,,,,,,,2,,,69,36
71766,note_on,0,0,3,,,,,,,,,2,,,64,0
71766,note_on,0,0,3,,,,,,,,,2,,,61,0
71766,note_on,6,0,3,,,,,,,,,2,,,69,0
71820,note_on,60,0,1,,,,,,,,,0,,,81,0
71820,note_on,0,0,1,,,,,,,,,0,,,78,49
71820,note_on,0,0,3,,,,,,,,,2,,,69,36
71820,note_on,0,0,3,,,,,,,,,2,,,64,36
71820,note_on,54,0,3,,,,,,,,,2,,,61,36
71826,note_on,6,0,3,,,,,,,,,2,,,69,0
71826,note_on,0,0,3,,,,,,,,,2,,,64,0
71826,note_on,0,0,3,,,,,,,,,2,,,61,0
71880,note_on,0,0,1,,,,,,,,,0,,,79,62
71880,note_on,60,0,1,,,,,,,,,0,,,78,0
71880,note_on,54,0,3,,,,,,,,,2,,,61,49
71880,note_on,0,0,3,,,,,,,,,2,,,64,49
71880,note_on,0,0,3,,,,,,,,,2,,,69,49
71886,note_on,6,0,3,,,,,,,,,2,,,69,0
71886,note_on,0,0,3,,,,,,,,,2,,,61,0
71886,note_on,0,0,3,,,,,,,,,2,,,64,0
71940,note_on,0,0,3,,,,,,,,,2,,,64,49
71940,note_on,0,0,3,,,,,,,,,2,,,69,49
71940,note_on,54,0,3,,,,,,,,,2,,,61,49
71946,note_on,6,0,3,,,,,,,,,2,,,69,0
71946,note_on,0,0,3,,,,,,,,,2,,,61,0
71946,note_on,0,0,3,,,,,,,,,2,,,64,0
72000,note_on,0,0,3,,,,,,,,,2,,,69,49
72000,note_on,0,0,3,,,,,,,,,2,,,64,49
72000,note_on,54,0,3,,,,,,,,,2,,,61,49
72000,note_on,0,0,1,,,,,,,,,0,,,88,62
72000,note_on,120,0,1,,,,,,,,,0,,,79,0
72006,note_on,6,0,3,,,,,,,,,2,,,69,0
72006,note_on,0,0,3,,,,,,,,,2,,,64,0
72006,note_on,0,0,3,,,,,,,,,2,,,61,0
72060,note_on,0,0,1,,,,,,,,,0,,,88,75
72060,note_on,60,0,1,,,,,,,,,0,,,88,0
72060,note_on,4740,0,2,,,,,,,,,1,,,61,62
72060,note_on,0,0,2,,,,,,,,,1,,,64,62
72066,note_on,6,0,2,,,,,,,,,1,,,64,0
72066,note_on,0,0,2,,,,,,,,,1,,,61,0
72120,note_on,0,0,2,,,,,,,,,1,,,69,62
72120,note_on,54,0,2,,,,,,,,,1,,,61,62
72126,note_on,6,0,2,,,,,,,,,1,,,69,0
72126,note_on,0,0,2,,,,,,,,,1,,,61,0
72180,note_on,0,0,2,,,,,,,,,1,,,69,62
72180,note_on,54,0,2,,,,,,,,,1,,,61,62
72180,note_on,120,0,1,,,,,,,,,0,,,88,0
72180,note_on,0,0,1,,,,,,,,,0,,,79,75
72186,note_on,0,0,2,,,,,,,,,1,,,61,0
72186,note_on,6,0,2,,,,,,,,,1,,,69,0
72240,note_on,0,0,2,,,,,,,,,1,,,71,62
72240,note_on,54,0,2,,,,,,,,,1,,,61,62
72240,note_on,60,0,1,,,,,,,,,0,,,79,0
72240,control_change,0,0,1,,,,,,,,,0,64,0,,
72240,note_on,0,0,1,,,,,,,,,0,,,79,75
72246,note_on,0,0,2,,,,,,,,,1,,,61,0
72246,note_on,6,0,2,,,,,,,,,1,,,71,0
72300,note_on,54,0,2,,,,,,,,,1,,,61,62
72300,note_on,0,0,2,,,,,,,,,1,,,64,62
72306,note_on,6,0,2,,,,,,,,,1,,,64,0
72306,note_on,0,0,2,,,,,,,,,1,,,61,0
72360,note_on,120,0,1,,,,,,,,,0,,,79,0
72360,note_on,0,0,2,,,,,,,,,1,,,61,62
72360,note_on,0,0,2,,,,,,,,,1,,,71,62
72360,control_change,54,0,2,,,,,,,,,1,64,0,,
72366,note_on,6,0,2,,,,,,,,,1,,,71,0
72366,note_on,0,0,2,,,,,,,,,1,,,61,0
72420,control_change,60,0,1,,,,,,,,,0,64,127,,
72420,control_change,54,0,2,,,,,,,,,1,64,127,,
72420,note_on,0,0,2,,,,,,,,,1,,,46,36
72420,note_on,0,0,1,,,,,,,,,0,,,78,36
72426,note_on,6,0,2,,,,,,,,,1,,,46,0
72480,note_on,54,0,2,,,,,,,,,1,,,64,36
72480,note_on,60,0,1,,,,,,,,,0,,,78,0
72480,note_on,0,0,1,,,,,,,,,0,,,80,36
72480,note_on,0,0,2,,,,,,,,,1,,,66,36
72486,note_on,6,0,2,,,,,,,,,1,,,66,0
72486,note_on,0,0,2,,,,,,,,,1,,,64,0
72540,note_on,60,0,1,,,,,,,,,0,,,80,0
72540,note_on,0,0,1,,,,,,,,,0,,,77,36
72540,note_on,54,0,2,,,,,,,,,1,,,64,36
72540,note_on,0,0,2,,,,,,,,,1,,,66,36
72546,note_on,0,0,2,,,,,,,,,1,,,64,0
72546,note_on,6,0,2,,,,,,,,,1,,,66,0
72546,note_on,6,0,1,,,,,,,,,0,,,77,0
72600,note_on,54,0,1,,,,,,,,,0,,,78,36
72600,note_on,54,0,2,,,,,,,,,1,,,64,36
72600,note_on,0,0,2,,,,,,,,,1,,,66,36
72606,note_on,6,0,2,,,,,,,,,1,,,66,0
72606,note_on,0,0,2,,,,,,,,,1,,,64,0
72660,note_on,54,0,2,,,,,,,,,1,,,64,36
72660,note_on,0,0,2,,,,,,,,,1,,,73,36
72666,note_on,0,0,2,,,,,,,,,1,,,64,0
72666,note_on,6,0,2,,,,,,,,,1,,,73,0
72720,note_on,0,0,2,,,,,,,,,1,,,64,36
72720,note_on,0,0,2,,,,,,,,,1,,,66,36
72720,note_on,0,0,1,,,,,,,,,0,,,85,36
72720,control_change,0,0,1,,,,,,,,,0,64,0,,
72720,note_on,120,0,1,,,,,,,,,0,,,78,0
72720,control_change,54,0,2,,,,,,,,,1,64,0,,
72726,note_on,6,0,2,,,,,,,,,1,,,66,0
72726,note_on,0,0,2,,,,,,,,,1,,,64,0
72780,control_change,54,0,2,,,,,,,,,1,64,127,,
72780,note_on,0,0,2,,,,,,,,,1,,,47,36
72780,note_on,60,0,1,,,,,,,,,0,,,85,0
72780,note_on,0,0,1,,,,,,,,,0,,,78,49
72780,control_change,0,0,1,,,,,,,,,0,64,127,,
72786,note_on,6,0,2,,,,,,,,,1,,,47,0
72840,note_on,60,0,1,,,,,,,,,0,,,78,0
72840,note_on,0,0,2,,,,,,,,,1,,,66,36
72840,note_on,54,0,2,,,,,,,,,1,,,63,36
72840,note_on,0,0,1,,,,,,,,,0,,,80,49
72846,note_on,0,0,2,,,,,,,,,1,,,63,0
72846,note_on,6,0,2,,,,,,,,,1,,,66,0
72900,note_on,54,0,2,,,,,,,,,1,,,63,36
72900,note_on,0,0,2,,,,,,,,,1,,,66,36
72900,note_on,60,0,1,,,,,,,,,0,,,80,0
72900,note_on,0,0,1,,,,,,,,,0,,,77,49
72906,note_on,6,0,2,,,,,,,,,1,,,66,0
72906,note_on,0,0,2,,,,,,,,,1,,,63,0
72960,note_on,54,0,2,,,,,,,,,1,,,63,49
72960,note_on,0,0,2,,,,,,,,,1,,,66,49
72960,note_on,60,0,1,,,,,,,,,0,,,77,0
72960,note_on,0,0,1,,,,,,,,,0,,,78,62
72966,note_on,6,0,2,,,,,,,,,1,,,66,0
72966,note_on,0,0,2,,,,,,,,,1,,,63,0
73020,note_on,0,0,2,,,,,,,,,1,,,71,49
73020,note_on,54,0,2,,,,,,,,,1,,,63,49
73026,note_on,0,0,2,,,,,,,,,1,,,63,0
73026,note_on,6,0,2,,,,,,,,,1,,,71,0
73080,control_change,0,0,1,,,,,,,,,0,64,0,,
73080,note_on,120,0,1,,,,,,,,,0,,,78,0
73080,note_on,0,0,2,,,,,,,,,1,,,63,49
73080,note_on,0,0,2,,,,,,,,,1,,,66,49
73080,control_change,54,0,2,,,,,,,,,1,64,0,,
73080,note_on,0,0,1,,,,,,,,,0,,,87,62
73086,note_on,0,0,2,,,,,,,,,1,,,63,0
73086,note_on,6,0,2,,,,,,,,,1,,,66,0
73140,note_on,0,0,2,,,,,,,,,1,,,54,62
73140,control_change,54,0,2,,,,,,,,,1,64,127,,
73140,note_on,0,0,1,,,,,,,,,0,,,87,75
73140,note_on,60,0,1,,,,,,,,,0,,,87,0
73146,note_on,6,0,2,,,,,,,,,1,,,54,0
73200,note_on,0,0,2,,,,,,,,,1,,,70,62
73200,note_on,54,0,2,,,,,,,,,1,,,64,62
73206,note_on,0,0,2,,,,,,,,,1,,,64,0
73206,note_on,6,0,2,,,,,,,,,1,,,70,0
73260,note_on,0,0,1,,,,,,,,,0,,,85,75
73260,note_on,120,0,1,,,,,,,,,0,,,87,0
73260,control_change,54,0,2,,,,,,,,,1,64,0,,
73260,note_on,0,0,2,,,,,,,,,1,,,70,62
73260,note_on,0,0,2,,,,,,,,,1,,,66,62
73266,note_on,0,0,2,,,,,,,,,1,,,66,0
73266,note_on,6,0,2,,,,,,,,,1,,,70,0
73320,note_on,0,0,2,,,,,,,,,1,,,63,62
73320,note_on,0,0,2,,,,,,,,,1,,,71,62
73320,note_on,60,0,1,,,,,,,,,0,,,85,0
73320,note_on,0,0,1,,,,,,,,,0,,,83,75
73320,note_on,54,0,2,,,,,,,,,1,,,59,62
73440,note_on,120,0,1,,,,,,,,,0,,,83,0
73440,note_on,120,0,2,,,,,,,,,1,,,71,0
73440,note_on,0,0,2,,,,,,,,,1,,,63,0
73440,note_on,0,0,2,,,,,,,,,1,,,59,0
73440,note_on,0,0,2,,,,,,,,,1,,,47,88
73440,note_on,0,0,1,,,,,,,,,0,,,59,101
73470,note_on,0,0,1,,,,,,,,,0,,,61,101
73470,note_on,30,0,1,,,,,,,,,0,,,59,0
73470,note_on,30,0,2,,,,,,,,,1,,,47,0
73470,note_on,0,0,2,,,,,,,,,1,,,49,88
73500,control_change,0,0,2,,,,,,,,,1,64,127,,
73500,note_on,30,0,2,,,,,,,,,1,,,49,0
73500,note_on,0,0,2,,,,,,,,,1,,,50,114
73500,control_change,0,0,1,,,,,,,,,0,64,127,,
73500,note_on,30,0,1,,,,,,,,,0,,,61,0
73500,note_on,0,0,1,,,,,,,,,0,,,62,127
73620,note_on,0,0,1,,,,,,,,,0,,,61,101
73620,note_on,120,0,2,,,,,,,,,1,,,50,0
73620,note_on,0,0,2,,,,,,,,,1,,,49,88
73620,note_on,120,0,1,,,,,,,,,0,,,62,0
73650,control_change,0,0,2,,,,,,,,,1,64,0,,
73650,note_on,0,0,2,,,,,,,,,1,,,50,88
73650,note_on,30,0,2,,,,,,,,,1,,,49,0
73650,note_on,0,0,1,,,,,,,,,0,,,62,101
73650,control_change,0,0,1,,,,,,,,,0,64,0,,
73650,note_on,30,0,1,,,,,,,,,0,,,61,0
73680,note_on,0,0,1,,,,,,,,,0,,,64,127
73680,control_change,0,0,1,,,,,,,,,0,64,127,,
73680,note_on,30,0,1,,,,,,,,,0,,,62,0
73680,note_on,0,0,3,,,,,,,,,2,,,52,75
73680,note_on,30,0,2,,,,,,,,,1,,,50,0
73680,control_change,1674,0,3,,,,,,,,,2,64,127,,
73800,note_on,0,0,1,,,,,,,,,0,,,62,101
73800,note_on,120,0,1,,,,,,,,,0,,,64,0
73800,note_on,0,0,3,,,,,,,,,2,,,50,49
73800,note_on,120,0,3,,,,,,,,,2,,,52,0
73800,control_change,0,0,1,,,,,,,,,0,64,0,,
73830,note_on,0,0,3,,,,,,,,,2,,,52,49
73830,note_on,30,0,3,,,,,,,,,2,,,50,0
73830,control_change,0,0,3,,,,,,,,,2,64,0,,
73830,note_on,0,0,1,,,,,,,,,0,,,64,101
73830,note_on,30,0,1,,,,,,,,,0,,,62,0
73860,note_on,0,0,1,,,,,,,,,0,,,66,127
73860,note_on,30,0,1,,,,,,,,,0,,,64,0
73860,note_on,0,0,3,,,,,,,,,2,,,54,75
73860,control_change,0,0,3,,,,,,,,,2,64,127,,
73860,control_change,0,0,1,,,,,,,,,0,64,127,,
73860,note_on,30,0,3,,,,,,,,,2,,,52,0
73980,note_on,120,0,3,,,,,,,,,2,,,54,0
73980,note_on,0,0,3,,,,,,,,,2,,,52,49
73980,note_on,120,0,1,,,,,,,,,0,,,66,0
73980,note_on,0,0,1,,,,,,,,,0,,,64,101
74010,note_on,0,0,1,,,,,,,,,0,,,66,101
74010,note_on,30,0,3,,,,,,,,,2,,,52,0
74010,note_on,30,0,1,,,,,,,,,0,,,64,0
74010,note_on,0,0,3,,,,,,,,,2,,,54,49
74040,note_on,30,0,1,,,,,,,,,0,,,66,0
74040,control_change,0,0,1,,,,,,,,,0,64,0,,
74040,note_on,0,0,3,,,,,,,,,2,,,55,49
74040,note_on,0,0,1,,,,,,,,,0,,,67,101
74040,control_change,0,0,3,,,,,,,,,2,64,0,,
74040,note_on,30,0,3,,,,,,,,,2,,,54,0
74046,note_on,6,0,1,,,,,,,,,0,,,67,0
74046,note_on,6,0,3,,,,,,,,,2,,,55,0
74100,note_on,54,0,3,,,,,,,,,2,,,54,49
74100,note_on,54,0,1,,,,,,,,,0,,,66,101
74106,note_on,6,0,3,,,,,,,,,2,,,54,0
74106,note_on,6,0,1,,,,,,,,,0,,,66,0
74160,note_on,54,0,3,,,,,,,,,2,,,53,49
74160,note_on,54,0,1,,,,,,,,,0,,,65,101
74166,note_on,6,0,3,,,,,,,,,2,,,53,0
74166,note_on,6,0,1,,,,,,,,,0,,,65,0
74220,note_on,0,0,3,,,,,,,,,2,,,54,75
74220,control_change,54,0,1,,,,,,,,,0,64,127,,
74220,note_on,0,0,1,,,,,,,,,0,,,66,127
74220,control_change,54,0,3,,,,,,,,,2,64,127,,
74340,note_on,120,0,3,,,,,,,,,2,,,54,0
74340,note_on,0,0,3,,,,,,,,,2,,,52,49
74340,note_on,120,0,1,,,,,,,,,0,,,66,0
74340,note_on,0,0,1,,,,,,,,,0,,,64,101
74370,note_on,30,0,1,,,,,,,,,0,,,64,0
74370,note_on,0,0,1,,,,,,,,,0,,,66,101
74370,note_on,0,0,3,,,,,,,,,2,,,54,49
74370,note_on,30,0,3,,,,,,,,,2,,,52,0
74400,note_on,0,0,1,,,,,,,,,0,,,67,101
74400,control_change,0,0,1,,,,,,,,,0,64,0,,
74400,note_on,30,0,1,,,,,,,,,0,,,66,0
74400,note_on,0,0,3,,,,,,,,,2,,,55,49
74400,control_change,0,0,3,,,,,,,,,2,64,0,,
74400,note_on,30,0,3,,,,,,,,,2,,,54,0
74406,note_on,6,0,3,,,,,,,,,2,,,55,0
74406,note_on,6,0,1,,,,,,,,,0,,,67,0
74460,note_on,54,0,3,,,,,,,,,2,,,54,49
74460,note_on,54,0,1,,,,,,,,,0,,,66,101
74466,note_on,6,0,3,,,,,,,,,2,,,54,0
74466,note_on,6,0,1,,,,,,,,,0,,,66,0
74520,note_on,54,0,1,,,,,,,,,0,,,65,101
74520,note_on,54,0,3,,,,,,,,,2,,,53,49
74526,note_on,6,0,1,,,,,,,,,0,,,65,0
74526,note_on,6,0,3,,,,,,,,,2,,,53,0
74580,note_on,54,0,1,,,,,,,,,0,,,66,127
74580,note_on,54,0,3,,,,,,,,,2,,,54,75
74700,note_on,120,0,1,,,,,,,,,0,,,66,0
74700,note_on,120,0,3,,,,,,,,,2,,,54,0
74760,control_change,60,0,1,,,,,,,,,0,64,127,,
74760,note_on,0,0,1,,,,,,,,,0,,,80,49
74760,note_on,0,0,1,,,,,,,,,0,,,87,49
74760,note_on,0,0,3,,,,,,,,,2,,,71,36
74760,note_on,0,0,3,,,,,,,,,2,,,65,36
74760,control_change,60,0,3,,,,,,,,,2,64,127,,
74766,note_on,6,0,1,,,,,,,,,0,,,87,0
74766,note_on,0,0,1,,,,,,,,,0,,,80,0
74766,note_on,0,0,3,,,,,,,,,2,,,65,0
74766,note_on,6,0,3,,,,,,,,,2,,,71,0
74820,note_on,54,0,3,,,,,,,,,2,,,65,36
74820,note_on,0,0,3,,,,,,,,,2,,,73,36
74820,note_on,54,0,1,,,,,,,,,0,,,80,49
74820,note_on,0,0,1,,,,,,,,,0,,,85,49
74826,note_on,0,0,3,,,,,,,,,2,,,65,0
74826,note_on,6,0,1,,,,,,,,,0,,,85,0
74826,note_on,0,0,1,,,,,,,,,0,,,80,0
74826,note_on,6,0,3,,,,,,,,,2,,,73,0
74880,note_on,54,0,3,,,,,,,,,2,,,65,36
74880,note_on,0,0,3,,,,,,,,,2,,,75,36
74880,note_on,0,0,1,,,,,,,,,0,,,83,49
74880,note_on,54,0,1,,,,,,,,,0,,,80,49
74886,note_on,0,0,3,,,,,,,,,2,,,65,0
74886,note_on,6,0,3,,,,,,,,,2,,,75,0
74886,note_on,0,0,1,,,,,,,,,0,,,80,0
74886,note_on,6,0,1,,,,,,,,,0,,,83,0
74940,note_on,0,0,3,,,,,,,,,2,,,75,36
74940,note_on,0,0,3,,,,,,,,,2,,,66,36
74940,control_change,54,0,3,,,,,,,,,2,64,0,,
74940,control_change,54,0,1,,,,,,,,,0,64,0,,
74940,note_on,0,0,1,,,,,,,,,0,,,78,49
75120,note_on,0,0,1,,,,,,,,,0,,,82,49
75120,note_on,0,0,1,,,,,,,,,0,,,76,49
75120,note_on,180,0,1,,,,,,,,,0,,,78,0
75120,note_on,0,0,3,,,,,,,,,2,,,73,36
75120,note_on,180,0,3,,,,,,,,,2,,,75,0
75300,note_on,0,0,3,,,,,,,,,2,,,71,36
75300,note_on,0,0,3,,,,,,,,,2,,,66,0
75300,note_on,180,0,1,,,,,,,,,0,,,82,0
75300,note_on,0,0,1,,,,,,,,,0,,,76,0
75300,note_on,0,0,1,,,,,,,,,0,,,75,49
75300,note_on,0,0,1,,,,,,,,,0,,,83,49
75300,note_on,180,0,3,,,,,,,,,2,,,73,0
75300,note_on,0,0,3,,,,,,,,,2,,,59,36
75420,note_on,120,0,1,,,,,,,,,0,,,83,0
75420,note_on,0,0,1,,,,,,,,,0,,,75,0
75420,note_on,0,0,1,,,,,,,,,0,,,64,101
75420,note_on,120,0,3,,,,,,,,,2,,,71,0
75420,note_on,0,0,3,,,,,,,,,2,,,59,0
75420,note_on,0,0,3,,,,,,,,,2,,,52,88
75450,note_on,30,0,1,,,,,,,,,0,,,64,0
75450,note_on,30,0,3,,,,,,,,,2,,,52,0
75450,note_on,0,0,3,,,,,,,,,2,,,54,88
75450,note_on,0,0,1,,,,,,,,,0,,,66,101
75480,note_on,30,0,3,,,,,,,,,2,,,54,0
75480,control_change,0,0,3,,,,,,,,,2,64,0,,
75480,note_on,0,0,3,,,,,,,,,2,,,55,88
75480,note_on,30,0,1,,,,,,,,,0,,,66,0
75480,control_change,0,0,1,,,,,,,,,0,64,0,,
75480,note_on,0,0,1,,,,,,,,,0,,,67,101
75486,note_on,6,0,1,,,,,,,,,0,,,67,0
75486,note_on,6,0,3,,,,,,,,,2,,,55,0
75540,note_on,54,0,3,,,,,,,,,2,,,54,88
75540,note_on,54,0,1,,,,,,,,,0,,,66,101
75546,note_on,6,0,1,,,,,,,,,0,,,66,0
75546,note_on,6,0,3,,,,,,,,,2,,,54,0
75600,note_on,54,0,3,,,,,,,,,2,,,53,88
75600,note_on,54,0,1,,,,,,,,,0,,,65,101
75606,note_on,6,0,1,,,,,,,,,0,,,65,0
75606,note_on,6,0,3,,,,,,,,,2,,,53,0
75660,note_on,0,0,3,,,,,,,,,2,,,54,114
75660,note_on,0,0,1,,,,,,,,,0,,,66,127
75660,control_change,54,0,1,,,,,,,,,0,64,127,,
75660,control_change,54,0,3,,,,,,,,,2,64,127,,
75780,note_on,120,0,3,,,,,,,,,2,,,54,0
75780,note_on,0,0,3,,,,,,,,,2,,,52,88
75780,note_on,120,0,1,,,,,,,,,0,,,66,0
75780,note_on,0,0,1,,,,,,,,,0,,,64,101
75810,note_on,30,0,1,,,,,,,,,0,,,64,0
75810,note_on,30,0,3,,,,,,,,,2,,,52,0
75810,note_on,0,0,3,,,,,,,,,2,,,54,88
75810,note_on,0,0,1,,,,,,,,,0,,,66,101
75840,note_on,0,0,1,,,,,,,,,0,,,67,101
75840,note_on,30,0,3,,,,,,,,,2,,,54,0
75840,control_change,0,0,3,,,,,,,,,2,64,0,,
75840,control_change,0,0,1,,,,,,,,,0,64,0,,
75840,note_on,0,0,3,,,,,,,,,2,,,55,88
75840,note_on,30,0,1,,,,,,,,,0,,,66,0
75846,note_on,6,0,1,,,,,,,,,0,,,67,0
75846,note_on,6,0,3,,,,,,,,,2,,,55,0
75900,note_on,54,0,1,,,,,,,,,0,,,66,101
75900,note_on,54,0,3,,,,,,,,,2,,,54,88
75906,note_on,6,0,3,,,,,,,,,2,,,54,0
75906,note_on,6,0,1,,,,,,,,,0,,,66,0
75960,note_on,54,0,3,,,,,,,,,2,,,53,88
75960,note_on,54,0,1,,,,,,,,,0,,,65,101
75966,note_on,6,0,3,,,,,,,,,2,,,53,0
75966,note_on,6,0,1,,,,,,,,,0,,,65,0
76020,note_on,54,0,3,,,,,,,,,2,,,54,114
76020,note_on,54,0,1,,,,,,,,,0,,,66,127
76140,note_on,120,0,1,,,,,,,,,0,,,66,0
76140,note_on,120,0,3,,,,,,,,,2,,,54,0
76200,control_change,60,0,3,,,,,,,,,2,64,127,,
76200,note_on,0,0,1,,,,,,,,,0,,,90,36
76200,note_on,0,0,1,,,,,,,,,0,,,83,36
76200,control_change,60,0,1,,,,,,,,,0,64,127,,
76200,note_on,0,0,3,,,,,,,,,2,,,68,36
76200,note_on,0,0,3,,,,,,,,,2,,,74,36
76206,note_on,0,0,1,,,,,,,,,0,,,83,0
76206,note_on,6,0,1,,,,,,,,,0,,,90,0
76206,note_on,0,0,3,,,,,,,,,2,,,68,0
76206,note_on,6,0,3,,,,,,,,,2,,,74,0
76260,note_on,0,0,1,,,,,,,,,0,,,88,36
76260,note_on,0,0,3,,,,,,,,,2,,,76,36
76260,note_on,54,0,1,,,,,,,,,0,,,83,36
76260,note_on,54,0,3,,,,,,,,,2,,,68,36
76266,note_on,6,0,3,,,,,,,,,2,,,76,0
76266,note_on,0,0,1,,,,,,,,,0,,,83,0
76266,note_on,0,0,3,,,,,,,,,2,,,68,0
76266,note_on,6,0,1,,,,,,,,,0,,,88,0
76320,control_change,54,0,3,,,,,,,,,2,64,0,,
76320,note_on,0,0,3,,,,,,,,,2,,,68,36
76320,note_on,0,0,3,,,,,,,,,2,,,78,36
76320,control_change,54,0,1,,,,,,,,,0,64,0,,
76320,note_on,0,0,1,,,,,,,,,0,,,83,36
76320,note_on,0,0,1,,,,,,,,,0,,,86,36
76326,note_on,0,0,1,,,,,,,,,0,,,83,0
76326,note_on,6,0,3,,,,,,,,,2,,,78,0
76326,note_on,0,0,3,,,,,,,,,2,,,68,0
76326,note_on,6,0,1,,,,,,,,,0,,,86,0
76380,note_on,54,0,3,,,,,,,,,2,,,69,36
76380,note_on,54,0,1,,,,,,,,,0,,,81,36
76380,note_on,0,0,3,,,,,,,,,2,,,78,36
76560,note_on,180,0,1,,,,,,,,,0,,,81,0
76560,note_on,0,0,3,,,,,,,,,2,,,76,36
76560,note_on,180,0,3,,,,,,,,,2,,,78,0
76560,note_on,0,0,3,,,,,,,,,2,,,69,0
76560,note_on,0,0,3,,,,,,,,,2,,,70,36
76560,note_on,0,0,1,,,,,,,,,0,,,79,36
76560,note_on,0,0,1,,,,,,,,,0,,,85,36
76740,note_on,0,0,3,,,,,,,,,2,,,74,36
76740,note_on,0,0,3,,,,,,,,,2,,,71,36
76740,note_on,180,0,3,,,,,,,,,2,,,76,0
76740,note_on,180,0,1,,,,,,,,,0,,,85,0
76740,note_on,0,0,3,,,,,,,,,2,,,70,0
76740,note_on,0,0,1,,,,,,,,,0,,,78,36
76740,note_on,0,0,1,,,,,,,,,0,,,86,36
76740,note_on,0,0,1,,,,,,,,,0,,,79,0
76860,note_on,120,0,1,,,,,,,,,0,,,86,0
76860,note_on,0,0,1,,,,,,,,,0,,,78,0
76860,note_on,120,0,3,,,,,,,,,2,,,74,0
76860,note_on,0,0,3,,,,,,,,,2,,,71,0
76920,control_change,60,0,1,,,,,,,,,0,64,127,,
76920,note_on,0,0,1,,,,,,,,,0,,,80,49
76920,note_on,0,0,1,,,,,,,,,0,,,87,49
76920,control_change,60,0,3,,,,,,,,,2,64,127,,
76920,note_on,0,0,3,,,,,,,,,2,,,65,36
76920,note_on,0,0,3,,,,,,,,,2,,,71,36
76926,note_on,0,0,3,,,,,,,,,2,,,65,0
76926,note_on,6,0,3,,,,,,,,,2,,,71,0
76926,note_on,0,0,1,,,,,,,,,0,,,80,0
76926,note_on,6,0,1,,,,,,,,,0,,,87,0
76980,note_on,54,0,3,,,,,,,,,2,,,65,36
76980,note_on,0,0,3,,,,,,,,,2,,,73,36
76980,note_on,0,0,1,,,,,,,,,0,,,85,49
76980,note_on,54,0,1,,,,,,,,,0,,,80,49
76986,note_on,0,0,3,,,,,,,,,2,,,65,0
76986,note_on,6,0,1,,,,,,,,,0,,,85,0
76986,note_on,6,0,3,,,,,,,,,2,,,73,0
76986,note_on,0,0,1,,,,,,,,,0,,,80,0
77040,note_on,54,0,3,,,,,,,,,2,,,65,36
77040,note_on,54,0,1,,,,,,,,,0,,,80,49
77040,note_on,0,0,1,,,,,,,,,0,,,83,49
77040,note_on,0,0,3,,,,,,,,,2,,,75,36
77046,note_on,6,0,1,,,,,,,,,0,,,83,0
77046,note_on,6,0,3,,,,,,,,,2,,,75,0
77046,note_on,0,0,1,,,,,,,,,0,,,80,0
77046,note_on,0,0,3,,,,,,,,,2,,,65,0
77100,note_on,0,0,1,,,,,,,,,0,,,78,49
77100,control_change,54,0,3,,,,,,,,,2,64,0,,
77100,note_on,0,0,3,,,,,,,,,2,,,66,36
77100,note_on,0,0,3,,,,,,,,,2,,,75,36
77100,control_change,54,0,1,,,,,,,,,0,64,0,,
77280,note_on,180,0,1,,,,,,,,,0,,,78,0
77280,note_on,0,0,1,,,,,,,,,0,,,76,49
77280,note_on,180,0,3,,,,,,,,,2,,,75,0
77280,note_on,0,0,3,,,,,,,,,2,,,73,36
77280,note_on,0,0,1,,,,,,,,,0,,,82,49
77460,note_on,0,0,1,,,,,,,,,0,,,83,49
77460,note_on,0,0,1,,,,,,,,,0,,,75,49
77460,note_on,0,0,1,,,,,,,,,0,,,76,0
77460,note_on,180,0,1,,,,,,,,,0,,,82,0
77460,note_on,180,0,3,,,,,,,,,2,,,73,0
77460,note_on,0,0,3,,,,,,,,,2,,,59,36
77460,note_on,0,0,3,,,,,,,,,2,,,66,0
77460,note_on,0,0,3,,,,,,,,,2,,,71,36
77580,note_on,120,0,3,,,,,,,,,2,,,71,0
77580,note_on,0,0,3,,,,,,,,,2,,,59,0
77580,note_on,120,0,1,,,,,,,,,0,,,83,0
77580,note_on,0,0,1,,,,,,,,,0,,,59,49
77580,note_on,0,0,1,,,,,,,,,0,,,75,0
77580,note_on,0,0,3,,,,,,,,,2,,,47,36
77610,note_on,30,0,3,,,,,,,,,2,,,47,0
77610,note_on,0,0,1,,,,,,,,,0,,,61,49
77610,note_on,0,0,3,,,,,,,,,2,,,49,36
77610,note_on,30,0,1,,,,,,,,,0,,,59,0
77640,note_on,30,0,3,,,,,,,,,2,,,49,0
77640,note_on,0,0,3,,,,,,,,,2,,,51,36
77640,note_on,0,0,1,,,,,,,,,0,,,63,49
77640,note_on,30,0,1,,,,,,,,,0,,,61,0
77700,note_on,0,0,1,,,,,,,,,0,,,61,49
77700,note_on,60,0,3,,,,,,,,,2,,,51,0
77700,note_on,0,0,3,,,,,,,,,2,,,49,36
77700,note_on,60,0,1,,,,,,,,,0,,,63,0
77706,note_on,6,0,3,,,,,,,,,2,,,49,0
77706,note_on,6,0,1,,,,,,,,,0,,,61,0
77760,note_on,54,0,1,,,,,,,,,0,,,59,49
77760,note_on,54,0,3,,,,,,,,,2,,,47,36
77766,note_on,6,0,1,,,,,,,,,0,,,59,0
77766,note_on,6,0,3,,,,,,,,,2,,,47,0
77820,note_on,0,0,1,,,,,,,,,0,,,61,70
77820,note_on,0,0,1,,,,,,,,,0,,,67,75
77820,note_on,54,0,1,,,,,,,,,0,,,58,65
77820,note_on,54,0,3,,,,,,,,,2,,,52,62
77880,set_tempo,13800,1,0,,,,,,444444,,,,,,,
77940,set_tempo,60,1,0,,,,,,454545,,,,,,,
78000,note_on,0,0,3,,,,,,,,,2,,,54,36
78000,note_on,180,0,3,,,,,,,,,2,,,52,0
78000,note_on,180,0,1,,,,,,,,,0,,,67,0
78000,note_on,0,0,1,,,,,,,,,0,,,66,49
78000,set_tempo,60,1,0,,,,,,465116,,,,,,,
78060,set_tempo,60,1,0,,,,,,480000,,,,,,,
78120,set_tempo,60,1,0,,,,,,491803,,,,,,,
78180,set_tempo,60,1,0,,,,,,504202,,,,,,,
78180,note_on,0,0,1,,,,,,,,,0,,,58,0
78180,note_on,0,0,3,,,,,,,,,2,,,54,36
78180,note_on,0,0,3,,,,,,,,,2,,,47,36
78180,control_change,0,0,3,,,,,,,,,2,64,127,,
78180,note_on,180,0,3,,,,,,,,,2,,,54,0
78180,note_on,0,0,1,,,,,,,,,0,,,61,0
78180,note_on,0,0,1,,,,,,,,,0,,,63,49
78180,note_on,0,0,1,,,,,,,,,0,,,59,49
78180,control_change,0,0,1,,,,,,,,,0,64,127,,
78180,note_on,180,0,1,,,,,,,,,0,,,66,0
78240,set_tempo,60,1,0,,,,,,517241,,,,,,,
78300,note_on,120,0,1,,,,,,,,,0,,,63,0
78300,note_on,0,0,1,,,,,,,,,0,,,59,0
78300,note_on,0,0,1,,,,,,,,,0,,,47,49
78300,end_of_track,0,1,0,,,,,,,,,,,,,
78300,set_tempo,60,1,0,,,,,,535714,,,,,,,
78300,note_on,120,0,3,,,,,,,,,2,,,54,0
78300,note_on,0,0,3,,,,,,,,,2,,,47,0
78300,note_on,0,0,3,,,,,,,,,2,,,35,36
78330,note_on,0,0,1,,,,,,,,,0,,,49,49
78330,control_change,0,0,1,,,,,,,,,0,64,0,,
78330,control_change,0,0,3,,,,,,,,,2,64,0,,
78330,note_on,0,0,3,,,,,,,,,2,,,37,36
78330,note_on,30,0,1,,,,,,,,,0,,,47,0
78330,note_on,30,0,3,,,,,,,,,2,,,35,0
78360,note_on,30,0,3,,,,,,,,,2,,,37,0
78360,note_on,0,0,1,,,,,,,,,0,,,51,49
78360,note_on,0,0,3,,,,,,,,,2,,,39,36
78360,note_on,30,0,1,,,,,,,,,0,,,49,0
78420,note_on,60,0,1,,,,,,,,,0,,,51,0
78420,note_on,0,0,1,,,,,,,,,0,,,49,49
78420,note_on,0,0,3,,,,,,,,,2,,,37,36
78420,note_on,60,0,3,,,,,,,,,2,,,39,0
78426,note_on,6,0,3,,,,,,,,,2,,,37,0
78426,note_on,6,0,1,,,,,,,,,0,,,49,0
78480,note_on,54,0,1,,,,,,,,,0,,,47,49
78480,note_on,54,0,3,,,,,,,,,2,,,35,36
78486,note_on,6,0,3,,,,,,,,,2,,,35,0
78486,note_on,6,0,1,,,,,,,,,0,,,47,0
78540,note_on,54,0,3,,,,,,,,,2,,,40,62
78540,note_on,54,0,1,,,,,,,,,0,,,46,65
78540,note_on,0,0,1,,,,,,,,,0,,,49,70
78540,note_on,0,0,1,,,,,,,,,0,,,55,75
78720,note_on,0,0,1,,,,,,,,,0,,,54,49
78720,note_on,180,0,1,,,,,,,,,0,,,55,0
78720,note_on,0,0,3,,,,,,,,,2,,,42,36
78720,note_on,180,0,3,,,,,,,,,2,,,40,0
78900,note_on,0,0,1,,,,,,,,,0,,,46,0
78900,note_on,0,0,1,,,,,,,,,0,,,49,0
78900,note_on,180,0,1,,,,,,,,,0,,,54,0
78900,note_on,180,0,3,,,,,,,,,2,,,42,0
78900,control_change,0,0,3,,,,,,,,,2,64,127,,
78900,note_on,0,0,3,,,,,,,,,2,,,35,36
78900,note_on,0,0,1,,,,,,,,,0,,,47,49
78900,control_change,0,0,1,,,,,,,,,0,64,127,,
79020,note_on,120,0,1,,,,,,,,,0,,,47,0
79020,note_on,120,0,3,,,,,,,,,2,,,35,0
79080,note_on,0,0,3,,,,,,,,,2,,,35,101
79080,note_on,0,0,3,,,,,,,,,2,,,47,101
79080,control_change,60,0,1,,,,,,,,,0,64,0,,
79080,note_on,0,0,1,,,,,,,,,0,,,71,101
79080,note_on,0,0,1,,,,,,,,,0,,,75,101
79080,note_on,0,0,1,,,,,,,,,0,,,78,101
79080,note_on,0,0,1,,,,,,,,,0,,,83,101
79080,control_change,60,0,3,,,,,,,,,2,64,0,,
79260,note_on,0,0,1,,,,,,,,,0,,,71,0
79260,note_on,0,0,1,,,,,,,,,0,,,75,0
79260,note_on,180,0,3,,,,,,,,,2,,,47,0
79260,note_on,0,0,1,,,,,,,,,0,,,78,0
79260,note_on,0,0,3,,,,,,,,,2,,,35,0
79260,note_on,180,0,1,,,,,,,,,0,,,83,0
79620,control_change,360,0,1,,,,,,,,,0,64,0,,
79620,end_of_track,0,1,1,,,,,,,,,,,,,
79620,control_change,5940,0,2,,,,,,,,,1,64,0,,
79620,control_change,24840,0,4,,,,,,,,,3,64,0,,
79620,end_of_track,0,1,3,,,,,,,,,,,,,
79620,control_change,360,0,3,,,,,,,,,2,64,0,,
79620,end_of_track,0,1,2,,,,,,,,,,,,,
79620,end_of_track,0,1,4,,,,,,,,,,,,,
