tick,type,time,meta,track,numerator,denominator,clocks_per_click,notated_32nd_notes_per_beat,key,tempo,port,program,channel,control,value,note,velocity
0,track_name,0,1,0,,,,,,,,,,,,,
0,control_change,0,0,1,,,,,,,,,0,64,127,,
0,control_change,0,0,1,,,,,,,,,0,10,97,,
0,control_change,0,0,1,,,,,,,,,0,7,127,,
0,program_change,0,0,1,,,,,,,,0,0,,,,
0,track_name,0,1,1,,,,,,,,,,,,,
0,midi_port,0,1,1,,,,,,,0,,,,,,
0,control_change,0,0,2,,,,,,,,,1,7,127,,
0,program_change,0,0,2,,,,,,,,0,1,,,,
0,track_name,0,1,2,,,,,,,,,,,,,
0,midi_port,0,1,2,,,,,,,0,,,,,,
0,midi_port,0,1,4,,,,,,,0,,,,,,
0,track_name,0,1,4,,,,,,,,,,,,,
0,program_change,0,0,4,,,,,,,,0,3,,,,
0,note_on,0,0,1,,,,,,,,,0,,,69,36
0,control_change,0,0,4,,,,,,,,,3,7,127,,
0,control_change,0,0,2,,,,,,,,,1,10,97,,
0,note_on,0,0,3,,,,,,,,,2,,,57,36
0,control_change,0,0,3,,,,,,,,,2,64,127,,
0,control_change,0,0,3,,,,,,,,,2,10,30,,
0,control_change,0,0,3,,,,,,,,,2,7,127,,
0,program_change,0,0,3,,,,,,,,0,2,,,,
0,track_name,0,1,3,,,,,,,,,,,,,
0,midi_port,0,1,3,,,,,,,0,,,,,,
0,set_tempo,0,1,0,,,,,,416667,,,,,,,
0,key_signature,0,1,0,,,,,C,,,,,,,,
0,time_signature,0,1,0,4,4,24,8,,,,,,,,,
0,text,0,1,0,,,,,,,,,,,,,
0,copyright,0,1,0,,,,,,,,,,,,,
0,control_change,0,0,4,,,,,,,,,3,10,30,,
240,note_on,0,0,1,,,,,,,,,0,,,76,36
240,note_on,0,0,3,,,,,,,,,2,,,64,36
240,note_on,240,0,3,,,,,,,,,2,,,57,0
240,note_on,240,0,1,,,,,,,,,0,,,69,0
480,note_on,0,0,3,,,,,,,,,2,,,63,62
480,control_change,0,0,3,,,,,,,,,2,64,0,,
480,note_on,240,0,3,,,,,,,,,2,,,64,0
480,note_on,240,0,1,,,,,,,,,0,,,76,0
480,note_on,0,0,1,,,,,,,,,0,,,75,62
480,control_change,0,0,1,,,,,,,,,0,64,0,,
720,note_on,0,0,1,,,,,,,,,0,,,76,36
720,note_on,240,0,3,,,,,,,,,2,,,63,0
720,note_on,0,0,3,,,,,,,,,2,,,64,36
720,note_on,240,0,1,,,,,,,,,0,,,75,0
780,note_on,60,0,1,,,,,,,,,0,,,76,0
780,note_on,60,0,3,,,,,,,,,2,,,64,0
840,note_on,60,0,3,,,,,,,,,2,,,60,36
840,note_on,60,0,1,,,,,,,,,0,,,72,36
930,note_on,0,0,3,,,,,,,,,2,,,59,36
930,note_on,90,0,3,,,,,,,,,2,,,60,0
930,note_on,0,0,1,,,,,,,,,0,,,71,36
930,note_on,90,0,1,,,,,,,,,0,,,72,0
960,note_on,30,0,3,,,,,,,,,2,,,59,0
960,note_on,0,0,1,,,,,,,,,0,,,69,36
960,note_on,30,0,1,,,,,,,,,0,,,71,0
960,note_on,0,0,3,,,,,,,,,2,,,57,36
1200,note_on,240,0,3,,,,,,,,,2,,,57,0
1200,note_on,0,0,1,,,,,,,,,0,,,64,62
1200,note_on,0,0,1,,,,,,,,,0,,,59,57
1200,note_on,0,0,1,,,,,,,,,0,,,56,52
1200,note_on,240,0,1,,,,,,,,,0,,,69,0
1200,note_on,0,0,3,,,,,,,,,2,,,52,36
1440,note_on,0,0,3,,,,,,,,,2,,,48,36
1440,note_on,240,0,3,,,,,,,,,2,,,52,0
1440,note_on,0,0,1,,,,,,,,,0,,,60,36
1440,note_on,0,0,1,,,,,,,,,0,,,56,0
1440,note_on,0,0,1,,,,,,,,,0,,,59,0
1440,note_on,240,0,1,,,,,,,,,0,,,64,0
1680,note_on,0,0,1,,,,,,,,,0,,,57,36
1680,note_on,240,0,1,,,,,,,,,0,,,60,0
1680,note_on,240,0,3,,,,,,,,,2,,,48,0
1680,note_on,0,0,3,,,,,,,,,2,,,45,36
1740,note_on,60,0,3,,,,,,,,,2,,,45,0
1740,note_on,60,0,1,,,,,,,,,0,,,57,0
1920,note_on,0,0,3,,,,,,,,,2,,,45,36
1920,control_change,180,0,3,,,,,,,,,2,64,127,,
1920,control_change,180,0,1,,,,,,,,,0,64,127,,
1920,note_on,0,0,1,,,,,,,,,0,,,57,36
2160,note_on,0,0,3,,,,,,,,,2,,,38,36
2160,note_on,240,0,3,,,,,,,,,2,,,45,0
2160,note_on,0,0,1,,,,,,,,,0,,,65,36
2160,note_on,0,0,1,,,,,,,,,0,,,57,36
2160,note_on,240,0,1,,,,,,,,,0,,,57,0
2400,note_on,240,0,3,,,,,,,,,2,,,38,0
2400,control_change,0,0,3,,,,,,,,,2,64,0,,
2400,note_on,0,0,3,,,,,,,,,2,,,37,36
2400,note_on,240,0,1,,,,,,,,,0,,,65,0
2400,control_change,0,0,1,,,,,,,,,0,64,0,,
2400,note_on,0,0,1,,,,,,,,,0,,,57,0
2400,note_on,0,0,1,,,,,,,,,0,,,58,36
2400,note_on,0,0,1,,,,,,,,,0,,,67,36
2640,note_on,0,0,3,,,,,,,,,2,,,38,36
2640,note_on,240,0,3,,,,,,,,,2,,,37,0
2640,note_on,240,0,1,,,,,,,,,0,,,67,0
2640,note_on,0,0,1,,,,,,,,,0,,,58,0
2640,note_on,0,0,1,,,,,,,,,0,,,57,36
2640,note_on,0,0,1,,,,,,,,,0,,,65,36
2700,note_on,60,0,3,,,,,,,,,2,,,38,0
2700,note_on,0,0,1,,,,,,,,,0,,,57,0
2700,note_on,60,0,1,,,,,,,,,0,,,65,0
2760,note_on,60,0,1,,,,,,,,,0,,,57,36
2760,note_on,60,0,3,,,,,,,,,2,,,45,36
2850,note_on,0,0,3,,,,,,,,,2,,,47,36
2850,note_on,90,0,3,,,,,,,,,2,,,45,0
2850,note_on,0,0,1,,,,,,,,,0,,,59,36
2850,note_on,90,0,1,,,,,,,,,0,,,57,0
2880,note_on,0,0,1,,,,,,,,,0,,,60,36
2880,note_on,30,0,3,,,,,,,,,2,,,47,0
2880,note_on,0,0,3,,,,,,,,,2,,,48,36
2880,note_on,30,0,1,,,,,,,,,0,,,59,0
3120,note_on,0,0,1,,,,,,,,,0,,,56,52
3120,note_on,0,0,1,,,,,,,,,0,,,59,57
3120,note_on,0,0,1,,,,,,,,,0,,,64,62
3120,note_on,0,0,3,,,,,,,,,2,,,52,36
3120,note_on,0,0,3,,,,,,,,,2,,,40,36
3120,note_on,240,0,3,,,,,,,,,2,,,48,0
3120,note_on,240,0,1,,,,,,,,,0,,,60,0
3360,note_on,0,0,3,,,,,,,,,2,,,40,0
3360,note_on,240,0,3,,,,,,,,,2,,,52,0
3360,note_on,0,0,3,,,,,,,,,2,,,36,36
3360,note_on,0,0,1,,,,,,,,,0,,,59,0
3360,note_on,0,0,1,,,,,,,,,0,,,60,36
3360,note_on,0,0,1,,,,,,,,,0,,,48,36
3360,note_on,0,0,1,,,,,,,,,0,,,56,0
3360,note_on,240,0,1,,,,,,,,,0,,,64,0
3600,note_on,0,0,1,,,,,,,,,0,,,57,36
3600,note_on,0,0,1,,,,,,,,,0,,,48,0
3600,note_on,240,0,1,,,,,,,,,0,,,60,0
3600,note_on,0,0,3,,,,,,,,,2,,,45,36
3600,note_on,240,0,3,,,,,,,,,2,,,36,0
3600,note_on,0,0,3,,,,,,,,,2,,,33,36
3660,note_on,0,0,3,,,,,,,,,2,,,33,0
3660,note_on,60,0,3,,,,,,,,,2,,,45,0
3660,note_on,60,0,1,,,,,,,,,0,,,57,0
3840,note_on,180,0,3,,,,,,,,,2,,,38,52
3840,note_on,0,0,3,,,,,,,,,2,,,41,57
3840,note_on,0,0,3,,,,,,,,,2,,,45,62
4080,note_on,0,0,3,,,,,,,,,2,,,33,36
4080,note_on,0,0,3,,,,,,,,,2,,,41,0
4080,note_on,0,0,3,,,,,,,,,2,,,38,0
4080,note_on,240,0,3,,,,,,,,,2,,,45,0
4086,note_on,6,0,3,,,,,,,,,2,,,33,0
4320,note_on,234,0,3,,,,,,,,,2,,,36,52
4320,note_on,0,0,3,,,,,,,,,2,,,40,57
4320,note_on,0,0,3,,,,,,,,,2,,,45,62
4560,note_on,0,0,3,,,,,,,,,2,,,36,0
4560,note_on,240,0,3,,,,,,,,,2,,,45,0
4560,note_on,0,0,3,,,,,,,,,2,,,33,36
4560,note_on,0,0,3,,,,,,,,,2,,,40,0
4566,note_on,6,0,3,,,,,,,,,2,,,33,0
4680,note_on,1020,0,1,,,,,,,,,0,,,57,36
4800,note_on,234,0,3,,,,,,,,,2,,,38,36
4800,note_on,0,0,3,,,,,,,,,2,,,41,36
4800,note_on,0,0,3,,,,,,,,,2,,,45,36
4920,note_on,0,0,1,,,,,,,,,0,,,62,36
4920,note_on,240,0,1,,,,,,,,,0,,,57,0
5040,note_on,0,0,3,,,,,,,,,2,,,38,0
5040,note_on,0,0,3,,,,,,,,,2,,,41,0
5040,note_on,240,0,3,,,,,,,,,2,,,45,0
5040,note_on,120,0,1,,,,,,,,,0,,,62,0
5040,note_on,0,0,1,,,,,,,,,0,,,64,36
5040,note_on,0,0,3,,,,,,,,,2,,,33,36
5100,note_on,60,0,3,,,,,,,,,2,,,33,0
5160,note_on,120,0,1,,,,,,,,,0,,,64,0
5160,note_on,0,0,1,,,,,,,,,0,,,65,36
5280,note_on,0,0,1,,,,,,,,,0,,,64,36
5280,note_on,120,0,1,,,,,,,,,0,,,65,0
5280,note_on,0,0,3,,,,,,,,,2,,,45,36
5280,note_on,0,0,3,,,,,,,,,2,,,40,36
5280,note_on,180,0,3,,,,,,,,,2,,,36,36
5520,note_on,240,0,3,,,,,,,,,2,,,45,0
5520,note_on,0,0,3,,,,,,,,,2,,,40,0
5520,note_on,0,0,3,,,,,,,,,2,,,36,0
5520,note_on,0,0,3,,,,,,,,,2,,,33,36
5520,note_on,240,0,1,,,,,,,,,0,,,64,0
5520,note_on,0,0,1,,,,,,,,,0,,,57,36
5580,note_on,60,0,3,,,,,,,,,2,,,33,0
5580,note_on,60,0,1,,,,,,,,,0,,,57,0
5640,note_on,60,0,1,,,,,,,,,0,,,67,36
5760,note_on,0,0,3,,,,,,,,,2,,,45,36
5760,note_on,120,0,1,,,,,,,,,0,,,67,0
5760,note_on,0,0,1,,,,,,,,,0,,,65,36
5760,note_on,180,0,3,,,,,,,,,2,,,38,36
5760,note_on,0,0,3,,,,,,,,,2,,,41,36
6000,note_on,0,0,3,,,,,,,,,2,,,33,36
6000,note_on,0,0,1,,,,,,,,,0,,,57,36
6000,note_on,0,0,3,,,,,,,,,2,,,38,0
6000,note_on,0,0,3,,,,,,,,,2,,,41,0
6000,note_on,240,0,1,,,,,,,,,0,,,65,0
6000,note_on,240,0,3,,,,,,,,,2,,,45,0
6060,note_on,60,0,1,,,,,,,,,0,,,57,0
6060,note_on,60,0,3,,,,,,,,,2,,,33,0
6120,note_on,60,0,1,,,,,,,,,0,,,65,36
6240,note_on,120,0,1,,,,,,,,,0,,,65,0
6240,note_on,180,0,3,,,,,,,,,2,,,36,36
6240,note_on,0,0,1,,,,,,,,,0,,,64,36
6240,note_on,0,0,3,,,,,,,,,2,,,40,36
6240,note_on,0,0,3,,,,,,,,,2,,,45,36
6480,note_on,0,0,3,,,,,,,,,2,,,36,0
6480,note_on,0,0,3,,,,,,,,,2,,,40,0
6480,note_on,240,0,3,,,,,,,,,2,,,45,0
6480,note_on,0,0,3,,,,,,,,,2,,,33,36
6480,note_on,240,0,1,,,,,,,,,0,,,64,0
6480,note_on,0,0,1,,,,,,,,,0,,,57,36
6540,note_on,60,0,3,,,,,,,,,2,,,33,0
6540,note_on,60,0,1,,,,,,,,,0,,,57,0
6600,note_on,0,0,1,,,,,,,,,0,,,69,36
6600,note_on,60,0,1,,,,,,,,,0,,,57,36
6720,note_on,0,0,3,,,,,,,,,2,,,57,36
6720,note_on,180,0,3,,,,,,,,,2,,,50,36
6720,note_on,0,0,3,,,,,,,,,2,,,53,36
6840,note_on,0,0,1,,,,,,,,,0,,,74,49
6840,note_on,240,0,1,,,,,,,,,0,,,69,0
6840,note_on,0,0,1,,,,,,,,,0,,,57,0
6840,note_on,0,0,1,,,,,,,,,0,,,62,49
6960,note_on,0,0,1,,,,,,,,,0,,,62,0
6960,note_on,0,0,3,,,,,,,,,2,,,45,36
6960,note_on,0,0,3,,,,,,,,,2,,,50,0
6960,note_on,0,0,3,,,,,,,,,2,,,53,0
6960,note_on,240,0,3,,,,,,,,,2,,,57,0
6960,note_on,120,0,1,,,,,,,,,0,,,74,0
6960,note_on,0,0,1,,,,,,,,,0,,,64,49
6960,note_on,0,0,1,,,,,,,,,0,,,76,49
7020,note_on,60,0,3,,,,,,,,,2,,,45,0
7080,note_on,0,0,1,,,,,,,,,0,,,65,49
7080,note_on,0,0,1,,,,,,,,,0,,,64,0
7080,note_on,120,0,1,,,,,,,,,0,,,76,0
7080,note_on,0,0,1,,,,,,,,,0,,,77,49
7200,note_on,0,0,1,,,,,,,,,0,,,65,0
7200,note_on,120,0,1,,,,,,,,,0,,,77,0
7200,note_on,0,0,1,,,,,,,,,0,,,76,62
7200,note_on,0,0,1,,,,,,,,,0,,,64,62
7200,note_on,0,0,3,,,,,,,,,2,,,57,49
7200,note_on,0,0,3,,,,,,,,,2,,,52,49
7200,note_on,180,0,3,,,,,,,,,2,,,48,49
7440,note_on,0,0,3,,,,,,,,,2,,,45,49
7440,note_on,0,0,3,,,,,,,,,2,,,52,0
7440,note_on,240,0,3,,,,,,,,,2,,,57,0
7440,note_on,0,0,1,,,,,,,,,0,,,69,62
7440,note_on,0,0,1,,,,,,,,,0,,,57,62
7440,note_on,0,0,1,,,,,,,,,0,,,64,0
7440,note_on,240,0,1,,,,,,,,,0,,,76,0
7440,note_on,0,0,3,,,,,,,,,2,,,48,0
7500,note_on,0,0,1,,,,,,,,,0,,,57,0
7500,note_on,60,0,1,,,,,,,,,0,,,69,0
7500,note_on,60,0,3,,,,,,,,,2,,,45,0
7560,note_on,60,0,1,,,,,,,,,0,,,64,62
7560,note_on,0,0,1,,,,,,,,,0,,,76,62
7680,note_on,0,0,3,,,,,,,,,2,,,52,62
7680,note_on,180,0,3,,,,,,,,,2,,,47,62
7680,note_on,0,0,3,,,,,,,,,2,,,55,62
7800,note_on,0,0,1,,,,,,,,,0,,,64,0
7800,note_on,0,0,1,,,,,,,,,0,,,67,75
7800,note_on,0,0,1,,,,,,,,,0,,,79,75
7800,note_on,240,0,1,,,,,,,,,0,,,76,0
7920,note_on,0,0,1,,,,,,,,,0,,,69,75
7920,note_on,240,0,3,,,,,,,,,2,,,55,0
7920,note_on,0,0,3,,,,,,,,,2,,,52,0
7920,note_on,0,0,3,,,,,,,,,2,,,47,0
7920,note_on,0,0,3,,,,,,,,,2,,,43,62
7920,note_on,120,0,1,,,,,,,,,0,,,79,0
7920,note_on,0,0,1,,,,,,,,,0,,,67,0
7920,note_on,0,0,1,,,,,,,,,0,,,81,75
7980,note_on,60,0,3,,,,,,,,,2,,,43,0
8040,note_on,120,0,1,,,,,,,,,0,,,81,0
8040,note_on,0,0,1,,,,,,,,,0,,,69,0
8040,note_on,0,0,1,,,,,,,,,0,,,83,75
8040,note_on,0,0,1,,,,,,,,,0,,,71,75
8160,note_on,0,0,1,,,,,,,,,0,,,71,0
8160,note_on,120,0,1,,,,,,,,,0,,,83,0
8160,note_on,0,0,1,,,,,,,,,0,,,83,88
8160,note_on,180,0,3,,,,,,,,,2,,,42,75
8160,note_on,0,0,3,,,,,,,,,2,,,54,75
8160,note_on,0,0,1,,,,,,,,,0,,,71,88
8160,note_on,0,0,3,,,,,,,,,2,,,51,75
8400,note_on,240,0,1,,,,,,,,,0,,,83,0
8400,note_on,0,0,1,,,,,,,,,0,,,71,0
8400,note_on,0,0,1,,,,,,,,,0,,,71,88
8400,note_on,0,0,1,,,,,,,,,0,,,83,88
8400,note_on,0,0,3,,,,,,,,,2,,,59,75
8400,note_on,0,0,3,,,,,,,,,2,,,51,75
8400,note_on,0,0,3,,,,,,,,,2,,,47,75
8400,note_on,0,0,3,,,,,,,,,2,,,42,0
8400,note_on,0,0,3,,,,,,,,,2,,,51,0
8400,note_on,240,0,3,,,,,,,,,2,,,54,0
8640,note_on,0,0,3,,,,,,,,,2,,,55,62
8640,note_on,0,0,3,,,,,,,,,2,,,43,62
8640,note_on,240,0,1,,,,,,,,,0,,,83,0
8640,note_on,0,0,3,,,,,,,,,2,,,51,0
8640,note_on,0,0,3,,,,,,,,,2,,,47,0
8640,note_on,0,0,1,,,,,,,,,0,,,79,75
8640,note_on,240,0,3,,,,,,,,,2,,,59,0
8640,note_on,0,0,1,,,,,,,,,0,,,67,75
8640,note_on,0,0,1,,,,,,,,,0,,,71,0
8880,note_on,0,0,1,,,,,,,,,0,,,67,0
8880,note_on,240,0,3,,,,,,,,,2,,,55,0
8880,note_on,0,0,3,,,,,,,,,2,,,43,0
8880,note_on,0,0,3,,,,,,,,,2,,,40,49
8880,note_on,0,0,3,,,,,,,,,2,,,52,49
8880,note_on,0,0,1,,,,,,,,,0,,,64,62
8880,note_on,0,0,1,,,,,,,,,0,,,76,62
8880,note_on,240,0,1,,,,,,,,,0,,,79,0
8940,note_on,60,0,3,,,,,,,,,2,,,52,0
8940,note_on,0,0,3,,,,,,,,,2,,,40,0
8940,note_on,60,0,1,,,,,,,,,0,,,76,0
8940,note_on,0,0,1,,,,,,,,,0,,,64,0
9120,note_on,0,0,3,,,,,,,,,2,,,42,36
9120,note_on,0,0,1,,,,,,,,,0,,,71,49
9120,note_on,180,0,3,,,,,,,,,2,,,30,36
9120,note_on,180,0,1,,,,,,,,,0,,,59,49
9120,note_on,0,0,3,,,,,,,,,2,,,39,36
9360,note_on,0,0,3,,,,,,,,,2,,,47,36
9360,note_on,0,0,1,,,,,,,,,0,,,59,0
9360,note_on,0,0,1,,,,,,,,,0,,,59,49
9360,note_on,240,0,1,,,,,,,,,0,,,71,0
9360,note_on,0,0,3,,,,,,,,,2,,,39,36
9360,note_on,0,0,3,,,,,,,,,2,,,35,36
9360,note_on,0,0,3,,,,,,,,,2,,,30,0
9360,note_on,0,0,3,,,,,,,,,2,,,39,0
9360,note_on,240,0,3,,,,,,,,,2,,,42,0
9360,note_on,0,0,1,,,,,,,,,0,,,71,49
9600,note_on,240,0,1,,,,,,,,,0,,,71,0
9600,note_on,0,0,1,,,,,,,,,0,,,59,0
9600,note_on,0,0,1,,,,,,,,,0,,,55,49
9600,note_on,0,0,3,,,,,,,,,2,,,31,36
9600,note_on,0,0,3,,,,,,,,,2,,,43,36
9600,note_on,0,0,1,,,,,,,,,0,,,67,49
9600,note_on,0,0,3,,,,,,,,,2,,,35,0
9600,note_on,0,0,3,,,,,,,,,2,,,39,0
9600,note_on,240,0,3,,,,,,,,,2,,,47,0
9840,note_on,0,0,1,,,,,,,,,0,,,64,49
9840,note_on,0,0,1,,,,,,,,,0,,,52,49
9840,note_on,0,0,1,,,,,,,,,0,,,55,0
9840,note_on,240,0,3,,,,,,,,,2,,,43,0
9840,note_on,0,0,3,,,,,,,,,2,,,40,36
9840,note_on,240,0,1,,,,,,,,,0,,,67,0
9840,note_on,0,0,3,,,,,,,,,2,,,31,0
9840,note_on,0,0,3,,,,,,,,,2,,,28,36
9900,note_on,60,0,3,,,,,,,,,2,,,40,0
9900,note_on,0,0,3,,,,,,,,,2,,,28,0
9900,note_on,0,0,1,,,,,,,,,0,,,52,0
9900,note_on,60,0,1,,,,,,,,,0,,,64,0
10080,note_on,180,0,1,,,,,,,,,0,,,55,36
10080,note_on,180,0,3,,,,,,,,,2,,,40,36
10080,note_on,0,0,1,,,,,,,,,0,,,67,36
10320,note_on,0,0,1,,,,,,,,,0,,,52,36
10320,note_on,240,0,1,,,,,,,,,0,,,67,0
10320,note_on,0,0,1,,,,,,,,,0,,,55,0
10320,note_on,0,0,1,,,,,,,,,0,,,64,36
10350,note_on,270,0,3,,,,,,,,,2,,,40,0
10350,note_on,0,0,3,,,,,,,,,2,,,41,36
10380,note_on,30,0,3,,,,,,,,,2,,,41,0
10380,note_on,0,0,1,,,,,,,,,0,,,52,0
10380,note_on,60,0,1,,,,,,,,,0,,,64,0
10380,note_on,0,0,3,,,,,,,,,2,,,40,36
10410,note_on,30,0,3,,,,,,,,,2,,,40,0
10410,note_on,0,0,3,,,,,,,,,2,,,41,36
10440,note_on,0,0,3,,,,,,,,,2,,,40,36
10440,note_on,30,0,3,,,,,,,,,2,,,41,0
10470,note_on,30,0,3,,,,,,,,,2,,,40,0
10470,note_on,0,0,3,,,,,,,,,2,,,41,36
10500,note_on,0,0,3,,,,,,,,,2,,,40,36
10500,note_on,30,0,3,,,,,,,,,2,,,41,0
10530,note_on,0,0,3,,,,,,,,,2,,,41,36
10530,note_on,30,0,3,,,,,,,,,2,,,40,0
10560,note_on,0,0,3,,,,,,,,,2,,,40,36
10560,control_change,0,0,3,,,,,,,,,2,64,127,,
10560,note_on,30,0,3,,,,,,,,,2,,,41,0
10560,note_on,0,0,1,,,,,,,,,0,,,65,36
10560,note_on,180,0,1,,,,,,,,,0,,,53,36
10590,note_on,30,0,3,,,,,,,,,2,,,40,0
10590,note_on,0,0,3,,,,,,,,,2,,,41,36
10620,note_on,0,0,3,,,,,,,,,2,,,40,36
10620,note_on,30,0,3,,,,,,,,,2,,,41,0
10650,note_on,30,0,3,,,,,,,,,2,,,40,0
10650,note_on,0,0,3,,,,,,,,,2,,,41,36
10680,note_on,30,0,3,,,,,,,,,2,,,41,0
10680,note_on,0,0,3,,,,,,,,,2,,,40,36
10710,note_on,0,0,3,,,,,,,,,2,,,41,36
10710,note_on,30,0,3,,,,,,,,,2,,,40,0
10740,note_on,30,0,3,,,,,,,,,2,,,41,0
10740,note_on,0,0,3,,,,,,,,,2,,,40,36
10770,note_on,30,0,3,,,,,,,,,2,,,40,0
10770,note_on,0,0,3,,,,,,,,,2,,,41,36
10800,control_change,0,0,3,,,,,,,,,2,64,0,,
10800,note_on,0,0,3,,,,,,,,,2,,,40,36
10800,note_on,30,0,3,,,,,,,,,2,,,41,0
10800,note_on,0,0,1,,,,,,,,,0,,,53,0
10800,note_on,240,0,1,,,,,,,,,0,,,65,0
10800,note_on,0,0,1,,,,,,,,,0,,,50,36
10800,note_on,0,0,1,,,,,,,,,0,,,62,36
10830,note_on,30,0,3,,,,,,,,,2,,,40,0
10830,note_on,0,0,3,,,,,,,,,2,,,41,36
10860,note_on,0,0,1,,,,,,,,,0,,,50,0
10860,note_on,60,0,1,,,,,,,,,0,,,62,0
10860,note_on,30,0,3,,,,,,,,,2,,,41,0
10860,note_on,0,0,3,,,,,,,,,2,,,40,36
10890,note_on,30,0,3,,,,,,,,,2,,,40,0
10890,note_on,0,0,3,,,,,,,,,2,,,41,36
10920,note_on,30,0,3,,,,,,,,,2,,,41,0
10920,note_on,0,0,3,,,,,,,,,2,,,40,36
10950,note_on,30,0,3,,,,,,,,,2,,,40,0
10950,note_on,0,0,3,,,,,,,,,2,,,41,36
10980,note_on,30,0,3,,,,,,,,,2,,,41,0
10980,note_on,0,0,3,,,,,,,,,2,,,40,36
11010,note_on,30,0,3,,,,,,,,,2,,,40,0
11010,note_on,0,0,3,,,,,,,,,2,,,41,36
11040,note_on,30,0,3,,,,,,,,,2,,,41,0
11040,control_change,0,0,3,,,,,,,,,2,64,127,,
11040,note_on,0,0,3,,,,,,,,,2,,,40,49
11040,note_on,180,0,1,,,,,,,,,0,,,52,62
11040,note_on,0,0,1,,,,,,,,,0,,,64,62
11070,note_on,30,0,3,,,,,,,,,2,,,40,0
11070,note_on,0,0,3,,,,,,,,,2,,,41,49
11100,note_on,30,0,3,,,,,,,,,2,,,41,0
11100,note_on,0,0,3,,,,,,,,,2,,,40,49
11130,note_on,30,0,3,,,,,,,,,2,,,40,0
11130,note_on,0,0,3,,,,,,,,,2,,,41,49
11160,note_on,30,0,3,,,,,,,,,2,,,41,0
11160,note_on,0,0,3,,,,,,,,,2,,,40,49
11190,note_on,30,0,3,,,,,,,,,2,,,40,0
11190,note_on,0,0,3,,,,,,,,,2,,,41,49
11220,note_on,30,0,3,,,,,,,,,2,,,41,0
11220,note_on,0,0,3,,,,,,,,,2,,,40,49
11250,note_on,30,0,3,,,,,,,,,2,,,40,0
11250,note_on,0,0,3,,,,,,,,,2,,,41,49
11280,note_on,240,0,1,,,,,,,,,0,,,64,0
11280,note_on,0,0,1,,,,,,,,,0,,,60,62
11280,note_on,0,0,1,,,,,,,,,0,,,52,0
11280,note_on,0,0,1,,,,,,,,,0,,,48,62
11280,note_on,30,0,3,,,,,,,,,2,,,41,0
11280,control_change,0,0,3,,,,,,,,,2,64,0,,
11280,note_on,0,0,3,,,,,,,,,2,,,40,49
11310,note_on,30,0,3,,,,,,,,,2,,,40,0
11310,note_on,0,0,3,,,,,,,,,2,,,41,49
11340,note_on,30,0,3,,,,,,,,,2,,,41,0
11340,note_on,0,0,3,,,,,,,,,2,,,40,49
11340,note_on,60,0,1,,,,,,,,,0,,,60,0
11340,note_on,0,0,1,,,,,,,,,0,,,48,0
11370,note_on,30,0,3,,,,,,,,,2,,,40,0
11370,note_on,0,0,3,,,,,,,,,2,,,41,49
11400,note_on,30,0,3,,,,,,,,,2,,,41,0
11400,note_on,0,0,3,,,,,,,,,2,,,40,49
11430,note_on,30,0,3,,,,,,,,,2,,,40,0
11430,note_on,0,0,3,,,,,,,,,2,,,41,49
11460,note_on,30,0,3,,,,,,,,,2,,,41,0
11460,note_on,0,0,3,,,,,,,,,2,,,40,49
11490,note_on,30,0,3,,,,,,,,,2,,,40,0
11490,note_on,0,0,3,,,,,,,,,2,,,41,49
11520,note_on,30,0,3,,,,,,,,,2,,,41,0
11520,control_change,0,0,3,,,,,,,,,2,64,127,,
11520,note_on,0,0,3,,,,,,,,,2,,,40,62
11520,note_on,180,0,1,,,,,,,,,0,,,50,75
11520,note_on,0,0,1,,,,,,,,,0,,,62,75
11550,note_on,30,0,3,,,,,,,,,2,,,40,0
11550,note_on,0,0,3,,,,,,,,,2,,,41,62
11580,note_on,0,0,3,,,,,,,,,2,,,40,62
11580,note_on,30,0,3,,,,,,,,,2,,,41,0
11610,note_on,0,0,3,,,,,,,,,2,,,41,62
11610,note_on,30,0,3,,,,,,,,,2,,,40,0
11640,note_on,0,0,3,,,,,,,,,2,,,40,62
11640,note_on,30,0,3,,,,,,,,,2,,,41,0
11670,note_on,30,0,3,,,,,,,,,2,,,40,0
11670,note_on,0,0,3,,,,,,,,,2,,,41,62
11700,note_on,0,0,3,,,,,,,,,2,,,40,62
11700,note_on,30,0,3,,,,,,,,,2,,,41,0
11730,note_on,30,0,3,,,,,,,,,2,,,40,0
11730,note_on,0,0,3,,,,,,,,,2,,,41,62
11760,note_on,0,0,1,,,,,,,,,0,,,50,0
11760,note_on,0,0,1,,,,,,,,,0,,,47,75
11760,note_on,0,0,1,,,,,,,,,0,,,59,75
11760,note_on,240,0,1,,,,,,,,,0,,,62,0
11760,note_on,30,0,3,,,,,,,,,2,,,41,0
11760,control_change,0,0,3,,,,,,,,,2,64,0,,
11760,note_on,0,0,3,,,,,,,,,2,,,40,62
11790,note_on,30,0,3,,,,,,,,,2,,,40,0
11790,note_on,0,0,3,,,,,,,,,2,,,41,62
11820,note_on,0,0,3,,,,,,,,,2,,,40,62
11820,note_on,0,0,1,,,,,,,,,0,,,47,0
11820,note_on,60,0,1,,,,,,,,,0,,,59,0
11820,note_on,30,0,3,,,,,,,,,2,,,41,0
11850,note_on,30,0,3,,,,,,,,,2,,,40,0
11850,note_on,0,0,3,,,,,,,,,2,,,41,62
11880,note_on,30,0,3,,,,,,,,,2,,,41,0
11880,note_on,0,0,3,,,,,,,,,2,,,40,62
11910,note_on,0,0,3,,,,,,,,,2,,,41,62
11910,note_on,30,0,3,,,,,,,,,2,,,40,0
11940,note_on,0,0,3,,,,,,,,,2,,,40,62
11940,note_on,30,0,3,,,,,,,,,2,,,41,0
11970,note_on,30,0,3,,,,,,,,,2,,,40,0
11970,note_on,0,0,3,,,,,,,,,2,,,42,62
12000,note_on,30,0,3,,,,,,,,,2,,,42,0
12000,note_on,0,0,3,,,,,,,,,2,,,33,88
12000,note_on,0,0,3,,,,,,,,,2,,,45,88
12000,note_on,0,0,1,,,,,,,,,0,,,69,101
12000,note_on,0,0,1,,,,,,,,,0,,,57,101
12000,control_change,180,0,1,,,,,,,,,0,64,127,,
12000,control_change,0,0,3,,,,,,,,,2,64,127,,
12240,note_on,0,0,1,,,,,,,,,0,,,64,101
12240,note_on,0,0,1,,,,,,,,,0,,,57,0
12240,note_on,240,0,1,,,,,,,,,0,,,69,0
12240,note_on,0,0,1,,,,,,,,,0,,,76,101
12240,note_on,240,0,3,,,,,,,,,2,,,45,0
12240,note_on,0,0,3,,,,,,,,,2,,,33,0
12240,note_on,0,0,3,,,,,,,,,2,,,40,88
12240,note_on,0,0,3,,,,,,,,,2,,,52,88
12480,note_on,0,0,1,,,,,,,,,0,,,63,101
12480,note_on,240,0,1,,,,,,,,,0,,,76,0
12480,note_on,0,0,1,,,,,,,,,0,,,64,0
12480,note_on,0,0,3,,,,,,,,,2,,,51,88
12480,note_on,0,0,3,,,,,,,,,2,,,39,88
12480,note_on,0,0,3,,,,,,,,,2,,,40,0
12480,control_change,0,0,3,,,,,,,,,2,64,0,,
12480,control_change,0,0,1,,,,,,,,,0,64,0,,
12480,note_on,240,0,3,,,,,,,,,2,,,52,0
12480,note_on,0,0,1,,,,,,,,,0,,,75,101
12720,note_on,0,0,1,,,,,,,,,0,,,63,0
12720,note_on,240,0,1,,,,,,,,,0,,,75,0
12720,note_on,240,0,3,,,,,,,,,2,,,51,0
12720,note_on,0,0,3,,,,,,,,,2,,,39,0
12720,note_on,0,0,3,,,,,,,,,2,,,40,88
12720,note_on,0,0,3,,,,,,,,,2,,,52,88
12720,note_on,0,0,1,,,,,,,,,0,,,76,101
12720,note_on,0,0,1,,,,,,,,,0,,,64,101
12780,note_on,60,0,3,,,,,,,,,2,,,52,0
12780,note_on,0,0,3,,,,,,,,,2,,,40,0
12780,note_on,60,0,1,,,,,,,,,0,,,76,0
12780,note_on,0,0,1,,,,,,,,,0,,,64,0
12840,note_on,0,0,3,,,,,,,,,2,,,64,88
12840,note_on,60,0,3,,,,,,,,,2,,,52,88
12840,note_on,0,0,1,,,,,,,,,0,,,72,101
12840,note_on,60,0,1,,,,,,,,,0,,,64,101
12930,note_on,90,0,1,,,,,,,,,0,,,72,0
12930,note_on,0,0,1,,,,,,,,,0,,,64,101
12930,note_on,0,0,1,,,,,,,,,0,,,71,101
12930,note_on,0,0,3,,,,,,,,,2,,,50,88
12930,note_on,90,0,3,,,,,,,,,2,,,64,0
12930,note_on,0,0,3,,,,,,,,,2,,,62,88
12930,note_on,0,0,3,,,,,,,,,2,,,52,0
12930,note_on,0,0,1,,,,,,,,,0,,,64,0
12960,note_on,0,0,3,,,,,,,,,2,,,60,88
12960,note_on,0,0,3,,,,,,,,,2,,,48,88
12960,note_on,0,0,3,,,,,,,,,2,,,50,0
12960,note_on,30,0,3,,,,,,,,,2,,,62,0
12960,note_on,30,0,1,,,,,,,,,0,,,71,0
12960,note_on,0,0,1,,,,,,,,,0,,,64,0
12960,note_on,0,0,1,,,,,,,,,0,,,64,101
12960,note_on,0,0,1,,,,,,,,,0,,,69,101
13050,note_on,0,0,3,,,,,,,,,2,,,48,0
13050,note_on,90,0,3,,,,,,,,,2,,,60,0
13050,note_on,0,0,3,,,,,,,,,2,,,47,88
13050,note_on,90,0,1,,,,,,,,,0,,,69,0
13050,note_on,0,0,1,,,,,,,,,0,,,64,0
13050,note_on,0,0,1,,,,,,,,,0,,,67,101
13050,note_on,0,0,1,,,,,,,,,0,,,62,101
13050,note_on,0,0,3,,,,,,,,,2,,,59,88
13080,note_on,0,0,3,,,,,,,,,2,,,57,88
13080,note_on,30,0,3,,,,,,,,,2,,,59,0
13080,note_on,0,0,3,,,,,,,,,2,,,45,88
13080,note_on,30,0,1,,,,,,,,,0,,,67,0
13080,note_on,0,0,1,,,,,,,,,0,,,62,0
13080,note_on,0,0,1,,,,,,,,,0,,,60,101
13080,note_on,0,0,3,,,,,,,,,2,,,47,0
13080,note_on,0,0,1,,,,,,,,,0,,,65,101
13170,note_on,90,0,1,,,,,,,,,0,,,65,0
13170,note_on,90,0,3,,,,,,,,,2,,,57,0
13170,note_on,0,0,1,,,,,,,,,0,,,64,101
13170,note_on,0,0,1,,,,,,,,,0,,,60,0
13170,note_on,0,0,3,,,,,,,,,2,,,45,0
13170,note_on,0,0,1,,,,,,,,,0,,,59,101
13170,note_on,0,0,3,,,,,,,,,2,,,44,88
13170,note_on,0,0,3,,,,,,,,,2,,,56,88
13200,note_on,0,0,3,,,,,,,,,2,,,45,88
13200,note_on,30,0,1,,,,,,,,,0,,,64,0
13200,note_on,0,0,1,,,,,,,,,0,,,60,101
13200,note_on,30,0,3,,,,,,,,,2,,,56,0
13200,note_on,0,0,1,,,,,,,,,0,,,65,101
13200,note_on,0,0,3,,,,,,,,,2,,,44,0
13200,note_on,0,0,3,,,,,,,,,2,,,57,88
13200,note_on,0,0,1,,,,,,,,,0,,,59,0
13290,note_on,0,0,3,,,,,,,,,2,,,55,88
13290,note_on,0,0,3,,,,,,,,,2,,,43,88
13290,note_on,90,0,1,,,,,,,,,0,,,65,0
13290,note_on,0,0,3,,,,,,,,,2,,,45,0
13290,note_on,0,0,1,,,,,,,,,0,,,60,0
13290,note_on,0,0,1,,,,,,,,,0,,,59,101
13290,note_on,90,0,3,,,,,,,,,2,,,57,0
13290,note_on,0,0,1,,,,,,,,,0,,,64,101
13320,note_on,0,0,3,,,,,,,,,2,,,43,0
13320,note_on,0,0,1,,,,,,,,,0,,,59,0
13320,note_on,0,0,3,,,,,,,,,2,,,53,88
13320,note_on,0,0,1,,,,,,,,,0,,,57,101
13320,note_on,0,0,1,,,,,,,,,0,,,62,101
13320,note_on,30,0,3,,,,,,,,,2,,,55,0
13320,note_on,30,0,1,,,,,,,,,0,,,64,0
13320,note_on,0,0,3,,,,,,,,,2,,,41,88
13410,note_on,90,0,1,,,,,,,,,0,,,62,0
13410,note_on,0,0,1,,,,,,,,,0,,,57,0
13410,note_on,0,0,1,,,,,,,,,0,,,61,101
13410,note_on,0,0,1,,,,,,,,,0,,,55,101
13410,note_on,90,0,3,,,,,,,,,2,,,53,0
13410,note_on,0,0,3,,,,,,,,,2,,,41,0
13410,note_on,0,0,3,,,,,,,,,2,,,40,88
13410,note_on,0,0,3,,,,,,,,,2,,,52,88
13440,note_on,30,0,3,,,,,,,,,2,,,52,0
13440,note_on,0,0,3,,,,,,,,,2,,,40,0
13440,note_on,0,0,3,,,,,,,,,2,,,41,88
13440,note_on,0,0,3,,,,,,,,,2,,,53,88
13440,note_on,0,0,1,,,,,,,,,0,,,62,101
13440,note_on,0,0,1,,,,,,,,,0,,,57,101
13440,note_on,0,0,1,,,,,,,,,0,,,55,0
13440,note_on,30,0,1,,,,,,,,,0,,,61,0
13530,note_on,0,0,1,,,,,,,,,0,,,64,101
13530,note_on,0,0,1,,,,,,,,,0,,,57,0
13530,note_on,0,0,3,,,,,,,,,2,,,56,88
13530,note_on,0,0,3,,,,,,,,,2,,,44,88
13530,note_on,0,0,3,,,,,,,,,2,,,41,0
13530,note_on,90,0,1,,,,,,,,,0,,,62,0
13530,note_on,90,0,3,,,,,,,,,2,,,53,0
13530,note_on,0,0,1,,,,,,,,,0,,,59,101
13560,note_on,0,0,1,,,,,,,,,0,,,59,0
13560,note_on,0,0,3,,,,,,,,,2,,,44,0
13560,note_on,0,0,1,,,,,,,,,0,,,65,101
13560,note_on,0,0,3,,,,,,,,,2,,,57,88
13560,note_on,0,0,3,,,,,,,,,2,,,45,88
13560,note_on,30,0,1,,,,,,,,,0,,,64,0
13560,note_on,30,0,3,,,,,,,,,2,,,56,0
13560,note_on,0,0,1,,,,,,,,,0,,,60,101
13650,note_on,0,0,3,,,,,,,,,2,,,47,88
13650,note_on,90,0,3,,,,,,,,,2,,,57,0
13650,note_on,0,0,3,,,,,,,,,2,,,45,0
13650,note_on,0,0,3,,,,,,,,,2,,,59,88
13650,note_on,90,0,1,,,,,,,,,0,,,65,0
13650,note_on,0,0,1,,,,,,,,,0,,,68,101
13650,note_on,0,0,1,,,,,,,,,0,,,62,101
13650,note_on,0,0,1,,,,,,,,,0,,,60,0
13680,note_on,0,0,1,,,,,,,,,0,,,64,101
13680,note_on,0,0,3,,,,,,,,,2,,,60,88
13680,note_on,0,0,1,,,,,,,,,0,,,62,0
13680,note_on,30,0,1,,,,,,,,,0,,,68,0
13680,note_on,30,0,3,,,,,,,,,2,,,59,0
13680,note_on,0,0,3,,,,,,,,,2,,,47,0
13680,note_on,0,0,3,,,,,,,,,2,,,48,88
13680,note_on,0,0,1,,,,,,,,,0,,,69,101
13770,note_on,0,0,3,,,,,,,,,2,,,48,0
13770,note_on,90,0,3,,,,,,,,,2,,,60,0
13770,note_on,0,0,3,,,,,,,,,2,,,62,88
13770,note_on,0,0,3,,,,,,,,,2,,,50,88
13770,note_on,0,0,1,,,,,,,,,0,,,71,101
13770,note_on,0,0,1,,,,,,,,,0,,,64,101
13770,note_on,0,0,1,,,,,,,,,0,,,64,0
13770,note_on,90,0,1,,,,,,,,,0,,,69,0
13800,note_on,0,0,1,,,,,,,,,0,,,69,101
13800,note_on,0,0,1,,,,,,,,,0,,,64,0
13800,note_on,30,0,1,,,,,,,,,0,,,71,0
13800,note_on,0,0,1,,,,,,,,,0,,,64,101
13800,note_on,0,0,3,,,,,,,,,2,,,60,88
13800,note_on,0,0,3,,,,,,,,,2,,,48,88
13800,note_on,0,0,3,,,,,,,,,2,,,50,0
13800,note_on,30,0,3,,,,,,,,,2,,,62,0
13860,note_on,0,0,3,,,,,,,,,2,,,48,0
13860,note_on,60,0,3,,,,,,,,,2,,,60,0
13860,note_on,60,0,1,,,,,,,,,0,,,69,0
13860,note_on,0,0,1,,,,,,,,,0,,,64,0
13920,note_on,0,0,1,,,,,,,,,0,,,57,101
13920,note_on,0,0,3,,,,,,,,,2,,,45,88
13920,control_change,60,0,3,,,,,,,,,2,64,127,,
13920,control_change,60,0,1,,,,,,,,,0,64,127,,
14160,note_on,0,0,1,,,,,,,,,0,,,69,101
14160,note_on,0,0,1,,,,,,,,,0,,,65,101
14160,note_on,0,0,1,,,,,,,,,0,,,57,101
14160,note_on,240,0,1,,,,,,,,,0,,,57,0
14160,note_on,0,0,3,,,,,,,,,2,,,38,88
14160,note_on,0,0,3,,,,,,,,,2,,,45,88
14160,note_on,240,0,3,,,,,,,,,2,,,45,0
14400,note_on,0,0,3,,,,,,,,,2,,,38,0
14400,note_on,240,0,3,,,,,,,,,2,,,45,0
14400,note_on,240,0,1,,,,,,,,,0,,,69,0
14400,note_on,0,0,1,,,,,,,,,0,,,65,0
14400,note_on,0,0,1,,,,,,,,,0,,,57,0
14400,note_on,0,0,1,,,,,,,,,0,,,58,101
14400,note_on,0,0,1,,,,,,,,,0,,,67,101
14400,note_on,0,0,1,,,,,,,,,0,,,70,101
14400,control_change,0,0,1,,,,,,,,,0,64,0,,
14400,note_on,0,0,3,,,,,,,,,2,,,45,88
14400,note_on,0,0,3,,,,,,,,,2,,,37,88
14400,control_change,0,0,3,,,,,,,,,2,64,0,,
14640,note_on,240,0,3,,,,,,,,,2,,,37,0
14640,note_on,0,0,1,,,,,,,,,0,,,57,88
14640,note_on,0,0,1,,,,,,,,,0,,,58,0
14640,note_on,0,0,1,,,,,,,,,0,,,67,0
14640,note_on,240,0,1,,,,,,,,,0,,,70,0
14640,note_on,0,0,1,,,,,,,,,0,,,69,88
14640,note_on,0,0,1,,,,,,,,,0,,,65,88
14640,note_on,0,0,3,,,,,,,,,2,,,38,75
14700,note_on,60,0,3,,,,,,,,,2,,,38,0
14700,note_on,0,0,3,,,,,,,,,2,,,45,0
14700,note_on,60,0,1,,,,,,,,,0,,,69,0
14700,note_on,0,0,1,,,,,,,,,0,,,65,0
14700,note_on,0,0,1,,,,,,,,,0,,,57,0
14760,note_on,0,0,1,,,,,,,,,0,,,77,88
14760,control_change,60,0,1,,,,,,,,,0,64,127,,
14760,note_on,0,0,3,,,,,,,,,2,,,69,75
14760,note_on,0,0,3,,,,,,,,,2,,,57,75
14760,control_change,60,0,3,,,,,,,,,2,64,127,,
14760,note_on,0,0,1,,,,,,,,,0,,,69,88
14850,note_on,0,0,3,,,,,,,,,2,,,57,0
14850,note_on,90,0,3,,,,,,,,,2,,,69,0
14850,note_on,0,0,3,,,,,,,,,2,,,55,75
14850,note_on,0,0,3,,,,,,,,,2,,,67,75
14850,note_on,90,0,1,,,,,,,,,0,,,77,0
14850,note_on,0,0,1,,,,,,,,,0,,,69,0
14850,note_on,0,0,1,,,,,,,,,0,,,76,88
14850,note_on,0,0,1,,,,,,,,,0,,,69,88
14880,note_on,30,0,3,,,,,,,,,2,,,67,0
14880,note_on,0,0,1,,,,,,,,,0,,,74,88
14880,note_on,0,0,1,,,,,,,,,0,,,69,88
14880,note_on,0,0,1,,,,,,,,,0,,,69,0
14880,note_on,30,0,1,,,,,,,,,0,,,76,0
14880,note_on,0,0,3,,,,,,,,,2,,,55,0
14880,note_on,0,0,3,,,,,,,,,2,,,53,75
14880,note_on,0,0,3,,,,,,,,,2,,,65,75
14970,note_on,0,0,3,,,,,,,,,2,,,64,75
14970,note_on,0,0,3,,,,,,,,,2,,,52,75
14970,control_change,0,0,3,,,,,,,,,2,64,0,,
14970,note_on,0,0,3,,,,,,,,,2,,,53,0
14970,note_on,90,0,3,,,,,,,,,2,,,65,0
14970,note_on,0,0,1,,,,,,,,,0,,,72,88
14970,note_on,90,0,1,,,,,,,,,0,,,74,0
14970,note_on,0,0,1,,,,,,,,,0,,,69,0
14970,note_on,0,0,1,,,,,,,,,0,,,67,88
14970,control_change,0,0,1,,,,,,,,,0,64,0,,
15000,note_on,0,0,3,,,,,,,,,2,,,50,75
15000,note_on,30,0,3,,,,,,,,,2,,,64,0
15000,note_on,0,0,3,,,,,,,,,2,,,52,0
15000,note_on,0,0,3,,,,,,,,,2,,,62,75
15000,note_on,0,0,1,,,,,,,,,0,,,65,88
15000,note_on,0,0,1,,,,,,,,,0,,,67,0
15000,note_on,30,0,1,,,,,,,,,0,,,72,0
15000,note_on,0,0,1,,,,,,,,,0,,,70,88
15090,note_on,0,0,3,,,,,,,,,2,,,61,75
15090,note_on,0,0,3,,,,,,,,,2,,,49,75
15090,note_on,0,0,3,,,,,,,,,2,,,50,0
15090,note_on,90,0,3,,,,,,,,,2,,,62,0
15090,note_on,90,0,1,,,,,,,,,0,,,70,0
15090,note_on,0,0,1,,,,,,,,,0,,,65,0
15090,note_on,0,0,1,,,,,,,,,0,,,64,88
15090,note_on,0,0,1,,,,,,,,,0,,,69,88
15120,note_on,0,0,3,,,,,,,,,2,,,62,75
15120,note_on,0,0,3,,,,,,,,,2,,,50,75
15120,note_on,0,0,3,,,,,,,,,2,,,49,0
15120,note_on,30,0,3,,,,,,,,,2,,,61,0
15120,note_on,0,0,1,,,,,,,,,0,,,64,0
15120,note_on,0,0,1,,,,,,,,,0,,,65,88
15120,note_on,0,0,1,,,,,,,,,0,,,70,88
15120,note_on,30,0,1,,,,,,,,,0,,,69,0
15210,note_on,90,0,1,,,,,,,,,0,,,70,0
15210,note_on,0,0,1,,,,,,,,,0,,,65,0
15210,note_on,0,0,1,,,,,,,,,0,,,64,88
15210,note_on,0,0,1,,,,,,,,,0,,,69,88
15210,note_on,0,0,3,,,,,,,,,2,,,60,75
15210,note_on,90,0,3,,,,,,,,,2,,,62,0
15210,note_on,0,0,3,,,,,,,,,2,,,50,0
15210,note_on,0,0,3,,,,,,,,,2,,,48,75
15240,note_on,0,0,3,,,,,,,,,2,,,58,75
15240,note_on,0,0,3,,,,,,,,,2,,,46,75
15240,note_on,0,0,3,,,,,,,,,2,,,48,0
15240,note_on,30,0,3,,,,,,,,,2,,,60,0
15240,note_on,0,0,1,,,,,,,,,0,,,62,88
15240,note_on,0,0,1,,,,,,,,,0,,,64,0
15240,note_on,30,0,1,,,,,,,,,0,,,69,0
15240,note_on,0,0,1,,,,,,,,,0,,,67,88
15330,note_on,0,0,1,,,,,,,,,0,,,62,0
15330,note_on,0,0,3,,,,,,,,,2,,,46,0
15330,note_on,90,0,3,,,,,,,,,2,,,58,0
15330,note_on,0,0,3,,,,,,,,,2,,,45,75
15330,note_on,90,0,1,,,,,,,,,0,,,67,0
15330,note_on,0,0,3,,,,,,,,,2,,,57,75
15330,note_on,0,0,1,,,,,,,,,0,,,60,88
15330,note_on,0,0,1,,,,,,,,,0,,,66,88
15360,note_on,30,0,3,,,,,,,,,2,,,57,0
15360,note_on,0,0,1,,,,,,,,,0,,,67,88
15360,note_on,0,0,1,,,,,,,,,0,,,62,88
15360,note_on,0,0,1,,,,,,,,,0,,,60,0
15360,note_on,30,0,1,,,,,,,,,0,,,66,0
15360,note_on,0,0,3,,,,,,,,,2,,,45,0
15360,note_on,0,0,3,,,,,,,,,2,,,46,75
15360,note_on,0,0,3,,,,,,,,,2,,,58,75
15450,note_on,0,0,1,,,,,,,,,0,,,69,88
15450,note_on,0,0,1,,,,,,,,,0,,,64,88
15450,note_on,0,0,1,,,,,,,,,0,,,62,0
15450,note_on,0,0,3,,,,,,,,,2,,,49,75
15450,note_on,90,0,3,,,,,,,,,2,,,58,0
15450,note_on,0,0,3,,,,,,,,,2,,,46,0
15450,note_on,0,0,3,,,,,,,,,2,,,61,75
15450,note_on,90,0,1,,,,,,,,,0,,,67,0
15480,note_on,30,0,3,,,,,,,,,2,,,61,0
15480,note_on,0,0,1,,,,,,,,,0,,,70,88
15480,note_on,0,0,1,,,,,,,,,0,,,65,88
15480,note_on,30,0,1,,,,,,,,,0,,,69,0
15480,note_on,0,0,3,,,,,,,,,2,,,49,0
15480,note_on,0,0,1,,,,,,,,,0,,,64,0
15480,note_on,0,0,3,,,,,,,,,2,,,62,75
15480,note_on,0,0,3,,,,,,,,,2,,,50,75
15570,note_on,90,0,3,,,,,,,,,2,,,62,0
15570,note_on,0,0,3,,,,,,,,,2,,,50,0
15570,note_on,90,0,1,,,,,,,,,0,,,70,0
15570,note_on,0,0,1,,,,,,,,,0,,,65,0
15570,note_on,0,0,1,,,,,,,,,0,,,67,88
15570,note_on,0,0,3,,,,,,,,,2,,,52,75
15570,note_on,0,0,1,,,,,,,,,0,,,73,88
15570,note_on,0,0,3,,,,,,,,,2,,,64,75
15600,note_on,30,0,1,,,,,,,,,0,,,73,0
15600,note_on,0,0,1,,,,,,,,,0,,,67,0
15600,note_on,0,0,3,,,,,,,,,2,,,53,75
15600,note_on,0,0,3,,,,,,,,,2,,,52,0
15600,note_on,0,0,1,,,,,,,,,0,,,74,88
15600,note_on,30,0,3,,,,,,,,,2,,,64,0
15600,note_on,0,0,3,,,,,,,,,2,,,65,75
15600,note_on,0,0,1,,,,,,,,,0,,,69,88
15690,note_on,0,0,3,,,,,,,,,2,,,67,75
15690,note_on,90,0,1,,,,,,,,,0,,,74,0
15690,note_on,0,0,1,,,,,,,,,0,,,69,0
15690,note_on,0,0,1,,,,,,,,,0,,,69,88
15690,note_on,0,0,1,,,,,,,,,0,,,76,88
15690,note_on,0,0,3,,,,,,,,,2,,,53,0
15690,note_on,90,0,3,,,,,,,,,2,,,65,0
15690,note_on,0,0,3,,,,,,,,,2,,,55,75
15720,note_on,0,0,3,,,,,,,,,2,,,55,0
15720,note_on,30,0,3,,,,,,,,,2,,,67,0
15720,note_on,0,0,3,,,,,,,,,2,,,53,75
15720,note_on,0,0,1,,,,,,,,,0,,,74,88
15720,note_on,0,0,1,,,,,,,,,0,,,69,88
15720,note_on,0,0,1,,,,,,,,,0,,,69,0
15720,note_on,30,0,1,,,,,,,,,0,,,76,0
15720,note_on,0,0,3,,,,,,,,,2,,,65,75
15780,note_on,0,0,1,,,,,,,,,0,,,69,0
15780,note_on,60,0,1,,,,,,,,,0,,,74,0
15780,note_on,0,0,3,,,,,,,,,2,,,53,0
15780,note_on,60,0,3,,,,,,,,,2,,,65,0
15840,note_on,0,0,3,,,,,,,,,2,,,58,97
15840,note_on,0,0,3,,,,,,,,,2,,,55,93
15840,note_on,60,0,3,,,,,,,,,2,,,50,89
15840,note_on,0,0,3,,,,,,,,,2,,,62,101
16080,note_on,0,0,3,,,,,,,,,2,,,58,0
16080,note_on,0,0,3,,,,,,,,,2,,,38,75
16080,note_on,0,0,3,,,,,,,,,2,,,55,0
16080,note_on,0,0,3,,,,,,,,,2,,,50,0
16080,note_on,240,0,3,,,,,,,,,2,,,62,0
16080,note_on,0,0,3,,,,,,,,,2,,,50,75
16086,note_on,6,0,3,,,,,,,,,2,,,50,0
16086,note_on,0,0,3,,,,,,,,,2,,,38,0
16320,note_on,0,0,3,,,,,,,,,2,,,57,97
16320,note_on,234,0,3,,,,,,,,,2,,,50,89
16320,note_on,0,0,3,,,,,,,,,2,,,53,93
16320,note_on,0,0,3,,,,,,,,,2,,,62,101
16560,note_on,240,0,3,,,,,,,,,2,,,62,0
16560,note_on,0,0,3,,,,,,,,,2,,,50,0
16560,note_on,0,0,3,,,,,,,,,2,,,53,0
16560,note_on,0,0,3,,,,,,,,,2,,,57,0
16560,note_on,0,0,3,,,,,,,,,2,,,38,75
16560,note_on,0,0,3,,,,,,,,,2,,,50,75
16566,note_on,6,0,3,,,,,,,,,2,,,50,0
16566,note_on,0,0,3,,,,,,,,,2,,,38,0
16680,note_on,900,0,1,,,,,,,,,0,,,62,88
16680,note_on,0,0,1,,,,,,,,,0,,,74,88
16800,note_on,0,0,3,,,,,,,,,2,,,55,75
16800,note_on,234,0,3,,,,,,,,,2,,,50,75
16800,note_on,0,0,3,,,,,,,,,2,,,58,75
16800,note_on,0,0,3,,,,,,,,,2,,,62,75
16920,note_on,0,0,1,,,,,,,,,0,,,62,0
16920,note_on,0,0,1,,,,,,,,,0,,,67,88
16920,note_on,0,0,1,,,,,,,,,0,,,79,88
16920,note_on,240,0,1,,,,,,,,,0,,,74,0
17040,note_on,240,0,3,,,,,,,,,2,,,62,0
17040,note_on,0,0,3,,,,,,,,,2,,,50,0
17040,note_on,0,0,3,,,,,,,,,2,,,55,0
17040,note_on,0,0,3,,,,,,,,,2,,,50,75
17040,note_on,0,0,1,,,,,,,,,0,,,81,88
17040,note_on,0,0,1,,,,,,,,,0,,,69,88
17040,note_on,0,0,1,,,,,,,,,0,,,67,0
17040,note_on,120,0,1,,,,,,,,,0,,,79,0
17040,note_on,0,0,3,,,,,,,,,2,,,58,0
17040,note_on,0,0,3,,,,,,,,,2,,,38,75
17100,note_on,60,0,3,,,,,,,,,2,,,50,0
17100,note_on,0,0,3,,,,,,,,,2,,,38,0
17160,note_on,0,0,1,,,,,,,,,0,,,82,88
17160,note_on,120,0,1,,,,,,,,,0,,,81,0
17160,note_on,0,0,1,,,,,,,,,0,,,69,0
17160,note_on,0,0,1,,,,,,,,,0,,,70,88
17280,note_on,180,0,3,,,,,,,,,2,,,50,75
17280,note_on,0,0,1,,,,,,,,,0,,,69,88
17280,note_on,0,0,1,,,,,,,,,0,,,70,0
17280,note_on,120,0,1,,,,,,,,,0,,,82,0
17280,note_on,0,0,3,,,,,,,,,2,,,53,75
17280,note_on,0,0,1,,,,,,,,,0,,,81,88
17280,note_on,0,0,3,,,,,,,,,2,,,57,75
17280,note_on,0,0,3,,,,,,,,,2,,,62,75
17520,note_on,0,0,3,,,,,,,,,2,,,38,75
17520,note_on,0,0,1,,,,,,,,,0,,,62,88
17520,note_on,0,0,1,,,,,,,,,0,,,69,0
17520,note_on,240,0,1,,,,,,,,,0,,,81,0
17520,note_on,0,0,3,,,,,,,,,2,,,50,75
17520,note_on,0,0,3,,,,,,,,,2,,,50,0
17520,note_on,0,0,3,,,,,,,,,2,,,53,0
17520,note_on,0,0,3,,,,,,,,,2,,,57,0
17520,note_on,240,0,3,,,,,,,,,2,,,62,0
17520,note_on,0,0,1,,,,,,,,,0,,,74,88
17580,note_on,0,0,3,,,,,,,,,2,,,38,0
17580,note_on,60,0,1,,,,,,,,,0,,,74,0
17580,note_on,0,0,1,,,,,,,,,0,,,62,0
17580,note_on,60,0,3,,,,,,,,,2,,,50,0
17640,note_on,60,0,1,,,,,,,,,0,,,72,88
17640,note_on,0,0,1,,,,,,,,,0,,,84,88
17760,note_on,120,0,1,,,,,,,,,0,,,84,0
17760,note_on,0,0,1,,,,,,,,,0,,,72,0
17760,note_on,0,0,1,,,,,,,,,0,,,70,88
17760,note_on,0,0,1,,,,,,,,,0,,,82,88
17760,note_on,180,0,3,,,,,,,,,2,,,50,75
17760,note_on,0,0,3,,,,,,,,,2,,,55,75
17760,note_on,0,0,3,,,,,,,,,2,,,58,75
17760,note_on,0,0,3,,,,,,,,,2,,,62,75
18000,note_on,240,0,3,,,,,,,,,2,,,62,0
18000,note_on,0,0,3,,,,,,,,,2,,,50,0
18000,note_on,0,0,3,,,,,,,,,2,,,55,0
18000,note_on,0,0,3,,,,,,,,,2,,,58,0
18000,note_on,0,0,3,,,,,,,,,2,,,38,75
18000,note_on,0,0,3,,,,,,,,,2,,,50,75
18000,note_on,0,0,1,,,,,,,,,0,,,74,88
18000,note_on,0,0,1,,,,,,,,,0,,,62,88
18000,note_on,0,0,1,,,,,,,,,0,,,70,0
18000,note_on,240,0,1,,,,,,,,,0,,,82,0
18060,note_on,60,0,3,,,,,,,,,2,,,50,0
18060,note_on,0,0,1,,,,,,,,,0,,,62,0
18060,note_on,60,0,1,,,,,,,,,0,,,74,0
18060,note_on,0,0,3,,,,,,,,,2,,,38,0
18120,note_on,0,0,1,,,,,,,,,0,,,82,88
18120,note_on,60,0,1,,,,,,,,,0,,,70,88
18240,note_on,120,0,1,,,,,,,,,0,,,82,0
18240,note_on,0,0,1,,,,,,,,,0,,,70,0
18240,note_on,0,0,3,,,,,,,,,2,,,57,75
18240,note_on,0,0,1,,,,,,,,,0,,,81,88
18240,note_on,0,0,3,,,,,,,,,2,,,62,75
18240,note_on,0,0,1,,,,,,,,,0,,,69,88
18240,note_on,0,0,3,,,,,,,,,2,,,53,75
18240,note_on,180,0,3,,,,,,,,,2,,,50,75
18480,note_on,0,0,1,,,,,,,,,0,,,69,0
18480,note_on,0,0,3,,,,,,,,,2,,,50,75
18480,note_on,240,0,3,,,,,,,,,2,,,62,0
18480,note_on,0,0,1,,,,,,,,,0,,,62,88
18480,note_on,240,0,1,,,,,,,,,0,,,81,0
18480,note_on,0,0,3,,,,,,,,,2,,,38,75
18480,note_on,0,0,1,,,,,,,,,0,,,74,88
18480,note_on,0,0,3,,,,,,,,,2,,,57,0
18480,note_on,0,0,3,,,,,,,,,2,,,53,0
18480,note_on,0,0,3,,,,,,,,,2,,,50,0
18540,note_on,60,0,3,,,,,,,,,2,,,50,0
18540,note_on,0,0,3,,,,,,,,,2,,,38,0
18540,note_on,60,0,1,,,,,,,,,0,,,74,0
18540,note_on,0,0,1,,,,,,,,,0,,,62,0
18600,note_on,60,0,1,,,,,,,,,0,,,62,88
18600,note_on,0,0,1,,,,,,,,,0,,,74,88
18720,note_on,180,0,3,,,,,,,,,2,,,50,75
18720,note_on,0,0,3,,,,,,,,,2,,,55,75
18720,note_on,0,0,3,,,,,,,,,2,,,58,75
18720,note_on,0,0,3,,,,,,,,,2,,,62,75
18840,note_on,0,0,1,,,,,,,,,0,,,67,88
18840,note_on,0,0,1,,,,,,,,,0,,,62,0
18840,note_on,240,0,1,,,,,,,,,0,,,74,0
18840,note_on,0,0,1,,,,,,,,,0,,,79,88
18960,note_on,120,0,1,,,,,,,,,0,,,79,0
18960,note_on,240,0,3,,,,,,,,,2,,,62,0
18960,note_on,0,0,3,,,,,,,,,2,,,50,0
18960,note_on,0,0,3,,,,,,,,,2,,,55,0
18960,note_on,0,0,3,,,,,,,,,2,,,50,75
18960,note_on,0,0,3,,,,,,,,,2,,,38,75
18960,note_on,0,0,1,,,,,,,,,0,,,81,88
18960,note_on,0,0,1,,,,,,,,,0,,,69,88
18960,note_on,0,0,1,,,,,,,,,0,,,67,0
18960,note_on,0,0,3,,,,,,,,,2,,,58,0
19020,note_on,60,0,3,,,,,,,,,2,,,50,0
19020,note_on,0,0,3,,,,,,,,,2,,,38,0
19080,note_on,0,0,1,,,,,,,,,0,,,70,88
19080,note_on,0,0,1,,,,,,,,,0,,,69,0
19080,note_on,120,0,1,,,,,,,,,0,,,81,0
19080,note_on,0,0,1,,,,,,,,,0,,,82,88
19200,note_on,0,0,3,,,,,,,,,2,,,57,75
19200,note_on,0,0,3,,,,,,,,,2,,,53,75
19200,note_on,0,0,3,,,,,,,,,2,,,62,75
19200,note_on,0,0,1,,,,,,,,,0,,,81,88
19200,note_on,180,0,3,,,,,,,,,2,,,50,75
19200,note_on,0,0,1,,,,,,,,,0,,,69,88
19200,note_on,0,0,1,,,,,,,,,0,,,70,0
19200,note_on,120,0,1,,,,,,,,,0,,,82,0
19440,note_on,0,0,1,,,,,,,,,0,,,62,88
19440,note_on,0,0,1,,,,,,,,,0,,,69,0
19440,note_on,240,0,1,,,,,,,,,0,,,81,0
19440,note_on,0,0,1,,,,,,,,,0,,,74,88
19440,note_on,0,0,3,,,,,,,,,2,,,57,0
19440,note_on,240,0,3,,,,,,,,,2,,,62,0
19440,note_on,0,0,3,,,,,,,,,2,,,50,0
19440,note_on,0,0,3,,,,,,,,,2,,,53,0
19440,note_on,0,0,3,,,,,,,,,2,,,38,75
19440,note_on,0,0,3,,,,,,,,,2,,,50,75
19500,note_on,0,0,1,,,,,,,,,0,,,62,0
19500,note_on,60,0,3,,,,,,,,,2,,,50,0
19500,note_on,0,0,3,,,,,,,,,2,,,38,0
19500,note_on,60,0,1,,,,,,,,,0,,,74,0
19560,note_on,60,0,1,,,,,,,,,0,,,69,88
19560,note_on,0,0,1,,,,,,,,,0,,,81,88
19680,note_on,180,0,3,,,,,,,,,2,,,48,75
19680,note_on,0,0,3,,,,,,,,,2,,,52,75
19680,note_on,0,0,3,,,,,,,,,2,,,60,75
19680,note_on,0,0,3,,,,,,,,,2,,,57,75
19800,note_on,0,0,1,,,,,,,,,0,,,84,88
19800,note_on,0,0,1,,,,,,,,,0,,,72,88
19800,note_on,0,0,1,,,,,,,,,0,,,69,0
19800,note_on,240,0,1,,,,,,,,,0,,,81,0
19920,note_on,0,0,3,,,,,,,,,2,,,52,0
19920,note_on,0,0,1,,,,,,,,,0,,,86,88
19920,note_on,120,0,1,,,,,,,,,0,,,84,0
19920,note_on,0,0,3,,,,,,,,,2,,,48,0
19920,note_on,0,0,1,,,,,,,,,0,,,74,88
19920,note_on,0,0,3,,,,,,,,,2,,,57,0
19920,note_on,0,0,3,,,,,,,,,2,,,36,75
19920,note_on,0,0,3,,,,,,,,,2,,,48,75
19920,note_on,240,0,3,,,,,,,,,2,,,60,0
19920,note_on,0,0,1,,,,,,,,,0,,,72,0
19980,note_on,60,0,3,,,,,,,,,2,,,48,0
19980,note_on,0,0,3,,,,,,,,,2,,,36,0
20040,note_on,120,0,1,,,,,,,,,0,,,86,0
20040,note_on,0,0,1,,,,,,,,,0,,,74,0
20040,note_on,0,0,1,,,,,,,,,0,,,76,88
20040,note_on,0,0,1,,,,,,,,,0,,,88,88
20160,note_on,0,0,1,,,,,,,,,0,,,76,101
20160,note_on,0,0,3,,,,,,,,,2,,,59,88
20160,note_on,180,0,3,,,,,,,,,2,,,47,88
20160,note_on,0,0,3,,,,,,,,,2,,,56,88
20160,note_on,0,0,1,,,,,,,,,0,,,76,0
20160,note_on,120,0,1,,,,,,,,,0,,,88,0
20160,note_on,0,0,1,,,,,,,,,0,,,88,101
20400,note_on,0,0,3,,,,,,,,,2,,,47,0
20400,note_on,0,0,1,,,,,,,,,0,,,88,101
20400,note_on,0,0,1,,,,,,,,,0,,,76,101
20400,note_on,0,0,1,,,,,,,,,0,,,76,0
20400,note_on,240,0,1,,,,,,,,,0,,,88,0
20400,note_on,240,0,3,,,,,,,,,2,,,59,0
20400,note_on,0,0,3,,,,,,,,,2,,,64,88
20400,note_on,0,0,3,,,,,,,,,2,,,56,0
20400,note_on,0,0,3,,,,,,,,,2,,,56,88
20400,note_on,0,0,3,,,,,,,,,2,,,52,88
20640,note_on,0,0,3,,,,,,,,,2,,,48,106
20640,note_on,240,0,3,,,,,,,,,2,,,64,0
20640,note_on,240,0,1,,,,,,,,,0,,,88,0
20640,note_on,0,0,1,,,,,,,,,0,,,76,0
20640,note_on,0,0,3,,,,,,,,,2,,,52,0
20640,note_on,0,0,1,,,,,,,,,0,,,84,127
20640,note_on,0,0,1,,,,,,,,,0,,,72,119
20640,note_on,0,0,3,,,,,,,,,2,,,60,114
20640,note_on,0,0,3,,,,,,,,,2,,,56,0
20880,note_on,0,0,1,,,,,,,,,0,,,72,0
20880,note_on,0,0,1,,,,,,,,,0,,,69,101
20880,note_on,0,0,1,,,,,,,,,0,,,81,101
20880,note_on,240,0,3,,,,,,,,,2,,,60,0
20880,note_on,0,0,3,,,,,,,,,2,,,48,0
20880,note_on,0,0,3,,,,,,,,,2,,,45,88
20880,note_on,0,0,3,,,,,,,,,2,,,57,88
20880,note_on,240,0,1,,,,,,,,,0,,,84,0
20940,note_on,0,0,3,,,,,,,,,2,,,45,0
20940,note_on,60,0,3,,,,,,,,,2,,,57,0
20940,note_on,60,0,1,,,,,,,,,0,,,81,0
20940,note_on,0,0,1,,,,,,,,,0,,,69,0
21120,note_on,180,0,1,,,,,,,,,0,,,64,49
21120,note_on,0,0,1,,,,,,,,,0,,,76,49
21120,note_on,0,0,3,,,,,,,,,2,,,47,36
21120,note_on,0,0,3,,,,,,,,,2,,,44,36
21120,note_on,180,0,3,,,,,,,,,2,,,35,36
21360,note_on,240,0,1,,,,,,,,,0,,,76,0
21360,note_on,0,0,1,,,,,,,,,0,,,64,49
21360,note_on,0,0,1,,,,,,,,,0,,,76,49
21360,note_on,0,0,3,,,,,,,,,2,,,52,36
21360,note_on,0,0,3,,,,,,,,,2,,,40,36
21360,note_on,0,0,3,,,,,,,,,2,,,35,0
21360,note_on,0,0,3,,,,,,,,,2,,,44,0
21360,note_on,240,0,3,,,,,,,,,2,,,47,0
21360,note_on,0,0,1,,,,,,,,,0,,,64,0
21360,note_on,0,0,3,,,,,,,,,2,,,44,36
21600,note_on,0,0,3,,,,,,,,,2,,,48,62
21600,note_on,0,0,1,,,,,,,,,0,,,64,0
21600,note_on,0,0,1,,,,,,,,,0,,,60,67
21600,note_on,0,0,1,,,,,,,,,0,,,72,75
21600,note_on,0,0,3,,,,,,,,,2,,,36,54
21600,note_on,0,0,3,,,,,,,,,2,,,40,0
21600,note_on,0,0,3,,,,,,,,,2,,,44,0
21600,note_on,240,0,1,,,,,,,,,0,,,76,0
21600,note_on,240,0,3,,,,,,,,,2,,,52,0
21840,note_on,0,0,3,,,,,,,,,2,,,33,36
21840,note_on,240,0,3,,,,,,,,,2,,,48,0
21840,note_on,0,0,3,,,,,,,,,2,,,36,0
21840,note_on,0,0,3,,,,,,,,,2,,,45,36
21840,note_on,0,0,1,,,,,,,,,0,,,60,0
21840,note_on,240,0,1,,,,,,,,,0,,,72,0
21840,note_on,0,0,1,,,,,,,,,0,,,69,49
21840,note_on,0,0,1,,,,,,,,,0,,,57,49
21900,note_on,60,0,3,,,,,,,,,2,,,45,0
21900,note_on,0,0,3,,,,,,,,,2,,,33,0
21900,note_on,0,0,1,,,,,,,,,0,,,57,0
21900,note_on,60,0,1,,,,,,,,,0,,,69,0
22080,note_on,180,0,3,,,,,,,,,2,,,34,36
22080,note_on,0,0,3,,,,,,,,,2,,,46,36
22080,note_on,0,0,1,,,,,,,,,0,,,70,36
22080,note_on,180,0,1,,,,,,,,,0,,,58,36
22320,note_on,240,0,1,,,,,,,,,0,,,70,0
22320,note_on,0,0,1,,,,,,,,,0,,,58,0
22320,note_on,0,0,1,,,,,,,,,0,,,67,36
22320,note_on,0,0,1,,,,,,,,,0,,,55,36
22320,note_on,240,0,3,,,,,,,,,2,,,46,0
22320,note_on,0,0,3,,,,,,,,,2,,,43,36
22320,note_on,0,0,3,,,,,,,,,2,,,31,36
22320,note_on,0,0,3,,,,,,,,,2,,,34,0
22380,note_on,60,0,1,,,,,,,,,0,,,67,0
22380,note_on,0,0,1,,,,,,,,,0,,,55,0
22380,note_on,0,0,3,,,,,,,,,2,,,31,0
22380,note_on,60,0,3,,,,,,,,,2,,,43,0
22560,note_on,180,0,1,,,,,,,,,0,,,58,36
22560,note_on,0,0,1,,,,,,,,,0,,,70,36
22560,note_on,0,0,3,,,,,,,,,2,,,46,36
22560,note_on,180,0,3,,,,,,,,,2,,,34,36
22800,note_on,240,0,3,,,,,,,,,2,,,46,0
22800,note_on,0,0,3,,,,,,,,,2,,,31,36
22800,note_on,0,0,3,,,,,,,,,2,,,34,0
22800,note_on,0,0,1,,,,,,,,,0,,,67,36
22800,note_on,0,0,1,,,,,,,,,0,,,55,36
22800,note_on,0,0,1,,,,,,,,,0,,,58,0
22800,note_on,240,0,1,,,,,,,,,0,,,70,0
22800,note_on,0,0,3,,,,,,,,,2,,,43,36
22860,note_on,60,0,1,,,,,,,,,0,,,67,0
22860,note_on,0,0,1,,,,,,,,,0,,,55,0
22860,note_on,60,0,3,,,,,,,,,2,,,43,0
22860,note_on,0,0,3,,,,,,,,,2,,,31,0
23040,note_on,180,0,3,,,,,,,,,2,,,34,36
23040,note_on,0,0,3,,,,,,,,,2,,,46,36
23040,note_on,180,0,1,,,,,,,,,0,,,58,36
23040,note_on,0,0,1,,,,,,,,,0,,,70,36
23280,note_on,240,0,3,,,,,,,,,2,,,46,0
23280,note_on,0,0,1,,,,,,,,,0,,,67,36
23280,note_on,0,0,1,,,,,,,,,0,,,55,36
23280,note_on,0,0,1,,,,,,,,,0,,,58,0
23280,note_on,0,0,3,,,,,,,,,2,,,43,36
23280,note_on,0,0,3,,,,,,,,,2,,,31,36
23280,note_on,240,0,1,,,,,,,,,0,,,70,0
23280,note_on,0,0,3,,,,,,,,,2,,,34,0
23340,note_on,0,0,3,,,,,,,,,2,,,31,0
23340,note_on,60,0,3,,,,,,,,,2,,,43,0
23340,note_on,60,0,1,,,,,,,,,0,,,67,0
23340,note_on,0,0,1,,,,,,,,,0,,,55,0
23520,note_on,180,0,3,,,,,,,,,2,,,34,36
23520,note_on,180,0,1,,,,,,,,,0,,,58,36
23520,note_on,0,0,1,,,,,,,,,0,,,70,36
23520,note_on,0,0,3,,,,,,,,,2,,,46,36
23760,note_on,0,0,1,,,,,,,,,0,,,55,36
23760,note_on,0,0,3,,,,,,,,,2,,,43,36
23760,note_on,0,0,3,,,,,,,,,2,,,31,36
23760,note_on,240,0,1,,,,,,,,,0,,,70,0
23760,note_on,240,0,3,,,,,,,,,2,,,46,0
23760,note_on,0,0,3,,,,,,,,,2,,,34,0
23760,note_on,0,0,1,,,,,,,,,0,,,67,36
23760,note_on,0,0,1,,,,,,,,,0,,,58,0
23820,note_on,0,0,1,,,,,,,,,0,,,55,0
23820,note_on,60,0,1,,,,,,,,,0,,,67,0
23820,note_on,60,0,3,,,,,,,,,2,,,43,0
23820,note_on,0,0,3,,,,,,,,,2,,,31,0
24000,control_change,180,0,1,,,,,,,,,0,64,127,,
24000,control_change,180,0,3,,,,,,,,,2,64,127,,
24000,note_on,0,0,3,,,,,,,,,2,,,35,75
24000,note_on,0,0,1,,,,,,,,,0,,,59,88
24030,note_on,30,0,3,,,,,,,,,2,,,35,0
24030,note_on,30,0,1,,,,,,,,,0,,,59,0
24030,note_on,0,0,1,,,,,,,,,0,,,71,88
24030,note_on,0,0,3,,,,,,,,,2,,,47,75
24060,note_on,0,0,3,,,,,,,,,2,,,35,75
24060,note_on,30,0,1,,,,,,,,,0,,,71,0
24060,note_on,0,0,1,,,,,,,,,0,,,59,88
24060,note_on,30,0,3,,,,,,,,,2,,,47,0
24090,note_on,0,0,1,,,,,,,,,0,,,71,88
24090,note_on,0,0,3,,,,,,,,,2,,,47,75
24090,note_on,30,0,1,,,,,,,,,0,,,59,0
24090,note_on,30,0,3,,,,,,,,,2,,,35,0
24120,note_on,0,0,1,,,,,,,,,0,,,59,88
24120,note_on,30,0,1,,,,,,,,,0,,,71,0
24120,note_on,30,0,3,,,,,,,,,2,,,47,0
24120,note_on,0,0,3,,,,,,,,,2,,,35,75
24150,note_on,0,0,1,,,,,,,,,0,,,71,88
24150,note_on,30,0,3,,,,,,,,,2,,,35,0
24150,note_on,0,0,3,,,,,,,,,2,,,47,75
24150,note_on,30,0,1,,,,,,,,,0,,,59,0
24180,note_on,30,0,1,,,,,,,,,0,,,71,0
24180,note_on,0,0,1,,,,,,,,,0,,,59,88
24180,note_on,0,0,3,,,,,,,,,2,,,35,75
24180,note_on,30,0,3,,,,,,,,,2,,,47,0
24210,note_on,0,0,3,,,,,,,,,2,,,47,75
24210,note_on,30,0,3,,,,,,,,,2,,,35,0
24210,note_on,30,0,1,,,,,,,,,0,,,59,0
24210,note_on,0,0,1,,,,,,,,,0,,,71,88
24240,note_on,0,0,1,,,,,,,,,0,,,59,88
24240,note_on,30,0,1,,,,,,,,,0,,,71,0
24240,note_on,30,0,3,,,,,,,,,2,,,47,0
24240,note_on,0,0,3,,,,,,,,,2,,,35,75
24270,note_on,30,0,1,,,,,,,,,0,,,59,0
24270,note_on,0,0,1,,,,,,,,,0,,,71,88
24270,note_on,30,0,3,,,,,,,,,2,,,35,0
24270,note_on,0,0,3,,,,,,,,,2,,,47,75
24300,note_on,0,0,1,,,,,,,,,0,,,59,88
24300,note_on,0,0,3,,,,,,,,,2,,,35,75
24300,note_on,30,0,1,,,,,,,,,0,,,71,0
24300,note_on,30,0,3,,,,,,,,,2,,,47,0
24330,note_on,0,0,3,,,,,,,,,2,,,47,75
24330,note_on,0,0,1,,,,,,,,,0,,,71,88
24330,note_on,30,0,1,,,,,,,,,0,,,59,0
24330,note_on,30,0,3,,,,,,,,,2,,,35,0
24360,note_on,30,0,3,,,,,,,,,2,,,47,0
24360,note_on,0,0,3,,,,,,,,,2,,,35,75
24360,note_on,0,0,1,,,,,,,,,0,,,59,88
24360,note_on,30,0,1,,,,,,,,,0,,,71,0
24390,note_on,30,0,1,,,,,,,,,0,,,59,0
24390,note_on,0,0,1,,,,,,,,,0,,,71,88
24390,note_on,0,0,3,,,,,,,,,2,,,47,75
24390,note_on,30,0,3,,,,,,,,,2,,,35,0
24420,note_on,0,0,1,,,,,,,,,0,,,59,88
24420,note_on,30,0,1,,,,,,,,,0,,,71,0
24420,note_on,30,0,3,,,,,,,,,2,,,47,0
24420,note_on,0,0,3,,,,,,,,,2,,,35,75
24450,note_on,30,0,1,,,,,,,,,0,,,59,0
24450,note_on,0,0,1,,,,,,,,,0,,,71,88
24450,note_on,0,0,3,,,,,,,,,2,,,47,75
24450,note_on,30,0,3,,,,,,,,,2,,,35,0
24480,note_on,0,0,3,,,,,,,,,2,,,32,75
24480,note_on,30,0,3,,,,,,,,,2,,,47,0
24480,note_on,0,0,1,,,,,,,,,0,,,56,88
24480,note_on,30,0,1,,,,,,,,,0,,,71,0
24510,note_on,0,0,1,,,,,,,,,0,,,68,88
24510,note_on,30,0,1,,,,,,,,,0,,,56,0
24510,note_on,0,0,3,,,,,,,,,2,,,44,75
24510,note_on,30,0,3,,,,,,,,,2,,,32,0
24540,note_on,0,0,3,,,,,,,,,2,,,32,75
24540,note_on,30,0,3,,,,,,,,,2,,,44,0
24540,note_on,0,0,1,,,,,,,,,0,,,56,88
24540,note_on,30,0,1,,,,,,,,,0,,,68,0
24570,note_on,30,0,1,,,,,,,,,0,,,56,0
24570,note_on,0,0,1,,,,,,,,,0,,,68,88
24570,note_on,0,0,3,,,,,,,,,2,,,44,75
24570,note_on,30,0,3,,,,,,,,,2,,,32,0
24600,note_on,0,0,3,,,,,,,,,2,,,32,75
24600,note_on,30,0,1,,,,,,,,,0,,,68,0
24600,note_on,0,0,1,,,,,,,,,0,,,56,88
24600,note_on,30,0,3,,,,,,,,,2,,,44,0
24630,note_on,0,0,3,,,,,,,,,2,,,44,75
24630,note_on,30,0,3,,,,,,,,,2,,,32,0
24630,note_on,30,0,1,,,,,,,,,0,,,56,0
24630,note_on,0,0,1,,,,,,,,,0,,,68,88
24660,note_on,0,0,3,,,,,,,,,2,,,32,75
24660,note_on,30,0,1,,,,,,,,,0,,,68,0
24660,note_on,0,0,1,,,,,,,,,0,,,56,88
24660,note_on,30,0,3,,,,,,,,,2,,,44,0
24690,note_on,30,0,1,,,,,,,,,0,,,56,0
24690,note_on,0,0,1,,,,,,,,,0,,,68,88
24690,note_on,0,0,3,,,,,,,,,2,,,44,75
24690,note_on,30,0,3,,,,,,,,,2,,,32,0
24720,note_on,0,0,3,,,,,,,,,2,,,32,75
24720,note_on,30,0,3,,,,,,,,,2,,,44,0
24720,note_on,0,0,1,,,,,,,,,0,,,56,88
24720,note_on,30,0,1,,,,,,,,,0,,,68,0
24750,note_on,0,0,3,,,,,,,,,2,,,44,75
24750,note_on,30,0,3,,,,,,,,,2,,,32,0
24750,note_on,30,0,1,,,,,,,,,0,,,56,0
24750,note_on,0,0,1,,,,,,,,,0,,,68,88
24780,note_on,0,0,1,,,,,,,,,0,,,56,88
24780,note_on,30,0,3,,,,,,,,,2,,,44,0
24780,note_on,30,0,1,,,,,,,,,0,,,68,0
24780,note_on,0,0,3,,,,,,,,,2,,,32,75
24810,note_on,0,0,1,,,,,,,,,0,,,68,88
24810,note_on,30,0,1,,,,,,,,,0,,,56,0
24810,note_on,0,0,3,,,,,,,,,2,,,44,75
24810,note_on,30,0,3,,,,,,,,,2,,,32,0
24840,note_on,0,0,3,,,,,,,,,2,,,32,75
24840,note_on,0,0,1,,,,,,,,,0,,,56,88
24840,note_on,30,0,1,,,,,,,,,0,,,68,0
24840,note_on,30,0,3,,,,,,,,,2,,,44,0
24870,note_on,30,0,1,,,,,,,,,0,,,56,0
24870,note_on,0,0,1,,,,,,,,,0,,,68,88
24870,note_on,30,0,3,,,,,,,,,2,,,32,0
24870,note_on,0,0,3,,,,,,,,,2,,,44,75
24900,control_change,0,0,1,,,,,,,,,0,64,0,,
24900,note_on,0,0,1,,,,,,,,,0,,,56,88
24900,note_on,0,0,3,,,,,,,,,2,,,32,75
24900,control_change,0,0,3,,,,,,,,,2,64,0,,
24900,note_on,30,0,3,,,,,,,,,2,,,44,0
24900,note_on,30,0,1,,,,,,,,,0,,,68,0
24930,note_on,30,0,1,,,,,,,,,0,,,56,0
24930,note_on,0,0,1,,,,,,,,,0,,,68,88
24930,note_on,30,0,3,,,,,,,,,2,,,32,0
24930,note_on,0,0,3,,,,,,,,,2,,,44,75
24960,note_on,30,0,3,,,,,,,,,2,,,44,0
24960,note_on,0,0,3,,,,,,,,,2,,,47,88
24960,note_on,0,0,3,,,,,,,,,2,,,59,88
24960,note_on,30,0,1,,,,,,,,,0,,,68,0
24960,note_on,0,0,1,,,,,,,,,0,,,71,101
24960,note_on,0,0,1,,,,,,,,,0,,,83,101
25080,note_on,120,0,1,,,,,,,,,0,,,83,0
25080,note_on,0,0,1,,,,,,,,,0,,,80,101
25080,note_on,0,0,1,,,,,,,,,0,,,68,101
25080,note_on,0,0,1,,,,,,,,,0,,,71,0
25080,note_on,0,0,3,,,,,,,,,2,,,44,88
25080,note_on,120,0,3,,,,,,,,,2,,,59,0
25080,note_on,0,0,3,,,,,,,,,2,,,47,0
25080,note_on,0,0,3,,,,,,,,,2,,,56,88
25140,note_on,0,0,3,,,,,,,,,2,,,44,0
25140,note_on,60,0,3,,,,,,,,,2,,,56,0
25140,note_on,60,0,1,,,,,,,,,0,,,80,0
25140,note_on,0,0,1,,,,,,,,,0,,,68,0
25200,note_on,60,0,3,,,,,,,,,2,,,47,88
25200,note_on,0,0,3,,,,,,,,,2,,,59,88
25200,note_on,60,0,1,,,,,,,,,0,,,71,101
25200,note_on,0,0,1,,,,,,,,,0,,,83,101
25320,note_on,120,0,3,,,,,,,,,2,,,59,0
25320,note_on,0,0,1,,,,,,,,,0,,,88,101
25320,note_on,0,0,1,,,,,,,,,0,,,76,101
25320,note_on,0,0,1,,,,,,,,,0,,,71,0
25320,note_on,0,0,3,,,,,,,,,2,,,47,0
25320,note_on,120,0,1,,,,,,,,,0,,,83,0
25320,note_on,0,0,3,,,,,,,,,2,,,64,88
25320,note_on,0,0,3,,,,,,,,,2,,,52,88
25380,note_on,0,0,1,,,,,,,,,0,,,76,0
25380,note_on,60,0,1,,,,,,,,,0,,,88,0
25380,note_on,0,0,3,,,,,,,,,2,,,52,0
25380,note_on,60,0,3,,,,,,,,,2,,,64,0
25440,note_on,60,0,3,,,,,,,,,2,,,47,88
25440,note_on,60,0,1,,,,,,,,,0,,,71,101
25440,note_on,0,0,3,,,,,,,,,2,,,59,88
25440,note_on,0,0,1,,,,,,,,,0,,,83,101
25560,note_on,0,0,3,,,,,,,,,2,,,56,88
25560,note_on,0,0,3,,,,,,,,,2,,,44,88
25560,note_on,0,0,3,,,,,,,,,2,,,47,0
25560,note_on,120,0,3,,,,,,,,,2,,,59,0
25560,note_on,120,0,1,,,,,,,,,0,,,83,0
25560,note_on,0,0,1,,,,,,,,,0,,,71,0
25560,note_on,0,0,1,,,,,,,,,0,,,80,101
25560,note_on,0,0,1,,,,,,,,,0,,,68,101
25620,note_on,60,0,1,,,,,,,,,0,,,80,0
25620,note_on,60,0,3,,,,,,,,,2,,,56,0
25620,note_on,0,0,3,,,,,,,,,2,,,44,0
25620,note_on,0,0,1,,,,,,,,,0,,,68,0
25680,note_on,60,0,3,,,,,,,,,2,,,40,88
25680,note_on,0,0,3,,,,,,,,,2,,,52,88
25680,note_on,0,0,1,,,,,,,,,0,,,76,101
25680,note_on,60,0,1,,,,,,,,,0,,,64,101
25800,note_on,0,0,1,,,,,,,,,0,,,59,101
25800,note_on,0,0,1,,,,,,,,,0,,,71,101
25800,note_on,120,0,1,,,,,,,,,0,,,76,0
25800,note_on,0,0,3,,,,,,,,,2,,,47,88
25800,note_on,0,0,3,,,,,,,,,2,,,35,88
25800,note_on,0,0,3,,,,,,,,,2,,,40,0
25800,note_on,120,0,3,,,,,,,,,2,,,52,0
25800,note_on,0,0,1,,,,,,,,,0,,,64,0
25860,note_on,0,0,3,,,,,,,,,2,,,35,0
25860,note_on,60,0,3,,,,,,,,,2,,,47,0
25860,note_on,0,0,1,,,,,,,,,0,,,59,0
25860,note_on,60,0,1,,,,,,,,,0,,,71,0
25920,note_on,60,0,3,,,,,,,,,2,,,35,36
25920,note_on,0,0,1,,,,,,,,,0,,,68,49
25920,note_on,0,0,1,,,,,,,,,0,,,64,49
25920,note_on,60,0,1,,,,,,,,,0,,,56,49
25920,note_on,0,0,3,,,,,,,,,2,,,47,36
26400,note_on,480,0,1,,,,,,,,,0,,,68,0
26400,note_on,0,0,1,,,,,,,,,0,,,64,0
26400,note_on,0,0,1,,,,,,,,,0,,,56,0
26400,note_on,0,0,1,,,,,,,,,0,,,57,49
26400,note_on,0,0,1,,,,,,,,,0,,,63,49
26400,note_on,0,0,1,,,,,,,,,0,,,71,49
26880,control_change,0,0,3,,,,,,,,,2,64,127,,
26880,note_on,960,0,3,,,,,,,,,2,,,47,0
26880,note_on,480,0,1,,,,,,,,,0,,,71,0
26880,note_on,0,0,1,,,,,,,,,0,,,63,0
26880,note_on,0,0,1,,,,,,,,,0,,,57,0
26880,note_on,0,0,1,,,,,,,,,0,,,59,101
26880,control_change,0,0,1,,,,,,,,,0,64,127,,
26880,note_on,0,0,3,,,,,,,,,2,,,35,0
26880,note_on,0,0,3,,,,,,,,,2,,,35,88
26910,note_on,30,0,1,,,,,,,,,0,,,59,0
26910,note_on,30,0,3,,,,,,,,,2,,,35,0
26910,note_on,0,0,1,,,,,,,,,0,,,71,101
26910,note_on,0,0,3,,,,,,,,,2,,,47,88
26940,note_on,30,0,3,,,,,,,,,2,,,47,0
26940,note_on,0,0,3,,,,,,,,,2,,,35,88
26940,note_on,30,0,1,,,,,,,,,0,,,71,0
26940,note_on,0,0,1,,,,,,,,,0,,,59,101
26970,note_on,0,0,3,,,,,,,,,2,,,47,88
26970,note_on,0,0,1,,,,,,,,,0,,,71,101
26970,note_on,30,0,1,,,,,,,,,0,,,59,0
26970,note_on,30,0,3,,,,,,,,,2,,,35,0
27000,note_on,0,0,1,,,,,,,,,0,,,56,101
27000,note_on,30,0,3,,,,,,,,,2,,,47,0
27000,note_on,0,0,3,,,,,,,,,2,,,32,88
27000,note_on,30,0,1,,,,,,,,,0,,,71,0
27030,note_on,30,0,3,,,,,,,,,2,,,32,0
27030,note_on,0,0,3,,,,,,,,,2,,,44,88
27030,note_on,30,0,1,,,,,,,,,0,,,56,0
27030,note_on,0,0,1,,,,,,,,,0,,,68,101
27060,note_on,30,0,3,,,,,,,,,2,,,44,0
27060,note_on,0,0,3,,,,,,,,,2,,,32,88
27060,note_on,0,0,1,,,,,,,,,0,,,56,101
27060,note_on,30,0,1,,,,,,,,,0,,,68,0
27090,note_on,0,0,3,,,,,,,,,2,,,44,88
27090,note_on,0,0,1,,,,,,,,,0,,,68,101
27090,note_on,30,0,1,,,,,,,,,0,,,56,0
27090,note_on,30,0,3,,,,,,,,,2,,,32,0
27120,note_on,0,0,3,,,,,,,,,2,,,35,88
27120,note_on,0,0,1,,,,,,,,,0,,,59,101
27120,note_on,30,0,3,,,,,,,,,2,,,44,0
27120,note_on,30,0,1,,,,,,,,,0,,,68,0
27150,note_on,30,0,3,,,,,,,,,2,,,35,0
27150,note_on,0,0,3,,,,,,,,,2,,,47,88
27150,note_on,0,0,1,,,,,,,,,0,,,71,101
27150,note_on,30,0,1,,,,,,,,,0,,,59,0
27180,note_on,30,0,3,,,,,,,,,2,,,47,0
27180,note_on,0,0,3,,,,,,,,,2,,,35,88
27180,note_on,0,0,1,,,,,,,,,0,,,59,101
27180,note_on,30,0,1,,,,,,,,,0,,,71,0
27210,note_on,0,0,1,,,,,,,,,0,,,71,101
27210,note_on,30,0,1,,,,,,,,,0,,,59,0
27210,note_on,30,0,3,,,,,,,,,2,,,35,0
27210,note_on,0,0,3,,,,,,,,,2,,,47,88
27240,note_on,0,0,1,,,,,,,,,0,,,64,101
27240,note_on,30,0,1,,,,,,,,,0,,,71,0
27240,note_on,30,0,3,,,,,,,,,2,,,47,0
27240,note_on,0,0,3,,,,,,,,,2,,,40,88
27270,note_on,0,0,3,,,,,,,,,2,,,52,88
27270,note_on,30,0,3,,,,,,,,,2,,,40,0
27270,note_on,30,0,1,,,,,,,,,0,,,64,0
27270,note_on,0,0,1,,,,,,,,,0,,,76,101
27300,note_on,30,0,1,,,,,,,,,0,,,76,0
27300,note_on,0,0,3,,,,,,,,,2,,,40,88
27300,note_on,30,0,3,,,,,,,,,2,,,52,0
27300,note_on,0,0,1,,,,,,,,,0,,,64,101
27330,note_on,30,0,3,,,,,,,,,2,,,40,0
27330,note_on,0,0,3,,,,,,,,,2,,,52,88
27330,note_on,0,0,1,,,,,,,,,0,,,76,101
27330,note_on,30,0,1,,,,,,,,,0,,,64,0
27360,note_on,30,0,1,,,,,,,,,0,,,76,0
27360,note_on,0,0,3,,,,,,,,,2,,,44,88
27360,note_on,30,0,3,,,,,,,,,2,,,52,0
27360,note_on,0,0,1,,,,,,,,,0,,,68,101
27390,note_on,0,0,3,,,,,,,,,2,,,56,88
27390,note_on,30,0,3,,,,,,,,,2,,,44,0
27390,note_on,30,0,1,,,,,,,,,0,,,68,0
27390,note_on,0,0,1,,,,,,,,,0,,,80,101
27420,note_on,30,0,3,,,,,,,,,2,,,56,0
27420,note_on,30,0,1,,,,,,,,,0,,,80,0
27420,note_on,0,0,3,,,,,,,,,2,,,44,88
27420,note_on,0,0,1,,,,,,,,,0,,,68,101
27450,note_on,30,0,1,,,,,,,,,0,,,68,0
27450,note_on,0,0,1,,,,,,,,,0,,,80,101
27450,note_on,0,0,3,,,,,,,,,2,,,56,88
27450,note_on,30,0,3,,,,,,,,,2,,,44,0
27480,note_on,30,0,3,,,,,,,,,2,,,56,0
27480,note_on,0,0,3,,,,,,,,,2,,,47,88
27480,note_on,0,0,1,,,,,,,,,0,,,71,101
27480,note_on,30,0,1,,,,,,,,,0,,,80,0
27510,note_on,30,0,3,,,,,,,,,2,,,47,0
27510,note_on,0,0,3,,,,,,,,,2,,,59,88
27510,note_on,0,0,1,,,,,,,,,0,,,83,101
27510,note_on,30,0,1,,,,,,,,,0,,,71,0
27540,note_on,0,0,1,,,,,,,,,0,,,71,101
27540,note_on,30,0,3,,,,,,,,,2,,,59,0
27540,note_on,0,0,3,,,,,,,,,2,,,47,88
27540,note_on,30,0,1,,,,,,,,,0,,,83,0
27570,note_on,30,0,1,,,,,,,,,0,,,71,0
27570,note_on,0,0,1,,,,,,,,,0,,,83,101
27570,note_on,0,0,3,,,,,,,,,2,,,59,88
27570,note_on,30,0,3,,,,,,,,,2,,,47,0
27600,note_on,0,0,3,,,,,,,,,2,,,52,75
27600,note_on,30,0,1,,,,,,,,,0,,,83,0
27600,note_on,0,0,1,,,,,,,,,0,,,76,88
27600,note_on,30,0,3,,,,,,,,,2,,,59,0
27630,note_on,0,0,3,,,,,,,,,2,,,64,75
27630,note_on,30,0,1,,,,,,,,,0,,,76,0
27630,note_on,0,0,1,,,,,,,,,0,,,88,88
27630,note_on,30,0,3,,,,,,,,,2,,,52,0
27660,note_on,30,0,3,,,,,,,,,2,,,64,0
27660,note_on,0,0,3,,,,,,,,,2,,,52,75
27660,note_on,0,0,1,,,,,,,,,0,,,76,88
27660,note_on,30,0,1,,,,,,,,,0,,,88,0
27690,note_on,30,0,1,,,,,,,,,0,,,76,0
27690,note_on,0,0,3,,,,,,,,,2,,,64,75
27690,note_on,0,0,1,,,,,,,,,0,,,88,88
27690,note_on,30,0,3,,,,,,,,,2,,,52,0
27720,note_on,30,0,1,,,,,,,,,0,,,88,0
27720,note_on,0,0,1,,,,,,,,,0,,,71,75
27720,note_on,0,0,3,,,,,,,,,2,,,47,62
27720,note_on,30,0,3,,,,,,,,,2,,,64,0
27750,note_on,30,0,1,,,,,,,,,0,,,71,0
27750,note_on,0,0,1,,,,,,,,,0,,,83,75
27750,note_on,0,0,3,,,,,,,,,2,,,59,62
27750,note_on,30,0,3,,,,,,,,,2,,,47,0
27780,note_on,0,0,1,,,,,,,,,0,,,71,75
27780,note_on,30,0,3,,,,,,,,,2,,,59,0
27780,note_on,0,0,3,,,,,,,,,2,,,47,62
27780,note_on,30,0,1,,,,,,,,,0,,,83,0
27810,control_change,0,0,1,,,,,,,,,0,64,0,,
27810,note_on,30,0,1,,,,,,,,,0,,,71,0
27810,note_on,30,0,3,,,,,,,,,2,,,47,0
27810,control_change,0,0,3,,,,,,,,,2,64,0,,
27810,note_on,0,0,3,,,,,,,,,2,,,59,62
27810,note_on,0,0,1,,,,,,,,,0,,,83,75
27840,note_on,0,0,3,,,,,,,,,2,,,35,36
27840,note_on,30,0,3,,,,,,,,,2,,,59,0
27840,note_on,0,0,1,,,,,,,,,0,,,68,49
27840,note_on,0,0,1,,,,,,,,,0,,,64,49
27840,note_on,0,0,1,,,,,,,,,0,,,56,49
27840,note_on,30,0,1,,,,,,,,,0,,,83,0
27840,note_on,0,0,3,,,,,,,,,2,,,47,36
28320,note_on,0,0,1,,,,,,,,,0,,,57,49
28320,note_on,0,0,1,,,,,,,,,0,,,63,49
28320,note_on,0,0,1,,,,,,,,,0,,,71,49
28320,note_on,0,0,1,,,,,,,,,0,,,56,0
28320,note_on,480,0,1,,,,,,,,,0,,,68,0
28320,note_on,0,0,1,,,,,,,,,0,,,64,0
28800,note_on,960,0,3,,,,,,,,,2,,,47,0
28800,note_on,0,0,3,,,,,,,,,2,,,47,36
28800,note_on,0,0,3,,,,,,,,,2,,,35,0
28800,control_change,0,0,3,,,,,,,,,2,64,127,,
28800,note_on,0,0,3,,,,,,,,,2,,,40,36
28800,note_on,480,0,1,,,,,,,,,0,,,71,0
28800,note_on,0,0,1,,,,,,,,,0,,,63,0
28800,control_change,0,0,1,,,,,,,,,0,64,127,,
28800,note_on,0,0,1,,,,,,,,,0,,,64,62
28800,note_on,0,0,1,,,,,,,,,0,,,56,54
28800,note_on,0,0,1,,,,,,,,,0,,,57,0
28824,note_on,24,0,1,,,,,,,,,0,,,64,0
28824,note_on,0,0,3,,,,,,,,,2,,,40,0
28824,note_on,24,0,3,,,,,,,,,2,,,47,0
28824,note_on,0,0,1,,,,,,,,,0,,,56,0
29040,note_on,0,0,3,,,,,,,,,2,,,47,36
29040,note_on,216,0,1,,,,,,,,,0,,,56,36
29040,note_on,0,0,1,,,,,,,,,0,,,64,36
29040,note_on,216,0,3,,,,,,,,,2,,,40,36
29064,note_on,24,0,1,,,,,,,,,0,,,64,0
29064,note_on,0,0,1,,,,,,,,,0,,,56,0
29064,note_on,0,0,3,,,,,,,,,2,,,40,0
29064,note_on,24,0,3,,,,,,,,,2,,,47,0
29280,control_change,216,0,1,,,,,,,,,0,64,0,,
29280,note_on,0,0,1,,,,,,,,,0,,,56,36
29280,note_on,0,0,1,,,,,,,,,0,,,64,36
29280,note_on,0,0,3,,,,,,,,,2,,,47,36
29280,note_on,0,0,3,,,,,,,,,2,,,40,36
29280,control_change,216,0,3,,,,,,,,,2,64,0,,
29292,note_on,12,0,1,,,,,,,,,0,,,64,0
29292,note_on,0,0,1,,,,,,,,,0,,,56,0
29292,note_on,0,0,3,,,,,,,,,2,,,40,0
29292,note_on,12,0,3,,,,,,,,,2,,,47,0
29400,note_on,0,0,3,,,,,,,,,2,,,47,36
29400,note_on,0,0,3,,,,,,,,,2,,,40,36
29400,control_change,108,0,3,,,,,,,,,2,64,127,,
29400,note_on,0,0,1,,,,,,,,,0,,,68,36
29400,note_on,0,0,1,,,,,,,,,0,,,56,36
29400,control_change,108,0,1,,,,,,,,,0,64,127,,
29412,note_on,0,0,1,,,,,,,,,0,,,56,0
29412,note_on,12,0,1,,,,,,,,,0,,,68,0
29412,note_on,12,0,3,,,,,,,,,2,,,47,0
29412,note_on,0,0,3,,,,,,,,,2,,,40,0
29520,note_on,108,0,1,,,,,,,,,0,,,56,36
29520,note_on,108,0,3,,,,,,,,,2,,,40,36
29520,note_on,0,0,3,,,,,,,,,2,,,47,36
29520,note_on,0,0,1,,,,,,,,,0,,,66,36
29532,note_on,0,0,1,,,,,,,,,0,,,56,0
29532,note_on,12,0,3,,,,,,,,,2,,,47,0
29532,note_on,12,0,1,,,,,,,,,0,,,66,0
29532,note_on,0,0,3,,,,,,,,,2,,,40,0
29640,control_change,108,0,1,,,,,,,,,0,64,0,,
29640,note_on,0,0,1,,,,,,,,,0,,,56,36
29640,note_on,0,0,1,,,,,,,,,0,,,68,36
29640,note_on,0,0,3,,,,,,,,,2,,,47,36
29640,control_change,108,0,3,,,,,,,,,2,64,0,,
29640,note_on,0,0,3,,,,,,,,,2,,,40,36
29652,note_on,12,0,1,,,,,,,,,0,,,68,0
29652,note_on,12,0,3,,,,,,,,,2,,,47,0
29652,note_on,0,0,3,,,,,,,,,2,,,40,0
29652,note_on,0,0,1,,,,,,,,,0,,,56,0
29760,note_on,0,0,3,,,,,,,,,2,,,40,36
29760,note_on,0,0,1,,,,,,,,,0,,,57,54
29760,control_change,108,0,3,,,,,,,,,2,64,127,,
29760,control_change,108,0,1,,,,,,,,,0,64,127,,
29760,note_on,0,0,3,,,,,,,,,2,,,49,36
29760,note_on,0,0,1,,,,,,,,,0,,,61,62
29784,note_on,24,0,1,,,,,,,,,0,,,61,0
29784,note_on,0,0,3,,,,,,,,,2,,,40,0
29784,note_on,24,0,3,,,,,,,,,2,,,49,0
29784,note_on,0,0,1,,,,,,,,,0,,,57,0
30000,note_on,216,0,3,,,,,,,,,2,,,40,36
30000,note_on,0,0,1,,,,,,,,,0,,,61,36
30000,note_on,216,0,1,,,,,,,,,0,,,57,36
30000,note_on,0,0,3,,,,,,,,,2,,,49,36
30024,note_on,24,0,1,,,,,,,,,0,,,61,0
30024,note_on,0,0,1,,,,,,,,,0,,,57,0
30024,note_on,24,0,3,,,,,,,,,2,,,49,0
30024,note_on,0,0,3,,,,,,,,,2,,,40,0
30240,control_change,216,0,3,,,,,,,,,2,64,0,,
30240,note_on,0,0,3,,,,,,,,,2,,,40,36
30240,note_on,0,0,3,,,,,,,,,2,,,49,36
30240,control_change,216,0,1,,,,,,,,,0,64,0,,
30240,note_on,0,0,1,,,,,,,,,0,,,61,36
30240,note_on,0,0,1,,,,,,,,,0,,,57,36
30252,note_on,12,0,3,,,,,,,,,2,,,49,0
30252,note_on,0,0,3,,,,,,,,,2,,,40,0
30252,note_on,0,0,1,,,,,,,,,0,,,57,0
30252,note_on,12,0,1,,,,,,,,,0,,,61,0
30360,note_on,0,0,1,,,,,,,,,0,,,66,36
30360,note_on,0,0,1,,,,,,,,,0,,,59,36
30360,note_on,0,0,1,,,,,,,,,0,,,57,36
30360,control_change,108,0,1,,,,,,,,,0,64,127,,
30360,control_change,108,0,3,,,,,,,,,2,64,127,,
30360,note_on,0,0,3,,,,,,,,,2,,,51,36
30360,note_on,0,0,3,,,,,,,,,2,,,40,36
30372,note_on,0,0,3,,,,,,,,,2,,,40,0
30372,note_on,12,0,3,,,,,,,,,2,,,51,0
30372,note_on,12,0,1,,,,,,,,,0,,,66,0
30372,note_on,0,0,1,,,,,,,,,0,,,59,0
30372,note_on,0,0,1,,,,,,,,,0,,,57,0
30480,note_on,0,0,1,,,,,,,,,0,,,59,36
30480,note_on,108,0,3,,,,,,,,,2,,,40,36
30480,note_on,0,0,1,,,,,,,,,0,,,64,36
30480,note_on,0,0,3,,,,,,,,,2,,,49,36
30480,note_on,108,0,1,,,,,,,,,0,,,57,36
30492,note_on,0,0,3,,,,,,,,,2,,,40,0
30492,note_on,0,0,1,,,,,,,,,0,,,59,0
30492,note_on,0,0,1,,,,,,,,,0,,,57,0
30492,note_on,12,0,1,,,,,,,,,0,,,64,0
30492,note_on,12,0,3,,,,,,,,,2,,,49,0
30600,control_change,108,0,1,,,,,,,,,0,64,0,,
30600,note_on,0,0,1,,,,,,,,,0,,,57,36
30600,note_on,0,0,1,,,,,,,,,0,,,59,36
30600,note_on,0,0,1,,,,,,,,,0,,,66,36
30600,control_change,108,0,3,,,,,,,,,2,64,0,,
30600,note_on,0,0,3,,,,,,,,,2,,,40,36
30600,note_on,0,0,3,,,,,,,,,2,,,51,36
30612,note_on,0,0,1,,,,,,,,,0,,,59,0
30612,note_on,12,0,1,,,,,,,,,0,,,66,0
30612,note_on,12,0,3,,,,,,,,,2,,,51,0
30612,note_on,0,0,3,,,,,,,,,2,,,40,0
30612,note_on,0,0,1,,,,,,,,,0,,,57,0
30720,note_on,0,0,1,,,,,,,,,0,,,56,54
30720,control_change,108,0,3,,,,,,,,,2,64,127,,
30720,note_on,0,0,1,,,,,,,,,0,,,59,62
30720,note_on,0,0,3,,,,,,,,,2,,,40,36
30720,note_on,0,0,3,,,,,,,,,2,,,52,36
30720,control_change,108,0,1,,,,,,,,,0,64,127,,
30744,note_on,0,0,3,,,,,,,,,2,,,40,0
30744,note_on,24,0,3,,,,,,,,,2,,,52,0
30744,note_on,24,0,1,,,,,,,,,0,,,59,0
30744,note_on,0,0,1,,,,,,,,,0,,,56,0
30960,note_on,0,0,3,,,,,,,,,2,,,47,36
30960,note_on,216,0,1,,,,,,,,,0,,,56,36
30960,note_on,0,0,1,,,,,,,,,0,,,59,36
30960,note_on,0,0,1,,,,,,,,,0,,,64,36
30960,note_on,216,0,3,,,,,,,,,2,,,40,36
30984,note_on,0,0,3,,,,,,,,,2,,,40,0
30984,note_on,24,0,1,,,,,,,,,0,,,64,0
30984,note_on,0,0,1,,,,,,,,,0,,,59,0
30984,note_on,0,0,1,,,,,,,,,0,,,56,0
30984,note_on,24,0,3,,,,,,,,,2,,,47,0
31200,control_change,216,0,1,,,,,,,,,0,64,0,,
31200,control_change,0,0,1,,,,,,,,,0,64,0,,
31200,note_on,0,0,1,,,,,,,,,0,,,56,36
31200,control_change,216,0,3,,,,,,,,,2,64,0,,
31200,note_on,0,0,3,,,,,,,,,2,,,40,36
31200,note_on,0,0,3,,,,,,,,,2,,,47,36
31200,note_on,0,0,1,,,,,,,,,0,,,64,36
31212,note_on,12,0,3,,,,,,,,,2,,,47,0
31212,note_on,0,0,3,,,,,,,,,2,,,40,0
31212,note_on,0,0,1,,,,,,,,,0,,,56,0
31212,note_on,12,0,1,,,,,,,,,0,,,64,0
31320,note_on,0,0,3,,,,,,,,,2,,,40,36
31320,note_on,0,0,1,,,,,,,,,0,,,68,36
31320,control_change,108,0,1,,,,,,,,,0,64,127,,
31320,note_on,0,0,3,,,,,,,,,2,,,47,36
31320,note_on,0,0,1,,,,,,,,,0,,,56,36
31320,control_change,108,0,3,,,,,,,,,2,64,127,,
31332,note_on,0,0,1,,,,,,,,,0,,,56,0
31332,note_on,12,0,1,,,,,,,,,0,,,68,0
31332,note_on,12,0,3,,,,,,,,,2,,,47,0
31332,note_on,0,0,3,,,,,,,,,2,,,40,0
31440,note_on,0,0,3,,,,,,,,,2,,,47,36
31440,note_on,0,0,1,,,,,,,,,0,,,66,49
31440,note_on,108,0,1,,,,,,,,,0,,,56,49
31440,note_on,108,0,3,,,,,,,,,2,,,40,36
31452,note_on,12,0,3,,,,,,,,,2,,,47,0
31452,note_on,0,0,1,,,,,,,,,0,,,56,0
31452,note_on,0,0,3,,,,,,,,,2,,,40,0
31452,note_on,12,0,1,,,,,,,,,0,,,66,0
31560,control_change,108,0,1,,,,,,,,,0,64,0,,
31560,note_on,0,0,1,,,,,,,,,0,,,56,49
31560,note_on,0,0,1,,,,,,,,,0,,,68,49
31560,note_on,0,0,3,,,,,,,,,2,,,47,36
31560,note_on,0,0,3,,,,,,,,,2,,,40,36
31560,control_change,108,0,3,,,,,,,,,2,64,0,,
31572,note_on,12,0,1,,,,,,,,,0,,,68,0
31572,note_on,0,0,1,,,,,,,,,0,,,56,0
31572,note_on,0,0,3,,,,,,,,,2,,,40,0
31572,note_on,12,0,3,,,,,,,,,2,,,47,0
31680,control_change,108,0,3,,,,,,,,,2,64,127,,
31680,note_on,0,0,3,,,,,,,,,2,,,49,36
31680,note_on,0,0,3,,,,,,,,,2,,,40,36
31680,note_on,0,0,1,,,,,,,,,0,,,69,75
31680,note_on,0,0,1,,,,,,,,,0,,,64,70
31680,note_on,0,0,1,,,,,,,,,0,,,57,65
31680,control_change,108,0,1,,,,,,,,,0,64,127,,
31704,note_on,0,0,3,,,,,,,,,2,,,40,0
31704,note_on,24,0,3,,,,,,,,,2,,,49,0
31704,note_on,0,0,1,,,,,,,,,0,,,57,0
31704,note_on,0,0,1,,,,,,,,,0,,,64,0
31704,note_on,24,0,1,,,,,,,,,0,,,69,0
31920,control_change,216,0,3,,,,,,,,,2,64,0,,
31920,note_on,0,0,3,,,,,,,,,2,,,40,36
31920,note_on,0,0,3,,,,,,,,,2,,,49,36
31920,note_on,0,0,1,,,,,,,,,0,,,57,49
31920,note_on,0,0,1,,,,,,,,,0,,,69,49
31920,note_on,0,0,1,,,,,,,,,0,,,64,49
31920,control_change,216,0,1,,,,,,,,,0,64,0,,
31944,note_on,24,0,1,,,,,,,,,0,,,69,0
31944,note_on,24,0,3,,,,,,,,,2,,,49,0
31944,note_on,0,0,3,,,,,,,,,2,,,40,0
31944,note_on,0,0,1,,,,,,,,,0,,,64,0
31944,note_on,0,0,1,,,,,,,,,0,,,57,0
32160,note_on,32160,0,4,,,,,,,,,3,,,40,36
32160,control_change,216,0,1,,,,,,,,,0,64,127,,
32160,note_on,0,0,1,,,,,,,,,0,,,69,57
32160,note_on,0,0,1,,,,,,,,,0,,,73,62
32160,control_change,216,0,3,,,,,,,,,2,64,127,,
32160,note_on,0,0,3,,,,,,,,,2,,,49,49
32160,note_on,0,0,1,,,,,,,,,0,,,61,52
32184,note_on,24,0,1,,,,,,,,,0,,,73,0
32184,note_on,0,0,1,,,,,,,,,0,,,69,0
32184,note_on,0,0,1,,,,,,,,,0,,,61,0
32280,note_on,120,0,3,,,,,,,,,2,,,49,0
32280,note_on,0,0,3,,,,,,,,,2,,,52,49
32400,note_on,120,0,3,,,,,,,,,2,,,52,0
32400,note_on,0,0,3,,,,,,,,,2,,,57,49
32400,note_on,0,0,1,,,,,,,,,0,,,73,49
32400,note_on,0,0,1,,,,,,,,,0,,,69,49
32400,note_on,0,0,1,,,,,,,,,0,,,61,49
32400,control_change,216,0,1,,,,,,,,,0,64,0,,
32424,note_on,24,0,1,,,,,,,,,0,,,73,0
32424,note_on,0,0,1,,,,,,,,,0,,,61,0
32424,note_on,0,0,1,,,,,,,,,0,,,69,0
32520,control_change,0,0,3,,,,,,,,,2,64,0,,
32520,note_on,0,0,3,,,,,,,,,2,,,61,49
32520,note_on,120,0,3,,,,,,,,,2,,,57,0
32640,note_on,120,0,3,,,,,,,,,2,,,61,0
32640,note_on,0,0,3,,,,,,,,,2,,,59,36
32640,note_on,0,0,3,,,,,,,,,2,,,52,36
32640,control_change,0,0,3,,,,,,,,,2,64,127,,
32640,note_on,480,0,4,,,,,,,,,3,,,40,0
32640,note_on,0,0,1,,,,,,,,,0,,,68,70
32640,note_on,0,0,1,,,,,,,,,0,,,64,65
32640,control_change,216,0,1,,,,,,,,,0,64,127,,
32640,note_on,0,0,1,,,,,,,,,0,,,76,75
32664,note_on,24,0,1,,,,,,,,,0,,,76,0
32664,note_on,0,0,1,,,,,,,,,0,,,68,0
32664,note_on,0,0,1,,,,,,,,,0,,,64,0
32664,note_on,24,0,3,,,,,,,,,2,,,59,0
32664,note_on,0,0,3,,,,,,,,,2,,,52,0
32880,note_on,0,0,3,,,,,,,,,2,,,59,36
32880,control_change,216,0,1,,,,,,,,,0,64,0,,
32880,note_on,0,0,1,,,,,,,,,0,,,76,36
32880,note_on,0,0,1,,,,,,,,,0,,,64,36
32880,control_change,216,0,3,,,,,,,,,2,64,0,,
32880,note_on,0,0,3,,,,,,,,,2,,,52,36
32880,note_on,0,0,1,,,,,,,,,0,,,68,36
32904,note_on,24,0,3,,,,,,,,,2,,,59,0
32904,note_on,0,0,3,,,,,,,,,2,,,52,0
32904,note_on,24,0,1,,,,,,,,,0,,,76,0
32904,note_on,0,0,1,,,,,,,,,0,,,68,0
32904,note_on,0,0,1,,,,,,,,,0,,,64,0
33120,note_on,0,0,3,,,,,,,,,2,,,52,36
33120,note_on,0,0,3,,,,,,,,,2,,,59,36
33120,control_change,216,0,1,,,,,,,,,0,64,127,,
33120,note_on,0,0,1,,,,,,,,,0,,,63,36
33120,note_on,0,0,1,,,,,,,,,0,,,71,36
33120,note_on,0,0,1,,,,,,,,,0,,,78,36
33120,control_change,216,0,3,,,,,,,,,2,64,127,,
33132,note_on,0,0,1,,,,,,,,,0,,,71,0
33132,note_on,0,0,3,,,,,,,,,2,,,52,0
33132,note_on,12,0,3,,,,,,,,,2,,,59,0
33132,note_on,12,0,1,,,,,,,,,0,,,78,0
33132,note_on,0,0,1,,,,,,,,,0,,,63,0
33240,note_on,108,0,1,,,,,,,,,0,,,66,36
33240,note_on,0,0,1,,,,,,,,,0,,,69,36
33240,note_on,0,0,1,,,,,,,,,0,,,75,36
33240,note_on,0,0,3,,,,,,,,,2,,,59,36
33240,note_on,108,0,3,,,,,,,,,2,,,52,36
33252,note_on,0,0,3,,,,,,,,,2,,,52,0
33252,note_on,12,0,1,,,,,,,,,0,,,75,0
33252,note_on,0,0,1,,,,,,,,,0,,,69,0
33252,note_on,0,0,1,,,,,,,,,0,,,66,0
33252,note_on,12,0,3,,,,,,,,,2,,,59,0
33360,note_on,0,0,3,,,,,,,,,2,,,63,36
33360,note_on,108,0,1,,,,,,,,,0,,,66,36
33360,note_on,0,0,1,,,,,,,,,0,,,71,36
33360,note_on,108,0,3,,,,,,,,,2,,,52,36
33372,note_on,12,0,3,,,,,,,,,2,,,63,0
33372,note_on,0,0,3,,,,,,,,,2,,,52,0
33372,note_on,12,0,1,,,,,,,,,0,,,71,0
33372,note_on,0,0,1,,,,,,,,,0,,,66,0
33480,note_on,0,0,1,,,,,,,,,0,,,69,36
33480,note_on,0,0,3,,,,,,,,,2,,,61,36
33480,note_on,0,0,3,,,,,,,,,2,,,52,36
33480,control_change,108,0,3,,,,,,,,,2,64,0,,
33480,note_on,0,0,1,,,,,,,,,0,,,64,36
33480,control_change,108,0,1,,,,,,,,,0,64,0,,
33492,note_on,12,0,1,,,,,,,,,0,,,69,0
33492,note_on,0,0,1,,,,,,,,,0,,,64,0
33492,note_on,0,0,3,,,,,,,,,2,,,52,0
33492,note_on,12,0,3,,,,,,,,,2,,,61,0
33600,note_on,0,0,1,,,,,,,,,0,,,64,54
33600,note_on,0,0,3,,,,,,,,,2,,,59,36
33600,note_on,0,0,1,,,,,,,,,0,,,68,62
33600,control_change,108,0,1,,,,,,,,,0,64,127,,
33600,note_on,0,0,3,,,,,,,,,2,,,52,36
33600,control_change,108,0,3,,,,,,,,,2,64,127,,
33624,note_on,24,0,3,,,,,,,,,2,,,59,0
33624,note_on,0,0,3,,,,,,,,,2,,,52,0
33624,note_on,0,0,1,,,,,,,,,0,,,64,0
33624,note_on,24,0,1,,,,,,,,,0,,,68,0
33840,note_on,0,0,3,,,,,,,,,2,,,59,36
33840,control_change,216,0,1,,,,,,,,,0,64,0,,
33840,note_on,0,0,1,,,,,,,,,0,,,68,36
33840,note_on,0,0,1,,,,,,,,,0,,,64,36
33840,note_on,0,0,3,,,,,,,,,2,,,52,36
33840,control_change,216,0,3,,,,,,,,,2,64,0,,
33864,note_on,24,0,1,,,,,,,,,0,,,68,0
33864,note_on,0,0,3,,,,,,,,,2,,,52,0
33864,note_on,24,0,3,,,,,,,,,2,,,59,0
33864,note_on,0,0,1,,,,,,,,,0,,,64,0
34080,note_on,0,0,1,,,,,,,,,0,,,71,36
34080,note_on,0,0,3,,,,,,,,,2,,,52,36
34080,control_change,216,0,3,,,,,,,,,2,64,127,,
34080,note_on,0,0,1,,,,,,,,,0,,,63,36
34080,control_change,216,0,1,,,,,,,,,0,64,127,,
34080,note_on,0,0,1,,,,,,,,,0,,,78,36
34080,note_on,0,0,3,,,,,,,,,2,,,59,36
34092,note_on,0,0,1,,,,,,,,,0,,,71,0
34092,note_on,0,0,1,,,,,,,,,0,,,63,0
34092,note_on,0,0,3,,,,,,,,,2,,,52,0
34092,note_on,12,0,3,,,,,,,,,2,,,59,0
34092,note_on,12,0,1,,,,,,,,,0,,,78,0
34200,note_on,0,0,1,,,,,,,,,0,,,75,36
34200,note_on,0,0,1,,,,,,,,,0,,,69,36
34200,note_on,108,0,1,,,,,,,,,0,,,66,36
34200,note_on,108,0,3,,,,,,,,,2,,,52,36
34200,note_on,0,0,3,,,,,,,,,2,,,59,36
34212,note_on,0,0,3,,,,,,,,,2,,,52,0
34212,note_on,12,0,1,,,,,,,,,0,,,75,0
34212,note_on,12,0,3,,,,,,,,,2,,,59,0
34212,note_on,0,0,1,,,,,,,,,0,,,69,0
34212,note_on,0,0,1,,,,,,,,,0,,,66,0
34320,note_on,0,0,3,,,,,,,,,2,,,63,36
34320,note_on,108,0,3,,,,,,,,,2,,,52,36
34320,note_on,108,0,1,,,,,,,,,0,,,66,36
34320,note_on,0,0,1,,,,,,,,,0,,,71,36
34332,note_on,0,0,3,,,,,,,,,2,,,52,0
34332,note_on,12,0,3,,,,,,,,,2,,,63,0
34332,note_on,0,0,1,,,,,,,,,0,,,66,0
34332,note_on,12,0,1,,,,,,,,,0,,,71,0
34440,note_on,0,0,1,,,,,,,,,0,,,69,36
34440,note_on,0,0,1,,,,,,,,,0,,,64,36
34440,note_on,0,0,3,,,,,,,,,2,,,61,36
34440,note_on,0,0,3,,,,,,,,,2,,,52,36
34440,control_change,108,0,3,,,,,,,,,2,64,0,,
34440,control_change,108,0,1,,,,,,,,,0,64,0,,
34452,note_on,12,0,1,,,,,,,,,0,,,69,0
34452,note_on,0,0,1,,,,,,,,,0,,,64,0
34452,note_on,0,0,3,,,,,,,,,2,,,52,0
34452,note_on,12,0,3,,,,,,,,,2,,,61,0
34560,note_on,0,0,1,,,,,,,,,0,,,64,54
34560,note_on,0,0,1,,,,,,,,,0,,,68,62
34560,note_on,0,0,3,,,,,,,,,2,,,59,36
34560,note_on,0,0,3,,,,,,,,,2,,,52,36
34560,control_change,108,0,3,,,,,,,,,2,64,127,,
34560,control_change,108,0,1,,,,,,,,,0,64,127,,
34584,note_on,24,0,1,,,,,,,,,0,,,68,0
34584,note_on,24,0,3,,,,,,,,,2,,,59,0
34584,note_on,0,0,3,,,,,,,,,2,,,52,0
34584,note_on,0,0,1,,,,,,,,,0,,,64,0
34800,note_on,216,0,1,,,,,,,,,0,,,64,36
34800,note_on,0,0,1,,,,,,,,,0,,,68,36
34800,note_on,216,0,3,,,,,,,,,2,,,52,36
34800,note_on,0,0,3,,,,,,,,,2,,,59,36
34824,note_on,24,0,1,,,,,,,,,0,,,68,0
34824,note_on,0,0,1,,,,,,,,,0,,,64,0
34824,note_on,24,0,3,,,,,,,,,2,,,59,0
34824,note_on,0,0,3,,,,,,,,,2,,,52,0
35040,note_on,0,0,3,,,,,,,,,2,,,52,36
35040,note_on,0,0,3,,,,,,,,,2,,,56,36
35040,control_change,216,0,3,,,,,,,,,2,64,0,,
35040,control_change,216,0,1,,,,,,,,,0,64,0,,
35040,note_on,0,0,1,,,,,,,,,0,,,64,36
35052,note_on,0,0,3,,,,,,,,,2,,,52,0
35052,note_on,12,0,1,,,,,,,,,0,,,64,0
35052,note_on,12,0,3,,,,,,,,,2,,,56,0
35160,control_change,108,0,1,,,,,,,,,0,64,127,,
35160,note_on,0,0,1,,,,,,,,,0,,,64,54
35160,note_on,0,0,1,,,,,,,,,0,,,68,62
35160,note_on,0,0,3,,,,,,,,,2,,,59,62
35160,note_on,0,0,3,,,,,,,,,2,,,52,54
35160,control_change,108,0,3,,,,,,,,,2,64,127,,
35172,note_on,12,0,3,,,,,,,,,2,,,59,0
35172,note_on,0,0,1,,,,,,,,,0,,,64,0
35172,note_on,0,0,3,,,,,,,,,2,,,52,0
35172,note_on,12,0,1,,,,,,,,,0,,,68,0
35280,note_on,0,0,3,,,,,,,,,2,,,57,62
35280,note_on,108,0,1,,,,,,,,,0,,,64,54
35280,note_on,108,0,3,,,,,,,,,2,,,52,54
35280,note_on,0,0,1,,,,,,,,,0,,,66,62
35292,note_on,12,0,3,,,,,,,,,2,,,57,0
35292,note_on,0,0,3,,,,,,,,,2,,,52,0
35292,note_on,12,0,1,,,,,,,,,0,,,66,0
35292,note_on,0,0,1,,,,,,,,,0,,,64,0
35400,note_on,0,0,3,,,,,,,,,2,,,52,36
35400,note_on,0,0,3,,,,,,,,,2,,,59,36
35400,control_change,108,0,1,,,,,,,,,0,64,0,,
35400,note_on,0,0,1,,,,,,,,,0,,,64,36
35400,note_on,0,0,1,,,,,,,,,0,,,68,36
35400,control_change,108,0,3,,,,,,,,,2,64,0,,
35412,note_on,0,0,1,,,,,,,,,0,,,64,0
35412,note_on,12,0,1,,,,,,,,,0,,,68,0
35412,note_on,12,0,3,,,,,,,,,2,,,59,0
35412,note_on,0,0,3,,,,,,,,,2,,,52,0
35520,note_on,0,0,3,,,,,,,,,2,,,61,62
35520,note_on,0,0,3,,,,,,,,,2,,,52,54
35520,control_change,108,0,3,,,,,,,,,2,64,127,,
35520,note_on,0,0,1,,,,,,,,,0,,,71,62
35520,control_change,108,0,1,,,,,,,,,0,64,127,,
35520,note_on,0,0,1,,,,,,,,,0,,,64,54
35544,note_on,0,0,1,,,,,,,,,0,,,64,0
35544,note_on,24,0,1,,,,,,,,,0,,,71,0
35544,note_on,24,0,3,,,,,,,,,2,,,61,0
35544,note_on,0,0,3,,,,,,,,,2,,,52,0
35760,note_on,0,0,1,,,,,,,,,0,,,70,36
35760,control_change,216,0,1,,,,,,,,,0,64,0,,
35760,note_on,0,0,3,,,,,,,,,2,,,61,36
35760,control_change,216,0,3,,,,,,,,,2,64,0,,
35760,note_on,0,0,3,,,,,,,,,2,,,52,36
35760,note_on,0,0,1,,,,,,,,,0,,,64,36
35772,note_on,0,0,3,,,,,,,,,2,,,52,0
35772,note_on,12,0,3,,,,,,,,,2,,,61,0
35772,note_on,12,0,1,,,,,,,,,0,,,70,0
35772,note_on,0,0,1,,,,,,,,,0,,,64,0
36000,control_change,228,0,1,,,,,,,,,0,64,127,,
36000,note_on,0,0,1,,,,,,,,,0,,,76,52
36000,note_on,0,0,1,,,,,,,,,0,,,83,57
36000,note_on,0,0,1,,,,,,,,,0,,,88,62
36000,control_change,228,0,3,,,,,,,,,2,64,127,,
36000,note_on,0,0,3,,,,,,,,,2,,,64,36
36000,note_on,0,0,3,,,,,,,,,2,,,72,36
36024,note_on,24,0,3,,,,,,,,,2,,,72,0
36024,note_on,0,0,3,,,,,,,,,2,,,64,0
36024,note_on,24,0,1,,,,,,,,,0,,,88,0
36024,note_on,0,0,1,,,,,,,,,0,,,76,0
36024,note_on,0,0,1,,,,,,,,,0,,,83,0
36240,note_on,0,0,1,,,,,,,,,0,,,76,36
36240,note_on,0,0,3,,,,,,,,,2,,,72,36
36240,note_on,0,0,3,,,,,,,,,2,,,64,36
36240,control_change,216,0,3,,,,,,,,,2,64,0,,
36240,note_on,0,0,1,,,,,,,,,0,,,88,36
36240,note_on,0,0,1,,,,,,,,,0,,,81,36
36240,control_change,216,0,1,,,,,,,,,0,64,0,,
36252,note_on,0,0,3,,,,,,,,,2,,,64,0
36252,note_on,12,0,1,,,,,,,,,0,,,88,0
36252,note_on,0,0,1,,,,,,,,,0,,,76,0
36252,note_on,12,0,3,,,,,,,,,2,,,72,0
36252,note_on,0,0,1,,,,,,,,,0,,,81,0
36480,control_change,228,0,1,,,,,,,,,0,64,127,,
36480,note_on,0,0,1,,,,,,,,,0,,,69,62
36480,note_on,0,0,1,,,,,,,,,0,,,64,54
36480,note_on,0,0,3,,,,,,,,,2,,,52,36
36480,control_change,228,0,3,,,,,,,,,2,64,127,,
36480,note_on,0,0,3,,,,,,,,,2,,,59,36
36504,note_on,0,0,3,,,,,,,,,2,,,52,0
36504,note_on,24,0,3,,,,,,,,,2,,,59,0
36504,note_on,0,0,1,,,,,,,,,0,,,64,0
36504,note_on,24,0,1,,,,,,,,,0,,,69,0
36720,note_on,0,0,1,,,,,,,,,0,,,68,36
36720,control_change,216,0,1,,,,,,,,,0,64,0,,
36720,note_on,0,0,3,,,,,,,,,2,,,59,36
36720,note_on,0,0,3,,,,,,,,,2,,,52,36
36720,control_change,216,0,3,,,,,,,,,2,64,0,,
36720,note_on,0,0,1,,,,,,,,,0,,,64,36
36732,note_on,12,0,1,,,,,,,,,0,,,68,0
36732,note_on,0,0,1,,,,,,,,,0,,,64,0
36732,note_on,0,0,3,,,,,,,,,2,,,52,0
36732,note_on,12,0,3,,,,,,,,,2,,,59,0
36960,control_change,228,0,3,,,,,,,,,2,64,127,,
36960,note_on,0,0,1,,,,,,,,,0,,,76,52
36960,control_change,228,0,1,,,,,,,,,0,64,127,,
36960,note_on,0,0,3,,,,,,,,,2,,,71,36
36960,note_on,0,0,3,,,,,,,,,2,,,64,36
36960,note_on,0,0,1,,,,,,,,,0,,,88,62
36960,note_on,0,0,1,,,,,,,,,0,,,81,57
36984,note_on,24,0,3,,,,,,,,,2,,,71,0
36984,note_on,0,0,3,,,,,,,,,2,,,64,0
36984,note_on,0,0,1,,,,,,,,,0,,,81,0
36984,note_on,24,0,1,,,,,,,,,0,,,88,0
36984,note_on,0,0,1,,,,,,,,,0,,,76,0
37200,control_change,216,0,3,,,,,,,,,2,64,0,,
37200,note_on,0,0,3,,,,,,,,,2,,,64,36
37200,note_on,0,0,1,,,,,,,,,0,,,88,36
37200,note_on,0,0,3,,,,,,,,,2,,,71,36
37200,note_on,0,0,1,,,,,,,,,0,,,76,36
37200,control_change,216,0,1,,,,,,,,,0,64,0,,
37200,note_on,0,0,1,,,,,,,,,0,,,79,36
37212,note_on,12,0,1,,,,,,,,,0,,,88,0
37212,note_on,0,0,1,,,,,,,,,0,,,76,0
37212,note_on,12,0,3,,,,,,,,,2,,,71,0
37212,note_on,0,0,3,,,,,,,,,2,,,64,0
37212,note_on,0,0,1,,,,,,,,,0,,,79,0
37440,note_on,228,0,1,,,,,,,,,0,,,54,101
37440,note_on,0,0,1,,,,,,,,,0,,,60,101
37440,note_on,0,0,1,,,,,,,,,0,,,64,101
37440,note_on,228,0,3,,,,,,,,,2,,,33,88
37440,note_on,0,0,1,,,,,,,,,0,,,66,101
37440,note_on,0,0,3,,,,,,,,,2,,,45,88
37680,note_on,0,0,1,,,,,,,,,0,,,54,0
37680,note_on,0,0,1,,,,,,,,,0,,,60,0
37680,note_on,0,0,1,,,,,,,,,0,,,64,0
37680,note_on,0,0,1,,,,,,,,,0,,,54,101
37680,note_on,0,0,1,,,,,,,,,0,,,60,101
37680,note_on,0,0,1,,,,,,,,,0,,,64,101
37680,note_on,0,0,1,,,,,,,,,0,,,66,101
37680,note_on,240,0,3,,,,,,,,,2,,,45,0
37680,note_on,0,0,3,,,,,,,,,2,,,33,0
37680,note_on,0,0,3,,,,,,,,,2,,,33,88
37680,note_on,0,0,3,,,,,,,,,2,,,45,88
37680,note_on,240,0,1,,,,,,,,,0,,,66,0
37800,note_on,120,0,3,,,,,,,,,2,,,45,0
37800,note_on,0,0,1,,,,,,,,,0,,,64,0
37800,note_on,0,0,1,,,,,,,,,0,,,60,0
37800,note_on,0,0,1,,,,,,,,,0,,,54,0
37800,note_on,120,0,1,,,,,,,,,0,,,66,0
37800,note_on,0,0,3,,,,,,,,,2,,,33,0
37920,control_change,120,0,3,,,,,,,,,2,64,127,,
37920,note_on,0,0,3,,,,,,,,,2,,,66,36
37920,note_on,0,0,3,,,,,,,,,2,,,64,36
37920,note_on,0,0,3,,,,,,,,,2,,,57,36
37920,note_on,0,0,1,,,,,,,,,0,,,78,49
37920,control_change,120,0,1,,,,,,,,,0,64,127,,
37920,note_on,0,0,1,,,,,,,,,0,,,73,49
37920,note_on,0,0,1,,,,,,,,,0,,,76,49
38040,note_on,120,0,3,,,,,,,,,2,,,66,0
38040,note_on,0,0,3,,,,,,,,,2,,,64,0
38040,note_on,0,0,3,,,,,,,,,2,,,57,0
38040,note_on,0,0,3,,,,,,,,,2,,,59,52
38040,note_on,0,0,3,,,,,,,,,2,,,64,57
38040,note_on,0,0,3,,,,,,,,,2,,,68,62
38040,note_on,0,0,1,,,,,,,,,0,,,76,70
38040,note_on,0,0,1,,,,,,,,,0,,,71,65
38040,note_on,0,0,1,,,,,,,,,0,,,73,0
38040,note_on,0,0,1,,,,,,,,,0,,,80,75
38040,note_on,0,0,1,,,,,,,,,0,,,76,0
38040,note_on,120,0,1,,,,,,,,,0,,,78,0
38160,note_on,0,0,3,,,,,,,,,2,,,61,54
38160,note_on,0,0,3,,,,,,,,,2,,,64,62
38160,note_on,0,0,3,,,,,,,,,2,,,59,0
38160,note_on,0,0,3,,,,,,,,,2,,,64,0
38160,note_on,120,0,3,,,,,,,,,2,,,68,0
38160,note_on,0,0,1,,,,,,,,,0,,,76,0
38160,note_on,120,0,1,,,,,,,,,0,,,80,0
38160,note_on,0,0,1,,,,,,,,,0,,,71,0
38160,note_on,0,0,1,,,,,,,,,0,,,69,65
38160,note_on,0,0,1,,,,,,,,,0,,,76,70
38160,note_on,0,0,1,,,,,,,,,0,,,81,75
38280,control_change,0,0,3,,,,,,,,,2,64,0,,
38280,note_on,120,0,1,,,,,,,,,0,,,81,0
38280,note_on,0,0,1,,,,,,,,,0,,,76,0
38280,note_on,120,0,3,,,,,,,,,2,,,64,0
38280,note_on,0,0,3,,,,,,,,,2,,,61,0
38280,note_on,0,0,1,,,,,,,,,0,,,80,49
38280,note_on,0,0,3,,,,,,,,,2,,,59,36
38280,control_change,0,0,1,,,,,,,,,0,64,0,,
38280,note_on,0,0,3,,,,,,,,,2,,,64,36
38280,note_on,0,0,3,,,,,,,,,2,,,68,36
38280,note_on,0,0,1,,,,,,,,,0,,,69,0
38280,note_on,0,0,1,,,,,,,,,0,,,71,49
38280,note_on,0,0,1,,,,,,,,,0,,,76,49
38400,control_change,0,0,3,,,,,,,,,2,64,127,,
38400,note_on,0,0,3,,,,,,,,,2,,,59,0
38400,note_on,0,0,1,,,,,,,,,0,,,71,0
38400,note_on,120,0,3,,,,,,,,,2,,,68,0
38400,note_on,0,0,3,,,,,,,,,2,,,64,0
38400,note_on,0,0,3,,,,,,,,,2,,,59,36
38400,note_on,120,0,1,,,,,,,,,0,,,80,0
38400,note_on,0,0,3,,,,,,,,,2,,,69,36
38400,note_on,0,0,1,,,,,,,,,0,,,76,0
38400,note_on,0,0,1,,,,,,,,,0,,,71,65
38400,note_on,0,0,1,,,,,,,,,0,,,76,70
38400,note_on,0,0,1,,,,,,,,,0,,,83,75
38400,control_change,0,0,1,,,,,,,,,0,64,127,,
38400,note_on,0,0,3,,,,,,,,,2,,,66,36
38424,note_on,24,0,3,,,,,,,,,2,,,69,0
38424,note_on,0,0,3,,,,,,,,,2,,,66,0
38424,note_on,24,0,1,,,,,,,,,0,,,83,0
38424,note_on,0,0,1,,,,,,,,,0,,,76,0
38424,note_on,0,0,1,,,,,,,,,0,,,71,0
38424,note_on,0,0,3,,,,,,,,,2,,,59,0
38640,note_on,0,0,1,,,,,,,,,0,,,83,49
38640,control_change,216,0,3,,,,,,,,,2,64,0,,
38640,note_on,0,0,3,,,,,,,,,2,,,59,36
38640,note_on,0,0,3,,,,,,,,,2,,,66,36
38640,note_on,0,0,3,,,,,,,,,2,,,69,36
38640,control_change,216,0,1,,,,,,,,,0,64,0,,
38640,note_on,0,0,1,,,,,,,,,0,,,71,49
38640,note_on,0,0,1,,,,,,,,,0,,,75,49
38652,note_on,12,0,3,,,,,,,,,2,,,69,0
38652,note_on,0,0,1,,,,,,,,,0,,,71,0
38652,note_on,0,0,1,,,,,,,,,0,,,75,0
38652,note_on,12,0,1,,,,,,,,,0,,,83,0
38652,note_on,0,0,3,,,,,,,,,2,,,66,0
38652,note_on,0,0,3,,,,,,,,,2,,,59,0
38880,note_on,0,0,1,,,,,,,,,0,,,68,49
38880,control_change,228,0,3,,,,,,,,,2,64,127,,
38880,note_on,0,0,3,,,,,,,,,2,,,52,36
38880,note_on,0,0,3,,,,,,,,,2,,,59,36
38880,note_on,0,0,1,,,,,,,,,0,,,64,49
38880,control_change,228,0,1,,,,,,,,,0,64,127,,
38904,note_on,24,0,3,,,,,,,,,2,,,59,0
38904,note_on,0,0,3,,,,,,,,,2,,,52,0
38904,note_on,24,0,1,,,,,,,,,0,,,68,0
38904,note_on,0,0,1,,,,,,,,,0,,,64,0
39120,note_on,0,0,1,,,,,,,,,0,,,64,49
39120,note_on,0,0,1,,,,,,,,,0,,,68,49
39120,control_change,216,0,1,,,,,,,,,0,64,0,,
39120,note_on,0,0,3,,,,,,,,,2,,,59,36
39120,note_on,0,0,3,,,,,,,,,2,,,52,36
39120,control_change,216,0,3,,,,,,,,,2,64,0,,
39132,note_on,0,0,1,,,,,,,,,0,,,64,0
39132,note_on,12,0,1,,,,,,,,,0,,,68,0
39132,note_on,12,0,3,,,,,,,,,2,,,59,0
39132,note_on,0,0,3,,,,,,,,,2,,,52,0
39360,note_on,228,0,1,,,,,,,,,0,,,54,115
39360,note_on,0,0,1,,,,,,,,,0,,,64,123
39360,note_on,0,0,1,,,,,,,,,0,,,60,119
39360,note_on,0,0,1,,,,,,,,,0,,,66,127
39360,note_on,0,0,3,,,,,,,,,2,,,45,88
39360,note_on,228,0,3,,,,,,,,,2,,,33,88
39600,note_on,0,0,3,,,,,,,,,2,,,45,88
39600,note_on,0,0,1,,,,,,,,,0,,,66,101
39600,note_on,0,0,1,,,,,,,,,0,,,64,101
39600,note_on,0,0,1,,,,,,,,,0,,,60,101
39600,note_on,0,0,1,,,,,,,,,0,,,54,101
39600,note_on,0,0,1,,,,,,,,,0,,,64,0
39600,note_on,0,0,1,,,,,,,,,0,,,60,0
39600,note_on,0,0,1,,,,,,,,,0,,,54,0
39600,note_on,240,0,1,,,,,,,,,0,,,66,0
39600,note_on,240,0,3,,,,,,,,,2,,,45,0
39600,note_on,0,0,3,,,,,,,,,2,,,33,0
39600,note_on,0,0,3,,,,,,,,,2,,,33,88
39720,note_on,120,0,1,,,,,,,,,0,,,66,0
39720,note_on,0,0,1,,,,,,,,,0,,,54,0
39720,note_on,0,0,1,,,,,,,,,0,,,64,0
39720,note_on,0,0,1,,,,,,,,,0,,,60,0
39720,note_on,120,0,3,,,,,,,,,2,,,45,0
39720,note_on,0,0,3,,,,,,,,,2,,,33,0
39840,note_on,0,0,3,,,,,,,,,2,,,64,36
39840,note_on,0,0,1,,,,,,,,,0,,,78,49
39840,note_on,0,0,1,,,,,,,,,0,,,76,49
39840,note_on,0,0,1,,,,,,,,,0,,,73,49
39840,control_change,120,0,1,,,,,,,,,0,64,127,,
39840,note_on,0,0,3,,,,,,,,,2,,,66,36
39840,note_on,0,0,3,,,,,,,,,2,,,57,36
39840,control_change,120,0,3,,,,,,,,,2,64,127,,
39960,note_on,120,0,3,,,,,,,,,2,,,66,0
39960,note_on,0,0,3,,,,,,,,,2,,,64,0
39960,note_on,0,0,3,,,,,,,,,2,,,57,0
39960,note_on,0,0,3,,,,,,,,,2,,,59,52
39960,note_on,0,0,3,,,,,,,,,2,,,64,57
39960,note_on,0,0,3,,,,,,,,,2,,,68,62
39960,note_on,0,0,1,,,,,,,,,0,,,80,75
39960,note_on,0,0,1,,,,,,,,,0,,,76,0
39960,note_on,0,0,1,,,,,,,,,0,,,76,70
39960,note_on,0,0,1,,,,,,,,,0,,,71,65
39960,note_on,0,0,1,,,,,,,,,0,,,73,0
39960,note_on,120,0,1,,,,,,,,,0,,,78,0
40080,note_on,0,0,1,,,,,,,,,0,,,69,65
40080,note_on,0,0,1,,,,,,,,,0,,,76,70
40080,note_on,0,0,3,,,,,,,,,2,,,59,0
40080,note_on,120,0,1,,,,,,,,,0,,,80,0
40080,note_on,0,0,3,,,,,,,,,2,,,64,62
40080,note_on,120,0,3,,,,,,,,,2,,,68,0
40080,note_on,0,0,1,,,,,,,,,0,,,76,0
40080,note_on,0,0,3,,,,,,,,,2,,,64,0
40080,note_on,0,0,1,,,,,,,,,0,,,81,75
40080,note_on,0,0,1,,,,,,,,,0,,,71,0
40080,note_on,0,0,3,,,,,,,,,2,,,61,54
40200,note_on,120,0,3,,,,,,,,,2,,,64,0
40200,note_on,0,0,3,,,,,,,,,2,,,61,0
40200,note_on,120,0,1,,,,,,,,,0,,,81,0
40200,control_change,0,0,3,,,,,,,,,2,64,0,,
40200,note_on,0,0,3,,,,,,,,,2,,,59,36
40200,note_on,0,0,1,,,,,,,,,0,,,76,0
40200,control_change,0,0,1,,,,,,,,,0,64,0,,
40200,note_on,0,0,1,,,,,,,,,0,,,80,49
40200,note_on,0,0,1,,,,,,,,,0,,,76,49
40200,note_on,0,0,1,,,,,,,,,0,,,71,49
40200,note_on,0,0,1,,,,,,,,,0,,,69,0
40200,note_on,0,0,3,,,,,,,,,2,,,64,36
40200,note_on,0,0,3,,,,,,,,,2,,,68,36
40320,note_on,0,0,3,,,,,,,,,2,,,66,36
40320,note_on,0,0,3,,,,,,,,,2,,,64,0
40320,note_on,0,0,3,,,,,,,,,2,,,59,0
40320,control_change,0,0,3,,,,,,,,,2,64,127,,
40320,note_on,0,0,3,,,,,,,,,2,,,59,36
40320,note_on,0,0,3,,,,,,,,,2,,,69,36
40320,note_on,120,0,1,,,,,,,,,0,,,80,0
40320,note_on,0,0,1,,,,,,,,,0,,,76,0
40320,note_on,0,0,1,,,,,,,,,0,,,71,0
40320,note_on,0,0,1,,,,,,,,,0,,,71,65
40320,note_on,120,0,3,,,,,,,,,2,,,68,0
40320,control_change,0,0,1,,,,,,,,,0,64,127,,
40320,note_on,0,0,1,,,,,,,,,0,,,83,75
40320,note_on,0,0,1,,,,,,,,,0,,,76,70
40344,note_on,24,0,1,,,,,,,,,0,,,83,0
40344,note_on,0,0,3,,,,,,,,,2,,,59,0
40344,note_on,0,0,3,,,,,,,,,2,,,66,0
40344,note_on,24,0,3,,,,,,,,,2,,,69,0
40344,note_on,0,0,1,,,,,,,,,0,,,71,0
40344,note_on,0,0,1,,,,,,,,,0,,,76,0
40560,note_on,0,0,1,,,,,,,,,0,,,75,49
40560,control_change,216,0,1,,,,,,,,,0,64,0,,
40560,note_on,0,0,1,,,,,,,,,0,,,71,49
40560,note_on,0,0,3,,,,,,,,,2,,,59,36
40560,note_on,0,0,1,,,,,,,,,0,,,83,49
40560,note_on,0,0,3,,,,,,,,,2,,,69,36
40560,note_on,0,0,3,,,,,,,,,2,,,66,36
40560,control_change,216,0,3,,,,,,,,,2,64,0,,
40572,note_on,12,0,3,,,,,,,,,2,,,69,0
40572,note_on,12,0,1,,,,,,,,,0,,,83,0
40572,note_on,0,0,1,,,,,,,,,0,,,75,0
40572,note_on,0,0,1,,,,,,,,,0,,,71,0
40572,note_on,0,0,3,,,,,,,,,2,,,66,0
40572,note_on,0,0,3,,,,,,,,,2,,,59,0
40800,note_on,228,0,1,,,,,,,,,0,,,52,101
40800,note_on,0,0,1,,,,,,,,,0,,,64,101
40800,note_on,228,0,3,,,,,,,,,2,,,40,88
41040,note_on,0,0,3,,,,,,,,,2,,,40,88
41040,note_on,240,0,1,,,,,,,,,0,,,64,0
41040,note_on,0,0,1,,,,,,,,,0,,,52,101
41040,note_on,0,0,1,,,,,,,,,0,,,52,0
41040,note_on,0,0,1,,,,,,,,,0,,,64,101
41040,note_on,240,0,3,,,,,,,,,2,,,40,0
41160,note_on,0,0,1,,,,,,,,,0,,,52,0
41160,note_on,120,0,3,,,,,,,,,2,,,40,0
41160,note_on,120,0,1,,,,,,,,,0,,,64,0
41280,note_on,0,0,3,,,,,,,,,2,,,47,36
41280,note_on,0,0,3,,,,,,,,,2,,,40,36
41280,control_change,120,0,3,,,,,,,,,2,64,127,,
41280,control_change,120,0,1,,,,,,,,,0,64,127,,
41280,note_on,0,0,1,,,,,,,,,0,,,59,36
41280,note_on,0,0,1,,,,,,,,,0,,,56,36
41292,note_on,0,0,3,,,,,,,,,2,,,40,0
41292,note_on,12,0,3,,,,,,,,,2,,,47,0
41292,note_on,12,0,1,,,,,,,,,0,,,59,0
41292,note_on,0,0,1,,,,,,,,,0,,,56,0
41400,note_on,0,0,3,,,,,,,,,2,,,47,36
41400,note_on,108,0,3,,,,,,,,,2,,,40,36
41400,note_on,108,0,1,,,,,,,,,0,,,56,36
41400,note_on,0,0,1,,,,,,,,,0,,,68,36
41412,note_on,0,0,1,,,,,,,,,0,,,56,0
41412,note_on,12,0,3,,,,,,,,,2,,,47,0
41412,note_on,0,0,3,,,,,,,,,2,,,40,0
41412,note_on,12,0,1,,,,,,,,,0,,,68,0
41520,note_on,0,0,1,,,,,,,,,0,,,66,36
41520,note_on,108,0,1,,,,,,,,,0,,,56,36
41520,note_on,108,0,3,,,,,,,,,2,,,40,36
41520,note_on,0,0,3,,,,,,,,,2,,,47,36
41532,note_on,0,0,1,,,,,,,,,0,,,56,0
41532,note_on,12,0,1,,,,,,,,,0,,,66,0
41532,note_on,12,0,3,,,,,,,,,2,,,47,0
41532,note_on,0,0,3,,,,,,,,,2,,,40,0
41640,control_change,108,0,3,,,,,,,,,2,64,0,,
41640,note_on,0,0,3,,,,,,,,,2,,,47,36
41640,control_change,108,0,1,,,,,,,,,0,64,0,,
41640,note_on,0,0,3,,,,,,,,,2,,,40,36
41640,note_on,0,0,1,,,,,,,,,0,,,68,36
41640,note_on,0,0,1,,,,,,,,,0,,,56,36
41652,note_on,0,0,1,,,,,,,,,0,,,56,0
41652,note_on,12,0,1,,,,,,,,,0,,,68,0
41652,note_on,12,0,3,,,,,,,,,2,,,47,0
41652,note_on,0,0,3,,,,,,,,,2,,,40,0
41760,note_on,0,0,1,,,,,,,,,0,,,60,52
41760,control_change,108,0,1,,,,,,,,,0,64,127,,
41760,note_on,0,0,1,,,,,,,,,0,,,71,62
41760,control_change,108,0,3,,,,,,,,,2,64,127,,
41760,note_on,0,0,3,,,,,,,,,2,,,40,36
41760,note_on,0,0,3,,,,,,,,,2,,,48,36
41760,note_on,0,0,1,,,,,,,,,0,,,68,57
41784,note_on,24,0,1,,,,,,,,,0,,,71,0
41784,note_on,0,0,1,,,,,,,,,0,,,68,0
41784,note_on,0,0,3,,,,,,,,,2,,,40,0
41784,note_on,24,0,3,,,,,,,,,2,,,48,0
41784,note_on,0,0,1,,,,,,,,,0,,,60,0
42000,control_change,216,0,3,,,,,,,,,2,64,0,,
42000,note_on,0,0,3,,,,,,,,,2,,,48,36
42000,note_on,0,0,3,,,,,,,,,2,,,40,36
42000,note_on,0,0,1,,,,,,,,,0,,,69,36
42000,note_on,0,0,1,,,,,,,,,0,,,66,36
42000,note_on,0,0,1,,,,,,,,,0,,,60,36
42000,control_change,216,0,1,,,,,,,,,0,64,0,,
42012,note_on,12,0,3,,,,,,,,,2,,,48,0
42012,note_on,0,0,3,,,,,,,,,2,,,40,0
42012,note_on,0,0,1,,,,,,,,,0,,,60,0
42012,note_on,0,0,1,,,,,,,,,0,,,66,0
42012,note_on,12,0,1,,,,,,,,,0,,,69,0
42240,note_on,0,0,1,,,,,,,,,0,,,71,62
42240,note_on,0,0,1,,,,,,,,,0,,,68,57
42240,note_on,0,0,1,,,,,,,,,0,,,59,52
42240,control_change,228,0,1,,,,,,,,,0,64,127,,
42240,control_change,228,0,3,,,,,,,,,2,64,127,,
42240,note_on,0,0,3,,,,,,,,,2,,,51,36
42240,note_on,0,0,3,,,,,,,,,2,,,40,36
42264,note_on,0,0,1,,,,,,,,,0,,,68,0
42264,note_on,0,0,3,,,,,,,,,2,,,40,0
42264,note_on,24,0,3,,,,,,,,,2,,,51,0
42264,note_on,24,0,1,,,,,,,,,0,,,71,0
42264,note_on,0,0,1,,,,,,,,,0,,,59,0
42480,note_on,0,0,3,,,,,,,,,2,,,51,36
42480,note_on,0,0,3,,,,,,,,,2,,,40,36
42480,control_change,216,0,3,,,,,,,,,2,64,0,,
42480,note_on,0,0,1,,,,,,,,,0,,,59,36
42480,control_change,216,0,1,,,,,,,,,0,64,0,,
42480,note_on,0,0,1,,,,,,,,,0,,,66,36
42480,note_on,0,0,1,,,,,,,,,0,,,69,36
42492,note_on,12,0,1,,,,,,,,,0,,,69,0
42492,note_on,0,0,1,,,,,,,,,0,,,66,0
42492,note_on,0,0,1,,,,,,,,,0,,,59,0
42492,note_on,12,0,3,,,,,,,,,2,,,51,0
42492,note_on,0,0,3,,,,,,,,,2,,,40,0
42720,note_on,0,0,3,,,,,,,,,2,,,52,88
42720,note_on,228,0,1,,,,,,,,,0,,,64,101
42720,note_on,228,0,3,,,,,,,,,2,,,40,88
42720,note_on,0,0,1,,,,,,,,,0,,,76,101
42960,note_on,240,0,3,,,,,,,,,2,,,52,0
42960,note_on,0,0,3,,,,,,,,,2,,,40,0
42960,note_on,0,0,3,,,,,,,,,2,,,40,88
42960,note_on,0,0,3,,,,,,,,,2,,,52,88
42960,note_on,240,0,1,,,,,,,,,0,,,76,0
42960,note_on,0,0,1,,,,,,,,,0,,,76,101
42960,note_on,0,0,1,,,,,,,,,0,,,64,101
42960,note_on,0,0,1,,,,,,,,,0,,,64,0
43080,note_on,0,0,3,,,,,,,,,2,,,40,0
43080,note_on,120,0,3,,,,,,,,,2,,,52,0
43080,note_on,120,0,1,,,,,,,,,0,,,76,0
43080,note_on,0,0,1,,,,,,,,,0,,,64,0
43200,note_on,0,0,1,,,,,,,,,0,,,59,36
43200,note_on,0,0,1,,,,,,,,,0,,,56,36
43200,control_change,120,0,1,,,,,,,,,0,64,127,,
43200,control_change,120,0,3,,,,,,,,,2,64,127,,
43200,note_on,0,0,3,,,,,,,,,2,,,40,36
43200,note_on,0,0,3,,,,,,,,,2,,,47,36
43212,note_on,0,0,1,,,,,,,,,0,,,56,0
43212,note_on,12,0,1,,,,,,,,,0,,,59,0
43212,note_on,12,0,3,,,,,,,,,2,,,47,0
43212,note_on,0,0,3,,,,,,,,,2,,,40,0
43320,note_on,0,0,1,,,,,,,,,0,,,68,36
43320,note_on,108,0,3,,,,,,,,,2,,,40,36
43320,note_on,0,0,3,,,,,,,,,2,,,47,36
43320,note_on,108,0,1,,,,,,,,,0,,,56,36
43332,note_on,0,0,3,,,,,,,,,2,,,40,0
43332,note_on,12,0,3,,,,,,,,,2,,,47,0
43332,note_on,0,0,1,,,,,,,,,0,,,56,0
43332,note_on,12,0,1,,,,,,,,,0,,,68,0
43440,note_on,108,0,3,,,,,,,,,2,,,40,36
43440,note_on,0,0,1,,,,,,,,,0,,,66,36
43440,note_on,108,0,1,,,,,,,,,0,,,56,36
43440,note_on,0,0,3,,,,,,,,,2,,,47,36
43452,note_on,12,0,1,,,,,,,,,0,,,66,0
43452,note_on,0,0,3,,,,,,,,,2,,,40,0
43452,note_on,12,0,3,,,,,,,,,2,,,47,0
43452,note_on,0,0,1,,,,,,,,,0,,,56,0
43560,note_on,0,0,3,,,,,,,,,2,,,40,36
43560,note_on,0,0,3,,,,,,,,,2,,,47,36
43560,control_change,108,0,1,,,,,,,,,0,64,0,,
43560,note_on,0,0,1,,,,,,,,,0,,,56,36
43560,note_on,0,0,1,,,,,,,,,0,,,68,36
43560,control_change,108,0,3,,,,,,,,,2,64,0,,
43572,note_on,12,0,3,,,,,,,,,2,,,47,0
43572,note_on,0,0,1,,,,,,,,,0,,,56,0
43572,note_on,0,0,3,,,,,,,,,2,,,40,0
43572,note_on,12,0,1,,,,,,,,,0,,,68,0
43680,note_on,0,0,1,,,,,,,,,0,,,61,36
43680,note_on,0,0,1,,,,,,,,,0,,,69,36
43680,control_change,108,0,1,,,,,,,,,0,64,127,,
43680,note_on,0,0,1,,,,,,,,,0,,,73,36
43680,control_change,108,0,3,,,,,,,,,2,64,127,,
43680,note_on,0,0,3,,,,,,,,,2,,,45,36
43680,note_on,0,0,3,,,,,,,,,2,,,40,36
43704,note_on,0,0,1,,,,,,,,,0,,,61,0
43704,note_on,0,0,1,,,,,,,,,0,,,69,0
43704,note_on,24,0,1,,,,,,,,,0,,,73,0
43704,note_on,0,0,3,,,,,,,,,2,,,40,0
43704,note_on,24,0,3,,,,,,,,,2,,,45,0
43920,note_on,0,0,3,,,,,,,,,2,,,40,36
43920,control_change,216,0,3,,,,,,,,,2,64,0,,
43920,note_on,0,0,1,,,,,,,,,0,,,69,36
43920,note_on,0,0,1,,,,,,,,,0,,,66,36
43920,note_on,0,0,1,,,,,,,,,0,,,61,36
43920,control_change,216,0,1,,,,,,,,,0,64,0,,
43920,note_on,0,0,3,,,,,,,,,2,,,49,36
43932,note_on,0,0,1,,,,,,,,,0,,,66,0
43932,note_on,0,0,3,,,,,,,,,2,,,40,0
43932,note_on,0,0,1,,,,,,,,,0,,,61,0
43932,note_on,12,0,1,,,,,,,,,0,,,69,0
43932,note_on,12,0,3,,,,,,,,,2,,,49,0
44160,control_change,228,0,3,,,,,,,,,2,64,127,,
44160,note_on,0,0,1,,,,,,,,,0,,,71,62
44160,note_on,0,0,1,,,,,,,,,0,,,68,57
44160,note_on,0,0,1,,,,,,,,,0,,,59,52
44160,control_change,228,0,1,,,,,,,,,0,64,127,,
44160,note_on,0,0,3,,,,,,,,,2,,,47,36
44160,note_on,0,0,3,,,,,,,,,2,,,40,36
44184,note_on,0,0,1,,,,,,,,,0,,,59,0
44184,note_on,0,0,3,,,,,,,,,2,,,40,0
44184,note_on,0,0,1,,,,,,,,,0,,,68,0
44184,note_on,24,0,1,,,,,,,,,0,,,71,0
44184,note_on,24,0,3,,,,,,,,,2,,,47,0
44400,control_change,216,0,3,,,,,,,,,2,64,0,,
44400,note_on,0,0,3,,,,,,,,,2,,,40,36
44400,note_on,0,0,3,,,,,,,,,2,,,51,36
44400,note_on,0,0,1,,,,,,,,,0,,,66,36
44400,note_on,0,0,1,,,,,,,,,0,,,59,36
44400,control_change,216,0,1,,,,,,,,,0,64,0,,
44400,note_on,0,0,1,,,,,,,,,0,,,69,36
44412,note_on,12,0,1,,,,,,,,,0,,,69,0
44412,note_on,0,0,1,,,,,,,,,0,,,59,0
44412,note_on,12,0,3,,,,,,,,,2,,,51,0
44412,note_on,0,0,3,,,,,,,,,2,,,40,0
44412,note_on,0,0,1,,,,,,,,,0,,,66,0
44640,control_change,228,0,1,,,,,,,,,0,64,127,,
44640,note_on,0,0,1,,,,,,,,,0,,,59,52
44640,note_on,0,0,1,,,,,,,,,0,,,64,57
44640,note_on,0,0,1,,,,,,,,,0,,,69,62
44640,control_change,228,0,3,,,,,,,,,2,64,127,,
44640,note_on,0,0,3,,,,,,,,,2,,,40,36
44640,note_on,0,0,3,,,,,,,,,2,,,52,36
44664,note_on,24,0,3,,,,,,,,,2,,,52,0
44664,note_on,0,0,3,,,,,,,,,2,,,40,0
44664,note_on,0,0,1,,,,,,,,,0,,,59,0
44664,note_on,0,0,1,,,,,,,,,0,,,64,0
44664,note_on,24,0,1,,,,,,,,,0,,,69,0
44880,note_on,0,0,1,,,,,,,,,0,,,67,36
44880,note_on,0,0,1,,,,,,,,,0,,,64,36
44880,note_on,0,0,1,,,,,,,,,0,,,59,36
44880,control_change,216,0,3,,,,,,,,,2,64,0,,
44880,note_on,0,0,3,,,,,,,,,2,,,40,36
44880,note_on,0,0,3,,,,,,,,,2,,,52,36
44880,control_change,216,0,1,,,,,,,,,0,64,0,,
44892,note_on,0,0,1,,,,,,,,,0,,,59,0
44892,note_on,12,0,1,,,,,,,,,0,,,67,0
44892,note_on,12,0,3,,,,,,,,,2,,,52,0
44892,note_on,0,0,3,,,,,,,,,2,,,40,0
44892,note_on,0,0,1,,,,,,,,,0,,,64,0
45120,control_change,228,0,3,,,,,,,,,2,64,127,,
45120,note_on,0,0,3,,,,,,,,,2,,,48,36
45120,note_on,0,0,3,,,,,,,,,2,,,45,36
45120,note_on,0,0,1,,,,,,,,,0,,,67,62
45120,note_on,0,0,1,,,,,,,,,0,,,60,57
45120,note_on,0,0,1,,,,,,,,,0,,,57,52
45120,control_change,228,0,1,,,,,,,,,0,64,127,,
45144,note_on,0,0,3,,,,,,,,,2,,,45,0
45144,note_on,24,0,3,,,,,,,,,2,,,48,0
45144,note_on,0,0,1,,,,,,,,,0,,,57,0
45144,note_on,0,0,1,,,,,,,,,0,,,60,0
45144,note_on,24,0,1,,,,,,,,,0,,,67,0
45360,note_on,0,0,1,,,,,,,,,0,,,65,36
45360,note_on,0,0,1,,,,,,,,,0,,,60,36
45360,control_change,216,0,1,,,,,,,,,0,64,0,,
45360,note_on,0,0,1,,,,,,,,,0,,,57,36
45360,note_on,0,0,3,,,,,,,,,2,,,45,36
45360,note_on,0,0,3,,,,,,,,,2,,,48,36
45360,control_change,216,0,3,,,,,,,,,2,64,0,,
45372,note_on,0,0,1,,,,,,,,,0,,,57,0
45372,note_on,0,0,1,,,,,,,,,0,,,60,0
45372,note_on,12,0,3,,,,,,,,,2,,,48,0
45372,note_on,12,0,1,,,,,,,,,0,,,65,0
45372,note_on,0,0,3,,,,,,,,,2,,,45,0
45600,control_change,228,0,3,,,,,,,,,2,64,127,,
45600,note_on,0,0,3,,,,,,,,,2,,,48,36
45600,control_change,228,0,1,,,,,,,,,0,64,127,,
45600,note_on,0,0,1,,,,,,,,,0,,,60,57
45600,note_on,0,0,1,,,,,,,,,0,,,65,62
45600,note_on,0,0,1,,,,,,,,,0,,,55,52
45624,note_on,0,0,1,,,,,,,,,0,,,55,0
45624,note_on,24,0,3,,,,,,,,,2,,,48,0
45624,note_on,24,0,1,,,,,,,,,0,,,65,0
45624,note_on,0,0,1,,,,,,,,,0,,,60,0
45840,note_on,0,0,1,,,,,,,,,0,,,64,36
45840,control_change,216,0,1,,,,,,,,,0,64,0,,
45840,note_on,0,0,3,,,,,,,,,2,,,48,36
45840,note_on,0,0,1,,,,,,,,,0,,,60,36
45840,control_change,216,0,3,,,,,,,,,2,64,0,,
45840,note_on,0,0,1,,,,,,,,,0,,,55,36
45852,note_on,0,0,1,,,,,,,,,0,,,55,0
45852,note_on,0,0,1,,,,,,,,,0,,,60,0
45852,note_on,12,0,1,,,,,,,,,0,,,64,0
45852,note_on,12,0,3,,,,,,,,,2,,,48,0
46080,control_change,228,0,1,,,,,,,,,0,64,127,,
46080,note_on,0,0,1,,,,,,,,,0,,,64,36
46080,control_change,228,0,3,,,,,,,,,2,64,127,,
46080,note_on,0,0,3,,,,,,,,,2,,,38,36
46080,note_on,0,0,3,,,,,,,,,2,,,50,36
46080,note_on,0,0,1,,,,,,,,,0,,,53,36
46080,note_on,0,0,1,,,,,,,,,0,,,57,36
46104,note_on,24,0,3,,,,,,,,,2,,,50,0
46104,note_on,24,0,1,,,,,,,,,0,,,64,0
46104,note_on,0,0,1,,,,,,,,,0,,,57,0
46104,note_on,0,0,1,,,,,,,,,0,,,53,0
46104,note_on,0,0,3,,,,,,,,,2,,,38,0
46320,note_on,0,0,3,,,,,,,,,2,,,50,36
46320,note_on,0,0,3,,,,,,,,,2,,,38,36
46320,note_on,0,0,1,,,,,,,,,0,,,53,36
46320,control_change,216,0,3,,,,,,,,,2,64,0,,
46320,note_on,0,0,1,,,,,,,,,0,,,57,36
46320,note_on,0,0,1,,,,,,,,,0,,,62,36
46320,control_change,216,0,1,,,,,,,,,0,64,0,,
46332,note_on,0,0,1,,,,,,,,,0,,,53,0
46332,note_on,0,0,1,,,,,,,,,0,,,57,0
46332,note_on,12,0,1,,,,,,,,,0,,,62,0
46332,note_on,12,0,3,,,,,,,,,2,,,50,0
46332,note_on,0,0,3,,,,,,,,,2,,,38,0
46560,note_on,0,0,1,,,,,,,,,0,,,57,36
46560,note_on,0,0,1,,,,,,,,,0,,,52,36
46560,control_change,228,0,1,,,,,,,,,0,64,127,,
46560,note_on,13920,0,4,,,,,,,,,3,,,40,36
46560,note_on,228,0,3,,,,,,,,,2,,,45,75
46560,note_on,0,0,1,,,,,,,,,0,,,62,36
46584,note_on,0,0,1,,,,,,,,,0,,,57,0
46584,note_on,24,0,1,,,,,,,,,0,,,62,0
46584,note_on,0,0,1,,,,,,,,,0,,,52,0
46800,note_on,0,0,1,,,,,,,,,0,,,60,36
46800,note_on,240,0,3,,,,,,,,,2,,,45,0
46800,note_on,0,0,4,,,,,,,,,3,,,40,36
46800,note_on,240,0,4,,,,,,,,,3,,,40,0
46800,control_change,216,0,1,,,,,,,,,0,64,0,,
46800,note_on,0,0,1,,,,,,,,,0,,,57,36
46800,note_on,0,0,3,,,,,,,,,2,,,52,49
46812,note_on,0,0,1,,,,,,,,,0,,,57,0
46812,note_on,12,0,1,,,,,,,,,0,,,60,0
46920,note_on,120,0,4,,,,,,,,,3,,,40,0
47040,note_on,0,0,3,,,,,,,,,2,,,51,49
47040,note_on,240,0,3,,,,,,,,,2,,,52,0
47280,note_on,240,0,3,,,,,,,,,2,,,51,0
47280,note_on,0,0,3,,,,,,,,,2,,,52,49
47340,note_on,60,0,3,,,,,,,,,2,,,52,0
48000,note_on,0,0,1,,,,,,,,,0,,,57,36
48000,note_on,0,0,1,,,,,,,,,0,,,59,36
48000,note_on,1080,0,4,,,,,,,,,3,,,40,36
48000,control_change,660,0,3,,,,,,,,,2,64,127,,
48000,note_on,0,0,3,,,,,,,,,2,,,47,49
48000,control_change,1188,0,1,,,,,,,,,0,64,127,,
48024,note_on,24,0,1,,,,,,,,,0,,,59,0
48024,note_on,0,0,1,,,,,,,,,0,,,57,0
48240,note_on,240,0,3,,,,,,,,,2,,,47,0
48240,note_on,0,0,3,,,,,,,,,2,,,52,49
48240,note_on,0,0,4,,,,,,,,,3,,,40,36
48240,control_change,216,0,1,,,,,,,,,0,64,0,,
48240,note_on,0,0,1,,,,,,,,,0,,,56,36
48240,note_on,0,0,1,,,,,,,,,0,,,59,36
48240,note_on,240,0,4,,,,,,,,,3,,,40,0
48246,note_on,6,0,1,,,,,,,,,0,,,59,0
48246,note_on,0,0,1,,,,,,,,,0,,,56,0
48360,note_on,120,0,4,,,,,,,,,3,,,40,0
48480,note_on,0,0,3,,,,,,,,,2,,,51,49
48480,control_change,0,0,3,,,,,,,,,2,64,0,,
48480,note_on,240,0,3,,,,,,,,,2,,,52,0
48720,note_on,0,0,3,,,,,,,,,2,,,52,49
48720,note_on,240,0,3,,,,,,,,,2,,,51,0
48780,note_on,60,0,3,,,,,,,,,2,,,52,0
49440,note_on,0,0,3,,,,,,,,,2,,,57,36
49440,note_on,0,0,1,,,,,,,,,0,,,69,36
49440,control_change,1194,0,1,,,,,,,,,0,64,127,,
49440,control_change,660,0,3,,,,,,,,,2,64,127,,
49680,note_on,0,0,3,,,,,,,,,2,,,64,36
49680,note_on,240,0,3,,,,,,,,,2,,,57,0
49680,note_on,0,0,1,,,,,,,,,0,,,76,36
49680,note_on,240,0,1,,,,,,,,,0,,,69,0
49920,note_on,240,0,1,,,,,,,,,0,,,76,0
49920,note_on,0,0,3,,,,,,,,,2,,,63,62
49920,note_on,0,0,1,,,,,,,,,0,,,75,62
49920,control_change,0,0,1,,,,,,,,,0,64,0,,
49920,control_change,0,0,3,,,,,,,,,2,64,0,,
49920,note_on,240,0,3,,,,,,,,,2,,,64,0
50160,note_on,240,0,1,,,,,,,,,0,,,75,0
50160,note_on,240,0,3,,,,,,,,,2,,,63,0
50160,note_on,0,0,3,,,,,,,,,2,,,64,36
50160,note_on,0,0,1,,,,,,,,,0,,,76,36
50220,note_on,60,0,3,,,,,,,,,2,,,64,0
50220,note_on,60,0,1,,,,,,,,,0,,,76,0
50280,note_on,60,0,3,,,,,,,,,2,,,60,36
50280,note_on,60,0,1,,,,,,,,,0,,,72,36
50370,note_on,90,0,3,,,,,,,,,2,,,60,0
50370,note_on,0,0,3,,,,,,,,,2,,,59,36
50370,note_on,90,0,1,,,,,,,,,0,,,72,0
50370,note_on,0,0,1,,,,,,,,,0,,,71,36
50400,note_on,30,0,1,,,,,,,,,0,,,71,0
50400,note_on,0,0,1,,,,,,,,,0,,,69,36
50400,note_on,30,0,3,,,,,,,,,2,,,59,0
50400,note_on,0,0,3,,,,,,,,,2,,,57,36
50640,note_on,0,0,1,,,,,,,,,0,,,59,57
50640,note_on,240,0,1,,,,,,,,,0,,,69,0
50640,note_on,0,0,1,,,,,,,,,0,,,56,52
50640,note_on,0,0,1,,,,,,,,,0,,,64,62
50640,note_on,240,0,3,,,,,,,,,2,,,57,0
50640,note_on,0,0,3,,,,,,,,,2,,,52,36
50880,note_on,240,0,1,,,,,,,,,0,,,64,0
50880,note_on,0,0,3,,,,,,,,,2,,,48,36
50880,note_on,0,0,1,,,,,,,,,0,,,59,0
50880,note_on,0,0,1,,,,,,,,,0,,,56,0
50880,note_on,0,0,1,,,,,,,,,0,,,60,36
50880,note_on,240,0,3,,,,,,,,,2,,,52,0
51120,note_on,240,0,3,,,,,,,,,2,,,48,0
51120,note_on,0,0,1,,,,,,,,,0,,,57,36
51120,note_on,240,0,1,,,,,,,,,0,,,60,0
51120,note_on,0,0,3,,,,,,,,,2,,,45,36
51180,note_on,60,0,1,,,,,,,,,0,,,57,0
51180,note_on,60,0,3,,,,,,,,,2,,,45,0
51360,note_on,0,0,3,,,,,,,,,2,,,45,36
51360,control_change,180,0,3,,,,,,,,,2,64,127,,
51360,control_change,180,0,1,,,,,,,,,0,64,127,,
51360,note_on,0,0,1,,,,,,,,,0,,,57,36
51600,note_on,240,0,1,,,,,,,,,0,,,57,0
51600,note_on,0,0,1,,,,,,,,,0,,,57,36
51600,note_on,0,0,1,,,,,,,,,0,,,65,36
51600,note_on,240,0,3,,,,,,,,,2,,,45,0
51600,note_on,0,0,3,,,,,,,,,2,,,38,36
51840,note_on,240,0,3,,,,,,,,,2,,,38,0
51840,control_change,0,0,3,,,,,,,,,2,64,0,,
51840,note_on,0,0,1,,,,,,,,,0,,,57,0
51840,note_on,240,0,1,,,,,,,,,0,,,65,0
51840,note_on,0,0,1,,,,,,,,,0,,,58,36
51840,note_on,0,0,1,,,,,,,,,0,,,67,36
51840,control_change,0,0,1,,,,,,,,,0,64,0,,
51840,note_on,0,0,3,,,,,,,,,2,,,37,36
52080,note_on,240,0,3,,,,,,,,,2,,,37,0
52080,note_on,0,0,3,,,,,,,,,2,,,38,36
52080,note_on,240,0,1,,,,,,,,,0,,,67,0
52080,note_on,0,0,1,,,,,,,,,0,,,58,0
52080,note_on,0,0,1,,,,,,,,,0,,,57,36
52080,note_on,0,0,1,,,,,,,,,0,,,65,36
52140,note_on,60,0,3,,,,,,,,,2,,,38,0
52140,note_on,0,0,1,,,,,,,,,0,,,57,0
52140,note_on,60,0,1,,,,,,,,,0,,,65,0
52200,note_on,60,0,3,,,,,,,,,2,,,45,36
52200,note_on,60,0,1,,,,,,,,,0,,,57,36
52290,note_on,90,0,1,,,,,,,,,0,,,57,0
52290,note_on,0,0,3,,,,,,,,,2,,,47,36
52290,note_on,0,0,1,,,,,,,,,0,,,59,36
52290,note_on,90,0,3,,,,,,,,,2,,,45,0
52320,note_on,30,0,1,,,,,,,,,0,,,59,0
52320,note_on,0,0,1,,,,,,,,,0,,,60,36
52320,note_on,0,0,3,,,,,,,,,2,,,48,36
52320,note_on,30,0,3,,,,,,,,,2,,,47,0
52560,note_on,0,0,3,,,,,,,,,2,,,40,36
52560,note_on,0,0,3,,,,,,,,,2,,,52,36
52560,note_on,0,0,1,,,,,,,,,0,,,64,62
52560,note_on,0,0,1,,,,,,,,,0,,,56,52
52560,note_on,240,0,1,,,,,,,,,0,,,60,0
52560,note_on,240,0,3,,,,,,,,,2,,,48,0
52560,note_on,0,0,1,,,,,,,,,0,,,59,57
52800,note_on,240,0,3,,,,,,,,,2,,,52,0
52800,note_on,0,0,3,,,,,,,,,2,,,36,36
52800,note_on,0,0,3,,,,,,,,,2,,,40,0
52800,note_on,0,0,1,,,,,,,,,0,,,60,36
52800,note_on,0,0,1,,,,,,,,,0,,,48,36
52800,note_on,0,0,1,,,,,,,,,0,,,56,0
52800,note_on,0,0,1,,,,,,,,,0,,,59,0
52800,note_on,240,0,1,,,,,,,,,0,,,64,0
53040,note_on,0,0,3,,,,,,,,,2,,,33,36
53040,note_on,0,0,1,,,,,,,,,0,,,48,0
53040,note_on,240,0,1,,,,,,,,,0,,,60,0
53040,note_on,0,0,3,,,,,,,,,2,,,45,36
53040,note_on,0,0,1,,,,,,,,,0,,,57,36
53040,note_on,240,0,3,,,,,,,,,2,,,36,0
53100,note_on,60,0,1,,,,,,,,,0,,,57,0
53100,note_on,0,0,3,,,,,,,,,2,,,33,0
53100,note_on,60,0,3,,,,,,,,,2,,,45,0
53280,note_on,180,0,3,,,,,,,,,2,,,38,52
53280,note_on,0,0,3,,,,,,,,,2,,,41,57
53280,note_on,0,0,3,,,,,,,,,2,,,45,62
53520,note_on,240,0,3,,,,,,,,,2,,,45,0
53520,note_on,0,0,3,,,,,,,,,2,,,38,0
53520,note_on,0,0,3,,,,,,,,,2,,,33,36
53520,note_on,0,0,3,,,,,,,,,2,,,41,0
53526,note_on,6,0,3,,,,,,,,,2,,,33,0
53760,note_on,0,0,3,,,,,,,,,2,,,40,57
53760,note_on,0,0,3,,,,,,,,,2,,,45,62
53760,note_on,234,0,3,,,,,,,,,2,,,36,52
54000,note_on,240,0,3,,,,,,,,,2,,,45,0
54000,note_on,0,0,3,,,,,,,,,2,,,40,0
54000,note_on,0,0,3,,,,,,,,,2,,,33,36
54000,note_on,0,0,3,,,,,,,,,2,,,36,0
54006,note_on,6,0,3,,,,,,,,,2,,,33,0
54120,note_on,1020,0,1,,,,,,,,,0,,,57,36
54240,note_on,234,0,3,,,,,,,,,2,,,38,36
54240,note_on,0,0,3,,,,,,,,,2,,,41,36
54240,note_on,0,0,3,,,,,,,,,2,,,45,36
54360,note_on,240,0,1,,,,,,,,,0,,,57,0
54360,note_on,0,0,1,,,,,,,,,0,,,62,36
54480,note_on,0,0,1,,,,,,,,,0,,,64,36
54480,note_on,240,0,3,,,,,,,,,2,,,45,0
54480,note_on,0,0,3,,,,,,,,,2,,,38,0
54480,note_on,0,0,3,,,,,,,,,2,,,41,0
54480,note_on,120,0,1,,,,,,,,,0,,,62,0
54480,note_on,0,0,3,,,,,,,,,2,,,33,36
54540,note_on,60,0,3,,,,,,,,,2,,,33,0
54600,note_on,120,0,1,,,,,,,,,0,,,64,0
54600,note_on,0,0,1,,,,,,,,,0,,,65,36
54720,note_on,0,0,3,,,,,,,,,2,,,40,36
54720,note_on,0,0,3,,,,,,,,,2,,,45,36
54720,note_on,120,0,1,,,,,,,,,0,,,65,0
54720,note_on,0,0,1,,,,,,,,,0,,,64,36
54720,note_on,180,0,3,,,,,,,,,2,,,36,36
54960,note_on,240,0,3,,,,,,,,,2,,,45,0
54960,note_on,0,0,3,,,,,,,,,2,,,40,0
54960,note_on,0,0,3,,,,,,,,,2,,,36,0
54960,note_on,0,0,3,,,,,,,,,2,,,33,36
54960,note_on,0,0,1,,,,,,,,,0,,,57,36
54960,note_on,240,0,1,,,,,,,,,0,,,64,0
55020,note_on,60,0,1,,,,,,,,,0,,,57,0
55020,note_on,60,0,3,,,,,,,,,2,,,33,0
55080,note_on,60,0,1,,,,,,,,,0,,,67,36
55200,note_on,0,0,3,,,,,,,,,2,,,45,36
55200,note_on,0,0,3,,,,,,,,,2,,,41,36
55200,note_on,180,0,3,,,,,,,,,2,,,38,36
55200,note_on,120,0,1,,,,,,,,,0,,,67,0
55200,note_on,0,0,1,,,,,,,,,0,,,65,36
55440,note_on,0,0,1,,,,,,,,,0,,,57,36
55440,note_on,240,0,1,,,,,,,,,0,,,65,0
55440,note_on,0,0,3,,,,,,,,,2,,,33,36
55440,note_on,0,0,3,,,,,,,,,2,,,38,0
55440,note_on,0,0,3,,,,,,,,,2,,,41,0
55440,note_on,240,0,3,,,,,,,,,2,,,45,0
55500,note_on,60,0,1,,,,,,,,,0,,,57,0
55500,note_on,60,0,3,,,,,,,,,2,,,33,0
55560,note_on,60,0,1,,,,,,,,,0,,,65,36
55680,note_on,0,0,3,,,,,,,,,2,,,40,36
55680,note_on,0,0,1,,,,,,,,,0,,,64,36
55680,note_on,120,0,1,,,,,,,,,0,,,65,0
55680,note_on,0,0,3,,,,,,,,,2,,,45,36
55680,note_on,180,0,3,,,,,,,,,2,,,36,36
55920,note_on,0,0,1,,,,,,,,,0,,,57,36
55920,note_on,0,0,3,,,,,,,,,2,,,36,0
55920,note_on,0,0,3,,,,,,,,,2,,,33,36
55920,note_on,0,0,3,,,,,,,,,2,,,40,0
55920,note_on,240,0,1,,,,,,,,,0,,,64,0
55920,note_on,240,0,3,,,,,,,,,2,,,45,0
55980,note_on,60,0,3,,,,,,,,,2,,,33,0
55980,note_on,60,0,1,,,,,,,,,0,,,57,0
56040,note_on,0,0,1,,,,,,,,,0,,,69,36
56040,note_on,60,0,1,,,,,,,,,0,,,57,36
56160,note_on,180,0,3,,,,,,,,,2,,,50,36
56160,note_on,0,0,3,,,,,,,,,2,,,57,36
56160,note_on,0,0,3,,,,,,,,,2,,,53,36
56280,note_on,240,0,1,,,,,,,,,0,,,69,0
56280,note_on,0,0,1,,,,,,,,,0,,,57,0
56280,note_on,0,0,1,,,,,,,,,0,,,74,49
56280,note_on,0,0,1,,,,,,,,,0,,,62,49
56400,note_on,0,0,3,,,,,,,,,2,,,53,0
56400,note_on,120,0,1,,,,,,,,,0,,,74,0
56400,note_on,0,0,3,,,,,,,,,2,,,50,0
56400,note_on,240,0,3,,,,,,,,,2,,,57,0
56400,note_on,0,0,3,,,,,,,,,2,,,45,36
56400,note_on,0,0,1,,,,,,,,,0,,,62,0
56400,note_on,0,0,1,,,,,,,,,0,,,64,49
56400,note_on,0,0,1,,,,,,,,,0,,,76,49
56460,note_on,60,0,3,,,,,,,,,2,,,45,0
56520,note_on,0,0,1,,,,,,,,,0,,,65,49
56520,note_on,0,0,1,,,,,,,,,0,,,77,49
56520,note_on,0,0,1,,,,,,,,,0,,,64,0
56520,note_on,120,0,1,,,,,,,,,0,,,76,0
56640,note_on,120,0,1,,,,,,,,,0,,,77,0
56640,note_on,0,0,1,,,,,,,,,0,,,76,62
56640,note_on,0,0,1,,,,,,,,,0,,,64,62
56640,note_on,0,0,1,,,,,,,,,0,,,65,0
56640,note_on,180,0,3,,,,,,,,,2,,,48,49
56640,note_on,0,0,3,,,,,,,,,2,,,52,49
56640,note_on,0,0,3,,,,,,,,,2,,,57,49
56880,note_on,0,0,1,,,,,,,,,0,,,57,62
56880,note_on,0,0,1,,,,,,,,,0,,,64,0
56880,note_on,240,0,1,,,,,,,,,0,,,76,0
56880,note_on,240,0,3,,,,,,,,,2,,,57,0
56880,note_on,0,0,3,,,,,,,,,2,,,52,0
56880,note_on,0,0,3,,,,,,,,,2,,,48,0
56880,note_on,0,0,3,,,,,,,,,2,,,45,49
56880,note_on,0,0,1,,,,,,,,,0,,,69,62
56940,note_on,60,0,1,,,,,,,,,0,,,69,0
56940,note_on,0,0,1,,,,,,,,,0,,,57,0
56940,note_on,60,0,3,,,,,,,,,2,,,45,0
57000,note_on,0,0,1,,,,,,,,,0,,,76,62
57000,note_on,60,0,1,,,,,,,,,0,,,64,62
57120,note_on,180,0,3,,,,,,,,,2,,,47,62
57120,note_on,0,0,3,,,,,,,,,2,,,52,62
57120,note_on,0,0,3,,,,,,,,,2,,,55,62
57240,note_on,0,0,1,,,,,,,,,0,,,67,75
57240,note_on,0,0,1,,,,,,,,,0,,,64,0
57240,note_on,240,0,1,,,,,,,,,0,,,76,0
57240,note_on,0,0,1,,,,,,,,,0,,,79,75
57360,note_on,0,0,3,,,,,,,,,2,,,52,0
57360,note_on,120,0,1,,,,,,,,,0,,,79,0
57360,note_on,0,0,1,,,,,,,,,0,,,81,75
57360,note_on,0,0,1,,,,,,,,,0,,,69,75
57360,note_on,0,0,1,,,,,,,,,0,,,67,0
57360,note_on,0,0,3,,,,,,,,,2,,,47,0
57360,note_on,0,0,3,,,,,,,,,2,,,43,62
57360,note_on,240,0,3,,,,,,,,,2,,,55,0
57420,note_on,60,0,3,,,,,,,,,2,,,43,0
57480,note_on,0,0,1,,,,,,,,,0,,,71,75
57480,note_on,120,0,1,,,,,,,,,0,,,81,0
57480,note_on,0,0,1,,,,,,,,,0,,,69,0
57480,note_on,0,0,1,,,,,,,,,0,,,83,75
57600,note_on,0,0,1,,,,,,,,,0,,,83,88
57600,note_on,0,0,1,,,,,,,,,0,,,71,88
57600,note_on,180,0,3,,,,,,,,,2,,,42,75
57600,note_on,0,0,3,,,,,,,,,2,,,51,75
57600,note_on,0,0,3,,,,,,,,,2,,,54,75
57600,note_on,0,0,1,,,,,,,,,0,,,71,0
57600,note_on,120,0,1,,,,,,,,,0,,,83,0
57840,note_on,240,0,1,,,,,,,,,0,,,83,0
57840,note_on,0,0,1,,,,,,,,,0,,,83,88
57840,note_on,0,0,1,,,,,,,,,0,,,71,0
57840,note_on,0,0,1,,,,,,,,,0,,,71,88
57840,note_on,0,0,3,,,,,,,,,2,,,59,75
57840,note_on,0,0,3,,,,,,,,,2,,,47,75
57840,note_on,240,0,3,,,,,,,,,2,,,54,0
57840,note_on,0,0,3,,,,,,,,,2,,,51,0
57840,note_on,0,0,3,,,,,,,,,2,,,42,0
57840,note_on,0,0,3,,,,,,,,,2,,,51,75
58080,note_on,0,0,3,,,,,,,,,2,,,47,0
58080,note_on,0,0,3,,,,,,,,,2,,,51,0
58080,note_on,0,0,3,,,,,,,,,2,,,55,62
58080,note_on,240,0,3,,,,,,,,,2,,,59,0
58080,note_on,0,0,1,,,,,,,,,0,,,71,0
58080,note_on,0,0,1,,,,,,,,,0,,,67,75
58080,note_on,0,0,1,,,,,,,,,0,,,79,75
58080,note_on,240,0,1,,,,,,,,,0,,,83,0
58080,note_on,0,0,3,,,,,,,,,2,,,43,62
58320,note_on,240,0,1,,,,,,,,,0,,,79,0
58320,note_on,0,0,1,,,,,,,,,0,,,67,0
58320,note_on,0,0,3,,,,,,,,,2,,,52,49
58320,note_on,0,0,1,,,,,,,,,0,,,64,62
58320,note_on,0,0,1,,,,,,,,,0,,,76,62
58320,note_on,0,0,3,,,,,,,,,2,,,40,49
58320,note_on,0,0,3,,,,,,,,,2,,,43,0
58320,note_on,240,0,3,,,,,,,,,2,,,55,0
58380,note_on,0,0,3,,,,,,,,,2,,,40,0
58380,note_on,0,0,1,,,,,,,,,0,,,64,0
58380,note_on,60,0,3,,,,,,,,,2,,,52,0
58380,note_on,60,0,1,,,,,,,,,0,,,76,0
58560,note_on,180,0,1,,,,,,,,,0,,,59,49
58560,note_on,0,0,3,,,,,,,,,2,,,42,36
58560,note_on,0,0,3,,,,,,,,,2,,,39,36
58560,note_on,180,0,3,,,,,,,,,2,,,30,36
58560,note_on,0,0,1,,,,,,,,,0,,,71,49
58800,note_on,0,0,3,,,,,,,,,2,,,39,36
58800,note_on,0,0,3,,,,,,,,,2,,,47,36
58800,note_on,240,0,3,,,,,,,,,2,,,42,0
58800,note_on,240,0,1,,,,,,,,,0,,,71,0
58800,note_on,0,0,1,,,,,,,,,0,,,59,0
58800,note_on,0,0,1,,,,,,,,,0,,,59,49
58800,note_on,0,0,1,,,,,,,,,0,,,71,49
58800,note_on,0,0,3,,,,,,,,,2,,,35,36
58800,note_on,0,0,3,,,,,,,,,2,,,30,0
58800,note_on,0,0,3,,,,,,,,,2,,,39,0
59040,note_on,0,0,1,,,,,,,,,0,,,59,0
59040,note_on,0,0,1,,,,,,,,,0,,,55,49
59040,note_on,0,0,1,,,,,,,,,0,,,67,49
59040,note_on,0,0,3,,,,,,,,,2,,,35,0
59040,note_on,0,0,3,,,,,,,,,2,,,39,0
59040,note_on,240,0,1,,,,,,,,,0,,,71,0
59040,note_on,240,0,3,,,,,,,,,2,,,47,0
59040,note_on,0,0,3,,,,,,,,,2,,,31,36
59040,note_on,0,0,3,,,,,,,,,2,,,43,36
59280,note_on,240,0,1,,,,,,,,,0,,,67,0
59280,note_on,0,0,1,,,,,,,,,0,,,55,0
59280,note_on,0,0,1,,,,,,,,,0,,,52,49
59280,note_on,0,0,1,,,,,,,,,0,,,64,49
59280,note_on,0,0,3,,,,,,,,,2,,,31,0
59280,note_on,0,0,3,,,,,,,,,2,,,28,36
59280,note_on,240,0,3,,,,,,,,,2,,,43,0
59280,note_on,0,0,3,,,,,,,,,2,,,40,36
59340,note_on,60,0,3,,,,,,,,,2,,,40,0
59340,note_on,0,0,3,,,,,,,,,2,,,28,0
59340,note_on,60,0,1,,,,,,,,,0,,,64,0
59340,note_on,0,0,1,,,,,,,,,0,,,52,0
59520,note_on,0,0,1,,,,,,,,,0,,,67,36
59520,note_on,180,0,1,,,,,,,,,0,,,55,36
59520,note_on,180,0,3,,,,,,,,,2,,,40,36
59760,note_on,240,0,1,,,,,,,,,0,,,67,0
59760,note_on,0,0,1,,,,,,,,,0,,,52,36
59760,note_on,0,0,1,,,,,,,,,0,,,64,36
59760,note_on,0,0,1,,,,,,,,,0,,,55,0
59790,note_on,270,0,3,,,,,,,,,2,,,40,0
59790,note_on,0,0,3,,,,,,,,,2,,,41,36
59820,note_on,0,0,1,,,,,,,,,0,,,52,0
59820,note_on,30,0,3,,,,,,,,,2,,,41,0
59820,note_on,0,0,3,,,,,,,,,2,,,40,36
59820,note_on,60,0,1,,,,,,,,,0,,,64,0
59850,note_on,30,0,3,,,,,,,,,2,,,40,0
59850,note_on,0,0,3,,,,,,,,,2,,,41,36
59880,note_on,0,0,3,,,,,,,,,2,,,40,36
59880,note_on,30,0,3,,,,,,,,,2,,,41,0
59910,note_on,0,0,3,,,,,,,,,2,,,41,36
59910,note_on,30,0,3,,,,,,,,,2,,,40,0
59940,note_on,0,0,3,,,,,,,,,2,,,40,36
59940,note_on,30,0,3,,,,,,,,,2,,,41,0
59970,note_on,0,0,3,,,,,,,,,2,,,41,36
59970,note_on,30,0,3,,,,,,,,,2,,,40,0
60000,note_on,0,0,1,,,,,,,,,0,,,65,36
60000,note_on,180,0,1,,,,,,,,,0,,,53,36
60000,control_change,0,0,3,,,,,,,,,2,64,127,,
60000,note_on,30,0,3,,,,,,,,,2,,,41,0
60000,note_on,0,0,3,,,,,,,,,2,,,40,36
60030,note_on,0,0,3,,,,,,,,,2,,,41,36
60030,note_on,30,0,3,,,,,,,,,2,,,40,0
60060,note_on,30,0,3,,,,,,,,,2,,,41,0
60060,note_on,0,0,3,,,,,,,,,2,,,40,36
60090,note_on,0,0,3,,,,,,,,,2,,,41,36
60090,note_on,30,0,3,,,,,,,,,2,,,40,0
60120,note_on,30,0,3,,,,,,,,,2,,,41,0
60120,note_on,0,0,3,,,,,,,,,2,,,40,36
60150,note_on,0,0,3,,,,,,,,,2,,,41,36
60150,note_on,30,0,3,,,,,,,,,2,,,40,0
60180,note_on,30,0,3,,,,,,,,,2,,,41,0
60180,note_on,0,0,3,,,,,,,,,2,,,40,36
60210,note_on,30,0,3,,,,,,,,,2,,,40,0
60210,note_on,0,0,3,,,,,,,,,2,,,41,36
60240,note_on,0,0,1,,,,,,,,,0,,,50,36
60240,note_on,0,0,1,,,,,,,,,0,,,62,36
60240,note_on,240,0,1,,,,,,,,,0,,,65,0
60240,note_on,30,0,3,,,,,,,,,2,,,41,0
60240,control_change,0,0,3,,,,,,,,,2,64,0,,
60240,note_on,0,0,1,,,,,,,,,0,,,53,0
60240,note_on,0,0,3,,,,,,,,,2,,,40,36
60270,note_on,0,0,3,,,,,,,,,2,,,41,36
60270,note_on,30,0,3,,,,,,,,,2,,,40,0
60300,note_on,30,0,3,,,,,,,,,2,,,41,0
60300,note_on,0,0,3,,,,,,,,,2,,,40,36
60300,note_on,60,0,1,,,,,,,,,0,,,62,0
60300,note_on,0,0,1,,,,,,,,,0,,,50,0
60330,note_on,30,0,3,,,,,,,,,2,,,40,0
60330,note_on,0,0,3,,,,,,,,,2,,,41,36
60360,note_on,30,0,3,,,,,,,,,2,,,41,0
60360,note_on,0,0,3,,,,,,,,,2,,,40,36
60390,note_on,30,0,3,,,,,,,,,2,,,40,0
60390,note_on,0,0,3,,,,,,,,,2,,,41,36
60420,note_on,30,0,3,,,,,,,,,2,,,41,0
60420,note_on,0,0,3,,,,,,,,,2,,,40,36
60450,note_on,30,0,3,,,,,,,,,2,,,40,0
60450,note_on,0,0,3,,,,,,,,,2,,,41,36
60480,note_on,180,0,1,,,,,,,,,0,,,52,62
60480,note_on,0,0,1,,,,,,,,,0,,,64,62
60480,note_on,30,0,3,,,,,,,,,2,,,41,0
60480,note_on,0,0,3,,,,,,,,,2,,,40,49
60480,control_change,0,0,3,,,,,,,,,2,64,127,,
60510,note_on,0,0,3,,,,,,,,,2,,,41,49
60510,note_on,30,0,3,,,,,,,,,2,,,40,0
60540,note_on,0,0,3,,,,,,,,,2,,,40,49
60540,note_on,30,0,3,,,,,,,,,2,,,41,0
60570,note_on,30,0,3,,,,,,,,,2,,,40,0
60570,note_on,0,0,3,,,,,,,,,2,,,41,49
60600,note_on,30,0,3,,,,,,,,,2,,,41,0
60600,note_on,0,0,3,,,,,,,,,2,,,40,49
60630,note_on,0,0,3,,,,,,,,,2,,,41,49
60630,note_on,30,0,3,,,,,,,,,2,,,40,0
60660,note_on,0,0,3,,,,,,,,,2,,,40,49
60660,note_on,30,0,3,,,,,,,,,2,,,41,0
60690,note_on,0,0,3,,,,,,,,,2,,,41,49
60690,note_on,30,0,3,,,,,,,,,2,,,40,0
60720,note_on,30,0,3,,,,,,,,,2,,,41,0
60720,control_change,0,0,3,,,,,,,,,2,64,0,,
60720,note_on,0,0,3,,,,,,,,,2,,,40,49
60720,note_on,0,0,1,,,,,,,,,0,,,48,62
60720,note_on,240,0,1,,,,,,,,,0,,,64,0
60720,note_on,0,0,1,,,,,,,,,0,,,52,0
60720,note_on,0,0,1,,,,,,,,,0,,,60,62
60750,note_on,30,0,3,,,,,,,,,2,,,40,0
60750,note_on,0,0,3,,,,,,,,,2,,,41,49
60780,note_on,60,0,1,,,,,,,,,0,,,60,0
60780,note_on,0,0,1,,,,,,,,,0,,,48,0
60780,note_on,30,0,3,,,,,,,,,2,,,41,0
60780,note_on,0,0,3,,,,,,,,,2,,,40,49
60810,note_on,30,0,3,,,,,,,,,2,,,40,0
60810,note_on,0,0,3,,,,,,,,,2,,,41,49
60840,note_on,30,0,3,,,,,,,,,2,,,41,0
60840,note_on,0,0,3,,,,,,,,,2,,,40,49
60870,note_on,30,0,3,,,,,,,,,2,,,40,0
60870,note_on,0,0,3,,,,,,,,,2,,,41,49
60900,note_on,30,0,3,,,,,,,,,2,,,41,0
60900,note_on,0,0,3,,,,,,,,,2,,,40,49
60930,note_on,30,0,3,,,,,,,,,2,,,40,0
60930,note_on,0,0,3,,,,,,,,,2,,,41,49
60960,note_on,180,0,1,,,,,,,,,0,,,50,75
60960,note_on,0,0,3,,,,,,,,,2,,,40,62
60960,note_on,0,0,1,,,,,,,,,0,,,62,75
60960,note_on,30,0,3,,,,,,,,,2,,,41,0
60960,control_change,0,0,3,,,,,,,,,2,64,127,,
60990,note_on,0,0,3,,,,,,,,,2,,,41,62
60990,note_on,30,0,3,,,,,,,,,2,,,40,0
61020,note_on,30,0,3,,,,,,,,,2,,,41,0
61020,note_on,0,0,3,,,,,,,,,2,,,40,62
61050,note_on,30,0,3,,,,,,,,,2,,,40,0
61050,note_on,0,0,3,,,,,,,,,2,,,41,62
61080,note_on,30,0,3,,,,,,,,,2,,,41,0
61080,note_on,0,0,3,,,,,,,,,2,,,40,62
61110,note_on,30,0,3,,,,,,,,,2,,,40,0
61110,note_on,0,0,3,,,,,,,,,2,,,41,62
61140,note_on,30,0,3,,,,,,,,,2,,,41,0
61140,note_on,0,0,3,,,,,,,,,2,,,40,62
61170,note_on,0,0,3,,,,,,,,,2,,,41,62
61170,note_on,30,0,3,,,,,,,,,2,,,40,0
61200,note_on,0,0,1,,,,,,,,,0,,,50,0
61200,note_on,0,0,3,,,,,,,,,2,,,40,62
61200,note_on,240,0,1,,,,,,,,,0,,,62,0
61200,control_change,0,0,3,,,,,,,,,2,64,0,,
61200,note_on,30,0,3,,,,,,,,,2,,,41,0
61200,note_on,0,0,1,,,,,,,,,0,,,47,75
61200,note_on,0,0,1,,,,,,,,,0,,,59,75
61230,note_on,30,0,3,,,,,,,,,2,,,40,0
61230,note_on,0,0,3,,,,,,,,,2,,,41,62
61260,note_on,30,0,3,,,,,,,,,2,,,41,0
61260,note_on,0,0,3,,,,,,,,,2,,,40,62
61260,note_on,0,0,1,,,,,,,,,0,,,47,0
61260,note_on,60,0,1,,,,,,,,,0,,,59,0
61290,note_on,0,0,3,,,,,,,,,2,,,41,62
61290,note_on,30,0,3,,,,,,,,,2,,,40,0
61320,note_on,0,0,3,,,,,,,,,2,,,40,62
61320,note_on,30,0,3,,,,,,,,,2,,,41,0
61350,note_on,30,0,3,,,,,,,,,2,,,40,0
61350,note_on,0,0,3,,,,,,,,,2,,,41,62
61380,note_on,30,0,3,,,,,,,,,2,,,41,0
61380,note_on,0,0,3,,,,,,,,,2,,,40,62
61410,note_on,0,0,3,,,,,,,,,2,,,42,62
61410,note_on,30,0,3,,,,,,,,,2,,,40,0
61440,note_on,0,0,1,,,,,,,,,0,,,57,101
61440,note_on,30,0,3,,,,,,,,,2,,,42,0
61440,note_on,0,0,3,,,,,,,,,2,,,33,88
61440,control_change,180,0,1,,,,,,,,,0,64,127,,
61440,note_on,0,0,3,,,,,,,,,2,,,45,88
61440,note_on,0,0,1,,,,,,,,,0,,,69,101
61440,control_change,0,0,3,,,,,,,,,2,64,127,,
61680,note_on,240,0,1,,,,,,,,,0,,,69,0
61680,note_on,0,0,1,,,,,,,,,0,,,57,0
61680,note_on,0,0,1,,,,,,,,,0,,,64,101
61680,note_on,0,0,1,,,,,,,,,0,,,76,101
61680,note_on,0,0,3,,,,,,,,,2,,,33,0
61680,note_on,0,0,3,,,,,,,,,2,,,52,88
61680,note_on,0,0,3,,,,,,,,,2,,,40,88
61680,note_on,240,0,3,,,,,,,,,2,,,45,0
61920,note_on,0,0,3,,,,,,,,,2,,,51,88
61920,note_on,0,0,3,,,,,,,,,2,,,40,0
61920,note_on,240,0,3,,,,,,,,,2,,,52,0
61920,control_change,0,0,3,,,,,,,,,2,64,0,,
61920,note_on,0,0,3,,,,,,,,,2,,,39,88
61920,control_change,0,0,1,,,,,,,,,0,64,0,,
61920,note_on,0,0,1,,,,,,,,,0,,,64,0
61920,note_on,0,0,1,,,,,,,,,0,,,75,101
61920,note_on,0,0,1,,,,,,,,,0,,,63,101
61920,note_on,240,0,1,,,,,,,,,0,,,76,0
62160,note_on,0,0,3,,,,,,,,,2,,,40,88
62160,note_on,240,0,1,,,,,,,,,0,,,75,0
62160,note_on,0,0,1,,,,,,,,,0,,,63,0
62160,note_on,0,0,1,,,,,,,,,0,,,64,101
62160,note_on,0,0,1,,,,,,,,,0,,,76,101
62160,note_on,240,0,3,,,,,,,,,2,,,51,0
62160,note_on,0,0,3,,,,,,,,,2,,,39,0
62160,note_on,0,0,3,,,,,,,,,2,,,52,88
62220,note_on,60,0,1,,,,,,,,,0,,,76,0
62220,note_on,0,0,1,,,,,,,,,0,,,64,0
62220,note_on,0,0,3,,,,,,,,,2,,,40,0
62220,note_on,60,0,3,,,,,,,,,2,,,52,0
62280,note_on,60,0,3,,,,,,,,,2,,,52,88
62280,note_on,60,0,1,,,,,,,,,0,,,64,101
62280,note_on,0,0,1,,,,,,,,,0,,,72,101
62280,note_on,0,0,3,,,,,,,,,2,,,64,88
62370,note_on,0,0,1,,,,,,,,,0,,,71,101
62370,note_on,0,0,1,,,,,,,,,0,,,64,101
62370,note_on,0,0,1,,,,,,,,,0,,,64,0
62370,note_on,90,0,1,,,,,,,,,0,,,72,0
62370,note_on,0,0,3,,,,,,,,,2,,,52,0
62370,note_on,90,0,3,,,,,,,,,2,,,64,0
62370,note_on,0,0,3,,,,,,,,,2,,,62,88
62370,note_on,0,0,3,,,,,,,,,2,,,50,88
62400,note_on,0,0,1,,,,,,,,,0,,,64,101
62400,note_on,30,0,3,,,,,,,,,2,,,62,0
62400,note_on,0,0,3,,,,,,,,,2,,,50,0
62400,note_on,0,0,3,,,,,,,,,2,,,48,88
62400,note_on,0,0,3,,,,,,,,,2,,,60,88
62400,note_on,30,0,1,,,,,,,,,0,,,71,0
62400,note_on,0,0,1,,,,,,,,,0,,,64,0
62400,note_on,0,0,1,,,,,,,,,0,,,69,101
62490,note_on,0,0,3,,,,,,,,,2,,,59,88
62490,note_on,90,0,1,,,,,,,,,0,,,69,0
62490,note_on,0,0,1,,,,,,,,,0,,,64,0
62490,note_on,0,0,3,,,,,,,,,2,,,47,88
62490,note_on,90,0,3,,,,,,,,,2,,,60,0
62490,note_on,0,0,3,,,,,,,,,2,,,48,0
62490,note_on,0,0,1,,,,,,,,,0,,,67,101
62490,note_on,0,0,1,,,,,,,,,0,,,62,101
62520,note_on,0,0,1,,,,,,,,,0,,,60,101
62520,note_on,0,0,1,,,,,,,,,0,,,62,0
62520,note_on,30,0,1,,,,,,,,,0,,,67,0
62520,note_on,0,0,3,,,,,,,,,2,,,47,0
62520,note_on,0,0,3,,,,,,,,,2,,,45,88
62520,note_on,30,0,3,,,,,,,,,2,,,59,0
62520,note_on,0,0,1,,,,,,,,,0,,,65,101
62520,note_on,0,0,3,,,,,,,,,2,,,57,88
62610,note_on,0,0,1,,,,,,,,,0,,,64,101
62610,note_on,90,0,1,,,,,,,,,0,,,65,0
62610,note_on,0,0,1,,,,,,,,,0,,,59,101
62610,note_on,0,0,1,,,,,,,,,0,,,60,0
62610,note_on,90,0,3,,,,,,,,,2,,,57,0
62610,note_on,0,0,3,,,,,,,,,2,,,45,0
62610,note_on,0,0,3,,,,,,,,,2,,,44,88
62610,note_on,0,0,3,,,,,,,,,2,,,56,88
62640,note_on,0,0,3,,,,,,,,,2,,,57,88
62640,note_on,30,0,3,,,,,,,,,2,,,56,0
62640,note_on,0,0,3,,,,,,,,,2,,,44,0
62640,note_on,0,0,3,,,,,,,,,2,,,45,88
62640,note_on,30,0,1,,,,,,,,,0,,,64,0
62640,note_on,0,0,1,,,,,,,,,0,,,60,101
62640,note_on,0,0,1,,,,,,,,,0,,,59,0
62640,note_on,0,0,1,,,,,,,,,0,,,65,101
62730,note_on,0,0,1,,,,,,,,,0,,,64,101
62730,note_on,0,0,1,,,,,,,,,0,,,59,101
62730,note_on,0,0,1,,,,,,,,,0,,,60,0
62730,note_on,90,0,1,,,,,,,,,0,,,65,0
62730,note_on,90,0,3,,,,,,,,,2,,,57,0
62730,note_on,0,0,3,,,,,,,,,2,,,45,0
62730,note_on,0,0,3,,,,,,,,,2,,,55,88
62730,note_on,0,0,3,,,,,,,,,2,,,43,88
62760,note_on,0,0,1,,,,,,,,,0,,,57,101
62760,note_on,0,0,3,,,,,,,,,2,,,43,0
62760,note_on,0,0,3,,,,,,,,,2,,,41,88
62760,note_on,0,0,3,,,,,,,,,2,,,53,88
62760,note_on,30,0,1,,,,,,,,,0,,,64,0
62760,note_on,0,0,1,,,,,,,,,0,,,59,0
62760,note_on,30,0,3,,,,,,,,,2,,,55,0
62760,note_on,0,0,1,,,,,,,,,0,,,62,101
62850,note_on,90,0,3,,,,,,,,,2,,,53,0
62850,note_on,0,0,3,,,,,,,,,2,,,41,0
62850,note_on,0,0,3,,,,,,,,,2,,,40,88
62850,note_on,0,0,3,,,,,,,,,2,,,52,88
62850,note_on,0,0,1,,,,,,,,,0,,,57,0
62850,note_on,0,0,1,,,,,,,,,0,,,55,101
62850,note_on,90,0,1,,,,,,,,,0,,,62,0
62850,note_on,0,0,1,,,,,,,,,0,,,61,101
62880,note_on,30,0,1,,,,,,,,,0,,,61,0
62880,note_on,0,0,1,,,,,,,,,0,,,55,0
62880,note_on,0,0,1,,,,,,,,,0,,,57,101
62880,note_on,0,0,1,,,,,,,,,0,,,62,101
62880,note_on,0,0,3,,,,,,,,,2,,,40,0
62880,note_on,0,0,3,,,,,,,,,2,,,41,88
62880,note_on,30,0,3,,,,,,,,,2,,,52,0
62880,note_on,0,0,3,,,,,,,,,2,,,53,88
62970,note_on,0,0,3,,,,,,,,,2,,,56,88
62970,note_on,0,0,1,,,,,,,,,0,,,64,101
62970,note_on,0,0,3,,,,,,,,,2,,,41,0
62970,note_on,0,0,1,,,,,,,,,0,,,57,0
62970,note_on,0,0,3,,,,,,,,,2,,,44,88
62970,note_on,90,0,1,,,,,,,,,0,,,62,0
62970,note_on,90,0,3,,,,,,,,,2,,,53,0
62970,note_on,0,0,1,,,,,,,,,0,,,59,101
63000,note_on,0,0,1,,,,,,,,,0,,,65,101
63000,note_on,0,0,3,,,,,,,,,2,,,45,88
63000,note_on,0,0,3,,,,,,,,,2,,,57,88
63000,note_on,0,0,1,,,,,,,,,0,,,60,101
63000,note_on,0,0,1,,,,,,,,,0,,,59,0
63000,note_on,30,0,1,,,,,,,,,0,,,64,0
63000,note_on,0,0,3,,,,,,,,,2,,,44,0
63000,note_on,30,0,3,,,,,,,,,2,,,56,0
63090,note_on,0,0,3,,,,,,,,,2,,,59,88
63090,note_on,90,0,3,,,,,,,,,2,,,57,0
63090,note_on,0,0,1,,,,,,,,,0,,,62,101
63090,note_on,0,0,3,,,,,,,,,2,,,45,0
63090,note_on,0,0,1,,,,,,,,,0,,,60,0
63090,note_on,90,0,1,,,,,,,,,0,,,65,0
63090,note_on,0,0,1,,,,,,,,,0,,,68,101
63090,note_on,0,0,3,,,,,,,,,2,,,47,88
63120,note_on,0,0,1,,,,,,,,,0,,,62,0
63120,note_on,30,0,1,,,,,,,,,0,,,68,0
63120,note_on,0,0,1,,,,,,,,,0,,,69,101
63120,note_on,0,0,3,,,,,,,,,2,,,48,88
63120,note_on,0,0,1,,,,,,,,,0,,,64,101
63120,note_on,0,0,3,,,,,,,,,2,,,47,0
63120,note_on,30,0,3,,,,,,,,,2,,,59,0
63120,note_on,0,0,3,,,,,,,,,2,,,60,88
63210,note_on,90,0,3,,,,,,,,,2,,,60,0
63210,note_on,0,0,3,,,,,,,,,2,,,48,0
63210,note_on,0,0,3,,,,,,,,,2,,,50,88
63210,note_on,0,0,3,,,,,,,,,2,,,62,88
63210,note_on,0,0,1,,,,,,,,,0,,,64,0
63210,note_on,0,0,1,,,,,,,,,0,,,64,101
63210,note_on,0,0,1,,,,,,,,,0,,,71,101
63210,note_on,90,0,1,,,,,,,,,0,,,69,0
63240,note_on,30,0,3,,,,,,,,,2,,,62,0
63240,note_on,0,0,1,,,,,,,,,0,,,69,101
63240,note_on,0,0,1,,,,,,,,,0,,,64,101
63240,note_on,0,0,1,,,,,,,,,0,,,64,0
63240,note_on,30,0,1,,,,,,,,,0,,,71,0
63240,note_on,0,0,3,,,,,,,,,2,,,60,88
63240,note_on,0,0,3,,,,,,,,,2,,,48,88
63240,note_on,0,0,3,,,,,,,,,2,,,50,0
63300,note_on,0,0,3,,,,,,,,,2,,,48,0
63300,note_on,60,0,3,,,,,,,,,2,,,60,0
63300,note_on,0,0,1,,,,,,,,,0,,,64,0
63300,note_on,60,0,1,,,,,,,,,0,,,69,0
63360,note_on,0,0,1,,,,,,,,,0,,,57,101
63360,control_change,60,0,1,,,,,,,,,0,64,127,,
63360,note_on,0,0,3,,,,,,,,,2,,,45,88
63360,control_change,60,0,3,,,,,,,,,2,64,127,,
63600,note_on,0,0,1,,,,,,,,,0,,,69,101
63600,note_on,240,0,3,,,,,,,,,2,,,45,0
63600,note_on,0,0,3,,,,,,,,,2,,,45,88
63600,note_on,0,0,1,,,,,,,,,0,,,65,101
63600,note_on,0,0,1,,,,,,,,,0,,,57,101
63600,note_on,240,0,1,,,,,,,,,0,,,57,0
63600,note_on,0,0,3,,,,,,,,,2,,,38,88
63840,note_on,240,0,3,,,,,,,,,2,,,45,0
63840,note_on,0,0,3,,,,,,,,,2,,,38,0
63840,control_change,0,0,3,,,,,,,,,2,64,0,,
63840,note_on,0,0,3,,,,,,,,,2,,,37,88
63840,note_on,0,0,3,,,,,,,,,2,,,45,88
63840,note_on,0,0,1,,,,,,,,,0,,,67,101
63840,note_on,0,0,1,,,,,,,,,0,,,58,101
63840,note_on,0,0,1,,,,,,,,,0,,,57,0
63840,note_on,0,0,1,,,,,,,,,0,,,65,0
63840,note_on,240,0,1,,,,,,,,,0,,,69,0
63840,note_on,0,0,1,,,,,,,,,0,,,70,101
63840,control_change,0,0,1,,,,,,,,,0,64,0,,
64080,note_on,240,0,1,,,,,,,,,0,,,70,0
64080,note_on,0,0,3,,,,,,,,,2,,,38,75
64080,note_on,240,0,3,,,,,,,,,2,,,37,0
64080,note_on,0,0,1,,,,,,,,,0,,,67,0
64080,note_on,0,0,1,,,,,,,,,0,,,57,88
64080,note_on,0,0,1,,,,,,,,,0,,,65,88
64080,note_on,0,0,1,,,,,,,,,0,,,69,88
64080,note_on,0,0,1,,,,,,,,,0,,,58,0
64140,note_on,0,0,1,,,,,,,,,0,,,65,0
64140,note_on,0,0,1,,,,,,,,,0,,,57,0
64140,note_on,0,0,3,,,,,,,,,2,,,45,0
64140,note_on,60,0,1,,,,,,,,,0,,,69,0
64140,note_on,60,0,3,,,,,,,,,2,,,38,0
64200,note_on,0,0,3,,,,,,,,,2,,,69,75
64200,control_change,60,0,1,,,,,,,,,0,64,127,,
64200,note_on,0,0,3,,,,,,,,,2,,,57,75
64200,note_on,0,0,1,,,,,,,,,0,,,69,88
64200,note_on,0,0,1,,,,,,,,,0,,,77,88
64200,control_change,60,0,3,,,,,,,,,2,64,127,,
64290,note_on,0,0,1,,,,,,,,,0,,,69,88
64290,note_on,0,0,1,,,,,,,,,0,,,76,88
64290,note_on,0,0,1,,,,,,,,,0,,,69,0
64290,note_on,90,0,1,,,,,,,,,0,,,77,0
64290,note_on,0,0,3,,,,,,,,,2,,,55,75
64290,note_on,90,0,3,,,,,,,,,2,,,69,0
64290,note_on,0,0,3,,,,,,,,,2,,,67,75
64290,note_on,0,0,3,,,,,,,,,2,,,57,0
64320,note_on,0,0,1,,,,,,,,,0,,,69,88
64320,note_on,0,0,1,,,,,,,,,0,,,74,88
64320,note_on,0,0,1,,,,,,,,,0,,,69,0
64320,note_on,0,0,3,,,,,,,,,2,,,65,75
64320,note_on,30,0,3,,,,,,,,,2,,,67,0
64320,note_on,0,0,3,,,,,,,,,2,,,55,0
64320,note_on,30,0,1,,,,,,,,,0,,,76,0
64320,note_on,0,0,3,,,,,,,,,2,,,53,75
64410,control_change,0,0,3,,,,,,,,,2,64,0,,
64410,control_change,0,0,1,,,,,,,,,0,64,0,,
64410,note_on,0,0,1,,,,,,,,,0,,,72,88
64410,note_on,0,0,3,,,,,,,,,2,,,53,0
64410,note_on,0,0,1,,,,,,,,,0,,,69,0
64410,note_on,90,0,3,,,,,,,,,2,,,65,0
64410,note_on,90,0,1,,,,,,,,,0,,,74,0
64410,note_on,0,0,1,,,,,,,,,0,,,67,88
64410,note_on,0,0,3,,,,,,,,,2,,,52,75
64410,note_on,0,0,3,,,,,,,,,2,,,64,75
64440,note_on,0,0,1,,,,,,,,,0,,,70,88
64440,note_on,0,0,1,,,,,,,,,0,,,65,88
64440,note_on,0,0,3,,,,,,,,,2,,,62,75
64440,note_on,30,0,1,,,,,,,,,0,,,72,0
64440,note_on,0,0,1,,,,,,,,,0,,,67,0
64440,note_on,0,0,3,,,,,,,,,2,,,52,0
64440,note_on,0,0,3,,,,,,,,,2,,,50,75
64440,note_on,30,0,3,,,,,,,,,2,,,64,0
64530,note_on,0,0,3,,,,,,,,,2,,,61,75
64530,note_on,0,0,3,,,,,,,,,2,,,49,75
64530,note_on,0,0,3,,,,,,,,,2,,,50,0
64530,note_on,90,0,1,,,,,,,,,0,,,70,0
64530,note_on,0,0,1,,,,,,,,,0,,,65,0
64530,note_on,0,0,1,,,,,,,,,0,,,64,88
64530,note_on,0,0,1,,,,,,,,,0,,,69,88
64530,note_on,90,0,3,,,,,,,,,2,,,62,0
64560,note_on,0,0,1,,,,,,,,,0,,,70,88
64560,note_on,30,0,1,,,,,,,,,0,,,69,0
64560,note_on,0,0,1,,,,,,,,,0,,,64,0
64560,note_on,0,0,1,,,,,,,,,0,,,65,88
64560,note_on,0,0,3,,,,,,,,,2,,,62,75
64560,note_on,0,0,3,,,,,,,,,2,,,50,75
64560,note_on,30,0,3,,,,,,,,,2,,,61,0
64560,note_on,0,0,3,,,,,,,,,2,,,49,0
64650,note_on,0,0,3,,,,,,,,,2,,,50,0
64650,note_on,0,0,3,,,,,,,,,2,,,48,75
64650,note_on,0,0,3,,,,,,,,,2,,,60,75
64650,note_on,0,0,1,,,,,,,,,0,,,65,0
64650,note_on,90,0,3,,,,,,,,,2,,,62,0
64650,note_on,0,0,1,,,,,,,,,0,,,69,88
64650,note_on,90,0,1,,,,,,,,,0,,,70,0
64650,note_on,0,0,1,,,,,,,,,0,,,64,88
64680,note_on,30,0,3,,,,,,,,,2,,,60,0
64680,note_on,0,0,1,,,,,,,,,0,,,67,88
64680,note_on,0,0,1,,,,,,,,,0,,,62,88
64680,note_on,0,0,1,,,,,,,,,0,,,64,0
64680,note_on,30,0,1,,,,,,,,,0,,,69,0
64680,note_on,0,0,3,,,,,,,,,2,,,48,0
64680,note_on,0,0,3,,,,,,,,,2,,,46,75
64680,note_on,0,0,3,,,,,,,,,2,,,58,75
64770,note_on,90,0,3,,,,,,,,,2,,,58,0
64770,note_on,0,0,3,,,,,,,,,2,,,46,0
64770,note_on,0,0,3,,,,,,,,,2,,,45,75
64770,note_on,0,0,1,,,,,,,,,0,,,62,0
64770,note_on,0,0,1,,,,,,,,,0,,,66,88
64770,note_on,90,0,1,,,,,,,,,0,,,67,0
64770,note_on,0,0,1,,,,,,,,,0,,,60,88
64770,note_on,0,0,3,,,,,,,,,2,,,57,75
64800,note_on,30,0,3,,,,,,,,,2,,,57,0
64800,note_on,0,0,3,,,,,,,,,2,,,45,0
64800,note_on,0,0,3,,,,,,,,,2,,,58,75
64800,note_on,0,0,1,,,,,,,,,0,,,60,0
64800,note_on,30,0,1,,,,,,,,,0,,,66,0
64800,note_on,0,0,1,,,,,,,,,0,,,62,88
64800,note_on,0,0,1,,,,,,,,,0,,,67,88
64800,note_on,0,0,3,,,,,,,,,2,,,46,75
64890,note_on,0,0,1,,,,,,,,,0,,,69,88
64890,note_on,0,0,1,,,,,,,,,0,,,64,88
64890,note_on,90,0,1,,,,,,,,,0,,,67,0
64890,note_on,0,0,1,,,,,,,,,0,,,62,0
64890,note_on,90,0,3,,,,,,,,,2,,,58,0
64890,note_on,0,0,3,,,,,,,,,2,,,46,0
64890,note_on,0,0,3,,,,,,,,,2,,,49,75
64890,note_on,0,0,3,,,,,,,,,2,,,61,75
64920,note_on,0,0,3,,,,,,,,,2,,,62,75
64920,note_on,0,0,3,,,,,,,,,2,,,50,75
64920,note_on,0,0,1,,,,,,,,,0,,,70,88
64920,note_on,0,0,1,,,,,,,,,0,,,65,88
64920,note_on,0,0,1,,,,,,,,,0,,,64,0
64920,note_on,30,0,1,,,,,,,,,0,,,69,0
64920,note_on,0,0,3,,,,,,,,,2,,,49,0
64920,note_on,30,0,3,,,,,,,,,2,,,61,0
65010,note_on,0,0,3,,,,,,,,,2,,,64,75
65010,note_on,0,0,3,,,,,,,,,2,,,52,75
65010,note_on,0,0,3,,,,,,,,,2,,,50,0
65010,note_on,90,0,3,,,,,,,,,2,,,62,0
65010,note_on,0,0,1,,,,,,,,,0,,,67,88
65010,note_on,0,0,1,,,,,,,,,0,,,73,88
65010,note_on,90,0,1,,,,,,,,,0,,,70,0
65010,note_on,0,0,1,,,,,,,,,0,,,65,0
65040,note_on,0,0,1,,,,,,,,,0,,,74,88
65040,note_on,0,0,1,,,,,,,,,0,,,69,88
65040,note_on,0,0,1,,,,,,,,,0,,,67,0
65040,note_on,30,0,1,,,,,,,,,0,,,73,0
65040,note_on,0,0,3,,,,,,,,,2,,,52,0
65040,note_on,0,0,3,,,,,,,,,2,,,53,75
65040,note_on,0,0,3,,,,,,,,,2,,,65,75
65040,note_on,30,0,3,,,,,,,,,2,,,64,0
65130,note_on,0,0,3,,,,,,,,,2,,,67,75
65130,note_on,0,0,3,,,,,,,,,2,,,55,75
65130,note_on,0,0,3,,,,,,,,,2,,,53,0
65130,note_on,90,0,3,,,,,,,,,2,,,65,0
65130,note_on,0,0,1,,,,,,,,,0,,,76,88
65130,note_on,0,0,1,,,,,,,,,0,,,69,88
65130,note_on,0,0,1,,,,,,,,,0,,,69,0
65130,note_on,90,0,1,,,,,,,,,0,,,74,0
65160,note_on,0,0,3,,,,,,,,,2,,,55,0
65160,note_on,0,0,1,,,,,,,,,0,,,69,0
65160,note_on,30,0,1,,,,,,,,,0,,,76,0
65160,note_on,0,0,3,,,,,,,,,2,,,53,75
65160,note_on,0,0,1,,,,,,,,,0,,,74,88
65160,note_on,0,0,1,,,,,,,,,0,,,69,88
65160,note_on,30,0,3,,,,,,,,,2,,,67,0
65160,note_on,0,0,3,,,,,,,,,2,,,65,75
65220,note_on,60,0,1,,,,,,,,,0,,,74,0
65220,note_on,0,0,1,,,,,,,,,0,,,69,0
65220,note_on,60,0,3,,,,,,,,,2,,,65,0
65220,note_on,0,0,3,,,,,,,,,2,,,53,0
65280,note_on,0,0,3,,,,,,,,,2,,,58,97
65280,note_on,0,0,3,,,,,,,,,2,,,55,93
65280,note_on,0,0,3,,,,,,,,,2,,,62,101
65280,note_on,60,0,3,,,,,,,,,2,,,50,89
65520,note_on,240,0,3,,,,,,,,,2,,,62,0
65520,note_on,0,0,3,,,,,,,,,2,,,55,0
65520,note_on,0,0,3,,,,,,,,,2,,,50,75
65520,note_on,0,0,3,,,,,,,,,2,,,38,75
65520,note_on,0,0,3,,,,,,,,,2,,,58,0
65520,note_on,0,0,3,,,,,,,,,2,,,50,0
65526,note_on,0,0,3,,,,,,,,,2,,,38,0
65526,note_on,6,0,3,,,,,,,,,2,,,50,0
65760,note_on,0,0,3,,,,,,,,,2,,,57,97
65760,note_on,0,0,3,,,,,,,,,2,,,62,101
65760,note_on,0,0,3,,,,,,,,,2,,,53,93
65760,note_on,234,0,3,,,,,,,,,2,,,50,89
66000,note_on,0,0,3,,,,,,,,,2,,,53,0
66000,note_on,0,0,3,,,,,,,,,2,,,57,0
66000,note_on,0,0,3,,,,,,,,,2,,,38,75
66000,note_on,0,0,3,,,,,,,,,2,,,50,75
66000,note_on,0,0,3,,,,,,,,,2,,,50,0
66000,note_on,240,0,3,,,,,,,,,2,,,62,0
66006,note_on,6,0,3,,,,,,,,,2,,,50,0
66006,note_on,0,0,3,,,,,,,,,2,,,38,0
66120,note_on,0,0,1,,,,,,,,,0,,,74,88
66120,note_on,900,0,1,,,,,,,,,0,,,62,88
66240,note_on,234,0,3,,,,,,,,,2,,,50,75
66240,note_on,0,0,3,,,,,,,,,2,,,62,75
66240,note_on,0,0,3,,,,,,,,,2,,,58,75
66240,note_on,0,0,3,,,,,,,,,2,,,55,75
66360,note_on,0,0,1,,,,,,,,,0,,,62,0
66360,note_on,0,0,1,,,,,,,,,0,,,67,88
66360,note_on,0,0,1,,,,,,,,,0,,,79,88
66360,note_on,240,0,1,,,,,,,,,0,,,74,0
66480,note_on,0,0,3,,,,,,,,,2,,,38,75
66480,note_on,0,0,3,,,,,,,,,2,,,58,0
66480,note_on,0,0,3,,,,,,,,,2,,,55,0
66480,note_on,0,0,3,,,,,,,,,2,,,50,0
66480,note_on,240,0,3,,,,,,,,,2,,,62,0
66480,note_on,0,0,3,,,,,,,,,2,,,50,75
66480,note_on,0,0,1,,,,,,,,,0,,,81,88
66480,note_on,120,0,1,,,,,,,,,0,,,79,0
66480,note_on,0,0,1,,,,,,,,,0,,,67,0
66480,note_on,0,0,1,,,,,,,,,0,,,69,88
66540,note_on,0,0,3,,,,,,,,,2,,,38,0
66540,note_on,60,0,3,,,,,,,,,2,,,50,0
66600,note_on,120,0,1,,,,,,,,,0,,,81,0
66600,note_on,0,0,1,,,,,,,,,0,,,82,88
66600,note_on,0,0,1,,,,,,,,,0,,,69,0
66600,note_on,0,0,1,,,,,,,,,0,,,70,88
66720,note_on,0,0,1,,,,,,,,,0,,,81,88
66720,note_on,120,0,1,,,,,,,,,0,,,82,0
66720,note_on,0,0,3,,,,,,,,,2,,,62,75
66720,note_on,0,0,3,,,,,,,,,2,,,57,75
66720,note_on,0,0,3,,,,,,,,,2,,,53,75
66720,note_on,180,0,3,,,,,,,,,2,,,50,75
66720,note_on,0,0,1,,,,,,,,,0,,,70,0
66720,note_on,0,0,1,,,,,,,,,0,,,69,88
66960,note_on,0,0,1,,,,,,,,,0,,,74,88
66960,note_on,240,0,1,,,,,,,,,0,,,81,0
66960,note_on,0,0,1,,,,,,,,,0,,,62,88
66960,note_on,0,0,1,,,,,,,,,0,,,69,0
66960,note_on,0,0,3,,,,,,,,,2,,,50,0
66960,note_on,0,0,3,,,,,,,,,2,,,53,0
66960,note_on,0,0,3,,,,,,,,,2,,,57,0
66960,note_on,0,0,3,,,,,,,,,2,,,38,75
66960,note_on,0,0,3,,,,,,,,,2,,,50,75
66960,note_on,240,0,3,,,,,,,,,2,,,62,0
67020,note_on,60,0,1,,,,,,,,,0,,,74,0
67020,note_on,0,0,1,,,,,,,,,0,,,62,0
67020,note_on,60,0,3,,,,,,,,,2,,,50,0
67020,note_on,0,0,3,,,,,,,,,2,,,38,0
67080,note_on,0,0,1,,,,,,,,,0,,,84,88
67080,note_on,60,0,1,,,,,,,,,0,,,72,88
67200,note_on,0,0,3,,,,,,,,,2,,,55,75
67200,note_on,0,0,1,,,,,,,,,0,,,82,88
67200,note_on,0,0,1,,,,,,,,,0,,,70,88
67200,note_on,180,0,3,,,,,,,,,2,,,50,75
67200,note_on,120,0,1,,,,,,,,,0,,,84,0
67200,note_on,0,0,1,,,,,,,,,0,,,72,0
67200,note_on,0,0,3,,,,,,,,,2,,,58,75
67200,note_on,0,0,3,,,,,,,,,2,,,62,75
67440,note_on,0,0,3,,,,,,,,,2,,,50,75
67440,note_on,0,0,1,,,,,,,,,0,,,62,88
67440,note_on,0,0,1,,,,,,,,,0,,,70,0
67440,note_on,240,0,1,,,,,,,,,0,,,82,0
67440,note_on,0,0,1,,,,,,,,,0,,,74,88
67440,note_on,0,0,3,,,,,,,,,2,,,50,0
67440,note_on,0,0,3,,,,,,,,,2,,,55,0
67440,note_on,0,0,3,,,,,,,,,2,,,58,0
67440,note_on,0,0,3,,,,,,,,,2,,,38,75
67440,note_on,240,0,3,,,,,,,,,2,,,62,0
67500,note_on,60,0,3,,,,,,,,,2,,,50,0
67500,note_on,60,0,1,,,,,,,,,0,,,74,0
67500,note_on,0,0,1,,,,,,,,,0,,,62,0
67500,note_on,0,0,3,,,,,,,,,2,,,38,0
67560,note_on,0,0,1,,,,,,,,,0,,,82,88
67560,note_on,60,0,1,,,,,,,,,0,,,70,88
67680,note_on,0,0,1,,,,,,,,,0,,,81,88
67680,note_on,0,0,1,,,,,,,,,0,,,69,88
67680,note_on,0,0,1,,,,,,,,,0,,,70,0
67680,note_on,120,0,1,,,,,,,,,0,,,82,0
67680,note_on,0,0,3,,,,,,,,,2,,,62,75
67680,note_on,180,0,3,,,,,,,,,2,,,50,75
67680,note_on,0,0,3,,,,,,,,,2,,,53,75
67680,note_on,0,0,3,,,,,,,,,2,,,57,75
67920,note_on,0,0,1,,,,,,,,,0,,,74,88
67920,note_on,0,0,1,,,,,,,,,0,,,62,88
67920,note_on,0,0,1,,,,,,,,,0,,,69,0
67920,note_on,240,0,1,,,,,,,,,0,,,81,0
67920,note_on,240,0,3,,,,,,,,,2,,,62,0
67920,note_on,0,0,3,,,,,,,,,2,,,50,0
67920,note_on,0,0,3,,,,,,,,,2,,,57,0
67920,note_on,0,0,3,,,,,,,,,2,,,38,75
67920,note_on,0,0,3,,,,,,,,,2,,,50,75
67920,note_on,0,0,3,,,,,,,,,2,,,53,0
67980,note_on,0,0,3,,,,,,,,,2,,,38,0
67980,note_on,60,0,3,,,,,,,,,2,,,50,0
67980,note_on,60,0,1,,,,,,,,,0,,,74,0
67980,note_on,0,0,1,,,,,,,,,0,,,62,0
68040,note_on,60,0,1,,,,,,,,,0,,,62,88
68040,note_on,0,0,1,,,,,,,,,0,,,74,88
68160,note_on,0,0,3,,,,,,,,,2,,,62,75
68160,note_on,0,0,3,,,,,,,,,2,,,58,75
68160,note_on,0,0,3,,,,,,,,,2,,,55,75
68160,note_on,180,0,3,,,,,,,,,2,,,50,75
68280,note_on,240,0,1,,,,,,,,,0,,,74,0
68280,note_on,0,0,1,,,,,,,,,0,,,62,0
68280,note_on,0,0,1,,,,,,,,,0,,,67,88
68280,note_on,0,0,1,,,,,,,,,0,,,79,88
68400,note_on,240,0,3,,,,,,,,,2,,,62,0
68400,note_on,120,0,1,,,,,,,,,0,,,79,0
68400,note_on,0,0,1,,,,,,,,,0,,,81,88
68400,note_on,0,0,1,,,,,,,,,0,,,67,0
68400,note_on,0,0,1,,,,,,,,,0,,,69,88
68400,note_on,0,0,3,,,,,,,,,2,,,58,0
68400,note_on,0,0,3,,,,,,,,,2,,,50,75
68400,note_on,0,0,3,,,,,,,,,2,,,38,75
68400,note_on,0,0,3,,,,,,,,,2,,,55,0
68400,note_on,0,0,3,,,,,,,,,2,,,50,0
68460,note_on,60,0,3,,,,,,,,,2,,,50,0
68460,note_on,0,0,3,,,,,,,,,2,,,38,0
68520,note_on,0,0,1,,,,,,,,,0,,,82,88
68520,note_on,0,0,1,,,,,,,,,0,,,70,88
68520,note_on,0,0,1,,,,,,,,,0,,,69,0
68520,note_on,120,0,1,,,,,,,,,0,,,81,0
68640,note_on,0,0,3,,,,,,,,,2,,,53,75
68640,note_on,0,0,1,,,,,,,,,0,,,69,88
68640,note_on,180,0,3,,,,,,,,,2,,,50,75
68640,note_on,0,0,1,,,,,,,,,0,,,70,0
68640,note_on,120,0,1,,,,,,,,,0,,,82,0
68640,note_on,0,0,3,,,,,,,,,2,,,57,75
68640,note_on,0,0,3,,,,,,,,,2,,,62,75
68640,note_on,0,0,1,,,,,,,,,0,,,81,88
68880,note_on,0,0,3,,,,,,,,,2,,,50,75
68880,note_on,0,0,1,,,,,,,,,0,,,69,0
68880,note_on,0,0,1,,,,,,,,,0,,,62,88
68880,note_on,0,0,1,,,,,,,,,0,,,74,88
68880,note_on,0,0,3,,,,,,,,,2,,,38,75
68880,note_on,240,0,3,,,,,,,,,2,,,62,0
68880,note_on,0,0,3,,,,,,,,,2,,,50,0
68880,note_on,240,0,1,,,,,,,,,0,,,81,0
68880,note_on,0,0,3,,,,,,,,,2,,,53,0
68880,note_on,0,0,3,,,,,,,,,2,,,57,0
68940,note_on,0,0,3,,,,,,,,,2,,,38,0
68940,note_on,60,0,3,,,,,,,,,2,,,50,0
68940,note_on,0,0,1,,,,,,,,,0,,,62,0
68940,note_on,60,0,1,,,,,,,,,0,,,74,0
69000,note_on,0,0,1,,,,,,,,,0,,,81,88
69000,note_on,60,0,1,,,,,,,,,0,,,69,88
69120,note_on,0,0,3,,,,,,,,,2,,,60,75
69120,note_on,0,0,3,,,,,,,,,2,,,57,75
69120,note_on,0,0,3,,,,,,,,,2,,,52,75
69120,note_on,180,0,3,,,,,,,,,2,,,48,75
69240,note_on,0,0,1,,,,,,,,,0,,,72,88
69240,note_on,0,0,1,,,,,,,,,0,,,69,0
69240,note_on,240,0,1,,,,,,,,,0,,,81,0
69240,note_on,0,0,1,,,,,,,,,0,,,84,88
69360,note_on,120,0,1,,,,,,,,,0,,,84,0
69360,note_on,0,0,1,,,,,,,,,0,,,74,88
69360,note_on,0,0,1,,,,,,,,,0,,,86,88
69360,note_on,0,0,1,,,,,,,,,0,,,72,0
69360,note_on,0,0,3,,,,,,,,,2,,,48,0
69360,note_on,0,0,3,,,,,,,,,2,,,52,0
69360,note_on,0,0,3,,,,,,,,,2,,,57,0
69360,note_on,240,0,3,,,,,,,,,2,,,60,0
69360,note_on,0,0,3,,,,,,,,,2,,,48,75
69360,note_on,0,0,3,,,,,,,,,2,,,36,75
69420,note_on,0,0,3,,,,,,,,,2,,,36,0
69420,note_on,60,0,3,,,,,,,,,2,,,48,0
69480,note_on,0,0,1,,,,,,,,,0,,,74,0
69480,note_on,0,0,1,,,,,,,,,0,,,88,88
69480,note_on,0,0,1,,,,,,,,,0,,,76,88
69480,note_on,120,0,1,,,,,,,,,0,,,86,0
69600,note_on,180,0,3,,,,,,,,,2,,,47,88
69600,note_on,0,0,3,,,,,,,,,2,,,56,88
69600,note_on,120,0,1,,,,,,,,,0,,,88,0
69600,note_on,0,0,1,,,,,,,,,0,,,76,0
69600,note_on,0,0,1,,,,,,,,,0,,,76,101
69600,note_on,0,0,1,,,,,,,,,0,,,88,101
69600,note_on,0,0,3,,,,,,,,,2,,,59,88
69840,note_on,0,0,1,,,,,,,,,0,,,76,101
69840,note_on,0,0,3,,,,,,,,,2,,,52,88
69840,note_on,0,0,3,,,,,,,,,2,,,56,0
69840,note_on,0,0,3,,,,,,,,,2,,,47,0
69840,note_on,0,0,3,,,,,,,,,2,,,56,88
69840,note_on,0,0,3,,,,,,,,,2,,,64,88
69840,note_on,240,0,1,,,,,,,,,0,,,88,0
69840,note_on,0,0,1,,,,,,,,,0,,,76,0
69840,note_on,240,0,3,,,,,,,,,2,,,59,0
69840,note_on,0,0,1,,,,,,,,,0,,,88,101
70080,note_on,0,0,1,,,,,,,,,0,,,72,119
70080,note_on,0,0,1,,,,,,,,,0,,,76,0
70080,note_on,0,0,1,,,,,,,,,0,,,84,127
70080,note_on,0,0,3,,,,,,,,,2,,,60,114
70080,note_on,0,0,3,,,,,,,,,2,,,48,106
70080,note_on,0,0,3,,,,,,,,,2,,,52,0
70080,note_on,0,0,3,,,,,,,,,2,,,56,0
70080,note_on,240,0,3,,,,,,,,,2,,,64,0
70080,note_on,240,0,1,,,,,,,,,0,,,88,0
70320,note_on,240,0,1,,,,,,,,,0,,,84,0
70320,note_on,0,0,1,,,,,,,,,0,,,72,0
70320,note_on,0,0,1,,,,,,,,,0,,,81,101
70320,note_on,0,0,1,,,,,,,,,0,,,69,101
70320,note_on,0,0,3,,,,,,,,,2,,,57,88
70320,note_on,0,0,3,,,,,,,,,2,,,45,88
70320,note_on,0,0,3,,,,,,,,,2,,,48,0
70320,note_on,240,0,3,,,,,,,,,2,,,60,0
70380,note_on,0,0,1,,,,,,,,,0,,,69,0
70380,note_on,60,0,1,,,,,,,,,0,,,81,0
70380,note_on,60,0,3,,,,,,,,,2,,,57,0
70380,note_on,0,0,3,,,,,,,,,2,,,45,0
70560,note_on,0,0,3,,,,,,,,,2,,,47,36
70560,note_on,180,0,1,,,,,,,,,0,,,64,49
70560,note_on,0,0,1,,,,,,,,,0,,,76,49
70560,note_on,0,0,3,,,,,,,,,2,,,44,36
70560,note_on,180,0,3,,,,,,,,,2,,,35,36
70800,note_on,0,0,3,,,,,,,,,2,,,40,36
70800,note_on,0,0,3,,,,,,,,,2,,,44,36
70800,note_on,0,0,3,,,,,,,,,2,,,52,36
70800,note_on,240,0,3,,,,,,,,,2,,,47,0
70800,note_on,0,0,3,,,,,,,,,2,,,44,0
70800,note_on,240,0,1,,,,,,,,,0,,,76,0
70800,note_on,0,0,1,,,,,,,,,0,,,64,0
70800,note_on,0,0,1,,,,,,,,,0,,,64,49
70800,note_on,0,0,1,,,,,,,,,0,,,76,49
70800,note_on,0,0,3,,,,,,,,,2,,,35,0
71040,note_on,0,0,1,,,,,,,,,0,,,64,0
71040,note_on,0,0,3,,,,,,,,,2,,,48,62
71040,note_on,0,0,3,,,,,,,,,2,,,36,54
71040,note_on,0,0,3,,,,,,,,,2,,,40,0
71040,note_on,0,0,3,,,,,,,,,2,,,44,0
71040,note_on,240,0,3,,,,,,,,,2,,,52,0
71040,note_on,240,0,1,,,,,,,,,0,,,76,0
71040,note_on,0,0,1,,,,,,,,,0,,,72,75
71040,note_on,0,0,1,,,,,,,,,0,,,60,67
71280,note_on,240,0,3,,,,,,,,,2,,,48,0
71280,note_on,0,0,3,,,,,,,,,2,,,33,36
71280,note_on,0,0,1,,,,,,,,,0,,,69,49
71280,note_on,0,0,1,,,,,,,,,0,,,57,49
71280,note_on,0,0,1,,,,,,,,,0,,,60,0
71280,note_on,240,0,1,,,,,,,,,0,,,72,0
71280,note_on,0,0,3,,,,,,,,,2,,,36,0
71280,note_on,0,0,3,,,,,,,,,2,,,45,36
71340,note_on,60,0,3,,,,,,,,,2,,,45,0
71340,note_on,0,0,3,,,,,,,,,2,,,33,0
71340,note_on,0,0,1,,,,,,,,,0,,,57,0
71340,note_on,60,0,1,,,,,,,,,0,,,69,0
71520,note_on,0,0,1,,,,,,,,,0,,,70,36
71520,note_on,180,0,1,,,,,,,,,0,,,58,36
71520,note_on,180,0,3,,,,,,,,,2,,,34,36
71520,note_on,0,0,3,,,,,,,,,2,,,46,36
71760,note_on,240,0,3,,,,,,,,,2,,,46,0
71760,note_on,0,0,3,,,,,,,,,2,,,34,0
71760,note_on,0,0,3,,,,,,,,,2,,,31,36
71760,note_on,0,0,3,,,,,,,,,2,,,43,36
71760,note_on,240,0,1,,,,,,,,,0,,,70,0
71760,note_on,0,0,1,,,,,,,,,0,,,58,0
71760,note_on,0,0,1,,,,,,,,,0,,,67,36
71760,note_on,0,0,1,,,,,,,,,0,,,55,36
71820,note_on,60,0,3,,,,,,,,,2,,,43,0
71820,note_on,0,0,1,,,,,,,,,0,,,55,0
71820,note_on,60,0,1,,,,,,,,,0,,,67,0
71820,note_on,0,0,3,,,,,,,,,2,,,31,0
72000,note_on,0,0,3,,,,,,,,,2,,,46,36
72000,note_on,0,0,1,,,,,,,,,0,,,70,36
72000,note_on,180,0,1,,,,,,,,,0,,,58,36
72000,note_on,180,0,3,,,,,,,,,2,,,34,36
72240,note_on,0,0,3,,,,,,,,,2,,,31,36
72240,note_on,0,0,1,,,,,,,,,0,,,67,36
72240,note_on,0,0,3,,,,,,,,,2,,,43,36
72240,note_on,240,0,1,,,,,,,,,0,,,70,0
72240,note_on,0,0,3,,,,,,,,,2,,,34,0
72240,note_on,240,0,3,,,,,,,,,2,,,46,0
72240,note_on,0,0,1,,,,,,,,,0,,,55,36
72240,note_on,0,0,1,,,,,,,,,0,,,58,0
72300,note_on,60,0,1,,,,,,,,,0,,,67,0
72300,note_on,0,0,1,,,,,,,,,0,,,55,0
72300,note_on,0,0,3,,,,,,,,,2,,,31,0
72300,note_on,60,0,3,,,,,,,,,2,,,43,0
72480,note_on,180,0,3,,,,,,,,,2,,,34,36
72480,note_on,0,0,1,,,,,,,,,0,,,70,36
72480,note_on,180,0,1,,,,,,,,,0,,,58,36
72480,note_on,0,0,3,,,,,,,,,2,,,46,36
72720,note_on,240,0,1,,,,,,,,,0,,,70,0
72720,note_on,0,0,3,,,,,,,,,2,,,31,36
72720,note_on,0,0,1,,,,,,,,,0,,,55,36
72720,note_on,240,0,3,,,,,,,,,2,,,46,0
72720,note_on,0,0,3,,,,,,,,,2,,,34,0
72720,note_on,0,0,1,,,,,,,,,0,,,58,0
72720,note_on,0,0,3,,,,,,,,,2,,,43,36
72720,note_on,0,0,1,,,,,,,,,0,,,67,36
72780,note_on,60,0,3,,,,,,,,,2,,,43,0
72780,note_on,60,0,1,,,,,,,,,0,,,67,0
72780,note_on,0,0,3,,,,,,,,,2,,,31,0
72780,note_on,0,0,1,,,,,,,,,0,,,55,0
72960,note_on,180,0,1,,,,,,,,,0,,,58,36
72960,note_on,180,0,3,,,,,,,,,2,,,34,36
72960,note_on,0,0,1,,,,,,,,,0,,,70,36
72960,note_on,0,0,3,,,,,,,,,2,,,46,36
73200,note_on,240,0,1,,,,,,,,,0,,,70,0
73200,note_on,0,0,1,,,,,,,,,0,,,58,0
73200,note_on,0,0,3,,,,,,,,,2,,,31,36
73200,note_on,0,0,3,,,,,,,,,2,,,34,0
73200,note_on,240,0,3,,,,,,,,,2,,,46,0
73200,note_on,0,0,1,,,,,,,,,0,,,55,36
73200,note_on,0,0,1,,,,,,,,,0,,,67,36
73200,note_on,0,0,3,,,,,,,,,2,,,43,36
73260,note_on,0,0,3,,,,,,,,,2,,,31,0
73260,note_on,60,0,3,,,,,,,,,2,,,43,0
73260,note_on,60,0,1,,,,,,,,,0,,,67,0
73260,note_on,0,0,1,,,,,,,,,0,,,55,0
73440,note_on,0,0,3,,,,,,,,,2,,,35,75
73440,control_change,180,0,3,,,,,,,,,2,64,127,,
73440,control_change,180,0,1,,,,,,,,,0,64,127,,
73440,note_on,0,0,1,,,,,,,,,0,,,59,88
73470,note_on,30,0,1,,,,,,,,,0,,,59,0
73470,note_on,0,0,1,,,,,,,,,0,,,71,88
73470,note_on,30,0,3,,,,,,,,,2,,,35,0
73470,note_on,0,0,3,,,,,,,,,2,,,47,75
73500,note_on,0,0,3,,,,,,,,,2,,,35,75
73500,note_on,0,0,1,,,,,,,,,0,,,59,88
73500,note_on,30,0,3,,,,,,,,,2,,,47,0
73500,note_on,30,0,1,,,,,,,,,0,,,71,0
73530,note_on,0,0,3,,,,,,,,,2,,,47,75
73530,note_on,30,0,3,,,,,,,,,2,,,35,0
73530,note_on,0,0,1,,,,,,,,,0,,,71,88
73530,note_on,30,0,1,,,,,,,,,0,,,59,0
73560,note_on,0,0,3,,,,,,,,,2,,,35,75
73560,note_on,0,0,1,,,,,,,,,0,,,59,88
73560,note_on,30,0,1,,,,,,,,,0,,,71,0
73560,note_on,30,0,3,,,,,,,,,2,,,47,0
73590,note_on,30,0,3,,,,,,,,,2,,,35,0
73590,note_on,0,0,3,,,,,,,,,2,,,47,75
73590,note_on,0,0,1,,,,,,,,,0,,,71,88
73590,note_on,30,0,1,,,,,,,,,0,,,59,0
73620,note_on,0,0,1,,,,,,,,,0,,,59,88
73620,note_on,30,0,1,,,,,,,,,0,,,71,0
73620,note_on,0,0,3,,,,,,,,,2,,,35,75
73620,note_on,30,0,3,,,,,,,,,2,,,47,0
73650,note_on,30,0,1,,,,,,,,,0,,,59,0
73650,note_on,30,0,3,,,,,,,,,2,,,35,0
73650,note_on,0,0,3,,,,,,,,,2,,,47,75
73650,note_on,0,0,1,,,,,,,,,0,,,71,88
73680,note_on,0,0,1,,,,,,,,,0,,,59,88
73680,note_on,0,0,3,,,,,,,,,2,,,35,75
73680,note_on,30,0,3,,,,,,,,,2,,,47,0
73680,note_on,30,0,1,,,,,,,,,0,,,71,0
73710,note_on,0,0,1,,,,,,,,,0,,,71,88
73710,note_on,30,0,3,,,,,,,,,2,,,35,0
73710,note_on,0,0,3,,,,,,,,,2,,,47,75
73710,note_on,30,0,1,,,,,,,,,0,,,59,0
73740,note_on,0,0,1,,,,,,,,,0,,,59,88
73740,note_on,30,0,1,,,,,,,,,0,,,71,0
73740,note_on,0,0,3,,,,,,,,,2,,,35,75
73740,note_on,30,0,3,,,,,,,,,2,,,47,0
73770,note_on,30,0,3,,,,,,,,,2,,,35,0
73770,note_on,0,0,3,,,,,,,,,2,,,47,75
73770,note_on,0,0,1,,,,,,,,,0,,,71,88
73770,note_on,30,0,1,,,,,,,,,0,,,59,0
73800,note_on,0,0,1,,,,,,,,,0,,,59,88
73800,note_on,30,0,1,,,,,,,,,0,,,71,0
73800,note_on,30,0,3,,,,,,,,,2,,,47,0
73800,note_on,0,0,3,,,,,,,,,2,,,35,75
73830,note_on,30,0,3,,,,,,,,,2,,,35,0
73830,note_on,0,0,3,,,,,,,,,2,,,47,75
73830,note_on,30,0,1,,,,,,,,,0,,,59,0
73830,note_on,0,0,1,,,,,,,,,0,,,71,88
73860,note_on,30,0,1,,,,,,,,,0,,,71,0
73860,note_on,30,0,3,,,,,,,,,2,,,47,0
73860,note_on,0,0,3,,,,,,,,,2,,,35,75
73860,note_on,0,0,1,,,,,,,,,0,,,59,88
73890,note_on,0,0,1,,,,,,,,,0,,,71,88
73890,note_on,0,0,3,,,,,,,,,2,,,47,75
73890,note_on,30,0,1,,,,,,,,,0,,,59,0
73890,note_on,30,0,3,,,,,,,,,2,,,35,0
73920,note_on,0,0,3,,,,,,,,,2,,,32,75
73920,note_on,30,0,3,,,,,,,,,2,,,47,0
73920,note_on,30,0,1,,,,,,,,,0,,,71,0
73920,note_on,0,0,1,,,,,,,,,0,,,56,88
73950,note_on,30,0,3,,,,,,,,,2,,,32,0
73950,note_on,0,0,3,,,,,,,,,2,,,44,75
73950,note_on,30,0,1,,,,,,,,,0,,,56,0
73950,note_on,0,0,1,,,,,,,,,0,,,68,88
73980,note_on,0,0,1,,,,,,,,,0,,,56,88
73980,note_on,0,0,3,,,,,,,,,2,,,32,75
73980,note_on,30,0,1,,,,,,,,,0,,,68,0
73980,note_on,30,0,3,,,,,,,,,2,,,44,0
74010,note_on,30,0,1,,,,,,,,,0,,,56,0
74010,note_on,0,0,1,,,,,,,,,0,,,68,88
74010,note_on,30,0,3,,,,,,,,,2,,,32,0
74010,note_on,0,0,3,,,,,,,,,2,,,44,75
74040,note_on,0,0,1,,,,,,,,,0,,,56,88
74040,note_on,30,0,1,,,,,,,,,0,,,68,0
74040,note_on,0,0,3,,,,,,,,,2,,,32,75
74040,note_on,30,0,3,,,,,,,,,2,,,44,0
74070,note_on,0,0,1,,,,,,,,,0,,,68,88
74070,note_on,30,0,1,,,,,,,,,0,,,56,0
74070,note_on,0,0,3,,,,,,,,,2,,,44,75
74070,note_on,30,0,3,,,,,,,,,2,,,32,0
74100,note_on,0,0,1,,,,,,,,,0,,,56,88
74100,note_on,30,0,1,,,,,,,,,0,,,68,0
74100,note_on,0,0,3,,,,,,,,,2,,,32,75
74100,note_on,30,0,3,,,,,,,,,2,,,44,0
74130,note_on,0,0,1,,,,,,,,,0,,,68,88
74130,note_on,0,0,3,,,,,,,,,2,,,44,75
74130,note_on,30,0,1,,,,,,,,,0,,,56,0
74130,note_on,30,0,3,,,,,,,,,2,,,32,0
74160,note_on,0,0,3,,,,,,,,,2,,,32,75
74160,note_on,0,0,1,,,,,,,,,0,,,56,88
74160,note_on,30,0,1,,,,,,,,,0,,,68,0
74160,note_on,30,0,3,,,,,,,,,2,,,44,0
74190,note_on,30,0,3,,,,,,,,,2,,,32,0
74190,note_on,0,0,1,,,,,,,,,0,,,68,88
74190,note_on,30,0,1,,,,,,,,,0,,,56,0
74190,note_on,0,0,3,,,,,,,,,2,,,44,75
74220,note_on,0,0,3,,,,,,,,,2,,,32,75
74220,note_on,30,0,3,,,,,,,,,2,,,44,0
74220,note_on,30,0,1,,,,,,,,,0,,,68,0
74220,note_on,0,0,1,,,,,,,,,0,,,56,88
74250,note_on,30,0,1,,,,,,,,,0,,,56,0
74250,note_on,0,0,1,,,,,,,,,0,,,68,88
74250,note_on,30,0,3,,,,,,,,,2,,,32,0
74250,note_on,0,0,3,,,,,,,,,2,,,44,75
74280,note_on,30,0,1,,,,,,,,,0,,,68,0
74280,note_on,0,0,1,,,,,,,,,0,,,56,88
74280,note_on,30,0,3,,,,,,,,,2,,,44,0
74280,note_on,0,0,3,,,,,,,,,2,,,32,75
74310,note_on,0,0,3,,,,,,,,,2,,,44,75
74310,note_on,30,0,1,,,,,,,,,0,,,56,0
74310,note_on,0,0,1,,,,,,,,,0,,,68,88
74310,note_on,30,0,3,,,,,,,,,2,,,32,0
74340,note_on,0,0,3,,,,,,,,,2,,,32,75
74340,note_on,0,0,1,,,,,,,,,0,,,56,88
74340,control_change,0,0,3,,,,,,,,,2,64,0,,
74340,control_change,0,0,1,,,,,,,,,0,64,0,,
74340,note_on,30,0,1,,,,,,,,,0,,,68,0
74340,note_on,30,0,3,,,,,,,,,2,,,44,0
74370,note_on,30,0,1,,,,,,,,,0,,,56,0
74370,note_on,0,0,3,,,,,,,,,2,,,44,75
74370,note_on,30,0,3,,,,,,,,,2,,,32,0
74370,note_on,0,0,1,,,,,,,,,0,,,68,88
74400,note_on,0,0,3,,,,,,,,,2,,,59,88
74400,note_on,30,0,3,,,,,,,,,2,,,44,0
74400,note_on,0,0,1,,,,,,,,,0,,,83,101
74400,note_on,0,0,1,,,,,,,,,0,,,71,101
74400,note_on,0,0,3,,,,,,,,,2,,,47,88
74400,note_on,30,0,1,,,,,,,,,0,,,68,0
74520,note_on,0,0,3,,,,,,,,,2,,,56,88
74520,note_on,0,0,3,,,,,,,,,2,,,47,0
74520,note_on,0,0,3,,,,,,,,,2,,,44,88
74520,note_on,0,0,1,,,,,,,,,0,,,80,101
74520,note_on,0,0,1,,,,,,,,,0,,,68,101
74520,note_on,120,0,1,,,,,,,,,0,,,83,0
74520,note_on,120,0,3,,,,,,,,,2,,,59,0
74520,note_on,0,0,1,,,,,,,,,0,,,71,0
74580,note_on,60,0,1,,,,,,,,,0,,,80,0
74580,note_on,0,0,1,,,,,,,,,0,,,68,0
74580,note_on,0,0,3,,,,,,,,,2,,,44,0
74580,note_on,60,0,3,,,,,,,,,2,,,56,0
74640,note_on,0,0,3,,,,,,,,,2,,,59,88
74640,note_on,0,0,1,,,,,,,,,0,,,83,101
74640,note_on,60,0,1,,,,,,,,,0,,,71,101
74640,note_on,60,0,3,,,,,,,,,2,,,47,88
74760,note_on,0,0,1,,,,,,,,,0,,,71,0
74760,note_on,120,0,3,,,,,,,,,2,,,59,0
74760,note_on,0,0,3,,,,,,,,,2,,,47,0
74760,note_on,0,0,3,,,,,,,,,2,,,52,88
74760,note_on,0,0,3,,,,,,,,,2,,,64,88
74760,note_on,0,0,1,,,,,,,,,0,,,88,101
74760,note_on,120,0,1,,,,,,,,,0,,,83,0
74760,note_on,0,0,1,,,,,,,,,0,,,76,101
74820,note_on,0,0,1,,,,,,,,,0,,,76,0
74820,note_on,60,0,1,,,,,,,,,0,,,88,0
74820,note_on,60,0,3,,,,,,,,,2,,,64,0
74820,note_on,0,0,3,,,,,,,,,2,,,52,0
74880,note_on,0,0,3,,,,,,,,,2,,,59,88
74880,note_on,60,0,1,,,,,,,,,0,,,71,101
74880,note_on,0,0,1,,,,,,,,,0,,,83,101
74880,note_on,60,0,3,,,,,,,,,2,,,47,88
75000,note_on,0,0,1,,,,,,,,,0,,,80,101
75000,note_on,0,0,1,,,,,,,,,0,,,68,101
75000,note_on,0,0,1,,,,,,,,,0,,,71,0
75000,note_on,120,0,3,,,,,,,,,2,,,59,0
75000,note_on,0,0,3,,,,,,,,,2,,,47,0
75000,note_on,120,0,1,,,,,,,,,0,,,83,0
75000,note_on,0,0,3,,,,,,,,,2,,,56,88
75000,note_on,0,0,3,,,,,,,,,2,,,44,88
75060,note_on,0,0,3,,,,,,,,,2,,,44,0
75060,note_on,60,0,3,,,,,,,,,2,,,56,0
75060,note_on,0,0,1,,,,,,,,,0,,,68,0
75060,note_on,60,0,1,,,,,,,,,0,,,80,0
75120,note_on,0,0,3,,,,,,,,,2,,,52,88
75120,note_on,60,0,3,,,,,,,,,2,,,40,88
75120,note_on,0,0,1,,,,,,,,,0,,,76,101
75120,note_on,60,0,1,,,,,,,,,0,,,64,101
75240,note_on,0,0,1,,,,,,,,,0,,,71,101
75240,note_on,0,0,1,,,,,,,,,0,,,64,0
75240,note_on,0,0,1,,,,,,,,,0,,,59,101
75240,note_on,0,0,3,,,,,,,,,2,,,35,88
75240,note_on,0,0,3,,,,,,,,,2,,,40,0
75240,note_on,120,0,3,,,,,,,,,2,,,52,0
75240,note_on,120,0,1,,,,,,,,,0,,,76,0
75240,note_on,0,0,3,,,,,,,,,2,,,47,88
75300,note_on,0,0,1,,,,,,,,,0,,,59,0
75300,note_on,0,0,3,,,,,,,,,2,,,35,0
75300,note_on,60,0,1,,,,,,,,,0,,,71,0
75300,note_on,60,0,3,,,,,,,,,2,,,47,0
75360,note_on,0,0,3,,,,,,,,,2,,,47,36
75360,note_on,60,0,3,,,,,,,,,2,,,35,36
75360,note_on,60,0,1,,,,,,,,,0,,,56,49
75360,note_on,0,0,1,,,,,,,,,0,,,64,49
75360,note_on,0,0,1,,,,,,,,,0,,,68,49
75840,note_on,0,0,1,,,,,,,,,0,,,57,49
75840,note_on,0,0,1,,,,,,,,,0,,,71,49
75840,note_on,480,0,1,,,,,,,,,0,,,68,0
75840,note_on,0,0,1,,,,,,,,,0,,,64,0
75840,note_on,0,0,1,,,,,,,,,0,,,56,0
75840,note_on,0,0,1,,,,,,,,,0,,,63,49
76320,control_change,0,0,1,,,,,,,,,0,64,127,,
76320,note_on,960,0,3,,,,,,,,,2,,,47,0
76320,note_on,0,0,1,,,,,,,,,0,,,59,101
76320,note_on,0,0,1,,,,,,,,,0,,,57,0
76320,note_on,0,0,1,,,,,,,,,0,,,63,0
76320,note_on,480,0,1,,,,,,,,,0,,,71,0
76320,note_on,0,0,3,,,,,,,,,2,,,35,0
76320,note_on,0,0,3,,,,,,,,,2,,,35,88
76320,control_change,0,0,3,,,,,,,,,2,64,127,,
76350,note_on,0,0,3,,,,,,,,,2,,,47,88
76350,note_on,30,0,3,,,,,,,,,2,,,35,0
76350,note_on,0,0,1,,,,,,,,,0,,,71,101
76350,note_on,30,0,1,,,,,,,,,0,,,59,0
76380,note_on,0,0,3,,,,,,,,,2,,,35,88
76380,note_on,30,0,3,,,,,,,,,2,,,47,0
76380,note_on,0,0,1,,,,,,,,,0,,,59,101
76380,note_on,30,0,1,,,,,,,,,0,,,71,0
76410,note_on,0,0,3,,,,,,,,,2,,,47,88
76410,note_on,30,0,3,,,,,,,,,2,,,35,0
76410,note_on,0,0,1,,,,,,,,,0,,,71,101
76410,note_on,30,0,1,,,,,,,,,0,,,59,0
76440,note_on,0,0,1,,,,,,,,,0,,,56,101
76440,note_on,0,0,3,,,,,,,,,2,,,32,88
76440,note_on,30,0,3,,,,,,,,,2,,,47,0
76440,note_on,30,0,1,,,,,,,,,0,,,71,0
76470,note_on,30,0,1,,,,,,,,,0,,,56,0
76470,note_on,0,0,1,,,,,,,,,0,,,68,101
76470,note_on,0,0,3,,,,,,,,,2,,,44,88
76470,note_on,30,0,3,,,,,,,,,2,,,32,0
76500,note_on,30,0,1,,,,,,,,,0,,,68,0
76500,note_on,0,0,3,,,,,,,,,2,,,32,88
76500,note_on,30,0,3,,,,,,,,,2,,,44,0
76500,note_on,0,0,1,,,,,,,,,0,,,56,101
76530,note_on,30,0,1,,,,,,,,,0,,,56,0
76530,note_on,0,0,1,,,,,,,,,0,,,68,101
76530,note_on,0,0,3,,,,,,,,,2,,,44,88
76530,note_on,30,0,3,,,,,,,,,2,,,32,0
76560,note_on,0,0,3,,,,,,,,,2,,,35,88
76560,note_on,30,0,3,,,,,,,,,2,,,44,0
76560,note_on,30,0,1,,,,,,,,,0,,,68,0
76560,note_on,0,0,1,,,,,,,,,0,,,59,101
76590,note_on,30,0,1,,,,,,,,,0,,,59,0
76590,note_on,0,0,1,,,,,,,,,0,,,71,101
76590,note_on,30,0,3,,,,,,,,,2,,,35,0
76590,note_on,0,0,3,,,,,,,,,2,,,47,88
76620,note_on,0,0,1,,,,,,,,,0,,,59,101
76620,note_on,30,0,1,,,,,,,,,0,,,71,0
76620,note_on,0,0,3,,,,,,,,,2,,,35,88
76620,note_on,30,0,3,,,,,,,,,2,,,47,0
76650,note_on,30,0,1,,,,,,,,,0,,,59,0
76650,note_on,0,0,3,,,,,,,,,2,,,47,88
76650,note_on,30,0,3,,,,,,,,,2,,,35,0
76650,note_on,0,0,1,,,,,,,,,0,,,71,101
76680,note_on,0,0,1,,,,,,,,,0,,,64,101
76680,note_on,30,0,1,,,,,,,,,0,,,71,0
76680,note_on,30,0,3,,,,,,,,,2,,,47,0
76680,note_on,0,0,3,,,,,,,,,2,,,40,88
76710,note_on,0,0,3,,,,,,,,,2,,,52,88
76710,note_on,30,0,3,,,,,,,,,2,,,40,0
76710,note_on,0,0,1,,,,,,,,,0,,,76,101
76710,note_on,30,0,1,,,,,,,,,0,,,64,0
76740,note_on,0,0,3,,,,,,,,,2,,,40,88
76740,note_on,0,0,1,,,,,,,,,0,,,64,101
76740,note_on,30,0,3,,,,,,,,,2,,,52,0
76740,note_on,30,0,1,,,,,,,,,0,,,76,0
76770,note_on,30,0,3,,,,,,,,,2,,,40,0
76770,note_on,0,0,3,,,,,,,,,2,,,52,88
76770,note_on,0,0,1,,,,,,,,,0,,,76,101
76770,note_on,30,0,1,,,,,,,,,0,,,64,0
76800,note_on,30,0,1,,,,,,,,,0,,,76,0
76800,note_on,30,0,3,,,,,,,,,2,,,52,0
76800,note_on,0,0,1,,,,,,,,,0,,,68,101
76800,note_on,0,0,3,,,,,,,,,2,,,44,88
76830,note_on,30,0,3,,,,,,,,,2,,,44,0
76830,note_on,0,0,3,,,,,,,,,2,,,56,88
76830,note_on,0,0,1,,,,,,,,,0,,,80,101
76830,note_on,30,0,1,,,,,,,,,0,,,68,0
76860,note_on,30,0,3,,,,,,,,,2,,,56,0
76860,note_on,0,0,3,,,,,,,,,2,,,44,88
76860,note_on,0,0,1,,,,,,,,,0,,,68,101
76860,note_on,30,0,1,,,,,,,,,0,,,80,0
76890,note_on,30,0,1,,,,,,,,,0,,,68,0
76890,note_on,0,0,1,,,,,,,,,0,,,80,101
76890,note_on,30,0,3,,,,,,,,,2,,,44,0
76890,note_on,0,0,3,,,,,,,,,2,,,56,88
76920,note_on,0,0,1,,,,,,,,,0,,,71,101
76920,note_on,30,0,1,,,,,,,,,0,,,80,0
76920,note_on,30,0,3,,,,,,,,,2,,,56,0
76920,note_on,0,0,3,,,,,,,,,2,,,47,88
76950,note_on,0,0,1,,,,,,,,,0,,,83,101
76950,note_on,30,0,1,,,,,,,,,0,,,71,0
76950,note_on,30,0,3,,,,,,,,,2,,,47,0
76950,note_on,0,0,3,,,,,,,,,2,,,59,88
76980,note_on,0,0,1,,,,,,,,,0,,,71,101
76980,note_on,30,0,1,,,,,,,,,0,,,83,0
76980,note_on,30,0,3,,,,,,,,,2,,,59,0
76980,note_on,0,0,3,,,,,,,,,2,,,47,88
77010,note_on,30,0,1,,,,,,,,,0,,,71,0
77010,note_on,0,0,1,,,,,,,,,0,,,83,101
77010,note_on,0,0,3,,,,,,,,,2,,,59,88
77010,note_on,30,0,3,,,,,,,,,2,,,47,0
77040,note_on,30,0,1,,,,,,,,,0,,,83,0
77040,note_on,0,0,1,,,,,,,,,0,,,76,88
77040,note_on,0,0,3,,,,,,,,,2,,,52,75
77040,note_on,30,0,3,,,,,,,,,2,,,59,0
77070,note_on,0,0,3,,,,,,,,,2,,,64,75
77070,note_on,30,0,3,,,,,,,,,2,,,52,0
77070,note_on,30,0,1,,,,,,,,,0,,,76,0
77070,note_on,0,0,1,,,,,,,,,0,,,88,88
77100,note_on,30,0,3,,,,,,,,,2,,,64,0
77100,note_on,0,0,1,,,,,,,,,0,,,76,88
77100,note_on,30,0,1,,,,,,,,,0,,,88,0
77100,note_on,0,0,3,,,,,,,,,2,,,52,75
77130,note_on,0,0,1,,,,,,,,,0,,,88,88
77130,note_on,30,0,1,,,,,,,,,0,,,76,0
77130,note_on,30,0,3,,,,,,,,,2,,,52,0
77130,note_on,0,0,3,,,,,,,,,2,,,64,75
77160,note_on,0,0,1,,,,,,,,,0,,,71,75
77160,note_on,0,0,3,,,,,,,,,2,,,47,62
77160,note_on,30,0,1,,,,,,,,,0,,,88,0
77160,note_on,30,0,3,,,,,,,,,2,,,64,0
77190,note_on,0,0,1,,,,,,,,,0,,,83,75
77190,note_on,30,0,1,,,,,,,,,0,,,71,0
77190,note_on,30,0,3,,,,,,,,,2,,,47,0
77190,note_on,0,0,3,,,,,,,,,2,,,59,62
77220,note_on,30,0,3,,,,,,,,,2,,,59,0
77220,note_on,0,0,3,,,,,,,,,2,,,47,62
77220,note_on,30,0,1,,,,,,,,,0,,,83,0
77220,note_on,0,0,1,,,,,,,,,0,,,71,75
77250,note_on,30,0,3,,,,,,,,,2,,,47,0
77250,control_change,0,0,3,,,,,,,,,2,64,0,,
77250,note_on,0,0,3,,,,,,,,,2,,,59,62
77250,note_on,30,0,1,,,,,,,,,0,,,71,0
77250,control_change,0,0,1,,,,,,,,,0,64,0,,
77250,note_on,0,0,1,,,,,,,,,0,,,83,75
77280,note_on,0,0,1,,,,,,,,,0,,,64,49
77280,note_on,30,0,1,,,,,,,,,0,,,83,0
77280,note_on,0,0,1,,,,,,,,,0,,,56,49
77280,note_on,30,0,3,,,,,,,,,2,,,59,0
77280,note_on,0,0,1,,,,,,,,,0,,,68,49
77280,note_on,0,0,3,,,,,,,,,2,,,47,36
77280,note_on,0,0,3,,,,,,,,,2,,,35,36
77760,note_on,0,0,1,,,,,,,,,0,,,64,0
77760,note_on,0,0,1,,,,,,,,,0,,,57,49
77760,note_on,0,0,1,,,,,,,,,0,,,71,49
77760,note_on,0,0,1,,,,,,,,,0,,,56,0
77760,note_on,480,0,1,,,,,,,,,0,,,68,0
77760,note_on,0,0,1,,,,,,,,,0,,,63,49
78240,note_on,480,0,1,,,,,,,,,0,,,71,0
78240,note_on,0,0,1,,,,,,,,,0,,,63,0
78240,note_on,0,0,1,,,,,,,,,0,,,57,0
78240,note_on,0,0,1,,,,,,,,,0,,,56,54
78240,control_change,0,0,1,,,,,,,,,0,64,127,,
78240,note_on,0,0,3,,,,,,,,,2,,,47,36
78240,note_on,0,0,3,,,,,,,,,2,,,40,36
78240,control_change,0,0,3,,,,,,,,,2,64,127,,
78240,note_on,0,0,3,,,,,,,,,2,,,35,0
78240,note_on,960,0,3,,,,,,,,,2,,,47,0
78240,note_on,0,0,1,,,,,,,,,0,,,64,62
78264,note_on,24,0,1,,,,,,,,,0,,,64,0
78264,note_on,0,0,1,,,,,,,,,0,,,56,0
78264,note_on,24,0,3,,,,,,,,,2,,,47,0
78264,note_on,0,0,3,,,,,,,,,2,,,40,0
78480,note_on,216,0,1,,,,,,,,,0,,,56,36
78480,note_on,0,0,1,,,,,,,,,0,,,64,36
78480,note_on,0,0,3,,,,,,,,,2,,,47,36
78480,note_on,216,0,3,,,,,,,,,2,,,40,36
78504,note_on,0,0,1,,,,,,,,,0,,,56,0
78504,note_on,0,0,3,,,,,,,,,2,,,40,0
78504,note_on,24,0,3,,,,,,,,,2,,,47,0
78504,note_on,24,0,1,,,,,,,,,0,,,64,0
78720,note_on,0,0,1,,,,,,,,,0,,,56,36
78720,note_on,0,0,1,,,,,,,,,0,,,64,36
78720,note_on,0,0,3,,,,,,,,,2,,,47,36
78720,note_on,0,0,3,,,,,,,,,2,,,40,36
78720,control_change,216,0,3,,,,,,,,,2,64,0,,
78720,control_change,216,0,1,,,,,,,,,0,64,0,,
78732,note_on,12,0,1,,,,,,,,,0,,,64,0
78732,note_on,0,0,1,,,,,,,,,0,,,56,0
78732,note_on,0,0,3,,,,,,,,,2,,,40,0
78732,note_on,12,0,3,,,,,,,,,2,,,47,0
78840,note_on,0,0,3,,,,,,,,,2,,,40,36
78840,control_change,108,0,1,,,,,,,,,0,64,127,,
78840,note_on,0,0,1,,,,,,,,,0,,,56,36
78840,note_on,0,0,1,,,,,,,,,0,,,68,36
78840,control_change,108,0,3,,,,,,,,,2,64,127,,
78840,note_on,0,0,3,,,,,,,,,2,,,47,36
78852,note_on,12,0,1,,,,,,,,,0,,,68,0
78852,note_on,0,0,1,,,,,,,,,0,,,56,0
78852,note_on,12,0,3,,,,,,,,,2,,,47,0
78852,note_on,0,0,3,,,,,,,,,2,,,40,0
78960,note_on,108,0,1,,,,,,,,,0,,,56,36
78960,note_on,0,0,1,,,,,,,,,0,,,66,36
78960,note_on,108,0,3,,,,,,,,,2,,,40,36
78960,note_on,0,0,3,,,,,,,,,2,,,47,36
78972,note_on,0,0,3,,,,,,,,,2,,,40,0
78972,note_on,12,0,3,,,,,,,,,2,,,47,0
78972,note_on,12,0,1,,,,,,,,,0,,,66,0
78972,note_on,0,0,1,,,,,,,,,0,,,56,0
79080,control_change,108,0,3,,,,,,,,,2,64,0,,
79080,note_on,0,0,3,,,,,,,,,2,,,47,36
79080,note_on,0,0,3,,,,,,,,,2,,,40,36
79080,note_on,0,0,1,,,,,,,,,0,,,68,36
79080,note_on,0,0,1,,,,,,,,,0,,,56,36
79080,control_change,108,0,1,,,,,,,,,0,64,0,,
79092,note_on,0,0,3,,,,,,,,,2,,,40,0
79092,note_on,12,0,3,,,,,,,,,2,,,47,0
79092,note_on,0,0,1,,,,,,,,,0,,,56,0
79092,note_on,12,0,1,,,,,,,,,0,,,68,0
79200,note_on,0,0,3,,,,,,,,,2,,,49,36
79200,note_on,0,0,3,,,,,,,,,2,,,40,36
79200,control_change,108,0,3,,,,,,,,,2,64,127,,
79200,control_change,108,0,1,,,,,,,,,0,64,127,,
79200,note_on,0,0,1,,,,,,,,,0,,,57,54
79200,note_on,0,0,1,,,,,,,,,0,,,61,62
79224,note_on,0,0,3,,,,,,,,,2,,,40,0
79224,note_on,24,0,3,,,,,,,,,2,,,49,0
79224,note_on,0,0,1,,,,,,,,,0,,,57,0
79224,note_on,24,0,1,,,,,,,,,0,,,61,0
79440,note_on,0,0,1,,,,,,,,,0,,,61,36
79440,note_on,216,0,1,,,,,,,,,0,,,57,36
79440,note_on,216,0,3,,,,,,,,,2,,,40,36
79440,note_on,0,0,3,,,,,,,,,2,,,49,36
79464,note_on,24,0,1,,,,,,,,,0,,,61,0
79464,note_on,24,0,3,,,,,,,,,2,,,49,0
79464,note_on,0,0,3,,,,,,,,,2,,,40,0
79464,note_on,0,0,1,,,,,,,,,0,,,57,0
79680,control_change,216,0,1,,,,,,,,,0,64,0,,
79680,note_on,0,0,3,,,,,,,,,2,,,40,36
79680,note_on,0,0,1,,,,,,,,,0,,,57,36
79680,note_on,0,0,1,,,,,,,,,0,,,61,36
79680,control_change,216,0,3,,,,,,,,,2,64,0,,
79680,note_on,0,0,3,,,,,,,,,2,,,49,36
79692,note_on,0,0,3,,,,,,,,,2,,,40,0
79692,note_on,12,0,1,,,,,,,,,0,,,61,0
79692,note_on,0,0,1,,,,,,,,,0,,,57,0
79692,note_on,12,0,3,,,,,,,,,2,,,49,0
79800,control_change,108,0,3,,,,,,,,,2,64,127,,
79800,note_on,0,0,3,,,,,,,,,2,,,51,36
79800,note_on,0,0,3,,,,,,,,,2,,,40,36
79800,note_on,0,0,1,,,,,,,,,0,,,57,36
79800,note_on,0,0,1,,,,,,,,,0,,,66,36
79800,note_on,0,0,1,,,,,,,,,0,,,59,36
79800,control_change,108,0,1,,,,,,,,,0,64,127,,
79812,note_on,0,0,1,,,,,,,,,0,,,57,0
79812,note_on,12,0,1,,,,,,,,,0,,,66,0
79812,note_on,0,0,1,,,,,,,,,0,,,59,0
79812,note_on,12,0,3,,,,,,,,,2,,,51,0
79812,note_on,0,0,3,,,,,,,,,2,,,40,0
79920,note_on,0,0,3,,,,,,,,,2,,,49,36
79920,note_on,108,0,1,,,,,,,,,0,,,57,36
79920,note_on,0,0,1,,,,,,,,,0,,,59,36
79920,note_on,0,0,1,,,,,,,,,0,,,64,36
79920,note_on,108,0,3,,,,,,,,,2,,,40,36
79932,note_on,0,0,1,,,,,,,,,0,,,59,0
79932,note_on,12,0,3,,,,,,,,,2,,,49,0
79932,note_on,0,0,3,,,,,,,,,2,,,40,0
79932,note_on,0,0,1,,,,,,,,,0,,,57,0
79932,note_on,12,0,1,,,,,,,,,0,,,64,0
80040,note_on,0,0,1,,,,,,,,,0,,,57,36
80040,note_on,0,0,1,,,,,,,,,0,,,59,36
80040,note_on,0,0,3,,,,,,,,,2,,,51,36
80040,note_on,0,0,1,,,,,,,,,0,,,66,36
80040,note_on,0,0,3,,,,,,,,,2,,,40,36
80040,control_change,108,0,3,,,,,,,,,2,64,0,,
80040,control_change,108,0,1,,,,,,,,,0,64,0,,
80052,note_on,0,0,3,,,,,,,,,2,,,40,0
80052,note_on,0,0,1,,,,,,,,,0,,,57,0
80052,note_on,0,0,1,,,,,,,,,0,,,59,0
80052,note_on,12,0,1,,,,,,,,,0,,,66,0
80052,note_on,12,0,3,,,,,,,,,2,,,51,0
80160,control_change,108,0,1,,,,,,,,,0,64,127,,
80160,note_on,0,0,1,,,,,,,,,0,,,56,54
80160,note_on,0,0,1,,,,,,,,,0,,,59,62
80160,note_on,0,0,3,,,,,,,,,2,,,40,36
80160,control_change,108,0,3,,,,,,,,,2,64,127,,
80160,note_on,0,0,3,,,,,,,,,2,,,52,36
80184,note_on,0,0,1,,,,,,,,,0,,,56,0
80184,note_on,24,0,3,,,,,,,,,2,,,52,0
80184,note_on,0,0,3,,,,,,,,,2,,,40,0
80184,note_on,24,0,1,,,,,,,,,0,,,59,0
80400,note_on,216,0,3,,,,,,,,,2,,,40,36
80400,note_on,0,0,3,,,,,,,,,2,,,47,36
80400,note_on,0,0,1,,,,,,,,,0,,,64,36
80400,note_on,216,0,1,,,,,,,,,0,,,56,36
80400,note_on,0,0,1,,,,,,,,,0,,,59,36
80424,note_on,0,0,1,,,,,,,,,0,,,59,0
80424,note_on,0,0,3,,,,,,,,,2,,,40,0
80424,note_on,24,0,1,,,,,,,,,0,,,64,0
80424,note_on,24,0,3,,,,,,,,,2,,,47,0
80424,note_on,0,0,1,,,,,,,,,0,,,56,0
80640,note_on,0,0,3,,,,,,,,,2,,,40,36
80640,note_on,0,0,3,,,,,,,,,2,,,47,36
80640,control_change,216,0,3,,,,,,,,,2,64,0,,
80640,control_change,216,0,1,,,,,,,,,0,64,0,,
80640,control_change,0,0,1,,,,,,,,,0,64,0,,
80640,note_on,0,0,1,,,,,,,,,0,,,56,36
80640,note_on,0,0,1,,,,,,,,,0,,,64,36
80652,note_on,0,0,3,,,,,,,,,2,,,40,0
80652,note_on,12,0,1,,,,,,,,,0,,,64,0
80652,note_on,0,0,1,,,,,,,,,0,,,56,0
80652,note_on,12,0,3,,,,,,,,,2,,,47,0
80760,note_on,0,0,1,,,,,,,,,0,,,56,36
80760,control_change,108,0,3,,,,,,,,,2,64,127,,
80760,note_on,0,0,3,,,,,,,,,2,,,47,36
80760,control_change,108,0,1,,,,,,,,,0,64,127,,
80760,note_on,0,0,3,,,,,,,,,2,,,40,36
80760,note_on,0,0,1,,,,,,,,,0,,,68,36
80772,note_on,12,0,3,,,,,,,,,2,,,47,0
80772,note_on,0,0,3,,,,,,,,,2,,,40,0
80772,note_on,12,0,1,,,,,,,,,0,,,68,0
80772,note_on,0,0,1,,,,,,,,,0,,,56,0
80880,note_on,0,0,1,,,,,,,,,0,,,66,49
80880,note_on,108,0,3,,,,,,,,,2,,,40,36
80880,note_on,0,0,3,,,,,,,,,2,,,47,36
80880,note_on,108,0,1,,,,,,,,,0,,,56,49
80892,note_on,12,0,1,,,,,,,,,0,,,66,0
80892,note_on,0,0,1,,,,,,,,,0,,,56,0
80892,note_on,12,0,3,,,,,,,,,2,,,47,0
80892,note_on,0,0,3,,,,,,,,,2,,,40,0
81000,note_on,0,0,3,,,,,,,,,2,,,47,36
81000,note_on,0,0,1,,,,,,,,,0,,,56,49
81000,control_change,108,0,1,,,,,,,,,0,64,0,,
81000,control_change,108,0,3,,,,,,,,,2,64,0,,
81000,note_on,0,0,3,,,,,,,,,2,,,40,36
81000,note_on,0,0,1,,,,,,,,,0,,,68,49
81012,note_on,0,0,3,,,,,,,,,2,,,40,0
81012,note_on,12,0,3,,,,,,,,,2,,,47,0
81012,note_on,12,0,1,,,,,,,,,0,,,68,0
81012,note_on,0,0,1,,,,,,,,,0,,,56,0
81120,note_on,0,0,1,,,,,,,,,0,,,64,70
81120,note_on,0,0,3,,,,,,,,,2,,,49,36
81120,note_on,0,0,3,,,,,,,,,2,,,40,36
81120,note_on,0,0,1,,,,,,,,,0,,,57,65
81120,control_change,108,0,3,,,,,,,,,2,64,127,,
81120,control_change,108,0,1,,,,,,,,,0,64,127,,
81120,note_on,0,0,1,,,,,,,,,0,,,69,75
81144,note_on,24,0,1,,,,,,,,,0,,,69,0
81144,note_on,24,0,3,,,,,,,,,2,,,49,0
81144,note_on,0,0,3,,,,,,,,,2,,,40,0
81144,note_on,0,0,1,,,,,,,,,0,,,57,0
81144,note_on,0,0,1,,,,,,,,,0,,,64,0
81360,note_on,0,0,3,,,,,,,,,2,,,49,36
81360,note_on,0,0,3,,,,,,,,,2,,,40,36
81360,control_change,216,0,3,,,,,,,,,2,64,0,,
81360,note_on,0,0,1,,,,,,,,,0,,,69,49
81360,note_on,0,0,1,,,,,,,,,0,,,57,49
81360,note_on,0,0,1,,,,,,,,,0,,,64,49
81360,control_change,216,0,1,,,,,,,,,0,64,0,,
81384,note_on,0,0,1,,,,,,,,,0,,,57,0
81384,note_on,0,0,1,,,,,,,,,0,,,64,0
81384,note_on,24,0,1,,,,,,,,,0,,,69,0
81384,note_on,24,0,3,,,,,,,,,2,,,49,0
81384,note_on,0,0,3,,,,,,,,,2,,,40,0
81600,note_on,33240,0,4,,,,,,,,,3,,,40,36
81600,control_change,216,0,1,,,,,,,,,0,64,127,,
81600,note_on,0,0,1,,,,,,,,,0,,,61,52
81600,note_on,0,0,1,,,,,,,,,0,,,69,57
81600,note_on,0,0,3,,,,,,,,,2,,,49,49
81600,control_change,216,0,3,,,,,,,,,2,64,127,,
81600,note_on,0,0,1,,,,,,,,,0,,,73,62
81624,note_on,24,0,1,,,,,,,,,0,,,73,0
81624,note_on,0,0,1,,,,,,,,,0,,,69,0
81624,note_on,0,0,1,,,,,,,,,0,,,61,0
81720,note_on,0,0,3,,,,,,,,,2,,,52,49
81720,note_on,120,0,3,,,,,,,,,2,,,49,0
81840,note_on,0,0,3,,,,,,,,,2,,,57,49
81840,note_on,120,0,3,,,,,,,,,2,,,52,0
81840,note_on,0,0,1,,,,,,,,,0,,,73,49
81840,control_change,216,0,1,,,,,,,,,0,64,0,,
81840,note_on,0,0,1,,,,,,,,,0,,,61,49
81840,note_on,0,0,1,,,,,,,,,0,,,69,49
81864,note_on,0,0,1,,,,,,,,,0,,,61,0
81864,note_on,24,0,1,,,,,,,,,0,,,73,0
81864,note_on,0,0,1,,,,,,,,,0,,,69,0
81960,control_change,0,0,3,,,,,,,,,2,64,0,,
81960,note_on,0,0,3,,,,,,,,,2,,,61,49
81960,note_on,120,0,3,,,,,,,,,2,,,57,0
82080,control_change,216,0,1,,,,,,,,,0,64,127,,
82080,note_on,120,0,3,,,,,,,,,2,,,61,0
82080,note_on,0,0,1,,,,,,,,,0,,,68,70
82080,note_on,0,0,1,,,,,,,,,0,,,76,75
82080,note_on,0,0,3,,,,,,,,,2,,,52,36
82080,control_change,0,0,3,,,,,,,,,2,64,127,,
82080,note_on,480,0,4,,,,,,,,,3,,,40,0
82080,note_on,0,0,3,,,,,,,,,2,,,59,36
82080,note_on,0,0,1,,,,,,,,,0,,,64,65
82104,note_on,24,0,1,,,,,,,,,0,,,76,0
82104,note_on,0,0,1,,,,,,,,,0,,,64,0
82104,note_on,0,0,1,,,,,,,,,0,,,68,0
82104,note_on,24,0,3,,,,,,,,,2,,,59,0
82104,note_on,0,0,3,,,,,,,,,2,,,52,0
82320,note_on,0,0,1,,,,,,,,,0,,,68,36
82320,note_on,0,0,1,,,,,,,,,0,,,64,36
82320,control_change,216,0,1,,,,,,,,,0,64,0,,
82320,note_on,0,0,1,,,,,,,,,0,,,76,36
82320,control_change,216,0,3,,,,,,,,,2,64,0,,
82320,note_on,0,0,3,,,,,,,,,2,,,52,36
82320,note_on,0,0,3,,,,,,,,,2,,,59,36
82344,note_on,0,0,3,,,,,,,,,2,,,52,0
82344,note_on,24,0,3,,,,,,,,,2,,,59,0
82344,note_on,0,0,1,,,,,,,,,0,,,68,0
82344,note_on,24,0,1,,,,,,,,,0,,,76,0
82344,note_on,0,0,1,,,,,,,,,0,,,64,0
82560,note_on,0,0,1,,,,,,,,,0,,,78,36
82560,note_on,0,0,1,,,,,,,,,0,,,63,36
82560,control_change,216,0,1,,,,,,,,,0,64,127,,
82560,control_change,216,0,3,,,,,,,,,2,64,127,,
82560,note_on,0,0,3,,,,,,,,,2,,,52,36
82560,note_on,0,0,3,,,,,,,,,2,,,59,36
82560,note_on,0,0,1,,,,,,,,,0,,,71,36
82572,note_on,12,0,1,,,,,,,,,0,,,78,0
82572,note_on,0,0,1,,,,,,,,,0,,,63,0
82572,note_on,0,0,1,,,,,,,,,0,,,71,0
82572,note_on,0,0,3,,,,,,,,,2,,,52,0
82572,note_on,12,0,3,,,,,,,,,2,,,59,0
82680,note_on,108,0,3,,,,,,,,,2,,,52,36
82680,note_on,0,0,1,,,,,,,,,0,,,69,36
82680,note_on,0,0,1,,,,,,,,,0,,,75,36
82680,note_on,108,0,1,,,,,,,,,0,,,66,36
82680,note_on,0,0,3,,,,,,,,,2,,,59,36
82692,note_on,12,0,1,,,,,,,,,0,,,75,0
82692,note_on,0,0,1,,,,,,,,,0,,,69,0
82692,note_on,0,0,1,,,,,,,,,0,,,66,0
82692,note_on,12,0,3,,,,,,,,,2,,,59,0
82692,note_on,0,0,3,,,,,,,,,2,,,52,0
82800,note_on,108,0,1,,,,,,,,,0,,,66,36
82800,note_on,0,0,3,,,,,,,,,2,,,63,36
82800,note_on,108,0,3,,,,,,,,,2,,,52,36
82800,note_on,0,0,1,,,,,,,,,0,,,71,36
82812,note_on,0,0,3,,,,,,,,,2,,,52,0
82812,note_on,12,0,3,,,,,,,,,2,,,63,0
82812,note_on,12,0,1,,,,,,,,,0,,,71,0
82812,note_on,0,0,1,,,,,,,,,0,,,66,0
82920,note_on,0,0,1,,,,,,,,,0,,,69,36
82920,note_on,0,0,1,,,,,,,,,0,,,64,36
82920,control_change,108,0,1,,,,,,,,,0,64,0,,
82920,note_on,0,0,3,,,,,,,,,2,,,52,36
82920,control_change,108,0,3,,,,,,,,,2,64,0,,
82920,note_on,0,0,3,,,,,,,,,2,,,61,36
82932,note_on,0,0,3,,,,,,,,,2,,,52,0
82932,note_on,12,0,1,,,,,,,,,0,,,69,0
82932,note_on,0,0,1,,,,,,,,,0,,,64,0
82932,note_on,12,0,3,,,,,,,,,2,,,61,0
83040,control_change,108,0,1,,,,,,,,,0,64,127,,
83040,note_on,0,0,1,,,,,,,,,0,,,68,62
83040,note_on,0,0,1,,,,,,,,,0,,,64,54
83040,control_change,108,0,3,,,,,,,,,2,64,127,,
83040,note_on,0,0,3,,,,,,,,,2,,,52,36
83040,note_on,0,0,3,,,,,,,,,2,,,59,36
83064,note_on,0,0,1,,,,,,,,,0,,,64,0
83064,note_on,24,0,3,,,,,,,,,2,,,59,0
83064,note_on,0,0,3,,,,,,,,,2,,,52,0
83064,note_on,24,0,1,,,,,,,,,0,,,68,0
83280,note_on,0,0,1,,,,,,,,,0,,,64,36
83280,control_change,216,0,1,,,,,,,,,0,64,0,,
83280,control_change,216,0,3,,,,,,,,,2,64,0,,
83280,note_on,0,0,3,,,,,,,,,2,,,52,36
83280,note_on,0,0,3,,,,,,,,,2,,,59,36
83280,note_on,0,0,1,,,,,,,,,0,,,68,36
83304,note_on,0,0,3,,,,,,,,,2,,,52,0
83304,note_on,0,0,1,,,,,,,,,0,,,64,0
83304,note_on,24,0,1,,,,,,,,,0,,,68,0
83304,note_on,24,0,3,,,,,,,,,2,,,59,0
83520,control_change,216,0,3,,,,,,,,,2,64,127,,
83520,note_on,0,0,3,,,,,,,,,2,,,52,36
83520,note_on,0,0,3,,,,,,,,,2,,,59,36
83520,note_on,0,0,1,,,,,,,,,0,,,78,36
83520,note_on,0,0,1,,,,,,,,,0,,,71,36
83520,note_on,0,0,1,,,,,,,,,0,,,63,36
83520,control_change,216,0,1,,,,,,,,,0,64,127,,
83532,note_on,0,0,1,,,,,,,,,0,,,71,0
83532,note_on,12,0,1,,,,,,,,,0,,,78,0
83532,note_on,0,0,1,,,,,,,,,0,,,63,0
83532,note_on,12,0,3,,,,,,,,,2,,,59,0
83532,note_on,0,0,3,,,,,,,,,2,,,52,0
83640,note_on,108,0,3,,,,,,,,,2,,,52,36
83640,note_on,0,0,3,,,,,,,,,2,,,59,36
83640,note_on,108,0,1,,,,,,,,,0,,,66,36
83640,note_on,0,0,1,,,,,,,,,0,,,69,36
83640,note_on,0,0,1,,,,,,,,,0,,,75,36
83652,note_on,0,0,3,,,,,,,,,2,,,52,0
83652,note_on,12,0,3,,,,,,,,,2,,,59,0
83652,note_on,12,0,1,,,,,,,,,0,,,75,0
83652,note_on,0,0,1,,,,,,,,,0,,,69,0
83652,note_on,0,0,1,,,,,,,,,0,,,66,0
83760,note_on,108,0,1,,,,,,,,,0,,,66,36
83760,note_on,0,0,3,,,,,,,,,2,,,63,36
83760,note_on,0,0,1,,,,,,,,,0,,,71,36
83760,note_on,108,0,3,,,,,,,,,2,,,52,36
83772,note_on,0,0,3,,,,,,,,,2,,,52,0
83772,note_on,12,0,3,,,,,,,,,2,,,63,0
83772,note_on,0,0,1,,,,,,,,,0,,,66,0
83772,note_on,12,0,1,,,,,,,,,0,,,71,0
83880,control_change,108,0,1,,,,,,,,,0,64,0,,
83880,note_on,0,0,3,,,,,,,,,2,,,61,36
83880,note_on,0,0,3,,,,,,,,,2,,,52,36
83880,control_change,108,0,3,,,,,,,,,2,64,0,,
83880,note_on,0,0,1,,,,,,,,,0,,,64,36
83880,note_on,0,0,1,,,,,,,,,0,,,69,36
83892,note_on,0,0,3,,,,,,,,,2,,,52,0
83892,note_on,0,0,1,,,,,,,,,0,,,64,0
83892,note_on,12,0,1,,,,,,,,,0,,,69,0
83892,note_on,12,0,3,,,,,,,,,2,,,61,0
84000,note_on,0,0,1,,,,,,,,,0,,,68,62
84000,note_on,0,0,1,,,,,,,,,0,,,64,54
84000,control_change,108,0,1,,,,,,,,,0,64,127,,
84000,control_change,108,0,3,,,,,,,,,2,64,127,,
84000,note_on,0,0,3,,,,,,,,,2,,,52,36
84000,note_on,0,0,3,,,,,,,,,2,,,59,36
84024,note_on,0,0,1,,,,,,,,,0,,,64,0
84024,note_on,24,0,1,,,,,,,,,0,,,68,0
84024,note_on,24,0,3,,,,,,,,,2,,,59,0
84024,note_on,0,0,3,,,,,,,,,2,,,52,0
84240,note_on,216,0,3,,,,,,,,,2,,,52,36
84240,note_on,0,0,3,,,,,,,,,2,,,59,36
84240,note_on,216,0,1,,,,,,,,,0,,,64,36
84240,note_on,0,0,1,,,,,,,,,0,,,68,36
84264,note_on,24,0,3,,,,,,,,,2,,,59,0
84264,note_on,0,0,1,,,,,,,,,0,,,64,0
84264,note_on,24,0,1,,,,,,,,,0,,,68,0
84264,note_on,0,0,3,,,,,,,,,2,,,52,0
84480,note_on,0,0,3,,,,,,,,,2,,,56,36
84480,note_on,0,0,3,,,,,,,,,2,,,52,36
84480,note_on,0,0,1,,,,,,,,,0,,,64,36
84480,control_change,216,0,1,,,,,,,,,0,64,0,,
84480,control_change,216,0,3,,,,,,,,,2,64,0,,
84492,note_on,0,0,3,,,,,,,,,2,,,52,0
84492,note_on,12,0,1,,,,,,,,,0,,,64,0
84492,note_on,12,0,3,,,,,,,,,2,,,56,0
84600,note_on,0,0,3,,,,,,,,,2,,,52,54
84600,control_change,108,0,3,,,,,,,,,2,64,127,,
84600,note_on,0,0,3,,,,,,,,,2,,,59,62
84600,note_on,0,0,1,,,,,,,,,0,,,68,62
84600,note_on,0,0,1,,,,,,,,,0,,,64,54
84600,control_change,108,0,1,,,,,,,,,0,64,127,,
84612,note_on,0,0,3,,,,,,,,,2,,,52,0
84612,note_on,0,0,1,,,,,,,,,0,,,64,0
84612,note_on,12,0,1,,,,,,,,,0,,,68,0
84612,note_on,12,0,3,,,,,,,,,2,,,59,0
84720,note_on,108,0,3,,,,,,,,,2,,,52,54
84720,note_on,0,0,3,,,,,,,,,2,,,57,62
84720,note_on,0,0,1,,,,,,,,,0,,,66,62
84720,note_on,108,0,1,,,,,,,,,0,,,64,54
84732,note_on,12,0,1,,,,,,,,,0,,,66,0
84732,note_on,0,0,1,,,,,,,,,0,,,64,0
84732,note_on,12,0,3,,,,,,,,,2,,,57,0
84732,note_on,0,0,3,,,,,,,,,2,,,52,0
84840,note_on,0,0,1,,,,,,,,,0,,,68,36
84840,note_on,0,0,1,,,,,,,,,0,,,64,36
84840,control_change,108,0,1,,,,,,,,,0,64,0,,
84840,note_on,0,0,3,,,,,,,,,2,,,59,36
84840,note_on,0,0,3,,,,,,,,,2,,,52,36
84840,control_change,108,0,3,,,,,,,,,2,64,0,,
84852,note_on,0,0,3,,,,,,,,,2,,,52,0
84852,note_on,12,0,1,,,,,,,,,0,,,68,0
84852,note_on,0,0,1,,,,,,,,,0,,,64,0
84852,note_on,12,0,3,,,,,,,,,2,,,59,0
84960,control_change,108,0,3,,,,,,,,,2,64,127,,
84960,note_on,0,0,3,,,,,,,,,2,,,52,54
84960,note_on,0,0,3,,,,,,,,,2,,,61,62
84960,control_change,108,0,1,,,,,,,,,0,64,127,,
84960,note_on,0,0,1,,,,,,,,,0,,,64,54
84960,note_on,0,0,1,,,,,,,,,0,,,71,62
84984,note_on,24,0,3,,,,,,,,,2,,,61,0
84984,note_on,0,0,3,,,,,,,,,2,,,52,0
84984,note_on,24,0,1,,,,,,,,,0,,,71,0
84984,note_on,0,0,1,,,,,,,,,0,,,64,0
85200,note_on,0,0,3,,,,,,,,,2,,,61,36
85200,control_change,216,0,3,,,,,,,,,2,64,0,,
85200,note_on,0,0,1,,,,,,,,,0,,,70,36
85200,note_on,0,0,1,,,,,,,,,0,,,64,36
85200,control_change,216,0,1,,,,,,,,,0,64,0,,
85200,note_on,0,0,3,,,,,,,,,2,,,52,36
85212,note_on,12,0,1,,,,,,,,,0,,,70,0
85212,note_on,0,0,1,,,,,,,,,0,,,64,0
85212,note_on,0,0,3,,,,,,,,,2,,,52,0
85212,note_on,12,0,3,,,,,,,,,2,,,61,0
85440,control_change,228,0,3,,,,,,,,,2,64,127,,
85440,note_on,0,0,3,,,,,,,,,2,,,64,36
85440,note_on,0,0,3,,,,,,,,,2,,,72,36
85440,note_on,0,0,1,,,,,,,,,0,,,88,62
85440,note_on,0,0,1,,,,,,,,,0,,,83,57
85440,note_on,0,0,1,,,,,,,,,0,,,76,52
85440,control_change,228,0,1,,,,,,,,,0,64,127,,
85464,note_on,0,0,3,,,,,,,,,2,,,64,0
85464,note_on,24,0,3,,,,,,,,,2,,,72,0
85464,note_on,24,0,1,,,,,,,,,0,,,88,0
85464,note_on,0,0,1,,,,,,,,,0,,,83,0
85464,note_on,0,0,1,,,,,,,,,0,,,76,0
85680,note_on,0,0,3,,,,,,,,,2,,,64,36
85680,control_change,216,0,3,,,,,,,,,2,64,0,,
85680,note_on,0,0,1,,,,,,,,,0,,,88,36
85680,note_on,0,0,1,,,,,,,,,0,,,81,36
85680,control_change,216,0,1,,,,,,,,,0,64,0,,
85680,note_on,0,0,1,,,,,,,,,0,,,76,36
85680,note_on,0,0,3,,,,,,,,,2,,,72,36
85692,note_on,0,0,3,,,,,,,,,2,,,64,0
85692,note_on,12,0,3,,,,,,,,,2,,,72,0
85692,note_on,12,0,1,,,,,,,,,0,,,88,0
85692,note_on,0,0,1,,,,,,,,,0,,,81,0
85692,note_on,0,0,1,,,,,,,,,0,,,76,0
85920,note_on,0,0,3,,,,,,,,,2,,,52,36
85920,control_change,228,0,3,,,,,,,,,2,64,127,,
85920,note_on,0,0,3,,,,,,,,,2,,,59,36
85920,control_change,228,0,1,,,,,,,,,0,64,127,,
85920,note_on,0,0,1,,,,,,,,,0,,,69,62
85920,note_on,0,0,1,,,,,,,,,0,,,64,54
85944,note_on,0,0,1,,,,,,,,,0,,,64,0
85944,note_on,24,0,3,,,,,,,,,2,,,59,0
85944,note_on,0,0,3,,,,,,,,,2,,,52,0
85944,note_on,24,0,1,,,,,,,,,0,,,69,0
86160,control_change,216,0,1,,,,,,,,,0,64,0,,
86160,note_on,0,0,1,,,,,,,,,0,,,64,36
86160,control_change,216,0,3,,,,,,,,,2,64,0,,
86160,note_on,0,0,3,,,,,,,,,2,,,52,36
86160,note_on,0,0,3,,,,,,,,,2,,,59,36
86160,note_on,0,0,1,,,,,,,,,0,,,68,36
86172,note_on,0,0,3,,,,,,,,,2,,,52,0
86172,note_on,0,0,1,,,,,,,,,0,,,64,0
86172,note_on,12,0,1,,,,,,,,,0,,,68,0
86172,note_on,12,0,3,,,,,,,,,2,,,59,0
86400,note_on,0,0,1,,,,,,,,,0,,,81,57
86400,note_on,0,0,1,,,,,,,,,0,,,76,52
86400,control_change,228,0,1,,,,,,,,,0,64,127,,
86400,control_change,228,0,3,,,,,,,,,2,64,127,,
86400,note_on,0,0,3,,,,,,,,,2,,,71,36
86400,note_on,0,0,1,,,,,,,,,0,,,88,62
86400,note_on,0,0,3,,,,,,,,,2,,,64,36
86424,note_on,0,0,3,,,,,,,,,2,,,64,0
86424,note_on,24,0,3,,,,,,,,,2,,,71,0
86424,note_on,24,0,1,,,,,,,,,0,,,88,0
86424,note_on,0,0,1,,,,,,,,,0,,,81,0
86424,note_on,0,0,1,,,,,,,,,0,,,76,0
86640,note_on,0,0,1,,,,,,,,,0,,,76,36
86640,control_change,216,0,1,,,,,,,,,0,64,0,,
86640,control_change,216,0,3,,,,,,,,,2,64,0,,
86640,note_on,0,0,3,,,,,,,,,2,,,64,36
86640,note_on,0,0,3,,,,,,,,,2,,,71,36
86640,note_on,0,0,1,,,,,,,,,0,,,88,36
86640,note_on,0,0,1,,,,,,,,,0,,,79,36
86652,note_on,12,0,3,,,,,,,,,2,,,71,0
86652,note_on,0,0,3,,,,,,,,,2,,,64,0
86652,note_on,0,0,1,,,,,,,,,0,,,76,0
86652,note_on,12,0,1,,,,,,,,,0,,,88,0
86652,note_on,0,0,1,,,,,,,,,0,,,79,0
86880,note_on,228,0,3,,,,,,,,,2,,,33,88
86880,note_on,228,0,1,,,,,,,,,0,,,54,101
86880,note_on,0,0,1,,,,,,,,,0,,,60,101
86880,note_on,0,0,1,,,,,,,,,0,,,64,101
86880,note_on,0,0,1,,,,,,,,,0,,,66,101
86880,note_on,0,0,3,,,,,,,,,2,,,45,88
87120,note_on,0,0,3,,,,,,,,,2,,,45,88
87120,note_on,0,0,3,,,,,,,,,2,,,33,88
87120,note_on,0,0,3,,,,,,,,,2,,,33,0
87120,note_on,240,0,3,,,,,,,,,2,,,45,0
87120,note_on,0,0,1,,,,,,,,,0,,,66,101
87120,note_on,0,0,1,,,,,,,,,0,,,64,101
87120,note_on,0,0,1,,,,,,,,,0,,,60,101
87120,note_on,0,0,1,,,,,,,,,0,,,54,101
87120,note_on,0,0,1,,,,,,,,,0,,,64,0
87120,note_on,0,0,1,,,,,,,,,0,,,60,0
87120,note_on,0,0,1,,,,,,,,,0,,,54,0
87120,note_on,240,0,1,,,,,,,,,0,,,66,0
87240,note_on,120,0,1,,,,,,,,,0,,,66,0
87240,note_on,0,0,1,,,,,,,,,0,,,54,0
87240,note_on,0,0,1,,,,,,,,,0,,,60,0
87240,note_on,0,0,1,,,,,,,,,0,,,64,0
87240,note_on,120,0,3,,,,,,,,,2,,,45,0
87240,note_on,0,0,3,,,,,,,,,2,,,33,0
87360,control_change,120,0,3,,,,,,,,,2,64,127,,
87360,note_on,0,0,3,,,,,,,,,2,,,57,36
87360,control_change,120,0,1,,,,,,,,,0,64,127,,
87360,note_on,0,0,3,,,,,,,,,2,,,66,36
87360,note_on,0,0,1,,,,,,,,,0,,,78,49
87360,note_on,0,0,1,,,,,,,,,0,,,76,49
87360,note_on,0,0,1,,,,,,,,,0,,,73,49
87360,note_on,0,0,3,,,,,,,,,2,,,64,36
87480,note_on,120,0,3,,,,,,,,,2,,,66,0
87480,note_on,0,0,3,,,,,,,,,2,,,64,0
87480,note_on,0,0,3,,,,,,,,,2,,,68,62
87480,note_on,0,0,3,,,,,,,,,2,,,64,57
87480,note_on,0,0,3,,,,,,,,,2,,,59,52
87480,note_on,0,0,3,,,,,,,,,2,,,57,0
87480,note_on,0,0,1,,,,,,,,,0,,,73,0
87480,note_on,0,0,1,,,,,,,,,0,,,80,75
87480,note_on,0,0,1,,,,,,,,,0,,,76,70
87480,note_on,0,0,1,,,,,,,,,0,,,71,65
87480,note_on,0,0,1,,,,,,,,,0,,,76,0
87480,note_on,120,0,1,,,,,,,,,0,,,78,0
87600,note_on,0,0,3,,,,,,,,,2,,,64,0
87600,note_on,0,0,3,,,,,,,,,2,,,59,0
87600,note_on,0,0,3,,,,,,,,,2,,,61,54
87600,note_on,0,0,3,,,,,,,,,2,,,64,62
87600,note_on,0,0,1,,,,,,,,,0,,,71,0
87600,note_on,120,0,1,,,,,,,,,0,,,80,0
87600,note_on,0,0,1,,,,,,,,,0,,,81,75
87600,note_on,0,0,1,,,,,,,,,0,,,76,70
87600,note_on,0,0,1,,,,,,,,,0,,,69,65
87600,note_on,120,0,3,,,,,,,,,2,,,68,0
87600,note_on,0,0,1,,,,,,,,,0,,,76,0
87720,note_on,0,0,3,,,,,,,,,2,,,59,36
87720,control_change,0,0,3,,,,,,,,,2,64,0,,
87720,note_on,0,0,3,,,,,,,,,2,,,61,0
87720,note_on,120,0,3,,,,,,,,,2,,,64,0
87720,note_on,0,0,3,,,,,,,,,2,,,64,36
87720,note_on,0,0,3,,,,,,,,,2,,,68,36
87720,note_on,0,0,1,,,,,,,,,0,,,80,49
87720,note_on,0,0,1,,,,,,,,,0,,,69,0
87720,note_on,0,0,1,,,,,,,,,0,,,71,49
87720,note_on,0,0,1,,,,,,,,,0,,,76,0
87720,note_on,120,0,1,,,,,,,,,0,,,81,0
87720,note_on,0,0,1,,,,,,,,,0,,,76,49
87720,control_change,0,0,1,,,,,,,,,0,64,0,,
87840,note_on,120,0,3,,,,,,,,,2,,,68,0
87840,note_on,0,0,3,,,,,,,,,2,,,64,0
87840,note_on,0,0,3,,,,,,,,,2,,,59,0
87840,note_on,0,0,3,,,,,,,,,2,,,66,36
87840,control_change,0,0,1,,,,,,,,,0,64,127,,
87840,note_on,0,0,1,,,,,,,,,0,,,83,75
87840,note_on,0,0,1,,,,,,,,,0,,,76,70
87840,note_on,0,0,1,,,,,,,,,0,,,71,65
87840,note_on,0,0,1,,,,,,,,,0,,,71,0
87840,note_on,0,0,1,,,,,,,,,0,,,76,0
87840,note_on,120,0,1,,,,,,,,,0,,,80,0
87840,control_change,0,0,3,,,,,,,,,2,64,127,,
87840,note_on,0,0,3,,,,,,,,,2,,,69,36
87840,note_on,0,0,3,,,,,,,,,2,,,59,36
87864,note_on,24,0,1,,,,,,,,,0,,,83,0
87864,note_on,0,0,3,,,,,,,,,2,,,66,0
87864,note_on,0,0,3,,,,,,,,,2,,,59,0
87864,note_on,0,0,1,,,,,,,,,0,,,71,0
87864,note_on,0,0,1,,,,,,,,,0,,,76,0
87864,note_on,24,0,3,,,,,,,,,2,,,69,0
88080,control_change,216,0,3,,,,,,,,,2,64,0,,
88080,note_on,0,0,3,,,,,,,,,2,,,59,36
88080,note_on,0,0,3,,,,,,,,,2,,,66,36
88080,note_on,0,0,1,,,,,,,,,0,,,83,49
88080,note_on,0,0,1,,,,,,,,,0,,,75,49
88080,note_on,0,0,1,,,,,,,,,0,,,71,49
88080,control_change,216,0,1,,,,,,,,,0,64,0,,
88080,note_on,0,0,3,,,,,,,,,2,,,69,36
88092,note_on,0,0,3,,,,,,,,,2,,,59,0
88092,note_on,0,0,3,,,,,,,,,2,,,66,0
88092,note_on,0,0,1,,,,,,,,,0,,,71,0
88092,note_on,12,0,3,,,,,,,,,2,,,69,0
88092,note_on,0,0,1,,,,,,,,,0,,,75,0
88092,note_on,12,0,1,,,,,,,,,0,,,83,0
88320,note_on,0,0,1,,,,,,,,,0,,,68,49
88320,note_on,0,0,1,,,,,,,,,0,,,64,49
88320,control_change,228,0,3,,,,,,,,,2,64,127,,
88320,note_on,0,0,3,,,,,,,,,2,,,52,36
88320,note_on,0,0,3,,,,,,,,,2,,,59,36
88320,control_change,228,0,1,,,,,,,,,0,64,127,,
88344,note_on,0,0,3,,,,,,,,,2,,,52,0
88344,note_on,24,0,3,,,,,,,,,2,,,59,0
88344,note_on,24,0,1,,,,,,,,,0,,,68,0
88344,note_on,0,0,1,,,,,,,,,0,,,64,0
88560,note_on,0,0,1,,,,,,,,,0,,,64,49
88560,note_on,0,0,1,,,,,,,,,0,,,68,49
88560,note_on,0,0,3,,,,,,,,,2,,,59,36
88560,note_on,0,0,3,,,,,,,,,2,,,52,36
88560,control_change,216,0,3,,,,,,,,,2,64,0,,
88560,control_change,216,0,1,,,,,,,,,0,64,0,,
88572,note_on,0,0,1,,,,,,,,,0,,,64,0
88572,note_on,12,0,1,,,,,,,,,0,,,68,0
88572,note_on,12,0,3,,,,,,,,,2,,,59,0
88572,note_on,0,0,3,,,,,,,,,2,,,52,0
88800,note_on,228,0,3,,,,,,,,,2,,,33,88
88800,note_on,0,0,1,,,,,,,,,0,,,66,127
88800,note_on,228,0,1,,,,,,,,,0,,,54,115
88800,note_on,0,0,1,,,,,,,,,0,,,60,119
88800,note_on,0,0,1,,,,,,,,,0,,,64,123
88800,note_on,0,0,3,,,,,,,,,2,,,45,88
89040,note_on,0,0,1,,,,,,,,,0,,,54,0
89040,note_on,240,0,3,,,,,,,,,2,,,45,0
89040,note_on,240,0,1,,,,,,,,,0,,,66,0
89040,note_on,0,0,1,,,,,,,,,0,,,60,0
89040,note_on,0,0,1,,,,,,,,,0,,,60,101
89040,note_on,0,0,1,,,,,,,,,0,,,54,101
89040,note_on,0,0,1,,,,,,,,,0,,,64,101
89040,note_on,0,0,1,,,,,,,,,0,,,66,101
89040,note_on,0,0,3,,,,,,,,,2,,,33,88
89040,note_on,0,0,3,,,,,,,,,2,,,33,0
89040,note_on,0,0,3,,,,,,,,,2,,,45,88
89040,note_on,0,0,1,,,,,,,,,0,,,64,0
89160,note_on,120,0,3,,,,,,,,,2,,,45,0
89160,note_on,0,0,3,,,,,,,,,2,,,33,0
89160,note_on,0,0,1,,,,,,,,,0,,,54,0
89160,note_on,0,0,1,,,,,,,,,0,,,64,0
89160,note_on,0,0,1,,,,,,,,,0,,,60,0
89160,note_on,120,0,1,,,,,,,,,0,,,66,0
89280,note_on,0,0,1,,,,,,,,,0,,,78,49
89280,note_on,0,0,1,,,,,,,,,0,,,73,49
89280,note_on,0,0,3,,,,,,,,,2,,,66,36
89280,note_on,0,0,3,,,,,,,,,2,,,64,36
89280,note_on,0,0,3,,,,,,,,,2,,,57,36
89280,control_change,120,0,3,,,,,,,,,2,64,127,,
89280,control_change,120,0,1,,,,,,,,,0,64,127,,
89280,note_on,0,0,1,,,,,,,,,0,,,76,49
89400,note_on,0,0,3,,,,,,,,,2,,,64,0
89400,note_on,120,0,3,,,,,,,,,2,,,66,0
89400,note_on,0,0,1,,,,,,,,,0,,,71,65
89400,note_on,0,0,3,,,,,,,,,2,,,68,62
89400,note_on,120,0,1,,,,,,,,,0,,,78,0
89400,note_on,0,0,1,,,,,,,,,0,,,76,0
89400,note_on,0,0,1,,,,,,,,,0,,,73,0
89400,note_on,0,0,3,,,,,,,,,2,,,57,0
89400,note_on,0,0,1,,,,,,,,,0,,,76,70
89400,note_on,0,0,1,,,,,,,,,0,,,80,75
89400,note_on,0,0,3,,,,,,,,,2,,,64,57
89400,note_on,0,0,3,,,,,,,,,2,,,59,52
89520,note_on,0,0,1,,,,,,,,,0,,,76,70
89520,note_on,0,0,1,,,,,,,,,0,,,81,75
89520,note_on,120,0,3,,,,,,,,,2,,,68,0
89520,note_on,0,0,1,,,,,,,,,0,,,69,65
89520,note_on,0,0,1,,,,,,,,,0,,,71,0
89520,note_on,0,0,1,,,,,,,,,0,,,76,0
89520,note_on,120,0,1,,,,,,,,,0,,,80,0
89520,note_on,0,0,3,,,,,,,,,2,,,64,0
89520,note_on,0,0,3,,,,,,,,,2,,,64,62
89520,note_on,0,0,3,,,,,,,,,2,,,61,54
89520,note_on,0,0,3,,,,,,,,,2,,,59,0
89640,note_on,0,0,3,,,,,,,,,2,,,68,36
89640,note_on,0,0,3,,,,,,,,,2,,,59,36
89640,note_on,0,0,3,,,,,,,,,2,,,61,0
89640,note_on,0,0,3,,,,,,,,,2,,,64,36
89640,control_change,0,0,3,,,,,,,,,2,64,0,,
89640,note_on,120,0,3,,,,,,,,,2,,,64,0
89640,note_on,120,0,1,,,,,,,,,0,,,81,0
89640,note_on,0,0,1,,,,,,,,,0,,,76,0
89640,control_change,0,0,1,,,,,,,,,0,64,0,,
89640,note_on,0,0,1,,,,,,,,,0,,,80,49
89640,note_on,0,0,1,,,,,,,,,0,,,76,49
89640,note_on,0,0,1,,,,,,,,,0,,,71,49
89640,note_on,0,0,1,,,,,,,,,0,,,69,0
89760,note_on,0,0,3,,,,,,,,,2,,,59,36
89760,control_change,0,0,3,,,,,,,,,2,64,127,,
89760,note_on,0,0,3,,,,,,,,,2,,,59,0
89760,note_on,0,0,3,,,,,,,,,2,,,64,0
89760,note_on,120,0,3,,,,,,,,,2,,,68,0
89760,note_on,0,0,1,,,,,,,,,0,,,71,65
89760,note_on,0,0,3,,,,,,,,,2,,,66,36
89760,note_on,0,0,1,,,,,,,,,0,,,76,70
89760,note_on,120,0,1,,,,,,,,,0,,,80,0
89760,note_on,0,0,1,,,,,,,,,0,,,76,0
89760,note_on,0,0,1,,,,,,,,,0,,,71,0
89760,control_change,0,0,1,,,,,,,,,0,64,127,,
89760,note_on,0,0,3,,,,,,,,,2,,,69,36
89760,note_on,0,0,1,,,,,,,,,0,,,83,75
89784,note_on,0,0,1,,,,,,,,,0,,,71,0
89784,note_on,0,0,1,,,,,,,,,0,,,76,0
89784,note_on,24,0,1,,,,,,,,,0,,,83,0
89784,note_on,24,0,3,,,,,,,,,2,,,69,0
89784,note_on,0,0,3,,,,,,,,,2,,,59,0
89784,note_on,0,0,3,,,,,,,,,2,,,66,0
90000,note_on,0,0,3,,,,,,,,,2,,,59,36
90000,control_change,216,0,3,,,,,,,,,2,64,0,,
90000,note_on,0,0,3,,,,,,,,,2,,,69,36
90000,control_change,216,0,1,,,,,,,,,0,64,0,,
90000,note_on,0,0,1,,,,,,,,,0,,,71,49
90000,note_on,0,0,1,,,,,,,,,0,,,75,49
90000,note_on,0,0,1,,,,,,,,,0,,,83,49
90000,note_on,0,0,3,,,,,,,,,2,,,66,36
90012,note_on,12,0,1,,,,,,,,,0,,,83,0
90012,note_on,12,0,3,,,,,,,,,2,,,69,0
90012,note_on,0,0,3,,,,,,,,,2,,,66,0
90012,note_on,0,0,3,,,,,,,,,2,,,59,0
90012,note_on,0,0,1,,,,,,,,,0,,,75,0
90012,note_on,0,0,1,,,,,,,,,0,,,71,0
90240,note_on,0,0,1,,,,,,,,,0,,,64,101
90240,note_on,228,0,3,,,,,,,,,2,,,40,88
90240,note_on,228,0,1,,,,,,,,,0,,,52,101
90480,note_on,0,0,1,,,,,,,,,0,,,52,0
90480,note_on,0,0,1,,,,,,,,,0,,,52,101
90480,note_on,0,0,1,,,,,,,,,0,,,64,101
90480,note_on,0,0,3,,,,,,,,,2,,,40,88
90480,note_on,240,0,1,,,,,,,,,0,,,64,0
90480,note_on,240,0,3,,,,,,,,,2,,,40,0
90600,note_on,120,0,1,,,,,,,,,0,,,64,0
90600,note_on,0,0,1,,,,,,,,,0,,,52,0
90600,note_on,120,0,3,,,,,,,,,2,,,40,0
90720,control_change,120,0,3,,,,,,,,,2,64,127,,
90720,note_on,0,0,3,,,,,,,,,2,,,40,36
90720,note_on,0,0,1,,,,,,,,,0,,,59,36
90720,note_on,0,0,1,,,,,,,,,0,,,56,36
90720,control_change,120,0,1,,,,,,,,,0,64,127,,
90720,note_on,0,0,3,,,,,,,,,2,,,47,36
90732,note_on,0,0,3,,,,,,,,,2,,,40,0
90732,note_on,0,0,1,,,,,,,,,0,,,56,0
90732,note_on,12,0,3,,,,,,,,,2,,,47,0
90732,note_on,12,0,1,,,,,,,,,0,,,59,0
90840,note_on,108,0,3,,,,,,,,,2,,,40,36
90840,note_on,0,0,1,,,,,,,,,0,,,68,36
90840,note_on,108,0,1,,,,,,,,,0,,,56,36
90840,note_on,0,0,3,,,,,,,,,2,,,47,36
90852,note_on,12,0,3,,,,,,,,,2,,,47,0
90852,note_on,0,0,3,,,,,,,,,2,,,40,0
90852,note_on,0,0,1,,,,,,,,,0,,,56,0
90852,note_on,12,0,1,,,,,,,,,0,,,68,0
90960,note_on,108,0,3,,,,,,,,,2,,,40,36
90960,note_on,0,0,1,,,,,,,,,0,,,66,36
90960,note_on,108,0,1,,,,,,,,,0,,,56,36
90960,note_on,0,0,3,,,,,,,,,2,,,47,36
90972,note_on,12,0,1,,,,,,,,,0,,,66,0
90972,note_on,0,0,1,,,,,,,,,0,,,56,0
90972,note_on,0,0,3,,,,,,,,,2,,,40,0
90972,note_on,12,0,3,,,,,,,,,2,,,47,0
91080,note_on,0,0,1,,,,,,,,,0,,,56,36
91080,note_on,0,0,3,,,,,,,,,2,,,47,36
91080,note_on,0,0,3,,,,,,,,,2,,,40,36
91080,control_change,108,0,3,,,,,,,,,2,64,0,,
91080,control_change,108,0,1,,,,,,,,,0,64,0,,
91080,note_on,0,0,1,,,,,,,,,0,,,68,36
91092,note_on,0,0,3,,,,,,,,,2,,,40,0
91092,note_on,12,0,3,,,,,,,,,2,,,47,0
91092,note_on,12,0,1,,,,,,,,,0,,,68,0
91092,note_on,0,0,1,,,,,,,,,0,,,56,0
91200,note_on,0,0,1,,,,,,,,,0,,,71,62
91200,note_on,0,0,3,,,,,,,,,2,,,48,36
91200,note_on,0,0,3,,,,,,,,,2,,,40,36
91200,control_change,108,0,3,,,,,,,,,2,64,127,,
91200,note_on,0,0,1,,,,,,,,,0,,,68,57
91200,note_on,0,0,1,,,,,,,,,0,,,60,52
91200,control_change,108,0,1,,,,,,,,,0,64,127,,
91224,note_on,0,0,1,,,,,,,,,0,,,68,0
91224,note_on,0,0,3,,,,,,,,,2,,,40,0
91224,note_on,24,0,3,,,,,,,,,2,,,48,0
91224,note_on,24,0,1,,,,,,,,,0,,,71,0
91224,note_on,0,0,1,,,,,,,,,0,,,60,0
91440,control_change,216,0,3,,,,,,,,,2,64,0,,
91440,control_change,216,0,1,,,,,,,,,0,64,0,,
91440,note_on,0,0,1,,,,,,,,,0,,,60,36
91440,note_on,0,0,3,,,,,,,,,2,,,40,36
91440,note_on,0,0,1,,,,,,,,,0,,,66,36
91440,note_on,0,0,1,,,,,,,,,0,,,69,36
91440,note_on,0,0,3,,,,,,,,,2,,,48,36
91452,note_on,12,0,1,,,,,,,,,0,,,69,0
91452,note_on,0,0,1,,,,,,,,,0,,,66,0
91452,note_on,12,0,3,,,,,,,,,2,,,48,0
91452,note_on,0,0,1,,,,,,,,,0,,,60,0
91452,note_on,0,0,3,,,,,,,,,2,,,40,0
91680,control_change,228,0,3,,,,,,,,,2,64,127,,
91680,note_on,0,0,3,,,,,,,,,2,,,40,36
91680,note_on,0,0,3,,,,,,,,,2,,,51,36
91680,control_change,228,0,1,,,,,,,,,0,64,127,,
91680,note_on,0,0,1,,,,,,,,,0,,,71,62
91680,note_on,0,0,1,,,,,,,,,0,,,68,57
91680,note_on,0,0,1,,,,,,,,,0,,,59,52
91704,note_on,0,0,3,,,,,,,,,2,,,40,0
91704,note_on,0,0,1,,,,,,,,,0,,,68,0
91704,note_on,0,0,1,,,,,,,,,0,,,59,0
91704,note_on,24,0,3,,,,,,,,,2,,,51,0
91704,note_on,24,0,1,,,,,,,,,0,,,71,0
91920,note_on,0,0,1,,,,,,,,,0,,,66,36
91920,note_on,0,0,1,,,,,,,,,0,,,69,36
91920,control_change,216,0,1,,,,,,,,,0,64,0,,
91920,note_on,0,0,3,,,,,,,,,2,,,40,36
91920,note_on,0,0,3,,,,,,,,,2,,,51,36
91920,note_on,0,0,1,,,,,,,,,0,,,59,36
91920,control_change,216,0,3,,,,,,,,,2,64,0,,
91932,note_on,0,0,3,,,,,,,,,2,,,40,0
91932,note_on,12,0,3,,,,,,,,,2,,,51,0
91932,note_on,12,0,1,,,,,,,,,0,,,69,0
91932,note_on,0,0,1,,,,,,,,,0,,,66,0
91932,note_on,0,0,1,,,,,,,,,0,,,59,0
92160,note_on,228,0,1,,,,,,,,,0,,,64,101
92160,note_on,0,0,1,,,,,,,,,0,,,76,101
92160,note_on,0,0,3,,,,,,,,,2,,,52,88
92160,note_on,228,0,3,,,,,,,,,2,,,40,88
92400,note_on,240,0,1,,,,,,,,,0,,,76,0
92400,note_on,0,0,1,,,,,,,,,0,,,76,101
92400,note_on,0,0,3,,,,,,,,,2,,,40,88
92400,note_on,0,0,3,,,,,,,,,2,,,40,0
92400,note_on,240,0,3,,,,,,,,,2,,,52,0
92400,note_on,0,0,3,,,,,,,,,2,,,52,88
92400,note_on,0,0,1,,,,,,,,,0,,,64,101
92400,note_on,0,0,1,,,,,,,,,0,,,64,0
92520,note_on,120,0,1,,,,,,,,,0,,,76,0
92520,note_on,0,0,1,,,,,,,,,0,,,64,0
92520,note_on,0,0,3,,,,,,,,,2,,,40,0
92520,note_on,120,0,3,,,,,,,,,2,,,52,0
92640,control_change,120,0,1,,,,,,,,,0,64,127,,
92640,note_on,0,0,3,,,,,,,,,2,,,47,36
92640,control_change,120,0,3,,,,,,,,,2,64,127,,
92640,note_on,0,0,1,,,,,,,,,0,,,59,36
92640,note_on,0,0,1,,,,,,,,,0,,,56,36
92640,note_on,0,0,3,,,,,,,,,2,,,40,36
92652,note_on,0,0,1,,,,,,,,,0,,,56,0
92652,note_on,12,0,1,,,,,,,,,0,,,59,0
92652,note_on,12,0,3,,,,,,,,,2,,,47,0
92652,note_on,0,0,3,,,,,,,,,2,,,40,0
92760,note_on,108,0,3,,,,,,,,,2,,,40,36
92760,note_on,0,0,3,,,,,,,,,2,,,47,36
92760,note_on,0,0,1,,,,,,,,,0,,,68,36
92760,note_on,108,0,1,,,,,,,,,0,,,56,36
92772,note_on,12,0,3,,,,,,,,,2,,,47,0
92772,note_on,0,0,1,,,,,,,,,0,,,56,0
92772,note_on,12,0,1,,,,,,,,,0,,,68,0
92772,note_on,0,0,3,,,,,,,,,2,,,40,0
92880,note_on,0,0,3,,,,,,,,,2,,,47,36
92880,note_on,108,0,1,,,,,,,,,0,,,56,36
92880,note_on,0,0,1,,,,,,,,,0,,,66,36
92880,note_on,108,0,3,,,,,,,,,2,,,40,36
92892,note_on,12,0,1,,,,,,,,,0,,,66,0
92892,note_on,12,0,3,,,,,,,,,2,,,47,0
92892,note_on,0,0,3,,,,,,,,,2,,,40,0
92892,note_on,0,0,1,,,,,,,,,0,,,56,0
93000,note_on,0,0,3,,,,,,,,,2,,,40,36
93000,control_change,108,0,1,,,,,,,,,0,64,0,,
93000,note_on,0,0,1,,,,,,,,,0,,,56,36
93000,note_on,0,0,1,,,,,,,,,0,,,68,36
93000,note_on,0,0,3,,,,,,,,,2,,,47,36
93000,control_change,108,0,3,,,,,,,,,2,64,0,,
93012,note_on,0,0,3,,,,,,,,,2,,,40,0
93012,note_on,12,0,3,,,,,,,,,2,,,47,0
93012,note_on,12,0,1,,,,,,,,,0,,,68,0
93012,note_on,0,0,1,,,,,,,,,0,,,56,0
93120,control_change,108,0,3,,,,,,,,,2,64,127,,
93120,control_change,108,0,1,,,,,,,,,0,64,127,,
93120,note_on,0,0,3,,,,,,,,,2,,,40,36
93120,note_on,0,0,1,,,,,,,,,0,,,61,36
93120,note_on,0,0,1,,,,,,,,,0,,,73,36
93120,note_on,0,0,3,,,,,,,,,2,,,45,36
93120,note_on,0,0,1,,,,,,,,,0,,,69,36
93144,note_on,24,0,1,,,,,,,,,0,,,73,0
93144,note_on,24,0,3,,,,,,,,,2,,,45,0
93144,note_on,0,0,3,,,,,,,,,2,,,40,0
93144,note_on,0,0,1,,,,,,,,,0,,,61,0
93144,note_on,0,0,1,,,,,,,,,0,,,69,0
93360,note_on,0,0,3,,,,,,,,,2,,,40,36
93360,note_on,0,0,1,,,,,,,,,0,,,61,36
93360,control_change,216,0,1,,,,,,,,,0,64,0,,
93360,note_on,0,0,3,,,,,,,,,2,,,49,36
93360,control_change,216,0,3,,,,,,,,,2,64,0,,
93360,note_on,0,0,1,,,,,,,,,0,,,69,36
93360,note_on,0,0,1,,,,,,,,,0,,,66,36
93372,note_on,0,0,1,,,,,,,,,0,,,66,0
93372,note_on,0,0,1,,,,,,,,,0,,,61,0
93372,note_on,0,0,3,,,,,,,,,2,,,40,0
93372,note_on,12,0,3,,,,,,,,,2,,,49,0
93372,note_on,12,0,1,,,,,,,,,0,,,69,0
93600,control_change,228,0,1,,,,,,,,,0,64,127,,
93600,note_on,0,0,1,,,,,,,,,0,,,59,52
93600,note_on,0,0,1,,,,,,,,,0,,,71,62
93600,note_on,0,0,3,,,,,,,,,2,,,47,36
93600,note_on,0,0,3,,,,,,,,,2,,,40,36
93600,control_change,228,0,3,,,,,,,,,2,64,127,,
93600,note_on,0,0,1,,,,,,,,,0,,,68,57
93624,note_on,0,0,3,,,,,,,,,2,,,40,0
93624,note_on,24,0,3,,,,,,,,,2,,,47,0
93624,note_on,0,0,1,,,,,,,,,0,,,59,0
93624,note_on,0,0,1,,,,,,,,,0,,,68,0
93624,note_on,24,0,1,,,,,,,,,0,,,71,0
93840,control_change,216,0,3,,,,,,,,,2,64,0,,
93840,note_on,0,0,3,,,,,,,,,2,,,51,36
93840,note_on,0,0,1,,,,,,,,,0,,,69,36
93840,note_on,0,0,1,,,,,,,,,0,,,66,36
93840,control_change,216,0,1,,,,,,,,,0,64,0,,
93840,note_on,0,0,3,,,,,,,,,2,,,40,36
93840,note_on,0,0,1,,,,,,,,,0,,,59,36
93852,note_on,12,0,1,,,,,,,,,0,,,69,0
93852,note_on,0,0,1,,,,,,,,,0,,,66,0
93852,note_on,12,0,3,,,,,,,,,2,,,51,0
93852,note_on,0,0,1,,,,,,,,,0,,,59,0
93852,note_on,0,0,3,,,,,,,,,2,,,40,0
94080,control_change,228,0,1,,,,,,,,,0,64,127,,
94080,note_on,0,0,3,,,,,,,,,2,,,40,36
94080,note_on,0,0,3,,,,,,,,,2,,,52,36
94080,note_on,0,0,1,,,,,,,,,0,,,69,62
94080,note_on,0,0,1,,,,,,,,,0,,,64,57
94080,note_on,0,0,1,,,,,,,,,0,,,59,52
94080,control_change,228,0,3,,,,,,,,,2,64,127,,
94104,note_on,24,0,3,,,,,,,,,2,,,52,0
94104,note_on,0,0,3,,,,,,,,,2,,,40,0
94104,note_on,0,0,1,,,,,,,,,0,,,59,0
94104,note_on,0,0,1,,,,,,,,,0,,,64,0
94104,note_on,24,0,1,,,,,,,,,0,,,69,0
94320,control_change,216,0,3,,,,,,,,,2,64,0,,
94320,note_on,0,0,3,,,,,,,,,2,,,40,36
94320,note_on,0,0,3,,,,,,,,,2,,,52,36
94320,note_on,0,0,1,,,,,,,,,0,,,67,36
94320,note_on,0,0,1,,,,,,,,,0,,,59,36
94320,note_on,0,0,1,,,,,,,,,0,,,64,36
94320,control_change,216,0,1,,,,,,,,,0,64,0,,
94332,note_on,0,0,3,,,,,,,,,2,,,40,0
94332,note_on,0,0,1,,,,,,,,,0,,,59,0
94332,note_on,12,0,3,,,,,,,,,2,,,52,0
94332,note_on,0,0,1,,,,,,,,,0,,,64,0
94332,note_on,12,0,1,,,,,,,,,0,,,67,0
94560,control_change,228,0,1,,,,,,,,,0,64,127,,
94560,note_on,0,0,1,,,,,,,,,0,,,57,52
94560,note_on,0,0,1,,,,,,,,,0,,,60,57
94560,note_on,0,0,1,,,,,,,,,0,,,67,62
94560,note_on,0,0,3,,,,,,,,,2,,,48,36
94560,note_on,0,0,3,,,,,,,,,2,,,45,36
94560,control_change,228,0,3,,,,,,,,,2,64,127,,
94584,note_on,24,0,3,,,,,,,,,2,,,48,0
94584,note_on,0,0,3,,,,,,,,,2,,,45,0
94584,note_on,0,0,1,,,,,,,,,0,,,57,0
94584,note_on,0,0,1,,,,,,,,,0,,,60,0
94584,note_on,24,0,1,,,,,,,,,0,,,67,0
94800,note_on,0,0,3,,,,,,,,,2,,,48,36
94800,note_on,0,0,3,,,,,,,,,2,,,45,36
94800,control_change,216,0,3,,,,,,,,,2,64,0,,
94800,note_on,0,0,1,,,,,,,,,0,,,57,36
94800,control_change,216,0,1,,,,,,,,,0,64,0,,
94800,note_on,0,0,1,,,,,,,,,0,,,60,36
94800,note_on,0,0,1,,,,,,,,,0,,,65,36
94812,note_on,0,0,1,,,,,,,,,0,,,60,0
94812,note_on,12,0,3,,,,,,,,,2,,,48,0
94812,note_on,12,0,1,,,,,,,,,0,,,65,0
94812,note_on,0,0,1,,,,,,,,,0,,,57,0
94812,note_on,0,0,3,,,,,,,,,2,,,45,0
95040,note_on,0,0,1,,,,,,,,,0,,,55,52
95040,note_on,0,0,3,,,,,,,,,2,,,48,36
95040,note_on,0,0,1,,,,,,,,,0,,,65,62
95040,note_on,0,0,1,,,,,,,,,0,,,60,57
95040,control_change,228,0,1,,,,,,,,,0,64,127,,
95040,control_change,228,0,3,,,,,,,,,2,64,127,,
95064,note_on,24,0,3,,,,,,,,,2,,,48,0
95064,note_on,0,0,1,,,,,,,,,0,,,55,0
95064,note_on,0,0,1,,,,,,,,,0,,,60,0
95064,note_on,24,0,1,,,,,,,,,0,,,65,0
95280,note_on,0,0,3,,,,,,,,,2,,,48,36
95280,control_change,216,0,3,,,,,,,,,2,64,0,,
95280,note_on,0,0,1,,,,,,,,,0,,,60,36
95280,control_change,216,0,1,,,,,,,,,0,64,0,,
95280,note_on,0,0,1,,,,,,,,,0,,,64,36
95280,note_on,0,0,1,,,,,,,,,0,,,55,36
95292,note_on,12,0,3,,,,,,,,,2,,,48,0
95292,note_on,0,0,1,,,,,,,,,0,,,55,0
95292,note_on,0,0,1,,,,,,,,,0,,,60,0
95292,note_on,12,0,1,,,,,,,,,0,,,64,0
95520,control_change,228,0,3,,,,,,,,,2,64,127,,
95520,note_on,0,0,3,,,,,,,,,2,,,38,36
95520,note_on,0,0,3,,,,,,,,,2,,,50,36
95520,control_change,228,0,1,,,,,,,,,0,64,127,,
95520,note_on,0,0,1,,,,,,,,,0,,,53,36
95520,note_on,0,0,1,,,,,,,,,0,,,57,36
95520,note_on,0,0,1,,,,,,,,,0,,,64,36
95544,note_on,24,0,1,,,,,,,,,0,,,64,0
95544,note_on,0,0,1,,,,,,,,,0,,,57,0
95544,note_on,0,0,1,,,,,,,,,0,,,53,0
95544,note_on,24,0,3,,,,,,,,,2,,,50,0
95544,note_on,0,0,3,,,,,,,,,2,,,38,0
95760,note_on,0,0,3,,,,,,,,,2,,,50,36
95760,control_change,216,0,1,,,,,,,,,0,64,0,,
95760,note_on,0,0,3,,,,,,,,,2,,,38,36
95760,control_change,216,0,3,,,,,,,,,2,64,0,,
95760,note_on,0,0,1,,,,,,,,,0,,,62,36
95760,note_on,0,0,1,,,,,,,,,0,,,57,36
95760,note_on,0,0,1,,,,,,,,,0,,,53,36
95772,note_on,0,0,3,,,,,,,,,2,,,38,0
95772,note_on,12,0,1,,,,,,,,,0,,,62,0
95772,note_on,0,0,1,,,,,,,,,0,,,57,0
95772,note_on,0,0,1,,,,,,,,,0,,,53,0
95772,note_on,12,0,3,,,,,,,,,2,,,50,0
96000,note_on,0,0,1,,,,,,,,,0,,,57,36
96000,note_on,13920,0,4,,,,,,,,,3,,,40,36
96000,note_on,0,0,1,,,,,,,,,0,,,52,36
96000,control_change,228,0,1,,,,,,,,,0,64,127,,
96000,note_on,0,0,1,,,,,,,,,0,,,62,36
96000,note_on,228,0,3,,,,,,,,,2,,,45,75
96024,note_on,0,0,1,,,,,,,,,0,,,52,0
96024,note_on,0,0,1,,,,,,,,,0,,,57,0
96024,note_on,24,0,1,,,,,,,,,0,,,62,0
96240,note_on,0,0,1,,,,,,,,,0,,,60,36
96240,note_on,240,0,4,,,,,,,,,3,,,40,0
96240,note_on,0,0,1,,,,,,,,,0,,,57,36
96240,note_on,240,0,3,,,,,,,,,2,,,45,0
96240,note_on,0,0,3,,,,,,,,,2,,,52,49
96240,control_change,216,0,1,,,,,,,,,0,64,0,,
96240,note_on,0,0,4,,,,,,,,,3,,,40,36
96252,note_on,0,0,1,,,,,,,,,0,,,57,0
96252,note_on,12,0,1,,,,,,,,,0,,,60,0
96360,note_on,120,0,4,,,,,,,,,3,,,40,0
96480,note_on,240,0,3,,,,,,,,,2,,,52,0
96480,note_on,0,0,3,,,,,,,,,2,,,51,49
96720,note_on,240,0,3,,,,,,,,,2,,,51,0
96720,note_on,0,0,3,,,,,,,,,2,,,52,49
96780,note_on,60,0,3,,,,,,,,,2,,,52,0
97440,control_change,660,0,3,,,,,,,,,2,64,127,,
97440,note_on,0,0,3,,,,,,,,,2,,,47,49
97440,control_change,1188,0,1,,,,,,,,,0,64,127,,
97440,note_on,0,0,1,,,,,,,,,0,,,57,36
97440,note_on,0,0,1,,,,,,,,,0,,,59,36
97440,note_on,1080,0,4,,,,,,,,,3,,,40,36
97464,note_on,24,0,1,,,,,,,,,0,,,59,0
97464,note_on,0,0,1,,,,,,,,,0,,,57,0
97680,note_on,240,0,4,,,,,,,,,3,,,40,0
97680,note_on,0,0,3,,,,,,,,,2,,,52,49
97680,note_on,0,0,1,,,,,,,,,0,,,59,36
97680,note_on,0,0,1,,,,,,,,,0,,,56,36
97680,note_on,240,0,3,,,,,,,,,2,,,47,0
97680,note_on,0,0,4,,,,,,,,,3,,,40,36
97680,control_change,216,0,1,,,,,,,,,0,64,0,,
97686,note_on,6,0,1,,,,,,,,,0,,,59,0
97686,note_on,0,0,1,,,,,,,,,0,,,56,0
97800,note_on,120,0,4,,,,,,,,,3,,,40,0
97920,note_on,240,0,3,,,,,,,,,2,,,52,0
97920,control_change,0,0,3,,,,,,,,,2,64,0,,
97920,note_on,0,0,3,,,,,,,,,2,,,51,49
98160,note_on,240,0,3,,,,,,,,,2,,,51,0
98160,note_on,0,0,3,,,,,,,,,2,,,52,49
98220,note_on,60,0,3,,,,,,,,,2,,,52,0
98880,note_on,1194,0,1,,,,,,,,,0,,,60,49
98880,note_on,660,0,3,,,,,,,,,2,,,41,36
98910,note_on,0,0,3,,,,,,,,,2,,,48,36
98910,note_on,30,0,3,,,,,,,,,2,,,41,0
98940,note_on,30,0,3,,,,,,,,,2,,,48,0
98940,note_on,0,0,3,,,,,,,,,2,,,41,36
98970,note_on,30,0,3,,,,,,,,,2,,,41,0
98970,note_on,0,0,3,,,,,,,,,2,,,48,36
99000,note_on,0,0,3,,,,,,,,,2,,,41,36
99000,note_on,30,0,3,,,,,,,,,2,,,48,0
99030,note_on,0,0,3,,,,,,,,,2,,,48,36
99030,note_on,30,0,3,,,,,,,,,2,,,41,0
99060,note_on,30,0,3,,,,,,,,,2,,,48,0
99060,note_on,0,0,3,,,,,,,,,2,,,41,36
99090,note_on,30,0,3,,,,,,,,,2,,,41,0
99090,note_on,0,0,3,,,,,,,,,2,,,48,36
99120,note_on,0,0,3,,,,,,,,,2,,,41,36
99120,note_on,0,0,1,,,,,,,,,0,,,69,49
99120,note_on,0,0,1,,,,,,,,,0,,,57,49
99120,note_on,240,0,1,,,,,,,,,0,,,60,0
99120,note_on,30,0,3,,,,,,,,,2,,,48,0
99150,note_on,30,0,3,,,,,,,,,2,,,41,0
99150,note_on,0,0,3,,,,,,,,,2,,,48,36
99180,note_on,30,0,3,,,,,,,,,2,,,48,0
99180,note_on,0,0,3,,,,,,,,,2,,,41,36
99210,note_on,0,0,3,,,,,,,,,2,,,48,36
99210,note_on,30,0,3,,,,,,,,,2,,,41,0
99240,note_on,30,0,3,,,,,,,,,2,,,48,0
99240,note_on,0,0,3,,,,,,,,,2,,,41,36
99270,note_on,30,0,3,,,,,,,,,2,,,41,0
99270,note_on,0,0,3,,,,,,,,,2,,,48,36
99300,note_on,0,0,3,,,,,,,,,2,,,41,36
99300,note_on,30,0,3,,,,,,,,,2,,,48,0
99330,note_on,30,0,3,,,,,,,,,2,,,41,0
99330,control_change,0,0,3,,,,,,,,,2,64,0,,
99330,note_on,0,0,3,,,,,,,,,2,,,48,36
99360,note_on,0,0,1,,,,,,,,,0,,,68,49
99360,note_on,240,0,1,,,,,,,,,0,,,69,0
99360,note_on,30,0,3,,,,,,,,,2,,,48,0
99360,control_change,0,0,3,,,,,,,,,2,64,127,,
99360,note_on,0,0,3,,,,,,,,,2,,,41,36
99360,note_on,0,0,1,,,,,,,,,0,,,56,49
99360,note_on,0,0,1,,,,,,,,,0,,,57,0
99390,note_on,0,0,3,,,,,,,,,2,,,48,36
99390,note_on,30,0,3,,,,,,,,,2,,,41,0
99420,note_on,0,0,3,,,,,,,,,2,,,41,36
99420,note_on,30,0,3,,,,,,,,,2,,,48,0
99450,note_on,30,0,3,,,,,,,,,2,,,41,0
99450,note_on,0,0,3,,,,,,,,,2,,,48,36
99480,note_on,30,0,3,,,,,,,,,2,,,48,0
99480,note_on,0,0,3,,,,,,,,,2,,,41,36
99510,note_on,0,0,3,,,,,,,,,2,,,48,36
99510,note_on,30,0,3,,,,,,,,,2,,,41,0
99540,note_on,0,0,3,,,,,,,,,2,,,41,36
99540,note_on,30,0,3,,,,,,,,,2,,,48,0
99570,note_on,0,0,3,,,,,,,,,2,,,48,36
99570,note_on,30,0,3,,,,,,,,,2,,,41,0
99600,note_on,0,0,3,,,,,,,,,2,,,41,36
99600,control_change,0,0,3,,,,,,,,,2,64,0,,
99600,note_on,30,0,3,,,,,,,,,2,,,48,0
99600,note_on,0,0,1,,,,,,,,,0,,,69,49
99600,note_on,0,0,1,,,,,,,,,0,,,57,49
99600,note_on,0,0,1,,,,,,,,,0,,,56,0
99600,note_on,240,0,1,,,,,,,,,0,,,68,0
99630,note_on,30,0,3,,,,,,,,,2,,,41,0
99630,note_on,0,0,3,,,,,,,,,2,,,48,36
99660,note_on,30,0,3,,,,,,,,,2,,,48,0
99660,note_on,0,0,3,,,,,,,,,2,,,41,36
99690,note_on,30,0,3,,,,,,,,,2,,,41,0
99690,note_on,0,0,3,,,,,,,,,2,,,48,36
99720,note_on,0,0,3,,,,,,,,,2,,,41,36
99720,note_on,30,0,3,,,,,,,,,2,,,48,0
99750,note_on,0,0,3,,,,,,,,,2,,,48,36
99750,note_on,30,0,3,,,,,,,,,2,,,41,0
99780,note_on,30,0,3,,,,,,,,,2,,,48,0
99780,note_on,0,0,3,,,,,,,,,2,,,41,36
99810,note_on,0,0,3,,,,,,,,,2,,,48,36
99810,note_on,30,0,3,,,,,,,,,2,,,41,0
99840,note_on,0,0,1,,,,,,,,,0,,,70,49
99840,note_on,0,0,3,,,,,,,,,2,,,41,36
99840,note_on,0,0,1,,,,,,,,,0,,,57,0
99840,control_change,0,0,3,,,,,,,,,2,64,127,,
99840,note_on,240,0,1,,,,,,,,,0,,,69,0
99840,note_on,0,0,1,,,,,,,,,0,,,58,49
99840,note_on,30,0,3,,,,,,,,,2,,,48,0
99870,note_on,0,0,3,,,,,,,,,2,,,48,36
99870,note_on,30,0,3,,,,,,,,,2,,,41,0
99900,note_on,0,0,3,,,,,,,,,2,,,41,36
99900,note_on,30,0,3,,,,,,,,,2,,,48,0
99930,note_on,0,0,3,,,,,,,,,2,,,48,36
99930,note_on,30,0,3,,,,,,,,,2,,,41,0
99960,note_on,0,0,3,,,,,,,,,2,,,41,36
99960,note_on,30,0,3,,,,,,,,,2,,,48,0
99990,note_on,0,0,3,,,,,,,,,2,,,48,36
99990,note_on,30,0,3,,,,,,,,,2,,,41,0
100020,note_on,30,0,3,,,,,,,,,2,,,48,0
100020,note_on,0,0,3,,,,,,,,,2,,,41,36
100050,note_on,30,0,3,,,,,,,,,2,,,41,0
100050,note_on,0,0,3,,,,,,,,,2,,,48,36
100080,note_on,0,0,1,,,,,,,,,0,,,57,49
100080,note_on,0,0,1,,,,,,,,,0,,,69,49
100080,note_on,0,0,1,,,,,,,,,0,,,58,0
100080,note_on,240,0,1,,,,,,,,,0,,,70,0
100080,note_on,0,0,3,,,,,,,,,2,,,41,36
100080,control_change,0,0,3,,,,,,,,,2,64,0,,
100080,note_on,30,0,3,,,,,,,,,2,,,48,0
100110,note_on,0,0,3,,,,,,,,,2,,,48,36
100110,note_on,30,0,3,,,,,,,,,2,,,41,0
100140,note_on,30,0,3,,,,,,,,,2,,,48,0
100140,note_on,0,0,3,,,,,,,,,2,,,41,36
100170,note_on,30,0,3,,,,,,,,,2,,,41,0
100170,note_on,0,0,3,,,,,,,,,2,,,48,36
100200,note_on,30,0,3,,,,,,,,,2,,,48,0
100200,note_on,0,0,3,,,,,,,,,2,,,41,36
100230,note_on,30,0,3,,,,,,,,,2,,,41,0
100230,note_on,0,0,3,,,,,,,,,2,,,48,36
100260,note_on,0,0,3,,,,,,,,,2,,,41,36
100260,note_on,30,0,3,,,,,,,,,2,,,48,0
100290,note_on,0,0,3,,,,,,,,,2,,,48,36
100290,note_on,30,0,3,,,,,,,,,2,,,41,0
100320,note_on,0,0,1,,,,,,,,,0,,,62,49
100320,note_on,0,0,1,,,,,,,,,0,,,57,0
100320,note_on,240,0,1,,,,,,,,,0,,,69,0
100320,note_on,0,0,1,,,,,,,,,0,,,74,49
100320,note_on,30,0,3,,,,,,,,,2,,,48,0
100320,note_on,0,0,3,,,,,,,,,2,,,41,36
100350,note_on,0,0,3,,,,,,,,,2,,,48,36
100350,note_on,30,0,3,,,,,,,,,2,,,41,0
100380,note_on,0,0,3,,,,,,,,,2,,,41,36
100380,note_on,30,0,3,,,,,,,,,2,,,48,0
100410,note_on,0,0,3,,,,,,,,,2,,,48,36
100410,note_on,30,0,3,,,,,,,,,2,,,41,0
100440,note_on,30,0,3,,,,,,,,,2,,,48,0
100440,note_on,0,0,3,,,,,,,,,2,,,41,36
100470,note_on,0,0,3,,,,,,,,,2,,,48,36
100470,note_on,30,0,3,,,,,,,,,2,,,41,0
100500,note_on,0,0,3,,,,,,,,,2,,,41,36
100500,note_on,30,0,3,,,,,,,,,2,,,48,0
100530,note_on,0,0,3,,,,,,,,,2,,,48,36
100530,note_on,30,0,3,,,,,,,,,2,,,41,0
100560,note_on,0,0,1,,,,,,,,,0,,,62,0
100560,note_on,240,0,1,,,,,,,,,0,,,74,0
100560,note_on,0,0,1,,,,,,,,,0,,,72,49
100560,note_on,0,0,3,,,,,,,,,2,,,41,36
100560,note_on,0,0,1,,,,,,,,,0,,,60,49
100560,note_on,30,0,3,,,,,,,,,2,,,48,0
100590,note_on,0,0,3,,,,,,,,,2,,,48,36
100590,note_on,30,0,3,,,,,,,,,2,,,41,0
100620,note_on,0,0,3,,,,,,,,,2,,,41,36
100620,note_on,30,0,3,,,,,,,,,2,,,48,0
100650,note_on,30,0,3,,,,,,,,,2,,,41,0
100650,note_on,0,0,3,,,,,,,,,2,,,48,36
100680,note_on,30,0,3,,,,,,,,,2,,,48,0
100680,note_on,0,0,3,,,,,,,,,2,,,41,36
100710,note_on,0,0,3,,,,,,,,,2,,,48,36
100710,note_on,30,0,3,,,,,,,,,2,,,41,0
100740,note_on,0,0,3,,,,,,,,,2,,,41,36
100740,note_on,30,0,3,,,,,,,,,2,,,48,0
100770,control_change,0,0,3,,,,,,,,,2,64,0,,
100770,note_on,0,0,3,,,,,,,,,2,,,48,36
100770,note_on,30,0,3,,,,,,,,,2,,,41,0
100800,note_on,30,0,3,,,,,,,,,2,,,48,0
100800,note_on,0,0,1,,,,,,,,,0,,,79,62
100800,note_on,0,0,3,,,,,,,,,2,,,41,49
100800,note_on,240,0,1,,,,,,,,,0,,,72,0
100800,note_on,0,0,1,,,,,,,,,0,,,60,0
100800,note_on,0,0,1,,,,,,,,,0,,,67,62
100800,control_change,0,0,3,,,,,,,,,2,64,127,,
100830,note_on,0,0,3,,,,,,,,,2,,,48,49
100830,note_on,30,0,3,,,,,,,,,2,,,41,0
100860,note_on,30,0,3,,,,,,,,,2,,,48,0
100860,note_on,0,0,3,,,,,,,,,2,,,41,49
100890,note_on,30,0,3,,,,,,,,,2,,,41,0
100890,note_on,0,0,3,,,,,,,,,2,,,48,49
100920,note_on,0,0,3,,,,,,,,,2,,,41,49
100920,note_on,30,0,3,,,,,,,,,2,,,48,0
100950,note_on,30,0,3,,,,,,,,,2,,,41,0
100950,note_on,0,0,3,,,,,,,,,2,,,48,49
100980,note_on,30,0,3,,,,,,,,,2,,,48,0
100980,note_on,0,0,3,,,,,,,,,2,,,41,49
101010,note_on,0,0,3,,,,,,,,,2,,,48,49
101010,note_on,30,0,3,,,,,,,,,2,,,41,0
101040,note_on,0,0,1,,,,,,,,,0,,,77,62
101040,note_on,30,0,3,,,,,,,,,2,,,48,0
101040,note_on,0,0,3,,,,,,,,,2,,,41,49
101040,note_on,240,0,1,,,,,,,,,0,,,79,0
101040,note_on,0,0,1,,,,,,,,,0,,,67,0
101040,note_on,0,0,1,,,,,,,,,0,,,65,62
101070,note_on,30,0,3,,,,,,,,,2,,,41,0
101070,note_on,0,0,3,,,,,,,,,2,,,48,49
101100,note_on,30,0,3,,,,,,,,,2,,,48,0
101100,note_on,0,0,3,,,,,,,,,2,,,41,49
101130,note_on,30,0,3,,,,,,,,,2,,,41,0
101130,note_on,0,0,3,,,,,,,,,2,,,48,49
101160,note_on,30,0,3,,,,,,,,,2,,,48,0
101160,note_on,0,0,3,,,,,,,,,2,,,41,49
101190,note_on,30,0,3,,,,,,,,,2,,,41,0
101190,note_on,0,0,3,,,,,,,,,2,,,48,49
101220,note_on,30,0,3,,,,,,,,,2,,,48,0
101220,note_on,0,0,3,,,,,,,,,2,,,41,49
101250,control_change,0,0,3,,,,,,,,,2,64,0,,
101250,note_on,30,0,3,,,,,,,,,2,,,41,0
101250,note_on,0,0,3,,,,,,,,,2,,,48,49
101280,note_on,240,0,1,,,,,,,,,0,,,77,0
101280,note_on,30,0,3,,,,,,,,,2,,,48,0
101280,control_change,0,0,3,,,,,,,,,2,64,127,,
101280,note_on,0,0,3,,,,,,,,,2,,,41,62
101280,note_on,0,0,1,,,,,,,,,0,,,82,75
101280,note_on,0,0,1,,,,,,,,,0,,,70,75
101280,note_on,0,0,1,,,,,,,,,0,,,65,0
101310,note_on,30,0,3,,,,,,,,,2,,,41,0
101310,note_on,0,0,3,,,,,,,,,2,,,48,62
101340,note_on,30,0,3,,,,,,,,,2,,,48,0
101340,note_on,0,0,3,,,,,,,,,2,,,41,62
101370,note_on,30,0,3,,,,,,,,,2,,,41,0
101370,note_on,0,0,3,,,,,,,,,2,,,48,62
101400,note_on,30,0,3,,,,,,,,,2,,,48,0
101400,note_on,0,0,3,,,,,,,,,2,,,41,62
101430,note_on,0,0,3,,,,,,,,,2,,,48,62
101430,note_on,30,0,3,,,,,,,,,2,,,41,0
101460,note_on,0,0,3,,,,,,,,,2,,,41,62
101460,note_on,30,0,3,,,,,,,,,2,,,48,0
101490,note_on,0,0,3,,,,,,,,,2,,,48,62
101490,note_on,30,0,3,,,,,,,,,2,,,41,0
101520,note_on,0,0,1,,,,,,,,,0,,,70,0
101520,note_on,0,0,1,,,,,,,,,0,,,69,88
101520,note_on,0,0,1,,,,,,,,,0,,,81,88
101520,note_on,30,0,3,,,,,,,,,2,,,48,0
101520,note_on,0,0,3,,,,,,,,,2,,,41,75
101520,note_on,240,0,1,,,,,,,,,0,,,82,0
101550,note_on,30,0,3,,,,,,,,,2,,,41,0
101550,note_on,0,0,3,,,,,,,,,2,,,48,75
101580,note_on,30,0,3,,,,,,,,,2,,,48,0
101580,note_on,0,0,3,,,,,,,,,2,,,41,75
101610,note_on,30,0,3,,,,,,,,,2,,,41,0
101610,note_on,0,0,3,,,,,,,,,2,,,48,75
101640,note_on,30,0,3,,,,,,,,,2,,,48,0
101640,note_on,0,0,3,,,,,,,,,2,,,41,75
101670,note_on,30,0,3,,,,,,,,,2,,,41,0
101670,note_on,0,0,3,,,,,,,,,2,,,48,75
101700,note_on,30,0,3,,,,,,,,,2,,,48,0
101700,control_change,0,0,3,,,,,,,,,2,64,0,,
101700,note_on,0,0,3,,,,,,,,,2,,,41,75
101730,control_change,0,0,3,,,,,,,,,2,64,0,,
101730,note_on,0,0,3,,,,,,,,,2,,,48,75
101730,note_on,30,0,3,,,,,,,,,2,,,41,0
101760,note_on,0,0,1,,,,,,,,,0,,,77,101
101760,note_on,0,0,1,,,,,,,,,0,,,86,101
101760,note_on,0,0,1,,,,,,,,,0,,,81,101
101760,note_on,0,0,1,,,,,,,,,0,,,74,101
101760,note_on,0,0,1,,,,,,,,,0,,,69,0
101760,note_on,30,0,3,,,,,,,,,2,,,48,0
101760,note_on,0,0,3,,,,,,,,,2,,,41,88
101760,note_on,0,0,3,,,,,,,,,2,,,45,88
101760,note_on,0,0,3,,,,,,,,,2,,,50,88
101760,note_on,0,0,3,,,,,,,,,2,,,53,88
101760,note_on,240,0,1,,,,,,,,,0,,,81,0
102000,note_on,0,0,3,,,,,,,,,2,,,41,0
102000,note_on,0,0,1,,,,,,,,,0,,,81,101
102000,note_on,0,0,1,,,,,,,,,0,,,69,101
102000,note_on,240,0,3,,,,,,,,,2,,,53,0
102000,note_on,0,0,1,,,,,,,,,0,,,77,0
102000,note_on,0,0,1,,,,,,,,,0,,,74,0
102000,note_on,240,0,1,,,,,,,,,0,,,86,0
102000,note_on,0,0,1,,,,,,,,,0,,,81,0
102000,note_on,0,0,3,,,,,,,,,2,,,57,88
102000,note_on,0,0,3,,,,,,,,,2,,,45,88
102000,note_on,0,0,3,,,,,,,,,2,,,50,0
102000,note_on,0,0,3,,,,,,,,,2,,,45,0
102060,note_on,0,0,1,,,,,,,,,0,,,69,0
102060,note_on,60,0,3,,,,,,,,,2,,,57,0
102060,note_on,60,0,1,,,,,,,,,0,,,81,0
102060,note_on,0,0,3,,,,,,,,,2,,,45,0
102240,note_on,0,0,1,,,,,,,,,0,,,88,101
102240,note_on,0,0,1,,,,,,,,,0,,,85,101
102240,note_on,0,0,1,,,,,,,,,0,,,81,101
102240,note_on,0,0,3,,,,,,,,,2,,,52,88
102240,note_on,0,0,3,,,,,,,,,2,,,45,88
102240,note_on,180,0,3,,,,,,,,,2,,,40,88
102240,note_on,180,0,1,,,,,,,,,0,,,76,101
102240,note_on,0,0,3,,,,,,,,,2,,,49,88
102480,note_on,0,0,1,,,,,,,,,0,,,81,0
102480,note_on,240,0,1,,,,,,,,,0,,,88,0
102480,note_on,0,0,1,,,,,,,,,0,,,81,101
102480,note_on,0,0,1,,,,,,,,,0,,,69,101
102480,note_on,0,0,1,,,,,,,,,0,,,85,0
102480,note_on,0,0,1,,,,,,,,,0,,,76,0
102480,note_on,0,0,3,,,,,,,,,2,,,40,0
102480,note_on,0,0,3,,,,,,,,,2,,,45,0
102480,note_on,0,0,3,,,,,,,,,2,,,49,0
102480,note_on,0,0,3,,,,,,,,,2,,,45,88
102480,note_on,0,0,3,,,,,,,,,2,,,57,88
102480,note_on,240,0,3,,,,,,,,,2,,,52,0
102540,note_on,0,0,1,,,,,,,,,0,,,69,0
102540,note_on,60,0,1,,,,,,,,,0,,,81,0
102540,note_on,60,0,3,,,,,,,,,2,,,57,0
102540,note_on,0,0,3,,,,,,,,,2,,,45,0
102720,note_on,0,0,3,,,,,,,,,2,,,45,88
102720,note_on,0,0,1,,,,,,,,,0,,,89,101
102720,note_on,180,0,3,,,,,,,,,2,,,41,88
102720,note_on,0,0,1,,,,,,,,,0,,,81,101
102720,note_on,180,0,1,,,,,,,,,0,,,77,101
102720,note_on,0,0,1,,,,,,,,,0,,,86,101
102720,note_on,0,0,3,,,,,,,,,2,,,48,88
102720,note_on,0,0,3,,,,,,,,,2,,,53,88
102960,note_on,0,0,3,,,,,,,,,2,,,57,88
102960,note_on,0,0,1,,,,,,,,,0,,,81,101
102960,note_on,0,0,1,,,,,,,,,0,,,69,101
102960,note_on,0,0,1,,,,,,,,,0,,,86,0
102960,note_on,0,0,3,,,,,,,,,2,,,45,88
102960,note_on,0,0,1,,,,,,,,,0,,,77,0
102960,note_on,240,0,1,,,,,,,,,0,,,89,0
102960,note_on,240,0,3,,,,,,,,,2,,,53,0
102960,note_on,0,0,3,,,,,,,,,2,,,41,0
102960,note_on,0,0,3,,,,,,,,,2,,,45,0
102960,note_on,0,0,1,,,,,,,,,0,,,81,0
102960,note_on,0,0,3,,,,,,,,,2,,,48,0
103020,note_on,0,0,3,,,,,,,,,2,,,45,0
103020,note_on,0,0,1,,,,,,,,,0,,,69,0
103020,note_on,60,0,1,,,,,,,,,0,,,81,0
103020,note_on,60,0,3,,,,,,,,,2,,,57,0
103200,note_on,0,0,1,,,,,,,,,0,,,88,101
103200,note_on,0,0,1,,,,,,,,,0,,,85,101
103200,note_on,0,0,1,,,,,,,,,0,,,81,101
103200,note_on,180,0,1,,,,,,,,,0,,,76,101
103200,note_on,180,0,3,,,,,,,,,2,,,40,88
103200,note_on,0,0,3,,,,,,,,,2,,,45,88
103200,note_on,0,0,3,,,,,,,,,2,,,49,88
103200,note_on,0,0,3,,,,,,,,,2,,,52,88
103440,note_on,0,0,1,,,,,,,,,0,,,81,101
103440,note_on,0,0,3,,,,,,,,,2,,,45,0
103440,note_on,0,0,3,,,,,,,,,2,,,40,0
103440,note_on,0,0,1,,,,,,,,,0,,,69,101
103440,note_on,0,0,1,,,,,,,,,0,,,85,0
103440,note_on,0,0,3,,,,,,,,,2,,,49,0
103440,note_on,0,0,1,,,,,,,,,0,,,76,0
103440,note_on,240,0,1,,,,,,,,,0,,,88,0
103440,note_on,240,0,3,,,,,,,,,2,,,52,0
103440,note_on,0,0,3,,,,,,,,,2,,,57,88
103440,note_on,0,0,3,,,,,,,,,2,,,45,88
103440,note_on,0,0,1,,,,,,,,,0,,,81,0
103500,note_on,60,0,3,,,,,,,,,2,,,57,0
103500,note_on,0,0,3,,,,,,,,,2,,,45,0
103500,note_on,60,0,1,,,,,,,,,0,,,81,0
103500,note_on,0,0,1,,,,,,,,,0,,,69,0
103560,note_on,60,0,3,,,,,,,,,2,,,57,101
103560,note_on,0,0,3,,,,,,,,,2,,,69,101
103650,note_on,90,0,3,,,,,,,,,2,,,69,0
103650,note_on,0,0,3,,,,,,,,,2,,,57,0
103650,note_on,0,0,3,,,,,,,,,2,,,55,101
103650,note_on,0,0,3,,,,,,,,,2,,,67,101
103680,note_on,0,0,1,,,,,,,,,0,,,86,101
103680,note_on,0,0,1,,,,,,,,,0,,,81,101
103680,note_on,0,0,3,,,,,,,,,2,,,53,101
103680,control_change,0,0,3,,,,,,,,,2,64,127,,
103680,note_on,0,0,3,,,,,,,,,2,,,65,101
103680,note_on,30,0,3,,,,,,,,,2,,,67,0
103680,note_on,180,0,1,,,,,,,,,0,,,74,101
103680,note_on,0,0,1,,,,,,,,,0,,,77,101
103680,note_on,0,0,3,,,,,,,,,2,,,55,0
103770,note_on,90,0,3,,,,,,,,,2,,,65,0
103770,note_on,0,0,3,,,,,,,,,2,,,53,0
103770,note_on,0,0,3,,,,,,,,,2,,,52,101
103770,note_on,0,0,3,,,,,,,,,2,,,64,101
103800,note_on,0,0,3,,,,,,,,,2,,,62,101
103800,note_on,0,0,3,,,,,,,,,2,,,52,0
103800,note_on,30,0,3,,,,,,,,,2,,,64,0
103800,note_on,0,0,3,,,,,,,,,2,,,50,101
103890,note_on,90,0,3,,,,,,,,,2,,,62,0
103890,note_on,0,0,3,,,,,,,,,2,,,50,0
103890,note_on,0,0,3,,,,,,,,,2,,,49,101
103890,note_on,0,0,3,,,,,,,,,2,,,61,101
103920,note_on,30,0,3,,,,,,,,,2,,,61,0
103920,control_change,0,0,3,,,,,,,,,2,64,0,,
103920,note_on,0,0,3,,,,,,,,,2,,,49,0
103920,note_on,0,0,3,,,,,,,,,2,,,62,101
103920,note_on,240,0,1,,,,,,,,,0,,,86,0
103920,note_on,0,0,1,,,,,,,,,0,,,74,0
103920,note_on,0,0,1,,,,,,,,,0,,,77,0
103920,note_on,0,0,1,,,,,,,,,0,,,69,101
103920,note_on,0,0,1,,,,,,,,,0,,,81,101
103920,note_on,0,0,3,,,,,,,,,2,,,50,101
103920,note_on,0,0,1,,,,,,,,,0,,,81,0
103980,note_on,0,0,1,,,,,,,,,0,,,69,0
103980,note_on,60,0,1,,,,,,,,,0,,,81,0
104010,note_on,90,0,3,,,,,,,,,2,,,62,0
104010,note_on,0,0,3,,,,,,,,,2,,,50,0
104010,note_on,0,0,3,,,,,,,,,2,,,48,101
104010,note_on,0,0,3,,,,,,,,,2,,,60,101
104040,note_on,0,0,3,,,,,,,,,2,,,58,101
104040,note_on,0,0,3,,,,,,,,,2,,,48,0
104040,note_on,30,0,3,,,,,,,,,2,,,60,0
104040,note_on,0,0,3,,,,,,,,,2,,,46,101
104130,note_on,90,0,3,,,,,,,,,2,,,58,0
104130,note_on,0,0,3,,,,,,,,,2,,,46,0
104130,note_on,0,0,3,,,,,,,,,2,,,45,101
104130,note_on,0,0,3,,,,,,,,,2,,,57,101
104160,note_on,0,0,3,,,,,,,,,2,,,55,101
104160,note_on,180,0,1,,,,,,,,,0,,,76,101
104160,note_on,0,0,1,,,,,,,,,0,,,85,101
104160,note_on,0,0,1,,,,,,,,,0,,,88,101
104160,control_change,0,0,3,,,,,,,,,2,64,127,,
104160,note_on,0,0,3,,,,,,,,,2,,,45,0
104160,note_on,30,0,3,,,,,,,,,2,,,57,0
104160,note_on,0,0,1,,,,,,,,,0,,,81,101
104160,note_on,0,0,3,,,,,,,,,2,,,43,101
104250,note_on,0,0,3,,,,,,,,,2,,,43,0
104250,note_on,0,0,3,,,,,,,,,2,,,53,101
104250,note_on,0,0,3,,,,,,,,,2,,,41,101
104250,note_on,90,0,3,,,,,,,,,2,,,55,0
104280,note_on,30,0,3,,,,,,,,,2,,,53,0
104280,note_on,0,0,3,,,,,,,,,2,,,41,0
104280,note_on,0,0,3,,,,,,,,,2,,,40,101
104280,note_on,0,0,3,,,,,,,,,2,,,52,101
104370,note_on,90,0,3,,,,,,,,,2,,,52,0
104370,note_on,0,0,3,,,,,,,,,2,,,40,0
104370,note_on,0,0,3,,,,,,,,,2,,,38,101
104370,note_on,0,0,3,,,,,,,,,2,,,50,101
104400,note_on,240,0,1,,,,,,,,,0,,,88,0
104400,note_on,0,0,1,,,,,,,,,0,,,76,0
104400,note_on,0,0,1,,,,,,,,,0,,,69,101
104400,note_on,0,0,1,,,,,,,,,0,,,81,101
104400,note_on,0,0,3,,,,,,,,,2,,,49,101
104400,note_on,0,0,3,,,,,,,,,2,,,37,101
104400,control_change,0,0,3,,,,,,,,,2,64,0,,
104400,note_on,0,0,3,,,,,,,,,2,,,38,0
104400,note_on,30,0,3,,,,,,,,,2,,,50,0
104400,note_on,0,0,1,,,,,,,,,0,,,85,0
104400,note_on,0,0,1,,,,,,,,,0,,,81,0
104460,note_on,0,0,1,,,,,,,,,0,,,69,0
104460,note_on,60,0,1,,,,,,,,,0,,,81,0
104490,note_on,90,0,3,,,,,,,,,2,,,49,0
104490,note_on,0,0,3,,,,,,,,,2,,,37,0
104490,note_on,0,0,3,,,,,,,,,2,,,34,101
104490,note_on,0,0,3,,,,,,,,,2,,,46,101
104520,note_on,0,0,3,,,,,,,,,2,,,33,101
104520,note_on,0,0,3,,,,,,,,,2,,,45,101
104520,note_on,0,0,3,,,,,,,,,2,,,34,0
104520,note_on,30,0,3,,,,,,,,,2,,,46,0
104610,note_on,0,0,3,,,,,,,,,2,,,31,101
104610,note_on,0,0,3,,,,,,,,,2,,,33,0
104610,note_on,90,0,3,,,,,,,,,2,,,45,0
104610,note_on,0,0,3,,,,,,,,,2,,,43,101
104640,note_on,30,0,3,,,,,,,,,2,,,43,0
104640,note_on,0,0,3,,,,,,,,,2,,,31,0
104640,control_change,0,0,3,,,,,,,,,2,64,127,,
104640,note_on,0,0,3,,,,,,,,,2,,,29,101
104640,note_on,0,0,3,,,,,,,,,2,,,41,101
104640,note_on,0,0,1,,,,,,,,,0,,,86,101
104640,note_on,180,0,1,,,,,,,,,0,,,77,101
104640,note_on,0,0,1,,,,,,,,,0,,,81,101
104640,note_on,0,0,1,,,,,,,,,0,,,89,101
104730,note_on,0,0,3,,,,,,,,,2,,,55,101
104730,note_on,90,0,3,,,,,,,,,2,,,41,0
104730,note_on,0,0,3,,,,,,,,,2,,,29,0
104730,note_on,0,0,3,,,,,,,,,2,,,67,101
104760,note_on,30,0,3,,,,,,,,,2,,,67,0
104760,note_on,0,0,3,,,,,,,,,2,,,55,0
104760,note_on,0,0,3,,,,,,,,,2,,,53,101
104760,note_on,0,0,3,,,,,,,,,2,,,65,101
104850,note_on,90,0,3,,,,,,,,,2,,,65,0
104850,note_on,0,0,3,,,,,,,,,2,,,53,0
104850,note_on,0,0,3,,,,,,,,,2,,,52,101
104850,note_on,0,0,3,,,,,,,,,2,,,64,101
104880,note_on,30,0,3,,,,,,,,,2,,,64,0
104880,note_on,240,0,1,,,,,,,,,0,,,89,0
104880,note_on,0,0,1,,,,,,,,,0,,,81,0
104880,note_on,0,0,1,,,,,,,,,0,,,69,101
104880,note_on,0,0,1,,,,,,,,,0,,,81,101
104880,note_on,0,0,3,,,,,,,,,2,,,62,101
104880,note_on,0,0,3,,,,,,,,,2,,,50,101
104880,control_change,0,0,3,,,,,,,,,2,64,0,,
104880,note_on,0,0,3,,,,,,,,,2,,,52,0
104880,note_on,0,0,1,,,,,,,,,0,,,77,0
104880,note_on,0,0,1,,,,,,,,,0,,,86,0
104940,note_on,60,0,1,,,,,,,,,0,,,81,0
104940,note_on,0,0,1,,,,,,,,,0,,,69,0
104970,note_on,90,0,3,,,,,,,,,2,,,62,0
104970,note_on,0,0,3,,,,,,,,,2,,,48,101
104970,note_on,0,0,3,,,,,,,,,2,,,50,0
104970,note_on,0,0,3,,,,,,,,,2,,,60,101
105000,note_on,30,0,3,,,,,,,,,2,,,60,0
105000,note_on,0,0,3,,,,,,,,,2,,,46,101
105000,note_on,0,0,3,,,,,,,,,2,,,58,101
105000,note_on,0,0,3,,,,,,,,,2,,,48,0
105090,note_on,0,0,3,,,,,,,,,2,,,57,101
105090,note_on,0,0,3,,,,,,,,,2,,,46,0
105090,note_on,90,0,3,,,,,,,,,2,,,58,0
105090,note_on,0,0,3,,,,,,,,,2,,,45,101
105120,note_on,30,0,3,,,,,,,,,2,,,57,0
105120,control_change,0,0,3,,,,,,,,,2,64,127,,
105120,note_on,0,0,3,,,,,,,,,2,,,43,101
105120,note_on,0,0,3,,,,,,,,,2,,,55,101
105120,note_on,0,0,1,,,,,,,,,0,,,81,101
105120,note_on,0,0,1,,,,,,,,,0,,,85,101
105120,note_on,180,0,1,,,,,,,,,0,,,76,101
105120,note_on,0,0,1,,,,,,,,,0,,,88,101
105120,note_on,0,0,3,,,,,,,,,2,,,45,0
105210,note_on,0,0,3,,,,,,,,,2,,,53,101
105210,note_on,0,0,3,,,,,,,,,2,,,41,101
105210,note_on,90,0,3,,,,,,,,,2,,,55,0
105210,note_on,0,0,3,,,,,,,,,2,,,43,0
105240,note_on,0,0,3,,,,,,,,,2,,,41,0
105240,note_on,0,0,3,,,,,,,,,2,,,52,101
105240,note_on,0,0,3,,,,,,,,,2,,,40,101
105240,note_on,30,0,3,,,,,,,,,2,,,53,0
105330,note_on,0,0,3,,,,,,,,,2,,,40,0
105330,note_on,90,0,3,,,,,,,,,2,,,52,0
105330,note_on,0,0,3,,,,,,,,,2,,,38,101
105330,note_on,0,0,3,,,,,,,,,2,,,50,101
105360,note_on,0,0,1,,,,,,,,,0,,,69,101
105360,note_on,240,0,1,,,,,,,,,0,,,88,0
105360,note_on,0,0,1,,,,,,,,,0,,,76,0
105360,note_on,0,0,1,,,,,,,,,0,,,81,0
105360,note_on,0,0,1,,,,,,,,,0,,,85,0
105360,note_on,0,0,3,,,,,,,,,2,,,49,101
105360,note_on,0,0,3,,,,,,,,,2,,,37,101
105360,control_change,0,0,3,,,,,,,,,2,64,0,,
105360,note_on,0,0,1,,,,,,,,,0,,,81,101
105360,note_on,30,0,3,,,,,,,,,2,,,50,0
105360,note_on,0,0,3,,,,,,,,,2,,,38,0
105420,note_on,60,0,1,,,,,,,,,0,,,81,0
105420,note_on,0,0,1,,,,,,,,,0,,,69,0
105450,note_on,90,0,3,,,,,,,,,2,,,49,0
105450,note_on,0,0,3,,,,,,,,,2,,,37,0
105450,note_on,0,0,3,,,,,,,,,2,,,34,101
105450,note_on,0,0,3,,,,,,,,,2,,,46,101
105480,note_on,0,0,3,,,,,,,,,2,,,45,101
105480,note_on,0,0,3,,,,,,,,,2,,,34,0
105480,note_on,30,0,3,,,,,,,,,2,,,46,0
105480,note_on,0,0,3,,,,,,,,,2,,,33,101
105570,note_on,90,0,3,,,,,,,,,2,,,45,0
105570,note_on,0,0,3,,,,,,,,,2,,,33,0
105570,note_on,0,0,3,,,,,,,,,2,,,31,101
105570,note_on,0,0,3,,,,,,,,,2,,,43,101
105600,note_on,180,0,1,,,,,,,,,0,,,77,101
105600,note_on,0,0,1,,,,,,,,,0,,,81,101
105600,note_on,0,0,1,,,,,,,,,0,,,84,101
105600,note_on,30,0,3,,,,,,,,,2,,,43,0
105600,note_on,0,0,3,,,,,,,,,2,,,31,0
105600,control_change,0,0,3,,,,,,,,,2,64,127,,
105600,note_on,0,0,3,,,,,,,,,2,,,29,101
105600,note_on,0,0,3,,,,,,,,,2,,,41,101
105600,note_on,0,0,1,,,,,,,,,0,,,89,101
105690,note_on,0,0,3,,,,,,,,,2,,,29,0
105690,note_on,0,0,3,,,,,,,,,2,,,55,101
105690,note_on,0,0,3,,,,,,,,,2,,,67,101
105690,note_on,90,0,3,,,,,,,,,2,,,41,0
105720,note_on,0,0,3,,,,,,,,,2,,,65,101
105720,note_on,0,0,3,,,,,,,,,2,,,53,101
105720,note_on,0,0,3,,,,,,,,,2,,,55,0
105720,note_on,30,0,3,,,,,,,,,2,,,67,0
105810,note_on,90,0,3,,,,,,,,,2,,,65,0
105810,note_on,0,0,3,,,,,,,,,2,,,52,101
105810,note_on,0,0,3,,,,,,,,,2,,,64,101
105810,note_on,0,0,3,,,,,,,,,2,,,53,0
105840,note_on,240,0,1,,,,,,,,,0,,,89,0
105840,note_on,0,0,1,,,,,,,,,0,,,77,0
105840,note_on,0,0,1,,,,,,,,,0,,,81,0
105840,note_on,0,0,1,,,,,,,,,0,,,84,0
105840,note_on,0,0,1,,,,,,,,,0,,,72,101
105840,note_on,0,0,1,,,,,,,,,0,,,84,101
105840,note_on,30,0,3,,,,,,,,,2,,,64,0
105840,note_on,0,0,3,,,,,,,,,2,,,52,0
105840,note_on,0,0,3,,,,,,,,,2,,,53,101
105840,note_on,0,0,3,,,,,,,,,2,,,65,101
105900,note_on,0,0,1,,,,,,,,,0,,,72,0
105900,note_on,60,0,1,,,,,,,,,0,,,84,0
105930,note_on,0,0,3,,,,,,,,,2,,,52,101
105930,note_on,90,0,3,,,,,,,,,2,,,65,0
105930,note_on,0,0,3,,,,,,,,,2,,,53,0
105930,note_on,0,0,3,,,,,,,,,2,,,64,101
105960,note_on,30,0,3,,,,,,,,,2,,,64,0
105960,note_on,0,0,3,,,,,,,,,2,,,52,0
105960,note_on,0,0,3,,,,,,,,,2,,,62,101
105960,note_on,0,0,3,,,,,,,,,2,,,50,101
106050,control_change,0,0,3,,,,,,,,,2,64,0,,
106050,note_on,0,0,3,,,,,,,,,2,,,50,0
106050,note_on,90,0,3,,,,,,,,,2,,,62,0
106050,note_on,0,0,3,,,,,,,,,2,,,48,101
106050,note_on,0,0,3,,,,,,,,,2,,,60,101
106080,note_on,0,0,1,,,,,,,,,0,,,88,101
106080,note_on,30,0,3,,,,,,,,,2,,,60,0
106080,note_on,0,0,1,,,,,,,,,0,,,91,101
106080,note_on,180,0,1,,,,,,,,,0,,,79,101
106080,note_on,0,0,3,,,,,,,,,2,,,58,101
106080,note_on,0,0,1,,,,,,,,,0,,,84,101
106080,note_on,0,0,3,,,,,,,,,2,,,48,0
106080,note_on,0,0,3,,,,,,,,,2,,,46,101
106080,control_change,0,0,3,,,,,,,,,2,64,127,,
106170,note_on,90,0,3,,,,,,,,,2,,,58,0
106170,note_on,0,0,3,,,,,,,,,2,,,46,0
106170,note_on,0,0,3,,,,,,,,,2,,,45,101
106170,note_on,0,0,3,,,,,,,,,2,,,57,101
106200,note_on,30,0,3,,,,,,,,,2,,,57,0
106200,note_on,0,0,3,,,,,,,,,2,,,45,0
106200,note_on,0,0,3,,,,,,,,,2,,,43,101
106200,note_on,0,0,3,,,,,,,,,2,,,55,101
106290,note_on,0,0,3,,,,,,,,,2,,,41,101
106290,note_on,0,0,3,,,,,,,,,2,,,43,0
106290,note_on,90,0,3,,,,,,,,,2,,,55,0
106290,note_on,0,0,3,,,,,,,,,2,,,53,101
106320,note_on,240,0,1,,,,,,,,,0,,,91,0
106320,note_on,0,0,1,,,,,,,,,0,,,72,101
106320,note_on,0,0,1,,,,,,,,,0,,,88,0
106320,note_on,0,0,1,,,,,,,,,0,,,84,0
106320,note_on,0,0,1,,,,,,,,,0,,,79,0
106320,note_on,0,0,1,,,,,,,,,0,,,84,101
106320,note_on,0,0,3,,,,,,,,,2,,,40,101
106320,note_on,0,0,3,,,,,,,,,2,,,52,101
106320,note_on,0,0,3,,,,,,,,,2,,,41,0
106320,note_on,30,0,3,,,,,,,,,2,,,53,0
106380,note_on,60,0,1,,,,,,,,,0,,,84,0
106380,note_on,0,0,1,,,,,,,,,0,,,72,0
106410,note_on,0,0,3,,,,,,,,,2,,,50,101
106410,note_on,0,0,3,,,,,,,,,2,,,38,101
106410,note_on,90,0,3,,,,,,,,,2,,,52,0
106410,note_on,0,0,3,,,,,,,,,2,,,40,0
106440,note_on,0,0,3,,,,,,,,,2,,,36,101
106440,note_on,0,0,3,,,,,,,,,2,,,48,101
106440,note_on,30,0,3,,,,,,,,,2,,,50,0
106440,note_on,0,0,3,,,,,,,,,2,,,38,0
106530,note_on,0,0,3,,,,,,,,,2,,,46,101
106530,control_change,0,0,3,,,,,,,,,2,64,0,,
106530,note_on,90,0,3,,,,,,,,,2,,,48,0
106530,note_on,0,0,3,,,,,,,,,2,,,34,101
106530,note_on,0,0,3,,,,,,,,,2,,,36,0
106560,note_on,0,0,1,,,,,,,,,0,,,93,101
106560,note_on,0,0,1,,,,,,,,,0,,,88,101
106560,note_on,0,0,1,,,,,,,,,0,,,84,101
106560,note_on,180,0,1,,,,,,,,,0,,,81,101
106560,note_on,0,0,3,,,,,,,,,2,,,45,101
106560,note_on,0,0,3,,,,,,,,,2,,,33,101
106560,control_change,0,0,3,,,,,,,,,2,64,127,,
106560,note_on,0,0,3,,,,,,,,,2,,,34,0
106560,note_on,30,0,3,,,,,,,,,2,,,46,0
106650,note_on,0,0,3,,,,,,,,,2,,,58,101
106650,note_on,0,0,3,,,,,,,,,2,,,33,0
106650,note_on,0,0,3,,,,,,,,,2,,,70,101
106650,note_on,90,0,3,,,,,,,,,2,,,45,0
106680,note_on,30,0,3,,,,,,,,,2,,,70,0
106680,note_on,0,0,3,,,,,,,,,2,,,58,0
106680,note_on,0,0,3,,,,,,,,,2,,,69,101
106680,note_on,0,0,3,,,,,,,,,2,,,57,101
106770,note_on,0,0,3,,,,,,,,,2,,,67,101
106770,note_on,0,0,3,,,,,,,,,2,,,55,101
106770,note_on,0,0,3,,,,,,,,,2,,,57,0
106770,note_on,90,0,3,,,,,,,,,2,,,69,0
106800,note_on,0,0,3,,,,,,,,,2,,,55,0
106800,note_on,30,0,3,,,,,,,,,2,,,67,0
106800,note_on,0,0,3,,,,,,,,,2,,,65,101
106800,note_on,0,0,3,,,,,,,,,2,,,53,101
106800,note_on,240,0,1,,,,,,,,,0,,,93,0
106800,note_on,0,0,1,,,,,,,,,0,,,81,0
106800,note_on,0,0,1,,,,,,,,,0,,,84,0
106800,note_on,0,0,1,,,,,,,,,0,,,88,0
106800,note_on,0,0,1,,,,,,,,,0,,,72,101
106800,note_on,0,0,1,,,,,,,,,0,,,84,101
106860,note_on,0,0,1,,,,,,,,,0,,,72,0
106860,note_on,60,0,1,,,,,,,,,0,,,84,0
106890,note_on,0,0,3,,,,,,,,,2,,,64,101
106890,note_on,0,0,3,,,,,,,,,2,,,53,0
106890,note_on,90,0,3,,,,,,,,,2,,,65,0
106890,note_on,0,0,3,,,,,,,,,2,,,52,101
106920,note_on,0,0,3,,,,,,,,,2,,,52,0
106920,note_on,30,0,3,,,,,,,,,2,,,64,0
106920,note_on,0,0,3,,,,,,,,,2,,,50,101
106920,note_on,0,0,3,,,,,,,,,2,,,62,101
107010,note_on,90,0,3,,,,,,,,,2,,,62,0
107010,note_on,0,0,3,,,,,,,,,2,,,50,0
107010,control_change,0,0,3,,,,,,,,,2,64,0,,
107010,note_on,0,0,3,,,,,,,,,2,,,48,101
107010,note_on,0,0,3,,,,,,,,,2,,,60,101
107040,note_on,0,0,1,,,,,,,,,0,,,88,101
107040,note_on,0,0,3,,,,,,,,,2,,,46,101
107040,control_change,0,0,3,,,,,,,,,2,64,127,,
107040,note_on,0,0,3,,,,,,,,,2,,,48,0
107040,note_on,30,0,3,,,,,,,,,2,,,60,0
107040,note_on,0,0,3,,,,,,,,,2,,,58,101
107040,note_on,0,0,1,,,,,,,,,0,,,84,101
107040,note_on,0,0,1,,,,,,,,,0,,,91,101
107040,note_on,180,0,1,,,,,,,,,0,,,79,101
107130,note_on,90,0,3,,,,,,,,,2,,,58,0
107130,note_on,0,0,3,,,,,,,,,2,,,57,101
107130,note_on,0,0,3,,,,,,,,,2,,,45,101
107130,note_on,0,0,3,,,,,,,,,2,,,46,0
107160,note_on,0,0,3,,,,,,,,,2,,,55,101
107160,note_on,30,0,3,,,,,,,,,2,,,57,0
107160,note_on,0,0,3,,,,,,,,,2,,,45,0
107160,note_on,0,0,3,,,,,,,,,2,,,43,101
107250,note_on,90,0,3,,,,,,,,,2,,,55,0
107250,note_on,0,0,3,,,,,,,,,2,,,41,101
107250,note_on,0,0,3,,,,,,,,,2,,,53,101
107250,note_on,0,0,3,,,,,,,,,2,,,43,0
107280,note_on,240,0,1,,,,,,,,,0,,,91,0
107280,note_on,0,0,1,,,,,,,,,0,,,79,0
107280,note_on,0,0,1,,,,,,,,,0,,,84,0
107280,note_on,0,0,1,,,,,,,,,0,,,88,0
107280,note_on,0,0,1,,,,,,,,,0,,,72,101
107280,note_on,0,0,1,,,,,,,,,0,,,84,101
107280,note_on,30,0,3,,,,,,,,,2,,,53,0
107280,note_on,0,0,3,,,,,,,,,2,,,41,0
107280,note_on,0,0,3,,,,,,,,,2,,,52,101
107280,note_on,0,0,3,,,,,,,,,2,,,40,101
107340,note_on,60,0,1,,,,,,,,,0,,,84,0
107340,note_on,0,0,1,,,,,,,,,0,,,72,0
107370,note_on,90,0,3,,,,,,,,,2,,,52,0
107370,note_on,0,0,3,,,,,,,,,2,,,40,0
107370,note_on,0,0,3,,,,,,,,,2,,,38,101
107370,note_on,0,0,3,,,,,,,,,2,,,50,101
107400,note_on,30,0,3,,,,,,,,,2,,,50,0
107400,note_on,0,0,3,,,,,,,,,2,,,38,0
107400,note_on,0,0,3,,,,,,,,,2,,,36,101
107400,note_on,0,0,3,,,,,,,,,2,,,48,101
107490,note_on,0,0,3,,,,,,,,,2,,,46,101
107490,note_on,0,0,3,,,,,,,,,2,,,34,101
107490,note_on,90,0,3,,,,,,,,,2,,,48,0
107490,note_on,0,0,3,,,,,,,,,2,,,36,0
107490,control_change,0,0,3,,,,,,,,,2,64,0,,
107520,note_on,0,0,1,,,,,,,,,0,,,81,101
107520,note_on,0,0,1,,,,,,,,,0,,,89,101
107520,note_on,0,0,1,,,,,,,,,0,,,84,101
107520,control_change,180,0,1,,,,,,,,,0,64,127,,
107520,note_on,0,0,1,,,,,,,,,0,,,93,101
107520,note_on,0,0,3,,,,,,,,,2,,,41,88
107520,note_on,0,0,3,,,,,,,,,2,,,45,88
107520,note_on,0,0,3,,,,,,,,,2,,,34,0
107520,note_on,30,0,3,,,,,,,,,2,,,46,0
107520,note_on,0,0,3,,,,,,,,,2,,,36,88
107520,note_on,0,0,3,,,,,,,,,2,,,33,88
107610,note_on,90,0,1,,,,,,,,,0,,,93,0
107610,note_on,0,0,1,,,,,,,,,0,,,81,0
107610,note_on,0,0,1,,,,,,,,,0,,,84,0
107610,note_on,0,0,1,,,,,,,,,0,,,77,101
107610,note_on,0,0,1,,,,,,,,,0,,,81,101
107610,note_on,0,0,1,,,,,,,,,0,,,84,101
107610,note_on,0,0,1,,,,,,,,,0,,,89,101
107610,note_on,0,0,1,,,,,,,,,0,,,89,0
107640,note_on,0,0,1,,,,,,,,,0,,,89,101
107640,note_on,0,0,1,,,,,,,,,0,,,81,101
107640,note_on,0,0,1,,,,,,,,,0,,,84,101
107640,note_on,0,0,1,,,,,,,,,0,,,77,0
107640,note_on,0,0,1,,,,,,,,,0,,,84,0
107640,note_on,0,0,1,,,,,,,,,0,,,81,0
107640,note_on,30,0,1,,,,,,,,,0,,,89,0
107640,note_on,0,0,1,,,,,,,,,0,,,77,101
107730,note_on,0,0,1,,,,,,,,,0,,,77,101
107730,note_on,90,0,1,,,,,,,,,0,,,89,0
107730,note_on,0,0,1,,,,,,,,,0,,,77,0
107730,note_on,0,0,1,,,,,,,,,0,,,81,0
107730,note_on,0,0,1,,,,,,,,,0,,,84,0
107730,note_on,0,0,1,,,,,,,,,0,,,84,101
107730,note_on,0,0,1,,,,,,,,,0,,,81,101
107730,note_on,0,0,1,,,,,,,,,0,,,72,101
107760,note_on,0,0,1,,,,,,,,,0,,,81,88
107760,note_on,0,0,1,,,,,,,,,0,,,72,0
107760,note_on,240,0,3,,,,,,,,,2,,,45,0
107760,note_on,0,0,3,,,,,,,,,2,,,33,0
107760,note_on,0,0,3,,,,,,,,,2,,,36,0
107760,note_on,0,0,3,,,,,,,,,2,,,41,0
107760,note_on,0,0,3,,,,,,,,,2,,,45,75
107760,note_on,0,0,3,,,,,,,,,2,,,48,75
107760,note_on,0,0,3,,,,,,,,,2,,,53,75
107760,note_on,0,0,3,,,,,,,,,2,,,57,75
107760,note_on,30,0,1,,,,,,,,,0,,,84,0
107760,note_on,0,0,1,,,,,,,,,0,,,84,88
107760,note_on,0,0,1,,,,,,,,,0,,,77,88
107760,note_on,0,0,1,,,,,,,,,0,,,72,88
107760,note_on,0,0,1,,,,,,,,,0,,,81,0
107760,note_on,0,0,1,,,,,,,,,0,,,77,0
107820,note_on,0,0,3,,,,,,,,,2,,,48,0
107820,note_on,0,0,3,,,,,,,,,2,,,45,0
107820,note_on,60,0,3,,,,,,,,,2,,,57,0
107820,note_on,0,0,3,,,,,,,,,2,,,53,0
107850,note_on,0,0,1,,,,,,,,,0,,,72,88
107850,note_on,0,0,1,,,,,,,,,0,,,81,88
107850,note_on,0,0,1,,,,,,,,,0,,,77,0
107850,note_on,0,0,1,,,,,,,,,0,,,72,0
107850,note_on,90,0,1,,,,,,,,,0,,,84,0
107850,note_on,0,0,1,,,,,,,,,0,,,69,88
107850,note_on,0,0,1,,,,,,,,,0,,,77,88
107850,note_on,0,0,1,,,,,,,,,0,,,81,0
107880,note_on,0,0,1,,,,,,,,,0,,,72,88
107880,note_on,30,0,1,,,,,,,,,0,,,81,0
107880,note_on,0,0,1,,,,,,,,,0,,,69,0
107880,note_on,0,0,1,,,,,,,,,0,,,72,0
107880,note_on,0,0,1,,,,,,,,,0,,,77,0
107880,note_on,0,0,1,,,,,,,,,0,,,69,88
107880,note_on,0,0,1,,,,,,,,,0,,,77,88
107880,note_on,0,0,1,,,,,,,,,0,,,81,88
107886,note_on,0,0,1,,,,,,,,,0,,,77,0
107886,note_on,0,0,1,,,,,,,,,0,,,72,0
107886,note_on,6,0,1,,,,,,,,,0,,,81,0
107886,note_on,0,0,1,,,,,,,,,0,,,69,0
107940,note_on,0,0,1,,,,,,,,,0,,,65,88
107940,note_on,0,0,1,,,,,,,,,0,,,77,88
107940,control_change,54,0,1,,,,,,,,,0,64,0,,
107940,note_on,0,0,1,,,,,,,,,0,,,69,88
107940,note_on,0,0,1,,,,,,,,,0,,,72,88
107946,note_on,6,0,1,,,,,,,,,0,,,77,0
107946,note_on,0,0,1,,,,,,,,,0,,,65,0
107946,note_on,0,0,1,,,,,,,,,0,,,69,0
107946,note_on,0,0,1,,,,,,,,,0,,,72,0
108000,note_on,0,0,3,,,,,,,,,2,,,36,88
108000,note_on,0,0,3,,,,,,,,,2,,,33,88
108000,note_on,180,0,3,,,,,,,,,2,,,29,88
108000,control_change,54,0,1,,,,,,,,,0,64,127,,
108000,note_on,0,0,1,,,,,,,,,0,,,81,101
108000,note_on,0,0,1,,,,,,,,,0,,,84,101
108000,note_on,0,0,1,,,,,,,,,0,,,89,101
108000,note_on,0,0,1,,,,,,,,,0,,,93,101
108000,note_on,0,0,3,,,,,,,,,2,,,41,88
108090,note_on,0,0,1,,,,,,,,,0,,,89,101
108090,note_on,0,0,1,,,,,,,,,0,,,84,101
108090,note_on,0,0,1,,,,,,,,,0,,,81,101
108090,note_on,0,0,1,,,,,,,,,0,,,77,101
108090,note_on,0,0,1,,,,,,,,,0,,,81,0
108090,note_on,0,0,1,,,,,,,,,0,,,84,0
108090,note_on,90,0,1,,,,,,,,,0,,,93,0
108090,note_on,0,0,1,,,,,,,,,0,,,89,0
108120,note_on,30,0,1,,,,,,,,,0,,,89,0
108120,note_on,0,0,1,,,,,,,,,0,,,77,0
108120,note_on,0,0,1,,,,,,,,,0,,,81,0
108120,note_on,0,0,1,,,,,,,,,0,,,84,0
108120,note_on,0,0,1,,,,,,,,,0,,,77,101
108120,note_on,0,0,1,,,,,,,,,0,,,81,101
108120,note_on,0,0,1,,,,,,,,,0,,,84,101
108120,note_on,0,0,1,,,,,,,,,0,,,89,101
108210,note_on,0,0,1,,,,,,,,,0,,,77,101
108210,note_on,0,0,1,,,,,,,,,0,,,81,101
108210,note_on,0,0,1,,,,,,,,,0,,,72,101
108210,note_on,0,0,1,,,,,,,,,0,,,84,101
108210,note_on,0,0,1,,,,,,,,,0,,,81,0
108210,note_on,0,0,1,,,,,,,,,0,,,77,0
108210,note_on,90,0,1,,,,,,,,,0,,,89,0
108210,note_on,0,0,1,,,,,,,,,0,,,84,0
108240,note_on,0,0,1,,,,,,,,,0,,,84,88
108240,note_on,0,0,3,,,,,,,,,2,,,48,75
108240,note_on,240,0,3,,,,,,,,,2,,,41,0
108240,note_on,0,0,3,,,,,,,,,2,,,29,0
108240,note_on,0,0,3,,,,,,,,,2,,,33,0
108240,note_on,0,0,3,,,,,,,,,2,,,36,0
108240,note_on,0,0,3,,,,,,,,,2,,,41,75
108240,note_on,0,0,3,,,,,,,,,2,,,45,75
108240,note_on,0,0,3,,,,,,,,,2,,,53,75
108240,note_on,0,0,1,,,,,,,,,0,,,77,0
108240,note_on,0,0,1,,,,,,,,,0,,,81,0
108240,note_on,30,0,1,,,,,,,,,0,,,84,0
108240,note_on,0,0,1,,,,,,,,,0,,,72,0
108240,note_on,0,0,1,,,,,,,,,0,,,72,88
108240,note_on,0,0,1,,,,,,,,,0,,,77,88
108240,note_on,0,0,1,,,,,,,,,0,,,81,88
108300,note_on,60,0,3,,,,,,,,,2,,,53,0
108300,note_on,0,0,3,,,,,,,,,2,,,45,0
108300,note_on,0,0,3,,,,,,,,,2,,,48,0
108300,note_on,0,0,3,,,,,,,,,2,,,41,0
108330,note_on,0,0,1,,,,,,,,,0,,,81,88
108330,note_on,0,0,1,,,,,,,,,0,,,77,0
108330,note_on,0,0,1,,,,,,,,,0,,,81,0
108330,note_on,0,0,1,,,,,,,,,0,,,69,88
108330,note_on,0,0,1,,,,,,,,,0,,,72,88
108330,note_on,0,0,1,,,,,,,,,0,,,72,0
108330,note_on,90,0,1,,,,,,,,,0,,,84,0
108330,note_on,0,0,1,,,,,,,,,0,,,77,88
108360,note_on,0,0,1,,,,,,,,,0,,,77,0
108360,note_on,30,0,1,,,,,,,,,0,,,81,0
108360,note_on,0,0,1,,,,,,,,,0,,,72,88
108360,note_on,0,0,1,,,,,,,,,0,,,77,88
108360,note_on,0,0,1,,,,,,,,,0,,,72,0
108360,note_on,0,0,1,,,,,,,,,0,,,81,88
108360,note_on,0,0,1,,,,,,,,,0,,,69,0
108360,note_on,0,0,1,,,,,,,,,0,,,69,88
108366,note_on,6,0,1,,,,,,,,,0,,,81,0
108366,note_on,0,0,1,,,,,,,,,0,,,72,0
108366,note_on,0,0,1,,,,,,,,,0,,,77,0
108366,note_on,0,0,1,,,,,,,,,0,,,69,0
108420,control_change,54,0,1,,,,,,,,,0,64,0,,
108420,note_on,0,0,1,,,,,,,,,0,,,65,88
108420,note_on,0,0,1,,,,,,,,,0,,,69,88
108420,note_on,0,0,1,,,,,,,,,0,,,72,88
108420,note_on,0,0,1,,,,,,,,,0,,,77,88
108426,note_on,6,0,1,,,,,,,,,0,,,77,0
108426,note_on,0,0,1,,,,,,,,,0,,,65,0
108426,note_on,0,0,1,,,,,,,,,0,,,69,0
108426,note_on,0,0,1,,,,,,,,,0,,,72,0
108480,note_on,0,0,1,,,,,,,,,0,,,81,88
108480,note_on,0,0,1,,,,,,,,,0,,,93,88
108480,note_on,0,0,1,,,,,,,,,0,,,88,88
108480,note_on,0,0,1,,,,,,,,,0,,,85,88
108480,control_change,54,0,1,,,,,,,,,0,64,127,,
108480,note_on,0,0,3,,,,,,,,,2,,,33,75
108480,note_on,0,0,3,,,,,,,,,2,,,45,75
108480,control_change,180,0,3,,,,,,,,,2,64,127,,
108570,note_on,0,0,1,,,,,,,,,0,,,81,88
108570,note_on,0,0,1,,,,,,,,,0,,,85,88
108570,note_on,0,0,1,,,,,,,,,0,,,88,88
108570,note_on,0,0,1,,,,,,,,,0,,,93,88
108570,note_on,0,0,1,,,,,,,,,0,,,85,0
108570,note_on,0,0,1,,,,,,,,,0,,,81,0
108570,note_on,90,0,1,,,,,,,,,0,,,93,0
108570,note_on,0,0,1,,,,,,,,,0,,,88,0
108570,note_on,0,0,3,,,,,,,,,2,,,49,75
108570,note_on,90,0,3,,,,,,,,,2,,,45,0
108570,note_on,0,0,3,,,,,,,,,2,,,33,0
108570,note_on,0,0,3,,,,,,,,,2,,,37,75
108600,note_on,0,0,1,,,,,,,,,0,,,85,88
108600,note_on,0,0,3,,,,,,,,,2,,,49,75
108600,note_on,0,0,1,,,,,,,,,0,,,81,88
108600,note_on,0,0,1,,,,,,,,,0,,,88,0
108600,note_on,0,0,1,,,,,,,,,0,,,85,0
108600,note_on,0,0,1,,,,,,,,,0,,,88,88
108600,note_on,0,0,1,,,,,,,,,0,,,93,88
108600,note_on,30,0,1,,,,,,,,,0,,,93,0
108600,note_on,30,0,3,,,,,,,,,2,,,49,0
108600,note_on,0,0,3,,,,,,,,,2,,,37,0
108600,note_on,0,0,3,,,,,,,,,2,,,37,75
108600,note_on,0,0,1,,,,,,,,,0,,,81,0
108690,note_on,90,0,3,,,,,,,,,2,,,49,0
108690,note_on,0,0,1,,,,,,,,,0,,,81,0
108690,note_on,0,0,1,,,,,,,,,0,,,85,0
108690,note_on,0,0,1,,,,,,,,,0,,,88,0
108690,note_on,0,0,1,,,,,,,,,0,,,81,88
108690,note_on,0,0,1,,,,,,,,,0,,,85,88
108690,note_on,0,0,1,,,,,,,,,0,,,93,88
108690,note_on,0,0,3,,,,,,,,,2,,,52,75
108690,note_on,0,0,3,,,,,,,,,2,,,40,75
108690,note_on,0,0,3,,,,,,,,,2,,,37,0
108690,note_on,90,0,1,,,,,,,,,0,,,93,0
108690,note_on,0,0,1,,,,,,,,,0,,,88,88
108720,note_on,0,0,1,,,,,,,,,0,,,88,0
108720,note_on,0,0,1,,,,,,,,,0,,,81,0
108720,note_on,0,0,3,,,,,,,,,2,,,40,75
108720,note_on,0,0,3,,,,,,,,,2,,,52,75
108720,note_on,0,0,3,,,,,,,,,2,,,40,0
108720,note_on,0,0,1,,,,,,,,,0,,,93,88
108720,note_on,30,0,3,,,,,,,,,2,,,52,0
108720,note_on,0,0,1,,,,,,,,,0,,,85,88
108720,note_on,0,0,1,,,,,,,,,0,,,85,0
108720,note_on,30,0,1,,,,,,,,,0,,,93,0
108720,note_on,0,0,1,,,,,,,,,0,,,81,88
108720,note_on,0,0,1,,,,,,,,,0,,,88,88
108810,note_on,90,0,3,,,,,,,,,2,,,52,0
108810,note_on,0,0,3,,,,,,,,,2,,,40,0
108810,note_on,0,0,3,,,,,,,,,2,,,45,75
108810,note_on,0,0,3,,,,,,,,,2,,,57,75
108810,note_on,0,0,1,,,,,,,,,0,,,85,88
108810,note_on,0,0,1,,,,,,,,,0,,,88,88
108810,note_on,0,0,1,,,,,,,,,0,,,81,88
108810,note_on,0,0,1,,,,,,,,,0,,,88,0
108810,note_on,0,0,1,,,,,,,,,0,,,85,0
108810,note_on,0,0,1,,,,,,,,,0,,,81,0
108810,note_on,90,0,1,,,,,,,,,0,,,93,0
108810,note_on,0,0,1,,,,,,,,,0,,,93,88
108840,note_on,0,0,3,,,,,,,,,2,,,45,0
108840,note_on,30,0,3,,,,,,,,,2,,,57,0
108840,note_on,0,0,3,,,,,,,,,2,,,45,75
108840,note_on,0,0,3,,,,,,,,,2,,,57,75
108840,note_on,0,0,1,,,,,,,,,0,,,85,0
108840,note_on,0,0,1,,,,,,,,,0,,,88,88
108840,note_on,0,0,1,,,,,,,,,0,,,93,88
108840,note_on,0,0,1,,,,,,,,,0,,,88,0
108840,note_on,0,0,1,,,,,,,,,0,,,85,88
108840,note_on,0,0,1,,,,,,,,,0,,,81,0
108840,note_on,0,0,1,,,,,,,,,0,,,81,88
108840,note_on,30,0,1,,,,,,,,,0,,,93,0
108846,note_on,6,0,3,,,,,,,,,2,,,57,0
108846,note_on,0,0,3,,,,,,,,,2,,,45,0
108846,note_on,0,0,1,,,,,,,,,0,,,85,0
108846,note_on,0,0,1,,,,,,,,,0,,,81,0
108846,note_on,6,0,1,,,,,,,,,0,,,93,0
108846,note_on,0,0,1,,,,,,,,,0,,,88,0
108900,control_change,54,0,3,,,,,,,,,2,64,0,,
108900,note_on,0,0,3,,,,,,,,,2,,,57,75
108900,control_change,54,0,1,,,,,,,,,0,64,0,,
108900,note_on,0,0,3,,,,,,,,,2,,,45,75
108900,note_on,0,0,1,,,,,,,,,0,,,69,88
108900,note_on,0,0,1,,,,,,,,,0,,,73,88
108900,note_on,0,0,1,,,,,,,,,0,,,81,88
108900,note_on,0,0,1,,,,,,,,,0,,,76,88
108906,note_on,6,0,3,,,,,,,,,2,,,57,0
108906,note_on,0,0,3,,,,,,,,,2,,,45,0
108906,note_on,0,0,1,,,,,,,,,0,,,76,0
108906,note_on,6,0,1,,,,,,,,,0,,,81,0
108906,note_on,0,0,1,,,,,,,,,0,,,69,0
108906,note_on,0,0,1,,,,,,,,,0,,,73,0
108960,note_on,0,0,1,,,,,,,,,0,,,73,49
108960,note_on,0,0,1,,,,,,,,,0,,,76,49
108960,note_on,0,0,3,,,,,,,,,2,,,57,62
108960,control_change,54,0,1,,,,,,,,,0,64,127,,
108960,control_change,54,0,3,,,,,,,,,2,64,127,,
108960,note_on,0,0,1,,,,,,,,,0,,,69,49
108960,note_on,0,0,1,,,,,,,,,0,,,81,49
109050,note_on,0,0,3,,,,,,,,,2,,,61,62
109050,note_on,90,0,3,,,,,,,,,2,,,57,0
109050,note_on,0,0,1,,,,,,,,,0,,,76,0
109050,note_on,0,0,1,,,,,,,,,0,,,76,49
109050,note_on,0,0,1,,,,,,,,,0,,,73,49
109050,note_on,0,0,1,,,,,,,,,0,,,73,0
109050,note_on,0,0,1,,,,,,,,,0,,,69,0
109050,note_on,90,0,1,,,,,,,,,0,,,81,0
109050,note_on,0,0,1,,,,,,,,,0,,,81,49
109080,note_on,30,0,3,,,,,,,,,2,,,61,0
109080,note_on,0,0,3,,,,,,,,,2,,,61,62
109080,note_on,30,0,1,,,,,,,,,0,,,81,0
109080,note_on,0,0,1,,,,,,,,,0,,,76,0
109080,note_on,0,0,1,,,,,,,,,0,,,73,0
109080,note_on,0,0,1,,,,,,,,,0,,,73,49
109080,note_on,0,0,1,,,,,,,,,0,,,76,49
109080,note_on,0,0,1,,,,,,,,,0,,,81,49
109170,note_on,0,0,3,,,,,,,,,2,,,64,62
109170,note_on,90,0,1,,,,,,,,,0,,,81,0
109170,note_on,0,0,1,,,,,,,,,0,,,76,0
109170,note_on,0,0,1,,,,,,,,,0,,,73,0
109170,note_on,0,0,1,,,,,,,,,0,,,76,49
109170,note_on,90,0,3,,,,,,,,,2,,,61,0
109170,note_on,0,0,1,,,,,,,,,0,,,73,49
109170,note_on,0,0,1,,,,,,,,,0,,,81,49
109200,note_on,30,0,3,,,,,,,,,2,,,64,0
109200,note_on,0,0,3,,,,,,,,,2,,,64,62
109200,note_on,0,0,1,,,,,,,,,0,,,81,49
109200,note_on,0,0,1,,,,,,,,,0,,,76,49
109200,note_on,0,0,1,,,,,,,,,0,,,73,49
109200,note_on,0,0,1,,,,,,,,,0,,,73,0
109200,note_on,0,0,1,,,,,,,,,0,,,76,0
109200,note_on,30,0,1,,,,,,,,,0,,,81,0
109290,note_on,0,0,1,,,,,,,,,0,,,76,0
109290,note_on,0,0,1,,,,,,,,,0,,,73,49
109290,note_on,90,0,1,,,,,,,,,0,,,81,0
109290,note_on,0,0,1,,,,,,,,,0,,,73,0
109290,note_on,0,0,3,,,,,,,,,2,,,69,62
109290,note_on,0,0,1,,,,,,,,,0,,,81,49
109290,note_on,0,0,1,,,,,,,,,0,,,76,49
109290,note_on,90,0,3,,,,,,,,,2,,,64,0
109320,note_on,30,0,3,,,,,,,,,2,,,69,0
109320,note_on,0,0,3,,,,,,,,,2,,,69,62
109320,note_on,0,0,1,,,,,,,,,0,,,81,49
109320,note_on,0,0,1,,,,,,,,,0,,,76,49
109320,note_on,0,0,1,,,,,,,,,0,,,73,49
109320,note_on,0,0,1,,,,,,,,,0,,,73,0
109320,note_on,0,0,1,,,,,,,,,0,,,76,0
109320,note_on,30,0,1,,,,,,,,,0,,,81,0
109326,note_on,6,0,3,,,,,,,,,2,,,69,0
109326,note_on,0,0,1,,,,,,,,,0,,,73,0
109326,note_on,6,0,1,,,,,,,,,0,,,81,0
109326,note_on,0,0,1,,,,,,,,,0,,,76,0
109380,note_on,0,0,1,,,,,,,,,0,,,76,49
109380,control_change,54,0,1,,,,,,,,,0,64,0,,
109380,note_on,0,0,1,,,,,,,,,0,,,81,49
109380,note_on,0,0,1,,,,,,,,,0,,,73,49
109380,control_change,54,0,3,,,,,,,,,2,64,0,,
109380,note_on,0,0,3,,,,,,,,,2,,,69,62
109386,note_on,0,0,1,,,,,,,,,0,,,73,0
109386,note_on,0,0,1,,,,,,,,,0,,,76,0
109386,note_on,6,0,1,,,,,,,,,0,,,81,0
109386,note_on,6,0,3,,,,,,,,,2,,,69,0
109440,note_on,0,0,1,,,,,,,,,0,,,81,49
109440,note_on,0,0,1,,,,,,,,,0,,,77,49
109440,note_on,0,0,1,,,,,,,,,0,,,72,49
109440,control_change,54,0,1,,,,,,,,,0,64,127,,
109440,note_on,0,0,3,,,,,,,,,2,,,69,36
109440,note_on,0,0,3,,,,,,,,,2,,,65,36
109440,control_change,54,0,3,,,,,,,,,2,64,127,,
109530,note_on,90,0,1,,,,,,,,,0,,,81,0
109530,note_on,0,0,1,,,,,,,,,0,,,72,0
109530,note_on,90,0,3,,,,,,,,,2,,,69,0
109530,note_on,0,0,1,,,,,,,,,0,,,72,49
109530,note_on,0,0,3,,,,,,,,,2,,,65,0
109530,note_on,0,0,3,,,,,,,,,2,,,65,36
109530,note_on,0,0,1,,,,,,,,,0,,,77,0
109530,note_on,0,0,3,,,,,,,,,2,,,69,36
109530,note_on,0,0,1,,,,,,,,,0,,,77,49
109530,note_on,0,0,1,,,,,,,,,0,,,81,49
109560,note_on,0,0,1,,,,,,,,,0,,,81,49
109560,note_on,0,0,1,,,,,,,,,0,,,77,49
109560,note_on,0,0,1,,,,,,,,,0,,,72,0
109560,note_on,0,0,3,,,,,,,,,2,,,69,36
109560,note_on,30,0,1,,,,,,,,,0,,,81,0
109560,note_on,0,0,3,,,,,,,,,2,,,65,36
109560,note_on,0,0,3,,,,,,,,,2,,,65,0
109560,note_on,30,0,3,,,,,,,,,2,,,69,0
109560,note_on,0,0,1,,,,,,,,,0,,,77,0
109560,note_on,0,0,1,,,,,,,,,0,,,72,49
109650,note_on,90,0,1,,,,,,,,,0,,,81,0
109650,note_on,0,0,1,,,,,,,,,0,,,77,0
109650,note_on,0,0,1,,,,,,,,,0,,,72,0
109650,note_on,0,0,1,,,,,,,,,0,,,72,49
109650,note_on,0,0,1,,,,,,,,,0,,,77,49
109650,note_on,0,0,1,,,,,,,,,0,,,81,49
109650,note_on,90,0,3,,,,,,,,,2,,,69,0
109650,note_on,0,0,3,,,,,,,,,2,,,65,0
109650,note_on,0,0,3,,,,,,,,,2,,,65,36
109650,note_on,0,0,3,,,,,,,,,2,,,69,36
109680,note_on,0,0,1,,,,,,,,,0,,,72,0
109680,note_on,0,0,1,,,,,,,,,0,,,81,49
109680,note_on,0,0,1,,,,,,,,,0,,,77,49
109680,note_on,0,0,1,,,,,,,,,0,,,72,49
109680,note_on,30,0,1,,,,,,,,,0,,,81,0
109680,note_on,30,0,3,,,,,,,,,2,,,69,0
109680,note_on,0,0,1,,,,,,,,,0,,,77,0
109680,note_on,0,0,3,,,,,,,,,2,,,65,0
109680,note_on,0,0,3,,,,,,,,,2,,,65,36
109680,note_on,0,0,3,,,,,,,,,2,,,69,36
109770,note_on,90,0,1,,,,,,,,,0,,,81,0
109770,note_on,0,0,1,,,,,,,,,0,,,72,49
109770,note_on,0,0,1,,,,,,,,,0,,,72,0
109770,note_on,0,0,1,,,,,,,,,0,,,77,0
109770,note_on,0,0,3,,,,,,,,,2,,,69,36
109770,note_on,0,0,3,,,,,,,,,2,,,65,36
109770,note_on,0,0,3,,,,,,,,,2,,,65,0
109770,note_on,90,0,3,,,,,,,,,2,,,69,0
109770,note_on,0,0,1,,,,,,,,,0,,,77,49
109770,note_on,0,0,1,,,,,,,,,0,,,81,49
109800,note_on,0,0,1,,,,,,,,,0,,,72,0
109800,note_on,0,0,1,,,,,,,,,0,,,77,0
109800,note_on,30,0,1,,,,,,,,,0,,,81,0
109800,note_on,0,0,1,,,,,,,,,0,,,72,49
109800,note_on,0,0,3,,,,,,,,,2,,,69,36
109800,note_on,30,0,3,,,,,,,,,2,,,69,0
109800,note_on,0,0,3,,,,,,,,,2,,,65,0
109800,note_on,0,0,1,,,,,,,,,0,,,77,49
109800,note_on,0,0,3,,,,,,,,,2,,,65,36
109800,note_on,0,0,1,,,,,,,,,0,,,81,49
109806,note_on,6,0,1,,,,,,,,,0,,,81,0
109806,note_on,0,0,1,,,,,,,,,0,,,72,0
109806,note_on,0,0,1,,,,,,,,,0,,,77,0
109806,note_on,6,0,3,,,,,,,,,2,,,69,0
109806,note_on,0,0,3,,,,,,,,,2,,,65,0
109860,note_on,0,0,1,,,,,,,,,0,,,72,49
109860,control_change,54,0,3,,,,,,,,,2,64,0,,
109860,note_on,0,0,3,,,,,,,,,2,,,65,36
109860,note_on,0,0,3,,,,,,,,,2,,,69,36
109860,control_change,54,0,1,,,,,,,,,0,64,0,,
109860,note_on,0,0,1,,,,,,,,,0,,,77,49
109860,note_on,0,0,1,,,,,,,,,0,,,81,49
109866,note_on,6,0,3,,,,,,,,,2,,,69,0
109866,note_on,0,0,1,,,,,,,,,0,,,72,0
109866,note_on,0,0,1,,,,,,,,,0,,,77,0
109866,note_on,0,0,3,,,,,,,,,2,,,65,0
109866,note_on,6,0,1,,,,,,,,,0,,,81,0
109920,note_on,0,0,1,,,,,,,,,0,,,77,49
109920,control_change,54,0,1,,,,,,,,,0,64,127,,
109920,note_on,0,0,3,,,,,,,,,2,,,53,62
109920,note_on,0,0,1,,,,,,,,,0,,,81,49
109920,note_on,0,0,1,,,,,,,,,0,,,72,49
109920,note_on,54,0,3,,,,,,,,,2,,,41,54
110010,note_on,0,0,1,,,,,,,,,0,,,77,0
110010,note_on,0,0,1,,,,,,,,,0,,,74,49
110010,note_on,0,0,1,,,,,,,,,0,,,77,49
110010,note_on,0,0,1,,,,,,,,,0,,,82,49
110010,note_on,90,0,1,,,,,,,,,0,,,81,0
110010,note_on,0,0,1,,,,,,,,,0,,,72,0
110040,note_on,30,0,1,,,,,,,,,0,,,82,0
110040,note_on,0,0,1,,,,,,,,,0,,,77,0
110040,note_on,0,0,1,,,,,,,,,0,,,74,0
110040,note_on,0,0,1,,,,,,,,,0,,,72,49
110040,note_on,0,0,1,,,,,,,,,0,,,77,49
110040,note_on,0,0,1,,,,,,,,,0,,,81,49
110130,note_on,0,0,1,,,,,,,,,0,,,79,49
110130,note_on,90,0,1,,,,,,,,,0,,,81,0
110130,note_on,0,0,1,,,,,,,,,0,,,77,0
110130,note_on,0,0,1,,,,,,,,,0,,,72,0
110130,note_on,0,0,1,,,,,,,,,0,,,70,49
110130,note_on,0,0,1,,,,,,,,,0,,,72,49
110160,note_on,0,0,3,,,,,,,,,2,,,45,54
110160,note_on,0,0,3,,,,,,,,,2,,,57,62
110160,note_on,30,0,1,,,,,,,,,0,,,79,0
110160,note_on,240,0,3,,,,,,,,,2,,,53,0
110160,note_on,0,0,3,,,,,,,,,2,,,41,0
110160,note_on,0,0,1,,,,,,,,,0,,,77,49
110160,note_on,0,0,1,,,,,,,,,0,,,72,49
110160,note_on,0,0,1,,,,,,,,,0,,,69,49
110160,note_on,0,0,1,,,,,,,,,0,,,72,0
110160,note_on,0,0,1,,,,,,,,,0,,,70,0
110220,note_on,0,0,3,,,,,,,,,2,,,45,0
110220,note_on,60,0,3,,,,,,,,,2,,,57,0
110250,note_on,90,0,1,,,,,,,,,0,,,77,0
110250,note_on,0,0,1,,,,,,,,,0,,,72,49
110250,note_on,0,0,1,,,,,,,,,0,,,70,49
110250,note_on,0,0,1,,,,,,,,,0,,,69,0
110250,note_on,0,0,1,,,,,,,,,0,,,72,0
110250,note_on,0,0,1,,,,,,,,,0,,,79,49
110280,note_on,30,0,1,,,,,,,,,0,,,79,0
110280,note_on,0,0,1,,,,,,,,,0,,,72,0
110280,note_on,0,0,1,,,,,,,,,0,,,77,49
110280,note_on,0,0,1,,,,,,,,,0,,,72,49
110280,note_on,0,0,1,,,,,,,,,0,,,69,49
110280,note_on,0,0,1,,,,,,,,,0,,,70,0
110370,note_on,0,0,1,,,,,,,,,0,,,70,49
110370,note_on,0,0,1,,,,,,,,,0,,,65,49
110370,note_on,0,0,1,,,,,,,,,0,,,69,0
110370,note_on,0,0,1,,,,,,,,,0,,,72,0
110370,note_on,90,0,1,,,,,,,,,0,,,77,0
110370,note_on,0,0,1,,,,,,,,,0,,,74,49
110370,control_change,0,0,1,,,,,,,,,0,64,0,,
110400,note_on,0,0,1,,,,,,,,,0,,,72,75
110400,note_on,0,0,1,,,,,,,,,0,,,70,70
110400,note_on,0,0,1,,,,,,,,,0,,,64,65
110400,note_on,0,0,3,,,,,,,,,2,,,55,36
110400,note_on,0,0,1,,,,,,,,,0,,,70,0
110400,note_on,30,0,1,,,,,,,,,0,,,74,0
110400,note_on,180,0,3,,,,,,,,,2,,,48,36
110400,control_change,0,0,1,,,,,,,,,0,64,127,,
110400,note_on,0,0,1,,,,,,,,,0,,,65,0
110490,note_on,90,0,1,,,,,,,,,0,,,72,0
110490,note_on,0,0,1,,,,,,,,,0,,,65,49
110490,note_on,0,0,1,,,,,,,,,0,,,70,0
110490,note_on,0,0,1,,,,,,,,,0,,,64,0
110490,note_on,0,0,1,,,,,,,,,0,,,70,49
110490,note_on,0,0,1,,,,,,,,,0,,,74,49
110520,note_on,30,0,1,,,,,,,,,0,,,74,0
110520,note_on,0,0,1,,,,,,,,,0,,,70,0
110520,note_on,0,0,1,,,,,,,,,0,,,65,0
110520,note_on,0,0,1,,,,,,,,,0,,,65,49
110520,note_on,0,0,1,,,,,,,,,0,,,70,49
110520,note_on,0,0,1,,,,,,,,,0,,,74,49
110610,note_on,0,0,1,,,,,,,,,0,,,72,49
110610,note_on,0,0,1,,,,,,,,,0,,,70,49
110610,note_on,0,0,1,,,,,,,,,0,,,64,49
110610,note_on,0,0,1,,,,,,,,,0,,,65,0
110610,note_on,0,0,1,,,,,,,,,0,,,70,0
110610,note_on,90,0,1,,,,,,,,,0,,,74,0
110640,note_on,240,0,3,,,,,,,,,2,,,55,0
110640,note_on,0,0,3,,,,,,,,,2,,,48,0
110640,note_on,0,0,3,,,,,,,,,2,,,60,62
110640,note_on,30,0,1,,,,,,,,,0,,,72,0
110640,note_on,0,0,1,,,,,,,,,0,,,70,0
110640,note_on,0,0,1,,,,,,,,,0,,,64,0
110640,note_on,0,0,1,,,,,,,,,0,,,64,49
110640,note_on,0,0,1,,,,,,,,,0,,,70,49
110640,note_on,0,0,1,,,,,,,,,0,,,72,49
110700,note_on,60,0,3,,,,,,,,,2,,,60,0
110730,note_on,0,0,1,,,,,,,,,0,,,70,49
110730,note_on,0,0,1,,,,,,,,,0,,,70,0
110730,note_on,90,0,1,,,,,,,,,0,,,72,0
110730,note_on,0,0,1,,,,,,,,,0,,,65,49
110730,note_on,0,0,1,,,,,,,,,0,,,64,0
110730,note_on,0,0,1,,,,,,,,,0,,,74,49
110760,note_on,30,0,1,,,,,,,,,0,,,74,0
110760,note_on,0,0,1,,,,,,,,,0,,,70,0
110760,note_on,0,0,1,,,,,,,,,0,,,65,0
110760,note_on,0,0,1,,,,,,,,,0,,,65,65
110760,note_on,0,0,1,,,,,,,,,0,,,70,70
110760,note_on,0,0,1,,,,,,,,,0,,,74,75
110766,note_on,0,0,1,,,,,,,,,0,,,70,0
110766,note_on,6,0,1,,,,,,,,,0,,,74,0
110766,note_on,0,0,1,,,,,,,,,0,,,65,0
110820,note_on,0,0,1,,,,,,,,,0,,,72,49
110820,note_on,0,0,1,,,,,,,,,0,,,70,49
110820,note_on,0,0,1,,,,,,,,,0,,,64,49
110820,control_change,54,0,1,,,,,,,,,0,64,0,,
110824,note_on,0,0,1,,,,,,,,,0,,,70,0
110824,note_on,4,0,1,,,,,,,,,0,,,72,0
110824,note_on,0,0,1,,,,,,,,,0,,,64,0
110880,control_change,56,0,1,,,,,,,,,0,64,127,,
110880,note_on,0,0,1,,,,,,,,,0,,,74,49
110880,note_on,0,0,1,,,,,,,,,0,,,82,49
110880,note_on,0,0,3,,,,,,,,,2,,,55,36
110880,note_on,180,0,3,,,,,,,,,2,,,43,36
110880,note_on,0,0,1,,,,,,,,,0,,,79,49
110970,note_on,90,0,1,,,,,,,,,0,,,82,0
110970,note_on,0,0,1,,,,,,,,,0,,,79,49
110970,note_on,0,0,1,,,,,,,,,0,,,79,0
110970,note_on,0,0,1,,,,,,,,,0,,,74,0
110970,note_on,0,0,1,,,,,,,,,0,,,75,49
110970,note_on,0,0,1,,,,,,,,,0,,,84,49
111000,note_on,30,0,1,,,,,,,,,0,,,84,0
111000,note_on,0,0,1,,,,,,,,,0,,,79,0
111000,note_on,0,0,1,,,,,,,,,0,,,75,0
111000,note_on,0,0,1,,,,,,,,,0,,,74,49
111000,note_on,0,0,1,,,,,,,,,0,,,79,49
111000,note_on,0,0,1,,,,,,,,,0,,,82,49
111090,note_on,0,0,1,,,,,,,,,0,,,81,49
111090,note_on,0,0,1,,,,,,,,,0,,,74,49
111090,note_on,0,0,1,,,,,,,,,0,,,72,49
111090,note_on,90,0,1,,,,,,,,,0,,,82,0
111090,note_on,0,0,1,,,,,,,,,0,,,79,0
111090,note_on,0,0,1,,,,,,,,,0,,,74,0
111120,note_on,0,0,1,,,,,,,,,0,,,79,49
111120,note_on,30,0,1,,,,,,,,,0,,,81,0
111120,note_on,0,0,1,,,,,,,,,0,,,74,0
111120,note_on,0,0,1,,,,,,,,,0,,,72,0
111120,note_on,0,0,1,,,,,,,,,0,,,70,49
111120,note_on,0,0,1,,,,,,,,,0,,,74,49
111120,note_on,0,0,3,,,,,,,,,2,,,43,0
111120,note_on,0,0,3,,,,,,,,,2,,,46,54
111120,note_on,0,0,3,,,,,,,,,2,,,58,62
111120,note_on,240,0,3,,,,,,,,,2,,,55,0
111180,note_on,0,0,3,,,,,,,,,2,,,46,0
111180,note_on,60,0,3,,,,,,,,,2,,,58,0
111210,note_on,0,0,1,,,,,,,,,0,,,81,49
111210,note_on,0,0,1,,,,,,,,,0,,,72,49
111210,note_on,0,0,1,,,,,,,,,0,,,74,49
111210,note_on,0,0,1,,,,,,,,,0,,,74,0
111210,note_on,90,0,1,,,,,,,,,0,,,79,0
111210,note_on,0,0,1,,,,,,,,,0,,,70,0
111240,control_change,0,0,1,,,,,,,,,0,64,0,,
111240,note_on,30,0,1,,,,,,,,,0,,,81,0
111240,note_on,0,0,1,,,,,,,,,0,,,74,0
111240,note_on,0,0,1,,,,,,,,,0,,,72,0
111240,note_on,0,0,1,,,,,,,,,0,,,70,49
111240,note_on,0,0,1,,,,,,,,,0,,,74,49
111240,note_on,0,0,1,,,,,,,,,0,,,79,49
111330,note_on,90,0,1,,,,,,,,,0,,,79,0
111330,note_on,0,0,1,,,,,,,,,0,,,70,0
111330,note_on,0,0,1,,,,,,,,,0,,,67,49
111330,note_on,0,0,1,,,,,,,,,0,,,72,49
111330,note_on,0,0,1,,,,,,,,,0,,,75,49
111330,note_on,0,0,1,,,,,,,,,0,,,74,0
111360,note_on,180,0,3,,,,,,,,,2,,,50,36
111360,control_change,0,0,1,,,,,,,,,0,64,127,,
111360,note_on,0,0,1,,,,,,,,,0,,,74,75
111360,note_on,0,0,1,,,,,,,,,0,,,72,70
111360,note_on,0,0,1,,,,,,,,,0,,,67,0
111360,note_on,0,0,1,,,,,,,,,0,,,72,0
111360,note_on,30,0,1,,,,,,,,,0,,,75,0
111360,note_on,0,0,1,,,,,,,,,0,,,66,65
111360,note_on,0,0,3,,,,,,,,,2,,,57,36
111450,note_on,90,0,1,,,,,,,,,0,,,74,0
111450,note_on,0,0,1,,,,,,,,,0,,,72,0
111450,note_on,0,0,1,,,,,,,,,0,,,66,0
111450,note_on,0,0,1,,,,,,,,,0,,,67,49
111450,note_on,0,0,1,,,,,,,,,0,,,75,49
111450,note_on,0,0,1,,,,,,,,,0,,,72,49
111480,note_on,0,0,1,,,,,,,,,0,,,75,49
111480,note_on,0,0,1,,,,,,,,,0,,,72,49
111480,note_on,0,0,1,,,,,,,,,0,,,67,49
111480,note_on,0,0,1,,,,,,,,,0,,,67,0
111480,note_on,0,0,1,,,,,,,,,0,,,72,0
111480,note_on,30,0,1,,,,,,,,,0,,,75,0
111570,note_on,0,0,1,,,,,,,,,0,,,67,0
111570,note_on,90,0,1,,,,,,,,,0,,,75,0
111570,note_on,0,0,1,,,,,,,,,0,,,72,0
111570,note_on,0,0,1,,,,,,,,,0,,,72,49
111570,note_on,0,0,1,,,,,,,,,0,,,74,49
111570,note_on,0,0,1,,,,,,,,,0,,,66,49
111600,note_on,0,0,3,,,,,,,,,2,,,50,0
111600,note_on,240,0,3,,,,,,,,,2,,,57,0
111600,note_on,0,0,3,,,,,,,,,2,,,62,62
111600,note_on,30,0,1,,,,,,,,,0,,,74,0
111600,note_on,0,0,1,,,,,,,,,0,,,72,0
111600,note_on,0,0,1,,,,,,,,,0,,,66,0
111600,note_on,0,0,1,,,,,,,,,0,,,66,49
111600,note_on,0,0,1,,,,,,,,,0,,,72,49
111600,note_on,0,0,1,,,,,,,,,0,,,74,49
111660,note_on,60,0,3,,,,,,,,,2,,,62,0
111690,note_on,0,0,1,,,,,,,,,0,,,66,0
111690,note_on,0,0,1,,,,,,,,,0,,,67,49
111690,note_on,0,0,1,,,,,,,,,0,,,72,49
111690,note_on,0,0,1,,,,,,,,,0,,,75,49
111690,note_on,90,0,1,,,,,,,,,0,,,74,0
111690,note_on,0,0,1,,,,,,,,,0,,,72,0
111720,note_on,0,0,1,,,,,,,,,0,,,75,75
111720,note_on,30,0,1,,,,,,,,,0,,,75,0
111720,note_on,0,0,1,,,,,,,,,0,,,72,0
111720,note_on,0,0,1,,,,,,,,,0,,,67,0
111720,note_on,0,0,1,,,,,,,,,0,,,67,65
111720,note_on,0,0,1,,,,,,,,,0,,,72,70
111720,control_change,0,0,1,,,,,,,,,0,64,0,,
111726,note_on,0,0,1,,,,,,,,,0,,,67,0
111726,note_on,0,0,1,,,,,,,,,0,,,72,0
111726,note_on,6,0,1,,,,,,,,,0,,,75,0
111780,note_on,0,0,1,,,,,,,,,0,,,72,49
111780,note_on,0,0,1,,,,,,,,,0,,,74,49
111780,note_on,54,0,1,,,,,,,,,0,,,66,49
111784,note_on,0,0,1,,,,,,,,,0,,,66,0
111784,note_on,0,0,1,,,,,,,,,0,,,72,0
111784,note_on,4,0,1,,,,,,,,,0,,,74,0
111840,note_on,0,0,1,,,,,,,,,0,,,71,49
111840,control_change,56,0,1,,,,,,,,,0,64,127,,
111840,note_on,0,0,1,,,,,,,,,0,,,79,49
111840,note_on,0,0,1,,,,,,,,,0,,,77,49
111840,note_on,180,0,3,,,,,,,,,2,,,43,36
111840,note_on,0,0,3,,,,,,,,,2,,,50,36
111930,note_on,0,0,1,,,,,,,,,0,,,71,0
111930,note_on,0,0,1,,,,,,,,,0,,,71,49
111930,note_on,0,0,1,,,,,,,,,0,,,77,49
111930,note_on,0,0,1,,,,,,,,,0,,,80,49
111930,note_on,90,0,1,,,,,,,,,0,,,79,0
111930,note_on,0,0,1,,,,,,,,,0,,,77,0
111960,note_on,30,0,1,,,,,,,,,0,,,80,0
111960,note_on,0,0,1,,,,,,,,,0,,,77,0
111960,note_on,0,0,1,,,,,,,,,0,,,71,0
111960,note_on,0,0,1,,,,,,,,,0,,,71,65
111960,note_on,0,0,1,,,,,,,,,0,,,77,70
111960,note_on,0,0,1,,,,,,,,,0,,,80,75
111966,note_on,0,0,1,,,,,,,,,0,,,71,0
111966,note_on,6,0,1,,,,,,,,,0,,,80,0
111966,note_on,0,0,1,,,,,,,,,0,,,77,0
112020,note_on,54,0,1,,,,,,,,,0,,,71,49
112020,note_on,0,0,1,,,,,,,,,0,,,79,49
112020,note_on,0,0,1,,,,,,,,,0,,,77,49
112024,note_on,4,0,1,,,,,,,,,0,,,79,0
112024,note_on,0,0,1,,,,,,,,,0,,,77,0
112024,note_on,0,0,1,,,,,,,,,0,,,71,0
112080,control_change,56,0,1,,,,,,,,,0,64,0,,
112080,note_on,0,0,1,,,,,,,,,0,,,67,49
112080,note_on,0,0,1,,,,,,,,,0,,,70,49
112080,note_on,0,0,1,,,,,,,,,0,,,72,49
112080,note_on,0,0,3,,,,,,,,,2,,,52,62
112080,note_on,0,0,3,,,,,,,,,2,,,48,54
112080,note_on,0,0,3,,,,,,,,,2,,,43,0
112080,note_on,240,0,3,,,,,,,,,2,,,50,0
112140,note_on,0,0,3,,,,,,,,,2,,,48,0
112140,note_on,60,0,3,,,,,,,,,2,,,52,0
112170,note_on,90,0,1,,,,,,,,,0,,,72,0
112170,note_on,0,0,1,,,,,,,,,0,,,70,0
112170,note_on,0,0,1,,,,,,,,,0,,,67,0
112170,note_on,0,0,1,,,,,,,,,0,,,70,49
112170,note_on,0,0,1,,,,,,,,,0,,,73,49
112170,note_on,0,0,1,,,,,,,,,0,,,67,49
112200,note_on,0,0,1,,,,,,,,,0,,,70,0
112200,note_on,0,0,1,,,,,,,,,0,,,67,0
112200,note_on,0,0,1,,,,,,,,,0,,,67,65
112200,note_on,0,0,1,,,,,,,,,0,,,70,70
112200,note_on,0,0,1,,,,,,,,,0,,,73,75
112200,note_on,30,0,1,,,,,,,,,0,,,73,0
112206,note_on,6,0,1,,,,,,,,,0,,,73,0
112206,note_on,0,0,1,,,,,,,,,0,,,70,0
112206,note_on,0,0,1,,,,,,,,,0,,,67,0
112260,note_on,54,0,1,,,,,,,,,0,,,67,49
112260,note_on,0,0,1,,,,,,,,,0,,,72,49
112260,note_on,0,0,1,,,,,,,,,0,,,70,49
112264,note_on,4,0,1,,,,,,,,,0,,,72,0
112264,note_on,0,0,1,,,,,,,,,0,,,70,0
112264,note_on,0,0,1,,,,,,,,,0,,,67,0
112320,note_on,0,0,3,,,,,,,,,2,,,48,36
112320,control_change,56,0,1,,,,,,,,,0,64,127,,
112320,note_on,0,0,1,,,,,,,,,0,,,69,49
112320,note_on,0,0,1,,,,,,,,,0,,,75,49
112320,note_on,0,0,1,,,,,,,,,0,,,77,49
112320,note_on,180,0,3,,,,,,,,,2,,,41,36
112410,note_on,0,0,1,,,,,,,,,0,,,75,49
112410,note_on,90,0,1,,,,,,,,,0,,,77,0
112410,note_on,0,0,1,,,,,,,,,0,,,69,49
112410,note_on,0,0,1,,,,,,,,,0,,,79,49
112410,note_on,0,0,1,,,,,,,,,0,,,69,0
112410,note_on,0,0,1,,,,,,,,,0,,,75,0
112440,note_on,30,0,1,,,,,,,,,0,,,79,0
112440,note_on,0,0,1,,,,,,,,,0,,,75,0
112440,note_on,0,0,1,,,,,,,,,0,,,69,0
112440,note_on,0,0,1,,,,,,,,,0,,,69,65
112440,note_on,0,0,1,,,,,,,,,0,,,75,70
112440,note_on,0,0,1,,,,,,,,,0,,,79,75
112446,note_on,6,0,1,,,,,,,,,0,,,79,0
112446,note_on,0,0,1,,,,,,,,,0,,,75,0
112446,note_on,0,0,1,,,,,,,,,0,,,69,0
112500,note_on,0,0,1,,,,,,,,,0,,,77,49
112500,note_on,54,0,1,,,,,,,,,0,,,69,49
112500,note_on,0,0,1,,,,,,,,,0,,,75,49
112504,note_on,4,0,1,,,,,,,,,0,,,77,0
112504,note_on,0,0,1,,,,,,,,,0,,,75,0
112504,note_on,0,0,1,,,,,,,,,0,,,69,0
112560,note_on,0,0,1,,,,,,,,,0,,,70,49
112560,control_change,56,0,1,,,,,,,,,0,64,0,,
112560,note_on,0,0,1,,,,,,,,,0,,,62,49
112560,note_on,0,0,1,,,,,,,,,0,,,65,49
112560,note_on,240,0,3,,,,,,,,,2,,,48,0
112560,note_on,0,0,3,,,,,,,,,2,,,41,0
112560,note_on,0,0,3,,,,,,,,,2,,,46,36
112560,note_on,0,0,3,,,,,,,,,2,,,50,36
112620,note_on,60,0,3,,,,,,,,,2,,,50,0
112620,note_on,0,0,3,,,,,,,,,2,,,46,0
112650,note_on,0,0,1,,,,,,,,,0,,,72,49
112650,note_on,90,0,1,,,,,,,,,0,,,70,0
112650,note_on,0,0,1,,,,,,,,,0,,,65,0
112650,note_on,0,0,1,,,,,,,,,0,,,62,0
112650,note_on,0,0,1,,,,,,,,,0,,,62,49
112650,note_on,0,0,1,,,,,,,,,0,,,65,49
112680,note_on,0,0,1,,,,,,,,,0,,,72,75
112680,note_on,0,0,1,,,,,,,,,0,,,65,70
112680,note_on,0,0,1,,,,,,,,,0,,,62,65
112680,note_on,0,0,1,,,,,,,,,0,,,62,0
112680,note_on,30,0,1,,,,,,,,,0,,,72,0
112680,note_on,0,0,1,,,,,,,,,0,,,65,0
112686,note_on,6,0,1,,,,,,,,,0,,,72,0
112686,note_on,0,0,1,,,,,,,,,0,,,65,0
112686,note_on,0,0,1,,,,,,,,,0,,,62,0
112740,note_on,0,0,1,,,,,,,,,0,,,65,49
112740,note_on,54,0,1,,,,,,,,,0,,,62,49
112740,note_on,0,0,1,,,,,,,,,0,,,70,49
112744,note_on,0,0,1,,,,,,,,,0,,,65,0
112744,note_on,0,0,1,,,,,,,,,0,,,62,0
112744,note_on,4,0,1,,,,,,,,,0,,,70,0
112800,note_on,180,0,3,,,,,,,,,2,,,46,36
112800,note_on,56,0,1,,,,,,,,,0,,,65,49
112800,note_on,0,0,1,,,,,,,,,0,,,70,49
112800,note_on,0,0,1,,,,,,,,,0,,,74,49
112800,note_on,0,0,3,,,,,,,,,2,,,50,36
112890,note_on,0,0,3,,,,,,,,,2,,,49,36
112890,note_on,0,0,3,,,,,,,,,2,,,46,36
112890,note_on,0,0,3,,,,,,,,,2,,,46,0
112890,note_on,90,0,3,,,,,,,,,2,,,50,0
112890,note_on,0,0,1,,,,,,,,,0,,,73,49
112890,note_on,0,0,3,,,,,,,,,2,,,52,36
112890,note_on,0,0,1,,,,,,,,,0,,,65,49
112890,note_on,0,0,1,,,,,,,,,0,,,65,0
112890,note_on,0,0,1,,,,,,,,,0,,,70,0
112890,note_on,90,0,1,,,,,,,,,0,,,74,0
112890,note_on,0,0,1,,,,,,,,,0,,,76,49
112920,note_on,0,0,3,,,,,,,,,2,,,49,0
112920,note_on,0,0,3,,,,,,,,,2,,,52,36
112920,note_on,30,0,3,,,,,,,,,2,,,52,0
112920,note_on,0,0,3,,,,,,,,,2,,,46,0
112920,note_on,0,0,1,,,,,,,,,0,,,76,49
112920,note_on,0,0,3,,,,,,,,,2,,,49,36
112920,note_on,0,0,1,,,,,,,,,0,,,73,49
112920,note_on,0,0,1,,,,,,,,,0,,,65,49
112920,note_on,0,0,1,,,,,,,,,0,,,65,0
112920,note_on,0,0,1,,,,,,,,,0,,,73,0
112920,note_on,30,0,1,,,,,,,,,0,,,76,0
112920,note_on,0,0,3,,,,,,,,,2,,,46,36
113010,note_on,0,0,3,,,,,,,,,2,,,46,36
113010,note_on,0,0,3,,,,,,,,,2,,,50,36
113010,note_on,0,0,1,,,,,,,,,0,,,65,49
113010,note_on,0,0,3,,,,,,,,,2,,,53,36
113010,note_on,0,0,1,,,,,,,,,0,,,65,0
113010,note_on,0,0,3,,,,,,,,,2,,,46,0
113010,note_on,90,0,1,,,,,,,,,0,,,76,0
113010,note_on,90,0,3,,,,,,,,,2,,,52,0
113010,note_on,0,0,3,,,,,,,,,2,,,49,0
113010,note_on,0,0,1,,,,,,,,,0,,,77,49
113010,note_on,0,0,1,,,,,,,,,0,,,73,0
113010,note_on,0,0,1,,,,,,,,,0,,,74,49
113040,note_on,0,0,1,,,,,,,,,0,,,65,0
113040,note_on,0,0,1,,,,,,,,,0,,,74,0
113040,note_on,30,0,1,,,,,,,,,0,,,77,0
113040,note_on,0,0,3,,,,,,,,,2,,,53,49
113040,note_on,0,0,3,,,,,,,,,2,,,50,49
113040,note_on,0,0,3,,,,,,,,,2,,,46,49
113040,note_on,0,0,3,,,,,,,,,2,,,46,0
113040,note_on,0,0,3,,,,,,,,,2,,,50,0
113040,note_on,30,0,3,,,,,,,,,2,,,53,0
113040,note_on,0,0,1,,,,,,,,,0,,,77,62
113040,note_on,0,0,1,,,,,,,,,0,,,65,62
113040,note_on,0,0,1,,,,,,,,,0,,,74,62
113130,note_on,0,0,3,,,,,,,,,2,,,46,49
113130,note_on,0,0,3,,,,,,,,,2,,,46,0
113130,note_on,0,0,3,,,,,,,,,2,,,50,0
113130,note_on,90,0,3,,,,,,,,,2,,,53,0
113130,note_on,0,0,1,,,,,,,,,0,,,67,62
113130,note_on,90,0,1,,,,,,,,,0,,,77,0
113130,note_on,0,0,1,,,,,,,,,0,,,74,0
113130,note_on,0,0,1,,,,,,,,,0,,,65,0
113130,note_on,0,0,3,,,,,,,,,2,,,55,49
113130,note_on,0,0,1,,,,,,,,,0,,,76,62
113130,note_on,0,0,1,,,,,,,,,0,,,79,62
113130,note_on,0,0,3,,,,,,,,,2,,,52,49
113160,note_on,30,0,3,,,,,,,,,2,,,55,0
113160,note_on,0,0,3,,,,,,,,,2,,,52,0
113160,note_on,0,0,3,,,,,,,,,2,,,46,0
113160,note_on,0,0,3,,,,,,,,,2,,,46,62
113160,note_on,0,0,3,,,,,,,,,2,,,52,62
113160,note_on,0,0,3,,,,,,,,,2,,,55,62
113160,note_on,30,0,1,,,,,,,,,0,,,79,0
113160,note_on,0,0,1,,,,,,,,,0,,,76,0
113160,note_on,0,0,1,,,,,,,,,0,,,67,0
113160,note_on,0,0,1,,,,,,,,,0,,,67,75
113160,note_on,0,0,1,,,,,,,,,0,,,76,75
113160,note_on,0,0,1,,,,,,,,,0,,,79,75
113250,note_on,0,0,1,,,,,,,,,0,,,80,75
113250,note_on,0,0,3,,,,,,,,,2,,,56,62
113250,note_on,0,0,1,,,,,,,,,0,,,77,75
113250,note_on,0,0,1,,,,,,,,,0,,,76,0
113250,note_on,0,0,1,,,,,,,,,0,,,67,0
113250,note_on,0,0,1,,,,,,,,,0,,,68,75
113250,note_on,0,0,3,,,,,,,,,2,,,53,62
113250,note_on,0,0,3,,,,,,,,,2,,,47,62
113250,note_on,0,0,3,,,,,,,,,2,,,46,0
113250,note_on,0,0,3,,,,,,,,,2,,,52,0
113250,note_on,90,0,3,,,,,,,,,2,,,55,0
113250,note_on,90,0,1,,,,,,,,,0,,,79,0
113280,note_on,0,0,3,,,,,,,,,2,,,47,101
113280,note_on,30,0,3,,,,,,,,,2,,,56,0
113280,note_on,0,0,3,,,,,,,,,2,,,53,0
113280,note_on,0,0,3,,,,,,,,,2,,,47,0
113280,note_on,0,0,3,,,,,,,,,2,,,53,101
113280,note_on,0,0,1,,,,,,,,,0,,,77,0
113280,note_on,0,0,1,,,,,,,,,0,,,68,0
113280,note_on,0,0,1,,,,,,,,,0,,,68,101
113280,note_on,0,0,1,,,,,,,,,0,,,77,101
113280,note_on,30,0,1,,,,,,,,,0,,,80,0
113280,note_on,0,0,1,,,,,,,,,0,,,80,101
113280,note_on,0,0,3,,,,,,,,,2,,,56,101
113370,note_on,90,0,3,,,,,,,,,2,,,56,0
113370,note_on,90,0,1,,,,,,,,,0,,,80,0
113370,note_on,0,0,1,,,,,,,,,0,,,77,0
113370,note_on,0,0,1,,,,,,,,,0,,,68,101
113370,note_on,0,0,1,,,,,,,,,0,,,72,101
113370,note_on,0,0,1,,,,,,,,,0,,,77,101
113370,note_on,0,0,1,,,,,,,,,0,,,80,101
113370,note_on,0,0,3,,,,,,,,,2,,,36,101
113370,note_on,0,0,3,,,,,,,,,2,,,47,0
113370,note_on,0,0,3,,,,,,,,,2,,,53,0
113370,note_on,0,0,1,,,,,,,,,0,,,68,0
113370,note_on,0,0,3,,,,,,,,,2,,,48,101
113400,note_on,0,0,1,,,,,,,,,0,,,80,101
113400,note_on,0,0,3,,,,,,,,,2,,,36,0
113400,note_on,0,0,3,,,,,,,,,2,,,36,101
113400,note_on,0,0,1,,,,,,,,,0,,,77,101
113400,note_on,0,0,1,,,,,,,,,0,,,72,101
113400,note_on,0,0,1,,,,,,,,,0,,,68,101
113400,note_on,0,0,1,,,,,,,,,0,,,77,0
113400,note_on,0,0,1,,,,,,,,,0,,,72,0
113400,note_on,0,0,1,,,,,,,,,0,,,68,0
113400,note_on,30,0,1,,,,,,,,,0,,,80,0
113400,note_on,30,0,3,,,,,,,,,2,,,48,0
113400,note_on,0,0,3,,,,,,,,,2,,,48,101
113490,note_on,0,0,3,,,,,,,,,2,,,36,0
113490,note_on,0,0,3,,,,,,,,,2,,,38,101
113490,note_on,0,0,3,,,,,,,,,2,,,50,101
113490,note_on,90,0,3,,,,,,,,,2,,,48,0
113490,note_on,0,0,1,,,,,,,,,0,,,68,0
113490,note_on,0,0,1,,,,,,,,,0,,,72,0
113490,note_on,0,0,1,,,,,,,,,0,,,77,0
113490,note_on,0,0,1,,,,,,,,,0,,,67,101
113490,note_on,0,0,1,,,,,,,,,0,,,71,101
113490,note_on,0,0,1,,,,,,,,,0,,,77,101
113490,note_on,0,0,1,,,,,,,,,0,,,79,101
113490,note_on,90,0,1,,,,,,,,,0,,,80,0
113520,note_on,0,0,1,,,,,,,,,0,,,79,101
113520,note_on,30,0,1,,,,,,,,,0,,,79,0
113520,note_on,30,0,3,,,,,,,,,2,,,50,0
113520,note_on,0,0,3,,,,,,,,,2,,,38,0
113520,note_on,0,0,1,,,,,,,,,0,,,67,0
113520,control_change,0,0,3,,,,,,,,,2,64,127,,
113520,note_on,0,0,3,,,,,,,,,2,,,50,101
113520,note_on,0,0,1,,,,,,,,,0,,,71,0
113520,note_on,0,0,1,,,,,,,,,0,,,77,0
113520,note_on,0,0,1,,,,,,,,,0,,,67,101
113520,note_on,0,0,1,,,,,,,,,0,,,71,101
113520,note_on,0,0,1,,,,,,,,,0,,,77,101
113520,control_change,0,0,1,,,,,,,,,0,64,127,,
113520,note_on,0,0,3,,,,,,,,,2,,,38,101
113610,note_on,0,0,1,,,,,,,,,0,,,74,101
113610,note_on,90,0,1,,,,,,,,,0,,,79,0
113610,note_on,0,0,1,,,,,,,,,0,,,67,0
113610,note_on,0,0,1,,,,,,,,,0,,,71,0
113610,note_on,0,0,1,,,,,,,,,0,,,77,0
113610,note_on,0,0,1,,,,,,,,,0,,,77,101
113610,note_on,0,0,1,,,,,,,,,0,,,79,101
113610,note_on,0,0,1,,,,,,,,,0,,,71,101
113610,note_on,0,0,3,,,,,,,,,2,,,43,101
113610,note_on,0,0,3,,,,,,,,,2,,,31,101
113610,note_on,0,0,3,,,,,,,,,2,,,38,0
113610,note_on,90,0,3,,,,,,,,,2,,,50,0
113610,note_on,0,0,1,,,,,,,,,0,,,67,101
113640,note_on,0,0,1,,,,,,,,,0,,,71,0
113640,note_on,0,0,3,,,,,,,,,2,,,43,101
113640,note_on,0,0,3,,,,,,,,,2,,,31,101
113640,note_on,0,0,3,,,,,,,,,2,,,31,0
113640,note_on,30,0,3,,,,,,,,,2,,,43,0
113640,note_on,0,0,1,,,,,,,,,0,,,77,0
113640,note_on,0,0,1,,,,,,,,,0,,,71,101
113640,note_on,0,0,1,,,,,,,,,0,,,67,0
113640,note_on,0,0,1,,,,,,,,,0,,,79,101
113640,note_on,0,0,1,,,,,,,,,0,,,77,101
113640,note_on,0,0,1,,,,,,,,,0,,,74,101
113640,note_on,0,0,1,,,,,,,,,0,,,74,0
113640,note_on,0,0,1,,,,,,,,,0,,,67,101
113640,note_on,30,0,1,,,,,,,,,0,,,79,0
113730,note_on,0,0,3,,,,,,,,,2,,,48,101
113730,note_on,0,0,3,,,,,,,,,2,,,31,0
113730,note_on,90,0,3,,,,,,,,,2,,,43,0
113730,note_on,0,0,1,,,,,,,,,0,,,64,101
113730,note_on,0,0,1,,,,,,,,,0,,,72,101
113730,note_on,90,0,1,,,,,,,,,0,,,79,0
113730,note_on,0,0,1,,,,,,,,,0,,,71,0
113730,note_on,0,0,1,,,,,,,,,0,,,67,0
113730,note_on,0,0,1,,,,,,,,,0,,,74,0
113730,note_on,0,0,1,,,,,,,,,0,,,77,0
113730,note_on,0,0,1,,,,,,,,,0,,,76,101
113730,note_on,0,0,1,,,,,,,,,0,,,67,101
113730,control_change,0,0,1,,,,,,,,,0,64,0,,
113730,note_on,0,0,3,,,,,,,,,2,,,36,101
113730,control_change,0,0,3,,,,,,,,,2,64,0,,
113760,note_on,30,0,3,,,,,,,,,2,,,48,0
113760,note_on,0,0,3,,,,,,,,,2,,,36,0
113760,note_on,0,0,3,,,,,,,,,2,,,36,88
113760,note_on,0,0,3,,,,,,,,,2,,,48,88
113760,note_on,30,0,1,,,,,,,,,0,,,76,0
113760,note_on,0,0,1,,,,,,,,,0,,,64,0
113760,note_on,0,0,1,,,,,,,,,0,,,67,0
113760,note_on,0,0,1,,,,,,,,,0,,,72,0
113760,note_on,0,0,1,,,,,,,,,0,,,64,115
113760,note_on,0,0,1,,,,,,,,,0,,,67,119
113760,note_on,0,0,1,,,,,,,,,0,,,72,123
113760,note_on,0,0,1,,,,,,,,,0,,,76,127
113760,control_change,0,0,1,,,,,,,,,0,64,127,,
113850,note_on,0,0,1,,,,,,,,,0,,,64,0
113850,note_on,90,0,1,,,,,,,,,0,,,76,0
113850,note_on,0,0,1,,,,,,,,,0,,,67,0
113850,note_on,0,0,1,,,,,,,,,0,,,72,0
113850,note_on,0,0,1,,,,,,,,,0,,,72,101
113850,note_on,0,0,1,,,,,,,,,0,,,76,101
113850,note_on,0,0,1,,,,,,,,,0,,,79,101
113850,note_on,0,0,1,,,,,,,,,0,,,67,101
113880,note_on,0,0,1,,,,,,,,,0,,,72,101
113880,note_on,120,0,3,,,,,,,,,2,,,48,0
113880,note_on,0,0,3,,,,,,,,,2,,,36,0
113880,note_on,0,0,1,,,,,,,,,0,,,79,101
113880,note_on,0,0,1,,,,,,,,,0,,,76,101
113880,note_on,0,0,1,,,,,,,,,0,,,67,101
113880,note_on,0,0,1,,,,,,,,,0,,,76,0
113880,note_on,0,0,1,,,,,,,,,0,,,72,0
113880,note_on,0,0,1,,,,,,,,,0,,,67,0
113880,note_on,30,0,1,,,,,,,,,0,,,79,0
113886,note_on,6,0,1,,,,,,,,,0,,,79,0
113886,note_on,0,0,1,,,,,,,,,0,,,67,0
113886,note_on,0,0,1,,,,,,,,,0,,,72,0
113886,note_on,0,0,1,,,,,,,,,0,,,76,0
113940,note_on,0,0,1,,,,,,,,,0,,,84,101
113940,note_on,0,0,1,,,,,,,,,0,,,79,101
113940,note_on,0,0,1,,,,,,,,,0,,,76,101
113940,note_on,54,0,1,,,,,,,,,0,,,72,101
113946,note_on,0,0,1,,,,,,,,,0,,,72,0
113946,note_on,0,0,1,,,,,,,,,0,,,79,0
113946,note_on,0,0,1,,,,,,,,,0,,,76,0
113946,note_on,6,0,1,,,,,,,,,0,,,84,0
114000,note_on,0,0,3,,,,,,,,,2,,,48,119
114000,note_on,0,0,1,,,,,,,,,0,,,80,127
114000,note_on,0,0,1,,,,,,,,,0,,,77,122
114000,note_on,0,0,1,,,,,,,,,0,,,72,117
114000,control_change,54,0,1,,,,,,,,,0,64,0,,
114000,control_change,120,0,3,,,,,,,,,2,64,127,,
114000,note_on,0,0,3,,,,,,,,,2,,,60,127
114090,note_on,0,0,3,,,,,,,,,2,,,56,101
114090,note_on,0,0,3,,,,,,,,,2,,,44,101
114090,note_on,0,0,3,,,,,,,,,2,,,48,0
114090,note_on,90,0,3,,,,,,,,,2,,,60,0
114094,note_on,0,0,3,,,,,,,,,2,,,44,0
114094,note_on,4,0,3,,,,,,,,,2,,,56,0
114120,note_on,0,0,3,,,,,,,,,2,,,56,101
114120,note_on,0,0,1,,,,,,,,,0,,,72,0
114120,note_on,120,0,1,,,,,,,,,0,,,80,0
114120,note_on,0,0,1,,,,,,,,,0,,,77,0
114120,note_on,26,0,3,,,,,,,,,2,,,44,101
114126,note_on,6,0,3,,,,,,,,,2,,,56,0
114126,note_on,0,0,3,,,,,,,,,2,,,44,0
114180,control_change,54,0,3,,,,,,,,,2,64,0,,
114180,note_on,0,0,3,,,,,,,,,2,,,41,101
114180,note_on,0,0,3,,,,,,,,,2,,,53,101
114186,note_on,6,0,3,,,,,,,,,2,,,53,0
114186,note_on,0,0,3,,,,,,,,,2,,,41,0
114240,note_on,0,0,1,,,,,,,,,0,,,76,127
114240,note_on,0,0,1,,,,,,,,,0,,,67,119
114240,note_on,0,0,1,,,,,,,,,0,,,72,123
114240,note_on,0,0,1,,,,,,,,,0,,,64,115
114240,control_change,120,0,1,,,,,,,,,0,64,127,,
114240,note_on,0,0,3,,,,,,,,,2,,,48,88
114240,note_on,54,0,3,,,,,,,,,2,,,36,88
114330,note_on,0,0,1,,,,,,,,,0,,,76,101
114330,note_on,0,0,1,,,,,,,,,0,,,67,101
114330,note_on,0,0,1,,,,,,,,,0,,,72,0
114330,note_on,0,0,1,,,,,,,,,0,,,67,0
114330,note_on,0,0,1,,,,,,,,,0,,,64,0
114330,note_on,90,0,1,,,,,,,,,0,,,76,0
114330,note_on,0,0,1,,,,,,,,,0,,,79,101
114330,note_on,0,0,1,,,,,,,,,0,,,72,101
114360,note_on,120,0,3,,,,,,,,,2,,,48,0
114360,note_on,0,0,3,,,,,,,,,2,,,36,0
114360,note_on,0,0,1,,,,,,,,,0,,,79,101
114360,note_on,30,0,1,,,,,,,,,0,,,79,0
114360,note_on,0,0,1,,,,,,,,,0,,,67,0
114360,note_on,0,0,1,,,,,,,,,0,,,72,0
114360,note_on,0,0,1,,,,,,,,,0,,,67,101
114360,note_on,0,0,1,,,,,,,,,0,,,72,101
114360,note_on,0,0,1,,,,,,,,,0,,,76,101
114360,note_on,0,0,1,,,,,,,,,0,,,76,0
114366,note_on,0,0,1,,,,,,,,,0,,,76,0
114366,note_on,6,0,1,,,,,,,,,0,,,79,0
114366,note_on,0,0,1,,,,,,,,,0,,,67,0
114366,note_on,0,0,1,,,,,,,,,0,,,72,0
114420,note_on,0,0,1,,,,,,,,,0,,,84,101
114420,note_on,0,0,1,,,,,,,,,0,,,79,101
114420,note_on,0,0,1,,,,,,,,,0,,,76,101
114420,note_on,54,0,1,,,,,,,,,0,,,72,101
114426,note_on,0,0,1,,,,,,,,,0,,,79,0
114426,note_on,0,0,1,,,,,,,,,0,,,76,0
114426,note_on,0,0,1,,,,,,,,,0,,,72,0
114426,note_on,6,0,1,,,,,,,,,0,,,84,0
114480,note_on,0,0,1,,,,,,,,,0,,,80,127
114480,control_change,54,0,1,,,,,,,,,0,64,0,,
114480,control_change,120,0,3,,,,,,,,,2,64,127,,
114480,note_on,0,0,1,,,,,,,,,0,,,72,117
114480,note_on,0,0,3,,,,,,,,,2,,,60,127
114480,note_on,0,0,3,,,,,,,,,2,,,48,119
114480,note_on,0,0,1,,,,,,,,,0,,,77,122
114570,note_on,0,0,3,,,,,,,,,2,,,56,101
114570,note_on,0,0,3,,,,,,,,,2,,,44,101
114570,note_on,0,0,3,,,,,,,,,2,,,48,0
114570,note_on,90,0,3,,,,,,,,,2,,,60,0
114574,note_on,0,0,3,,,,,,,,,2,,,44,0
114574,note_on,4,0,3,,,,,,,,,2,,,56,0
114600,note_on,26,0,3,,,,,,,,,2,,,44,101
114600,note_on,120,0,1,,,,,,,,,0,,,80,0
114600,note_on,0,0,1,,,,,,,,,0,,,77,0
114600,note_on,0,0,1,,,,,,,,,0,,,72,0
114600,note_on,0,0,3,,,,,,,,,2,,,56,101
114606,note_on,6,0,3,,,,,,,,,2,,,56,0
114606,note_on,0,0,3,,,,,,,,,2,,,44,0
114660,control_change,54,0,3,,,,,,,,,2,64,0,,
114660,note_on,0,0,3,,,,,,,,,2,,,41,101
114660,note_on,0,0,3,,,,,,,,,2,,,53,101
114666,note_on,6,0,3,,,,,,,,,2,,,53,0
114666,note_on,0,0,3,,,,,,,,,2,,,41,0
114720,note_on,0,0,1,,,,,,,,,0,,,76,88
114720,note_on,0,0,1,,,,,,,,,0,,,72,88
114720,control_change,120,0,1,,,,,,,,,0,64,127,,
114720,note_on,0,0,3,,,,,,,,,2,,,48,75
114720,note_on,54,0,3,,,,,,,,,2,,,36,75
114720,note_on,0,0,1,,,,,,,,,0,,,79,88
114720,note_on,0,0,1,,,,,,,,,0,,,84,88
114810,note_on,0,0,1,,,,,,,,,0,,,72,0
114810,note_on,90,0,1,,,,,,,,,0,,,84,0
114810,note_on,0,0,1,,,,,,,,,0,,,76,0
114810,note_on,0,0,1,,,,,,,,,0,,,79,0
114810,note_on,0,0,1,,,,,,,,,0,,,72,49
114840,note_on,30,0,1,,,,,,,,,0,,,72,0
114840,note_on,0,0,1,,,,,,,,,0,,,72,49
114840,note_on,0,0,3,,,,,,,,,2,,,36,0
114840,note_on,120,0,3,,,,,,,,,2,,,48,0
114930,note_on,90,0,1,,,,,,,,,0,,,72,0
114930,note_on,0,0,1,,,,,,,,,0,,,72,49
114960,note_on,30,0,1,,,,,,,,,0,,,72,0
114960,note_on,0,0,1,,,,,,,,,0,,,72,49
114960,note_on,0,0,1,,,,,,,,,0,,,76,49
114960,note_on,0,0,1,,,,,,,,,0,,,79,49
114960,note_on,0,0,1,,,,,,,,,0,,,84,49
115050,note_on,0,0,1,,,,,,,,,0,,,79,0
115050,note_on,0,0,1,,,,,,,,,0,,,72,49
115050,note_on,0,0,1,,,,,,,,,0,,,76,0
115050,note_on,0,0,1,,,,,,,,,0,,,72,0
115050,note_on,90,0,1,,,,,,,,,0,,,84,0
115080,note_on,30,0,1,,,,,,,,,0,,,72,0
115080,note_on,0,0,1,,,,,,,,,0,,,72,49
115170,note_on,90,0,1,,,,,,,,,0,,,72,0
115170,control_change,0,0,1,,,,,,,,,0,64,0,,
115170,note_on,0,0,1,,,,,,,,,0,,,72,49
115200,note_on,0,0,1,,,,,,,,,0,,,72,49
115200,note_on,30,0,1,,,,,,,,,0,,,72,0
115200,control_change,0,0,1,,,,,,,,,0,64,127,,
115200,note_on,360,0,3,,,,,,,,,2,,,58,36
115200,note_on,0,0,3,,,,,,,,,2,,,64,36
115200,note_on,0,0,3,,,,,,,,,2,,,67,36
115290,note_on,90,0,1,,,,,,,,,0,,,72,0
115290,note_on,0,0,1,,,,,,,,,0,,,74,49
115320,note_on,0,0,1,,,,,,,,,0,,,74,49
115320,note_on,30,0,1,,,,,,,,,0,,,74,0
115410,note_on,90,0,1,,,,,,,,,0,,,74,0
115410,note_on,0,0,1,,,,,,,,,0,,,72,49
115440,note_on,30,0,1,,,,,,,,,0,,,72,0
115440,note_on,0,0,1,,,,,,,,,0,,,72,49
115530,note_on,90,0,1,,,,,,,,,0,,,72,0
115530,note_on,0,0,1,,,,,,,,,0,,,72,49
115560,note_on,30,0,1,,,,,,,,,0,,,72,0
115560,note_on,0,0,1,,,,,,,,,0,,,72,49
115650,note_on,90,0,1,,,,,,,,,0,,,72,0
115650,control_change,0,0,1,,,,,,,,,0,64,0,,
115650,note_on,0,0,1,,,,,,,,,0,,,72,49
115680,note_on,0,0,3,,,,,,,,,2,,,58,0
115680,note_on,0,0,3,,,,,,,,,2,,,57,36
115680,note_on,0,0,3,,,,,,,,,2,,,60,36
115680,note_on,0,0,3,,,,,,,,,2,,,65,36
115680,note_on,0,0,3,,,,,,,,,2,,,64,0
115680,note_on,480,0,3,,,,,,,,,2,,,67,0
115680,note_on,30,0,1,,,,,,,,,0,,,72,0
115680,control_change,0,0,1,,,,,,,,,0,64,127,,
115680,note_on,0,0,1,,,,,,,,,0,,,72,49
115770,note_on,0,0,1,,,,,,,,,0,,,77,49
115770,note_on,90,0,1,,,,,,,,,0,,,72,0
115800,note_on,0,0,1,,,,,,,,,0,,,77,36
115800,note_on,30,0,1,,,,,,,,,0,,,77,0
115890,note_on,90,0,1,,,,,,,,,0,,,77,0
115890,note_on,0,0,1,,,,,,,,,0,,,72,36
115920,note_on,30,0,1,,,,,,,,,0,,,72,0
115920,note_on,0,0,1,,,,,,,,,0,,,72,36
116010,note_on,90,0,1,,,,,,,,,0,,,72,0
116010,note_on,0,0,1,,,,,,,,,0,,,72,36
116040,note_on,30,0,1,,,,,,,,,0,,,72,0
116040,note_on,0,0,1,,,,,,,,,0,,,72,36
116130,note_on,90,0,1,,,,,,,,,0,,,72,0
116130,control_change,0,0,1,,,,,,,,,0,64,0,,
116130,note_on,0,0,1,,,,,,,,,0,,,72,36
116160,note_on,0,0,1,,,,,,,,,0,,,72,36
116160,note_on,480,0,3,,,,,,,,,2,,,65,0
116160,note_on,0,0,3,,,,,,,,,2,,,60,0
116160,control_change,0,0,1,,,,,,,,,0,64,127,,
116160,note_on,0,0,3,,,,,,,,,2,,,57,0
116160,note_on,0,0,3,,,,,,,,,2,,,58,36
116160,note_on,0,0,3,,,,,,,,,2,,,64,36
116160,note_on,30,0,1,,,,,,,,,0,,,72,0
116160,note_on,0,0,3,,,,,,,,,2,,,55,36
116250,note_on,0,0,1,,,,,,,,,0,,,74,36
116250,note_on,90,0,1,,,,,,,,,0,,,72,0
116280,note_on,0,0,1,,,,,,,,,0,,,74,36
116280,note_on,30,0,1,,,,,,,,,0,,,74,0
116370,note_on,90,0,1,,,,,,,,,0,,,74,0
116370,note_on,0,0,1,,,,,,,,,0,,,72,36
116400,note_on,0,0,1,,,,,,,,,0,,,72,36
116400,note_on,30,0,1,,,,,,,,,0,,,72,0
116490,note_on,0,0,1,,,,,,,,,0,,,82,36
116490,note_on,90,0,1,,,,,,,,,0,,,72,0
116520,note_on,0,0,1,,,,,,,,,0,,,82,36
116520,note_on,30,0,1,,,,,,,,,0,,,82,0
116610,note_on,0,0,1,,,,,,,,,0,,,76,36
116610,control_change,0,0,1,,,,,,,,,0,64,0,,
116610,note_on,90,0,1,,,,,,,,,0,,,82,0
116640,note_on,0,0,3,,,,,,,,,2,,,53,36
116640,note_on,0,0,3,,,,,,,,,2,,,55,0
116640,note_on,0,0,3,,,,,,,,,2,,,58,0
116640,note_on,480,0,3,,,,,,,,,2,,,64,0
116640,note_on,0,0,3,,,,,,,,,2,,,57,36
116640,note_on,0,0,1,,,,,,,,,0,,,77,36
116640,note_on,30,0,1,,,,,,,,,0,,,76,0
116640,note_on,0,0,1,,,,,,,,,0,,,89,36
116640,control_change,0,0,1,,,,,,,,,0,64,127,,
116640,note_on,0,0,3,,,,,,,,,2,,,65,36
116730,note_on,0,0,1,,,,,,,,,0,,,84,36
116730,note_on,0,0,1,,,,,,,,,0,,,77,0
116730,note_on,90,0,1,,,,,,,,,0,,,89,0
116734,note_on,4,0,1,,,,,,,,,0,,,84,0
116760,note_on,26,0,1,,,,,,,,,0,,,84,36
116769,note_on,9,0,1,,,,,,,,,0,,,84,0
116850,note_on,81,0,1,,,,,,,,,0,,,84,36
116854,note_on,4,0,1,,,,,,,,,0,,,84,0
116880,note_on,0,0,3,,,,,,,,,2,,,53,0
116880,note_on,26,0,1,,,,,,,,,0,,,83,36
116880,note_on,240,0,3,,,,,,,,,2,,,65,0
116880,note_on,0,0,3,,,,,,,,,2,,,57,0
116880,note_on,0,0,3,,,,,,,,,2,,,53,36
116880,note_on,0,0,3,,,,,,,,,2,,,60,36
116880,note_on,0,0,3,,,,,,,,,2,,,57,36
116889,note_on,9,0,1,,,,,,,,,0,,,83,0
116970,note_on,81,0,1,,,,,,,,,0,,,84,36
116974,note_on,4,0,1,,,,,,,,,0,,,84,0
117000,note_on,26,0,1,,,,,,,,,0,,,84,36
117009,note_on,9,0,1,,,,,,,,,0,,,84,0
117090,note_on,0,0,1,,,,,,,,,0,,,84,36
117090,control_change,81,0,1,,,,,,,,,0,64,0,,
117094,note_on,4,0,1,,,,,,,,,0,,,84,0
117120,note_on,0,0,3,,,,,,,,,2,,,57,0
117120,note_on,0,0,3,,,,,,,,,2,,,53,0
117120,note_on,0,0,1,,,,,,,,,0,,,81,36
117120,control_change,26,0,1,,,,,,,,,0,64,127,,
117120,note_on,240,0,3,,,,,,,,,2,,,60,0
117129,note_on,9,0,1,,,,,,,,,0,,,81,0
117210,note_on,81,0,1,,,,,,,,,0,,,84,36
117214,note_on,4,0,1,,,,,,,,,0,,,84,0
117240,note_on,26,0,1,,,,,,,,,0,,,93,36
117240,note_on,0,0,3,,,,,,,,,2,,,53,36
117240,note_on,0,0,3,,,,,,,,,2,,,57,36
117240,control_change,120,0,3,,,,,,,,,2,64,127,,
117240,note_on,0,0,3,,,,,,,,,2,,,60,36
117249,note_on,9,0,1,,,,,,,,,0,,,93,0
117252,note_on,0,0,3,,,,,,,,,2,,,53,0
117252,note_on,0,0,3,,,,,,,,,2,,,57,0
117252,note_on,12,0,3,,,,,,,,,2,,,60,0
117330,note_on,81,0,1,,,,,,,,,0,,,91,36
117334,note_on,4,0,1,,,,,,,,,0,,,91,0
117360,note_on,108,0,3,,,,,,,,,2,,,53,36
117360,note_on,0,0,3,,,,,,,,,2,,,57,36
117360,note_on,0,0,3,,,,,,,,,2,,,60,36
117360,note_on,26,0,1,,,,,,,,,0,,,91,36
117369,note_on,9,0,1,,,,,,,,,0,,,91,0
117372,note_on,12,0,3,,,,,,,,,2,,,60,0
117372,note_on,0,0,3,,,,,,,,,2,,,57,0
117372,note_on,0,0,3,,,,,,,,,2,,,53,0
117450,note_on,81,0,1,,,,,,,,,0,,,93,36
117454,note_on,4,0,1,,,,,,,,,0,,,93,0
117480,note_on,26,0,1,,,,,,,,,0,,,93,36
117480,note_on,0,0,3,,,,,,,,,2,,,57,36
117480,note_on,0,0,3,,,,,,,,,2,,,60,36
117480,note_on,0,0,3,,,,,,,,,2,,,53,36
117480,control_change,108,0,3,,,,,,,,,2,64,0,,
117489,note_on,9,0,1,,,,,,,,,0,,,93,0
117492,note_on,0,0,3,,,,,,,,,2,,,57,0
117492,note_on,12,0,3,,,,,,,,,2,,,60,0
117492,note_on,0,0,3,,,,,,,,,2,,,53,0
117570,note_on,0,0,1,,,,,,,,,0,,,89,36
117570,control_change,81,0,1,,,,,,,,,0,64,0,,
117574,note_on,4,0,1,,,,,,,,,0,,,89,0
117600,note_on,0,0,3,,,,,,,,,2,,,53,36
117600,control_change,108,0,3,,,,,,,,,2,64,127,,
117600,note_on,0,0,1,,,,,,,,,0,,,88,36
117600,control_change,26,0,1,,,,,,,,,0,64,127,,
117600,note_on,0,0,3,,,,,,,,,2,,,58,36
117600,note_on,0,0,3,,,,,,,,,2,,,62,36
117609,note_on,9,0,1,,,,,,,,,0,,,88,0
117624,note_on,0,0,3,,,,,,,,,2,,,53,0
117624,note_on,0,0,3,,,,,,,,,2,,,58,0
117624,note_on,24,0,3,,,,,,,,,2,,,62,0
117690,note_on,81,0,1,,,,,,,,,0,,,86,36
117694,note_on,4,0,1,,,,,,,,,0,,,86,0
117720,note_on,26,0,1,,,,,,,,,0,,,86,36
117729,note_on,9,0,1,,,,,,,,,0,,,86,0
117810,note_on,81,0,1,,,,,,,,,0,,,86,36
117814,note_on,4,0,1,,,,,,,,,0,,,86,0
117840,note_on,0,0,3,,,,,,,,,2,,,62,36
117840,note_on,26,0,1,,,,,,,,,0,,,85,36
117840,note_on,0,0,3,,,,,,,,,2,,,53,36
117840,control_change,216,0,3,,,,,,,,,2,64,0,,
117840,note_on,0,0,3,,,,,,,,,2,,,58,36
117849,note_on,9,0,1,,,,,,,,,0,,,85,0
117864,note_on,0,0,3,,,,,,,,,2,,,58,0
117864,note_on,24,0,3,,,,,,,,,2,,,62,0
117864,note_on,0,0,3,,,,,,,,,2,,,53,0
117930,note_on,81,0,1,,,,,,,,,0,,,86,36
117934,note_on,4,0,1,,,,,,,,,0,,,86,0
117960,note_on,26,0,1,,,,,,,,,0,,,86,36
117969,note_on,9,0,1,,,,,,,,,0,,,86,0
118050,note_on,0,0,1,,,,,,,,,0,,,86,36
118050,control_change,81,0,1,,,,,,,,,0,64,0,,
118054,note_on,4,0,1,,,,,,,,,0,,,86,0
118080,note_on,0,0,1,,,,,,,,,0,,,82,36
118080,control_change,26,0,1,,,,,,,,,0,64,127,,
118089,note_on,9,0,1,,,,,,,,,0,,,82,0
118170,note_on,81,0,1,,,,,,,,,0,,,86,36
118174,note_on,4,0,1,,,,,,,,,0,,,86,0
118200,control_change,336,0,3,,,,,,,,,2,64,127,,
118200,note_on,0,0,3,,,,,,,,,2,,,53,36
118200,note_on,0,0,3,,,,,,,,,2,,,58,36
118200,note_on,0,0,3,,,,,,,,,2,,,60,36
118200,note_on,0,0,3,,,,,,,,,2,,,64,36
118200,note_on,26,0,1,,,,,,,,,0,,,91,36
118209,note_on,9,0,1,,,,,,,,,0,,,91,0
118212,note_on,0,0,3,,,,,,,,,2,,,60,0
118212,note_on,0,0,3,,,,,,,,,2,,,58,0
118212,note_on,0,0,3,,,,,,,,,2,,,53,0
118212,note_on,12,0,3,,,,,,,,,2,,,64,0
118290,note_on,81,0,1,,,,,,,,,0,,,89,36
118294,note_on,4,0,1,,,,,,,,,0,,,89,0
118320,note_on,0,0,3,,,,,,,,,2,,,62,36
118320,note_on,0,0,3,,,,,,,,,2,,,58,36
118320,note_on,0,0,3,,,,,,,,,2,,,60,36
118320,note_on,26,0,1,,,,,,,,,0,,,89,36
118320,note_on,108,0,3,,,,,,,,,2,,,53,36
118329,note_on,9,0,1,,,,,,,,,0,,,89,0
118332,note_on,0,0,3,,,,,,,,,2,,,58,0
118332,note_on,12,0,3,,,,,,,,,2,,,62,0
118332,note_on,0,0,3,,,,,,,,,2,,,53,0
118332,note_on,0,0,3,,,,,,,,,2,,,60,0
118410,note_on,81,0,1,,,,,,,,,0,,,91,36
118414,note_on,4,0,1,,,,,,,,,0,,,91,0
118440,note_on,0,0,3,,,,,,,,,2,,,58,36
118440,note_on,0,0,3,,,,,,,,,2,,,60,36
118440,note_on,0,0,3,,,,,,,,,2,,,53,36
118440,control_change,108,0,3,,,,,,,,,2,64,0,,
118440,note_on,26,0,1,,,,,,,,,0,,,91,36
118440,note_on,0,0,3,,,,,,,,,2,,,64,36
118449,note_on,9,0,1,,,,,,,,,0,,,91,0
118452,note_on,12,0,3,,,,,,,,,2,,,64,0
118452,note_on,0,0,3,,,,,,,,,2,,,53,0
118452,note_on,0,0,3,,,,,,,,,2,,,58,0
118452,note_on,0,0,3,,,,,,,,,2,,,60,0
118530,note_on,0,0,1,,,,,,,,,0,,,88,36
118530,control_change,81,0,1,,,,,,,,,0,64,0,,
118534,note_on,4,0,1,,,,,,,,,0,,,88,0
118560,control_change,26,0,1,,,,,,,,,0,64,127,,
118560,control_change,108,0,3,,,,,,,,,2,64,127,,
118560,note_on,0,0,3,,,,,,,,,2,,,53,36
118560,note_on,0,0,3,,,,,,,,,2,,,57,36
118560,note_on,0,0,3,,,,,,,,,2,,,60,36
118560,note_on,0,0,3,,,,,,,,,2,,,65,36
118560,note_on,0,0,1,,,,,,,,,0,,,84,36
118584,note_on,24,0,3,,,,,,,,,2,,,65,0
118584,note_on,0,0,3,,,,,,,,,2,,,53,0
118584,note_on,0,0,3,,,,,,,,,2,,,57,0
118584,note_on,0,0,3,,,,,,,,,2,,,60,0
118650,note_on,90,0,1,,,,,,,,,0,,,84,0
118650,note_on,0,0,1,,,,,,,,,0,,,72,36
118680,note_on,0,0,1,,,,,,,,,0,,,72,36
118680,note_on,30,0,1,,,,,,,,,0,,,72,0
118770,note_on,0,0,1,,,,,,,,,0,,,72,36
118770,note_on,90,0,1,,,,,,,,,0,,,72,0
118800,note_on,30,0,1,,,,,,,,,0,,,72,0
118800,note_on,0,0,3,,,,,,,,,2,,,56,36
118800,note_on,0,0,3,,,,,,,,,2,,,60,36
118800,control_change,0,0,1,,,,,,,,,0,64,0,,
118800,control_change,216,0,3,,,,,,,,,2,64,0,,
118800,note_on,0,0,3,,,,,,,,,2,,,53,36
118800,note_on,0,0,1,,,,,,,,,0,,,71,36
118824,note_on,0,0,3,,,,,,,,,2,,,56,0
118824,note_on,24,0,3,,,,,,,,,2,,,60,0
118824,note_on,0,0,3,,,,,,,,,2,,,53,0
118890,note_on,0,0,1,,,,,,,,,0,,,72,36
118890,note_on,90,0,1,,,,,,,,,0,,,71,0
118920,note_on,30,0,1,,,,,,,,,0,,,72,0
118920,note_on,0,0,1,,,,,,,,,0,,,72,36
119010,note_on,0,0,1,,,,,,,,,0,,,72,36
119010,note_on,90,0,1,,,,,,,,,0,,,72,0
119040,control_change,0,0,1,,,,,,,,,0,64,127,,
119040,note_on,0,0,1,,,,,,,,,0,,,68,36
119040,note_on,30,0,1,,,,,,,,,0,,,72,0
119130,note_on,0,0,1,,,,,,,,,0,,,72,36
119130,note_on,90,0,1,,,,,,,,,0,,,68,0
119160,control_change,336,0,3,,,,,,,,,2,64,127,,
119160,note_on,30,0,1,,,,,,,,,0,,,72,0
119160,note_on,0,0,1,,,,,,,,,0,,,80,36
119160,note_on,0,0,3,,,,,,,,,2,,,53,36
119160,note_on,0,0,3,,,,,,,,,2,,,56,36
119160,note_on,0,0,3,,,,,,,,,2,,,60,36
119172,note_on,0,0,3,,,,,,,,,2,,,53,0
119172,note_on,12,0,3,,,,,,,,,2,,,60,0
119172,note_on,0,0,3,,,,,,,,,2,,,56,0
119250,note_on,90,0,1,,,,,,,,,0,,,80,0
119250,note_on,0,0,1,,,,,,,,,0,,,79,36
119280,note_on,0,0,1,,,,,,,,,0,,,79,36
119280,note_on,108,0,3,,,,,,,,,2,,,53,36
119280,note_on,0,0,3,,,,,,,,,2,,,56,36
119280,note_on,0,0,3,,,,,,,,,2,,,60,36
119280,note_on,30,0,1,,,,,,,,,0,,,79,0
119292,note_on,12,0,3,,,,,,,,,2,,,60,0
119292,note_on,0,0,3,,,,,,,,,2,,,56,0
119292,note_on,0,0,3,,,,,,,,,2,,,53,0
119370,note_on,90,0,1,,,,,,,,,0,,,79,0
119370,note_on,0,0,1,,,,,,,,,0,,,80,36
119400,control_change,108,0,3,,,,,,,,,2,64,0,,
119400,note_on,0,0,3,,,,,,,,,2,,,60,36
119400,note_on,0,0,3,,,,,,,,,2,,,56,36
119400,note_on,30,0,1,,,,,,,,,0,,,80,0
119400,note_on,0,0,1,,,,,,,,,0,,,80,36
119400,note_on,0,0,3,,,,,,,,,2,,,53,36
119412,note_on,12,0,3,,,,,,,,,2,,,60,0
119412,note_on,0,0,3,,,,,,,,,2,,,56,0
119412,note_on,0,0,3,,,,,,,,,2,,,53,0
119490,note_on,90,0,1,,,,,,,,,0,,,80,0
119490,control_change,0,0,1,,,,,,,,,0,64,0,,
119490,note_on,0,0,1,,,,,,,,,0,,,77,36
119520,control_change,0,0,1,,,,,,,,,0,64,127,,
119520,note_on,0,0,3,,,,,,,,,2,,,53,36
119520,note_on,0,0,3,,,,,,,,,2,,,56,36
119520,note_on,0,0,3,,,,,,,,,2,,,61,36
119520,note_on,0,0,3,,,,,,,,,2,,,65,36
119520,note_on,0,0,1,,,,,,,,,0,,,79,36
119520,note_on,30,0,1,,,,,,,,,0,,,77,0
119520,control_change,108,0,3,,,,,,,,,2,64,127,,
119544,note_on,24,0,3,,,,,,,,,2,,,65,0
119544,note_on,0,0,3,,,,,,,,,2,,,53,0
119544,note_on,0,0,3,,,,,,,,,2,,,56,0
119544,note_on,0,0,3,,,,,,,,,2,,,61,0
119610,note_on,90,0,1,,,,,,,,,0,,,79,0
119610,note_on,0,0,1,,,,,,,,,0,,,77,36
119640,note_on,0,0,1,,,,,,,,,0,,,77,36
119640,note_on,30,0,1,,,,,,,,,0,,,77,0
119730,note_on,90,0,1,,,,,,,,,0,,,77,0
119730,note_on,0,0,1,,,,,,,,,0,,,77,36
119760,note_on,0,0,3,,,,,,,,,2,,,65,36
119760,note_on,0,0,1,,,,,,,,,0,,,76,36
119760,note_on,0,0,3,,,,,,,,,2,,,61,36
119760,note_on,0,0,3,,,,,,,,,2,,,53,36
119760,control_change,216,0,3,,,,,,,,,2,64,0,,
119760,note_on,30,0,1,,,,,,,,,0,,,77,0
119760,note_on,0,0,3,,,,,,,,,2,,,56,36
119784,note_on,0,0,3,,,,,,,,,2,,,61,0
119784,note_on,0,0,3,,,,,,,,,2,,,53,0
119784,note_on,0,0,3,,,,,,,,,2,,,56,0
119784,note_on,24,0,3,,,,,,,,,2,,,65,0
119850,note_on,90,0,1,,,,,,,,,0,,,76,0
119850,note_on,0,0,1,,,,,,,,,0,,,77,36
119880,note_on,30,0,1,,,,,,,,,0,,,77,0
119880,note_on,0,0,1,,,,,,,,,0,,,77,36
119970,note_on,90,0,1,,,,,,,,,0,,,77,0
119970,control_change,0,0,1,,,,,,,,,0,64,0,,
119970,note_on,0,0,1,,,,,,,,,0,,,77,36
120000,note_on,30,0,1,,,,,,,,,0,,,77,0
120000,note_on,0,0,1,,,,,,,,,0,,,73,36
120090,note_on,0,0,1,,,,,,,,,0,,,77,36
120090,note_on,90,0,1,,,,,,,,,0,,,73,0
120120,note_on,0,0,3,,,,,,,,,2,,,56,36
120120,note_on,0,0,3,,,,,,,,,2,,,61,36
120120,note_on,0,0,3,,,,,,,,,2,,,63,36
120120,note_on,0,0,3,,,,,,,,,2,,,67,36
120120,control_change,336,0,3,,,,,,,,,2,64,127,,
120120,note_on,0,0,1,,,,,,,,,0,,,82,36
120120,note_on,30,0,1,,,,,,,,,0,,,77,0
120120,control_change,0,0,1,,,,,,,,,0,64,127,,
120132,note_on,12,0,3,,,,,,,,,2,,,67,0
120132,note_on,0,0,3,,,,,,,,,2,,,56,0
120132,note_on,0,0,3,,,,,,,,,2,,,61,0
120132,note_on,0,0,3,,,,,,,,,2,,,63,0
120210,note_on,0,0,1,,,,,,,,,0,,,80,36
120210,note_on,90,0,1,,,,,,,,,0,,,82,0
120240,note_on,0,0,3,,,,,,,,,2,,,63,36
120240,note_on,30,0,1,,,,,,,,,0,,,80,0
120240,note_on,0,0,3,,,,,,,,,2,,,61,36
120240,note_on,108,0,3,,,,,,,,,2,,,56,36
120240,note_on,0,0,3,,,,,,,,,2,,,65,36
120240,note_on,0,0,1,,,,,,,,,0,,,80,36
120252,note_on,12,0,3,,,,,,,,,2,,,65,0
120252,note_on,0,0,3,,,,,,,,,2,,,63,0
120252,note_on,0,0,3,,,,,,,,,2,,,61,0
120252,note_on,0,0,3,,,,,,,,,2,,,56,0
120330,note_on,0,0,1,,,,,,,,,0,,,82,36
120330,note_on,90,0,1,,,,,,,,,0,,,80,0
120360,note_on,0,0,1,,,,,,,,,0,,,82,36
120360,note_on,30,0,1,,,,,,,,,0,,,82,0
120360,note_on,0,0,3,,,,,,,,,2,,,67,36
120360,note_on,0,0,3,,,,,,,,,2,,,61,36
120360,note_on,0,0,3,,,,,,,,,2,,,56,36
120360,control_change,108,0,3,,,,,,,,,2,64,0,,
120360,note_on,0,0,3,,,,,,,,,2,,,63,36
120372,note_on,0,0,3,,,,,,,,,2,,,61,0
120372,note_on,0,0,3,,,,,,,,,2,,,63,0
120372,note_on,12,0,3,,,,,,,,,2,,,67,0
120372,note_on,0,0,3,,,,,,,,,2,,,56,0
120450,control_change,0,0,1,,,,,,,,,0,64,0,,
120450,note_on,0,0,1,,,,,,,,,0,,,79,36
120450,note_on,90,0,1,,,,,,,,,0,,,82,0
120480,control_change,0,0,1,,,,,,,,,0,64,127,,
120480,note_on,0,0,3,,,,,,,,,2,,,60,36
120480,note_on,0,0,3,,,,,,,,,2,,,63,36
120480,note_on,0,0,3,,,,,,,,,2,,,68,36
120480,note_on,30,0,1,,,,,,,,,0,,,79,0
120480,note_on,108,0,3,,,,,,,,,2,,,56,36
120480,note_on,0,0,1,,,,,,,,,0,,,75,36
120570,note_on,0,0,1,,,,,,,,,0,,,84,36
120570,note_on,90,0,1,,,,,,,,,0,,,75,0
120600,note_on,30,0,1,,,,,,,,,0,,,84,0
120600,note_on,0,0,1,,,,,,,,,0,,,84,36
120690,note_on,90,0,1,,,,,,,,,0,,,84,0
120690,note_on,0,0,1,,,,,,,,,0,,,82,36
120720,note_on,0,0,1,,,,,,,,,0,,,82,36
120720,note_on,30,0,1,,,,,,,,,0,,,82,0
120810,note_on,90,0,1,,,,,,,,,0,,,82,0
120810,note_on,0,0,1,,,,,,,,,0,,,80,36
120840,note_on,30,0,1,,,,,,,,,0,,,80,0
120840,note_on,0,0,1,,,,,,,,,0,,,80,36
120930,note_on,90,0,1,,,,,,,,,0,,,80,0
120930,control_change,0,0,1,,,,,,,,,0,64,0,,
120930,note_on,0,0,1,,,,,,,,,0,,,78,36
120960,note_on,0,0,3,,,,,,,,,2,,,65,36
120960,note_on,0,0,3,,,,,,,,,2,,,57,36
120960,note_on,0,0,3,,,,,,,,,2,,,63,0
120960,note_on,0,0,3,,,,,,,,,2,,,60,0
120960,note_on,0,0,3,,,,,,,,,2,,,56,0
120960,note_on,0,0,3,,,,,,,,,2,,,60,36
120960,note_on,0,0,3,,,,,,,,,2,,,63,36
120960,note_on,0,0,1,,,,,,,,,0,,,78,36
120960,control_change,0,0,1,,,,,,,,,0,64,127,,
120960,note_on,30,0,1,,,,,,,,,0,,,78,0
120960,note_on,480,0,3,,,,,,,,,2,,,68,0
121050,note_on,0,0,1,,,,,,,,,0,,,77,36
121050,note_on,90,0,1,,,,,,,,,0,,,78,0
121080,note_on,30,0,1,,,,,,,,,0,,,77,0
121080,note_on,0,0,1,,,,,,,,,0,,,77,36
121170,note_on,90,0,1,,,,,,,,,0,,,77,0
121170,note_on,0,0,1,,,,,,,,,0,,,77,36
121200,note_on,0,0,1,,,,,,,,,0,,,76,36
121200,note_on,30,0,1,,,,,,,,,0,,,77,0
121290,note_on,0,0,1,,,,,,,,,0,,,75,36
121290,note_on,90,0,1,,,,,,,,,0,,,76,0
121320,note_on,30,0,1,,,,,,,,,0,,,75,0
121320,note_on,0,0,1,,,,,,,,,0,,,75,36
121410,note_on,0,0,1,,,,,,,,,0,,,75,36
121410,note_on,90,0,1,,,,,,,,,0,,,75,0
121410,control_change,0,0,1,,,,,,,,,0,64,0,,
121440,note_on,0,0,1,,,,,,,,,0,,,73,36
121440,note_on,0,0,3,,,,,,,,,2,,,58,36
121440,note_on,0,0,3,,,,,,,,,2,,,63,0
121440,note_on,0,0,3,,,,,,,,,2,,,60,0
121440,note_on,0,0,3,,,,,,,,,2,,,57,0
121440,note_on,480,0,3,,,,,,,,,2,,,65,0
121440,note_on,0,0,3,,,,,,,,,2,,,61,36
121440,note_on,30,0,1,,,,,,,,,0,,,75,0
121440,control_change,0,0,1,,,,,,,,,0,64,127,,
121440,note_on,0,0,3,,,,,,,,,2,,,65,36
121530,note_on,90,0,1,,,,,,,,,0,,,73,0
121530,note_on,0,0,1,,,,,,,,,0,,,85,36
121560,note_on,30,0,1,,,,,,,,,0,,,85,0
121560,note_on,0,0,1,,,,,,,,,0,,,85,36
121650,note_on,90,0,1,,,,,,,,,0,,,85,0
121650,note_on,0,0,1,,,,,,,,,0,,,84,36
121680,note_on,30,0,1,,,,,,,,,0,,,84,0
121680,note_on,0,0,1,,,,,,,,,0,,,84,36
121770,note_on,0,0,1,,,,,,,,,0,,,82,36
121770,note_on,90,0,1,,,,,,,,,0,,,84,0
121800,note_on,0,0,1,,,,,,,,,0,,,82,36
121800,note_on,30,0,1,,,,,,,,,0,,,82,0
121890,control_change,0,0,1,,,,,,,,,0,64,0,,
121890,note_on,90,0,1,,,,,,,,,0,,,82,0
121890,note_on,0,0,1,,,,,,,,,0,,,80,36
121920,note_on,480,0,3,,,,,,,,,2,,,65,0
121920,note_on,0,0,3,,,,,,,,,2,,,61,0
121920,note_on,0,0,3,,,,,,,,,2,,,59,36
121920,note_on,0,0,3,,,,,,,,,2,,,62,36
121920,note_on,0,0,3,,,,,,,,,2,,,65,36
121920,note_on,0,0,3,,,,,,,,,2,,,58,0
121920,note_on,0,0,1,,,,,,,,,0,,,80,36
121920,control_change,0,0,1,,,,,,,,,0,64,127,,
121920,note_on,30,0,1,,,,,,,,,0,,,80,0
121920,note_on,0,0,3,,,,,,,,,2,,,67,36
122010,note_on,90,0,1,,,,,,,,,0,,,80,0
122010,note_on,0,0,1,,,,,,,,,0,,,79,36
122040,note_on,30,0,1,,,,,,,,,0,,,79,0
122040,note_on,0,0,1,,,,,,,,,0,,,79,36
122130,note_on,90,0,1,,,,,,,,,0,,,79,0
122130,note_on,0,0,1,,,,,,,,,0,,,79,36
122160,note_on,30,0,1,,,,,,,,,0,,,79,0
122160,note_on,0,0,1,,,,,,,,,0,,,78,36
122250,note_on,0,0,1,,,,,,,,,0,,,77,36
122250,note_on,90,0,1,,,,,,,,,0,,,78,0
122280,note_on,30,0,1,,,,,,,,,0,,,77,0
122280,note_on,0,0,1,,,,,,,,,0,,,77,36
122370,note_on,90,0,1,,,,,,,,,0,,,77,0
122370,control_change,0,0,1,,,,,,,,,0,64,0,,
122370,note_on,0,0,1,,,,,,,,,0,,,77,36
122400,note_on,480,0,3,,,,,,,,,2,,,67,0
122400,note_on,0,0,3,,,,,,,,,2,,,59,0
122400,note_on,0,0,3,,,,,,,,,2,,,62,0
122400,note_on,0,0,3,,,,,,,,,2,,,65,0
122400,control_change,0,0,3,,,,,,,,,2,64,127,,
122400,note_on,0,0,3,,,,,,,,,2,,,67,36
122400,note_on,0,0,3,,,,,,,,,2,,,60,36
122400,note_on,30,0,1,,,,,,,,,0,,,77,0
122400,note_on,0,0,1,,,,,,,,,0,,,76,36
122400,control_change,0,0,1,,,,,,,,,0,64,127,,
122400,note_on,0,0,3,,,,,,,,,2,,,64,36
122490,note_on,90,0,1,,,,,,,,,0,,,76,0
122490,note_on,0,0,1,,,,,,,,,0,,,88,36
122520,note_on,0,0,1,,,,,,,,,0,,,88,36
122520,note_on,30,0,1,,,,,,,,,0,,,88,0
122610,note_on,0,0,1,,,,,,,,,0,,,88,36
122610,note_on,90,0,1,,,,,,,,,0,,,88,0
122640,note_on,0,0,3,,,,,,,,,2,,,67,36
122640,note_on,0,0,3,,,,,,,,,2,,,61,36
122640,note_on,0,0,1,,,,,,,,,0,,,91,62
122640,note_on,0,0,3,,,,,,,,,2,,,60,0
122640,note_on,0,0,3,,,,,,,,,2,,,64,0
122640,note_on,240,0,3,,,,,,,,,2,,,67,0
122640,note_on,0,0,3,,,,,,,,,2,,,70,36
122640,note_on,30,0,1,,,,,,,,,0,,,88,0
122730,note_on,0,0,1,,,,,,,,,0,,,89,36
122730,note_on,90,0,1,,,,,,,,,0,,,91,0
122760,note_on,30,0,1,,,,,,,,,0,,,89,0
122760,note_on,0,0,1,,,,,,,,,0,,,89,36
122850,note_on,90,0,1,,,,,,,,,0,,,89,0
122850,note_on,0,0,1,,,,,,,,,0,,,89,36
122880,note_on,30,0,1,,,,,,,,,0,,,89,0
122880,note_on,0,0,1,,,,,,,,,0,,,89,36
122880,note_on,0,0,3,,,,,,,,,2,,,61,0
122880,note_on,0,0,3,,,,,,,,,2,,,67,0
122880,note_on,0,0,2,,,,,,,,,1,,,70,36
122880,note_on,0,0,2,,,,,,,,,1,,,67,36
122880,note_on,122880,0,2,,,,,,,,,1,,,60,36
122880,note_on,240,0,3,,,,,,,,,2,,,70,0
122970,note_on,90,0,1,,,,,,,,,0,,,89,0
122970,note_on,0,0,1,,,,,,,,,0,,,88,36
123000,note_on,30,0,1,,,,,,,,,0,,,88,0
123000,note_on,0,0,1,,,,,,,,,0,,,88,36
123090,note_on,90,0,1,,,,,,,,,0,,,88,0
123090,control_change,0,0,1,,,,,,,,,0,64,0,,
123090,note_on,0,0,1,,,,,,,,,0,,,88,36
123120,note_on,0,0,1,,,,,,,,,0,,,88,36
123120,note_on,0,0,2,,,,,,,,,1,,,67,0
123120,note_on,0,0,2,,,,,,,,,1,,,68,36
123120,note_on,0,0,2,,,,,,,,,1,,,65,36
123120,note_on,0,0,2,,,,,,,,,1,,,60,36
123120,control_change,0,0,2,,,,,,,,,1,64,0,,
123120,note_on,0,0,2,,,,,,,,,1,,,60,0
123120,note_on,240,0,2,,,,,,,,,1,,,70,0
123120,note_on,30,0,1,,,,,,,,,0,,,88,0
123210,note_on,0,0,1,,,,,,,,,0,,,83,36
123210,note_on,90,0,1,,,,,,,,,0,,,88,0
123240,note_on,0,0,1,,,,,,,,,0,,,83,36
123240,note_on,30,0,1,,,,,,,,,0,,,83,0
123330,note_on,90,0,1,,,,,,,,,0,,,83,0
123330,note_on,0,0,1,,,,,,,,,0,,,83,36
123360,control_change,0,0,1,,,,,,,,,0,64,127,,
123360,note_on,240,0,2,,,,,,,,,1,,,68,0
123360,note_on,0,0,1,,,,,,,,,0,,,86,36
123360,note_on,0,0,2,,,,,,,,,1,,,65,0
123360,control_change,0,0,2,,,,,,,,,1,64,127,,
123360,note_on,0,0,2,,,,,,,,,1,,,60,0
123360,note_on,0,0,2,,,,,,,,,1,,,67,36
123360,note_on,30,0,1,,,,,,,,,0,,,83,0
123360,note_on,0,0,2,,,,,,,,,1,,,60,36
123360,note_on,0,0,2,,,,,,,,,1,,,64,36
123450,note_on,0,0,1,,,,,,,,,0,,,84,36
123450,note_on,90,0,1,,,,,,,,,0,,,86,0
123480,note_on,0,0,1,,,,,,,,,0,,,84,36
123480,note_on,30,0,1,,,,,,,,,0,,,84,0
123570,note_on,90,0,1,,,,,,,,,0,,,84,0
123570,note_on,0,0,1,,,,,,,,,0,,,76,36
123600,note_on,240,0,2,,,,,,,,,1,,,67,0
123600,note_on,0,0,2,,,,,,,,,1,,,64,0
123600,note_on,0,0,2,,,,,,,,,1,,,60,0
123600,note_on,0,0,2,,,,,,,,,1,,,50,36
123600,note_on,0,0,2,,,,,,,,,1,,,55,36
123600,note_on,0,0,2,,,,,,,,,1,,,58,36
123600,note_on,0,0,1,,,,,,,,,0,,,79,62
123600,note_on,30,0,1,,,,,,,,,0,,,76,0
123690,note_on,90,0,1,,,,,,,,,0,,,79,0
123690,note_on,0,0,1,,,,,,,,,0,,,77,36
123720,note_on,30,0,1,,,,,,,,,0,,,77,0
123720,note_on,0,0,1,,,,,,,,,0,,,77,36
123810,note_on,90,0,1,,,,,,,,,0,,,77,0
123810,note_on,0,0,1,,,,,,,,,0,,,77,36
123840,note_on,30,0,1,,,,,,,,,0,,,77,0
123840,note_on,0,0,1,,,,,,,,,0,,,77,36
123840,note_on,0,0,2,,,,,,,,,1,,,48,36
123840,note_on,240,0,2,,,,,,,,,1,,,50,0
123930,note_on,90,0,1,,,,,,,,,0,,,77,0
123930,note_on,0,0,1,,,,,,,,,0,,,76,36
123960,note_on,0,0,1,,,,,,,,,0,,,76,36
123960,note_on,30,0,1,,,,,,,,,0,,,76,0
124050,note_on,90,0,1,,,,,,,,,0,,,76,0
124050,note_on,0,0,1,,,,,,,,,0,,,76,36
124080,control_change,0,0,1,,,,,,,,,0,64,0,,
124080,note_on,0,0,1,,,,,,,,,0,,,76,36
124080,note_on,0,0,2,,,,,,,,,1,,,56,36
124080,note_on,0,0,2,,,,,,,,,1,,,53,36
124080,note_on,0,0,2,,,,,,,,,1,,,48,36
124080,control_change,0,0,2,,,,,,,,,1,64,0,,
124080,note_on,0,0,2,,,,,,,,,1,,,55,0
124080,note_on,240,0,2,,,,,,,,,1,,,48,0
124080,note_on,30,0,1,,,,,,,,,0,,,76,0
124080,note_on,0,0,2,,,,,,,,,1,,,58,0
124170,note_on,90,0,1,,,,,,,,,0,,,76,0
124170,note_on,0,0,1,,,,,,,,,0,,,71,36
124200,note_on,0,0,1,,,,,,,,,0,,,71,36
124200,note_on,30,0,1,,,,,,,,,0,,,71,0
124290,note_on,0,0,1,,,,,,,,,0,,,71,36
124290,note_on,90,0,1,,,,,,,,,0,,,71,0
124320,note_on,0,0,2,,,,,,,,,1,,,48,0
124320,note_on,240,0,2,,,,,,,,,1,,,56,0
124320,note_on,0,0,2,,,,,,,,,1,,,53,0
124320,note_on,0,0,2,,,,,,,,,1,,,48,36
124320,note_on,0,0,2,,,,,,,,,1,,,52,36
124320,note_on,0,0,2,,,,,,,,,1,,,55,36
124320,note_on,30,0,1,,,,,,,,,0,,,71,0
124320,control_change,0,0,1,,,,,,,,,0,64,127,,
124320,note_on,0,0,1,,,,,,,,,0,,,74,36
124410,note_on,90,0,1,,,,,,,,,0,,,74,0
124410,note_on,0,0,1,,,,,,,,,0,,,72,36
124440,note_on,0,0,1,,,,,,,,,0,,,72,36
124440,note_on,30,0,1,,,,,,,,,0,,,72,0
124530,note_on,0,0,1,,,,,,,,,0,,,72,36
124530,note_on,90,0,1,,,,,,,,,0,,,72,0
124560,note_on,0,0,1,,,,,,,,,0,,,72,36
124560,note_on,30,0,1,,,,,,,,,0,,,72,0
124650,note_on,0,0,1,,,,,,,,,0,,,76,36
124650,note_on,90,0,1,,,,,,,,,0,,,72,0
124680,note_on,30,0,1,,,,,,,,,0,,,76,0
124680,note_on,0,0,1,,,,,,,,,0,,,76,36
124770,note_on,0,0,1,,,,,,,,,0,,,76,36
124770,control_change,0,0,1,,,,,,,,,0,64,0,,
124770,note_on,90,0,1,,,,,,,,,0,,,76,0
124800,note_on,0,0,2,,,,,,,,,1,,,62,36
124800,note_on,0,0,1,,,,,,,,,0,,,76,36
124800,control_change,0,0,1,,,,,,,,,0,64,127,,
124800,note_on,0,0,2,,,,,,,,,1,,,64,36
124800,note_on,30,0,1,,,,,,,,,0,,,76,0
124800,note_on,0,0,2,,,,,,,,,1,,,52,0
124800,note_on,0,0,2,,,,,,,,,1,,,48,0
124800,note_on,0,0,2,,,,,,,,,1,,,59,36
124800,note_on,480,0,2,,,,,,,,,1,,,55,0
124860,set_tempo,124860,1,0,,,,,,425532,,,,,,,
124890,note_on,90,0,1,,,,,,,,,0,,,76,0
124890,note_on,0,0,1,,,,,,,,,0,,,68,36
124920,note_on,30,0,1,,,,,,,,,0,,,68,0
124920,note_on,0,0,1,,,,,,,,,0,,,68,36
124920,set_tempo,60,1,0,,,,,,434783,,,,,,,
124980,set_tempo,60,1,0,,,,,,444444,,,,,,,
125010,note_on,90,0,1,,,,,,,,,0,,,68,0
125010,note_on,0,0,1,,,,,,,,,0,,,68,36
125040,set_tempo,60,1,0,,,,,,458015,,,,,,,
125040,note_on,30,0,1,,,,,,,,,0,,,68,0
125040,note_on,0,0,1,,,,,,,,,0,,,68,36
125100,set_tempo,60,1,0,,,,,,468750,,,,,,,
125130,note_on,90,0,1,,,,,,,,,0,,,68,0
125130,note_on,0,0,1,,,,,,,,,0,,,76,36
125160,note_on,30,0,1,,,,,,,,,0,,,76,0
125160,note_on,0,0,1,,,,,,,,,0,,,76,36
125160,set_tempo,60,1,0,,,,,,480000,,,,,,,
125220,set_tempo,60,1,0,,,,,,491803,,,,,,,
125250,note_on,90,0,1,,,,,,,,,0,,,76,0
125250,control_change,0,0,1,,,,,,,,,0,64,0,,
125250,note_on,0,0,1,,,,,,,,,0,,,76,36
125280,note_on,0,0,2,,,,,,,,,1,,,62,0
125280,note_on,0,0,3,,,,,,,,,2,,,62,36
125280,note_on,2400,0,3,,,,,,,,,2,,,57,36
125280,set_tempo,60,1,0,,,,,,508475,,,,,,,
125280,note_on,0,0,3,,,,,,,,,2,,,64,36
125280,note_on,0,0,2,,,,,,,,,1,,,59,0
125280,note_on,480,0,2,,,,,,,,,1,,,64,0
125280,note_on,0,0,1,,,,,,,,,0,,,76,36
125280,control_change,0,0,1,,,,,,,,,0,64,127,,
125280,note_on,30,0,1,,,,,,,,,0,,,76,0
125370,note_on,0,0,1,,,,,,,,,0,,,69,36
125370,note_on,90,0,1,,,,,,,,,0,,,76,0
125400,note_on,0,0,1,,,,,,,,,0,,,69,36
125400,note_on,30,0,1,,,,,,,,,0,,,69,0
125490,note_on,90,0,1,,,,,,,,,0,,,69,0
125490,note_on,0,0,1,,,,,,,,,0,,,69,36
125520,note_on,0,0,1,,,,,,,,,0,,,69,36
125520,note_on,30,0,1,,,,,,,,,0,,,69,0
125610,note_on,0,0,1,,,,,,,,,0,,,76,36
125610,note_on,90,0,1,,,,,,,,,0,,,69,0
125640,note_on,0,0,1,,,,,,,,,0,,,76,36
125640,note_on,30,0,1,,,,,,,,,0,,,76,0
125730,note_on,0,0,1,,,,,,,,,0,,,76,36
125730,note_on,90,0,1,,,,,,,,,0,,,76,0
125730,control_change,0,0,1,,,,,,,,,0,64,0,,
125760,note_on,0,0,3,,,,,,,,,2,,,56,36
125760,note_on,0,0,3,,,,,,,,,2,,,62,36
125760,note_on,0,0,3,,,,,,,,,2,,,62,0
125760,note_on,0,0,3,,,,,,,,,2,,,64,36
125760,note_on,480,0,3,,,,,,,,,2,,,64,0
125760,note_on,0,0,3,,,,,,,,,2,,,57,0
125760,control_change,0,0,1,,,,,,,,,0,64,127,,
125760,note_on,0,0,1,,,,,,,,,0,,,76,36
125760,note_on,30,0,1,,,,,,,,,0,,,76,0
125850,note_on,0,0,1,,,,,,,,,0,,,71,36
125850,note_on,90,0,1,,,,,,,,,0,,,76,0
125880,note_on,0,0,1,,,,,,,,,0,,,71,36
125880,note_on,30,0,1,,,,,,,,,0,,,71,0
125970,note_on,0,0,1,,,,,,,,,0,,,71,36
125970,note_on,90,0,1,,,,,,,,,0,,,71,0
126000,note_on,30,0,1,,,,,,,,,0,,,71,0
126000,note_on,0,0,1,,,,,,,,,0,,,71,36
126090,note_on,90,0,1,,,,,,,,,0,,,71,0
126090,note_on,0,0,1,,,,,,,,,0,,,77,62
126120,note_on,0,0,1,,,,,,,,,0,,,77,36
126120,note_on,30,0,1,,,,,,,,,0,,,77,0
126210,note_on,0,0,1,,,,,,,,,0,,,77,36
126210,control_change,0,0,1,,,,,,,,,0,64,0,,
126210,note_on,90,0,1,,,,,,,,,0,,,77,0
126240,note_on,0,0,3,,,,,,,,,2,,,52,36
126240,note_on,0,0,1,,,,,,,,,0,,,76,36
126240,note_on,0,0,1,,,,,,,,,0,,,74,36
126240,note_on,0,0,1,,,,,,,,,0,,,68,36
126240,note_on,30,0,1,,,,,,,,,0,,,77,0
126240,note_on,480,0,3,,,,,,,,,2,,,64,0
126240,note_on,0,0,3,,,,,,,,,2,,,62,0
126240,note_on,0,0,3,,,,,,,,,2,,,56,0
126240,control_change,0,0,3,,,,,,,,,2,64,127,,
126480,note_on,0,0,3,,,,,,,,,2,,,59,36
126480,note_on,240,0,3,,,,,,,,,2,,,52,0
126480,note_on,0,0,1,,,,,,,,,0,,,68,0
126480,note_on,240,0,1,,,,,,,,,0,,,76,0
126480,note_on,0,0,1,,,,,,,,,0,,,74,0
126720,note_on,240,0,3,,,,,,,,,2,,,59,0
126720,control_change,0,0,3,,,,,,,,,2,64,0,,
126720,note_on,0,0,3,,,,,,,,,2,,,58,36
126960,note_on,240,0,3,,,,,,,,,2,,,58,0
126960,note_on,0,0,3,,,,,,,,,2,,,59,36
127020,note_on,60,0,3,,,,,,,,,2,,,59,0
127050,note_on,570,0,1,,,,,,,,,0,,,65,62
127080,note_on,0,0,1,,,,,,,,,0,,,65,36
127080,note_on,30,0,1,,,,,,,,,0,,,65,0
127170,note_on,0,0,1,,,,,,,,,0,,,65,36
127170,note_on,90,0,1,,,,,,,,,0,,,65,0
127200,note_on,0,0,3,,,,,,,,,2,,,40,36
127200,note_on,0,0,1,,,,,,,,,0,,,64,36
127200,note_on,30,0,1,,,,,,,,,0,,,65,0
127200,control_change,180,0,3,,,,,,,,,2,64,127,,
127200,note_on,0,0,1,,,,,,,,,0,,,62,36
127200,note_on,0,0,1,,,,,,,,,0,,,56,36
127440,note_on,0,0,3,,,,,,,,,2,,,47,36
127440,note_on,0,0,1,,,,,,,,,0,,,56,0
127440,note_on,0,0,1,,,,,,,,,0,,,62,0
127440,note_on,240,0,1,,,,,,,,,0,,,64,0
127440,note_on,240,0,3,,,,,,,,,2,,,40,0
127680,note_on,0,0,3,,,,,,,,,2,,,46,36
127680,control_change,0,0,3,,,,,,,,,2,64,0,,
127680,note_on,240,0,3,,,,,,,,,2,,,47,0
127920,note_on,240,0,3,,,,,,,,,2,,,46,0
127920,note_on,0,0,3,,,,,,,,,2,,,47,36
127980,note_on,60,0,3,,,,,,,,,2,,,47,0
128640,note_on,0,0,1,,,,,,,,,0,,,69,36
128640,note_on,0,0,3,,,,,,,,,2,,,57,36
128640,control_change,660,0,3,,,,,,,,,2,64,127,,
128640,set_tempo,3360,1,0,,,,,,416667,,,,,,,
128640,control_change,1200,0,1,,,,,,,,,0,64,127,,
128880,note_on,0,0,3,,,,,,,,,2,,,64,36
128880,note_on,240,0,3,,,,,,,,,2,,,57,0
128880,note_on,240,0,1,,,,,,,,,0,,,69,0
128880,note_on,0,0,1,,,,,,,,,0,,,76,36
129120,control_change,0,0,3,,,,,,,,,2,64,0,,
129120,note_on,0,0,1,,,,,,,,,0,,,75,62
129120,control_change,0,0,1,,,,,,,,,0,64,0,,
129120,note_on,240,0,1,,,,,,,,,0,,,76,0
129120,note_on,240,0,3,,,,,,,,,2,,,64,0
129120,note_on,0,0,3,,,,,,,,,2,,,63,62
129360,note_on,240,0,1,,,,,,,,,0,,,75,0
129360,note_on,0,0,1,,,,,,,,,0,,,76,36
129360,note_on,240,0,3,,,,,,,,,2,,,63,0
129360,note_on,0,0,3,,,,,,,,,2,,,64,36
129420,note_on,60,0,3,,,,,,,,,2,,,64,0
129420,note_on,60,0,1,,,,,,,,,0,,,76,0
129480,note_on,60,0,1,,,,,,,,,0,,,72,36
129480,note_on,60,0,3,,,,,,,,,2,,,60,36
129570,note_on,0,0,1,,,,,,,,,0,,,71,36
129570,note_on,0,0,3,,,,,,,,,2,,,59,36
129570,note_on,90,0,1,,,,,,,,,0,,,72,0
129570,note_on,90,0,3,,,,,,,,,2,,,60,0
129600,note_on,30,0,3,,,,,,,,,2,,,59,0
129600,note_on,30,0,1,,,,,,,,,0,,,71,0
129600,note_on,0,0,1,,,,,,,,,0,,,69,36
129600,note_on,0,0,3,,,,,,,,,2,,,57,36
129840,note_on,240,0,3,,,,,,,,,2,,,57,0
129840,note_on,240,0,1,,,,,,,,,0,,,69,0
129840,note_on,0,0,1,,,,,,,,,0,,,56,52
129840,note_on,0,0,1,,,,,,,,,0,,,59,57
129840,note_on,0,0,1,,,,,,,,,0,,,64,62
129840,note_on,0,0,3,,,,,,,,,2,,,52,36
130080,note_on,240,0,1,,,,,,,,,0,,,64,0
130080,note_on,0,0,1,,,,,,,,,0,,,56,0
130080,note_on,0,0,1,,,,,,,,,0,,,60,36
130080,note_on,0,0,3,,,,,,,,,2,,,48,36
130080,note_on,240,0,3,,,,,,,,,2,,,52,0
130080,note_on,0,0,1,,,,,,,,,0,,,59,0
130320,note_on,240,0,1,,,,,,,,,0,,,60,0
130320,note_on,0,0,3,,,,,,,,,2,,,45,36
130320,note_on,240,0,3,,,,,,,,,2,,,48,0
130320,note_on,0,0,1,,,,,,,,,0,,,57,36
130380,note_on,60,0,1,,,,,,,,,0,,,57,0
130380,note_on,60,0,3,,,,,,,,,2,,,45,0
130560,control_change,180,0,1,,,,,,,,,0,64,127,,
130560,control_change,180,0,3,,,,,,,,,2,64,127,,
130560,note_on,0,0,3,,,,,,,,,2,,,45,36
130560,note_on,0,0,1,,,,,,,,,0,,,57,36
130800,note_on,0,0,1,,,,,,,,,0,,,57,36
130800,note_on,0,0,1,,,,,,,,,0,,,65,36
130800,note_on,240,0,3,,,,,,,,,2,,,45,0
130800,note_on,240,0,1,,,,,,,,,0,,,57,0
130800,note_on,0,0,3,,,,,,,,,2,,,38,36
131040,note_on,0,0,1,,,,,,,,,0,,,57,0
131040,note_on,240,0,1,,,,,,,,,0,,,65,0
131040,control_change,0,0,1,,,,,,,,,0,64,0,,
131040,note_on,240,0,3,,,,,,,,,2,,,38,0
131040,note_on,0,0,1,,,,,,,,,0,,,67,36
131040,note_on,0,0,1,,,,,,,,,0,,,58,36
131040,control_change,0,0,3,,,,,,,,,2,64,0,,
131040,note_on,0,0,3,,,,,,,,,2,,,37,36
131280,note_on,240,0,1,,,,,,,,,0,,,67,0
131280,note_on,0,0,3,,,,,,,,,2,,,38,36
131280,note_on,0,0,1,,,,,,,,,0,,,58,0
131280,note_on,0,0,1,,,,,,,,,0,,,57,36
131280,note_on,0,0,1,,,,,,,,,0,,,65,36
131280,note_on,240,0,3,,,,,,,,,2,,,37,0
131340,note_on,60,0,1,,,,,,,,,0,,,65,0
131340,note_on,0,0,1,,,,,,,,,0,,,57,0
131340,note_on,60,0,3,,,,,,,,,2,,,38,0
131400,note_on,60,0,3,,,,,,,,,2,,,45,36
131400,note_on,60,0,1,,,,,,,,,0,,,57,36
131490,note_on,0,0,1,,,,,,,,,0,,,59,36
131490,note_on,0,0,3,,,,,,,,,2,,,47,36
131490,note_on,90,0,3,,,,,,,,,2,,,45,0
131490,note_on,90,0,1,,,,,,,,,0,,,57,0
131520,note_on,30,0,1,,,,,,,,,0,,,59,0
131520,note_on,0,0,1,,,,,,,,,0,,,60,36
131520,note_on,30,0,3,,,,,,,,,2,,,47,0
131520,note_on,0,0,3,,,,,,,,,2,,,48,36
131760,note_on,240,0,3,,,,,,,,,2,,,48,0
131760,note_on,0,0,1,,,,,,,,,0,,,64,62
131760,note_on,240,0,1,,,,,,,,,0,,,60,0
131760,note_on,0,0,3,,,,,,,,,2,,,52,36
131760,note_on,0,0,3,,,,,,,,,2,,,40,36
131760,note_on,0,0,1,,,,,,,,,0,,,59,57
131760,note_on,0,0,1,,,,,,,,,0,,,56,52
132000,note_on,0,0,1,,,,,,,,,0,,,56,0
132000,note_on,0,0,1,,,,,,,,,0,,,59,0
132000,note_on,240,0,1,,,,,,,,,0,,,64,0
132000,note_on,0,0,1,,,,,,,,,0,,,48,36
132000,note_on,240,0,3,,,,,,,,,2,,,52,0
132000,note_on,0,0,3,,,,,,,,,2,,,40,0
132000,note_on,0,0,3,,,,,,,,,2,,,36,36
132000,note_on,0,0,1,,,,,,,,,0,,,60,36
132240,note_on,240,0,3,,,,,,,,,2,,,36,0
132240,note_on,0,0,3,,,,,,,,,2,,,33,36
132240,note_on,0,0,3,,,,,,,,,2,,,45,36
132240,note_on,240,0,1,,,,,,,,,0,,,60,0
132240,note_on,0,0,1,,,,,,,,,0,,,57,36
132240,note_on,0,0,1,,,,,,,,,0,,,48,0
132300,note_on,60,0,1,,,,,,,,,0,,,57,0
132300,note_on,60,0,3,,,,,,,,,2,,,45,0
132300,note_on,0,0,3,,,,,,,,,2,,,33,0
132480,note_on,180,0,1,,,,,,,,,0,,,57,36
132480,note_on,0,0,1,,,,,,,,,0,,,62,36
132480,note_on,0,0,1,,,,,,,,,0,,,65,36
132480,note_on,0,0,1,,,,,,,,,0,,,69,36
132720,note_on,240,0,1,,,,,,,,,0,,,69,0
132720,note_on,0,0,1,,,,,,,,,0,,,57,0
132720,note_on,0,0,1,,,,,,,,,0,,,62,0
132720,note_on,0,0,1,,,,,,,,,0,,,65,0
132720,note_on,0,0,1,,,,,,,,,0,,,57,36
132780,note_on,60,0,1,,,,,,,,,0,,,57,0
132960,note_on,180,0,1,,,,,,,,,0,,,57,36
132960,note_on,0,0,1,,,,,,,,,0,,,60,36
132960,note_on,0,0,1,,,,,,,,,0,,,69,36
133200,note_on,0,0,1,,,,,,,,,0,,,57,36
133200,note_on,0,0,1,,,,,,,,,0,,,57,0
133200,note_on,0,0,1,,,,,,,,,0,,,60,0
133200,note_on,240,0,1,,,,,,,,,0,,,69,0
133260,note_on,60,0,1,,,,,,,,,0,,,57,0
133320,note_on,1020,0,3,,,,,,,,,2,,,45,36
133440,control_change,120,0,3,,,,,,,,,2,64,127,,
133440,note_on,180,0,1,,,,,,,,,0,,,57,36
133440,note_on,0,0,1,,,,,,,,,0,,,62,36
133440,note_on,0,0,1,,,,,,,,,0,,,65,36
133440,note_on,0,0,1,,,,,,,,,0,,,69,36
133560,note_on,0,0,3,,,,,,,,,2,,,50,36
133560,note_on,120,0,3,,,,,,,,,2,,,45,0
133680,note_on,120,0,3,,,,,,,,,2,,,50,0
133680,note_on,240,0,1,,,,,,,,,0,,,69,0
133680,note_on,0,0,1,,,,,,,,,0,,,57,0
133680,note_on,0,0,1,,,,,,,,,0,,,62,0
133680,note_on,0,0,1,,,,,,,,,0,,,65,0
133680,note_on,0,0,1,,,,,,,,,0,,,57,36
133680,note_on,0,0,3,,,,,,,,,2,,,52,36
133740,note_on,60,0,1,,,,,,,,,0,,,57,0
133800,note_on,0,0,3,,,,,,,,,2,,,53,36
133800,control_change,0,0,3,,,,,,,,,2,64,0,,
133800,note_on,120,0,3,,,,,,,,,2,,,52,0
133920,note_on,120,0,3,,,,,,,,,2,,,53,0
133920,note_on,0,0,3,,,,,,,,,2,,,52,36
133920,note_on,180,0,1,,,,,,,,,0,,,57,36
133920,note_on,0,0,1,,,,,,,,,0,,,60,36
133920,note_on,0,0,1,,,,,,,,,0,,,69,36
134160,note_on,240,0,3,,,,,,,,,2,,,52,0
134160,note_on,0,0,3,,,,,,,,,2,,,45,62
134160,note_on,240,0,1,,,,,,,,,0,,,69,0
134160,note_on,0,0,1,,,,,,,,,0,,,60,0
134160,note_on,0,0,1,,,,,,,,,0,,,57,0
134160,note_on,0,0,1,,,,,,,,,0,,,57,36
134220,note_on,60,0,1,,,,,,,,,0,,,57,0
134220,note_on,60,0,3,,,,,,,,,2,,,45,0
134280,note_on,60,0,3,,,,,,,,,2,,,55,36
134400,note_on,120,0,3,,,,,,,,,2,,,55,0
134400,note_on,0,0,3,,,,,,,,,2,,,53,36
134400,note_on,180,0,1,,,,,,,,,0,,,57,36
134400,note_on,0,0,1,,,,,,,,,0,,,62,36
134400,note_on,0,0,1,,,,,,,,,0,,,69,36
134640,note_on,240,0,1,,,,,,,,,0,,,69,0
134640,note_on,0,0,1,,,,,,,,,0,,,57,36
134640,note_on,240,0,3,,,,,,,,,2,,,53,0
134640,note_on,0,0,3,,,,,,,,,2,,,45,62
134640,note_on,0,0,1,,,,,,,,,0,,,57,0
134640,note_on,0,0,1,,,,,,,,,0,,,62,0
134700,note_on,60,0,3,,,,,,,,,2,,,45,0
134700,note_on,60,0,1,,,,,,,,,0,,,57,0
134760,note_on,0,0,3,,,,,,,,,2,,,53,36
134760,control_change,60,0,3,,,,,,,,,2,64,127,,
134880,note_on,0,0,1,,,,,,,,,0,,,69,36
134880,note_on,120,0,3,,,,,,,,,2,,,53,0
134880,note_on,180,0,1,,,,,,,,,0,,,57,36
134880,note_on,0,0,3,,,,,,,,,2,,,52,36
134880,note_on,0,0,1,,,,,,,,,0,,,60,36
135120,note_on,240,0,1,,,,,,,,,0,,,69,0
135120,note_on,0,0,1,,,,,,,,,0,,,57,0
135120,note_on,0,0,1,,,,,,,,,0,,,57,36
135120,note_on,0,0,1,,,,,,,,,0,,,60,0
135120,note_on,240,0,3,,,,,,,,,2,,,52,0
135120,note_on,0,0,3,,,,,,,,,2,,,45,62
135180,note_on,60,0,3,,,,,,,,,2,,,45,0
135180,control_change,0,0,3,,,,,,,,,2,64,0,,
135180,note_on,60,0,1,,,,,,,,,0,,,57,0
135240,control_change,60,0,3,,,,,,,,,2,64,127,,
135240,note_on,0,0,3,,,,,,,,,2,,,33,36
135240,note_on,0,0,3,,,,,,,,,2,,,45,36
135360,note_on,180,0,1,,,,,,,,,0,,,69,49
135360,note_on,0,0,1,,,,,,,,,0,,,81,49
135360,note_on,0,0,1,,,,,,,,,0,,,74,49
135360,note_on,0,0,1,,,,,,,,,0,,,77,49
135480,note_on,0,0,3,,,,,,,,,2,,,50,49
135480,note_on,0,0,3,,,,,,,,,2,,,38,49
135480,note_on,0,0,3,,,,,,,,,2,,,33,0
135480,note_on,240,0,3,,,,,,,,,2,,,45,0
135600,note_on,120,0,3,,,,,,,,,2,,,50,0
135600,note_on,0,0,3,,,,,,,,,2,,,40,49
135600,note_on,0,0,3,,,,,,,,,2,,,52,49
135600,note_on,240,0,1,,,,,,,,,0,,,81,0
135600,note_on,0,0,1,,,,,,,,,0,,,69,0
135600,note_on,0,0,3,,,,,,,,,2,,,38,0
135600,note_on,0,0,1,,,,,,,,,0,,,69,49
135600,note_on,0,0,1,,,,,,,,,0,,,77,0
135600,note_on,0,0,1,,,,,,,,,0,,,74,0
135660,note_on,60,0,1,,,,,,,,,0,,,69,0
135720,note_on,120,0,3,,,,,,,,,2,,,52,0
135720,note_on,0,0,3,,,,,,,,,2,,,41,49
135720,control_change,0,0,3,,,,,,,,,2,64,0,,
135720,note_on,0,0,3,,,,,,,,,2,,,40,0
135720,note_on,0,0,3,,,,,,,,,2,,,53,49
135840,note_on,120,0,3,,,,,,,,,2,,,53,0
135840,note_on,0,0,3,,,,,,,,,2,,,40,62
135840,note_on,0,0,1,,,,,,,,,0,,,81,62
135840,note_on,0,0,3,,,,,,,,,2,,,52,62
135840,note_on,0,0,1,,,,,,,,,0,,,72,62
135840,note_on,0,0,3,,,,,,,,,2,,,41,0
135840,note_on,180,0,1,,,,,,,,,0,,,69,62
136080,note_on,0,0,1,,,,,,,,,0,,,72,0
136080,note_on,0,0,1,,,,,,,,,0,,,69,0
136080,note_on,0,0,1,,,,,,,,,0,,,69,62
136080,note_on,240,0,1,,,,,,,,,0,,,81,0
136080,note_on,240,0,3,,,,,,,,,2,,,52,0
136080,note_on,0,0,3,,,,,,,,,2,,,45,62
136080,note_on,0,0,3,,,,,,,,,2,,,40,0
136080,note_on,0,0,3,,,,,,,,,2,,,33,62
136140,note_on,60,0,1,,,,,,,,,0,,,69,0
136140,note_on,60,0,3,,,,,,,,,2,,,45,0
136140,note_on,0,0,3,,,,,,,,,2,,,33,0
136200,note_on,0,0,3,,,,,,,,,2,,,52,62
136200,note_on,0,0,3,,,,,,,,,2,,,40,62
136200,control_change,60,0,3,,,,,,,,,2,64,127,,
136320,note_on,180,0,1,,,,,,,,,0,,,71,75
136320,note_on,0,0,1,,,,,,,,,0,,,76,75
136320,note_on,0,0,1,,,,,,,,,0,,,79,75
136440,note_on,240,0,3,,,,,,,,,2,,,52,0
136440,note_on,0,0,3,,,,,,,,,2,,,40,0
136440,note_on,0,0,3,,,,,,,,,2,,,55,75
136440,note_on,0,0,3,,,,,,,,,2,,,43,75
136560,note_on,0,0,3,,,,,,,,,2,,,57,75
136560,note_on,0,0,3,,,,,,,,,2,,,43,0
136560,note_on,120,0,3,,,,,,,,,2,,,55,0
136560,note_on,0,0,1,,,,,,,,,0,,,67,75
136560,note_on,0,0,1,,,,,,,,,0,,,71,0
136560,note_on,0,0,3,,,,,,,,,2,,,45,75
136560,note_on,0,0,1,,,,,,,,,0,,,76,0
136560,note_on,240,0,1,,,,,,,,,0,,,79,0
136620,note_on,60,0,1,,,,,,,,,0,,,67,0
136680,note_on,120,0,3,,,,,,,,,2,,,57,0
136680,note_on,0,0,3,,,,,,,,,2,,,59,75
136680,note_on,0,0,3,,,,,,,,,2,,,47,75
136680,control_change,0,0,3,,,,,,,,,2,64,0,,
136680,note_on,0,0,3,,,,,,,,,2,,,45,0
136800,note_on,0,0,3,,,,,,,,,2,,,47,0
136800,note_on,0,0,1,,,,,,,,,0,,,78,88
136800,note_on,120,0,3,,,,,,,,,2,,,59,0
136800,note_on,0,0,1,,,,,,,,,0,,,75,88
136800,note_on,0,0,3,,,,,,,,,2,,,47,75
136800,note_on,180,0,1,,,,,,,,,0,,,66,88
136800,note_on,0,0,3,,,,,,,,,2,,,59,75
137040,note_on,0,0,1,,,,,,,,,0,,,75,88
137040,note_on,0,0,1,,,,,,,,,0,,,71,88
137040,note_on,0,0,1,,,,,,,,,0,,,66,0
137040,note_on,0,0,1,,,,,,,,,0,,,75,0
137040,note_on,0,0,3,,,,,,,,,2,,,47,0
137040,note_on,0,0,3,,,,,,,,,2,,,47,75
137040,note_on,240,0,3,,,,,,,,,2,,,59,0
137040,note_on,240,0,1,,,,,,,,,0,,,78,0
137040,note_on,0,0,3,,,,,,,,,2,,,59,75
137040,note_on,0,0,1,,,,,,,,,0,,,83,88
137280,note_on,240,0,3,,,,,,,,,2,,,59,0
137280,note_on,240,0,1,,,,,,,,,0,,,83,0
137280,note_on,0,0,3,,,,,,,,,2,,,47,0
137280,note_on,0,0,3,,,,,,,,,2,,,43,75
137280,note_on,0,0,3,,,,,,,,,2,,,55,75
137280,note_on,0,0,1,,,,,,,,,0,,,79,88
137280,note_on,0,0,1,,,,,,,,,0,,,67,88
137280,note_on,0,0,1,,,,,,,,,0,,,71,0
137280,note_on,0,0,1,,,,,,,,,0,,,75,0
137520,note_on,0,0,3,,,,,,,,,2,,,40,75
137520,note_on,0,0,1,,,,,,,,,0,,,67,0
137520,note_on,0,0,1,,,,,,,,,0,,,64,88
137520,note_on,0,0,1,,,,,,,,,0,,,76,88
137520,note_on,240,0,3,,,,,,,,,2,,,55,0
137520,note_on,0,0,3,,,,,,,,,2,,,43,0
137520,note_on,0,0,3,,,,,,,,,2,,,52,75
137520,note_on,240,0,1,,,,,,,,,0,,,79,0
137580,note_on,60,0,1,,,,,,,,,0,,,76,0
137580,note_on,0,0,3,,,,,,,,,2,,,40,0
137580,note_on,60,0,3,,,,,,,,,2,,,52,0
137580,note_on,0,0,1,,,,,,,,,0,,,64,0
137760,note_on,180,0,1,,,,,,,,,0,,,54,49
137760,note_on,0,0,1,,,,,,,,,0,,,63,49
137760,note_on,0,0,1,,,,,,,,,0,,,66,49
137760,note_on,0,0,3,,,,,,,,,2,,,47,36
137760,note_on,180,0,3,,,,,,,,,2,,,35,36
138000,note_on,240,0,1,,,,,,,,,0,,,66,0
138000,note_on,0,0,1,,,,,,,,,0,,,71,49
138000,note_on,0,0,1,,,,,,,,,0,,,63,49
138000,note_on,0,0,1,,,,,,,,,0,,,59,49
138000,note_on,0,0,1,,,,,,,,,0,,,54,0
138000,note_on,0,0,1,,,,,,,,,0,,,63,0
138000,note_on,240,0,3,,,,,,,,,2,,,47,0
138000,note_on,0,0,3,,,,,,,,,2,,,35,0
138000,note_on,0,0,3,,,,,,,,,2,,,35,36
138000,note_on,0,0,3,,,,,,,,,2,,,47,36
138240,note_on,240,0,1,,,,,,,,,0,,,71,0
138240,note_on,0,0,1,,,,,,,,,0,,,63,0
138240,note_on,0,0,1,,,,,,,,,0,,,59,0
138240,note_on,0,0,1,,,,,,,,,0,,,55,49
138240,note_on,0,0,1,,,,,,,,,0,,,67,49
138240,note_on,0,0,3,,,,,,,,,2,,,43,36
138240,note_on,0,0,3,,,,,,,,,2,,,31,36
138240,note_on,0,0,3,,,,,,,,,2,,,35,0
138240,note_on,240,0,3,,,,,,,,,2,,,47,0
138480,note_on,240,0,3,,,,,,,,,2,,,43,0
138480,note_on,0,0,3,,,,,,,,,2,,,31,0
138480,note_on,0,0,3,,,,,,,,,2,,,40,36
138480,note_on,0,0,3,,,,,,,,,2,,,28,36
138480,note_on,240,0,1,,,,,,,,,0,,,67,0
138480,note_on,0,0,1,,,,,,,,,0,,,55,0
138480,note_on,0,0,1,,,,,,,,,0,,,52,49
138480,note_on,0,0,1,,,,,,,,,0,,,64,49
138540,note_on,60,0,3,,,,,,,,,2,,,40,0
138540,note_on,60,0,1,,,,,,,,,0,,,64,0
138540,note_on,0,0,1,,,,,,,,,0,,,52,0
138540,note_on,0,0,3,,,,,,,,,2,,,28,0
138720,note_on,0,0,1,,,,,,,,,0,,,67,36
138720,note_on,180,0,1,,,,,,,,,0,,,55,36
138720,note_on,180,0,3,,,,,,,,,2,,,40,36
138960,note_on,0,0,1,,,,,,,,,0,,,64,36
138960,note_on,0,0,1,,,,,,,,,0,,,52,36
138960,note_on,0,0,1,,,,,,,,,0,,,55,0
138960,note_on,240,0,1,,,,,,,,,0,,,67,0
138990,note_on,270,0,3,,,,,,,,,2,,,40,0
138990,note_on,0,0,3,,,,,,,,,2,,,41,36
139020,note_on,0,0,3,,,,,,,,,2,,,40,36
139020,note_on,0,0,1,,,,,,,,,0,,,52,0
139020,note_on,60,0,1,,,,,,,,,0,,,64,0
139020,note_on,30,0,3,,,,,,,,,2,,,41,0
139050,note_on,30,0,3,,,,,,,,,2,,,40,0
139050,note_on,0,0,3,,,,,,,,,2,,,41,36
139080,note_on,30,0,3,,,,,,,,,2,,,41,0
139080,note_on,0,0,3,,,,,,,,,2,,,40,36
139110,note_on,0,0,3,,,,,,,,,2,,,41,36
139110,note_on,30,0,3,,,,,,,,,2,,,40,0
139140,note_on,0,0,3,,,,,,,,,2,,,40,36
139140,note_on,30,0,3,,,,,,,,,2,,,41,0
139170,note_on,0,0,3,,,,,,,,,2,,,41,36
139170,note_on,30,0,3,,,,,,,,,2,,,40,0
139200,note_on,0,0,3,,,,,,,,,2,,,40,36
139200,control_change,0,0,3,,,,,,,,,2,64,127,,
139200,note_on,30,0,3,,,,,,,,,2,,,41,0
139200,note_on,180,0,1,,,,,,,,,0,,,53,36
139200,note_on,0,0,1,,,,,,,,,0,,,65,36
139230,note_on,0,0,3,,,,,,,,,2,,,41,36
139230,note_on,30,0,3,,,,,,,,,2,,,40,0
139260,note_on,0,0,3,,,,,,,,,2,,,40,36
139260,note_on,30,0,3,,,,,,,,,2,,,41,0
139290,note_on,30,0,3,,,,,,,,,2,,,40,0
139290,note_on,0,0,3,,,,,,,,,2,,,41,36
139320,note_on,30,0,3,,,,,,,,,2,,,41,0
139320,note_on,0,0,3,,,,,,,,,2,,,40,36
139350,note_on,0,0,3,,,,,,,,,2,,,41,36
139350,note_on,30,0,3,,,,,,,,,2,,,40,0
139380,note_on,30,0,3,,,,,,,,,2,,,41,0
139380,note_on,0,0,3,,,,,,,,,2,,,40,36
139410,note_on,30,0,3,,,,,,,,,2,,,40,0
139410,note_on,0,0,3,,,,,,,,,2,,,41,36
139440,note_on,0,0,1,,,,,,,,,0,,,62,36
139440,note_on,0,0,1,,,,,,,,,0,,,50,36
139440,note_on,0,0,1,,,,,,,,,0,,,53,0
139440,note_on,240,0,1,,,,,,,,,0,,,65,0
139440,control_change,0,0,3,,,,,,,,,2,64,0,,
139440,note_on,0,0,3,,,,,,,,,2,,,40,36
139440,note_on,30,0,3,,,,,,,,,2,,,41,0
139470,note_on,30,0,3,,,,,,,,,2,,,40,0
139470,note_on,0,0,3,,,,,,,,,2,,,41,36
139500,note_on,60,0,1,,,,,,,,,0,,,62,0
139500,note_on,30,0,3,,,,,,,,,2,,,41,0
139500,note_on,0,0,3,,,,,,,,,2,,,40,36
139500,note_on,0,0,1,,,,,,,,,0,,,50,0
139530,note_on,30,0,3,,,,,,,,,2,,,40,0
139530,note_on,0,0,3,,,,,,,,,2,,,41,36
139560,note_on,30,0,3,,,,,,,,,2,,,41,0
139560,note_on,0,0,3,,,,,,,,,2,,,40,36
139590,note_on,30,0,3,,,,,,,,,2,,,40,0
139590,note_on,0,0,3,,,,,,,,,2,,,41,36
139620,note_on,0,0,3,,,,,,,,,2,,,40,36
139620,note_on,30,0,3,,,,,,,,,2,,,41,0
139650,note_on,0,0,3,,,,,,,,,2,,,41,36
139650,note_on,30,0,3,,,,,,,,,2,,,40,0
139680,note_on,30,0,3,,,,,,,,,2,,,41,0
139680,control_change,0,0,3,,,,,,,,,2,64,127,,
139680,note_on,0,0,3,,,,,,,,,2,,,40,62
139680,note_on,180,0,1,,,,,,,,,0,,,52,62
139680,note_on,0,0,1,,,,,,,,,0,,,64,62
139710,note_on,0,0,3,,,,,,,,,2,,,41,62
139710,note_on,30,0,3,,,,,,,,,2,,,40,0
139740,note_on,0,0,3,,,,,,,,,2,,,40,62
139740,note_on,30,0,3,,,,,,,,,2,,,41,0
139770,note_on,30,0,3,,,,,,,,,2,,,40,0
139770,note_on,0,0,3,,,,,,,,,2,,,41,62
139800,note_on,30,0,3,,,,,,,,,2,,,41,0
139800,note_on,0,0,3,,,,,,,,,2,,,40,62
139830,note_on,30,0,3,,,,,,,,,2,,,40,0
139830,note_on,0,0,3,,,,,,,,,2,,,41,62
139860,note_on,30,0,3,,,,,,,,,2,,,41,0
139860,note_on,0,0,3,,,,,,,,,2,,,40,62
139890,note_on,0,0,3,,,,,,,,,2,,,41,62
139890,note_on,30,0,3,,,,,,,,,2,,,40,0
139920,control_change,0,0,3,,,,,,,,,2,64,0,,
139920,note_on,30,0,3,,,,,,,,,2,,,41,0
139920,note_on,240,0,1,,,,,,,,,0,,,64,0
139920,note_on,0,0,1,,,,,,,,,0,,,48,62
139920,note_on,0,0,1,,,,,,,,,0,,,52,0
139920,note_on,0,0,1,,,,,,,,,0,,,60,62
139920,note_on,0,0,3,,,,,,,,,2,,,40,62
139950,note_on,0,0,3,,,,,,,,,2,,,41,62
139950,note_on,30,0,3,,,,,,,,,2,,,40,0
139980,note_on,0,0,1,,,,,,,,,0,,,48,0
139980,note_on,60,0,1,,,,,,,,,0,,,60,0
139980,note_on,30,0,3,,,,,,,,,2,,,41,0
139980,note_on,0,0,3,,,,,,,,,2,,,40,62
140010,note_on,30,0,3,,,,,,,,,2,,,40,0
140010,note_on,0,0,3,,,,,,,,,2,,,41,62
140040,note_on,30,0,3,,,,,,,,,2,,,41,0
140040,note_on,0,0,3,,,,,,,,,2,,,40,62
140070,note_on,30,0,3,,,,,,,,,2,,,40,0
140070,note_on,0,0,3,,,,,,,,,2,,,41,62
140100,note_on,30,0,3,,,,,,,,,2,,,41,0
140100,note_on,0,0,3,,,,,,,,,2,,,40,62
140130,note_on,30,0,3,,,,,,,,,2,,,40,0
140130,note_on,0,0,3,,,,,,,,,2,,,41,62
140160,note_on,180,0,1,,,,,,,,,0,,,50,75
140160,note_on,30,0,3,,,,,,,,,2,,,41,0
140160,control_change,0,0,3,,,,,,,,,2,64,127,,
140160,note_on,0,0,1,,,,,,,,,0,,,62,75
140160,note_on,0,0,3,,,,,,,,,2,,,40,75
140190,note_on,30,0,3,,,,,,,,,2,,,40,0
140190,note_on,0,0,3,,,,,,,,,2,,,41,75
140220,note_on,30,0,3,,,,,,,,,2,,,41,0
140220,note_on,0,0,3,,,,,,,,,2,,,40,75
140250,note_on,30,0,3,,,,,,,,,2,,,40,0
140250,note_on,0,0,3,,,,,,,,,2,,,41,75
140280,note_on,30,0,3,,,,,,,,,2,,,41,0
140280,note_on,0,0,3,,,,,,,,,2,,,40,75
140310,note_on,30,0,3,,,,,,,,,2,,,40,0
140310,note_on,0,0,3,,,,,,,,,2,,,41,75
140340,note_on,30,0,3,,,,,,,,,2,,,41,0
140340,note_on,0,0,3,,,,,,,,,2,,,40,75
140370,note_on,30,0,3,,,,,,,,,2,,,40,0
140370,note_on,0,0,3,,,,,,,,,2,,,41,75
140400,note_on,0,0,1,,,,,,,,,0,,,47,75
140400,note_on,0,0,1,,,,,,,,,0,,,59,75
140400,note_on,0,0,1,,,,,,,,,0,,,50,0
140400,note_on,240,0,1,,,,,,,,,0,,,62,0
140400,control_change,0,0,3,,,,,,,,,2,64,0,,
140400,note_on,0,0,3,,,,,,,,,2,,,40,75
140400,note_on,30,0,3,,,,,,,,,2,,,41,0
140430,note_on,0,0,3,,,,,,,,,2,,,41,75
140430,note_on,30,0,3,,,,,,,,,2,,,40,0
140460,note_on,60,0,1,,,,,,,,,0,,,59,0
140460,note_on,0,0,1,,,,,,,,,0,,,47,0
140460,note_on,30,0,3,,,,,,,,,2,,,41,0
140460,note_on,0,0,3,,,,,,,,,2,,,40,75
140490,note_on,30,0,3,,,,,,,,,2,,,40,0
140490,note_on,0,0,3,,,,,,,,,2,,,41,75
140520,note_on,0,0,3,,,,,,,,,2,,,40,75
140520,note_on,30,0,3,,,,,,,,,2,,,41,0
140550,note_on,30,0,3,,,,,,,,,2,,,40,0
140550,note_on,0,0,3,,,,,,,,,2,,,41,75
140580,note_on,30,0,3,,,,,,,,,2,,,41,0
140580,note_on,0,0,3,,,,,,,,,2,,,40,75
140610,note_on,30,0,3,,,,,,,,,2,,,40,0
140610,note_on,0,0,3,,,,,,,,,2,,,44,75
140640,control_change,180,0,1,,,,,,,,,0,64,127,,
140640,note_on,0,0,1,,,,,,,,,0,,,69,101
140640,note_on,0,0,3,,,,,,,,,2,,,33,88
140640,note_on,0,0,1,,,,,,,,,0,,,57,101
140640,note_on,0,0,3,,,,,,,,,2,,,45,88
140640,note_on,30,0,3,,,,,,,,,2,,,44,0
140640,control_change,0,0,3,,,,,,,,,2,64,127,,
140880,note_on,0,0,1,,,,,,,,,0,,,57,0
140880,note_on,0,0,1,,,,,,,,,0,,,64,101
140880,note_on,0,0,1,,,,,,,,,0,,,76,101
140880,note_on,0,0,3,,,,,,,,,2,,,33,0
140880,note_on,240,0,3,,,,,,,,,2,,,45,0
140880,note_on,0,0,3,,,,,,,,,2,,,52,88
140880,note_on,0,0,3,,,,,,,,,2,,,40,88
140880,note_on,240,0,1,,,,,,,,,0,,,69,0
141120,control_change,0,0,3,,,,,,,,,2,64,0,,
141120,note_on,0,0,3,,,,,,,,,2,,,40,0
141120,note_on,240,0,3,,,,,,,,,2,,,52,0
141120,note_on,0,0,3,,,,,,,,,2,,,39,106
141120,control_change,0,0,1,,,,,,,,,0,64,0,,
141120,note_on,0,0,1,,,,,,,,,0,,,75,101
141120,note_on,0,0,1,,,,,,,,,0,,,63,101
141120,note_on,0,0,1,,,,,,,,,0,,,64,0
141120,note_on,240,0,1,,,,,,,,,0,,,76,0
141120,note_on,0,0,3,,,,,,,,,2,,,51,114
141360,note_on,240,0,1,,,,,,,,,0,,,75,0
141360,note_on,0,0,1,,,,,,,,,0,,,76,101
141360,note_on,0,0,3,,,,,,,,,2,,,52,88
141360,note_on,0,0,3,,,,,,,,,2,,,40,88
141360,note_on,0,0,3,,,,,,,,,2,,,39,0
141360,note_on,240,0,3,,,,,,,,,2,,,51,0
141360,note_on,0,0,1,,,,,,,,,0,,,64,101
141360,note_on,0,0,1,,,,,,,,,0,,,63,0
141420,note_on,60,0,3,,,,,,,,,2,,,52,0
141420,note_on,0,0,3,,,,,,,,,2,,,40,0
141420,note_on,0,0,1,,,,,,,,,0,,,64,0
141420,note_on,60,0,1,,,,,,,,,0,,,76,0
141480,note_on,0,0,3,,,,,,,,,2,,,33,88
141480,control_change,60,0,3,,,,,,,,,2,64,127,,
141480,note_on,0,0,3,,,,,,,,,2,,,45,88
141480,note_on,0,0,1,,,,,,,,,0,,,52,101
141480,note_on,0,0,1,,,,,,,,,0,,,48,101
141480,control_change,60,0,1,,,,,,,,,0,64,127,,
141570,note_on,0,0,1,,,,,,,,,0,,,56,101
141570,note_on,90,0,1,,,,,,,,,0,,,52,0
141570,note_on,0,0,1,,,,,,,,,0,,,48,0
141570,note_on,0,0,1,,,,,,,,,0,,,50,101
141570,note_on,90,0,3,,,,,,,,,2,,,45,0
141570,note_on,0,0,3,,,,,,,,,2,,,33,0
141570,note_on,0,0,3,,,,,,,,,2,,,47,88
141570,note_on,0,0,3,,,,,,,,,2,,,35,88
141600,note_on,30,0,1,,,,,,,,,0,,,56,0
141600,note_on,0,0,3,,,,,,,,,2,,,36,88
141600,control_change,0,0,1,,,,,,,,,0,64,0,,
141600,note_on,0,0,1,,,,,,,,,0,,,57,101
141600,note_on,0,0,1,,,,,,,,,0,,,52,101
141600,note_on,0,0,1,,,,,,,,,0,,,50,0
141600,note_on,0,0,3,,,,,,,,,2,,,48,88
141600,control_change,0,0,3,,,,,,,,,2,64,0,,
141600,note_on,0,0,3,,,,,,,,,2,,,35,0
141600,note_on,30,0,3,,,,,,,,,2,,,47,0
141690,note_on,90,0,3,,,,,,,,,2,,,48,0
141690,note_on,0,0,3,,,,,,,,,2,,,38,88
141690,note_on,0,0,3,,,,,,,,,2,,,50,88
141690,note_on,0,0,3,,,,,,,,,2,,,36,0
141690,note_on,90,0,1,,,,,,,,,0,,,57,0
141690,note_on,0,0,1,,,,,,,,,0,,,52,0
141690,note_on,0,0,1,,,,,,,,,0,,,53,101
141690,note_on,0,0,1,,,,,,,,,0,,,59,101
141720,note_on,0,0,3,,,,,,,,,2,,,40,88
141720,note_on,30,0,1,,,,,,,,,0,,,59,0
141720,note_on,0,0,1,,,,,,,,,0,,,53,0
141720,note_on,0,0,1,,,,,,,,,0,,,55,101
141720,note_on,0,0,1,,,,,,,,,0,,,60,101
141720,note_on,0,0,3,,,,,,,,,2,,,38,0
141720,note_on,30,0,3,,,,,,,,,2,,,50,0
141720,note_on,0,0,3,,,,,,,,,2,,,52,88
141810,note_on,90,0,3,,,,,,,,,2,,,52,0
141810,note_on,0,0,3,,,,,,,,,2,,,40,0
141810,note_on,0,0,3,,,,,,,,,2,,,53,88
141810,note_on,0,0,3,,,,,,,,,2,,,41,88
141810,note_on,90,0,1,,,,,,,,,0,,,60,0
141810,note_on,0,0,1,,,,,,,,,0,,,55,0
141810,note_on,0,0,1,,,,,,,,,0,,,57,101
141810,note_on,0,0,1,,,,,,,,,0,,,62,101
141840,note_on,0,0,1,,,,,,,,,0,,,57,0
141840,note_on,30,0,3,,,,,,,,,2,,,53,0
141840,note_on,0,0,3,,,,,,,,,2,,,41,0
141840,note_on,0,0,3,,,,,,,,,2,,,40,88
141840,note_on,0,0,3,,,,,,,,,2,,,52,88
141840,note_on,0,0,1,,,,,,,,,0,,,60,101
141840,note_on,0,0,1,,,,,,,,,0,,,55,101
141840,note_on,30,0,1,,,,,,,,,0,,,62,0
141930,note_on,0,0,3,,,,,,,,,2,,,40,0
141930,note_on,0,0,3,,,,,,,,,2,,,41,88
141930,note_on,0,0,3,,,,,,,,,2,,,53,88
141930,note_on,0,0,1,,,,,,,,,0,,,55,0
141930,note_on,90,0,1,,,,,,,,,0,,,60,0
141930,note_on,0,0,1,,,,,,,,,0,,,57,101
141930,note_on,0,0,1,,,,,,,,,0,,,62,101
141930,note_on,90,0,3,,,,,,,,,2,,,52,0
141960,note_on,0,0,1,,,,,,,,,0,,,59,101
141960,note_on,30,0,3,,,,,,,,,2,,,53,0
141960,note_on,0,0,3,,,,,,,,,2,,,41,0
141960,note_on,0,0,3,,,,,,,,,2,,,43,88
141960,note_on,0,0,3,,,,,,,,,2,,,55,88
141960,note_on,0,0,1,,,,,,,,,0,,,57,0
141960,note_on,30,0,1,,,,,,,,,0,,,62,0
141960,note_on,0,0,1,,,,,,,,,0,,,64,101
142050,note_on,90,0,1,,,,,,,,,0,,,64,0
142050,note_on,0,0,1,,,,,,,,,0,,,59,0
142050,note_on,0,0,1,,,,,,,,,0,,,60,101
142050,note_on,0,0,1,,,,,,,,,0,,,65,101
142050,note_on,0,0,3,,,,,,,,,2,,,45,88
142050,note_on,0,0,3,,,,,,,,,2,,,43,0
142050,note_on,90,0,3,,,,,,,,,2,,,55,0
142050,note_on,0,0,3,,,,,,,,,2,,,57,88
142080,note_on,30,0,1,,,,,,,,,0,,,65,0
142080,note_on,0,0,3,,,,,,,,,2,,,43,88
142080,note_on,0,0,3,,,,,,,,,2,,,45,0
142080,note_on,30,0,3,,,,,,,,,2,,,57,0
142080,note_on,0,0,1,,,,,,,,,0,,,60,0
142080,note_on,0,0,1,,,,,,,,,0,,,59,101
142080,note_on,0,0,1,,,,,,,,,0,,,64,101
142080,note_on,0,0,3,,,,,,,,,2,,,55,88
142170,note_on,90,0,1,,,,,,,,,0,,,64,0
142170,note_on,0,0,1,,,,,,,,,0,,,59,0
142170,note_on,0,0,1,,,,,,,,,0,,,57,101
142170,note_on,90,0,3,,,,,,,,,2,,,55,0
142170,note_on,0,0,3,,,,,,,,,2,,,43,0
142170,note_on,0,0,3,,,,,,,,,2,,,41,88
142170,note_on,0,0,3,,,,,,,,,2,,,53,88
142170,note_on,0,0,1,,,,,,,,,0,,,62,101
142200,note_on,30,0,1,,,,,,,,,0,,,62,0
142200,note_on,0,0,1,,,,,,,,,0,,,57,0
142200,note_on,0,0,1,,,,,,,,,0,,,55,101
142200,note_on,0,0,1,,,,,,,,,0,,,60,101
142200,note_on,0,0,3,,,,,,,,,2,,,52,88
142200,note_on,0,0,3,,,,,,,,,2,,,41,0
142200,note_on,0,0,3,,,,,,,,,2,,,40,88
142200,note_on,30,0,3,,,,,,,,,2,,,53,0
142290,note_on,0,0,1,,,,,,,,,0,,,59,101
142290,note_on,0,0,3,,,,,,,,,2,,,50,88
142290,note_on,0,0,3,,,,,,,,,2,,,38,88
142290,note_on,0,0,3,,,,,,,,,2,,,40,0
142290,note_on,90,0,1,,,,,,,,,0,,,60,0
142290,note_on,0,0,1,,,,,,,,,0,,,55,0
142290,note_on,0,0,1,,,,,,,,,0,,,53,101
142290,note_on,90,0,3,,,,,,,,,2,,,52,0
142320,note_on,30,0,1,,,,,,,,,0,,,59,0
142320,note_on,0,0,1,,,,,,,,,0,,,53,0
142320,note_on,0,0,1,,,,,,,,,0,,,52,101
142320,note_on,0,0,1,,,,,,,,,0,,,57,101
142320,note_on,30,0,3,,,,,,,,,2,,,50,0
142320,note_on,0,0,3,,,,,,,,,2,,,38,0
142320,note_on,0,0,3,,,,,,,,,2,,,36,88
142320,note_on,0,0,3,,,,,,,,,2,,,48,88
142410,note_on,0,0,3,,,,,,,,,2,,,35,88
142410,note_on,90,0,1,,,,,,,,,0,,,57,0
142410,note_on,0,0,1,,,,,,,,,0,,,52,0
142410,note_on,90,0,3,,,,,,,,,2,,,48,0
142410,note_on,0,0,3,,,,,,,,,2,,,36,0
142410,note_on,0,0,1,,,,,,,,,0,,,56,101
142410,note_on,0,0,3,,,,,,,,,2,,,47,88
142410,note_on,0,0,1,,,,,,,,,0,,,52,101
142440,note_on,30,0,1,,,,,,,,,0,,,56,0
142440,note_on,0,0,1,,,,,,,,,0,,,52,101
142440,note_on,0,0,1,,,,,,,,,0,,,57,101
142440,note_on,0,0,1,,,,,,,,,0,,,52,0
142440,note_on,0,0,3,,,,,,,,,2,,,48,88
142440,note_on,0,0,3,,,,,,,,,2,,,36,88
142440,note_on,0,0,3,,,,,,,,,2,,,35,0
142440,note_on,30,0,3,,,,,,,,,2,,,47,0
142500,note_on,60,0,1,,,,,,,,,0,,,57,0
142500,note_on,0,0,1,,,,,,,,,0,,,52,0
142500,note_on,60,0,3,,,,,,,,,2,,,48,0
142500,note_on,0,0,3,,,,,,,,,2,,,36,0
142560,note_on,0,0,1,,,,,,,,,0,,,69,101
142560,note_on,60,0,1,,,,,,,,,0,,,57,101
142560,note_on,60,0,3,,,,,,,,,2,,,45,88
142800,note_on,0,0,1,,,,,,,,,0,,,69,101
142800,note_on,0,0,1,,,,,,,,,0,,,57,0
142800,note_on,240,0,1,,,,,,,,,0,,,69,0
142800,note_on,0,0,3,,,,,,,,,2,,,45,88
142800,note_on,0,0,1,,,,,,,,,0,,,81,101
142800,note_on,0,0,1,,,,,,,,,0,,,77,101
142800,note_on,0,0,3,,,,,,,,,2,,,38,88
142800,note_on,240,0,3,,,,,,,,,2,,,45,0
143040,note_on,0,0,1,,,,,,,,,0,,,77,0
143040,note_on,0,0,1,,,,,,,,,0,,,82,127
143040,note_on,240,0,1,,,,,,,,,0,,,81,0
143040,note_on,0,0,3,,,,,,,,,2,,,38,0
143040,note_on,0,0,3,,,,,,,,,2,,,37,106
143040,note_on,0,0,3,,,,,,,,,2,,,45,114
143040,note_on,240,0,3,,,,,,,,,2,,,45,0
143040,note_on,0,0,1,,,,,,,,,0,,,69,0
143040,note_on,0,0,1,,,,,,,,,0,,,70,117
143040,note_on,0,0,1,,,,,,,,,0,,,79,122
143280,note_on,0,0,3,,,,,,,,,2,,,38,88
143280,note_on,0,0,1,,,,,,,,,0,,,81,101
143280,note_on,0,0,1,,,,,,,,,0,,,70,0
143280,note_on,0,0,1,,,,,,,,,0,,,79,0
143280,note_on,240,0,1,,,,,,,,,0,,,82,0
143280,note_on,0,0,1,,,,,,,,,0,,,77,101
143280,note_on,240,0,3,,,,,,,,,2,,,37,0
143280,note_on,0,0,1,,,,,,,,,0,,,69,101
143340,note_on,60,0,3,,,,,,,,,2,,,38,0
143340,note_on,0,0,3,,,,,,,,,2,,,45,0
143340,note_on,0,0,1,,,,,,,,,0,,,69,0
143340,note_on,0,0,1,,,,,,,,,0,,,77,0
143340,note_on,60,0,1,,,,,,,,,0,,,81,0
143400,note_on,60,0,3,,,,,,,,,2,,,38,88
143400,note_on,0,0,1,,,,,,,,,0,,,57,101
143400,note_on,60,0,1,,,,,,,,,0,,,53,101
143400,note_on,0,0,3,,,,,,,,,2,,,50,88
143490,note_on,0,0,3,,,,,,,,,2,,,52,88
143490,note_on,0,0,1,,,,,,,,,0,,,53,0
143490,note_on,0,0,3,,,,,,,,,2,,,40,88
143490,note_on,0,0,1,,,,,,,,,0,,,61,101
143490,note_on,90,0,3,,,,,,,,,2,,,50,0
143490,note_on,0,0,3,,,,,,,,,2,,,38,0
143490,note_on,90,0,1,,,,,,,,,0,,,57,0
143490,note_on,0,0,1,,,,,,,,,0,,,55,101
143520,note_on,0,0,1,,,,,,,,,0,,,55,0
143520,note_on,0,0,1,,,,,,,,,0,,,57,101
143520,note_on,0,0,1,,,,,,,,,0,,,62,101
143520,note_on,0,0,3,,,,,,,,,2,,,53,88
143520,note_on,0,0,3,,,,,,,,,2,,,41,88
143520,note_on,0,0,3,,,,,,,,,2,,,40,0
143520,note_on,30,0,3,,,,,,,,,2,,,52,0
143520,note_on,30,0,1,,,,,,,,,0,,,61,0
143610,note_on,90,0,1,,,,,,,,,0,,,62,0
143610,note_on,0,0,3,,,,,,,,,2,,,55,88
143610,note_on,0,0,1,,,,,,,,,0,,,58,101
143610,note_on,0,0,1,,,,,,,,,0,,,64,101
143610,note_on,0,0,3,,,,,,,,,2,,,43,88
143610,note_on,0,0,3,,,,,,,,,2,,,41,0
143610,note_on,90,0,3,,,,,,,,,2,,,53,0
143610,note_on,0,0,1,,,,,,,,,0,,,57,0
143640,note_on,30,0,3,,,,,,,,,2,,,55,0
143640,note_on,30,0,1,,,,,,,,,0,,,64,0
143640,note_on,0,0,1,,,,,,,,,0,,,58,0
143640,note_on,0,0,1,,,,,,,,,0,,,60,101
143640,note_on,0,0,3,,,,,,,,,2,,,57,88
143640,note_on,0,0,3,,,,,,,,,2,,,45,88
143640,note_on,0,0,3,,,,,,,,,2,,,43,0
143640,note_on,0,0,1,,,,,,,,,0,,,65,101
143730,note_on,90,0,3,,,,,,,,,2,,,57,0
143730,note_on,90,0,1,,,,,,,,,0,,,65,0
143730,note_on,0,0,1,,,,,,,,,0,,,60,0
143730,note_on,0,0,1,,,,,,,,,0,,,62,101
143730,note_on,0,0,1,,,,,,,,,0,,,67,101
143730,note_on,0,0,3,,,,,,,,,2,,,45,0
143730,note_on,0,0,3,,,,,,,,,2,,,46,88
143730,note_on,0,0,3,,,,,,,,,2,,,58,88
143760,note_on,0,0,3,,,,,,,,,2,,,46,0
143760,note_on,0,0,1,,,,,,,,,0,,,62,0
143760,note_on,30,0,1,,,,,,,,,0,,,67,0
143760,note_on,0,0,3,,,,,,,,,2,,,57,88
143760,note_on,0,0,3,,,,,,,,,2,,,45,88
143760,note_on,30,0,3,,,,,,,,,2,,,58,0
143760,note_on,0,0,1,,,,,,,,,0,,,65,101
143760,note_on,0,0,1,,,,,,,,,0,,,60,101
143850,note_on,0,0,3,,,,,,,,,2,,,46,88
143850,note_on,0,0,3,,,,,,,,,2,,,45,0
143850,note_on,90,0,3,,,,,,,,,2,,,57,0
143850,note_on,0,0,1,,,,,,,,,0,,,60,0
143850,note_on,90,0,1,,,,,,,,,0,,,65,0
143850,note_on,0,0,1,,,,,,,,,0,,,62,101
143850,note_on,0,0,1,,,,,,,,,0,,,67,101
143850,note_on,0,0,3,,,,,,,,,2,,,58,88
143880,note_on,0,0,1,,,,,,,,,0,,,64,101
143880,note_on,0,0,3,,,,,,,,,2,,,46,0
143880,note_on,0,0,3,,,,,,,,,2,,,48,88
143880,note_on,0,0,3,,,,,,,,,2,,,60,88
143880,note_on,30,0,3,,,,,,,,,2,,,58,0
143880,note_on,0,0,1,,,,,,,,,0,,,62,0
143880,note_on,30,0,1,,,,,,,,,0,,,67,0
143880,note_on,0,0,1,,,,,,,,,0,,,69,101
143970,note_on,90,0,1,,,,,,,,,0,,,69,0
143970,note_on,0,0,1,,,,,,,,,0,,,64,0
143970,note_on,0,0,1,,,,,,,,,0,,,70,101
143970,note_on,0,0,1,,,,,,,,,0,,,65,101
143970,note_on,0,0,3,,,,,,,,,2,,,62,88
143970,note_on,0,0,3,,,,,,,,,2,,,50,88
143970,note_on,0,0,3,,,,,,,,,2,,,48,0
143970,note_on,90,0,3,,,,,,,,,2,,,60,0
144000,note_on,0,0,3,,,,,,,,,2,,,48,88
144000,note_on,30,0,3,,,,,,,,,2,,,62,0
144000,note_on,0,0,3,,,,,,,,,2,,,60,88
144000,note_on,0,0,3,,,,,,,,,2,,,50,0
144000,note_on,30,0,1,,,,,,,,,0,,,70,0
144000,note_on,0,0,1,,,,,,,,,0,,,65,0
144000,note_on,0,0,1,,,,,,,,,0,,,64,101
144000,note_on,0,0,1,,,,,,,,,0,,,69,101
144090,note_on,90,0,3,,,,,,,,,2,,,60,0
144090,note_on,0,0,1,,,,,,,,,0,,,62,101
144090,note_on,0,0,3,,,,,,,,,2,,,48,0
144090,note_on,0,0,3,,,,,,,,,2,,,46,88
144090,note_on,0,0,3,,,,,,,,,2,,,58,88
144090,note_on,0,0,1,,,,,,,,,0,,,67,101
144090,note_on,0,0,1,,,,,,,,,0,,,64,0
144090,note_on,90,0,1,,,,,,,,,0,,,69,0
144120,note_on,30,0,1,,,,,,,,,0,,,67,0
144120,note_on,0,0,3,,,,,,,,,2,,,45,88
144120,note_on,0,0,3,,,,,,,,,2,,,57,88
144120,note_on,0,0,1,,,,,,,,,0,,,65,101
144120,note_on,0,0,1,,,,,,,,,0,,,60,101
144120,note_on,0,0,1,,,,,,,,,0,,,62,0
144120,note_on,0,0,3,,,,,,,,,2,,,46,0
144120,note_on,30,0,3,,,,,,,,,2,,,58,0
144210,note_on,0,0,1,,,,,,,,,0,,,58,101
144210,note_on,90,0,3,,,,,,,,,2,,,57,0
144210,note_on,0,0,3,,,,,,,,,2,,,45,0
144210,note_on,0,0,3,,,,,,,,,2,,,43,88
144210,note_on,90,0,1,,,,,,,,,0,,,65,0
144210,note_on,0,0,1,,,,,,,,,0,,,60,0
144210,note_on,0,0,1,,,,,,,,,0,,,64,101
144210,note_on,0,0,3,,,,,,,,,2,,,55,88
144240,note_on,0,0,3,,,,,,,,,2,,,41,88
144240,note_on,0,0,3,,,,,,,,,2,,,43,0
144240,note_on,0,0,3,,,,,,,,,2,,,53,88
144240,note_on,0,0,1,,,,,,,,,0,,,62,101
144240,note_on,0,0,1,,,,,,,,,0,,,57,101
144240,note_on,30,0,1,,,,,,,,,0,,,64,0
144240,note_on,30,0,3,,,,,,,,,2,,,55,0
144240,note_on,0,0,1,,,,,,,,,0,,,58,0
144330,note_on,90,0,3,,,,,,,,,2,,,53,0
144330,note_on,0,0,1,,,,,,,,,0,,,57,0
144330,note_on,0,0,1,,,,,,,,,0,,,57,101
144330,note_on,0,0,1,,,,,,,,,0,,,61,101
144330,note_on,0,0,3,,,,,,,,,2,,,41,0
144330,note_on,0,0,3,,,,,,,,,2,,,40,88
144330,note_on,0,0,3,,,,,,,,,2,,,52,88
144330,note_on,90,0,1,,,,,,,,,0,,,62,0
144360,note_on,30,0,3,,,,,,,,,2,,,52,0
144360,note_on,0,0,3,,,,,,,,,2,,,41,88
144360,note_on,0,0,3,,,,,,,,,2,,,53,88
144360,note_on,0,0,3,,,,,,,,,2,,,40,0
144360,note_on,30,0,1,,,,,,,,,0,,,61,0
144360,note_on,0,0,1,,,,,,,,,0,,,57,0
144360,note_on,0,0,1,,,,,,,,,0,,,57,101
144360,note_on,0,0,1,,,,,,,,,0,,,62,101
144420,note_on,60,0,1,,,,,,,,,0,,,62,0
144420,note_on,0,0,1,,,,,,,,,0,,,57,0
144420,note_on,60,0,3,,,,,,,,,2,,,53,0
144420,note_on,0,0,3,,,,,,,,,2,,,41,0
144480,note_on,0,0,3,,,,,,,,,2,,,62,114
144480,note_on,60,0,3,,,,,,,,,2,,,50,102
144480,note_on,0,0,3,,,,,,,,,2,,,55,106
144480,note_on,0,0,3,,,,,,,,,2,,,58,110
144720,note_on,0,0,3,,,,,,,,,2,,,38,88
144720,note_on,0,0,3,,,,,,,,,2,,,58,0
144720,note_on,0,0,3,,,,,,,,,2,,,55,0
144720,note_on,0,0,3,,,,,,,,,2,,,50,88
144720,note_on,240,0,3,,,,,,,,,2,,,62,0
144720,note_on,0,0,3,,,,,,,,,2,,,50,0
144780,note_on,60,0,3,,,,,,,,,2,,,50,0
144780,note_on,0,0,3,,,,,,,,,2,,,38,0
144960,note_on,0,0,3,,,,,,,,,2,,,62,114
144960,note_on,180,0,3,,,,,,,,,2,,,50,102
144960,note_on,0,0,3,,,,,,,,,2,,,53,106
144960,note_on,0,0,3,,,,,,,,,2,,,57,110
145200,note_on,0,0,3,,,,,,,,,2,,,50,88
145200,note_on,0,0,3,,,,,,,,,2,,,53,0
145200,note_on,0,0,3,,,,,,,,,2,,,57,0
145200,note_on,240,0,3,,,,,,,,,2,,,62,0
145200,note_on,0,0,3,,,,,,,,,2,,,38,88
145200,note_on,0,0,3,,,,,,,,,2,,,50,0
145260,note_on,60,0,3,,,,,,,,,2,,,50,0
145260,note_on,0,0,3,,,,,,,,,2,,,38,0
145320,note_on,900,0,1,,,,,,,,,0,,,62,101
145320,note_on,0,0,1,,,,,,,,,0,,,74,101
145440,note_on,0,0,3,,,,,,,,,2,,,62,114
145440,note_on,0,0,3,,,,,,,,,2,,,58,110
145440,note_on,0,0,3,,,,,,,,,2,,,55,106
145440,note_on,180,0,3,,,,,,,,,2,,,50,102
145560,note_on,240,0,1,,,,,,,,,0,,,74,0
145560,note_on,0,0,1,,,,,,,,,0,,,62,0
145560,note_on,0,0,1,,,,,,,,,0,,,67,101
145560,note_on,0,0,1,,,,,,,,,0,,,79,101
145680,note_on,0,0,3,,,,,,,,,2,,,55,0
145680,note_on,120,0,1,,,,,,,,,0,,,79,0
145680,note_on,0,0,1,,,,,,,,,0,,,67,0
145680,note_on,0,0,1,,,,,,,,,0,,,69,101
145680,note_on,0,0,1,,,,,,,,,0,,,81,101
145680,note_on,0,0,3,,,,,,,,,2,,,50,0
145680,note_on,240,0,3,,,,,,,,,2,,,62,0
145680,note_on,0,0,3,,,,,,,,,2,,,58,0
145680,note_on,0,0,3,,,,,,,,,2,,,38,88
145680,note_on,0,0,3,,,,,,,,,2,,,50,88
145740,note_on,60,0,3,,,,,,,,,2,,,50,0
145740,note_on,0,0,3,,,,,,,,,2,,,38,0
145800,note_on,0,0,1,,,,,,,,,0,,,82,101
145800,note_on,0,0,1,,,,,,,,,0,,,70,101
145800,note_on,0,0,1,,,,,,,,,0,,,69,0
145800,note_on,120,0,1,,,,,,,,,0,,,81,0
145920,note_on,0,0,3,,,,,,,,,2,,,53,106
145920,note_on,120,0,1,,,,,,,,,0,,,82,0
145920,note_on,0,0,3,,,,,,,,,2,,,62,114
145920,note_on,0,0,3,,,,,,,,,2,,,57,110
145920,note_on,0,0,1,,,,,,,,,0,,,70,0
145920,note_on,0,0,1,,,,,,,,,0,,,69,101
145920,note_on,0,0,1,,,,,,,,,0,,,81,101
145920,note_on,180,0,3,,,,,,,,,2,,,50,102
146160,note_on,0,0,1,,,,,,,,,0,,,74,101
146160,note_on,240,0,1,,,,,,,,,0,,,81,0
146160,note_on,0,0,1,,,,,,,,,0,,,69,0
146160,note_on,0,0,3,,,,,,,,,2,,,53,0
146160,note_on,0,0,1,,,,,,,,,0,,,62,101
146160,note_on,0,0,3,,,,,,,,,2,,,50,88
146160,note_on,0,0,3,,,,,,,,,2,,,38,88
146160,note_on,0,0,3,,,,,,,,,2,,,57,0
146160,note_on,0,0,3,,,,,,,,,2,,,50,0
146160,note_on,240,0,3,,,,,,,,,2,,,62,0
146220,note_on,60,0,1,,,,,,,,,0,,,74,0
146220,note_on,0,0,1,,,,,,,,,0,,,62,0
146220,note_on,0,0,3,,,,,,,,,2,,,38,0
146220,note_on,60,0,3,,,,,,,,,2,,,50,0
146280,note_on,60,0,1,,,,,,,,,0,,,72,101
146280,note_on,0,0,1,,,,,,,,,0,,,84,101
146400,note_on,0,0,1,,,,,,,,,0,,,82,101
146400,note_on,0,0,3,,,,,,,,,2,,,62,88
146400,note_on,0,0,3,,,,,,,,,2,,,58,88
146400,note_on,180,0,3,,,,,,,,,2,,,50,88
146400,note_on,0,0,3,,,,,,,,,2,,,55,88
146400,note_on,0,0,1,,,,,,,,,0,,,70,101
146400,note_on,0,0,1,,,,,,,,,0,,,72,0
146400,note_on,120,0,1,,,,,,,,,0,,,84,0
146640,note_on,0,0,3,,,,,,,,,2,,,50,88
146640,note_on,0,0,3,,,,,,,,,2,,,38,88
146640,note_on,0,0,3,,,,,,,,,2,,,58,0
146640,note_on,0,0,3,,,,,,,,,2,,,55,0
146640,note_on,0,0,3,,,,,,,,,2,,,50,0
146640,note_on,240,0,3,,,,,,,,,2,,,62,0
146640,note_on,240,0,1,,,,,,,,,0,,,82,0
146640,note_on,0,0,1,,,,,,,,,0,,,70,0
146640,note_on,0,0,1,,,,,,,,,0,,,74,101
146640,note_on,0,0,1,,,,,,,,,0,,,62,101
146700,note_on,0,0,1,,,,,,,,,0,,,62,0
146700,note_on,60,0,1,,,,,,,,,0,,,74,0
146700,note_on,60,0,3,,,,,,,,,2,,,50,0
146700,note_on,0,0,3,,,,,,,,,2,,,38,0
146760,note_on,0,0,1,,,,,,,,,0,,,82,101
146760,note_on,60,0,1,,,,,,,,,0,,,70,101
146880,note_on,0,0,1,,,,,,,,,0,,,69,101
146880,note_on,0,0,3,,,,,,,,,2,,,57,88
146880,note_on,0,0,1,,,,,,,,,0,,,81,101
146880,note_on,180,0,3,,,,,,,,,2,,,50,88
146880,note_on,0,0,3,,,,,,,,,2,,,53,88
146880,note_on,120,0,1,,,,,,,,,0,,,82,0
146880,note_on,0,0,3,,,,,,,,,2,,,62,88
146880,note_on,0,0,1,,,,,,,,,0,,,70,0
147120,note_on,0,0,1,,,,,,,,,0,,,62,101
147120,note_on,0,0,3,,,,,,,,,2,,,50,88
147120,note_on,0,0,3,,,,,,,,,2,,,38,88
147120,note_on,0,0,3,,,,,,,,,2,,,57,0
147120,note_on,0,0,3,,,,,,,,,2,,,53,0
147120,note_on,0,0,3,,,,,,,,,2,,,50,0
147120,note_on,240,0,1,,,,,,,,,0,,,81,0
147120,note_on,0,0,1,,,,,,,,,0,,,69,0
147120,note_on,0,0,1,,,,,,,,,0,,,74,101
147120,note_on,240,0,3,,,,,,,,,2,,,62,0
147180,note_on,0,0,1,,,,,,,,,0,,,62,0
147180,note_on,60,0,3,,,,,,,,,2,,,50,0
147180,note_on,0,0,3,,,,,,,,,2,,,38,0
147180,note_on,60,0,1,,,,,,,,,0,,,74,0
147240,note_on,0,0,1,,,,,,,,,0,,,74,101
147240,note_on,60,0,1,,,,,,,,,0,,,62,101
147360,note_on,180,0,3,,,,,,,,,2,,,55,88
147360,note_on,0,0,3,,,,,,,,,2,,,67,88
147360,note_on,0,0,3,,,,,,,,,2,,,62,88
147360,note_on,0,0,3,,,,,,,,,2,,,58,88
147480,note_on,240,0,1,,,,,,,,,0,,,74,0
147480,note_on,0,0,1,,,,,,,,,0,,,62,0
147480,note_on,0,0,1,,,,,,,,,0,,,67,101
147480,note_on,0,0,1,,,,,,,,,0,,,79,101
147600,note_on,0,0,3,,,,,,,,,2,,,55,0
147600,note_on,0,0,3,,,,,,,,,2,,,58,0
147600,note_on,0,0,3,,,,,,,,,2,,,55,88
147600,note_on,0,0,1,,,,,,,,,0,,,82,101
147600,note_on,240,0,3,,,,,,,,,2,,,67,0
147600,note_on,120,0,1,,,,,,,,,0,,,79,0
147600,note_on,0,0,1,,,,,,,,,0,,,67,0
147600,note_on,0,0,1,,,,,,,,,0,,,70,101
147600,note_on,0,0,3,,,,,,,,,2,,,62,0
147600,note_on,0,0,3,,,,,,,,,2,,,43,88
147660,note_on,60,0,3,,,,,,,,,2,,,55,0
147660,note_on,0,0,3,,,,,,,,,2,,,43,0
147720,note_on,120,0,1,,,,,,,,,0,,,82,0
147720,note_on,0,0,1,,,,,,,,,0,,,70,0
147720,note_on,0,0,1,,,,,,,,,0,,,74,101
147720,note_on,0,0,1,,,,,,,,,0,,,86,101
147840,note_on,180,0,3,,,,,,,,,2,,,55,88
147840,note_on,0,0,3,,,,,,,,,2,,,60,88
147840,note_on,0,0,3,,,,,,,,,2,,,63,88
147840,note_on,0,0,3,,,,,,,,,2,,,67,88
147840,note_on,0,0,1,,,,,,,,,0,,,87,101
147840,note_on,0,0,1,,,,,,,,,0,,,75,101
147840,note_on,0,0,1,,,,,,,,,0,,,74,0
147840,note_on,120,0,1,,,,,,,,,0,,,86,0
148080,note_on,240,0,1,,,,,,,,,0,,,87,0
148080,note_on,0,0,3,,,,,,,,,2,,,63,0
148080,note_on,0,0,1,,,,,,,,,0,,,75,0
148080,note_on,0,0,3,,,,,,,,,2,,,60,0
148080,note_on,0,0,3,,,,,,,,,2,,,55,0
148080,note_on,240,0,3,,,,,,,,,2,,,67,0
148080,note_on,0,0,3,,,,,,,,,2,,,55,88
148080,note_on,0,0,1,,,,,,,,,0,,,67,101
148080,note_on,0,0,3,,,,,,,,,2,,,43,88
148080,note_on,0,0,1,,,,,,,,,0,,,79,101
148140,note_on,60,0,3,,,,,,,,,2,,,55,0
148140,note_on,0,0,3,,,,,,,,,2,,,43,0
148140,note_on,60,0,1,,,,,,,,,0,,,79,0
148140,note_on,0,0,1,,,,,,,,,0,,,67,0
148200,note_on,0,0,1,,,,,,,,,0,,,87,101
148200,note_on,60,0,1,,,,,,,,,0,,,75,101
148320,note_on,120,0,1,,,,,,,,,0,,,87,0
148320,note_on,0,0,1,,,,,,,,,0,,,75,0
148320,note_on,0,0,1,,,,,,,,,0,,,74,101
148320,note_on,0,0,1,,,,,,,,,0,,,86,101
148320,note_on,180,0,3,,,,,,,,,2,,,55,88
148320,note_on,0,0,3,,,,,,,,,2,,,58,88
148320,note_on,0,0,3,,,,,,,,,2,,,62,88
148320,note_on,0,0,3,,,,,,,,,2,,,67,88
148560,note_on,0,0,1,,,,,,,,,0,,,79,101
148560,note_on,0,0,1,,,,,,,,,0,,,67,101
148560,note_on,0,0,3,,,,,,,,,2,,,43,88
148560,note_on,0,0,3,,,,,,,,,2,,,55,88
148560,note_on,0,0,3,,,,,,,,,2,,,58,0
148560,note_on,0,0,3,,,,,,,,,2,,,55,0
148560,note_on,240,0,3,,,,,,,,,2,,,67,0
148560,note_on,0,0,1,,,,,,,,,0,,,74,0
148560,note_on,240,0,1,,,,,,,,,0,,,86,0
148560,note_on,0,0,3,,,,,,,,,2,,,62,0
148620,note_on,0,0,3,,,,,,,,,2,,,43,0
148620,note_on,60,0,3,,,,,,,,,2,,,55,0
148620,note_on,60,0,1,,,,,,,,,0,,,79,0
148620,note_on,0,0,1,,,,,,,,,0,,,67,0
148680,note_on,0,0,1,,,,,,,,,0,,,86,101
148680,note_on,60,0,1,,,,,,,,,0,,,74,101
148800,note_on,180,0,3,,,,,,,,,2,,,53,88
148800,note_on,0,0,3,,,,,,,,,2,,,57,88
148800,note_on,0,0,3,,,,,,,,,2,,,62,88
148800,note_on,0,0,3,,,,,,,,,2,,,65,88
148920,note_on,0,0,1,,,,,,,,,0,,,74,0
148920,note_on,0,0,1,,,,,,,,,0,,,77,101
148920,note_on,240,0,1,,,,,,,,,0,,,86,0
148920,note_on,0,0,1,,,,,,,,,0,,,89,101
149040,note_on,240,0,3,,,,,,,,,2,,,65,0
149040,note_on,0,0,3,,,,,,,,,2,,,53,0
149040,note_on,0,0,3,,,,,,,,,2,,,57,0
149040,note_on,0,0,3,,,,,,,,,2,,,62,0
149040,note_on,0,0,3,,,,,,,,,2,,,41,88
149040,note_on,0,0,1,,,,,,,,,0,,,77,0
149040,note_on,0,0,1,,,,,,,,,0,,,91,101
149040,note_on,0,0,1,,,,,,,,,0,,,79,101
149040,note_on,120,0,1,,,,,,,,,0,,,89,0
149040,note_on,0,0,3,,,,,,,,,2,,,53,88
149100,note_on,0,0,3,,,,,,,,,2,,,41,0
149100,note_on,60,0,3,,,,,,,,,2,,,53,0
149160,note_on,0,0,1,,,,,,,,,0,,,81,101
149160,note_on,120,0,1,,,,,,,,,0,,,91,0
149160,note_on,0,0,1,,,,,,,,,0,,,79,0
149160,note_on,0,0,1,,,,,,,,,0,,,93,101
149280,note_on,0,0,3,,,,,,,,,2,,,61,109
149280,note_on,120,0,1,,,,,,,,,0,,,93,0
149280,note_on,0,0,3,,,,,,,,,2,,,64,114
149280,note_on,0,0,1,,,,,,,,,0,,,93,127
149280,note_on,0,0,1,,,,,,,,,0,,,81,0
149280,note_on,0,0,1,,,,,,,,,0,,,81,119
149280,note_on,180,0,3,,,,,,,,,2,,,52,104
149520,note_on,0,0,3,,,,,,,,,2,,,52,0
149520,note_on,0,0,3,,,,,,,,,2,,,61,109
149520,note_on,0,0,3,,,,,,,,,2,,,69,114
149520,note_on,0,0,1,,,,,,,,,0,,,93,127
149520,note_on,0,0,1,,,,,,,,,0,,,81,119
149520,note_on,240,0,1,,,,,,,,,0,,,93,0
149520,note_on,0,0,3,,,,,,,,,2,,,57,104
149520,note_on,0,0,3,,,,,,,,,2,,,61,0
149520,note_on,0,0,1,,,,,,,,,0,,,81,0
149520,note_on,240,0,3,,,,,,,,,2,,,64,0
149760,note_on,0,0,1,,,,,,,,,0,,,77,119
149760,note_on,0,0,3,,,,,,,,,2,,,65,114
149760,note_on,0,0,3,,,,,,,,,2,,,53,106
149760,note_on,0,0,3,,,,,,,,,2,,,57,0
149760,note_on,0,0,3,,,,,,,,,2,,,61,0
149760,note_on,0,0,1,,,,,,,,,0,,,81,0
149760,note_on,240,0,3,,,,,,,,,2,,,69,0
149760,note_on,0,0,1,,,,,,,,,0,,,89,127
149760,note_on,240,0,1,,,,,,,,,0,,,93,0
150000,note_on,0,0,3,,,,,,,,,2,,,50,88
150000,note_on,0,0,1,,,,,,,,,0,,,86,101
150000,note_on,0,0,1,,,,,,,,,0,,,74,101
150000,note_on,0,0,1,,,,,,,,,0,,,77,0
150000,note_on,240,0,1,,,,,,,,,0,,,89,0
150000,note_on,240,0,3,,,,,,,,,2,,,65,0
150000,note_on,0,0,3,,,,,,,,,2,,,53,0
150000,note_on,0,0,3,,,,,,,,,2,,,62,88
150060,note_on,60,0,1,,,,,,,,,0,,,86,0
150060,note_on,0,0,3,,,,,,,,,2,,,50,0
150060,note_on,60,0,3,,,,,,,,,2,,,62,0
150060,note_on,0,0,1,,,,,,,,,0,,,74,0
150240,note_on,0,0,3,,,,,,,,,2,,,52,36
150240,note_on,180,0,3,,,,,,,,,2,,,40,36
150240,note_on,0,0,3,,,,,,,,,2,,,49,36
150240,note_on,0,0,1,,,,,,,,,0,,,81,49
150240,note_on,180,0,1,,,,,,,,,0,,,69,49
150480,note_on,240,0,3,,,,,,,,,2,,,52,0
150480,note_on,0,0,3,,,,,,,,,2,,,49,0
150480,note_on,0,0,3,,,,,,,,,2,,,40,0
150480,note_on,0,0,3,,,,,,,,,2,,,45,36
150480,note_on,0,0,3,,,,,,,,,2,,,49,36
150480,note_on,0,0,3,,,,,,,,,2,,,57,36
150480,note_on,0,0,1,,,,,,,,,0,,,81,49
150480,note_on,0,0,1,,,,,,,,,0,,,69,49
150480,note_on,0,0,1,,,,,,,,,0,,,69,0
150480,note_on,240,0,1,,,,,,,,,0,,,81,0
150720,note_on,0,0,1,,,,,,,,,0,,,77,75
150720,note_on,0,0,1,,,,,,,,,0,,,69,0
150720,note_on,0,0,1,,,,,,,,,0,,,65,67
150720,note_on,240,0,1,,,,,,,,,0,,,81,0
150720,note_on,0,0,3,,,,,,,,,2,,,49,0
150720,note_on,0,0,3,,,,,,,,,2,,,45,0
150720,note_on,0,0,3,,,,,,,,,2,,,41,54
150720,note_on,0,0,3,,,,,,,,,2,,,53,62
150720,note_on,240,0,3,,,,,,,,,2,,,57,0
150960,note_on,0,0,1,,,,,,,,,0,,,62,49
150960,note_on,0,0,1,,,,,,,,,0,,,74,49
150960,note_on,0,0,1,,,,,,,,,0,,,65,0
150960,note_on,240,0,1,,,,,,,,,0,,,77,0
150960,note_on,0,0,3,,,,,,,,,2,,,50,36
150960,note_on,0,0,3,,,,,,,,,2,,,38,36
150960,note_on,0,0,3,,,,,,,,,2,,,41,0
150960,note_on,240,0,3,,,,,,,,,2,,,53,0
151020,note_on,0,0,3,,,,,,,,,2,,,38,0
151020,note_on,0,0,1,,,,,,,,,0,,,62,0
151020,note_on,60,0,1,,,,,,,,,0,,,74,0
151020,note_on,60,0,3,,,,,,,,,2,,,50,0
151200,note_on,180,0,3,,,,,,,,,2,,,39,36
151200,note_on,0,0,1,,,,,,,,,0,,,75,36
151200,note_on,180,0,1,,,,,,,,,0,,,63,36
151200,note_on,0,0,3,,,,,,,,,2,,,51,36
151440,note_on,0,0,1,,,,,,,,,0,,,63,0
151440,note_on,240,0,1,,,,,,,,,0,,,75,0
151440,note_on,0,0,1,,,,,,,,,0,,,72,36
151440,note_on,0,0,1,,,,,,,,,0,,,60,36
151440,note_on,0,0,3,,,,,,,,,2,,,39,0
151440,note_on,0,0,3,,,,,,,,,2,,,48,36
151440,note_on,0,0,3,,,,,,,,,2,,,36,36
151440,note_on,240,0,3,,,,,,,,,2,,,51,0
151500,note_on,0,0,1,,,,,,,,,0,,,60,0
151500,note_on,60,0,3,,,,,,,,,2,,,48,0
151500,note_on,0,0,3,,,,,,,,,2,,,36,0
151500,note_on,60,0,1,,,,,,,,,0,,,72,0
151680,note_on,180,0,3,,,,,,,,,2,,,39,36
151680,note_on,0,0,3,,,,,,,,,2,,,51,36
151680,note_on,0,0,1,,,,,,,,,0,,,75,36
151680,note_on,180,0,1,,,,,,,,,0,,,63,36
151920,note_on,0,0,1,,,,,,,,,0,,,63,0
151920,note_on,0,0,1,,,,,,,,,0,,,60,36
151920,note_on,0,0,1,,,,,,,,,0,,,72,36
151920,note_on,240,0,3,,,,,,,,,2,,,51,0
151920,note_on,240,0,1,,,,,,,,,0,,,75,0
151920,note_on,0,0,3,,,,,,,,,2,,,39,0
151920,note_on,0,0,3,,,,,,,,,2,,,36,36
151920,note_on,0,0,3,,,,,,,,,2,,,48,36
151980,note_on,60,0,3,,,,,,,,,2,,,48,0
151980,note_on,0,0,1,,,,,,,,,0,,,60,0
151980,note_on,0,0,3,,,,,,,,,2,,,36,0
151980,note_on,60,0,1,,,,,,,,,0,,,72,0
152160,note_on,180,0,1,,,,,,,,,0,,,69,36
152160,note_on,0,0,1,,,,,,,,,0,,,75,36
152160,note_on,180,0,3,,,,,,,,,2,,,54,36
152160,note_on,0,0,3,,,,,,,,,2,,,60,36
152400,note_on,0,0,3,,,,,,,,,2,,,63,36
152400,note_on,0,0,1,,,,,,,,,0,,,72,36
152400,note_on,0,0,1,,,,,,,,,0,,,69,36
152400,note_on,240,0,3,,,,,,,,,2,,,60,0
152400,note_on,240,0,1,,,,,,,,,0,,,75,0
152400,note_on,0,0,1,,,,,,,,,0,,,69,0
152460,note_on,60,0,3,,,,,,,,,2,,,63,0
152460,note_on,60,0,1,,,,,,,,,0,,,72,0
152460,note_on,0,0,1,,,,,,,,,0,,,69,0
152460,note_on,0,0,3,,,,,,,,,2,,,54,0
152640,note_on,180,0,1,,,,,,,,,0,,,69,36
152640,note_on,0,0,1,,,,,,,,,0,,,75,36
152640,note_on,180,0,3,,,,,,,,,2,,,54,36
152640,note_on,0,0,3,,,,,,,,,2,,,60,36
152880,note_on,240,0,3,,,,,,,,,2,,,60,0
152880,note_on,0,0,3,,,,,,,,,2,,,63,36
152880,note_on,0,0,1,,,,,,,,,0,,,72,36
152880,note_on,0,0,1,,,,,,,,,0,,,69,36
152880,note_on,0,0,1,,,,,,,,,0,,,69,0
152880,note_on,240,0,1,,,,,,,,,0,,,75,0
152940,note_on,0,0,1,,,,,,,,,0,,,69,0
152940,note_on,60,0,3,,,,,,,,,2,,,63,0
152940,note_on,60,0,1,,,,,,,,,0,,,72,0
152940,note_on,0,0,3,,,,,,,,,2,,,54,0
153120,note_on,180,0,3,,,,,,,,,2,,,52,36
153120,note_on,0,0,3,,,,,,,,,2,,,61,36
153120,note_on,180,0,1,,,,,,,,,0,,,69,36
153120,note_on,0,0,1,,,,,,,,,0,,,76,36
153360,note_on,240,0,1,,,,,,,,,0,,,76,0
153360,note_on,0,0,1,,,,,,,,,0,,,73,36
153360,note_on,0,0,3,,,,,,,,,2,,,64,36
153360,note_on,240,0,3,,,,,,,,,2,,,61,0
153420,note_on,60,0,1,,,,,,,,,0,,,73,0
153420,note_on,0,0,1,,,,,,,,,0,,,69,0
153420,note_on,0,0,3,,,,,,,,,2,,,52,0
153420,note_on,60,0,3,,,,,,,,,2,,,64,0
153600,note_on,0,0,1,,,,,,,,,0,,,76,36
153600,note_on,180,0,1,,,,,,,,,0,,,68,36
153600,note_on,180,0,3,,,,,,,,,2,,,52,36
153600,note_on,0,0,3,,,,,,,,,2,,,62,36
153840,note_on,0,0,1,,,,,,,,,0,,,71,36
153840,note_on,240,0,1,,,,,,,,,0,,,76,0
153840,note_on,240,0,3,,,,,,,,,2,,,62,0
153840,note_on,0,0,3,,,,,,,,,2,,,64,36
153900,note_on,0,0,1,,,,,,,,,0,,,68,0
153900,note_on,60,0,1,,,,,,,,,0,,,71,0
153900,note_on,60,0,3,,,,,,,,,2,,,64,0
153900,note_on,0,0,3,,,,,,,,,2,,,52,0
154080,note_on,0,0,1,,,,,,,,,0,,,61,54
154080,note_on,0,0,1,,,,,,,,,0,,,73,62
154080,control_change,180,0,1,,,,,,,,,0,64,127,,
154080,control_change,180,0,3,,,,,,,,,2,64,127,,
154080,note_on,0,0,3,,,,,,,,,2,,,45,36
154080,note_on,0,0,3,,,,,,,,,2,,,52,36
154088,note_on,0,0,3,,,,,,,,,2,,,45,0
154088,note_on,8,0,3,,,,,,,,,2,,,52,0
154088,note_on,0,0,1,,,,,,,,,0,,,61,0
154088,note_on,8,0,1,,,,,,,,,0,,,73,0
154160,note_on,72,0,3,,,,,,,,,2,,,45,36
154160,note_on,0,0,3,,,,,,,,,2,,,52,36
154160,note_on,72,0,1,,,,,,,,,0,,,61,36
154160,note_on,0,0,1,,,,,,,,,0,,,73,36
154168,note_on,8,0,1,,,,,,,,,0,,,73,0
154168,note_on,0,0,1,,,,,,,,,0,,,61,0
154168,note_on,0,0,3,,,,,,,,,2,,,45,0
154168,note_on,8,0,3,,,,,,,,,2,,,52,0
154239,note_on,71,0,1,,,,,,,,,0,,,61,36
154239,note_on,0,0,3,,,,,,,,,2,,,52,36
154239,note_on,71,0,3,,,,,,,,,2,,,45,36
154239,note_on,0,0,1,,,,,,,,,0,,,73,36
154247,note_on,8,0,3,,,,,,,,,2,,,52,0
154247,note_on,8,0,1,,,,,,,,,0,,,73,0
154247,note_on,0,0,1,,,,,,,,,0,,,61,0
154247,note_on,0,0,3,,,,,,,,,2,,,45,0
154320,note_on,73,0,1,,,,,,,,,0,,,61,36
154320,note_on,0,0,1,,,,,,,,,0,,,73,36
154320,note_on,73,0,3,,,,,,,,,2,,,45,36
154320,note_on,0,0,3,,,,,,,,,2,,,52,36
154344,note_on,24,0,3,,,,,,,,,2,,,52,0
154344,note_on,0,0,3,,,,,,,,,2,,,45,0
154344,note_on,0,0,1,,,,,,,,,0,,,61,0
154344,note_on,24,0,1,,,,,,,,,0,,,73,0
154560,control_change,216,0,3,,,,,,,,,2,64,0,,
154560,note_on,0,0,3,,,,,,,,,2,,,52,36
154560,note_on,0,0,3,,,,,,,,,2,,,45,36
154560,control_change,216,0,1,,,,,,,,,0,64,0,,
154560,note_on,0,0,1,,,,,,,,,0,,,69,36
154560,note_on,0,0,1,,,,,,,,,0,,,61,36
154572,note_on,0,0,1,,,,,,,,,0,,,61,0
154572,note_on,0,0,3,,,,,,,,,2,,,45,0
154572,note_on,12,0,3,,,,,,,,,2,,,52,0
154572,note_on,12,0,1,,,,,,,,,0,,,69,0
154680,control_change,108,0,1,,,,,,,,,0,64,127,,
154680,note_on,0,0,1,,,,,,,,,0,,,61,36
154680,note_on,0,0,3,,,,,,,,,2,,,45,36
154680,note_on,0,0,1,,,,,,,,,0,,,73,36
154680,control_change,108,0,3,,,,,,,,,2,64,127,,
154680,note_on,0,0,3,,,,,,,,,2,,,52,36
154692,note_on,0,0,3,,,,,,,,,2,,,45,0
154692,note_on,12,0,1,,,,,,,,,0,,,73,0
154692,note_on,0,0,1,,,,,,,,,0,,,61,0
154692,note_on,12,0,3,,,,,,,,,2,,,52,0
154800,note_on,108,0,3,,,,,,,,,2,,,45,36
154800,note_on,108,0,1,,,,,,,,,0,,,61,36
154800,note_on,0,0,1,,,,,,,,,0,,,71,36
154800,note_on,0,0,3,,,,,,,,,2,,,52,36
154812,note_on,0,0,3,,,,,,,,,2,,,45,0
154812,note_on,12,0,1,,,,,,,,,0,,,71,0
154812,note_on,0,0,1,,,,,,,,,0,,,61,0
154812,note_on,12,0,3,,,,,,,,,2,,,52,0
154920,control_change,108,0,1,,,,,,,,,0,64,0,,
154920,note_on,0,0,1,,,,,,,,,0,,,61,36
154920,control_change,108,0,3,,,,,,,,,2,64,0,,
154920,note_on,0,0,3,,,,,,,,,2,,,45,36
154920,note_on,0,0,3,,,,,,,,,2,,,52,36
154920,note_on,0,0,1,,,,,,,,,0,,,73,36
154932,note_on,12,0,3,,,,,,,,,2,,,52,0
154932,note_on,0,0,3,,,,,,,,,2,,,45,0
154932,note_on,12,0,1,,,,,,,,,0,,,73,0
154932,note_on,0,0,1,,,,,,,,,0,,,61,0
155040,control_change,108,0,3,,,,,,,,,2,64,127,,
155040,note_on,0,0,3,,,,,,,,,2,,,45,36
155040,note_on,0,0,3,,,,,,,,,2,,,54,36
155040,note_on,0,0,1,,,,,,,,,0,,,66,62
155040,note_on,0,0,1,,,,,,,,,0,,,62,54
155040,control_change,108,0,1,,,,,,,,,0,64,127,,
155048,note_on,8,0,1,,,,,,,,,0,,,66,0
155048,note_on,0,0,1,,,,,,,,,0,,,62,0
155048,note_on,0,0,3,,,,,,,,,2,,,45,0
155048,note_on,8,0,3,,,,,,,,,2,,,54,0
155120,note_on,72,0,1,,,,,,,,,0,,,62,36
155120,note_on,0,0,3,,,,,,,,,2,,,54,36
155120,note_on,72,0,3,,,,,,,,,2,,,45,36
155120,note_on,0,0,1,,,,,,,,,0,,,66,36
155128,note_on,0,0,1,,,,,,,,,0,,,62,0
155128,note_on,8,0,1,,,,,,,,,0,,,66,0
155128,note_on,0,0,3,,,,,,,,,2,,,45,0
155128,note_on,8,0,3,,,,,,,,,2,,,54,0
155199,note_on,0,0,3,,,,,,,,,2,,,54,36
155199,note_on,0,0,1,,,,,,,,,0,,,66,36
155199,note_on,71,0,1,,,,,,,,,0,,,62,36
155199,note_on,71,0,3,,,,,,,,,2,,,45,36
155207,note_on,8,0,1,,,,,,,,,0,,,66,0
155207,note_on,0,0,1,,,,,,,,,0,,,62,0
155207,note_on,8,0,3,,,,,,,,,2,,,54,0
155207,note_on,0,0,3,,,,,,,,,2,,,45,0
155280,note_on,0,0,1,,,,,,,,,0,,,66,36
155280,note_on,73,0,3,,,,,,,,,2,,,45,36
155280,note_on,73,0,1,,,,,,,,,0,,,62,36
155280,note_on,0,0,3,,,,,,,,,2,,,54,36
155304,note_on,24,0,3,,,,,,,,,2,,,54,0
155304,note_on,0,0,3,,,,,,,,,2,,,45,0
155304,note_on,24,0,1,,,,,,,,,0,,,66,0
155304,note_on,0,0,1,,,,,,,,,0,,,62,0
155520,control_change,216,0,1,,,,,,,,,0,64,0,,
155520,control_change,216,0,3,,,,,,,,,2,64,0,,
155520,note_on,0,0,3,,,,,,,,,2,,,45,36
155520,note_on,0,0,1,,,,,,,,,0,,,62,36
155520,note_on,0,0,1,,,,,,,,,0,,,66,36
155520,note_on,0,0,3,,,,,,,,,2,,,54,36
155532,note_on,0,0,1,,,,,,,,,0,,,62,0
155532,note_on,12,0,3,,,,,,,,,2,,,54,0
155532,note_on,0,0,3,,,,,,,,,2,,,45,0
155532,note_on,12,0,1,,,,,,,,,0,,,66,0
155640,control_change,108,0,3,,,,,,,,,2,64,127,,
155640,note_on,0,0,3,,,,,,,,,2,,,45,36
155640,note_on,0,0,1,,,,,,,,,0,,,71,36
155640,note_on,0,0,1,,,,,,,,,0,,,64,36
155640,note_on,0,0,1,,,,,,,,,0,,,62,36
155640,control_change,108,0,1,,,,,,,,,0,64,127,,
155640,note_on,0,0,3,,,,,,,,,2,,,56,36
155652,note_on,12,0,3,,,,,,,,,2,,,56,0
155652,note_on,0,0,3,,,,,,,,,2,,,45,0
155652,note_on,0,0,1,,,,,,,,,0,,,62,0
155652,note_on,12,0,1,,,,,,,,,0,,,71,0
155652,note_on,0,0,1,,,,,,,,,0,,,64,0
155760,note_on,0,0,3,,,,,,,,,2,,,54,36
155760,note_on,108,0,1,,,,,,,,,0,,,62,36
155760,note_on,0,0,1,,,,,,,,,0,,,64,36
155760,note_on,108,0,3,,,,,,,,,2,,,45,36
155760,note_on,0,0,1,,,,,,,,,0,,,69,36
155772,note_on,12,0,1,,,,,,,,,0,,,69,0
155772,note_on,0,0,1,,,,,,,,,0,,,64,0
155772,note_on,0,0,1,,,,,,,,,0,,,62,0
155772,note_on,0,0,3,,,,,,,,,2,,,45,0
155772,note_on,12,0,3,,,,,,,,,2,,,54,0
155880,note_on,0,0,1,,,,,,,,,0,,,71,36
155880,control_change,108,0,1,,,,,,,,,0,64,0,,
155880,note_on,0,0,3,,,,,,,,,2,,,56,36
155880,note_on,0,0,3,,,,,,,,,2,,,45,36
155880,control_change,108,0,3,,,,,,,,,2,64,0,,
155880,note_on,0,0,1,,,,,,,,,0,,,62,36
155880,note_on,0,0,1,,,,,,,,,0,,,64,36
155892,note_on,0,0,1,,,,,,,,,0,,,64,0
155892,note_on,0,0,3,,,,,,,,,2,,,45,0
155892,note_on,0,0,1,,,,,,,,,0,,,62,0
155892,note_on,12,0,1,,,,,,,,,0,,,71,0
155892,note_on,12,0,3,,,,,,,,,2,,,56,0
156000,control_change,108,0,3,,,,,,,,,2,64,127,,
156000,note_on,0,0,3,,,,,,,,,2,,,45,36
156000,note_on,0,0,3,,,,,,,,,2,,,57,36
156000,note_on,0,0,1,,,,,,,,,0,,,64,62
156000,note_on,0,0,1,,,,,,,,,0,,,61,54
156000,control_change,108,0,1,,,,,,,,,0,64,127,,
156008,note_on,8,0,3,,,,,,,,,2,,,57,0
156008,note_on,0,0,3,,,,,,,,,2,,,45,0
156008,note_on,8,0,1,,,,,,,,,0,,,64,0
156008,note_on,0,0,1,,,,,,,,,0,,,61,0
156080,note_on,72,0,1,,,,,,,,,0,,,61,36
156080,note_on,0,0,3,,,,,,,,,2,,,57,36
156080,note_on,72,0,3,,,,,,,,,2,,,45,36
156080,note_on,0,0,1,,,,,,,,,0,,,64,36
156088,note_on,8,0,1,,,,,,,,,0,,,64,0
156088,note_on,0,0,1,,,,,,,,,0,,,61,0
156088,note_on,8,0,3,,,,,,,,,2,,,57,0
156088,note_on,0,0,3,,,,,,,,,2,,,45,0
156159,note_on,71,0,3,,,,,,,,,2,,,45,36
156159,note_on,0,0,3,,,,,,,,,2,,,57,36
156159,note_on,0,0,1,,,,,,,,,0,,,64,36
156159,note_on,71,0,1,,,,,,,,,0,,,61,36
156167,note_on,8,0,1,,,,,,,,,0,,,64,0
156167,note_on,0,0,1,,,,,,,,,0,,,61,0
156167,note_on,0,0,3,,,,,,,,,2,,,45,0
156167,note_on,8,0,3,,,,,,,,,2,,,57,0
156240,note_on,73,0,1,,,,,,,,,0,,,61,36
156240,note_on,0,0,1,,,,,,,,,0,,,69,36
156240,note_on,0,0,3,,,,,,,,,2,,,52,36
156240,note_on,73,0,3,,,,,,,,,2,,,45,36
156264,note_on,24,0,1,,,,,,,,,0,,,69,0
156264,note_on,0,0,1,,,,,,,,,0,,,61,0
156264,note_on,0,0,3,,,,,,,,,2,,,45,0
156264,note_on,24,0,3,,,,,,,,,2,,,52,0
156480,note_on,0,0,3,,,,,,,,,2,,,52,36
156480,note_on,0,0,1,,,,,,,,,0,,,61,36
156480,control_change,216,0,1,,,,,,,,,0,64,0,,
156480,note_on,0,0,3,,,,,,,,,2,,,45,36
156480,control_change,216,0,3,,,,,,,,,2,64,0,,
156480,note_on,0,0,1,,,,,,,,,0,,,69,36
156492,note_on,0,0,1,,,,,,,,,0,,,61,0
156492,note_on,12,0,1,,,,,,,,,0,,,69,0
156492,note_on,0,0,3,,,,,,,,,2,,,45,0
156492,note_on,12,0,3,,,,,,,,,2,,,52,0
156600,note_on,0,0,3,,,,,,,,,2,,,45,36
156600,note_on,0,0,3,,,,,,,,,2,,,52,36
156600,control_change,108,0,1,,,,,,,,,0,64,127,,
156600,note_on,0,0,1,,,,,,,,,0,,,73,36
156600,note_on,0,0,1,,,,,,,,,0,,,61,36
156600,control_change,108,0,3,,,,,,,,,2,64,127,,
156612,note_on,0,0,1,,,,,,,,,0,,,61,0
156612,note_on,12,0,1,,,,,,,,,0,,,73,0
156612,note_on,0,0,3,,,,,,,,,2,,,45,0
156612,note_on,12,0,3,,,,,,,,,2,,,52,0
156720,note_on,108,0,1,,,,,,,,,0,,,61,36
156720,note_on,0,0,3,,,,,,,,,2,,,52,36
156720,note_on,108,0,3,,,,,,,,,2,,,45,36
156720,note_on,0,0,1,,,,,,,,,0,,,71,36
156732,note_on,12,0,3,,,,,,,,,2,,,52,0
156732,note_on,0,0,1,,,,,,,,,0,,,61,0
156732,note_on,12,0,1,,,,,,,,,0,,,71,0
156732,note_on,0,0,3,,,,,,,,,2,,,45,0
156840,note_on,0,0,3,,,,,,,,,2,,,45,36
156840,control_change,108,0,3,,,,,,,,,2,64,0,,
156840,note_on,0,0,3,,,,,,,,,2,,,52,36
156840,control_change,108,0,1,,,,,,,,,0,64,0,,
156840,note_on,0,0,1,,,,,,,,,0,,,61,36
156840,note_on,0,0,1,,,,,,,,,0,,,73,36
156852,note_on,12,0,1,,,,,,,,,0,,,73,0
156852,note_on,12,0,3,,,,,,,,,2,,,52,0
156852,note_on,0,0,3,,,,,,,,,2,,,45,0
156852,note_on,0,0,1,,,,,,,,,0,,,61,0
156960,note_on,0,0,3,,,,,,,,,2,,,54,36
156960,control_change,108,0,1,,,,,,,,,0,64,127,,
156960,note_on,0,0,1,,,,,,,,,0,,,62,52
156960,note_on,0,0,1,,,,,,,,,0,,,69,57
156960,note_on,0,0,1,,,,,,,,,0,,,74,62
156960,note_on,0,0,3,,,,,,,,,2,,,45,36
156960,control_change,108,0,3,,,,,,,,,2,64,127,,
156968,note_on,8,0,1,,,,,,,,,0,,,74,0
156968,note_on,0,0,1,,,,,,,,,0,,,69,0
156968,note_on,0,0,1,,,,,,,,,0,,,62,0
156968,note_on,8,0,3,,,,,,,,,2,,,54,0
156968,note_on,0,0,3,,,,,,,,,2,,,45,0
157040,note_on,72,0,1,,,,,,,,,0,,,62,36
157040,note_on,0,0,1,,,,,,,,,0,,,69,36
157040,note_on,0,0,1,,,,,,,,,0,,,74,36
157040,note_on,72,0,3,,,,,,,,,2,,,45,36
157040,note_on,0,0,3,,,,,,,,,2,,,54,36
157048,note_on,0,0,1,,,,,,,,,0,,,62,0
157048,note_on,0,0,3,,,,,,,,,2,,,45,0
157048,note_on,0,0,1,,,,,,,,,0,,,69,0
157048,note_on,8,0,1,,,,,,,,,0,,,74,0
157048,note_on,8,0,3,,,,,,,,,2,,,54,0
157119,note_on,71,0,3,,,,,,,,,2,,,45,36
157119,note_on,0,0,3,,,,,,,,,2,,,54,36
157119,note_on,0,0,1,,,,,,,,,0,,,74,36
157119,note_on,0,0,1,,,,,,,,,0,,,69,36
157119,note_on,71,0,1,,,,,,,,,0,,,62,36
157127,note_on,0,0,1,,,,,,,,,0,,,69,0
157127,note_on,0,0,3,,,,,,,,,2,,,45,0
157127,note_on,8,0,1,,,,,,,,,0,,,74,0
157127,note_on,0,0,1,,,,,,,,,0,,,62,0
157127,note_on,8,0,3,,,,,,,,,2,,,54,0
157200,control_change,73,0,1,,,,,,,,,0,64,0,,
157200,note_on,0,0,1,,,,,,,,,0,,,62,36
157200,note_on,0,0,1,,,,,,,,,0,,,69,36
157200,note_on,0,0,1,,,,,,,,,0,,,74,36
157200,note_on,0,0,3,,,,,,,,,2,,,54,36
157200,note_on,0,0,3,,,,,,,,,2,,,45,36
157200,control_change,73,0,3,,,,,,,,,2,64,0,,
157224,note_on,0,0,1,,,,,,,,,0,,,62,0
157224,note_on,24,0,3,,,,,,,,,2,,,54,0
157224,note_on,0,0,3,,,,,,,,,2,,,45,0
157224,note_on,0,0,1,,,,,,,,,0,,,69,0
157224,note_on,24,0,1,,,,,,,,,0,,,74,0
157440,note_on,59640,0,4,,,,,,,,,3,,,45,36
157440,control_change,216,0,3,,,,,,,,,2,64,127,,
157440,note_on,0,0,1,,,,,,,,,0,,,66,52
157440,note_on,0,0,1,,,,,,,,,0,,,74,57
157440,note_on,0,0,1,,,,,,,,,0,,,78,62
157440,note_on,0,0,3,,,,,,,,,2,,,54,62
157440,control_change,216,0,1,,,,,,,,,0,64,127,,
157448,note_on,8,0,1,,,,,,,,,0,,,78,0
157448,note_on,0,0,1,,,,,,,,,0,,,66,0
157448,note_on,0,0,1,,,,,,,,,0,,,74,0
157520,note_on,0,0,1,,,,,,,,,0,,,74,36
157520,note_on,0,0,1,,,,,,,,,0,,,78,36
157520,note_on,72,0,1,,,,,,,,,0,,,66,36
157528,note_on,8,0,1,,,,,,,,,0,,,78,0
157528,note_on,0,0,1,,,,,,,,,0,,,66,0
157528,note_on,0,0,1,,,,,,,,,0,,,74,0
157560,note_on,0,0,3,,,,,,,,,2,,,57,62
157560,note_on,120,0,3,,,,,,,,,2,,,54,0
157599,note_on,71,0,1,,,,,,,,,0,,,66,36
157599,note_on,0,0,1,,,,,,,,,0,,,74,36
157599,note_on,0,0,1,,,,,,,,,0,,,78,36
157607,note_on,8,0,1,,,,,,,,,0,,,78,0
157607,note_on,0,0,1,,,,,,,,,0,,,66,0
157607,note_on,0,0,1,,,,,,,,,0,,,74,0
157680,note_on,0,0,3,,,,,,,,,2,,,62,62
157680,note_on,120,0,3,,,,,,,,,2,,,57,0
157680,note_on,240,0,4,,,,,,,,,3,,,45,0
157680,note_on,0,0,1,,,,,,,,,0,,,66,36
157680,note_on,0,0,1,,,,,,,,,0,,,74,36
157680,note_on,0,0,1,,,,,,,,,0,,,78,36
157680,control_change,73,0,1,,,,,,,,,0,64,0,,
157704,note_on,24,0,1,,,,,,,,,0,,,78,0
157704,note_on,0,0,1,,,,,,,,,0,,,74,0
157704,note_on,0,0,1,,,,,,,,,0,,,66,0
157800,control_change,0,0,3,,,,,,,,,2,64,0,,
157800,note_on,0,0,3,,,,,,,,,2,,,66,62
157800,note_on,120,0,3,,,,,,,,,2,,,62,0
157920,note_on,120,0,3,,,,,,,,,2,,,66,0
157920,control_change,0,0,3,,,,,,,,,2,64,127,,
157920,note_on,0,0,3,,,,,,,,,2,,,57,36
157920,note_on,0,0,3,,,,,,,,,2,,,64,36
157920,control_change,216,0,1,,,,,,,,,0,64,127,,
157920,note_on,0,0,1,,,,,,,,,0,,,69,52
157920,note_on,0,0,1,,,,,,,,,0,,,73,57
157920,note_on,0,0,1,,,,,,,,,0,,,81,62
157928,note_on,0,0,3,,,,,,,,,2,,,57,0
157928,note_on,8,0,3,,,,,,,,,2,,,64,0
157928,note_on,0,0,1,,,,,,,,,0,,,73,0
157928,note_on,0,0,1,,,,,,,,,0,,,69,0
157928,note_on,8,0,1,,,,,,,,,0,,,81,0
158000,note_on,72,0,1,,,,,,,,,0,,,69,36
158000,note_on,0,0,3,,,,,,,,,2,,,64,36
158000,note_on,72,0,3,,,,,,,,,2,,,57,36
158000,note_on,0,0,1,,,,,,,,,0,,,81,36
158000,note_on,0,0,1,,,,,,,,,0,,,73,36
158008,note_on,0,0,3,,,,,,,,,2,,,57,0
158008,note_on,0,0,1,,,,,,,,,0,,,69,0
158008,note_on,0,0,1,,,,,,,,,0,,,73,0
158008,note_on,8,0,1,,,,,,,,,0,,,81,0
158008,note_on,8,0,3,,,,,,,,,2,,,64,0
158079,note_on,71,0,1,,,,,,,,,0,,,69,36
158079,note_on,0,0,1,,,,,,,,,0,,,81,36
158079,note_on,0,0,1,,,,,,,,,0,,,73,36
158079,note_on,71,0,3,,,,,,,,,2,,,57,36
158079,note_on,0,0,3,,,,,,,,,2,,,64,36
158087,note_on,8,0,3,,,,,,,,,2,,,64,0
158087,note_on,0,0,3,,,,,,,,,2,,,57,0
158087,note_on,0,0,1,,,,,,,,,0,,,69,0
158087,note_on,8,0,1,,,,,,,,,0,,,81,0
158087,note_on,0,0,1,,,,,,,,,0,,,73,0
158160,note_on,0,0,1,,,,,,,,,0,,,81,36
158160,note_on,0,0,1,,,,,,,,,0,,,73,36
158160,note_on,0,0,1,,,,,,,,,0,,,69,36
158160,control_change,73,0,1,,,,,,,,,0,64,0,,
158160,control_change,73,0,3,,,,,,,,,2,64,0,,
158160,note_on,0,0,3,,,,,,,,,2,,,64,36
158160,note_on,0,0,3,,,,,,,,,2,,,57,36
158184,note_on,0,0,1,,,,,,,,,0,,,69,0
158184,note_on,24,0,3,,,,,,,,,2,,,64,0
158184,note_on,24,0,1,,,,,,,,,0,,,81,0
158184,note_on,0,0,1,,,,,,,,,0,,,73,0
158184,note_on,0,0,3,,,,,,,,,2,,,57,0
158400,note_on,0,0,3,,,,,,,,,2,,,64,36
158400,control_change,216,0,1,,,,,,,,,0,64,127,,
158400,note_on,0,0,1,,,,,,,,,0,,,74,36
158400,note_on,0,0,1,,,,,,,,,0,,,83,36
158400,note_on,0,0,3,,,,,,,,,2,,,57,36
158400,control_change,216,0,3,,,,,,,,,2,64,127,,
158400,note_on,0,0,1,,,,,,,,,0,,,68,36
158520,note_on,120,0,1,,,,,,,,,0,,,83,0
158520,note_on,0,0,1,,,,,,,,,0,,,74,0
158520,note_on,0,0,1,,,,,,,,,0,,,68,0
158520,note_on,0,0,1,,,,,,,,,0,,,71,36
158520,note_on,0,0,1,,,,,,,,,0,,,74,36
158520,note_on,0,0,1,,,,,,,,,0,,,80,36
158520,note_on,120,0,3,,,,,,,,,2,,,64,0
158520,note_on,0,0,3,,,,,,,,,2,,,57,0
158520,note_on,0,0,3,,,,,,,,,2,,,57,36
158520,note_on,0,0,3,,,,,,,,,2,,,64,36
158640,note_on,120,0,3,,,,,,,,,2,,,64,0
158640,note_on,0,0,3,,,,,,,,,2,,,57,0
158640,note_on,0,0,1,,,,,,,,,0,,,74,0
158640,note_on,0,0,3,,,,,,,,,2,,,68,36
158640,note_on,120,0,1,,,,,,,,,0,,,80,0
158640,note_on,0,0,1,,,,,,,,,0,,,76,36
158640,note_on,0,0,1,,,,,,,,,0,,,71,36
158640,note_on,0,0,1,,,,,,,,,0,,,71,0
158640,note_on,0,0,3,,,,,,,,,2,,,57,36
158760,note_on,120,0,3,,,,,,,,,2,,,68,0
158760,note_on,0,0,3,,,,,,,,,2,,,57,0
158760,control_change,0,0,3,,,,,,,,,2,64,0,,
158760,note_on,0,0,3,,,,,,,,,2,,,57,36
158760,note_on,0,0,3,,,,,,,,,2,,,66,36
158760,control_change,0,0,1,,,,,,,,,0,64,0,,
158760,note_on,0,0,1,,,,,,,,,0,,,74,36
158760,note_on,0,0,1,,,,,,,,,0,,,69,36
158760,note_on,120,0,1,,,,,,,,,0,,,76,0
158760,note_on,0,0,1,,,,,,,,,0,,,71,0
158880,note_on,0,0,1,,,,,,,,,0,,,73,62
158880,note_on,0,0,3,,,,,,,,,2,,,57,0
158880,control_change,0,0,3,,,,,,,,,2,64,127,,
158880,note_on,0,0,3,,,,,,,,,2,,,57,36
158880,note_on,0,0,3,,,,,,,,,2,,,64,36
158880,note_on,120,0,1,,,,,,,,,0,,,74,0
158880,note_on,0,0,1,,,,,,,,,0,,,69,0
158880,note_on,0,0,1,,,,,,,,,0,,,69,54
158880,control_change,0,0,1,,,,,,,,,0,64,127,,
158880,note_on,120,0,3,,,,,,,,,2,,,66,0
158888,note_on,0,0,1,,,,,,,,,0,,,69,0
158888,note_on,8,0,1,,,,,,,,,0,,,73,0
158888,note_on,0,0,3,,,,,,,,,2,,,57,0
158888,note_on,8,0,3,,,,,,,,,2,,,64,0
158960,note_on,0,0,1,,,,,,,,,0,,,73,36
158960,note_on,0,0,3,,,,,,,,,2,,,64,36
158960,note_on,72,0,3,,,,,,,,,2,,,57,36
158960,note_on,72,0,1,,,,,,,,,0,,,69,36
158968,note_on,8,0,3,,,,,,,,,2,,,64,0
158968,note_on,0,0,3,,,,,,,,,2,,,57,0
158968,note_on,0,0,1,,,,,,,,,0,,,69,0
158968,note_on,8,0,1,,,,,,,,,0,,,73,0
159039,note_on,71,0,3,,,,,,,,,2,,,57,36
159039,note_on,0,0,1,,,,,,,,,0,,,73,36
159039,note_on,71,0,1,,,,,,,,,0,,,69,36
159039,note_on,0,0,3,,,,,,,,,2,,,64,36
159047,note_on,0,0,1,,,,,,,,,0,,,69,0
159047,note_on,8,0,1,,,,,,,,,0,,,73,0
159047,note_on,8,0,3,,,,,,,,,2,,,64,0
159047,note_on,0,0,3,,,,,,,,,2,,,57,0
159120,note_on,0,0,3,,,,,,,,,2,,,64,36
159120,note_on,0,0,3,,,,,,,,,2,,,57,36
159120,control_change,73,0,3,,,,,,,,,2,64,0,,
159120,control_change,73,0,1,,,,,,,,,0,64,0,,
159120,note_on,0,0,1,,,,,,,,,0,,,69,36
159120,note_on,0,0,1,,,,,,,,,0,,,73,36
159144,note_on,0,0,3,,,,,,,,,2,,,57,0
159144,note_on,0,0,1,,,,,,,,,0,,,69,0
159144,note_on,24,0,3,,,,,,,,,2,,,64,0
159144,note_on,24,0,1,,,,,,,,,0,,,73,0
159360,note_on,0,0,1,,,,,,,,,0,,,68,36
159360,note_on,0,0,3,,,,,,,,,2,,,57,36
159360,note_on,0,0,1,,,,,,,,,0,,,74,36
159360,control_change,216,0,3,,,,,,,,,2,64,127,,
159360,note_on,0,0,3,,,,,,,,,2,,,64,36
159360,note_on,0,0,1,,,,,,,,,0,,,83,36
159360,control_change,216,0,1,,,,,,,,,0,64,127,,
159480,note_on,120,0,1,,,,,,,,,0,,,83,0
159480,note_on,0,0,3,,,,,,,,,2,,,57,36
159480,note_on,0,0,3,,,,,,,,,2,,,64,36
159480,note_on,0,0,3,,,,,,,,,2,,,57,0
159480,note_on,0,0,1,,,,,,,,,0,,,74,0
159480,note_on,0,0,1,,,,,,,,,0,,,68,0
159480,note_on,0,0,1,,,,,,,,,0,,,71,36
159480,note_on,0,0,1,,,,,,,,,0,,,74,36
159480,note_on,0,0,1,,,,,,,,,0,,,80,36
159480,note_on,120,0,3,,,,,,,,,2,,,64,0
159600,note_on,120,0,1,,,,,,,,,0,,,80,0
159600,note_on,120,0,3,,,,,,,,,2,,,64,0
159600,note_on,0,0,3,,,,,,,,,2,,,57,0
159600,note_on,0,0,3,,,,,,,,,2,,,57,36
159600,note_on,0,0,1,,,,,,,,,0,,,74,0
159600,note_on,0,0,3,,,,,,,,,2,,,68,36
159600,note_on,0,0,1,,,,,,,,,0,,,71,0
159600,note_on,0,0,1,,,,,,,,,0,,,71,36
159600,note_on,0,0,1,,,,,,,,,0,,,76,36
159720,note_on,0,0,1,,,,,,,,,0,,,69,36
159720,control_change,0,0,1,,,,,,,,,0,64,0,,
159720,note_on,0,0,1,,,,,,,,,0,,,74,36
159720,note_on,0,0,1,,,,,,,,,0,,,71,0
159720,note_on,0,0,3,,,,,,,,,2,,,66,36
159720,note_on,120,0,1,,,,,,,,,0,,,76,0
159720,note_on,120,0,3,,,,,,,,,2,,,68,0
159720,note_on,0,0,3,,,,,,,,,2,,,57,36
159720,control_change,0,0,3,,,,,,,,,2,64,0,,
159720,note_on,0,0,3,,,,,,,,,2,,,57,0
159840,note_on,120,0,3,,,,,,,,,2,,,66,0
159840,note_on,0,0,3,,,,,,,,,2,,,57,36
159840,note_on,0,0,3,,,,,,,,,2,,,64,36
159840,note_on,0,0,3,,,,,,,,,2,,,57,0
159840,control_change,0,0,3,,,,,,,,,2,64,127,,
159840,note_on,120,0,1,,,,,,,,,0,,,74,0
159840,control_change,0,0,1,,,,,,,,,0,64,127,,
159840,note_on,0,0,1,,,,,,,,,0,,,69,54
159840,note_on,0,0,1,,,,,,,,,0,,,73,62
159840,note_on,0,0,1,,,,,,,,,0,,,69,0
159848,note_on,0,0,1,,,,,,,,,0,,,69,0
159848,note_on,8,0,3,,,,,,,,,2,,,64,0
159848,note_on,0,0,3,,,,,,,,,2,,,57,0
159848,note_on,8,0,1,,,,,,,,,0,,,73,0
159920,note_on,72,0,1,,,,,,,,,0,,,69,36
159920,note_on,0,0,1,,,,,,,,,0,,,73,36
159920,note_on,72,0,3,,,,,,,,,2,,,57,36
159920,note_on,0,0,3,,,,,,,,,2,,,64,36
159928,note_on,8,0,1,,,,,,,,,0,,,73,0
159928,note_on,0,0,1,,,,,,,,,0,,,69,0
159928,note_on,8,0,3,,,,,,,,,2,,,64,0
159928,note_on,0,0,3,,,,,,,,,2,,,57,0
159999,note_on,71,0,3,,,,,,,,,2,,,57,36
159999,note_on,71,0,1,,,,,,,,,0,,,69,36
159999,note_on,0,0,1,,,,,,,,,0,,,73,36
159999,note_on,0,0,3,,,,,,,,,2,,,64,36
160007,note_on,0,0,3,,,,,,,,,2,,,57,0
160007,note_on,8,0,1,,,,,,,,,0,,,73,0
160007,note_on,0,0,1,,,,,,,,,0,,,69,0
160007,note_on,8,0,3,,,,,,,,,2,,,64,0
160080,control_change,73,0,3,,,,,,,,,2,64,0,,
160080,note_on,0,0,3,,,,,,,,,2,,,57,36
160080,note_on,0,0,3,,,,,,,,,2,,,64,36
160080,control_change,73,0,1,,,,,,,,,0,64,0,,
160080,note_on,0,0,1,,,,,,,,,0,,,69,36
160080,note_on,0,0,1,,,,,,,,,0,,,73,36
160104,note_on,0,0,1,,,,,,,,,0,,,69,0
160104,note_on,0,0,3,,,,,,,,,2,,,57,0
160104,note_on,24,0,3,,,,,,,,,2,,,64,0
160104,note_on,24,0,1,,,,,,,,,0,,,73,0
160320,note_on,0,0,1,,,,,,,,,0,,,69,36
160320,note_on,0,0,3,,,,,,,,,2,,,57,36
160320,note_on,0,0,3,,,,,,,,,2,,,61,36
160320,control_change,216,0,1,,,,,,,,,0,64,127,,
160320,control_change,216,0,3,,,,,,,,,2,64,127,,
160332,note_on,12,0,1,,,,,,,,,0,,,69,0
160332,note_on,0,0,3,,,,,,,,,2,,,57,0
160332,note_on,12,0,3,,,,,,,,,2,,,61,0
160440,note_on,0,0,3,,,,,,,,,2,,,64,62
160440,note_on,0,0,1,,,,,,,,,0,,,73,62
160440,note_on,108,0,1,,,,,,,,,0,,,69,54
160440,note_on,108,0,3,,,,,,,,,2,,,57,54
160452,note_on,12,0,3,,,,,,,,,2,,,64,0
160452,note_on,0,0,3,,,,,,,,,2,,,57,0
160452,note_on,0,0,1,,,,,,,,,0,,,69,0
160452,note_on,12,0,1,,,,,,,,,0,,,73,0
160560,note_on,108,0,3,,,,,,,,,2,,,57,54
160560,note_on,0,0,1,,,,,,,,,0,,,71,62
160560,note_on,108,0,1,,,,,,,,,0,,,69,54
160560,note_on,0,0,3,,,,,,,,,2,,,62,62
160572,note_on,0,0,3,,,,,,,,,2,,,57,0
160572,note_on,0,0,1,,,,,,,,,0,,,69,0
160572,note_on,12,0,3,,,,,,,,,2,,,62,0
160572,note_on,12,0,1,,,,,,,,,0,,,71,0
160680,note_on,0,0,1,,,,,,,,,0,,,73,36
160680,note_on,0,0,1,,,,,,,,,0,,,69,36
160680,control_change,108,0,1,,,,,,,,,0,64,0,,
160680,control_change,108,0,3,,,,,,,,,2,64,0,,
160680,note_on,0,0,3,,,,,,,,,2,,,64,36
160680,note_on,0,0,3,,,,,,,,,2,,,57,36
160692,note_on,0,0,1,,,,,,,,,0,,,69,0
160692,note_on,12,0,1,,,,,,,,,0,,,73,0
160692,note_on,12,0,3,,,,,,,,,2,,,64,0
160692,note_on,0,0,3,,,,,,,,,2,,,57,0
160800,note_on,0,0,1,,,,,,,,,0,,,76,36
160800,note_on,0,0,1,,,,,,,,,0,,,69,36
160800,control_change,108,0,1,,,,,,,,,0,64,127,,
160800,note_on,0,0,3,,,,,,,,,2,,,57,36
160800,note_on,0,0,3,,,,,,,,,2,,,66,36
160800,control_change,108,0,3,,,,,,,,,2,64,127,,
160808,note_on,8,0,3,,,,,,,,,2,,,66,0
160808,note_on,0,0,1,,,,,,,,,0,,,69,0
160808,note_on,0,0,3,,,,,,,,,2,,,57,0
160808,note_on,8,0,1,,,,,,,,,0,,,76,0
160880,note_on,0,0,3,,,,,,,,,2,,,66,36
160880,note_on,72,0,3,,,,,,,,,2,,,57,36
160880,note_on,72,0,1,,,,,,,,,0,,,69,36
160880,note_on,0,0,1,,,,,,,,,0,,,76,36
160888,note_on,0,0,3,,,,,,,,,2,,,57,0
160888,note_on,8,0,1,,,,,,,,,0,,,76,0
160888,note_on,8,0,3,,,,,,,,,2,,,66,0
160888,note_on,0,0,1,,,,,,,,,0,,,69,0
160959,note_on,71,0,1,,,,,,,,,0,,,69,36
160959,note_on,71,0,3,,,,,,,,,2,,,57,36
160959,note_on,0,0,3,,,,,,,,,2,,,66,36
160959,note_on,0,0,1,,,,,,,,,0,,,76,36
160967,note_on,0,0,1,,,,,,,,,0,,,69,0
160967,note_on,0,0,3,,,,,,,,,2,,,57,0
160967,note_on,8,0,3,,,,,,,,,2,,,66,0
160967,note_on,8,0,1,,,,,,,,,0,,,76,0
161040,note_on,0,0,3,,,,,,,,,2,,,66,36
161040,note_on,0,0,3,,,,,,,,,2,,,57,36
161040,control_change,73,0,3,,,,,,,,,2,64,0,,
161040,control_change,73,0,1,,,,,,,,,0,64,0,,
161040,note_on,0,0,1,,,,,,,,,0,,,75,36
161040,note_on,0,0,1,,,,,,,,,0,,,69,36
161160,note_on,0,0,3,,,,,,,,,2,,,57,0
161160,note_on,120,0,3,,,,,,,,,2,,,66,0
161160,note_on,0,0,1,,,,,,,,,0,,,69,0
161160,note_on,120,0,1,,,,,,,,,0,,,75,0
161280,note_on,0,0,1,,,,,,,,,0,,,81,52
161280,note_on,0,0,1,,,,,,,,,0,,,88,57
161280,control_change,120,0,3,,,,,,,,,2,64,127,,
161280,note_on,0,0,3,,,,,,,,,2,,,69,54
161280,note_on,0,0,3,,,,,,,,,2,,,77,62
161280,control_change,120,0,1,,,,,,,,,0,64,127,,
161280,note_on,0,0,1,,,,,,,,,0,,,93,62
161288,note_on,0,0,3,,,,,,,,,2,,,69,0
161288,note_on,0,0,1,,,,,,,,,0,,,81,0
161288,note_on,0,0,1,,,,,,,,,0,,,88,0
161288,note_on,8,0,1,,,,,,,,,0,,,93,0
161288,note_on,8,0,3,,,,,,,,,2,,,77,0
161360,note_on,72,0,3,,,,,,,,,2,,,69,36
161360,note_on,72,0,1,,,,,,,,,0,,,81,36
161360,note_on,0,0,1,,,,,,,,,0,,,88,36
161360,note_on,0,0,1,,,,,,,,,0,,,93,36
161360,note_on,0,0,3,,,,,,,,,2,,,77,36
161368,note_on,8,0,3,,,,,,,,,2,,,77,0
161368,note_on,8,0,1,,,,,,,,,0,,,93,0
161368,note_on,0,0,1,,,,,,,,,0,,,88,0
161368,note_on,0,0,1,,,,,,,,,0,,,81,0
161368,note_on,0,0,3,,,,,,,,,2,,,69,0
161439,note_on,0,0,1,,,,,,,,,0,,,93,36
161439,note_on,0,0,1,,,,,,,,,0,,,88,36
161439,note_on,71,0,1,,,,,,,,,0,,,81,36
161439,note_on,0,0,3,,,,,,,,,2,,,77,36
161439,note_on,71,0,3,,,,,,,,,2,,,69,36
161447,note_on,0,0,3,,,,,,,,,2,,,69,0
161447,note_on,0,0,1,,,,,,,,,0,,,81,0
161447,note_on,0,0,1,,,,,,,,,0,,,88,0
161447,note_on,8,0,3,,,,,,,,,2,,,77,0
161447,note_on,8,0,1,,,,,,,,,0,,,93,0
161520,note_on,0,0,1,,,,,,,,,0,,,93,36
161520,note_on,0,0,1,,,,,,,,,0,,,86,36
161520,note_on,73,0,1,,,,,,,,,0,,,81,36
161520,note_on,73,0,3,,,,,,,,,2,,,69,36
161520,note_on,0,0,3,,,,,,,,,2,,,77,36
161532,note_on,0,0,1,,,,,,,,,0,,,86,0
161532,note_on,0,0,3,,,,,,,,,2,,,69,0
161532,note_on,12,0,3,,,,,,,,,2,,,77,0
161532,note_on,0,0,1,,,,,,,,,0,,,81,0
161532,note_on,12,0,1,,,,,,,,,0,,,93,0
161640,control_change,108,0,3,,,,,,,,,2,64,0,,
161640,control_change,108,0,1,,,,,,,,,0,64,0,,
161760,note_on,0,0,3,,,,,,,,,2,,,57,54
161760,control_change,120,0,3,,,,,,,,,2,64,127,,
161760,note_on,0,0,1,,,,,,,,,0,,,74,62
161760,note_on,0,0,1,,,,,,,,,0,,,69,54
161760,control_change,120,0,1,,,,,,,,,0,64,127,,
161760,note_on,0,0,3,,,,,,,,,2,,,64,62
161768,note_on,0,0,1,,,,,,,,,0,,,69,0
161768,note_on,0,0,3,,,,,,,,,2,,,57,0
161768,note_on,8,0,3,,,,,,,,,2,,,64,0
161768,note_on,8,0,1,,,,,,,,,0,,,74,0
161840,note_on,72,0,1,,,,,,,,,0,,,69,36
161840,note_on,0,0,1,,,,,,,,,0,,,74,36
161840,note_on,0,0,3,,,,,,,,,2,,,64,36
161840,note_on,72,0,3,,,,,,,,,2,,,57,36
161848,note_on,8,0,1,,,,,,,,,0,,,74,0
161848,note_on,0,0,1,,,,,,,,,0,,,69,0
161848,note_on,8,0,3,,,,,,,,,2,,,64,0
161848,note_on,0,0,3,,,,,,,,,2,,,57,0
161919,note_on,71,0,3,,,,,,,,,2,,,57,36
161919,note_on,0,0,1,,,,,,,,,0,,,74,36
161919,note_on,71,0,1,,,,,,,,,0,,,69,36
161919,note_on,0,0,3,,,,,,,,,2,,,64,36
161927,note_on,0,0,1,,,,,,,,,0,,,69,0
161927,note_on,8,0,1,,,,,,,,,0,,,74,0
161927,note_on,0,0,3,,,,,,,,,2,,,57,0
161927,note_on,8,0,3,,,,,,,,,2,,,64,0
162000,note_on,0,0,1,,,,,,,,,0,,,73,36
162000,note_on,73,0,1,,,,,,,,,0,,,69,36
162000,note_on,73,0,3,,,,,,,,,2,,,57,36
162000,note_on,0,0,3,,,,,,,,,2,,,64,36
162012,note_on,12,0,3,,,,,,,,,2,,,64,0
162012,note_on,0,0,3,,,,,,,,,2,,,57,0
162012,note_on,12,0,1,,,,,,,,,0,,,73,0
162012,note_on,0,0,1,,,,,,,,,0,,,69,0
162120,control_change,108,0,3,,,,,,,,,2,64,0,,
162120,control_change,108,0,1,,,,,,,,,0,64,0,,
162240,note_on,0,0,3,,,,,,,,,2,,,76,62
162240,control_change,120,0,1,,,,,,,,,0,64,127,,
162240,note_on,0,0,1,,,,,,,,,0,,,81,52
162240,control_change,120,0,3,,,,,,,,,2,64,127,,
162240,note_on,0,0,3,,,,,,,,,2,,,69,54
162240,note_on,0,0,1,,,,,,,,,0,,,86,57
162240,note_on,0,0,1,,,,,,,,,0,,,93,62
162248,note_on,8,0,1,,,,,,,,,0,,,93,0
162248,note_on,0,0,1,,,,,,,,,0,,,86,0
162248,note_on,0,0,1,,,,,,,,,0,,,81,0
162248,note_on,8,0,3,,,,,,,,,2,,,76,0
162248,note_on,0,0,3,,,,,,,,,2,,,69,0
162320,note_on,72,0,1,,,,,,,,,0,,,81,36
162320,note_on,0,0,1,,,,,,,,,0,,,86,36
162320,note_on,0,0,1,,,,,,,,,0,,,93,36
162320,note_on,72,0,3,,,,,,,,,2,,,69,36
162320,note_on,0,0,3,,,,,,,,,2,,,76,36
162328,note_on,0,0,3,,,,,,,,,2,,,69,0
162328,note_on,0,0,1,,,,,,,,,0,,,81,0
162328,note_on,0,0,1,,,,,,,,,0,,,86,0
162328,note_on,8,0,3,,,,,,,,,2,,,76,0
162328,note_on,8,0,1,,,,,,,,,0,,,93,0
162399,note_on,71,0,1,,,,,,,,,0,,,81,36
162399,note_on,0,0,1,,,,,,,,,0,,,86,36
162399,note_on,0,0,1,,,,,,,,,0,,,93,36
162399,note_on,71,0,3,,,,,,,,,2,,,69,36
162399,note_on,0,0,3,,,,,,,,,2,,,76,36
162407,note_on,8,0,3,,,,,,,,,2,,,76,0
162407,note_on,8,0,1,,,,,,,,,0,,,93,0
162407,note_on,0,0,1,,,,,,,,,0,,,86,0
162407,note_on,0,0,1,,,,,,,,,0,,,81,0
162407,note_on,0,0,3,,,,,,,,,2,,,69,0
162480,note_on,73,0,3,,,,,,,,,2,,,69,36
162480,note_on,0,0,1,,,,,,,,,0,,,93,36
162480,note_on,0,0,1,,,,,,,,,0,,,84,36
162480,note_on,73,0,1,,,,,,,,,0,,,81,36
162480,note_on,0,0,3,,,,,,,,,2,,,76,36
162492,note_on,12,0,1,,,,,,,,,0,,,93,0
162492,note_on,0,0,1,,,,,,,,,0,,,81,0
162492,note_on,0,0,1,,,,,,,,,0,,,84,0
162492,note_on,0,0,3,,,,,,,,,2,,,69,0
162492,note_on,12,0,3,,,,,,,,,2,,,76,0
162600,control_change,108,0,3,,,,,,,,,2,64,0,,
162600,control_change,108,0,1,,,,,,,,,0,64,0,,
162720,control_change,120,0,3,,,,,,,,,2,64,127,,
162720,note_on,0,0,1,,,,,,,,,0,,,65,119
162720,note_on,0,0,1,,,,,,,,,0,,,59,115
162720,control_change,120,0,1,,,,,,,,,0,64,127,,
162720,note_on,0,0,3,,,,,,,,,2,,,38,88
162720,note_on,0,0,1,,,,,,,,,0,,,71,127
162720,note_on,0,0,1,,,,,,,,,0,,,69,123
162720,note_on,0,0,3,,,,,,,,,2,,,50,88
162800,note_on,0,0,1,,,,,,,,,0,,,59,101
162800,note_on,0,0,1,,,,,,,,,0,,,69,101
162800,note_on,0,0,1,,,,,,,,,0,,,71,101
162800,note_on,0,0,1,,,,,,,,,0,,,69,0
162800,note_on,0,0,1,,,,,,,,,0,,,65,0
162800,note_on,0,0,1,,,,,,,,,0,,,65,101
162800,note_on,80,0,1,,,,,,,,,0,,,71,0
162800,note_on,0,0,1,,,,,,,,,0,,,59,0
162800,note_on,80,0,3,,,,,,,,,2,,,50,0
162800,note_on,0,0,3,,,,,,,,,2,,,38,0
162800,note_on,0,0,3,,,,,,,,,2,,,38,88
162800,note_on,0,0,3,,,,,,,,,2,,,50,88
162879,note_on,79,0,3,,,,,,,,,2,,,38,88
162879,note_on,0,0,3,,,,,,,,,2,,,50,88
162879,note_on,0,0,1,,,,,,,,,0,,,65,101
162879,note_on,0,0,1,,,,,,,,,0,,,69,101
162879,note_on,0,0,1,,,,,,,,,0,,,71,101
162879,note_on,79,0,1,,,,,,,,,0,,,59,101
162880,note_on,0,0,1,,,,,,,,,0,,,59,0
162880,note_on,1,0,3,,,,,,,,,2,,,50,0
162880,note_on,0,0,3,,,,,,,,,2,,,38,0
162880,note_on,1,0,1,,,,,,,,,0,,,71,0
162880,note_on,0,0,1,,,,,,,,,0,,,69,0
162880,note_on,0,0,1,,,,,,,,,0,,,65,0
162959,note_on,0,0,3,,,,,,,,,2,,,50,0
162959,note_on,79,0,3,,,,,,,,,2,,,38,0
162959,note_on,79,0,1,,,,,,,,,0,,,59,0
162959,note_on,0,0,1,,,,,,,,,0,,,65,0
162959,note_on,0,0,1,,,,,,,,,0,,,69,0
162959,note_on,0,0,1,,,,,,,,,0,,,71,0
162960,control_change,1,0,3,,,,,,,,,2,64,0,,
162960,note_on,0,0,3,,,,,,,,,2,,,50,88
162960,control_change,1,0,1,,,,,,,,,0,64,0,,
162960,note_on,0,0,1,,,,,,,,,0,,,59,101
162960,note_on,0,0,1,,,,,,,,,0,,,65,101
162960,note_on,0,0,1,,,,,,,,,0,,,69,101
162960,note_on,0,0,1,,,,,,,,,0,,,71,101
162960,note_on,0,0,3,,,,,,,,,2,,,38,88
163080,note_on,120,0,1,,,,,,,,,0,,,71,0
163080,note_on,120,0,3,,,,,,,,,2,,,50,0
163080,note_on,0,0,3,,,,,,,,,2,,,38,0
163080,note_on,0,0,1,,,,,,,,,0,,,59,0
163080,note_on,0,0,1,,,,,,,,,0,,,69,0
163080,note_on,0,0,1,,,,,,,,,0,,,65,0
163200,note_on,0,0,3,,,,,,,,,2,,,62,52
163200,control_change,120,0,3,,,,,,,,,2,64,127,,
163200,note_on,0,0,3,,,,,,,,,2,,,71,62
163200,note_on,0,0,1,,,,,,,,,0,,,83,75
163200,note_on,0,0,1,,,,,,,,,0,,,81,70
163200,note_on,0,0,1,,,,,,,,,0,,,78,65
163200,control_change,120,0,1,,,,,,,,,0,64,127,,
163200,note_on,0,0,3,,,,,,,,,2,,,69,57
163212,note_on,12,0,3,,,,,,,,,2,,,71,0
163212,note_on,0,0,3,,,,,,,,,2,,,69,0
163212,note_on,0,0,3,,,,,,,,,2,,,62,0
163212,note_on,0,0,1,,,,,,,,,0,,,81,0
163212,note_on,12,0,1,,,,,,,,,0,,,83,0
163212,note_on,0,0,1,,,,,,,,,0,,,78,0
163320,note_on,108,0,3,,,,,,,,,2,,,64,52
163320,note_on,0,0,3,,,,,,,,,2,,,69,57
163320,note_on,0,0,3,,,,,,,,,2,,,73,62
163320,note_on,108,0,1,,,,,,,,,0,,,76,65
163320,note_on,0,0,1,,,,,,,,,0,,,81,70
163320,note_on,0,0,1,,,,,,,,,0,,,85,75
163332,note_on,12,0,3,,,,,,,,,2,,,73,0
163332,note_on,0,0,3,,,,,,,,,2,,,69,0
163332,note_on,0,0,3,,,,,,,,,2,,,64,0
163332,note_on,12,0,1,,,,,,,,,0,,,85,0
163332,note_on,0,0,1,,,,,,,,,0,,,81,0
163332,note_on,0,0,1,,,,,,,,,0,,,76,0
163440,note_on,0,0,1,,,,,,,,,0,,,81,70
163440,note_on,0,0,1,,,,,,,,,0,,,86,75
163440,note_on,0,0,3,,,,,,,,,2,,,69,62
163440,note_on,108,0,3,,,,,,,,,2,,,66,54
163440,note_on,108,0,1,,,,,,,,,0,,,74,65
163452,note_on,0,0,3,,,,,,,,,2,,,66,0
163452,note_on,12,0,3,,,,,,,,,2,,,69,0
163452,note_on,0,0,1,,,,,,,,,0,,,74,0
163452,note_on,0,0,1,,,,,,,,,0,,,81,0
163452,note_on,12,0,1,,,,,,,,,0,,,86,0
163560,note_on,0,0,3,,,,,,,,,2,,,73,36
163560,note_on,0,0,3,,,,,,,,,2,,,64,36
163560,note_on,0,0,3,,,,,,,,,2,,,69,36
163560,control_change,108,0,3,,,,,,,,,2,64,0,,
163560,note_on,0,0,1,,,,,,,,,0,,,81,49
163560,control_change,108,0,1,,,,,,,,,0,64,0,,
163560,note_on,0,0,1,,,,,,,,,0,,,76,49
163560,note_on,0,0,1,,,,,,,,,0,,,85,49
163572,note_on,0,0,3,,,,,,,,,2,,,64,0
163572,note_on,0,0,3,,,,,,,,,2,,,69,0
163572,note_on,12,0,3,,,,,,,,,2,,,73,0
163572,note_on,12,0,1,,,,,,,,,0,,,85,0
163572,note_on,0,0,1,,,,,,,,,0,,,81,0
163572,note_on,0,0,1,,,,,,,,,0,,,76,0
163680,control_change,108,0,1,,,,,,,,,0,64,127,,
163680,note_on,0,0,3,,,,,,,,,2,,,64,52
163680,note_on,0,0,3,,,,,,,,,2,,,71,57
163680,note_on,0,0,1,,,,,,,,,0,,,88,75
163680,note_on,0,0,3,,,,,,,,,2,,,74,62
163680,control_change,108,0,3,,,,,,,,,2,64,127,,
163680,note_on,0,0,1,,,,,,,,,0,,,76,65
163680,note_on,0,0,1,,,,,,,,,0,,,81,70
163688,note_on,8,0,1,,,,,,,,,0,,,88,0
163688,note_on,0,0,1,,,,,,,,,0,,,81,0
163688,note_on,0,0,1,,,,,,,,,0,,,76,0
163688,note_on,8,0,3,,,,,,,,,2,,,74,0
163688,note_on,0,0,3,,,,,,,,,2,,,64,0
163688,note_on,0,0,3,,,,,,,,,2,,,71,0
163760,note_on,0,0,3,,,,,,,,,2,,,71,36
163760,note_on,72,0,3,,,,,,,,,2,,,64,36
163760,note_on,72,0,1,,,,,,,,,0,,,76,49
163760,note_on,0,0,1,,,,,,,,,0,,,81,49
163760,note_on,0,0,1,,,,,,,,,0,,,88,49
163760,note_on,0,0,3,,,,,,,,,2,,,74,36
163768,note_on,0,0,3,,,,,,,,,2,,,71,0
163768,note_on,8,0,1,,,,,,,,,0,,,88,0
163768,note_on,0,0,1,,,,,,,,,0,,,76,0
163768,note_on,0,0,3,,,,,,,,,2,,,64,0
163768,note_on,0,0,1,,,,,,,,,0,,,81,0
163768,note_on,8,0,3,,,,,,,,,2,,,74,0
163839,note_on,71,0,3,,,,,,,,,2,,,64,36
163839,note_on,0,0,3,,,,,,,,,2,,,71,36
163839,note_on,0,0,3,,,,,,,,,2,,,74,36
163839,note_on,0,0,1,,,,,,,,,0,,,81,49
163839,note_on,71,0,1,,,,,,,,,0,,,76,49
163839,note_on,0,0,1,,,,,,,,,0,,,88,49
163847,note_on,0,0,1,,,,,,,,,0,,,81,0
163847,note_on,0,0,1,,,,,,,,,0,,,76,0
163847,note_on,8,0,3,,,,,,,,,2,,,74,0
163847,note_on,0,0,3,,,,,,,,,2,,,71,0
163847,note_on,0,0,3,,,,,,,,,2,,,64,0
163847,note_on,8,0,1,,,,,,,,,0,,,88,0
163920,note_on,0,0,1,,,,,,,,,0,,,88,49
163920,note_on,0,0,3,,,,,,,,,2,,,74,36
163920,note_on,73,0,3,,,,,,,,,2,,,64,36
163920,note_on,0,0,3,,,,,,,,,2,,,71,36
163920,note_on,73,0,1,,,,,,,,,0,,,76,49
163920,note_on,0,0,1,,,,,,,,,0,,,80,49
163932,note_on,0,0,1,,,,,,,,,0,,,76,0
163932,note_on,12,0,1,,,,,,,,,0,,,88,0
163932,note_on,12,0,3,,,,,,,,,2,,,74,0
163932,note_on,0,0,3,,,,,,,,,2,,,71,0
163932,note_on,0,0,3,,,,,,,,,2,,,64,0
163932,note_on,0,0,1,,,,,,,,,0,,,80,0
164040,control_change,108,0,1,,,,,,,,,0,64,0,,
164040,control_change,108,0,3,,,,,,,,,2,64,0,,
164160,control_change,120,0,1,,,,,,,,,0,64,127,,
164160,note_on,0,0,1,,,,,,,,,0,,,73,75
164160,note_on,0,0,3,,,,,,,,,2,,,64,36
164160,control_change,120,0,3,,,,,,,,,2,64,127,,
164160,note_on,0,0,3,,,,,,,,,2,,,57,36
164160,note_on,0,0,1,,,,,,,,,0,,,69,67
164168,note_on,8,0,1,,,,,,,,,0,,,73,0
164168,note_on,0,0,1,,,,,,,,,0,,,69,0
164168,note_on,0,0,3,,,,,,,,,2,,,57,0
164168,note_on,8,0,3,,,,,,,,,2,,,64,0
164240,note_on,0,0,3,,,,,,,,,2,,,64,36
164240,note_on,72,0,1,,,,,,,,,0,,,69,49
164240,note_on,0,0,1,,,,,,,,,0,,,73,49
164240,note_on,72,0,3,,,,,,,,,2,,,57,36
164248,note_on,8,0,3,,,,,,,,,2,,,64,0
164248,note_on,8,0,1,,,,,,,,,0,,,73,0
164248,note_on,0,0,1,,,,,,,,,0,,,69,0
164248,note_on,0,0,3,,,,,,,,,2,,,57,0
164319,note_on,71,0,3,,,,,,,,,2,,,57,36
164319,note_on,0,0,3,,,,,,,,,2,,,64,36
164319,note_on,0,0,1,,,,,,,,,0,,,73,49
164319,note_on,71,0,1,,,,,,,,,0,,,69,49
164327,note_on,0,0,1,,,,,,,,,0,,,69,0
164327,note_on,8,0,1,,,,,,,,,0,,,73,0
164327,note_on,0,0,3,,,,,,,,,2,,,57,0
164327,note_on,8,0,3,,,,,,,,,2,,,64,0
164400,note_on,0,0,3,,,,,,,,,2,,,64,36
164400,note_on,73,0,3,,,,,,,,,2,,,57,36
164400,note_on,73,0,1,,,,,,,,,0,,,69,49
164400,note_on,0,0,1,,,,,,,,,0,,,73,49
164412,note_on,0,0,1,,,,,,,,,0,,,69,0
164412,note_on,0,0,3,,,,,,,,,2,,,57,0
164412,note_on,12,0,3,,,,,,,,,2,,,64,0
164412,note_on,12,0,1,,,,,,,,,0,,,73,0
164520,control_change,108,0,1,,,,,,,,,0,64,0,,
164520,control_change,108,0,3,,,,,,,,,2,64,0,,
164640,control_change,120,0,3,,,,,,,,,2,64,127,,
164640,note_on,0,0,3,,,,,,,,,2,,,38,88
164640,note_on,0,0,3,,,,,,,,,2,,,50,88
164640,note_on,0,0,1,,,,,,,,,0,,,69,123
164640,note_on,0,0,1,,,,,,,,,0,,,71,127
164640,control_change,120,0,1,,,,,,,,,0,64,127,,
164640,note_on,0,0,1,,,,,,,,,0,,,59,115
164640,note_on,0,0,1,,,,,,,,,0,,,65,119
164720,note_on,0,0,1,,,,,,,,,0,,,65,0
164720,note_on,0,0,1,,,,,,,,,0,,,71,101
164720,note_on,0,0,1,,,,,,,,,0,,,59,0
164720,note_on,80,0,1,,,,,,,,,0,,,71,0
164720,note_on,0,0,3,,,,,,,,,2,,,50,88
164720,note_on,0,0,1,,,,,,,,,0,,,69,0
164720,note_on,0,0,1,,,,,,,,,0,,,69,101
164720,note_on,0,0,1,,,,,,,,,0,,,65,101
164720,note_on,0,0,1,,,,,,,,,0,,,59,101
164720,note_on,80,0,3,,,,,,,,,2,,,50,0
164720,note_on,0,0,3,,,,,,,,,2,,,38,0
164720,note_on,0,0,3,,,,,,,,,2,,,38,88
164799,note_on,0,0,1,,,,,,,,,0,,,69,101
164799,note_on,79,0,3,,,,,,,,,2,,,38,88
164799,note_on,0,0,1,,,,,,,,,0,,,71,101
164799,note_on,0,0,1,,,,,,,,,0,,,65,101
164799,note_on,79,0,1,,,,,,,,,0,,,59,101
164799,note_on,0,0,3,,,,,,,,,2,,,50,88
164800,note_on,0,0,3,,,,,,,,,2,,,38,0
164800,note_on,0,0,1,,,,,,,,,0,,,69,0
164800,note_on,1,0,1,,,,,,,,,0,,,71,0
164800,note_on,0,0,1,,,,,,,,,0,,,59,0
164800,note_on,1,0,3,,,,,,,,,2,,,50,0
164800,note_on,0,0,1,,,,,,,,,0,,,65,0
164879,note_on,79,0,3,,,,,,,,,2,,,38,0
164879,note_on,0,0,3,,,,,,,,,2,,,50,0
164879,note_on,79,0,1,,,,,,,,,0,,,59,0
164879,note_on,0,0,1,,,,,,,,,0,,,71,0
164879,note_on,0,0,1,,,,,,,,,0,,,65,0
164879,note_on,0,0,1,,,,,,,,,0,,,69,0
164880,note_on,0,0,1,,,,,,,,,0,,,71,101
164880,control_change,1,0,1,,,,,,,,,0,64,0,,
164880,note_on,0,0,1,,,,,,,,,0,,,59,101
164880,note_on,0,0,1,,,,,,,,,0,,,69,101
164880,control_change,1,0,3,,,,,,,,,2,64,0,,
164880,note_on,0,0,3,,,,,,,,,2,,,50,88
164880,note_on,0,0,3,,,,,,,,,2,,,38,88
164880,note_on,0,0,1,,,,,,,,,0,,,65,101
165000,note_on,0,0,3,,,,,,,,,2,,,38,0
165000,note_on,120,0,3,,,,,,,,,2,,,50,0
165000,note_on,120,0,1,,,,,,,,,0,,,71,0
165000,note_on,0,0,1,,,,,,,,,0,,,59,0
165000,note_on,0,0,1,,,,,,,,,0,,,65,0
165000,note_on,0,0,1,,,,,,,,,0,,,69,0
165120,note_on,0,0,3,,,,,,,,,2,,,71,62
165120,note_on,0,0,3,,,,,,,,,2,,,69,57
165120,note_on,0,0,3,,,,,,,,,2,,,62,52
165120,control_change,120,0,3,,,,,,,,,2,64,127,,
165120,note_on,0,0,1,,,,,,,,,0,,,83,62
165120,control_change,120,0,1,,,,,,,,,0,64,127,,
165120,note_on,0,0,1,,,,,,,,,0,,,78,52
165120,note_on,0,0,1,,,,,,,,,0,,,81,57
165132,note_on,0,0,3,,,,,,,,,2,,,62,0
165132,note_on,0,0,3,,,,,,,,,2,,,69,0
165132,note_on,12,0,3,,,,,,,,,2,,,71,0
165132,note_on,12,0,1,,,,,,,,,0,,,83,0
165132,note_on,0,0,1,,,,,,,,,0,,,81,0
165132,note_on,0,0,1,,,,,,,,,0,,,78,0
165240,note_on,108,0,3,,,,,,,,,2,,,64,52
165240,note_on,0,0,1,,,,,,,,,0,,,85,62
165240,note_on,0,0,1,,,,,,,,,0,,,81,57
165240,note_on,108,0,1,,,,,,,,,0,,,76,52
165240,note_on,0,0,3,,,,,,,,,2,,,73,62
165240,note_on,0,0,3,,,,,,,,,2,,,69,57
165252,note_on,0,0,3,,,,,,,,,2,,,64,0
165252,note_on,0,0,3,,,,,,,,,2,,,69,0
165252,note_on,12,0,3,,,,,,,,,2,,,73,0
165252,note_on,0,0,1,,,,,,,,,0,,,76,0
165252,note_on,0,0,1,,,,,,,,,0,,,81,0
165252,note_on,12,0,1,,,,,,,,,0,,,85,0
165360,note_on,0,0,3,,,,,,,,,2,,,69,62
165360,note_on,108,0,3,,,,,,,,,2,,,66,54
165360,note_on,108,0,1,,,,,,,,,0,,,74,52
165360,note_on,0,0,1,,,,,,,,,0,,,81,57
165360,note_on,0,0,1,,,,,,,,,0,,,86,62
165372,note_on,12,0,1,,,,,,,,,0,,,86,0
165372,note_on,0,0,1,,,,,,,,,0,,,81,0
165372,note_on,0,0,1,,,,,,,,,0,,,74,0
165372,note_on,12,0,3,,,,,,,,,2,,,69,0
165372,note_on,0,0,3,,,,,,,,,2,,,66,0
165480,note_on,0,0,1,,,,,,,,,0,,,81,36
165480,note_on,0,0,1,,,,,,,,,0,,,85,36
165480,control_change,108,0,1,,,,,,,,,0,64,0,,
165480,note_on,0,0,1,,,,,,,,,0,,,76,36
165480,note_on,0,0,3,,,,,,,,,2,,,69,36
165480,note_on,0,0,3,,,,,,,,,2,,,64,36
165480,control_change,108,0,3,,,,,,,,,2,64,0,,
165480,note_on,0,0,3,,,,,,,,,2,,,73,36
165492,note_on,0,0,3,,,,,,,,,2,,,69,0
165492,note_on,0,0,1,,,,,,,,,0,,,76,0
165492,note_on,0,0,1,,,,,,,,,0,,,81,0
165492,note_on,12,0,1,,,,,,,,,0,,,85,0
165492,note_on,12,0,3,,,,,,,,,2,,,73,0
165492,note_on,0,0,3,,,,,,,,,2,,,64,0
165600,note_on,0,0,1,,,,,,,,,0,,,88,62
165600,note_on,0,0,1,,,,,,,,,0,,,81,57
165600,note_on,0,0,1,,,,,,,,,0,,,76,52
165600,control_change,108,0,1,,,,,,,,,0,64,127,,
165600,control_change,108,0,3,,,,,,,,,2,64,127,,
165600,note_on,0,0,3,,,,,,,,,2,,,64,52
165600,note_on,0,0,3,,,,,,,,,2,,,74,62
165600,note_on,0,0,3,,,,,,,,,2,,,71,57
165608,note_on,0,0,3,,,,,,,,,2,,,71,0
165608,note_on,8,0,3,,,,,,,,,2,,,74,0
165608,note_on,0,0,1,,,,,,,,,0,,,76,0
165608,note_on,0,0,1,,,,,,,,,0,,,81,0
165608,note_on,8,0,1,,,,,,,,,0,,,88,0
165608,note_on,0,0,3,,,,,,,,,2,,,64,0
165680,note_on,72,0,3,,,,,,,,,2,,,64,36
165680,note_on,0,0,1,,,,,,,,,0,,,88,36
165680,note_on,0,0,3,,,,,,,,,2,,,71,36
165680,note_on,0,0,3,,,,,,,,,2,,,74,36
165680,note_on,0,0,1,,,,,,,,,0,,,81,36
165680,note_on,72,0,1,,,,,,,,,0,,,76,36
165688,note_on,0,0,1,,,,,,,,,0,,,76,0
165688,note_on,8,0,1,,,,,,,,,0,,,88,0
165688,note_on,0,0,3,,,,,,,,,2,,,64,0
165688,note_on,0,0,1,,,,,,,,,0,,,81,0
165688,note_on,0,0,3,,,,,,,,,2,,,71,0
165688,note_on,8,0,3,,,,,,,,,2,,,74,0
165759,note_on,71,0,1,,,,,,,,,0,,,76,36
165759,note_on,0,0,1,,,,,,,,,0,,,81,36
165759,note_on,0,0,1,,,,,,,,,0,,,88,36
165759,note_on,71,0,3,,,,,,,,,2,,,64,36
165759,note_on,0,0,3,,,,,,,,,2,,,71,36
165759,note_on,0,0,3,,,,,,,,,2,,,74,36
165767,note_on,8,0,1,,,,,,,,,0,,,88,0
165767,note_on,0,0,1,,,,,,,,,0,,,76,0
165767,note_on,8,0,3,,,,,,,,,2,,,74,0
165767,note_on,0,0,1,,,,,,,,,0,,,81,0
165767,note_on,0,0,3,,,,,,,,,2,,,71,0
165767,note_on,0,0,3,,,,,,,,,2,,,64,0
165840,note_on,73,0,1,,,,,,,,,0,,,76,36
165840,note_on,0,0,1,,,,,,,,,0,,,88,36
165840,note_on,0,0,1,,,,,,,,,0,,,80,36
165840,note_on,0,0,3,,,,,,,,,2,,,74,36
165840,note_on,73,0,3,,,,,,,,,2,,,64,36
165840,note_on,0,0,3,,,,,,,,,2,,,71,36
165852,note_on,0,0,1,,,,,,,,,0,,,80,0
165852,note_on,0,0,1,,,,,,,,,0,,,76,0
165852,note_on,12,0,1,,,,,,,,,0,,,88,0
165852,note_on,0,0,3,,,,,,,,,2,,,71,0
165852,note_on,0,0,3,,,,,,,,,2,,,64,0
165852,note_on,12,0,3,,,,,,,,,2,,,74,0
165960,control_change,108,0,1,,,,,,,,,0,64,0,,
165960,control_change,108,0,3,,,,,,,,,2,64,0,,
166080,note_on,0,0,1,,,,,,,,,0,,,69,101
166080,note_on,0,0,1,,,,,,,,,0,,,57,101
166080,control_change,120,0,1,,,,,,,,,0,64,127,,
166080,control_change,120,0,3,,,,,,,,,2,64,127,,
166080,note_on,0,0,3,,,,,,,,,2,,,33,88
166080,note_on,0,0,3,,,,,,,,,2,,,45,88
166160,note_on,0,0,1,,,,,,,,,0,,,57,0
166160,note_on,0,0,3,,,,,,,,,2,,,33,88
166160,note_on,0,0,1,,,,,,,,,0,,,69,101
166160,note_on,80,0,3,,,,,,,,,2,,,45,0
166160,note_on,0,0,3,,,,,,,,,2,,,33,0
166160,note_on,0,0,1,,,,,,,,,0,,,57,101
166160,note_on,0,0,3,,,,,,,,,2,,,45,88
166160,note_on,80,0,1,,,,,,,,,0,,,69,0
166239,note_on,79,0,1,,,,,,,,,0,,,57,101
166239,note_on,79,0,3,,,,,,,,,2,,,33,88
166239,note_on,0,0,3,,,,,,,,,2,,,45,88
166239,note_on,0,0,1,,,,,,,,,0,,,69,101
166240,note_on,1,0,3,,,,,,,,,2,,,45,0
166240,note_on,1,0,1,,,,,,,,,0,,,69,0
166240,note_on,0,0,1,,,,,,,,,0,,,57,0
166240,note_on,0,0,3,,,,,,,,,2,,,33,0
166319,note_on,0,0,1,,,,,,,,,0,,,69,0
166319,note_on,79,0,3,,,,,,,,,2,,,33,0
166319,note_on,79,0,1,,,,,,,,,0,,,57,0
166319,note_on,0,0,3,,,,,,,,,2,,,45,0
166320,control_change,1,0,3,,,,,,,,,2,64,0,,
166320,note_on,0,0,3,,,,,,,,,2,,,33,88
166320,note_on,0,0,3,,,,,,,,,2,,,45,88
166320,control_change,1,0,1,,,,,,,,,0,64,0,,
166320,note_on,0,0,1,,,,,,,,,0,,,57,101
166320,note_on,0,0,1,,,,,,,,,0,,,69,101
166440,note_on,0,0,1,,,,,,,,,0,,,57,0
166440,note_on,120,0,3,,,,,,,,,2,,,45,0
166440,note_on,0,0,3,,,,,,,,,2,,,33,0
166440,note_on,120,0,1,,,,,,,,,0,,,69,0
166560,note_on,0,0,1,,,,,,,,,0,,,64,36
166560,note_on,0,0,1,,,,,,,,,0,,,61,36
166560,control_change,120,0,3,,,,,,,,,2,64,127,,
166560,note_on,0,0,3,,,,,,,,,2,,,52,36
166560,control_change,120,0,1,,,,,,,,,0,64,127,,
166560,note_on,0,0,3,,,,,,,,,2,,,45,36
166572,note_on,0,0,1,,,,,,,,,0,,,61,0
166572,note_on,12,0,1,,,,,,,,,0,,,64,0
166572,note_on,0,0,3,,,,,,,,,2,,,45,0
166572,note_on,12,0,3,,,,,,,,,2,,,52,0
166680,note_on,108,0,1,,,,,,,,,0,,,61,36
166680,note_on,0,0,3,,,,,,,,,2,,,52,36
166680,note_on,108,0,3,,,,,,,,,2,,,45,36
166680,note_on,0,0,1,,,,,,,,,0,,,73,36
166692,note_on,12,0,3,,,,,,,,,2,,,52,0
166692,note_on,0,0,3,,,,,,,,,2,,,45,0
166692,note_on,12,0,1,,,,,,,,,0,,,73,0
166692,note_on,0,0,1,,,,,,,,,0,,,61,0
166800,note_on,0,0,1,,,,,,,,,0,,,71,36
166800,note_on,108,0,1,,,,,,,,,0,,,61,36
166800,note_on,0,0,3,,,,,,,,,2,,,52,36
166800,note_on,108,0,3,,,,,,,,,2,,,45,36
166812,note_on,12,0,3,,,,,,,,,2,,,52,0
166812,note_on,0,0,1,,,,,,,,,0,,,61,0
166812,note_on,12,0,1,,,,,,,,,0,,,71,0
166812,note_on,0,0,3,,,,,,,,,2,,,45,0
166920,control_change,108,0,1,,,,,,,,,0,64,0,,
166920,note_on,0,0,1,,,,,,,,,0,,,73,36
166920,note_on,0,0,1,,,,,,,,,0,,,61,36
166920,control_change,108,0,3,,,,,,,,,2,64,0,,
166920,note_on,0,0,3,,,,,,,,,2,,,45,36
166920,note_on,0,0,3,,,,,,,,,2,,,52,36
166932,note_on,12,0,3,,,,,,,,,2,,,52,0
166932,note_on,0,0,3,,,,,,,,,2,,,45,0
166932,note_on,12,0,1,,,,,,,,,0,,,73,0
166932,note_on,0,0,1,,,,,,,,,0,,,61,0
167040,note_on,0,0,1,,,,,,,,,0,,,76,36
167040,note_on,0,0,1,,,,,,,,,0,,,73,36
167040,note_on,0,0,1,,,,,,,,,0,,,65,36
167040,note_on,0,0,3,,,,,,,,,2,,,45,36
167040,control_change,108,0,1,,,,,,,,,0,64,127,,
167040,note_on,0,0,3,,,,,,,,,2,,,53,36
167040,control_change,108,0,3,,,,,,,,,2,64,127,,
167064,note_on,0,0,1,,,,,,,,,0,,,73,0
167064,note_on,0,0,1,,,,,,,,,0,,,65,0
167064,note_on,0,0,3,,,,,,,,,2,,,45,0
167064,note_on,24,0,3,,,,,,,,,2,,,53,0
167064,note_on,24,0,1,,,,,,,,,0,,,76,0
167280,note_on,216,0,3,,,,,,,,,2,,,45,36
167280,note_on,0,0,3,,,,,,,,,2,,,53,36
167280,note_on,0,0,1,,,,,,,,,0,,,71,36
167280,note_on,0,0,1,,,,,,,,,0,,,74,36
167280,note_on,216,0,1,,,,,,,,,0,,,65,36
167292,note_on,12,0,1,,,,,,,,,0,,,74,0
167292,note_on,0,0,1,,,,,,,,,0,,,71,0
167292,note_on,0,0,1,,,,,,,,,0,,,65,0
167292,note_on,12,0,3,,,,,,,,,2,,,53,0
167292,note_on,0,0,3,,,,,,,,,2,,,45,0
167400,control_change,108,0,3,,,,,,,,,2,64,0,,
167400,control_change,108,0,1,,,,,,,,,0,64,0,,
167520,note_on,0,0,1,,,,,,,,,0,,,64,36
167520,note_on,0,0,3,,,,,,,,,2,,,56,36
167520,note_on,0,0,1,,,,,,,,,0,,,76,36
167520,note_on,0,0,1,,,,,,,,,0,,,73,36
167520,control_change,120,0,1,,,,,,,,,0,64,127,,
167520,note_on,0,0,3,,,,,,,,,2,,,45,36
167520,control_change,120,0,3,,,,,,,,,2,64,127,,
167544,note_on,0,0,3,,,,,,,,,2,,,45,0
167544,note_on,24,0,3,,,,,,,,,2,,,56,0
167544,note_on,24,0,1,,,,,,,,,0,,,76,0
167544,note_on,0,0,1,,,,,,,,,0,,,73,0
167544,note_on,0,0,1,,,,,,,,,0,,,64,0
167760,note_on,0,0,1,,,,,,,,,0,,,74,36
167760,note_on,216,0,3,,,,,,,,,2,,,45,36
167760,note_on,0,0,3,,,,,,,,,2,,,56,36
167760,note_on,216,0,1,,,,,,,,,0,,,64,36
167760,note_on,0,0,1,,,,,,,,,0,,,71,36
167772,note_on,12,0,1,,,,,,,,,0,,,74,0
167772,note_on,12,0,3,,,,,,,,,2,,,56,0
167772,note_on,0,0,3,,,,,,,,,2,,,45,0
167772,note_on,0,0,1,,,,,,,,,0,,,64,0
167772,note_on,0,0,1,,,,,,,,,0,,,71,0
167880,control_change,108,0,1,,,,,,,,,0,64,0,,
167880,control_change,108,0,3,,,,,,,,,2,64,0,,
168000,control_change,120,0,3,,,,,,,,,2,64,127,,
168000,note_on,0,0,3,,,,,,,,,2,,,33,88
168000,control_change,120,0,1,,,,,,,,,0,64,127,,
168000,note_on,0,0,1,,,,,,,,,0,,,81,101
168000,note_on,0,0,1,,,,,,,,,0,,,69,101
168000,note_on,0,0,3,,,,,,,,,2,,,45,88
168080,note_on,80,0,1,,,,,,,,,0,,,81,0
168080,note_on,0,0,1,,,,,,,,,0,,,69,0
168080,note_on,0,0,1,,,,,,,,,0,,,69,101
168080,note_on,0,0,1,,,,,,,,,0,,,81,101
168080,note_on,0,0,3,,,,,,,,,2,,,33,0
168080,note_on,0,0,3,,,,,,,,,2,,,33,88
168080,note_on,0,0,3,,,,,,,,,2,,,45,88
168080,note_on,80,0,3,,,,,,,,,2,,,45,0
168159,note_on,79,0,3,,,,,,,,,2,,,33,88
168159,note_on,0,0,3,,,,,,,,,2,,,45,88
168159,note_on,79,0,1,,,,,,,,,0,,,69,101
168159,note_on,0,0,1,,,,,,,,,0,,,81,101
168160,note_on,1,0,3,,,,,,,,,2,,,45,0
168160,note_on,1,0,1,,,,,,,,,0,,,81,0
168160,note_on,0,0,1,,,,,,,,,0,,,69,0
168160,note_on,0,0,3,,,,,,,,,2,,,33,0
168239,note_on,79,0,1,,,,,,,,,0,,,69,0
168239,note_on,0,0,1,,,,,,,,,0,,,81,0
168239,note_on,79,0,3,,,,,,,,,2,,,33,0
168239,note_on,0,0,3,,,,,,,,,2,,,45,0
168240,control_change,1,0,3,,,,,,,,,2,64,0,,
168240,note_on,0,0,3,,,,,,,,,2,,,33,88
168240,note_on,0,0,3,,,,,,,,,2,,,45,88
168240,note_on,0,0,1,,,,,,,,,0,,,69,101
168240,control_change,1,0,1,,,,,,,,,0,64,0,,
168240,note_on,0,0,1,,,,,,,,,0,,,81,101
168360,note_on,120,0,3,,,,,,,,,2,,,45,0
168360,note_on,0,0,3,,,,,,,,,2,,,33,0
168360,note_on,0,0,1,,,,,,,,,0,,,69,0
168360,note_on,120,0,1,,,,,,,,,0,,,81,0
168480,note_on,0,0,1,,,,,,,,,0,,,64,36
168480,control_change,120,0,1,,,,,,,,,0,64,127,,
168480,control_change,120,0,3,,,,,,,,,2,64,127,,
168480,note_on,0,0,3,,,,,,,,,2,,,45,36
168480,note_on,0,0,1,,,,,,,,,0,,,61,36
168480,note_on,0,0,3,,,,,,,,,2,,,52,36
168492,note_on,12,0,3,,,,,,,,,2,,,52,0
168492,note_on,0,0,1,,,,,,,,,0,,,61,0
168492,note_on,0,0,3,,,,,,,,,2,,,45,0
168492,note_on,12,0,1,,,,,,,,,0,,,64,0
168600,note_on,0,0,1,,,,,,,,,0,,,73,36
168600,note_on,108,0,1,,,,,,,,,0,,,61,36
168600,note_on,108,0,3,,,,,,,,,2,,,45,36
168600,note_on,0,0,3,,,,,,,,,2,,,52,36
168612,note_on,0,0,1,,,,,,,,,0,,,61,0
168612,note_on,12,0,3,,,,,,,,,2,,,52,0
168612,note_on,0,0,3,,,,,,,,,2,,,45,0
168612,note_on,12,0,1,,,,,,,,,0,,,73,0
168720,note_on,0,0,1,,,,,,,,,0,,,71,36
168720,note_on,108,0,1,,,,,,,,,0,,,61,36
168720,note_on,0,0,3,,,,,,,,,2,,,52,36
168720,note_on,108,0,3,,,,,,,,,2,,,45,36
168732,note_on,0,0,3,,,,,,,,,2,,,45,0
168732,note_on,12,0,1,,,,,,,,,0,,,71,0
168732,note_on,0,0,1,,,,,,,,,0,,,61,0
168732,note_on,12,0,3,,,,,,,,,2,,,52,0
168840,control_change,108,0,3,,,,,,,,,2,64,0,,
168840,note_on,0,0,3,,,,,,,,,2,,,45,36
168840,note_on,0,0,3,,,,,,,,,2,,,52,36
168840,note_on,0,0,1,,,,,,,,,0,,,73,36
168840,note_on,0,0,1,,,,,,,,,0,,,61,36
168840,control_change,108,0,1,,,,,,,,,0,64,0,,
168852,note_on,12,0,1,,,,,,,,,0,,,73,0
168852,note_on,0,0,1,,,,,,,,,0,,,61,0
168852,note_on,12,0,3,,,,,,,,,2,,,52,0
168852,note_on,0,0,3,,,,,,,,,2,,,45,0
168960,control_change,108,0,1,,,,,,,,,0,64,127,,
168960,note_on,0,0,1,,,,,,,,,0,,,66,52
168960,note_on,0,0,1,,,,,,,,,0,,,74,57
168960,note_on,0,0,1,,,,,,,,,0,,,78,62
168960,note_on,0,0,3,,,,,,,,,2,,,50,62
168960,note_on,0,0,3,,,,,,,,,2,,,45,54
168960,control_change,108,0,3,,,,,,,,,2,64,127,,
168984,note_on,0,0,1,,,,,,,,,0,,,66,0
168984,note_on,0,0,1,,,,,,,,,0,,,74,0
168984,note_on,0,0,3,,,,,,,,,2,,,45,0
168984,note_on,24,0,3,,,,,,,,,2,,,50,0
168984,note_on,24,0,1,,,,,,,,,0,,,78,0
169200,note_on,0,0,1,,,,,,,,,0,,,74,36
169200,note_on,216,0,3,,,,,,,,,2,,,45,36
169200,note_on,0,0,3,,,,,,,,,2,,,54,36
169200,note_on,0,0,1,,,,,,,,,0,,,71,36
169200,note_on,216,0,1,,,,,,,,,0,,,66,36
169212,note_on,0,0,3,,,,,,,,,2,,,45,0
169212,note_on,0,0,1,,,,,,,,,0,,,71,0
169212,note_on,12,0,1,,,,,,,,,0,,,74,0
169212,note_on,0,0,1,,,,,,,,,0,,,66,0
169212,note_on,12,0,3,,,,,,,,,2,,,54,0
169320,control_change,108,0,1,,,,,,,,,0,64,0,,
169320,control_change,108,0,3,,,,,,,,,2,64,0,,
169440,note_on,0,0,1,,,,,,,,,0,,,76,62
169440,note_on,0,0,1,,,,,,,,,0,,,64,52
169440,control_change,120,0,3,,,,,,,,,2,64,127,,
169440,note_on,0,0,3,,,,,,,,,2,,,45,54
169440,note_on,0,0,3,,,,,,,,,2,,,52,62
169440,control_change,120,0,1,,,,,,,,,0,64,127,,
169440,note_on,0,0,1,,,,,,,,,0,,,73,57
169464,note_on,24,0,3,,,,,,,,,2,,,52,0
169464,note_on,0,0,3,,,,,,,,,2,,,45,0
169464,note_on,0,0,1,,,,,,,,,0,,,64,0
169464,note_on,0,0,1,,,,,,,,,0,,,73,0
169464,note_on,24,0,1,,,,,,,,,0,,,76,0
169680,note_on,0,0,3,,,,,,,,,2,,,56,36
169680,note_on,0,0,1,,,,,,,,,0,,,74,36
169680,note_on,216,0,3,,,,,,,,,2,,,45,36
169680,note_on,216,0,1,,,,,,,,,0,,,64,36
169680,note_on,0,0,1,,,,,,,,,0,,,71,36
169692,note_on,0,0,3,,,,,,,,,2,,,45,0
169692,note_on,12,0,3,,,,,,,,,2,,,56,0
169692,note_on,12,0,1,,,,,,,,,0,,,74,0
169692,note_on,0,0,1,,,,,,,,,0,,,71,0
169692,note_on,0,0,1,,,,,,,,,0,,,64,0
169800,control_change,108,0,3,,,,,,,,,2,64,0,,
169800,control_change,108,0,1,,,,,,,,,0,64,0,,
169920,control_change,120,0,3,,,,,,,,,2,64,127,,
169920,control_change,120,0,1,,,,,,,,,0,64,127,,
169920,note_on,0,0,1,,,,,,,,,0,,,64,36
169920,note_on,0,0,1,,,,,,,,,0,,,71,36
169920,note_on,0,0,1,,,,,,,,,0,,,74,36
169920,note_on,0,0,3,,,,,,,,,2,,,45,36
169920,note_on,0,0,3,,,,,,,,,2,,,57,36
169944,note_on,0,0,1,,,,,,,,,0,,,64,0
169944,note_on,0,0,3,,,,,,,,,2,,,45,0
169944,note_on,24,0,1,,,,,,,,,0,,,74,0
169944,note_on,0,0,1,,,,,,,,,0,,,71,0
169944,note_on,24,0,3,,,,,,,,,2,,,57,0
170160,note_on,216,0,3,,,,,,,,,2,,,45,36
170160,note_on,0,0,3,,,,,,,,,2,,,57,36
170160,note_on,216,0,1,,,,,,,,,0,,,64,36
170160,note_on,0,0,1,,,,,,,,,0,,,69,36
170160,note_on,0,0,1,,,,,,,,,0,,,72,36
170172,note_on,12,0,3,,,,,,,,,2,,,57,0
170172,note_on,0,0,3,,,,,,,,,2,,,45,0
170172,note_on,12,0,1,,,,,,,,,0,,,72,0
170172,note_on,0,0,1,,,,,,,,,0,,,69,0
170172,note_on,0,0,1,,,,,,,,,0,,,64,0
170280,control_change,108,0,3,,,,,,,,,2,64,0,,
170280,control_change,108,0,1,,,,,,,,,0,64,0,,
170400,note_on,0,0,1,,,,,,,,,0,,,62,36
170400,note_on,0,0,3,,,,,,,,,2,,,50,36
170400,control_change,120,0,3,,,,,,,,,2,64,127,,
170400,note_on,0,0,1,,,,,,,,,0,,,65,36
170400,control_change,120,0,1,,,,,,,,,0,64,127,,
170400,note_on,0,0,1,,,,,,,,,0,,,72,36
170400,note_on,0,0,3,,,,,,,,,2,,,53,36
170424,note_on,0,0,1,,,,,,,,,0,,,62,0
170424,note_on,0,0,1,,,,,,,,,0,,,65,0
170424,note_on,24,0,1,,,,,,,,,0,,,72,0
170424,note_on,24,0,3,,,,,,,,,2,,,53,0
170424,note_on,0,0,3,,,,,,,,,2,,,50,0
170640,note_on,0,0,1,,,,,,,,,0,,,70,36
170640,note_on,0,0,1,,,,,,,,,0,,,65,36
170640,note_on,216,0,1,,,,,,,,,0,,,62,36
170640,note_on,216,0,3,,,,,,,,,2,,,50,36
170640,note_on,0,0,3,,,,,,,,,2,,,53,36
170652,note_on,0,0,1,,,,,,,,,0,,,65,0
170652,note_on,0,0,1,,,,,,,,,0,,,62,0
170652,note_on,12,0,1,,,,,,,,,0,,,70,0
170652,note_on,12,0,3,,,,,,,,,2,,,53,0
170652,note_on,0,0,3,,,,,,,,,2,,,50,0
170760,control_change,108,0,1,,,,,,,,,0,64,0,,
170760,control_change,108,0,3,,,,,,,,,2,64,0,,
170880,note_on,0,0,1,,,,,,,,,0,,,70,36
170880,note_on,0,0,1,,,,,,,,,0,,,64,36
170880,note_on,0,0,1,,,,,,,,,0,,,60,36
170880,control_change,120,0,1,,,,,,,,,0,64,127,,
170880,control_change,13200,0,4,,,,,,,,,3,64,127,,
170880,note_on,0,0,4,,,,,,,,,3,,,40,36
170880,note_on,120,0,3,,,,,,,,,2,,,48,62
170904,note_on,0,0,1,,,,,,,,,0,,,60,0
170904,note_on,0,0,1,,,,,,,,,0,,,64,0
170904,note_on,24,0,1,,,,,,,,,0,,,70,0
170904,note_on,24,0,4,,,,,,,,,3,,,40,0
171120,note_on,0,0,1,,,,,,,,,0,,,69,36
171120,note_on,216,0,1,,,,,,,,,0,,,60,36
171120,note_on,240,0,3,,,,,,,,,2,,,48,0
171120,note_on,45840,0,2,,,,,,,,,1,,,64,62
171120,note_on,0,0,3,,,,,,,,,2,,,52,62
171120,note_on,216,0,4,,,,,,,,,3,,,40,36
171132,note_on,12,0,4,,,,,,,,,3,,,40,0
171132,note_on,12,0,1,,,,,,,,,0,,,69,0
171132,note_on,0,0,1,,,,,,,,,0,,,60,0
171240,control_change,108,0,4,,,,,,,,,3,64,0,,
171240,control_change,108,0,1,,,,,,,,,0,64,0,,
171360,note_on,240,0,2,,,,,,,,,1,,,64,0
171360,note_on,120,0,1,,,,,,,,,0,,,63,62
171360,note_on,0,0,3,,,,,,,,,2,,,51,62
171360,note_on,240,0,3,,,,,,,,,2,,,52,0
171600,note_on,0,0,1,,,,,,,,,0,,,64,36
171600,note_on,240,0,1,,,,,,,,,0,,,63,0
171600,note_on,0,0,3,,,,,,,,,2,,,52,36
171600,note_on,240,0,3,,,,,,,,,2,,,51,0
171720,note_on,120,0,1,,,,,,,,,0,,,64,0
171720,note_on,120,0,3,,,,,,,,,2,,,52,0
172320,note_on,960,0,2,,,,,,,,,1,,,59,62
172320,control_change,1080,0,4,,,,,,,,,3,64,127,,
172320,note_on,0,0,4,,,,,,,,,3,,,40,36
172320,note_on,0,0,1,,,,,,,,,0,,,69,36
172320,note_on,0,0,1,,,,,,,,,0,,,64,36
172320,control_change,600,0,1,,,,,,,,,0,64,127,,
172320,note_on,600,0,3,,,,,,,,,2,,,47,62
172344,note_on,24,0,4,,,,,,,,,3,,,40,0
172344,note_on,0,0,1,,,,,,,,,0,,,64,0
172344,note_on,24,0,1,,,,,,,,,0,,,69,0
172560,note_on,240,0,3,,,,,,,,,2,,,47,0
172560,note_on,0,0,1,,,,,,,,,0,,,68,36
172560,note_on,216,0,1,,,,,,,,,0,,,59,36
172560,note_on,0,0,2,,,,,,,,,1,,,64,62
172560,note_on,240,0,2,,,,,,,,,1,,,59,0
172560,note_on,0,0,3,,,,,,,,,2,,,52,62
172560,note_on,216,0,4,,,,,,,,,3,,,40,36
172572,note_on,12,0,4,,,,,,,,,3,,,40,0
172572,note_on,0,0,1,,,,,,,,,0,,,59,0
172572,note_on,12,0,1,,,,,,,,,0,,,68,0
172680,control_change,108,0,1,,,,,,,,,0,64,0,,
172680,control_change,108,0,4,,,,,,,,,3,64,0,,
172800,note_on,240,0,2,,,,,,,,,1,,,64,0
172800,note_on,120,0,1,,,,,,,,,0,,,63,62
172800,note_on,240,0,3,,,,,,,,,2,,,52,0
172800,note_on,0,0,3,,,,,,,,,2,,,51,62
173040,note_on,240,0,3,,,,,,,,,2,,,51,0
173040,note_on,0,0,3,,,,,,,,,2,,,52,36
173040,note_on,0,0,1,,,,,,,,,0,,,64,36
173040,note_on,240,0,1,,,,,,,,,0,,,63,0
173160,note_on,120,0,3,,,,,,,,,2,,,52,0
173160,note_on,120,0,1,,,,,,,,,0,,,64,0
173760,note_on,600,0,3,,,,,,,,,2,,,45,52
173760,note_on,0,0,3,,,,,,,,,2,,,51,57
173760,note_on,0,0,3,,,,,,,,,2,,,54,62
173760,note_on,0,0,1,,,,,,,,,0,,,63,57
173760,note_on,600,0,1,,,,,,,,,0,,,57,52
173760,note_on,0,0,1,,,,,,,,,0,,,66,62
174240,note_on,0,0,1,,,,,,,,,0,,,60,36
174240,note_on,480,0,3,,,,,,,,,2,,,51,0
174240,note_on,0,0,3,,,,,,,,,2,,,48,36
174240,note_on,480,0,1,,,,,,,,,0,,,63,0
174360,note_on,0,0,3,,,,,,,,,2,,,54,0
174360,note_on,120,0,3,,,,,,,,,2,,,48,0
174360,note_on,120,0,1,,,,,,,,,0,,,60,0
174360,note_on,0,0,1,,,,,,,,,0,,,57,0
174360,note_on,0,0,1,,,,,,,,,0,,,66,0
174360,note_on,0,0,3,,,,,,,,,2,,,45,0
174720,note_on,0,0,1,,,,,,,,,0,,,63,57
174720,note_on,360,0,1,,,,,,,,,0,,,57,52
174720,note_on,360,0,3,,,,,,,,,2,,,45,52
174720,note_on,0,0,3,,,,,,,,,2,,,54,62
174720,note_on,0,0,3,,,,,,,,,2,,,51,57
174720,note_on,0,0,1,,,,,,,,,0,,,66,62
175200,note_on,480,0,1,,,,,,,,,0,,,63,0
175200,note_on,0,0,1,,,,,,,,,0,,,60,36
175200,note_on,0,0,3,,,,,,,,,2,,,48,36
175200,note_on,480,0,3,,,,,,,,,2,,,51,0
175320,note_on,120,0,1,,,,,,,,,0,,,60,0
175320,note_on,0,0,1,,,,,,,,,0,,,66,0
175320,note_on,0,0,1,,,,,,,,,0,,,57,0
175320,note_on,0,0,3,,,,,,,,,2,,,54,0
175320,note_on,120,0,3,,,,,,,,,2,,,48,0
175320,note_on,0,0,3,,,,,,,,,2,,,45,0
175680,note_on,0,0,3,,,,,,,,,2,,,51,36
175680,note_on,360,0,1,,,,,,,,,0,,,63,36
175680,note_on,360,0,3,,,,,,,,,2,,,39,36
175680,note_on,0,0,1,,,,,,,,,0,,,75,36
175920,note_on,240,0,1,,,,,,,,,0,,,75,0
175920,note_on,0,0,1,,,,,,,,,0,,,60,36
175920,note_on,0,0,1,,,,,,,,,0,,,63,0
175920,note_on,240,0,3,,,,,,,,,2,,,51,0
175920,note_on,0,0,3,,,,,,,,,2,,,39,0
175920,note_on,0,0,3,,,,,,,,,2,,,36,36
175920,note_on,0,0,3,,,,,,,,,2,,,48,36
175920,note_on,0,0,1,,,,,,,,,0,,,72,36
175980,note_on,60,0,1,,,,,,,,,0,,,72,0
175980,note_on,60,0,3,,,,,,,,,2,,,48,0
175980,note_on,0,0,3,,,,,,,,,2,,,36,0
175980,note_on,0,0,1,,,,,,,,,0,,,60,0
176160,note_on,180,0,3,,,,,,,,,2,,,39,36
176160,note_on,180,0,1,,,,,,,,,0,,,63,36
176160,note_on,0,0,1,,,,,,,,,0,,,75,36
176160,note_on,0,0,3,,,,,,,,,2,,,51,36
176400,note_on,0,0,1,,,,,,,,,0,,,63,0
176400,note_on,240,0,1,,,,,,,,,0,,,75,0
176400,note_on,0,0,1,,,,,,,,,0,,,72,36
176400,note_on,0,0,3,,,,,,,,,2,,,36,36
176400,note_on,0,0,1,,,,,,,,,0,,,60,36
176400,note_on,0,0,3,,,,,,,,,2,,,39,0
176400,note_on,240,0,3,,,,,,,,,2,,,51,0
176400,note_on,0,0,3,,,,,,,,,2,,,48,36
176460,note_on,0,0,1,,,,,,,,,0,,,60,0
176460,note_on,60,0,1,,,,,,,,,0,,,72,0
176460,note_on,0,0,3,,,,,,,,,2,,,36,0
176460,note_on,60,0,3,,,,,,,,,2,,,48,0
176640,note_on,180,0,1,,,,,,,,,0,,,63,36
176640,note_on,0,0,1,,,,,,,,,0,,,75,36
176640,note_on,180,0,3,,,,,,,,,2,,,39,36
176640,note_on,0,0,3,,,,,,,,,2,,,51,36
176760,note_on,0,0,1,,,,,,,,,0,,,60,36
176760,note_on,0,0,1,,,,,,,,,0,,,72,36
176760,note_on,0,0,1,,,,,,,,,0,,,63,0
176760,note_on,0,0,3,,,,,,,,,2,,,48,36
176760,note_on,0,0,3,,,,,,,,,2,,,36,36
176760,note_on,0,0,3,,,,,,,,,2,,,39,0
176760,note_on,120,0,3,,,,,,,,,2,,,51,0
176760,note_on,120,0,1,,,,,,,,,0,,,75,0
176820,note_on,60,0,3,,,,,,,,,2,,,48,0
176820,note_on,60,0,1,,,,,,,,,0,,,72,0
176820,note_on,0,0,1,,,,,,,,,0,,,60,0
176820,note_on,0,0,3,,,,,,,,,2,,,36,0
176880,note_on,0,0,3,,,,,,,,,2,,,51,49
176880,note_on,60,0,3,,,,,,,,,2,,,39,49
176880,note_on,60,0,1,,,,,,,,,0,,,63,62
176880,note_on,0,0,1,,,,,,,,,0,,,75,62
177000,note_on,0,0,3,,,,,,,,,2,,,48,49
177000,note_on,0,0,3,,,,,,,,,2,,,36,49
177000,note_on,0,0,3,,,,,,,,,2,,,39,0
177000,note_on,120,0,1,,,,,,,,,0,,,75,0
177000,note_on,0,0,1,,,,,,,,,0,,,63,0
177000,note_on,0,0,1,,,,,,,,,0,,,60,62
177000,note_on,0,0,1,,,,,,,,,0,,,72,62
177000,note_on,120,0,3,,,,,,,,,2,,,51,0
177060,note_on,0,0,1,,,,,,,,,0,,,60,0
177060,note_on,60,0,1,,,,,,,,,0,,,72,0
177060,note_on,0,0,3,,,,,,,,,2,,,36,0
177060,note_on,60,0,3,,,,,,,,,2,,,48,0
177120,note_on,60,0,1,,,,,,,,,0,,,63,75
177120,note_on,0,0,1,,,,,,,,,0,,,75,75
177120,note_on,0,0,3,,,,,,,,,2,,,51,62
177120,note_on,60,0,3,,,,,,,,,2,,,39,62
177240,note_on,0,0,3,,,,,,,,,2,,,48,62
177240,note_on,0,0,3,,,,,,,,,2,,,36,62
177240,note_on,0,0,3,,,,,,,,,2,,,39,0
177240,note_on,120,0,3,,,,,,,,,2,,,51,0
177240,note_on,0,0,1,,,,,,,,,0,,,72,75
177240,note_on,120,0,1,,,,,,,,,0,,,75,0
177240,note_on,0,0,1,,,,,,,,,0,,,63,0
177240,note_on,0,0,1,,,,,,,,,0,,,60,75
177300,note_on,60,0,1,,,,,,,,,0,,,72,0
177300,note_on,0,0,1,,,,,,,,,0,,,60,0
177300,note_on,0,0,3,,,,,,,,,2,,,36,0
177300,note_on,60,0,3,,,,,,,,,2,,,48,0
177360,note_on,0,0,3,,,,,,,,,2,,,51,75
177360,note_on,60,0,3,,,,,,,,,2,,,39,75
177360,note_on,0,0,1,,,,,,,,,0,,,75,88
177360,note_on,60,0,1,,,,,,,,,0,,,63,88
177480,note_on,0,0,3,,,,,,,,,2,,,48,75
177480,note_on,0,0,1,,,,,,,,,0,,,60,88
177480,note_on,0,0,1,,,,,,,,,0,,,63,0
177480,note_on,0,0,3,,,,,,,,,2,,,36,75
177480,note_on,0,0,3,,,,,,,,,2,,,39,0
177480,note_on,120,0,3,,,,,,,,,2,,,51,0
177480,note_on,0,0,1,,,,,,,,,0,,,72,88
177480,note_on,120,0,1,,,,,,,,,0,,,75,0
177540,note_on,60,0,3,,,,,,,,,2,,,48,0
177540,note_on,0,0,3,,,,,,,,,2,,,36,0
177540,note_on,60,0,1,,,,,,,,,0,,,72,0
177540,note_on,0,0,1,,,,,,,,,0,,,60,0
177600,control_change,60,0,1,,,,,,,,,0,64,127,,
177600,control_change,60,0,3,,,,,,,,,2,64,127,,
177600,note_on,0,0,3,,,,,,,,,2,,,40,88
177600,note_on,0,0,1,,,,,,,,,0,,,64,101
177630,note_on,0,0,1,,,,,,,,,0,,,76,101
177630,note_on,30,0,3,,,,,,,,,2,,,40,0
177630,note_on,0,0,3,,,,,,,,,2,,,52,88
177630,note_on,30,0,1,,,,,,,,,0,,,64,0
177660,note_on,30,0,1,,,,,,,,,0,,,76,0
177660,note_on,30,0,3,,,,,,,,,2,,,52,0
177660,note_on,0,0,1,,,,,,,,,0,,,64,101
177660,note_on,0,0,3,,,,,,,,,2,,,40,88
177690,note_on,30,0,1,,,,,,,,,0,,,64,0
177690,note_on,30,0,3,,,,,,,,,2,,,40,0
177690,note_on,0,0,1,,,,,,,,,0,,,76,101
177690,note_on,0,0,3,,,,,,,,,2,,,52,88
177720,note_on,0,0,3,,,,,,,,,2,,,40,88
177720,note_on,0,0,1,,,,,,,,,0,,,64,101
177720,note_on,30,0,1,,,,,,,,,0,,,76,0
177720,note_on,30,0,3,,,,,,,,,2,,,52,0
177750,note_on,0,0,1,,,,,,,,,0,,,76,101
177750,note_on,30,0,3,,,,,,,,,2,,,40,0
177750,note_on,30,0,1,,,,,,,,,0,,,64,0
177750,note_on,0,0,3,,,,,,,,,2,,,52,88
177780,note_on,0,0,1,,,,,,,,,0,,,64,101
177780,note_on,30,0,1,,,,,,,,,0,,,76,0
177780,note_on,30,0,3,,,,,,,,,2,,,52,0
177780,note_on,0,0,3,,,,,,,,,2,,,40,88
177810,note_on,0,0,1,,,,,,,,,0,,,76,101
177810,note_on,30,0,1,,,,,,,,,0,,,64,0
177810,note_on,30,0,3,,,,,,,,,2,,,40,0
177810,note_on,0,0,3,,,,,,,,,2,,,52,88
177840,note_on,0,0,1,,,,,,,,,0,,,64,101
177840,note_on,30,0,3,,,,,,,,,2,,,52,0
177840,note_on,30,0,1,,,,,,,,,0,,,76,0
177840,note_on,0,0,3,,,,,,,,,2,,,40,88
177870,note_on,30,0,3,,,,,,,,,2,,,40,0
177870,note_on,0,0,3,,,,,,,,,2,,,52,88
177870,note_on,0,0,1,,,,,,,,,0,,,76,101
177870,note_on,30,0,1,,,,,,,,,0,,,64,0
177900,note_on,30,0,3,,,,,,,,,2,,,52,0
177900,note_on,0,0,1,,,,,,,,,0,,,64,101
177900,note_on,30,0,1,,,,,,,,,0,,,76,0
177900,note_on,0,0,3,,,,,,,,,2,,,40,88
177930,note_on,0,0,1,,,,,,,,,0,,,76,101
177930,note_on,0,0,3,,,,,,,,,2,,,52,88
177930,note_on,30,0,1,,,,,,,,,0,,,64,0
177930,note_on,30,0,3,,,,,,,,,2,,,40,0
177960,note_on,30,0,3,,,,,,,,,2,,,52,0
177960,note_on,0,0,1,,,,,,,,,0,,,64,101
177960,note_on,30,0,1,,,,,,,,,0,,,76,0
177960,note_on,0,0,3,,,,,,,,,2,,,40,88
177990,note_on,0,0,3,,,,,,,,,2,,,52,88
177990,note_on,30,0,1,,,,,,,,,0,,,64,0
177990,note_on,0,0,1,,,,,,,,,0,,,76,101
177990,note_on,30,0,3,,,,,,,,,2,,,40,0
178020,note_on,30,0,1,,,,,,,,,0,,,76,0
178020,note_on,30,0,3,,,,,,,,,2,,,52,0
178020,note_on,0,0,1,,,,,,,,,0,,,64,101
178020,note_on,0,0,3,,,,,,,,,2,,,40,88
178050,control_change,0,0,3,,,,,,,,,2,64,0,,
178050,note_on,0,0,3,,,,,,,,,2,,,52,88
178050,note_on,30,0,3,,,,,,,,,2,,,40,0
178050,note_on,0,0,1,,,,,,,,,0,,,76,101
178050,note_on,30,0,1,,,,,,,,,0,,,64,0
178050,control_change,0,0,1,,,,,,,,,0,64,0,,
178080,control_change,0,0,1,,,,,,,,,0,64,127,,
178080,note_on,0,0,1,,,,,,,,,0,,,61,101
178080,note_on,30,0,1,,,,,,,,,0,,,76,0
178080,note_on,30,0,3,,,,,,,,,2,,,52,0
178080,note_on,0,0,3,,,,,,,,,2,,,37,88
178110,note_on,30,0,1,,,,,,,,,0,,,61,0
178110,note_on,30,0,3,,,,,,,,,2,,,37,0
178110,note_on,0,0,3,,,,,,,,,2,,,49,88
178110,note_on,0,0,1,,,,,,,,,0,,,73,101
178140,note_on,30,0,1,,,,,,,,,0,,,73,0
178140,note_on,0,0,1,,,,,,,,,0,,,61,101
178140,note_on,30,0,3,,,,,,,,,2,,,49,0
178140,note_on,0,0,3,,,,,,,,,2,,,37,88
178170,note_on,30,0,1,,,,,,,,,0,,,61,0
178170,note_on,30,0,3,,,,,,,,,2,,,37,0
178170,note_on,0,0,3,,,,,,,,,2,,,49,88
178170,note_on,0,0,1,,,,,,,,,0,,,73,101
178200,note_on,30,0,1,,,,,,,,,0,,,73,0
178200,note_on,0,0,3,,,,,,,,,2,,,37,88
178200,note_on,30,0,3,,,,,,,,,2,,,49,0
178200,note_on,0,0,1,,,,,,,,,0,,,61,101
178230,note_on,0,0,3,,,,,,,,,2,,,49,88
178230,note_on,30,0,3,,,,,,,,,2,,,37,0
178230,note_on,0,0,1,,,,,,,,,0,,,73,101
178230,note_on,30,0,1,,,,,,,,,0,,,61,0
178260,note_on,0,0,1,,,,,,,,,0,,,61,101
178260,note_on,0,0,3,,,,,,,,,2,,,37,88
178260,note_on,30,0,3,,,,,,,,,2,,,49,0
178260,note_on,30,0,1,,,,,,,,,0,,,73,0
178290,note_on,30,0,1,,,,,,,,,0,,,61,0
178290,note_on,0,0,1,,,,,,,,,0,,,73,101
178290,note_on,0,0,3,,,,,,,,,2,,,49,88
178290,note_on,30,0,3,,,,,,,,,2,,,37,0
178320,note_on,0,0,1,,,,,,,,,0,,,61,101
178320,note_on,0,0,3,,,,,,,,,2,,,37,88
178320,note_on,30,0,3,,,,,,,,,2,,,49,0
178320,note_on,30,0,1,,,,,,,,,0,,,73,0
178350,note_on,0,0,3,,,,,,,,,2,,,49,88
178350,note_on,30,0,3,,,,,,,,,2,,,37,0
178350,note_on,0,0,1,,,,,,,,,0,,,73,101
178350,note_on,30,0,1,,,,,,,,,0,,,61,0
178380,note_on,0,0,3,,,,,,,,,2,,,37,88
178380,note_on,0,0,1,,,,,,,,,0,,,61,101
178380,note_on,30,0,1,,,,,,,,,0,,,73,0
178380,note_on,30,0,3,,,,,,,,,2,,,49,0
178410,note_on,30,0,3,,,,,,,,,2,,,37,0
178410,note_on,0,0,1,,,,,,,,,0,,,73,101
178410,note_on,30,0,1,,,,,,,,,0,,,61,0
178410,note_on,0,0,3,,,,,,,,,2,,,49,88
178440,note_on,30,0,3,,,,,,,,,2,,,49,0
178440,note_on,0,0,1,,,,,,,,,0,,,61,101
178440,note_on,0,0,3,,,,,,,,,2,,,37,88
178440,note_on,30,0,1,,,,,,,,,0,,,73,0
178470,note_on,30,0,1,,,,,,,,,0,,,61,0
178470,note_on,0,0,3,,,,,,,,,2,,,49,88
178470,note_on,30,0,3,,,,,,,,,2,,,37,0
178470,note_on,0,0,1,,,,,,,,,0,,,73,101
178500,note_on,0,0,1,,,,,,,,,0,,,61,101
178500,note_on,30,0,3,,,,,,,,,2,,,49,0
178500,note_on,30,0,1,,,,,,,,,0,,,73,0
178500,note_on,0,0,3,,,,,,,,,2,,,37,88
178530,control_change,0,0,1,,,,,,,,,0,64,0,,
178530,note_on,0,0,1,,,,,,,,,0,,,73,101
178530,note_on,0,0,3,,,,,,,,,2,,,49,88
178530,control_change,0,0,3,,,,,,,,,2,64,0,,
178530,note_on,30,0,3,,,,,,,,,2,,,37,0
178530,note_on,30,0,1,,,,,,,,,0,,,61,0
178560,note_on,0,0,3,,,,,,,,,2,,,64,88
178560,note_on,0,0,3,,,,,,,,,2,,,52,88
178560,note_on,30,0,1,,,,,,,,,0,,,73,0
178560,note_on,0,0,1,,,,,,,,,0,,,76,101
178560,note_on,0,0,1,,,,,,,,,0,,,88,101
178560,note_on,30,0,3,,,,,,,,,2,,,49,0
178680,note_on,0,0,3,,,,,,,,,2,,,49,88
178680,note_on,0,0,3,,,,,,,,,2,,,61,88
178680,note_on,0,0,3,,,,,,,,,2,,,52,0
178680,note_on,120,0,3,,,,,,,,,2,,,64,0
178680,note_on,120,0,1,,,,,,,,,0,,,88,0
178680,note_on,0,0,1,,,,,,,,,0,,,73,101
178680,note_on,0,0,1,,,,,,,,,0,,,85,101
178680,note_on,0,0,1,,,,,,,,,0,,,76,0
178740,note_on,0,0,3,,,,,,,,,2,,,49,0
178740,note_on,60,0,3,,,,,,,,,2,,,61,0
178740,note_on,60,0,1,,,,,,,,,0,,,85,0
178740,note_on,0,0,1,,,,,,,,,0,,,73,0
178800,note_on,60,0,3,,,,,,,,,2,,,52,88
178800,note_on,0,0,3,,,,,,,,,2,,,64,88
178800,note_on,60,0,1,,,,,,,,,0,,,76,101
178800,note_on,0,0,1,,,,,,,,,0,,,88,101
178920,note_on,0,0,3,,,,,,,,,2,,,57,88
178920,note_on,0,0,1,,,,,,,,,0,,,93,101
178920,note_on,0,0,1,,,,,,,,,0,,,81,101
178920,note_on,0,0,1,,,,,,,,,0,,,76,0
178920,note_on,120,0,1,,,,,,,,,0,,,88,0
178920,note_on,0,0,3,,,,,,,,,2,,,69,88
178920,note_on,0,0,3,,,,,,,,,2,,,52,0
178920,note_on,120,0,3,,,,,,,,,2,,,64,0
178980,note_on,0,0,1,,,,,,,,,0,,,81,0
178980,note_on,0,0,3,,,,,,,,,2,,,57,0
178980,note_on,60,0,1,,,,,,,,,0,,,93,0
178980,note_on,60,0,3,,,,,,,,,2,,,69,0
179040,note_on,0,0,3,,,,,,,,,2,,,64,88
179040,note_on,60,0,3,,,,,,,,,2,,,52,88
179040,note_on,0,0,1,,,,,,,,,0,,,88,101
179040,note_on,60,0,1,,,,,,,,,0,,,76,101
179160,note_on,0,0,3,,,,,,,,,2,,,61,88
179160,note_on,120,0,1,,,,,,,,,0,,,88,0
179160,note_on,0,0,3,,,,,,,,,2,,,52,0
179160,note_on,120,0,3,,,,,,,,,2,,,64,0
179160,note_on,0,0,3,,,,,,,,,2,,,49,88
179160,note_on,0,0,1,,,,,,,,,0,,,85,101
179160,note_on,0,0,1,,,,,,,,,0,,,73,101
179160,note_on,0,0,1,,,,,,,,,0,,,76,0
179220,note_on,60,0,1,,,,,,,,,0,,,85,0
179220,note_on,0,0,1,,,,,,,,,0,,,73,0
179220,note_on,60,0,3,,,,,,,,,2,,,61,0
179220,note_on,0,0,3,,,,,,,,,2,,,49,0
179280,note_on,60,0,1,,,,,,,,,0,,,69,101
179280,note_on,60,0,3,,,,,,,,,2,,,45,88
179280,note_on,0,0,3,,,,,,,,,2,,,57,88
179280,note_on,0,0,1,,,,,,,,,0,,,81,101
179400,note_on,120,0,3,,,,,,,,,2,,,57,0
179400,note_on,0,0,3,,,,,,,,,2,,,45,0
179400,note_on,0,0,3,,,,,,,,,2,,,40,88
179400,note_on,0,0,3,,,,,,,,,2,,,52,88
179400,note_on,0,0,1,,,,,,,,,0,,,76,101
179400,note_on,120,0,1,,,,,,,,,0,,,81,0
179400,note_on,0,0,1,,,,,,,,,0,,,69,0
179400,note_on,0,0,1,,,,,,,,,0,,,64,101
179460,note_on,0,0,3,,,,,,,,,2,,,40,0
179460,note_on,60,0,1,,,,,,,,,0,,,76,0
179460,note_on,0,0,1,,,,,,,,,0,,,64,0
179460,note_on,60,0,3,,,,,,,,,2,,,52,0
179520,note_on,0,0,1,,,,,,,,,0,,,69,49
179520,note_on,0,0,1,,,,,,,,,0,,,73,49
179520,note_on,0,0,3,,,,,,,,,2,,,52,36
179520,note_on,60,0,3,,,,,,,,,2,,,40,36
179520,note_on,60,0,1,,,,,,,,,0,,,61,49
180000,note_on,0,0,1,,,,,,,,,0,,,76,49
180000,note_on,0,0,1,,,,,,,,,0,,,61,0
180000,note_on,0,0,1,,,,,,,,,0,,,69,0
180000,note_on,0,0,1,,,,,,,,,0,,,68,49
180000,note_on,0,0,1,,,,,,,,,0,,,62,49
180000,note_on,480,0,1,,,,,,,,,0,,,73,0
180480,note_on,0,0,1,,,,,,,,,0,,,68,0
180480,note_on,0,0,3,,,,,,,,,2,,,40,88
180480,control_change,0,0,3,,,,,,,,,2,64,127,,
180480,note_on,0,0,3,,,,,,,,,2,,,40,0
180480,note_on,960,0,3,,,,,,,,,2,,,52,0
180480,note_on,480,0,1,,,,,,,,,0,,,76,0
180480,note_on,0,0,1,,,,,,,,,0,,,62,0
180480,note_on,0,0,1,,,,,,,,,0,,,64,101
180480,control_change,0,0,1,,,,,,,,,0,64,127,,
180510,note_on,0,0,3,,,,,,,,,2,,,52,88
180510,note_on,30,0,3,,,,,,,,,2,,,40,0
180510,note_on,30,0,1,,,,,,,,,0,,,64,0
180510,note_on,0,0,1,,,,,,,,,0,,,76,101
180540,note_on,0,0,3,,,,,,,,,2,,,40,88
180540,note_on,0,0,1,,,,,,,,,0,,,64,101
180540,note_on,30,0,1,,,,,,,,,0,,,76,0
180540,note_on,30,0,3,,,,,,,,,2,,,52,0
180570,note_on,0,0,3,,,,,,,,,2,,,52,88
180570,note_on,30,0,3,,,,,,,,,2,,,40,0
180570,note_on,30,0,1,,,,,,,,,0,,,64,0
180570,note_on,0,0,1,,,,,,,,,0,,,76,101
180600,note_on,0,0,1,,,,,,,,,0,,,61,101
180600,note_on,0,0,3,,,,,,,,,2,,,37,88
180600,note_on,30,0,3,,,,,,,,,2,,,52,0
180600,note_on,30,0,1,,,,,,,,,0,,,76,0
180630,note_on,30,0,1,,,,,,,,,0,,,61,0
180630,note_on,0,0,1,,,,,,,,,0,,,73,101
180630,note_on,0,0,3,,,,,,,,,2,,,49,88
180630,note_on,30,0,3,,,,,,,,,2,,,37,0
180660,note_on,30,0,1,,,,,,,,,0,,,73,0
180660,note_on,30,0,3,,,,,,,,,2,,,49,0
180660,note_on,0,0,3,,,,,,,,,2,,,37,88
180660,note_on,0,0,1,,,,,,,,,0,,,61,101
180690,note_on,30,0,1,,,,,,,,,0,,,61,0
180690,note_on,0,0,1,,,,,,,,,0,,,73,101
180690,note_on,30,0,3,,,,,,,,,2,,,37,0
180690,note_on,0,0,3,,,,,,,,,2,,,49,88
180720,note_on,0,0,1,,,,,,,,,0,,,64,101
180720,note_on,30,0,1,,,,,,,,,0,,,73,0
180720,note_on,30,0,3,,,,,,,,,2,,,49,0
180720,note_on,0,0,3,,,,,,,,,2,,,40,88
180750,note_on,30,0,3,,,,,,,,,2,,,40,0
180750,note_on,0,0,3,,,,,,,,,2,,,52,88
180750,note_on,30,0,1,,,,,,,,,0,,,64,0
180750,note_on,0,0,1,,,,,,,,,0,,,76,101
180780,note_on,30,0,3,,,,,,,,,2,,,52,0
180780,note_on,0,0,3,,,,,,,,,2,,,40,88
180780,note_on,30,0,1,,,,,,,,,0,,,76,0
180780,note_on,0,0,1,,,,,,,,,0,,,64,101
180810,note_on,30,0,1,,,,,,,,,0,,,64,0
180810,note_on,0,0,1,,,,,,,,,0,,,76,101
180810,note_on,0,0,3,,,,,,,,,2,,,52,88
180810,note_on,30,0,3,,,,,,,,,2,,,40,0
180840,note_on,0,0,3,,,,,,,,,2,,,45,88
180840,note_on,30,0,1,,,,,,,,,0,,,76,0
180840,note_on,0,0,1,,,,,,,,,0,,,69,101
180840,note_on,30,0,3,,,,,,,,,2,,,52,0
180870,note_on,30,0,1,,,,,,,,,0,,,69,0
180870,note_on,0,0,1,,,,,,,,,0,,,81,101
180870,note_on,30,0,3,,,,,,,,,2,,,45,0
180870,note_on,0,0,3,,,,,,,,,2,,,57,88
180900,note_on,30,0,1,,,,,,,,,0,,,81,0
180900,note_on,0,0,3,,,,,,,,,2,,,45,88
180900,note_on,0,0,1,,,,,,,,,0,,,69,101
180900,note_on,30,0,3,,,,,,,,,2,,,57,0
180930,note_on,30,0,3,,,,,,,,,2,,,45,0
180930,note_on,0,0,1,,,,,,,,,0,,,81,101
180930,note_on,0,0,3,,,,,,,,,2,,,57,88
180930,note_on,30,0,1,,,,,,,,,0,,,69,0
180960,note_on,30,0,1,,,,,,,,,0,,,81,0
180960,note_on,0,0,3,,,,,,,,,2,,,49,88
180960,note_on,0,0,1,,,,,,,,,0,,,73,101
180960,note_on,30,0,3,,,,,,,,,2,,,57,0
180990,note_on,0,0,3,,,,,,,,,2,,,61,88
180990,note_on,30,0,3,,,,,,,,,2,,,49,0
180990,note_on,0,0,1,,,,,,,,,0,,,85,101
180990,note_on,30,0,1,,,,,,,,,0,,,73,0
181020,note_on,0,0,3,,,,,,,,,2,,,49,88
181020,note_on,30,0,3,,,,,,,,,2,,,61,0
181020,note_on,30,0,1,,,,,,,,,0,,,85,0
181020,note_on,0,0,1,,,,,,,,,0,,,73,101
181050,note_on,0,0,3,,,,,,,,,2,,,61,88
181050,note_on,30,0,1,,,,,,,,,0,,,73,0
181050,note_on,30,0,3,,,,,,,,,2,,,49,0
181050,note_on,0,0,1,,,,,,,,,0,,,85,101
181080,note_on,30,0,1,,,,,,,,,0,,,85,0
181080,note_on,0,0,1,,,,,,,,,0,,,76,101
181080,note_on,30,0,3,,,,,,,,,2,,,61,0
181080,note_on,0,0,3,,,,,,,,,2,,,52,88
181110,note_on,30,0,1,,,,,,,,,0,,,76,0
181110,note_on,0,0,1,,,,,,,,,0,,,88,101
181110,note_on,0,0,3,,,,,,,,,2,,,64,88
181110,note_on,30,0,3,,,,,,,,,2,,,52,0
181140,note_on,30,0,1,,,,,,,,,0,,,88,0
181140,note_on,0,0,1,,,,,,,,,0,,,76,101
181140,note_on,0,0,3,,,,,,,,,2,,,52,88
181140,note_on,30,0,3,,,,,,,,,2,,,64,0
181170,note_on,30,0,3,,,,,,,,,2,,,52,0
181170,note_on,30,0,1,,,,,,,,,0,,,76,0
181170,note_on,0,0,3,,,,,,,,,2,,,64,88
181170,note_on,0,0,1,,,,,,,,,0,,,88,101
181200,note_on,0,0,3,,,,,,,,,2,,,57,101
181200,note_on,0,0,1,,,,,,,,,0,,,81,114
181200,note_on,30,0,3,,,,,,,,,2,,,64,0
181200,note_on,30,0,1,,,,,,,,,0,,,88,0
181230,note_on,0,0,3,,,,,,,,,2,,,69,101
181230,note_on,0,0,1,,,,,,,,,0,,,93,114
181230,note_on,30,0,3,,,,,,,,,2,,,57,0
181230,note_on,30,0,1,,,,,,,,,0,,,81,0
181260,note_on,30,0,1,,,,,,,,,0,,,93,0
181260,note_on,30,0,3,,,,,,,,,2,,,69,0
181260,note_on,0,0,3,,,,,,,,,2,,,57,101
181260,note_on,0,0,1,,,,,,,,,0,,,81,114
181290,note_on,30,0,3,,,,,,,,,2,,,57,0
181290,note_on,30,0,1,,,,,,,,,0,,,81,0
181290,note_on,0,0,1,,,,,,,,,0,,,93,114
181290,note_on,0,0,3,,,,,,,,,2,,,69,101
181320,note_on,30,0,1,,,,,,,,,0,,,93,0
181320,note_on,0,0,1,,,,,,,,,0,,,76,101
181320,note_on,30,0,3,,,,,,,,,2,,,69,0
181320,note_on,0,0,3,,,,,,,,,2,,,52,88
181350,note_on,30,0,3,,,,,,,,,2,,,52,0
181350,note_on,0,0,3,,,,,,,,,2,,,64,88
181350,note_on,30,0,1,,,,,,,,,0,,,76,0
181350,note_on,0,0,1,,,,,,,,,0,,,88,101
181380,note_on,0,0,3,,,,,,,,,2,,,52,88
181380,note_on,30,0,1,,,,,,,,,0,,,88,0
181380,note_on,0,0,1,,,,,,,,,0,,,76,101
181380,note_on,30,0,3,,,,,,,,,2,,,64,0
181410,note_on,0,0,1,,,,,,,,,0,,,88,101
181410,note_on,30,0,3,,,,,,,,,2,,,52,0
181410,control_change,0,0,3,,,,,,,,,2,64,0,,
181410,note_on,0,0,3,,,,,,,,,2,,,64,88
181410,note_on,30,0,1,,,,,,,,,0,,,76,0
181410,control_change,0,0,1,,,,,,,,,0,64,0,,
181440,note_on,0,0,3,,,,,,,,,2,,,40,36
181440,note_on,30,0,1,,,,,,,,,0,,,88,0
181440,note_on,0,0,1,,,,,,,,,0,,,61,49
181440,note_on,30,0,3,,,,,,,,,2,,,64,0
181440,note_on,0,0,3,,,,,,,,,2,,,52,36
181440,note_on,0,0,1,,,,,,,,,0,,,69,49
181440,note_on,0,0,1,,,,,,,,,0,,,73,49
181920,note_on,480,0,1,,,,,,,,,0,,,73,0
181920,note_on,0,0,1,,,,,,,,,0,,,76,49
181920,note_on,0,0,1,,,,,,,,,0,,,69,0
181920,note_on,0,0,1,,,,,,,,,0,,,61,0
181920,note_on,0,0,1,,,,,,,,,0,,,62,49
181920,note_on,0,0,1,,,,,,,,,0,,,68,49
182400,note_on,0,0,1,,,,,,,,,0,,,68,0
182400,note_on,0,0,1,,,,,,,,,0,,,62,0
182400,control_change,0,0,1,,,,,,,,,0,64,127,,
182400,note_on,480,0,1,,,,,,,,,0,,,76,0
182400,note_on,0,0,1,,,,,,,,,0,,,49,54
182400,note_on,960,0,3,,,,,,,,,2,,,52,0
182400,note_on,0,0,3,,,,,,,,,2,,,40,0
182400,control_change,0,0,3,,,,,,,,,2,64,127,,
182400,note_on,0,0,3,,,,,,,,,2,,,33,52
182400,note_on,0,0,3,,,,,,,,,2,,,40,57
182400,note_on,0,0,3,,,,,,,,,2,,,45,62
182400,note_on,0,0,1,,,,,,,,,0,,,61,62
182424,note_on,0,0,3,,,,,,,,,2,,,33,0
182424,note_on,0,0,1,,,,,,,,,0,,,49,0
182424,note_on,24,0,1,,,,,,,,,0,,,61,0
182424,note_on,24,0,3,,,,,,,,,2,,,45,0
182424,note_on,0,0,3,,,,,,,,,2,,,40,0
182640,note_on,216,0,1,,,,,,,,,0,,,49,36
182640,note_on,216,0,3,,,,,,,,,2,,,33,36
182640,note_on,0,0,3,,,,,,,,,2,,,40,36
182640,note_on,0,0,3,,,,,,,,,2,,,45,36
182640,note_on,0,0,1,,,,,,,,,0,,,57,36
182652,note_on,0,0,3,,,,,,,,,2,,,40,0
182652,note_on,0,0,1,,,,,,,,,0,,,49,0
182652,note_on,12,0,3,,,,,,,,,2,,,45,0
182652,note_on,0,0,3,,,,,,,,,2,,,33,0
182652,note_on,12,0,1,,,,,,,,,0,,,57,0
182760,control_change,108,0,1,,,,,,,,,0,64,0,,
182760,control_change,108,0,3,,,,,,,,,2,64,0,,
182880,note_on,0,0,1,,,,,,,,,0,,,88,62
182880,note_on,0,0,1,,,,,,,,,0,,,74,52
182880,note_on,0,0,1,,,,,,,,,0,,,80,57
182880,control_change,120,0,3,,,,,,,,,2,64,127,,
182880,note_on,0,0,3,,,,,,,,,2,,,57,52
182880,note_on,0,0,3,,,,,,,,,2,,,64,57
182880,note_on,0,0,3,,,,,,,,,2,,,71,62
182880,control_change,120,0,1,,,,,,,,,0,64,127,,
182904,note_on,24,0,3,,,,,,,,,2,,,71,0
182904,note_on,0,0,3,,,,,,,,,2,,,64,0
182904,note_on,0,0,1,,,,,,,,,0,,,74,0
182904,note_on,0,0,1,,,,,,,,,0,,,80,0
182904,note_on,24,0,1,,,,,,,,,0,,,88,0
182904,note_on,0,0,3,,,,,,,,,2,,,57,0
183120,note_on,216,0,3,,,,,,,,,2,,,57,36
183120,note_on,0,0,1,,,,,,,,,0,,,80,36
183120,note_on,216,0,1,,,,,,,,,0,,,74,36
183120,note_on,0,0,3,,,,,,,,,2,,,64,36
183120,note_on,0,0,3,,,,,,,,,2,,,71,36
183132,note_on,12,0,3,,,,,,,,,2,,,71,0
183132,note_on,0,0,3,,,,,,,,,2,,,64,0
183132,note_on,0,0,3,,,,,,,,,2,,,57,0
183132,note_on,0,0,1,,,,,,,,,0,,,74,0
183132,note_on,12,0,1,,,,,,,,,0,,,80,0
183240,control_change,108,0,1,,,,,,,,,0,64,0,,
183240,control_change,108,0,3,,,,,,,,,2,64,0,,
183360,control_change,120,0,3,,,,,,,,,2,64,127,,
183360,note_on,0,0,1,,,,,,,,,0,,,61,36
183360,note_on,0,0,1,,,,,,,,,0,,,49,36
183360,control_change,120,0,1,,,,,,,,,0,64,127,,
183360,note_on,0,0,3,,,,,,,,,2,,,33,36
183360,note_on,0,0,3,,,,,,,,,2,,,40,36
183360,note_on,0,0,3,,,,,,,,,2,,,45,36
183384,note_on,0,0,1,,,,,,,,,0,,,49,0
183384,note_on,24,0,1,,,,,,,,,0,,,61,0
183384,note_on,24,0,3,,,,,,,,,2,,,45,0
183384,note_on,0,0,3,,,,,,,,,2,,,33,0
183384,note_on,0,0,3,,,,,,,,,2,,,40,0
183600,note_on,0,0,1,,,,,,,,,0,,,57,36
183600,note_on,216,0,1,,,,,,,,,0,,,49,36
183600,note_on,0,0,3,,,,,,,,,2,,,45,36
183600,note_on,0,0,3,,,,,,,,,2,,,40,36
183600,note_on,216,0,3,,,,,,,,,2,,,33,36
183612,note_on,0,0,3,,,,,,,,,2,,,33,0
183612,note_on,12,0,1,,,,,,,,,0,,,57,0
183612,note_on,0,0,1,,,,,,,,,0,,,49,0
183612,note_on,0,0,3,,,,,,,,,2,,,40,0
183612,note_on,12,0,3,,,,,,,,,2,,,45,0
183720,control_change,108,0,1,,,,,,,,,0,64,0,,
183720,control_change,108,0,3,,,,,,,,,2,64,0,,
183840,note_on,0,0,3,,,,,,,,,2,,,57,36
183840,control_change,120,0,3,,,,,,,,,2,64,127,,
183840,control_change,120,0,1,,,,,,,,,0,64,127,,
183840,note_on,0,0,1,,,,,,,,,0,,,74,36
183840,note_on,0,0,1,,,,,,,,,0,,,80,36
183840,note_on,0,0,3,,,,,,,,,2,,,71,36
183840,note_on,0,0,3,,,,,,,,,2,,,64,36
183840,note_on,0,0,1,,,,,,,,,0,,,88,36
183864,note_on,0,0,3,,,,,,,,,2,,,64,0
183864,note_on,24,0,3,,,,,,,,,2,,,71,0
183864,note_on,24,0,1,,,,,,,,,0,,,88,0
183864,note_on,0,0,1,,,,,,,,,0,,,80,0
183864,note_on,0,0,1,,,,,,,,,0,,,74,0
183864,note_on,0,0,3,,,,,,,,,2,,,57,0
184080,note_on,0,0,1,,,,,,,,,0,,,80,36
184080,note_on,216,0,3,,,,,,,,,2,,,57,36
184080,note_on,0,0,3,,,,,,,,,2,,,64,36
184080,note_on,0,0,3,,,,,,,,,2,,,71,36
184080,note_on,216,0,1,,,,,,,,,0,,,74,36
184092,note_on,12,0,1,,,,,,,,,0,,,80,0
184092,note_on,12,0,3,,,,,,,,,2,,,71,0
184092,note_on,0,0,3,,,,,,,,,2,,,64,0
184092,note_on,0,0,3,,,,,,,,,2,,,57,0
184092,note_on,0,0,1,,,,,,,,,0,,,74,0
184200,control_change,108,0,1,,,,,,,,,0,64,0,,
184200,control_change,108,0,3,,,,,,,,,2,64,0,,
184320,control_change,120,0,1,,,,,,,,,0,64,127,,
184320,note_on,0,0,1,,,,,,,,,0,,,49,36
184320,note_on,0,0,1,,,,,,,,,0,,,61,36
184320,control_change,120,0,3,,,,,,,,,2,64,127,,
184320,note_on,0,0,3,,,,,,,,,2,,,45,36
184320,note_on,0,0,3,,,,,,,,,2,,,33,36
184320,note_on,0,0,3,,,,,,,,,2,,,40,36
184344,note_on,0,0,3,,,,,,,,,2,,,40,0
184344,note_on,0,0,1,,,,,,,,,0,,,49,0
184344,note_on,0,0,3,,,,,,,,,2,,,33,0
184344,note_on,24,0,3,,,,,,,,,2,,,45,0
184344,note_on,24,0,1,,,,,,,,,0,,,61,0
184560,note_on,0,0,3,,,,,,,,,2,,,45,36
184560,note_on,0,0,3,,,,,,,,,2,,,40,36
184560,note_on,216,0,3,,,,,,,,,2,,,33,36
184560,note_on,216,0,1,,,,,,,,,0,,,49,36
184560,note_on,0,0,1,,,,,,,,,0,,,57,36
184572,note_on,0,0,3,,,,,,,,,2,,,33,0
184572,note_on,0,0,3,,,,,,,,,2,,,40,0
184572,note_on,12,0,3,,,,,,,,,2,,,45,0
184680,note_on,0,0,1,,,,,,,,,0,,,49,0
184680,control_change,108,0,3,,,,,,,,,2,64,0,,
184680,note_on,120,0,1,,,,,,,,,0,,,57,0
184680,control_change,0,0,1,,,,,,,,,0,64,0,,
184800,control_change,120,0,3,,,,,,,,,2,64,127,,
184800,note_on,0,0,1,,,,,,,,,0,,,88,36
184800,note_on,0,0,1,,,,,,,,,0,,,80,36
184800,note_on,0,0,3,,,,,,,,,2,,,57,36
184800,control_change,120,0,1,,,,,,,,,0,64,127,,
184800,note_on,0,0,3,,,,,,,,,2,,,64,36
184800,note_on,0,0,1,,,,,,,,,0,,,74,36
184800,note_on,0,0,3,,,,,,,,,2,,,71,36
184824,note_on,24,0,1,,,,,,,,,0,,,88,0
184824,note_on,0,0,1,,,,,,,,,0,,,80,0
184824,note_on,0,0,1,,,,,,,,,0,,,74,0
184824,note_on,0,0,3,,,,,,,,,2,,,57,0
184824,note_on,24,0,3,,,,,,,,,2,,,71,0
184824,note_on,0,0,3,,,,,,,,,2,,,64,0
185040,note_on,0,0,3,,,,,,,,,2,,,64,36
185040,note_on,216,0,3,,,,,,,,,2,,,57,36
185040,note_on,216,0,1,,,,,,,,,0,,,74,36
185040,note_on,0,0,1,,,,,,,,,0,,,80,36
185040,note_on,0,0,3,,,,,,,,,2,,,71,36
185052,note_on,12,0,3,,,,,,,,,2,,,71,0
185052,note_on,0,0,3,,,,,,,,,2,,,57,0
185052,note_on,0,0,3,,,,,,,,,2,,,64,0
185160,control_change,108,0,3,,,,,,,,,2,64,0,,
185160,control_change,0,0,1,,,,,,,,,0,64,0,,
185160,note_on,0,0,1,,,,,,,,,0,,,74,0
185160,note_on,120,0,1,,,,,,,,,0,,,80,0
185280,control_change,120,0,3,,,,,,,,,2,64,127,,
185280,note_on,0,0,3,,,,,,,,,2,,,57,36
185280,note_on,0,0,3,,,,,,,,,2,,,64,36
185280,note_on,0,0,3,,,,,,,,,2,,,71,36
185280,note_on,0,0,1,,,,,,,,,0,,,88,36
185280,note_on,0,0,1,,,,,,,,,0,,,74,36
185280,note_on,0,0,1,,,,,,,,,0,,,80,36
185280,control_change,120,0,1,,,,,,,,,0,64,127,,
185304,note_on,24,0,1,,,,,,,,,0,,,88,0
185304,note_on,0,0,1,,,,,,,,,0,,,80,0
185304,note_on,0,0,1,,,,,,,,,0,,,74,0
185304,note_on,24,0,3,,,,,,,,,2,,,71,0
185304,note_on,0,0,3,,,,,,,,,2,,,64,0
185304,note_on,0,0,3,,,,,,,,,2,,,57,0
185520,note_on,216,0,1,,,,,,,,,0,,,74,36
185520,note_on,216,0,3,,,,,,,,,2,,,57,36
185520,note_on,0,0,3,,,,,,,,,2,,,64,36
185520,note_on,0,0,3,,,,,,,,,2,,,71,36
185520,note_on,0,0,1,,,,,,,,,0,,,80,36
185532,note_on,0,0,3,,,,,,,,,2,,,64,0
185532,note_on,0,0,3,,,,,,,,,2,,,57,0
185532,note_on,12,0,3,,,,,,,,,2,,,71,0
185640,note_on,0,0,1,,,,,,,,,0,,,74,0
185640,note_on,120,0,1,,,,,,,,,0,,,80,0
185640,control_change,108,0,3,,,,,,,,,2,64,0,,
185640,control_change,0,0,1,,,,,,,,,0,64,0,,
185760,note_on,0,0,1,,,,,,,,,0,,,74,36
185760,note_on,0,0,1,,,,,,,,,0,,,80,36
185760,note_on,0,0,1,,,,,,,,,0,,,88,36
185760,control_change,120,0,3,,,,,,,,,2,64,127,,
185760,control_change,120,0,1,,,,,,,,,0,64,127,,
185760,note_on,0,0,3,,,,,,,,,2,,,71,36
185760,note_on,0,0,3,,,,,,,,,2,,,64,36
185760,note_on,0,0,3,,,,,,,,,2,,,57,36
185784,note_on,0,0,1,,,,,,,,,0,,,74,0
185784,note_on,24,0,1,,,,,,,,,0,,,88,0
185784,note_on,0,0,1,,,,,,,,,0,,,80,0
185784,note_on,0,0,3,,,,,,,,,2,,,57,0
185784,note_on,0,0,3,,,,,,,,,2,,,64,0
185784,note_on,24,0,3,,,,,,,,,2,,,71,0
186000,note_on,0,0,3,,,,,,,,,2,,,71,36
186000,note_on,216,0,3,,,,,,,,,2,,,57,36
186000,note_on,0,0,3,,,,,,,,,2,,,64,36
186000,note_on,0,0,1,,,,,,,,,0,,,80,36
186000,note_on,216,0,1,,,,,,,,,0,,,74,36
186012,note_on,0,0,3,,,,,,,,,2,,,57,0
186012,note_on,12,0,3,,,,,,,,,2,,,71,0
186012,note_on,0,0,3,,,,,,,,,2,,,64,0
186120,control_change,0,0,1,,,,,,,,,0,64,0,,
186120,note_on,0,0,1,,,,,,,,,0,,,74,0
186120,note_on,120,0,1,,,,,,,,,0,,,80,0
186120,control_change,108,0,3,,,,,,,,,2,64,0,,
186240,note_on,0,0,3,,,,,,,,,2,,,61,114
186240,note_on,0,0,3,,,,,,,,,2,,,49,114
186240,control_change,120,0,3,,,,,,,,,2,64,127,,
186240,note_on,0,0,1,,,,,,,,,0,,,85,114
186240,note_on,0,0,1,,,,,,,,,0,,,73,114
186240,control_change,120,0,1,,,,,,,,,0,64,127,,
187200,note_on,960,0,3,,,,,,,,,2,,,61,0
187200,note_on,0,0,3,,,,,,,,,2,,,45,36
187200,note_on,0,0,3,,,,,,,,,2,,,49,0
187200,note_on,960,0,1,,,,,,,,,0,,,85,0
187200,note_on,0,0,1,,,,,,,,,0,,,81,49
187200,note_on,0,0,1,,,,,,,,,0,,,69,49
187200,note_on,0,0,3,,,,,,,,,2,,,57,36
187200,note_on,0,0,1,,,,,,,,,0,,,73,0
187680,control_change,480,0,3,,,,,,,,,2,64,0,,
187680,control_change,480,0,1,,,,,,,,,0,64,0,,
188160,note_on,480,0,1,,,,,,,,,0,,,81,0
188160,note_on,0,0,1,,,,,,,,,0,,,57,36
188160,note_on,0,0,1,,,,,,,,,0,,,61,36
188160,control_change,0,0,1,,,,,,,,,0,64,127,,
188160,note_on,0,0,1,,,,,,,,,0,,,69,0
188160,note_on,0,0,1,,,,,,,,,0,,,52,36
188160,note_on,0,0,1,,,,,,,,,0,,,49,36
188160,note_on,0,0,3,,,,,,,,,2,,,40,36
188160,note_on,0,0,3,,,,,,,,,2,,,33,36
188160,control_change,0,0,3,,,,,,,,,2,64,127,,
188160,note_on,0,0,3,,,,,,,,,2,,,45,0
188160,note_on,480,0,3,,,,,,,,,2,,,57,0
188160,note_on,0,0,3,,,,,,,,,2,,,45,36
188184,note_on,24,0,3,,,,,,,,,2,,,45,0
188184,note_on,0,0,3,,,,,,,,,2,,,40,0
188184,note_on,0,0,1,,,,,,,,,0,,,57,0
188184,note_on,0,0,1,,,,,,,,,0,,,52,0
188184,note_on,0,0,1,,,,,,,,,0,,,49,0
188184,note_on,24,0,1,,,,,,,,,0,,,61,0
188184,note_on,0,0,3,,,,,,,,,2,,,33,0
188220,set_tempo,59580,1,0,,,,,,425532,,,,,,,
188280,set_tempo,60,1,0,,,,,,434783,,,,,,,
188340,set_tempo,60,1,0,,,,,,444444,,,,,,,
188400,set_tempo,60,1,0,,,,,,458015,,,,,,,
188400,note_on,216,0,3,,,,,,,,,2,,,33,36
188400,note_on,0,0,1,,,,,,,,,0,,,61,36
188400,note_on,0,0,1,,,,,,,,,0,,,57,36
188400,note_on,0,0,1,,,,,,,,,0,,,52,36
188400,note_on,216,0,1,,,,,,,,,0,,,49,36
188400,note_on,0,0,3,,,,,,,,,2,,,40,36
188400,note_on,0,0,3,,,,,,,,,2,,,45,36
188424,note_on,0,0,1,,,,,,,,,0,,,57,0
188424,note_on,0,0,1,,,,,,,,,0,,,52,0
188424,note_on,0,0,1,,,,,,,,,0,,,49,0
188424,note_on,24,0,1,,,,,,,,,0,,,61,0
188424,note_on,0,0,3,,,,,,,,,2,,,40,0
188424,note_on,0,0,3,,,,,,,,,2,,,33,0
188424,note_on,24,0,3,,,,,,,,,2,,,45,0
188460,set_tempo,60,1,0,,,,,,468750,,,,,,,
188520,set_tempo,60,1,0,,,,,,480000,,,,,,,
188580,end_of_track,0,1,0,,,,,,,,,,,,,
188580,set_tempo,60,1,0,,,,,,491803,,,,,,,
188640,control_change,216,0,1,,,,,,,,,0,64,0,,
188640,note_on,0,0,1,,,,,,,,,0,,,49,36
188640,note_on,0,0,1,,,,,,,,,0,,,57,36
188640,note_on,0,0,1,,,,,,,,,0,,,61,36
188640,note_on,0,0,3,,,,,,,,,2,,,40,36
188640,note_on,0,0,3,,,,,,,,,2,,,33,36
188640,control_change,216,0,3,,,,,,,,,2,64,0,,
188640,note_on,0,0,3,,,,,,,,,2,,,45,36
188640,note_on,0,0,1,,,,,,,,,0,,,52,36
189120,note_on,480,0,3,,,,,,,,,2,,,45,0
189120,note_on,0,0,3,,,,,,,,,2,,,40,0
189120,note_on,0,0,3,,,,,,,,,2,,,33,0
189120,note_on,480,0,1,,,,,,,,,0,,,61,0
189120,note_on,0,0,1,,,,,,,,,0,,,49,0
189120,note_on,0,0,1,,,,,,,,,0,,,52,0
189120,note_on,0,0,1,,,,,,,,,0,,,57,0
190080,control_change,17280,0,2,,,,,,,,,1,64,0,,
190080,end_of_track,0,1,3,,,,,,,,,,,,,
190080,control_change,960,0,3,,,,,,,,,2,64,0,,
190080,end_of_track,0,1,2,,,,,,,,,,,,,
190080,control_change,960,0,1,,,,,,,,,0,64,0,,
190080,end_of_track,0,1,1,,,,,,,,,,,,,
190080,control_change,17400,0,4,,,,,,,,,3,64,0,,
190080,end_of_track,0,1,4,,,,,,,,,,,,,
