tick,type,time,meta,track,numerator,denominator,clocks_per_click,notated_32nd_notes_per_beat,key,tempo,port,program,channel,control,value,note,velocity
0,track_name,0,1,0,,,,,,,,,,,,,
0,track_name,0,1,1,,,,,,,,,,,,,
0,program_change,0,0,1,,,,,,,,0,0,,,,
0,control_change,0,0,1,,,,,,,,,0,7,127,,
0,control_change,0,0,1,,,,,,,,,0,10,97,,
0,midi_port,0,1,2,,,,,,,0,,,,,,
0,control_change,0,0,3,,,,,,,,,2,10,30,,
0,midi_port,0,1,1,,,,,,,0,,,,,,
0,control_change,0,0,3,,,,,,,,,2,7,127,,
0,track_name,0,1,3,,,,,,,,,,,,,
0,midi_port,0,1,3,,,,,,,0,,,,,,
0,control_change,0,0,2,,,,,,,,,1,10,97,,
0,control_change,0,0,2,,,,,,,,,1,7,127,,
0,program_change,0,0,2,,,,,,,,0,1,,,,
0,track_name,0,1,2,,,,,,,,,,,,,
0,program_change,0,0,3,,,,,,,,0,2,,,,
0,track_name,0,1,4,,,,,,,,,,,,,
0,midi_port,0,1,4,,,,,,,0,,,,,,
0,control_change,0,0,4,,,,,,,,,3,7,127,,
0,program_change,0,0,4,,,,,,,,0,3,,,,
0,text,0,1,0,,,,,,,,,,,,,
0,copyright,0,1,0,,,,,,,,,,,,,
0,set_tempo,0,1,0,,,,,,250000,,,,,,,
0,time_signature,0,1,0,2,4,24,8,,,,,,,,,
0,control_change,0,0,4,,,,,,,,,3,10,30,,
0,key_signature,0,1,0,,,,,C,,,,,,,,
120,note_on,120,0,1,,,,,,,,,0,,,76,36
180,note_on,60,0,1,,,,,,,,,0,,,76,0
180,note_on,0,0,1,,,,,,,,,0,,,77,36
240,note_on,60,0,1,,,,,,,,,0,,,77,0
240,note_on,0,0,1,,,,,,,,,0,,,76,36
240,note_on,240,0,3,,,,,,,,,2,,,60,36
300,note_on,60,0,1,,,,,,,,,0,,,76,0
300,note_on,0,0,1,,,,,,,,,0,,,64,36
360,note_on,120,0,3,,,,,,,,,2,,,60,0
360,note_on,0,0,3,,,,,,,,,2,,,59,36
360,note_on,0,0,1,,,,,,,,,0,,,74,36
360,note_on,60,0,1,,,,,,,,,0,,,64,0
420,note_on,0,0,1,,,,,,,,,0,,,64,36
420,note_on,60,0,1,,,,,,,,,0,,,74,0
480,note_on,0,0,3,,,,,,,,,2,,,57,36
480,note_on,120,0,3,,,,,,,,,2,,,59,0
480,note_on,0,0,1,,,,,,,,,0,,,72,36
480,note_on,60,0,1,,,,,,,,,0,,,64,0
540,note_on,60,0,1,,,,,,,,,0,,,72,0
540,note_on,0,0,1,,,,,,,,,0,,,64,36
600,note_on,0,0,3,,,,,,,,,2,,,62,36
600,note_on,120,0,3,,,,,,,,,2,,,57,0
600,note_on,60,0,1,,,,,,,,,0,,,64,0
600,note_on,0,0,1,,,,,,,,,0,,,71,36
660,note_on,0,0,1,,,,,,,,,0,,,64,36
660,note_on,60,0,1,,,,,,,,,0,,,71,0
720,note_on,0,0,1,,,,,,,,,0,,,71,36
720,control_change,0,0,1,,,,,,,,,0,64,127,,
720,note_on,60,0,1,,,,,,,,,0,,,64,0
720,note_on,120,0,3,,,,,,,,,2,,,62,0
720,control_change,0,0,3,,,,,,,,,2,64,127,,
720,note_on,0,0,3,,,,,,,,,2,,,60,36
780,note_on,60,0,1,,,,,,,,,0,,,71,0
780,note_on,0,0,1,,,,,,,,,0,,,69,36
840,note_on,120,0,3,,,,,,,,,2,,,60,0
840,note_on,0,0,3,,,,,,,,,2,,,57,36
840,note_on,0,0,1,,,,,,,,,0,,,64,36
840,note_on,60,0,1,,,,,,,,,0,,,69,0
900,note_on,60,0,1,,,,,,,,,0,,,64,0
900,note_on,0,0,1,,,,,,,,,0,,,69,36
960,note_on,120,0,3,,,,,,,,,2,,,57,0
960,note_on,60,0,1,,,,,,,,,0,,,69,0
960,control_change,0,0,3,,,,,,,,,2,64,0,,
960,note_on,0,0,1,,,,,,,,,0,,,72,36
960,control_change,0,0,1,,,,,,,,,0,64,0,,
960,note_on,0,0,3,,,,,,,,,2,,,56,36
1020,note_on,0,0,1,,,,,,,,,0,,,71,36
1020,note_on,60,0,1,,,,,,,,,0,,,72,0
1080,note_on,60,0,1,,,,,,,,,0,,,71,0
1080,note_on,0,0,1,,,,,,,,,0,,,64,36
1080,note_on,120,0,3,,,,,,,,,2,,,56,0
1080,note_on,0,0,3,,,,,,,,,2,,,52,36
1140,note_on,60,0,1,,,,,,,,,0,,,64,0
1140,note_on,0,0,1,,,,,,,,,0,,,72,36
1200,note_on,0,0,3,,,,,,,,,2,,,60,36
1200,note_on,120,0,3,,,,,,,,,2,,,52,0
1200,control_change,0,0,3,,,,,,,,,2,64,127,,
1200,control_change,0,0,1,,,,,,,,,0,64,127,,
1200,note_on,0,0,1,,,,,,,,,0,,,68,36
1200,note_on,60,0,1,,,,,,,,,0,,,72,0
1260,note_on,60,0,1,,,,,,,,,0,,,68,0
1260,note_on,0,0,1,,,,,,,,,0,,,69,36
1320,note_on,60,0,1,,,,,,,,,0,,,69,0
1320,note_on,0,0,1,,,,,,,,,0,,,64,36
1320,note_on,120,0,3,,,,,,,,,2,,,60,0
1320,note_on,0,0,3,,,,,,,,,2,,,57,36
1380,note_on,60,0,1,,,,,,,,,0,,,64,0
1380,note_on,0,0,1,,,,,,,,,0,,,69,36
1440,control_change,0,0,3,,,,,,,,,2,64,0,,
1440,note_on,0,0,3,,,,,,,,,2,,,56,36
1440,note_on,60,0,1,,,,,,,,,0,,,69,0
1440,control_change,0,0,1,,,,,,,,,0,64,0,,
1440,note_on,0,0,1,,,,,,,,,0,,,72,36
1440,note_on,120,0,3,,,,,,,,,2,,,57,0
1500,note_on,60,0,1,,,,,,,,,0,,,72,0
1500,note_on,0,0,1,,,,,,,,,0,,,71,36
1560,note_on,60,0,1,,,,,,,,,0,,,71,0
1560,note_on,120,0,3,,,,,,,,,2,,,56,0
1560,note_on,0,0,3,,,,,,,,,2,,,52,36
1560,note_on,0,0,1,,,,,,,,,0,,,64,36
1620,note_on,60,0,1,,,,,,,,,0,,,64,0
1620,note_on,0,0,1,,,,,,,,,0,,,71,36
1680,note_on,1680,0,2,,,,,,,,,1,,,67,36
1680,note_on,60,0,1,,,,,,,,,0,,,71,0
1680,control_change,0,0,1,,,,,,,,,0,64,127,,
1680,control_change,120,0,3,,,,,,,,,2,64,127,,
1680,note_on,0,0,1,,,,,,,,,0,,,74,36
1740,note_on,60,0,1,,,,,,,,,0,,,74,0
1740,note_on,0,0,1,,,,,,,,,0,,,72,36
1800,note_on,120,0,3,,,,,,,,,2,,,52,0
1800,note_on,0,0,1,,,,,,,,,0,,,71,36
1800,note_on,60,0,1,,,,,,,,,0,,,72,0
1800,note_on,0,0,3,,,,,,,,,2,,,50,36
1860,note_on,60,0,1,,,,,,,,,0,,,71,0
1860,control_change,0,0,1,,,,,,,,,0,64,0,,
1860,note_on,0,0,1,,,,,,,,,0,,,72,36
1860,note_on,60,0,3,,,,,,,,,2,,,50,0
1860,control_change,0,0,3,,,,,,,,,2,64,0,,
1860,note_on,0,0,3,,,,,,,,,2,,,48,36
1920,note_on,0,0,1,,,,,,,,,0,,,74,36
1920,note_on,60,0,1,,,,,,,,,0,,,72,0
1920,note_on,60,0,3,,,,,,,,,2,,,48,0
1920,note_on,0,0,3,,,,,,,,,2,,,47,36
1920,note_on,240,0,2,,,,,,,,,1,,,67,0
1980,note_on,0,0,1,,,,,,,,,0,,,67,36
1980,note_on,60,0,1,,,,,,,,,0,,,74,0
2040,note_on,120,0,3,,,,,,,,,2,,,47,0
2040,note_on,0,0,3,,,,,,,,,2,,,43,36
2040,note_on,60,0,1,,,,,,,,,0,,,67,0
2040,note_on,0,0,1,,,,,,,,,0,,,75,36
2100,note_on,60,0,1,,,,,,,,,0,,,75,0
2100,note_on,0,0,1,,,,,,,,,0,,,67,36
2160,note_on,60,0,1,,,,,,,,,0,,,67,0
2160,note_on,0,0,3,,,,,,,,,2,,,48,36
2160,note_on,120,0,3,,,,,,,,,2,,,43,0
2160,note_on,0,0,1,,,,,,,,,0,,,76,36
2220,note_on,0,0,1,,,,,,,,,0,,,67,36
2220,note_on,60,0,1,,,,,,,,,0,,,76,0
2280,note_on,0,0,3,,,,,,,,,2,,,50,36
2280,note_on,60,0,1,,,,,,,,,0,,,67,0
2280,note_on,0,0,1,,,,,,,,,0,,,77,36
2280,note_on,120,0,3,,,,,,,,,2,,,48,0
2340,note_on,60,0,1,,,,,,,,,0,,,77,0
2340,note_on,0,0,1,,,,,,,,,0,,,67,36
2400,note_on,120,0,3,,,,,,,,,2,,,50,0
2400,note_on,0,0,3,,,,,,,,,2,,,52,36
2400,note_on,60,0,1,,,,,,,,,0,,,67,0
2400,note_on,0,0,1,,,,,,,,,0,,,79,49
2460,note_on,60,0,1,,,,,,,,,0,,,79,0
2460,note_on,0,0,1,,,,,,,,,0,,,67,49
2520,note_on,60,0,1,,,,,,,,,0,,,67,0
2520,note_on,0,0,1,,,,,,,,,0,,,81,49
2520,note_on,0,0,3,,,,,,,,,2,,,53,36
2520,note_on,120,0,3,,,,,,,,,2,,,52,0
2580,note_on,0,0,1,,,,,,,,,0,,,71,49
2580,note_on,60,0,1,,,,,,,,,0,,,81,0
2640,note_on,120,0,3,,,,,,,,,2,,,53,0
2640,note_on,0,0,1,,,,,,,,,0,,,79,62
2640,note_on,60,0,1,,,,,,,,,0,,,71,0
2640,note_on,0,0,3,,,,,,,,,2,,,52,49
2700,note_on,0,0,1,,,,,,,,,0,,,72,62
2700,note_on,60,0,1,,,,,,,,,0,,,79,0
2760,note_on,0,0,1,,,,,,,,,0,,,77,62
2760,note_on,60,0,1,,,,,,,,,0,,,72,0
2760,note_on,120,0,3,,,,,,,,,2,,,52,0
2760,note_on,0,0,3,,,,,,,,,2,,,56,49
2820,note_on,0,0,1,,,,,,,,,0,,,71,62
2820,note_on,60,0,1,,,,,,,,,0,,,77,0
2880,note_on,0,0,3,,,,,,,,,2,,,57,62
2880,note_on,120,0,3,,,,,,,,,2,,,56,0
2880,note_on,60,0,1,,,,,,,,,0,,,71,0
2880,note_on,0,0,1,,,,,,,,,0,,,76,75
2940,note_on,0,0,1,,,,,,,,,0,,,72,75
2940,note_on,60,0,1,,,,,,,,,0,,,76,0
3000,note_on,120,0,3,,,,,,,,,2,,,57,0
3000,note_on,0,0,3,,,,,,,,,2,,,65,62
3000,note_on,0,0,1,,,,,,,,,0,,,74,75
3000,note_on,60,0,1,,,,,,,,,0,,,72,0
3060,note_on,0,0,1,,,,,,,,,0,,,69,75
3060,note_on,60,0,1,,,,,,,,,0,,,74,0
3120,note_on,0,0,1,,,,,,,,,0,,,72,62
3120,note_on,120,0,3,,,,,,,,,2,,,65,0
3120,note_on,0,0,3,,,,,,,,,2,,,64,49
3120,note_on,60,0,1,,,,,,,,,0,,,69,0
3180,note_on,60,0,1,,,,,,,,,0,,,72,0
3180,note_on,0,0,1,,,,,,,,,0,,,69,62
3240,note_on,60,0,1,,,,,,,,,0,,,69,0
3240,note_on,0,0,3,,,,,,,,,2,,,57,49
3240,note_on,0,0,3,,,,,,,,,2,,,53,49
3240,note_on,120,0,3,,,,,,,,,2,,,64,0
3240,note_on,0,0,1,,,,,,,,,0,,,74,62
3300,note_on,60,0,1,,,,,,,,,0,,,74,0
3300,note_on,0,0,1,,,,,,,,,0,,,69,62
3360,note_on,0,0,3,,,,,,,,,2,,,57,36
3360,note_on,60,0,1,,,,,,,,,0,,,69,0
3360,control_change,0,0,1,,,,,,,,,0,64,127,,
3360,note_on,0,0,1,,,,,,,,,0,,,76,49
3360,note_on,3360,0,4,,,,,,,,,3,,,52,64
3360,note_on,0,0,3,,,,,,,,,2,,,60,36
3360,note_on,120,0,3,,,,,,,,,2,,,57,0
3360,note_on,0,0,3,,,,,,,,,2,,,53,0
3360,control_change,0,0,3,,,,,,,,,2,64,127,,
3420,note_on,60,0,1,,,,,,,,,0,,,76,0
3420,note_on,0,0,1,,,,,,,,,0,,,64,49
3480,note_on,0,0,3,,,,,,,,,2,,,56,36
3480,control_change,0,0,3,,,,,,,,,2,64,0,,
3480,note_on,0,0,3,,,,,,,,,2,,,59,36
3480,note_on,120,0,3,,,,,,,,,2,,,60,0
3480,note_on,0,0,3,,,,,,,,,2,,,57,0
3480,note_on,60,0,1,,,,,,,,,0,,,64,0
3480,control_change,0,0,1,,,,,,,,,0,64,0,,
3480,note_on,0,0,1,,,,,,,,,0,,,76,49
3540,note_on,60,0,1,,,,,,,,,0,,,76,0
3540,note_on,0,0,1,,,,,,,,,0,,,77,49
3600,note_on,240,0,4,,,,,,,,,3,,,52,0
3600,note_on,60,0,1,,,,,,,,,0,,,77,0
3600,note_on,0,0,1,,,,,,,,,0,,,77,49
3600,note_on,0,0,3,,,,,,,,,2,,,60,36
3600,note_on,0,0,3,,,,,,,,,2,,,56,0
3600,note_on,120,0,3,,,,,,,,,2,,,59,0
3660,note_on,60,0,1,,,,,,,,,0,,,77,0
3660,note_on,0,0,1,,,,,,,,,0,,,76,49
3720,note_on,60,0,1,,,,,,,,,0,,,76,0
3720,note_on,120,0,3,,,,,,,,,2,,,60,0
3720,note_on,0,0,1,,,,,,,,,0,,,76,49
3720,note_on,0,0,3,,,,,,,,,2,,,59,36
3780,note_on,60,0,1,,,,,,,,,0,,,76,0
3780,note_on,0,0,1,,,,,,,,,0,,,74,49
3840,note_on,0,0,3,,,,,,,,,2,,,57,36
3840,note_on,60,0,1,,,,,,,,,0,,,74,0
3840,note_on,0,0,1,,,,,,,,,0,,,74,49
3840,note_on,120,0,3,,,,,,,,,2,,,59,0
3900,note_on,0,0,1,,,,,,,,,0,,,72,49
3900,note_on,60,0,1,,,,,,,,,0,,,74,0
3960,note_on,60,0,1,,,,,,,,,0,,,72,0
3960,note_on,0,0,3,,,,,,,,,2,,,62,36
3960,note_on,0,0,1,,,,,,,,,0,,,72,49
3960,note_on,120,0,3,,,,,,,,,2,,,57,0
4020,note_on,60,0,1,,,,,,,,,0,,,72,0
4020,note_on,0,0,1,,,,,,,,,0,,,71,49
4080,note_on,120,0,3,,,,,,,,,2,,,62,0
4080,control_change,0,0,3,,,,,,,,,2,64,127,,
4080,note_on,0,0,3,,,,,,,,,2,,,60,36
4080,note_on,60,0,1,,,,,,,,,0,,,71,0
4080,control_change,0,0,1,,,,,,,,,0,64,127,,
4080,note_on,0,0,1,,,,,,,,,0,,,71,49
4140,note_on,60,0,1,,,,,,,,,0,,,71,0
4140,note_on,0,0,1,,,,,,,,,0,,,69,49
4200,note_on,0,0,1,,,,,,,,,0,,,64,49
4200,note_on,60,0,1,,,,,,,,,0,,,69,0
4200,note_on,120,0,3,,,,,,,,,2,,,60,0
4200,note_on,0,0,3,,,,,,,,,2,,,57,36
4260,note_on,60,0,1,,,,,,,,,0,,,64,0
4260,note_on,0,0,1,,,,,,,,,0,,,69,49
4320,note_on,0,0,1,,,,,,,,,0,,,72,49
4320,note_on,60,0,1,,,,,,,,,0,,,69,0
4320,control_change,0,0,1,,,,,,,,,0,64,0,,
4320,note_on,0,0,3,,,,,,,,,2,,,56,36
4320,control_change,0,0,3,,,,,,,,,2,64,0,,
4320,note_on,120,0,3,,,,,,,,,2,,,57,0
4380,note_on,60,0,1,,,,,,,,,0,,,72,0
4380,note_on,0,0,1,,,,,,,,,0,,,71,49
4440,note_on,0,0,3,,,,,,,,,2,,,52,36
4440,note_on,60,0,1,,,,,,,,,0,,,71,0
4440,note_on,0,0,1,,,,,,,,,0,,,64,49
4440,note_on,120,0,3,,,,,,,,,2,,,56,0
4500,note_on,60,0,1,,,,,,,,,0,,,64,0
4500,note_on,0,0,1,,,,,,,,,0,,,71,49
4560,note_on,0,0,1,,,,,,,,,0,,,68,49
4560,note_on,0,0,3,,,,,,,,,2,,,60,36
4560,control_change,0,0,1,,,,,,,,,0,64,127,,
4560,note_on,60,0,1,,,,,,,,,0,,,71,0
4560,control_change,0,0,3,,,,,,,,,2,64,127,,
4560,note_on,120,0,3,,,,,,,,,2,,,52,0
4620,note_on,60,0,1,,,,,,,,,0,,,68,0
4620,note_on,0,0,1,,,,,,,,,0,,,69,49
4680,note_on,120,0,3,,,,,,,,,2,,,60,0
4680,note_on,0,0,3,,,,,,,,,2,,,57,36
4680,note_on,0,0,1,,,,,,,,,0,,,64,49
4680,note_on,60,0,1,,,,,,,,,0,,,69,0
4740,note_on,0,0,1,,,,,,,,,0,,,69,49
4740,note_on,60,0,1,,,,,,,,,0,,,64,0
4800,control_change,0,0,1,,,,,,,,,0,64,0,,
4800,note_on,0,0,1,,,,,,,,,0,,,72,49
4800,note_on,0,0,3,,,,,,,,,2,,,56,36
4800,control_change,0,0,3,,,,,,,,,2,64,0,,
4800,note_on,120,0,3,,,,,,,,,2,,,57,0
4800,note_on,60,0,1,,,,,,,,,0,,,69,0
4860,note_on,60,0,1,,,,,,,,,0,,,72,0
4860,note_on,0,0,1,,,,,,,,,0,,,71,49
4920,note_on,60,0,1,,,,,,,,,0,,,71,0
4920,note_on,0,0,1,,,,,,,,,0,,,64,49
4920,note_on,120,0,3,,,,,,,,,2,,,56,0
4920,note_on,0,0,3,,,,,,,,,2,,,52,62
4980,note_on,60,0,1,,,,,,,,,0,,,64,0
4980,note_on,0,0,1,,,,,,,,,0,,,71,49
5040,control_change,120,0,3,,,,,,,,,2,64,127,,
5040,note_on,3120,0,2,,,,,,,,,1,,,67,36
5040,note_on,0,0,1,,,,,,,,,0,,,74,49
5040,control_change,0,0,1,,,,,,,,,0,64,127,,
5040,note_on,60,0,1,,,,,,,,,0,,,71,0
5100,note_on,0,0,1,,,,,,,,,0,,,72,49
5100,note_on,60,0,1,,,,,,,,,0,,,74,0
5160,note_on,120,0,3,,,,,,,,,2,,,52,0
5160,note_on,0,0,1,,,,,,,,,0,,,71,49
5160,note_on,0,0,3,,,,,,,,,2,,,50,36
5160,note_on,60,0,1,,,,,,,,,0,,,72,0
5220,note_on,0,0,3,,,,,,,,,2,,,48,36
5220,note_on,60,0,3,,,,,,,,,2,,,50,0
5220,note_on,0,0,1,,,,,,,,,0,,,72,49
5220,note_on,60,0,1,,,,,,,,,0,,,71,0
5280,note_on,0,0,3,,,,,,,,,2,,,47,36
5280,note_on,240,0,2,,,,,,,,,1,,,67,0
5280,note_on,60,0,3,,,,,,,,,2,,,48,0
5280,control_change,0,0,3,,,,,,,,,2,64,0,,
5280,note_on,0,0,1,,,,,,,,,0,,,74,49
5280,control_change,0,0,1,,,,,,,,,0,64,0,,
5280,note_on,60,0,1,,,,,,,,,0,,,72,0
5340,note_on,0,0,1,,,,,,,,,0,,,67,49
5340,note_on,60,0,1,,,,,,,,,0,,,74,0
5400,note_on,120,0,3,,,,,,,,,2,,,47,0
5400,note_on,0,0,3,,,,,,,,,2,,,43,36
5400,note_on,0,0,1,,,,,,,,,0,,,75,49
5400,note_on,60,0,1,,,,,,,,,0,,,67,0
5460,note_on,0,0,1,,,,,,,,,0,,,67,49
5460,note_on,60,0,1,,,,,,,,,0,,,75,0
5520,note_on,60,0,1,,,,,,,,,0,,,67,0
5520,note_on,0,0,1,,,,,,,,,0,,,76,49
5520,note_on,120,0,3,,,,,,,,,2,,,43,0
5520,note_on,0,0,3,,,,,,,,,2,,,48,36
5580,note_on,60,0,1,,,,,,,,,0,,,76,0
5580,note_on,0,0,1,,,,,,,,,0,,,67,49
5640,note_on,120,0,3,,,,,,,,,2,,,48,0
5640,note_on,0,0,3,,,,,,,,,2,,,51,36
5640,note_on,0,0,1,,,,,,,,,0,,,78,49
5640,note_on,60,0,1,,,,,,,,,0,,,67,0
5700,note_on,0,0,1,,,,,,,,,0,,,71,49
5700,note_on,60,0,1,,,,,,,,,0,,,78,0
5760,note_on,0,0,1,,,,,,,,,0,,,79,49
5760,note_on,0,0,3,,,,,,,,,2,,,52,36
5760,note_on,120,0,3,,,,,,,,,2,,,51,0
5760,note_on,60,0,1,,,,,,,,,0,,,71,0
5820,note_on,60,0,1,,,,,,,,,0,,,79,0
5820,note_on,0,0,1,,,,,,,,,0,,,78,49
5880,note_on,60,0,1,,,,,,,,,0,,,78,0
5880,note_on,0,0,1,,,,,,,,,0,,,71,49
5880,note_on,120,0,3,,,,,,,,,2,,,52,0
5880,note_on,0,0,3,,,,,,,,,2,,,51,36
5940,note_on,0,0,1,,,,,,,,,0,,,78,49
5940,note_on,60,0,1,,,,,,,,,0,,,71,0
6000,note_on,120,0,3,,,,,,,,,2,,,51,0
6000,note_on,0,0,3,,,,,,,,,2,,,52,36
6000,note_on,0,0,1,,,,,,,,,0,,,79,49
6000,note_on,60,0,1,,,,,,,,,0,,,78,0
6060,note_on,0,0,1,,,,,,,,,0,,,71,49
6060,note_on,60,0,1,,,,,,,,,0,,,79,0
6120,note_on,0,0,3,,,,,,,,,2,,,54,36
6120,note_on,0,0,1,,,,,,,,,0,,,81,49
6120,note_on,120,0,3,,,,,,,,,2,,,52,0
6120,note_on,60,0,1,,,,,,,,,0,,,71,0
6180,note_on,60,0,1,,,,,,,,,0,,,81,0
6180,note_on,0,0,1,,,,,,,,,0,,,71,49
6240,note_on,0,0,3,,,,,,,,,2,,,55,36
6240,note_on,60,0,1,,,,,,,,,0,,,71,0
6240,note_on,0,0,1,,,,,,,,,0,,,83,49
6240,note_on,120,0,3,,,,,,,,,2,,,54,0
6300,note_on,60,0,1,,,,,,,,,0,,,83,0
6300,note_on,0,0,1,,,,,,,,,0,,,71,49
6360,note_on,0,0,3,,,,,,,,,2,,,60,36
6360,note_on,120,0,3,,,,,,,,,2,,,55,0
6360,note_on,60,0,1,,,,,,,,,0,,,71,0
6360,note_on,0,0,1,,,,,,,,,0,,,88,49
6420,note_on,60,0,1,,,,,,,,,0,,,88,0
6420,note_on,0,0,1,,,,,,,,,0,,,78,49
6480,note_on,0,0,3,,,,,,,,,2,,,59,36
6480,note_on,120,0,3,,,,,,,,,2,,,60,0
6480,note_on,60,0,1,,,,,,,,,0,,,78,0
6480,note_on,0,0,1,,,,,,,,,0,,,86,49
6540,note_on,0,0,1,,,,,,,,,0,,,79,49
6540,note_on,60,0,1,,,,,,,,,0,,,86,0
6600,note_on,120,0,3,,,,,,,,,2,,,59,0
6600,note_on,0,0,3,,,,,,,,,2,,,63,36
6600,note_on,0,0,1,,,,,,,,,0,,,84,49
6600,note_on,60,0,1,,,,,,,,,0,,,79,0
6660,note_on,0,0,1,,,,,,,,,0,,,78,49
6660,note_on,60,0,1,,,,,,,,,0,,,84,0
6720,note_on,60,0,1,,,,,,,,,0,,,78,0
6720,note_on,120,0,3,,,,,,,,,2,,,63,0
6720,note_on,0,0,1,,,,,,,,,0,,,83,49
6720,note_on,0,0,3,,,,,,,,,2,,,64,36
6780,note_on,60,0,1,,,,,,,,,0,,,83,0
6780,note_on,0,0,1,,,,,,,,,0,,,79,49
6840,note_on,60,0,1,,,,,,,,,0,,,79,0
6840,note_on,0,0,1,,,,,,,,,0,,,81,49
6840,note_on,0,0,3,,,,,,,,,2,,,53,36
6840,note_on,120,0,3,,,,,,,,,2,,,64,0
6900,note_on,60,0,1,,,,,,,,,0,,,81,0
6900,note_on,0,0,1,,,,,,,,,0,,,71,49
6960,note_on,60,0,1,,,,,,,,,0,,,71,0
6960,note_on,120,0,3,,,,,,,,,2,,,53,0
6960,note_on,0,0,1,,,,,,,,,0,,,79,49
6960,note_on,0,0,3,,,,,,,,,2,,,52,36
7020,note_on,60,0,1,,,,,,,,,0,,,79,0
7020,note_on,0,0,1,,,,,,,,,0,,,72,49
7080,note_on,0,0,3,,,,,,,,,2,,,56,36
7080,note_on,120,0,3,,,,,,,,,2,,,52,0
7080,note_on,60,0,1,,,,,,,,,0,,,72,0
7080,note_on,0,0,1,,,,,,,,,0,,,77,49
7140,note_on,60,0,1,,,,,,,,,0,,,77,0
7140,note_on,0,0,1,,,,,,,,,0,,,71,49
7200,note_on,60,0,1,,,,,,,,,0,,,71,0
7200,note_on,0,0,1,,,,,,,,,0,,,76,49
7200,note_on,120,0,3,,,,,,,,,2,,,56,0
7200,note_on,0,0,3,,,,,,,,,2,,,57,36
7260,note_on,60,0,1,,,,,,,,,0,,,76,0
7260,note_on,0,0,1,,,,,,,,,0,,,72,49
7320,note_on,0,0,3,,,,,,,,,2,,,65,36
7320,note_on,120,0,3,,,,,,,,,2,,,57,0
7320,note_on,60,0,1,,,,,,,,,0,,,72,0
7320,note_on,0,0,1,,,,,,,,,0,,,74,49
7380,note_on,0,0,1,,,,,,,,,0,,,69,49
7380,note_on,60,0,1,,,,,,,,,0,,,74,0
7440,note_on,0,0,3,,,,,,,,,2,,,64,36
7440,note_on,0,0,1,,,,,,,,,0,,,72,49
7440,note_on,60,0,1,,,,,,,,,0,,,69,0
7440,note_on,120,0,3,,,,,,,,,2,,,65,0
7500,note_on,0,0,1,,,,,,,,,0,,,69,49
7500,note_on,60,0,1,,,,,,,,,0,,,72,0
7560,note_on,120,0,3,,,,,,,,,2,,,64,0
7560,note_on,0,0,3,,,,,,,,,2,,,53,36
7560,note_on,0,0,3,,,,,,,,,2,,,57,36
7560,note_on,0,0,1,,,,,,,,,0,,,74,49
7560,note_on,60,0,1,,,,,,,,,0,,,69,0
7620,note_on,60,0,1,,,,,,,,,0,,,74,0
7620,note_on,0,0,1,,,,,,,,,0,,,69,49
7680,note_on,0,0,3,,,,,,,,,2,,,60,36
7680,note_on,120,0,3,,,,,,,,,2,,,57,0
7680,note_on,0,0,3,,,,,,,,,2,,,57,36
7680,note_on,4080,0,4,,,,,,,,,3,,,52,36
7680,note_on,60,0,1,,,,,,,,,0,,,69,0
7680,note_on,0,0,3,,,,,,,,,2,,,53,0
7680,note_on,0,0,1,,,,,,,,,0,,,76,49
7740,note_on,60,0,1,,,,,,,,,0,,,76,0
7740,note_on,0,0,1,,,,,,,,,0,,,64,49
7800,note_on,60,0,1,,,,,,,,,0,,,64,0
7800,note_on,0,0,1,,,,,,,,,0,,,76,49
7800,note_on,0,0,3,,,,,,,,,2,,,59,36
7800,note_on,0,0,3,,,,,,,,,2,,,56,36
7800,note_on,0,0,3,,,,,,,,,2,,,57,0
7800,note_on,120,0,3,,,,,,,,,2,,,60,0
7860,note_on,60,0,1,,,,,,,,,0,,,76,0
7860,note_on,0,0,1,,,,,,,,,0,,,77,49
7920,note_on,0,0,1,,,,,,,,,0,,,76,49
7920,note_on,0,0,3,,,,,,,,,2,,,56,0
7920,note_on,0,0,3,,,,,,,,,2,,,60,36
7920,note_on,60,0,1,,,,,,,,,0,,,77,0
7920,note_on,240,0,4,,,,,,,,,3,,,52,0
7920,note_on,120,0,3,,,,,,,,,2,,,59,0
7980,note_on,0,0,1,,,,,,,,,0,,,77,49
7980,note_on,60,0,1,,,,,,,,,0,,,76,0
8040,note_on,60,0,1,,,,,,,,,0,,,77,0
8040,note_on,0,0,1,,,,,,,,,0,,,74,49
8040,note_on,0,0,3,,,,,,,,,2,,,59,36
8040,note_on,120,0,3,,,,,,,,,2,,,60,0
8100,note_on,0,0,1,,,,,,,,,0,,,76,49
8100,note_on,60,0,1,,,,,,,,,0,,,74,0
8160,note_on,60,0,1,,,,,,,,,0,,,76,0
8160,note_on,0,0,3,,,,,,,,,2,,,57,36
8160,note_on,120,0,3,,,,,,,,,2,,,59,0
8160,note_on,0,0,1,,,,,,,,,0,,,72,49
8220,note_on,60,0,1,,,,,,,,,0,,,72,0
8220,note_on,0,0,1,,,,,,,,,0,,,74,49
8280,note_on,60,0,1,,,,,,,,,0,,,74,0
8280,note_on,0,0,1,,,,,,,,,0,,,71,49
8280,note_on,0,0,3,,,,,,,,,2,,,62,36
8280,note_on,120,0,3,,,,,,,,,2,,,57,0
8340,note_on,0,0,1,,,,,,,,,0,,,72,49
8340,note_on,60,0,1,,,,,,,,,0,,,71,0
8400,note_on,0,0,1,,,,,,,,,0,,,71,36
8400,control_change,0,0,1,,,,,,,,,0,64,127,,
8400,note_on,60,0,1,,,,,,,,,0,,,72,0
8400,note_on,120,0,3,,,,,,,,,2,,,62,0
8400,note_on,0,0,3,,,,,,,,,2,,,60,36
8400,control_change,0,0,3,,,,,,,,,2,64,127,,
8460,note_on,60,0,1,,,,,,,,,0,,,71,0
8460,note_on,0,0,1,,,,,,,,,0,,,69,36
8520,note_on,0,0,1,,,,,,,,,0,,,64,36
8520,note_on,0,0,4,,,,,,,,,3,,,57,36
8520,note_on,60,0,1,,,,,,,,,0,,,69,0
8520,control_change,600,0,4,,,,,,,,,3,64,127,,
8580,note_on,0,0,1,,,,,,,,,0,,,69,36
8580,note_on,60,0,1,,,,,,,,,0,,,64,0
8640,note_on,120,0,4,,,,,,,,,3,,,57,0
8640,control_change,0,0,4,,,,,,,,,3,64,0,,
8640,note_on,0,0,4,,,,,,,,,3,,,56,36
8640,note_on,60,0,1,,,,,,,,,0,,,69,0
8640,control_change,0,0,3,,,,,,,,,2,64,0,,
8640,note_on,0,0,1,,,,,,,,,0,,,72,36
8640,control_change,0,0,1,,,,,,,,,0,64,0,,
8640,note_on,240,0,3,,,,,,,,,2,,,60,0
8640,note_on,0,0,3,,,,,,,,,2,,,62,36
8700,note_on,0,0,1,,,,,,,,,0,,,71,36
8700,note_on,60,0,1,,,,,,,,,0,,,72,0
8760,note_on,0,0,1,,,,,,,,,0,,,64,36
8760,note_on,60,0,1,,,,,,,,,0,,,71,0
8760,note_on,120,0,4,,,,,,,,,3,,,56,0
8760,note_on,0,0,4,,,,,,,,,3,,,52,36
8820,note_on,60,0,1,,,,,,,,,0,,,64,0
8820,note_on,0,0,1,,,,,,,,,0,,,71,36
8880,note_on,0,0,1,,,,,,,,,0,,,68,36
8880,control_change,0,0,1,,,,,,,,,0,64,127,,
8880,control_change,0,0,3,,,,,,,,,2,64,127,,
8880,note_on,240,0,3,,,,,,,,,2,,,62,0
8880,note_on,120,0,4,,,,,,,,,3,,,52,0
8880,note_on,0,0,3,,,,,,,,,2,,,60,36
8880,note_on,60,0,1,,,,,,,,,0,,,71,0
8940,note_on,0,0,1,,,,,,,,,0,,,69,36
8940,note_on,60,0,1,,,,,,,,,0,,,68,0
9000,note_on,0,0,4,,,,,,,,,3,,,57,36
9000,note_on,0,0,1,,,,,,,,,0,,,64,36
9000,note_on,60,0,1,,,,,,,,,0,,,69,0
9000,control_change,120,0,4,,,,,,,,,3,64,127,,
9060,note_on,60,0,1,,,,,,,,,0,,,64,0
9060,note_on,0,0,1,,,,,,,,,0,,,69,36
9120,control_change,0,0,1,,,,,,,,,0,64,0,,
9120,note_on,60,0,1,,,,,,,,,0,,,69,0
9120,note_on,120,0,4,,,,,,,,,3,,,57,0
9120,control_change,0,0,4,,,,,,,,,3,64,0,,
9120,note_on,0,0,4,,,,,,,,,3,,,56,36
9120,note_on,240,0,3,,,,,,,,,2,,,60,0
9120,control_change,0,0,3,,,,,,,,,2,64,0,,
9120,note_on,0,0,1,,,,,,,,,0,,,72,36
9120,note_on,0,0,3,,,,,,,,,2,,,62,36
9180,note_on,0,0,1,,,,,,,,,0,,,71,36
9180,note_on,60,0,1,,,,,,,,,0,,,72,0
9240,note_on,120,0,4,,,,,,,,,3,,,56,0
9240,note_on,0,0,1,,,,,,,,,0,,,64,36
9240,note_on,60,0,1,,,,,,,,,0,,,71,0
9240,note_on,0,0,4,,,,,,,,,3,,,52,36
9300,note_on,0,0,1,,,,,,,,,0,,,71,36
9300,note_on,60,0,1,,,,,,,,,0,,,64,0
9360,note_on,0,0,1,,,,,,,,,0,,,71,36
9360,note_on,120,0,4,,,,,,,,,3,,,52,0
9360,control_change,0,0,1,,,,,,,,,0,64,127,,
9360,note_on,60,0,1,,,,,,,,,0,,,71,0
9360,note_on,240,0,3,,,,,,,,,2,,,62,0
9360,control_change,0,0,3,,,,,,,,,2,64,127,,
9360,note_on,0,0,3,,,,,,,,,2,,,60,36
9360,control_change,0,0,4,,,,,,,,,3,64,127,,
9420,note_on,60,0,1,,,,,,,,,0,,,71,0
9420,note_on,0,0,1,,,,,,,,,0,,,69,36
9480,note_on,60,0,1,,,,,,,,,0,,,69,0
9480,note_on,0,0,1,,,,,,,,,0,,,64,36
9480,note_on,120,0,4,,,,,,,,,3,,,57,36
9540,note_on,60,0,1,,,,,,,,,0,,,64,0
9540,note_on,0,0,1,,,,,,,,,0,,,69,36
9600,note_on,0,0,4,,,,,,,,,3,,,56,36
9600,control_change,0,0,4,,,,,,,,,3,64,0,,
9600,note_on,60,0,1,,,,,,,,,0,,,69,0
9600,control_change,0,0,1,,,,,,,,,0,64,0,,
9600,note_on,0,0,1,,,,,,,,,0,,,72,36
9600,note_on,120,0,4,,,,,,,,,3,,,57,0
9600,note_on,240,0,3,,,,,,,,,2,,,60,0
9600,note_on,0,0,3,,,,,,,,,2,,,62,36
9600,control_change,0,0,3,,,,,,,,,2,64,0,,
9660,note_on,0,0,1,,,,,,,,,0,,,71,36
9660,note_on,60,0,1,,,,,,,,,0,,,72,0
9720,note_on,0,0,4,,,,,,,,,3,,,52,36
9720,note_on,60,0,1,,,,,,,,,0,,,71,0
9720,note_on,120,0,4,,,,,,,,,3,,,56,0
9720,note_on,0,0,1,,,,,,,,,0,,,64,36
9780,note_on,60,0,1,,,,,,,,,0,,,64,0
9780,note_on,0,0,1,,,,,,,,,0,,,71,36
9840,note_on,60,0,1,,,,,,,,,0,,,71,0
9840,control_change,0,0,1,,,,,,,,,0,64,127,,
9840,note_on,0,0,1,,,,,,,,,0,,,68,36
9840,note_on,240,0,3,,,,,,,,,2,,,62,0
9840,control_change,0,0,3,,,,,,,,,2,64,127,,
9840,note_on,0,0,3,,,,,,,,,2,,,60,36
9840,control_change,0,0,4,,,,,,,,,3,64,127,,
9840,note_on,120,0,4,,,,,,,,,3,,,52,0
9900,note_on,0,0,1,,,,,,,,,0,,,69,36
9900,note_on,60,0,1,,,,,,,,,0,,,68,0
9960,note_on,60,0,1,,,,,,,,,0,,,69,0
9960,note_on,120,0,4,,,,,,,,,3,,,57,36
9960,note_on,0,0,1,,,,,,,,,0,,,64,36
10020,note_on,60,0,1,,,,,,,,,0,,,64,0
10020,note_on,0,0,1,,,,,,,,,0,,,69,36
10080,note_on,0,0,3,,,,,,,,,2,,,62,36
10080,control_change,0,0,3,,,,,,,,,2,64,0,,
10080,note_on,240,0,3,,,,,,,,,2,,,60,0
10080,control_change,0,0,1,,,,,,,,,0,64,0,,
10080,note_on,60,0,1,,,,,,,,,0,,,69,0
10080,note_on,120,0,4,,,,,,,,,3,,,57,0
10080,note_on,0,0,1,,,,,,,,,0,,,72,36
10080,note_on,0,0,4,,,,,,,,,3,,,56,36
10080,control_change,0,0,4,,,,,,,,,3,64,0,,
10140,note_on,0,0,1,,,,,,,,,0,,,71,36
10140,note_on,60,0,1,,,,,,,,,0,,,72,0
10200,note_on,60,0,1,,,,,,,,,0,,,71,0
10200,note_on,0,0,1,,,,,,,,,0,,,64,36
10200,note_on,120,0,4,,,,,,,,,3,,,56,0
10200,note_on,0,0,4,,,,,,,,,3,,,52,36
10260,note_on,60,0,1,,,,,,,,,0,,,64,0
10260,note_on,0,0,1,,,,,,,,,0,,,71,36
10320,note_on,0,0,3,,,,,,,,,2,,,60,36
10320,note_on,0,0,3,,,,,,,,,2,,,57,36
10320,note_on,0,0,1,,,,,,,,,0,,,69,36
10320,note_on,60,0,1,,,,,,,,,0,,,71,0
10320,note_on,120,0,4,,,,,,,,,3,,,52,0
10320,note_on,240,0,3,,,,,,,,,2,,,62,0
10380,note_on,0,0,1,,,,,,,,,0,,,64,36
10380,note_on,60,0,1,,,,,,,,,0,,,69,0
10440,note_on,0,0,3,,,,,,,,,2,,,62,36
10440,note_on,0,0,3,,,,,,,,,2,,,57,0
10440,note_on,120,0,3,,,,,,,,,2,,,60,0
10440,note_on,0,0,1,,,,,,,,,0,,,68,36
10440,note_on,60,0,1,,,,,,,,,0,,,64,0
10440,note_on,0,0,3,,,,,,,,,2,,,52,36
10500,note_on,0,0,1,,,,,,,,,0,,,71,36
10500,note_on,60,0,1,,,,,,,,,0,,,68,0
10560,note_on,0,0,3,,,,,,,,,2,,,60,36
10560,note_on,120,0,3,,,,,,,,,2,,,62,0
10560,note_on,0,0,3,,,,,,,,,2,,,52,0
10560,note_on,0,0,1,,,,,,,,,0,,,69,36
10560,note_on,60,0,1,,,,,,,,,0,,,71,0
10560,note_on,0,0,3,,,,,,,,,2,,,57,36
10620,note_on,0,0,1,,,,,,,,,0,,,64,36
10620,note_on,60,0,1,,,,,,,,,0,,,69,0
10680,note_on,0,0,3,,,,,,,,,2,,,57,0
10680,note_on,0,0,3,,,,,,,,,2,,,52,36
10680,note_on,0,0,3,,,,,,,,,2,,,62,36
10680,note_on,0,0,1,,,,,,,,,0,,,68,36
10680,note_on,60,0,1,,,,,,,,,0,,,64,0
10680,note_on,120,0,3,,,,,,,,,2,,,60,0
10740,note_on,60,0,1,,,,,,,,,0,,,68,0
10740,note_on,0,0,1,,,,,,,,,0,,,76,36
10800,note_on,120,0,3,,,,,,,,,2,,,62,0
10800,note_on,0,0,3,,,,,,,,,2,,,52,0
10800,note_on,0,0,3,,,,,,,,,2,,,57,36
10800,note_on,0,0,3,,,,,,,,,2,,,60,36
10800,note_on,0,0,1,,,,,,,,,0,,,69,36
10800,note_on,60,0,1,,,,,,,,,0,,,76,0
10860,note_on,60,0,1,,,,,,,,,0,,,69,0
10860,note_on,0,0,1,,,,,,,,,0,,,64,36
10920,note_on,0,0,1,,,,,,,,,0,,,68,36
10920,note_on,60,0,1,,,,,,,,,0,,,64,0
10920,note_on,0,0,3,,,,,,,,,2,,,57,0
10920,note_on,120,0,3,,,,,,,,,2,,,60,0
10920,note_on,0,0,3,,,,,,,,,2,,,52,36
10920,note_on,0,0,3,,,,,,,,,2,,,62,36
10980,note_on,0,0,1,,,,,,,,,0,,,71,36
10980,note_on,60,0,1,,,,,,,,,0,,,68,0
11040,note_on,0,0,1,,,,,,,,,0,,,69,36
11040,note_on,60,0,1,,,,,,,,,0,,,71,0
11040,note_on,120,0,3,,,,,,,,,2,,,62,0
11040,note_on,0,0,3,,,,,,,,,2,,,52,0
11040,note_on,0,0,3,,,,,,,,,2,,,57,36
11040,note_on,0,0,3,,,,,,,,,2,,,60,36
11160,note_on,120,0,1,,,,,,,,,0,,,69,0
11160,note_on,120,0,3,,,,,,,,,2,,,60,0
11160,note_on,0,0,3,,,,,,,,,2,,,57,0
11250,note_on,90,0,1,,,,,,,,,0,,,60,36
11250,note_on,90,0,3,,,,,,,,,2,,,48,36
11265,note_on,0,0,1,,,,,,,,,0,,,62,36
11265,note_on,15,0,1,,,,,,,,,0,,,60,0
11265,note_on,15,0,3,,,,,,,,,2,,,48,0
11265,note_on,0,0,3,,,,,,,,,2,,,50,36
11280,note_on,0,0,1,,,,,,,,,0,,,60,88
11280,note_on,15,0,1,,,,,,,,,0,,,62,0
11280,note_on,15,0,3,,,,,,,,,2,,,50,0
11280,note_on,0,0,3,,,,,,,,,2,,,48,75
11400,note_on,120,0,1,,,,,,,,,0,,,60,0
11400,note_on,120,0,3,,,,,,,,,2,,,48,0
11400,note_on,0,0,3,,,,,,,,,2,,,47,75
11400,note_on,0,0,1,,,,,,,,,0,,,59,88
11460,note_on,60,0,3,,,,,,,,,2,,,47,0
11460,note_on,0,0,3,,,,,,,,,2,,,45,75
11460,note_on,60,0,1,,,,,,,,,0,,,59,0
11460,note_on,0,0,1,,,,,,,,,0,,,57,88
11520,note_on,60,0,3,,,,,,,,,2,,,45,0
11520,note_on,60,0,1,,,,,,,,,0,,,57,0
11520,note_on,0,0,3,,,,,,,,,2,,,43,75
11520,note_on,0,0,1,,,,,,,,,0,,,55,88
11640,note_on,120,0,1,,,,,,,,,0,,,55,0
11640,note_on,0,0,1,,,,,,,,,0,,,64,88
11640,note_on,0,0,1,,,,,,,,,0,,,76,88
11640,note_on,120,0,3,,,,,,,,,2,,,43,0
11640,note_on,0,0,3,,,,,,,,,2,,,52,75
11640,note_on,0,0,3,,,,,,,,,2,,,40,75
11652,note_on,0,0,3,,,,,,,,,2,,,40,0
11652,note_on,12,0,3,,,,,,,,,2,,,52,0
11652,note_on,12,0,1,,,,,,,,,0,,,76,0
11652,note_on,0,0,1,,,,,,,,,0,,,64,0
11760,note_on,0,0,3,,,,,,,,,2,,,55,75
11760,note_on,108,0,3,,,,,,,,,2,,,43,75
11760,note_on,108,0,1,,,,,,,,,0,,,67,88
11760,note_on,0,0,1,,,,,,,,,0,,,79,88
12000,note_on,240,0,1,,,,,,,,,0,,,79,0
12000,note_on,0,0,1,,,,,,,,,0,,,67,0
12000,note_on,0,0,1,,,,,,,,,0,,,64,88
12000,note_on,0,0,3,,,,,,,,,2,,,52,75
12000,note_on,240,0,3,,,,,,,,,2,,,55,0
12000,note_on,0,0,3,,,,,,,,,2,,,43,0
12000,note_on,0,0,3,,,,,,,,,2,,,40,75
12000,note_on,0,0,1,,,,,,,,,0,,,76,88
12120,note_on,120,0,1,,,,,,,,,0,,,76,0
12120,note_on,0,0,1,,,,,,,,,0,,,64,0
12120,note_on,0,0,3,,,,,,,,,2,,,40,0
12120,note_on,120,0,3,,,,,,,,,2,,,52,0
12240,note_on,0,0,3,,,,,,,,,2,,,57,75
12240,note_on,0,0,3,,,,,,,,,2,,,60,75
12240,note_on,120,0,3,,,,,,,,,2,,,48,75
12240,note_on,120,0,1,,,,,,,,,0,,,81,88
12252,note_on,12,0,3,,,,,,,,,2,,,60,0
12252,note_on,0,0,3,,,,,,,,,2,,,48,0
12252,note_on,0,0,3,,,,,,,,,2,,,57,0
12360,note_on,0,0,3,,,,,,,,,2,,,57,75
12360,note_on,108,0,3,,,,,,,,,2,,,50,75
12360,note_on,0,0,3,,,,,,,,,2,,,60,75
12360,note_on,0,0,1,,,,,,,,,0,,,81,88
12360,note_on,120,0,1,,,,,,,,,0,,,81,0
12372,note_on,12,0,3,,,,,,,,,2,,,60,0
12372,note_on,0,0,3,,,,,,,,,2,,,50,0
12372,note_on,0,0,3,,,,,,,,,2,,,57,0
12420,note_on,0,0,1,,,,,,,,,0,,,81,88
12420,note_on,60,0,1,,,,,,,,,0,,,81,0
12480,note_on,0,0,3,,,,,,,,,2,,,60,75
12480,note_on,108,0,3,,,,,,,,,2,,,52,75
12480,note_on,60,0,1,,,,,,,,,0,,,81,0
12480,note_on,0,0,1,,,,,,,,,0,,,81,88
12480,note_on,0,0,3,,,,,,,,,2,,,57,75
12492,note_on,0,0,3,,,,,,,,,2,,,52,0
12492,note_on,0,0,3,,,,,,,,,2,,,57,0
12492,note_on,12,0,3,,,,,,,,,2,,,60,0
12540,note_on,60,0,1,,,,,,,,,0,,,81,0
12540,note_on,0,0,1,,,,,,,,,0,,,84,88
12600,note_on,60,0,1,,,,,,,,,0,,,84,0
12600,note_on,0,0,3,,,,,,,,,2,,,57,75
12600,note_on,0,0,1,,,,,,,,,0,,,83,88
12600,note_on,108,0,3,,,,,,,,,2,,,53,75
12600,note_on,0,0,3,,,,,,,,,2,,,60,75
12612,note_on,0,0,3,,,,,,,,,2,,,53,0
12612,note_on,12,0,3,,,,,,,,,2,,,60,0
12612,note_on,0,0,3,,,,,,,,,2,,,57,0
12660,note_on,0,0,1,,,,,,,,,0,,,81,88
12660,note_on,60,0,1,,,,,,,,,0,,,83,0
12720,note_on,108,0,3,,,,,,,,,2,,,52,75
12720,note_on,0,0,1,,,,,,,,,0,,,76,88
12720,note_on,60,0,1,,,,,,,,,0,,,81,0
12720,note_on,0,0,3,,,,,,,,,2,,,57,75
12720,note_on,0,0,3,,,,,,,,,2,,,60,75
12732,note_on,0,0,3,,,,,,,,,2,,,52,0
12732,note_on,0,0,3,,,,,,,,,2,,,57,0
12732,note_on,12,0,3,,,,,,,,,2,,,60,0
12840,note_on,0,0,1,,,,,,,,,0,,,93,114
12840,note_on,0,0,1,,,,,,,,,0,,,87,114
12840,note_on,0,0,1,,,,,,,,,0,,,81,114
12840,note_on,120,0,1,,,,,,,,,0,,,76,0
12840,note_on,0,0,3,,,,,,,,,2,,,63,101
12840,note_on,108,0,3,,,,,,,,,2,,,53,101
12840,note_on,0,0,3,,,,,,,,,2,,,57,101
12852,note_on,0,0,3,,,,,,,,,2,,,53,0
12852,note_on,0,0,3,,,,,,,,,2,,,57,0
12852,note_on,12,0,3,,,,,,,,,2,,,63,0
12960,note_on,120,0,1,,,,,,,,,0,,,93,0
12960,note_on,0,0,1,,,,,,,,,0,,,81,0
12960,note_on,0,0,1,,,,,,,,,0,,,87,0
12960,note_on,0,0,3,,,,,,,,,2,,,64,101
12960,note_on,0,0,3,,,,,,,,,2,,,56,101
12960,note_on,108,0,3,,,,,,,,,2,,,52,101
12960,note_on,0,0,1,,,,,,,,,0,,,76,114
12960,note_on,0,0,1,,,,,,,,,0,,,88,114
13170,note_on,210,0,3,,,,,,,,,2,,,53,101
13170,note_on,210,0,1,,,,,,,,,0,,,65,114
13185,note_on,0,0,1,,,,,,,,,0,,,67,114
13185,note_on,15,0,1,,,,,,,,,0,,,65,0
13185,note_on,15,0,3,,,,,,,,,2,,,53,0
13185,note_on,0,0,3,,,,,,,,,2,,,55,101
13200,note_on,0,0,1,,,,,,,,,0,,,65,114
13200,note_on,0,0,1,,,,,,,,,0,,,76,0
13200,note_on,0,0,1,,,,,,,,,0,,,88,0
13200,note_on,15,0,1,,,,,,,,,0,,,67,0
13200,note_on,0,0,3,,,,,,,,,2,,,52,0
13200,note_on,0,0,3,,,,,,,,,2,,,56,0
13200,note_on,0,0,3,,,,,,,,,2,,,53,101
13200,note_on,15,0,3,,,,,,,,,2,,,55,0
13200,note_on,0,0,3,,,,,,,,,2,,,64,0
13320,note_on,0,0,1,,,,,,,,,0,,,64,114
13320,note_on,120,0,3,,,,,,,,,2,,,53,0
13320,note_on,0,0,3,,,,,,,,,2,,,52,101
13320,note_on,120,0,1,,,,,,,,,0,,,65,0
13380,note_on,60,0,3,,,,,,,,,2,,,52,0
13380,note_on,0,0,3,,,,,,,,,2,,,50,101
13380,note_on,0,0,1,,,,,,,,,0,,,62,114
13380,note_on,60,0,1,,,,,,,,,0,,,64,0
13440,note_on,0,0,3,,,,,,,,,2,,,48,101
13440,note_on,60,0,3,,,,,,,,,2,,,50,0
13440,note_on,0,0,1,,,,,,,,,0,,,60,114
13440,note_on,60,0,1,,,,,,,,,0,,,62,0
13560,note_on,120,0,3,,,,,,,,,2,,,48,0
13560,note_on,0,0,3,,,,,,,,,2,,,45,101
13560,note_on,0,0,1,,,,,,,,,0,,,69,114
13560,note_on,0,0,3,,,,,,,,,2,,,57,101
13560,note_on,0,0,1,,,,,,,,,0,,,81,114
13560,note_on,120,0,1,,,,,,,,,0,,,60,0
13572,note_on,0,0,3,,,,,,,,,2,,,45,0
13572,note_on,12,0,1,,,,,,,,,0,,,81,0
13572,note_on,0,0,1,,,,,,,,,0,,,69,0
13572,note_on,12,0,3,,,,,,,,,2,,,57,0
13680,control_change,108,0,1,,,,,,,,,0,64,127,,
13680,note_on,0,0,1,,,,,,,,,0,,,72,114
13680,note_on,0,0,1,,,,,,,,,0,,,84,114
13680,control_change,108,0,3,,,,,,,,,2,64,127,,
13680,note_on,0,0,3,,,,,,,,,2,,,48,101
13680,note_on,0,0,3,,,,,,,,,2,,,60,101
13920,note_on,240,0,3,,,,,,,,,2,,,60,0
13920,note_on,0,0,3,,,,,,,,,2,,,48,0
13920,note_on,0,0,3,,,,,,,,,2,,,57,101
13920,note_on,240,0,1,,,,,,,,,0,,,84,0
13920,note_on,0,0,1,,,,,,,,,0,,,72,0
13920,note_on,0,0,1,,,,,,,,,0,,,69,114
13920,note_on,0,0,1,,,,,,,,,0,,,81,114
13920,note_on,0,0,3,,,,,,,,,2,,,45,101
14040,note_on,120,0,1,,,,,,,,,0,,,81,0
14040,control_change,0,0,1,,,,,,,,,0,64,0,,
14040,note_on,0,0,1,,,,,,,,,0,,,69,0
14040,note_on,0,0,3,,,,,,,,,2,,,45,0
14040,control_change,0,0,3,,,,,,,,,2,64,0,,
14040,note_on,120,0,3,,,,,,,,,2,,,57,0
14160,note_on,120,0,3,,,,,,,,,2,,,53,101
14160,note_on,0,0,3,,,,,,,,,2,,,62,101
14160,note_on,0,0,3,,,,,,,,,2,,,65,101
14160,note_on,120,0,1,,,,,,,,,0,,,86,114
14172,note_on,12,0,3,,,,,,,,,2,,,65,0
14172,note_on,0,0,3,,,,,,,,,2,,,62,0
14172,note_on,0,0,3,,,,,,,,,2,,,53,0
14280,note_on,108,0,3,,,,,,,,,2,,,55,101
14280,note_on,0,0,3,,,,,,,,,2,,,62,101
14280,note_on,0,0,3,,,,,,,,,2,,,65,101
14280,note_on,0,0,1,,,,,,,,,0,,,86,114
14280,note_on,120,0,1,,,,,,,,,0,,,86,0
14292,note_on,0,0,3,,,,,,,,,2,,,62,0
14292,note_on,0,0,3,,,,,,,,,2,,,55,0
14292,note_on,12,0,3,,,,,,,,,2,,,65,0
14340,note_on,60,0,1,,,,,,,,,0,,,86,0
14340,note_on,0,0,1,,,,,,,,,0,,,86,114
14400,note_on,60,0,1,,,,,,,,,0,,,86,0
14400,note_on,0,0,1,,,,,,,,,0,,,86,114
14400,note_on,0,0,3,,,,,,,,,2,,,65,101
14400,note_on,108,0,3,,,,,,,,,2,,,57,101
14400,note_on,0,0,3,,,,,,,,,2,,,62,101
14412,note_on,0,0,3,,,,,,,,,2,,,57,0
14412,note_on,0,0,3,,,,,,,,,2,,,62,0
14412,note_on,12,0,3,,,,,,,,,2,,,65,0
14460,note_on,0,0,1,,,,,,,,,0,,,89,114
14460,note_on,60,0,1,,,,,,,,,0,,,86,0
14520,note_on,108,0,3,,,,,,,,,2,,,58,101
14520,note_on,60,0,1,,,,,,,,,0,,,89,0
14520,note_on,0,0,3,,,,,,,,,2,,,62,101
14520,note_on,0,0,3,,,,,,,,,2,,,65,101
14520,note_on,0,0,1,,,,,,,,,0,,,88,114
14532,note_on,0,0,3,,,,,,,,,2,,,58,0
14532,note_on,0,0,3,,,,,,,,,2,,,62,0
14532,note_on,12,0,3,,,,,,,,,2,,,65,0
14580,note_on,0,0,1,,,,,,,,,0,,,86,114
14580,note_on,60,0,1,,,,,,,,,0,,,88,0
14640,note_on,108,0,3,,,,,,,,,2,,,48,101
14640,note_on,60,0,1,,,,,,,,,0,,,86,0
14640,note_on,0,0,1,,,,,,,,,0,,,81,114
14640,note_on,0,0,3,,,,,,,,,2,,,57,101
14640,note_on,0,0,3,,,,,,,,,2,,,60,101
14652,note_on,0,0,3,,,,,,,,,2,,,48,0
14652,note_on,0,0,3,,,,,,,,,2,,,57,0
14652,note_on,12,0,3,,,,,,,,,2,,,60,0
14760,note_on,0,0,3,,,,,,,,,2,,,60,101
14760,note_on,108,0,3,,,,,,,,,2,,,50,101
14760,note_on,0,0,1,,,,,,,,,0,,,81,114
14760,note_on,120,0,1,,,,,,,,,0,,,81,0
14760,note_on,0,0,3,,,,,,,,,2,,,57,101
14772,note_on,0,0,3,,,,,,,,,2,,,57,0
14772,note_on,0,0,3,,,,,,,,,2,,,50,0
14772,note_on,12,0,3,,,,,,,,,2,,,60,0
14820,note_on,0,0,1,,,,,,,,,0,,,81,114
14820,note_on,60,0,1,,,,,,,,,0,,,81,0
14880,note_on,60,0,1,,,,,,,,,0,,,81,0
14880,note_on,0,0,1,,,,,,,,,0,,,81,114
14880,note_on,108,0,3,,,,,,,,,2,,,52,101
14880,note_on,0,0,3,,,,,,,,,2,,,57,101
14880,note_on,0,0,3,,,,,,,,,2,,,60,101
14892,note_on,0,0,3,,,,,,,,,2,,,52,0
14892,note_on,0,0,3,,,,,,,,,2,,,57,0
14892,note_on,12,0,3,,,,,,,,,2,,,60,0
14940,note_on,60,0,1,,,,,,,,,0,,,81,0
14940,note_on,0,0,1,,,,,,,,,0,,,84,114
15000,note_on,0,0,3,,,,,,,,,2,,,57,101
15000,note_on,0,0,1,,,,,,,,,0,,,83,114
15000,note_on,60,0,1,,,,,,,,,0,,,84,0
15000,note_on,108,0,3,,,,,,,,,2,,,53,101
15000,note_on,0,0,3,,,,,,,,,2,,,60,101
15012,note_on,12,0,3,,,,,,,,,2,,,60,0
15012,note_on,0,0,3,,,,,,,,,2,,,57,0
15012,note_on,0,0,3,,,,,,,,,2,,,53,0
15060,note_on,60,0,1,,,,,,,,,0,,,83,0
15060,note_on,0,0,1,,,,,,,,,0,,,81,114
15120,note_on,108,0,3,,,,,,,,,2,,,52,101
15120,note_on,0,0,3,,,,,,,,,2,,,57,101
15120,note_on,0,0,3,,,,,,,,,2,,,60,101
15120,note_on,0,0,1,,,,,,,,,0,,,76,114
15120,note_on,60,0,1,,,,,,,,,0,,,81,0
15132,note_on,12,0,3,,,,,,,,,2,,,60,0
15132,note_on,0,0,3,,,,,,,,,2,,,57,0
15132,note_on,0,0,3,,,,,,,,,2,,,52,0
15240,note_on,0,0,3,,,,,,,,,2,,,62,101
15240,note_on,108,0,3,,,,,,,,,2,,,52,101
15240,note_on,0,0,3,,,,,,,,,2,,,59,101
15240,note_on,120,0,1,,,,,,,,,0,,,76,0
15240,note_on,0,0,1,,,,,,,,,0,,,80,114
15240,note_on,0,0,1,,,,,,,,,0,,,83,114
15240,note_on,0,0,1,,,,,,,,,0,,,92,114
15252,note_on,0,0,3,,,,,,,,,2,,,52,0
15252,note_on,0,0,3,,,,,,,,,2,,,59,0
15252,note_on,12,0,3,,,,,,,,,2,,,62,0
15360,note_on,0,0,3,,,,,,,,,2,,,60,101
15360,note_on,120,0,1,,,,,,,,,0,,,92,0
15360,note_on,0,0,1,,,,,,,,,0,,,83,0
15360,note_on,0,0,1,,,,,,,,,0,,,80,0
15360,note_on,0,0,1,,,,,,,,,0,,,84,114
15360,note_on,0,0,1,,,,,,,,,0,,,93,114
15360,note_on,108,0,3,,,,,,,,,2,,,57,101
15360,note_on,0,0,1,,,,,,,,,0,,,81,114
15600,note_on,0,0,3,,,,,,,,,2,,,57,0
15600,note_on,0,0,3,,,,,,,,,2,,,53,88
15600,note_on,0,0,3,,,,,,,,,2,,,41,88
15600,control_change,0,0,3,,,,,,,,,2,64,127,,
15600,note_on,240,0,3,,,,,,,,,2,,,60,0
15600,note_on,240,0,1,,,,,,,,,0,,,93,0
15600,control_change,0,0,1,,,,,,,,,0,64,127,,
15600,note_on,0,0,1,,,,,,,,,0,,,81,101
15600,note_on,0,0,1,,,,,,,,,0,,,77,101
15600,note_on,0,0,1,,,,,,,,,0,,,69,101
15600,note_on,0,0,1,,,,,,,,,0,,,81,0
15600,note_on,0,0,1,,,,,,,,,0,,,84,0
15720,note_on,0,0,1,,,,,,,,,0,,,69,101
15720,note_on,0,0,1,,,,,,,,,0,,,69,0
15720,note_on,0,0,1,,,,,,,,,0,,,77,0
15720,note_on,120,0,1,,,,,,,,,0,,,81,0
15720,note_on,0,0,1,,,,,,,,,0,,,77,101
15720,note_on,0,0,1,,,,,,,,,0,,,81,101
15780,note_on,0,0,1,,,,,,,,,0,,,77,0
15780,note_on,60,0,1,,,,,,,,,0,,,81,0
15780,note_on,0,0,1,,,,,,,,,0,,,69,0
15780,note_on,0,0,1,,,,,,,,,0,,,69,101
15780,note_on,0,0,1,,,,,,,,,0,,,77,101
15780,note_on,0,0,1,,,,,,,,,0,,,81,101
15840,note_on,0,0,3,,,,,,,,,2,,,41,0
15840,note_on,0,0,3,,,,,,,,,2,,,55,101
15840,note_on,0,0,3,,,,,,,,,2,,,43,101
15840,control_change,0,0,3,,,,,,,,,2,64,0,,
15840,note_on,0,0,1,,,,,,,,,0,,,81,114
15840,note_on,240,0,3,,,,,,,,,2,,,53,0
15840,note_on,60,0,1,,,,,,,,,0,,,81,0
15840,note_on,0,0,1,,,,,,,,,0,,,77,0
15840,note_on,0,0,1,,,,,,,,,0,,,69,0
15840,note_on,0,0,1,,,,,,,,,0,,,69,114
15840,note_on,0,0,1,,,,,,,,,0,,,77,114
15960,note_on,120,0,1,,,,,,,,,0,,,81,0
15960,note_on,0,0,1,,,,,,,,,0,,,81,114
15960,note_on,0,0,1,,,,,,,,,0,,,77,114
15960,note_on,0,0,1,,,,,,,,,0,,,69,114
15960,note_on,0,0,1,,,,,,,,,0,,,69,0
15960,note_on,0,0,1,,,,,,,,,0,,,77,0
16020,note_on,0,0,1,,,,,,,,,0,,,77,0
16020,note_on,0,0,1,,,,,,,,,0,,,69,0
16020,note_on,0,0,1,,,,,,,,,0,,,69,114
16020,note_on,0,0,1,,,,,,,,,0,,,81,114
16020,control_change,0,0,1,,,,,,,,,0,64,0,,
16020,note_on,60,0,1,,,,,,,,,0,,,81,0
16020,note_on,0,0,1,,,,,,,,,0,,,77,114
16080,note_on,0,0,3,,,,,,,,,2,,,45,101
16080,note_on,240,0,3,,,,,,,,,2,,,55,0
16080,note_on,0,0,3,,,,,,,,,2,,,43,0
16080,control_change,0,0,3,,,,,,,,,2,64,127,,
16080,note_on,0,0,3,,,,,,,,,2,,,57,101
16080,note_on,0,0,1,,,,,,,,,0,,,77,114
16080,note_on,60,0,1,,,,,,,,,0,,,81,0
16080,note_on,0,0,1,,,,,,,,,0,,,77,0
16080,note_on,0,0,1,,,,,,,,,0,,,69,0
16080,note_on,0,0,1,,,,,,,,,0,,,69,114
16080,note_on,0,0,1,,,,,,,,,0,,,81,114
16080,control_change,0,0,1,,,,,,,,,0,64,127,,
16200,note_on,120,0,1,,,,,,,,,0,,,81,0
16200,note_on,0,0,1,,,,,,,,,0,,,69,0
16200,note_on,0,0,1,,,,,,,,,0,,,77,0
16200,note_on,0,0,1,,,,,,,,,0,,,69,114
16200,note_on,0,0,1,,,,,,,,,0,,,81,114
16200,note_on,0,0,1,,,,,,,,,0,,,77,114
16260,note_on,0,0,1,,,,,,,,,0,,,81,114
16260,note_on,0,0,1,,,,,,,,,0,,,77,114
16260,note_on,0,0,1,,,,,,,,,0,,,69,114
16260,note_on,0,0,1,,,,,,,,,0,,,69,0
16260,note_on,0,0,1,,,,,,,,,0,,,77,0
16260,note_on,60,0,1,,,,,,,,,0,,,81,0
16320,note_on,0,0,3,,,,,,,,,2,,,46,101
16320,note_on,0,0,3,,,,,,,,,2,,,58,101
16320,note_on,0,0,3,,,,,,,,,2,,,45,0
16320,control_change,0,0,3,,,,,,,,,2,64,0,,
16320,note_on,240,0,3,,,,,,,,,2,,,57,0
16320,note_on,0,0,1,,,,,,,,,0,,,77,0
16320,note_on,60,0,1,,,,,,,,,0,,,81,0
16320,note_on,0,0,1,,,,,,,,,0,,,69,0
16320,note_on,0,0,1,,,,,,,,,0,,,69,114
16320,note_on,0,0,1,,,,,,,,,0,,,77,114
16320,note_on,0,0,1,,,,,,,,,0,,,81,114
16326,note_on,6,0,1,,,,,,,,,0,,,81,0
16326,note_on,0,0,1,,,,,,,,,0,,,77,0
16326,note_on,0,0,1,,,,,,,,,0,,,69,0
16380,note_on,0,0,1,,,,,,,,,0,,,81,114
16380,note_on,0,0,1,,,,,,,,,0,,,84,114
16380,control_change,54,0,1,,,,,,,,,0,64,0,,
16440,note_on,60,0,1,,,,,,,,,0,,,84,0
16440,note_on,0,0,1,,,,,,,,,0,,,81,0
16440,note_on,0,0,1,,,,,,,,,0,,,79,114
16440,note_on,0,0,1,,,,,,,,,0,,,82,114
16500,note_on,0,0,1,,,,,,,,,0,,,81,114
16500,note_on,0,0,1,,,,,,,,,0,,,77,114
16500,note_on,0,0,1,,,,,,,,,0,,,79,0
16500,note_on,60,0,1,,,,,,,,,0,,,82,0
16560,note_on,0,0,1,,,,,,,,,0,,,79,114
16560,note_on,0,0,1,,,,,,,,,0,,,76,114
16560,note_on,0,0,1,,,,,,,,,0,,,77,0
16560,note_on,60,0,1,,,,,,,,,0,,,81,0
16560,note_on,0,0,3,,,,,,,,,2,,,60,101
16560,note_on,0,0,3,,,,,,,,,2,,,48,101
16560,note_on,0,0,3,,,,,,,,,2,,,46,0
16560,note_on,240,0,3,,,,,,,,,2,,,58,0
16572,note_on,0,0,3,,,,,,,,,2,,,48,0
16572,note_on,0,0,1,,,,,,,,,0,,,76,0
16572,note_on,12,0,1,,,,,,,,,0,,,79,0
16572,note_on,12,0,3,,,,,,,,,2,,,60,0
16680,note_on,0,0,1,,,,,,,,,0,,,81,114
16680,note_on,0,0,3,,,,,,,,,2,,,55,101
16680,note_on,0,0,1,,,,,,,,,0,,,77,114
16680,note_on,108,0,1,,,,,,,,,0,,,72,114
16680,note_on,108,0,3,,,,,,,,,2,,,43,101
16692,note_on,12,0,1,,,,,,,,,0,,,81,0
16692,note_on,0,0,1,,,,,,,,,0,,,77,0
16692,note_on,0,0,1,,,,,,,,,0,,,72,0
16692,note_on,12,0,3,,,,,,,,,2,,,55,0
16692,note_on,0,0,3,,,,,,,,,2,,,43,0
16800,note_on,0,0,3,,,,,,,,,2,,,60,101
16800,note_on,108,0,3,,,,,,,,,2,,,48,101
16800,note_on,108,0,1,,,,,,,,,0,,,72,114
16800,note_on,0,0,1,,,,,,,,,0,,,76,114
16800,note_on,0,0,1,,,,,,,,,0,,,79,114
17040,control_change,0,0,3,,,,,,,,,2,64,127,,
17040,note_on,0,0,3,,,,,,,,,2,,,48,0
17040,control_change,0,0,1,,,,,,,,,0,64,127,,
17040,note_on,0,0,1,,,,,,,,,0,,,77,114
17040,note_on,0,0,1,,,,,,,,,0,,,74,114
17040,note_on,0,0,1,,,,,,,,,0,,,65,114
17040,note_on,0,0,1,,,,,,,,,0,,,72,0
17040,note_on,240,0,3,,,,,,,,,2,,,60,0
17040,note_on,0,0,1,,,,,,,,,0,,,76,0
17040,note_on,240,0,1,,,,,,,,,0,,,79,0
17040,note_on,0,0,3,,,,,,,,,2,,,50,101
17040,note_on,0,0,3,,,,,,,,,2,,,38,101
17160,note_on,120,0,1,,,,,,,,,0,,,77,0
17160,note_on,0,0,1,,,,,,,,,0,,,74,0
17160,note_on,0,0,1,,,,,,,,,0,,,65,0
17160,note_on,0,0,1,,,,,,,,,0,,,65,114
17160,note_on,0,0,1,,,,,,,,,0,,,74,114
17160,note_on,0,0,1,,,,,,,,,0,,,77,114
17220,note_on,0,0,1,,,,,,,,,0,,,65,0
17220,note_on,0,0,1,,,,,,,,,0,,,74,0
17220,note_on,60,0,1,,,,,,,,,0,,,77,0
17220,note_on,0,0,1,,,,,,,,,0,,,77,114
17220,note_on,0,0,1,,,,,,,,,0,,,65,114
17220,note_on,0,0,1,,,,,,,,,0,,,74,114
17280,note_on,60,0,1,,,,,,,,,0,,,77,0
17280,note_on,0,0,1,,,,,,,,,0,,,74,0
17280,note_on,0,0,1,,,,,,,,,0,,,65,0
17280,note_on,0,0,1,,,,,,,,,0,,,65,114
17280,note_on,0,0,1,,,,,,,,,0,,,74,114
17280,note_on,0,0,1,,,,,,,,,0,,,77,114
17280,note_on,240,0,3,,,,,,,,,2,,,50,0
17280,note_on,0,0,3,,,,,,,,,2,,,38,0
17280,note_on,0,0,3,,,,,,,,,2,,,52,101
17280,note_on,0,0,3,,,,,,,,,2,,,40,101
17280,control_change,0,0,3,,,,,,,,,2,64,0,,
17400,note_on,0,0,1,,,,,,,,,0,,,74,114
17400,note_on,0,0,1,,,,,,,,,0,,,77,114
17400,note_on,0,0,1,,,,,,,,,0,,,65,114
17400,note_on,120,0,1,,,,,,,,,0,,,77,0
17400,note_on,0,0,1,,,,,,,,,0,,,65,0
17400,note_on,0,0,1,,,,,,,,,0,,,74,0
17460,note_on,60,0,1,,,,,,,,,0,,,77,0
17460,control_change,0,0,1,,,,,,,,,0,64,0,,
17460,note_on,0,0,1,,,,,,,,,0,,,77,114
17460,note_on,0,0,1,,,,,,,,,0,,,74,114
17460,note_on,0,0,1,,,,,,,,,0,,,65,114
17460,note_on,0,0,1,,,,,,,,,0,,,65,0
17460,note_on,0,0,1,,,,,,,,,0,,,74,0
17520,note_on,0,0,1,,,,,,,,,0,,,77,114
17520,control_change,0,0,1,,,,,,,,,0,64,127,,
17520,note_on,0,0,1,,,,,,,,,0,,,74,114
17520,note_on,0,0,1,,,,,,,,,0,,,65,114
17520,note_on,0,0,1,,,,,,,,,0,,,65,0
17520,note_on,0,0,3,,,,,,,,,2,,,41,101
17520,note_on,60,0,1,,,,,,,,,0,,,77,0
17520,note_on,0,0,3,,,,,,,,,2,,,53,101
17520,note_on,0,0,1,,,,,,,,,0,,,74,0
17520,note_on,0,0,3,,,,,,,,,2,,,40,0
17520,note_on,240,0,3,,,,,,,,,2,,,52,0
17520,control_change,0,0,3,,,,,,,,,2,64,127,,
17640,note_on,0,0,1,,,,,,,,,0,,,74,0
17640,note_on,0,0,1,,,,,,,,,0,,,65,114
17640,note_on,0,0,1,,,,,,,,,0,,,74,114
17640,note_on,0,0,1,,,,,,,,,0,,,77,114
17640,note_on,0,0,1,,,,,,,,,0,,,65,0
17640,note_on,120,0,1,,,,,,,,,0,,,77,0
17700,note_on,0,0,1,,,,,,,,,0,,,65,114
17700,note_on,0,0,1,,,,,,,,,0,,,65,0
17700,note_on,0,0,1,,,,,,,,,0,,,74,0
17700,note_on,60,0,1,,,,,,,,,0,,,77,0
17700,note_on,0,0,1,,,,,,,,,0,,,77,114
17700,note_on,0,0,1,,,,,,,,,0,,,74,114
17760,note_on,60,0,1,,,,,,,,,0,,,77,0
17760,note_on,0,0,1,,,,,,,,,0,,,74,0
17760,note_on,0,0,1,,,,,,,,,0,,,65,114
17760,note_on,0,0,1,,,,,,,,,0,,,74,114
17760,note_on,0,0,1,,,,,,,,,0,,,77,114
17760,note_on,0,0,1,,,,,,,,,0,,,65,0
17760,note_on,240,0,3,,,,,,,,,2,,,53,0
17760,note_on,0,0,3,,,,,,,,,2,,,41,0
17760,note_on,0,0,3,,,,,,,,,2,,,43,101
17760,note_on,0,0,3,,,,,,,,,2,,,55,101
17764,note_on,0,0,1,,,,,,,,,0,,,65,0
17764,note_on,4,0,1,,,,,,,,,0,,,77,0
17764,note_on,0,0,1,,,,,,,,,0,,,74,0
17820,note_on,0,0,1,,,,,,,,,0,,,81,114
17820,note_on,56,0,1,,,,,,,,,0,,,77,114
17880,note_on,0,0,1,,,,,,,,,0,,,76,114
17880,note_on,60,0,1,,,,,,,,,0,,,81,0
17880,note_on,0,0,1,,,,,,,,,0,,,79,114
17880,note_on,0,0,1,,,,,,,,,0,,,77,0
17940,note_on,60,0,1,,,,,,,,,0,,,79,0
17940,note_on,0,0,1,,,,,,,,,0,,,77,114
17940,note_on,0,0,1,,,,,,,,,0,,,74,114
17940,note_on,0,0,1,,,,,,,,,0,,,76,0
18000,note_on,0,0,1,,,,,,,,,0,,,76,114
18000,control_change,0,0,1,,,,,,,,,0,64,0,,
18000,note_on,60,0,1,,,,,,,,,0,,,77,0
18000,note_on,0,0,1,,,,,,,,,0,,,74,0
18000,note_on,0,0,1,,,,,,,,,0,,,73,114
18000,note_on,240,0,3,,,,,,,,,2,,,55,0
18000,note_on,0,0,3,,,,,,,,,2,,,43,0
18000,control_change,0,0,3,,,,,,,,,2,64,0,,
18000,note_on,0,0,3,,,,,,,,,2,,,45,101
18000,note_on,0,0,3,,,,,,,,,2,,,57,101
18012,note_on,0,0,1,,,,,,,,,0,,,73,0
18012,note_on,12,0,1,,,,,,,,,0,,,76,0
18012,note_on,0,0,3,,,,,,,,,2,,,45,0
18012,note_on,12,0,3,,,,,,,,,2,,,57,0
18120,note_on,0,0,3,,,,,,,,,2,,,50,101
18120,note_on,108,0,3,,,,,,,,,2,,,38,101
18120,note_on,0,0,1,,,,,,,,,0,,,77,114
18120,note_on,0,0,1,,,,,,,,,0,,,74,114
18120,note_on,108,0,1,,,,,,,,,0,,,69,114
18132,note_on,0,0,1,,,,,,,,,0,,,69,0
18132,note_on,0,0,1,,,,,,,,,0,,,74,0
18132,note_on,0,0,3,,,,,,,,,2,,,38,0
18132,note_on,12,0,3,,,,,,,,,2,,,50,0
18132,note_on,12,0,1,,,,,,,,,0,,,77,0
18240,note_on,108,0,1,,,,,,,,,0,,,69,114
18240,note_on,0,0,1,,,,,,,,,0,,,73,114
18240,note_on,0,0,1,,,,,,,,,0,,,76,114
18240,note_on,0,0,3,,,,,,,,,2,,,57,101
18240,note_on,108,0,3,,,,,,,,,2,,,45,101
18480,note_on,0,0,3,,,,,,,,,2,,,45,101
18480,note_on,0,0,3,,,,,,,,,2,,,33,101
18480,control_change,0,0,3,,,,,,,,,2,64,127,,
18480,note_on,0,0,3,,,,,,,,,2,,,45,0
18480,note_on,240,0,3,,,,,,,,,2,,,57,0
18480,note_on,0,0,1,,,,,,,,,0,,,84,114
18480,note_on,240,0,1,,,,,,,,,0,,,76,0
18480,note_on,0,0,1,,,,,,,,,0,,,73,0
18480,note_on,0,0,1,,,,,,,,,0,,,69,0
18480,note_on,0,0,1,,,,,,,,,0,,,72,114
18480,note_on,0,0,1,,,,,,,,,0,,,81,114
18480,control_change,0,0,1,,,,,,,,,0,64,127,,
18600,note_on,0,0,1,,,,,,,,,0,,,84,114
18600,note_on,120,0,1,,,,,,,,,0,,,84,0
18600,note_on,0,0,1,,,,,,,,,0,,,81,0
18600,note_on,0,0,1,,,,,,,,,0,,,72,0
18600,note_on,0,0,1,,,,,,,,,0,,,72,114
18600,note_on,0,0,1,,,,,,,,,0,,,81,114
18660,note_on,0,0,1,,,,,,,,,0,,,84,114
18660,note_on,0,0,1,,,,,,,,,0,,,81,114
18660,note_on,0,0,1,,,,,,,,,0,,,72,114
18660,note_on,0,0,1,,,,,,,,,0,,,72,0
18660,note_on,0,0,1,,,,,,,,,0,,,81,0
18660,note_on,60,0,1,,,,,,,,,0,,,84,0
18720,note_on,0,0,3,,,,,,,,,2,,,47,101
18720,note_on,0,0,1,,,,,,,,,0,,,81,0
18720,note_on,0,0,1,,,,,,,,,0,,,72,0
18720,note_on,0,0,1,,,,,,,,,0,,,72,114
18720,note_on,0,0,1,,,,,,,,,0,,,84,114
18720,note_on,240,0,3,,,,,,,,,2,,,45,0
18720,note_on,0,0,3,,,,,,,,,2,,,33,0
18720,control_change,0,0,3,,,,,,,,,2,64,0,,
18720,note_on,0,0,3,,,,,,,,,2,,,35,101
18720,note_on,60,0,1,,,,,,,,,0,,,84,0
18720,note_on,0,0,1,,,,,,,,,0,,,81,114
18840,note_on,120,0,1,,,,,,,,,0,,,84,0
18840,note_on,0,0,1,,,,,,,,,0,,,81,0
18840,note_on,0,0,1,,,,,,,,,0,,,72,0
18840,note_on,0,0,1,,,,,,,,,0,,,72,114
18840,note_on,0,0,1,,,,,,,,,0,,,81,114
18840,note_on,0,0,1,,,,,,,,,0,,,84,114
18900,note_on,60,0,1,,,,,,,,,0,,,84,0
18900,note_on,0,0,1,,,,,,,,,0,,,81,0
18900,note_on,0,0,1,,,,,,,,,0,,,72,114
18900,note_on,0,0,1,,,,,,,,,0,,,81,114
18900,note_on,0,0,1,,,,,,,,,0,,,84,114
18900,control_change,0,0,1,,,,,,,,,0,64,0,,
18900,note_on,0,0,1,,,,,,,,,0,,,72,0
18960,note_on,60,0,1,,,,,,,,,0,,,84,0
18960,note_on,0,0,1,,,,,,,,,0,,,81,0
18960,note_on,0,0,1,,,,,,,,,0,,,72,0
18960,note_on,0,0,1,,,,,,,,,0,,,72,114
18960,note_on,0,0,1,,,,,,,,,0,,,81,114
18960,note_on,0,0,1,,,,,,,,,0,,,84,114
18960,control_change,0,0,1,,,,,,,,,0,64,127,,
18960,note_on,0,0,3,,,,,,,,,2,,,35,0
18960,control_change,0,0,3,,,,,,,,,2,64,127,,
18960,note_on,0,0,3,,,,,,,,,2,,,36,101
18960,note_on,0,0,3,,,,,,,,,2,,,48,101
18960,note_on,240,0,3,,,,,,,,,2,,,47,0
19080,note_on,0,0,1,,,,,,,,,0,,,81,114
19080,note_on,0,0,1,,,,,,,,,0,,,84,114
19080,note_on,0,0,1,,,,,,,,,0,,,72,114
19080,note_on,0,0,1,,,,,,,,,0,,,72,0
19080,note_on,0,0,1,,,,,,,,,0,,,81,0
19080,note_on,120,0,1,,,,,,,,,0,,,84,0
19140,note_on,0,0,1,,,,,,,,,0,,,81,0
19140,note_on,0,0,1,,,,,,,,,0,,,84,114
19140,note_on,0,0,1,,,,,,,,,0,,,81,114
19140,note_on,0,0,1,,,,,,,,,0,,,72,114
19140,note_on,60,0,1,,,,,,,,,0,,,84,0
19140,note_on,0,0,1,,,,,,,,,0,,,72,0
19200,note_on,0,0,1,,,,,,,,,0,,,72,0
19200,note_on,0,0,1,,,,,,,,,0,,,72,114
19200,note_on,0,0,1,,,,,,,,,0,,,81,114
19200,note_on,0,0,1,,,,,,,,,0,,,84,114
19200,note_on,0,0,1,,,,,,,,,0,,,81,0
19200,note_on,60,0,1,,,,,,,,,0,,,84,0
19200,note_on,240,0,3,,,,,,,,,2,,,48,0
19200,note_on,0,0,3,,,,,,,,,2,,,50,101
19200,note_on,0,0,3,,,,,,,,,2,,,38,101
19200,control_change,0,0,3,,,,,,,,,2,64,0,,
19200,note_on,0,0,3,,,,,,,,,2,,,36,0
19260,note_on,0,0,1,,,,,,,,,0,,,72,0
19260,note_on,60,0,1,,,,,,,,,0,,,84,0
19260,note_on,0,0,1,,,,,,,,,0,,,81,0
19260,note_on,0,0,1,,,,,,,,,0,,,84,114
19260,note_on,0,0,1,,,,,,,,,0,,,88,114
19320,note_on,0,0,1,,,,,,,,,0,,,83,114
19320,note_on,0,0,1,,,,,,,,,0,,,84,0
19320,note_on,0,0,1,,,,,,,,,0,,,86,114
19320,note_on,60,0,1,,,,,,,,,0,,,88,0
19380,note_on,0,0,1,,,,,,,,,0,,,81,114
19380,note_on,60,0,1,,,,,,,,,0,,,86,0
19380,note_on,0,0,1,,,,,,,,,0,,,83,0
19380,control_change,0,0,1,,,,,,,,,0,64,0,,
19380,note_on,0,0,1,,,,,,,,,0,,,84,114
19440,note_on,0,0,1,,,,,,,,,0,,,80,114
19440,note_on,0,0,3,,,,,,,,,2,,,40,101
19440,note_on,0,0,3,,,,,,,,,2,,,52,101
19440,note_on,0,0,1,,,,,,,,,0,,,83,114
19440,note_on,0,0,3,,,,,,,,,2,,,38,0
19440,note_on,240,0,3,,,,,,,,,2,,,50,0
19440,note_on,60,0,1,,,,,,,,,0,,,84,0
19440,note_on,0,0,1,,,,,,,,,0,,,81,0
19452,note_on,12,0,1,,,,,,,,,0,,,83,0
19452,note_on,0,0,1,,,,,,,,,0,,,80,0
19452,note_on,0,0,3,,,,,,,,,2,,,40,0
19452,note_on,12,0,3,,,,,,,,,2,,,52,0
19560,note_on,108,0,3,,,,,,,,,2,,,45,101
19560,note_on,108,0,1,,,,,,,,,0,,,76,114
19560,note_on,0,0,1,,,,,,,,,0,,,81,114
19560,note_on,0,0,1,,,,,,,,,0,,,84,114
19560,note_on,0,0,3,,,,,,,,,2,,,57,101
19572,note_on,12,0,3,,,,,,,,,2,,,57,0
19572,note_on,0,0,1,,,,,,,,,0,,,76,0
19572,note_on,0,0,1,,,,,,,,,0,,,81,0
19572,note_on,12,0,1,,,,,,,,,0,,,84,0
19572,note_on,0,0,3,,,,,,,,,2,,,45,0
19680,note_on,0,0,1,,,,,,,,,0,,,80,114
19680,note_on,108,0,1,,,,,,,,,0,,,76,114
19680,note_on,0,0,3,,,,,,,,,2,,,52,101
19680,note_on,108,0,3,,,,,,,,,2,,,40,101
19680,note_on,0,0,1,,,,,,,,,0,,,83,114
19692,note_on,0,0,1,,,,,,,,,0,,,80,0
19692,note_on,0,0,3,,,,,,,,,2,,,40,0
19692,note_on,0,0,1,,,,,,,,,0,,,76,0
19692,note_on,12,0,1,,,,,,,,,0,,,83,0
19692,note_on,12,0,3,,,,,,,,,2,,,52,0
19800,note_on,108,0,1,,,,,,,,,0,,,76,114
19800,note_on,0,0,1,,,,,,,,,0,,,81,114
19800,note_on,0,0,1,,,,,,,,,0,,,84,114
19800,note_on,108,0,3,,,,,,,,,2,,,45,101
19800,note_on,0,0,3,,,,,,,,,2,,,57,101
19812,note_on,12,0,3,,,,,,,,,2,,,57,0
19812,note_on,0,0,3,,,,,,,,,2,,,45,0
19812,note_on,12,0,1,,,,,,,,,0,,,84,0
19812,note_on,0,0,1,,,,,,,,,0,,,76,0
19812,note_on,0,0,1,,,,,,,,,0,,,81,0
19920,note_on,0,0,1,,,,,,,,,0,,,71,49
19920,control_change,108,0,1,,,,,,,,,0,64,127,,
19920,control_change,108,0,3,,,,,,,,,2,64,127,,
19920,note_on,0,0,3,,,,,,,,,2,,,56,36
19920,note_on,0,0,3,,,,,,,,,2,,,52,36
19980,note_on,0,0,1,,,,,,,,,0,,,64,49
19980,note_on,60,0,1,,,,,,,,,0,,,71,0
20040,control_change,0,0,3,,,,,,,,,2,64,0,,
20040,note_on,0,0,3,,,,,,,,,2,,,52,0
20040,note_on,60,0,1,,,,,,,,,0,,,64,0
20040,note_on,0,0,1,,,,,,,,,0,,,72,49
20040,note_on,120,0,3,,,,,,,,,2,,,56,0
20040,note_on,0,0,3,,,,,,,,,2,,,57,36
20040,note_on,0,0,3,,,,,,,,,2,,,48,36
20100,note_on,60,0,1,,,,,,,,,0,,,72,0
20100,control_change,0,0,1,,,,,,,,,0,64,0,,
20100,note_on,0,0,1,,,,,,,,,0,,,64,49
20160,note_on,60,0,1,,,,,,,,,0,,,64,0
20160,control_change,0,0,1,,,,,,,,,0,64,127,,
20160,note_on,0,0,1,,,,,,,,,0,,,71,49
20160,control_change,0,0,3,,,,,,,,,2,64,127,,
20160,note_on,0,0,3,,,,,,,,,2,,,52,36
20160,note_on,0,0,3,,,,,,,,,2,,,56,36
20160,note_on,0,0,3,,,,,,,,,2,,,48,0
20160,note_on,120,0,3,,,,,,,,,2,,,57,0
20220,note_on,0,0,1,,,,,,,,,0,,,64,49
20220,note_on,60,0,1,,,,,,,,,0,,,71,0
20280,note_on,0,0,1,,,,,,,,,0,,,72,49
20280,note_on,60,0,1,,,,,,,,,0,,,64,0
20280,note_on,0,0,3,,,,,,,,,2,,,57,36
20280,note_on,120,0,3,,,,,,,,,2,,,56,0
20280,note_on,0,0,3,,,,,,,,,2,,,52,0
20280,control_change,0,0,3,,,,,,,,,2,64,0,,
20280,note_on,0,0,3,,,,,,,,,2,,,48,36
20340,note_on,60,0,1,,,,,,,,,0,,,72,0
20340,control_change,0,0,1,,,,,,,,,0,64,0,,
20340,note_on,0,0,1,,,,,,,,,0,,,64,49
20400,note_on,0,0,1,,,,,,,,,0,,,83,114
20400,note_on,0,0,1,,,,,,,,,0,,,80,109
20400,note_on,0,0,1,,,,,,,,,0,,,76,104
20400,note_on,60,0,1,,,,,,,,,0,,,64,0
20400,note_on,0,0,3,,,,,,,,,2,,,40,93
20400,note_on,120,0,3,,,,,,,,,2,,,57,0
20400,note_on,0,0,3,,,,,,,,,2,,,52,101
20400,note_on,0,0,3,,,,,,,,,2,,,48,0
20412,note_on,0,0,3,,,,,,,,,2,,,40,0
20412,note_on,12,0,1,,,,,,,,,0,,,83,0
20412,note_on,0,0,1,,,,,,,,,0,,,76,0
20412,note_on,0,0,1,,,,,,,,,0,,,80,0
20412,note_on,12,0,3,,,,,,,,,2,,,52,0
20520,note_on,108,0,1,,,,,,,,,0,,,76,104
20520,note_on,0,0,1,,,,,,,,,0,,,84,114
20520,note_on,0,0,3,,,,,,,,,2,,,57,101
20520,note_on,108,0,3,,,,,,,,,2,,,45,93
20520,note_on,0,0,1,,,,,,,,,0,,,81,109
20532,note_on,12,0,1,,,,,,,,,0,,,84,0
20532,note_on,0,0,1,,,,,,,,,0,,,81,0
20532,note_on,0,0,1,,,,,,,,,0,,,76,0
20532,note_on,0,0,3,,,,,,,,,2,,,45,0
20532,note_on,12,0,3,,,,,,,,,2,,,57,0
20640,note_on,108,0,1,,,,,,,,,0,,,76,104
20640,note_on,0,0,1,,,,,,,,,0,,,80,109
20640,note_on,0,0,1,,,,,,,,,0,,,83,114
20640,note_on,108,0,3,,,,,,,,,2,,,40,93
20640,note_on,0,0,3,,,,,,,,,2,,,52,101
20652,note_on,12,0,3,,,,,,,,,2,,,52,0
20652,note_on,0,0,1,,,,,,,,,0,,,76,0
20652,note_on,0,0,1,,,,,,,,,0,,,80,0
20652,note_on,12,0,1,,,,,,,,,0,,,83,0
20652,note_on,0,0,3,,,,,,,,,2,,,40,0
20760,note_on,108,0,3,,,,,,,,,2,,,45,93
20760,note_on,0,0,3,,,,,,,,,2,,,57,101
20760,note_on,0,0,1,,,,,,,,,0,,,81,109
20760,note_on,0,0,1,,,,,,,,,0,,,84,114
20760,note_on,108,0,1,,,,,,,,,0,,,76,104
20772,note_on,0,0,1,,,,,,,,,0,,,76,0
20772,note_on,12,0,3,,,,,,,,,2,,,57,0
20772,note_on,0,0,3,,,,,,,,,2,,,45,0
20772,note_on,12,0,1,,,,,,,,,0,,,84,0
20772,note_on,0,0,1,,,,,,,,,0,,,81,0
20880,control_change,108,0,1,,,,,,,,,0,64,127,,
20880,note_on,0,0,3,,,,,,,,,2,,,56,36
20880,note_on,0,0,3,,,,,,,,,2,,,52,36
20880,control_change,108,0,3,,,,,,,,,2,64,127,,
20880,note_on,0,0,1,,,,,,,,,0,,,71,49
20940,note_on,60,0,1,,,,,,,,,0,,,71,0
20940,note_on,0,0,1,,,,,,,,,0,,,64,49
21000,note_on,0,0,3,,,,,,,,,2,,,48,36
21000,note_on,60,0,1,,,,,,,,,0,,,64,0
21000,note_on,0,0,1,,,,,,,,,0,,,72,49
21000,note_on,120,0,3,,,,,,,,,2,,,56,0
21000,note_on,0,0,3,,,,,,,,,2,,,57,36
21000,control_change,0,0,3,,,,,,,,,2,64,0,,
21000,note_on,0,0,3,,,,,,,,,2,,,52,0
21060,note_on,60,0,1,,,,,,,,,0,,,72,0
21060,control_change,0,0,1,,,,,,,,,0,64,0,,
21060,note_on,0,0,1,,,,,,,,,0,,,64,49
21120,note_on,0,0,1,,,,,,,,,0,,,71,49
21120,note_on,60,0,1,,,,,,,,,0,,,64,0
21120,control_change,0,0,1,,,,,,,,,0,64,127,,
21120,note_on,0,0,3,,,,,,,,,2,,,52,36
21120,control_change,0,0,3,,,,,,,,,2,64,127,,
21120,note_on,0,0,3,,,,,,,,,2,,,48,0
21120,note_on,120,0,3,,,,,,,,,2,,,57,0
21120,note_on,0,0,3,,,,,,,,,2,,,56,36
21180,note_on,0,0,1,,,,,,,,,0,,,64,49
21180,note_on,60,0,1,,,,,,,,,0,,,71,0
21240,note_on,0,0,3,,,,,,,,,2,,,52,0
21240,note_on,0,0,1,,,,,,,,,0,,,72,49
21240,note_on,60,0,1,,,,,,,,,0,,,64,0
21240,note_on,120,0,3,,,,,,,,,2,,,56,0
21240,control_change,0,0,3,,,,,,,,,2,64,0,,
21240,note_on,0,0,3,,,,,,,,,2,,,48,36
21240,note_on,0,0,3,,,,,,,,,2,,,57,36
21300,control_change,0,0,1,,,,,,,,,0,64,0,,
21300,note_on,60,0,1,,,,,,,,,0,,,72,0
21300,note_on,0,0,1,,,,,,,,,0,,,64,49
21360,control_change,0,0,3,,,,,,,,,2,64,127,,
21360,note_on,60,0,1,,,,,,,,,0,,,64,0
21360,note_on,11040,0,4,,,,,,,,,3,,,52,36
21360,note_on,120,0,3,,,,,,,,,2,,,57,0
21360,note_on,0,0,3,,,,,,,,,2,,,56,36
21360,note_on,0,0,1,,,,,,,,,0,,,71,49
21360,note_on,0,0,3,,,,,,,,,2,,,48,0
21360,control_change,0,0,1,,,,,,,,,0,64,127,,
21420,note_on,0,0,1,,,,,,,,,0,,,72,49
21420,note_on,60,0,1,,,,,,,,,0,,,71,0
21480,note_on,120,0,3,,,,,,,,,2,,,56,0
21480,note_on,0,0,3,,,,,,,,,2,,,57,36
21480,note_on,60,0,1,,,,,,,,,0,,,72,0
21480,note_on,0,0,1,,,,,,,,,0,,,72,49
21540,note_on,0,0,1,,,,,,,,,0,,,74,49
21540,note_on,60,0,1,,,,,,,,,0,,,72,0
21600,note_on,0,0,3,,,,,,,,,2,,,59,36
21600,control_change,0,0,3,,,,,,,,,2,64,0,,
21600,note_on,0,0,1,,,,,,,,,0,,,74,49
21600,control_change,0,0,1,,,,,,,,,0,64,0,,
21600,note_on,60,0,1,,,,,,,,,0,,,74,0
21600,note_on,120,0,3,,,,,,,,,2,,,57,0
21660,note_on,60,0,1,,,,,,,,,0,,,74,0
21660,note_on,0,0,1,,,,,,,,,0,,,76,49
21720,note_on,120,0,3,,,,,,,,,2,,,59,0
21720,note_on,0,0,3,,,,,,,,,2,,,62,36
21720,note_on,360,0,4,,,,,,,,,3,,,52,0
21720,note_on,0,0,1,,,,,,,,,0,,,76,49
21720,note_on,60,0,1,,,,,,,,,0,,,76,0
21780,note_on,0,0,1,,,,,,,,,0,,,77,49
21780,note_on,60,0,1,,,,,,,,,0,,,76,0
21840,note_on,0,0,1,,,,,,,,,0,,,76,49
21840,note_on,60,0,1,,,,,,,,,0,,,77,0
21840,note_on,120,0,3,,,,,,,,,2,,,62,0
21840,note_on,0,0,3,,,,,,,,,2,,,60,36
21900,note_on,0,0,1,,,,,,,,,0,,,64,49
21900,note_on,60,0,1,,,,,,,,,0,,,76,0
21960,note_on,0,0,3,,,,,,,,,2,,,59,36
21960,note_on,120,0,3,,,,,,,,,2,,,60,0
21960,note_on,60,0,1,,,,,,,,,0,,,64,0
21960,note_on,0,0,1,,,,,,,,,0,,,74,49
22020,note_on,0,0,1,,,,,,,,,0,,,64,49
22020,note_on,60,0,1,,,,,,,,,0,,,74,0
22080,note_on,120,0,3,,,,,,,,,2,,,59,0
22080,note_on,0,0,3,,,,,,,,,2,,,57,36
22080,note_on,60,0,1,,,,,,,,,0,,,64,0
22080,note_on,0,0,1,,,,,,,,,0,,,72,49
22140,note_on,0,0,1,,,,,,,,,0,,,64,49
22140,note_on,60,0,1,,,,,,,,,0,,,72,0
22200,note_on,0,0,3,,,,,,,,,2,,,62,36
22200,note_on,60,0,1,,,,,,,,,0,,,64,0
22200,note_on,0,0,1,,,,,,,,,0,,,71,49
22200,note_on,120,0,3,,,,,,,,,2,,,57,0
22260,note_on,60,0,1,,,,,,,,,0,,,71,0
22260,note_on,0,0,1,,,,,,,,,0,,,64,49
22320,note_on,0,0,3,,,,,,,,,2,,,60,36
22320,control_change,0,0,3,,,,,,,,,2,64,127,,
22320,note_on,0,0,1,,,,,,,,,0,,,71,49
22320,control_change,0,0,1,,,,,,,,,0,64,127,,
22320,note_on,120,0,3,,,,,,,,,2,,,62,0
22320,note_on,60,0,1,,,,,,,,,0,,,64,0
22380,note_on,60,0,1,,,,,,,,,0,,,71,0
22380,note_on,0,0,1,,,,,,,,,0,,,69,49
22440,note_on,0,0,3,,,,,,,,,2,,,57,36
22440,note_on,60,0,1,,,,,,,,,0,,,69,0
22440,note_on,120,0,3,,,,,,,,,2,,,60,0
22440,note_on,0,0,1,,,,,,,,,0,,,64,49
22500,note_on,0,0,1,,,,,,,,,0,,,69,49
22500,note_on,60,0,1,,,,,,,,,0,,,64,0
22560,control_change,0,0,1,,,,,,,,,0,64,0,,
22560,note_on,0,0,1,,,,,,,,,0,,,72,49
22560,note_on,0,0,3,,,,,,,,,2,,,56,36
22560,control_change,0,0,3,,,,,,,,,2,64,0,,
22560,note_on,120,0,3,,,,,,,,,2,,,57,0
22560,note_on,60,0,1,,,,,,,,,0,,,69,0
22620,note_on,0,0,1,,,,,,,,,0,,,71,49
22620,note_on,60,0,1,,,,,,,,,0,,,72,0
22680,note_on,60,0,1,,,,,,,,,0,,,71,0
22680,note_on,0,0,1,,,,,,,,,0,,,64,49
22680,note_on,0,0,3,,,,,,,,,2,,,52,36
22680,note_on,120,0,3,,,,,,,,,2,,,56,0
22740,note_on,0,0,1,,,,,,,,,0,,,72,49
22740,note_on,60,0,1,,,,,,,,,0,,,64,0
22800,note_on,120,0,3,,,,,,,,,2,,,52,0
22800,control_change,0,0,3,,,,,,,,,2,64,127,,
22800,note_on,60,0,1,,,,,,,,,0,,,72,0
22800,control_change,0,0,1,,,,,,,,,0,64,127,,
22800,note_on,0,0,1,,,,,,,,,0,,,68,49
22800,note_on,0,0,3,,,,,,,,,2,,,60,36
22860,note_on,60,0,1,,,,,,,,,0,,,68,0
22860,note_on,0,0,1,,,,,,,,,0,,,69,49
22920,note_on,120,0,3,,,,,,,,,2,,,60,0
22920,note_on,0,0,3,,,,,,,,,2,,,57,36
22920,note_on,60,0,1,,,,,,,,,0,,,69,0
22920,note_on,0,0,1,,,,,,,,,0,,,64,49
22980,note_on,0,0,1,,,,,,,,,0,,,69,49
22980,note_on,60,0,1,,,,,,,,,0,,,64,0
23040,note_on,60,0,1,,,,,,,,,0,,,69,0
23040,note_on,120,0,3,,,,,,,,,2,,,57,0
23040,control_change,0,0,3,,,,,,,,,2,64,0,,
23040,note_on,0,0,3,,,,,,,,,2,,,56,36
23040,control_change,0,0,1,,,,,,,,,0,64,0,,
23040,note_on,0,0,1,,,,,,,,,0,,,72,49
23100,note_on,60,0,1,,,,,,,,,0,,,72,0
23100,note_on,0,0,1,,,,,,,,,0,,,71,49
23160,note_on,0,0,3,,,,,,,,,2,,,52,36
23160,note_on,60,0,1,,,,,,,,,0,,,71,0
23160,note_on,0,0,1,,,,,,,,,0,,,64,49
23160,note_on,120,0,3,,,,,,,,,2,,,56,0
23220,note_on,0,0,1,,,,,,,,,0,,,71,49
23220,note_on,60,0,1,,,,,,,,,0,,,64,0
23280,note_on,60,0,1,,,,,,,,,0,,,71,0
23280,control_change,0,0,1,,,,,,,,,0,64,127,,
23280,note_on,0,0,1,,,,,,,,,0,,,74,49
23280,note_on,18000,0,2,,,,,,,,,1,,,67,36
23280,control_change,120,0,3,,,,,,,,,2,64,127,,
23340,note_on,60,0,1,,,,,,,,,0,,,74,0
23340,note_on,0,0,1,,,,,,,,,0,,,72,49
23400,note_on,0,0,3,,,,,,,,,2,,,50,36
23400,note_on,120,0,3,,,,,,,,,2,,,52,0
23400,note_on,0,0,1,,,,,,,,,0,,,71,49
23400,note_on,60,0,1,,,,,,,,,0,,,72,0
23460,control_change,0,0,3,,,,,,,,,2,64,0,,
23460,note_on,0,0,3,,,,,,,,,2,,,48,36
23460,note_on,60,0,3,,,,,,,,,2,,,50,0
23460,note_on,0,0,1,,,,,,,,,0,,,72,49
23460,control_change,0,0,1,,,,,,,,,0,64,0,,
23460,note_on,60,0,1,,,,,,,,,0,,,71,0
23520,note_on,60,0,3,,,,,,,,,2,,,48,0
23520,note_on,0,0,3,,,,,,,,,2,,,47,36
23520,note_on,0,0,1,,,,,,,,,0,,,74,49
23520,note_on,60,0,1,,,,,,,,,0,,,72,0
23520,note_on,240,0,2,,,,,,,,,1,,,67,0
23580,note_on,0,0,1,,,,,,,,,0,,,67,49
23580,note_on,60,0,1,,,,,,,,,0,,,74,0
23640,note_on,0,0,3,,,,,,,,,2,,,43,36
23640,note_on,120,0,3,,,,,,,,,2,,,47,0
23640,note_on,60,0,1,,,,,,,,,0,,,67,0
23640,note_on,0,0,1,,,,,,,,,0,,,75,49
23700,note_on,60,0,1,,,,,,,,,0,,,75,0
23700,note_on,0,0,1,,,,,,,,,0,,,67,49
23760,note_on,0,0,3,,,,,,,,,2,,,48,36
23760,note_on,120,0,3,,,,,,,,,2,,,43,0
23760,note_on,60,0,1,,,,,,,,,0,,,67,0
23760,note_on,0,0,1,,,,,,,,,0,,,76,49
23820,note_on,0,0,1,,,,,,,,,0,,,67,49
23820,note_on,60,0,1,,,,,,,,,0,,,76,0
23880,note_on,0,0,1,,,,,,,,,0,,,77,49
23880,note_on,60,0,1,,,,,,,,,0,,,67,0
23880,note_on,0,0,3,,,,,,,,,2,,,50,36
23880,note_on,120,0,3,,,,,,,,,2,,,48,0
23940,note_on,60,0,1,,,,,,,,,0,,,77,0
23940,note_on,0,0,1,,,,,,,,,0,,,67,49
24000,note_on,0,0,3,,,,,,,,,2,,,52,36
24000,note_on,60,0,1,,,,,,,,,0,,,67,0
24000,note_on,0,0,1,,,,,,,,,0,,,79,49
24000,note_on,120,0,3,,,,,,,,,2,,,50,0
24060,note_on,60,0,1,,,,,,,,,0,,,79,0
24060,note_on,0,0,1,,,,,,,,,0,,,67,49
24120,note_on,60,0,1,,,,,,,,,0,,,67,0
24120,note_on,0,0,1,,,,,,,,,0,,,81,49
24120,note_on,0,0,3,,,,,,,,,2,,,53,36
24120,note_on,120,0,3,,,,,,,,,2,,,52,0
24180,note_on,60,0,1,,,,,,,,,0,,,81,0
24180,note_on,0,0,1,,,,,,,,,0,,,71,49
24240,note_on,120,0,3,,,,,,,,,2,,,53,0
24240,note_on,60,0,1,,,,,,,,,0,,,71,0
24240,note_on,0,0,1,,,,,,,,,0,,,79,62
24240,note_on,0,0,3,,,,,,,,,2,,,52,49
24300,note_on,60,0,1,,,,,,,,,0,,,79,0
24300,note_on,0,0,1,,,,,,,,,0,,,72,62
24360,note_on,0,0,3,,,,,,,,,2,,,56,49
24360,note_on,60,0,1,,,,,,,,,0,,,72,0
24360,note_on,0,0,1,,,,,,,,,0,,,77,62
24360,note_on,120,0,3,,,,,,,,,2,,,52,0
24420,note_on,0,0,1,,,,,,,,,0,,,71,62
24420,note_on,60,0,1,,,,,,,,,0,,,77,0
24480,note_on,60,0,1,,,,,,,,,0,,,71,0
24480,note_on,120,0,3,,,,,,,,,2,,,56,0
24480,note_on,0,0,1,,,,,,,,,0,,,76,62
24480,note_on,0,0,3,,,,,,,,,2,,,57,49
24540,note_on,0,0,1,,,,,,,,,0,,,72,62
24540,note_on,60,0,1,,,,,,,,,0,,,76,0
24600,note_on,120,0,3,,,,,,,,,2,,,57,0
24600,note_on,0,0,3,,,,,,,,,2,,,65,49
24600,note_on,0,0,1,,,,,,,,,0,,,74,62
24600,note_on,60,0,1,,,,,,,,,0,,,72,0
24660,note_on,60,0,1,,,,,,,,,0,,,74,0
24660,note_on,0,0,1,,,,,,,,,0,,,69,62
24720,note_on,120,0,3,,,,,,,,,2,,,65,0
24720,note_on,0,0,3,,,,,,,,,2,,,64,49
24720,note_on,0,0,1,,,,,,,,,0,,,72,62
24720,note_on,60,0,1,,,,,,,,,0,,,69,0
24780,note_on,60,0,1,,,,,,,,,0,,,72,0
24780,note_on,0,0,1,,,,,,,,,0,,,69,62
24840,note_on,120,0,3,,,,,,,,,2,,,64,0
24840,note_on,0,0,3,,,,,,,,,2,,,53,49
24840,note_on,0,0,3,,,,,,,,,2,,,57,49
24840,note_on,60,0,1,,,,,,,,,0,,,69,0
24840,note_on,0,0,1,,,,,,,,,0,,,74,62
24900,note_on,60,0,1,,,,,,,,,0,,,74,0
24900,note_on,0,0,1,,,,,,,,,0,,,69,62
24960,note_on,120,0,3,,,,,,,,,2,,,57,0
24960,note_on,3240,0,4,,,,,,,,,3,,,52,36
24960,note_on,0,0,3,,,,,,,,,2,,,60,49
24960,note_on,0,0,3,,,,,,,,,2,,,57,49
24960,note_on,0,0,3,,,,,,,,,2,,,53,0
24960,note_on,60,0,1,,,,,,,,,0,,,69,0
24960,note_on,0,0,1,,,,,,,,,0,,,76,62
25020,note_on,0,0,1,,,,,,,,,0,,,64,62
25020,note_on,60,0,1,,,,,,,,,0,,,76,0
25080,note_on,60,0,1,,,,,,,,,0,,,64,0
25080,note_on,120,0,3,,,,,,,,,2,,,60,0
25080,note_on,0,0,3,,,,,,,,,2,,,57,0
25080,note_on,0,0,3,,,,,,,,,2,,,56,49
25080,note_on,0,0,3,,,,,,,,,2,,,59,49
25080,note_on,0,0,1,,,,,,,,,0,,,76,62
25140,note_on,0,0,1,,,,,,,,,0,,,77,62
25140,note_on,60,0,1,,,,,,,,,0,,,76,0
25200,note_on,60,0,1,,,,,,,,,0,,,77,0
25200,note_on,120,0,3,,,,,,,,,2,,,59,0
25200,note_on,0,0,3,,,,,,,,,2,,,56,0
25200,note_on,0,0,3,,,,,,,,,2,,,60,36
25200,note_on,0,0,1,,,,,,,,,0,,,77,36
25200,note_on,240,0,4,,,,,,,,,3,,,52,0
25260,note_on,60,0,1,,,,,,,,,0,,,77,0
25260,note_on,0,0,1,,,,,,,,,0,,,76,36
25320,note_on,0,0,3,,,,,,,,,2,,,59,36
25320,note_on,120,0,3,,,,,,,,,2,,,60,0
25320,note_on,0,0,1,,,,,,,,,0,,,76,36
25320,note_on,60,0,1,,,,,,,,,0,,,76,0
25380,note_on,60,0,1,,,,,,,,,0,,,76,0
25380,note_on,0,0,1,,,,,,,,,0,,,74,36
25440,note_on,60,0,1,,,,,,,,,0,,,74,0
25440,note_on,120,0,3,,,,,,,,,2,,,59,0
25440,note_on,0,0,1,,,,,,,,,0,,,74,36
25440,note_on,0,0,3,,,,,,,,,2,,,57,36
25500,note_on,60,0,1,,,,,,,,,0,,,74,0
25500,note_on,0,0,1,,,,,,,,,0,,,72,36
25560,note_on,0,0,3,,,,,,,,,2,,,62,36
25560,note_on,60,0,1,,,,,,,,,0,,,72,0
25560,note_on,0,0,1,,,,,,,,,0,,,72,36
25560,note_on,120,0,3,,,,,,,,,2,,,57,0
25620,note_on,0,0,1,,,,,,,,,0,,,71,36
25620,note_on,60,0,1,,,,,,,,,0,,,72,0
25680,note_on,60,0,1,,,,,,,,,0,,,71,0
25680,note_on,0,0,1,,,,,,,,,0,,,71,36
25680,note_on,0,0,3,,,,,,,,,2,,,60,36
25680,control_change,0,0,3,,,,,,,,,2,64,127,,
25680,note_on,120,0,3,,,,,,,,,2,,,62,0
25680,control_change,0,0,1,,,,,,,,,0,64,127,,
25740,note_on,60,0,1,,,,,,,,,0,,,71,0
25740,note_on,0,0,1,,,,,,,,,0,,,69,36
25800,note_on,0,0,1,,,,,,,,,0,,,68,36
25800,note_on,0,0,3,,,,,,,,,2,,,57,36
25800,note_on,120,0,3,,,,,,,,,2,,,60,0
25800,note_on,60,0,1,,,,,,,,,0,,,69,0
25860,note_on,0,0,1,,,,,,,,,0,,,69,36
25860,note_on,60,0,1,,,,,,,,,0,,,68,0
25920,note_on,0,0,1,,,,,,,,,0,,,72,36
25920,control_change,0,0,3,,,,,,,,,2,64,0,,
25920,note_on,0,0,3,,,,,,,,,2,,,55,36
25920,control_change,0,0,1,,,,,,,,,0,64,0,,
25920,note_on,60,0,1,,,,,,,,,0,,,69,0
25920,note_on,120,0,3,,,,,,,,,2,,,57,0
25920,note_on,2400,0,2,,,,,,,,,1,,,74,36
25980,note_on,60,0,1,,,,,,,,,0,,,72,0
25980,note_on,0,0,1,,,,,,,,,0,,,71,36
26040,note_on,60,0,1,,,,,,,,,0,,,71,0
26040,note_on,0,0,3,,,,,,,,,2,,,53,36
26040,note_on,120,0,3,,,,,,,,,2,,,55,0
26040,note_on,0,0,1,,,,,,,,,0,,,69,36
26100,note_on,0,0,1,,,,,,,,,0,,,71,36
26100,note_on,60,0,1,,,,,,,,,0,,,69,0
26160,note_on,0,0,3,,,,,,,,,2,,,52,36
26160,control_change,0,0,3,,,,,,,,,2,64,127,,
26160,note_on,120,0,3,,,,,,,,,2,,,53,0
26160,note_on,240,0,2,,,,,,,,,1,,,74,0
26160,note_on,0,0,2,,,,,,,,,1,,,76,49
26160,note_on,0,0,1,,,,,,,,,0,,,74,49
26160,note_on,60,0,1,,,,,,,,,0,,,71,0
26160,control_change,0,0,1,,,,,,,,,0,64,127,,
26220,note_on,60,0,1,,,,,,,,,0,,,74,0
26220,note_on,0,0,1,,,,,,,,,0,,,72,49
26280,note_on,120,0,3,,,,,,,,,2,,,52,0
26280,note_on,0,0,3,,,,,,,,,2,,,48,36
26280,note_on,120,0,2,,,,,,,,,1,,,76,0
26280,note_on,0,0,1,,,,,,,,,0,,,71,49
26280,note_on,60,0,1,,,,,,,,,0,,,72,0
26340,note_on,60,0,1,,,,,,,,,0,,,71,0
26340,note_on,0,0,1,,,,,,,,,0,,,72,49
26400,note_on,0,0,1,,,,,,,,,0,,,76,75
26400,note_on,60,0,1,,,,,,,,,0,,,72,0
26400,control_change,0,0,1,,,,,,,,,0,64,0,,
26400,note_on,120,0,3,,,,,,,,,2,,,48,0
26400,control_change,0,0,3,,,,,,,,,2,64,0,,
26400,note_on,0,0,3,,,,,,,,,2,,,47,62
26400,note_on,120,0,2,,,,,,,,,1,,,78,75
26460,note_on,0,0,1,,,,,,,,,0,,,75,75
26460,note_on,60,0,1,,,,,,,,,0,,,76,0
26520,note_on,0,0,1,,,,,,,,,0,,,73,75
26520,note_on,60,0,1,,,,,,,,,0,,,75,0
26520,note_on,120,0,3,,,,,,,,,2,,,47,0
26520,note_on,0,0,3,,,,,,,,,2,,,45,62
26580,note_on,60,0,1,,,,,,,,,0,,,73,0
26580,note_on,0,0,1,,,,,,,,,0,,,75,75
26640,note_on,60,0,1,,,,,,,,,0,,,75,0
26640,control_change,0,0,3,,,,,,,,,2,64,127,,
26640,note_on,0,0,3,,,,,,,,,2,,,43,62
26640,note_on,240,0,2,,,,,,,,,1,,,78,0
26640,note_on,0,0,2,,,,,,,,,1,,,79,75
26640,note_on,0,0,1,,,,,,,,,0,,,78,75
26640,control_change,0,0,1,,,,,,,,,0,64,127,,
26640,note_on,120,0,3,,,,,,,,,2,,,45,0
26700,note_on,0,0,1,,,,,,,,,0,,,76,75
26700,note_on,60,0,1,,,,,,,,,0,,,78,0
26760,note_on,120,0,2,,,,,,,,,1,,,79,0
26760,note_on,0,0,1,,,,,,,,,0,,,75,75
26760,note_on,0,0,3,,,,,,,,,2,,,40,62
26760,note_on,60,0,1,,,,,,,,,0,,,76,0
26760,note_on,120,0,3,,,,,,,,,2,,,43,0
26820,note_on,60,0,1,,,,,,,,,0,,,75,0
26820,note_on,0,0,1,,,,,,,,,0,,,76,75
26880,note_on,120,0,3,,,,,,,,,2,,,40,0
26880,control_change,0,0,3,,,,,,,,,2,64,0,,
26880,note_on,0,0,3,,,,,,,,,2,,,38,62
26880,note_on,120,0,2,,,,,,,,,1,,,81,75
26880,note_on,0,0,1,,,,,,,,,0,,,79,75
26880,control_change,0,0,1,,,,,,,,,0,64,0,,
26880,note_on,60,0,1,,,,,,,,,0,,,76,0
26940,note_on,0,0,1,,,,,,,,,0,,,78,75
26940,note_on,60,0,1,,,,,,,,,0,,,79,0
27000,note_on,0,0,1,,,,,,,,,0,,,76,75
27000,note_on,60,0,1,,,,,,,,,0,,,78,0
27000,note_on,120,0,3,,,,,,,,,2,,,38,0
27000,note_on,0,0,3,,,,,,,,,2,,,36,62
27060,note_on,0,0,1,,,,,,,,,0,,,78,75
27060,note_on,60,0,1,,,,,,,,,0,,,76,0
27120,note_on,240,0,2,,,,,,,,,1,,,81,0
27120,note_on,60,0,1,,,,,,,,,0,,,78,0
27120,note_on,0,0,1,,,,,,,,,0,,,75,75
27120,note_on,0,0,3,,,,,,,,,2,,,35,62
27120,note_on,120,0,3,,,,,,,,,2,,,36,0
27132,note_on,12,0,3,,,,,,,,,2,,,35,0
27180,note_on,0,0,1,,,,,,,,,0,,,83,75
27180,note_on,60,0,1,,,,,,,,,0,,,75,0
27240,note_on,0,0,1,,,,,,,,,0,,,76,75
27240,note_on,60,0,1,,,,,,,,,0,,,83,0
27240,note_on,108,0,3,,,,,,,,,2,,,33,62
27252,note_on,12,0,3,,,,,,,,,2,,,33,0
27300,note_on,0,0,1,,,,,,,,,0,,,84,75
27300,note_on,60,0,1,,,,,,,,,0,,,76,0
27360,note_on,0,0,1,,,,,,,,,0,,,76,75
27360,note_on,108,0,3,,,,,,,,,2,,,35,62
27360,note_on,60,0,1,,,,,,,,,0,,,84,0
27372,note_on,12,0,3,,,,,,,,,2,,,35,0
27420,note_on,0,0,1,,,,,,,,,0,,,79,75
27420,note_on,60,0,1,,,,,,,,,0,,,76,0
27480,note_on,0,0,1,,,,,,,,,0,,,75,75
27480,note_on,60,0,1,,,,,,,,,0,,,79,0
27480,note_on,108,0,3,,,,,,,,,2,,,35,62
27492,note_on,12,0,3,,,,,,,,,2,,,35,0
27540,note_on,60,0,1,,,,,,,,,0,,,75,0
27540,note_on,0,0,1,,,,,,,,,0,,,78,75
27600,note_on,0,0,1,,,,,,,,,0,,,76,88
27600,note_on,108,0,3,,,,,,,,,2,,,42,75
27600,note_on,60,0,1,,,,,,,,,0,,,78,0
27660,note_on,60,0,3,,,,,,,,,2,,,42,0
27660,note_on,0,0,3,,,,,,,,,2,,,40,75
27720,note_on,60,0,3,,,,,,,,,2,,,40,0
27720,note_on,120,0,1,,,,,,,,,0,,,76,0
27720,note_on,0,0,3,,,,,,,,,2,,,39,75
27720,note_on,0,0,1,,,,,,,,,0,,,76,88
27720,note_on,0,0,1,,,,,,,,,0,,,88,88
27732,note_on,0,0,1,,,,,,,,,0,,,76,0
27732,note_on,12,0,1,,,,,,,,,0,,,88,0
27780,note_on,60,0,3,,,,,,,,,2,,,39,0
27780,note_on,0,0,3,,,,,,,,,2,,,40,75
27840,note_on,108,0,1,,,,,,,,,0,,,74,88
27840,note_on,0,0,1,,,,,,,,,0,,,86,88
27840,note_on,60,0,3,,,,,,,,,2,,,40,0
27840,note_on,0,0,3,,,,,,,,,2,,,43,75
27852,note_on,12,0,1,,,,,,,,,0,,,86,0
27852,note_on,0,0,1,,,,,,,,,0,,,74,0
27900,note_on,60,0,3,,,,,,,,,2,,,43,0
27900,note_on,0,0,3,,,,,,,,,2,,,42,75
27960,note_on,0,0,1,,,,,,,,,0,,,84,88
27960,note_on,0,0,3,,,,,,,,,2,,,40,75
27960,note_on,108,0,1,,,,,,,,,0,,,72,88
27960,note_on,60,0,3,,,,,,,,,2,,,42,0
27972,note_on,12,0,1,,,,,,,,,0,,,84,0
27972,note_on,0,0,1,,,,,,,,,0,,,72,0
28020,note_on,60,0,3,,,,,,,,,2,,,40,0
28020,note_on,0,0,3,,,,,,,,,2,,,42,75
28080,note_on,108,0,1,,,,,,,,,0,,,71,88
28080,note_on,0,0,1,,,,,,,,,0,,,83,88
28080,note_on,60,0,3,,,,,,,,,2,,,42,0
28080,note_on,0,0,3,,,,,,,,,2,,,45,75
28092,note_on,12,0,1,,,,,,,,,0,,,83,0
28092,note_on,0,0,1,,,,,,,,,0,,,71,0
28140,note_on,60,0,3,,,,,,,,,2,,,45,0
28140,note_on,0,0,3,,,,,,,,,2,,,43,75
28200,note_on,108,0,1,,,,,,,,,0,,,67,88
28200,note_on,60,0,3,,,,,,,,,2,,,43,0
28200,note_on,0,0,3,,,,,,,,,2,,,42,75
28200,note_on,0,0,1,,,,,,,,,0,,,79,88
28212,note_on,12,0,1,,,,,,,,,0,,,79,0
28212,note_on,0,0,1,,,,,,,,,0,,,67,0
28260,note_on,60,0,3,,,,,,,,,2,,,42,0
28260,note_on,0,0,3,,,,,,,,,2,,,43,75
28320,note_on,60,0,3,,,,,,,,,2,,,43,0
28320,note_on,0,0,3,,,,,,,,,2,,,47,75
28320,note_on,0,0,1,,,,,,,,,0,,,78,88
28320,note_on,108,0,1,,,,,,,,,0,,,66,88
28332,note_on,0,0,1,,,,,,,,,0,,,66,0
28332,note_on,12,0,1,,,,,,,,,0,,,78,0
28380,note_on,60,0,3,,,,,,,,,2,,,47,0
28380,note_on,0,0,3,,,,,,,,,2,,,46,75
28440,note_on,0,0,1,,,,,,,,,0,,,76,88
28440,note_on,60,0,3,,,,,,,,,2,,,46,0
28440,note_on,0,0,3,,,,,,,,,2,,,44,75
28440,note_on,108,0,1,,,,,,,,,0,,,64,88
28452,note_on,0,0,1,,,,,,,,,0,,,64,0
28452,note_on,12,0,1,,,,,,,,,0,,,76,0
28500,note_on,60,0,3,,,,,,,,,2,,,44,0
28500,note_on,0,0,3,,,,,,,,,2,,,46,75
28560,note_on,108,0,1,,,,,,,,,0,,,62,88
28560,note_on,0,0,3,,,,,,,,,2,,,49,75
28560,note_on,60,0,3,,,,,,,,,2,,,46,0
28560,note_on,0,0,1,,,,,,,,,0,,,74,88
28572,note_on,12,0,1,,,,,,,,,0,,,74,0
28572,note_on,0,0,1,,,,,,,,,0,,,62,0
28620,note_on,60,0,3,,,,,,,,,2,,,49,0
28620,note_on,0,0,3,,,,,,,,,2,,,47,75
28680,note_on,0,0,1,,,,,,,,,0,,,83,88
28680,note_on,108,0,1,,,,,,,,,0,,,71,88
28680,note_on,0,0,3,,,,,,,,,2,,,46,75
28680,note_on,60,0,3,,,,,,,,,2,,,47,0
28692,note_on,0,0,1,,,,,,,,,0,,,71,0
28692,note_on,12,0,1,,,,,,,,,0,,,83,0
28740,note_on,0,0,3,,,,,,,,,2,,,47,75
28740,note_on,60,0,3,,,,,,,,,2,,,46,0
28800,note_on,0,0,3,,,,,,,,,2,,,50,75
28800,note_on,60,0,3,,,,,,,,,2,,,47,0
28800,note_on,108,0,1,,,,,,,,,0,,,69,88
28800,note_on,0,0,1,,,,,,,,,0,,,81,88
28812,note_on,0,0,1,,,,,,,,,0,,,69,0
28812,note_on,12,0,1,,,,,,,,,0,,,81,0
28860,note_on,60,0,3,,,,,,,,,2,,,50,0
28860,note_on,0,0,3,,,,,,,,,2,,,49,75
28920,note_on,0,0,1,,,,,,,,,0,,,79,88
28920,note_on,108,0,1,,,,,,,,,0,,,67,88
28920,note_on,60,0,3,,,,,,,,,2,,,49,0
28920,note_on,0,0,3,,,,,,,,,2,,,47,75
28932,note_on,0,0,1,,,,,,,,,0,,,67,0
28932,note_on,12,0,1,,,,,,,,,0,,,79,0
28980,note_on,60,0,3,,,,,,,,,2,,,47,0
28980,note_on,0,0,3,,,,,,,,,2,,,49,75
29040,note_on,60,0,3,,,,,,,,,2,,,49,0
29040,note_on,0,0,1,,,,,,,,,0,,,78,88
29040,note_on,108,0,1,,,,,,,,,0,,,66,88
29040,note_on,0,0,3,,,,,,,,,2,,,50,75
29052,note_on,12,0,1,,,,,,,,,0,,,78,0
29052,note_on,0,0,1,,,,,,,,,0,,,66,0
29100,note_on,0,0,3,,,,,,,,,2,,,54,75
29100,note_on,60,0,3,,,,,,,,,2,,,50,0
29160,note_on,60,0,3,,,,,,,,,2,,,54,0
29160,note_on,0,0,3,,,,,,,,,2,,,45,75
29160,note_on,0,0,1,,,,,,,,,0,,,78,88
29160,note_on,108,0,1,,,,,,,,,0,,,72,88
29160,note_on,0,0,1,,,,,,,,,0,,,81,88
29172,note_on,0,0,1,,,,,,,,,0,,,78,0
29172,note_on,12,0,1,,,,,,,,,0,,,81,0
29172,note_on,0,0,1,,,,,,,,,0,,,72,0
29220,note_on,60,0,3,,,,,,,,,2,,,45,0
29220,note_on,0,0,3,,,,,,,,,2,,,54,75
29280,note_on,0,0,3,,,,,,,,,2,,,47,75
29280,note_on,108,0,1,,,,,,,,,0,,,71,88
29280,note_on,0,0,1,,,,,,,,,0,,,76,88
29280,note_on,0,0,1,,,,,,,,,0,,,79,88
29280,note_on,60,0,3,,,,,,,,,2,,,54,0
29292,note_on,0,0,1,,,,,,,,,0,,,71,0
29292,note_on,0,0,1,,,,,,,,,0,,,76,0
29292,note_on,12,0,1,,,,,,,,,0,,,79,0
29340,note_on,60,0,3,,,,,,,,,2,,,47,0
29340,note_on,0,0,3,,,,,,,,,2,,,55,75
29400,note_on,0,0,1,,,,,,,,,0,,,78,88
29400,note_on,0,0,1,,,,,,,,,0,,,75,88
29400,note_on,108,0,1,,,,,,,,,0,,,71,88
29400,note_on,0,0,3,,,,,,,,,2,,,47,75
29400,note_on,60,0,3,,,,,,,,,2,,,55,0
29412,note_on,0,0,1,,,,,,,,,0,,,75,0
29412,note_on,0,0,1,,,,,,,,,0,,,71,0
29412,note_on,12,0,1,,,,,,,,,0,,,78,0
29460,note_on,0,0,3,,,,,,,,,2,,,59,75
29460,note_on,60,0,3,,,,,,,,,2,,,47,0
29520,control_change,108,0,1,,,,,,,,,0,64,127,,
29520,note_on,0,0,1,,,,,,,,,0,,,76,101
29520,note_on,60,0,3,,,,,,,,,2,,,59,0
29520,control_change,0,0,3,,,,,,,,,2,64,127,,
29520,note_on,0,0,3,,,,,,,,,2,,,40,88
29520,note_on,0,0,3,,,,,,,,,2,,,52,88
29520,note_on,0,0,1,,,,,,,,,0,,,64,101
29640,note_on,0,0,3,,,,,,,,,2,,,40,0
29640,note_on,120,0,1,,,,,,,,,0,,,76,0
29640,note_on,0,0,1,,,,,,,,,0,,,76,101
29640,note_on,0,0,1,,,,,,,,,0,,,64,0
29640,note_on,120,0,3,,,,,,,,,2,,,52,0
29640,note_on,0,0,3,,,,,,,,,2,,,52,88
29700,note_on,0,0,3,,,,,,,,,2,,,52,88
29700,note_on,60,0,1,,,,,,,,,0,,,76,0
29700,note_on,60,0,3,,,,,,,,,2,,,52,0
29700,note_on,0,0,1,,,,,,,,,0,,,76,101
29760,note_on,60,0,3,,,,,,,,,2,,,52,0
29760,note_on,0,0,3,,,,,,,,,2,,,52,88
29760,note_on,60,0,1,,,,,,,,,0,,,76,0
29760,note_on,0,0,1,,,,,,,,,0,,,76,101
29820,note_on,0,0,1,,,,,,,,,0,,,79,101
29820,note_on,60,0,3,,,,,,,,,2,,,52,0
29820,note_on,0,0,3,,,,,,,,,2,,,55,88
29820,note_on,60,0,1,,,,,,,,,0,,,76,0
29880,note_on,60,0,3,,,,,,,,,2,,,55,0
29880,note_on,0,0,1,,,,,,,,,0,,,78,101
29880,control_change,0,0,1,,,,,,,,,0,64,0,,
29880,note_on,0,0,3,,,,,,,,,2,,,54,88
29880,control_change,0,0,3,,,,,,,,,2,64,0,,
29880,note_on,60,0,1,,,,,,,,,0,,,79,0
29940,note_on,0,0,1,,,,,,,,,0,,,76,101
29940,note_on,0,0,3,,,,,,,,,2,,,52,88
29940,note_on,60,0,3,,,,,,,,,2,,,54,0
29940,note_on,60,0,1,,,,,,,,,0,,,78,0
30000,note_on,0,0,1,,,,,,,,,0,,,71,114
30000,note_on,0,0,3,,,,,,,,,2,,,47,101
30000,note_on,0,0,3,,,,,,,,,2,,,59,101
30000,note_on,60,0,1,,,,,,,,,0,,,76,0
30000,note_on,0,0,1,,,,,,,,,0,,,83,114
30000,note_on,60,0,3,,,,,,,,,2,,,52,0
30012,note_on,12,0,3,,,,,,,,,2,,,59,0
30012,note_on,0,0,3,,,,,,,,,2,,,47,0
30012,note_on,12,0,1,,,,,,,,,0,,,83,0
30012,note_on,0,0,1,,,,,,,,,0,,,71,0
30120,note_on,108,0,3,,,,,,,,,2,,,48,101
30120,note_on,0,0,3,,,,,,,,,2,,,60,101
30120,note_on,108,0,1,,,,,,,,,0,,,72,114
30120,note_on,0,0,1,,,,,,,,,0,,,84,114
30132,note_on,12,0,1,,,,,,,,,0,,,84,0
30132,note_on,0,0,3,,,,,,,,,2,,,48,0
30132,note_on,12,0,3,,,,,,,,,2,,,60,0
30132,note_on,0,0,1,,,,,,,,,0,,,72,0
30240,note_on,108,0,1,,,,,,,,,0,,,71,114
30240,note_on,0,0,3,,,,,,,,,2,,,59,101
30240,note_on,108,0,3,,,,,,,,,2,,,47,101
30240,note_on,0,0,1,,,,,,,,,0,,,83,114
30480,note_on,240,0,1,,,,,,,,,0,,,83,0
30480,note_on,0,0,1,,,,,,,,,0,,,71,0
30480,note_on,0,0,1,,,,,,,,,0,,,83,49
30480,note_on,0,0,3,,,,,,,,,2,,,47,0
30480,note_on,240,0,3,,,,,,,,,2,,,59,0
30480,note_on,0,0,3,,,,,,,,,2,,,63,36
30540,note_on,0,0,1,,,,,,,,,0,,,84,49
30540,note_on,60,0,1,,,,,,,,,0,,,83,0
30600,note_on,60,0,1,,,,,,,,,0,,,84,0
30600,note_on,0,0,1,,,,,,,,,0,,,81,49
30600,note_on,120,0,3,,,,,,,,,2,,,63,0
30600,note_on,0,0,3,,,,,,,,,2,,,72,36
30660,note_on,0,0,1,,,,,,,,,0,,,83,49
30660,note_on,60,0,1,,,,,,,,,0,,,81,0
30720,note_on,0,0,1,,,,,,,,,0,,,79,49
30720,note_on,60,0,1,,,,,,,,,0,,,83,0
30720,note_on,0,0,3,,,,,,,,,2,,,71,36
30720,note_on,120,0,3,,,,,,,,,2,,,72,0
30780,note_on,0,0,1,,,,,,,,,0,,,81,49
30780,note_on,60,0,1,,,,,,,,,0,,,79,0
30840,note_on,0,0,1,,,,,,,,,0,,,78,49
30840,note_on,120,0,3,,,,,,,,,2,,,71,0
30840,note_on,0,0,3,,,,,,,,,2,,,69,36
30840,note_on,60,0,1,,,,,,,,,0,,,81,0
30900,note_on,0,0,1,,,,,,,,,0,,,79,49
30900,note_on,60,0,1,,,,,,,,,0,,,78,0
30960,note_on,60,0,1,,,,,,,,,0,,,79,0
30960,note_on,5760,0,4,,,,,,,,,3,,,67,36
30960,control_change,0,0,1,,,,,,,,,0,64,127,,
30960,note_on,120,0,3,,,,,,,,,2,,,69,0
30960,note_on,0,0,1,,,,,,,,,0,,,78,49
31020,note_on,60,0,1,,,,,,,,,0,,,78,0
31020,note_on,0,0,1,,,,,,,,,0,,,76,49
31080,note_on,60,0,1,,,,,,,,,0,,,76,0
31080,note_on,0,0,1,,,,,,,,,0,,,71,49
31080,note_on,120,0,3,,,,,,,,,2,,,64,36
31140,note_on,60,0,1,,,,,,,,,0,,,71,0
31140,note_on,0,0,1,,,,,,,,,0,,,76,49
31200,note_on,60,0,1,,,,,,,,,0,,,76,0
31200,control_change,0,0,1,,,,,,,,,0,64,0,,
31200,note_on,0,0,1,,,,,,,,,0,,,79,49
31200,note_on,240,0,4,,,,,,,,,3,,,67,0
31200,note_on,0,0,4,,,,,,,,,3,,,69,36
31200,note_on,120,0,3,,,,,,,,,2,,,64,0
31200,note_on,0,0,3,,,,,,,,,2,,,63,36
31260,note_on,0,0,1,,,,,,,,,0,,,78,49
31260,note_on,60,0,1,,,,,,,,,0,,,79,0
31320,note_on,0,0,1,,,,,,,,,0,,,71,49
31320,note_on,60,0,1,,,,,,,,,0,,,78,0
31320,note_on,0,0,3,,,,,,,,,2,,,59,36
31320,note_on,120,0,3,,,,,,,,,2,,,63,0
31380,note_on,0,0,1,,,,,,,,,0,,,78,49
31380,note_on,60,0,1,,,,,,,,,0,,,71,0
31440,note_on,0,0,4,,,,,,,,,3,,,67,36
31440,note_on,0,0,1,,,,,,,,,0,,,75,49
31440,note_on,60,0,1,,,,,,,,,0,,,78,0
31440,control_change,0,0,1,,,,,,,,,0,64,127,,
31440,note_on,120,0,3,,,,,,,,,2,,,59,0
31440,note_on,240,0,4,,,,,,,,,3,,,69,0
31500,note_on,0,0,1,,,,,,,,,0,,,76,49
31500,note_on,60,0,1,,,,,,,,,0,,,75,0
31560,note_on,120,0,3,,,,,,,,,2,,,64,36
31560,note_on,0,0,1,,,,,,,,,0,,,71,49
31560,note_on,60,0,1,,,,,,,,,0,,,76,0
31620,note_on,60,0,1,,,,,,,,,0,,,71,0
31620,note_on,0,0,1,,,,,,,,,0,,,76,49
31680,note_on,0,0,4,,,,,,,,,3,,,69,36
31680,note_on,240,0,4,,,,,,,,,3,,,67,0
31680,note_on,0,0,1,,,,,,,,,0,,,79,49
31680,control_change,0,0,1,,,,,,,,,0,64,0,,
31680,note_on,0,0,3,,,,,,,,,2,,,63,36
31680,note_on,120,0,3,,,,,,,,,2,,,64,0
31680,note_on,60,0,1,,,,,,,,,0,,,76,0
31740,note_on,0,0,1,,,,,,,,,0,,,78,49
31740,note_on,60,0,1,,,,,,,,,0,,,79,0
31800,note_on,60,0,1,,,,,,,,,0,,,78,0
31800,note_on,0,0,1,,,,,,,,,0,,,71,49
31800,note_on,120,0,3,,,,,,,,,2,,,63,0
31800,note_on,0,0,3,,,,,,,,,2,,,59,36
31860,note_on,60,0,1,,,,,,,,,0,,,71,0
31860,note_on,0,0,1,,,,,,,,,0,,,78,49
31920,control_change,0,0,3,,,,,,,,,2,64,127,,
31920,note_on,0,0,3,,,,,,,,,2,,,40,75
31920,note_on,0,0,3,,,,,,,,,2,,,52,75
31920,note_on,60,0,1,,,,,,,,,0,,,78,0
31920,control_change,0,0,1,,,,,,,,,0,64,127,,
31920,note_on,0,0,1,,,,,,,,,0,,,64,88
31920,note_on,0,0,1,,,,,,,,,0,,,76,88
31920,note_on,120,0,3,,,,,,,,,2,,,59,0
31920,note_on,240,0,4,,,,,,,,,3,,,69,0
32040,note_on,120,0,1,,,,,,,,,0,,,76,0
32040,note_on,120,0,3,,,,,,,,,2,,,52,0
32040,note_on,0,0,3,,,,,,,,,2,,,40,0
32040,note_on,0,0,3,,,,,,,,,2,,,52,75
32040,note_on,0,0,1,,,,,,,,,0,,,76,88
32040,note_on,0,0,1,,,,,,,,,0,,,64,0
32100,note_on,0,0,1,,,,,,,,,0,,,76,88
32100,note_on,60,0,1,,,,,,,,,0,,,76,0
32100,note_on,60,0,3,,,,,,,,,2,,,52,0
32100,note_on,0,0,3,,,,,,,,,2,,,52,75
32160,note_on,0,0,1,,,,,,,,,0,,,76,88
32160,note_on,60,0,1,,,,,,,,,0,,,76,0
32160,note_on,60,0,3,,,,,,,,,2,,,52,0
32160,note_on,0,0,3,,,,,,,,,2,,,52,75
32220,note_on,0,0,3,,,,,,,,,2,,,55,75
32220,note_on,60,0,3,,,,,,,,,2,,,52,0
32220,note_on,60,0,1,,,,,,,,,0,,,76,0
32220,note_on,0,0,1,,,,,,,,,0,,,79,88
32280,control_change,0,0,1,,,,,,,,,0,64,0,,
32280,note_on,0,0,3,,,,,,,,,2,,,54,75
32280,control_change,0,0,3,,,,,,,,,2,64,0,,
32280,note_on,60,0,3,,,,,,,,,2,,,55,0
32280,note_on,60,0,1,,,,,,,,,0,,,79,0
32280,note_on,0,0,1,,,,,,,,,0,,,78,88
32340,note_on,0,0,3,,,,,,,,,2,,,52,75
32340,note_on,60,0,3,,,,,,,,,2,,,54,0
32340,note_on,0,0,1,,,,,,,,,0,,,76,88
32340,note_on,60,0,1,,,,,,,,,0,,,78,0
32400,note_on,0,0,3,,,,,,,,,2,,,47,101
32400,note_on,60,0,1,,,,,,,,,0,,,76,0
32400,note_on,0,0,1,,,,,,,,,0,,,71,114
32400,note_on,0,0,1,,,,,,,,,0,,,83,114
32400,note_on,0,0,3,,,,,,,,,2,,,59,101
32400,note_on,60,0,3,,,,,,,,,2,,,52,0
32412,note_on,12,0,3,,,,,,,,,2,,,59,0
32412,note_on,12,0,1,,,,,,,,,0,,,83,0
32412,note_on,0,0,1,,,,,,,,,0,,,71,0
32412,note_on,0,0,3,,,,,,,,,2,,,47,0
32520,note_on,0,0,1,,,,,,,,,0,,,88,114
32520,note_on,0,0,1,,,,,,,,,0,,,82,114
32520,note_on,108,0,1,,,,,,,,,0,,,74,114
32520,note_on,108,0,3,,,,,,,,,2,,,48,101
32520,note_on,0,0,3,,,,,,,,,2,,,60,101
32532,note_on,0,0,1,,,,,,,,,0,,,74,0
32532,note_on,12,0,1,,,,,,,,,0,,,88,0
32532,note_on,12,0,3,,,,,,,,,2,,,60,0
32532,note_on,0,0,3,,,,,,,,,2,,,48,0
32532,note_on,0,0,1,,,,,,,,,0,,,82,0
32640,note_on,108,0,3,,,,,,,,,2,,,47,101
32640,note_on,0,0,3,,,,,,,,,2,,,59,101
32640,note_on,108,0,1,,,,,,,,,0,,,71,114
32640,note_on,0,0,1,,,,,,,,,0,,,83,114
32880,note_on,0,0,1,,,,,,,,,0,,,71,0
32880,note_on,0,0,1,,,,,,,,,0,,,83,49
32880,note_on,0,0,3,,,,,,,,,2,,,63,36
32880,note_on,0,0,3,,,,,,,,,2,,,47,0
32880,note_on,240,0,3,,,,,,,,,2,,,59,0
32880,note_on,240,0,1,,,,,,,,,0,,,83,0
32940,note_on,0,0,1,,,,,,,,,0,,,85,49
32940,note_on,60,0,1,,,,,,,,,0,,,83,0
33000,note_on,0,0,1,,,,,,,,,0,,,81,49
33000,note_on,60,0,1,,,,,,,,,0,,,85,0
33000,note_on,120,0,3,,,,,,,,,2,,,63,0
33000,note_on,0,0,3,,,,,,,,,2,,,73,36
33060,note_on,60,0,1,,,,,,,,,0,,,81,0
33060,note_on,0,0,1,,,,,,,,,0,,,83,49
33120,note_on,0,0,3,,,,,,,,,2,,,71,36
33120,note_on,0,0,1,,,,,,,,,0,,,80,49
33120,note_on,120,0,3,,,,,,,,,2,,,73,0
33120,note_on,60,0,1,,,,,,,,,0,,,83,0
33180,note_on,0,0,1,,,,,,,,,0,,,81,49
33180,note_on,60,0,1,,,,,,,,,0,,,80,0
33240,note_on,60,0,1,,,,,,,,,0,,,81,0
33240,note_on,0,0,3,,,,,,,,,2,,,69,36
33240,note_on,120,0,3,,,,,,,,,2,,,71,0
33240,note_on,0,0,1,,,,,,,,,0,,,78,49
33300,note_on,60,0,1,,,,,,,,,0,,,78,0
33300,note_on,0,0,1,,,,,,,,,0,,,80,49
33360,note_on,1440,0,4,,,,,,,,,3,,,68,36
33360,note_on,120,0,3,,,,,,,,,2,,,69,0
33360,note_on,0,0,1,,,,,,,,,0,,,78,49
33360,control_change,0,0,1,,,,,,,,,0,64,127,,
33360,note_on,60,0,1,,,,,,,,,0,,,80,0
33420,note_on,0,0,1,,,,,,,,,0,,,76,49
33420,note_on,60,0,1,,,,,,,,,0,,,78,0
33480,note_on,60,0,1,,,,,,,,,0,,,76,0
33480,note_on,0,0,1,,,,,,,,,0,,,71,49
33480,note_on,120,0,3,,,,,,,,,2,,,64,36
33540,note_on,60,0,1,,,,,,,,,0,,,71,0
33540,note_on,0,0,1,,,,,,,,,0,,,76,49
33600,note_on,120,0,3,,,,,,,,,2,,,64,0
33600,note_on,0,0,1,,,,,,,,,0,,,80,49
33600,note_on,0,0,3,,,,,,,,,2,,,63,36
33600,note_on,60,0,1,,,,,,,,,0,,,76,0
33600,control_change,0,0,1,,,,,,,,,0,64,0,,
33600,note_on,0,0,4,,,,,,,,,3,,,69,36
33600,note_on,240,0,4,,,,,,,,,3,,,68,0
33660,note_on,60,0,1,,,,,,,,,0,,,80,0
33660,note_on,0,0,1,,,,,,,,,0,,,78,49
33720,note_on,0,0,3,,,,,,,,,2,,,59,36
33720,note_on,120,0,3,,,,,,,,,2,,,63,0
33720,note_on,60,0,1,,,,,,,,,0,,,78,0
33720,note_on,0,0,1,,,,,,,,,0,,,71,49
33780,note_on,60,0,1,,,,,,,,,0,,,71,0
33780,note_on,0,0,1,,,,,,,,,0,,,78,49
33840,note_on,120,0,3,,,,,,,,,2,,,59,0
33840,note_on,0,0,4,,,,,,,,,3,,,68,36
33840,note_on,240,0,4,,,,,,,,,3,,,69,0
33840,note_on,60,0,1,,,,,,,,,0,,,78,0
33840,control_change,0,0,1,,,,,,,,,0,64,127,,
33840,note_on,0,0,1,,,,,,,,,0,,,75,49
33900,note_on,60,0,1,,,,,,,,,0,,,75,0
33900,note_on,0,0,1,,,,,,,,,0,,,76,49
33960,note_on,120,0,3,,,,,,,,,2,,,64,36
33960,note_on,60,0,1,,,,,,,,,0,,,76,0
33960,note_on,0,0,1,,,,,,,,,0,,,71,49
34020,note_on,0,0,1,,,,,,,,,0,,,76,49
34020,note_on,60,0,1,,,,,,,,,0,,,71,0
34080,note_on,0,0,1,,,,,,,,,0,,,80,49
34080,note_on,0,0,4,,,,,,,,,3,,,69,36
34080,note_on,0,0,3,,,,,,,,,2,,,63,36
34080,note_on,120,0,3,,,,,,,,,2,,,64,0
34080,note_on,60,0,1,,,,,,,,,0,,,76,0
34080,control_change,0,0,1,,,,,,,,,0,64,0,,
34080,note_on,240,0,4,,,,,,,,,3,,,68,0
34140,note_on,0,0,1,,,,,,,,,0,,,78,49
34140,note_on,60,0,1,,,,,,,,,0,,,80,0
34200,note_on,120,0,3,,,,,,,,,2,,,63,0
34200,note_on,60,0,1,,,,,,,,,0,,,78,0
34200,note_on,0,0,1,,,,,,,,,0,,,71,49
34200,note_on,0,0,3,,,,,,,,,2,,,59,36
34260,note_on,60,0,1,,,,,,,,,0,,,71,0
34260,note_on,0,0,1,,,,,,,,,0,,,78,49
34320,note_on,60,0,1,,,,,,,,,0,,,78,0
34320,note_on,0,0,1,,,,,,,,,0,,,64,101
34320,note_on,240,0,4,,,,,,,,,3,,,69,0
34320,note_on,0,0,3,,,,,,,,,2,,,52,88
34320,note_on,120,0,3,,,,,,,,,2,,,59,0
34344,note_on,24,0,3,,,,,,,,,2,,,52,0
34344,note_on,24,0,1,,,,,,,,,0,,,64,0
34344,note_on,0,0,1,,,,,,,,,0,,,66,101
34344,note_on,0,0,3,,,,,,,,,2,,,54,88
34368,note_on,0,0,3,,,,,,,,,2,,,52,88
34368,note_on,24,0,3,,,,,,,,,2,,,54,0
34368,note_on,24,0,1,,,,,,,,,0,,,66,0
34368,note_on,0,0,1,,,,,,,,,0,,,64,101
34391,note_on,23,0,1,,,,,,,,,0,,,66,101
34391,note_on,23,0,3,,,,,,,,,2,,,54,88
34392,note_on,1,0,1,,,,,,,,,0,,,64,0
34392,note_on,1,0,3,,,,,,,,,2,,,52,0
34415,note_on,0,0,3,,,,,,,,,2,,,52,88
34415,note_on,23,0,3,,,,,,,,,2,,,54,0
34415,note_on,0,0,1,,,,,,,,,0,,,64,101
34415,note_on,23,0,1,,,,,,,,,0,,,66,0
34439,note_on,24,0,1,,,,,,,,,0,,,64,0
34439,note_on,24,0,3,,,,,,,,,2,,,52,0
34440,note_on,1,0,1,,,,,,,,,0,,,63,101
34440,note_on,1,0,3,,,,,,,,,2,,,51,88
34500,note_on,60,0,3,,,,,,,,,2,,,51,0
34500,note_on,0,0,3,,,,,,,,,2,,,49,88
34500,note_on,60,0,1,,,,,,,,,0,,,63,0
34500,note_on,0,0,1,,,,,,,,,0,,,61,101
34560,note_on,60,0,3,,,,,,,,,2,,,49,0
34560,note_on,0,0,3,,,,,,,,,2,,,47,88
34560,note_on,0,0,1,,,,,,,,,0,,,59,101
34560,note_on,60,0,1,,,,,,,,,0,,,61,0
34620,note_on,60,0,1,,,,,,,,,0,,,59,0
34620,note_on,0,0,1,,,,,,,,,0,,,76,49
34620,note_on,60,0,3,,,,,,,,,2,,,47,0
34680,note_on,60,0,1,,,,,,,,,0,,,76,0
34680,note_on,60,0,3,,,,,,,,,2,,,56,36
34680,note_on,0,0,1,,,,,,,,,0,,,71,49
34680,note_on,0,0,3,,,,,,,,,2,,,64,36
34740,note_on,60,0,1,,,,,,,,,0,,,71,0
34740,note_on,0,0,1,,,,,,,,,0,,,80,49
34800,note_on,120,0,3,,,,,,,,,2,,,64,0
34800,note_on,0,0,3,,,,,,,,,2,,,56,0
34800,note_on,0,0,3,,,,,,,,,2,,,61,36
34800,note_on,480,0,4,,,,,,,,,3,,,57,36
34800,note_on,0,0,1,,,,,,,,,0,,,73,49
34800,note_on,60,0,1,,,,,,,,,0,,,80,0
34860,note_on,60,0,1,,,,,,,,,0,,,73,0
34860,note_on,0,0,1,,,,,,,,,0,,,78,49
34920,note_on,0,0,3,,,,,,,,,2,,,66,36
34920,note_on,120,0,3,,,,,,,,,2,,,61,0
34920,note_on,0,0,1,,,,,,,,,0,,,73,49
34920,note_on,60,0,1,,,,,,,,,0,,,78,0
34980,note_on,60,0,1,,,,,,,,,0,,,73,0
34980,note_on,0,0,1,,,,,,,,,0,,,85,49
35040,note_on,0,0,1,,,,,,,,,0,,,80,49
35040,note_on,0,0,4,,,,,,,,,3,,,59,36
35040,note_on,0,0,3,,,,,,,,,2,,,68,36
35040,note_on,120,0,3,,,,,,,,,2,,,66,0
35040,note_on,60,0,1,,,,,,,,,0,,,85,0
35040,note_on,240,0,4,,,,,,,,,3,,,57,0
35100,note_on,60,0,1,,,,,,,,,0,,,80,0
35100,note_on,0,0,1,,,,,,,,,0,,,83,49
35160,note_on,60,0,1,,,,,,,,,0,,,83,0
35160,note_on,0,0,1,,,,,,,,,0,,,78,49
35160,note_on,120,0,3,,,,,,,,,2,,,68,0
35160,note_on,0,0,3,,,,,,,,,2,,,69,36
35220,note_on,60,0,1,,,,,,,,,0,,,78,0
35220,note_on,0,0,1,,,,,,,,,0,,,90,49
35280,note_on,0,0,3,,,,,,,,,2,,,52,75
35280,note_on,0,0,1,,,,,,,,,0,,,64,88
35280,note_on,60,0,1,,,,,,,,,0,,,90,0
35280,note_on,240,0,4,,,,,,,,,3,,,59,0
35280,note_on,120,0,3,,,,,,,,,2,,,69,0
35304,note_on,24,0,3,,,,,,,,,2,,,52,0
35304,note_on,0,0,3,,,,,,,,,2,,,54,75
35304,note_on,24,0,1,,,,,,,,,0,,,64,0
35304,note_on,0,0,1,,,,,,,,,0,,,66,88
35328,note_on,24,0,3,,,,,,,,,2,,,54,0
35328,note_on,0,0,3,,,,,,,,,2,,,52,75
35328,note_on,24,0,1,,,,,,,,,0,,,66,0
35328,note_on,0,0,1,,,,,,,,,0,,,64,88
35351,note_on,23,0,3,,,,,,,,,2,,,54,75
35351,note_on,23,0,1,,,,,,,,,0,,,66,88
35352,note_on,1,0,3,,,,,,,,,2,,,52,0
35352,note_on,1,0,1,,,,,,,,,0,,,64,0
35375,note_on,0,0,3,,,,,,,,,2,,,52,75
35375,note_on,23,0,3,,,,,,,,,2,,,54,0
35375,note_on,23,0,1,,,,,,,,,0,,,66,0
35375,note_on,0,0,1,,,,,,,,,0,,,64,88
35399,note_on,24,0,3,,,,,,,,,2,,,52,0
35399,note_on,24,0,1,,,,,,,,,0,,,64,0
35400,note_on,1,0,3,,,,,,,,,2,,,51,75
35400,note_on,1,0,1,,,,,,,,,0,,,63,88
35460,note_on,60,0,3,,,,,,,,,2,,,51,0
35460,note_on,0,0,3,,,,,,,,,2,,,49,75
35460,note_on,0,0,1,,,,,,,,,0,,,61,88
35460,note_on,60,0,1,,,,,,,,,0,,,63,0
35520,note_on,0,0,1,,,,,,,,,0,,,59,88
35520,note_on,60,0,1,,,,,,,,,0,,,61,0
35520,note_on,0,0,3,,,,,,,,,2,,,47,75
35520,note_on,60,0,3,,,,,,,,,2,,,49,0
35580,note_on,60,0,3,,,,,,,,,2,,,47,0
35580,note_on,0,0,1,,,,,,,,,0,,,76,49
35580,note_on,60,0,1,,,,,,,,,0,,,59,0
35640,note_on,0,0,1,,,,,,,,,0,,,71,49
35640,note_on,60,0,1,,,,,,,,,0,,,76,0
35640,note_on,0,0,3,,,,,,,,,2,,,64,36
35640,note_on,60,0,3,,,,,,,,,2,,,56,36
35700,note_on,0,0,1,,,,,,,,,0,,,80,49
35700,note_on,60,0,1,,,,,,,,,0,,,71,0
35760,note_on,0,0,1,,,,,,,,,0,,,73,49
35760,note_on,120,0,3,,,,,,,,,2,,,64,0
35760,note_on,60,0,1,,,,,,,,,0,,,80,0
35760,note_on,0,0,3,,,,,,,,,2,,,56,0
35760,note_on,0,0,3,,,,,,,,,2,,,61,36
35760,note_on,480,0,4,,,,,,,,,3,,,57,36
35820,note_on,60,0,1,,,,,,,,,0,,,73,0
35820,note_on,0,0,1,,,,,,,,,0,,,78,49
35880,note_on,0,0,1,,,,,,,,,0,,,73,49
35880,note_on,60,0,1,,,,,,,,,0,,,78,0
35880,note_on,120,0,3,,,,,,,,,2,,,61,0
35880,note_on,0,0,3,,,,,,,,,2,,,66,36
35940,note_on,0,0,1,,,,,,,,,0,,,85,49
35940,note_on,60,0,1,,,,,,,,,0,,,73,0
36000,note_on,120,0,3,,,,,,,,,2,,,66,0
36000,note_on,0,0,1,,,,,,,,,0,,,80,49
36000,note_on,60,0,1,,,,,,,,,0,,,85,0
36000,note_on,240,0,4,,,,,,,,,3,,,57,0
36000,note_on,0,0,4,,,,,,,,,3,,,59,36
36000,note_on,0,0,3,,,,,,,,,2,,,68,36
36060,note_on,0,0,1,,,,,,,,,0,,,83,49
36060,note_on,60,0,1,,,,,,,,,0,,,80,0
36120,note_on,120,0,3,,,,,,,,,2,,,68,0
36120,note_on,0,0,3,,,,,,,,,2,,,69,36
36120,note_on,60,0,1,,,,,,,,,0,,,83,0
36120,note_on,0,0,1,,,,,,,,,0,,,78,49
36180,note_on,0,0,1,,,,,,,,,0,,,90,49
36180,note_on,60,0,1,,,,,,,,,0,,,78,0
36240,note_on,0,0,3,,,,,,,,,2,,,52,75
36240,note_on,120,0,3,,,,,,,,,2,,,69,0
36240,note_on,60,0,1,,,,,,,,,0,,,90,0
36240,note_on,0,0,1,,,,,,,,,0,,,64,88
36240,note_on,240,0,4,,,,,,,,,3,,,59,0
36264,note_on,0,0,1,,,,,,,,,0,,,66,88
36264,note_on,24,0,3,,,,,,,,,2,,,52,0
36264,note_on,0,0,3,,,,,,,,,2,,,54,75
36264,note_on,24,0,1,,,,,,,,,0,,,64,0
36288,note_on,24,0,1,,,,,,,,,0,,,66,0
36288,note_on,0,0,1,,,,,,,,,0,,,64,88
36288,note_on,24,0,3,,,,,,,,,2,,,54,0
36288,note_on,0,0,3,,,,,,,,,2,,,52,75
36311,note_on,23,0,1,,,,,,,,,0,,,66,88
36311,note_on,23,0,3,,,,,,,,,2,,,54,75
36312,note_on,1,0,3,,,,,,,,,2,,,52,0
36312,note_on,1,0,1,,,,,,,,,0,,,64,0
36335,note_on,23,0,1,,,,,,,,,0,,,66,0
36335,note_on,0,0,1,,,,,,,,,0,,,64,88
36335,note_on,23,0,3,,,,,,,,,2,,,54,0
36335,note_on,0,0,3,,,,,,,,,2,,,52,75
36359,note_on,24,0,1,,,,,,,,,0,,,64,0
36359,note_on,24,0,3,,,,,,,,,2,,,52,0
36360,note_on,1,0,3,,,,,,,,,2,,,51,75
36360,note_on,1,0,1,,,,,,,,,0,,,63,88
36420,note_on,0,0,3,,,,,,,,,2,,,49,75
36420,note_on,60,0,3,,,,,,,,,2,,,51,0
36420,note_on,60,0,1,,,,,,,,,0,,,63,0
36420,note_on,0,0,1,,,,,,,,,0,,,61,88
36480,note_on,0,0,3,,,,,,,,,2,,,48,75
36480,note_on,60,0,3,,,,,,,,,2,,,49,0
36480,note_on,0,0,1,,,,,,,,,0,,,60,88
36480,note_on,60,0,1,,,,,,,,,0,,,61,0
36540,note_on,0,0,1,,,,,,,,,0,,,87,88
36540,note_on,60,0,1,,,,,,,,,0,,,60,0
36540,note_on,60,0,3,,,,,,,,,2,,,48,0
36600,note_on,0,0,3,,,,,,,,,2,,,68,101
36600,note_on,0,0,3,,,,,,,,,2,,,63,101
36600,note_on,0,0,1,,,,,,,,,0,,,80,114
36600,note_on,60,0,1,,,,,,,,,0,,,87,0
36600,note_on,60,0,3,,,,,,,,,2,,,60,101
36660,note_on,0,0,1,,,,,,,,,0,,,92,114
36660,note_on,60,0,1,,,,,,,,,0,,,80,0
36720,note_on,0,0,3,,,,,,,,,2,,,52,75
36720,note_on,0,0,3,,,,,,,,,2,,,60,0
36720,note_on,0,0,3,,,,,,,,,2,,,63,0
36720,note_on,120,0,3,,,,,,,,,2,,,68,0
36720,note_on,60,0,1,,,,,,,,,0,,,92,0
36720,note_on,0,0,1,,,,,,,,,0,,,64,88
36744,note_on,24,0,3,,,,,,,,,2,,,52,0
36744,note_on,0,0,3,,,,,,,,,2,,,54,75
36744,note_on,24,0,1,,,,,,,,,0,,,64,0
36744,note_on,0,0,1,,,,,,,,,0,,,66,88
36768,note_on,0,0,3,,,,,,,,,2,,,52,75
36768,note_on,24,0,3,,,,,,,,,2,,,54,0
36768,note_on,24,0,1,,,,,,,,,0,,,66,0
36768,note_on,0,0,1,,,,,,,,,0,,,64,88
36791,note_on,23,0,3,,,,,,,,,2,,,54,75
36791,note_on,23,0,1,,,,,,,,,0,,,66,88
36792,note_on,1,0,1,,,,,,,,,0,,,64,0
36792,note_on,1,0,3,,,,,,,,,2,,,52,0
36815,note_on,23,0,1,,,,,,,,,0,,,66,0
36815,note_on,0,0,1,,,,,,,,,0,,,64,88
36815,note_on,23,0,3,,,,,,,,,2,,,54,0
36815,note_on,0,0,3,,,,,,,,,2,,,52,75
36839,note_on,24,0,1,,,,,,,,,0,,,64,0
36839,note_on,24,0,3,,,,,,,,,2,,,52,0
36840,note_on,1,0,1,,,,,,,,,0,,,63,88
36840,note_on,1,0,3,,,,,,,,,2,,,51,75
36900,note_on,0,0,1,,,,,,,,,0,,,61,88
36900,note_on,60,0,1,,,,,,,,,0,,,63,0
36900,note_on,60,0,3,,,,,,,,,2,,,51,0
36900,note_on,0,0,3,,,,,,,,,2,,,49,75
36960,note_on,60,0,1,,,,,,,,,0,,,61,0
36960,note_on,0,0,3,,,,,,,,,2,,,48,75
36960,note_on,60,0,3,,,,,,,,,2,,,49,0
36960,note_on,0,0,1,,,,,,,,,0,,,60,88
37020,note_on,60,0,1,,,,,,,,,0,,,60,0
37020,note_on,0,0,1,,,,,,,,,0,,,87,88
37020,note_on,60,0,3,,,,,,,,,2,,,48,0
37080,note_on,0,0,3,,,,,,,,,2,,,68,101
37080,note_on,0,0,3,,,,,,,,,2,,,63,101
37080,note_on,60,0,3,,,,,,,,,2,,,60,101
37080,note_on,60,0,1,,,,,,,,,0,,,87,0
37080,note_on,0,0,1,,,,,,,,,0,,,80,114
37140,note_on,60,0,1,,,,,,,,,0,,,80,0
37140,note_on,0,0,1,,,,,,,,,0,,,92,114
37200,note_on,60,0,1,,,,,,,,,0,,,92,0
37200,note_on,120,0,3,,,,,,,,,2,,,68,0
37200,note_on,0,0,3,,,,,,,,,2,,,63,0
37200,note_on,0,0,3,,,,,,,,,2,,,60,0
37260,note_on,0,0,1,,,,,,,,,0,,,75,36
37260,control_change,60,0,1,,,,,,,,,0,64,127,,
37320,note_on,0,0,3,,,,,,,,,2,,,63,36
37320,note_on,0,0,3,,,,,,,,,2,,,60,36
37320,control_change,120,0,3,,,,,,,,,2,64,127,,
37320,note_on,60,0,1,,,,,,,,,0,,,75,0
37320,note_on,0,0,1,,,,,,,,,0,,,68,36
37380,note_on,0,0,1,,,,,,,,,0,,,80,36
37380,note_on,60,0,1,,,,,,,,,0,,,68,0
37440,note_on,120,0,3,,,,,,,,,2,,,63,0
37440,note_on,0,0,3,,,,,,,,,2,,,63,36
37440,note_on,60,0,1,,,,,,,,,0,,,80,0
37440,note_on,0,0,1,,,,,,,,,0,,,68,36
37440,note_on,0,0,3,,,,,,,,,2,,,60,36
37440,note_on,0,0,3,,,,,,,,,2,,,60,0
37500,note_on,60,0,1,,,,,,,,,0,,,68,0
37500,note_on,0,0,1,,,,,,,,,0,,,80,36
37560,note_on,0,0,3,,,,,,,,,2,,,60,36
37560,note_on,0,0,3,,,,,,,,,2,,,60,0
37560,note_on,120,0,3,,,,,,,,,2,,,63,0
37560,note_on,0,0,3,,,,,,,,,2,,,63,36
37560,note_on,0,0,1,,,,,,,,,0,,,68,36
37560,note_on,60,0,1,,,,,,,,,0,,,80,0
37620,note_on,60,0,1,,,,,,,,,0,,,68,0
37620,note_on,0,0,1,,,,,,,,,0,,,80,36
37680,note_on,0,0,3,,,,,,,,,2,,,60,36
37680,note_on,0,0,3,,,,,,,,,2,,,60,0
37680,note_on,0,0,3,,,,,,,,,2,,,63,36
37680,note_on,0,0,1,,,,,,,,,0,,,68,36
37680,note_on,60,0,1,,,,,,,,,0,,,80,0
37680,note_on,120,0,3,,,,,,,,,2,,,63,0
37740,note_on,60,0,1,,,,,,,,,0,,,68,0
37740,note_on,0,0,1,,,,,,,,,0,,,80,36
37800,note_on,0,0,1,,,,,,,,,0,,,68,36
37800,note_on,0,0,3,,,,,,,,,2,,,60,36
37800,control_change,0,0,3,,,,,,,,,2,64,0,,
37800,note_on,0,0,3,,,,,,,,,2,,,60,0
37800,note_on,60,0,1,,,,,,,,,0,,,80,0
37800,note_on,0,0,3,,,,,,,,,2,,,63,36
37800,note_on,120,0,3,,,,,,,,,2,,,63,0
37860,note_on,60,0,1,,,,,,,,,0,,,68,0
37860,control_change,0,0,1,,,,,,,,,0,64,0,,
37860,note_on,0,0,1,,,,,,,,,0,,,80,36
37920,control_change,0,0,1,,,,,,,,,0,64,127,,
37920,note_on,0,0,3,,,,,,,,,2,,,60,0
37920,note_on,1680,0,4,,,,,,,,,3,,,60,36
37920,note_on,60,0,1,,,,,,,,,0,,,80,0
37920,note_on,120,0,3,,,,,,,,,2,,,63,0
37920,note_on,0,0,1,,,,,,,,,0,,,75,36
37944,note_on,24,0,1,,,,,,,,,0,,,75,0
37944,note_on,0,0,1,,,,,,,,,0,,,77,36
37968,note_on,24,0,1,,,,,,,,,0,,,77,0
37968,note_on,0,0,1,,,,,,,,,0,,,75,36
37991,note_on,23,0,1,,,,,,,,,0,,,77,36
37992,note_on,1,0,1,,,,,,,,,0,,,75,0
38015,note_on,0,0,1,,,,,,,,,0,,,75,36
38015,note_on,23,0,1,,,,,,,,,0,,,77,0
38039,note_on,24,0,1,,,,,,,,,0,,,75,0
38040,note_on,120,0,3,,,,,,,,,2,,,68,36
38040,note_on,1,0,1,,,,,,,,,0,,,73,36
38100,note_on,0,0,1,,,,,,,,,0,,,72,36
38100,control_change,0,0,1,,,,,,,,,0,64,0,,
38100,note_on,60,0,1,,,,,,,,,0,,,73,0
38160,note_on,240,0,4,,,,,,,,,3,,,60,0
38160,note_on,0,0,4,,,,,,,,,3,,,61,36
38160,note_on,0,0,1,,,,,,,,,0,,,70,36
38160,control_change,0,0,1,,,,,,,,,0,64,127,,
38160,note_on,60,0,1,,,,,,,,,0,,,72,0
38220,note_on,0,0,1,,,,,,,,,0,,,77,36
38220,note_on,60,0,1,,,,,,,,,0,,,70,0
38280,note_on,60,0,1,,,,,,,,,0,,,77,0
38280,note_on,240,0,3,,,,,,,,,2,,,68,0
38280,note_on,0,0,1,,,,,,,,,0,,,70,36
38280,note_on,0,0,3,,,,,,,,,2,,,68,36
38340,note_on,60,0,1,,,,,,,,,0,,,70,0
38340,control_change,0,0,1,,,,,,,,,0,64,0,,
38340,note_on,0,0,1,,,,,,,,,0,,,82,36
38400,control_change,0,0,1,,,,,,,,,0,64,127,,
38400,note_on,240,0,4,,,,,,,,,3,,,61,0
38400,note_on,0,0,4,,,,,,,,,3,,,63,36
38400,note_on,60,0,1,,,,,,,,,0,,,82,0
38400,note_on,0,0,1,,,,,,,,,0,,,78,36
38424,note_on,0,0,1,,,,,,,,,0,,,80,36
38424,note_on,24,0,1,,,,,,,,,0,,,78,0
38448,note_on,24,0,1,,,,,,,,,0,,,80,0
38448,note_on,0,0,1,,,,,,,,,0,,,78,36
38471,note_on,23,0,1,,,,,,,,,0,,,80,36
38472,note_on,1,0,1,,,,,,,,,0,,,78,0
38495,note_on,0,0,1,,,,,,,,,0,,,78,36
38495,note_on,23,0,1,,,,,,,,,0,,,80,0
38519,note_on,24,0,1,,,,,,,,,0,,,78,0
38520,note_on,0,0,3,,,,,,,,,2,,,68,36
38520,note_on,240,0,3,,,,,,,,,2,,,68,0
38520,note_on,1,0,1,,,,,,,,,0,,,77,36
38580,control_change,0,0,1,,,,,,,,,0,64,0,,
38580,note_on,60,0,1,,,,,,,,,0,,,77,0
38580,note_on,0,0,1,,,,,,,,,0,,,75,36
38640,note_on,240,0,4,,,,,,,,,3,,,63,0
38640,control_change,0,0,4,,,,,,,,,3,64,127,,
38640,note_on,0,0,4,,,,,,,,,3,,,65,36
38640,control_change,120,0,3,,,,,,,,,2,64,127,,
38640,control_change,0,0,1,,,,,,,,,0,64,127,,
38640,note_on,60,0,1,,,,,,,,,0,,,75,0
38640,note_on,0,0,1,,,,,,,,,0,,,70,36
38700,note_on,60,0,1,,,,,,,,,0,,,70,0
38700,note_on,0,0,1,,,,,,,,,0,,,77,36
38760,note_on,60,0,1,,,,,,,,,0,,,77,0
38760,note_on,0,0,1,,,,,,,,,0,,,70,36
38760,note_on,120,0,3,,,,,,,,,2,,,68,0
38760,note_on,0,0,3,,,,,,,,,2,,,68,36
38820,note_on,60,0,1,,,,,,,,,0,,,70,0
38820,control_change,0,0,1,,,,,,,,,0,64,0,,
38820,note_on,0,0,1,,,,,,,,,0,,,82,36
38880,note_on,0,0,1,,,,,,,,,0,,,70,36
38880,control_change,0,0,1,,,,,,,,,0,64,127,,
38880,note_on,60,0,1,,,,,,,,,0,,,82,0
38880,note_on,240,0,4,,,,,,,,,3,,,65,0
38880,note_on,0,0,4,,,,,,,,,3,,,65,36
38940,note_on,60,0,1,,,,,,,,,0,,,70,0
38940,note_on,0,0,1,,,,,,,,,0,,,77,36
39000,note_on,240,0,3,,,,,,,,,2,,,68,0
39000,note_on,0,0,3,,,,,,,,,2,,,68,36
39000,note_on,60,0,1,,,,,,,,,0,,,77,0
39000,note_on,0,0,1,,,,,,,,,0,,,70,36
39060,control_change,0,0,1,,,,,,,,,0,64,0,,
39060,note_on,0,0,1,,,,,,,,,0,,,82,36
39060,note_on,60,0,1,,,,,,,,,0,,,70,0
39120,control_change,0,0,1,,,,,,,,,0,64,127,,
39120,note_on,60,0,1,,,,,,,,,0,,,82,0
39120,note_on,240,0,4,,,,,,,,,3,,,65,0
39120,note_on,0,0,4,,,,,,,,,3,,,65,36
39120,note_on,0,0,1,,,,,,,,,0,,,70,36
39180,note_on,60,0,1,,,,,,,,,0,,,70,0
39180,note_on,0,0,1,,,,,,,,,0,,,77,36
39240,note_on,0,0,3,,,,,,,,,2,,,68,36
39240,control_change,0,0,3,,,,,,,,,2,64,0,,
39240,note_on,240,0,3,,,,,,,,,2,,,68,0
39240,note_on,0,0,1,,,,,,,,,0,,,70,36
39240,note_on,60,0,1,,,,,,,,,0,,,77,0
39300,note_on,0,0,1,,,,,,,,,0,,,82,36
39300,control_change,0,0,1,,,,,,,,,0,64,0,,
39300,note_on,60,0,1,,,,,,,,,0,,,70,0
39360,note_on,240,0,4,,,,,,,,,3,,,65,0
39360,control_change,0,0,4,,,,,,,,,3,64,127,,
39360,control_change,120,0,3,,,,,,,,,2,64,127,,
39360,note_on,60,0,1,,,,,,,,,0,,,82,0
39360,note_on,0,0,1,,,,,,,,,0,,,73,36
39360,note_on,0,0,4,,,,,,,,,3,,,64,36
39360,control_change,0,0,1,,,,,,,,,0,64,127,,
39420,note_on,60,0,1,,,,,,,,,0,,,73,0
39420,note_on,0,0,1,,,,,,,,,0,,,80,36
39480,note_on,60,0,1,,,,,,,,,0,,,80,0
39480,note_on,0,0,1,,,,,,,,,0,,,73,36
39480,note_on,0,0,3,,,,,,,,,2,,,68,36
39480,note_on,120,0,3,,,,,,,,,2,,,68,0
39540,note_on,60,0,1,,,,,,,,,0,,,73,0
39540,note_on,0,0,1,,,,,,,,,0,,,85,36
39600,note_on,0,0,1,,,,,,,,,0,,,73,36
39600,note_on,60,0,1,,,,,,,,,0,,,85,0
39600,control_change,0,0,4,,,,,,,,,3,64,0,,
39600,note_on,0,0,4,,,,,,,,,3,,,64,36
39600,note_on,240,0,4,,,,,,,,,3,,,64,0
39660,note_on,0,0,1,,,,,,,,,0,,,80,36
39660,note_on,60,0,1,,,,,,,,,0,,,73,0
39720,note_on,0,0,1,,,,,,,,,0,,,73,36
39720,note_on,240,0,3,,,,,,,,,2,,,68,0
39720,control_change,0,0,3,,,,,,,,,2,64,0,,
39720,note_on,0,0,3,,,,,,,,,2,,,68,36
39720,note_on,60,0,1,,,,,,,,,0,,,80,0
39780,note_on,60,0,1,,,,,,,,,0,,,73,0
39780,note_on,0,0,1,,,,,,,,,0,,,85,36
39780,control_change,0,0,1,,,,,,,,,0,64,0,,
39840,note_on,0,0,1,,,,,,,,,0,,,83,49
39840,control_change,0,0,1,,,,,,,,,0,64,127,,
39840,note_on,60,0,1,,,,,,,,,0,,,85,0
39840,note_on,120,0,3,,,,,,,,,2,,,68,0
39840,note_on,0,0,4,,,,,,,,,3,,,56,36
39840,note_on,240,0,4,,,,,,,,,3,,,64,0
39864,note_on,24,0,1,,,,,,,,,0,,,83,0
39864,note_on,0,0,1,,,,,,,,,0,,,85,49
39888,note_on,24,0,1,,,,,,,,,0,,,85,0
39888,note_on,0,0,1,,,,,,,,,0,,,83,49
39911,note_on,23,0,1,,,,,,,,,0,,,85,49
39912,note_on,1,0,1,,,,,,,,,0,,,83,0
39935,note_on,0,0,1,,,,,,,,,0,,,83,49
39935,note_on,23,0,1,,,,,,,,,0,,,85,0
39959,note_on,24,0,1,,,,,,,,,0,,,83,0
39960,note_on,120,0,3,,,,,,,,,2,,,59,36
39960,note_on,0,0,3,,,,,,,,,2,,,64,36
39960,note_on,1,0,1,,,,,,,,,0,,,81,49
40020,note_on,0,0,1,,,,,,,,,0,,,80,49
40020,control_change,0,0,1,,,,,,,,,0,64,0,,
40020,note_on,60,0,1,,,,,,,,,0,,,81,0
40080,note_on,120,0,3,,,,,,,,,2,,,64,0
40080,note_on,0,0,4,,,,,,,,,3,,,57,49
40080,note_on,240,0,4,,,,,,,,,3,,,56,0
40080,note_on,60,0,1,,,,,,,,,0,,,80,0
40080,control_change,0,0,1,,,,,,,,,0,64,127,,
40080,note_on,0,0,1,,,,,,,,,0,,,78,62
40080,note_on,0,0,3,,,,,,,,,2,,,59,0
40140,note_on,60,0,1,,,,,,,,,0,,,78,0
40140,note_on,0,0,1,,,,,,,,,0,,,85,62
40200,note_on,0,0,1,,,,,,,,,0,,,78,62
40200,note_on,60,0,1,,,,,,,,,0,,,85,0
40200,note_on,120,0,3,,,,,,,,,2,,,61,49
40200,note_on,0,0,3,,,,,,,,,2,,,66,49
40260,note_on,60,0,1,,,,,,,,,0,,,78,0
40260,control_change,0,0,1,,,,,,,,,0,64,0,,
40260,note_on,0,0,1,,,,,,,,,0,,,90,62
40320,note_on,60,0,1,,,,,,,,,0,,,90,0
40320,control_change,0,0,1,,,,,,,,,0,64,127,,
40320,note_on,0,0,1,,,,,,,,,0,,,83,75
40320,note_on,120,0,3,,,,,,,,,2,,,66,0
40320,note_on,0,0,3,,,,,,,,,2,,,61,0
40320,note_on,240,0,4,,,,,,,,,3,,,57,0
40320,note_on,0,0,4,,,,,,,,,3,,,59,62
40380,note_on,60,0,1,,,,,,,,,0,,,83,0
40380,note_on,0,0,1,,,,,,,,,0,,,90,75
40440,note_on,0,0,3,,,,,,,,,2,,,69,62
40440,note_on,60,0,1,,,,,,,,,0,,,90,0
40440,note_on,0,0,1,,,,,,,,,0,,,83,75
40440,note_on,120,0,3,,,,,,,,,2,,,63,62
40500,control_change,0,0,1,,,,,,,,,0,64,0,,
40500,note_on,0,0,1,,,,,,,,,0,,,95,75
40500,note_on,60,0,1,,,,,,,,,0,,,83,0
40560,control_change,0,0,1,,,,,,,,,0,64,127,,
40560,note_on,60,0,1,,,,,,,,,0,,,95,0
40560,note_on,240,0,4,,,,,,,,,3,,,59,0
40560,note_on,0,0,3,,,,,,,,,2,,,63,0
40560,note_on,0,0,3,,,,,,,,,2,,,52,88
40560,note_on,0,0,1,,,,,,,,,0,,,64,101
40560,note_on,120,0,3,,,,,,,,,2,,,69,0
40584,note_on,0,0,1,,,,,,,,,0,,,66,101
40584,note_on,24,0,1,,,,,,,,,0,,,64,0
40608,note_on,0,0,1,,,,,,,,,0,,,64,101
40608,note_on,24,0,1,,,,,,,,,0,,,66,0
40631,note_on,23,0,1,,,,,,,,,0,,,66,101
40632,note_on,1,0,1,,,,,,,,,0,,,64,0
40655,note_on,23,0,1,,,,,,,,,0,,,66,0
40655,note_on,0,0,1,,,,,,,,,0,,,64,101
40679,note_on,24,0,1,,,,,,,,,0,,,64,0
40680,note_on,1,0,1,,,,,,,,,0,,,63,101
40680,note_on,120,0,3,,,,,,,,,2,,,52,0
40740,note_on,60,0,1,,,,,,,,,0,,,63,0
40740,note_on,0,0,1,,,,,,,,,0,,,61,101
40740,control_change,0,0,1,,,,,,,,,0,64,0,,
40800,note_on,240,0,4,,,,,,,,,3,,,45,114
40800,note_on,0,0,1,,,,,,,,,0,,,59,101
40800,note_on,60,0,1,,,,,,,,,0,,,61,0
40800,note_on,120,0,3,,,,,,,,,2,,,47,114
40860,note_on,60,0,1,,,,,,,,,0,,,59,0
40920,note_on,120,0,4,,,,,,,,,3,,,45,0
40920,note_on,0,0,4,,,,,,,,,3,,,44,88
40980,note_on,0,0,4,,,,,,,,,3,,,42,88
40980,note_on,60,0,4,,,,,,,,,3,,,44,0
41040,note_on,60,0,4,,,,,,,,,3,,,42,0
41040,note_on,0,0,4,,,,,,,,,3,,,40,88
41040,note_on,0,0,1,,,,,,,,,0,,,64,101
41040,control_change,180,0,1,,,,,,,,,0,64,127,,
41064,note_on,0,0,1,,,,,,,,,0,,,66,101
41064,note_on,24,0,1,,,,,,,,,0,,,64,0
41088,note_on,0,0,1,,,,,,,,,0,,,64,101
41088,note_on,24,0,1,,,,,,,,,0,,,66,0
41100,note_on,300,0,3,,,,,,,,,2,,,47,0
41100,note_on,60,0,4,,,,,,,,,3,,,40,0
41111,note_on,23,0,1,,,,,,,,,0,,,66,101
41112,note_on,1,0,1,,,,,,,,,0,,,64,0
41135,note_on,0,0,1,,,,,,,,,0,,,64,101
41135,note_on,23,0,1,,,,,,,,,0,,,66,0
41159,note_on,24,0,1,,,,,,,,,0,,,64,0
41160,note_on,1,0,1,,,,,,,,,0,,,63,101
41220,note_on,60,0,1,,,,,,,,,0,,,63,0
41220,control_change,0,0,1,,,,,,,,,0,64,0,,
41220,note_on,0,0,1,,,,,,,,,0,,,61,101
41280,note_on,60,0,1,,,,,,,,,0,,,61,0
41280,note_on,0,0,1,,,,,,,,,0,,,59,101
41280,note_on,180,0,3,,,,,,,,,2,,,47,114
41280,note_on,180,0,4,,,,,,,,,3,,,45,114
41340,note_on,60,0,1,,,,,,,,,0,,,59,0
41400,note_on,120,0,4,,,,,,,,,3,,,45,0
41400,note_on,0,0,4,,,,,,,,,3,,,44,88
41460,note_on,60,0,4,,,,,,,,,3,,,44,0
41460,note_on,0,0,4,,,,,,,,,3,,,42,88
41520,note_on,14400,0,2,,,,,,,,,1,,,64,75
41520,note_on,0,0,1,,,,,,,,,0,,,68,101
41520,control_change,180,0,1,,,,,,,,,0,64,127,,
41520,note_on,0,0,4,,,,,,,,,3,,,40,88
41520,note_on,60,0,4,,,,,,,,,3,,,42,0
41544,note_on,0,0,1,,,,,,,,,0,,,69,101
41544,note_on,24,0,1,,,,,,,,,0,,,68,0
41568,note_on,24,0,1,,,,,,,,,0,,,69,0
41568,note_on,0,0,1,,,,,,,,,0,,,68,101
41580,note_on,60,0,4,,,,,,,,,3,,,40,0
41580,note_on,300,0,3,,,,,,,,,2,,,47,0
41591,note_on,23,0,1,,,,,,,,,0,,,69,101
41592,note_on,1,0,1,,,,,,,,,0,,,68,0
41615,note_on,0,0,1,,,,,,,,,0,,,68,101
41615,note_on,23,0,1,,,,,,,,,0,,,69,0
41639,note_on,24,0,1,,,,,,,,,0,,,68,0
41640,note_on,120,0,2,,,,,,,,,1,,,64,0
41640,note_on,0,0,1,,,,,,,,,0,,,66,101
41640,note_on,1,0,1,,,,,,,,,0,,,63,101
41700,note_on,0,0,1,,,,,,,,,0,,,64,101
41700,note_on,0,0,1,,,,,,,,,0,,,61,101
41700,note_on,0,0,1,,,,,,,,,0,,,63,0
41700,note_on,60,0,1,,,,,,,,,0,,,66,0
41760,note_on,0,0,1,,,,,,,,,0,,,63,101
41760,control_change,0,0,1,,,,,,,,,0,64,0,,
41760,note_on,0,0,1,,,,,,,,,0,,,59,101
41760,note_on,0,0,1,,,,,,,,,0,,,61,0
41760,note_on,60,0,1,,,,,,,,,0,,,64,0
41760,note_on,180,0,4,,,,,,,,,3,,,45,114
41760,note_on,180,0,3,,,,,,,,,2,,,47,114
41820,note_on,0,0,1,,,,,,,,,0,,,59,0
41820,note_on,60,0,1,,,,,,,,,0,,,63,0
41880,note_on,120,0,4,,,,,,,,,3,,,45,0
41880,note_on,0,0,4,,,,,,,,,3,,,44,88
41940,note_on,60,0,4,,,,,,,,,3,,,44,0
41940,note_on,0,0,4,,,,,,,,,3,,,42,88
42000,note_on,0,0,1,,,,,,,,,0,,,68,101
42000,control_change,180,0,1,,,,,,,,,0,64,127,,
42000,note_on,360,0,2,,,,,,,,,1,,,64,75
42000,note_on,60,0,4,,,,,,,,,3,,,42,0
42000,note_on,0,0,4,,,,,,,,,3,,,40,88
42024,note_on,0,0,1,,,,,,,,,0,,,69,101
42024,note_on,24,0,1,,,,,,,,,0,,,68,0
42048,note_on,0,0,1,,,,,,,,,0,,,68,101
42048,note_on,24,0,1,,,,,,,,,0,,,69,0
42060,note_on,300,0,3,,,,,,,,,2,,,47,0
42060,note_on,60,0,4,,,,,,,,,3,,,40,0
42071,note_on,23,0,1,,,,,,,,,0,,,69,101
42072,note_on,1,0,1,,,,,,,,,0,,,68,0
42095,note_on,0,0,1,,,,,,,,,0,,,68,101
42095,note_on,23,0,1,,,,,,,,,0,,,69,0
42119,note_on,24,0,1,,,,,,,,,0,,,68,0
42120,note_on,0,0,1,,,,,,,,,0,,,66,101
42120,note_on,1,0,1,,,,,,,,,0,,,63,101
42120,note_on,120,0,2,,,,,,,,,1,,,64,0
42180,note_on,0,0,1,,,,,,,,,0,,,64,101
42180,note_on,0,0,1,,,,,,,,,0,,,61,101
42180,note_on,0,0,1,,,,,,,,,0,,,63,0
42180,note_on,60,0,1,,,,,,,,,0,,,66,0
42240,note_on,0,0,1,,,,,,,,,0,,,63,101
42240,control_change,0,0,1,,,,,,,,,0,64,0,,
42240,note_on,180,0,4,,,,,,,,,3,,,45,114
42240,note_on,0,0,1,,,,,,,,,0,,,59,101
42240,note_on,0,0,1,,,,,,,,,0,,,61,0
42240,note_on,60,0,1,,,,,,,,,0,,,64,0
42240,note_on,180,0,3,,,,,,,,,2,,,47,114
42300,note_on,0,0,1,,,,,,,,,0,,,59,0
42300,note_on,60,0,1,,,,,,,,,0,,,63,0
42360,note_on,120,0,4,,,,,,,,,3,,,45,0
42360,note_on,0,0,4,,,,,,,,,3,,,44,88
42420,note_on,60,0,4,,,,,,,,,3,,,44,0
42420,note_on,0,0,4,,,,,,,,,3,,,42,88
42480,note_on,180,0,1,,,,,,,,,0,,,68,101
42480,note_on,60,0,4,,,,,,,,,3,,,42,0
42480,note_on,0,0,4,,,,,,,,,3,,,40,88
42540,note_on,300,0,3,,,,,,,,,2,,,47,0
42540,note_on,0,0,1,,,,,,,,,0,,,64,101
42540,note_on,60,0,1,,,,,,,,,0,,,68,0
42540,note_on,60,0,4,,,,,,,,,3,,,40,0
42600,note_on,0,0,1,,,,,,,,,0,,,69,101
42600,note_on,60,0,1,,,,,,,,,0,,,64,0
42600,note_on,60,0,3,,,,,,,,,2,,,42,88
42660,note_on,0,0,1,,,,,,,,,0,,,64,101
42660,note_on,60,0,3,,,,,,,,,2,,,42,0
42660,note_on,60,0,1,,,,,,,,,0,,,69,0
42720,note_on,60,0,3,,,,,,,,,2,,,44,88
42720,note_on,0,0,1,,,,,,,,,0,,,71,101
42720,note_on,60,0,1,,,,,,,,,0,,,64,0
42780,note_on,0,0,1,,,,,,,,,0,,,64,101
42780,note_on,60,0,1,,,,,,,,,0,,,71,0
42780,note_on,60,0,3,,,,,,,,,2,,,44,0
42840,note_on,60,0,1,,,,,,,,,0,,,64,0
42840,note_on,0,0,1,,,,,,,,,0,,,73,101
42840,note_on,60,0,3,,,,,,,,,2,,,45,88
42900,note_on,60,0,3,,,,,,,,,2,,,45,0
42900,note_on,60,0,1,,,,,,,,,0,,,73,0
42900,note_on,0,0,1,,,,,,,,,0,,,64,101
42960,note_on,60,0,3,,,,,,,,,2,,,35,88
42960,note_on,0,0,3,,,,,,,,,2,,,47,88
42960,note_on,60,0,1,,,,,,,,,0,,,64,0
42960,note_on,0,0,1,,,,,,,,,0,,,75,101
43020,note_on,0,0,3,,,,,,,,,2,,,35,0
43020,note_on,60,0,1,,,,,,,,,0,,,75,0
43020,note_on,0,0,1,,,,,,,,,0,,,71,101
43020,note_on,60,0,3,,,,,,,,,2,,,47,0
43080,note_on,60,0,1,,,,,,,,,0,,,71,0
43080,note_on,0,0,1,,,,,,,,,0,,,76,101
43080,note_on,60,0,3,,,,,,,,,2,,,37,88
43080,note_on,0,0,3,,,,,,,,,2,,,49,88
43140,note_on,60,0,1,,,,,,,,,0,,,76,0
43140,note_on,60,0,3,,,,,,,,,2,,,49,0
43140,note_on,0,0,3,,,,,,,,,2,,,37,0
43140,note_on,0,0,1,,,,,,,,,0,,,71,101
43200,note_on,60,0,1,,,,,,,,,0,,,71,0
43200,note_on,0,0,1,,,,,,,,,0,,,78,101
43200,note_on,0,0,3,,,,,,,,,2,,,51,88
43200,note_on,60,0,3,,,,,,,,,2,,,39,88
43260,note_on,0,0,3,,,,,,,,,2,,,39,0
43260,note_on,60,0,3,,,,,,,,,2,,,51,0
43260,note_on,60,0,1,,,,,,,,,0,,,78,0
43260,note_on,0,0,1,,,,,,,,,0,,,71,101
43320,note_on,60,0,1,,,,,,,,,0,,,71,0
43320,note_on,0,0,1,,,,,,,,,0,,,79,101
43320,note_on,0,0,3,,,,,,,,,2,,,52,88
43320,note_on,60,0,3,,,,,,,,,2,,,40,88
43380,note_on,60,0,1,,,,,,,,,0,,,79,0
43380,note_on,0,0,1,,,,,,,,,0,,,71,101
43380,note_on,0,0,3,,,,,,,,,2,,,40,0
43380,note_on,60,0,3,,,,,,,,,2,,,52,0
43440,note_on,0,0,1,,,,,,,,,0,,,67,88
43440,note_on,60,0,1,,,,,,,,,0,,,71,0
43440,control_change,0,0,1,,,,,,,,,0,64,127,,
43440,note_on,0,0,1,,,,,,,,,0,,,71,88
43440,note_on,0,0,3,,,,,,,,,2,,,50,75
43440,note_on,0,0,1,,,,,,,,,0,,,79,88
43440,note_on,0,0,3,,,,,,,,,2,,,55,75
43440,note_on,0,0,3,,,,,,,,,2,,,43,75
43440,control_change,60,0,3,,,,,,,,,2,64,127,,
43440,note_on,0,0,1,,,,,,,,,0,,,74,88
43680,note_on,0,0,1,,,,,,,,,0,,,67,0
43680,note_on,0,0,1,,,,,,,,,0,,,71,0
43680,note_on,0,0,1,,,,,,,,,0,,,74,0
43680,note_on,0,0,1,,,,,,,,,0,,,67,88
43680,note_on,0,0,1,,,,,,,,,0,,,71,88
43680,note_on,0,0,1,,,,,,,,,0,,,74,88
43680,note_on,0,0,1,,,,,,,,,0,,,79,88
43680,note_on,240,0,1,,,,,,,,,0,,,79,0
43680,note_on,0,0,3,,,,,,,,,2,,,43,75
43680,note_on,0,0,3,,,,,,,,,2,,,50,75
43680,note_on,240,0,3,,,,,,,,,2,,,55,0
43680,note_on,0,0,3,,,,,,,,,2,,,50,0
43680,note_on,0,0,3,,,,,,,,,2,,,43,0
43680,note_on,0,0,3,,,,,,,,,2,,,55,75
43920,note_on,0,0,1,,,,,,,,,0,,,71,0
43920,note_on,0,0,1,,,,,,,,,0,,,74,0
43920,note_on,0,0,1,,,,,,,,,0,,,67,88
43920,note_on,0,0,1,,,,,,,,,0,,,71,88
43920,note_on,0,0,1,,,,,,,,,0,,,74,88
43920,note_on,0,0,1,,,,,,,,,0,,,79,88
43920,note_on,240,0,1,,,,,,,,,0,,,79,0
43920,note_on,0,0,1,,,,,,,,,0,,,67,0
43920,note_on,0,0,3,,,,,,,,,2,,,50,0
43920,note_on,0,0,3,,,,,,,,,2,,,43,0
43920,note_on,0,0,3,,,,,,,,,2,,,43,75
43920,note_on,0,0,3,,,,,,,,,2,,,50,75
43920,note_on,0,0,3,,,,,,,,,2,,,55,75
43920,note_on,240,0,3,,,,,,,,,2,,,55,0
44160,note_on,0,0,1,,,,,,,,,0,,,67,0
44160,note_on,240,0,1,,,,,,,,,0,,,79,0
44160,note_on,0,0,1,,,,,,,,,0,,,71,0
44160,note_on,0,0,1,,,,,,,,,0,,,74,0
44160,note_on,0,0,1,,,,,,,,,0,,,67,88
44160,note_on,0,0,1,,,,,,,,,0,,,71,88
44160,control_change,0,0,3,,,,,,,,,2,64,0,,
44160,note_on,0,0,1,,,,,,,,,0,,,79,88
44160,control_change,0,0,1,,,,,,,,,0,64,0,,
44160,note_on,0,0,1,,,,,,,,,0,,,74,88
44160,note_on,0,0,3,,,,,,,,,2,,,55,75
44160,note_on,0,0,3,,,,,,,,,2,,,50,75
44160,note_on,240,0,3,,,,,,,,,2,,,55,0
44160,note_on,0,0,3,,,,,,,,,2,,,50,0
44160,note_on,0,0,3,,,,,,,,,2,,,43,0
44160,note_on,0,0,3,,,,,,,,,2,,,43,75
44400,note_on,240,0,1,,,,,,,,,0,,,79,0
44400,note_on,0,0,1,,,,,,,,,0,,,67,0
44400,note_on,0,0,1,,,,,,,,,0,,,74,0
44400,note_on,0,0,1,,,,,,,,,0,,,71,88
44400,note_on,0,0,1,,,,,,,,,0,,,71,0
44400,note_on,0,0,3,,,,,,,,,2,,,47,75
44400,control_change,0,0,3,,,,,,,,,2,64,127,,
44400,note_on,0,0,3,,,,,,,,,2,,,43,0
44400,note_on,0,0,3,,,,,,,,,2,,,50,0
44400,note_on,240,0,3,,,,,,,,,2,,,55,0
44400,note_on,0,0,1,,,,,,,,,0,,,83,88
44400,note_on,0,0,3,,,,,,,,,2,,,35,75
44400,control_change,0,0,1,,,,,,,,,0,64,127,,
44400,note_on,0,0,1,,,,,,,,,0,,,80,88
44640,note_on,240,0,1,,,,,,,,,0,,,83,0
44640,note_on,240,0,3,,,,,,,,,2,,,47,0
44640,note_on,0,0,3,,,,,,,,,2,,,35,0
44640,note_on,0,0,3,,,,,,,,,2,,,44,75
44640,note_on,0,0,3,,,,,,,,,2,,,56,75
44640,note_on,0,0,1,,,,,,,,,0,,,83,88
44640,note_on,0,0,1,,,,,,,,,0,,,80,88
44640,note_on,0,0,1,,,,,,,,,0,,,71,88
44640,note_on,0,0,1,,,,,,,,,0,,,71,0
44640,note_on,0,0,1,,,,,,,,,0,,,80,0
44880,note_on,0,0,3,,,,,,,,,2,,,47,75
44880,note_on,240,0,3,,,,,,,,,2,,,56,0
44880,note_on,0,0,3,,,,,,,,,2,,,44,0
44880,note_on,0,0,3,,,,,,,,,2,,,59,75
44880,note_on,240,0,1,,,,,,,,,0,,,83,0
44880,note_on,0,0,1,,,,,,,,,0,,,80,0
44880,note_on,0,0,1,,,,,,,,,0,,,71,0
44880,note_on,0,0,1,,,,,,,,,0,,,71,88
44880,note_on,0,0,1,,,,,,,,,0,,,80,88
44880,note_on,0,0,1,,,,,,,,,0,,,83,88
45120,note_on,240,0,3,,,,,,,,,2,,,59,0
45120,note_on,0,0,3,,,,,,,,,2,,,47,0
45120,note_on,0,0,3,,,,,,,,,2,,,52,75
45120,note_on,0,0,3,,,,,,,,,2,,,64,75
45120,note_on,0,0,1,,,,,,,,,0,,,80,0
45120,note_on,240,0,1,,,,,,,,,0,,,83,0
45120,note_on,0,0,1,,,,,,,,,0,,,71,0
45120,note_on,0,0,1,,,,,,,,,0,,,71,88
45120,note_on,0,0,1,,,,,,,,,0,,,80,88
45120,note_on,0,0,1,,,,,,,,,0,,,83,88
45360,note_on,0,0,1,,,,,,,,,0,,,80,88
45360,note_on,0,0,3,,,,,,,,,2,,,44,75
45360,note_on,0,0,3,,,,,,,,,2,,,32,75
45360,control_change,0,0,3,,,,,,,,,2,64,0,,
45360,note_on,0,0,3,,,,,,,,,2,,,52,0
45360,note_on,240,0,3,,,,,,,,,2,,,64,0
45360,control_change,0,0,1,,,,,,,,,0,64,0,,
45360,note_on,0,0,1,,,,,,,,,0,,,71,88
45360,note_on,0,0,1,,,,,,,,,0,,,71,0
45360,note_on,0,0,1,,,,,,,,,0,,,80,0
45360,note_on,240,0,1,,,,,,,,,0,,,83,0
45360,note_on,0,0,1,,,,,,,,,0,,,83,88
45372,note_on,12,0,1,,,,,,,,,0,,,83,0
45372,note_on,12,0,3,,,,,,,,,2,,,44,0
45372,note_on,0,0,1,,,,,,,,,0,,,80,0
45372,note_on,0,0,3,,,,,,,,,2,,,32,0
45372,note_on,0,0,1,,,,,,,,,0,,,71,0
45480,note_on,0,0,1,,,,,,,,,0,,,81,88
45480,note_on,0,0,1,,,,,,,,,0,,,78,88
45480,note_on,108,0,1,,,,,,,,,0,,,71,88
45480,note_on,108,0,3,,,,,,,,,2,,,33,75
45480,note_on,0,0,3,,,,,,,,,2,,,45,75
45492,note_on,12,0,3,,,,,,,,,2,,,45,0
45492,note_on,0,0,3,,,,,,,,,2,,,33,0
45540,note_on,0,0,1,,,,,,,,,0,,,78,0
45540,note_on,60,0,1,,,,,,,,,0,,,81,0
45540,note_on,0,0,1,,,,,,,,,0,,,76,88
45540,note_on,0,0,1,,,,,,,,,0,,,80,88
45540,note_on,0,0,1,,,,,,,,,0,,,71,0
45600,note_on,0,0,1,,,,,,,,,0,,,80,88
45600,note_on,60,0,1,,,,,,,,,0,,,80,0
45600,note_on,0,0,1,,,,,,,,,0,,,76,0
45600,note_on,0,0,1,,,,,,,,,0,,,71,88
45600,note_on,0,0,1,,,,,,,,,0,,,76,88
45600,note_on,0,0,3,,,,,,,,,2,,,47,75
45600,note_on,108,0,3,,,,,,,,,2,,,35,75
45612,note_on,0,0,3,,,,,,,,,2,,,35,0
45612,note_on,12,0,3,,,,,,,,,2,,,47,0
45612,note_on,12,0,1,,,,,,,,,0,,,80,0
45612,note_on,0,0,1,,,,,,,,,0,,,76,0
45612,note_on,0,0,1,,,,,,,,,0,,,71,0
45720,note_on,0,0,1,,,,,,,,,0,,,75,88
45720,note_on,0,0,1,,,,,,,,,0,,,78,88
45720,note_on,108,0,1,,,,,,,,,0,,,71,88
45720,note_on,108,0,3,,,,,,,,,2,,,35,75
45720,note_on,0,0,3,,,,,,,,,2,,,47,75
45724,note_on,4,0,1,,,,,,,,,0,,,78,0
45724,note_on,0,0,1,,,,,,,,,0,,,75,0
45724,note_on,0,0,1,,,,,,,,,0,,,71,0
45732,note_on,0,0,3,,,,,,,,,2,,,35,0
45732,note_on,12,0,3,,,,,,,,,2,,,47,0
45840,note_on,108,0,3,,,,,,,,,2,,,40,75
45840,note_on,0,0,3,,,,,,,,,2,,,52,75
45840,note_on,0,0,1,,,,,,,,,0,,,76,88
45840,note_on,0,0,1,,,,,,,,,0,,,71,88
45840,note_on,116,0,1,,,,,,,,,0,,,68,88
45846,note_on,0,0,1,,,,,,,,,0,,,68,0
45846,note_on,6,0,1,,,,,,,,,0,,,76,0
45846,note_on,0,0,1,,,,,,,,,0,,,71,0
45852,note_on,0,0,3,,,,,,,,,2,,,40,0
45852,note_on,12,0,3,,,,,,,,,2,,,52,0
45900,note_on,54,0,1,,,,,,,,,0,,,64,88
45960,note_on,60,0,1,,,,,,,,,0,,,64,0
45960,control_change,0,0,1,,,,,,,,,0,64,127,,
45960,note_on,0,0,1,,,,,,,,,0,,,76,88
46020,note_on,60,0,1,,,,,,,,,0,,,76,0
46020,note_on,0,0,1,,,,,,,,,0,,,77,88
46080,note_on,60,0,1,,,,,,,,,0,,,77,0
46080,note_on,0,0,1,,,,,,,,,0,,,76,88
46140,note_on,60,0,1,,,,,,,,,0,,,76,0
46140,note_on,0,0,1,,,,,,,,,0,,,64,88
46200,note_on,60,0,1,,,,,,,,,0,,,64,0
46200,note_on,0,0,1,,,,,,,,,0,,,76,88
46260,note_on,0,0,1,,,,,,,,,0,,,77,88
46260,note_on,60,0,1,,,,,,,,,0,,,76,0
46320,note_on,0,0,1,,,,,,,,,0,,,76,75
46320,note_on,60,0,1,,,,,,,,,0,,,77,0
46380,note_on,60,0,1,,,,,,,,,0,,,76,0
46380,note_on,0,0,1,,,,,,,,,0,,,68,75
46440,note_on,60,0,1,,,,,,,,,0,,,68,0
46440,control_change,588,0,3,,,,,,,,,2,64,127,,
46440,note_on,0,0,3,,,,,,,,,2,,,52,62
46440,note_on,0,0,1,,,,,,,,,0,,,76,75
46500,note_on,0,0,1,,,,,,,,,0,,,77,75
46500,note_on,60,0,1,,,,,,,,,0,,,76,0
46560,note_on,120,0,3,,,,,,,,,2,,,52,0
46560,note_on,0,0,1,,,,,,,,,0,,,76,75
46560,note_on,60,0,1,,,,,,,,,0,,,77,0
46620,note_on,0,0,1,,,,,,,,,0,,,71,75
46620,note_on,60,0,1,,,,,,,,,0,,,76,0
46680,note_on,120,0,3,,,,,,,,,2,,,56,62
46680,note_on,60,0,1,,,,,,,,,0,,,71,0
46680,note_on,0,0,1,,,,,,,,,0,,,76,75
46740,note_on,0,0,1,,,,,,,,,0,,,77,75
46740,note_on,60,0,1,,,,,,,,,0,,,76,0
46800,note_on,60,0,1,,,,,,,,,0,,,77,0
46800,note_on,120,0,3,,,,,,,,,2,,,56,0
46800,note_on,0,0,1,,,,,,,,,0,,,76,75
46860,note_on,0,0,1,,,,,,,,,0,,,74,75
46860,note_on,60,0,1,,,,,,,,,0,,,76,0
46920,note_on,120,0,3,,,,,,,,,2,,,59,62
46920,note_on,60,0,1,,,,,,,,,0,,,74,0
46920,note_on,0,0,1,,,,,,,,,0,,,76,75
46980,note_on,60,0,1,,,,,,,,,0,,,76,0
46980,note_on,0,0,1,,,,,,,,,0,,,77,75
47040,note_on,0,0,1,,,,,,,,,0,,,76,75
47040,note_on,120,0,3,,,,,,,,,2,,,59,0
47040,note_on,60,0,1,,,,,,,,,0,,,77,0
47100,note_on,0,0,1,,,,,,,,,0,,,71,75
47100,note_on,60,0,1,,,,,,,,,0,,,76,0
47160,note_on,120,0,3,,,,,,,,,2,,,62,62
47160,note_on,0,0,1,,,,,,,,,0,,,76,75
47160,note_on,60,0,1,,,,,,,,,0,,,71,0
47220,note_on,60,0,1,,,,,,,,,0,,,76,0
47220,note_on,0,0,1,,,,,,,,,0,,,77,75
47280,note_on,0,0,1,,,,,,,,,0,,,76,75
47280,note_on,120,0,3,,,,,,,,,2,,,62,0
47280,note_on,60,0,1,,,,,,,,,0,,,77,0
47340,note_on,0,0,1,,,,,,,,,0,,,74,75
47340,note_on,60,0,1,,,,,,,,,0,,,76,0
47400,note_on,60,0,1,,,,,,,,,0,,,74,0
47400,note_on,0,0,1,,,,,,,,,0,,,76,75
47400,note_on,120,0,3,,,,,,,,,2,,,65,62
47460,note_on,60,0,1,,,,,,,,,0,,,76,0
47460,note_on,0,0,1,,,,,,,,,0,,,77,75
47520,note_on,120,0,3,,,,,,,,,2,,,65,0
47520,note_on,60,0,1,,,,,,,,,0,,,77,0
47520,note_on,0,0,1,,,,,,,,,0,,,76,75
47580,note_on,60,0,1,,,,,,,,,0,,,76,0
47580,note_on,0,0,1,,,,,,,,,0,,,71,75
47640,note_on,60,0,1,,,,,,,,,0,,,71,0
47640,note_on,120,0,3,,,,,,,,,2,,,62,62
47640,note_on,0,0,1,,,,,,,,,0,,,76,75
47700,note_on,0,0,1,,,,,,,,,0,,,77,75
47700,note_on,60,0,1,,,,,,,,,0,,,76,0
47760,note_on,0,0,1,,,,,,,,,0,,,76,75
47760,note_on,60,0,1,,,,,,,,,0,,,77,0
47760,note_on,120,0,3,,,,,,,,,2,,,62,0
47820,note_on,0,0,1,,,,,,,,,0,,,74,75
47820,note_on,60,0,1,,,,,,,,,0,,,76,0
47880,note_on,120,0,3,,,,,,,,,2,,,59,62
47880,note_on,60,0,1,,,,,,,,,0,,,74,0
47880,note_on,0,0,1,,,,,,,,,0,,,76,75
47940,note_on,0,0,1,,,,,,,,,0,,,77,75
47940,note_on,60,0,1,,,,,,,,,0,,,76,0
48000,note_on,0,0,1,,,,,,,,,0,,,76,75
48000,note_on,120,0,3,,,,,,,,,2,,,59,0
48000,note_on,60,0,1,,,,,,,,,0,,,77,0
48060,note_on,60,0,1,,,,,,,,,0,,,76,0
48060,note_on,0,0,1,,,,,,,,,0,,,71,75
48120,note_on,120,0,3,,,,,,,,,2,,,56,62
48120,note_on,60,0,1,,,,,,,,,0,,,71,0
48120,note_on,0,0,1,,,,,,,,,0,,,76,75
48180,note_on,0,0,1,,,,,,,,,0,,,77,75
48180,note_on,60,0,1,,,,,,,,,0,,,76,0
48240,note_on,0,0,1,,,,,,,,,0,,,74,75
48240,note_on,0,0,1,,,,,,,,,0,,,76,75
48240,note_on,120,0,3,,,,,,,,,2,,,56,0
48240,note_on,60,0,1,,,,,,,,,0,,,77,0
48300,note_on,60,0,1,,,,,,,,,0,,,76,0
48300,note_on,0,0,1,,,,,,,,,0,,,74,0
48300,note_on,0,0,1,,,,,,,,,0,,,68,75
48360,note_on,120,0,3,,,,,,,,,2,,,52,62
48360,note_on,0,0,1,,,,,,,,,0,,,76,75
48360,note_on,0,0,1,,,,,,,,,0,,,74,75
48360,note_on,60,0,1,,,,,,,,,0,,,68,0
48420,note_on,60,0,1,,,,,,,,,0,,,76,0
48420,note_on,0,0,1,,,,,,,,,0,,,77,75
48420,note_on,0,0,1,,,,,,,,,0,,,74,0
48480,note_on,0,0,1,,,,,,,,,0,,,76,75
48480,note_on,0,0,1,,,,,,,,,0,,,74,75
48480,note_on,60,0,1,,,,,,,,,0,,,77,0
48480,note_on,120,0,3,,,,,,,,,2,,,52,0
48540,note_on,60,0,1,,,,,,,,,0,,,76,0
48540,note_on,0,0,1,,,,,,,,,0,,,68,75
48540,note_on,0,0,1,,,,,,,,,0,,,74,0
48600,note_on,0,0,1,,,,,,,,,0,,,76,75
48600,note_on,0,0,1,,,,,,,,,0,,,74,75
48600,note_on,60,0,1,,,,,,,,,0,,,68,0
48600,note_on,120,0,3,,,,,,,,,2,,,47,62
48660,note_on,0,0,1,,,,,,,,,0,,,74,0
48660,note_on,60,0,1,,,,,,,,,0,,,76,0
48660,note_on,0,0,1,,,,,,,,,0,,,77,75
48720,note_on,60,0,1,,,,,,,,,0,,,77,0
48720,note_on,120,0,3,,,,,,,,,2,,,47,0
48720,note_on,0,0,1,,,,,,,,,0,,,74,49
48720,note_on,0,0,1,,,,,,,,,0,,,76,49
48780,note_on,60,0,1,,,,,,,,,0,,,76,0
48780,note_on,0,0,1,,,,,,,,,0,,,74,0
48780,note_on,0,0,1,,,,,,,,,0,,,68,49
48840,note_on,0,0,1,,,,,,,,,0,,,76,49
48840,note_on,60,0,1,,,,,,,,,0,,,68,0
48840,note_on,0,0,1,,,,,,,,,0,,,74,49
48840,note_on,120,0,3,,,,,,,,,2,,,40,36
48900,note_on,60,0,1,,,,,,,,,0,,,76,0
48900,note_on,0,0,1,,,,,,,,,0,,,74,0
48900,note_on,0,0,1,,,,,,,,,0,,,77,49
48960,note_on,120,0,3,,,,,,,,,2,,,40,0
48960,note_on,0,0,1,,,,,,,,,0,,,76,49
48960,note_on,0,0,1,,,,,,,,,0,,,74,49
48960,note_on,60,0,1,,,,,,,,,0,,,77,0
49020,note_on,0,0,1,,,,,,,,,0,,,68,49
49020,note_on,0,0,1,,,,,,,,,0,,,74,0
49020,note_on,60,0,1,,,,,,,,,0,,,76,0
49080,note_on,120,0,3,,,,,,,,,2,,,47,36
49080,note_on,60,0,1,,,,,,,,,0,,,68,0
49080,note_on,0,0,1,,,,,,,,,0,,,74,49
49080,note_on,0,0,1,,,,,,,,,0,,,76,49
49140,note_on,60,0,1,,,,,,,,,0,,,76,0
49140,note_on,0,0,1,,,,,,,,,0,,,74,0
49140,note_on,0,0,1,,,,,,,,,0,,,77,49
49200,note_on,120,0,3,,,,,,,,,2,,,47,0
49200,note_on,60,0,1,,,,,,,,,0,,,77,0
49200,note_on,0,0,1,,,,,,,,,0,,,74,49
49200,note_on,0,0,1,,,,,,,,,0,,,76,49
49260,note_on,60,0,1,,,,,,,,,0,,,76,0
49260,note_on,0,0,1,,,,,,,,,0,,,68,49
49260,note_on,0,0,1,,,,,,,,,0,,,74,0
49320,note_on,60,0,1,,,,,,,,,0,,,68,0
49320,note_on,0,0,1,,,,,,,,,0,,,76,49
49320,note_on,0,0,1,,,,,,,,,0,,,74,49
49320,note_on,120,0,3,,,,,,,,,2,,,40,36
49380,note_on,60,0,1,,,,,,,,,0,,,76,0
49380,note_on,0,0,1,,,,,,,,,0,,,74,0
49380,note_on,0,0,1,,,,,,,,,0,,,77,49
49440,note_on,0,0,3,,,,,,,,,2,,,40,36
49440,note_on,0,0,1,,,,,,,,,0,,,76,49
49440,note_on,0,0,1,,,,,,,,,0,,,74,49
49440,note_on,120,0,3,,,,,,,,,2,,,40,0
49440,note_on,60,0,1,,,,,,,,,0,,,77,0
49500,note_on,60,0,1,,,,,,,,,0,,,76,0
49500,note_on,0,0,1,,,,,,,,,0,,,74,0
49500,note_on,0,0,1,,,,,,,,,0,,,68,49
49560,note_on,60,0,1,,,,,,,,,0,,,68,0
49560,note_on,0,0,1,,,,,,,,,0,,,74,49
49560,note_on,0,0,1,,,,,,,,,0,,,76,49
49620,note_on,60,0,1,,,,,,,,,0,,,76,0
49620,note_on,0,0,1,,,,,,,,,0,,,74,0
49620,note_on,0,0,1,,,,,,,,,0,,,77,49
49680,note_on,0,0,1,,,,,,,,,0,,,76,49
49680,note_on,0,0,1,,,,,,,,,0,,,74,49
49680,control_change,240,0,3,,,,,,,,,2,64,0,,
49680,note_on,60,0,1,,,,,,,,,0,,,77,0
49740,note_on,60,0,1,,,,,,,,,0,,,76,0
49740,note_on,0,0,1,,,,,,,,,0,,,74,0
49740,note_on,0,0,1,,,,,,,,,0,,,68,49
49800,note_on,60,0,1,,,,,,,,,0,,,68,0
49800,note_on,0,0,1,,,,,,,,,0,,,76,49
49800,note_on,120,0,3,,,,,,,,,2,,,40,0
49860,note_on,60,0,1,,,,,,,,,0,,,76,0
49860,note_on,0,0,1,,,,,,,,,0,,,77,49
49920,note_on,60,0,1,,,,,,,,,0,,,77,0
49920,note_on,0,0,1,,,,,,,,,0,,,76,49
49980,note_on,0,0,1,,,,,,,,,0,,,68,49
49980,note_on,60,0,1,,,,,,,,,0,,,76,0
50040,control_change,0,0,1,,,,,,,,,0,64,0,,
50040,note_on,0,0,1,,,,,,,,,0,,,76,49
50040,note_on,60,0,1,,,,,,,,,0,,,68,0
50100,note_on,60,0,1,,,,,,,,,0,,,76,0
50100,note_on,0,0,1,,,,,,,,,0,,,77,49
50160,note_on,60,0,1,,,,,,,,,0,,,77,0
50160,note_on,0,0,1,,,,,,,,,0,,,76,49
50160,note_on,360,0,3,,,,,,,,,2,,,60,36
50220,note_on,60,0,1,,,,,,,,,0,,,76,0
50220,note_on,0,0,1,,,,,,,,,0,,,64,49
50280,note_on,60,0,1,,,,,,,,,0,,,64,0
50280,note_on,0,0,1,,,,,,,,,0,,,74,49
50280,note_on,120,0,3,,,,,,,,,2,,,60,0
50280,note_on,0,0,3,,,,,,,,,2,,,59,36
50340,note_on,0,0,1,,,,,,,,,0,,,64,49
50340,note_on,60,0,1,,,,,,,,,0,,,74,0
50400,note_on,0,0,1,,,,,,,,,0,,,72,49
50400,note_on,120,0,3,,,,,,,,,2,,,59,0
50400,note_on,0,0,3,,,,,,,,,2,,,57,36
50400,note_on,60,0,1,,,,,,,,,0,,,64,0
50460,note_on,0,0,1,,,,,,,,,0,,,64,49
50460,note_on,60,0,1,,,,,,,,,0,,,72,0
50520,note_on,0,0,1,,,,,,,,,0,,,71,49
50520,note_on,60,0,1,,,,,,,,,0,,,64,0
50520,note_on,120,0,3,,,,,,,,,2,,,57,0
50520,note_on,0,0,3,,,,,,,,,2,,,62,36
50580,note_on,60,0,1,,,,,,,,,0,,,71,0
50580,note_on,0,0,1,,,,,,,,,0,,,64,49
50640,note_on,60,0,1,,,,,,,,,0,,,64,0
50640,note_on,0,0,3,,,,,,,,,2,,,60,36
50640,control_change,0,0,3,,,,,,,,,2,64,127,,
50640,note_on,120,0,3,,,,,,,,,2,,,62,0
50640,note_on,0,0,1,,,,,,,,,0,,,71,49
50640,control_change,0,0,1,,,,,,,,,0,64,127,,
50700,note_on,0,0,1,,,,,,,,,0,,,69,49
50700,note_on,60,0,1,,,,,,,,,0,,,71,0
50760,note_on,0,0,1,,,,,,,,,0,,,64,49
50760,note_on,60,0,1,,,,,,,,,0,,,69,0
50760,note_on,0,0,3,,,,,,,,,2,,,57,36
50760,note_on,120,0,3,,,,,,,,,2,,,60,0
50820,note_on,60,0,1,,,,,,,,,0,,,64,0
50820,note_on,0,0,1,,,,,,,,,0,,,69,49
50880,note_on,0,0,3,,,,,,,,,2,,,56,36
50880,note_on,120,0,3,,,,,,,,,2,,,57,0
50880,control_change,0,0,3,,,,,,,,,2,64,0,,
50880,note_on,60,0,1,,,,,,,,,0,,,69,0
50880,control_change,0,0,1,,,,,,,,,0,64,0,,
50880,note_on,0,0,1,,,,,,,,,0,,,72,49
50940,note_on,0,0,1,,,,,,,,,0,,,71,49
50940,note_on,60,0,1,,,,,,,,,0,,,72,0
51000,note_on,0,0,1,,,,,,,,,0,,,64,49
51000,note_on,60,0,1,,,,,,,,,0,,,71,0
51000,note_on,120,0,3,,,,,,,,,2,,,56,0
51000,note_on,0,0,3,,,,,,,,,2,,,52,36
51060,note_on,60,0,1,,,,,,,,,0,,,64,0
51060,note_on,0,0,1,,,,,,,,,0,,,72,49
51120,note_on,0,0,3,,,,,,,,,2,,,60,36
51120,control_change,0,0,3,,,,,,,,,2,64,127,,
51120,note_on,120,0,3,,,,,,,,,2,,,52,0
51120,note_on,0,0,1,,,,,,,,,0,,,68,49
51120,control_change,0,0,1,,,,,,,,,0,64,127,,
51120,note_on,60,0,1,,,,,,,,,0,,,72,0
51180,note_on,0,0,1,,,,,,,,,0,,,69,49
51180,note_on,60,0,1,,,,,,,,,0,,,68,0
51240,note_on,60,0,1,,,,,,,,,0,,,69,0
51240,note_on,120,0,3,,,,,,,,,2,,,60,0
51240,note_on,0,0,3,,,,,,,,,2,,,57,36
51240,note_on,0,0,1,,,,,,,,,0,,,64,49
51300,note_on,60,0,1,,,,,,,,,0,,,64,0
51300,note_on,0,0,1,,,,,,,,,0,,,69,49
51360,note_on,60,0,1,,,,,,,,,0,,,69,0
51360,control_change,0,0,1,,,,,,,,,0,64,0,,
51360,note_on,0,0,1,,,,,,,,,0,,,72,49
51360,note_on,120,0,3,,,,,,,,,2,,,57,0
51360,control_change,0,0,3,,,,,,,,,2,64,0,,
51360,note_on,0,0,3,,,,,,,,,2,,,56,36
51420,note_on,60,0,1,,,,,,,,,0,,,72,0
51420,note_on,0,0,1,,,,,,,,,0,,,71,49
51480,note_on,0,0,1,,,,,,,,,0,,,64,49
51480,note_on,120,0,3,,,,,,,,,2,,,56,0
51480,note_on,60,0,1,,,,,,,,,0,,,71,0
51480,note_on,0,0,3,,,,,,,,,2,,,52,36
51540,note_on,60,0,1,,,,,,,,,0,,,64,0
51540,note_on,0,0,1,,,,,,,,,0,,,71,49
51600,note_on,60,0,1,,,,,,,,,0,,,71,0
51600,control_change,120,0,3,,,,,,,,,2,64,127,,
51600,note_on,9480,0,2,,,,,,,,,1,,,67,36
51600,control_change,0,0,1,,,,,,,,,0,64,127,,
51600,note_on,0,0,1,,,,,,,,,0,,,74,49
51660,note_on,0,0,1,,,,,,,,,0,,,72,49
51660,note_on,60,0,1,,,,,,,,,0,,,74,0
51720,note_on,60,0,1,,,,,,,,,0,,,72,0
51720,note_on,0,0,3,,,,,,,,,2,,,50,36
51720,note_on,120,0,3,,,,,,,,,2,,,52,0
51720,note_on,0,0,1,,,,,,,,,0,,,71,49
51780,control_change,0,0,3,,,,,,,,,2,64,0,,
51780,note_on,0,0,3,,,,,,,,,2,,,48,36
51780,note_on,0,0,1,,,,,,,,,0,,,72,49
51780,note_on,60,0,1,,,,,,,,,0,,,71,0
51780,note_on,60,0,3,,,,,,,,,2,,,50,0
51780,control_change,0,0,1,,,,,,,,,0,64,0,,
51840,note_on,240,0,2,,,,,,,,,1,,,67,0
51840,note_on,0,0,1,,,,,,,,,0,,,74,49
51840,note_on,60,0,1,,,,,,,,,0,,,72,0
51840,note_on,60,0,3,,,,,,,,,2,,,48,0
51840,note_on,0,0,3,,,,,,,,,2,,,47,36
51900,note_on,60,0,1,,,,,,,,,0,,,74,0
51900,note_on,0,0,1,,,,,,,,,0,,,67,49
51960,note_on,120,0,3,,,,,,,,,2,,,47,0
51960,note_on,0,0,3,,,,,,,,,2,,,43,36
51960,note_on,60,0,1,,,,,,,,,0,,,67,0
51960,note_on,0,0,1,,,,,,,,,0,,,75,49
52020,note_on,0,0,1,,,,,,,,,0,,,67,49
52020,note_on,60,0,1,,,,,,,,,0,,,75,0
52080,note_on,0,0,1,,,,,,,,,0,,,76,49
52080,note_on,60,0,1,,,,,,,,,0,,,67,0
52080,note_on,0,0,3,,,,,,,,,2,,,48,36
52080,note_on,120,0,3,,,,,,,,,2,,,43,0
52140,note_on,60,0,1,,,,,,,,,0,,,76,0
52140,note_on,0,0,1,,,,,,,,,0,,,67,49
52200,note_on,120,0,3,,,,,,,,,2,,,48,0
52200,note_on,0,0,3,,,,,,,,,2,,,50,36
52200,note_on,60,0,1,,,,,,,,,0,,,67,0
52200,note_on,0,0,1,,,,,,,,,0,,,77,49
52260,note_on,60,0,1,,,,,,,,,0,,,77,0
52260,note_on,0,0,1,,,,,,,,,0,,,67,49
52320,note_on,0,0,3,,,,,,,,,2,,,52,36
52320,note_on,120,0,3,,,,,,,,,2,,,50,0
52320,note_on,60,0,1,,,,,,,,,0,,,67,0
52320,note_on,0,0,1,,,,,,,,,0,,,79,49
52380,note_on,60,0,1,,,,,,,,,0,,,79,0
52380,note_on,0,0,1,,,,,,,,,0,,,67,49
52440,note_on,0,0,1,,,,,,,,,0,,,81,49
52440,note_on,60,0,1,,,,,,,,,0,,,67,0
52440,note_on,0,0,3,,,,,,,,,2,,,53,36
52440,note_on,120,0,3,,,,,,,,,2,,,52,0
52500,note_on,0,0,1,,,,,,,,,0,,,71,49
52500,note_on,60,0,1,,,,,,,,,0,,,81,0
52560,note_on,60,0,1,,,,,,,,,0,,,71,0
52560,note_on,0,0,1,,,,,,,,,0,,,79,62
52560,note_on,120,0,3,,,,,,,,,2,,,53,0
52560,note_on,0,0,3,,,,,,,,,2,,,52,49
52620,note_on,60,0,1,,,,,,,,,0,,,79,0
52620,note_on,0,0,1,,,,,,,,,0,,,72,62
52680,note_on,120,0,3,,,,,,,,,2,,,52,0
52680,note_on,0,0,3,,,,,,,,,2,,,56,49
52680,note_on,0,0,1,,,,,,,,,0,,,77,62
52680,note_on,60,0,1,,,,,,,,,0,,,72,0
52740,note_on,60,0,1,,,,,,,,,0,,,77,0
52740,note_on,0,0,1,,,,,,,,,0,,,71,62
52800,note_on,0,0,3,,,,,,,,,2,,,57,62
52800,note_on,120,0,3,,,,,,,,,2,,,56,0
52800,note_on,0,0,1,,,,,,,,,0,,,76,75
52800,note_on,60,0,1,,,,,,,,,0,,,71,0
52860,note_on,60,0,1,,,,,,,,,0,,,76,0
52860,note_on,0,0,1,,,,,,,,,0,,,72,75
52920,note_on,60,0,1,,,,,,,,,0,,,72,0
52920,note_on,0,0,1,,,,,,,,,0,,,74,75
52920,note_on,120,0,3,,,,,,,,,2,,,57,0
52920,note_on,0,0,3,,,,,,,,,2,,,65,62
52980,note_on,0,0,1,,,,,,,,,0,,,69,75
52980,note_on,60,0,1,,,,,,,,,0,,,74,0
53040,note_on,0,0,3,,,,,,,,,2,,,64,49
53040,note_on,0,0,1,,,,,,,,,0,,,72,62
53040,note_on,60,0,1,,,,,,,,,0,,,69,0
53040,note_on,120,0,3,,,,,,,,,2,,,65,0
53100,note_on,0,0,1,,,,,,,,,0,,,69,62
53100,note_on,60,0,1,,,,,,,,,0,,,72,0
53160,note_on,0,0,3,,,,,,,,,2,,,53,49
53160,note_on,120,0,3,,,,,,,,,2,,,64,0
53160,note_on,0,0,3,,,,,,,,,2,,,57,49
53160,note_on,60,0,1,,,,,,,,,0,,,69,0
53160,note_on,0,0,1,,,,,,,,,0,,,74,62
53220,note_on,0,0,1,,,,,,,,,0,,,69,62
53220,note_on,60,0,1,,,,,,,,,0,,,74,0
53280,note_on,0,0,3,,,,,,,,,2,,,53,0
53280,control_change,0,0,3,,,,,,,,,2,64,127,,
53280,note_on,0,0,3,,,,,,,,,2,,,57,36
53280,control_change,0,0,1,,,,,,,,,0,64,127,,
53280,note_on,10740,0,4,,,,,,,,,3,,,52,88
53280,note_on,0,0,1,,,,,,,,,0,,,76,49
53280,note_on,0,0,3,,,,,,,,,2,,,60,36
53280,note_on,120,0,3,,,,,,,,,2,,,57,0
53280,note_on,60,0,1,,,,,,,,,0,,,69,0
53340,note_on,0,0,1,,,,,,,,,0,,,64,49
53340,note_on,60,0,1,,,,,,,,,0,,,76,0
53400,note_on,0,0,3,,,,,,,,,2,,,59,36
53400,note_on,0,0,3,,,,,,,,,2,,,56,36
53400,control_change,0,0,3,,,,,,,,,2,64,0,,
53400,note_on,0,0,3,,,,,,,,,2,,,57,0
53400,note_on,120,0,3,,,,,,,,,2,,,60,0
53400,note_on,0,0,1,,,,,,,,,0,,,76,49
53400,note_on,60,0,1,,,,,,,,,0,,,64,0
53400,control_change,0,0,1,,,,,,,,,0,64,0,,
53460,note_on,0,0,1,,,,,,,,,0,,,77,49
53460,note_on,60,0,1,,,,,,,,,0,,,76,0
53520,note_on,0,0,3,,,,,,,,,2,,,60,36
53520,note_on,0,0,3,,,,,,,,,2,,,56,0
53520,note_on,120,0,3,,,,,,,,,2,,,59,0
53520,note_on,240,0,4,,,,,,,,,3,,,52,0
53520,note_on,60,0,1,,,,,,,,,0,,,77,0
53520,note_on,0,0,1,,,,,,,,,0,,,77,49
53580,note_on,60,0,1,,,,,,,,,0,,,77,0
53580,note_on,0,0,1,,,,,,,,,0,,,76,49
53640,note_on,60,0,1,,,,,,,,,0,,,76,0
53640,note_on,0,0,1,,,,,,,,,0,,,76,49
53640,note_on,0,0,3,,,,,,,,,2,,,59,36
53640,note_on,120,0,3,,,,,,,,,2,,,60,0
53700,note_on,60,0,1,,,,,,,,,0,,,76,0
53700,note_on,0,0,1,,,,,,,,,0,,,74,49
53760,note_on,60,0,1,,,,,,,,,0,,,74,0
53760,note_on,0,0,1,,,,,,,,,0,,,74,49
53760,note_on,0,0,3,,,,,,,,,2,,,57,36
53760,note_on,120,0,3,,,,,,,,,2,,,59,0
53820,note_on,0,0,1,,,,,,,,,0,,,72,49
53820,note_on,60,0,1,,,,,,,,,0,,,74,0
53880,note_on,0,0,1,,,,,,,,,0,,,72,49
53880,note_on,60,0,1,,,,,,,,,0,,,72,0
53880,note_on,0,0,3,,,,,,,,,2,,,62,36
53880,note_on,120,0,3,,,,,,,,,2,,,57,0
53940,note_on,60,0,1,,,,,,,,,0,,,72,0
53940,note_on,0,0,1,,,,,,,,,0,,,71,49
54000,control_change,0,0,3,,,,,,,,,2,64,127,,
54000,note_on,120,0,3,,,,,,,,,2,,,62,0
54000,control_change,0,0,1,,,,,,,,,0,64,127,,
54000,note_on,0,0,1,,,,,,,,,0,,,71,49
54000,note_on,0,0,3,,,,,,,,,2,,,60,36
54000,note_on,60,0,1,,,,,,,,,0,,,71,0
54060,note_on,60,0,1,,,,,,,,,0,,,71,0
54060,note_on,0,0,1,,,,,,,,,0,,,69,49
54120,note_on,120,0,3,,,,,,,,,2,,,60,0
54120,note_on,60,0,1,,,,,,,,,0,,,69,0
54120,note_on,0,0,1,,,,,,,,,0,,,64,49
54120,note_on,0,0,3,,,,,,,,,2,,,57,36
54180,note_on,60,0,1,,,,,,,,,0,,,64,0
54180,note_on,0,0,1,,,,,,,,,0,,,69,49
54240,note_on,60,0,1,,,,,,,,,0,,,69,0
54240,control_change,0,0,1,,,,,,,,,0,64,0,,
54240,note_on,0,0,1,,,,,,,,,0,,,72,49
54240,note_on,120,0,3,,,,,,,,,2,,,57,0
54240,control_change,0,0,3,,,,,,,,,2,64,0,,
54240,note_on,0,0,3,,,,,,,,,2,,,56,36
54300,note_on,60,0,1,,,,,,,,,0,,,72,0
54300,note_on,0,0,1,,,,,,,,,0,,,71,49
54360,note_on,60,0,1,,,,,,,,,0,,,71,0
54360,note_on,0,0,1,,,,,,,,,0,,,64,49
54360,note_on,120,0,3,,,,,,,,,2,,,56,0
54360,note_on,0,0,3,,,,,,,,,2,,,52,36
54420,note_on,60,0,1,,,,,,,,,0,,,64,0
54420,note_on,0,0,1,,,,,,,,,0,,,71,49
54480,note_on,60,0,1,,,,,,,,,0,,,71,0
54480,note_on,0,0,3,,,,,,,,,2,,,60,36
54480,note_on,0,0,1,,,,,,,,,0,,,68,49
54480,control_change,0,0,1,,,,,,,,,0,64,127,,
54480,control_change,0,0,3,,,,,,,,,2,64,127,,
54480,note_on,120,0,3,,,,,,,,,2,,,52,0
54540,note_on,60,0,1,,,,,,,,,0,,,68,0
54540,note_on,0,0,1,,,,,,,,,0,,,69,49
54600,note_on,120,0,3,,,,,,,,,2,,,60,0
54600,note_on,0,0,3,,,,,,,,,2,,,57,36
54600,note_on,60,0,1,,,,,,,,,0,,,69,0
54600,note_on,0,0,1,,,,,,,,,0,,,64,49
54660,note_on,0,0,1,,,,,,,,,0,,,69,49
54660,note_on,60,0,1,,,,,,,,,0,,,64,0
54720,note_on,0,0,3,,,,,,,,,2,,,56,36
54720,note_on,120,0,3,,,,,,,,,2,,,57,0
54720,note_on,0,0,1,,,,,,,,,0,,,72,49
54720,note_on,60,0,1,,,,,,,,,0,,,69,0
54720,control_change,0,0,1,,,,,,,,,0,64,0,,
54720,control_change,0,0,3,,,,,,,,,2,64,0,,
54780,note_on,60,0,1,,,,,,,,,0,,,72,0
54780,note_on,0,0,1,,,,,,,,,0,,,71,49
54840,note_on,60,0,1,,,,,,,,,0,,,71,0
54840,note_on,0,0,1,,,,,,,,,0,,,64,49
54840,note_on,0,0,3,,,,,,,,,2,,,52,62
54840,note_on,120,0,3,,,,,,,,,2,,,56,0
54900,note_on,0,0,1,,,,,,,,,0,,,71,49
54900,note_on,60,0,1,,,,,,,,,0,,,64,0
54960,note_on,0,0,1,,,,,,,,,0,,,74,49
54960,control_change,120,0,3,,,,,,,,,2,64,127,,
54960,note_on,60,0,1,,,,,,,,,0,,,71,0
54960,control_change,0,0,1,,,,,,,,,0,64,127,,
54960,note_on,3120,0,2,,,,,,,,,1,,,67,36
55020,note_on,60,0,1,,,,,,,,,0,,,74,0
55020,note_on,0,0,1,,,,,,,,,0,,,72,49
55080,note_on,0,0,3,,,,,,,,,2,,,50,36
55080,note_on,120,0,3,,,,,,,,,2,,,52,0
55080,note_on,60,0,1,,,,,,,,,0,,,72,0
55080,note_on,0,0,1,,,,,,,,,0,,,71,49
55140,note_on,0,0,3,,,,,,,,,2,,,48,36
55140,note_on,60,0,3,,,,,,,,,2,,,50,0
55140,note_on,60,0,1,,,,,,,,,0,,,71,0
55140,note_on,0,0,1,,,,,,,,,0,,,72,49
55200,note_on,60,0,1,,,,,,,,,0,,,72,0
55200,note_on,240,0,2,,,,,,,,,1,,,67,0
55200,control_change,0,0,1,,,,,,,,,0,64,0,,
55200,note_on,60,0,3,,,,,,,,,2,,,48,0
55200,control_change,0,0,3,,,,,,,,,2,64,0,,
55200,note_on,0,0,3,,,,,,,,,2,,,47,36
55200,note_on,0,0,1,,,,,,,,,0,,,74,49
55260,note_on,60,0,1,,,,,,,,,0,,,74,0
55260,note_on,0,0,1,,,,,,,,,0,,,67,49
55320,note_on,60,0,1,,,,,,,,,0,,,67,0
55320,note_on,0,0,1,,,,,,,,,0,,,75,49
55320,note_on,0,0,3,,,,,,,,,2,,,43,36
55320,note_on,120,0,3,,,,,,,,,2,,,47,0
55380,note_on,60,0,1,,,,,,,,,0,,,75,0
55380,note_on,0,0,1,,,,,,,,,0,,,67,49
55440,note_on,0,0,3,,,,,,,,,2,,,48,36
55440,note_on,120,0,3,,,,,,,,,2,,,43,0
55440,note_on,60,0,1,,,,,,,,,0,,,67,0
55440,note_on,0,0,1,,,,,,,,,0,,,76,49
55500,note_on,0,0,1,,,,,,,,,0,,,67,49
55500,note_on,60,0,1,,,,,,,,,0,,,76,0
55560,note_on,0,0,1,,,,,,,,,0,,,78,49
55560,note_on,120,0,3,,,,,,,,,2,,,48,0
55560,note_on,0,0,3,,,,,,,,,2,,,51,36
55560,note_on,60,0,1,,,,,,,,,0,,,67,0
55620,note_on,0,0,1,,,,,,,,,0,,,71,49
55620,note_on,60,0,1,,,,,,,,,0,,,78,0
55680,note_on,0,0,1,,,,,,,,,0,,,79,49
55680,note_on,60,0,1,,,,,,,,,0,,,71,0
55680,note_on,0,0,3,,,,,,,,,2,,,52,36
55680,note_on,120,0,3,,,,,,,,,2,,,51,0
55740,note_on,60,0,1,,,,,,,,,0,,,79,0
55740,note_on,0,0,1,,,,,,,,,0,,,78,49
55800,note_on,0,0,3,,,,,,,,,2,,,51,36
55800,note_on,60,0,1,,,,,,,,,0,,,78,0
55800,note_on,0,0,1,,,,,,,,,0,,,71,49
55800,note_on,120,0,3,,,,,,,,,2,,,52,0
55860,note_on,0,0,1,,,,,,,,,0,,,78,49
55860,note_on,60,0,1,,,,,,,,,0,,,71,0
55920,note_on,0,0,3,,,,,,,,,2,,,52,36
55920,note_on,120,0,3,,,,,,,,,2,,,51,0
55920,note_on,0,0,1,,,,,,,,,0,,,79,49
55920,note_on,60,0,1,,,,,,,,,0,,,78,0
55980,note_on,60,0,1,,,,,,,,,0,,,79,0
55980,note_on,0,0,1,,,,,,,,,0,,,71,49
56040,note_on,60,0,1,,,,,,,,,0,,,71,0
56040,note_on,0,0,1,,,,,,,,,0,,,81,49
56040,note_on,0,0,3,,,,,,,,,2,,,54,36
56040,note_on,120,0,3,,,,,,,,,2,,,52,0
56100,note_on,60,0,1,,,,,,,,,0,,,81,0
56100,note_on,0,0,1,,,,,,,,,0,,,71,49
56160,note_on,120,0,3,,,,,,,,,2,,,54,0
56160,note_on,0,0,3,,,,,,,,,2,,,55,36
56160,note_on,0,0,1,,,,,,,,,0,,,83,49
56160,note_on,60,0,1,,,,,,,,,0,,,71,0
56220,note_on,0,0,1,,,,,,,,,0,,,71,49
56220,note_on,60,0,1,,,,,,,,,0,,,83,0
56280,note_on,60,0,1,,,,,,,,,0,,,71,0
56280,note_on,0,0,1,,,,,,,,,0,,,88,49
56280,note_on,120,0,3,,,,,,,,,2,,,55,0
56280,note_on,0,0,3,,,,,,,,,2,,,60,36
56340,note_on,60,0,1,,,,,,,,,0,,,88,0
56340,note_on,0,0,1,,,,,,,,,0,,,78,49
56400,note_on,0,0,1,,,,,,,,,0,,,86,49
56400,note_on,60,0,1,,,,,,,,,0,,,78,0
56400,note_on,0,0,3,,,,,,,,,2,,,59,36
56400,note_on,120,0,3,,,,,,,,,2,,,60,0
56460,note_on,0,0,1,,,,,,,,,0,,,79,49
56460,note_on,60,0,1,,,,,,,,,0,,,86,0
56520,note_on,120,0,3,,,,,,,,,2,,,59,0
56520,note_on,0,0,3,,,,,,,,,2,,,63,36
56520,note_on,0,0,1,,,,,,,,,0,,,84,49
56520,note_on,60,0,1,,,,,,,,,0,,,79,0
56580,note_on,0,0,1,,,,,,,,,0,,,78,49
56580,note_on,60,0,1,,,,,,,,,0,,,84,0
56640,note_on,120,0,3,,,,,,,,,2,,,63,0
56640,note_on,0,0,3,,,,,,,,,2,,,64,36
56640,note_on,0,0,1,,,,,,,,,0,,,83,49
56640,note_on,60,0,1,,,,,,,,,0,,,78,0
56700,note_on,0,0,1,,,,,,,,,0,,,79,49
56700,note_on,60,0,1,,,,,,,,,0,,,83,0
56760,note_on,120,0,3,,,,,,,,,2,,,64,0
56760,note_on,0,0,1,,,,,,,,,0,,,81,49
56760,note_on,60,0,1,,,,,,,,,0,,,79,0
56760,note_on,0,0,3,,,,,,,,,2,,,53,36
56820,note_on,0,0,1,,,,,,,,,0,,,71,49
56820,note_on,60,0,1,,,,,,,,,0,,,81,0
56880,note_on,0,0,1,,,,,,,,,0,,,79,49
56880,note_on,60,0,1,,,,,,,,,0,,,71,0
56880,note_on,120,0,3,,,,,,,,,2,,,53,0
56880,note_on,0,0,3,,,,,,,,,2,,,52,36
56940,note_on,0,0,1,,,,,,,,,0,,,72,49
56940,note_on,60,0,1,,,,,,,,,0,,,79,0
57000,note_on,0,0,1,,,,,,,,,0,,,77,49
57000,note_on,120,0,3,,,,,,,,,2,,,52,0
57000,note_on,0,0,3,,,,,,,,,2,,,56,36
57000,note_on,60,0,1,,,,,,,,,0,,,72,0
57060,note_on,60,0,1,,,,,,,,,0,,,77,0
57060,note_on,0,0,1,,,,,,,,,0,,,71,49
57120,note_on,0,0,3,,,,,,,,,2,,,57,36
57120,note_on,60,0,1,,,,,,,,,0,,,71,0
57120,note_on,0,0,1,,,,,,,,,0,,,76,49
57120,note_on,120,0,3,,,,,,,,,2,,,56,0
57180,note_on,60,0,1,,,,,,,,,0,,,76,0
57180,note_on,0,0,1,,,,,,,,,0,,,72,49
57240,note_on,120,0,3,,,,,,,,,2,,,57,0
57240,note_on,0,0,3,,,,,,,,,2,,,65,36
57240,note_on,60,0,1,,,,,,,,,0,,,72,0
57240,note_on,0,0,1,,,,,,,,,0,,,74,49
57300,note_on,60,0,1,,,,,,,,,0,,,74,0
57300,note_on,0,0,1,,,,,,,,,0,,,69,49
57360,note_on,60,0,1,,,,,,,,,0,,,69,0
57360,note_on,0,0,1,,,,,,,,,0,,,72,49
57360,note_on,0,0,3,,,,,,,,,2,,,64,36
57360,note_on,120,0,3,,,,,,,,,2,,,65,0
57420,note_on,0,0,1,,,,,,,,,0,,,69,49
57420,note_on,60,0,1,,,,,,,,,0,,,72,0
57480,note_on,0,0,3,,,,,,,,,2,,,57,36
57480,note_on,120,0,3,,,,,,,,,2,,,64,0
57480,note_on,0,0,1,,,,,,,,,0,,,74,49
57480,note_on,60,0,1,,,,,,,,,0,,,69,0
57480,note_on,0,0,3,,,,,,,,,2,,,53,36
57540,note_on,0,0,1,,,,,,,,,0,,,69,49
57540,note_on,60,0,1,,,,,,,,,0,,,74,0
57600,note_on,0,0,3,,,,,,,,,2,,,60,36
57600,note_on,4080,0,4,,,,,,,,,3,,,52,36
57600,note_on,0,0,3,,,,,,,,,2,,,57,36
57600,note_on,0,0,3,,,,,,,,,2,,,53,0
57600,note_on,0,0,1,,,,,,,,,0,,,76,49
57600,note_on,60,0,1,,,,,,,,,0,,,69,0
57600,note_on,120,0,3,,,,,,,,,2,,,57,0
57660,note_on,60,0,1,,,,,,,,,0,,,76,0
57660,note_on,0,0,1,,,,,,,,,0,,,64,49
57720,note_on,0,0,1,,,,,,,,,0,,,76,49
57720,note_on,120,0,3,,,,,,,,,2,,,60,0
57720,note_on,0,0,3,,,,,,,,,2,,,57,0
57720,note_on,0,0,3,,,,,,,,,2,,,56,36
57720,note_on,0,0,3,,,,,,,,,2,,,59,36
57720,note_on,60,0,1,,,,,,,,,0,,,64,0
57780,note_on,0,0,1,,,,,,,,,0,,,77,49
57780,note_on,60,0,1,,,,,,,,,0,,,76,0
57840,note_on,60,0,1,,,,,,,,,0,,,77,0
57840,note_on,120,0,3,,,,,,,,,2,,,59,0
57840,note_on,0,0,3,,,,,,,,,2,,,56,0
57840,note_on,0,0,3,,,,,,,,,2,,,60,36
57840,note_on,240,0,4,,,,,,,,,3,,,52,0
57840,note_on,0,0,1,,,,,,,,,0,,,76,49
57900,note_on,0,0,1,,,,,,,,,0,,,77,49
57900,note_on,60,0,1,,,,,,,,,0,,,76,0
57960,note_on,60,0,1,,,,,,,,,0,,,77,0
57960,note_on,0,0,3,,,,,,,,,2,,,59,36
57960,note_on,120,0,3,,,,,,,,,2,,,60,0
57960,note_on,0,0,1,,,,,,,,,0,,,74,49
58020,note_on,0,0,1,,,,,,,,,0,,,76,49
58020,note_on,60,0,1,,,,,,,,,0,,,74,0
58080,note_on,60,0,1,,,,,,,,,0,,,76,0
58080,note_on,0,0,1,,,,,,,,,0,,,72,49
58080,note_on,0,0,3,,,,,,,,,2,,,57,36
58080,note_on,120,0,3,,,,,,,,,2,,,59,0
58140,note_on,60,0,1,,,,,,,,,0,,,72,0
58140,note_on,0,0,1,,,,,,,,,0,,,74,49
58200,note_on,120,0,3,,,,,,,,,2,,,57,0
58200,note_on,60,0,1,,,,,,,,,0,,,74,0
58200,note_on,0,0,1,,,,,,,,,0,,,71,49
58200,note_on,0,0,3,,,,,,,,,2,,,62,36
58260,note_on,60,0,1,,,,,,,,,0,,,71,0
58260,note_on,0,0,1,,,,,,,,,0,,,72,49
58320,note_on,60,0,1,,,,,,,,,0,,,72,0
58320,control_change,0,0,1,,,,,,,,,0,64,127,,
58320,note_on,0,0,1,,,,,,,,,0,,,71,36
58320,note_on,120,0,3,,,,,,,,,2,,,62,0
58320,control_change,0,0,3,,,,,,,,,2,64,127,,
58320,note_on,0,0,3,,,,,,,,,2,,,60,36
58380,note_on,60,0,1,,,,,,,,,0,,,71,0
58380,note_on,0,0,1,,,,,,,,,0,,,69,36
58440,control_change,600,0,4,,,,,,,,,3,64,127,,
58440,note_on,0,0,4,,,,,,,,,3,,,57,36
58440,note_on,60,0,1,,,,,,,,,0,,,69,0
58440,note_on,0,0,1,,,,,,,,,0,,,64,36
58500,note_on,0,0,1,,,,,,,,,0,,,69,36
58500,note_on,60,0,1,,,,,,,,,0,,,64,0
58560,note_on,0,0,3,,,,,,,,,2,,,62,36
58560,control_change,0,0,3,,,,,,,,,2,64,0,,
58560,note_on,240,0,3,,,,,,,,,2,,,60,0
58560,note_on,0,0,4,,,,,,,,,3,,,56,36
58560,control_change,0,0,4,,,,,,,,,3,64,0,,
58560,note_on,120,0,4,,,,,,,,,3,,,57,0
58560,note_on,0,0,1,,,,,,,,,0,,,72,36
58560,control_change,0,0,1,,,,,,,,,0,64,0,,
58560,note_on,60,0,1,,,,,,,,,0,,,69,0
58620,note_on,60,0,1,,,,,,,,,0,,,72,0
58620,note_on,0,0,1,,,,,,,,,0,,,71,36
58680,note_on,0,0,1,,,,,,,,,0,,,64,36
58680,note_on,60,0,1,,,,,,,,,0,,,71,0
58680,note_on,0,0,4,,,,,,,,,3,,,52,36
58680,note_on,120,0,4,,,,,,,,,3,,,56,0
58740,note_on,60,0,1,,,,,,,,,0,,,64,0
58740,note_on,0,0,1,,,,,,,,,0,,,71,36
58800,note_on,120,0,4,,,,,,,,,3,,,52,0
58800,control_change,0,0,1,,,,,,,,,0,64,127,,
58800,note_on,0,0,1,,,,,,,,,0,,,68,36
58800,note_on,0,0,3,,,,,,,,,2,,,61,36
58800,note_on,60,0,1,,,,,,,,,0,,,71,0
58800,control_change,0,0,3,,,,,,,,,2,64,127,,
58800,note_on,240,0,3,,,,,,,,,2,,,62,0
58860,note_on,60,0,1,,,,,,,,,0,,,68,0
58860,note_on,0,0,1,,,,,,,,,0,,,69,36
58920,note_on,60,0,1,,,,,,,,,0,,,69,0
58920,note_on,0,0,1,,,,,,,,,0,,,64,36
58920,note_on,0,0,4,,,,,,,,,3,,,57,36
58920,control_change,120,0,4,,,,,,,,,3,64,127,,
58980,note_on,60,0,1,,,,,,,,,0,,,64,0
58980,note_on,0,0,1,,,,,,,,,0,,,69,36
59040,control_change,0,0,3,,,,,,,,,2,64,0,,
59040,note_on,240,0,3,,,,,,,,,2,,,61,0
59040,note_on,0,0,4,,,,,,,,,3,,,56,36
59040,note_on,0,0,3,,,,,,,,,2,,,62,36
59040,control_change,0,0,4,,,,,,,,,3,64,0,,
59040,note_on,0,0,1,,,,,,,,,0,,,73,36
59040,control_change,0,0,1,,,,,,,,,0,64,0,,
59040,note_on,60,0,1,,,,,,,,,0,,,69,0
59040,note_on,120,0,4,,,,,,,,,3,,,57,0
59100,note_on,60,0,1,,,,,,,,,0,,,73,0
59100,note_on,0,0,1,,,,,,,,,0,,,71,36
59160,note_on,120,0,4,,,,,,,,,3,,,56,0
59160,note_on,0,0,4,,,,,,,,,3,,,52,36
59160,note_on,0,0,1,,,,,,,,,0,,,64,36
59160,note_on,60,0,1,,,,,,,,,0,,,71,0
59220,note_on,0,0,1,,,,,,,,,0,,,71,36
59220,note_on,60,0,1,,,,,,,,,0,,,64,0
59280,note_on,240,0,3,,,,,,,,,2,,,62,0
59280,note_on,0,0,3,,,,,,,,,2,,,60,36
59280,control_change,0,0,4,,,,,,,,,3,64,127,,
59280,note_on,120,0,4,,,,,,,,,3,,,52,0
59280,control_change,0,0,1,,,,,,,,,0,64,127,,
59280,note_on,60,0,1,,,,,,,,,0,,,71,0
59280,control_change,0,0,3,,,,,,,,,2,64,127,,
59280,note_on,0,0,1,,,,,,,,,0,,,71,36
59340,note_on,0,0,1,,,,,,,,,0,,,69,36
59340,note_on,60,0,1,,,,,,,,,0,,,71,0
59340,set_tempo,59340,1,0,,,,,,258621,,,,,,,
59400,note_on,120,0,4,,,,,,,,,3,,,57,36
59400,set_tempo,60,1,0,,,,,,267857,,,,,,,
59400,note_on,60,0,1,,,,,,,,,0,,,69,0
59400,note_on,0,0,1,,,,,,,,,0,,,64,36
59460,set_tempo,60,1,0,,,,,,277778,,,,,,,
59460,note_on,0,0,1,,,,,,,,,0,,,69,36
59460,note_on,60,0,1,,,,,,,,,0,,,64,0
59520,control_change,0,0,4,,,,,,,,,3,64,0,,
59520,set_tempo,60,1,0,,,,,,288462,,,,,,,
59520,note_on,0,0,4,,,,,,,,,3,,,56,36
59520,note_on,120,0,4,,,,,,,,,3,,,57,0
59520,note_on,0,0,3,,,,,,,,,2,,,62,36
59520,control_change,0,0,3,,,,,,,,,2,64,0,,
59520,note_on,0,0,1,,,,,,,,,0,,,72,36
59520,note_on,240,0,3,,,,,,,,,2,,,60,0
59520,control_change,0,0,1,,,,,,,,,0,64,0,,
59520,note_on,60,0,1,,,,,,,,,0,,,69,0
59580,note_on,0,0,1,,,,,,,,,0,,,71,36
59580,note_on,60,0,1,,,,,,,,,0,,,72,0
59580,set_tempo,60,1,0,,,,,,300000,,,,,,,
59640,note_on,120,0,4,,,,,,,,,3,,,56,0
59640,set_tempo,60,1,0,,,,,,312500,,,,,,,
59640,note_on,0,0,4,,,,,,,,,3,,,52,36
59640,note_on,60,0,1,,,,,,,,,0,,,71,0
59640,note_on,0,0,1,,,,,,,,,0,,,64,36
59700,set_tempo,60,1,0,,,,,,326087,,,,,,,
59700,note_on,60,0,1,,,,,,,,,0,,,64,0
59700,note_on,0,0,1,,,,,,,,,0,,,71,36
59760,note_on,60,0,1,,,,,,,,,0,,,71,0
59760,note_on,0,0,1,,,,,,,,,0,,,68,36
59760,control_change,0,0,1,,,,,,,,,0,64,127,,
59760,note_on,120,0,4,,,,,,,,,3,,,52,0
59760,control_change,0,0,4,,,,,,,,,3,64,127,,
59760,note_on,240,0,3,,,,,,,,,2,,,62,0
59760,control_change,0,0,3,,,,,,,,,2,64,127,,
59760,note_on,0,0,3,,,,,,,,,2,,,61,36
59760,set_tempo,60,1,0,,,,,,340909,,,,,,,
59820,note_on,0,0,1,,,,,,,,,0,,,69,36
59820,note_on,60,0,1,,,,,,,,,0,,,68,0
59880,note_on,60,0,1,,,,,,,,,0,,,69,0
59880,note_on,0,0,1,,,,,,,,,0,,,64,36
59880,note_on,120,0,4,,,,,,,,,3,,,57,36
59940,note_on,0,0,1,,,,,,,,,0,,,69,36
59940,note_on,60,0,1,,,,,,,,,0,,,64,0
60000,note_on,120,0,4,,,,,,,,,3,,,57,0
60000,note_on,0,0,3,,,,,,,,,2,,,62,36
60000,note_on,240,0,3,,,,,,,,,2,,,61,0
60000,control_change,0,0,3,,,,,,,,,2,64,0,,
60000,control_change,0,0,4,,,,,,,,,3,64,0,,
60000,note_on,0,0,4,,,,,,,,,3,,,56,36
60000,note_on,60,0,1,,,,,,,,,0,,,69,0
60000,control_change,0,0,1,,,,,,,,,0,64,0,,
60000,note_on,0,0,1,,,,,,,,,0,,,73,36
60060,note_on,60,0,1,,,,,,,,,0,,,73,0
60060,note_on,0,0,1,,,,,,,,,0,,,71,36
60120,note_on,0,0,4,,,,,,,,,3,,,52,36
60120,note_on,60,0,1,,,,,,,,,0,,,71,0
60120,note_on,0,0,1,,,,,,,,,0,,,64,36
60120,note_on,120,0,4,,,,,,,,,3,,,56,0
60180,note_on,60,0,1,,,,,,,,,0,,,64,0
60180,note_on,0,0,1,,,,,,,,,0,,,71,36
60240,note_on,120,0,4,,,,,,,,,3,,,52,0
60240,note_on,0,0,1,,,,,,,,,0,,,69,36
60240,note_on,0,0,3,,,,,,,,,2,,,61,36
60240,note_on,0,0,3,,,,,,,,,2,,,57,36
60240,note_on,240,0,3,,,,,,,,,2,,,62,0
60240,set_tempo,480,1,0,,,,,,250000,,,,,,,
60240,note_on,60,0,1,,,,,,,,,0,,,71,0
60300,note_on,0,0,1,,,,,,,,,0,,,64,36
60300,note_on,60,0,1,,,,,,,,,0,,,69,0
60360,note_on,0,0,3,,,,,,,,,2,,,62,36
60360,note_on,0,0,3,,,,,,,,,2,,,52,36
60360,note_on,0,0,3,,,,,,,,,2,,,57,0
60360,note_on,120,0,3,,,,,,,,,2,,,61,0
60360,note_on,60,0,1,,,,,,,,,0,,,64,0
60360,note_on,0,0,1,,,,,,,,,0,,,68,36
60420,note_on,0,0,1,,,,,,,,,0,,,71,36
60420,note_on,60,0,1,,,,,,,,,0,,,68,0
60480,note_on,0,0,1,,,,,,,,,0,,,69,36
60480,note_on,60,0,1,,,,,,,,,0,,,71,0
60480,note_on,0,0,3,,,,,,,,,2,,,61,36
60480,note_on,0,0,3,,,,,,,,,2,,,57,36
60480,note_on,0,0,3,,,,,,,,,2,,,52,0
60480,note_on,120,0,3,,,,,,,,,2,,,62,0
60540,note_on,0,0,1,,,,,,,,,0,,,64,36
60540,note_on,60,0,1,,,,,,,,,0,,,69,0
60600,note_on,0,0,1,,,,,,,,,0,,,68,36
60600,note_on,0,0,3,,,,,,,,,2,,,62,36
60600,note_on,0,0,3,,,,,,,,,2,,,52,36
60600,note_on,0,0,3,,,,,,,,,2,,,57,0
60600,note_on,120,0,3,,,,,,,,,2,,,61,0
60600,note_on,60,0,1,,,,,,,,,0,,,64,0
60660,note_on,60,0,1,,,,,,,,,0,,,68,0
60660,note_on,0,0,1,,,,,,,,,0,,,76,36
60720,note_on,0,0,3,,,,,,,,,2,,,57,36
60720,note_on,0,0,3,,,,,,,,,2,,,61,36
60720,note_on,0,0,1,,,,,,,,,0,,,69,36
60720,note_on,60,0,1,,,,,,,,,0,,,76,0
60720,note_on,120,0,3,,,,,,,,,2,,,62,0
60720,note_on,0,0,3,,,,,,,,,2,,,52,0
60780,note_on,0,0,1,,,,,,,,,0,,,64,36
60780,note_on,60,0,1,,,,,,,,,0,,,69,0
60840,note_on,120,0,3,,,,,,,,,2,,,61,0
60840,note_on,0,0,3,,,,,,,,,2,,,57,0
60840,note_on,0,0,3,,,,,,,,,2,,,52,36
60840,note_on,0,0,3,,,,,,,,,2,,,62,36
60840,note_on,60,0,1,,,,,,,,,0,,,64,0
60840,note_on,0,0,1,,,,,,,,,0,,,68,36
60900,note_on,60,0,1,,,,,,,,,0,,,68,0
60900,note_on,0,0,1,,,,,,,,,0,,,71,36
60960,note_on,0,0,3,,,,,,,,,2,,,61,36
60960,note_on,60,0,1,,,,,,,,,0,,,71,0
60960,note_on,0,0,1,,,,,,,,,0,,,69,36
60960,note_on,120,0,3,,,,,,,,,2,,,62,0
60960,note_on,0,0,3,,,,,,,,,2,,,52,0
60960,note_on,0,0,3,,,,,,,,,2,,,57,36
61020,note_on,0,0,3,,,,,,,,,2,,,52,36
61020,note_on,0,0,3,,,,,,,,,2,,,57,0
61020,note_on,60,0,3,,,,,,,,,2,,,61,0
61080,note_on,120,0,1,,,,,,,,,0,,,69,0
61080,note_on,60,0,3,,,,,,,,,2,,,52,0
61080,note_on,0,0,3,,,,,,,,,2,,,57,36
61140,note_on,60,0,3,,,,,,,,,2,,,57,0
61140,note_on,0,0,3,,,,,,,,,2,,,61,36
61200,note_on,60,0,3,,,,,,,,,2,,,61,0
61200,key_signature,960,1,0,,,,,A,,,,,,,,
61200,note_on,0,0,3,,,,,,,,,2,,,64,49
61260,note_on,0,0,3,,,,,,,,,2,,,66,49
61260,note_on,60,0,3,,,,,,,,,2,,,64,0
61320,note_on,60,0,3,,,,,,,,,2,,,66,0
61320,note_on,0,0,3,,,,,,,,,2,,,63,49
61380,note_on,60,0,3,,,,,,,,,2,,,63,0
61380,note_on,0,0,3,,,,,,,,,2,,,66,49
61440,note_on,60,0,3,,,,,,,,,2,,,66,0
61440,note_on,0,0,3,,,,,,,,,2,,,64,49
61500,note_on,60,0,3,,,,,,,,,2,,,64,0
61500,note_on,0,0,3,,,,,,,,,2,,,66,49
61560,note_on,60,0,3,,,,,,,,,2,,,66,0
61560,note_on,0,0,3,,,,,,,,,2,,,63,49
61620,note_on,0,0,3,,,,,,,,,2,,,66,49
61620,note_on,60,0,3,,,,,,,,,2,,,63,0
61680,note_on,60,0,3,,,,,,,,,2,,,66,0
61680,note_on,0,0,3,,,,,,,,,2,,,64,36
61680,note_on,0,0,1,,,,,,,,,0,,,85,49
61680,note_on,600,0,1,,,,,,,,,0,,,73,49
61740,note_on,60,0,3,,,,,,,,,2,,,64,0
61740,note_on,0,0,3,,,,,,,,,2,,,66,36
61800,note_on,0,0,1,,,,,,,,,0,,,83,49
61800,note_on,0,0,1,,,,,,,,,0,,,71,49
61800,note_on,0,0,1,,,,,,,,,0,,,73,0
61800,note_on,120,0,1,,,,,,,,,0,,,85,0
61800,note_on,0,0,3,,,,,,,,,2,,,62,36
61800,note_on,60,0,3,,,,,,,,,2,,,66,0
61860,note_on,0,0,3,,,,,,,,,2,,,64,36
61860,note_on,60,0,3,,,,,,,,,2,,,62,0
61920,note_on,0,0,3,,,,,,,,,2,,,61,36
61920,note_on,60,0,3,,,,,,,,,2,,,64,0
61920,note_on,120,0,1,,,,,,,,,0,,,83,0
61920,note_on,0,0,1,,,,,,,,,0,,,71,0
61920,note_on,0,0,1,,,,,,,,,0,,,69,49
61920,note_on,0,0,1,,,,,,,,,0,,,81,49
61980,note_on,60,0,3,,,,,,,,,2,,,61,0
61980,note_on,0,0,3,,,,,,,,,2,,,62,36
62040,note_on,60,0,3,,,,,,,,,2,,,62,0
62040,note_on,0,0,1,,,,,,,,,0,,,68,49
62040,note_on,120,0,1,,,,,,,,,0,,,81,0
62040,note_on,0,0,3,,,,,,,,,2,,,59,36
62040,note_on,0,0,1,,,,,,,,,0,,,80,49
62040,note_on,0,0,1,,,,,,,,,0,,,69,0
62100,note_on,60,0,3,,,,,,,,,2,,,59,0
62100,note_on,0,0,3,,,,,,,,,2,,,61,36
62160,note_on,60,0,3,,,,,,,,,2,,,61,0
62160,note_on,0,0,1,,,,,,,,,0,,,68,0
62160,note_on,120,0,1,,,,,,,,,0,,,80,0
62160,note_on,1920,0,4,,,,,,,,,3,,,49,36
62160,note_on,0,0,1,,,,,,,,,0,,,81,49
62160,note_on,0,0,1,,,,,,,,,0,,,69,49
62220,control_change,60,0,3,,,,,,,,,2,64,127,,
62220,note_on,0,0,3,,,,,,,,,2,,,57,36
62280,note_on,60,0,3,,,,,,,,,2,,,57,0
62280,note_on,0,0,3,,,,,,,,,2,,,52,36
62340,note_on,0,0,3,,,,,,,,,2,,,49,36
62340,control_change,0,0,3,,,,,,,,,2,64,0,,
62340,note_on,60,0,3,,,,,,,,,2,,,52,0
62400,note_on,0,0,1,,,,,,,,,0,,,71,49
62400,note_on,240,0,1,,,,,,,,,0,,,81,0
62400,note_on,240,0,4,,,,,,,,,3,,,49,0
62400,note_on,0,0,4,,,,,,,,,3,,,47,36
62400,note_on,0,0,1,,,,,,,,,0,,,83,49
62400,note_on,60,0,3,,,,,,,,,2,,,49,0
62400,note_on,0,0,1,,,,,,,,,0,,,69,0
62460,note_on,0,0,3,,,,,,,,,2,,,56,36
62460,control_change,60,0,3,,,,,,,,,2,64,127,,
62520,note_on,0,0,3,,,,,,,,,2,,,52,62
62520,note_on,60,0,3,,,,,,,,,2,,,56,0
62580,control_change,0,0,3,,,,,,,,,2,64,0,,
62580,note_on,60,0,3,,,,,,,,,2,,,52,0
62580,note_on,0,0,3,,,,,,,,,2,,,47,62
62640,note_on,0,0,1,,,,,,,,,0,,,85,75
62640,note_on,0,0,1,,,,,,,,,0,,,71,0
62640,note_on,0,0,1,,,,,,,,,0,,,73,75
62640,note_on,60,0,3,,,,,,,,,2,,,47,0
62640,note_on,240,0,4,,,,,,,,,3,,,47,0
62640,note_on,240,0,1,,,,,,,,,0,,,83,0
62640,note_on,0,0,4,,,,,,,,,3,,,46,62
62700,note_on,0,0,3,,,,,,,,,2,,,55,62
62700,control_change,60,0,3,,,,,,,,,2,64,127,,
62760,note_on,60,0,3,,,,,,,,,2,,,55,0
62760,note_on,0,0,3,,,,,,,,,2,,,52,62
62820,note_on,60,0,3,,,,,,,,,2,,,52,0
62820,control_change,0,0,3,,,,,,,,,2,64,0,,
62820,note_on,0,0,3,,,,,,,,,2,,,46,62
62880,note_on,0,0,1,,,,,,,,,0,,,73,0
62880,note_on,240,0,4,,,,,,,,,3,,,46,0
62880,note_on,0,0,4,,,,,,,,,3,,,47,36
62880,note_on,0,0,1,,,,,,,,,0,,,74,49
62880,note_on,0,0,1,,,,,,,,,0,,,86,49
62880,note_on,60,0,3,,,,,,,,,2,,,46,0
62880,note_on,240,0,1,,,,,,,,,0,,,85,0
62940,note_on,60,0,3,,,,,,,,,2,,,54,36
63000,note_on,0,0,4,,,,,,,,,3,,,50,36
63000,note_on,120,0,1,,,,,,,,,0,,,86,0
63000,note_on,0,0,1,,,,,,,,,0,,,83,49
63000,note_on,120,0,4,,,,,,,,,3,,,47,0
63000,note_on,0,0,1,,,,,,,,,0,,,74,0
63000,note_on,60,0,3,,,,,,,,,2,,,54,0
63000,note_on,0,0,1,,,,,,,,,0,,,71,49
63060,note_on,60,0,3,,,,,,,,,2,,,54,36
63120,note_on,120,0,1,,,,,,,,,0,,,83,0
63120,note_on,0,0,1,,,,,,,,,0,,,71,0
63120,note_on,0,0,1,,,,,,,,,0,,,61,49
63120,note_on,0,0,4,,,,,,,,,3,,,52,36
63120,note_on,0,0,1,,,,,,,,,0,,,73,49
63120,note_on,60,0,3,,,,,,,,,2,,,54,0
63120,note_on,120,0,4,,,,,,,,,3,,,50,0
63180,note_on,0,0,3,,,,,,,,,2,,,57,36
63180,control_change,60,0,3,,,,,,,,,2,64,127,,
63240,note_on,0,0,3,,,,,,,,,2,,,55,36
63240,note_on,60,0,3,,,,,,,,,2,,,57,0
63300,note_on,0,0,3,,,,,,,,,2,,,52,36
63300,control_change,0,0,3,,,,,,,,,2,64,0,,
63300,note_on,60,0,3,,,,,,,,,2,,,55,0
63360,note_on,0,0,4,,,,,,,,,3,,,50,36
63360,note_on,240,0,4,,,,,,,,,3,,,52,0
63360,note_on,0,0,1,,,,,,,,,0,,,62,49
63360,note_on,0,0,1,,,,,,,,,0,,,74,49
63360,note_on,0,0,1,,,,,,,,,0,,,61,0
63360,note_on,240,0,1,,,,,,,,,0,,,73,0
63360,note_on,60,0,3,,,,,,,,,2,,,52,0
63420,note_on,0,0,3,,,,,,,,,2,,,59,36
63420,control_change,60,0,3,,,,,,,,,2,64,127,,
63480,note_on,0,0,3,,,,,,,,,2,,,55,49
63480,note_on,60,0,3,,,,,,,,,2,,,59,0
63540,note_on,0,0,3,,,,,,,,,2,,,50,49
63540,control_change,0,0,3,,,,,,,,,2,64,0,,
63540,note_on,60,0,3,,,,,,,,,2,,,55,0
63600,control_change,0,0,3,,,,,,,,,2,64,127,,
63600,note_on,60,0,3,,,,,,,,,2,,,50,0
63600,note_on,0,0,3,,,,,,,,,2,,,49,62
63600,note_on,240,0,4,,,,,,,,,3,,,50,0
63600,note_on,0,0,1,,,,,,,,,0,,,76,75
63600,note_on,0,0,1,,,,,,,,,0,,,64,75
63600,note_on,0,0,1,,,,,,,,,0,,,62,0
63600,note_on,240,0,1,,,,,,,,,0,,,74,0
63660,note_on,0,0,3,,,,,,,,,2,,,57,62
63660,note_on,60,0,3,,,,,,,,,2,,,49,0
63720,note_on,0,0,3,,,,,,,,,2,,,55,49
63720,note_on,60,0,3,,,,,,,,,2,,,57,0
63780,note_on,0,0,3,,,,,,,,,2,,,49,49
63780,control_change,0,0,3,,,,,,,,,2,64,0,,
63780,note_on,60,0,3,,,,,,,,,2,,,55,0
63840,note_on,240,0,1,,,,,,,,,0,,,76,0
63840,note_on,0,0,1,,,,,,,,,0,,,64,0
63840,note_on,0,0,1,,,,,,,,,0,,,78,36
63840,note_on,0,0,1,,,,,,,,,0,,,66,36
63840,note_on,60,0,3,,,,,,,,,2,,,49,0
63840,control_change,0,0,3,,,,,,,,,2,64,127,,
63840,note_on,0,0,3,,,,,,,,,2,,,50,36
63900,note_on,0,0,3,,,,,,,,,2,,,57,36
63900,note_on,60,0,3,,,,,,,,,2,,,50,0
63960,note_on,120,0,1,,,,,,,,,0,,,78,0
63960,note_on,60,0,3,,,,,,,,,2,,,57,0
63960,control_change,0,0,3,,,,,,,,,2,64,0,,
63960,note_on,0,0,3,,,,,,,,,2,,,54,36
63960,note_on,0,0,1,,,,,,,,,0,,,66,0
63960,note_on,0,0,1,,,,,,,,,0,,,74,36
63960,note_on,0,0,1,,,,,,,,,0,,,62,36
64020,note_on,60,0,3,,,,,,,,,2,,,54,0
64020,note_on,0,0,3,,,,,,,,,2,,,57,36
64080,note_on,0,0,1,,,,,,,,,0,,,83,36
64080,note_on,0,0,3,,,,,,,,,2,,,56,36
64080,note_on,120,0,1,,,,,,,,,0,,,74,0
64080,note_on,0,0,1,,,,,,,,,0,,,62,0
64080,note_on,60,0,3,,,,,,,,,2,,,57,0
64080,note_on,0,0,3,,,,,,,,,2,,,52,36
64140,note_on,0,0,1,,,,,,,,,0,,,71,36
64140,note_on,60,0,1,,,,,,,,,0,,,83,0
64140,note_on,0,0,3,,,,,,,,,2,,,52,0
64140,note_on,60,0,3,,,,,,,,,2,,,56,0
64200,note_on,60,0,3,,,,,,,,,2,,,73,36
64200,note_on,60,0,1,,,,,,,,,0,,,71,0
64200,note_on,0,0,1,,,,,,,,,0,,,81,36
64212,note_on,12,0,3,,,,,,,,,2,,,73,0
64260,note_on,60,0,1,,,,,,,,,0,,,81,0
64260,note_on,0,0,1,,,,,,,,,0,,,71,36
64320,note_on,60,0,1,,,,,,,,,0,,,71,0
64320,note_on,0,0,1,,,,,,,,,0,,,80,36
64320,note_on,108,0,3,,,,,,,,,2,,,71,36
64332,note_on,12,0,3,,,,,,,,,2,,,71,0
64380,note_on,60,0,1,,,,,,,,,0,,,80,0
64380,note_on,0,0,1,,,,,,,,,0,,,71,36
64440,note_on,108,0,3,,,,,,,,,2,,,69,36
64440,note_on,0,0,1,,,,,,,,,0,,,78,36
64440,note_on,60,0,1,,,,,,,,,0,,,71,0
64452,note_on,12,0,3,,,,,,,,,2,,,69,0
64500,note_on,0,0,1,,,,,,,,,0,,,71,36
64500,note_on,60,0,1,,,,,,,,,0,,,78,0
64560,note_on,0,0,3,,,,,,,,,2,,,61,36
64560,control_change,0,0,1,,,,,,,,,0,64,127,,
64560,note_on,0,0,1,,,,,,,,,0,,,76,36
64560,control_change,108,0,3,,,,,,,,,2,64,127,,
64560,note_on,60,0,1,,,,,,,,,0,,,71,0
64620,note_on,60,0,1,,,,,,,,,0,,,76,0
64620,note_on,0,0,1,,,,,,,,,0,,,68,36
64620,note_on,60,0,3,,,,,,,,,2,,,61,0
64680,note_on,60,0,1,,,,,,,,,0,,,68,0
64680,note_on,0,0,1,,,,,,,,,0,,,73,36
64680,note_on,60,0,3,,,,,,,,,2,,,64,36
64740,note_on,60,0,1,,,,,,,,,0,,,73,0
64740,control_change,0,0,1,,,,,,,,,0,64,0,,
64740,note_on,0,0,1,,,,,,,,,0,,,76,36
64740,note_on,60,0,3,,,,,,,,,2,,,64,0
64740,note_on,0,0,3,,,,,,,,,2,,,61,36
64740,control_change,0,0,3,,,,,,,,,2,64,0,,
64800,note_on,0,0,3,,,,,,,,,2,,,57,36
64800,control_change,0,0,3,,,,,,,,,2,64,127,,
64800,note_on,60,0,3,,,,,,,,,2,,,61,0
64800,note_on,60,0,1,,,,,,,,,0,,,76,0
64800,control_change,0,0,1,,,,,,,,,0,64,127,,
64800,note_on,0,0,1,,,,,,,,,0,,,78,36
64860,note_on,60,0,1,,,,,,,,,0,,,78,0
64860,note_on,0,0,1,,,,,,,,,0,,,69,36
64860,note_on,60,0,3,,,,,,,,,2,,,57,0
64860,note_on,0,0,3,,,,,,,,,2,,,66,36
64920,note_on,60,0,1,,,,,,,,,0,,,69,0
64920,note_on,60,0,3,,,,,,,,,2,,,66,0
64920,note_on,0,0,3,,,,,,,,,2,,,61,49
64920,note_on,0,0,1,,,,,,,,,0,,,73,62
64980,note_on,0,0,1,,,,,,,,,0,,,78,62
64980,note_on,60,0,3,,,,,,,,,2,,,61,0
64980,control_change,0,0,1,,,,,,,,,0,64,0,,
64980,control_change,0,0,3,,,,,,,,,2,64,0,,
64980,note_on,60,0,1,,,,,,,,,0,,,73,0
64980,note_on,0,0,3,,,,,,,,,2,,,57,49
65040,control_change,0,0,1,,,,,,,,,0,64,127,,
65040,note_on,60,0,1,,,,,,,,,0,,,78,0
65040,note_on,60,0,3,,,,,,,,,2,,,57,0
65040,note_on,0,0,3,,,,,,,,,2,,,56,62
65040,control_change,0,0,3,,,,,,,,,2,64,127,,
65040,note_on,0,0,1,,,,,,,,,0,,,80,75
65100,note_on,60,0,3,,,,,,,,,2,,,56,0
65100,note_on,60,0,1,,,,,,,,,0,,,80,0
65100,note_on,0,0,1,,,,,,,,,0,,,72,75
65100,note_on,0,0,3,,,,,,,,,2,,,63,62
65160,note_on,60,0,3,,,,,,,,,2,,,63,0
65160,note_on,0,0,3,,,,,,,,,2,,,60,49
65160,note_on,60,0,1,,,,,,,,,0,,,72,0
65160,note_on,0,0,1,,,,,,,,,0,,,75,62
65220,note_on,60,0,1,,,,,,,,,0,,,75,0
65220,control_change,0,0,1,,,,,,,,,0,64,0,,
65220,note_on,0,0,1,,,,,,,,,0,,,80,62
65220,control_change,0,0,3,,,,,,,,,2,64,0,,
65220,note_on,60,0,3,,,,,,,,,2,,,60,0
65220,note_on,0,0,3,,,,,,,,,2,,,56,49
65280,control_change,0,0,1,,,,,,,,,0,64,127,,
65280,note_on,60,0,3,,,,,,,,,2,,,56,0
65280,control_change,0,0,3,,,,,,,,,2,64,127,,
65280,note_on,0,0,3,,,,,,,,,2,,,54,36
65280,note_on,60,0,1,,,,,,,,,0,,,80,0
65280,note_on,0,0,1,,,,,,,,,0,,,81,36
65340,note_on,60,0,3,,,,,,,,,2,,,54,0
65340,note_on,0,0,3,,,,,,,,,2,,,66,36
65340,note_on,0,0,1,,,,,,,,,0,,,73,36
65340,note_on,60,0,1,,,,,,,,,0,,,81,0
65400,note_on,60,0,1,,,,,,,,,0,,,73,0
65400,control_change,0,0,3,,,,,,,,,2,64,0,,
65400,control_change,0,0,1,,,,,,,,,0,64,0,,
65400,note_on,60,0,3,,,,,,,,,2,,,66,0
65400,note_on,0,0,3,,,,,,,,,2,,,59,36
65400,note_on,0,0,1,,,,,,,,,0,,,78,36
65460,note_on,0,0,1,,,,,,,,,0,,,69,36
65460,note_on,60,0,3,,,,,,,,,2,,,59,0
65460,note_on,0,0,3,,,,,,,,,2,,,63,36
65460,note_on,60,0,1,,,,,,,,,0,,,78,0
65520,note_on,60,0,1,,,,,,,,,0,,,69,0
65520,control_change,0,0,1,,,,,,,,,0,64,127,,
65520,note_on,0,0,1,,,,,,,,,0,,,68,36
65520,note_on,0,0,1,,,,,,,,,0,,,76,36
65520,note_on,0,0,3,,,,,,,,,2,,,64,36
65520,note_on,60,0,3,,,,,,,,,2,,,63,0
65520,control_change,0,0,3,,,,,,,,,2,64,127,,
65520,note_on,0,0,3,,,,,,,,,2,,,52,36
65580,note_on,60,0,1,,,,,,,,,0,,,76,0
65580,note_on,0,0,1,,,,,,,,,0,,,80,36
65580,note_on,0,0,1,,,,,,,,,0,,,68,0
65580,note_on,0,0,3,,,,,,,,,2,,,52,0
65580,note_on,60,0,3,,,,,,,,,2,,,64,0
65640,note_on,60,0,1,,,,,,,,,0,,,80,0
65640,note_on,0,0,1,,,,,,,,,0,,,83,36
65700,note_on,0,0,1,,,,,,,,,0,,,88,36
65700,note_on,60,0,1,,,,,,,,,0,,,83,0
65760,note_on,180,0,3,,,,,,,,,2,,,76,88
65760,note_on,0,0,1,,,,,,,,,0,,,92,88
65760,note_on,60,0,1,,,,,,,,,0,,,88,0
65820,note_on,0,0,1,,,,,,,,,0,,,83,88
65820,note_on,60,0,1,,,,,,,,,0,,,92,0
65880,note_on,0,0,1,,,,,,,,,0,,,95,49
65880,control_change,0,0,3,,,,,,,,,2,64,0,,
65880,note_on,0,0,3,,,,,,,,,2,,,80,36
65880,note_on,60,0,1,,,,,,,,,0,,,83,0
65880,note_on,120,0,3,,,,,,,,,2,,,76,0
65940,note_on,60,0,1,,,,,,,,,0,,,95,0
65940,control_change,0,0,1,,,,,,,,,0,64,0,,
65940,note_on,0,0,1,,,,,,,,,0,,,83,49
66000,note_on,0,0,3,,,,,,,,,2,,,59,36
66000,control_change,0,0,3,,,,,,,,,2,64,127,,
66000,note_on,120,0,3,,,,,,,,,2,,,80,0
66000,control_change,10800,0,2,,,,,,,,,1,64,127,,
66000,note_on,60,0,1,,,,,,,,,0,,,83,0
66000,control_change,0,0,1,,,,,,,,,0,64,127,,
66000,note_on,0,0,1,,,,,,,,,0,,,71,49
66060,note_on,60,0,2,,,,,,,,,1,,,69,36
66120,note_on,0,0,3,,,,,,,,,2,,,66,36
66120,note_on,120,0,3,,,,,,,,,2,,,59,0
66120,note_on,60,0,2,,,,,,,,,1,,,69,0
66120,note_on,0,0,2,,,,,,,,,1,,,72,36
66120,note_on,120,0,1,,,,,,,,,0,,,71,0
66120,note_on,0,0,1,,,,,,,,,0,,,81,49
66180,note_on,60,0,2,,,,,,,,,1,,,72,0
66180,note_on,0,0,2,,,,,,,,,1,,,69,36
66240,note_on,0,0,2,,,,,,,,,1,,,71,36
66240,note_on,120,0,3,,,,,,,,,2,,,66,0
66240,note_on,0,0,3,,,,,,,,,2,,,63,36
66240,note_on,60,0,2,,,,,,,,,1,,,69,0
66240,note_on,0,0,1,,,,,,,,,0,,,78,49
66240,note_on,120,0,1,,,,,,,,,0,,,81,0
66300,note_on,0,0,2,,,,,,,,,1,,,69,36
66300,note_on,60,0,2,,,,,,,,,1,,,71,0
66360,note_on,0,0,1,,,,,,,,,0,,,75,49
66360,note_on,0,0,2,,,,,,,,,1,,,71,36
66360,note_on,120,0,3,,,,,,,,,2,,,63,0
66360,control_change,0,0,3,,,,,,,,,2,64,0,,
66360,note_on,0,0,3,,,,,,,,,2,,,59,36
66360,note_on,60,0,2,,,,,,,,,1,,,69,0
66360,control_change,0,0,1,,,,,,,,,0,64,0,,
66360,note_on,120,0,1,,,,,,,,,0,,,78,0
66420,note_on,60,0,2,,,,,,,,,1,,,71,0
66420,note_on,0,0,2,,,,,,,,,1,,,69,36
66420,control_change,0,0,2,,,,,,,,,1,64,0,,
66480,note_on,0,0,3,,,,,,,,,2,,,64,36
66480,note_on,120,0,1,,,,,,,,,0,,,75,0
66480,control_change,0,0,1,,,,,,,,,0,64,127,,
66480,control_change,0,0,3,,,,,,,,,2,64,127,,
66480,note_on,0,0,1,,,,,,,,,0,,,76,36
66480,note_on,0,0,1,,,,,,,,,0,,,68,36
66480,note_on,120,0,3,,,,,,,,,2,,,59,0
66480,note_on,60,0,2,,,,,,,,,1,,,69,0
66540,note_on,0,0,1,,,,,,,,,0,,,80,36
66540,note_on,0,0,1,,,,,,,,,0,,,68,0
66540,note_on,60,0,1,,,,,,,,,0,,,76,0
66540,note_on,60,0,3,,,,,,,,,2,,,64,0
66600,note_on,60,0,1,,,,,,,,,0,,,80,0
66600,note_on,0,0,1,,,,,,,,,0,,,83,36
66660,note_on,0,0,1,,,,,,,,,0,,,88,36
66660,note_on,60,0,1,,,,,,,,,0,,,83,0
66720,note_on,0,0,1,,,,,,,,,0,,,92,36
66720,note_on,180,0,3,,,,,,,,,2,,,76,36
66720,note_on,60,0,1,,,,,,,,,0,,,88,0
66780,note_on,0,0,1,,,,,,,,,0,,,83,36
66780,note_on,60,0,1,,,,,,,,,0,,,92,0
66840,note_on,0,0,3,,,,,,,,,2,,,80,36
66840,control_change,0,0,3,,,,,,,,,2,64,0,,
66840,note_on,120,0,3,,,,,,,,,2,,,76,0
66840,note_on,0,0,1,,,,,,,,,0,,,95,36
66840,note_on,60,0,1,,,,,,,,,0,,,83,0
66900,note_on,60,0,1,,,,,,,,,0,,,95,0
66900,note_on,0,0,1,,,,,,,,,0,,,83,36
66900,control_change,0,0,1,,,,,,,,,0,64,0,,
66960,note_on,120,0,3,,,,,,,,,2,,,80,0
66960,control_change,0,0,3,,,,,,,,,2,64,127,,
66960,note_on,0,0,3,,,,,,,,,2,,,59,36
66960,note_on,60,0,1,,,,,,,,,0,,,83,0
66960,control_change,0,0,1,,,,,,,,,0,64,127,,
66960,note_on,0,0,1,,,,,,,,,0,,,71,36
66960,control_change,480,0,2,,,,,,,,,1,64,127,,
67020,note_on,60,0,2,,,,,,,,,1,,,69,36
67080,note_on,120,0,3,,,,,,,,,2,,,59,0
67080,note_on,0,0,3,,,,,,,,,2,,,66,36
67080,note_on,0,0,2,,,,,,,,,1,,,72,36
67080,note_on,60,0,2,,,,,,,,,1,,,69,0
67080,note_on,120,0,1,,,,,,,,,0,,,71,0
67080,note_on,0,0,1,,,,,,,,,0,,,81,36
67140,note_on,0,0,2,,,,,,,,,1,,,69,36
67140,note_on,60,0,2,,,,,,,,,1,,,72,0
67200,note_on,0,0,1,,,,,,,,,0,,,78,36
67200,note_on,120,0,1,,,,,,,,,0,,,81,0
67200,note_on,60,0,2,,,,,,,,,1,,,69,0
67200,note_on,120,0,3,,,,,,,,,2,,,66,0
67200,note_on,0,0,3,,,,,,,,,2,,,63,36
67200,note_on,0,0,2,,,,,,,,,1,,,71,36
67260,note_on,0,0,2,,,,,,,,,1,,,69,36
67260,note_on,60,0,2,,,,,,,,,1,,,71,0
67320,note_on,0,0,1,,,,,,,,,0,,,75,36
67320,control_change,0,0,1,,,,,,,,,0,64,0,,
67320,note_on,120,0,1,,,,,,,,,0,,,78,0
67320,note_on,0,0,2,,,,,,,,,1,,,71,36
67320,note_on,60,0,2,,,,,,,,,1,,,69,0
67320,note_on,120,0,3,,,,,,,,,2,,,63,0
67320,note_on,0,0,3,,,,,,,,,2,,,59,36
67320,control_change,0,0,3,,,,,,,,,2,64,0,,
67380,note_on,0,0,2,,,,,,,,,1,,,69,36
67380,control_change,0,0,2,,,,,,,,,1,64,0,,
67380,note_on,60,0,2,,,,,,,,,1,,,71,0
67440,note_on,120,0,1,,,,,,,,,0,,,75,0
67440,note_on,0,0,1,,,,,,,,,0,,,76,36
67440,note_on,60,0,2,,,,,,,,,1,,,69,0
67440,note_on,0,0,1,,,,,,,,,0,,,68,36
67440,note_on,0,0,3,,,,,,,,,2,,,64,36
67440,note_on,120,0,3,,,,,,,,,2,,,59,0
67500,note_on,0,0,3,,,,,,,,,2,,,66,36
67500,note_on,60,0,3,,,,,,,,,2,,,64,0
67560,note_on,120,0,1,,,,,,,,,0,,,76,0
67560,note_on,0,0,1,,,,,,,,,0,,,68,0
67560,note_on,0,0,3,,,,,,,,,2,,,63,36
67560,note_on,60,0,3,,,,,,,,,2,,,66,0
67620,note_on,0,0,3,,,,,,,,,2,,,66,36
67620,note_on,60,0,3,,,,,,,,,2,,,63,0
67680,note_on,60,0,3,,,,,,,,,2,,,66,0
67680,note_on,0,0,3,,,,,,,,,2,,,64,36
67740,note_on,0,0,3,,,,,,,,,2,,,66,36
67740,note_on,60,0,3,,,,,,,,,2,,,64,0
67800,note_on,0,0,3,,,,,,,,,2,,,63,36
67800,note_on,60,0,3,,,,,,,,,2,,,66,0
67860,note_on,60,0,3,,,,,,,,,2,,,63,0
67860,note_on,0,0,3,,,,,,,,,2,,,66,36
67920,note_on,60,0,3,,,,,,,,,2,,,66,0
67920,note_on,0,0,3,,,,,,,,,2,,,64,36
67920,note_on,0,0,1,,,,,,,,,0,,,85,49
67920,note_on,360,0,1,,,,,,,,,0,,,73,49
67980,note_on,60,0,3,,,,,,,,,2,,,64,0
67980,note_on,0,0,3,,,,,,,,,2,,,66,36
68040,note_on,60,0,3,,,,,,,,,2,,,66,0
68040,note_on,0,0,1,,,,,,,,,0,,,83,49
68040,note_on,0,0,1,,,,,,,,,0,,,71,49
68040,note_on,0,0,1,,,,,,,,,0,,,73,0
68040,note_on,120,0,1,,,,,,,,,0,,,85,0
68040,note_on,0,0,3,,,,,,,,,2,,,62,36
68100,note_on,60,0,3,,,,,,,,,2,,,62,0
68100,note_on,0,0,3,,,,,,,,,2,,,64,36
68160,note_on,60,0,3,,,,,,,,,2,,,64,0
68160,note_on,0,0,1,,,,,,,,,0,,,81,49
68160,note_on,0,0,1,,,,,,,,,0,,,69,49
68160,note_on,0,0,1,,,,,,,,,0,,,71,0
68160,note_on,120,0,1,,,,,,,,,0,,,83,0
68160,note_on,0,0,3,,,,,,,,,2,,,61,36
68220,note_on,0,0,3,,,,,,,,,2,,,62,36
68220,note_on,60,0,3,,,,,,,,,2,,,61,0
68280,note_on,60,0,3,,,,,,,,,2,,,62,0
68280,note_on,0,0,1,,,,,,,,,0,,,69,0
68280,note_on,0,0,1,,,,,,,,,0,,,68,49
68280,note_on,0,0,1,,,,,,,,,0,,,80,49
68280,note_on,0,0,3,,,,,,,,,2,,,59,36
68280,note_on,120,0,1,,,,,,,,,0,,,81,0
68340,note_on,0,0,3,,,,,,,,,2,,,61,36
68340,note_on,60,0,3,,,,,,,,,2,,,59,0
68400,note_on,120,0,1,,,,,,,,,0,,,80,0
68400,note_on,0,0,1,,,,,,,,,0,,,68,0
68400,note_on,60,0,3,,,,,,,,,2,,,61,0
68400,note_on,4800,0,4,,,,,,,,,3,,,49,36
68400,note_on,0,0,1,,,,,,,,,0,,,69,49
68400,note_on,0,0,1,,,,,,,,,0,,,81,49
68460,control_change,60,0,3,,,,,,,,,2,64,127,,
68460,note_on,0,0,3,,,,,,,,,2,,,57,36
68520,note_on,60,0,3,,,,,,,,,2,,,57,0
68520,note_on,0,0,3,,,,,,,,,2,,,52,36
68580,note_on,0,0,3,,,,,,,,,2,,,49,36
68580,note_on,60,0,3,,,,,,,,,2,,,52,0
68580,control_change,0,0,3,,,,,,,,,2,64,0,,
68640,note_on,240,0,1,,,,,,,,,0,,,81,0
68640,note_on,0,0,1,,,,,,,,,0,,,83,49
68640,note_on,240,0,4,,,,,,,,,3,,,49,0
68640,note_on,0,0,4,,,,,,,,,3,,,47,36
68640,note_on,0,0,1,,,,,,,,,0,,,71,49
68640,note_on,0,0,1,,,,,,,,,0,,,69,0
68640,note_on,60,0,3,,,,,,,,,2,,,49,0
68700,control_change,60,0,3,,,,,,,,,2,64,127,,
68700,note_on,0,0,3,,,,,,,,,2,,,56,36
68760,note_on,0,0,3,,,,,,,,,2,,,52,62
68760,note_on,60,0,3,,,,,,,,,2,,,56,0
68820,note_on,60,0,3,,,,,,,,,2,,,52,0
68820,control_change,0,0,3,,,,,,,,,2,64,0,,
68820,note_on,0,0,3,,,,,,,,,2,,,47,62
68880,note_on,0,0,4,,,,,,,,,3,,,46,62
68880,note_on,0,0,1,,,,,,,,,0,,,85,75
68880,note_on,0,0,1,,,,,,,,,0,,,73,75
68880,note_on,0,0,1,,,,,,,,,0,,,71,0
68880,note_on,240,0,4,,,,,,,,,3,,,47,0
68880,note_on,240,0,1,,,,,,,,,0,,,83,0
68880,note_on,60,0,3,,,,,,,,,2,,,47,0
68940,note_on,0,0,3,,,,,,,,,2,,,55,62
68940,control_change,60,0,3,,,,,,,,,2,64,127,,
69000,note_on,0,0,3,,,,,,,,,2,,,52,62
69000,note_on,60,0,3,,,,,,,,,2,,,55,0
69060,note_on,0,0,3,,,,,,,,,2,,,46,62
69060,control_change,0,0,3,,,,,,,,,2,64,0,,
69060,note_on,60,0,3,,,,,,,,,2,,,52,0
69120,note_on,60,0,3,,,,,,,,,2,,,46,0
69120,note_on,240,0,4,,,,,,,,,3,,,46,0
69120,note_on,0,0,4,,,,,,,,,3,,,47,36
69120,note_on,0,0,1,,,,,,,,,0,,,74,49
69120,note_on,0,0,1,,,,,,,,,0,,,86,49
69120,note_on,0,0,1,,,,,,,,,0,,,73,0
69120,note_on,240,0,1,,,,,,,,,0,,,85,0
69180,note_on,60,0,3,,,,,,,,,2,,,54,36
69240,note_on,0,0,1,,,,,,,,,0,,,74,0
69240,note_on,0,0,1,,,,,,,,,0,,,83,49
69240,note_on,120,0,1,,,,,,,,,0,,,86,0
69240,note_on,0,0,1,,,,,,,,,0,,,71,49
69240,note_on,0,0,4,,,,,,,,,3,,,50,36
69240,note_on,60,0,3,,,,,,,,,2,,,54,0
69240,note_on,120,0,4,,,,,,,,,3,,,47,0
69252,note_on,0,0,1,,,,,,,,,0,,,71,0
69252,note_on,12,0,1,,,,,,,,,0,,,83,0
69300,note_on,60,0,3,,,,,,,,,2,,,54,36
69360,note_on,0,0,3,,,,,,,,,2,,,38,36
69360,note_on,60,0,3,,,,,,,,,2,,,54,0
69360,control_change,108,0,1,,,,,,,,,0,64,127,,
69360,note_on,0,0,1,,,,,,,,,0,,,69,49
69360,note_on,120,0,4,,,,,,,,,3,,,50,0
69420,note_on,60,0,1,,,,,,,,,0,,,69,0
69420,note_on,0,0,1,,,,,,,,,0,,,78,49
69480,note_on,60,0,1,,,,,,,,,0,,,78,0
69480,note_on,0,0,1,,,,,,,,,0,,,74,49
69540,note_on,60,0,1,,,,,,,,,0,,,74,0
69540,control_change,0,0,1,,,,,,,,,0,64,0,,
69540,note_on,0,0,1,,,,,,,,,0,,,69,49
69600,note_on,60,0,1,,,,,,,,,0,,,69,0
69600,control_change,0,0,1,,,,,,,,,0,64,127,,
69600,note_on,0,0,1,,,,,,,,,0,,,69,49
69600,note_on,240,0,3,,,,,,,,,2,,,38,0
69600,note_on,0,0,3,,,,,,,,,2,,,40,36
69660,note_on,0,0,1,,,,,,,,,0,,,76,49
69660,note_on,60,0,1,,,,,,,,,0,,,69,0
69720,note_on,60,0,1,,,,,,,,,0,,,76,0
69720,note_on,0,0,1,,,,,,,,,0,,,72,62
69780,note_on,60,0,1,,,,,,,,,0,,,72,0
69780,control_change,0,0,1,,,,,,,,,0,64,0,,
69780,note_on,0,0,1,,,,,,,,,0,,,69,62
69840,note_on,0,0,3,,,,,,,,,2,,,42,62
69840,note_on,240,0,3,,,,,,,,,2,,,40,0
69840,control_change,0,0,1,,,,,,,,,0,64,127,,
69840,note_on,0,0,1,,,,,,,,,0,,,69,75
69840,note_on,60,0,1,,,,,,,,,0,,,69,0
69900,note_on,0,0,1,,,,,,,,,0,,,75,75
69900,note_on,60,0,1,,,,,,,,,0,,,69,0
69960,note_on,0,0,1,,,,,,,,,0,,,72,62
69960,note_on,60,0,1,,,,,,,,,0,,,75,0
70020,note_on,60,0,1,,,,,,,,,0,,,72,0
70020,control_change,0,0,1,,,,,,,,,0,64,0,,
70020,note_on,0,0,1,,,,,,,,,0,,,69,62
70080,note_on,60,0,1,,,,,,,,,0,,,69,0
70080,control_change,0,0,1,,,,,,,,,0,64,127,,
70080,note_on,0,0,1,,,,,,,,,0,,,71,49
70080,note_on,240,0,3,,,,,,,,,2,,,42,0
70080,note_on,0,0,3,,,,,,,,,2,,,43,36
70080,control_change,0,0,3,,,,,,,,,2,64,127,,
70092,note_on,12,0,3,,,,,,,,,2,,,43,0
70140,note_on,0,0,1,,,,,,,,,0,,,76,49
70140,note_on,60,0,1,,,,,,,,,0,,,71,0
70200,note_on,0,0,1,,,,,,,,,0,,,67,49
70200,note_on,60,0,1,,,,,,,,,0,,,76,0
70200,control_change,108,0,3,,,,,,,,,2,64,0,,
70200,note_on,0,0,3,,,,,,,,,2,,,40,36
70204,note_on,4,0,3,,,,,,,,,2,,,40,0
70260,note_on,0,0,1,,,,,,,,,0,,,76,49
70260,control_change,0,0,1,,,,,,,,,0,64,0,,
70260,note_on,60,0,1,,,,,,,,,0,,,67,0
70320,note_on,0,0,1,,,,,,,,,0,,,79,49
70320,note_on,960,0,4,,,,,,,,,3,,,47,36
70320,note_on,0,0,1,,,,,,,,,0,,,67,49
70320,note_on,60,0,1,,,,,,,,,0,,,76,0
70380,note_on,0,0,3,,,,,,,,,2,,,55,36
70380,control_change,176,0,3,,,,,,,,,2,64,127,,
70440,note_on,60,0,3,,,,,,,,,2,,,55,0
70440,note_on,0,0,3,,,,,,,,,2,,,50,36
70500,note_on,60,0,3,,,,,,,,,2,,,50,0
70500,note_on,180,0,4,,,,,,,,,3,,,47,0
70500,control_change,0,0,3,,,,,,,,,2,64,0,,
70500,note_on,0,0,3,,,,,,,,,2,,,47,36
70560,note_on,240,0,1,,,,,,,,,0,,,79,0
70560,note_on,0,0,1,,,,,,,,,0,,,67,0
70560,note_on,0,0,1,,,,,,,,,0,,,81,49
70560,note_on,60,0,3,,,,,,,,,2,,,47,0
70560,note_on,60,0,4,,,,,,,,,3,,,45,36
70560,note_on,0,0,1,,,,,,,,,0,,,69,49
70620,note_on,0,0,3,,,,,,,,,2,,,53,36
70620,control_change,60,0,3,,,,,,,,,2,64,127,,
70680,note_on,0,0,3,,,,,,,,,2,,,48,62
70680,note_on,60,0,3,,,,,,,,,2,,,53,0
70740,note_on,0,0,3,,,,,,,,,2,,,45,62
70740,control_change,0,0,3,,,,,,,,,2,64,0,,
70740,note_on,60,0,3,,,,,,,,,2,,,48,0
70770,note_on,210,0,4,,,,,,,,,3,,,45,0
70800,note_on,30,0,4,,,,,,,,,3,,,44,62
70800,note_on,240,0,1,,,,,,,,,0,,,81,0
70800,note_on,60,0,3,,,,,,,,,2,,,45,0
70800,note_on,0,0,1,,,,,,,,,0,,,69,0
70800,note_on,0,0,1,,,,,,,,,0,,,83,75
70800,note_on,0,0,1,,,,,,,,,0,,,71,75
70860,control_change,60,0,3,,,,,,,,,2,64,127,,
70860,note_on,0,0,3,,,,,,,,,2,,,53,62
70920,note_on,60,0,3,,,,,,,,,2,,,53,0
70920,note_on,0,0,3,,,,,,,,,2,,,50,49
70980,note_on,180,0,4,,,,,,,,,3,,,44,0
70980,control_change,0,0,3,,,,,,,,,2,64,0,,
70980,note_on,0,0,3,,,,,,,,,2,,,44,49
70980,note_on,60,0,3,,,,,,,,,2,,,50,0
71040,note_on,0,0,1,,,,,,,,,0,,,71,0
71040,note_on,0,0,1,,,,,,,,,0,,,72,49
71040,note_on,0,0,1,,,,,,,,,0,,,84,49
71040,note_on,240,0,1,,,,,,,,,0,,,83,0
71040,note_on,60,0,4,,,,,,,,,3,,,42,36
71040,note_on,60,0,3,,,,,,,,,2,,,44,0
71052,note_on,12,0,1,,,,,,,,,0,,,84,0
71052,note_on,0,0,1,,,,,,,,,0,,,72,0
71100,note_on,60,0,3,,,,,,,,,2,,,51,36
71160,note_on,108,0,1,,,,,,,,,0,,,69,49
71160,note_on,0,0,1,,,,,,,,,0,,,81,49
71160,note_on,0,0,4,,,,,,,,,3,,,41,36
71160,note_on,120,0,4,,,,,,,,,3,,,42,0
71160,note_on,60,0,3,,,,,,,,,2,,,51,0
71164,note_on,0,0,1,,,,,,,,,0,,,69,0
71164,note_on,4,0,1,,,,,,,,,0,,,81,0
71220,note_on,60,0,3,,,,,,,,,2,,,48,36
71280,note_on,0,0,3,,,,,,,,,2,,,40,36
71280,note_on,0,0,3,,,,,,,,,2,,,49,36
71280,note_on,60,0,3,,,,,,,,,2,,,48,0
71280,note_on,116,0,1,,,,,,,,,0,,,88,49
71280,note_on,120,0,4,,,,,,,,,3,,,41,0
71340,note_on,0,0,3,,,,,,,,,2,,,40,0
71340,note_on,60,0,1,,,,,,,,,0,,,88,0
71340,note_on,0,0,1,,,,,,,,,0,,,76,49
71340,note_on,60,0,3,,,,,,,,,2,,,49,0
71400,note_on,60,0,1,,,,,,,,,0,,,76,0
71400,note_on,0,0,1,,,,,,,,,0,,,86,49
71400,note_on,60,0,3,,,,,,,,,2,,,78,36
71460,note_on,60,0,1,,,,,,,,,0,,,86,0
71460,note_on,0,0,1,,,,,,,,,0,,,76,49
71520,note_on,120,0,3,,,,,,,,,2,,,78,0
71520,note_on,60,0,1,,,,,,,,,0,,,76,0
71520,note_on,0,0,1,,,,,,,,,0,,,85,49
71520,note_on,0,0,3,,,,,,,,,2,,,76,36
71580,note_on,60,0,1,,,,,,,,,0,,,85,0
71580,note_on,0,0,1,,,,,,,,,0,,,76,49
71640,note_on,120,0,3,,,,,,,,,2,,,76,0
71640,note_on,0,0,3,,,,,,,,,2,,,74,36
71640,note_on,60,0,1,,,,,,,,,0,,,76,0
71640,note_on,0,0,1,,,,,,,,,0,,,83,49
71700,note_on,60,0,1,,,,,,,,,0,,,83,0
71700,note_on,0,0,1,,,,,,,,,0,,,76,49
71760,note_on,120,0,3,,,,,,,,,2,,,74,0
71760,control_change,0,0,3,,,,,,,,,2,64,127,,
71760,note_on,0,0,3,,,,,,,,,2,,,66,36
71760,note_on,60,0,1,,,,,,,,,0,,,76,0
71760,control_change,0,0,1,,,,,,,,,0,64,127,,
71760,note_on,0,0,1,,,,,,,,,0,,,81,49
71820,note_on,60,0,1,,,,,,,,,0,,,81,0
71820,note_on,60,0,3,,,,,,,,,2,,,66,0
71820,note_on,0,0,1,,,,,,,,,0,,,69,49
71880,note_on,60,0,1,,,,,,,,,0,,,69,0
71880,note_on,0,0,1,,,,,,,,,0,,,78,49
71880,note_on,60,0,3,,,,,,,,,2,,,69,36
71940,note_on,60,0,1,,,,,,,,,0,,,78,0
71940,control_change,0,0,1,,,,,,,,,0,64,0,,
71940,note_on,0,0,3,,,,,,,,,2,,,66,36
71940,control_change,0,0,3,,,,,,,,,2,64,0,,
71940,note_on,60,0,3,,,,,,,,,2,,,69,0
71940,note_on,0,0,1,,,,,,,,,0,,,81,49
72000,note_on,0,0,3,,,,,,,,,2,,,62,36
72000,control_change,0,0,3,,,,,,,,,2,64,127,,
72000,note_on,60,0,3,,,,,,,,,2,,,66,0
72000,note_on,60,0,1,,,,,,,,,0,,,81,0
72000,note_on,0,0,1,,,,,,,,,0,,,83,49
72000,control_change,0,0,1,,,,,,,,,0,64,127,,
72060,note_on,0,0,1,,,,,,,,,0,,,74,49
72060,note_on,60,0,1,,,,,,,,,0,,,83,0
72060,note_on,60,0,3,,,,,,,,,2,,,62,0
72060,note_on,0,0,3,,,,,,,,,2,,,71,36
72120,note_on,60,0,1,,,,,,,,,0,,,74,0
72120,note_on,60,0,3,,,,,,,,,2,,,71,0
72120,note_on,0,0,1,,,,,,,,,0,,,78,49
72120,note_on,0,0,3,,,,,,,,,2,,,66,36
72180,note_on,60,0,3,,,,,,,,,2,,,66,0
72180,control_change,0,0,3,,,,,,,,,2,64,0,,
72180,note_on,0,0,3,,,,,,,,,2,,,62,36
72180,note_on,60,0,1,,,,,,,,,0,,,78,0
72180,control_change,0,0,1,,,,,,,,,0,64,0,,
72180,note_on,0,0,1,,,,,,,,,0,,,83,49
72240,note_on,60,0,1,,,,,,,,,0,,,83,0
72240,control_change,0,0,1,,,,,,,,,0,64,127,,
72240,note_on,0,0,1,,,,,,,,,0,,,85,49
72240,note_on,0,0,3,,,,,,,,,2,,,61,36
72240,control_change,0,0,3,,,,,,,,,2,64,127,,
72240,note_on,60,0,3,,,,,,,,,2,,,62,0
72300,note_on,0,0,3,,,,,,,,,2,,,68,36
72300,note_on,60,0,1,,,,,,,,,0,,,85,0
72300,note_on,0,0,1,,,,,,,,,0,,,77,49
72300,note_on,60,0,3,,,,,,,,,2,,,61,0
72360,note_on,60,0,1,,,,,,,,,0,,,77,0
72360,note_on,0,0,3,,,,,,,,,2,,,65,36
72360,note_on,60,0,3,,,,,,,,,2,,,68,0
72360,note_on,0,0,1,,,,,,,,,0,,,80,49
72420,control_change,0,0,3,,,,,,,,,2,64,0,,
72420,note_on,0,0,3,,,,,,,,,2,,,61,36
72420,note_on,60,0,3,,,,,,,,,2,,,65,0
72420,note_on,0,0,1,,,,,,,,,0,,,85,49
72420,note_on,60,0,1,,,,,,,,,0,,,80,0
72420,control_change,0,0,1,,,,,,,,,0,64,0,,
72480,note_on,60,0,3,,,,,,,,,2,,,61,0
72480,note_on,0,0,3,,,,,,,,,2,,,59,49
72480,control_change,0,0,3,,,,,,,,,2,64,127,,
72480,control_change,0,0,1,,,,,,,,,0,64,127,,
72480,note_on,0,0,1,,,,,,,,,0,,,86,62
72480,note_on,60,0,1,,,,,,,,,0,,,85,0
72540,note_on,0,0,1,,,,,,,,,0,,,78,62
72540,note_on,60,0,3,,,,,,,,,2,,,59,0
72540,note_on,0,0,3,,,,,,,,,2,,,71,49
72540,note_on,60,0,1,,,,,,,,,0,,,86,0
72600,note_on,60,0,1,,,,,,,,,0,,,78,0
72600,note_on,60,0,3,,,,,,,,,2,,,71,0
72600,note_on,0,0,3,,,,,,,,,2,,,64,36
72600,control_change,0,0,1,,,,,,,,,0,64,0,,
72600,note_on,0,0,1,,,,,,,,,0,,,83,36
72600,control_change,0,0,3,,,,,,,,,2,64,0,,
72660,note_on,60,0,3,,,,,,,,,2,,,64,0
72660,note_on,60,0,1,,,,,,,,,0,,,83,0
72660,note_on,0,0,3,,,,,,,,,2,,,68,36
72660,note_on,0,0,1,,,,,,,,,0,,,71,36
72720,control_change,0,0,3,,,,,,,,,2,64,127,,
72720,note_on,60,0,3,,,,,,,,,2,,,68,0
72720,note_on,0,0,3,,,,,,,,,2,,,69,36
72720,note_on,0,0,3,,,,,,,,,2,,,57,36
72720,note_on,0,0,1,,,,,,,,,0,,,81,36
72720,note_on,0,0,1,,,,,,,,,0,,,73,36
72720,control_change,0,0,1,,,,,,,,,0,64,127,,
72720,note_on,60,0,1,,,,,,,,,0,,,71,0
72780,note_on,60,0,3,,,,,,,,,2,,,69,0
72780,note_on,0,0,3,,,,,,,,,2,,,57,0
72780,note_on,0,0,1,,,,,,,,,0,,,85,36
72780,note_on,0,0,1,,,,,,,,,0,,,73,0
72780,note_on,60,0,1,,,,,,,,,0,,,81,0
72840,note_on,0,0,1,,,,,,,,,0,,,88,36
72840,note_on,60,0,1,,,,,,,,,0,,,85,0
72900,note_on,60,0,1,,,,,,,,,0,,,88,0
72900,note_on,0,0,1,,,,,,,,,0,,,93,36
72960,note_on,60,0,1,,,,,,,,,0,,,93,0
72960,note_on,0,0,1,,,,,,,,,0,,,97,88
72960,control_change,180,0,3,,,,,,,,,2,64,127,,
72960,note_on,0,0,3,,,,,,,,,2,,,81,75
73020,note_on,0,0,2,,,,,,,,,1,,,88,75
73020,control_change,5580,0,2,,,,,,,,,1,64,127,,
73080,note_on,120,0,3,,,,,,,,,2,,,81,0
73080,note_on,0,0,3,,,,,,,,,2,,,85,36
73080,note_on,120,0,1,,,,,,,,,0,,,97,0
73080,note_on,0,0,1,,,,,,,,,0,,,100,88
73080,note_on,60,0,2,,,,,,,,,1,,,88,0
73080,control_change,0,0,3,,,,,,,,,2,64,0,,
73140,note_on,60,0,3,,,,,,,,,2,,,85,0
73140,note_on,0,0,2,,,,,,,,,1,,,88,36
73140,control_change,60,0,2,,,,,,,,,1,64,0,,
73200,control_change,60,0,3,,,,,,,,,2,64,127,,
73200,note_on,0,0,3,,,,,,,,,2,,,64,36
73200,note_on,60,0,2,,,,,,,,,1,,,88,0
73200,control_change,0,0,1,,,,,,,,,0,64,127,,
73200,note_on,0,0,1,,,,,,,,,0,,,76,49
73200,note_on,120,0,1,,,,,,,,,0,,,100,0
73260,control_change,60,0,2,,,,,,,,,1,64,127,,
73260,note_on,0,0,2,,,,,,,,,1,,,74,36
73320,note_on,0,0,1,,,,,,,,,0,,,86,49
73320,note_on,120,0,1,,,,,,,,,0,,,76,0
73320,note_on,60,0,2,,,,,,,,,1,,,74,0
73320,note_on,0,0,3,,,,,,,,,2,,,71,36
73320,note_on,0,0,2,,,,,,,,,1,,,77,36
73320,note_on,120,0,3,,,,,,,,,2,,,64,0
73380,note_on,0,0,2,,,,,,,,,1,,,74,36
73380,note_on,60,0,2,,,,,,,,,1,,,77,0
73440,note_on,60,0,2,,,,,,,,,1,,,74,0
73440,note_on,120,0,1,,,,,,,,,0,,,86,0
73440,note_on,0,0,2,,,,,,,,,1,,,76,36
73440,note_on,0,0,1,,,,,,,,,0,,,83,49
73440,note_on,0,0,3,,,,,,,,,2,,,68,36
73440,note_on,120,0,3,,,,,,,,,2,,,71,0
73500,note_on,60,0,2,,,,,,,,,1,,,76,0
73500,note_on,0,0,2,,,,,,,,,1,,,74,36
73560,note_on,60,0,2,,,,,,,,,1,,,74,0
73560,note_on,0,0,2,,,,,,,,,1,,,76,36
73560,note_on,0,0,1,,,,,,,,,0,,,80,49
73560,note_on,120,0,1,,,,,,,,,0,,,83,0
73560,note_on,0,0,3,,,,,,,,,2,,,64,36
73560,note_on,120,0,3,,,,,,,,,2,,,68,0
73620,note_on,60,0,2,,,,,,,,,1,,,76,0
73620,note_on,0,0,2,,,,,,,,,1,,,74,36
73680,note_on,0,0,1,,,,,,,,,0,,,81,49
73680,note_on,120,0,1,,,,,,,,,0,,,80,0
73680,note_on,120,0,3,,,,,,,,,2,,,64,0
73680,note_on,0,0,3,,,,,,,,,2,,,69,36
73680,note_on,60,0,2,,,,,,,,,1,,,74,0
73680,control_change,0,0,1,,,,,,,,,0,64,127,,
73680,note_on,0,0,1,,,,,,,,,0,,,73,49
73740,note_on,60,0,3,,,,,,,,,2,,,69,0
73740,note_on,0,0,1,,,,,,,,,0,,,85,49
73740,note_on,0,0,1,,,,,,,,,0,,,73,0
73740,note_on,60,0,1,,,,,,,,,0,,,81,0
73800,note_on,60,0,1,,,,,,,,,0,,,85,0
73800,note_on,0,0,1,,,,,,,,,0,,,88,49
73860,note_on,0,0,1,,,,,,,,,0,,,93,49
73860,note_on,60,0,1,,,,,,,,,0,,,88,0
73920,note_on,60,0,1,,,,,,,,,0,,,93,0
73920,note_on,180,0,3,,,,,,,,,2,,,81,36
73920,note_on,0,0,1,,,,,,,,,0,,,97,88
73980,control_change,300,0,2,,,,,,,,,1,64,127,,
73980,note_on,0,0,2,,,,,,,,,1,,,88,75
74040,note_on,0,0,1,,,,,,,,,0,,,100,88
74040,note_on,0,0,3,,,,,,,,,2,,,85,36
74040,note_on,120,0,3,,,,,,,,,2,,,81,0
74040,note_on,60,0,2,,,,,,,,,1,,,88,0
74040,note_on,120,0,1,,,,,,,,,0,,,97,0
74100,control_change,60,0,2,,,,,,,,,1,64,0,,
74100,note_on,0,0,2,,,,,,,,,1,,,88,36
74160,note_on,0,0,3,,,,,,,,,2,,,64,36
74160,control_change,0,0,3,,,,,,,,,2,64,127,,
74160,note_on,120,0,3,,,,,,,,,2,,,85,0
74160,note_on,60,0,2,,,,,,,,,1,,,88,0
74160,note_on,0,0,1,,,,,,,,,0,,,76,49
74160,control_change,0,0,1,,,,,,,,,0,64,127,,
74160,control_change,0,0,1,,,,,,,,,0,64,127,,
74160,note_on,120,0,1,,,,,,,,,0,,,100,0
74220,control_change,60,0,2,,,,,,,,,1,64,127,,
74220,note_on,0,0,2,,,,,,,,,1,,,74,36
74220,control_change,0,0,2,,,,,,,,,1,64,127,,
74280,note_on,60,0,2,,,,,,,,,1,,,74,0
74280,note_on,0,0,2,,,,,,,,,1,,,77,36
74280,note_on,0,0,1,,,,,,,,,0,,,86,49
74280,note_on,120,0,1,,,,,,,,,0,,,76,0
74280,note_on,120,0,3,,,,,,,,,2,,,64,0
74280,note_on,0,0,3,,,,,,,,,2,,,71,36
74340,note_on,60,0,2,,,,,,,,,1,,,77,0
74340,note_on,0,0,2,,,,,,,,,1,,,74,36
74400,note_on,0,0,1,,,,,,,,,0,,,83,49
74400,note_on,120,0,1,,,,,,,,,0,,,86,0
74400,note_on,120,0,3,,,,,,,,,2,,,71,0
74400,note_on,60,0,2,,,,,,,,,1,,,74,0
74400,note_on,0,0,2,,,,,,,,,1,,,76,36
74400,note_on,0,0,3,,,,,,,,,2,,,68,36
74460,note_on,60,0,2,,,,,,,,,1,,,76,0
74460,note_on,0,0,2,,,,,,,,,1,,,74,36
74520,note_on,60,0,2,,,,,,,,,1,,,74,0
74520,note_on,0,0,2,,,,,,,,,1,,,76,36
74520,note_on,0,0,1,,,,,,,,,0,,,80,49
74520,control_change,0,0,1,,,,,,,,,0,64,0,,
74520,control_change,0,0,3,,,,,,,,,2,64,0,,
74520,note_on,0,0,3,,,,,,,,,2,,,64,36
74520,note_on,120,0,1,,,,,,,,,0,,,83,0
74520,note_on,120,0,3,,,,,,,,,2,,,68,0
74580,note_on,60,0,2,,,,,,,,,1,,,76,0
74580,note_on,0,0,2,,,,,,,,,1,,,74,36
74580,control_change,0,0,2,,,,,,,,,1,64,0,,
74640,note_on,120,0,3,,,,,,,,,2,,,64,0
74640,control_change,0,0,3,,,,,,,,,2,64,127,,
74640,note_on,0,0,3,,,,,,,,,2,,,69,36
74640,note_on,0,0,3,,,,,,,,,2,,,73,36
74640,control_change,0,0,1,,,,,,,,,0,64,127,,
74640,note_on,0,0,1,,,,,,,,,0,,,81,49
74640,note_on,120,0,1,,,,,,,,,0,,,80,0
74640,note_on,60,0,2,,,,,,,,,1,,,74,0
74700,note_on,0,0,1,,,,,,,,,0,,,83,49
74700,note_on,60,0,1,,,,,,,,,0,,,81,0
74760,note_on,0,0,1,,,,,,,,,0,,,80,49
74760,note_on,60,0,1,,,,,,,,,0,,,83,0
74760,note_on,120,0,3,,,,,,,,,2,,,73,0
74760,note_on,0,0,3,,,,,,,,,2,,,69,0
74820,note_on,60,0,1,,,,,,,,,0,,,80,0
74820,control_change,0,0,1,,,,,,,,,0,64,0,,
74820,note_on,0,0,1,,,,,,,,,0,,,83,49
74880,note_on,60,0,1,,,,,,,,,0,,,83,0
74880,note_on,0,0,1,,,,,,,,,0,,,81,49
74940,note_on,60,0,1,,,,,,,,,0,,,81,0
74940,note_on,0,0,1,,,,,,,,,0,,,83,49
75000,note_on,0,0,1,,,,,,,,,0,,,80,49
75000,note_on,60,0,1,,,,,,,,,0,,,83,0
75060,note_on,60,0,1,,,,,,,,,0,,,80,0
75060,note_on,0,0,1,,,,,,,,,0,,,83,49
75120,note_on,60,0,1,,,,,,,,,0,,,83,0
75120,note_on,0,0,1,,,,,,,,,0,,,81,62
75180,note_on,60,0,1,,,,,,,,,0,,,81,0
75180,note_on,0,0,1,,,,,,,,,0,,,82,62
75240,note_on,60,0,1,,,,,,,,,0,,,82,0
75240,note_on,0,0,1,,,,,,,,,0,,,79,62
75300,note_on,0,0,1,,,,,,,,,0,,,81,62
75300,note_on,60,0,1,,,,,,,,,0,,,79,0
75360,note_on,0,0,1,,,,,,,,,0,,,77,75
75360,note_on,60,0,1,,,,,,,,,0,,,81,0
75420,note_on,0,0,1,,,,,,,,,0,,,79,75
75420,note_on,60,0,1,,,,,,,,,0,,,77,0
75480,note_on,0,0,1,,,,,,,,,0,,,76,75
75480,note_on,60,0,1,,,,,,,,,0,,,79,0
75540,note_on,0,0,1,,,,,,,,,0,,,77,75
75540,note_on,60,0,1,,,,,,,,,0,,,76,0
75600,key_signature,14400,1,0,,,,,C,,,,,,,,
75600,note_on,60,0,1,,,,,,,,,0,,,77,0
75600,control_change,0,0,1,,,,,,,,,0,64,127,,
75600,note_on,0,0,1,,,,,,,,,0,,,82,101
75600,note_on,840,0,3,,,,,,,,,2,,,38,88
75600,note_on,0,0,3,,,,,,,,,2,,,50,88
75660,note_on,60,0,1,,,,,,,,,0,,,82,0
75660,note_on,0,0,1,,,,,,,,,0,,,81,101
75720,note_on,60,0,1,,,,,,,,,0,,,81,0
75720,note_on,0,0,1,,,,,,,,,0,,,81,101
75780,note_on,60,0,1,,,,,,,,,0,,,81,0
75780,control_change,0,0,1,,,,,,,,,0,64,0,,
75780,note_on,0,0,1,,,,,,,,,0,,,79,101
75840,note_on,240,0,3,,,,,,,,,2,,,50,0
75840,note_on,0,0,3,,,,,,,,,2,,,38,0
75840,note_on,0,0,3,,,,,,,,,2,,,52,88
75840,note_on,0,0,3,,,,,,,,,2,,,40,88
75840,note_on,0,0,1,,,,,,,,,0,,,79,101
75840,control_change,0,0,1,,,,,,,,,0,64,127,,
75840,note_on,60,0,1,,,,,,,,,0,,,79,0
75900,note_on,60,0,1,,,,,,,,,0,,,79,0
75900,note_on,0,0,1,,,,,,,,,0,,,77,101
75960,note_on,60,0,1,,,,,,,,,0,,,77,0
75960,note_on,0,0,1,,,,,,,,,0,,,77,101
76020,note_on,60,0,1,,,,,,,,,0,,,77,0
76020,control_change,0,0,1,,,,,,,,,0,64,0,,
76020,note_on,0,0,1,,,,,,,,,0,,,76,101
76080,control_change,0,0,1,,,,,,,,,0,64,127,,
76080,note_on,0,0,1,,,,,,,,,0,,,76,101
76080,note_on,0,0,3,,,,,,,,,2,,,53,88
76080,note_on,0,0,3,,,,,,,,,2,,,41,88
76080,note_on,60,0,1,,,,,,,,,0,,,76,0
76080,note_on,0,0,3,,,,,,,,,2,,,40,0
76080,note_on,240,0,3,,,,,,,,,2,,,52,0
76140,note_on,60,0,1,,,,,,,,,0,,,76,0
76140,note_on,0,0,1,,,,,,,,,0,,,74,101
76200,note_on,60,0,1,,,,,,,,,0,,,74,0
76200,note_on,0,0,1,,,,,,,,,0,,,69,101
76260,note_on,60,0,1,,,,,,,,,0,,,69,0
76260,note_on,0,0,1,,,,,,,,,0,,,74,101
76320,control_change,0,0,1,,,,,,,,,0,64,0,,
76320,note_on,240,0,3,,,,,,,,,2,,,53,0
76320,note_on,0,0,3,,,,,,,,,2,,,43,88
76320,note_on,0,0,1,,,,,,,,,0,,,77,101
76320,note_on,0,0,3,,,,,,,,,2,,,41,0
76320,note_on,60,0,1,,,,,,,,,0,,,74,0
76320,note_on,0,0,3,,,,,,,,,2,,,55,88
76332,note_on,0,0,3,,,,,,,,,2,,,43,0
76332,note_on,12,0,3,,,,,,,,,2,,,55,0
76380,note_on,0,0,1,,,,,,,,,0,,,76,101
76380,note_on,60,0,1,,,,,,,,,0,,,77,0
76440,note_on,0,0,1,,,,,,,,,0,,,69,101
76440,note_on,108,0,3,,,,,,,,,2,,,40,88
76440,note_on,60,0,1,,,,,,,,,0,,,76,0
76440,note_on,0,0,3,,,,,,,,,2,,,52,88
76452,note_on,12,0,3,,,,,,,,,2,,,52,0
76452,note_on,0,0,3,,,,,,,,,2,,,40,0
76500,note_on,0,0,1,,,,,,,,,0,,,73,101
76500,note_on,60,0,1,,,,,,,,,0,,,69,0
76560,note_on,0,0,1,,,,,,,,,0,,,76,101
76560,note_on,60,0,1,,,,,,,,,0,,,73,0
76560,note_on,0,0,3,,,,,,,,,2,,,53,88
76560,note_on,108,0,3,,,,,,,,,2,,,41,88
76620,note_on,60,0,1,,,,,,,,,0,,,76,0
76620,note_on,0,0,1,,,,,,,,,0,,,74,101
76680,note_on,0,0,1,,,,,,,,,0,,,69,101
76680,note_on,60,0,1,,,,,,,,,0,,,74,0
76740,note_on,0,0,1,,,,,,,,,0,,,74,101
76740,note_on,60,0,1,,,,,,,,,0,,,69,0
76800,note_on,0,0,3,,,,,,,,,2,,,55,88
76800,note_on,0,0,3,,,,,,,,,2,,,43,88
76800,note_on,240,0,3,,,,,,,,,2,,,53,0
76800,note_on,0,0,3,,,,,,,,,2,,,41,0
76800,note_on,0,0,1,,,,,,,,,0,,,77,101
76800,note_on,60,0,1,,,,,,,,,0,,,74,0
76812,note_on,12,0,3,,,,,,,,,2,,,55,0
76812,note_on,0,0,3,,,,,,,,,2,,,43,0
76860,note_on,0,0,1,,,,,,,,,0,,,76,101
76860,note_on,60,0,1,,,,,,,,,0,,,77,0
76920,note_on,60,0,1,,,,,,,,,0,,,76,0
76920,note_on,108,0,3,,,,,,,,,2,,,40,88
76920,note_on,0,0,1,,,,,,,,,0,,,69,101
76920,note_on,0,0,3,,,,,,,,,2,,,52,88
76932,note_on,12,0,3,,,,,,,,,2,,,52,0
76932,note_on,0,0,3,,,,,,,,,2,,,40,0
76980,note_on,60,0,1,,,,,,,,,0,,,69,0
76980,note_on,0,0,1,,,,,,,,,0,,,73,101
77040,note_on,0,0,3,,,,,,,,,2,,,53,88
77040,note_on,108,0,3,,,,,,,,,2,,,41,88
77040,note_on,60,0,1,,,,,,,,,0,,,73,0
77040,note_on,0,0,1,,,,,,,,,0,,,74,101
77052,note_on,0,0,3,,,,,,,,,2,,,41,0
77052,note_on,12,0,3,,,,,,,,,2,,,53,0
77100,note_on,0,0,1,,,,,,,,,0,,,69,101
77100,note_on,60,0,1,,,,,,,,,0,,,74,0
77160,note_on,0,0,3,,,,,,,,,2,,,49,88
77160,note_on,108,0,3,,,,,,,,,2,,,37,88
77160,note_on,0,0,1,,,,,,,,,0,,,76,101
77160,note_on,60,0,1,,,,,,,,,0,,,69,0
77172,note_on,12,0,3,,,,,,,,,2,,,49,0
77172,note_on,0,0,3,,,,,,,,,2,,,37,0
77220,note_on,60,0,1,,,,,,,,,0,,,76,0
77220,note_on,0,0,1,,,,,,,,,0,,,69,101
77280,note_on,0,0,1,,,,,,,,,0,,,77,101
77280,note_on,0,0,3,,,,,,,,,2,,,50,88
77280,note_on,108,0,3,,,,,,,,,2,,,38,88
77280,note_on,60,0,1,,,,,,,,,0,,,69,0
77292,note_on,12,0,3,,,,,,,,,2,,,50,0
77292,note_on,0,0,3,,,,,,,,,2,,,38,0
77340,note_on,0,0,1,,,,,,,,,0,,,69,101
77340,note_on,60,0,1,,,,,,,,,0,,,77,0
77400,note_on,60,0,1,,,,,,,,,0,,,69,0
77400,note_on,108,0,3,,,,,,,,,2,,,35,88
77400,note_on,0,0,3,,,,,,,,,2,,,47,88
77400,note_on,0,0,1,,,,,,,,,0,,,80,101
77412,note_on,12,0,3,,,,,,,,,2,,,47,0
77412,note_on,0,0,3,,,,,,,,,2,,,35,0
77460,note_on,0,0,1,,,,,,,,,0,,,74,101
77460,note_on,60,0,1,,,,,,,,,0,,,80,0
77520,note_on,0,0,1,,,,,,,,,0,,,81,101
77520,note_on,0,0,1,,,,,,,,,0,,,69,101
77520,note_on,60,0,1,,,,,,,,,0,,,74,0
77520,note_on,0,0,3,,,,,,,,,2,,,53,101
77520,control_change,108,0,3,,,,,,,,,2,64,127,,
77580,note_on,0,0,3,,,,,,,,,2,,,52,101
77580,note_on,60,0,3,,,,,,,,,2,,,53,0
77640,note_on,0,0,3,,,,,,,,,2,,,52,101
77640,note_on,60,0,3,,,,,,,,,2,,,52,0
77700,control_change,0,0,3,,,,,,,,,2,64,0,,
77700,note_on,60,0,3,,,,,,,,,2,,,52,0
77700,note_on,0,0,3,,,,,,,,,2,,,50,101
77760,note_on,0,0,1,,,,,,,,,0,,,83,101
77760,note_on,240,0,1,,,,,,,,,0,,,81,0
77760,note_on,0,0,1,,,,,,,,,0,,,69,0
77760,note_on,0,0,3,,,,,,,,,2,,,50,101
77760,control_change,0,0,3,,,,,,,,,2,64,127,,
77760,note_on,60,0,3,,,,,,,,,2,,,50,0
77760,note_on,0,0,1,,,,,,,,,0,,,71,101
77820,note_on,0,0,3,,,,,,,,,2,,,48,101
77820,note_on,60,0,3,,,,,,,,,2,,,50,0
77880,note_on,0,0,3,,,,,,,,,2,,,48,101
77880,note_on,60,0,3,,,,,,,,,2,,,48,0
77940,note_on,60,0,3,,,,,,,,,2,,,48,0
77940,note_on,0,0,3,,,,,,,,,2,,,47,101
77940,control_change,0,0,3,,,,,,,,,2,64,0,,
78000,note_on,0,0,3,,,,,,,,,2,,,47,101
78000,control_change,0,0,3,,,,,,,,,2,64,127,,
78000,note_on,60,0,3,,,,,,,,,2,,,47,0
78000,note_on,240,0,1,,,,,,,,,0,,,83,0
78000,note_on,0,0,1,,,,,,,,,0,,,71,0
78000,note_on,0,0,1,,,,,,,,,0,,,72,101
78000,note_on,0,0,1,,,,,,,,,0,,,84,101
78060,note_on,60,0,3,,,,,,,,,2,,,47,0
78060,note_on,0,0,3,,,,,,,,,2,,,45,101
78120,note_on,60,0,3,,,,,,,,,2,,,45,0
78120,note_on,0,0,3,,,,,,,,,2,,,40,101
78180,note_on,0,0,3,,,,,,,,,2,,,45,101
78180,note_on,60,0,3,,,,,,,,,2,,,40,0
78240,note_on,0,0,1,,,,,,,,,0,,,72,0
78240,control_change,0,0,3,,,,,,,,,2,64,0,,
78240,note_on,60,0,3,,,,,,,,,2,,,45,0
78240,note_on,240,0,1,,,,,,,,,0,,,84,0
78240,note_on,0,0,3,,,,,,,,,2,,,48,101
78240,note_on,0,0,1,,,,,,,,,0,,,74,101
78240,note_on,0,0,1,,,,,,,,,0,,,86,101
78252,note_on,12,0,1,,,,,,,,,0,,,86,0
78252,note_on,0,0,1,,,,,,,,,0,,,74,0
78300,note_on,0,0,3,,,,,,,,,2,,,47,101
78300,note_on,60,0,3,,,,,,,,,2,,,48,0
78360,note_on,0,0,3,,,,,,,,,2,,,40,101
78360,note_on,0,0,1,,,,,,,,,0,,,83,101
78360,note_on,60,0,3,,,,,,,,,2,,,47,0
78360,note_on,108,0,1,,,,,,,,,0,,,71,101
78372,note_on,0,0,1,,,,,,,,,0,,,71,0
78372,note_on,12,0,1,,,,,,,,,0,,,83,0
78420,note_on,60,0,3,,,,,,,,,2,,,40,0
78420,note_on,0,0,3,,,,,,,,,2,,,44,101
78480,note_on,0,0,1,,,,,,,,,0,,,84,101
78480,note_on,0,0,3,,,,,,,,,2,,,47,101
78480,control_change,0,0,3,,,,,,,,,2,64,127,,
78480,note_on,60,0,3,,,,,,,,,2,,,44,0
78480,note_on,108,0,1,,,,,,,,,0,,,72,101
78540,note_on,0,0,3,,,,,,,,,2,,,45,101
78540,note_on,60,0,3,,,,,,,,,2,,,47,0
78600,note_on,0,0,3,,,,,,,,,2,,,40,101
78600,note_on,60,0,3,,,,,,,,,2,,,45,0
78660,note_on,0,0,3,,,,,,,,,2,,,45,101
78660,note_on,60,0,3,,,,,,,,,2,,,40,0
78720,note_on,0,0,1,,,,,,,,,0,,,72,0
78720,note_on,0,0,3,,,,,,,,,2,,,48,101
78720,note_on,60,0,3,,,,,,,,,2,,,45,0
78720,control_change,0,0,3,,,,,,,,,2,64,0,,
78720,note_on,0,0,1,,,,,,,,,0,,,86,101
78720,note_on,240,0,1,,,,,,,,,0,,,84,0
78720,note_on,0,0,1,,,,,,,,,0,,,74,101
78732,note_on,12,0,1,,,,,,,,,0,,,86,0
78732,note_on,0,0,1,,,,,,,,,0,,,74,0
78780,note_on,60,0,3,,,,,,,,,2,,,48,0
78780,note_on,0,0,3,,,,,,,,,2,,,47,101
78840,note_on,60,0,3,,,,,,,,,2,,,47,0
78840,note_on,0,0,3,,,,,,,,,2,,,40,101
78840,note_on,108,0,1,,,,,,,,,0,,,71,101
78840,note_on,0,0,1,,,,,,,,,0,,,83,101
78852,note_on,0,0,1,,,,,,,,,0,,,71,0
78852,note_on,12,0,1,,,,,,,,,0,,,83,0
78900,note_on,0,0,3,,,,,,,,,2,,,44,101
78900,note_on,60,0,3,,,,,,,,,2,,,40,0
78960,note_on,60,0,3,,,,,,,,,2,,,44,0
78960,note_on,0,0,1,,,,,,,,,0,,,84,101
78960,note_on,108,0,1,,,,,,,,,0,,,72,101
78960,note_on,0,0,3,,,,,,,,,2,,,45,101
78972,note_on,0,0,1,,,,,,,,,0,,,72,0
78972,note_on,12,0,1,,,,,,,,,0,,,84,0
79020,note_on,60,0,3,,,,,,,,,2,,,45,0
79020,note_on,0,0,3,,,,,,,,,2,,,48,101
79080,note_on,0,0,3,,,,,,,,,2,,,47,101
79080,note_on,60,0,3,,,,,,,,,2,,,48,0
79080,note_on,108,0,1,,,,,,,,,0,,,68,101
79080,note_on,0,0,1,,,,,,,,,0,,,80,101
79092,note_on,12,0,1,,,,,,,,,0,,,80,0
79092,note_on,0,0,1,,,,,,,,,0,,,68,0
79140,note_on,60,0,3,,,,,,,,,2,,,47,0
79140,note_on,0,0,3,,,,,,,,,2,,,50,101
79200,note_on,0,0,1,,,,,,,,,0,,,81,101
79200,note_on,60,0,3,,,,,,,,,2,,,50,0
79200,note_on,0,0,3,,,,,,,,,2,,,48,101
79200,note_on,108,0,1,,,,,,,,,0,,,69,101
79212,note_on,0,0,1,,,,,,,,,0,,,69,0
79212,note_on,12,0,1,,,,,,,,,0,,,81,0
79260,note_on,0,0,3,,,,,,,,,2,,,52,101
79260,note_on,60,0,3,,,,,,,,,2,,,48,0
79320,note_on,0,0,3,,,,,,,,,2,,,53,101
79320,note_on,60,0,3,,,,,,,,,2,,,52,0
79320,note_on,0,0,1,,,,,,,,,0,,,77,101
79320,note_on,108,0,1,,,,,,,,,0,,,65,101
79332,note_on,0,0,1,,,,,,,,,0,,,65,0
79332,note_on,12,0,1,,,,,,,,,0,,,77,0
79380,note_on,0,0,3,,,,,,,,,2,,,57,101
79380,note_on,60,0,3,,,,,,,,,2,,,53,0
79440,note_on,0,0,3,,,,,,,,,2,,,52,88
79440,note_on,0,0,3,,,,,,,,,2,,,40,88
79440,control_change,108,0,1,,,,,,,,,0,64,127,,
79440,note_on,0,0,1,,,,,,,,,0,,,76,101
79440,note_on,60,0,3,,,,,,,,,2,,,57,0
79500,note_on,60,0,1,,,,,,,,,0,,,76,0
79500,note_on,0,0,1,,,,,,,,,0,,,89,101
79560,note_on,60,0,1,,,,,,,,,0,,,89,0
79560,note_on,0,0,1,,,,,,,,,0,,,89,101
79620,note_on,60,0,1,,,,,,,,,0,,,89,0
79620,note_on,0,0,1,,,,,,,,,0,,,88,101
79620,control_change,0,0,1,,,,,,,,,0,64,0,,
79680,note_on,0,0,3,,,,,,,,,2,,,54,88
79680,note_on,0,0,3,,,,,,,,,2,,,42,88
79680,note_on,240,0,3,,,,,,,,,2,,,52,0
79680,note_on,0,0,3,,,,,,,,,2,,,40,0
79680,note_on,60,0,1,,,,,,,,,0,,,88,0
79680,control_change,0,0,1,,,,,,,,,0,64,127,,
79680,note_on,0,0,1,,,,,,,,,0,,,88,101
79740,note_on,0,0,1,,,,,,,,,0,,,86,101
79740,note_on,60,0,1,,,,,,,,,0,,,88,0
79800,note_on,60,0,1,,,,,,,,,0,,,86,0
79800,note_on,0,0,1,,,,,,,,,0,,,86,101
79860,note_on,60,0,1,,,,,,,,,0,,,86,0
79860,control_change,0,0,1,,,,,,,,,0,64,0,,
79860,note_on,0,0,1,,,,,,,,,0,,,84,101
79920,note_on,0,0,3,,,,,,,,,2,,,56,88
79920,note_on,0,0,3,,,,,,,,,2,,,44,88
79920,note_on,0,0,3,,,,,,,,,2,,,42,0
79920,note_on,240,0,3,,,,,,,,,2,,,54,0
79920,note_on,60,0,1,,,,,,,,,0,,,84,0
79920,control_change,0,0,1,,,,,,,,,0,64,127,,
79920,note_on,0,0,1,,,,,,,,,0,,,84,101
79980,note_on,60,0,1,,,,,,,,,0,,,84,0
79980,note_on,0,0,1,,,,,,,,,0,,,83,101
80040,note_on,60,0,1,,,,,,,,,0,,,83,0
80040,note_on,0,0,1,,,,,,,,,0,,,76,101
80100,note_on,0,0,1,,,,,,,,,0,,,83,101
80100,note_on,60,0,1,,,,,,,,,0,,,76,0
80160,note_on,60,0,1,,,,,,,,,0,,,83,0
80160,note_on,0,0,3,,,,,,,,,2,,,45,88
80160,note_on,0,0,3,,,,,,,,,2,,,44,0
80160,note_on,240,0,3,,,,,,,,,2,,,56,0
80160,note_on,0,0,3,,,,,,,,,2,,,57,88
80160,control_change,0,0,1,,,,,,,,,0,64,0,,
80160,note_on,0,0,1,,,,,,,,,0,,,86,101
80172,note_on,12,0,3,,,,,,,,,2,,,57,0
80172,note_on,0,0,3,,,,,,,,,2,,,45,0
80220,note_on,0,0,1,,,,,,,,,0,,,84,101
80220,note_on,60,0,1,,,,,,,,,0,,,86,0
80280,note_on,0,0,1,,,,,,,,,0,,,81,101
80280,note_on,60,0,1,,,,,,,,,0,,,84,0
80280,note_on,108,0,3,,,,,,,,,2,,,41,88
80280,note_on,0,0,3,,,,,,,,,2,,,53,88
80292,note_on,12,0,3,,,,,,,,,2,,,53,0
80292,note_on,0,0,3,,,,,,,,,2,,,41,0
80340,note_on,0,0,1,,,,,,,,,0,,,93,101
80340,note_on,60,0,1,,,,,,,,,0,,,81,0
80400,note_on,0,0,1,,,,,,,,,0,,,64,101
80400,note_on,60,0,1,,,,,,,,,0,,,93,0
80400,control_change,108,0,3,,,,,,,,,2,64,127,,
80400,note_on,0,0,3,,,,,,,,,2,,,40,101
80400,note_on,0,0,1,,,,,,,,,0,,,76,101
80460,note_on,60,0,3,,,,,,,,,2,,,40,0
80460,note_on,0,0,3,,,,,,,,,2,,,53,101
80520,note_on,60,0,3,,,,,,,,,2,,,53,0
80520,note_on,0,0,3,,,,,,,,,2,,,53,101
80580,note_on,60,0,3,,,,,,,,,2,,,53,0
80580,control_change,0,0,3,,,,,,,,,2,64,0,,
80580,note_on,0,0,3,,,,,,,,,2,,,52,101
80640,note_on,0,0,1,,,,,,,,,0,,,64,0
80640,note_on,60,0,3,,,,,,,,,2,,,52,0
80640,control_change,0,0,3,,,,,,,,,2,64,127,,
80640,note_on,0,0,3,,,,,,,,,2,,,52,101
80640,note_on,240,0,1,,,,,,,,,0,,,76,0
80640,note_on,0,0,1,,,,,,,,,0,,,66,101
80640,note_on,0,0,1,,,,,,,,,0,,,78,101
80700,note_on,60,0,3,,,,,,,,,2,,,52,0
80700,note_on,0,0,3,,,,,,,,,2,,,50,101
80760,note_on,0,0,3,,,,,,,,,2,,,50,101
80760,note_on,60,0,3,,,,,,,,,2,,,50,0
80820,control_change,0,0,3,,,,,,,,,2,64,0,,
80820,note_on,0,0,3,,,,,,,,,2,,,48,101
80820,note_on,60,0,3,,,,,,,,,2,,,50,0
80880,note_on,0,0,3,,,,,,,,,2,,,48,101
80880,note_on,0,0,1,,,,,,,,,0,,,80,101
80880,note_on,0,0,1,,,,,,,,,0,,,68,101
80880,note_on,0,0,1,,,,,,,,,0,,,66,0
80880,note_on,240,0,1,,,,,,,,,0,,,78,0
80880,note_on,60,0,3,,,,,,,,,2,,,48,0
80880,control_change,0,0,3,,,,,,,,,2,64,127,,
80940,note_on,60,0,3,,,,,,,,,2,,,48,0
80940,note_on,0,0,3,,,,,,,,,2,,,47,101
81000,note_on,0,0,3,,,,,,,,,2,,,40,101
81000,note_on,60,0,3,,,,,,,,,2,,,47,0
81060,note_on,60,0,3,,,,,,,,,2,,,40,0
81060,note_on,0,0,3,,,,,,,,,2,,,47,101
81120,note_on,0,0,1,,,,,,,,,0,,,81,101
81120,note_on,60,0,3,,,,,,,,,2,,,47,0
81120,note_on,240,0,1,,,,,,,,,0,,,80,0
81120,note_on,0,0,1,,,,,,,,,0,,,68,0
81120,note_on,0,0,1,,,,,,,,,0,,,69,101
81120,control_change,0,0,3,,,,,,,,,2,64,0,,
81120,note_on,0,0,3,,,,,,,,,2,,,50,101
81132,note_on,0,0,1,,,,,,,,,0,,,69,0
81132,note_on,12,0,1,,,,,,,,,0,,,81,0
81180,note_on,60,0,3,,,,,,,,,2,,,50,0
81180,note_on,0,0,3,,,,,,,,,2,,,48,101
81240,note_on,0,0,3,,,,,,,,,2,,,45,101
81240,note_on,60,0,3,,,,,,,,,2,,,48,0
81240,note_on,0,0,1,,,,,,,,,0,,,77,101
81240,note_on,108,0,1,,,,,,,,,0,,,65,101
81252,note_on,0,0,1,,,,,,,,,0,,,65,0
81252,note_on,12,0,1,,,,,,,,,0,,,77,0
81300,note_on,60,0,3,,,,,,,,,2,,,45,0
81300,note_on,0,0,3,,,,,,,,,2,,,57,101
81360,note_on,0,0,3,,,,,,,,,2,,,56,88
81360,note_on,0,0,3,,,,,,,,,2,,,52,88
81360,control_change,0,0,3,,,,,,,,,2,64,127,,
81360,note_on,60,0,3,,,,,,,,,2,,,57,0
81360,note_on,0,0,1,,,,,,,,,0,,,76,101
81360,control_change,108,0,1,,,,,,,,,0,64,127,,
81360,note_on,0,0,1,,,,,,,,,0,,,64,101
81372,note_on,12,0,1,,,,,,,,,0,,,76,0
81372,note_on,0,0,1,,,,,,,,,0,,,64,0
81480,note_on,0,0,3,,,,,,,,,2,,,56,88
81480,control_change,108,0,1,,,,,,,,,0,64,0,,
81480,note_on,0,0,1,,,,,,,,,0,,,71,101
81480,note_on,120,0,3,,,,,,,,,2,,,56,0
81480,note_on,0,0,1,,,,,,,,,0,,,76,101
81480,note_on,0,0,3,,,,,,,,,2,,,52,0
81540,note_on,60,0,3,,,,,,,,,2,,,56,0
81540,control_change,0,0,3,,,,,,,,,2,64,0,,
81540,note_on,0,0,3,,,,,,,,,2,,,68,88
81600,note_on,0,0,3,,,,,,,,,2,,,57,88
81600,control_change,0,0,3,,,,,,,,,2,64,127,,
81600,note_on,60,0,3,,,,,,,,,2,,,68,0
81600,note_on,0,0,1,,,,,,,,,0,,,75,101
81600,note_on,0,0,1,,,,,,,,,0,,,72,101
81600,note_on,0,0,1,,,,,,,,,0,,,71,0
81600,control_change,0,0,1,,,,,,,,,0,64,127,,
81600,note_on,120,0,1,,,,,,,,,0,,,76,0
81660,note_on,60,0,3,,,,,,,,,2,,,57,0
81660,note_on,0,0,3,,,,,,,,,2,,,69,88
81720,note_on,60,0,3,,,,,,,,,2,,,69,0
81720,note_on,0,0,3,,,,,,,,,2,,,41,88
81720,note_on,0,0,1,,,,,,,,,0,,,87,101
81720,note_on,120,0,1,,,,,,,,,0,,,75,0
81720,note_on,0,0,1,,,,,,,,,0,,,93,101
81720,note_on,0,0,1,,,,,,,,,0,,,72,0
81720,control_change,0,0,1,,,,,,,,,0,64,0,,
81720,note_on,0,0,1,,,,,,,,,0,,,81,101
81732,note_on,0,0,1,,,,,,,,,0,,,87,0
81732,note_on,0,0,1,,,,,,,,,0,,,81,0
81732,note_on,12,0,1,,,,,,,,,0,,,93,0
81780,control_change,0,0,3,,,,,,,,,2,64,0,,
81780,note_on,60,0,3,,,,,,,,,2,,,41,0
81780,note_on,0,0,3,,,,,,,,,2,,,53,88
81840,note_on,0,0,1,,,,,,,,,0,,,92,101
81840,note_on,0,0,1,,,,,,,,,0,,,88,101
81840,control_change,108,0,1,,,,,,,,,0,64,127,,
81840,note_on,0,0,3,,,,,,,,,2,,,40,88
81840,control_change,0,0,3,,,,,,,,,2,64,127,,
81840,note_on,60,0,3,,,,,,,,,2,,,53,0
81840,note_on,0,0,1,,,,,,,,,0,,,80,101
81852,note_on,0,0,1,,,,,,,,,0,,,80,0
81852,note_on,0,0,1,,,,,,,,,0,,,88,0
81852,note_on,12,0,1,,,,,,,,,0,,,92,0
81900,note_on,0,0,3,,,,,,,,,2,,,52,88
81900,note_on,60,0,3,,,,,,,,,2,,,40,0
81960,note_on,0,0,3,,,,,,,,,2,,,56,88
81960,note_on,60,0,3,,,,,,,,,2,,,52,0
81960,note_on,0,0,1,,,,,,,,,0,,,76,101
81960,control_change,108,0,1,,,,,,,,,0,64,0,,
81960,note_on,0,0,1,,,,,,,,,0,,,71,101
82020,control_change,0,0,3,,,,,,,,,2,64,0,,
82020,note_on,0,0,3,,,,,,,,,2,,,68,88
82020,note_on,60,0,3,,,,,,,,,2,,,56,0
82080,control_change,0,0,1,,,,,,,,,0,64,127,,
82080,note_on,0,0,1,,,,,,,,,0,,,75,101
82080,note_on,0,0,1,,,,,,,,,0,,,72,101
82080,note_on,0,0,1,,,,,,,,,0,,,71,0
82080,note_on,0,0,3,,,,,,,,,2,,,57,88
82080,control_change,0,0,3,,,,,,,,,2,64,127,,
82080,note_on,60,0,3,,,,,,,,,2,,,68,0
82080,note_on,120,0,1,,,,,,,,,0,,,76,0
82140,note_on,0,0,3,,,,,,,,,2,,,69,88
82140,note_on,60,0,3,,,,,,,,,2,,,57,0
82200,note_on,120,0,1,,,,,,,,,0,,,75,0
82200,note_on,0,0,3,,,,,,,,,2,,,41,88
82200,note_on,60,0,3,,,,,,,,,2,,,69,0
82200,control_change,0,0,1,,,,,,,,,0,64,0,,
82200,note_on,0,0,1,,,,,,,,,0,,,72,0
82200,note_on,0,0,1,,,,,,,,,0,,,81,101
82200,note_on,0,0,1,,,,,,,,,0,,,87,101
82200,note_on,0,0,1,,,,,,,,,0,,,93,101
82212,note_on,0,0,1,,,,,,,,,0,,,81,0
82212,note_on,0,0,1,,,,,,,,,0,,,87,0
82212,note_on,12,0,1,,,,,,,,,0,,,93,0
82260,note_on,60,0,3,,,,,,,,,2,,,41,0
82260,control_change,0,0,3,,,,,,,,,2,64,0,,
82260,note_on,0,0,3,,,,,,,,,2,,,53,88
82320,note_on,0,0,1,,,,,,,,,0,,,92,101
82320,note_on,0,0,1,,,,,,,,,0,,,80,101
82320,control_change,108,0,1,,,,,,,,,0,64,127,,
82320,note_on,0,0,1,,,,,,,,,0,,,88,101
82320,note_on,0,0,3,,,,,,,,,2,,,52,88
82320,note_on,0,0,3,,,,,,,,,2,,,40,88
82320,control_change,0,0,3,,,,,,,,,2,64,127,,
82320,note_on,60,0,3,,,,,,,,,2,,,53,0
82326,note_on,6,0,1,,,,,,,,,0,,,92,0
82326,note_on,0,0,1,,,,,,,,,0,,,88,0
82326,note_on,0,0,1,,,,,,,,,0,,,80,0
82380,note_on,54,0,1,,,,,,,,,0,,,76,101
82440,note_on,60,0,1,,,,,,,,,0,,,76,0
82440,note_on,0,0,3,,,,,,,,,2,,,40,0
82440,note_on,120,0,3,,,,,,,,,2,,,52,0
82440,note_on,0,0,1,,,,,,,,,0,,,88,101
82500,note_on,60,0,1,,,,,,,,,0,,,88,0
82500,note_on,0,0,1,,,,,,,,,0,,,89,101
82560,note_on,60,0,1,,,,,,,,,0,,,89,0
82560,note_on,0,0,1,,,,,,,,,0,,,88,49
82620,note_on,60,0,1,,,,,,,,,0,,,88,0
82620,note_on,0,0,1,,,,,,,,,0,,,76,49
82680,note_on,60,0,1,,,,,,,,,0,,,76,0
82680,note_on,0,0,1,,,,,,,,,0,,,88,49
82740,note_on,60,0,1,,,,,,,,,0,,,88,0
82740,note_on,0,0,1,,,,,,,,,0,,,89,49
82800,note_on,0,0,1,,,,,,,,,0,,,88,49
82800,note_on,360,0,3,,,,,,,,,2,,,57,36
82800,note_on,0,0,3,,,,,,,,,2,,,60,36
82800,note_on,60,0,1,,,,,,,,,0,,,89,0
82860,note_on,60,0,1,,,,,,,,,0,,,88,0
82860,note_on,0,0,1,,,,,,,,,0,,,89,49
82920,note_on,0,0,1,,,,,,,,,0,,,86,49
82920,note_on,60,0,1,,,,,,,,,0,,,89,0
82980,note_on,60,0,1,,,,,,,,,0,,,86,0
82980,note_on,0,0,1,,,,,,,,,0,,,88,49
83040,note_on,0,0,1,,,,,,,,,0,,,84,49
83040,note_on,0,0,3,,,,,,,,,2,,,62,36
83040,note_on,0,0,3,,,,,,,,,2,,,59,36
83040,control_change,0,0,3,,,,,,,,,2,64,0,,
83040,note_on,0,0,3,,,,,,,,,2,,,57,0
83040,note_on,60,0,1,,,,,,,,,0,,,88,0
83040,note_on,240,0,3,,,,,,,,,2,,,60,0
83100,note_on,0,0,1,,,,,,,,,0,,,86,49
83100,note_on,60,0,1,,,,,,,,,0,,,84,0
83160,note_on,0,0,1,,,,,,,,,0,,,83,49
83160,note_on,60,0,1,,,,,,,,,0,,,86,0
83220,note_on,60,0,1,,,,,,,,,0,,,83,0
83220,control_change,0,0,1,,,,,,,,,0,64,0,,
83220,note_on,0,0,1,,,,,,,,,0,,,84,49
83280,note_on,0,0,3,,,,,,,,,2,,,60,36
83280,note_on,240,0,3,,,,,,,,,2,,,62,0
83280,note_on,0,0,3,,,,,,,,,2,,,59,0
83280,note_on,0,0,3,,,,,,,,,2,,,64,36
83280,note_on,60,0,1,,,,,,,,,0,,,84,0
83280,control_change,0,0,1,,,,,,,,,0,64,127,,
83280,note_on,0,0,1,,,,,,,,,0,,,83,49
83340,note_on,0,0,1,,,,,,,,,0,,,81,49
83340,note_on,60,0,1,,,,,,,,,0,,,83,0
83400,note_on,0,0,1,,,,,,,,,0,,,76,49
83400,note_on,60,0,1,,,,,,,,,0,,,81,0
83460,note_on,60,0,1,,,,,,,,,0,,,76,0
83460,note_on,0,0,1,,,,,,,,,0,,,81,49
83460,control_change,0,0,1,,,,,,,,,0,64,0,,
83520,note_on,12240,0,4,,,,,,,,,3,,,62,36
83520,note_on,60,0,1,,,,,,,,,0,,,81,0
83520,note_on,0,0,1,,,,,,,,,0,,,84,49
83520,note_on,240,0,3,,,,,,,,,2,,,60,0
83532,note_on,12,0,4,,,,,,,,,3,,,62,0
83580,note_on,60,0,1,,,,,,,,,0,,,84,0
83580,note_on,0,0,1,,,,,,,,,0,,,83,49
83640,note_on,60,0,1,,,,,,,,,0,,,83,0
83640,note_on,0,0,1,,,,,,,,,0,,,76,49
83640,note_on,108,0,4,,,,,,,,,3,,,59,36
83652,note_on,12,0,4,,,,,,,,,3,,,59,0
83700,note_on,60,0,1,,,,,,,,,0,,,76,0
83700,note_on,0,0,1,,,,,,,,,0,,,80,49
83760,note_on,0,0,3,,,,,,,,,2,,,64,36
83760,note_on,240,0,3,,,,,,,,,2,,,64,0
83760,control_change,0,0,1,,,,,,,,,0,64,127,,
83760,note_on,60,0,1,,,,,,,,,0,,,80,0
83760,note_on,0,0,3,,,,,,,,,2,,,60,36
83760,note_on,0,0,1,,,,,,,,,0,,,83,49
83820,note_on,60,0,1,,,,,,,,,0,,,83,0
83820,note_on,0,0,1,,,,,,,,,0,,,81,49
83880,note_on,60,0,1,,,,,,,,,0,,,81,0
83880,note_on,0,0,1,,,,,,,,,0,,,76,49
83940,control_change,0,0,1,,,,,,,,,0,64,0,,
83940,note_on,0,0,1,,,,,,,,,0,,,81,49
83940,note_on,60,0,1,,,,,,,,,0,,,76,0
84000,note_on,348,0,4,,,,,,,,,3,,,62,36
84000,note_on,240,0,3,,,,,,,,,2,,,60,0
84000,note_on,0,0,1,,,,,,,,,0,,,84,49
84000,note_on,60,0,1,,,,,,,,,0,,,81,0
84012,note_on,12,0,4,,,,,,,,,3,,,62,0
84060,note_on,60,0,1,,,,,,,,,0,,,84,0
84060,note_on,0,0,1,,,,,,,,,0,,,83,49
84120,note_on,0,0,1,,,,,,,,,0,,,76,49
84120,note_on,60,0,1,,,,,,,,,0,,,83,0
84120,note_on,108,0,4,,,,,,,,,3,,,59,36
84132,note_on,12,0,4,,,,,,,,,3,,,59,0
84180,note_on,0,0,1,,,,,,,,,0,,,83,49
84180,note_on,60,0,1,,,,,,,,,0,,,76,0
84240,note_on,0,0,1,,,,,,,,,0,,,80,49
84240,control_change,0,0,1,,,,,,,,,0,64,127,,
84240,note_on,60,0,1,,,,,,,,,0,,,83,0
84240,note_on,0,0,3,,,,,,,,,2,,,64,36
84240,note_on,240,0,3,,,,,,,,,2,,,64,0
84240,note_on,0,0,3,,,,,,,,,2,,,61,36
84300,note_on,60,0,1,,,,,,,,,0,,,80,0
84300,note_on,0,0,1,,,,,,,,,0,,,81,49
84360,note_on,0,0,1,,,,,,,,,0,,,76,49
84360,note_on,60,0,1,,,,,,,,,0,,,81,0
84420,note_on,0,0,1,,,,,,,,,0,,,81,49
84420,note_on,60,0,1,,,,,,,,,0,,,76,0
84480,note_on,240,0,3,,,,,,,,,2,,,61,0
84480,note_on,0,0,1,,,,,,,,,0,,,85,49
84480,control_change,0,0,1,,,,,,,,,0,64,0,,
84480,note_on,60,0,1,,,,,,,,,0,,,81,0
84480,note_on,348,0,4,,,,,,,,,3,,,62,36
84492,note_on,12,0,4,,,,,,,,,3,,,62,0
84540,note_on,60,0,1,,,,,,,,,0,,,85,0
84540,note_on,0,0,1,,,,,,,,,0,,,83,49
84600,note_on,108,0,4,,,,,,,,,3,,,59,36
84600,note_on,0,0,1,,,,,,,,,0,,,76,49
84600,note_on,60,0,1,,,,,,,,,0,,,83,0
84612,note_on,12,0,4,,,,,,,,,3,,,59,0
84660,note_on,0,0,1,,,,,,,,,0,,,83,49
84660,note_on,60,0,1,,,,,,,,,0,,,76,0
84720,note_on,0,0,3,,,,,,,,,2,,,64,36
84720,note_on,60,0,1,,,,,,,,,0,,,83,0
84720,control_change,0,0,1,,,,,,,,,0,64,127,,
84720,note_on,0,0,1,,,,,,,,,0,,,80,49
84720,note_on,240,0,3,,,,,,,,,2,,,64,0
84720,note_on,0,0,3,,,,,,,,,2,,,61,36
84780,note_on,60,0,1,,,,,,,,,0,,,80,0
84780,note_on,0,0,1,,,,,,,,,0,,,81,49
84840,note_on,60,0,1,,,,,,,,,0,,,81,0
84840,note_on,0,0,1,,,,,,,,,0,,,76,49
84900,note_on,60,0,1,,,,,,,,,0,,,76,0
84900,note_on,0,0,1,,,,,,,,,0,,,81,49
84960,note_on,348,0,4,,,,,,,,,3,,,62,36
84960,note_on,0,0,1,,,,,,,,,0,,,85,49
84960,control_change,0,0,1,,,,,,,,,0,64,0,,
84960,note_on,240,0,3,,,,,,,,,2,,,61,0
84960,note_on,60,0,1,,,,,,,,,0,,,81,0
84972,note_on,12,0,4,,,,,,,,,3,,,62,0
85020,note_on,60,0,1,,,,,,,,,0,,,85,0
85020,note_on,0,0,1,,,,,,,,,0,,,83,49
85080,note_on,108,0,4,,,,,,,,,3,,,59,36
85080,note_on,60,0,1,,,,,,,,,0,,,83,0
85080,note_on,0,0,1,,,,,,,,,0,,,76,49
85092,note_on,12,0,4,,,,,,,,,3,,,59,0
85140,note_on,60,0,1,,,,,,,,,0,,,76,0
85140,note_on,0,0,1,,,,,,,,,0,,,80,49
85200,note_on,60,0,1,,,,,,,,,0,,,80,0
85200,note_on,240,0,3,,,,,,,,,2,,,64,0
85200,control_change,0,0,3,,,,,,,,,2,64,127,,
85200,note_on,0,0,3,,,,,,,,,2,,,60,36
85200,note_on,0,0,3,,,,,,,,,2,,,64,36
85200,note_on,0,0,1,,,,,,,,,0,,,81,49
85200,control_change,0,0,1,,,,,,,,,0,64,127,,
85212,note_on,0,0,3,,,,,,,,,2,,,60,0
85212,note_on,12,0,3,,,,,,,,,2,,,64,0
85260,note_on,0,0,1,,,,,,,,,0,,,76,49
85260,note_on,60,0,1,,,,,,,,,0,,,81,0
85320,note_on,0,0,3,,,,,,,,,2,,,64,36
85320,note_on,108,0,3,,,,,,,,,2,,,62,36
85320,note_on,0,0,1,,,,,,,,,0,,,80,49
85320,note_on,60,0,1,,,,,,,,,0,,,76,0
85332,note_on,0,0,3,,,,,,,,,2,,,62,0
85332,note_on,12,0,3,,,,,,,,,2,,,64,0
85380,note_on,60,0,1,,,,,,,,,0,,,80,0
85380,note_on,0,0,1,,,,,,,,,0,,,83,49
85440,note_on,60,0,1,,,,,,,,,0,,,83,0
85440,note_on,0,0,1,,,,,,,,,0,,,81,49
85440,note_on,108,0,3,,,,,,,,,2,,,60,36
85440,note_on,0,0,3,,,,,,,,,2,,,64,36
85452,note_on,0,0,3,,,,,,,,,2,,,60,0
85452,note_on,12,0,3,,,,,,,,,2,,,64,0
85500,note_on,60,0,1,,,,,,,,,0,,,81,0
85500,note_on,0,0,1,,,,,,,,,0,,,76,49
85560,note_on,0,0,1,,,,,,,,,0,,,80,49
85560,note_on,60,0,1,,,,,,,,,0,,,76,0
85560,note_on,108,0,3,,,,,,,,,2,,,62,36
85560,note_on,0,0,3,,,,,,,,,2,,,64,36
85572,note_on,12,0,3,,,,,,,,,2,,,64,0
85572,note_on,0,0,3,,,,,,,,,2,,,62,0
85620,note_on,0,0,1,,,,,,,,,0,,,88,49
85620,note_on,60,0,1,,,,,,,,,0,,,80,0
85680,note_on,0,0,1,,,,,,,,,0,,,81,49
85680,note_on,60,0,1,,,,,,,,,0,,,88,0
85680,note_on,0,0,3,,,,,,,,,2,,,64,36
85680,note_on,108,0,3,,,,,,,,,2,,,60,36
85692,note_on,0,0,3,,,,,,,,,2,,,60,0
85692,note_on,12,0,3,,,,,,,,,2,,,64,0
85740,note_on,0,0,1,,,,,,,,,0,,,76,49
85740,note_on,60,0,1,,,,,,,,,0,,,81,0
85800,note_on,0,0,3,,,,,,,,,2,,,62,36
85800,note_on,108,0,3,,,,,,,,,2,,,52,36
85800,note_on,0,0,1,,,,,,,,,0,,,80,49
85800,note_on,60,0,1,,,,,,,,,0,,,76,0
85812,note_on,0,0,3,,,,,,,,,2,,,52,0
85812,note_on,12,0,3,,,,,,,,,2,,,62,0
85860,note_on,0,0,1,,,,,,,,,0,,,83,49
85860,note_on,60,0,1,,,,,,,,,0,,,80,0
85920,note_on,0,0,3,,,,,,,,,2,,,60,36
85920,note_on,0,0,1,,,,,,,,,0,,,81,49
85920,control_change,0,0,1,,,,,,,,,0,64,0,,
85920,note_on,0,0,3,,,,,,,,,2,,,57,36
85920,control_change,108,0,3,,,,,,,,,2,64,0,,
85920,note_on,60,0,1,,,,,,,,,0,,,83,0
85926,note_on,6,0,3,,,,,,,,,2,,,60,0
85926,note_on,0,0,3,,,,,,,,,2,,,57,0
85980,note_on,60,0,1,,,,,,,,,0,,,81,0
86130,note_on,150,0,1,,,,,,,,,0,,,60,49
86130,note_on,204,0,3,,,,,,,,,2,,,48,36
86145,note_on,15,0,3,,,,,,,,,2,,,48,0
86145,note_on,0,0,1,,,,,,,,,0,,,62,49
86145,note_on,0,0,3,,,,,,,,,2,,,50,36
86145,note_on,15,0,1,,,,,,,,,0,,,60,0
86160,note_on,15,0,1,,,,,,,,,0,,,62,0
86160,note_on,0,0,3,,,,,,,,,2,,,48,75
86160,note_on,15,0,3,,,,,,,,,2,,,50,0
86160,note_on,0,0,1,,,,,,,,,0,,,60,88
86280,note_on,120,0,1,,,,,,,,,0,,,60,0
86280,note_on,0,0,1,,,,,,,,,0,,,59,88
86280,note_on,0,0,3,,,,,,,,,2,,,47,75
86280,note_on,120,0,3,,,,,,,,,2,,,48,0
86340,note_on,0,0,1,,,,,,,,,0,,,57,88
86340,note_on,60,0,1,,,,,,,,,0,,,59,0
86340,note_on,60,0,3,,,,,,,,,2,,,47,0
86340,note_on,0,0,3,,,,,,,,,2,,,45,75
86400,note_on,0,0,1,,,,,,,,,0,,,55,88
86400,note_on,60,0,3,,,,,,,,,2,,,45,0
86400,note_on,0,0,3,,,,,,,,,2,,,43,75
86400,note_on,60,0,1,,,,,,,,,0,,,57,0
86520,note_on,120,0,1,,,,,,,,,0,,,55,0
86520,note_on,0,0,1,,,,,,,,,0,,,64,88
86520,note_on,0,0,1,,,,,,,,,0,,,76,88
86520,note_on,120,0,3,,,,,,,,,2,,,43,0
86520,note_on,0,0,3,,,,,,,,,2,,,52,75
86520,note_on,0,0,3,,,,,,,,,2,,,40,75
86532,note_on,0,0,3,,,,,,,,,2,,,40,0
86532,note_on,12,0,3,,,,,,,,,2,,,52,0
86532,note_on,12,0,1,,,,,,,,,0,,,76,0
86532,note_on,0,0,1,,,,,,,,,0,,,64,0
86640,note_on,108,0,1,,,,,,,,,0,,,67,88
86640,note_on,0,0,1,,,,,,,,,0,,,79,88
86640,note_on,108,0,3,,,,,,,,,2,,,43,75
86640,note_on,0,0,3,,,,,,,,,2,,,55,75
86880,note_on,0,0,1,,,,,,,,,0,,,64,88
86880,note_on,0,0,1,,,,,,,,,0,,,76,88
86880,note_on,0,0,1,,,,,,,,,0,,,67,0
86880,note_on,240,0,1,,,,,,,,,0,,,79,0
86880,note_on,0,0,3,,,,,,,,,2,,,52,75
86880,note_on,0,0,3,,,,,,,,,2,,,43,0
86880,note_on,240,0,3,,,,,,,,,2,,,55,0
86880,note_on,0,0,3,,,,,,,,,2,,,40,75
87000,note_on,120,0,3,,,,,,,,,2,,,52,0
87000,note_on,120,0,1,,,,,,,,,0,,,76,0
87000,note_on,0,0,1,,,,,,,,,0,,,64,0
87000,note_on,0,0,3,,,,,,,,,2,,,40,0
87120,note_on,120,0,1,,,,,,,,,0,,,81,88
87120,note_on,0,0,3,,,,,,,,,2,,,60,75
87120,note_on,0,0,3,,,,,,,,,2,,,57,75
87120,note_on,120,0,3,,,,,,,,,2,,,48,75
87132,note_on,0,0,3,,,,,,,,,2,,,48,0
87132,note_on,12,0,3,,,,,,,,,2,,,60,0
87132,note_on,0,0,3,,,,,,,,,2,,,57,0
87240,note_on,108,0,3,,,,,,,,,2,,,50,75
87240,note_on,0,0,3,,,,,,,,,2,,,60,75
87240,note_on,0,0,1,,,,,,,,,0,,,81,88
87240,note_on,120,0,1,,,,,,,,,0,,,81,0
87240,note_on,0,0,3,,,,,,,,,2,,,57,75
87252,note_on,0,0,3,,,,,,,,,2,,,57,0
87252,note_on,12,0,3,,,,,,,,,2,,,60,0
87252,note_on,0,0,3,,,,,,,,,2,,,50,0
87300,note_on,60,0,1,,,,,,,,,0,,,81,0
87300,note_on,0,0,1,,,,,,,,,0,,,81,88
87360,note_on,108,0,3,,,,,,,,,2,,,52,75
87360,note_on,0,0,1,,,,,,,,,0,,,81,88
87360,note_on,0,0,3,,,,,,,,,2,,,60,75
87360,note_on,0,0,3,,,,,,,,,2,,,57,75
87360,note_on,60,0,1,,,,,,,,,0,,,81,0
87372,note_on,0,0,3,,,,,,,,,2,,,52,0
87372,note_on,0,0,3,,,,,,,,,2,,,57,0
87372,note_on,12,0,3,,,,,,,,,2,,,60,0
87420,note_on,60,0,1,,,,,,,,,0,,,81,0
87420,note_on,0,0,1,,,,,,,,,0,,,84,88
87480,note_on,0,0,1,,,,,,,,,0,,,83,88
87480,note_on,108,0,3,,,,,,,,,2,,,53,75
87480,note_on,0,0,3,,,,,,,,,2,,,57,75
87480,note_on,0,0,3,,,,,,,,,2,,,60,75
87480,note_on,60,0,1,,,,,,,,,0,,,84,0
87492,note_on,12,0,3,,,,,,,,,2,,,60,0
87492,note_on,0,0,3,,,,,,,,,2,,,57,0
87492,note_on,0,0,3,,,,,,,,,2,,,53,0
87540,note_on,0,0,1,,,,,,,,,0,,,81,88
87540,note_on,60,0,1,,,,,,,,,0,,,83,0
87600,note_on,108,0,3,,,,,,,,,2,,,52,75
87600,note_on,0,0,1,,,,,,,,,0,,,76,88
87600,note_on,60,0,1,,,,,,,,,0,,,81,0
87600,note_on,0,0,3,,,,,,,,,2,,,57,75
87600,note_on,0,0,3,,,,,,,,,2,,,60,75
87612,note_on,0,0,3,,,,,,,,,2,,,57,0
87612,note_on,0,0,3,,,,,,,,,2,,,52,0
87612,note_on,12,0,3,,,,,,,,,2,,,60,0
87720,note_on,0,0,3,,,,,,,,,2,,,63,101
87720,note_on,108,0,3,,,,,,,,,2,,,53,101
87720,note_on,0,0,3,,,,,,,,,2,,,57,101
87720,note_on,120,0,1,,,,,,,,,0,,,76,0
87720,note_on,0,0,1,,,,,,,,,0,,,81,114
87720,note_on,0,0,1,,,,,,,,,0,,,87,114
87720,note_on,0,0,1,,,,,,,,,0,,,93,114
87732,note_on,0,0,3,,,,,,,,,2,,,57,0
87732,note_on,0,0,3,,,,,,,,,2,,,53,0
87732,note_on,12,0,3,,,,,,,,,2,,,63,0
87840,note_on,0,0,1,,,,,,,,,0,,,81,0
87840,note_on,0,0,3,,,,,,,,,2,,,64,101
87840,note_on,0,0,3,,,,,,,,,2,,,56,101
87840,note_on,108,0,3,,,,,,,,,2,,,52,101
87840,note_on,120,0,1,,,,,,,,,0,,,93,0
87840,note_on,0,0,1,,,,,,,,,0,,,87,0
87840,note_on,0,0,1,,,,,,,,,0,,,76,114
87840,note_on,0,0,1,,,,,,,,,0,,,88,114
88050,note_on,210,0,3,,,,,,,,,2,,,53,101
88050,note_on,210,0,1,,,,,,,,,0,,,65,114
88065,note_on,0,0,1,,,,,,,,,0,,,67,114
88065,note_on,15,0,1,,,,,,,,,0,,,65,0
88065,note_on,15,0,3,,,,,,,,,2,,,53,0
88065,note_on,0,0,3,,,,,,,,,2,,,55,101
88080,note_on,0,0,1,,,,,,,,,0,,,76,0
88080,note_on,0,0,1,,,,,,,,,0,,,88,0
88080,note_on,0,0,1,,,,,,,,,0,,,65,114
88080,note_on,15,0,1,,,,,,,,,0,,,67,0
88080,note_on,15,0,3,,,,,,,,,2,,,55,0
88080,note_on,0,0,3,,,,,,,,,2,,,64,0
88080,note_on,0,0,3,,,,,,,,,2,,,56,0
88080,note_on,0,0,3,,,,,,,,,2,,,52,0
88080,note_on,0,0,3,,,,,,,,,2,,,53,101
88200,note_on,0,0,1,,,,,,,,,0,,,64,114
88200,note_on,120,0,3,,,,,,,,,2,,,53,0
88200,note_on,0,0,3,,,,,,,,,2,,,52,101
88200,note_on,120,0,1,,,,,,,,,0,,,65,0
88260,note_on,60,0,3,,,,,,,,,2,,,52,0
88260,note_on,60,0,1,,,,,,,,,0,,,64,0
88260,note_on,0,0,1,,,,,,,,,0,,,62,114
88260,note_on,0,0,3,,,,,,,,,2,,,50,101
88320,note_on,60,0,3,,,,,,,,,2,,,50,0
88320,note_on,0,0,3,,,,,,,,,2,,,48,101
88320,note_on,60,0,1,,,,,,,,,0,,,62,0
88320,note_on,0,0,1,,,,,,,,,0,,,60,114
88440,note_on,0,0,3,,,,,,,,,2,,,45,101
88440,note_on,120,0,3,,,,,,,,,2,,,48,0
88440,note_on,120,0,1,,,,,,,,,0,,,60,0
88440,note_on,0,0,3,,,,,,,,,2,,,57,101
88440,note_on,0,0,1,,,,,,,,,0,,,81,114
88440,note_on,0,0,1,,,,,,,,,0,,,69,114
88452,note_on,0,0,1,,,,,,,,,0,,,69,0
88452,note_on,0,0,3,,,,,,,,,2,,,45,0
88452,note_on,12,0,1,,,,,,,,,0,,,81,0
88452,note_on,12,0,3,,,,,,,,,2,,,57,0
88560,control_change,108,0,1,,,,,,,,,0,64,127,,
88560,note_on,0,0,1,,,,,,,,,0,,,72,114
88560,note_on,0,0,1,,,,,,,,,0,,,84,114
88560,note_on,0,0,3,,,,,,,,,2,,,48,101
88560,control_change,108,0,3,,,,,,,,,2,64,127,,
88560,note_on,0,0,3,,,,,,,,,2,,,60,101
88800,note_on,240,0,3,,,,,,,,,2,,,60,0
88800,note_on,0,0,3,,,,,,,,,2,,,57,101
88800,note_on,0,0,1,,,,,,,,,0,,,81,114
88800,note_on,0,0,3,,,,,,,,,2,,,45,101
88800,note_on,240,0,1,,,,,,,,,0,,,84,0
88800,note_on,0,0,1,,,,,,,,,0,,,72,0
88800,note_on,0,0,1,,,,,,,,,0,,,69,114
88800,note_on,0,0,3,,,,,,,,,2,,,48,0
88920,control_change,0,0,1,,,,,,,,,0,64,0,,
88920,note_on,0,0,1,,,,,,,,,0,,,69,0
88920,control_change,0,0,3,,,,,,,,,2,64,0,,
88920,note_on,0,0,3,,,,,,,,,2,,,45,0
88920,note_on,120,0,3,,,,,,,,,2,,,57,0
88920,note_on,120,0,1,,,,,,,,,0,,,81,0
89040,note_on,0,0,3,,,,,,,,,2,,,62,101
89040,note_on,0,0,3,,,,,,,,,2,,,65,101
89040,note_on,120,0,1,,,,,,,,,0,,,86,114
89040,note_on,120,0,3,,,,,,,,,2,,,53,101
89052,note_on,12,0,3,,,,,,,,,2,,,65,0
89052,note_on,0,0,3,,,,,,,,,2,,,62,0
89052,note_on,0,0,3,,,,,,,,,2,,,53,0
89160,note_on,0,0,1,,,,,,,,,0,,,86,114
89160,note_on,0,0,3,,,,,,,,,2,,,62,101
89160,note_on,0,0,3,,,,,,,,,2,,,65,101
89160,note_on,120,0,1,,,,,,,,,0,,,86,0
89160,note_on,108,0,3,,,,,,,,,2,,,55,101
89172,note_on,0,0,3,,,,,,,,,2,,,55,0
89172,note_on,12,0,3,,,,,,,,,2,,,65,0
89172,note_on,0,0,3,,,,,,,,,2,,,62,0
89220,note_on,60,0,1,,,,,,,,,0,,,86,0
89220,note_on,0,0,1,,,,,,,,,0,,,86,114
89280,note_on,60,0,1,,,,,,,,,0,,,86,0
89280,note_on,0,0,1,,,,,,,,,0,,,86,114
89280,note_on,0,0,3,,,,,,,,,2,,,62,101
89280,note_on,108,0,3,,,,,,,,,2,,,57,101
89280,note_on,0,0,3,,,,,,,,,2,,,65,101
89292,note_on,0,0,3,,,,,,,,,2,,,57,0
89292,note_on,12,0,3,,,,,,,,,2,,,65,0
89292,note_on,0,0,3,,,,,,,,,2,,,62,0
89340,note_on,0,0,1,,,,,,,,,0,,,89,114
89340,note_on,60,0,1,,,,,,,,,0,,,86,0
89400,note_on,60,0,1,,,,,,,,,0,,,89,0
89400,note_on,0,0,1,,,,,,,,,0,,,88,114
89400,note_on,0,0,3,,,,,,,,,2,,,65,101
89400,note_on,0,0,3,,,,,,,,,2,,,62,101
89400,note_on,108,0,3,,,,,,,,,2,,,58,101
89412,note_on,0,0,3,,,,,,,,,2,,,58,0
89412,note_on,12,0,3,,,,,,,,,2,,,65,0
89412,note_on,0,0,3,,,,,,,,,2,,,62,0
89460,note_on,0,0,1,,,,,,,,,0,,,86,114
89460,note_on,60,0,1,,,,,,,,,0,,,88,0
89520,note_on,0,0,1,,,,,,,,,0,,,81,114
89520,note_on,60,0,1,,,,,,,,,0,,,86,0
89520,note_on,108,0,3,,,,,,,,,2,,,48,101
89520,note_on,0,0,3,,,,,,,,,2,,,57,101
89520,note_on,0,0,3,,,,,,,,,2,,,60,101
89532,note_on,12,0,3,,,,,,,,,2,,,60,0
89532,note_on,0,0,3,,,,,,,,,2,,,48,0
89532,note_on,0,0,3,,,,,,,,,2,,,57,0
89640,note_on,0,0,3,,,,,,,,,2,,,57,101
89640,note_on,120,0,1,,,,,,,,,0,,,81,0
89640,note_on,0,0,3,,,,,,,,,2,,,60,101
89640,note_on,0,0,1,,,,,,,,,0,,,81,114
89640,note_on,108,0,3,,,,,,,,,2,,,50,101
89652,note_on,12,0,3,,,,,,,,,2,,,60,0
89652,note_on,0,0,3,,,,,,,,,2,,,57,0
89652,note_on,0,0,3,,,,,,,,,2,,,50,0
89700,note_on,0,0,1,,,,,,,,,0,,,81,114
89700,note_on,60,0,1,,,,,,,,,0,,,81,0
89760,note_on,108,0,3,,,,,,,,,2,,,52,101
89760,note_on,0,0,3,,,,,,,,,2,,,57,101
89760,note_on,0,0,3,,,,,,,,,2,,,60,101
89760,note_on,60,0,1,,,,,,,,,0,,,81,0
89760,note_on,0,0,1,,,,,,,,,0,,,81,114
89772,note_on,12,0,3,,,,,,,,,2,,,60,0
89772,note_on,0,0,3,,,,,,,,,2,,,57,0
89772,note_on,0,0,3,,,,,,,,,2,,,52,0
89820,note_on,60,0,1,,,,,,,,,0,,,81,0
89820,note_on,0,0,1,,,,,,,,,0,,,84,114
89880,note_on,60,0,1,,,,,,,,,0,,,84,0
89880,note_on,0,0,1,,,,,,,,,0,,,83,114
89880,note_on,108,0,3,,,,,,,,,2,,,53,101
89880,note_on,0,0,3,,,,,,,,,2,,,60,101
89880,note_on,0,0,3,,,,,,,,,2,,,57,101
89892,note_on,12,0,3,,,,,,,,,2,,,60,0
89892,note_on,0,0,3,,,,,,,,,2,,,53,0
89892,note_on,0,0,3,,,,,,,,,2,,,57,0
89940,note_on,0,0,1,,,,,,,,,0,,,81,114
89940,note_on,60,0,1,,,,,,,,,0,,,83,0
90000,note_on,0,0,3,,,,,,,,,2,,,57,101
90000,note_on,108,0,3,,,,,,,,,2,,,52,101
90000,note_on,0,0,3,,,,,,,,,2,,,60,101
90000,note_on,60,0,1,,,,,,,,,0,,,81,0
90000,note_on,0,0,1,,,,,,,,,0,,,76,114
90012,note_on,0,0,3,,,,,,,,,2,,,52,0
90012,note_on,0,0,3,,,,,,,,,2,,,57,0
90012,note_on,12,0,3,,,,,,,,,2,,,60,0
90120,note_on,0,0,1,,,,,,,,,0,,,92,114
90120,note_on,120,0,1,,,,,,,,,0,,,76,0
90120,note_on,0,0,1,,,,,,,,,0,,,80,114
90120,note_on,0,0,3,,,,,,,,,2,,,62,101
90120,note_on,0,0,3,,,,,,,,,2,,,59,101
90120,note_on,108,0,3,,,,,,,,,2,,,52,101
90120,note_on,0,0,1,,,,,,,,,0,,,83,114
90132,note_on,0,0,3,,,,,,,,,2,,,52,0
90132,note_on,0,0,3,,,,,,,,,2,,,59,0
90132,note_on,12,0,3,,,,,,,,,2,,,62,0
90240,note_on,0,0,1,,,,,,,,,0,,,93,114
90240,note_on,108,0,3,,,,,,,,,2,,,57,101
90240,note_on,0,0,3,,,,,,,,,2,,,60,101
90240,note_on,120,0,1,,,,,,,,,0,,,92,0
90240,note_on,0,0,1,,,,,,,,,0,,,83,0
90240,note_on,0,0,1,,,,,,,,,0,,,80,0
90240,note_on,0,0,1,,,,,,,,,0,,,81,114
90240,note_on,0,0,1,,,,,,,,,0,,,84,114
90480,control_change,0,0,3,,,,,,,,,2,64,127,,
90480,note_on,0,0,3,,,,,,,,,2,,,57,0
90480,note_on,240,0,1,,,,,,,,,0,,,93,0
90480,note_on,0,0,3,,,,,,,,,2,,,41,88
90480,note_on,0,0,3,,,,,,,,,2,,,53,88
90480,note_on,0,0,1,,,,,,,,,0,,,84,0
90480,note_on,0,0,1,,,,,,,,,0,,,81,0
90480,note_on,0,0,1,,,,,,,,,0,,,69,101
90480,note_on,0,0,1,,,,,,,,,0,,,77,101
90480,note_on,0,0,1,,,,,,,,,0,,,81,101
90480,control_change,0,0,1,,,,,,,,,0,64,127,,
90480,note_on,240,0,3,,,,,,,,,2,,,60,0
90600,note_on,120,0,1,,,,,,,,,0,,,81,0
90600,note_on,0,0,1,,,,,,,,,0,,,77,0
90600,note_on,0,0,1,,,,,,,,,0,,,69,0
90600,note_on,0,0,1,,,,,,,,,0,,,77,101
90600,note_on,0,0,1,,,,,,,,,0,,,81,101
90600,note_on,0,0,1,,,,,,,,,0,,,69,101
90660,note_on,60,0,1,,,,,,,,,0,,,81,0
90660,note_on,0,0,1,,,,,,,,,0,,,77,0
90660,note_on,0,0,1,,,,,,,,,0,,,69,0
90660,note_on,0,0,1,,,,,,,,,0,,,69,101
90660,note_on,0,0,1,,,,,,,,,0,,,77,101
90660,note_on,0,0,1,,,,,,,,,0,,,81,101
90720,control_change,0,0,3,,,,,,,,,2,64,0,,
90720,note_on,0,0,3,,,,,,,,,2,,,43,101
90720,note_on,0,0,3,,,,,,,,,2,,,55,101
90720,note_on,240,0,3,,,,,,,,,2,,,53,0
90720,note_on,0,0,3,,,,,,,,,2,,,41,0
90720,note_on,60,0,1,,,,,,,,,0,,,81,0
90720,note_on,0,0,1,,,,,,,,,0,,,69,0
90720,note_on,0,0,1,,,,,,,,,0,,,69,114
90720,note_on,0,0,1,,,,,,,,,0,,,77,114
90720,note_on,0,0,1,,,,,,,,,0,,,81,114
90720,note_on,0,0,1,,,,,,,,,0,,,77,0
90840,note_on,120,0,1,,,,,,,,,0,,,81,0
90840,note_on,0,0,1,,,,,,,,,0,,,77,114
90840,note_on,0,0,1,,,,,,,,,0,,,81,114
90840,note_on,0,0,1,,,,,,,,,0,,,69,114
90840,note_on,0,0,1,,,,,,,,,0,,,69,0
90840,note_on,0,0,1,,,,,,,,,0,,,77,0
90900,note_on,0,0,1,,,,,,,,,0,,,81,114
90900,note_on,0,0,1,,,,,,,,,0,,,77,114
90900,control_change,0,0,1,,,,,,,,,0,64,0,,
90900,note_on,0,0,1,,,,,,,,,0,,,69,114
90900,note_on,0,0,1,,,,,,,,,0,,,77,0
90900,note_on,0,0,1,,,,,,,,,0,,,69,0
90900,note_on,60,0,1,,,,,,,,,0,,,81,0
90960,note_on,0,0,1,,,,,,,,,0,,,77,114
90960,note_on,240,0,3,,,,,,,,,2,,,55,0
90960,note_on,0,0,3,,,,,,,,,2,,,43,0
90960,control_change,0,0,3,,,,,,,,,2,64,127,,
90960,note_on,0,0,3,,,,,,,,,2,,,45,101
90960,note_on,60,0,1,,,,,,,,,0,,,81,0
90960,note_on,0,0,1,,,,,,,,,0,,,77,0
90960,note_on,0,0,1,,,,,,,,,0,,,69,0
90960,note_on,0,0,1,,,,,,,,,0,,,69,114
90960,note_on,0,0,1,,,,,,,,,0,,,81,114
90960,control_change,0,0,1,,,,,,,,,0,64,127,,
90960,note_on,0,0,3,,,,,,,,,2,,,57,101
91080,note_on,0,0,1,,,,,,,,,0,,,69,114
91080,note_on,0,0,1,,,,,,,,,0,,,81,114
91080,note_on,0,0,1,,,,,,,,,0,,,77,0
91080,note_on,120,0,1,,,,,,,,,0,,,81,0
91080,note_on,0,0,1,,,,,,,,,0,,,69,0
91080,note_on,0,0,1,,,,,,,,,0,,,77,114
91140,note_on,0,0,1,,,,,,,,,0,,,77,0
91140,note_on,0,0,1,,,,,,,,,0,,,69,0
91140,note_on,0,0,1,,,,,,,,,0,,,69,114
91140,note_on,0,0,1,,,,,,,,,0,,,77,114
91140,note_on,0,0,1,,,,,,,,,0,,,81,114
91140,note_on,60,0,1,,,,,,,,,0,,,81,0
91200,control_change,0,0,3,,,,,,,,,2,64,0,,
91200,note_on,0,0,3,,,,,,,,,2,,,46,101
91200,note_on,0,0,3,,,,,,,,,2,,,58,101
91200,note_on,0,0,3,,,,,,,,,2,,,45,0
91200,note_on,0,0,1,,,,,,,,,0,,,81,114
91200,note_on,0,0,1,,,,,,,,,0,,,69,114
91200,note_on,0,0,1,,,,,,,,,0,,,69,0
91200,note_on,0,0,1,,,,,,,,,0,,,77,0
91200,note_on,60,0,1,,,,,,,,,0,,,81,0
91200,note_on,0,0,1,,,,,,,,,0,,,77,114
91200,note_on,240,0,3,,,,,,,,,2,,,57,0
91206,note_on,6,0,1,,,,,,,,,0,,,81,0
91206,note_on,0,0,1,,,,,,,,,0,,,77,0
91206,note_on,0,0,1,,,,,,,,,0,,,69,0
91260,note_on,0,0,1,,,,,,,,,0,,,81,114
91260,note_on,0,0,1,,,,,,,,,0,,,84,114
91260,control_change,54,0,1,,,,,,,,,0,64,0,,
91320,note_on,0,0,1,,,,,,,,,0,,,82,114
91320,note_on,0,0,1,,,,,,,,,0,,,81,0
91320,note_on,60,0,1,,,,,,,,,0,,,84,0
91320,note_on,0,0,1,,,,,,,,,0,,,79,114
91380,note_on,60,0,1,,,,,,,,,0,,,82,0
91380,note_on,0,0,1,,,,,,,,,0,,,77,114
91380,note_on,0,0,1,,,,,,,,,0,,,79,0
91380,note_on,0,0,1,,,,,,,,,0,,,81,114
91440,note_on,0,0,3,,,,,,,,,2,,,60,101
91440,note_on,0,0,3,,,,,,,,,2,,,48,101
91440,note_on,60,0,1,,,,,,,,,0,,,81,0
91440,note_on,0,0,1,,,,,,,,,0,,,77,0
91440,note_on,0,0,1,,,,,,,,,0,,,76,114
91440,note_on,0,0,3,,,,,,,,,2,,,46,0
91440,note_on,0,0,1,,,,,,,,,0,,,79,114
91440,note_on,240,0,3,,,,,,,,,2,,,58,0
91452,note_on,0,0,1,,,,,,,,,0,,,76,0
91452,note_on,12,0,1,,,,,,,,,0,,,79,0
91452,note_on,12,0,3,,,,,,,,,2,,,60,0
91452,note_on,0,0,3,,,,,,,,,2,,,48,0
91560,note_on,0,0,1,,,,,,,,,0,,,81,114
91560,note_on,0,0,1,,,,,,,,,0,,,77,114
91560,note_on,108,0,1,,,,,,,,,0,,,72,114
91560,note_on,108,0,3,,,,,,,,,2,,,43,101
91560,note_on,0,0,3,,,,,,,,,2,,,55,101
91572,note_on,12,0,3,,,,,,,,,2,,,55,0
91572,note_on,12,0,1,,,,,,,,,0,,,81,0
91572,note_on,0,0,1,,,,,,,,,0,,,77,0
91572,note_on,0,0,1,,,,,,,,,0,,,72,0
91572,note_on,0,0,3,,,,,,,,,2,,,43,0
91680,note_on,0,0,3,,,,,,,,,2,,,60,101
91680,note_on,0,0,1,,,,,,,,,0,,,76,114
91680,note_on,108,0,1,,,,,,,,,0,,,72,114
91680,note_on,0,0,1,,,,,,,,,0,,,79,114
91680,note_on,108,0,3,,,,,,,,,2,,,48,101
91920,note_on,0,0,1,,,,,,,,,0,,,76,0
91920,note_on,240,0,1,,,,,,,,,0,,,79,0
91920,note_on,240,0,3,,,,,,,,,2,,,60,0
91920,note_on,0,0,1,,,,,,,,,0,,,72,0
91920,note_on,0,0,1,,,,,,,,,0,,,65,114
91920,note_on,0,0,1,,,,,,,,,0,,,74,114
91920,note_on,0,0,1,,,,,,,,,0,,,77,114
91920,control_change,0,0,1,,,,,,,,,0,64,127,,
91920,note_on,0,0,3,,,,,,,,,2,,,50,101
91920,note_on,0,0,3,,,,,,,,,2,,,38,101
91920,control_change,0,0,3,,,,,,,,,2,64,127,,
91920,note_on,0,0,3,,,,,,,,,2,,,48,0
92040,note_on,0,0,1,,,,,,,,,0,,,65,114
92040,note_on,0,0,1,,,,,,,,,0,,,65,0
92040,note_on,0,0,1,,,,,,,,,0,,,74,0
92040,note_on,120,0,1,,,,,,,,,0,,,77,0
92040,note_on,0,0,1,,,,,,,,,0,,,77,114
92040,note_on,0,0,1,,,,,,,,,0,,,74,114
92100,note_on,0,0,1,,,,,,,,,0,,,74,114
92100,note_on,60,0,1,,,,,,,,,0,,,77,0
92100,note_on,0,0,1,,,,,,,,,0,,,74,0
92100,note_on,0,0,1,,,,,,,,,0,,,65,0
92100,note_on,0,0,1,,,,,,,,,0,,,77,114
92100,note_on,0,0,1,,,,,,,,,0,,,65,114
92160,note_on,0,0,1,,,,,,,,,0,,,65,0
92160,control_change,0,0,3,,,,,,,,,2,64,0,,
92160,note_on,0,0,3,,,,,,,,,2,,,40,101
92160,note_on,0,0,3,,,,,,,,,2,,,52,101
92160,note_on,60,0,1,,,,,,,,,0,,,77,0
92160,note_on,0,0,1,,,,,,,,,0,,,74,0
92160,note_on,0,0,1,,,,,,,,,0,,,65,114
92160,note_on,0,0,1,,,,,,,,,0,,,74,114
92160,note_on,0,0,1,,,,,,,,,0,,,77,114
92160,note_on,0,0,3,,,,,,,,,2,,,38,0
92160,note_on,240,0,3,,,,,,,,,2,,,50,0
92280,note_on,0,0,1,,,,,,,,,0,,,77,114
92280,note_on,120,0,1,,,,,,,,,0,,,77,0
92280,note_on,0,0,1,,,,,,,,,0,,,74,0
92280,note_on,0,0,1,,,,,,,,,0,,,65,0
92280,note_on,0,0,1,,,,,,,,,0,,,65,114
92280,note_on,0,0,1,,,,,,,,,0,,,74,114
92340,note_on,0,0,1,,,,,,,,,0,,,65,0
92340,note_on,0,0,1,,,,,,,,,0,,,65,114
92340,note_on,60,0,1,,,,,,,,,0,,,77,0
92340,note_on,0,0,1,,,,,,,,,0,,,77,114
92340,control_change,0,0,1,,,,,,,,,0,64,0,,
92340,note_on,0,0,1,,,,,,,,,0,,,74,0
92340,note_on,0,0,1,,,,,,,,,0,,,74,114
92400,note_on,0,0,3,,,,,,,,,2,,,40,0
92400,note_on,240,0,3,,,,,,,,,2,,,52,0
92400,control_change,0,0,3,,,,,,,,,2,64,127,,
92400,note_on,0,0,3,,,,,,,,,2,,,41,101
92400,note_on,0,0,3,,,,,,,,,2,,,53,101
92400,note_on,0,0,1,,,,,,,,,0,,,65,114
92400,control_change,0,0,1,,,,,,,,,0,64,127,,
92400,note_on,0,0,1,,,,,,,,,0,,,77,114
92400,note_on,0,0,1,,,,,,,,,0,,,74,114
92400,note_on,60,0,1,,,,,,,,,0,,,77,0
92400,note_on,0,0,1,,,,,,,,,0,,,74,0
92400,note_on,0,0,1,,,,,,,,,0,,,65,0
92520,note_on,0,0,1,,,,,,,,,0,,,74,114
92520,note_on,0,0,1,,,,,,,,,0,,,65,114
92520,note_on,0,0,1,,,,,,,,,0,,,65,0
92520,note_on,120,0,1,,,,,,,,,0,,,77,0
92520,note_on,0,0,1,,,,,,,,,0,,,77,114
92520,note_on,0,0,1,,,,,,,,,0,,,74,0
92580,note_on,0,0,1,,,,,,,,,0,,,74,0
92580,note_on,0,0,1,,,,,,,,,0,,,65,0
92580,note_on,0,0,1,,,,,,,,,0,,,65,114
92580,note_on,0,0,1,,,,,,,,,0,,,74,114
92580,note_on,0,0,1,,,,,,,,,0,,,77,114
92580,note_on,60,0,1,,,,,,,,,0,,,77,0
92640,note_on,0,0,1,,,,,,,,,0,,,77,114
92640,note_on,0,0,1,,,,,,,,,0,,,74,114
92640,note_on,0,0,3,,,,,,,,,2,,,41,0
92640,note_on,0,0,3,,,,,,,,,2,,,43,101
92640,note_on,240,0,3,,,,,,,,,2,,,53,0
92640,note_on,0,0,1,,,,,,,,,0,,,65,114
92640,note_on,0,0,1,,,,,,,,,0,,,65,0
92640,note_on,0,0,1,,,,,,,,,0,,,74,0
92640,note_on,60,0,1,,,,,,,,,0,,,77,0
92640,note_on,0,0,3,,,,,,,,,2,,,55,101
92644,note_on,4,0,1,,,,,,,,,0,,,77,0
92644,note_on,0,0,1,,,,,,,,,0,,,65,0
92644,note_on,0,0,1,,,,,,,,,0,,,74,0
92700,note_on,56,0,1,,,,,,,,,0,,,77,114
92700,note_on,0,0,1,,,,,,,,,0,,,81,114
92760,note_on,60,0,1,,,,,,,,,0,,,81,0
92760,note_on,0,0,1,,,,,,,,,0,,,79,114
92760,note_on,0,0,1,,,,,,,,,0,,,76,114
92760,note_on,0,0,1,,,,,,,,,0,,,77,0
92820,note_on,0,0,1,,,,,,,,,0,,,77,114
92820,note_on,0,0,1,,,,,,,,,0,,,76,0
92820,note_on,0,0,1,,,,,,,,,0,,,74,114
92820,note_on,60,0,1,,,,,,,,,0,,,79,0
92880,note_on,0,0,1,,,,,,,,,0,,,74,0
92880,note_on,0,0,1,,,,,,,,,0,,,73,114
92880,note_on,60,0,1,,,,,,,,,0,,,77,0
92880,control_change,0,0,1,,,,,,,,,0,64,0,,
92880,note_on,240,0,3,,,,,,,,,2,,,55,0
92880,note_on,0,0,3,,,,,,,,,2,,,43,0
92880,control_change,0,0,3,,,,,,,,,2,64,0,,
92880,note_on,0,0,3,,,,,,,,,2,,,45,101
92880,note_on,0,0,3,,,,,,,,,2,,,57,101
92880,note_on,0,0,1,,,,,,,,,0,,,76,114
92892,note_on,12,0,1,,,,,,,,,0,,,76,0
92892,note_on,0,0,1,,,,,,,,,0,,,73,0
92892,note_on,12,0,3,,,,,,,,,2,,,57,0
92892,note_on,0,0,3,,,,,,,,,2,,,45,0
93000,note_on,0,0,3,,,,,,,,,2,,,50,101
93000,note_on,0,0,1,,,,,,,,,0,,,74,114
93000,note_on,0,0,1,,,,,,,,,0,,,77,114
93000,note_on,108,0,1,,,,,,,,,0,,,69,114
93000,note_on,108,0,3,,,,,,,,,2,,,38,101
93012,note_on,12,0,1,,,,,,,,,0,,,77,0
93012,note_on,0,0,1,,,,,,,,,0,,,74,0
93012,note_on,0,0,1,,,,,,,,,0,,,69,0
93012,note_on,0,0,3,,,,,,,,,2,,,38,0
93012,note_on,12,0,3,,,,,,,,,2,,,50,0
93120,control_change,108,0,1,,,,,,,,,0,64,0,,
93120,note_on,0,0,1,,,,,,,,,0,,,69,114
93120,note_on,0,0,1,,,,,,,,,0,,,73,114
93120,note_on,0,0,1,,,,,,,,,0,,,76,114
93120,note_on,0,0,3,,,,,,,,,2,,,57,101
93120,note_on,0,0,3,,,,,,,,,2,,,45,101
93120,control_change,108,0,3,,,,,,,,,2,64,0,,
93132,note_on,12,0,1,,,,,,,,,0,,,76,0
93132,note_on,0,0,3,,,,,,,,,2,,,45,0
93132,note_on,12,0,3,,,,,,,,,2,,,57,0
93132,note_on,0,0,1,,,,,,,,,0,,,69,0
93132,note_on,0,0,1,,,,,,,,,0,,,73,0
93240,note_on,108,0,3,,,,,,,,,2,,,38,101
93240,note_on,0,0,3,,,,,,,,,2,,,50,101
93240,note_on,0,0,1,,,,,,,,,0,,,77,114
93240,note_on,0,0,1,,,,,,,,,0,,,74,114
93240,note_on,108,0,1,,,,,,,,,0,,,69,114
93252,note_on,0,0,1,,,,,,,,,0,,,69,0
93252,note_on,0,0,1,,,,,,,,,0,,,74,0
93252,note_on,12,0,1,,,,,,,,,0,,,77,0
93252,note_on,12,0,3,,,,,,,,,2,,,50,0
93252,note_on,0,0,3,,,,,,,,,2,,,38,0
93360,note_on,0,0,1,,,,,,,,,0,,,64,49
93360,control_change,108,0,1,,,,,,,,,0,64,127,,
93360,control_change,108,0,3,,,,,,,,,2,64,127,,
93360,note_on,0,0,3,,,,,,,,,2,,,45,36
93360,note_on,0,0,3,,,,,,,,,2,,,49,36
93420,note_on,0,0,1,,,,,,,,,0,,,57,49
93420,note_on,60,0,1,,,,,,,,,0,,,64,0
93480,note_on,60,0,1,,,,,,,,,0,,,57,0
93480,note_on,0,0,3,,,,,,,,,2,,,50,36
93480,note_on,120,0,3,,,,,,,,,2,,,49,0
93480,note_on,0,0,3,,,,,,,,,2,,,45,0
93480,note_on,0,0,3,,,,,,,,,2,,,41,36
93480,note_on,0,0,1,,,,,,,,,0,,,65,49
93540,note_on,0,0,1,,,,,,,,,0,,,57,49
93540,note_on,60,0,1,,,,,,,,,0,,,65,0
93600,note_on,120,0,3,,,,,,,,,2,,,50,0
93600,note_on,60,0,1,,,,,,,,,0,,,57,0
93600,note_on,0,0,1,,,,,,,,,0,,,64,49
93600,note_on,0,0,3,,,,,,,,,2,,,49,36
93600,note_on,0,0,3,,,,,,,,,2,,,45,36
93600,note_on,0,0,3,,,,,,,,,2,,,41,0
93660,note_on,60,0,1,,,,,,,,,0,,,64,0
93660,note_on,0,0,1,,,,,,,,,0,,,57,49
93720,note_on,0,0,3,,,,,,,,,2,,,50,36
93720,note_on,120,0,3,,,,,,,,,2,,,49,0
93720,note_on,0,0,3,,,,,,,,,2,,,45,0
93720,note_on,0,0,3,,,,,,,,,2,,,41,36
93720,note_on,0,0,1,,,,,,,,,0,,,65,49
93720,note_on,60,0,1,,,,,,,,,0,,,57,0
93780,note_on,0,0,1,,,,,,,,,0,,,57,49
93780,note_on,60,0,1,,,,,,,,,0,,,65,0
93840,control_change,0,0,1,,,,,,,,,0,64,0,,
93840,note_on,0,0,1,,,,,,,,,0,,,73,109
93840,note_on,0,0,1,,,,,,,,,0,,,69,104
93840,note_on,0,0,1,,,,,,,,,0,,,76,114
93840,note_on,0,0,3,,,,,,,,,2,,,41,0
93840,control_change,0,0,3,,,,,,,,,2,64,0,,
93840,control_change,0,0,3,,,,,,,,,2,64,0,,
93840,note_on,0,0,3,,,,,,,,,2,,,45,93
93840,note_on,0,0,3,,,,,,,,,2,,,57,101
93840,control_change,0,0,1,,,,,,,,,0,64,0,,
93840,note_on,60,0,1,,,,,,,,,0,,,57,0
93840,note_on,120,0,3,,,,,,,,,2,,,50,0
93852,note_on,0,0,1,,,,,,,,,0,,,73,0
93852,note_on,12,0,1,,,,,,,,,0,,,76,0
93852,note_on,0,0,1,,,,,,,,,0,,,69,0
93852,note_on,0,0,3,,,,,,,,,2,,,45,0
93852,note_on,12,0,3,,,,,,,,,2,,,57,0
93960,note_on,0,0,1,,,,,,,,,0,,,77,114
93960,note_on,0,0,1,,,,,,,,,0,,,74,109
93960,note_on,108,0,1,,,,,,,,,0,,,69,104
93960,note_on,108,0,3,,,,,,,,,2,,,38,93
93960,note_on,0,0,3,,,,,,,,,2,,,50,101
93972,note_on,0,0,1,,,,,,,,,0,,,69,0
93972,note_on,0,0,1,,,,,,,,,0,,,74,0
93972,note_on,12,0,1,,,,,,,,,0,,,77,0
93972,note_on,0,0,3,,,,,,,,,2,,,38,0
93972,note_on,12,0,3,,,,,,,,,2,,,50,0
94080,note_on,0,0,1,,,,,,,,,0,,,69,104
94080,control_change,108,0,3,,,,,,,,,2,64,0,,
94080,note_on,0,0,1,,,,,,,,,0,,,76,114
94080,note_on,0,0,3,,,,,,,,,2,,,45,93
94080,control_change,108,0,1,,,,,,,,,0,64,0,,
94080,note_on,0,0,1,,,,,,,,,0,,,73,109
94080,note_on,0,0,3,,,,,,,,,2,,,57,101
94092,note_on,0,0,1,,,,,,,,,0,,,73,0
94092,note_on,0,0,3,,,,,,,,,2,,,45,0
94092,note_on,0,0,1,,,,,,,,,0,,,69,0
94092,note_on,12,0,1,,,,,,,,,0,,,76,0
94092,note_on,12,0,3,,,,,,,,,2,,,57,0
94200,note_on,108,0,3,,,,,,,,,2,,,38,93
94200,note_on,0,0,3,,,,,,,,,2,,,50,101
94200,note_on,0,0,1,,,,,,,,,0,,,77,114
94200,note_on,108,0,1,,,,,,,,,0,,,69,104
94200,note_on,0,0,1,,,,,,,,,0,,,74,109
94212,note_on,0,0,1,,,,,,,,,0,,,74,0
94212,note_on,0,0,1,,,,,,,,,0,,,69,0
94212,note_on,0,0,3,,,,,,,,,2,,,38,0
94212,note_on,12,0,3,,,,,,,,,2,,,50,0
94212,note_on,12,0,1,,,,,,,,,0,,,77,0
94320,note_on,0,0,1,,,,,,,,,0,,,64,49
94320,note_on,0,0,3,,,,,,,,,2,,,49,36
94320,note_on,0,0,3,,,,,,,,,2,,,45,36
94320,control_change,108,0,3,,,,,,,,,2,64,127,,
94320,control_change,108,0,1,,,,,,,,,0,64,127,,
94380,note_on,60,0,1,,,,,,,,,0,,,64,0
94380,note_on,0,0,1,,,,,,,,,0,,,57,49
94440,note_on,0,0,3,,,,,,,,,2,,,41,36
94440,note_on,0,0,3,,,,,,,,,2,,,45,0
94440,note_on,120,0,3,,,,,,,,,2,,,49,0
94440,note_on,0,0,3,,,,,,,,,2,,,50,36
94440,note_on,0,0,1,,,,,,,,,0,,,65,49
94440,note_on,60,0,1,,,,,,,,,0,,,57,0
94500,note_on,60,0,1,,,,,,,,,0,,,65,0
94500,note_on,0,0,1,,,,,,,,,0,,,57,49
94560,note_on,0,0,1,,,,,,,,,0,,,64,49
94560,note_on,120,0,3,,,,,,,,,2,,,50,0
94560,note_on,60,0,1,,,,,,,,,0,,,57,0
94560,note_on,0,0,3,,,,,,,,,2,,,41,0
94560,note_on,0,0,3,,,,,,,,,2,,,45,36
94560,note_on,0,0,3,,,,,,,,,2,,,49,36
94620,note_on,0,0,1,,,,,,,,,0,,,57,49
94620,note_on,60,0,1,,,,,,,,,0,,,64,0
94680,note_on,0,0,1,,,,,,,,,0,,,65,49
94680,note_on,60,0,1,,,,,,,,,0,,,57,0
94680,control_change,0,0,3,,,,,,,,,2,64,0,,
94680,note_on,120,0,3,,,,,,,,,2,,,49,0
94680,note_on,0,0,3,,,,,,,,,2,,,45,0
94680,note_on,0,0,3,,,,,,,,,2,,,41,36
94680,note_on,0,0,3,,,,,,,,,2,,,50,36
94740,note_on,0,0,1,,,,,,,,,0,,,57,49
94740,note_on,60,0,1,,,,,,,,,0,,,65,0
94740,control_change,0,0,1,,,,,,,,,0,64,0,,
94800,note_on,0,0,3,,,,,,,,,2,,,49,36
94800,control_change,0,0,3,,,,,,,,,2,64,127,,
94800,note_on,0,0,3,,,,,,,,,2,,,41,0
94800,note_on,120,0,3,,,,,,,,,2,,,50,0
94800,note_on,9708,0,4,,,,,,,,,3,,,45,36
94800,note_on,60,0,1,,,,,,,,,0,,,57,0
94800,control_change,0,0,1,,,,,,,,,0,64,127,,
94800,note_on,0,0,1,,,,,,,,,0,,,64,49
94860,note_on,60,0,1,,,,,,,,,0,,,64,0
94860,note_on,0,0,1,,,,,,,,,0,,,65,49
94920,note_on,0,0,3,,,,,,,,,2,,,50,36
94920,note_on,120,0,3,,,,,,,,,2,,,49,0
94920,note_on,0,0,1,,,,,,,,,0,,,65,49
94920,note_on,60,0,1,,,,,,,,,0,,,65,0
94980,note_on,0,0,1,,,,,,,,,0,,,67,49
94980,note_on,60,0,1,,,,,,,,,0,,,65,0
95040,note_on,0,0,1,,,,,,,,,0,,,67,62
95040,note_on,0,0,3,,,,,,,,,2,,,52,49
95040,note_on,120,0,3,,,,,,,,,2,,,50,0
95040,note_on,60,0,1,,,,,,,,,0,,,67,0
95100,note_on,0,0,1,,,,,,,,,0,,,69,62
95100,note_on,60,0,1,,,,,,,,,0,,,67,0
95160,note_on,60,0,1,,,,,,,,,0,,,69,0
95160,note_on,360,0,4,,,,,,,,,3,,,45,0
95160,control_change,0,0,3,,,,,,,,,2,64,0,,
95160,note_on,120,0,3,,,,,,,,,2,,,52,0
95160,note_on,0,0,3,,,,,,,,,2,,,55,49
95160,note_on,0,0,1,,,,,,,,,0,,,69,62
95160,control_change,0,0,1,,,,,,,,,0,64,0,,
95220,note_on,60,0,1,,,,,,,,,0,,,69,0
95220,note_on,0,0,1,,,,,,,,,0,,,70,62
95280,note_on,120,0,3,,,,,,,,,2,,,55,0
95280,note_on,0,0,3,,,,,,,,,2,,,53,62
95280,note_on,60,0,1,,,,,,,,,0,,,70,0
95280,note_on,0,0,1,,,,,,,,,0,,,69,75
95340,note_on,60,0,1,,,,,,,,,0,,,69,0
95340,note_on,0,0,1,,,,,,,,,0,,,57,75
95400,note_on,0,0,3,,,,,,,,,2,,,52,62
95400,note_on,120,0,3,,,,,,,,,2,,,53,0
95400,note_on,60,0,1,,,,,,,,,0,,,57,0
95400,note_on,0,0,1,,,,,,,,,0,,,67,75
95460,note_on,0,0,1,,,,,,,,,0,,,57,75
95460,note_on,60,0,1,,,,,,,,,0,,,67,0
95520,note_on,0,0,3,,,,,,,,,2,,,50,62
95520,note_on,0,0,1,,,,,,,,,0,,,65,75
95520,note_on,60,0,1,,,,,,,,,0,,,57,0
95520,note_on,120,0,3,,,,,,,,,2,,,52,0
95580,note_on,0,0,1,,,,,,,,,0,,,57,75
95580,note_on,60,0,1,,,,,,,,,0,,,65,0
95640,note_on,60,0,1,,,,,,,,,0,,,57,0
95640,note_on,0,0,3,,,,,,,,,2,,,55,62
95640,note_on,120,0,3,,,,,,,,,2,,,50,0
95640,note_on,0,0,1,,,,,,,,,0,,,64,75
95700,note_on,60,0,1,,,,,,,,,0,,,64,0
95700,note_on,0,0,1,,,,,,,,,0,,,57,75
95760,note_on,60,0,1,,,,,,,,,0,,,57,0
95760,note_on,0,0,1,,,,,,,,,0,,,64,75
95760,note_on,0,0,3,,,,,,,,,2,,,53,62
95760,control_change,0,0,3,,,,,,,,,2,64,127,,
95760,note_on,120,0,3,,,,,,,,,2,,,55,0
95760,control_change,0,0,1,,,,,,,,,0,64,127,,
95820,note_on,60,0,1,,,,,,,,,0,,,64,0
95820,note_on,0,0,1,,,,,,,,,0,,,62,75
95880,note_on,120,0,3,,,,,,,,,2,,,53,0
95880,note_on,0,0,3,,,,,,,,,2,,,50,62
95880,note_on,0,0,1,,,,,,,,,0,,,57,75
95880,note_on,60,0,1,,,,,,,,,0,,,62,0
95940,note_on,0,0,1,,,,,,,,,0,,,62,75
95940,note_on,60,0,1,,,,,,,,,0,,,57,0
96000,note_on,0,0,3,,,,,,,,,2,,,49,62
96000,note_on,0,0,1,,,,,,,,,0,,,65,75
96000,control_change,0,0,1,,,,,,,,,0,64,0,,
96000,note_on,60,0,1,,,,,,,,,0,,,62,0
96000,note_on,120,0,3,,,,,,,,,2,,,50,0
96000,control_change,0,0,3,,,,,,,,,2,64,0,,
96060,note_on,60,0,1,,,,,,,,,0,,,65,0
96060,note_on,0,0,1,,,,,,,,,0,,,64,75
96120,note_on,0,0,1,,,,,,,,,0,,,57,75
96120,note_on,60,0,1,,,,,,,,,0,,,64,0
96120,note_on,0,0,3,,,,,,,,,2,,,45,62
96120,note_on,120,0,3,,,,,,,,,2,,,49,0
96180,note_on,0,0,1,,,,,,,,,0,,,64,75
96180,note_on,60,0,1,,,,,,,,,0,,,57,0
96240,note_on,0,0,1,,,,,,,,,0,,,61,75
96240,control_change,0,0,3,,,,,,,,,2,64,127,,
96240,note_on,60,0,1,,,,,,,,,0,,,64,0
96240,note_on,0,0,3,,,,,,,,,2,,,53,62
96240,control_change,0,0,1,,,,,,,,,0,64,127,,
96240,note_on,120,0,3,,,,,,,,,2,,,45,0
96300,note_on,60,0,1,,,,,,,,,0,,,61,0
96300,note_on,0,0,1,,,,,,,,,0,,,62,75
96360,note_on,60,0,1,,,,,,,,,0,,,62,0
96360,note_on,0,0,1,,,,,,,,,0,,,57,75
96360,note_on,0,0,3,,,,,,,,,2,,,50,62
96360,note_on,120,0,3,,,,,,,,,2,,,53,0
96420,note_on,60,0,1,,,,,,,,,0,,,57,0
96420,note_on,0,0,1,,,,,,,,,0,,,62,75
96480,note_on,60,0,1,,,,,,,,,0,,,62,0
96480,note_on,0,0,3,,,,,,,,,2,,,49,62
96480,note_on,120,0,3,,,,,,,,,2,,,50,0
96480,note_on,0,0,1,,,,,,,,,0,,,65,75
96540,note_on,0,0,1,,,,,,,,,0,,,64,75
96540,note_on,60,0,1,,,,,,,,,0,,,65,0
96600,note_on,0,0,3,,,,,,,,,2,,,45,88
96600,note_on,120,0,3,,,,,,,,,2,,,49,0
96600,note_on,60,0,1,,,,,,,,,0,,,64,0
96600,note_on,0,0,1,,,,,,,,,0,,,57,101
96660,note_on,0,0,1,,,,,,,,,0,,,64,75
96660,note_on,60,0,1,,,,,,,,,0,,,57,0
96720,note_on,22080,0,2,,,,,,,,,1,,,60,36
96720,note_on,0,0,1,,,,,,,,,0,,,67,75
96720,control_change,0,0,1,,,,,,,,,0,64,127,,
96720,note_on,60,0,1,,,,,,,,,0,,,64,0
96720,control_change,120,0,3,,,,,,,,,2,64,127,,
96780,note_on,0,0,1,,,,,,,,,0,,,65,75
96780,note_on,60,0,1,,,,,,,,,0,,,67,0
96840,note_on,120,0,3,,,,,,,,,2,,,45,0
96840,note_on,0,0,3,,,,,,,,,2,,,43,62
96840,note_on,0,0,1,,,,,,,,,0,,,64,75
96840,note_on,60,0,1,,,,,,,,,0,,,65,0
96900,note_on,0,0,1,,,,,,,,,0,,,65,75
96900,note_on,60,0,1,,,,,,,,,0,,,64,0
96900,note_on,0,0,3,,,,,,,,,2,,,41,62
96900,note_on,60,0,3,,,,,,,,,2,,,43,0
96960,note_on,0,0,3,,,,,,,,,2,,,40,62
96960,control_change,0,0,3,,,,,,,,,2,64,0,,
96960,note_on,60,0,3,,,,,,,,,2,,,41,0
96960,note_on,240,0,2,,,,,,,,,1,,,60,0
96960,note_on,60,0,1,,,,,,,,,0,,,65,0
96960,control_change,0,0,1,,,,,,,,,0,64,0,,
96960,note_on,0,0,1,,,,,,,,,0,,,67,75
97020,note_on,60,0,1,,,,,,,,,0,,,67,0
97020,note_on,0,0,1,,,,,,,,,0,,,60,75
97080,note_on,0,0,1,,,,,,,,,0,,,68,75
97080,note_on,60,0,1,,,,,,,,,0,,,60,0
97080,note_on,120,0,3,,,,,,,,,2,,,40,0
97080,note_on,0,0,3,,,,,,,,,2,,,36,62
97140,note_on,60,0,1,,,,,,,,,0,,,68,0
97140,note_on,0,0,1,,,,,,,,,0,,,60,75
97200,note_on,60,0,1,,,,,,,,,0,,,60,0
97200,note_on,0,0,1,,,,,,,,,0,,,69,75
97200,note_on,120,0,3,,,,,,,,,2,,,36,0
97200,note_on,0,0,3,,,,,,,,,2,,,41,62
97260,note_on,60,0,1,,,,,,,,,0,,,69,0
97260,note_on,0,0,1,,,,,,,,,0,,,60,75
97320,note_on,0,0,1,,,,,,,,,0,,,70,75
97320,note_on,60,0,1,,,,,,,,,0,,,60,0
97320,note_on,0,0,3,,,,,,,,,2,,,43,62
97320,note_on,120,0,3,,,,,,,,,2,,,41,0
97380,note_on,60,0,1,,,,,,,,,0,,,70,0
97380,note_on,0,0,1,,,,,,,,,0,,,60,75
97440,note_on,0,0,3,,,,,,,,,2,,,45,62
97440,note_on,120,0,3,,,,,,,,,2,,,43,0
97440,note_on,60,0,1,,,,,,,,,0,,,60,0
97440,note_on,0,0,1,,,,,,,,,0,,,72,75
97500,note_on,60,0,1,,,,,,,,,0,,,72,0
97500,note_on,0,0,1,,,,,,,,,0,,,60,75
97560,note_on,120,0,3,,,,,,,,,2,,,45,0
97560,note_on,0,0,3,,,,,,,,,2,,,46,62
97560,note_on,60,0,1,,,,,,,,,0,,,60,0
97560,note_on,0,0,1,,,,,,,,,0,,,74,75
97620,note_on,60,0,1,,,,,,,,,0,,,74,0
97620,note_on,0,0,1,,,,,,,,,0,,,64,75
97680,note_on,60,0,1,,,,,,,,,0,,,64,0
97680,note_on,120,0,3,,,,,,,,,2,,,46,0
97680,note_on,0,0,3,,,,,,,,,2,,,45,62
97680,note_on,0,0,1,,,,,,,,,0,,,72,75
97740,note_on,0,0,1,,,,,,,,,0,,,65,75
97740,note_on,60,0,1,,,,,,,,,0,,,72,0
97800,note_on,0,0,1,,,,,,,,,0,,,70,75
97800,note_on,60,0,1,,,,,,,,,0,,,65,0
97800,note_on,0,0,3,,,,,,,,,2,,,49,62
97800,note_on,120,0,3,,,,,,,,,2,,,45,0
97860,note_on,60,0,1,,,,,,,,,0,,,70,0
97860,note_on,0,0,1,,,,,,,,,0,,,64,75
97920,note_on,0,0,3,,,,,,,,,2,,,50,62
97920,note_on,120,0,3,,,,,,,,,2,,,49,0
97920,note_on,0,0,1,,,,,,,,,0,,,69,75
97920,note_on,60,0,1,,,,,,,,,0,,,64,0
97980,note_on,60,0,1,,,,,,,,,0,,,69,0
97980,note_on,0,0,1,,,,,,,,,0,,,65,75
98040,note_on,120,0,3,,,,,,,,,2,,,50,0
98040,note_on,0,0,3,,,,,,,,,2,,,58,62
98040,note_on,60,0,1,,,,,,,,,0,,,65,0
98040,note_on,0,0,1,,,,,,,,,0,,,67,75
98100,note_on,0,0,1,,,,,,,,,0,,,62,75
98100,note_on,60,0,1,,,,,,,,,0,,,67,0
98160,note_on,60,0,1,,,,,,,,,0,,,62,0
98160,note_on,120,0,3,,,,,,,,,2,,,58,0
98160,note_on,0,0,3,,,,,,,,,2,,,57,62
98160,note_on,0,0,1,,,,,,,,,0,,,65,75
98220,note_on,0,0,1,,,,,,,,,0,,,62,75
98220,note_on,60,0,1,,,,,,,,,0,,,65,0
98280,note_on,0,0,1,,,,,,,,,0,,,67,75
98280,note_on,0,0,3,,,,,,,,,2,,,50,62
98280,note_on,0,0,3,,,,,,,,,2,,,46,62
98280,note_on,120,0,3,,,,,,,,,2,,,57,0
98280,note_on,60,0,1,,,,,,,,,0,,,62,0
98340,note_on,0,0,1,,,,,,,,,0,,,62,75
98340,note_on,60,0,1,,,,,,,,,0,,,67,0
98400,note_on,60,0,1,,,,,,,,,0,,,62,0
98400,note_on,3240,0,4,,,,,,,,,3,,,45,36
98400,note_on,0,0,3,,,,,,,,,2,,,53,62
98400,note_on,0,0,3,,,,,,,,,2,,,50,62
98400,note_on,0,0,3,,,,,,,,,2,,,46,0
98400,note_on,120,0,3,,,,,,,,,2,,,50,0
98400,note_on,0,0,1,,,,,,,,,0,,,69,75
98460,note_on,60,0,1,,,,,,,,,0,,,69,0
98460,note_on,0,0,1,,,,,,,,,0,,,57,75
98520,note_on,0,0,1,,,,,,,,,0,,,69,75
98520,note_on,60,0,1,,,,,,,,,0,,,57,0
98520,note_on,0,0,3,,,,,,,,,2,,,50,0
98520,note_on,120,0,3,,,,,,,,,2,,,53,0
98520,note_on,0,0,3,,,,,,,,,2,,,52,62
98520,note_on,0,0,3,,,,,,,,,2,,,49,62
98580,note_on,60,0,1,,,,,,,,,0,,,69,0
98580,note_on,0,0,1,,,,,,,,,0,,,70,75
98640,note_on,120,0,3,,,,,,,,,2,,,52,0
98640,note_on,60,0,1,,,,,,,,,0,,,70,0
98640,note_on,0,0,1,,,,,,,,,0,,,70,75
98640,note_on,0,0,3,,,,,,,,,2,,,49,0
98640,note_on,0,0,3,,,,,,,,,2,,,53,62
98640,note_on,240,0,4,,,,,,,,,3,,,45,0
98700,note_on,60,0,1,,,,,,,,,0,,,70,0
98700,note_on,0,0,1,,,,,,,,,0,,,69,75
98760,note_on,0,0,1,,,,,,,,,0,,,69,75
98760,note_on,120,0,3,,,,,,,,,2,,,53,0
98760,note_on,0,0,3,,,,,,,,,2,,,58,62
98760,note_on,60,0,1,,,,,,,,,0,,,69,0
98820,note_on,0,0,1,,,,,,,,,0,,,67,75
98820,note_on,60,0,1,,,,,,,,,0,,,69,0
98880,note_on,0,0,3,,,,,,,,,2,,,57,62
98880,note_on,60,0,1,,,,,,,,,0,,,67,0
98880,note_on,0,0,1,,,,,,,,,0,,,67,75
98880,note_on,120,0,3,,,,,,,,,2,,,58,0
98940,note_on,60,0,1,,,,,,,,,0,,,67,0
98940,note_on,0,0,1,,,,,,,,,0,,,65,75
99000,note_on,120,0,3,,,,,,,,,2,,,57,0
99000,note_on,0,0,1,,,,,,,,,0,,,65,75
99000,note_on,60,0,1,,,,,,,,,0,,,65,0
99000,note_on,0,0,3,,,,,,,,,2,,,55,62
99060,note_on,0,0,1,,,,,,,,,0,,,64,75
99060,note_on,60,0,1,,,,,,,,,0,,,65,0
99120,note_on,120,0,3,,,,,,,,,2,,,55,0
99120,control_change,0,0,3,,,,,,,,,2,64,127,,
99120,note_on,0,0,3,,,,,,,,,2,,,53,75
99120,note_on,0,0,1,,,,,,,,,0,,,64,88
99120,control_change,0,0,1,,,,,,,,,0,64,127,,
99120,note_on,60,0,1,,,,,,,,,0,,,64,0
99132,note_on,12,0,3,,,,,,,,,2,,,53,0
99180,note_on,0,0,1,,,,,,,,,0,,,62,49
99180,note_on,60,0,1,,,,,,,,,0,,,64,0
99240,note_on,0,0,1,,,,,,,,,0,,,61,49
99240,note_on,108,0,3,,,,,,,,,2,,,50,36
99240,note_on,60,0,1,,,,,,,,,0,,,62,0
99252,note_on,12,0,3,,,,,,,,,2,,,50,0
99300,note_on,60,0,1,,,,,,,,,0,,,61,0
99300,note_on,0,0,1,,,,,,,,,0,,,62,49
99360,note_on,60,0,1,,,,,,,,,0,,,62,0
99360,control_change,0,0,1,,,,,,,,,0,64,0,,
99360,note_on,0,0,1,,,,,,,,,0,,,67,88
99360,note_on,2400,0,2,,,,,,,,,1,,,65,88
99360,control_change,108,0,3,,,,,,,,,2,64,0,,
99360,note_on,0,0,3,,,,,,,,,2,,,48,75
99372,note_on,12,0,3,,,,,,,,,2,,,48,0
99420,note_on,60,0,2,,,,,,,,,1,,,65,0
99420,note_on,0,0,2,,,,,,,,,1,,,64,49
99480,note_on,60,0,2,,,,,,,,,1,,,64,0
99480,note_on,108,0,3,,,,,,,,,2,,,46,36
99480,note_on,0,0,2,,,,,,,,,1,,,62,49
99492,note_on,12,0,3,,,,,,,,,2,,,46,0
99540,note_on,0,0,2,,,,,,,,,1,,,64,49
99540,note_on,60,0,2,,,,,,,,,1,,,62,0
99600,note_on,0,0,2,,,,,,,,,1,,,67,49
99600,note_on,240,0,1,,,,,,,,,0,,,67,0
99600,control_change,0,0,2,,,,,,,,,1,64,127,,
99600,note_on,60,0,2,,,,,,,,,1,,,64,0
99600,control_change,108,0,3,,,,,,,,,2,64,127,,
99600,note_on,0,0,3,,,,,,,,,2,,,45,62
99600,note_on,0,0,1,,,,,,,,,0,,,69,88
99612,note_on,12,0,3,,,,,,,,,2,,,45,0
99660,note_on,60,0,1,,,,,,,,,0,,,69,0
99660,note_on,60,0,2,,,,,,,,,1,,,67,0
99660,note_on,0,0,2,,,,,,,,,1,,,65,49
99720,note_on,0,0,3,,,,,,,,,2,,,53,36
99720,note_on,0,0,2,,,,,,,,,1,,,64,49
99720,note_on,60,0,2,,,,,,,,,1,,,65,0
99720,note_on,108,0,3,,,,,,,,,2,,,41,36
99732,note_on,12,0,3,,,,,,,,,2,,,53,0
99732,note_on,0,0,3,,,,,,,,,2,,,41,0
99780,note_on,0,0,2,,,,,,,,,1,,,65,49
99780,note_on,60,0,2,,,,,,,,,1,,,64,0
99840,control_change,108,0,3,,,,,,,,,2,64,0,,
99840,note_on,0,0,3,,,,,,,,,2,,,40,67
99840,note_on,0,0,3,,,,,,,,,2,,,52,75
99840,note_on,180,0,1,,,,,,,,,0,,,71,62
99840,note_on,0,0,2,,,,,,,,,1,,,69,62
99840,control_change,0,0,2,,,,,,,,,1,64,0,,
99840,note_on,60,0,2,,,,,,,,,1,,,65,0
99852,note_on,12,0,3,,,,,,,,,2,,,52,0
99852,note_on,0,0,3,,,,,,,,,2,,,40,0
99900,note_on,60,0,2,,,,,,,,,1,,,69,0
99900,note_on,0,0,2,,,,,,,,,1,,,68,62
99960,note_on,60,0,2,,,,,,,,,1,,,68,0
99960,note_on,0,0,2,,,,,,,,,1,,,66,62
99960,note_on,0,0,3,,,,,,,,,2,,,50,49
99960,note_on,108,0,3,,,,,,,,,2,,,38,49
99972,note_on,0,0,3,,,,,,,,,2,,,38,0
99972,note_on,12,0,3,,,,,,,,,2,,,50,0
100020,note_on,60,0,2,,,,,,,,,1,,,66,0
100020,note_on,0,0,2,,,,,,,,,1,,,68,62
100080,control_change,108,0,3,,,,,,,,,2,64,127,,
100080,note_on,0,0,3,,,,,,,,,2,,,48,88
100080,note_on,0,0,1,,,,,,,,,0,,,72,75
100080,note_on,240,0,1,,,,,,,,,0,,,71,0
100080,note_on,60,0,2,,,,,,,,,1,,,68,0
100080,note_on,0,0,2,,,,,,,,,1,,,71,75
100080,control_change,0,0,2,,,,,,,,,1,64,127,,
100080,note_on,0,0,3,,,,,,,,,2,,,36,80
100092,note_on,12,0,3,,,,,,,,,2,,,48,0
100092,note_on,0,0,3,,,,,,,,,2,,,36,0
100140,note_on,60,0,1,,,,,,,,,0,,,72,0
100140,note_on,60,0,2,,,,,,,,,1,,,71,0
100140,note_on,0,0,2,,,,,,,,,1,,,69,75
100200,note_on,108,0,3,,,,,,,,,2,,,33,62
100200,note_on,0,0,3,,,,,,,,,2,,,45,62
100200,note_on,60,0,2,,,,,,,,,1,,,69,0
100200,note_on,0,0,2,,,,,,,,,1,,,68,75
100212,note_on,12,0,3,,,,,,,,,2,,,45,0
100212,note_on,0,0,3,,,,,,,,,2,,,33,0
100260,note_on,60,0,2,,,,,,,,,1,,,68,0
100260,note_on,0,0,2,,,,,,,,,1,,,69,75
100320,note_on,180,0,1,,,,,,,,,0,,,74,75
100320,note_on,0,0,3,,,,,,,,,2,,,43,88
100320,control_change,108,0,3,,,,,,,,,2,64,0,,
100320,note_on,0,0,3,,,,,,,,,2,,,31,80
100320,note_on,0,0,2,,,,,,,,,1,,,72,75
100320,note_on,60,0,2,,,,,,,,,1,,,69,0
100320,control_change,0,0,2,,,,,,,,,1,64,0,,
100332,note_on,12,0,3,,,,,,,,,2,,,43,0
100332,note_on,0,0,3,,,,,,,,,2,,,31,0
100380,note_on,60,0,2,,,,,,,,,1,,,72,0
100380,note_on,0,0,2,,,,,,,,,1,,,71,75
100440,note_on,0,0,3,,,,,,,,,2,,,41,62
100440,note_on,60,0,2,,,,,,,,,1,,,71,0
100440,note_on,0,0,2,,,,,,,,,1,,,69,75
100440,note_on,108,0,3,,,,,,,,,2,,,29,62
100452,note_on,12,0,3,,,,,,,,,2,,,41,0
100452,note_on,0,0,3,,,,,,,,,2,,,29,0
100500,note_on,60,0,2,,,,,,,,,1,,,69,0
100500,note_on,0,0,2,,,,,,,,,1,,,71,75
100560,note_on,240,0,1,,,,,,,,,0,,,74,0
100560,note_on,0,0,1,,,,,,,,,0,,,68,75
100560,note_on,0,0,3,,,,,,,,,2,,,40,62
100560,note_on,108,0,3,,,,,,,,,2,,,28,62
100560,note_on,60,0,2,,,,,,,,,1,,,71,0
100572,note_on,0,0,3,,,,,,,,,2,,,28,0
100572,note_on,12,0,3,,,,,,,,,2,,,40,0
100620,note_on,60,0,1,,,,,,,,,0,,,68,0
100620,note_on,0,0,1,,,,,,,,,0,,,76,75
100680,note_on,60,0,1,,,,,,,,,0,,,76,0
100680,note_on,0,0,1,,,,,,,,,0,,,69,75
100680,note_on,108,0,3,,,,,,,,,2,,,26,62
100680,note_on,0,0,3,,,,,,,,,2,,,38,62
100692,note_on,12,0,3,,,,,,,,,2,,,38,0
100692,note_on,0,0,3,,,,,,,,,2,,,26,0
100740,note_on,60,0,1,,,,,,,,,0,,,69,0
100740,note_on,0,0,1,,,,,,,,,0,,,77,75
100800,note_on,0,0,3,,,,,,,,,2,,,40,75
100800,note_on,60,0,1,,,,,,,,,0,,,77,0
100800,note_on,0,0,1,,,,,,,,,0,,,69,88
100800,note_on,108,0,3,,,,,,,,,2,,,28,75
100812,note_on,0,0,3,,,,,,,,,2,,,28,0
100812,note_on,12,0,3,,,,,,,,,2,,,40,0
100860,note_on,60,0,1,,,,,,,,,0,,,69,0
100860,note_on,0,0,1,,,,,,,,,0,,,72,88
100920,note_on,108,0,3,,,,,,,,,2,,,28,75
100920,note_on,0,0,3,,,,,,,,,2,,,40,75
100920,note_on,60,0,1,,,,,,,,,0,,,72,0
100920,note_on,0,0,1,,,,,,,,,0,,,68,88
100932,note_on,12,0,3,,,,,,,,,2,,,40,0
100932,note_on,0,0,3,,,,,,,,,2,,,28,0
100980,note_on,60,0,1,,,,,,,,,0,,,68,0
100980,note_on,0,0,1,,,,,,,,,0,,,71,88
101040,note_on,60,0,1,,,,,,,,,0,,,71,0
101040,note_on,0,0,1,,,,,,,,,0,,,69,114
101040,note_on,108,0,3,,,,,,,,,2,,,47,88
101100,note_on,60,0,3,,,,,,,,,2,,,47,0
101100,note_on,0,0,3,,,,,,,,,2,,,45,88
101160,note_on,120,0,1,,,,,,,,,0,,,69,0
101160,note_on,60,0,3,,,,,,,,,2,,,45,0
101160,note_on,0,0,3,,,,,,,,,2,,,44,88
101160,note_on,0,0,1,,,,,,,,,0,,,81,88
101160,note_on,0,0,1,,,,,,,,,0,,,93,88
101172,note_on,12,0,1,,,,,,,,,0,,,93,0
101172,note_on,0,0,1,,,,,,,,,0,,,81,0
101220,note_on,60,0,3,,,,,,,,,2,,,44,0
101220,note_on,0,0,3,,,,,,,,,2,,,45,88
101280,note_on,60,0,3,,,,,,,,,2,,,45,0
101280,note_on,0,0,1,,,,,,,,,0,,,91,114
101280,note_on,108,0,1,,,,,,,,,0,,,79,106
101280,note_on,0,0,3,,,,,,,,,2,,,48,88
101292,note_on,12,0,1,,,,,,,,,0,,,91,0
101292,note_on,0,0,1,,,,,,,,,0,,,79,0
101340,note_on,0,0,3,,,,,,,,,2,,,47,88
101340,note_on,60,0,3,,,,,,,,,2,,,48,0
101400,note_on,108,0,1,,,,,,,,,0,,,77,88
101400,note_on,0,0,3,,,,,,,,,2,,,45,88
101400,note_on,60,0,3,,,,,,,,,2,,,47,0
101400,note_on,0,0,1,,,,,,,,,0,,,89,88
101412,note_on,12,0,1,,,,,,,,,0,,,89,0
101412,note_on,0,0,1,,,,,,,,,0,,,77,0
101460,note_on,0,0,3,,,,,,,,,2,,,47,88
101460,note_on,60,0,3,,,,,,,,,2,,,45,0
101520,note_on,108,0,1,,,,,,,,,0,,,76,106
101520,note_on,60,0,3,,,,,,,,,2,,,47,0
101520,note_on,0,0,1,,,,,,,,,0,,,88,114
101520,note_on,0,0,3,,,,,,,,,2,,,50,88
101532,note_on,12,0,1,,,,,,,,,0,,,88,0
101532,note_on,0,0,1,,,,,,,,,0,,,76,0
101580,note_on,60,0,3,,,,,,,,,2,,,50,0
101580,note_on,0,0,3,,,,,,,,,2,,,48,88
101640,note_on,0,0,3,,,,,,,,,2,,,47,88
101640,note_on,0,0,1,,,,,,,,,0,,,84,88
101640,note_on,108,0,1,,,,,,,,,0,,,72,88
101640,note_on,60,0,3,,,,,,,,,2,,,48,0
101652,note_on,0,0,1,,,,,,,,,0,,,72,0
101652,note_on,12,0,1,,,,,,,,,0,,,84,0
101700,note_on,0,0,3,,,,,,,,,2,,,48,88
101700,note_on,60,0,3,,,,,,,,,2,,,47,0
101760,note_on,108,0,1,,,,,,,,,0,,,71,106
101760,note_on,0,0,3,,,,,,,,,2,,,52,88
101760,note_on,0,0,1,,,,,,,,,0,,,83,114
101760,note_on,60,0,3,,,,,,,,,2,,,48,0
101772,note_on,12,0,1,,,,,,,,,0,,,83,0
101772,note_on,0,0,1,,,,,,,,,0,,,71,0
101820,note_on,60,0,3,,,,,,,,,2,,,52,0
101820,note_on,0,0,3,,,,,,,,,2,,,51,88
101880,note_on,108,0,1,,,,,,,,,0,,,69,88
101880,note_on,60,0,3,,,,,,,,,2,,,51,0
101880,note_on,0,0,3,,,,,,,,,2,,,49,88
101880,note_on,0,0,1,,,,,,,,,0,,,81,88
101892,note_on,12,0,1,,,,,,,,,0,,,81,0
101892,note_on,0,0,1,,,,,,,,,0,,,69,0
101940,note_on,60,0,3,,,,,,,,,2,,,49,0
101940,note_on,0,0,3,,,,,,,,,2,,,51,88
102000,note_on,108,0,1,,,,,,,,,0,,,67,88
102000,note_on,0,0,1,,,,,,,,,0,,,79,88
102000,note_on,60,0,3,,,,,,,,,2,,,51,0
102000,note_on,0,0,3,,,,,,,,,2,,,54,88
102012,note_on,12,0,1,,,,,,,,,0,,,79,0
102012,note_on,0,0,1,,,,,,,,,0,,,67,0
102060,note_on,0,0,3,,,,,,,,,2,,,52,88
102060,note_on,60,0,3,,,,,,,,,2,,,54,0
102120,note_on,0,0,3,,,,,,,,,2,,,51,88
102120,note_on,60,0,3,,,,,,,,,2,,,52,0
102120,note_on,0,0,1,,,,,,,,,0,,,88,88
102120,note_on,108,0,1,,,,,,,,,0,,,76,88
102132,note_on,0,0,1,,,,,,,,,0,,,76,0
102132,note_on,12,0,1,,,,,,,,,0,,,88,0
102180,note_on,0,0,3,,,,,,,,,2,,,52,88
102180,note_on,60,0,3,,,,,,,,,2,,,51,0
102240,note_on,0,0,3,,,,,,,,,2,,,55,88
102240,note_on,0,0,1,,,,,,,,,0,,,86,88
102240,note_on,108,0,1,,,,,,,,,0,,,74,88
102240,note_on,60,0,3,,,,,,,,,2,,,52,0
102252,note_on,12,0,1,,,,,,,,,0,,,86,0
102252,note_on,0,0,1,,,,,,,,,0,,,74,0
102300,note_on,60,0,3,,,,,,,,,2,,,55,0
102300,note_on,0,0,3,,,,,,,,,2,,,54,88
102360,note_on,60,0,3,,,,,,,,,2,,,54,0
102360,note_on,0,0,1,,,,,,,,,0,,,84,88
102360,note_on,108,0,1,,,,,,,,,0,,,72,88
102360,note_on,0,0,3,,,,,,,,,2,,,52,88
102372,note_on,0,0,1,,,,,,,,,0,,,72,0
102372,note_on,12,0,1,,,,,,,,,0,,,84,0
102420,note_on,60,0,3,,,,,,,,,2,,,52,0
102420,note_on,0,0,3,,,,,,,,,2,,,54,88
102480,note_on,108,0,1,,,,,,,,,0,,,71,88
102480,note_on,0,0,1,,,,,,,,,0,,,83,88
102480,note_on,0,0,3,,,,,,,,,2,,,55,88
102480,note_on,60,0,3,,,,,,,,,2,,,54,0
102492,note_on,0,0,1,,,,,,,,,0,,,71,0
102492,note_on,12,0,1,,,,,,,,,0,,,83,0
102540,note_on,0,0,3,,,,,,,,,2,,,59,88
102540,note_on,60,0,3,,,,,,,,,2,,,55,0
102600,note_on,60,0,3,,,,,,,,,2,,,59,0
102600,note_on,0,0,3,,,,,,,,,2,,,50,88
102600,note_on,108,0,1,,,,,,,,,0,,,77,88
102600,note_on,0,0,1,,,,,,,,,0,,,83,88
102600,note_on,0,0,1,,,,,,,,,0,,,86,88
102612,note_on,12,0,1,,,,,,,,,0,,,86,0
102612,note_on,0,0,1,,,,,,,,,0,,,83,0
102612,note_on,0,0,1,,,,,,,,,0,,,77,0
102660,note_on,60,0,3,,,,,,,,,2,,,50,0
102660,note_on,0,0,3,,,,,,,,,2,,,59,88
102720,note_on,60,0,3,,,,,,,,,2,,,59,0
102720,note_on,0,0,3,,,,,,,,,2,,,52,88
102720,note_on,0,0,1,,,,,,,,,0,,,81,88
102720,note_on,0,0,1,,,,,,,,,0,,,84,88
102720,note_on,108,0,1,,,,,,,,,0,,,76,88
102732,note_on,0,0,1,,,,,,,,,0,,,81,0
102732,note_on,12,0,1,,,,,,,,,0,,,84,0
102732,note_on,0,0,1,,,,,,,,,0,,,76,0
102780,note_on,0,0,3,,,,,,,,,2,,,60,88
102780,note_on,60,0,3,,,,,,,,,2,,,52,0
102840,note_on,0,0,1,,,,,,,,,0,,,83,88
102840,note_on,0,0,1,,,,,,,,,0,,,80,88
102840,note_on,108,0,1,,,,,,,,,0,,,76,88
102840,note_on,60,0,3,,,,,,,,,2,,,60,0
102840,note_on,0,0,3,,,,,,,,,2,,,52,88
102852,note_on,0,0,1,,,,,,,,,0,,,76,0
102852,note_on,0,0,1,,,,,,,,,0,,,80,0
102852,note_on,12,0,1,,,,,,,,,0,,,83,0
102900,note_on,0,0,3,,,,,,,,,2,,,64,88
102900,note_on,60,0,3,,,,,,,,,2,,,52,0
102960,control_change,108,0,1,,,,,,,,,0,64,127,,
102960,note_on,60,0,3,,,,,,,,,2,,,64,0
102960,note_on,0,0,1,,,,,,,,,0,,,69,101
102960,control_change,0,0,3,,,,,,,,,2,64,127,,
102960,note_on,0,0,3,,,,,,,,,2,,,45,88
102960,note_on,0,0,3,,,,,,,,,2,,,57,88
102960,note_on,0,0,1,,,,,,,,,0,,,81,101
103080,note_on,0,0,3,,,,,,,,,2,,,45,0
103080,note_on,0,0,1,,,,,,,,,0,,,69,101
103080,note_on,120,0,3,,,,,,,,,2,,,57,0
103080,note_on,0,0,3,,,,,,,,,2,,,45,88
103080,note_on,0,0,1,,,,,,,,,0,,,69,0
103080,note_on,120,0,1,,,,,,,,,0,,,81,0
103140,note_on,0,0,3,,,,,,,,,2,,,45,88
103140,note_on,0,0,1,,,,,,,,,0,,,69,101
103140,note_on,60,0,1,,,,,,,,,0,,,69,0
103140,note_on,60,0,3,,,,,,,,,2,,,45,0
103200,note_on,60,0,3,,,,,,,,,2,,,45,0
103200,note_on,0,0,3,,,,,,,,,2,,,45,114
103200,note_on,0,0,1,,,,,,,,,0,,,69,127
103200,note_on,60,0,1,,,,,,,,,0,,,69,0
103206,note_on,6,0,3,,,,,,,,,2,,,45,0
103206,note_on,6,0,1,,,,,,,,,0,,,69,0
103260,note_on,54,0,1,,,,,,,,,0,,,72,101
103260,note_on,54,0,3,,,,,,,,,2,,,48,88
103320,note_on,0,0,3,,,,,,,,,2,,,47,88
103320,note_on,60,0,3,,,,,,,,,2,,,48,0
103320,note_on,60,0,1,,,,,,,,,0,,,72,0
103320,note_on,0,0,1,,,,,,,,,0,,,71,101
103380,note_on,0,0,3,,,,,,,,,2,,,45,88
103380,note_on,60,0,1,,,,,,,,,0,,,71,0
103380,note_on,60,0,3,,,,,,,,,2,,,47,0
103380,note_on,0,0,1,,,,,,,,,0,,,69,101
103440,note_on,0,0,3,,,,,,,,,2,,,52,101
103440,note_on,60,0,3,,,,,,,,,2,,,45,0
103440,note_on,0,0,1,,,,,,,,,0,,,76,114
103440,note_on,60,0,1,,,,,,,,,0,,,69,0
103452,note_on,12,0,1,,,,,,,,,0,,,76,0
103452,note_on,12,0,3,,,,,,,,,2,,,52,0
103560,control_change,108,0,3,,,,,,,,,2,64,0,,
103560,note_on,0,0,3,,,,,,,,,2,,,41,101
103560,note_on,0,0,1,,,,,,,,,0,,,77,114
103560,note_on,0,0,3,,,,,,,,,2,,,53,101
103560,control_change,108,0,1,,,,,,,,,0,64,0,,
103560,note_on,0,0,1,,,,,,,,,0,,,65,114
103572,note_on,12,0,3,,,,,,,,,2,,,53,0
103572,note_on,0,0,3,,,,,,,,,2,,,41,0
103572,note_on,0,0,1,,,,,,,,,0,,,65,0
103572,note_on,12,0,1,,,,,,,,,0,,,77,0
103680,note_on,0,0,3,,,,,,,,,2,,,52,101
103680,note_on,108,0,3,,,,,,,,,2,,,40,101
103680,note_on,0,0,1,,,,,,,,,0,,,76,114
103680,note_on,108,0,1,,,,,,,,,0,,,64,114
103920,note_on,240,0,1,,,,,,,,,0,,,76,0
103920,note_on,0,0,1,,,,,,,,,0,,,64,0
103920,note_on,0,0,1,,,,,,,,,0,,,88,49
103920,note_on,0,0,3,,,,,,,,,2,,,68,49
103920,note_on,240,0,3,,,,,,,,,2,,,52,0
103920,note_on,0,0,3,,,,,,,,,2,,,40,0
103980,note_on,60,0,1,,,,,,,,,0,,,88,0
103980,note_on,0,0,1,,,,,,,,,0,,,89,49
104040,note_on,60,0,1,,,,,,,,,0,,,89,0
104040,note_on,0,0,1,,,,,,,,,0,,,86,49
104040,note_on,0,0,3,,,,,,,,,2,,,77,49
104040,note_on,120,0,3,,,,,,,,,2,,,68,0
104100,note_on,60,0,1,,,,,,,,,0,,,86,0
104100,note_on,0,0,1,,,,,,,,,0,,,88,49
104160,note_on,120,0,3,,,,,,,,,2,,,77,0
104160,note_on,60,0,1,,,,,,,,,0,,,88,0
104160,note_on,0,0,3,,,,,,,,,2,,,76,49
104160,note_on,0,0,1,,,,,,,,,0,,,84,49
104220,note_on,60,0,1,,,,,,,,,0,,,84,0
104220,note_on,0,0,1,,,,,,,,,0,,,86,49
104280,note_on,60,0,1,,,,,,,,,0,,,86,0
104280,note_on,0,0,1,,,,,,,,,0,,,83,49
104280,note_on,120,0,3,,,,,,,,,2,,,76,0
104280,note_on,0,0,3,,,,,,,,,2,,,74,49
104340,note_on,60,0,1,,,,,,,,,0,,,83,0
104340,note_on,0,0,1,,,,,,,,,0,,,84,49
104400,note_on,60,0,1,,,,,,,,,0,,,84,0
104400,note_on,0,0,1,,,,,,,,,0,,,83,49
104400,note_on,120,0,3,,,,,,,,,2,,,74,0
104400,note_on,0,0,3,,,,,,,,,2,,,72,49
104460,note_on,60,0,1,,,,,,,,,0,,,83,0
104460,note_on,0,0,1,,,,,,,,,0,,,81,49
104520,note_on,5880,0,4,,,,,,,,,3,,,69,49
104520,note_on,0,0,1,,,,,,,,,0,,,76,49
104520,note_on,60,0,1,,,,,,,,,0,,,81,0
104580,note_on,0,0,1,,,,,,,,,0,,,81,49
104580,note_on,60,0,1,,,,,,,,,0,,,76,0
104640,note_on,240,0,3,,,,,,,,,2,,,72,0
104640,note_on,0,0,4,,,,,,,,,3,,,68,49
104640,note_on,0,0,3,,,,,,,,,2,,,74,49
104640,note_on,120,0,4,,,,,,,,,3,,,69,0
104640,note_on,60,0,1,,,,,,,,,0,,,81,0
104640,note_on,0,0,1,,,,,,,,,0,,,84,49
104700,note_on,60,0,1,,,,,,,,,0,,,84,0
104700,note_on,0,0,1,,,,,,,,,0,,,83,49
104760,note_on,120,0,4,,,,,,,,,3,,,68,0
104760,note_on,0,0,4,,,,,,,,,3,,,64,49
104760,note_on,60,0,1,,,,,,,,,0,,,83,0
104760,note_on,0,0,1,,,,,,,,,0,,,76,49
104820,note_on,0,0,1,,,,,,,,,0,,,83,49
104820,note_on,60,0,1,,,,,,,,,0,,,76,0
104880,note_on,0,0,3,,,,,,,,,2,,,72,49
104880,note_on,240,0,3,,,,,,,,,2,,,74,0
104880,note_on,0,0,1,,,,,,,,,0,,,80,49
104880,note_on,120,0,4,,,,,,,,,3,,,64,0
104880,note_on,60,0,1,,,,,,,,,0,,,83,0
104940,note_on,0,0,1,,,,,,,,,0,,,81,49
104940,note_on,60,0,1,,,,,,,,,0,,,80,0
105000,note_on,120,0,4,,,,,,,,,3,,,69,49
105000,note_on,0,0,1,,,,,,,,,0,,,76,49
105000,note_on,60,0,1,,,,,,,,,0,,,81,0
105060,note_on,0,0,1,,,,,,,,,0,,,81,49
105060,note_on,60,0,1,,,,,,,,,0,,,76,0
105120,note_on,0,0,4,,,,,,,,,3,,,68,49
105120,note_on,0,0,3,,,,,,,,,2,,,74,49
105120,note_on,120,0,4,,,,,,,,,3,,,69,0
105120,note_on,240,0,3,,,,,,,,,2,,,72,0
105120,note_on,60,0,1,,,,,,,,,0,,,81,0
105120,note_on,0,0,1,,,,,,,,,0,,,84,49
105180,note_on,60,0,1,,,,,,,,,0,,,84,0
105180,note_on,0,0,1,,,,,,,,,0,,,83,49
105240,note_on,60,0,1,,,,,,,,,0,,,83,0
105240,note_on,0,0,1,,,,,,,,,0,,,76,49
105240,note_on,120,0,4,,,,,,,,,3,,,68,0
105240,note_on,0,0,4,,,,,,,,,3,,,64,49
105300,note_on,60,0,1,,,,,,,,,0,,,76,0
105300,note_on,0,0,1,,,,,,,,,0,,,83,49
105360,note_on,0,0,3,,,,,,,,,2,,,45,75
105360,note_on,0,0,1,,,,,,,,,0,,,81,88
105360,note_on,60,0,1,,,,,,,,,0,,,83,0
105360,note_on,0,0,3,,,,,,,,,2,,,57,75
105360,control_change,0,0,1,,,,,,,,,0,64,127,,
105360,control_change,0,0,3,,,,,,,,,2,64,127,,
105360,note_on,240,0,3,,,,,,,,,2,,,74,0
105360,note_on,120,0,4,,,,,,,,,3,,,64,0
105360,note_on,0,0,1,,,,,,,,,0,,,69,88
105480,note_on,120,0,3,,,,,,,,,2,,,57,0
105480,note_on,0,0,3,,,,,,,,,2,,,45,0
105480,note_on,0,0,3,,,,,,,,,2,,,45,75
105480,note_on,0,0,1,,,,,,,,,0,,,69,88
105480,note_on,0,0,1,,,,,,,,,0,,,69,0
105480,note_on,120,0,1,,,,,,,,,0,,,81,0
105540,note_on,0,0,1,,,,,,,,,0,,,69,88
105540,note_on,60,0,1,,,,,,,,,0,,,69,0
105540,note_on,60,0,3,,,,,,,,,2,,,45,0
105540,note_on,0,0,3,,,,,,,,,2,,,45,75
105600,note_on,60,0,1,,,,,,,,,0,,,69,0
105600,note_on,60,0,3,,,,,,,,,2,,,45,0
105600,note_on,0,0,3,,,,,,,,,2,,,45,101
105600,note_on,0,0,1,,,,,,,,,0,,,69,114
105606,note_on,6,0,1,,,,,,,,,0,,,69,0
105606,note_on,6,0,3,,,,,,,,,2,,,45,0
105660,note_on,54,0,1,,,,,,,,,0,,,72,88
105660,note_on,54,0,3,,,,,,,,,2,,,48,75
105720,note_on,60,0,3,,,,,,,,,2,,,48,0
105720,control_change,0,0,3,,,,,,,,,2,64,0,,
105720,note_on,0,0,3,,,,,,,,,2,,,47,75
105720,note_on,60,0,1,,,,,,,,,0,,,72,0
105720,note_on,0,0,1,,,,,,,,,0,,,71,88
105720,control_change,0,0,1,,,,,,,,,0,64,0,,
105780,note_on,60,0,3,,,,,,,,,2,,,47,0
105780,note_on,0,0,3,,,,,,,,,2,,,45,75
105780,note_on,0,0,1,,,,,,,,,0,,,69,88
105780,note_on,60,0,1,,,,,,,,,0,,,71,0
105840,note_on,60,0,1,,,,,,,,,0,,,69,0
105840,note_on,60,0,3,,,,,,,,,2,,,45,0
105840,note_on,0,0,1,,,,,,,,,0,,,76,114
105840,note_on,0,0,3,,,,,,,,,2,,,52,101
105852,note_on,12,0,3,,,,,,,,,2,,,52,0
105852,note_on,12,0,1,,,,,,,,,0,,,76,0
105960,control_change,108,0,1,,,,,,,,,0,64,0,,
105960,note_on,0,0,3,,,,,,,,,2,,,41,101
105960,note_on,0,0,3,,,,,,,,,2,,,53,101
105960,note_on,0,0,1,,,,,,,,,0,,,81,114
105960,note_on,0,0,1,,,,,,,,,0,,,75,114
105960,note_on,0,0,1,,,,,,,,,0,,,69,114
105960,control_change,108,0,3,,,,,,,,,2,64,0,,
105972,note_on,0,0,1,,,,,,,,,0,,,69,0
105972,note_on,0,0,1,,,,,,,,,0,,,75,0
105972,note_on,12,0,1,,,,,,,,,0,,,81,0
105972,note_on,0,0,3,,,,,,,,,2,,,41,0
105972,note_on,12,0,3,,,,,,,,,2,,,53,0
106080,note_on,0,0,1,,,,,,,,,0,,,76,114
106080,note_on,108,0,1,,,,,,,,,0,,,64,114
106080,note_on,108,0,3,,,,,,,,,2,,,40,101
106080,note_on,0,0,3,,,,,,,,,2,,,52,101
106320,note_on,0,0,1,,,,,,,,,0,,,64,0
106320,note_on,240,0,1,,,,,,,,,0,,,76,0
106320,note_on,240,0,3,,,,,,,,,2,,,52,0
106320,note_on,0,0,3,,,,,,,,,2,,,40,0
106320,note_on,0,0,3,,,,,,,,,2,,,68,49
106320,note_on,0,0,1,,,,,,,,,0,,,88,49
106380,note_on,60,0,1,,,,,,,,,0,,,88,0
106380,note_on,0,0,1,,,,,,,,,0,,,90,49
106440,note_on,60,0,1,,,,,,,,,0,,,90,0
106440,note_on,0,0,3,,,,,,,,,2,,,78,49
106440,note_on,120,0,3,,,,,,,,,2,,,68,0
106440,note_on,0,0,1,,,,,,,,,0,,,86,49
106500,note_on,60,0,1,,,,,,,,,0,,,86,0
106500,note_on,0,0,1,,,,,,,,,0,,,88,49
106560,note_on,0,0,3,,,,,,,,,2,,,76,49
106560,note_on,120,0,3,,,,,,,,,2,,,78,0
106560,note_on,0,0,1,,,,,,,,,0,,,85,49
106560,note_on,60,0,1,,,,,,,,,0,,,88,0
106620,note_on,0,0,1,,,,,,,,,0,,,86,49
106620,note_on,60,0,1,,,,,,,,,0,,,85,0
106680,note_on,60,0,1,,,,,,,,,0,,,86,0
106680,note_on,0,0,3,,,,,,,,,2,,,74,49
106680,note_on,120,0,3,,,,,,,,,2,,,76,0
106680,note_on,0,0,1,,,,,,,,,0,,,83,49
106740,note_on,60,0,1,,,,,,,,,0,,,83,0
106740,note_on,0,0,1,,,,,,,,,0,,,85,49
106800,note_on,0,0,1,,,,,,,,,0,,,83,49
106800,control_change,0,0,1,,,,,,,,,0,64,127,,
106800,note_on,60,0,1,,,,,,,,,0,,,85,0
106800,note_on,0,0,3,,,,,,,,,2,,,73,49
106800,control_change,0,0,3,,,,,,,,,2,64,127,,
106800,note_on,120,0,3,,,,,,,,,2,,,74,0
106800,control_change,1440,0,4,,,,,,,,,3,64,127,,
106860,note_on,60,0,1,,,,,,,,,0,,,83,0
106860,note_on,0,0,1,,,,,,,,,0,,,81,49
106920,note_on,60,0,1,,,,,,,,,0,,,81,0
106920,note_on,0,0,1,,,,,,,,,0,,,76,49
106920,note_on,120,0,4,,,,,,,,,3,,,69,49
106980,note_on,0,0,1,,,,,,,,,0,,,81,49
106980,note_on,60,0,1,,,,,,,,,0,,,76,0
107040,control_change,0,0,1,,,,,,,,,0,64,0,,
107040,note_on,0,0,3,,,,,,,,,2,,,74,49
107040,note_on,60,0,1,,,,,,,,,0,,,81,0
107040,note_on,0,0,4,,,,,,,,,3,,,68,49
107040,control_change,0,0,4,,,,,,,,,3,64,0,,
107040,control_change,0,0,3,,,,,,,,,2,64,0,,
107040,note_on,240,0,3,,,,,,,,,2,,,73,0
107040,note_on,120,0,4,,,,,,,,,3,,,69,0
107040,note_on,0,0,1,,,,,,,,,0,,,85,49
107100,note_on,60,0,1,,,,,,,,,0,,,85,0
107100,note_on,0,0,1,,,,,,,,,0,,,83,49
107160,note_on,0,0,4,,,,,,,,,3,,,64,49
107160,note_on,0,0,1,,,,,,,,,0,,,76,49
107160,note_on,60,0,1,,,,,,,,,0,,,83,0
107160,note_on,120,0,4,,,,,,,,,3,,,68,0
107220,note_on,0,0,1,,,,,,,,,0,,,83,49
107220,note_on,60,0,1,,,,,,,,,0,,,76,0
107280,control_change,0,0,3,,,,,,,,,2,64,127,,
107280,note_on,240,0,3,,,,,,,,,2,,,74,0
107280,note_on,120,0,4,,,,,,,,,3,,,64,0
107280,control_change,0,0,4,,,,,,,,,3,64,127,,
107280,note_on,60,0,1,,,,,,,,,0,,,83,0
107280,note_on,0,0,3,,,,,,,,,2,,,73,49
107280,control_change,0,0,1,,,,,,,,,0,64,127,,
107280,note_on,0,0,1,,,,,,,,,0,,,80,49
107340,note_on,60,0,1,,,,,,,,,0,,,80,0
107340,note_on,0,0,1,,,,,,,,,0,,,81,49
107400,note_on,60,0,1,,,,,,,,,0,,,81,0
107400,note_on,0,0,1,,,,,,,,,0,,,76,49
107400,note_on,120,0,4,,,,,,,,,3,,,69,49
107460,note_on,0,0,1,,,,,,,,,0,,,81,49
107460,note_on,60,0,1,,,,,,,,,0,,,76,0
107520,control_change,0,0,1,,,,,,,,,0,64,0,,
107520,note_on,0,0,1,,,,,,,,,0,,,85,49
107520,note_on,120,0,4,,,,,,,,,3,,,69,0
107520,note_on,0,0,3,,,,,,,,,2,,,74,49
107520,control_change,0,0,3,,,,,,,,,2,64,0,,
107520,note_on,240,0,3,,,,,,,,,2,,,73,0
107520,note_on,0,0,4,,,,,,,,,3,,,68,49
107520,control_change,0,0,4,,,,,,,,,3,64,0,,
107520,note_on,60,0,1,,,,,,,,,0,,,81,0
107580,note_on,60,0,1,,,,,,,,,0,,,85,0
107580,note_on,0,0,1,,,,,,,,,0,,,83,49
107640,note_on,0,0,4,,,,,,,,,3,,,64,49
107640,note_on,60,0,1,,,,,,,,,0,,,83,0
107640,note_on,120,0,4,,,,,,,,,3,,,68,0
107640,note_on,0,0,1,,,,,,,,,0,,,76,49
107700,note_on,0,0,1,,,,,,,,,0,,,83,49
107700,note_on,60,0,1,,,,,,,,,0,,,76,0
107760,note_on,240,0,3,,,,,,,,,2,,,74,0
107760,note_on,0,0,3,,,,,,,,,2,,,45,75
107760,note_on,0,0,1,,,,,,,,,0,,,57,88
107760,note_on,60,0,1,,,,,,,,,0,,,83,0
107760,note_on,120,0,4,,,,,,,,,3,,,64,0
107784,note_on,24,0,3,,,,,,,,,2,,,45,0
107784,note_on,0,0,1,,,,,,,,,0,,,59,88
107784,note_on,24,0,1,,,,,,,,,0,,,57,0
107784,note_on,0,0,3,,,,,,,,,2,,,47,75
107808,note_on,0,0,1,,,,,,,,,0,,,57,88
107808,note_on,24,0,3,,,,,,,,,2,,,47,0
107808,note_on,0,0,3,,,,,,,,,2,,,45,75
107808,note_on,24,0,1,,,,,,,,,0,,,59,0
107831,note_on,23,0,1,,,,,,,,,0,,,59,88
107831,note_on,23,0,3,,,,,,,,,2,,,47,75
107832,note_on,1,0,1,,,,,,,,,0,,,57,0
107832,note_on,1,0,3,,,,,,,,,2,,,45,0
107855,note_on,23,0,3,,,,,,,,,2,,,47,0
107855,note_on,0,0,3,,,,,,,,,2,,,45,75
107855,note_on,0,0,1,,,,,,,,,0,,,57,88
107855,note_on,23,0,1,,,,,,,,,0,,,59,0
107879,note_on,24,0,3,,,,,,,,,2,,,45,0
107879,note_on,24,0,1,,,,,,,,,0,,,57,0
107880,note_on,1,0,3,,,,,,,,,2,,,44,75
107880,note_on,1,0,1,,,,,,,,,0,,,56,88
107940,note_on,60,0,3,,,,,,,,,2,,,44,0
107940,note_on,0,0,3,,,,,,,,,2,,,42,75
107940,note_on,0,0,1,,,,,,,,,0,,,54,88
107940,note_on,60,0,1,,,,,,,,,0,,,56,0
108000,note_on,0,0,1,,,,,,,,,0,,,52,88
108000,note_on,60,0,1,,,,,,,,,0,,,54,0
108000,note_on,0,0,3,,,,,,,,,2,,,40,75
108000,note_on,60,0,3,,,,,,,,,2,,,42,0
108060,note_on,0,0,1,,,,,,,,,0,,,69,49
108060,note_on,60,0,3,,,,,,,,,2,,,40,0
108060,note_on,60,0,1,,,,,,,,,0,,,52,0
108120,note_on,0,0,3,,,,,,,,,2,,,57,36
108120,note_on,60,0,3,,,,,,,,,2,,,49,36
108120,note_on,0,0,1,,,,,,,,,0,,,64,49
108120,note_on,60,0,1,,,,,,,,,0,,,69,0
108180,note_on,0,0,1,,,,,,,,,0,,,73,49
108180,note_on,60,0,1,,,,,,,,,0,,,64,0
108240,control_change,0,0,3,,,,,,,,,2,64,127,,
108240,note_on,60,0,1,,,,,,,,,0,,,73,0
108240,control_change,0,0,1,,,,,,,,,0,64,127,,
108240,note_on,0,0,1,,,,,,,,,0,,,66,49
108240,note_on,120,0,3,,,,,,,,,2,,,57,0
108240,note_on,0,0,3,,,,,,,,,2,,,49,0
108240,note_on,480,0,4,,,,,,,,,3,,,50,36
108240,note_on,0,0,3,,,,,,,,,2,,,54,36
108300,note_on,60,0,1,,,,,,,,,0,,,66,0
108300,note_on,0,0,1,,,,,,,,,0,,,71,49
108360,note_on,0,0,3,,,,,,,,,2,,,59,36
108360,note_on,120,0,3,,,,,,,,,2,,,54,0
108360,note_on,60,0,1,,,,,,,,,0,,,71,0
108360,note_on,0,0,1,,,,,,,,,0,,,66,49
108420,note_on,60,0,1,,,,,,,,,0,,,66,0
108420,note_on,0,0,1,,,,,,,,,0,,,78,49
108480,note_on,60,0,1,,,,,,,,,0,,,78,0
108480,control_change,0,0,3,,,,,,,,,2,64,0,,
108480,note_on,120,0,3,,,,,,,,,2,,,59,0
108480,control_change,0,0,1,,,,,,,,,0,64,0,,
108480,note_on,240,0,4,,,,,,,,,3,,,50,0
108480,note_on,0,0,1,,,,,,,,,0,,,73,49
108480,note_on,0,0,3,,,,,,,,,2,,,61,36
108480,note_on,0,0,4,,,,,,,,,3,,,52,36
108540,note_on,60,0,1,,,,,,,,,0,,,73,0
108540,note_on,0,0,1,,,,,,,,,0,,,76,49
108600,note_on,120,0,3,,,,,,,,,2,,,61,0
108600,note_on,60,0,1,,,,,,,,,0,,,76,0
108600,note_on,0,0,3,,,,,,,,,2,,,62,36
108600,note_on,0,0,1,,,,,,,,,0,,,71,49
108660,note_on,60,0,1,,,,,,,,,0,,,71,0
108660,note_on,0,0,1,,,,,,,,,0,,,83,49
108720,note_on,60,0,1,,,,,,,,,0,,,83,0
108720,note_on,240,0,4,,,,,,,,,3,,,52,0
108720,note_on,0,0,1,,,,,,,,,0,,,57,101
108720,note_on,120,0,3,,,,,,,,,2,,,62,0
108720,note_on,0,0,3,,,,,,,,,2,,,45,88
108744,note_on,24,0,1,,,,,,,,,0,,,57,0
108744,note_on,0,0,1,,,,,,,,,0,,,59,101
108744,note_on,24,0,3,,,,,,,,,2,,,45,0
108744,note_on,0,0,3,,,,,,,,,2,,,47,88
108768,note_on,24,0,3,,,,,,,,,2,,,47,0
108768,note_on,24,0,1,,,,,,,,,0,,,59,0
108768,note_on,0,0,1,,,,,,,,,0,,,57,101
108768,note_on,0,0,3,,,,,,,,,2,,,45,88
108791,note_on,23,0,1,,,,,,,,,0,,,59,101
108791,note_on,23,0,3,,,,,,,,,2,,,47,88
108792,note_on,1,0,3,,,,,,,,,2,,,45,0
108792,note_on,1,0,1,,,,,,,,,0,,,57,0
108815,note_on,23,0,3,,,,,,,,,2,,,47,0
108815,note_on,0,0,1,,,,,,,,,0,,,57,101
108815,note_on,23,0,1,,,,,,,,,0,,,59,0
108815,note_on,0,0,3,,,,,,,,,2,,,45,88
108839,note_on,24,0,1,,,,,,,,,0,,,57,0
108839,note_on,24,0,3,,,,,,,,,2,,,45,0
108840,note_on,1,0,1,,,,,,,,,0,,,56,101
108840,note_on,1,0,3,,,,,,,,,2,,,44,88
108900,note_on,0,0,1,,,,,,,,,0,,,54,101
108900,note_on,60,0,1,,,,,,,,,0,,,56,0
108900,note_on,60,0,3,,,,,,,,,2,,,44,0
108900,note_on,0,0,3,,,,,,,,,2,,,42,88
108960,note_on,0,0,1,,,,,,,,,0,,,52,101
108960,note_on,60,0,3,,,,,,,,,2,,,42,0
108960,note_on,0,0,3,,,,,,,,,2,,,40,88
108960,note_on,60,0,1,,,,,,,,,0,,,54,0
109020,note_on,60,0,3,,,,,,,,,2,,,40,0
109020,note_on,60,0,1,,,,,,,,,0,,,52,0
109020,note_on,0,0,1,,,,,,,,,0,,,69,49
109080,note_on,0,0,3,,,,,,,,,2,,,57,36
109080,note_on,60,0,3,,,,,,,,,2,,,49,36
109080,note_on,0,0,1,,,,,,,,,0,,,64,49
109080,note_on,60,0,1,,,,,,,,,0,,,69,0
109140,note_on,0,0,1,,,,,,,,,0,,,73,49
109140,note_on,60,0,1,,,,,,,,,0,,,64,0
109200,note_on,0,0,3,,,,,,,,,2,,,54,36
109200,note_on,0,0,3,,,,,,,,,2,,,49,0
109200,note_on,120,0,3,,,,,,,,,2,,,57,0
109200,note_on,60,0,1,,,,,,,,,0,,,73,0
109200,note_on,480,0,4,,,,,,,,,3,,,50,36
109200,control_change,0,0,1,,,,,,,,,0,64,127,,
109200,note_on,0,0,1,,,,,,,,,0,,,66,49
109200,control_change,0,0,3,,,,,,,,,2,64,127,,
109260,note_on,60,0,1,,,,,,,,,0,,,66,0
109260,note_on,0,0,1,,,,,,,,,0,,,71,49
109320,note_on,0,0,1,,,,,,,,,0,,,66,49
109320,note_on,60,0,1,,,,,,,,,0,,,71,0
109320,note_on,120,0,3,,,,,,,,,2,,,54,0
109320,note_on,0,0,3,,,,,,,,,2,,,59,36
109380,note_on,0,0,1,,,,,,,,,0,,,78,49
109380,note_on,60,0,1,,,,,,,,,0,,,66,0
109440,note_on,240,0,4,,,,,,,,,3,,,50,0
109440,note_on,0,0,1,,,,,,,,,0,,,73,49
109440,control_change,0,0,1,,,,,,,,,0,64,0,,
109440,note_on,60,0,1,,,,,,,,,0,,,78,0
109440,note_on,0,0,4,,,,,,,,,3,,,52,36
109440,note_on,0,0,3,,,,,,,,,2,,,61,36
109440,note_on,120,0,3,,,,,,,,,2,,,59,0
109440,control_change,0,0,3,,,,,,,,,2,64,0,,
109500,note_on,60,0,1,,,,,,,,,0,,,73,0
109500,note_on,0,0,1,,,,,,,,,0,,,76,49
109560,note_on,0,0,1,,,,,,,,,0,,,71,49
109560,note_on,60,0,1,,,,,,,,,0,,,76,0
109560,note_on,0,0,3,,,,,,,,,2,,,62,36
109560,note_on,120,0,3,,,,,,,,,2,,,61,0
109620,note_on,60,0,1,,,,,,,,,0,,,71,0
109620,note_on,0,0,1,,,,,,,,,0,,,83,49
109680,note_on,0,0,3,,,,,,,,,2,,,45,88
109680,note_on,240,0,4,,,,,,,,,3,,,52,0
109680,note_on,120,0,3,,,,,,,,,2,,,62,0
109680,note_on,60,0,1,,,,,,,,,0,,,83,0
109680,note_on,0,0,1,,,,,,,,,0,,,57,101
109704,note_on,0,0,3,,,,,,,,,2,,,47,88
109704,note_on,24,0,3,,,,,,,,,2,,,45,0
109704,note_on,24,0,1,,,,,,,,,0,,,57,0
109704,note_on,0,0,1,,,,,,,,,0,,,59,101
109728,note_on,0,0,1,,,,,,,,,0,,,57,101
109728,note_on,24,0,1,,,,,,,,,0,,,59,0
109728,note_on,0,0,3,,,,,,,,,2,,,45,88
109728,note_on,24,0,3,,,,,,,,,2,,,47,0
109751,note_on,23,0,1,,,,,,,,,0,,,59,101
109751,note_on,23,0,3,,,,,,,,,2,,,47,88
109752,note_on,1,0,1,,,,,,,,,0,,,57,0
109752,note_on,1,0,3,,,,,,,,,2,,,45,0
109775,note_on,23,0,1,,,,,,,,,0,,,59,0
109775,note_on,0,0,1,,,,,,,,,0,,,57,101
109775,note_on,23,0,3,,,,,,,,,2,,,47,0
109775,note_on,0,0,3,,,,,,,,,2,,,45,88
109799,note_on,24,0,1,,,,,,,,,0,,,57,0
109799,note_on,24,0,3,,,,,,,,,2,,,45,0
109800,note_on,1,0,1,,,,,,,,,0,,,56,101
109800,note_on,1,0,3,,,,,,,,,2,,,44,88
109860,note_on,0,0,3,,,,,,,,,2,,,42,88
109860,note_on,0,0,1,,,,,,,,,0,,,54,101
109860,note_on,60,0,3,,,,,,,,,2,,,44,0
109860,note_on,60,0,1,,,,,,,,,0,,,56,0
109920,note_on,0,0,1,,,,,,,,,0,,,53,101
109920,note_on,60,0,3,,,,,,,,,2,,,42,0
109920,note_on,0,0,3,,,,,,,,,2,,,41,88
109920,note_on,60,0,1,,,,,,,,,0,,,54,0
109980,note_on,60,0,1,,,,,,,,,0,,,53,0
109980,note_on,60,0,3,,,,,,,,,2,,,41,0
109980,control_change,0,0,1,,,,,,,,,0,64,127,,
109980,note_on,0,0,1,,,,,,,,,0,,,80,101
110040,note_on,60,0,3,,,,,,,,,2,,,53,101
110040,note_on,0,0,3,,,,,,,,,2,,,56,101
110040,note_on,0,0,3,,,,,,,,,2,,,61,101
110040,note_on,60,0,1,,,,,,,,,0,,,80,0
110040,note_on,0,0,1,,,,,,,,,0,,,73,114
110100,note_on,60,0,1,,,,,,,,,0,,,73,0
110100,note_on,0,0,1,,,,,,,,,0,,,85,114
110160,note_on,0,0,3,,,,,,,,,2,,,56,0
110160,note_on,0,0,1,,,,,,,,,0,,,57,101
110160,note_on,120,0,3,,,,,,,,,2,,,61,0
110160,note_on,0,0,3,,,,,,,,,2,,,53,0
110160,control_change,0,0,1,,,,,,,,,0,64,0,,
110160,note_on,0,0,3,,,,,,,,,2,,,45,88
110160,note_on,60,0,1,,,,,,,,,0,,,85,0
110184,note_on,0,0,3,,,,,,,,,2,,,47,88
110184,note_on,0,0,1,,,,,,,,,0,,,59,101
110184,note_on,24,0,1,,,,,,,,,0,,,57,0
110184,note_on,24,0,3,,,,,,,,,2,,,45,0
110208,note_on,24,0,3,,,,,,,,,2,,,47,0
110208,note_on,0,0,3,,,,,,,,,2,,,45,88
110208,note_on,24,0,1,,,,,,,,,0,,,59,0
110208,note_on,0,0,1,,,,,,,,,0,,,57,101
110231,note_on,23,0,1,,,,,,,,,0,,,59,101
110231,note_on,23,0,3,,,,,,,,,2,,,47,88
110232,note_on,1,0,3,,,,,,,,,2,,,45,0
110232,note_on,1,0,1,,,,,,,,,0,,,57,0
110255,note_on,23,0,3,,,,,,,,,2,,,47,0
110255,note_on,23,0,1,,,,,,,,,0,,,59,0
110255,note_on,0,0,1,,,,,,,,,0,,,57,101
110255,note_on,0,0,3,,,,,,,,,2,,,45,88
110279,note_on,24,0,3,,,,,,,,,2,,,45,0
110279,note_on,24,0,1,,,,,,,,,0,,,57,0
110280,note_on,1,0,1,,,,,,,,,0,,,56,101
110280,note_on,1,0,3,,,,,,,,,2,,,44,88
110340,note_on,60,0,1,,,,,,,,,0,,,56,0
110340,note_on,0,0,1,,,,,,,,,0,,,54,101
110340,note_on,60,0,3,,,,,,,,,2,,,44,0
110340,note_on,0,0,3,,,,,,,,,2,,,42,88
110400,note_on,60,0,3,,,,,,,,,2,,,42,0
110400,note_on,60,0,1,,,,,,,,,0,,,54,0
110400,note_on,0,0,1,,,,,,,,,0,,,53,101
110400,note_on,0,0,3,,,,,,,,,2,,,41,88
110460,note_on,60,0,3,,,,,,,,,2,,,41,0
110460,note_on,0,0,1,,,,,,,,,0,,,80,101
110460,note_on,60,0,1,,,,,,,,,0,,,53,0
110460,control_change,0,0,1,,,,,,,,,0,64,127,,
110520,note_on,0,0,1,,,,,,,,,0,,,73,114
110520,note_on,60,0,3,,,,,,,,,2,,,53,101
110520,note_on,0,0,3,,,,,,,,,2,,,56,101
110520,note_on,60,0,1,,,,,,,,,0,,,80,0
110520,note_on,0,0,3,,,,,,,,,2,,,61,101
110580,note_on,0,0,1,,,,,,,,,0,,,85,114
110580,note_on,60,0,1,,,,,,,,,0,,,73,0
110580,control_change,0,0,1,,,,,,,,,0,64,0,,
110640,note_on,0,0,3,,,,,,,,,2,,,56,0
110640,note_on,120,0,3,,,,,,,,,2,,,61,0
110640,note_on,0,0,3,,,,,,,,,2,,,53,0
110640,note_on,60,0,1,,,,,,,,,0,,,85,0
110940,control_change,300,0,1,,,,,,,,,0,64,127,,
110940,note_on,0,0,1,,,,,,,,,0,,,68,49
111000,note_on,0,0,3,,,,,,,,,2,,,56,36
111000,note_on,0,0,3,,,,,,,,,2,,,53,36
111000,control_change,360,0,3,,,,,,,,,2,64,127,,
111000,note_on,0,0,1,,,,,,,,,0,,,61,49
111000,note_on,60,0,1,,,,,,,,,0,,,68,0
111012,note_on,0,0,3,,,,,,,,,2,,,53,0
111012,note_on,12,0,3,,,,,,,,,2,,,56,0
111060,note_on,0,0,1,,,,,,,,,0,,,73,49
111060,note_on,60,0,1,,,,,,,,,0,,,61,0
111120,note_on,60,0,1,,,,,,,,,0,,,73,0
111120,note_on,0,0,1,,,,,,,,,0,,,61,49
111120,note_on,0,0,3,,,,,,,,,2,,,56,36
111120,note_on,108,0,3,,,,,,,,,2,,,53,36
111132,note_on,0,0,3,,,,,,,,,2,,,53,0
111132,note_on,12,0,3,,,,,,,,,2,,,56,0
111180,note_on,0,0,1,,,,,,,,,0,,,73,49
111180,note_on,60,0,1,,,,,,,,,0,,,61,0
111240,note_on,60,0,1,,,,,,,,,0,,,73,0
111240,note_on,0,0,3,,,,,,,,,2,,,53,36
111240,note_on,0,0,3,,,,,,,,,2,,,56,36
111240,note_on,0,0,1,,,,,,,,,0,,,61,49
111240,control_change,108,0,3,,,,,,,,,2,64,0,,
111252,note_on,12,0,3,,,,,,,,,2,,,56,0
111252,note_on,0,0,3,,,,,,,,,2,,,53,0
111300,note_on,0,0,1,,,,,,,,,0,,,73,49
111300,note_on,60,0,1,,,,,,,,,0,,,61,0
111300,control_change,0,0,1,,,,,,,,,0,64,0,,
111360,note_on,0,0,3,,,,,,,,,2,,,53,36
111360,note_on,0,0,1,,,,,,,,,0,,,61,49
111360,note_on,0,0,3,,,,,,,,,2,,,56,36
111360,control_change,108,0,3,,,,,,,,,2,64,127,,
111360,control_change,0,0,1,,,,,,,,,0,64,127,,
111360,note_on,60,0,1,,,,,,,,,0,,,73,0
111372,note_on,12,0,3,,,,,,,,,2,,,56,0
111372,note_on,0,0,3,,,,,,,,,2,,,53,0
111420,note_on,60,0,1,,,,,,,,,0,,,61,0
111420,note_on,0,0,1,,,,,,,,,0,,,73,49
111480,note_on,0,0,3,,,,,,,,,2,,,56,36
111480,note_on,108,0,3,,,,,,,,,2,,,53,36
111480,note_on,60,0,1,,,,,,,,,0,,,73,0
111480,note_on,0,0,1,,,,,,,,,0,,,61,49
111492,note_on,0,0,3,,,,,,,,,2,,,53,0
111492,note_on,12,0,3,,,,,,,,,2,,,56,0
111540,note_on,0,0,1,,,,,,,,,0,,,73,49
111540,note_on,60,0,1,,,,,,,,,0,,,61,0
111600,control_change,108,0,3,,,,,,,,,2,64,0,,
111600,note_on,1920,0,4,,,,,,,,,3,,,53,36
111600,note_on,0,0,1,,,,,,,,,0,,,68,49
111600,control_change,0,0,1,,,,,,,,,0,64,0,,
111600,note_on,60,0,1,,,,,,,,,0,,,73,0
111624,note_on,24,0,1,,,,,,,,,0,,,68,0
111624,note_on,0,0,1,,,,,,,,,0,,,70,49
111648,note_on,0,0,1,,,,,,,,,0,,,68,49
111648,note_on,24,0,1,,,,,,,,,0,,,70,0
111671,note_on,23,0,1,,,,,,,,,0,,,70,49
111672,note_on,1,0,1,,,,,,,,,0,,,68,0
111695,note_on,0,0,1,,,,,,,,,0,,,68,49
111695,note_on,23,0,1,,,,,,,,,0,,,70,0
111719,note_on,24,0,1,,,,,,,,,0,,,68,0
111720,note_on,1,0,1,,,,,,,,,0,,,66,49
111720,note_on,120,0,3,,,,,,,,,2,,,61,36
111780,note_on,0,0,1,,,,,,,,,0,,,65,49
111780,note_on,60,0,1,,,,,,,,,0,,,66,0
111840,control_change,0,0,1,,,,,,,,,0,64,127,,
111840,note_on,0,0,4,,,,,,,,,3,,,54,36
111840,note_on,240,0,4,,,,,,,,,3,,,53,0
111840,note_on,60,0,1,,,,,,,,,0,,,65,0
111840,note_on,0,0,1,,,,,,,,,0,,,63,49
111900,note_on,60,0,1,,,,,,,,,0,,,63,0
111900,note_on,0,0,1,,,,,,,,,0,,,70,49
111960,note_on,0,0,3,,,,,,,,,2,,,61,36
111960,note_on,240,0,3,,,,,,,,,2,,,61,0
111960,note_on,60,0,1,,,,,,,,,0,,,70,0
111960,note_on,0,0,1,,,,,,,,,0,,,63,49
112020,note_on,60,0,1,,,,,,,,,0,,,63,0
112020,note_on,0,0,1,,,,,,,,,0,,,75,49
112080,note_on,60,0,1,,,,,,,,,0,,,75,0
112080,note_on,240,0,4,,,,,,,,,3,,,54,0
112080,note_on,0,0,4,,,,,,,,,3,,,56,36
112080,note_on,0,0,1,,,,,,,,,0,,,71,75
112080,control_change,0,0,1,,,,,,,,,0,64,0,,
112104,note_on,24,0,1,,,,,,,,,0,,,71,0
112104,note_on,0,0,1,,,,,,,,,0,,,73,49
112128,note_on,24,0,1,,,,,,,,,0,,,73,0
112128,note_on,0,0,1,,,,,,,,,0,,,71,49
112151,note_on,23,0,1,,,,,,,,,0,,,73,49
112152,note_on,1,0,1,,,,,,,,,0,,,71,0
112175,note_on,23,0,1,,,,,,,,,0,,,73,0
112175,note_on,0,0,1,,,,,,,,,0,,,71,49
112199,note_on,24,0,1,,,,,,,,,0,,,71,0
112200,note_on,0,0,3,,,,,,,,,2,,,61,36
112200,note_on,240,0,3,,,,,,,,,2,,,61,0
112200,note_on,1,0,1,,,,,,,,,0,,,70,49
112260,note_on,60,0,1,,,,,,,,,0,,,70,0
112260,note_on,0,0,1,,,,,,,,,0,,,68,49
112320,note_on,0,0,1,,,,,,,,,0,,,66,49
112320,control_change,0,0,1,,,,,,,,,0,64,127,,
112320,note_on,240,0,4,,,,,,,,,3,,,56,0
112320,note_on,0,0,4,,,,,,,,,3,,,58,36
112320,note_on,60,0,1,,,,,,,,,0,,,68,0
112380,note_on,60,0,1,,,,,,,,,0,,,66,0
112380,note_on,0,0,1,,,,,,,,,0,,,73,49
112440,note_on,0,0,1,,,,,,,,,0,,,66,49
112440,note_on,60,0,1,,,,,,,,,0,,,73,0
112440,note_on,240,0,3,,,,,,,,,2,,,61,0
112440,note_on,0,0,3,,,,,,,,,2,,,61,36
112500,note_on,0,0,1,,,,,,,,,0,,,78,49
112500,note_on,60,0,1,,,,,,,,,0,,,66,0
112560,note_on,240,0,4,,,,,,,,,3,,,58,0
112560,note_on,0,0,4,,,,,,,,,3,,,58,36
112560,note_on,60,0,1,,,,,,,,,0,,,78,0
112560,note_on,0,0,1,,,,,,,,,0,,,66,49
112560,control_change,0,0,1,,,,,,,,,0,64,0,,
112620,note_on,60,0,1,,,,,,,,,0,,,66,0
112620,note_on,0,0,1,,,,,,,,,0,,,73,49
112680,note_on,240,0,3,,,,,,,,,2,,,61,0
112680,note_on,0,0,3,,,,,,,,,2,,,61,36
112680,note_on,0,0,1,,,,,,,,,0,,,66,49
112680,note_on,60,0,1,,,,,,,,,0,,,73,0
112740,note_on,0,0,1,,,,,,,,,0,,,78,49
112740,note_on,60,0,1,,,,,,,,,0,,,66,0
112800,note_on,240,0,4,,,,,,,,,3,,,58,0
112800,note_on,0,0,4,,,,,,,,,3,,,58,36
112800,note_on,0,0,1,,,,,,,,,0,,,66,49
112800,control_change,0,0,1,,,,,,,,,0,64,0,,
112800,note_on,60,0,1,,,,,,,,,0,,,78,0
112860,note_on,0,0,1,,,,,,,,,0,,,73,49
112860,note_on,60,0,1,,,,,,,,,0,,,66,0
112920,note_on,0,0,1,,,,,,,,,0,,,66,49
112920,note_on,0,0,3,,,,,,,,,2,,,61,36
112920,note_on,240,0,3,,,,,,,,,2,,,61,0
112920,note_on,60,0,1,,,,,,,,,0,,,73,0
112980,note_on,60,0,1,,,,,,,,,0,,,66,0
112980,note_on,0,0,1,,,,,,,,,0,,,78,49
113040,note_on,60,0,1,,,,,,,,,0,,,78,0
113040,note_on,0,0,1,,,,,,,,,0,,,66,49
113040,note_on,0,0,4,,,,,,,,,3,,,57,36
113040,note_on,240,0,4,,,,,,,,,3,,,58,0
113040,control_change,0,0,1,,,,,,,,,0,64,127,,
113100,note_on,0,0,1,,,,,,,,,0,,,73,49
113100,note_on,60,0,1,,,,,,,,,0,,,66,0
113160,note_on,0,0,1,,,,,,,,,0,,,66,49
113160,note_on,60,0,1,,,,,,,,,0,,,73,0
113160,note_on,0,0,3,,,,,,,,,2,,,61,36
113160,note_on,240,0,3,,,,,,,,,2,,,61,0
113220,note_on,0,0,1,,,,,,,,,0,,,78,49
113220,control_change,0,0,1,,,,,,,,,0,64,0,,
113220,note_on,60,0,1,,,,,,,,,0,,,66,0
113280,note_on,0,0,1,,,,,,,,,0,,,66,49
113280,note_on,60,0,1,,,,,,,,,0,,,78,0
113280,note_on,0,0,4,,,,,,,,,3,,,57,36
113280,note_on,240,0,4,,,,,,,,,3,,,57,0
113280,control_change,0,0,1,,,,,,,,,0,64,127,,
113340,note_on,60,0,1,,,,,,,,,0,,,66,0
113340,note_on,0,0,1,,,,,,,,,0,,,73,49
113400,note_on,0,0,1,,,,,,,,,0,,,66,49
113400,note_on,0,0,3,,,,,,,,,2,,,61,36
113400,note_on,240,0,3,,,,,,,,,2,,,61,0
113400,note_on,60,0,1,,,,,,,,,0,,,73,0
113460,note_on,0,0,1,,,,,,,,,0,,,78,49
113460,control_change,0,0,1,,,,,,,,,0,64,0,,
113460,note_on,60,0,1,,,,,,,,,0,,,66,0
113520,note_on,0,0,1,,,,,,,,,0,,,76,88
113520,note_on,120,0,3,,,,,,,,,2,,,61,0
113520,note_on,60,0,1,,,,,,,,,0,,,78,0
113520,note_on,0,0,4,,,,,,,,,3,,,49,36
113520,note_on,240,0,4,,,,,,,,,3,,,57,0
113520,control_change,0,0,1,,,,,,,,,0,64,127,,
113544,note_on,24,0,1,,,,,,,,,0,,,76,0
113544,note_on,0,0,1,,,,,,,,,0,,,78,62
113568,note_on,24,0,1,,,,,,,,,0,,,78,0
113568,note_on,0,0,1,,,,,,,,,0,,,76,62
113591,note_on,23,0,1,,,,,,,,,0,,,78,62
113592,note_on,1,0,1,,,,,,,,,0,,,76,0
113615,note_on,0,0,1,,,,,,,,,0,,,76,62
113615,note_on,23,0,1,,,,,,,,,0,,,78,0
113639,note_on,24,0,1,,,,,,,,,0,,,76,0
113640,note_on,1,0,1,,,,,,,,,0,,,74,62
113640,note_on,0,0,3,,,,,,,,,2,,,57,49
113640,note_on,120,0,3,,,,,,,,,2,,,52,49
113700,note_on,0,0,1,,,,,,,,,0,,,73,62
113700,control_change,0,0,1,,,,,,,,,0,64,0,,
113700,note_on,60,0,1,,,,,,,,,0,,,74,0
113760,note_on,0,0,3,,,,,,,,,2,,,52,0
113760,note_on,60,0,1,,,,,,,,,0,,,73,0
113760,note_on,240,0,4,,,,,,,,,3,,,49,0
113760,note_on,0,0,4,,,,,,,,,3,,,50,49
113760,note_on,0,0,1,,,,,,,,,0,,,71,75
113760,note_on,120,0,3,,,,,,,,,2,,,57,0
113760,control_change,0,0,1,,,,,,,,,0,64,127,,
113820,note_on,0,0,1,,,,,,,,,0,,,78,75
113820,note_on,60,0,1,,,,,,,,,0,,,71,0
113880,note_on,0,0,3,,,,,,,,,2,,,59,62
113880,note_on,120,0,3,,,,,,,,,2,,,54,62
113880,note_on,60,0,1,,,,,,,,,0,,,78,0
113880,note_on,0,0,1,,,,,,,,,0,,,71,75
113940,note_on,60,0,1,,,,,,,,,0,,,71,0
113940,control_change,0,0,1,,,,,,,,,0,64,0,,
113940,note_on,0,0,1,,,,,,,,,0,,,83,75
114000,note_on,0,0,3,,,,,,,,,2,,,54,0
114000,note_on,120,0,3,,,,,,,,,2,,,59,0
114000,note_on,60,0,1,,,,,,,,,0,,,83,0
114000,note_on,0,0,1,,,,,,,,,0,,,76,88
114000,note_on,0,0,4,,,,,,,,,3,,,52,62
114000,note_on,240,0,4,,,,,,,,,3,,,50,0
114000,control_change,0,0,1,,,,,,,,,0,64,127,,
114060,note_on,60,0,1,,,,,,,,,0,,,76,0
114060,note_on,0,0,1,,,,,,,,,0,,,83,88
114120,note_on,0,0,3,,,,,,,,,2,,,62,75
114120,note_on,0,0,1,,,,,,,,,0,,,76,88
114120,note_on,120,0,3,,,,,,,,,2,,,56,75
114120,note_on,60,0,1,,,,,,,,,0,,,83,0
114180,note_on,60,0,1,,,,,,,,,0,,,76,0
114180,control_change,0,0,1,,,,,,,,,0,64,0,,
114180,note_on,0,0,1,,,,,,,,,0,,,88,88
114240,control_change,0,0,1,,,,,,,,,0,64,127,,
114240,note_on,120,0,3,,,,,,,,,2,,,62,0
114240,note_on,0,0,3,,,,,,,,,2,,,56,0
114240,control_change,0,0,3,,,,,,,,,2,64,127,,
114240,note_on,60,0,1,,,,,,,,,0,,,88,0
114240,note_on,0,0,3,,,,,,,,,2,,,57,106
114240,note_on,0,0,3,,,,,,,,,2,,,61,114
114240,note_on,0,0,1,,,,,,,,,0,,,69,101
114240,note_on,240,0,4,,,,,,,,,3,,,52,0
114264,note_on,0,0,1,,,,,,,,,0,,,71,101
114264,note_on,24,0,1,,,,,,,,,0,,,69,0
114288,note_on,24,0,1,,,,,,,,,0,,,71,0
114288,note_on,0,0,1,,,,,,,,,0,,,69,101
114311,note_on,23,0,1,,,,,,,,,0,,,71,101
114312,note_on,1,0,1,,,,,,,,,0,,,69,0
114335,note_on,0,0,1,,,,,,,,,0,,,69,101
114335,note_on,23,0,1,,,,,,,,,0,,,71,0
114359,note_on,24,0,1,,,,,,,,,0,,,69,0
114360,note_on,0,0,3,,,,,,,,,2,,,57,0
114360,note_on,120,0,3,,,,,,,,,2,,,61,0
114360,note_on,1,0,1,,,,,,,,,0,,,68,101
114420,note_on,60,0,1,,,,,,,,,0,,,68,0
114420,note_on,0,0,1,,,,,,,,,0,,,66,101
114480,note_on,0,0,3,,,,,,,,,2,,,52,88
114480,control_change,120,0,3,,,,,,,,,2,64,0,,
114480,note_on,60,0,1,,,,,,,,,0,,,66,0
114480,control_change,0,0,1,,,,,,,,,0,64,0,,
114480,note_on,0,0,1,,,,,,,,,0,,,64,101
114480,note_on,240,0,4,,,,,,,,,3,,,50,62
114540,note_on,60,0,1,,,,,,,,,0,,,64,0
114600,note_on,120,0,4,,,,,,,,,3,,,50,0
114600,note_on,0,0,4,,,,,,,,,3,,,49,62
114660,note_on,0,0,4,,,,,,,,,3,,,47,62
114660,note_on,60,0,4,,,,,,,,,3,,,49,0
114720,control_change,180,0,1,,,,,,,,,0,64,127,,
114720,note_on,60,0,4,,,,,,,,,3,,,47,0
114720,control_change,240,0,3,,,,,,,,,2,64,127,,
114720,note_on,0,0,4,,,,,,,,,3,,,45,62
114720,note_on,0,0,1,,,,,,,,,0,,,69,101
114744,note_on,0,0,1,,,,,,,,,0,,,71,101
114744,note_on,24,0,1,,,,,,,,,0,,,69,0
114768,note_on,24,0,1,,,,,,,,,0,,,71,0
114768,note_on,0,0,1,,,,,,,,,0,,,69,101
114780,note_on,60,0,3,,,,,,,,,2,,,52,0
114780,note_on,60,0,4,,,,,,,,,3,,,45,0
114791,note_on,23,0,1,,,,,,,,,0,,,71,101
114792,note_on,1,0,1,,,,,,,,,0,,,69,0
114815,note_on,0,0,1,,,,,,,,,0,,,69,101
114815,note_on,23,0,1,,,,,,,,,0,,,71,0
114839,note_on,24,0,1,,,,,,,,,0,,,69,0
114840,note_on,1,0,1,,,,,,,,,0,,,68,101
114900,note_on,0,0,1,,,,,,,,,0,,,66,101
114900,note_on,60,0,1,,,,,,,,,0,,,68,0
114960,note_on,180,0,4,,,,,,,,,3,,,50,88
114960,note_on,0,0,1,,,,,,,,,0,,,64,127
114960,note_on,60,0,1,,,,,,,,,0,,,66,0
114960,control_change,180,0,3,,,,,,,,,2,64,0,,
114960,note_on,0,0,3,,,,,,,,,2,,,52,114
115020,note_on,60,0,1,,,,,,,,,0,,,64,0
115080,note_on,120,0,4,,,,,,,,,3,,,50,0
115080,note_on,0,0,4,,,,,,,,,3,,,49,62
115140,note_on,0,0,4,,,,,,,,,3,,,47,62
115140,note_on,60,0,4,,,,,,,,,3,,,49,0
115200,control_change,240,0,3,,,,,,,,,2,64,127,,
115200,note_on,180,0,1,,,,,,,,,0,,,73,101
115200,note_on,14640,0,2,,,,,,,,,1,,,69,88
115200,note_on,0,0,4,,,,,,,,,3,,,45,62
115200,note_on,60,0,4,,,,,,,,,3,,,47,0
115224,note_on,24,0,1,,,,,,,,,0,,,73,0
115224,note_on,0,0,1,,,,,,,,,0,,,74,101
115248,note_on,0,0,1,,,,,,,,,0,,,73,101
115248,note_on,24,0,1,,,,,,,,,0,,,74,0
115260,note_on,60,0,4,,,,,,,,,3,,,45,0
115260,note_on,60,0,3,,,,,,,,,2,,,52,0
115271,note_on,23,0,1,,,,,,,,,0,,,74,101
115272,note_on,1,0,1,,,,,,,,,0,,,73,0
115295,note_on,0,0,1,,,,,,,,,0,,,73,101
115295,note_on,23,0,1,,,,,,,,,0,,,74,0
115319,note_on,24,0,1,,,,,,,,,0,,,73,0
115320,note_on,0,0,1,,,,,,,,,0,,,71,101
115320,note_on,120,0,2,,,,,,,,,1,,,69,0
115320,note_on,1,0,1,,,,,,,,,0,,,68,101
115380,note_on,0,0,1,,,,,,,,,0,,,69,101
115380,note_on,0,0,1,,,,,,,,,0,,,66,101
115380,note_on,0,0,1,,,,,,,,,0,,,68,0
115380,note_on,60,0,1,,,,,,,,,0,,,71,0
115440,note_on,0,0,1,,,,,,,,,0,,,68,127
115440,note_on,0,0,1,,,,,,,,,0,,,64,119
115440,note_on,0,0,1,,,,,,,,,0,,,66,0
115440,note_on,60,0,1,,,,,,,,,0,,,69,0
115440,control_change,180,0,3,,,,,,,,,2,64,0,,
115440,note_on,180,0,4,,,,,,,,,3,,,50,88
115440,note_on,0,0,3,,,,,,,,,2,,,52,114
115500,note_on,60,0,1,,,,,,,,,0,,,68,0
115500,note_on,0,0,1,,,,,,,,,0,,,64,0
115560,note_on,120,0,4,,,,,,,,,3,,,50,0
115560,note_on,0,0,4,,,,,,,,,3,,,49,62
115620,note_on,0,0,4,,,,,,,,,3,,,47,62
115620,note_on,60,0,4,,,,,,,,,3,,,49,0
115680,note_on,360,0,2,,,,,,,,,1,,,69,88
115680,note_on,0,0,4,,,,,,,,,3,,,45,62
115680,note_on,60,0,4,,,,,,,,,3,,,47,0
115680,control_change,240,0,3,,,,,,,,,2,64,127,,
115680,note_on,180,0,1,,,,,,,,,0,,,73,101
115704,note_on,0,0,1,,,,,,,,,0,,,74,101
115704,note_on,24,0,1,,,,,,,,,0,,,73,0
115728,note_on,0,0,1,,,,,,,,,0,,,73,101
115728,note_on,24,0,1,,,,,,,,,0,,,74,0
115740,note_on,60,0,3,,,,,,,,,2,,,52,0
115740,note_on,60,0,4,,,,,,,,,3,,,45,0
115751,note_on,23,0,1,,,,,,,,,0,,,74,101
115752,note_on,1,0,1,,,,,,,,,0,,,73,0
115775,note_on,0,0,1,,,,,,,,,0,,,73,101
115775,note_on,23,0,1,,,,,,,,,0,,,74,0
115799,note_on,24,0,1,,,,,,,,,0,,,73,0
115800,note_on,120,0,2,,,,,,,,,1,,,69,0
115800,note_on,1,0,1,,,,,,,,,0,,,68,101
115800,note_on,0,0,1,,,,,,,,,0,,,71,101
115860,note_on,60,0,1,,,,,,,,,0,,,71,0
115860,note_on,0,0,1,,,,,,,,,0,,,68,0
115860,note_on,0,0,1,,,,,,,,,0,,,66,101
115860,note_on,0,0,1,,,,,,,,,0,,,69,101
115920,note_on,180,0,4,,,,,,,,,3,,,50,88
115920,note_on,0,0,1,,,,,,,,,0,,,68,127
115920,note_on,60,0,1,,,,,,,,,0,,,69,0
115920,note_on,0,0,1,,,,,,,,,0,,,66,0
115920,control_change,180,0,3,,,,,,,,,2,64,0,,
115920,note_on,0,0,1,,,,,,,,,0,,,64,119
115920,note_on,0,0,3,,,,,,,,,2,,,52,114
115980,note_on,60,0,1,,,,,,,,,0,,,68,0
115980,note_on,0,0,1,,,,,,,,,0,,,64,0
116040,note_on,120,0,4,,,,,,,,,3,,,50,0
116040,note_on,0,0,4,,,,,,,,,3,,,49,62
116100,note_on,0,0,4,,,,,,,,,3,,,47,62
116100,note_on,60,0,4,,,,,,,,,3,,,49,0
116160,control_change,240,0,3,,,,,,,,,2,64,127,,
116160,note_on,60,0,4,,,,,,,,,3,,,47,0
116160,note_on,0,0,4,,,,,,,,,3,,,45,62
116160,note_on,180,0,1,,,,,,,,,0,,,73,101
116220,note_on,60,0,3,,,,,,,,,2,,,52,0
116220,note_on,0,0,1,,,,,,,,,0,,,69,101
116220,note_on,60,0,1,,,,,,,,,0,,,73,0
116220,note_on,60,0,4,,,,,,,,,3,,,45,0
116280,note_on,0,0,3,,,,,,,,,2,,,47,88
116280,control_change,60,0,3,,,,,,,,,2,64,0,,
116280,note_on,0,0,1,,,,,,,,,0,,,74,101
116280,note_on,60,0,1,,,,,,,,,0,,,69,0
116340,note_on,0,0,1,,,,,,,,,0,,,69,101
116340,note_on,60,0,1,,,,,,,,,0,,,74,0
116340,note_on,60,0,3,,,,,,,,,2,,,47,0
116400,note_on,0,0,1,,,,,,,,,0,,,76,101
116400,note_on,60,0,1,,,,,,,,,0,,,69,0
116400,note_on,60,0,3,,,,,,,,,2,,,49,88
116460,note_on,0,0,1,,,,,,,,,0,,,69,101
116460,note_on,60,0,1,,,,,,,,,0,,,76,0
116460,note_on,60,0,3,,,,,,,,,2,,,49,0
116520,note_on,60,0,3,,,,,,,,,2,,,50,88
116520,note_on,60,0,1,,,,,,,,,0,,,69,0
116520,note_on,0,0,1,,,,,,,,,0,,,78,101
116580,note_on,60,0,1,,,,,,,,,0,,,78,0
116580,note_on,0,0,1,,,,,,,,,0,,,69,101
116580,note_on,60,0,3,,,,,,,,,2,,,50,0
116640,note_on,60,0,3,,,,,,,,,2,,,40,88
116640,note_on,0,0,1,,,,,,,,,0,,,80,101
116640,note_on,60,0,1,,,,,,,,,0,,,69,0
116640,note_on,0,0,3,,,,,,,,,2,,,52,88
116700,note_on,60,0,1,,,,,,,,,0,,,80,0
116700,note_on,0,0,3,,,,,,,,,2,,,40,0
116700,note_on,60,0,3,,,,,,,,,2,,,52,0
116700,note_on,0,0,1,,,,,,,,,0,,,76,101
116760,note_on,60,0,1,,,,,,,,,0,,,76,0
116760,note_on,0,0,1,,,,,,,,,0,,,81,101
116760,note_on,60,0,3,,,,,,,,,2,,,42,88
116760,note_on,0,0,3,,,,,,,,,2,,,54,88
116820,note_on,60,0,1,,,,,,,,,0,,,81,0
116820,note_on,0,0,1,,,,,,,,,0,,,76,101
116820,note_on,60,0,3,,,,,,,,,2,,,54,0
116820,note_on,0,0,3,,,,,,,,,2,,,42,0
116880,note_on,0,0,3,,,,,,,,,2,,,56,88
116880,note_on,60,0,3,,,,,,,,,2,,,44,88
116880,note_on,0,0,1,,,,,,,,,0,,,83,101
116880,note_on,60,0,1,,,,,,,,,0,,,76,0
116940,note_on,60,0,1,,,,,,,,,0,,,83,0
116940,note_on,0,0,1,,,,,,,,,0,,,76,101
116940,note_on,0,0,3,,,,,,,,,2,,,44,0
116940,note_on,60,0,3,,,,,,,,,2,,,56,0
117000,note_on,60,0,3,,,,,,,,,2,,,45,88
117000,note_on,60,0,1,,,,,,,,,0,,,76,0
117000,note_on,0,0,1,,,,,,,,,0,,,84,101
117000,note_on,0,0,3,,,,,,,,,2,,,57,88
117060,note_on,0,0,3,,,,,,,,,2,,,45,0
117060,note_on,60,0,3,,,,,,,,,2,,,57,0
117060,note_on,0,0,1,,,,,,,,,0,,,76,101
117060,note_on,60,0,1,,,,,,,,,0,,,84,0
117120,note_on,0,0,1,,,,,,,,,0,,,79,88
117120,note_on,0,0,1,,,,,,,,,0,,,84,88
117120,control_change,0,0,1,,,,,,,,,0,64,127,,
117120,note_on,60,0,1,,,,,,,,,0,,,76,0
117120,note_on,0,0,3,,,,,,,,,2,,,60,75
117120,note_on,0,0,3,,,,,,,,,2,,,55,75
117120,note_on,0,0,3,,,,,,,,,2,,,48,75
117120,control_change,60,0,3,,,,,,,,,2,64,127,,
117120,note_on,0,0,1,,,,,,,,,0,,,72,88
117120,note_on,0,0,1,,,,,,,,,0,,,76,88
117360,note_on,0,0,1,,,,,,,,,0,,,72,0
117360,note_on,0,0,1,,,,,,,,,0,,,79,0
117360,note_on,0,0,1,,,,,,,,,0,,,76,0
117360,note_on,0,0,1,,,,,,,,,0,,,76,88
117360,note_on,0,0,1,,,,,,,,,0,,,72,88
117360,note_on,0,0,1,,,,,,,,,0,,,79,88
117360,note_on,240,0,1,,,,,,,,,0,,,84,0
117360,note_on,240,0,3,,,,,,,,,2,,,60,0
117360,note_on,0,0,3,,,,,,,,,2,,,55,0
117360,note_on,0,0,3,,,,,,,,,2,,,48,0
117360,note_on,0,0,3,,,,,,,,,2,,,48,75
117360,note_on,0,0,3,,,,,,,,,2,,,55,75
117360,note_on,0,0,3,,,,,,,,,2,,,60,75
117360,note_on,0,0,1,,,,,,,,,0,,,84,88
117600,note_on,240,0,1,,,,,,,,,0,,,84,0
117600,note_on,0,0,1,,,,,,,,,0,,,72,88
117600,note_on,0,0,1,,,,,,,,,0,,,79,0
117600,note_on,0,0,1,,,,,,,,,0,,,76,0
117600,note_on,0,0,1,,,,,,,,,0,,,72,0
117600,note_on,0,0,1,,,,,,,,,0,,,79,88
117600,note_on,0,0,3,,,,,,,,,2,,,48,0
117600,note_on,0,0,3,,,,,,,,,2,,,55,75
117600,note_on,0,0,3,,,,,,,,,2,,,48,75
117600,note_on,0,0,3,,,,,,,,,2,,,55,0
117600,note_on,240,0,3,,,,,,,,,2,,,60,0
117600,note_on,0,0,3,,,,,,,,,2,,,60,75
117600,note_on,0,0,1,,,,,,,,,0,,,76,88
117600,note_on,0,0,1,,,,,,,,,0,,,84,88
117840,note_on,0,0,3,,,,,,,,,2,,,48,75
117840,note_on,0,0,3,,,,,,,,,2,,,55,0
117840,note_on,0,0,3,,,,,,,,,2,,,48,0
117840,control_change,0,0,3,,,,,,,,,2,64,0,,
117840,note_on,0,0,1,,,,,,,,,0,,,79,88
117840,note_on,0,0,3,,,,,,,,,2,,,55,75
117840,note_on,0,0,3,,,,,,,,,2,,,60,75
117840,note_on,0,0,1,,,,,,,,,0,,,84,88
117840,control_change,0,0,1,,,,,,,,,0,64,0,,
117840,note_on,0,0,1,,,,,,,,,0,,,76,88
117840,note_on,0,0,1,,,,,,,,,0,,,72,88
117840,note_on,0,0,1,,,,,,,,,0,,,79,0
117840,note_on,0,0,1,,,,,,,,,0,,,76,0
117840,note_on,0,0,1,,,,,,,,,0,,,72,0
117840,note_on,240,0,1,,,,,,,,,0,,,84,0
117840,note_on,240,0,3,,,,,,,,,2,,,60,0
118080,note_on,0,0,1,,,,,,,,,0,,,76,0
118080,note_on,0,0,1,,,,,,,,,0,,,79,0
118080,note_on,0,0,1,,,,,,,,,0,,,85,88
118080,note_on,0,0,1,,,,,,,,,0,,,72,0
118080,note_on,240,0,1,,,,,,,,,0,,,84,0
118080,note_on,240,0,3,,,,,,,,,2,,,60,0
118080,note_on,0,0,3,,,,,,,,,2,,,55,0
118080,note_on,0,0,3,,,,,,,,,2,,,48,0
118080,control_change,0,0,3,,,,,,,,,2,64,127,,
118080,note_on,0,0,3,,,,,,,,,2,,,40,75
118080,note_on,0,0,3,,,,,,,,,2,,,52,75
118080,note_on,0,0,1,,,,,,,,,0,,,88,88
118080,control_change,0,0,1,,,,,,,,,0,64,127,,
118080,note_on,0,0,1,,,,,,,,,0,,,76,88
118320,note_on,0,0,3,,,,,,,,,2,,,61,75
118320,note_on,0,0,3,,,,,,,,,2,,,49,75
118320,note_on,0,0,3,,,,,,,,,2,,,40,0
118320,note_on,240,0,3,,,,,,,,,2,,,52,0
118320,note_on,0,0,1,,,,,,,,,0,,,88,88
118320,note_on,0,0,1,,,,,,,,,0,,,85,88
118320,note_on,0,0,1,,,,,,,,,0,,,76,88
118320,note_on,0,0,1,,,,,,,,,0,,,76,0
118320,note_on,0,0,1,,,,,,,,,0,,,85,0
118320,note_on,240,0,1,,,,,,,,,0,,,88,0
118560,note_on,0,0,1,,,,,,,,,0,,,85,88
118560,note_on,0,0,3,,,,,,,,,2,,,52,75
118560,note_on,0,0,3,,,,,,,,,2,,,64,75
118560,note_on,0,0,1,,,,,,,,,0,,,88,88
118560,note_on,240,0,3,,,,,,,,,2,,,61,0
118560,note_on,0,0,3,,,,,,,,,2,,,49,0
118560,note_on,0,0,1,,,,,,,,,0,,,76,88
118560,note_on,0,0,1,,,,,,,,,0,,,76,0
118560,note_on,0,0,1,,,,,,,,,0,,,85,0
118560,note_on,240,0,1,,,,,,,,,0,,,88,0
118800,note_on,0,0,1,,,,,,,,,0,,,85,88
118800,note_on,0,0,1,,,,,,,,,0,,,88,88
118800,note_on,240,0,1,,,,,,,,,0,,,88,0
118800,note_on,0,0,1,,,,,,,,,0,,,85,0
118800,note_on,240,0,3,,,,,,,,,2,,,64,0
118800,note_on,0,0,3,,,,,,,,,2,,,52,0
118800,note_on,0,0,3,,,,,,,,,2,,,57,75
118800,note_on,0,0,3,,,,,,,,,2,,,69,75
118800,note_on,0,0,1,,,,,,,,,0,,,76,88
118800,note_on,0,0,1,,,,,,,,,0,,,76,0
119040,note_on,240,0,3,,,,,,,,,2,,,69,0
119040,control_change,0,0,1,,,,,,,,,0,64,0,,
119040,note_on,0,0,1,,,,,,,,,0,,,88,88
119040,note_on,0,0,1,,,,,,,,,0,,,85,88
119040,note_on,0,0,1,,,,,,,,,0,,,76,88
119040,note_on,0,0,1,,,,,,,,,0,,,76,0
119040,note_on,0,0,1,,,,,,,,,0,,,85,0
119040,note_on,0,0,3,,,,,,,,,2,,,49,75
119040,control_change,0,0,3,,,,,,,,,2,64,0,,
119040,note_on,0,0,3,,,,,,,,,2,,,37,75
119040,note_on,0,0,3,,,,,,,,,2,,,57,0
119040,note_on,240,0,1,,,,,,,,,0,,,88,0
119052,note_on,0,0,1,,,,,,,,,0,,,76,0
119052,note_on,0,0,3,,,,,,,,,2,,,37,0
119052,note_on,12,0,3,,,,,,,,,2,,,49,0
119052,note_on,12,0,1,,,,,,,,,0,,,88,0
119052,note_on,0,0,1,,,,,,,,,0,,,85,0
119160,note_on,108,0,3,,,,,,,,,2,,,38,75
119160,note_on,108,0,1,,,,,,,,,0,,,83,88
119160,note_on,0,0,3,,,,,,,,,2,,,50,75
119160,note_on,0,0,1,,,,,,,,,0,,,86,88
119160,note_on,3360,0,2,,,,,,,,,1,,,76,75
119172,note_on,0,0,3,,,,,,,,,2,,,38,0
119172,note_on,12,0,3,,,,,,,,,2,,,50,0
119220,note_on,0,0,1,,,,,,,,,0,,,83,0
119220,note_on,0,0,1,,,,,,,,,0,,,85,88
119220,note_on,0,0,1,,,,,,,,,0,,,81,88
119220,note_on,60,0,1,,,,,,,,,0,,,86,0
119280,note_on,0,0,3,,,,,,,,,2,,,52,75
119280,note_on,108,0,3,,,,,,,,,2,,,40,75
119280,note_on,60,0,1,,,,,,,,,0,,,85,0
119280,note_on,120,0,2,,,,,,,,,1,,,76,0
119280,note_on,0,0,1,,,,,,,,,0,,,85,88
119280,note_on,0,0,1,,,,,,,,,0,,,81,88
119280,note_on,0,0,1,,,,,,,,,0,,,76,88
119280,note_on,0,0,1,,,,,,,,,0,,,81,0
119292,note_on,12,0,3,,,,,,,,,2,,,52,0
119292,note_on,0,0,3,,,,,,,,,2,,,40,0
119292,note_on,0,0,1,,,,,,,,,0,,,81,0
119292,note_on,0,0,1,,,,,,,,,0,,,76,0
119292,note_on,12,0,1,,,,,,,,,0,,,85,0
119400,note_on,0,0,3,,,,,,,,,2,,,52,75
119400,note_on,108,0,3,,,,,,,,,2,,,40,75
119400,note_on,0,0,1,,,,,,,,,0,,,83,88
119400,note_on,0,0,1,,,,,,,,,0,,,80,88
119400,note_on,108,0,1,,,,,,,,,0,,,76,88
119412,note_on,0,0,1,,,,,,,,,0,,,76,0
119412,note_on,0,0,1,,,,,,,,,0,,,80,0
119412,note_on,12,0,1,,,,,,,,,0,,,83,0
119412,note_on,0,0,3,,,,,,,,,2,,,40,0
119412,note_on,12,0,3,,,,,,,,,2,,,52,0
119520,note_on,0,0,1,,,,,,,,,0,,,81,88
119520,note_on,108,0,3,,,,,,,,,2,,,33,75
119520,note_on,0,0,3,,,,,,,,,2,,,45,75
119520,note_on,108,0,1,,,,,,,,,0,,,73,88
119520,note_on,0,0,1,,,,,,,,,0,,,76,88
119532,note_on,0,0,3,,,,,,,,,2,,,33,0
119532,note_on,12,0,3,,,,,,,,,2,,,45,0
119580,note_on,60,0,1,,,,,,,,,0,,,81,0
119580,note_on,0,0,1,,,,,,,,,0,,,76,0
119580,note_on,0,0,1,,,,,,,,,0,,,69,88
119580,note_on,0,0,1,,,,,,,,,0,,,73,0
119640,note_on,0,0,1,,,,,,,,,0,,,81,88
119640,note_on,60,0,1,,,,,,,,,0,,,69,0
119700,note_on,0,0,1,,,,,,,,,0,,,83,88
119700,note_on,60,0,1,,,,,,,,,0,,,81,0
119760,note_on,60,0,1,,,,,,,,,0,,,83,0
119760,note_on,0,0,1,,,,,,,,,0,,,81,49
119820,note_on,60,0,1,,,,,,,,,0,,,81,0
119820,note_on,0,0,1,,,,,,,,,0,,,69,49
119880,note_on,60,0,1,,,,,,,,,0,,,69,0
119880,note_on,0,0,1,,,,,,,,,0,,,81,49
119940,note_on,60,0,1,,,,,,,,,0,,,81,0
119940,note_on,0,0,1,,,,,,,,,0,,,83,49
120000,note_on,0,0,1,,,,,,,,,0,,,81,49
120000,note_on,60,0,1,,,,,,,,,0,,,83,0
120060,note_on,60,0,1,,,,,,,,,0,,,81,0
120060,note_on,0,0,1,,,,,,,,,0,,,69,49
120120,note_on,60,0,1,,,,,,,,,0,,,69,0
120120,note_on,0,0,1,,,,,,,,,0,,,81,49
120180,note_on,60,0,1,,,,,,,,,0,,,81,0
120180,note_on,0,0,1,,,,,,,,,0,,,82,49
120240,note_on,0,0,1,,,,,,,,,0,,,81,49
120240,note_on,60,0,1,,,,,,,,,0,,,82,0
120300,note_on,60,0,1,,,,,,,,,0,,,81,0
120300,note_on,0,0,1,,,,,,,,,0,,,82,49
120360,note_on,60,0,1,,,,,,,,,0,,,82,0
120360,note_on,0,0,1,,,,,,,,,0,,,81,49
120420,note_on,0,0,1,,,,,,,,,0,,,82,49
120420,note_on,60,0,1,,,,,,,,,0,,,81,0
120480,note_on,0,0,3,,,,,,,,,2,,,53,75
120480,note_on,948,0,3,,,,,,,,,2,,,50,75
120480,note_on,0,0,1,,,,,,,,,0,,,81,49
120480,note_on,60,0,1,,,,,,,,,0,,,82,0
120480,end_of_track,0,1,0,,,,,,,,,,,,,
120480,set_tempo,44880,1,0,,,,,,416667,,,,,,,
120510,note_on,30,0,1,,,,,,,,,0,,,81,0
120510,note_on,0,0,1,,,,,,,,,0,,,82,49
120540,note_on,30,0,1,,,,,,,,,0,,,82,0
120540,note_on,0,0,1,,,,,,,,,0,,,79,49
120570,note_on,30,0,1,,,,,,,,,0,,,79,0
120570,note_on,0,0,1,,,,,,,,,0,,,81,49
120600,note_on,0,0,3,,,,,,,,,2,,,50,0
120600,note_on,0,0,3,,,,,,,,,2,,,52,75
120600,note_on,0,0,3,,,,,,,,,2,,,55,75
120600,note_on,120,0,3,,,,,,,,,2,,,53,0
120600,note_on,0,0,1,,,,,,,,,0,,,77,49
120600,note_on,30,0,1,,,,,,,,,0,,,81,0
120630,note_on,0,0,1,,,,,,,,,0,,,79,49
120630,note_on,30,0,1,,,,,,,,,0,,,77,0
120660,note_on,30,0,1,,,,,,,,,0,,,79,0
120660,note_on,0,0,1,,,,,,,,,0,,,76,49
120690,note_on,30,0,1,,,,,,,,,0,,,76,0
120690,note_on,0,0,1,,,,,,,,,0,,,77,49
120720,control_change,0,0,3,,,,,,,,,2,64,127,,
120720,note_on,0,0,3,,,,,,,,,2,,,52,0
120720,note_on,120,0,3,,,,,,,,,2,,,55,0
120720,note_on,0,0,1,,,,,,,,,0,,,76,49
120720,note_on,0,0,3,,,,,,,,,2,,,53,75
120720,control_change,0,0,1,,,,,,,,,0,64,127,,
120720,note_on,30,0,1,,,,,,,,,0,,,77,0
120720,note_on,0,0,3,,,,,,,,,2,,,57,75
120750,note_on,0,0,1,,,,,,,,,0,,,74,49
120750,note_on,30,0,1,,,,,,,,,0,,,76,0
120780,note_on,30,0,1,,,,,,,,,0,,,74,0
120780,note_on,0,0,1,,,,,,,,,0,,,69,49
120810,note_on,30,0,1,,,,,,,,,0,,,69,0
120810,note_on,0,0,1,,,,,,,,,0,,,74,49
120840,note_on,0,0,3,,,,,,,,,2,,,53,0
120840,control_change,0,0,3,,,,,,,,,2,64,0,,
120840,note_on,0,0,3,,,,,,,,,2,,,55,75
120840,note_on,0,0,3,,,,,,,,,2,,,57,75
120840,note_on,0,0,1,,,,,,,,,0,,,77,49
120840,control_change,0,0,1,,,,,,,,,0,64,0,,
120840,note_on,120,0,3,,,,,,,,,2,,,57,0
120840,note_on,30,0,1,,,,,,,,,0,,,74,0
120846,note_on,6,0,3,,,,,,,,,2,,,57,0
120846,note_on,0,0,3,,,,,,,,,2,,,55,0
120870,note_on,30,0,1,,,,,,,,,0,,,77,0
120870,note_on,0,0,1,,,,,,,,,0,,,76,49
120900,note_on,54,0,3,,,,,,,,,2,,,52,75
120900,note_on,30,0,1,,,,,,,,,0,,,76,0
120900,note_on,0,0,1,,,,,,,,,0,,,69,49
120900,note_on,0,0,3,,,,,,,,,2,,,57,75
120906,note_on,0,0,3,,,,,,,,,2,,,52,0
120906,note_on,6,0,3,,,,,,,,,2,,,57,0
120930,note_on,30,0,1,,,,,,,,,0,,,69,0
120930,note_on,0,0,1,,,,,,,,,0,,,73,49
120960,control_change,54,0,3,,,,,,,,,2,64,127,,
120960,note_on,0,0,3,,,,,,,,,2,,,53,75
120960,note_on,0,0,3,,,,,,,,,2,,,57,75
120960,note_on,0,0,1,,,,,,,,,0,,,76,49
120960,control_change,0,0,1,,,,,,,,,0,64,127,,
120960,note_on,30,0,1,,,,,,,,,0,,,73,0
120990,note_on,0,0,1,,,,,,,,,0,,,74,49
120990,note_on,30,0,1,,,,,,,,,0,,,76,0
121020,note_on,30,0,1,,,,,,,,,0,,,74,0
121020,note_on,0,0,1,,,,,,,,,0,,,69,49
121050,note_on,30,0,1,,,,,,,,,0,,,69,0
121050,note_on,0,0,1,,,,,,,,,0,,,74,49
121080,note_on,0,0,3,,,,,,,,,2,,,57,75
121080,note_on,0,0,3,,,,,,,,,2,,,55,75
121080,control_change,0,0,3,,,,,,,,,2,64,0,,
121080,note_on,0,0,3,,,,,,,,,2,,,53,0
121080,note_on,30,0,1,,,,,,,,,0,,,74,0
121080,note_on,0,0,1,,,,,,,,,0,,,77,49
121080,control_change,0,0,1,,,,,,,,,0,64,0,,
121080,note_on,120,0,3,,,,,,,,,2,,,57,0
121086,note_on,6,0,3,,,,,,,,,2,,,57,0
121086,note_on,0,0,3,,,,,,,,,2,,,55,0
121110,note_on,0,0,1,,,,,,,,,0,,,76,49
121110,note_on,30,0,1,,,,,,,,,0,,,77,0
121140,note_on,0,0,3,,,,,,,,,2,,,57,75
121140,note_on,30,0,1,,,,,,,,,0,,,76,0
121140,note_on,0,0,1,,,,,,,,,0,,,69,49
121140,note_on,54,0,3,,,,,,,,,2,,,52,75
121146,note_on,6,0,3,,,,,,,,,2,,,57,0
121146,note_on,0,0,3,,,,,,,,,2,,,52,0
121170,note_on,30,0,1,,,,,,,,,0,,,69,0
121170,note_on,0,0,1,,,,,,,,,0,,,73,49
121200,note_on,54,0,3,,,,,,,,,2,,,53,75
121200,note_on,0,0,3,,,,,,,,,2,,,57,75
121200,note_on,30,0,1,,,,,,,,,0,,,73,0
121200,note_on,0,0,1,,,,,,,,,0,,,74,49
121206,note_on,6,0,3,,,,,,,,,2,,,57,0
121206,note_on,0,0,3,,,,,,,,,2,,,53,0
121230,note_on,30,0,1,,,,,,,,,0,,,74,0
121230,note_on,0,0,1,,,,,,,,,0,,,69,49
121260,note_on,30,0,1,,,,,,,,,0,,,69,0
121260,note_on,54,0,3,,,,,,,,,2,,,52,75
121260,note_on,0,0,3,,,,,,,,,2,,,57,75
121260,note_on,0,0,1,,,,,,,,,0,,,76,49
121266,note_on,6,0,3,,,,,,,,,2,,,57,0
121266,note_on,0,0,3,,,,,,,,,2,,,52,0
121290,note_on,0,0,1,,,,,,,,,0,,,73,49
121290,note_on,30,0,1,,,,,,,,,0,,,76,0
121320,note_on,0,0,3,,,,,,,,,2,,,57,62
121320,note_on,54,0,3,,,,,,,,,2,,,50,62
121320,note_on,0,0,1,,,,,,,,,0,,,77,75
121320,note_on,30,0,1,,,,,,,,,0,,,73,0
121326,note_on,0,0,3,,,,,,,,,2,,,50,0
121326,note_on,6,0,3,,,,,,,,,2,,,57,0
121350,note_on,30,0,1,,,,,,,,,0,,,77,0
121350,note_on,0,0,1,,,,,,,,,0,,,74,75
121380,note_on,0,0,3,,,,,,,,,2,,,58,62
121380,note_on,54,0,3,,,,,,,,,2,,,48,62
121380,note_on,30,0,1,,,,,,,,,0,,,74,0
121380,note_on,0,0,1,,,,,,,,,0,,,79,75
121386,note_on,0,0,3,,,,,,,,,2,,,48,0
121386,note_on,6,0,3,,,,,,,,,2,,,58,0
121410,note_on,30,0,1,,,,,,,,,0,,,79,0
121410,note_on,0,0,1,,,,,,,,,0,,,76,75
121440,note_on,0,0,1,,,,,,,,,0,,,84,88
121440,note_on,0,0,3,,,,,,,,,2,,,57,88
121440,control_change,54,0,3,,,,,,,,,2,64,127,,
121440,note_on,0,0,1,,,,,,,,,0,,,81,88
121440,control_change,0,0,1,,,,,,,,,0,64,127,,
121440,note_on,0,0,1,,,,,,,,,0,,,72,88
121440,note_on,30,0,1,,,,,,,,,0,,,76,0
121470,note_on,30,0,3,,,,,,,,,2,,,57,0
121470,note_on,0,0,3,,,,,,,,,2,,,53,88
121500,note_on,0,0,3,,,,,,,,,2,,,48,88
121500,note_on,30,0,3,,,,,,,,,2,,,53,0
121530,note_on,30,0,3,,,,,,,,,2,,,48,0
121530,note_on,0,0,3,,,,,,,,,2,,,53,88
121560,note_on,30,0,3,,,,,,,,,2,,,53,0
121560,control_change,0,0,3,,,,,,,,,2,64,0,,
121560,note_on,0,0,3,,,,,,,,,2,,,57,88
121560,note_on,0,0,1,,,,,,,,,0,,,72,0
121560,note_on,0,0,1,,,,,,,,,0,,,81,0
121560,note_on,120,0,1,,,,,,,,,0,,,84,0
121560,control_change,0,0,1,,,,,,,,,0,64,0,,
121560,note_on,0,0,1,,,,,,,,,0,,,84,88
121560,note_on,0,0,1,,,,,,,,,0,,,82,88
121560,note_on,0,0,1,,,,,,,,,0,,,72,88
121566,note_on,0,0,1,,,,,,,,,0,,,72,0
121566,note_on,6,0,1,,,,,,,,,0,,,84,0
121566,note_on,0,0,1,,,,,,,,,0,,,82,0
121590,note_on,0,0,3,,,,,,,,,2,,,55,88
121590,note_on,30,0,3,,,,,,,,,2,,,57,0
121620,note_on,30,0,3,,,,,,,,,2,,,55,0
121620,note_on,0,0,3,,,,,,,,,2,,,48,88
121620,note_on,54,0,1,,,,,,,,,0,,,72,88
121620,note_on,0,0,1,,,,,,,,,0,,,79,88
121620,note_on,0,0,1,,,,,,,,,0,,,84,88
121626,note_on,6,0,1,,,,,,,,,0,,,84,0
121626,note_on,0,0,1,,,,,,,,,0,,,79,0
121626,note_on,0,0,1,,,,,,,,,0,,,72,0
121650,note_on,30,0,3,,,,,,,,,2,,,48,0
121650,note_on,0,0,3,,,,,,,,,2,,,52,88
121680,note_on,0,0,1,,,,,,,,,0,,,84,88
121680,control_change,54,0,1,,,,,,,,,0,64,127,,
121680,note_on,0,0,1,,,,,,,,,0,,,72,88
121680,note_on,0,0,1,,,,,,,,,0,,,81,88
121680,note_on,30,0,3,,,,,,,,,2,,,52,0
121680,control_change,0,0,3,,,,,,,,,2,64,127,,
121680,note_on,0,0,3,,,,,,,,,2,,,55,88
121710,note_on,0,0,3,,,,,,,,,2,,,53,88
121710,note_on,30,0,3,,,,,,,,,2,,,55,0
121740,note_on,0,0,3,,,,,,,,,2,,,48,88
121740,note_on,30,0,3,,,,,,,,,2,,,53,0
121770,note_on,0,0,3,,,,,,,,,2,,,53,88
121770,note_on,30,0,3,,,,,,,,,2,,,48,0
121800,note_on,0,0,3,,,,,,,,,2,,,57,88
121800,control_change,0,0,3,,,,,,,,,2,64,0,,
121800,note_on,30,0,3,,,,,,,,,2,,,53,0
121800,note_on,0,0,1,,,,,,,,,0,,,72,0
121800,control_change,0,0,1,,,,,,,,,0,64,0,,
121800,note_on,0,0,1,,,,,,,,,0,,,84,88
121800,note_on,0,0,1,,,,,,,,,0,,,82,88
121800,note_on,0,0,1,,,,,,,,,0,,,72,88
121800,note_on,120,0,1,,,,,,,,,0,,,84,0
121800,note_on,0,0,1,,,,,,,,,0,,,81,0
121806,note_on,0,0,1,,,,,,,,,0,,,72,0
121806,note_on,0,0,1,,,,,,,,,0,,,82,0
121806,note_on,6,0,1,,,,,,,,,0,,,84,0
121830,note_on,30,0,3,,,,,,,,,2,,,57,0
121830,note_on,0,0,3,,,,,,,,,2,,,55,88
121860,note_on,0,0,3,,,,,,,,,2,,,48,88
121860,note_on,30,0,3,,,,,,,,,2,,,55,0
121860,note_on,0,0,1,,,,,,,,,0,,,79,88
121860,note_on,0,0,1,,,,,,,,,0,,,84,88
121860,note_on,54,0,1,,,,,,,,,0,,,72,88
121866,note_on,6,0,1,,,,,,,,,0,,,84,0
121866,note_on,0,0,1,,,,,,,,,0,,,79,0
121866,note_on,0,0,1,,,,,,,,,0,,,72,0
121890,note_on,0,0,3,,,,,,,,,2,,,52,88
121890,note_on,30,0,3,,,,,,,,,2,,,48,0
121920,note_on,0,0,3,,,,,,,,,2,,,53,88
121920,note_on,30,0,3,,,,,,,,,2,,,52,0
121920,note_on,0,0,1,,,,,,,,,0,,,81,88
121920,note_on,54,0,1,,,,,,,,,0,,,69,88
121920,note_on,0,0,1,,,,,,,,,0,,,72,88
121926,note_on,0,0,1,,,,,,,,,0,,,69,0
121926,note_on,6,0,1,,,,,,,,,0,,,81,0
121926,note_on,0,0,1,,,,,,,,,0,,,72,0
121950,note_on,30,0,3,,,,,,,,,2,,,53,0
121950,note_on,0,0,3,,,,,,,,,2,,,48,88
121980,note_on,54,0,1,,,,,,,,,0,,,67,88
121980,note_on,0,0,1,,,,,,,,,0,,,72,88
121980,note_on,0,0,1,,,,,,,,,0,,,79,88
121980,note_on,30,0,3,,,,,,,,,2,,,48,0
121980,note_on,0,0,3,,,,,,,,,2,,,55,88
121986,note_on,0,0,1,,,,,,,,,0,,,67,0
121986,note_on,0,0,1,,,,,,,,,0,,,72,0
121986,note_on,6,0,1,,,,,,,,,0,,,79,0
122010,note_on,0,0,3,,,,,,,,,2,,,52,88
122010,note_on,30,0,3,,,,,,,,,2,,,55,0
122040,note_on,30,0,3,,,,,,,,,2,,,52,0
122040,note_on,0,0,1,,,,,,,,,0,,,77,88
122040,note_on,0,0,1,,,,,,,,,0,,,72,88
122040,note_on,54,0,1,,,,,,,,,0,,,65,88
122040,note_on,0,0,3,,,,,,,,,2,,,57,88
122046,note_on,6,0,1,,,,,,,,,0,,,77,0
122046,note_on,0,0,1,,,,,,,,,0,,,72,0
122046,note_on,0,0,1,,,,,,,,,0,,,65,0
122070,note_on,30,0,3,,,,,,,,,2,,,57,0
122070,note_on,0,0,3,,,,,,,,,2,,,53,88
122100,note_on,0,0,1,,,,,,,,,0,,,76,88
122100,note_on,0,0,3,,,,,,,,,2,,,59,88
122100,note_on,54,0,1,,,,,,,,,0,,,64,88
122100,note_on,0,0,1,,,,,,,,,0,,,74,88
122100,note_on,30,0,3,,,,,,,,,2,,,53,0
122106,note_on,0,0,1,,,,,,,,,0,,,64,0
122106,note_on,0,0,1,,,,,,,,,0,,,74,0
122106,note_on,6,0,1,,,,,,,,,0,,,76,0
122130,note_on,0,0,3,,,,,,,,,2,,,56,88
122130,note_on,30,0,3,,,,,,,,,2,,,59,0
122160,control_change,0,0,3,,,,,,,,,2,64,127,,
122160,note_on,0,0,1,,,,,,,,,0,,,83,88
122160,note_on,0,0,3,,,,,,,,,2,,,60,75
122160,note_on,0,0,3,,,,,,,,,2,,,52,75
122160,note_on,0,0,3,,,,,,,,,2,,,48,75
122160,note_on,30,0,3,,,,,,,,,2,,,56,0
122160,control_change,54,0,1,,,,,,,,,0,64,127,,
122190,note_on,0,0,1,,,,,,,,,0,,,81,88
122190,note_on,30,0,1,,,,,,,,,0,,,83,0
122220,note_on,0,0,1,,,,,,,,,0,,,76,88
122220,note_on,30,0,1,,,,,,,,,0,,,81,0
122250,note_on,0,0,1,,,,,,,,,0,,,81,88
122250,note_on,30,0,1,,,,,,,,,0,,,76,0
122280,note_on,0,0,3,,,,,,,,,2,,,52,75
122280,control_change,0,0,1,,,,,,,,,0,64,0,,
122280,note_on,0,0,1,,,,,,,,,0,,,84,88
122280,note_on,0,0,3,,,,,,,,,2,,,62,75
122280,note_on,0,0,3,,,,,,,,,2,,,50,75
122280,control_change,0,0,3,,,,,,,,,2,64,0,,
122280,note_on,0,0,3,,,,,,,,,2,,,48,0
122280,note_on,0,0,3,,,,,,,,,2,,,52,0
122280,note_on,120,0,3,,,,,,,,,2,,,60,0
122280,note_on,30,0,1,,,,,,,,,0,,,81,0
122286,note_on,0,0,3,,,,,,,,,2,,,50,0
122286,note_on,0,0,3,,,,,,,,,2,,,52,0
122286,note_on,6,0,3,,,,,,,,,2,,,62,0
122310,note_on,30,0,1,,,,,,,,,0,,,84,0
122310,note_on,0,0,1,,,,,,,,,0,,,83,88
122340,note_on,0,0,1,,,,,,,,,0,,,76,88
122340,note_on,0,0,3,,,,,,,,,2,,,59,75
122340,note_on,0,0,3,,,,,,,,,2,,,52,75
122340,note_on,30,0,1,,,,,,,,,0,,,83,0
122340,note_on,54,0,3,,,,,,,,,2,,,47,75
122346,note_on,0,0,3,,,,,,,,,2,,,47,0
122346,note_on,0,0,3,,,,,,,,,2,,,52,0
122346,note_on,6,0,3,,,,,,,,,2,,,59,0
122370,note_on,30,0,1,,,,,,,,,0,,,76,0
122370,note_on,0,0,1,,,,,,,,,0,,,80,88
122400,note_on,0,0,3,,,,,,,,,2,,,60,75
122400,note_on,0,0,3,,,,,,,,,2,,,52,75
122400,note_on,0,0,3,,,,,,,,,2,,,48,75
122400,control_change,54,0,3,,,,,,,,,2,64,127,,
122400,control_change,0,0,1,,,,,,,,,0,64,127,,
122400,note_on,0,0,1,,,,,,,,,0,,,83,88
122400,note_on,30,0,1,,,,,,,,,0,,,80,0
122430,note_on,0,0,1,,,,,,,,,0,,,81,88
122430,note_on,30,0,1,,,,,,,,,0,,,83,0
122460,note_on,0,0,1,,,,,,,,,0,,,76,88
122460,note_on,30,0,1,,,,,,,,,0,,,81,0
122490,note_on,30,0,1,,,,,,,,,0,,,76,0
122490,note_on,0,0,1,,,,,,,,,0,,,81,88
122520,control_change,0,0,1,,,,,,,,,0,64,0,,
122520,note_on,0,0,1,,,,,,,,,0,,,84,88
122520,note_on,120,0,3,,,,,,,,,2,,,60,0
122520,note_on,0,0,3,,,,,,,,,2,,,62,75
122520,note_on,0,0,3,,,,,,,,,2,,,52,75
122520,note_on,0,0,3,,,,,,,,,2,,,50,75
122520,control_change,0,0,3,,,,,,,,,2,64,0,,
122520,note_on,0,0,3,,,,,,,,,2,,,48,0
122520,note_on,0,0,3,,,,,,,,,2,,,52,0
122520,note_on,30,0,1,,,,,,,,,0,,,81,0
122526,note_on,6,0,3,,,,,,,,,2,,,62,0
122526,note_on,0,0,3,,,,,,,,,2,,,50,0
122526,note_on,0,0,3,,,,,,,,,2,,,52,0
122550,note_on,0,0,1,,,,,,,,,0,,,83,88
122550,note_on,30,0,1,,,,,,,,,0,,,84,0
122580,note_on,0,0,3,,,,,,,,,2,,,52,75
122580,note_on,54,0,3,,,,,,,,,2,,,47,75
122580,note_on,0,0,1,,,,,,,,,0,,,76,88
122580,note_on,30,0,1,,,,,,,,,0,,,83,0
122580,note_on,0,0,3,,,,,,,,,2,,,59,75
122586,note_on,6,0,3,,,,,,,,,2,,,59,0
122586,note_on,0,0,3,,,,,,,,,2,,,47,0
122586,note_on,0,0,3,,,,,,,,,2,,,52,0
122610,note_on,0,0,1,,,,,,,,,0,,,80,88
122610,note_on,30,0,1,,,,,,,,,0,,,76,0
122640,note_on,0,0,1,,,,,,,,,0,,,88,101
122640,note_on,0,0,1,,,,,,,,,0,,,84,101
122640,note_on,0,0,1,,,,,,,,,0,,,76,101
122640,control_change,0,0,1,,,,,,,,,0,64,127,,
122640,note_on,30,0,1,,,,,,,,,0,,,80,0
122640,control_change,54,0,3,,,,,,,,,2,64,127,,
122640,note_on,0,0,3,,,,,,,,,2,,,47,101
122670,note_on,30,0,3,,,,,,,,,2,,,47,0
122670,note_on,0,0,3,,,,,,,,,2,,,45,101
122700,note_on,30,0,3,,,,,,,,,2,,,45,0
122700,note_on,0,0,3,,,,,,,,,2,,,40,101
122730,note_on,0,0,3,,,,,,,,,2,,,45,101
122730,note_on,30,0,3,,,,,,,,,2,,,40,0
122760,note_on,0,0,1,,,,,,,,,0,,,76,101
122760,control_change,0,0,1,,,,,,,,,0,64,0,,
122760,note_on,0,0,1,,,,,,,,,0,,,88,101
122760,note_on,0,0,1,,,,,,,,,0,,,86,101
122760,note_on,0,0,1,,,,,,,,,0,,,76,0
122760,note_on,0,0,1,,,,,,,,,0,,,84,0
122760,note_on,120,0,1,,,,,,,,,0,,,88,0
122760,control_change,0,0,3,,,,,,,,,2,64,0,,
122760,note_on,0,0,3,,,,,,,,,2,,,48,101
122760,note_on,30,0,3,,,,,,,,,2,,,45,0
122766,note_on,6,0,1,,,,,,,,,0,,,88,0
122766,note_on,0,0,1,,,,,,,,,0,,,86,0
122766,note_on,0,0,1,,,,,,,,,0,,,76,0
122790,note_on,30,0,3,,,,,,,,,2,,,48,0
122790,note_on,0,0,3,,,,,,,,,2,,,47,101
122820,note_on,0,0,1,,,,,,,,,0,,,83,101
122820,note_on,30,0,3,,,,,,,,,2,,,47,0
122820,note_on,0,0,3,,,,,,,,,2,,,40,101
122820,note_on,0,0,1,,,,,,,,,0,,,88,101
122820,note_on,54,0,1,,,,,,,,,0,,,76,101
122826,note_on,0,0,1,,,,,,,,,0,,,76,0
122826,note_on,0,0,1,,,,,,,,,0,,,83,0
122826,note_on,6,0,1,,,,,,,,,0,,,88,0
122850,note_on,0,0,3,,,,,,,,,2,,,44,101
122850,note_on,30,0,3,,,,,,,,,2,,,40,0
122880,note_on,0,0,1,,,,,,,,,0,,,76,101
122880,note_on,0,0,1,,,,,,,,,0,,,84,101
122880,note_on,0,0,1,,,,,,,,,0,,,88,101
122880,note_on,0,0,3,,,,,,,,,2,,,47,101
122880,control_change,0,0,3,,,,,,,,,2,64,127,,
122880,note_on,30,0,3,,,,,,,,,2,,,44,0
122880,control_change,54,0,1,,,,,,,,,0,64,127,,
122910,note_on,30,0,3,,,,,,,,,2,,,47,0
122910,note_on,0,0,3,,,,,,,,,2,,,45,101
122940,note_on,0,0,3,,,,,,,,,2,,,40,101
122940,note_on,30,0,3,,,,,,,,,2,,,45,0
122970,note_on,0,0,3,,,,,,,,,2,,,45,101
122970,note_on,30,0,3,,,,,,,,,2,,,40,0
123000,note_on,120,0,1,,,,,,,,,0,,,88,0
123000,note_on,0,0,1,,,,,,,,,0,,,84,0
123000,note_on,0,0,1,,,,,,,,,0,,,76,0
123000,note_on,0,0,3,,,,,,,,,2,,,48,101
123000,control_change,0,0,3,,,,,,,,,2,64,0,,
123000,note_on,30,0,3,,,,,,,,,2,,,45,0
123000,control_change,0,0,1,,,,,,,,,0,64,0,,
123000,note_on,0,0,1,,,,,,,,,0,,,88,101
123000,note_on,0,0,1,,,,,,,,,0,,,86,101
123000,note_on,0,0,1,,,,,,,,,0,,,76,101
123006,note_on,6,0,1,,,,,,,,,0,,,88,0
123006,note_on,0,0,1,,,,,,,,,0,,,86,0
123006,note_on,0,0,1,,,,,,,,,0,,,76,0
123030,note_on,0,0,3,,,,,,,,,2,,,47,101
123030,note_on,30,0,3,,,,,,,,,2,,,48,0
123060,note_on,0,0,3,,,,,,,,,2,,,40,101
123060,note_on,30,0,3,,,,,,,,,2,,,47,0
123060,note_on,0,0,1,,,,,,,,,0,,,88,101
123060,note_on,0,0,1,,,,,,,,,0,,,83,101
123060,note_on,54,0,1,,,,,,,,,0,,,76,101
123066,note_on,0,0,1,,,,,,,,,0,,,76,0
123066,note_on,6,0,1,,,,,,,,,0,,,88,0
123066,note_on,0,0,1,,,,,,,,,0,,,83,0
123090,note_on,0,0,3,,,,,,,,,2,,,44,101
123090,note_on,30,0,3,,,,,,,,,2,,,40,0
123120,note_on,30,0,3,,,,,,,,,2,,,44,0
123120,note_on,0,0,1,,,,,,,,,0,,,76,101
123120,control_change,54,0,1,,,,,,,,,0,64,127,,
123120,control_change,0,0,3,,,,,,,,,2,64,127,,
123120,note_on,0,0,1,,,,,,,,,0,,,84,101
123120,note_on,0,0,3,,,,,,,,,2,,,45,101
123120,note_on,0,0,1,,,,,,,,,0,,,88,101
123150,note_on,30,0,3,,,,,,,,,2,,,45,0
123150,note_on,0,0,3,,,,,,,,,2,,,52,101
123180,note_on,30,0,3,,,,,,,,,2,,,52,0
123180,note_on,0,0,3,,,,,,,,,2,,,40,101
123180,note_on,60,0,1,,,,,,,,,0,,,88,0
123180,note_on,0,0,1,,,,,,,,,0,,,84,0
123180,note_on,0,0,1,,,,,,,,,0,,,76,0
123180,note_on,0,0,1,,,,,,,,,0,,,83,101
123180,note_on,0,0,1,,,,,,,,,0,,,88,101
123180,note_on,0,0,1,,,,,,,,,0,,,92,101
123186,note_on,6,0,1,,,,,,,,,0,,,92,0
123186,note_on,0,0,1,,,,,,,,,0,,,88,0
123186,note_on,0,0,1,,,,,,,,,0,,,83,0
123210,note_on,0,0,3,,,,,,,,,2,,,52,101
123210,note_on,30,0,3,,,,,,,,,2,,,40,0
123240,note_on,0,0,3,,,,,,,,,2,,,45,101
123240,note_on,30,0,3,,,,,,,,,2,,,52,0
123240,note_on,54,0,1,,,,,,,,,0,,,84,101
123240,note_on,0,0,1,,,,,,,,,0,,,88,101
123240,note_on,0,0,1,,,,,,,,,0,,,93,101
123246,note_on,6,0,1,,,,,,,,,0,,,93,0
123246,note_on,0,0,1,,,,,,,,,0,,,88,0
123246,note_on,0,0,1,,,,,,,,,0,,,84,0
123270,note_on,30,0,3,,,,,,,,,2,,,45,0
123270,note_on,0,0,3,,,,,,,,,2,,,52,101
123300,note_on,0,0,1,,,,,,,,,0,,,88,101
123300,note_on,0,0,1,,,,,,,,,0,,,92,101
123300,note_on,0,0,3,,,,,,,,,2,,,40,101
123300,note_on,54,0,1,,,,,,,,,0,,,83,101
123300,note_on,30,0,3,,,,,,,,,2,,,52,0
123306,note_on,6,0,1,,,,,,,,,0,,,92,0
123306,note_on,0,0,1,,,,,,,,,0,,,88,0
123306,note_on,0,0,1,,,,,,,,,0,,,83,0
123330,note_on,0,0,3,,,,,,,,,2,,,52,101
123330,note_on,30,0,3,,,,,,,,,2,,,40,0
123360,note_on,30,0,3,,,,,,,,,2,,,52,0
123360,note_on,54,0,1,,,,,,,,,0,,,84,101
123360,note_on,0,0,1,,,,,,,,,0,,,88,101
123360,note_on,0,0,1,,,,,,,,,0,,,93,101
123360,note_on,0,0,3,,,,,,,,,2,,,45,101
123366,note_on,0,0,1,,,,,,,,,0,,,88,0
123366,note_on,0,0,1,,,,,,,,,0,,,84,0
123366,note_on,6,0,1,,,,,,,,,0,,,93,0
123390,note_on,0,0,3,,,,,,,,,2,,,52,101
123390,note_on,30,0,3,,,,,,,,,2,,,45,0
123420,note_on,0,0,3,,,,,,,,,2,,,40,101
123420,note_on,30,0,3,,,,,,,,,2,,,52,0
123420,note_on,0,0,1,,,,,,,,,0,,,92,101
123420,note_on,54,0,1,,,,,,,,,0,,,88,101
123420,note_on,0,0,1,,,,,,,,,0,,,95,101
123450,note_on,30,0,3,,,,,,,,,2,,,40,0
123450,note_on,0,0,3,,,,,,,,,2,,,52,101
123480,note_on,0,0,1,,,,,,,,,0,,,93,101
123480,note_on,0,0,1,,,,,,,,,0,,,96,101
123480,note_on,0,0,1,,,,,,,,,0,,,88,101
123480,note_on,0,0,1,,,,,,,,,0,,,88,0
123480,note_on,0,0,1,,,,,,,,,0,,,92,0
123480,note_on,60,0,1,,,,,,,,,0,,,95,0
123480,note_on,0,0,3,,,,,,,,,2,,,45,101
123480,note_on,30,0,3,,,,,,,,,2,,,52,0
123486,note_on,0,0,1,,,,,,,,,0,,,93,0
123486,note_on,0,0,1,,,,,,,,,0,,,88,0
123486,note_on,6,0,1,,,,,,,,,0,,,96,0
123510,note_on,0,0,3,,,,,,,,,2,,,52,101
123510,note_on,30,0,3,,,,,,,,,2,,,45,0
123540,note_on,0,0,1,,,,,,,,,0,,,95,101
123540,note_on,0,0,3,,,,,,,,,2,,,40,101
123540,note_on,30,0,3,,,,,,,,,2,,,52,0
123540,note_on,0,0,1,,,,,,,,,0,,,92,101
123540,note_on,0,0,1,,,,,,,,,0,,,88,101
123540,control_change,54,0,1,,,,,,,,,0,64,0,,
123546,note_on,0,0,1,,,,,,,,,0,,,88,0
123546,note_on,0,0,1,,,,,,,,,0,,,92,0
123546,note_on,6,0,1,,,,,,,,,0,,,95,0
123570,control_change,0,0,3,,,,,,,,,2,64,0,,
123570,note_on,30,0,3,,,,,,,,,2,,,40,0
123570,note_on,0,0,3,,,,,,,,,2,,,52,101
123600,note_on,30,0,3,,,,,,,,,2,,,52,0
123600,note_on,0,0,1,,,,,,,,,0,,,96,101
123600,control_change,54,0,1,,,,,,,,,0,64,127,,
123630,note_on,30,0,1,,,,,,,,,0,,,96,0
123630,note_on,0,0,1,,,,,,,,,0,,,98,101
123660,note_on,30,0,1,,,,,,,,,0,,,98,0
123660,note_on,0,0,1,,,,,,,,,0,,,95,101
123690,note_on,30,0,1,,,,,,,,,0,,,95,0
123690,note_on,0,0,1,,,,,,,,,0,,,96,101
123720,note_on,30,0,1,,,,,,,,,0,,,96,0
123720,note_on,0,0,1,,,,,,,,,0,,,93,101
123720,note_on,0,0,3,,,,,,,,,2,,,48,101
123720,note_on,0,0,3,,,,,,,,,2,,,36,101
123720,control_change,120,0,3,,,,,,,,,2,64,127,,
123726,note_on,0,0,3,,,,,,,,,2,,,36,0
123726,note_on,6,0,3,,,,,,,,,2,,,48,0
123750,note_on,30,0,1,,,,,,,,,0,,,93,0
123750,note_on,0,0,1,,,,,,,,,0,,,88,101
123780,note_on,30,0,1,,,,,,,,,0,,,88,0
123780,note_on,0,0,1,,,,,,,,,0,,,84,101
123780,note_on,0,0,3,,,,,,,,,2,,,33,101
123780,control_change,54,0,3,,,,,,,,,2,64,0,,
123780,note_on,0,0,3,,,,,,,,,2,,,45,101
123786,note_on,6,0,3,,,,,,,,,2,,,45,0
123786,note_on,0,0,3,,,,,,,,,2,,,33,0
123810,note_on,0,0,1,,,,,,,,,0,,,81,101
123810,note_on,30,0,1,,,,,,,,,0,,,84,0
123840,control_change,0,0,1,,,,,,,,,0,64,127,,
123840,note_on,30,0,1,,,,,,,,,0,,,81,0
123840,note_on,0,0,1,,,,,,,,,0,,,93,101
123870,note_on,0,0,1,,,,,,,,,0,,,95,101
123870,note_on,30,0,1,,,,,,,,,0,,,93,0
123900,note_on,0,0,1,,,,,,,,,0,,,89,101
123900,note_on,30,0,1,,,,,,,,,0,,,95,0
123930,note_on,0,0,1,,,,,,,,,0,,,93,101
123930,note_on,30,0,1,,,,,,,,,0,,,89,0
123960,note_on,0,0,1,,,,,,,,,0,,,88,101
123960,note_on,0,0,3,,,,,,,,,2,,,48,101
123960,note_on,0,0,3,,,,,,,,,2,,,36,101
123960,control_change,174,0,3,,,,,,,,,2,64,127,,
123960,note_on,30,0,1,,,,,,,,,0,,,93,0
123966,note_on,0,0,3,,,,,,,,,2,,,36,0
123966,note_on,6,0,3,,,,,,,,,2,,,48,0
123990,note_on,0,0,1,,,,,,,,,0,,,84,101
123990,note_on,30,0,1,,,,,,,,,0,,,88,0
124020,note_on,0,0,1,,,,,,,,,0,,,81,101
124020,note_on,30,0,1,,,,,,,,,0,,,84,0
124020,control_change,54,0,3,,,,,,,,,2,64,0,,
124020,note_on,0,0,3,,,,,,,,,2,,,45,101
124020,note_on,0,0,3,,,,,,,,,2,,,33,101
124026,note_on,6,0,3,,,,,,,,,2,,,45,0
124026,note_on,0,0,3,,,,,,,,,2,,,33,0
124050,note_on,30,0,1,,,,,,,,,0,,,81,0
124050,control_change,0,0,1,,,,,,,,,0,64,0,,
124050,note_on,0,0,1,,,,,,,,,0,,,76,101
124080,control_change,0,0,1,,,,,,,,,0,64,127,,
124080,note_on,30,0,1,,,,,,,,,0,,,76,0
124080,note_on,0,0,1,,,,,,,,,0,,,88,88
124110,note_on,30,0,1,,,,,,,,,0,,,88,0
124110,note_on,0,0,1,,,,,,,,,0,,,89,88
124140,note_on,30,0,1,,,,,,,,,0,,,89,0
124140,note_on,0,0,1,,,,,,,,,0,,,86,88
124170,note_on,30,0,1,,,,,,,,,0,,,86,0
124170,note_on,0,0,1,,,,,,,,,0,,,88,88
124200,note_on,0,0,1,,,,,,,,,0,,,84,88
124200,control_change,174,0,3,,,,,,,,,2,64,127,,
124200,note_on,0,0,3,,,,,,,,,2,,,36,101
124200,note_on,0,0,3,,,,,,,,,2,,,48,101
124200,note_on,30,0,1,,,,,,,,,0,,,88,0
124206,note_on,6,0,3,,,,,,,,,2,,,48,0
124206,note_on,0,0,3,,,,,,,,,2,,,36,0
124230,note_on,30,0,1,,,,,,,,,0,,,84,0
124230,note_on,0,0,1,,,,,,,,,0,,,81,88
124260,note_on,30,0,1,,,,,,,,,0,,,81,0
124260,note_on,0,0,1,,,,,,,,,0,,,76,88
124260,note_on,0,0,3,,,,,,,,,2,,,45,101
124260,note_on,0,0,3,,,,,,,,,2,,,33,101
124260,control_change,54,0,3,,,,,,,,,2,64,0,,
124266,note_on,0,0,3,,,,,,,,,2,,,33,0
124266,note_on,6,0,3,,,,,,,,,2,,,45,0
124290,note_on,30,0,1,,,,,,,,,0,,,76,0
124290,note_on,0,0,1,,,,,,,,,0,,,72,88
124320,note_on,0,0,1,,,,,,,,,0,,,84,75
124320,note_on,30,0,1,,,,,,,,,0,,,72,0
124350,note_on,30,0,1,,,,,,,,,0,,,84,0
124350,note_on,0,0,1,,,,,,,,,0,,,86,75
124380,note_on,30,0,1,,,,,,,,,0,,,86,0
124380,note_on,0,0,1,,,,,,,,,0,,,83,75
124410,note_on,30,0,1,,,,,,,,,0,,,83,0
124410,note_on,0,0,1,,,,,,,,,0,,,84,75
124440,note_on,30,0,1,,,,,,,,,0,,,84,0
124440,note_on,0,0,1,,,,,,,,,0,,,81,75
124440,note_on,0,0,3,,,,,,,,,2,,,48,101
124440,note_on,0,0,3,,,,,,,,,2,,,36,101
124440,control_change,174,0,3,,,,,,,,,2,64,127,,
124446,note_on,0,0,3,,,,,,,,,2,,,36,0
124446,note_on,6,0,3,,,,,,,,,2,,,48,0
124470,note_on,0,0,1,,,,,,,,,0,,,76,75
124470,note_on,30,0,1,,,,,,,,,0,,,81,0
124500,note_on,0,0,1,,,,,,,,,0,,,72,75
124500,note_on,30,0,1,,,,,,,,,0,,,76,0
124500,note_on,0,0,3,,,,,,,,,2,,,45,101
124500,note_on,0,0,3,,,,,,,,,2,,,33,101
124500,control_change,54,0,3,,,,,,,,,2,64,0,,
124506,note_on,0,0,3,,,,,,,,,2,,,33,0
124506,note_on,6,0,3,,,,,,,,,2,,,45,0
124530,note_on,30,0,1,,,,,,,,,0,,,72,0
124530,control_change,0,0,1,,,,,,,,,0,64,0,,
124530,note_on,0,0,1,,,,,,,,,0,,,69,75
124560,note_on,30,0,1,,,,,,,,,0,,,69,0
124560,control_change,0,0,1,,,,,,,,,0,64,127,,
124560,note_on,0,0,1,,,,,,,,,0,,,81,62
124590,note_on,0,0,1,,,,,,,,,0,,,83,62
124590,note_on,30,0,1,,,,,,,,,0,,,81,0
124620,note_on,30,0,1,,,,,,,,,0,,,83,0
124620,note_on,0,0,1,,,,,,,,,0,,,77,62
124650,note_on,30,0,1,,,,,,,,,0,,,77,0
124650,note_on,0,0,1,,,,,,,,,0,,,81,62
124680,note_on,0,0,3,,,,,,,,,2,,,48,62
124680,note_on,30,0,1,,,,,,,,,0,,,81,0
124680,note_on,174,0,3,,,,,,,,,2,,,36,62
124680,control_change,0,0,1,,,,,,,,,0,64,0,,
124680,note_on,0,0,1,,,,,,,,,0,,,76,62
124686,note_on,6,0,3,,,,,,,,,2,,,48,0
124686,note_on,0,0,3,,,,,,,,,2,,,36,0
124710,note_on,0,0,1,,,,,,,,,0,,,72,62
124710,note_on,30,0,1,,,,,,,,,0,,,76,0
124740,note_on,30,0,1,,,,,,,,,0,,,72,0
124740,note_on,0,0,1,,,,,,,,,0,,,69,62
124740,note_on,0,0,3,,,,,,,,,2,,,45,62
124740,note_on,0,0,3,,,,,,,,,2,,,33,62
124740,control_change,54,0,3,,,,,,,,,2,64,0,,
124746,note_on,6,0,3,,,,,,,,,2,,,45,0
124746,note_on,0,0,3,,,,,,,,,2,,,33,0
124770,note_on,30,0,1,,,,,,,,,0,,,69,0
124770,note_on,0,0,1,,,,,,,,,0,,,64,62
124800,note_on,30,0,1,,,,,,,,,0,,,64,0
124800,control_change,0,0,1,,,,,,,,,0,64,127,,
124800,note_on,0,0,1,,,,,,,,,0,,,76,49
124830,note_on,30,0,1,,,,,,,,,0,,,76,0
124830,note_on,0,0,1,,,,,,,,,0,,,77,49
124860,note_on,0,0,1,,,,,,,,,0,,,74,49
124860,note_on,30,0,1,,,,,,,,,0,,,77,0
124890,note_on,0,0,1,,,,,,,,,0,,,76,49
124890,note_on,30,0,1,,,,,,,,,0,,,74,0
124920,note_on,174,0,3,,,,,,,,,2,,,36,62
124920,note_on,0,0,1,,,,,,,,,0,,,72,49
124920,note_on,30,0,1,,,,,,,,,0,,,76,0
124920,note_on,0,0,3,,,,,,,,,2,,,48,62
124926,note_on,0,0,3,,,,,,,,,2,,,36,0
124926,note_on,6,0,3,,,,,,,,,2,,,48,0
124950,note_on,0,0,1,,,,,,,,,0,,,69,49
124950,note_on,30,0,1,,,,,,,,,0,,,72,0
124980,note_on,0,0,3,,,,,,,,,2,,,33,62
124980,control_change,54,0,3,,,,,,,,,2,64,0,,
124980,note_on,0,0,1,,,,,,,,,0,,,64,49
124980,note_on,0,0,3,,,,,,,,,2,,,45,62
124980,note_on,30,0,1,,,,,,,,,0,,,69,0
124986,note_on,6,0,3,,,,,,,,,2,,,45,0
124986,note_on,0,0,3,,,,,,,,,2,,,33,0
125010,note_on,30,0,1,,,,,,,,,0,,,64,0
125010,note_on,0,0,1,,,,,,,,,0,,,60,49
125040,control_change,0,0,1,,,,,,,,,0,64,0,,
125040,note_on,30,0,1,,,,,,,,,0,,,60,0
125040,note_on,0,0,1,,,,,,,,,0,,,72,49
125070,note_on,0,0,1,,,,,,,,,0,,,74,49
125070,note_on,30,0,1,,,,,,,,,0,,,72,0
125100,note_on,0,0,1,,,,,,,,,0,,,71,49
125100,note_on,30,0,1,,,,,,,,,0,,,74,0
125130,note_on,0,0,1,,,,,,,,,0,,,72,49
125130,note_on,30,0,1,,,,,,,,,0,,,71,0
125160,control_change,0,0,1,,,,,,,,,0,64,127,,
125160,note_on,30,0,1,,,,,,,,,0,,,72,0
125160,control_change,174,0,3,,,,,,,,,2,64,127,,
125160,note_on,0,0,3,,,,,,,,,2,,,36,62
125160,note_on,0,0,3,,,,,,,,,2,,,48,62
125160,note_on,0,0,1,,,,,,,,,0,,,69,49
125166,note_on,6,0,3,,,,,,,,,2,,,48,0
125166,note_on,0,0,3,,,,,,,,,2,,,36,0
125190,note_on,0,0,1,,,,,,,,,0,,,64,49
125190,note_on,30,0,1,,,,,,,,,0,,,69,0
125220,note_on,0,0,3,,,,,,,,,2,,,45,62
125220,note_on,0,0,1,,,,,,,,,0,,,60,49
125220,note_on,30,0,1,,,,,,,,,0,,,64,0
125220,note_on,0,0,3,,,,,,,,,2,,,33,62
125220,control_change,54,0,3,,,,,,,,,2,64,0,,
125226,note_on,6,0,3,,,,,,,,,2,,,45,0
125226,note_on,0,0,3,,,,,,,,,2,,,33,0
125250,note_on,30,0,1,,,,,,,,,0,,,60,0
125250,note_on,0,0,1,,,,,,,,,0,,,57,49
125280,note_on,0,0,1,,,,,,,,,0,,,69,49
125280,note_on,30,0,1,,,,,,,,,0,,,57,0
125280,note_on,0,0,3,,,,,,,,,2,,,48,62
125280,note_on,54,0,3,,,,,,,,,2,,,36,62
125286,note_on,6,0,3,,,,,,,,,2,,,48,0
125286,note_on,0,0,3,,,,,,,,,2,,,36,0
125310,note_on,0,0,1,,,,,,,,,0,,,64,49
125310,note_on,30,0,1,,,,,,,,,0,,,69,0
125340,note_on,0,0,1,,,,,,,,,0,,,60,49
125340,note_on,30,0,1,,,,,,,,,0,,,64,0
125340,control_change,54,0,3,,,,,,,,,2,64,0,,
125340,note_on,0,0,3,,,,,,,,,2,,,33,62
125340,note_on,0,0,3,,,,,,,,,2,,,45,62
125346,note_on,0,0,3,,,,,,,,,2,,,33,0
125346,note_on,6,0,3,,,,,,,,,2,,,45,0
125370,note_on,0,0,1,,,,,,,,,0,,,57,49
125370,control_change,0,0,1,,,,,,,,,0,64,0,,
125370,note_on,30,0,1,,,,,,,,,0,,,60,0
125400,note_on,0,0,1,,,,,,,,,0,,,69,49
125400,control_change,0,0,1,,,,,,,,,0,64,127,,
125400,note_on,30,0,1,,,,,,,,,0,,,57,0
125400,control_change,54,0,3,,,,,,,,,2,64,127,,
125400,note_on,0,0,3,,,,,,,,,2,,,36,62
125400,note_on,0,0,3,,,,,,,,,2,,,48,62
125406,note_on,6,0,3,,,,,,,,,2,,,48,0
125406,note_on,0,0,3,,,,,,,,,2,,,36,0
125430,note_on,0,0,1,,,,,,,,,0,,,64,49
125430,note_on,30,0,1,,,,,,,,,0,,,69,0
125460,note_on,0,0,1,,,,,,,,,0,,,60,49
125460,note_on,30,0,1,,,,,,,,,0,,,64,0
125460,note_on,0,0,3,,,,,,,,,2,,,45,62
125460,note_on,54,0,3,,,,,,,,,2,,,33,62
125466,note_on,0,0,3,,,,,,,,,2,,,33,0
125466,note_on,6,0,3,,,,,,,,,2,,,45,0
125490,note_on,0,0,1,,,,,,,,,0,,,57,49
125490,note_on,30,0,1,,,,,,,,,0,,,60,0
125520,control_change,0,0,1,,,,,,,,,0,64,0,,
125520,note_on,0,0,3,,,,,,,,,2,,,57,62
125520,note_on,0,0,3,,,,,,,,,2,,,45,62
125520,control_change,54,0,3,,,,,,,,,2,64,0,,
125520,note_on,0,0,1,,,,,,,,,0,,,69,49
125520,note_on,30,0,1,,,,,,,,,0,,,57,0
125580,note_on,60,0,3,,,,,,,,,2,,,57,0
125580,note_on,60,0,1,,,,,,,,,0,,,69,0
125580,note_on,0,0,3,,,,,,,,,2,,,45,0
125760,note_on,0,0,1,,,,,,,,,0,,,76,101
125760,note_on,0,0,1,,,,,,,,,0,,,71,101
125760,note_on,0,0,1,,,,,,,,,0,,,68,101
125760,note_on,0,0,1,,,,,,,,,0,,,64,101
125760,control_change,180,0,1,,,,,,,,,0,64,0,,
125760,note_on,180,0,3,,,,,,,,,2,,,40,88
125760,note_on,0,0,3,,,,,,,,,2,,,52,88
125760,note_on,0,0,3,,,,,,,,,2,,,47,88
125820,note_on,0,0,3,,,,,,,,,2,,,40,0
125820,note_on,0,0,1,,,,,,,,,0,,,71,0
125820,note_on,0,0,1,,,,,,,,,0,,,68,0
125820,note_on,0,0,3,,,,,,,,,2,,,47,0
125820,note_on,60,0,1,,,,,,,,,0,,,76,0
125820,note_on,0,0,1,,,,,,,,,0,,,64,0
125820,note_on,60,0,3,,,,,,,,,2,,,52,0
126000,note_on,0,0,1,,,,,,,,,0,,,81,101
126000,note_on,0,0,1,,,,,,,,,0,,,76,101
126000,note_on,180,0,1,,,,,,,,,0,,,69,101
126000,note_on,180,0,3,,,,,,,,,2,,,33,88
126000,note_on,0,0,1,,,,,,,,,0,,,72,101
126000,note_on,0,0,3,,,,,,,,,2,,,40,88
126000,note_on,0,0,3,,,,,,,,,2,,,45,88
126000,note_on,0,0,3,,,,,,,,,2,,,36,88
126060,note_on,0,0,3,,,,,,,,,2,,,33,0
126060,note_on,60,0,3,,,,,,,,,2,,,45,0
126060,note_on,0,0,3,,,,,,,,,2,,,40,0
126060,note_on,60,0,1,,,,,,,,,0,,,81,0
126060,note_on,0,0,1,,,,,,,,,0,,,69,0
126060,note_on,0,0,1,,,,,,,,,0,,,72,0
126060,note_on,0,0,1,,,,,,,,,0,,,76,0
126060,note_on,0,0,3,,,,,,,,,2,,,36,0
126720,control_change,7440,0,2,,,,,,,,,1,64,0,,
126720,end_of_track,0,1,3,,,,,,,,,,,,,
126720,control_change,660,0,3,,,,,,,,,2,64,0,,
126720,end_of_track,0,1,2,,,,,,,,,,,,,
126720,control_change,660,0,1,,,,,,,,,0,64,0,,
126720,end_of_track,0,1,1,,,,,,,,,,,,,
126720,control_change,10500,0,4,,,,,,,,,3,64,0,,
126720,end_of_track,0,1,4,,,,,,,,,,,,,
