tick,type,time,meta,track,numerator,denominator,clocks_per_click,notated_32nd_notes_per_beat,key,tempo,port,program,channel,control,value,note,velocity
0,track_name,0,1,0,,,,,,,,,,,,,
0,control_change,0,0,3,,,,,,,,,2,64,127,,
0,control_change,0,0,4,,,,,,,,,3,10,30,,
0,control_change,0,0,4,,,,,,,,,3,7,127,,
0,program_change,0,0,4,,,,,,,,0,3,,,,
0,track_name,0,1,4,,,,,,,,,,,,,
0,midi_port,0,1,4,,,,,,,0,,,,,,
0,note_on,0,0,3,,,,,,,,,2,,,46,36
0,midi_port,0,1,2,,,,,,,0,,,,,,
0,program_change,0,0,2,,,,,,,,0,1,,,,
0,control_change,0,0,2,,,,,,,,,1,7,127,,
0,control_change,0,0,2,,,,,,,,,1,10,90,,
0,midi_port,0,1,3,,,,,,,0,,,,,,
0,track_name,0,1,3,,,,,,,,,,,,,
0,program_change,0,0,3,,,,,,,,0,2,,,,
0,track_name,0,1,2,,,,,,,,,,,,,
0,control_change,0,0,3,,,,,,,,,2,7,127,,
0,control_change,0,0,3,,,,,,,,,2,10,30,,
0,note_on,0,0,1,,,,,,,,,0,,,58,49
0,key_signature,0,1,0,,,,,Eb,,,,,,,,
0,set_tempo,0,1,0,,,,,,416667,,,,,,,
0,copyright,0,1,0,,,,,,,,,,,,,
0,midi_port,0,1,1,,,,,,,0,,,,,,
0,time_signature,0,1,0,1,4,24,8,,,,,,,,,
0,control_change,0,0,1,,,,,,,,,0,64,127,,
0,text,0,1,0,,,,,,,,,,,,,
0,control_change,0,0,1,,,,,,,,,0,7,127,,
0,program_change,0,0,1,,,,,,,,0,0,,,,
0,track_name,0,1,1,,,,,,,,,,,,,
0,control_change,0,0,1,,,,,,,,,0,10,90,,
120,note_on,120,0,1,,,,,,,,,0,,,58,0
120,note_on,120,0,3,,,,,,,,,2,,,46,0
120,set_tempo,0,1,0,,,,,,416667,,,,,,,
120,time_signature,120,1,0,3,4,24,8,,,,,,,,,
120,note_on,0,0,3,,,,,,,,,2,,,43,36
120,note_on,0,0,1,,,,,,,,,0,,,55,49
240,note_on,0,0,3,,,,,,,,,2,,,46,36
240,note_on,0,0,1,,,,,,,,,0,,,58,49
240,note_on,120,0,3,,,,,,,,,2,,,43,0
240,note_on,120,0,1,,,,,,,,,0,,,55,0
360,note_on,120,0,1,,,,,,,,,0,,,58,0
360,note_on,0,0,1,,,,,,,,,0,,,63,49
360,note_on,120,0,3,,,,,,,,,2,,,46,0
360,note_on,0,0,3,,,,,,,,,2,,,51,36
480,note_on,0,0,1,,,,,,,,,0,,,67,49
480,set_tempo,360,1,0,,,,,,416667,,,,,,,
480,note_on,120,0,3,,,,,,,,,2,,,51,0
480,note_on,0,0,3,,,,,,,,,2,,,55,36
480,note_on,120,0,1,,,,,,,,,0,,,63,0
705,note_on,225,0,1,,,,,,,,,0,,,67,49
705,note_on,225,0,3,,,,,,,,,2,,,55,36
720,note_on,0,0,3,,,,,,,,,2,,,55,0
720,control_change,0,0,3,,,,,,,,,2,64,0,,
720,note_on,0,0,3,,,,,,,,,2,,,58,36
720,note_on,0,0,1,,,,,,,,,0,,,67,0
720,note_on,0,0,1,,,,,,,,,0,,,70,49
720,control_change,0,0,1,,,,,,,,,0,64,0,,
720,note_on,15,0,3,,,,,,,,,2,,,55,0
720,note_on,15,0,1,,,,,,,,,0,,,67,0
840,control_change,0,0,1,,,,,,,,,0,64,127,,
840,note_on,0,0,1,,,,,,,,,0,,,70,49
840,note_on,120,0,3,,,,,,,,,2,,,58,0
840,note_on,120,0,1,,,,,,,,,0,,,70,0
840,control_change,0,0,3,,,,,,,,,2,64,127,,
930,note_on,0,0,1,,,,,,,,,0,,,62,49
930,note_on,90,0,1,,,,,,,,,0,,,70,0
960,note_on,0,0,3,,,,,,,,,2,,,53,36
960,note_on,120,0,3,,,,,,,,,2,,,46,36
960,note_on,0,0,1,,,,,,,,,0,,,62,49
960,note_on,30,0,1,,,,,,,,,0,,,62,0
960,note_on,0,0,3,,,,,,,,,2,,,56,36
972,note_on,12,0,3,,,,,,,,,2,,,56,0
972,note_on,12,0,1,,,,,,,,,0,,,62,0
972,note_on,0,0,3,,,,,,,,,2,,,46,0
972,note_on,0,0,3,,,,,,,,,2,,,53,0
1080,note_on,108,0,1,,,,,,,,,0,,,62,49
1080,note_on,0,0,3,,,,,,,,,2,,,56,36
1080,note_on,0,0,3,,,,,,,,,2,,,53,36
1080,note_on,108,0,3,,,,,,,,,2,,,46,36
1092,note_on,0,0,3,,,,,,,,,2,,,46,0
1092,note_on,12,0,3,,,,,,,,,2,,,56,0
1092,note_on,0,0,3,,,,,,,,,2,,,53,0
1092,note_on,12,0,1,,,,,,,,,0,,,62,0
1200,note_on,0,0,3,,,,,,,,,2,,,56,36
1200,note_on,0,0,3,,,,,,,,,2,,,53,36
1200,note_on,0,0,3,,,,,,,,,2,,,46,36
1200,note_on,0,0,1,,,,,,,,,0,,,62,49
1200,control_change,108,0,1,,,,,,,,,0,64,0,,
1200,control_change,108,0,3,,,,,,,,,2,64,0,,
1320,note_on,0,0,3,,,,,,,,,2,,,53,0
1320,note_on,120,0,1,,,,,,,,,0,,,62,0
1320,note_on,0,0,3,,,,,,,,,2,,,46,0
1320,note_on,120,0,3,,,,,,,,,2,,,56,0
1440,note_on,120,0,1,,,,,,,,,0,,,62,49
1560,note_on,0,0,3,,,,,,,,,2,,,51,36
1560,note_on,120,0,1,,,,,,,,,0,,,62,0
1560,control_change,0,0,1,,,,,,,,,0,64,127,,
1560,note_on,0,0,1,,,,,,,,,0,,,63,49
1560,note_on,240,0,3,,,,,,,,,2,,,43,36
1680,note_on,120,0,1,,,,,,,,,0,,,63,0
1680,note_on,0,0,1,,,,,,,,,0,,,67,49
1800,note_on,0,0,1,,,,,,,,,0,,,59,49
1800,note_on,120,0,1,,,,,,,,,0,,,67,0
1800,control_change,0,0,1,,,,,,,,,0,64,0,,
1920,note_on,120,0,1,,,,,,,,,0,,,59,0
1920,control_change,0,0,1,,,,,,,,,0,64,127,,
1920,note_on,0,0,1,,,,,,,,,0,,,60,49
1920,note_on,0,0,3,,,,,,,,,2,,,43,0
1920,note_on,0,0,3,,,,,,,,,2,,,51,36
1920,note_on,360,0,3,,,,,,,,,2,,,51,0
1920,note_on,1920,0,4,,,,,,,,,3,,,44,36
2025,note_on,105,0,1,,,,,,,,,0,,,60,49
2040,note_on,0,0,3,,,,,,,,,2,,,52,62
2040,note_on,0,0,1,,,,,,,,,0,,,70,75
2040,note_on,0,0,1,,,,,,,,,0,,,60,0
2040,note_on,15,0,1,,,,,,,,,0,,,60,0
2040,note_on,120,0,3,,,,,,,,,2,,,51,0
2100,note_on,0,0,1,,,,,,,,,0,,,68,49
2100,note_on,60,0,1,,,,,,,,,0,,,70,0
2160,note_on,0,0,1,,,,,,,,,0,,,67,49
2160,control_change,0,0,1,,,,,,,,,0,64,0,,
2160,note_on,60,0,1,,,,,,,,,0,,,68,0
2220,note_on,60,0,1,,,,,,,,,0,,,67,0
2220,note_on,0,0,1,,,,,,,,,0,,,65,49
2220,note_on,180,0,3,,,,,,,,,2,,,52,0
2220,note_on,0,0,3,,,,,,,,,2,,,53,36
2280,note_on,360,0,4,,,,,,,,,3,,,44,0
2280,note_on,0,0,1,,,,,,,,,0,,,63,49
2280,control_change,0,0,1,,,,,,,,,0,64,127,,
2280,note_on,60,0,1,,,,,,,,,0,,,65,0
2280,note_on,60,0,3,,,,,,,,,2,,,53,0
2280,note_on,0,0,3,,,,,,,,,2,,,46,36
2280,note_on,0,0,3,,,,,,,,,2,,,55,36
2400,note_on,120,0,1,,,,,,,,,0,,,63,0
2400,note_on,0,0,1,,,,,,,,,0,,,67,49
2520,note_on,0,0,3,,,,,,,,,2,,,46,54
2520,note_on,240,0,3,,,,,,,,,2,,,55,0
2520,note_on,0,0,3,,,,,,,,,2,,,46,0
2520,note_on,0,0,3,,,,,,,,,2,,,57,62
2520,note_on,0,0,1,,,,,,,,,0,,,63,49
2520,note_on,120,0,1,,,,,,,,,0,,,67,0
2520,control_change,0,0,1,,,,,,,,,0,64,0,,
2520,note_on,0,0,1,,,,,,,,,0,,,66,49
2520,note_on,0,0,1,,,,,,,,,0,,,72,49
2640,note_on,0,0,3,,,,,,,,,2,,,58,36
2640,note_on,120,0,3,,,,,,,,,2,,,57,0
2640,note_on,0,0,1,,,,,,,,,0,,,66,0
2640,note_on,0,0,1,,,,,,,,,0,,,63,0
2640,note_on,120,0,1,,,,,,,,,0,,,72,0
2640,note_on,0,0,1,,,,,,,,,0,,,65,49
2640,note_on,0,0,1,,,,,,,,,0,,,70,49
2640,note_on,0,0,1,,,,,,,,,0,,,62,49
2760,note_on,120,0,1,,,,,,,,,0,,,70,0
2760,note_on,0,0,1,,,,,,,,,0,,,65,0
2760,note_on,0,0,1,,,,,,,,,0,,,62,0
2760,note_on,120,0,3,,,,,,,,,2,,,58,0
2760,note_on,0,0,3,,,,,,,,,2,,,46,0
2880,control_change,120,0,3,,,,,,,,,2,64,127,,
2880,control_change,120,0,1,,,,,,,,,0,64,127,,
2880,note_on,0,0,1,,,,,,,,,0,,,70,49
2880,note_on,0,0,3,,,,,,,,,2,,,58,36
3000,note_on,0,0,3,,,,,,,,,2,,,55,36
3000,note_on,0,0,1,,,,,,,,,0,,,67,49
3000,note_on,120,0,1,,,,,,,,,0,,,70,0
3000,note_on,120,0,3,,,,,,,,,2,,,58,0
3120,note_on,120,0,3,,,,,,,,,2,,,55,0
3120,note_on,0,0,3,,,,,,,,,2,,,58,36
3120,note_on,120,0,1,,,,,,,,,0,,,67,0
3120,note_on,0,0,1,,,,,,,,,0,,,70,49
3240,note_on,120,0,3,,,,,,,,,2,,,58,0
3240,note_on,120,0,1,,,,,,,,,0,,,70,0
3240,note_on,0,0,1,,,,,,,,,0,,,75,49
3240,note_on,0,0,3,,,,,,,,,2,,,63,36
3360,note_on,120,0,3,,,,,,,,,2,,,63,0
3360,note_on,0,0,3,,,,,,,,,2,,,67,36
3360,note_on,0,0,1,,,,,,,,,0,,,79,49
3360,note_on,120,0,1,,,,,,,,,0,,,75,0
3585,note_on,225,0,1,,,,,,,,,0,,,79,49
3585,note_on,225,0,3,,,,,,,,,2,,,67,36
3600,note_on,0,0,3,,,,,,,,,2,,,67,0
3600,control_change,0,0,3,,,,,,,,,2,64,0,,
3600,note_on,0,0,3,,,,,,,,,2,,,70,62
3600,note_on,15,0,3,,,,,,,,,2,,,67,0
3600,note_on,15,0,1,,,,,,,,,0,,,79,0
3600,note_on,0,0,1,,,,,,,,,0,,,79,0
3600,note_on,0,0,1,,,,,,,,,0,,,82,75
3600,control_change,0,0,1,,,,,,,,,0,64,0,,
3720,control_change,0,0,3,,,,,,,,,2,64,127,,
3720,note_on,120,0,1,,,,,,,,,0,,,82,0
3720,control_change,0,0,1,,,,,,,,,0,64,127,,
3720,note_on,120,0,3,,,,,,,,,2,,,70,0
3720,note_on,0,0,1,,,,,,,,,0,,,82,49
3810,note_on,90,0,1,,,,,,,,,0,,,82,0
3810,note_on,0,0,1,,,,,,,,,0,,,74,49
3840,note_on,0,0,3,,,,,,,,,2,,,65,36
3840,note_on,0,0,3,,,,,,,,,2,,,68,36
3840,note_on,0,0,1,,,,,,,,,0,,,74,49
3840,note_on,30,0,1,,,,,,,,,0,,,74,0
3840,note_on,120,0,3,,,,,,,,,2,,,58,36
3852,note_on,0,0,3,,,,,,,,,2,,,58,0
3852,note_on,12,0,1,,,,,,,,,0,,,74,0
3852,note_on,0,0,3,,,,,,,,,2,,,65,0
3852,note_on,12,0,3,,,,,,,,,2,,,68,0
3960,note_on,0,0,3,,,,,,,,,2,,,65,36
3960,note_on,108,0,3,,,,,,,,,2,,,58,36
3960,note_on,108,0,1,,,,,,,,,0,,,74,49
3960,note_on,0,0,3,,,,,,,,,2,,,68,36
3972,note_on,12,0,3,,,,,,,,,2,,,68,0
3972,note_on,0,0,3,,,,,,,,,2,,,65,0
3972,note_on,0,0,3,,,,,,,,,2,,,58,0
3972,note_on,12,0,1,,,,,,,,,0,,,74,0
4080,note_on,0,0,3,,,,,,,,,2,,,58,36
4080,note_on,0,0,3,,,,,,,,,2,,,65,36
4080,note_on,0,0,1,,,,,,,,,0,,,74,49
4080,control_change,108,0,1,,,,,,,,,0,64,0,,
4080,note_on,0,0,3,,,,,,,,,2,,,68,36
4080,control_change,108,0,3,,,,,,,,,2,64,0,,
4200,note_on,0,0,3,,,,,,,,,2,,,58,0
4200,note_on,120,0,3,,,,,,,,,2,,,68,0
4200,note_on,120,0,1,,,,,,,,,0,,,74,0
4200,note_on,0,0,3,,,,,,,,,2,,,65,0
4320,note_on,120,0,1,,,,,,,,,0,,,74,49
4440,note_on,0,0,3,,,,,,,,,2,,,63,36
4440,note_on,0,0,1,,,,,,,,,0,,,75,49
4440,control_change,0,0,1,,,,,,,,,0,64,127,,
4440,note_on,120,0,1,,,,,,,,,0,,,74,0
4440,note_on,240,0,3,,,,,,,,,2,,,55,36
4560,note_on,120,0,1,,,,,,,,,0,,,75,0
4560,note_on,0,0,1,,,,,,,,,0,,,79,49
4680,control_change,0,0,1,,,,,,,,,0,64,0,,
4680,note_on,0,0,1,,,,,,,,,0,,,71,49
4680,note_on,120,0,1,,,,,,,,,0,,,79,0
4800,note_on,2520,0,4,,,,,,,,,3,,,56,36
4800,note_on,360,0,3,,,,,,,,,2,,,63,0
4800,note_on,0,0,3,,,,,,,,,2,,,63,36
4800,note_on,0,0,3,,,,,,,,,2,,,55,0
4800,note_on,0,0,1,,,,,,,,,0,,,72,49
4800,control_change,0,0,1,,,,,,,,,0,64,127,,
4800,note_on,120,0,1,,,,,,,,,0,,,71,0
4905,note_on,105,0,1,,,,,,,,,0,,,72,49
4920,note_on,120,0,3,,,,,,,,,2,,,63,0
4920,note_on,0,0,1,,,,,,,,,0,,,72,0
4920,note_on,15,0,1,,,,,,,,,0,,,72,0
4920,note_on,0,0,1,,,,,,,,,0,,,82,75
4920,note_on,0,0,3,,,,,,,,,2,,,64,62
4980,note_on,0,0,1,,,,,,,,,0,,,80,49
4980,note_on,60,0,1,,,,,,,,,0,,,82,0
5040,control_change,0,0,1,,,,,,,,,0,64,0,,
5040,note_on,60,0,1,,,,,,,,,0,,,80,0
5040,note_on,0,0,1,,,,,,,,,0,,,79,49
5100,note_on,0,0,3,,,,,,,,,2,,,65,36
5100,note_on,180,0,3,,,,,,,,,2,,,64,0
5100,note_on,60,0,1,,,,,,,,,0,,,79,0
5100,note_on,0,0,1,,,,,,,,,0,,,77,49
5160,note_on,0,0,3,,,,,,,,,2,,,58,36
5160,note_on,0,0,3,,,,,,,,,2,,,67,36
5160,note_on,360,0,4,,,,,,,,,3,,,56,0
5160,note_on,60,0,1,,,,,,,,,0,,,77,0
5160,control_change,0,0,1,,,,,,,,,0,64,127,,
5160,note_on,0,0,1,,,,,,,,,0,,,75,49
5160,note_on,60,0,3,,,,,,,,,2,,,65,0
5280,note_on,0,0,1,,,,,,,,,0,,,79,49
5280,note_on,120,0,1,,,,,,,,,0,,,75,0
5400,note_on,120,0,1,,,,,,,,,0,,,79,0
5400,control_change,0,0,1,,,,,,,,,0,64,0,,
5400,note_on,0,0,3,,,,,,,,,2,,,58,54
5400,note_on,0,0,1,,,,,,,,,0,,,74,67
5400,note_on,240,0,3,,,,,,,,,2,,,67,0
5400,note_on,0,0,3,,,,,,,,,2,,,68,62
5400,note_on,0,0,3,,,,,,,,,2,,,58,0
5400,note_on,0,0,1,,,,,,,,,0,,,82,75
5520,note_on,0,0,3,,,,,,,,,2,,,67,36
5520,note_on,0,0,1,,,,,,,,,0,,,74,0
5520,note_on,0,0,1,,,,,,,,,0,,,75,49
5520,note_on,0,0,1,,,,,,,,,0,,,79,49
5520,note_on,120,0,3,,,,,,,,,2,,,68,0
5520,note_on,0,0,3,,,,,,,,,2,,,58,0
5520,note_on,0,0,3,,,,,,,,,2,,,63,36
5520,note_on,120,0,1,,,,,,,,,0,,,82,0
5640,note_on,120,0,3,,,,,,,,,2,,,67,0
5640,note_on,0,0,3,,,,,,,,,2,,,63,0
5640,note_on,0,0,1,,,,,,,,,0,,,75,0
5640,note_on,120,0,1,,,,,,,,,0,,,79,0
5670,note_on,30,0,3,,,,,,,,,2,,,75,36
5670,note_on,30,0,1,,,,,,,,,0,,,87,49
5685,note_on,0,0,3,,,,,,,,,2,,,77,36
5685,note_on,15,0,3,,,,,,,,,2,,,75,0
5685,note_on,0,0,1,,,,,,,,,0,,,89,49
5685,note_on,15,0,1,,,,,,,,,0,,,87,0
5700,note_on,0,0,1,,,,,,,,,0,,,87,62
5700,note_on,0,0,3,,,,,,,,,2,,,75,49
5700,note_on,15,0,3,,,,,,,,,2,,,77,0
5700,note_on,15,0,1,,,,,,,,,0,,,89,0
5760,note_on,0,0,1,,,,,,,,,0,,,86,62
5760,note_on,60,0,3,,,,,,,,,2,,,75,0
5760,note_on,60,0,1,,,,,,,,,0,,,87,0
5760,note_on,0,0,3,,,,,,,,,2,,,74,49
5820,note_on,0,0,3,,,,,,,,,2,,,75,49
5820,note_on,60,0,3,,,,,,,,,2,,,74,0
5820,note_on,0,0,1,,,,,,,,,0,,,87,62
5820,note_on,60,0,1,,,,,,,,,0,,,86,0
5865,note_on,45,0,3,,,,,,,,,2,,,75,49
5865,note_on,45,0,1,,,,,,,,,0,,,87,62
5880,control_change,0,0,1,,,,,,,,,0,64,127,,
5880,note_on,0,0,1,,,,,,,,,0,,,91,62
5880,note_on,0,0,1,,,,,,,,,0,,,87,0
5880,note_on,15,0,1,,,,,,,,,0,,,87,0
5880,note_on,15,0,3,,,,,,,,,2,,,75,0
5880,note_on,0,0,3,,,,,,,,,2,,,75,0
5880,control_change,0,0,3,,,,,,,,,2,64,127,,
5880,note_on,0,0,3,,,,,,,,,2,,,79,49
5940,note_on,0,0,3,,,,,,,,,2,,,77,49
5940,note_on,0,0,1,,,,,,,,,0,,,89,62
5940,note_on,60,0,1,,,,,,,,,0,,,91,0
5940,note_on,60,0,3,,,,,,,,,2,,,79,0
6000,note_on,60,0,3,,,,,,,,,2,,,77,0
6000,note_on,0,0,3,,,,,,,,,2,,,77,49
6000,note_on,60,0,1,,,,,,,,,0,,,89,0
6000,note_on,0,0,1,,,,,,,,,0,,,89,62
6060,note_on,60,0,3,,,,,,,,,2,,,77,0
6060,note_on,0,0,3,,,,,,,,,2,,,75,49
6060,note_on,0,0,1,,,,,,,,,0,,,87,62
6060,note_on,60,0,1,,,,,,,,,0,,,89,0
6120,note_on,0,0,1,,,,,,,,,0,,,87,62
6120,note_on,60,0,1,,,,,,,,,0,,,87,0
6120,note_on,60,0,3,,,,,,,,,2,,,75,0
6120,note_on,0,0,3,,,,,,,,,2,,,75,49
6180,note_on,0,0,1,,,,,,,,,0,,,86,62
6180,note_on,60,0,1,,,,,,,,,0,,,87,0
6180,note_on,0,0,3,,,,,,,,,2,,,74,49
6180,note_on,60,0,3,,,,,,,,,2,,,75,0
6240,note_on,0,0,1,,,,,,,,,0,,,86,49
6240,note_on,60,0,1,,,,,,,,,0,,,86,0
6240,note_on,0,0,3,,,,,,,,,2,,,74,36
6240,note_on,60,0,3,,,,,,,,,2,,,74,0
6300,note_on,0,0,1,,,,,,,,,0,,,84,49
6300,note_on,0,0,3,,,,,,,,,2,,,72,36
6300,note_on,60,0,3,,,,,,,,,2,,,74,0
6300,note_on,60,0,1,,,,,,,,,0,,,86,0
6360,note_on,0,0,3,,,,,,,,,2,,,72,36
6360,note_on,0,0,1,,,,,,,,,0,,,84,49
6360,note_on,60,0,1,,,,,,,,,0,,,84,0
6360,note_on,60,0,3,,,,,,,,,2,,,72,0
6420,note_on,60,0,1,,,,,,,,,0,,,84,0
6420,note_on,0,0,1,,,,,,,,,0,,,82,49
6420,note_on,60,0,3,,,,,,,,,2,,,72,0
6420,note_on,0,0,3,,,,,,,,,2,,,70,36
6480,note_on,0,0,3,,,,,,,,,2,,,70,36
6480,note_on,60,0,3,,,,,,,,,2,,,70,0
6480,control_change,0,0,3,,,,,,,,,2,64,0,,
6480,note_on,60,0,1,,,,,,,,,0,,,82,0
6480,control_change,0,0,1,,,,,,,,,0,64,0,,
6480,note_on,0,0,1,,,,,,,,,0,,,82,49
6540,note_on,0,0,3,,,,,,,,,2,,,69,36
6540,note_on,60,0,3,,,,,,,,,2,,,70,0
6540,note_on,0,0,1,,,,,,,,,0,,,81,49
6540,note_on,60,0,1,,,,,,,,,0,,,82,0
6600,note_on,0,0,3,,,,,,,,,2,,,72,36
6600,note_on,0,0,3,,,,,,,,,2,,,65,36
6600,note_on,60,0,3,,,,,,,,,2,,,69,0
6600,note_on,60,0,1,,,,,,,,,0,,,81,0
6600,note_on,0,0,1,,,,,,,,,0,,,81,49
6600,note_on,0,0,3,,,,,,,,,2,,,75,36
6840,note_on,240,0,1,,,,,,,,,0,,,81,0
6840,note_on,0,0,1,,,,,,,,,0,,,89,49
6900,note_on,60,0,1,,,,,,,,,0,,,89,0
6960,note_on,0,0,3,,,,,,,,,2,,,65,0
6960,note_on,0,0,3,,,,,,,,,2,,,74,62
6960,control_change,60,0,1,,,,,,,,,0,64,127,,
6960,note_on,0,0,3,,,,,,,,,2,,,72,0
6960,note_on,360,0,3,,,,,,,,,2,,,75,0
6960,note_on,0,0,3,,,,,,,,,2,,,70,54
6960,note_on,0,0,1,,,,,,,,,0,,,80,75
7140,note_on,180,0,1,,,,,,,,,0,,,80,0
7140,note_on,0,0,1,,,,,,,,,0,,,89,49
7200,note_on,60,0,1,,,,,,,,,0,,,89,0
7200,note_on,0,0,1,,,,,,,,,0,,,86,49
7260,note_on,60,0,1,,,,,,,,,0,,,86,0
7260,control_change,0,0,1,,,,,,,,,0,64,0,,
7260,note_on,0,0,1,,,,,,,,,0,,,80,49
7320,note_on,60,0,1,,,,,,,,,0,,,80,0
7320,note_on,360,0,3,,,,,,,,,2,,,74,0
7320,control_change,0,0,3,,,,,,,,,2,64,127,,
7320,note_on,0,0,3,,,,,,,,,2,,,63,36
7320,note_on,0,0,3,,,,,,,,,2,,,75,36
7320,control_change,0,0,1,,,,,,,,,0,64,127,,
7320,note_on,0,0,1,,,,,,,,,0,,,79,49
7320,note_on,0,0,3,,,,,,,,,2,,,70,0
7380,note_on,60,0,3,,,,,,,,,2,,,75,0
7380,note_on,0,0,3,,,,,,,,,2,,,63,0
7410,note_on,0,0,1,,,,,,,,,0,,,87,49
7410,note_on,90,0,1,,,,,,,,,0,,,79,0
7440,note_on,30,0,1,,,,,,,,,0,,,87,0
7440,note_on,0,0,1,,,,,,,,,0,,,82,49
7440,note_on,0,0,3,,,,,,,,,2,,,67,36
7440,note_on,60,0,3,,,,,,,,,2,,,58,36
7560,note_on,120,0,1,,,,,,,,,0,,,82,0
7560,control_change,0,0,1,,,,,,,,,0,64,0,,
7560,note_on,0,0,1,,,,,,,,,0,,,74,49
7560,note_on,0,0,3,,,,,,,,,2,,,68,36
7560,note_on,120,0,3,,,,,,,,,2,,,67,0
7560,note_on,0,0,3,,,,,,,,,2,,,58,0
7560,control_change,0,0,3,,,,,,,,,2,64,0,,
7560,note_on,0,0,3,,,,,,,,,2,,,59,36
7680,note_on,120,0,1,,,,,,,,,0,,,74,0
7680,control_change,0,0,1,,,,,,,,,0,64,127,,
7680,note_on,0,0,1,,,,,,,,,0,,,75,49
7680,control_change,0,0,3,,,,,,,,,2,64,127,,
7680,note_on,0,0,3,,,,,,,,,2,,,60,36
7680,note_on,120,0,3,,,,,,,,,2,,,68,0
7680,note_on,0,0,3,,,,,,,,,2,,,59,0
7680,note_on,0,0,3,,,,,,,,,2,,,67,36
7800,note_on,120,0,1,,,,,,,,,0,,,75,0
7800,note_on,120,0,3,,,,,,,,,2,,,67,0
7800,note_on,0,0,3,,,,,,,,,2,,,60,0
7830,note_on,30,0,1,,,,,,,,,0,,,75,49
7830,note_on,30,0,3,,,,,,,,,2,,,63,36
7845,note_on,15,0,1,,,,,,,,,0,,,75,0
7845,note_on,15,0,3,,,,,,,,,2,,,63,0
7845,note_on,0,0,3,,,,,,,,,2,,,65,36
7845,note_on,0,0,1,,,,,,,,,0,,,77,49
7860,note_on,15,0,1,,,,,,,,,0,,,77,0
7860,note_on,0,0,1,,,,,,,,,0,,,75,49
7860,note_on,0,0,3,,,,,,,,,2,,,63,49
7860,note_on,15,0,3,,,,,,,,,2,,,65,0
7920,note_on,60,0,1,,,,,,,,,0,,,75,0
7920,note_on,0,0,1,,,,,,,,,0,,,74,49
7920,note_on,60,0,3,,,,,,,,,2,,,63,0
7920,note_on,0,0,3,,,,,,,,,2,,,62,49
7980,note_on,0,0,1,,,,,,,,,0,,,75,49
7980,note_on,60,0,1,,,,,,,,,0,,,74,0
7980,note_on,60,0,3,,,,,,,,,2,,,62,0
7980,note_on,0,0,3,,,,,,,,,2,,,63,49
8025,note_on,45,0,3,,,,,,,,,2,,,63,49
8025,note_on,45,0,1,,,,,,,,,0,,,75,49
8040,control_change,0,0,1,,,,,,,,,0,64,127,,
8040,note_on,0,0,1,,,,,,,,,0,,,75,0
8040,note_on,15,0,1,,,,,,,,,0,,,75,0
8040,note_on,0,0,3,,,,,,,,,2,,,63,0
8040,control_change,0,0,3,,,,,,,,,2,64,127,,
8040,note_on,0,0,1,,,,,,,,,0,,,79,62
8040,note_on,15,0,3,,,,,,,,,2,,,63,0
8040,note_on,0,0,3,,,,,,,,,2,,,67,49
8100,note_on,60,0,3,,,,,,,,,2,,,67,0
8100,note_on,0,0,3,,,,,,,,,2,,,65,49
8100,note_on,60,0,1,,,,,,,,,0,,,79,0
8100,note_on,0,0,1,,,,,,,,,0,,,77,62
8160,note_on,60,0,3,,,,,,,,,2,,,65,0
8160,note_on,0,0,3,,,,,,,,,2,,,65,49
8160,note_on,60,0,1,,,,,,,,,0,,,77,0
8160,note_on,0,0,1,,,,,,,,,0,,,77,62
8220,note_on,0,0,1,,,,,,,,,0,,,75,62
8220,note_on,60,0,1,,,,,,,,,0,,,77,0
8220,note_on,60,0,3,,,,,,,,,2,,,65,0
8220,note_on,0,0,3,,,,,,,,,2,,,63,49
8280,note_on,60,0,1,,,,,,,,,0,,,75,0
8280,note_on,0,0,1,,,,,,,,,0,,,75,62
8280,note_on,60,0,3,,,,,,,,,2,,,63,0
8280,note_on,0,0,3,,,,,,,,,2,,,63,49
8340,note_on,60,0,1,,,,,,,,,0,,,75,0
8340,note_on,0,0,3,,,,,,,,,2,,,62,49
8340,note_on,60,0,3,,,,,,,,,2,,,63,0
8340,note_on,0,0,1,,,,,,,,,0,,,74,62
8400,note_on,60,0,3,,,,,,,,,2,,,62,0
8400,note_on,0,0,3,,,,,,,,,2,,,62,36
8400,note_on,0,0,1,,,,,,,,,0,,,74,49
8400,note_on,60,0,1,,,,,,,,,0,,,74,0
8460,note_on,60,0,1,,,,,,,,,0,,,74,0
8460,note_on,60,0,3,,,,,,,,,2,,,62,0
8460,note_on,0,0,3,,,,,,,,,2,,,60,36
8460,note_on,0,0,1,,,,,,,,,0,,,72,49
8520,note_on,0,0,3,,,,,,,,,2,,,60,36
8520,note_on,0,0,1,,,,,,,,,0,,,72,49
8520,note_on,60,0,3,,,,,,,,,2,,,60,0
8520,note_on,60,0,1,,,,,,,,,0,,,72,0
8580,note_on,60,0,3,,,,,,,,,2,,,60,0
8580,note_on,60,0,1,,,,,,,,,0,,,72,0
8580,note_on,0,0,1,,,,,,,,,0,,,70,49
8580,note_on,0,0,3,,,,,,,,,2,,,58,36
8640,note_on,0,0,3,,,,,,,,,2,,,58,36
8640,control_change,0,0,3,,,,,,,,,2,64,0,,
8640,note_on,60,0,3,,,,,,,,,2,,,58,0
8640,control_change,0,0,1,,,,,,,,,0,64,0,,
8640,note_on,60,0,1,,,,,,,,,0,,,70,0
8640,note_on,0,0,1,,,,,,,,,0,,,70,49
8700,note_on,0,0,3,,,,,,,,,2,,,57,36
8700,note_on,60,0,3,,,,,,,,,2,,,58,0
8700,note_on,0,0,1,,,,,,,,,0,,,69,49
8700,note_on,60,0,1,,,,,,,,,0,,,70,0
8760,note_on,0,0,1,,,,,,,,,0,,,69,49
8760,note_on,60,0,3,,,,,,,,,2,,,57,0
8760,note_on,0,0,3,,,,,,,,,2,,,53,36
8760,note_on,0,0,3,,,,,,,,,2,,,60,36
8760,note_on,60,0,1,,,,,,,,,0,,,69,0
8760,note_on,0,0,3,,,,,,,,,2,,,63,36
9000,note_on,0,0,1,,,,,,,,,0,,,77,49
9000,note_on,240,0,1,,,,,,,,,0,,,69,0
9060,note_on,60,0,1,,,,,,,,,0,,,77,0
9120,note_on,0,0,3,,,,,,,,,2,,,53,0
9120,note_on,360,0,3,,,,,,,,,2,,,63,0
9120,note_on,0,0,3,,,,,,,,,2,,,60,0
9120,control_change,60,0,1,,,,,,,,,0,64,127,,
9120,note_on,0,0,1,,,,,,,,,0,,,68,49
9120,note_on,0,0,3,,,,,,,,,2,,,58,36
9120,note_on,0,0,3,,,,,,,,,2,,,62,36
9300,note_on,180,0,1,,,,,,,,,0,,,68,0
9300,note_on,0,0,1,,,,,,,,,0,,,77,49
9360,note_on,60,0,1,,,,,,,,,0,,,77,0
9360,note_on,0,0,1,,,,,,,,,0,,,74,49
9420,note_on,0,0,1,,,,,,,,,0,,,68,49
9420,control_change,0,0,1,,,,,,,,,0,64,0,,
9420,note_on,60,0,1,,,,,,,,,0,,,74,0
9480,note_on,0,0,3,,,,,,,,,2,,,58,0
9480,control_change,0,0,3,,,,,,,,,2,64,127,,
9480,note_on,0,0,3,,,,,,,,,2,,,51,36
9480,note_on,360,0,3,,,,,,,,,2,,,62,0
9480,note_on,0,0,3,,,,,,,,,2,,,63,36
9480,note_on,60,0,1,,,,,,,,,0,,,68,0
9480,control_change,0,0,1,,,,,,,,,0,64,127,,
9480,note_on,0,0,1,,,,,,,,,0,,,67,49
9540,note_on,0,0,3,,,,,,,,,2,,,51,0
9540,note_on,60,0,3,,,,,,,,,2,,,63,0
9570,note_on,0,0,1,,,,,,,,,0,,,75,49
9570,note_on,90,0,1,,,,,,,,,0,,,67,0
9600,note_on,60,0,3,,,,,,,,,2,,,55,36
9600,note_on,4440,0,4,,,,,,,,,3,,,46,36
9600,note_on,0,0,1,,,,,,,,,0,,,70,49
9600,note_on,30,0,1,,,,,,,,,0,,,75,0
9720,note_on,0,0,1,,,,,,,,,0,,,62,49
9720,note_on,120,0,3,,,,,,,,,2,,,55,0
9720,control_change,0,0,3,,,,,,,,,2,64,0,,
9720,note_on,0,0,3,,,,,,,,,2,,,56,36
9720,note_on,120,0,1,,,,,,,,,0,,,70,0
9720,control_change,0,0,1,,,,,,,,,0,64,0,,
9840,note_on,120,0,3,,,,,,,,,2,,,56,0
9840,control_change,0,0,3,,,,,,,,,2,64,127,,
9840,note_on,0,0,3,,,,,,,,,2,,,51,36
9840,note_on,240,0,4,,,,,,,,,3,,,46,0
9840,note_on,0,0,1,,,,,,,,,0,,,75,49
9840,note_on,0,0,1,,,,,,,,,0,,,63,49
9840,control_change,0,0,1,,,,,,,,,0,64,127,,
9840,note_on,120,0,1,,,,,,,,,0,,,62,0
9852,note_on,0,0,1,,,,,,,,,0,,,63,0
9852,note_on,12,0,1,,,,,,,,,0,,,75,0
9870,note_on,30,0,3,,,,,,,,,2,,,51,0
9870,note_on,0,0,3,,,,,,,,,2,,,58,36
9900,note_on,30,0,3,,,,,,,,,2,,,58,0
9900,note_on,0,0,3,,,,,,,,,2,,,54,36
9930,note_on,0,0,3,,,,,,,,,2,,,58,36
9930,note_on,30,0,3,,,,,,,,,2,,,54,0
9960,note_on,108,0,1,,,,,,,,,0,,,66,49
9960,note_on,0,0,1,,,,,,,,,0,,,78,49
9960,note_on,30,0,3,,,,,,,,,2,,,58,0
9960,note_on,0,0,3,,,,,,,,,2,,,51,36
9972,note_on,12,0,1,,,,,,,,,0,,,78,0
9972,note_on,0,0,1,,,,,,,,,0,,,66,0
9990,note_on,30,0,3,,,,,,,,,2,,,51,0
9990,note_on,0,0,3,,,,,,,,,2,,,58,36
10020,note_on,30,0,3,,,,,,,,,2,,,58,0
10020,note_on,0,0,3,,,,,,,,,2,,,54,36
10050,note_on,30,0,3,,,,,,,,,2,,,54,0
10050,note_on,0,0,3,,,,,,,,,2,,,58,36
10080,note_on,30,0,3,,,,,,,,,2,,,58,0
10080,note_on,0,0,1,,,,,,,,,0,,,82,62
10080,note_on,108,0,1,,,,,,,,,0,,,70,62
10080,note_on,0,0,3,,,,,,,,,2,,,51,49
10092,note_on,0,0,1,,,,,,,,,0,,,70,0
10092,note_on,12,0,1,,,,,,,,,0,,,82,0
10110,note_on,0,0,3,,,,,,,,,2,,,58,49
10110,note_on,30,0,3,,,,,,,,,2,,,51,0
10140,note_on,0,0,3,,,,,,,,,2,,,54,49
10140,note_on,30,0,3,,,,,,,,,2,,,58,0
10170,note_on,30,0,3,,,,,,,,,2,,,54,0
10170,note_on,0,0,3,,,,,,,,,2,,,58,49
10200,note_on,0,0,1,,,,,,,,,0,,,87,88
10200,note_on,30,0,3,,,,,,,,,2,,,58,0
10200,note_on,108,0,1,,,,,,,,,0,,,75,80
10200,note_on,0,0,3,,,,,,,,,2,,,51,75
10230,note_on,0,0,3,,,,,,,,,2,,,58,49
10230,note_on,30,0,3,,,,,,,,,2,,,51,0
10260,note_on,30,0,3,,,,,,,,,2,,,58,0
10260,note_on,0,0,3,,,,,,,,,2,,,54,49
10290,note_on,0,0,3,,,,,,,,,2,,,58,49
10290,note_on,30,0,3,,,,,,,,,2,,,54,0
10320,note_on,0,0,3,,,,,,,,,2,,,51,49
10320,note_on,30,0,3,,,,,,,,,2,,,58,0
10350,note_on,30,0,3,,,,,,,,,2,,,51,0
10350,note_on,0,0,3,,,,,,,,,2,,,58,49
10380,note_on,30,0,3,,,,,,,,,2,,,58,0
10380,note_on,0,0,3,,,,,,,,,2,,,54,49
10410,note_on,30,0,3,,,,,,,,,2,,,54,0
10410,note_on,0,0,3,,,,,,,,,2,,,58,49
10440,note_on,30,0,3,,,,,,,,,2,,,58,0
10440,note_on,0,0,3,,,,,,,,,2,,,51,49
10440,note_on,240,0,1,,,,,,,,,0,,,87,0
10440,note_on,0,0,1,,,,,,,,,0,,,90,62
10440,control_change,0,0,1,,,,,,,,,0,64,0,,
10440,note_on,0,0,1,,,,,,,,,0,,,75,0
10440,note_on,0,0,1,,,,,,,,,0,,,78,62
10452,note_on,0,0,1,,,,,,,,,0,,,78,0
10452,note_on,12,0,1,,,,,,,,,0,,,90,0
10470,note_on,30,0,3,,,,,,,,,2,,,51,0
10470,note_on,0,0,3,,,,,,,,,2,,,58,49
10500,note_on,30,0,3,,,,,,,,,2,,,58,0
10500,note_on,0,0,3,,,,,,,,,2,,,54,49
10530,control_change,0,0,3,,,,,,,,,2,64,0,,
10530,note_on,30,0,3,,,,,,,,,2,,,54,0
10530,note_on,0,0,3,,,,,,,,,2,,,58,49
10560,note_on,0,0,1,,,,,,,,,0,,,66,75
10560,control_change,0,0,3,,,,,,,,,2,64,127,,
10560,note_on,0,0,3,,,,,,,,,2,,,49,62
10560,note_on,30,0,3,,,,,,,,,2,,,58,0
10560,control_change,108,0,1,,,,,,,,,0,64,127,,
10560,note_on,0,0,1,,,,,,,,,0,,,78,75
10572,note_on,0,0,1,,,,,,,,,0,,,66,0
10572,note_on,12,0,1,,,,,,,,,0,,,78,0
10590,note_on,0,0,3,,,,,,,,,2,,,58,62
10590,note_on,30,0,3,,,,,,,,,2,,,49,0
10620,note_on,0,0,3,,,,,,,,,2,,,51,62
10620,note_on,30,0,3,,,,,,,,,2,,,58,0
10620,note_on,0,0,3,,,,,,,,,2,,,54,62
10650,note_on,0,0,3,,,,,,,,,2,,,58,62
10650,note_on,0,0,3,,,,,,,,,2,,,51,0
10650,note_on,30,0,3,,,,,,,,,2,,,54,0
10680,note_on,30,0,3,,,,,,,,,2,,,58,0
10680,note_on,0,0,1,,,,,,,,,0,,,82,75
10680,note_on,108,0,1,,,,,,,,,0,,,70,75
10680,note_on,0,0,3,,,,,,,,,2,,,49,62
10692,note_on,0,0,1,,,,,,,,,0,,,70,0
10692,note_on,12,0,1,,,,,,,,,0,,,82,0
10710,note_on,30,0,3,,,,,,,,,2,,,49,0
10710,note_on,0,0,3,,,,,,,,,2,,,58,62
10740,note_on,30,0,3,,,,,,,,,2,,,58,0
10740,note_on,0,0,3,,,,,,,,,2,,,51,62
10740,note_on,0,0,3,,,,,,,,,2,,,54,62
10770,note_on,0,0,3,,,,,,,,,2,,,58,62
10770,note_on,0,0,3,,,,,,,,,2,,,51,0
10770,note_on,30,0,3,,,,,,,,,2,,,54,0
10800,note_on,108,0,1,,,,,,,,,0,,,75,75
10800,note_on,30,0,3,,,,,,,,,2,,,58,0
10800,note_on,0,0,3,,,,,,,,,2,,,49,62
10800,note_on,0,0,1,,,,,,,,,0,,,87,75
10812,note_on,0,0,1,,,,,,,,,0,,,75,0
10812,note_on,12,0,1,,,,,,,,,0,,,87,0
10830,note_on,0,0,3,,,,,,,,,2,,,58,62
10830,note_on,30,0,3,,,,,,,,,2,,,49,0
10860,note_on,0,0,3,,,,,,,,,2,,,54,62
10860,note_on,30,0,3,,,,,,,,,2,,,58,0
10860,note_on,0,0,3,,,,,,,,,2,,,51,62
10890,note_on,0,0,3,,,,,,,,,2,,,51,0
10890,note_on,0,0,3,,,,,,,,,2,,,58,62
10890,note_on,30,0,3,,,,,,,,,2,,,54,0
10920,note_on,30,0,3,,,,,,,,,2,,,58,0
10920,control_change,0,0,3,,,,,,,,,2,64,127,,
10920,note_on,0,0,1,,,,,,,,,0,,,90,101
10920,note_on,108,0,1,,,,,,,,,0,,,78,93
10920,note_on,0,0,3,,,,,,,,,2,,,49,62
10950,note_on,30,0,3,,,,,,,,,2,,,49,0
10950,note_on,0,0,3,,,,,,,,,2,,,58,62
10980,note_on,30,0,3,,,,,,,,,2,,,58,0
10980,note_on,0,0,3,,,,,,,,,2,,,51,62
10980,note_on,0,0,3,,,,,,,,,2,,,54,62
11010,note_on,30,0,3,,,,,,,,,2,,,54,0
11010,note_on,0,0,3,,,,,,,,,2,,,51,0
11010,note_on,0,0,3,,,,,,,,,2,,,58,62
11040,note_on,30,0,3,,,,,,,,,2,,,58,0
11040,note_on,0,0,3,,,,,,,,,2,,,49,62
11070,note_on,30,0,3,,,,,,,,,2,,,49,0
11070,note_on,0,0,3,,,,,,,,,2,,,58,62
11100,note_on,30,0,3,,,,,,,,,2,,,58,0
11100,note_on,0,0,3,,,,,,,,,2,,,51,62
11100,note_on,0,0,3,,,,,,,,,2,,,54,62
11130,note_on,30,0,3,,,,,,,,,2,,,54,0
11130,note_on,0,0,3,,,,,,,,,2,,,51,0
11130,note_on,0,0,3,,,,,,,,,2,,,58,62
11160,note_on,0,0,1,,,,,,,,,0,,,82,75
11160,note_on,240,0,1,,,,,,,,,0,,,90,0
11160,note_on,0,0,1,,,,,,,,,0,,,94,75
11160,note_on,0,0,1,,,,,,,,,0,,,78,0
11160,note_on,30,0,3,,,,,,,,,2,,,58,0
11160,note_on,0,0,3,,,,,,,,,2,,,49,62
11172,note_on,12,0,1,,,,,,,,,0,,,94,0
11172,note_on,0,0,1,,,,,,,,,0,,,82,0
11190,note_on,0,0,3,,,,,,,,,2,,,58,62
11190,note_on,30,0,3,,,,,,,,,2,,,49,0
11220,note_on,0,0,3,,,,,,,,,2,,,51,62
11220,note_on,30,0,3,,,,,,,,,2,,,58,0
11220,note_on,0,0,3,,,,,,,,,2,,,54,62
11250,note_on,30,0,3,,,,,,,,,2,,,54,0
11250,note_on,0,0,3,,,,,,,,,2,,,51,0
11250,note_on,0,0,3,,,,,,,,,2,,,58,62
11280,note_on,30,0,3,,,,,,,,,2,,,58,0
11280,control_change,0,0,3,,,,,,,,,2,64,127,,
11280,note_on,0,0,3,,,,,,,,,2,,,47,75
11280,note_on,0,0,1,,,,,,,,,0,,,71,88
11280,control_change,108,0,1,,,,,,,,,0,64,127,,
11280,note_on,0,0,1,,,,,,,,,0,,,59,88
11292,note_on,12,0,1,,,,,,,,,0,,,71,0
11292,note_on,0,0,1,,,,,,,,,0,,,59,0
11310,note_on,30,0,3,,,,,,,,,2,,,47,0
11310,note_on,0,0,3,,,,,,,,,2,,,59,75
11340,note_on,30,0,3,,,,,,,,,2,,,59,0
11340,note_on,0,0,3,,,,,,,,,2,,,51,75
11340,note_on,0,0,3,,,,,,,,,2,,,54,75
11370,note_on,30,0,3,,,,,,,,,2,,,54,0
11370,note_on,0,0,3,,,,,,,,,2,,,51,0
11370,note_on,0,0,3,,,,,,,,,2,,,59,75
11400,note_on,0,0,3,,,,,,,,,2,,,47,75
11400,note_on,30,0,3,,,,,,,,,2,,,59,0
11400,note_on,108,0,1,,,,,,,,,0,,,63,88
11400,note_on,0,0,1,,,,,,,,,0,,,75,88
11412,note_on,12,0,1,,,,,,,,,0,,,75,0
11412,note_on,0,0,1,,,,,,,,,0,,,63,0
11430,note_on,0,0,3,,,,,,,,,2,,,59,75
11430,note_on,30,0,3,,,,,,,,,2,,,47,0
11460,note_on,0,0,3,,,,,,,,,2,,,54,75
11460,note_on,0,0,3,,,,,,,,,2,,,51,75
11460,note_on,30,0,3,,,,,,,,,2,,,59,0
11490,note_on,0,0,3,,,,,,,,,2,,,59,75
11490,note_on,0,0,3,,,,,,,,,2,,,51,0
11490,note_on,30,0,3,,,,,,,,,2,,,54,0
11520,note_on,30,0,3,,,,,,,,,2,,,59,0
11520,note_on,0,0,1,,,,,,,,,0,,,78,88
11520,note_on,0,0,3,,,,,,,,,2,,,47,75
11520,note_on,108,0,1,,,,,,,,,0,,,66,88
11532,note_on,0,0,1,,,,,,,,,0,,,66,0
11532,note_on,12,0,1,,,,,,,,,0,,,78,0
11550,note_on,30,0,3,,,,,,,,,2,,,47,0
11550,note_on,0,0,3,,,,,,,,,2,,,59,75
11580,note_on,30,0,3,,,,,,,,,2,,,59,0
11580,note_on,0,0,3,,,,,,,,,2,,,54,75
11580,note_on,0,0,3,,,,,,,,,2,,,51,75
11610,note_on,30,0,3,,,,,,,,,2,,,54,0
11610,note_on,0,0,3,,,,,,,,,2,,,51,0
11610,note_on,0,0,3,,,,,,,,,2,,,59,75
11640,note_on,0,0,1,,,,,,,,,0,,,95,114
11640,note_on,108,0,1,,,,,,,,,0,,,83,106
11640,note_on,0,0,3,,,,,,,,,2,,,47,75
11640,note_on,30,0,3,,,,,,,,,2,,,59,0
11670,note_on,0,0,3,,,,,,,,,2,,,59,75
11670,note_on,30,0,3,,,,,,,,,2,,,47,0
11700,note_on,0,0,3,,,,,,,,,2,,,51,75
11700,note_on,30,0,3,,,,,,,,,2,,,59,0
11700,note_on,0,0,3,,,,,,,,,2,,,54,75
11730,note_on,30,0,3,,,,,,,,,2,,,54,0
11730,note_on,0,0,3,,,,,,,,,2,,,51,0
11730,note_on,0,0,3,,,,,,,,,2,,,59,75
11760,note_on,30,0,3,,,,,,,,,2,,,59,0
11760,note_on,0,0,3,,,,,,,,,2,,,47,75
11790,note_on,30,0,3,,,,,,,,,2,,,47,0
11790,note_on,0,0,3,,,,,,,,,2,,,59,75
11820,note_on,30,0,3,,,,,,,,,2,,,59,0
11820,note_on,0,0,3,,,,,,,,,2,,,51,75
11820,note_on,0,0,3,,,,,,,,,2,,,54,75
11850,note_on,0,0,3,,,,,,,,,2,,,59,75
11850,note_on,0,0,3,,,,,,,,,2,,,51,0
11850,note_on,30,0,3,,,,,,,,,2,,,54,0
11880,note_on,0,0,3,,,,,,,,,2,,,46,75
11880,note_on,30,0,3,,,,,,,,,2,,,59,0
11880,note_on,0,0,1,,,,,,,,,0,,,75,88
11880,note_on,240,0,1,,,,,,,,,0,,,95,0
11880,note_on,0,0,1,,,,,,,,,0,,,83,0
11880,control_change,0,0,1,,,,,,,,,0,64,0,,
11880,note_on,0,0,1,,,,,,,,,0,,,87,88
11892,note_on,0,0,1,,,,,,,,,0,,,75,0
11892,note_on,12,0,1,,,,,,,,,0,,,87,0
11910,note_on,0,0,3,,,,,,,,,2,,,58,75
11910,note_on,30,0,3,,,,,,,,,2,,,46,0
11940,note_on,0,0,3,,,,,,,,,2,,,51,75
11940,note_on,0,0,3,,,,,,,,,2,,,54,75
11940,note_on,30,0,3,,,,,,,,,2,,,58,0
11970,note_on,0,0,3,,,,,,,,,2,,,58,75
11970,note_on,30,0,3,,,,,,,,,2,,,54,0
11970,note_on,0,0,3,,,,,,,,,2,,,51,0
11970,control_change,0,0,3,,,,,,,,,2,64,0,,
12000,control_change,108,0,1,,,,,,,,,0,64,127,,
12000,note_on,0,0,1,,,,,,,,,0,,,78,101
12000,note_on,0,0,1,,,,,,,,,0,,,87,101
12000,note_on,0,0,1,,,,,,,,,0,,,90,101
12000,note_on,30,0,3,,,,,,,,,2,,,58,0
12000,control_change,0,0,3,,,,,,,,,2,64,127,,
12000,note_on,0,0,3,,,,,,,,,2,,,45,88
12012,note_on,12,0,1,,,,,,,,,0,,,90,0
12012,note_on,0,0,1,,,,,,,,,0,,,87,0
12012,note_on,0,0,1,,,,,,,,,0,,,78,0
12030,note_on,0,0,3,,,,,,,,,2,,,57,88
12030,note_on,30,0,3,,,,,,,,,2,,,45,0
12060,note_on,0,0,3,,,,,,,,,2,,,51,88
12060,note_on,0,0,3,,,,,,,,,2,,,54,88
12060,note_on,30,0,3,,,,,,,,,2,,,57,0
12090,note_on,30,0,3,,,,,,,,,2,,,54,0
12090,note_on,0,0,3,,,,,,,,,2,,,51,0
12090,note_on,0,0,3,,,,,,,,,2,,,57,88
12120,note_on,108,0,1,,,,,,,,,0,,,78,101
12120,note_on,0,0,1,,,,,,,,,0,,,87,101
12120,note_on,0,0,1,,,,,,,,,0,,,90,101
12120,note_on,0,0,3,,,,,,,,,2,,,45,88
12120,note_on,30,0,3,,,,,,,,,2,,,57,0
12132,note_on,0,0,1,,,,,,,,,0,,,87,0
12132,note_on,0,0,1,,,,,,,,,0,,,78,0
12132,note_on,12,0,1,,,,,,,,,0,,,90,0
12150,note_on,30,0,3,,,,,,,,,2,,,45,0
12150,note_on,0,0,3,,,,,,,,,2,,,57,88
12180,note_on,30,0,3,,,,,,,,,2,,,57,0
12180,note_on,0,0,3,,,,,,,,,2,,,51,88
12180,note_on,0,0,3,,,,,,,,,2,,,54,88
12210,note_on,0,0,3,,,,,,,,,2,,,57,88
12210,note_on,30,0,3,,,,,,,,,2,,,54,0
12210,note_on,0,0,3,,,,,,,,,2,,,51,0
12240,note_on,0,0,1,,,,,,,,,0,,,78,88
12240,note_on,30,0,3,,,,,,,,,2,,,57,0
12240,note_on,0,0,1,,,,,,,,,0,,,90,88
12240,note_on,0,0,1,,,,,,,,,0,,,87,88
12240,control_change,108,0,1,,,,,,,,,0,64,0,,
12240,note_on,0,0,3,,,,,,,,,2,,,45,75
12252,note_on,0,0,1,,,,,,,,,0,,,78,0
12252,note_on,0,0,1,,,,,,,,,0,,,87,0
12252,note_on,12,0,1,,,,,,,,,0,,,90,0
12270,note_on,30,0,3,,,,,,,,,2,,,45,0
12270,note_on,0,0,3,,,,,,,,,2,,,57,75
12300,note_on,30,0,3,,,,,,,,,2,,,57,0
12300,note_on,0,0,3,,,,,,,,,2,,,51,75
12300,note_on,0,0,3,,,,,,,,,2,,,54,75
12330,note_on,30,0,3,,,,,,,,,2,,,54,0
12330,control_change,0,0,3,,,,,,,,,2,64,0,,
12330,note_on,0,0,3,,,,,,,,,2,,,57,75
12330,note_on,0,0,3,,,,,,,,,2,,,51,0
12360,note_on,30,0,3,,,,,,,,,2,,,57,0
12360,note_on,0,0,1,,,,,,,,,0,,,89,88
12360,control_change,0,0,3,,,,,,,,,2,64,127,,
12360,note_on,0,0,1,,,,,,,,,0,,,86,88
12360,note_on,108,0,1,,,,,,,,,0,,,77,88
12360,note_on,0,0,3,,,,,,,,,2,,,46,75
12372,note_on,0,0,1,,,,,,,,,0,,,77,0
12372,note_on,0,0,1,,,,,,,,,0,,,86,0
12372,note_on,12,0,1,,,,,,,,,0,,,89,0
12390,note_on,30,0,3,,,,,,,,,2,,,46,0
12390,note_on,0,0,3,,,,,,,,,2,,,48,75
12420,note_on,30,0,3,,,,,,,,,2,,,48,0
12420,note_on,0,0,3,,,,,,,,,2,,,50,75
12450,note_on,30,0,3,,,,,,,,,2,,,50,0
12450,note_on,0,0,3,,,,,,,,,2,,,51,75
12480,note_on,30,0,3,,,,,,,,,2,,,51,0
12480,note_on,0,0,3,,,,,,,,,2,,,53,75
12510,note_on,30,0,3,,,,,,,,,2,,,53,0
12510,note_on,0,0,3,,,,,,,,,2,,,55,75
12540,note_on,0,0,3,,,,,,,,,2,,,57,75
12540,note_on,30,0,3,,,,,,,,,2,,,55,0
12570,note_on,30,0,3,,,,,,,,,2,,,57,0
12570,note_on,0,0,3,,,,,,,,,2,,,58,75
12600,note_on,30,0,3,,,,,,,,,2,,,58,0
12600,note_on,0,0,3,,,,,,,,,2,,,60,75
12630,note_on,30,0,3,,,,,,,,,2,,,60,0
12630,note_on,0,0,3,,,,,,,,,2,,,62,75
12660,note_on,30,0,3,,,,,,,,,2,,,62,0
12660,note_on,0,0,3,,,,,,,,,2,,,63,75
12690,note_on,30,0,3,,,,,,,,,2,,,63,0
12690,control_change,0,0,3,,,,,,,,,2,64,0,,
12690,note_on,0,0,3,,,,,,,,,2,,,65,75
12720,note_on,30,0,3,,,,,,,,,2,,,65,0
12720,control_change,0,0,3,,,,,,,,,2,64,127,,
12720,note_on,0,0,3,,,,,,,,,2,,,58,75
12720,note_on,0,0,3,,,,,,,,,2,,,66,75
12720,note_on,0,0,1,,,,,,,,,0,,,69,88
12720,control_change,348,0,1,,,,,,,,,0,64,127,,
12750,note_on,0,0,1,,,,,,,,,0,,,81,88
12750,note_on,30,0,1,,,,,,,,,0,,,69,0
12780,note_on,30,0,1,,,,,,,,,0,,,81,0
12780,note_on,0,0,1,,,,,,,,,0,,,80,88
12810,note_on,30,0,1,,,,,,,,,0,,,80,0
12810,note_on,0,0,1,,,,,,,,,0,,,81,88
12840,note_on,0,0,3,,,,,,,,,2,,,58,0
12840,note_on,120,0,3,,,,,,,,,2,,,66,0
12840,note_on,0,0,3,,,,,,,,,2,,,58,75
12840,note_on,30,0,1,,,,,,,,,0,,,81,0
12840,note_on,0,0,1,,,,,,,,,0,,,69,88
12840,note_on,0,0,3,,,,,,,,,2,,,65,75
12870,note_on,30,0,1,,,,,,,,,0,,,69,0
12870,note_on,0,0,1,,,,,,,,,0,,,81,88
12900,note_on,0,0,1,,,,,,,,,0,,,80,88
12900,note_on,30,0,1,,,,,,,,,0,,,81,0
12930,note_on,0,0,1,,,,,,,,,0,,,81,88
12930,note_on,30,0,1,,,,,,,,,0,,,80,0
12960,note_on,0,0,1,,,,,,,,,0,,,69,88
12960,note_on,0,0,3,,,,,,,,,2,,,58,0
12960,note_on,120,0,3,,,,,,,,,2,,,65,0
12960,note_on,30,0,1,,,,,,,,,0,,,81,0
12960,control_change,0,0,3,,,,,,,,,2,64,0,,
12960,note_on,0,0,3,,,,,,,,,2,,,58,75
12960,note_on,0,0,3,,,,,,,,,2,,,63,75
12990,note_on,0,0,1,,,,,,,,,0,,,81,88
12990,note_on,30,0,1,,,,,,,,,0,,,69,0
13020,note_on,0,0,1,,,,,,,,,0,,,80,88
13020,note_on,30,0,1,,,,,,,,,0,,,81,0
13050,control_change,0,0,1,,,,,,,,,0,64,0,,
13050,note_on,0,0,1,,,,,,,,,0,,,81,88
13050,note_on,30,0,1,,,,,,,,,0,,,80,0
13080,note_on,120,0,3,,,,,,,,,2,,,63,0
13080,note_on,0,0,3,,,,,,,,,2,,,58,0
13080,note_on,0,0,3,,,,,,,,,2,,,58,75
13080,note_on,0,0,3,,,,,,,,,2,,,62,75
13080,note_on,0,0,1,,,,,,,,,0,,,82,88
13080,control_change,0,0,1,,,,,,,,,0,64,127,,
13080,note_on,0,0,1,,,,,,,,,0,,,70,88
13080,note_on,30,0,1,,,,,,,,,0,,,81,0
13140,note_on,0,0,1,,,,,,,,,0,,,81,88
13140,note_on,0,0,1,,,,,,,,,0,,,70,0
13140,note_on,60,0,1,,,,,,,,,0,,,82,0
13170,note_on,0,0,1,,,,,,,,,0,,,79,88
13170,note_on,30,0,1,,,,,,,,,0,,,81,0
13200,note_on,120,0,3,,,,,,,,,2,,,62,0
13200,note_on,0,0,3,,,,,,,,,2,,,58,0
13200,note_on,30,0,1,,,,,,,,,0,,,79,0
13200,note_on,0,0,1,,,,,,,,,0,,,77,88
13230,note_on,30,0,1,,,,,,,,,0,,,77,0
13230,note_on,0,0,1,,,,,,,,,0,,,75,88
13260,note_on,30,0,1,,,,,,,,,0,,,75,0
13260,note_on,0,0,1,,,,,,,,,0,,,74,88
13290,note_on,30,0,1,,,,,,,,,0,,,74,0
13290,note_on,0,0,1,,,,,,,,,0,,,72,88
13320,note_on,30,0,1,,,,,,,,,0,,,72,0
13320,note_on,0,0,1,,,,,,,,,0,,,70,88
13326,note_on,6,0,1,,,,,,,,,0,,,70,0
13380,note_on,180,0,3,,,,,,,,,2,,,57,101
13380,note_on,0,0,1,,,,,,,,,0,,,69,114
13380,control_change,54,0,1,,,,,,,,,0,64,0,,
13386,note_on,6,0,3,,,,,,,,,2,,,57,0
13386,note_on,6,0,1,,,,,,,,,0,,,69,0
13440,note_on,0,0,1,,,,,,,,,0,,,70,88
13440,note_on,0,0,3,,,,,,,,,2,,,58,75
13440,control_change,54,0,3,,,,,,,,,2,64,127,,
13440,control_change,54,0,1,,,,,,,,,0,64,127,,
13500,note_on,0,0,3,,,,,,,,,2,,,57,75
13500,note_on,60,0,3,,,,,,,,,2,,,58,0
13500,note_on,0,0,1,,,,,,,,,0,,,69,88
13500,note_on,60,0,1,,,,,,,,,0,,,70,0
13530,note_on,0,0,1,,,,,,,,,0,,,67,88
13530,note_on,30,0,1,,,,,,,,,0,,,69,0
13530,note_on,30,0,3,,,,,,,,,2,,,57,0
13530,note_on,0,0,3,,,,,,,,,2,,,55,75
13560,note_on,30,0,1,,,,,,,,,0,,,67,0
13560,note_on,30,0,3,,,,,,,,,2,,,55,0
13560,note_on,0,0,3,,,,,,,,,2,,,53,75
13560,note_on,0,0,1,,,,,,,,,0,,,65,88
13590,note_on,0,0,1,,,,,,,,,0,,,63,88
13590,note_on,30,0,3,,,,,,,,,2,,,53,0
13590,note_on,30,0,1,,,,,,,,,0,,,65,0
13590,note_on,0,0,3,,,,,,,,,2,,,51,75
13620,note_on,0,0,3,,,,,,,,,2,,,50,75
13620,note_on,30,0,1,,,,,,,,,0,,,63,0
13620,note_on,30,0,3,,,,,,,,,2,,,51,0
13620,note_on,0,0,1,,,,,,,,,0,,,62,88
13650,note_on,30,0,3,,,,,,,,,2,,,50,0
13650,note_on,0,0,3,,,,,,,,,2,,,48,75
13650,note_on,0,0,1,,,,,,,,,0,,,60,88
13650,note_on,30,0,1,,,,,,,,,0,,,62,0
13680,note_on,30,0,3,,,,,,,,,2,,,48,0
13680,note_on,0,0,3,,,,,,,,,2,,,46,75
13680,note_on,0,0,1,,,,,,,,,0,,,58,88
13680,note_on,30,0,1,,,,,,,,,0,,,60,0
13686,note_on,6,0,1,,,,,,,,,0,,,58,0
13686,note_on,6,0,3,,,,,,,,,2,,,46,0
13740,control_change,54,0,1,,,,,,,,,0,64,0,,
13740,control_change,54,0,3,,,,,,,,,2,64,0,,
13740,note_on,0,0,1,,,,,,,,,0,,,57,114
13740,note_on,0,0,3,,,,,,,,,2,,,45,101
13746,note_on,6,0,1,,,,,,,,,0,,,57,0
13746,note_on,6,0,3,,,,,,,,,2,,,45,0
13800,note_on,54,0,3,,,,,,,,,2,,,46,101
13800,control_change,54,0,1,,,,,,,,,0,64,127,,
13800,note_on,0,0,1,,,,,,,,,0,,,58,88
13860,note_on,60,0,1,,,,,,,,,0,,,58,0
13860,note_on,0,0,1,,,,,,,,,0,,,60,88
13890,note_on,30,0,1,,,,,,,,,0,,,60,0
13890,note_on,0,0,1,,,,,,,,,0,,,62,88
13920,note_on,30,0,1,,,,,,,,,0,,,62,0
13920,note_on,0,0,1,,,,,,,,,0,,,63,88
13920,note_on,120,0,3,,,,,,,,,2,,,46,0
13950,note_on,30,0,1,,,,,,,,,0,,,63,0
13950,note_on,0,0,1,,,,,,,,,0,,,65,88
13980,note_on,30,0,1,,,,,,,,,0,,,65,0
13980,note_on,0,0,1,,,,,,,,,0,,,67,88
14010,note_on,30,0,1,,,,,,,,,0,,,67,0
14010,note_on,0,0,1,,,,,,,,,0,,,69,88
14040,note_on,30,0,1,,,,,,,,,0,,,69,0
14040,note_on,0,0,1,,,,,,,,,0,,,70,49
14046,note_on,6,0,1,,,,,,,,,0,,,70,0
14100,control_change,54,0,1,,,,,,,,,0,64,0,,
14100,note_on,0,0,1,,,,,,,,,0,,,69,49
14106,note_on,6,0,1,,,,,,,,,0,,,69,0
14160,note_on,54,0,1,,,,,,,,,0,,,70,49
14166,note_on,6,0,1,,,,,,,,,0,,,70,0
14220,note_on,54,0,1,,,,,,,,,0,,,69,49
14220,set_tempo,13740,1,0,,,,,,441176,,,,,,,
14226,note_on,6,0,1,,,,,,,,,0,,,69,0
14280,note_on,54,0,1,,,,,,,,,0,,,70,49
14280,set_tempo,60,1,0,,,,,,468750,,,,,,,
14286,note_on,6,0,1,,,,,,,,,0,,,70,0
14340,note_on,54,0,1,,,,,,,,,0,,,71,49
14340,set_tempo,60,1,0,,,,,,500000,,,,,,,
14346,note_on,6,0,1,,,,,,,,,0,,,71,0
14400,note_on,54,0,1,,,,,,,,,0,,,72,49
14400,set_tempo,60,1,0,,,,,,535714,,,,,,,
14406,note_on,6,0,1,,,,,,,,,0,,,72,0
14460,note_on,54,0,1,,,,,,,,,0,,,73,49
14460,set_tempo,60,1,0,,,,,,576923,,,,,,,
14466,note_on,6,0,1,,,,,,,,,0,,,73,0
14520,control_change,600,0,3,,,,,,,,,2,64,127,,
14520,note_on,0,0,3,,,,,,,,,2,,,46,36
14520,control_change,54,0,1,,,,,,,,,0,64,127,,
14520,note_on,0,0,1,,,,,,,,,0,,,74,36
14520,set_tempo,60,1,0,,,,,,441176,,,,,,,
14526,note_on,6,0,3,,,,,,,,,2,,,46,0
14580,set_tempo,60,1,0,,,,,,468750,,,,,,,
14580,note_on,0,0,3,,,,,,,,,2,,,62,36
14580,note_on,54,0,3,,,,,,,,,2,,,53,36
14586,note_on,0,0,3,,,,,,,,,2,,,53,0
14586,note_on,6,0,3,,,,,,,,,2,,,62,0
14640,note_on,0,0,3,,,,,,,,,2,,,62,36
14640,note_on,54,0,3,,,,,,,,,2,,,58,36
14640,set_tempo,60,1,0,,,,,,500000,,,,,,,
14646,note_on,6,0,3,,,,,,,,,2,,,62,0
14646,note_on,0,0,3,,,,,,,,,2,,,58,0
14670,note_on,150,0,1,,,,,,,,,0,,,74,36
14685,note_on,15,0,1,,,,,,,,,0,,,74,0
14685,note_on,0,0,1,,,,,,,,,0,,,75,36
14700,note_on,54,0,3,,,,,,,,,2,,,53,36
14700,note_on,0,0,3,,,,,,,,,2,,,62,36
14700,note_on,0,0,1,,,,,,,,,0,,,74,36
14700,note_on,0,0,1,,,,,,,,,0,,,74,0
14700,note_on,15,0,1,,,,,,,,,0,,,75,0
14706,note_on,6,0,3,,,,,,,,,2,,,62,0
14706,note_on,0,0,3,,,,,,,,,2,,,53,0
14760,note_on,60,0,1,,,,,,,,,0,,,74,0
14760,note_on,54,0,3,,,,,,,,,2,,,58,36
14760,note_on,0,0,1,,,,,,,,,0,,,72,36
14760,note_on,0,0,3,,,,,,,,,2,,,62,36
14766,note_on,6,0,3,,,,,,,,,2,,,62,0
14766,note_on,0,0,3,,,,,,,,,2,,,58,0
14820,control_change,0,0,1,,,,,,,,,0,64,0,,
14820,control_change,54,0,3,,,,,,,,,2,64,0,,
14820,note_on,0,0,3,,,,,,,,,2,,,53,36
14820,note_on,0,0,3,,,,,,,,,2,,,62,36
14820,note_on,0,0,1,,,,,,,,,0,,,70,36
14820,note_on,60,0,1,,,,,,,,,0,,,72,0
14826,note_on,0,0,3,,,,,,,,,2,,,53,0
14826,note_on,6,0,3,,,,,,,,,2,,,62,0
14865,note_on,45,0,1,,,,,,,,,0,,,70,36
14880,set_tempo,240,1,0,,,,,,416667,,,,,,,
14880,control_change,0,0,1,,,,,,,,,0,64,127,,
14880,control_change,54,0,3,,,,,,,,,2,64,127,,
14880,note_on,0,0,1,,,,,,,,,0,,,77,36
14880,note_on,0,0,3,,,,,,,,,2,,,41,36
14880,note_on,0,0,1,,,,,,,,,0,,,70,0
14880,note_on,15,0,1,,,,,,,,,0,,,70,0
14886,note_on,6,0,3,,,,,,,,,2,,,41,0
14940,note_on,60,0,1,,,,,,,,,0,,,77,0
14940,note_on,0,0,1,,,,,,,,,0,,,76,36
14940,note_on,54,0,3,,,,,,,,,2,,,53,36
14940,note_on,0,0,3,,,,,,,,,2,,,60,36
14946,note_on,6,0,3,,,,,,,,,2,,,60,0
14946,note_on,0,0,3,,,,,,,,,2,,,53,0
15000,note_on,0,0,3,,,,,,,,,2,,,60,36
15000,note_on,54,0,3,,,,,,,,,2,,,57,36
15000,note_on,0,0,1,,,,,,,,,0,,,75,36
15000,control_change,0,0,1,,,,,,,,,0,64,0,,
15000,note_on,60,0,1,,,,,,,,,0,,,76,0
15006,note_on,6,0,3,,,,,,,,,2,,,60,0
15006,note_on,0,0,3,,,,,,,,,2,,,57,0
15060,note_on,0,0,3,,,,,,,,,2,,,60,36
15060,note_on,54,0,3,,,,,,,,,2,,,53,36
15066,note_on,6,0,3,,,,,,,,,2,,,60,0
15066,note_on,0,0,3,,,,,,,,,2,,,53,0
15120,note_on,120,0,1,,,,,,,,,0,,,75,0
15120,note_on,0,0,3,,,,,,,,,2,,,60,36
15120,note_on,54,0,3,,,,,,,,,2,,,57,36
15126,note_on,6,0,3,,,,,,,,,2,,,60,0
15126,note_on,0,0,3,,,,,,,,,2,,,57,0
15180,note_on,0,0,3,,,,,,,,,2,,,53,36
15180,note_on,0,0,3,,,,,,,,,2,,,60,36
15180,control_change,54,0,3,,,,,,,,,2,64,0,,
15186,note_on,6,0,3,,,,,,,,,2,,,60,0
15186,note_on,0,0,3,,,,,,,,,2,,,53,0
15240,control_change,54,0,3,,,,,,,,,2,64,127,,
15240,note_on,0,0,3,,,,,,,,,2,,,41,36
15240,note_on,0,0,1,,,,,,,,,0,,,75,36
15240,control_change,120,0,1,,,,,,,,,0,64,127,,
15246,note_on,6,0,3,,,,,,,,,2,,,41,0
15300,note_on,54,0,3,,,,,,,,,2,,,53,36
15300,note_on,0,0,3,,,,,,,,,2,,,60,36
15306,note_on,0,0,3,,,,,,,,,2,,,53,0
15306,note_on,6,0,3,,,,,,,,,2,,,60,0
15360,note_on,0,0,3,,,,,,,,,2,,,60,36
15360,note_on,54,0,3,,,,,,,,,2,,,57,36
15366,note_on,0,0,3,,,,,,,,,2,,,57,0
15366,note_on,6,0,3,,,,,,,,,2,,,60,0
15390,note_on,150,0,1,,,,,,,,,0,,,75,36
15405,note_on,15,0,1,,,,,,,,,0,,,75,0
15405,note_on,0,0,1,,,,,,,,,0,,,77,36
15420,note_on,0,0,1,,,,,,,,,0,,,75,36
15420,note_on,0,0,1,,,,,,,,,0,,,75,0
15420,note_on,15,0,1,,,,,,,,,0,,,77,0
15420,note_on,54,0,3,,,,,,,,,2,,,53,36
15420,note_on,0,0,3,,,,,,,,,2,,,60,36
15426,note_on,0,0,3,,,,,,,,,2,,,53,0
15426,note_on,6,0,3,,,,,,,,,2,,,60,0
15480,note_on,54,0,3,,,,,,,,,2,,,57,36
15480,note_on,60,0,1,,,,,,,,,0,,,75,0
15480,note_on,0,0,1,,,,,,,,,0,,,74,36
15480,note_on,0,0,3,,,,,,,,,2,,,62,36
15486,note_on,0,0,3,,,,,,,,,2,,,57,0
15486,note_on,6,0,3,,,,,,,,,2,,,62,0
15540,note_on,60,0,1,,,,,,,,,0,,,74,0
15540,control_change,0,0,1,,,,,,,,,0,64,0,,
15540,note_on,0,0,1,,,,,,,,,0,,,72,36
15540,note_on,0,0,3,,,,,,,,,2,,,63,36
15540,note_on,0,0,3,,,,,,,,,2,,,53,36
15540,control_change,54,0,3,,,,,,,,,2,64,0,,
15546,note_on,0,0,3,,,,,,,,,2,,,53,0
15546,note_on,6,0,3,,,,,,,,,2,,,63,0
15585,note_on,45,0,1,,,,,,,,,0,,,72,36
15600,note_on,0,0,1,,,,,,,,,0,,,72,0
15600,note_on,0,0,1,,,,,,,,,0,,,79,36
15600,note_on,15,0,1,,,,,,,,,0,,,72,0
15600,note_on,0,0,3,,,,,,,,,2,,,46,36
15600,control_change,54,0,3,,,,,,,,,2,64,127,,
15600,control_change,0,0,1,,,,,,,,,0,64,127,,
15606,note_on,6,0,3,,,,,,,,,2,,,46,0
15660,note_on,54,0,3,,,,,,,,,2,,,57,36
15660,note_on,0,0,3,,,,,,,,,2,,,62,36
15660,note_on,60,0,1,,,,,,,,,0,,,79,0
15660,note_on,0,0,1,,,,,,,,,0,,,78,36
15666,note_on,0,0,3,,,,,,,,,2,,,57,0
15666,note_on,6,0,3,,,,,,,,,2,,,62,0
15720,note_on,60,0,1,,,,,,,,,0,,,78,0
15720,control_change,0,0,1,,,,,,,,,0,64,0,,
15720,note_on,0,0,1,,,,,,,,,0,,,77,36
15720,note_on,0,0,3,,,,,,,,,2,,,62,36
15720,note_on,54,0,3,,,,,,,,,2,,,58,36
15726,note_on,0,0,3,,,,,,,,,2,,,58,0
15726,note_on,6,0,3,,,,,,,,,2,,,62,0
15780,note_on,0,0,3,,,,,,,,,2,,,62,36
15780,note_on,54,0,3,,,,,,,,,2,,,53,36
15786,note_on,0,0,3,,,,,,,,,2,,,53,0
15786,note_on,6,0,3,,,,,,,,,2,,,62,0
15840,note_on,54,0,3,,,,,,,,,2,,,58,36
15840,note_on,0,0,3,,,,,,,,,2,,,62,36
15840,note_on,120,0,1,,,,,,,,,0,,,77,0
15846,note_on,6,0,3,,,,,,,,,2,,,62,0
15846,note_on,0,0,3,,,,,,,,,2,,,58,0
15900,control_change,54,0,3,,,,,,,,,2,64,0,,
15900,note_on,0,0,3,,,,,,,,,2,,,53,36
15900,note_on,0,0,3,,,,,,,,,2,,,62,36
15906,note_on,6,0,3,,,,,,,,,2,,,62,0
15906,note_on,0,0,3,,,,,,,,,2,,,53,0
15960,control_change,120,0,1,,,,,,,,,0,64,127,,
15960,note_on,0,0,1,,,,,,,,,0,,,82,49
15960,note_on,0,0,3,,,,,,,,,2,,,50,36
15960,control_change,54,0,3,,,,,,,,,2,64,127,,
16020,note_on,0,0,3,,,,,,,,,2,,,65,36
16020,note_on,0,0,3,,,,,,,,,2,,,58,36
16020,note_on,60,0,3,,,,,,,,,2,,,50,0
16080,note_on,0,0,3,,,,,,,,,2,,,65,36
16080,note_on,0,0,3,,,,,,,,,2,,,68,36
16080,note_on,0,0,3,,,,,,,,,2,,,58,0
16080,note_on,60,0,3,,,,,,,,,2,,,65,0
16140,note_on,0,0,1,,,,,,,,,0,,,84,49
16140,note_on,180,0,1,,,,,,,,,0,,,82,0
16140,note_on,60,0,3,,,,,,,,,2,,,68,0
16140,note_on,0,0,3,,,,,,,,,2,,,65,0
16140,note_on,0,0,3,,,,,,,,,2,,,58,36
16140,note_on,0,0,3,,,,,,,,,2,,,65,36
16170,note_on,30,0,1,,,,,,,,,0,,,84,0
16170,note_on,0,0,1,,,,,,,,,0,,,82,49
16200,note_on,0,0,3,,,,,,,,,2,,,68,36
16200,note_on,0,0,3,,,,,,,,,2,,,65,36
16200,note_on,0,0,3,,,,,,,,,2,,,58,0
16200,note_on,30,0,1,,,,,,,,,0,,,82,0
16200,note_on,0,0,1,,,,,,,,,0,,,81,49
16200,note_on,60,0,3,,,,,,,,,2,,,65,0
16260,note_on,0,0,3,,,,,,,,,2,,,65,0
16260,note_on,0,0,3,,,,,,,,,2,,,65,36
16260,note_on,60,0,1,,,,,,,,,0,,,81,0
16260,note_on,0,0,1,,,,,,,,,0,,,80,49
16260,control_change,0,0,1,,,,,,,,,0,64,0,,
16260,note_on,0,0,3,,,,,,,,,2,,,58,36
16260,note_on,60,0,3,,,,,,,,,2,,,68,0
16260,control_change,0,0,3,,,,,,,,,2,64,0,,
16320,control_change,0,0,1,,,,,,,,,0,64,127,,
16320,note_on,60,0,1,,,,,,,,,0,,,80,0
16320,note_on,60,0,3,,,,,,,,,2,,,65,0
16320,note_on,0,0,3,,,,,,,,,2,,,58,0
16320,control_change,0,0,3,,,,,,,,,2,64,127,,
16320,note_on,0,0,3,,,,,,,,,2,,,51,36
16320,note_on,0,0,1,,,,,,,,,0,,,78,49
16380,note_on,0,0,3,,,,,,,,,2,,,58,36
16380,note_on,60,0,3,,,,,,,,,2,,,51,0
16380,note_on,0,0,3,,,,,,,,,2,,,63,36
16410,note_on,90,0,1,,,,,,,,,0,,,78,0
16410,note_on,0,0,1,,,,,,,,,0,,,79,49
16440,note_on,60,0,3,,,,,,,,,2,,,63,0
16440,note_on,0,0,3,,,,,,,,,2,,,58,0
16440,note_on,0,0,3,,,,,,,,,2,,,63,36
16440,note_on,0,0,3,,,,,,,,,2,,,67,36
16440,note_on,0,0,1,,,,,,,,,0,,,81,49
16440,note_on,30,0,1,,,,,,,,,0,,,79,0
16500,note_on,0,0,3,,,,,,,,,2,,,63,36
16500,note_on,60,0,3,,,,,,,,,2,,,67,0
16500,note_on,0,0,3,,,,,,,,,2,,,63,0
16500,note_on,0,0,3,,,,,,,,,2,,,59,36
16530,note_on,0,0,1,,,,,,,,,0,,,79,49
16530,note_on,90,0,1,,,,,,,,,0,,,81,0
16560,note_on,30,0,1,,,,,,,,,0,,,79,0
16560,note_on,60,0,3,,,,,,,,,2,,,63,0
16560,note_on,0,0,3,,,,,,,,,2,,,60,36
16560,note_on,0,0,3,,,,,,,,,2,,,63,36
16560,note_on,0,0,1,,,,,,,,,0,,,77,36
16560,note_on,0,0,3,,,,,,,,,2,,,59,0
16590,note_on,0,0,1,,,,,,,,,0,,,75,36
16590,note_on,30,0,1,,,,,,,,,0,,,77,0
16620,note_on,0,0,3,,,,,,,,,2,,,63,36
16620,note_on,0,0,1,,,,,,,,,0,,,74,36
16620,note_on,30,0,1,,,,,,,,,0,,,75,0
16620,note_on,60,0,3,,,,,,,,,2,,,63,0
16620,note_on,0,0,3,,,,,,,,,2,,,60,0
16620,control_change,0,0,3,,,,,,,,,2,64,0,,
16620,note_on,0,0,3,,,,,,,,,2,,,67,36
16650,control_change,0,0,1,,,,,,,,,0,64,0,,
16650,note_on,30,0,1,,,,,,,,,0,,,74,0
16650,note_on,0,0,1,,,,,,,,,0,,,72,36
16680,note_on,0,0,3,,,,,,,,,2,,,53,36
16680,control_change,0,0,3,,,,,,,,,2,64,127,,
16680,note_on,0,0,3,,,,,,,,,2,,,63,0
16680,note_on,60,0,3,,,,,,,,,2,,,67,0
16680,note_on,0,0,1,,,,,,,,,0,,,70,36
16680,control_change,0,0,1,,,,,,,,,0,64,127,,
16680,note_on,30,0,1,,,,,,,,,0,,,72,0
16740,note_on,0,0,3,,,,,,,,,2,,,62,36
16740,note_on,0,0,3,,,,,,,,,2,,,58,36
16740,note_on,60,0,3,,,,,,,,,2,,,53,0
16770,note_on,90,0,1,,,,,,,,,0,,,70,0
16770,note_on,0,0,1,,,,,,,,,0,,,72,36
16800,note_on,60,0,3,,,,,,,,,2,,,62,0
16800,note_on,0,0,1,,,,,,,,,0,,,74,36
16800,note_on,0,0,3,,,,,,,,,2,,,58,0
16800,note_on,30,0,1,,,,,,,,,0,,,72,0
16800,note_on,0,0,3,,,,,,,,,2,,,65,36
16800,note_on,0,0,3,,,,,,,,,2,,,62,36
16860,note_on,0,0,3,,,,,,,,,2,,,58,36
16860,note_on,60,0,3,,,,,,,,,2,,,65,0
16860,note_on,0,0,3,,,,,,,,,2,,,62,36
16860,note_on,0,0,3,,,,,,,,,2,,,62,0
16890,note_on,0,0,1,,,,,,,,,0,,,75,36
16890,note_on,90,0,1,,,,,,,,,0,,,74,0
16920,note_on,30,0,1,,,,,,,,,0,,,75,0
16920,note_on,0,0,3,,,,,,,,,2,,,65,36
16920,control_change,0,0,3,,,,,,,,,2,64,0,,
16920,note_on,0,0,3,,,,,,,,,2,,,63,36
16920,control_change,0,0,1,,,,,,,,,0,64,0,,
16920,note_on,0,0,3,,,,,,,,,2,,,58,0
16920,note_on,0,0,1,,,,,,,,,0,,,76,36
16920,note_on,60,0,3,,,,,,,,,2,,,62,0
16980,note_on,60,0,3,,,,,,,,,2,,,65,0
16980,note_on,0,0,3,,,,,,,,,2,,,63,0
16980,note_on,0,0,3,,,,,,,,,2,,,57,36
16980,note_on,0,0,3,,,,,,,,,2,,,63,36
17010,note_on,90,0,1,,,,,,,,,0,,,76,0
17010,note_on,0,0,1,,,,,,,,,0,,,77,36
17040,note_on,0,0,3,,,,,,,,,2,,,57,0
17040,control_change,0,0,3,,,,,,,,,2,64,127,,
17040,note_on,60,0,3,,,,,,,,,2,,,63,0
17040,note_on,30,0,1,,,,,,,,,0,,,77,0
17040,control_change,0,0,1,,,,,,,,,0,64,127,,
17040,note_on,0,0,1,,,,,,,,,0,,,74,36
17040,note_on,0,0,3,,,,,,,,,2,,,46,36
17100,note_on,0,0,3,,,,,,,,,2,,,58,36
17100,note_on,0,0,3,,,,,,,,,2,,,62,36
17100,note_on,60,0,3,,,,,,,,,2,,,46,0
17160,note_on,60,0,3,,,,,,,,,2,,,62,0
17160,note_on,0,0,3,,,,,,,,,2,,,65,36
17160,note_on,120,0,1,,,,,,,,,0,,,74,0
17160,note_on,0,0,3,,,,,,,,,2,,,62,36
17160,note_on,0,0,3,,,,,,,,,2,,,58,0
17220,note_on,60,0,1,,,,,,,,,0,,,77,36
17220,note_on,60,0,3,,,,,,,,,2,,,65,0
17220,note_on,0,0,3,,,,,,,,,2,,,62,0
17220,note_on,0,0,3,,,,,,,,,2,,,53,36
17220,note_on,0,0,3,,,,,,,,,2,,,62,36
17250,note_on,0,0,1,,,,,,,,,0,,,76,36
17250,note_on,30,0,1,,,,,,,,,0,,,77,0
17280,note_on,60,0,3,,,,,,,,,2,,,62,0
17280,note_on,0,0,3,,,,,,,,,2,,,53,0
17280,control_change,0,0,3,,,,,,,,,2,64,0,,
17280,note_on,0,0,3,,,,,,,,,2,,,55,36
17280,note_on,0,0,3,,,,,,,,,2,,,61,36
17280,note_on,30,0,1,,,,,,,,,0,,,76,0
17280,control_change,0,0,1,,,,,,,,,0,64,0,,
17280,note_on,0,0,1,,,,,,,,,0,,,79,36
17310,note_on,30,0,1,,,,,,,,,0,,,79,0
17310,note_on,0,0,1,,,,,,,,,0,,,77,36
17340,note_on,0,0,3,,,,,,,,,2,,,55,0
17340,note_on,60,0,3,,,,,,,,,2,,,61,0
17340,note_on,0,0,3,,,,,,,,,2,,,57,36
17340,note_on,0,0,3,,,,,,,,,2,,,60,36
17340,note_on,0,0,1,,,,,,,,,0,,,76,36
17340,note_on,30,0,1,,,,,,,,,0,,,77,0
17370,note_on,30,0,1,,,,,,,,,0,,,76,0
17370,note_on,0,0,1,,,,,,,,,0,,,75,36
17400,note_on,0,0,3,,,,,,,,,2,,,46,36
17400,control_change,0,0,3,,,,,,,,,2,64,127,,
17400,note_on,0,0,3,,,,,,,,,2,,,57,0
17400,note_on,60,0,3,,,,,,,,,2,,,60,0
17400,set_tempo,2520,1,0,,,,,,416667,,,,,,,
17400,note_on,0,0,1,,,,,,,,,0,,,74,36
17400,control_change,0,0,1,,,,,,,,,0,64,127,,
17400,note_on,30,0,1,,,,,,,,,0,,,75,0
17406,note_on,6,0,3,,,,,,,,,2,,,46,0
17460,note_on,54,0,3,,,,,,,,,2,,,53,36
17460,note_on,0,0,3,,,,,,,,,2,,,62,36
17466,note_on,6,0,3,,,,,,,,,2,,,62,0
17466,note_on,0,0,3,,,,,,,,,2,,,53,0
17520,note_on,0,0,3,,,,,,,,,2,,,62,36
17520,note_on,54,0,3,,,,,,,,,2,,,58,36
17526,note_on,0,0,3,,,,,,,,,2,,,58,0
17526,note_on,6,0,3,,,,,,,,,2,,,62,0
17550,note_on,150,0,1,,,,,,,,,0,,,74,36
17565,note_on,0,0,1,,,,,,,,,0,,,75,36
17565,note_on,15,0,1,,,,,,,,,0,,,74,0
17580,note_on,0,0,1,,,,,,,,,0,,,74,0
17580,note_on,15,0,1,,,,,,,,,0,,,75,0
17580,note_on,0,0,1,,,,,,,,,0,,,74,36
17580,note_on,54,0,3,,,,,,,,,2,,,53,36
17580,note_on,0,0,3,,,,,,,,,2,,,62,36
17586,note_on,6,0,3,,,,,,,,,2,,,62,0
17586,note_on,0,0,3,,,,,,,,,2,,,53,0
17640,note_on,60,0,1,,,,,,,,,0,,,74,0
17640,note_on,0,0,1,,,,,,,,,0,,,72,36
17640,note_on,0,0,3,,,,,,,,,2,,,62,36
17640,note_on,54,0,3,,,,,,,,,2,,,58,36
17646,note_on,6,0,3,,,,,,,,,2,,,62,0
17646,note_on,0,0,3,,,,,,,,,2,,,58,0
17700,note_on,60,0,1,,,,,,,,,0,,,72,0
17700,control_change,0,0,1,,,,,,,,,0,64,0,,
17700,note_on,0,0,1,,,,,,,,,0,,,70,36
17700,control_change,54,0,3,,,,,,,,,2,64,0,,
17700,note_on,0,0,3,,,,,,,,,2,,,62,36
17700,note_on,0,0,3,,,,,,,,,2,,,53,36
17706,note_on,6,0,3,,,,,,,,,2,,,62,0
17706,note_on,0,0,3,,,,,,,,,2,,,53,0
17745,note_on,45,0,1,,,,,,,,,0,,,70,36
17760,note_on,0,0,1,,,,,,,,,0,,,70,0
17760,note_on,15,0,1,,,,,,,,,0,,,70,0
17760,note_on,0,0,3,,,,,,,,,2,,,41,36
17760,control_change,0,0,1,,,,,,,,,0,64,127,,
17760,note_on,0,0,1,,,,,,,,,0,,,77,36
17760,control_change,54,0,3,,,,,,,,,2,64,127,,
17766,note_on,6,0,3,,,,,,,,,2,,,41,0
17820,note_on,54,0,3,,,,,,,,,2,,,53,36
17820,note_on,0,0,3,,,,,,,,,2,,,60,36
17820,note_on,60,0,1,,,,,,,,,0,,,77,0
17820,note_on,0,0,1,,,,,,,,,0,,,76,36
17826,note_on,6,0,3,,,,,,,,,2,,,60,0
17826,note_on,0,0,3,,,,,,,,,2,,,53,0
17880,note_on,60,0,1,,,,,,,,,0,,,76,0
17880,note_on,0,0,1,,,,,,,,,0,,,75,36
17880,control_change,0,0,1,,,,,,,,,0,64,0,,
17880,note_on,0,0,3,,,,,,,,,2,,,60,36
17880,note_on,54,0,3,,,,,,,,,2,,,57,36
17886,note_on,6,0,3,,,,,,,,,2,,,60,0
17886,note_on,0,0,3,,,,,,,,,2,,,57,0
17940,note_on,0,0,3,,,,,,,,,2,,,60,36
17940,note_on,54,0,3,,,,,,,,,2,,,53,36
17946,note_on,0,0,3,,,,,,,,,2,,,53,0
17946,note_on,6,0,3,,,,,,,,,2,,,60,0
18000,note_on,54,0,3,,,,,,,,,2,,,57,36
18000,note_on,0,0,3,,,,,,,,,2,,,60,36
18000,note_on,120,0,1,,,,,,,,,0,,,75,0
18006,note_on,0,0,3,,,,,,,,,2,,,57,0
18006,note_on,6,0,3,,,,,,,,,2,,,60,0
18060,control_change,54,0,3,,,,,,,,,2,64,0,,
18060,note_on,0,0,3,,,,,,,,,2,,,53,36
18060,note_on,0,0,3,,,,,,,,,2,,,60,36
18066,note_on,6,0,3,,,,,,,,,2,,,60,0
18066,note_on,0,0,3,,,,,,,,,2,,,53,0
18120,note_on,0,0,3,,,,,,,,,2,,,41,36
18120,control_change,54,0,3,,,,,,,,,2,64,127,,
18120,control_change,120,0,1,,,,,,,,,0,64,127,,
18120,note_on,0,0,1,,,,,,,,,0,,,75,36
18126,note_on,6,0,3,,,,,,,,,2,,,41,0
18180,note_on,54,0,3,,,,,,,,,2,,,53,36
18180,note_on,0,0,3,,,,,,,,,2,,,60,36
18186,note_on,6,0,3,,,,,,,,,2,,,60,0
18186,note_on,0,0,3,,,,,,,,,2,,,53,0
18240,note_on,0,0,3,,,,,,,,,2,,,60,36
18240,note_on,54,0,3,,,,,,,,,2,,,57,36
18246,note_on,0,0,3,,,,,,,,,2,,,57,0
18246,note_on,6,0,3,,,,,,,,,2,,,60,0
18270,note_on,150,0,1,,,,,,,,,0,,,75,36
18285,note_on,15,0,1,,,,,,,,,0,,,75,0
18285,note_on,0,0,1,,,,,,,,,0,,,77,36
18300,note_on,15,0,1,,,,,,,,,0,,,77,0
18300,note_on,0,0,1,,,,,,,,,0,,,75,0
18300,note_on,0,0,1,,,,,,,,,0,,,75,36
18300,note_on,54,0,3,,,,,,,,,2,,,53,36
18300,note_on,0,0,3,,,,,,,,,2,,,60,36
18306,note_on,6,0,3,,,,,,,,,2,,,60,0
18306,note_on,0,0,3,,,,,,,,,2,,,53,0
18360,note_on,0,0,1,,,,,,,,,0,,,74,36
18360,note_on,0,0,3,,,,,,,,,2,,,62,36
18360,note_on,60,0,1,,,,,,,,,0,,,75,0
18360,note_on,54,0,3,,,,,,,,,2,,,57,36
18366,note_on,6,0,3,,,,,,,,,2,,,62,0
18366,note_on,0,0,3,,,,,,,,,2,,,57,0
18420,control_change,0,0,1,,,,,,,,,0,64,0,,
18420,note_on,60,0,1,,,,,,,,,0,,,74,0
18420,note_on,0,0,1,,,,,,,,,0,,,72,36
18420,control_change,54,0,3,,,,,,,,,2,64,0,,
18420,note_on,0,0,3,,,,,,,,,2,,,63,36
18420,note_on,0,0,3,,,,,,,,,2,,,53,36
18426,note_on,6,0,3,,,,,,,,,2,,,63,0
18426,note_on,0,0,3,,,,,,,,,2,,,53,0
18465,note_on,45,0,1,,,,,,,,,0,,,72,36
18480,control_change,54,0,3,,,,,,,,,2,64,127,,
18480,note_on,0,0,3,,,,,,,,,2,,,46,36
18480,note_on,0,0,1,,,,,,,,,0,,,72,0
18480,note_on,15,0,1,,,,,,,,,0,,,72,0
18480,control_change,0,0,1,,,,,,,,,0,64,127,,
18480,note_on,0,0,1,,,,,,,,,0,,,79,36
18486,note_on,6,0,3,,,,,,,,,2,,,46,0
18540,note_on,0,0,1,,,,,,,,,0,,,78,36
18540,note_on,60,0,1,,,,,,,,,0,,,79,0
18540,note_on,0,0,3,,,,,,,,,2,,,62,36
18540,note_on,54,0,3,,,,,,,,,2,,,57,36
18546,note_on,6,0,3,,,,,,,,,2,,,62,0
18546,note_on,0,0,3,,,,,,,,,2,,,57,0
18600,control_change,0,0,1,,,,,,,,,0,64,0,,
18600,note_on,60,0,1,,,,,,,,,0,,,78,0
18600,note_on,0,0,3,,,,,,,,,2,,,62,36
18600,note_on,54,0,3,,,,,,,,,2,,,58,36
18600,note_on,0,0,1,,,,,,,,,0,,,77,36
18606,note_on,6,0,3,,,,,,,,,2,,,62,0
18606,note_on,0,0,3,,,,,,,,,2,,,58,0
18660,note_on,54,0,3,,,,,,,,,2,,,53,36
18660,note_on,0,0,3,,,,,,,,,2,,,62,36
18666,note_on,0,0,3,,,,,,,,,2,,,53,0
18666,note_on,6,0,3,,,,,,,,,2,,,62,0
18720,note_on,54,0,3,,,,,,,,,2,,,58,36
18720,note_on,0,0,3,,,,,,,,,2,,,62,36
18720,note_on,120,0,1,,,,,,,,,0,,,77,0
18726,note_on,6,0,3,,,,,,,,,2,,,62,0
18726,note_on,0,0,3,,,,,,,,,2,,,58,0
18780,note_on,0,0,3,,,,,,,,,2,,,53,36
18780,control_change,54,0,3,,,,,,,,,2,64,0,,
18780,note_on,0,0,3,,,,,,,,,2,,,62,36
18786,note_on,6,0,3,,,,,,,,,2,,,62,0
18786,note_on,0,0,3,,,,,,,,,2,,,53,0
18840,control_change,120,0,1,,,,,,,,,0,64,127,,
18840,note_on,0,0,3,,,,,,,,,2,,,50,36
18840,note_on,0,0,1,,,,,,,,,0,,,82,49
18840,control_change,54,0,3,,,,,,,,,2,64,127,,
18900,note_on,60,0,3,,,,,,,,,2,,,50,0
18900,note_on,0,0,3,,,,,,,,,2,,,65,36
18900,note_on,0,0,3,,,,,,,,,2,,,58,36
18960,note_on,0,0,3,,,,,,,,,2,,,58,0
18960,note_on,0,0,3,,,,,,,,,2,,,68,36
18960,note_on,0,0,3,,,,,,,,,2,,,65,36
18960,note_on,60,0,3,,,,,,,,,2,,,65,0
19020,note_on,0,0,1,,,,,,,,,0,,,84,49
19020,note_on,0,0,3,,,,,,,,,2,,,65,36
19020,note_on,0,0,3,,,,,,,,,2,,,58,36
19020,note_on,0,0,3,,,,,,,,,2,,,65,0
19020,note_on,60,0,3,,,,,,,,,2,,,68,0
19020,note_on,180,0,1,,,,,,,,,0,,,82,0
19050,note_on,0,0,1,,,,,,,,,0,,,82,49
19050,note_on,30,0,1,,,,,,,,,0,,,84,0
19080,note_on,0,0,1,,,,,,,,,0,,,81,49
19080,note_on,0,0,3,,,,,,,,,2,,,58,0
19080,note_on,30,0,1,,,,,,,,,0,,,82,0
19080,note_on,60,0,3,,,,,,,,,2,,,65,0
19080,note_on,0,0,3,,,,,,,,,2,,,68,36
19080,note_on,0,0,3,,,,,,,,,2,,,65,36
19140,note_on,0,0,3,,,,,,,,,2,,,58,36
19140,note_on,0,0,3,,,,,,,,,2,,,65,36
19140,note_on,0,0,3,,,,,,,,,2,,,65,0
19140,note_on,60,0,3,,,,,,,,,2,,,68,0
19140,note_on,0,0,1,,,,,,,,,0,,,80,49
19140,control_change,0,0,1,,,,,,,,,0,64,0,,
19140,note_on,60,0,1,,,,,,,,,0,,,81,0
19140,control_change,0,0,3,,,,,,,,,2,64,0,,
19200,note_on,0,0,3,,,,,,,,,2,,,58,0
19200,note_on,0,0,3,,,,,,,,,2,,,51,36
19200,control_change,0,0,3,,,,,,,,,2,64,127,,
19200,note_on,60,0,3,,,,,,,,,2,,,65,0
19200,control_change,0,0,1,,,,,,,,,0,64,127,,
19200,note_on,0,0,1,,,,,,,,,0,,,78,49
19200,note_on,60,0,1,,,,,,,,,0,,,80,0
19260,note_on,0,0,3,,,,,,,,,2,,,58,36
19260,note_on,60,0,3,,,,,,,,,2,,,51,0
19260,note_on,0,0,3,,,,,,,,,2,,,63,36
19290,note_on,0,0,1,,,,,,,,,0,,,79,49
19290,note_on,90,0,1,,,,,,,,,0,,,78,0
19320,note_on,0,0,1,,,,,,,,,0,,,81,49
19320,note_on,30,0,1,,,,,,,,,0,,,79,0
19320,note_on,60,0,3,,,,,,,,,2,,,63,0
19320,note_on,0,0,3,,,,,,,,,2,,,58,0
19320,note_on,0,0,3,,,,,,,,,2,,,63,36
19320,note_on,0,0,3,,,,,,,,,2,,,67,36
19380,note_on,60,0,3,,,,,,,,,2,,,67,0
19380,note_on,0,0,3,,,,,,,,,2,,,63,0
19380,note_on,0,0,3,,,,,,,,,2,,,59,36
19380,note_on,0,0,3,,,,,,,,,2,,,63,36
19410,note_on,90,0,1,,,,,,,,,0,,,81,0
19410,note_on,0,0,1,,,,,,,,,0,,,79,49
19440,note_on,0,0,3,,,,,,,,,2,,,63,36
19440,note_on,0,0,1,,,,,,,,,0,,,77,36
19440,note_on,0,0,3,,,,,,,,,2,,,60,36
19440,note_on,0,0,3,,,,,,,,,2,,,59,0
19440,note_on,30,0,1,,,,,,,,,0,,,79,0
19440,note_on,60,0,3,,,,,,,,,2,,,63,0
19470,note_on,0,0,1,,,,,,,,,0,,,75,36
19470,note_on,30,0,1,,,,,,,,,0,,,77,0
19500,note_on,0,0,3,,,,,,,,,2,,,63,36
19500,note_on,0,0,1,,,,,,,,,0,,,74,36
19500,note_on,30,0,1,,,,,,,,,0,,,75,0
19500,note_on,60,0,3,,,,,,,,,2,,,63,0
19500,note_on,0,0,3,,,,,,,,,2,,,60,0
19500,note_on,0,0,3,,,,,,,,,2,,,67,36
19500,control_change,0,0,3,,,,,,,,,2,64,0,,
19530,note_on,0,0,1,,,,,,,,,0,,,72,36
19530,control_change,0,0,1,,,,,,,,,0,64,0,,
19530,note_on,30,0,1,,,,,,,,,0,,,74,0
19560,control_change,0,0,1,,,,,,,,,0,64,127,,
19560,note_on,30,0,1,,,,,,,,,0,,,72,0
19560,note_on,0,0,3,,,,,,,,,2,,,53,36
19560,control_change,0,0,3,,,,,,,,,2,64,127,,
19560,note_on,0,0,3,,,,,,,,,2,,,63,0
19560,note_on,60,0,3,,,,,,,,,2,,,67,0
19560,note_on,0,0,1,,,,,,,,,0,,,70,36
19620,note_on,0,0,3,,,,,,,,,2,,,62,36
19620,note_on,0,0,3,,,,,,,,,2,,,58,36
19620,note_on,60,0,3,,,,,,,,,2,,,53,0
19650,note_on,0,0,1,,,,,,,,,0,,,72,36
19650,note_on,90,0,1,,,,,,,,,0,,,70,0
19680,note_on,0,0,3,,,,,,,,,2,,,62,36
19680,note_on,0,0,3,,,,,,,,,2,,,58,0
19680,note_on,60,0,3,,,,,,,,,2,,,62,0
19680,note_on,0,0,1,,,,,,,,,0,,,74,36
19680,note_on,30,0,1,,,,,,,,,0,,,72,0
19680,note_on,0,0,3,,,,,,,,,2,,,65,36
19740,note_on,0,0,3,,,,,,,,,2,,,58,36
19740,note_on,0,0,3,,,,,,,,,2,,,62,0
19740,note_on,0,0,3,,,,,,,,,2,,,62,36
19740,note_on,60,0,3,,,,,,,,,2,,,65,0
19770,note_on,90,0,1,,,,,,,,,0,,,74,0
19770,note_on,0,0,1,,,,,,,,,0,,,75,36
19800,note_on,0,0,3,,,,,,,,,2,,,65,36
19800,note_on,0,0,3,,,,,,,,,2,,,63,36
19800,control_change,0,0,3,,,,,,,,,2,64,0,,
19800,note_on,60,0,3,,,,,,,,,2,,,62,0
19800,note_on,0,0,3,,,,,,,,,2,,,58,0
19800,note_on,30,0,1,,,,,,,,,0,,,75,0
19800,control_change,0,0,1,,,,,,,,,0,64,0,,
19800,note_on,0,0,1,,,,,,,,,0,,,76,62
19830,note_on,30,0,1,,,,,,,,,0,,,76,0
19830,note_on,0,0,1,,,,,,,,,0,,,77,36
19860,note_on,0,0,3,,,,,,,,,2,,,63,36
19860,note_on,0,0,3,,,,,,,,,2,,,57,36
19860,note_on,0,0,3,,,,,,,,,2,,,63,0
19860,note_on,60,0,3,,,,,,,,,2,,,65,0
19860,note_on,30,0,1,,,,,,,,,0,,,77,0
19860,note_on,0,0,1,,,,,,,,,0,,,79,36
19890,note_on,0,0,1,,,,,,,,,0,,,77,36
19890,note_on,30,0,1,,,,,,,,,0,,,79,0
19920,note_on,0,0,1,,,,,,,,,0,,,70,36
19920,control_change,0,0,1,,,,,,,,,0,64,127,,
19920,note_on,30,0,1,,,,,,,,,0,,,77,0
19920,note_on,60,0,3,,,,,,,,,2,,,63,0
19920,note_on,0,0,3,,,,,,,,,2,,,57,0
19920,control_change,0,0,3,,,,,,,,,2,64,127,,
19920,note_on,0,0,3,,,,,,,,,2,,,58,36
19920,note_on,0,0,3,,,,,,,,,2,,,62,36
19980,note_on,60,0,3,,,,,,,,,2,,,62,0
19980,note_on,0,0,3,,,,,,,,,2,,,58,0
19980,note_on,0,0,3,,,,,,,,,2,,,70,75
19980,note_on,0,0,1,,,,,,,,,0,,,82,88
19980,note_on,60,0,1,,,,,,,,,0,,,70,0
20010,note_on,0,0,3,,,,,,,,,2,,,72,75
20010,note_on,30,0,1,,,,,,,,,0,,,82,0
20010,note_on,0,0,1,,,,,,,,,0,,,84,88
20010,note_on,30,0,3,,,,,,,,,2,,,70,0
20040,note_on,30,0,1,,,,,,,,,0,,,84,0
20040,note_on,0,0,1,,,,,,,,,0,,,86,88
20040,note_on,0,0,3,,,,,,,,,2,,,74,75
20040,note_on,30,0,3,,,,,,,,,2,,,72,0
20070,note_on,30,0,1,,,,,,,,,0,,,86,0
20070,note_on,0,0,1,,,,,,,,,0,,,84,88
20070,note_on,30,0,3,,,,,,,,,2,,,74,0
20070,note_on,0,0,3,,,,,,,,,2,,,72,75
20100,note_on,30,0,3,,,,,,,,,2,,,72,0
20100,note_on,30,0,1,,,,,,,,,0,,,84,0
20100,note_on,0,0,1,,,,,,,,,0,,,82,88
20100,note_on,0,0,3,,,,,,,,,2,,,70,75
20130,note_on,30,0,3,,,,,,,,,2,,,70,0
20130,note_on,0,0,3,,,,,,,,,2,,,69,75
20130,note_on,0,0,1,,,,,,,,,0,,,81,88
20130,note_on,30,0,1,,,,,,,,,0,,,82,0
20160,note_on,30,0,1,,,,,,,,,0,,,81,0
20160,note_on,0,0,3,,,,,,,,,2,,,67,75
20160,note_on,30,0,3,,,,,,,,,2,,,69,0
20160,note_on,0,0,1,,,,,,,,,0,,,79,88
20190,note_on,0,0,1,,,,,,,,,0,,,77,88
20190,note_on,30,0,1,,,,,,,,,0,,,79,0
20190,note_on,30,0,3,,,,,,,,,2,,,67,0
20190,note_on,0,0,3,,,,,,,,,2,,,65,75
20220,note_on,30,0,1,,,,,,,,,0,,,77,0
20220,note_on,0,0,1,,,,,,,,,0,,,75,88
20220,note_on,0,0,3,,,,,,,,,2,,,63,75
20220,note_on,30,0,3,,,,,,,,,2,,,65,0
20250,note_on,0,0,1,,,,,,,,,0,,,74,88
20250,note_on,30,0,1,,,,,,,,,0,,,75,0
20250,note_on,30,0,3,,,,,,,,,2,,,63,0
20250,note_on,0,0,3,,,,,,,,,2,,,62,75
20280,note_on,0,0,1,,,,,,,,,0,,,72,88
20280,note_on,30,0,1,,,,,,,,,0,,,74,0
20280,note_on,30,0,3,,,,,,,,,2,,,62,0
20280,note_on,0,0,3,,,,,,,,,2,,,60,75
20310,note_on,0,0,1,,,,,,,,,0,,,70,88
20310,note_on,30,0,1,,,,,,,,,0,,,72,0
20310,note_on,0,0,3,,,,,,,,,2,,,58,75
20310,note_on,30,0,3,,,,,,,,,2,,,60,0
20340,note_on,0,0,1,,,,,,,,,0,,,69,88
20340,note_on,30,0,1,,,,,,,,,0,,,70,0
20340,note_on,0,0,3,,,,,,,,,2,,,57,75
20340,note_on,30,0,3,,,,,,,,,2,,,58,0
20370,note_on,0,0,1,,,,,,,,,0,,,67,88
20370,note_on,30,0,1,,,,,,,,,0,,,69,0
20370,note_on,30,0,3,,,,,,,,,2,,,57,0
20370,note_on,0,0,3,,,,,,,,,2,,,55,75
20400,note_on,0,0,1,,,,,,,,,0,,,65,88
20400,note_on,30,0,1,,,,,,,,,0,,,67,0
20400,note_on,0,0,3,,,,,,,,,2,,,53,75
20400,note_on,30,0,3,,,,,,,,,2,,,55,0
20430,note_on,0,0,3,,,,,,,,,2,,,51,75
20430,note_on,30,0,3,,,,,,,,,2,,,53,0
20430,note_on,30,0,1,,,,,,,,,0,,,65,0
20430,note_on,0,0,1,,,,,,,,,0,,,63,88
20460,note_on,30,0,3,,,,,,,,,2,,,51,0
20460,note_on,30,0,1,,,,,,,,,0,,,63,0
20460,note_on,0,0,1,,,,,,,,,0,,,62,88
20460,note_on,0,0,3,,,,,,,,,2,,,50,75
20490,note_on,30,0,3,,,,,,,,,2,,,50,0
20490,note_on,30,0,1,,,,,,,,,0,,,62,0
20490,note_on,0,0,3,,,,,,,,,2,,,48,75
20490,note_on,0,0,1,,,,,,,,,0,,,60,88
20520,note_on,0,0,1,,,,,,,,,0,,,58,88
20520,note_on,30,0,3,,,,,,,,,2,,,48,0
20520,note_on,0,0,3,,,,,,,,,2,,,46,75
20520,note_on,30,0,1,,,,,,,,,0,,,60,0
20550,note_on,30,0,1,,,,,,,,,0,,,58,0
20550,note_on,0,0,1,,,,,,,,,0,,,57,88
20550,note_on,30,0,3,,,,,,,,,2,,,46,0
20550,note_on,0,0,3,,,,,,,,,2,,,45,75
20580,note_on,30,0,3,,,,,,,,,2,,,45,0
20580,note_on,0,0,3,,,,,,,,,2,,,43,75
20580,note_on,30,0,1,,,,,,,,,0,,,57,0
20580,note_on,0,0,1,,,,,,,,,0,,,55,88
20610,control_change,0,0,3,,,,,,,,,2,64,0,,
20610,note_on,30,0,3,,,,,,,,,2,,,43,0
20610,note_on,30,0,1,,,,,,,,,0,,,55,0
20610,control_change,0,0,1,,,,,,,,,0,64,0,,
20610,note_on,0,0,1,,,,,,,,,0,,,53,88
20610,note_on,0,0,3,,,,,,,,,2,,,41,75
20640,note_on,0,0,3,,,,,,,,,2,,,40,75
20640,note_on,0,0,1,,,,,,,,,0,,,52,88
20640,note_on,30,0,1,,,,,,,,,0,,,53,0
20640,note_on,30,0,3,,,,,,,,,2,,,41,0
20700,note_on,60,0,1,,,,,,,,,0,,,52,0
20700,note_on,60,0,3,,,,,,,,,2,,,40,0
20760,note_on,0,0,3,,,,,,,,,2,,,60,101
20760,note_on,0,0,1,,,,,,,,,0,,,82,114
20760,note_on,60,0,3,,,,,,,,,2,,,52,101
20760,note_on,0,0,1,,,,,,,,,0,,,79,114
20760,note_on,0,0,1,,,,,,,,,0,,,84,114
20760,note_on,60,0,1,,,,,,,,,0,,,72,114
20760,note_on,0,0,3,,,,,,,,,2,,,64,101
20880,note_on,0,0,1,,,,,,,,,0,,,79,0
20880,note_on,120,0,3,,,,,,,,,2,,,64,0
20880,note_on,0,0,1,,,,,,,,,0,,,72,0
20880,note_on,120,0,1,,,,,,,,,0,,,84,0
20880,note_on,0,0,3,,,,,,,,,2,,,52,0
20880,note_on,0,0,3,,,,,,,,,2,,,60,0
20880,note_on,0,0,1,,,,,,,,,0,,,82,0
21000,control_change,120,0,1,,,,,,,,,0,64,127,,
21000,note_on,0,0,3,,,,,,,,,2,,,60,36
21000,note_on,0,0,3,,,,,,,,,2,,,58,36
21000,note_on,0,0,3,,,,,,,,,2,,,55,36
21000,note_on,0,0,3,,,,,,,,,2,,,52,36
21000,control_change,120,0,3,,,,,,,,,2,64,127,,
21060,note_on,0,0,3,,,,,,,,,2,,,52,0
21060,note_on,0,0,3,,,,,,,,,2,,,55,0
21060,note_on,60,0,1,,,,,,,,,0,,,72,49
21060,note_on,60,0,3,,,,,,,,,2,,,60,0
21060,note_on,0,0,3,,,,,,,,,2,,,58,0
21105,note_on,45,0,1,,,,,,,,,0,,,75,49
21120,note_on,0,0,1,,,,,,,,,0,,,72,0
21120,note_on,60,0,3,,,,,,,,,2,,,52,36
21120,note_on,0,0,3,,,,,,,,,2,,,55,36
21120,note_on,0,0,3,,,,,,,,,2,,,60,36
21120,note_on,15,0,1,,,,,,,,,0,,,75,0
21120,note_on,0,0,1,,,,,,,,,0,,,73,49
21120,note_on,0,0,3,,,,,,,,,2,,,58,36
21180,note_on,0,0,3,,,,,,,,,2,,,55,0
21180,note_on,0,0,3,,,,,,,,,2,,,52,0
21180,note_on,0,0,1,,,,,,,,,0,,,72,49
21180,note_on,60,0,1,,,,,,,,,0,,,73,0
21180,note_on,60,0,3,,,,,,,,,2,,,60,0
21180,note_on,0,0,3,,,,,,,,,2,,,58,0
21225,note_on,45,0,1,,,,,,,,,0,,,75,49
21240,note_on,0,0,3,,,,,,,,,2,,,58,36
21240,note_on,0,0,1,,,,,,,,,0,,,73,49
21240,note_on,0,0,1,,,,,,,,,0,,,72,0
21240,note_on,15,0,1,,,,,,,,,0,,,75,0
21240,note_on,0,0,3,,,,,,,,,2,,,55,36
21240,note_on,60,0,3,,,,,,,,,2,,,52,36
21240,note_on,0,0,3,,,,,,,,,2,,,60,36
21300,note_on,60,0,3,,,,,,,,,2,,,60,0
21300,note_on,0,0,1,,,,,,,,,0,,,72,49
21300,control_change,0,0,3,,,,,,,,,2,64,0,,
21300,note_on,0,0,3,,,,,,,,,2,,,58,0
21300,note_on,0,0,3,,,,,,,,,2,,,55,0
21300,note_on,0,0,3,,,,,,,,,2,,,52,0
21300,control_change,0,0,1,,,,,,,,,0,64,0,,
21300,note_on,60,0,1,,,,,,,,,0,,,73,0
21360,control_change,0,0,1,,,,,,,,,0,64,127,,
21360,note_on,60,0,1,,,,,,,,,0,,,72,0
21360,note_on,0,0,3,,,,,,,,,2,,,53,36
21360,note_on,0,0,1,,,,,,,,,0,,,73,49
21360,note_on,0,0,3,,,,,,,,,2,,,58,36
21360,control_change,60,0,3,,,,,,,,,2,64,127,,
21360,note_on,0,0,3,,,,,,,,,2,,,61,36
21420,note_on,60,0,1,,,,,,,,,0,,,73,0
21420,note_on,0,0,1,,,,,,,,,0,,,77,49
21420,note_on,0,0,3,,,,,,,,,2,,,53,0
21420,note_on,60,0,3,,,,,,,,,2,,,61,0
21420,note_on,0,0,3,,,,,,,,,2,,,58,0
21426,note_on,6,0,1,,,,,,,,,0,,,77,0
21480,note_on,0,0,3,,,,,,,,,2,,,61,36
21480,note_on,0,0,3,,,,,,,,,2,,,58,36
21480,note_on,60,0,3,,,,,,,,,2,,,53,36
21540,note_on,0,0,3,,,,,,,,,2,,,53,0
21540,note_on,0,0,3,,,,,,,,,2,,,58,0
21540,note_on,60,0,3,,,,,,,,,2,,,61,0
21540,note_on,114,0,1,,,,,,,,,0,,,77,49
21585,note_on,45,0,1,,,,,,,,,0,,,80,49
21600,note_on,0,0,3,,,,,,,,,2,,,61,36
21600,note_on,15,0,1,,,,,,,,,0,,,80,0
21600,note_on,0,0,1,,,,,,,,,0,,,77,0
21600,note_on,0,0,1,,,,,,,,,0,,,78,49
21600,note_on,60,0,3,,,,,,,,,2,,,53,36
21600,note_on,0,0,3,,,,,,,,,2,,,58,36
21660,note_on,60,0,1,,,,,,,,,0,,,78,0
21660,note_on,0,0,3,,,,,,,,,2,,,53,0
21660,control_change,0,0,1,,,,,,,,,0,64,0,,
21660,note_on,0,0,1,,,,,,,,,0,,,77,49
21660,note_on,60,0,3,,,,,,,,,2,,,61,0
21660,control_change,0,0,3,,,,,,,,,2,64,0,,
21660,note_on,0,0,3,,,,,,,,,2,,,58,0
21720,note_on,0,0,3,,,,,,,,,2,,,61,49
21720,note_on,0,0,3,,,,,,,,,2,,,58,49
21720,note_on,0,0,3,,,,,,,,,2,,,54,49
21720,note_on,60,0,1,,,,,,,,,0,,,77,0
21720,note_on,0,0,1,,,,,,,,,0,,,82,62
21720,control_change,0,0,1,,,,,,,,,0,64,127,,
21720,control_change,60,0,3,,,,,,,,,2,64,127,,
21780,note_on,0,0,1,,,,,,,,,0,,,76,62
21780,note_on,60,0,3,,,,,,,,,2,,,61,0
21780,note_on,0,0,3,,,,,,,,,2,,,58,0
21780,note_on,0,0,3,,,,,,,,,2,,,54,0
21780,note_on,60,0,1,,,,,,,,,0,,,82,0
21786,note_on,6,0,1,,,,,,,,,0,,,76,0
21840,note_on,0,0,3,,,,,,,,,2,,,58,49
21840,note_on,60,0,3,,,,,,,,,2,,,54,49
21840,note_on,0,0,3,,,,,,,,,2,,,61,49
21900,note_on,114,0,1,,,,,,,,,0,,,76,49
21900,note_on,60,0,3,,,,,,,,,2,,,61,0
21900,note_on,0,0,3,,,,,,,,,2,,,58,0
21900,note_on,0,0,3,,,,,,,,,2,,,54,0
21945,note_on,45,0,1,,,,,,,,,0,,,78,49
21960,note_on,60,0,3,,,,,,,,,2,,,55,36
21960,note_on,0,0,3,,,,,,,,,2,,,58,36
21960,note_on,0,0,3,,,,,,,,,2,,,61,36
21960,note_on,0,0,1,,,,,,,,,0,,,76,0
21960,note_on,0,0,1,,,,,,,,,0,,,77,49
21960,note_on,15,0,1,,,,,,,,,0,,,78,0
22020,note_on,60,0,1,,,,,,,,,0,,,77,0
22020,control_change,0,0,1,,,,,,,,,0,64,0,,
22020,control_change,0,0,3,,,,,,,,,2,64,0,,
22020,note_on,0,0,3,,,,,,,,,2,,,55,0
22020,note_on,0,0,3,,,,,,,,,2,,,58,0
22020,note_on,60,0,3,,,,,,,,,2,,,61,0
22020,note_on,0,0,1,,,,,,,,,0,,,76,49
22080,note_on,60,0,1,,,,,,,,,0,,,76,0
22080,control_change,0,0,1,,,,,,,,,0,64,127,,
22080,note_on,0,0,1,,,,,,,,,0,,,77,49
22080,note_on,0,0,3,,,,,,,,,2,,,65,36
22080,note_on,0,0,3,,,,,,,,,2,,,61,36
22080,control_change,60,0,3,,,,,,,,,2,64,127,,
22080,note_on,0,0,3,,,,,,,,,2,,,56,36
22140,note_on,60,0,1,,,,,,,,,0,,,77,0
22140,note_on,0,0,3,,,,,,,,,2,,,56,0
22140,note_on,0,0,3,,,,,,,,,2,,,61,0
22140,note_on,60,0,3,,,,,,,,,2,,,65,0
22140,note_on,0,0,1,,,,,,,,,0,,,80,49
22146,note_on,6,0,1,,,,,,,,,0,,,80,0
22200,note_on,0,0,3,,,,,,,,,2,,,65,36
22200,note_on,0,0,3,,,,,,,,,2,,,61,36
22200,note_on,60,0,3,,,,,,,,,2,,,56,36
22260,note_on,0,0,3,,,,,,,,,2,,,61,0
22260,note_on,114,0,1,,,,,,,,,0,,,80,49
22260,note_on,0,0,3,,,,,,,,,2,,,56,0
22260,note_on,60,0,3,,,,,,,,,2,,,65,0
22305,control_change,45,0,1,,,,,,,,,0,64,0,,
22305,note_on,0,0,1,,,,,,,,,0,,,84,49
22320,note_on,0,0,1,,,,,,,,,0,,,80,0
22320,note_on,15,0,1,,,,,,,,,0,,,84,0
22320,note_on,0,0,1,,,,,,,,,0,,,82,49
22320,control_change,60,0,3,,,,,,,,,2,64,0,,
22320,note_on,0,0,3,,,,,,,,,2,,,66,36
22320,note_on,0,0,3,,,,,,,,,2,,,60,36
22320,note_on,0,0,3,,,,,,,,,2,,,56,36
22380,note_on,0,0,3,,,,,,,,,2,,,56,0
22380,note_on,60,0,3,,,,,,,,,2,,,66,0
22380,note_on,60,0,1,,,,,,,,,0,,,82,0
22380,note_on,0,0,1,,,,,,,,,0,,,80,49
22380,note_on,0,0,3,,,,,,,,,2,,,60,0
22440,note_on,0,0,1,,,,,,,,,0,,,77,62
22440,note_on,0,0,1,,,,,,,,,0,,,73,62
22440,control_change,0,0,1,,,,,,,,,0,64,127,,
22440,note_on,60,0,1,,,,,,,,,0,,,80,0
22440,note_on,0,0,3,,,,,,,,,2,,,65,75
22440,note_on,0,0,3,,,,,,,,,2,,,61,75
22440,control_change,60,0,3,,,,,,,,,2,64,127,,
22470,note_on,0,0,1,,,,,,,,,0,,,80,62
22470,note_on,0,0,1,,,,,,,,,0,,,73,0
22470,note_on,30,0,1,,,,,,,,,0,,,77,0
22500,note_on,0,0,1,,,,,,,,,0,,,68,62
22500,note_on,30,0,1,,,,,,,,,0,,,80,0
22530,note_on,0,0,1,,,,,,,,,0,,,80,62
22530,note_on,30,0,1,,,,,,,,,0,,,68,0
22560,note_on,0,0,1,,,,,,,,,0,,,77,62
22560,note_on,0,0,1,,,,,,,,,0,,,73,62
22560,note_on,0,0,3,,,,,,,,,2,,,61,0
22560,note_on,120,0,3,,,,,,,,,2,,,65,0
22560,note_on,30,0,1,,,,,,,,,0,,,80,0
22590,note_on,30,0,1,,,,,,,,,0,,,77,0
22590,note_on,0,0,1,,,,,,,,,0,,,73,0
22590,note_on,0,0,1,,,,,,,,,0,,,80,62
22620,note_on,30,0,1,,,,,,,,,0,,,80,0
22620,note_on,60,0,3,,,,,,,,,2,,,49,75
22620,note_on,0,0,1,,,,,,,,,0,,,68,62
22650,note_on,0,0,1,,,,,,,,,0,,,80,62
22650,note_on,30,0,1,,,,,,,,,0,,,68,0
22665,note_on,45,0,3,,,,,,,,,2,,,53,75
22680,note_on,15,0,3,,,,,,,,,2,,,53,0
22680,note_on,0,0,3,,,,,,,,,2,,,49,0
22680,note_on,0,0,3,,,,,,,,,2,,,51,75
22680,note_on,30,0,1,,,,,,,,,0,,,80,0
22680,note_on,0,0,1,,,,,,,,,0,,,73,62
22680,note_on,0,0,1,,,,,,,,,0,,,77,62
22710,note_on,30,0,1,,,,,,,,,0,,,77,0
22710,note_on,0,0,1,,,,,,,,,0,,,80,62
22710,note_on,0,0,1,,,,,,,,,0,,,73,0
22740,note_on,0,0,1,,,,,,,,,0,,,68,62
22740,note_on,30,0,1,,,,,,,,,0,,,80,0
22740,note_on,60,0,3,,,,,,,,,2,,,51,0
22740,control_change,0,0,3,,,,,,,,,2,64,0,,
22740,note_on,0,0,3,,,,,,,,,2,,,49,75
22770,note_on,30,0,1,,,,,,,,,0,,,68,0
22770,note_on,0,0,1,,,,,,,,,0,,,80,62
22770,control_change,0,0,1,,,,,,,,,0,64,0,,
22800,note_on,60,0,3,,,,,,,,,2,,,49,0
22800,control_change,0,0,3,,,,,,,,,2,64,127,,
22800,note_on,0,0,3,,,,,,,,,2,,,48,75
22800,note_on,0,0,1,,,,,,,,,0,,,78,62
22800,note_on,0,0,1,,,,,,,,,0,,,75,62
22800,control_change,0,0,1,,,,,,,,,0,64,127,,
22800,note_on,30,0,1,,,,,,,,,0,,,80,0
22830,note_on,0,0,1,,,,,,,,,0,,,80,62
22830,note_on,30,0,1,,,,,,,,,0,,,78,0
22830,note_on,0,0,1,,,,,,,,,0,,,75,0
22860,note_on,30,0,1,,,,,,,,,0,,,80,0
22860,note_on,0,0,1,,,,,,,,,0,,,68,62
22860,note_on,60,0,3,,,,,,,,,2,,,48,0
22860,note_on,0,0,3,,,,,,,,,2,,,56,101
22890,note_on,0,0,1,,,,,,,,,0,,,80,62
22890,note_on,30,0,1,,,,,,,,,0,,,68,0
22920,note_on,0,0,1,,,,,,,,,0,,,78,62
22920,note_on,0,0,1,,,,,,,,,0,,,75,62
22920,note_on,30,0,1,,,,,,,,,0,,,80,0
22950,note_on,0,0,1,,,,,,,,,0,,,80,62
22950,note_on,0,0,1,,,,,,,,,0,,,75,0
22950,note_on,30,0,1,,,,,,,,,0,,,78,0
22980,note_on,120,0,3,,,,,,,,,2,,,56,0
22980,note_on,0,0,3,,,,,,,,,2,,,54,75
22980,note_on,0,0,1,,,,,,,,,0,,,68,62
22980,note_on,30,0,1,,,,,,,,,0,,,80,0
23010,note_on,30,0,1,,,,,,,,,0,,,68,0
23010,note_on,0,0,1,,,,,,,,,0,,,80,62
23040,note_on,0,0,1,,,,,,,,,0,,,77,62
23040,note_on,0,0,1,,,,,,,,,0,,,73,62
23040,note_on,30,0,1,,,,,,,,,0,,,80,0
23040,note_on,60,0,3,,,,,,,,,2,,,54,0
23040,note_on,0,0,3,,,,,,,,,2,,,53,75
23070,note_on,0,0,1,,,,,,,,,0,,,73,0
23070,note_on,0,0,1,,,,,,,,,0,,,80,62
23070,note_on,30,0,1,,,,,,,,,0,,,77,0
23100,note_on,0,0,1,,,,,,,,,0,,,78,62
23100,note_on,30,0,1,,,,,,,,,0,,,80,0
23100,note_on,60,0,3,,,,,,,,,2,,,53,0
23100,note_on,0,0,1,,,,,,,,,0,,,72,62
23100,note_on,0,0,3,,,,,,,,,2,,,51,75
23100,control_change,0,0,3,,,,,,,,,2,64,0,,
23130,control_change,0,0,1,,,,,,,,,0,64,0,,
23130,note_on,0,0,1,,,,,,,,,0,,,80,62
23130,note_on,30,0,1,,,,,,,,,0,,,78,0
23130,note_on,0,0,1,,,,,,,,,0,,,72,0
23160,note_on,30,0,1,,,,,,,,,0,,,80,0
23160,note_on,0,0,1,,,,,,,,,0,,,77,62
23160,note_on,0,0,3,,,,,,,,,2,,,49,75
23160,note_on,0,0,1,,,,,,,,,0,,,73,62
23160,control_change,0,0,3,,,,,,,,,2,64,127,,
23160,note_on,60,0,3,,,,,,,,,2,,,51,0
23160,control_change,0,0,1,,,,,,,,,0,64,127,,
23190,note_on,0,0,1,,,,,,,,,0,,,80,62
23190,note_on,0,0,1,,,,,,,,,0,,,73,0
23190,note_on,30,0,1,,,,,,,,,0,,,77,0
23220,note_on,0,0,1,,,,,,,,,0,,,68,62
23220,note_on,30,0,1,,,,,,,,,0,,,80,0
23220,note_on,0,0,3,,,,,,,,,2,,,37,75
23220,note_on,60,0,3,,,,,,,,,2,,,49,0
23226,note_on,6,0,3,,,,,,,,,2,,,37,0
23250,note_on,0,0,1,,,,,,,,,0,,,80,62
23250,note_on,30,0,1,,,,,,,,,0,,,68,0
23280,note_on,0,0,1,,,,,,,,,0,,,77,62
23280,note_on,0,0,1,,,,,,,,,0,,,73,62
23280,note_on,30,0,1,,,,,,,,,0,,,80,0
23310,note_on,0,0,1,,,,,,,,,0,,,80,62
23310,note_on,0,0,1,,,,,,,,,0,,,73,0
23310,note_on,30,0,1,,,,,,,,,0,,,77,0
23340,note_on,30,0,1,,,,,,,,,0,,,80,0
23340,note_on,114,0,3,,,,,,,,,2,,,49,75
23340,note_on,0,0,1,,,,,,,,,0,,,68,62
23370,note_on,0,0,1,,,,,,,,,0,,,80,62
23370,note_on,30,0,1,,,,,,,,,0,,,68,0
23385,note_on,45,0,3,,,,,,,,,2,,,53,75
23400,note_on,30,0,1,,,,,,,,,0,,,80,0
23400,note_on,0,0,3,,,,,,,,,2,,,51,75
23400,note_on,0,0,1,,,,,,,,,0,,,73,62
23400,note_on,15,0,3,,,,,,,,,2,,,53,0
23400,note_on,0,0,3,,,,,,,,,2,,,49,0
23400,note_on,0,0,1,,,,,,,,,0,,,77,62
23430,note_on,0,0,1,,,,,,,,,0,,,80,62
23430,note_on,30,0,1,,,,,,,,,0,,,77,0
23430,note_on,0,0,1,,,,,,,,,0,,,73,0
23460,note_on,60,0,3,,,,,,,,,2,,,51,0
23460,note_on,0,0,3,,,,,,,,,2,,,49,75
23460,note_on,0,0,1,,,,,,,,,0,,,68,62
23460,control_change,0,0,3,,,,,,,,,2,64,0,,
23460,note_on,30,0,1,,,,,,,,,0,,,80,0
23490,note_on,30,0,1,,,,,,,,,0,,,68,0
23490,control_change,0,0,1,,,,,,,,,0,64,0,,
23490,note_on,0,0,1,,,,,,,,,0,,,80,62
23520,note_on,0,0,3,,,,,,,,,2,,,48,75
23520,note_on,60,0,3,,,,,,,,,2,,,49,0
23520,note_on,30,0,1,,,,,,,,,0,,,80,0
23520,control_change,0,0,1,,,,,,,,,0,64,127,,
23520,note_on,0,0,1,,,,,,,,,0,,,75,62
23520,control_change,0,0,3,,,,,,,,,2,64,127,,
23520,note_on,0,0,1,,,,,,,,,0,,,78,62
23550,note_on,0,0,1,,,,,,,,,0,,,80,62
23550,note_on,0,0,1,,,,,,,,,0,,,75,0
23550,note_on,30,0,1,,,,,,,,,0,,,78,0
23580,note_on,60,0,3,,,,,,,,,2,,,48,0
23580,note_on,0,0,1,,,,,,,,,0,,,68,62
23580,note_on,30,0,1,,,,,,,,,0,,,80,0
23580,note_on,0,0,3,,,,,,,,,2,,,56,101
23610,note_on,30,0,1,,,,,,,,,0,,,68,0
23610,note_on,0,0,1,,,,,,,,,0,,,80,62
23640,note_on,30,0,1,,,,,,,,,0,,,80,0
23640,note_on,0,0,1,,,,,,,,,0,,,75,62
23640,note_on,0,0,1,,,,,,,,,0,,,78,62
23670,note_on,0,0,1,,,,,,,,,0,,,75,0
23670,note_on,0,0,1,,,,,,,,,0,,,80,62
23670,note_on,30,0,1,,,,,,,,,0,,,78,0
23700,note_on,120,0,3,,,,,,,,,2,,,56,0
23700,note_on,30,0,1,,,,,,,,,0,,,80,0
23700,note_on,0,0,3,,,,,,,,,2,,,54,75
23700,note_on,0,0,1,,,,,,,,,0,,,68,62
23730,note_on,0,0,1,,,,,,,,,0,,,80,62
23730,note_on,30,0,1,,,,,,,,,0,,,68,0
23760,note_on,0,0,1,,,,,,,,,0,,,77,62
23760,note_on,0,0,1,,,,,,,,,0,,,73,62
23760,note_on,30,0,1,,,,,,,,,0,,,80,0
23760,note_on,0,0,3,,,,,,,,,2,,,53,75
23760,note_on,60,0,3,,,,,,,,,2,,,54,0
23790,note_on,30,0,1,,,,,,,,,0,,,77,0
23790,note_on,0,0,1,,,,,,,,,0,,,80,62
23790,note_on,0,0,1,,,,,,,,,0,,,73,0
23820,note_on,60,0,3,,,,,,,,,2,,,53,0
23820,control_change,0,0,3,,,,,,,,,2,64,0,,
23820,note_on,0,0,3,,,,,,,,,2,,,51,75
23820,note_on,30,0,1,,,,,,,,,0,,,80,0
23820,note_on,0,0,1,,,,,,,,,0,,,78,62
23820,note_on,0,0,1,,,,,,,,,0,,,72,62
23850,control_change,0,0,1,,,,,,,,,0,64,0,,
23850,note_on,0,0,1,,,,,,,,,0,,,72,0
23850,note_on,30,0,1,,,,,,,,,0,,,78,0
23850,note_on,0,0,1,,,,,,,,,0,,,80,62
23880,note_on,30,0,1,,,,,,,,,0,,,80,0
23880,control_change,0,0,1,,,,,,,,,0,64,127,,
23880,note_on,0,0,1,,,,,,,,,0,,,73,62
23880,note_on,0,0,3,,,,,,,,,2,,,49,75
23880,control_change,0,0,3,,,,,,,,,2,64,127,,
23880,note_on,60,0,3,,,,,,,,,2,,,51,0
23880,note_on,0,0,1,,,,,,,,,0,,,77,62
23910,note_on,30,0,1,,,,,,,,,0,,,77,0
23910,note_on,0,0,1,,,,,,,,,0,,,73,0
23910,note_on,0,0,1,,,,,,,,,0,,,80,62
23940,note_on,0,0,3,,,,,,,,,2,,,37,75
23940,note_on,60,0,3,,,,,,,,,2,,,49,0
23940,note_on,30,0,1,,,,,,,,,0,,,80,0
23940,note_on,0,0,1,,,,,,,,,0,,,68,62
23946,note_on,6,0,3,,,,,,,,,2,,,37,0
23970,note_on,0,0,1,,,,,,,,,0,,,80,62
23970,note_on,30,0,1,,,,,,,,,0,,,68,0
24000,note_on,0,0,1,,,,,,,,,0,,,73,62
24000,note_on,30,0,1,,,,,,,,,0,,,80,0
24000,note_on,0,0,1,,,,,,,,,0,,,77,62
24030,note_on,30,0,1,,,,,,,,,0,,,77,0
24030,note_on,0,0,1,,,,,,,,,0,,,73,0
24030,note_on,0,0,1,,,,,,,,,0,,,80,62
24060,note_on,0,0,1,,,,,,,,,0,,,68,62
24060,note_on,114,0,3,,,,,,,,,2,,,49,75
24060,note_on,30,0,1,,,,,,,,,0,,,80,0
24090,note_on,30,0,1,,,,,,,,,0,,,68,0
24090,note_on,0,0,1,,,,,,,,,0,,,80,62
24105,note_on,45,0,3,,,,,,,,,2,,,53,75
24120,note_on,0,0,1,,,,,,,,,0,,,77,62
24120,note_on,0,0,1,,,,,,,,,0,,,73,62
24120,note_on,0,0,3,,,,,,,,,2,,,49,0
24120,note_on,0,0,3,,,,,,,,,2,,,51,75
24120,note_on,15,0,3,,,,,,,,,2,,,53,0
24120,note_on,30,0,1,,,,,,,,,0,,,80,0
24150,note_on,0,0,1,,,,,,,,,0,,,73,0
24150,note_on,0,0,1,,,,,,,,,0,,,80,62
24150,note_on,30,0,1,,,,,,,,,0,,,77,0
24180,note_on,0,0,1,,,,,,,,,0,,,68,62
24180,note_on,30,0,1,,,,,,,,,0,,,80,0
24180,note_on,60,0,3,,,,,,,,,2,,,51,0
24180,control_change,0,0,3,,,,,,,,,2,64,0,,
24180,note_on,0,0,3,,,,,,,,,2,,,49,75
24210,note_on,0,0,1,,,,,,,,,0,,,80,62
24210,control_change,0,0,1,,,,,,,,,0,64,0,,
24210,note_on,30,0,1,,,,,,,,,0,,,68,0
24240,control_change,0,0,1,,,,,,,,,0,64,127,,
24240,note_on,0,0,1,,,,,,,,,0,,,77,75
24240,note_on,0,0,1,,,,,,,,,0,,,80,75
24240,note_on,60,0,3,,,,,,,,,2,,,49,0
24240,control_change,0,0,3,,,,,,,,,2,64,127,,
24240,note_on,0,0,3,,,,,,,,,2,,,50,88
24240,note_on,30,0,1,,,,,,,,,0,,,80,0
24270,note_on,0,0,1,,,,,,,,,0,,,77,0
24270,note_on,30,0,1,,,,,,,,,0,,,80,0
24270,note_on,0,0,1,,,,,,,,,0,,,83,75
24300,note_on,0,0,3,,,,,,,,,2,,,59,114
24300,note_on,30,0,1,,,,,,,,,0,,,83,0
24300,note_on,0,0,1,,,,,,,,,0,,,71,75
24300,note_on,60,0,3,,,,,,,,,2,,,50,0
24330,note_on,30,0,1,,,,,,,,,0,,,71,0
24330,note_on,0,0,1,,,,,,,,,0,,,83,75
24360,note_on,0,0,1,,,,,,,,,0,,,77,75
24360,note_on,0,0,1,,,,,,,,,0,,,80,75
24360,note_on,30,0,1,,,,,,,,,0,,,83,0
24390,note_on,0,0,1,,,,,,,,,0,,,83,75
24390,note_on,30,0,1,,,,,,,,,0,,,80,0
24390,note_on,0,0,1,,,,,,,,,0,,,77,0
24420,note_on,30,0,1,,,,,,,,,0,,,83,0
24420,note_on,0,0,1,,,,,,,,,0,,,71,75
24420,note_on,120,0,3,,,,,,,,,2,,,59,0
24420,note_on,0,0,3,,,,,,,,,2,,,56,88
24450,note_on,0,0,1,,,,,,,,,0,,,83,75
24450,note_on,30,0,1,,,,,,,,,0,,,71,0
24480,note_on,30,0,1,,,,,,,,,0,,,83,0
24480,note_on,0,0,3,,,,,,,,,2,,,53,88
24480,note_on,0,0,1,,,,,,,,,0,,,77,75
24480,note_on,0,0,1,,,,,,,,,0,,,80,75
24480,note_on,60,0,3,,,,,,,,,2,,,56,0
24510,note_on,30,0,1,,,,,,,,,0,,,80,0
24510,note_on,0,0,1,,,,,,,,,0,,,77,0
24510,note_on,0,0,1,,,,,,,,,0,,,83,75
24540,note_on,30,0,1,,,,,,,,,0,,,83,0
24540,note_on,60,0,3,,,,,,,,,2,,,53,0
24540,control_change,0,0,3,,,,,,,,,2,64,0,,
24540,note_on,0,0,3,,,,,,,,,2,,,51,88
24540,note_on,0,0,1,,,,,,,,,0,,,71,75
24570,note_on,0,0,1,,,,,,,,,0,,,83,75
24570,control_change,0,0,1,,,,,,,,,0,64,0,,
24570,note_on,30,0,1,,,,,,,,,0,,,71,0
24600,note_on,60,0,3,,,,,,,,,2,,,51,0
24600,note_on,0,0,3,,,,,,,,,2,,,51,88
24600,note_on,0,0,1,,,,,,,,,0,,,79,75
24600,control_change,0,0,1,,,,,,,,,0,64,127,,
24600,note_on,30,0,1,,,,,,,,,0,,,83,0
24630,note_on,30,0,1,,,,,,,,,0,,,79,0
24630,note_on,0,0,1,,,,,,,,,0,,,84,75
24660,note_on,0,0,1,,,,,,,,,0,,,72,75
24660,note_on,30,0,1,,,,,,,,,0,,,84,0
24690,note_on,0,0,1,,,,,,,,,0,,,84,75
24690,note_on,30,0,1,,,,,,,,,0,,,72,0
24720,note_on,0,0,1,,,,,,,,,0,,,79,62
24720,control_change,0,0,1,,,,,,,,,0,64,0,,
24720,note_on,30,0,1,,,,,,,,,0,,,84,0
24720,note_on,0,0,3,,,,,,,,,2,,,52,75
24720,note_on,120,0,3,,,,,,,,,2,,,51,0
24750,note_on,0,0,1,,,,,,,,,0,,,82,62
24750,note_on,30,0,1,,,,,,,,,0,,,79,0
24780,note_on,30,0,1,,,,,,,,,0,,,82,0
24780,note_on,0,0,1,,,,,,,,,0,,,73,62
24810,note_on,30,0,1,,,,,,,,,0,,,73,0
24810,note_on,0,0,1,,,,,,,,,0,,,82,62
24840,note_on,0,0,1,,,,,,,,,0,,,77,62
24840,note_on,30,0,1,,,,,,,,,0,,,82,0
24840,note_on,120,0,3,,,,,,,,,2,,,52,0
24840,note_on,0,0,3,,,,,,,,,2,,,53,75
24870,note_on,0,0,1,,,,,,,,,0,,,80,62
24870,note_on,30,0,1,,,,,,,,,0,,,77,0
24900,note_on,0,0,1,,,,,,,,,0,,,72,62
24900,note_on,30,0,1,,,,,,,,,0,,,80,0
24930,note_on,0,0,1,,,,,,,,,0,,,80,62
24930,note_on,30,0,1,,,,,,,,,0,,,72,0
24960,note_on,0,0,1,,,,,,,,,0,,,75,36
24960,note_on,0,0,1,,,,,,,,,0,,,72,36
24960,control_change,0,0,1,,,,,,,,,0,64,127,,
24960,note_on,30,0,1,,,,,,,,,0,,,80,0
24960,note_on,0,0,3,,,,,,,,,2,,,55,49
24960,note_on,120,0,3,,,,,,,,,2,,,53,0
24990,note_on,0,0,1,,,,,,,,,0,,,79,36
24990,note_on,0,0,1,,,,,,,,,0,,,72,0
24990,note_on,30,0,1,,,,,,,,,0,,,75,0
25020,note_on,30,0,1,,,,,,,,,0,,,79,0
25020,note_on,0,0,1,,,,,,,,,0,,,67,36
25050,note_on,30,0,1,,,,,,,,,0,,,67,0
25050,note_on,0,0,1,,,,,,,,,0,,,79,36
25080,note_on,30,0,1,,,,,,,,,0,,,79,0
25080,note_on,0,0,1,,,,,,,,,0,,,69,36
25080,note_on,0,0,1,,,,,,,,,0,,,75,36
25110,note_on,30,0,1,,,,,,,,,0,,,75,0
25110,note_on,0,0,1,,,,,,,,,0,,,69,0
25110,note_on,0,0,1,,,,,,,,,0,,,78,36
25140,note_on,0,0,1,,,,,,,,,0,,,67,36
25140,note_on,30,0,1,,,,,,,,,0,,,78,0
25170,note_on,30,0,1,,,,,,,,,0,,,67,0
25170,note_on,0,0,1,,,,,,,,,0,,,78,36
25200,note_on,30,0,1,,,,,,,,,0,,,78,0
25200,note_on,0,0,1,,,,,,,,,0,,,71,36
25200,note_on,0,0,1,,,,,,,,,0,,,74,36
25230,note_on,30,0,1,,,,,,,,,0,,,74,0
25230,note_on,0,0,1,,,,,,,,,0,,,71,0
25230,note_on,0,0,1,,,,,,,,,0,,,77,36
25260,note_on,30,0,1,,,,,,,,,0,,,77,0
25260,note_on,0,0,1,,,,,,,,,0,,,67,36
25290,note_on,0,0,1,,,,,,,,,0,,,77,36
25290,note_on,30,0,1,,,,,,,,,0,,,67,0
25290,control_change,0,0,1,,,,,,,,,0,64,0,,
25320,note_on,360,0,3,,,,,,,,,2,,,55,0
25320,control_change,0,0,1,,,,,,,,,0,64,127,,
25320,note_on,0,0,1,,,,,,,,,0,,,72,75
25320,note_on,0,0,1,,,,,,,,,0,,,75,75
25320,note_on,0,0,3,,,,,,,,,2,,,63,62
25320,note_on,0,0,3,,,,,,,,,2,,,60,62
25320,control_change,0,0,3,,,,,,,,,2,64,127,,
25320,note_on,30,0,1,,,,,,,,,0,,,77,0
25350,note_on,0,0,3,,,,,,,,,2,,,67,62
25350,note_on,0,0,3,,,,,,,,,2,,,60,0
25350,note_on,30,0,3,,,,,,,,,2,,,63,0
25380,note_on,0,0,3,,,,,,,,,2,,,55,62
25380,note_on,30,0,3,,,,,,,,,2,,,67,0
25410,note_on,0,0,3,,,,,,,,,2,,,67,62
25410,note_on,30,0,3,,,,,,,,,2,,,55,0
25440,note_on,120,0,1,,,,,,,,,0,,,75,0
25440,note_on,30,0,3,,,,,,,,,2,,,67,0
25440,note_on,0,0,3,,,,,,,,,2,,,60,62
25440,note_on,0,0,3,,,,,,,,,2,,,63,62
25440,note_on,0,0,1,,,,,,,,,0,,,72,0
25470,note_on,0,0,3,,,,,,,,,2,,,67,62
25470,note_on,30,0,3,,,,,,,,,2,,,63,0
25470,note_on,0,0,3,,,,,,,,,2,,,60,0
25500,note_on,0,0,3,,,,,,,,,2,,,55,62
25500,note_on,30,0,3,,,,,,,,,2,,,67,0
25500,note_on,60,0,1,,,,,,,,,0,,,72,75
25530,note_on,30,0,3,,,,,,,,,2,,,55,0
25530,note_on,0,0,3,,,,,,,,,2,,,67,62
25545,note_on,45,0,1,,,,,,,,,0,,,75,75
25560,note_on,0,0,3,,,,,,,,,2,,,60,62
25560,note_on,15,0,1,,,,,,,,,0,,,75,0
25560,note_on,0,0,1,,,,,,,,,0,,,72,0
25560,note_on,30,0,3,,,,,,,,,2,,,67,0
25560,note_on,0,0,1,,,,,,,,,0,,,74,75
25560,note_on,0,0,3,,,,,,,,,2,,,63,62
25590,note_on,0,0,3,,,,,,,,,2,,,60,0
25590,note_on,0,0,3,,,,,,,,,2,,,67,62
25590,note_on,30,0,3,,,,,,,,,2,,,63,0
25620,note_on,0,0,1,,,,,,,,,0,,,72,75
25620,control_change,0,0,1,,,,,,,,,0,64,0,,
25620,note_on,30,0,3,,,,,,,,,2,,,67,0
25620,note_on,0,0,3,,,,,,,,,2,,,55,62
25620,note_on,60,0,1,,,,,,,,,0,,,74,0
25650,note_on,0,0,3,,,,,,,,,2,,,67,62
25650,note_on,30,0,3,,,,,,,,,2,,,55,0
25650,control_change,0,0,3,,,,,,,,,2,64,0,,
25680,note_on,30,0,3,,,,,,,,,2,,,67,0
25680,note_on,60,0,1,,,,,,,,,0,,,72,0
25680,control_change,0,0,1,,,,,,,,,0,64,127,,
25680,note_on,0,0,1,,,,,,,,,0,,,71,75
25680,note_on,0,0,3,,,,,,,,,2,,,65,62
25680,note_on,0,0,3,,,,,,,,,2,,,62,62
25680,control_change,0,0,3,,,,,,,,,2,64,127,,
25710,note_on,0,0,3,,,,,,,,,2,,,67,62
25710,note_on,30,0,3,,,,,,,,,2,,,65,0
25710,note_on,0,0,3,,,,,,,,,2,,,62,0
25740,note_on,0,0,3,,,,,,,,,2,,,55,62
25740,note_on,0,0,1,,,,,,,,,0,,,79,101
25740,note_on,60,0,1,,,,,,,,,0,,,71,0
25740,note_on,30,0,3,,,,,,,,,2,,,67,0
25770,note_on,30,0,3,,,,,,,,,2,,,55,0
25770,note_on,0,0,3,,,,,,,,,2,,,67,62
25800,note_on,0,0,3,,,,,,,,,2,,,62,62
25800,note_on,30,0,3,,,,,,,,,2,,,67,0
25800,note_on,0,0,3,,,,,,,,,2,,,65,62
25830,note_on,30,0,3,,,,,,,,,2,,,65,0
25830,note_on,0,0,3,,,,,,,,,2,,,62,0
25830,note_on,0,0,3,,,,,,,,,2,,,67,62
25860,note_on,0,0,1,,,,,,,,,0,,,77,75
25860,note_on,30,0,3,,,,,,,,,2,,,67,0
25860,note_on,0,0,3,,,,,,,,,2,,,59,62
25860,note_on,0,0,3,,,,,,,,,2,,,62,62
25860,note_on,120,0,1,,,,,,,,,0,,,79,0
25890,note_on,30,0,3,,,,,,,,,2,,,62,0
25890,note_on,0,0,3,,,,,,,,,2,,,59,0
25890,note_on,0,0,3,,,,,,,,,2,,,67,62
25920,note_on,30,0,3,,,,,,,,,2,,,67,0
25920,note_on,0,0,3,,,,,,,,,2,,,60,62
25920,note_on,0,0,3,,,,,,,,,2,,,63,62
25920,note_on,0,0,1,,,,,,,,,0,,,75,75
25920,note_on,60,0,1,,,,,,,,,0,,,77,0
25950,note_on,30,0,3,,,,,,,,,2,,,63,0
25950,note_on,0,0,3,,,,,,,,,2,,,67,62
25950,note_on,0,0,3,,,,,,,,,2,,,60,0
25980,note_on,60,0,1,,,,,,,,,0,,,75,0
25980,control_change,0,0,1,,,,,,,,,0,64,0,,
25980,note_on,0,0,1,,,,,,,,,0,,,74,75
25980,note_on,0,0,3,,,,,,,,,2,,,65,62
25980,note_on,0,0,3,,,,,,,,,2,,,59,62
25980,note_on,30,0,3,,,,,,,,,2,,,67,0
26010,note_on,0,0,3,,,,,,,,,2,,,67,62
26010,control_change,0,0,3,,,,,,,,,2,64,0,,
26010,note_on,30,0,3,,,,,,,,,2,,,65,0
26010,note_on,0,0,3,,,,,,,,,2,,,59,0
26040,note_on,0,0,3,,,,,,,,,2,,,63,62
26040,note_on,0,0,3,,,,,,,,,2,,,60,62
26040,control_change,0,0,3,,,,,,,,,2,64,127,,
26040,note_on,30,0,3,,,,,,,,,2,,,67,0
26040,note_on,0,0,1,,,,,,,,,0,,,72,75
26040,note_on,60,0,1,,,,,,,,,0,,,74,0
26040,control_change,0,0,1,,,,,,,,,0,64,127,,
26070,note_on,0,0,3,,,,,,,,,2,,,67,62
26070,note_on,0,0,3,,,,,,,,,2,,,60,0
26070,note_on,30,0,3,,,,,,,,,2,,,63,0
26100,note_on,0,0,3,,,,,,,,,2,,,55,62
26100,note_on,60,0,1,,,,,,,,,0,,,72,0
26100,note_on,0,0,1,,,,,,,,,0,,,84,75
26100,note_on,30,0,3,,,,,,,,,2,,,67,0
26106,note_on,6,0,1,,,,,,,,,0,,,84,0
26130,note_on,0,0,3,,,,,,,,,2,,,67,62
26130,note_on,30,0,3,,,,,,,,,2,,,55,0
26160,note_on,0,0,3,,,,,,,,,2,,,63,62
26160,note_on,30,0,3,,,,,,,,,2,,,67,0
26160,note_on,0,0,3,,,,,,,,,2,,,60,62
26190,note_on,0,0,3,,,,,,,,,2,,,67,62
26190,note_on,30,0,3,,,,,,,,,2,,,63,0
26190,note_on,0,0,3,,,,,,,,,2,,,60,0
26220,note_on,0,0,3,,,,,,,,,2,,,55,62
26220,note_on,30,0,3,,,,,,,,,2,,,67,0
26220,note_on,114,0,1,,,,,,,,,0,,,72,75
26250,note_on,0,0,3,,,,,,,,,2,,,67,62
26250,note_on,30,0,3,,,,,,,,,2,,,55,0
26265,note_on,45,0,1,,,,,,,,,0,,,75,75
26280,note_on,0,0,1,,,,,,,,,0,,,72,0
26280,note_on,15,0,1,,,,,,,,,0,,,75,0
26280,note_on,0,0,3,,,,,,,,,2,,,63,62
26280,note_on,30,0,3,,,,,,,,,2,,,67,0
26280,note_on,0,0,3,,,,,,,,,2,,,60,62
26280,note_on,0,0,1,,,,,,,,,0,,,74,75
26310,note_on,30,0,3,,,,,,,,,2,,,63,0
26310,note_on,0,0,3,,,,,,,,,2,,,60,0
26310,note_on,0,0,3,,,,,,,,,2,,,67,62
26340,note_on,0,0,1,,,,,,,,,0,,,72,75
26340,note_on,60,0,1,,,,,,,,,0,,,74,0
26340,control_change,0,0,1,,,,,,,,,0,64,0,,
26340,note_on,30,0,3,,,,,,,,,2,,,67,0
26340,note_on,0,0,3,,,,,,,,,2,,,55,62
26370,control_change,0,0,3,,,,,,,,,2,64,0,,
26370,note_on,0,0,3,,,,,,,,,2,,,67,62
26370,note_on,30,0,3,,,,,,,,,2,,,55,0
26400,note_on,30,0,3,,,,,,,,,2,,,67,0
26400,control_change,0,0,3,,,,,,,,,2,64,127,,
26400,note_on,0,0,3,,,,,,,,,2,,,62,62
26400,note_on,0,0,3,,,,,,,,,2,,,65,62
26400,note_on,60,0,1,,,,,,,,,0,,,72,0
26400,control_change,0,0,1,,,,,,,,,0,64,127,,
26400,note_on,0,0,1,,,,,,,,,0,,,71,75
26430,note_on,0,0,3,,,,,,,,,2,,,67,62
26430,note_on,0,0,3,,,,,,,,,2,,,62,0
26430,note_on,30,0,3,,,,,,,,,2,,,65,0
26460,note_on,0,0,1,,,,,,,,,0,,,79,101
26460,note_on,60,0,1,,,,,,,,,0,,,71,0
26460,note_on,0,0,3,,,,,,,,,2,,,55,62
26460,note_on,30,0,3,,,,,,,,,2,,,67,0
26490,note_on,30,0,3,,,,,,,,,2,,,55,0
26490,note_on,0,0,3,,,,,,,,,2,,,67,62
26520,note_on,0,0,3,,,,,,,,,2,,,62,62
26520,note_on,0,0,3,,,,,,,,,2,,,65,62
26520,note_on,30,0,3,,,,,,,,,2,,,67,0
26550,note_on,30,0,3,,,,,,,,,2,,,65,0
26550,note_on,0,0,3,,,,,,,,,2,,,62,0
26550,note_on,0,0,3,,,,,,,,,2,,,67,62
26580,note_on,0,0,3,,,,,,,,,2,,,59,62
26580,note_on,0,0,3,,,,,,,,,2,,,62,62
26580,note_on,30,0,3,,,,,,,,,2,,,67,0
26580,note_on,0,0,1,,,,,,,,,0,,,77,75
26580,note_on,120,0,1,,,,,,,,,0,,,79,0
26610,note_on,30,0,3,,,,,,,,,2,,,62,0
26610,note_on,0,0,3,,,,,,,,,2,,,67,62
26610,note_on,0,0,3,,,,,,,,,2,,,59,0
26640,note_on,0,0,1,,,,,,,,,0,,,75,75
26640,note_on,60,0,1,,,,,,,,,0,,,77,0
26640,note_on,30,0,3,,,,,,,,,2,,,67,0
26640,note_on,0,0,3,,,,,,,,,2,,,60,62
26640,note_on,0,0,3,,,,,,,,,2,,,63,62
26670,note_on,30,0,3,,,,,,,,,2,,,63,0
26670,note_on,0,0,3,,,,,,,,,2,,,60,0
26670,note_on,0,0,3,,,,,,,,,2,,,67,62
26700,note_on,30,0,3,,,,,,,,,2,,,67,0
26700,note_on,0,0,1,,,,,,,,,0,,,74,75
26700,note_on,60,0,1,,,,,,,,,0,,,75,0
26700,control_change,0,0,1,,,,,,,,,0,64,0,,
26700,note_on,0,0,3,,,,,,,,,2,,,65,62
26700,note_on,0,0,3,,,,,,,,,2,,,59,62
26730,note_on,0,0,3,,,,,,,,,2,,,67,62
26730,control_change,0,0,3,,,,,,,,,2,64,0,,
26730,note_on,0,0,3,,,,,,,,,2,,,59,0
26730,note_on,30,0,3,,,,,,,,,2,,,65,0
26760,note_on,0,0,3,,,,,,,,,2,,,60,62
26760,note_on,30,0,3,,,,,,,,,2,,,67,0
26760,note_on,0,0,1,,,,,,,,,0,,,72,75
26760,control_change,0,0,1,,,,,,,,,0,64,127,,
26760,note_on,60,0,1,,,,,,,,,0,,,74,0
26760,control_change,0,0,3,,,,,,,,,2,64,127,,
26760,note_on,0,0,3,,,,,,,,,2,,,63,62
26790,note_on,30,0,3,,,,,,,,,2,,,63,0
26790,note_on,0,0,3,,,,,,,,,2,,,67,62
26790,note_on,0,0,3,,,,,,,,,2,,,60,0
26820,note_on,0,0,1,,,,,,,,,0,,,87,101
26820,note_on,60,0,1,,,,,,,,,0,,,72,0
26820,note_on,0,0,3,,,,,,,,,2,,,55,62
26820,note_on,30,0,3,,,,,,,,,2,,,67,0
26850,note_on,0,0,3,,,,,,,,,2,,,67,62
26850,note_on,30,0,3,,,,,,,,,2,,,55,0
26880,note_on,0,0,3,,,,,,,,,2,,,63,62
26880,note_on,30,0,3,,,,,,,,,2,,,67,0
26880,note_on,0,0,3,,,,,,,,,2,,,60,62
26910,note_on,0,0,3,,,,,,,,,2,,,67,62
26910,note_on,0,0,3,,,,,,,,,2,,,60,0
26910,note_on,30,0,3,,,,,,,,,2,,,63,0
26940,note_on,0,0,1,,,,,,,,,0,,,86,75
26940,note_on,120,0,1,,,,,,,,,0,,,87,0
26940,note_on,0,0,3,,,,,,,,,2,,,55,62
26940,note_on,30,0,3,,,,,,,,,2,,,67,0
26970,note_on,0,0,3,,,,,,,,,2,,,67,62
26970,note_on,30,0,3,,,,,,,,,2,,,55,0
27000,note_on,60,0,1,,,,,,,,,0,,,86,0
27000,note_on,0,0,1,,,,,,,,,0,,,84,75
27000,note_on,0,0,3,,,,,,,,,2,,,63,62
27000,note_on,0,0,3,,,,,,,,,2,,,60,62
27000,note_on,30,0,3,,,,,,,,,2,,,67,0
27030,note_on,0,0,3,,,,,,,,,2,,,60,0
27030,note_on,30,0,3,,,,,,,,,2,,,63,0
27030,note_on,0,0,3,,,,,,,,,2,,,67,62
27060,control_change,0,0,1,,,,,,,,,0,64,0,,
27060,note_on,60,0,1,,,,,,,,,0,,,84,0
27060,note_on,30,0,3,,,,,,,,,2,,,67,0
27060,note_on,0,0,3,,,,,,,,,2,,,55,62
27060,note_on,0,0,1,,,,,,,,,0,,,82,75
27090,control_change,0,0,3,,,,,,,,,2,64,0,,
27090,note_on,0,0,3,,,,,,,,,2,,,67,62
27090,note_on,30,0,3,,,,,,,,,2,,,55,0
27120,note_on,30,0,3,,,,,,,,,2,,,67,0
27120,control_change,0,0,1,,,,,,,,,0,64,127,,
27120,control_change,0,0,3,,,,,,,,,2,64,127,,
27120,note_on,60,0,1,,,,,,,,,0,,,82,0
27120,note_on,0,0,3,,,,,,,,,2,,,60,49
27120,note_on,0,0,3,,,,,,,,,2,,,63,49
27120,note_on,0,0,1,,,,,,,,,0,,,80,62
27150,note_on,0,0,3,,,,,,,,,2,,,60,0
27150,note_on,0,0,3,,,,,,,,,2,,,68,49
27150,note_on,30,0,3,,,,,,,,,2,,,63,0
27180,note_on,60,0,1,,,,,,,,,0,,,80,0
27180,note_on,0,0,1,,,,,,,,,0,,,84,88
27180,note_on,0,0,3,,,,,,,,,2,,,56,49
27180,note_on,30,0,3,,,,,,,,,2,,,68,0
27210,note_on,30,0,3,,,,,,,,,2,,,56,0
27210,note_on,0,0,3,,,,,,,,,2,,,68,49
27240,note_on,30,0,3,,,,,,,,,2,,,68,0
27240,note_on,0,0,3,,,,,,,,,2,,,60,49
27240,note_on,0,0,3,,,,,,,,,2,,,63,49
27270,note_on,0,0,3,,,,,,,,,2,,,60,0
27270,note_on,30,0,3,,,,,,,,,2,,,63,0
27270,note_on,0,0,3,,,,,,,,,2,,,68,49
27300,note_on,0,0,1,,,,,,,,,0,,,82,62
27300,note_on,30,0,3,,,,,,,,,2,,,68,0
27300,note_on,0,0,3,,,,,,,,,2,,,56,49
27300,note_on,120,0,1,,,,,,,,,0,,,84,0
27330,note_on,0,0,3,,,,,,,,,2,,,68,49
27330,note_on,30,0,3,,,,,,,,,2,,,56,0
27360,note_on,60,0,1,,,,,,,,,0,,,82,0
27360,note_on,0,0,1,,,,,,,,,0,,,80,62
27360,note_on,0,0,3,,,,,,,,,2,,,60,49
27360,note_on,30,0,3,,,,,,,,,2,,,68,0
27360,note_on,0,0,3,,,,,,,,,2,,,63,49
27390,note_on,30,0,3,,,,,,,,,2,,,63,0
27390,note_on,0,0,3,,,,,,,,,2,,,60,0
27390,note_on,0,0,3,,,,,,,,,2,,,68,49
27420,note_on,0,0,1,,,,,,,,,0,,,79,62
27420,note_on,60,0,1,,,,,,,,,0,,,80,0
27420,note_on,30,0,3,,,,,,,,,2,,,68,0
27420,note_on,0,0,3,,,,,,,,,2,,,56,49
27450,note_on,0,0,3,,,,,,,,,2,,,68,49
27450,note_on,30,0,3,,,,,,,,,2,,,56,0
27450,control_change,0,0,3,,,,,,,,,2,64,0,,
27480,note_on,0,0,3,,,,,,,,,2,,,63,36
27480,note_on,0,0,3,,,,,,,,,2,,,60,36
27480,control_change,0,0,3,,,,,,,,,2,64,127,,
27480,note_on,0,0,1,,,,,,,,,0,,,78,36
27480,note_on,60,0,1,,,,,,,,,0,,,79,0
27480,note_on,30,0,3,,,,,,,,,2,,,68,0
27480,control_change,0,0,1,,,,,,,,,0,64,0,,
27510,note_on,30,0,3,,,,,,,,,2,,,63,0
27510,note_on,0,0,3,,,,,,,,,2,,,60,0
27510,note_on,0,0,3,,,,,,,,,2,,,69,36
27540,note_on,30,0,3,,,,,,,,,2,,,69,0
27540,note_on,0,0,3,,,,,,,,,2,,,57,36
27570,note_on,30,0,3,,,,,,,,,2,,,57,0
27570,note_on,0,0,3,,,,,,,,,2,,,69,36
27600,note_on,30,0,3,,,,,,,,,2,,,69,0
27600,note_on,0,0,3,,,,,,,,,2,,,60,36
27600,note_on,0,0,3,,,,,,,,,2,,,63,36
27630,note_on,30,0,3,,,,,,,,,2,,,63,0
27630,note_on,0,0,3,,,,,,,,,2,,,60,0
27630,note_on,0,0,3,,,,,,,,,2,,,69,36
27660,note_on,0,0,3,,,,,,,,,2,,,57,36
27660,note_on,30,0,3,,,,,,,,,2,,,69,0
27690,note_on,30,0,3,,,,,,,,,2,,,57,0
27690,note_on,0,0,3,,,,,,,,,2,,,69,36
27720,note_on,30,0,3,,,,,,,,,2,,,69,0
27720,note_on,0,0,3,,,,,,,,,2,,,60,36
27720,note_on,0,0,3,,,,,,,,,2,,,63,36
27750,note_on,30,0,3,,,,,,,,,2,,,63,0
27750,note_on,0,0,3,,,,,,,,,2,,,60,0
27750,note_on,0,0,3,,,,,,,,,2,,,69,36
27780,note_on,30,0,3,,,,,,,,,2,,,69,0
27780,note_on,0,0,3,,,,,,,,,2,,,57,36
27810,note_on,30,0,3,,,,,,,,,2,,,57,0
27810,control_change,0,0,3,,,,,,,,,2,64,0,,
27810,note_on,0,0,3,,,,,,,,,2,,,69,36
27840,note_on,0,0,3,,,,,,,,,2,,,63,36
27840,note_on,30,0,3,,,,,,,,,2,,,69,0
27840,control_change,0,0,3,,,,,,,,,2,64,127,,
27840,note_on,0,0,3,,,,,,,,,2,,,60,36
27840,note_on,0,0,1,,,,,,,,,0,,,79,49
27840,note_on,360,0,1,,,,,,,,,0,,,78,0
27855,note_on,0,0,1,,,,,,,,,0,,,77,49
27855,note_on,15,0,1,,,,,,,,,0,,,79,0
27870,note_on,30,0,3,,,,,,,,,2,,,63,0
27870,note_on,0,0,1,,,,,,,,,0,,,79,49
27870,note_on,15,0,1,,,,,,,,,0,,,77,0
27870,note_on,0,0,3,,,,,,,,,2,,,60,0
27870,note_on,0,0,3,,,,,,,,,2,,,69,36
27885,note_on,0,0,1,,,,,,,,,0,,,77,49
27885,note_on,15,0,1,,,,,,,,,0,,,79,0
27900,note_on,15,0,1,,,,,,,,,0,,,77,0
27900,note_on,0,0,1,,,,,,,,,0,,,79,49
27900,note_on,30,0,3,,,,,,,,,2,,,69,0
27900,note_on,0,0,3,,,,,,,,,2,,,57,36
27915,note_on,0,0,1,,,,,,,,,0,,,77,49
27915,note_on,15,0,1,,,,,,,,,0,,,79,0
27930,note_on,0,0,1,,,,,,,,,0,,,79,49
27930,note_on,30,0,3,,,,,,,,,2,,,57,0
27930,note_on,0,0,3,,,,,,,,,2,,,69,36
27930,note_on,15,0,1,,,,,,,,,0,,,77,0
27945,note_on,0,0,1,,,,,,,,,0,,,77,49
27945,note_on,15,0,1,,,,,,,,,0,,,79,0
27960,note_on,0,0,3,,,,,,,,,2,,,63,49
27960,note_on,30,0,3,,,,,,,,,2,,,69,0
27960,note_on,0,0,1,,,,,,,,,0,,,79,62
27960,note_on,15,0,1,,,,,,,,,0,,,77,0
27960,note_on,0,0,3,,,,,,,,,2,,,60,49
27975,note_on,15,0,1,,,,,,,,,0,,,79,0
27975,note_on,0,0,1,,,,,,,,,0,,,77,62
27990,note_on,0,0,3,,,,,,,,,2,,,69,49
27990,note_on,0,0,3,,,,,,,,,2,,,60,0
27990,note_on,30,0,3,,,,,,,,,2,,,63,0
27990,note_on,0,0,1,,,,,,,,,0,,,79,62
27990,note_on,15,0,1,,,,,,,,,0,,,77,0
28005,note_on,15,0,1,,,,,,,,,0,,,79,0
28005,note_on,0,0,1,,,,,,,,,0,,,77,62
28020,note_on,0,0,3,,,,,,,,,2,,,57,49
28020,note_on,30,0,3,,,,,,,,,2,,,69,0
28020,note_on,15,0,1,,,,,,,,,0,,,77,0
28020,note_on,0,0,1,,,,,,,,,0,,,79,62
28035,note_on,0,0,1,,,,,,,,,0,,,77,62
28035,note_on,15,0,1,,,,,,,,,0,,,79,0
28050,note_on,30,0,3,,,,,,,,,2,,,57,0
28050,note_on,0,0,3,,,,,,,,,2,,,69,49
28050,note_on,15,0,1,,,,,,,,,0,,,77,0
28050,note_on,0,0,1,,,,,,,,,0,,,79,62
28065,note_on,0,0,1,,,,,,,,,0,,,77,62
28065,note_on,15,0,1,,,,,,,,,0,,,79,0
28080,note_on,0,0,1,,,,,,,,,0,,,79,75
28080,note_on,15,0,1,,,,,,,,,0,,,77,0
28080,note_on,30,0,3,,,,,,,,,2,,,69,0
28080,note_on,0,0,3,,,,,,,,,2,,,63,62
28080,note_on,0,0,3,,,,,,,,,2,,,60,62
28095,note_on,15,0,1,,,,,,,,,0,,,79,0
28095,note_on,0,0,1,,,,,,,,,0,,,77,75
28110,note_on,0,0,3,,,,,,,,,2,,,69,62
28110,note_on,30,0,3,,,,,,,,,2,,,63,0
28110,note_on,0,0,3,,,,,,,,,2,,,60,0
28110,note_on,15,0,1,,,,,,,,,0,,,77,0
28110,note_on,0,0,1,,,,,,,,,0,,,79,75
28125,note_on,15,0,1,,,,,,,,,0,,,79,0
28125,note_on,0,0,1,,,,,,,,,0,,,77,75
28140,note_on,30,0,3,,,,,,,,,2,,,69,0
28140,note_on,15,0,1,,,,,,,,,0,,,77,0
28140,note_on,0,0,3,,,,,,,,,2,,,57,62
28140,note_on,0,0,1,,,,,,,,,0,,,76,75
28160,note_on,20,0,1,,,,,,,,,0,,,76,0
28160,note_on,0,0,1,,,,,,,,,0,,,77,75
28170,note_on,0,0,3,,,,,,,,,2,,,69,62
28170,note_on,30,0,3,,,,,,,,,2,,,57,0
28170,control_change,0,0,3,,,,,,,,,2,64,0,,
28179,note_on,0,0,1,,,,,,,,,0,,,79,75
28179,control_change,19,0,1,,,,,,,,,0,64,0,,
28180,note_on,1,0,1,,,,,,,,,0,,,77,0
28199,note_on,19,0,1,,,,,,,,,0,,,79,0
28200,note_on,0,0,1,,,,,,,,,0,,,77,88
28200,note_on,0,0,3,,,,,,,,,2,,,62,75
28200,note_on,0,0,3,,,,,,,,,2,,,58,75
28200,control_change,0,0,3,,,,,,,,,2,64,127,,
28200,note_on,30,0,3,,,,,,,,,2,,,69,0
28200,control_change,1,0,1,,,,,,,,,0,64,127,,
28206,note_on,6,0,1,,,,,,,,,0,,,77,0
28230,note_on,0,0,3,,,,,,,,,2,,,58,0
28230,note_on,0,0,3,,,,,,,,,2,,,70,75
28230,note_on,30,0,3,,,,,,,,,2,,,62,0
28260,note_on,0,0,3,,,,,,,,,2,,,53,75
28260,note_on,30,0,3,,,,,,,,,2,,,70,0
28260,note_on,0,0,1,,,,,,,,,0,,,86,114
28260,note_on,54,0,1,,,,,,,,,0,,,74,106
28290,note_on,30,0,3,,,,,,,,,2,,,53,0
28290,note_on,0,0,3,,,,,,,,,2,,,65,75
28320,note_on,30,0,3,,,,,,,,,2,,,65,0
28320,note_on,0,0,3,,,,,,,,,2,,,58,75
28350,note_on,30,0,3,,,,,,,,,2,,,58,0
28350,note_on,0,0,3,,,,,,,,,2,,,65,75
28380,note_on,0,0,1,,,,,,,,,0,,,72,88
28380,note_on,0,0,1,,,,,,,,,0,,,74,0
28380,note_on,120,0,1,,,,,,,,,0,,,86,0
28380,note_on,30,0,3,,,,,,,,,2,,,65,0
28380,note_on,0,0,3,,,,,,,,,2,,,60,75
28380,note_on,0,0,1,,,,,,,,,0,,,84,88
28410,note_on,30,0,3,,,,,,,,,2,,,60,0
28410,note_on,0,0,3,,,,,,,,,2,,,65,75
28440,note_on,0,0,1,,,,,,,,,0,,,72,0
28440,note_on,60,0,1,,,,,,,,,0,,,84,0
28440,note_on,0,0,3,,,,,,,,,2,,,62,75
28440,note_on,0,0,1,,,,,,,,,0,,,70,88
28440,note_on,0,0,1,,,,,,,,,0,,,82,88
28440,note_on,30,0,3,,,,,,,,,2,,,65,0
28470,note_on,0,0,3,,,,,,,,,2,,,65,75
28470,note_on,30,0,3,,,,,,,,,2,,,62,0
28500,note_on,0,0,3,,,,,,,,,2,,,63,75
28500,note_on,30,0,3,,,,,,,,,2,,,65,0
28500,note_on,60,0,1,,,,,,,,,0,,,82,0
28500,note_on,0,0,1,,,,,,,,,0,,,70,0
28500,note_on,0,0,1,,,,,,,,,0,,,69,88
28500,note_on,0,0,1,,,,,,,,,0,,,81,88
28500,control_change,0,0,1,,,,,,,,,0,64,0,,
28530,note_on,0,0,3,,,,,,,,,2,,,65,75
28530,control_change,0,0,3,,,,,,,,,2,64,0,,
28530,note_on,30,0,3,,,,,,,,,2,,,63,0
28560,note_on,0,0,1,,,,,,,,,0,,,69,0
28560,note_on,0,0,3,,,,,,,,,2,,,62,75
28560,control_change,0,0,3,,,,,,,,,2,64,127,,
28560,note_on,30,0,3,,,,,,,,,2,,,65,0
28560,note_on,60,0,1,,,,,,,,,0,,,81,0
28560,note_on,0,0,1,,,,,,,,,0,,,70,88
28560,note_on,0,0,1,,,,,,,,,0,,,82,88
28560,control_change,0,0,1,,,,,,,,,0,64,127,,
28590,note_on,30,0,1,,,,,,,,,0,,,82,0
28590,note_on,0,0,1,,,,,,,,,0,,,70,0
28590,note_on,0,0,1,,,,,,,,,0,,,77,88
28590,note_on,0,0,3,,,,,,,,,2,,,65,75
28590,note_on,30,0,3,,,,,,,,,2,,,62,0
28620,note_on,0,0,3,,,,,,,,,2,,,53,36
28620,note_on,0,0,1,,,,,,,,,0,,,86,75
28620,note_on,30,0,1,,,,,,,,,0,,,77,0
28620,note_on,30,0,3,,,,,,,,,2,,,65,0
28620,note_on,0,0,1,,,,,,,,,0,,,74,67
28650,note_on,30,0,3,,,,,,,,,2,,,53,0
28650,note_on,0,0,3,,,,,,,,,2,,,65,36
28680,note_on,30,0,3,,,,,,,,,2,,,65,0
28680,note_on,0,0,3,,,,,,,,,2,,,58,36
28710,note_on,0,0,3,,,,,,,,,2,,,65,36
28710,note_on,30,0,3,,,,,,,,,2,,,58,0
28740,note_on,30,0,3,,,,,,,,,2,,,65,0
28740,note_on,0,0,3,,,,,,,,,2,,,60,36
28740,note_on,0,0,1,,,,,,,,,0,,,74,0
28740,note_on,0,0,1,,,,,,,,,0,,,72,49
28740,note_on,0,0,1,,,,,,,,,0,,,84,49
28740,note_on,120,0,1,,,,,,,,,0,,,86,0
28770,note_on,30,0,3,,,,,,,,,2,,,60,0
28770,note_on,0,0,3,,,,,,,,,2,,,65,36
28800,note_on,0,0,1,,,,,,,,,0,,,72,0
28800,note_on,0,0,1,,,,,,,,,0,,,70,49
28800,note_on,0,0,1,,,,,,,,,0,,,82,49
28800,note_on,0,0,3,,,,,,,,,2,,,62,36
28800,note_on,30,0,3,,,,,,,,,2,,,65,0
28800,note_on,60,0,1,,,,,,,,,0,,,84,0
28830,note_on,0,0,3,,,,,,,,,2,,,65,36
28830,note_on,30,0,3,,,,,,,,,2,,,62,0
28860,note_on,0,0,1,,,,,,,,,0,,,81,49
28860,control_change,0,0,1,,,,,,,,,0,64,0,,
28860,note_on,0,0,1,,,,,,,,,0,,,69,49
28860,note_on,60,0,1,,,,,,,,,0,,,82,0
28860,note_on,0,0,1,,,,,,,,,0,,,70,0
28860,note_on,0,0,3,,,,,,,,,2,,,63,36
28860,note_on,30,0,3,,,,,,,,,2,,,65,0
28890,control_change,0,0,3,,,,,,,,,2,64,0,,
28890,note_on,30,0,3,,,,,,,,,2,,,63,0
28890,note_on,0,0,3,,,,,,,,,2,,,65,36
28920,control_change,0,0,1,,,,,,,,,0,64,127,,
28920,note_on,0,0,1,,,,,,,,,0,,,82,49
28920,note_on,60,0,1,,,,,,,,,0,,,81,0
28920,note_on,0,0,3,,,,,,,,,2,,,62,36
28920,control_change,0,0,3,,,,,,,,,2,64,127,,
28920,note_on,30,0,3,,,,,,,,,2,,,65,0
28920,note_on,0,0,1,,,,,,,,,0,,,70,49
28920,note_on,0,0,1,,,,,,,,,0,,,69,0
28950,note_on,0,0,1,,,,,,,,,0,,,77,49
28950,note_on,0,0,1,,,,,,,,,0,,,70,0
28950,note_on,30,0,1,,,,,,,,,0,,,82,0
28950,note_on,0,0,3,,,,,,,,,2,,,65,36
28950,note_on,30,0,3,,,,,,,,,2,,,62,0
28980,note_on,0,0,1,,,,,,,,,0,,,74,106
28980,note_on,30,0,1,,,,,,,,,0,,,77,0
28980,note_on,0,0,3,,,,,,,,,2,,,53,75
28980,note_on,30,0,3,,,,,,,,,2,,,65,0
28980,note_on,0,0,1,,,,,,,,,0,,,86,114
29010,note_on,0,0,3,,,,,,,,,2,,,65,75
29010,note_on,30,0,3,,,,,,,,,2,,,53,0
29040,note_on,30,0,3,,,,,,,,,2,,,65,0
29040,note_on,0,0,3,,,,,,,,,2,,,58,75
29070,note_on,0,0,3,,,,,,,,,2,,,65,75
29070,note_on,30,0,3,,,,,,,,,2,,,58,0
29100,note_on,0,0,1,,,,,,,,,0,,,74,0
29100,note_on,0,0,1,,,,,,,,,0,,,84,88
29100,note_on,120,0,1,,,,,,,,,0,,,86,0
29100,note_on,0,0,3,,,,,,,,,2,,,60,75
29100,note_on,0,0,1,,,,,,,,,0,,,72,88
29100,note_on,30,0,3,,,,,,,,,2,,,65,0
29130,note_on,30,0,3,,,,,,,,,2,,,60,0
29130,note_on,0,0,3,,,,,,,,,2,,,65,75
29160,note_on,0,0,1,,,,,,,,,0,,,70,88
29160,note_on,30,0,3,,,,,,,,,2,,,65,0
29160,note_on,60,0,1,,,,,,,,,0,,,84,0
29160,note_on,0,0,3,,,,,,,,,2,,,62,75
29160,note_on,0,0,1,,,,,,,,,0,,,72,0
29160,note_on,0,0,1,,,,,,,,,0,,,82,88
29190,note_on,30,0,3,,,,,,,,,2,,,62,0
29190,note_on,0,0,3,,,,,,,,,2,,,65,75
29220,note_on,30,0,3,,,,,,,,,2,,,65,0
29220,note_on,0,0,1,,,,,,,,,0,,,70,0
29220,note_on,0,0,1,,,,,,,,,0,,,69,88
29220,note_on,0,0,1,,,,,,,,,0,,,81,88
29220,note_on,60,0,1,,,,,,,,,0,,,82,0
29220,control_change,0,0,1,,,,,,,,,0,64,0,,
29220,note_on,0,0,3,,,,,,,,,2,,,63,75
29250,note_on,30,0,3,,,,,,,,,2,,,63,0
29250,control_change,0,0,3,,,,,,,,,2,64,0,,
29250,note_on,0,0,3,,,,,,,,,2,,,65,75
29280,note_on,0,0,1,,,,,,,,,0,,,82,88
29280,note_on,0,0,3,,,,,,,,,2,,,62,75
29280,control_change,0,0,1,,,,,,,,,0,64,127,,
29280,control_change,0,0,3,,,,,,,,,2,64,127,,
29280,note_on,30,0,3,,,,,,,,,2,,,65,0
29280,note_on,60,0,1,,,,,,,,,0,,,81,0
29280,note_on,0,0,1,,,,,,,,,0,,,69,0
29280,note_on,0,0,1,,,,,,,,,0,,,70,88
29310,note_on,0,0,1,,,,,,,,,0,,,70,0
29310,note_on,30,0,1,,,,,,,,,0,,,82,0
29310,note_on,0,0,3,,,,,,,,,2,,,65,75
29310,note_on,0,0,1,,,,,,,,,0,,,77,88
29310,note_on,30,0,3,,,,,,,,,2,,,62,0
29340,note_on,0,0,1,,,,,,,,,0,,,74,67
29340,note_on,30,0,1,,,,,,,,,0,,,77,0
29340,note_on,30,0,3,,,,,,,,,2,,,65,0
29340,note_on,0,0,3,,,,,,,,,2,,,53,36
29340,note_on,0,0,1,,,,,,,,,0,,,86,75
29370,note_on,30,0,3,,,,,,,,,2,,,53,0
29370,note_on,0,0,3,,,,,,,,,2,,,65,36
29400,note_on,30,0,3,,,,,,,,,2,,,65,0
29400,note_on,0,0,3,,,,,,,,,2,,,58,36
29430,note_on,30,0,3,,,,,,,,,2,,,58,0
29430,note_on,0,0,3,,,,,,,,,2,,,65,36
29460,note_on,0,0,1,,,,,,,,,0,,,74,0
29460,note_on,0,0,3,,,,,,,,,2,,,60,36
29460,note_on,120,0,1,,,,,,,,,0,,,86,0
29460,note_on,0,0,1,,,,,,,,,0,,,84,49
29460,note_on,0,0,1,,,,,,,,,0,,,72,49
29460,note_on,30,0,3,,,,,,,,,2,,,65,0
29490,note_on,30,0,3,,,,,,,,,2,,,60,0
29490,note_on,0,0,3,,,,,,,,,2,,,65,36
29520,note_on,30,0,3,,,,,,,,,2,,,65,0
29520,note_on,0,0,3,,,,,,,,,2,,,62,36
29520,note_on,0,0,1,,,,,,,,,0,,,82,49
29520,note_on,0,0,1,,,,,,,,,0,,,70,49
29520,note_on,0,0,1,,,,,,,,,0,,,72,0
29520,note_on,60,0,1,,,,,,,,,0,,,84,0
29550,note_on,0,0,3,,,,,,,,,2,,,65,36
29550,note_on,30,0,3,,,,,,,,,2,,,62,0
29580,note_on,0,0,3,,,,,,,,,2,,,63,36
29580,note_on,30,0,3,,,,,,,,,2,,,65,0
29580,note_on,60,0,1,,,,,,,,,0,,,82,0
29580,control_change,0,0,1,,,,,,,,,0,64,0,,
29580,note_on,0,0,1,,,,,,,,,0,,,81,49
29580,note_on,0,0,1,,,,,,,,,0,,,69,49
29580,note_on,0,0,1,,,,,,,,,0,,,70,0
29610,note_on,30,0,3,,,,,,,,,2,,,63,0
29610,control_change,0,0,3,,,,,,,,,2,64,0,,
29610,note_on,0,0,3,,,,,,,,,2,,,65,36
29640,control_change,0,0,1,,,,,,,,,0,64,127,,
29640,note_on,0,0,3,,,,,,,,,2,,,62,36
29640,note_on,0,0,3,,,,,,,,,2,,,58,36
29640,note_on,30,0,3,,,,,,,,,2,,,65,0
29640,note_on,60,0,1,,,,,,,,,0,,,81,0
29640,note_on,0,0,1,,,,,,,,,0,,,69,0
29640,note_on,0,0,1,,,,,,,,,0,,,82,49
29670,note_on,30,0,1,,,,,,,,,0,,,82,0
29670,note_on,0,0,1,,,,,,,,,0,,,86,49
29700,note_on,0,0,1,,,,,,,,,0,,,85,49
29700,note_on,30,0,1,,,,,,,,,0,,,86,0
29730,note_on,0,0,1,,,,,,,,,0,,,86,49
29730,note_on,30,0,1,,,,,,,,,0,,,85,0
29760,note_on,0,0,3,,,,,,,,,2,,,58,0
29760,note_on,0,0,1,,,,,,,,,0,,,91,49
29760,note_on,30,0,1,,,,,,,,,0,,,86,0
29760,note_on,120,0,3,,,,,,,,,2,,,62,0
29790,note_on,30,0,1,,,,,,,,,0,,,91,0
29790,note_on,0,0,1,,,,,,,,,0,,,89,49
29820,note_on,30,0,1,,,,,,,,,0,,,89,0
29820,note_on,0,0,1,,,,,,,,,0,,,81,49
29850,note_on,30,0,1,,,,,,,,,0,,,81,0
29850,note_on,0,0,1,,,,,,,,,0,,,82,49
29880,note_on,0,0,1,,,,,,,,,0,,,87,62
29880,note_on,30,0,1,,,,,,,,,0,,,82,0
29910,note_on,0,0,1,,,,,,,,,0,,,86,62
29910,note_on,30,0,1,,,,,,,,,0,,,87,0
29940,note_on,30,0,1,,,,,,,,,0,,,86,0
29940,note_on,0,0,1,,,,,,,,,0,,,76,62
29970,note_on,30,0,1,,,,,,,,,0,,,76,0
29970,note_on,0,0,1,,,,,,,,,0,,,77,62
30000,note_on,30,0,1,,,,,,,,,0,,,77,0
30000,note_on,0,0,1,,,,,,,,,0,,,84,62
30030,note_on,0,0,1,,,,,,,,,0,,,82,62
30030,note_on,30,0,1,,,,,,,,,0,,,84,0
30060,note_on,0,0,1,,,,,,,,,0,,,73,62
30060,note_on,30,0,1,,,,,,,,,0,,,82,0
30090,note_on,0,0,1,,,,,,,,,0,,,74,62
30090,note_on,30,0,1,,,,,,,,,0,,,73,0
30120,note_on,0,0,1,,,,,,,,,0,,,79,75
30120,note_on,30,0,1,,,,,,,,,0,,,74,0
30150,note_on,0,0,1,,,,,,,,,0,,,77,75
30150,note_on,30,0,1,,,,,,,,,0,,,79,0
30180,note_on,0,0,1,,,,,,,,,0,,,69,75
30180,note_on,30,0,1,,,,,,,,,0,,,77,0
30210,note_on,30,0,1,,,,,,,,,0,,,69,0
30210,note_on,0,0,1,,,,,,,,,0,,,70,75
30240,note_on,30,0,1,,,,,,,,,0,,,70,0
30240,note_on,0,0,1,,,,,,,,,0,,,75,75
30270,note_on,30,0,1,,,,,,,,,0,,,75,0
30270,note_on,0,0,1,,,,,,,,,0,,,74,75
30300,note_on,0,0,1,,,,,,,,,0,,,64,75
30300,note_on,30,0,1,,,,,,,,,0,,,74,0
30330,control_change,0,0,1,,,,,,,,,0,64,0,,
30330,note_on,0,0,1,,,,,,,,,0,,,65,75
30330,note_on,30,0,1,,,,,,,,,0,,,64,0
30360,note_on,30,0,1,,,,,,,,,0,,,65,0
30360,note_on,0,0,3,,,,,,,,,2,,,52,75
30360,note_on,0,0,3,,,,,,,,,2,,,49,75
30360,note_on,0,0,3,,,,,,,,,2,,,46,75
30360,note_on,600,0,3,,,,,,,,,2,,,43,75
30360,control_change,0,0,1,,,,,,,,,0,64,127,,
30360,note_on,0,0,1,,,,,,,,,0,,,73,88
30390,note_on,0,0,1,,,,,,,,,0,,,64,88
30390,note_on,30,0,1,,,,,,,,,0,,,73,0
30420,note_on,0,0,1,,,,,,,,,0,,,67,88
30420,note_on,30,0,1,,,,,,,,,0,,,64,0
30450,note_on,0,0,1,,,,,,,,,0,,,70,88
30450,note_on,30,0,1,,,,,,,,,0,,,67,0
30480,note_on,30,0,1,,,,,,,,,0,,,70,0
30480,note_on,0,0,1,,,,,,,,,0,,,73,88
30510,note_on,30,0,1,,,,,,,,,0,,,73,0
30510,note_on,0,0,1,,,,,,,,,0,,,76,88
30540,note_on,30,0,1,,,,,,,,,0,,,76,0
30540,note_on,0,0,1,,,,,,,,,0,,,79,88
30570,note_on,30,0,1,,,,,,,,,0,,,79,0
30570,note_on,0,0,1,,,,,,,,,0,,,82,88
30600,note_on,0,0,1,,,,,,,,,0,,,85,88
30600,note_on,30,0,1,,,,,,,,,0,,,82,0
30600,control_change,0,0,1,,,,,,,,,0,64,0,,
30606,note_on,6,0,1,,,,,,,,,0,,,85,0
30660,note_on,0,0,3,,,,,,,,,2,,,43,0
30660,note_on,0,0,3,,,,,,,,,2,,,46,0
30660,note_on,0,0,3,,,,,,,,,2,,,49,0
30660,note_on,300,0,3,,,,,,,,,2,,,52,0
30720,note_on,0,0,3,,,,,,,,,2,,,57,114
30720,note_on,0,0,1,,,,,,,,,0,,,84,119
30720,note_on,0,0,1,,,,,,,,,0,,,87,123
30720,note_on,0,0,1,,,,,,,,,0,,,89,127
30720,control_change,60,0,3,,,,,,,,,2,64,127,,
30720,note_on,114,0,1,,,,,,,,,0,,,77,115
30750,note_on,0,0,3,,,,,,,,,2,,,45,114
30750,note_on,30,0,3,,,,,,,,,2,,,57,0
30780,note_on,0,0,3,,,,,,,,,2,,,48,114
30780,note_on,30,0,3,,,,,,,,,2,,,45,0
30810,note_on,30,0,3,,,,,,,,,2,,,48,0
30810,note_on,0,0,3,,,,,,,,,2,,,51,114
30840,note_on,0,0,3,,,,,,,,,2,,,53,114
30840,note_on,30,0,3,,,,,,,,,2,,,51,0
30870,note_on,0,0,3,,,,,,,,,2,,,57,114
30870,note_on,30,0,3,,,,,,,,,2,,,53,0
30900,note_on,30,0,3,,,,,,,,,2,,,57,0
30900,note_on,0,0,3,,,,,,,,,2,,,60,114
30930,note_on,0,0,3,,,,,,,,,2,,,65,114
30930,note_on,30,0,3,,,,,,,,,2,,,60,0
30960,control_change,0,0,3,,,,,,,,,2,64,0,,
30960,note_on,30,0,3,,,,,,,,,2,,,65,0
30960,note_on,0,0,3,,,,,,,,,2,,,69,114
30966,note_on,6,0,3,,,,,,,,,2,,,69,0
31020,note_on,300,0,1,,,,,,,,,0,,,89,0
31020,note_on,0,0,1,,,,,,,,,0,,,77,0
31020,note_on,0,0,1,,,,,,,,,0,,,87,0
31020,note_on,0,0,1,,,,,,,,,0,,,84,0
31080,control_change,114,0,3,,,,,,,,,2,64,127,,
31080,note_on,0,0,1,,,,,,,,,0,,,86,49
31080,control_change,60,0,1,,,,,,,,,0,64,127,,
31080,note_on,0,0,3,,,,,,,,,2,,,70,49
31110,note_on,30,0,1,,,,,,,,,0,,,86,0
31110,note_on,0,0,1,,,,,,,,,0,,,82,49
31140,note_on,0,0,1,,,,,,,,,0,,,79,49
31140,note_on,30,0,1,,,,,,,,,0,,,82,0
31140,note_on,60,0,3,,,,,,,,,2,,,70,0
31140,note_on,0,0,3,,,,,,,,,2,,,63,49
31170,note_on,0,0,1,,,,,,,,,0,,,75,49
31170,note_on,30,0,1,,,,,,,,,0,,,79,0
31200,note_on,60,0,3,,,,,,,,,2,,,63,0
31200,note_on,0,0,1,,,,,,,,,0,,,74,49
31200,note_on,30,0,1,,,,,,,,,0,,,75,0
31200,note_on,0,0,3,,,,,,,,,2,,,65,49
31320,note_on,120,0,1,,,,,,,,,0,,,74,0
31320,note_on,120,0,3,,,,,,,,,2,,,65,0
31320,control_change,0,0,3,,,,,,,,,2,64,0,,
31320,note_on,0,0,3,,,,,,,,,2,,,53,49
31320,note_on,0,0,3,,,,,,,,,2,,,63,49
31320,note_on,0,0,1,,,,,,,,,0,,,77,75
31320,note_on,0,0,1,,,,,,,,,0,,,69,67
31320,control_change,0,0,1,,,,,,,,,0,64,0,,
31440,note_on,0,0,3,,,,,,,,,2,,,46,36
31440,control_change,0,0,3,,,,,,,,,2,64,127,,
31440,note_on,0,0,3,,,,,,,,,2,,,53,0
31440,control_change,0,0,1,,,,,,,,,0,64,127,,
31440,note_on,120,0,3,,,,,,,,,2,,,63,0
31440,note_on,21600,0,4,,,,,,,,,3,,,46,36
31440,note_on,0,0,1,,,,,,,,,0,,,69,0
31440,note_on,120,0,1,,,,,,,,,0,,,77,0
31440,note_on,0,0,1,,,,,,,,,0,,,70,49
31470,note_on,30,0,3,,,,,,,,,2,,,46,0
31470,note_on,0,0,3,,,,,,,,,2,,,58,36
31500,note_on,30,0,3,,,,,,,,,2,,,58,0
31500,note_on,0,0,3,,,,,,,,,2,,,50,36
31530,note_on,0,0,3,,,,,,,,,2,,,58,36
31530,note_on,30,0,3,,,,,,,,,2,,,50,0
31560,note_on,120,0,1,,,,,,,,,0,,,70,0
31560,note_on,0,0,1,,,,,,,,,0,,,62,49
31560,note_on,0,0,1,,,,,,,,,0,,,74,49
31560,note_on,0,0,3,,,,,,,,,2,,,53,36
31560,note_on,30,0,3,,,,,,,,,2,,,58,0
31590,note_on,30,0,3,,,,,,,,,2,,,53,0
31590,note_on,0,0,3,,,,,,,,,2,,,58,36
31620,note_on,30,0,3,,,,,,,,,2,,,58,0
31620,note_on,0,0,3,,,,,,,,,2,,,56,36
31650,note_on,30,0,3,,,,,,,,,2,,,56,0
31650,note_on,0,0,3,,,,,,,,,2,,,58,36
31680,note_on,0,0,1,,,,,,,,,0,,,62,0
31680,note_on,0,0,1,,,,,,,,,0,,,65,49
31680,note_on,0,0,1,,,,,,,,,0,,,77,49
31680,note_on,30,0,3,,,,,,,,,2,,,58,0
31680,note_on,0,0,3,,,,,,,,,2,,,53,36
31680,note_on,120,0,1,,,,,,,,,0,,,74,0
31710,note_on,30,0,3,,,,,,,,,2,,,53,0
31710,note_on,0,0,3,,,,,,,,,2,,,58,36
31740,note_on,0,0,3,,,,,,,,,2,,,50,36
31740,note_on,30,0,3,,,,,,,,,2,,,58,0
31770,note_on,30,0,3,,,,,,,,,2,,,50,0
31770,note_on,0,0,3,,,,,,,,,2,,,58,36
31800,note_on,0,0,1,,,,,,,,,0,,,82,75
31800,note_on,0,0,1,,,,,,,,,0,,,70,67
31800,note_on,0,0,1,,,,,,,,,0,,,65,0
31800,note_on,120,0,1,,,,,,,,,0,,,77,0
31800,note_on,360,0,4,,,,,,,,,3,,,46,0
31800,note_on,0,0,4,,,,,,,,,3,,,46,36
31800,note_on,0,0,3,,,,,,,,,2,,,46,36
31800,note_on,30,0,3,,,,,,,,,2,,,58,0
31830,note_on,0,0,3,,,,,,,,,2,,,58,36
31830,note_on,30,0,3,,,,,,,,,2,,,46,0
31860,note_on,30,0,3,,,,,,,,,2,,,58,0
31860,note_on,0,0,3,,,,,,,,,2,,,50,36
31890,note_on,0,0,3,,,,,,,,,2,,,58,36
31890,note_on,30,0,3,,,,,,,,,2,,,50,0
31920,note_on,0,0,1,,,,,,,,,0,,,74,49
31920,note_on,0,0,3,,,,,,,,,2,,,53,36
31920,control_change,0,0,1,,,,,,,,,0,64,0,,
31920,note_on,0,0,1,,,,,,,,,0,,,86,49
31920,note_on,30,0,3,,,,,,,,,2,,,58,0
31920,note_on,0,0,1,,,,,,,,,0,,,70,0
31920,note_on,120,0,1,,,,,,,,,0,,,82,0
31950,note_on,0,0,3,,,,,,,,,2,,,58,36
31950,note_on,30,0,3,,,,,,,,,2,,,53,0
31980,note_on,30,0,3,,,,,,,,,2,,,58,0
31980,note_on,0,0,3,,,,,,,,,2,,,56,36
32010,note_on,0,0,3,,,,,,,,,2,,,58,36
32010,note_on,30,0,3,,,,,,,,,2,,,56,0
32040,note_on,120,0,1,,,,,,,,,0,,,86,0
32040,note_on,0,0,1,,,,,,,,,0,,,74,0
32040,note_on,0,0,3,,,,,,,,,2,,,53,36
32040,note_on,30,0,3,,,,,,,,,2,,,58,0
32070,note_on,0,0,3,,,,,,,,,2,,,58,36
32070,note_on,30,0,3,,,,,,,,,2,,,53,0
32100,note_on,0,0,3,,,,,,,,,2,,,50,36
32100,note_on,30,0,3,,,,,,,,,2,,,58,0
32130,note_on,0,0,3,,,,,,,,,2,,,58,36
32130,note_on,30,0,3,,,,,,,,,2,,,50,0
32130,control_change,0,0,3,,,,,,,,,2,64,0,,
32160,note_on,0,0,1,,,,,,,,,0,,,70,49
32160,note_on,0,0,4,,,,,,,,,3,,,46,36
32160,note_on,360,0,4,,,,,,,,,3,,,46,0
32160,note_on,0,0,3,,,,,,,,,2,,,46,36
32160,control_change,0,0,3,,,,,,,,,2,64,127,,
32160,note_on,30,0,3,,,,,,,,,2,,,58,0
32160,control_change,120,0,1,,,,,,,,,0,64,127,,
32190,note_on,0,0,3,,,,,,,,,2,,,58,36
32190,note_on,30,0,3,,,,,,,,,2,,,46,0
32220,note_on,0,0,3,,,,,,,,,2,,,51,36
32220,note_on,30,0,3,,,,,,,,,2,,,58,0
32250,note_on,0,0,3,,,,,,,,,2,,,58,36
32250,note_on,30,0,3,,,,,,,,,2,,,51,0
32280,note_on,0,0,1,,,,,,,,,0,,,63,49
32280,note_on,30,0,3,,,,,,,,,2,,,58,0
32280,note_on,0,0,3,,,,,,,,,2,,,55,36
32280,note_on,120,0,1,,,,,,,,,0,,,70,0
32280,note_on,0,0,1,,,,,,,,,0,,,75,49
32310,note_on,30,0,3,,,,,,,,,2,,,55,0
32310,note_on,0,0,3,,,,,,,,,2,,,58,36
32340,note_on,0,0,3,,,,,,,,,2,,,57,36
32340,note_on,30,0,3,,,,,,,,,2,,,58,0
32370,note_on,30,0,3,,,,,,,,,2,,,57,0
32370,note_on,0,0,3,,,,,,,,,2,,,58,36
32400,note_on,0,0,3,,,,,,,,,2,,,55,36
32400,note_on,30,0,3,,,,,,,,,2,,,58,0
32400,note_on,0,0,1,,,,,,,,,0,,,79,49
32400,note_on,0,0,1,,,,,,,,,0,,,67,49
32400,note_on,0,0,1,,,,,,,,,0,,,63,0
32400,note_on,120,0,1,,,,,,,,,0,,,75,0
32430,note_on,30,0,3,,,,,,,,,2,,,55,0
32430,note_on,0,0,3,,,,,,,,,2,,,58,36
32460,note_on,30,0,3,,,,,,,,,2,,,58,0
32460,note_on,0,0,3,,,,,,,,,2,,,51,36
32490,note_on,30,0,3,,,,,,,,,2,,,51,0
32490,note_on,0,0,3,,,,,,,,,2,,,58,36
32520,note_on,0,0,4,,,,,,,,,3,,,46,36
32520,note_on,0,0,1,,,,,,,,,0,,,82,75
32520,note_on,0,0,1,,,,,,,,,0,,,70,67
32520,note_on,0,0,3,,,,,,,,,2,,,46,36
32520,note_on,120,0,1,,,,,,,,,0,,,79,0
32520,note_on,0,0,1,,,,,,,,,0,,,67,0
32520,note_on,30,0,3,,,,,,,,,2,,,58,0
32520,note_on,360,0,4,,,,,,,,,3,,,46,0
32550,note_on,30,0,3,,,,,,,,,2,,,46,0
32550,note_on,0,0,3,,,,,,,,,2,,,58,36
32580,note_on,30,0,3,,,,,,,,,2,,,58,0
32580,note_on,0,0,3,,,,,,,,,2,,,51,36
32610,note_on,30,0,3,,,,,,,,,2,,,51,0
32610,note_on,0,0,3,,,,,,,,,2,,,58,36
32640,note_on,30,0,3,,,,,,,,,2,,,58,0
32640,note_on,0,0,3,,,,,,,,,2,,,55,36
32640,note_on,120,0,1,,,,,,,,,0,,,82,0
32640,note_on,0,0,1,,,,,,,,,0,,,70,0
32640,note_on,0,0,1,,,,,,,,,0,,,75,49
32640,note_on,0,0,1,,,,,,,,,0,,,87,49
32670,note_on,0,0,3,,,,,,,,,2,,,58,36
32670,note_on,30,0,3,,,,,,,,,2,,,55,0
32700,note_on,30,0,3,,,,,,,,,2,,,58,0
32700,note_on,0,0,3,,,,,,,,,2,,,57,36
32730,note_on,30,0,3,,,,,,,,,2,,,57,0
32730,note_on,0,0,3,,,,,,,,,2,,,58,36
32760,note_on,30,0,3,,,,,,,,,2,,,58,0
32760,note_on,0,0,3,,,,,,,,,2,,,55,36
32760,note_on,120,0,1,,,,,,,,,0,,,87,0
32760,note_on,0,0,1,,,,,,,,,0,,,75,0
32760,control_change,0,0,1,,,,,,,,,0,64,0,,
32790,note_on,30,0,3,,,,,,,,,2,,,55,0
32790,note_on,0,0,3,,,,,,,,,2,,,58,36
32820,note_on,30,0,3,,,,,,,,,2,,,58,0
32820,note_on,0,0,3,,,,,,,,,2,,,51,36
32850,control_change,0,0,3,,,,,,,,,2,64,0,,
32850,note_on,30,0,3,,,,,,,,,2,,,51,0
32850,note_on,0,0,3,,,,,,,,,2,,,58,36
32880,note_on,0,0,4,,,,,,,,,3,,,46,36
32880,note_on,360,0,4,,,,,,,,,3,,,46,0
32880,control_change,120,0,1,,,,,,,,,0,64,127,,
32880,note_on,0,0,1,,,,,,,,,0,,,78,88
32880,note_on,0,0,1,,,,,,,,,0,,,90,88
32880,note_on,30,0,3,,,,,,,,,2,,,58,0
32880,note_on,0,0,3,,,,,,,,,2,,,46,36
32880,control_change,0,0,3,,,,,,,,,2,64,127,,
32910,note_on,30,0,3,,,,,,,,,2,,,46,0
32910,note_on,0,0,3,,,,,,,,,2,,,57,36
32940,note_on,0,0,3,,,,,,,,,2,,,48,36
32940,note_on,30,0,3,,,,,,,,,2,,,57,0
32970,note_on,30,0,3,,,,,,,,,2,,,48,0
32970,note_on,0,0,3,,,,,,,,,2,,,57,36
33000,note_on,0,0,3,,,,,,,,,2,,,51,36
33000,note_on,120,0,1,,,,,,,,,0,,,78,0
33000,note_on,30,0,3,,,,,,,,,2,,,57,0
33030,note_on,0,0,1,,,,,,,,,0,,,87,49
33030,note_on,30,0,1,,,,,,,,,0,,,90,0
33030,note_on,0,0,3,,,,,,,,,2,,,57,36
33030,note_on,30,0,3,,,,,,,,,2,,,51,0
33060,note_on,30,0,3,,,,,,,,,2,,,57,0
33060,note_on,0,0,1,,,,,,,,,0,,,84,49
33060,note_on,30,0,1,,,,,,,,,0,,,87,0
33060,note_on,0,0,3,,,,,,,,,2,,,54,36
33090,note_on,0,0,3,,,,,,,,,2,,,57,36
33090,note_on,30,0,3,,,,,,,,,2,,,54,0
33090,note_on,0,0,1,,,,,,,,,0,,,81,49
33090,note_on,30,0,1,,,,,,,,,0,,,84,0
33120,note_on,0,0,3,,,,,,,,,2,,,51,36
33120,note_on,30,0,3,,,,,,,,,2,,,57,0
33120,note_on,0,0,1,,,,,,,,,0,,,78,49
33120,note_on,30,0,1,,,,,,,,,0,,,81,0
33150,note_on,30,0,1,,,,,,,,,0,,,78,0
33150,note_on,30,0,3,,,,,,,,,2,,,51,0
33150,note_on,0,0,3,,,,,,,,,2,,,57,36
33150,note_on,0,0,1,,,,,,,,,0,,,75,49
33180,note_on,30,0,1,,,,,,,,,0,,,75,0
33180,note_on,0,0,1,,,,,,,,,0,,,72,49
33180,note_on,30,0,3,,,,,,,,,2,,,57,0
33180,note_on,0,0,3,,,,,,,,,2,,,48,36
33210,note_on,0,0,1,,,,,,,,,0,,,69,49
33210,note_on,30,0,3,,,,,,,,,2,,,48,0
33210,note_on,0,0,3,,,,,,,,,2,,,57,36
33210,note_on,30,0,1,,,,,,,,,0,,,72,0
33240,note_on,360,0,4,,,,,,,,,3,,,46,0
33240,note_on,30,0,3,,,,,,,,,2,,,57,0
33240,note_on,0,0,3,,,,,,,,,2,,,46,36
33240,note_on,0,0,4,,,,,,,,,3,,,46,36
33240,note_on,30,0,1,,,,,,,,,0,,,69,0
33240,control_change,0,0,1,,,,,,,,,0,64,0,,
33240,note_on,0,0,1,,,,,,,,,0,,,70,49
33270,note_on,0,0,3,,,,,,,,,2,,,58,36
33270,note_on,30,0,3,,,,,,,,,2,,,46,0
33300,note_on,60,0,1,,,,,,,,,0,,,70,0
33300,note_on,0,0,3,,,,,,,,,2,,,50,36
33300,note_on,30,0,3,,,,,,,,,2,,,58,0
33330,note_on,30,0,3,,,,,,,,,2,,,50,0
33330,note_on,0,0,3,,,,,,,,,2,,,58,36
33360,note_on,0,0,3,,,,,,,,,2,,,53,36
33360,note_on,30,0,3,,,,,,,,,2,,,58,0
33390,note_on,30,0,3,,,,,,,,,2,,,53,0
33390,note_on,0,0,3,,,,,,,,,2,,,58,36
33420,note_on,30,0,3,,,,,,,,,2,,,58,0
33420,note_on,0,0,3,,,,,,,,,2,,,57,36
33450,note_on,0,0,3,,,,,,,,,2,,,58,36
33450,note_on,30,0,3,,,,,,,,,2,,,57,0
33480,note_on,0,0,3,,,,,,,,,2,,,53,36
33480,note_on,30,0,3,,,,,,,,,2,,,58,0
33510,note_on,0,0,3,,,,,,,,,2,,,58,36
33510,note_on,30,0,3,,,,,,,,,2,,,53,0
33540,note_on,0,0,3,,,,,,,,,2,,,50,36
33540,note_on,30,0,3,,,,,,,,,2,,,58,0
33570,control_change,0,0,3,,,,,,,,,2,64,0,,
33570,note_on,30,0,3,,,,,,,,,2,,,50,0
33570,note_on,0,0,3,,,,,,,,,2,,,58,36
33600,note_on,30,0,3,,,,,,,,,2,,,58,0
33600,control_change,0,0,3,,,,,,,,,2,64,127,,
33600,note_on,0,0,3,,,,,,,,,2,,,34,36
33600,note_on,0,0,3,,,,,,,,,2,,,46,36
33600,note_on,0,0,1,,,,,,,,,0,,,58,36
33600,note_on,360,0,4,,,,,,,,,3,,,46,0
33600,control_change,300,0,1,,,,,,,,,0,64,127,,
33600,note_on,33600,0,2,,,,,,,,,1,,,58,36
33630,note_on,30,0,1,,,,,,,,,0,,,58,0
33630,note_on,0,0,1,,,,,,,,,0,,,70,36
33660,note_on,30,0,1,,,,,,,,,0,,,70,0
33660,note_on,0,0,1,,,,,,,,,0,,,62,36
33690,note_on,30,0,1,,,,,,,,,0,,,62,0
33690,note_on,0,0,1,,,,,,,,,0,,,70,36
33720,note_on,0,0,3,,,,,,,,,2,,,38,36
33720,note_on,30,0,1,,,,,,,,,0,,,70,0
33720,note_on,0,0,1,,,,,,,,,0,,,65,36
33720,note_on,120,0,3,,,,,,,,,2,,,46,0
33720,note_on,0,0,3,,,,,,,,,2,,,34,0
33750,note_on,30,0,1,,,,,,,,,0,,,65,0
33750,note_on,0,0,1,,,,,,,,,0,,,70,36
33780,note_on,30,0,1,,,,,,,,,0,,,70,0
33780,note_on,0,0,1,,,,,,,,,0,,,68,36
33810,note_on,0,0,1,,,,,,,,,0,,,70,36
33810,note_on,30,0,1,,,,,,,,,0,,,68,0
33840,note_on,120,0,3,,,,,,,,,2,,,38,0
33840,note_on,30,0,1,,,,,,,,,0,,,70,0
33840,note_on,0,0,1,,,,,,,,,0,,,65,36
33840,note_on,0,0,3,,,,,,,,,2,,,41,36
33870,note_on,30,0,1,,,,,,,,,0,,,65,0
33870,note_on,0,0,1,,,,,,,,,0,,,70,36
33900,note_on,30,0,1,,,,,,,,,0,,,70,0
33900,note_on,0,0,1,,,,,,,,,0,,,62,36
33930,note_on,30,0,1,,,,,,,,,0,,,62,0
33930,note_on,0,0,1,,,,,,,,,0,,,70,36
33960,note_on,0,0,1,,,,,,,,,0,,,58,36
33960,note_on,30,0,1,,,,,,,,,0,,,70,0
33960,note_on,0,0,3,,,,,,,,,2,,,46,62
33960,note_on,360,0,2,,,,,,,,,1,,,58,0
33960,note_on,0,0,2,,,,,,,,,1,,,58,36
33960,note_on,120,0,3,,,,,,,,,2,,,41,0
33990,note_on,30,0,1,,,,,,,,,0,,,58,0
33990,note_on,0,0,1,,,,,,,,,0,,,70,36
34020,note_on,0,0,1,,,,,,,,,0,,,62,36
34020,note_on,30,0,1,,,,,,,,,0,,,70,0
34050,note_on,0,0,1,,,,,,,,,0,,,70,36
34050,note_on,30,0,1,,,,,,,,,0,,,62,0
34080,note_on,0,0,1,,,,,,,,,0,,,65,36
34080,note_on,30,0,1,,,,,,,,,0,,,70,0
34080,note_on,0,0,3,,,,,,,,,2,,,50,36
34080,control_change,0,0,3,,,,,,,,,2,64,0,,
34080,note_on,120,0,3,,,,,,,,,2,,,46,0
34110,note_on,0,0,1,,,,,,,,,0,,,70,36
34110,note_on,30,0,1,,,,,,,,,0,,,65,0
34140,note_on,0,0,1,,,,,,,,,0,,,68,36
34140,note_on,30,0,1,,,,,,,,,0,,,70,0
34170,note_on,0,0,1,,,,,,,,,0,,,70,36
34170,note_on,30,0,1,,,,,,,,,0,,,68,0
34200,note_on,0,0,1,,,,,,,,,0,,,65,36
34200,note_on,30,0,1,,,,,,,,,0,,,70,0
34200,note_on,120,0,3,,,,,,,,,2,,,50,0
34230,note_on,30,0,1,,,,,,,,,0,,,65,0
34230,note_on,0,0,1,,,,,,,,,0,,,70,36
34260,note_on,30,0,1,,,,,,,,,0,,,70,0
34260,note_on,0,0,1,,,,,,,,,0,,,62,36
34290,control_change,0,0,1,,,,,,,,,0,64,0,,
34290,note_on,30,0,1,,,,,,,,,0,,,62,0
34290,note_on,0,0,1,,,,,,,,,0,,,70,36
34320,control_change,120,0,3,,,,,,,,,2,64,127,,
34320,note_on,0,0,3,,,,,,,,,2,,,34,36
34320,note_on,360,0,2,,,,,,,,,1,,,58,0
34320,note_on,0,0,2,,,,,,,,,1,,,58,36
34320,note_on,0,0,1,,,,,,,,,0,,,58,36
34320,control_change,0,0,1,,,,,,,,,0,64,127,,
34320,note_on,30,0,1,,,,,,,,,0,,,70,0
34350,note_on,30,0,1,,,,,,,,,0,,,58,0
34350,note_on,0,0,1,,,,,,,,,0,,,70,36
34380,note_on,30,0,1,,,,,,,,,0,,,70,0
34380,note_on,0,0,1,,,,,,,,,0,,,63,36
34410,note_on,0,0,1,,,,,,,,,0,,,70,36
34410,note_on,30,0,1,,,,,,,,,0,,,63,0
34440,note_on,0,0,1,,,,,,,,,0,,,67,36
34440,note_on,30,0,1,,,,,,,,,0,,,70,0
34440,note_on,0,0,3,,,,,,,,,2,,,39,36
34440,note_on,120,0,3,,,,,,,,,2,,,34,0
34470,note_on,30,0,1,,,,,,,,,0,,,67,0
34470,note_on,0,0,1,,,,,,,,,0,,,70,36
34500,note_on,0,0,1,,,,,,,,,0,,,69,36
34500,note_on,30,0,1,,,,,,,,,0,,,70,0
34530,note_on,30,0,1,,,,,,,,,0,,,69,0
34530,note_on,0,0,1,,,,,,,,,0,,,70,36
34560,note_on,30,0,1,,,,,,,,,0,,,70,0
34560,note_on,0,0,3,,,,,,,,,2,,,43,36
34560,note_on,120,0,3,,,,,,,,,2,,,39,0
34560,note_on,0,0,1,,,,,,,,,0,,,67,36
34590,note_on,30,0,1,,,,,,,,,0,,,67,0
34590,note_on,0,0,1,,,,,,,,,0,,,70,36
34620,note_on,30,0,1,,,,,,,,,0,,,70,0
34620,note_on,0,0,1,,,,,,,,,0,,,63,36
34650,note_on,30,0,1,,,,,,,,,0,,,63,0
34650,note_on,0,0,1,,,,,,,,,0,,,70,36
34680,note_on,0,0,2,,,,,,,,,1,,,58,36
34680,note_on,360,0,2,,,,,,,,,1,,,58,0
34680,note_on,0,0,3,,,,,,,,,2,,,46,62
34680,note_on,120,0,3,,,,,,,,,2,,,43,0
34680,note_on,30,0,1,,,,,,,,,0,,,70,0
34680,note_on,0,0,1,,,,,,,,,0,,,58,36
34710,note_on,30,0,1,,,,,,,,,0,,,58,0
34710,note_on,0,0,1,,,,,,,,,0,,,70,36
34740,note_on,30,0,1,,,,,,,,,0,,,70,0
34740,note_on,0,0,1,,,,,,,,,0,,,63,36
34770,note_on,30,0,1,,,,,,,,,0,,,63,0
34770,note_on,0,0,1,,,,,,,,,0,,,70,36
34800,control_change,0,0,3,,,,,,,,,2,64,0,,
34800,note_on,0,0,3,,,,,,,,,2,,,51,36
34800,note_on,0,0,1,,,,,,,,,0,,,67,36
34800,note_on,120,0,3,,,,,,,,,2,,,46,0
34800,note_on,30,0,1,,,,,,,,,0,,,70,0
34830,note_on,30,0,1,,,,,,,,,0,,,67,0
34830,note_on,0,0,1,,,,,,,,,0,,,70,36
34860,note_on,30,0,1,,,,,,,,,0,,,70,0
34860,note_on,0,0,1,,,,,,,,,0,,,69,36
34890,note_on,0,0,1,,,,,,,,,0,,,70,36
34890,note_on,30,0,1,,,,,,,,,0,,,69,0
34920,note_on,0,0,1,,,,,,,,,0,,,67,36
34920,note_on,30,0,1,,,,,,,,,0,,,70,0
34920,note_on,120,0,3,,,,,,,,,2,,,51,0
34950,note_on,0,0,1,,,,,,,,,0,,,70,36
34950,note_on,30,0,1,,,,,,,,,0,,,67,0
34980,note_on,30,0,1,,,,,,,,,0,,,70,0
34980,note_on,0,0,1,,,,,,,,,0,,,63,36
35010,note_on,30,0,1,,,,,,,,,0,,,63,0
35010,note_on,0,0,1,,,,,,,,,0,,,70,36
35010,control_change,0,0,1,,,,,,,,,0,64,0,,
35040,control_change,0,0,1,,,,,,,,,0,64,127,,
35040,control_change,120,0,3,,,,,,,,,2,64,127,,
35040,note_on,0,0,3,,,,,,,,,2,,,54,88
35040,note_on,30,0,1,,,,,,,,,0,,,70,0
35040,note_on,360,0,2,,,,,,,,,1,,,58,0
35040,note_on,0,0,2,,,,,,,,,1,,,58,36
35040,note_on,0,0,1,,,,,,,,,0,,,58,36
35070,note_on,30,0,1,,,,,,,,,0,,,58,0
35070,note_on,0,0,1,,,,,,,,,0,,,69,36
35100,note_on,30,0,1,,,,,,,,,0,,,69,0
35100,note_on,0,0,1,,,,,,,,,0,,,60,36
35130,note_on,30,0,1,,,,,,,,,0,,,60,0
35130,note_on,0,0,1,,,,,,,,,0,,,69,36
35160,note_on,0,0,1,,,,,,,,,0,,,63,36
35160,note_on,30,0,1,,,,,,,,,0,,,69,0
35190,note_on,0,0,1,,,,,,,,,0,,,69,36
35190,note_on,30,0,1,,,,,,,,,0,,,63,0
35190,note_on,0,0,3,,,,,,,,,2,,,51,36
35190,note_on,150,0,3,,,,,,,,,2,,,54,0
35220,note_on,30,0,1,,,,,,,,,0,,,69,0
35220,note_on,0,0,3,,,,,,,,,2,,,48,36
35220,note_on,30,0,3,,,,,,,,,2,,,51,0
35220,note_on,0,0,1,,,,,,,,,0,,,66,36
35250,note_on,30,0,1,,,,,,,,,0,,,66,0
35250,note_on,30,0,3,,,,,,,,,2,,,48,0
35250,note_on,0,0,3,,,,,,,,,2,,,45,36
35250,note_on,0,0,1,,,,,,,,,0,,,69,36
35280,note_on,30,0,3,,,,,,,,,2,,,45,0
35280,note_on,0,0,3,,,,,,,,,2,,,42,36
35280,note_on,30,0,1,,,,,,,,,0,,,69,0
35280,note_on,0,0,1,,,,,,,,,0,,,63,36
35310,note_on,0,0,3,,,,,,,,,2,,,39,36
35310,note_on,30,0,3,,,,,,,,,2,,,42,0
35310,note_on,30,0,1,,,,,,,,,0,,,63,0
35310,note_on,0,0,1,,,,,,,,,0,,,69,36
35340,note_on,30,0,3,,,,,,,,,2,,,39,0
35340,note_on,0,0,3,,,,,,,,,2,,,36,36
35340,note_on,0,0,1,,,,,,,,,0,,,60,36
35340,note_on,30,0,1,,,,,,,,,0,,,69,0
35370,control_change,0,0,1,,,,,,,,,0,64,0,,
35370,control_change,0,0,3,,,,,,,,,2,64,0,,
35370,note_on,30,0,3,,,,,,,,,2,,,36,0
35370,note_on,0,0,1,,,,,,,,,0,,,69,36
35370,note_on,30,0,1,,,,,,,,,0,,,60,0
35370,note_on,0,0,3,,,,,,,,,2,,,33,36
35400,note_on,30,0,1,,,,,,,,,0,,,69,0
35400,note_on,0,0,2,,,,,,,,,1,,,58,36
35400,control_change,0,0,1,,,,,,,,,0,64,127,,
35400,note_on,0,0,1,,,,,,,,,0,,,58,36
35400,note_on,360,0,2,,,,,,,,,1,,,58,0
35400,note_on,30,0,3,,,,,,,,,2,,,33,0
35400,control_change,0,0,3,,,,,,,,,2,64,127,,
35400,note_on,0,0,3,,,,,,,,,2,,,34,36
35430,note_on,0,0,1,,,,,,,,,0,,,70,36
35430,note_on,30,0,1,,,,,,,,,0,,,58,0
35460,note_on,30,0,1,,,,,,,,,0,,,70,0
35460,note_on,0,0,1,,,,,,,,,0,,,62,36
35490,note_on,0,0,1,,,,,,,,,0,,,70,36
35490,note_on,30,0,1,,,,,,,,,0,,,62,0
35520,note_on,30,0,1,,,,,,,,,0,,,70,0
35520,note_on,0,0,1,,,,,,,,,0,,,65,36
35520,note_on,120,0,3,,,,,,,,,2,,,34,0
35550,note_on,30,0,1,,,,,,,,,0,,,65,0
35550,note_on,0,0,1,,,,,,,,,0,,,70,36
35580,note_on,60,0,3,,,,,,,,,2,,,34,62
35580,note_on,30,0,1,,,,,,,,,0,,,70,0
35580,note_on,0,0,1,,,,,,,,,0,,,69,36
35586,note_on,6,0,3,,,,,,,,,2,,,34,0
35610,note_on,30,0,1,,,,,,,,,0,,,69,0
35610,note_on,0,0,1,,,,,,,,,0,,,70,36
35640,note_on,30,0,1,,,,,,,,,0,,,70,0
35640,note_on,0,0,1,,,,,,,,,0,,,68,36
35640,note_on,54,0,3,,,,,,,,,2,,,36,36
35646,note_on,6,0,3,,,,,,,,,2,,,36,0
35670,note_on,30,0,1,,,,,,,,,0,,,68,0
35670,note_on,0,0,1,,,,,,,,,0,,,70,36
35700,note_on,30,0,1,,,,,,,,,0,,,70,0
35700,note_on,0,0,3,,,,,,,,,2,,,38,36
35700,control_change,54,0,3,,,,,,,,,2,64,0,,
35700,note_on,0,0,1,,,,,,,,,0,,,65,36
35706,note_on,6,0,3,,,,,,,,,2,,,38,0
35730,note_on,30,0,1,,,,,,,,,0,,,65,0
35730,control_change,0,0,1,,,,,,,,,0,64,0,,
35730,note_on,0,0,1,,,,,,,,,0,,,70,36
35760,note_on,360,0,2,,,,,,,,,1,,,58,0
35760,note_on,0,0,2,,,,,,,,,1,,,58,36
35760,note_on,0,0,3,,,,,,,,,2,,,39,36
35760,note_on,30,0,1,,,,,,,,,0,,,70,0
35760,note_on,0,0,1,,,,,,,,,0,,,58,36
35760,control_change,0,0,1,,,,,,,,,0,64,127,,
35760,control_change,54,0,3,,,,,,,,,2,64,127,,
35790,note_on,0,0,1,,,,,,,,,0,,,70,36
35790,note_on,30,0,1,,,,,,,,,0,,,58,0
35820,note_on,30,0,1,,,,,,,,,0,,,70,0
35820,note_on,0,0,1,,,,,,,,,0,,,63,36
35850,note_on,0,0,1,,,,,,,,,0,,,70,36
35850,note_on,30,0,1,,,,,,,,,0,,,63,0
35880,note_on,0,0,1,,,,,,,,,0,,,65,36
35880,note_on,30,0,1,,,,,,,,,0,,,70,0
35880,note_on,120,0,3,,,,,,,,,2,,,39,0
35910,note_on,30,0,1,,,,,,,,,0,,,65,0
35910,note_on,0,0,1,,,,,,,,,0,,,70,36
35940,note_on,30,0,1,,,,,,,,,0,,,70,0
35940,note_on,60,0,3,,,,,,,,,2,,,39,62
35940,note_on,0,0,1,,,,,,,,,0,,,66,62
35946,note_on,6,0,3,,,,,,,,,2,,,39,0
35970,note_on,30,0,1,,,,,,,,,0,,,66,0
35970,note_on,0,0,1,,,,,,,,,0,,,70,36
36000,note_on,30,0,1,,,,,,,,,0,,,70,0
36000,note_on,54,0,3,,,,,,,,,2,,,41,36
36000,note_on,0,0,1,,,,,,,,,0,,,65,36
36006,note_on,6,0,3,,,,,,,,,2,,,41,0
36030,note_on,0,0,1,,,,,,,,,0,,,70,36
36030,note_on,30,0,1,,,,,,,,,0,,,65,0
36060,note_on,0,0,1,,,,,,,,,0,,,63,36
36060,control_change,54,0,3,,,,,,,,,2,64,0,,
36060,note_on,0,0,3,,,,,,,,,2,,,42,36
36060,note_on,30,0,1,,,,,,,,,0,,,70,0
36066,note_on,6,0,3,,,,,,,,,2,,,42,0
36090,control_change,0,0,1,,,,,,,,,0,64,0,,
36090,note_on,30,0,1,,,,,,,,,0,,,63,0
36090,note_on,0,0,1,,,,,,,,,0,,,70,36
36120,note_on,0,0,3,,,,,,,,,2,,,41,49
36120,control_change,54,0,3,,,,,,,,,2,64,127,,
36120,note_on,0,0,1,,,,,,,,,0,,,69,49
36120,control_change,0,0,1,,,,,,,,,0,64,127,,
36120,note_on,0,0,2,,,,,,,,,1,,,63,36
36120,control_change,0,0,2,,,,,,,,,1,64,127,,
36120,note_on,360,0,2,,,,,,,,,1,,,58,0
36120,note_on,30,0,1,,,,,,,,,0,,,70,0
36150,note_on,0,0,2,,,,,,,,,1,,,60,36
36150,note_on,30,0,2,,,,,,,,,1,,,63,0
36180,note_on,30,0,2,,,,,,,,,1,,,60,0
36180,note_on,0,0,1,,,,,,,,,0,,,70,49
36180,note_on,60,0,1,,,,,,,,,0,,,69,0
36180,note_on,0,0,2,,,,,,,,,1,,,63,36
36210,note_on,30,0,2,,,,,,,,,1,,,63,0
36210,note_on,0,0,2,,,,,,,,,1,,,60,36
36240,note_on,120,0,3,,,,,,,,,2,,,41,0
36240,note_on,30,0,2,,,,,,,,,1,,,60,0
36240,note_on,60,0,1,,,,,,,,,0,,,70,0
36240,note_on,0,0,1,,,,,,,,,0,,,69,49
36240,note_on,0,0,2,,,,,,,,,1,,,63,36
36270,note_on,30,0,2,,,,,,,,,1,,,63,0
36270,note_on,0,0,2,,,,,,,,,1,,,60,36
36300,note_on,60,0,1,,,,,,,,,0,,,69,0
36300,note_on,0,0,1,,,,,,,,,0,,,66,49
36300,note_on,30,0,2,,,,,,,,,1,,,60,0
36300,note_on,60,0,3,,,,,,,,,2,,,51,75
36300,note_on,0,0,2,,,,,,,,,1,,,63,36
36306,note_on,6,0,3,,,,,,,,,2,,,51,0
36330,note_on,30,0,2,,,,,,,,,1,,,63,0
36330,note_on,0,0,2,,,,,,,,,1,,,60,36
36360,note_on,0,0,2,,,,,,,,,1,,,63,36
36360,note_on,0,0,1,,,,,,,,,0,,,65,49
36360,note_on,60,0,1,,,,,,,,,0,,,66,0
36360,note_on,54,0,3,,,,,,,,,2,,,53,49
36360,note_on,30,0,2,,,,,,,,,1,,,60,0
36366,note_on,6,0,3,,,,,,,,,2,,,53,0
36390,note_on,0,0,2,,,,,,,,,1,,,60,36
36390,note_on,30,0,2,,,,,,,,,1,,,63,0
36420,note_on,0,0,1,,,,,,,,,0,,,69,49
36420,control_change,54,0,3,,,,,,,,,2,64,0,,
36420,note_on,0,0,3,,,,,,,,,2,,,41,49
36420,note_on,60,0,1,,,,,,,,,0,,,65,0
36420,control_change,0,0,1,,,,,,,,,0,64,0,,
36420,note_on,30,0,2,,,,,,,,,1,,,60,0
36420,note_on,0,0,2,,,,,,,,,1,,,63,36
36426,note_on,6,0,3,,,,,,,,,2,,,41,0
36450,note_on,0,0,2,,,,,,,,,1,,,60,36
36450,control_change,0,0,2,,,,,,,,,1,64,0,,
36450,note_on,30,0,2,,,,,,,,,1,,,63,0
36480,note_on,30,0,2,,,,,,,,,1,,,60,0
36480,note_on,0,0,2,,,,,,,,,1,,,70,36
36480,note_on,0,0,1,,,,,,,,,0,,,70,36
36480,note_on,0,0,3,,,,,,,,,2,,,46,62
36480,control_change,54,0,3,,,,,,,,,2,64,127,,
36480,control_change,0,0,1,,,,,,,,,0,64,127,,
36480,note_on,60,0,1,,,,,,,,,0,,,69,0
36510,note_on,30,0,1,,,,,,,,,0,,,70,0
36510,note_on,0,0,1,,,,,,,,,0,,,82,36
36540,note_on,30,0,1,,,,,,,,,0,,,82,0
36540,note_on,0,0,1,,,,,,,,,0,,,74,36
36570,note_on,30,0,1,,,,,,,,,0,,,74,0
36570,note_on,0,0,1,,,,,,,,,0,,,82,36
36600,note_on,30,0,1,,,,,,,,,0,,,82,0
36600,note_on,120,0,3,,,,,,,,,2,,,46,0
36600,note_on,0,0,1,,,,,,,,,0,,,77,36
36630,note_on,30,0,1,,,,,,,,,0,,,77,0
36630,note_on,0,0,1,,,,,,,,,0,,,82,36
36660,note_on,60,0,3,,,,,,,,,2,,,46,101
36660,note_on,30,0,1,,,,,,,,,0,,,82,0
36660,note_on,0,0,1,,,,,,,,,0,,,80,36
36666,note_on,6,0,3,,,,,,,,,2,,,46,0
36690,note_on,0,0,1,,,,,,,,,0,,,82,36
36690,note_on,30,0,1,,,,,,,,,0,,,80,0
36720,note_on,54,0,3,,,,,,,,,2,,,48,75
36720,note_on,30,0,1,,,,,,,,,0,,,82,0
36720,note_on,0,0,1,,,,,,,,,0,,,77,36
36726,note_on,6,0,3,,,,,,,,,2,,,48,0
36750,note_on,30,0,1,,,,,,,,,0,,,77,0
36750,note_on,0,0,1,,,,,,,,,0,,,82,36
36780,note_on,0,0,1,,,,,,,,,0,,,74,36
36780,note_on,0,0,3,,,,,,,,,2,,,50,75
36780,note_on,30,0,1,,,,,,,,,0,,,82,0
36780,control_change,54,0,3,,,,,,,,,2,64,0,,
36786,note_on,6,0,3,,,,,,,,,2,,,50,0
36810,note_on,30,0,1,,,,,,,,,0,,,74,0
36810,control_change,0,0,1,,,,,,,,,0,64,0,,
36810,note_on,0,0,1,,,,,,,,,0,,,82,36
36840,note_on,0,0,3,,,,,,,,,2,,,51,75
36840,note_on,360,0,2,,,,,,,,,1,,,70,0
36840,note_on,0,0,2,,,,,,,,,1,,,70,36
36840,control_change,54,0,3,,,,,,,,,2,64,127,,
36840,note_on,0,0,1,,,,,,,,,0,,,70,36
36840,control_change,0,0,1,,,,,,,,,0,64,127,,
36840,note_on,30,0,1,,,,,,,,,0,,,82,0
36870,note_on,0,0,1,,,,,,,,,0,,,82,36
36870,note_on,30,0,1,,,,,,,,,0,,,70,0
36900,note_on,30,0,1,,,,,,,,,0,,,82,0
36900,note_on,0,0,1,,,,,,,,,0,,,75,36
36930,note_on,0,0,1,,,,,,,,,0,,,82,36
36930,note_on,30,0,1,,,,,,,,,0,,,75,0
36960,note_on,120,0,3,,,,,,,,,2,,,51,0
36960,note_on,30,0,1,,,,,,,,,0,,,82,0
36960,note_on,0,0,1,,,,,,,,,0,,,77,75
36990,note_on,30,0,1,,,,,,,,,0,,,77,0
36990,note_on,0,0,1,,,,,,,,,0,,,82,75
37020,note_on,60,0,3,,,,,,,,,2,,,51,101
37020,note_on,0,0,1,,,,,,,,,0,,,78,101
37020,note_on,30,0,1,,,,,,,,,0,,,82,0
37026,note_on,6,0,3,,,,,,,,,2,,,51,0
37050,note_on,0,0,1,,,,,,,,,0,,,82,75
37050,note_on,30,0,1,,,,,,,,,0,,,78,0
37080,note_on,54,0,3,,,,,,,,,2,,,53,75
37080,note_on,0,0,1,,,,,,,,,0,,,77,75
37080,note_on,30,0,1,,,,,,,,,0,,,82,0
37086,note_on,6,0,3,,,,,,,,,2,,,53,0
37110,note_on,0,0,1,,,,,,,,,0,,,82,75
37110,note_on,30,0,1,,,,,,,,,0,,,77,0
37140,control_change,54,0,3,,,,,,,,,2,64,0,,
37140,note_on,30,0,1,,,,,,,,,0,,,82,0
37140,note_on,0,0,3,,,,,,,,,2,,,54,75
37140,note_on,0,0,1,,,,,,,,,0,,,75,75
37146,note_on,6,0,3,,,,,,,,,2,,,54,0
37170,control_change,0,0,1,,,,,,,,,0,64,0,,
37170,note_on,30,0,1,,,,,,,,,0,,,75,0
37170,note_on,0,0,1,,,,,,,,,0,,,82,75
37200,note_on,30,0,1,,,,,,,,,0,,,82,0
37200,control_change,0,0,2,,,,,,,,,1,64,127,,
37200,note_on,360,0,2,,,,,,,,,1,,,70,0
37200,control_change,0,0,1,,,,,,,,,0,64,127,,
37200,note_on,0,0,1,,,,,,,,,0,,,81,75
37200,control_change,54,0,3,,,,,,,,,2,64,127,,
37200,note_on,0,0,3,,,,,,,,,2,,,53,75
37200,note_on,0,0,2,,,,,,,,,1,,,75,36
37230,note_on,0,0,2,,,,,,,,,1,,,72,36
37230,note_on,30,0,2,,,,,,,,,1,,,75,0
37260,set_tempo,19860,1,0,,,,,,425532,,,,,,,
37260,note_on,30,0,2,,,,,,,,,1,,,72,0
37260,note_on,0,0,2,,,,,,,,,1,,,75,36
37260,note_on,0,0,1,,,,,,,,,0,,,82,75
37260,note_on,60,0,1,,,,,,,,,0,,,81,0
37290,note_on,30,0,2,,,,,,,,,1,,,75,0
37290,note_on,0,0,2,,,,,,,,,1,,,72,36
37320,note_on,60,0,1,,,,,,,,,0,,,82,0
37320,note_on,0,0,1,,,,,,,,,0,,,81,75
37320,note_on,0,0,2,,,,,,,,,1,,,75,36
37320,note_on,30,0,2,,,,,,,,,1,,,72,0
37320,set_tempo,60,1,0,,,,,,434783,,,,,,,
37320,note_on,120,0,3,,,,,,,,,2,,,53,0
37350,note_on,30,0,2,,,,,,,,,1,,,75,0
37350,note_on,0,0,2,,,,,,,,,1,,,72,36
37380,note_on,60,0,1,,,,,,,,,0,,,81,0
37380,note_on,0,0,2,,,,,,,,,1,,,75,36
37380,note_on,30,0,2,,,,,,,,,1,,,72,0
37380,note_on,60,0,3,,,,,,,,,2,,,63,101
37380,note_on,0,0,1,,,,,,,,,0,,,78,75
37380,set_tempo,60,1,0,,,,,,444444,,,,,,,
37386,note_on,6,0,3,,,,,,,,,2,,,63,0
37410,note_on,30,0,2,,,,,,,,,1,,,75,0
37410,note_on,0,0,2,,,,,,,,,1,,,72,36
37440,note_on,0,0,2,,,,,,,,,1,,,75,36
37440,note_on,30,0,2,,,,,,,,,1,,,72,0
37440,note_on,54,0,3,,,,,,,,,2,,,65,75
37440,note_on,60,0,1,,,,,,,,,0,,,78,0
37440,note_on,0,0,1,,,,,,,,,0,,,77,75
37440,set_tempo,60,1,0,,,,,,458015,,,,,,,
37446,note_on,6,0,3,,,,,,,,,2,,,65,0
37470,note_on,0,0,2,,,,,,,,,1,,,72,36
37470,note_on,30,0,2,,,,,,,,,1,,,75,0
37500,note_on,30,0,2,,,,,,,,,1,,,72,0
37500,note_on,0,0,2,,,,,,,,,1,,,75,36
37500,set_tempo,60,1,0,,,,,,468750,,,,,,,
37500,note_on,0,0,3,,,,,,,,,2,,,53,75
37500,control_change,54,0,3,,,,,,,,,2,64,0,,
37500,note_on,0,0,1,,,,,,,,,0,,,81,75
37500,control_change,0,0,1,,,,,,,,,0,64,0,,
37500,note_on,60,0,1,,,,,,,,,0,,,77,0
37506,note_on,6,0,3,,,,,,,,,2,,,53,0
37530,note_on,30,0,2,,,,,,,,,1,,,75,0
37530,control_change,0,0,2,,,,,,,,,1,64,0,,
37530,note_on,0,0,2,,,,,,,,,1,,,72,36
37560,note_on,54,0,3,,,,,,,,,2,,,58,75
37560,note_on,60,0,1,,,,,,,,,0,,,81,0
37560,set_tempo,60,1,0,,,,,,480000,,,,,,,
37560,control_change,0,0,1,,,,,,,,,0,64,127,,
37560,note_on,0,0,1,,,,,,,,,0,,,82,75
37560,control_change,0,0,2,,,,,,,,,1,64,127,,
37560,note_on,0,0,2,,,,,,,,,1,,,74,36
37560,note_on,30,0,2,,,,,,,,,1,,,72,0
37590,note_on,30,0,2,,,,,,,,,1,,,74,0
37590,note_on,0,0,2,,,,,,,,,1,,,77,36
37620,note_on,0,0,2,,,,,,,,,1,,,81,36
37620,note_on,0,0,1,,,,,,,,,0,,,85,75
37620,note_on,30,0,2,,,,,,,,,1,,,77,0
37620,note_on,60,0,1,,,,,,,,,0,,,82,0
37620,set_tempo,60,1,0,,,,,,491803,,,,,,,
37650,note_on,0,0,2,,,,,,,,,1,,,77,36
37650,note_on,30,0,2,,,,,,,,,1,,,81,0
37680,note_on,0,0,2,,,,,,,,,1,,,82,36
37680,note_on,30,0,2,,,,,,,,,1,,,77,0
37680,note_on,60,0,1,,,,,,,,,0,,,85,0
37680,note_on,0,0,1,,,,,,,,,0,,,86,75
37680,set_tempo,60,1,0,,,,,,508475,,,,,,,
37680,note_on,120,0,3,,,,,,,,,2,,,58,0
37680,note_on,0,0,3,,,,,,,,,2,,,89,101
37710,note_on,30,0,2,,,,,,,,,1,,,82,0
37710,note_on,0,0,2,,,,,,,,,1,,,77,36
37740,note_on,0,0,1,,,,,,,,,0,,,85,75
37740,note_on,30,0,2,,,,,,,,,1,,,77,0
37740,note_on,60,0,1,,,,,,,,,0,,,86,0
37740,note_on,0,0,2,,,,,,,,,1,,,81,36
37770,note_on,0,0,2,,,,,,,,,1,,,77,36
37770,note_on,30,0,2,,,,,,,,,1,,,81,0
37800,note_on,30,0,2,,,,,,,,,1,,,77,0
37800,note_on,0,0,2,,,,,,,,,1,,,82,36
37800,note_on,0,0,1,,,,,,,,,0,,,86,75
37800,note_on,60,0,1,,,,,,,,,0,,,85,0
37830,note_on,30,0,2,,,,,,,,,1,,,82,0
37830,note_on,0,0,2,,,,,,,,,1,,,77,36
37860,note_on,30,0,2,,,,,,,,,1,,,77,0
37860,note_on,0,0,1,,,,,,,,,0,,,82,75
37860,note_on,60,0,1,,,,,,,,,0,,,86,0
37860,control_change,0,0,1,,,,,,,,,0,64,0,,
37860,note_on,0,0,2,,,,,,,,,1,,,74,36
37890,control_change,0,0,2,,,,,,,,,1,64,0,,
37890,note_on,30,0,2,,,,,,,,,1,,,74,0
37890,note_on,0,0,2,,,,,,,,,1,,,77,36
37920,note_on,0,0,1,,,,,,,,,0,,,81,49
37920,note_on,240,0,3,,,,,,,,,2,,,89,0
37920,control_change,0,0,3,,,,,,,,,2,64,127,,
37920,note_on,0,0,3,,,,,,,,,2,,,53,36
37920,control_change,0,0,1,,,,,,,,,0,64,127,,
37920,note_on,60,0,1,,,,,,,,,0,,,82,0
37920,control_change,0,0,2,,,,,,,,,1,64,127,,
37920,note_on,0,0,2,,,,,,,,,1,,,75,36
37920,note_on,30,0,2,,,,,,,,,1,,,77,0
37950,note_on,30,0,2,,,,,,,,,1,,,75,0
37950,note_on,0,0,2,,,,,,,,,1,,,72,36
37980,note_on,30,0,2,,,,,,,,,1,,,72,0
37980,note_on,0,0,2,,,,,,,,,1,,,75,36
37980,note_on,0,0,1,,,,,,,,,0,,,82,49
37980,note_on,60,0,1,,,,,,,,,0,,,81,0
38010,note_on,30,0,2,,,,,,,,,1,,,75,0
38010,note_on,0,0,2,,,,,,,,,1,,,72,36
38040,note_on,30,0,2,,,,,,,,,1,,,72,0
38040,note_on,0,0,2,,,,,,,,,1,,,75,36
38040,note_on,120,0,3,,,,,,,,,2,,,53,0
38040,note_on,60,0,1,,,,,,,,,0,,,82,0
38040,note_on,0,0,1,,,,,,,,,0,,,81,49
38070,note_on,30,0,2,,,,,,,,,1,,,75,0
38070,note_on,0,0,2,,,,,,,,,1,,,72,36
38100,note_on,60,0,1,,,,,,,,,0,,,81,0
38100,note_on,60,0,3,,,,,,,,,2,,,63,62
38100,note_on,0,0,1,,,,,,,,,0,,,78,49
38100,note_on,0,0,2,,,,,,,,,1,,,75,36
38100,note_on,30,0,2,,,,,,,,,1,,,72,0
38106,note_on,6,0,3,,,,,,,,,2,,,63,0
38130,note_on,0,0,2,,,,,,,,,1,,,72,36
38130,note_on,30,0,2,,,,,,,,,1,,,75,0
38160,note_on,54,0,3,,,,,,,,,2,,,65,36
38160,note_on,60,0,1,,,,,,,,,0,,,78,0
38160,note_on,0,0,2,,,,,,,,,1,,,75,36
38160,note_on,0,0,1,,,,,,,,,0,,,77,49
38160,note_on,30,0,2,,,,,,,,,1,,,72,0
38166,note_on,6,0,3,,,,,,,,,2,,,65,0
38190,note_on,0,0,2,,,,,,,,,1,,,72,36
38190,note_on,30,0,2,,,,,,,,,1,,,75,0
38220,note_on,0,0,3,,,,,,,,,2,,,53,36
38220,note_on,60,0,1,,,,,,,,,0,,,77,0
38220,control_change,0,0,1,,,,,,,,,0,64,0,,
38220,note_on,0,0,2,,,,,,,,,1,,,75,36
38220,note_on,30,0,2,,,,,,,,,1,,,72,0
38220,control_change,54,0,3,,,,,,,,,2,64,0,,
38220,note_on,0,0,1,,,,,,,,,0,,,81,49
38226,note_on,6,0,3,,,,,,,,,2,,,53,0
38250,note_on,30,0,2,,,,,,,,,1,,,75,0
38250,note_on,0,0,2,,,,,,,,,1,,,72,36
38250,control_change,0,0,2,,,,,,,,,1,64,0,,
38280,note_on,0,0,2,,,,,,,,,1,,,74,36
38280,note_on,30,0,2,,,,,,,,,1,,,72,0
38280,control_change,0,0,2,,,,,,,,,1,64,127,,
38280,note_on,54,0,3,,,,,,,,,2,,,58,36
38280,note_on,60,0,1,,,,,,,,,0,,,81,0
38280,control_change,0,0,1,,,,,,,,,0,64,127,,
38280,note_on,0,0,1,,,,,,,,,0,,,82,49
38310,note_on,0,0,2,,,,,,,,,1,,,77,36
38310,note_on,30,0,2,,,,,,,,,1,,,74,0
38340,note_on,0,0,1,,,,,,,,,0,,,73,49
38340,note_on,30,0,2,,,,,,,,,1,,,77,0
38340,note_on,60,0,1,,,,,,,,,0,,,82,0
38340,note_on,0,0,2,,,,,,,,,1,,,69,36
38370,note_on,0,0,2,,,,,,,,,1,,,65,36
38370,note_on,30,0,2,,,,,,,,,1,,,69,0
38400,note_on,120,0,3,,,,,,,,,2,,,58,0
38400,note_on,0,0,3,,,,,,,,,2,,,77,62
38400,note_on,0,0,2,,,,,,,,,1,,,70,36
38400,note_on,0,0,1,,,,,,,,,0,,,74,49
38400,note_on,30,0,2,,,,,,,,,1,,,65,0
38400,note_on,60,0,1,,,,,,,,,0,,,73,0
38430,note_on,0,0,2,,,,,,,,,1,,,65,36
38430,note_on,30,0,2,,,,,,,,,1,,,70,0
38460,note_on,0,0,2,,,,,,,,,1,,,69,36
38460,note_on,30,0,2,,,,,,,,,1,,,65,0
38460,note_on,60,0,1,,,,,,,,,0,,,74,0
38460,note_on,0,0,1,,,,,,,,,0,,,73,49
38490,note_on,30,0,2,,,,,,,,,1,,,69,0
38490,note_on,0,0,2,,,,,,,,,1,,,65,36
38520,note_on,30,0,2,,,,,,,,,1,,,65,0
38520,note_on,0,0,1,,,,,,,,,0,,,74,49
38520,note_on,60,0,1,,,,,,,,,0,,,73,0
38520,note_on,0,0,2,,,,,,,,,1,,,70,36
38550,note_on,0,0,2,,,,,,,,,1,,,65,36
38550,note_on,30,0,2,,,,,,,,,1,,,70,0
38580,control_change,0,0,1,,,,,,,,,0,64,0,,
38580,note_on,60,0,1,,,,,,,,,0,,,74,0
38580,note_on,0,0,2,,,,,,,,,1,,,62,36
38580,note_on,30,0,2,,,,,,,,,1,,,65,0
38580,note_on,0,0,1,,,,,,,,,0,,,70,49
38610,control_change,0,0,2,,,,,,,,,1,64,0,,
38610,note_on,0,0,2,,,,,,,,,1,,,65,36
38610,note_on,30,0,2,,,,,,,,,1,,,62,0
38640,note_on,0,0,1,,,,,,,,,0,,,69,49
38640,note_on,0,0,2,,,,,,,,,1,,,63,36
38640,control_change,0,0,2,,,,,,,,,1,64,127,,
38640,note_on,30,0,2,,,,,,,,,1,,,65,0
38640,control_change,0,0,1,,,,,,,,,0,64,127,,
38640,note_on,60,0,1,,,,,,,,,0,,,70,0
38640,note_on,0,0,3,,,,,,,,,2,,,53,36
38640,control_change,0,0,3,,,,,,,,,2,64,127,,
38640,note_on,240,0,3,,,,,,,,,2,,,77,0
38670,note_on,30,0,2,,,,,,,,,1,,,63,0
38670,note_on,0,0,2,,,,,,,,,1,,,60,36
38700,note_on,0,0,2,,,,,,,,,1,,,63,36
38700,note_on,30,0,2,,,,,,,,,1,,,60,0
38700,note_on,60,0,1,,,,,,,,,0,,,69,0
38700,note_on,0,0,1,,,,,,,,,0,,,70,49
38730,note_on,0,0,2,,,,,,,,,1,,,60,36
38730,note_on,30,0,2,,,,,,,,,1,,,63,0
38760,note_on,30,0,2,,,,,,,,,1,,,60,0
38760,note_on,0,0,2,,,,,,,,,1,,,63,36
38760,note_on,0,0,1,,,,,,,,,0,,,69,49
38760,note_on,60,0,1,,,,,,,,,0,,,70,0
38760,note_on,120,0,3,,,,,,,,,2,,,53,0
38790,note_on,30,0,2,,,,,,,,,1,,,63,0
38790,note_on,0,0,2,,,,,,,,,1,,,60,36
38820,note_on,30,0,2,,,,,,,,,1,,,60,0
38820,note_on,60,0,1,,,,,,,,,0,,,69,0
38820,note_on,0,0,2,,,,,,,,,1,,,63,36
38820,note_on,60,0,3,,,,,,,,,2,,,51,62
38820,note_on,0,0,1,,,,,,,,,0,,,66,49
38826,note_on,6,0,3,,,,,,,,,2,,,51,0
38850,note_on,0,0,2,,,,,,,,,1,,,60,36
38850,note_on,30,0,2,,,,,,,,,1,,,63,0
38880,note_on,60,0,1,,,,,,,,,0,,,66,0
38880,note_on,0,0,2,,,,,,,,,1,,,63,36
38880,note_on,54,0,3,,,,,,,,,2,,,53,36
38880,note_on,0,0,1,,,,,,,,,0,,,65,49
38880,note_on,30,0,2,,,,,,,,,1,,,60,0
38886,note_on,6,0,3,,,,,,,,,2,,,53,0
38910,note_on,0,0,2,,,,,,,,,1,,,60,36
38910,note_on,30,0,2,,,,,,,,,1,,,63,0
38940,note_on,30,0,2,,,,,,,,,1,,,60,0
38940,note_on,0,0,2,,,,,,,,,1,,,63,36
38940,control_change,0,0,1,,,,,,,,,0,64,0,,
38940,control_change,54,0,3,,,,,,,,,2,64,0,,
38940,note_on,0,0,1,,,,,,,,,0,,,69,49
38940,note_on,60,0,1,,,,,,,,,0,,,65,0
38940,note_on,0,0,3,,,,,,,,,2,,,41,36
38946,note_on,6,0,3,,,,,,,,,2,,,41,0
38970,note_on,0,0,2,,,,,,,,,1,,,60,36
38970,control_change,0,0,2,,,,,,,,,1,64,0,,
38970,note_on,30,0,2,,,,,,,,,1,,,63,0
39000,note_on,30,0,2,,,,,,,,,1,,,60,0
39000,note_on,0,0,3,,,,,,,,,2,,,46,36
39000,control_change,54,0,3,,,,,,,,,2,64,127,,
39000,note_on,60,0,1,,,,,,,,,0,,,69,0
39000,control_change,0,0,1,,,,,,,,,0,64,127,,
39000,note_on,0,0,1,,,,,,,,,0,,,62,36
39000,note_on,0,0,1,,,,,,,,,0,,,70,36
39030,note_on,30,0,1,,,,,,,,,0,,,70,0
39030,note_on,0,0,1,,,,,,,,,0,,,58,36
39030,note_on,0,0,1,,,,,,,,,0,,,62,0
39060,note_on,0,0,1,,,,,,,,,0,,,62,36
39060,note_on,0,0,1,,,,,,,,,0,,,65,36
39060,note_on,0,0,1,,,,,,,,,0,,,70,36
39060,note_on,60,0,3,,,,,,,,,2,,,46,0
39060,note_on,30,0,1,,,,,,,,,0,,,58,0
39090,note_on,30,0,1,,,,,,,,,0,,,70,0
39090,note_on,0,0,1,,,,,,,,,0,,,65,0
39090,note_on,0,0,1,,,,,,,,,0,,,62,0
39090,note_on,0,0,1,,,,,,,,,0,,,58,36
39120,note_on,0,0,1,,,,,,,,,0,,,70,36
39120,note_on,60,0,3,,,,,,,,,2,,,53,36
39120,note_on,30,0,1,,,,,,,,,0,,,58,0
39120,note_on,0,0,1,,,,,,,,,0,,,62,36
39120,note_on,0,0,1,,,,,,,,,0,,,65,36
39150,note_on,30,0,1,,,,,,,,,0,,,70,0
39150,note_on,0,0,1,,,,,,,,,0,,,62,0
39150,note_on,0,0,1,,,,,,,,,0,,,58,36
39150,note_on,0,0,1,,,,,,,,,0,,,65,0
39180,note_on,60,0,3,,,,,,,,,2,,,53,0
39180,note_on,30,0,1,,,,,,,,,0,,,58,0
39180,note_on,0,0,1,,,,,,,,,0,,,62,36
39180,note_on,0,0,1,,,,,,,,,0,,,65,36
39180,note_on,0,0,1,,,,,,,,,0,,,70,36
39210,note_on,30,0,1,,,,,,,,,0,,,70,0
39210,note_on,0,0,1,,,,,,,,,0,,,65,0
39210,note_on,0,0,1,,,,,,,,,0,,,58,36
39210,note_on,0,0,1,,,,,,,,,0,,,62,0
39240,note_on,0,0,1,,,,,,,,,0,,,70,36
39240,note_on,30,0,1,,,,,,,,,0,,,58,0
39240,note_on,60,0,3,,,,,,,,,2,,,50,36
39240,note_on,0,0,1,,,,,,,,,0,,,65,36
39240,note_on,0,0,1,,,,,,,,,0,,,62,36
39270,note_on,30,0,1,,,,,,,,,0,,,70,0
39270,note_on,0,0,1,,,,,,,,,0,,,65,0
39270,note_on,0,0,1,,,,,,,,,0,,,62,0
39270,note_on,0,0,1,,,,,,,,,0,,,58,36
39300,note_on,30,0,1,,,,,,,,,0,,,58,0
39300,note_on,0,0,1,,,,,,,,,0,,,62,36
39300,note_on,0,0,1,,,,,,,,,0,,,65,36
39300,note_on,0,0,1,,,,,,,,,0,,,70,36
39300,note_on,60,0,3,,,,,,,,,2,,,50,0
39330,note_on,0,0,1,,,,,,,,,0,,,58,36
39330,note_on,30,0,1,,,,,,,,,0,,,70,0
39330,note_on,0,0,1,,,,,,,,,0,,,62,0
39330,note_on,0,0,1,,,,,,,,,0,,,65,0
39360,note_on,60,0,3,,,,,,,,,2,,,46,36
39360,note_on,30,0,1,,,,,,,,,0,,,58,0
39360,note_on,0,0,1,,,,,,,,,0,,,62,36
39360,note_on,0,0,1,,,,,,,,,0,,,65,36
39360,note_on,0,0,1,,,,,,,,,0,,,70,36
39390,note_on,30,0,1,,,,,,,,,0,,,70,0
39390,note_on,0,0,1,,,,,,,,,0,,,65,0
39390,note_on,0,0,1,,,,,,,,,0,,,62,0
39390,note_on,0,0,1,,,,,,,,,0,,,58,36
39420,note_on,30,0,1,,,,,,,,,0,,,58,0
39420,note_on,0,0,1,,,,,,,,,0,,,62,36
39420,note_on,0,0,1,,,,,,,,,0,,,65,36
39420,note_on,0,0,1,,,,,,,,,0,,,70,36
39420,note_on,60,0,3,,,,,,,,,2,,,46,0
39450,note_on,0,0,1,,,,,,,,,0,,,62,0
39450,note_on,30,0,1,,,,,,,,,0,,,70,0
39450,note_on,0,0,1,,,,,,,,,0,,,58,36
39450,note_on,0,0,1,,,,,,,,,0,,,65,0
39480,note_on,60,0,3,,,,,,,,,2,,,41,36
39480,note_on,0,0,1,,,,,,,,,0,,,62,36
39480,note_on,0,0,1,,,,,,,,,0,,,65,36
39480,note_on,0,0,1,,,,,,,,,0,,,70,36
39480,note_on,30,0,1,,,,,,,,,0,,,58,0
39510,note_on,30,0,1,,,,,,,,,0,,,70,0
39510,note_on,0,0,1,,,,,,,,,0,,,65,0
39510,note_on,0,0,1,,,,,,,,,0,,,62,0
39510,note_on,0,0,1,,,,,,,,,0,,,58,36
39540,note_on,30,0,1,,,,,,,,,0,,,58,0
39540,note_on,0,0,1,,,,,,,,,0,,,62,36
39540,note_on,0,0,1,,,,,,,,,0,,,65,36
39540,note_on,0,0,1,,,,,,,,,0,,,70,36
39540,note_on,60,0,3,,,,,,,,,2,,,41,0
39570,note_on,0,0,1,,,,,,,,,0,,,65,0
39570,note_on,30,0,1,,,,,,,,,0,,,70,0
39570,note_on,0,0,1,,,,,,,,,0,,,58,36
39570,note_on,0,0,1,,,,,,,,,0,,,62,0
39600,note_on,0,0,1,,,,,,,,,0,,,70,36
39600,note_on,0,0,1,,,,,,,,,0,,,65,36
39600,note_on,0,0,1,,,,,,,,,0,,,62,36
39600,note_on,30,0,1,,,,,,,,,0,,,58,0
39600,control_change,60,0,3,,,,,,,,,2,64,0,,
39600,note_on,0,0,3,,,,,,,,,2,,,38,36
39630,note_on,0,0,1,,,,,,,,,0,,,58,36
39630,note_on,0,0,1,,,,,,,,,0,,,62,0
39630,note_on,0,0,1,,,,,,,,,0,,,65,0
39630,note_on,30,0,1,,,,,,,,,0,,,70,0
39660,note_on,60,0,3,,,,,,,,,2,,,38,0
39660,note_on,0,0,1,,,,,,,,,0,,,70,36
39660,note_on,0,0,1,,,,,,,,,0,,,65,36
39660,note_on,0,0,1,,,,,,,,,0,,,62,36
39660,note_on,30,0,1,,,,,,,,,0,,,58,0
39690,note_on,0,0,1,,,,,,,,,0,,,58,36
39690,note_on,0,0,1,,,,,,,,,0,,,65,0
39690,note_on,30,0,1,,,,,,,,,0,,,70,0
39690,note_on,0,0,1,,,,,,,,,0,,,62,0
39690,control_change,0,0,1,,,,,,,,,0,64,0,,
39720,note_on,60,0,3,,,,,,,,,2,,,34,36
39720,note_on,0,0,1,,,,,,,,,0,,,70,36
39720,note_on,0,0,1,,,,,,,,,0,,,68,36
39720,note_on,0,0,1,,,,,,,,,0,,,65,36
39720,note_on,0,0,1,,,,,,,,,0,,,62,36
39720,control_change,0,0,1,,,,,,,,,0,64,127,,
39720,note_on,30,0,1,,,,,,,,,0,,,58,0
39750,note_on,30,0,1,,,,,,,,,0,,,70,0
39750,note_on,0,0,1,,,,,,,,,0,,,62,0
39750,note_on,0,0,1,,,,,,,,,0,,,65,0
39750,note_on,0,0,1,,,,,,,,,0,,,68,0
39750,note_on,0,0,1,,,,,,,,,0,,,58,36
39780,note_on,0,0,1,,,,,,,,,0,,,65,36
39780,note_on,0,0,1,,,,,,,,,0,,,68,36
39780,note_on,0,0,1,,,,,,,,,0,,,70,36
39780,note_on,0,0,1,,,,,,,,,0,,,62,36
39780,note_on,30,0,1,,,,,,,,,0,,,58,0
39810,note_on,0,0,1,,,,,,,,,0,,,58,36
39810,note_on,0,0,1,,,,,,,,,0,,,68,0
39810,note_on,0,0,1,,,,,,,,,0,,,65,0
39810,note_on,0,0,1,,,,,,,,,0,,,62,0
39810,note_on,30,0,1,,,,,,,,,0,,,70,0
39840,note_on,0,0,1,,,,,,,,,0,,,70,36
39840,note_on,0,0,1,,,,,,,,,0,,,68,36
39840,note_on,0,0,1,,,,,,,,,0,,,65,36
39840,note_on,0,0,1,,,,,,,,,0,,,62,36
39840,note_on,30,0,1,,,,,,,,,0,,,58,0
39870,note_on,30,0,1,,,,,,,,,0,,,70,0
39870,note_on,0,0,1,,,,,,,,,0,,,62,0
39870,note_on,0,0,1,,,,,,,,,0,,,65,0
39870,note_on,0,0,1,,,,,,,,,0,,,68,0
39870,note_on,0,0,1,,,,,,,,,0,,,58,36
39900,note_on,0,0,1,,,,,,,,,0,,,68,36
39900,note_on,0,0,1,,,,,,,,,0,,,70,36
39900,note_on,0,0,1,,,,,,,,,0,,,65,36
39900,note_on,30,0,1,,,,,,,,,0,,,58,0
39900,note_on,0,0,1,,,,,,,,,0,,,62,36
39930,note_on,30,0,1,,,,,,,,,0,,,70,0
39930,note_on,0,0,1,,,,,,,,,0,,,65,0
39930,note_on,0,0,1,,,,,,,,,0,,,68,0
39930,note_on,0,0,1,,,,,,,,,0,,,58,36
39930,note_on,0,0,1,,,,,,,,,0,,,62,0
39960,note_on,0,0,1,,,,,,,,,0,,,65,36
39960,note_on,30,0,1,,,,,,,,,0,,,58,0
39960,note_on,0,0,1,,,,,,,,,0,,,62,36
39960,note_on,0,0,1,,,,,,,,,0,,,68,36
39960,note_on,0,0,1,,,,,,,,,0,,,70,36
39990,note_on,30,0,1,,,,,,,,,0,,,70,0
39990,note_on,0,0,1,,,,,,,,,0,,,62,0
39990,note_on,0,0,1,,,,,,,,,0,,,68,0
39990,note_on,0,0,1,,,,,,,,,0,,,58,36
39990,note_on,0,0,1,,,,,,,,,0,,,65,0
40020,note_on,30,0,1,,,,,,,,,0,,,58,0
40020,note_on,0,0,1,,,,,,,,,0,,,62,36
40020,note_on,0,0,1,,,,,,,,,0,,,65,36
40020,note_on,0,0,1,,,,,,,,,0,,,68,36
40020,note_on,0,0,1,,,,,,,,,0,,,70,36
40050,note_on,0,0,1,,,,,,,,,0,,,65,0
40050,note_on,30,0,1,,,,,,,,,0,,,70,0
40050,note_on,0,0,1,,,,,,,,,0,,,62,0
40050,note_on,0,0,1,,,,,,,,,0,,,68,0
40050,note_on,0,0,1,,,,,,,,,0,,,58,36
40080,note_on,30,0,1,,,,,,,,,0,,,58,0
40080,note_on,0,0,1,,,,,,,,,0,,,62,36
40080,note_on,0,0,1,,,,,,,,,0,,,68,36
40080,note_on,0,0,1,,,,,,,,,0,,,65,36
40080,note_on,0,0,1,,,,,,,,,0,,,70,36
40200,note_on,0,0,1,,,,,,,,,0,,,68,0
40200,control_change,0,0,1,,,,,,,,,0,64,0,,
40200,note_on,0,0,1,,,,,,,,,0,,,65,0
40200,note_on,0,0,1,,,,,,,,,0,,,62,0
40200,note_on,120,0,1,,,,,,,,,0,,,70,0
40200,note_on,480,0,3,,,,,,,,,2,,,34,0
40320,note_on,120,0,3,,,,,,,,,2,,,46,36
40320,note_on,120,0,1,,,,,,,,,0,,,58,36
40440,note_on,120,0,1,,,,,,,,,0,,,58,0
40440,note_on,0,0,3,,,,,,,,,2,,,43,36
40440,note_on,120,0,3,,,,,,,,,2,,,46,0
40440,set_tempo,2760,1,0,,,,,,416667,,,,,,,
40440,note_on,0,0,1,,,,,,,,,0,,,55,36
40560,note_on,0,0,3,,,,,,,,,2,,,46,36
40560,note_on,120,0,3,,,,,,,,,2,,,43,0
40560,note_on,120,0,1,,,,,,,,,0,,,55,0
40560,note_on,0,0,1,,,,,,,,,0,,,58,36
40680,note_on,0,0,1,,,,,,,,,0,,,63,36
40680,note_on,120,0,1,,,,,,,,,0,,,58,0
40680,note_on,0,0,3,,,,,,,,,2,,,51,36
40680,note_on,120,0,3,,,,,,,,,2,,,46,0
40800,set_tempo,360,1,0,,,,,,416667,,,,,,,
40800,note_on,0,0,3,,,,,,,,,2,,,55,36
40800,note_on,0,0,1,,,,,,,,,0,,,67,36
40800,note_on,120,0,1,,,,,,,,,0,,,63,0
40800,note_on,120,0,3,,,,,,,,,2,,,51,0
41025,note_on,225,0,3,,,,,,,,,2,,,55,36
41025,note_on,225,0,1,,,,,,,,,0,,,67,36
41040,control_change,0,0,3,,,,,,,,,2,64,0,,
41040,note_on,0,0,3,,,,,,,,,2,,,58,36
41040,control_change,0,0,1,,,,,,,,,0,64,0,,
41040,note_on,0,0,1,,,,,,,,,0,,,70,36
41040,note_on,15,0,3,,,,,,,,,2,,,55,0
41040,note_on,15,0,1,,,,,,,,,0,,,67,0
41040,note_on,0,0,1,,,,,,,,,0,,,67,0
41040,note_on,0,0,3,,,,,,,,,2,,,55,0
41160,note_on,0,0,1,,,,,,,,,0,,,70,36
41160,control_change,0,0,3,,,,,,,,,2,64,127,,
41160,control_change,0,0,1,,,,,,,,,0,64,127,,
41160,note_on,120,0,1,,,,,,,,,0,,,70,0
41160,note_on,120,0,3,,,,,,,,,2,,,58,0
41250,note_on,0,0,1,,,,,,,,,0,,,62,36
41250,note_on,90,0,1,,,,,,,,,0,,,70,0
41280,note_on,30,0,1,,,,,,,,,0,,,62,0
41280,note_on,0,0,3,,,,,,,,,2,,,53,36
41280,note_on,0,0,1,,,,,,,,,0,,,62,36
41280,note_on,0,0,3,,,,,,,,,2,,,56,36
41280,note_on,120,0,3,,,,,,,,,2,,,46,36
41292,note_on,12,0,3,,,,,,,,,2,,,56,0
41292,note_on,0,0,3,,,,,,,,,2,,,53,0
41292,note_on,0,0,3,,,,,,,,,2,,,46,0
41292,note_on,12,0,1,,,,,,,,,0,,,62,0
41400,note_on,108,0,3,,,,,,,,,2,,,46,36
41400,note_on,108,0,1,,,,,,,,,0,,,62,36
41400,note_on,0,0,3,,,,,,,,,2,,,53,36
41400,note_on,0,0,3,,,,,,,,,2,,,56,36
41412,note_on,12,0,1,,,,,,,,,0,,,62,0
41412,note_on,0,0,3,,,,,,,,,2,,,53,0
41412,note_on,0,0,3,,,,,,,,,2,,,46,0
41412,note_on,12,0,3,,,,,,,,,2,,,56,0
41520,control_change,108,0,3,,,,,,,,,2,64,0,,
41520,note_on,0,0,3,,,,,,,,,2,,,46,36
41520,note_on,0,0,3,,,,,,,,,2,,,53,36
41520,note_on,0,0,3,,,,,,,,,2,,,56,36
41520,note_on,0,0,1,,,,,,,,,0,,,62,36
41520,control_change,108,0,1,,,,,,,,,0,64,0,,
41640,note_on,120,0,3,,,,,,,,,2,,,56,0
41640,note_on,0,0,3,,,,,,,,,2,,,46,0
41640,note_on,120,0,1,,,,,,,,,0,,,62,0
41640,note_on,0,0,3,,,,,,,,,2,,,53,0
41760,note_on,120,0,1,,,,,,,,,0,,,62,36
41880,note_on,240,0,3,,,,,,,,,2,,,43,36
41880,note_on,0,0,3,,,,,,,,,2,,,51,36
41880,note_on,0,0,1,,,,,,,,,0,,,63,36
41880,note_on,120,0,1,,,,,,,,,0,,,62,0
41880,control_change,0,0,1,,,,,,,,,0,64,127,,
42000,note_on,120,0,1,,,,,,,,,0,,,63,0
42000,note_on,0,0,1,,,,,,,,,0,,,67,36
42120,note_on,120,0,1,,,,,,,,,0,,,67,0
42120,control_change,0,0,1,,,,,,,,,0,64,0,,
42120,note_on,0,0,1,,,,,,,,,0,,,59,36
42240,note_on,8640,0,4,,,,,,,,,3,,,44,36
42240,note_on,0,0,1,,,,,,,,,0,,,60,36
42240,note_on,0,0,3,,,,,,,,,2,,,51,36
42240,note_on,0,0,3,,,,,,,,,2,,,43,0
42240,note_on,360,0,3,,,,,,,,,2,,,51,0
42240,note_on,120,0,1,,,,,,,,,0,,,59,0
42240,control_change,0,0,1,,,,,,,,,0,64,127,,
42345,note_on,105,0,1,,,,,,,,,0,,,60,36
42360,note_on,15,0,1,,,,,,,,,0,,,60,0
42360,note_on,0,0,3,,,,,,,,,2,,,52,62
42360,note_on,0,0,1,,,,,,,,,0,,,70,62
42360,note_on,0,0,1,,,,,,,,,0,,,60,0
42360,note_on,120,0,3,,,,,,,,,2,,,51,0
42420,note_on,60,0,1,,,,,,,,,0,,,70,0
42420,note_on,0,0,1,,,,,,,,,0,,,68,36
42480,note_on,0,0,1,,,,,,,,,0,,,67,36
42480,note_on,60,0,1,,,,,,,,,0,,,68,0
42480,control_change,0,0,1,,,,,,,,,0,64,0,,
42540,note_on,0,0,3,,,,,,,,,2,,,53,36
42540,note_on,0,0,1,,,,,,,,,0,,,65,36
42540,note_on,60,0,1,,,,,,,,,0,,,67,0
42540,note_on,180,0,3,,,,,,,,,2,,,52,0
42600,control_change,0,0,1,,,,,,,,,0,64,127,,
42600,note_on,60,0,1,,,,,,,,,0,,,65,0
42600,note_on,360,0,4,,,,,,,,,3,,,44,0
42600,note_on,0,0,1,,,,,,,,,0,,,63,36
42600,note_on,60,0,3,,,,,,,,,2,,,53,0
42600,note_on,0,0,3,,,,,,,,,2,,,46,36
42600,note_on,0,0,3,,,,,,,,,2,,,55,36
42720,note_on,120,0,1,,,,,,,,,0,,,63,0
42720,note_on,0,0,1,,,,,,,,,0,,,67,36
42840,note_on,0,0,1,,,,,,,,,0,,,72,36
42840,note_on,240,0,3,,,,,,,,,2,,,55,0
42840,note_on,0,0,3,,,,,,,,,2,,,46,54
42840,note_on,0,0,1,,,,,,,,,0,,,63,36
42840,note_on,0,0,3,,,,,,,,,2,,,46,0
42840,note_on,120,0,1,,,,,,,,,0,,,67,0
42840,note_on,0,0,3,,,,,,,,,2,,,57,62
42840,note_on,0,0,1,,,,,,,,,0,,,66,36
42840,control_change,0,0,1,,,,,,,,,0,64,0,,
42960,note_on,120,0,1,,,,,,,,,0,,,72,0
42960,note_on,0,0,1,,,,,,,,,0,,,63,0
42960,note_on,0,0,1,,,,,,,,,0,,,62,36
42960,note_on,0,0,1,,,,,,,,,0,,,65,36
42960,note_on,0,0,1,,,,,,,,,0,,,66,0
42960,note_on,0,0,1,,,,,,,,,0,,,70,36
42960,note_on,120,0,3,,,,,,,,,2,,,57,0
42960,note_on,0,0,3,,,,,,,,,2,,,58,36
43080,note_on,120,0,1,,,,,,,,,0,,,70,0
43080,note_on,0,0,1,,,,,,,,,0,,,65,0
43080,note_on,0,0,1,,,,,,,,,0,,,62,0
43080,note_on,120,0,3,,,,,,,,,2,,,58,0
43080,note_on,0,0,3,,,,,,,,,2,,,46,0
43200,note_on,0,0,3,,,,,,,,,2,,,58,36
43200,note_on,0,0,1,,,,,,,,,0,,,70,36
43200,control_change,120,0,1,,,,,,,,,0,64,127,,
43200,control_change,120,0,3,,,,,,,,,2,64,127,,
43320,note_on,0,0,1,,,,,,,,,0,,,67,36
43320,note_on,120,0,1,,,,,,,,,0,,,70,0
43320,note_on,120,0,3,,,,,,,,,2,,,58,0
43320,note_on,0,0,3,,,,,,,,,2,,,55,36
43440,note_on,120,0,3,,,,,,,,,2,,,55,0
43440,note_on,120,0,1,,,,,,,,,0,,,67,0
43440,note_on,0,0,1,,,,,,,,,0,,,70,36
43440,note_on,0,0,3,,,,,,,,,2,,,58,36
43560,note_on,120,0,3,,,,,,,,,2,,,58,0
43560,note_on,0,0,3,,,,,,,,,2,,,63,36
43560,note_on,120,0,1,,,,,,,,,0,,,70,0
43560,note_on,0,0,1,,,,,,,,,0,,,75,36
43680,note_on,120,0,3,,,,,,,,,2,,,63,0
43680,note_on,0,0,1,,,,,,,,,0,,,79,36
43680,note_on,120,0,1,,,,,,,,,0,,,75,0
43680,note_on,0,0,3,,,,,,,,,2,,,67,36
43905,note_on,225,0,1,,,,,,,,,0,,,79,36
43905,note_on,225,0,3,,,,,,,,,2,,,67,36
43920,note_on,0,0,1,,,,,,,,,0,,,79,0
43920,note_on,0,0,1,,,,,,,,,0,,,82,62
43920,control_change,0,0,1,,,,,,,,,0,64,0,,
43920,note_on,0,0,3,,,,,,,,,2,,,70,62
43920,control_change,0,0,3,,,,,,,,,2,64,0,,
43920,note_on,0,0,3,,,,,,,,,2,,,67,0
43920,note_on,15,0,1,,,,,,,,,0,,,79,0
43920,note_on,15,0,3,,,,,,,,,2,,,67,0
44040,control_change,0,0,3,,,,,,,,,2,64,127,,
44040,note_on,120,0,3,,,,,,,,,2,,,70,0
44040,note_on,120,0,1,,,,,,,,,0,,,82,0
44040,note_on,0,0,1,,,,,,,,,0,,,82,36
44040,control_change,0,0,1,,,,,,,,,0,64,127,,
44130,note_on,0,0,1,,,,,,,,,0,,,74,36
44130,note_on,90,0,1,,,,,,,,,0,,,82,0
44160,note_on,30,0,1,,,,,,,,,0,,,74,0
44160,note_on,0,0,1,,,,,,,,,0,,,74,36
44160,note_on,120,0,3,,,,,,,,,2,,,58,36
44160,note_on,0,0,3,,,,,,,,,2,,,68,36
44160,note_on,0,0,3,,,,,,,,,2,,,65,36
44172,note_on,0,0,3,,,,,,,,,2,,,58,0
44172,note_on,0,0,3,,,,,,,,,2,,,65,0
44172,note_on,12,0,3,,,,,,,,,2,,,68,0
44172,note_on,12,0,1,,,,,,,,,0,,,74,0
44280,note_on,108,0,1,,,,,,,,,0,,,74,36
44280,note_on,0,0,3,,,,,,,,,2,,,65,36
44280,note_on,0,0,3,,,,,,,,,2,,,68,36
44280,note_on,108,0,3,,,,,,,,,2,,,58,36
44292,note_on,0,0,3,,,,,,,,,2,,,58,0
44292,note_on,0,0,3,,,,,,,,,2,,,65,0
44292,note_on,12,0,1,,,,,,,,,0,,,74,0
44292,note_on,12,0,3,,,,,,,,,2,,,68,0
44400,control_change,108,0,3,,,,,,,,,2,64,0,,
44400,control_change,108,0,1,,,,,,,,,0,64,0,,
44400,note_on,0,0,1,,,,,,,,,0,,,74,36
44400,note_on,0,0,3,,,,,,,,,2,,,58,36
44400,note_on,0,0,3,,,,,,,,,2,,,65,36
44400,note_on,0,0,3,,,,,,,,,2,,,68,36
44520,note_on,0,0,3,,,,,,,,,2,,,58,0
44520,note_on,0,0,3,,,,,,,,,2,,,65,0
44520,note_on,120,0,1,,,,,,,,,0,,,74,0
44520,note_on,120,0,3,,,,,,,,,2,,,68,0
44640,note_on,120,0,1,,,,,,,,,0,,,74,36
44760,control_change,0,0,1,,,,,,,,,0,64,127,,
44760,note_on,0,0,3,,,,,,,,,2,,,63,36
44760,note_on,240,0,3,,,,,,,,,2,,,55,36
44760,note_on,120,0,1,,,,,,,,,0,,,74,0
44760,note_on,0,0,1,,,,,,,,,0,,,75,36
44880,note_on,0,0,1,,,,,,,,,0,,,79,36
44880,note_on,120,0,1,,,,,,,,,0,,,75,0
45000,note_on,0,0,1,,,,,,,,,0,,,71,36
45000,control_change,0,0,1,,,,,,,,,0,64,0,,
45000,note_on,120,0,1,,,,,,,,,0,,,79,0
45120,note_on,0,0,1,,,,,,,,,0,,,72,36
45120,control_change,0,0,1,,,,,,,,,0,64,127,,
45120,note_on,120,0,1,,,,,,,,,0,,,71,0
45120,note_on,0,0,3,,,,,,,,,2,,,63,36
45120,note_on,0,0,3,,,,,,,,,2,,,55,0
45120,note_on,360,0,3,,,,,,,,,2,,,63,0
45120,note_on,2520,0,4,,,,,,,,,3,,,56,36
45225,note_on,105,0,1,,,,,,,,,0,,,72,36
45240,note_on,15,0,1,,,,,,,,,0,,,72,0
45240,note_on,0,0,1,,,,,,,,,0,,,72,0
45240,note_on,0,0,3,,,,,,,,,2,,,64,62
45240,note_on,0,0,1,,,,,,,,,0,,,82,62
45240,note_on,120,0,3,,,,,,,,,2,,,63,0
45300,note_on,0,0,1,,,,,,,,,0,,,80,36
45300,note_on,60,0,1,,,,,,,,,0,,,82,0
45360,note_on,0,0,1,,,,,,,,,0,,,79,36
45360,note_on,60,0,1,,,,,,,,,0,,,80,0
45360,control_change,0,0,1,,,,,,,,,0,64,0,,
45420,note_on,60,0,1,,,,,,,,,0,,,79,0
45420,note_on,0,0,1,,,,,,,,,0,,,77,36
45420,note_on,0,0,3,,,,,,,,,2,,,65,36
45420,note_on,180,0,3,,,,,,,,,2,,,64,0
45480,note_on,0,0,3,,,,,,,,,2,,,58,36
45480,note_on,60,0,3,,,,,,,,,2,,,65,0
45480,note_on,0,0,3,,,,,,,,,2,,,67,36
45480,control_change,0,0,1,,,,,,,,,0,64,127,,
45480,note_on,0,0,1,,,,,,,,,0,,,75,36
45480,note_on,60,0,1,,,,,,,,,0,,,77,0
45480,note_on,360,0,4,,,,,,,,,3,,,56,0
45600,note_on,120,0,1,,,,,,,,,0,,,75,0
45600,note_on,0,0,1,,,,,,,,,0,,,79,36
45720,note_on,0,0,3,,,,,,,,,2,,,68,62
45720,note_on,240,0,3,,,,,,,,,2,,,67,0
45720,note_on,0,0,3,,,,,,,,,2,,,58,0
45720,note_on,0,0,3,,,,,,,,,2,,,58,54
45720,note_on,0,0,1,,,,,,,,,0,,,82,62
45720,note_on,0,0,1,,,,,,,,,0,,,74,54
45720,control_change,0,0,1,,,,,,,,,0,64,0,,
45720,note_on,120,0,1,,,,,,,,,0,,,79,0
45840,note_on,120,0,3,,,,,,,,,2,,,68,0
45840,note_on,0,0,3,,,,,,,,,2,,,67,36
45840,note_on,120,0,1,,,,,,,,,0,,,82,0
45840,note_on,0,0,3,,,,,,,,,2,,,63,36
45840,note_on,0,0,1,,,,,,,,,0,,,79,36
45840,note_on,0,0,1,,,,,,,,,0,,,75,36
45840,note_on,0,0,3,,,,,,,,,2,,,58,0
45840,note_on,0,0,1,,,,,,,,,0,,,74,0
45960,note_on,0,0,1,,,,,,,,,0,,,75,0
45960,note_on,0,0,3,,,,,,,,,2,,,63,0
45960,note_on,120,0,3,,,,,,,,,2,,,67,0
45960,note_on,120,0,1,,,,,,,,,0,,,79,0
45990,note_on,30,0,3,,,,,,,,,2,,,75,36
45990,note_on,30,0,1,,,,,,,,,0,,,87,36
46005,note_on,15,0,3,,,,,,,,,2,,,75,0
46005,note_on,0,0,3,,,,,,,,,2,,,77,36
46005,note_on,15,0,1,,,,,,,,,0,,,87,0
46005,note_on,0,0,1,,,,,,,,,0,,,89,36
46020,note_on,15,0,1,,,,,,,,,0,,,89,0
46020,note_on,0,0,1,,,,,,,,,0,,,87,62
46020,note_on,15,0,3,,,,,,,,,2,,,77,0
46020,note_on,0,0,3,,,,,,,,,2,,,75,49
46080,note_on,60,0,1,,,,,,,,,0,,,87,0
46080,note_on,0,0,1,,,,,,,,,0,,,86,62
46080,note_on,60,0,3,,,,,,,,,2,,,75,0
46080,note_on,0,0,3,,,,,,,,,2,,,74,49
46140,note_on,0,0,3,,,,,,,,,2,,,75,49
46140,note_on,0,0,1,,,,,,,,,0,,,87,62
46140,note_on,60,0,1,,,,,,,,,0,,,86,0
46140,note_on,60,0,3,,,,,,,,,2,,,74,0
46185,note_on,45,0,1,,,,,,,,,0,,,87,62
46185,note_on,45,0,3,,,,,,,,,2,,,75,49
46200,note_on,15,0,3,,,,,,,,,2,,,75,0
46200,note_on,0,0,3,,,,,,,,,2,,,75,0
46200,control_change,0,0,3,,,,,,,,,2,64,127,,
46200,note_on,0,0,3,,,,,,,,,2,,,79,49
46200,note_on,0,0,1,,,,,,,,,0,,,91,62
46200,note_on,15,0,1,,,,,,,,,0,,,87,0
46200,control_change,0,0,1,,,,,,,,,0,64,127,,
46200,note_on,0,0,1,,,,,,,,,0,,,87,0
46260,note_on,0,0,1,,,,,,,,,0,,,89,62
46260,note_on,60,0,1,,,,,,,,,0,,,91,0
46260,note_on,60,0,3,,,,,,,,,2,,,79,0
46260,note_on,0,0,3,,,,,,,,,2,,,77,49
46320,note_on,0,0,1,,,,,,,,,0,,,89,62
46320,note_on,60,0,1,,,,,,,,,0,,,89,0
46320,note_on,60,0,3,,,,,,,,,2,,,77,0
46320,note_on,0,0,3,,,,,,,,,2,,,77,49
46380,note_on,0,0,3,,,,,,,,,2,,,75,49
46380,note_on,60,0,3,,,,,,,,,2,,,77,0
46380,note_on,0,0,1,,,,,,,,,0,,,87,62
46380,note_on,60,0,1,,,,,,,,,0,,,89,0
46440,note_on,60,0,3,,,,,,,,,2,,,75,0
46440,note_on,0,0,1,,,,,,,,,0,,,87,62
46440,note_on,60,0,1,,,,,,,,,0,,,87,0
46440,note_on,0,0,3,,,,,,,,,2,,,75,49
46500,note_on,0,0,1,,,,,,,,,0,,,86,62
46500,note_on,0,0,3,,,,,,,,,2,,,74,49
46500,note_on,60,0,3,,,,,,,,,2,,,75,0
46500,note_on,60,0,1,,,,,,,,,0,,,87,0
46560,note_on,0,0,1,,,,,,,,,0,,,86,49
46560,note_on,60,0,1,,,,,,,,,0,,,86,0
46560,note_on,60,0,3,,,,,,,,,2,,,74,0
46560,note_on,0,0,3,,,,,,,,,2,,,74,36
46620,note_on,0,0,1,,,,,,,,,0,,,84,49
46620,note_on,60,0,1,,,,,,,,,0,,,86,0
46620,note_on,60,0,3,,,,,,,,,2,,,74,0
46620,note_on,0,0,3,,,,,,,,,2,,,72,36
46680,note_on,0,0,3,,,,,,,,,2,,,72,36
46680,note_on,60,0,3,,,,,,,,,2,,,72,0
46680,note_on,60,0,1,,,,,,,,,0,,,84,0
46680,note_on,0,0,1,,,,,,,,,0,,,84,49
46740,note_on,0,0,3,,,,,,,,,2,,,70,36
46740,note_on,60,0,3,,,,,,,,,2,,,72,0
46740,note_on,60,0,1,,,,,,,,,0,,,84,0
46740,note_on,0,0,1,,,,,,,,,0,,,82,49
46800,note_on,60,0,1,,,,,,,,,0,,,82,0
46800,note_on,0,0,1,,,,,,,,,0,,,82,49
46800,control_change,0,0,1,,,,,,,,,0,64,0,,
46800,note_on,60,0,3,,,,,,,,,2,,,70,0
46800,control_change,0,0,3,,,,,,,,,2,64,0,,
46800,note_on,0,0,3,,,,,,,,,2,,,70,36
46860,note_on,0,0,1,,,,,,,,,0,,,81,49
46860,note_on,60,0,3,,,,,,,,,2,,,70,0
46860,note_on,0,0,3,,,,,,,,,2,,,69,36
46860,note_on,60,0,1,,,,,,,,,0,,,82,0
46920,note_on,60,0,3,,,,,,,,,2,,,69,0
46920,note_on,0,0,3,,,,,,,,,2,,,65,36
46920,note_on,0,0,3,,,,,,,,,2,,,75,36
46920,note_on,0,0,1,,,,,,,,,0,,,81,49
46920,note_on,60,0,1,,,,,,,,,0,,,81,0
46920,note_on,0,0,3,,,,,,,,,2,,,72,36
47160,note_on,240,0,1,,,,,,,,,0,,,81,0
47160,note_on,0,0,1,,,,,,,,,0,,,89,49
47220,note_on,60,0,1,,,,,,,,,0,,,89,0
47280,note_on,0,0,3,,,,,,,,,2,,,74,62
47280,note_on,0,0,3,,,,,,,,,2,,,70,54
47280,note_on,0,0,3,,,,,,,,,2,,,65,0
47280,note_on,360,0,3,,,,,,,,,2,,,75,0
47280,control_change,60,0,1,,,,,,,,,0,64,127,,
47280,note_on,0,0,1,,,,,,,,,0,,,80,75
47280,note_on,0,0,3,,,,,,,,,2,,,72,0
47460,note_on,180,0,1,,,,,,,,,0,,,80,0
47460,note_on,0,0,1,,,,,,,,,0,,,89,49
47520,note_on,0,0,1,,,,,,,,,0,,,86,49
47520,note_on,60,0,1,,,,,,,,,0,,,89,0
47580,note_on,0,0,1,,,,,,,,,0,,,80,49
47580,control_change,0,0,1,,,,,,,,,0,64,0,,
47580,note_on,60,0,1,,,,,,,,,0,,,86,0
47640,note_on,0,0,1,,,,,,,,,0,,,79,49
47640,note_on,60,0,1,,,,,,,,,0,,,80,0
47640,control_change,0,0,1,,,,,,,,,0,64,127,,
47640,note_on,360,0,3,,,,,,,,,2,,,74,0
47640,note_on,0,0,3,,,,,,,,,2,,,70,0
47640,control_change,0,0,3,,,,,,,,,2,64,127,,
47640,note_on,0,0,3,,,,,,,,,2,,,63,36
47640,note_on,0,0,3,,,,,,,,,2,,,75,36
47700,note_on,60,0,3,,,,,,,,,2,,,75,0
47700,note_on,0,0,3,,,,,,,,,2,,,63,0
47730,note_on,0,0,1,,,,,,,,,0,,,87,49
47730,note_on,90,0,1,,,,,,,,,0,,,79,0
47760,note_on,60,0,3,,,,,,,,,2,,,58,36
47760,note_on,30,0,1,,,,,,,,,0,,,87,0
47760,note_on,0,0,3,,,,,,,,,2,,,67,36
47760,note_on,0,0,1,,,,,,,,,0,,,82,49
47880,note_on,0,0,1,,,,,,,,,0,,,74,49
47880,note_on,0,0,3,,,,,,,,,2,,,59,36
47880,note_on,120,0,1,,,,,,,,,0,,,82,0
47880,control_change,0,0,1,,,,,,,,,0,64,0,,
47880,note_on,0,0,3,,,,,,,,,2,,,68,36
47880,control_change,0,0,3,,,,,,,,,2,64,0,,
47880,note_on,0,0,3,,,,,,,,,2,,,58,0
47880,note_on,120,0,3,,,,,,,,,2,,,67,0
48000,note_on,0,0,1,,,,,,,,,0,,,75,49
48000,control_change,0,0,1,,,,,,,,,0,64,127,,
48000,note_on,120,0,1,,,,,,,,,0,,,74,0
48000,note_on,120,0,3,,,,,,,,,2,,,68,0
48000,note_on,0,0,3,,,,,,,,,2,,,67,36
48000,note_on,0,0,3,,,,,,,,,2,,,60,36
48000,control_change,0,0,3,,,,,,,,,2,64,127,,
48000,note_on,0,0,3,,,,,,,,,2,,,59,0
48120,note_on,120,0,3,,,,,,,,,2,,,67,0
48120,note_on,120,0,1,,,,,,,,,0,,,75,0
48120,note_on,0,0,3,,,,,,,,,2,,,60,0
48150,note_on,30,0,1,,,,,,,,,0,,,75,49
48150,note_on,30,0,3,,,,,,,,,2,,,63,36
48165,note_on,0,0,3,,,,,,,,,2,,,65,36
48165,note_on,15,0,3,,,,,,,,,2,,,63,0
48165,note_on,15,0,1,,,,,,,,,0,,,75,0
48165,note_on,0,0,1,,,,,,,,,0,,,77,49
48180,note_on,15,0,1,,,,,,,,,0,,,77,0
48180,note_on,0,0,1,,,,,,,,,0,,,75,49
48180,note_on,0,0,3,,,,,,,,,2,,,63,49
48180,note_on,15,0,3,,,,,,,,,2,,,65,0
48240,note_on,60,0,1,,,,,,,,,0,,,75,0
48240,note_on,0,0,1,,,,,,,,,0,,,74,49
48240,note_on,0,0,3,,,,,,,,,2,,,62,49
48240,note_on,60,0,3,,,,,,,,,2,,,63,0
48300,note_on,0,0,3,,,,,,,,,2,,,63,49
48300,note_on,60,0,3,,,,,,,,,2,,,62,0
48300,note_on,60,0,1,,,,,,,,,0,,,74,0
48300,note_on,0,0,1,,,,,,,,,0,,,75,49
48345,note_on,45,0,1,,,,,,,,,0,,,75,49
48345,note_on,45,0,3,,,,,,,,,2,,,63,49
48360,note_on,0,0,1,,,,,,,,,0,,,75,0
48360,note_on,0,0,1,,,,,,,,,0,,,79,62
48360,control_change,0,0,1,,,,,,,,,0,64,127,,
48360,note_on,15,0,3,,,,,,,,,2,,,63,0
48360,note_on,0,0,3,,,,,,,,,2,,,63,0
48360,control_change,0,0,3,,,,,,,,,2,64,127,,
48360,note_on,0,0,3,,,,,,,,,2,,,67,49
48360,note_on,15,0,1,,,,,,,,,0,,,75,0
48420,note_on,60,0,3,,,,,,,,,2,,,67,0
48420,note_on,0,0,3,,,,,,,,,2,,,65,49
48420,note_on,0,0,1,,,,,,,,,0,,,77,62
48420,note_on,60,0,1,,,,,,,,,0,,,79,0
48480,note_on,0,0,1,,,,,,,,,0,,,77,62
48480,note_on,60,0,3,,,,,,,,,2,,,65,0
48480,note_on,0,0,3,,,,,,,,,2,,,65,49
48480,note_on,60,0,1,,,,,,,,,0,,,77,0
48540,note_on,0,0,1,,,,,,,,,0,,,75,62
48540,note_on,60,0,1,,,,,,,,,0,,,77,0
48540,note_on,60,0,3,,,,,,,,,2,,,65,0
48540,note_on,0,0,3,,,,,,,,,2,,,63,49
48600,note_on,0,0,1,,,,,,,,,0,,,75,62
48600,note_on,60,0,1,,,,,,,,,0,,,75,0
48600,note_on,60,0,3,,,,,,,,,2,,,63,0
48600,note_on,0,0,3,,,,,,,,,2,,,63,49
48660,note_on,60,0,3,,,,,,,,,2,,,63,0
48660,note_on,0,0,3,,,,,,,,,2,,,62,49
48660,note_on,0,0,1,,,,,,,,,0,,,74,62
48660,note_on,60,0,1,,,,,,,,,0,,,75,0
48720,note_on,0,0,3,,,,,,,,,2,,,62,36
48720,note_on,0,0,1,,,,,,,,,0,,,74,49
48720,note_on,60,0,1,,,,,,,,,0,,,74,0
48720,note_on,60,0,3,,,,,,,,,2,,,62,0
48780,note_on,60,0,1,,,,,,,,,0,,,74,0
48780,note_on,60,0,3,,,,,,,,,2,,,62,0
48780,note_on,0,0,1,,,,,,,,,0,,,72,49
48780,note_on,0,0,3,,,,,,,,,2,,,60,36
48840,note_on,0,0,1,,,,,,,,,0,,,72,49
48840,note_on,60,0,1,,,,,,,,,0,,,72,0
48840,note_on,60,0,3,,,,,,,,,2,,,60,0
48840,note_on,0,0,3,,,,,,,,,2,,,60,36
48900,note_on,0,0,1,,,,,,,,,0,,,70,49
48900,note_on,60,0,3,,,,,,,,,2,,,60,0
48900,note_on,0,0,3,,,,,,,,,2,,,58,36
48900,note_on,60,0,1,,,,,,,,,0,,,72,0
48960,note_on,0,0,1,,,,,,,,,0,,,70,49
48960,control_change,0,0,1,,,,,,,,,0,64,0,,
48960,note_on,60,0,1,,,,,,,,,0,,,70,0
48960,note_on,0,0,3,,,,,,,,,2,,,58,36
48960,control_change,0,0,3,,,,,,,,,2,64,0,,
48960,note_on,60,0,3,,,,,,,,,2,,,58,0
49020,note_on,0,0,3,,,,,,,,,2,,,57,36
49020,note_on,60,0,1,,,,,,,,,0,,,70,0
49020,note_on,0,0,1,,,,,,,,,0,,,69,49
49020,note_on,60,0,3,,,,,,,,,2,,,58,0
49080,note_on,0,0,3,,,,,,,,,2,,,63,36
49080,note_on,0,0,3,,,,,,,,,2,,,60,36
49080,note_on,0,0,3,,,,,,,,,2,,,53,36
49080,note_on,0,0,1,,,,,,,,,0,,,69,49
49080,note_on,60,0,1,,,,,,,,,0,,,69,0
49080,note_on,60,0,3,,,,,,,,,2,,,57,0
49320,note_on,0,0,1,,,,,,,,,0,,,77,49
49320,note_on,240,0,1,,,,,,,,,0,,,69,0
49380,note_on,60,0,1,,,,,,,,,0,,,77,0
49440,note_on,0,0,3,,,,,,,,,2,,,62,36
49440,note_on,0,0,1,,,,,,,,,0,,,68,49
49440,note_on,0,0,3,,,,,,,,,2,,,58,36
49440,note_on,0,0,3,,,,,,,,,2,,,53,0
49440,note_on,0,0,3,,,,,,,,,2,,,60,0
49440,note_on,360,0,3,,,,,,,,,2,,,63,0
49440,control_change,60,0,1,,,,,,,,,0,64,127,,
49620,note_on,0,0,1,,,,,,,,,0,,,77,49
49620,note_on,180,0,1,,,,,,,,,0,,,68,0
49680,note_on,60,0,1,,,,,,,,,0,,,77,0
49680,note_on,0,0,1,,,,,,,,,0,,,74,49
49740,note_on,60,0,1,,,,,,,,,0,,,74,0
49740,control_change,0,0,1,,,,,,,,,0,64,0,,
49740,note_on,0,0,1,,,,,,,,,0,,,68,49
49800,note_on,60,0,1,,,,,,,,,0,,,68,0
49800,control_change,0,0,1,,,,,,,,,0,64,127,,
49800,note_on,0,0,1,,,,,,,,,0,,,67,49
49800,note_on,0,0,3,,,,,,,,,2,,,58,0
49800,note_on,360,0,3,,,,,,,,,2,,,62,0
49800,control_change,0,0,3,,,,,,,,,2,64,127,,
49800,note_on,0,0,3,,,,,,,,,2,,,51,36
49800,note_on,0,0,3,,,,,,,,,2,,,63,36
49860,note_on,60,0,3,,,,,,,,,2,,,63,0
49860,note_on,0,0,3,,,,,,,,,2,,,51,0
49890,note_on,90,0,1,,,,,,,,,0,,,67,0
49890,note_on,0,0,1,,,,,,,,,0,,,75,49
49920,note_on,30,0,1,,,,,,,,,0,,,75,0
49920,note_on,0,0,1,,,,,,,,,0,,,70,49
49920,note_on,4440,0,4,,,,,,,,,3,,,46,36
49920,note_on,60,0,3,,,,,,,,,2,,,55,36
50040,note_on,120,0,3,,,,,,,,,2,,,55,0
50040,control_change,0,0,3,,,,,,,,,2,64,0,,
50040,note_on,0,0,3,,,,,,,,,2,,,56,36
50040,note_on,120,0,1,,,,,,,,,0,,,70,0
50040,control_change,0,0,1,,,,,,,,,0,64,0,,
50040,note_on,0,0,1,,,,,,,,,0,,,62,49
50160,control_change,0,0,3,,,,,,,,,2,64,127,,
50160,note_on,120,0,1,,,,,,,,,0,,,62,0
50160,control_change,0,0,1,,,,,,,,,0,64,127,,
50160,note_on,120,0,3,,,,,,,,,2,,,56,0
50160,note_on,0,0,1,,,,,,,,,0,,,63,49
50160,note_on,240,0,4,,,,,,,,,3,,,46,0
50160,note_on,0,0,3,,,,,,,,,2,,,51,36
50160,note_on,0,0,1,,,,,,,,,0,,,75,49
50172,note_on,12,0,1,,,,,,,,,0,,,75,0
50172,note_on,0,0,1,,,,,,,,,0,,,63,0
50190,note_on,0,0,3,,,,,,,,,2,,,58,36
50190,note_on,30,0,3,,,,,,,,,2,,,51,0
50220,note_on,30,0,3,,,,,,,,,2,,,58,0
50220,note_on,0,0,3,,,,,,,,,2,,,54,36
50250,note_on,0,0,3,,,,,,,,,2,,,58,36
50250,note_on,30,0,3,,,,,,,,,2,,,54,0
50280,note_on,108,0,1,,,,,,,,,0,,,66,49
50280,note_on,0,0,3,,,,,,,,,2,,,51,36
50280,note_on,30,0,3,,,,,,,,,2,,,58,0
50280,note_on,0,0,1,,,,,,,,,0,,,78,49
50292,note_on,12,0,1,,,,,,,,,0,,,78,0
50292,note_on,0,0,1,,,,,,,,,0,,,66,0
50310,note_on,0,0,3,,,,,,,,,2,,,58,36
50310,note_on,30,0,3,,,,,,,,,2,,,51,0
50340,note_on,0,0,3,,,,,,,,,2,,,54,36
50340,note_on,30,0,3,,,,,,,,,2,,,58,0
50370,note_on,0,0,3,,,,,,,,,2,,,58,36
50370,note_on,30,0,3,,,,,,,,,2,,,54,0
50400,note_on,30,0,3,,,,,,,,,2,,,58,0
50400,note_on,0,0,1,,,,,,,,,0,,,82,62
50400,note_on,108,0,1,,,,,,,,,0,,,70,62
50400,note_on,0,0,3,,,,,,,,,2,,,51,49
50412,note_on,12,0,1,,,,,,,,,0,,,82,0
50412,note_on,0,0,1,,,,,,,,,0,,,70,0
50430,note_on,0,0,3,,,,,,,,,2,,,58,49
50430,note_on,30,0,3,,,,,,,,,2,,,51,0
50460,note_on,30,0,3,,,,,,,,,2,,,58,0
50460,note_on,0,0,3,,,,,,,,,2,,,54,49
50490,note_on,0,0,3,,,,,,,,,2,,,58,49
50490,note_on,30,0,3,,,,,,,,,2,,,54,0
50520,note_on,108,0,1,,,,,,,,,0,,,75,80
50520,note_on,0,0,3,,,,,,,,,2,,,51,75
50520,note_on,30,0,3,,,,,,,,,2,,,58,0
50520,note_on,0,0,1,,,,,,,,,0,,,87,88
50550,note_on,30,0,3,,,,,,,,,2,,,51,0
50550,note_on,0,0,3,,,,,,,,,2,,,58,49
50580,note_on,0,0,3,,,,,,,,,2,,,54,49
50580,note_on,30,0,3,,,,,,,,,2,,,58,0
50610,note_on,0,0,3,,,,,,,,,2,,,58,49
50610,note_on,30,0,3,,,,,,,,,2,,,54,0
50640,note_on,0,0,3,,,,,,,,,2,,,51,49
50640,note_on,30,0,3,,,,,,,,,2,,,58,0
50670,note_on,0,0,3,,,,,,,,,2,,,58,49
50670,note_on,30,0,3,,,,,,,,,2,,,51,0
50700,note_on,0,0,3,,,,,,,,,2,,,54,49
50700,note_on,30,0,3,,,,,,,,,2,,,58,0
50730,note_on,30,0,3,,,,,,,,,2,,,54,0
50730,note_on,0,0,3,,,,,,,,,2,,,58,49
50760,note_on,0,0,1,,,,,,,,,0,,,90,62
50760,note_on,240,0,1,,,,,,,,,0,,,87,0
50760,control_change,0,0,1,,,,,,,,,0,64,0,,
50760,note_on,0,0,1,,,,,,,,,0,,,75,0
50760,note_on,0,0,3,,,,,,,,,2,,,51,49
50760,note_on,30,0,3,,,,,,,,,2,,,58,0
50760,note_on,0,0,1,,,,,,,,,0,,,78,62
50772,note_on,0,0,1,,,,,,,,,0,,,78,0
50772,note_on,12,0,1,,,,,,,,,0,,,90,0
50790,note_on,30,0,3,,,,,,,,,2,,,51,0
50790,note_on,0,0,3,,,,,,,,,2,,,58,49
50820,note_on,0,0,3,,,,,,,,,2,,,54,49
50820,note_on,30,0,3,,,,,,,,,2,,,58,0
50850,note_on,0,0,3,,,,,,,,,2,,,58,49
50850,control_change,0,0,3,,,,,,,,,2,64,0,,
50850,note_on,30,0,3,,,,,,,,,2,,,54,0
50880,control_change,0,0,3,,,,,,,,,2,64,127,,
50880,control_change,108,0,1,,,,,,,,,0,64,127,,
50880,note_on,0,0,1,,,,,,,,,0,,,66,75
50880,note_on,0,0,1,,,,,,,,,0,,,78,75
50880,note_on,0,0,3,,,,,,,,,2,,,49,62
50880,note_on,30,0,3,,,,,,,,,2,,,58,0
50892,note_on,12,0,1,,,,,,,,,0,,,78,0
50892,note_on,0,0,1,,,,,,,,,0,,,66,0
50910,note_on,30,0,3,,,,,,,,,2,,,49,0
50910,note_on,0,0,3,,,,,,,,,2,,,58,62
50940,note_on,0,0,3,,,,,,,,,2,,,54,62
50940,note_on,30,0,3,,,,,,,,,2,,,58,0
50940,note_on,0,0,3,,,,,,,,,2,,,51,62
50970,note_on,0,0,3,,,,,,,,,2,,,58,62
50970,note_on,0,0,3,,,,,,,,,2,,,51,0
50970,note_on,30,0,3,,,,,,,,,2,,,54,0
51000,note_on,0,0,3,,,,,,,,,2,,,49,62
51000,note_on,30,0,3,,,,,,,,,2,,,58,0
51000,note_on,0,0,1,,,,,,,,,0,,,82,75
51000,note_on,108,0,1,,,,,,,,,0,,,70,75
51012,note_on,12,0,1,,,,,,,,,0,,,82,0
51012,note_on,0,0,1,,,,,,,,,0,,,70,0
51030,note_on,30,0,3,,,,,,,,,2,,,49,0
51030,note_on,0,0,3,,,,,,,,,2,,,58,62
51060,note_on,30,0,3,,,,,,,,,2,,,58,0
51060,note_on,0,0,3,,,,,,,,,2,,,51,62
51060,note_on,0,0,3,,,,,,,,,2,,,54,62
51090,note_on,0,0,3,,,,,,,,,2,,,58,62
51090,note_on,0,0,3,,,,,,,,,2,,,51,0
51090,note_on,30,0,3,,,,,,,,,2,,,54,0
51120,note_on,108,0,1,,,,,,,,,0,,,75,75
51120,note_on,0,0,3,,,,,,,,,2,,,49,62
51120,note_on,30,0,3,,,,,,,,,2,,,58,0
51120,note_on,0,0,1,,,,,,,,,0,,,87,75
51132,note_on,0,0,1,,,,,,,,,0,,,75,0
51132,note_on,12,0,1,,,,,,,,,0,,,87,0
51150,note_on,30,0,3,,,,,,,,,2,,,49,0
51150,note_on,0,0,3,,,,,,,,,2,,,58,62
51180,note_on,0,0,3,,,,,,,,,2,,,51,62
51180,note_on,30,0,3,,,,,,,,,2,,,58,0
51180,note_on,0,0,3,,,,,,,,,2,,,54,62
51210,note_on,30,0,3,,,,,,,,,2,,,54,0
51210,note_on,0,0,3,,,,,,,,,2,,,51,0
51210,note_on,0,0,3,,,,,,,,,2,,,58,62
51240,note_on,108,0,1,,,,,,,,,0,,,78,93
51240,note_on,30,0,3,,,,,,,,,2,,,58,0
51240,control_change,0,0,3,,,,,,,,,2,64,127,,
51240,note_on,0,0,3,,,,,,,,,2,,,49,62
51240,note_on,0,0,1,,,,,,,,,0,,,90,101
51270,note_on,30,0,3,,,,,,,,,2,,,49,0
51270,note_on,0,0,3,,,,,,,,,2,,,58,62
51300,note_on,0,0,3,,,,,,,,,2,,,54,62
51300,note_on,30,0,3,,,,,,,,,2,,,58,0
51300,note_on,0,0,3,,,,,,,,,2,,,51,62
51330,note_on,0,0,3,,,,,,,,,2,,,58,62
51330,note_on,0,0,3,,,,,,,,,2,,,51,0
51330,note_on,30,0,3,,,,,,,,,2,,,54,0
51360,note_on,0,0,3,,,,,,,,,2,,,49,62
51360,note_on,30,0,3,,,,,,,,,2,,,58,0
51390,note_on,30,0,3,,,,,,,,,2,,,49,0
51390,note_on,0,0,3,,,,,,,,,2,,,58,62
51420,note_on,30,0,3,,,,,,,,,2,,,58,0
51420,note_on,0,0,3,,,,,,,,,2,,,54,62
51420,note_on,0,0,3,,,,,,,,,2,,,51,62
51450,note_on,30,0,3,,,,,,,,,2,,,54,0
51450,note_on,0,0,3,,,,,,,,,2,,,51,0
51450,note_on,0,0,3,,,,,,,,,2,,,58,62
51480,note_on,240,0,1,,,,,,,,,0,,,90,0
51480,note_on,0,0,1,,,,,,,,,0,,,78,0
51480,note_on,0,0,1,,,,,,,,,0,,,82,75
51480,note_on,0,0,1,,,,,,,,,0,,,94,75
51480,note_on,30,0,3,,,,,,,,,2,,,58,0
51480,note_on,0,0,3,,,,,,,,,2,,,49,62
51492,note_on,12,0,1,,,,,,,,,0,,,94,0
51492,note_on,0,0,1,,,,,,,,,0,,,82,0
51510,note_on,30,0,3,,,,,,,,,2,,,49,0
51510,note_on,0,0,3,,,,,,,,,2,,,58,62
51540,note_on,0,0,3,,,,,,,,,2,,,54,62
51540,note_on,0,0,3,,,,,,,,,2,,,51,62
51540,note_on,30,0,3,,,,,,,,,2,,,58,0
51570,note_on,0,0,3,,,,,,,,,2,,,58,62
51570,note_on,0,0,3,,,,,,,,,2,,,51,0
51570,note_on,30,0,3,,,,,,,,,2,,,54,0
51600,note_on,0,0,3,,,,,,,,,2,,,47,75
51600,control_change,0,0,3,,,,,,,,,2,64,127,,
51600,note_on,30,0,3,,,,,,,,,2,,,58,0
51600,note_on,0,0,1,,,,,,,,,0,,,59,88
51600,control_change,108,0,1,,,,,,,,,0,64,127,,
51600,note_on,0,0,1,,,,,,,,,0,,,71,88
51612,note_on,12,0,1,,,,,,,,,0,,,71,0
51612,note_on,0,0,1,,,,,,,,,0,,,59,0
51630,note_on,30,0,3,,,,,,,,,2,,,47,0
51630,note_on,0,0,3,,,,,,,,,2,,,59,75
51660,note_on,30,0,3,,,,,,,,,2,,,59,0
51660,note_on,0,0,3,,,,,,,,,2,,,54,75
51660,note_on,0,0,3,,,,,,,,,2,,,51,75
51690,note_on,0,0,3,,,,,,,,,2,,,51,0
51690,note_on,30,0,3,,,,,,,,,2,,,54,0
51690,note_on,0,0,3,,,,,,,,,2,,,59,75
51720,note_on,0,0,3,,,,,,,,,2,,,47,75
51720,note_on,30,0,3,,,,,,,,,2,,,59,0
51720,note_on,108,0,1,,,,,,,,,0,,,63,88
51720,note_on,0,0,1,,,,,,,,,0,,,75,88
51732,note_on,0,0,1,,,,,,,,,0,,,63,0
51732,note_on,12,0,1,,,,,,,,,0,,,75,0
51750,note_on,30,0,3,,,,,,,,,2,,,47,0
51750,note_on,0,0,3,,,,,,,,,2,,,59,75
51780,note_on,30,0,3,,,,,,,,,2,,,59,0
51780,note_on,0,0,3,,,,,,,,,2,,,51,75
51780,note_on,0,0,3,,,,,,,,,2,,,54,75
51810,note_on,0,0,3,,,,,,,,,2,,,59,75
51810,note_on,30,0,3,,,,,,,,,2,,,54,0
51810,note_on,0,0,3,,,,,,,,,2,,,51,0
51840,note_on,108,0,1,,,,,,,,,0,,,66,88
51840,note_on,0,0,1,,,,,,,,,0,,,78,88
51840,note_on,30,0,3,,,,,,,,,2,,,59,0
51840,note_on,0,0,3,,,,,,,,,2,,,47,75
51852,note_on,0,0,1,,,,,,,,,0,,,66,0
51852,note_on,12,0,1,,,,,,,,,0,,,78,0
51870,note_on,30,0,3,,,,,,,,,2,,,47,0
51870,note_on,0,0,3,,,,,,,,,2,,,59,75
51900,note_on,0,0,3,,,,,,,,,2,,,54,75
51900,note_on,30,0,3,,,,,,,,,2,,,59,0
51900,note_on,0,0,3,,,,,,,,,2,,,51,75
51930,note_on,0,0,3,,,,,,,,,2,,,59,75
51930,note_on,0,0,3,,,,,,,,,2,,,51,0
51930,note_on,30,0,3,,,,,,,,,2,,,54,0
51960,note_on,108,0,1,,,,,,,,,0,,,83,106
51960,note_on,0,0,1,,,,,,,,,0,,,95,114
51960,note_on,30,0,3,,,,,,,,,2,,,59,0
51960,note_on,0,0,3,,,,,,,,,2,,,47,75
51990,note_on,30,0,3,,,,,,,,,2,,,47,0
51990,note_on,0,0,3,,,,,,,,,2,,,59,75
52020,note_on,30,0,3,,,,,,,,,2,,,59,0
52020,note_on,0,0,3,,,,,,,,,2,,,51,75
52020,note_on,0,0,3,,,,,,,,,2,,,54,75
52050,note_on,30,0,3,,,,,,,,,2,,,54,0
52050,note_on,0,0,3,,,,,,,,,2,,,51,0
52050,note_on,0,0,3,,,,,,,,,2,,,59,75
52080,note_on,30,0,3,,,,,,,,,2,,,59,0
52080,note_on,0,0,3,,,,,,,,,2,,,47,75
52110,note_on,30,0,3,,,,,,,,,2,,,47,0
52110,note_on,0,0,3,,,,,,,,,2,,,59,75
52140,note_on,30,0,3,,,,,,,,,2,,,59,0
52140,note_on,0,0,3,,,,,,,,,2,,,51,75
52140,note_on,0,0,3,,,,,,,,,2,,,54,75
52170,note_on,30,0,3,,,,,,,,,2,,,54,0
52170,note_on,0,0,3,,,,,,,,,2,,,51,0
52170,note_on,0,0,3,,,,,,,,,2,,,59,75
52200,note_on,0,0,1,,,,,,,,,0,,,75,88
52200,note_on,0,0,3,,,,,,,,,2,,,46,75
52200,note_on,30,0,3,,,,,,,,,2,,,59,0
52200,note_on,0,0,1,,,,,,,,,0,,,87,88
52200,control_change,0,0,1,,,,,,,,,0,64,0,,
52200,note_on,0,0,1,,,,,,,,,0,,,83,0
52200,note_on,240,0,1,,,,,,,,,0,,,95,0
52212,note_on,12,0,1,,,,,,,,,0,,,87,0
52212,note_on,0,0,1,,,,,,,,,0,,,75,0
52230,note_on,30,0,3,,,,,,,,,2,,,46,0
52230,note_on,0,0,3,,,,,,,,,2,,,58,75
52260,note_on,0,0,3,,,,,,,,,2,,,54,75
52260,note_on,0,0,3,,,,,,,,,2,,,51,75
52260,note_on,30,0,3,,,,,,,,,2,,,58,0
52290,control_change,0,0,3,,,,,,,,,2,64,0,,
52290,note_on,0,0,3,,,,,,,,,2,,,58,75
52290,note_on,0,0,3,,,,,,,,,2,,,51,0
52290,note_on,30,0,3,,,,,,,,,2,,,54,0
52320,control_change,0,0,3,,,,,,,,,2,64,127,,
52320,control_change,108,0,1,,,,,,,,,0,64,127,,
52320,note_on,0,0,1,,,,,,,,,0,,,90,101
52320,note_on,0,0,3,,,,,,,,,2,,,45,88
52320,note_on,0,0,1,,,,,,,,,0,,,87,101
52320,note_on,30,0,3,,,,,,,,,2,,,58,0
52320,note_on,0,0,1,,,,,,,,,0,,,78,101
52332,note_on,12,0,1,,,,,,,,,0,,,90,0
52332,note_on,0,0,1,,,,,,,,,0,,,87,0
52332,note_on,0,0,1,,,,,,,,,0,,,78,0
52350,note_on,30,0,3,,,,,,,,,2,,,45,0
52350,note_on,0,0,3,,,,,,,,,2,,,57,88
52380,note_on,30,0,3,,,,,,,,,2,,,57,0
52380,note_on,0,0,3,,,,,,,,,2,,,54,88
52380,note_on,0,0,3,,,,,,,,,2,,,51,88
52410,note_on,0,0,3,,,,,,,,,2,,,51,0
52410,note_on,30,0,3,,,,,,,,,2,,,54,0
52410,note_on,0,0,3,,,,,,,,,2,,,57,88
52440,note_on,0,0,1,,,,,,,,,0,,,87,101
52440,note_on,30,0,3,,,,,,,,,2,,,57,0
52440,note_on,0,0,1,,,,,,,,,0,,,90,101
52440,note_on,108,0,1,,,,,,,,,0,,,78,101
52440,note_on,0,0,3,,,,,,,,,2,,,45,88
52452,note_on,12,0,1,,,,,,,,,0,,,90,0
52452,note_on,0,0,1,,,,,,,,,0,,,87,0
52452,note_on,0,0,1,,,,,,,,,0,,,78,0
52470,note_on,0,0,3,,,,,,,,,2,,,57,88
52470,note_on,30,0,3,,,,,,,,,2,,,45,0
52500,note_on,30,0,3,,,,,,,,,2,,,57,0
52500,note_on,0,0,3,,,,,,,,,2,,,54,88
52500,note_on,0,0,3,,,,,,,,,2,,,51,88
52530,note_on,0,0,3,,,,,,,,,2,,,57,88
52530,note_on,0,0,3,,,,,,,,,2,,,51,0
52530,note_on,30,0,3,,,,,,,,,2,,,54,0
52560,note_on,0,0,3,,,,,,,,,2,,,45,75
52560,note_on,30,0,3,,,,,,,,,2,,,57,0
52560,control_change,108,0,1,,,,,,,,,0,64,0,,
52560,note_on,0,0,1,,,,,,,,,0,,,78,88
52560,note_on,0,0,1,,,,,,,,,0,,,87,88
52560,note_on,0,0,1,,,,,,,,,0,,,90,88
52572,note_on,0,0,1,,,,,,,,,0,,,87,0
52572,note_on,12,0,1,,,,,,,,,0,,,90,0
52572,note_on,0,0,1,,,,,,,,,0,,,78,0
52590,note_on,30,0,3,,,,,,,,,2,,,45,0
52590,note_on,0,0,3,,,,,,,,,2,,,57,75
52620,note_on,0,0,3,,,,,,,,,2,,,51,75
52620,note_on,30,0,3,,,,,,,,,2,,,57,0
52620,note_on,0,0,3,,,,,,,,,2,,,54,75
52650,note_on,0,0,3,,,,,,,,,2,,,57,75
52650,control_change,0,0,3,,,,,,,,,2,64,0,,
52650,note_on,0,0,3,,,,,,,,,2,,,51,0
52650,note_on,30,0,3,,,,,,,,,2,,,54,0
52680,control_change,0,0,3,,,,,,,,,2,64,127,,
52680,note_on,30,0,3,,,,,,,,,2,,,57,0
52680,note_on,108,0,1,,,,,,,,,0,,,77,88
52680,note_on,0,0,1,,,,,,,,,0,,,86,88
52680,note_on,0,0,1,,,,,,,,,0,,,89,88
52680,note_on,0,0,3,,,,,,,,,2,,,46,75
52692,note_on,0,0,1,,,,,,,,,0,,,77,0
52692,note_on,0,0,1,,,,,,,,,0,,,86,0
52692,note_on,12,0,1,,,,,,,,,0,,,89,0
52710,note_on,30,0,3,,,,,,,,,2,,,46,0
52710,note_on,0,0,3,,,,,,,,,2,,,48,75
52740,note_on,0,0,3,,,,,,,,,2,,,50,75
52740,note_on,30,0,3,,,,,,,,,2,,,48,0
52770,note_on,0,0,3,,,,,,,,,2,,,51,75
52770,note_on,30,0,3,,,,,,,,,2,,,50,0
52800,note_on,30,0,3,,,,,,,,,2,,,51,0
52800,note_on,0,0,3,,,,,,,,,2,,,53,75
52830,note_on,0,0,3,,,,,,,,,2,,,55,75
52830,note_on,30,0,3,,,,,,,,,2,,,53,0
52860,note_on,30,0,3,,,,,,,,,2,,,55,0
52860,note_on,0,0,3,,,,,,,,,2,,,57,75
52890,note_on,30,0,3,,,,,,,,,2,,,57,0
52890,note_on,0,0,3,,,,,,,,,2,,,58,75
52920,note_on,30,0,3,,,,,,,,,2,,,58,0
52920,note_on,0,0,3,,,,,,,,,2,,,60,75
52950,note_on,30,0,3,,,,,,,,,2,,,60,0
52950,note_on,0,0,3,,,,,,,,,2,,,62,75
52980,note_on,30,0,3,,,,,,,,,2,,,62,0
52980,note_on,0,0,3,,,,,,,,,2,,,63,75
53010,control_change,0,0,3,,,,,,,,,2,64,0,,
53010,note_on,30,0,3,,,,,,,,,2,,,63,0
53010,note_on,0,0,3,,,,,,,,,2,,,65,75
53040,note_on,30,0,3,,,,,,,,,2,,,65,0
53040,control_change,0,0,3,,,,,,,,,2,64,127,,
53040,note_on,0,0,3,,,,,,,,,2,,,66,75
53040,control_change,348,0,1,,,,,,,,,0,64,127,,
53040,note_on,0,0,1,,,,,,,,,0,,,69,88
53040,note_on,0,0,3,,,,,,,,,2,,,58,75
53070,note_on,30,0,1,,,,,,,,,0,,,69,0
53070,note_on,0,0,1,,,,,,,,,0,,,81,88
53100,note_on,30,0,1,,,,,,,,,0,,,81,0
53100,note_on,0,0,1,,,,,,,,,0,,,80,88
53130,note_on,0,0,1,,,,,,,,,0,,,81,88
53130,note_on,30,0,1,,,,,,,,,0,,,80,0
53160,note_on,30,0,1,,,,,,,,,0,,,81,0
53160,note_on,120,0,3,,,,,,,,,2,,,66,0
53160,note_on,0,0,3,,,,,,,,,2,,,58,0
53160,note_on,0,0,3,,,,,,,,,2,,,58,75
53160,note_on,0,0,3,,,,,,,,,2,,,65,75
53160,note_on,0,0,1,,,,,,,,,0,,,69,88
53190,note_on,0,0,1,,,,,,,,,0,,,81,88
53190,note_on,30,0,1,,,,,,,,,0,,,69,0
53220,note_on,0,0,1,,,,,,,,,0,,,80,88
53220,note_on,30,0,1,,,,,,,,,0,,,81,0
53250,note_on,0,0,1,,,,,,,,,0,,,81,88
53250,note_on,30,0,1,,,,,,,,,0,,,80,0
53280,note_on,0,0,3,,,,,,,,,2,,,58,0
53280,note_on,0,0,3,,,,,,,,,2,,,63,75
53280,note_on,120,0,3,,,,,,,,,2,,,65,0
53280,note_on,0,0,1,,,,,,,,,0,,,69,88
53280,note_on,30,0,1,,,,,,,,,0,,,81,0
53280,control_change,0,0,3,,,,,,,,,2,64,0,,
53280,note_on,0,0,3,,,,,,,,,2,,,58,75
53310,note_on,30,0,1,,,,,,,,,0,,,69,0
53310,note_on,0,0,1,,,,,,,,,0,,,81,88
53340,note_on,30,0,1,,,,,,,,,0,,,81,0
53340,note_on,0,0,1,,,,,,,,,0,,,80,88
53370,note_on,0,0,1,,,,,,,,,0,,,81,88
53370,control_change,0,0,1,,,,,,,,,0,64,0,,
53370,note_on,30,0,1,,,,,,,,,0,,,80,0
53400,note_on,0,0,1,,,,,,,,,0,,,82,88
53400,note_on,0,0,1,,,,,,,,,0,,,70,88
53400,note_on,120,0,3,,,,,,,,,2,,,63,0
53400,note_on,0,0,3,,,,,,,,,2,,,58,0
53400,note_on,0,0,3,,,,,,,,,2,,,58,75
53400,control_change,0,0,1,,,,,,,,,0,64,127,,
53400,note_on,30,0,1,,,,,,,,,0,,,81,0
53400,note_on,0,0,3,,,,,,,,,2,,,62,75
53460,note_on,0,0,1,,,,,,,,,0,,,81,88
53460,note_on,0,0,1,,,,,,,,,0,,,70,0
53460,note_on,60,0,1,,,,,,,,,0,,,82,0
53490,note_on,30,0,1,,,,,,,,,0,,,81,0
53490,note_on,0,0,1,,,,,,,,,0,,,79,88
53520,note_on,0,0,3,,,,,,,,,2,,,58,0
53520,note_on,0,0,1,,,,,,,,,0,,,77,88
53520,note_on,120,0,3,,,,,,,,,2,,,62,0
53520,note_on,30,0,1,,,,,,,,,0,,,79,0
53550,note_on,30,0,1,,,,,,,,,0,,,77,0
53550,note_on,0,0,1,,,,,,,,,0,,,75,88
53580,note_on,30,0,1,,,,,,,,,0,,,75,0
53580,note_on,0,0,1,,,,,,,,,0,,,74,88
53610,note_on,30,0,1,,,,,,,,,0,,,74,0
53610,note_on,0,0,1,,,,,,,,,0,,,72,88
53640,note_on,0,0,1,,,,,,,,,0,,,70,88
53640,note_on,30,0,1,,,,,,,,,0,,,72,0
53646,note_on,6,0,1,,,,,,,,,0,,,70,0
53700,note_on,180,0,3,,,,,,,,,2,,,57,101
53700,note_on,0,0,1,,,,,,,,,0,,,69,114
53700,control_change,54,0,1,,,,,,,,,0,64,0,,
53706,note_on,6,0,3,,,,,,,,,2,,,57,0
53706,note_on,6,0,1,,,,,,,,,0,,,69,0
53760,note_on,0,0,1,,,,,,,,,0,,,70,88
53760,note_on,0,0,3,,,,,,,,,2,,,58,75
53760,control_change,54,0,3,,,,,,,,,2,64,127,,
53760,control_change,54,0,1,,,,,,,,,0,64,127,,
53820,note_on,60,0,1,,,,,,,,,0,,,70,0
53820,note_on,0,0,3,,,,,,,,,2,,,57,75
53820,note_on,0,0,1,,,,,,,,,0,,,69,88
53820,note_on,60,0,3,,,,,,,,,2,,,58,0
53850,note_on,30,0,3,,,,,,,,,2,,,57,0
53850,note_on,30,0,1,,,,,,,,,0,,,69,0
53850,note_on,0,0,1,,,,,,,,,0,,,67,88
53850,note_on,0,0,3,,,,,,,,,2,,,55,75
53880,note_on,30,0,1,,,,,,,,,0,,,67,0
53880,note_on,0,0,1,,,,,,,,,0,,,65,88
53880,note_on,0,0,3,,,,,,,,,2,,,53,75
53880,note_on,30,0,3,,,,,,,,,2,,,55,0
53910,note_on,0,0,1,,,,,,,,,0,,,63,88
53910,note_on,30,0,1,,,,,,,,,0,,,65,0
53910,note_on,30,0,3,,,,,,,,,2,,,53,0
53910,note_on,0,0,3,,,,,,,,,2,,,51,75
53940,note_on,30,0,3,,,,,,,,,2,,,51,0
53940,note_on,0,0,3,,,,,,,,,2,,,50,75
53940,note_on,0,0,1,,,,,,,,,0,,,62,88
53940,note_on,30,0,1,,,,,,,,,0,,,63,0
53970,note_on,30,0,1,,,,,,,,,0,,,62,0
53970,note_on,0,0,1,,,,,,,,,0,,,60,88
53970,note_on,0,0,3,,,,,,,,,2,,,48,75
53970,note_on,30,0,3,,,,,,,,,2,,,50,0
54000,note_on,30,0,3,,,,,,,,,2,,,48,0
54000,note_on,0,0,1,,,,,,,,,0,,,58,88
54000,note_on,30,0,1,,,,,,,,,0,,,60,0
54000,note_on,0,0,3,,,,,,,,,2,,,46,75
54006,note_on,6,0,1,,,,,,,,,0,,,58,0
54006,note_on,6,0,3,,,,,,,,,2,,,46,0
54060,control_change,54,0,1,,,,,,,,,0,64,0,,
54060,note_on,0,0,1,,,,,,,,,0,,,57,114
54060,control_change,54,0,3,,,,,,,,,2,64,0,,
54060,note_on,0,0,3,,,,,,,,,2,,,45,101
54066,note_on,6,0,3,,,,,,,,,2,,,45,0
54066,note_on,6,0,1,,,,,,,,,0,,,57,0
54120,note_on,54,0,3,,,,,,,,,2,,,46,101
54120,control_change,54,0,1,,,,,,,,,0,64,127,,
54120,note_on,0,0,1,,,,,,,,,0,,,58,88
54180,note_on,60,0,1,,,,,,,,,0,,,58,0
54180,note_on,0,0,1,,,,,,,,,0,,,60,88
54210,note_on,30,0,1,,,,,,,,,0,,,60,0
54210,note_on,0,0,1,,,,,,,,,0,,,62,88
54240,note_on,120,0,3,,,,,,,,,2,,,46,0
54240,note_on,30,0,1,,,,,,,,,0,,,62,0
54240,note_on,0,0,1,,,,,,,,,0,,,63,88
54270,note_on,0,0,1,,,,,,,,,0,,,65,88
54270,note_on,30,0,1,,,,,,,,,0,,,63,0
54300,note_on,30,0,1,,,,,,,,,0,,,65,0
54300,note_on,0,0,1,,,,,,,,,0,,,67,88
54330,note_on,30,0,1,,,,,,,,,0,,,67,0
54330,note_on,0,0,1,,,,,,,,,0,,,69,88
54360,note_on,30,0,1,,,,,,,,,0,,,69,0
54360,note_on,0,0,1,,,,,,,,,0,,,70,49
54366,note_on,6,0,1,,,,,,,,,0,,,70,0
54420,control_change,54,0,1,,,,,,,,,0,64,0,,
54420,note_on,0,0,1,,,,,,,,,0,,,69,49
54426,note_on,6,0,1,,,,,,,,,0,,,69,0
54480,note_on,54,0,1,,,,,,,,,0,,,70,49
54486,note_on,6,0,1,,,,,,,,,0,,,70,0
54540,note_on,54,0,1,,,,,,,,,0,,,69,49
54540,set_tempo,13740,1,0,,,,,,441176,,,,,,,
54546,note_on,6,0,1,,,,,,,,,0,,,69,0
54600,set_tempo,60,1,0,,,,,,468750,,,,,,,
54600,note_on,54,0,1,,,,,,,,,0,,,70,49
54606,note_on,6,0,1,,,,,,,,,0,,,70,0
54660,set_tempo,60,1,0,,,,,,500000,,,,,,,
54660,note_on,54,0,1,,,,,,,,,0,,,71,49
54666,note_on,6,0,1,,,,,,,,,0,,,71,0
54720,note_on,54,0,1,,,,,,,,,0,,,72,49
54720,set_tempo,60,1,0,,,,,,535714,,,,,,,
54726,note_on,6,0,1,,,,,,,,,0,,,72,0
54780,set_tempo,60,1,0,,,,,,576923,,,,,,,
54780,note_on,54,0,1,,,,,,,,,0,,,73,49
54786,note_on,6,0,1,,,,,,,,,0,,,73,0
54840,control_change,600,0,3,,,,,,,,,2,64,127,,
54840,control_change,54,0,1,,,,,,,,,0,64,127,,
54840,note_on,0,0,1,,,,,,,,,0,,,74,36
54840,note_on,0,0,3,,,,,,,,,2,,,46,36
54840,set_tempo,60,1,0,,,,,,441176,,,,,,,
54846,note_on,6,0,3,,,,,,,,,2,,,46,0
54900,note_on,0,0,3,,,,,,,,,2,,,62,36
54900,note_on,54,0,3,,,,,,,,,2,,,53,36
54900,set_tempo,60,1,0,,,,,,468750,,,,,,,
54906,note_on,6,0,3,,,,,,,,,2,,,62,0
54906,note_on,0,0,3,,,,,,,,,2,,,53,0
54960,note_on,0,0,3,,,,,,,,,2,,,62,36
54960,note_on,54,0,3,,,,,,,,,2,,,58,36
54960,set_tempo,60,1,0,,,,,,500000,,,,,,,
54966,note_on,6,0,3,,,,,,,,,2,,,62,0
54966,note_on,0,0,3,,,,,,,,,2,,,58,0
54990,note_on,150,0,1,,,,,,,,,0,,,74,36
55005,note_on,0,0,1,,,,,,,,,0,,,75,36
55005,note_on,15,0,1,,,,,,,,,0,,,74,0
55020,note_on,0,0,3,,,,,,,,,2,,,62,36
55020,note_on,54,0,3,,,,,,,,,2,,,53,36
55020,note_on,15,0,1,,,,,,,,,0,,,75,0
55020,note_on,0,0,1,,,,,,,,,0,,,74,0
55020,note_on,0,0,1,,,,,,,,,0,,,74,36
55026,note_on,0,0,3,,,,,,,,,2,,,53,0
55026,note_on,6,0,3,,,,,,,,,2,,,62,0
55080,note_on,60,0,1,,,,,,,,,0,,,74,0
55080,note_on,0,0,1,,,,,,,,,0,,,72,36
55080,note_on,54,0,3,,,,,,,,,2,,,58,36
55080,note_on,0,0,3,,,,,,,,,2,,,62,36
55086,note_on,6,0,3,,,,,,,,,2,,,62,0
55086,note_on,0,0,3,,,,,,,,,2,,,58,0
55140,control_change,54,0,3,,,,,,,,,2,64,0,,
55140,note_on,0,0,3,,,,,,,,,2,,,53,36
55140,note_on,0,0,3,,,,,,,,,2,,,62,36
55140,note_on,0,0,1,,,,,,,,,0,,,70,36
55140,note_on,60,0,1,,,,,,,,,0,,,72,0
55140,control_change,0,0,1,,,,,,,,,0,64,0,,
55146,note_on,0,0,3,,,,,,,,,2,,,53,0
55146,note_on,6,0,3,,,,,,,,,2,,,62,0
55185,note_on,45,0,1,,,,,,,,,0,,,70,36
55200,note_on,0,0,3,,,,,,,,,2,,,41,36
55200,control_change,54,0,3,,,,,,,,,2,64,127,,
55200,set_tempo,240,1,0,,,,,,416667,,,,,,,
55200,note_on,0,0,1,,,,,,,,,0,,,70,0
55200,note_on,0,0,1,,,,,,,,,0,,,77,36
55200,control_change,0,0,1,,,,,,,,,0,64,127,,
55200,note_on,15,0,1,,,,,,,,,0,,,70,0
55206,note_on,6,0,3,,,,,,,,,2,,,41,0
55260,note_on,60,0,1,,,,,,,,,0,,,77,0
55260,note_on,0,0,3,,,,,,,,,2,,,60,36
55260,note_on,0,0,1,,,,,,,,,0,,,76,36
55260,note_on,54,0,3,,,,,,,,,2,,,53,36
55266,note_on,6,0,3,,,,,,,,,2,,,60,0
55266,note_on,0,0,3,,,,,,,,,2,,,53,0
55320,note_on,54,0,3,,,,,,,,,2,,,57,36
55320,control_change,0,0,1,,,,,,,,,0,64,0,,
55320,note_on,0,0,1,,,,,,,,,0,,,75,36
55320,note_on,60,0,1,,,,,,,,,0,,,76,0
55320,note_on,0,0,3,,,,,,,,,2,,,60,36
55326,note_on,0,0,3,,,,,,,,,2,,,57,0
55326,note_on,6,0,3,,,,,,,,,2,,,60,0
55380,note_on,0,0,3,,,,,,,,,2,,,60,36
55380,note_on,54,0,3,,,,,,,,,2,,,53,36
55386,note_on,6,0,3,,,,,,,,,2,,,60,0
55386,note_on,0,0,3,,,,,,,,,2,,,53,0
55440,note_on,54,0,3,,,,,,,,,2,,,57,36
55440,note_on,120,0,1,,,,,,,,,0,,,75,0
55440,note_on,0,0,3,,,,,,,,,2,,,60,36
55446,note_on,6,0,3,,,,,,,,,2,,,60,0
55446,note_on,0,0,3,,,,,,,,,2,,,57,0
55500,control_change,54,0,3,,,,,,,,,2,64,0,,
55500,note_on,0,0,3,,,,,,,,,2,,,53,36
55500,note_on,0,0,3,,,,,,,,,2,,,60,36
55506,note_on,6,0,3,,,,,,,,,2,,,60,0
55506,note_on,0,0,3,,,,,,,,,2,,,53,0
55560,note_on,0,0,3,,,,,,,,,2,,,41,36
55560,note_on,0,0,1,,,,,,,,,0,,,75,36
55560,control_change,120,0,1,,,,,,,,,0,64,127,,
55560,control_change,54,0,3,,,,,,,,,2,64,127,,
55566,note_on,6,0,3,,,,,,,,,2,,,41,0
55620,note_on,0,0,3,,,,,,,,,2,,,60,36
55620,note_on,54,0,3,,,,,,,,,2,,,53,36
55626,note_on,0,0,3,,,,,,,,,2,,,53,0
55626,note_on,6,0,3,,,,,,,,,2,,,60,0
55680,note_on,0,0,3,,,,,,,,,2,,,60,36
55680,note_on,54,0,3,,,,,,,,,2,,,57,36
55686,note_on,6,0,3,,,,,,,,,2,,,60,0
55686,note_on,0,0,3,,,,,,,,,2,,,57,0
55710,note_on,150,0,1,,,,,,,,,0,,,75,36
55725,note_on,15,0,1,,,,,,,,,0,,,75,0
55725,note_on,0,0,1,,,,,,,,,0,,,77,36
55740,note_on,54,0,3,,,,,,,,,2,,,53,36
55740,note_on,0,0,3,,,,,,,,,2,,,60,36
55740,note_on,0,0,1,,,,,,,,,0,,,75,0
55740,note_on,15,0,1,,,,,,,,,0,,,77,0
55740,note_on,0,0,1,,,,,,,,,0,,,75,36
55746,note_on,6,0,3,,,,,,,,,2,,,60,0
55746,note_on,0,0,3,,,,,,,,,2,,,53,0
55800,note_on,0,0,3,,,,,,,,,2,,,62,36
55800,note_on,0,0,1,,,,,,,,,0,,,74,36
55800,note_on,60,0,1,,,,,,,,,0,,,75,0
55800,note_on,54,0,3,,,,,,,,,2,,,57,36
55806,note_on,6,0,3,,,,,,,,,2,,,62,0
55806,note_on,0,0,3,,,,,,,,,2,,,57,0
55860,note_on,0,0,1,,,,,,,,,0,,,72,36
55860,control_change,0,0,1,,,,,,,,,0,64,0,,
55860,note_on,60,0,1,,,,,,,,,0,,,74,0
55860,control_change,54,0,3,,,,,,,,,2,64,0,,
55860,note_on,0,0,3,,,,,,,,,2,,,63,36
55860,note_on,0,0,3,,,,,,,,,2,,,53,36
55866,note_on,0,0,3,,,,,,,,,2,,,53,0
55866,note_on,6,0,3,,,,,,,,,2,,,63,0
55905,note_on,45,0,1,,,,,,,,,0,,,72,36
55920,note_on,0,0,1,,,,,,,,,0,,,79,36
55920,control_change,0,0,1,,,,,,,,,0,64,127,,
55920,note_on,15,0,1,,,,,,,,,0,,,72,0
55920,note_on,0,0,1,,,,,,,,,0,,,72,0
55920,note_on,0,0,3,,,,,,,,,2,,,46,36
55920,control_change,54,0,3,,,,,,,,,2,64,127,,
55926,note_on,6,0,3,,,,,,,,,2,,,46,0
55980,note_on,54,0,3,,,,,,,,,2,,,57,36
55980,note_on,0,0,1,,,,,,,,,0,,,78,36
55980,note_on,60,0,1,,,,,,,,,0,,,79,0
55980,note_on,0,0,3,,,,,,,,,2,,,62,36
55986,note_on,6,0,3,,,,,,,,,2,,,62,0
55986,note_on,0,0,3,,,,,,,,,2,,,57,0
56040,note_on,60,0,1,,,,,,,,,0,,,78,0
56040,note_on,0,0,1,,,,,,,,,0,,,77,36
56040,note_on,0,0,3,,,,,,,,,2,,,62,36
56040,note_on,54,0,3,,,,,,,,,2,,,58,36
56040,control_change,0,0,1,,,,,,,,,0,64,0,,
56046,note_on,0,0,3,,,,,,,,,2,,,58,0
56046,note_on,6,0,3,,,,,,,,,2,,,62,0
56100,note_on,54,0,3,,,,,,,,,2,,,53,36
56100,note_on,0,0,3,,,,,,,,,2,,,62,36
56106,note_on,0,0,3,,,,,,,,,2,,,53,0
56106,note_on,6,0,3,,,,,,,,,2,,,62,0
56160,note_on,0,0,3,,,,,,,,,2,,,62,36
56160,note_on,120,0,1,,,,,,,,,0,,,77,0
56160,note_on,54,0,3,,,,,,,,,2,,,58,36
56166,note_on,0,0,3,,,,,,,,,2,,,58,0
56166,note_on,6,0,3,,,,,,,,,2,,,62,0
56220,note_on,0,0,3,,,,,,,,,2,,,62,36
56220,note_on,0,0,3,,,,,,,,,2,,,53,36
56220,control_change,54,0,3,,,,,,,,,2,64,0,,
56226,note_on,0,0,3,,,,,,,,,2,,,53,0
56226,note_on,6,0,3,,,,,,,,,2,,,62,0
56280,note_on,0,0,3,,,,,,,,,2,,,50,36
56280,control_change,54,0,3,,,,,,,,,2,64,127,,
56280,note_on,0,0,1,,,,,,,,,0,,,82,49
56280,control_change,120,0,1,,,,,,,,,0,64,127,,
56340,note_on,0,0,3,,,,,,,,,2,,,65,36
56340,note_on,0,0,3,,,,,,,,,2,,,58,36
56340,note_on,60,0,3,,,,,,,,,2,,,50,0
56400,note_on,0,0,3,,,,,,,,,2,,,65,36
56400,note_on,60,0,3,,,,,,,,,2,,,65,0
56400,note_on,0,0,3,,,,,,,,,2,,,68,36
56400,note_on,0,0,3,,,,,,,,,2,,,58,0
56460,note_on,180,0,1,,,,,,,,,0,,,82,0
56460,note_on,60,0,3,,,,,,,,,2,,,68,0
56460,note_on,0,0,3,,,,,,,,,2,,,65,0
56460,note_on,0,0,3,,,,,,,,,2,,,65,36
56460,note_on,0,0,1,,,,,,,,,0,,,84,49
56460,note_on,0,0,3,,,,,,,,,2,,,58,36
56490,note_on,30,0,1,,,,,,,,,0,,,84,0
56490,note_on,0,0,1,,,,,,,,,0,,,82,49
56520,note_on,30,0,1,,,,,,,,,0,,,82,0
56520,note_on,0,0,1,,,,,,,,,0,,,81,49
56520,note_on,0,0,3,,,,,,,,,2,,,68,36
56520,note_on,0,0,3,,,,,,,,,2,,,65,36
56520,note_on,0,0,3,,,,,,,,,2,,,58,0
56520,note_on,60,0,3,,,,,,,,,2,,,65,0
56580,note_on,60,0,1,,,,,,,,,0,,,81,0
56580,control_change,0,0,1,,,,,,,,,0,64,0,,
56580,note_on,0,0,1,,,,,,,,,0,,,80,49
56580,note_on,0,0,3,,,,,,,,,2,,,65,36
56580,note_on,0,0,3,,,,,,,,,2,,,65,0
56580,note_on,0,0,3,,,,,,,,,2,,,58,36
56580,control_change,0,0,3,,,,,,,,,2,64,0,,
56580,note_on,60,0,3,,,,,,,,,2,,,68,0
56640,note_on,0,0,3,,,,,,,,,2,,,58,0
56640,control_change,0,0,3,,,,,,,,,2,64,127,,
56640,control_change,0,0,1,,,,,,,,,0,64,127,,
56640,note_on,60,0,1,,,,,,,,,0,,,80,0
56640,note_on,60,0,3,,,,,,,,,2,,,65,0
56640,note_on,0,0,1,,,,,,,,,0,,,78,49
56640,note_on,0,0,3,,,,,,,,,2,,,51,36
56700,note_on,60,0,3,,,,,,,,,2,,,51,0
56700,note_on,0,0,3,,,,,,,,,2,,,63,36
56700,note_on,0,0,3,,,,,,,,,2,,,58,36
56730,note_on,90,0,1,,,,,,,,,0,,,78,0
56730,note_on,0,0,1,,,,,,,,,0,,,79,49
56760,note_on,60,0,3,,,,,,,,,2,,,63,0
56760,note_on,0,0,3,,,,,,,,,2,,,58,0
56760,note_on,0,0,3,,,,,,,,,2,,,63,36
56760,note_on,0,0,3,,,,,,,,,2,,,67,36
56760,note_on,30,0,1,,,,,,,,,0,,,79,0
56760,note_on,0,0,1,,,,,,,,,0,,,81,49
56820,note_on,0,0,3,,,,,,,,,2,,,59,36
56820,note_on,0,0,3,,,,,,,,,2,,,63,0
56820,note_on,60,0,3,,,,,,,,,2,,,67,0
56820,note_on,0,0,3,,,,,,,,,2,,,63,36
56850,note_on,90,0,1,,,,,,,,,0,,,81,0
56850,note_on,0,0,1,,,,,,,,,0,,,79,49
56880,note_on,60,0,3,,,,,,,,,2,,,63,0
56880,note_on,30,0,1,,,,,,,,,0,,,79,0
56880,note_on,0,0,1,,,,,,,,,0,,,77,36
56880,note_on,0,0,3,,,,,,,,,2,,,63,36
56880,note_on,0,0,3,,,,,,,,,2,,,60,36
56880,note_on,0,0,3,,,,,,,,,2,,,59,0
56910,note_on,30,0,1,,,,,,,,,0,,,77,0
56910,note_on,0,0,1,,,,,,,,,0,,,75,36
56940,note_on,30,0,1,,,,,,,,,0,,,75,0
56940,note_on,60,0,3,,,,,,,,,2,,,63,0
56940,note_on,0,0,3,,,,,,,,,2,,,60,0
56940,control_change,0,0,3,,,,,,,,,2,64,0,,
56940,note_on,0,0,3,,,,,,,,,2,,,63,36
56940,note_on,0,0,3,,,,,,,,,2,,,67,36
56940,note_on,0,0,1,,,,,,,,,0,,,74,36
56970,note_on,30,0,1,,,,,,,,,0,,,74,0
56970,control_change,0,0,1,,,,,,,,,0,64,0,,
56970,note_on,0,0,1,,,,,,,,,0,,,72,36
57000,note_on,60,0,3,,,,,,,,,2,,,67,0
57000,note_on,0,0,3,,,,,,,,,2,,,63,0
57000,control_change,0,0,3,,,,,,,,,2,64,127,,
57000,note_on,0,0,3,,,,,,,,,2,,,53,36
57000,control_change,0,0,1,,,,,,,,,0,64,127,,
57000,note_on,30,0,1,,,,,,,,,0,,,72,0
57000,note_on,0,0,1,,,,,,,,,0,,,70,36
57060,note_on,0,0,3,,,,,,,,,2,,,62,36
57060,note_on,0,0,3,,,,,,,,,2,,,58,36
57060,note_on,60,0,3,,,,,,,,,2,,,53,0
57090,note_on,0,0,1,,,,,,,,,0,,,72,36
57090,note_on,90,0,1,,,,,,,,,0,,,70,0
57120,note_on,0,0,3,,,,,,,,,2,,,65,36
57120,note_on,0,0,3,,,,,,,,,2,,,62,36
57120,note_on,60,0,3,,,,,,,,,2,,,62,0
57120,note_on,0,0,3,,,,,,,,,2,,,58,0
57120,note_on,0,0,1,,,,,,,,,0,,,74,36
57120,note_on,30,0,1,,,,,,,,,0,,,72,0
57180,note_on,0,0,3,,,,,,,,,2,,,62,36
57180,note_on,0,0,3,,,,,,,,,2,,,58,36
57180,note_on,60,0,3,,,,,,,,,2,,,65,0
57180,note_on,0,0,3,,,,,,,,,2,,,62,0
57210,note_on,0,0,1,,,,,,,,,0,,,75,36
57210,note_on,90,0,1,,,,,,,,,0,,,74,0
57240,note_on,0,0,1,,,,,,,,,0,,,76,36
57240,note_on,30,0,1,,,,,,,,,0,,,75,0
57240,note_on,0,0,3,,,,,,,,,2,,,65,36
57240,note_on,60,0,3,,,,,,,,,2,,,62,0
57240,note_on,0,0,3,,,,,,,,,2,,,58,0
57240,control_change,0,0,3,,,,,,,,,2,64,0,,
57240,note_on,0,0,3,,,,,,,,,2,,,63,36
57240,control_change,0,0,1,,,,,,,,,0,64,0,,
57300,note_on,0,0,3,,,,,,,,,2,,,57,36
57300,note_on,0,0,3,,,,,,,,,2,,,63,36
57300,note_on,60,0,3,,,,,,,,,2,,,65,0
57300,note_on,0,0,3,,,,,,,,,2,,,63,0
57330,note_on,90,0,1,,,,,,,,,0,,,76,0
57330,note_on,0,0,1,,,,,,,,,0,,,77,36
57360,note_on,30,0,1,,,,,,,,,0,,,77,0
57360,note_on,0,0,1,,,,,,,,,0,,,74,36
57360,control_change,0,0,1,,,,,,,,,0,64,127,,
57360,note_on,60,0,3,,,,,,,,,2,,,63,0
57360,note_on,0,0,3,,,,,,,,,2,,,57,0
57360,control_change,0,0,3,,,,,,,,,2,64,127,,
57360,note_on,0,0,3,,,,,,,,,2,,,46,36
57420,note_on,60,0,3,,,,,,,,,2,,,46,0
57420,note_on,0,0,3,,,,,,,,,2,,,58,36
57420,note_on,0,0,3,,,,,,,,,2,,,62,36
57480,note_on,120,0,1,,,,,,,,,0,,,74,0
57480,note_on,60,0,3,,,,,,,,,2,,,62,0
57480,note_on,0,0,3,,,,,,,,,2,,,58,0
57480,note_on,0,0,3,,,,,,,,,2,,,65,36
57480,note_on,0,0,3,,,,,,,,,2,,,62,36
57540,note_on,0,0,3,,,,,,,,,2,,,53,36
57540,note_on,60,0,3,,,,,,,,,2,,,65,0
57540,note_on,0,0,3,,,,,,,,,2,,,62,0
57540,note_on,0,0,3,,,,,,,,,2,,,62,36
57540,note_on,60,0,1,,,,,,,,,0,,,77,36
57570,note_on,0,0,1,,,,,,,,,0,,,76,36
57570,note_on,30,0,1,,,,,,,,,0,,,77,0
57600,note_on,0,0,3,,,,,,,,,2,,,61,36
57600,note_on,0,0,3,,,,,,,,,2,,,55,36
57600,control_change,0,0,3,,,,,,,,,2,64,0,,
57600,note_on,0,0,3,,,,,,,,,2,,,53,0
57600,note_on,60,0,3,,,,,,,,,2,,,62,0
57600,note_on,30,0,1,,,,,,,,,0,,,76,0
57600,control_change,0,0,1,,,,,,,,,0,64,0,,
57600,note_on,0,0,1,,,,,,,,,0,,,79,36
57630,note_on,30,0,1,,,,,,,,,0,,,79,0
57630,note_on,0,0,1,,,,,,,,,0,,,77,36
57660,note_on,60,0,3,,,,,,,,,2,,,61,0
57660,note_on,0,0,1,,,,,,,,,0,,,76,36
57660,note_on,0,0,3,,,,,,,,,2,,,55,0
57660,note_on,0,0,3,,,,,,,,,2,,,60,36
57660,note_on,0,0,3,,,,,,,,,2,,,57,36
57660,note_on,30,0,1,,,,,,,,,0,,,77,0
57690,note_on,0,0,1,,,,,,,,,0,,,75,36
57690,note_on,30,0,1,,,,,,,,,0,,,76,0
57720,note_on,0,0,3,,,,,,,,,2,,,57,0
57720,note_on,30,0,1,,,,,,,,,0,,,75,0
57720,note_on,0,0,1,,,,,,,,,0,,,74,36
57720,control_change,0,0,3,,,,,,,,,2,64,127,,
57720,set_tempo,2520,1,0,,,,,,416667,,,,,,,
57720,note_on,0,0,3,,,,,,,,,2,,,46,36
57720,note_on,60,0,3,,,,,,,,,2,,,60,0
57720,control_change,0,0,1,,,,,,,,,0,64,127,,
57726,note_on,6,0,3,,,,,,,,,2,,,46,0
57780,note_on,54,0,3,,,,,,,,,2,,,53,36
57780,note_on,0,0,3,,,,,,,,,2,,,62,36
57786,note_on,0,0,3,,,,,,,,,2,,,53,0
57786,note_on,6,0,3,,,,,,,,,2,,,62,0
57840,note_on,0,0,3,,,,,,,,,2,,,62,36
57840,note_on,54,0,3,,,,,,,,,2,,,58,36
57846,note_on,6,0,3,,,,,,,,,2,,,62,0
57846,note_on,0,0,3,,,,,,,,,2,,,58,0
57870,note_on,150,0,1,,,,,,,,,0,,,74,36
57885,note_on,15,0,1,,,,,,,,,0,,,74,0
57885,note_on,0,0,1,,,,,,,,,0,,,75,36
57900,note_on,0,0,1,,,,,,,,,0,,,74,0
57900,note_on,15,0,1,,,,,,,,,0,,,75,0
57900,note_on,0,0,3,,,,,,,,,2,,,62,36
57900,note_on,0,0,1,,,,,,,,,0,,,74,36
57900,note_on,54,0,3,,,,,,,,,2,,,53,36
57906,note_on,6,0,3,,,,,,,,,2,,,62,0
57906,note_on,0,0,3,,,,,,,,,2,,,53,0
57960,note_on,0,0,3,,,,,,,,,2,,,62,36
57960,note_on,54,0,3,,,,,,,,,2,,,58,36
57960,note_on,60,0,1,,,,,,,,,0,,,74,0
57960,note_on,0,0,1,,,,,,,,,0,,,72,36
57966,note_on,0,0,3,,,,,,,,,2,,,58,0
57966,note_on,6,0,3,,,,,,,,,2,,,62,0
58020,control_change,0,0,1,,,,,,,,,0,64,0,,
58020,note_on,0,0,1,,,,,,,,,0,,,70,36
58020,control_change,54,0,3,,,,,,,,,2,64,0,,
58020,note_on,0,0,3,,,,,,,,,2,,,53,36
58020,note_on,0,0,3,,,,,,,,,2,,,62,36
58020,note_on,60,0,1,,,,,,,,,0,,,72,0
58026,note_on,6,0,3,,,,,,,,,2,,,62,0
58026,note_on,0,0,3,,,,,,,,,2,,,53,0
58065,note_on,45,0,1,,,,,,,,,0,,,70,36
58080,note_on,0,0,3,,,,,,,,,2,,,41,36
58080,control_change,54,0,3,,,,,,,,,2,64,127,,
58080,note_on,0,0,1,,,,,,,,,0,,,77,36
58080,note_on,0,0,1,,,,,,,,,0,,,70,0
58080,note_on,15,0,1,,,,,,,,,0,,,70,0
58080,control_change,0,0,1,,,,,,,,,0,64,127,,
58086,note_on,6,0,3,,,,,,,,,2,,,41,0
58140,note_on,54,0,3,,,,,,,,,2,,,53,36
58140,note_on,60,0,1,,,,,,,,,0,,,77,0
58140,note_on,0,0,1,,,,,,,,,0,,,76,36
58140,note_on,0,0,3,,,,,,,,,2,,,60,36
58146,note_on,6,0,3,,,,,,,,,2,,,60,0
58146,note_on,0,0,3,,,,,,,,,2,,,53,0
58200,note_on,60,0,1,,,,,,,,,0,,,76,0
58200,note_on,54,0,3,,,,,,,,,2,,,57,36
58200,note_on,0,0,3,,,,,,,,,2,,,60,36
58200,control_change,0,0,1,,,,,,,,,0,64,0,,
58200,note_on,0,0,1,,,,,,,,,0,,,75,36
58206,note_on,6,0,3,,,,,,,,,2,,,60,0
58206,note_on,0,0,3,,,,,,,,,2,,,57,0
58260,note_on,54,0,3,,,,,,,,,2,,,53,36
58260,note_on,0,0,3,,,,,,,,,2,,,60,36
58266,note_on,6,0,3,,,,,,,,,2,,,60,0
58266,note_on,0,0,3,,,,,,,,,2,,,53,0
58320,note_on,54,0,3,,,,,,,,,2,,,57,36
58320,note_on,120,0,1,,,,,,,,,0,,,75,0
58320,note_on,0,0,3,,,,,,,,,2,,,60,36
58326,note_on,6,0,3,,,,,,,,,2,,,60,0
58326,note_on,0,0,3,,,,,,,,,2,,,57,0
58380,note_on,0,0,3,,,,,,,,,2,,,60,36
58380,note_on,0,0,3,,,,,,,,,2,,,53,36
58380,control_change,54,0,3,,,,,,,,,2,64,0,,
58386,note_on,6,0,3,,,,,,,,,2,,,60,0
58386,note_on,0,0,3,,,,,,,,,2,,,53,0
58440,note_on,0,0,3,,,,,,,,,2,,,41,36
58440,note_on,0,0,1,,,,,,,,,0,,,75,36
58440,control_change,120,0,1,,,,,,,,,0,64,127,,
58440,control_change,54,0,3,,,,,,,,,2,64,127,,
58446,note_on,6,0,3,,,,,,,,,2,,,41,0
58500,note_on,54,0,3,,,,,,,,,2,,,53,36
58500,note_on,0,0,3,,,,,,,,,2,,,60,36
58506,note_on,0,0,3,,,,,,,,,2,,,53,0
58506,note_on,6,0,3,,,,,,,,,2,,,60,0
58560,note_on,0,0,3,,,,,,,,,2,,,60,36
58560,note_on,54,0,3,,,,,,,,,2,,,57,36
58566,note_on,0,0,3,,,,,,,,,2,,,57,0
58566,note_on,6,0,3,,,,,,,,,2,,,60,0
58590,note_on,150,0,1,,,,,,,,,0,,,75,36
58605,note_on,0,0,1,,,,,,,,,0,,,77,36
58605,note_on,15,0,1,,,,,,,,,0,,,75,0
58620,note_on,54,0,3,,,,,,,,,2,,,53,36
58620,note_on,0,0,3,,,,,,,,,2,,,60,36
58620,note_on,15,0,1,,,,,,,,,0,,,77,0
58620,note_on,0,0,1,,,,,,,,,0,,,75,0
58620,note_on,0,0,1,,,,,,,,,0,,,75,36
58626,note_on,6,0,3,,,,,,,,,2,,,60,0
58626,note_on,0,0,3,,,,,,,,,2,,,53,0
58680,note_on,54,0,3,,,,,,,,,2,,,57,36
58680,note_on,0,0,3,,,,,,,,,2,,,62,36
58680,note_on,0,0,1,,,,,,,,,0,,,74,36
58680,note_on,60,0,1,,,,,,,,,0,,,75,0
58686,note_on,6,0,3,,,,,,,,,2,,,62,0
58686,note_on,0,0,3,,,,,,,,,2,,,57,0
58740,note_on,60,0,1,,,,,,,,,0,,,74,0
58740,control_change,54,0,3,,,,,,,,,2,64,0,,
58740,control_change,0,0,1,,,,,,,,,0,64,0,,
58740,note_on,0,0,3,,,,,,,,,2,,,63,36
58740,note_on,0,0,1,,,,,,,,,0,,,72,36
58740,note_on,0,0,3,,,,,,,,,2,,,53,36
58746,note_on,6,0,3,,,,,,,,,2,,,63,0
58746,note_on,0,0,3,,,,,,,,,2,,,53,0
58785,note_on,45,0,1,,,,,,,,,0,,,72,36
58800,control_change,0,0,1,,,,,,,,,0,64,127,,
58800,control_change,54,0,3,,,,,,,,,2,64,127,,
58800,note_on,0,0,3,,,,,,,,,2,,,46,36
58800,note_on,0,0,1,,,,,,,,,0,,,79,36
58800,note_on,15,0,1,,,,,,,,,0,,,72,0
58800,note_on,0,0,1,,,,,,,,,0,,,72,0
58806,note_on,6,0,3,,,,,,,,,2,,,46,0
58860,note_on,0,0,3,,,,,,,,,2,,,62,36
58860,note_on,60,0,1,,,,,,,,,0,,,79,0
58860,note_on,54,0,3,,,,,,,,,2,,,57,36
58860,note_on,0,0,1,,,,,,,,,0,,,78,36
58866,note_on,0,0,3,,,,,,,,,2,,,57,0
58866,note_on,6,0,3,,,,,,,,,2,,,62,0
58920,note_on,60,0,1,,,,,,,,,0,,,78,0
58920,note_on,0,0,1,,,,,,,,,0,,,77,36
58920,control_change,0,0,1,,,,,,,,,0,64,0,,
58920,note_on,0,0,3,,,,,,,,,2,,,62,36
58920,note_on,54,0,3,,,,,,,,,2,,,58,36
58926,note_on,0,0,3,,,,,,,,,2,,,58,0
58926,note_on,6,0,3,,,,,,,,,2,,,62,0
58980,note_on,0,0,3,,,,,,,,,2,,,62,36
58980,note_on,54,0,3,,,,,,,,,2,,,53,36
58986,note_on,0,0,3,,,,,,,,,2,,,53,0
58986,note_on,6,0,3,,,,,,,,,2,,,62,0
59040,note_on,54,0,3,,,,,,,,,2,,,58,36
59040,note_on,0,0,3,,,,,,,,,2,,,62,36
59040,note_on,120,0,1,,,,,,,,,0,,,77,0
59046,note_on,6,0,3,,,,,,,,,2,,,62,0
59046,note_on,0,0,3,,,,,,,,,2,,,58,0
59100,note_on,0,0,3,,,,,,,,,2,,,62,36
59100,control_change,54,0,3,,,,,,,,,2,64,0,,
59100,note_on,0,0,3,,,,,,,,,2,,,53,36
59106,note_on,0,0,3,,,,,,,,,2,,,53,0
59106,note_on,6,0,3,,,,,,,,,2,,,62,0
59160,control_change,54,0,3,,,,,,,,,2,64,127,,
59160,control_change,120,0,1,,,,,,,,,0,64,127,,
59160,note_on,0,0,1,,,,,,,,,0,,,82,49
59160,note_on,0,0,3,,,,,,,,,2,,,50,36
59220,note_on,60,0,3,,,,,,,,,2,,,50,0
59220,note_on,0,0,3,,,,,,,,,2,,,58,36
59220,note_on,0,0,3,,,,,,,,,2,,,65,36
59280,note_on,0,0,3,,,,,,,,,2,,,58,0
59280,note_on,0,0,3,,,,,,,,,2,,,65,36
59280,note_on,0,0,3,,,,,,,,,2,,,68,36
59280,note_on,60,0,3,,,,,,,,,2,,,65,0
59340,note_on,0,0,3,,,,,,,,,2,,,58,36
59340,note_on,0,0,3,,,,,,,,,2,,,65,36
59340,note_on,0,0,1,,,,,,,,,0,,,84,49
59340,note_on,180,0,1,,,,,,,,,0,,,82,0
59340,note_on,60,0,3,,,,,,,,,2,,,68,0
59340,note_on,0,0,3,,,,,,,,,2,,,65,0
59370,note_on,0,0,1,,,,,,,,,0,,,82,49
59370,note_on,30,0,1,,,,,,,,,0,,,84,0
59400,note_on,30,0,1,,,,,,,,,0,,,82,0
59400,note_on,0,0,3,,,,,,,,,2,,,58,0
59400,note_on,60,0,3,,,,,,,,,2,,,65,0
59400,note_on,0,0,3,,,,,,,,,2,,,65,36
59400,note_on,0,0,3,,,,,,,,,2,,,68,36
59400,note_on,0,0,1,,,,,,,,,0,,,81,49
59460,note_on,60,0,3,,,,,,,,,2,,,68,0
59460,note_on,0,0,3,,,,,,,,,2,,,65,36
59460,note_on,0,0,3,,,,,,,,,2,,,58,36
59460,control_change,0,0,3,,,,,,,,,2,64,0,,
59460,note_on,0,0,3,,,,,,,,,2,,,65,0
59460,note_on,0,0,1,,,,,,,,,0,,,80,49
59460,note_on,60,0,1,,,,,,,,,0,,,81,0
59460,control_change,0,0,1,,,,,,,,,0,64,0,,
59520,note_on,0,0,3,,,,,,,,,2,,,51,36
59520,note_on,0,0,3,,,,,,,,,2,,,58,0
59520,note_on,60,0,3,,,,,,,,,2,,,65,0
59520,note_on,60,0,1,,,,,,,,,0,,,80,0
59520,control_change,0,0,1,,,,,,,,,0,64,127,,
59520,note_on,0,0,1,,,,,,,,,0,,,78,49
59520,control_change,0,0,3,,,,,,,,,2,64,127,,
59580,note_on,0,0,3,,,,,,,,,2,,,63,36
59580,note_on,0,0,3,,,,,,,,,2,,,58,36
59580,note_on,60,0,3,,,,,,,,,2,,,51,0
59610,note_on,90,0,1,,,,,,,,,0,,,78,0
59610,note_on,0,0,1,,,,,,,,,0,,,79,49
59640,note_on,60,0,3,,,,,,,,,2,,,63,0
59640,note_on,0,0,3,,,,,,,,,2,,,67,36
59640,note_on,0,0,3,,,,,,,,,2,,,58,0
59640,note_on,0,0,3,,,,,,,,,2,,,63,36
59640,note_on,0,0,1,,,,,,,,,0,,,81,49
59640,note_on,30,0,1,,,,,,,,,0,,,79,0
59700,note_on,0,0,3,,,,,,,,,2,,,63,36
59700,note_on,0,0,3,,,,,,,,,2,,,59,36
59700,note_on,0,0,3,,,,,,,,,2,,,63,0
59700,note_on,60,0,3,,,,,,,,,2,,,67,0
59730,note_on,90,0,1,,,,,,,,,0,,,81,0
59730,note_on,0,0,1,,,,,,,,,0,,,79,49
59760,note_on,0,0,3,,,,,,,,,2,,,60,36
59760,note_on,60,0,3,,,,,,,,,2,,,63,0
59760,note_on,30,0,1,,,,,,,,,0,,,79,0
59760,note_on,0,0,1,,,,,,,,,0,,,77,36
59760,note_on,0,0,3,,,,,,,,,2,,,63,36
59760,note_on,0,0,3,,,,,,,,,2,,,59,0
59790,note_on,0,0,1,,,,,,,,,0,,,75,36
59790,note_on,30,0,1,,,,,,,,,0,,,77,0
59820,note_on,60,0,3,,,,,,,,,2,,,63,0
59820,note_on,0,0,1,,,,,,,,,0,,,74,36
59820,note_on,30,0,1,,,,,,,,,0,,,75,0
59820,note_on,0,0,3,,,,,,,,,2,,,60,0
59820,control_change,0,0,3,,,,,,,,,2,64,0,,
59820,note_on,0,0,3,,,,,,,,,2,,,63,36
59820,note_on,0,0,3,,,,,,,,,2,,,67,36
59850,note_on,0,0,1,,,,,,,,,0,,,72,36
59850,control_change,0,0,1,,,,,,,,,0,64,0,,
59850,note_on,30,0,1,,,,,,,,,0,,,74,0
59880,note_on,0,0,3,,,,,,,,,2,,,63,0
59880,note_on,60,0,3,,,,,,,,,2,,,67,0
59880,note_on,0,0,1,,,,,,,,,0,,,70,36
59880,control_change,0,0,1,,,,,,,,,0,64,127,,
59880,note_on,30,0,1,,,,,,,,,0,,,72,0
59880,note_on,0,0,3,,,,,,,,,2,,,53,36
59880,control_change,0,0,3,,,,,,,,,2,64,127,,
59940,note_on,60,0,3,,,,,,,,,2,,,53,0
59940,note_on,0,0,3,,,,,,,,,2,,,58,36
59940,note_on,0,0,3,,,,,,,,,2,,,62,36
59970,note_on,90,0,1,,,,,,,,,0,,,70,0
59970,note_on,0,0,1,,,,,,,,,0,,,72,36
60000,note_on,30,0,1,,,,,,,,,0,,,72,0
60000,note_on,0,0,1,,,,,,,,,0,,,74,36
60000,note_on,60,0,3,,,,,,,,,2,,,62,0
60000,note_on,0,0,3,,,,,,,,,2,,,58,0
60000,note_on,0,0,3,,,,,,,,,2,,,65,36
60000,note_on,0,0,3,,,,,,,,,2,,,62,36
60060,note_on,0,0,3,,,,,,,,,2,,,62,36
60060,note_on,0,0,3,,,,,,,,,2,,,58,36
60060,note_on,60,0,3,,,,,,,,,2,,,65,0
60060,note_on,0,0,3,,,,,,,,,2,,,62,0
60090,note_on,0,0,1,,,,,,,,,0,,,75,36
60090,note_on,90,0,1,,,,,,,,,0,,,74,0
60120,note_on,0,0,3,,,,,,,,,2,,,63,36
60120,control_change,0,0,3,,,,,,,,,2,64,0,,
60120,note_on,0,0,3,,,,,,,,,2,,,58,0
60120,note_on,60,0,3,,,,,,,,,2,,,62,0
60120,note_on,30,0,1,,,,,,,,,0,,,75,0
60120,control_change,0,0,1,,,,,,,,,0,64,0,,
60120,note_on,0,0,1,,,,,,,,,0,,,76,62
60120,note_on,0,0,3,,,,,,,,,2,,,65,36
60150,note_on,0,0,1,,,,,,,,,0,,,77,36
60150,note_on,30,0,1,,,,,,,,,0,,,76,0
60180,note_on,0,0,3,,,,,,,,,2,,,57,36
60180,note_on,60,0,3,,,,,,,,,2,,,65,0
60180,note_on,0,0,3,,,,,,,,,2,,,63,0
60180,note_on,0,0,3,,,,,,,,,2,,,63,36
60180,note_on,0,0,1,,,,,,,,,0,,,79,36
60180,note_on,30,0,1,,,,,,,,,0,,,77,0
60210,note_on,0,0,1,,,,,,,,,0,,,77,36
60210,note_on,30,0,1,,,,,,,,,0,,,79,0
60240,note_on,0,0,3,,,,,,,,,2,,,58,36
60240,note_on,30,0,1,,,,,,,,,0,,,77,0
60240,control_change,0,0,1,,,,,,,,,0,64,127,,
60240,note_on,0,0,1,,,,,,,,,0,,,70,36
60240,note_on,60,0,3,,,,,,,,,2,,,63,0
60240,note_on,0,0,3,,,,,,,,,2,,,57,0
60240,control_change,0,0,3,,,,,,,,,2,64,127,,
60240,note_on,0,0,3,,,,,,,,,2,,,62,36
60300,note_on,60,0,1,,,,,,,,,0,,,70,0
60300,note_on,0,0,3,,,,,,,,,2,,,58,0
60300,note_on,0,0,3,,,,,,,,,2,,,70,75
60300,note_on,0,0,1,,,,,,,,,0,,,82,88
60300,note_on,60,0,3,,,,,,,,,2,,,62,0
60330,note_on,30,0,3,,,,,,,,,2,,,70,0
60330,note_on,0,0,3,,,,,,,,,2,,,72,75
60330,note_on,0,0,1,,,,,,,,,0,,,84,88
60330,note_on,30,0,1,,,,,,,,,0,,,82,0
60360,note_on,0,0,1,,,,,,,,,0,,,86,88
60360,note_on,30,0,1,,,,,,,,,0,,,84,0
60360,note_on,0,0,3,,,,,,,,,2,,,74,75
60360,note_on,30,0,3,,,,,,,,,2,,,72,0
60390,note_on,30,0,3,,,,,,,,,2,,,74,0
60390,note_on,0,0,3,,,,,,,,,2,,,72,75
60390,note_on,0,0,1,,,,,,,,,0,,,84,88
60390,note_on,30,0,1,,,,,,,,,0,,,86,0
60420,note_on,30,0,3,,,,,,,,,2,,,72,0
60420,note_on,0,0,3,,,,,,,,,2,,,70,75
60420,note_on,30,0,1,,,,,,,,,0,,,84,0
60420,note_on,0,0,1,,,,,,,,,0,,,82,88
60450,note_on,0,0,1,,,,,,,,,0,,,81,88
60450,note_on,30,0,1,,,,,,,,,0,,,82,0
60450,note_on,0,0,3,,,,,,,,,2,,,69,75
60450,note_on,30,0,3,,,,,,,,,2,,,70,0
60480,note_on,0,0,1,,,,,,,,,0,,,79,88
60480,note_on,30,0,1,,,,,,,,,0,,,81,0
60480,note_on,0,0,3,,,,,,,,,2,,,67,75
60480,note_on,30,0,3,,,,,,,,,2,,,69,0
60510,note_on,30,0,1,,,,,,,,,0,,,79,0
60510,note_on,30,0,3,,,,,,,,,2,,,67,0
60510,note_on,0,0,1,,,,,,,,,0,,,77,88
60510,note_on,0,0,3,,,,,,,,,2,,,65,75
60540,note_on,0,0,1,,,,,,,,,0,,,75,88
60540,note_on,30,0,1,,,,,,,,,0,,,77,0
60540,note_on,0,0,3,,,,,,,,,2,,,63,75
60540,note_on,30,0,3,,,,,,,,,2,,,65,0
60570,note_on,0,0,1,,,,,,,,,0,,,74,88
60570,note_on,30,0,3,,,,,,,,,2,,,63,0
60570,note_on,30,0,1,,,,,,,,,0,,,75,0
60570,note_on,0,0,3,,,,,,,,,2,,,62,75
60600,note_on,0,0,3,,,,,,,,,2,,,60,75
60600,note_on,30,0,3,,,,,,,,,2,,,62,0
60600,note_on,0,0,1,,,,,,,,,0,,,72,88
60600,note_on,30,0,1,,,,,,,,,0,,,74,0
60630,note_on,30,0,1,,,,,,,,,0,,,72,0
60630,note_on,0,0,3,,,,,,,,,2,,,58,75
60630,note_on,30,0,3,,,,,,,,,2,,,60,0
60630,note_on,0,0,1,,,,,,,,,0,,,70,88
60660,note_on,30,0,1,,,,,,,,,0,,,70,0
60660,note_on,0,0,1,,,,,,,,,0,,,69,88
60660,note_on,0,0,3,,,,,,,,,2,,,57,75
60660,note_on,30,0,3,,,,,,,,,2,,,58,0
60690,note_on,30,0,1,,,,,,,,,0,,,69,0
60690,note_on,0,0,1,,,,,,,,,0,,,67,88
60690,note_on,0,0,3,,,,,,,,,2,,,55,75
60690,note_on,30,0,3,,,,,,,,,2,,,57,0
60720,note_on,30,0,1,,,,,,,,,0,,,67,0
60720,note_on,0,0,1,,,,,,,,,0,,,65,88
60720,note_on,30,0,3,,,,,,,,,2,,,55,0
60720,note_on,0,0,3,,,,,,,,,2,,,53,75
60750,note_on,30,0,3,,,,,,,,,2,,,53,0
60750,note_on,0,0,1,,,,,,,,,0,,,63,88
60750,note_on,0,0,3,,,,,,,,,2,,,51,75
60750,note_on,30,0,1,,,,,,,,,0,,,65,0
60780,note_on,30,0,1,,,,,,,,,0,,,63,0
60780,note_on,0,0,1,,,,,,,,,0,,,62,88
60780,note_on,30,0,3,,,,,,,,,2,,,51,0
60780,note_on,0,0,3,,,,,,,,,2,,,50,75
60810,note_on,30,0,1,,,,,,,,,0,,,62,0
60810,note_on,0,0,1,,,,,,,,,0,,,60,88
60810,note_on,0,0,3,,,,,,,,,2,,,48,75
60810,note_on,30,0,3,,,,,,,,,2,,,50,0
60840,note_on,30,0,1,,,,,,,,,0,,,60,0
60840,note_on,0,0,1,,,,,,,,,0,,,58,88
60840,note_on,0,0,3,,,,,,,,,2,,,46,75
60840,note_on,30,0,3,,,,,,,,,2,,,48,0
60870,note_on,0,0,3,,,,,,,,,2,,,45,75
60870,note_on,30,0,3,,,,,,,,,2,,,46,0
60870,note_on,30,0,1,,,,,,,,,0,,,58,0
60870,note_on,0,0,1,,,,,,,,,0,,,57,88
60900,note_on,0,0,1,,,,,,,,,0,,,55,88
60900,note_on,30,0,1,,,,,,,,,0,,,57,0
60900,note_on,0,0,3,,,,,,,,,2,,,43,75
60900,note_on,30,0,3,,,,,,,,,2,,,45,0
60930,note_on,30,0,1,,,,,,,,,0,,,55,0
60930,note_on,30,0,3,,,,,,,,,2,,,43,0
60930,note_on,0,0,1,,,,,,,,,0,,,53,88
60930,control_change,0,0,1,,,,,,,,,0,64,0,,
60930,note_on,0,0,3,,,,,,,,,2,,,41,75
60930,control_change,0,0,3,,,,,,,,,2,64,0,,
60960,note_on,0,0,1,,,,,,,,,0,,,52,88
60960,note_on,30,0,1,,,,,,,,,0,,,53,0
60960,note_on,30,0,3,,,,,,,,,2,,,41,0
60960,note_on,0,0,3,,,,,,,,,2,,,40,75
61020,note_on,60,0,3,,,,,,,,,2,,,40,0
61020,note_on,60,0,1,,,,,,,,,0,,,52,0
61080,note_on,0,0,3,,,,,,,,,2,,,60,101
61080,note_on,0,0,3,,,,,,,,,2,,,64,101
61080,note_on,60,0,1,,,,,,,,,0,,,72,114
61080,note_on,0,0,1,,,,,,,,,0,,,79,114
61080,note_on,0,0,1,,,,,,,,,0,,,82,114
61080,note_on,0,0,1,,,,,,,,,0,,,84,114
61080,note_on,60,0,3,,,,,,,,,2,,,52,101
61200,note_on,0,0,3,,,,,,,,,2,,,52,0
61200,note_on,0,0,3,,,,,,,,,2,,,60,0
61200,note_on,120,0,3,,,,,,,,,2,,,64,0
61200,note_on,120,0,1,,,,,,,,,0,,,84,0
61200,note_on,0,0,1,,,,,,,,,0,,,82,0
61200,note_on,0,0,1,,,,,,,,,0,,,79,0
61200,note_on,0,0,1,,,,,,,,,0,,,72,0
61320,note_on,0,0,3,,,,,,,,,2,,,52,36
61320,note_on,0,0,3,,,,,,,,,2,,,58,36
61320,note_on,0,0,3,,,,,,,,,2,,,55,36
61320,control_change,120,0,3,,,,,,,,,2,64,127,,
61320,note_on,0,0,3,,,,,,,,,2,,,60,36
61320,control_change,120,0,1,,,,,,,,,0,64,127,,
61380,note_on,0,0,3,,,,,,,,,2,,,52,0
61380,note_on,0,0,3,,,,,,,,,2,,,55,0
61380,note_on,0,0,3,,,,,,,,,2,,,58,0
61380,note_on,60,0,3,,,,,,,,,2,,,60,0
61380,note_on,60,0,1,,,,,,,,,0,,,72,49
61425,note_on,45,0,1,,,,,,,,,0,,,75,49
61440,note_on,0,0,3,,,,,,,,,2,,,60,36
61440,note_on,60,0,3,,,,,,,,,2,,,52,36
61440,note_on,0,0,3,,,,,,,,,2,,,55,36
61440,note_on,0,0,3,,,,,,,,,2,,,58,36
61440,note_on,15,0,1,,,,,,,,,0,,,75,0
61440,note_on,0,0,1,,,,,,,,,0,,,73,49
61440,note_on,0,0,1,,,,,,,,,0,,,72,0
61500,note_on,0,0,1,,,,,,,,,0,,,72,49
61500,note_on,0,0,3,,,,,,,,,2,,,55,0
61500,note_on,0,0,3,,,,,,,,,2,,,52,0
61500,note_on,60,0,3,,,,,,,,,2,,,60,0
61500,note_on,60,0,1,,,,,,,,,0,,,73,0
61500,note_on,0,0,3,,,,,,,,,2,,,58,0
61545,note_on,45,0,1,,,,,,,,,0,,,75,49
61560,note_on,15,0,1,,,,,,,,,0,,,75,0
61560,note_on,0,0,1,,,,,,,,,0,,,72,0
61560,note_on,0,0,1,,,,,,,,,0,,,73,49
61560,note_on,0,0,3,,,,,,,,,2,,,60,36
61560,note_on,0,0,3,,,,,,,,,2,,,55,36
61560,note_on,0,0,3,,,,,,,,,2,,,58,36
61560,note_on,60,0,3,,,,,,,,,2,,,52,36
61620,note_on,60,0,3,,,,,,,,,2,,,60,0
61620,note_on,0,0,3,,,,,,,,,2,,,52,0
61620,note_on,0,0,3,,,,,,,,,2,,,55,0
61620,note_on,0,0,3,,,,,,,,,2,,,58,0
61620,control_change,0,0,3,,,,,,,,,2,64,0,,
61620,note_on,60,0,1,,,,,,,,,0,,,73,0
61620,note_on,0,0,1,,,,,,,,,0,,,72,49
61620,control_change,0,0,1,,,,,,,,,0,64,0,,
61680,control_change,0,0,1,,,,,,,,,0,64,127,,
61680,note_on,0,0,3,,,,,,,,,2,,,53,36
61680,control_change,60,0,3,,,,,,,,,2,64,127,,
61680,note_on,60,0,1,,,,,,,,,0,,,72,0
61680,note_on,0,0,1,,,,,,,,,0,,,73,49
61680,note_on,0,0,3,,,,,,,,,2,,,58,36
61680,note_on,0,0,3,,,,,,,,,2,,,61,36
61740,note_on,0,0,3,,,,,,,,,2,,,58,0
61740,note_on,60,0,3,,,,,,,,,2,,,61,0
61740,note_on,0,0,1,,,,,,,,,0,,,77,49
61740,note_on,60,0,1,,,,,,,,,0,,,73,0
61740,note_on,0,0,3,,,,,,,,,2,,,53,0
61746,note_on,6,0,1,,,,,,,,,0,,,77,0
61800,note_on,60,0,3,,,,,,,,,2,,,53,36
61800,note_on,0,0,3,,,,,,,,,2,,,58,36
61800,note_on,0,0,3,,,,,,,,,2,,,61,36
61860,note_on,114,0,1,,,,,,,,,0,,,77,49
61860,note_on,60,0,3,,,,,,,,,2,,,61,0
61860,note_on,0,0,3,,,,,,,,,2,,,58,0
61860,note_on,0,0,3,,,,,,,,,2,,,53,0
61905,note_on,45,0,1,,,,,,,,,0,,,80,49
61920,note_on,60,0,3,,,,,,,,,2,,,53,36
61920,note_on,0,0,3,,,,,,,,,2,,,61,36
61920,note_on,0,0,1,,,,,,,,,0,,,77,0
61920,note_on,0,0,1,,,,,,,,,0,,,78,49
61920,note_on,0,0,3,,,,,,,,,2,,,58,36
61920,note_on,15,0,1,,,,,,,,,0,,,80,0
61980,note_on,60,0,1,,,,,,,,,0,,,78,0
61980,control_change,0,0,1,,,,,,,,,0,64,0,,
61980,note_on,0,0,1,,,,,,,,,0,,,77,49
61980,control_change,0,0,3,,,,,,,,,2,64,0,,
61980,note_on,60,0,3,,,,,,,,,2,,,61,0
61980,note_on,0,0,3,,,,,,,,,2,,,58,0
61980,note_on,0,0,3,,,,,,,,,2,,,53,0
62040,note_on,0,0,3,,,,,,,,,2,,,58,49
62040,note_on,0,0,3,,,,,,,,,2,,,54,49
62040,note_on,0,0,1,,,,,,,,,0,,,82,62
62040,note_on,60,0,1,,,,,,,,,0,,,77,0
62040,control_change,60,0,3,,,,,,,,,2,64,127,,
62040,control_change,0,0,1,,,,,,,,,0,64,127,,
62040,note_on,0,0,3,,,,,,,,,2,,,61,49
62100,note_on,0,0,3,,,,,,,,,2,,,54,0
62100,note_on,0,0,3,,,,,,,,,2,,,58,0
62100,note_on,60,0,3,,,,,,,,,2,,,61,0
62100,note_on,60,0,1,,,,,,,,,0,,,82,0
62100,note_on,0,0,1,,,,,,,,,0,,,76,62
62106,note_on,6,0,1,,,,,,,,,0,,,76,0
62160,note_on,0,0,3,,,,,,,,,2,,,61,49
62160,note_on,0,0,3,,,,,,,,,2,,,58,49
62160,note_on,60,0,3,,,,,,,,,2,,,54,49
62220,note_on,0,0,3,,,,,,,,,2,,,54,0
62220,note_on,0,0,3,,,,,,,,,2,,,58,0
62220,note_on,60,0,3,,,,,,,,,2,,,61,0
62220,note_on,114,0,1,,,,,,,,,0,,,76,49
62265,note_on,45,0,1,,,,,,,,,0,,,78,49
62280,note_on,0,0,3,,,,,,,,,2,,,58,36
62280,note_on,0,0,1,,,,,,,,,0,,,77,49
62280,note_on,0,0,1,,,,,,,,,0,,,76,0
62280,note_on,15,0,1,,,,,,,,,0,,,78,0
62280,note_on,60,0,3,,,,,,,,,2,,,55,36
62280,note_on,0,0,3,,,,,,,,,2,,,61,36
62340,control_change,0,0,1,,,,,,,,,0,64,0,,
62340,note_on,0,0,1,,,,,,,,,0,,,76,49
62340,note_on,60,0,1,,,,,,,,,0,,,77,0
62340,note_on,0,0,3,,,,,,,,,2,,,58,0
62340,note_on,0,0,3,,,,,,,,,2,,,55,0
62340,control_change,0,0,3,,,,,,,,,2,64,0,,
62340,note_on,60,0,3,,,,,,,,,2,,,61,0
62400,note_on,0,0,1,,,,,,,,,0,,,77,49
62400,control_change,0,0,1,,,,,,,,,0,64,127,,
62400,control_change,60,0,3,,,,,,,,,2,64,127,,
62400,note_on,0,0,3,,,,,,,,,2,,,56,36
62400,note_on,0,0,3,,,,,,,,,2,,,65,36
62400,note_on,0,0,3,,,,,,,,,2,,,61,36
62400,note_on,60,0,1,,,,,,,,,0,,,76,0
62460,note_on,0,0,3,,,,,,,,,2,,,61,0
62460,note_on,0,0,3,,,,,,,,,2,,,56,0
62460,note_on,60,0,1,,,,,,,,,0,,,77,0
62460,note_on,60,0,3,,,,,,,,,2,,,65,0
62460,note_on,0,0,1,,,,,,,,,0,,,80,49
62466,note_on,6,0,1,,,,,,,,,0,,,80,0
62520,note_on,60,0,3,,,,,,,,,2,,,56,36
62520,note_on,0,0,3,,,,,,,,,2,,,61,36
62520,note_on,0,0,3,,,,,,,,,2,,,65,36
62580,note_on,114,0,1,,,,,,,,,0,,,80,49
62580,note_on,0,0,3,,,,,,,,,2,,,56,0
62580,note_on,0,0,3,,,,,,,,,2,,,61,0
62580,note_on,60,0,3,,,,,,,,,2,,,65,0
62625,control_change,45,0,1,,,,,,,,,0,64,0,,
62625,note_on,0,0,1,,,,,,,,,0,,,84,49
62640,control_change,60,0,3,,,,,,,,,2,64,0,,
62640,note_on,0,0,3,,,,,,,,,2,,,66,36
62640,note_on,0,0,3,,,,,,,,,2,,,60,36
62640,note_on,15,0,1,,,,,,,,,0,,,84,0
62640,note_on,0,0,1,,,,,,,,,0,,,80,0
62640,note_on,0,0,3,,,,,,,,,2,,,56,36
62640,note_on,0,0,1,,,,,,,,,0,,,82,49
62700,note_on,0,0,1,,,,,,,,,0,,,80,49
62700,note_on,60,0,1,,,,,,,,,0,,,82,0
62700,note_on,0,0,3,,,,,,,,,2,,,56,0
62700,note_on,0,0,3,,,,,,,,,2,,,60,0
62700,note_on,60,0,3,,,,,,,,,2,,,66,0
62760,note_on,60,0,1,,,,,,,,,0,,,80,0
62760,note_on,0,0,1,,,,,,,,,0,,,77,62
62760,note_on,0,0,3,,,,,,,,,2,,,61,75
62760,note_on,0,0,1,,,,,,,,,0,,,73,62
62760,control_change,0,0,1,,,,,,,,,0,64,127,,
62760,control_change,60,0,3,,,,,,,,,2,64,127,,
62760,note_on,0,0,3,,,,,,,,,2,,,65,75
62790,note_on,30,0,1,,,,,,,,,0,,,77,0
62790,note_on,0,0,1,,,,,,,,,0,,,73,0
62790,note_on,0,0,1,,,,,,,,,0,,,80,62
62820,note_on,30,0,1,,,,,,,,,0,,,80,0
62820,note_on,0,0,1,,,,,,,,,0,,,68,62
62850,note_on,30,0,1,,,,,,,,,0,,,68,0
62850,note_on,0,0,1,,,,,,,,,0,,,80,62
62880,note_on,0,0,1,,,,,,,,,0,,,77,62
62880,note_on,120,0,3,,,,,,,,,2,,,65,0
62880,note_on,0,0,3,,,,,,,,,2,,,61,0
62880,note_on,30,0,1,,,,,,,,,0,,,80,0
62880,note_on,0,0,1,,,,,,,,,0,,,73,62
62910,note_on,0,0,1,,,,,,,,,0,,,80,62
62910,note_on,30,0,1,,,,,,,,,0,,,77,0
62910,note_on,0,0,1,,,,,,,,,0,,,73,0
62940,note_on,0,0,1,,,,,,,,,0,,,68,62
62940,note_on,30,0,1,,,,,,,,,0,,,80,0
62940,note_on,60,0,3,,,,,,,,,2,,,49,75
62970,note_on,0,0,1,,,,,,,,,0,,,80,62
62970,note_on,30,0,1,,,,,,,,,0,,,68,0
62985,note_on,45,0,3,,,,,,,,,2,,,53,75
63000,note_on,0,0,1,,,,,,,,,0,,,77,62
63000,note_on,0,0,1,,,,,,,,,0,,,73,62
63000,note_on,30,0,1,,,,,,,,,0,,,80,0
63000,note_on,0,0,3,,,,,,,,,2,,,49,0
63000,note_on,0,0,3,,,,,,,,,2,,,51,75
63000,note_on,15,0,3,,,,,,,,,2,,,53,0
63030,note_on,0,0,1,,,,,,,,,0,,,80,62
63030,note_on,0,0,1,,,,,,,,,0,,,73,0
63030,note_on,30,0,1,,,,,,,,,0,,,77,0
63060,note_on,30,0,1,,,,,,,,,0,,,80,0
63060,note_on,0,0,1,,,,,,,,,0,,,68,62
63060,note_on,60,0,3,,,,,,,,,2,,,51,0
63060,control_change,0,0,3,,,,,,,,,2,64,0,,
63060,note_on,0,0,3,,,,,,,,,2,,,49,75
63090,note_on,30,0,1,,,,,,,,,0,,,68,0
63090,control_change,0,0,1,,,,,,,,,0,64,0,,
63090,note_on,0,0,1,,,,,,,,,0,,,80,62
63120,note_on,0,0,1,,,,,,,,,0,,,78,62
63120,note_on,0,0,1,,,,,,,,,0,,,75,62
63120,control_change,0,0,1,,,,,,,,,0,64,127,,
63120,note_on,30,0,1,,,,,,,,,0,,,80,0
63120,control_change,0,0,3,,,,,,,,,2,64,127,,
63120,note_on,60,0,3,,,,,,,,,2,,,49,0
63120,note_on,0,0,3,,,,,,,,,2,,,48,75
63150,note_on,0,0,1,,,,,,,,,0,,,75,0
63150,note_on,30,0,1,,,,,,,,,0,,,78,0
63150,note_on,0,0,1,,,,,,,,,0,,,80,62
63180,note_on,60,0,3,,,,,,,,,2,,,48,0
63180,note_on,0,0,3,,,,,,,,,2,,,56,101
63180,note_on,0,0,1,,,,,,,,,0,,,68,62
63180,note_on,30,0,1,,,,,,,,,0,,,80,0
63210,note_on,0,0,1,,,,,,,,,0,,,80,62
63210,note_on,30,0,1,,,,,,,,,0,,,68,0
63240,note_on,30,0,1,,,,,,,,,0,,,80,0
63240,note_on,0,0,1,,,,,,,,,0,,,78,62
63240,note_on,0,0,1,,,,,,,,,0,,,75,62
63270,note_on,30,0,1,,,,,,,,,0,,,78,0
63270,note_on,0,0,1,,,,,,,,,0,,,80,62
63270,note_on,0,0,1,,,,,,,,,0,,,75,0
63300,note_on,0,0,1,,,,,,,,,0,,,68,62
63300,note_on,0,0,3,,,,,,,,,2,,,54,75
63300,note_on,120,0,3,,,,,,,,,2,,,56,0
63300,note_on,30,0,1,,,,,,,,,0,,,80,0
63330,note_on,0,0,1,,,,,,,,,0,,,80,62
63330,note_on,30,0,1,,,,,,,,,0,,,68,0
63360,note_on,60,0,3,,,,,,,,,2,,,54,0
63360,note_on,0,0,1,,,,,,,,,0,,,77,62
63360,note_on,0,0,1,,,,,,,,,0,,,73,62
63360,note_on,30,0,1,,,,,,,,,0,,,80,0
63360,note_on,0,0,3,,,,,,,,,2,,,53,75
63390,note_on,0,0,1,,,,,,,,,0,,,80,62
63390,note_on,0,0,1,,,,,,,,,0,,,73,0
63390,note_on,30,0,1,,,,,,,,,0,,,77,0
63420,note_on,30,0,1,,,,,,,,,0,,,80,0
63420,note_on,60,0,3,,,,,,,,,2,,,53,0
63420,control_change,0,0,3,,,,,,,,,2,64,0,,
63420,note_on,0,0,1,,,,,,,,,0,,,72,62
63420,note_on,0,0,1,,,,,,,,,0,,,78,62
63420,note_on,0,0,3,,,,,,,,,2,,,51,75
63450,control_change,0,0,1,,,,,,,,,0,64,0,,
63450,note_on,0,0,1,,,,,,,,,0,,,80,62
63450,note_on,0,0,1,,,,,,,,,0,,,72,0
63450,note_on,30,0,1,,,,,,,,,0,,,78,0
63480,note_on,30,0,1,,,,,,,,,0,,,80,0
63480,note_on,0,0,1,,,,,,,,,0,,,73,62
63480,control_change,0,0,1,,,,,,,,,0,64,127,,
63480,note_on,60,0,3,,,,,,,,,2,,,51,0
63480,control_change,0,0,3,,,,,,,,,2,64,127,,
63480,note_on,0,0,3,,,,,,,,,2,,,49,75
63480,note_on,0,0,1,,,,,,,,,0,,,77,62
63510,note_on,0,0,1,,,,,,,,,0,,,80,62
63510,note_on,30,0,1,,,,,,,,,0,,,77,0
63510,note_on,0,0,1,,,,,,,,,0,,,73,0
63540,note_on,30,0,1,,,,,,,,,0,,,80,0
63540,note_on,60,0,3,,,,,,,,,2,,,49,0
63540,note_on,0,0,3,,,,,,,,,2,,,37,75
63540,note_on,0,0,1,,,,,,,,,0,,,68,62
63546,note_on,6,0,3,,,,,,,,,2,,,37,0
63570,note_on,0,0,1,,,,,,,,,0,,,80,62
63570,note_on,30,0,1,,,,,,,,,0,,,68,0
63600,note_on,30,0,1,,,,,,,,,0,,,80,0
63600,note_on,0,0,1,,,,,,,,,0,,,73,62
63600,note_on,0,0,1,,,,,,,,,0,,,77,62
63630,note_on,0,0,1,,,,,,,,,0,,,80,62
63630,note_on,30,0,1,,,,,,,,,0,,,77,0
63630,note_on,0,0,1,,,,,,,,,0,,,73,0
63660,note_on,30,0,1,,,,,,,,,0,,,80,0
63660,note_on,0,0,1,,,,,,,,,0,,,68,62
63660,note_on,114,0,3,,,,,,,,,2,,,49,75
63690,note_on,0,0,1,,,,,,,,,0,,,80,62
63690,note_on,30,0,1,,,,,,,,,0,,,68,0
63705,note_on,45,0,3,,,,,,,,,2,,,53,75
63720,note_on,30,0,1,,,,,,,,,0,,,80,0
63720,note_on,0,0,3,,,,,,,,,2,,,49,0
63720,note_on,0,0,3,,,,,,,,,2,,,51,75
63720,note_on,0,0,1,,,,,,,,,0,,,77,62
63720,note_on,15,0,3,,,,,,,,,2,,,53,0
63720,note_on,0,0,1,,,,,,,,,0,,,73,62
63750,note_on,30,0,1,,,,,,,,,0,,,77,0
63750,note_on,0,0,1,,,,,,,,,0,,,73,0
63750,note_on,0,0,1,,,,,,,,,0,,,80,62
63780,note_on,0,0,1,,,,,,,,,0,,,68,62
63780,note_on,60,0,3,,,,,,,,,2,,,51,0
63780,control_change,0,0,3,,,,,,,,,2,64,0,,
63780,note_on,0,0,3,,,,,,,,,2,,,49,75
63780,note_on,30,0,1,,,,,,,,,0,,,80,0
63810,control_change,0,0,1,,,,,,,,,0,64,0,,
63810,note_on,30,0,1,,,,,,,,,0,,,68,0
63810,note_on,0,0,1,,,,,,,,,0,,,80,62
63840,note_on,30,0,1,,,,,,,,,0,,,80,0
63840,note_on,0,0,3,,,,,,,,,2,,,48,75
63840,control_change,0,0,3,,,,,,,,,2,64,127,,
63840,note_on,60,0,3,,,,,,,,,2,,,49,0
63840,control_change,0,0,1,,,,,,,,,0,64,127,,
63840,note_on,0,0,1,,,,,,,,,0,,,75,62
63840,note_on,0,0,1,,,,,,,,,0,,,78,62
63870,note_on,30,0,1,,,,,,,,,0,,,78,0
63870,note_on,0,0,1,,,,,,,,,0,,,75,0
63870,note_on,0,0,1,,,,,,,,,0,,,80,62
63900,note_on,0,0,3,,,,,,,,,2,,,56,101
63900,note_on,60,0,3,,,,,,,,,2,,,48,0
63900,note_on,30,0,1,,,,,,,,,0,,,80,0
63900,note_on,0,0,1,,,,,,,,,0,,,68,62
63930,note_on,0,0,1,,,,,,,,,0,,,80,62
63930,note_on,30,0,1,,,,,,,,,0,,,68,0
63960,note_on,0,0,1,,,,,,,,,0,,,78,62
63960,note_on,0,0,1,,,,,,,,,0,,,75,62
63960,note_on,30,0,1,,,,,,,,,0,,,80,0
63990,note_on,0,0,1,,,,,,,,,0,,,75,0
63990,note_on,30,0,1,,,,,,,,,0,,,78,0
63990,note_on,0,0,1,,,,,,,,,0,,,80,62
64020,note_on,30,0,1,,,,,,,,,0,,,80,0
64020,note_on,0,0,1,,,,,,,,,0,,,68,62
64020,note_on,0,0,3,,,,,,,,,2,,,54,75
64020,note_on,120,0,3,,,,,,,,,2,,,56,0
64050,note_on,30,0,1,,,,,,,,,0,,,68,0
64050,note_on,0,0,1,,,,,,,,,0,,,80,62
64080,note_on,0,0,3,,,,,,,,,2,,,53,75
64080,note_on,60,0,3,,,,,,,,,2,,,54,0
64080,note_on,0,0,1,,,,,,,,,0,,,77,62
64080,note_on,30,0,1,,,,,,,,,0,,,80,0
64080,note_on,0,0,1,,,,,,,,,0,,,73,62
64110,note_on,0,0,1,,,,,,,,,0,,,80,62
64110,note_on,0,0,1,,,,,,,,,0,,,73,0
64110,note_on,30,0,1,,,,,,,,,0,,,77,0
64140,note_on,0,0,1,,,,,,,,,0,,,78,62
64140,note_on,0,0,1,,,,,,,,,0,,,72,62
64140,note_on,30,0,1,,,,,,,,,0,,,80,0
64140,note_on,60,0,3,,,,,,,,,2,,,53,0
64140,control_change,0,0,3,,,,,,,,,2,64,0,,
64140,note_on,0,0,3,,,,,,,,,2,,,51,75
64170,note_on,0,0,1,,,,,,,,,0,,,80,62
64170,control_change,0,0,1,,,,,,,,,0,64,0,,
64170,note_on,0,0,1,,,,,,,,,0,,,72,0
64170,note_on,30,0,1,,,,,,,,,0,,,78,0
64200,note_on,30,0,1,,,,,,,,,0,,,80,0
64200,note_on,0,0,1,,,,,,,,,0,,,73,62
64200,control_change,0,0,1,,,,,,,,,0,64,127,,
64200,note_on,60,0,3,,,,,,,,,2,,,51,0
64200,control_change,0,0,3,,,,,,,,,2,64,127,,
64200,note_on,0,0,3,,,,,,,,,2,,,49,75
64200,note_on,0,0,1,,,,,,,,,0,,,77,62
64230,note_on,30,0,1,,,,,,,,,0,,,77,0
64230,note_on,0,0,1,,,,,,,,,0,,,73,0
64230,note_on,0,0,1,,,,,,,,,0,,,80,62
64260,note_on,60,0,3,,,,,,,,,2,,,49,0
64260,note_on,0,0,1,,,,,,,,,0,,,68,62
64260,note_on,30,0,1,,,,,,,,,0,,,80,0
64260,note_on,0,0,3,,,,,,,,,2,,,37,75
64266,note_on,6,0,3,,,,,,,,,2,,,37,0
64290,note_on,0,0,1,,,,,,,,,0,,,80,62
64290,note_on,30,0,1,,,,,,,,,0,,,68,0
64320,note_on,0,0,1,,,,,,,,,0,,,77,62
64320,note_on,30,0,1,,,,,,,,,0,,,80,0
64320,note_on,0,0,1,,,,,,,,,0,,,73,62
64350,note_on,30,0,1,,,,,,,,,0,,,77,0
64350,note_on,0,0,1,,,,,,,,,0,,,73,0
64350,note_on,0,0,1,,,,,,,,,0,,,80,62
64380,note_on,114,0,3,,,,,,,,,2,,,49,75
64380,note_on,30,0,1,,,,,,,,,0,,,80,0
64380,note_on,0,0,1,,,,,,,,,0,,,68,62
64410,note_on,30,0,1,,,,,,,,,0,,,68,0
64410,note_on,0,0,1,,,,,,,,,0,,,80,62
64425,note_on,45,0,3,,,,,,,,,2,,,53,75
64440,note_on,0,0,3,,,,,,,,,2,,,51,75
64440,note_on,15,0,3,,,,,,,,,2,,,53,0
64440,note_on,0,0,3,,,,,,,,,2,,,49,0
64440,note_on,0,0,1,,,,,,,,,0,,,73,62
64440,note_on,0,0,1,,,,,,,,,0,,,77,62
64440,note_on,30,0,1,,,,,,,,,0,,,80,0
64470,note_on,30,0,1,,,,,,,,,0,,,77,0
64470,note_on,0,0,1,,,,,,,,,0,,,73,0
64470,note_on,0,0,1,,,,,,,,,0,,,80,62
64500,control_change,0,0,3,,,,,,,,,2,64,0,,
64500,note_on,60,0,3,,,,,,,,,2,,,51,0
64500,note_on,0,0,3,,,,,,,,,2,,,49,75
64500,note_on,0,0,1,,,,,,,,,0,,,68,62
64500,note_on,30,0,1,,,,,,,,,0,,,80,0
64530,note_on,30,0,1,,,,,,,,,0,,,68,0
64530,control_change,0,0,1,,,,,,,,,0,64,0,,
64530,note_on,0,0,1,,,,,,,,,0,,,80,62
64560,control_change,0,0,3,,,,,,,,,2,64,127,,
64560,note_on,0,0,3,,,,,,,,,2,,,50,88
64560,note_on,60,0,3,,,,,,,,,2,,,49,0
64560,note_on,30,0,1,,,,,,,,,0,,,80,0
64560,control_change,0,0,1,,,,,,,,,0,64,127,,
64560,note_on,0,0,1,,,,,,,,,0,,,77,75
64560,note_on,0,0,1,,,,,,,,,0,,,80,75
64590,note_on,0,0,1,,,,,,,,,0,,,83,75
64590,note_on,30,0,1,,,,,,,,,0,,,80,0
64590,note_on,0,0,1,,,,,,,,,0,,,77,0
64620,note_on,0,0,1,,,,,,,,,0,,,71,75
64620,note_on,30,0,1,,,,,,,,,0,,,83,0
64620,note_on,60,0,3,,,,,,,,,2,,,50,0
64620,note_on,0,0,3,,,,,,,,,2,,,59,114
64650,note_on,0,0,1,,,,,,,,,0,,,83,75
64650,note_on,30,0,1,,,,,,,,,0,,,71,0
64680,note_on,0,0,1,,,,,,,,,0,,,80,75
64680,note_on,0,0,1,,,,,,,,,0,,,77,75
64680,note_on,30,0,1,,,,,,,,,0,,,83,0
64710,note_on,0,0,1,,,,,,,,,0,,,83,75
64710,note_on,0,0,1,,,,,,,,,0,,,77,0
64710,note_on,30,0,1,,,,,,,,,0,,,80,0
64740,note_on,30,0,1,,,,,,,,,0,,,83,0
64740,note_on,0,0,1,,,,,,,,,0,,,71,75
64740,note_on,120,0,3,,,,,,,,,2,,,59,0
64740,note_on,0,0,3,,,,,,,,,2,,,56,88
64770,note_on,30,0,1,,,,,,,,,0,,,71,0
64770,note_on,0,0,1,,,,,,,,,0,,,83,75
64800,note_on,0,0,1,,,,,,,,,0,,,80,75
64800,note_on,0,0,1,,,,,,,,,0,,,77,75
64800,note_on,60,0,3,,,,,,,,,2,,,56,0
64800,note_on,0,0,3,,,,,,,,,2,,,53,88
64800,note_on,30,0,1,,,,,,,,,0,,,83,0
64830,note_on,30,0,1,,,,,,,,,0,,,80,0
64830,note_on,0,0,1,,,,,,,,,0,,,77,0
64830,note_on,0,0,1,,,,,,,,,0,,,83,75
64860,note_on,30,0,1,,,,,,,,,0,,,83,0
64860,note_on,0,0,3,,,,,,,,,2,,,51,88
64860,control_change,0,0,3,,,,,,,,,2,64,0,,
64860,note_on,60,0,3,,,,,,,,,2,,,53,0
64860,note_on,0,0,1,,,,,,,,,0,,,71,75
64890,note_on,0,0,1,,,,,,,,,0,,,83,75
64890,control_change,0,0,1,,,,,,,,,0,64,0,,
64890,note_on,30,0,1,,,,,,,,,0,,,71,0
64920,note_on,0,0,1,,,,,,,,,0,,,79,75
64920,control_change,0,0,1,,,,,,,,,0,64,127,,
64920,note_on,30,0,1,,,,,,,,,0,,,83,0
64920,note_on,60,0,3,,,,,,,,,2,,,51,0
64920,note_on,0,0,3,,,,,,,,,2,,,51,88
64950,note_on,30,0,1,,,,,,,,,0,,,79,0
64950,note_on,0,0,1,,,,,,,,,0,,,84,75
64980,note_on,30,0,1,,,,,,,,,0,,,84,0
64980,note_on,0,0,1,,,,,,,,,0,,,72,75
65010,note_on,0,0,1,,,,,,,,,0,,,84,75
65010,note_on,30,0,1,,,,,,,,,0,,,72,0
65040,note_on,30,0,1,,,,,,,,,0,,,84,0
65040,control_change,0,0,1,,,,,,,,,0,64,0,,
65040,note_on,0,0,1,,,,,,,,,0,,,79,62
65040,note_on,0,0,3,,,,,,,,,2,,,52,75
65040,note_on,120,0,3,,,,,,,,,2,,,51,0
65070,note_on,30,0,1,,,,,,,,,0,,,79,0
65070,note_on,0,0,1,,,,,,,,,0,,,82,62
65100,note_on,30,0,1,,,,,,,,,0,,,82,0
65100,note_on,0,0,1,,,,,,,,,0,,,73,62
65130,note_on,30,0,1,,,,,,,,,0,,,73,0
65130,note_on,0,0,1,,,,,,,,,0,,,82,62
65160,note_on,120,0,3,,,,,,,,,2,,,52,0
65160,note_on,0,0,3,,,,,,,,,2,,,53,75
65160,note_on,0,0,1,,,,,,,,,0,,,77,62
65160,note_on,30,0,1,,,,,,,,,0,,,82,0
65190,note_on,0,0,1,,,,,,,,,0,,,80,62
65190,note_on,30,0,1,,,,,,,,,0,,,77,0
65220,note_on,30,0,1,,,,,,,,,0,,,80,0
65220,note_on,0,0,1,,,,,,,,,0,,,72,62
65250,note_on,30,0,1,,,,,,,,,0,,,72,0
65250,note_on,0,0,1,,,,,,,,,0,,,80,62
65280,note_on,120,0,3,,,,,,,,,2,,,53,0
65280,note_on,0,0,1,,,,,,,,,0,,,75,36
65280,note_on,0,0,3,,,,,,,,,2,,,55,49
65280,control_change,0,0,1,,,,,,,,,0,64,127,,
65280,note_on,0,0,1,,,,,,,,,0,,,72,36
65280,note_on,30,0,1,,,,,,,,,0,,,80,0
65310,note_on,30,0,1,,,,,,,,,0,,,75,0
65310,note_on,0,0,1,,,,,,,,,0,,,72,0
65310,note_on,0,0,1,,,,,,,,,0,,,79,36
65340,note_on,30,0,1,,,,,,,,,0,,,79,0
65340,note_on,0,0,1,,,,,,,,,0,,,67,36
65370,note_on,30,0,1,,,,,,,,,0,,,67,0
65370,note_on,0,0,1,,,,,,,,,0,,,79,36
65400,note_on,0,0,1,,,,,,,,,0,,,75,36
65400,note_on,30,0,1,,,,,,,,,0,,,79,0
65400,note_on,0,0,1,,,,,,,,,0,,,69,36
65430,note_on,30,0,1,,,,,,,,,0,,,75,0
65430,note_on,0,0,1,,,,,,,,,0,,,69,0
65430,note_on,0,0,1,,,,,,,,,0,,,78,36
65460,note_on,30,0,1,,,,,,,,,0,,,78,0
65460,note_on,0,0,1,,,,,,,,,0,,,67,36
65490,note_on,0,0,1,,,,,,,,,0,,,78,36
65490,note_on,30,0,1,,,,,,,,,0,,,67,0
65520,note_on,30,0,1,,,,,,,,,0,,,78,0
65520,note_on,0,0,1,,,,,,,,,0,,,74,36
65520,note_on,0,0,1,,,,,,,,,0,,,71,36
65550,note_on,30,0,1,,,,,,,,,0,,,74,0
65550,note_on,0,0,1,,,,,,,,,0,,,71,0
65550,note_on,0,0,1,,,,,,,,,0,,,77,36
65580,note_on,30,0,1,,,,,,,,,0,,,77,0
65580,note_on,0,0,1,,,,,,,,,0,,,67,36
65610,note_on,0,0,1,,,,,,,,,0,,,77,36
65610,note_on,30,0,1,,,,,,,,,0,,,67,0
65610,control_change,0,0,1,,,,,,,,,0,64,0,,
65640,control_change,0,0,3,,,,,,,,,2,64,127,,
65640,note_on,360,0,3,,,,,,,,,2,,,55,0
65640,note_on,30,0,1,,,,,,,,,0,,,77,0
65640,control_change,0,0,1,,,,,,,,,0,64,127,,
65640,note_on,0,0,1,,,,,,,,,0,,,72,75
65640,note_on,0,0,1,,,,,,,,,0,,,75,75
65640,note_on,0,0,3,,,,,,,,,2,,,63,62
65640,note_on,0,0,3,,,,,,,,,2,,,60,62
65670,note_on,0,0,3,,,,,,,,,2,,,60,0
65670,note_on,30,0,3,,,,,,,,,2,,,63,0
65670,note_on,0,0,3,,,,,,,,,2,,,67,62
65700,note_on,30,0,3,,,,,,,,,2,,,67,0
65700,note_on,0,0,3,,,,,,,,,2,,,55,62
65730,note_on,30,0,3,,,,,,,,,2,,,55,0
65730,note_on,0,0,3,,,,,,,,,2,,,67,62
65760,note_on,0,0,3,,,,,,,,,2,,,63,62
65760,note_on,0,0,3,,,,,,,,,2,,,60,62
65760,note_on,120,0,1,,,,,,,,,0,,,75,0
65760,note_on,30,0,3,,,,,,,,,2,,,67,0
65760,note_on,0,0,1,,,,,,,,,0,,,72,0
65790,note_on,30,0,3,,,,,,,,,2,,,63,0
65790,note_on,0,0,3,,,,,,,,,2,,,60,0
65790,note_on,0,0,3,,,,,,,,,2,,,67,62
65820,note_on,0,0,3,,,,,,,,,2,,,55,62
65820,note_on,60,0,1,,,,,,,,,0,,,72,75
65820,note_on,30,0,3,,,,,,,,,2,,,67,0
65850,note_on,30,0,3,,,,,,,,,2,,,55,0
65850,note_on,0,0,3,,,,,,,,,2,,,67,62
65865,note_on,45,0,1,,,,,,,,,0,,,75,75
65880,note_on,30,0,3,,,,,,,,,2,,,67,0
65880,note_on,0,0,3,,,,,,,,,2,,,60,62
65880,note_on,0,0,3,,,,,,,,,2,,,63,62
65880,note_on,0,0,1,,,,,,,,,0,,,74,75
65880,note_on,15,0,1,,,,,,,,,0,,,75,0
65880,note_on,0,0,1,,,,,,,,,0,,,72,0
65910,note_on,30,0,3,,,,,,,,,2,,,63,0
65910,note_on,0,0,3,,,,,,,,,2,,,60,0
65910,note_on,0,0,3,,,,,,,,,2,,,67,62
65940,note_on,30,0,3,,,,,,,,,2,,,67,0
65940,note_on,0,0,3,,,,,,,,,2,,,55,62
65940,control_change,0,0,1,,,,,,,,,0,64,0,,
65940,note_on,0,0,1,,,,,,,,,0,,,72,75
65940,note_on,60,0,1,,,,,,,,,0,,,74,0
65970,note_on,0,0,3,,,,,,,,,2,,,67,62
65970,note_on,30,0,3,,,,,,,,,2,,,55,0
65970,control_change,0,0,3,,,,,,,,,2,64,0,,
66000,control_change,0,0,1,,,,,,,,,0,64,127,,
66000,note_on,0,0,1,,,,,,,,,0,,,71,75
66000,note_on,60,0,1,,,,,,,,,0,,,72,0
66000,note_on,0,0,3,,,,,,,,,2,,,62,62
66000,note_on,30,0,3,,,,,,,,,2,,,67,0
66000,control_change,0,0,3,,,,,,,,,2,64,127,,
66000,note_on,0,0,3,,,,,,,,,2,,,65,62
66030,note_on,30,0,3,,,,,,,,,2,,,65,0
66030,note_on,0,0,3,,,,,,,,,2,,,62,0
66030,note_on,0,0,3,,,,,,,,,2,,,67,62
66060,note_on,0,0,1,,,,,,,,,0,,,79,101
66060,note_on,60,0,1,,,,,,,,,0,,,71,0
66060,note_on,30,0,3,,,,,,,,,2,,,67,0
66060,note_on,0,0,3,,,,,,,,,2,,,55,62
66090,note_on,30,0,3,,,,,,,,,2,,,55,0
66090,note_on,0,0,3,,,,,,,,,2,,,67,62
66120,note_on,30,0,3,,,,,,,,,2,,,67,0
66120,note_on,0,0,3,,,,,,,,,2,,,62,62
66120,note_on,0,0,3,,,,,,,,,2,,,65,62
66150,note_on,0,0,3,,,,,,,,,2,,,67,62
66150,note_on,0,0,3,,,,,,,,,2,,,62,0
66150,note_on,30,0,3,,,,,,,,,2,,,65,0
66180,note_on,0,0,3,,,,,,,,,2,,,62,62
66180,note_on,0,0,3,,,,,,,,,2,,,59,62
66180,note_on,30,0,3,,,,,,,,,2,,,67,0
66180,note_on,0,0,1,,,,,,,,,0,,,77,75
66180,note_on,120,0,1,,,,,,,,,0,,,79,0
66210,note_on,0,0,3,,,,,,,,,2,,,67,62
66210,note_on,0,0,3,,,,,,,,,2,,,59,0
66210,note_on,30,0,3,,,,,,,,,2,,,62,0
66240,note_on,0,0,1,,,,,,,,,0,,,75,75
66240,note_on,60,0,1,,,,,,,,,0,,,77,0
66240,note_on,0,0,3,,,,,,,,,2,,,60,62
66240,note_on,0,0,3,,,,,,,,,2,,,63,62
66240,note_on,30,0,3,,,,,,,,,2,,,67,0
66270,note_on,0,0,3,,,,,,,,,2,,,67,62
66270,note_on,30,0,3,,,,,,,,,2,,,63,0
66270,note_on,0,0,3,,,,,,,,,2,,,60,0
66300,note_on,60,0,1,,,,,,,,,0,,,75,0
66300,control_change,0,0,1,,,,,,,,,0,64,0,,
66300,note_on,0,0,1,,,,,,,,,0,,,74,75
66300,note_on,30,0,3,,,,,,,,,2,,,67,0
66300,note_on,0,0,3,,,,,,,,,2,,,59,62
66300,note_on,0,0,3,,,,,,,,,2,,,65,62
66330,control_change,0,0,3,,,,,,,,,2,64,0,,
66330,note_on,0,0,3,,,,,,,,,2,,,59,0
66330,note_on,0,0,3,,,,,,,,,2,,,67,62
66330,note_on,30,0,3,,,,,,,,,2,,,65,0
66360,note_on,60,0,1,,,,,,,,,0,,,74,0
66360,control_change,0,0,1,,,,,,,,,0,64,127,,
66360,note_on,30,0,3,,,,,,,,,2,,,67,0
66360,control_change,0,0,3,,,,,,,,,2,64,127,,
66360,note_on,0,0,3,,,,,,,,,2,,,60,62
66360,note_on,0,0,3,,,,,,,,,2,,,63,62
66360,note_on,0,0,1,,,,,,,,,0,,,72,75
66390,note_on,30,0,3,,,,,,,,,2,,,63,0
66390,note_on,0,0,3,,,,,,,,,2,,,60,0
66390,note_on,0,0,3,,,,,,,,,2,,,67,62
66420,note_on,30,0,3,,,,,,,,,2,,,67,0
66420,note_on,60,0,1,,,,,,,,,0,,,72,0
66420,note_on,0,0,3,,,,,,,,,2,,,55,62
66420,note_on,0,0,1,,,,,,,,,0,,,84,75
66426,note_on,6,0,1,,,,,,,,,0,,,84,0
66450,note_on,0,0,3,,,,,,,,,2,,,67,62
66450,note_on,30,0,3,,,,,,,,,2,,,55,0
66480,note_on,0,0,3,,,,,,,,,2,,,63,62
66480,note_on,0,0,3,,,,,,,,,2,,,60,62
66480,note_on,30,0,3,,,,,,,,,2,,,67,0
66510,note_on,0,0,3,,,,,,,,,2,,,60,0
66510,note_on,30,0,3,,,,,,,,,2,,,63,0
66510,note_on,0,0,3,,,,,,,,,2,,,67,62
66540,note_on,114,0,1,,,,,,,,,0,,,72,75
66540,note_on,0,0,3,,,,,,,,,2,,,55,62
66540,note_on,30,0,3,,,,,,,,,2,,,67,0
66570,note_on,30,0,3,,,,,,,,,2,,,55,0
66570,note_on,0,0,3,,,,,,,,,2,,,67,62
66585,note_on,45,0,1,,,,,,,,,0,,,75,75
66600,note_on,0,0,3,,,,,,,,,2,,,63,62
66600,note_on,0,0,3,,,,,,,,,2,,,60,62
66600,note_on,30,0,3,,,,,,,,,2,,,67,0
66600,note_on,15,0,1,,,,,,,,,0,,,75,0
66600,note_on,0,0,1,,,,,,,,,0,,,72,0
66600,note_on,0,0,1,,,,,,,,,0,,,74,75
66630,note_on,30,0,3,,,,,,,,,2,,,63,0
66630,note_on,0,0,3,,,,,,,,,2,,,60,0
66630,note_on,0,0,3,,,,,,,,,2,,,67,62
66660,note_on,0,0,1,,,,,,,,,0,,,72,75
66660,note_on,0,0,3,,,,,,,,,2,,,55,62
66660,note_on,30,0,3,,,,,,,,,2,,,67,0
66660,note_on,60,0,1,,,,,,,,,0,,,74,0
66660,control_change,0,0,1,,,,,,,,,0,64,0,,
66690,note_on,0,0,3,,,,,,,,,2,,,67,62
66690,control_change,0,0,3,,,,,,,,,2,64,0,,
66690,note_on,30,0,3,,,,,,,,,2,,,55,0
66720,control_change,0,0,3,,,,,,,,,2,64,127,,
66720,note_on,0,0,3,,,,,,,,,2,,,62,62
66720,note_on,0,0,3,,,,,,,,,2,,,65,62
66720,note_on,30,0,3,,,,,,,,,2,,,67,0
66720,note_on,60,0,1,,,,,,,,,0,,,72,0
66720,note_on,0,0,1,,,,,,,,,0,,,71,75
66720,control_change,0,0,1,,,,,,,,,0,64,127,,
66750,note_on,0,0,3,,,,,,,,,2,,,67,62
66750,note_on,0,0,3,,,,,,,,,2,,,62,0
66750,note_on,30,0,3,,,,,,,,,2,,,65,0
66780,note_on,60,0,1,,,,,,,,,0,,,71,0
66780,note_on,0,0,3,,,,,,,,,2,,,55,62
66780,note_on,30,0,3,,,,,,,,,2,,,67,0
66780,note_on,0,0,1,,,,,,,,,0,,,79,101
66810,note_on,0,0,3,,,,,,,,,2,,,67,62
66810,note_on,30,0,3,,,,,,,,,2,,,55,0
66840,note_on,0,0,3,,,,,,,,,2,,,65,62
66840,note_on,0,0,3,,,,,,,,,2,,,62,62
66840,note_on,30,0,3,,,,,,,,,2,,,67,0
66870,note_on,30,0,3,,,,,,,,,2,,,65,0
66870,note_on,0,0,3,,,,,,,,,2,,,67,62
66870,note_on,0,0,3,,,,,,,,,2,,,62,0
66900,note_on,0,0,1,,,,,,,,,0,,,77,75
66900,note_on,120,0,1,,,,,,,,,0,,,79,0
66900,note_on,30,0,3,,,,,,,,,2,,,67,0
66900,note_on,0,0,3,,,,,,,,,2,,,59,62
66900,note_on,0,0,3,,,,,,,,,2,,,62,62
66930,note_on,0,0,3,,,,,,,,,2,,,67,62
66930,note_on,0,0,3,,,,,,,,,2,,,59,0
66930,note_on,30,0,3,,,,,,,,,2,,,62,0
66960,note_on,0,0,1,,,,,,,,,0,,,75,75
66960,note_on,60,0,1,,,,,,,,,0,,,77,0
66960,note_on,0,0,3,,,,,,,,,2,,,63,62
66960,note_on,0,0,3,,,,,,,,,2,,,60,62
66960,note_on,30,0,3,,,,,,,,,2,,,67,0
66990,note_on,0,0,3,,,,,,,,,2,,,67,62
66990,note_on,0,0,3,,,,,,,,,2,,,60,0
66990,note_on,30,0,3,,,,,,,,,2,,,63,0
67020,note_on,0,0,3,,,,,,,,,2,,,65,62
67020,note_on,0,0,3,,,,,,,,,2,,,59,62
67020,note_on,30,0,3,,,,,,,,,2,,,67,0
67020,note_on,60,0,1,,,,,,,,,0,,,75,0
67020,control_change,0,0,1,,,,,,,,,0,64,0,,
67020,note_on,0,0,1,,,,,,,,,0,,,74,75
67050,control_change,0,0,3,,,,,,,,,2,64,0,,
67050,note_on,0,0,3,,,,,,,,,2,,,67,62
67050,note_on,30,0,3,,,,,,,,,2,,,65,0
67050,note_on,0,0,3,,,,,,,,,2,,,59,0
67080,note_on,0,0,3,,,,,,,,,2,,,63,62
67080,note_on,0,0,3,,,,,,,,,2,,,60,62
67080,control_change,0,0,3,,,,,,,,,2,64,127,,
67080,note_on,30,0,3,,,,,,,,,2,,,67,0
67080,note_on,0,0,1,,,,,,,,,0,,,72,75
67080,control_change,0,0,1,,,,,,,,,0,64,127,,
67080,note_on,60,0,1,,,,,,,,,0,,,74,0
67110,note_on,0,0,3,,,,,,,,,2,,,67,62
67110,note_on,0,0,3,,,,,,,,,2,,,60,0
67110,note_on,30,0,3,,,,,,,,,2,,,63,0
67140,note_on,30,0,3,,,,,,,,,2,,,67,0
67140,note_on,60,0,1,,,,,,,,,0,,,72,0
67140,note_on,0,0,1,,,,,,,,,0,,,87,101
67140,note_on,0,0,3,,,,,,,,,2,,,55,62
67170,note_on,0,0,3,,,,,,,,,2,,,67,62
67170,note_on,30,0,3,,,,,,,,,2,,,55,0
67200,note_on,0,0,3,,,,,,,,,2,,,63,62
67200,note_on,0,0,3,,,,,,,,,2,,,60,62
67200,note_on,30,0,3,,,,,,,,,2,,,67,0
67230,note_on,0,0,3,,,,,,,,,2,,,60,0
67230,note_on,0,0,3,,,,,,,,,2,,,67,62
67230,note_on,30,0,3,,,,,,,,,2,,,63,0
67260,note_on,0,0,3,,,,,,,,,2,,,55,62
67260,note_on,0,0,1,,,,,,,,,0,,,86,75
67260,note_on,120,0,1,,,,,,,,,0,,,87,0
67260,note_on,30,0,3,,,,,,,,,2,,,67,0
67290,note_on,30,0,3,,,,,,,,,2,,,55,0
67290,note_on,0,0,3,,,,,,,,,2,,,67,62
67320,note_on,60,0,1,,,,,,,,,0,,,86,0
67320,note_on,0,0,1,,,,,,,,,0,,,84,75
67320,note_on,30,0,3,,,,,,,,,2,,,67,0
67320,note_on,0,0,3,,,,,,,,,2,,,60,62
67320,note_on,0,0,3,,,,,,,,,2,,,63,62
67350,note_on,30,0,3,,,,,,,,,2,,,63,0
67350,note_on,0,0,3,,,,,,,,,2,,,60,0
67350,note_on,0,0,3,,,,,,,,,2,,,67,62
67380,note_on,0,0,3,,,,,,,,,2,,,55,62
67380,note_on,30,0,3,,,,,,,,,2,,,67,0
67380,note_on,0,0,1,,,,,,,,,0,,,82,75
67380,control_change,0,0,1,,,,,,,,,0,64,0,,
67380,note_on,60,0,1,,,,,,,,,0,,,84,0
67410,note_on,30,0,3,,,,,,,,,2,,,55,0
67410,control_change,0,0,3,,,,,,,,,2,64,0,,
67410,note_on,0,0,3,,,,,,,,,2,,,67,62
67440,note_on,0,0,1,,,,,,,,,0,,,80,62
67440,note_on,60,0,1,,,,,,,,,0,,,82,0
67440,control_change,0,0,1,,,,,,,,,0,64,127,,
67440,note_on,0,0,3,,,,,,,,,2,,,60,49
67440,note_on,30,0,3,,,,,,,,,2,,,67,0
67440,note_on,0,0,3,,,,,,,,,2,,,63,49
67440,control_change,0,0,3,,,,,,,,,2,64,127,,
67470,note_on,30,0,3,,,,,,,,,2,,,63,0
67470,note_on,0,0,3,,,,,,,,,2,,,60,0
67470,note_on,0,0,3,,,,,,,,,2,,,68,49
67500,note_on,30,0,3,,,,,,,,,2,,,68,0
67500,note_on,0,0,3,,,,,,,,,2,,,56,49
67500,note_on,60,0,1,,,,,,,,,0,,,80,0
67500,note_on,0,0,1,,,,,,,,,0,,,84,88
67530,note_on,30,0,3,,,,,,,,,2,,,56,0
67530,note_on,0,0,3,,,,,,,,,2,,,68,49
67560,note_on,30,0,3,,,,,,,,,2,,,68,0
67560,note_on,0,0,3,,,,,,,,,2,,,63,49
67560,note_on,0,0,3,,,,,,,,,2,,,60,49
67590,note_on,0,0,3,,,,,,,,,2,,,68,49
67590,note_on,30,0,3,,,,,,,,,2,,,63,0
67590,note_on,0,0,3,,,,,,,,,2,,,60,0
67620,note_on,0,0,3,,,,,,,,,2,,,56,49
67620,note_on,0,0,1,,,,,,,,,0,,,82,62
67620,note_on,120,0,1,,,,,,,,,0,,,84,0
67620,note_on,30,0,3,,,,,,,,,2,,,68,0
67650,note_on,30,0,3,,,,,,,,,2,,,56,0
67650,note_on,0,0,3,,,,,,,,,2,,,68,49
67680,note_on,0,0,3,,,,,,,,,2,,,63,49
67680,note_on,0,0,1,,,,,,,,,0,,,80,62
67680,note_on,60,0,1,,,,,,,,,0,,,82,0
67680,note_on,30,0,3,,,,,,,,,2,,,68,0
67680,note_on,0,0,3,,,,,,,,,2,,,60,49
67710,note_on,30,0,3,,,,,,,,,2,,,63,0
67710,note_on,0,0,3,,,,,,,,,2,,,60,0
67710,note_on,0,0,3,,,,,,,,,2,,,68,49
67740,note_on,0,0,1,,,,,,,,,0,,,79,62
67740,note_on,60,0,1,,,,,,,,,0,,,80,0
67740,note_on,30,0,3,,,,,,,,,2,,,68,0
67740,note_on,0,0,3,,,,,,,,,2,,,56,49
67770,note_on,30,0,3,,,,,,,,,2,,,56,0
67770,control_change,0,0,3,,,,,,,,,2,64,0,,
67770,note_on,0,0,3,,,,,,,,,2,,,68,49
67800,note_on,0,0,1,,,,,,,,,0,,,78,36
67800,control_change,0,0,1,,,,,,,,,0,64,0,,
67800,note_on,60,0,1,,,,,,,,,0,,,79,0
67800,note_on,30,0,3,,,,,,,,,2,,,68,0
67800,control_change,0,0,3,,,,,,,,,2,64,127,,
67800,note_on,0,0,3,,,,,,,,,2,,,60,36
67800,note_on,0,0,3,,,,,,,,,2,,,63,36
67830,note_on,30,0,3,,,,,,,,,2,,,63,0
67830,note_on,0,0,3,,,,,,,,,2,,,60,0
67830,note_on,0,0,3,,,,,,,,,2,,,69,36
67860,note_on,0,0,3,,,,,,,,,2,,,57,36
67860,note_on,30,0,3,,,,,,,,,2,,,69,0
67890,note_on,30,0,3,,,,,,,,,2,,,57,0
67890,note_on,0,0,3,,,,,,,,,2,,,69,36
67920,note_on,0,0,3,,,,,,,,,2,,,60,36
67920,note_on,30,0,3,,,,,,,,,2,,,69,0
67920,note_on,0,0,3,,,,,,,,,2,,,63,36
67950,note_on,30,0,3,,,,,,,,,2,,,63,0
67950,note_on,0,0,3,,,,,,,,,2,,,60,0
67950,note_on,0,0,3,,,,,,,,,2,,,69,36
67980,note_on,30,0,3,,,,,,,,,2,,,69,0
67980,note_on,0,0,3,,,,,,,,,2,,,57,36
68010,note_on,30,0,3,,,,,,,,,2,,,57,0
68010,note_on,0,0,3,,,,,,,,,2,,,69,36
68040,note_on,30,0,3,,,,,,,,,2,,,69,0
68040,note_on,0,0,3,,,,,,,,,2,,,60,36
68040,note_on,0,0,3,,,,,,,,,2,,,63,36
68070,note_on,30,0,3,,,,,,,,,2,,,63,0
68070,note_on,0,0,3,,,,,,,,,2,,,60,0
68070,note_on,0,0,3,,,,,,,,,2,,,69,36
68100,note_on,0,0,3,,,,,,,,,2,,,57,36
68100,note_on,30,0,3,,,,,,,,,2,,,69,0
68130,control_change,0,0,3,,,,,,,,,2,64,0,,
68130,note_on,30,0,3,,,,,,,,,2,,,57,0
68130,note_on,0,0,3,,,,,,,,,2,,,69,36
68160,note_on,30,0,3,,,,,,,,,2,,,69,0
68160,control_change,0,0,3,,,,,,,,,2,64,127,,
68160,note_on,0,0,3,,,,,,,,,2,,,60,36
68160,note_on,0,0,3,,,,,,,,,2,,,63,36
68160,note_on,0,0,1,,,,,,,,,0,,,79,49
68160,note_on,360,0,1,,,,,,,,,0,,,78,0
68175,note_on,15,0,1,,,,,,,,,0,,,79,0
68175,note_on,0,0,1,,,,,,,,,0,,,77,49
68190,note_on,30,0,3,,,,,,,,,2,,,63,0
68190,note_on,0,0,3,,,,,,,,,2,,,60,0
68190,note_on,0,0,3,,,,,,,,,2,,,69,36
68190,note_on,15,0,1,,,,,,,,,0,,,77,0
68190,note_on,0,0,1,,,,,,,,,0,,,79,49
68205,note_on,0,0,1,,,,,,,,,0,,,77,49
68205,note_on,15,0,1,,,,,,,,,0,,,79,0
68220,note_on,15,0,1,,,,,,,,,0,,,77,0
68220,note_on,0,0,1,,,,,,,,,0,,,79,49
68220,note_on,0,0,3,,,,,,,,,2,,,57,36
68220,note_on,30,0,3,,,,,,,,,2,,,69,0
68235,note_on,15,0,1,,,,,,,,,0,,,79,0
68235,note_on,0,0,1,,,,,,,,,0,,,77,49
68250,note_on,15,0,1,,,,,,,,,0,,,77,0
68250,note_on,0,0,1,,,,,,,,,0,,,79,49
68250,note_on,30,0,3,,,,,,,,,2,,,57,0
68250,note_on,0,0,3,,,,,,,,,2,,,69,36
68265,note_on,0,0,1,,,,,,,,,0,,,77,49
68265,note_on,15,0,1,,,,,,,,,0,,,79,0
68280,note_on,0,0,1,,,,,,,,,0,,,79,62
68280,note_on,15,0,1,,,,,,,,,0,,,77,0
68280,note_on,30,0,3,,,,,,,,,2,,,69,0
68280,note_on,0,0,3,,,,,,,,,2,,,60,49
68280,note_on,0,0,3,,,,,,,,,2,,,63,49
68295,note_on,0,0,1,,,,,,,,,0,,,77,62
68295,note_on,15,0,1,,,,,,,,,0,,,79,0
68310,note_on,0,0,1,,,,,,,,,0,,,79,62
68310,note_on,30,0,3,,,,,,,,,2,,,63,0
68310,note_on,15,0,1,,,,,,,,,0,,,77,0
68310,note_on,0,0,3,,,,,,,,,2,,,69,49
68310,note_on,0,0,3,,,,,,,,,2,,,60,0
68325,note_on,0,0,1,,,,,,,,,0,,,77,62
68325,note_on,15,0,1,,,,,,,,,0,,,79,0
68340,note_on,15,0,1,,,,,,,,,0,,,77,0
68340,note_on,0,0,1,,,,,,,,,0,,,79,62
68340,note_on,30,0,3,,,,,,,,,2,,,69,0
68340,note_on,0,0,3,,,,,,,,,2,,,57,49
68355,note_on,0,0,1,,,,,,,,,0,,,77,62
68355,note_on,15,0,1,,,,,,,,,0,,,79,0
68370,note_on,0,0,1,,,,,,,,,0,,,79,62
68370,note_on,15,0,1,,,,,,,,,0,,,77,0
68370,note_on,30,0,3,,,,,,,,,2,,,57,0
68370,note_on,0,0,3,,,,,,,,,2,,,69,49
68385,note_on,15,0,1,,,,,,,,,0,,,79,0
68385,note_on,0,0,1,,,,,,,,,0,,,77,62
68400,note_on,0,0,3,,,,,,,,,2,,,63,62
68400,note_on,0,0,3,,,,,,,,,2,,,60,62
68400,note_on,30,0,3,,,,,,,,,2,,,69,0
68400,note_on,15,0,1,,,,,,,,,0,,,77,0
68400,note_on,0,0,1,,,,,,,,,0,,,79,75
68415,note_on,0,0,1,,,,,,,,,0,,,77,75
68415,note_on,15,0,1,,,,,,,,,0,,,79,0
68430,note_on,15,0,1,,,,,,,,,0,,,77,0
68430,note_on,0,0,1,,,,,,,,,0,,,79,75
68430,note_on,0,0,3,,,,,,,,,2,,,60,0
68430,note_on,30,0,3,,,,,,,,,2,,,63,0
68430,note_on,0,0,3,,,,,,,,,2,,,69,62
68445,note_on,15,0,1,,,,,,,,,0,,,79,0
68445,note_on,0,0,1,,,,,,,,,0,,,77,75
68460,note_on,0,0,1,,,,,,,,,0,,,76,75
68460,note_on,0,0,3,,,,,,,,,2,,,57,62
68460,note_on,15,0,1,,,,,,,,,0,,,77,0
68460,note_on,30,0,3,,,,,,,,,2,,,69,0
68480,note_on,20,0,1,,,,,,,,,0,,,76,0
68480,note_on,0,0,1,,,,,,,,,0,,,77,75
68490,control_change,0,0,3,,,,,,,,,2,64,0,,
68490,note_on,0,0,3,,,,,,,,,2,,,69,62
68490,note_on,30,0,3,,,,,,,,,2,,,57,0
68499,control_change,19,0,1,,,,,,,,,0,64,0,,
68499,note_on,0,0,1,,,,,,,,,0,,,79,75
68500,note_on,1,0,1,,,,,,,,,0,,,77,0
68519,note_on,19,0,1,,,,,,,,,0,,,79,0
68520,control_change,1,0,1,,,,,,,,,0,64,127,,
68520,note_on,0,0,1,,,,,,,,,0,,,77,88
68520,note_on,0,0,3,,,,,,,,,2,,,62,75
68520,note_on,0,0,3,,,,,,,,,2,,,58,75
68520,control_change,0,0,3,,,,,,,,,2,64,127,,
68520,note_on,30,0,3,,,,,,,,,2,,,69,0
68526,note_on,6,0,1,,,,,,,,,0,,,77,0
68550,note_on,0,0,3,,,,,,,,,2,,,70,75
68550,note_on,30,0,3,,,,,,,,,2,,,62,0
68550,note_on,0,0,3,,,,,,,,,2,,,58,0
68580,note_on,0,0,1,,,,,,,,,0,,,86,114
68580,note_on,30,0,3,,,,,,,,,2,,,70,0
68580,note_on,0,0,3,,,,,,,,,2,,,53,75
68580,note_on,54,0,1,,,,,,,,,0,,,74,106
68610,note_on,30,0,3,,,,,,,,,2,,,53,0
68610,note_on,0,0,3,,,,,,,,,2,,,65,75
68640,note_on,30,0,3,,,,,,,,,2,,,65,0
68640,note_on,0,0,3,,,,,,,,,2,,,58,75
68670,note_on,30,0,3,,,,,,,,,2,,,58,0
68670,note_on,0,0,3,,,,,,,,,2,,,65,75
68700,note_on,0,0,3,,,,,,,,,2,,,60,75
68700,note_on,0,0,1,,,,,,,,,0,,,84,88
68700,note_on,0,0,1,,,,,,,,,0,,,72,88
68700,note_on,0,0,1,,,,,,,,,0,,,74,0
68700,note_on,120,0,1,,,,,,,,,0,,,86,0
68700,note_on,30,0,3,,,,,,,,,2,,,65,0
68730,note_on,0,0,3,,,,,,,,,2,,,65,75
68730,note_on,30,0,3,,,,,,,,,2,,,60,0
68760,note_on,0,0,1,,,,,,,,,0,,,72,0
68760,note_on,60,0,1,,,,,,,,,0,,,84,0
68760,note_on,30,0,3,,,,,,,,,2,,,65,0
68760,note_on,0,0,3,,,,,,,,,2,,,62,75
68760,note_on,0,0,1,,,,,,,,,0,,,70,88
68760,note_on,0,0,1,,,,,,,,,0,,,82,88
68790,note_on,0,0,3,,,,,,,,,2,,,65,75
68790,note_on,30,0,3,,,,,,,,,2,,,62,0
68820,note_on,60,0,1,,,,,,,,,0,,,82,0
68820,note_on,0,0,1,,,,,,,,,0,,,70,0
68820,note_on,0,0,1,,,,,,,,,0,,,69,88
68820,note_on,0,0,3,,,,,,,,,2,,,63,75
68820,note_on,30,0,3,,,,,,,,,2,,,65,0
68820,note_on,0,0,1,,,,,,,,,0,,,81,88
68820,control_change,0,0,1,,,,,,,,,0,64,0,,
68850,note_on,30,0,3,,,,,,,,,2,,,63,0
68850,control_change,0,0,3,,,,,,,,,2,64,0,,
68850,note_on,0,0,3,,,,,,,,,2,,,65,75
68880,note_on,0,0,1,,,,,,,,,0,,,82,88
68880,control_change,0,0,1,,,,,,,,,0,64,127,,
68880,note_on,0,0,3,,,,,,,,,2,,,62,75
68880,note_on,30,0,3,,,,,,,,,2,,,65,0
68880,control_change,0,0,3,,,,,,,,,2,64,127,,
68880,note_on,0,0,1,,,,,,,,,0,,,70,88
68880,note_on,60,0,1,,,,,,,,,0,,,81,0
68880,note_on,0,0,1,,,,,,,,,0,,,69,0
68910,note_on,0,0,1,,,,,,,,,0,,,70,0
68910,note_on,30,0,1,,,,,,,,,0,,,82,0
68910,note_on,30,0,3,,,,,,,,,2,,,62,0
68910,note_on,0,0,3,,,,,,,,,2,,,65,75
68910,note_on,0,0,1,,,,,,,,,0,,,77,88
68940,note_on,0,0,1,,,,,,,,,0,,,86,75
68940,note_on,0,0,1,,,,,,,,,0,,,74,67
68940,note_on,30,0,1,,,,,,,,,0,,,77,0
68940,note_on,30,0,3,,,,,,,,,2,,,65,0
68940,note_on,0,0,3,,,,,,,,,2,,,53,36
68970,note_on,0,0,3,,,,,,,,,2,,,65,36
68970,note_on,30,0,3,,,,,,,,,2,,,53,0
69000,note_on,0,0,3,,,,,,,,,2,,,58,36
69000,note_on,30,0,3,,,,,,,,,2,,,65,0
69030,note_on,0,0,3,,,,,,,,,2,,,65,36
69030,note_on,30,0,3,,,,,,,,,2,,,58,0
69060,note_on,0,0,3,,,,,,,,,2,,,60,36
69060,note_on,0,0,1,,,,,,,,,0,,,74,0
69060,note_on,120,0,1,,,,,,,,,0,,,86,0
69060,note_on,0,0,1,,,,,,,,,0,,,84,49
69060,note_on,30,0,3,,,,,,,,,2,,,65,0
69060,note_on,0,0,1,,,,,,,,,0,,,72,49
69090,note_on,30,0,3,,,,,,,,,2,,,60,0
69090,note_on,0,0,3,,,,,,,,,2,,,65,36
69120,note_on,30,0,3,,,,,,,,,2,,,65,0
69120,note_on,0,0,1,,,,,,,,,0,,,72,0
69120,note_on,0,0,3,,,,,,,,,2,,,62,36
69120,note_on,0,0,1,,,,,,,,,0,,,82,49
69120,note_on,0,0,1,,,,,,,,,0,,,70,49
69120,note_on,60,0,1,,,,,,,,,0,,,84,0
69150,note_on,30,0,3,,,,,,,,,2,,,62,0
69150,note_on,0,0,3,,,,,,,,,2,,,65,36
69180,note_on,0,0,1,,,,,,,,,0,,,69,49
69180,note_on,0,0,3,,,,,,,,,2,,,63,36
69180,note_on,30,0,3,,,,,,,,,2,,,65,0
69180,note_on,60,0,1,,,,,,,,,0,,,82,0
69180,control_change,0,0,1,,,,,,,,,0,64,0,,
69180,note_on,0,0,1,,,,,,,,,0,,,81,49
69180,note_on,0,0,1,,,,,,,,,0,,,70,0
69210,note_on,0,0,3,,,,,,,,,2,,,65,36
69210,note_on,30,0,3,,,,,,,,,2,,,63,0
69210,control_change,0,0,3,,,,,,,,,2,64,0,,
69240,note_on,0,0,1,,,,,,,,,0,,,69,0
69240,note_on,0,0,1,,,,,,,,,0,,,70,49
69240,note_on,0,0,1,,,,,,,,,0,,,82,49
69240,control_change,0,0,1,,,,,,,,,0,64,127,,
69240,control_change,0,0,3,,,,,,,,,2,64,127,,
69240,note_on,60,0,1,,,,,,,,,0,,,81,0
69240,note_on,0,0,3,,,,,,,,,2,,,62,36
69240,note_on,30,0,3,,,,,,,,,2,,,65,0
69270,note_on,0,0,1,,,,,,,,,0,,,77,49
69270,note_on,30,0,3,,,,,,,,,2,,,62,0
69270,note_on,0,0,3,,,,,,,,,2,,,65,36
69270,note_on,30,0,1,,,,,,,,,0,,,82,0
69270,note_on,0,0,1,,,,,,,,,0,,,70,0
69300,note_on,30,0,3,,,,,,,,,2,,,65,0
69300,note_on,0,0,3,,,,,,,,,2,,,53,75
69300,note_on,30,0,1,,,,,,,,,0,,,77,0
69300,note_on,0,0,1,,,,,,,,,0,,,74,106
69300,note_on,0,0,1,,,,,,,,,0,,,86,114
69330,note_on,30,0,3,,,,,,,,,2,,,53,0
69330,note_on,0,0,3,,,,,,,,,2,,,65,75
69360,note_on,30,0,3,,,,,,,,,2,,,65,0
69360,note_on,0,0,3,,,,,,,,,2,,,58,75
69390,note_on,0,0,3,,,,,,,,,2,,,65,75
69390,note_on,30,0,3,,,,,,,,,2,,,58,0
69420,note_on,0,0,1,,,,,,,,,0,,,84,88
69420,note_on,0,0,1,,,,,,,,,0,,,72,88
69420,note_on,0,0,1,,,,,,,,,0,,,74,0
69420,note_on,120,0,1,,,,,,,,,0,,,86,0
69420,note_on,30,0,3,,,,,,,,,2,,,65,0
69420,note_on,0,0,3,,,,,,,,,2,,,60,75
69450,note_on,30,0,3,,,,,,,,,2,,,60,0
69450,note_on,0,0,3,,,,,,,,,2,,,65,75
69480,note_on,0,0,1,,,,,,,,,0,,,70,88
69480,note_on,0,0,1,,,,,,,,,0,,,82,88
69480,note_on,0,0,1,,,,,,,,,0,,,72,0
69480,note_on,60,0,1,,,,,,,,,0,,,84,0
69480,note_on,0,0,3,,,,,,,,,2,,,62,75
69480,note_on,30,0,3,,,,,,,,,2,,,65,0
69510,note_on,0,0,3,,,,,,,,,2,,,65,75
69510,note_on,30,0,3,,,,,,,,,2,,,62,0
69540,note_on,0,0,1,,,,,,,,,0,,,70,0
69540,note_on,0,0,1,,,,,,,,,0,,,81,88
69540,control_change,0,0,1,,,,,,,,,0,64,0,,
69540,note_on,0,0,3,,,,,,,,,2,,,63,75
69540,note_on,30,0,3,,,,,,,,,2,,,65,0
69540,note_on,0,0,1,,,,,,,,,0,,,69,88
69540,note_on,60,0,1,,,,,,,,,0,,,82,0
69570,note_on,0,0,3,,,,,,,,,2,,,65,75
69570,control_change,0,0,3,,,,,,,,,2,64,0,,
69570,note_on,30,0,3,,,,,,,,,2,,,63,0
69600,control_change,0,0,3,,,,,,,,,2,64,127,,
69600,note_on,30,0,3,,,,,,,,,2,,,65,0
69600,note_on,60,0,1,,,,,,,,,0,,,81,0
69600,note_on,0,0,1,,,,,,,,,0,,,69,0
69600,note_on,0,0,1,,,,,,,,,0,,,70,88
69600,note_on,0,0,1,,,,,,,,,0,,,82,88
69600,control_change,0,0,1,,,,,,,,,0,64,127,,
69600,note_on,0,0,3,,,,,,,,,2,,,62,75
69630,note_on,0,0,1,,,,,,,,,0,,,70,0
69630,note_on,30,0,1,,,,,,,,,0,,,82,0
69630,note_on,0,0,1,,,,,,,,,0,,,77,88
69630,note_on,0,0,3,,,,,,,,,2,,,65,75
69630,note_on,30,0,3,,,,,,,,,2,,,62,0
69660,note_on,30,0,3,,,,,,,,,2,,,65,0
69660,note_on,0,0,1,,,,,,,,,0,,,86,75
69660,note_on,0,0,1,,,,,,,,,0,,,74,67
69660,note_on,30,0,1,,,,,,,,,0,,,77,0
69660,note_on,0,0,3,,,,,,,,,2,,,53,36
69690,note_on,30,0,3,,,,,,,,,2,,,53,0
69690,note_on,0,0,3,,,,,,,,,2,,,65,36
69720,note_on,30,0,3,,,,,,,,,2,,,65,0
69720,note_on,0,0,3,,,,,,,,,2,,,58,36
69750,note_on,0,0,3,,,,,,,,,2,,,65,36
69750,note_on,30,0,3,,,,,,,,,2,,,58,0
69780,note_on,0,0,3,,,,,,,,,2,,,60,36
69780,note_on,30,0,3,,,,,,,,,2,,,65,0
69780,note_on,0,0,1,,,,,,,,,0,,,72,49
69780,note_on,0,0,1,,,,,,,,,0,,,74,0
69780,note_on,0,0,1,,,,,,,,,0,,,84,49
69780,note_on,120,0,1,,,,,,,,,0,,,86,0
69810,note_on,30,0,3,,,,,,,,,2,,,60,0
69810,note_on,0,0,3,,,,,,,,,2,,,65,36
69840,note_on,30,0,3,,,,,,,,,2,,,65,0
69840,note_on,0,0,3,,,,,,,,,2,,,62,36
69840,note_on,0,0,1,,,,,,,,,0,,,72,0
69840,note_on,60,0,1,,,,,,,,,0,,,84,0
69840,note_on,0,0,1,,,,,,,,,0,,,70,49
69840,note_on,0,0,1,,,,,,,,,0,,,82,49
69870,note_on,30,0,3,,,,,,,,,2,,,62,0
69870,note_on,0,0,3,,,,,,,,,2,,,65,36
69900,note_on,30,0,3,,,,,,,,,2,,,65,0
69900,note_on,60,0,1,,,,,,,,,0,,,82,0
69900,note_on,0,0,1,,,,,,,,,0,,,70,0
69900,note_on,0,0,1,,,,,,,,,0,,,69,49
69900,note_on,0,0,1,,,,,,,,,0,,,81,49
69900,control_change,0,0,1,,,,,,,,,0,64,0,,
69900,note_on,0,0,3,,,,,,,,,2,,,63,36
69930,note_on,0,0,3,,,,,,,,,2,,,65,36
69930,control_change,0,0,3,,,,,,,,,2,64,0,,
69930,note_on,30,0,3,,,,,,,,,2,,,63,0
69960,control_change,0,0,1,,,,,,,,,0,64,127,,
69960,note_on,60,0,1,,,,,,,,,0,,,81,0
69960,note_on,30,0,3,,,,,,,,,2,,,65,0
69960,note_on,0,0,3,,,,,,,,,2,,,58,36
69960,note_on,0,0,3,,,,,,,,,2,,,62,36
69960,note_on,0,0,1,,,,,,,,,0,,,82,49
69960,note_on,0,0,1,,,,,,,,,0,,,69,0
69990,note_on,0,0,1,,,,,,,,,0,,,86,49
69990,note_on,30,0,1,,,,,,,,,0,,,82,0
70020,note_on,0,0,1,,,,,,,,,0,,,85,49
70020,note_on,30,0,1,,,,,,,,,0,,,86,0
70050,note_on,30,0,1,,,,,,,,,0,,,85,0
70050,note_on,0,0,1,,,,,,,,,0,,,86,49
70080,note_on,0,0,3,,,,,,,,,2,,,58,0
70080,note_on,120,0,3,,,,,,,,,2,,,62,0
70080,note_on,0,0,1,,,,,,,,,0,,,91,49
70080,note_on,30,0,1,,,,,,,,,0,,,86,0
70110,note_on,30,0,1,,,,,,,,,0,,,91,0
70110,note_on,0,0,1,,,,,,,,,0,,,89,49
70140,note_on,30,0,1,,,,,,,,,0,,,89,0
70140,note_on,0,0,1,,,,,,,,,0,,,81,49
70170,note_on,30,0,1,,,,,,,,,0,,,81,0
70170,note_on,0,0,1,,,,,,,,,0,,,82,49
70200,note_on,30,0,1,,,,,,,,,0,,,82,0
70200,note_on,0,0,1,,,,,,,,,0,,,87,62
70230,note_on,30,0,1,,,,,,,,,0,,,87,0
70230,note_on,0,0,1,,,,,,,,,0,,,86,62
70260,note_on,0,0,1,,,,,,,,,0,,,76,62
70260,note_on,30,0,1,,,,,,,,,0,,,86,0
70290,note_on,30,0,1,,,,,,,,,0,,,76,0
70290,note_on,0,0,1,,,,,,,,,0,,,77,62
70320,note_on,30,0,1,,,,,,,,,0,,,77,0
70320,note_on,0,0,1,,,,,,,,,0,,,84,62
70350,note_on,0,0,1,,,,,,,,,0,,,82,62
70350,note_on,30,0,1,,,,,,,,,0,,,84,0
70380,note_on,0,0,1,,,,,,,,,0,,,73,62
70380,note_on,30,0,1,,,,,,,,,0,,,82,0
70410,note_on,30,0,1,,,,,,,,,0,,,73,0
70410,note_on,0,0,1,,,,,,,,,0,,,74,62
70440,note_on,30,0,1,,,,,,,,,0,,,74,0
70440,note_on,0,0,1,,,,,,,,,0,,,79,75
70470,note_on,30,0,1,,,,,,,,,0,,,79,0
70470,note_on,0,0,1,,,,,,,,,0,,,77,75
70500,note_on,30,0,1,,,,,,,,,0,,,77,0
70500,note_on,0,0,1,,,,,,,,,0,,,69,75
70530,note_on,30,0,1,,,,,,,,,0,,,69,0
70530,note_on,0,0,1,,,,,,,,,0,,,70,75
70560,note_on,30,0,1,,,,,,,,,0,,,70,0
70560,note_on,0,0,1,,,,,,,,,0,,,75,75
70590,note_on,30,0,1,,,,,,,,,0,,,75,0
70590,note_on,0,0,1,,,,,,,,,0,,,74,75
70620,note_on,30,0,1,,,,,,,,,0,,,74,0
70620,note_on,0,0,1,,,,,,,,,0,,,64,75
70650,note_on,0,0,1,,,,,,,,,0,,,65,75
70650,note_on,30,0,1,,,,,,,,,0,,,64,0
70650,control_change,0,0,1,,,,,,,,,0,64,0,,
70680,control_change,0,0,1,,,,,,,,,0,64,127,,
70680,note_on,0,0,1,,,,,,,,,0,,,73,88
70680,note_on,30,0,1,,,,,,,,,0,,,65,0
70680,note_on,600,0,3,,,,,,,,,2,,,43,75
70680,note_on,0,0,3,,,,,,,,,2,,,52,75
70680,note_on,0,0,3,,,,,,,,,2,,,49,75
70680,note_on,0,0,3,,,,,,,,,2,,,46,75
70710,note_on,30,0,1,,,,,,,,,0,,,73,0
70710,note_on,0,0,1,,,,,,,,,0,,,64,88
70740,note_on,30,0,1,,,,,,,,,0,,,64,0
70740,note_on,0,0,1,,,,,,,,,0,,,67,88
70770,note_on,30,0,1,,,,,,,,,0,,,67,0
70770,note_on,0,0,1,,,,,,,,,0,,,70,88
70800,note_on,30,0,1,,,,,,,,,0,,,70,0
70800,note_on,0,0,1,,,,,,,,,0,,,73,88
70830,note_on,30,0,1,,,,,,,,,0,,,73,0
70830,note_on,0,0,1,,,,,,,,,0,,,76,88
70860,note_on,0,0,1,,,,,,,,,0,,,79,88
70860,note_on,30,0,1,,,,,,,,,0,,,76,0
70890,note_on,30,0,1,,,,,,,,,0,,,79,0
70890,note_on,0,0,1,,,,,,,,,0,,,82,88
70920,note_on,30,0,1,,,,,,,,,0,,,82,0
70920,control_change,0,0,1,,,,,,,,,0,64,0,,
70920,note_on,0,0,1,,,,,,,,,0,,,85,88
70926,note_on,6,0,1,,,,,,,,,0,,,85,0
70980,note_on,0,0,3,,,,,,,,,2,,,49,0
70980,note_on,0,0,3,,,,,,,,,2,,,46,0
70980,note_on,0,0,3,,,,,,,,,2,,,43,0
70980,note_on,300,0,3,,,,,,,,,2,,,52,0
71040,note_on,0,0,1,,,,,,,,,0,,,87,123
71040,note_on,0,0,3,,,,,,,,,2,,,57,114
71040,note_on,0,0,1,,,,,,,,,0,,,84,119
71040,note_on,114,0,1,,,,,,,,,0,,,77,115
71040,note_on,0,0,1,,,,,,,,,0,,,89,127
71040,control_change,60,0,3,,,,,,,,,2,64,127,,
71070,note_on,30,0,3,,,,,,,,,2,,,57,0
71070,note_on,0,0,3,,,,,,,,,2,,,45,114
71100,note_on,30,0,3,,,,,,,,,2,,,45,0
71100,note_on,0,0,3,,,,,,,,,2,,,48,114
71130,note_on,0,0,3,,,,,,,,,2,,,51,114
71130,note_on,30,0,3,,,,,,,,,2,,,48,0
71160,note_on,30,0,3,,,,,,,,,2,,,51,0
71160,note_on,0,0,3,,,,,,,,,2,,,53,114
71190,note_on,30,0,3,,,,,,,,,2,,,53,0
71190,note_on,0,0,3,,,,,,,,,2,,,57,114
71220,note_on,30,0,3,,,,,,,,,2,,,57,0
71220,note_on,0,0,3,,,,,,,,,2,,,60,114
71250,note_on,30,0,3,,,,,,,,,2,,,60,0
71250,note_on,0,0,3,,,,,,,,,2,,,65,114
71280,note_on,30,0,3,,,,,,,,,2,,,65,0
71280,control_change,0,0,3,,,,,,,,,2,64,0,,
71280,note_on,0,0,3,,,,,,,,,2,,,69,114
71286,note_on,6,0,3,,,,,,,,,2,,,69,0
71340,note_on,300,0,1,,,,,,,,,0,,,89,0
71340,note_on,0,0,1,,,,,,,,,0,,,77,0
71340,note_on,0,0,1,,,,,,,,,0,,,84,0
71340,note_on,0,0,1,,,,,,,,,0,,,87,0
71400,note_on,0,0,3,,,,,,,,,2,,,70,49
71400,control_change,114,0,3,,,,,,,,,2,64,127,,
71400,control_change,60,0,1,,,,,,,,,0,64,127,,
71400,note_on,0,0,1,,,,,,,,,0,,,86,49
71430,note_on,0,0,1,,,,,,,,,0,,,82,49
71430,note_on,30,0,1,,,,,,,,,0,,,86,0
71460,note_on,30,0,1,,,,,,,,,0,,,82,0
71460,note_on,0,0,3,,,,,,,,,2,,,63,49
71460,note_on,60,0,3,,,,,,,,,2,,,70,0
71460,note_on,0,0,1,,,,,,,,,0,,,79,49
71490,note_on,0,0,1,,,,,,,,,0,,,75,49
71490,note_on,30,0,1,,,,,,,,,0,,,79,0
71520,note_on,60,0,3,,,,,,,,,2,,,63,0
71520,note_on,0,0,1,,,,,,,,,0,,,74,49
71520,note_on,30,0,1,,,,,,,,,0,,,75,0
71520,note_on,0,0,3,,,,,,,,,2,,,65,49
71640,note_on,120,0,1,,,,,,,,,0,,,74,0
71640,control_change,0,0,3,,,,,,,,,2,64,0,,
71640,note_on,0,0,3,,,,,,,,,2,,,53,49
71640,note_on,0,0,3,,,,,,,,,2,,,63,49
71640,note_on,0,0,1,,,,,,,,,0,,,77,75
71640,note_on,0,0,1,,,,,,,,,0,,,69,67
71640,control_change,0,0,1,,,,,,,,,0,64,0,,
71640,note_on,120,0,3,,,,,,,,,2,,,65,0
71760,note_on,120,0,3,,,,,,,,,2,,,63,0
71760,note_on,0,0,3,,,,,,,,,2,,,53,0
71760,control_change,0,0,1,,,,,,,,,0,64,127,,
71760,note_on,120,0,1,,,,,,,,,0,,,77,0
71760,note_on,0,0,1,,,,,,,,,0,,,69,0
71760,note_on,21600,0,4,,,,,,,,,3,,,46,36
71760,note_on,0,0,1,,,,,,,,,0,,,70,49
71760,control_change,0,0,3,,,,,,,,,2,64,127,,
71760,note_on,0,0,3,,,,,,,,,2,,,46,36
71790,note_on,30,0,3,,,,,,,,,2,,,46,0
71790,note_on,0,0,3,,,,,,,,,2,,,58,36
71820,note_on,30,0,3,,,,,,,,,2,,,58,0
71820,note_on,0,0,3,,,,,,,,,2,,,50,36
71850,note_on,30,0,3,,,,,,,,,2,,,50,0
71850,note_on,0,0,3,,,,,,,,,2,,,58,36
71880,note_on,0,0,1,,,,,,,,,0,,,74,49
71880,note_on,30,0,3,,,,,,,,,2,,,58,0
71880,note_on,0,0,3,,,,,,,,,2,,,53,36
71880,note_on,120,0,1,,,,,,,,,0,,,70,0
71880,note_on,0,0,1,,,,,,,,,0,,,62,49
71910,note_on,30,0,3,,,,,,,,,2,,,53,0
71910,note_on,0,0,3,,,,,,,,,2,,,58,36
71940,note_on,30,0,3,,,,,,,,,2,,,58,0
71940,note_on,0,0,3,,,,,,,,,2,,,56,36
71970,note_on,30,0,3,,,,,,,,,2,,,56,0
71970,note_on,0,0,3,,,,,,,,,2,,,58,36
72000,note_on,0,0,1,,,,,,,,,0,,,62,0
72000,note_on,0,0,1,,,,,,,,,0,,,65,49
72000,note_on,30,0,3,,,,,,,,,2,,,58,0
72000,note_on,0,0,3,,,,,,,,,2,,,53,36
72000,note_on,120,0,1,,,,,,,,,0,,,74,0
72000,note_on,0,0,1,,,,,,,,,0,,,77,49
72030,note_on,30,0,3,,,,,,,,,2,,,53,0
72030,note_on,0,0,3,,,,,,,,,2,,,58,36
72060,note_on,30,0,3,,,,,,,,,2,,,58,0
72060,note_on,0,0,3,,,,,,,,,2,,,50,36
72090,note_on,30,0,3,,,,,,,,,2,,,50,0
72090,note_on,0,0,3,,,,,,,,,2,,,58,36
72120,note_on,120,0,1,,,,,,,,,0,,,77,0
72120,note_on,0,0,1,,,,,,,,,0,,,65,0
72120,note_on,0,0,1,,,,,,,,,0,,,70,67
72120,note_on,0,0,1,,,,,,,,,0,,,82,75
72120,note_on,360,0,4,,,,,,,,,3,,,46,0
72120,note_on,0,0,4,,,,,,,,,3,,,46,36
72120,note_on,30,0,3,,,,,,,,,2,,,58,0
72120,note_on,0,0,3,,,,,,,,,2,,,46,36
72150,note_on,30,0,3,,,,,,,,,2,,,46,0
72150,note_on,0,0,3,,,,,,,,,2,,,58,36
72180,note_on,30,0,3,,,,,,,,,2,,,58,0
72180,note_on,0,0,3,,,,,,,,,2,,,50,36
72210,note_on,30,0,3,,,,,,,,,2,,,50,0
72210,note_on,0,0,3,,,,,,,,,2,,,58,36
72240,note_on,120,0,1,,,,,,,,,0,,,82,0
72240,note_on,0,0,1,,,,,,,,,0,,,70,0
72240,note_on,0,0,1,,,,,,,,,0,,,86,49
72240,control_change,0,0,1,,,,,,,,,0,64,0,,
72240,note_on,0,0,3,,,,,,,,,2,,,53,36
72240,note_on,0,0,1,,,,,,,,,0,,,74,49
72240,note_on,30,0,3,,,,,,,,,2,,,58,0
72270,note_on,0,0,3,,,,,,,,,2,,,58,36
72270,note_on,30,0,3,,,,,,,,,2,,,53,0
72300,note_on,0,0,3,,,,,,,,,2,,,56,36
72300,note_on,30,0,3,,,,,,,,,2,,,58,0
72330,note_on,0,0,3,,,,,,,,,2,,,58,36
72330,note_on,30,0,3,,,,,,,,,2,,,56,0
72360,note_on,0,0,1,,,,,,,,,0,,,74,0
72360,note_on,120,0,1,,,,,,,,,0,,,86,0
72360,note_on,0,0,3,,,,,,,,,2,,,53,36
72360,note_on,30,0,3,,,,,,,,,2,,,58,0
72390,note_on,0,0,3,,,,,,,,,2,,,58,36
72390,note_on,30,0,3,,,,,,,,,2,,,53,0
72420,note_on,0,0,3,,,,,,,,,2,,,50,36
72420,note_on,30,0,3,,,,,,,,,2,,,58,0
72450,note_on,0,0,3,,,,,,,,,2,,,58,36
72450,control_change,0,0,3,,,,,,,,,2,64,0,,
72450,note_on,30,0,3,,,,,,,,,2,,,50,0
72480,note_on,0,0,3,,,,,,,,,2,,,46,36
72480,note_on,30,0,3,,,,,,,,,2,,,58,0
72480,control_change,0,0,3,,,,,,,,,2,64,127,,
72480,note_on,0,0,4,,,,,,,,,3,,,46,36
72480,note_on,360,0,4,,,,,,,,,3,,,46,0
72480,control_change,120,0,1,,,,,,,,,0,64,127,,
72480,note_on,0,0,1,,,,,,,,,0,,,70,49
72510,note_on,0,0,3,,,,,,,,,2,,,58,36
72510,note_on,30,0,3,,,,,,,,,2,,,46,0
72540,note_on,0,0,3,,,,,,,,,2,,,51,36
72540,note_on,30,0,3,,,,,,,,,2,,,58,0
72570,note_on,0,0,3,,,,,,,,,2,,,58,36
72570,note_on,30,0,3,,,,,,,,,2,,,51,0
72600,note_on,0,0,1,,,,,,,,,0,,,63,49
72600,note_on,0,0,1,,,,,,,,,0,,,75,49
72600,note_on,120,0,1,,,,,,,,,0,,,70,0
72600,note_on,0,0,3,,,,,,,,,2,,,55,36
72600,note_on,30,0,3,,,,,,,,,2,,,58,0
72630,note_on,30,0,3,,,,,,,,,2,,,55,0
72630,note_on,0,0,3,,,,,,,,,2,,,58,36
72660,note_on,30,0,3,,,,,,,,,2,,,58,0
72660,note_on,0,0,3,,,,,,,,,2,,,57,36
72690,note_on,30,0,3,,,,,,,,,2,,,57,0
72690,note_on,0,0,3,,,,,,,,,2,,,58,36
72720,note_on,0,0,1,,,,,,,,,0,,,79,49
72720,note_on,0,0,1,,,,,,,,,0,,,67,49
72720,note_on,0,0,1,,,,,,,,,0,,,63,0
72720,note_on,120,0,1,,,,,,,,,0,,,75,0
72720,note_on,30,0,3,,,,,,,,,2,,,58,0
72720,note_on,0,0,3,,,,,,,,,2,,,55,36
72750,note_on,30,0,3,,,,,,,,,2,,,55,0
72750,note_on,0,0,3,,,,,,,,,2,,,58,36
72780,note_on,30,0,3,,,,,,,,,2,,,58,0
72780,note_on,0,0,3,,,,,,,,,2,,,51,36
72810,note_on,0,0,3,,,,,,,,,2,,,58,36
72810,note_on,30,0,3,,,,,,,,,2,,,51,0
72840,note_on,360,0,4,,,,,,,,,3,,,46,0
72840,note_on,0,0,4,,,,,,,,,3,,,46,36
72840,note_on,0,0,3,,,,,,,,,2,,,46,36
72840,note_on,30,0,3,,,,,,,,,2,,,58,0
72840,note_on,0,0,1,,,,,,,,,0,,,67,0
72840,note_on,0,0,1,,,,,,,,,0,,,82,75
72840,note_on,120,0,1,,,,,,,,,0,,,79,0
72840,note_on,0,0,1,,,,,,,,,0,,,70,67
72870,note_on,30,0,3,,,,,,,,,2,,,46,0
72870,note_on,0,0,3,,,,,,,,,2,,,58,36
72900,note_on,30,0,3,,,,,,,,,2,,,58,0
72900,note_on,0,0,3,,,,,,,,,2,,,51,36
72930,note_on,0,0,3,,,,,,,,,2,,,58,36
72930,note_on,30,0,3,,,,,,,,,2,,,51,0
72960,note_on,30,0,3,,,,,,,,,2,,,58,0
72960,note_on,0,0,1,,,,,,,,,0,,,75,49
72960,note_on,0,0,1,,,,,,,,,0,,,87,49
72960,note_on,0,0,1,,,,,,,,,0,,,70,0
72960,note_on,120,0,1,,,,,,,,,0,,,82,0
72960,note_on,0,0,3,,,,,,,,,2,,,55,36
72990,note_on,30,0,3,,,,,,,,,2,,,55,0
72990,note_on,0,0,3,,,,,,,,,2,,,58,36
73020,note_on,30,0,3,,,,,,,,,2,,,58,0
73020,note_on,0,0,3,,,,,,,,,2,,,57,36
73050,note_on,30,0,3,,,,,,,,,2,,,57,0
73050,note_on,0,0,3,,,,,,,,,2,,,58,36
73080,note_on,120,0,1,,,,,,,,,0,,,87,0
73080,control_change,0,0,1,,,,,,,,,0,64,0,,
73080,note_on,30,0,3,,,,,,,,,2,,,58,0
73080,note_on,0,0,3,,,,,,,,,2,,,55,36
73080,note_on,0,0,1,,,,,,,,,0,,,75,0
73110,note_on,30,0,3,,,,,,,,,2,,,55,0
73110,note_on,0,0,3,,,,,,,,,2,,,58,36
73140,note_on,30,0,3,,,,,,,,,2,,,58,0
73140,note_on,0,0,3,,,,,,,,,2,,,51,36
73170,note_on,0,0,3,,,,,,,,,2,,,58,36
73170,note_on,30,0,3,,,,,,,,,2,,,51,0
73170,control_change,0,0,3,,,,,,,,,2,64,0,,
73200,note_on,0,0,1,,,,,,,,,0,,,78,88
73200,note_on,0,0,1,,,,,,,,,0,,,90,88
73200,note_on,0,0,3,,,,,,,,,2,,,46,36
73200,note_on,0,0,4,,,,,,,,,3,,,46,36
73200,control_change,0,0,3,,,,,,,,,2,64,127,,
73200,note_on,30,0,3,,,,,,,,,2,,,58,0
73200,note_on,360,0,4,,,,,,,,,3,,,46,0
73200,control_change,120,0,1,,,,,,,,,0,64,127,,
73230,note_on,0,0,3,,,,,,,,,2,,,57,36
73230,note_on,30,0,3,,,,,,,,,2,,,46,0
73260,note_on,30,0,3,,,,,,,,,2,,,57,0
73260,note_on,0,0,3,,,,,,,,,2,,,48,36
73290,note_on,0,0,3,,,,,,,,,2,,,57,36
73290,note_on,30,0,3,,,,,,,,,2,,,48,0
73320,note_on,30,0,3,,,,,,,,,2,,,57,0
73320,note_on,0,0,3,,,,,,,,,2,,,51,36
73320,note_on,120,0,1,,,,,,,,,0,,,78,0
73350,note_on,0,0,3,,,,,,,,,2,,,57,36
73350,note_on,30,0,3,,,,,,,,,2,,,51,0
73350,note_on,30,0,1,,,,,,,,,0,,,90,0
73350,note_on,0,0,1,,,,,,,,,0,,,87,49
73380,note_on,0,0,1,,,,,,,,,0,,,84,49
73380,note_on,30,0,1,,,,,,,,,0,,,87,0
73380,note_on,30,0,3,,,,,,,,,2,,,57,0
73380,note_on,0,0,3,,,,,,,,,2,,,54,36
73410,note_on,0,0,1,,,,,,,,,0,,,81,49
73410,note_on,30,0,1,,,,,,,,,0,,,84,0
73410,note_on,30,0,3,,,,,,,,,2,,,54,0
73410,note_on,0,0,3,,,,,,,,,2,,,57,36
73440,note_on,0,0,1,,,,,,,,,0,,,78,49
73440,note_on,30,0,1,,,,,,,,,0,,,81,0
73440,note_on,30,0,3,,,,,,,,,2,,,57,0
73440,note_on,0,0,3,,,,,,,,,2,,,51,36
73470,note_on,30,0,1,,,,,,,,,0,,,78,0
73470,note_on,0,0,1,,,,,,,,,0,,,75,49
73470,note_on,0,0,3,,,,,,,,,2,,,57,36
73470,note_on,30,0,3,,,,,,,,,2,,,51,0
73500,note_on,30,0,1,,,,,,,,,0,,,75,0
73500,note_on,0,0,1,,,,,,,,,0,,,72,49
73500,note_on,30,0,3,,,,,,,,,2,,,57,0
73500,note_on,0,0,3,,,,,,,,,2,,,48,36
73530,note_on,30,0,3,,,,,,,,,2,,,48,0
73530,note_on,0,0,1,,,,,,,,,0,,,69,49
73530,note_on,30,0,1,,,,,,,,,0,,,72,0
73530,note_on,0,0,3,,,,,,,,,2,,,57,36
73560,note_on,0,0,3,,,,,,,,,2,,,46,36
73560,note_on,30,0,3,,,,,,,,,2,,,57,0
73560,note_on,0,0,4,,,,,,,,,3,,,46,36
73560,note_on,30,0,1,,,,,,,,,0,,,69,0
73560,control_change,0,0,1,,,,,,,,,0,64,0,,
73560,note_on,0,0,1,,,,,,,,,0,,,70,49
73560,note_on,360,0,4,,,,,,,,,3,,,46,0
73590,note_on,0,0,3,,,,,,,,,2,,,58,36
73590,note_on,30,0,3,,,,,,,,,2,,,46,0
73620,note_on,0,0,3,,,,,,,,,2,,,50,36
73620,note_on,60,0,1,,,,,,,,,0,,,70,0
73620,note_on,30,0,3,,,,,,,,,2,,,58,0
73650,note_on,30,0,3,,,,,,,,,2,,,50,0
73650,note_on,0,0,3,,,,,,,,,2,,,58,36
73680,note_on,0,0,3,,,,,,,,,2,,,53,36
73680,note_on,30,0,3,,,,,,,,,2,,,58,0
73710,note_on,30,0,3,,,,,,,,,2,,,53,0
73710,note_on,0,0,3,,,,,,,,,2,,,58,36
73740,note_on,30,0,3,,,,,,,,,2,,,58,0
73740,note_on,0,0,3,,,,,,,,,2,,,57,36
73770,note_on,0,0,3,,,,,,,,,2,,,58,36
73770,note_on,30,0,3,,,,,,,,,2,,,57,0
73800,note_on,0,0,3,,,,,,,,,2,,,53,36
73800,note_on,30,0,3,,,,,,,,,2,,,58,0
73830,note_on,0,0,3,,,,,,,,,2,,,58,36
73830,note_on,30,0,3,,,,,,,,,2,,,53,0
73860,note_on,0,0,3,,,,,,,,,2,,,50,36
73860,note_on,30,0,3,,,,,,,,,2,,,58,0
73890,note_on,30,0,3,,,,,,,,,2,,,50,0
73890,control_change,0,0,3,,,,,,,,,2,64,0,,
73890,note_on,0,0,3,,,,,,,,,2,,,58,36
73920,note_on,0,0,3,,,,,,,,,2,,,34,36
73920,note_on,360,0,4,,,,,,,,,3,,,46,0
73920,control_change,300,0,1,,,,,,,,,0,64,127,,
73920,note_on,30,0,3,,,,,,,,,2,,,58,0
73920,note_on,34920,0,2,,,,,,,,,1,,,58,36
73920,control_change,0,0,3,,,,,,,,,2,64,127,,
73920,note_on,0,0,3,,,,,,,,,2,,,46,36
73920,note_on,0,0,1,,,,,,,,,0,,,58,36
73950,note_on,30,0,1,,,,,,,,,0,,,58,0
73950,note_on,0,0,1,,,,,,,,,0,,,70,36
73980,note_on,30,0,1,,,,,,,,,0,,,70,0
73980,note_on,0,0,1,,,,,,,,,0,,,62,36
74010,note_on,30,0,1,,,,,,,,,0,,,62,0
74010,note_on,0,0,1,,,,,,,,,0,,,70,36
74040,note_on,30,0,1,,,,,,,,,0,,,70,0
74040,note_on,0,0,1,,,,,,,,,0,,,65,36
74040,note_on,120,0,3,,,,,,,,,2,,,46,0
74040,note_on,0,0,3,,,,,,,,,2,,,34,0
74040,note_on,0,0,3,,,,,,,,,2,,,38,36
74070,note_on,30,0,1,,,,,,,,,0,,,65,0
74070,note_on,0,0,1,,,,,,,,,0,,,70,36
74100,note_on,30,0,1,,,,,,,,,0,,,70,0
74100,note_on,0,0,1,,,,,,,,,0,,,68,36
74130,note_on,30,0,1,,,,,,,,,0,,,68,0
74130,note_on,0,0,1,,,,,,,,,0,,,70,36
74160,note_on,0,0,3,,,,,,,,,2,,,41,36
74160,note_on,30,0,1,,,,,,,,,0,,,70,0
74160,note_on,0,0,1,,,,,,,,,0,,,65,36
74160,note_on,120,0,3,,,,,,,,,2,,,38,0
74190,note_on,30,0,1,,,,,,,,,0,,,65,0
74190,note_on,0,0,1,,,,,,,,,0,,,70,36
74220,note_on,30,0,1,,,,,,,,,0,,,70,0
74220,note_on,0,0,1,,,,,,,,,0,,,62,36
74250,note_on,0,0,1,,,,,,,,,0,,,70,36
74250,note_on,30,0,1,,,,,,,,,0,,,62,0
74280,note_on,30,0,1,,,,,,,,,0,,,70,0
74280,note_on,0,0,1,,,,,,,,,0,,,58,36
74280,note_on,0,0,2,,,,,,,,,1,,,58,36
74280,note_on,360,0,2,,,,,,,,,1,,,58,0
74280,note_on,0,0,3,,,,,,,,,2,,,46,62
74280,note_on,120,0,3,,,,,,,,,2,,,41,0
74310,note_on,30,0,1,,,,,,,,,0,,,58,0
74310,note_on,0,0,1,,,,,,,,,0,,,70,36
74340,note_on,0,0,1,,,,,,,,,0,,,62,36
74340,note_on,30,0,1,,,,,,,,,0,,,70,0
74370,note_on,0,0,1,,,,,,,,,0,,,70,36
74370,note_on,30,0,1,,,,,,,,,0,,,62,0
74400,note_on,0,0,3,,,,,,,,,2,,,50,36
74400,control_change,0,0,3,,,,,,,,,2,64,0,,
74400,note_on,120,0,3,,,,,,,,,2,,,46,0
74400,note_on,30,0,1,,,,,,,,,0,,,70,0
74400,note_on,0,0,1,,,,,,,,,0,,,65,36
74430,note_on,30,0,1,,,,,,,,,0,,,65,0
74430,note_on,0,0,1,,,,,,,,,0,,,70,36
74460,note_on,30,0,1,,,,,,,,,0,,,70,0
74460,note_on,0,0,1,,,,,,,,,0,,,68,36
74490,note_on,30,0,1,,,,,,,,,0,,,68,0
74490,note_on,0,0,1,,,,,,,,,0,,,70,36
74520,note_on,0,0,1,,,,,,,,,0,,,65,36
74520,note_on,120,0,3,,,,,,,,,2,,,50,0
74520,note_on,30,0,1,,,,,,,,,0,,,70,0
74550,note_on,0,0,1,,,,,,,,,0,,,70,36
74550,note_on,30,0,1,,,,,,,,,0,,,65,0
74580,note_on,30,0,1,,,,,,,,,0,,,70,0
74580,note_on,0,0,1,,,,,,,,,0,,,62,36
74610,note_on,30,0,1,,,,,,,,,0,,,62,0
74610,control_change,0,0,1,,,,,,,,,0,64,0,,
74610,note_on,0,0,1,,,,,,,,,0,,,70,36
74640,note_on,0,0,3,,,,,,,,,2,,,34,36
74640,note_on,360,0,2,,,,,,,,,1,,,58,0
74640,note_on,0,0,2,,,,,,,,,1,,,58,36
74640,note_on,30,0,1,,,,,,,,,0,,,70,0
74640,control_change,0,0,1,,,,,,,,,0,64,127,,
74640,note_on,0,0,1,,,,,,,,,0,,,58,36
74640,control_change,120,0,3,,,,,,,,,2,64,127,,
74670,note_on,30,0,1,,,,,,,,,0,,,58,0
74670,note_on,0,0,1,,,,,,,,,0,,,70,36
74700,note_on,30,0,1,,,,,,,,,0,,,70,0
74700,note_on,0,0,1,,,,,,,,,0,,,63,36
74730,note_on,0,0,1,,,,,,,,,0,,,70,36
74730,note_on,30,0,1,,,,,,,,,0,,,63,0
74760,note_on,0,0,1,,,,,,,,,0,,,67,36
74760,note_on,30,0,1,,,,,,,,,0,,,70,0
74760,note_on,0,0,3,,,,,,,,,2,,,39,36
74760,note_on,120,0,3,,,,,,,,,2,,,34,0
74790,note_on,30,0,1,,,,,,,,,0,,,67,0
74790,note_on,0,0,1,,,,,,,,,0,,,70,36
74820,note_on,30,0,1,,,,,,,,,0,,,70,0
74820,note_on,0,0,1,,,,,,,,,0,,,69,36
74850,note_on,30,0,1,,,,,,,,,0,,,69,0
74850,note_on,0,0,1,,,,,,,,,0,,,70,36
74880,note_on,30,0,1,,,,,,,,,0,,,70,0
74880,note_on,120,0,3,,,,,,,,,2,,,39,0
74880,note_on,0,0,3,,,,,,,,,2,,,43,36
74880,note_on,0,0,1,,,,,,,,,0,,,67,36
74910,note_on,30,0,1,,,,,,,,,0,,,67,0
74910,note_on,0,0,1,,,,,,,,,0,,,70,36
74940,note_on,0,0,1,,,,,,,,,0,,,63,36
74940,note_on,30,0,1,,,,,,,,,0,,,70,0
74970,note_on,0,0,1,,,,,,,,,0,,,70,36
74970,note_on,30,0,1,,,,,,,,,0,,,63,0
75000,note_on,0,0,2,,,,,,,,,1,,,58,36
75000,note_on,360,0,2,,,,,,,,,1,,,58,0
75000,note_on,30,0,1,,,,,,,,,0,,,70,0
75000,note_on,0,0,1,,,,,,,,,0,,,58,36
75000,note_on,0,0,3,,,,,,,,,2,,,46,62
75000,note_on,120,0,3,,,,,,,,,2,,,43,0
75030,note_on,30,0,1,,,,,,,,,0,,,58,0
75030,note_on,0,0,1,,,,,,,,,0,,,70,36
75060,note_on,30,0,1,,,,,,,,,0,,,70,0
75060,note_on,0,0,1,,,,,,,,,0,,,63,36
75090,note_on,0,0,1,,,,,,,,,0,,,70,36
75090,note_on,30,0,1,,,,,,,,,0,,,63,0
75120,note_on,0,0,1,,,,,,,,,0,,,67,36
75120,note_on,30,0,1,,,,,,,,,0,,,70,0
75120,control_change,0,0,3,,,,,,,,,2,64,0,,
75120,note_on,0,0,3,,,,,,,,,2,,,51,36
75120,note_on,120,0,3,,,,,,,,,2,,,46,0
75150,note_on,30,0,1,,,,,,,,,0,,,67,0
75150,note_on,0,0,1,,,,,,,,,0,,,70,36
75180,note_on,30,0,1,,,,,,,,,0,,,70,0
75180,note_on,0,0,1,,,,,,,,,0,,,69,36
75210,note_on,0,0,1,,,,,,,,,0,,,70,36
75210,note_on,30,0,1,,,,,,,,,0,,,69,0
75240,note_on,30,0,1,,,,,,,,,0,,,70,0
75240,note_on,0,0,1,,,,,,,,,0,,,67,36
75240,note_on,120,0,3,,,,,,,,,2,,,51,0
75270,note_on,30,0,1,,,,,,,,,0,,,67,0
75270,note_on,0,0,1,,,,,,,,,0,,,70,36
75300,note_on,30,0,1,,,,,,,,,0,,,70,0
75300,note_on,0,0,1,,,,,,,,,0,,,63,36
75330,note_on,0,0,1,,,,,,,,,0,,,70,36
75330,note_on,30,0,1,,,,,,,,,0,,,63,0
75330,control_change,0,0,1,,,,,,,,,0,64,0,,
75360,note_on,0,0,1,,,,,,,,,0,,,58,36
75360,note_on,0,0,3,,,,,,,,,2,,,54,88
75360,control_change,120,0,3,,,,,,,,,2,64,127,,
75360,control_change,0,0,1,,,,,,,,,0,64,127,,
75360,note_on,30,0,1,,,,,,,,,0,,,70,0
75360,note_on,0,0,2,,,,,,,,,1,,,58,36
75360,note_on,360,0,2,,,,,,,,,1,,,58,0
75390,note_on,0,0,1,,,,,,,,,0,,,69,36
75390,note_on,30,0,1,,,,,,,,,0,,,58,0
75420,note_on,0,0,1,,,,,,,,,0,,,60,36
75420,note_on,30,0,1,,,,,,,,,0,,,69,0
75450,note_on,0,0,1,,,,,,,,,0,,,69,36
75450,note_on,30,0,1,,,,,,,,,0,,,60,0
75480,note_on,30,0,1,,,,,,,,,0,,,69,0
75480,note_on,0,0,1,,,,,,,,,0,,,63,36
75510,note_on,30,0,1,,,,,,,,,0,,,63,0
75510,note_on,0,0,1,,,,,,,,,0,,,69,36
75510,note_on,0,0,3,,,,,,,,,2,,,51,36
75510,note_on,150,0,3,,,,,,,,,2,,,54,0
75540,note_on,30,0,3,,,,,,,,,2,,,51,0
75540,note_on,0,0,1,,,,,,,,,0,,,66,36
75540,note_on,30,0,1,,,,,,,,,0,,,69,0
75540,note_on,0,0,3,,,,,,,,,2,,,48,36
75570,note_on,0,0,1,,,,,,,,,0,,,69,36
75570,note_on,30,0,1,,,,,,,,,0,,,66,0
75570,note_on,0,0,3,,,,,,,,,2,,,45,36
75570,note_on,30,0,3,,,,,,,,,2,,,48,0
75600,note_on,0,0,3,,,,,,,,,2,,,42,36
75600,note_on,30,0,1,,,,,,,,,0,,,69,0
75600,note_on,0,0,1,,,,,,,,,0,,,63,36
75600,note_on,30,0,3,,,,,,,,,2,,,45,0
75630,note_on,0,0,3,,,,,,,,,2,,,39,36
75630,note_on,30,0,3,,,,,,,,,2,,,42,0
75630,note_on,30,0,1,,,,,,,,,0,,,63,0
75630,note_on,0,0,1,,,,,,,,,0,,,69,36
75660,note_on,30,0,1,,,,,,,,,0,,,69,0
75660,note_on,0,0,1,,,,,,,,,0,,,60,36
75660,note_on,0,0,3,,,,,,,,,2,,,36,36
75660,note_on,30,0,3,,,,,,,,,2,,,39,0
75690,note_on,0,0,3,,,,,,,,,2,,,33,36
75690,control_change,0,0,3,,,,,,,,,2,64,0,,
75690,note_on,30,0,3,,,,,,,,,2,,,36,0
75690,note_on,30,0,1,,,,,,,,,0,,,60,0
75690,control_change,0,0,1,,,,,,,,,0,64,0,,
75690,note_on,0,0,1,,,,,,,,,0,,,69,36
75720,control_change,0,0,1,,,,,,,,,0,64,127,,
75720,note_on,30,0,1,,,,,,,,,0,,,69,0
75720,control_change,0,0,3,,,,,,,,,2,64,127,,
75720,note_on,0,0,2,,,,,,,,,1,,,58,36
75720,note_on,360,0,2,,,,,,,,,1,,,58,0
75720,note_on,30,0,3,,,,,,,,,2,,,33,0
75720,note_on,0,0,1,,,,,,,,,0,,,58,36
75720,note_on,0,0,3,,,,,,,,,2,,,34,36
75750,note_on,30,0,1,,,,,,,,,0,,,58,0
75750,note_on,0,0,1,,,,,,,,,0,,,70,36
75780,note_on,30,0,1,,,,,,,,,0,,,70,0
75780,note_on,0,0,1,,,,,,,,,0,,,62,36
75810,note_on,30,0,1,,,,,,,,,0,,,62,0
75810,note_on,0,0,1,,,,,,,,,0,,,70,36
75840,note_on,120,0,3,,,,,,,,,2,,,34,0
75840,note_on,30,0,1,,,,,,,,,0,,,70,0
75840,note_on,0,0,1,,,,,,,,,0,,,65,36
75870,note_on,30,0,1,,,,,,,,,0,,,65,0
75870,note_on,0,0,1,,,,,,,,,0,,,70,36
75900,note_on,30,0,1,,,,,,,,,0,,,70,0
75900,note_on,0,0,1,,,,,,,,,0,,,69,36
75900,note_on,60,0,3,,,,,,,,,2,,,34,62
75906,note_on,6,0,3,,,,,,,,,2,,,34,0
75930,note_on,30,0,1,,,,,,,,,0,,,69,0
75930,note_on,0,0,1,,,,,,,,,0,,,70,36
75960,note_on,54,0,3,,,,,,,,,2,,,36,36
75960,note_on,0,0,1,,,,,,,,,0,,,68,36
75960,note_on,30,0,1,,,,,,,,,0,,,70,0
75966,note_on,6,0,3,,,,,,,,,2,,,36,0
75990,note_on,30,0,1,,,,,,,,,0,,,68,0
75990,note_on,0,0,1,,,,,,,,,0,,,70,36
76020,control_change,54,0,3,,,,,,,,,2,64,0,,
76020,note_on,0,0,3,,,,,,,,,2,,,38,36
76020,note_on,30,0,1,,,,,,,,,0,,,70,0
76020,note_on,0,0,1,,,,,,,,,0,,,65,36
76026,note_on,6,0,3,,,,,,,,,2,,,38,0
76050,control_change,0,0,1,,,,,,,,,0,64,0,,
76050,note_on,0,0,1,,,,,,,,,0,,,70,36
76050,note_on,30,0,1,,,,,,,,,0,,,65,0
76080,note_on,0,0,1,,,,,,,,,0,,,58,36
76080,control_change,0,0,1,,,,,,,,,0,64,127,,
76080,note_on,30,0,1,,,,,,,,,0,,,70,0
76080,note_on,0,0,3,,,,,,,,,2,,,39,36
76080,note_on,0,0,2,,,,,,,,,1,,,58,36
76080,note_on,360,0,2,,,,,,,,,1,,,58,0
76080,control_change,54,0,3,,,,,,,,,2,64,127,,
76110,note_on,30,0,1,,,,,,,,,0,,,58,0
76110,note_on,0,0,1,,,,,,,,,0,,,70,36
76140,note_on,0,0,1,,,,,,,,,0,,,63,36
76140,note_on,30,0,1,,,,,,,,,0,,,70,0
76170,note_on,30,0,1,,,,,,,,,0,,,63,0
76170,note_on,0,0,1,,,,,,,,,0,,,70,36
76200,note_on,0,0,1,,,,,,,,,0,,,65,36
76200,note_on,120,0,3,,,,,,,,,2,,,39,0
76200,note_on,30,0,1,,,,,,,,,0,,,70,0
76230,note_on,30,0,1,,,,,,,,,0,,,65,0
76230,note_on,0,0,1,,,,,,,,,0,,,70,36
76260,note_on,30,0,1,,,,,,,,,0,,,70,0
76260,note_on,0,0,1,,,,,,,,,0,,,66,62
76260,note_on,60,0,3,,,,,,,,,2,,,39,62
76266,note_on,6,0,3,,,,,,,,,2,,,39,0
76290,note_on,0,0,1,,,,,,,,,0,,,70,36
76290,note_on,30,0,1,,,,,,,,,0,,,66,0
76320,note_on,0,0,1,,,,,,,,,0,,,65,36
76320,note_on,30,0,1,,,,,,,,,0,,,70,0
76320,note_on,54,0,3,,,,,,,,,2,,,41,36
76326,note_on,6,0,3,,,,,,,,,2,,,41,0
76350,note_on,0,0,1,,,,,,,,,0,,,70,36
76350,note_on,30,0,1,,,,,,,,,0,,,65,0
76380,note_on,0,0,1,,,,,,,,,0,,,63,36
76380,note_on,30,0,1,,,,,,,,,0,,,70,0
76380,note_on,0,0,3,,,,,,,,,2,,,42,36
76380,control_change,54,0,3,,,,,,,,,2,64,0,,
76386,note_on,6,0,3,,,,,,,,,2,,,42,0
76410,note_on,0,0,1,,,,,,,,,0,,,70,36
76410,note_on,30,0,1,,,,,,,,,0,,,63,0
76410,control_change,0,0,1,,,,,,,,,0,64,0,,
76440,note_on,30,0,1,,,,,,,,,0,,,70,0
76440,control_change,0,0,2,,,,,,,,,1,64,127,,
76440,note_on,0,0,1,,,,,,,,,0,,,69,49
76440,control_change,54,0,3,,,,,,,,,2,64,127,,
76440,note_on,0,0,3,,,,,,,,,2,,,41,49
76440,control_change,0,0,1,,,,,,,,,0,64,127,,
76440,note_on,360,0,2,,,,,,,,,1,,,58,0
76440,note_on,0,0,2,,,,,,,,,1,,,63,36
76470,note_on,0,0,2,,,,,,,,,1,,,60,36
76470,note_on,30,0,2,,,,,,,,,1,,,63,0
76500,note_on,30,0,2,,,,,,,,,1,,,60,0
76500,note_on,0,0,1,,,,,,,,,0,,,70,49
76500,note_on,0,0,2,,,,,,,,,1,,,63,36
76500,note_on,60,0,1,,,,,,,,,0,,,69,0
76530,note_on,0,0,2,,,,,,,,,1,,,60,36
76530,note_on,30,0,2,,,,,,,,,1,,,63,0
76560,note_on,60,0,1,,,,,,,,,0,,,70,0
76560,note_on,0,0,1,,,,,,,,,0,,,69,49
76560,note_on,0,0,2,,,,,,,,,1,,,63,36
76560,note_on,30,0,2,,,,,,,,,1,,,60,0
76560,note_on,120,0,3,,,,,,,,,2,,,41,0
76590,note_on,0,0,2,,,,,,,,,1,,,60,36
76590,note_on,30,0,2,,,,,,,,,1,,,63,0
76620,note_on,0,0,1,,,,,,,,,0,,,66,49
76620,note_on,30,0,2,,,,,,,,,1,,,60,0
76620,note_on,0,0,2,,,,,,,,,1,,,63,36
76620,note_on,60,0,1,,,,,,,,,0,,,69,0
76620,note_on,60,0,3,,,,,,,,,2,,,51,75
76626,note_on,6,0,3,,,,,,,,,2,,,51,0
76650,note_on,0,0,2,,,,,,,,,1,,,60,36
76650,note_on,30,0,2,,,,,,,,,1,,,63,0
76680,note_on,0,0,2,,,,,,,,,1,,,63,36
76680,note_on,0,0,1,,,,,,,,,0,,,65,49
76680,note_on,60,0,1,,,,,,,,,0,,,66,0
76680,note_on,54,0,3,,,,,,,,,2,,,53,49
76680,note_on,30,0,2,,,,,,,,,1,,,60,0
76686,note_on,6,0,3,,,,,,,,,2,,,53,0
76710,note_on,0,0,2,,,,,,,,,1,,,60,36
76710,note_on,30,0,2,,,,,,,,,1,,,63,0
76740,note_on,60,0,1,,,,,,,,,0,,,65,0
76740,note_on,30,0,2,,,,,,,,,1,,,60,0
76740,note_on,0,0,3,,,,,,,,,2,,,41,49
76740,control_change,0,0,1,,,,,,,,,0,64,0,,
76740,note_on,0,0,1,,,,,,,,,0,,,69,49
76740,control_change,54,0,3,,,,,,,,,2,64,0,,
76740,note_on,0,0,2,,,,,,,,,1,,,63,36
76746,note_on,6,0,3,,,,,,,,,2,,,41,0
76770,control_change,0,0,2,,,,,,,,,1,64,0,,
76770,note_on,0,0,2,,,,,,,,,1,,,60,36
76770,note_on,30,0,2,,,,,,,,,1,,,63,0
76800,note_on,30,0,2,,,,,,,,,1,,,60,0
76800,note_on,0,0,2,,,,,,,,,1,,,70,36
76800,control_change,54,0,3,,,,,,,,,2,64,127,,
76800,note_on,0,0,3,,,,,,,,,2,,,46,62
76800,note_on,0,0,1,,,,,,,,,0,,,70,36
76800,control_change,0,0,1,,,,,,,,,0,64,127,,
76800,note_on,60,0,1,,,,,,,,,0,,,69,0
76830,note_on,0,0,1,,,,,,,,,0,,,82,36
76830,note_on,30,0,1,,,,,,,,,0,,,70,0
76860,note_on,0,0,1,,,,,,,,,0,,,74,36
76860,note_on,30,0,1,,,,,,,,,0,,,82,0
76890,note_on,0,0,1,,,,,,,,,0,,,82,36
76890,note_on,30,0,1,,,,,,,,,0,,,74,0
76920,note_on,120,0,3,,,,,,,,,2,,,46,0
76920,note_on,30,0,1,,,,,,,,,0,,,82,0
76920,note_on,0,0,1,,,,,,,,,0,,,77,36
76950,note_on,0,0,1,,,,,,,,,0,,,82,36
76950,note_on,30,0,1,,,,,,,,,0,,,77,0
76980,note_on,60,0,3,,,,,,,,,2,,,46,101
76980,note_on,0,0,1,,,,,,,,,0,,,80,36
76980,note_on,30,0,1,,,,,,,,,0,,,82,0
76986,note_on,6,0,3,,,,,,,,,2,,,46,0
77010,note_on,0,0,1,,,,,,,,,0,,,82,36
77010,note_on,30,0,1,,,,,,,,,0,,,80,0
77040,note_on,54,0,3,,,,,,,,,2,,,48,75
77040,note_on,30,0,1,,,,,,,,,0,,,82,0
77040,note_on,0,0,1,,,,,,,,,0,,,77,36
77046,note_on,6,0,3,,,,,,,,,2,,,48,0
77070,note_on,0,0,1,,,,,,,,,0,,,82,36
77070,note_on,30,0,1,,,,,,,,,0,,,77,0
77100,note_on,0,0,1,,,,,,,,,0,,,74,36
77100,note_on,30,0,1,,,,,,,,,0,,,82,0
77100,note_on,0,0,3,,,,,,,,,2,,,50,75
77100,control_change,54,0,3,,,,,,,,,2,64,0,,
77106,note_on,6,0,3,,,,,,,,,2,,,50,0
77130,note_on,30,0,1,,,,,,,,,0,,,74,0
77130,control_change,0,0,1,,,,,,,,,0,64,0,,
77130,note_on,0,0,1,,,,,,,,,0,,,82,36
77160,note_on,0,0,2,,,,,,,,,1,,,70,36
77160,note_on,360,0,2,,,,,,,,,1,,,70,0
77160,control_change,0,0,1,,,,,,,,,0,64,127,,
77160,note_on,0,0,1,,,,,,,,,0,,,70,36
77160,note_on,30,0,1,,,,,,,,,0,,,82,0
77160,control_change,54,0,3,,,,,,,,,2,64,127,,
77160,note_on,0,0,3,,,,,,,,,2,,,51,75
77190,note_on,30,0,1,,,,,,,,,0,,,70,0
77190,note_on,0,0,1,,,,,,,,,0,,,82,36
77220,note_on,30,0,1,,,,,,,,,0,,,82,0
77220,note_on,0,0,1,,,,,,,,,0,,,75,36
77250,note_on,30,0,1,,,,,,,,,0,,,75,0
77250,note_on,0,0,1,,,,,,,,,0,,,82,36
77280,note_on,30,0,1,,,,,,,,,0,,,82,0
77280,note_on,120,0,3,,,,,,,,,2,,,51,0
77280,note_on,0,0,1,,,,,,,,,0,,,77,75
77310,note_on,30,0,1,,,,,,,,,0,,,77,0
77310,note_on,0,0,1,,,,,,,,,0,,,82,75
77340,note_on,60,0,3,,,,,,,,,2,,,51,101
77340,note_on,0,0,1,,,,,,,,,0,,,78,101
77340,note_on,30,0,1,,,,,,,,,0,,,82,0
77346,note_on,6,0,3,,,,,,,,,2,,,51,0
77370,note_on,30,0,1,,,,,,,,,0,,,78,0
77370,note_on,0,0,1,,,,,,,,,0,,,82,75
77400,note_on,30,0,1,,,,,,,,,0,,,82,0
77400,note_on,0,0,1,,,,,,,,,0,,,77,75
77400,note_on,54,0,3,,,,,,,,,2,,,53,75
77406,note_on,6,0,3,,,,,,,,,2,,,53,0
77430,note_on,30,0,1,,,,,,,,,0,,,77,0
77430,note_on,0,0,1,,,,,,,,,0,,,82,75
77460,note_on,0,0,1,,,,,,,,,0,,,75,75
77460,control_change,54,0,3,,,,,,,,,2,64,0,,
77460,note_on,0,0,3,,,,,,,,,2,,,54,75
77460,note_on,30,0,1,,,,,,,,,0,,,82,0
77466,note_on,6,0,3,,,,,,,,,2,,,54,0
77490,control_change,0,0,1,,,,,,,,,0,64,0,,
77490,note_on,0,0,1,,,,,,,,,0,,,82,75
77490,note_on,30,0,1,,,,,,,,,0,,,75,0
77520,note_on,30,0,1,,,,,,,,,0,,,82,0
77520,control_change,0,0,1,,,,,,,,,0,64,127,,
77520,note_on,0,0,1,,,,,,,,,0,,,81,75
77520,note_on,360,0,2,,,,,,,,,1,,,70,0
77520,note_on,0,0,2,,,,,,,,,1,,,75,36
77520,control_change,0,0,2,,,,,,,,,1,64,127,,
77520,control_change,54,0,3,,,,,,,,,2,64,127,,
77520,note_on,0,0,3,,,,,,,,,2,,,53,75
77550,note_on,0,0,2,,,,,,,,,1,,,72,36
77550,note_on,30,0,2,,,,,,,,,1,,,75,0
77580,note_on,0,0,1,,,,,,,,,0,,,82,75
77580,note_on,30,0,2,,,,,,,,,1,,,72,0
77580,note_on,60,0,1,,,,,,,,,0,,,81,0
77580,note_on,0,0,2,,,,,,,,,1,,,75,36
77580,set_tempo,19860,1,0,,,,,,425532,,,,,,,
77610,note_on,30,0,2,,,,,,,,,1,,,75,0
77610,note_on,0,0,2,,,,,,,,,1,,,72,36
77640,set_tempo,60,1,0,,,,,,434783,,,,,,,
77640,note_on,0,0,1,,,,,,,,,0,,,81,75
77640,note_on,60,0,1,,,,,,,,,0,,,82,0
77640,note_on,30,0,2,,,,,,,,,1,,,72,0
77640,note_on,0,0,2,,,,,,,,,1,,,75,36
77640,note_on,120,0,3,,,,,,,,,2,,,53,0
77670,note_on,30,0,2,,,,,,,,,1,,,75,0
77670,note_on,0,0,2,,,,,,,,,1,,,72,36
77700,set_tempo,60,1,0,,,,,,444444,,,,,,,
77700,note_on,0,0,1,,,,,,,,,0,,,78,75
77700,note_on,0,0,2,,,,,,,,,1,,,75,36
77700,note_on,60,0,1,,,,,,,,,0,,,81,0
77700,note_on,30,0,2,,,,,,,,,1,,,72,0
77700,note_on,60,0,3,,,,,,,,,2,,,63,101
77706,note_on,6,0,3,,,,,,,,,2,,,63,0
77730,note_on,30,0,2,,,,,,,,,1,,,75,0
77730,note_on,0,0,2,,,,,,,,,1,,,72,36
77760,set_tempo,60,1,0,,,,,,458015,,,,,,,
77760,note_on,54,0,3,,,,,,,,,2,,,65,75
77760,note_on,0,0,2,,,,,,,,,1,,,75,36
77760,note_on,60,0,1,,,,,,,,,0,,,78,0
77760,note_on,30,0,2,,,,,,,,,1,,,72,0
77760,note_on,0,0,1,,,,,,,,,0,,,77,75
77766,note_on,6,0,3,,,,,,,,,2,,,65,0
77790,note_on,30,0,2,,,,,,,,,1,,,75,0
77790,note_on,0,0,2,,,,,,,,,1,,,72,36
77820,control_change,0,0,1,,,,,,,,,0,64,0,,
77820,note_on,0,0,1,,,,,,,,,0,,,81,75
77820,set_tempo,60,1,0,,,,,,468750,,,,,,,
77820,control_change,54,0,3,,,,,,,,,2,64,0,,
77820,note_on,0,0,3,,,,,,,,,2,,,53,75
77820,note_on,60,0,1,,,,,,,,,0,,,77,0
77820,note_on,0,0,2,,,,,,,,,1,,,75,36
77820,note_on,30,0,2,,,,,,,,,1,,,72,0
77826,note_on,6,0,3,,,,,,,,,2,,,53,0
77850,note_on,30,0,2,,,,,,,,,1,,,75,0
77850,control_change,0,0,2,,,,,,,,,1,64,0,,
77850,note_on,0,0,2,,,,,,,,,1,,,72,36
77880,note_on,60,0,1,,,,,,,,,0,,,81,0
77880,note_on,0,0,2,,,,,,,,,1,,,74,36
77880,set_tempo,60,1,0,,,,,,480000,,,,,,,
77880,control_change,0,0,2,,,,,,,,,1,64,127,,
77880,note_on,54,0,3,,,,,,,,,2,,,58,75
77880,note_on,0,0,1,,,,,,,,,0,,,82,75
77880,note_on,30,0,2,,,,,,,,,1,,,72,0
77880,control_change,0,0,1,,,,,,,,,0,64,127,,
77910,note_on,30,0,2,,,,,,,,,1,,,74,0
77910,note_on,0,0,2,,,,,,,,,1,,,77,36
77940,set_tempo,60,1,0,,,,,,491803,,,,,,,
77940,note_on,60,0,1,,,,,,,,,0,,,82,0
77940,note_on,0,0,1,,,,,,,,,0,,,85,75
77940,note_on,0,0,2,,,,,,,,,1,,,81,36
77940,note_on,30,0,2,,,,,,,,,1,,,77,0
77970,note_on,30,0,2,,,,,,,,,1,,,81,0
77970,note_on,0,0,2,,,,,,,,,1,,,77,36
78000,note_on,0,0,2,,,,,,,,,1,,,82,36
78000,set_tempo,60,1,0,,,,,,508475,,,,,,,
78000,note_on,30,0,2,,,,,,,,,1,,,77,0
78000,note_on,120,0,3,,,,,,,,,2,,,58,0
78000,note_on,0,0,3,,,,,,,,,2,,,89,101
78000,note_on,60,0,1,,,,,,,,,0,,,85,0
78000,note_on,0,0,1,,,,,,,,,0,,,86,75
78030,note_on,0,0,2,,,,,,,,,1,,,77,36
78030,note_on,30,0,2,,,,,,,,,1,,,82,0
78060,note_on,0,0,1,,,,,,,,,0,,,85,75
78060,note_on,0,0,2,,,,,,,,,1,,,81,36
78060,note_on,30,0,2,,,,,,,,,1,,,77,0
78060,note_on,60,0,1,,,,,,,,,0,,,86,0
78090,note_on,0,0,2,,,,,,,,,1,,,77,36
78090,note_on,30,0,2,,,,,,,,,1,,,81,0
78120,note_on,30,0,2,,,,,,,,,1,,,77,0
78120,note_on,0,0,2,,,,,,,,,1,,,82,36
78120,note_on,60,0,1,,,,,,,,,0,,,85,0
78120,note_on,0,0,1,,,,,,,,,0,,,86,75
78150,note_on,30,0,2,,,,,,,,,1,,,82,0
78150,note_on,0,0,2,,,,,,,,,1,,,77,36
78180,control_change,0,0,1,,,,,,,,,0,64,0,,
78180,note_on,60,0,1,,,,,,,,,0,,,86,0
78180,note_on,30,0,2,,,,,,,,,1,,,77,0
78180,note_on,0,0,2,,,,,,,,,1,,,74,36
78180,note_on,0,0,1,,,,,,,,,0,,,82,75
78210,note_on,30,0,2,,,,,,,,,1,,,74,0
78210,control_change,0,0,2,,,,,,,,,1,64,0,,
78210,note_on,0,0,2,,,,,,,,,1,,,77,36
78240,note_on,240,0,3,,,,,,,,,2,,,89,0
78240,control_change,0,0,3,,,,,,,,,2,64,127,,
78240,note_on,0,0,1,,,,,,,,,0,,,81,49
78240,control_change,0,0,1,,,,,,,,,0,64,127,,
78240,note_on,60,0,1,,,,,,,,,0,,,82,0
78240,control_change,0,0,2,,,,,,,,,1,64,127,,
78240,note_on,30,0,2,,,,,,,,,1,,,77,0
78240,note_on,0,0,2,,,,,,,,,1,,,75,36
78240,note_on,0,0,3,,,,,,,,,2,,,53,36
78270,note_on,30,0,2,,,,,,,,,1,,,75,0
78270,note_on,0,0,2,,,,,,,,,1,,,72,36
78300,note_on,0,0,1,,,,,,,,,0,,,82,49
78300,note_on,60,0,1,,,,,,,,,0,,,81,0
78300,note_on,0,0,2,,,,,,,,,1,,,75,36
78300,note_on,30,0,2,,,,,,,,,1,,,72,0
78330,note_on,30,0,2,,,,,,,,,1,,,75,0
78330,note_on,0,0,2,,,,,,,,,1,,,72,36
78360,note_on,30,0,2,,,,,,,,,1,,,72,0
78360,note_on,0,0,2,,,,,,,,,1,,,75,36
78360,note_on,0,0,1,,,,,,,,,0,,,81,49
78360,note_on,60,0,1,,,,,,,,,0,,,82,0
78360,note_on,120,0,3,,,,,,,,,2,,,53,0
78390,note_on,30,0,2,,,,,,,,,1,,,75,0
78390,note_on,0,0,2,,,,,,,,,1,,,72,36
78420,note_on,0,0,1,,,,,,,,,0,,,78,49
78420,note_on,60,0,1,,,,,,,,,0,,,81,0
78420,note_on,30,0,2,,,,,,,,,1,,,72,0
78420,note_on,0,0,2,,,,,,,,,1,,,75,36
78420,note_on,60,0,3,,,,,,,,,2,,,63,62
78426,note_on,6,0,3,,,,,,,,,2,,,63,0
78450,note_on,30,0,2,,,,,,,,,1,,,75,0
78450,note_on,0,0,2,,,,,,,,,1,,,72,36
78480,note_on,30,0,2,,,,,,,,,1,,,72,0
78480,note_on,0,0,2,,,,,,,,,1,,,75,36
78480,note_on,0,0,1,,,,,,,,,0,,,77,49
78480,note_on,54,0,3,,,,,,,,,2,,,65,36
78480,note_on,60,0,1,,,,,,,,,0,,,78,0
78486,note_on,6,0,3,,,,,,,,,2,,,65,0
78510,note_on,0,0,2,,,,,,,,,1,,,72,36
78510,note_on,30,0,2,,,,,,,,,1,,,75,0
78540,note_on,30,0,2,,,,,,,,,1,,,72,0
78540,note_on,0,0,2,,,,,,,,,1,,,75,36
78540,note_on,0,0,1,,,,,,,,,0,,,81,49
78540,control_change,0,0,1,,,,,,,,,0,64,0,,
78540,note_on,0,0,3,,,,,,,,,2,,,53,36
78540,note_on,60,0,1,,,,,,,,,0,,,77,0
78540,control_change,54,0,3,,,,,,,,,2,64,0,,
78546,note_on,6,0,3,,,,,,,,,2,,,53,0
78570,note_on,0,0,2,,,,,,,,,1,,,72,36
78570,control_change,0,0,2,,,,,,,,,1,64,0,,
78570,note_on,30,0,2,,,,,,,,,1,,,75,0
78600,note_on,0,0,2,,,,,,,,,1,,,74,36
78600,control_change,0,0,2,,,,,,,,,1,64,127,,
78600,note_on,30,0,2,,,,,,,,,1,,,72,0
78600,note_on,54,0,3,,,,,,,,,2,,,58,36
78600,note_on,60,0,1,,,,,,,,,0,,,81,0
78600,control_change,0,0,1,,,,,,,,,0,64,127,,
78600,note_on,0,0,1,,,,,,,,,0,,,82,49
78630,note_on,30,0,2,,,,,,,,,1,,,74,0
78630,note_on,0,0,2,,,,,,,,,1,,,77,36
78660,note_on,60,0,1,,,,,,,,,0,,,82,0
78660,note_on,0,0,1,,,,,,,,,0,,,73,49
78660,note_on,30,0,2,,,,,,,,,1,,,77,0
78660,note_on,0,0,2,,,,,,,,,1,,,69,36
78690,note_on,30,0,2,,,,,,,,,1,,,69,0
78690,note_on,0,0,2,,,,,,,,,1,,,65,36
78720,note_on,0,0,3,,,,,,,,,2,,,77,62
78720,note_on,120,0,3,,,,,,,,,2,,,58,0
78720,note_on,30,0,2,,,,,,,,,1,,,65,0
78720,note_on,0,0,2,,,,,,,,,1,,,70,36
78720,note_on,0,0,1,,,,,,,,,0,,,74,49
78720,note_on,60,0,1,,,,,,,,,0,,,73,0
78750,note_on,30,0,2,,,,,,,,,1,,,70,0
78750,note_on,0,0,2,,,,,,,,,1,,,65,36
78780,note_on,60,0,1,,,,,,,,,0,,,74,0
78780,note_on,0,0,1,,,,,,,,,0,,,73,49
78780,note_on,30,0,2,,,,,,,,,1,,,65,0
78780,note_on,0,0,2,,,,,,,,,1,,,69,36
78810,note_on,30,0,2,,,,,,,,,1,,,69,0
78810,note_on,0,0,2,,,,,,,,,1,,,65,36
78840,note_on,0,0,1,,,,,,,,,0,,,74,49
78840,note_on,60,0,1,,,,,,,,,0,,,73,0
78840,note_on,30,0,2,,,,,,,,,1,,,65,0
78840,note_on,0,0,2,,,,,,,,,1,,,70,36
78870,note_on,30,0,2,,,,,,,,,1,,,70,0
78870,note_on,0,0,2,,,,,,,,,1,,,65,36
78900,note_on,0,0,1,,,,,,,,,0,,,70,49
78900,control_change,0,0,1,,,,,,,,,0,64,0,,
78900,note_on,60,0,1,,,,,,,,,0,,,74,0
78900,note_on,30,0,2,,,,,,,,,1,,,65,0
78900,note_on,0,0,2,,,,,,,,,1,,,62,36
78930,note_on,0,0,2,,,,,,,,,1,,,65,36
78930,control_change,0,0,2,,,,,,,,,1,64,0,,
78930,note_on,30,0,2,,,,,,,,,1,,,62,0
78960,note_on,240,0,3,,,,,,,,,2,,,77,0
78960,note_on,0,0,2,,,,,,,,,1,,,63,36
78960,control_change,0,0,2,,,,,,,,,1,64,127,,
78960,note_on,30,0,2,,,,,,,,,1,,,65,0
78960,note_on,0,0,1,,,,,,,,,0,,,69,49
78960,control_change,0,0,1,,,,,,,,,0,64,127,,
78960,note_on,60,0,1,,,,,,,,,0,,,70,0
78960,note_on,0,0,3,,,,,,,,,2,,,53,36
78960,control_change,0,0,3,,,,,,,,,2,64,127,,
78990,note_on,0,0,2,,,,,,,,,1,,,60,36
78990,note_on,30,0,2,,,,,,,,,1,,,63,0
79020,note_on,0,0,1,,,,,,,,,0,,,70,49
79020,note_on,60,0,1,,,,,,,,,0,,,69,0
79020,note_on,30,0,2,,,,,,,,,1,,,60,0
79020,note_on,0,0,2,,,,,,,,,1,,,63,36
79050,note_on,0,0,2,,,,,,,,,1,,,60,36
79050,note_on,30,0,2,,,,,,,,,1,,,63,0
79080,note_on,120,0,3,,,,,,,,,2,,,53,0
79080,note_on,0,0,2,,,,,,,,,1,,,63,36
79080,note_on,30,0,2,,,,,,,,,1,,,60,0
79080,note_on,0,0,1,,,,,,,,,0,,,69,49
79080,note_on,60,0,1,,,,,,,,,0,,,70,0
79110,note_on,30,0,2,,,,,,,,,1,,,63,0
79110,note_on,0,0,2,,,,,,,,,1,,,60,36
79140,note_on,30,0,2,,,,,,,,,1,,,60,0
79140,note_on,60,0,3,,,,,,,,,2,,,51,62
79140,note_on,0,0,2,,,,,,,,,1,,,63,36
79140,note_on,0,0,1,,,,,,,,,0,,,66,49
79140,note_on,60,0,1,,,,,,,,,0,,,69,0
79146,note_on,6,0,3,,,,,,,,,2,,,51,0
79170,note_on,0,0,2,,,,,,,,,1,,,60,36
79170,note_on,30,0,2,,,,,,,,,1,,,63,0
79200,note_on,0,0,1,,,,,,,,,0,,,65,49
79200,note_on,30,0,2,,,,,,,,,1,,,60,0
79200,note_on,54,0,3,,,,,,,,,2,,,53,36
79200,note_on,60,0,1,,,,,,,,,0,,,66,0
79200,note_on,0,0,2,,,,,,,,,1,,,63,36
79206,note_on,6,0,3,,,,,,,,,2,,,53,0
79230,note_on,0,0,2,,,,,,,,,1,,,60,36
79230,note_on,30,0,2,,,,,,,,,1,,,63,0
79260,note_on,0,0,3,,,,,,,,,2,,,41,36
79260,note_on,0,0,2,,,,,,,,,1,,,63,36
79260,control_change,54,0,3,,,,,,,,,2,64,0,,
79260,note_on,0,0,1,,,,,,,,,0,,,69,49
79260,control_change,0,0,1,,,,,,,,,0,64,0,,
79260,note_on,60,0,1,,,,,,,,,0,,,65,0
79260,note_on,30,0,2,,,,,,,,,1,,,60,0
79266,note_on,6,0,3,,,,,,,,,2,,,41,0
79290,note_on,30,0,2,,,,,,,,,1,,,63,0
79290,control_change,0,0,2,,,,,,,,,1,64,0,,
79290,note_on,0,0,2,,,,,,,,,1,,,60,36
79320,note_on,0,0,3,,,,,,,,,2,,,46,36
79320,note_on,30,0,2,,,,,,,,,1,,,60,0
79320,note_on,60,0,1,,,,,,,,,0,,,69,0
79320,note_on,0,0,1,,,,,,,,,0,,,62,36
79320,note_on,0,0,1,,,,,,,,,0,,,70,36
79320,control_change,54,0,3,,,,,,,,,2,64,127,,
79320,control_change,0,0,1,,,,,,,,,0,64,127,,
79350,note_on,30,0,1,,,,,,,,,0,,,70,0
79350,note_on,0,0,1,,,,,,,,,0,,,62,0
79350,note_on,0,0,1,,,,,,,,,0,,,58,36
79380,note_on,60,0,3,,,,,,,,,2,,,46,0
79380,note_on,0,0,1,,,,,,,,,0,,,62,36
79380,note_on,0,0,1,,,,,,,,,0,,,65,36
79380,note_on,30,0,1,,,,,,,,,0,,,58,0
79380,note_on,0,0,1,,,,,,,,,0,,,70,36
79410,note_on,30,0,1,,,,,,,,,0,,,70,0
79410,note_on,0,0,1,,,,,,,,,0,,,65,0
79410,note_on,0,0,1,,,,,,,,,0,,,62,0
79410,note_on,0,0,1,,,,,,,,,0,,,58,36
79440,note_on,0,0,1,,,,,,,,,0,,,65,36
79440,note_on,60,0,3,,,,,,,,,2,,,53,36
79440,note_on,30,0,1,,,,,,,,,0,,,58,0
79440,note_on,0,0,1,,,,,,,,,0,,,62,36
79440,note_on,0,0,1,,,,,,,,,0,,,70,36
79470,note_on,30,0,1,,,,,,,,,0,,,70,0
79470,note_on,0,0,1,,,,,,,,,0,,,65,0
79470,note_on,0,0,1,,,,,,,,,0,,,62,0
79470,note_on,0,0,1,,,,,,,,,0,,,58,36
79500,note_on,30,0,1,,,,,,,,,0,,,58,0
79500,note_on,60,0,3,,,,,,,,,2,,,53,0
79500,note_on,0,0,1,,,,,,,,,0,,,62,36
79500,note_on,0,0,1,,,,,,,,,0,,,65,36
79500,note_on,0,0,1,,,,,,,,,0,,,70,36
79530,note_on,30,0,1,,,,,,,,,0,,,70,0
79530,note_on,0,0,1,,,,,,,,,0,,,62,0
79530,note_on,0,0,1,,,,,,,,,0,,,58,36
79530,note_on,0,0,1,,,,,,,,,0,,,65,0
79560,note_on,30,0,1,,,,,,,,,0,,,58,0
79560,note_on,0,0,1,,,,,,,,,0,,,62,36
79560,note_on,0,0,1,,,,,,,,,0,,,65,36
79560,note_on,0,0,1,,,,,,,,,0,,,70,36
79560,note_on,60,0,3,,,,,,,,,2,,,50,36
79590,note_on,30,0,1,,,,,,,,,0,,,70,0
79590,note_on,0,0,1,,,,,,,,,0,,,65,0
79590,note_on,0,0,1,,,,,,,,,0,,,62,0
79590,note_on,0,0,1,,,,,,,,,0,,,58,36
79620,note_on,0,0,1,,,,,,,,,0,,,65,36
79620,note_on,0,0,1,,,,,,,,,0,,,62,36
79620,note_on,30,0,1,,,,,,,,,0,,,58,0
79620,note_on,0,0,1,,,,,,,,,0,,,70,36
79620,note_on,60,0,3,,,,,,,,,2,,,50,0
79650,note_on,30,0,1,,,,,,,,,0,,,70,0
79650,note_on,0,0,1,,,,,,,,,0,,,65,0
79650,note_on,0,0,1,,,,,,,,,0,,,62,0
79650,note_on,0,0,1,,,,,,,,,0,,,58,36
79680,note_on,60,0,3,,,,,,,,,2,,,46,36
79680,note_on,30,0,1,,,,,,,,,0,,,58,0
79680,note_on,0,0,1,,,,,,,,,0,,,62,36
79680,note_on,0,0,1,,,,,,,,,0,,,65,36
79680,note_on,0,0,1,,,,,,,,,0,,,70,36
79710,note_on,30,0,1,,,,,,,,,0,,,70,0
79710,note_on,0,0,1,,,,,,,,,0,,,65,0
79710,note_on,0,0,1,,,,,,,,,0,,,62,0
79710,note_on,0,0,1,,,,,,,,,0,,,58,36
79740,note_on,30,0,1,,,,,,,,,0,,,58,0
79740,note_on,60,0,3,,,,,,,,,2,,,46,0
79740,note_on,0,0,1,,,,,,,,,0,,,62,36
79740,note_on,0,0,1,,,,,,,,,0,,,65,36
79740,note_on,0,0,1,,,,,,,,,0,,,70,36
79770,note_on,30,0,1,,,,,,,,,0,,,70,0
79770,note_on,0,0,1,,,,,,,,,0,,,65,0
79770,note_on,0,0,1,,,,,,,,,0,,,62,0
79770,note_on,0,0,1,,,,,,,,,0,,,58,36
79800,note_on,30,0,1,,,,,,,,,0,,,58,0
79800,note_on,0,0,1,,,,,,,,,0,,,62,36
79800,note_on,0,0,1,,,,,,,,,0,,,65,36
79800,note_on,0,0,1,,,,,,,,,0,,,70,36
79800,note_on,60,0,3,,,,,,,,,2,,,41,36
79830,note_on,30,0,1,,,,,,,,,0,,,70,0
79830,note_on,0,0,1,,,,,,,,,0,,,65,0
79830,note_on,0,0,1,,,,,,,,,0,,,62,0
79830,note_on,0,0,1,,,,,,,,,0,,,58,36
79860,note_on,30,0,1,,,,,,,,,0,,,58,0
79860,note_on,0,0,1,,,,,,,,,0,,,70,36
79860,note_on,60,0,3,,,,,,,,,2,,,41,0
79860,note_on,0,0,1,,,,,,,,,0,,,65,36
79860,note_on,0,0,1,,,,,,,,,0,,,62,36
79890,note_on,0,0,1,,,,,,,,,0,,,62,0
79890,note_on,0,0,1,,,,,,,,,0,,,65,0
79890,note_on,30,0,1,,,,,,,,,0,,,70,0
79890,note_on,0,0,1,,,,,,,,,0,,,58,36
79920,note_on,0,0,1,,,,,,,,,0,,,65,36
79920,note_on,0,0,3,,,,,,,,,2,,,38,36
79920,control_change,60,0,3,,,,,,,,,2,64,0,,
79920,note_on,30,0,1,,,,,,,,,0,,,58,0
79920,note_on,0,0,1,,,,,,,,,0,,,62,36
79920,note_on,0,0,1,,,,,,,,,0,,,70,36
79950,note_on,0,0,1,,,,,,,,,0,,,62,0
79950,note_on,30,0,1,,,,,,,,,0,,,70,0
79950,note_on,0,0,1,,,,,,,,,0,,,65,0
79950,note_on,0,0,1,,,,,,,,,0,,,58,36
79980,note_on,60,0,3,,,,,,,,,2,,,38,0
79980,note_on,30,0,1,,,,,,,,,0,,,58,0
79980,note_on,0,0,1,,,,,,,,,0,,,62,36
79980,note_on,0,0,1,,,,,,,,,0,,,65,36
79980,note_on,0,0,1,,,,,,,,,0,,,70,36
80010,note_on,0,0,1,,,,,,,,,0,,,58,36
80010,note_on,0,0,1,,,,,,,,,0,,,62,0
80010,note_on,0,0,1,,,,,,,,,0,,,65,0
80010,control_change,0,0,1,,,,,,,,,0,64,0,,
80010,note_on,30,0,1,,,,,,,,,0,,,70,0
80040,note_on,0,0,1,,,,,,,,,0,,,62,36
80040,note_on,60,0,3,,,,,,,,,2,,,34,36
80040,note_on,30,0,1,,,,,,,,,0,,,58,0
80040,note_on,0,0,1,,,,,,,,,0,,,70,36
80040,note_on,0,0,1,,,,,,,,,0,,,68,36
80040,note_on,0,0,1,,,,,,,,,0,,,65,36
80040,control_change,0,0,1,,,,,,,,,0,64,127,,
80070,note_on,0,0,1,,,,,,,,,0,,,58,36
80070,note_on,0,0,1,,,,,,,,,0,,,68,0
80070,note_on,0,0,1,,,,,,,,,0,,,65,0
80070,note_on,0,0,1,,,,,,,,,0,,,62,0
80070,note_on,30,0,1,,,,,,,,,0,,,70,0
80100,note_on,30,0,1,,,,,,,,,0,,,58,0
80100,note_on,0,0,1,,,,,,,,,0,,,62,36
80100,note_on,0,0,1,,,,,,,,,0,,,70,36
80100,note_on,0,0,1,,,,,,,,,0,,,68,36
80100,note_on,0,0,1,,,,,,,,,0,,,65,36
80130,note_on,0,0,1,,,,,,,,,0,,,62,0
80130,note_on,0,0,1,,,,,,,,,0,,,65,0
80130,note_on,0,0,1,,,,,,,,,0,,,68,0
80130,note_on,30,0,1,,,,,,,,,0,,,70,0
80130,note_on,0,0,1,,,,,,,,,0,,,58,36
80160,note_on,0,0,1,,,,,,,,,0,,,65,36
80160,note_on,30,0,1,,,,,,,,,0,,,58,0
80160,note_on,0,0,1,,,,,,,,,0,,,62,36
80160,note_on,0,0,1,,,,,,,,,0,,,68,36
80160,note_on,0,0,1,,,,,,,,,0,,,70,36
80190,note_on,30,0,1,,,,,,,,,0,,,70,0
80190,note_on,0,0,1,,,,,,,,,0,,,62,0
80190,note_on,0,0,1,,,,,,,,,0,,,65,0
80190,note_on,0,0,1,,,,,,,,,0,,,68,0
80190,note_on,0,0,1,,,,,,,,,0,,,58,36
80220,note_on,0,0,1,,,,,,,,,0,,,68,36
80220,note_on,30,0,1,,,,,,,,,0,,,58,0
80220,note_on,0,0,1,,,,,,,,,0,,,62,36
80220,note_on,0,0,1,,,,,,,,,0,,,70,36
80220,note_on,0,0,1,,,,,,,,,0,,,65,36
80250,note_on,30,0,1,,,,,,,,,0,,,70,0
80250,note_on,0,0,1,,,,,,,,,0,,,62,0
80250,note_on,0,0,1,,,,,,,,,0,,,65,0
80250,note_on,0,0,1,,,,,,,,,0,,,68,0
80250,note_on,0,0,1,,,,,,,,,0,,,58,36
80280,note_on,0,0,1,,,,,,,,,0,,,70,36
80280,note_on,30,0,1,,,,,,,,,0,,,58,0
80280,note_on,0,0,1,,,,,,,,,0,,,68,36
80280,note_on,0,0,1,,,,,,,,,0,,,62,36
80280,note_on,0,0,1,,,,,,,,,0,,,65,36
80310,note_on,0,0,1,,,,,,,,,0,,,58,36
80310,note_on,0,0,1,,,,,,,,,0,,,68,0
80310,note_on,0,0,1,,,,,,,,,0,,,65,0
80310,note_on,0,0,1,,,,,,,,,0,,,62,0
80310,note_on,30,0,1,,,,,,,,,0,,,70,0
80340,note_on,0,0,1,,,,,,,,,0,,,68,36
80340,note_on,0,0,1,,,,,,,,,0,,,65,36
80340,note_on,0,0,1,,,,,,,,,0,,,62,36
80340,note_on,30,0,1,,,,,,,,,0,,,58,0
80340,note_on,0,0,1,,,,,,,,,0,,,70,36
80370,note_on,30,0,1,,,,,,,,,0,,,70,0
80370,note_on,0,0,1,,,,,,,,,0,,,62,0
80370,note_on,0,0,1,,,,,,,,,0,,,65,0
80370,note_on,0,0,1,,,,,,,,,0,,,58,36
80370,note_on,0,0,1,,,,,,,,,0,,,68,0
80400,note_on,360,0,3,,,,,,,,,2,,,34,0
80400,note_on,0,0,3,,,,,,,,,2,,,34,36
80400,set_tempo,2400,1,0,,,,,,416667,,,,,,,
80400,note_on,0,0,1,,,,,,,,,0,,,70,36
80400,note_on,0,0,1,,,,,,,,,0,,,68,36
80400,note_on,0,0,1,,,,,,,,,0,,,65,36
80400,note_on,0,0,1,,,,,,,,,0,,,62,36
80400,note_on,30,0,1,,,,,,,,,0,,,58,0
80520,note_on,0,0,1,,,,,,,,,0,,,68,0
80520,note_on,0,0,1,,,,,,,,,0,,,62,0
80520,note_on,120,0,1,,,,,,,,,0,,,70,0
80520,note_on,0,0,1,,,,,,,,,0,,,65,0
80520,note_on,120,0,3,,,,,,,,,2,,,34,0
80760,note_on,0,0,3,,,,,,,,,2,,,43,36
80760,note_on,240,0,3,,,,,,,,,2,,,31,36
80760,set_tempo,360,1,0,,,,,,521739,,,,,,,
80760,note_on,0,0,1,,,,,,,,,0,,,71,36
80760,note_on,0,0,1,,,,,,,,,0,,,67,36
80760,note_on,0,0,1,,,,,,,,,0,,,65,36
80760,control_change,240,0,1,,,,,,,,,0,64,127,,
80760,note_on,0,0,1,,,,,,,,,0,,,62,36
80790,note_on,0,0,1,,,,,,,,,0,,,62,0
80790,note_on,0,0,1,,,,,,,,,0,,,67,0
80790,note_on,0,0,1,,,,,,,,,0,,,65,0
80790,note_on,30,0,1,,,,,,,,,0,,,71,0
80790,note_on,0,0,1,,,,,,,,,0,,,59,36
80820,note_on,0,0,1,,,,,,,,,0,,,62,36
80820,note_on,30,0,1,,,,,,,,,0,,,59,0
80820,note_on,0,0,1,,,,,,,,,0,,,67,36
80820,note_on,0,0,1,,,,,,,,,0,,,71,36
80820,note_on,0,0,1,,,,,,,,,0,,,65,36
80850,note_on,30,0,1,,,,,,,,,0,,,71,0
80850,note_on,0,0,1,,,,,,,,,0,,,59,36
80850,note_on,0,0,1,,,,,,,,,0,,,62,0
80850,note_on,0,0,1,,,,,,,,,0,,,65,0
80850,note_on,0,0,1,,,,,,,,,0,,,67,0
80880,note_on,0,0,1,,,,,,,,,0,,,62,36
80880,note_on,30,0,1,,,,,,,,,0,,,59,0
80880,note_on,0,0,1,,,,,,,,,0,,,71,36
80880,note_on,0,0,1,,,,,,,,,0,,,67,36
80880,note_on,0,0,1,,,,,,,,,0,,,65,36
80910,note_on,0,0,1,,,,,,,,,0,,,62,0
80910,note_on,0,0,1,,,,,,,,,0,,,67,0
80910,note_on,0,0,1,,,,,,,,,0,,,59,36
80910,note_on,30,0,1,,,,,,,,,0,,,71,0
80910,note_on,0,0,1,,,,,,,,,0,,,65,0
80940,note_on,30,0,1,,,,,,,,,0,,,59,0
80940,note_on,0,0,1,,,,,,,,,0,,,62,36
80940,note_on,0,0,1,,,,,,,,,0,,,65,36
80940,note_on,0,0,1,,,,,,,,,0,,,67,36
80940,note_on,0,0,1,,,,,,,,,0,,,71,36
80970,note_on,0,0,1,,,,,,,,,0,,,65,0
80970,note_on,0,0,1,,,,,,,,,0,,,59,36
80970,note_on,0,0,1,,,,,,,,,0,,,62,0
80970,note_on,30,0,1,,,,,,,,,0,,,71,0
80970,note_on,0,0,1,,,,,,,,,0,,,67,0
81000,note_on,30,0,1,,,,,,,,,0,,,59,0
81000,note_on,0,0,1,,,,,,,,,0,,,62,36
81000,note_on,0,0,1,,,,,,,,,0,,,65,36
81000,note_on,0,0,1,,,,,,,,,0,,,67,36
81000,note_on,0,0,1,,,,,,,,,0,,,71,36
81030,note_on,30,0,1,,,,,,,,,0,,,71,0
81030,note_on,0,0,1,,,,,,,,,0,,,62,0
81030,note_on,0,0,1,,,,,,,,,0,,,65,0
81030,note_on,0,0,1,,,,,,,,,0,,,67,0
81030,note_on,0,0,1,,,,,,,,,0,,,59,36
81060,note_on,0,0,1,,,,,,,,,0,,,71,36
81060,note_on,0,0,1,,,,,,,,,0,,,62,36
81060,note_on,30,0,1,,,,,,,,,0,,,59,0
81060,note_on,0,0,1,,,,,,,,,0,,,67,36
81060,note_on,0,0,1,,,,,,,,,0,,,65,36
81090,note_on,30,0,1,,,,,,,,,0,,,71,0
81090,note_on,0,0,1,,,,,,,,,0,,,62,0
81090,note_on,0,0,1,,,,,,,,,0,,,65,0
81090,note_on,0,0,1,,,,,,,,,0,,,67,0
81090,note_on,0,0,1,,,,,,,,,0,,,59,36
81120,set_tempo,360,1,0,,,,,,416667,,,,,,,
81120,note_on,0,0,1,,,,,,,,,0,,,71,36
81120,note_on,0,0,1,,,,,,,,,0,,,65,36
81120,note_on,30,0,1,,,,,,,,,0,,,59,0
81120,control_change,0,0,1,,,,,,,,,0,64,0,,
81120,note_on,0,0,1,,,,,,,,,0,,,62,36
81120,note_on,0,0,1,,,,,,,,,0,,,67,36
81240,note_on,480,0,3,,,,,,,,,2,,,43,0
81240,note_on,0,0,3,,,,,,,,,2,,,31,0
81240,note_on,120,0,1,,,,,,,,,0,,,71,0
81240,note_on,0,0,1,,,,,,,,,0,,,67,0
81240,note_on,0,0,1,,,,,,,,,0,,,65,0
81240,note_on,0,0,1,,,,,,,,,0,,,62,0
81270,note_on,30,0,1,,,,,,,,,0,,,62,36
81300,note_on,0,0,1,,,,,,,,,0,,,65,36
81300,note_on,30,0,1,,,,,,,,,0,,,62,0
81330,note_on,0,0,1,,,,,,,,,0,,,68,36
81330,note_on,30,0,1,,,,,,,,,0,,,65,0
81360,note_on,30,0,1,,,,,,,,,0,,,68,0
81360,note_on,0,0,3,,,,,,,,,2,,,56,36
81360,note_on,0,0,1,,,,,,,,,0,,,71,36
81360,note_on,7440,0,4,,,,,,,,,3,,,50,36
81360,control_change,0,0,1,,,,,,,,,0,64,127,,
81360,control_change,120,0,3,,,,,,,,,2,64,127,,
81390,note_on,30,0,1,,,,,,,,,0,,,71,0
81390,note_on,0,0,1,,,,,,,,,0,,,74,36
81420,note_on,0,0,3,,,,,,,,,2,,,59,36
81420,note_on,60,0,3,,,,,,,,,2,,,56,0
81420,note_on,0,0,1,,,,,,,,,0,,,77,36
81420,note_on,30,0,1,,,,,,,,,0,,,74,0
81450,note_on,0,0,1,,,,,,,,,0,,,80,36
81450,note_on,30,0,1,,,,,,,,,0,,,77,0
81480,note_on,60,0,3,,,,,,,,,2,,,59,0
81480,note_on,120,0,4,,,,,,,,,3,,,50,0
81480,control_change,0,0,1,,,,,,,,,0,64,0,,
81480,note_on,30,0,1,,,,,,,,,0,,,80,0
81480,note_on,0,0,1,,,,,,,,,0,,,78,62
81480,control_change,0,0,3,,,,,,,,,2,64,0,,
81480,note_on,0,0,3,,,,,,,,,2,,,51,54
81480,note_on,0,0,3,,,,,,,,,2,,,60,62
81600,note_on,0,0,1,,,,,,,,,0,,,79,36
81600,note_on,0,0,3,,,,,,,,,2,,,51,0
81600,note_on,120,0,3,,,,,,,,,2,,,60,0
81600,note_on,120,0,1,,,,,,,,,0,,,78,0
81660,note_on,60,0,1,,,,,,,,,0,,,79,0
81720,control_change,60,0,1,,,,,,,,,0,64,127,,
81720,note_on,0,0,1,,,,,,,,,0,,,67,36
81720,note_on,120,0,3,,,,,,,,,2,,,47,36
81720,note_on,0,0,3,,,,,,,,,2,,,55,36
81750,note_on,30,0,1,,,,,,,,,0,,,67,0
81750,note_on,0,0,1,,,,,,,,,0,,,71,36
81780,note_on,30,0,1,,,,,,,,,0,,,71,0
81780,note_on,0,0,1,,,,,,,,,0,,,74,36
81810,note_on,0,0,1,,,,,,,,,0,,,77,36
81810,control_change,0,0,1,,,,,,,,,0,64,0,,
81810,note_on,30,0,1,,,,,,,,,0,,,74,0
81840,note_on,0,0,3,,,,,,,,,2,,,47,0
81840,note_on,120,0,3,,,,,,,,,2,,,55,0
81840,note_on,30,0,1,,,,,,,,,0,,,77,0
81840,control_change,0,0,1,,,,,,,,,0,64,127,,
81840,note_on,0,0,1,,,,,,,,,0,,,74,62
81840,note_on,0,0,3,,,,,,,,,2,,,55,62
81840,note_on,0,0,3,,,,,,,,,2,,,48,54
81960,note_on,0,0,3,,,,,,,,,2,,,48,0
81960,note_on,120,0,3,,,,,,,,,2,,,55,0
81960,note_on,120,0,1,,,,,,,,,0,,,74,0
81960,note_on,0,0,1,,,,,,,,,0,,,75,36
81990,note_on,30,0,1,,,,,,,,,0,,,75,0
81990,note_on,0,0,1,,,,,,,,,0,,,60,36
82020,note_on,30,0,1,,,,,,,,,0,,,60,0
82020,note_on,0,0,1,,,,,,,,,0,,,63,36
82050,note_on,30,0,1,,,,,,,,,0,,,63,0
82050,control_change,0,0,1,,,,,,,,,0,64,0,,
82050,note_on,0,0,1,,,,,,,,,0,,,67,36
82080,note_on,600,0,4,,,,,,,,,3,,,48,36
82080,note_on,0,0,3,,,,,,,,,2,,,53,36
82080,control_change,120,0,3,,,,,,,,,2,64,127,,
82080,note_on,30,0,1,,,,,,,,,0,,,67,0
82080,control_change,0,0,1,,,,,,,,,0,64,127,,
82080,note_on,0,0,1,,,,,,,,,0,,,69,36
82110,note_on,0,0,1,,,,,,,,,0,,,72,36
82110,note_on,30,0,1,,,,,,,,,0,,,69,0
82140,note_on,0,0,3,,,,,,,,,2,,,57,36
82140,note_on,60,0,3,,,,,,,,,2,,,53,0
82140,note_on,30,0,1,,,,,,,,,0,,,72,0
82140,note_on,0,0,1,,,,,,,,,0,,,75,36
82170,note_on,30,0,1,,,,,,,,,0,,,75,0
82170,control_change,0,0,1,,,,,,,,,0,64,0,,
82170,note_on,0,0,1,,,,,,,,,0,,,79,36
82200,control_change,0,0,3,,,,,,,,,2,64,0,,
82200,note_on,0,0,3,,,,,,,,,2,,,58,62
82200,note_on,120,0,4,,,,,,,,,3,,,48,0
82200,note_on,0,0,1,,,,,,,,,0,,,76,62
82200,note_on,60,0,3,,,,,,,,,2,,,57,0
82200,note_on,0,0,3,,,,,,,,,2,,,50,54
82200,note_on,30,0,1,,,,,,,,,0,,,79,0
82320,note_on,0,0,3,,,,,,,,,2,,,50,0
82320,note_on,120,0,3,,,,,,,,,2,,,58,0
82320,note_on,0,0,1,,,,,,,,,0,,,77,36
82320,note_on,120,0,1,,,,,,,,,0,,,76,0
82380,note_on,60,0,1,,,,,,,,,0,,,77,0
82440,note_on,0,0,3,,,,,,,,,2,,,53,36
82440,note_on,120,0,3,,,,,,,,,2,,,45,36
82440,note_on,0,0,1,,,,,,,,,0,,,65,36
82440,control_change,60,0,1,,,,,,,,,0,64,127,,
82470,note_on,30,0,1,,,,,,,,,0,,,65,0
82470,note_on,0,0,1,,,,,,,,,0,,,69,36
82500,note_on,0,0,1,,,,,,,,,0,,,72,36
82500,note_on,30,0,1,,,,,,,,,0,,,69,0
82530,note_on,0,0,1,,,,,,,,,0,,,75,36
82530,control_change,0,0,1,,,,,,,,,0,64,0,,
82530,note_on,30,0,1,,,,,,,,,0,,,72,0
82560,note_on,0,0,3,,,,,,,,,2,,,53,36
82560,note_on,0,0,3,,,,,,,,,2,,,46,36
82560,note_on,30,0,1,,,,,,,,,0,,,75,0
82560,control_change,0,0,1,,,,,,,,,0,64,127,,
82560,note_on,0,0,1,,,,,,,,,0,,,73,36
82560,note_on,0,0,3,,,,,,,,,2,,,45,0
82560,note_on,120,0,3,,,,,,,,,2,,,53,0
82680,note_on,0,0,3,,,,,,,,,2,,,46,0
82680,note_on,120,0,3,,,,,,,,,2,,,53,0
82680,note_on,120,0,1,,,,,,,,,0,,,73,0
82680,note_on,0,0,1,,,,,,,,,0,,,74,36
82740,note_on,60,0,1,,,,,,,,,0,,,74,0
82740,note_on,0,0,1,,,,,,,,,0,,,62,49
82770,note_on,30,0,1,,,,,,,,,0,,,62,0
82770,note_on,0,0,1,,,,,,,,,0,,,65,49
82800,note_on,30,0,1,,,,,,,,,0,,,65,0
82800,note_on,0,0,1,,,,,,,,,0,,,70,62
82830,note_on,30,0,1,,,,,,,,,0,,,70,0
82830,note_on,0,0,1,,,,,,,,,0,,,74,62
82860,note_on,30,0,1,,,,,,,,,0,,,74,0
82860,note_on,0,0,1,,,,,,,,,0,,,77,75
82890,note_on,30,0,1,,,,,,,,,0,,,77,0
82890,note_on,0,0,1,,,,,,,,,0,,,82,75
82890,control_change,0,0,1,,,,,,,,,0,64,0,,
82920,note_on,30,0,1,,,,,,,,,0,,,82,0
82920,note_on,0,0,1,,,,,,,,,0,,,82,88
82980,note_on,0,0,3,,,,,,,,,2,,,60,75
82980,note_on,0,0,3,,,,,,,,,2,,,58,75
82980,note_on,0,0,3,,,,,,,,,2,,,51,75
82980,control_change,300,0,3,,,,,,,,,2,64,127,,
82980,control_change,0,0,1,,,,,,,,,0,64,127,,
82980,note_on,0,0,1,,,,,,,,,0,,,67,88
82980,note_on,0,0,1,,,,,,,,,0,,,72,88
82980,note_on,0,0,1,,,,,,,,,0,,,70,88
82980,note_on,60,0,1,,,,,,,,,0,,,82,0
82986,note_on,0,0,3,,,,,,,,,2,,,51,0
82986,note_on,0,0,3,,,,,,,,,2,,,58,0
82986,note_on,6,0,3,,,,,,,,,2,,,60,0
83040,note_on,0,0,1,,,,,,,,,0,,,67,0
83040,note_on,0,0,3,,,,,,,,,2,,,60,75
83040,note_on,0,0,3,,,,,,,,,2,,,58,75
83040,note_on,54,0,3,,,,,,,,,2,,,51,75
83040,note_on,0,0,1,,,,,,,,,0,,,67,88
83040,note_on,0,0,1,,,,,,,,,0,,,70,88
83040,note_on,0,0,1,,,,,,,,,0,,,72,88
83040,note_on,60,0,1,,,,,,,,,0,,,72,0
83040,note_on,0,0,1,,,,,,,,,0,,,70,0
83046,note_on,0,0,1,,,,,,,,,0,,,67,0
83046,note_on,6,0,3,,,,,,,,,2,,,60,0
83046,note_on,0,0,3,,,,,,,,,2,,,58,0
83046,note_on,0,0,3,,,,,,,,,2,,,51,0
83046,note_on,0,0,1,,,,,,,,,0,,,70,0
83046,note_on,6,0,1,,,,,,,,,0,,,72,0
83100,note_on,0,0,1,,,,,,,,,0,,,72,101
83100,note_on,0,0,3,,,,,,,,,2,,,60,88
83100,note_on,0,0,1,,,,,,,,,0,,,70,101
83100,note_on,0,0,3,,,,,,,,,2,,,58,88
83100,note_on,54,0,1,,,,,,,,,0,,,67,101
83100,note_on,54,0,3,,,,,,,,,2,,,51,88
83106,note_on,6,0,1,,,,,,,,,0,,,72,0
83106,note_on,0,0,1,,,,,,,,,0,,,70,0
83106,note_on,0,0,1,,,,,,,,,0,,,67,0
83106,note_on,6,0,3,,,,,,,,,2,,,60,0
83106,note_on,0,0,3,,,,,,,,,2,,,51,0
83106,note_on,0,0,3,,,,,,,,,2,,,58,0
83160,note_on,0,0,3,,,,,,,,,2,,,60,88
83160,note_on,0,0,1,,,,,,,,,0,,,72,101
83160,note_on,0,0,1,,,,,,,,,0,,,70,101
83160,note_on,54,0,1,,,,,,,,,0,,,67,101
83160,note_on,0,0,3,,,,,,,,,2,,,58,88
83160,note_on,54,0,3,,,,,,,,,2,,,51,88
83166,note_on,0,0,3,,,,,,,,,2,,,58,0
83166,note_on,0,0,3,,,,,,,,,2,,,51,0
83166,note_on,0,0,1,,,,,,,,,0,,,67,0
83166,note_on,6,0,1,,,,,,,,,0,,,72,0
83166,note_on,6,0,3,,,,,,,,,2,,,60,0
83166,note_on,0,0,1,,,,,,,,,0,,,70,0
83220,control_change,54,0,1,,,,,,,,,0,64,0,,
83220,note_on,0,0,1,,,,,,,,,0,,,72,101
83220,note_on,0,0,1,,,,,,,,,0,,,70,101
83220,control_change,54,0,3,,,,,,,,,2,64,0,,
83220,note_on,0,0,3,,,,,,,,,2,,,51,88
83220,note_on,0,0,3,,,,,,,,,2,,,58,88
83220,note_on,0,0,3,,,,,,,,,2,,,60,88
83220,note_on,0,0,1,,,,,,,,,0,,,67,101
83226,note_on,6,0,3,,,,,,,,,2,,,60,0
83226,note_on,0,0,3,,,,,,,,,2,,,58,0
83226,note_on,0,0,3,,,,,,,,,2,,,51,0
83226,note_on,0,0,1,,,,,,,,,0,,,67,0
83226,note_on,0,0,1,,,,,,,,,0,,,70,0
83226,note_on,6,0,1,,,,,,,,,0,,,72,0
83280,note_on,0,0,3,,,,,,,,,2,,,61,101
83280,note_on,0,0,1,,,,,,,,,0,,,67,114
83280,control_change,54,0,1,,,,,,,,,0,64,127,,
83280,note_on,0,0,1,,,,,,,,,0,,,73,114
83280,note_on,0,0,1,,,,,,,,,0,,,70,114
83280,note_on,0,0,3,,,,,,,,,2,,,58,101
83280,note_on,54,0,3,,,,,,,,,2,,,51,101
83520,note_on,240,0,3,,,,,,,,,2,,,61,0
83520,note_on,0,0,3,,,,,,,,,2,,,51,0
83520,note_on,240,0,1,,,,,,,,,0,,,73,0
83520,note_on,0,0,3,,,,,,,,,2,,,58,0
83520,note_on,0,0,1,,,,,,,,,0,,,70,0
83520,note_on,0,0,1,,,,,,,,,0,,,67,0
83520,note_on,0,0,1,,,,,,,,,0,,,75,49
83550,note_on,30,0,1,,,,,,,,,0,,,75,0
83550,note_on,0,0,1,,,,,,,,,0,,,73,49
83580,note_on,30,0,1,,,,,,,,,0,,,73,0
83580,note_on,0,0,1,,,,,,,,,0,,,72,49
83610,control_change,0,0,1,,,,,,,,,0,64,0,,
83610,note_on,0,0,1,,,,,,,,,0,,,70,49
83610,note_on,30,0,1,,,,,,,,,0,,,72,0
83640,control_change,120,0,3,,,,,,,,,2,64,127,,
83640,note_on,0,0,3,,,,,,,,,2,,,53,49
83640,note_on,30,0,1,,,,,,,,,0,,,70,0
83640,control_change,0,0,1,,,,,,,,,0,64,127,,
83640,note_on,0,0,1,,,,,,,,,0,,,77,49
83640,note_on,0,0,3,,,,,,,,,2,,,60,49
83640,note_on,0,0,3,,,,,,,,,2,,,57,49
83700,note_on,60,0,1,,,,,,,,,0,,,77,0
83700,note_on,0,0,1,,,,,,,,,0,,,65,49
83700,note_on,0,0,1,,,,,,,,,0,,,77,49
83760,note_on,60,0,1,,,,,,,,,0,,,77,0
83760,note_on,0,0,1,,,,,,,,,0,,,77,49
83760,note_on,0,0,1,,,,,,,,,0,,,65,0
83760,note_on,0,0,3,,,,,,,,,2,,,57,0
83760,note_on,120,0,3,,,,,,,,,2,,,60,0
83760,note_on,0,0,1,,,,,,,,,0,,,65,49
83760,note_on,0,0,3,,,,,,,,,2,,,53,0
83790,note_on,30,0,3,,,,,,,,,2,,,41,62
83820,note_on,60,0,1,,,,,,,,,0,,,77,0
83820,note_on,0,0,1,,,,,,,,,0,,,65,0
83820,note_on,0,0,3,,,,,,,,,2,,,45,62
83820,note_on,0,0,1,,,,,,,,,0,,,77,49
83820,note_on,0,0,1,,,,,,,,,0,,,65,49
83820,note_on,30,0,3,,,,,,,,,2,,,41,0
83850,note_on,30,0,3,,,,,,,,,2,,,45,0
83850,note_on,0,0,3,,,,,,,,,2,,,48,62
83880,note_on,60,0,1,,,,,,,,,0,,,77,0
83880,note_on,0,0,1,,,,,,,,,0,,,69,49
83880,note_on,0,0,1,,,,,,,,,0,,,65,0
83880,note_on,30,0,3,,,,,,,,,2,,,48,0
83880,note_on,0,0,1,,,,,,,,,0,,,77,49
83880,note_on,0,0,3,,,,,,,,,2,,,53,62
83910,note_on,30,0,3,,,,,,,,,2,,,53,0
83910,note_on,0,0,3,,,,,,,,,2,,,57,62
83940,control_change,0,0,1,,,,,,,,,0,64,0,,
83940,note_on,0,0,1,,,,,,,,,0,,,77,49
83940,note_on,0,0,1,,,,,,,,,0,,,75,49
83940,note_on,0,0,1,,,,,,,,,0,,,69,49
83940,note_on,60,0,1,,,,,,,,,0,,,77,0
83940,note_on,0,0,1,,,,,,,,,0,,,69,0
83940,note_on,0,0,3,,,,,,,,,2,,,60,62
83940,note_on,30,0,3,,,,,,,,,2,,,57,0
83970,note_on,0,0,3,,,,,,,,,2,,,65,62
83970,control_change,0,0,3,,,,,,,,,2,64,0,,
83970,note_on,30,0,3,,,,,,,,,2,,,60,0
84000,note_on,30,0,3,,,,,,,,,2,,,65,0
84000,note_on,0,0,3,,,,,,,,,2,,,61,88
84000,note_on,0,0,1,,,,,,,,,0,,,77,49
84000,note_on,60,0,1,,,,,,,,,0,,,77,0
84000,note_on,0,0,1,,,,,,,,,0,,,75,0
84000,note_on,0,0,1,,,,,,,,,0,,,69,0
84000,note_on,0,0,1,,,,,,,,,0,,,69,49
84000,note_on,0,0,1,,,,,,,,,0,,,73,49
84000,control_change,0,0,3,,,,,,,,,2,64,127,,
84000,control_change,0,0,1,,,,,,,,,0,64,127,,
84060,note_on,0,0,1,,,,,,,,,0,,,77,49
84060,note_on,0,0,1,,,,,,,,,0,,,73,0
84060,note_on,0,0,1,,,,,,,,,0,,,69,0
84060,note_on,0,0,1,,,,,,,,,0,,,69,49
84060,note_on,0,0,1,,,,,,,,,0,,,73,49
84060,note_on,60,0,1,,,,,,,,,0,,,77,0
84120,note_on,60,0,1,,,,,,,,,0,,,77,0
84120,note_on,0,0,1,,,,,,,,,0,,,73,0
84120,note_on,0,0,1,,,,,,,,,0,,,69,0
84120,note_on,0,0,1,,,,,,,,,0,,,73,49
84120,note_on,0,0,1,,,,,,,,,0,,,77,49
84120,note_on,120,0,3,,,,,,,,,2,,,61,0
84120,note_on,0,0,1,,,,,,,,,0,,,70,49
84150,note_on,30,0,3,,,,,,,,,2,,,37,62
84180,note_on,0,0,1,,,,,,,,,0,,,73,49
84180,note_on,0,0,1,,,,,,,,,0,,,73,0
84180,note_on,0,0,1,,,,,,,,,0,,,70,0
84180,note_on,0,0,1,,,,,,,,,0,,,70,49
84180,note_on,0,0,1,,,,,,,,,0,,,77,49
84180,note_on,30,0,3,,,,,,,,,2,,,37,0
84180,note_on,0,0,3,,,,,,,,,2,,,41,62
84180,note_on,60,0,1,,,,,,,,,0,,,77,0
84210,note_on,30,0,3,,,,,,,,,2,,,41,0
84210,note_on,0,0,3,,,,,,,,,2,,,46,62
84240,note_on,0,0,1,,,,,,,,,0,,,73,49
84240,note_on,60,0,1,,,,,,,,,0,,,77,0
84240,note_on,0,0,1,,,,,,,,,0,,,73,0
84240,note_on,0,0,1,,,,,,,,,0,,,70,0
84240,note_on,0,0,1,,,,,,,,,0,,,70,49
84240,note_on,30,0,3,,,,,,,,,2,,,46,0
84240,note_on,0,0,1,,,,,,,,,0,,,77,49
84240,note_on,0,0,3,,,,,,,,,2,,,49,62
84270,note_on,30,0,3,,,,,,,,,2,,,49,0
84270,note_on,0,0,3,,,,,,,,,2,,,53,62
84300,note_on,0,0,3,,,,,,,,,2,,,58,62
84300,control_change,0,0,1,,,,,,,,,0,64,0,,
84300,note_on,30,0,3,,,,,,,,,2,,,53,0
84300,note_on,0,0,1,,,,,,,,,0,,,73,49
84300,note_on,0,0,1,,,,,,,,,0,,,70,0
84300,note_on,0,0,1,,,,,,,,,0,,,73,0
84300,note_on,60,0,1,,,,,,,,,0,,,77,0
84300,note_on,0,0,1,,,,,,,,,0,,,70,49
84300,note_on,0,0,1,,,,,,,,,0,,,77,49
84330,note_on,30,0,3,,,,,,,,,2,,,58,0
84330,note_on,0,0,3,,,,,,,,,2,,,61,62
84330,control_change,0,0,3,,,,,,,,,2,64,0,,
84360,note_on,0,0,1,,,,,,,,,0,,,82,49
84360,note_on,0,0,3,,,,,,,,,2,,,66,88
84360,note_on,0,0,1,,,,,,,,,0,,,70,49
84360,note_on,0,0,1,,,,,,,,,0,,,70,0
84360,note_on,0,0,1,,,,,,,,,0,,,73,0
84360,note_on,60,0,1,,,,,,,,,0,,,77,0
84360,note_on,30,0,3,,,,,,,,,2,,,61,0
84360,note_on,0,0,1,,,,,,,,,0,,,77,49
84420,note_on,0,0,1,,,,,,,,,0,,,70,49
84420,note_on,0,0,1,,,,,,,,,0,,,82,49
84420,note_on,0,0,1,,,,,,,,,0,,,77,49
84420,note_on,0,0,1,,,,,,,,,0,,,70,0
84420,note_on,0,0,1,,,,,,,,,0,,,77,0
84420,note_on,60,0,1,,,,,,,,,0,,,82,0
84480,note_on,0,0,1,,,,,,,,,0,,,82,49
84480,note_on,120,0,3,,,,,,,,,2,,,66,0
84480,note_on,0,0,1,,,,,,,,,0,,,70,0
84480,note_on,0,0,1,,,,,,,,,0,,,77,0
84480,note_on,60,0,1,,,,,,,,,0,,,82,0
84480,note_on,0,0,1,,,,,,,,,0,,,75,49
84480,note_on,0,0,1,,,,,,,,,0,,,70,49
84510,note_on,0,0,3,,,,,,,,,2,,,42,62
84510,control_change,30,0,3,,,,,,,,,2,64,127,,
84540,note_on,30,0,3,,,,,,,,,2,,,42,0
84540,note_on,0,0,1,,,,,,,,,0,,,70,0
84540,note_on,0,0,3,,,,,,,,,2,,,46,62
84540,note_on,60,0,1,,,,,,,,,0,,,82,0
84540,note_on,0,0,1,,,,,,,,,0,,,75,0
84540,note_on,0,0,1,,,,,,,,,0,,,70,49
84540,note_on,0,0,1,,,,,,,,,0,,,75,49
84540,note_on,0,0,1,,,,,,,,,0,,,82,49
84540,control_change,0,0,1,,,,,,,,,0,64,127,,
84570,note_on,30,0,3,,,,,,,,,2,,,46,0
84570,note_on,0,0,3,,,,,,,,,2,,,51,62
84600,note_on,0,0,1,,,,,,,,,0,,,82,49
84600,note_on,0,0,1,,,,,,,,,0,,,70,49
84600,note_on,0,0,1,,,,,,,,,0,,,70,0
84600,note_on,0,0,3,,,,,,,,,2,,,54,62
84600,note_on,30,0,3,,,,,,,,,2,,,51,0
84600,note_on,0,0,1,,,,,,,,,0,,,75,49
84600,note_on,0,0,1,,,,,,,,,0,,,75,0
84600,note_on,60,0,1,,,,,,,,,0,,,82,0
84630,note_on,0,0,3,,,,,,,,,2,,,58,62
84630,note_on,30,0,3,,,,,,,,,2,,,54,0
84660,note_on,0,0,3,,,,,,,,,2,,,63,62
84660,note_on,30,0,3,,,,,,,,,2,,,58,0
84660,note_on,60,0,1,,,,,,,,,0,,,82,0
84660,control_change,0,0,1,,,,,,,,,0,64,0,,
84660,note_on,0,0,1,,,,,,,,,0,,,82,49
84660,note_on,0,0,1,,,,,,,,,0,,,75,49
84660,note_on,0,0,1,,,,,,,,,0,,,70,49
84660,note_on,0,0,1,,,,,,,,,0,,,70,0
84660,note_on,0,0,1,,,,,,,,,0,,,75,0
84690,note_on,30,0,3,,,,,,,,,2,,,63,0
84690,note_on,0,0,3,,,,,,,,,2,,,66,62
84720,note_on,30,0,3,,,,,,,,,2,,,66,0
84720,control_change,0,0,3,,,,,,,,,2,64,0,,
84720,note_on,0,0,3,,,,,,,,,2,,,65,88
84720,note_on,0,0,1,,,,,,,,,0,,,80,49
84720,note_on,0,0,1,,,,,,,,,0,,,75,0
84720,note_on,0,0,1,,,,,,,,,0,,,68,49
84720,note_on,0,0,1,,,,,,,,,0,,,75,49
84720,control_change,0,0,1,,,,,,,,,0,64,127,,
84720,note_on,0,0,1,,,,,,,,,0,,,70,0
84720,note_on,60,0,1,,,,,,,,,0,,,82,0
84780,note_on,0,0,1,,,,,,,,,0,,,80,49
84780,note_on,0,0,1,,,,,,,,,0,,,75,49
84780,note_on,0,0,1,,,,,,,,,0,,,68,0
84780,note_on,0,0,1,,,,,,,,,0,,,75,0
84780,note_on,60,0,1,,,,,,,,,0,,,80,0
84780,note_on,0,0,1,,,,,,,,,0,,,68,49
84840,note_on,0,0,1,,,,,,,,,0,,,75,0
84840,note_on,0,0,1,,,,,,,,,0,,,68,0
84840,note_on,0,0,1,,,,,,,,,0,,,68,49
84840,note_on,0,0,1,,,,,,,,,0,,,80,49
84840,note_on,60,0,1,,,,,,,,,0,,,80,0
84840,note_on,0,0,1,,,,,,,,,0,,,73,49
84840,note_on,120,0,3,,,,,,,,,2,,,65,0
84870,note_on,0,0,3,,,,,,,,,2,,,41,62
84870,control_change,30,0,3,,,,,,,,,2,64,127,,
84900,note_on,0,0,1,,,,,,,,,0,,,73,0
84900,note_on,60,0,1,,,,,,,,,0,,,80,0
84900,note_on,0,0,1,,,,,,,,,0,,,73,49
84900,note_on,0,0,3,,,,,,,,,2,,,44,62
84900,note_on,30,0,3,,,,,,,,,2,,,41,0
84900,note_on,0,0,1,,,,,,,,,0,,,80,49
84900,note_on,0,0,1,,,,,,,,,0,,,68,49
84900,note_on,0,0,1,,,,,,,,,0,,,68,0
84930,note_on,30,0,3,,,,,,,,,2,,,44,0
84930,note_on,0,0,3,,,,,,,,,2,,,49,62
84960,note_on,0,0,1,,,,,,,,,0,,,80,49
84960,note_on,0,0,1,,,,,,,,,0,,,73,49
84960,note_on,0,0,1,,,,,,,,,0,,,68,49
84960,note_on,30,0,3,,,,,,,,,2,,,49,0
84960,note_on,0,0,1,,,,,,,,,0,,,68,0
84960,note_on,0,0,3,,,,,,,,,2,,,53,62
84960,note_on,0,0,1,,,,,,,,,0,,,73,0
84960,note_on,60,0,1,,,,,,,,,0,,,80,0
84990,note_on,0,0,3,,,,,,,,,2,,,56,62
84990,note_on,30,0,3,,,,,,,,,2,,,53,0
85020,control_change,0,0,1,,,,,,,,,0,64,0,,
85020,note_on,0,0,3,,,,,,,,,2,,,61,62
85020,note_on,60,0,1,,,,,,,,,0,,,80,0
85020,note_on,0,0,1,,,,,,,,,0,,,73,0
85020,note_on,0,0,1,,,,,,,,,0,,,68,0
85020,note_on,0,0,1,,,,,,,,,0,,,68,49
85020,note_on,0,0,1,,,,,,,,,0,,,73,49
85020,note_on,0,0,1,,,,,,,,,0,,,80,49
85020,note_on,30,0,3,,,,,,,,,2,,,56,0
85050,note_on,0,0,3,,,,,,,,,2,,,65,62
85050,control_change,0,0,3,,,,,,,,,2,64,0,,
85050,note_on,30,0,3,,,,,,,,,2,,,61,0
85080,note_on,0,0,1,,,,,,,,,0,,,78,49
85080,control_change,0,0,1,,,,,,,,,0,64,127,,
85080,note_on,0,0,1,,,,,,,,,0,,,68,0
85080,note_on,0,0,1,,,,,,,,,0,,,73,0
85080,note_on,0,0,3,,,,,,,,,2,,,63,88
85080,note_on,0,0,1,,,,,,,,,0,,,72,49
85080,note_on,30,0,3,,,,,,,,,2,,,65,0
85080,control_change,0,0,3,,,,,,,,,2,64,127,,
85080,note_on,60,0,1,,,,,,,,,0,,,80,0
85080,note_on,0,0,1,,,,,,,,,0,,,68,49
85140,note_on,0,0,1,,,,,,,,,0,,,78,49
85140,note_on,0,0,1,,,,,,,,,0,,,72,49
85140,note_on,0,0,1,,,,,,,,,0,,,68,49
85140,note_on,0,0,1,,,,,,,,,0,,,68,0
85140,note_on,0,0,1,,,,,,,,,0,,,72,0
85140,note_on,60,0,1,,,,,,,,,0,,,78,0
85200,note_on,0,0,1,,,,,,,,,0,,,68,49
85200,note_on,0,0,1,,,,,,,,,0,,,72,0
85200,note_on,0,0,1,,,,,,,,,0,,,68,0
85200,note_on,0,0,1,,,,,,,,,0,,,75,49
85200,note_on,0,0,1,,,,,,,,,0,,,78,49
85200,note_on,120,0,3,,,,,,,,,2,,,63,0
85200,note_on,0,0,3,,,,,,,,,2,,,48,62
85200,note_on,60,0,1,,,,,,,,,0,,,78,0
85230,note_on,30,0,3,,,,,,,,,2,,,48,0
85230,note_on,0,0,3,,,,,,,,,2,,,51,62
85260,note_on,30,0,3,,,,,,,,,2,,,51,0
85260,note_on,0,0,3,,,,,,,,,2,,,56,62
85260,note_on,0,0,1,,,,,,,,,0,,,75,0
85260,note_on,60,0,1,,,,,,,,,0,,,78,0
85260,note_on,0,0,1,,,,,,,,,0,,,68,0
85260,note_on,0,0,1,,,,,,,,,0,,,68,49
85260,note_on,0,0,1,,,,,,,,,0,,,75,49
85260,note_on,0,0,1,,,,,,,,,0,,,78,49
85290,note_on,0,0,3,,,,,,,,,2,,,60,62
85290,note_on,30,0,3,,,,,,,,,2,,,56,0
85320,note_on,0,0,1,,,,,,,,,0,,,68,49
85320,note_on,0,0,1,,,,,,,,,0,,,68,0
85320,note_on,30,0,3,,,,,,,,,2,,,60,0
85320,note_on,0,0,1,,,,,,,,,0,,,75,0
85320,control_change,0,0,3,,,,,,,,,2,64,0,,
85320,control_change,0,0,1,,,,,,,,,0,64,0,,
85320,note_on,0,0,1,,,,,,,,,0,,,77,49
85320,note_on,0,0,1,,,,,,,,,0,,,73,49
85320,note_on,60,0,1,,,,,,,,,0,,,78,0
85320,note_on,0,0,3,,,,,,,,,2,,,61,62
85350,note_on,0,0,3,,,,,,,,,2,,,56,62
85350,note_on,30,0,3,,,,,,,,,2,,,61,0
85380,note_on,30,0,3,,,,,,,,,2,,,56,0
85380,note_on,0,0,3,,,,,,,,,2,,,53,62
85380,note_on,0,0,1,,,,,,,,,0,,,77,49
85380,note_on,0,0,1,,,,,,,,,0,,,68,49
85380,note_on,0,0,1,,,,,,,,,0,,,68,0
85380,note_on,0,0,1,,,,,,,,,0,,,73,0
85380,note_on,60,0,1,,,,,,,,,0,,,77,0
85380,note_on,0,0,1,,,,,,,,,0,,,73,49
85410,note_on,30,0,3,,,,,,,,,2,,,53,0
85410,note_on,0,0,3,,,,,,,,,2,,,49,62
85440,note_on,0,0,2,,,,,,,,,1,,,72,36
85440,control_change,0,0,3,,,,,,,,,2,64,127,,
85440,note_on,0,0,1,,,,,,,,,0,,,75,49
85440,control_change,0,0,1,,,,,,,,,0,64,127,,
85440,note_on,60,0,1,,,,,,,,,0,,,77,0
85440,note_on,30,0,3,,,,,,,,,2,,,49,0
85440,note_on,6120,0,2,,,,,,,,,1,,,68,36
85440,note_on,0,0,1,,,,,,,,,0,,,68,0
85440,note_on,0,0,1,,,,,,,,,0,,,73,0
85440,note_on,0,0,3,,,,,,,,,2,,,56,62
85500,note_on,60,0,2,,,,,,,,,1,,,72,0
85500,note_on,0,0,3,,,,,,,,,2,,,72,36
85500,note_on,0,0,2,,,,,,,,,1,,,68,0
85500,note_on,0,0,3,,,,,,,,,2,,,68,36
85500,note_on,60,0,3,,,,,,,,,2,,,56,0
85560,note_on,0,0,3,,,,,,,,,2,,,72,36
85560,note_on,0,0,3,,,,,,,,,2,,,68,0
85560,note_on,60,0,3,,,,,,,,,2,,,72,0
85560,note_on,0,0,3,,,,,,,,,2,,,68,36
85620,note_on,60,0,3,,,,,,,,,2,,,72,0
85620,note_on,0,0,3,,,,,,,,,2,,,68,36
85620,note_on,0,0,3,,,,,,,,,2,,,72,36
85620,note_on,0,0,3,,,,,,,,,2,,,68,0
85680,note_on,0,0,3,,,,,,,,,2,,,68,0
85680,note_on,0,0,3,,,,,,,,,2,,,72,36
85680,note_on,0,0,3,,,,,,,,,2,,,68,36
85680,note_on,60,0,3,,,,,,,,,2,,,72,0
85680,note_on,240,0,1,,,,,,,,,0,,,75,0
85680,note_on,0,0,1,,,,,,,,,0,,,75,49
85710,note_on,0,0,1,,,,,,,,,0,,,80,49
85710,note_on,30,0,1,,,,,,,,,0,,,75,0
85740,note_on,60,0,3,,,,,,,,,2,,,72,0
85740,note_on,0,0,3,,,,,,,,,2,,,68,0
85740,control_change,0,0,3,,,,,,,,,2,64,0,,
85740,note_on,0,0,3,,,,,,,,,2,,,68,36
85740,note_on,0,0,3,,,,,,,,,2,,,72,36
85740,note_on,0,0,1,,,,,,,,,0,,,84,49
85740,note_on,30,0,1,,,,,,,,,0,,,80,0
85770,note_on,0,0,1,,,,,,,,,0,,,87,49
85770,control_change,0,0,1,,,,,,,,,0,64,0,,
85770,note_on,30,0,1,,,,,,,,,0,,,84,0
85800,control_change,0,0,3,,,,,,,,,2,64,127,,
85800,control_change,0,0,1,,,,,,,,,0,64,127,,
85800,note_on,30,0,1,,,,,,,,,0,,,87,0
85800,note_on,0,0,3,,,,,,,,,2,,,73,36
85800,note_on,0,0,1,,,,,,,,,0,,,87,49
85800,note_on,0,0,3,,,,,,,,,2,,,68,0
85800,note_on,60,0,3,,,,,,,,,2,,,72,0
85800,note_on,0,0,3,,,,,,,,,2,,,70,36
85860,note_on,60,0,3,,,,,,,,,2,,,73,0
85860,note_on,0,0,3,,,,,,,,,2,,,70,0
85860,note_on,0,0,3,,,,,,,,,2,,,70,36
85860,note_on,0,0,3,,,,,,,,,2,,,73,36
85920,note_on,120,0,1,,,,,,,,,0,,,87,0
85920,note_on,0,0,3,,,,,,,,,2,,,73,36
85920,note_on,0,0,3,,,,,,,,,2,,,70,36
85920,note_on,0,0,3,,,,,,,,,2,,,70,0
85920,note_on,60,0,3,,,,,,,,,2,,,73,0
85920,note_on,0,0,1,,,,,,,,,0,,,79,49
85980,note_on,0,0,3,,,,,,,,,2,,,73,36
85980,note_on,60,0,3,,,,,,,,,2,,,73,0
85980,note_on,0,0,3,,,,,,,,,2,,,70,0
85980,note_on,0,0,3,,,,,,,,,2,,,70,36
85980,note_on,60,0,1,,,,,,,,,0,,,79,0
86040,note_on,60,0,1,,,,,,,,,0,,,75,49
86040,note_on,60,0,3,,,,,,,,,2,,,73,0
86040,note_on,0,0,3,,,,,,,,,2,,,70,0
86040,note_on,0,0,3,,,,,,,,,2,,,70,36
86040,note_on,0,0,3,,,,,,,,,2,,,73,36
86070,note_on,30,0,1,,,,,,,,,0,,,75,0
86070,note_on,0,0,1,,,,,,,,,0,,,79,49
86100,control_change,0,0,3,,,,,,,,,2,64,0,,
86100,note_on,0,0,3,,,,,,,,,2,,,70,36
86100,note_on,0,0,3,,,,,,,,,2,,,73,36
86100,note_on,0,0,1,,,,,,,,,0,,,82,49
86100,note_on,30,0,1,,,,,,,,,0,,,79,0
86100,note_on,0,0,3,,,,,,,,,2,,,70,0
86100,note_on,60,0,3,,,,,,,,,2,,,73,0
86130,note_on,0,0,1,,,,,,,,,0,,,87,49
86130,note_on,30,0,1,,,,,,,,,0,,,82,0
86130,control_change,0,0,1,,,,,,,,,0,64,0,,
86160,note_on,0,0,3,,,,,,,,,2,,,72,36
86160,note_on,60,0,3,,,,,,,,,2,,,73,0
86160,note_on,30,0,1,,,,,,,,,0,,,87,0
86160,note_on,0,0,3,,,,,,,,,2,,,70,0
86160,control_change,0,0,1,,,,,,,,,0,64,127,,
86160,note_on,0,0,1,,,,,,,,,0,,,87,49
86160,control_change,0,0,3,,,,,,,,,2,64,127,,
86160,note_on,0,0,3,,,,,,,,,2,,,75,36
86220,note_on,0,0,3,,,,,,,,,2,,,72,0
86220,note_on,60,0,3,,,,,,,,,2,,,75,0
86220,note_on,0,0,3,,,,,,,,,2,,,75,36
86220,note_on,0,0,3,,,,,,,,,2,,,72,36
86280,note_on,60,0,3,,,,,,,,,2,,,75,0
86280,note_on,0,0,3,,,,,,,,,2,,,72,0
86280,note_on,0,0,3,,,,,,,,,2,,,72,36
86280,note_on,0,0,1,,,,,,,,,0,,,80,49
86280,note_on,120,0,1,,,,,,,,,0,,,87,0
86280,note_on,0,0,3,,,,,,,,,2,,,75,36
86340,note_on,0,0,3,,,,,,,,,2,,,75,36
86340,note_on,0,0,3,,,,,,,,,2,,,72,36
86340,note_on,0,0,3,,,,,,,,,2,,,72,0
86340,note_on,60,0,3,,,,,,,,,2,,,75,0
86340,note_on,60,0,1,,,,,,,,,0,,,80,0
86400,note_on,0,0,3,,,,,,,,,2,,,72,0
86400,note_on,60,0,1,,,,,,,,,0,,,80,49
86400,note_on,60,0,3,,,,,,,,,2,,,75,0
86430,note_on,30,0,1,,,,,,,,,0,,,80,0
86430,note_on,0,0,1,,,,,,,,,0,,,79,49
86460,note_on,0,0,3,,,,,,,,,2,,,60,36
86460,note_on,30,0,1,,,,,,,,,0,,,79,0
86460,note_on,0,0,1,,,,,,,,,0,,,77,49
86460,note_on,0,0,3,,,,,,,,,2,,,68,36
86460,control_change,60,0,3,,,,,,,,,2,64,0,,
86490,note_on,30,0,1,,,,,,,,,0,,,77,0
86490,control_change,0,0,1,,,,,,,,,0,64,0,,
86490,note_on,0,0,1,,,,,,,,,0,,,76,49
86520,note_on,0,0,3,,,,,,,,,2,,,61,36
86520,note_on,0,0,3,,,,,,,,,2,,,68,36
86520,note_on,60,0,3,,,,,,,,,2,,,68,0
86520,control_change,0,0,3,,,,,,,,,2,64,127,,
86520,note_on,0,0,3,,,,,,,,,2,,,60,0
86520,note_on,0,0,1,,,,,,,,,0,,,76,49
86520,control_change,0,0,1,,,,,,,,,0,64,127,,
86520,note_on,30,0,1,,,,,,,,,0,,,76,0
86640,note_on,0,0,1,,,,,,,,,0,,,77,49
86640,note_on,120,0,1,,,,,,,,,0,,,76,0
86640,note_on,0,0,3,,,,,,,,,2,,,61,0
86640,note_on,120,0,3,,,,,,,,,2,,,68,0
86700,note_on,4500,0,4,,,,,,,,,3,,,61,36
86700,note_on,60,0,3,,,,,,,,,2,,,68,36
86700,note_on,60,0,1,,,,,,,,,0,,,77,0
86700,note_on,0,0,1,,,,,,,,,0,,,84,49
86730,note_on,0,0,1,,,,,,,,,0,,,85,49
86730,note_on,30,0,1,,,,,,,,,0,,,84,0
86760,control_change,0,0,3,,,,,,,,,2,64,0,,
86760,note_on,60,0,3,,,,,,,,,2,,,68,0
86760,note_on,0,0,3,,,,,,,,,2,,,69,36
86760,note_on,0,0,4,,,,,,,,,3,,,60,36
86760,note_on,30,0,1,,,,,,,,,0,,,85,0
86760,control_change,0,0,1,,,,,,,,,0,64,0,,
86760,note_on,0,0,1,,,,,,,,,0,,,89,49
86760,note_on,60,0,4,,,,,,,,,3,,,61,0
86790,note_on,30,0,1,,,,,,,,,0,,,89,0
86790,note_on,0,0,1,,,,,,,,,0,,,87,49
86820,note_on,0,0,4,,,,,,,,,3,,,65,36
86820,note_on,30,0,1,,,,,,,,,0,,,87,0
86820,note_on,0,0,1,,,,,,,,,0,,,85,49
86820,note_on,60,0,4,,,,,,,,,3,,,60,0
86850,note_on,30,0,1,,,,,,,,,0,,,85,0
86850,note_on,0,0,1,,,,,,,,,0,,,84,49
86880,note_on,0,0,3,,,,,,,,,2,,,65,36
86880,note_on,0,0,3,,,,,,,,,2,,,69,36
86880,note_on,60,0,4,,,,,,,,,3,,,65,0
86880,note_on,120,0,3,,,,,,,,,2,,,69,0
86880,control_change,0,0,1,,,,,,,,,0,64,127,,
86880,note_on,30,0,1,,,,,,,,,0,,,84,0
86880,note_on,0,0,1,,,,,,,,,0,,,87,49
87000,note_on,0,0,3,,,,,,,,,2,,,70,36
87000,note_on,0,0,3,,,,,,,,,2,,,58,36
87000,note_on,120,0,1,,,,,,,,,0,,,87,0
87000,note_on,0,0,3,,,,,,,,,2,,,65,0
87000,note_on,0,0,1,,,,,,,,,0,,,85,49
87000,note_on,120,0,3,,,,,,,,,2,,,69,0
87060,note_on,60,0,1,,,,,,,,,0,,,85,0
87060,control_change,0,0,1,,,,,,,,,0,64,0,,
87060,note_on,0,0,1,,,,,,,,,0,,,89,49
87060,note_on,60,0,3,,,,,,,,,2,,,70,0
87060,note_on,0,0,3,,,,,,,,,2,,,58,0
87090,note_on,0,0,1,,,,,,,,,0,,,87,49
87090,note_on,30,0,1,,,,,,,,,0,,,89,0
87120,note_on,0,0,1,,,,,,,,,0,,,85,49
87120,note_on,30,0,1,,,,,,,,,0,,,87,0
87150,note_on,30,0,1,,,,,,,,,0,,,85,0
87150,note_on,0,0,1,,,,,,,,,0,,,84,49
87180,note_on,0,0,1,,,,,,,,,0,,,82,49
87180,note_on,30,0,1,,,,,,,,,0,,,84,0
87210,note_on,0,0,1,,,,,,,,,0,,,80,49
87210,note_on,30,0,1,,,,,,,,,0,,,82,0
87240,note_on,0,0,3,,,,,,,,,2,,,70,75
87240,note_on,0,0,3,,,,,,,,,2,,,73,75
87240,note_on,0,0,1,,,,,,,,,0,,,79,114
87240,note_on,30,0,1,,,,,,,,,0,,,80,0
87240,note_on,180,0,3,,,,,,,,,2,,,63,75
87330,note_on,90,0,3,,,,,,,,,2,,,73,0
87330,note_on,0,0,1,,,,,,,,,0,,,79,49
87330,note_on,0,0,3,,,,,,,,,2,,,70,36
87330,note_on,0,0,3,,,,,,,,,2,,,73,36
87330,note_on,0,0,3,,,,,,,,,2,,,70,0
87330,note_on,90,0,1,,,,,,,,,0,,,79,0
87330,note_on,0,0,3,,,,,,,,,2,,,64,36
87330,note_on,0,0,3,,,,,,,,,2,,,63,0
87360,note_on,30,0,3,,,,,,,,,2,,,73,0
87360,note_on,0,0,3,,,,,,,,,2,,,70,0
87360,note_on,0,0,3,,,,,,,,,2,,,64,0
87360,note_on,0,0,3,,,,,,,,,2,,,65,36
87360,note_on,0,0,3,,,,,,,,,2,,,68,36
87360,note_on,0,0,3,,,,,,,,,2,,,72,36
87360,note_on,0,0,1,,,,,,,,,0,,,80,49
87360,note_on,30,0,1,,,,,,,,,0,,,79,0
87480,note_on,120,0,3,,,,,,,,,2,,,72,0
87480,note_on,0,0,3,,,,,,,,,2,,,68,0
87480,note_on,0,0,3,,,,,,,,,2,,,65,0
87480,note_on,120,0,1,,,,,,,,,0,,,80,0
87600,note_on,2100,0,2,,,,,,,,,1,,,70,36
87600,note_on,0,0,3,,,,,,,,,2,,,63,36
87600,note_on,120,0,1,,,,,,,,,0,,,75,36
87600,note_on,120,0,3,,,,,,,,,2,,,55,36
87690,note_on,0,0,1,,,,,,,,,0,,,73,36
87690,note_on,90,0,1,,,,,,,,,0,,,75,0
87720,control_change,0,0,1,,,,,,,,,0,64,127,,
87720,note_on,0,0,1,,,,,,,,,0,,,68,36
87720,note_on,0,0,1,,,,,,,,,0,,,72,36
87720,note_on,120,0,2,,,,,,,,,1,,,70,0
87720,note_on,0,0,3,,,,,,,,,2,,,56,36
87720,note_on,120,0,3,,,,,,,,,2,,,55,0
87720,note_on,30,0,1,,,,,,,,,0,,,73,0
87780,note_on,60,0,1,,,,,,,,,0,,,72,0
87780,note_on,0,0,1,,,,,,,,,0,,,60,88
87780,note_on,0,0,3,,,,,,,,,2,,,63,0
87780,note_on,0,0,1,,,,,,,,,0,,,68,0
87780,note_on,60,0,3,,,,,,,,,2,,,56,0
87810,note_on,30,0,1,,,,,,,,,0,,,60,0
87810,note_on,0,0,1,,,,,,,,,0,,,63,88
87840,note_on,0,0,1,,,,,,,,,0,,,68,88
87840,note_on,30,0,1,,,,,,,,,0,,,63,0
87870,note_on,0,0,1,,,,,,,,,0,,,72,88
87870,note_on,30,0,1,,,,,,,,,0,,,68,0
87900,note_on,0,0,1,,,,,,,,,0,,,75,88
87900,note_on,30,0,1,,,,,,,,,0,,,72,0
87930,note_on,30,0,1,,,,,,,,,0,,,75,0
87930,note_on,0,0,1,,,,,,,,,0,,,80,88
87960,note_on,0,0,1,,,,,,,,,0,,,80,101
87960,note_on,30,0,1,,,,,,,,,0,,,80,0
87960,control_change,0,0,1,,,,,,,,,0,64,127,,
88020,note_on,0,0,1,,,,,,,,,0,,,70,101
88020,note_on,0,0,1,,,,,,,,,0,,,68,101
88020,note_on,0,0,1,,,,,,,,,0,,,65,101
88020,note_on,60,0,1,,,,,,,,,0,,,80,0
88020,control_change,0,0,1,,,,,,,,,0,64,127,,
88020,note_on,0,0,3,,,,,,,,,2,,,49,88
88020,note_on,0,0,3,,,,,,,,,2,,,56,88
88020,note_on,0,0,3,,,,,,,,,2,,,58,88
88020,control_change,240,0,3,,,,,,,,,2,64,127,,
88026,note_on,0,0,3,,,,,,,,,2,,,49,0
88026,note_on,6,0,3,,,,,,,,,2,,,58,0
88026,note_on,0,0,3,,,,,,,,,2,,,56,0
88080,note_on,60,0,1,,,,,,,,,0,,,70,0
88080,note_on,0,0,1,,,,,,,,,0,,,68,0
88080,note_on,0,0,1,,,,,,,,,0,,,65,0
88080,note_on,0,0,1,,,,,,,,,0,,,65,101
88080,note_on,0,0,1,,,,,,,,,0,,,68,101
88080,note_on,0,0,1,,,,,,,,,0,,,70,101
88080,note_on,0,0,3,,,,,,,,,2,,,56,88
88080,note_on,54,0,3,,,,,,,,,2,,,49,88
88080,note_on,0,0,3,,,,,,,,,2,,,58,88
88086,note_on,6,0,3,,,,,,,,,2,,,58,0
88086,note_on,0,0,3,,,,,,,,,2,,,56,0
88086,note_on,0,0,3,,,,,,,,,2,,,49,0
88086,note_on,0,0,1,,,,,,,,,0,,,68,0
88086,note_on,0,0,1,,,,,,,,,0,,,65,0
88086,note_on,6,0,1,,,,,,,,,0,,,70,0
88140,note_on,54,0,3,,,,,,,,,2,,,49,88
88140,note_on,0,0,3,,,,,,,,,2,,,56,88
88140,note_on,0,0,3,,,,,,,,,2,,,58,88
88140,note_on,54,0,1,,,,,,,,,0,,,65,101
88140,note_on,0,0,1,,,,,,,,,0,,,68,101
88140,note_on,0,0,1,,,,,,,,,0,,,70,101
88146,note_on,0,0,3,,,,,,,,,2,,,49,0
88146,note_on,0,0,1,,,,,,,,,0,,,68,0
88146,note_on,0,0,1,,,,,,,,,0,,,65,0
88146,note_on,0,0,3,,,,,,,,,2,,,56,0
88146,note_on,6,0,3,,,,,,,,,2,,,58,0
88146,note_on,6,0,1,,,,,,,,,0,,,70,0
88200,note_on,54,0,1,,,,,,,,,0,,,65,101
88200,note_on,0,0,1,,,,,,,,,0,,,70,101
88200,note_on,0,0,1,,,,,,,,,0,,,68,101
88200,note_on,0,0,3,,,,,,,,,2,,,58,88
88200,note_on,0,0,3,,,,,,,,,2,,,56,88
88200,note_on,54,0,3,,,,,,,,,2,,,49,88
88206,note_on,0,0,1,,,,,,,,,0,,,68,0
88206,note_on,0,0,1,,,,,,,,,0,,,65,0
88206,note_on,0,0,3,,,,,,,,,2,,,49,0
88206,note_on,0,0,3,,,,,,,,,2,,,56,0
88206,note_on,6,0,3,,,,,,,,,2,,,58,0
88206,note_on,6,0,1,,,,,,,,,0,,,70,0
88260,control_change,54,0,1,,,,,,,,,0,64,0,,
88260,note_on,0,0,1,,,,,,,,,0,,,65,101
88260,note_on,0,0,3,,,,,,,,,2,,,58,88
88260,note_on,0,0,1,,,,,,,,,0,,,68,101
88260,note_on,0,0,3,,,,,,,,,2,,,56,88
88260,note_on,0,0,3,,,,,,,,,2,,,49,88
88260,control_change,54,0,3,,,,,,,,,2,64,0,,
88260,note_on,0,0,1,,,,,,,,,0,,,70,101
88266,note_on,0,0,3,,,,,,,,,2,,,49,0
88266,note_on,0,0,3,,,,,,,,,2,,,56,0
88266,note_on,6,0,3,,,,,,,,,2,,,58,0
88266,note_on,0,0,1,,,,,,,,,0,,,68,0
88266,note_on,0,0,1,,,,,,,,,0,,,65,0
88266,note_on,6,0,1,,,,,,,,,0,,,70,0
88320,note_on,0,0,3,,,,,,,,,2,,,59,101
88320,note_on,0,0,3,,,,,,,,,2,,,56,101
88320,note_on,54,0,3,,,,,,,,,2,,,50,101
88320,control_change,54,0,1,,,,,,,,,0,64,127,,
88320,note_on,0,0,1,,,,,,,,,0,,,65,114
88320,note_on,0,0,1,,,,,,,,,0,,,68,114
88320,note_on,0,0,1,,,,,,,,,0,,,71,114
88560,note_on,240,0,1,,,,,,,,,0,,,71,0
88560,note_on,0,0,3,,,,,,,,,2,,,56,0
88560,note_on,240,0,3,,,,,,,,,2,,,59,0
88560,note_on,0,0,1,,,,,,,,,0,,,68,0
88560,note_on,0,0,1,,,,,,,,,0,,,65,0
88560,note_on,0,0,3,,,,,,,,,2,,,50,0
88560,note_on,0,0,1,,,,,,,,,0,,,73,114
88590,note_on,0,0,1,,,,,,,,,0,,,71,114
88590,note_on,30,0,1,,,,,,,,,0,,,73,0
88620,note_on,30,0,1,,,,,,,,,0,,,71,0
88620,note_on,0,0,1,,,,,,,,,0,,,70,114
88650,note_on,30,0,1,,,,,,,,,0,,,70,0
88650,control_change,0,0,1,,,,,,,,,0,64,0,,
88650,note_on,0,0,1,,,,,,,,,0,,,68,114
88680,note_on,0,0,3,,,,,,,,,2,,,51,88
88680,note_on,30,0,1,,,,,,,,,0,,,68,0
88680,control_change,0,0,1,,,,,,,,,0,64,127,,
88680,note_on,0,0,1,,,,,,,,,0,,,75,75
88680,note_on,0,0,3,,,,,,,,,2,,,55,88
88680,note_on,0,0,3,,,,,,,,,2,,,58,88
88680,control_change,120,0,3,,,,,,,,,2,64,127,,
88740,note_on,0,0,1,,,,,,,,,0,,,75,75
88740,note_on,60,0,1,,,,,,,,,0,,,75,0
88740,note_on,0,0,1,,,,,,,,,0,,,63,75
88800,note_on,120,0,3,,,,,,,,,2,,,58,0
88800,note_on,0,0,3,,,,,,,,,2,,,55,0
88800,note_on,0,0,1,,,,,,,,,0,,,75,75
88800,note_on,60,0,1,,,,,,,,,0,,,75,0
88800,note_on,0,0,1,,,,,,,,,0,,,63,75
88800,note_on,0,0,1,,,,,,,,,0,,,63,0
88800,note_on,0,0,3,,,,,,,,,2,,,51,0
88830,note_on,30,0,3,,,,,,,,,2,,,39,88
88860,note_on,30,0,3,,,,,,,,,2,,,39,0
88860,note_on,0,0,3,,,,,,,,,2,,,43,88
88860,note_on,0,0,1,,,,,,,,,0,,,75,75
88860,note_on,0,0,1,,,,,,,,,0,,,63,75
88860,note_on,0,0,1,,,,,,,,,0,,,63,0
88860,note_on,60,0,1,,,,,,,,,0,,,75,0
88890,note_on,30,0,3,,,,,,,,,2,,,43,0
88890,note_on,0,0,3,,,,,,,,,2,,,46,88
88920,note_on,30,0,3,,,,,,,,,2,,,46,0
88920,note_on,0,0,3,,,,,,,,,2,,,51,88
88920,note_on,60,0,1,,,,,,,,,0,,,75,0
88920,note_on,0,0,1,,,,,,,,,0,,,63,0
88920,note_on,0,0,1,,,,,,,,,0,,,67,75
88920,note_on,0,0,1,,,,,,,,,0,,,73,75
88920,note_on,0,0,1,,,,,,,,,0,,,75,75
88950,note_on,0,0,3,,,,,,,,,2,,,55,88
88950,note_on,30,0,3,,,,,,,,,2,,,51,0
88980,note_on,60,0,1,,,,,,,,,0,,,75,0
88980,note_on,0,0,1,,,,,,,,,0,,,67,0
88980,note_on,0,0,1,,,,,,,,,0,,,67,75
88980,note_on,0,0,1,,,,,,,,,0,,,73,75
88980,note_on,0,0,1,,,,,,,,,0,,,75,75
88980,control_change,0,0,1,,,,,,,,,0,64,0,,
88980,note_on,0,0,1,,,,,,,,,0,,,73,0
88980,note_on,30,0,3,,,,,,,,,2,,,55,0
88980,note_on,0,0,3,,,,,,,,,2,,,58,88
89010,note_on,30,0,3,,,,,,,,,2,,,58,0
89010,control_change,0,0,3,,,,,,,,,2,64,0,,
89010,note_on,0,0,3,,,,,,,,,2,,,63,88
89040,control_change,0,0,1,,,,,,,,,0,64,127,,
89040,note_on,0,0,1,,,,,,,,,0,,,67,0
89040,note_on,0,0,1,,,,,,,,,0,,,73,0
89040,note_on,60,0,1,,,,,,,,,0,,,75,0
89040,note_on,0,0,1,,,,,,,,,0,,,75,75
89040,note_on,30,0,3,,,,,,,,,2,,,63,0
89040,control_change,0,0,3,,,,,,,,,2,64,127,,
89040,note_on,0,0,3,,,,,,,,,2,,,59,114
89040,note_on,0,0,1,,,,,,,,,0,,,71,75
89040,note_on,0,0,1,,,,,,,,,0,,,67,75
89100,note_on,60,0,1,,,,,,,,,0,,,75,0
89100,note_on,0,0,1,,,,,,,,,0,,,71,0
89100,note_on,0,0,1,,,,,,,,,0,,,75,75
89100,note_on,0,0,1,,,,,,,,,0,,,71,75
89100,note_on,0,0,1,,,,,,,,,0,,,67,75
89100,note_on,0,0,1,,,,,,,,,0,,,67,0
89160,note_on,0,0,1,,,,,,,,,0,,,71,75
89160,note_on,0,0,1,,,,,,,,,0,,,75,75
89160,note_on,60,0,1,,,,,,,,,0,,,75,0
89160,note_on,0,0,1,,,,,,,,,0,,,71,0
89160,note_on,0,0,1,,,,,,,,,0,,,68,75
89160,note_on,120,0,3,,,,,,,,,2,,,59,0
89160,note_on,0,0,1,,,,,,,,,0,,,67,0
89190,note_on,30,0,3,,,,,,,,,2,,,35,88
89220,note_on,30,0,3,,,,,,,,,2,,,35,0
89220,note_on,0,0,3,,,,,,,,,2,,,39,88
89220,note_on,0,0,1,,,,,,,,,0,,,75,75
89220,note_on,0,0,1,,,,,,,,,0,,,71,75
89220,note_on,0,0,1,,,,,,,,,0,,,68,75
89220,note_on,0,0,1,,,,,,,,,0,,,68,0
89220,note_on,0,0,1,,,,,,,,,0,,,71,0
89220,note_on,60,0,1,,,,,,,,,0,,,75,0
89250,note_on,30,0,3,,,,,,,,,2,,,39,0
89250,note_on,0,0,3,,,,,,,,,2,,,44,88
89280,note_on,30,0,3,,,,,,,,,2,,,44,0
89280,note_on,0,0,3,,,,,,,,,2,,,47,88
89280,note_on,60,0,1,,,,,,,,,0,,,75,0
89280,note_on,0,0,1,,,,,,,,,0,,,71,0
89280,note_on,0,0,1,,,,,,,,,0,,,68,0
89280,note_on,0,0,1,,,,,,,,,0,,,68,75
89280,note_on,0,0,1,,,,,,,,,0,,,71,75
89280,note_on,0,0,1,,,,,,,,,0,,,75,75
89310,note_on,30,0,3,,,,,,,,,2,,,47,0
89310,note_on,0,0,3,,,,,,,,,2,,,51,88
89340,note_on,30,0,3,,,,,,,,,2,,,51,0
89340,note_on,0,0,3,,,,,,,,,2,,,56,88
89340,note_on,0,0,1,,,,,,,,,0,,,71,75
89340,note_on,0,0,1,,,,,,,,,0,,,68,0
89340,control_change,0,0,1,,,,,,,,,0,64,0,,
89340,note_on,0,0,1,,,,,,,,,0,,,71,0
89340,note_on,60,0,1,,,,,,,,,0,,,75,0
89340,note_on,0,0,1,,,,,,,,,0,,,68,75
89340,note_on,0,0,1,,,,,,,,,0,,,75,75
89370,note_on,0,0,3,,,,,,,,,2,,,59,88
89370,control_change,0,0,3,,,,,,,,,2,64,0,,
89370,note_on,30,0,3,,,,,,,,,2,,,56,0
89400,note_on,0,0,1,,,,,,,,,0,,,71,0
89400,control_change,0,0,3,,,,,,,,,2,64,0,,
89400,control_change,0,0,1,,,,,,,,,0,64,127,,
89400,note_on,0,0,1,,,,,,,,,0,,,80,75
89400,note_on,0,0,1,,,,,,,,,0,,,75,75
89400,note_on,30,0,3,,,,,,,,,2,,,59,0
89400,note_on,0,0,1,,,,,,,,,0,,,68,0
89400,note_on,60,0,1,,,,,,,,,0,,,75,0
89400,note_on,0,0,3,,,,,,,,,2,,,64,114
89400,note_on,0,0,1,,,,,,,,,0,,,68,75
89460,note_on,0,0,1,,,,,,,,,0,,,75,0
89460,note_on,0,0,1,,,,,,,,,0,,,68,0
89460,note_on,0,0,1,,,,,,,,,0,,,68,75
89460,note_on,0,0,1,,,,,,,,,0,,,75,75
89460,note_on,0,0,1,,,,,,,,,0,,,80,75
89460,note_on,60,0,1,,,,,,,,,0,,,80,0
89520,note_on,0,0,1,,,,,,,,,0,,,68,0
89520,note_on,60,0,1,,,,,,,,,0,,,80,0
89520,note_on,0,0,1,,,,,,,,,0,,,75,0
89520,note_on,0,0,1,,,,,,,,,0,,,68,75
89520,note_on,0,0,1,,,,,,,,,0,,,80,75
89520,note_on,120,0,3,,,,,,,,,2,,,64,0
89520,note_on,0,0,1,,,,,,,,,0,,,73,75
89550,note_on,0,0,3,,,,,,,,,2,,,40,88
89550,control_change,30,0,3,,,,,,,,,2,64,127,,
89580,note_on,60,0,1,,,,,,,,,0,,,80,0
89580,note_on,0,0,1,,,,,,,,,0,,,73,0
89580,note_on,0,0,1,,,,,,,,,0,,,68,0
89580,note_on,0,0,1,,,,,,,,,0,,,68,75
89580,note_on,0,0,1,,,,,,,,,0,,,73,75
89580,note_on,0,0,1,,,,,,,,,0,,,80,75
89580,note_on,0,0,3,,,,,,,,,2,,,44,88
89580,note_on,30,0,3,,,,,,,,,2,,,40,0
89610,note_on,30,0,3,,,,,,,,,2,,,44,0
89610,note_on,0,0,3,,,,,,,,,2,,,49,88
89640,note_on,0,0,3,,,,,,,,,2,,,52,88
89640,note_on,30,0,3,,,,,,,,,2,,,49,0
89640,note_on,0,0,1,,,,,,,,,0,,,73,0
89640,note_on,0,0,1,,,,,,,,,0,,,68,75
89640,note_on,60,0,1,,,,,,,,,0,,,80,0
89640,note_on,0,0,1,,,,,,,,,0,,,68,0
89640,note_on,0,0,1,,,,,,,,,0,,,73,75
89640,note_on,0,0,1,,,,,,,,,0,,,80,75
89670,note_on,0,0,3,,,,,,,,,2,,,56,88
89670,note_on,30,0,3,,,,,,,,,2,,,52,0
89700,note_on,0,0,1,,,,,,,,,0,,,73,75
89700,note_on,0,0,1,,,,,,,,,0,,,68,75
89700,note_on,0,0,1,,,,,,,,,0,,,68,0
89700,note_on,0,0,1,,,,,,,,,0,,,73,0
89700,note_on,0,0,1,,,,,,,,,0,,,80,75
89700,control_change,0,0,1,,,,,,,,,0,64,0,,
89700,note_on,30,0,3,,,,,,,,,2,,,56,0
89700,note_on,0,0,3,,,,,,,,,2,,,61,88
89700,note_on,60,0,1,,,,,,,,,0,,,80,0
89730,note_on,30,0,3,,,,,,,,,2,,,61,0
89730,control_change,0,0,3,,,,,,,,,2,64,0,,
89730,note_on,0,0,3,,,,,,,,,2,,,64,88
89760,note_on,0,0,1,,,,,,,,,0,,,66,75
89760,note_on,0,0,3,,,,,,,,,2,,,63,114
89760,note_on,30,0,3,,,,,,,,,2,,,64,0
89760,note_on,0,0,1,,,,,,,,,0,,,73,75
89760,control_change,0,0,3,,,,,,,,,2,64,127,,
89760,note_on,0,0,1,,,,,,,,,0,,,73,0
89760,note_on,0,0,1,,,,,,,,,0,,,68,0
89760,note_on,0,0,1,,,,,,,,,0,,,78,75
89760,control_change,0,0,1,,,,,,,,,0,64,127,,
89760,note_on,60,0,1,,,,,,,,,0,,,80,0
89820,note_on,60,0,1,,,,,,,,,0,,,78,0
89820,note_on,0,0,1,,,,,,,,,0,,,78,75
89820,note_on,0,0,1,,,,,,,,,0,,,66,75
89820,note_on,0,0,1,,,,,,,,,0,,,66,0
89820,note_on,0,0,1,,,,,,,,,0,,,73,0
89820,note_on,0,0,1,,,,,,,,,0,,,73,75
89880,note_on,60,0,1,,,,,,,,,0,,,78,0
89880,note_on,0,0,1,,,,,,,,,0,,,73,0
89880,note_on,0,0,1,,,,,,,,,0,,,66,75
89880,note_on,0,0,1,,,,,,,,,0,,,71,75
89880,note_on,0,0,1,,,,,,,,,0,,,78,75
89880,note_on,120,0,3,,,,,,,,,2,,,63,0
89880,note_on,0,0,1,,,,,,,,,0,,,66,0
89910,note_on,30,0,3,,,,,,,,,2,,,39,88
89940,note_on,0,0,1,,,,,,,,,0,,,71,75
89940,note_on,0,0,1,,,,,,,,,0,,,78,75
89940,note_on,60,0,1,,,,,,,,,0,,,78,0
89940,note_on,0,0,1,,,,,,,,,0,,,71,0
89940,note_on,0,0,1,,,,,,,,,0,,,66,75
89940,note_on,30,0,3,,,,,,,,,2,,,39,0
89940,note_on,0,0,3,,,,,,,,,2,,,42,88
89940,note_on,0,0,1,,,,,,,,,0,,,66,0
89970,note_on,30,0,3,,,,,,,,,2,,,42,0
89970,note_on,0,0,3,,,,,,,,,2,,,47,88
90000,note_on,30,0,3,,,,,,,,,2,,,47,0
90000,note_on,0,0,1,,,,,,,,,0,,,78,75
90000,note_on,0,0,1,,,,,,,,,0,,,71,75
90000,note_on,0,0,3,,,,,,,,,2,,,51,88
90000,note_on,0,0,1,,,,,,,,,0,,,66,0
90000,note_on,60,0,1,,,,,,,,,0,,,78,0
90000,note_on,0,0,1,,,,,,,,,0,,,71,0
90000,note_on,0,0,1,,,,,,,,,0,,,66,75
90030,note_on,30,0,3,,,,,,,,,2,,,51,0
90030,note_on,0,0,3,,,,,,,,,2,,,54,88
90060,note_on,30,0,3,,,,,,,,,2,,,54,0
90060,note_on,0,0,3,,,,,,,,,2,,,59,88
90060,note_on,0,0,1,,,,,,,,,0,,,78,75
90060,control_change,0,0,1,,,,,,,,,0,64,0,,
90060,note_on,0,0,1,,,,,,,,,0,,,71,75
90060,note_on,0,0,1,,,,,,,,,0,,,66,75
90060,note_on,0,0,1,,,,,,,,,0,,,66,0
90060,note_on,0,0,1,,,,,,,,,0,,,71,0
90060,note_on,60,0,1,,,,,,,,,0,,,78,0
90090,control_change,0,0,3,,,,,,,,,2,64,0,,
90090,note_on,30,0,3,,,,,,,,,2,,,59,0
90090,note_on,0,0,3,,,,,,,,,2,,,63,88
90120,note_on,30,0,3,,,,,,,,,2,,,63,0
90120,note_on,0,0,1,,,,,,,,,0,,,76,75
90120,control_change,0,0,1,,,,,,,,,0,64,127,,
90120,control_change,0,0,3,,,,,,,,,2,64,127,,
90120,note_on,0,0,1,,,,,,,,,0,,,70,75
90120,note_on,0,0,1,,,,,,,,,0,,,66,75
90120,note_on,0,0,1,,,,,,,,,0,,,66,0
90120,note_on,0,0,1,,,,,,,,,0,,,71,0
90120,note_on,60,0,1,,,,,,,,,0,,,78,0
90120,note_on,0,0,3,,,,,,,,,2,,,61,88
90180,note_on,0,0,1,,,,,,,,,0,,,70,75
90180,note_on,0,0,1,,,,,,,,,0,,,66,0
90180,note_on,0,0,1,,,,,,,,,0,,,70,0
90180,note_on,60,0,1,,,,,,,,,0,,,76,0
90180,note_on,0,0,1,,,,,,,,,0,,,76,75
90180,note_on,0,0,1,,,,,,,,,0,,,66,75
90240,note_on,0,0,3,,,,,,,,,2,,,46,88
90240,note_on,0,0,1,,,,,,,,,0,,,76,75
90240,note_on,0,0,1,,,,,,,,,0,,,73,75
90240,note_on,0,0,1,,,,,,,,,0,,,66,75
90240,note_on,0,0,1,,,,,,,,,0,,,66,0
90240,note_on,0,0,1,,,,,,,,,0,,,70,0
90240,note_on,60,0,1,,,,,,,,,0,,,76,0
90240,note_on,120,0,3,,,,,,,,,2,,,61,0
90270,note_on,0,0,3,,,,,,,,,2,,,49,88
90270,note_on,30,0,3,,,,,,,,,2,,,46,0
90300,note_on,0,0,1,,,,,,,,,0,,,73,75
90300,note_on,30,0,3,,,,,,,,,2,,,49,0
90300,note_on,0,0,3,,,,,,,,,2,,,54,88
90300,note_on,60,0,1,,,,,,,,,0,,,76,0
90300,note_on,0,0,1,,,,,,,,,0,,,66,75
90300,note_on,0,0,1,,,,,,,,,0,,,66,0
90300,note_on,0,0,1,,,,,,,,,0,,,76,75
90300,note_on,0,0,1,,,,,,,,,0,,,73,0
90330,note_on,0,0,3,,,,,,,,,2,,,58,88
90330,note_on,30,0,3,,,,,,,,,2,,,54,0
90360,control_change,0,0,1,,,,,,,,,0,64,0,,
90360,note_on,0,0,1,,,,,,,,,0,,,73,0
90360,note_on,30,0,3,,,,,,,,,2,,,58,0
90360,control_change,0,0,3,,,,,,,,,2,64,0,,
90360,note_on,0,0,3,,,,,,,,,2,,,59,88
90360,note_on,60,0,1,,,,,,,,,0,,,76,0
90360,note_on,0,0,1,,,,,,,,,0,,,75,75
90360,note_on,0,0,1,,,,,,,,,0,,,71,75
90360,note_on,0,0,1,,,,,,,,,0,,,66,75
90360,note_on,0,0,1,,,,,,,,,0,,,66,0
90390,note_on,0,0,3,,,,,,,,,2,,,54,88
90390,note_on,30,0,3,,,,,,,,,2,,,59,0
90420,note_on,30,0,3,,,,,,,,,2,,,54,0
90420,note_on,0,0,1,,,,,,,,,0,,,75,75
90420,note_on,0,0,1,,,,,,,,,0,,,71,75
90420,note_on,0,0,1,,,,,,,,,0,,,66,75
90420,note_on,0,0,1,,,,,,,,,0,,,66,0
90420,note_on,0,0,1,,,,,,,,,0,,,71,0
90420,note_on,60,0,1,,,,,,,,,0,,,75,0
90420,note_on,0,0,3,,,,,,,,,2,,,51,88
90450,note_on,30,0,3,,,,,,,,,2,,,51,0
90450,note_on,0,0,3,,,,,,,,,2,,,47,88
90480,note_on,0,0,2,,,,,,,,,1,,,70,36
90480,note_on,60,0,1,,,,,,,,,0,,,75,0
90480,note_on,0,0,1,,,,,,,,,0,,,71,0
90480,note_on,0,0,1,,,,,,,,,0,,,66,0
90480,note_on,0,0,1,,,,,,,,,0,,,73,75
90480,control_change,0,0,1,,,,,,,,,0,64,127,,
90480,note_on,2760,0,2,,,,,,,,,1,,,66,36
90480,note_on,30,0,3,,,,,,,,,2,,,47,0
90480,control_change,0,0,3,,,,,,,,,2,64,127,,
90480,note_on,0,0,3,,,,,,,,,2,,,54,88
90540,note_on,60,0,3,,,,,,,,,2,,,54,0
90540,note_on,0,0,3,,,,,,,,,2,,,66,88
90540,note_on,0,0,3,,,,,,,,,2,,,70,88
90540,note_on,60,0,2,,,,,,,,,1,,,70,0
90540,note_on,0,0,2,,,,,,,,,1,,,66,0
90546,note_on,6,0,3,,,,,,,,,2,,,70,0
90546,note_on,0,0,3,,,,,,,,,2,,,66,0
90600,note_on,54,0,3,,,,,,,,,2,,,66,88
90600,note_on,0,0,3,,,,,,,,,2,,,70,88
90606,note_on,6,0,3,,,,,,,,,2,,,70,0
90606,note_on,0,0,3,,,,,,,,,2,,,66,0
90660,note_on,0,0,3,,,,,,,,,2,,,70,88
90660,note_on,54,0,3,,,,,,,,,2,,,66,88
90666,note_on,0,0,3,,,,,,,,,2,,,66,0
90666,note_on,6,0,3,,,,,,,,,2,,,70,0
90720,note_on,54,0,3,,,,,,,,,2,,,66,36
90720,note_on,0,0,3,,,,,,,,,2,,,70,36
90720,note_on,240,0,1,,,,,,,,,0,,,73,0
90720,note_on,0,0,1,,,,,,,,,0,,,73,49
90726,note_on,6,0,3,,,,,,,,,2,,,70,0
90726,note_on,0,0,3,,,,,,,,,2,,,66,0
90750,note_on,0,0,1,,,,,,,,,0,,,78,49
90750,note_on,30,0,1,,,,,,,,,0,,,73,0
90780,note_on,30,0,1,,,,,,,,,0,,,78,0
90780,note_on,0,0,3,,,,,,,,,2,,,70,36
90780,note_on,0,0,3,,,,,,,,,2,,,66,36
90780,control_change,54,0,3,,,,,,,,,2,64,0,,
90780,note_on,0,0,1,,,,,,,,,0,,,82,49
90786,note_on,6,0,3,,,,,,,,,2,,,70,0
90786,note_on,0,0,3,,,,,,,,,2,,,66,0
90810,note_on,30,0,1,,,,,,,,,0,,,82,0
90810,control_change,0,0,1,,,,,,,,,0,64,0,,
90810,note_on,0,0,1,,,,,,,,,0,,,85,49
90840,control_change,54,0,3,,,,,,,,,2,64,127,,
90840,note_on,0,0,3,,,,,,,,,2,,,71,36
90840,note_on,0,0,3,,,,,,,,,2,,,68,36
90840,note_on,0,0,1,,,,,,,,,0,,,85,75
90840,note_on,30,0,1,,,,,,,,,0,,,85,0
90840,control_change,0,0,1,,,,,,,,,0,64,127,,
90846,note_on,6,0,3,,,,,,,,,2,,,71,0
90846,note_on,0,0,3,,,,,,,,,2,,,68,0
90900,note_on,54,0,3,,,,,,,,,2,,,68,36
90900,note_on,0,0,3,,,,,,,,,2,,,71,36
90906,note_on,6,0,3,,,,,,,,,2,,,71,0
90906,note_on,0,0,3,,,,,,,,,2,,,68,0
90960,note_on,120,0,1,,,,,,,,,0,,,85,0
90960,note_on,0,0,1,,,,,,,,,0,,,77,49
90960,note_on,54,0,3,,,,,,,,,2,,,68,36
90960,note_on,0,0,3,,,,,,,,,2,,,71,36
90966,note_on,6,0,3,,,,,,,,,2,,,71,0
90966,note_on,0,0,3,,,,,,,,,2,,,68,0
91020,note_on,0,0,3,,,,,,,,,2,,,71,36
91020,note_on,60,0,1,,,,,,,,,0,,,77,0
91020,note_on,54,0,3,,,,,,,,,2,,,68,36
91026,note_on,6,0,3,,,,,,,,,2,,,71,0
91026,note_on,0,0,3,,,,,,,,,2,,,68,0
91080,note_on,54,0,3,,,,,,,,,2,,,68,36
91080,note_on,0,0,3,,,,,,,,,2,,,71,36
91080,note_on,60,0,1,,,,,,,,,0,,,73,49
91086,note_on,6,0,3,,,,,,,,,2,,,71,0
91086,note_on,0,0,3,,,,,,,,,2,,,68,0
91110,note_on,30,0,1,,,,,,,,,0,,,73,0
91110,note_on,0,0,1,,,,,,,,,0,,,77,49
91140,note_on,0,0,1,,,,,,,,,0,,,80,49
91140,note_on,30,0,1,,,,,,,,,0,,,77,0
91140,note_on,0,0,3,,,,,,,,,2,,,71,36
91140,note_on,0,0,3,,,,,,,,,2,,,68,36
91140,control_change,54,0,3,,,,,,,,,2,64,0,,
91146,note_on,0,0,3,,,,,,,,,2,,,68,0
91146,note_on,6,0,3,,,,,,,,,2,,,71,0
91170,control_change,0,0,1,,,,,,,,,0,64,0,,
91170,note_on,0,0,1,,,,,,,,,0,,,85,49
91170,note_on,30,0,1,,,,,,,,,0,,,80,0
91200,note_on,30,0,1,,,,,,,,,0,,,85,0
91200,control_change,0,0,1,,,,,,,,,0,64,127,,
91200,control_change,54,0,3,,,,,,,,,2,64,127,,
91200,note_on,0,0,1,,,,,,,,,0,,,85,75
91200,note_on,0,0,3,,,,,,,,,2,,,73,36
91200,note_on,0,0,3,,,,,,,,,2,,,70,36
91206,note_on,6,0,3,,,,,,,,,2,,,73,0
91206,note_on,0,0,3,,,,,,,,,2,,,70,0
91260,note_on,54,0,3,,,,,,,,,2,,,70,36
91260,note_on,0,0,3,,,,,,,,,2,,,73,36
91266,note_on,0,0,3,,,,,,,,,2,,,70,0
91266,note_on,6,0,3,,,,,,,,,2,,,73,0
91320,note_on,120,0,1,,,,,,,,,0,,,85,0
91320,note_on,54,0,3,,,,,,,,,2,,,70,36
91320,note_on,0,0,1,,,,,,,,,0,,,78,49
91320,note_on,0,0,3,,,,,,,,,2,,,73,36
91326,note_on,0,0,3,,,,,,,,,2,,,70,0
91326,note_on,6,0,3,,,,,,,,,2,,,73,0
91380,note_on,54,0,3,,,,,,,,,2,,,70,36
91380,note_on,60,0,1,,,,,,,,,0,,,78,0
91380,note_on,0,0,3,,,,,,,,,2,,,73,36
91386,note_on,6,0,3,,,,,,,,,2,,,73,0
91386,note_on,0,0,3,,,,,,,,,2,,,70,0
91440,note_on,60,0,1,,,,,,,,,0,,,78,49
91470,note_on,0,0,1,,,,,,,,,0,,,77,49
91470,note_on,30,0,1,,,,,,,,,0,,,78,0
91500,control_change,114,0,3,,,,,,,,,2,64,0,,
91500,note_on,0,0,1,,,,,,,,,0,,,75,49
91500,note_on,30,0,1,,,,,,,,,0,,,77,0
91500,note_on,0,0,3,,,,,,,,,2,,,58,36
91500,note_on,0,0,3,,,,,,,,,2,,,66,36
91530,note_on,0,0,1,,,,,,,,,0,,,74,49
91530,note_on,30,0,1,,,,,,,,,0,,,75,0
91530,control_change,0,0,1,,,,,,,,,0,64,0,,
91560,note_on,0,0,3,,,,,,,,,2,,,59,36
91560,note_on,0,0,3,,,,,,,,,2,,,58,0
91560,note_on,60,0,3,,,,,,,,,2,,,66,0
91560,note_on,0,0,1,,,,,,,,,0,,,74,49
91560,control_change,0,0,1,,,,,,,,,0,64,127,,
91560,note_on,0,0,3,,,,,,,,,2,,,66,36
91560,note_on,30,0,1,,,,,,,,,0,,,74,0
91680,note_on,120,0,3,,,,,,,,,2,,,66,0
91680,note_on,0,0,3,,,,,,,,,2,,,59,0
91680,note_on,0,0,1,,,,,,,,,0,,,75,49
91680,note_on,120,0,1,,,,,,,,,0,,,74,0
91740,note_on,60,0,1,,,,,,,,,0,,,75,0
91740,note_on,4860,0,4,,,,,,,,,3,,,39,36
91740,note_on,60,0,3,,,,,,,,,2,,,63,36
91740,note_on,0,0,3,,,,,,,,,2,,,66,36
91740,note_on,0,0,1,,,,,,,,,0,,,82,49
91770,note_on,0,0,1,,,,,,,,,0,,,83,49
91770,control_change,0,0,1,,,,,,,,,0,64,0,,
91770,note_on,30,0,1,,,,,,,,,0,,,82,0
91800,note_on,0,0,3,,,,,,,,,2,,,67,36
91800,note_on,60,0,4,,,,,,,,,3,,,39,0
91800,control_change,0,0,1,,,,,,,,,0,64,127,,
91800,note_on,0,0,1,,,,,,,,,0,,,87,49
91800,note_on,60,0,3,,,,,,,,,2,,,66,0
91800,note_on,0,0,3,,,,,,,,,2,,,63,0
91800,note_on,0,0,4,,,,,,,,,3,,,38,36
91800,note_on,30,0,1,,,,,,,,,0,,,83,0
91830,note_on,0,0,1,,,,,,,,,0,,,85,49
91830,note_on,30,0,1,,,,,,,,,0,,,87,0
91860,note_on,0,0,1,,,,,,,,,0,,,83,49
91860,note_on,30,0,1,,,,,,,,,0,,,85,0
91860,note_on,0,0,4,,,,,,,,,3,,,43,36
91860,note_on,60,0,4,,,,,,,,,3,,,38,0
91890,note_on,0,0,1,,,,,,,,,0,,,82,49
91890,note_on,30,0,1,,,,,,,,,0,,,83,0
91920,note_on,0,0,1,,,,,,,,,0,,,85,49
91920,note_on,120,0,3,,,,,,,,,2,,,67,0
91920,note_on,0,0,3,,,,,,,,,2,,,63,36
91920,note_on,0,0,3,,,,,,,,,2,,,67,36
91920,note_on,30,0,1,,,,,,,,,0,,,82,0
91920,control_change,0,0,1,,,,,,,,,0,64,127,,
91920,note_on,60,0,4,,,,,,,,,3,,,43,0
92040,note_on,0,0,3,,,,,,,,,2,,,63,0
92040,note_on,0,0,3,,,,,,,,,2,,,68,36
92040,note_on,120,0,1,,,,,,,,,0,,,85,0
92040,note_on,0,0,1,,,,,,,,,0,,,83,49
92040,note_on,120,0,3,,,,,,,,,2,,,67,0
92040,note_on,0,0,3,,,,,,,,,2,,,56,36
92100,note_on,0,0,3,,,,,,,,,2,,,56,0
92100,note_on,0,0,1,,,,,,,,,0,,,87,49
92100,note_on,60,0,1,,,,,,,,,0,,,83,0
92100,note_on,60,0,3,,,,,,,,,2,,,68,0
92130,note_on,30,0,1,,,,,,,,,0,,,87,0
92130,note_on,0,0,1,,,,,,,,,0,,,85,49
92160,note_on,0,0,1,,,,,,,,,0,,,83,49
92160,control_change,0,0,1,,,,,,,,,0,64,0,,
92160,note_on,30,0,1,,,,,,,,,0,,,85,0
92190,note_on,30,0,1,,,,,,,,,0,,,83,0
92190,note_on,0,0,1,,,,,,,,,0,,,82,49
92220,note_on,30,0,1,,,,,,,,,0,,,82,0
92220,note_on,0,0,1,,,,,,,,,0,,,80,49
92250,note_on,0,0,1,,,,,,,,,0,,,78,49
92250,note_on,30,0,1,,,,,,,,,0,,,80,0
92280,note_on,0,0,3,,,,,,,,,2,,,71,75
92280,note_on,0,0,3,,,,,,,,,2,,,68,75
92280,note_on,180,0,3,,,,,,,,,2,,,61,75
92280,note_on,30,0,1,,,,,,,,,0,,,78,0
92280,note_on,0,0,1,,,,,,,,,0,,,77,114
92370,note_on,90,0,3,,,,,,,,,2,,,71,0
92370,note_on,90,0,1,,,,,,,,,0,,,77,0
92370,note_on,0,0,3,,,,,,,,,2,,,68,0
92370,note_on,0,0,3,,,,,,,,,2,,,61,0
92370,note_on,0,0,3,,,,,,,,,2,,,68,36
92370,note_on,0,0,3,,,,,,,,,2,,,71,36
92370,note_on,0,0,3,,,,,,,,,2,,,62,36
92370,note_on,0,0,1,,,,,,,,,0,,,77,49
92400,note_on,30,0,1,,,,,,,,,0,,,77,0
92400,note_on,30,0,3,,,,,,,,,2,,,71,0
92400,note_on,0,0,3,,,,,,,,,2,,,70,36
92400,note_on,0,0,3,,,,,,,,,2,,,66,36
92400,note_on,0,0,3,,,,,,,,,2,,,63,36
92400,note_on,0,0,1,,,,,,,,,0,,,78,49
92400,note_on,0,0,3,,,,,,,,,2,,,68,0
92400,note_on,0,0,3,,,,,,,,,2,,,62,0
92520,note_on,120,0,1,,,,,,,,,0,,,78,0
92520,note_on,120,0,3,,,,,,,,,2,,,70,0
92520,note_on,0,0,3,,,,,,,,,2,,,66,0
92520,note_on,0,0,3,,,,,,,,,2,,,63,0
92640,control_change,120,0,1,,,,,,,,,0,64,127,,
92640,note_on,0,0,1,,,,,,,,,0,,,73,36
92640,note_on,120,0,3,,,,,,,,,2,,,53,36
92640,note_on,0,0,3,,,,,,,,,2,,,61,36
92640,note_on,2100,0,2,,,,,,,,,1,,,68,36
92730,note_on,90,0,1,,,,,,,,,0,,,73,0
92730,note_on,0,0,1,,,,,,,,,0,,,71,36
92760,note_on,0,0,2,,,,,,,,,1,,,66,36
92760,note_on,120,0,2,,,,,,,,,1,,,68,0
92760,note_on,120,0,3,,,,,,,,,2,,,53,0
92760,note_on,0,0,3,,,,,,,,,2,,,54,36
92760,note_on,30,0,1,,,,,,,,,0,,,71,0
92760,control_change,0,0,1,,,,,,,,,0,64,0,,
92760,note_on,0,0,1,,,,,,,,,0,,,70,36
92820,note_on,60,0,2,,,,,,,,,1,,,66,0
92820,note_on,60,0,3,,,,,,,,,2,,,54,0
92820,note_on,0,0,3,,,,,,,,,2,,,61,0
92820,note_on,0,0,1,,,,,,,,,0,,,70,36
92820,note_on,60,0,1,,,,,,,,,0,,,70,0
92865,note_on,45,0,1,,,,,,,,,0,,,73,36
92880,note_on,0,0,1,,,,,,,,,0,,,71,36
92880,note_on,0,0,1,,,,,,,,,0,,,70,0
92880,note_on,15,0,1,,,,,,,,,0,,,73,0
92940,note_on,0,0,1,,,,,,,,,0,,,70,36
92940,note_on,60,0,1,,,,,,,,,0,,,71,0
93000,control_change,180,0,3,,,,,,,,,2,64,127,,
93000,note_on,0,0,1,,,,,,,,,0,,,70,49
93000,note_on,60,0,1,,,,,,,,,0,,,70,0
93000,note_on,0,0,3,,,,,,,,,2,,,62,36
93000,note_on,0,0,3,,,,,,,,,2,,,68,36
93000,control_change,0,0,1,,,,,,,,,0,64,127,,
93060,note_on,60,0,3,,,,,,,,,2,,,68,0
93060,note_on,60,0,1,,,,,,,,,0,,,70,0
93060,note_on,0,0,1,,,,,,,,,0,,,77,75
93060,note_on,0,0,3,,,,,,,,,2,,,62,0
93120,note_on,60,0,3,,,,,,,,,2,,,62,36
93120,note_on,0,0,3,,,,,,,,,2,,,68,36
93180,note_on,60,0,3,,,,,,,,,2,,,68,0
93180,note_on,0,0,3,,,,,,,,,2,,,62,0
93180,note_on,120,0,1,,,,,,,,,0,,,77,0
93180,note_on,0,0,1,,,,,,,,,0,,,74,49
93240,note_on,60,0,3,,,,,,,,,2,,,62,36
93240,note_on,0,0,3,,,,,,,,,2,,,68,36
93240,note_on,60,0,1,,,,,,,,,0,,,74,0
93240,note_on,0,0,1,,,,,,,,,0,,,71,49
93300,note_on,60,0,1,,,,,,,,,0,,,71,0
93300,note_on,0,0,1,,,,,,,,,0,,,70,49
93300,control_change,0,0,1,,,,,,,,,0,64,0,,
93300,control_change,0,0,3,,,,,,,,,2,64,0,,
93300,note_on,0,0,3,,,,,,,,,2,,,62,0
93300,note_on,60,0,3,,,,,,,,,2,,,68,0
93360,note_on,60,0,1,,,,,,,,,0,,,70,0
93360,note_on,0,0,3,,,,,,,,,2,,,66,49
93360,note_on,0,0,3,,,,,,,,,2,,,63,49
93360,control_change,60,0,3,,,,,,,,,2,64,127,,
93360,note_on,0,0,1,,,,,,,,,0,,,70,62
93360,control_change,0,0,1,,,,,,,,,0,64,127,,
93420,note_on,60,0,1,,,,,,,,,0,,,70,0
93420,note_on,0,0,1,,,,,,,,,0,,,78,88
93420,note_on,60,0,3,,,,,,,,,2,,,66,0
93420,note_on,0,0,3,,,,,,,,,2,,,63,0
93480,note_on,60,0,3,,,,,,,,,2,,,63,49
93480,note_on,0,0,3,,,,,,,,,2,,,66,49
93540,note_on,0,0,3,,,,,,,,,2,,,63,0
93540,note_on,120,0,1,,,,,,,,,0,,,78,0
93540,note_on,0,0,1,,,,,,,,,0,,,70,62
93540,note_on,60,0,3,,,,,,,,,2,,,66,0
93585,note_on,45,0,1,,,,,,,,,0,,,73,62
93600,note_on,60,0,3,,,,,,,,,2,,,63,49
93600,note_on,0,0,1,,,,,,,,,0,,,70,0
93600,note_on,0,0,3,,,,,,,,,2,,,66,49
93600,note_on,0,0,1,,,,,,,,,0,,,71,62
93600,note_on,15,0,1,,,,,,,,,0,,,73,0
93660,note_on,60,0,1,,,,,,,,,0,,,71,0
93660,control_change,0,0,1,,,,,,,,,0,64,0,,
93660,note_on,0,0,1,,,,,,,,,0,,,70,62
93660,note_on,0,0,3,,,,,,,,,2,,,63,0
93660,note_on,60,0,3,,,,,,,,,2,,,66,0
93660,control_change,0,0,3,,,,,,,,,2,64,0,,
93720,control_change,60,0,3,,,,,,,,,2,64,127,,
93720,note_on,0,0,3,,,,,,,,,2,,,59,49
93720,note_on,0,0,3,,,,,,,,,2,,,63,49
93720,control_change,0,0,1,,,,,,,,,0,64,127,,
93720,note_on,0,0,1,,,,,,,,,0,,,69,62
93720,note_on,60,0,1,,,,,,,,,0,,,70,0
93780,note_on,60,0,1,,,,,,,,,0,,,69,0
93780,note_on,60,0,3,,,,,,,,,2,,,63,0
93780,note_on,0,0,3,,,,,,,,,2,,,59,0
93780,note_on,0,0,1,,,,,,,,,0,,,75,88
93840,note_on,60,0,3,,,,,,,,,2,,,59,49
93840,note_on,0,0,3,,,,,,,,,2,,,63,49
93900,note_on,0,0,3,,,,,,,,,2,,,59,0
93900,note_on,120,0,1,,,,,,,,,0,,,75,0
93900,note_on,0,0,1,,,,,,,,,0,,,71,62
93900,note_on,60,0,3,,,,,,,,,2,,,63,0
93960,note_on,60,0,3,,,,,,,,,2,,,59,49
93960,note_on,60,0,1,,,,,,,,,0,,,71,0
93960,note_on,0,0,1,,,,,,,,,0,,,70,62
93960,note_on,0,0,3,,,,,,,,,2,,,63,49
94020,note_on,0,0,1,,,,,,,,,0,,,69,62
94020,control_change,0,0,1,,,,,,,,,0,64,0,,
94020,note_on,60,0,1,,,,,,,,,0,,,70,0
94020,note_on,60,0,3,,,,,,,,,2,,,63,0
94020,control_change,0,0,3,,,,,,,,,2,64,0,,
94020,note_on,0,0,3,,,,,,,,,2,,,59,0
94080,control_change,60,0,3,,,,,,,,,2,64,127,,
94080,note_on,0,0,1,,,,,,,,,0,,,70,75
94080,control_change,0,0,1,,,,,,,,,0,64,127,,
94080,note_on,60,0,1,,,,,,,,,0,,,69,0
94080,note_on,0,0,3,,,,,,,,,2,,,58,62
94110,note_on,0,0,3,,,,,,,,,2,,,65,62
94110,note_on,30,0,3,,,,,,,,,2,,,58,0
94140,note_on,30,0,3,,,,,,,,,2,,,65,0
94140,note_on,0,0,3,,,,,,,,,2,,,62,62
94140,note_on,60,0,1,,,,,,,,,0,,,70,0
94140,note_on,0,0,1,,,,,,,,,0,,,82,101
94170,note_on,30,0,3,,,,,,,,,2,,,62,0
94170,note_on,0,0,3,,,,,,,,,2,,,65,62
94200,note_on,30,0,3,,,,,,,,,2,,,65,0
94200,note_on,0,0,3,,,,,,,,,2,,,58,62
94230,note_on,30,0,3,,,,,,,,,2,,,58,0
94230,note_on,0,0,3,,,,,,,,,2,,,65,62
94260,note_on,0,0,1,,,,,,,,,0,,,70,75
94260,note_on,120,0,1,,,,,,,,,0,,,82,0
94260,note_on,0,0,1,,,,,,,,,0,,,82,75
94260,note_on,0,0,3,,,,,,,,,2,,,62,62
94260,note_on,0,0,3,,,,,,,,,2,,,58,62
94260,note_on,30,0,3,,,,,,,,,2,,,65,0
94266,note_on,6,0,1,,,,,,,,,0,,,82,0
94266,note_on,0,0,1,,,,,,,,,0,,,70,0
94290,note_on,0,0,3,,,,,,,,,2,,,65,62
94290,note_on,30,0,3,,,,,,,,,2,,,62,0
94290,note_on,0,0,3,,,,,,,,,2,,,58,0
94320,note_on,0,0,3,,,,,,,,,2,,,63,62
94320,note_on,0,0,3,,,,,,,,,2,,,58,62
94320,note_on,30,0,3,,,,,,,,,2,,,65,0
94320,note_on,54,0,1,,,,,,,,,0,,,70,75
94320,note_on,0,0,1,,,,,,,,,0,,,82,75
94326,note_on,6,0,1,,,,,,,,,0,,,82,0
94326,note_on,0,0,1,,,,,,,,,0,,,70,0
94350,note_on,0,0,3,,,,,,,,,2,,,58,0
94350,note_on,0,0,3,,,,,,,,,2,,,66,62
94350,note_on,30,0,3,,,,,,,,,2,,,63,0
94380,note_on,0,0,3,,,,,,,,,2,,,65,62
94380,note_on,0,0,3,,,,,,,,,2,,,58,62
94380,note_on,30,0,3,,,,,,,,,2,,,66,0
94380,note_on,0,0,1,,,,,,,,,0,,,82,75
94380,note_on,0,0,1,,,,,,,,,0,,,70,75
94380,control_change,54,0,1,,,,,,,,,0,64,0,,
94386,note_on,6,0,1,,,,,,,,,0,,,82,0
94386,note_on,0,0,1,,,,,,,,,0,,,70,0
94410,note_on,0,0,3,,,,,,,,,2,,,68,62
94410,control_change,0,0,3,,,,,,,,,2,64,0,,
94410,note_on,30,0,3,,,,,,,,,2,,,65,0
94410,note_on,0,0,3,,,,,,,,,2,,,58,0
94440,note_on,0,0,1,,,,,,,,,0,,,81,75
94440,note_on,0,0,1,,,,,,,,,0,,,69,75
94440,control_change,54,0,1,,,,,,,,,0,64,127,,
94440,note_on,30,0,3,,,,,,,,,2,,,68,0
94440,control_change,0,0,3,,,,,,,,,2,64,127,,
94440,note_on,0,0,3,,,,,,,,,2,,,58,62
94446,note_on,6,0,1,,,,,,,,,0,,,81,0
94446,note_on,0,0,1,,,,,,,,,0,,,69,0
94470,note_on,0,0,3,,,,,,,,,2,,,66,62
94470,note_on,30,0,3,,,,,,,,,2,,,58,0
94500,note_on,0,0,3,,,,,,,,,2,,,63,62
94500,note_on,54,0,1,,,,,,,,,0,,,78,93
94500,note_on,0,0,1,,,,,,,,,0,,,90,101
94500,note_on,30,0,3,,,,,,,,,2,,,66,0
94530,note_on,30,0,3,,,,,,,,,2,,,63,0
94530,note_on,0,0,3,,,,,,,,,2,,,66,62
94560,note_on,0,0,3,,,,,,,,,2,,,58,62
94560,note_on,30,0,3,,,,,,,,,2,,,66,0
94590,note_on,0,0,3,,,,,,,,,2,,,66,62
94590,note_on,30,0,3,,,,,,,,,2,,,58,0
94620,note_on,0,0,1,,,,,,,,,0,,,75,75
94620,note_on,30,0,3,,,,,,,,,2,,,66,0
94620,note_on,0,0,1,,,,,,,,,0,,,78,0
94620,note_on,0,0,1,,,,,,,,,0,,,87,75
94620,note_on,0,0,3,,,,,,,,,2,,,63,62
94620,note_on,120,0,1,,,,,,,,,0,,,90,0
94650,note_on,0,0,3,,,,,,,,,2,,,66,62
94650,note_on,30,0,3,,,,,,,,,2,,,63,0
94680,note_on,0,0,1,,,,,,,,,0,,,84,75
94680,note_on,60,0,1,,,,,,,,,0,,,87,0
94680,note_on,0,0,1,,,,,,,,,0,,,75,0
94680,note_on,0,0,1,,,,,,,,,0,,,72,75
94680,note_on,30,0,3,,,,,,,,,2,,,66,0
94680,note_on,0,0,3,,,,,,,,,2,,,58,62
94710,note_on,0,0,3,,,,,,,,,2,,,66,62
94710,note_on,30,0,3,,,,,,,,,2,,,58,0
94740,control_change,0,0,1,,,,,,,,,0,64,0,,
94740,note_on,0,0,1,,,,,,,,,0,,,81,75
94740,note_on,0,0,1,,,,,,,,,0,,,72,0
94740,note_on,60,0,1,,,,,,,,,0,,,84,0
94740,note_on,30,0,3,,,,,,,,,2,,,66,0
94740,note_on,0,0,1,,,,,,,,,0,,,69,75
94740,note_on,0,0,3,,,,,,,,,2,,,63,62
94770,note_on,30,0,3,,,,,,,,,2,,,63,0
94770,control_change,0,0,3,,,,,,,,,2,64,0,,
94770,note_on,0,0,3,,,,,,,,,2,,,66,62
94800,control_change,0,0,1,,,,,,,,,0,64,127,,
94800,note_on,0,0,1,,,,,,,,,0,,,82,75
94800,note_on,0,0,1,,,,,,,,,0,,,70,75
94800,note_on,60,0,1,,,,,,,,,0,,,81,0
94800,note_on,0,0,1,,,,,,,,,0,,,69,0
94800,note_on,30,0,3,,,,,,,,,2,,,66,0
94800,control_change,0,0,3,,,,,,,,,2,64,127,,
94800,note_on,0,0,3,,,,,,,,,2,,,58,62
94830,note_on,30,0,3,,,,,,,,,2,,,58,0
94830,note_on,0,0,3,,,,,,,,,2,,,65,62
94860,note_on,0,0,1,,,,,,,,,0,,,94,101
94860,note_on,60,0,1,,,,,,,,,0,,,82,0
94860,note_on,0,0,1,,,,,,,,,0,,,70,0
94860,note_on,30,0,3,,,,,,,,,2,,,65,0
94860,note_on,0,0,3,,,,,,,,,2,,,62,62
94860,note_on,0,0,1,,,,,,,,,0,,,82,93
94890,note_on,30,0,3,,,,,,,,,2,,,62,0
94890,note_on,0,0,3,,,,,,,,,2,,,65,62
94920,note_on,30,0,3,,,,,,,,,2,,,65,0
94920,note_on,0,0,3,,,,,,,,,2,,,58,62
94950,note_on,30,0,3,,,,,,,,,2,,,58,0
94950,note_on,0,0,3,,,,,,,,,2,,,65,62
94980,note_on,30,0,3,,,,,,,,,2,,,65,0
94980,note_on,0,0,3,,,,,,,,,2,,,58,62
94980,note_on,0,0,3,,,,,,,,,2,,,62,62
94980,note_on,120,0,1,,,,,,,,,0,,,94,0
94980,note_on,0,0,1,,,,,,,,,0,,,82,0
94980,note_on,0,0,1,,,,,,,,,0,,,80,75
94980,note_on,0,0,1,,,,,,,,,0,,,92,75
95010,note_on,30,0,3,,,,,,,,,2,,,62,0
95010,note_on,0,0,3,,,,,,,,,2,,,65,62
95010,note_on,0,0,3,,,,,,,,,2,,,58,0
95040,note_on,0,0,1,,,,,,,,,0,,,90,75
95040,note_on,0,0,3,,,,,,,,,2,,,58,62
95040,note_on,0,0,3,,,,,,,,,2,,,63,62
95040,note_on,0,0,1,,,,,,,,,0,,,78,75
95040,note_on,0,0,1,,,,,,,,,0,,,80,0
95040,note_on,60,0,1,,,,,,,,,0,,,92,0
95040,note_on,30,0,3,,,,,,,,,2,,,65,0
95070,note_on,0,0,3,,,,,,,,,2,,,66,62
95070,note_on,0,0,3,,,,,,,,,2,,,58,0
95070,note_on,30,0,3,,,,,,,,,2,,,63,0
95100,control_change,0,0,1,,,,,,,,,0,64,0,,
95100,note_on,60,0,1,,,,,,,,,0,,,90,0
95100,note_on,0,0,3,,,,,,,,,2,,,58,62
95100,note_on,0,0,3,,,,,,,,,2,,,65,62
95100,note_on,0,0,1,,,,,,,,,0,,,89,75
95100,note_on,0,0,1,,,,,,,,,0,,,77,75
95100,note_on,0,0,1,,,,,,,,,0,,,78,0
95100,note_on,30,0,3,,,,,,,,,2,,,66,0
95130,note_on,30,0,3,,,,,,,,,2,,,65,0
95130,note_on,0,0,3,,,,,,,,,2,,,58,0
95130,control_change,0,0,3,,,,,,,,,2,64,0,,
95130,note_on,0,0,3,,,,,,,,,2,,,68,62
95160,note_on,0,0,1,,,,,,,,,0,,,87,75
95160,control_change,0,0,1,,,,,,,,,0,64,127,,
95160,note_on,30,0,3,,,,,,,,,2,,,68,0
95160,control_change,0,0,3,,,,,,,,,2,64,127,,
95160,note_on,0,0,3,,,,,,,,,2,,,59,62
95160,note_on,0,0,1,,,,,,,,,0,,,75,75
95160,note_on,0,0,1,,,,,,,,,0,,,77,0
95160,note_on,60,0,1,,,,,,,,,0,,,89,0
95190,note_on,30,0,3,,,,,,,,,2,,,59,0
95190,note_on,0,0,3,,,,,,,,,2,,,66,62
95220,note_on,0,0,1,,,,,,,,,0,,,78,93
95220,note_on,0,0,1,,,,,,,,,0,,,90,101
95220,note_on,0,0,1,,,,,,,,,0,,,75,0
95220,note_on,60,0,1,,,,,,,,,0,,,87,0
95220,note_on,0,0,3,,,,,,,,,2,,,63,62
95220,note_on,30,0,3,,,,,,,,,2,,,66,0
95250,note_on,30,0,3,,,,,,,,,2,,,63,0
95250,note_on,0,0,3,,,,,,,,,2,,,66,62
95280,note_on,30,0,3,,,,,,,,,2,,,66,0
95280,note_on,0,0,3,,,,,,,,,2,,,59,62
95310,note_on,30,0,3,,,,,,,,,2,,,59,0
95310,note_on,0,0,3,,,,,,,,,2,,,66,62
95340,note_on,0,0,1,,,,,,,,,0,,,78,0
95340,note_on,30,0,3,,,,,,,,,2,,,66,0
95340,note_on,0,0,1,,,,,,,,,0,,,87,75
95340,note_on,0,0,1,,,,,,,,,0,,,75,75
95340,note_on,0,0,3,,,,,,,,,2,,,63,62
95340,note_on,120,0,1,,,,,,,,,0,,,90,0
95370,note_on,30,0,3,,,,,,,,,2,,,63,0
95370,note_on,0,0,3,,,,,,,,,2,,,66,62
95400,note_on,0,0,1,,,,,,,,,0,,,83,75
95400,note_on,0,0,1,,,,,,,,,0,,,71,75
95400,note_on,0,0,1,,,,,,,,,0,,,75,0
95400,note_on,60,0,1,,,,,,,,,0,,,87,0
95400,note_on,0,0,3,,,,,,,,,2,,,59,62
95400,note_on,30,0,3,,,,,,,,,2,,,66,0
95430,note_on,30,0,3,,,,,,,,,2,,,59,0
95430,note_on,0,0,3,,,,,,,,,2,,,65,62
95460,note_on,0,0,1,,,,,,,,,0,,,71,0
95460,note_on,0,0,1,,,,,,,,,0,,,69,75
95460,note_on,0,0,3,,,,,,,,,2,,,63,62
95460,note_on,30,0,3,,,,,,,,,2,,,65,0
95460,note_on,60,0,1,,,,,,,,,0,,,83,0
95460,note_on,0,0,1,,,,,,,,,0,,,81,75
95460,control_change,0,0,1,,,,,,,,,0,64,0,,
95490,note_on,0,0,3,,,,,,,,,2,,,65,62
95490,control_change,0,0,3,,,,,,,,,2,64,0,,
95490,note_on,30,0,3,,,,,,,,,2,,,63,0
95520,note_on,60,0,1,,,,,,,,,0,,,81,0
95520,note_on,0,0,1,,,,,,,,,0,,,69,0
95520,note_on,0,0,1,,,,,,,,,0,,,70,88
95520,note_on,0,0,1,,,,,,,,,0,,,82,88
95520,note_on,30,0,3,,,,,,,,,2,,,65,0
95520,note_on,0,0,3,,,,,,,,,2,,,58,75
95520,note_on,0,0,3,,,,,,,,,2,,,62,75
95520,control_change,0,0,1,,,,,,,,,0,64,127,,
95580,note_on,60,0,1,,,,,,,,,0,,,82,0
95580,note_on,0,0,1,,,,,,,,,0,,,70,0
95580,note_on,0,0,1,,,,,,,,,0,,,82,88
95580,note_on,0,0,1,,,,,,,,,0,,,70,88
95640,note_on,0,0,1,,,,,,,,,0,,,82,88
95640,note_on,0,0,1,,,,,,,,,0,,,70,0
95640,note_on,0,0,1,,,,,,,,,0,,,70,88
95640,control_change,0,0,1,,,,,,,,,0,64,0,,
95640,note_on,0,0,3,,,,,,,,,2,,,58,0
95640,note_on,120,0,3,,,,,,,,,2,,,62,0
95640,note_on,60,0,1,,,,,,,,,0,,,82,0
95700,note_on,60,0,1,,,,,,,,,0,,,82,0
95700,note_on,0,0,1,,,,,,,,,0,,,70,0
95700,note_on,0,0,1,,,,,,,,,0,,,70,88
95700,note_on,0,0,1,,,,,,,,,0,,,77,88
95700,note_on,0,0,1,,,,,,,,,0,,,82,88
95700,note_on,60,0,3,,,,,,,,,2,,,62,114
95700,note_on,0,0,1,,,,,,,,,0,,,80,88
95760,note_on,0,0,1,,,,,,,,,0,,,70,88
95760,note_on,0,0,1,,,,,,,,,0,,,80,0
95760,note_on,0,0,1,,,,,,,,,0,,,77,0
95760,note_on,0,0,1,,,,,,,,,0,,,75,88
95760,note_on,0,0,1,,,,,,,,,0,,,78,88
95760,note_on,0,0,1,,,,,,,,,0,,,82,88
95760,note_on,0,0,1,,,,,,,,,0,,,70,0
95760,note_on,60,0,3,,,,,,,,,2,,,62,0
95760,control_change,0,0,3,,,,,,,,,2,64,127,,
95760,note_on,0,0,3,,,,,,,,,2,,,63,88
95760,note_on,60,0,1,,,,,,,,,0,,,82,0
95790,note_on,0,0,3,,,,,,,,,2,,,58,88
95790,note_on,30,0,3,,,,,,,,,2,,,63,0
95820,note_on,60,0,1,,,,,,,,,0,,,82,0
95820,note_on,0,0,1,,,,,,,,,0,,,70,0
95820,note_on,0,0,1,,,,,,,,,0,,,75,0
95820,note_on,0,0,1,,,,,,,,,0,,,70,88
95820,note_on,0,0,1,,,,,,,,,0,,,78,0
95820,note_on,0,0,1,,,,,,,,,0,,,78,88
95820,note_on,0,0,1,,,,,,,,,0,,,82,88
95820,note_on,0,0,3,,,,,,,,,2,,,54,88
95820,note_on,30,0,3,,,,,,,,,2,,,58,0
95820,note_on,0,0,1,,,,,,,,,0,,,75,88
95850,note_on,30,0,3,,,,,,,,,2,,,54,0
95850,control_change,0,0,3,,,,,,,,,2,64,0,,
95850,note_on,0,0,3,,,,,,,,,2,,,51,88
95880,note_on,30,0,3,,,,,,,,,2,,,51,0
95880,note_on,0,0,3,,,,,,,,,2,,,58,75
95880,note_on,60,0,1,,,,,,,,,0,,,82,0
95880,note_on,0,0,1,,,,,,,,,0,,,75,0
95880,note_on,0,0,1,,,,,,,,,0,,,78,0
95880,note_on,0,0,1,,,,,,,,,0,,,70,88
95880,note_on,0,0,1,,,,,,,,,0,,,82,88
95880,control_change,0,0,1,,,,,,,,,0,64,127,,
95880,note_on,0,0,1,,,,,,,,,0,,,70,0
95940,note_on,0,0,1,,,,,,,,,0,,,70,88
95940,note_on,60,0,3,,,,,,,,,2,,,58,0
95940,note_on,0,0,1,,,,,,,,,0,,,58,88
95940,note_on,60,0,1,,,,,,,,,0,,,82,0
95940,note_on,0,0,1,,,,,,,,,0,,,70,0
96000,note_on,60,0,1,,,,,,,,,0,,,70,0
96000,note_on,0,0,1,,,,,,,,,0,,,58,0
96000,note_on,0,0,1,,,,,,,,,0,,,58,88
96000,note_on,0,0,1,,,,,,,,,0,,,70,88
96000,control_change,0,0,1,,,,,,,,,0,64,0,,
96060,note_on,120,0,3,,,,,,,,,2,,,50,114
96060,note_on,0,0,1,,,,,,,,,0,,,70,88
96060,note_on,0,0,1,,,,,,,,,0,,,68,88
96060,note_on,0,0,1,,,,,,,,,0,,,58,0
96060,note_on,0,0,1,,,,,,,,,0,,,58,88
96060,note_on,60,0,1,,,,,,,,,0,,,70,0
96060,note_on,0,0,1,,,,,,,,,0,,,65,88
96120,note_on,60,0,1,,,,,,,,,0,,,70,0
96120,note_on,0,0,1,,,,,,,,,0,,,58,0
96120,note_on,0,0,1,,,,,,,,,0,,,65,0
96120,note_on,0,0,1,,,,,,,,,0,,,68,0
96120,note_on,0,0,1,,,,,,,,,0,,,58,88
96120,note_on,0,0,1,,,,,,,,,0,,,63,88
96120,control_change,0,0,1,,,,,,,,,0,64,127,,
96120,note_on,0,0,1,,,,,,,,,0,,,70,88
96120,note_on,60,0,3,,,,,,,,,2,,,50,0
96120,control_change,0,0,3,,,,,,,,,2,64,127,,
96120,note_on,0,0,3,,,,,,,,,2,,,51,88
96120,note_on,0,0,1,,,,,,,,,0,,,66,88
96150,note_on,30,0,3,,,,,,,,,2,,,51,0
96150,note_on,0,0,3,,,,,,,,,2,,,46,88
96180,note_on,60,0,1,,,,,,,,,0,,,70,0
96180,note_on,0,0,1,,,,,,,,,0,,,58,0
96180,note_on,0,0,1,,,,,,,,,0,,,63,0
96180,note_on,0,0,1,,,,,,,,,0,,,66,0
96180,note_on,0,0,1,,,,,,,,,0,,,58,88
96180,note_on,0,0,1,,,,,,,,,0,,,63,88
96180,note_on,0,0,1,,,,,,,,,0,,,66,88
96180,note_on,0,0,1,,,,,,,,,0,,,70,88
96180,note_on,30,0,3,,,,,,,,,2,,,46,0
96180,note_on,0,0,3,,,,,,,,,2,,,42,88
96210,note_on,30,0,3,,,,,,,,,2,,,42,0
96210,control_change,0,0,3,,,,,,,,,2,64,0,,
96210,note_on,0,0,3,,,,,,,,,2,,,39,88
96240,note_on,30,0,3,,,,,,,,,2,,,39,0
96240,note_on,0,0,3,,,,,,,,,2,,,46,88
96240,note_on,0,0,1,,,,,,,,,0,,,62,88
96240,note_on,0,0,1,,,,,,,,,0,,,70,88
96240,note_on,0,0,1,,,,,,,,,0,,,65,88
96240,note_on,0,0,1,,,,,,,,,0,,,58,88
96240,note_on,0,0,1,,,,,,,,,0,,,66,0
96240,note_on,60,0,1,,,,,,,,,0,,,70,0
96240,note_on,0,0,1,,,,,,,,,0,,,58,0
96240,note_on,0,0,1,,,,,,,,,0,,,63,0
96300,note_on,0,0,1,,,,,,,,,0,,,62,0
96300,note_on,0,0,1,,,,,,,,,0,,,58,0
96300,note_on,60,0,3,,,,,,,,,2,,,46,0
96300,note_on,60,0,1,,,,,,,,,0,,,70,0
96300,note_on,0,0,1,,,,,,,,,0,,,65,0
96360,note_on,0,0,1,,,,,,,,,0,,,82,88
96360,note_on,0,0,1,,,,,,,,,0,,,77,88
96360,note_on,0,0,1,,,,,,,,,0,,,74,88
96360,note_on,0,0,1,,,,,,,,,0,,,70,88
96360,control_change,60,0,1,,,,,,,,,0,64,0,,
96360,note_on,60,0,3,,,,,,,,,2,,,34,88
96360,note_on,0,0,3,,,,,,,,,2,,,46,88
96480,note_on,120,0,3,,,,,,,,,2,,,46,0
96480,note_on,0,0,3,,,,,,,,,2,,,34,0
96480,note_on,0,0,1,,,,,,,,,0,,,77,0
96480,note_on,0,0,1,,,,,,,,,0,,,74,0
96480,note_on,0,0,1,,,,,,,,,0,,,70,0
96480,note_on,120,0,1,,,,,,,,,0,,,82,0
96660,note_on,180,0,1,,,,,,,,,0,,,70,49
96720,note_on,0,0,1,,,,,,,,,0,,,69,49
96720,note_on,60,0,1,,,,,,,,,0,,,70,0
96780,note_on,0,0,1,,,,,,,,,0,,,70,49
96780,note_on,60,0,1,,,,,,,,,0,,,69,0
96840,note_on,0,0,1,,,,,,,,,0,,,71,49
96840,note_on,60,0,1,,,,,,,,,0,,,70,0
96900,note_on,0,0,1,,,,,,,,,0,,,72,49
96900,note_on,60,0,1,,,,,,,,,0,,,71,0
96960,note_on,60,0,1,,,,,,,,,0,,,72,0
96960,note_on,0,0,1,,,,,,,,,0,,,68,49
97020,note_on,60,0,1,,,,,,,,,0,,,68,0
97020,note_on,0,0,1,,,,,,,,,0,,,65,49
97080,control_change,0,0,1,,,,,,,,,0,64,127,,
97080,control_change,600,0,3,,,,,,,,,2,64,127,,
97080,note_on,0,0,1,,,,,,,,,0,,,62,49
97080,note_on,60,0,1,,,,,,,,,0,,,65,0
97140,note_on,60,0,1,,,,,,,,,0,,,62,0
97140,note_on,60,0,3,,,,,,,,,2,,,46,36
97140,note_on,0,0,1,,,,,,,,,0,,,58,49
97200,note_on,0,0,3,,,,,,,,,2,,,45,36
97200,note_on,60,0,3,,,,,,,,,2,,,46,0
97200,note_on,60,0,1,,,,,,,,,0,,,58,0
97200,note_on,0,0,1,,,,,,,,,0,,,57,49
97260,control_change,0,0,3,,,,,,,,,2,64,0,,
97260,note_on,60,0,3,,,,,,,,,2,,,45,0
97260,note_on,60,0,1,,,,,,,,,0,,,57,0
97260,control_change,0,0,1,,,,,,,,,0,64,0,,
97260,note_on,0,0,1,,,,,,,,,0,,,56,49
97260,note_on,0,0,3,,,,,,,,,2,,,44,36
97320,control_change,0,0,3,,,,,,,,,2,64,127,,
97320,control_change,0,0,1,,,,,,,,,0,64,127,,
97320,note_on,60,0,1,,,,,,,,,0,,,56,0
97320,note_on,0,0,3,,,,,,,,,2,,,43,36
97320,note_on,60,0,3,,,,,,,,,2,,,44,0
97380,note_on,60,0,1,,,,,,,,,0,,,55,49
97440,note_on,0,0,3,,,,,,,,,2,,,46,36
97440,note_on,120,0,3,,,,,,,,,2,,,43,0
97500,note_on,0,0,1,,,,,,,,,0,,,58,49
97500,note_on,120,0,1,,,,,,,,,0,,,55,0
97560,note_on,0,0,3,,,,,,,,,2,,,51,36
97560,note_on,120,0,3,,,,,,,,,2,,,46,0
97620,note_on,0,0,1,,,,,,,,,0,,,63,49
97620,note_on,120,0,1,,,,,,,,,0,,,58,0
97680,note_on,0,0,3,,,,,,,,,2,,,55,36
97680,note_on,120,0,3,,,,,,,,,2,,,51,0
97740,note_on,0,0,1,,,,,,,,,0,,,67,49
97740,note_on,120,0,1,,,,,,,,,0,,,63,0
97860,note_on,180,0,3,,,,,,,,,2,,,55,0
97860,note_on,0,0,3,,,,,,,,,2,,,56,36
97860,note_on,0,0,1,,,,,,,,,0,,,68,49
97860,note_on,120,0,1,,,,,,,,,0,,,67,0
97920,note_on,0,0,1,,,,,,,,,0,,,69,49
97920,control_change,0,0,1,,,,,,,,,0,64,0,,
97920,note_on,60,0,1,,,,,,,,,0,,,68,0
97920,note_on,60,0,3,,,,,,,,,2,,,56,0
97920,control_change,0,0,3,,,,,,,,,2,64,0,,
97920,note_on,0,0,3,,,,,,,,,2,,,57,36
98010,note_on,0,0,1,,,,,,,,,0,,,70,49
98010,note_on,90,0,1,,,,,,,,,0,,,69,0
98010,note_on,0,0,3,,,,,,,,,2,,,58,36
98010,note_on,90,0,3,,,,,,,,,2,,,57,0
98040,note_on,30,0,3,,,,,,,,,2,,,58,0
98040,control_change,0,0,3,,,,,,,,,2,64,127,,
98040,note_on,30,0,1,,,,,,,,,0,,,70,0
98040,control_change,0,0,1,,,,,,,,,0,64,127,,
98040,note_on,0,0,1,,,,,,,,,0,,,70,49
98100,note_on,60,0,1,,,,,,,,,0,,,70,0
98100,note_on,60,0,3,,,,,,,,,2,,,46,36
98100,note_on,0,0,3,,,,,,,,,2,,,53,36
98100,note_on,0,0,3,,,,,,,,,2,,,56,36
98100,note_on,0,0,1,,,,,,,,,0,,,62,49
98106,note_on,0,0,3,,,,,,,,,2,,,53,0
98106,note_on,0,0,3,,,,,,,,,2,,,46,0
98106,note_on,6,0,1,,,,,,,,,0,,,62,0
98106,note_on,6,0,3,,,,,,,,,2,,,56,0
98160,note_on,54,0,3,,,,,,,,,2,,,46,36
98160,note_on,0,0,3,,,,,,,,,2,,,53,36
98160,note_on,0,0,3,,,,,,,,,2,,,56,36
98160,note_on,54,0,1,,,,,,,,,0,,,62,49
98166,note_on,6,0,3,,,,,,,,,2,,,56,0
98166,note_on,0,0,3,,,,,,,,,2,,,53,0
98166,note_on,0,0,3,,,,,,,,,2,,,46,0
98166,note_on,6,0,1,,,,,,,,,0,,,62,0
98220,note_on,54,0,1,,,,,,,,,0,,,62,49
98220,note_on,0,0,3,,,,,,,,,2,,,53,36
98220,note_on,54,0,3,,,,,,,,,2,,,46,36
98220,note_on,0,0,3,,,,,,,,,2,,,56,36
98226,note_on,6,0,3,,,,,,,,,2,,,56,0
98226,note_on,0,0,3,,,,,,,,,2,,,53,0
98226,note_on,0,0,3,,,,,,,,,2,,,46,0
98226,note_on,6,0,1,,,,,,,,,0,,,62,0
98280,note_on,54,0,1,,,,,,,,,0,,,62,49
98280,note_on,0,0,3,,,,,,,,,2,,,56,36
98280,note_on,0,0,3,,,,,,,,,2,,,53,36
98280,note_on,54,0,3,,,,,,,,,2,,,46,36
98286,note_on,6,0,1,,,,,,,,,0,,,62,0
98286,note_on,6,0,3,,,,,,,,,2,,,56,0
98286,note_on,0,0,3,,,,,,,,,2,,,53,0
98286,note_on,0,0,3,,,,,,,,,2,,,46,0
98340,control_change,54,0,1,,,,,,,,,0,64,0,,
98340,control_change,54,0,3,,,,,,,,,2,64,0,,
98340,note_on,0,0,1,,,,,,,,,0,,,62,49
98340,note_on,0,0,3,,,,,,,,,2,,,46,36
98340,note_on,0,0,3,,,,,,,,,2,,,56,36
98340,note_on,0,0,3,,,,,,,,,2,,,53,36
98346,note_on,0,0,3,,,,,,,,,2,,,53,0
98346,note_on,0,0,3,,,,,,,,,2,,,46,0
98346,note_on,6,0,1,,,,,,,,,0,,,62,0
98346,note_on,6,0,3,,,,,,,,,2,,,56,0
98400,note_on,54,0,3,,,,,,,,,2,,,46,36
98400,note_on,0,0,3,,,,,,,,,2,,,53,36
98400,note_on,0,0,3,,,,,,,,,2,,,56,36
98400,note_on,54,0,1,,,,,,,,,0,,,62,49
98520,note_on,120,0,3,,,,,,,,,2,,,56,0
98520,note_on,0,0,3,,,,,,,,,2,,,53,0
98520,note_on,0,0,3,,,,,,,,,2,,,46,0
98520,note_on,120,0,1,,,,,,,,,0,,,62,0
98640,note_on,120,0,1,,,,,,,,,0,,,62,49
98655,note_on,0,0,1,,,,,,,,,0,,,63,49
98655,note_on,15,0,1,,,,,,,,,0,,,62,0
98670,note_on,15,0,1,,,,,,,,,0,,,63,0
98670,note_on,0,0,1,,,,,,,,,0,,,62,49
98685,note_on,0,0,1,,,,,,,,,0,,,63,49
98685,note_on,15,0,1,,,,,,,,,0,,,62,0
98700,note_on,0,0,1,,,,,,,,,0,,,62,49
98700,note_on,15,0,1,,,,,,,,,0,,,63,0
98715,note_on,0,0,1,,,,,,,,,0,,,63,49
98715,note_on,15,0,1,,,,,,,,,0,,,62,0
98730,note_on,0,0,1,,,,,,,,,0,,,60,49
98730,note_on,0,0,1,,,,,,,,,0,,,62,49
98730,note_on,15,0,1,,,,,,,,,0,,,63,0
98745,note_on,15,0,1,,,,,,,,,0,,,62,0
98745,note_on,0,0,1,,,,,,,,,0,,,60,0
98760,control_change,15,0,1,,,,,,,,,0,64,127,,
98760,note_on,0,0,1,,,,,,,,,0,,,63,49
98760,note_on,240,0,3,,,,,,,,,2,,,43,36
98760,note_on,0,0,3,,,,,,,,,2,,,51,36
98880,note_on,0,0,1,,,,,,,,,0,,,67,49
98880,note_on,120,0,1,,,,,,,,,0,,,63,0
99000,note_on,0,0,1,,,,,,,,,0,,,59,49
99000,note_on,120,0,1,,,,,,,,,0,,,67,0
99000,control_change,0,0,1,,,,,,,,,0,64,0,,
99015,note_on,0,0,1,,,,,,,,,0,,,60,49
99015,note_on,15,0,1,,,,,,,,,0,,,59,0
99030,note_on,0,0,1,,,,,,,,,0,,,59,49
99030,note_on,15,0,1,,,,,,,,,0,,,60,0
99045,note_on,15,0,1,,,,,,,,,0,,,59,0
99045,note_on,0,0,1,,,,,,,,,0,,,60,49
99060,note_on,15,0,1,,,,,,,,,0,,,60,0
99060,note_on,0,0,1,,,,,,,,,0,,,59,49
99075,note_on,15,0,1,,,,,,,,,0,,,59,0
99075,note_on,0,0,1,,,,,,,,,0,,,60,49
99090,note_on,15,0,1,,,,,,,,,0,,,60,0
99090,note_on,0,0,1,,,,,,,,,0,,,57,49
99105,note_on,15,0,1,,,,,,,,,0,,,57,0
99105,note_on,0,0,1,,,,,,,,,0,,,59,49
99120,note_on,0,0,3,,,,,,,,,2,,,43,0
99120,note_on,0,0,3,,,,,,,,,2,,,51,36
99120,note_on,15,0,1,,,,,,,,,0,,,59,0
99120,note_on,7200,0,4,,,,,,,,,3,,,44,36
99120,note_on,360,0,3,,,,,,,,,2,,,51,0
99120,note_on,0,0,1,,,,,,,,,0,,,60,49
99225,note_on,105,0,1,,,,,,,,,0,,,60,49
99240,note_on,15,0,1,,,,,,,,,0,,,60,0
99240,note_on,0,0,1,,,,,,,,,0,,,60,0
99240,note_on,0,0,3,,,,,,,,,2,,,52,62
99240,note_on,120,0,3,,,,,,,,,2,,,51,0
99240,note_on,0,0,1,,,,,,,,,0,,,70,75
99300,note_on,0,0,1,,,,,,,,,0,,,68,49
99300,note_on,60,0,1,,,,,,,,,0,,,70,0
99360,note_on,60,0,1,,,,,,,,,0,,,68,0
99360,note_on,0,0,1,,,,,,,,,0,,,67,49
99399,note_on,39,0,1,,,,,,,,,0,,,68,49
99400,note_on,1,0,1,,,,,,,,,0,,,67,0
99420,note_on,180,0,3,,,,,,,,,2,,,52,0
99420,note_on,0,0,3,,,,,,,,,2,,,53,36
99439,note_on,39,0,1,,,,,,,,,0,,,68,0
99440,note_on,1,0,1,,,,,,,,,0,,,65,49
99480,note_on,360,0,4,,,,,,,,,3,,,44,0
99480,note_on,0,0,1,,,,,,,,,0,,,63,49
99480,note_on,40,0,1,,,,,,,,,0,,,65,0
99480,note_on,0,0,3,,,,,,,,,2,,,55,36
99480,note_on,0,0,3,,,,,,,,,2,,,46,36
99480,note_on,60,0,3,,,,,,,,,2,,,53,0
99600,note_on,120,0,1,,,,,,,,,0,,,67,49
99720,note_on,0,0,1,,,,,,,,,0,,,72,75
99720,note_on,0,0,1,,,,,,,,,0,,,66,70
99720,note_on,0,0,1,,,,,,,,,0,,,63,65
99720,note_on,240,0,3,,,,,,,,,2,,,55,0
99720,note_on,0,0,3,,,,,,,,,2,,,46,0
99720,note_on,0,0,3,,,,,,,,,2,,,57,62
99720,note_on,0,0,3,,,,,,,,,2,,,46,54
99720,note_on,120,0,1,,,,,,,,,0,,,67,0
99720,note_on,0,0,1,,,,,,,,,0,,,63,0
99840,note_on,0,0,1,,,,,,,,,0,,,70,49
99840,note_on,0,0,1,,,,,,,,,0,,,66,0
99840,note_on,0,0,1,,,,,,,,,0,,,63,0
99840,note_on,0,0,1,,,,,,,,,0,,,62,49
99840,note_on,0,0,1,,,,,,,,,0,,,65,49
99840,note_on,120,0,1,,,,,,,,,0,,,72,0
99840,note_on,120,0,3,,,,,,,,,2,,,57,0
99840,note_on,0,0,3,,,,,,,,,2,,,58,36
99960,note_on,120,0,3,,,,,,,,,2,,,58,0
99960,note_on,0,0,3,,,,,,,,,2,,,46,0
99960,note_on,120,0,1,,,,,,,,,0,,,70,0
99960,note_on,0,0,1,,,,,,,,,0,,,62,0
99960,note_on,0,0,1,,,,,,,,,0,,,65,0
100020,note_on,60,0,3,,,,,,,,,2,,,58,36
100020,note_on,60,0,1,,,,,,,,,0,,,70,49
100080,note_on,0,0,1,,,,,,,,,0,,,69,49
100080,note_on,60,0,1,,,,,,,,,0,,,70,0
100080,note_on,0,0,3,,,,,,,,,2,,,57,36
100080,note_on,60,0,3,,,,,,,,,2,,,58,0
100140,note_on,60,0,3,,,,,,,,,2,,,57,0
100140,note_on,60,0,1,,,,,,,,,0,,,69,0
100140,note_on,0,0,3,,,,,,,,,2,,,56,36
100140,note_on,0,0,1,,,,,,,,,0,,,68,49
100200,control_change,0,0,3,,,,,,,,,2,64,127,,
100200,note_on,0,0,3,,,,,,,,,2,,,55,36
100200,control_change,0,0,1,,,,,,,,,0,64,127,,
100200,note_on,60,0,3,,,,,,,,,2,,,56,0
100200,note_on,60,0,1,,,,,,,,,0,,,68,0
100260,note_on,60,0,1,,,,,,,,,0,,,67,49
100320,note_on,120,0,3,,,,,,,,,2,,,55,0
100320,note_on,0,0,3,,,,,,,,,2,,,58,36
100380,note_on,0,0,1,,,,,,,,,0,,,70,49
100380,note_on,120,0,1,,,,,,,,,0,,,67,0
100440,note_on,0,0,3,,,,,,,,,2,,,63,36
100440,note_on,120,0,3,,,,,,,,,2,,,58,0
100500,note_on,120,0,1,,,,,,,,,0,,,70,0
100500,note_on,0,0,1,,,,,,,,,0,,,75,49
100560,note_on,0,0,3,,,,,,,,,2,,,67,36
100560,note_on,120,0,3,,,,,,,,,2,,,63,0
100620,note_on,120,0,1,,,,,,,,,0,,,75,0
100620,note_on,0,0,1,,,,,,,,,0,,,79,49
100740,note_on,120,0,1,,,,,,,,,0,,,79,0
100740,note_on,0,0,1,,,,,,,,,0,,,80,49
100740,note_on,0,0,3,,,,,,,,,2,,,68,36
100740,note_on,180,0,3,,,,,,,,,2,,,67,0
100800,note_on,0,0,1,,,,,,,,,0,,,81,75
100800,note_on,0,0,3,,,,,,,,,2,,,69,62
100800,note_on,60,0,3,,,,,,,,,2,,,68,0
100800,note_on,60,0,1,,,,,,,,,0,,,80,0
100830,note_on,30,0,1,,,,,,,,,0,,,81,0
100830,note_on,0,0,1,,,,,,,,,0,,,82,49
100830,note_on,30,0,3,,,,,,,,,2,,,69,0
100830,note_on,0,0,3,,,,,,,,,2,,,70,36
100860,note_on,0,0,1,,,,,,,,,0,,,84,49
100860,note_on,30,0,1,,,,,,,,,0,,,82,0
100860,note_on,30,0,3,,,,,,,,,2,,,70,0
100860,note_on,0,0,3,,,,,,,,,2,,,72,36
100890,note_on,0,0,1,,,,,,,,,0,,,82,49
100890,note_on,30,0,3,,,,,,,,,2,,,72,0
100890,control_change,0,0,3,,,,,,,,,2,64,0,,
100890,note_on,0,0,3,,,,,,,,,2,,,70,36
100890,note_on,30,0,1,,,,,,,,,0,,,84,0
100890,control_change,0,0,1,,,,,,,,,0,64,0,,
100920,note_on,30,0,3,,,,,,,,,2,,,70,0
100920,note_on,0,0,1,,,,,,,,,0,,,82,49
100920,control_change,0,0,1,,,,,,,,,0,64,127,,
100920,note_on,30,0,1,,,,,,,,,0,,,82,0
100920,control_change,0,0,3,,,,,,,,,2,64,127,,
100980,note_on,0,0,1,,,,,,,,,0,,,74,49
100980,note_on,60,0,1,,,,,,,,,0,,,82,0
100980,note_on,60,0,3,,,,,,,,,2,,,58,36
100980,note_on,0,0,3,,,,,,,,,2,,,65,36
100980,note_on,0,0,3,,,,,,,,,2,,,68,36
100986,note_on,6,0,3,,,,,,,,,2,,,68,0
100986,note_on,0,0,3,,,,,,,,,2,,,65,0
100986,note_on,0,0,3,,,,,,,,,2,,,58,0
100986,note_on,6,0,1,,,,,,,,,0,,,74,0
101040,note_on,54,0,1,,,,,,,,,0,,,74,49
101040,note_on,54,0,3,,,,,,,,,2,,,58,36
101040,note_on,0,0,3,,,,,,,,,2,,,65,36
101040,note_on,0,0,3,,,,,,,,,2,,,68,36
101046,note_on,6,0,1,,,,,,,,,0,,,74,0
101046,note_on,6,0,3,,,,,,,,,2,,,68,0
101046,note_on,0,0,3,,,,,,,,,2,,,65,0
101046,note_on,0,0,3,,,,,,,,,2,,,58,0
101100,note_on,0,0,3,,,,,,,,,2,,,65,36
101100,note_on,54,0,3,,,,,,,,,2,,,58,36
101100,note_on,0,0,3,,,,,,,,,2,,,68,36
101100,note_on,54,0,1,,,,,,,,,0,,,74,49
101106,note_on,6,0,1,,,,,,,,,0,,,74,0
101106,note_on,6,0,3,,,,,,,,,2,,,68,0
101106,note_on,0,0,3,,,,,,,,,2,,,65,0
101106,note_on,0,0,3,,,,,,,,,2,,,58,0
101160,note_on,54,0,3,,,,,,,,,2,,,58,36
101160,note_on,0,0,3,,,,,,,,,2,,,65,36
101160,note_on,0,0,3,,,,,,,,,2,,,68,36
101160,note_on,54,0,1,,,,,,,,,0,,,74,49
101166,note_on,6,0,1,,,,,,,,,0,,,74,0
101166,note_on,6,0,3,,,,,,,,,2,,,68,0
101166,note_on,0,0,3,,,,,,,,,2,,,65,0
101166,note_on,0,0,3,,,,,,,,,2,,,58,0
101220,note_on,0,0,3,,,,,,,,,2,,,65,36
101220,note_on,0,0,3,,,,,,,,,2,,,58,36
101220,control_change,54,0,3,,,,,,,,,2,64,0,,
101220,control_change,54,0,1,,,,,,,,,0,64,0,,
101220,note_on,0,0,1,,,,,,,,,0,,,74,49
101220,note_on,0,0,3,,,,,,,,,2,,,68,36
101226,note_on,6,0,3,,,,,,,,,2,,,68,0
101226,note_on,0,0,3,,,,,,,,,2,,,65,0
101226,note_on,0,0,3,,,,,,,,,2,,,58,0
101226,note_on,6,0,1,,,,,,,,,0,,,74,0
101280,control_change,54,0,1,,,,,,,,,0,64,127,,
101280,note_on,0,0,1,,,,,,,,,0,,,74,49
101280,note_on,54,0,3,,,,,,,,,2,,,58,36
101280,note_on,0,0,3,,,,,,,,,2,,,65,36
101280,note_on,0,0,3,,,,,,,,,2,,,68,36
101400,note_on,120,0,1,,,,,,,,,0,,,74,0
101400,note_on,120,0,3,,,,,,,,,2,,,68,0
101400,note_on,0,0,3,,,,,,,,,2,,,65,0
101400,note_on,0,0,3,,,,,,,,,2,,,58,0
101520,note_on,120,0,1,,,,,,,,,0,,,74,49
101535,note_on,0,0,1,,,,,,,,,0,,,75,49
101535,note_on,15,0,1,,,,,,,,,0,,,74,0
101550,note_on,15,0,1,,,,,,,,,0,,,75,0
101550,note_on,0,0,1,,,,,,,,,0,,,74,49
101565,note_on,0,0,1,,,,,,,,,0,,,75,49
101565,note_on,15,0,1,,,,,,,,,0,,,74,0
101580,note_on,0,0,1,,,,,,,,,0,,,74,49
101580,note_on,15,0,1,,,,,,,,,0,,,75,0
101595,note_on,15,0,1,,,,,,,,,0,,,74,0
101595,note_on,0,0,1,,,,,,,,,0,,,75,49
101610,note_on,15,0,1,,,,,,,,,0,,,75,0
101610,control_change,0,0,1,,,,,,,,,0,64,0,,
101610,note_on,0,0,1,,,,,,,,,0,,,72,49
101610,note_on,0,0,1,,,,,,,,,0,,,74,49
101625,note_on,0,0,1,,,,,,,,,0,,,72,0
101625,note_on,15,0,1,,,,,,,,,0,,,74,0
101640,note_on,0,0,1,,,,,,,,,0,,,75,49
101640,control_change,15,0,1,,,,,,,,,0,64,127,,
101640,note_on,0,0,3,,,,,,,,,2,,,63,36
101640,note_on,240,0,3,,,,,,,,,2,,,55,36
101760,note_on,0,0,1,,,,,,,,,0,,,79,49
101760,note_on,120,0,1,,,,,,,,,0,,,75,0
101880,note_on,0,0,1,,,,,,,,,0,,,71,49
101880,note_on,120,0,1,,,,,,,,,0,,,79,0
101895,note_on,0,0,1,,,,,,,,,0,,,72,49
101895,note_on,15,0,1,,,,,,,,,0,,,71,0
101910,note_on,0,0,1,,,,,,,,,0,,,71,49
101910,note_on,15,0,1,,,,,,,,,0,,,72,0
101925,note_on,15,0,1,,,,,,,,,0,,,71,0
101925,note_on,0,0,1,,,,,,,,,0,,,72,49
101940,note_on,0,0,1,,,,,,,,,0,,,71,49
101940,note_on,15,0,1,,,,,,,,,0,,,72,0
101955,note_on,15,0,1,,,,,,,,,0,,,71,0
101955,note_on,0,0,1,,,,,,,,,0,,,72,49
101970,note_on,0,0,1,,,,,,,,,0,,,69,49
101970,note_on,15,0,1,,,,,,,,,0,,,72,0
101970,control_change,0,0,1,,,,,,,,,0,64,0,,
101985,note_on,0,0,1,,,,,,,,,0,,,71,49
101985,note_on,15,0,1,,,,,,,,,0,,,69,0
102000,note_on,0,0,3,,,,,,,,,2,,,63,36
102000,note_on,0,0,1,,,,,,,,,0,,,72,49
102000,note_on,15,0,1,,,,,,,,,0,,,71,0
102000,note_on,2520,0,4,,,,,,,,,3,,,56,36
102000,note_on,360,0,3,,,,,,,,,2,,,63,0
102000,note_on,0,0,3,,,,,,,,,2,,,55,0
102105,note_on,105,0,1,,,,,,,,,0,,,72,49
102120,note_on,120,0,3,,,,,,,,,2,,,63,0
102120,note_on,0,0,3,,,,,,,,,2,,,64,62
102120,note_on,15,0,1,,,,,,,,,0,,,72,0
102120,note_on,0,0,1,,,,,,,,,0,,,72,0
102120,note_on,0,0,1,,,,,,,,,0,,,82,75
102180,note_on,0,0,1,,,,,,,,,0,,,80,49
102180,note_on,60,0,1,,,,,,,,,0,,,82,0
102240,note_on,0,0,1,,,,,,,,,0,,,79,49
102240,note_on,60,0,1,,,,,,,,,0,,,80,0
102279,note_on,39,0,1,,,,,,,,,0,,,80,49
102280,note_on,1,0,1,,,,,,,,,0,,,79,0
102300,note_on,180,0,3,,,,,,,,,2,,,64,0
102300,note_on,0,0,3,,,,,,,,,2,,,65,36
102319,note_on,39,0,1,,,,,,,,,0,,,80,0
102320,note_on,1,0,1,,,,,,,,,0,,,77,49
102360,note_on,0,0,3,,,,,,,,,2,,,58,36
102360,note_on,0,0,3,,,,,,,,,2,,,67,36
102360,note_on,40,0,1,,,,,,,,,0,,,77,0
102360,note_on,0,0,1,,,,,,,,,0,,,75,49
102360,note_on,360,0,4,,,,,,,,,3,,,56,0
102360,note_on,60,0,3,,,,,,,,,2,,,65,0
102480,note_on,120,0,1,,,,,,,,,0,,,75,0
102480,note_on,0,0,1,,,,,,,,,0,,,79,49
102600,note_on,0,0,3,,,,,,,,,2,,,58,54
102600,note_on,0,0,3,,,,,,,,,2,,,68,62
102600,note_on,0,0,3,,,,,,,,,2,,,58,0
102600,note_on,120,0,1,,,,,,,,,0,,,79,0
102600,note_on,0,0,1,,,,,,,,,0,,,74,67
102600,note_on,0,0,1,,,,,,,,,0,,,82,75
102600,note_on,240,0,3,,,,,,,,,2,,,67,0
102720,control_change,0,0,1,,,,,,,,,0,64,127,,
102720,note_on,0,0,3,,,,,,,,,2,,,63,36
102720,control_change,0,0,3,,,,,,,,,2,64,127,,
102720,note_on,0,0,3,,,,,,,,,2,,,58,0
102720,note_on,120,0,3,,,,,,,,,2,,,68,0
102720,note_on,0,0,1,,,,,,,,,0,,,74,0
102720,note_on,0,0,1,,,,,,,,,0,,,75,49
102720,note_on,0,0,1,,,,,,,,,0,,,79,49
102720,note_on,120,0,1,,,,,,,,,0,,,82,0
102720,note_on,0,0,3,,,,,,,,,2,,,67,36
102840,note_on,0,0,1,,,,,,,,,0,,,75,0
102840,note_on,120,0,3,,,,,,,,,2,,,67,0
102840,note_on,120,0,1,,,,,,,,,0,,,79,0
102840,note_on,0,0,3,,,,,,,,,2,,,63,0
102870,note_on,30,0,1,,,,,,,,,0,,,87,49
102870,note_on,30,0,3,,,,,,,,,2,,,75,36
102885,note_on,15,0,1,,,,,,,,,0,,,87,0
102885,note_on,0,0,1,,,,,,,,,0,,,89,49
102885,note_on,0,0,3,,,,,,,,,2,,,77,36
102885,note_on,15,0,3,,,,,,,,,2,,,75,0
102900,note_on,0,0,1,,,,,,,,,0,,,87,62
102900,note_on,15,0,3,,,,,,,,,2,,,77,0
102900,note_on,15,0,1,,,,,,,,,0,,,89,0
102900,note_on,0,0,3,,,,,,,,,2,,,75,49
102960,note_on,60,0,3,,,,,,,,,2,,,75,0
102960,note_on,0,0,3,,,,,,,,,2,,,74,49
102960,note_on,0,0,1,,,,,,,,,0,,,86,62
102960,note_on,60,0,1,,,,,,,,,0,,,87,0
103020,note_on,0,0,1,,,,,,,,,0,,,87,62
103020,note_on,60,0,1,,,,,,,,,0,,,86,0
103020,note_on,0,0,3,,,,,,,,,2,,,75,49
103020,note_on,60,0,3,,,,,,,,,2,,,74,0
103065,note_on,45,0,3,,,,,,,,,2,,,75,49
103065,note_on,45,0,1,,,,,,,,,0,,,87,62
103080,note_on,0,0,3,,,,,,,,,2,,,79,49
103080,note_on,0,0,3,,,,,,,,,2,,,75,0
103080,note_on,15,0,3,,,,,,,,,2,,,75,0
103080,note_on,15,0,1,,,,,,,,,0,,,87,0
103080,note_on,0,0,1,,,,,,,,,0,,,91,62
103080,note_on,0,0,1,,,,,,,,,0,,,87,0
103140,note_on,0,0,1,,,,,,,,,0,,,89,62
103140,note_on,60,0,1,,,,,,,,,0,,,91,0
103140,note_on,60,0,3,,,,,,,,,2,,,79,0
103140,note_on,0,0,3,,,,,,,,,2,,,77,49
103170,note_on,30,0,1,,,,,,,,,0,,,89,62
103170,note_on,30,0,3,,,,,,,,,2,,,77,49
103185,note_on,0,0,1,,,,,,,,,0,,,91,62
103185,note_on,15,0,1,,,,,,,,,0,,,89,0
103185,note_on,0,0,3,,,,,,,,,2,,,79,49
103185,note_on,15,0,3,,,,,,,,,2,,,77,0
103200,note_on,0,0,1,,,,,,,,,0,,,89,0
103200,note_on,0,0,3,,,,,,,,,2,,,77,49
103200,note_on,0,0,1,,,,,,,,,0,,,89,62
103200,note_on,0,0,3,,,,,,,,,2,,,77,0
103200,note_on,15,0,3,,,,,,,,,2,,,79,0
103200,note_on,15,0,1,,,,,,,,,0,,,91,0
103260,note_on,0,0,3,,,,,,,,,2,,,75,49
103260,note_on,0,0,1,,,,,,,,,0,,,87,62
103260,note_on,60,0,1,,,,,,,,,0,,,89,0
103260,note_on,60,0,3,,,,,,,,,2,,,77,0
103290,note_on,30,0,3,,,,,,,,,2,,,75,49
103290,note_on,30,0,1,,,,,,,,,0,,,87,62
103305,note_on,15,0,3,,,,,,,,,2,,,75,0
103305,note_on,0,0,3,,,,,,,,,2,,,77,49
103305,note_on,0,0,1,,,,,,,,,0,,,89,62
103305,note_on,15,0,1,,,,,,,,,0,,,87,0
103320,note_on,15,0,1,,,,,,,,,0,,,89,0
103320,note_on,0,0,1,,,,,,,,,0,,,87,62
103320,note_on,0,0,1,,,,,,,,,0,,,87,0
103320,note_on,15,0,3,,,,,,,,,2,,,77,0
103320,note_on,0,0,3,,,,,,,,,2,,,75,49
103320,note_on,0,0,3,,,,,,,,,2,,,75,0
103380,note_on,0,0,1,,,,,,,,,0,,,86,62
103380,note_on,60,0,1,,,,,,,,,0,,,87,0
103380,note_on,60,0,3,,,,,,,,,2,,,75,0
103380,note_on,0,0,3,,,,,,,,,2,,,74,49
103410,note_on,30,0,1,,,,,,,,,0,,,86,62
103410,note_on,30,0,3,,,,,,,,,2,,,74,49
103425,note_on,0,0,1,,,,,,,,,0,,,87,62
103425,note_on,15,0,1,,,,,,,,,0,,,86,0
103425,note_on,0,0,3,,,,,,,,,2,,,75,49
103425,note_on,15,0,3,,,,,,,,,2,,,74,0
103440,note_on,0,0,1,,,,,,,,,0,,,86,62
103440,note_on,0,0,1,,,,,,,,,0,,,86,0
103440,note_on,15,0,1,,,,,,,,,0,,,87,0
103440,note_on,15,0,3,,,,,,,,,2,,,75,0
103440,note_on,0,0,3,,,,,,,,,2,,,74,0
103440,note_on,0,0,3,,,,,,,,,2,,,74,49
103500,note_on,0,0,1,,,,,,,,,0,,,84,62
103500,note_on,60,0,1,,,,,,,,,0,,,86,0
103500,note_on,0,0,3,,,,,,,,,2,,,72,49
103500,note_on,60,0,3,,,,,,,,,2,,,74,0
103530,note_on,30,0,3,,,,,,,,,2,,,72,49
103530,note_on,30,0,1,,,,,,,,,0,,,84,62
103545,note_on,15,0,3,,,,,,,,,2,,,72,0
103545,note_on,15,0,1,,,,,,,,,0,,,84,0
103545,note_on,0,0,1,,,,,,,,,0,,,87,62
103545,note_on,0,0,3,,,,,,,,,2,,,75,49
103560,note_on,15,0,3,,,,,,,,,2,,,75,0
103560,note_on,15,0,1,,,,,,,,,0,,,87,0
103560,note_on,0,0,1,,,,,,,,,0,,,84,62
103560,note_on,0,0,3,,,,,,,,,2,,,72,49
103560,note_on,0,0,3,,,,,,,,,2,,,72,0
103560,note_on,0,0,1,,,,,,,,,0,,,84,0
103620,note_on,60,0,1,,,,,,,,,0,,,84,0
103620,control_change,0,0,3,,,,,,,,,2,64,0,,
103620,note_on,0,0,3,,,,,,,,,2,,,70,49
103620,control_change,0,0,1,,,,,,,,,0,64,0,,
103620,note_on,0,0,1,,,,,,,,,0,,,82,62
103620,note_on,60,0,3,,,,,,,,,2,,,72,0
103650,note_on,30,0,3,,,,,,,,,2,,,70,49
103650,note_on,30,0,1,,,,,,,,,0,,,82,62
103665,note_on,15,0,3,,,,,,,,,2,,,70,0
103665,note_on,0,0,1,,,,,,,,,0,,,84,62
103665,note_on,0,0,3,,,,,,,,,2,,,72,49
103665,note_on,15,0,1,,,,,,,,,0,,,82,0
103680,note_on,0,0,1,,,,,,,,,0,,,82,0
103680,note_on,15,0,1,,,,,,,,,0,,,84,0
103680,note_on,0,0,3,,,,,,,,,2,,,70,49
103680,note_on,0,0,3,,,,,,,,,2,,,70,0
103680,note_on,15,0,3,,,,,,,,,2,,,72,0
103680,note_on,0,0,1,,,,,,,,,0,,,82,62
103740,note_on,0,0,1,,,,,,,,,0,,,81,62
103740,note_on,60,0,3,,,,,,,,,2,,,70,0
103740,note_on,0,0,3,,,,,,,,,2,,,69,49
103740,note_on,60,0,1,,,,,,,,,0,,,82,0
103800,note_on,60,0,1,,,,,,,,,0,,,81,0
103800,note_on,0,0,3,,,,,,,,,2,,,65,49
103800,note_on,0,0,3,,,,,,,,,2,,,75,49
103800,note_on,60,0,3,,,,,,,,,2,,,69,0
103800,control_change,0,0,1,,,,,,,,,0,64,127,,
103800,note_on,0,0,1,,,,,,,,,0,,,81,88
103800,note_on,0,0,3,,,,,,,,,2,,,72,49
103950,note_on,150,0,1,,,,,,,,,0,,,81,0
103950,note_on,0,0,1,,,,,,,,,0,,,84,62
103980,note_on,30,0,1,,,,,,,,,0,,,84,0
103980,note_on,0,0,1,,,,,,,,,0,,,87,62
104010,note_on,0,0,1,,,,,,,,,0,,,88,62
104010,note_on,30,0,1,,,,,,,,,0,,,87,0
104040,control_change,0,0,1,,,,,,,,,0,64,0,,
104040,note_on,0,0,1,,,,,,,,,0,,,89,62
104040,note_on,30,0,1,,,,,,,,,0,,,88,0
104100,note_on,60,0,1,,,,,,,,,0,,,89,0
104160,note_on,0,0,1,,,,,,,,,0,,,80,62
104160,control_change,60,0,1,,,,,,,,,0,64,127,,
104160,note_on,0,0,3,,,,,,,,,2,,,65,0
104160,note_on,0,0,3,,,,,,,,,2,,,70,49
104160,note_on,0,0,3,,,,,,,,,2,,,74,49
104160,note_on,360,0,3,,,,,,,,,2,,,75,0
104160,note_on,0,0,3,,,,,,,,,2,,,72,0
104325,note_on,165,0,1,,,,,,,,,0,,,80,62
104340,note_on,15,0,1,,,,,,,,,0,,,80,0
104340,note_on,0,0,1,,,,,,,,,0,,,80,0
104340,note_on,0,0,1,,,,,,,,,0,,,91,62
104370,note_on,30,0,1,,,,,,,,,0,,,91,0
104370,note_on,0,0,1,,,,,,,,,0,,,89,62
104400,note_on,30,0,1,,,,,,,,,0,,,89,0
104400,note_on,0,0,1,,,,,,,,,0,,,86,62
104460,note_on,60,0,1,,,,,,,,,0,,,86,0
104460,note_on,0,0,1,,,,,,,,,0,,,80,62
104460,control_change,0,0,1,,,,,,,,,0,64,0,,
104520,note_on,360,0,3,,,,,,,,,2,,,74,0
104520,note_on,0,0,3,,,,,,,,,2,,,70,0
104520,note_on,0,0,3,,,,,,,,,2,,,75,49
104520,note_on,0,0,3,,,,,,,,,2,,,63,49
104520,control_change,0,0,1,,,,,,,,,0,64,127,,
104520,note_on,0,0,1,,,,,,,,,0,,,79,62
104520,note_on,60,0,1,,,,,,,,,0,,,80,0
104550,note_on,0,0,1,,,,,,,,,0,,,82,62
104550,note_on,30,0,1,,,,,,,,,0,,,79,0
104580,note_on,0,0,1,,,,,,,,,0,,,86,62
104580,note_on,30,0,1,,,,,,,,,0,,,82,0
104580,note_on,0,0,3,,,,,,,,,2,,,63,0
104580,note_on,60,0,3,,,,,,,,,2,,,75,0
104610,note_on,0,0,1,,,,,,,,,0,,,87,62
104610,note_on,30,0,1,,,,,,,,,0,,,86,0
104640,note_on,60,0,3,,,,,,,,,2,,,58,49
104640,note_on,0,0,1,,,,,,,,,0,,,82,62
104640,note_on,30,0,1,,,,,,,,,0,,,87,0
104640,note_on,0,0,3,,,,,,,,,2,,,67,49
104760,note_on,120,0,3,,,,,,,,,2,,,67,0
104760,note_on,0,0,3,,,,,,,,,2,,,58,0
104760,note_on,0,0,3,,,,,,,,,2,,,59,49
104760,note_on,0,0,3,,,,,,,,,2,,,68,49
104760,note_on,120,0,1,,,,,,,,,0,,,82,0
104760,control_change,0,0,1,,,,,,,,,0,64,0,,
104760,note_on,0,0,1,,,,,,,,,0,,,74,62
104880,note_on,0,0,3,,,,,,,,,2,,,67,49
104880,note_on,0,0,3,,,,,,,,,2,,,60,49
104880,control_change,0,0,3,,,,,,,,,2,64,127,,
104880,note_on,0,0,3,,,,,,,,,2,,,59,0
104880,note_on,120,0,3,,,,,,,,,2,,,68,0
104880,note_on,0,0,1,,,,,,,,,0,,,75,62
104880,control_change,0,0,1,,,,,,,,,0,64,127,,
104880,note_on,120,0,1,,,,,,,,,0,,,74,0
105000,note_on,120,0,3,,,,,,,,,2,,,67,0
105000,note_on,0,0,3,,,,,,,,,2,,,60,0
105000,note_on,120,0,1,,,,,,,,,0,,,75,0
105030,note_on,30,0,1,,,,,,,,,0,,,75,62
105030,note_on,30,0,3,,,,,,,,,2,,,63,49
105045,note_on,0,0,3,,,,,,,,,2,,,65,49
105045,note_on,0,0,1,,,,,,,,,0,,,77,62
105045,note_on,15,0,1,,,,,,,,,0,,,75,0
105045,note_on,15,0,3,,,,,,,,,2,,,63,0
105060,note_on,15,0,3,,,,,,,,,2,,,65,0
105060,note_on,0,0,3,,,,,,,,,2,,,63,49
105060,note_on,0,0,1,,,,,,,,,0,,,75,62
105060,note_on,15,0,1,,,,,,,,,0,,,77,0
105120,note_on,60,0,1,,,,,,,,,0,,,75,0
105120,note_on,0,0,3,,,,,,,,,2,,,62,49
105120,note_on,60,0,3,,,,,,,,,2,,,63,0
105120,note_on,0,0,1,,,,,,,,,0,,,74,62
105180,note_on,60,0,1,,,,,,,,,0,,,74,0
105180,note_on,0,0,1,,,,,,,,,0,,,75,62
105180,note_on,0,0,3,,,,,,,,,2,,,63,49
105180,note_on,60,0,3,,,,,,,,,2,,,62,0
105225,note_on,45,0,3,,,,,,,,,2,,,63,49
105225,note_on,45,0,1,,,,,,,,,0,,,75,62
105240,note_on,15,0,1,,,,,,,,,0,,,75,0
105240,control_change,0,0,3,,,,,,,,,2,64,127,,
105240,note_on,0,0,1,,,,,,,,,0,,,79,62
105240,note_on,0,0,3,,,,,,,,,2,,,67,49
105240,note_on,15,0,3,,,,,,,,,2,,,63,0
105240,note_on,0,0,3,,,,,,,,,2,,,63,0
105240,note_on,0,0,1,,,,,,,,,0,,,75,0
105240,control_change,0,0,1,,,,,,,,,0,64,127,,
105300,note_on,60,0,3,,,,,,,,,2,,,67,0
105300,note_on,0,0,3,,,,,,,,,2,,,65,49
105300,note_on,60,0,1,,,,,,,,,0,,,79,0
105300,note_on,0,0,1,,,,,,,,,0,,,77,62
105330,note_on,30,0,3,,,,,,,,,2,,,65,49
105330,note_on,30,0,1,,,,,,,,,0,,,77,62
105345,note_on,15,0,1,,,,,,,,,0,,,77,0
105345,note_on,0,0,1,,,,,,,,,0,,,79,62
105345,note_on,0,0,3,,,,,,,,,2,,,67,49
105345,note_on,15,0,3,,,,,,,,,2,,,65,0
105360,note_on,15,0,3,,,,,,,,,2,,,67,0
105360,note_on,0,0,3,,,,,,,,,2,,,65,49
105360,note_on,0,0,3,,,,,,,,,2,,,65,0
105360,note_on,0,0,1,,,,,,,,,0,,,77,62
105360,note_on,0,0,1,,,,,,,,,0,,,77,0
105360,note_on,15,0,1,,,,,,,,,0,,,79,0
105420,note_on,60,0,1,,,,,,,,,0,,,77,0
105420,note_on,0,0,3,,,,,,,,,2,,,63,49
105420,note_on,60,0,3,,,,,,,,,2,,,65,0
105420,note_on,0,0,1,,,,,,,,,0,,,75,62
105450,note_on,30,0,1,,,,,,,,,0,,,75,62
105450,note_on,30,0,3,,,,,,,,,2,,,63,49
105465,note_on,15,0,1,,,,,,,,,0,,,75,0
105465,note_on,15,0,3,,,,,,,,,2,,,63,0
105465,note_on,0,0,1,,,,,,,,,0,,,77,62
105465,note_on,0,0,3,,,,,,,,,2,,,65,49
105480,note_on,0,0,1,,,,,,,,,0,,,75,0
105480,note_on,15,0,3,,,,,,,,,2,,,65,0
105480,note_on,15,0,1,,,,,,,,,0,,,77,0
105480,note_on,0,0,1,,,,,,,,,0,,,75,62
105480,note_on,0,0,3,,,,,,,,,2,,,63,0
105480,note_on,0,0,3,,,,,,,,,2,,,63,49
105540,note_on,60,0,3,,,,,,,,,2,,,63,0
105540,note_on,60,0,1,,,,,,,,,0,,,75,0
105540,note_on,0,0,1,,,,,,,,,0,,,74,62
105540,note_on,0,0,3,,,,,,,,,2,,,62,49
105570,note_on,30,0,1,,,,,,,,,0,,,74,62
105570,note_on,30,0,3,,,,,,,,,2,,,62,49
105585,note_on,15,0,3,,,,,,,,,2,,,62,0
105585,note_on,0,0,3,,,,,,,,,2,,,63,49
105585,note_on,0,0,1,,,,,,,,,0,,,75,62
105585,note_on,15,0,1,,,,,,,,,0,,,74,0
105600,note_on,0,0,1,,,,,,,,,0,,,74,0
105600,note_on,15,0,1,,,,,,,,,0,,,75,0
105600,note_on,15,0,3,,,,,,,,,2,,,63,0
105600,note_on,0,0,3,,,,,,,,,2,,,62,49
105600,note_on,0,0,3,,,,,,,,,2,,,62,0
105600,note_on,0,0,1,,,,,,,,,0,,,74,62
105660,note_on,60,0,1,,,,,,,,,0,,,74,0
105660,note_on,0,0,3,,,,,,,,,2,,,60,49
105660,note_on,60,0,3,,,,,,,,,2,,,62,0
105660,note_on,0,0,1,,,,,,,,,0,,,72,62
105690,note_on,30,0,3,,,,,,,,,2,,,60,49
105690,note_on,30,0,1,,,,,,,,,0,,,72,62
105705,note_on,15,0,3,,,,,,,,,2,,,60,0
105705,note_on,0,0,1,,,,,,,,,0,,,75,62
105705,note_on,15,0,1,,,,,,,,,0,,,72,0
105705,note_on,0,0,3,,,,,,,,,2,,,63,49
105720,note_on,0,0,1,,,,,,,,,0,,,72,62
105720,note_on,0,0,3,,,,,,,,,2,,,60,49
105720,note_on,0,0,3,,,,,,,,,2,,,60,0
105720,note_on,15,0,3,,,,,,,,,2,,,63,0
105720,note_on,15,0,1,,,,,,,,,0,,,75,0
105720,note_on,0,0,1,,,,,,,,,0,,,72,0
105780,note_on,60,0,1,,,,,,,,,0,,,72,0
105780,note_on,0,0,3,,,,,,,,,2,,,58,49
105780,note_on,60,0,3,,,,,,,,,2,,,60,0
105780,note_on,0,0,1,,,,,,,,,0,,,70,62
105810,note_on,30,0,1,,,,,,,,,0,,,70,62
105810,note_on,30,0,3,,,,,,,,,2,,,58,49
105825,note_on,15,0,1,,,,,,,,,0,,,70,0
105825,note_on,0,0,1,,,,,,,,,0,,,72,62
105825,note_on,15,0,3,,,,,,,,,2,,,58,0
105825,note_on,0,0,3,,,,,,,,,2,,,60,49
105840,note_on,0,0,1,,,,,,,,,0,,,70,0
105840,note_on,15,0,3,,,,,,,,,2,,,60,0
105840,note_on,0,0,3,,,,,,,,,2,,,58,49
105840,note_on,0,0,3,,,,,,,,,2,,,58,0
105840,note_on,15,0,1,,,,,,,,,0,,,72,0
105840,note_on,0,0,1,,,,,,,,,0,,,70,62
105900,note_on,60,0,3,,,,,,,,,2,,,58,0
105900,note_on,0,0,3,,,,,,,,,2,,,57,49
105900,control_change,0,0,3,,,,,,,,,2,64,0,,
105900,note_on,60,0,1,,,,,,,,,0,,,70,0
105900,note_on,0,0,1,,,,,,,,,0,,,69,62
105900,control_change,0,0,1,,,,,,,,,0,64,0,,
105960,control_change,0,0,1,,,,,,,,,0,64,127,,
105960,note_on,0,0,3,,,,,,,,,2,,,60,70
105960,note_on,0,0,1,,,,,,,,,0,,,69,62
105960,note_on,60,0,3,,,,,,,,,2,,,57,0
105960,note_on,0,0,3,,,,,,,,,2,,,53,65
105960,note_on,60,0,1,,,,,,,,,0,,,69,0
105960,note_on,0,0,3,,,,,,,,,2,,,63,75
106110,note_on,150,0,1,,,,,,,,,0,,,69,0
106110,note_on,0,0,1,,,,,,,,,0,,,72,62
106140,note_on,0,0,1,,,,,,,,,0,,,75,62
106140,note_on,30,0,1,,,,,,,,,0,,,72,0
106170,note_on,0,0,1,,,,,,,,,0,,,76,62
106170,note_on,30,0,1,,,,,,,,,0,,,75,0
106200,note_on,0,0,1,,,,,,,,,0,,,77,62
106200,control_change,0,0,1,,,,,,,,,0,64,0,,
106200,note_on,30,0,1,,,,,,,,,0,,,76,0
106260,note_on,60,0,1,,,,,,,,,0,,,77,0
106320,note_on,0,0,3,,,,,,,,,2,,,53,0
106320,note_on,0,0,3,,,,,,,,,2,,,58,49
106320,note_on,0,0,1,,,,,,,,,0,,,68,62
106320,control_change,60,0,1,,,,,,,,,0,64,127,,
106320,note_on,0,0,3,,,,,,,,,2,,,62,49
106320,note_on,0,0,3,,,,,,,,,2,,,60,0
106320,note_on,360,0,3,,,,,,,,,2,,,63,0
106485,note_on,165,0,1,,,,,,,,,0,,,68,62
106500,note_on,0,0,1,,,,,,,,,0,,,79,62
106500,note_on,15,0,1,,,,,,,,,0,,,68,0
106500,note_on,0,0,1,,,,,,,,,0,,,68,0
106530,note_on,30,0,1,,,,,,,,,0,,,79,0
106530,note_on,0,0,1,,,,,,,,,0,,,77,62
106560,note_on,30,0,1,,,,,,,,,0,,,77,0
106560,note_on,0,0,1,,,,,,,,,0,,,74,62
106620,note_on,0,0,1,,,,,,,,,0,,,68,62
106620,control_change,0,0,1,,,,,,,,,0,64,0,,
106620,note_on,60,0,1,,,,,,,,,0,,,74,0
106680,note_on,0,0,1,,,,,,,,,0,,,67,49
106680,note_on,0,0,3,,,,,,,,,2,,,51,36
106680,control_change,0,0,1,,,,,,,,,0,64,127,,
106680,note_on,360,0,3,,,,,,,,,2,,,62,0
106680,note_on,0,0,3,,,,,,,,,2,,,58,0
106680,control_change,0,0,3,,,,,,,,,2,64,127,,
106680,note_on,0,0,3,,,,,,,,,2,,,63,36
106680,note_on,60,0,1,,,,,,,,,0,,,68,0
106710,note_on,0,0,1,,,,,,,,,0,,,70,49
106710,note_on,30,0,1,,,,,,,,,0,,,67,0
106740,note_on,30,0,1,,,,,,,,,0,,,70,0
106740,note_on,0,0,1,,,,,,,,,0,,,74,49
106740,note_on,60,0,3,,,,,,,,,2,,,63,0
106740,note_on,0,0,3,,,,,,,,,2,,,51,0
106770,note_on,30,0,1,,,,,,,,,0,,,74,0
106770,note_on,0,0,1,,,,,,,,,0,,,75,49
106800,note_on,30,0,1,,,,,,,,,0,,,75,0
106800,note_on,0,0,1,,,,,,,,,0,,,70,49
106800,note_on,60,0,3,,,,,,,,,2,,,46,36
106800,note_on,0,0,3,,,,,,,,,2,,,55,36
106920,note_on,120,0,3,,,,,,,,,2,,,55,0
106920,note_on,0,0,1,,,,,,,,,0,,,62,49
106920,note_on,0,0,3,,,,,,,,,2,,,56,36
106920,control_change,0,0,1,,,,,,,,,0,64,0,,
106920,note_on,120,0,1,,,,,,,,,0,,,70,0
106920,control_change,0,0,3,,,,,,,,,2,64,0,,
107040,note_on,120,0,3,,,,,,,,,2,,,56,0
107040,note_on,0,0,3,,,,,,,,,2,,,51,36
107040,control_change,0,0,3,,,,,,,,,2,64,127,,
107040,note_on,0,0,3,,,,,,,,,2,,,46,0
107040,note_on,120,0,1,,,,,,,,,0,,,62,0
107040,control_change,0,0,1,,,,,,,,,0,64,127,,
107040,note_on,0,0,1,,,,,,,,,0,,,79,36
107046,note_on,6,0,3,,,,,,,,,2,,,51,0
107100,note_on,0,0,3,,,,,,,,,2,,,67,36
107100,note_on,54,0,3,,,,,,,,,2,,,58,36
107106,note_on,0,0,3,,,,,,,,,2,,,58,0
107106,note_on,6,0,3,,,,,,,,,2,,,67,0
107160,note_on,54,0,3,,,,,,,,,2,,,63,36
107160,note_on,0,0,3,,,,,,,,,2,,,67,36
107166,note_on,0,0,3,,,,,,,,,2,,,63,0
107166,note_on,6,0,3,,,,,,,,,2,,,67,0
107190,note_on,150,0,1,,,,,,,,,0,,,79,36
107205,note_on,0,0,1,,,,,,,,,0,,,80,36
107205,note_on,15,0,1,,,,,,,,,0,,,79,0
107220,note_on,0,0,1,,,,,,,,,0,,,79,0
107220,note_on,15,0,1,,,,,,,,,0,,,80,0
107220,note_on,0,0,3,,,,,,,,,2,,,67,36
107220,note_on,54,0,3,,,,,,,,,2,,,58,36
107220,note_on,0,0,1,,,,,,,,,0,,,79,36
107226,note_on,0,0,3,,,,,,,,,2,,,58,0
107226,note_on,6,0,3,,,,,,,,,2,,,67,0
107280,note_on,54,0,3,,,,,,,,,2,,,63,36
107280,note_on,0,0,1,,,,,,,,,0,,,77,36
107280,note_on,60,0,1,,,,,,,,,0,,,79,0
107280,note_on,0,0,3,,,,,,,,,2,,,67,36
107286,note_on,0,0,3,,,,,,,,,2,,,63,0
107286,note_on,6,0,3,,,,,,,,,2,,,67,0
107340,note_on,60,0,1,,,,,,,,,0,,,77,0
107340,control_change,0,0,1,,,,,,,,,0,64,0,,
107340,note_on,0,0,1,,,,,,,,,0,,,75,36
107340,control_change,54,0,3,,,,,,,,,2,64,0,,
107340,note_on,0,0,3,,,,,,,,,2,,,58,36
107340,note_on,0,0,3,,,,,,,,,2,,,67,36
107346,note_on,6,0,3,,,,,,,,,2,,,67,0
107346,note_on,0,0,3,,,,,,,,,2,,,58,0
107385,control_change,45,0,1,,,,,,,,,0,64,127,,
107385,note_on,0,0,1,,,,,,,,,0,,,75,36
107400,note_on,15,0,1,,,,,,,,,0,,,75,0
107400,control_change,54,0,3,,,,,,,,,2,64,127,,
107400,note_on,0,0,1,,,,,,,,,0,,,82,36
107400,note_on,0,0,1,,,,,,,,,0,,,75,0
107400,note_on,0,0,3,,,,,,,,,2,,,46,36
107406,note_on,6,0,3,,,,,,,,,2,,,46,0
107460,note_on,0,0,1,,,,,,,,,0,,,81,36
107460,note_on,60,0,1,,,,,,,,,0,,,82,0
107460,note_on,0,0,3,,,,,,,,,2,,,65,36
107460,note_on,54,0,3,,,,,,,,,2,,,58,36
107466,note_on,6,0,3,,,,,,,,,2,,,65,0
107466,note_on,0,0,3,,,,,,,,,2,,,58,0
107520,note_on,54,0,3,,,,,,,,,2,,,62,36
107520,note_on,0,0,3,,,,,,,,,2,,,65,36
107520,note_on,0,0,1,,,,,,,,,0,,,80,36
107520,control_change,0,0,1,,,,,,,,,0,64,0,,
107520,note_on,60,0,1,,,,,,,,,0,,,81,0
107526,note_on,6,0,3,,,,,,,,,2,,,65,0
107526,note_on,0,0,3,,,,,,,,,2,,,62,0
107580,note_on,54,0,3,,,,,,,,,2,,,58,36
107580,note_on,0,0,3,,,,,,,,,2,,,65,36
107586,note_on,6,0,3,,,,,,,,,2,,,65,0
107586,note_on,0,0,3,,,,,,,,,2,,,58,0
107640,note_on,0,0,3,,,,,,,,,2,,,65,36
107640,note_on,54,0,3,,,,,,,,,2,,,62,36
107640,note_on,120,0,1,,,,,,,,,0,,,80,0
107646,note_on,0,0,3,,,,,,,,,2,,,62,0
107646,note_on,6,0,3,,,,,,,,,2,,,65,0
107700,note_on,0,0,3,,,,,,,,,2,,,58,36
107700,note_on,0,0,3,,,,,,,,,2,,,65,36
107700,control_change,54,0,3,,,,,,,,,2,64,0,,
107706,note_on,6,0,3,,,,,,,,,2,,,65,0
107706,note_on,0,0,3,,,,,,,,,2,,,58,0
107760,note_on,0,0,1,,,,,,,,,0,,,80,36
107760,control_change,120,0,1,,,,,,,,,0,64,127,,
107760,control_change,54,0,3,,,,,,,,,2,64,127,,
107760,note_on,0,0,3,,,,,,,,,2,,,46,36
107766,note_on,6,0,3,,,,,,,,,2,,,46,0
107820,note_on,54,0,3,,,,,,,,,2,,,58,36
107820,note_on,0,0,3,,,,,,,,,2,,,65,36
107826,note_on,6,0,3,,,,,,,,,2,,,65,0
107826,note_on,0,0,3,,,,,,,,,2,,,58,0
107880,note_on,54,0,3,,,,,,,,,2,,,62,36
107880,note_on,0,0,3,,,,,,,,,2,,,65,36
107886,note_on,0,0,3,,,,,,,,,2,,,62,0
107886,note_on,6,0,3,,,,,,,,,2,,,65,0
107910,note_on,150,0,1,,,,,,,,,0,,,80,36
107925,note_on,0,0,1,,,,,,,,,0,,,82,36
107925,note_on,15,0,1,,,,,,,,,0,,,80,0
107940,note_on,54,0,3,,,,,,,,,2,,,58,36
107940,note_on,0,0,3,,,,,,,,,2,,,65,36
107940,note_on,0,0,1,,,,,,,,,0,,,80,36
107940,note_on,0,0,1,,,,,,,,,0,,,80,0
107940,note_on,15,0,1,,,,,,,,,0,,,82,0
107946,note_on,6,0,3,,,,,,,,,2,,,65,0
107946,note_on,0,0,3,,,,,,,,,2,,,58,0
108000,note_on,54,0,3,,,,,,,,,2,,,62,36
108000,note_on,60,0,1,,,,,,,,,0,,,80,0
108000,note_on,0,0,3,,,,,,,,,2,,,67,36
108000,note_on,0,0,1,,,,,,,,,0,,,79,36
108006,note_on,0,0,3,,,,,,,,,2,,,62,0
108006,note_on,6,0,3,,,,,,,,,2,,,67,0
108060,control_change,0,0,1,,,,,,,,,0,64,0,,
108060,note_on,0,0,3,,,,,,,,,2,,,68,36
108060,note_on,0,0,3,,,,,,,,,2,,,58,36
108060,control_change,54,0,3,,,,,,,,,2,64,0,,
108060,note_on,0,0,1,,,,,,,,,0,,,77,36
108060,note_on,60,0,1,,,,,,,,,0,,,79,0
108066,note_on,6,0,3,,,,,,,,,2,,,68,0
108066,note_on,0,0,3,,,,,,,,,2,,,58,0
108105,note_on,45,0,1,,,,,,,,,0,,,77,36
108120,control_change,0,0,1,,,,,,,,,0,64,127,,
108120,note_on,0,0,1,,,,,,,,,0,,,84,36
108120,note_on,15,0,1,,,,,,,,,0,,,77,0
108120,control_change,54,0,3,,,,,,,,,2,64,127,,
108120,control_change,0,0,3,,,,,,,,,2,64,127,,
108120,note_on,0,0,3,,,,,,,,,2,,,51,36
108120,note_on,0,0,1,,,,,,,,,0,,,77,0
108126,note_on,6,0,3,,,,,,,,,2,,,51,0
108180,note_on,54,0,3,,,,,,,,,2,,,62,36
108180,note_on,0,0,3,,,,,,,,,2,,,67,36
108180,note_on,0,0,1,,,,,,,,,0,,,83,36
108180,note_on,60,0,1,,,,,,,,,0,,,84,0
108186,note_on,0,0,3,,,,,,,,,2,,,62,0
108186,note_on,6,0,3,,,,,,,,,2,,,67,0
108240,note_on,0,0,3,,,,,,,,,2,,,67,36
108240,note_on,54,0,3,,,,,,,,,2,,,63,36
108240,control_change,0,0,1,,,,,,,,,0,64,0,,
108240,note_on,0,0,1,,,,,,,,,0,,,82,36
108240,note_on,60,0,1,,,,,,,,,0,,,83,0
108246,note_on,0,0,3,,,,,,,,,2,,,63,0
108246,note_on,6,0,3,,,,,,,,,2,,,67,0
108300,note_on,0,0,3,,,,,,,,,2,,,67,36
108300,note_on,54,0,3,,,,,,,,,2,,,58,36
108306,note_on,0,0,3,,,,,,,,,2,,,58,0
108306,note_on,6,0,3,,,,,,,,,2,,,67,0
108360,note_on,120,0,1,,,,,,,,,0,,,82,0
108360,note_on,0,0,3,,,,,,,,,2,,,67,36
108360,note_on,54,0,3,,,,,,,,,2,,,63,36
108366,note_on,6,0,3,,,,,,,,,2,,,67,0
108366,note_on,0,0,3,,,,,,,,,2,,,63,0
108420,note_on,0,0,3,,,,,,,,,2,,,67,36
108420,note_on,0,0,3,,,,,,,,,2,,,58,36
108420,control_change,54,0,3,,,,,,,,,2,64,0,,
108426,note_on,0,0,3,,,,,,,,,2,,,58,0
108426,note_on,6,0,3,,,,,,,,,2,,,67,0
108480,note_on,0,0,1,,,,,,,,,0,,,87,49
108480,note_on,0,0,3,,,,,,,,,2,,,55,36
108480,control_change,54,0,3,,,,,,,,,2,64,127,,
108480,control_change,120,0,1,,,,,,,,,0,64,127,,
108486,note_on,6,0,3,,,,,,,,,2,,,55,0
108540,note_on,0,0,3,,,,,,,,,2,,,70,36
108540,note_on,54,0,3,,,,,,,,,2,,,63,36
108546,note_on,0,0,3,,,,,,,,,2,,,63,0
108546,note_on,6,0,3,,,,,,,,,2,,,70,0
108600,note_on,54,0,3,,,,,,,,,2,,,70,36
108600,note_on,0,0,3,,,,,,,,,2,,,73,36
108606,note_on,0,0,3,,,,,,,,,2,,,70,0
108606,note_on,6,0,3,,,,,,,,,2,,,73,0
108660,note_on,180,0,1,,,,,,,,,0,,,87,0
108660,note_on,0,0,1,,,,,,,,,0,,,89,49
108660,note_on,54,0,3,,,,,,,,,2,,,63,36
108660,note_on,0,0,3,,,,,,,,,2,,,70,36
108666,note_on,6,0,3,,,,,,,,,2,,,70,0
108666,note_on,0,0,3,,,,,,,,,2,,,63,0
108690,note_on,0,0,1,,,,,,,,,0,,,87,49
108690,note_on,30,0,1,,,,,,,,,0,,,89,0
108720,note_on,0,0,1,,,,,,,,,0,,,86,49
108720,note_on,30,0,1,,,,,,,,,0,,,87,0
108720,note_on,0,0,3,,,,,,,,,2,,,73,36
108720,note_on,54,0,3,,,,,,,,,2,,,70,36
108726,note_on,0,0,3,,,,,,,,,2,,,70,0
108726,note_on,6,0,3,,,,,,,,,2,,,73,0
108780,note_on,0,0,3,,,,,,,,,2,,,70,36
108780,note_on,0,0,3,,,,,,,,,2,,,63,36
108780,note_on,60,0,1,,,,,,,,,0,,,86,0
108780,control_change,0,0,1,,,,,,,,,0,64,0,,
108780,note_on,0,0,1,,,,,,,,,0,,,85,49
108780,control_change,54,0,3,,,,,,,,,2,64,0,,
108786,note_on,6,0,3,,,,,,,,,2,,,70,0
108786,note_on,0,0,3,,,,,,,,,2,,,63,0
108840,note_on,60,0,1,,,,,,,,,0,,,85,0
108840,control_change,0,0,1,,,,,,,,,0,64,127,,
108840,note_on,0,0,3,,,,,,,,,2,,,56,36
108840,control_change,54,0,3,,,,,,,,,2,64,127,,
108840,note_on,0,0,1,,,,,,,,,0,,,83,49
108846,note_on,6,0,3,,,,,,,,,2,,,56,0
108900,note_on,0,0,3,,,,,,,,,2,,,68,36
108900,note_on,54,0,3,,,,,,,,,2,,,63,36
108906,note_on,6,0,3,,,,,,,,,2,,,68,0
108906,note_on,0,0,3,,,,,,,,,2,,,63,0
108930,note_on,0,0,1,,,,,,,,,0,,,84,49
108930,note_on,90,0,1,,,,,,,,,0,,,83,0
108960,note_on,54,0,3,,,,,,,,,2,,,68,36
108960,note_on,0,0,1,,,,,,,,,0,,,86,49
108960,note_on,30,0,1,,,,,,,,,0,,,84,0
108960,note_on,0,0,3,,,,,,,,,2,,,72,36
108966,note_on,6,0,3,,,,,,,,,2,,,72,0
108966,note_on,0,0,3,,,,,,,,,2,,,68,0
109020,note_on,0,0,3,,,,,,,,,2,,,68,36
109020,note_on,54,0,3,,,,,,,,,2,,,64,36
109026,note_on,0,0,3,,,,,,,,,2,,,64,0
109026,note_on,6,0,3,,,,,,,,,2,,,68,0
109050,note_on,0,0,1,,,,,,,,,0,,,84,49
109050,note_on,90,0,1,,,,,,,,,0,,,86,0
109080,note_on,0,0,3,,,,,,,,,2,,,68,36
109080,note_on,30,0,1,,,,,,,,,0,,,84,0
109080,note_on,0,0,1,,,,,,,,,0,,,82,36
109080,note_on,54,0,3,,,,,,,,,2,,,65,36
109086,note_on,0,0,3,,,,,,,,,2,,,65,0
109086,note_on,6,0,3,,,,,,,,,2,,,68,0
109110,note_on,0,0,1,,,,,,,,,0,,,80,36
109110,note_on,30,0,1,,,,,,,,,0,,,82,0
109140,control_change,54,0,3,,,,,,,,,2,64,0,,
109140,note_on,0,0,3,,,,,,,,,2,,,68,36
109140,note_on,0,0,3,,,,,,,,,2,,,72,36
109140,note_on,0,0,1,,,,,,,,,0,,,79,36
109140,note_on,30,0,1,,,,,,,,,0,,,80,0
109146,note_on,6,0,3,,,,,,,,,2,,,72,0
109146,note_on,0,0,3,,,,,,,,,2,,,68,0
109170,control_change,0,0,1,,,,,,,,,0,64,0,,
109170,note_on,30,0,1,,,,,,,,,0,,,79,0
109170,note_on,0,0,1,,,,,,,,,0,,,77,36
109200,control_change,0,0,1,,,,,,,,,0,64,127,,
109200,note_on,30,0,1,,,,,,,,,0,,,77,0
109200,control_change,54,0,3,,,,,,,,,2,64,127,,
109200,note_on,0,0,3,,,,,,,,,2,,,58,36
109200,note_on,0,0,1,,,,,,,,,0,,,75,36
109206,note_on,6,0,3,,,,,,,,,2,,,58,0
109260,note_on,54,0,3,,,,,,,,,2,,,63,36
109260,note_on,0,0,3,,,,,,,,,2,,,67,36
109266,note_on,6,0,3,,,,,,,,,2,,,67,0
109266,note_on,0,0,3,,,,,,,,,2,,,63,0
109290,note_on,90,0,1,,,,,,,,,0,,,75,0
109290,note_on,0,0,1,,,,,,,,,0,,,77,36
109320,note_on,0,0,1,,,,,,,,,0,,,79,36
109320,note_on,30,0,1,,,,,,,,,0,,,77,0
109320,note_on,54,0,3,,,,,,,,,2,,,67,36
109320,note_on,0,0,3,,,,,,,,,2,,,70,36
109326,note_on,0,0,3,,,,,,,,,2,,,67,0
109326,note_on,6,0,3,,,,,,,,,2,,,70,0
109380,note_on,54,0,3,,,,,,,,,2,,,63,36
109380,note_on,0,0,3,,,,,,,,,2,,,67,36
109386,note_on,0,0,3,,,,,,,,,2,,,63,0
109386,note_on,6,0,3,,,,,,,,,2,,,67,0
109410,note_on,90,0,1,,,,,,,,,0,,,79,0
109410,note_on,0,0,1,,,,,,,,,0,,,80,36
109440,note_on,30,0,1,,,,,,,,,0,,,80,0
109440,note_on,0,0,3,,,,,,,,,2,,,70,36
109440,note_on,0,0,3,,,,,,,,,2,,,68,36
109440,control_change,54,0,3,,,,,,,,,2,64,0,,
109440,control_change,0,0,1,,,,,,,,,0,64,0,,
109440,note_on,0,0,1,,,,,,,,,0,,,81,36
109446,note_on,0,0,3,,,,,,,,,2,,,68,0
109446,note_on,6,0,3,,,,,,,,,2,,,70,0
109500,note_on,0,0,3,,,,,,,,,2,,,68,36
109500,note_on,54,0,3,,,,,,,,,2,,,62,36
109506,note_on,6,0,3,,,,,,,,,2,,,68,0
109506,note_on,0,0,3,,,,,,,,,2,,,62,0
109530,note_on,90,0,1,,,,,,,,,0,,,81,0
109530,note_on,0,0,1,,,,,,,,,0,,,82,36
109560,note_on,30,0,1,,,,,,,,,0,,,82,0
109560,note_on,0,0,1,,,,,,,,,0,,,79,36
109560,note_on,0,0,3,,,,,,,,,2,,,51,36
109560,control_change,54,0,3,,,,,,,,,2,64,127,,
109560,control_change,0,0,1,,,,,,,,,0,64,127,,
109566,note_on,6,0,3,,,,,,,,,2,,,51,0
109620,note_on,54,0,3,,,,,,,,,2,,,63,36
109620,note_on,0,0,3,,,,,,,,,2,,,67,36
109626,note_on,0,0,3,,,,,,,,,2,,,63,0
109626,note_on,6,0,3,,,,,,,,,2,,,67,0
109680,note_on,120,0,1,,,,,,,,,0,,,79,0
109680,note_on,0,0,3,,,,,,,,,2,,,70,36
109680,note_on,54,0,3,,,,,,,,,2,,,67,36
109686,note_on,6,0,3,,,,,,,,,2,,,70,0
109686,note_on,0,0,3,,,,,,,,,2,,,67,0
109740,note_on,60,0,1,,,,,,,,,0,,,82,36
109740,note_on,54,0,3,,,,,,,,,2,,,58,36
109740,note_on,0,0,3,,,,,,,,,2,,,67,36
109746,note_on,6,0,3,,,,,,,,,2,,,67,0
109746,note_on,0,0,3,,,,,,,,,2,,,58,0
109770,note_on,0,0,1,,,,,,,,,0,,,81,36
109770,note_on,30,0,1,,,,,,,,,0,,,82,0
109800,note_on,0,0,3,,,,,,,,,2,,,60,36
109800,note_on,0,0,3,,,,,,,,,2,,,66,36
109800,note_on,0,0,1,,,,,,,,,0,,,84,36
109800,control_change,0,0,1,,,,,,,,,0,64,0,,
109800,note_on,30,0,1,,,,,,,,,0,,,81,0
109800,control_change,54,0,3,,,,,,,,,2,64,0,,
109806,note_on,0,0,3,,,,,,,,,2,,,60,0
109806,note_on,6,0,3,,,,,,,,,2,,,66,0
109830,note_on,0,0,1,,,,,,,,,0,,,82,36
109830,note_on,30,0,1,,,,,,,,,0,,,84,0
109860,note_on,0,0,1,,,,,,,,,0,,,81,36
109860,note_on,54,0,3,,,,,,,,,2,,,62,36
109860,note_on,0,0,3,,,,,,,,,2,,,65,36
109860,note_on,30,0,1,,,,,,,,,0,,,82,0
109866,note_on,0,0,3,,,,,,,,,2,,,62,0
109866,note_on,6,0,3,,,,,,,,,2,,,65,0
109890,note_on,30,0,1,,,,,,,,,0,,,81,0
109890,note_on,0,0,1,,,,,,,,,0,,,80,36
109920,control_change,0,0,1,,,,,,,,,0,64,127,,
109920,note_on,0,0,1,,,,,,,,,0,,,79,36
109920,note_on,30,0,1,,,,,,,,,0,,,80,0
109920,note_on,0,0,3,,,,,,,,,2,,,51,36
109920,control_change,54,0,3,,,,,,,,,2,64,127,,
109926,note_on,6,0,3,,,,,,,,,2,,,51,0
109980,note_on,0,0,3,,,,,,,,,2,,,67,36
109980,note_on,54,0,3,,,,,,,,,2,,,58,36
109986,note_on,6,0,3,,,,,,,,,2,,,67,0
109986,note_on,0,0,3,,,,,,,,,2,,,58,0
110040,note_on,0,0,3,,,,,,,,,2,,,67,36
110040,note_on,54,0,3,,,,,,,,,2,,,63,36
110046,note_on,6,0,3,,,,,,,,,2,,,67,0
110046,note_on,0,0,3,,,,,,,,,2,,,63,0
110070,note_on,150,0,1,,,,,,,,,0,,,79,36
110085,note_on,15,0,1,,,,,,,,,0,,,79,0
110085,note_on,0,0,1,,,,,,,,,0,,,80,36
110100,note_on,0,0,3,,,,,,,,,2,,,67,36
110100,note_on,15,0,1,,,,,,,,,0,,,80,0
110100,note_on,0,0,1,,,,,,,,,0,,,79,36
110100,note_on,0,0,1,,,,,,,,,0,,,79,0
110100,note_on,54,0,3,,,,,,,,,2,,,58,36
110106,note_on,6,0,3,,,,,,,,,2,,,67,0
110106,note_on,0,0,3,,,,,,,,,2,,,58,0
110160,note_on,0,0,1,,,,,,,,,0,,,77,36
110160,note_on,0,0,3,,,,,,,,,2,,,67,36
110160,note_on,54,0,3,,,,,,,,,2,,,63,36
110160,note_on,60,0,1,,,,,,,,,0,,,79,0
110166,note_on,0,0,3,,,,,,,,,2,,,63,0
110166,note_on,6,0,3,,,,,,,,,2,,,67,0
110220,note_on,0,0,3,,,,,,,,,2,,,67,36
110220,control_change,0,0,1,,,,,,,,,0,64,0,,
110220,note_on,60,0,1,,,,,,,,,0,,,77,0
110220,note_on,0,0,3,,,,,,,,,2,,,58,36
110220,control_change,54,0,3,,,,,,,,,2,64,0,,
110220,note_on,0,0,1,,,,,,,,,0,,,75,36
110226,note_on,0,0,3,,,,,,,,,2,,,58,0
110226,note_on,6,0,3,,,,,,,,,2,,,67,0
110265,control_change,45,0,1,,,,,,,,,0,64,127,,
110265,note_on,0,0,1,,,,,,,,,0,,,75,36
110280,note_on,15,0,1,,,,,,,,,0,,,75,0
110280,note_on,0,0,1,,,,,,,,,0,,,82,36
110280,control_change,54,0,3,,,,,,,,,2,64,127,,
110280,note_on,0,0,1,,,,,,,,,0,,,75,0
110280,note_on,0,0,3,,,,,,,,,2,,,46,36
110286,note_on,6,0,3,,,,,,,,,2,,,46,0
110340,note_on,54,0,3,,,,,,,,,2,,,58,36
110340,note_on,0,0,3,,,,,,,,,2,,,65,36
110340,note_on,0,0,1,,,,,,,,,0,,,81,36
110340,note_on,60,0,1,,,,,,,,,0,,,82,0
110346,note_on,6,0,3,,,,,,,,,2,,,65,0
110346,note_on,0,0,3,,,,,,,,,2,,,58,0
110400,note_on,0,0,1,,,,,,,,,0,,,80,36
110400,control_change,0,0,1,,,,,,,,,0,64,0,,
110400,note_on,54,0,3,,,,,,,,,2,,,62,36
110400,note_on,0,0,3,,,,,,,,,2,,,65,36
110400,note_on,60,0,1,,,,,,,,,0,,,81,0
110406,note_on,6,0,3,,,,,,,,,2,,,65,0
110406,note_on,0,0,3,,,,,,,,,2,,,62,0
110460,note_on,54,0,3,,,,,,,,,2,,,58,36
110460,note_on,0,0,3,,,,,,,,,2,,,65,36
110466,note_on,6,0,3,,,,,,,,,2,,,65,0
110466,note_on,0,0,3,,,,,,,,,2,,,58,0
110520,note_on,120,0,1,,,,,,,,,0,,,80,0
110520,note_on,54,0,3,,,,,,,,,2,,,62,36
110520,note_on,0,0,3,,,,,,,,,2,,,65,36
110526,note_on,0,0,3,,,,,,,,,2,,,62,0
110526,note_on,6,0,3,,,,,,,,,2,,,65,0
110580,control_change,54,0,3,,,,,,,,,2,64,0,,
110580,note_on,0,0,3,,,,,,,,,2,,,58,36
110580,note_on,0,0,3,,,,,,,,,2,,,65,36
110586,note_on,6,0,3,,,,,,,,,2,,,65,0
110586,note_on,0,0,3,,,,,,,,,2,,,58,0
110640,control_change,54,0,3,,,,,,,,,2,64,127,,
110640,control_change,120,0,1,,,,,,,,,0,64,127,,
110640,note_on,0,0,3,,,,,,,,,2,,,46,36
110640,note_on,0,0,1,,,,,,,,,0,,,80,36
110646,note_on,6,0,3,,,,,,,,,2,,,46,0
110700,note_on,54,0,3,,,,,,,,,2,,,58,36
110700,note_on,0,0,3,,,,,,,,,2,,,65,36
110706,note_on,6,0,3,,,,,,,,,2,,,65,0
110706,note_on,0,0,3,,,,,,,,,2,,,58,0
110760,note_on,0,0,3,,,,,,,,,2,,,65,36
110760,note_on,54,0,3,,,,,,,,,2,,,62,36
110766,note_on,0,0,3,,,,,,,,,2,,,62,0
110766,note_on,6,0,3,,,,,,,,,2,,,65,0
110790,note_on,150,0,1,,,,,,,,,0,,,80,36
110805,note_on,15,0,1,,,,,,,,,0,,,80,0
110805,note_on,0,0,1,,,,,,,,,0,,,82,36
110820,note_on,15,0,1,,,,,,,,,0,,,82,0
110820,note_on,0,0,1,,,,,,,,,0,,,80,0
110820,note_on,0,0,1,,,,,,,,,0,,,80,36
110820,note_on,0,0,3,,,,,,,,,2,,,65,36
110820,note_on,54,0,3,,,,,,,,,2,,,58,36
110826,note_on,6,0,3,,,,,,,,,2,,,65,0
110826,note_on,0,0,3,,,,,,,,,2,,,58,0
110880,note_on,0,0,1,,,,,,,,,0,,,79,36
110880,note_on,0,0,3,,,,,,,,,2,,,67,36
110880,note_on,54,0,3,,,,,,,,,2,,,62,36
110880,note_on,60,0,1,,,,,,,,,0,,,80,0
110886,note_on,0,0,3,,,,,,,,,2,,,62,0
110886,note_on,6,0,3,,,,,,,,,2,,,67,0
110940,note_on,0,0,3,,,,,,,,,2,,,58,36
110940,control_change,54,0,3,,,,,,,,,2,64,0,,
110940,note_on,0,0,3,,,,,,,,,2,,,68,36
110940,control_change,0,0,1,,,,,,,,,0,64,0,,
110940,note_on,0,0,1,,,,,,,,,0,,,77,36
110940,note_on,60,0,1,,,,,,,,,0,,,79,0
110946,note_on,6,0,3,,,,,,,,,2,,,68,0
110946,note_on,0,0,3,,,,,,,,,2,,,58,0
110985,note_on,45,0,1,,,,,,,,,0,,,77,36
111000,control_change,0,0,1,,,,,,,,,0,64,127,,
111000,note_on,0,0,1,,,,,,,,,0,,,84,36
111000,note_on,15,0,1,,,,,,,,,0,,,77,0
111000,control_change,54,0,3,,,,,,,,,2,64,127,,
111000,control_change,0,0,3,,,,,,,,,2,64,127,,
111000,note_on,0,0,1,,,,,,,,,0,,,77,0
111000,note_on,0,0,3,,,,,,,,,2,,,51,36
111006,note_on,6,0,3,,,,,,,,,2,,,51,0
111060,note_on,60,0,1,,,,,,,,,0,,,84,0
111060,note_on,0,0,1,,,,,,,,,0,,,83,36
111060,note_on,0,0,3,,,,,,,,,2,,,67,36
111060,note_on,54,0,3,,,,,,,,,2,,,62,36
111066,note_on,6,0,3,,,,,,,,,2,,,67,0
111066,note_on,0,0,3,,,,,,,,,2,,,62,0
111120,note_on,0,0,1,,,,,,,,,0,,,82,36
111120,control_change,0,0,1,,,,,,,,,0,64,0,,
111120,note_on,60,0,1,,,,,,,,,0,,,83,0
111120,note_on,54,0,3,,,,,,,,,2,,,63,36
111120,note_on,0,0,3,,,,,,,,,2,,,67,36
111126,note_on,6,0,3,,,,,,,,,2,,,67,0
111126,note_on,0,0,3,,,,,,,,,2,,,63,0
111180,note_on,54,0,3,,,,,,,,,2,,,58,36
111180,note_on,0,0,3,,,,,,,,,2,,,67,36
111186,note_on,0,0,3,,,,,,,,,2,,,58,0
111186,note_on,6,0,3,,,,,,,,,2,,,67,0
111240,note_on,0,0,3,,,,,,,,,2,,,67,36
111240,note_on,54,0,3,,,,,,,,,2,,,63,36
111240,note_on,120,0,1,,,,,,,,,0,,,82,0
111246,note_on,0,0,3,,,,,,,,,2,,,63,0
111246,note_on,6,0,3,,,,,,,,,2,,,67,0
111300,note_on,0,0,3,,,,,,,,,2,,,67,36
111300,note_on,0,0,3,,,,,,,,,2,,,58,36
111300,control_change,54,0,3,,,,,,,,,2,64,0,,
111306,note_on,0,0,3,,,,,,,,,2,,,58,0
111306,note_on,6,0,3,,,,,,,,,2,,,67,0
111360,control_change,54,0,3,,,,,,,,,2,64,127,,
111360,note_on,0,0,3,,,,,,,,,2,,,55,36
111360,control_change,120,0,1,,,,,,,,,0,64,127,,
111360,note_on,0,0,1,,,,,,,,,0,,,87,49
111366,note_on,6,0,3,,,,,,,,,2,,,55,0
111420,note_on,54,0,3,,,,,,,,,2,,,63,36
111420,note_on,0,0,3,,,,,,,,,2,,,70,36
111426,note_on,6,0,3,,,,,,,,,2,,,70,0
111426,note_on,0,0,3,,,,,,,,,2,,,63,0
111480,note_on,0,0,3,,,,,,,,,2,,,73,36
111480,note_on,54,0,3,,,,,,,,,2,,,70,36
111486,note_on,0,0,3,,,,,,,,,2,,,70,0
111486,note_on,6,0,3,,,,,,,,,2,,,73,0
111540,note_on,0,0,1,,,,,,,,,0,,,89,49
111540,note_on,180,0,1,,,,,,,,,0,,,87,0
111540,note_on,54,0,3,,,,,,,,,2,,,63,36
111540,note_on,0,0,3,,,,,,,,,2,,,70,36
111546,note_on,6,0,3,,,,,,,,,2,,,70,0
111546,note_on,0,0,3,,,,,,,,,2,,,63,0
111570,note_on,0,0,1,,,,,,,,,0,,,87,49
111570,note_on,30,0,1,,,,,,,,,0,,,89,0
111600,note_on,0,0,3,,,,,,,,,2,,,73,36
111600,note_on,54,0,3,,,,,,,,,2,,,70,36
111600,note_on,30,0,1,,,,,,,,,0,,,87,0
111600,note_on,0,0,1,,,,,,,,,0,,,86,49
111606,note_on,0,0,3,,,,,,,,,2,,,70,0
111606,note_on,6,0,3,,,,,,,,,2,,,73,0
111660,control_change,54,0,3,,,,,,,,,2,64,0,,
111660,control_change,0,0,1,,,,,,,,,0,64,0,,
111660,note_on,0,0,3,,,,,,,,,2,,,70,36
111660,note_on,0,0,3,,,,,,,,,2,,,63,36
111660,note_on,60,0,1,,,,,,,,,0,,,86,0
111660,note_on,0,0,1,,,,,,,,,0,,,85,49
111666,note_on,0,0,3,,,,,,,,,2,,,63,0
111666,note_on,6,0,3,,,,,,,,,2,,,70,0
111720,note_on,0,0,1,,,,,,,,,0,,,83,49
111720,control_change,0,0,1,,,,,,,,,0,64,127,,
111720,note_on,0,0,3,,,,,,,,,2,,,56,36
111720,control_change,54,0,3,,,,,,,,,2,64,127,,
111720,note_on,60,0,1,,,,,,,,,0,,,85,0
111726,note_on,6,0,3,,,,,,,,,2,,,56,0
111780,note_on,0,0,3,,,,,,,,,2,,,68,36
111780,note_on,54,0,3,,,,,,,,,2,,,63,36
111786,note_on,6,0,3,,,,,,,,,2,,,68,0
111786,note_on,0,0,3,,,,,,,,,2,,,63,0
111810,note_on,0,0,1,,,,,,,,,0,,,84,49
111810,note_on,90,0,1,,,,,,,,,0,,,83,0
111840,note_on,30,0,1,,,,,,,,,0,,,84,0
111840,note_on,54,0,3,,,,,,,,,2,,,68,36
111840,note_on,0,0,3,,,,,,,,,2,,,72,36
111840,note_on,0,0,1,,,,,,,,,0,,,86,49
111846,note_on,6,0,3,,,,,,,,,2,,,72,0
111846,note_on,0,0,3,,,,,,,,,2,,,68,0
111900,note_on,54,0,3,,,,,,,,,2,,,64,36
111900,note_on,0,0,3,,,,,,,,,2,,,68,36
111906,note_on,0,0,3,,,,,,,,,2,,,64,0
111906,note_on,6,0,3,,,,,,,,,2,,,68,0
111930,note_on,90,0,1,,,,,,,,,0,,,86,0
111930,note_on,0,0,1,,,,,,,,,0,,,84,49
111960,note_on,30,0,1,,,,,,,,,0,,,84,0
111960,note_on,0,0,1,,,,,,,,,0,,,82,36
111960,note_on,54,0,3,,,,,,,,,2,,,65,36
111960,note_on,0,0,3,,,,,,,,,2,,,68,36
111966,note_on,6,0,3,,,,,,,,,2,,,68,0
111966,note_on,0,0,3,,,,,,,,,2,,,65,0
111990,note_on,30,0,1,,,,,,,,,0,,,82,0
111990,note_on,0,0,1,,,,,,,,,0,,,80,36
112020,note_on,30,0,1,,,,,,,,,0,,,80,0
112020,note_on,0,0,1,,,,,,,,,0,,,79,36
112020,control_change,54,0,3,,,,,,,,,2,64,0,,
112020,note_on,0,0,3,,,,,,,,,2,,,68,36
112020,note_on,0,0,3,,,,,,,,,2,,,72,36
112026,note_on,6,0,3,,,,,,,,,2,,,72,0
112026,note_on,0,0,3,,,,,,,,,2,,,68,0
112050,note_on,30,0,1,,,,,,,,,0,,,79,0
112050,control_change,0,0,1,,,,,,,,,0,64,0,,
112050,note_on,0,0,1,,,,,,,,,0,,,77,36
112080,control_change,54,0,3,,,,,,,,,2,64,127,,
112080,note_on,0,0,3,,,,,,,,,2,,,58,36
112080,note_on,0,0,1,,,,,,,,,0,,,75,36
112080,control_change,0,0,1,,,,,,,,,0,64,127,,
112080,note_on,30,0,1,,,,,,,,,0,,,77,0
112086,note_on,6,0,3,,,,,,,,,2,,,58,0
112140,note_on,54,0,3,,,,,,,,,2,,,63,36
112140,note_on,0,0,3,,,,,,,,,2,,,67,36
112146,note_on,6,0,3,,,,,,,,,2,,,67,0
112146,note_on,0,0,3,,,,,,,,,2,,,63,0
112170,note_on,0,0,1,,,,,,,,,0,,,77,36
112170,note_on,90,0,1,,,,,,,,,0,,,75,0
112200,note_on,54,0,3,,,,,,,,,2,,,67,36
112200,note_on,0,0,1,,,,,,,,,0,,,79,36
112200,note_on,0,0,3,,,,,,,,,2,,,70,36
112200,note_on,30,0,1,,,,,,,,,0,,,77,0
112206,note_on,6,0,3,,,,,,,,,2,,,70,0
112206,note_on,0,0,3,,,,,,,,,2,,,67,0
112260,note_on,54,0,3,,,,,,,,,2,,,63,36
112260,note_on,0,0,3,,,,,,,,,2,,,67,36
112266,note_on,6,0,3,,,,,,,,,2,,,67,0
112266,note_on,0,0,3,,,,,,,,,2,,,63,0
112290,note_on,0,0,1,,,,,,,,,0,,,80,36
112290,note_on,90,0,1,,,,,,,,,0,,,79,0
112320,note_on,0,0,3,,,,,,,,,2,,,68,36
112320,control_change,54,0,3,,,,,,,,,2,64,0,,
112320,note_on,0,0,1,,,,,,,,,0,,,81,62
112320,control_change,0,0,1,,,,,,,,,0,64,0,,
112320,note_on,30,0,1,,,,,,,,,0,,,80,0
112320,note_on,0,0,3,,,,,,,,,2,,,70,36
112326,note_on,0,0,3,,,,,,,,,2,,,68,0
112326,note_on,6,0,3,,,,,,,,,2,,,70,0
112350,note_on,30,0,1,,,,,,,,,0,,,81,0
112350,note_on,0,0,1,,,,,,,,,0,,,82,36
112380,note_on,0,0,1,,,,,,,,,0,,,84,36
112380,note_on,54,0,3,,,,,,,,,2,,,62,36
112380,note_on,0,0,3,,,,,,,,,2,,,68,36
112380,note_on,30,0,1,,,,,,,,,0,,,82,0
112386,note_on,0,0,3,,,,,,,,,2,,,62,0
112386,note_on,6,0,3,,,,,,,,,2,,,68,0
112410,note_on,0,0,1,,,,,,,,,0,,,82,36
112410,note_on,30,0,1,,,,,,,,,0,,,84,0
112440,note_on,0,0,3,,,,,,,,,2,,,67,36
112440,note_on,54,0,3,,,,,,,,,2,,,63,36
112440,note_on,0,0,1,,,,,,,,,0,,,75,36
112440,note_on,30,0,1,,,,,,,,,0,,,82,0
112446,note_on,0,0,3,,,,,,,,,2,,,63,0
112446,note_on,6,0,1,,,,,,,,,0,,,75,0
112446,note_on,6,0,3,,,,,,,,,2,,,67,0
112500,control_change,54,0,1,,,,,,,,,0,64,127,,
112500,note_on,0,0,3,,,,,,,,,2,,,75,75
112500,control_change,54,0,3,,,,,,,,,2,64,127,,
112500,note_on,0,0,1,,,,,,,,,0,,,87,88
112530,note_on,0,0,1,,,,,,,,,0,,,89,88
112530,note_on,30,0,1,,,,,,,,,0,,,87,0
112530,note_on,30,0,3,,,,,,,,,2,,,75,0
112530,note_on,0,0,3,,,,,,,,,2,,,77,75
112560,note_on,0,0,1,,,,,,,,,0,,,91,88
112560,note_on,30,0,1,,,,,,,,,0,,,89,0
112560,note_on,30,0,3,,,,,,,,,2,,,77,0
112560,note_on,0,0,3,,,,,,,,,2,,,79,75
112590,note_on,0,0,1,,,,,,,,,0,,,89,88
112590,note_on,30,0,1,,,,,,,,,0,,,91,0
112590,note_on,30,0,3,,,,,,,,,2,,,79,0
112590,note_on,0,0,3,,,,,,,,,2,,,77,75
112620,note_on,0,0,3,,,,,,,,,2,,,75,75
112620,note_on,0,0,1,,,,,,,,,0,,,87,88
112620,note_on,30,0,1,,,,,,,,,0,,,89,0
112620,note_on,30,0,3,,,,,,,,,2,,,77,0
112650,note_on,30,0,1,,,,,,,,,0,,,87,0
112650,note_on,0,0,1,,,,,,,,,0,,,86,88
112650,note_on,0,0,3,,,,,,,,,2,,,74,75
112650,note_on,30,0,3,,,,,,,,,2,,,75,0
112680,note_on,30,0,3,,,,,,,,,2,,,74,0
112680,note_on,0,0,3,,,,,,,,,2,,,72,88
112680,note_on,30,0,1,,,,,,,,,0,,,86,0
112680,note_on,0,0,1,,,,,,,,,0,,,84,101
112710,note_on,30,0,3,,,,,,,,,2,,,72,0
112710,note_on,0,0,3,,,,,,,,,2,,,70,88
112710,note_on,30,0,1,,,,,,,,,0,,,84,0
112710,note_on,0,0,1,,,,,,,,,0,,,82,101
112740,note_on,30,0,3,,,,,,,,,2,,,70,0
112740,note_on,30,0,1,,,,,,,,,0,,,82,0
112740,note_on,0,0,3,,,,,,,,,2,,,68,88
112740,note_on,0,0,1,,,,,,,,,0,,,80,101
112770,note_on,30,0,1,,,,,,,,,0,,,80,0
112770,note_on,0,0,1,,,,,,,,,0,,,79,101
112770,note_on,30,0,3,,,,,,,,,2,,,68,0
112770,note_on,0,0,3,,,,,,,,,2,,,67,88
112800,note_on,0,0,1,,,,,,,,,0,,,77,101
112800,note_on,30,0,1,,,,,,,,,0,,,79,0
112800,note_on,0,0,3,,,,,,,,,2,,,65,88
112800,note_on,30,0,3,,,,,,,,,2,,,67,0
112830,note_on,0,0,1,,,,,,,,,0,,,75,101
112830,note_on,30,0,1,,,,,,,,,0,,,77,0
112830,note_on,0,0,3,,,,,,,,,2,,,63,88
112830,note_on,30,0,3,,,,,,,,,2,,,65,0
112860,note_on,0,0,3,,,,,,,,,2,,,62,88
112860,note_on,30,0,3,,,,,,,,,2,,,63,0
112860,note_on,0,0,1,,,,,,,,,0,,,74,101
112860,note_on,30,0,1,,,,,,,,,0,,,75,0
112890,note_on,0,0,1,,,,,,,,,0,,,72,101
112890,note_on,30,0,1,,,,,,,,,0,,,74,0
112890,note_on,0,0,3,,,,,,,,,2,,,60,88
112890,note_on,30,0,3,,,,,,,,,2,,,62,0
112920,note_on,30,0,3,,,,,,,,,2,,,60,0
112920,note_on,0,0,1,,,,,,,,,0,,,70,88
112920,note_on,0,0,3,,,,,,,,,2,,,58,75
112920,note_on,30,0,1,,,,,,,,,0,,,72,0
112950,note_on,0,0,3,,,,,,,,,2,,,56,75
112950,note_on,30,0,1,,,,,,,,,0,,,70,0
112950,note_on,0,0,1,,,,,,,,,0,,,68,88
112950,note_on,30,0,3,,,,,,,,,2,,,58,0
112980,note_on,30,0,3,,,,,,,,,2,,,56,0
112980,note_on,0,0,3,,,,,,,,,2,,,55,75
112980,note_on,30,0,1,,,,,,,,,0,,,68,0
112980,note_on,0,0,1,,,,,,,,,0,,,67,88
113010,note_on,0,0,3,,,,,,,,,2,,,53,75
113010,note_on,30,0,1,,,,,,,,,0,,,67,0
113010,note_on,0,0,1,,,,,,,,,0,,,65,88
113010,note_on,30,0,3,,,,,,,,,2,,,55,0
113040,note_on,0,0,1,,,,,,,,,0,,,63,88
113040,note_on,30,0,3,,,,,,,,,2,,,53,0
113040,note_on,0,0,3,,,,,,,,,2,,,51,75
113040,note_on,30,0,1,,,,,,,,,0,,,65,0
113070,note_on,30,0,1,,,,,,,,,0,,,63,0
113070,note_on,0,0,1,,,,,,,,,0,,,62,88
113070,note_on,30,0,3,,,,,,,,,2,,,51,0
113070,note_on,0,0,3,,,,,,,,,2,,,50,75
113100,note_on,30,0,1,,,,,,,,,0,,,62,0
113100,note_on,0,0,1,,,,,,,,,0,,,60,88
113100,note_on,30,0,3,,,,,,,,,2,,,50,0
113100,note_on,0,0,3,,,,,,,,,2,,,48,75
113130,note_on,30,0,1,,,,,,,,,0,,,60,0
113130,note_on,30,0,3,,,,,,,,,2,,,48,0
113130,control_change,0,0,3,,,,,,,,,2,64,0,,
113130,note_on,0,0,3,,,,,,,,,2,,,46,75
113130,note_on,0,0,1,,,,,,,,,0,,,58,88
113130,control_change,0,0,1,,,,,,,,,0,64,0,,
113160,note_on,0,0,1,,,,,,,,,0,,,57,88
113160,note_on,30,0,1,,,,,,,,,0,,,58,0
113160,note_on,30,0,3,,,,,,,,,2,,,46,0
113160,note_on,0,0,3,,,,,,,,,2,,,45,75
113220,note_on,60,0,3,,,,,,,,,2,,,45,0
113220,note_on,60,0,1,,,,,,,,,0,,,57,0
113280,note_on,0,0,3,,,,,,,,,2,,,57,101
113280,note_on,0,0,3,,,,,,,,,2,,,48,101
113280,note_on,60,0,3,,,,,,,,,2,,,45,101
113280,note_on,60,0,1,,,,,,,,,0,,,65,114
113280,note_on,0,0,1,,,,,,,,,0,,,72,114
113280,note_on,0,0,1,,,,,,,,,0,,,75,114
113280,note_on,0,0,1,,,,,,,,,0,,,77,114
113280,note_on,0,0,3,,,,,,,,,2,,,53,101
113400,note_on,120,0,3,,,,,,,,,2,,,57,0
113400,note_on,0,0,3,,,,,,,,,2,,,48,0
113400,note_on,0,0,3,,,,,,,,,2,,,45,0
113400,note_on,0,0,3,,,,,,,,,2,,,53,0
113400,note_on,0,0,1,,,,,,,,,0,,,65,0
113400,note_on,0,0,1,,,,,,,,,0,,,75,0
113400,note_on,0,0,1,,,,,,,,,0,,,72,0
113400,note_on,120,0,1,,,,,,,,,0,,,77,0
113520,control_change,120,0,1,,,,,,,,,0,64,127,,
113520,note_on,0,0,3,,,,,,,,,2,,,65,36
113520,note_on,0,0,3,,,,,,,,,2,,,63,36
113520,note_on,0,0,3,,,,,,,,,2,,,60,36
113520,control_change,120,0,3,,,,,,,,,2,64,127,,
113520,note_on,0,0,3,,,,,,,,,2,,,57,36
113580,note_on,60,0,1,,,,,,,,,0,,,77,49
113580,note_on,60,0,3,,,,,,,,,2,,,65,0
113580,note_on,0,0,3,,,,,,,,,2,,,57,0
113580,note_on,0,0,3,,,,,,,,,2,,,60,0
113580,note_on,0,0,3,,,,,,,,,2,,,63,0
113625,note_on,45,0,1,,,,,,,,,0,,,80,49
113640,note_on,0,0,1,,,,,,,,,0,,,78,49
113640,note_on,0,0,1,,,,,,,,,0,,,77,0
113640,note_on,15,0,1,,,,,,,,,0,,,80,0
113640,note_on,60,0,3,,,,,,,,,2,,,57,36
113640,note_on,0,0,3,,,,,,,,,2,,,60,36
113640,note_on,0,0,3,,,,,,,,,2,,,65,36
113640,note_on,0,0,3,,,,,,,,,2,,,63,36
113700,note_on,0,0,3,,,,,,,,,2,,,60,0
113700,note_on,60,0,3,,,,,,,,,2,,,65,0
113700,note_on,0,0,3,,,,,,,,,2,,,63,0
113700,note_on,0,0,3,,,,,,,,,2,,,57,0
113700,note_on,60,0,1,,,,,,,,,0,,,78,0
113700,note_on,0,0,1,,,,,,,,,0,,,77,49
113745,note_on,45,0,1,,,,,,,,,0,,,80,49
113760,note_on,60,0,3,,,,,,,,,2,,,57,36
113760,note_on,0,0,3,,,,,,,,,2,,,60,36
113760,note_on,0,0,3,,,,,,,,,2,,,65,36
113760,note_on,15,0,1,,,,,,,,,0,,,80,0
113760,note_on,0,0,3,,,,,,,,,2,,,63,36
113760,note_on,0,0,1,,,,,,,,,0,,,78,49
113760,note_on,0,0,1,,,,,,,,,0,,,77,0
113820,note_on,60,0,1,,,,,,,,,0,,,78,0
113820,control_change,0,0,1,,,,,,,,,0,64,0,,
113820,note_on,0,0,1,,,,,,,,,0,,,77,49
113820,note_on,60,0,3,,,,,,,,,2,,,65,0
113820,note_on,0,0,3,,,,,,,,,2,,,57,0
113820,note_on,0,0,3,,,,,,,,,2,,,60,0
113820,note_on,0,0,3,,,,,,,,,2,,,63,0
113820,control_change,0,0,3,,,,,,,,,2,64,0,,
113880,note_on,0,0,1,,,,,,,,,0,,,78,75
113880,control_change,0,0,1,,,,,,,,,0,64,127,,
113880,control_change,60,0,3,,,,,,,,,2,64,127,,
113880,note_on,0,0,3,,,,,,,,,2,,,58,36
113880,note_on,0,0,3,,,,,,,,,2,,,66,36
113880,note_on,60,0,1,,,,,,,,,0,,,77,0
113880,note_on,0,0,3,,,,,,,,,2,,,63,36
113940,note_on,60,0,3,,,,,,,,,2,,,66,0
113940,note_on,0,0,3,,,,,,,,,2,,,63,0
113940,note_on,0,0,3,,,,,,,,,2,,,58,0
113940,note_on,60,0,1,,,,,,,,,0,,,78,0
113940,note_on,0,0,1,,,,,,,,,0,,,82,49
114000,note_on,0,0,3,,,,,,,,,2,,,63,36
114000,note_on,0,0,3,,,,,,,,,2,,,66,36
114000,note_on,60,0,3,,,,,,,,,2,,,58,36
114000,note_on,60,0,1,,,,,,,,,0,,,82,0
114060,note_on,0,0,3,,,,,,,,,2,,,58,0
114060,note_on,0,0,3,,,,,,,,,2,,,63,0
114060,note_on,60,0,3,,,,,,,,,2,,,66,0
114060,note_on,60,0,1,,,,,,,,,0,,,82,62
114105,note_on,45,0,1,,,,,,,,,0,,,85,62
114120,note_on,15,0,1,,,,,,,,,0,,,85,0
114120,note_on,0,0,3,,,,,,,,,2,,,66,49
114120,note_on,0,0,1,,,,,,,,,0,,,82,0
114120,note_on,0,0,1,,,,,,,,,0,,,83,62
114120,note_on,0,0,3,,,,,,,,,2,,,63,49
114120,note_on,60,0,3,,,,,,,,,2,,,58,49
114180,control_change,0,0,1,,,,,,,,,0,64,0,,
114180,note_on,60,0,3,,,,,,,,,2,,,66,0
114180,control_change,0,0,3,,,,,,,,,2,64,0,,
114180,note_on,0,0,3,,,,,,,,,2,,,63,0
114180,note_on,0,0,3,,,,,,,,,2,,,58,0
114180,note_on,60,0,1,,,,,,,,,0,,,83,0
114180,note_on,0,0,1,,,,,,,,,0,,,82,62
114240,note_on,0,0,3,,,,,,,,,2,,,63,49
114240,note_on,0,0,3,,,,,,,,,2,,,59,49
114240,note_on,0,0,3,,,,,,,,,2,,,66,49
114240,note_on,0,0,1,,,,,,,,,0,,,87,62
114240,control_change,60,0,3,,,,,,,,,2,64,127,,
114240,note_on,60,0,1,,,,,,,,,0,,,82,0
114240,control_change,0,0,1,,,,,,,,,0,64,127,,
114300,note_on,60,0,3,,,,,,,,,2,,,66,0
114300,note_on,0,0,3,,,,,,,,,2,,,63,0
114300,note_on,60,0,1,,,,,,,,,0,,,87,0
114300,note_on,0,0,1,,,,,,,,,0,,,81,62
114300,note_on,0,0,3,,,,,,,,,2,,,59,0
114360,note_on,0,0,3,,,,,,,,,2,,,63,36
114360,note_on,60,0,3,,,,,,,,,2,,,59,36
114360,note_on,60,0,1,,,,,,,,,0,,,81,0
114360,note_on,0,0,3,,,,,,,,,2,,,66,36
114420,note_on,60,0,3,,,,,,,,,2,,,66,0
114420,note_on,0,0,3,,,,,,,,,2,,,63,0
114420,note_on,60,0,1,,,,,,,,,0,,,81,49
114420,note_on,0,0,3,,,,,,,,,2,,,59,0
114465,note_on,45,0,1,,,,,,,,,0,,,83,49
114480,note_on,0,0,3,,,,,,,,,2,,,63,36
114480,note_on,15,0,1,,,,,,,,,0,,,83,0
114480,note_on,0,0,1,,,,,,,,,0,,,81,0
114480,note_on,0,0,1,,,,,,,,,0,,,82,49
114480,note_on,60,0,3,,,,,,,,,2,,,60,36
114480,note_on,0,0,3,,,,,,,,,2,,,66,36
114540,note_on,0,0,1,,,,,,,,,0,,,81,49
114540,note_on,0,0,3,,,,,,,,,2,,,60,0
114540,note_on,0,0,3,,,,,,,,,2,,,63,0
114540,control_change,0,0,3,,,,,,,,,2,64,0,,
114540,note_on,60,0,1,,,,,,,,,0,,,82,0
114540,control_change,0,0,1,,,,,,,,,0,64,0,,
114540,note_on,60,0,3,,,,,,,,,2,,,66,0
114600,control_change,0,0,1,,,,,,,,,0,64,127,,
114600,note_on,0,0,3,,,,,,,,,2,,,61,36
114600,note_on,0,0,1,,,,,,,,,0,,,82,49
114600,note_on,60,0,1,,,,,,,,,0,,,81,0
114600,control_change,60,0,3,,,,,,,,,2,64,127,,
114600,note_on,0,0,3,,,,,,,,,2,,,66,36
114600,note_on,0,0,3,,,,,,,,,2,,,70,36
114660,note_on,0,0,1,,,,,,,,,0,,,85,49
114660,note_on,60,0,1,,,,,,,,,0,,,82,0
114660,note_on,60,0,3,,,,,,,,,2,,,70,0
114660,note_on,0,0,3,,,,,,,,,2,,,66,0
114660,note_on,0,0,3,,,,,,,,,2,,,61,0
114666,note_on,6,0,1,,,,,,,,,0,,,85,0
114720,note_on,60,0,3,,,,,,,,,2,,,61,36
114720,note_on,0,0,3,,,,,,,,,2,,,66,36
114720,note_on,0,0,3,,,,,,,,,2,,,70,36
114780,note_on,114,0,1,,,,,,,,,0,,,85,49
114780,note_on,0,0,3,,,,,,,,,2,,,61,0
114780,note_on,60,0,3,,,,,,,,,2,,,70,0
114780,note_on,0,0,3,,,,,,,,,2,,,66,0
114825,note_on,45,0,1,,,,,,,,,0,,,89,49
114840,control_change,0,0,1,,,,,,,,,0,64,0,,
114840,note_on,0,0,1,,,,,,,,,0,,,87,49
114840,note_on,0,0,1,,,,,,,,,0,,,85,0
114840,note_on,15,0,1,,,,,,,,,0,,,89,0
114840,control_change,60,0,3,,,,,,,,,2,64,0,,
114840,note_on,0,0,3,,,,,,,,,2,,,71,36
114840,note_on,0,0,3,,,,,,,,,2,,,65,36
114840,note_on,0,0,3,,,,,,,,,2,,,61,36
114900,note_on,60,0,1,,,,,,,,,0,,,87,0
114900,note_on,0,0,3,,,,,,,,,2,,,61,0
114900,note_on,0,0,3,,,,,,,,,2,,,65,0
114900,note_on,60,0,3,,,,,,,,,2,,,71,0
114900,note_on,0,0,1,,,,,,,,,0,,,85,49
114960,note_on,0,0,1,,,,,,,,,0,,,82,62
114960,note_on,0,0,1,,,,,,,,,0,,,78,62
114960,control_change,0,0,1,,,,,,,,,0,64,127,,
114960,note_on,0,0,3,,,,,,,,,2,,,66,36
114960,control_change,60,0,3,,,,,,,,,2,64,127,,
114960,note_on,60,0,1,,,,,,,,,0,,,85,0
114960,note_on,0,0,3,,,,,,,,,2,,,70,36
114990,note_on,0,0,1,,,,,,,,,0,,,78,0
114990,note_on,30,0,1,,,,,,,,,0,,,82,0
114990,note_on,0,0,1,,,,,,,,,0,,,85,62
115020,note_on,30,0,1,,,,,,,,,0,,,85,0
115020,note_on,0,0,1,,,,,,,,,0,,,73,62
115050,note_on,30,0,1,,,,,,,,,0,,,73,0
115050,note_on,0,0,1,,,,,,,,,0,,,85,62
115080,note_on,30,0,1,,,,,,,,,0,,,85,0
115080,note_on,0,0,1,,,,,,,,,0,,,78,62
115080,note_on,0,0,3,,,,,,,,,2,,,66,0
115080,note_on,0,0,1,,,,,,,,,0,,,82,62
115080,note_on,120,0,3,,,,,,,,,2,,,70,0
115110,note_on,30,0,1,,,,,,,,,0,,,82,0
115110,note_on,0,0,1,,,,,,,,,0,,,85,62
115110,note_on,0,0,1,,,,,,,,,0,,,78,0
115140,note_on,30,0,1,,,,,,,,,0,,,85,0
115140,note_on,0,0,1,,,,,,,,,0,,,73,62
115140,note_on,60,0,3,,,,,,,,,2,,,54,75
115170,note_on,30,0,1,,,,,,,,,0,,,73,0
115170,note_on,0,0,1,,,,,,,,,0,,,85,62
115185,note_on,45,0,3,,,,,,,,,2,,,58,75
115200,note_on,0,0,3,,,,,,,,,2,,,56,75
115200,note_on,15,0,3,,,,,,,,,2,,,58,0
115200,note_on,0,0,3,,,,,,,,,2,,,54,0
115200,note_on,0,0,1,,,,,,,,,0,,,82,62
115200,note_on,0,0,1,,,,,,,,,0,,,78,62
115200,note_on,30,0,1,,,,,,,,,0,,,85,0
115230,note_on,0,0,1,,,,,,,,,0,,,85,62
115230,note_on,30,0,1,,,,,,,,,0,,,82,0
115230,note_on,0,0,1,,,,,,,,,0,,,78,0
115260,note_on,30,0,1,,,,,,,,,0,,,85,0
115260,note_on,0,0,1,,,,,,,,,0,,,73,62
115260,note_on,60,0,3,,,,,,,,,2,,,56,0
115260,control_change,0,0,3,,,,,,,,,2,64,0,,
115260,note_on,0,0,3,,,,,,,,,2,,,54,75
115290,control_change,0,0,1,,,,,,,,,0,64,0,,
115290,note_on,30,0,1,,,,,,,,,0,,,73,0
115290,note_on,0,0,1,,,,,,,,,0,,,85,62
115320,control_change,0,0,1,,,,,,,,,0,64,127,,
115320,note_on,0,0,3,,,,,,,,,2,,,53,75
115320,control_change,0,0,3,,,,,,,,,2,64,127,,
115320,note_on,60,0,3,,,,,,,,,2,,,54,0
115320,note_on,30,0,1,,,,,,,,,0,,,85,0
115320,note_on,0,0,1,,,,,,,,,0,,,83,62
115320,note_on,0,0,1,,,,,,,,,0,,,80,62
115350,note_on,0,0,1,,,,,,,,,0,,,85,62
115350,note_on,0,0,1,,,,,,,,,0,,,80,0
115350,note_on,30,0,1,,,,,,,,,0,,,83,0
115380,note_on,30,0,1,,,,,,,,,0,,,85,0
115380,note_on,0,0,3,,,,,,,,,2,,,61,101
115380,note_on,60,0,3,,,,,,,,,2,,,53,0
115380,note_on,0,0,1,,,,,,,,,0,,,73,62
115410,note_on,30,0,1,,,,,,,,,0,,,73,0
115410,note_on,0,0,1,,,,,,,,,0,,,85,62
115440,note_on,0,0,1,,,,,,,,,0,,,80,62
115440,note_on,0,0,1,,,,,,,,,0,,,83,62
115440,note_on,30,0,1,,,,,,,,,0,,,85,0
115470,note_on,30,0,1,,,,,,,,,0,,,83,0
115470,note_on,0,0,1,,,,,,,,,0,,,80,0
115470,note_on,0,0,1,,,,,,,,,0,,,85,62
115500,note_on,0,0,3,,,,,,,,,2,,,59,75
115500,note_on,120,0,3,,,,,,,,,2,,,61,0
115500,note_on,30,0,1,,,,,,,,,0,,,85,0
115500,note_on,0,0,1,,,,,,,,,0,,,77,62
115500,note_on,0,0,1,,,,,,,,,0,,,80,62
115530,note_on,0,0,1,,,,,,,,,0,,,85,62
115530,note_on,30,0,1,,,,,,,,,0,,,80,0
115530,note_on,0,0,1,,,,,,,,,0,,,77,0
115560,note_on,60,0,3,,,,,,,,,2,,,59,0
115560,note_on,30,0,1,,,,,,,,,0,,,85,0
115560,note_on,0,0,1,,,,,,,,,0,,,78,62
115560,note_on,0,0,1,,,,,,,,,0,,,82,62
115560,note_on,0,0,3,,,,,,,,,2,,,58,75
115590,note_on,30,0,1,,,,,,,,,0,,,82,0
115590,note_on,0,0,1,,,,,,,,,0,,,78,0
115590,note_on,0,0,1,,,,,,,,,0,,,85,62
115620,note_on,30,0,1,,,,,,,,,0,,,85,0
115620,note_on,0,0,3,,,,,,,,,2,,,56,75
115620,control_change,0,0,3,,,,,,,,,2,64,0,,
115620,note_on,60,0,3,,,,,,,,,2,,,58,0
115620,note_on,0,0,1,,,,,,,,,0,,,73,62
115620,note_on,0,0,1,,,,,,,,,0,,,80,62
115650,note_on,30,0,1,,,,,,,,,0,,,80,0
115650,note_on,0,0,1,,,,,,,,,0,,,73,0
115650,note_on,0,0,1,,,,,,,,,0,,,85,62
115650,control_change,0,0,1,,,,,,,,,0,64,0,,
115680,control_change,0,0,1,,,,,,,,,0,64,127,,
115680,note_on,0,0,1,,,,,,,,,0,,,78,62
115680,note_on,0,0,1,,,,,,,,,0,,,82,62
115680,note_on,60,0,3,,,,,,,,,2,,,56,0
115680,note_on,30,0,1,,,,,,,,,0,,,85,0
115680,control_change,0,0,3,,,,,,,,,2,64,127,,
115680,note_on,0,0,3,,,,,,,,,2,,,54,75
115710,note_on,30,0,1,,,,,,,,,0,,,82,0
115710,note_on,0,0,1,,,,,,,,,0,,,78,0
115710,note_on,0,0,1,,,,,,,,,0,,,85,62
115740,note_on,30,0,1,,,,,,,,,0,,,85,0
115740,note_on,0,0,1,,,,,,,,,0,,,73,62
115740,note_on,60,0,3,,,,,,,,,2,,,54,0
115740,note_on,0,0,3,,,,,,,,,2,,,42,75
115746,note_on,6,0,3,,,,,,,,,2,,,42,0
115770,note_on,30,0,1,,,,,,,,,0,,,73,0
115770,note_on,0,0,1,,,,,,,,,0,,,85,62
115800,note_on,0,0,1,,,,,,,,,0,,,78,62
115800,note_on,0,0,1,,,,,,,,,0,,,82,62
115800,note_on,30,0,1,,,,,,,,,0,,,85,0
115830,note_on,0,0,1,,,,,,,,,0,,,85,62
115830,note_on,0,0,1,,,,,,,,,0,,,78,0
115830,note_on,30,0,1,,,,,,,,,0,,,82,0
115860,note_on,0,0,1,,,,,,,,,0,,,73,62
115860,note_on,30,0,1,,,,,,,,,0,,,85,0
115860,note_on,114,0,3,,,,,,,,,2,,,54,75
115890,note_on,0,0,1,,,,,,,,,0,,,85,62
115890,note_on,30,0,1,,,,,,,,,0,,,73,0
115905,note_on,45,0,3,,,,,,,,,2,,,58,75
115920,note_on,0,0,1,,,,,,,,,0,,,82,62
115920,note_on,0,0,1,,,,,,,,,0,,,78,62
115920,note_on,30,0,1,,,,,,,,,0,,,85,0
115920,note_on,15,0,3,,,,,,,,,2,,,58,0
115920,note_on,0,0,3,,,,,,,,,2,,,54,0
115920,note_on,0,0,3,,,,,,,,,2,,,56,75
115950,note_on,0,0,1,,,,,,,,,0,,,78,0
115950,note_on,30,0,1,,,,,,,,,0,,,82,0
115950,note_on,0,0,1,,,,,,,,,0,,,85,62
115980,control_change,0,0,3,,,,,,,,,2,64,0,,
115980,note_on,60,0,3,,,,,,,,,2,,,56,0
115980,note_on,0,0,3,,,,,,,,,2,,,54,75
115980,note_on,30,0,1,,,,,,,,,0,,,85,0
115980,note_on,0,0,1,,,,,,,,,0,,,73,62
116010,note_on,30,0,1,,,,,,,,,0,,,73,0
116010,control_change,0,0,1,,,,,,,,,0,64,0,,
116010,note_on,0,0,1,,,,,,,,,0,,,85,62
116040,note_on,30,0,1,,,,,,,,,0,,,85,0
116040,control_change,0,0,1,,,,,,,,,0,64,127,,
116040,note_on,0,0,1,,,,,,,,,0,,,80,62
116040,note_on,0,0,1,,,,,,,,,0,,,83,62
116040,note_on,60,0,3,,,,,,,,,2,,,54,0
116040,note_on,0,0,3,,,,,,,,,2,,,53,75
116040,control_change,0,0,3,,,,,,,,,2,64,127,,
116070,note_on,0,0,1,,,,,,,,,0,,,80,0
116070,note_on,0,0,1,,,,,,,,,0,,,85,62
116070,note_on,30,0,1,,,,,,,,,0,,,83,0
116100,note_on,30,0,1,,,,,,,,,0,,,85,0
116100,note_on,0,0,1,,,,,,,,,0,,,73,62
116100,note_on,0,0,3,,,,,,,,,2,,,61,101
116100,note_on,60,0,3,,,,,,,,,2,,,53,0
116130,note_on,30,0,1,,,,,,,,,0,,,73,0
116130,note_on,0,0,1,,,,,,,,,0,,,85,62
116160,note_on,30,0,1,,,,,,,,,0,,,85,0
116160,note_on,0,0,1,,,,,,,,,0,,,80,62
116160,note_on,0,0,1,,,,,,,,,0,,,83,62
116190,note_on,0,0,1,,,,,,,,,0,,,80,0
116190,note_on,30,0,1,,,,,,,,,0,,,83,0
116190,note_on,0,0,1,,,,,,,,,0,,,85,62
116220,note_on,30,0,1,,,,,,,,,0,,,85,0
116220,note_on,0,0,3,,,,,,,,,2,,,59,75
116220,note_on,0,0,1,,,,,,,,,0,,,77,62
116220,note_on,0,0,1,,,,,,,,,0,,,80,62
116220,note_on,120,0,3,,,,,,,,,2,,,61,0
116250,note_on,30,0,1,,,,,,,,,0,,,80,0
116250,note_on,0,0,1,,,,,,,,,0,,,77,0
116250,note_on,0,0,1,,,,,,,,,0,,,85,62
116280,note_on,60,0,3,,,,,,,,,2,,,59,0
116280,note_on,30,0,1,,,,,,,,,0,,,85,0
116280,note_on,0,0,1,,,,,,,,,0,,,78,62
116280,note_on,0,0,1,,,,,,,,,0,,,82,62
116280,note_on,0,0,3,,,,,,,,,2,,,58,75
116310,note_on,0,0,1,,,,,,,,,0,,,78,0
116310,note_on,0,0,1,,,,,,,,,0,,,85,62
116310,note_on,30,0,1,,,,,,,,,0,,,82,0
116340,note_on,60,0,3,,,,,,,,,2,,,58,0
116340,control_change,0,0,3,,,,,,,,,2,64,0,,
116340,note_on,0,0,3,,,,,,,,,2,,,56,75
116340,note_on,0,0,1,,,,,,,,,0,,,73,62
116340,note_on,30,0,1,,,,,,,,,0,,,85,0
116340,note_on,0,0,1,,,,,,,,,0,,,80,62
116370,note_on,30,0,1,,,,,,,,,0,,,80,0
116370,note_on,0,0,1,,,,,,,,,0,,,73,0
116370,note_on,0,0,1,,,,,,,,,0,,,85,62
116370,control_change,0,0,1,,,,,,,,,0,64,0,,
116400,control_change,0,0,1,,,,,,,,,0,64,127,,
116400,note_on,0,0,1,,,,,,,,,0,,,82,62
116400,note_on,0,0,1,,,,,,,,,0,,,78,62
116400,note_on,0,0,3,,,,,,,,,2,,,54,75
116400,control_change,0,0,3,,,,,,,,,2,64,127,,
116400,note_on,60,0,3,,,,,,,,,2,,,56,0
116400,note_on,30,0,1,,,,,,,,,0,,,85,0
116430,note_on,0,0,1,,,,,,,,,0,,,85,62
116430,note_on,30,0,1,,,,,,,,,0,,,82,0
116430,note_on,0,0,1,,,,,,,,,0,,,78,0
116460,note_on,60,0,3,,,,,,,,,2,,,54,0
116460,note_on,0,0,3,,,,,,,,,2,,,42,75
116460,note_on,0,0,1,,,,,,,,,0,,,73,62
116460,note_on,30,0,1,,,,,,,,,0,,,85,0
116466,note_on,6,0,3,,,,,,,,,2,,,42,0
116490,note_on,0,0,1,,,,,,,,,0,,,85,62
116490,note_on,30,0,1,,,,,,,,,0,,,73,0
116520,note_on,0,0,1,,,,,,,,,0,,,82,62
116520,note_on,30,0,1,,,,,,,,,0,,,85,0
116520,note_on,0,0,1,,,,,,,,,0,,,78,62
116550,note_on,0,0,1,,,,,,,,,0,,,85,62
116550,note_on,0,0,1,,,,,,,,,0,,,78,0
116550,note_on,30,0,1,,,,,,,,,0,,,82,0
116580,note_on,30,0,1,,,,,,,,,0,,,85,0
116580,note_on,0,0,1,,,,,,,,,0,,,73,62
116580,note_on,114,0,3,,,,,,,,,2,,,54,75
116610,note_on,30,0,1,,,,,,,,,0,,,73,0
116610,note_on,0,0,1,,,,,,,,,0,,,85,62
116625,note_on,45,0,3,,,,,,,,,2,,,58,75
116640,note_on,0,0,3,,,,,,,,,2,,,56,75
116640,note_on,30,0,1,,,,,,,,,0,,,85,0
116640,note_on,15,0,3,,,,,,,,,2,,,58,0
116640,note_on,0,0,3,,,,,,,,,2,,,54,0
116640,note_on,0,0,1,,,,,,,,,0,,,78,62
116640,note_on,0,0,1,,,,,,,,,0,,,82,62
116670,note_on,30,0,1,,,,,,,,,0,,,82,0
116670,note_on,0,0,1,,,,,,,,,0,,,78,0
116670,note_on,0,0,1,,,,,,,,,0,,,85,62
116700,note_on,60,0,3,,,,,,,,,2,,,56,0
116700,note_on,0,0,3,,,,,,,,,2,,,54,75
116700,control_change,0,0,3,,,,,,,,,2,64,0,,
116700,note_on,30,0,1,,,,,,,,,0,,,85,0
116700,note_on,0,0,1,,,,,,,,,0,,,73,62
116730,note_on,30,0,1,,,,,,,,,0,,,73,0
116730,control_change,0,0,1,,,,,,,,,0,64,0,,
116730,note_on,0,0,1,,,,,,,,,0,,,85,62
116760,note_on,30,0,1,,,,,,,,,0,,,85,0
116760,control_change,0,0,1,,,,,,,,,0,64,127,,
116760,note_on,0,0,1,,,,,,,,,0,,,82,62
116760,note_on,0,0,1,,,,,,,,,0,,,85,62
116760,note_on,0,0,3,,,,,,,,,2,,,55,75
116760,control_change,0,0,3,,,,,,,,,2,64,127,,
116760,note_on,60,0,3,,,,,,,,,2,,,54,0
116790,note_on,0,0,1,,,,,,,,,0,,,82,0
116790,note_on,30,0,1,,,,,,,,,0,,,85,0
116790,note_on,0,0,1,,,,,,,,,0,,,88,62
116820,note_on,60,0,3,,,,,,,,,2,,,55,0
116820,note_on,0,0,3,,,,,,,,,2,,,64,75
116820,note_on,30,0,1,,,,,,,,,0,,,88,0
116820,note_on,0,0,1,,,,,,,,,0,,,76,62
116850,note_on,30,0,1,,,,,,,,,0,,,76,0
116850,note_on,0,0,1,,,,,,,,,0,,,88,62
116880,note_on,0,0,1,,,,,,,,,0,,,85,62
116880,note_on,0,0,1,,,,,,,,,0,,,82,62
116880,note_on,30,0,1,,,,,,,,,0,,,88,0
116910,note_on,30,0,1,,,,,,,,,0,,,85,0
116910,note_on,0,0,1,,,,,,,,,0,,,82,0
116910,note_on,0,0,1,,,,,,,,,0,,,88,62
116940,note_on,0,0,1,,,,,,,,,0,,,76,62
116940,note_on,30,0,1,,,,,,,,,0,,,88,0
116940,note_on,120,0,3,,,,,,,,,2,,,64,0
116940,note_on,0,0,3,,,,,,,,,2,,,61,75
116970,note_on,30,0,1,,,,,,,,,0,,,76,0
116970,note_on,0,0,1,,,,,,,,,0,,,88,62
117000,note_on,60,0,3,,,,,,,,,2,,,61,0
117000,note_on,0,0,1,,,,,,,,,0,,,85,75
117000,note_on,0,0,1,,,,,,,,,0,,,82,75
117000,note_on,30,0,1,,,,,,,,,0,,,88,0
117000,note_on,0,0,3,,,,,,,,,2,,,58,88
117030,note_on,30,0,1,,,,,,,,,0,,,85,0
117030,note_on,0,0,1,,,,,,,,,0,,,82,0
117030,note_on,0,0,1,,,,,,,,,0,,,88,75
117060,note_on,0,0,3,,,,,,,,,2,,,55,88
117060,note_on,0,0,1,,,,,,,,,0,,,76,75
117060,note_on,30,0,1,,,,,,,,,0,,,88,0
117060,note_on,60,0,3,,,,,,,,,2,,,58,0
117060,control_change,0,0,3,,,,,,,,,2,64,0,,
117090,note_on,0,0,1,,,,,,,,,0,,,88,75
117090,control_change,0,0,1,,,,,,,,,0,64,0,,
117090,note_on,30,0,1,,,,,,,,,0,,,76,0
117120,control_change,0,0,3,,,,,,,,,2,64,127,,
117120,note_on,0,0,1,,,,,,,,,0,,,84,75
117120,control_change,0,0,1,,,,,,,,,0,64,127,,
117120,note_on,30,0,1,,,,,,,,,0,,,88,0
117120,note_on,0,0,3,,,,,,,,,2,,,56,88
117120,note_on,60,0,3,,,,,,,,,2,,,55,0
117150,note_on,0,0,1,,,,,,,,,0,,,89,75
117150,note_on,30,0,1,,,,,,,,,0,,,84,0
117180,note_on,0,0,1,,,,,,,,,0,,,77,75
117180,note_on,30,0,1,,,,,,,,,0,,,89,0
117210,note_on,30,0,1,,,,,,,,,0,,,77,0
117210,note_on,0,0,1,,,,,,,,,0,,,89,75
117240,note_on,120,0,3,,,,,,,,,2,,,56,0
117240,note_on,0,0,3,,,,,,,,,2,,,57,75
117240,note_on,30,0,1,,,,,,,,,0,,,89,0
117240,note_on,0,0,1,,,,,,,,,0,,,84,62
117270,note_on,0,0,1,,,,,,,,,0,,,87,62
117270,note_on,30,0,1,,,,,,,,,0,,,84,0
117300,note_on,0,0,1,,,,,,,,,0,,,78,62
117300,note_on,30,0,1,,,,,,,,,0,,,87,0
117330,note_on,30,0,1,,,,,,,,,0,,,78,0
117330,note_on,0,0,1,,,,,,,,,0,,,87,62
117360,note_on,30,0,1,,,,,,,,,0,,,87,0
117360,control_change,0,0,1,,,,,,,,,0,64,0,,
117360,note_on,0,0,1,,,,,,,,,0,,,82,62
117360,note_on,0,0,3,,,,,,,,,2,,,58,75
117360,control_change,0,0,3,,,,,,,,,2,64,0,,
117360,note_on,120,0,3,,,,,,,,,2,,,57,0
117390,note_on,30,0,1,,,,,,,,,0,,,82,0
117390,note_on,0,0,1,,,,,,,,,0,,,85,62
117420,note_on,30,0,1,,,,,,,,,0,,,85,0
117420,note_on,0,0,1,,,,,,,,,0,,,77,62
117450,note_on,30,0,1,,,,,,,,,0,,,77,0
117450,note_on,0,0,1,,,,,,,,,0,,,85,62
117480,note_on,30,0,1,,,,,,,,,0,,,85,0
117480,note_on,0,0,1,,,,,,,,,0,,,80,36
117480,note_on,0,0,1,,,,,,,,,0,,,77,36
117480,control_change,0,0,1,,,,,,,,,0,64,127,,
117480,note_on,120,0,3,,,,,,,,,2,,,58,0
117480,note_on,0,0,3,,,,,,,,,2,,,60,49
117510,note_on,0,0,1,,,,,,,,,0,,,77,0
117510,note_on,30,0,1,,,,,,,,,0,,,80,0
117510,note_on,0,0,1,,,,,,,,,0,,,84,36
117540,note_on,30,0,1,,,,,,,,,0,,,84,0
117540,note_on,0,0,1,,,,,,,,,0,,,72,36
117570,note_on,0,0,1,,,,,,,,,0,,,84,36
117570,note_on,30,0,1,,,,,,,,,0,,,72,0
117600,note_on,0,0,1,,,,,,,,,0,,,80,36
117600,note_on,0,0,1,,,,,,,,,0,,,74,36
117600,note_on,30,0,1,,,,,,,,,0,,,84,0
117630,note_on,0,0,1,,,,,,,,,0,,,83,36
117630,note_on,0,0,1,,,,,,,,,0,,,74,0
117630,note_on,30,0,1,,,,,,,,,0,,,80,0
117660,note_on,0,0,1,,,,,,,,,0,,,72,36
117660,note_on,30,0,1,,,,,,,,,0,,,83,0
117690,note_on,0,0,1,,,,,,,,,0,,,83,36
117690,note_on,30,0,1,,,,,,,,,0,,,72,0
117720,note_on,30,0,1,,,,,,,,,0,,,83,0
117720,note_on,0,0,1,,,,,,,,,0,,,79,36
117720,note_on,0,0,1,,,,,,,,,0,,,76,36
117750,note_on,30,0,1,,,,,,,,,0,,,79,0
117750,note_on,0,0,1,,,,,,,,,0,,,76,0
117750,note_on,0,0,1,,,,,,,,,0,,,82,36
117780,note_on,30,0,1,,,,,,,,,0,,,82,0
117780,note_on,0,0,1,,,,,,,,,0,,,72,36
117810,note_on,30,0,1,,,,,,,,,0,,,72,0
117810,control_change,0,0,1,,,,,,,,,0,64,0,,
117810,note_on,0,0,1,,,,,,,,,0,,,82,36
117840,note_on,30,0,1,,,,,,,,,0,,,82,0
117840,control_change,0,0,1,,,,,,,,,0,64,127,,
117840,note_on,0,0,1,,,,,,,,,0,,,77,36
117840,note_on,0,0,1,,,,,,,,,0,,,80,36
117840,note_on,360,0,3,,,,,,,,,2,,,60,0
117840,control_change,0,0,3,,,,,,,,,2,64,127,,
117840,note_on,0,0,3,,,,,,,,,2,,,65,49
117840,note_on,0,0,3,,,,,,,,,2,,,68,49
117870,note_on,30,0,3,,,,,,,,,2,,,68,0
117870,note_on,0,0,3,,,,,,,,,2,,,65,0
117870,note_on,0,0,3,,,,,,,,,2,,,72,49
117900,note_on,30,0,3,,,,,,,,,2,,,72,0
117900,note_on,0,0,3,,,,,,,,,2,,,60,49
117930,note_on,30,0,3,,,,,,,,,2,,,60,0
117930,note_on,0,0,3,,,,,,,,,2,,,72,49
117960,note_on,120,0,1,,,,,,,,,0,,,80,0
117960,note_on,0,0,3,,,,,,,,,2,,,65,62
117960,note_on,0,0,1,,,,,,,,,0,,,77,0
117960,note_on,0,0,3,,,,,,,,,2,,,68,62
117960,note_on,30,0,3,,,,,,,,,2,,,72,0
117990,note_on,30,0,3,,,,,,,,,2,,,68,0
117990,note_on,0,0,3,,,,,,,,,2,,,72,62
117990,note_on,0,0,3,,,,,,,,,2,,,65,0
118020,note_on,0,0,3,,,,,,,,,2,,,60,62
118020,note_on,30,0,3,,,,,,,,,2,,,72,0
118020,note_on,60,0,1,,,,,,,,,0,,,77,75
118050,note_on,0,0,3,,,,,,,,,2,,,72,62
118050,note_on,30,0,3,,,,,,,,,2,,,60,0
118065,note_on,45,0,1,,,,,,,,,0,,,80,75
118080,note_on,0,0,3,,,,,,,,,2,,,65,62
118080,note_on,30,0,3,,,,,,,,,2,,,72,0
118080,note_on,0,0,3,,,,,,,,,2,,,68,62
118080,note_on,15,0,1,,,,,,,,,0,,,80,0
118080,note_on,0,0,1,,,,,,,,,0,,,79,75
118080,note_on,0,0,1,,,,,,,,,0,,,77,0
118110,note_on,30,0,3,,,,,,,,,2,,,68,0
118110,note_on,0,0,3,,,,,,,,,2,,,72,62
118110,note_on,0,0,3,,,,,,,,,2,,,65,0
118140,note_on,30,0,3,,,,,,,,,2,,,72,0
118140,note_on,0,0,3,,,,,,,,,2,,,60,62
118140,note_on,60,0,1,,,,,,,,,0,,,79,0
118140,control_change,0,0,1,,,,,,,,,0,64,0,,
118140,note_on,0,0,1,,,,,,,,,0,,,77,75
118170,note_on,30,0,3,,,,,,,,,2,,,60,0
118170,control_change,0,0,3,,,,,,,,,2,64,0,,
118170,note_on,0,0,3,,,,,,,,,2,,,72,62
118200,note_on,60,0,1,,,,,,,,,0,,,77,0
118200,control_change,0,0,1,,,,,,,,,0,64,127,,
118200,note_on,0,0,3,,,,,,,,,2,,,70,62
118200,note_on,30,0,3,,,,,,,,,2,,,72,0
118200,note_on,0,0,1,,,,,,,,,0,,,76,75
118200,note_on,0,0,3,,,,,,,,,2,,,67,62
118200,control_change,0,0,3,,,,,,,,,2,64,127,,
118230,note_on,0,0,3,,,,,,,,,2,,,67,0
118230,note_on,30,0,3,,,,,,,,,2,,,70,0
118230,note_on,0,0,3,,,,,,,,,2,,,72,62
118260,note_on,0,0,3,,,,,,,,,2,,,60,62
118260,note_on,60,0,1,,,,,,,,,0,,,76,0
118260,note_on,0,0,1,,,,,,,,,0,,,84,101
118260,note_on,30,0,3,,,,,,,,,2,,,72,0
118290,note_on,30,0,3,,,,,,,,,2,,,60,0
118290,note_on,0,0,3,,,,,,,,,2,,,72,62
118320,note_on,0,0,3,,,,,,,,,2,,,67,62
118320,note_on,30,0,3,,,,,,,,,2,,,72,0
118320,note_on,0,0,3,,,,,,,,,2,,,70,62
118350,note_on,0,0,3,,,,,,,,,2,,,72,62
118350,note_on,0,0,3,,,,,,,,,2,,,67,0
118350,note_on,30,0,3,,,,,,,,,2,,,70,0
118380,note_on,120,0,1,,,,,,,,,0,,,84,0
118380,note_on,30,0,3,,,,,,,,,2,,,72,0
118380,note_on,0,0,3,,,,,,,,,2,,,64,62
118380,note_on,0,0,3,,,,,,,,,2,,,67,62
118380,note_on,0,0,1,,,,,,,,,0,,,82,75
118410,note_on,30,0,3,,,,,,,,,2,,,67,0
118410,note_on,0,0,3,,,,,,,,,2,,,64,0
118410,note_on,0,0,3,,,,,,,,,2,,,72,62
118440,note_on,60,0,1,,,,,,,,,0,,,82,0
118440,note_on,0,0,3,,,,,,,,,2,,,65,62
118440,note_on,30,0,3,,,,,,,,,2,,,72,0
118440,note_on,0,0,1,,,,,,,,,0,,,80,75
118440,note_on,0,0,3,,,,,,,,,2,,,68,62
118470,note_on,30,0,3,,,,,,,,,2,,,68,0
118470,note_on,0,0,3,,,,,,,,,2,,,65,0
118470,note_on,0,0,3,,,,,,,,,2,,,72,62
118500,note_on,60,0,1,,,,,,,,,0,,,80,0
118500,control_change,0,0,1,,,,,,,,,0,64,0,,
118500,note_on,0,0,1,,,,,,,,,0,,,79,75
118500,note_on,0,0,3,,,,,,,,,2,,,70,62
118500,note_on,0,0,3,,,,,,,,,2,,,64,62
118500,note_on,30,0,3,,,,,,,,,2,,,72,0
118530,control_change,0,0,3,,,,,,,,,2,64,0,,
118530,note_on,0,0,3,,,,,,,,,2,,,72,62
118530,note_on,30,0,3,,,,,,,,,2,,,70,0
118530,note_on,0,0,3,,,,,,,,,2,,,64,0
118560,note_on,0,0,1,,,,,,,,,0,,,77,75
118560,note_on,0,0,3,,,,,,,,,2,,,68,49
118560,control_change,0,0,1,,,,,,,,,0,64,127,,
118560,note_on,0,0,3,,,,,,,,,2,,,65,49
118560,control_change,0,0,3,,,,,,,,,2,64,127,,
118560,note_on,30,0,3,,,,,,,,,2,,,72,0
118560,note_on,60,0,1,,,,,,,,,0,,,79,0
118590,note_on,0,0,3,,,,,,,,,2,,,72,49
118590,note_on,0,0,3,,,,,,,,,2,,,65,0
118590,note_on,30,0,3,,,,,,,,,2,,,68,0
118620,note_on,60,0,1,,,,,,,,,0,,,77,0
118620,note_on,0,0,1,,,,,,,,,0,,,89,75
118620,note_on,0,0,3,,,,,,,,,2,,,60,49
118620,note_on,30,0,3,,,,,,,,,2,,,72,0
118650,note_on,0,0,3,,,,,,,,,2,,,72,49
118650,note_on,30,0,3,,,,,,,,,2,,,60,0
118680,note_on,0,0,3,,,,,,,,,2,,,68,62
118680,note_on,30,0,3,,,,,,,,,2,,,72,0
118680,note_on,0,0,3,,,,,,,,,2,,,65,62
118680,note_on,60,0,1,,,,,,,,,0,,,89,0
118710,note_on,30,0,3,,,,,,,,,2,,,68,0
118710,note_on,0,0,3,,,,,,,,,2,,,65,0
118710,note_on,0,0,3,,,,,,,,,2,,,72,62
118740,note_on,60,0,1,,,,,,,,,0,,,77,75
118740,note_on,0,0,3,,,,,,,,,2,,,60,62
118740,note_on,30,0,3,,,,,,,,,2,,,72,0
118770,note_on,0,0,3,,,,,,,,,2,,,72,62
118770,note_on,30,0,3,,,,,,,,,2,,,60,0
118785,note_on,45,0,1,,,,,,,,,0,,,80,75
118800,note_on,15,0,1,,,,,,,,,0,,,80,0
118800,note_on,0,0,1,,,,,,,,,0,,,77,0
118800,note_on,0,0,1,,,,,,,,,0,,,79,75
118800,note_on,0,0,3,,,,,,,,,2,,,68,62
118800,note_on,0,0,3,,,,,,,,,2,,,65,62
118800,note_on,30,0,3,,,,,,,,,2,,,72,0
118830,note_on,0,0,3,,,,,,,,,2,,,65,0
118830,note_on,30,0,3,,,,,,,,,2,,,68,0
118830,note_on,0,0,3,,,,,,,,,2,,,72,62
118860,note_on,0,0,1,,,,,,,,,0,,,77,75
118860,control_change,0,0,1,,,,,,,,,0,64,0,,
118860,note_on,60,0,1,,,,,,,,,0,,,79,0
118860,note_on,30,0,3,,,,,,,,,2,,,72,0
118860,note_on,0,0,3,,,,,,,,,2,,,60,62
118890,note_on,30,0,3,,,,,,,,,2,,,60,0
118890,control_change,0,0,3,,,,,,,,,2,64,0,,
118890,note_on,0,0,3,,,,,,,,,2,,,72,62
118920,note_on,30,0,3,,,,,,,,,2,,,72,0
118920,note_on,60,0,1,,,,,,,,,0,,,77,0
118920,control_change,0,0,1,,,,,,,,,0,64,127,,
118920,note_on,0,0,1,,,,,,,,,0,,,76,75
118920,control_change,0,0,3,,,,,,,,,2,64,127,,
118920,note_on,0,0,3,,,,,,,,,2,,,67,62
118920,note_on,0,0,3,,,,,,,,,2,,,70,62
118950,note_on,30,0,3,,,,,,,,,2,,,70,0
118950,note_on,0,0,3,,,,,,,,,2,,,67,0
118950,note_on,0,0,3,,,,,,,,,2,,,72,62
118980,note_on,60,0,1,,,,,,,,,0,,,76,0
118980,note_on,30,0,3,,,,,,,,,2,,,72,0
118980,note_on,0,0,3,,,,,,,,,2,,,60,62
118980,note_on,0,0,1,,,,,,,,,0,,,84,101
119010,note_on,30,0,3,,,,,,,,,2,,,60,0
119010,note_on,0,0,3,,,,,,,,,2,,,72,62
119040,note_on,0,0,3,,,,,,,,,2,,,70,62
119040,note_on,30,0,3,,,,,,,,,2,,,72,0
119040,note_on,0,0,3,,,,,,,,,2,,,67,62
119070,note_on,30,0,3,,,,,,,,,2,,,70,0
119070,note_on,0,0,3,,,,,,,,,2,,,67,0
119070,note_on,0,0,3,,,,,,,,,2,,,72,62
119100,note_on,30,0,3,,,,,,,,,2,,,72,0
119100,note_on,0,0,3,,,,,,,,,2,,,64,62
119100,note_on,0,0,3,,,,,,,,,2,,,67,62
119100,note_on,0,0,1,,,,,,,,,0,,,82,75
119100,note_on,120,0,1,,,,,,,,,0,,,84,0
119130,note_on,0,0,3,,,,,,,,,2,,,64,0
119130,note_on,0,0,3,,,,,,,,,2,,,72,62
119130,note_on,30,0,3,,,,,,,,,2,,,67,0
119160,note_on,60,0,1,,,,,,,,,0,,,82,0
119160,note_on,0,0,1,,,,,,,,,0,,,80,75
119160,note_on,0,0,3,,,,,,,,,2,,,68,62
119160,note_on,0,0,3,,,,,,,,,2,,,65,62
119160,note_on,30,0,3,,,,,,,,,2,,,72,0
119190,note_on,0,0,3,,,,,,,,,2,,,72,62
119190,note_on,30,0,3,,,,,,,,,2,,,68,0
119190,note_on,0,0,3,,,,,,,,,2,,,65,0
119220,note_on,30,0,3,,,,,,,,,2,,,72,0
119220,note_on,0,0,3,,,,,,,,,2,,,64,62
119220,note_on,0,0,1,,,,,,,,,0,,,79,75
119220,note_on,60,0,1,,,,,,,,,0,,,80,0
119220,control_change,0,0,1,,,,,,,,,0,64,0,,
119220,note_on,0,0,3,,,,,,,,,2,,,70,62
119250,note_on,0,0,3,,,,,,,,,2,,,64,0
119250,note_on,30,0,3,,,,,,,,,2,,,70,0
119250,note_on,0,0,3,,,,,,,,,2,,,72,62
119250,control_change,0,0,3,,,,,,,,,2,64,0,,
119280,note_on,0,0,3,,,,,,,,,2,,,68,49
119280,note_on,0,0,3,,,,,,,,,2,,,65,49
119280,control_change,0,0,3,,,,,,,,,2,64,127,,
119280,note_on,30,0,3,,,,,,,,,2,,,72,0
119280,note_on,60,0,1,,,,,,,,,0,,,79,0
119280,control_change,0,0,1,,,,,,,,,0,64,127,,
119280,note_on,0,0,1,,,,,,,,,0,,,77,75
119310,note_on,0,0,3,,,,,,,,,2,,,72,49
119310,note_on,30,0,3,,,,,,,,,2,,,68,0
119310,note_on,0,0,3,,,,,,,,,2,,,65,0
119340,note_on,0,0,1,,,,,,,,,0,,,92,101
119340,note_on,30,0,3,,,,,,,,,2,,,72,0
119340,note_on,0,0,3,,,,,,,,,2,,,60,49
119340,note_on,60,0,1,,,,,,,,,0,,,77,0
119370,note_on,30,0,3,,,,,,,,,2,,,60,0
119370,note_on,0,0,3,,,,,,,,,2,,,72,49
119400,note_on,30,0,3,,,,,,,,,2,,,72,0
119400,note_on,0,0,3,,,,,,,,,2,,,68,62
119400,note_on,0,0,3,,,,,,,,,2,,,65,62
119430,note_on,0,0,3,,,,,,,,,2,,,65,0
119430,note_on,30,0,3,,,,,,,,,2,,,68,0
119430,note_on,0,0,3,,,,,,,,,2,,,72,62
119460,note_on,120,0,1,,,,,,,,,0,,,92,0
119460,note_on,0,0,1,,,,,,,,,0,,,91,75
119460,note_on,0,0,3,,,,,,,,,2,,,60,62
119460,note_on,30,0,3,,,,,,,,,2,,,72,0
119490,note_on,0,0,3,,,,,,,,,2,,,72,62
119490,note_on,30,0,3,,,,,,,,,2,,,60,0
119520,note_on,0,0,3,,,,,,,,,2,,,68,62
119520,note_on,0,0,3,,,,,,,,,2,,,65,62
119520,note_on,30,0,3,,,,,,,,,2,,,72,0
119520,note_on,0,0,1,,,,,,,,,0,,,89,75
119520,note_on,60,0,1,,,,,,,,,0,,,91,0
119550,note_on,0,0,3,,,,,,,,,2,,,65,0
119550,note_on,0,0,3,,,,,,,,,2,,,72,62
119550,note_on,30,0,3,,,,,,,,,2,,,68,0
119580,note_on,0,0,1,,,,,,,,,0,,,87,75
119580,note_on,60,0,1,,,,,,,,,0,,,89,0
119580,control_change,0,0,1,,,,,,,,,0,64,0,,
119580,note_on,0,0,3,,,,,,,,,2,,,60,62
119580,note_on,30,0,3,,,,,,,,,2,,,72,0
119610,note_on,0,0,3,,,,,,,,,2,,,72,62
119610,note_on,30,0,3,,,,,,,,,2,,,60,0
119610,control_change,0,0,3,,,,,,,,,2,64,0,,
119640,note_on,60,0,1,,,,,,,,,0,,,87,0
119640,control_change,0,0,1,,,,,,,,,0,64,127,,
119640,note_on,0,0,1,,,,,,,,,0,,,85,62
119640,note_on,30,0,3,,,,,,,,,2,,,72,0
119640,control_change,0,0,3,,,,,,,,,2,64,127,,
119640,note_on,0,0,3,,,,,,,,,2,,,65,49
119640,note_on,0,0,3,,,,,,,,,2,,,68,49
119670,note_on,0,0,3,,,,,,,,,2,,,73,49
119670,note_on,0,0,3,,,,,,,,,2,,,65,0
119670,note_on,30,0,3,,,,,,,,,2,,,68,0
119700,note_on,0,0,1,,,,,,,,,0,,,89,62
119700,note_on,30,0,3,,,,,,,,,2,,,73,0
119700,note_on,0,0,3,,,,,,,,,2,,,61,49
119700,note_on,60,0,1,,,,,,,,,0,,,85,0
119730,note_on,30,0,3,,,,,,,,,2,,,61,0
119730,note_on,0,0,3,,,,,,,,,2,,,73,49
119760,note_on,0,0,3,,,,,,,,,2,,,68,36
119760,note_on,0,0,3,,,,,,,,,2,,,65,36
119760,note_on,30,0,3,,,,,,,,,2,,,73,0
119790,note_on,30,0,3,,,,,,,,,2,,,68,0
119790,note_on,0,0,3,,,,,,,,,2,,,73,36
119790,note_on,0,0,3,,,,,,,,,2,,,65,0
119820,note_on,0,0,3,,,,,,,,,2,,,61,36
119820,note_on,0,0,1,,,,,,,,,0,,,87,49
119820,note_on,120,0,1,,,,,,,,,0,,,89,0
119820,note_on,30,0,3,,,,,,,,,2,,,73,0
119850,note_on,30,0,3,,,,,,,,,2,,,61,0
119850,note_on,0,0,3,,,,,,,,,2,,,73,36
119880,note_on,60,0,1,,,,,,,,,0,,,87,0
119880,note_on,30,0,3,,,,,,,,,2,,,73,0
119880,note_on,0,0,3,,,,,,,,,2,,,65,36
119880,note_on,0,0,3,,,,,,,,,2,,,68,36
119880,note_on,0,0,1,,,,,,,,,0,,,85,49
119910,note_on,0,0,3,,,,,,,,,2,,,65,0
119910,note_on,30,0,3,,,,,,,,,2,,,68,0
119910,note_on,0,0,3,,,,,,,,,2,,,73,36
119940,note_on,60,0,1,,,,,,,,,0,,,85,0
119940,note_on,0,0,1,,,,,,,,,0,,,84,49
119940,control_change,0,0,1,,,,,,,,,0,64,0,,
119940,note_on,30,0,3,,,,,,,,,2,,,73,0
119940,note_on,0,0,3,,,,,,,,,2,,,61,36
119970,note_on,0,0,3,,,,,,,,,2,,,73,36
119970,control_change,0,0,3,,,,,,,,,2,64,0,,
119970,note_on,30,0,3,,,,,,,,,2,,,61,0
120000,note_on,0,0,1,,,,,,,,,0,,,83,36
120000,note_on,30,0,3,,,,,,,,,2,,,73,0
120000,control_change,0,0,3,,,,,,,,,2,64,127,,
120000,note_on,0,0,3,,,,,,,,,2,,,65,36
120000,note_on,0,0,3,,,,,,,,,2,,,68,36
120000,note_on,60,0,1,,,,,,,,,0,,,84,0
120030,note_on,0,0,3,,,,,,,,,2,,,65,0
120030,note_on,0,0,3,,,,,,,,,2,,,74,36
120030,note_on,30,0,3,,,,,,,,,2,,,68,0
120060,note_on,30,0,3,,,,,,,,,2,,,74,0
120060,note_on,0,0,3,,,,,,,,,2,,,62,36
120090,note_on,30,0,3,,,,,,,,,2,,,62,0
120090,note_on,0,0,3,,,,,,,,,2,,,74,36
120120,note_on,30,0,3,,,,,,,,,2,,,74,0
120120,note_on,0,0,3,,,,,,,,,2,,,65,36
120120,note_on,0,0,3,,,,,,,,,2,,,68,36
120150,note_on,0,0,3,,,,,,,,,2,,,74,36
120150,note_on,0,0,3,,,,,,,,,2,,,65,0
120150,note_on,30,0,3,,,,,,,,,2,,,68,0
120180,note_on,30,0,3,,,,,,,,,2,,,74,0
120180,note_on,0,0,3,,,,,,,,,2,,,62,36
120210,note_on,30,0,3,,,,,,,,,2,,,62,0
120210,note_on,0,0,3,,,,,,,,,2,,,74,36
120240,note_on,30,0,3,,,,,,,,,2,,,74,0
120240,note_on,0,0,3,,,,,,,,,2,,,65,36
120240,note_on,0,0,3,,,,,,,,,2,,,68,36
120270,note_on,30,0,3,,,,,,,,,2,,,68,0
120270,note_on,0,0,3,,,,,,,,,2,,,65,0
120270,note_on,0,0,3,,,,,,,,,2,,,74,36
120300,note_on,0,0,3,,,,,,,,,2,,,62,36
120300,note_on,30,0,3,,,,,,,,,2,,,74,0
120330,note_on,0,0,3,,,,,,,,,2,,,74,36
120330,control_change,0,0,3,,,,,,,,,2,64,0,,
120330,note_on,30,0,3,,,,,,,,,2,,,62,0
120360,note_on,30,0,3,,,,,,,,,2,,,74,0
120360,control_change,0,0,3,,,,,,,,,2,64,127,,
120360,note_on,0,0,3,,,,,,,,,2,,,65,36
120360,note_on,0,0,3,,,,,,,,,2,,,68,36
120360,control_change,0,0,1,,,,,,,,,0,64,127,,
120360,note_on,0,0,1,,,,,,,,,0,,,84,49
120360,note_on,360,0,1,,,,,,,,,0,,,83,0
120375,note_on,0,0,1,,,,,,,,,0,,,82,49
120375,note_on,15,0,1,,,,,,,,,0,,,84,0
120390,note_on,15,0,1,,,,,,,,,0,,,82,0
120390,note_on,0,0,1,,,,,,,,,0,,,84,49
120390,note_on,30,0,3,,,,,,,,,2,,,68,0
120390,note_on,0,0,3,,,,,,,,,2,,,74,36
120390,note_on,0,0,3,,,,,,,,,2,,,65,0
120405,note_on,0,0,1,,,,,,,,,0,,,82,49
120405,note_on,15,0,1,,,,,,,,,0,,,84,0
120420,note_on,0,0,3,,,,,,,,,2,,,62,36
120420,note_on,0,0,1,,,,,,,,,0,,,84,49
120420,note_on,15,0,1,,,,,,,,,0,,,82,0
120420,note_on,30,0,3,,,,,,,,,2,,,74,0
120435,note_on,0,0,1,,,,,,,,,0,,,82,49
120435,note_on,15,0,1,,,,,,,,,0,,,84,0
120450,note_on,30,0,3,,,,,,,,,2,,,62,0
120450,note_on,0,0,3,,,,,,,,,2,,,74,36
120450,note_on,0,0,1,,,,,,,,,0,,,84,49
120450,note_on,15,0,1,,,,,,,,,0,,,82,0
120465,note_on,15,0,1,,,,,,,,,0,,,84,0
120465,note_on,0,0,1,,,,,,,,,0,,,82,49
120480,note_on,15,0,1,,,,,,,,,0,,,82,0
120480,note_on,0,0,1,,,,,,,,,0,,,84,62
120480,note_on,0,0,3,,,,,,,,,2,,,65,49
120480,note_on,30,0,3,,,,,,,,,2,,,74,0
120480,note_on,0,0,3,,,,,,,,,2,,,68,49
120495,note_on,15,0,1,,,,,,,,,0,,,84,0
120495,note_on,0,0,1,,,,,,,,,0,,,82,62
120510,note_on,30,0,3,,,,,,,,,2,,,68,0
120510,note_on,0,0,1,,,,,,,,,0,,,84,62
120510,note_on,15,0,1,,,,,,,,,0,,,82,0
120510,note_on,0,0,3,,,,,,,,,2,,,74,49
120510,note_on,0,0,3,,,,,,,,,2,,,65,0
120525,note_on,15,0,1,,,,,,,,,0,,,84,0
120525,note_on,0,0,1,,,,,,,,,0,,,82,62
120540,note_on,0,0,1,,,,,,,,,0,,,84,62
120540,note_on,0,0,3,,,,,,,,,2,,,62,49
120540,note_on,15,0,1,,,,,,,,,0,,,82,0
120540,note_on,30,0,3,,,,,,,,,2,,,74,0
120555,note_on,15,0,1,,,,,,,,,0,,,84,0
120555,note_on,0,0,1,,,,,,,,,0,,,82,62
120570,note_on,0,0,3,,,,,,,,,2,,,74,49
120570,note_on,30,0,3,,,,,,,,,2,,,62,0
120570,note_on,15,0,1,,,,,,,,,0,,,82,0
120570,note_on,0,0,1,,,,,,,,,0,,,84,62
120585,note_on,15,0,1,,,,,,,,,0,,,84,0
120585,note_on,0,0,1,,,,,,,,,0,,,82,75
120600,note_on,0,0,3,,,,,,,,,2,,,68,62
120600,note_on,15,0,1,,,,,,,,,0,,,82,0
120600,note_on,0,0,3,,,,,,,,,2,,,65,62
120600,note_on,30,0,3,,,,,,,,,2,,,74,0
120600,note_on,0,0,1,,,,,,,,,0,,,84,75
120615,note_on,15,0,1,,,,,,,,,0,,,84,0
120615,note_on,0,0,1,,,,,,,,,0,,,82,75
120630,note_on,0,0,3,,,,,,,,,2,,,74,62
120630,note_on,0,0,3,,,,,,,,,2,,,65,0
120630,note_on,30,0,3,,,,,,,,,2,,,68,0
120630,note_on,15,0,1,,,,,,,,,0,,,82,0
120630,note_on,0,0,1,,,,,,,,,0,,,84,75
120645,note_on,15,0,1,,,,,,,,,0,,,84,0
120645,note_on,0,0,1,,,,,,,,,0,,,82,75
120660,note_on,0,0,3,,,,,,,,,2,,,62,62
120660,note_on,30,0,3,,,,,,,,,2,,,74,0
120660,note_on,15,0,1,,,,,,,,,0,,,82,0
120660,note_on,0,0,1,,,,,,,,,0,,,81,75
120680,note_on,20,0,1,,,,,,,,,0,,,81,0
120680,note_on,0,0,1,,,,,,,,,0,,,82,75
120690,control_change,0,0,3,,,,,,,,,2,64,0,,
120690,note_on,0,0,3,,,,,,,,,2,,,74,62
120690,note_on,30,0,3,,,,,,,,,2,,,62,0
120699,note_on,0,0,1,,,,,,,,,0,,,84,75
120699,control_change,19,0,1,,,,,,,,,0,64,0,,
120700,note_on,1,0,1,,,,,,,,,0,,,82,0
120719,note_on,19,0,1,,,,,,,,,0,,,84,0
120720,note_on,0,0,3,,,,,,,,,2,,,63,75
120720,control_change,0,0,3,,,,,,,,,2,64,127,,
120720,note_on,30,0,3,,,,,,,,,2,,,74,0
120720,note_on,0,0,1,,,,,,,,,0,,,82,114
120720,control_change,1,0,1,,,,,,,,,0,64,127,,
120720,note_on,0,0,3,,,,,,,,,2,,,67,75
120726,note_on,6,0,1,,,,,,,,,0,,,82,0
120750,note_on,30,0,3,,,,,,,,,2,,,67,0
120750,note_on,0,0,3,,,,,,,,,2,,,75,75
120750,note_on,0,0,3,,,,,,,,,2,,,63,0
120780,note_on,0,0,1,,,,,,,,,0,,,91,114
120780,note_on,0,0,3,,,,,,,,,2,,,58,75
120780,note_on,30,0,3,,,,,,,,,2,,,75,0
120780,note_on,54,0,1,,,,,,,,,0,,,79,106
120810,note_on,30,0,3,,,,,,,,,2,,,58,0
120810,note_on,0,0,3,,,,,,,,,2,,,70,75
120840,note_on,30,0,3,,,,,,,,,2,,,70,0
120840,note_on,0,0,3,,,,,,,,,2,,,63,75
120870,note_on,0,0,3,,,,,,,,,2,,,70,75
120870,note_on,30,0,3,,,,,,,,,2,,,63,0
120900,note_on,120,0,1,,,,,,,,,0,,,91,0
120900,note_on,0,0,3,,,,,,,,,2,,,65,75
120900,note_on,0,0,1,,,,,,,,,0,,,89,88
120900,note_on,0,0,1,,,,,,,,,0,,,77,88
120900,note_on,0,0,1,,,,,,,,,0,,,79,0
120900,note_on,30,0,3,,,,,,,,,2,,,70,0
120930,note_on,30,0,3,,,,,,,,,2,,,65,0
120930,note_on,0,0,3,,,,,,,,,2,,,70,75
120960,note_on,30,0,3,,,,,,,,,2,,,70,0
120960,note_on,0,0,3,,,,,,,,,2,,,67,75
120960,note_on,0,0,1,,,,,,,,,0,,,87,88
120960,note_on,0,0,1,,,,,,,,,0,,,75,88
120960,note_on,0,0,1,,,,,,,,,0,,,77,0
120960,note_on,60,0,1,,,,,,,,,0,,,89,0
120990,note_on,0,0,3,,,,,,,,,2,,,70,75
120990,note_on,30,0,3,,,,,,,,,2,,,67,0
121020,note_on,0,0,1,,,,,,,,,0,,,75,0
121020,note_on,60,0,1,,,,,,,,,0,,,87,0
121020,note_on,0,0,1,,,,,,,,,0,,,74,88
121020,note_on,0,0,1,,,,,,,,,0,,,86,88
121020,control_change,0,0,1,,,,,,,,,0,64,0,,
121020,note_on,30,0,3,,,,,,,,,2,,,70,0
121020,note_on,0,0,3,,,,,,,,,2,,,68,75
121050,note_on,0,0,3,,,,,,,,,2,,,70,75
121050,control_change,0,0,3,,,,,,,,,2,64,0,,
121050,note_on,30,0,3,,,,,,,,,2,,,68,0
121080,control_change,0,0,3,,,,,,,,,2,64,127,,
121080,note_on,30,0,3,,,,,,,,,2,,,70,0
121080,note_on,0,0,3,,,,,,,,,2,,,67,36
121080,control_change,0,0,1,,,,,,,,,0,64,127,,
121080,note_on,0,0,1,,,,,,,,,0,,,87,49
121080,note_on,0,0,1,,,,,,,,,0,,,75,49
121080,note_on,0,0,1,,,,,,,,,0,,,74,0
121080,note_on,60,0,1,,,,,,,,,0,,,86,0
121110,note_on,30,0,3,,,,,,,,,2,,,67,0
121110,note_on,30,0,1,,,,,,,,,0,,,87,0
121110,note_on,0,0,3,,,,,,,,,2,,,70,36
121110,note_on,0,0,1,,,,,,,,,0,,,82,49
121110,note_on,0,0,1,,,,,,,,,0,,,75,0
121140,note_on,0,0,1,,,,,,,,,0,,,91,75
121140,note_on,0,0,3,,,,,,,,,2,,,58,36
121140,note_on,0,0,1,,,,,,,,,0,,,79,67
121140,note_on,30,0,1,,,,,,,,,0,,,82,0
121140,note_on,30,0,3,,,,,,,,,2,,,70,0
121170,note_on,30,0,3,,,,,,,,,2,,,58,0
121170,note_on,0,0,3,,,,,,,,,2,,,70,36
121200,note_on,0,0,3,,,,,,,,,2,,,63,36
121200,note_on,30,0,3,,,,,,,,,2,,,70,0
121230,note_on,30,0,3,,,,,,,,,2,,,63,0
121230,note_on,0,0,3,,,,,,,,,2,,,70,36
121260,note_on,120,0,1,,,,,,,,,0,,,91,0
121260,note_on,30,0,3,,,,,,,,,2,,,70,0
121260,note_on,0,0,3,,,,,,,,,2,,,65,36
121260,note_on,0,0,1,,,,,,,,,0,,,89,49
121260,note_on,0,0,1,,,,,,,,,0,,,77,49
121260,note_on,0,0,1,,,,,,,,,0,,,79,0
121290,note_on,30,0,3,,,,,,,,,2,,,65,0
121290,note_on,0,0,3,,,,,,,,,2,,,70,36
121320,note_on,60,0,1,,,,,,,,,0,,,89,0
121320,note_on,0,0,1,,,,,,,,,0,,,87,49
121320,note_on,0,0,1,,,,,,,,,0,,,77,0
121320,note_on,0,0,3,,,,,,,,,2,,,67,36
121320,note_on,30,0,3,,,,,,,,,2,,,70,0
121320,note_on,0,0,1,,,,,,,,,0,,,75,49
121350,note_on,0,0,3,,,,,,,,,2,,,70,36
121350,note_on,30,0,3,,,,,,,,,2,,,67,0
121380,note_on,0,0,3,,,,,,,,,2,,,68,36
121380,control_change,0,0,1,,,,,,,,,0,64,0,,
121380,note_on,0,0,1,,,,,,,,,0,,,86,49
121380,note_on,0,0,1,,,,,,,,,0,,,74,49
121380,note_on,0,0,1,,,,,,,,,0,,,75,0
121380,note_on,60,0,1,,,,,,,,,0,,,87,0
121380,note_on,30,0,3,,,,,,,,,2,,,70,0
121410,note_on,0,0,3,,,,,,,,,2,,,70,36
121410,control_change,0,0,3,,,,,,,,,2,64,0,,
121410,note_on,30,0,3,,,,,,,,,2,,,68,0
121440,note_on,0,0,3,,,,,,,,,2,,,67,75
121440,control_change,0,0,3,,,,,,,,,2,64,127,,
121440,note_on,30,0,3,,,,,,,,,2,,,70,0
121440,note_on,60,0,1,,,,,,,,,0,,,86,0
121440,note_on,0,0,1,,,,,,,,,0,,,75,88
121440,note_on,0,0,1,,,,,,,,,0,,,74,0
121440,note_on,0,0,1,,,,,,,,,0,,,87,88
121440,control_change,0,0,1,,,,,,,,,0,64,127,,
121470,note_on,0,0,3,,,,,,,,,2,,,70,75
121470,note_on,30,0,1,,,,,,,,,0,,,87,0
121470,note_on,0,0,1,,,,,,,,,0,,,75,0
121470,note_on,0,0,1,,,,,,,,,0,,,82,88
121470,note_on,30,0,3,,,,,,,,,2,,,67,0
121500,note_on,30,0,1,,,,,,,,,0,,,82,0
121500,note_on,0,0,1,,,,,,,,,0,,,79,106
121500,note_on,0,0,1,,,,,,,,,0,,,91,114
121500,note_on,0,0,3,,,,,,,,,2,,,58,75
121500,note_on,30,0,3,,,,,,,,,2,,,70,0
121530,note_on,0,0,3,,,,,,,,,2,,,70,75
121530,note_on,30,0,3,,,,,,,,,2,,,58,0
121560,note_on,30,0,3,,,,,,,,,2,,,70,0
121560,note_on,0,0,3,,,,,,,,,2,,,63,75
121590,note_on,30,0,3,,,,,,,,,2,,,63,0
121590,note_on,0,0,3,,,,,,,,,2,,,70,75
121620,note_on,0,0,3,,,,,,,,,2,,,65,75
121620,note_on,30,0,3,,,,,,,,,2,,,70,0
121620,note_on,0,0,1,,,,,,,,,0,,,89,88
121620,note_on,0,0,1,,,,,,,,,0,,,77,88
121620,note_on,0,0,1,,,,,,,,,0,,,79,0
121620,note_on,120,0,1,,,,,,,,,0,,,91,0
121650,note_on,0,0,3,,,,,,,,,2,,,70,75
121650,note_on,30,0,3,,,,,,,,,2,,,65,0
121680,note_on,30,0,3,,,,,,,,,2,,,70,0
121680,note_on,0,0,3,,,,,,,,,2,,,67,75
121680,note_on,0,0,1,,,,,,,,,0,,,75,88
121680,note_on,0,0,1,,,,,,,,,0,,,87,88
121680,note_on,60,0,1,,,,,,,,,0,,,89,0
121680,note_on,0,0,1,,,,,,,,,0,,,77,0
121710,note_on,0,0,3,,,,,,,,,2,,,70,75
121710,note_on,30,0,3,,,,,,,,,2,,,67,0
121740,control_change,0,0,1,,,,,,,,,0,64,0,,
121740,note_on,0,0,1,,,,,,,,,0,,,86,88
121740,note_on,0,0,3,,,,,,,,,2,,,68,75
121740,note_on,30,0,3,,,,,,,,,2,,,70,0
121740,note_on,0,0,1,,,,,,,,,0,,,74,88
121740,note_on,0,0,1,,,,,,,,,0,,,75,0
121740,note_on,60,0,1,,,,,,,,,0,,,87,0
121770,control_change,0,0,3,,,,,,,,,2,64,0,,
121770,note_on,30,0,3,,,,,,,,,2,,,68,0
121770,note_on,0,0,3,,,,,,,,,2,,,70,75
121800,note_on,60,0,1,,,,,,,,,0,,,86,0
121800,note_on,30,0,3,,,,,,,,,2,,,70,0
121800,note_on,0,0,1,,,,,,,,,0,,,75,49
121800,note_on,0,0,1,,,,,,,,,0,,,87,49
121800,control_change,0,0,1,,,,,,,,,0,64,127,,
121800,control_change,0,0,3,,,,,,,,,2,64,127,,
121800,note_on,0,0,3,,,,,,,,,2,,,67,36
121800,note_on,0,0,1,,,,,,,,,0,,,74,0
121830,note_on,30,0,1,,,,,,,,,0,,,87,0
121830,note_on,0,0,1,,,,,,,,,0,,,75,0
121830,note_on,0,0,1,,,,,,,,,0,,,82,49
121830,note_on,0,0,3,,,,,,,,,2,,,70,36
121830,note_on,30,0,3,,,,,,,,,2,,,67,0
121860,note_on,0,0,3,,,,,,,,,2,,,58,36
121860,note_on,30,0,3,,,,,,,,,2,,,70,0
121860,note_on,30,0,1,,,,,,,,,0,,,82,0
121860,note_on,0,0,1,,,,,,,,,0,,,91,75
121860,note_on,0,0,1,,,,,,,,,0,,,79,67
121890,note_on,0,0,3,,,,,,,,,2,,,70,36
121890,note_on,30,0,3,,,,,,,,,2,,,58,0
121920,note_on,0,0,3,,,,,,,,,2,,,63,36
121920,note_on,30,0,3,,,,,,,,,2,,,70,0
121950,note_on,0,0,3,,,,,,,,,2,,,70,36
121950,note_on,30,0,3,,,,,,,,,2,,,63,0
121980,note_on,0,0,1,,,,,,,,,0,,,77,49
121980,note_on,0,0,3,,,,,,,,,2,,,65,36
121980,note_on,30,0,3,,,,,,,,,2,,,70,0
121980,note_on,120,0,1,,,,,,,,,0,,,91,0
121980,note_on,0,0,1,,,,,,,,,0,,,79,0
121980,note_on,0,0,1,,,,,,,,,0,,,89,49
122010,note_on,0,0,3,,,,,,,,,2,,,70,36
122010,note_on,30,0,3,,,,,,,,,2,,,65,0
122040,note_on,30,0,3,,,,,,,,,2,,,70,0
122040,note_on,0,0,3,,,,,,,,,2,,,67,36
122040,note_on,0,0,1,,,,,,,,,0,,,87,49
122040,note_on,0,0,1,,,,,,,,,0,,,75,49
122040,note_on,0,0,1,,,,,,,,,0,,,77,0
122040,note_on,60,0,1,,,,,,,,,0,,,89,0
122070,note_on,30,0,3,,,,,,,,,2,,,67,0
122070,note_on,0,0,3,,,,,,,,,2,,,70,36
122100,control_change,0,0,1,,,,,,,,,0,64,0,,
122100,note_on,0,0,1,,,,,,,,,0,,,86,49
122100,note_on,0,0,1,,,,,,,,,0,,,74,49
122100,note_on,0,0,1,,,,,,,,,0,,,75,0
122100,note_on,60,0,1,,,,,,,,,0,,,87,0
122100,note_on,30,0,3,,,,,,,,,2,,,70,0
122100,note_on,0,0,3,,,,,,,,,2,,,68,36
122130,note_on,30,0,3,,,,,,,,,2,,,68,0
122130,note_on,0,0,3,,,,,,,,,2,,,70,36
122130,control_change,0,0,3,,,,,,,,,2,64,0,,
122160,control_change,0,0,1,,,,,,,,,0,64,127,,
122160,note_on,60,0,1,,,,,,,,,0,,,86,0
122160,note_on,0,0,1,,,,,,,,,0,,,74,0
122160,note_on,30,0,3,,,,,,,,,2,,,70,0
122160,note_on,0,0,3,,,,,,,,,2,,,63,36
122160,note_on,0,0,3,,,,,,,,,2,,,67,36
122160,note_on,0,0,1,,,,,,,,,0,,,87,49
122190,note_on,0,0,1,,,,,,,,,0,,,91,49
122190,note_on,30,0,1,,,,,,,,,0,,,87,0
122220,note_on,0,0,1,,,,,,,,,0,,,81,49
122220,note_on,30,0,1,,,,,,,,,0,,,91,0
122250,note_on,0,0,1,,,,,,,,,0,,,82,49
122250,note_on,30,0,1,,,,,,,,,0,,,81,0
122280,note_on,0,0,3,,,,,,,,,2,,,63,0
122280,note_on,0,0,1,,,,,,,,,0,,,84,49
122280,note_on,30,0,1,,,,,,,,,0,,,82,0
122280,note_on,120,0,3,,,,,,,,,2,,,67,0
122310,note_on,30,0,1,,,,,,,,,0,,,84,0
122310,note_on,0,0,1,,,,,,,,,0,,,82,49
122340,note_on,30,0,1,,,,,,,,,0,,,82,0
122340,note_on,0,0,1,,,,,,,,,0,,,74,49
122370,note_on,30,0,1,,,,,,,,,0,,,74,0
122370,note_on,0,0,1,,,,,,,,,0,,,75,49
122400,note_on,30,0,1,,,,,,,,,0,,,75,0
122400,note_on,0,0,1,,,,,,,,,0,,,80,62
122430,note_on,30,0,1,,,,,,,,,0,,,80,0
122430,note_on,0,0,1,,,,,,,,,0,,,79,62
122460,note_on,30,0,1,,,,,,,,,0,,,79,0
122460,note_on,0,0,1,,,,,,,,,0,,,69,62
122490,note_on,30,0,1,,,,,,,,,0,,,69,0
122490,note_on,0,0,1,,,,,,,,,0,,,70,62
122520,note_on,30,0,1,,,,,,,,,0,,,70,0
122520,note_on,0,0,1,,,,,,,,,0,,,77,62
122550,note_on,30,0,1,,,,,,,,,0,,,77,0
122550,note_on,0,0,1,,,,,,,,,0,,,75,62
122580,note_on,30,0,1,,,,,,,,,0,,,75,0
122580,note_on,0,0,1,,,,,,,,,0,,,66,62
122610,note_on,30,0,1,,,,,,,,,0,,,66,0
122610,note_on,0,0,1,,,,,,,,,0,,,67,62
122640,note_on,30,0,1,,,,,,,,,0,,,67,0
122640,note_on,0,0,1,,,,,,,,,0,,,72,75
122670,note_on,30,0,1,,,,,,,,,0,,,72,0
122670,note_on,0,0,1,,,,,,,,,0,,,70,75
122700,note_on,0,0,1,,,,,,,,,0,,,62,75
122700,note_on,30,0,1,,,,,,,,,0,,,70,0
122730,note_on,30,0,1,,,,,,,,,0,,,62,0
122730,note_on,0,0,1,,,,,,,,,0,,,63,75
122760,note_on,30,0,1,,,,,,,,,0,,,63,0
122760,note_on,0,0,1,,,,,,,,,0,,,68,75
122790,note_on,30,0,1,,,,,,,,,0,,,68,0
122790,note_on,0,0,1,,,,,,,,,0,,,67,75
122820,note_on,30,0,1,,,,,,,,,0,,,67,0
122820,note_on,0,0,1,,,,,,,,,0,,,57,75
122850,note_on,0,0,1,,,,,,,,,0,,,58,75
122850,note_on,30,0,1,,,,,,,,,0,,,57,0
122850,control_change,0,0,1,,,,,,,,,0,64,0,,
122880,note_on,0,0,3,,,,,,,,,2,,,54,75
122880,note_on,0,0,3,,,,,,,,,2,,,51,75
122880,note_on,0,0,3,,,,,,,,,2,,,48,75
122880,note_on,600,0,3,,,,,,,,,2,,,45,75
122880,note_on,30,0,1,,,,,,,,,0,,,58,0
122880,control_change,0,0,1,,,,,,,,,0,64,127,,
122880,note_on,0,0,1,,,,,,,,,0,,,67,88
122910,note_on,0,0,1,,,,,,,,,0,,,57,88
122910,note_on,30,0,1,,,,,,,,,0,,,67,0
122940,note_on,0,0,1,,,,,,,,,0,,,60,88
122940,note_on,30,0,1,,,,,,,,,0,,,57,0
122970,note_on,30,0,1,,,,,,,,,0,,,60,0
122970,note_on,0,0,1,,,,,,,,,0,,,63,88
123000,note_on,30,0,1,,,,,,,,,0,,,63,0
123000,note_on,0,0,1,,,,,,,,,0,,,67,75
123030,note_on,30,0,1,,,,,,,,,0,,,67,0
123030,note_on,0,0,1,,,,,,,,,0,,,69,75
123060,note_on,0,0,1,,,,,,,,,0,,,72,75
123060,note_on,30,0,1,,,,,,,,,0,,,69,0
123090,note_on,0,0,1,,,,,,,,,0,,,75,75
123090,note_on,30,0,1,,,,,,,,,0,,,72,0
123120,note_on,30,0,1,,,,,,,,,0,,,75,0
123120,control_change,0,0,1,,,,,,,,,0,64,0,,
123120,note_on,0,0,1,,,,,,,,,0,,,78,75
123126,note_on,6,0,1,,,,,,,,,0,,,78,0
123180,note_on,300,0,3,,,,,,,,,2,,,54,0
123180,note_on,0,0,3,,,,,,,,,2,,,45,0
123180,note_on,0,0,3,,,,,,,,,2,,,48,0
123180,note_on,0,0,3,,,,,,,,,2,,,51,0
123240,note_on,114,0,1,,,,,,,,,0,,,70,114
123240,note_on,0,0,1,,,,,,,,,0,,,77,114
123240,note_on,0,0,1,,,,,,,,,0,,,80,114
123240,note_on,0,0,1,,,,,,,,,0,,,82,114
123240,control_change,60,0,3,,,,,,,,,2,64,127,,
123240,note_on,0,0,3,,,,,,,,,2,,,50,101
123270,note_on,30,0,3,,,,,,,,,2,,,50,0
123270,note_on,0,0,3,,,,,,,,,2,,,38,101
123300,note_on,0,0,3,,,,,,,,,2,,,41,101
123300,note_on,30,0,3,,,,,,,,,2,,,38,0
123330,note_on,30,0,3,,,,,,,,,2,,,41,0
123330,note_on,0,0,3,,,,,,,,,2,,,44,101
123360,note_on,30,0,3,,,,,,,,,2,,,44,0
123360,note_on,0,0,3,,,,,,,,,2,,,46,88
123390,note_on,30,0,3,,,,,,,,,2,,,46,0
123390,note_on,0,0,3,,,,,,,,,2,,,50,88
123420,note_on,30,0,3,,,,,,,,,2,,,50,0
123420,note_on,0,0,3,,,,,,,,,2,,,53,88
123450,note_on,30,0,3,,,,,,,,,2,,,53,0
123450,note_on,0,0,3,,,,,,,,,2,,,58,88
123480,note_on,0,0,3,,,,,,,,,2,,,62,88
123480,note_on,30,0,3,,,,,,,,,2,,,58,0
123480,control_change,0,0,3,,,,,,,,,2,64,0,,
123486,note_on,6,0,3,,,,,,,,,2,,,62,0
123540,note_on,0,0,1,,,,,,,,,0,,,70,0
123540,note_on,0,0,1,,,,,,,,,0,,,77,0
123540,note_on,0,0,1,,,,,,,,,0,,,80,0
123540,note_on,300,0,1,,,,,,,,,0,,,82,0
123600,note_on,0,0,3,,,,,,,,,2,,,63,36
123600,control_change,60,0,1,,,,,,,,,0,64,127,,
123600,control_change,114,0,3,,,,,,,,,2,64,127,,
123600,note_on,0,0,1,,,,,,,,,0,,,79,49
123630,note_on,30,0,1,,,,,,,,,0,,,79,0
123630,note_on,0,0,1,,,,,,,,,0,,,75,49
123660,note_on,60,0,3,,,,,,,,,2,,,63,0
123660,note_on,0,0,3,,,,,,,,,2,,,56,36
123660,note_on,30,0,1,,,,,,,,,0,,,75,0
123660,note_on,0,0,1,,,,,,,,,0,,,72,49
123690,note_on,30,0,1,,,,,,,,,0,,,72,0
123690,note_on,0,0,1,,,,,,,,,0,,,68,49
123720,note_on,30,0,1,,,,,,,,,0,,,68,0
123720,note_on,60,0,3,,,,,,,,,2,,,56,0
123720,note_on,0,0,3,,,,,,,,,2,,,58,36
123720,note_on,0,0,1,,,,,,,,,0,,,67,49
123840,control_change,0,0,3,,,,,,,,,2,64,0,,
123840,note_on,120,0,1,,,,,,,,,0,,,67,0
123840,note_on,0,0,1,,,,,,,,,0,,,62,49
123840,note_on,0,0,1,,,,,,,,,0,,,70,49
123840,note_on,0,0,3,,,,,,,,,2,,,56,36
123840,note_on,0,0,3,,,,,,,,,2,,,46,36
123840,note_on,120,0,3,,,,,,,,,2,,,58,0
123840,control_change,0,0,1,,,,,,,,,0,64,0,,
123960,control_change,0,0,3,,,,,,,,,2,64,127,,
123960,note_on,0,0,3,,,,,,,,,2,,,46,0
123960,note_on,120,0,3,,,,,,,,,2,,,56,0
123960,note_on,0,0,4,,,,,,,,,3,,,39,36
123960,note_on,120,0,1,,,,,,,,,0,,,70,0
123960,control_change,0,0,1,,,,,,,,,0,64,127,,
123960,control_change,21600,0,4,,,,,,,,,3,64,127,,
123960,note_on,0,0,1,,,,,,,,,0,,,62,0
123960,note_on,0,0,1,,,,,,,,,0,,,63,36
123990,note_on,30,0,3,,,,,,,,,2,,,51,36
124020,note_on,0,0,3,,,,,,,,,2,,,43,36
124020,note_on,30,0,3,,,,,,,,,2,,,51,0
124050,note_on,0,0,3,,,,,,,,,2,,,51,36
124050,note_on,30,0,3,,,,,,,,,2,,,43,0
124080,note_on,0,0,3,,,,,,,,,2,,,46,36
124080,note_on,30,0,3,,,,,,,,,2,,,51,0
124080,note_on,120,0,1,,,,,,,,,0,,,63,0
124080,note_on,0,0,1,,,,,,,,,0,,,55,36
124080,note_on,0,0,1,,,,,,,,,0,,,67,36
124110,note_on,0,0,3,,,,,,,,,2,,,51,36
124110,note_on,30,0,3,,,,,,,,,2,,,46,0
124140,note_on,30,0,3,,,,,,,,,2,,,51,0
124140,note_on,0,0,3,,,,,,,,,2,,,49,36
124170,note_on,0,0,3,,,,,,,,,2,,,51,36
124170,note_on,30,0,3,,,,,,,,,2,,,49,0
124200,note_on,0,0,3,,,,,,,,,2,,,46,36
124200,note_on,30,0,3,,,,,,,,,2,,,51,0
124200,note_on,0,0,1,,,,,,,,,0,,,70,36
124200,note_on,0,0,1,,,,,,,,,0,,,58,36
124200,note_on,0,0,1,,,,,,,,,0,,,55,0
124200,note_on,120,0,1,,,,,,,,,0,,,67,0
124230,note_on,0,0,3,,,,,,,,,2,,,51,36
124230,note_on,30,0,3,,,,,,,,,2,,,46,0
124260,note_on,30,0,3,,,,,,,,,2,,,51,0
124260,note_on,0,0,3,,,,,,,,,2,,,43,36
124290,note_on,30,0,3,,,,,,,,,2,,,43,0
124290,note_on,0,0,3,,,,,,,,,2,,,51,36
124320,control_change,0,0,4,,,,,,,,,3,64,0,,
124320,note_on,30,0,3,,,,,,,,,2,,,51,0
124320,control_change,0,0,3,,,,,,,,,2,64,127,,
124320,note_on,360,0,4,,,,,,,,,3,,,39,0
124320,note_on,0,0,1,,,,,,,,,0,,,63,54
124320,note_on,0,0,1,,,,,,,,,0,,,58,0
124320,note_on,120,0,1,,,,,,,,,0,,,70,0
124320,note_on,0,0,4,,,,,,,,,3,,,39,36
124320,note_on,0,0,1,,,,,,,,,0,,,75,62
124350,note_on,30,0,3,,,,,,,,,2,,,51,36
124380,note_on,0,0,3,,,,,,,,,2,,,43,36
124380,note_on,30,0,3,,,,,,,,,2,,,51,0
124410,note_on,30,0,3,,,,,,,,,2,,,43,0
124410,note_on,0,0,3,,,,,,,,,2,,,51,36
124440,note_on,0,0,3,,,,,,,,,2,,,46,36
124440,note_on,30,0,3,,,,,,,,,2,,,51,0
124440,note_on,120,0,1,,,,,,,,,0,,,75,0
124440,note_on,0,0,1,,,,,,,,,0,,,63,0
124440,note_on,0,0,1,,,,,,,,,0,,,67,36
124440,note_on,0,0,1,,,,,,,,,0,,,79,36
124440,control_change,0,0,1,,,,,,,,,0,64,0,,
124470,note_on,30,0,3,,,,,,,,,2,,,46,0
124470,note_on,0,0,3,,,,,,,,,2,,,51,36
124500,note_on,30,0,3,,,,,,,,,2,,,51,0
124500,note_on,0,0,3,,,,,,,,,2,,,49,36
124530,note_on,30,0,3,,,,,,,,,2,,,49,0
124530,note_on,0,0,3,,,,,,,,,2,,,51,36
124560,note_on,30,0,3,,,,,,,,,2,,,51,0
124560,note_on,0,0,3,,,,,,,,,2,,,46,36
124560,note_on,120,0,1,,,,,,,,,0,,,79,0
124560,note_on,0,0,1,,,,,,,,,0,,,67,0
124590,note_on,30,0,3,,,,,,,,,2,,,46,0
124590,note_on,0,0,3,,,,,,,,,2,,,51,36
124620,note_on,0,0,3,,,,,,,,,2,,,43,36
124620,note_on,30,0,3,,,,,,,,,2,,,51,0
124650,note_on,0,0,3,,,,,,,,,2,,,51,36
124650,note_on,30,0,3,,,,,,,,,2,,,43,0
124650,control_change,0,0,3,,,,,,,,,2,64,0,,
124680,note_on,30,0,3,,,,,,,,,2,,,51,0
124680,control_change,0,0,3,,,,,,,,,2,64,127,,
124680,note_on,360,0,4,,,,,,,,,3,,,39,0
124680,note_on,0,0,4,,,,,,,,,3,,,39,36
124680,note_on,0,0,1,,,,,,,,,0,,,63,36
124680,control_change,120,0,1,,,,,,,,,0,64,127,,
124710,note_on,30,0,3,,,,,,,,,2,,,51,36
124740,note_on,30,0,3,,,,,,,,,2,,,51,0
124740,note_on,0,0,3,,,,,,,,,2,,,44,36
124770,note_on,0,0,3,,,,,,,,,2,,,51,36
124770,note_on,30,0,3,,,,,,,,,2,,,44,0
124800,note_on,0,0,3,,,,,,,,,2,,,48,36
124800,note_on,0,0,1,,,,,,,,,0,,,68,36
124800,note_on,0,0,1,,,,,,,,,0,,,56,36
124800,note_on,120,0,1,,,,,,,,,0,,,63,0
124800,note_on,30,0,3,,,,,,,,,2,,,51,0
124830,note_on,0,0,3,,,,,,,,,2,,,51,36
124830,note_on,30,0,3,,,,,,,,,2,,,48,0
124860,note_on,0,0,3,,,,,,,,,2,,,50,36
124860,note_on,30,0,3,,,,,,,,,2,,,51,0
124890,note_on,0,0,3,,,,,,,,,2,,,51,36
124890,note_on,30,0,3,,,,,,,,,2,,,50,0
124920,note_on,0,0,1,,,,,,,,,0,,,60,36
124920,note_on,0,0,1,,,,,,,,,0,,,72,36
124920,note_on,0,0,1,,,,,,,,,0,,,56,0
124920,note_on,30,0,3,,,,,,,,,2,,,51,0
124920,note_on,0,0,3,,,,,,,,,2,,,48,36
124920,note_on,120,0,1,,,,,,,,,0,,,68,0
124950,note_on,30,0,3,,,,,,,,,2,,,48,0
124950,note_on,0,0,3,,,,,,,,,2,,,51,36
124980,note_on,30,0,3,,,,,,,,,2,,,51,0
124980,note_on,0,0,3,,,,,,,,,2,,,44,36
125010,note_on,0,0,3,,,,,,,,,2,,,51,36
125010,note_on,30,0,3,,,,,,,,,2,,,44,0
125040,note_on,0,0,1,,,,,,,,,0,,,75,62
125040,note_on,0,0,1,,,,,,,,,0,,,63,54
125040,note_on,0,0,1,,,,,,,,,0,,,60,0
125040,note_on,120,0,1,,,,,,,,,0,,,72,0
125040,note_on,360,0,4,,,,,,,,,3,,,39,0
125040,note_on,0,0,4,,,,,,,,,3,,,39,36
125040,note_on,30,0,3,,,,,,,,,2,,,51,0
125070,note_on,30,0,3,,,,,,,,,2,,,51,36
125100,note_on,0,0,3,,,,,,,,,2,,,44,36
125100,note_on,30,0,3,,,,,,,,,2,,,51,0
125130,note_on,0,0,3,,,,,,,,,2,,,51,36
125130,note_on,30,0,3,,,,,,,,,2,,,44,0
125160,note_on,120,0,1,,,,,,,,,0,,,75,0
125160,note_on,0,0,1,,,,,,,,,0,,,63,0
125160,note_on,0,0,1,,,,,,,,,0,,,68,36
125160,note_on,0,0,1,,,,,,,,,0,,,80,36
125160,control_change,0,0,1,,,,,,,,,0,64,0,,
125160,note_on,0,0,3,,,,,,,,,2,,,48,36
125160,note_on,30,0,3,,,,,,,,,2,,,51,0
125190,note_on,0,0,3,,,,,,,,,2,,,51,36
125190,note_on,30,0,3,,,,,,,,,2,,,48,0
125220,note_on,30,0,3,,,,,,,,,2,,,51,0
125220,note_on,0,0,3,,,,,,,,,2,,,50,36
125250,note_on,30,0,3,,,,,,,,,2,,,50,0
125250,note_on,0,0,3,,,,,,,,,2,,,51,36
125280,note_on,120,0,1,,,,,,,,,0,,,80,0
125280,note_on,30,0,3,,,,,,,,,2,,,51,0
125280,note_on,0,0,3,,,,,,,,,2,,,48,36
125280,note_on,0,0,1,,,,,,,,,0,,,68,0
125310,note_on,30,0,3,,,,,,,,,2,,,48,0
125310,note_on,0,0,3,,,,,,,,,2,,,51,36
125340,note_on,30,0,3,,,,,,,,,2,,,51,0
125340,note_on,0,0,3,,,,,,,,,2,,,44,36
125370,note_on,30,0,3,,,,,,,,,2,,,44,0
125370,control_change,0,0,3,,,,,,,,,2,64,0,,
125370,note_on,0,0,3,,,,,,,,,2,,,51,36
125400,control_change,0,0,3,,,,,,,,,2,64,127,,
125400,note_on,360,0,4,,,,,,,,,3,,,39,0
125400,note_on,0,0,4,,,,,,,,,3,,,39,36
125400,note_on,30,0,3,,,,,,,,,2,,,51,0
125400,control_change,120,0,1,,,,,,,,,0,64,127,,
125400,note_on,0,0,1,,,,,,,,,0,,,71,88
125400,note_on,0,0,1,,,,,,,,,0,,,83,88
125430,note_on,30,0,3,,,,,,,,,2,,,50,36
125460,note_on,30,0,3,,,,,,,,,2,,,50,0
125460,note_on,0,0,3,,,,,,,,,2,,,41,36
125490,note_on,0,0,3,,,,,,,,,2,,,50,36
125490,note_on,30,0,3,,,,,,,,,2,,,41,0
125520,note_on,0,0,3,,,,,,,,,2,,,44,36
125520,note_on,120,0,1,,,,,,,,,0,,,71,0
125520,note_on,30,0,3,,,,,,,,,2,,,50,0
125550,note_on,0,0,3,,,,,,,,,2,,,50,36
125550,note_on,30,0,1,,,,,,,,,0,,,83,0
125550,note_on,0,0,1,,,,,,,,,0,,,80,75
125550,note_on,30,0,3,,,,,,,,,2,,,44,0
125580,note_on,0,0,1,,,,,,,,,0,,,77,62
125580,note_on,30,0,1,,,,,,,,,0,,,80,0
125580,note_on,30,0,3,,,,,,,,,2,,,50,0
125580,note_on,0,0,3,,,,,,,,,2,,,47,36
125610,note_on,0,0,1,,,,,,,,,0,,,74,62
125610,note_on,30,0,3,,,,,,,,,2,,,47,0
125610,note_on,0,0,3,,,,,,,,,2,,,50,36
125610,note_on,30,0,1,,,,,,,,,0,,,77,0
125640,note_on,0,0,1,,,,,,,,,0,,,71,49
125640,note_on,30,0,3,,,,,,,,,2,,,50,0
125640,note_on,0,0,3,,,,,,,,,2,,,44,36
125640,note_on,30,0,1,,,,,,,,,0,,,74,0
125670,note_on,0,0,3,,,,,,,,,2,,,50,36
125670,note_on,30,0,3,,,,,,,,,2,,,44,0
125670,note_on,30,0,1,,,,,,,,,0,,,71,0
125670,note_on,0,0,1,,,,,,,,,0,,,68,49
125700,note_on,30,0,1,,,,,,,,,0,,,68,0
125700,note_on,0,0,1,,,,,,,,,0,,,65,49
125700,note_on,30,0,3,,,,,,,,,2,,,50,0
125700,note_on,0,0,3,,,,,,,,,2,,,41,36
125730,note_on,30,0,1,,,,,,,,,0,,,65,0
125730,control_change,0,0,1,,,,,,,,,0,64,0,,
125730,note_on,0,0,1,,,,,,,,,0,,,62,49
125730,note_on,30,0,3,,,,,,,,,2,,,41,0
125730,control_change,0,0,3,,,,,,,,,2,64,0,,
125730,note_on,0,0,3,,,,,,,,,2,,,50,36
125760,control_change,0,0,4,,,,,,,,,3,64,0,,
125760,note_on,360,0,4,,,,,,,,,3,,,39,0
125760,control_change,0,0,3,,,,,,,,,2,64,127,,
125760,note_on,30,0,3,,,,,,,,,2,,,50,0
125760,note_on,30,0,1,,,,,,,,,0,,,62,0
125760,note_on,0,0,4,,,,,,,,,3,,,39,36
125760,note_on,0,0,1,,,,,,,,,0,,,63,49
125790,note_on,30,0,3,,,,,,,,,2,,,51,36
125820,note_on,30,0,3,,,,,,,,,2,,,51,0
125820,note_on,0,0,3,,,,,,,,,2,,,43,36
125850,note_on,30,0,3,,,,,,,,,2,,,43,0
125850,note_on,0,0,3,,,,,,,,,2,,,51,36
125880,note_on,120,0,1,,,,,,,,,0,,,63,0
125880,note_on,0,0,3,,,,,,,,,2,,,46,36
125880,note_on,30,0,3,,,,,,,,,2,,,51,0
125910,note_on,30,0,3,,,,,,,,,2,,,46,0
125910,note_on,0,0,3,,,,,,,,,2,,,51,36
125940,note_on,30,0,3,,,,,,,,,2,,,51,0
125940,note_on,0,0,3,,,,,,,,,2,,,50,36
125970,note_on,0,0,3,,,,,,,,,2,,,51,36
125970,note_on,30,0,3,,,,,,,,,2,,,50,0
126000,note_on,0,0,3,,,,,,,,,2,,,46,36
126000,note_on,30,0,3,,,,,,,,,2,,,51,0
126030,note_on,30,0,3,,,,,,,,,2,,,46,0
126030,note_on,0,0,3,,,,,,,,,2,,,51,36
126060,note_on,30,0,3,,,,,,,,,2,,,51,0
126060,note_on,0,0,3,,,,,,,,,2,,,43,36
126090,note_on,30,0,3,,,,,,,,,2,,,43,0
126090,control_change,0,0,3,,,,,,,,,2,64,0,,
126090,note_on,0,0,3,,,,,,,,,2,,,51,36
126120,note_on,30,0,3,,,,,,,,,2,,,51,0
126120,control_change,0,0,3,,,,,,,,,2,64,127,,
126120,note_on,0,0,3,,,,,,,,,2,,,27,49
126120,control_change,240,0,1,,,,,,,,,0,64,127,,
126120,note_on,360,0,4,,,,,,,,,3,,,39,0
126120,note_on,33300,0,2,,,,,,,,,1,,,51,36
126120,note_on,0,0,3,,,,,,,,,2,,,39,49
126150,note_on,30,0,1,,,,,,,,,0,,,63,36
126180,note_on,30,0,1,,,,,,,,,0,,,63,0
126180,note_on,0,0,1,,,,,,,,,0,,,55,36
126210,note_on,30,0,1,,,,,,,,,0,,,55,0
126210,note_on,0,0,1,,,,,,,,,0,,,63,36
126240,note_on,120,0,3,,,,,,,,,2,,,39,0
126240,note_on,0,0,1,,,,,,,,,0,,,58,36
126240,note_on,30,0,1,,,,,,,,,0,,,63,0
126240,note_on,0,0,3,,,,,,,,,2,,,27,0
126240,note_on,0,0,3,,,,,,,,,2,,,31,49
126270,note_on,0,0,1,,,,,,,,,0,,,63,36
126270,note_on,30,0,1,,,,,,,,,0,,,58,0
126300,note_on,0,0,1,,,,,,,,,0,,,61,36
126300,note_on,30,0,1,,,,,,,,,0,,,63,0
126330,note_on,30,0,1,,,,,,,,,0,,,61,0
126330,note_on,0,0,1,,,,,,,,,0,,,63,36
126360,note_on,120,0,3,,,,,,,,,2,,,31,0
126360,note_on,0,0,3,,,,,,,,,2,,,34,49
126360,note_on,0,0,1,,,,,,,,,0,,,58,36
126360,note_on,30,0,1,,,,,,,,,0,,,63,0
126390,note_on,30,0,1,,,,,,,,,0,,,58,0
126390,note_on,0,0,1,,,,,,,,,0,,,63,36
126420,note_on,0,0,1,,,,,,,,,0,,,55,36
126420,note_on,30,0,1,,,,,,,,,0,,,63,0
126450,note_on,30,0,1,,,,,,,,,0,,,55,0
126450,note_on,0,0,1,,,,,,,,,0,,,63,36
126480,note_on,30,0,1,,,,,,,,,0,,,63,0
126480,note_on,0,0,3,,,,,,,,,2,,,39,75
126480,note_on,120,0,3,,,,,,,,,2,,,34,0
126480,note_on,0,0,2,,,,,,,,,1,,,51,36
126480,note_on,360,0,2,,,,,,,,,1,,,51,0
126510,note_on,30,0,1,,,,,,,,,0,,,63,36
126540,note_on,0,0,1,,,,,,,,,0,,,55,36
126540,note_on,30,0,1,,,,,,,,,0,,,63,0
126570,note_on,0,0,1,,,,,,,,,0,,,63,36
126570,note_on,30,0,1,,,,,,,,,0,,,55,0
126600,note_on,0,0,3,,,,,,,,,2,,,43,49
126600,control_change,0,0,3,,,,,,,,,2,64,0,,
126600,note_on,120,0,3,,,,,,,,,2,,,39,0
126600,note_on,0,0,1,,,,,,,,,0,,,58,36
126600,note_on,30,0,1,,,,,,,,,0,,,63,0
126630,note_on,0,0,1,,,,,,,,,0,,,63,36
126630,note_on,30,0,1,,,,,,,,,0,,,58,0
126660,note_on,0,0,1,,,,,,,,,0,,,61,36
126660,note_on,30,0,1,,,,,,,,,0,,,63,0
126690,note_on,0,0,1,,,,,,,,,0,,,63,36
126690,note_on,30,0,1,,,,,,,,,0,,,61,0
126720,note_on,120,0,3,,,,,,,,,2,,,43,0
126720,note_on,30,0,1,,,,,,,,,0,,,63,0
126720,note_on,0,0,1,,,,,,,,,0,,,58,36
126750,note_on,30,0,1,,,,,,,,,0,,,58,0
126750,note_on,0,0,1,,,,,,,,,0,,,63,36
126780,note_on,30,0,1,,,,,,,,,0,,,63,0
126780,note_on,0,0,1,,,,,,,,,0,,,55,36
126810,note_on,30,0,1,,,,,,,,,0,,,55,0
126810,control_change,0,0,1,,,,,,,,,0,64,0,,
126810,note_on,0,0,1,,,,,,,,,0,,,63,36
126840,note_on,0,0,2,,,,,,,,,1,,,51,36
126840,control_change,120,0,3,,,,,,,,,2,64,127,,
126840,note_on,0,0,3,,,,,,,,,2,,,27,49
126840,note_on,0,0,3,,,,,,,,,2,,,39,49
126840,control_change,0,0,1,,,,,,,,,0,64,127,,
126840,note_on,30,0,1,,,,,,,,,0,,,63,0
126840,note_on,360,0,2,,,,,,,,,1,,,51,0
126870,note_on,30,0,1,,,,,,,,,0,,,63,36
126900,note_on,30,0,1,,,,,,,,,0,,,63,0
126900,note_on,0,0,1,,,,,,,,,0,,,56,36
126930,note_on,30,0,1,,,,,,,,,0,,,56,0
126930,note_on,0,0,1,,,,,,,,,0,,,63,36
126960,note_on,30,0,1,,,,,,,,,0,,,63,0
126960,note_on,0,0,1,,,,,,,,,0,,,60,36
126960,note_on,0,0,3,,,,,,,,,2,,,27,0
126960,note_on,0,0,3,,,,,,,,,2,,,32,49
126960,note_on,120,0,3,,,,,,,,,2,,,39,0
126990,note_on,30,0,1,,,,,,,,,0,,,60,0
126990,note_on,0,0,1,,,,,,,,,0,,,63,36
127020,note_on,30,0,1,,,,,,,,,0,,,63,0
127020,note_on,0,0,1,,,,,,,,,0,,,62,36
127050,note_on,30,0,1,,,,,,,,,0,,,62,0
127050,note_on,0,0,1,,,,,,,,,0,,,63,36
127080,note_on,0,0,3,,,,,,,,,2,,,36,49
127080,note_on,30,0,1,,,,,,,,,0,,,63,0
127080,note_on,120,0,3,,,,,,,,,2,,,32,0
127080,note_on,0,0,1,,,,,,,,,0,,,60,36
127110,note_on,30,0,1,,,,,,,,,0,,,60,0
127110,note_on,0,0,1,,,,,,,,,0,,,63,36
127140,note_on,30,0,1,,,,,,,,,0,,,63,0
127140,note_on,0,0,1,,,,,,,,,0,,,56,36
127170,note_on,30,0,1,,,,,,,,,0,,,56,0
127170,note_on,0,0,1,,,,,,,,,0,,,63,36
127200,note_on,120,0,3,,,,,,,,,2,,,36,0
127200,note_on,0,0,3,,,,,,,,,2,,,39,75
127200,note_on,360,0,2,,,,,,,,,1,,,51,0
127200,note_on,0,0,2,,,,,,,,,1,,,51,36
127200,note_on,30,0,1,,,,,,,,,0,,,63,0
127200,control_change,0,0,1,,,,,,,,,0,64,127,,
127230,note_on,30,0,1,,,,,,,,,0,,,63,36
127260,note_on,0,0,1,,,,,,,,,0,,,56,36
127260,note_on,30,0,1,,,,,,,,,0,,,63,0
127290,note_on,0,0,1,,,,,,,,,0,,,63,36
127290,note_on,30,0,1,,,,,,,,,0,,,56,0
127320,note_on,30,0,1,,,,,,,,,0,,,63,0
127320,note_on,0,0,1,,,,,,,,,0,,,60,36
127320,note_on,0,0,3,,,,,,,,,2,,,44,49
127320,control_change,0,0,3,,,,,,,,,2,64,0,,
127320,note_on,120,0,3,,,,,,,,,2,,,39,0
127350,note_on,30,0,1,,,,,,,,,0,,,60,0
127350,note_on,0,0,1,,,,,,,,,0,,,63,36
127380,note_on,30,0,1,,,,,,,,,0,,,63,0
127380,note_on,0,0,1,,,,,,,,,0,,,62,36
127410,note_on,0,0,1,,,,,,,,,0,,,63,36
127410,note_on,30,0,1,,,,,,,,,0,,,62,0
127440,note_on,0,0,1,,,,,,,,,0,,,60,36
127440,note_on,30,0,1,,,,,,,,,0,,,63,0
127440,note_on,120,0,3,,,,,,,,,2,,,44,0
127470,note_on,0,0,1,,,,,,,,,0,,,63,36
127470,note_on,30,0,1,,,,,,,,,0,,,60,0
127500,note_on,0,0,1,,,,,,,,,0,,,56,36
127500,note_on,30,0,1,,,,,,,,,0,,,63,0
127530,note_on,0,0,1,,,,,,,,,0,,,63,36
127530,control_change,0,0,1,,,,,,,,,0,64,0,,
127530,note_on,30,0,1,,,,,,,,,0,,,56,0
127560,control_change,0,0,1,,,,,,,,,0,64,127,,
127560,note_on,30,0,1,,,,,,,,,0,,,63,0
127560,note_on,360,0,2,,,,,,,,,1,,,51,0
127560,note_on,0,0,2,,,,,,,,,1,,,51,36
127560,note_on,0,0,3,,,,,,,,,2,,,47,88
127560,control_change,120,0,3,,,,,,,,,2,64,127,,
127590,note_on,30,0,1,,,,,,,,,0,,,62,36
127620,note_on,30,0,1,,,,,,,,,0,,,62,0
127620,note_on,0,0,1,,,,,,,,,0,,,53,36
127650,note_on,0,0,1,,,,,,,,,0,,,62,36
127650,note_on,30,0,1,,,,,,,,,0,,,53,0
127680,note_on,0,0,1,,,,,,,,,0,,,56,36
127680,note_on,30,0,1,,,,,,,,,0,,,62,0
127710,note_on,30,0,1,,,,,,,,,0,,,56,0
127710,note_on,0,0,1,,,,,,,,,0,,,62,36
127740,note_on,0,0,1,,,,,,,,,0,,,59,36
127740,note_on,0,0,3,,,,,,,,,2,,,44,49
127740,note_on,180,0,3,,,,,,,,,2,,,47,0
127740,note_on,30,0,1,,,,,,,,,0,,,62,0
127770,note_on,30,0,1,,,,,,,,,0,,,59,0
127770,note_on,0,0,1,,,,,,,,,0,,,62,36
127800,note_on,30,0,1,,,,,,,,,0,,,62,0
127800,note_on,60,0,3,,,,,,,,,2,,,44,0
127800,note_on,0,0,1,,,,,,,,,0,,,56,36
127800,note_on,0,0,3,,,,,,,,,2,,,41,49
127830,note_on,30,0,1,,,,,,,,,0,,,56,0
127830,note_on,0,0,1,,,,,,,,,0,,,62,36
127860,note_on,30,0,1,,,,,,,,,0,,,62,0
127860,note_on,0,0,3,,,,,,,,,2,,,38,49
127860,control_change,0,0,3,,,,,,,,,2,64,0,,
127860,note_on,60,0,3,,,,,,,,,2,,,41,0
127860,note_on,0,0,1,,,,,,,,,0,,,53,36
127890,control_change,0,0,1,,,,,,,,,0,64,0,,
127890,note_on,0,0,1,,,,,,,,,0,,,62,36
127890,note_on,30,0,1,,,,,,,,,0,,,53,0
127920,note_on,30,0,1,,,,,,,,,0,,,62,0
127920,control_change,0,0,1,,,,,,,,,0,64,127,,
127920,note_on,0,0,2,,,,,,,,,1,,,51,36
127920,note_on,0,0,3,,,,,,,,,2,,,39,49
127920,control_change,0,0,3,,,,,,,,,2,64,127,,
127920,note_on,60,0,3,,,,,,,,,2,,,38,0
127920,note_on,360,0,2,,,,,,,,,1,,,51,0
127950,note_on,30,0,1,,,,,,,,,0,,,63,36
127980,note_on,30,0,1,,,,,,,,,0,,,63,0
127980,note_on,0,0,1,,,,,,,,,0,,,55,36
128010,note_on,30,0,1,,,,,,,,,0,,,55,0
128010,note_on,0,0,1,,,,,,,,,0,,,63,36
128040,note_on,120,0,3,,,,,,,,,2,,,39,0
128040,note_on,30,0,1,,,,,,,,,0,,,63,0
128040,note_on,0,0,1,,,,,,,,,0,,,58,36
128070,note_on,0,0,1,,,,,,,,,0,,,63,36
128070,note_on,30,0,1,,,,,,,,,0,,,58,0
128100,note_on,0,0,1,,,,,,,,,0,,,62,36
128100,note_on,60,0,3,,,,,,,,,2,,,39,75
128100,note_on,30,0,1,,,,,,,,,0,,,63,0
128106,note_on,6,0,3,,,,,,,,,2,,,39,0
128130,note_on,30,0,1,,,,,,,,,0,,,62,0
128130,note_on,0,0,1,,,,,,,,,0,,,63,36
128160,note_on,54,0,3,,,,,,,,,2,,,41,49
128160,note_on,30,0,1,,,,,,,,,0,,,63,0
128160,note_on,0,0,1,,,,,,,,,0,,,61,36
128166,note_on,6,0,3,,,,,,,,,2,,,41,0
128190,note_on,0,0,1,,,,,,,,,0,,,63,36
128190,note_on,30,0,1,,,,,,,,,0,,,61,0
128220,note_on,0,0,1,,,,,,,,,0,,,58,36
128220,control_change,54,0,3,,,,,,,,,2,64,0,,
128220,note_on,0,0,3,,,,,,,,,2,,,43,49
128220,note_on,30,0,1,,,,,,,,,0,,,63,0
128226,note_on,6,0,3,,,,,,,,,2,,,43,0
128250,note_on,30,0,1,,,,,,,,,0,,,58,0
128250,control_change,0,0,1,,,,,,,,,0,64,0,,
128250,note_on,0,0,1,,,,,,,,,0,,,63,36
128280,note_on,0,0,2,,,,,,,,,1,,,51,36
128280,control_change,54,0,3,,,,,,,,,2,64,127,,
128280,note_on,0,0,3,,,,,,,,,2,,,44,49
128280,note_on,360,0,2,,,,,,,,,1,,,51,0
128280,control_change,0,0,1,,,,,,,,,0,64,127,,
128280,note_on,30,0,1,,,,,,,,,0,,,63,0
128310,note_on,30,0,1,,,,,,,,,0,,,63,36
128340,note_on,0,0,1,,,,,,,,,0,,,56,36
128340,note_on,30,0,1,,,,,,,,,0,,,63,0
128370,note_on,30,0,1,,,,,,,,,0,,,56,0
128370,note_on,0,0,1,,,,,,,,,0,,,63,36
128400,note_on,120,0,3,,,,,,,,,2,,,44,0
128400,note_on,0,0,1,,,,,,,,,0,,,58,36
128400,note_on,30,0,1,,,,,,,,,0,,,63,0
128430,note_on,30,0,1,,,,,,,,,0,,,58,0
128430,note_on,0,0,1,,,,,,,,,0,,,63,36
128460,note_on,30,0,1,,,,,,,,,0,,,63,0
128460,note_on,60,0,3,,,,,,,,,2,,,44,75
128460,note_on,0,0,1,,,,,,,,,0,,,59,36
128466,note_on,6,0,3,,,,,,,,,2,,,44,0
128490,note_on,0,0,1,,,,,,,,,0,,,63,36
128490,note_on,30,0,1,,,,,,,,,0,,,59,0
128520,note_on,54,0,3,,,,,,,,,2,,,46,49
128520,note_on,30,0,1,,,,,,,,,0,,,63,0
128520,note_on,0,0,1,,,,,,,,,0,,,58,36
128526,note_on,6,0,3,,,,,,,,,2,,,46,0
128550,note_on,0,0,1,,,,,,,,,0,,,63,36
128550,note_on,30,0,1,,,,,,,,,0,,,58,0
128580,note_on,0,0,1,,,,,,,,,0,,,56,36
128580,note_on,0,0,3,,,,,,,,,2,,,47,49
128580,control_change,54,0,3,,,,,,,,,2,64,0,,
128580,note_on,30,0,1,,,,,,,,,0,,,63,0
128586,note_on,6,0,3,,,,,,,,,2,,,47,0
128610,control_change,0,0,1,,,,,,,,,0,64,0,,
128610,note_on,0,0,1,,,,,,,,,0,,,63,36
128610,note_on,30,0,1,,,,,,,,,0,,,56,0
128640,control_change,0,0,2,,,,,,,,,1,64,127,,
128640,note_on,360,0,2,,,,,,,,,1,,,51,0
128640,note_on,0,0,2,,,,,,,,,1,,,56,36
128640,note_on,0,0,3,,,,,,,,,2,,,46,49
128640,note_on,0,0,1,,,,,,,,,0,,,62,49
128640,control_change,54,0,3,,,,,,,,,2,64,127,,
128640,note_on,30,0,1,,,,,,,,,0,,,63,0
128640,control_change,0,0,1,,,,,,,,,0,64,127,,
128670,note_on,0,0,2,,,,,,,,,1,,,53,36
128670,note_on,30,0,2,,,,,,,,,1,,,56,0
128700,note_on,0,0,2,,,,,,,,,1,,,56,36
128700,note_on,30,0,2,,,,,,,,,1,,,53,0
128700,note_on,0,0,1,,,,,,,,,0,,,63,49
128700,note_on,60,0,1,,,,,,,,,0,,,62,0
128730,note_on,30,0,2,,,,,,,,,1,,,56,0
128730,note_on,0,0,2,,,,,,,,,1,,,53,36
128760,note_on,30,0,2,,,,,,,,,1,,,53,0
128760,note_on,60,0,1,,,,,,,,,0,,,63,0
128760,note_on,0,0,2,,,,,,,,,1,,,56,36
128760,note_on,120,0,3,,,,,,,,,2,,,46,0
128760,note_on,0,0,1,,,,,,,,,0,,,62,49
128790,note_on,30,0,2,,,,,,,,,1,,,56,0
128790,note_on,0,0,2,,,,,,,,,1,,,53,36
128820,note_on,60,0,3,,,,,,,,,2,,,44,75
128820,note_on,30,0,2,,,,,,,,,1,,,53,0
128820,note_on,0,0,2,,,,,,,,,1,,,56,36
128820,note_on,60,0,1,,,,,,,,,0,,,62,0
128820,note_on,0,0,1,,,,,,,,,0,,,59,49
128826,note_on,6,0,3,,,,,,,,,2,,,44,0
128850,note_on,30,0,2,,,,,,,,,1,,,56,0
128850,note_on,0,0,2,,,,,,,,,1,,,53,36
128880,note_on,30,0,2,,,,,,,,,1,,,53,0
128880,note_on,0,0,2,,,,,,,,,1,,,56,36
128880,note_on,54,0,3,,,,,,,,,2,,,46,49
128880,note_on,60,0,1,,,,,,,,,0,,,59,0
128880,note_on,0,0,1,,,,,,,,,0,,,58,49
128886,note_on,6,0,3,,,,,,,,,2,,,46,0
128910,note_on,0,0,2,,,,,,,,,1,,,53,36
128910,note_on,30,0,2,,,,,,,,,1,,,56,0
128940,note_on,60,0,1,,,,,,,,,0,,,58,0
128940,note_on,0,0,1,,,,,,,,,0,,,62,49
128940,control_change,0,0,1,,,,,,,,,0,64,0,,
128940,control_change,54,0,3,,,,,,,,,2,64,0,,
128940,note_on,0,0,3,,,,,,,,,2,,,34,49
128940,note_on,0,0,2,,,,,,,,,1,,,56,36
128940,note_on,30,0,2,,,,,,,,,1,,,53,0
128946,note_on,6,0,3,,,,,,,,,2,,,34,0
128970,note_on,0,0,2,,,,,,,,,1,,,53,36
128970,note_on,30,0,2,,,,,,,,,1,,,56,0
128970,control_change,0,0,2,,,,,,,,,1,64,0,,
129000,note_on,0,0,2,,,,,,,,,1,,,63,36
129000,control_change,0,0,1,,,,,,,,,0,64,127,,
129000,note_on,60,0,1,,,,,,,,,0,,,62,0
129000,note_on,0,0,3,,,,,,,,,2,,,39,49
129000,note_on,30,0,2,,,,,,,,,1,,,53,0
129000,control_change,54,0,3,,,,,,,,,2,64,127,,
129030,note_on,30,0,1,,,,,,,,,0,,,75,36
129060,set_tempo,47940,1,0,,,,,,425532,,,,,,,
129060,note_on,0,0,1,,,,,,,,,0,,,67,36
129060,note_on,30,0,1,,,,,,,,,0,,,75,0
129090,note_on,0,0,1,,,,,,,,,0,,,75,36
129090,note_on,30,0,1,,,,,,,,,0,,,67,0
129120,note_on,0,0,1,,,,,,,,,0,,,70,36
129120,note_on,120,0,3,,,,,,,,,2,,,39,0
129120,set_tempo,60,1,0,,,,,,434783,,,,,,,
129120,note_on,30,0,1,,,,,,,,,0,,,75,0
129150,note_on,0,0,1,,,,,,,,,0,,,75,36
129150,note_on,30,0,1,,,,,,,,,0,,,70,0
129180,set_tempo,60,1,0,,,,,,444444,,,,,,,
129180,note_on,60,0,3,,,,,,,,,2,,,51,75
129180,note_on,30,0,1,,,,,,,,,0,,,75,0
129180,note_on,0,0,1,,,,,,,,,0,,,73,36
129186,note_on,6,0,3,,,,,,,,,2,,,51,0
129210,note_on,0,0,1,,,,,,,,,0,,,75,36
129210,note_on,30,0,1,,,,,,,,,0,,,73,0
129240,note_on,30,0,1,,,,,,,,,0,,,75,0
129240,note_on,54,0,3,,,,,,,,,2,,,53,49
129240,set_tempo,60,1,0,,,,,,458015,,,,,,,
129240,note_on,0,0,1,,,,,,,,,0,,,70,36
129246,note_on,6,0,3,,,,,,,,,2,,,53,0
129270,note_on,0,0,1,,,,,,,,,0,,,75,36
129270,note_on,30,0,1,,,,,,,,,0,,,70,0
129300,note_on,0,0,1,,,,,,,,,0,,,67,36
129300,control_change,54,0,3,,,,,,,,,2,64,0,,
129300,note_on,0,0,3,,,,,,,,,2,,,55,49
129300,set_tempo,60,1,0,,,,,,468750,,,,,,,
129300,note_on,30,0,1,,,,,,,,,0,,,75,0
129306,note_on,6,0,3,,,,,,,,,2,,,55,0
129330,note_on,30,0,1,,,,,,,,,0,,,67,0
129330,note_on,0,0,1,,,,,,,,,0,,,75,36
129360,note_on,0,0,2,,,,,,,,,1,,,63,36
129360,note_on,360,0,2,,,,,,,,,1,,,63,0
129360,control_change,54,0,3,,,,,,,,,2,64,127,,
129360,note_on,0,0,3,,,,,,,,,2,,,56,49
129360,set_tempo,60,1,0,,,,,,480000,,,,,,,
129360,control_change,0,0,1,,,,,,,,,0,64,127,,
129360,note_on,30,0,1,,,,,,,,,0,,,75,0
129390,note_on,30,0,1,,,,,,,,,0,,,75,36
129420,note_on,0,0,1,,,,,,,,,0,,,68,36
129420,set_tempo,60,1,0,,,,,,491803,,,,,,,
129420,note_on,30,0,1,,,,,,,,,0,,,75,0
129450,note_on,30,0,1,,,,,,,,,0,,,68,0
129450,note_on,0,0,1,,,,,,,,,0,,,75,36
129480,end_of_track,0,1,0,,,,,,,,,,,,,
129480,note_on,120,0,3,,,,,,,,,2,,,56,0
129480,note_on,0,0,1,,,,,,,,,0,,,70,36
129480,note_on,30,0,1,,,,,,,,,0,,,75,0
129480,set_tempo,60,1,0,,,,,,508475,,,,,,,
129510,note_on,30,0,1,,,,,,,,,0,,,70,0
129510,note_on,0,0,1,,,,,,,,,0,,,75,36
129540,note_on,0,0,1,,,,,,,,,0,,,71,36
129540,note_on,60,0,3,,,,,,,,,2,,,56,75
129540,note_on,30,0,1,,,,,,,,,0,,,75,0
129546,note_on,6,0,3,,,,,,,,,2,,,56,0
129570,note_on,30,0,1,,,,,,,,,0,,,71,0
129570,note_on,0,0,1,,,,,,,,,0,,,75,36
129600,note_on,30,0,1,,,,,,,,,0,,,75,0
129600,note_on,0,0,1,,,,,,,,,0,,,70,36
129600,note_on,54,0,3,,,,,,,,,2,,,58,49
129606,note_on,6,0,3,,,,,,,,,2,,,58,0
129630,note_on,30,0,1,,,,,,,,,0,,,70,0
129630,note_on,0,0,1,,,,,,,,,0,,,75,36
129660,control_change,54,0,3,,,,,,,,,2,64,0,,
129660,note_on,0,0,3,,,,,,,,,2,,,59,49
129660,note_on,30,0,1,,,,,,,,,0,,,75,0
129660,note_on,0,0,1,,,,,,,,,0,,,68,36
129666,note_on,6,0,3,,,,,,,,,2,,,59,0
129690,control_change,0,0,1,,,,,,,,,0,64,0,,
129690,note_on,0,0,1,,,,,,,,,0,,,75,36
129690,note_on,30,0,1,,,,,,,,,0,,,68,0
129720,control_change,54,0,3,,,,,,,,,2,64,127,,
129720,note_on,0,0,3,,,,,,,,,2,,,58,49
129720,note_on,0,0,1,,,,,,,,,0,,,74,49
129720,control_change,0,0,1,,,,,,,,,0,64,127,,
129720,note_on,30,0,1,,,,,,,,,0,,,75,0
129720,note_on,360,0,2,,,,,,,,,1,,,63,0
129720,control_change,0,0,2,,,,,,,,,1,64,127,,
129720,note_on,0,0,2,,,,,,,,,1,,,68,36
129750,note_on,0,0,2,,,,,,,,,1,,,65,36
129750,note_on,30,0,2,,,,,,,,,1,,,68,0
129780,note_on,30,0,2,,,,,,,,,1,,,65,0
129780,note_on,0,0,2,,,,,,,,,1,,,68,36
129780,note_on,60,0,1,,,,,,,,,0,,,74,0
129780,note_on,0,0,1,,,,,,,,,0,,,75,49
129810,note_on,0,0,2,,,,,,,,,1,,,65,36
129810,note_on,30,0,2,,,,,,,,,1,,,68,0
129840,note_on,120,0,3,,,,,,,,,2,,,58,0
129840,note_on,0,0,2,,,,,,,,,1,,,68,36
129840,note_on,60,0,1,,,,,,,,,0,,,75,0
129840,note_on,0,0,1,,,,,,,,,0,,,74,49
129840,note_on,30,0,2,,,,,,,,,1,,,65,0
129870,note_on,0,0,2,,,,,,,,,1,,,65,36
129870,note_on,30,0,2,,,,,,,,,1,,,68,0
129900,note_on,0,0,2,,,,,,,,,1,,,68,36
129900,note_on,30,0,2,,,,,,,,,1,,,65,0
129900,note_on,60,0,1,,,,,,,,,0,,,74,0
129900,note_on,0,0,1,,,,,,,,,0,,,71,49
129900,note_on,60,0,3,,,,,,,,,2,,,56,75
129906,note_on,6,0,3,,,,,,,,,2,,,56,0
129930,note_on,30,0,2,,,,,,,,,1,,,68,0
129930,note_on,0,0,2,,,,,,,,,1,,,65,36
129960,note_on,0,0,1,,,,,,,,,0,,,70,49
129960,note_on,0,0,2,,,,,,,,,1,,,68,36
129960,control_change,0,0,2,,,,,,,,,1,64,0,,
129960,note_on,30,0,2,,,,,,,,,1,,,65,0
129960,note_on,60,0,1,,,,,,,,,0,,,71,0
129960,control_change,0,0,1,,,,,,,,,0,64,0,,
129960,note_on,0,0,3,,,,,,,,,2,,,58,49
129960,control_change,54,0,3,,,,,,,,,2,64,0,,
129966,note_on,6,0,3,,,,,,,,,2,,,58,0
129990,note_on,0,0,2,,,,,,,,,1,,,65,36
129990,note_on,30,0,2,,,,,,,,,1,,,68,0
130020,note_on,54,0,3,,,,,,,,,2,,,46,49
130020,note_on,0,0,2,,,,,,,,,1,,,68,36
130020,note_on,60,0,1,,,,,,,,,0,,,70,0
130020,note_on,30,0,2,,,,,,,,,1,,,65,0
130020,note_on,0,0,1,,,,,,,,,0,,,74,49
130026,note_on,6,0,3,,,,,,,,,2,,,46,0
130050,note_on,0,0,2,,,,,,,,,1,,,65,36
130050,note_on,30,0,2,,,,,,,,,1,,,68,0
130080,note_on,0,0,2,,,,,,,,,1,,,67,36
130080,control_change,0,0,2,,,,,,,,,1,64,127,,
130080,note_on,30,0,2,,,,,,,,,1,,,65,0
130080,control_change,0,0,1,,,,,,,,,0,64,127,,
130080,note_on,0,0,1,,,,,,,,,0,,,75,49
130080,note_on,60,0,1,,,,,,,,,0,,,74,0
130080,note_on,54,0,3,,,,,,,,,2,,,51,49
130110,note_on,30,0,2,,,,,,,,,1,,,67,0
130110,note_on,0,0,2,,,,,,,,,1,,,70,36
130140,note_on,0,0,1,,,,,,,,,0,,,78,49
130140,note_on,60,0,1,,,,,,,,,0,,,75,0
130140,note_on,30,0,2,,,,,,,,,1,,,70,0
130140,note_on,0,0,2,,,,,,,,,1,,,74,36
130170,note_on,30,0,2,,,,,,,,,1,,,74,0
130170,note_on,0,0,2,,,,,,,,,1,,,70,36
130200,note_on,0,0,1,,,,,,,,,0,,,79,49
130200,note_on,60,0,1,,,,,,,,,0,,,78,0
130200,note_on,0,0,2,,,,,,,,,1,,,75,36
130200,note_on,30,0,2,,,,,,,,,1,,,70,0
130200,note_on,0,0,3,,,,,,,,,2,,,82,75
130200,note_on,120,0,3,,,,,,,,,2,,,51,0
130230,note_on,30,0,2,,,,,,,,,1,,,75,0
130230,note_on,0,0,2,,,,,,,,,1,,,70,36
130260,note_on,0,0,2,,,,,,,,,1,,,74,36
130260,note_on,0,0,1,,,,,,,,,0,,,78,49
130260,note_on,60,0,1,,,,,,,,,0,,,79,0
130260,note_on,30,0,2,,,,,,,,,1,,,70,0
130290,note_on,30,0,2,,,,,,,,,1,,,74,0
130290,note_on,0,0,2,,,,,,,,,1,,,70,36
130320,note_on,0,0,1,,,,,,,,,0,,,79,49
130320,note_on,60,0,1,,,,,,,,,0,,,78,0
130320,note_on,0,0,2,,,,,,,,,1,,,75,36
130320,note_on,30,0,2,,,,,,,,,1,,,70,0
130350,note_on,30,0,2,,,,,,,,,1,,,75,0
130350,note_on,0,0,2,,,,,,,,,1,,,70,36
130380,note_on,0,0,2,,,,,,,,,1,,,67,36
130380,note_on,30,0,2,,,,,,,,,1,,,70,0
130380,note_on,0,0,1,,,,,,,,,0,,,75,49
130380,control_change,0,0,1,,,,,,,,,0,64,0,,
130380,note_on,60,0,1,,,,,,,,,0,,,79,0
130410,note_on,0,0,2,,,,,,,,,1,,,70,36
130410,control_change,0,0,2,,,,,,,,,1,64,0,,
130410,note_on,30,0,2,,,,,,,,,1,,,67,0
130440,control_change,0,0,3,,,,,,,,,2,64,127,,
130440,note_on,0,0,3,,,,,,,,,2,,,46,49
130440,control_change,0,0,2,,,,,,,,,1,64,127,,
130440,note_on,240,0,3,,,,,,,,,2,,,82,0
130440,note_on,60,0,1,,,,,,,,,0,,,75,0
130440,note_on,0,0,1,,,,,,,,,0,,,74,49
130440,note_on,0,0,2,,,,,,,,,1,,,68,36
130440,control_change,0,0,1,,,,,,,,,0,64,127,,
130440,note_on,30,0,2,,,,,,,,,1,,,70,0
130440,control_change,0,0,1,,,,,,,,,0,64,127,,
130470,note_on,30,0,2,,,,,,,,,1,,,68,0
130470,note_on,0,0,2,,,,,,,,,1,,,65,36
130500,note_on,0,0,2,,,,,,,,,1,,,68,36
130500,note_on,60,0,1,,,,,,,,,0,,,74,0
130500,note_on,30,0,2,,,,,,,,,1,,,65,0
130500,note_on,0,0,1,,,,,,,,,0,,,75,49
130530,note_on,30,0,2,,,,,,,,,1,,,68,0
130530,note_on,0,0,2,,,,,,,,,1,,,65,36
130560,note_on,0,0,2,,,,,,,,,1,,,68,36
130560,note_on,30,0,2,,,,,,,,,1,,,65,0
130560,note_on,120,0,3,,,,,,,,,2,,,46,0
130560,note_on,0,0,1,,,,,,,,,0,,,74,49
130560,note_on,60,0,1,,,,,,,,,0,,,75,0
130590,note_on,30,0,2,,,,,,,,,1,,,68,0
130590,note_on,0,0,2,,,,,,,,,1,,,65,36
130620,note_on,0,0,1,,,,,,,,,0,,,71,49
130620,note_on,60,0,3,,,,,,,,,2,,,56,75
130620,note_on,30,0,2,,,,,,,,,1,,,65,0
130620,note_on,0,0,2,,,,,,,,,1,,,68,36
130620,note_on,60,0,1,,,,,,,,,0,,,74,0
130626,note_on,6,0,3,,,,,,,,,2,,,56,0
130650,note_on,30,0,2,,,,,,,,,1,,,68,0
130650,note_on,0,0,2,,,,,,,,,1,,,65,36
130680,note_on,54,0,3,,,,,,,,,2,,,58,49
130680,note_on,0,0,1,,,,,,,,,0,,,70,49
130680,note_on,60,0,1,,,,,,,,,0,,,71,0
130680,note_on,30,0,2,,,,,,,,,1,,,65,0
130680,note_on,0,0,2,,,,,,,,,1,,,68,36
130686,note_on,6,0,3,,,,,,,,,2,,,58,0
130710,note_on,0,0,2,,,,,,,,,1,,,65,36
130710,note_on,30,0,2,,,,,,,,,1,,,68,0
130740,note_on,0,0,3,,,,,,,,,2,,,46,49
130740,control_change,54,0,3,,,,,,,,,2,64,0,,
130740,control_change,0,0,1,,,,,,,,,0,64,0,,
130740,note_on,0,0,1,,,,,,,,,0,,,74,49
130740,note_on,0,0,2,,,,,,,,,1,,,68,36
130740,note_on,30,0,2,,,,,,,,,1,,,65,0
130740,note_on,60,0,1,,,,,,,,,0,,,70,0
130746,note_on,6,0,3,,,,,,,,,2,,,46,0
130770,note_on,30,0,2,,,,,,,,,1,,,68,0
130770,note_on,0,0,2,,,,,,,,,1,,,65,36
130770,control_change,0,0,2,,,,,,,,,1,64,0,,
130800,note_on,30,0,2,,,,,,,,,1,,,65,0
130800,control_change,0,0,2,,,,,,,,,1,64,127,,
130800,note_on,0,0,2,,,,,,,,,1,,,67,36
130800,note_on,54,0,3,,,,,,,,,2,,,51,49
130800,note_on,60,0,1,,,,,,,,,0,,,74,0
130800,control_change,0,0,1,,,,,,,,,0,64,127,,
130800,note_on,0,0,1,,,,,,,,,0,,,75,49
130830,note_on,30,0,2,,,,,,,,,1,,,67,0
130830,note_on,0,0,2,,,,,,,,,1,,,70,36
130860,note_on,30,0,2,,,,,,,,,1,,,70,0
130860,note_on,0,0,2,,,,,,,,,1,,,62,36
130860,note_on,60,0,1,,,,,,,,,0,,,75,0
130860,note_on,0,0,1,,,,,,,,,0,,,66,49
130890,note_on,30,0,2,,,,,,,,,1,,,62,0
130890,note_on,0,0,2,,,,,,,,,1,,,58,36
130920,note_on,120,0,3,,,,,,,,,2,,,51,0
130920,note_on,0,0,3,,,,,,,,,2,,,82,75
130920,note_on,0,0,2,,,,,,,,,1,,,63,36
130920,note_on,30,0,2,,,,,,,,,1,,,58,0
130920,note_on,60,0,1,,,,,,,,,0,,,66,0
130920,note_on,0,0,1,,,,,,,,,0,,,67,49
130950,note_on,0,0,2,,,,,,,,,1,,,58,36
130950,note_on,30,0,2,,,,,,,,,1,,,63,0
130980,note_on,0,0,2,,,,,,,,,1,,,62,36
130980,note_on,60,0,1,,,,,,,,,0,,,67,0
130980,note_on,0,0,1,,,,,,,,,0,,,66,49
130980,note_on,30,0,2,,,,,,,,,1,,,58,0
131010,note_on,0,0,2,,,,,,,,,1,,,58,36
131010,note_on,30,0,2,,,,,,,,,1,,,62,0
131040,note_on,30,0,2,,,,,,,,,1,,,58,0
131040,note_on,0,0,2,,,,,,,,,1,,,63,36
131040,note_on,0,0,1,,,,,,,,,0,,,67,49
131040,note_on,60,0,1,,,,,,,,,0,,,66,0
131070,note_on,0,0,2,,,,,,,,,1,,,58,36
131070,note_on,30,0,2,,,,,,,,,1,,,63,0
131100,note_on,0,0,2,,,,,,,,,1,,,55,36
131100,note_on,30,0,2,,,,,,,,,1,,,58,0
131100,note_on,0,0,1,,,,,,,,,0,,,63,49
131100,control_change,0,0,1,,,,,,,,,0,64,0,,
131100,note_on,60,0,1,,,,,,,,,0,,,67,0
131130,control_change,0,0,2,,,,,,,,,1,64,0,,
131130,note_on,30,0,2,,,,,,,,,1,,,55,0
131130,note_on,0,0,2,,,,,,,,,1,,,58,36
131160,note_on,0,0,3,,,,,,,,,2,,,34,49
131160,note_on,0,0,1,,,,,,,,,0,,,62,49
131160,control_change,0,0,1,,,,,,,,,0,64,127,,
131160,control_change,0,0,1,,,,,,,,,0,64,127,,
131160,control_change,0,0,3,,,,,,,,,2,64,127,,
131160,note_on,60,0,1,,,,,,,,,0,,,63,0
131160,note_on,0,0,2,,,,,,,,,1,,,56,36
131160,control_change,0,0,2,,,,,,,,,1,64,127,,
131160,note_on,30,0,2,,,,,,,,,1,,,58,0
131160,note_on,240,0,3,,,,,,,,,2,,,82,0
131190,note_on,0,0,2,,,,,,,,,1,,,53,36
131190,note_on,30,0,2,,,,,,,,,1,,,56,0
131220,note_on,0,0,2,,,,,,,,,1,,,56,36
131220,note_on,60,0,1,,,,,,,,,0,,,62,0
131220,note_on,30,0,2,,,,,,,,,1,,,53,0
131220,note_on,0,0,1,,,,,,,,,0,,,63,49
131250,note_on,30,0,2,,,,,,,,,1,,,56,0
131250,note_on,0,0,2,,,,,,,,,1,,,53,36
131280,note_on,30,0,2,,,,,,,,,1,,,53,0
131280,note_on,0,0,2,,,,,,,,,1,,,56,36
131280,note_on,120,0,3,,,,,,,,,2,,,34,0
131280,note_on,0,0,1,,,,,,,,,0,,,62,49
131280,note_on,60,0,1,,,,,,,,,0,,,63,0
131310,note_on,30,0,2,,,,,,,,,1,,,56,0
131310,note_on,0,0,2,,,,,,,,,1,,,53,36
131340,note_on,60,0,3,,,,,,,,,2,,,44,75
131340,note_on,60,0,1,,,,,,,,,0,,,62,0
131340,note_on,0,0,1,,,,,,,,,0,,,59,49
131340,note_on,0,0,2,,,,,,,,,1,,,56,36
131340,note_on,30,0,2,,,,,,,,,1,,,53,0
131346,note_on,6,0,3,,,,,,,,,2,,,44,0
131370,note_on,30,0,2,,,,,,,,,1,,,56,0
131370,note_on,0,0,2,,,,,,,,,1,,,53,36
131400,note_on,60,0,1,,,,,,,,,0,,,59,0
131400,note_on,0,0,1,,,,,,,,,0,,,58,49
131400,note_on,30,0,2,,,,,,,,,1,,,53,0
131400,note_on,54,0,3,,,,,,,,,2,,,46,49
131400,note_on,0,0,2,,,,,,,,,1,,,56,36
131406,note_on,6,0,3,,,,,,,,,2,,,46,0
131430,note_on,0,0,2,,,,,,,,,1,,,53,36
131430,note_on,30,0,2,,,,,,,,,1,,,56,0
131460,note_on,0,0,2,,,,,,,,,1,,,56,36
131460,note_on,60,0,1,,,,,,,,,0,,,58,0
131460,note_on,0,0,3,,,,,,,,,2,,,34,49
131460,control_change,54,0,3,,,,,,,,,2,64,0,,
131460,control_change,0,0,1,,,,,,,,,0,64,0,,
131460,note_on,0,0,1,,,,,,,,,0,,,62,49
131460,note_on,30,0,2,,,,,,,,,1,,,53,0
131466,note_on,6,0,3,,,,,,,,,2,,,34,0
131490,control_change,0,0,2,,,,,,,,,1,64,0,,
131490,note_on,30,0,2,,,,,,,,,1,,,56,0
131490,note_on,0,0,2,,,,,,,,,1,,,53,36
131520,note_on,30,0,2,,,,,,,,,1,,,53,0
131520,note_on,0,0,3,,,,,,,,,2,,,39,49
131520,control_change,54,0,3,,,,,,,,,2,64,127,,
131520,note_on,0,0,1,,,,,,,,,0,,,55,49
131520,note_on,60,0,1,,,,,,,,,0,,,62,0
131520,note_on,0,0,1,,,,,,,,,0,,,63,49
131520,control_change,0,0,1,,,,,,,,,0,64,127,,
131550,note_on,0,0,1,,,,,,,,,0,,,51,49
131550,note_on,0,0,1,,,,,,,,,0,,,55,0
131550,note_on,30,0,1,,,,,,,,,0,,,63,0
131580,note_on,0,0,1,,,,,,,,,0,,,63,49
131580,note_on,0,0,1,,,,,,,,,0,,,58,49
131580,note_on,0,0,1,,,,,,,,,0,,,55,49
131580,note_on,30,0,1,,,,,,,,,0,,,51,0
131610,note_on,0,0,1,,,,,,,,,0,,,51,49
131610,note_on,0,0,1,,,,,,,,,0,,,55,0
131610,note_on,30,0,1,,,,,,,,,0,,,63,0
131610,note_on,0,0,1,,,,,,,,,0,,,58,0
131640,note_on,120,0,3,,,,,,,,,2,,,39,0
131640,note_on,30,0,1,,,,,,,,,0,,,51,0
131640,note_on,0,0,1,,,,,,,,,0,,,58,49
131640,note_on,0,0,1,,,,,,,,,0,,,55,49
131640,note_on,0,0,1,,,,,,,,,0,,,63,49
131640,note_on,0,0,3,,,,,,,,,2,,,82,49
131652,note_on,12,0,3,,,,,,,,,2,,,82,0
131670,note_on,0,0,1,,,,,,,,,0,,,51,49
131670,note_on,0,0,1,,,,,,,,,0,,,55,0
131670,note_on,0,0,1,,,,,,,,,0,,,58,0
131670,note_on,30,0,1,,,,,,,,,0,,,63,0
131700,note_on,0,0,1,,,,,,,,,0,,,55,49
131700,note_on,30,0,1,,,,,,,,,0,,,51,0
131700,note_on,0,0,1,,,,,,,,,0,,,58,49
131700,note_on,0,0,1,,,,,,,,,0,,,63,49
131730,note_on,0,0,1,,,,,,,,,0,,,58,0
131730,note_on,0,0,1,,,,,,,,,0,,,51,49
131730,note_on,0,0,1,,,,,,,,,0,,,55,0
131730,note_on,30,0,1,,,,,,,,,0,,,63,0
131760,note_on,30,0,1,,,,,,,,,0,,,51,0
131760,note_on,108,0,3,,,,,,,,,2,,,79,49
131760,note_on,0,0,1,,,,,,,,,0,,,55,49
131760,note_on,0,0,1,,,,,,,,,0,,,58,49
131760,note_on,0,0,1,,,,,,,,,0,,,63,49
131772,note_on,12,0,3,,,,,,,,,2,,,79,0
131790,note_on,30,0,1,,,,,,,,,0,,,63,0
131790,note_on,0,0,1,,,,,,,,,0,,,58,0
131790,note_on,0,0,1,,,,,,,,,0,,,55,0
131790,note_on,0,0,1,,,,,,,,,0,,,51,49
131820,note_on,0,0,1,,,,,,,,,0,,,58,49
131820,note_on,30,0,1,,,,,,,,,0,,,51,0
131820,note_on,0,0,1,,,,,,,,,0,,,55,49
131820,note_on,0,0,1,,,,,,,,,0,,,63,49
131850,note_on,0,0,1,,,,,,,,,0,,,51,49
131850,note_on,0,0,1,,,,,,,,,0,,,58,0
131850,note_on,0,0,1,,,,,,,,,0,,,55,0
131850,note_on,30,0,1,,,,,,,,,0,,,63,0
131880,note_on,0,0,1,,,,,,,,,0,,,63,49
131880,note_on,0,0,1,,,,,,,,,0,,,58,49
131880,note_on,30,0,1,,,,,,,,,0,,,51,0
131880,note_on,108,0,3,,,,,,,,,2,,,75,49
131880,note_on,0,0,1,,,,,,,,,0,,,55,49
131892,note_on,12,0,3,,,,,,,,,2,,,75,0
131910,note_on,30,0,1,,,,,,,,,0,,,63,0
131910,note_on,0,0,1,,,,,,,,,0,,,58,0
131910,note_on,0,0,1,,,,,,,,,0,,,55,0
131910,note_on,0,0,1,,,,,,,,,0,,,51,49
131940,note_on,0,0,1,,,,,,,,,0,,,58,49
131940,note_on,30,0,1,,,,,,,,,0,,,51,0
131940,note_on,0,0,1,,,,,,,,,0,,,55,49
131940,note_on,0,0,1,,,,,,,,,0,,,63,49
131970,note_on,0,0,1,,,,,,,,,0,,,58,0
131970,note_on,0,0,1,,,,,,,,,0,,,51,49
131970,note_on,0,0,1,,,,,,,,,0,,,55,0
131970,note_on,30,0,1,,,,,,,,,0,,,63,0
132000,note_on,30,0,1,,,,,,,,,0,,,51,0
132000,note_on,0,0,1,,,,,,,,,0,,,58,49
132000,note_on,0,0,1,,,,,,,,,0,,,55,49
132000,note_on,0,0,1,,,,,,,,,0,,,63,49
132000,note_on,108,0,3,,,,,,,,,2,,,46,49
132012,note_on,12,0,3,,,,,,,,,2,,,46,0
132030,note_on,0,0,1,,,,,,,,,0,,,51,49
132030,note_on,0,0,1,,,,,,,,,0,,,58,0
132030,note_on,30,0,1,,,,,,,,,0,,,63,0
132030,note_on,0,0,1,,,,,,,,,0,,,55,0
132060,note_on,0,0,1,,,,,,,,,0,,,63,49
132060,note_on,30,0,1,,,,,,,,,0,,,51,0
132060,note_on,0,0,1,,,,,,,,,0,,,55,49
132060,note_on,0,0,1,,,,,,,,,0,,,58,49
132090,note_on,0,0,1,,,,,,,,,0,,,55,0
132090,note_on,0,0,1,,,,,,,,,0,,,58,0
132090,note_on,0,0,1,,,,,,,,,0,,,51,49
132090,note_on,30,0,1,,,,,,,,,0,,,63,0
132120,note_on,30,0,1,,,,,,,,,0,,,51,0
132120,note_on,0,0,1,,,,,,,,,0,,,55,49
132120,note_on,0,0,1,,,,,,,,,0,,,58,49
132120,note_on,0,0,1,,,,,,,,,0,,,63,49
132120,note_on,108,0,3,,,,,,,,,2,,,43,49
132132,note_on,12,0,3,,,,,,,,,2,,,43,0
132150,note_on,0,0,1,,,,,,,,,0,,,51,49
132150,note_on,30,0,1,,,,,,,,,0,,,63,0
132150,note_on,0,0,1,,,,,,,,,0,,,55,0
132150,note_on,0,0,1,,,,,,,,,0,,,58,0
132180,note_on,30,0,1,,,,,,,,,0,,,51,0
132180,note_on,0,0,1,,,,,,,,,0,,,55,49
132180,note_on,0,0,1,,,,,,,,,0,,,58,49
132180,note_on,0,0,1,,,,,,,,,0,,,63,49
132210,note_on,30,0,1,,,,,,,,,0,,,63,0
132210,note_on,0,0,1,,,,,,,,,0,,,58,0
132210,note_on,0,0,1,,,,,,,,,0,,,55,0
132210,note_on,0,0,1,,,,,,,,,0,,,51,49
132240,note_on,30,0,1,,,,,,,,,0,,,51,0
132240,note_on,0,0,3,,,,,,,,,2,,,39,49
132240,control_change,108,0,3,,,,,,,,,2,64,0,,
132240,control_change,0,0,1,,,,,,,,,0,64,0,,
132240,note_on,0,0,1,,,,,,,,,0,,,55,49
132240,note_on,0,0,1,,,,,,,,,0,,,58,49
132240,note_on,0,0,1,,,,,,,,,0,,,63,49
132252,note_on,12,0,3,,,,,,,,,2,,,39,0
132360,note_on,0,0,1,,,,,,,,,0,,,55,0
132360,note_on,120,0,1,,,,,,,,,0,,,63,0
132360,note_on,0,0,1,,,,,,,,,0,,,58,0
132577,note_on,325,0,3,,,,,,,,,2,,,51,49
132577,note_on,217,0,1,,,,,,,,,0,,,67,49
132585,note_on,8,0,3,,,,,,,,,2,,,55,49
132585,note_on,8,0,1,,,,,,,,,0,,,70,49
132592,note_on,7,0,1,,,,,,,,,0,,,75,49
132592,note_on,7,0,3,,,,,,,,,2,,,58,49
132600,note_on,8,0,1,,,,,,,,,0,,,79,49
132600,note_on,8,0,3,,,,,,,,,2,,,63,49
132720,note_on,0,0,1,,,,,,,,,0,,,70,0
132720,note_on,0,0,1,,,,,,,,,0,,,67,0
132720,note_on,120,0,1,,,,,,,,,0,,,79,0
132720,note_on,120,0,3,,,,,,,,,2,,,63,0
132720,note_on,0,0,3,,,,,,,,,2,,,51,0
132720,note_on,0,0,3,,,,,,,,,2,,,55,0
132720,note_on,0,0,1,,,,,,,,,0,,,75,0
132720,note_on,0,0,3,,,,,,,,,2,,,58,0
132960,note_on,240,0,3,,,,,,,,,2,,,39,49
132960,note_on,0,0,3,,,,,,,,,2,,,46,49
132960,note_on,0,0,3,,,,,,,,,2,,,51,49
132960,note_on,240,0,1,,,,,,,,,0,,,55,49
132960,note_on,0,0,1,,,,,,,,,0,,,63,49
132960,note_on,0,0,1,,,,,,,,,0,,,58,49
133320,note_on,360,0,3,,,,,,,,,2,,,51,0
133320,note_on,0,0,3,,,,,,,,,2,,,46,0
133320,note_on,0,0,3,,,,,,,,,2,,,39,0
133320,note_on,0,0,1,,,,,,,,,0,,,55,0
133320,note_on,0,0,1,,,,,,,,,0,,,58,0
133320,note_on,360,0,1,,,,,,,,,0,,,63,0
134040,control_change,7920,0,4,,,,,,,,,3,64,0,,
134040,control_change,720,0,3,,,,,,,,,2,64,0,,
134040,end_of_track,0,1,1,,,,,,,,,,,,,
134040,end_of_track,0,1,3,,,,,,,,,,,,,
134040,control_change,2520,0,2,,,,,,,,,1,64,0,,
134040,end_of_track,0,1,2,,,,,,,,,,,,,
134040,control_change,720,0,1,,,,,,,,,0,64,0,,
134040,end_of_track,0,1,4,,,,,,,,,,,,,
