tick,type,numerator,denominator,clocks_per_click,notated_32nd_notes_per_beat,time,meta,track,tempo,program,channel,control,value,note,velocity
0,time_signature,4,4,24,8,0,1,0,,,,,,,
0,control_change,,,,,0,0,1,,,0,7,80,,
0,track_name,,,,,0,1,8,,,,,,,
0,track_name,,,,,0,1,2,,,,,,,
0,program_change,,,,,0,0,2,,0,0,,,,
0,control_change,,,,,0,0,2,,,0,7,80,,
0,control_change,,,,,0,0,2,,,0,91,127,,
0,track_name,,,,,0,1,3,,,,,,,
0,track_name,,,,,0,1,4,,,,,,,
0,end_of_track,,,,,0,1,4,,,,,,,
0,track_name,,,,,0,1,5,,,,,,,
0,end_of_track,,,,,0,1,5,,,,,,,
0,track_name,,,,,0,1,6,,,,,,,
0,end_of_track,,,,,0,1,6,,,,,,,
0,track_name,,,,,0,1,7,,,,,,,
0,end_of_track,,,,,0,1,7,,,,,,,
0,program_change,,,,,0,0,1,,0,0,,,,
0,track_name,,,,,0,1,1,,,,,,,
0,end_of_track,,,,,0,1,8,,,,,,,
0,marker,,,,,0,1,0,,,,,,,
0,marker,,,,,0,1,0,,,,,,,
0,set_tempo,,,,,0,1,0,550459,,,,,,
720,note_on,,,,,0,0,1,,,0,,,58,48
720,note_on,,,,,720,0,1,,,0,,,70,48
720,control_change,,,,,720,0,2,,,0,64,127,,
720,note_on,,,,,0,0,2,,,0,,,50,37
720,note_on,,,,,0,0,1,,,0,,,65,48
720,note_on,,,,,0,0,1,,,0,,,46,48
840,note_on,,,,,0,0,2,,,0,,,53,34
840,note_off,,,,,120,0,2,,,0,,,50,64
840,set_tempo,,,,,840,1,0,631579,,,,,,
900,control_change,,,,,60,0,2,,,0,64,0,,
936,note_off,,,,,36,0,2,,,0,,,53,64
940,set_tempo,,,,,100,1,0,625000,,,,,,
960,note_off,,,,,240,0,1,,,0,,,46,64
960,control_change,,,,,24,0,2,,,0,64,127,,
960,note_off,,,,,0,0,1,,,0,,,58,64
960,note_off,,,,,0,0,1,,,0,,,65,64
960,note_on,,,,,0,0,2,,,0,,,50,42
960,note_on,,,,,0,0,1,,,0,,,46,48
960,note_on,,,,,0,0,1,,,0,,,58,48
960,note_on,,,,,0,0,1,,,0,,,65,48
960,note_on,,,,,0,0,1,,,0,,,70,48
960,note_off,,,,,0,0,1,,,0,,,70,64
1080,note_off,,,,,120,0,2,,,0,,,50,64
1080,note_on,,,,,0,0,2,,,0,,,53,34
1140,control_change,,,,,60,0,2,,,0,64,0,,
1176,note_off,,,,,36,0,2,,,0,,,53,64
1180,set_tempo,,,,,240,1,0,550459,,,,,,
1200,note_on,,,,,0,0,2,,,0,,,48,44
1200,note_on,,,,,0,0,1,,,0,,,46,42
1200,note_off,,,,,0,0,1,,,0,,,58,64
1200,note_off,,,,,240,0,1,,,0,,,46,64
1200,note_on,,,,,0,0,1,,,0,,,57,42
1200,note_on,,,,,0,0,1,,,0,,,65,42
1200,control_change,,,,,24,0,2,,,0,64,127,,
1200,note_off,,,,,0,0,1,,,0,,,70,64
1200,note_on,,,,,0,0,1,,,0,,,69,42
1200,note_off,,,,,0,0,1,,,0,,,65,64
1320,note_on,,,,,0,0,2,,,0,,,53,36
1320,note_off,,,,,120,0,2,,,0,,,48,64
1380,control_change,,,,,60,0,2,,,0,64,0,,
1416,note_off,,,,,36,0,2,,,0,,,53,64
1440,control_change,,,,,24,0,2,,,0,64,127,,
1440,note_off,,,,,0,0,1,,,0,,,57,64
1440,note_off,,,,,240,0,1,,,0,,,46,64
1440,note_off,,,,,0,0,1,,,0,,,65,64
1440,note_on,,,,,0,0,1,,,0,,,46,49
1440,note_on,,,,,0,0,1,,,0,,,58,49
1440,note_on,,,,,0,0,1,,,0,,,65,49
1440,note_on,,,,,0,0,1,,,0,,,70,49
1440,note_off,,,,,0,0,1,,,0,,,69,64
1440,note_on,,,,,0,0,2,,,0,,,50,45
1560,note_on,,,,,0,0,2,,,0,,,53,37
1560,note_off,,,,,120,0,2,,,0,,,50,64
1620,control_change,,,,,60,0,2,,,0,64,0,,
1656,note_off,,,,,36,0,2,,,0,,,53,64
1680,note_on,,,,,0,0,1,,,0,,,60,54
1680,note_on,,,,,0,0,1,,,0,,,65,54
1680,note_on,,,,,0,0,1,,,0,,,46,54
1680,note_off,,,,,240,0,1,,,0,,,46,64
1680,note_off,,,,,0,0,1,,,0,,,70,64
1680,note_on,,,,,0,0,1,,,0,,,72,54
1680,note_off,,,,,0,0,1,,,0,,,58,64
1680,note_off,,,,,0,0,1,,,0,,,65,64
1680,note_on,,,,,0,0,2,,,0,,,51,48
1680,control_change,,,,,24,0,2,,,0,64,127,,
1800,note_off,,,,,120,0,2,,,0,,,51,64
1800,note_on,,,,,0,0,2,,,0,,,53,38
1840,set_tempo,,,,,660,1,0,631579,,,,,,
1860,control_change,,,,,60,0,2,,,0,64,0,,
1896,note_off,,,,,36,0,2,,,0,,,53,64
1920,control_change,,,,,24,0,2,,,0,64,127,,
1920,note_on,,,,,0,0,1,,,0,,,46,57
1920,note_on,,,,,0,0,1,,,0,,,62,57
1920,note_on,,,,,0,0,1,,,0,,,65,57
1920,note_on,,,,,0,0,1,,,0,,,74,57
1920,note_off,,,,,0,0,1,,,0,,,72,64
1920,note_off,,,,,0,0,1,,,0,,,65,64
1920,note_off,,,,,240,0,1,,,0,,,46,64
1920,note_off,,,,,0,0,1,,,0,,,60,64
1920,note_on,,,,,0,0,2,,,0,,,52,50
2020,set_tempo,,,,,180,1,0,582524,,,,,,
2040,note_on,,,,,0,0,2,,,0,,,53,41
2040,note_off,,,,,120,0,2,,,0,,,52,64
2136,note_off,,,,,96,0,2,,,0,,,53,64
2160,note_on,,,,,24,0,2,,,0,,,53,36
2180,set_tempo,,,,,160,1,0,566038,,,,,,
2256,note_off,,,,,96,0,2,,,0,,,53,64
2280,note_on,,,,,24,0,2,,,0,,,53,30
2376,note_off,,,,,96,0,2,,,0,,,53,64
2400,note_on,,,,,24,0,2,,,0,,,53,36
2496,note_off,,,,,96,0,2,,,0,,,53,64
2520,note_on,,,,,24,0,2,,,0,,,53,37
2560,set_tempo,,,,,380,1,0,550459,,,,,,
2580,set_tempo,,,,,20,1,0,545455,,,,,,
2580,control_change,,,,,60,0,2,,,0,64,0,,
2616,note_off,,,,,36,0,2,,,0,,,53,64
2640,note_off,,,,,0,0,1,,,0,,,65,64
2640,note_off,,,,,0,0,1,,,0,,,62,64
2640,note_off,,,,,720,0,1,,,0,,,46,64
2640,note_on,,,,,0,0,1,,,0,,,46,48
2640,note_on,,,,,0,0,1,,,0,,,60,48
2640,control_change,,,,,24,0,2,,,0,64,127,,
2640,note_on,,,,,0,0,1,,,0,,,72,48
2640,note_off,,,,,0,0,1,,,0,,,74,64
2640,note_on,,,,,0,0,2,,,0,,,51,40
2640,note_on,,,,,0,0,1,,,0,,,65,48
2760,note_on,,,,,0,0,1,,,0,,,58,46
2760,note_off,,,,,0,0,1,,,0,,,65,64
2760,note_off,,,,,0,0,1,,,0,,,72,64
2760,note_on,,,,,0,0,1,,,0,,,65,46
2760,note_off,,,,,120,0,1,,,0,,,60,64
2760,note_on,,,,,0,0,1,,,0,,,70,46
2760,note_off,,,,,120,0,2,,,0,,,51,64
2760,note_on,,,,,0,0,2,,,0,,,50,43
2800,set_tempo,,,,,220,1,0,674157,,,,,,
2820,control_change,,,,,60,0,2,,,0,64,0,,
2840,set_tempo,,,,,40,1,0,681818,,,,,,
2860,set_tempo,,,,,20,1,0,631579,,,,,,
2880,control_change,,,,,0,0,2,,,0,64,127,,
2880,note_off,,,,,60,0,2,,,0,,,50,64
2880,note_on,,,,,0,0,1,,,0,,,60,52
2880,note_off,,,,,120,0,1,,,0,,,58,64
2880,note_off,,,,,0,0,1,,,0,,,65,64
2880,note_off,,,,,0,0,1,,,0,,,70,64
2880,note_off,,,,,0,0,1,,,0,,,46,64
2880,note_on,,,,,0,0,1,,,0,,,72,52
2880,note_on,,,,,0,0,1,,,0,,,65,52
2880,note_on,,,,,0,0,2,,,0,,,51,50
2880,note_on,,,,,0,0,1,,,0,,,41,52
3000,set_tempo,,,,,140,1,0,588235,,,,,,
3000,note_on,,,,,0,0,2,,,0,,,53,41
3000,note_off,,,,,120,0,2,,,0,,,51,64
3020,set_tempo,,,,,20,1,0,582524,,,,,,
3060,control_change,,,,,60,0,2,,,0,64,0,,
3096,note_off,,,,,36,0,2,,,0,,,53,64
3120,control_change,,,,,24,0,2,,,0,64,127,,
3120,note_on,,,,,0,0,2,,,0,,,51,47
3120,note_off,,,,,240,0,1,,,0,,,41,64
3120,note_off,,,,,0,0,1,,,0,,,60,64
3120,note_off,,,,,0,0,1,,,0,,,65,64
3120,note_off,,,,,0,0,1,,,0,,,72,64
3120,note_on,,,,,0,0,1,,,0,,,65,47
3120,note_on,,,,,0,0,1,,,0,,,60,47
3120,note_on,,,,,0,0,1,,,0,,,72,47
3120,note_on,,,,,0,0,1,,,0,,,41,47
3240,note_off,,,,,120,0,2,,,0,,,51,64
3240,note_on,,,,,0,0,2,,,0,,,53,43
3300,control_change,,,,,60,0,2,,,0,64,0,,
3336,note_off,,,,,36,0,2,,,0,,,53,64
3360,note_off,,,,,240,0,1,,,0,,,41,64
3360,note_on,,,,,0,0,1,,,0,,,41,50
3360,control_change,,,,,24,0,2,,,0,64,127,,
3360,note_on,,,,,0,0,2,,,0,,,51,45
3360,note_on,,,,,0,0,1,,,0,,,65,50
3360,note_on,,,,,0,0,1,,,0,,,72,50
3360,note_off,,,,,0,0,1,,,0,,,72,64
3360,note_off,,,,,0,0,1,,,0,,,65,64
3360,note_off,,,,,0,0,1,,,0,,,60,64
3360,note_on,,,,,0,0,1,,,0,,,60,50
3480,note_off,,,,,120,0,2,,,0,,,51,64
3480,note_on,,,,,0,0,2,,,0,,,53,37
3540,control_change,,,,,60,0,2,,,0,64,0,,
3576,note_off,,,,,36,0,2,,,0,,,53,64
3600,note_on,,,,,0,0,1,,,0,,,70,53
3600,note_on,,,,,0,0,2,,,0,,,50,48
3600,note_on,,,,,0,0,1,,,0,,,65,53
3600,note_on,,,,,0,0,1,,,0,,,41,53
3600,note_off,,,,,240,0,1,,,0,,,41,64
3600,note_off,,,,,0,0,1,,,0,,,60,64
3600,note_off,,,,,0,0,1,,,0,,,65,64
3600,note_off,,,,,0,0,1,,,0,,,72,64
3600,control_change,,,,,24,0,2,,,0,64,127,,
3600,note_on,,,,,0,0,1,,,0,,,58,53
3700,set_tempo,,,,,680,1,0,571429,,,,,,
3720,note_on,,,,,0,0,2,,,0,,,48,38
3720,note_on,,,,,0,0,1,,,0,,,57,55
3720,note_on,,,,,0,0,1,,,0,,,65,55
3720,note_on,,,,,0,0,1,,,0,,,69,55
3720,note_off,,,,,0,0,1,,,0,,,65,64
3720,note_off,,,,,120,0,1,,,0,,,58,64
3720,note_off,,,,,120,0,2,,,0,,,50,64
3720,note_off,,,,,0,0,1,,,0,,,70,64
3760,set_tempo,,,,,60,1,0,631579,,,,,,
3780,control_change,,,,,60,0,2,,,0,64,0,,
3840,note_off,,,,,60,0,2,,,0,,,48,64
3840,control_change,,,,,0,0,2,,,0,64,127,,
3840,note_on,,,,,0,0,2,,,0,,,50,50
3840,set_tempo,,,,,80,1,0,566038,,,,,,
3840,note_off,,,,,0,0,1,,,0,,,65,64
3840,note_on,,,,,0,0,1,,,0,,,46,58
3840,note_on,,,,,0,0,1,,,0,,,58,58
3840,note_on,,,,,0,0,1,,,0,,,65,58
3840,note_off,,,,,120,0,1,,,0,,,57,64
3840,note_off,,,,,0,0,1,,,0,,,41,64
3840,note_off,,,,,0,0,1,,,0,,,69,64
3840,note_on,,,,,0,0,1,,,0,,,70,58
3880,set_tempo,,,,,40,1,0,582524,,,,,,
3960,note_off,,,,,120,0,2,,,0,,,50,64
3960,note_on,,,,,0,0,2,,,0,,,53,41
4020,set_tempo,,,,,140,1,0,612245,,,,,,
4056,note_off,,,,,96,0,2,,,0,,,53,64
4080,note_off,,,,,240,0,1,,,0,,,65,64
4080,note_on,,,,,0,0,1,,,0,,,67,44
4080,note_on,,,,,0,0,1,,,0,,,63,44
4080,note_on,,,,,24,0,2,,,0,,,51,39
4110,control_change,,,,,30,0,2,,,0,64,0,,
4200,note_off,,,,,90,0,2,,,0,,,51,64
4200,note_on,,,,,0,0,2,,,0,,,55,36
4220,set_tempo,,,,,200,1,0,652174,,,,,,
4240,set_tempo,,,,,20,1,0,659341,,,,,,
4320,note_on,,,,,0,0,2,,,0,,,50,34
4320,set_tempo,,,,,80,1,0,722892,,,,,,
4320,note_on,,,,,0,0,1,,,0,,,65,34
4320,note_off,,,,,240,0,1,,,0,,,63,64
4320,note_off,,,,,0,0,1,,,0,,,67,64
4320,note_on,,,,,0,0,1,,,0,,,62,34
4320,note_off,,,,,120,0,2,,,0,,,55,64
4340,set_tempo,,,,,20,1,0,731707,,,,,,
4420,set_tempo,,,,,80,1,0,779221,,,,,,
4440,note_off,,,,,120,0,2,,,0,,,50,64
4440,note_on,,,,,0,0,2,,,0,,,53,32
4536,note_off,,,,,96,0,2,,,0,,,53,64
4560,note_off,,,,,0,0,1,,,0,,,65,64
4560,set_tempo,,,,,140,1,0,566038,,,,,,
4560,note_off,,,,,240,0,1,,,0,,,62,64
4560,note_off,,,,,0,0,1,,,0,,,70,64
4560,note_off,,,,,0,0,1,,,0,,,46,64
4560,note_on,,,,,0,0,1,,,0,,,70,52
4560,note_on,,,,,0,0,2,,,0,,,50,40
4560,control_change,,,,,24,0,2,,,0,64,127,,
4560,note_off,,,,,0,0,1,,,0,,,58,64
4560,note_on,,,,,0,0,1,,,0,,,46,52
4680,note_on,,,,,0,0,2,,,0,,,58,38
4680,note_off,,,,,120,0,2,,,0,,,50,64
4720,set_tempo,,,,,160,1,0,750000,,,,,,
4740,control_change,,,,,60,0,2,,,0,64,0,,
4770,note_off,,,,,30,0,2,,,0,,,58,64
4800,note_on,,,,,0,0,1,,,0,,,46,54
4800,note_on,,,,,0,0,1,,,0,,,63,54
4800,note_on,,,,,0,0,1,,,0,,,70,54
4800,note_off,,,,,0,0,1,,,0,,,70,64
4800,note_on,,,,,0,0,1,,,0,,,75,54
4800,note_on,,,,,0,0,2,,,0,,,55,50
4800,note_on,,,,,0,0,1,,,0,,,55,54
4800,control_change,,,,,30,0,2,,,0,64,127,,
4800,note_off,,,,,240,0,1,,,0,,,46,64
4800,set_tempo,,,,,80,1,0,571429,,,,,,
4920,note_on,,,,,0,0,2,,,0,,,58,41
4920,note_off,,,,,120,0,2,,,0,,,55,64
5016,note_off,,,,,96,0,2,,,0,,,58,64
5040,note_on,,,,,24,0,2,,,0,,,58,36
5136,note_off,,,,,96,0,2,,,0,,,58,64
5160,note_on,,,,,24,0,2,,,0,,,58,30
5256,note_off,,,,,96,0,2,,,0,,,58,64
5280,note_on,,,,,24,0,2,,,0,,,58,36
5376,note_off,,,,,96,0,2,,,0,,,58,64
5400,note_on,,,,,24,0,2,,,0,,,58,37
5460,control_change,,,,,60,0,2,,,0,64,0,,
5480,set_tempo,,,,,680,1,0,588235,,,,,,
5496,note_off,,,,,36,0,2,,,0,,,58,64
5520,note_off,,,,,720,0,1,,,0,,,46,64
5520,note_on,,,,,0,0,1,,,0,,,46,48
5520,note_on,,,,,0,0,1,,,0,,,62,48
5520,note_on,,,,,0,0,1,,,0,,,70,48
5520,note_on,,,,,0,0,1,,,0,,,74,48
5520,note_off,,,,,0,0,1,,,0,,,75,64
5520,note_off,,,,,0,0,1,,,0,,,70,64
5520,note_off,,,,,0,0,1,,,0,,,63,64
5520,note_off,,,,,0,0,1,,,0,,,55,64
5520,control_change,,,,,24,0,2,,,0,64,127,,
5520,note_on,,,,,0,0,2,,,0,,,53,40
5600,set_tempo,,,,,120,1,0,618557,,,,,,
5640,note_off,,,,,120,0,2,,,0,,,53,64
5640,note_on,,,,,0,0,2,,,0,,,51,43
5640,note_off,,,,,120,0,1,,,0,,,62,64
5640,note_off,,,,,0,0,1,,,0,,,70,64
5640,note_off,,,,,0,0,1,,,0,,,74,64
5640,note_on,,,,,0,0,1,,,0,,,72,48
5640,note_on,,,,,0,0,1,,,0,,,70,48
5640,note_on,,,,,0,0,1,,,0,,,60,48
5700,control_change,,,,,60,0,2,,,0,64,0,,
5740,set_tempo,,,,,140,1,0,652174,,,,,,
5760,control_change,,,,,0,0,2,,,0,64,127,,
5760,note_off,,,,,120,0,1,,,0,,,60,64
5760,note_off,,,,,0,0,1,,,0,,,70,64
5760,note_off,,,,,0,0,1,,,0,,,72,64
5760,note_off,,,,,0,0,1,,,0,,,46,64
5760,note_on,,,,,0,0,1,,,0,,,74,48
5760,note_on,,,,,0,0,1,,,0,,,70,48
5760,note_on,,,,,0,0,1,,,0,,,62,48
5760,note_on,,,,,0,0,1,,,0,,,46,48
5760,note_on,,,,,0,0,2,,,0,,,53,50
5760,note_off,,,,,60,0,2,,,0,,,51,64
5880,note_on,,,,,0,0,2,,,0,,,50,41
5880,note_off,,,,,120,0,2,,,0,,,53,64
5900,set_tempo,,,,,160,1,0,625000,,,,,,
5940,control_change,,,,,60,0,2,,,0,64,0,,
5976,note_off,,,,,36,0,2,,,0,,,50,64
6000,note_off,,,,,0,0,1,,,0,,,62,64
6000,note_on,,,,,0,0,1,,,0,,,57,52
6000,note_on,,,,,0,0,1,,,0,,,65,52
6000,note_on,,,,,0,0,1,,,0,,,69,52
6000,note_off,,,,,0,0,1,,,0,,,74,64
6000,note_off,,,,,0,0,1,,,0,,,70,64
6000,note_off,,,,,240,0,1,,,0,,,46,64
6000,note_on,,,,,0,0,1,,,0,,,41,52
6000,control_change,,,,,24,0,2,,,0,64,127,,
6000,note_on,,,,,0,0,2,,,0,,,48,36
6096,note_off,,,,,96,0,2,,,0,,,48,64
6120,set_tempo,,,,,220,1,0,600000,,,,,,
6120,note_on,,,,,24,0,2,,,0,,,53,38
6180,control_change,,,,,60,0,2,,,0,64,0,,
6216,note_off,,,,,36,0,2,,,0,,,53,64
6240,note_off,,,,,0,0,1,,,0,,,57,64
6240,note_off,,,,,0,0,1,,,0,,,65,64
6240,note_off,,,,,0,0,1,,,0,,,69,64
6240,note_on,,,,,0,0,1,,,0,,,70,45
6240,note_on,,,,,0,0,1,,,0,,,65,45
6240,note_on,,,,,0,0,1,,,0,,,58,45
6240,note_on,,,,,0,0,1,,,0,,,41,45
6240,control_change,,,,,24,0,2,,,0,64,127,,
6240,note_on,,,,,0,0,2,,,0,,,50,36
6240,note_off,,,,,240,0,1,,,0,,,41,64
6336,note_off,,,,,96,0,2,,,0,,,50,64
6360,note_on,,,,,24,0,2,,,0,,,53,37
6400,set_tempo,,,,,280,1,0,576923,,,,,,
6420,control_change,,,,,60,0,2,,,0,64,0,,
6456,note_off,,,,,36,0,2,,,0,,,53,64
6480,control_change,,,,,24,0,2,,,0,64,127,,
6480,note_on,,,,,0,0,2,,,0,,,51,40
6480,note_off,,,,,240,0,1,,,0,,,41,64
6480,note_off,,,,,0,0,1,,,0,,,58,64
6480,note_off,,,,,0,0,1,,,0,,,70,64
6480,note_on,,,,,0,0,1,,,0,,,72,43
6480,note_on,,,,,0,0,1,,,0,,,65,43
6480,note_on,,,,,0,0,1,,,0,,,60,43
6480,note_on,,,,,0,0,1,,,0,,,41,43
6480,note_off,,,,,0,0,1,,,0,,,65,64
6600,note_off,,,,,120,0,2,,,0,,,51,64
6600,note_on,,,,,0,0,2,,,0,,,53,43
6660,control_change,,,,,60,0,2,,,0,64,0,,
6720,note_on,,,,,0,0,2,,,0,,,50,50
6720,note_off,,,,,0,0,1,,,0,,,60,64
6720,note_off,,,,,0,0,1,,,0,,,65,64
6720,note_off,,,,,0,0,1,,,0,,,72,64
6720,note_on,,,,,0,0,1,,,0,,,70,48
6720,note_on,,,,,0,0,1,,,0,,,58,48
6720,note_on,,,,,0,0,1,,,0,,,41,48
6720,control_change,,,,,0,0,2,,,0,64,127,,
6720,note_off,,,,,60,0,2,,,0,,,53,64
6720,note_off,,,,,240,0,1,,,0,,,41,64
6720,note_on,,,,,0,0,1,,,0,,,65,48
6840,note_on,,,,,0,0,2,,,0,,,53,49
6840,note_off,,,,,120,0,2,,,0,,,50,64
6900,set_tempo,,,,,500,1,0,618557,,,,,,
6960,note_off,,,,,120,0,2,,,0,,,53,64
6960,note_on,,,,,0,0,2,,,0,,,50,41
6960,note_off,,,,,240,0,1,,,0,,,58,64
6960,note_off,,,,,0,0,1,,,0,,,65,64
6960,note_off,,,,,0,0,1,,,0,,,70,64
6960,note_on,,,,,0,0,1,,,0,,,74,53
6960,note_on,,,,,0,0,1,,,0,,,70,53
6960,note_on,,,,,0,0,1,,,0,,,65,53
6960,note_on,,,,,0,0,1,,,0,,,62,53
7080,note_off,,,,,120,0,2,,,0,,,50,64
7080,note_on,,,,,0,0,2,,,0,,,46,35
7200,note_on,,,,,0,0,2,,,0,,,41,45
7200,note_off,,,,,0,0,1,,,0,,,70,64
7200,note_off,,,,,0,0,1,,,0,,,65,64
7200,note_off,,,,,0,0,1,,,0,,,41,64
7200,note_on,,,,,0,0,1,,,0,,,72,44
7200,note_on,,,,,0,0,1,,,0,,,69,44
7200,note_on,,,,,0,0,1,,,0,,,65,44
7200,note_on,,,,,0,0,1,,,0,,,60,44
7200,note_off,,,,,120,0,2,,,0,,,46,64
7200,note_off,,,,,240,0,1,,,0,,,62,64
7200,note_off,,,,,0,0,1,,,0,,,74,64
7300,set_tempo,,,,,400,1,0,652174,,,,,,
7400,set_tempo,,,,,100,1,0,674157,,,,,,
7440,note_off,,,,,240,0,2,,,0,,,41,64
7580,set_tempo,,,,,180,1,0,582524,,,,,,
7590,control_change,,,,,150,0,2,,,0,64,0,,
7590,note_on,,,,,0,0,2,,,0,,,29,51
7600,set_tempo,,,,,20,1,0,789474,,,,,,
7620,note_on,,,,,0,0,2,,,0,,,30,55
7620,note_off,,,,,30,0,2,,,0,,,29,64
7650,note_on,,,,,0,0,2,,,0,,,32,59
7650,note_off,,,,,30,0,2,,,0,,,30,64
7680,note_off,,,,,30,0,2,,,0,,,32,64
7680,note_on,,,,,0,0,2,,,0,,,30,62
7710,note_off,,,,,30,0,2,,,0,,,30,64
7710,note_on,,,,,0,0,2,,,0,,,32,63
7740,set_tempo,,,,,140,1,0,588235,,,,,,
7740,note_off,,,,,30,0,2,,,0,,,32,64
7740,note_on,,,,,0,0,2,,,0,,,30,60
7760,set_tempo,,,,,20,1,0,606061,,,,,,
7770,note_off,,,,,30,0,2,,,0,,,30,64
7770,note_on,,,,,0,0,2,,,0,,,32,59
7800,note_on,,,,,0,0,2,,,0,,,30,57
7800,note_off,,,,,30,0,2,,,0,,,32,64
7830,note_off,,,,,30,0,2,,,0,,,30,64
7830,note_on,,,,,0,0,2,,,0,,,32,55
7860,note_off,,,,,30,0,2,,,0,,,32,64
7860,note_on,,,,,0,0,2,,,0,,,30,54
7890,note_off,,,,,30,0,2,,,0,,,30,64
7890,note_on,,,,,0,0,2,,,0,,,32,53
7920,note_off,,,,,30,0,2,,,0,,,32,64
7920,note_on,,,,,0,0,2,,,0,,,30,52
7950,note_on,,,,,0,0,2,,,0,,,32,51
7950,note_off,,,,,30,0,2,,,0,,,30,64
7960,set_tempo,,,,,200,1,0,612245,,,,,,
7980,note_off,,,,,30,0,2,,,0,,,32,64
7980,note_on,,,,,0,0,2,,,0,,,30,51
8010,note_on,,,,,0,0,2,,,0,,,32,49
8010,note_off,,,,,30,0,2,,,0,,,30,64
8040,note_off,,,,,30,0,2,,,0,,,32,64
8040,note_on,,,,,0,0,2,,,0,,,30,48
8070,note_off,,,,,30,0,2,,,0,,,30,64
8070,note_on,,,,,0,0,2,,,0,,,32,47
8100,note_off,,,,,30,0,2,,,0,,,32,64
8100,note_on,,,,,0,0,2,,,0,,,30,46
8130,note_off,,,,,30,0,2,,,0,,,30,64
8130,note_on,,,,,0,0,2,,,0,,,32,46
8160,note_off,,,,,30,0,2,,,0,,,32,64
8160,note_on,,,,,0,0,2,,,0,,,30,45
8190,note_off,,,,,30,0,2,,,0,,,30,64
8190,note_on,,,,,0,0,2,,,0,,,32,44
8200,set_tempo,,,,,240,1,0,631579,,,,,,
8220,note_on,,,,,0,0,2,,,0,,,30,44
8220,note_off,,,,,30,0,2,,,0,,,32,64
8250,note_off,,,,,30,0,2,,,0,,,30,64
8250,note_on,,,,,0,0,2,,,0,,,32,44
8280,note_off,,,,,30,0,2,,,0,,,32,64
8280,note_on,,,,,0,0,2,,,0,,,30,43
8310,note_off,,,,,30,0,2,,,0,,,30,64
8310,note_on,,,,,0,0,2,,,0,,,32,43
8340,note_off,,,,,30,0,2,,,0,,,32,64
8340,note_on,,,,,0,0,2,,,0,,,30,44
8370,note_off,,,,,30,0,2,,,0,,,30,64
8370,note_on,,,,,0,0,2,,,0,,,32,42
8400,note_off,,,,,30,0,2,,,0,,,32,64
8400,note_on,,,,,0,0,2,,,0,,,30,41
8430,note_off,,,,,30,0,2,,,0,,,30,64
8430,note_on,,,,,0,0,2,,,0,,,32,41
8460,note_off,,,,,30,0,2,,,0,,,32,64
8460,note_on,,,,,0,0,2,,,0,,,30,40
8490,note_on,,,,,0,0,2,,,0,,,32,39
8490,note_off,,,,,30,0,2,,,0,,,30,64
8520,note_off,,,,,30,0,2,,,0,,,32,64
8520,note_on,,,,,0,0,2,,,0,,,30,39
8520,set_tempo,,,,,320,1,0,659341,,,,,,
8540,set_tempo,,,,,20,1,0,666667,,,,,,
8560,set_tempo,,,,,20,1,0,967742,,,,,,
8560,note_on,,,,,0,0,2,,,0,,,29,38
8560,note_off,,,,,40,0,2,,,0,,,30,64
8580,set_tempo,,,,,20,1,0,1000000,,,,,,
8600,note_on,,,,,0,0,2,,,0,,,30,34
8600,note_off,,,,,40,0,2,,,0,,,29,64
8620,set_tempo,,,,,40,1,0,1034483,,,,,,
8640,note_off,,,,,40,0,2,,,0,,,30,64
8640,control_change,,,,,0,0,2,,,0,91,96,,
8640,set_tempo,,,,,20,1,0,1463415,,,,,,
8640,note_on,,,,,0,0,2,,,0,,,29,34
8760,note_off,,,,,1560,0,1,,,0,,,60,64
8760,note_off,,,,,0,0,1,,,0,,,65,64
8760,note_off,,,,,0,0,1,,,0,,,72,64
8760,note_off,,,,,0,0,1,,,0,,,69,64
8760,note_off,,,,,120,0,2,,,0,,,29,64
8780,set_tempo,,,,,140,1,0,560748,,,,,,
9360,control_change,,,,,600,0,2,,,0,64,127,,
9360,note_on,,,,,0,0,2,,,0,,,50,35
9360,note_on,,,,,600,0,1,,,0,,,70,40
9360,note_on,,,,,0,0,1,,,0,,,65,40
9360,note_on,,,,,0,0,1,,,0,,,46,40
9360,note_on,,,,,0,0,1,,,0,,,58,40
9480,set_tempo,,,,,700,1,0,631579,,,,,,
9480,note_off,,,,,120,0,2,,,0,,,50,64
9480,note_on,,,,,0,0,2,,,0,,,53,30
9540,control_change,,,,,60,0,2,,,0,64,0,,
9576,note_off,,,,,36,0,2,,,0,,,53,64
9580,set_tempo,,,,,100,1,0,625000,,,,,,
9600,note_on,,,,,0,0,1,,,0,,,46,49
9600,note_on,,,,,0,0,1,,,0,,,58,49
9600,note_on,,,,,0,0,1,,,0,,,65,49
9600,note_off,,,,,0,0,1,,,0,,,70,64
9600,note_off,,,,,0,0,1,,,0,,,65,64
9600,note_off,,,,,0,0,1,,,0,,,58,64
9600,note_off,,,,,240,0,1,,,0,,,46,64
9600,control_change,,,,,24,0,2,,,0,64,127,,
9600,note_on,,,,,0,0,2,,,0,,,50,39
9600,note_on,,,,,0,0,1,,,0,,,70,49
9720,note_off,,,,,120,0,2,,,0,,,50,64
9720,note_on,,,,,0,0,2,,,0,,,53,31
9780,control_change,,,,,60,0,2,,,0,64,0,,
9816,note_off,,,,,36,0,2,,,0,,,53,64
9840,set_tempo,,,,,260,1,0,618557,,,,,,
9840,note_on,,,,,0,0,1,,,0,,,46,41
9840,note_on,,,,,0,0,1,,,0,,,57,41
9840,note_on,,,,,0,0,1,,,0,,,69,41
9840,note_off,,,,,0,0,1,,,0,,,70,64
9840,note_off,,,,,0,0,1,,,0,,,65,64
9840,note_off,,,,,0,0,1,,,0,,,58,64
9840,note_off,,,,,240,0,1,,,0,,,46,64
9840,control_change,,,,,24,0,2,,,0,64,127,,
9840,note_on,,,,,0,0,1,,,0,,,65,41
9840,note_on,,,,,0,0,2,,,0,,,48,36
9860,set_tempo,,,,,20,1,0,612245,,,,,,
9940,set_tempo,,,,,80,1,0,606061,,,,,,
9960,note_off,,,,,120,0,2,,,0,,,48,64
9960,note_on,,,,,0,0,2,,,0,,,53,31
9960,set_tempo,,,,,20,1,0,588235,,,,,,
10020,control_change,,,,,60,0,2,,,0,64,0,,
10056,note_off,,,,,36,0,2,,,0,,,53,64
10060,set_tempo,,,,,100,1,0,566038,,,,,,
10080,note_off,,,,,240,0,1,,,0,,,46,64
10080,note_off,,,,,0,0,1,,,0,,,57,64
10080,note_off,,,,,0,0,1,,,0,,,65,64
10080,note_on,,,,,0,0,1,,,0,,,46,44
10080,note_on,,,,,0,0,1,,,0,,,65,44
10080,note_on,,,,,0,0,1,,,0,,,58,44
10080,note_on,,,,,0,0,2,,,0,,,50,39
10080,note_off,,,,,0,0,1,,,0,,,69,64
10080,control_change,,,,,24,0,2,,,0,64,127,,
10080,note_on,,,,,0,0,1,,,0,,,70,44
10200,note_off,,,,,120,0,2,,,0,,,50,64
10200,note_on,,,,,0,0,2,,,0,,,53,35
10260,control_change,,,,,60,0,2,,,0,64,0,,
10280,set_tempo,,,,,220,1,0,545455,,,,,,
10296,note_off,,,,,36,0,2,,,0,,,53,64
10320,note_on,,,,,0,0,1,,,0,,,60,54
10320,note_on,,,,,0,0,2,,,0,,,51,42
10320,control_change,,,,,24,0,2,,,0,64,127,,
10320,note_on,,,,,0,0,1,,,0,,,46,54
10320,note_on,,,,,0,0,1,,,0,,,65,54
10320,note_on,,,,,0,0,1,,,0,,,72,54
10320,note_off,,,,,0,0,1,,,0,,,70,64
10320,note_off,,,,,0,0,1,,,0,,,65,64
10320,note_off,,,,,0,0,1,,,0,,,58,64
10320,note_off,,,,,240,0,1,,,0,,,46,64
10440,note_off,,,,,120,0,2,,,0,,,51,64
10440,note_on,,,,,0,0,2,,,0,,,53,38
10480,set_tempo,,,,,200,1,0,631579,,,,,,
10500,control_change,,,,,60,0,2,,,0,64,0,,
10536,note_off,,,,,36,0,2,,,0,,,53,64
10560,note_on,,,,,0,0,1,,,0,,,62,57
10560,control_change,,,,,24,0,2,,,0,64,127,,
10560,note_on,,,,,0,0,2,,,0,,,52,50
10560,note_off,,,,,240,0,1,,,0,,,46,64
10560,note_off,,,,,0,0,1,,,0,,,60,64
10560,note_off,,,,,0,0,1,,,0,,,65,64
10560,note_off,,,,,0,0,1,,,0,,,72,64
10560,note_on,,,,,0,0,1,,,0,,,74,57
10560,note_on,,,,,0,0,1,,,0,,,65,57
10560,note_on,,,,,0,0,1,,,0,,,46,57
10640,set_tempo,,,,,160,1,0,618557,,,,,,
10680,note_on,,,,,0,0,2,,,0,,,53,41
10680,note_off,,,,,120,0,2,,,0,,,52,64
10700,set_tempo,,,,,60,1,0,588235,,,,,,
10776,note_off,,,,,96,0,2,,,0,,,53,64
10800,note_on,,,,,24,0,2,,,0,,,53,36
10820,set_tempo,,,,,120,1,0,571429,,,,,,
10896,note_off,,,,,96,0,2,,,0,,,53,64
10920,note_on,,,,,24,0,2,,,0,,,53,30
11016,note_off,,,,,96,0,2,,,0,,,53,64
11040,note_on,,,,,24,0,2,,,0,,,53,36
11136,note_off,,,,,96,0,2,,,0,,,53,64
11160,note_on,,,,,24,0,2,,,0,,,53,37
11220,set_tempo,,,,,400,1,0,550459,,,,,,
11220,control_change,,,,,60,0,2,,,0,64,0,,
11256,note_off,,,,,36,0,2,,,0,,,53,64
11280,note_on,,,,,0,0,2,,,0,,,51,40
11280,control_change,,,,,24,0,2,,,0,64,127,,
11280,note_off,,,,,720,0,1,,,0,,,46,64
11280,note_off,,,,,0,0,1,,,0,,,62,64
11280,note_off,,,,,0,0,1,,,0,,,65,64
11280,note_off,,,,,0,0,1,,,0,,,74,64
11280,note_on,,,,,0,0,1,,,0,,,72,48
11280,note_on,,,,,0,0,1,,,0,,,65,48
11280,note_on,,,,,0,0,1,,,0,,,60,48
11280,note_on,,,,,0,0,1,,,0,,,46,48
11400,note_off,,,,,120,0,1,,,0,,,60,64
11400,note_off,,,,,0,0,1,,,0,,,65,64
11400,note_off,,,,,0,0,1,,,0,,,72,64
11400,note_on,,,,,0,0,1,,,0,,,70,46
11400,note_on,,,,,0,0,1,,,0,,,65,46
11400,note_on,,,,,0,0,1,,,0,,,58,46
11400,note_off,,,,,120,0,2,,,0,,,51,64
11400,note_on,,,,,0,0,2,,,0,,,50,43
11440,set_tempo,,,,,220,1,0,674157,,,,,,
11460,control_change,,,,,60,0,2,,,0,64,0,,
11480,set_tempo,,,,,40,1,0,681818,,,,,,
11500,set_tempo,,,,,20,1,0,631579,,,,,,
11520,note_on,,,,,0,0,1,,,0,,,60,52
11520,note_off,,,,,120,0,1,,,0,,,58,64
11520,note_off,,,,,0,0,1,,,0,,,65,64
11520,note_on,,,,,0,0,1,,,0,,,41,52
11520,note_off,,,,,60,0,2,,,0,,,50,64
11520,set_tempo,,,,,20,1,0,625000,,,,,,
11520,note_on,,,,,0,0,2,,,0,,,51,50
11520,note_off,,,,,0,0,1,,,0,,,70,64
11520,note_off,,,,,0,0,1,,,0,,,46,64
11520,note_on,,,,,0,0,1,,,0,,,72,52
11520,note_on,,,,,0,0,1,,,0,,,65,52
11520,control_change,,,,,0,0,2,,,0,64,127,,
11640,note_off,,,,,120,0,2,,,0,,,51,64
11640,set_tempo,,,,,120,1,0,606061,,,,,,
11640,note_on,,,,,0,0,2,,,0,,,53,41
11700,control_change,,,,,60,0,2,,,0,64,0,,
11736,note_off,,,,,36,0,2,,,0,,,53,64
11760,set_tempo,,,,,120,1,0,582524,,,,,,
11760,note_on,,,,,0,0,2,,,0,,,51,47
11760,control_change,,,,,24,0,2,,,0,64,127,,
11760,note_on,,,,,0,0,1,,,0,,,60,47
11760,note_off,,,,,0,0,1,,,0,,,72,64
11760,note_on,,,,,0,0,1,,,0,,,72,47
11760,note_off,,,,,240,0,1,,,0,,,41,64
11760,note_off,,,,,0,0,1,,,0,,,60,64
11760,note_off,,,,,0,0,1,,,0,,,65,64
11760,note_on,,,,,0,0,1,,,0,,,41,47
11760,note_on,,,,,0,0,1,,,0,,,65,47
11820,set_tempo,,,,,60,1,0,576923,,,,,,
11880,note_off,,,,,120,0,2,,,0,,,51,64
11880,note_on,,,,,0,0,2,,,0,,,53,43
11940,control_change,,,,,60,0,2,,,0,64,0,,
11976,note_off,,,,,36,0,2,,,0,,,53,64
12000,note_on,,,,,0,0,2,,,0,,,51,45
12000,note_off,,,,,0,0,1,,,0,,,65,64
12000,note_off,,,,,0,0,1,,,0,,,60,64
12000,note_off,,,,,0,0,1,,,0,,,72,64
12000,note_on,,,,,0,0,1,,,0,,,72,50
12000,note_on,,,,,0,0,1,,,0,,,65,50
12000,note_on,,,,,0,0,1,,,0,,,60,50
12000,note_on,,,,,0,0,1,,,0,,,41,50
12000,control_change,,,,,24,0,2,,,0,64,127,,
12000,note_off,,,,,240,0,1,,,0,,,41,64
12120,note_off,,,,,120,0,2,,,0,,,51,64
12120,note_on,,,,,0,0,2,,,0,,,53,37
12180,control_change,,,,,60,0,2,,,0,64,0,,
12216,note_off,,,,,36,0,2,,,0,,,53,64
12240,note_off,,,,,240,0,1,,,0,,,41,64
12240,note_off,,,,,0,0,1,,,0,,,60,64
12240,note_on,,,,,0,0,1,,,0,,,41,53
12240,note_on,,,,,0,0,1,,,0,,,58,53
12240,note_on,,,,,0,0,1,,,0,,,65,53
12240,note_on,,,,,0,0,1,,,0,,,70,53
12240,note_off,,,,,0,0,1,,,0,,,72,64
12240,note_on,,,,,0,0,2,,,0,,,50,48
12240,control_change,,,,,24,0,2,,,0,64,127,,
12240,note_off,,,,,0,0,1,,,0,,,65,64
12340,set_tempo,,,,,520,1,0,571429,,,,,,
12360,note_on,,,,,0,0,2,,,0,,,48,38
12360,note_off,,,,,120,0,2,,,0,,,50,64
12360,note_off,,,,,120,0,1,,,0,,,58,64
12360,note_off,,,,,0,0,1,,,0,,,65,64
12360,note_off,,,,,0,0,1,,,0,,,70,64
12360,note_on,,,,,0,0,1,,,0,,,69,55
12360,note_on,,,,,0,0,1,,,0,,,57,55
12360,note_on,,,,,0,0,1,,,0,,,65,55
12400,set_tempo,,,,,60,1,0,631579,,,,,,
12420,control_change,,,,,60,0,2,,,0,64,0,,
12480,note_off,,,,,0,0,1,,,0,,,65,64
12480,note_off,,,,,60,0,2,,,0,,,48,64
12480,note_off,,,,,120,0,1,,,0,,,57,64
12480,note_on,,,,,0,0,2,,,0,,,50,50
12480,note_on,,,,,0,0,1,,,0,,,46,58
12480,note_on,,,,,0,0,1,,,0,,,58,58
12480,note_on,,,,,0,0,1,,,0,,,65,58
12480,note_on,,,,,0,0,1,,,0,,,70,58
12480,note_off,,,,,0,0,1,,,0,,,41,64
12480,note_off,,,,,0,0,1,,,0,,,69,64
12480,control_change,,,,,0,0,2,,,0,64,127,,
12480,set_tempo,,,,,80,1,0,576923,,,,,,
12500,set_tempo,,,,,20,1,0,571429,,,,,,
12520,set_tempo,,,,,20,1,0,566038,,,,,,
12580,set_tempo,,,,,60,1,0,588235,,,,,,
12600,note_off,,,,,120,0,2,,,0,,,50,64
12600,note_on,,,,,0,0,2,,,0,,,53,41
12696,note_off,,,,,96,0,2,,,0,,,53,64
12720,note_on,,,,,24,0,2,,,0,,,51,39
12720,note_off,,,,,240,0,1,,,0,,,65,64
12720,note_on,,,,,0,0,1,,,0,,,63,44
12720,note_on,,,,,0,0,1,,,0,,,67,44
12740,set_tempo,,,,,160,1,0,606061,,,,,,
12750,control_change,,,,,30,0,2,,,0,64,0,,
12760,set_tempo,,,,,20,1,0,631579,,,,,,
12840,note_on,,,,,0,0,2,,,0,,,55,36
12840,note_off,,,,,90,0,2,,,0,,,51,64
12900,set_tempo,,,,,140,1,0,689655,,,,,,
12960,note_off,,,,,0,0,1,,,0,,,67,64
12960,note_on,,,,,0,0,1,,,0,,,62,34
12960,note_on,,,,,0,0,2,,,0,,,50,34
12960,note_off,,,,,120,0,2,,,0,,,55,64
12960,note_off,,,,,240,0,1,,,0,,,63,64
12960,note_on,,,,,0,0,1,,,0,,,65,34
13020,set_tempo,,,,,120,1,0,625000,,,,,,
13080,note_on,,,,,0,0,2,,,0,,,53,32
13080,note_off,,,,,120,0,2,,,0,,,50,64
13120,set_tempo,,,,,100,1,0,588235,,,,,,
13176,note_off,,,,,96,0,2,,,0,,,53,64
13200,set_tempo,,,,,80,1,0,600000,,,,,,
13200,note_off,,,,,240,0,1,,,0,,,62,64
13200,note_off,,,,,0,0,1,,,0,,,65,64
13200,note_off,,,,,0,0,1,,,0,,,46,64
13200,note_off,,,,,0,0,1,,,0,,,58,64
13200,note_off,,,,,0,0,1,,,0,,,70,64
13200,note_on,,,,,0,0,1,,,0,,,44,57
13200,note_on,,,,,0,0,1,,,0,,,62,52
13200,note_on,,,,,0,0,1,,,0,,,65,52
13200,note_on,,,,,0,0,1,,,0,,,74,52
13200,control_change,,,,,24,0,2,,,0,64,127,,
13200,note_on,,,,,0,0,2,,,0,,,50,40
13300,set_tempo,,,,,100,1,0,560748,,,,,,
13320,note_off,,,,,120,0,2,,,0,,,50,64
13320,note_on,,,,,0,0,2,,,0,,,53,38
13320,set_tempo,,,,,20,1,0,550459,,,,,,
13360,set_tempo,,,,,40,1,0,750000,,,,,,
13380,control_change,,,,,60,0,2,,,0,64,0,,
13410,note_off,,,,,30,0,2,,,0,,,53,64
13440,note_on,,,,,0,0,1,,,0,,,53,54
13440,note_on,,,,,0,0,1,,,0,,,43,54
13440,set_tempo,,,,,80,1,0,618557,,,,,,
13440,note_on,,,,,0,0,1,,,0,,,67,54
13440,note_off,,,,,240,0,1,,,0,,,44,64
13440,note_off,,,,,0,0,1,,,0,,,62,64
13440,note_on,,,,,0,0,1,,,0,,,74,54
13440,control_change,,,,,30,0,2,,,0,64,127,,
13440,note_on,,,,,0,0,2,,,0,,,53,50
13440,note_off,,,,,0,0,1,,,0,,,74,64
13440,note_on,,,,,0,0,1,,,0,,,62,54
13440,note_off,,,,,0,0,1,,,0,,,65,64
13560,note_off,,,,,120,0,2,,,0,,,53,64
13560,note_on,,,,,0,0,2,,,0,,,55,41
13656,note_off,,,,,96,0,2,,,0,,,55,64
13660,set_tempo,,,,,220,1,0,571429,,,,,,
13680,note_on,,,,,24,0,2,,,0,,,55,36
13776,note_off,,,,,96,0,2,,,0,,,55,64
13800,note_on,,,,,24,0,2,,,0,,,55,30
13896,note_off,,,,,96,0,2,,,0,,,55,64
13920,note_on,,,,,24,0,2,,,0,,,55,29
14016,note_off,,,,,96,0,2,,,0,,,55,64
14040,note_on,,,,,24,0,2,,,0,,,55,31
14100,control_change,,,,,60,0,2,,,0,64,0,,
14136,note_off,,,,,36,0,2,,,0,,,55,64
14160,note_on,,,,,0,0,1,,,0,,,43,42
14160,note_on,,,,,0,0,1,,,0,,,60,42
14160,note_on,,,,,0,0,1,,,0,,,67,42
14160,note_on,,,,,0,0,1,,,0,,,72,42
14160,note_off,,,,,0,0,1,,,0,,,67,64
14160,note_off,,,,,0,0,1,,,0,,,62,64
14160,note_off,,,,,0,0,1,,,0,,,74,64
14160,set_tempo,,,,,500,1,0,566038,,,,,,
14160,note_off,,,,,720,0,1,,,0,,,43,64
14160,note_off,,,,,0,0,1,,,0,,,53,64
14160,control_change,,,,,24,0,2,,,0,64,127,,
14160,note_on,,,,,0,0,2,,,0,,,51,33
14260,set_tempo,,,,,100,1,0,560748,,,,,,
14280,note_on,,,,,0,0,1,,,0,,,43,47
14280,note_on,,,,,0,0,1,,,0,,,67,47
14280,note_on,,,,,0,0,1,,,0,,,71,47
14280,note_off,,,,,0,0,1,,,0,,,72,64
14280,note_on,,,,,0,0,1,,,0,,,59,47
14280,note_on,,,,,0,0,2,,,0,,,50,36
14280,note_off,,,,,0,0,1,,,0,,,67,64
14280,note_off,,,,,0,0,1,,,0,,,60,64
14280,note_off,,,,,120,0,1,,,0,,,43,64
14280,note_off,,,,,120,0,2,,,0,,,51,64
14340,set_tempo,,,,,80,1,0,550459,,,,,,
14340,control_change,,,,,60,0,2,,,0,64,0,,
14360,set_tempo,,,,,20,1,0,576923,,,,,,
14380,set_tempo,,,,,20,1,0,588235,,,,,,
14400,note_off,,,,,0,0,1,,,0,,,59,64
14400,note_off,,,,,0,0,1,,,0,,,71,64
14400,note_on,,,,,0,0,1,,,0,,,75,49
14400,note_on,,,,,0,0,1,,,0,,,72,49
14400,note_on,,,,,0,0,1,,,0,,,63,49
14400,note_off,,,,,120,0,1,,,0,,,43,64
14400,note_off,,,,,0,0,1,,,0,,,67,64
14400,note_off,,,,,60,0,2,,,0,,,50,64
14400,control_change,,,,,0,0,2,,,0,64,127,,
14400,note_on,,,,,0,0,2,,,0,,,48,40
14400,note_on,,,,,0,0,1,,,0,,,43,49
14520,note_on,,,,,0,0,2,,,0,,,55,43
14520,note_off,,,,,120,0,2,,,0,,,48,64
14580,control_change,,,,,60,0,2,,,0,64,0,,
14616,note_off,,,,,36,0,2,,,0,,,55,64
14640,note_off,,,,,240,0,1,,,0,,,43,64
14640,note_on,,,,,0,0,2,,,0,,,53,40
14640,note_off,,,,,0,0,1,,,0,,,72,64
14640,note_off,,,,,0,0,1,,,0,,,75,64
14640,note_off,,,,,0,0,1,,,0,,,63,64
14640,note_on,,,,,0,0,1,,,0,,,74,45
14640,note_on,,,,,0,0,1,,,0,,,67,45
14640,note_on,,,,,0,0,1,,,0,,,62,45
14640,note_on,,,,,0,0,1,,,0,,,43,45
14640,control_change,,,,,24,0,2,,,0,64,127,,
14680,set_tempo,,,,,300,1,0,618557,,,,,,
14736,note_off,,,,,96,0,2,,,0,,,53,64
14760,note_on,,,,,24,0,2,,,0,,,55,39
14820,control_change,,,,,60,0,2,,,0,64,0,,
14856,note_off,,,,,36,0,2,,,0,,,55,64
14880,note_on,,,,,0,0,1,,,0,,,43,40
14880,note_on,,,,,0,0,1,,,0,,,60,40
14880,note_on,,,,,0,0,1,,,0,,,67,40
14880,note_on,,,,,0,0,1,,,0,,,72,40
14880,note_off,,,,,0,0,1,,,0,,,74,64
14880,note_off,,,,,240,0,1,,,0,,,43,64
14880,note_off,,,,,0,0,1,,,0,,,62,64
14880,note_on,,,,,0,0,2,,,0,,,51,37
14880,note_off,,,,,0,0,1,,,0,,,67,64
14880,control_change,,,,,24,0,2,,,0,64,127,,
14960,set_tempo,,,,,280,1,0,659341,,,,,,
14976,note_off,,,,,96,0,2,,,0,,,51,64
15000,note_on,,,,,24,0,2,,,0,,,55,36
15060,control_change,,,,,60,0,2,,,0,64,0,,
15080,set_tempo,,,,,120,1,0,652174,,,,,,
15096,note_off,,,,,36,0,2,,,0,,,55,64
15100,set_tempo,,,,,20,1,0,571429,,,,,,
15120,note_off,,,,,0,0,1,,,0,,,72,64
15120,note_off,,,,,0,0,1,,,0,,,67,64
15120,note_off,,,,,240,0,1,,,0,,,43,64
15120,note_on,,,,,0,0,1,,,0,,,42,43
15120,note_on,,,,,0,0,1,,,0,,,60,43
15120,note_on,,,,,24,0,2,,,0,,,51,36
15120,control_change,,,,,0,0,2,,,0,64,127,,
15120,note_on,,,,,0,0,1,,,0,,,69,43
15120,note_on,,,,,0,0,1,,,0,,,72,43
15120,note_off,,,,,0,0,1,,,0,,,60,64
15220,set_tempo,,,,,120,1,0,576923,,,,,,
15240,set_tempo,,,,,20,1,0,582524,,,,,,
15240,note_off,,,,,120,0,2,,,0,,,51,64
15240,note_on,,,,,0,0,2,,,0,,,54,36
15300,control_change,,,,,60,0,2,,,0,64,0,,
15300,set_tempo,,,,,60,1,0,588235,,,,,,
15360,note_on,,,,,0,0,1,,,0,,,51,47
15360,note_on,,,,,0,0,1,,,0,,,41,47
15360,set_tempo,,,,,60,1,0,681818,,,,,,
15360,note_on,,,,,0,0,1,,,0,,,60,47
15360,note_on,,,,,0,0,1,,,0,,,72,47
15360,note_on,,,,,0,0,1,,,0,,,65,47
15360,control_change,,,,,0,0,2,,,0,64,127,,
15360,note_on,,,,,0,0,2,,,0,,,51,41
15360,note_off,,,,,60,0,2,,,0,,,54,64
15360,note_off,,,,,240,0,1,,,0,,,42,64
15360,note_off,,,,,0,0,1,,,0,,,60,64
15360,note_off,,,,,0,0,1,,,0,,,72,64
15360,note_off,,,,,0,0,1,,,0,,,69,64
15440,set_tempo,,,,,80,1,0,588235,,,,,,
15480,note_off,,,,,120,0,2,,,0,,,51,64
15480,note_on,,,,,0,0,2,,,0,,,53,42
15520,set_tempo,,,,,80,1,0,566038,,,,,,
15576,note_off,,,,,96,0,2,,,0,,,53,64
15600,note_on,,,,,24,0,2,,,0,,,53,36
15696,note_off,,,,,96,0,2,,,0,,,53,64
15720,note_on,,,,,24,0,2,,,0,,,53,34
15816,note_off,,,,,96,0,2,,,0,,,53,64
15840,note_on,,,,,24,0,2,,,0,,,53,34
15936,note_off,,,,,96,0,2,,,0,,,53,64
15960,note_on,,,,,24,0,2,,,0,,,53,34
16020,control_change,,,,,60,0,2,,,0,64,0,,
16056,note_off,,,,,36,0,2,,,0,,,53,64
16080,note_on,,,,,0,0,1,,,0,,,58,38
16080,set_tempo,,,,,560,1,0,571429,,,,,,
16080,note_off,,,,,720,0,1,,,0,,,41,64
16080,note_off,,,,,0,0,1,,,0,,,60,64
16080,note_off,,,,,0,0,1,,,0,,,65,64
16080,note_on,,,,,0,0,1,,,0,,,41,38
16080,note_off,,,,,0,0,1,,,0,,,51,64
16080,note_on,,,,,0,0,1,,,0,,,70,38
16080,note_on,,,,,0,0,1,,,0,,,65,38
16080,control_change,,,,,0,0,2,,,0,64,127,,
16080,note_on,,,,,24,0,2,,,0,,,50,36
16080,note_off,,,,,0,0,1,,,0,,,72,64
16200,note_off,,,,,120,0,2,,,0,,,50,64
16200,note_off,,,,,120,0,1,,,0,,,41,64
16200,note_off,,,,,0,0,1,,,0,,,58,64
16200,note_off,,,,,0,0,1,,,0,,,65,64
16200,note_off,,,,,0,0,1,,,0,,,70,64
16200,note_on,,,,,0,0,1,,,0,,,69,42
16200,note_on,,,,,0,0,1,,,0,,,57,42
16200,note_on,,,,,0,0,1,,,0,,,41,42
16200,note_on,,,,,0,0,1,,,0,,,65,42
16200,note_on,,,,,0,0,2,,,0,,,48,37
16260,control_change,,,,,60,0,2,,,0,64,0,,
16320,control_change,,,,,0,0,2,,,0,64,127,,
16320,note_on,,,,,0,0,2,,,0,,,46,38
16320,note_on,,,,,0,0,1,,,0,,,41,47
16320,note_on,,,,,0,0,1,,,0,,,70,47
16320,note_off,,,,,60,0,2,,,0,,,48,64
16320,note_on,,,,,0,0,1,,,0,,,62,47
16320,note_on,,,,,0,0,1,,,0,,,74,47
16320,note_off,,,,,0,0,1,,,0,,,69,64
16320,note_off,,,,,120,0,1,,,0,,,41,64
16320,note_off,,,,,0,0,1,,,0,,,57,64
16320,note_off,,,,,0,0,1,,,0,,,65,64
16440,note_on,,,,,0,0,2,,,0,,,53,35
16440,note_off,,,,,120,0,2,,,0,,,46,64
16500,control_change,,,,,60,0,2,,,0,64,0,,
16536,note_off,,,,,36,0,2,,,0,,,53,64
16540,set_tempo,,,,,460,1,0,588235,,,,,,
16560,note_on,,,,,0,0,1,,,0,,,57,40
16560,note_off,,,,,0,0,1,,,0,,,74,64
16560,note_off,,,,,0,0,1,,,0,,,70,64
16560,note_off,,,,,0,0,1,,,0,,,62,64
16560,note_off,,,,,240,0,1,,,0,,,41,64
16560,note_on,,,,,0,0,1,,,0,,,41,40
16560,note_on,,,,,0,0,1,,,0,,,65,40
16560,note_on,,,,,0,0,1,,,0,,,69,40
16560,note_on,,,,,0,0,2,,,0,,,48,34
16560,control_change,,,,,24,0,2,,,0,64,127,,
16656,note_off,,,,,96,0,2,,,0,,,48,64
16680,note_on,,,,,24,0,2,,,0,,,53,34
16740,control_change,,,,,60,0,2,,,0,64,0,,
16776,note_off,,,,,36,0,2,,,0,,,53,64
16800,note_on,,,,,0,0,1,,,0,,,41,46
16800,note_on,,,,,0,0,1,,,0,,,70,46
16800,note_off,,,,,0,0,1,,,0,,,65,64
16800,note_off,,,,,0,0,1,,,0,,,57,64
16800,note_off,,,,,240,0,1,,,0,,,41,64
16800,note_on,,,,,0,0,1,,,0,,,58,46
16800,note_on,,,,,0,0,1,,,0,,,65,46
16800,note_off,,,,,0,0,1,,,0,,,69,64
16800,control_change,,,,,0,0,2,,,0,64,127,,
16800,note_on,,,,,24,0,2,,,0,,,50,34
16896,note_off,,,,,96,0,2,,,0,,,50,64
16920,note_on,,,,,24,0,2,,,0,,,53,35
16980,control_change,,,,,60,0,2,,,0,64,0,,
17016,note_off,,,,,36,0,2,,,0,,,53,64
17040,note_off,,,,,240,0,1,,,0,,,41,64
17040,note_on,,,,,0,0,1,,,0,,,69,51
17040,note_on,,,,,0,0,1,,,0,,,72,51
17040,note_on,,,,,0,0,1,,,0,,,65,51
17040,note_off,,,,,0,0,1,,,0,,,70,64
17040,note_on,,,,,0,0,1,,,0,,,41,51
17040,note_off,,,,,0,0,1,,,0,,,58,64
17040,note_on,,,,,0,0,1,,,0,,,60,51
17040,note_on,,,,,24,0,2,,,0,,,51,38
17040,control_change,,,,,0,0,2,,,0,64,127,,
17040,note_off,,,,,0,0,1,,,0,,,65,64
17160,note_on,,,,,0,0,2,,,0,,,53,41
17160,note_off,,,,,120,0,2,,,0,,,51,64
17220,control_change,,,,,60,0,2,,,0,64,0,,
17280,note_off,,,,,0,0,1,,,0,,,60,64
17280,note_off,,,,,0,0,1,,,0,,,69,64
17280,note_off,,,,,0,0,1,,,0,,,72,64
17280,note_off,,,,,0,0,1,,,0,,,65,64
17280,note_on,,,,,0,0,1,,,0,,,72,56
17280,note_on,,,,,0,0,1,,,0,,,69,56
17280,note_on,,,,,0,0,1,,,0,,,65,56
17280,note_on,,,,,0,0,1,,,0,,,60,56
17280,note_on,,,,,0,0,1,,,0,,,51,56
17280,note_on,,,,,0,0,1,,,0,,,53,56
17280,note_off,,,,,240,0,1,,,0,,,41,64
17280,set_tempo,,,,,740,1,0,631579,,,,,,
17280,note_on,,,,,0,0,1,,,0,,,41,56
17280,note_off,,,,,60,0,2,,,0,,,53,64
17280,control_change,,,,,0,0,2,,,0,91,96,,
17280,control_change,,,,,0,0,2,,,0,64,127,,
17520,set_tempo,,,,,240,1,0,967742,,,,,,
17700,set_tempo,,,,,180,1,0,618557,,,,,,
17740,set_tempo,,,,,40,1,0,588235,,,,,,
17760,note_on,,,,,0,0,1,,,0,,,46,34
17760,note_off,,,,,0,0,1,,,0,,,51,64
17760,note_off,,,,,480,0,1,,,0,,,41,64
17760,note_off,,,,,0,0,1,,,0,,,60,64
17760,note_off,,,,,0,0,1,,,0,,,69,64
17760,note_off,,,,,0,0,1,,,0,,,72,64
17760,note_on,,,,,0,0,1,,,0,,,58,34
17760,note_on,,,,,0,0,1,,,0,,,70,34
17760,note_on,,,,,0,0,1,,,0,,,50,34
17800,set_tempo,,,,,60,1,0,582524,,,,,,
17820,set_tempo,,,,,20,1,0,659341,,,,,,
17880,set_tempo,,,,,60,1,0,1463415,,,,,,
17880,note_off,,,,,120,0,1,,,0,,,46,64
17880,note_off,,,,,0,0,1,,,0,,,65,64
17880,note_off,,,,,0,0,1,,,0,,,53,64
17880,note_off,,,,,0,0,1,,,0,,,70,64
17880,note_off,,,,,0,0,1,,,0,,,58,64
17880,note_off,,,,,0,0,1,,,0,,,50,64
17970,control_change,,,,,690,0,2,,,0,64,0,,
18000,note_on,,,,,0,0,2,,,0,,,34,46
18000,control_change,,,,,30,0,2,,,0,64,127,,
18020,set_tempo,,,,,140,1,0,674157,,,,,,
18090,note_off,,,,,90,0,2,,,0,,,34,64
18120,control_change,,,,,30,0,2,,,0,64,0,,
18160,set_tempo,,,,,140,1,0,550459,,,,,,
18240,note_on,,,,,120,0,2,,,0,,,34,60
18278,note_on,,,,,38,0,2,,,0,,,35,58
18280,note_off,,,,,2,0,2,,,0,,,34,64
18318,note_on,,,,,0,0,2,,,0,,,34,58
18318,note_off,,,,,38,0,2,,,0,,,35,64
18358,note_off,,,,,40,0,2,,,0,,,34,64
18358,note_on,,,,,0,0,2,,,0,,,35,54
18380,set_tempo,,,,,220,1,0,571429,,,,,,
18398,note_off,,,,,40,0,2,,,0,,,35,64
18398,note_on,,,,,0,0,2,,,0,,,34,52
18438,note_off,,,,,40,0,2,,,0,,,34,64
18438,note_on,,,,,0,0,2,,,0,,,35,52
18478,note_off,,,,,40,0,2,,,0,,,35,64
18478,note_on,,,,,0,0,2,,,0,,,34,56
18518,note_off,,,,,40,0,2,,,0,,,34,64
18518,note_on,,,,,0,0,2,,,0,,,35,51
18540,set_tempo,,,,,160,1,0,600000,,,,,,
18558,note_on,,,,,0,0,2,,,0,,,34,51
18558,note_off,,,,,40,0,2,,,0,,,35,64
18598,note_on,,,,,0,0,2,,,0,,,35,51
18598,note_off,,,,,40,0,2,,,0,,,34,64
18638,note_off,,,,,40,0,2,,,0,,,35,64
18638,note_on,,,,,0,0,2,,,0,,,34,51
18660,set_tempo,,,,,120,1,0,618557,,,,,,
18678,note_off,,,,,40,0,2,,,0,,,34,64
18678,note_on,,,,,0,0,2,,,0,,,35,51
18718,note_off,,,,,40,0,2,,,0,,,35,64
18718,note_on,,,,,0,0,2,,,0,,,34,56
18758,note_off,,,,,40,0,2,,,0,,,34,64
18758,note_on,,,,,0,0,2,,,0,,,35,52
18780,set_tempo,,,,,120,1,0,645161,,,,,,
18798,note_off,,,,,40,0,2,,,0,,,35,64
18798,note_on,,,,,0,0,2,,,0,,,34,53
18838,note_off,,,,,40,0,2,,,0,,,34,64
18838,note_on,,,,,0,0,2,,,0,,,35,54
18878,note_on,,,,,0,0,2,,,0,,,34,55
18878,note_off,,,,,40,0,2,,,0,,,35,64
18918,note_off,,,,,40,0,2,,,0,,,34,64
18918,note_on,,,,,0,0,2,,,0,,,35,57
18920,set_tempo,,,,,140,1,0,674157,,,,,,
18958,note_off,,,,,40,0,2,,,0,,,35,64
18958,note_on,,,,,0,0,2,,,0,,,34,58
18960,note_on,,,,,1080,0,1,,,0,,,70,58
18998,note_off,,,,,40,0,2,,,0,,,34,64
18998,note_on,,,,,0,0,2,,,0,,,35,61
19038,note_on,,,,,0,0,2,,,0,,,34,62
19038,note_off,,,,,40,0,2,,,0,,,35,64
19060,set_tempo,,,,,140,1,0,705882,,,,,,
19076,note_on,,,,,38,0,2,,,0,,,33,64
19078,note_off,,,,,2,0,2,,,0,,,34,64
19100,set_tempo,,,,,40,1,0,689655,,,,,,
19116,note_on,,,,,0,0,2,,,0,,,32,65
19116,note_off,,,,,38,0,2,,,0,,,33,64
19156,note_off,,,,,40,0,2,,,0,,,32,64
19156,note_on,,,,,0,0,2,,,0,,,31,68
19170,note_off,,,,,210,0,1,,,0,,,70,64
19180,set_tempo,,,,,80,1,0,705882,,,,,,
19196,note_off,,,,,40,0,2,,,0,,,31,64
19200,control_change,,,,,0,0,2,,,0,64,127,,
19200,set_tempo,,,,,20,1,0,923077,,,,,,
19200,note_on,,,,,30,0,1,,,0,,,70,49
19200,note_on,,,,,4,0,2,,,0,,,30,69
19230,note_off,,,,,30,0,2,,,0,,,30,64
19260,note_on,,,,,30,0,2,,,0,,,49,30
19260,set_tempo,,,,,60,1,0,705882,,,,,,
19300,set_tempo,,,,,40,1,0,681818,,,,,,
19320,set_tempo,,,,,20,1,0,689655,,,,,,
19320,note_off,,,,,60,0,2,,,0,,,49,64
19320,note_on,,,,,0,0,2,,,0,,,54,31
19380,note_off,,,,,60,0,2,,,0,,,54,64
19380,note_on,,,,,0,0,2,,,0,,,49,32
19380,set_tempo,,,,,60,1,0,659341,,,,,,
19410,control_change,,,,,30,0,2,,,0,64,0,,
19432,note_off,,,,,22,0,2,,,0,,,49,64
19440,note_off,,,,,240,0,1,,,0,,,70,64
19440,note_on,,,,,8,0,2,,,0,,,42,37
19440,control_change,,,,,0,0,2,,,0,64,127,,
19440,note_on,,,,,0,0,1,,,0,,,68,46
19500,note_off,,,,,60,0,2,,,0,,,42,64
19500,note_on,,,,,0,0,2,,,0,,,49,27
19500,set_tempo,,,,,120,1,0,618557,,,,,,
19560,note_on,,,,,0,0,2,,,0,,,53,28
19560,note_off,,,,,60,0,2,,,0,,,49,64
19620,note_on,,,,,0,0,2,,,0,,,49,30
19620,note_off,,,,,60,0,2,,,0,,,53,64
19640,set_tempo,,,,,140,1,0,600000,,,,,,
19650,control_change,,,,,30,0,2,,,0,64,0,,
19672,note_off,,,,,22,0,2,,,0,,,49,64
19680,note_off,,,,,240,0,1,,,0,,,68,64
19680,note_on,,,,,0,0,1,,,0,,,70,48
19680,note_on,,,,,8,0,2,,,0,,,42,41
19680,control_change,,,,,0,0,2,,,0,64,127,,
19740,note_off,,,,,60,0,2,,,0,,,42,64
19740,note_on,,,,,0,0,2,,,0,,,49,32
19800,note_off,,,,,60,0,2,,,0,,,49,64
19800,note_on,,,,,0,0,2,,,0,,,54,33
19860,note_off,,,,,60,0,2,,,0,,,54,64
19860,note_on,,,,,0,0,2,,,0,,,49,36
19890,control_change,,,,,30,0,2,,,0,64,0,,
19912,note_off,,,,,22,0,2,,,0,,,49,64
19920,note_off,,,,,240,0,1,,,0,,,70,64
19920,note_on,,,,,0,0,1,,,0,,,71,53
19920,control_change,,,,,0,0,2,,,0,64,127,,
19920,note_on,,,,,8,0,2,,,0,,,42,47
19980,note_off,,,,,60,0,2,,,0,,,42,64
19980,note_on,,,,,0,0,2,,,0,,,49,39
20040,note_off,,,,,60,0,2,,,0,,,49,64
20040,note_on,,,,,0,0,2,,,0,,,56,40
20080,set_tempo,,,,,440,1,0,576923,,,,,,
20100,note_on,,,,,0,0,2,,,0,,,49,43
20100,note_off,,,,,60,0,2,,,0,,,56,64
20130,control_change,,,,,30,0,2,,,0,64,0,,
20152,note_off,,,,,22,0,2,,,0,,,49,64
20160,note_on,,,,,0,0,1,,,0,,,73,57
20160,control_change,,,,,8,0,2,,,0,64,127,,
20160,note_on,,,,,0,0,2,,,0,,,42,58
20160,note_off,,,,,240,0,1,,,0,,,71,64
20220,note_off,,,,,60,0,2,,,0,,,42,64
20220,note_on,,,,,0,0,2,,,0,,,49,48
20240,set_tempo,,,,,160,1,0,582524,,,,,,
20280,set_tempo,,,,,40,1,0,588235,,,,,,
20280,note_off,,,,,60,0,2,,,0,,,49,64
20280,note_on,,,,,0,0,2,,,0,,,58,46
20340,note_off,,,,,60,0,2,,,0,,,58,64
20340,note_on,,,,,0,0,2,,,0,,,49,45
20392,note_off,,,,,52,0,2,,,0,,,49,64
20400,note_on,,,,,8,0,2,,,0,,,42,54
20400,set_tempo,,,,,120,1,0,566038,,,,,,
20460,note_on,,,,,0,0,2,,,0,,,49,42
20460,note_off,,,,,60,0,2,,,0,,,42,64
20520,note_off,,,,,60,0,2,,,0,,,49,64
20520,note_on,,,,,0,0,2,,,0,,,58,41
20580,note_off,,,,,60,0,2,,,0,,,58,64
20580,note_on,,,,,0,0,2,,,0,,,49,39
20632,note_off,,,,,52,0,2,,,0,,,49,64
20640,note_on,,,,,8,0,2,,,0,,,42,48
20700,note_off,,,,,60,0,2,,,0,,,42,64
20700,note_on,,,,,0,0,2,,,0,,,49,37
20760,note_off,,,,,60,0,2,,,0,,,49,64
20760,note_on,,,,,0,0,2,,,0,,,58,36
20820,note_off,,,,,60,0,2,,,0,,,58,64
20820,note_on,,,,,0,0,2,,,0,,,49,35
20850,control_change,,,,,30,0,2,,,0,64,0,,
20860,set_tempo,,,,,460,1,0,588235,,,,,,
20872,note_off,,,,,22,0,2,,,0,,,49,64
20880,control_change,,,,,0,0,2,,,0,64,127,,
20880,note_on,,,,,0,0,1,,,0,,,71,42
20880,note_off,,,,,720,0,1,,,0,,,73,64
20880,note_on,,,,,8,0,2,,,0,,,42,41
20940,note_off,,,,,60,0,2,,,0,,,42,64
20940,note_on,,,,,0,0,2,,,0,,,49,32
20960,set_tempo,,,,,100,1,0,612245,,,,,,
21000,note_on,,,,,0,0,1,,,0,,,70,49
21000,note_off,,,,,120,0,1,,,0,,,71,64
21000,note_off,,,,,60,0,2,,,0,,,49,64
21000,note_on,,,,,0,0,2,,,0,,,54,36
21060,note_on,,,,,0,0,2,,,0,,,49,39
21060,note_off,,,,,60,0,2,,,0,,,54,64
21090,control_change,,,,,30,0,2,,,0,64,0,,
21112,note_off,,,,,22,0,2,,,0,,,49,64
21120,note_on,,,,,0,0,1,,,0,,,75,54
21120,note_off,,,,,120,0,1,,,0,,,70,64
21120,control_change,,,,,8,0,2,,,0,64,127,,
21120,note_on,,,,,0,0,2,,,0,,,42,53
21180,note_off,,,,,60,0,2,,,0,,,42,64
21180,note_on,,,,,0,0,2,,,0,,,51,44
21240,note_off,,,,,60,0,2,,,0,,,51,64
21240,note_on,,,,,0,0,2,,,0,,,59,42
21300,note_on,,,,,0,0,2,,,0,,,51,40
21300,note_off,,,,,60,0,2,,,0,,,59,64
21330,control_change,,,,,30,0,2,,,0,64,0,,
21330,note_off,,,,,210,0,1,,,0,,,75,64
21352,note_off,,,,,22,0,2,,,0,,,51,64
21360,note_on,,,,,30,0,1,,,0,,,75,47
21360,note_on,,,,,0,0,2,,,0,,,42,48
21360,control_change,,,,,8,0,2,,,0,64,127,,
21380,set_tempo,,,,,420,1,0,618557,,,,,,
21400,set_tempo,,,,,20,1,0,625000,,,,,,
21420,note_off,,,,,60,0,2,,,0,,,42,64
21420,note_on,,,,,0,0,2,,,0,,,51,37
21440,set_tempo,,,,,40,1,0,588235,,,,,,
21480,note_off,,,,,60,0,2,,,0,,,51,64
21480,note_on,,,,,0,0,2,,,0,,,59,34
21540,note_off,,,,,60,0,2,,,0,,,59,64
21540,note_on,,,,,0,0,2,,,0,,,51,34
21570,control_change,,,,,30,0,2,,,0,64,0,,
21570,note_off,,,,,210,0,1,,,0,,,75,64
21592,note_off,,,,,22,0,2,,,0,,,51,64
21600,control_change,,,,,8,0,2,,,0,64,127,,
21600,note_on,,,,,30,0,1,,,0,,,75,44
21600,note_on,,,,,0,0,2,,,0,,,42,44
21660,note_off,,,,,60,0,2,,,0,,,42,64
21660,note_on,,,,,0,0,2,,,0,,,51,34
21720,set_tempo,,,,,280,1,0,571429,,,,,,
21720,note_on,,,,,0,0,2,,,0,,,59,34
21720,note_off,,,,,60,0,2,,,0,,,51,64
21780,note_off,,,,,60,0,2,,,0,,,59,64
21780,note_on,,,,,0,0,2,,,0,,,51,35
21810,control_change,,,,,30,0,2,,,0,64,0,,
21810,note_off,,,,,210,0,1,,,0,,,75,64
21832,note_off,,,,,22,0,2,,,0,,,51,64
21840,note_on,,,,,30,0,1,,,0,,,77,50
21840,note_on,,,,,8,0,2,,,0,,,42,47
21840,control_change,,,,,0,0,2,,,0,64,127,,
21900,note_on,,,,,0,0,2,,,0,,,51,40
21900,note_off,,,,,60,0,2,,,0,,,42,64
21960,note_on,,,,,0,0,1,,,0,,,78,55
21960,note_on,,,,,0,0,2,,,0,,,59,43
21960,note_off,,,,,60,0,2,,,0,,,51,64
21960,note_off,,,,,120,0,1,,,0,,,77,64
22020,set_tempo,,,,,300,1,0,560748,,,,,,
22020,note_on,,,,,0,0,2,,,0,,,51,45
22020,note_off,,,,,60,0,2,,,0,,,59,64
22050,control_change,,,,,30,0,2,,,0,64,0,,
22072,note_off,,,,,22,0,2,,,0,,,51,64
22080,note_on,,,,,0,0,2,,,0,,,42,58
22080,control_change,,,,,8,0,2,,,0,64,127,,
22080,note_off,,,,,120,0,1,,,0,,,78,64
22080,note_on,,,,,0,0,1,,,0,,,73,56
22140,note_off,,,,,60,0,2,,,0,,,42,64
22140,note_on,,,,,0,0,2,,,0,,,49,46
22200,note_off,,,,,60,0,2,,,0,,,49,64
22200,note_on,,,,,0,0,2,,,0,,,58,43
22260,note_on,,,,,0,0,2,,,0,,,49,42
22260,note_off,,,,,60,0,2,,,0,,,58,64
22312,note_off,,,,,52,0,2,,,0,,,49,64
22320,note_on,,,,,8,0,2,,,0,,,42,51
22380,note_on,,,,,0,0,2,,,0,,,49,44
22380,note_off,,,,,60,0,2,,,0,,,42,64
22440,note_on,,,,,0,0,2,,,0,,,58,39
22440,note_off,,,,,60,0,2,,,0,,,49,64
22500,note_on,,,,,0,0,2,,,0,,,49,34
22500,note_off,,,,,60,0,2,,,0,,,58,64
22552,note_off,,,,,52,0,2,,,0,,,49,64
22560,note_on,,,,,8,0,2,,,0,,,42,39
22620,note_off,,,,,60,0,2,,,0,,,42,64
22620,note_on,,,,,0,0,2,,,0,,,49,39
22680,note_off,,,,,60,0,2,,,0,,,49,64
22680,note_on,,,,,0,0,2,,,0,,,58,36
22720,set_tempo,,,,,700,1,0,600000,,,,,,
22740,note_off,,,,,60,0,2,,,0,,,58,64
22740,note_on,,,,,0,0,2,,,0,,,49,32
22770,control_change,,,,,30,0,2,,,0,64,0,,
22792,note_off,,,,,22,0,2,,,0,,,49,64
22800,note_off,,,,,720,0,1,,,0,,,73,64
22800,note_on,,,,,0,0,1,,,0,,,71,44
22800,control_change,,,,,0,0,2,,,0,64,127,,
22800,note_on,,,,,8,0,2,,,0,,,42,32
22860,note_on,,,,,0,0,2,,,0,,,49,33
22860,note_off,,,,,60,0,2,,,0,,,42,64
22920,note_off,,,,,60,0,2,,,0,,,49,64
22920,note_on,,,,,0,0,2,,,0,,,54,35
22920,note_on,,,,,0,0,1,,,0,,,70,45
22920,note_off,,,,,120,0,1,,,0,,,71,64
22980,note_off,,,,,60,0,2,,,0,,,54,64
22980,note_on,,,,,0,0,2,,,0,,,49,35
23010,control_change,,,,,30,0,2,,,0,64,0,,
23032,note_off,,,,,22,0,2,,,0,,,49,64
23040,note_on,,,,,8,0,2,,,0,,,42,54
23040,control_change,,,,,0,0,2,,,0,64,127,,
23040,note_on,,,,,0,0,1,,,0,,,71,49
23040,note_off,,,,,120,0,1,,,0,,,70,64
23100,note_off,,,,,60,0,2,,,0,,,42,64
23100,note_on,,,,,0,0,2,,,0,,,51,46
23160,note_off,,,,,60,0,2,,,0,,,51,64
23160,note_on,,,,,0,0,2,,,0,,,59,42
23220,note_off,,,,,60,0,2,,,0,,,59,64
23220,note_on,,,,,0,0,2,,,0,,,51,41
23250,control_change,,,,,30,0,2,,,0,64,0,,
23272,note_off,,,,,22,0,2,,,0,,,51,64
23280,control_change,,,,,0,0,2,,,0,64,127,,
23280,note_on,,,,,0,0,1,,,0,,,75,47
23280,note_on,,,,,8,0,2,,,0,,,42,50
23280,note_off,,,,,240,0,1,,,0,,,71,64
23340,note_off,,,,,60,0,2,,,0,,,42,64
23340,note_on,,,,,0,0,2,,,0,,,51,38
23380,set_tempo,,,,,660,1,0,560748,,,,,,
23400,note_off,,,,,60,0,2,,,0,,,51,64
23400,note_on,,,,,0,0,2,,,0,,,59,38
23460,note_on,,,,,0,0,2,,,0,,,51,36
23460,note_off,,,,,60,0,2,,,0,,,59,64
23490,control_change,,,,,30,0,2,,,0,64,0,,
23500,set_tempo,,,,,120,1,0,535714,,,,,,
23512,note_off,,,,,22,0,2,,,0,,,51,64
23520,control_change,,,,,0,0,2,,,0,64,127,,
23520,note_on,,,,,8,0,2,,,0,,,42,46
23520,note_on,,,,,0,0,1,,,0,,,68,54
23520,note_off,,,,,240,0,1,,,0,,,75,64
23580,note_off,,,,,60,0,2,,,0,,,42,64
23580,note_on,,,,,0,0,2,,,0,,,49,36
23640,note_on,,,,,0,0,2,,,0,,,53,36
23640,note_off,,,,,60,0,2,,,0,,,49,64
23700,note_on,,,,,0,0,2,,,0,,,49,36
23700,note_off,,,,,60,0,2,,,0,,,53,64
23730,control_change,,,,,30,0,2,,,0,64,0,,
23740,set_tempo,,,,,240,1,0,560748,,,,,,
23752,note_off,,,,,22,0,2,,,0,,,49,64
23760,note_on,,,,,8,0,2,,,0,,,42,46
23760,note_on,,,,,0,0,1,,,0,,,71,61
23760,note_off,,,,,240,0,1,,,0,,,68,64
23760,control_change,,,,,0,0,2,,,0,64,127,,
23820,note_on,,,,,0,0,2,,,0,,,49,36
23820,note_off,,,,,60,0,2,,,0,,,42,64
23880,note_off,,,,,60,0,2,,,0,,,49,64
23880,note_on,,,,,0,0,2,,,0,,,56,38
23920,set_tempo,,,,,180,1,0,588235,,,,,,
23940,note_on,,,,,0,0,2,,,0,,,49,41
23940,note_off,,,,,60,0,2,,,0,,,56,64
23970,control_change,,,,,30,0,2,,,0,64,0,,
23992,note_off,,,,,22,0,2,,,0,,,49,64
24000,note_off,,,,,240,0,1,,,0,,,71,64
24000,note_on,,,,,0,0,1,,,0,,,70,67
24000,note_on,,,,,8,0,2,,,0,,,42,55
24000,control_change,,,,,0,0,2,,,0,64,127,,
24060,note_off,,,,,60,0,2,,,0,,,42,64
24060,note_on,,,,,0,0,2,,,0,,,49,41
24120,note_off,,,,,60,0,2,,,0,,,49,64
24120,note_on,,,,,0,0,2,,,0,,,58,42
24180,note_on,,,,,0,0,2,,,0,,,49,47
24180,note_off,,,,,180,0,1,,,0,,,70,64
24180,set_tempo,,,,,260,1,0,560748,,,,,,
24180,note_off,,,,,60,0,2,,,0,,,58,64
24200,set_tempo,,,,,20,1,0,545455,,,,,,
24210,control_change,,,,,30,0,2,,,0,64,0,,
24232,note_off,,,,,22,0,2,,,0,,,49,64
24240,control_change,,,,,8,0,2,,,0,64,127,,
24240,note_on,,,,,0,0,2,,,0,,,42,67
24240,note_on,,,,,60,0,1,,,0,,,78,72
24240,note_on,,,,,0,0,1,,,0,,,66,72
24300,note_off,,,,,60,0,2,,,0,,,42,64
24300,note_on,,,,,0,0,2,,,0,,,49,54
24360,note_off,,,,,60,0,2,,,0,,,49,64
24360,note_on,,,,,0,0,2,,,0,,,58,52
24420,note_off,,,,,60,0,2,,,0,,,58,64
24420,note_on,,,,,0,0,2,,,0,,,49,47
24472,note_off,,,,,52,0,2,,,0,,,49,64
24480,set_tempo,,,,,280,1,0,550459,,,,,,
24480,note_on,,,,,8,0,2,,,0,,,42,54
24540,note_off,,,,,60,0,2,,,0,,,42,64
24540,note_on,,,,,0,0,2,,,0,,,49,41
24600,note_off,,,,,0,0,1,,,0,,,78,64
24600,note_on,,,,,0,0,2,,,0,,,58,38
24600,note_off,,,,,60,0,2,,,0,,,49,64
24600,note_off,,,,,360,0,1,,,0,,,66,64
24600,note_on,,,,,0,0,1,,,0,,,77,58
24600,note_on,,,,,0,0,1,,,0,,,65,58
24660,note_on,,,,,0,0,2,,,0,,,49,36
24660,set_tempo,,,,,180,1,0,560748,,,,,,
24660,note_off,,,,,60,0,2,,,0,,,58,64
24680,set_tempo,,,,,20,1,0,582524,,,,,,
24712,note_off,,,,,52,0,2,,,0,,,49,64
24720,note_on,,,,,0,0,2,,,0,,,42,44
24720,note_off,,,,,120,0,1,,,0,,,65,64
24720,note_on,,,,,0,0,1,,,0,,,63,52
24720,note_off,,,,,0,0,1,,,0,,,77,64
24720,control_change,,,,,8,0,2,,,0,64,0,,
24720,note_on,,,,,0,0,1,,,0,,,75,52
24780,note_on,,,,,0,0,2,,,0,,,49,32
24780,note_off,,,,,60,0,2,,,0,,,42,64
24840,note_off,,,,,120,0,1,,,0,,,63,64
24840,note_off,,,,,60,0,2,,,0,,,49,64
24840,note_off,,,,,0,0,1,,,0,,,75,64
24840,note_on,,,,,0,0,2,,,0,,,58,30
24840,note_on,,,,,0,0,1,,,0,,,73,45
24840,note_on,,,,,0,0,1,,,0,,,61,45
24900,note_off,,,,,60,0,2,,,0,,,58,64
24900,note_on,,,,,0,0,2,,,0,,,49,27
24952,note_off,,,,,52,0,2,,,0,,,49,64
24960,control_change,,,,,0,0,2,,,0,64,127,,
24960,note_on,,,,,0,0,1,,,0,,,71,41
24960,note_on,,,,,0,0,1,,,0,,,59,41
24960,note_off,,,,,0,0,1,,,0,,,73,64
24960,note_off,,,,,120,0,1,,,0,,,61,64
24960,note_on,,,,,8,0,2,,,0,,,42,42
25020,note_off,,,,,60,0,2,,,0,,,42,64
25020,note_on,,,,,0,0,2,,,0,,,51,35
25080,note_off,,,,,60,0,2,,,0,,,51,64
25080,note_on,,,,,0,0,2,,,0,,,54,37
25140,note_off,,,,,60,0,2,,,0,,,54,64
25140,note_on,,,,,0,0,2,,,0,,,51,40
25170,control_change,,,,,30,0,2,,,0,64,0,,
25192,note_off,,,,,22,0,2,,,0,,,51,64
25200,note_on,,,,,0,0,2,,,0,,,42,42
25200,note_on,,,,,0,0,1,,,0,,,75,45
25200,note_off,,,,,0,0,1,,,0,,,71,64
25200,note_off,,,,,240,0,1,,,0,,,59,64
25200,control_change,,,,,8,0,2,,,0,64,127,,
25260,note_off,,,,,60,0,2,,,0,,,42,64
25260,note_on,,,,,0,0,2,,,0,,,51,46
25320,note_off,,,,,60,0,2,,,0,,,51,64
25320,note_on,,,,,0,0,2,,,0,,,59,43
25380,note_off,,,,,60,0,2,,,0,,,59,64
25380,note_on,,,,,0,0,2,,,0,,,51,39
25410,control_change,,,,,30,0,2,,,0,64,0,,
25432,note_off,,,,,22,0,2,,,0,,,51,64
25440,control_change,,,,,0,0,2,,,0,64,127,,
25440,note_on,,,,,8,0,2,,,0,,,42,36
25440,note_on,,,,,0,0,1,,,0,,,68,49
25440,note_off,,,,,240,0,1,,,0,,,75,64
25500,note_on,,,,,0,0,2,,,0,,,49,33
25500,note_off,,,,,60,0,2,,,0,,,42,64
25560,note_on,,,,,0,0,2,,,0,,,53,31
25560,note_off,,,,,60,0,2,,,0,,,49,64
25620,note_on,,,,,0,0,2,,,0,,,49,31
25620,note_off,,,,,60,0,2,,,0,,,53,64
25650,control_change,,,,,30,0,2,,,0,64,0,,
25672,note_off,,,,,22,0,2,,,0,,,49,64
25680,note_on,,,,,8,0,2,,,0,,,42,33
25680,note_off,,,,,240,0,1,,,0,,,68,64
25680,note_on,,,,,0,0,1,,,0,,,70,40
25680,control_change,,,,,0,0,2,,,0,64,127,,
25700,set_tempo,,,,,1020,1,0,571429,,,,,,
25740,note_off,,,,,60,0,2,,,0,,,42,64
25740,note_on,,,,,0,0,2,,,0,,,49,32
25800,set_tempo,,,,,100,1,0,550459,,,,,,
25800,note_on,,,,,0,0,2,,,0,,,56,29
25800,note_off,,,,,60,0,2,,,0,,,49,64
25800,note_off,,,,,120,0,1,,,0,,,70,64
25800,note_on,,,,,0,0,1,,,0,,,71,38
25860,note_off,,,,,60,0,2,,,0,,,56,64
25860,note_on,,,,,0,0,2,,,0,,,49,28
25890,control_change,,,,,30,0,2,,,0,64,0,,
25912,note_off,,,,,22,0,2,,,0,,,49,64
25920,note_on,,,,,0,0,2,,,0,,,42,37
25920,control_change,,,,,8,0,2,,,0,64,127,,
25920,note_on,,,,,0,0,1,,,0,,,70,44
25920,note_off,,,,,120,0,1,,,0,,,71,64
25940,set_tempo,,,,,140,1,0,526316,,,,,,
25966,note_off,,,,,46,0,2,,,0,,,42,64
25980,note_on,,,,,14,0,2,,,0,,,58,24
26010,note_off,,,,,90,0,1,,,0,,,70,64
26040,note_on,,,,,30,0,1,,,0,,,73,40
26040,note_on,,,,,0,0,2,,,0,,,54,26
26040,note_off,,,,,60,0,2,,,0,,,58,64
26100,note_on,,,,,0,0,2,,,0,,,58,30
26100,note_off,,,,,60,0,2,,,0,,,54,64
26120,set_tempo,,,,,180,1,0,504202,,,,,,
26160,note_off,,,,,120,0,1,,,0,,,73,64
26160,note_on,,,,,0,0,1,,,0,,,82,44
26160,note_on,,,,,0,0,2,,,0,,,54,35
26160,note_off,,,,,60,0,2,,,0,,,58,64
26220,note_on,,,,,0,0,2,,,0,,,58,38
26220,note_off,,,,,60,0,2,,,0,,,54,64
26280,note_on,,,,,0,0,2,,,0,,,54,41
26280,note_off,,,,,120,0,1,,,0,,,82,64
26280,note_off,,,,,60,0,2,,,0,,,58,64
26280,note_on,,,,,0,0,1,,,0,,,78,47
26340,note_off,,,,,60,0,2,,,0,,,54,64
26340,note_on,,,,,0,0,2,,,0,,,58,43
26370,control_change,,,,,30,0,2,,,0,64,0,,
26400,note_off,,,,,120,0,1,,,0,,,78,64
26400,note_on,,,,,0,0,1,,,0,,,73,50
26400,note_on,,,,,0,0,2,,,0,,,42,46
26400,control_change,,,,,0,0,2,,,0,64,127,,
26400,note_off,,,,,30,0,2,,,0,,,58,64
26446,note_off,,,,,46,0,2,,,0,,,42,64
26460,note_on,,,,,14,0,2,,,0,,,58,41
26520,note_off,,,,,120,0,1,,,0,,,73,64
26520,note_on,,,,,0,0,1,,,0,,,70,45
26520,note_on,,,,,0,0,2,,,0,,,54,37
26520,note_off,,,,,60,0,2,,,0,,,58,64
26580,note_off,,,,,60,0,2,,,0,,,54,64
26580,note_on,,,,,0,0,2,,,0,,,58,37
26600,set_tempo,,,,,480,1,0,530973,,,,,,
26640,note_off,,,,,120,0,1,,,0,,,70,64
26640,note_on,,,,,0,0,1,,,0,,,78,44
26640,note_on,,,,,0,0,2,,,0,,,54,37
26640,note_off,,,,,60,0,2,,,0,,,58,64
26700,note_on,,,,,0,0,2,,,0,,,58,37
26700,note_off,,,,,60,0,2,,,0,,,54,64
26760,note_on,,,,,0,0,1,,,0,,,74,44
26760,note_off,,,,,120,0,1,,,0,,,78,64
26760,note_off,,,,,60,0,2,,,0,,,58,64
26760,note_on,,,,,0,0,2,,,0,,,54,38
26820,note_on,,,,,0,0,2,,,0,,,58,43
26820,note_off,,,,,60,0,2,,,0,,,54,64
26850,control_change,,,,,30,0,2,,,0,64,0,,
26860,set_tempo,,,,,260,1,0,582524,,,,,,
26880,note_off,,,,,120,0,1,,,0,,,74,64
26880,note_on,,,,,0,0,1,,,0,,,75,54
26880,note_off,,,,,30,0,2,,,0,,,58,64
26880,note_on,,,,,0,0,2,,,0,,,42,49
26880,control_change,,,,,0,0,2,,,0,64,127,,
26926,note_off,,,,,46,0,2,,,0,,,42,64
26940,note_on,,,,,14,0,2,,,0,,,59,46
26940,set_tempo,,,,,80,1,0,550459,,,,,,
27000,note_off,,,,,120,0,1,,,0,,,75,64
27000,note_on,,,,,0,0,1,,,0,,,71,42
27000,note_off,,,,,60,0,2,,,0,,,59,64
27000,note_on,,,,,0,0,2,,,0,,,54,37
27060,note_off,,,,,60,0,2,,,0,,,54,64
27060,note_on,,,,,0,0,2,,,0,,,59,34
27120,note_off,,,,,120,0,1,,,0,,,71,64
27120,note_off,,,,,60,0,2,,,0,,,59,64
27120,note_on,,,,,0,0,2,,,0,,,54,33
27120,note_on,,,,,0,0,1,,,0,,,83,47
27180,note_off,,,,,60,0,2,,,0,,,54,64
27180,note_on,,,,,0,0,2,,,0,,,59,33
27240,note_off,,,,,60,0,2,,,0,,,59,64
27240,note_on,,,,,0,0,2,,,0,,,54,36
27240,note_off,,,,,120,0,1,,,0,,,83,64
27240,note_on,,,,,0,0,1,,,0,,,80,52
27260,set_tempo,,,,,320,1,0,512821,,,,,,
27300,note_on,,,,,0,0,2,,,0,,,59,44
27300,note_off,,,,,60,0,2,,,0,,,54,64
27330,control_change,,,,,30,0,2,,,0,64,0,,
27360,note_off,,,,,120,0,1,,,0,,,80,64
27360,note_on,,,,,0,0,1,,,0,,,77,59
27360,control_change,,,,,0,0,2,,,0,64,127,,
27360,note_off,,,,,30,0,2,,,0,,,59,64
27360,note_on,,,,,0,0,2,,,0,,,42,53
27406,note_off,,,,,46,0,2,,,0,,,42,64
27420,note_on,,,,,14,0,2,,,0,,,59,45
27480,note_off,,,,,120,0,1,,,0,,,77,64
27480,note_on,,,,,0,0,1,,,0,,,80,59
27480,note_off,,,,,60,0,2,,,0,,,59,64
27480,note_on,,,,,0,0,2,,,0,,,54,43
27540,note_off,,,,,60,0,2,,,0,,,54,64
27540,note_on,,,,,0,0,2,,,0,,,59,42
27580,set_tempo,,,,,320,1,0,526316,,,,,,
27600,note_on,,,,,0,0,2,,,0,,,54,41
27600,note_on,,,,,0,0,1,,,0,,,85,56
27600,note_off,,,,,60,0,2,,,0,,,59,64
27600,set_tempo,,,,,20,1,0,530973,,,,,,
27600,note_off,,,,,120,0,1,,,0,,,80,64
27660,note_off,,,,,60,0,2,,,0,,,54,64
27660,note_on,,,,,0,0,2,,,0,,,59,40
27720,note_off,,,,,120,0,1,,,0,,,85,64
27720,note_off,,,,,60,0,2,,,0,,,59,64
27720,note_on,,,,,0,0,1,,,0,,,81,53
27720,note_on,,,,,0,0,2,,,0,,,54,39
27780,note_off,,,,,60,0,2,,,0,,,54,64
27780,note_on,,,,,0,0,2,,,0,,,59,37
27780,set_tempo,,,,,180,1,0,540541,,,,,,
27810,control_change,,,,,30,0,2,,,0,64,0,,
27840,note_off,,,,,30,0,2,,,0,,,59,64
27840,note_on,,,,,0,0,2,,,0,,,42,45
27840,note_on,,,,,0,0,1,,,0,,,82,44
27840,note_off,,,,,120,0,1,,,0,,,81,64
27840,control_change,,,,,0,0,2,,,0,64,127,,
27886,note_off,,,,,46,0,2,,,0,,,42,64
27900,note_on,,,,,14,0,2,,,0,,,58,25
27940,set_tempo,,,,,160,1,0,535714,,,,,,
27960,set_tempo,,,,,20,1,0,526316,,,,,,
27960,note_off,,,,,60,0,2,,,0,,,58,64
27960,note_on,,,,,0,0,2,,,0,,,54,29
27960,note_on,,,,,0,0,1,,,0,,,78,40
27960,note_off,,,,,120,0,1,,,0,,,82,64
27980,set_tempo,,,,,20,1,0,512821,,,,,,
28020,note_off,,,,,60,0,2,,,0,,,54,64
28020,note_on,,,,,0,0,2,,,0,,,58,31
28050,note_off,,,,,90,0,1,,,0,,,78,64
28080,note_off,,,,,60,0,2,,,0,,,58,64
28080,note_on,,,,,0,0,2,,,0,,,54,35
28080,note_on,,,,,30,0,1,,,0,,,82,44
28140,note_on,,,,,0,0,1,,,0,,,78,47
28140,note_on,,,,,0,0,2,,,0,,,58,38
28140,note_off,,,,,60,0,2,,,0,,,54,64
28140,note_off,,,,,60,0,1,,,0,,,82,64
28200,note_on,,,,,0,0,1,,,0,,,82,44
28200,note_off,,,,,60,0,1,,,0,,,78,64
28200,note_off,,,,,60,0,2,,,0,,,58,64
28200,note_on,,,,,0,0,2,,,0,,,54,41
28260,note_on,,,,,0,0,2,,,0,,,58,43
28260,note_off,,,,,60,0,2,,,0,,,54,64
28260,set_tempo,,,,,280,1,0,504202,,,,,,
28260,note_off,,,,,60,0,1,,,0,,,82,64
28260,note_on,,,,,0,0,1,,,0,,,78,47
28290,control_change,,,,,30,0,2,,,0,64,0,,
28320,control_change,,,,,0,0,2,,,0,64,127,,
28320,note_on,,,,,0,0,2,,,0,,,42,46
28320,note_off,,,,,30,0,2,,,0,,,58,64
28320,note_off,,,,,60,0,1,,,0,,,78,64
28320,note_on,,,,,0,0,1,,,0,,,73,50
28366,note_off,,,,,46,0,2,,,0,,,42,64
28380,note_on,,,,,0,0,1,,,0,,,70,45
28380,note_on,,,,,14,0,2,,,0,,,58,41
28380,note_off,,,,,60,0,1,,,0,,,73,64
28400,set_tempo,,,,,140,1,0,508475,,,,,,
28440,note_off,,,,,60,0,1,,,0,,,70,64
28440,note_on,,,,,0,0,1,,,0,,,73,50
28440,note_off,,,,,60,0,2,,,0,,,58,64
28440,note_on,,,,,0,0,2,,,0,,,54,37
28500,note_off,,,,,60,0,1,,,0,,,73,64
28500,note_on,,,,,0,0,1,,,0,,,70,45
28500,note_off,,,,,60,0,2,,,0,,,54,64
28500,note_on,,,,,0,0,2,,,0,,,58,37
28520,set_tempo,,,,,120,1,0,512821,,,,,,
28540,set_tempo,,,,,20,1,0,526316,,,,,,
28560,note_off,,,,,60,0,1,,,0,,,70,64
28560,note_on,,,,,0,0,1,,,0,,,78,44
28560,note_on,,,,,0,0,2,,,0,,,54,37
28560,note_off,,,,,60,0,2,,,0,,,58,64
28620,note_off,,,,,60,0,1,,,0,,,78,64
28620,note_on,,,,,0,0,2,,,0,,,58,37
28620,note_off,,,,,60,0,2,,,0,,,54,64
28620,note_on,,,,,0,0,1,,,0,,,74,44
28680,set_tempo,,,,,140,1,0,530973,,,,,,
28680,note_off,,,,,60,0,1,,,0,,,74,64
28680,note_on,,,,,0,0,2,,,0,,,54,38
28680,note_on,,,,,0,0,1,,,0,,,78,44
28680,note_off,,,,,60,0,2,,,0,,,58,64
28720,set_tempo,,,,,40,1,0,566038,,,,,,
28740,note_off,,,,,60,0,2,,,0,,,54,64
28740,note_on,,,,,0,0,2,,,0,,,58,43
28740,note_on,,,,,0,0,1,,,0,,,74,44
28740,note_off,,,,,60,0,1,,,0,,,78,64
28770,control_change,,,,,30,0,2,,,0,64,0,,
28800,note_on,,,,,0,0,1,,,0,,,75,54
28800,note_off,,,,,60,0,1,,,0,,,74,64
28800,note_off,,,,,30,0,2,,,0,,,58,64
28800,control_change,,,,,0,0,2,,,0,64,127,,
28800,note_on,,,,,0,0,2,,,0,,,42,49
28846,note_off,,,,,46,0,2,,,0,,,42,64
28860,note_off,,,,,60,0,1,,,0,,,75,64
28860,note_on,,,,,14,0,2,,,0,,,59,46
28860,note_on,,,,,0,0,1,,,0,,,71,45
28900,set_tempo,,,,,180,1,0,530973,,,,,,
28920,note_off,,,,,60,0,2,,,0,,,59,64
28920,note_on,,,,,0,0,1,,,0,,,75,47
28920,note_off,,,,,60,0,1,,,0,,,71,64
28920,note_on,,,,,0,0,2,,,0,,,54,37
28980,note_off,,,,,60,0,2,,,0,,,54,64
28980,note_off,,,,,60,0,1,,,0,,,75,64
28980,note_on,,,,,0,0,1,,,0,,,71,50
28980,note_on,,,,,0,0,2,,,0,,,59,34
29040,note_on,,,,,0,0,1,,,0,,,83,50
29040,note_on,,,,,0,0,2,,,0,,,54,33
29040,note_off,,,,,60,0,2,,,0,,,59,64
29040,note_off,,,,,60,0,1,,,0,,,71,64
29040,set_tempo,,,,,140,1,0,512821,,,,,,
29100,note_off,,,,,60,0,2,,,0,,,54,64
29100,note_on,,,,,0,0,2,,,0,,,59,33
29100,note_off,,,,,60,0,1,,,0,,,83,64
29100,note_on,,,,,0,0,1,,,0,,,80,49
29160,note_on,,,,,0,0,1,,,0,,,83,48
29160,note_off,,,,,60,0,2,,,0,,,59,64
29160,note_on,,,,,0,0,2,,,0,,,54,36
29160,note_off,,,,,60,0,1,,,0,,,80,64
29220,note_off,,,,,60,0,2,,,0,,,54,64
29220,note_on,,,,,0,0,2,,,0,,,59,44
29220,note_on,,,,,0,0,1,,,0,,,80,52
29220,note_off,,,,,60,0,1,,,0,,,83,64
29250,control_change,,,,,30,0,2,,,0,64,0,,
29280,note_off,,,,,60,0,1,,,0,,,80,64
29280,note_on,,,,,0,0,2,,,0,,,42,53
29280,note_off,,,,,30,0,2,,,0,,,59,64
29280,control_change,,,,,0,0,2,,,0,64,127,,
29280,note_on,,,,,0,0,1,,,0,,,77,59
29326,note_off,,,,,46,0,2,,,0,,,42,64
29340,note_on,,,,,14,0,2,,,0,,,59,45
29340,note_off,,,,,60,0,1,,,0,,,77,64
29340,note_on,,,,,0,0,1,,,0,,,80,55
29400,note_on,,,,,0,0,2,,,0,,,54,43
29400,note_off,,,,,60,0,2,,,0,,,59,64
29400,note_off,,,,,60,0,1,,,0,,,80,64
29400,note_on,,,,,0,0,1,,,0,,,77,53
29440,set_tempo,,,,,400,1,0,517241,,,,,,
29460,set_tempo,,,,,20,1,0,530973,,,,,,
29460,note_off,,,,,60,0,1,,,0,,,77,64
29460,note_on,,,,,0,0,1,,,0,,,80,53
29460,note_off,,,,,60,0,2,,,0,,,54,64
29460,note_on,,,,,0,0,2,,,0,,,59,42
29480,set_tempo,,,,,20,1,0,535714,,,,,,
29520,note_on,,,,,0,0,2,,,0,,,54,41
29520,note_on,,,,,0,0,1,,,0,,,85,57
29520,note_off,,,,,60,0,1,,,0,,,80,64
29520,note_off,,,,,60,0,2,,,0,,,59,64
29580,note_on,,,,,0,0,1,,,0,,,81,49
29580,note_off,,,,,60,0,1,,,0,,,85,64
29580,note_on,,,,,0,0,2,,,0,,,59,40
29580,note_off,,,,,60,0,2,,,0,,,54,64
29640,note_on,,,,,0,0,2,,,0,,,54,39
29640,note_on,,,,,0,0,1,,,0,,,85,50
29640,note_off,,,,,60,0,2,,,0,,,59,64
29640,note_off,,,,,60,0,1,,,0,,,81,64
29660,set_tempo,,,,,180,1,0,576923,,,,,,
29700,note_on,,,,,0,0,1,,,0,,,81,54
29700,note_off,,,,,60,0,2,,,0,,,54,64
29700,note_on,,,,,0,0,2,,,0,,,59,37
29700,note_off,,,,,60,0,1,,,0,,,85,64
29730,control_change,,,,,30,0,2,,,0,64,0,,
29760,control_change,,,,,0,0,2,,,0,64,127,,
29760,note_off,,,,,30,0,2,,,0,,,59,64
29760,note_on,,,,,0,0,2,,,0,,,42,49
29760,set_tempo,,,,,100,1,0,625000,,,,,,
29760,note_off,,,,,60,0,1,,,0,,,81,64
29760,note_on,,,,,0,0,1,,,0,,,82,49
29804,note_off,,,,,44,0,2,,,0,,,42,64
29820,note_off,,,,,60,0,1,,,0,,,82,64
29820,note_on,,,,,0,0,1,,,0,,,81,39
29820,note_on,,,,,16,0,2,,,0,,,58,29
29880,note_off,,,,,60,0,2,,,0,,,58,64
29880,note_off,,,,,60,0,1,,,0,,,81,64
29880,note_on,,,,,0,0,1,,,0,,,82,43
29880,note_on,,,,,0,0,2,,,0,,,54,33
29900,set_tempo,,,,,140,1,0,582524,,,,,,
29940,note_off,,,,,60,0,2,,,0,,,54,64
29940,note_on,,,,,0,0,2,,,0,,,58,35
29940,note_off,,,,,60,0,1,,,0,,,82,64
29940,note_on,,,,,0,0,1,,,0,,,77,45
29960,set_tempo,,,,,60,1,0,560748,,,,,,
30000,note_off,,,,,60,0,2,,,0,,,58,64
30000,note_on,,,,,0,0,2,,,0,,,54,38
30000,note_on,,,,,0,0,1,,,0,,,78,48
30000,note_off,,,,,60,0,1,,,0,,,77,64
30060,note_off,,,,,60,0,2,,,0,,,54,64
30060,note_on,,,,,0,0,2,,,0,,,58,31
30060,note_off,,,,,60,0,1,,,0,,,78,64
30060,note_on,,,,,0,0,1,,,0,,,77,45
30100,set_tempo,,,,,140,1,0,535714,,,,,,
30120,note_off,,,,,60,0,1,,,0,,,77,64
30120,note_on,,,,,0,0,1,,,0,,,78,43
30120,note_on,,,,,0,0,2,,,0,,,54,35
30120,note_off,,,,,60,0,2,,,0,,,58,64
30180,note_on,,,,,0,0,1,,,0,,,72,41
30180,note_off,,,,,60,0,1,,,0,,,78,64
30180,note_on,,,,,0,0,2,,,0,,,58,37
30180,note_off,,,,,60,0,2,,,0,,,54,64
30210,control_change,,,,,30,0,2,,,0,64,0,,
30240,note_off,,,,,30,0,2,,,0,,,58,64
30240,control_change,,,,,0,0,2,,,0,64,127,,
30240,note_off,,,,,60,0,1,,,0,,,72,64
30240,note_on,,,,,0,0,2,,,0,,,54,38
30240,note_on,,,,,0,0,1,,,0,,,73,39
30280,set_tempo,,,,,180,1,0,517241,,,,,,
30300,note_off,,,,,60,0,1,,,0,,,73,64
30300,note_on,,,,,0,0,2,,,0,,,58,28
30300,note_on,,,,,0,0,1,,,0,,,72,38
30300,note_off,,,,,60,0,2,,,0,,,54,64
30360,note_off,,,,,60,0,1,,,0,,,72,64
30360,note_off,,,,,60,0,2,,,0,,,58,64
30360,note_on,,,,,0,0,2,,,0,,,54,30
30360,note_on,,,,,0,0,1,,,0,,,73,40
30400,set_tempo,,,,,120,1,0,545455,,,,,,
30420,note_off,,,,,60,0,1,,,0,,,73,64
30420,note_on,,,,,0,0,1,,,0,,,69,42
30420,note_on,,,,,0,0,2,,,0,,,58,32
30420,note_off,,,,,60,0,2,,,0,,,54,64
30480,note_on,,,,,0,0,2,,,0,,,54,35
30480,note_off,,,,,60,0,2,,,0,,,58,64
30480,note_on,,,,,0,0,1,,,0,,,70,45
30480,note_off,,,,,60,0,1,,,0,,,69,64
30520,set_tempo,,,,,120,1,0,571429,,,,,,
30540,note_on,,,,,0,0,2,,,0,,,58,34
30540,note_on,,,,,0,0,1,,,0,,,69,44
30540,note_off,,,,,60,0,1,,,0,,,70,64
30540,note_off,,,,,60,0,2,,,0,,,54,64
30600,note_on,,,,,0,0,2,,,0,,,54,32
30600,note_off,,,,,60,0,2,,,0,,,58,64
30600,note_off,,,,,60,0,1,,,0,,,69,64
30600,note_on,,,,,0,0,1,,,0,,,70,42
30660,note_on,,,,,0,0,2,,,0,,,58,30
30660,note_off,,,,,60,0,2,,,0,,,54,64
30660,note_off,,,,,60,0,1,,,0,,,70,64
30660,note_on,,,,,0,0,1,,,0,,,65,40
30690,control_change,,,,,30,0,2,,,0,64,0,,
30720,note_off,,,,,60,0,1,,,0,,,65,64
30720,note_on,,,,,0,0,1,,,0,,,66,41
30720,note_off,,,,,30,0,2,,,0,,,58,64
30720,note_on,,,,,0,0,2,,,0,,,42,39
30720,control_change,,,,,0,0,2,,,0,64,127,,
30764,note_off,,,,,44,0,2,,,0,,,42,64
30780,note_on,,,,,0,0,1,,,0,,,81,33
30780,note_off,,,,,60,0,1,,,0,,,66,64
30780,note_on,,,,,16,0,2,,,0,,,58,29
30820,set_tempo,,,,,300,1,0,530973,,,,,,
30840,note_on,,,,,0,0,1,,,0,,,82,35
30840,note_off,,,,,60,0,1,,,0,,,81,64
30840,note_on,,,,,0,0,2,,,0,,,54,33
30840,note_off,,,,,60,0,2,,,0,,,58,64
30900,set_tempo,,,,,80,1,0,517241,,,,,,
30900,note_on,,,,,0,0,1,,,0,,,77,38
30900,note_off,,,,,60,0,1,,,0,,,82,64
30900,note_on,,,,,0,0,2,,,0,,,58,35
30900,note_off,,,,,60,0,2,,,0,,,54,64
30960,note_on,,,,,0,0,2,,,0,,,54,38
30960,note_off,,,,,60,0,2,,,0,,,58,64
30960,set_tempo,,,,,60,1,0,508475,,,,,,
30960,note_on,,,,,0,0,1,,,0,,,78,40
30960,note_off,,,,,60,0,1,,,0,,,77,64
31020,note_on,,,,,0,0,2,,,0,,,58,31
31020,note_off,,,,,60,0,2,,,0,,,54,64
31020,set_tempo,,,,,60,1,0,504202,,,,,,
31020,note_on,,,,,0,0,1,,,0,,,77,40
31020,note_off,,,,,60,0,1,,,0,,,78,64
31080,note_on,,,,,0,0,1,,,0,,,78,40
31080,note_off,,,,,60,0,2,,,0,,,58,64
31080,note_on,,,,,0,0,2,,,0,,,54,35
31080,note_off,,,,,60,0,1,,,0,,,77,64
31140,note_on,,,,,0,0,2,,,0,,,58,37
31140,note_off,,,,,60,0,2,,,0,,,54,64
31140,note_on,,,,,0,0,1,,,0,,,72,38
31140,note_off,,,,,60,0,1,,,0,,,78,64
31160,set_tempo,,,,,140,1,0,517241,,,,,,
31170,control_change,,,,,30,0,2,,,0,64,0,,
31180,set_tempo,,,,,20,1,0,526316,,,,,,
31200,note_off,,,,,30,0,2,,,0,,,58,64
31200,note_off,,,,,60,0,1,,,0,,,72,64
31200,note_on,,,,,0,0,2,,,0,,,54,38
31200,control_change,,,,,0,0,2,,,0,64,127,,
31200,note_on,,,,,0,0,1,,,0,,,73,36
31260,note_off,,,,,60,0,2,,,0,,,54,64
31260,note_on,,,,,0,0,2,,,0,,,58,28
31260,note_on,,,,,0,0,1,,,0,,,72,36
31260,note_off,,,,,60,0,1,,,0,,,73,64
31280,set_tempo,,,,,100,1,0,535714,,,,,,
31320,note_on,,,,,0,0,1,,,0,,,73,40
31320,note_on,,,,,0,0,2,,,0,,,54,30
31320,note_off,,,,,60,0,2,,,0,,,58,64
31320,note_off,,,,,60,0,1,,,0,,,72,64
31380,note_off,,,,,60,0,2,,,0,,,54,64
31380,note_on,,,,,0,0,2,,,0,,,58,32
31380,note_off,,,,,60,0,1,,,0,,,73,64
31380,note_on,,,,,0,0,1,,,0,,,69,42
31400,set_tempo,,,,,120,1,0,560748,,,,,,
31440,note_off,,,,,60,0,1,,,0,,,69,64
31440,note_on,,,,,0,0,1,,,0,,,70,45
31440,note_off,,,,,60,0,2,,,0,,,58,64
31440,note_on,,,,,0,0,2,,,0,,,54,35
31500,note_off,,,,,60,0,1,,,0,,,70,64
31500,note_on,,,,,0,0,1,,,0,,,69,44
31500,note_off,,,,,60,0,2,,,0,,,54,64
31500,note_on,,,,,0,0,2,,,0,,,58,34
31560,note_on,,,,,0,0,2,,,0,,,54,32
31560,note_off,,,,,60,0,2,,,0,,,58,64
31560,note_on,,,,,0,0,1,,,0,,,70,42
31560,note_off,,,,,60,0,1,,,0,,,69,64
31580,set_tempo,,,,,180,1,0,588235,,,,,,
31620,note_off,,,,,60,0,1,,,0,,,70,64
31620,note_off,,,,,60,0,2,,,0,,,54,64
31620,note_on,,,,,0,0,1,,,0,,,65,40
31620,note_on,,,,,0,0,2,,,0,,,58,30
31650,control_change,,,,,30,0,2,,,0,64,0,,
31680,set_tempo,,,,,100,1,0,582524,,,,,,
31680,note_off,,,,,60,0,1,,,0,,,65,64
31680,note_on,,,,,0,0,1,,,0,,,66,39
31680,note_off,,,,,30,0,2,,,0,,,58,64
31680,control_change,,,,,0,0,2,,,0,64,127,,
31680,note_on,,,,,0,0,2,,,0,,,54,39
31720,set_tempo,,,,,40,1,0,576923,,,,,,
31740,note_off,,,,,60,0,2,,,0,,,54,64
31740,note_on,,,,,0,0,2,,,0,,,58,29
31740,note_off,,,,,60,0,1,,,0,,,66,64
31740,note_on,,,,,0,0,1,,,0,,,65,38
31760,set_tempo,,,,,40,1,0,571429,,,,,,
31800,note_on,,,,,0,0,1,,,0,,,66,39
31800,note_on,,,,,0,0,2,,,0,,,54,33
31800,note_off,,,,,60,0,2,,,0,,,58,64
31800,note_off,,,,,60,0,1,,,0,,,65,64
31820,set_tempo,,,,,60,1,0,566038,,,,,,
31860,note_on,,,,,0,0,1,,,0,,,68,41
31860,note_off,,,,,60,0,1,,,0,,,66,64
31860,note_off,,,,,60,0,2,,,0,,,54,64
31860,note_on,,,,,0,0,2,,,0,,,58,35
31860,set_tempo,,,,,40,1,0,588235,,,,,,
31920,note_off,,,,,60,0,2,,,0,,,58,64
31920,note_off,,,,,60,0,1,,,0,,,68,64
31920,note_on,,,,,0,0,1,,,0,,,70,42
31920,note_on,,,,,0,0,2,,,0,,,54,38
31980,note_on,,,,,0,0,1,,,0,,,71,43
31980,note_off,,,,,60,0,1,,,0,,,70,64
31980,set_tempo,,,,,120,1,0,582524,,,,,,
31980,note_on,,,,,0,0,2,,,0,,,58,31
31980,note_off,,,,,60,0,2,,,0,,,54,64
32040,note_on,,,,,0,0,1,,,0,,,70,44
32040,note_off,,,,,60,0,1,,,0,,,71,64
32040,note_on,,,,,0,0,2,,,0,,,54,35
32040,note_off,,,,,60,0,2,,,0,,,58,64
32060,set_tempo,,,,,80,1,0,645161,,,,,,
32100,note_off,,,,,60,0,1,,,0,,,70,64
32100,note_on,,,,,0,0,1,,,0,,,68,45
32100,note_off,,,,,60,0,2,,,0,,,54,64
32100,note_on,,,,,0,0,2,,,0,,,58,37
32130,control_change,,,,,30,0,2,,,0,64,0,,
32160,note_off,,,,,60,0,1,,,0,,,68,64
32160,note_off,,,,,30,0,2,,,0,,,58,64
32160,note_on,,,,,0,0,2,,,0,,,54,38
32160,control_change,,,,,0,0,2,,,0,64,127,,
32160,note_on,,,,,0,0,1,,,0,,,66,46
32220,note_off,,,,,60,0,1,,,0,,,66,64
32220,note_off,,,,,60,0,2,,,0,,,54,64
32220,note_on,,,,,0,0,2,,,0,,,58,38
32220,note_on,,,,,0,0,1,,,0,,,68,46
32280,note_off,,,,,60,0,1,,,0,,,68,64
32280,note_on,,,,,0,0,1,,,0,,,70,43
32280,note_off,,,,,60,0,2,,,0,,,58,64
32280,note_on,,,,,0,0,2,,,0,,,54,36
32320,set_tempo,,,,,260,1,0,674157,,,,,,
32340,note_on,,,,,0,0,1,,,0,,,68,42
32340,note_off,,,,,60,0,2,,,0,,,54,64
32340,note_on,,,,,0,0,2,,,0,,,58,36
32340,note_off,,,,,60,0,1,,,0,,,70,64
32400,note_off,,,,,60,0,2,,,0,,,58,64
32400,note_on,,,,,0,0,2,,,0,,,54,35
32400,note_on,,,,,0,0,1,,,0,,,66,39
32400,note_off,,,,,60,0,1,,,0,,,68,64
32460,set_tempo,,,,,140,1,0,722892,,,,,,
32460,note_on,,,,,0,0,2,,,0,,,58,33
32460,note_off,,,,,60,0,2,,,0,,,54,64
32460,note_off,,,,,60,0,1,,,0,,,66,64
32460,note_on,,,,,0,0,1,,,0,,,68,36
32520,note_off,,,,,60,0,2,,,0,,,58,64
32520,note_on,,,,,0,0,2,,,0,,,54,35
32520,note_off,,,,,60,0,1,,,0,,,68,64
32520,note_on,,,,,0,0,1,,,0,,,66,39
32540,set_tempo,,,,,80,1,0,714286,,,,,,
32580,note_off,,,,,60,0,1,,,0,,,66,64
32580,note_on,,,,,0,0,1,,,0,,,65,44
32580,note_on,,,,,0,0,2,,,0,,,58,42
32580,note_off,,,,,60,0,2,,,0,,,54,64
32600,set_tempo,,,,,60,1,0,923077,,,,,,
32610,control_change,,,,,30,0,2,,,0,64,0,,
32620,set_tempo,,,,,20,1,0,895522,,,,,,
32640,note_off,,,,,30,0,2,,,0,,,58,64
32640,control_change,,,,,0,0,2,,,0,64,127,,
32640,note_on,,,,,0,0,1,,,0,,,64,48
32640,note_off,,,,,60,0,1,,,0,,,65,64
32640,note_on,,,,,0,0,2,,,0,,,42,47
32720,note_off,,,,,80,0,1,,,0,,,64,64
32720,note_on,,,,,0,0,1,,,0,,,70,39
32720,note_off,,,,,80,0,2,,,0,,,42,64
32720,note_on,,,,,0,0,2,,,0,,,54,38
32720,set_tempo,,,,,100,1,0,821918,,,,,,
32740,set_tempo,,,,,20,1,0,810811,,,,,,
32800,note_on,,,,,0,0,2,,,0,,,54,43
32800,note_on,,,,,0,0,2,,,0,,,42,43
32800,note_off,,,,,80,0,2,,,0,,,54,64
32800,note_off,,,,,80,0,1,,,0,,,70,64
32800,note_on,,,,,0,0,1,,,0,,,64,43
32800,note_on,,,,,0,0,1,,,0,,,58,43
32800,note_on,,,,,0,0,1,,,0,,,70,43
32840,set_tempo,,,,,100,1,0,722892,,,,,,
32870,control_change,,,,,70,0,2,,,0,64,0,,
32880,note_off,,,,,80,0,1,,,0,,,58,64
32880,control_change,,,,,0,0,2,,,0,64,127,,
32880,note_on,,,,,0,0,2,,,0,,,54,50
32880,note_on,,,,,0,0,2,,,0,,,42,50
32880,note_off,,,,,0,0,2,,,0,,,42,64
32880,note_off,,,,,10,0,2,,,0,,,54,64
32880,note_off,,,,,0,0,1,,,0,,,64,64
32880,note_off,,,,,0,0,1,,,0,,,70,64
32880,note_on,,,,,0,0,1,,,0,,,70,56
32880,note_on,,,,,0,0,1,,,0,,,64,56
32880,note_on,,,,,0,0,1,,,0,,,58,56
32960,note_on,,,,,0,0,1,,,0,,,70,46
32960,note_off,,,,,0,0,1,,,0,,,70,64
32960,note_off,,,,,0,0,1,,,0,,,64,64
32960,note_off,,,,,80,0,1,,,0,,,58,64
32960,note_on,,,,,0,0,1,,,0,,,64,46
32960,note_off,,,,,80,0,2,,,0,,,54,64
32960,note_off,,,,,0,0,2,,,0,,,42,64
32960,note_on,,,,,0,0,2,,,0,,,54,42
32960,note_on,,,,,0,0,1,,,0,,,58,46
32960,note_on,,,,,0,0,2,,,0,,,42,42
33040,note_off,,,,,0,0,1,,,0,,,64,64
33040,note_off,,,,,80,0,1,,,0,,,58,64
33040,note_on,,,,,0,0,1,,,0,,,70,49
33040,note_on,,,,,0,0,1,,,0,,,64,49
33040,note_on,,,,,0,0,1,,,0,,,58,49
33040,note_off,,,,,80,0,2,,,0,,,42,64
33040,note_off,,,,,0,0,2,,,0,,,54,64
33040,note_on,,,,,0,0,2,,,0,,,42,47
33040,note_on,,,,,0,0,2,,,0,,,54,47
33040,note_off,,,,,0,0,1,,,0,,,70,64
33080,set_tempo,,,,,240,1,0,652174,,,,,,
33110,control_change,,,,,70,0,2,,,0,64,0,,
33110,control_change,,,,,0,0,2,,,0,64,0,,
33120,note_on,,,,,0,0,1,,,0,,,70,65
33120,note_off,,,,,80,0,1,,,0,,,58,64
33120,note_off,,,,,0,0,1,,,0,,,64,64
33120,note_off,,,,,0,0,1,,,0,,,70,64
33120,note_on,,,,,0,0,1,,,0,,,58,65
33120,note_off,,,,,10,0,2,,,0,,,54,64
33120,note_off,,,,,0,0,2,,,0,,,42,64
33120,note_on,,,,,0,0,2,,,0,,,54,59
33120,note_on,,,,,0,0,2,,,0,,,42,59
33120,control_change,,,,,0,0,2,,,0,64,127,,
33120,note_on,,,,,0,0,1,,,0,,,64,65
33200,note_on,,,,,0,0,1,,,0,,,64,56
33200,note_on,,,,,0,0,2,,,0,,,54,53
33200,note_on,,,,,0,0,2,,,0,,,42,53
33200,note_off,,,,,0,0,2,,,0,,,54,64
33200,note_on,,,,,0,0,1,,,0,,,58,56
33200,note_off,,,,,80,0,1,,,0,,,58,64
33200,note_off,,,,,0,0,1,,,0,,,70,64
33200,note_off,,,,,80,0,2,,,0,,,42,64
33200,note_on,,,,,0,0,1,,,0,,,70,56
33200,note_off,,,,,0,0,1,,,0,,,64,64
33260,set_tempo,,,,,180,1,0,631579,,,,,,
33280,note_off,,,,,80,0,2,,,0,,,54,64
33280,note_off,,,,,0,0,2,,,0,,,42,64
33280,note_on,,,,,0,0,2,,,0,,,54,56
33280,note_on,,,,,0,0,2,,,0,,,42,56
33280,note_off,,,,,0,0,1,,,0,,,70,64
33280,note_on,,,,,0,0,1,,,0,,,58,62
33280,note_off,,,,,80,0,1,,,0,,,58,64
33280,note_off,,,,,0,0,1,,,0,,,64,64
33280,note_on,,,,,0,0,1,,,0,,,64,62
33280,note_on,,,,,0,0,1,,,0,,,70,62
33350,control_change,,,,,0,0,2,,,0,64,0,,
33350,control_change,,,,,0,0,2,,,0,64,0,,
33350,control_change,,,,,70,0,2,,,0,64,0,,
33360,note_off,,,,,10,0,2,,,0,,,42,64
33360,note_off,,,,,0,0,2,,,0,,,54,64
33360,note_on,,,,,0,0,2,,,0,,,54,71
33360,note_on,,,,,0,0,2,,,0,,,49,71
33360,note_on,,,,,0,0,2,,,0,,,42,71
33360,control_change,,,,,0,0,2,,,0,64,127,,
33360,note_off,,,,,80,0,1,,,0,,,58,64
33360,note_off,,,,,0,0,1,,,0,,,70,64
33360,note_on,,,,,0,0,1,,,0,,,70,80
33360,note_on,,,,,0,0,1,,,0,,,64,80
33360,note_off,,,,,0,0,1,,,0,,,64,64
33360,note_on,,,,,0,0,1,,,0,,,58,80
33420,set_tempo,,,,,160,1,0,612245,,,,,,
33440,note_on,,,,,0,0,1,,,0,,,58,71
33440,note_off,,,,,80,0,1,,,0,,,58,64
33440,note_off,,,,,0,0,1,,,0,,,64,64
33440,note_on,,,,,0,0,1,,,0,,,70,71
33440,note_off,,,,,0,0,1,,,0,,,70,64
33440,note_on,,,,,0,0,1,,,0,,,64,71
33440,note_off,,,,,0,0,2,,,0,,,49,64
33440,note_off,,,,,0,0,2,,,0,,,54,64
33440,note_on,,,,,0,0,2,,,0,,,42,61
33440,note_on,,,,,0,0,2,,,0,,,49,61
33440,note_on,,,,,0,0,2,,,0,,,54,61
33440,note_off,,,,,80,0,2,,,0,,,42,64
33520,note_on,,,,,0,0,1,,,0,,,70,76
33520,note_off,,,,,0,0,1,,,0,,,70,64
33520,note_off,,,,,0,0,1,,,0,,,64,64
33520,note_off,,,,,80,0,1,,,0,,,58,64
33520,note_on,,,,,0,0,1,,,0,,,64,76
33520,note_on,,,,,0,0,1,,,0,,,58,76
33520,note_on,,,,,0,0,2,,,0,,,54,64
33520,note_on,,,,,0,0,2,,,0,,,49,64
33520,note_on,,,,,0,0,2,,,0,,,42,64
33520,note_off,,,,,0,0,2,,,0,,,42,64
33520,note_off,,,,,0,0,2,,,0,,,49,64
33520,note_off,,,,,80,0,2,,,0,,,54,64
33590,control_change,,,,,0,0,2,,,0,64,0,,
33590,control_change,,,,,0,0,2,,,0,64,0,,
33590,control_change,,,,,70,0,2,,,0,64,0,,
33590,control_change,,,,,0,0,2,,,0,64,0,,
33600,note_on,,,,,0,0,1,,,0,,,58,91
33600,note_on,,,,,0,0,1,,,0,,,64,91
33600,note_on,,,,,0,0,1,,,0,,,70,91
33600,note_off,,,,,0,0,1,,,0,,,70,64
33600,note_off,,,,,0,0,1,,,0,,,64,64
33600,note_off,,,,,80,0,1,,,0,,,58,64
33600,note_on,,,,,0,0,2,,,0,,,42,80
33600,note_on,,,,,0,0,2,,,0,,,54,80
33600,control_change,,,,,0,0,2,,,0,64,127,,
33600,note_off,,,,,0,0,2,,,0,,,42,64
33600,note_off,,,,,0,0,2,,,0,,,49,64
33600,note_off,,,,,10,0,2,,,0,,,54,64
33600,note_on,,,,,0,0,2,,,0,,,49,80
33680,note_off,,,,,80,0,1,,,0,,,58,64
33680,note_off,,,,,0,0,1,,,0,,,64,64
33680,note_off,,,,,0,0,1,,,0,,,70,64
33680,note_on,,,,,0,0,1,,,0,,,70,84
33680,note_on,,,,,0,0,1,,,0,,,58,84
33680,note_on,,,,,0,0,1,,,0,,,64,84
33680,note_on,,,,,0,0,2,,,0,,,54,73
33680,note_off,,,,,80,0,2,,,0,,,49,64
33680,note_off,,,,,0,0,2,,,0,,,54,64
33680,note_off,,,,,0,0,2,,,0,,,42,64
33680,note_on,,,,,0,0,2,,,0,,,42,73
33680,note_on,,,,,0,0,2,,,0,,,49,73
33760,note_on,,,,,0,0,1,,,0,,,70,86
33760,note_off,,,,,0,0,1,,,0,,,70,64
33760,note_off,,,,,0,0,1,,,0,,,64,64
33760,note_off,,,,,80,0,1,,,0,,,58,64
33760,note_on,,,,,0,0,2,,,0,,,49,77
33760,note_on,,,,,0,0,2,,,0,,,42,77
33760,note_on,,,,,0,0,1,,,0,,,64,86
33760,note_off,,,,,0,0,2,,,0,,,49,64
33760,note_off,,,,,80,0,2,,,0,,,54,64
33760,note_on,,,,,0,0,2,,,0,,,54,77
33760,note_on,,,,,0,0,1,,,0,,,58,86
33760,note_off,,,,,0,0,2,,,0,,,42,64
33800,set_tempo,,,,,380,1,0,645161,,,,,,
33830,control_change,,,,,0,0,2,,,0,64,0,,
33830,control_change,,,,,0,0,2,,,0,64,0,,
33830,control_change,,,,,0,0,2,,,0,64,0,,
33830,control_change,,,,,70,0,2,,,0,64,0,,
33830,control_change,,,,,0,0,2,,,0,64,0,,
33840,control_change,,,,,0,0,2,,,0,64,127,,
33840,note_on,,,,,0,0,2,,,0,,,54,92
33840,note_on,,,,,0,0,2,,,0,,,42,92
33840,note_off,,,,,0,0,2,,,0,,,54,64
33840,note_on,,,,,0,0,2,,,0,,,49,92
33840,note_off,,,,,0,0,1,,,0,,,64,64
33840,note_off,,,,,0,0,1,,,0,,,70,64
33840,note_on,,,,,0,0,1,,,0,,,70,100
33840,note_on,,,,,0,0,1,,,0,,,64,100
33840,note_on,,,,,0,0,1,,,0,,,58,100
33840,note_off,,,,,0,0,2,,,0,,,42,64
33840,note_off,,,,,10,0,2,,,0,,,49,64
33840,note_off,,,,,80,0,1,,,0,,,58,64
33920,note_off,,,,,0,0,2,,,0,,,49,64
33920,note_on,,,,,0,0,1,,,0,,,64,94
33920,note_off,,,,,80,0,2,,,0,,,54,64
33920,note_off,,,,,0,0,2,,,0,,,42,64
33920,note_on,,,,,0,0,2,,,0,,,42,88
33920,note_on,,,,,0,0,1,,,0,,,70,94
33920,note_on,,,,,0,0,2,,,0,,,49,88
33920,note_off,,,,,0,0,1,,,0,,,70,64
33920,note_off,,,,,0,0,1,,,0,,,64,64
33920,note_off,,,,,80,0,1,,,0,,,58,64
33920,note_on,,,,,0,0,1,,,0,,,58,94
33920,note_on,,,,,0,0,2,,,0,,,54,88
34000,note_on,,,,,0,0,1,,,0,,,58,97
34000,note_off,,,,,80,0,1,,,0,,,58,64
34000,note_off,,,,,0,0,1,,,0,,,64,64
34000,note_off,,,,,0,0,1,,,0,,,70,64
34000,note_on,,,,,0,0,2,,,0,,,42,92
34000,note_on,,,,,0,0,1,,,0,,,64,97
34000,set_tempo,,,,,200,1,0,674157,,,,,,
34000,note_on,,,,,0,0,2,,,0,,,54,92
34000,note_on,,,,,0,0,2,,,0,,,49,92
34000,note_off,,,,,0,0,2,,,0,,,42,64
34000,note_off,,,,,0,0,2,,,0,,,54,64
34000,note_on,,,,,0,0,1,,,0,,,70,97
34000,note_off,,,,,80,0,2,,,0,,,49,64
34070,control_change,,,,,0,0,2,,,0,64,0,,
34070,control_change,,,,,0,0,2,,,0,64,0,,
34070,control_change,,,,,0,0,2,,,0,64,0,,
34070,control_change,,,,,0,0,2,,,0,64,0,,
34070,control_change,,,,,70,0,2,,,0,64,0,,
34080,note_off,,,,,80,0,1,,,0,,,58,64
34080,control_change,,,,,0,0,2,,,0,64,127,,
34080,note_on,,,,,0,0,2,,,0,,,42,104
34080,note_on,,,,,0,0,2,,,0,,,54,104
34080,note_on,,,,,0,0,2,,,0,,,49,104
34080,note_off,,,,,0,0,2,,,0,,,49,64
34080,note_off,,,,,10,0,2,,,0,,,42,64
34080,note_off,,,,,0,0,2,,,0,,,54,64
34080,note_off,,,,,0,0,1,,,0,,,70,64
34080,note_on,,,,,0,0,1,,,0,,,70,109
34080,note_on,,,,,0,0,1,,,0,,,64,109
34080,note_on,,,,,0,0,1,,,0,,,58,109
34080,note_off,,,,,0,0,1,,,0,,,64,64
34160,note_on,,,,,0,0,2,,,0,,,42,99
34160,note_on,,,,,0,0,2,,,0,,,54,99
34160,note_off,,,,,80,0,2,,,0,,,42,64
34160,note_off,,,,,0,0,2,,,0,,,54,64
34160,note_off,,,,,0,0,2,,,0,,,49,64
34160,note_on,,,,,0,0,2,,,0,,,49,99
34160,note_on,,,,,0,0,1,,,0,,,70,104
34160,note_off,,,,,0,0,1,,,0,,,64,64
34160,note_off,,,,,0,0,1,,,0,,,70,64
34160,note_on,,,,,0,0,1,,,0,,,64,104
34160,note_off,,,,,80,0,1,,,0,,,58,64
34160,note_on,,,,,0,0,1,,,0,,,58,104
34240,note_on,,,,,0,0,1,,,0,,,64,107
34240,note_on,,,,,0,0,1,,,0,,,70,107
34240,note_off,,,,,0,0,1,,,0,,,70,64
34240,note_off,,,,,0,0,1,,,0,,,64,64
34240,note_off,,,,,80,0,1,,,0,,,58,64
34240,note_on,,,,,0,0,2,,,0,,,42,103
34240,note_off,,,,,80,0,2,,,0,,,42,64
34240,note_off,,,,,0,0,2,,,0,,,49,64
34240,note_off,,,,,0,0,2,,,0,,,54,64
34240,note_on,,,,,0,0,2,,,0,,,49,103
34240,note_on,,,,,0,0,1,,,0,,,58,107
34240,note_on,,,,,0,0,2,,,0,,,54,103
34260,set_tempo,,,,,260,1,0,1000000,,,,,,
34310,control_change,,,,,0,0,2,,,0,64,0,,
34310,control_change,,,,,0,0,2,,,0,64,0,,
34310,control_change,,,,,0,0,2,,,0,64,0,,
34310,control_change,,,,,0,0,2,,,0,64,0,,
34310,control_change,,,,,0,0,2,,,0,64,0,,
34310,control_change,,,,,70,0,2,,,0,64,0,,
34320,note_off,,,,,80,0,1,,,0,,,58,64
34320,note_off,,,,,0,0,1,,,0,,,64,64
34320,note_off,,,,,0,0,1,,,0,,,70,64
34320,note_on,,,,,0,0,1,,,0,,,65,112
34320,note_on,,,,,0,0,1,,,0,,,70,112
34320,note_off,,,,,10,0,2,,,0,,,54,64
34320,note_off,,,,,0,0,2,,,0,,,42,64
34320,note_off,,,,,0,0,2,,,0,,,49,64
34320,note_on,,,,,0,0,2,,,0,,,50,112
34320,note_on,,,,,0,0,2,,,0,,,41,112
34320,note_on,,,,,0,0,2,,,0,,,53,112
34320,control_change,,,,,0,0,2,,,0,64,127,,
34320,note_on,,,,,0,0,1,,,0,,,58,112
34340,set_tempo,,,,,80,1,0,789474,,,,,,
34400,note_off,,,,,80,0,2,,,0,,,53,64
34400,note_off,,,,,0,0,2,,,0,,,41,64
34400,note_off,,,,,0,0,2,,,0,,,50,64
34400,note_on,,,,,0,0,2,,,0,,,41,110
34400,note_on,,,,,0,0,2,,,0,,,53,110
34400,note_on,,,,,0,0,2,,,0,,,50,110
34400,note_off,,,,,80,0,1,,,0,,,58,64
34400,note_off,,,,,0,0,1,,,0,,,65,64
34400,note_on,,,,,0,0,1,,,0,,,58,110
34400,note_on,,,,,0,0,1,,,0,,,65,110
34400,note_off,,,,,0,0,1,,,0,,,70,64
34400,note_on,,,,,0,0,1,,,0,,,70,110
34420,set_tempo,,,,,80,1,0,821918,,,,,,
34440,set_tempo,,,,,20,1,0,869565,,,,,,
34460,set_tempo,,,,,20,1,0,983607,,,,,,
34480,note_on,,,,,0,0,2,,,0,,,53,103
34480,note_on,,,,,0,0,2,,,0,,,41,103
34480,note_on,,,,,0,0,2,,,0,,,50,103
34480,note_off,,,,,0,0,2,,,0,,,41,64
34480,note_off,,,,,0,0,2,,,0,,,53,64
34480,note_off,,,,,80,0,2,,,0,,,50,64
34480,note_off,,,,,0,0,1,,,0,,,65,64
34480,set_tempo,,,,,20,1,0,1000000,,,,,,
34480,note_on,,,,,0,0,1,,,0,,,58,103
34480,note_on,,,,,0,0,1,,,0,,,65,103
34480,note_on,,,,,0,0,1,,,0,,,70,103
34480,note_off,,,,,0,0,1,,,0,,,70,64
34480,note_off,,,,,80,0,1,,,0,,,58,64
34500,set_tempo,,,,,20,1,0,1111111,,,,,,
34520,set_tempo,,,,,20,1,0,1395349,,,,,,
34550,control_change,,,,,70,0,2,,,0,64,0,,
34560,note_off,,,,,0,0,2,,,0,,,41,64
34560,note_off,,,,,0,0,2,,,0,,,50,64
34560,note_off,,,,,80,0,1,,,0,,,58,64
34560,note_off,,,,,0,0,1,,,0,,,65,64
34560,note_off,,,,,0,0,1,,,0,,,70,64
34560,note_on,,,,,0,0,1,,,0,,,70,108
34560,note_on,,,,,0,0,1,,,0,,,65,108
34560,note_off,,,,,10,0,2,,,0,,,53,64
34560,note_on,,,,,0,0,1,,,0,,,46,108
34560,note_on,,,,,0,0,1,,,0,,,58,108
34560,note_on,,,,,0,0,2,,,0,,,50,109
34560,control_change,,,,,0,0,2,,,0,64,127,,
34580,set_tempo,,,,,60,1,0,983607,,,,,,
34638,note_off,,,,,78,0,2,,,0,,,50,64
34640,note_on,,,,,2,0,2,,,0,,,53,91
34680,set_tempo,,,,,100,1,0,869565,,,,,,
34704,note_off,,,,,64,0,2,,,0,,,53,64
34720,note_on,,,,,16,0,2,,,0,,,53,88
34776,note_off,,,,,56,0,2,,,0,,,53,64
34780,set_tempo,,,,,100,1,0,789474,,,,,,
34790,control_change,,,,,14,0,2,,,0,64,0,,
34800,note_off,,,,,240,0,1,,,0,,,46,64
34800,note_off,,,,,0,0,1,,,0,,,65,64
34800,note_off,,,,,0,0,1,,,0,,,58,64
34800,note_on,,,,,0,0,1,,,0,,,57,91
34800,note_on,,,,,0,0,1,,,0,,,69,91
34800,note_off,,,,,0,0,1,,,0,,,70,64
34800,note_on,,,,,0,0,1,,,0,,,65,91
34800,note_on,,,,,10,0,2,,,0,,,48,95
34800,control_change,,,,,0,0,2,,,0,64,127,,
34800,note_on,,,,,0,0,1,,,0,,,46,91
34878,note_off,,,,,78,0,2,,,0,,,48,64
34880,note_on,,,,,2,0,2,,,0,,,53,89
34920,set_tempo,,,,,140,1,0,714286,,,,,,
34944,note_off,,,,,64,0,2,,,0,,,53,64
34960,note_on,,,,,16,0,2,,,0,,,53,66
35016,note_off,,,,,56,0,2,,,0,,,53,64
35020,set_tempo,,,,,100,1,0,674157,,,,,,
35030,control_change,,,,,14,0,2,,,0,64,0,,
35040,note_off,,,,,0,0,1,,,0,,,57,64
35040,note_on,,,,,0,0,2,,,0,,,50,89
35040,note_off,,,,,0,0,1,,,0,,,65,64
35040,note_off,,,,,0,0,1,,,0,,,69,64
35040,note_on,,,,,0,0,1,,,0,,,70,89
35040,note_on,,,,,0,0,1,,,0,,,65,89
35040,note_on,,,,,0,0,1,,,0,,,58,89
35040,note_on,,,,,0,0,1,,,0,,,46,89
35040,note_off,,,,,240,0,1,,,0,,,46,64
35040,control_change,,,,,10,0,2,,,0,64,127,,
35118,note_off,,,,,78,0,2,,,0,,,50,64
35120,note_on,,,,,2,0,2,,,0,,,53,81
35120,set_tempo,,,,,100,1,0,645161,,,,,,
35184,note_off,,,,,64,0,2,,,0,,,53,64
35200,note_on,,,,,16,0,2,,,0,,,53,68
35220,set_tempo,,,,,100,1,0,606061,,,,,,
35256,note_off,,,,,56,0,2,,,0,,,53,64
35270,control_change,,,,,14,0,2,,,0,64,0,,
35280,note_on,,,,,0,0,1,,,0,,,46,104
35280,note_on,,,,,0,0,1,,,0,,,60,104
35280,note_on,,,,,0,0,1,,,0,,,65,104
35280,note_on,,,,,0,0,1,,,0,,,72,104
35280,note_off,,,,,0,0,1,,,0,,,65,64
35280,note_off,,,,,0,0,1,,,0,,,70,64
35280,note_off,,,,,240,0,1,,,0,,,46,64
35280,control_change,,,,,0,0,2,,,0,64,127,,
35280,note_on,,,,,10,0,2,,,0,,,51,94
35280,note_off,,,,,0,0,1,,,0,,,58,64
35300,set_tempo,,,,,80,1,0,576923,,,,,,
35358,note_off,,,,,78,0,2,,,0,,,51,64
35360,note_on,,,,,2,0,2,,,0,,,53,83
35420,set_tempo,,,,,120,1,0,689655,,,,,,
35424,note_off,,,,,64,0,2,,,0,,,53,64
35440,note_on,,,,,16,0,2,,,0,,,53,70
35460,set_tempo,,,,,40,1,0,681818,,,,,,
35496,note_off,,,,,56,0,2,,,0,,,53,64
35510,control_change,,,,,14,0,2,,,0,64,0,,
35520,set_tempo,,,,,60,1,0,674157,,,,,,
35520,control_change,,,,,0,0,2,,,0,64,127,,
35520,note_on,,,,,10,0,2,,,0,,,52,106
35520,note_off,,,,,0,0,1,,,0,,,60,64
35520,note_off,,,,,240,0,1,,,0,,,46,64
35520,note_on,,,,,0,0,1,,,0,,,46,109
35520,note_off,,,,,0,0,1,,,0,,,72,64
35520,note_off,,,,,0,0,1,,,0,,,65,64
35520,note_on,,,,,0,0,1,,,0,,,65,109
35520,note_on,,,,,0,0,1,,,0,,,74,109
35520,note_on,,,,,0,0,1,,,0,,,62,109
35598,note_off,,,,,78,0,2,,,0,,,52,64
35600,note_on,,,,,2,0,2,,,0,,,53,84
35600,set_tempo,,,,,80,1,0,645161,,,,,,
35664,note_off,,,,,64,0,2,,,0,,,53,64
35680,note_on,,,,,16,0,2,,,0,,,53,72
35736,note_off,,,,,56,0,2,,,0,,,53,64
35760,note_on,,,,,24,0,2,,,0,,,53,85
35838,note_off,,,,,78,0,2,,,0,,,53,64
35840,set_tempo,,,,,240,1,0,618557,,,,,,
35840,note_on,,,,,2,0,2,,,0,,,53,77
35860,set_tempo,,,,,20,1,0,612245,,,,,,
35904,note_off,,,,,64,0,2,,,0,,,53,64
35920,note_on,,,,,16,0,2,,,0,,,53,65
35976,note_off,,,,,56,0,2,,,0,,,53,64
36000,note_on,,,,,24,0,2,,,0,,,53,76
36000,set_tempo,,,,,140,1,0,582524,,,,,,
36078,note_off,,,,,78,0,2,,,0,,,53,64
36080,note_on,,,,,2,0,2,,,0,,,53,72
36144,note_off,,,,,64,0,2,,,0,,,53,64
36160,note_on,,,,,16,0,2,,,0,,,53,68
36216,note_off,,,,,56,0,2,,,0,,,53,64
36230,control_change,,,,,14,0,2,,,0,64,0,,
36240,note_off,,,,,0,0,1,,,0,,,62,64
36240,note_off,,,,,0,0,1,,,0,,,74,64
36240,note_off,,,,,0,0,1,,,0,,,65,64
36240,control_change,,,,,10,0,2,,,0,64,127,,
36240,note_off,,,,,720,0,1,,,0,,,46,64
36240,note_on,,,,,0,0,2,,,0,,,51,91
36240,note_on,,,,,0,0,1,,,0,,,60,95
36240,note_on,,,,,0,0,1,,,0,,,46,95
36240,note_on,,,,,0,0,1,,,0,,,65,95
36240,note_on,,,,,0,0,1,,,0,,,72,95
36280,set_tempo,,,,,280,1,0,631579,,,,,,
36318,note_off,,,,,78,0,2,,,0,,,51,64
36320,note_on,,,,,2,0,2,,,0,,,53,86
36360,set_tempo,,,,,80,1,0,689655,,,,,,
36360,note_off,,,,,120,0,1,,,0,,,60,64
36360,note_off,,,,,0,0,1,,,0,,,65,64
36360,note_off,,,,,0,0,1,,,0,,,72,64
36360,note_on,,,,,0,0,1,,,0,,,70,92
36360,note_on,,,,,0,0,1,,,0,,,65,92
36360,note_on,,,,,0,0,1,,,0,,,58,92
36384,note_off,,,,,64,0,2,,,0,,,53,64
36400,note_on,,,,,16,0,2,,,0,,,50,73
36456,note_off,,,,,56,0,2,,,0,,,50,64
36460,set_tempo,,,,,100,1,0,769231,,,,,,
36470,control_change,,,,,14,0,2,,,0,64,0,,
36480,note_off,,,,,0,0,1,,,0,,,46,64
36480,control_change,,,,,0,0,2,,,0,64,127,,
36480,note_off,,,,,0,0,1,,,0,,,70,64
36480,note_on,,,,,0,0,1,,,0,,,41,101
36480,note_on,,,,,0,0,1,,,0,,,65,101
36480,note_on,,,,,0,0,1,,,0,,,72,101
36480,note_on,,,,,10,0,2,,,0,,,51,106
36480,note_off,,,,,120,0,1,,,0,,,58,64
36480,note_off,,,,,0,0,1,,,0,,,65,64
36480,note_on,,,,,0,0,1,,,0,,,60,101
36540,set_tempo,,,,,80,1,0,625000,,,,,,
36558,note_off,,,,,78,0,2,,,0,,,51,64
36560,note_on,,,,,2,0,2,,,0,,,53,84
36624,note_off,,,,,64,0,2,,,0,,,53,64
36640,set_tempo,,,,,100,1,0,582524,,,,,,
36640,note_on,,,,,16,0,2,,,0,,,53,72
36696,note_off,,,,,56,0,2,,,0,,,53,64
36710,control_change,,,,,14,0,2,,,0,64,0,,
36720,control_change,,,,,10,0,2,,,0,64,127,,
36720,note_on,,,,,0,0,2,,,0,,,51,101
36720,note_on,,,,,0,0,1,,,0,,,41,94
36720,note_on,,,,,0,0,1,,,0,,,65,94
36720,note_off,,,,,240,0,1,,,0,,,41,64
36720,note_off,,,,,0,0,1,,,0,,,60,64
36720,note_off,,,,,0,0,1,,,0,,,65,64
36720,note_off,,,,,0,0,1,,,0,,,72,64
36720,note_on,,,,,0,0,1,,,0,,,72,94
36720,note_on,,,,,0,0,1,,,0,,,60,94
36740,set_tempo,,,,,100,1,0,588235,,,,,,
36798,note_off,,,,,78,0,2,,,0,,,51,64
36800,note_on,,,,,2,0,2,,,0,,,53,86
36800,set_tempo,,,,,60,1,0,600000,,,,,,
36864,note_off,,,,,64,0,2,,,0,,,53,64
36880,note_on,,,,,16,0,2,,,0,,,53,73
36936,note_off,,,,,56,0,2,,,0,,,53,64
36950,control_change,,,,,14,0,2,,,0,64,0,,
36960,note_off,,,,,240,0,1,,,0,,,41,64
36960,note_off,,,,,0,0,1,,,0,,,65,64
36960,note_off,,,,,0,0,1,,,0,,,72,64
36960,note_on,,,,,0,0,1,,,0,,,72,98
36960,note_on,,,,,0,0,1,,,0,,,65,98
36960,note_on,,,,,0,0,1,,,0,,,60,98
36960,note_on,,,,,10,0,2,,,0,,,51,98
36960,control_change,,,,,0,0,2,,,0,64,127,,
36960,note_on,,,,,0,0,1,,,0,,,41,98
36960,note_off,,,,,0,0,1,,,0,,,60,64
37038,note_off,,,,,78,0,2,,,0,,,51,64
37040,note_on,,,,,2,0,2,,,0,,,53,82
37100,set_tempo,,,,,300,1,0,560748,,,,,,
37104,note_off,,,,,64,0,2,,,0,,,53,64
37120,note_on,,,,,16,0,2,,,0,,,53,70
37160,set_tempo,,,,,60,1,0,566038,,,,,,
37176,note_off,,,,,56,0,2,,,0,,,53,64
37190,control_change,,,,,14,0,2,,,0,64,0,,
37200,note_off,,,,,240,0,1,,,0,,,41,64
37200,note_off,,,,,0,0,1,,,0,,,60,64
37200,note_off,,,,,0,0,1,,,0,,,65,64
37200,note_off,,,,,0,0,1,,,0,,,72,64
37200,note_on,,,,,0,0,1,,,0,,,65,103
37200,note_on,,,,,0,0,1,,,0,,,58,103
37200,note_on,,,,,0,0,1,,,0,,,41,103
37200,note_on,,,,,0,0,1,,,0,,,70,103
37200,control_change,,,,,0,0,2,,,0,64,127,,
37200,note_on,,,,,10,0,2,,,0,,,50,103
37220,set_tempo,,,,,60,1,0,600000,,,,,,
37260,set_tempo,,,,,40,1,0,625000,,,,,,
37278,note_off,,,,,78,0,2,,,0,,,50,64
37280,note_on,,,,,2,0,2,,,0,,,51,83
37280,set_tempo,,,,,20,1,0,631579,,,,,,
37320,note_off,,,,,0,0,1,,,0,,,70,64
37320,note_on,,,,,0,0,1,,,0,,,69,106
37320,note_on,,,,,0,0,1,,,0,,,65,106
37320,note_on,,,,,0,0,1,,,0,,,57,106
37320,note_off,,,,,0,0,1,,,0,,,65,64
37320,note_off,,,,,120,0,1,,,0,,,58,64
37344,note_off,,,,,64,0,2,,,0,,,51,64
37360,note_on,,,,,16,0,2,,,0,,,48,70
37416,note_off,,,,,56,0,2,,,0,,,48,64
37430,control_change,,,,,14,0,2,,,0,64,0,,
37440,control_change,,,,,10,0,2,,,0,64,127,,
37440,note_off,,,,,0,0,1,,,0,,,69,64
37440,note_off,,,,,0,0,1,,,0,,,65,64
37440,note_on,,,,,0,0,2,,,0,,,50,106
37440,note_off,,,,,0,0,1,,,0,,,41,64
37440,set_tempo,,,,,160,1,0,566038,,,,,,
37440,note_on,,,,,0,0,1,,,0,,,65,110
37440,note_on,,,,,0,0,1,,,0,,,58,110
37440,note_on,,,,,0,0,1,,,0,,,46,110
37440,note_off,,,,,120,0,1,,,0,,,57,64
37440,note_on,,,,,0,0,1,,,0,,,70,110
37460,set_tempo,,,,,20,1,0,571429,,,,,,
37518,note_off,,,,,78,0,2,,,0,,,50,64
37520,note_on,,,,,2,0,2,,,0,,,53,84
37584,note_off,,,,,64,0,2,,,0,,,53,64
37600,note_on,,,,,16,0,2,,,0,,,53,72
37620,set_tempo,,,,,160,1,0,612245,,,,,,
37656,note_off,,,,,56,0,2,,,0,,,53,64
37670,control_change,,,,,14,0,2,,,0,64,0,,
37680,note_on,,,,,0,0,1,,,0,,,63,89
37680,note_on,,,,,0,0,1,,,0,,,67,89
37680,note_on,,,,,10,0,2,,,0,,,51,89
37680,note_off,,,,,240,0,1,,,0,,,65,64
37758,note_off,,,,,78,0,2,,,0,,,51,64
37760,note_on,,,,,2,0,2,,,0,,,55,81
37780,set_tempo,,,,,160,1,0,652174,,,,,,
37824,note_off,,,,,64,0,2,,,0,,,55,64
37840,note_on,,,,,16,0,2,,,0,,,55,69
37896,note_off,,,,,56,0,2,,,0,,,55,64
37920,note_off,,,,,240,0,1,,,0,,,63,64
37920,note_off,,,,,0,0,1,,,0,,,67,64
37920,note_on,,,,,0,0,1,,,0,,,65,75
37920,note_on,,,,,0,0,1,,,0,,,62,75
37920,note_on,,,,,24,0,2,,,0,,,50,82
37940,set_tempo,,,,,160,1,0,722892,,,,,,
37998,note_off,,,,,78,0,2,,,0,,,50,64
38000,note_on,,,,,2,0,2,,,0,,,53,79
38040,set_tempo,,,,,100,1,0,779221,,,,,,
38064,note_off,,,,,64,0,2,,,0,,,53,64
38080,note_on,,,,,16,0,2,,,0,,,53,67
38136,note_off,,,,,56,0,2,,,0,,,53,64
38160,note_off,,,,,0,0,1,,,0,,,65,64
38160,note_off,,,,,0,0,1,,,0,,,70,64
38160,note_off,,,,,0,0,1,,,0,,,58,64
38160,note_on,,,,,0,0,1,,,0,,,74,101
38160,note_on,,,,,0,0,1,,,0,,,65,101
38160,note_on,,,,,0,0,1,,,0,,,62,101
38160,set_tempo,,,,,120,1,0,566038,,,,,,
38160,note_off,,,,,0,0,1,,,0,,,46,64
38160,note_on,,,,,0,0,1,,,0,,,44,109
38160,note_off,,,,,240,0,1,,,0,,,62,64
38160,control_change,,,,,24,0,2,,,0,64,127,,
38160,note_on,,,,,0,0,2,,,0,,,50,91
38238,note_off,,,,,78,0,2,,,0,,,50,64
38240,note_on,,,,,2,0,2,,,0,,,53,83
38304,note_off,,,,,64,0,2,,,0,,,53,64
38320,note_on,,,,,16,0,2,,,0,,,53,70
38320,set_tempo,,,,,160,1,0,750000,,,,,,
38376,note_off,,,,,56,0,2,,,0,,,53,64
38390,control_change,,,,,14,0,2,,,0,64,0,,
38390,control_change,,,,,0,0,2,,,0,64,0,,
38400,note_on,,,,,0,0,1,,,0,,,74,104
38400,control_change,,,,,10,0,2,,,0,64,127,,
38400,note_on,,,,,0,0,1,,,0,,,53,104
38400,note_off,,,,,0,0,1,,,0,,,74,64
38400,note_off,,,,,0,0,1,,,0,,,65,64
38400,note_off,,,,,0,0,1,,,0,,,62,64
38400,note_off,,,,,240,0,1,,,0,,,44,64
38400,note_on,,,,,0,0,1,,,0,,,67,104
38400,note_on,,,,,0,0,2,,,0,,,53,106
38400,note_on,,,,,0,0,1,,,0,,,62,104
38400,note_on,,,,,0,0,1,,,0,,,43,104
38400,set_tempo,,,,,80,1,0,618557,,,,,,
38478,note_off,,,,,78,0,2,,,0,,,53,64
38480,note_on,,,,,2,0,2,,,0,,,55,84
38544,note_off,,,,,64,0,2,,,0,,,55,64
38560,note_on,,,,,16,0,2,,,0,,,55,72
38616,note_off,,,,,56,0,2,,,0,,,55,64
38620,set_tempo,,,,,220,1,0,571429,,,,,,
38640,note_on,,,,,24,0,2,,,0,,,53,85
38718,note_off,,,,,78,0,2,,,0,,,53,64
38720,note_on,,,,,2,0,2,,,0,,,55,77
38784,note_off,,,,,64,0,2,,,0,,,55,64
38800,note_on,,,,,16,0,2,,,0,,,55,65
38856,note_off,,,,,56,0,2,,,0,,,55,64
38880,note_on,,,,,24,0,2,,,0,,,53,75
38958,note_off,,,,,78,0,2,,,0,,,53,64
38960,note_on,,,,,2,0,2,,,0,,,55,78
39024,note_off,,,,,64,0,2,,,0,,,55,64
39040,note_on,,,,,16,0,2,,,0,,,55,66
39060,set_tempo,,,,,440,1,0,560748,,,,,,
39096,note_off,,,,,56,0,2,,,0,,,55,64
39110,control_change,,,,,14,0,2,,,0,64,0,,
39110,control_change,,,,,0,0,2,,,0,64,0,,
39120,note_on,,,,,0,0,1,,,0,,,43,86
39120,note_off,,,,,0,0,1,,,0,,,53,64
39120,note_on,,,,,10,0,2,,,0,,,51,80
39120,note_off,,,,,0,0,1,,,0,,,62,64
39120,note_off,,,,,720,0,1,,,0,,,43,64
39120,note_on,,,,,0,0,1,,,0,,,60,86
39120,note_on,,,,,0,0,1,,,0,,,67,86
39120,note_on,,,,,0,0,1,,,0,,,72,86
39120,note_off,,,,,0,0,1,,,0,,,74,64
39120,note_off,,,,,0,0,1,,,0,,,67,64
39120,control_change,,,,,0,0,2,,,0,64,127,,
39198,note_off,,,,,78,0,2,,,0,,,51,64
39200,note_on,,,,,2,0,2,,,0,,,53,81
39240,note_off,,,,,0,0,1,,,0,,,60,64
39240,note_off,,,,,0,0,1,,,0,,,72,64
39240,note_on,,,,,0,0,1,,,0,,,71,94
39240,note_on,,,,,0,0,1,,,0,,,67,94
39240,note_on,,,,,0,0,1,,,0,,,59,94
39240,note_on,,,,,0,0,1,,,0,,,43,94
39240,note_off,,,,,0,0,1,,,0,,,67,64
39240,note_off,,,,,120,0,1,,,0,,,43,64
39264,note_off,,,,,64,0,2,,,0,,,53,64
39280,note_on,,,,,16,0,2,,,0,,,50,69
39320,control_change,,,,,40,0,2,,,0,64,0,,
39336,note_off,,,,,16,0,2,,,0,,,50,64
39340,set_tempo,,,,,280,1,0,600000,,,,,,
39350,control_change,,,,,14,0,2,,,0,64,0,,
39360,note_off,,,,,0,0,1,,,0,,,67,64
39360,note_off,,,,,0,0,1,,,0,,,71,64
39360,note_on,,,,,0,0,1,,,0,,,75,97
39360,note_on,,,,,0,0,1,,,0,,,72,97
39360,note_on,,,,,0,0,1,,,0,,,63,97
39360,note_on,,,,,0,0,1,,,0,,,43,97
39360,note_off,,,,,0,0,1,,,0,,,59,64
39360,note_off,,,,,120,0,1,,,0,,,43,64
39360,note_on,,,,,0,0,2,,,0,,,48,91
39360,control_change,,,,,10,0,2,,,0,64,127,,
39438,note_off,,,,,78,0,2,,,0,,,48,64
39440,note_on,,,,,2,0,2,,,0,,,55,86
39504,note_off,,,,,64,0,2,,,0,,,55,64
39520,note_on,,,,,16,0,2,,,0,,,55,73
39576,note_off,,,,,56,0,2,,,0,,,55,64
39590,control_change,,,,,14,0,2,,,0,64,0,,
39590,control_change,,,,,0,0,2,,,0,64,0,,
39600,note_on,,,,,0,0,1,,,0,,,62,91
39600,note_on,,,,,0,0,1,,,0,,,67,91
39600,note_on,,,,,0,0,1,,,0,,,74,91
39600,note_off,,,,,0,0,1,,,0,,,75,64
39600,note_off,,,,,0,0,1,,,0,,,72,64
39600,note_off,,,,,0,0,1,,,0,,,63,64
39600,note_off,,,,,240,0,1,,,0,,,43,64
39600,note_on,,,,,10,0,2,,,0,,,53,91
39600,set_tempo,,,,,260,1,0,618557,,,,,,
39600,note_on,,,,,0,0,1,,,0,,,43,91
39600,control_change,,,,,0,0,2,,,0,64,127,,
39678,note_off,,,,,78,0,2,,,0,,,53,64
39680,note_on,,,,,2,0,2,,,0,,,55,83
39744,note_off,,,,,64,0,2,,,0,,,55,64
39760,note_on,,,,,16,0,2,,,0,,,55,71
39780,set_tempo,,,,,180,1,0,631579,,,,,,
39800,set_tempo,,,,,20,1,0,652174,,,,,,
39816,note_off,,,,,56,0,2,,,0,,,55,64
39830,control_change,,,,,14,0,2,,,0,64,0,,
39830,control_change,,,,,0,0,2,,,0,64,0,,
39840,note_on,,,,,0,0,1,,,0,,,43,83
39840,note_on,,,,,0,0,1,,,0,,,60,83
39840,note_on,,,,,0,0,1,,,0,,,67,83
39840,note_on,,,,,0,0,1,,,0,,,72,83
39840,note_off,,,,,240,0,1,,,0,,,43,64
39840,note_off,,,,,0,0,1,,,0,,,67,64
39840,note_off,,,,,0,0,1,,,0,,,62,64
39840,note_on,,,,,0,0,2,,,0,,,51,86
39840,control_change,,,,,10,0,2,,,0,64,127,,
39840,note_off,,,,,0,0,1,,,0,,,74,64
39918,note_off,,,,,78,0,2,,,0,,,51,64
39920,note_on,,,,,2,0,2,,,0,,,55,81
39980,set_tempo,,,,,180,1,0,659341,,,,,,
39984,note_off,,,,,64,0,2,,,0,,,55,64
40000,note_on,,,,,16,0,2,,,0,,,55,69
40000,set_tempo,,,,,20,1,0,645161,,,,,,
40020,set_tempo,,,,,20,1,0,789474,,,,,,
40056,note_off,,,,,56,0,2,,,0,,,55,64
40070,control_change,,,,,0,0,2,,,0,64,0,,
40070,control_change,,,,,14,0,2,,,0,64,0,,
40080,note_on,,,,,0,0,1,,,0,,,60,88
40080,control_change,,,,,0,0,2,,,0,64,127,,
40080,note_on,,,,,10,0,2,,,0,,,51,85
40080,note_on,,,,,0,0,1,,,0,,,69,88
40080,note_on,,,,,0,0,1,,,0,,,42,88
40080,note_off,,,,,240,0,1,,,0,,,43,64
40080,note_off,,,,,0,0,1,,,0,,,60,64
40080,note_off,,,,,0,0,1,,,0,,,67,64
40080,note_off,,,,,0,0,1,,,0,,,72,64
40080,note_on,,,,,0,0,1,,,0,,,72,88
40120,set_tempo,,,,,100,1,0,588235,,,,,,
40158,note_off,,,,,78,0,2,,,0,,,51,64
40160,note_on,,,,,2,0,2,,,0,,,54,81
40160,set_tempo,,,,,40,1,0,582524,,,,,,
40224,note_off,,,,,64,0,2,,,0,,,54,64
40240,note_on,,,,,16,0,2,,,0,,,54,69
40260,set_tempo,,,,,100,1,0,588235,,,,,,
40280,set_tempo,,,,,20,1,0,779221,,,,,,
40296,note_off,,,,,56,0,2,,,0,,,54,64
40310,control_change,,,,,0,0,2,,,0,64,0,,
40310,control_change,,,,,14,0,2,,,0,64,0,,
40320,control_change,,,,,10,0,2,,,0,64,127,,
40320,note_on,,,,,0,0,2,,,0,,,51,92
40320,note_on,,,,,0,0,1,,,0,,,51,94
40320,note_off,,,,,240,0,1,,,0,,,42,64
40320,note_on,,,,,0,0,1,,,0,,,41,94
40320,note_on,,,,,0,0,1,,,0,,,60,94
40320,note_off,,,,,0,0,1,,,0,,,72,64
40320,note_on,,,,,0,0,1,,,0,,,72,94
40320,note_off,,,,,0,0,1,,,0,,,60,64
40320,note_on,,,,,0,0,1,,,0,,,65,94
40320,note_off,,,,,0,0,1,,,0,,,69,64
40380,set_tempo,,,,,100,1,0,631579,,,,,,
40398,note_off,,,,,78,0,2,,,0,,,51,64
40400,note_on,,,,,2,0,2,,,0,,,53,85
40464,note_off,,,,,64,0,2,,,0,,,53,64
40480,note_on,,,,,16,0,2,,,0,,,53,73
40536,note_off,,,,,56,0,2,,,0,,,53,64
40560,note_on,,,,,24,0,2,,,0,,,51,85
40638,note_off,,,,,78,0,2,,,0,,,51,64
40640,note_on,,,,,2,0,2,,,0,,,53,80
40640,set_tempo,,,,,260,1,0,625000,,,,,,
40660,set_tempo,,,,,20,1,0,618557,,,,,,
40700,set_tempo,,,,,40,1,0,612245,,,,,,
40704,note_off,,,,,64,0,2,,,0,,,53,64
40720,note_on,,,,,16,0,2,,,0,,,53,68
40720,set_tempo,,,,,20,1,0,606061,,,,,,
40776,note_off,,,,,56,0,2,,,0,,,53,64
40800,note_on,,,,,24,0,2,,,0,,,51,82
40820,set_tempo,,,,,100,1,0,600000,,,,,,
40860,set_tempo,,,,,40,1,0,588235,,,,,,
40878,note_off,,,,,78,0,2,,,0,,,51,64
40880,note_on,,,,,2,0,2,,,0,,,53,80
40944,note_off,,,,,64,0,2,,,0,,,53,64
40960,note_on,,,,,16,0,2,,,0,,,53,68
41016,note_off,,,,,56,0,2,,,0,,,53,64
41030,control_change,,,,,14,0,2,,,0,64,0,,
41040,note_off,,,,,0,0,1,,,0,,,65,64
41040,note_on,,,,,0,0,1,,,0,,,41,80
41040,note_on,,,,,0,0,1,,,0,,,58,80
41040,note_on,,,,,0,0,1,,,0,,,65,80
41040,note_on,,,,,0,0,1,,,0,,,70,80
41040,note_off,,,,,0,0,1,,,0,,,72,64
41040,note_off,,,,,720,0,1,,,0,,,41,64
41040,note_off,,,,,0,0,1,,,0,,,51,64
41040,control_change,,,,,10,0,2,,,0,64,127,,
41040,note_on,,,,,0,0,2,,,0,,,50,85
41040,note_off,,,,,0,0,1,,,0,,,60,64
41118,note_off,,,,,78,0,2,,,0,,,50,64
41120,note_on,,,,,2,0,2,,,0,,,51,82
41160,note_on,,,,,0,0,1,,,0,,,65,86
41160,note_on,,,,,0,0,1,,,0,,,69,86
41160,note_on,,,,,0,0,1,,,0,,,57,86
41160,note_off,,,,,0,0,1,,,0,,,65,64
41160,note_off,,,,,120,0,1,,,0,,,41,64
41160,note_off,,,,,0,0,1,,,0,,,70,64
41160,note_on,,,,,0,0,1,,,0,,,41,86
41160,note_off,,,,,0,0,1,,,0,,,58,64
41184,note_off,,,,,64,0,2,,,0,,,51,64
41200,note_on,,,,,16,0,2,,,0,,,48,70
41256,note_off,,,,,56,0,2,,,0,,,48,64
41270,control_change,,,,,14,0,2,,,0,64,0,,
41280,note_on,,,,,0,0,1,,,0,,,41,94
41280,note_on,,,,,0,0,1,,,0,,,62,94
41280,note_on,,,,,0,0,1,,,0,,,70,94
41280,note_on,,,,,0,0,1,,,0,,,74,94
41280,note_off,,,,,0,0,1,,,0,,,69,64
41280,note_off,,,,,0,0,1,,,0,,,65,64
41280,note_off,,,,,0,0,1,,,0,,,57,64
41280,note_off,,,,,120,0,1,,,0,,,41,64
41280,control_change,,,,,0,0,2,,,0,64,127,,
41280,note_on,,,,,10,0,2,,,0,,,46,88
41358,note_off,,,,,78,0,2,,,0,,,46,64
41360,note_on,,,,,2,0,2,,,0,,,53,81
41424,note_off,,,,,64,0,2,,,0,,,53,64
41440,note_on,,,,,16,0,2,,,0,,,53,68
41496,note_off,,,,,56,0,2,,,0,,,53,64
41510,control_change,,,,,14,0,2,,,0,64,0,,
41520,control_change,,,,,10,0,2,,,0,64,127,,
41520,note_on,,,,,0,0,2,,,0,,,48,82
41520,note_off,,,,,240,0,1,,,0,,,41,64
41520,note_off,,,,,0,0,1,,,0,,,62,64
41520,note_off,,,,,0,0,1,,,0,,,70,64
41520,note_off,,,,,0,0,1,,,0,,,74,64
41520,note_on,,,,,0,0,1,,,0,,,69,83
41520,note_on,,,,,0,0,1,,,0,,,41,83
41520,note_on,,,,,0,0,1,,,0,,,57,83
41520,note_on,,,,,0,0,1,,,0,,,65,83
41598,note_off,,,,,78,0,2,,,0,,,48,64
41600,note_on,,,,,2,0,2,,,0,,,53,80
41664,note_off,,,,,64,0,2,,,0,,,53,64
41680,note_on,,,,,16,0,2,,,0,,,53,68
41736,note_off,,,,,56,0,2,,,0,,,53,64
41750,control_change,,,,,14,0,2,,,0,64,0,,
41760,note_off,,,,,0,0,1,,,0,,,57,64
41760,note_off,,,,,0,0,1,,,0,,,65,64
41760,note_off,,,,,0,0,1,,,0,,,69,64
41760,note_on,,,,,0,0,1,,,0,,,70,92
41760,note_on,,,,,0,0,1,,,0,,,65,92
41760,note_on,,,,,0,0,1,,,0,,,58,92
41760,note_on,,,,,0,0,1,,,0,,,41,92
41760,control_change,,,,,0,0,2,,,0,64,127,,
41760,note_off,,,,,240,0,1,,,0,,,41,64
41760,note_on,,,,,10,0,2,,,0,,,50,82
41838,note_off,,,,,78,0,2,,,0,,,50,64
41840,note_on,,,,,2,0,2,,,0,,,53,81
41904,note_off,,,,,64,0,2,,,0,,,53,64
41920,note_on,,,,,16,0,2,,,0,,,53,68
41976,note_off,,,,,56,0,2,,,0,,,53,64
41990,control_change,,,,,14,0,2,,,0,64,0,,
42000,note_on,,,,,0,0,1,,,0,,,69,101
42000,note_on,,,,,0,0,1,,,0,,,65,101
42000,note_on,,,,,0,0,1,,,0,,,60,101
42000,note_on,,,,,0,0,2,,,0,,,51,88
42000,note_on,,,,,0,0,1,,,0,,,41,109
42000,note_on,,,,,0,0,1,,,0,,,72,101
42000,control_change,,,,,10,0,2,,,0,64,127,,
42000,note_off,,,,,0,0,1,,,0,,,58,64
42000,note_off,,,,,240,0,1,,,0,,,41,64
42000,note_off,,,,,0,0,1,,,0,,,70,64
42000,note_off,,,,,0,0,1,,,0,,,65,64
42078,note_off,,,,,78,0,2,,,0,,,51,64
42080,note_on,,,,,2,0,2,,,0,,,53,84
42144,note_off,,,,,64,0,2,,,0,,,53,64
42160,note_on,,,,,16,0,2,,,0,,,53,72
42180,set_tempo,,,,,1320,1,0,631579,,,,,,
42216,note_off,,,,,56,0,2,,,0,,,53,64
42230,control_change,,,,,14,0,2,,,0,64,0,,
42240,note_on,,,,,0,0,1,,,0,,,51,107
42240,note_on,,,,,0,0,1,,,0,,,60,107
42240,note_on,,,,,0,0,1,,,0,,,65,107
42240,note_on,,,,,0,0,1,,,0,,,69,107
42240,note_on,,,,,0,0,1,,,0,,,72,107
42240,note_off,,,,,0,0,1,,,0,,,72,64
42240,note_off,,,,,0,0,1,,,0,,,69,64
42240,note_off,,,,,0,0,1,,,0,,,65,64
42240,note_off,,,,,0,0,1,,,0,,,60,64
42240,note_off,,,,,240,0,1,,,0,,,41,64
42240,control_change,,,,,0,0,2,,,0,91,96,,
42240,control_change,,,,,10,0,2,,,0,64,127,,
42240,note_on,,,,,0,0,1,,,0,,,41,107
42240,note_on,,,,,0,0,2,,,0,,,51,88
42240,control_change,,,,,0,0,2,,,0,64,127,,
42318,note_off,,,,,78,0,2,,,0,,,51,64
42320,note_on,,,,,2,0,2,,,0,,,53,84
42320,set_tempo,,,,,140,1,0,606061,,,,,,
42384,note_off,,,,,64,0,2,,,0,,,53,64
42400,note_on,,,,,16,0,2,,,0,,,53,72
42456,note_off,,,,,56,0,2,,,0,,,53,64
42480,note_on,,,,,24,0,2,,,0,,,53,68
42520,set_tempo,,,,,200,1,0,576923,,,,,,
42558,note_off,,,,,78,0,2,,,0,,,53,64
42560,note_on,,,,,2,0,2,,,0,,,53,62
42624,note_off,,,,,64,0,2,,,0,,,53,64
42640,note_on,,,,,16,0,2,,,0,,,53,54
42696,note_off,,,,,56,0,2,,,0,,,53,64
42720,note_on,,,,,24,0,2,,,0,,,53,54
42798,note_off,,,,,78,0,2,,,0,,,53,64
42800,note_on,,,,,2,0,2,,,0,,,53,54
42864,note_off,,,,,64,0,2,,,0,,,53,64
42880,note_on,,,,,16,0,2,,,0,,,53,55
42920,set_tempo,,,,,400,1,0,588235,,,,,,
42936,note_off,,,,,56,0,2,,,0,,,53,64
42960,note_on,,,,,24,0,2,,,0,,,53,60
43038,note_off,,,,,78,0,2,,,0,,,53,64
43040,note_on,,,,,2,0,2,,,0,,,53,64
43060,set_tempo,,,,,140,1,0,631579,,,,,,
43104,note_off,,,,,64,0,2,,,0,,,53,64
43120,note_on,,,,,16,0,2,,,0,,,53,67
43140,set_tempo,,,,,80,1,0,705882,,,,,,
43176,note_off,,,,,56,0,2,,,0,,,53,64
43180,set_tempo,,,,,40,1,0,689655,,,,,,
43190,control_change,,,,,14,0,2,,,0,64,0,,
43200,control_change,,,,,0,0,2,,,0,64,127,,
43200,note_off,,,,,0,0,1,,,0,,,51,64
43200,note_on,,,,,10,0,2,,,0,,,50,68
43200,note_off,,,,,960,0,1,,,0,,,41,64
43200,note_on,,,,,0,0,1,,,0,,,41,68
43200,note_off,,,,,0,0,1,,,0,,,60,64
43200,note_off,,,,,0,0,1,,,0,,,69,64
43200,note_off,,,,,0,0,1,,,0,,,72,64
43200,note_on,,,,,0,0,1,,,0,,,50,68
43200,note_on,,,,,0,0,1,,,0,,,71,68
43200,note_on,,,,,0,0,1,,,0,,,68,68
43200,note_on,,,,,0,0,1,,,0,,,59,68
43220,set_tempo,,,,,40,1,0,789474,,,,,,
43278,note_off,,,,,78,0,2,,,0,,,50,64
43280,note_on,,,,,2,0,2,,,0,,,53,51
43320,set_tempo,,,,,100,1,0,722892,,,,,,
43360,note_off,,,,,80,0,2,,,0,,,53,64
43360,note_on,,,,,0,0,2,,,0,,,53,53
43380,set_tempo,,,,,60,1,0,674157,,,,,,
43440,note_off,,,,,80,0,2,,,0,,,53,64
43440,note_on,,,,,0,0,2,,,0,,,53,55
43520,note_off,,,,,80,0,2,,,0,,,53,64
43520,note_on,,,,,0,0,2,,,0,,,53,58
43540,set_tempo,,,,,160,1,0,645161,,,,,,
43600,note_off,,,,,80,0,2,,,0,,,53,64
43600,note_on,,,,,0,0,2,,,0,,,53,60
43680,note_off,,,,,80,0,2,,,0,,,53,64
43680,note_on,,,,,0,0,2,,,0,,,53,62
43680,set_tempo,,,,,140,1,0,618557,,,,,,
43760,note_on,,,,,0,0,2,,,0,,,53,65
43760,note_off,,,,,80,0,2,,,0,,,53,64
43840,note_on,,,,,0,0,2,,,0,,,53,68
43840,note_off,,,,,80,0,2,,,0,,,53,64
43910,control_change,,,,,70,0,2,,,0,64,0,,
43920,note_off,,,,,10,0,2,,,0,,,53,64
43920,note_on,,,,,0,0,2,,,0,,,53,72
43920,control_change,,,,,0,0,2,,,0,64,127,,
43920,note_off,,,,,0,0,1,,,0,,,68,64
43920,note_off,,,,,0,0,1,,,0,,,71,64
43920,note_off,,,,,0,0,1,,,0,,,65,64
43920,note_off,,,,,720,0,1,,,0,,,59,64
43920,note_on,,,,,0,0,1,,,0,,,68,88
43920,note_on,,,,,0,0,1,,,0,,,65,88
43920,note_on,,,,,0,0,1,,,0,,,62,88
43920,note_on,,,,,0,0,1,,,0,,,71,88
44000,note_off,,,,,80,0,2,,,0,,,53,64
44000,note_on,,,,,0,0,2,,,0,,,53,77
44080,set_tempo,,,,,400,1,0,631579,,,,,,
44080,note_on,,,,,0,0,2,,,0,,,53,85
44080,note_off,,,,,80,0,2,,,0,,,53,64
44100,set_tempo,,,,,20,1,0,857143,,,,,,
44150,control_change,,,,,70,0,2,,,0,64,0,,
44160,note_on,,,,,0,0,1,,,0,,,65,77
44160,note_off,,,,,240,0,1,,,0,,,62,64
44160,note_off,,,,,0,0,1,,,0,,,68,64
44160,note_off,,,,,0,0,1,,,0,,,50,64
44160,note_off,,,,,0,0,1,,,0,,,71,64
44160,note_off,,,,,0,0,1,,,0,,,41,64
44160,note_off,,,,,0,0,1,,,0,,,65,64
44160,note_on,,,,,0,0,1,,,0,,,68,77
44160,control_change,,,,,0,0,2,,,0,64,127,,
44160,note_on,,,,,0,0,1,,,0,,,62,77
44160,note_off,,,,,10,0,2,,,0,,,53,64
44160,note_on,,,,,0,0,1,,,0,,,71,77
44160,note_on,,,,,0,0,2,,,0,,,53,92
44200,set_tempo,,,,,100,1,0,869565,,,,,,
44240,note_on,,,,,0,0,2,,,0,,,44,66
44240,note_off,,,,,80,0,2,,,0,,,53,64
44260,set_tempo,,,,,60,1,0,666667,,,,,,
44280,set_tempo,,,,,20,1,0,652174,,,,,,
44320,note_off,,,,,80,0,2,,,0,,,44,64
44320,note_on,,,,,0,0,2,,,0,,,44,62
44400,note_off,,,,,80,0,2,,,0,,,44,64
44400,note_on,,,,,0,0,2,,,0,,,44,70
44480,note_off,,,,,80,0,2,,,0,,,44,64
44480,note_on,,,,,0,0,2,,,0,,,44,67
44560,note_off,,,,,80,0,2,,,0,,,44,64
44560,note_on,,,,,0,0,2,,,0,,,44,63
44640,note_off,,,,,80,0,2,,,0,,,44,64
44640,note_on,,,,,0,0,2,,,0,,,44,56
44720,note_off,,,,,80,0,2,,,0,,,44,64
44720,note_on,,,,,0,0,2,,,0,,,44,53
44800,set_tempo,,,,,520,1,0,722892,,,,,,
44800,note_off,,,,,80,0,2,,,0,,,44,64
44800,note_on,,,,,0,0,2,,,0,,,44,53
44870,control_change,,,,,70,0,2,,,0,64,0,,
44880,note_off,,,,,0,0,1,,,0,,,65,64
44880,note_off,,,,,720,0,1,,,0,,,62,64
44880,note_on,,,,,0,0,1,,,0,,,74,86
44880,note_off,,,,,0,0,1,,,0,,,68,64
44880,note_off,,,,,0,0,1,,,0,,,71,64
44880,note_on,,,,,0,0,1,,,0,,,68,86
44880,note_on,,,,,0,0,1,,,0,,,71,86
44880,control_change,,,,,0,0,2,,,0,64,127,,
44880,note_off,,,,,10,0,2,,,0,,,44,64
44880,note_on,,,,,0,0,2,,,0,,,44,57
44880,note_on,,,,,0,0,1,,,0,,,65,86
44960,note_off,,,,,80,0,2,,,0,,,44,64
44960,note_on,,,,,0,0,2,,,0,,,44,67
45020,set_tempo,,,,,220,1,0,740741,,,,,,
45040,note_off,,,,,80,0,2,,,0,,,44,64
45040,note_on,,,,,0,0,2,,,0,,,44,81
45080,set_tempo,,,,,60,1,0,1111111,,,,,,
45110,control_change,,,,,70,0,2,,,0,64,0,,
45120,control_change,,,,,0,0,2,,,0,64,127,,
45120,note_off,,,,,0,0,1,,,0,,,68,64
45120,note_off,,,,,0,0,1,,,0,,,71,64
45120,note_off,,,,,0,0,1,,,0,,,74,64
45120,note_on,,,,,0,0,1,,,0,,,74,114
45120,note_on,,,,,0,0,1,,,0,,,71,114
45120,note_on,,,,,0,0,1,,,0,,,68,114
45120,note_on,,,,,0,0,1,,,0,,,65,114
45120,note_off,,,,,10,0,2,,,0,,,44,64
45120,note_on,,,,,0,0,2,,,0,,,44,106
45120,note_off,,,,,240,0,1,,,0,,,65,64
45200,note_off,,,,,80,0,2,,,0,,,44,64
45200,note_on,,,,,0,0,2,,,0,,,37,88
45200,set_tempo,,,,,120,1,0,789474,,,,,,
45220,set_tempo,,,,,20,1,0,689655,,,,,,
45240,set_tempo,,,,,20,1,0,681818,,,,,,
45260,set_tempo,,,,,20,1,0,674157,,,,,,
45280,note_on,,,,,0,0,2,,,0,,,37,75
45280,note_off,,,,,80,0,2,,,0,,,37,64
45360,note_on,,,,,0,0,2,,,0,,,37,67
45360,note_off,,,,,80,0,2,,,0,,,37,64
45360,set_tempo,,,,,100,1,0,652174,,,,,,
45440,note_on,,,,,0,0,2,,,0,,,37,60
45440,note_off,,,,,80,0,2,,,0,,,37,64
45480,set_tempo,,,,,120,1,0,625000,,,,,,
45520,note_off,,,,,80,0,2,,,0,,,37,64
45520,note_on,,,,,0,0,2,,,0,,,37,59
45600,note_off,,,,,80,0,2,,,0,,,37,64
45600,note_on,,,,,0,0,2,,,0,,,37,71
45600,note_on,,,,,0,0,1,,,0,,,73,81
45600,note_off,,,,,480,0,1,,,0,,,74,64
45600,set_tempo,,,,,120,1,0,810811,,,,,,
45680,note_off,,,,,80,0,2,,,0,,,37,64
45680,note_on,,,,,0,0,2,,,0,,,37,64
45700,set_tempo,,,,,100,1,0,722892,,,,,,
45720,note_off,,,,,0,0,1,,,0,,,71,64
45720,note_off,,,,,0,0,1,,,0,,,68,64
45720,note_off,,,,,0,0,1,,,0,,,65,64
45720,note_off,,,,,120,0,1,,,0,,,73,64
45740,set_tempo,,,,,40,1,0,666667,,,,,,
45760,note_on,,,,,0,0,2,,,0,,,37,71
45760,note_off,,,,,80,0,2,,,0,,,37,64
45820,set_tempo,,,,,80,1,0,631579,,,,,,
45830,control_change,,,,,70,0,2,,,0,64,0,,
45840,note_on,,,,,0,0,1,,,0,,,71,118
45840,note_on,,,,,120,0,1,,,0,,,77,118
45840,note_on,,,,,0,0,1,,,0,,,68,118
45840,note_off,,,,,10,0,2,,,0,,,37,64
45840,note_on,,,,,0,0,2,,,0,,,37,89
45840,note_on,,,,,0,0,1,,,0,,,73,118
45860,set_tempo,,,,,40,1,0,789474,,,,,,
45900,note_off,,,,,60,0,2,,,0,,,37,64
45900,note_on,,,,,0,0,2,,,0,,,35,108
45960,note_off,,,,,0,0,1,,,0,,,77,64
45960,note_off,,,,,60,0,2,,,0,,,35,64
45960,note_off,,,,,120,0,1,,,0,,,68,64
45960,note_on,,,,,0,0,2,,,0,,,33,113
45960,note_off,,,,,0,0,1,,,0,,,71,64
45960,set_tempo,,,,,100,1,0,923077,,,,,,
45960,note_off,,,,,0,0,1,,,0,,,73,64
46000,set_tempo,,,,,40,1,0,983607,,,,,,
46020,note_off,,,,,60,0,2,,,0,,,33,64
46020,note_on,,,,,0,0,2,,,0,,,32,117
46060,set_tempo,,,,,60,1,0,967742,,,,,,
46080,note_on,,,,,0,0,2,,,0,,,30,124
46080,control_change,,,,,0,0,2,,,0,64,127,,
46080,note_off,,,,,60,0,2,,,0,,,32,64
46080,note_on,,,,,120,0,1,,,0,,,78,124
46080,note_on,,,,,0,0,1,,,0,,,73,124
46080,note_on,,,,,0,0,1,,,0,,,69,124
46100,set_tempo,,,,,40,1,0,789474,,,,,,
46160,set_tempo,,,,,60,1,0,705882,,,,,,
46160,note_on,,,,,0,0,1,,,0,,,69,77
46160,note_off,,,,,80,0,1,,,0,,,69,64
46160,note_off,,,,,0,0,1,,,0,,,78,64
46160,note_on,,,,,0,0,1,,,0,,,73,77
46160,note_off,,,,,0,0,1,,,0,,,73,64
46200,note_off,,,,,120,0,2,,,0,,,30,64
46200,set_tempo,,,,,40,1,0,689655,,,,,,
46240,note_off,,,,,80,0,1,,,0,,,69,64
46240,note_off,,,,,0,0,1,,,0,,,73,64
46240,note_on,,,,,0,0,1,,,0,,,73,64
46240,note_on,,,,,0,0,1,,,0,,,69,64
46260,set_tempo,,,,,60,1,0,652174,,,,,,
46280,set_tempo,,,,,20,1,0,631579,,,,,,
46320,note_on,,,,,0,0,1,,,0,,,73,54
46320,note_on,,,,,0,0,1,,,0,,,69,54
46320,note_off,,,,,80,0,1,,,0,,,69,64
46320,note_off,,,,,0,0,1,,,0,,,73,64
46400,note_off,,,,,80,0,1,,,0,,,69,64
46400,note_off,,,,,0,0,1,,,0,,,73,64
46400,note_on,,,,,0,0,1,,,0,,,73,46
46400,note_on,,,,,0,0,1,,,0,,,69,46
46400,set_tempo,,,,,120,1,0,588235,,,,,,
46480,note_on,,,,,0,0,1,,,0,,,69,40
46480,note_on,,,,,0,0,1,,,0,,,73,40
46480,note_off,,,,,0,0,1,,,0,,,73,64
46480,note_off,,,,,80,0,1,,,0,,,69,64
46540,set_tempo,,,,,140,1,0,550459,,,,,,
46560,note_on,,,,,0,0,1,,,0,,,69,39
46560,note_on,,,,,0,0,1,,,0,,,73,39
46560,note_off,,,,,0,0,1,,,0,,,73,64
46560,note_off,,,,,80,0,1,,,0,,,69,64
46640,note_on,,,,,0,0,1,,,0,,,69,36
46640,note_on,,,,,0,0,1,,,0,,,73,36
46640,note_off,,,,,0,0,1,,,0,,,73,64
46640,note_off,,,,,80,0,1,,,0,,,69,64
46660,set_tempo,,,,,120,1,0,545455,,,,,,
46680,set_tempo,,,,,20,1,0,526316,,,,,,
46720,note_on,,,,,0,0,1,,,0,,,73,32
46720,note_on,,,,,0,0,1,,,0,,,69,32
46720,note_off,,,,,80,0,1,,,0,,,69,64
46720,note_off,,,,,0,0,1,,,0,,,73,64
46800,note_on,,,,,46800,0,3,,,0,,,78,42
46800,note_off,,,,,0,0,1,,,0,,,73,64
46800,control_change,,,,,0,0,2,,,0,64,0,,
46800,note_on,,,,,600,0,2,,,0,,,54,44
46800,note_off,,,,,80,0,1,,,0,,,69,64
46800,note_on,,,,,0,0,2,,,0,,,61,44
46840,set_tempo,,,,,160,1,0,517241,,,,,,
46880,note_on,,,,,0,0,1,,,0,,,69,33
46880,note_on,,,,,80,0,1,,,0,,,73,33
46960,note_on,,,,,0,0,1,,,0,,,73,32
46960,note_off,,,,,0,0,1,,,0,,,73,64
46960,note_off,,,,,80,0,1,,,0,,,69,64
46960,note_on,,,,,0,0,1,,,0,,,69,32
46980,note_off,,,,,180,0,3,,,0,,,78,64
46980,note_off,,,,,0,0,2,,,0,,,54,64
46980,note_off,,,,,180,0,2,,,0,,,61,64
47040,note_off,,,,,0,0,1,,,0,,,73,64
47040,note_off,,,,,80,0,1,,,0,,,69,64
47040,note_on,,,,,0,0,2,,,0,,,61,53
47040,note_on,,,,,0,0,2,,,0,,,54,53
47040,note_on,,,,,60,0,3,,,0,,,78,50
47040,control_change,,,,,60,0,2,,,0,64,127,,
47060,set_tempo,,,,,220,1,0,625000,,,,,,
47080,set_tempo,,,,,20,1,0,618557,,,,,,
47120,note_on,,,,,0,0,1,,,0,,,69,38
47120,note_on,,,,,80,0,1,,,0,,,73,38
47120,set_tempo,,,,,40,1,0,582524,,,,,,
47200,note_off,,,,,0,0,1,,,0,,,73,64
47200,note_off,,,,,80,0,1,,,0,,,69,64
47200,note_on,,,,,0,0,1,,,0,,,69,33
47200,note_on,,,,,0,0,1,,,0,,,73,33
47200,set_tempo,,,,,80,1,0,535714,,,,,,
47280,note_off,,,,,240,0,3,,,0,,,78,64
47280,note_on,,,,,0,0,3,,,0,,,81,53
47280,note_off,,,,,80,0,1,,,0,,,69,64
47280,note_off,,,,,0,0,1,,,0,,,73,64
47280,note_on,,,,,0,0,1,,,0,,,73,35
47280,note_on,,,,,0,0,1,,,0,,,69,35
47300,set_tempo,,,,,100,1,0,540541,,,,,,
47360,note_off,,,,,80,0,1,,,0,,,69,64
47360,note_off,,,,,0,0,1,,,0,,,73,64
47360,note_on,,,,,0,0,1,,,0,,,73,34
47360,note_on,,,,,0,0,1,,,0,,,69,34
47400,note_on,,,,,0,0,2,,,0,,,59,44
47400,note_off,,,,,360,0,2,,,0,,,61,64
47440,note_on,,,,,0,0,1,,,0,,,69,32
47440,note_on,,,,,0,0,1,,,0,,,73,32
47440,set_tempo,,,,,140,1,0,526316,,,,,,
47440,note_off,,,,,80,0,1,,,0,,,69,64
47440,note_off,,,,,0,0,1,,,0,,,73,64
47520,note_off,,,,,240,0,3,,,0,,,81,64
47520,note_on,,,,,0,0,3,,,0,,,78,51
47520,note_on,,,,,0,0,2,,,0,,,57,36
47520,note_off,,,,,80,0,1,,,0,,,69,64
47520,note_off,,,,,0,0,1,,,0,,,73,64
47520,note_off,,,,,120,0,2,,,0,,,59,64
47520,control_change,,,,,0,0,2,,,0,64,0,,
47600,note_on,,,,,0,0,1,,,0,,,69,39
47600,note_on,,,,,80,0,1,,,0,,,73,39
47640,note_off,,,,,0,0,2,,,0,,,54,64
47640,note_off,,,,,120,0,2,,,0,,,57,64
47680,note_off,,,,,0,0,1,,,0,,,73,64
47680,note_on,,,,,0,0,1,,,0,,,73,35
47680,note_on,,,,,0,0,1,,,0,,,69,35
47680,note_off,,,,,80,0,1,,,0,,,69,64
47760,note_on,,,,,120,0,2,,,0,,,57,47
47760,note_on,,,,,0,0,2,,,0,,,54,47
47760,note_off,,,,,240,0,3,,,0,,,78,64
47760,note_on,,,,,0,0,3,,,0,,,81,57
47760,note_on,,,,,0,0,1,,,0,,,69,33
47760,note_off,,,,,0,0,1,,,0,,,73,64
47760,note_on,,,,,0,0,1,,,0,,,73,33
47760,note_off,,,,,80,0,1,,,0,,,69,64
47840,note_off,,,,,80,0,1,,,0,,,69,64
47840,note_on,,,,,0,0,1,,,0,,,69,31
47840,note_on,,,,,0,0,1,,,0,,,73,31
47840,note_off,,,,,0,0,1,,,0,,,73,64
47920,note_on,,,,,0,0,1,,,0,,,69,27
47920,note_on,,,,,0,0,1,,,0,,,73,27
47920,note_off,,,,,0,0,1,,,0,,,73,64
47920,note_off,,,,,80,0,1,,,0,,,69,64
47940,note_off,,,,,180,0,2,,,0,,,54,64
47940,note_off,,,,,0,0,2,,,0,,,57,64
47970,note_off,,,,,210,0,3,,,0,,,81,64
48000,note_on,,,,,30,0,3,,,0,,,81,67
48000,control_change,,,,,60,0,2,,,0,64,127,,
48000,note_on,,,,,0,0,2,,,0,,,54,51
48000,note_on,,,,,0,0,2,,,0,,,57,51
48000,note_off,,,,,80,0,1,,,0,,,69,64
48000,note_off,,,,,0,0,1,,,0,,,73,64
48020,set_tempo,,,,,580,1,0,618557,,,,,,
48080,note_on,,,,,0,0,1,,,0,,,73,39
48080,note_on,,,,,80,0,1,,,0,,,78,39
48080,set_tempo,,,,,60,1,0,582524,,,,,,
48140,set_tempo,,,,,60,1,0,550459,,,,,,
48160,note_on,,,,,0,0,1,,,0,,,73,36
48160,note_off,,,,,80,0,1,,,0,,,73,64
48160,note_off,,,,,0,0,1,,,0,,,78,64
48160,note_on,,,,,0,0,1,,,0,,,78,36
48220,set_tempo,,,,,80,1,0,535714,,,,,,
48240,note_on,,,,,0,0,1,,,0,,,78,36
48240,note_off,,,,,0,0,1,,,0,,,78,64
48240,note_off,,,,,80,0,1,,,0,,,73,64
48240,note_on,,,,,0,0,1,,,0,,,73,36
48240,note_on,,,,,0,0,3,,,0,,,85,44
48240,note_off,,,,,240,0,3,,,0,,,81,64
48280,set_tempo,,,,,60,1,0,530973,,,,,,
48320,note_on,,,,,0,0,1,,,0,,,78,34
48320,note_off,,,,,80,0,1,,,0,,,73,64
48320,note_off,,,,,0,0,1,,,0,,,78,64
48320,note_on,,,,,0,0,1,,,0,,,73,34
48360,note_off,,,,,360,0,2,,,0,,,57,64
48360,set_tempo,,,,,80,1,0,512821,,,,,,
48360,note_on,,,,,0,0,2,,,0,,,56,44
48400,note_off,,,,,0,0,1,,,0,,,78,64
48400,note_on,,,,,0,0,1,,,0,,,78,31
48400,note_off,,,,,80,0,1,,,0,,,73,64
48400,note_on,,,,,0,0,1,,,0,,,73,31
48480,note_off,,,,,80,0,1,,,0,,,73,64
48480,note_off,,,,,0,0,1,,,0,,,78,64
48480,note_off,,,,,240,0,3,,,0,,,85,64
48480,note_on,,,,,0,0,3,,,0,,,81,55
48480,note_off,,,,,120,0,2,,,0,,,56,64
48480,note_on,,,,,0,0,2,,,0,,,54,37
48480,control_change,,,,,0,0,2,,,0,64,0,,
48520,set_tempo,,,,,160,1,0,526316,,,,,,
48540,set_tempo,,,,,20,1,0,512821,,,,,,
48560,note_on,,,,,80,0,1,,,0,,,78,36
48560,note_on,,,,,0,0,1,,,0,,,73,36
48600,note_off,,,,,0,0,2,,,0,,,54,64
48600,note_off,,,,,120,0,2,,,0,,,54,64
48640,note_off,,,,,80,0,1,,,0,,,73,64
48640,note_off,,,,,0,0,1,,,0,,,78,64
48640,note_on,,,,,0,0,1,,,0,,,78,34
48640,note_on,,,,,0,0,1,,,0,,,73,34
48700,set_tempo,,,,,160,1,0,540541,,,,,,
48720,note_off,,,,,240,0,3,,,0,,,81,64
48720,note_on,,,,,0,0,1,,,0,,,73,35
48720,note_on,,,,,0,0,3,,,0,,,85,56
48720,note_off,,,,,0,0,1,,,0,,,78,64
48720,note_on,,,,,0,0,1,,,0,,,78,35
48720,note_on,,,,,120,0,2,,,0,,,54,37
48720,note_off,,,,,80,0,1,,,0,,,73,64
48800,note_off,,,,,80,0,1,,,0,,,73,64
48800,note_off,,,,,0,0,1,,,0,,,78,64
48800,note_on,,,,,0,0,1,,,0,,,73,32
48800,note_on,,,,,0,0,1,,,0,,,78,32
48860,set_tempo,,,,,160,1,0,571429,,,,,,
48880,note_off,,,,,80,0,1,,,0,,,73,64
48880,note_off,,,,,0,0,1,,,0,,,78,64
48880,note_on,,,,,0,0,1,,,0,,,78,26
48880,note_on,,,,,0,0,1,,,0,,,73,26
48900,note_off,,,,,180,0,2,,,0,,,54,64
48930,note_off,,,,,210,0,3,,,0,,,85,64
48960,control_change,,,,,30,0,3,,,0,64,127,,
48960,note_on,,,,,0,0,3,,,0,,,73,59
48960,note_off,,,,,0,0,1,,,0,,,78,64
48960,note_off,,,,,80,0,1,,,0,,,73,64
48960,note_on,,,,,60,0,2,,,0,,,54,45
49040,note_on,,,,,80,0,1,,,0,,,69,33
49040,note_on,,,,,0,0,1,,,0,,,66,33
49060,set_tempo,,,,,200,1,0,560748,,,,,,
49120,note_off,,,,,0,0,1,,,0,,,69,64
49120,note_on,,,,,0,0,1,,,0,,,66,36
49120,note_off,,,,,80,0,1,,,0,,,66,64
49120,note_on,,,,,0,0,1,,,0,,,69,36
49140,control_change,,,,,180,0,3,,,0,64,0,,
49200,control_change,,,,,0,0,3,,,0,64,127,,
49200,note_off,,,,,60,0,3,,,0,,,73,64
49200,note_on,,,,,0,0,2,,,0,,,56,42
49200,note_off,,,,,240,0,2,,,0,,,54,64
49200,note_off,,,,,0,0,1,,,0,,,69,64
49200,note_off,,,,,80,0,1,,,0,,,66,64
49200,note_on,,,,,0,0,3,,,0,,,77,51
49280,note_on,,,,,0,0,1,,,0,,,65,39
49280,note_on,,,,,0,0,1,,,0,,,71,39
49280,note_on,,,,,80,0,1,,,0,,,73,39
49360,set_tempo,,,,,300,1,0,535714,,,,,,
49360,note_on,,,,,0,0,1,,,0,,,71,40
49360,note_off,,,,,80,0,1,,,0,,,65,64
49360,note_off,,,,,0,0,1,,,0,,,71,64
49360,note_off,,,,,0,0,1,,,0,,,73,64
49360,note_on,,,,,0,0,1,,,0,,,73,40
49360,note_on,,,,,0,0,1,,,0,,,65,40
49380,control_change,,,,,180,0,3,,,0,64,0,,
49440,note_on,,,,,0,0,2,,,0,,,57,45
49440,note_on,,,,,0,0,3,,,0,,,78,53
49440,note_off,,,,,60,0,3,,,0,,,77,64
49440,note_off,,,,,80,0,1,,,0,,,65,64
49440,note_off,,,,,0,0,1,,,0,,,71,64
49440,note_off,,,,,240,0,2,,,0,,,56,64
49440,control_change,,,,,0,0,3,,,0,64,127,,
49440,note_off,,,,,0,0,1,,,0,,,73,64
49520,note_on,,,,,80,0,1,,,0,,,73,44
49520,note_on,,,,,0,0,1,,,0,,,66,44
49520,set_tempo,,,,,160,1,0,526316,,,,,,
49520,note_on,,,,,0,0,1,,,0,,,69,44
49600,note_off,,,,,80,0,1,,,0,,,66,64
49600,note_off,,,,,0,0,1,,,0,,,69,64
49600,note_on,,,,,0,0,1,,,0,,,69,47
49600,note_off,,,,,0,0,1,,,0,,,73,64
49600,note_on,,,,,0,0,1,,,0,,,73,47
49600,note_on,,,,,0,0,1,,,0,,,66,47
49620,control_change,,,,,180,0,3,,,0,64,0,,
49680,note_off,,,,,240,0,2,,,0,,,57,64
49680,note_on,,,,,0,0,2,,,0,,,59,50
49680,note_on,,,,,0,0,2,,,0,,,52,50
49680,note_on,,,,,0,0,3,,,0,,,80,60
49680,note_off,,,,,0,0,1,,,0,,,69,64
49680,note_off,,,,,0,0,1,,,0,,,73,64
49680,control_change,,,,,0,0,3,,,0,64,127,,
49680,note_off,,,,,80,0,1,,,0,,,66,64
49680,note_off,,,,,60,0,3,,,0,,,78,64
49760,note_on,,,,,0,0,1,,,0,,,68,50
49760,note_on,,,,,80,0,1,,,0,,,76,50
49760,note_on,,,,,0,0,1,,,0,,,74,50
49760,set_tempo,,,,,240,1,0,508475,,,,,,
49840,note_off,,,,,0,0,1,,,0,,,74,64
49840,note_on,,,,,0,0,1,,,0,,,68,52
49840,note_on,,,,,0,0,1,,,0,,,74,52
49840,note_on,,,,,0,0,1,,,0,,,76,52
49840,note_off,,,,,0,0,1,,,0,,,76,64
49840,note_off,,,,,80,0,1,,,0,,,68,64
49860,control_change,,,,,180,0,3,,,0,64,0,,
49920,note_off,,,,,0,0,1,,,0,,,76,64
49920,note_off,,,,,0,0,1,,,0,,,74,64
49920,note_off,,,,,80,0,1,,,0,,,68,64
49920,note_off,,,,,0,0,2,,,0,,,59,64
49920,note_off,,,,,60,0,3,,,0,,,80,64
49920,note_on,,,,,0,0,3,,,0,,,81,70
49920,note_on,,,,,0,0,2,,,0,,,61,56
49920,note_on,,,,,0,0,2,,,0,,,57,56
49920,note_off,,,,,240,0,2,,,0,,,52,64
49920,control_change,,,,,0,0,3,,,0,64,127,,
49960,set_tempo,,,,,200,1,0,495868,,,,,,
50000,note_on,,,,,80,0,1,,,0,,,76,52
50000,note_on,,,,,0,0,1,,,0,,,73,52
50000,note_on,,,,,0,0,1,,,0,,,69,52
50080,note_off,,,,,80,0,1,,,0,,,69,64
50080,note_off,,,,,0,0,1,,,0,,,76,64
50080,note_on,,,,,0,0,1,,,0,,,76,53
50080,note_on,,,,,0,0,1,,,0,,,73,53
50080,note_on,,,,,0,0,1,,,0,,,69,53
50080,note_off,,,,,0,0,1,,,0,,,73,64
50100,control_change,,,,,180,0,3,,,0,64,0,,
50100,note_off,,,,,180,0,2,,,0,,,61,64
50100,note_off,,,,,0,0,2,,,0,,,57,64
50160,note_off,,,,,60,0,3,,,0,,,81,64
50160,note_off,,,,,80,0,1,,,0,,,69,64
50160,note_off,,,,,0,0,1,,,0,,,73,64
50160,note_off,,,,,0,0,1,,,0,,,76,64
50160,note_on,,,,,0,0,3,,,0,,,83,78
50160,note_on,,,,,0,0,2,,,0,,,61,47
50160,control_change,,,,,0,0,3,,,0,64,127,,
50160,note_on,,,,,60,0,2,,,0,,,56,47
50240,note_on,,,,,0,0,1,,,0,,,73,54
50240,note_on,,,,,80,0,1,,,0,,,77,54
50240,note_on,,,,,0,0,1,,,0,,,71,54
50320,note_off,,,,,0,0,1,,,0,,,77,64
50320,note_off,,,,,80,0,1,,,0,,,71,64
50320,note_on,,,,,0,0,1,,,0,,,71,55
50320,note_on,,,,,0,0,1,,,0,,,73,55
50320,note_on,,,,,0,0,1,,,0,,,77,55
50320,note_off,,,,,0,0,1,,,0,,,73,64
50340,control_change,,,,,180,0,3,,,0,64,0,,
50340,note_off,,,,,180,0,2,,,0,,,61,64
50340,note_off,,,,,0,0,2,,,0,,,56,64
50400,control_change,,,,,0,0,3,,,0,64,127,,
50400,note_off,,,,,0,0,1,,,0,,,77,64
50400,note_off,,,,,0,0,1,,,0,,,73,64
50400,note_on,,,,,60,0,2,,,0,,,54,54
50400,note_on,,,,,0,0,2,,,0,,,61,54
50400,note_on,,,,,0,0,3,,,0,,,81,74
50400,note_off,,,,,80,0,1,,,0,,,71,64
50400,note_off,,,,,60,0,3,,,0,,,83,64
50400,control_change,,,,,0,0,3,,,0,64,127,,
50480,note_on,,,,,0,0,1,,,0,,,73,56
50480,note_on,,,,,80,0,1,,,0,,,78,56
50480,note_on,,,,,0,0,1,,,0,,,69,56
50560,note_off,,,,,0,0,1,,,0,,,73,64
50560,note_on,,,,,0,0,1,,,0,,,69,56
50560,note_on,,,,,0,0,1,,,0,,,73,56
50560,note_on,,,,,0,0,1,,,0,,,78,56
50560,note_off,,,,,80,0,1,,,0,,,69,64
50560,note_off,,,,,0,0,1,,,0,,,78,64
50580,control_change,,,,,180,0,3,,,0,64,0,,
50580,note_off,,,,,0,0,2,,,0,,,54,64
50580,note_off,,,,,180,0,2,,,0,,,61,64
50640,control_change,,,,,0,0,3,,,0,64,127,,
50640,note_on,,,,,0,0,3,,,0,,,80,81
50640,note_off,,,,,60,0,3,,,0,,,81,64
50640,note_off,,,,,80,0,1,,,0,,,69,64
50640,note_off,,,,,0,0,1,,,0,,,78,64
50640,note_on,,,,,60,0,2,,,0,,,62,60
50640,control_change,,,,,0,0,3,,,0,64,127,,
50640,note_on,,,,,0,0,2,,,0,,,52,60
50640,note_off,,,,,0,0,1,,,0,,,73,64
50720,note_on,,,,,0,0,1,,,0,,,68,58
50720,note_on,,,,,0,0,1,,,0,,,71,58
50720,note_on,,,,,80,0,1,,,0,,,76,58
50800,note_off,,,,,80,0,1,,,0,,,68,64
50800,note_off,,,,,0,0,1,,,0,,,76,64
50800,note_off,,,,,0,0,1,,,0,,,71,64
50800,note_on,,,,,0,0,1,,,0,,,76,58
50800,note_on,,,,,0,0,1,,,0,,,68,58
50800,note_on,,,,,0,0,1,,,0,,,71,58
50820,control_change,,,,,180,0,3,,,0,64,0,,
50880,note_on,,,,,0,0,2,,,0,,,52,68
50880,note_on,,,,,0,0,2,,,0,,,62,68
50880,control_change,,,,,0,0,3,,,0,64,127,,
50880,note_on,,,,,0,0,3,,,0,,,80,86
50880,note_off,,,,,0,0,2,,,0,,,62,64
50880,note_off,,,,,60,0,3,,,0,,,80,64
50880,note_off,,,,,0,0,1,,,0,,,76,64
50880,note_off,,,,,0,0,1,,,0,,,71,64
50880,note_off,,,,,80,0,1,,,0,,,68,64
50880,note_off,,,,,240,0,2,,,0,,,52,64
50960,note_on,,,,,80,0,1,,,0,,,76,59
50960,note_on,,,,,0,0,1,,,0,,,71,59
50960,note_on,,,,,0,0,1,,,0,,,68,59
50960,set_tempo,,,,,1000,1,0,526316,,,,,,
51040,note_on,,,,,0,0,1,,,0,,,71,55
51040,note_off,,,,,80,0,1,,,0,,,68,64
51040,note_off,,,,,0,0,1,,,0,,,71,64
51040,note_off,,,,,0,0,1,,,0,,,76,64
51040,note_on,,,,,0,0,1,,,0,,,68,55
51040,note_on,,,,,0,0,1,,,0,,,76,55
51080,set_tempo,,,,,120,1,0,540541,,,,,,
51100,set_tempo,,,,,20,1,0,545455,,,,,,
51120,note_on,,,,,0,0,1,,,0,,,76,52
51120,note_off,,,,,0,0,1,,,0,,,71,64
51120,note_off,,,,,0,0,1,,,0,,,76,64
51120,note_on,,,,,0,0,1,,,0,,,71,52
51120,note_on,,,,,0,0,1,,,0,,,68,52
51120,note_off,,,,,80,0,1,,,0,,,68,64
51200,note_off,,,,,0,0,1,,,0,,,71,64
51200,note_off,,,,,0,0,1,,,0,,,76,64
51200,note_on,,,,,0,0,1,,,0,,,76,48
51200,note_on,,,,,0,0,1,,,0,,,71,48
51200,note_on,,,,,0,0,1,,,0,,,68,48
51200,note_off,,,,,80,0,1,,,0,,,68,64
51220,set_tempo,,,,,120,1,0,571429,,,,,,
51280,note_off,,,,,0,0,1,,,0,,,71,64
51280,note_off,,,,,0,0,1,,,0,,,76,64
51280,note_on,,,,,0,0,1,,,0,,,76,45
51280,note_on,,,,,0,0,1,,,0,,,71,45
51280,note_on,,,,,0,0,1,,,0,,,68,45
51280,note_off,,,,,80,0,1,,,0,,,68,64
51300,control_change,,,,,420,0,3,,,0,64,0,,
51360,note_off,,,,,480,0,2,,,0,,,62,64
51360,note_on,,,,,0,0,2,,,0,,,61,55
51360,note_off,,,,,60,0,3,,,0,,,80,64
51360,control_change,,,,,0,0,3,,,0,64,127,,
51360,control_change,,,,,0,0,3,,,0,64,127,,
51360,note_on,,,,,0,0,3,,,0,,,80,64
51360,note_off,,,,,0,0,2,,,0,,,52,64
51360,note_off,,,,,0,0,1,,,0,,,76,64
51360,note_off,,,,,0,0,1,,,0,,,71,64
51360,note_off,,,,,80,0,1,,,0,,,68,64
51360,note_on,,,,,0,0,2,,,0,,,53,55
51420,set_tempo,,,,,200,1,0,618557,,,,,,
51440,note_on,,,,,0,0,1,,,0,,,71,39
51440,note_on,,,,,80,0,1,,,0,,,73,39
51440,note_on,,,,,0,0,1,,,0,,,68,39
51520,note_on,,,,,0,0,1,,,0,,,73,36
51520,note_on,,,,,0,0,1,,,0,,,71,36
51520,note_off,,,,,0,0,1,,,0,,,73,64
51520,note_off,,,,,0,0,1,,,0,,,71,64
51520,note_off,,,,,80,0,1,,,0,,,68,64
51520,note_on,,,,,0,0,1,,,0,,,68,36
51540,note_off,,,,,180,0,2,,,0,,,61,64
51540,note_off,,,,,0,0,2,,,0,,,53,64
51540,control_change,,,,,180,0,3,,,0,64,0,,
51580,set_tempo,,,,,160,1,0,645161,,,,,,
51600,control_change,,,,,0,0,3,,,0,64,127,,
51600,note_on,,,,,0,0,2,,,0,,,61,52
51600,note_on,,,,,0,0,3,,,0,,,81,49
51600,control_change,,,,,0,0,3,,,0,64,127,,
51600,note_off,,,,,60,0,3,,,0,,,80,64
51600,note_off,,,,,0,0,1,,,0,,,73,64
51600,note_off,,,,,0,0,1,,,0,,,71,64
51600,note_off,,,,,80,0,1,,,0,,,68,64
51600,note_on,,,,,60,0,2,,,0,,,54,52
51660,set_tempo,,,,,80,1,0,705882,,,,,,
51680,note_on,,,,,0,0,1,,,0,,,69,27
51680,note_on,,,,,80,0,1,,,0,,,73,27
51720,set_tempo,,,,,60,1,0,779221,,,,,,
51760,note_on,,,,,0,0,1,,,0,,,69,23
51760,note_off,,,,,0,0,1,,,0,,,73,64
51760,note_off,,,,,80,0,1,,,0,,,69,64
51760,note_on,,,,,0,0,1,,,0,,,73,23
51780,note_off,,,,,180,0,2,,,0,,,61,64
51780,note_off,,,,,0,0,2,,,0,,,54,64
51780,set_tempo,,,,,60,1,0,789474,,,,,,
51780,note_off,,,,,180,0,3,,,0,,,81,64
51780,control_change,,,,,0,0,3,,,0,64,0,,
51820,set_tempo,,,,,40,1,0,618557,,,,,,
51840,note_on,,,,,0,0,2,,,0,,,54,53
51840,control_change,,,,,60,0,2,,,0,64,127,,
51840,note_on,,,,,0,0,2,,,0,,,61,53
51840,note_off,,,,,0,0,1,,,0,,,73,64
51840,note_off,,,,,80,0,1,,,0,,,69,64
51840,note_on,,,,,60,0,3,,,0,,,78,45
51920,set_tempo,,,,,100,1,0,612245,,,,,,
51920,note_on,,,,,0,0,1,,,0,,,73,38
51920,note_on,,,,,80,0,1,,,0,,,69,38
51940,set_tempo,,,,,20,1,0,576923,,,,,,
52000,note_on,,,,,0,0,1,,,0,,,73,33
52000,note_on,,,,,0,0,1,,,0,,,69,33
52000,note_off,,,,,0,0,1,,,0,,,69,64
52000,note_off,,,,,80,0,1,,,0,,,73,64
52020,set_tempo,,,,,80,1,0,540541,,,,,,
52080,note_on,,,,,0,0,3,,,0,,,81,43
52080,note_on,,,,,0,0,1,,,0,,,73,35
52080,note_on,,,,,0,0,1,,,0,,,69,35
52080,note_off,,,,,0,0,1,,,0,,,69,64
52080,note_off,,,,,240,0,3,,,0,,,78,64
52080,note_off,,,,,80,0,1,,,0,,,73,64
52120,set_tempo,,,,,100,1,0,535714,,,,,,
52160,note_on,,,,,0,0,1,,,0,,,69,34
52160,note_on,,,,,0,0,1,,,0,,,73,34
52160,note_off,,,,,0,0,1,,,0,,,69,64
52160,note_off,,,,,80,0,1,,,0,,,73,64
52160,set_tempo,,,,,40,1,0,526316,,,,,,
52200,note_off,,,,,360,0,2,,,0,,,61,64
52200,note_on,,,,,0,0,2,,,0,,,59,45
52240,note_off,,,,,80,0,1,,,0,,,73,64
52240,note_off,,,,,0,0,1,,,0,,,69,64
52240,note_on,,,,,0,0,1,,,0,,,69,32
52240,note_on,,,,,0,0,1,,,0,,,73,32
52320,note_off,,,,,240,0,3,,,0,,,81,64
52320,control_change,,,,,0,0,2,,,0,64,0,,
52320,note_off,,,,,120,0,2,,,0,,,59,64
52320,note_off,,,,,80,0,1,,,0,,,73,64
52320,note_off,,,,,0,0,1,,,0,,,69,64
52320,note_on,,,,,0,0,2,,,0,,,57,34
52320,note_on,,,,,0,0,3,,,0,,,78,51
52400,note_on,,,,,80,0,1,,,0,,,69,39
52400,note_on,,,,,0,0,1,,,0,,,73,39
52440,note_off,,,,,120,0,2,,,0,,,57,64
52440,note_off,,,,,0,0,2,,,0,,,54,64
52480,note_on,,,,,0,0,1,,,0,,,69,35
52480,note_on,,,,,0,0,1,,,0,,,73,35
52480,note_off,,,,,80,0,1,,,0,,,73,64
52480,note_off,,,,,0,0,1,,,0,,,69,64
52560,note_on,,,,,0,0,3,,,0,,,81,57
52560,note_off,,,,,240,0,3,,,0,,,78,64
52560,note_on,,,,,0,0,1,,,0,,,73,33
52560,note_off,,,,,0,0,1,,,0,,,73,64
52560,note_off,,,,,80,0,1,,,0,,,69,64
52560,note_on,,,,,120,0,2,,,0,,,57,47
52560,note_on,,,,,0,0,2,,,0,,,54,47
52560,note_on,,,,,0,0,1,,,0,,,69,33
52640,note_off,,,,,80,0,1,,,0,,,69,64
52640,note_on,,,,,0,0,1,,,0,,,73,31
52640,note_on,,,,,0,0,1,,,0,,,69,31
52640,note_off,,,,,0,0,1,,,0,,,73,64
52720,note_on,,,,,0,0,1,,,0,,,69,27
52720,note_on,,,,,0,0,1,,,0,,,73,27
52720,note_off,,,,,0,0,1,,,0,,,69,64
52720,note_off,,,,,80,0,1,,,0,,,73,64
52740,note_off,,,,,180,0,2,,,0,,,54,64
52740,note_off,,,,,0,0,2,,,0,,,57,64
52770,note_off,,,,,210,0,3,,,0,,,81,64
52800,note_off,,,,,0,0,1,,,0,,,73,64
52800,note_off,,,,,80,0,1,,,0,,,69,64
52800,note_on,,,,,0,0,2,,,0,,,57,55
52800,note_on,,,,,30,0,3,,,0,,,81,56
52800,control_change,,,,,60,0,2,,,0,64,127,,
52800,note_on,,,,,0,0,2,,,0,,,54,55
52820,set_tempo,,,,,660,1,0,612245,,,,,,
52840,set_tempo,,,,,20,1,0,606061,,,,,,
52880,note_on,,,,,80,0,1,,,0,,,78,39
52880,note_on,,,,,0,0,1,,,0,,,73,39
52900,set_tempo,,,,,60,1,0,566038,,,,,,
52960,note_on,,,,,0,0,1,,,0,,,73,36
52960,note_on,,,,,0,0,1,,,0,,,78,36
52960,note_off,,,,,0,0,1,,,0,,,78,64
52960,note_off,,,,,80,0,1,,,0,,,73,64
53040,note_on,,,,,0,0,1,,,0,,,73,36
53040,note_on,,,,,0,0,3,,,0,,,85,48
53040,note_off,,,,,240,0,3,,,0,,,81,64
53040,note_on,,,,,0,0,1,,,0,,,78,36
53040,note_off,,,,,0,0,1,,,0,,,78,64
53040,set_tempo,,,,,140,1,0,535714,,,,,,
53040,note_off,,,,,80,0,1,,,0,,,73,64
53120,set_tempo,,,,,80,1,0,512821,,,,,,
53120,note_off,,,,,0,0,1,,,0,,,73,64
53120,note_on,,,,,0,0,1,,,0,,,78,34
53120,note_on,,,,,0,0,1,,,0,,,73,34
53120,note_off,,,,,80,0,1,,,0,,,78,64
53160,note_on,,,,,0,0,2,,,0,,,56,45
53160,note_off,,,,,360,0,2,,,0,,,57,64
53200,note_off,,,,,80,0,1,,,0,,,73,64
53200,note_off,,,,,0,0,1,,,0,,,78,64
53200,note_on,,,,,0,0,1,,,0,,,78,31
53200,note_on,,,,,0,0,1,,,0,,,73,31
53280,note_off,,,,,0,0,1,,,0,,,78,64
53280,note_off,,,,,80,0,1,,,0,,,73,64
53280,control_change,,,,,0,0,2,,,0,64,0,,
53280,note_on,,,,,0,0,2,,,0,,,54,38
53280,note_off,,,,,120,0,2,,,0,,,56,64
53280,set_tempo,,,,,160,1,0,517241,,,,,,
53280,note_on,,,,,0,0,3,,,0,,,81,50
53280,note_off,,,,,240,0,3,,,0,,,85,64
53360,note_on,,,,,0,0,1,,,0,,,73,36
53360,note_on,,,,,80,0,1,,,0,,,78,36
53400,note_off,,,,,120,0,2,,,0,,,54,64
53400,note_off,,,,,0,0,2,,,0,,,54,64
53440,note_on,,,,,0,0,1,,,0,,,73,34
53440,note_on,,,,,0,0,1,,,0,,,78,34
53440,note_off,,,,,80,0,1,,,0,,,73,64
53440,note_off,,,,,0,0,1,,,0,,,78,64
53500,set_tempo,,,,,220,1,0,540541,,,,,,
53520,note_on,,,,,0,0,1,,,0,,,78,35
53520,note_off,,,,,240,0,3,,,0,,,81,64
53520,note_on,,,,,0,0,3,,,0,,,85,55
53520,note_on,,,,,0,0,1,,,0,,,73,35
53520,note_off,,,,,0,0,1,,,0,,,78,64
53520,note_on,,,,,120,0,2,,,0,,,54,51
53520,note_off,,,,,80,0,1,,,0,,,73,64
53600,note_on,,,,,0,0,1,,,0,,,78,32
53600,note_on,,,,,0,0,1,,,0,,,73,32
53600,note_off,,,,,0,0,1,,,0,,,78,64
53600,note_off,,,,,80,0,1,,,0,,,73,64
53660,set_tempo,,,,,160,1,0,566038,,,,,,
53680,note_off,,,,,80,0,1,,,0,,,78,64
53680,note_off,,,,,0,0,1,,,0,,,73,64
53680,note_on,,,,,0,0,1,,,0,,,78,26
53680,note_on,,,,,0,0,1,,,0,,,73,26
53700,note_off,,,,,180,0,2,,,0,,,54,64
53730,note_off,,,,,210,0,3,,,0,,,85,64
53760,note_on,,,,,60,0,2,,,0,,,54,57
53760,control_change,,,,,0,0,2,,,0,64,127,,
53760,note_on,,,,,30,0,3,,,0,,,73,58
53760,note_off,,,,,80,0,1,,,0,,,73,64
53760,note_off,,,,,0,0,1,,,0,,,78,64
53840,note_on,,,,,0,0,1,,,0,,,69,33
53840,note_on,,,,,80,0,1,,,0,,,66,33
53920,note_on,,,,,0,0,1,,,0,,,66,36
53920,note_off,,,,,0,0,1,,,0,,,66,64
53920,note_on,,,,,0,0,1,,,0,,,69,36
53920,note_off,,,,,80,0,1,,,0,,,69,64
53940,control_change,,,,,180,0,2,,,0,64,0,,
54000,note_on,,,,,0,0,3,,,0,,,77,53
54000,note_off,,,,,240,0,3,,,0,,,73,64
54000,note_off,,,,,60,0,2,,,0,,,54,64
54000,note_off,,,,,80,0,1,,,0,,,69,64
54000,control_change,,,,,0,0,2,,,0,64,127,,
54000,note_on,,,,,0,0,2,,,0,,,56,61
54000,note_off,,,,,0,0,1,,,0,,,66,64
54040,set_tempo,,,,,380,1,0,540541,,,,,,
54080,note_on,,,,,80,0,1,,,0,,,65,39
54080,note_on,,,,,0,0,1,,,0,,,71,39
54080,note_on,,,,,0,0,1,,,0,,,73,39
54160,note_on,,,,,0,0,1,,,0,,,71,40
54160,note_on,,,,,0,0,1,,,0,,,73,40
54160,note_off,,,,,80,0,1,,,0,,,73,64
54160,note_off,,,,,0,0,1,,,0,,,71,64
54160,note_off,,,,,0,0,1,,,0,,,65,64
54160,note_on,,,,,0,0,1,,,0,,,65,40
54180,control_change,,,,,180,0,2,,,0,64,0,,
54240,control_change,,,,,0,0,2,,,0,64,127,,
54240,note_off,,,,,0,0,1,,,0,,,65,64
54240,note_on,,,,,0,0,3,,,0,,,78,53
54240,note_off,,,,,240,0,3,,,0,,,77,64
54240,note_off,,,,,0,0,1,,,0,,,71,64
54240,note_off,,,,,80,0,1,,,0,,,73,64
54240,note_off,,,,,60,0,2,,,0,,,56,64
54240,note_on,,,,,0,0,2,,,0,,,57,63
54280,set_tempo,,,,,240,1,0,526316,,,,,,
54320,note_on,,,,,0,0,1,,,0,,,69,41
54320,note_on,,,,,0,0,1,,,0,,,73,41
54320,note_on,,,,,80,0,1,,,0,,,66,41
54400,note_on,,,,,0,0,1,,,0,,,69,44
54400,note_off,,,,,0,0,1,,,0,,,66,64
54400,note_off,,,,,80,0,1,,,0,,,73,64
54400,note_on,,,,,0,0,1,,,0,,,73,44
54400,note_on,,,,,0,0,1,,,0,,,66,44
54400,note_off,,,,,0,0,1,,,0,,,69,64
54420,control_change,,,,,180,0,2,,,0,64,0,,
54420,set_tempo,,,,,140,1,0,517241,,,,,,
54480,note_on,,,,,0,0,2,,,0,,,59,65
54480,note_off,,,,,0,0,1,,,0,,,66,64
54480,note_off,,,,,0,0,1,,,0,,,69,64
54480,note_off,,,,,80,0,1,,,0,,,73,64
54480,note_on,,,,,0,0,2,,,0,,,52,65
54480,control_change,,,,,0,0,2,,,0,64,127,,
54480,note_on,,,,,0,0,3,,,0,,,80,60
54480,note_off,,,,,240,0,3,,,0,,,78,64
54480,note_off,,,,,60,0,2,,,0,,,57,64
54560,note_on,,,,,0,0,1,,,0,,,68,53
54560,note_on,,,,,0,0,1,,,0,,,76,53
54560,note_on,,,,,80,0,1,,,0,,,74,53
54620,set_tempo,,,,,200,1,0,500000,,,,,,
54640,note_on,,,,,0,0,1,,,0,,,74,58
54640,note_on,,,,,0,0,1,,,0,,,76,58
54640,note_on,,,,,0,0,1,,,0,,,68,58
54640,note_off,,,,,0,0,1,,,0,,,74,64
54640,note_off,,,,,80,0,1,,,0,,,68,64
54640,note_off,,,,,0,0,1,,,0,,,76,64
54660,control_change,,,,,180,0,2,,,0,64,0,,
54720,note_on,,,,,0,0,2,,,0,,,57,74
54720,note_off,,,,,240,0,3,,,0,,,80,64
54720,note_on,,,,,0,0,3,,,0,,,81,70
54720,note_off,,,,,0,0,2,,,0,,,52,64
54720,note_off,,,,,60,0,2,,,0,,,59,64
54720,note_off,,,,,80,0,1,,,0,,,74,64
54720,note_off,,,,,0,0,1,,,0,,,76,64
54720,note_off,,,,,0,0,1,,,0,,,68,64
54720,control_change,,,,,0,0,2,,,0,64,127,,
54720,note_on,,,,,0,0,2,,,0,,,61,74
54800,note_on,,,,,80,0,1,,,0,,,73,61
54800,note_on,,,,,0,0,1,,,0,,,76,61
54800,note_on,,,,,0,0,1,,,0,,,69,61
54880,note_on,,,,,0,0,1,,,0,,,69,59
54880,note_on,,,,,0,0,1,,,0,,,73,59
54880,note_off,,,,,0,0,1,,,0,,,73,64
54880,note_off,,,,,80,0,1,,,0,,,69,64
54880,note_off,,,,,0,0,1,,,0,,,76,64
54880,note_on,,,,,0,0,1,,,0,,,76,59
54900,control_change,,,,,0,0,2,,,0,64,0,,
54900,note_off,,,,,0,0,2,,,0,,,61,64
54900,note_off,,,,,180,0,2,,,0,,,57,64
54960,note_on,,,,,60,0,2,,,0,,,56,67
54960,note_off,,,,,240,0,3,,,0,,,81,64
54960,note_off,,,,,0,0,1,,,0,,,76,64
54960,note_off,,,,,0,0,1,,,0,,,69,64
54960,note_off,,,,,80,0,1,,,0,,,73,64
54960,control_change,,,,,0,0,2,,,0,64,127,,
54960,note_on,,,,,0,0,3,,,0,,,83,70
54960,note_on,,,,,0,0,2,,,0,,,61,67
55020,set_tempo,,,,,400,1,0,480000,,,,,,
55040,note_on,,,,,0,0,1,,,0,,,77,58
55040,note_on,,,,,0,0,1,,,0,,,71,58
55040,note_on,,,,,80,0,1,,,0,,,73,58
55100,set_tempo,,,,,80,1,0,483871,,,,,,
55120,note_on,,,,,0,0,1,,,0,,,73,54
55120,note_off,,,,,80,0,1,,,0,,,77,64
55120,note_off,,,,,0,0,1,,,0,,,71,64
55120,note_off,,,,,0,0,1,,,0,,,73,64
55120,note_on,,,,,0,0,1,,,0,,,71,54
55120,note_on,,,,,0,0,1,,,0,,,77,54
55140,control_change,,,,,0,0,2,,,0,64,0,,
55140,note_off,,,,,0,0,2,,,0,,,56,64
55140,note_off,,,,,180,0,2,,,0,,,61,64
55200,note_on,,,,,0,0,2,,,0,,,61,58
55200,note_off,,,,,240,0,3,,,0,,,83,64
55200,note_off,,,,,0,0,1,,,0,,,71,64
55200,note_on,,,,,60,0,2,,,0,,,54,58
55200,note_off,,,,,0,0,1,,,0,,,73,64
55200,note_on,,,,,0,0,3,,,0,,,81,68
55200,control_change,,,,,0,0,2,,,0,64,127,,
55200,note_off,,,,,80,0,1,,,0,,,77,64
55200,control_change,,,,,0,0,2,,,0,64,127,,
55280,note_on,,,,,80,0,1,,,0,,,73,53
55280,note_on,,,,,0,0,1,,,0,,,69,53
55280,note_on,,,,,0,0,1,,,0,,,78,53
55360,note_off,,,,,0,0,1,,,0,,,73,64
55360,note_on,,,,,0,0,1,,,0,,,78,52
55360,note_on,,,,,0,0,1,,,0,,,69,52
55360,note_on,,,,,0,0,1,,,0,,,73,52
55360,note_off,,,,,0,0,1,,,0,,,69,64
55360,note_off,,,,,80,0,1,,,0,,,78,64
55380,note_off,,,,,180,0,2,,,0,,,61,64
55380,note_off,,,,,0,0,2,,,0,,,54,64
55380,control_change,,,,,0,0,2,,,0,64,0,,
55440,control_change,,,,,0,0,2,,,0,64,127,,
55440,note_on,,,,,0,0,3,,,0,,,80,62
55440,note_on,,,,,60,0,2,,,0,,,52,58
55440,note_on,,,,,0,0,2,,,0,,,62,58
55440,note_off,,,,,80,0,1,,,0,,,78,64
55440,control_change,,,,,0,0,2,,,0,64,127,,
55440,note_off,,,,,0,0,1,,,0,,,69,64
55440,note_off,,,,,0,0,1,,,0,,,73,64
55440,note_off,,,,,240,0,3,,,0,,,81,64
55480,set_tempo,,,,,380,1,0,508475,,,,,,
55520,note_on,,,,,80,0,1,,,0,,,76,50
55520,note_on,,,,,0,0,1,,,0,,,68,50
55520,note_on,,,,,0,0,1,,,0,,,71,50
55600,note_on,,,,,0,0,1,,,0,,,76,49
55600,note_off,,,,,80,0,1,,,0,,,71,64
55600,note_off,,,,,0,0,1,,,0,,,68,64
55600,note_off,,,,,0,0,1,,,0,,,76,64
55600,note_on,,,,,0,0,1,,,0,,,68,49
55600,note_on,,,,,0,0,1,,,0,,,71,49
55620,control_change,,,,,180,0,2,,,0,64,0,,
55680,note_off,,,,,60,0,2,,,0,,,62,64
55680,control_change,,,,,0,0,2,,,0,64,127,,
55680,note_on,,,,,0,0,3,,,0,,,80,61
55680,note_off,,,,,240,0,3,,,0,,,80,64
55680,note_off,,,,,0,0,2,,,0,,,52,64
55680,note_on,,,,,0,0,2,,,0,,,62,58
55680,note_off,,,,,80,0,1,,,0,,,71,64
55680,note_off,,,,,0,0,1,,,0,,,68,64
55680,note_off,,,,,0,0,1,,,0,,,76,64
55680,note_on,,,,,0,0,2,,,0,,,52,58
55760,note_on,,,,,80,0,1,,,0,,,71,47
55760,note_on,,,,,0,0,1,,,0,,,76,47
55760,note_on,,,,,0,0,1,,,0,,,68,47
55760,set_tempo,,,,,280,1,0,526316,,,,,,
55840,note_off,,,,,80,0,1,,,0,,,68,64
55840,note_off,,,,,0,0,1,,,0,,,76,64
55840,note_off,,,,,0,0,1,,,0,,,71,64
55840,note_on,,,,,0,0,1,,,0,,,71,40
55840,note_on,,,,,0,0,1,,,0,,,76,40
55840,note_on,,,,,0,0,1,,,0,,,68,40
55920,note_on,,,,,0,0,1,,,0,,,68,35
55920,note_off,,,,,80,0,1,,,0,,,68,64
55920,note_off,,,,,0,0,1,,,0,,,76,64
55920,note_off,,,,,0,0,1,,,0,,,71,64
55920,note_on,,,,,0,0,1,,,0,,,76,35
55920,note_on,,,,,0,0,1,,,0,,,71,35
55940,set_tempo,,,,,180,1,0,540541,,,,,,
56000,note_on,,,,,0,0,1,,,0,,,68,31
56000,note_off,,,,,0,0,1,,,0,,,76,64
56000,note_on,,,,,0,0,1,,,0,,,76,31
56000,note_on,,,,,0,0,1,,,0,,,71,31
56000,note_off,,,,,0,0,1,,,0,,,68,64
56000,note_off,,,,,80,0,1,,,0,,,71,64
56020,set_tempo,,,,,80,1,0,571429,,,,,,
56080,note_on,,,,,0,0,1,,,0,,,71,28
56080,note_on,,,,,0,0,1,,,0,,,68,28
56080,note_off,,,,,0,0,1,,,0,,,71,64
56080,note_off,,,,,80,0,1,,,0,,,68,64
56080,note_on,,,,,0,0,1,,,0,,,76,28
56080,note_off,,,,,0,0,1,,,0,,,76,64
56100,control_change,,,,,420,0,2,,,0,64,0,,
56160,note_off,,,,,0,0,2,,,0,,,62,64
56160,note_off,,,,,60,0,2,,,0,,,52,64
56160,note_off,,,,,480,0,3,,,0,,,80,64
56160,note_on,,,,,0,0,1,,,0,,,73,26
56160,note_on,,,,,0,0,2,,,0,,,61,36
56160,control_change,,,,,0,0,2,,,0,64,127,,
56160,control_change,,,,,0,0,2,,,0,64,127,,
56160,note_on,,,,,0,0,2,,,0,,,57,36
56160,note_on,,,,,0,0,1,,,0,,,76,26
56160,note_on,,,,,0,0,3,,,0,,,81,34
56160,note_on,,,,,0,0,1,,,0,,,69,26
56160,note_off,,,,,80,0,1,,,0,,,76,64
56160,note_off,,,,,0,0,1,,,0,,,71,64
56160,note_off,,,,,0,0,1,,,0,,,68,64
56220,set_tempo,,,,,200,1,0,588235,,,,,,
56224,note_off,,,,,0,0,2,,,0,,,57,64
56224,note_off,,,,,64,0,2,,,0,,,61,64
56240,note_on,,,,,16,0,2,,,0,,,64,48
56240,set_tempo,,,,,20,1,0,740741,,,,,,
56280,note_off,,,,,0,0,1,,,0,,,73,64
56280,note_off,,,,,0,0,1,,,0,,,69,64
56280,note_off,,,,,120,0,3,,,0,,,81,64
56280,note_off,,,,,120,0,1,,,0,,,76,64
56320,note_on,,,,,0,0,2,,,0,,,64,39
56320,note_off,,,,,80,0,2,,,0,,,64,64
56340,control_change,,,,,20,0,2,,,0,64,0,,
56400,note_on,,,,,120,0,1,,,0,,,76,44
56400,note_off,,,,,60,0,2,,,0,,,64,64
56400,note_on,,,,,0,0,2,,,0,,,64,35
56400,control_change,,,,,0,0,2,,,0,64,127,,
56400,control_change,,,,,0,0,2,,,0,64,127,,
56480,note_off,,,,,80,0,2,,,0,,,64,64
56480,note_on,,,,,0,0,2,,,0,,,64,29
56560,note_off,,,,,80,0,2,,,0,,,64,64
56560,note_on,,,,,0,0,2,,,0,,,64,35
56580,note_off,,,,,180,0,1,,,0,,,76,64
56580,control_change,,,,,20,0,2,,,0,64,0,,
56640,note_on,,,,,60,0,1,,,0,,,76,50
56640,note_off,,,,,60,0,2,,,0,,,64,64
56640,note_on,,,,,0,0,2,,,0,,,58,45
56640,control_change,,,,,0,0,2,,,0,64,127,,
56700,note_off,,,,,60,0,2,,,0,,,58,64
56700,note_on,,,,,0,0,2,,,0,,,64,38
56700,set_tempo,,,,,460,1,0,666667,,,,,,
56760,note_off,,,,,60,0,2,,,0,,,64,64
56760,note_on,,,,,0,0,2,,,0,,,61,35
56780,set_tempo,,,,,80,1,0,571429,,,,,,
56820,note_off,,,,,60,0,2,,,0,,,61,64
56820,note_on,,,,,0,0,2,,,0,,,64,33
56860,set_tempo,,,,,80,1,0,530973,,,,,,
56880,note_off,,,,,60,0,2,,,0,,,64,64
56880,note_on,,,,,0,0,2,,,0,,,58,33
56940,note_off,,,,,60,0,2,,,0,,,58,64
56940,note_on,,,,,0,0,2,,,0,,,64,33
56960,set_tempo,,,,,100,1,0,512821,,,,,,
57000,note_on,,,,,0,0,1,,,0,,,74,42
57000,note_off,,,,,360,0,1,,,0,,,76,64
57000,note_off,,,,,60,0,2,,,0,,,64,64
57000,note_on,,,,,0,0,2,,,0,,,61,32
57040,set_tempo,,,,,80,1,0,500000,,,,,,
57060,note_on,,,,,0,0,2,,,0,,,64,30
57060,control_change,,,,,0,0,2,,,0,64,0,,
57060,note_off,,,,,60,0,2,,,0,,,61,64
57120,control_change,,,,,0,0,2,,,0,64,127,,
57120,control_change,,,,,0,0,2,,,0,64,127,,
57120,note_on,,,,,0,0,2,,,0,,,58,37
57120,note_off,,,,,60,0,2,,,0,,,64,64
57120,note_off,,,,,120,0,1,,,0,,,74,64
57120,note_on,,,,,0,0,1,,,0,,,73,33
57160,set_tempo,,,,,120,1,0,480000,,,,,,
57180,note_off,,,,,60,0,2,,,0,,,58,64
57180,note_on,,,,,0,0,2,,,0,,,64,27
57240,note_off,,,,,60,0,2,,,0,,,64,64
57240,note_on,,,,,0,0,2,,,0,,,61,30
57240,note_off,,,,,120,0,1,,,0,,,73,64
57300,note_off,,,,,60,0,2,,,0,,,61,64
57300,note_on,,,,,0,0,2,,,0,,,64,34
57300,control_change,,,,,0,0,2,,,0,64,0,,
57360,control_change,,,,,0,0,2,,,0,64,127,,
57360,note_off,,,,,60,0,2,,,0,,,64,64
57360,control_change,,,,,0,0,2,,,0,64,127,,
57360,note_on,,,,,0,0,2,,,0,,,57,41
57360,note_on,,,,,120,0,1,,,0,,,73,42
57420,note_on,,,,,0,0,2,,,0,,,64,32
57420,note_off,,,,,60,0,2,,,0,,,57,64
57480,note_off,,,,,60,0,2,,,0,,,64,64
57480,note_on,,,,,0,0,2,,,0,,,61,35
57540,control_change,,,,,0,0,2,,,0,64,0,,
57540,note_on,,,,,0,0,2,,,0,,,64,36
57540,note_off,,,,,60,0,2,,,0,,,61,64
57540,note_off,,,,,180,0,1,,,0,,,73,64
57600,note_on,,,,,0,0,2,,,0,,,55,38
57600,control_change,,,,,0,0,2,,,0,64,127,,
57600,note_off,,,,,60,0,2,,,0,,,64,64
57600,note_on,,,,,60,0,1,,,0,,,73,50
57600,set_tempo,,,,,440,1,0,652174,,,,,,
57620,set_tempo,,,,,20,1,0,674157,,,,,,
57660,set_tempo,,,,,40,1,0,495868,,,,,,
57660,note_on,,,,,0,0,2,,,0,,,64,33
57660,note_off,,,,,60,0,2,,,0,,,55,64
57680,set_tempo,,,,,20,1,0,500000,,,,,,
57720,note_on,,,,,0,0,2,,,0,,,61,29
57720,note_off,,,,,60,0,2,,,0,,,64,64
57780,note_off,,,,,60,0,2,,,0,,,61,64
57780,note_on,,,,,0,0,2,,,0,,,64,28
57800,set_tempo,,,,,120,1,0,526316,,,,,,
57840,note_off,,,,,60,0,2,,,0,,,64,64
57840,note_on,,,,,0,0,2,,,0,,,55,29
57900,note_off,,,,,60,0,2,,,0,,,55,64
57900,note_on,,,,,0,0,2,,,0,,,64,25
57960,note_on,,,,,0,0,2,,,0,,,61,29
57960,note_off,,,,,360,0,1,,,0,,,73,64
57960,note_on,,,,,0,0,1,,,0,,,71,42
57960,note_off,,,,,60,0,2,,,0,,,64,64
58020,note_off,,,,,60,0,2,,,0,,,61,64
58020,note_on,,,,,0,0,2,,,0,,,64,31
58020,control_change,,,,,0,0,2,,,0,64,0,,
58060,set_tempo,,,,,260,1,0,560748,,,,,,
58080,note_on,,,,,0,0,1,,,0,,,70,33
58080,note_off,,,,,120,0,1,,,0,,,71,64
58080,control_change,,,,,0,0,2,,,0,64,127,,
58080,control_change,,,,,0,0,2,,,0,64,127,,
58080,note_on,,,,,0,0,2,,,0,,,55,37
58080,note_off,,,,,60,0,2,,,0,,,64,64
58140,note_on,,,,,0,0,2,,,0,,,64,27
58140,note_off,,,,,60,0,2,,,0,,,55,64
58200,note_off,,,,,60,0,2,,,0,,,64,64
58200,note_off,,,,,120,0,1,,,0,,,70,64
58200,note_on,,,,,0,0,2,,,0,,,61,30
58260,note_off,,,,,60,0,2,,,0,,,61,64
58260,control_change,,,,,0,0,2,,,0,64,0,,
58260,note_on,,,,,0,0,2,,,0,,,64,34
58300,set_tempo,,,,,240,1,0,571429,,,,,,
58320,control_change,,,,,0,0,2,,,0,64,127,,
58320,note_on,,,,,120,0,1,,,0,,,70,42
58320,note_on,,,,,0,0,2,,,0,,,54,41
58320,note_off,,,,,60,0,2,,,0,,,64,64
58320,control_change,,,,,0,0,2,,,0,64,127,,
58380,note_off,,,,,60,0,2,,,0,,,54,64
58380,note_on,,,,,0,0,2,,,0,,,64,33
58440,note_off,,,,,60,0,2,,,0,,,64,64
58440,note_on,,,,,0,0,2,,,0,,,61,29
58460,set_tempo,,,,,160,1,0,612245,,,,,,
58500,control_change,,,,,0,0,2,,,0,64,0,,
58500,note_off,,,,,180,0,1,,,0,,,70,64
58500,note_off,,,,,60,0,2,,,0,,,61,64
58500,note_on,,,,,0,0,2,,,0,,,64,24
58560,note_off,,,,,60,0,2,,,0,,,64,64
58560,note_on,,,,,0,0,2,,,0,,,54,34
58560,control_change,,,,,0,0,2,,,0,64,127,,
58560,note_on,,,,,60,0,1,,,0,,,70,55
58560,note_on,,,,,0,0,1,,,0,,,66,55
58560,set_tempo,,,,,100,1,0,566038,,,,,,
58560,control_change,,,,,0,0,2,,,0,64,127,,
58620,note_on,,,,,0,0,2,,,0,,,64,33
58620,note_off,,,,,60,0,2,,,0,,,54,64
58660,set_tempo,,,,,100,1,0,571429,,,,,,
58680,note_off,,,,,60,0,2,,,0,,,64,64
58680,set_tempo,,,,,20,1,0,530973,,,,,,
58680,note_on,,,,,0,0,2,,,0,,,61,35
58740,note_on,,,,,0,0,2,,,0,,,64,40
58740,note_off,,,,,60,0,2,,,0,,,61,64
58770,control_change,,,,,30,0,2,,,0,64,0,,
58780,set_tempo,,,,,100,1,0,517241,,,,,,
58800,note_off,,,,,0,0,1,,,0,,,70,64
58800,note_off,,,,,240,0,1,,,0,,,66,64
58800,note_on,,,,,0,0,1,,,0,,,66,52
58800,note_on,,,,,0,0,2,,,0,,,54,41
58800,control_change,,,,,0,0,2,,,0,64,127,,
58800,note_off,,,,,30,0,2,,,0,,,64,64
58800,note_on,,,,,0,0,1,,,0,,,71,52
58800,control_change,,,,,0,0,2,,,0,64,127,,
58860,note_on,,,,,0,0,2,,,0,,,64,43
58860,note_off,,,,,60,0,2,,,0,,,54,64
58920,note_on,,,,,0,0,2,,,0,,,61,45
58920,note_off,,,,,60,0,2,,,0,,,64,64
58980,note_on,,,,,0,0,2,,,0,,,64,47
58980,note_off,,,,,60,0,2,,,0,,,61,64
59010,control_change,,,,,30,0,2,,,0,64,0,,
59020,set_tempo,,,,,240,1,0,491803,,,,,,
59040,control_change,,,,,0,0,2,,,0,64,127,,
59040,control_change,,,,,0,0,2,,,0,64,127,,
59040,note_on,,,,,0,0,2,,,0,,,54,48
59040,note_off,,,,,30,0,2,,,0,,,64,64
59040,note_on,,,,,0,0,1,,,0,,,73,57
59040,note_off,,,,,240,0,1,,,0,,,66,64
59040,note_off,,,,,0,0,1,,,0,,,71,64
59040,note_on,,,,,0,0,1,,,0,,,70,57
59040,note_on,,,,,0,0,1,,,0,,,66,57
59100,note_on,,,,,0,0,2,,,0,,,61,49
59100,note_off,,,,,60,0,2,,,0,,,54,64
59140,set_tempo,,,,,120,1,0,472441,,,,,,
59160,note_on,,,,,0,0,2,,,0,,,58,51
59160,note_off,,,,,60,0,2,,,0,,,61,64
59220,note_on,,,,,0,0,2,,,0,,,61,52
59220,note_off,,,,,60,0,2,,,0,,,58,64
59250,control_change,,,,,30,0,2,,,0,64,0,,
59280,note_off,,,,,30,0,2,,,0,,,61,64
59280,control_change,,,,,0,0,2,,,0,64,127,,
59280,control_change,,,,,0,0,2,,,0,64,127,,
59280,set_tempo,,,,,140,1,0,458015,,,,,,
59280,note_off,,,,,240,0,1,,,0,,,66,64
59280,note_off,,,,,0,0,1,,,0,,,73,64
59280,note_on,,,,,0,0,1,,,0,,,71,63
59280,note_on,,,,,0,0,1,,,0,,,74,63
59280,note_on,,,,,0,0,1,,,0,,,66,63
59280,note_off,,,,,0,0,1,,,0,,,70,64
59280,note_on,,,,,0,0,2,,,0,,,54,53
59300,set_tempo,,,,,20,1,0,454545,,,,,,
59340,note_on,,,,,0,0,2,,,0,,,62,55
59340,note_off,,,,,60,0,2,,,0,,,54,64
59400,note_off,,,,,60,0,2,,,0,,,62,64
59400,note_on,,,,,0,0,2,,,0,,,59,58
59440,set_tempo,,,,,140,1,0,441176,,,,,,
59460,note_on,,,,,0,0,2,,,0,,,62,61
59460,note_off,,,,,60,0,2,,,0,,,59,64
59490,control_change,,,,,30,0,2,,,0,64,0,,
59520,note_on,,,,,0,0,1,,,0,,,73,66
59520,note_on,,,,,0,0,1,,,0,,,76,66
59520,note_off,,,,,0,0,1,,,0,,,66,64
59520,note_off,,,,,0,0,1,,,0,,,74,64
59520,note_off,,,,,240,0,1,,,0,,,71,64
59520,note_on,,,,,0,0,1,,,0,,,66,66
59520,control_change,,,,,0,0,2,,,0,64,127,,
59520,control_change,,,,,0,0,2,,,0,64,127,,
59520,note_on,,,,,0,0,2,,,0,,,54,64
59520,note_off,,,,,30,0,2,,,0,,,62,64
59580,note_on,,,,,0,0,2,,,0,,,64,67
59580,note_off,,,,,60,0,2,,,0,,,54,64
59640,note_off,,,,,60,0,2,,,0,,,64,64
59640,note_on,,,,,0,0,2,,,0,,,61,69
59700,note_off,,,,,60,0,2,,,0,,,61,64
59700,note_on,,,,,0,0,2,,,0,,,64,71
59730,control_change,,,,,30,0,2,,,0,64,0,,
59760,note_off,,,,,0,0,1,,,0,,,76,64
59760,note_off,,,,,0,0,1,,,0,,,73,64
59760,note_off,,,,,240,0,1,,,0,,,66,64
59760,note_on,,,,,0,0,1,,,0,,,67,70
59760,note_on,,,,,0,0,1,,,0,,,76,70
59760,note_on,,,,,0,0,1,,,0,,,73,70
59760,note_off,,,,,30,0,2,,,0,,,64,64
59760,control_change,,,,,0,0,2,,,0,64,127,,
59760,control_change,,,,,0,0,2,,,0,64,127,,
59760,note_on,,,,,0,0,2,,,0,,,55,74
59800,set_tempo,,,,,360,1,0,434783,,,,,,
59820,set_tempo,,,,,20,1,0,428571,,,,,,
59820,note_on,,,,,0,0,2,,,0,,,64,75
59820,note_off,,,,,60,0,2,,,0,,,55,64
59880,note_on,,,,,0,0,2,,,0,,,61,76
59880,note_off,,,,,60,0,2,,,0,,,64,64
59940,note_on,,,,,0,0,2,,,0,,,64,70
59940,note_off,,,,,60,0,2,,,0,,,61,64
59970,control_change,,,,,30,0,2,,,0,64,0,,
60000,note_off,,,,,240,0,1,,,0,,,67,64
60000,note_on,,,,,0,0,2,,,0,,,56,83
60000,note_off,,,,,0,0,1,,,0,,,76,64
60000,note_on,,,,,0,0,1,,,0,,,76,78
60000,note_on,,,,,0,0,1,,,0,,,68,78
60000,control_change,,,,,0,0,2,,,0,64,127,,
60000,note_off,,,,,0,0,1,,,0,,,73,64
60000,note_on,,,,,0,0,1,,,0,,,73,78
60000,control_change,,,,,0,0,2,,,0,64,127,,
60000,set_tempo,,,,,180,1,0,422535,,,,,,
60000,note_off,,,,,30,0,2,,,0,,,64,64
60060,note_off,,,,,60,0,2,,,0,,,56,64
60060,note_on,,,,,0,0,2,,,0,,,64,87
60080,set_tempo,,,,,80,1,0,419580,,,,,,
60120,note_off,,,,,60,0,2,,,0,,,64,64
60120,note_on,,,,,0,0,2,,,0,,,61,83
60180,note_off,,,,,60,0,2,,,0,,,61,64
60180,note_on,,,,,0,0,2,,,0,,,64,84
60210,control_change,,,,,30,0,2,,,0,64,0,,
60220,set_tempo,,,,,140,1,0,416667,,,,,,
60240,note_off,,,,,30,0,2,,,0,,,64,64
60240,note_on,,,,,0,0,2,,,0,,,57,97
60240,control_change,,,,,0,0,2,,,0,64,127,,
60240,control_change,,,,,0,0,2,,,0,64,127,,
60240,note_on,,,,,0,0,1,,,0,,,69,90
60240,note_off,,,,,0,0,1,,,0,,,73,64
60240,note_on,,,,,0,0,1,,,0,,,73,90
60240,note_on,,,,,0,0,1,,,0,,,76,90
60240,note_off,,,,,240,0,1,,,0,,,68,64
60240,note_off,,,,,0,0,1,,,0,,,76,64
60300,note_off,,,,,60,0,2,,,0,,,57,64
60300,note_on,,,,,0,0,2,,,0,,,64,93
60360,note_on,,,,,0,0,2,,,0,,,61,88
60360,note_off,,,,,60,0,2,,,0,,,64,64
60400,set_tempo,,,,,180,1,0,408163,,,,,,
60420,note_on,,,,,0,0,2,,,0,,,64,83
60420,note_off,,,,,60,0,2,,,0,,,61,64
60440,set_tempo,,,,,40,1,0,1538462,,,,,,
60450,control_change,,,,,30,0,2,,,0,64,0,,
60480,note_on,,,,,0,0,1,,,0,,,76,50
60480,set_tempo,,,,,40,1,0,566038,,,,,,
60480,note_off,,,,,240,0,1,,,0,,,76,64
60480,note_off,,,,,0,0,1,,,0,,,73,64
60480,note_on,,,,,0,0,2,,,0,,,57,45
60480,note_off,,,,,30,0,2,,,0,,,64,64
60480,control_change,,,,,0,0,2,,,0,64,127,,
60480,note_off,,,,,0,0,1,,,0,,,69,64
60540,note_on,,,,,0,0,2,,,0,,,64,38
60540,note_off,,,,,60,0,2,,,0,,,57,64
60580,set_tempo,,,,,100,1,0,508475,,,,,,
60600,note_off,,,,,60,0,2,,,0,,,64,64
60600,note_on,,,,,0,0,2,,,0,,,61,35
60640,set_tempo,,,,,60,1,0,468750,,,,,,
60660,note_on,,,,,0,0,2,,,0,,,64,33
60660,note_off,,,,,60,0,2,,,0,,,61,64
60720,note_on,,,,,0,0,2,,,0,,,58,33
60720,note_off,,,,,60,0,2,,,0,,,64,64
60780,set_tempo,,,,,140,1,0,472441,,,,,,
60780,note_on,,,,,0,0,2,,,0,,,64,33
60780,note_off,,,,,60,0,2,,,0,,,58,64
60780,note_on,,,,,0,0,1,,,0,,,77,44
60780,note_off,,,,,300,0,1,,,0,,,76,64
60840,note_on,,,,,0,0,1,,,0,,,76,42
60840,note_off,,,,,60,0,1,,,0,,,77,64
60840,note_on,,,,,0,0,2,,,0,,,61,32
60840,note_off,,,,,60,0,2,,,0,,,64,64
60840,set_tempo,,,,,60,1,0,444444,,,,,,
60900,note_off,,,,,60,0,1,,,0,,,76,64
60900,note_off,,,,,60,0,2,,,0,,,61,64
60900,note_on,,,,,0,0,2,,,0,,,64,30
60900,control_change,,,,,0,0,2,,,0,64,0,,
60900,note_on,,,,,0,0,1,,,0,,,74,40
60940,set_tempo,,,,,100,1,0,425532,,,,,,
60960,note_off,,,,,60,0,2,,,0,,,64,64
60960,control_change,,,,,0,0,2,,,0,64,127,,
60960,control_change,,,,,0,0,2,,,0,64,127,,
60960,note_on,,,,,0,0,2,,,0,,,58,37
60960,note_off,,,,,60,0,1,,,0,,,74,64
60960,note_on,,,,,0,0,1,,,0,,,73,38
61020,note_off,,,,,60,0,2,,,0,,,58,64
61020,note_on,,,,,0,0,2,,,0,,,64,27
61080,note_off,,,,,120,0,1,,,0,,,73,64
61080,note_on,,,,,0,0,2,,,0,,,61,30
61080,note_off,,,,,60,0,2,,,0,,,64,64
61100,set_tempo,,,,,160,1,0,408163,,,,,,
61140,note_on,,,,,0,0,2,,,0,,,64,34
61140,note_off,,,,,60,0,2,,,0,,,61,64
61140,control_change,,,,,0,0,2,,,0,64,0,,
61200,note_on,,,,,120,0,1,,,0,,,73,42
61200,note_on,,,,,0,0,2,,,0,,,57,41
61200,control_change,,,,,0,0,2,,,0,64,127,,
61200,control_change,,,,,0,0,2,,,0,64,127,,
61200,set_tempo,,,,,100,1,0,410959,,,,,,
61200,note_off,,,,,60,0,2,,,0,,,64,64
61260,note_off,,,,,60,0,2,,,0,,,57,64
61260,note_on,,,,,0,0,2,,,0,,,64,32
61320,note_on,,,,,0,0,2,,,0,,,61,35
61320,note_off,,,,,60,0,2,,,0,,,64,64
61380,control_change,,,,,0,0,2,,,0,64,0,,
61380,note_off,,,,,180,0,1,,,0,,,73,64
61380,set_tempo,,,,,180,1,0,472441,,,,,,
61380,note_off,,,,,60,0,2,,,0,,,61,64
61380,note_on,,,,,0,0,2,,,0,,,64,36
61440,control_change,,,,,0,0,2,,,0,64,127,,
61440,note_on,,,,,0,0,2,,,0,,,55,38
61440,note_on,,,,,60,0,1,,,0,,,73,50
61440,note_off,,,,,60,0,2,,,0,,,64,64
61500,note_off,,,,,60,0,2,,,0,,,55,64
61500,set_tempo,,,,,120,1,0,451128,,,,,,
61500,note_on,,,,,0,0,2,,,0,,,64,33
61560,set_tempo,,,,,60,1,0,428571,,,,,,
61560,note_off,,,,,60,0,2,,,0,,,64,64
61560,note_on,,,,,0,0,2,,,0,,,61,29
61620,note_off,,,,,60,0,2,,,0,,,61,64
61620,note_on,,,,,0,0,2,,,0,,,64,28
61680,note_off,,,,,60,0,2,,,0,,,64,64
61680,note_on,,,,,0,0,2,,,0,,,55,29
61740,note_off,,,,,300,0,1,,,0,,,73,64
61740,note_off,,,,,60,0,2,,,0,,,55,64
61740,note_on,,,,,0,0,2,,,0,,,64,25
61740,set_tempo,,,,,180,1,0,444444,,,,,,
61740,note_on,,,,,0,0,1,,,0,,,74,46
61800,note_off,,,,,60,0,2,,,0,,,64,64
61800,note_on,,,,,0,0,1,,,0,,,73,44
61800,note_off,,,,,60,0,1,,,0,,,74,64
61800,note_on,,,,,0,0,2,,,0,,,61,29
61860,note_on,,,,,0,0,1,,,0,,,71,38
61860,note_on,,,,,0,0,2,,,0,,,64,31
61860,note_off,,,,,60,0,2,,,0,,,61,64
61860,control_change,,,,,0,0,2,,,0,64,0,,
61860,note_off,,,,,60,0,1,,,0,,,73,64
61920,note_off,,,,,60,0,1,,,0,,,71,64
61920,control_change,,,,,0,0,2,,,0,64,127,,
61920,note_on,,,,,0,0,1,,,0,,,70,33
61920,note_off,,,,,60,0,2,,,0,,,64,64
61920,control_change,,,,,0,0,2,,,0,64,127,,
61920,note_on,,,,,0,0,2,,,0,,,55,37
61980,set_tempo,,,,,240,1,0,447761,,,,,,
61980,note_on,,,,,0,0,2,,,0,,,64,27
61980,note_off,,,,,60,0,2,,,0,,,55,64
62020,set_tempo,,,,,40,1,0,468750,,,,,,
62040,note_off,,,,,60,0,2,,,0,,,64,64
62040,note_on,,,,,0,0,2,,,0,,,61,30
62040,note_off,,,,,120,0,1,,,0,,,70,64
62100,note_off,,,,,60,0,2,,,0,,,61,64
62100,note_on,,,,,0,0,2,,,0,,,64,34
62100,control_change,,,,,0,0,2,,,0,64,0,,
62160,note_off,,,,,60,0,2,,,0,,,64,64
62160,control_change,,,,,0,0,2,,,0,64,127,,
62160,control_change,,,,,0,0,2,,,0,64,127,,
62160,note_on,,,,,120,0,1,,,0,,,70,36
62160,note_on,,,,,0,0,2,,,0,,,54,41
62220,note_on,,,,,0,0,2,,,0,,,64,33
62220,note_off,,,,,60,0,2,,,0,,,54,64
62260,set_tempo,,,,,240,1,0,491803,,,,,,
62280,note_off,,,,,60,0,2,,,0,,,64,64
62280,note_on,,,,,0,0,2,,,0,,,61,29
62340,note_on,,,,,0,0,2,,,0,,,64,24
62340,control_change,,,,,0,0,2,,,0,64,0,,
62340,note_off,,,,,60,0,2,,,0,,,61,64
62340,note_off,,,,,180,0,1,,,0,,,70,64
62400,note_on,,,,,0,0,2,,,0,,,54,34
62400,note_off,,,,,60,0,2,,,0,,,64,64
62400,note_on,,,,,60,0,1,,,0,,,70,43
62400,note_on,,,,,0,0,1,,,0,,,66,43
62400,control_change,,,,,0,0,2,,,0,64,127,,
62400,control_change,,,,,0,0,2,,,0,64,127,,
62460,note_on,,,,,0,0,2,,,0,,,64,33
62460,note_off,,,,,60,0,2,,,0,,,54,64
62460,set_tempo,,,,,200,1,0,458015,,,,,,
62520,note_off,,,,,60,0,2,,,0,,,64,64
62520,note_on,,,,,0,0,2,,,0,,,61,35
62560,note_off,,,,,0,0,1,,,0,,,70,64
62560,note_off,,,,,160,0,1,,,0,,,66,64
62580,note_off,,,,,60,0,2,,,0,,,61,64
62580,note_on,,,,,0,0,2,,,0,,,64,40
62580,note_on,,,,,0,0,1,,,0,,,66,48
62580,note_on,,,,,20,0,1,,,0,,,70,48
62600,set_tempo,,,,,140,1,0,451128,,,,,,
62610,control_change,,,,,30,0,2,,,0,64,0,,
62624,note_off,,,,,44,0,1,,,0,,,66,64
62624,note_off,,,,,0,0,1,,,0,,,70,64
62640,note_on,,,,,16,0,1,,,0,,,71,52
62640,note_on,,,,,0,0,1,,,0,,,66,52
62640,note_off,,,,,30,0,2,,,0,,,64,64
62640,control_change,,,,,0,0,2,,,0,64,127,,
62640,note_on,,,,,0,0,2,,,0,,,54,41
62640,control_change,,,,,0,0,2,,,0,64,127,,
62700,note_off,,,,,60,0,2,,,0,,,54,64
62700,note_on,,,,,0,0,2,,,0,,,64,43
62760,note_on,,,,,0,0,2,,,0,,,61,45
62760,note_off,,,,,60,0,2,,,0,,,64,64
62800,note_off,,,,,0,0,1,,,0,,,71,64
62800,note_off,,,,,160,0,1,,,0,,,66,64
62800,set_tempo,,,,,200,1,0,431655,,,,,,
62820,note_off,,,,,60,0,2,,,0,,,61,64
62820,note_on,,,,,20,0,1,,,0,,,71,42
62820,note_on,,,,,0,0,1,,,0,,,66,42
62820,note_on,,,,,0,0,2,,,0,,,64,47
62850,control_change,,,,,30,0,2,,,0,64,0,,
62864,note_off,,,,,44,0,1,,,0,,,66,64
62864,note_off,,,,,0,0,1,,,0,,,71,64
62880,note_off,,,,,30,0,2,,,0,,,64,64
62880,note_on,,,,,0,0,2,,,0,,,54,48
62880,control_change,,,,,0,0,2,,,0,64,127,,
62880,control_change,,,,,0,0,2,,,0,64,127,,
62880,note_on,,,,,16,0,1,,,0,,,73,55
62880,note_on,,,,,0,0,1,,,0,,,66,55
62880,note_on,,,,,0,0,1,,,0,,,70,55
62940,note_off,,,,,60,0,2,,,0,,,54,64
62940,note_on,,,,,0,0,2,,,0,,,61,49
63000,note_on,,,,,0,0,2,,,0,,,58,51
63000,note_off,,,,,60,0,2,,,0,,,61,64
63040,note_off,,,,,0,0,1,,,0,,,70,64
63040,note_off,,,,,160,0,1,,,0,,,66,64
63040,note_off,,,,,0,0,1,,,0,,,73,64
63060,note_on,,,,,0,0,1,,,0,,,70,45
63060,note_on,,,,,20,0,1,,,0,,,73,45
63060,note_on,,,,,0,0,2,,,0,,,61,52
63060,note_off,,,,,60,0,2,,,0,,,58,64
63060,note_on,,,,,0,0,1,,,0,,,66,45
63090,control_change,,,,,30,0,2,,,0,64,0,,
63104,note_off,,,,,44,0,1,,,0,,,66,64
63104,note_off,,,,,0,0,1,,,0,,,70,64
63104,note_off,,,,,0,0,1,,,0,,,73,64
63120,note_on,,,,,16,0,1,,,0,,,74,60
63120,note_on,,,,,0,0,2,,,0,,,54,53
63120,control_change,,,,,0,0,2,,,0,64,127,,
63120,control_change,,,,,0,0,2,,,0,64,127,,
63120,note_off,,,,,30,0,2,,,0,,,61,64
63120,note_on,,,,,0,0,1,,,0,,,71,60
63120,note_on,,,,,0,0,1,,,0,,,66,60
63180,set_tempo,,,,,380,1,0,422535,,,,,,
63180,note_on,,,,,0,0,2,,,0,,,62,55
63180,note_off,,,,,60,0,2,,,0,,,54,64
63240,note_on,,,,,0,0,2,,,0,,,59,58
63240,note_off,,,,,60,0,2,,,0,,,62,64
63280,note_off,,,,,0,0,1,,,0,,,74,64
63280,note_off,,,,,0,0,1,,,0,,,71,64
63280,note_off,,,,,160,0,1,,,0,,,66,64
63300,note_off,,,,,60,0,2,,,0,,,59,64
63300,note_on,,,,,0,0,1,,,0,,,66,50
63300,note_on,,,,,0,0,1,,,0,,,71,50
63300,note_on,,,,,20,0,1,,,0,,,74,50
63300,note_on,,,,,0,0,2,,,0,,,62,61
63330,control_change,,,,,30,0,2,,,0,64,0,,
63340,set_tempo,,,,,160,1,0,408163,,,,,,
63344,note_off,,,,,0,0,1,,,0,,,74,64
63344,note_off,,,,,44,0,1,,,0,,,66,64
63344,note_off,,,,,0,0,1,,,0,,,71,64
63360,note_off,,,,,30,0,2,,,0,,,62,64
63360,control_change,,,,,0,0,2,,,0,64,127,,
63360,note_on,,,,,16,0,1,,,0,,,76,67
63360,control_change,,,,,0,0,2,,,0,64,127,,
63360,note_on,,,,,0,0,2,,,0,,,54,64
63360,note_on,,,,,0,0,1,,,0,,,73,67
63360,note_on,,,,,0,0,1,,,0,,,66,67
63420,note_on,,,,,0,0,2,,,0,,,64,67
63420,note_off,,,,,60,0,2,,,0,,,54,64
63480,note_off,,,,,60,0,2,,,0,,,64,64
63480,note_on,,,,,0,0,2,,,0,,,61,69
63520,note_off,,,,,0,0,1,,,0,,,76,64
63520,note_off,,,,,160,0,1,,,0,,,66,64
63520,note_off,,,,,0,0,1,,,0,,,73,64
63540,note_on,,,,,0,0,2,,,0,,,64,71
63540,note_off,,,,,60,0,2,,,0,,,61,64
63540,note_on,,,,,0,0,1,,,0,,,73,57
63540,note_on,,,,,20,0,1,,,0,,,76,57
63540,note_on,,,,,0,0,1,,,0,,,66,57
63570,control_change,,,,,30,0,2,,,0,64,0,,
63580,set_tempo,,,,,240,1,0,397351,,,,,,
63584,note_off,,,,,44,0,1,,,0,,,66,64
63584,note_off,,,,,0,0,1,,,0,,,76,64
63584,note_off,,,,,0,0,1,,,0,,,73,64
63600,note_on,,,,,16,0,1,,,0,,,76,77
63600,note_off,,,,,30,0,2,,,0,,,64,64
63600,control_change,,,,,0,0,2,,,0,64,127,,
63600,note_on,,,,,0,0,1,,,0,,,73,77
63600,control_change,,,,,0,0,2,,,0,64,127,,
63600,note_on,,,,,0,0,1,,,0,,,67,77
63600,note_on,,,,,0,0,2,,,0,,,55,74
63660,note_off,,,,,60,0,2,,,0,,,55,64
63660,note_on,,,,,0,0,2,,,0,,,64,75
63720,note_on,,,,,0,0,2,,,0,,,61,76
63720,note_off,,,,,60,0,2,,,0,,,64,64
63760,note_off,,,,,0,0,1,,,0,,,76,64
63760,note_off,,,,,0,0,1,,,0,,,73,64
63760,note_off,,,,,160,0,1,,,0,,,67,64
63780,note_on,,,,,0,0,1,,,0,,,67,67
63780,note_on,,,,,0,0,1,,,0,,,73,67
63780,note_on,,,,,20,0,1,,,0,,,76,67
63780,note_on,,,,,0,0,2,,,0,,,64,70
63780,note_off,,,,,60,0,2,,,0,,,61,64
63810,control_change,,,,,30,0,2,,,0,64,0,,
63824,note_off,,,,,0,0,1,,,0,,,76,64
63824,note_off,,,,,44,0,1,,,0,,,67,64
63824,note_off,,,,,0,0,1,,,0,,,73,64
63840,control_change,,,,,0,0,2,,,0,64,127,,
63840,note_on,,,,,0,0,2,,,0,,,56,83
63840,control_change,,,,,0,0,2,,,0,64,127,,
63840,note_on,,,,,16,0,1,,,0,,,76,85
63840,note_on,,,,,0,0,1,,,0,,,68,85
63840,note_off,,,,,30,0,2,,,0,,,64,64
63840,note_on,,,,,0,0,1,,,0,,,73,85
63900,note_off,,,,,60,0,2,,,0,,,56,64
63900,note_on,,,,,0,0,2,,,0,,,64,87
63920,set_tempo,,,,,340,1,0,400000,,,,,,
63960,note_off,,,,,60,0,2,,,0,,,64,64
63960,note_on,,,,,0,0,2,,,0,,,61,83
64000,note_off,,,,,160,0,1,,,0,,,68,64
64000,note_off,,,,,0,0,1,,,0,,,73,64
64000,note_off,,,,,0,0,1,,,0,,,76,64
64020,note_on,,,,,0,0,2,,,0,,,64,84
64020,note_off,,,,,60,0,2,,,0,,,61,64
64020,note_on,,,,,20,0,1,,,0,,,76,75
64020,note_on,,,,,0,0,1,,,0,,,73,75
64020,note_on,,,,,0,0,1,,,0,,,68,75
64050,control_change,,,,,30,0,2,,,0,64,0,,
64064,note_off,,,,,44,0,1,,,0,,,68,64
64064,note_off,,,,,0,0,1,,,0,,,73,64
64064,note_off,,,,,0,0,1,,,0,,,76,64
64080,note_on,,,,,0,0,2,,,0,,,57,97
64080,note_on,,,,,0,0,1,,,0,,,69,89
64080,note_on,,,,,0,0,1,,,0,,,73,89
64080,note_on,,,,,16,0,1,,,0,,,76,89
64080,note_off,,,,,30,0,2,,,0,,,64,64
64080,control_change,,,,,0,0,2,,,0,64,127,,
64080,control_change,,,,,0,0,2,,,0,64,127,,
64140,note_off,,,,,60,0,2,,,0,,,57,64
64140,note_on,,,,,0,0,2,,,0,,,64,93
64200,note_on,,,,,0,0,2,,,0,,,61,88
64200,note_off,,,,,60,0,2,,,0,,,64,64
64260,set_tempo,,,,,340,1,0,625000,,,,,,
64260,note_off,,,,,60,0,2,,,0,,,61,64
64260,note_on,,,,,0,0,2,,,0,,,64,83
64280,set_tempo,,,,,20,1,0,1000000,,,,,,
64290,control_change,,,,,30,0,2,,,0,64,0,,
64300,note_off,,,,,0,0,1,,,0,,,76,64
64300,note_off,,,,,0,0,1,,,0,,,73,64
64300,note_off,,,,,220,0,1,,,0,,,69,64
64320,note_on,,,,,20,0,1,,,0,,,76,50
64320,control_change,,,,,0,0,2,,,0,64,127,,
64320,note_on,,,,,0,0,2,,,0,,,57,45
64320,note_off,,,,,30,0,2,,,0,,,64,64
64340,set_tempo,,,,,60,1,0,545455,,,,,,
64380,note_on,,,,,0,0,2,,,0,,,64,38
64380,note_off,,,,,60,0,2,,,0,,,57,64
64440,note_on,,,,,0,0,2,,,0,,,61,35
64440,note_off,,,,,60,0,2,,,0,,,64,64
64500,note_off,,,,,60,0,2,,,0,,,61,64
64500,note_on,,,,,0,0,2,,,0,,,64,33
64520,set_tempo,,,,,180,1,0,540541,,,,,,
64550,control_change,,,,,50,0,2,,,0,64,0,,
64560,set_tempo,,,,,40,1,0,517241,,,,,,
64560,note_on,,,,,0,0,2,,,0,,,58,33
64560,control_change,,,,,0,0,2,,,0,64,127,,
64560,note_off,,,,,10,0,2,,,0,,,64,64
64620,note_on,,,,,0,0,2,,,0,,,64,33
64620,note_off,,,,,60,0,2,,,0,,,58,64
64680,note_off,,,,,60,0,2,,,0,,,64,64
64680,note_off,,,,,360,0,1,,,0,,,76,64
64680,note_on,,,,,0,0,1,,,0,,,74,42
64680,note_on,,,,,0,0,2,,,0,,,61,32
64740,set_tempo,,,,,180,1,0,491803,,,,,,
64740,control_change,,,,,0,0,2,,,0,64,0,,
64740,note_off,,,,,60,0,2,,,0,,,61,64
64740,note_on,,,,,0,0,2,,,0,,,64,30
64800,note_on,,,,,0,0,2,,,0,,,57,37
64800,control_change,,,,,0,0,2,,,0,64,127,,
64800,note_off,,,,,120,0,1,,,0,,,74,64
64800,note_on,,,,,0,0,1,,,0,,,73,33
64800,note_off,,,,,60,0,2,,,0,,,64,64
64800,control_change,,,,,0,0,2,,,0,64,127,,
64860,note_off,,,,,60,0,2,,,0,,,57,64
64860,note_on,,,,,0,0,2,,,0,,,64,27
64900,set_tempo,,,,,160,1,0,472441,,,,,,
64920,note_off,,,,,60,0,2,,,0,,,64,64
64920,note_on,,,,,0,0,2,,,0,,,61,30
64920,note_off,,,,,120,0,1,,,0,,,73,64
64980,control_change,,,,,0,0,2,,,0,64,0,,
64980,note_on,,,,,0,0,2,,,0,,,64,34
64980,note_off,,,,,60,0,2,,,0,,,61,64
65040,note_on,,,,,0,0,2,,,0,,,55,41
65040,control_change,,,,,0,0,2,,,0,64,127,,
65040,control_change,,,,,0,0,2,,,0,64,127,,
65040,note_on,,,,,120,0,1,,,0,,,73,42
65040,note_off,,,,,60,0,2,,,0,,,64,64
65100,set_tempo,,,,,200,1,0,451128,,,,,,
65100,note_off,,,,,60,0,2,,,0,,,55,64
65100,note_on,,,,,0,0,2,,,0,,,64,32
65160,note_on,,,,,0,0,2,,,0,,,61,35
65160,note_off,,,,,60,0,2,,,0,,,64,64
65200,set_tempo,,,,,100,1,0,454545,,,,,,
65220,note_on,,,,,0,0,2,,,0,,,64,36
65220,control_change,,,,,0,0,2,,,0,64,0,,
65220,note_off,,,,,180,0,1,,,0,,,73,64
65220,note_off,,,,,60,0,2,,,0,,,61,64
65250,note_on,,,,,30,0,1,,,0,,,76,52
65280,note_on,,,,,0,0,1,,,0,,,74,50
65280,note_off,,,,,30,0,1,,,0,,,76,64
65280,note_on,,,,,0,0,2,,,0,,,53,41
65280,note_off,,,,,60,0,2,,,0,,,64,64
65280,control_change,,,,,0,0,2,,,0,64,127,,
65280,control_change,,,,,0,0,2,,,0,64,127,,
65340,note_on,,,,,0,0,1,,,0,,,73,49
65340,set_tempo,,,,,140,1,0,444444,,,,,,
65340,note_on,,,,,0,0,2,,,0,,,62,32
65340,note_off,,,,,60,0,2,,,0,,,53,64
65340,note_off,,,,,60,0,1,,,0,,,74,64
65400,note_on,,,,,0,0,2,,,0,,,57,35
65400,note_off,,,,,60,0,2,,,0,,,62,64
65400,note_on,,,,,0,0,1,,,0,,,74,49
65400,note_off,,,,,60,0,1,,,0,,,73,64
65460,note_on,,,,,0,0,2,,,0,,,62,36
65460,note_off,,,,,60,0,2,,,0,,,57,64
65460,note_off,,,,,60,0,1,,,0,,,74,64
65460,note_on,,,,,0,0,1,,,0,,,76,50
65460,control_change,,,,,0,0,2,,,0,64,0,,
65490,note_off,,,,,30,0,1,,,0,,,76,64
65490,note_on,,,,,0,0,1,,,0,,,79,52
65500,set_tempo,,,,,160,1,0,425532,,,,,,
65520,note_off,,,,,60,0,2,,,0,,,62,64
65520,control_change,,,,,0,0,2,,,0,64,127,,
65520,control_change,,,,,0,0,2,,,0,64,127,,
65520,note_off,,,,,30,0,1,,,0,,,79,64
65520,note_on,,,,,0,0,1,,,0,,,77,54
65520,note_on,,,,,0,0,2,,,0,,,52,41
65580,note_off,,,,,60,0,1,,,0,,,77,64
65580,note_on,,,,,0,0,2,,,0,,,62,35
65580,note_off,,,,,60,0,2,,,0,,,52,64
65580,note_on,,,,,0,0,1,,,0,,,76,57
65640,note_on,,,,,0,0,1,,,0,,,77,61
65640,note_off,,,,,60,0,1,,,0,,,76,64
65640,note_on,,,,,0,0,2,,,0,,,55,40
65640,note_off,,,,,60,0,2,,,0,,,62,64
65660,set_tempo,,,,,160,1,0,428571,,,,,,
65680,set_tempo,,,,,20,1,0,416667,,,,,,
65700,note_off,,,,,60,0,2,,,0,,,55,64
65700,note_off,,,,,60,0,1,,,0,,,77,64
65700,note_on,,,,,0,0,1,,,0,,,79,66
65700,note_on,,,,,0,0,2,,,0,,,62,42
65700,control_change,,,,,0,0,2,,,0,64,0,,
65760,note_off,,,,,60,0,1,,,0,,,79,64
65760,note_on,,,,,0,0,2,,,0,,,50,45
65760,note_off,,,,,60,0,2,,,0,,,62,64
65760,control_change,,,,,0,0,2,,,0,64,127,,
65760,control_change,,,,,0,0,2,,,0,64,127,,
65760,note_on,,,,,0,0,1,,,0,,,81,70
65820,note_off,,,,,60,0,2,,,0,,,50,64
65820,note_on,,,,,0,0,2,,,0,,,62,47
65860,set_tempo,,,,,180,1,0,419580,,,,,,
65880,note_off,,,,,120,0,1,,,0,,,81,64
65880,note_on,,,,,0,0,2,,,0,,,53,45
65880,note_off,,,,,60,0,2,,,0,,,62,64
65900,set_tempo,,,,,40,1,0,444444,,,,,,
65940,note_off,,,,,60,0,2,,,0,,,53,64
65940,note_on,,,,,0,0,2,,,0,,,62,43
65940,control_change,,,,,0,0,2,,,0,64,0,,
66000,note_on,,,,,120,0,1,,,0,,,81,50
66000,note_off,,,,,60,0,2,,,0,,,62,64
66000,note_on,,,,,0,0,2,,,0,,,53,43
66000,control_change,,,,,0,0,2,,,0,64,127,,
66000,control_change,,,,,0,0,2,,,0,64,127,,
66020,set_tempo,,,,,120,1,0,472441,,,,,,
66060,note_off,,,,,60,0,2,,,0,,,53,64
66060,note_on,,,,,0,0,2,,,0,,,62,41
66100,set_tempo,,,,,80,1,0,465116,,,,,,
66120,note_on,,,,,0,0,2,,,0,,,57,39
66120,note_off,,,,,120,0,1,,,0,,,81,64
66120,note_on,,,,,0,0,1,,,0,,,77,47
66120,note_off,,,,,60,0,2,,,0,,,62,64
66140,set_tempo,,,,,40,1,0,500000,,,,,,
66180,note_off,,,,,60,0,2,,,0,,,57,64
66180,note_on,,,,,0,0,2,,,0,,,62,36
66180,control_change,,,,,0,0,2,,,0,64,0,,
66210,note_off,,,,,90,0,1,,,0,,,77,64
66240,note_off,,,,,60,0,2,,,0,,,62,64
66240,note_on,,,,,0,0,2,,,0,,,57,45
66240,control_change,,,,,0,0,2,,,0,64,127,,
66240,note_on,,,,,30,0,1,,,0,,,76,50
66300,note_off,,,,,60,0,2,,,0,,,57,64
66300,note_on,,,,,0,0,2,,,0,,,64,38
66360,note_off,,,,,60,0,2,,,0,,,64,64
66360,note_on,,,,,0,0,2,,,0,,,61,35
66420,note_off,,,,,60,0,2,,,0,,,61,64
66420,note_on,,,,,0,0,2,,,0,,,64,33
66472,control_change,,,,,52,0,2,,,0,64,0,,
66480,set_tempo,,,,,340,1,0,472441,,,,,,
66480,control_change,,,,,0,0,2,,,0,64,127,,
66480,note_on,,,,,0,0,2,,,0,,,58,33
66480,note_off,,,,,8,0,2,,,0,,,64,64
66540,note_on,,,,,0,0,2,,,0,,,64,33
66540,note_off,,,,,60,0,2,,,0,,,58,64
66600,note_off,,,,,60,0,2,,,0,,,64,64
66600,note_off,,,,,360,0,1,,,0,,,76,64
66600,note_on,,,,,0,0,1,,,0,,,74,42
66600,note_on,,,,,0,0,2,,,0,,,61,32
66660,control_change,,,,,0,0,2,,,0,64,0,,
66660,note_on,,,,,0,0,2,,,0,,,64,30
66660,note_off,,,,,60,0,2,,,0,,,61,64
66720,note_off,,,,,120,0,1,,,0,,,74,64
66720,control_change,,,,,0,0,2,,,0,64,127,,
66720,note_on,,,,,0,0,2,,,0,,,57,37
66720,control_change,,,,,0,0,2,,,0,64,127,,
66720,note_off,,,,,60,0,2,,,0,,,64,64
66720,note_on,,,,,0,0,1,,,0,,,73,33
66780,note_on,,,,,0,0,2,,,0,,,64,32
66780,note_off,,,,,60,0,2,,,0,,,57,64
66840,note_on,,,,,0,0,2,,,0,,,61,35
66840,note_off,,,,,60,0,2,,,0,,,64,64
66840,note_off,,,,,120,0,1,,,0,,,73,64
66900,control_change,,,,,0,0,2,,,0,64,0,,
66900,note_on,,,,,0,0,2,,,0,,,64,38
66900,note_off,,,,,60,0,2,,,0,,,61,64
66960,note_on,,,,,0,0,2,,,0,,,55,43
66960,control_change,,,,,0,0,2,,,0,64,127,,
66960,control_change,,,,,0,0,2,,,0,64,127,,
66960,note_off,,,,,60,0,2,,,0,,,64,64
66960,note_on,,,,,0,0,1,,,0,,,73,53
66960,note_on,,,,,120,0,1,,,0,,,85,53
67020,note_on,,,,,0,0,2,,,0,,,64,36
67020,set_tempo,,,,,540,1,0,458015,,,,,,
67020,note_off,,,,,60,0,2,,,0,,,55,64
67080,note_off,,,,,60,0,2,,,0,,,64,64
67080,note_on,,,,,0,0,2,,,0,,,61,31
67140,control_change,,,,,0,0,2,,,0,64,0,,
67140,note_on,,,,,0,0,2,,,0,,,64,27
67140,note_off,,,,,180,0,1,,,0,,,73,64
67140,note_off,,,,,60,0,2,,,0,,,61,64
67140,note_off,,,,,0,0,1,,,0,,,85,64
67200,control_change,,,,,0,0,2,,,0,64,127,,
67200,note_on,,,,,0,0,1,,,0,,,74,57
67200,note_on,,,,,0,0,2,,,0,,,53,49
67200,note_off,,,,,60,0,2,,,0,,,64,64
67200,note_on,,,,,60,0,1,,,0,,,86,57
67200,control_change,,,,,0,0,2,,,0,64,127,,
67260,note_off,,,,,60,0,2,,,0,,,53,64
67260,note_on,,,,,0,0,2,,,0,,,65,38
67320,note_off,,,,,120,0,1,,,0,,,74,64
67320,note_off,,,,,0,0,1,,,0,,,86,64
67320,note_on,,,,,0,0,1,,,0,,,89,55
67320,note_on,,,,,0,0,2,,,0,,,62,40
67320,note_off,,,,,60,0,2,,,0,,,65,64
67320,note_on,,,,,0,0,1,,,0,,,77,55
67380,note_on,,,,,0,0,2,,,0,,,65,41
67380,note_off,,,,,60,0,2,,,0,,,62,64
67380,control_change,,,,,0,0,2,,,0,64,0,,
67420,set_tempo,,,,,400,1,0,451128,,,,,,
67440,control_change,,,,,0,0,2,,,0,64,127,,
67440,control_change,,,,,0,0,2,,,0,64,127,,
67440,note_on,,,,,0,0,2,,,0,,,53,45
67440,note_off,,,,,60,0,2,,,0,,,65,64
67440,note_off,,,,,0,0,1,,,0,,,89,64
67440,note_on,,,,,0,0,1,,,0,,,79,59
67440,note_on,,,,,0,0,1,,,0,,,91,59
67440,note_off,,,,,120,0,1,,,0,,,77,64
67500,note_off,,,,,60,0,2,,,0,,,53,64
67500,note_on,,,,,0,0,2,,,0,,,65,47
67560,note_off,,,,,60,0,2,,,0,,,65,64
67560,note_on,,,,,0,0,2,,,0,,,62,50
67560,note_off,,,,,0,0,1,,,0,,,91,64
67560,note_on,,,,,0,0,1,,,0,,,81,65
67560,note_on,,,,,0,0,1,,,0,,,93,65
67560,note_off,,,,,120,0,1,,,0,,,79,64
67620,note_on,,,,,0,0,2,,,0,,,65,56
67620,control_change,,,,,0,0,2,,,0,64,0,,
67620,note_off,,,,,60,0,2,,,0,,,62,64
67680,note_off,,,,,0,0,1,,,0,,,93,64
67680,note_off,,,,,120,0,1,,,0,,,81,64
67680,note_off,,,,,60,0,2,,,0,,,65,64
67680,note_on,,,,,0,0,1,,,0,,,82,74
67680,note_on,,,,,0,0,1,,,0,,,94,74
67680,control_change,,,,,0,0,2,,,0,64,127,,
67680,control_change,,,,,0,0,2,,,0,64,127,,
67680,note_on,,,,,0,0,2,,,0,,,53,59
67740,note_on,,,,,0,0,2,,,0,,,65,57
67740,note_off,,,,,60,0,2,,,0,,,53,64
67800,note_on,,,,,0,0,2,,,0,,,62,53
67800,note_off,,,,,60,0,2,,,0,,,65,64
67860,note_on,,,,,0,0,2,,,0,,,65,48
67860,note_off,,,,,0,0,1,,,0,,,94,64
67860,control_change,,,,,0,0,2,,,0,64,0,,
67860,note_off,,,,,180,0,1,,,0,,,82,64
67860,note_off,,,,,60,0,2,,,0,,,62,64
67880,set_tempo,,,,,460,1,0,444444,,,,,,
67920,note_on,,,,,60,0,1,,,0,,,91,67
67920,note_on,,,,,0,0,1,,,0,,,79,67
67920,control_change,,,,,0,0,2,,,0,64,127,,
67920,note_on,,,,,0,0,2,,,0,,,53,51
67920,note_off,,,,,60,0,2,,,0,,,65,64
67920,control_change,,,,,0,0,2,,,0,64,127,,
67980,note_off,,,,,60,0,2,,,0,,,53,64
67980,note_on,,,,,0,0,2,,,0,,,67,48
68040,note_off,,,,,60,0,2,,,0,,,67,64
68040,note_on,,,,,0,0,2,,,0,,,63,43
68100,note_off,,,,,60,0,2,,,0,,,63,64
68100,note_on,,,,,0,0,2,,,0,,,67,39
68100,control_change,,,,,0,0,2,,,0,64,0,,
68140,set_tempo,,,,,260,1,0,454545,,,,,,
68160,note_off,,,,,0,0,1,,,0,,,91,64
68160,note_on,,,,,0,0,1,,,0,,,89,70
68160,note_on,,,,,0,0,1,,,0,,,77,70
68160,control_change,,,,,0,0,2,,,0,64,127,,
68160,control_change,,,,,0,0,2,,,0,64,127,,
68160,note_off,,,,,240,0,1,,,0,,,79,64
68160,note_off,,,,,60,0,2,,,0,,,67,64
68160,note_on,,,,,0,0,2,,,0,,,53,46
68220,note_off,,,,,60,0,2,,,0,,,53,64
68220,note_on,,,,,0,0,2,,,0,,,65,45
68280,note_on,,,,,0,0,2,,,0,,,62,39
68280,note_off,,,,,60,0,2,,,0,,,65,64
68340,note_off,,,,,60,0,2,,,0,,,62,64
68340,control_change,,,,,0,0,2,,,0,64,0,,
68340,note_on,,,,,0,0,2,,,0,,,65,36
68400,note_on,,,,,0,0,1,,,0,,,75,54
68400,note_off,,,,,60,0,2,,,0,,,65,64
68400,note_on,,,,,0,0,2,,,0,,,53,40
68400,control_change,,,,,0,0,2,,,0,64,127,,
68400,control_change,,,,,0,0,2,,,0,64,127,,
68400,note_on,,,,,0,0,1,,,0,,,87,54
68400,note_off,,,,,0,0,1,,,0,,,89,64
68400,note_off,,,,,240,0,1,,,0,,,77,64
68460,set_tempo,,,,,320,1,0,480000,,,,,,
68460,note_off,,,,,60,0,2,,,0,,,53,64
68460,note_on,,,,,0,0,2,,,0,,,63,37
68520,note_off,,,,,60,0,2,,,0,,,63,64
68520,note_on,,,,,0,0,2,,,0,,,60,36
68580,note_on,,,,,0,0,2,,,0,,,63,34
68580,control_change,,,,,0,0,2,,,0,64,0,,
68580,note_off,,,,,60,0,2,,,0,,,60,64
68640,note_on,,,,,0,0,1,,,0,,,86,51
68640,note_on,,,,,0,0,1,,,0,,,74,51
68640,control_change,,,,,0,0,2,,,0,64,127,,
68640,note_off,,,,,240,0,1,,,0,,,75,64
68640,control_change,,,,,0,0,2,,,0,64,127,,
68640,note_on,,,,,0,0,2,,,0,,,53,39
68640,note_off,,,,,0,0,1,,,0,,,87,64
68640,note_off,,,,,60,0,2,,,0,,,63,64
68680,set_tempo,,,,,220,1,0,508475,,,,,,
68700,note_off,,,,,60,0,2,,,0,,,53,64
68700,note_on,,,,,0,0,2,,,0,,,62,27
68760,note_off,,,,,60,0,2,,,0,,,62,64
68760,note_on,,,,,0,0,2,,,0,,,58,25
68820,control_change,,,,,0,0,2,,,0,64,0,,
68820,note_off,,,,,60,0,2,,,0,,,58,64
68820,note_on,,,,,0,0,2,,,0,,,62,21
68880,note_off,,,,,0,0,1,,,0,,,86,64
68880,note_on,,,,,0,0,1,,,0,,,84,40
68880,note_on,,,,,0,0,1,,,0,,,72,40
68880,note_off,,,,,240,0,1,,,0,,,74,64
68880,note_on,,,,,0,0,2,,,0,,,53,35
68880,control_change,,,,,0,0,2,,,0,64,127,,
68880,control_change,,,,,0,0,2,,,0,64,127,,
68880,note_off,,,,,60,0,2,,,0,,,62,64
68920,set_tempo,,,,,240,1,0,535714,,,,,,
68940,note_on,,,,,0,0,2,,,0,,,60,23
68940,note_off,,,,,60,0,2,,,0,,,53,64
69000,note_off,,,,,60,0,2,,,0,,,60,64
69000,note_on,,,,,0,0,2,,,0,,,56,21
69020,set_tempo,,,,,100,1,0,600000,,,,,,
69060,note_off,,,,,60,0,2,,,0,,,56,64
69060,note_on,,,,,0,0,2,,,0,,,60,18
69060,control_change,,,,,0,0,2,,,0,64,0,,
69080,set_tempo,,,,,60,1,0,681818,,,,,,
69120,note_on,,,,,0,0,1,,,0,,,71,31
69120,note_on,,,,,0,0,1,,,0,,,83,31
69120,note_off,,,,,0,0,1,,,0,,,84,64
69120,note_off,,,,,240,0,1,,,0,,,72,64
69120,note_off,,,,,60,0,2,,,0,,,60,64
69120,control_change,,,,,0,0,2,,,0,64,127,,
69120,control_change,,,,,0,0,2,,,0,64,127,,
69120,note_on,,,,,0,0,2,,,0,,,53,30
69140,set_tempo,,,,,60,1,0,625000,,,,,,
69180,note_on,,,,,0,0,2,,,0,,,59,28
69180,note_off,,,,,60,0,2,,,0,,,53,64
69240,note_off,,,,,60,0,2,,,0,,,59,64
69240,note_on,,,,,0,0,2,,,0,,,56,26
69240,set_tempo,,,,,100,1,0,576923,,,,,,
69300,note_off,,,,,60,0,2,,,0,,,56,64
69300,control_change,,,,,0,0,2,,,0,64,0,,
69300,note_on,,,,,0,0,2,,,0,,,59,25
69320,set_tempo,,,,,80,1,0,560748,,,,,,
69360,note_off,,,,,60,0,2,,,0,,,59,64
69360,control_change,,,,,0,0,2,,,0,64,127,,
69360,control_change,,,,,0,0,2,,,0,64,127,,
69360,note_on,,,,,0,0,2,,,0,,,53,24
69380,set_tempo,,,,,60,1,0,540541,,,,,,
69420,note_off,,,,,60,0,2,,,0,,,53,64
69420,note_on,,,,,0,0,2,,,0,,,59,24
69480,set_tempo,,,,,100,1,0,545455,,,,,,
69480,note_off,,,,,60,0,2,,,0,,,59,64
69480,note_on,,,,,0,0,2,,,0,,,56,24
69540,control_change,,,,,0,0,2,,,0,64,0,,
69540,note_off,,,,,60,0,2,,,0,,,56,64
69540,note_on,,,,,0,0,2,,,0,,,59,24
69600,note_off,,,,,60,0,2,,,0,,,59,64
69600,control_change,,,,,0,0,2,,,0,64,127,,
69600,control_change,,,,,0,0,2,,,0,64,127,,
69600,note_on,,,,,0,0,2,,,0,,,53,26
69660,set_tempo,,,,,180,1,0,576923,,,,,,
69660,note_off,,,,,60,0,2,,,0,,,53,64
69660,note_on,,,,,0,0,2,,,0,,,59,25
69720,note_off,,,,,60,0,2,,,0,,,59,64
69720,note_on,,,,,0,0,2,,,0,,,56,23
69780,note_off,,,,,60,0,2,,,0,,,56,64
69780,control_change,,,,,0,0,2,,,0,64,0,,
69780,note_on,,,,,0,0,2,,,0,,,59,19
69840,control_change,,,,,0,0,2,,,0,64,127,,
69840,note_on,,,,,0,0,2,,,0,,,53,19
69840,control_change,,,,,0,0,2,,,0,64,127,,
69840,note_off,,,,,60,0,2,,,0,,,59,64
69900,note_off,,,,,60,0,2,,,0,,,53,64
69900,note_on,,,,,0,0,2,,,0,,,59,18
69960,note_off,,,,,60,0,2,,,0,,,59,64
69960,note_on,,,,,0,0,2,,,0,,,56,18
70020,note_on,,,,,0,0,2,,,0,,,59,16
70020,note_off,,,,,60,0,2,,,0,,,56,64
70020,control_change,,,,,0,0,2,,,0,64,0,,
70080,control_change,,,,,0,0,2,,,0,64,127,,
70080,control_change,,,,,0,0,2,,,0,64,127,,
70080,note_on,,,,,0,0,2,,,0,,,53,16
70080,note_off,,,,,60,0,2,,,0,,,59,64
70140,note_off,,,,,60,0,2,,,0,,,53,64
70140,note_on,,,,,0,0,2,,,0,,,59,15
70170,note_off,,,,,1050,0,1,,,0,,,71,64
70170,note_off,,,,,0,0,1,,,0,,,83,64
70200,note_off,,,,,60,0,2,,,0,,,59,64
70200,note_on,,,,,30,0,1,,,0,,,71,29
70200,note_on,,,,,0,0,2,,,0,,,56,13
70260,note_off,,,,,60,0,2,,,0,,,56,64
70260,control_change,,,,,0,0,2,,,0,64,0,,
70260,note_on,,,,,0,0,2,,,0,,,59,14
70290,note_off,,,,,90,0,1,,,0,,,71,64
70300,set_tempo,,,,,640,1,0,526316,,,,,,
70320,note_off,,,,,60,0,2,,,0,,,59,64
70320,control_change,,,,,0,0,2,,,0,64,127,,
70320,note_on,,,,,0,0,2,,,0,,,53,21
70320,control_change,,,,,0,0,2,,,0,64,127,,
70320,note_on,,,,,30,0,1,,,0,,,71,34
70380,note_off,,,,,60,0,2,,,0,,,53,64
70380,note_on,,,,,0,0,2,,,0,,,59,20
70410,note_off,,,,,90,0,1,,,0,,,71,64
70440,note_on,,,,,30,0,1,,,0,,,71,39
70440,set_tempo,,,,,140,1,0,512821,,,,,,
70440,note_off,,,,,60,0,2,,,0,,,59,64
70440,note_on,,,,,0,0,2,,,0,,,56,22
70500,note_off,,,,,60,0,2,,,0,,,56,64
70500,note_on,,,,,0,0,2,,,0,,,59,24
70500,control_change,,,,,0,0,2,,,0,64,0,,
70530,note_off,,,,,90,0,1,,,0,,,71,64
70560,note_on,,,,,0,0,2,,,0,,,52,31
70560,control_change,,,,,0,0,2,,,0,64,127,,
70560,control_change,,,,,0,0,2,,,0,64,127,,
70560,note_on,,,,,30,0,1,,,0,,,71,41
70560,note_off,,,,,60,0,2,,,0,,,59,64
70580,set_tempo,,,,,140,1,0,491803,,,,,,
70620,note_off,,,,,60,0,2,,,0,,,52,64
70620,note_on,,,,,0,0,2,,,0,,,59,26
70650,note_off,,,,,90,0,1,,,0,,,71,64
70680,note_on,,,,,30,0,1,,,0,,,71,38
70680,note_off,,,,,60,0,2,,,0,,,59,64
70680,note_on,,,,,0,0,2,,,0,,,56,31
70700,set_tempo,,,,,120,1,0,476190,,,,,,
70740,set_tempo,,,,,40,1,0,472441,,,,,,
70740,note_off,,,,,60,0,2,,,0,,,56,64
70740,note_on,,,,,0,0,2,,,0,,,59,35
70740,control_change,,,,,0,0,2,,,0,64,0,,
70770,note_off,,,,,90,0,1,,,0,,,71,64
70800,note_on,,,,,0,0,2,,,0,,,50,40
70800,control_change,,,,,0,0,2,,,0,64,127,,
70800,control_change,,,,,0,0,2,,,0,64,127,,
70800,note_off,,,,,60,0,2,,,0,,,59,64
70800,note_on,,,,,30,0,1,,,0,,,71,34
70820,set_tempo,,,,,80,1,0,465116,,,,,,
70860,note_off,,,,,60,0,2,,,0,,,50,64
70860,note_on,,,,,0,0,2,,,0,,,59,40
70890,note_off,,,,,90,0,1,,,0,,,71,64
70920,note_off,,,,,60,0,2,,,0,,,59,64
70920,note_on,,,,,0,0,2,,,0,,,56,37
70920,note_on,,,,,30,0,1,,,0,,,71,35
70980,note_off,,,,,60,0,2,,,0,,,56,64
70980,note_on,,,,,0,0,2,,,0,,,59,32
70980,control_change,,,,,0,0,2,,,0,64,0,,
71010,note_off,,,,,90,0,1,,,0,,,71,64
71040,note_on,,,,,30,0,1,,,0,,,72,53
71040,note_off,,,,,60,0,2,,,0,,,59,64
71040,control_change,,,,,0,0,2,,,0,64,127,,
71040,control_change,,,,,0,0,2,,,0,64,127,,
71040,note_on,,,,,0,0,2,,,0,,,48,40
71100,note_on,,,,,0,0,2,,,0,,,60,28
71100,note_off,,,,,60,0,2,,,0,,,48,64
71160,note_off,,,,,60,0,2,,,0,,,60,64
71160,note_on,,,,,0,0,2,,,0,,,57,32
71220,note_on,,,,,0,0,2,,,0,,,60,35
71220,note_off,,,,,60,0,2,,,0,,,57,64
71258,control_change,,,,,38,0,2,,,0,64,0,,
71280,note_off,,,,,22,0,2,,,0,,,60,64
71280,control_change,,,,,0,0,2,,,0,64,127,,
71280,control_change,,,,,0,0,2,,,0,64,127,,
71280,note_on,,,,,0,0,2,,,0,,,48,40
71340,note_off,,,,,60,0,2,,,0,,,48,64
71340,note_on,,,,,0,0,2,,,0,,,62,30
71400,note_off,,,,,60,0,2,,,0,,,62,64
71400,note_on,,,,,0,0,2,,,0,,,58,31
71460,note_on,,,,,0,0,2,,,0,,,62,34
71460,note_off,,,,,60,0,2,,,0,,,58,64
71460,note_off,,,,,420,0,1,,,0,,,72,64
71460,note_on,,,,,0,0,1,,,0,,,74,41
71498,control_change,,,,,38,0,2,,,0,64,0,,
71520,note_off,,,,,22,0,2,,,0,,,62,64
71520,control_change,,,,,0,0,2,,,0,64,127,,
71520,control_change,,,,,0,0,2,,,0,64,127,,
71520,note_on,,,,,0,0,2,,,0,,,48,36
71520,note_on,,,,,0,0,1,,,0,,,72,46
71520,note_off,,,,,60,0,1,,,0,,,74,64
71580,note_on,,,,,0,0,2,,,0,,,60,39
71580,note_off,,,,,60,0,2,,,0,,,48,64
71640,note_on,,,,,0,0,2,,,0,,,57,42
71640,note_off,,,,,60,0,2,,,0,,,60,64
71640,note_off,,,,,120,0,1,,,0,,,72,64
71700,note_off,,,,,60,0,2,,,0,,,57,64
71700,note_on,,,,,0,0,2,,,0,,,60,44
71730,note_on,,,,,90,0,1,,,0,,,77,52
71738,control_change,,,,,38,0,2,,,0,64,0,,
71760,note_off,,,,,22,0,2,,,0,,,60,64
71760,control_change,,,,,0,0,2,,,0,64,127,,
71760,control_change,,,,,0,0,2,,,0,64,127,,
71760,note_off,,,,,30,0,1,,,0,,,77,64
71760,note_on,,,,,0,0,1,,,0,,,79,49
71760,note_on,,,,,0,0,2,,,0,,,48,46
71790,note_off,,,,,30,0,1,,,0,,,79,64
71790,note_on,,,,,0,0,1,,,0,,,77,49
71820,note_off,,,,,30,0,1,,,0,,,77,64
71820,note_on,,,,,0,0,1,,,0,,,79,47
71820,note_off,,,,,60,0,2,,,0,,,48,64
71820,note_on,,,,,0,0,2,,,0,,,62,42
71850,note_off,,,,,30,0,1,,,0,,,79,64
71850,note_on,,,,,0,0,1,,,0,,,77,48
71880,note_off,,,,,30,0,1,,,0,,,77,64
71880,note_on,,,,,0,0,1,,,0,,,79,51
71880,note_on,,,,,0,0,2,,,0,,,58,48
71880,note_off,,,,,60,0,2,,,0,,,62,64
71910,note_on,,,,,0,0,1,,,0,,,77,56
71910,note_off,,,,,30,0,1,,,0,,,79,64
71940,note_off,,,,,60,0,2,,,0,,,58,64
71940,note_on,,,,,0,0,1,,,0,,,76,60
71940,note_off,,,,,30,0,1,,,0,,,77,64
71940,note_on,,,,,0,0,2,,,0,,,62,57
71970,note_on,,,,,0,0,1,,,0,,,77,65
71970,note_off,,,,,30,0,1,,,0,,,76,64
71978,control_change,,,,,38,0,2,,,0,64,0,,
72000,note_on,,,,,0,0,2,,,0,,,48,64
72000,control_change,,,,,0,0,2,,,0,64,127,,
72000,control_change,,,,,0,0,2,,,0,64,127,,
72000,note_on,,,,,0,0,1,,,0,,,69,69
72000,note_off,,,,,30,0,1,,,0,,,77,64
72000,note_off,,,,,22,0,2,,,0,,,62,64
72000,note_on,,,,,0,0,1,,,0,,,81,69
72060,note_off,,,,,60,0,2,,,0,,,48,64
72060,note_on,,,,,0,0,2,,,0,,,60,60
72120,note_off,,,,,60,0,2,,,0,,,60,64
72120,note_on,,,,,0,0,2,,,0,,,57,56
72180,note_on,,,,,0,0,2,,,0,,,60,49
72180,note_off,,,,,60,0,2,,,0,,,57,64
72218,control_change,,,,,38,0,2,,,0,64,0,,
72240,control_change,,,,,0,0,2,,,0,64,127,,
72240,control_change,,,,,0,0,2,,,0,64,127,,
72240,note_on,,,,,0,0,2,,,0,,,48,49
72240,note_off,,,,,22,0,2,,,0,,,60,64
72300,note_off,,,,,60,0,2,,,0,,,48,64
72300,note_on,,,,,0,0,2,,,0,,,62,46
72360,note_off,,,,,60,0,2,,,0,,,62,64
72360,note_on,,,,,0,0,2,,,0,,,58,42
72420,note_off,,,,,0,0,1,,,0,,,81,64
72420,note_on,,,,,0,0,1,,,0,,,79,57
72420,note_on,,,,,0,0,1,,,0,,,67,57
72420,note_off,,,,,420,0,1,,,0,,,69,64
72420,note_on,,,,,0,0,2,,,0,,,62,39
72420,note_off,,,,,60,0,2,,,0,,,58,64
72458,control_change,,,,,38,0,2,,,0,64,0,,
72480,control_change,,,,,0,0,2,,,0,64,127,,
72480,note_off,,,,,60,0,1,,,0,,,67,64
72480,note_off,,,,,22,0,2,,,0,,,62,64
72480,control_change,,,,,0,0,2,,,0,64,127,,
72480,note_on,,,,,0,0,1,,,0,,,65,48
72480,note_off,,,,,0,0,1,,,0,,,79,64
72480,note_on,,,,,0,0,1,,,0,,,77,48
72480,note_on,,,,,0,0,2,,,0,,,48,38
72540,note_on,,,,,0,0,2,,,0,,,60,36
72540,note_off,,,,,60,0,2,,,0,,,48,64
72600,note_off,,,,,0,0,1,,,0,,,77,64
72600,note_on,,,,,0,0,2,,,0,,,57,33
72600,note_off,,,,,60,0,2,,,0,,,60,64
72600,note_off,,,,,120,0,1,,,0,,,65,64
72660,note_on,,,,,0,0,2,,,0,,,60,28
72660,note_off,,,,,60,0,2,,,0,,,57,64
72698,control_change,,,,,38,0,2,,,0,64,0,,
72720,note_on,,,,,0,0,2,,,0,,,48,30
72720,control_change,,,,,0,0,2,,,0,64,127,,
72720,note_off,,,,,22,0,2,,,0,,,60,64
72720,control_change,,,,,0,0,2,,,0,64,127,,
72720,note_on,,,,,120,0,1,,,0,,,74,53
72780,note_on,,,,,0,0,2,,,0,,,62,28
72780,note_off,,,,,60,0,2,,,0,,,48,64
72840,note_on,,,,,0,0,2,,,0,,,58,26
72840,note_off,,,,,60,0,2,,,0,,,62,64
72900,note_off,,,,,60,0,2,,,0,,,58,64
72900,note_on,,,,,0,0,2,,,0,,,62,20
72938,control_change,,,,,38,0,2,,,0,64,0,,
72960,note_on,,,,,0,0,1,,,0,,,72,63
72960,note_off,,,,,240,0,1,,,0,,,74,64
72960,control_change,,,,,0,0,2,,,0,64,127,,
72960,control_change,,,,,0,0,2,,,0,64,127,,
72960,note_off,,,,,22,0,2,,,0,,,62,64
72960,note_on,,,,,0,0,2,,,0,,,48,40
73020,note_off,,,,,60,0,2,,,0,,,48,64
73020,note_on,,,,,0,0,2,,,0,,,60,36
73080,note_on,,,,,0,0,2,,,0,,,57,43
73080,note_off,,,,,60,0,2,,,0,,,60,64
73140,note_off,,,,,60,0,2,,,0,,,57,64
73140,note_on,,,,,0,0,2,,,0,,,60,46
73178,control_change,,,,,38,0,2,,,0,64,0,,
73200,note_off,,,,,22,0,2,,,0,,,60,64
73200,control_change,,,,,0,0,2,,,0,64,127,,
73200,control_change,,,,,0,0,2,,,0,64,127,,
73200,note_on,,,,,0,0,2,,,0,,,48,49
73260,note_off,,,,,60,0,2,,,0,,,48,64
73260,note_on,,,,,0,0,2,,,0,,,62,51
73320,note_off,,,,,60,0,2,,,0,,,62,64
73320,note_on,,,,,0,0,2,,,0,,,58,55
73380,note_on,,,,,0,0,1,,,0,,,74,68
73380,note_off,,,,,420,0,1,,,0,,,72,64
73380,note_off,,,,,60,0,2,,,0,,,58,64
73380,note_on,,,,,0,0,2,,,0,,,62,56
73418,control_change,,,,,38,0,2,,,0,64,0,,
73440,note_on,,,,,0,0,2,,,0,,,48,61
73440,control_change,,,,,0,0,2,,,0,64,127,,
73440,control_change,,,,,0,0,2,,,0,64,127,,
73440,note_off,,,,,60,0,1,,,0,,,74,64
73440,note_on,,,,,0,0,1,,,0,,,72,65
73440,note_off,,,,,22,0,2,,,0,,,62,64
73500,note_off,,,,,60,0,2,,,0,,,48,64
73500,note_on,,,,,0,0,2,,,0,,,60,63
73560,note_off,,,,,60,0,2,,,0,,,60,64
73560,note_on,,,,,0,0,2,,,0,,,57,69
73560,note_off,,,,,120,0,1,,,0,,,72,64
73620,note_off,,,,,60,0,2,,,0,,,57,64
73620,note_on,,,,,0,0,2,,,0,,,60,71
73650,note_on,,,,,90,0,1,,,0,,,89,83
73658,control_change,,,,,38,0,2,,,0,64,0,,
73680,note_off,,,,,22,0,2,,,0,,,60,64
73680,note_on,,,,,0,0,2,,,0,,,48,78
73680,control_change,,,,,0,0,2,,,0,64,127,,
73680,note_off,,,,,30,0,1,,,0,,,89,64
73680,note_on,,,,,0,0,1,,,0,,,91,83
73680,control_change,,,,,0,0,2,,,0,64,127,,
73710,note_off,,,,,30,0,1,,,0,,,91,64
73710,note_on,,,,,0,0,1,,,0,,,89,73
73740,note_off,,,,,30,0,1,,,0,,,89,64
73740,note_on,,,,,0,0,1,,,0,,,91,73
73740,note_off,,,,,60,0,2,,,0,,,48,64
73740,note_on,,,,,0,0,2,,,0,,,62,83
73770,note_on,,,,,0,0,1,,,0,,,89,79
73770,note_off,,,,,30,0,1,,,0,,,91,64
73800,note_on,,,,,0,0,1,,,0,,,91,84
73800,note_off,,,,,30,0,1,,,0,,,89,64
73800,note_on,,,,,0,0,2,,,0,,,58,89
73800,note_off,,,,,60,0,2,,,0,,,62,64
73830,note_on,,,,,0,0,1,,,0,,,89,91
73830,note_off,,,,,30,0,1,,,0,,,91,64
73860,note_off,,,,,30,0,1,,,0,,,89,64
73860,note_on,,,,,0,0,2,,,0,,,62,92
73860,note_off,,,,,60,0,2,,,0,,,58,64
73860,note_on,,,,,0,0,1,,,0,,,88,98
73890,note_off,,,,,30,0,1,,,0,,,88,64
73890,note_on,,,,,0,0,1,,,0,,,89,107
73898,control_change,,,,,38,0,2,,,0,64,0,,
73920,note_on,,,,,0,0,1,,,0,,,81,115
73920,note_on,,,,,0,0,1,,,0,,,93,115
73920,note_off,,,,,30,0,1,,,0,,,89,64
73920,note_off,,,,,22,0,2,,,0,,,62,64
73920,control_change,,,,,0,0,2,,,0,64,127,,
73920,control_change,,,,,0,0,2,,,0,64,127,,
73920,note_on,,,,,0,0,2,,,0,,,48,95
73980,note_on,,,,,0,0,2,,,0,,,60,94
73980,note_off,,,,,60,0,2,,,0,,,48,64
74040,note_off,,,,,60,0,2,,,0,,,60,64
74040,note_on,,,,,0,0,2,,,0,,,57,89
74100,note_on,,,,,0,0,2,,,0,,,60,84
74100,note_off,,,,,60,0,2,,,0,,,57,64
74138,control_change,,,,,38,0,2,,,0,64,0,,
74160,note_on,,,,,0,0,2,,,0,,,48,84
74160,control_change,,,,,0,0,2,,,0,64,127,,
74160,control_change,,,,,0,0,2,,,0,64,127,,
74160,note_off,,,,,22,0,2,,,0,,,60,64
74220,note_on,,,,,0,0,2,,,0,,,62,81
74220,note_off,,,,,60,0,2,,,0,,,48,64
74280,note_on,,,,,0,0,2,,,0,,,58,77
74280,note_off,,,,,60,0,2,,,0,,,62,64
74340,note_off,,,,,0,0,1,,,0,,,93,64
74340,note_on,,,,,0,0,1,,,0,,,91,95
74340,note_on,,,,,0,0,1,,,0,,,79,95
74340,note_off,,,,,420,0,1,,,0,,,81,64
74340,note_off,,,,,60,0,2,,,0,,,58,64
74340,note_on,,,,,0,0,2,,,0,,,62,72
74378,control_change,,,,,38,0,2,,,0,64,0,,
74400,note_on,,,,,0,0,1,,,0,,,77,85
74400,note_off,,,,,60,0,1,,,0,,,79,64
74400,note_on,,,,,0,0,1,,,0,,,89,85
74400,note_off,,,,,0,0,1,,,0,,,91,64
74400,control_change,,,,,0,0,2,,,0,64,127,,
74400,control_change,,,,,0,0,2,,,0,64,127,,
74400,note_off,,,,,22,0,2,,,0,,,62,64
74400,note_on,,,,,0,0,2,,,0,,,48,74
74460,note_off,,,,,60,0,2,,,0,,,48,64
74460,note_on,,,,,0,0,2,,,0,,,60,76
74520,note_off,,,,,60,0,2,,,0,,,60,64
74520,note_off,,,,,0,0,1,,,0,,,89,64
74520,note_off,,,,,120,0,1,,,0,,,77,64
74520,note_on,,,,,0,0,2,,,0,,,57,80
74540,set_tempo,,,,,3720,1,0,472441,,,,,,
74580,note_off,,,,,60,0,2,,,0,,,57,64
74580,note_on,,,,,0,0,2,,,0,,,60,82
74618,control_change,,,,,38,0,2,,,0,64,0,,
74640,note_off,,,,,22,0,2,,,0,,,60,64
74640,control_change,,,,,0,0,2,,,0,64,127,,
74640,control_change,,,,,0,0,2,,,0,64,127,,
74640,note_on,,,,,0,0,1,,,0,,,82,114
74640,note_on,,,,,0,0,1,,,0,,,77,114
74640,note_on,,,,,0,0,1,,,0,,,74,114
74640,note_on,,,,,120,0,1,,,0,,,86,114
74640,note_on,,,,,0,0,2,,,0,,,48,86
74700,note_on,,,,,0,0,2,,,0,,,62,90
74700,note_off,,,,,60,0,2,,,0,,,48,64
74760,note_on,,,,,0,0,2,,,0,,,58,95
74760,note_off,,,,,60,0,2,,,0,,,62,64
74820,note_on,,,,,0,0,2,,,0,,,62,98
74820,note_off,,,,,60,0,2,,,0,,,58,64
74880,note_off,,,,,0,0,1,,,0,,,82,64
74880,note_on,,,,,0,0,2,,,0,,,48,98
74880,control_change,,,,,0,0,2,,,0,64,127,,
74880,control_change,,,,,0,0,2,,,0,64,127,,
74880,note_off,,,,,60,0,2,,,0,,,62,64
74880,note_off,,,,,0,0,1,,,0,,,77,64
74880,note_off,,,,,240,0,1,,,0,,,74,64
74880,note_off,,,,,0,0,1,,,0,,,86,64
74880,note_on,,,,,0,0,1,,,0,,,72,109
74880,note_on,,,,,0,0,1,,,0,,,77,109
74880,note_on,,,,,0,0,1,,,0,,,81,109
74880,note_on,,,,,0,0,1,,,0,,,84,109
74940,note_on,,,,,0,0,2,,,0,,,60,93
74940,note_off,,,,,60,0,2,,,0,,,48,64
75000,note_off,,,,,60,0,2,,,0,,,60,64
75000,note_on,,,,,0,0,2,,,0,,,57,89
75040,set_tempo,,,,,500,1,0,491803,,,,,,
75060,note_off,,,,,60,0,2,,,0,,,57,64
75060,note_on,,,,,0,0,2,,,0,,,60,83
75096,note_off,,,,,0,0,1,,,0,,,84,64
75096,note_off,,,,,0,0,1,,,0,,,77,64
75096,note_off,,,,,0,0,1,,,0,,,81,64
75096,note_off,,,,,216,0,1,,,0,,,72,64
75098,control_change,,,,,38,0,2,,,0,64,0,,
75120,control_change,,,,,0,0,2,,,0,64,127,,
75120,note_on,,,,,0,0,2,,,0,,,48,78
75120,note_on,,,,,24,0,1,,,0,,,86,103
75120,note_on,,,,,0,0,1,,,0,,,82,103
75120,note_on,,,,,0,0,1,,,0,,,77,103
75120,note_on,,,,,0,0,1,,,0,,,74,103
75120,note_off,,,,,22,0,2,,,0,,,60,64
75120,control_change,,,,,0,0,2,,,0,64,127,,
75180,note_on,,,,,0,0,2,,,0,,,62,78
75180,note_off,,,,,60,0,2,,,0,,,48,64
75240,note_off,,,,,60,0,2,,,0,,,62,64
75240,note_on,,,,,0,0,2,,,0,,,58,75
75300,note_off,,,,,60,0,2,,,0,,,58,64
75300,note_on,,,,,0,0,2,,,0,,,62,75
75336,note_off,,,,,216,0,1,,,0,,,74,64
75336,note_off,,,,,0,0,1,,,0,,,77,64
75336,note_off,,,,,0,0,1,,,0,,,86,64
75336,note_off,,,,,0,0,1,,,0,,,82,64
75338,control_change,,,,,38,0,2,,,0,64,0,,
75360,control_change,,,,,0,0,2,,,0,64,127,,
75360,control_change,,,,,0,0,2,,,0,64,127,,
75360,note_off,,,,,22,0,2,,,0,,,62,64
75360,note_on,,,,,0,0,2,,,0,,,48,74
75360,note_on,,,,,24,0,1,,,0,,,89,116
75360,note_on,,,,,0,0,1,,,0,,,81,116
75360,note_on,,,,,0,0,1,,,0,,,84,116
75360,note_on,,,,,0,0,1,,,0,,,77,116
75420,note_on,,,,,0,0,2,,,0,,,60,74
75420,note_off,,,,,60,0,2,,,0,,,48,64
75480,note_on,,,,,0,0,2,,,0,,,57,80
75480,note_off,,,,,60,0,2,,,0,,,60,64
75540,note_on,,,,,0,0,2,,,0,,,60,81
75540,set_tempo,,,,,500,1,0,508475,,,,,,
75540,note_off,,,,,60,0,2,,,0,,,57,64
75576,note_off,,,,,216,0,1,,,0,,,77,64
75576,note_off,,,,,0,0,1,,,0,,,84,64
75576,note_off,,,,,0,0,1,,,0,,,81,64
75576,note_off,,,,,0,0,1,,,0,,,89,64
75578,control_change,,,,,38,0,2,,,0,64,0,,
75600,note_off,,,,,22,0,2,,,0,,,60,64
75600,note_on,,,,,0,0,1,,,0,,,79,127
75600,note_on,,,,,0,0,1,,,0,,,84,127
75600,note_on,,,,,0,0,1,,,0,,,88,127
75600,control_change,,,,,0,0,2,,,0,64,127,,
75600,note_on,,,,,24,0,1,,,0,,,91,127
75600,control_change,,,,,0,0,2,,,0,64,127,,
75600,note_on,,,,,0,0,2,,,0,,,48,86
75660,set_tempo,,,,,120,1,0,526316,,,,,,
75660,note_off,,,,,60,0,2,,,0,,,48,64
75660,note_on,,,,,0,0,2,,,0,,,60,93
75720,note_off,,,,,60,0,2,,,0,,,60,64
75720,note_on,,,,,0,0,2,,,0,,,58,97
75760,set_tempo,,,,,100,1,0,714286,,,,,,
75780,note_on,,,,,0,0,2,,,0,,,60,103
75780,note_off,,,,,60,0,2,,,0,,,58,64
75816,note_off,,,,,216,0,1,,,0,,,79,64
75816,note_off,,,,,0,0,1,,,0,,,91,64
75816,note_off,,,,,0,0,1,,,0,,,84,64
75816,note_off,,,,,0,0,1,,,0,,,88,64
75840,note_on,,,,,0,0,1,,,0,,,84,127
75840,note_on,,,,,0,0,1,,,0,,,79,127
75840,note_on,,,,,24,0,1,,,0,,,91,127
75840,set_tempo,,,,,80,1,0,545455,,,,,,
75840,note_off,,,,,60,0,2,,,0,,,60,64
75840,note_on,,,,,0,0,2,,,0,,,48,112
75840,note_on,,,,,0,0,2,,,0,,,58,112
75840,note_on,,,,,0,0,2,,,0,,,60,112
75840,control_change,,,,,0,0,2,,,0,64,127,,
75840,note_on,,,,,0,0,1,,,0,,,88,127
76300,set_tempo,,,,,460,1,0,714286,,,,,,
76320,note_on,,,,,0,0,1,,,0,,,88,106
76320,note_off,,,,,0,0,1,,,0,,,91,64
76320,note_off,,,,,0,0,1,,,0,,,84,64
76320,note_off,,,,,480,0,1,,,0,,,79,64
76320,control_change,,,,,480,0,2,,,0,64,0,,
76320,note_off,,,,,0,0,1,,,0,,,88,64
76400,note_on,,,,,0,0,1,,,0,,,84,91
76400,note_off,,,,,80,0,1,,,0,,,88,64
76420,set_tempo,,,,,120,1,0,631579,,,,,,
76480,note_on,,,,,0,0,1,,,0,,,79,82
76480,note_off,,,,,80,0,1,,,0,,,84,64
76520,set_tempo,,,,,100,1,0,582524,,,,,,
76560,note_on,,,,,0,0,1,,,0,,,76,70
76560,note_off,,,,,80,0,1,,,0,,,79,64
76600,set_tempo,,,,,80,1,0,535714,,,,,,
76640,note_on,,,,,0,0,1,,,0,,,79,63
76640,note_off,,,,,80,0,1,,,0,,,76,64
76680,set_tempo,,,,,80,1,0,500000,,,,,,
76720,note_off,,,,,80,0,1,,,0,,,79,64
76720,note_on,,,,,0,0,1,,,0,,,84,56
76800,note_on,,,,,0,0,2,,,0,,,53,53
76800,note_off,,,,,80,0,1,,,0,,,84,64
76800,note_on,,,,,0,0,1,,,0,,,77,63
76800,note_off,,,,,480,0,2,,,0,,,60,64
76800,note_off,,,,,0,0,2,,,0,,,58,64
76800,note_off,,,,,0,0,2,,,0,,,48,64
76800,note_on,,,,,0,0,2,,,0,,,57,53
76800,note_on,,,,,0,0,2,,,0,,,60,53
76820,set_tempo,,,,,140,1,0,472441,,,,,,
76880,note_off,,,,,80,0,1,,,0,,,77,64
76880,note_on,,,,,0,0,1,,,0,,,84,60
76940,note_off,,,,,60,0,1,,,0,,,84,64
76960,note_on,,,,,20,0,1,,,0,,,81,57
77020,note_off,,,,,60,0,1,,,0,,,81,64
77040,note_off,,,,,240,0,2,,,0,,,60,64
77040,note_off,,,,,0,0,2,,,0,,,57,64
77040,note_off,,,,,0,0,2,,,0,,,53,64
77040,note_on,,,,,20,0,1,,,0,,,77,55
77060,set_tempo,,,,,240,1,0,458015,,,,,,
77100,note_off,,,,,60,0,1,,,0,,,77,64
77120,note_on,,,,,20,0,1,,,0,,,72,50
77180,note_off,,,,,60,0,1,,,0,,,72,64
77200,note_on,,,,,20,0,1,,,0,,,69,45
77260,note_off,,,,,60,0,1,,,0,,,69,64
77280,note_on,,,,,240,0,2,,,0,,,60,40
77280,note_on,,,,,0,0,2,,,0,,,57,40
77280,note_on,,,,,0,0,2,,,0,,,53,40
77280,note_on,,,,,20,0,1,,,0,,,65,51
77300,set_tempo,,,,,240,1,0,476190,,,,,,
77340,note_off,,,,,60,0,1,,,0,,,65,64
77360,note_on,,,,,20,0,1,,,0,,,69,40
77400,note_off,,,,,120,0,2,,,0,,,53,64
77400,note_off,,,,,0,0,2,,,0,,,57,64
77400,note_off,,,,,0,0,2,,,0,,,60,64
77400,set_tempo,,,,,100,1,0,495868,,,,,,
77420,note_off,,,,,60,0,1,,,0,,,69,64
77440,note_on,,,,,20,0,1,,,0,,,72,46
77500,note_off,,,,,60,0,1,,,0,,,72,64
77520,note_on,,,,,0,0,2,,,0,,,53,51
77520,note_on,,,,,0,0,2,,,0,,,60,51
77520,note_on,,,,,120,0,2,,,0,,,63,51
77520,note_on,,,,,20,0,1,,,0,,,69,50
77580,note_off,,,,,60,0,1,,,0,,,69,64
77600,note_on,,,,,20,0,1,,,0,,,72,54
77640,note_off,,,,,0,0,2,,,0,,,63,64
77640,note_off,,,,,120,0,2,,,0,,,53,64
77640,set_tempo,,,,,240,1,0,526316,,,,,,
77640,note_off,,,,,0,0,2,,,0,,,60,64
77660,note_off,,,,,60,0,1,,,0,,,72,64
77680,note_on,,,,,20,0,1,,,0,,,77,57
77740,note_off,,,,,60,0,1,,,0,,,77,64
77760,note_on,,,,,0,0,2,,,0,,,62,62
77760,note_on,,,,,120,0,2,,,0,,,53,62
77760,note_on,,,,,20,0,1,,,0,,,77,58
77760,note_on,,,,,0,0,2,,,0,,,58,62
77800,set_tempo,,,,,160,1,0,535714,,,,,,
77840,note_off,,,,,80,0,1,,,0,,,77,64
77840,note_on,,,,,0,0,1,,,0,,,86,53
77880,set_tempo,,,,,80,1,0,500000,,,,,,
77900,note_off,,,,,60,0,1,,,0,,,86,64
77920,note_on,,,,,20,0,1,,,0,,,82,51
77980,note_off,,,,,60,0,1,,,0,,,82,64
77980,set_tempo,,,,,100,1,0,480000,,,,,,
78000,note_on,,,,,20,0,1,,,0,,,77,50
78000,note_off,,,,,240,0,2,,,0,,,62,64
78000,note_off,,,,,0,0,2,,,0,,,53,64
78000,note_off,,,,,0,0,2,,,0,,,58,64
78060,note_off,,,,,60,0,1,,,0,,,77,64
78080,note_on,,,,,20,0,1,,,0,,,74,47
78140,note_off,,,,,60,0,1,,,0,,,74,64
78160,note_on,,,,,20,0,1,,,0,,,70,49
78160,set_tempo,,,,,180,1,0,468750,,,,,,
78220,note_off,,,,,60,0,1,,,0,,,70,64
78240,note_on,,,,,20,0,1,,,0,,,65,52
78240,note_on,,,,,0,0,2,,,0,,,53,41
78240,note_on,,,,,0,0,2,,,0,,,58,41
78240,note_on,,,,,240,0,2,,,0,,,62,41
78300,note_off,,,,,60,0,1,,,0,,,65,64
78320,note_on,,,,,20,0,1,,,0,,,70,58
78360,note_off,,,,,0,0,2,,,0,,,62,64
78360,note_off,,,,,0,0,2,,,0,,,58,64
78360,note_off,,,,,120,0,2,,,0,,,53,64
78380,note_off,,,,,60,0,1,,,0,,,70,64
78400,set_tempo,,,,,240,1,0,483871,,,,,,
78400,note_on,,,,,20,0,1,,,0,,,74,63
78460,note_off,,,,,60,0,1,,,0,,,74,64
78480,note_on,,,,,20,0,1,,,0,,,70,67
78480,note_on,,,,,0,0,2,,,0,,,53,51
78480,note_on,,,,,120,0,2,,,0,,,65,51
78480,note_on,,,,,0,0,2,,,0,,,62,51
78540,note_off,,,,,60,0,1,,,0,,,70,64
78560,note_on,,,,,20,0,1,,,0,,,74,72
78600,note_off,,,,,120,0,2,,,0,,,53,64
78600,note_off,,,,,0,0,2,,,0,,,65,64
78600,note_off,,,,,0,0,2,,,0,,,62,64
78620,note_off,,,,,60,0,1,,,0,,,74,64
78640,note_on,,,,,20,0,1,,,0,,,77,75
78700,note_off,,,,,60,0,1,,,0,,,77,64
78720,note_on,,,,,20,0,1,,,0,,,77,75
78720,note_on,,,,,0,0,2,,,0,,,53,61
78720,note_on,,,,,0,0,2,,,0,,,60,61
78720,note_on,,,,,120,0,2,,,0,,,57,61
78720,set_tempo,,,,,320,1,0,476190,,,,,,
78800,note_off,,,,,80,0,1,,,0,,,77,64
78800,note_on,,,,,0,0,1,,,0,,,89,72
78860,note_off,,,,,60,0,1,,,0,,,89,64
78860,set_tempo,,,,,140,1,0,480000,,,,,,
78880,set_tempo,,,,,20,1,0,483871,,,,,,
78880,note_on,,,,,20,0,1,,,0,,,84,69
78900,set_tempo,,,,,20,1,0,476190,,,,,,
78920,set_tempo,,,,,20,1,0,465116,,,,,,
78940,note_off,,,,,60,0,1,,,0,,,84,64
78960,note_on,,,,,20,0,1,,,0,,,81,65
78960,note_off,,,,,240,0,2,,,0,,,53,64
78960,note_off,,,,,0,0,2,,,0,,,60,64
78960,note_off,,,,,0,0,2,,,0,,,57,64
79020,note_off,,,,,60,0,1,,,0,,,81,64
79040,note_on,,,,,20,0,1,,,0,,,77,61
79040,set_tempo,,,,,120,1,0,451128,,,,,,
79100,note_off,,,,,60,0,1,,,0,,,77,64
79120,note_on,,,,,20,0,1,,,0,,,72,59
79180,note_off,,,,,60,0,1,,,0,,,72,64
79200,note_on,,,,,0,0,2,,,0,,,57,39
79200,note_on,,,,,240,0,2,,,0,,,53,39
79200,note_on,,,,,20,0,1,,,0,,,69,58
79260,note_off,,,,,60,0,1,,,0,,,69,64
79280,note_on,,,,,20,0,1,,,0,,,65,56
79320,note_off,,,,,0,0,2,,,0,,,53,64
79320,note_off,,,,,120,0,2,,,0,,,57,64
79340,note_off,,,,,60,0,1,,,0,,,65,64
79340,set_tempo,,,,,300,1,0,465116,,,,,,
79360,note_on,,,,,20,0,1,,,0,,,60,55
79420,note_off,,,,,60,0,1,,,0,,,60,64
79440,note_on,,,,,20,0,1,,,0,,,65,54
79440,note_on,,,,,120,0,2,,,0,,,57,52
79440,note_on,,,,,0,0,2,,,0,,,60,52
79500,note_off,,,,,60,0,1,,,0,,,65,64
79520,note_on,,,,,20,0,1,,,0,,,69,54
79560,note_off,,,,,120,0,2,,,0,,,60,64
79560,note_off,,,,,0,0,2,,,0,,,57,64
79580,note_off,,,,,60,0,1,,,0,,,69,64
79600,set_tempo,,,,,260,1,0,480000,,,,,,
79600,note_on,,,,,20,0,1,,,0,,,72,55
79660,note_off,,,,,60,0,1,,,0,,,72,64
79680,note_on,,,,,0,0,2,,,0,,,57,61
79680,note_on,,,,,120,0,2,,,0,,,60,61
79680,note_on,,,,,20,0,1,,,0,,,72,62
79680,control_change,,,,,0,0,2,,,0,64,127,,
79680,note_on,,,,,0,0,2,,,0,,,48,61
79760,note_off,,,,,80,0,1,,,0,,,72,64
79760,note_on,,,,,0,0,1,,,0,,,77,58
79820,note_off,,,,,60,0,1,,,0,,,77,64
79824,note_off,,,,,0,0,2,,,0,,,57,64
79824,note_off,,,,,144,0,2,,,0,,,48,64
79824,note_off,,,,,0,0,2,,,0,,,60,64
79840,note_on,,,,,20,0,1,,,0,,,77,55
79890,control_change,,,,,66,0,2,,,0,64,0,,
79900,note_off,,,,,60,0,1,,,0,,,77,64
79920,note_on,,,,,20,0,1,,,0,,,74,65
79920,note_on,,,,,0,0,2,,,0,,,48,55
79920,note_on,,,,,0,0,2,,,0,,,58,55
79920,control_change,,,,,0,0,2,,,0,64,127,,
79920,note_on,,,,,30,0,2,,,0,,,62,55
80000,note_off,,,,,80,0,1,,,0,,,74,64
80000,note_on,,,,,0,0,1,,,0,,,79,62
80016,note_off,,,,,96,0,2,,,0,,,58,64
80016,note_off,,,,,0,0,2,,,0,,,48,64
80016,note_off,,,,,0,0,2,,,0,,,62,64
80060,note_off,,,,,60,0,1,,,0,,,79,64
80080,note_on,,,,,20,0,1,,,0,,,79,58
80100,control_change,,,,,84,0,2,,,0,64,0,,
80140,note_off,,,,,60,0,1,,,0,,,79,64
80160,control_change,,,,,0,0,2,,,0,64,127,,
80160,note_on,,,,,60,0,2,,,0,,,60,48
80160,note_on,,,,,0,0,2,,,0,,,57,48
80160,note_on,,,,,20,0,1,,,0,,,72,61
80160,note_on,,,,,0,0,2,,,0,,,48,48
80240,note_on,,,,,0,0,1,,,0,,,77,57
80240,note_off,,,,,80,0,1,,,0,,,72,64
80256,note_off,,,,,0,0,2,,,0,,,57,64
80256,note_off,,,,,96,0,2,,,0,,,48,64
80256,note_off,,,,,0,0,2,,,0,,,60,64
80300,note_off,,,,,60,0,1,,,0,,,77,64
80320,note_on,,,,,20,0,1,,,0,,,77,55
80340,control_change,,,,,84,0,2,,,0,64,0,,
80380,note_off,,,,,60,0,1,,,0,,,77,64
80400,note_on,,,,,60,0,2,,,0,,,48,48
80400,control_change,,,,,0,0,2,,,0,64,127,,
80400,note_on,,,,,0,0,2,,,0,,,58,48
80400,note_on,,,,,0,0,2,,,0,,,55,48
80400,note_on,,,,,20,0,1,,,0,,,72,54
80480,note_on,,,,,0,0,1,,,0,,,76,49
80480,set_tempo,,,,,880,1,0,465116,,,,,,
80480,note_off,,,,,80,0,1,,,0,,,72,64
80496,note_off,,,,,0,0,2,,,0,,,48,64
80496,note_off,,,,,0,0,2,,,0,,,58,64
80496,note_off,,,,,96,0,2,,,0,,,55,64
80540,note_off,,,,,60,0,1,,,0,,,76,64
80560,note_on,,,,,20,0,1,,,0,,,76,45
80580,control_change,,,,,84,0,2,,,0,64,0,,
80620,note_off,,,,,60,0,1,,,0,,,76,64
80640,note_on,,,,,20,0,1,,,0,,,72,54
80640,note_on,,,,,60,0,2,,,0,,,54,55
80640,control_change,,,,,0,0,2,,,0,64,127,,
80640,note_on,,,,,0,0,2,,,0,,,48,55
80640,note_on,,,,,0,0,2,,,0,,,57,55
80720,note_off,,,,,80,0,1,,,0,,,72,64
80720,note_on,,,,,0,0,1,,,0,,,75,52
80740,set_tempo,,,,,260,1,0,454545,,,,,,
80780,note_off,,,,,60,0,1,,,0,,,75,64
80784,note_off,,,,,0,0,2,,,0,,,54,64
80784,note_off,,,,,0,0,2,,,0,,,57,64
80784,note_off,,,,,144,0,2,,,0,,,48,64
80800,note_on,,,,,20,0,1,,,0,,,75,48
80850,control_change,,,,,66,0,2,,,0,64,0,,
80860,note_off,,,,,60,0,1,,,0,,,75,64
80880,note_on,,,,,20,0,1,,,0,,,72,61
80880,note_on,,,,,0,0,2,,,0,,,54,63
80880,note_on,,,,,0,0,2,,,0,,,57,63
80880,control_change,,,,,0,0,2,,,0,64,127,,
80880,note_on,,,,,30,0,2,,,0,,,48,63
80900,set_tempo,,,,,160,1,0,451128,,,,,,
80960,note_off,,,,,80,0,1,,,0,,,72,64
80960,note_on,,,,,0,0,1,,,0,,,74,59
80976,note_off,,,,,96,0,2,,,0,,,54,64
80976,note_off,,,,,0,0,2,,,0,,,57,64
80976,note_off,,,,,0,0,2,,,0,,,48,64
81020,note_off,,,,,60,0,1,,,0,,,74,64
81040,note_on,,,,,20,0,1,,,0,,,74,55
81060,control_change,,,,,84,0,2,,,0,64,0,,
81100,note_off,,,,,60,0,1,,,0,,,74,64
81120,note_on,,,,,0,0,1,,,0,,,66,70
81120,note_on,,,,,20,0,1,,,0,,,69,70
81120,note_on,,,,,0,0,2,,,0,,,57,76
81120,note_on,,,,,0,0,2,,,0,,,48,76
81120,note_on,,,,,60,0,2,,,0,,,54,76
81120,control_change,,,,,0,0,2,,,0,64,127,,
81140,set_tempo,,,,,240,1,0,441176,,,,,,
81200,note_off,,,,,80,0,1,,,0,,,66,64
81200,note_on,,,,,0,0,1,,,0,,,75,67
81200,note_off,,,,,0,0,1,,,0,,,69,64
81216,note_off,,,,,96,0,2,,,0,,,57,64
81216,note_off,,,,,0,0,2,,,0,,,48,64
81216,note_off,,,,,0,0,2,,,0,,,54,64
81260,note_off,,,,,60,0,1,,,0,,,75,64
81280,note_on,,,,,20,0,1,,,0,,,75,63
81300,control_change,,,,,84,0,2,,,0,64,0,,
81340,note_off,,,,,60,0,1,,,0,,,75,64
81360,note_on,,,,,0,0,2,,,0,,,57,82
81360,note_on,,,,,0,0,2,,,0,,,54,82
81360,note_on,,,,,0,0,2,,,0,,,48,82
81360,control_change,,,,,60,0,2,,,0,64,127,,
81360,note_on,,,,,20,0,1,,,0,,,69,83
81360,note_on,,,,,0,0,1,,,0,,,66,83
81440,note_on,,,,,0,0,1,,,0,,,74,79
81440,note_off,,,,,0,0,1,,,0,,,69,64
81440,note_off,,,,,80,0,1,,,0,,,66,64
81456,note_off,,,,,0,0,2,,,0,,,54,64
81456,note_off,,,,,0,0,2,,,0,,,48,64
81456,note_off,,,,,96,0,2,,,0,,,57,64
81500,note_off,,,,,60,0,1,,,0,,,74,64
81520,note_on,,,,,20,0,1,,,0,,,74,78
81540,control_change,,,,,84,0,2,,,0,64,0,,
81580,note_off,,,,,60,0,1,,,0,,,74,64
81600,note_on,,,,,20,0,1,,,0,,,70,76
81600,note_on,,,,,0,0,1,,,0,,,65,76
81600,note_on,,,,,0,0,2,,,0,,,53,76
81600,set_tempo,,,,,460,1,0,451128,,,,,,
81600,note_on,,,,,0,0,2,,,0,,,58,76
81600,note_on,,,,,60,0,2,,,0,,,46,76
81600,control_change,,,,,0,0,2,,,0,64,127,,
81680,note_on,,,,,0,0,1,,,0,,,75,74
81680,note_off,,,,,0,0,1,,,0,,,70,64
81680,note_off,,,,,80,0,1,,,0,,,65,64
81740,note_off,,,,,60,0,1,,,0,,,75,64
81744,note_off,,,,,0,0,2,,,0,,,46,64
81744,note_off,,,,,0,0,2,,,0,,,53,64
81744,note_off,,,,,144,0,2,,,0,,,58,64
81760,note_on,,,,,20,0,1,,,0,,,75,71
81810,control_change,,,,,66,0,2,,,0,64,0,,
81820,note_off,,,,,60,0,1,,,0,,,75,64
81840,note_on,,,,,30,0,2,,,0,,,46,65
81840,note_on,,,,,0,0,2,,,0,,,58,65
81840,note_on,,,,,0,0,1,,,0,,,65,69
81840,note_on,,,,,0,0,2,,,0,,,53,65
81840,note_on,,,,,20,0,1,,,0,,,70,69
81840,control_change,,,,,0,0,2,,,0,64,127,,
81860,set_tempo,,,,,260,1,0,491803,,,,,,
81920,note_on,,,,,0,0,1,,,0,,,74,64
81920,note_off,,,,,0,0,1,,,0,,,70,64
81920,note_off,,,,,80,0,1,,,0,,,65,64
81936,note_off,,,,,0,0,2,,,0,,,58,64
81936,note_off,,,,,0,0,2,,,0,,,46,64
81936,note_off,,,,,96,0,2,,,0,,,53,64
81980,note_off,,,,,60,0,1,,,0,,,74,64
82000,note_on,,,,,20,0,1,,,0,,,74,63
82020,control_change,,,,,84,0,2,,,0,64,0,,
82060,note_off,,,,,60,0,1,,,0,,,74,64
82080,note_on,,,,,0,0,1,,,0,,,65,60
82080,note_on,,,,,20,0,1,,,0,,,69,60
82080,note_on,,,,,0,0,2,,,0,,,57,56
82080,note_on,,,,,60,0,2,,,0,,,53,56
82080,control_change,,,,,0,0,2,,,0,64,127,,
82080,note_on,,,,,0,0,2,,,0,,,48,56
82100,set_tempo,,,,,240,1,0,512821,,,,,,
82160,note_on,,,,,0,0,1,,,0,,,72,57
82160,note_off,,,,,0,0,1,,,0,,,69,64
82160,note_off,,,,,80,0,1,,,0,,,65,64
82176,note_off,,,,,0,0,2,,,0,,,53,64
82176,note_off,,,,,0,0,2,,,0,,,48,64
82176,note_off,,,,,96,0,2,,,0,,,57,64
82220,note_off,,,,,60,0,1,,,0,,,72,64
82240,note_on,,,,,20,0,1,,,0,,,72,53
82260,control_change,,,,,84,0,2,,,0,64,0,,
82300,note_off,,,,,60,0,1,,,0,,,72,64
82320,control_change,,,,,0,0,2,,,0,64,127,,
82320,note_on,,,,,0,0,2,,,0,,,48,42
82320,note_on,,,,,20,0,1,,,0,,,67,49
82320,note_on,,,,,60,0,2,,,0,,,58,42
82320,note_on,,,,,0,0,2,,,0,,,55,42
82320,note_on,,,,,0,0,1,,,0,,,64,49
82380,set_tempo,,,,,280,1,0,517241,,,,,,
82400,note_off,,,,,0,0,1,,,0,,,67,64
82400,note_on,,,,,0,0,1,,,0,,,72,44
82400,set_tempo,,,,,20,1,0,535714,,,,,,
82400,note_off,,,,,80,0,1,,,0,,,64,64
82416,note_off,,,,,0,0,2,,,0,,,58,64
82416,note_off,,,,,0,0,2,,,0,,,48,64
82416,note_off,,,,,96,0,2,,,0,,,55,64
82460,note_off,,,,,60,0,1,,,0,,,72,64
82480,note_on,,,,,20,0,1,,,0,,,72,41
82500,control_change,,,,,84,0,2,,,0,64,0,,
82540,note_off,,,,,60,0,1,,,0,,,72,64
82560,note_on,,,,,20,0,1,,,0,,,72,49
82560,note_on,,,,,0,0,1,,,0,,,65,49
82560,note_on,,,,,60,0,2,,,0,,,53,49
82560,note_on,,,,,0,0,1,,,0,,,69,49
82580,set_tempo,,,,,180,1,0,491803,,,,,,
82640,note_on,,,,,0,0,2,,,0,,,60,44
82640,note_off,,,,,80,0,2,,,0,,,53,64
82700,note_off,,,,,60,0,2,,,0,,,60,64
82720,note_on,,,,,20,0,2,,,0,,,57,46
82780,note_off,,,,,60,0,2,,,0,,,57,64
82800,note_off,,,,,0,0,1,,,0,,,69,64
82800,note_on,,,,,20,0,2,,,0,,,53,48
82800,note_off,,,,,0,0,1,,,0,,,72,64
82800,note_off,,,,,240,0,1,,,0,,,65,64
82800,set_tempo,,,,,220,1,0,476190,,,,,,
82860,note_off,,,,,60,0,2,,,0,,,53,64
82880,note_on,,,,,20,0,2,,,0,,,48,50
82900,set_tempo,,,,,100,1,0,458015,,,,,,
82920,set_tempo,,,,,20,1,0,454545,,,,,,
82940,note_off,,,,,60,0,2,,,0,,,48,64
82960,note_on,,,,,20,0,2,,,0,,,45,51
82980,set_tempo,,,,,60,1,0,465116,,,,,,
83020,note_off,,,,,60,0,2,,,0,,,45,64
83020,set_tempo,,,,,40,1,0,491803,,,,,,
83040,note_on,,,,,20,0,2,,,0,,,41,51
83040,note_on,,,,,240,0,1,,,0,,,77,40
83040,note_on,,,,,0,0,1,,,0,,,72,40
83040,note_on,,,,,0,0,1,,,0,,,69,40
83100,note_off,,,,,60,0,2,,,0,,,41,64
83120,note_on,,,,,20,0,2,,,0,,,45,40
83160,note_off,,,,,120,0,1,,,0,,,69,64
83160,note_off,,,,,0,0,1,,,0,,,77,64
83160,set_tempo,,,,,140,1,0,508475,,,,,,
83160,note_off,,,,,0,0,1,,,0,,,72,64
83180,note_off,,,,,60,0,2,,,0,,,45,64
83200,note_on,,,,,20,0,2,,,0,,,48,46
83260,note_off,,,,,60,0,2,,,0,,,48,64
83280,note_on,,,,,120,0,1,,,0,,,77,51
83280,note_on,,,,,0,0,1,,,0,,,75,51
83280,note_on,,,,,0,0,1,,,0,,,72,51
83280,set_tempo,,,,,120,1,0,530973,,,,,,
83280,note_on,,,,,20,0,2,,,0,,,45,50
83340,note_off,,,,,60,0,2,,,0,,,45,64
83360,note_on,,,,,20,0,2,,,0,,,48,54
83400,note_off,,,,,120,0,1,,,0,,,72,64
83400,note_off,,,,,0,0,1,,,0,,,75,64
83400,note_off,,,,,0,0,1,,,0,,,77,64
83420,note_off,,,,,60,0,2,,,0,,,48,64
83440,note_on,,,,,20,0,2,,,0,,,53,57
83500,note_off,,,,,60,0,2,,,0,,,53,64
83520,note_on,,,,,120,0,1,,,0,,,74,65
83520,note_on,,,,,0,0,1,,,0,,,65,65
83520,note_on,,,,,20,0,2,,,0,,,53,58
83520,note_on,,,,,0,0,1,,,0,,,70,65
83600,note_on,,,,,0,0,2,,,0,,,62,53
83600,set_tempo,,,,,320,1,0,526316,,,,,,
83600,note_off,,,,,80,0,2,,,0,,,53,64
83620,set_tempo,,,,,20,1,0,491803,,,,,,
83660,note_off,,,,,60,0,2,,,0,,,62,64
83680,note_on,,,,,20,0,2,,,0,,,58,51
83740,note_off,,,,,60,0,2,,,0,,,58,64
83760,note_off,,,,,240,0,1,,,0,,,65,64
83760,note_off,,,,,0,0,1,,,0,,,74,64
83760,note_off,,,,,0,0,1,,,0,,,70,64
83760,note_on,,,,,20,0,2,,,0,,,53,50
83820,note_off,,,,,60,0,2,,,0,,,53,64
83840,note_on,,,,,20,0,2,,,0,,,50,47
83860,set_tempo,,,,,240,1,0,472441,,,,,,
83900,note_off,,,,,60,0,2,,,0,,,50,64
83920,note_on,,,,,20,0,2,,,0,,,46,49
83980,note_off,,,,,60,0,2,,,0,,,46,64
84000,note_on,,,,,0,0,1,,,0,,,70,48
84000,note_on,,,,,0,0,1,,,0,,,74,48
84000,note_on,,,,,20,0,2,,,0,,,41,52
84000,note_on,,,,,240,0,1,,,0,,,77,48
84020,set_tempo,,,,,160,1,0,458015,,,,,,
84060,note_off,,,,,60,0,2,,,0,,,41,64
84080,note_on,,,,,20,0,2,,,0,,,46,58
84120,set_tempo,,,,,100,1,0,480000,,,,,,
84120,note_off,,,,,0,0,1,,,0,,,77,64
84120,note_off,,,,,0,0,1,,,0,,,74,64
84120,note_off,,,,,120,0,1,,,0,,,70,64
84140,note_off,,,,,60,0,2,,,0,,,46,64
84160,note_on,,,,,20,0,2,,,0,,,50,63
84220,note_off,,,,,60,0,2,,,0,,,50,64
84240,note_on,,,,,120,0,1,,,0,,,77,60
84240,note_on,,,,,20,0,2,,,0,,,46,67
84240,note_on,,,,,0,0,1,,,0,,,74,60
84300,note_off,,,,,60,0,2,,,0,,,46,64
84320,note_on,,,,,20,0,2,,,0,,,50,72
84360,note_off,,,,,0,0,1,,,0,,,77,64
84360,note_off,,,,,120,0,1,,,0,,,74,64
84380,note_off,,,,,60,0,2,,,0,,,50,64
84400,note_on,,,,,20,0,2,,,0,,,53,75
84460,note_off,,,,,60,0,2,,,0,,,53,64
84480,note_on,,,,,120,0,1,,,0,,,77,70
84480,note_on,,,,,0,0,1,,,0,,,72,70
84480,note_on,,,,,0,0,1,,,0,,,69,70
84480,note_on,,,,,20,0,2,,,0,,,53,75
84560,note_off,,,,,80,0,2,,,0,,,53,64
84560,note_on,,,,,0,0,2,,,0,,,65,75
84600,set_tempo,,,,,480,1,0,468750,,,,,,
84640,note_on,,,,,0,0,2,,,0,,,60,69
84640,note_off,,,,,80,0,2,,,0,,,65,64
84700,note_off,,,,,60,0,2,,,0,,,60,64
84720,note_off,,,,,240,0,1,,,0,,,69,64
84720,note_on,,,,,20,0,2,,,0,,,57,65
84720,note_off,,,,,0,0,1,,,0,,,77,64
84720,note_off,,,,,0,0,1,,,0,,,72,64
84740,set_tempo,,,,,140,1,0,444444,,,,,,
84780,note_off,,,,,60,0,2,,,0,,,57,64
84800,note_on,,,,,20,0,2,,,0,,,53,61
84860,note_off,,,,,60,0,2,,,0,,,53,64
84880,note_on,,,,,20,0,2,,,0,,,48,59
84940,note_off,,,,,60,0,2,,,0,,,48,64
84960,note_on,,,,,20,0,2,,,0,,,45,58
84960,note_on,,,,,240,0,1,,,0,,,81,68
84960,note_on,,,,,0,0,1,,,0,,,77,68
84960,note_on,,,,,0,0,1,,,0,,,72,68
85020,note_off,,,,,60,0,2,,,0,,,45,64
85040,note_on,,,,,20,0,2,,,0,,,41,56
85080,note_off,,,,,120,0,1,,,0,,,72,64
85080,note_off,,,,,0,0,1,,,0,,,81,64
85080,note_off,,,,,0,0,1,,,0,,,77,64
85100,note_off,,,,,60,0,2,,,0,,,41,64
85120,note_on,,,,,20,0,2,,,0,,,36,55
85180,note_off,,,,,60,0,2,,,0,,,36,64
85200,note_on,,,,,20,0,2,,,0,,,41,54
85200,set_tempo,,,,,460,1,0,465116,,,,,,
85200,note_on,,,,,120,0,1,,,0,,,84,79
85200,note_on,,,,,0,0,1,,,0,,,81,79
85200,note_on,,,,,0,0,1,,,0,,,77,79
85260,note_off,,,,,60,0,2,,,0,,,41,64
85280,note_on,,,,,20,0,2,,,0,,,45,54
85320,note_off,,,,,0,0,1,,,0,,,81,64
85320,note_off,,,,,120,0,1,,,0,,,77,64
85320,note_off,,,,,0,0,1,,,0,,,84,64
85340,note_off,,,,,60,0,2,,,0,,,45,64
85360,note_on,,,,,20,0,2,,,0,,,48,55
85360,set_tempo,,,,,160,1,0,476190,,,,,,
85420,note_off,,,,,60,0,2,,,0,,,48,64
85440,note_on,,,,,20,0,2,,,0,,,60,61
85440,note_on,,,,,0,0,2,,,0,,,57,61
85440,note_on,,,,,0,0,2,,,0,,,48,61
85440,control_change,,,,,0,0,2,,,0,64,127,,
85440,note_on,,,,,120,0,1,,,0,,,84,85
85500,set_tempo,,,,,140,1,0,472441,,,,,,
85520,note_on,,,,,0,0,1,,,0,,,89,82
85520,note_off,,,,,80,0,1,,,0,,,84,64
85580,note_off,,,,,60,0,1,,,0,,,89,64
85584,note_off,,,,,144,0,2,,,0,,,48,64
85584,note_off,,,,,0,0,2,,,0,,,57,64
85584,note_off,,,,,0,0,2,,,0,,,60,64
85600,note_on,,,,,20,0,1,,,0,,,89,77
85650,control_change,,,,,66,0,2,,,0,64,0,,
85660,note_off,,,,,60,0,1,,,0,,,89,64
85680,note_on,,,,,20,0,1,,,0,,,86,72
85680,control_change,,,,,0,0,2,,,0,64,127,,
85680,note_on,,,,,0,0,2,,,0,,,70,55
85680,note_on,,,,,0,0,2,,,0,,,60,55
85680,note_on,,,,,30,0,2,,,0,,,74,55
85760,note_off,,,,,80,0,1,,,0,,,86,64
85760,note_on,,,,,0,0,1,,,0,,,91,66
85776,note_off,,,,,0,0,2,,,0,,,60,64
85776,note_off,,,,,0,0,2,,,0,,,74,64
85776,note_off,,,,,96,0,2,,,0,,,70,64
85820,note_off,,,,,60,0,1,,,0,,,91,64
85820,set_tempo,,,,,320,1,0,454545,,,,,,
85840,note_on,,,,,20,0,1,,,0,,,91,61
85860,control_change,,,,,84,0,2,,,0,64,0,,
85900,note_off,,,,,60,0,1,,,0,,,91,64
85920,note_on,,,,,0,0,2,,,0,,,60,48
85920,note_on,,,,,20,0,1,,,0,,,84,61
85920,note_on,,,,,0,0,2,,,0,,,69,48
85920,note_on,,,,,60,0,2,,,0,,,72,48
85920,control_change,,,,,0,0,2,,,0,64,127,,
86000,note_on,,,,,0,0,1,,,0,,,89,57
86000,note_off,,,,,80,0,1,,,0,,,84,64
86016,note_off,,,,,0,0,2,,,0,,,69,64
86016,note_off,,,,,0,0,2,,,0,,,72,64
86016,note_off,,,,,96,0,2,,,0,,,60,64
86060,note_off,,,,,60,0,1,,,0,,,89,64
86080,note_on,,,,,20,0,1,,,0,,,89,55
86100,control_change,,,,,84,0,2,,,0,64,0,,
86140,note_off,,,,,60,0,1,,,0,,,89,64
86160,note_on,,,,,20,0,1,,,0,,,84,54
86160,note_on,,,,,60,0,2,,,0,,,60,47
86160,control_change,,,,,0,0,2,,,0,64,127,,
86160,note_on,,,,,0,0,2,,,0,,,70,47
86160,note_on,,,,,0,0,2,,,0,,,67,47
86220,set_tempo,,,,,400,1,0,444444,,,,,,
86240,note_off,,,,,80,0,1,,,0,,,84,64
86240,note_on,,,,,0,0,1,,,0,,,88,49
86256,note_off,,,,,96,0,2,,,0,,,67,64
86256,note_off,,,,,0,0,2,,,0,,,70,64
86256,note_off,,,,,0,0,2,,,0,,,60,64
86300,note_off,,,,,60,0,1,,,0,,,88,64
86320,note_on,,,,,20,0,1,,,0,,,88,45
86340,control_change,,,,,84,0,2,,,0,64,0,,
86380,note_off,,,,,60,0,1,,,0,,,88,64
86400,note_on,,,,,20,0,1,,,0,,,84,54
86400,note_on,,,,,60,0,2,,,0,,,66,52
86400,control_change,,,,,0,0,2,,,0,64,127,,
86400,note_on,,,,,0,0,2,,,0,,,60,52
86400,note_on,,,,,0,0,2,,,0,,,69,52
86480,note_off,,,,,80,0,1,,,0,,,84,64
86480,note_on,,,,,0,0,1,,,0,,,87,52
86540,note_off,,,,,60,0,1,,,0,,,87,64
86544,note_off,,,,,0,0,2,,,0,,,69,64
86544,note_off,,,,,0,0,2,,,0,,,66,64
86544,note_off,,,,,144,0,2,,,0,,,60,64
86560,note_on,,,,,20,0,1,,,0,,,87,48
86610,control_change,,,,,66,0,2,,,0,64,0,,
86620,note_off,,,,,60,0,1,,,0,,,87,64
86640,note_on,,,,,0,0,2,,,0,,,66,58
86640,note_on,,,,,0,0,2,,,0,,,69,58
86640,control_change,,,,,0,0,2,,,0,64,127,,
86640,note_on,,,,,30,0,2,,,0,,,60,58
86640,note_on,,,,,20,0,1,,,0,,,84,61
86720,note_off,,,,,80,0,1,,,0,,,84,64
86720,note_on,,,,,0,0,1,,,0,,,86,59
86736,note_off,,,,,0,0,2,,,0,,,60,64
86736,note_off,,,,,0,0,2,,,0,,,69,64
86736,note_off,,,,,96,0,2,,,0,,,66,64
86740,set_tempo,,,,,520,1,0,425532,,,,,,
86780,note_off,,,,,60,0,1,,,0,,,86,64
86800,note_on,,,,,20,0,1,,,0,,,86,55
86820,control_change,,,,,84,0,2,,,0,64,0,,
86860,note_off,,,,,60,0,1,,,0,,,86,64
86880,note_on,,,,,60,0,2,,,0,,,66,67
86880,note_on,,,,,0,0,2,,,0,,,60,67
86880,note_on,,,,,0,0,2,,,0,,,69,67
86880,control_change,,,,,0,0,2,,,0,64,127,,
86880,note_on,,,,,0,0,1,,,0,,,78,70
86880,note_on,,,,,20,0,1,,,0,,,81,70
86960,note_on,,,,,0,0,1,,,0,,,87,67
86960,note_off,,,,,0,0,1,,,0,,,81,64
86960,note_off,,,,,80,0,1,,,0,,,78,64
86976,note_off,,,,,0,0,2,,,0,,,66,64
86976,note_off,,,,,0,0,2,,,0,,,60,64
86976,note_off,,,,,96,0,2,,,0,,,69,64
87020,note_off,,,,,60,0,1,,,0,,,87,64
87040,note_on,,,,,20,0,1,,,0,,,87,63
87060,control_change,,,,,84,0,2,,,0,64,0,,
87100,note_off,,,,,60,0,1,,,0,,,87,64
87120,note_on,,,,,20,0,1,,,0,,,81,83
87120,control_change,,,,,60,0,2,,,0,64,127,,
87120,note_on,,,,,0,0,1,,,0,,,78,83
87120,note_on,,,,,0,0,2,,,0,,,69,73
87120,note_on,,,,,0,0,2,,,0,,,60,73
87120,note_on,,,,,0,0,2,,,0,,,66,73
87160,set_tempo,,,,,420,1,0,428571,,,,,,
87200,note_off,,,,,80,0,1,,,0,,,78,64
87200,note_off,,,,,0,0,1,,,0,,,81,64
87200,note_on,,,,,0,0,1,,,0,,,86,79
87216,note_off,,,,,0,0,2,,,0,,,66,64
87216,note_off,,,,,96,0,2,,,0,,,69,64
87216,note_off,,,,,0,0,2,,,0,,,60,64
87220,set_tempo,,,,,60,1,0,447761,,,,,,
87260,note_off,,,,,60,0,1,,,0,,,86,64
87280,note_on,,,,,20,0,1,,,0,,,86,78
87300,control_change,,,,,84,0,2,,,0,64,0,,
87340,note_off,,,,,60,0,1,,,0,,,86,64
87360,control_change,,,,,0,0,2,,,0,64,127,,
87360,note_on,,,,,0,0,2,,,0,,,70,63
87360,note_on,,,,,0,0,1,,,0,,,77,76
87360,note_on,,,,,20,0,1,,,0,,,82,76
87360,note_on,,,,,0,0,2,,,0,,,65,63
87360,note_on,,,,,60,0,2,,,0,,,58,63
87380,set_tempo,,,,,160,1,0,468750,,,,,,
87440,note_off,,,,,80,0,1,,,0,,,77,64
87440,note_on,,,,,0,0,1,,,0,,,87,74
87440,note_off,,,,,0,0,1,,,0,,,82,64
87500,set_tempo,,,,,120,1,0,472441,,,,,,
87500,note_off,,,,,60,0,1,,,0,,,87,64
87504,note_off,,,,,0,0,2,,,0,,,65,64
87504,note_off,,,,,144,0,2,,,0,,,70,64
87504,note_off,,,,,0,0,2,,,0,,,58,64
87520,set_tempo,,,,,20,1,0,491803,,,,,,
87520,note_on,,,,,20,0,1,,,0,,,87,71
87570,control_change,,,,,66,0,2,,,0,64,0,,
87580,note_off,,,,,60,0,1,,,0,,,87,64
87580,set_tempo,,,,,60,1,0,451128,,,,,,
87600,note_on,,,,,30,0,2,,,0,,,58,58
87600,note_on,,,,,0,0,2,,,0,,,65,58
87600,note_on,,,,,0,0,2,,,0,,,70,58
87600,control_change,,,,,0,0,2,,,0,64,127,,
87600,note_on,,,,,0,0,1,,,0,,,77,69
87600,note_on,,,,,20,0,1,,,0,,,82,69
87660,set_tempo,,,,,80,1,0,480000,,,,,,
87680,note_off,,,,,80,0,1,,,0,,,77,64
87680,note_off,,,,,0,0,1,,,0,,,82,64
87680,note_on,,,,,0,0,1,,,0,,,86,61
87696,note_off,,,,,0,0,2,,,0,,,70,64
87696,note_off,,,,,0,0,2,,,0,,,58,64
87696,note_off,,,,,96,0,2,,,0,,,65,64
87740,note_off,,,,,60,0,1,,,0,,,86,64
87760,note_on,,,,,20,0,1,,,0,,,86,58
87780,control_change,,,,,84,0,2,,,0,64,0,,
87820,set_tempo,,,,,160,1,0,512821,,,,,,
87820,note_off,,,,,60,0,1,,,0,,,86,64
87840,note_on,,,,,0,0,2,,,0,,,60,45
87840,note_on,,,,,0,0,2,,,0,,,69,45
87840,note_on,,,,,60,0,2,,,0,,,65,45
87840,control_change,,,,,0,0,2,,,0,64,127,,
87840,note_on,,,,,0,0,1,,,0,,,77,54
87840,note_on,,,,,20,0,1,,,0,,,81,54
87920,note_off,,,,,80,0,1,,,0,,,77,64
87920,note_off,,,,,0,0,1,,,0,,,81,64
87920,note_on,,,,,0,0,1,,,0,,,84,50
87936,note_off,,,,,0,0,2,,,0,,,65,64
87936,note_off,,,,,0,0,2,,,0,,,60,64
87936,note_off,,,,,96,0,2,,,0,,,69,64
87980,note_off,,,,,60,0,1,,,0,,,84,64
87980,set_tempo,,,,,160,1,0,566038,,,,,,
88000,note_on,,,,,20,0,1,,,0,,,84,45
88000,set_tempo,,,,,20,1,0,571429,,,,,,
88020,control_change,,,,,84,0,2,,,0,64,0,,
88060,note_off,,,,,60,0,1,,,0,,,84,64
88080,note_on,,,,,0,0,1,,,0,,,76,41
88080,note_on,,,,,20,0,1,,,0,,,79,41
88080,note_on,,,,,0,0,2,,,0,,,67,35
88080,note_on,,,,,0,0,2,,,0,,,60,35
88080,control_change,,,,,0,0,2,,,0,64,127,,
88080,note_on,,,,,60,0,2,,,0,,,70,35
88080,set_tempo,,,,,80,1,0,631579,,,,,,
88160,note_on,,,,,0,0,1,,,0,,,84,32
88160,note_off,,,,,0,0,1,,,0,,,79,64
88160,note_off,,,,,80,0,1,,,0,,,76,64
88160,set_tempo,,,,,80,1,0,722892,,,,,,
88176,note_off,,,,,0,0,2,,,0,,,70,64
88176,note_off,,,,,0,0,2,,,0,,,60,64
88176,note_off,,,,,96,0,2,,,0,,,67,64
88220,note_off,,,,,60,0,1,,,0,,,84,64
88240,note_on,,,,,20,0,1,,,0,,,84,26
88240,set_tempo,,,,,80,1,0,750000,,,,,,
88260,set_tempo,,,,,20,1,0,895522,,,,,,
88260,control_change,,,,,84,0,2,,,0,64,0,,
88300,note_off,,,,,60,0,1,,,0,,,84,64
88300,set_tempo,,,,,40,1,0,3157895,,,,,,
88320,control_change,,,,,0,0,2,,,0,64,127,,
88320,note_on,,,,,0,0,2,,,0,,,46,52
88320,note_on,,,,,0,0,2,,,0,,,55,52
88320,note_on,,,,,60,0,2,,,0,,,52,52
88320,set_tempo,,,,,20,1,0,560748,,,,,,
88320,note_on,,,,,20,0,1,,,0,,,70,54
88360,set_tempo,,,,,40,1,0,545455,,,,,,
88400,note_off,,,,,80,0,1,,,0,,,70,64
88400,note_on,,,,,0,0,1,,,0,,,73,52
88460,note_off,,,,,60,0,1,,,0,,,73,64
88464,note_off,,,,,144,0,2,,,0,,,46,64
88464,note_off,,,,,0,0,2,,,0,,,55,64
88464,note_off,,,,,0,0,2,,,0,,,52,64
88480,note_on,,,,,20,0,1,,,0,,,73,48
88530,control_change,,,,,66,0,2,,,0,64,0,,
88540,note_off,,,,,60,0,1,,,0,,,73,64
88560,note_on,,,,,30,0,2,,,0,,,46,58
88560,control_change,,,,,0,0,2,,,0,64,127,,
88560,note_on,,,,,0,0,2,,,0,,,55,58
88560,note_on,,,,,0,0,2,,,0,,,52,58
88560,note_on,,,,,20,0,1,,,0,,,70,61
88600,set_tempo,,,,,240,1,0,526316,,,,,,
88640,note_off,,,,,80,0,1,,,0,,,70,64
88640,note_on,,,,,0,0,1,,,0,,,72,59
88656,note_off,,,,,96,0,2,,,0,,,52,64
88656,note_off,,,,,0,0,2,,,0,,,55,64
88656,note_off,,,,,0,0,2,,,0,,,46,64
88700,note_off,,,,,60,0,1,,,0,,,72,64
88720,note_on,,,,,20,0,1,,,0,,,72,55
88720,set_tempo,,,,,120,1,0,530973,,,,,,
88740,control_change,,,,,84,0,2,,,0,64,0,,
88780,note_off,,,,,60,0,1,,,0,,,72,64
88800,note_on,,,,,60,0,2,,,0,,,52,67
88800,note_on,,,,,0,0,2,,,0,,,46,67
88800,note_on,,,,,0,0,2,,,0,,,55,67
88800,control_change,,,,,0,0,2,,,0,64,127,,
88800,note_on,,,,,0,0,1,,,0,,,64,70
88800,note_on,,,,,20,0,1,,,0,,,67,70
88880,note_on,,,,,0,0,1,,,0,,,73,67
88880,note_off,,,,,0,0,1,,,0,,,67,64
88880,note_off,,,,,80,0,1,,,0,,,64,64
88880,set_tempo,,,,,160,1,0,508475,,,,,,
88896,note_off,,,,,0,0,2,,,0,,,52,64
88896,note_off,,,,,0,0,2,,,0,,,46,64
88896,note_off,,,,,96,0,2,,,0,,,55,64
88940,note_off,,,,,60,0,1,,,0,,,73,64
88960,note_on,,,,,20,0,1,,,0,,,73,63
88980,control_change,,,,,84,0,2,,,0,64,0,,
89020,note_off,,,,,60,0,1,,,0,,,73,64
89040,note_on,,,,,0,0,2,,,0,,,52,73
89040,note_on,,,,,20,0,1,,,0,,,67,83
89040,note_on,,,,,0,0,2,,,0,,,55,73
89040,note_on,,,,,0,0,2,,,0,,,46,73
89040,control_change,,,,,60,0,2,,,0,64,127,,
89040,note_on,,,,,0,0,1,,,0,,,64,83
89120,note_off,,,,,0,0,1,,,0,,,67,64
89120,note_on,,,,,0,0,1,,,0,,,72,79
89120,note_off,,,,,80,0,1,,,0,,,64,64
89136,note_off,,,,,0,0,2,,,0,,,52,64
89136,note_off,,,,,0,0,2,,,0,,,46,64
89136,note_off,,,,,96,0,2,,,0,,,55,64
89180,set_tempo,,,,,300,1,0,480000,,,,,,
89180,note_off,,,,,60,0,1,,,0,,,72,64
89200,note_on,,,,,20,0,1,,,0,,,72,78
89220,control_change,,,,,84,0,2,,,0,64,0,,
89260,note_off,,,,,60,0,1,,,0,,,72,64
89280,note_on,,,,,0,0,1,,,0,,,63,76
89280,note_on,,,,,20,0,1,,,0,,,68,76
89280,control_change,,,,,0,0,2,,,0,64,127,,
89280,note_on,,,,,0,0,2,,,0,,,51,63
89280,note_on,,,,,0,0,2,,,0,,,56,63
89280,note_on,,,,,60,0,2,,,0,,,44,63
89360,note_off,,,,,80,0,1,,,0,,,63,64
89360,note_off,,,,,0,0,1,,,0,,,68,64
89360,note_on,,,,,0,0,1,,,0,,,73,74
89420,note_off,,,,,60,0,1,,,0,,,73,64
89424,note_off,,,,,144,0,2,,,0,,,56,64
89424,note_off,,,,,0,0,2,,,0,,,51,64
89424,note_off,,,,,0,0,2,,,0,,,44,64
89440,note_on,,,,,20,0,1,,,0,,,73,71
89490,control_change,,,,,66,0,2,,,0,64,0,,
89500,set_tempo,,,,,320,1,0,530973,,,,,,
89500,note_off,,,,,60,0,1,,,0,,,73,64
89520,note_on,,,,,20,0,1,,,0,,,68,69
89520,note_on,,,,,0,0,1,,,0,,,63,69
89520,control_change,,,,,0,0,2,,,0,64,127,,
89520,note_on,,,,,30,0,2,,,0,,,44,58
89520,note_on,,,,,0,0,2,,,0,,,56,58
89520,note_on,,,,,0,0,2,,,0,,,51,58
89600,note_off,,,,,80,0,1,,,0,,,63,64
89600,note_off,,,,,0,0,1,,,0,,,68,64
89600,note_on,,,,,0,0,1,,,0,,,72,61
89616,note_off,,,,,0,0,2,,,0,,,44,64
89616,note_off,,,,,0,0,2,,,0,,,56,64
89616,note_off,,,,,96,0,2,,,0,,,51,64
89660,note_off,,,,,60,0,1,,,0,,,72,64
89680,note_on,,,,,20,0,1,,,0,,,72,58
89700,control_change,,,,,84,0,2,,,0,64,0,,
89740,note_off,,,,,60,0,1,,,0,,,72,64
89740,set_tempo,,,,,240,1,0,576923,,,,,,
89760,note_on,,,,,20,0,1,,,0,,,67,54
89760,note_on,,,,,0,0,1,,,0,,,63,54
89760,note_on,,,,,60,0,2,,,0,,,51,45
89760,control_change,,,,,0,0,2,,,0,64,127,,
89760,note_on,,,,,0,0,2,,,0,,,46,45
89760,note_on,,,,,0,0,2,,,0,,,55,45
89760,set_tempo,,,,,20,1,0,600000,,,,,,
89840,set_tempo,,,,,80,1,0,631579,,,,,,
89840,note_off,,,,,0,0,1,,,0,,,67,64
89840,note_on,,,,,0,0,1,,,0,,,70,50
89840,note_off,,,,,80,0,1,,,0,,,63,64
89856,note_off,,,,,0,0,2,,,0,,,51,64
89856,note_off,,,,,0,0,2,,,0,,,46,64
89856,note_off,,,,,96,0,2,,,0,,,55,64
89900,note_off,,,,,60,0,1,,,0,,,70,64
89920,note_on,,,,,20,0,1,,,0,,,70,45
89940,control_change,,,,,84,0,2,,,0,64,0,,
89980,note_off,,,,,60,0,1,,,0,,,70,64
89980,set_tempo,,,,,140,1,0,779221,,,,,,
90000,note_on,,,,,0,0,1,,,0,,,62,41
90000,control_change,,,,,0,0,2,,,0,64,127,,
90000,note_on,,,,,0,0,2,,,0,,,53,35
90000,note_on,,,,,0,0,2,,,0,,,46,35
90000,note_on,,,,,60,0,2,,,0,,,56,35
90000,note_on,,,,,20,0,1,,,0,,,65,41
90080,note_off,,,,,80,0,1,,,0,,,62,64
90080,note_off,,,,,0,0,1,,,0,,,65,64
90080,note_on,,,,,0,0,1,,,0,,,70,32
90096,note_off,,,,,0,0,2,,,0,,,56,64
90096,note_off,,,,,0,0,2,,,0,,,46,64
90096,note_off,,,,,96,0,2,,,0,,,53,64
90120,set_tempo,,,,,140,1,0,869565,,,,,,
90140,note_off,,,,,60,0,1,,,0,,,70,64
90160,note_on,,,,,20,0,1,,,0,,,70,26
90180,control_change,,,,,84,0,2,,,0,64,0,,
90200,set_tempo,,,,,80,1,0,952381,,,,,,
90220,note_off,,,,,60,0,1,,,0,,,70,64
90220,set_tempo,,,,,20,1,0,2500000,,,,,,
90240,set_tempo,,,,,20,1,0,2727273,,,,,,
90280,set_tempo,,,,,40,1,0,714286,,,,,,
90700,set_tempo,,,,,420,1,0,600000,,,,,,
90720,note_on,,,,,540,0,2,,,0,,,66,43
90720,note_on,,,,,0,0,1,,,0,,,73,38
90720,note_on,,,,,500,0,1,,,0,,,78,38
90720,control_change,,,,,0,0,2,,,0,64,127,,
90760,set_tempo,,,,,60,1,0,631579,,,,,,
90780,set_tempo,,,,,20,1,0,625000,,,,,,
90800,note_off,,,,,0,0,1,,,0,,,78,64
90800,note_on,,,,,0,0,1,,,0,,,82,35
90800,note_off,,,,,80,0,1,,,0,,,73,64
90820,set_tempo,,,,,40,1,0,618557,,,,,,
90860,note_off,,,,,60,0,1,,,0,,,82,64
90864,note_off,,,,,144,0,2,,,0,,,66,64
90880,note_on,,,,,20,0,1,,,0,,,82,31
90930,control_change,,,,,66,0,2,,,0,64,0,,
90940,note_off,,,,,60,0,1,,,0,,,82,64
90960,note_on,,,,,0,0,1,,,0,,,73,29
90960,note_on,,,,,20,0,1,,,0,,,78,29
90960,note_on,,,,,0,0,2,,,0,,,63,36
90960,control_change,,,,,30,0,2,,,0,64,127,,
90980,set_tempo,,,,,160,1,0,652174,,,,,,
91040,note_on,,,,,0,0,1,,,0,,,81,26
91040,note_off,,,,,0,0,1,,,0,,,78,64
91040,note_off,,,,,80,0,1,,,0,,,73,64
91056,note_off,,,,,96,0,2,,,0,,,63,64
91100,note_off,,,,,60,0,1,,,0,,,81,64
91120,note_on,,,,,20,0,1,,,0,,,81,28
91140,control_change,,,,,84,0,2,,,0,64,0,,
91180,note_off,,,,,60,0,1,,,0,,,81,64
91200,note_on,,,,,0,0,2,,,0,,,68,30
91200,set_tempo,,,,,220,1,0,659341,,,,,,
91200,control_change,,,,,60,0,2,,,0,64,127,,
91200,note_on,,,,,0,0,1,,,0,,,73,30
91200,note_on,,,,,20,0,1,,,0,,,77,30
91220,set_tempo,,,,,20,1,0,705882,,,,,,
91280,note_on,,,,,0,0,1,,,0,,,80,28
91280,note_off,,,,,0,0,1,,,0,,,77,64
91280,note_off,,,,,80,0,1,,,0,,,73,64
91296,note_off,,,,,96,0,2,,,0,,,68,64
91340,note_off,,,,,60,0,1,,,0,,,80,64
91360,note_on,,,,,20,0,1,,,0,,,80,24
91380,control_change,,,,,84,0,2,,,0,64,0,,
91380,set_tempo,,,,,160,1,0,731707,,,,,,
91400,set_tempo,,,,,20,1,0,789474,,,,,,
91420,note_off,,,,,60,0,1,,,0,,,80,64
91440,note_on,,,,,60,0,2,,,0,,,68,22
91440,control_change,,,,,0,0,2,,,0,64,127,,
91440,note_on,,,,,20,0,1,,,0,,,75,25
91440,note_on,,,,,0,0,1,,,0,,,72,25
91520,note_off,,,,,0,0,1,,,0,,,75,64
91520,note_on,,,,,0,0,1,,,0,,,80,23
91520,note_off,,,,,80,0,1,,,0,,,72,64
91536,note_off,,,,,96,0,2,,,0,,,68,64
91580,note_off,,,,,60,0,1,,,0,,,80,64
91600,note_on,,,,,20,0,1,,,0,,,80,19
91620,control_change,,,,,84,0,2,,,0,64,0,,
91660,note_off,,,,,60,0,1,,,0,,,80,64
91700,set_tempo,,,,,300,1,0,1395349,,,,,,
91860,set_tempo,,,,,160,1,0,722892,,,,,,
91920,note_on,,,,,0,0,2,,,0,,,44,30
91920,note_on,,,,,0,0,1,,,0,,,61,30
91920,note_on,,,,,260,0,1,,,0,,,64,30
91920,control_change,,,,,300,0,2,,,0,64,127,,
92000,note_off,,,,,80,0,1,,,0,,,61,64
92000,note_off,,,,,0,0,1,,,0,,,64,64
92000,note_on,,,,,0,0,1,,,0,,,68,28
92016,note_off,,,,,96,0,2,,,0,,,44,64
92060,note_off,,,,,60,0,1,,,0,,,68,64
92080,note_on,,,,,20,0,1,,,0,,,68,24
92100,control_change,,,,,84,0,2,,,0,64,0,,
92140,note_off,,,,,60,0,1,,,0,,,68,64
92160,control_change,,,,,60,0,2,,,0,64,127,,
92160,note_on,,,,,0,0,2,,,0,,,44,22
92160,note_on,,,,,20,0,1,,,0,,,63,25
92160,note_on,,,,,0,0,1,,,0,,,60,25
92220,set_tempo,,,,,360,1,0,779221,,,,,,
92240,note_on,,,,,0,0,1,,,0,,,68,23
92240,note_off,,,,,0,0,1,,,0,,,63,64
92240,note_off,,,,,80,0,1,,,0,,,60,64
92256,note_off,,,,,96,0,2,,,0,,,44,64
92300,note_off,,,,,60,0,1,,,0,,,68,64
92320,note_on,,,,,20,0,1,,,0,,,68,19
92340,control_change,,,,,84,0,2,,,0,64,0,,
92380,note_off,,,,,60,0,1,,,0,,,68,64
92480,set_tempo,,,,,260,1,0,810811,,,,,,
92500,set_tempo,,,,,20,1,0,1304348,,,,,,
92520,set_tempo,,,,,20,1,0,2222222,,,,,,
92620,set_tempo,,,,,100,1,0,1276596,,,,,,
92640,set_tempo,,,,,20,1,0,845070,,,,,,
92640,note_on,,,,,0,0,1,,,0,,,60,30
92640,control_change,,,,,300,0,2,,,0,64,127,,
92640,note_on,,,,,0,0,2,,,0,,,45,30
92640,note_on,,,,,260,0,1,,,0,,,63,30
92680,set_tempo,,,,,40,1,0,869565,,,,,,
92720,note_off,,,,,80,0,1,,,0,,,60,64
92720,note_on,,,,,0,0,1,,,0,,,66,28
92720,note_off,,,,,0,0,1,,,0,,,63,64
92736,note_off,,,,,96,0,2,,,0,,,45,64
92780,note_off,,,,,60,0,1,,,0,,,66,64
92800,note_on,,,,,20,0,1,,,0,,,66,24
92800,set_tempo,,,,,120,1,0,967742,,,,,,
92820,control_change,,,,,84,0,2,,,0,64,0,,
92860,note_off,,,,,60,0,1,,,0,,,66,64
92880,note_on,,,,,0,0,2,,,0,,,45,22
92880,control_change,,,,,60,0,2,,,0,64,127,,
92880,note_on,,,,,20,0,1,,,0,,,63,25
92880,note_on,,,,,0,0,1,,,0,,,60,25
92960,set_tempo,,,,,160,1,0,1052632,,,,,,
92960,note_off,,,,,0,0,1,,,0,,,63,64
92960,note_on,,,,,0,0,1,,,0,,,65,23
92960,note_off,,,,,80,0,1,,,0,,,60,64
92976,note_off,,,,,96,0,2,,,0,,,45,64
93020,note_off,,,,,60,0,1,,,0,,,65,64
93040,note_on,,,,,20,0,1,,,0,,,65,19
93040,set_tempo,,,,,80,1,0,1153846,,,,,,
93100,note_off,,,,,60,0,1,,,0,,,65,64
93120,set_tempo,,,,,80,1,0,1363636,,,,,,
93360,control_change,,,,,384,0,2,,,0,64,127,,
93360,note_on,,,,,0,0,2,,,0,,,57,31
93360,note_on,,,,,260,0,1,,,0,,,75,29
93360,note_on,,,,,0,0,1,,,0,,,72,29
93380,set_tempo,,,,,260,1,0,789474,,,,,,
93400,set_tempo,,,,,20,1,0,750000,,,,,,
93440,note_off,,,,,80,0,1,,,0,,,72,64
93440,note_off,,,,,0,0,1,,,0,,,75,64
93440,note_on,,,,,0,0,1,,,0,,,77,29
93456,note_off,,,,,96,0,2,,,0,,,57,64
93480,set_tempo,,,,,80,1,0,689655,,,,,,
93500,note_off,,,,,60,0,1,,,0,,,77,64
93520,note_on,,,,,20,0,1,,,0,,,77,30
93540,control_change,,,,,84,0,2,,,0,64,0,,
93580,note_off,,,,,60,0,1,,,0,,,77,64
93600,note_on,,,,,20,0,1,,,0,,,75,38
93600,note_on,,,,,0,0,1,,,0,,,70,38
93600,note_on,,,,,0,0,2,,,0,,,58,35
93600,control_change,,,,,60,0,2,,,0,64,127,,
93640,set_tempo,,,,,160,1,0,645161,,,,,,
93680,note_off,,,,,80,0,1,,,0,,,70,64
93680,note_off,,,,,0,0,1,,,0,,,75,64
93680,note_on,,,,,0,0,1,,,0,,,79,35
93696,note_off,,,,,96,0,2,,,0,,,58,64
93740,note_off,,,,,60,0,1,,,0,,,79,64
93760,note_on,,,,,20,0,1,,,0,,,79,28
93780,set_tempo,,,,,140,1,0,612245,,,,,,
93780,control_change,,,,,84,0,2,,,0,64,0,,
93820,note_off,,,,,60,0,1,,,0,,,79,64
93840,note_on,,,,,0,0,1,,,0,,,70,41
93840,note_on,,,,,60,0,2,,,0,,,46,40
93840,note_on,,,,,20,0,1,,,0,,,74,41
93840,control_change,,,,,0,0,2,,,0,64,127,,
93880,set_tempo,,,,,100,1,0,571429,,,,,,
93920,note_off,,,,,80,0,1,,,0,,,70,64
93920,note_off,,,,,0,0,1,,,0,,,74,64
93920,note_on,,,,,0,0,1,,,0,,,77,37
93936,note_off,,,,,96,0,2,,,0,,,46,64
93980,note_off,,,,,60,0,1,,,0,,,77,64
94000,note_on,,,,,20,0,1,,,0,,,77,35
94020,control_change,,,,,84,0,2,,,0,64,0,,
94060,note_off,,,,,60,0,1,,,0,,,77,64
94080,note_on,,,,,60,0,2,,,0,,,48,46
94080,control_change,,,,,0,0,2,,,0,64,127,,
94080,note_on,,,,,20,0,1,,,0,,,62,51
94080,note_on,,,,,0,0,1,,,0,,,58,51
94100,set_tempo,,,,,220,1,0,545455,,,,,,
94160,note_off,,,,,80,0,1,,,0,,,58,64
94160,note_on,,,,,0,0,1,,,0,,,65,49
94160,note_off,,,,,0,0,1,,,0,,,62,64
94200,note_off,,,,,120,0,2,,,0,,,48,64
94220,note_off,,,,,60,0,1,,,0,,,65,64
94240,note_on,,,,,20,0,1,,,0,,,65,43
94290,control_change,,,,,90,0,2,,,0,64,0,,
94300,note_off,,,,,60,0,1,,,0,,,65,64
94320,note_on,,,,,20,0,1,,,0,,,60,61
94320,note_on,,,,,0,0,1,,,0,,,57,61
94320,note_on,,,,,30,0,2,,,0,,,48,53
94320,control_change,,,,,0,0,2,,,0,64,127,,
94400,note_off,,,,,80,0,1,,,0,,,57,64
94400,note_on,,,,,0,0,1,,,0,,,65,56
94400,note_off,,,,,0,0,1,,,0,,,60,64
94416,note_off,,,,,96,0,2,,,0,,,48,64
94460,note_off,,,,,60,0,1,,,0,,,65,64
94480,note_on,,,,,20,0,1,,,0,,,65,52
94500,control_change,,,,,84,0,2,,,0,64,0,,
94540,note_off,,,,,60,0,1,,,0,,,65,64
94560,note_on,,,,,20,0,1,,,0,,,65,73
94560,note_on,,,,,0,0,2,,,0,,,55,63
94560,note_on,,,,,60,0,2,,,0,,,48,63
94560,note_on,,,,,0,0,2,,,0,,,58,63
94560,note_on,,,,,0,0,1,,,0,,,60,73
94560,control_change,,,,,0,0,2,,,0,64,127,,
94640,note_off,,,,,80,0,1,,,0,,,60,64
94640,note_off,,,,,0,0,1,,,0,,,65,64
94640,note_on,,,,,0,0,1,,,0,,,72,67
94656,note_off,,,,,96,0,2,,,0,,,55,64
94656,note_off,,,,,0,0,2,,,0,,,58,64
94656,note_off,,,,,0,0,2,,,0,,,48,64
94700,note_off,,,,,60,0,1,,,0,,,72,64
94720,note_on,,,,,20,0,1,,,0,,,72,62
94770,control_change,,,,,114,0,2,,,0,64,0,,
94780,note_off,,,,,60,0,1,,,0,,,72,64
94800,note_on,,,,,0,0,1,,,0,,,60,76
94800,note_on,,,,,20,0,1,,,0,,,64,76
94800,note_on,,,,,0,0,2,,,0,,,48,63
94800,note_on,,,,,0,0,2,,,0,,,55,63
94800,control_change,,,,,0,0,2,,,0,64,127,,
94800,note_on,,,,,30,0,2,,,0,,,58,63
94880,note_off,,,,,80,0,1,,,0,,,60,64
94880,note_on,,,,,0,0,1,,,0,,,72,81
94880,note_off,,,,,0,0,1,,,0,,,64,64
94896,note_off,,,,,96,0,2,,,0,,,55,64
94896,note_off,,,,,0,0,2,,,0,,,48,64
94896,note_off,,,,,0,0,2,,,0,,,58,64
94940,note_off,,,,,60,0,1,,,0,,,72,64
94940,set_tempo,,,,,840,1,0,576923,,,,,,
94960,note_on,,,,,20,0,1,,,0,,,72,84
94980,control_change,,,,,84,0,2,,,0,64,0,,
95020,note_off,,,,,60,0,1,,,0,,,72,64
95040,note_on,,,,,20,0,1,,,0,,,65,63
95040,note_on,,,,,0,0,1,,,0,,,60,88
95040,note_on,,,,,0,0,1,,,0,,,57,88
95040,control_change,,,,,60,0,2,,,0,64,127,,
95040,note_on,,,,,0,0,2,,,0,,,53,84
95040,set_tempo,,,,,100,1,0,582524,,,,,,
95040,note_on,,,,,0,0,2,,,0,,,41,84
95060,set_tempo,,,,,20,1,0,689655,,,,,,
95120,note_on,,,,,0,0,1,,,0,,,60,69
95120,note_off,,,,,0,0,1,,,0,,,60,64
95120,note_off,,,,,0,0,1,,,0,,,65,64
95120,note_off,,,,,80,0,1,,,0,,,57,64
95120,set_tempo,,,,,60,1,0,550459,,,,,,
95200,note_off,,,,,80,0,1,,,0,,,60,64
95200,note_on,,,,,0,0,1,,,0,,,57,62
95232,note_off,,,,,192,0,2,,,0,,,41,64
95232,note_off,,,,,0,0,2,,,0,,,53,64
95240,set_tempo,,,,,120,1,0,560748,,,,,,
95280,note_on,,,,,0,0,1,,,0,,,60,68
95280,control_change,,,,,48,0,2,,,0,64,0,,
95280,note_off,,,,,80,0,1,,,0,,,57,64
95360,note_off,,,,,80,0,1,,,0,,,60,64
95360,note_on,,,,,0,0,1,,,0,,,65,76
95440,note_off,,,,,80,0,1,,,0,,,65,64
95440,note_on,,,,,0,0,1,,,0,,,69,80
95520,note_on,,,,,0,0,1,,,0,,,57,84
95520,note_off,,,,,80,0,1,,,0,,,69,64
95520,note_on,,,,,0,0,1,,,0,,,60,84
95520,note_on,,,,,0,0,1,,,0,,,72,84
95580,set_tempo,,,,,340,1,0,625000,,,,,,
95760,note_on,,,,,480,0,2,,,0,,,62,48
95780,set_tempo,,,,,200,1,0,618557,,,,,,
95880,note_on,,,,,0,0,1,,,0,,,55,42
95880,note_off,,,,,0,0,1,,,0,,,72,64
95880,note_off,,,,,0,0,1,,,0,,,60,64
95880,note_off,,,,,360,0,1,,,0,,,57,64
95880,note_on,,,,,0,0,2,,,0,,,64,56
95880,note_off,,,,,120,0,2,,,0,,,62,64
95880,note_on,,,,,0,0,1,,,0,,,58,42
95880,note_on,,,,,0,0,1,,,0,,,70,42
96000,note_off,,,,,0,0,1,,,0,,,58,64
96000,note_off,,,,,0,0,1,,,0,,,70,64
96000,note_on,,,,,0,0,1,,,0,,,69,52
96000,note_off,,,,,120,0,2,,,0,,,64,64
96000,note_on,,,,,0,0,2,,,0,,,65,61
96000,note_on,,,,,0,0,1,,,0,,,57,52
96000,note_on,,,,,0,0,1,,,0,,,53,52
96000,note_off,,,,,120,0,1,,,0,,,55,64
96060,set_tempo,,,,,280,1,0,612245,,,,,,
96140,set_tempo,,,,,80,1,0,588235,,,,,,
96240,note_on,,,,,0,0,1,,,0,,,61,50
96240,note_on,,,,,0,0,1,,,0,,,57,50
96240,note_on,,,,,0,0,1,,,0,,,51,50
96240,note_off,,,,,0,0,1,,,0,,,69,64
96240,note_off,,,,,0,0,1,,,0,,,57,64
96240,note_off,,,,,240,0,1,,,0,,,53,64
96240,note_on,,,,,0,0,1,,,0,,,69,50
96240,note_off,,,,,240,0,2,,,0,,,65,64
96240,note_on,,,,,0,0,1,,,0,,,67,50
96400,set_tempo,,,,,260,1,0,576923,,,,,,
96480,note_on,,,,,0,0,1,,,0,,,57,55
96480,note_on,,,,,0,0,1,,,0,,,62,55
96480,note_on,,,,,0,0,1,,,0,,,66,55
96480,note_off,,,,,0,0,1,,,0,,,57,64
96480,note_off,,,,,0,0,1,,,0,,,69,64
96480,note_off,,,,,0,0,1,,,0,,,67,64
96480,note_off,,,,,0,0,1,,,0,,,61,64
96480,note_off,,,,,240,0,1,,,0,,,51,64
96480,note_on,,,,,0,0,1,,,0,,,50,55
96480,note_on,,,,,0,0,1,,,0,,,69,55
96480,note_on,,,,,0,0,1,,,0,,,60,55
96720,note_on,,,,,480,0,2,,,0,,,55,57
96720,note_on,,,,,0,0,2,,,0,,,67,57
96720,note_on,,,,,0,0,2,,,0,,,62,57
96720,note_off,,,,,0,0,1,,,0,,,57,64
96720,note_on,,,,,0,0,2,,,0,,,43,57
96720,note_on,,,,,0,0,2,,,0,,,50,57
96720,note_off,,,,,240,0,1,,,0,,,50,64
96720,note_on,,,,,0,0,2,,,0,,,58,57
96720,note_off,,,,,0,0,1,,,0,,,60,64
96720,note_off,,,,,0,0,1,,,0,,,62,64
96720,note_off,,,,,0,0,1,,,0,,,66,64
96720,note_off,,,,,0,0,1,,,0,,,69,64
96720,note_on,,,,,0,0,1,,,0,,,70,72
96760,set_tempo,,,,,360,1,0,612245,,,,,,
96900,note_off,,,,,180,0,1,,,0,,,70,64
96900,note_on,,,,,0,0,1,,,0,,,69,48
96960,note_on,,,,,0,0,2,,,0,,,48,42
96960,note_on,,,,,0,0,2,,,0,,,58,42
96960,note_off,,,,,60,0,1,,,0,,,69,64
96960,note_on,,,,,0,0,1,,,0,,,67,45
96960,note_on,,,,,0,0,2,,,0,,,60,42
96960,control_change,,,,,0,0,2,,,0,64,127,,
96960,note_on,,,,,0,0,2,,,0,,,64,42
96960,note_off,,,,,0,0,2,,,0,,,50,64
96960,note_off,,,,,0,0,2,,,0,,,43,64
96960,note_off,,,,,0,0,2,,,0,,,58,64
96960,note_off,,,,,0,0,2,,,0,,,62,64
96960,note_off,,,,,240,0,2,,,0,,,67,64
96960,note_off,,,,,0,0,2,,,0,,,55,64
97080,set_tempo,,,,,320,1,0,618557,,,,,,
97100,set_tempo,,,,,20,1,0,631579,,,,,,
97320,note_on,,,,,0,0,1,,,0,,,68,45
97320,note_off,,,,,360,0,1,,,0,,,67,64
97360,set_tempo,,,,,260,1,0,645161,,,,,,
97380,set_tempo,,,,,20,1,0,659341,,,,,,
97380,control_change,,,,,420,0,2,,,0,64,0,,
97400,set_tempo,,,,,20,1,0,681818,,,,,,
97440,note_on,,,,,0,0,1,,,0,,,69,39
97440,note_on,,,,,0,0,1,,,0,,,65,39
97440,note_on,,,,,0,0,1,,,0,,,60,39
97440,note_off,,,,,120,0,1,,,0,,,68,64
97440,note_off,,,,,0,0,2,,,0,,,60,64
97440,note_on,,,,,0,0,2,,,0,,,53,38
97440,note_on,,,,,0,0,2,,,0,,,57,38
97440,control_change,,,,,0,0,2,,,0,64,127,,
97440,note_off,,,,,60,0,2,,,0,,,48,64
97440,note_off,,,,,0,0,2,,,0,,,58,64
97440,note_off,,,,,0,0,2,,,0,,,64,64
97520,note_off,,,,,0,0,1,,,0,,,69,64
97520,note_off,,,,,0,0,1,,,0,,,65,64
97520,note_off,,,,,80,0,1,,,0,,,60,64
97520,note_off,,,,,80,0,2,,,0,,,53,64
97520,note_off,,,,,0,0,2,,,0,,,57,64
97560,control_change,,,,,40,0,2,,,0,64,0,,
97640,set_tempo,,,,,240,1,0,705882,,,,,,
97660,set_tempo,,,,,20,1,0,714286,,,,,,
97680,note_on,,,,,0,0,1,,,0,,,65,28
97680,note_on,,,,,160,0,1,,,0,,,69,28
97680,note_on,,,,,0,0,2,,,0,,,57,28
97680,note_on,,,,,0,0,2,,,0,,,53,28
97680,control_change,,,,,120,0,2,,,0,64,127,,
97680,note_on,,,,,0,0,1,,,0,,,60,28
97760,note_off,,,,,80,0,2,,,0,,,57,64
97760,note_off,,,,,0,0,1,,,0,,,65,64
97760,note_off,,,,,0,0,2,,,0,,,53,64
97760,note_off,,,,,80,0,1,,,0,,,60,64
97760,note_off,,,,,0,0,1,,,0,,,69,64
97760,set_tempo,,,,,100,1,0,1463415,,,,,,
97800,control_change,,,,,40,0,2,,,0,64,0,,
97920,set_tempo,,,,,160,1,0,779221,,,,,,
97980,set_tempo,,,,,60,1,0,674157,,,,,,
98000,note_on,,,,,240,0,1,,,0,,,48,34
98080,note_on,,,,,0,0,1,,,0,,,45,37
98080,note_off,,,,,80,0,1,,,0,,,48,64
98140,set_tempo,,,,,160,1,0,652174,,,,,,
98160,note_off,,,,,80,0,1,,,0,,,45,64
98160,note_on,,,,,0,0,1,,,0,,,48,39
98160,control_change,,,,,360,0,2,,,0,64,0,,
98240,note_off,,,,,80,0,1,,,0,,,48,64
98240,note_on,,,,,0,0,1,,,0,,,53,44
98320,note_off,,,,,80,0,1,,,0,,,53,64
98320,note_on,,,,,0,0,1,,,0,,,57,48
98340,set_tempo,,,,,200,1,0,618557,,,,,,
98400,note_off,,,,,80,0,1,,,0,,,57,64
98400,note_on,,,,,0,0,1,,,0,,,60,55
98400,note_on,,,,,0,0,1,,,0,,,48,55
98400,note_on,,,,,0,0,1,,,0,,,45,55
98520,note_off,,,,,120,0,1,,,0,,,48,64
98520,note_on,,,,,360,0,2,,,0,,,48,51
98600,set_tempo,,,,,260,1,0,588235,,,,,,
98640,note_on,,,,,120,0,2,,,0,,,50,43
98760,note_off,,,,,240,0,1,,,0,,,45,64
98760,note_off,,,,,0,0,1,,,0,,,60,64
98760,note_on,,,,,0,0,1,,,0,,,58,47
98760,note_on,,,,,0,0,1,,,0,,,46,47
98760,note_on,,,,,0,0,1,,,0,,,43,47
98760,note_off,,,,,120,0,2,,,0,,,50,64
98760,note_on,,,,,0,0,2,,,0,,,52,37
98820,set_tempo,,,,,220,1,0,582524,,,,,,
98840,set_tempo,,,,,20,1,0,571429,,,,,,
98880,note_on,,,,,0,0,1,,,0,,,45,40
98880,note_off,,,,,120,0,1,,,0,,,43,64
98880,note_off,,,,,0,0,1,,,0,,,46,64
98880,note_off,,,,,0,0,1,,,0,,,58,64
98880,note_on,,,,,0,0,1,,,0,,,57,40
98880,note_on,,,,,0,0,1,,,0,,,41,40
98880,note_on,,,,,0,0,2,,,0,,,53,51
98880,note_off,,,,,120,0,2,,,0,,,52,64
98880,note_off,,,,,0,0,2,,,0,,,48,64
99020,set_tempo,,,,,180,1,0,545455,,,,,,
99120,note_off,,,,,240,0,1,,,0,,,41,64
99120,note_off,,,,,0,0,1,,,0,,,45,64
99120,note_off,,,,,0,0,1,,,0,,,57,64
99120,note_on,,,,,0,0,1,,,0,,,57,63
99120,note_on,,,,,0,0,1,,,0,,,55,63
99120,note_on,,,,,0,0,1,,,0,,,49,63
99120,note_on,,,,,0,0,1,,,0,,,45,63
99120,note_on,,,,,0,0,1,,,0,,,39,63
99120,note_off,,,,,240,0,2,,,0,,,53,64
99360,note_off,,,,,240,0,1,,,0,,,39,64
99360,note_on,,,,,0,0,1,,,0,,,45,79
99360,note_off,,,,,0,0,1,,,0,,,45,64
99360,note_off,,,,,0,0,1,,,0,,,49,64
99360,note_off,,,,,0,0,1,,,0,,,55,64
99360,note_off,,,,,0,0,1,,,0,,,57,64
99360,note_on,,,,,0,0,1,,,0,,,57,79
99360,note_on,,,,,0,0,1,,,0,,,54,79
99360,control_change,,,,,240,0,2,,,0,64,127,,
99360,note_on,,,,,0,0,1,,,0,,,38,79
99360,note_on,,,,,0,0,1,,,0,,,50,79
99360,note_on,,,,,0,0,1,,,0,,,48,79
99380,set_tempo,,,,,360,1,0,631579,,,,,,
99460,set_tempo,,,,,80,1,0,674157,,,,,,
99480,set_tempo,,,,,20,1,0,689655,,,,,,
99500,set_tempo,,,,,20,1,0,560748,,,,,,
99520,set_tempo,,,,,20,1,0,550459,,,,,,
99540,set_tempo,,,,,20,1,0,545455,,,,,,
99574,note_off,,,,,0,0,1,,,0,,,48,64
99574,note_off,,,,,0,0,1,,,0,,,50,64
99574,note_off,,,,,0,0,1,,,0,,,54,64
99574,note_off,,,,,0,0,1,,,0,,,57,64
99574,note_off,,,,,214,0,1,,,0,,,38,64
99574,note_off,,,,,0,0,1,,,0,,,45,64
99580,set_tempo,,,,,40,1,0,540541,,,,,,
99600,note_on,,,,,26,0,1,,,0,,,46,63
99600,set_tempo,,,,,20,1,0,1463415,,,,,,
99600,note_on,,,,,240,0,2,,,0,,,31,63
99610,note_on,,,,,10,0,2,,,0,,,38,63
99610,note_on,,,,,10,0,1,,,0,,,50,63
99620,note_on,,,,,10,0,2,,,0,,,43,63
99620,note_on,,,,,10,0,1,,,0,,,55,63
99630,note_on,,,,,10,0,1,,,0,,,58,63
99640,control_change,,,,,20,0,2,,,0,64,0,,
99700,set_tempo,,,,,100,1,0,705882,,,,,,
99720,note_off,,,,,80,0,2,,,0,,,31,64
99720,note_off,,,,,90,0,1,,,0,,,46,64
99730,note_off,,,,,10,0,2,,,0,,,38,64
99730,note_off,,,,,10,0,1,,,0,,,50,64
99740,note_off,,,,,10,0,2,,,0,,,43,64
99740,note_off,,,,,10,0,1,,,0,,,55,64
99750,note_off,,,,,10,0,1,,,0,,,58,64
100080,note_on,,,,,0,0,1,,,0,,,62,79
100080,note_on,,,,,0,0,1,,,0,,,53,79
100080,note_on,,,,,330,0,1,,,0,,,68,79
100080,note_on,,,,,0,0,1,,,0,,,70,79
100080,note_on,,,,,0,0,1,,,0,,,58,79
100320,note_on,,,,,0,0,1,,,0,,,58,98
100320,note_on,,,,,0,0,1,,,0,,,63,98
100320,note_on,,,,,0,0,1,,,0,,,51,98
100320,note_on,,,,,0,0,1,,,0,,,61,98
100320,note_on,,,,,0,0,1,,,0,,,67,98
100320,note_on,,,,,0,0,1,,,0,,,70,98
100320,note_off,,,,,0,0,1,,,0,,,68,64
100320,note_off,,,,,0,0,1,,,0,,,70,64
100320,note_off,,,,,0,0,1,,,0,,,62,64
100320,note_off,,,,,0,0,1,,,0,,,58,64
100320,note_off,,,,,240,0,1,,,0,,,53,64
100320,control_change,,,,,580,0,2,,,0,64,127,,
100440,set_tempo,,,,,740,1,0,560748,,,,,,
100534,note_off,,,,,0,0,1,,,0,,,61,64
100534,note_off,,,,,0,0,1,,,0,,,70,64
100534,note_off,,,,,0,0,1,,,0,,,67,64
100534,note_off,,,,,0,0,1,,,0,,,63,64
100534,note_off,,,,,0,0,1,,,0,,,58,64
100534,note_off,,,,,214,0,1,,,0,,,51,64
100540,set_tempo,,,,,100,1,0,1538462,,,,,,
100560,note_on,,,,,26,0,1,,,0,,,59,95
100560,note_on,,,,,240,0,2,,,0,,,44,96
100570,note_on,,,,,10,0,1,,,0,,,63,95
100570,note_on,,,,,10,0,2,,,0,,,51,96
100580,note_on,,,,,10,0,2,,,0,,,56,96
100580,note_on,,,,,10,0,1,,,0,,,68,95
100590,note_on,,,,,10,0,1,,,0,,,71,95
100600,control_change,,,,,20,0,2,,,0,64,0,,
100620,set_tempo,,,,,80,1,0,1500000,,,,,,
100640,set_tempo,,,,,20,1,0,1463415,,,,,,
100680,set_tempo,,,,,40,1,0,705882,,,,,,
100680,note_off,,,,,80,0,2,,,0,,,44,64
100680,note_off,,,,,90,0,1,,,0,,,59,64
100690,note_off,,,,,10,0,2,,,0,,,51,64
100690,note_off,,,,,10,0,1,,,0,,,63,64
100700,note_off,,,,,10,0,2,,,0,,,56,64
100700,note_off,,,,,10,0,1,,,0,,,68,64
100710,note_off,,,,,10,0,1,,,0,,,71,64
101040,note_on,,,,,0,0,1,,,0,,,76,112
101040,note_on,,,,,0,0,2,,,0,,,47,112
101040,note_on,,,,,0,0,2,,,0,,,52,112
101040,note_on,,,,,0,0,2,,,0,,,40,112
101040,control_change,,,,,340,0,2,,,0,64,127,,
101040,note_on,,,,,0,0,1,,,0,,,74,112
101040,note_on,,,,,330,0,1,,,0,,,80,112
101040,note_on,,,,,0,0,1,,,0,,,83,112
101254,note_off,,,,,214,0,1,,,0,,,74,64
101254,note_off,,,,,0,0,1,,,0,,,83,64
101254,note_off,,,,,0,0,1,,,0,,,76,64
101254,note_off,,,,,0,0,2,,,0,,,47,64
101254,note_off,,,,,0,0,1,,,0,,,80,64
101254,note_off,,,,,0,0,2,,,0,,,40,64
101254,note_off,,,,,214,0,2,,,0,,,52,64
101280,note_on,,,,,26,0,1,,,0,,,72,112
101280,note_on,,,,,26,0,2,,,0,,,45,112
101280,note_on,,,,,0,0,2,,,0,,,52,112
101280,note_on,,,,,0,0,2,,,0,,,57,112
101290,note_on,,,,,10,0,1,,,0,,,76,112
101300,note_on,,,,,10,0,1,,,0,,,81,112
101300,set_tempo,,,,,620,1,0,1578947,,,,,,
101310,note_on,,,,,10,0,1,,,0,,,84,112
101320,control_change,,,,,40,0,2,,,0,64,0,,
101400,note_off,,,,,90,0,1,,,0,,,72,64
101400,note_off,,,,,0,0,2,,,0,,,52,64
101400,note_off,,,,,0,0,2,,,0,,,45,64
101400,note_off,,,,,80,0,2,,,0,,,57,64
101410,note_off,,,,,10,0,1,,,0,,,76,64
101420,note_off,,,,,10,0,1,,,0,,,81,64
101430,note_off,,,,,10,0,1,,,0,,,84,64
101760,note_on,,,,,330,0,1,,,0,,,84,44
101760,set_tempo,,,,,460,1,0,705882,,,,,,
101760,note_on,,,,,0,0,2,,,0,,,81,47
101760,note_on,,,,,0,0,2,,,0,,,75,47
101760,note_on,,,,,0,0,2,,,0,,,65,47
101760,note_on,,,,,360,0,2,,,0,,,77,47
101920,set_tempo,,,,,160,1,0,560748,,,,,,
102120,note_on,,,,,0,0,1,,,0,,,85,53
102120,note_off,,,,,360,0,1,,,0,,,84,64
102240,note_on,,,,,0,0,1,,,0,,,86,57
102240,note_on,,,,,0,0,1,,,0,,,82,57
102240,note_off,,,,,120,0,1,,,0,,,85,64
102240,note_off,,,,,480,0,2,,,0,,,65,64
102240,note_off,,,,,0,0,2,,,0,,,81,64
102240,note_on,,,,,0,0,2,,,0,,,70,48
102240,note_on,,,,,0,0,2,,,0,,,74,48
102240,note_off,,,,,0,0,2,,,0,,,75,64
102330,note_off,,,,,0,0,1,,,0,,,86,64
102330,note_off,,,,,0,0,2,,,0,,,77,64
102330,note_off,,,,,0,0,2,,,0,,,70,64
102330,note_off,,,,,90,0,2,,,0,,,74,64
102330,note_off,,,,,90,0,1,,,0,,,82,64
102360,set_tempo,,,,,440,1,0,600000,,,,,,
102480,note_on,,,,,0,0,1,,,0,,,82,60
102480,note_on,,,,,0,0,2,,,0,,,70,59
102480,note_on,,,,,150,0,2,,,0,,,74,59
102480,note_on,,,,,150,0,1,,,0,,,86,60
102620,set_tempo,,,,,260,1,0,952381,,,,,,
102630,note_off,,,,,150,0,1,,,0,,,82,64
102630,note_off,,,,,0,0,1,,,0,,,86,64
102630,note_off,,,,,0,0,2,,,0,,,74,64
102630,note_off,,,,,150,0,2,,,0,,,70,64
102680,set_tempo,,,,,60,1,0,566038,,,,,,
102720,note_on,,,,,0,0,1,,,0,,,70,73
102720,note_on,,,,,0,0,1,,,0,,,74,73
102720,note_on,,,,,0,0,1,,,0,,,77,73
102720,note_on,,,,,0,0,1,,,0,,,86,73
102720,note_on,,,,,90,0,1,,,0,,,89,73
103440,note_off,,,,,0,0,1,,,0,,,77,64
103440,note_off,,,,,0,0,1,,,0,,,74,64
103440,note_off,,,,,0,0,1,,,0,,,89,64
103440,note_off,,,,,720,0,1,,,0,,,70,64
103440,note_off,,,,,0,0,1,,,0,,,86,64
103680,note_on,,,,,240,0,1,,,0,,,77,50
104100,set_tempo,,,,,1420,1,0,545455,,,,,,
104220,set_tempo,,,,,120,1,0,526316,,,,,,
104280,note_on,,,,,0,0,1,,,0,,,74,32
104280,note_off,,,,,600,0,1,,,0,,,77,64
104360,set_tempo,,,,,140,1,0,530973,,,,,,
104400,note_on,,,,,0,0,1,,,0,,,70,36
104400,note_off,,,,,120,0,1,,,0,,,74,64
104400,set_tempo,,,,,40,1,0,535714,,,,,,
104440,set_tempo,,,,,40,1,0,512821,,,,,,
104520,note_on,,,,,0,0,1,,,0,,,69,39
104520,note_off,,,,,120,0,1,,,0,,,70,64
104600,set_tempo,,,,,160,1,0,517241,,,,,,
104640,note_on,,,,,2010,0,2,,,0,,,60,38
104640,note_on,,,,,0,0,2,,,0,,,64,38
104640,note_on,,,,,0,0,2,,,0,,,58,38
104640,note_on,,,,,0,0,2,,,0,,,48,38
104640,note_on,,,,,0,0,1,,,0,,,69,42
104640,note_off,,,,,120,0,1,,,0,,,69,64
104880,note_on,,,,,0,0,1,,,0,,,67,32
104880,note_off,,,,,240,0,1,,,0,,,69,64
104880,set_tempo,,,,,280,1,0,560748,,,,,,
105060,note_on,,,,,0,0,1,,,0,,,68,38
105060,note_off,,,,,180,0,1,,,0,,,67,64
105120,note_on,,,,,0,0,1,,,0,,,65,42
105120,note_on,,,,,0,0,1,,,0,,,69,42
105120,note_off,,,,,60,0,1,,,0,,,68,64
105120,note_off,,,,,0,0,2,,,0,,,58,64
105120,note_off,,,,,480,0,2,,,0,,,48,64
105120,note_on,,,,,0,0,2,,,0,,,53,28
105120,note_on,,,,,0,0,2,,,0,,,57,28
105120,note_off,,,,,0,0,2,,,0,,,64,64
105210,note_off,,,,,90,0,2,,,0,,,57,64
105210,note_off,,,,,0,0,2,,,0,,,53,64
105210,note_off,,,,,0,0,2,,,0,,,60,64
105210,note_off,,,,,90,0,1,,,0,,,65,64
105210,note_off,,,,,0,0,1,,,0,,,69,64
105360,note_on,,,,,150,0,2,,,0,,,57,34
105360,note_on,,,,,150,0,1,,,0,,,69,37
105360,note_on,,,,,0,0,1,,,0,,,65,37
105360,note_on,,,,,0,0,2,,,0,,,53,34
105510,note_off,,,,,150,0,1,,,0,,,65,64
105510,note_off,,,,,0,0,1,,,0,,,69,64
105510,note_off,,,,,150,0,2,,,0,,,53,64
105510,note_off,,,,,0,0,2,,,0,,,57,64
105520,set_tempo,,,,,640,1,0,923077,,,,,,
105600,note_on,,,,,0,0,1,,,0,,,53,48
105600,note_on,,,,,90,0,1,,,0,,,72,48
105600,set_tempo,,,,,80,1,0,566038,,,,,,
105600,note_on,,,,,0,0,1,,,0,,,60,48
105600,note_on,,,,,0,0,1,,,0,,,69,48
106240,set_tempo,,,,,640,1,0,535714,,,,,,
106320,note_off,,,,,720,0,1,,,0,,,53,64
106320,note_off,,,,,0,0,1,,,0,,,69,64
106320,note_off,,,,,0,0,1,,,0,,,72,64
106320,note_off,,,,,0,0,1,,,0,,,60,64
106560,note_on,,,,,0,0,2,,,0,,,75,46
106560,note_on,,,,,240,0,1,,,0,,,84,48
106560,note_on,,,,,0,0,2,,,0,,,81,46
106560,note_on,,,,,1050,0,2,,,0,,,77,46
106560,note_on,,,,,0,0,2,,,0,,,65,46
106700,set_tempo,,,,,460,1,0,560748,,,,,,
106920,note_off,,,,,360,0,1,,,0,,,84,64
106920,note_on,,,,,0,0,1,,,0,,,85,54
107040,note_off,,,,,120,0,1,,,0,,,85,64
107040,note_on,,,,,0,0,1,,,0,,,82,49
107040,note_on,,,,,0,0,2,,,0,,,74,48
107040,note_on,,,,,0,0,2,,,0,,,70,48
107040,note_off,,,,,0,0,2,,,0,,,81,64
107040,note_off,,,,,0,0,2,,,0,,,75,64
107040,note_off,,,,,480,0,2,,,0,,,65,64
107040,note_on,,,,,0,0,1,,,0,,,86,49
107130,note_off,,,,,90,0,1,,,0,,,82,64
107130,note_off,,,,,0,0,1,,,0,,,86,64
107130,note_off,,,,,0,0,2,,,0,,,77,64
107130,note_off,,,,,0,0,2,,,0,,,70,64
107130,note_off,,,,,90,0,2,,,0,,,74,64
107160,set_tempo,,,,,460,1,0,588235,,,,,,
107280,note_on,,,,,150,0,1,,,0,,,86,60
107280,note_on,,,,,0,0,1,,,0,,,82,60
107280,note_on,,,,,150,0,2,,,0,,,74,62
107280,note_on,,,,,0,0,2,,,0,,,70,62
107380,set_tempo,,,,,220,1,0,582524,,,,,,
107400,set_tempo,,,,,20,1,0,659341,,,,,,
107430,note_off,,,,,150,0,2,,,0,,,70,64
107430,note_off,,,,,0,0,2,,,0,,,74,64
107430,note_off,,,,,150,0,1,,,0,,,82,64
107430,note_off,,,,,0,0,1,,,0,,,86,64
107500,set_tempo,,,,,100,1,0,769231,,,,,,
107520,control_change,,,,,90,0,2,,,0,64,127,,
107520,note_on,,,,,90,0,1,,,0,,,70,91
107540,set_tempo,,,,,40,1,0,722892,,,,,,
107550,note_on,,,,,0,0,1,,,0,,,74,82
107550,note_off,,,,,30,0,1,,,0,,,70,64
107580,note_on,,,,,0,0,1,,,0,,,77,80
107580,note_off,,,,,30,0,1,,,0,,,74,64
107580,set_tempo,,,,,40,1,0,631579,,,,,,
107600,set_tempo,,,,,20,1,0,612245,,,,,,
107610,note_off,,,,,30,0,1,,,0,,,77,64
107610,note_on,,,,,0,0,1,,,0,,,82,74
107620,set_tempo,,,,,20,1,0,582524,,,,,,
107640,note_off,,,,,30,0,1,,,0,,,82,64
107640,set_tempo,,,,,20,1,0,560748,,,,,,
107640,note_on,,,,,0,0,1,,,0,,,86,69
107660,set_tempo,,,,,20,1,0,550459,,,,,,
107670,note_off,,,,,30,0,1,,,0,,,86,64
107670,note_on,,,,,0,0,1,,,0,,,89,66
107680,set_tempo,,,,,20,1,0,535714,,,,,,
107700,set_tempo,,,,,20,1,0,517241,,,,,,
107700,note_off,,,,,30,0,1,,,0,,,89,64
107700,note_on,,,,,0,0,1,,,0,,,94,61
107720,set_tempo,,,,,20,1,0,508475,,,,,,
107730,note_off,,,,,30,0,1,,,0,,,94,64
107730,note_on,,,,,0,0,1,,,0,,,98,57
107740,set_tempo,,,,,20,1,0,504202,,,,,,
107760,note_off,,,,,30,0,1,,,0,,,98,64
107760,note_on,,,,,0,0,1,,,0,,,101,53
107880,note_off,,,,,120,0,1,,,0,,,101,64
108000,set_tempo,,,,,260,1,0,857143,,,,,,
108210,control_change,,,,,690,0,2,,,0,64,0,,
108480,note_on,,,,,600,0,1,,,0,,,77,70
108480,control_change,,,,,0,0,1,,,0,64,0,,
108480,set_tempo,,,,,480,1,0,550459,,,,,,
108800,set_tempo,,,,,320,1,0,545455,,,,,,
108860,set_tempo,,,,,60,1,0,540541,,,,,,
109320,note_off,,,,,840,0,1,,,0,,,77,64
109320,note_on,,,,,0,0,1,,,0,,,76,47
109400,set_tempo,,,,,540,1,0,535714,,,,,,
109440,note_on,,,,,0,0,1,,,0,,,76,56
109440,note_off,,,,,120,0,1,,,0,,,76,64
109680,note_on,,,,,0,0,1,,,0,,,74,42
109680,note_off,,,,,240,0,1,,,0,,,76,64
109800,set_tempo,,,,,400,1,0,512821,,,,,,
109860,note_on,,,,,0,0,1,,,0,,,72,35
109860,note_off,,,,,180,0,1,,,0,,,74,64
109904,note_off,,,,,44,0,1,,,0,,,72,64
109920,note_on,,,,,16,0,1,,,0,,,72,40
110160,note_on,,,,,0,0,1,,,0,,,70,35
110160,note_off,,,,,240,0,1,,,0,,,72,64
110160,set_tempo,,,,,360,1,0,508475,,,,,,
110340,note_off,,,,,180,0,1,,,0,,,70,64
110340,note_on,,,,,0,0,1,,,0,,,69,31
110384,note_off,,,,,44,0,1,,,0,,,69,64
110400,note_on,,,,,16,0,1,,,0,,,69,34
110400,note_on,,,,,0,0,2,,,0,,,48,27
110400,note_on,,,,,0,0,2,,,0,,,58,27
110400,note_on,,,,,0,0,2,,,0,,,64,27
110400,note_on,,,,,2190,0,2,,,0,,,60,27
110640,note_on,,,,,0,0,1,,,0,,,67,28
110640,note_off,,,,,240,0,1,,,0,,,69,64
110680,set_tempo,,,,,520,1,0,560748,,,,,,
110820,note_on,,,,,0,0,1,,,0,,,68,33
110820,note_off,,,,,180,0,1,,,0,,,67,64
110880,note_off,,,,,60,0,1,,,0,,,68,64
110880,note_on,,,,,0,0,2,,,0,,,57,22
110880,note_off,,,,,0,0,2,,,0,,,58,64
110880,note_off,,,,,0,0,2,,,0,,,64,64
110880,note_on,,,,,0,0,2,,,0,,,53,22
110880,note_on,,,,,0,0,1,,,0,,,69,34
110880,note_on,,,,,0,0,1,,,0,,,65,34
110880,note_off,,,,,480,0,2,,,0,,,48,64
110970,note_off,,,,,90,0,2,,,0,,,57,64
110970,note_off,,,,,0,0,2,,,0,,,53,64
110970,note_off,,,,,0,0,2,,,0,,,60,64
110970,note_off,,,,,90,0,1,,,0,,,65,64
110970,note_off,,,,,0,0,1,,,0,,,69,64
110980,set_tempo,,,,,300,1,0,582524,,,,,,
111120,note_on,,,,,0,0,2,,,0,,,53,28
111120,note_on,,,,,150,0,2,,,0,,,57,28
111120,note_on,,,,,150,0,1,,,0,,,69,28
111120,note_on,,,,,0,0,1,,,0,,,65,28
111260,set_tempo,,,,,280,1,0,705882,,,,,,
111270,note_off,,,,,150,0,1,,,0,,,65,64
111270,note_off,,,,,0,0,2,,,0,,,57,64
111270,note_off,,,,,150,0,2,,,0,,,53,64
111270,note_off,,,,,0,0,1,,,0,,,69,64
111360,note_on,,,,,90,0,1,,,0,,,72,39
111360,note_on,,,,,0,0,1,,,0,,,69,39
111360,note_on,,,,,0,0,1,,,0,,,60,39
111360,note_on,,,,,0,0,1,,,0,,,53,39
111360,set_tempo,,,,,100,1,0,560748,,,,,,
112080,set_tempo,,,,,720,1,0,705882,,,,,,
112080,note_off,,,,,0,0,1,,,0,,,72,64
112080,note_off,,,,,720,0,1,,,0,,,53,64
112080,note_off,,,,,0,0,1,,,0,,,60,64
112080,note_off,,,,,0,0,1,,,0,,,69,64
112280,set_tempo,,,,,200,1,0,517241,,,,,,
112300,set_tempo,,,,,20,1,0,508475,,,,,,
112320,note_on,,,,,1050,0,2,,,0,,,53,65
112380,note_on,,,,,0,0,2,,,0,,,54,52
112380,note_off,,,,,60,0,2,,,0,,,53,64
112440,note_off,,,,,60,0,2,,,0,,,54,64
112460,set_tempo,,,,,160,1,0,483871,,,,,,
112560,note_on,,,,,120,0,2,,,0,,,51,59
112620,note_off,,,,,60,0,2,,,0,,,51,64
112620,note_on,,,,,0,0,2,,,0,,,54,54
112680,set_tempo,,,,,220,1,0,451128,,,,,,
112680,note_off,,,,,60,0,2,,,0,,,54,64
112800,note_on,,,,,120,0,2,,,0,,,53,69
112800,note_on,,,,,0,0,2,,,0,,,65,69
112860,note_off,,,,,60,0,2,,,0,,,65,64
112860,note_on,,,,,0,0,2,,,0,,,54,59
112860,note_on,,,,,0,0,2,,,0,,,66,59
112860,note_off,,,,,0,0,2,,,0,,,53,64
112920,note_off,,,,,60,0,2,,,0,,,66,64
112920,note_off,,,,,0,0,2,,,0,,,54,64
113040,note_on,,,,,120,0,2,,,0,,,51,65
113040,note_on,,,,,0,0,2,,,0,,,63,65
113100,note_off,,,,,0,0,2,,,0,,,51,64
113100,note_on,,,,,0,0,2,,,0,,,54,60
113100,note_on,,,,,0,0,2,,,0,,,66,60
113100,note_off,,,,,60,0,2,,,0,,,63,64
113160,note_off,,,,,0,0,2,,,0,,,54,64
113160,note_off,,,,,60,0,2,,,0,,,66,64
113220,set_tempo,,,,,540,1,0,705882,,,,,,
113280,set_tempo,,,,,60,1,0,560748,,,,,,
113280,note_on,,,,,0,0,2,,,0,,,60,39
113280,note_on,,,,,0,0,2,,,0,,,69,39
113280,note_on,,,,,0,0,2,,,0,,,72,36
113280,note_on,,,,,120,0,2,,,0,,,81,36
113430,note_off,,,,,0,0,2,,,0,,,81,64
113430,note_off,,,,,0,0,2,,,0,,,72,64
113430,note_off,,,,,0,0,2,,,0,,,69,64
113430,note_off,,,,,150,0,2,,,0,,,60,64
113440,set_tempo,,,,,160,1,0,582524,,,,,,
113520,note_on,,,,,90,0,2,,,0,,,81,42
113520,note_on,,,,,0,0,2,,,0,,,60,45
113520,note_on,,,,,0,0,2,,,0,,,69,45
113520,note_on,,,,,0,0,2,,,0,,,72,42
113640,set_tempo,,,,,200,1,0,612245,,,,,,
113700,note_off,,,,,0,0,2,,,0,,,72,64
113700,note_off,,,,,0,0,2,,,0,,,69,64
113700,note_off,,,,,180,0,2,,,0,,,60,64
113700,note_off,,,,,0,0,2,,,0,,,81,64
113700,set_tempo,,,,,60,1,0,606061,,,,,,
113720,set_tempo,,,,,20,1,0,857143,,,,,,
113760,note_on,,,,,0,0,2,,,0,,,72,54
113760,note_on,,,,,0,0,2,,,0,,,81,54
113760,note_on,,,,,0,0,2,,,0,,,84,54
113760,note_on,,,,,60,0,2,,,0,,,69,54
113760,set_tempo,,,,,40,1,0,560748,,,,,,
113980,set_tempo,,,,,220,1,0,740741,,,,,,
114000,set_tempo,,,,,20,1,0,2727273,,,,,,
114240,set_tempo,,,,,240,1,0,550459,,,,,,
114240,note_on,,,,,480,0,2,,,0,,,41,65
114242,note_off,,,,,0,0,2,,,0,,,84,64
114242,note_off,,,,,0,0,2,,,0,,,69,64
114242,note_off,,,,,2,0,2,,,0,,,72,64
114242,note_off,,,,,0,0,2,,,0,,,81,64
114300,note_on,,,,,0,0,2,,,0,,,42,52
114300,note_off,,,,,58,0,2,,,0,,,41,64
114300,set_tempo,,,,,60,1,0,500000,,,,,,
114340,set_tempo,,,,,40,1,0,495868,,,,,,
114360,note_off,,,,,60,0,2,,,0,,,42,64
114480,set_tempo,,,,,140,1,0,480000,,,,,,
114480,note_on,,,,,120,0,2,,,0,,,39,59
114540,note_on,,,,,0,0,2,,,0,,,42,54
114540,note_off,,,,,60,0,2,,,0,,,39,64
114580,set_tempo,,,,,100,1,0,468750,,,,,,
114600,note_off,,,,,60,0,2,,,0,,,42,64
114680,set_tempo,,,,,100,1,0,451128,,,,,,
114720,note_on,,,,,120,0,2,,,0,,,53,69
114720,note_on,,,,,0,0,2,,,0,,,41,69
114780,note_off,,,,,60,0,2,,,0,,,41,64
114780,note_off,,,,,0,0,2,,,0,,,53,64
114780,note_on,,,,,0,0,2,,,0,,,42,59
114780,note_on,,,,,0,0,2,,,0,,,54,59
114840,note_off,,,,,60,0,2,,,0,,,54,64
114840,note_off,,,,,0,0,2,,,0,,,42,64
114960,note_on,,,,,120,0,2,,,0,,,39,65
114960,note_on,,,,,0,0,2,,,0,,,51,65
115020,note_off,,,,,60,0,2,,,0,,,51,64
115020,note_on,,,,,0,0,2,,,0,,,42,60
115020,note_off,,,,,0,0,2,,,0,,,39,64
115020,note_on,,,,,0,0,2,,,0,,,54,60
115080,note_off,,,,,0,0,2,,,0,,,54,64
115080,note_off,,,,,60,0,2,,,0,,,42,64
115140,set_tempo,,,,,460,1,0,705882,,,,,,
115200,note_on,,,,,120,0,2,,,0,,,57,39
115200,note_on,,,,,0,0,2,,,0,,,60,36
115200,note_on,,,,,0,0,2,,,0,,,69,36
115200,set_tempo,,,,,60,1,0,560748,,,,,,
115200,note_on,,,,,0,0,2,,,0,,,48,39
115340,set_tempo,,,,,140,1,0,576923,,,,,,
115350,note_off,,,,,150,0,2,,,0,,,69,64
115350,note_off,,,,,0,0,2,,,0,,,60,64
115350,note_off,,,,,0,0,2,,,0,,,57,64
115350,note_off,,,,,0,0,2,,,0,,,48,64
115440,note_on,,,,,90,0,2,,,0,,,60,42
115440,set_tempo,,,,,100,1,0,571429,,,,,,
115440,note_on,,,,,0,0,2,,,0,,,69,42
115440,note_on,,,,,0,0,2,,,0,,,57,45
115440,note_on,,,,,0,0,2,,,0,,,48,45
115540,set_tempo,,,,,100,1,0,600000,,,,,,
115620,note_off,,,,,180,0,2,,,0,,,48,64
115620,note_off,,,,,0,0,2,,,0,,,57,64
115620,note_off,,,,,0,0,2,,,0,,,69,64
115620,note_off,,,,,0,0,2,,,0,,,60,64
115620,set_tempo,,,,,80,1,0,606061,,,,,,
115640,set_tempo,,,,,20,1,0,857143,,,,,,
115680,note_on,,,,,60,0,2,,,0,,,57,54
115680,note_on,,,,,0,0,2,,,0,,,72,54
115680,note_on,,,,,0,0,2,,,0,,,60,54
115680,note_on,,,,,0,0,2,,,0,,,69,54
115680,set_tempo,,,,,40,1,0,560748,,,,,,
115900,set_tempo,,,,,220,1,0,740741,,,,,,
115920,set_tempo,,,,,20,1,0,2727273,,,,,,
116160,set_tempo,,,,,240,1,0,550459,,,,,,
116160,note_on,,,,,480,0,2,,,0,,,53,65
116162,note_off,,,,,2,0,2,,,0,,,69,64
116162,note_off,,,,,0,0,2,,,0,,,57,64
116162,note_off,,,,,0,0,2,,,0,,,72,64
116162,note_off,,,,,0,0,2,,,0,,,60,64
116220,set_tempo,,,,,60,1,0,500000,,,,,,
116220,note_off,,,,,58,0,2,,,0,,,53,64
116220,note_on,,,,,0,0,2,,,0,,,54,52
116260,set_tempo,,,,,40,1,0,495868,,,,,,
116280,note_off,,,,,60,0,2,,,0,,,54,64
116280,set_tempo,,,,,20,1,0,491803,,,,,,
116380,set_tempo,,,,,100,1,0,476190,,,,,,
116400,note_on,,,,,120,0,2,,,0,,,63,59
116400,note_on,,,,,0,0,2,,,0,,,51,59
116460,note_off,,,,,0,0,2,,,0,,,63,64
116460,note_off,,,,,60,0,2,,,0,,,51,64
116460,note_on,,,,,0,0,2,,,0,,,54,54
116460,note_on,,,,,0,0,2,,,0,,,66,54
116500,set_tempo,,,,,120,1,0,472441,,,,,,
116520,note_off,,,,,60,0,2,,,0,,,54,64
116520,note_off,,,,,0,0,2,,,0,,,66,64
116520,set_tempo,,,,,20,1,0,465116,,,,,,
116640,note_on,,,,,120,0,2,,,0,,,41,69
116700,note_off,,,,,60,0,2,,,0,,,41,64
116700,note_on,,,,,0,0,2,,,0,,,42,59
116720,set_tempo,,,,,200,1,0,454545,,,,,,
116730,control_change,,,,,30,0,2,,,0,7,79,,
116730,control_change,,,,,0,0,2,,,0,7,79,,
116760,note_off,,,,,30,0,2,,,0,,,42,64
116800,control_change,,,,,0,0,2,,,0,7,81,,
116800,control_change,,,,,40,0,2,,,0,7,81,,
116860,set_tempo,,,,,140,1,0,451128,,,,,,
116880,note_on,,,,,80,0,2,,,0,,,51,65
116880,note_on,,,,,0,0,2,,,0,,,39,65
116930,control_change,,,,,0,0,2,,,0,7,84,,
116930,control_change,,,,,0,0,2,,,0,7,83,,
116930,control_change,,,,,50,0,2,,,0,7,83,,
116930,control_change,,,,,0,0,2,,,0,7,84,,
116940,note_off,,,,,0,0,2,,,0,,,51,64
116940,note_on,,,,,0,0,2,,,0,,,54,60
116940,note_off,,,,,10,0,2,,,0,,,39,64
116940,note_on,,,,,0,0,2,,,0,,,42,60
117000,note_off,,,,,0,0,2,,,0,,,42,64
117000,note_off,,,,,60,0,2,,,0,,,54,64
117060,control_change,,,,,0,0,2,,,0,7,85,,
117060,control_change,,,,,60,0,2,,,0,7,85,,
117070,control_change,,,,,0,0,2,,,0,7,86,,
117070,control_change,,,,,10,0,2,,,0,7,86,,
117100,set_tempo,,,,,240,1,0,447761,,,,,,
117120,note_on,,,,,50,0,2,,,0,,,50,70
117180,note_on,,,,,0,0,2,,,0,,,54,67
117180,note_off,,,,,60,0,2,,,0,,,50,64
117190,control_change,,,,,10,0,2,,,0,7,88,,
117190,control_change,,,,,0,0,2,,,0,7,88,,
117240,note_off,,,,,50,0,2,,,0,,,54,64
117280,control_change,,,,,0,0,2,,,0,7,92,,
117280,control_change,,,,,40,0,2,,,0,7,92,,
117320,set_tempo,,,,,220,1,0,431655,,,,,,
117360,note_on,,,,,80,0,2,,,0,,,63,86
117360,note_on,,,,,0,0,2,,,0,,,51,86
117410,control_change,,,,,0,0,2,,,0,7,93,,
117410,control_change,,,,,50,0,2,,,0,7,93,,
117420,note_off,,,,,10,0,2,,,0,,,51,64
117420,note_off,,,,,0,0,2,,,0,,,63,64
117420,note_on,,,,,0,0,2,,,0,,,66,81
117420,note_on,,,,,0,0,2,,,0,,,54,81
117480,note_off,,,,,60,0,2,,,0,,,54,64
117480,note_off,,,,,0,0,2,,,0,,,66,64
117510,control_change,,,,,0,0,2,,,0,7,96,,
117510,control_change,,,,,30,0,2,,,0,7,96,,
117540,set_tempo,,,,,220,1,0,425532,,,,,,
117600,note_on,,,,,90,0,2,,,0,,,35,96
117600,note_on,,,,,0,0,2,,,0,,,47,96
117610,control_change,,,,,10,0,2,,,0,7,97,,
117610,control_change,,,,,0,0,2,,,0,7,97,,
117620,control_change,,,,,10,0,2,,,0,7,98,,
117620,control_change,,,,,0,0,2,,,0,7,98,,
117630,control_change,,,,,10,0,2,,,0,7,99,,
117630,control_change,,,,,0,0,2,,,0,7,99,,
117660,note_off,,,,,0,0,2,,,0,,,35,64
117660,note_on,,,,,0,0,2,,,0,,,54,89
117660,note_on,,,,,0,0,2,,,0,,,42,89
117660,note_off,,,,,30,0,2,,,0,,,47,64
117720,note_off,,,,,0,0,2,,,0,,,42,64
117720,note_off,,,,,60,0,2,,,0,,,54,64
117780,control_change,,,,,0,0,2,,,0,7,100,,
117780,control_change,,,,,60,0,2,,,0,7,100,,
117840,note_on,,,,,0,0,2,,,0,,,46,100
117840,note_on,,,,,60,0,2,,,0,,,34,100
117870,control_change,,,,,30,0,2,,,0,7,103,,
117870,control_change,,,,,0,0,2,,,0,7,103,,
117900,note_on,,,,,0,0,2,,,0,,,42,92
117900,note_on,,,,,0,0,2,,,0,,,54,92
117900,note_off,,,,,0,0,2,,,0,,,34,64
117900,note_off,,,,,30,0,2,,,0,,,46,64
117930,control_change,,,,,0,0,2,,,0,7,104,,
117930,control_change,,,,,30,0,2,,,0,7,104,,
117940,control_change,,,,,0,0,2,,,0,7,105,,
117940,control_change,,,,,10,0,2,,,0,7,105,,
117960,note_off,,,,,0,0,2,,,0,,,54,64
117960,note_off,,,,,20,0,2,,,0,,,42,64
117960,set_tempo,,,,,420,1,0,458015,,,,,,
118030,control_change,,,,,70,0,2,,,0,7,107,,
118030,control_change,,,,,0,0,2,,,0,7,107,,
118080,note_on,,,,,0,0,2,,,0,,,45,106
118080,control_change,,,,,50,0,2,,,0,7,109,,
118080,note_on,,,,,0,0,2,,,0,,,33,106
118080,control_change,,,,,0,0,2,,,0,7,109,,
118120,set_tempo,,,,,160,1,0,500000,,,,,,
118140,note_off,,,,,60,0,2,,,0,,,33,64
118140,note_off,,,,,0,0,2,,,0,,,45,64
118140,note_on,,,,,0,0,2,,,0,,,53,95
118140,note_on,,,,,0,0,2,,,0,,,41,95
118170,control_change,,,,,30,0,2,,,0,7,110,,
118170,control_change,,,,,0,0,2,,,0,7,111,,
118170,control_change,,,,,0,0,2,,,0,7,111,,
118170,control_change,,,,,0,0,2,,,0,7,110,,
118180,control_change,,,,,10,0,2,,,0,7,112,,
118180,control_change,,,,,0,0,2,,,0,7,112,,
118200,note_off,,,,,20,0,2,,,0,,,41,64
118200,note_off,,,,,0,0,2,,,0,,,53,64
118200,set_tempo,,,,,80,1,0,535714,,,,,,
118270,control_change,,,,,70,0,2,,,0,7,113,,
118270,control_change,,,,,0,0,2,,,0,7,113,,
118280,control_change,,,,,10,0,2,,,0,7,114,,
118280,control_change,,,,,0,0,2,,,0,7,114,,
118320,note_on,,,,,0,0,2,,,0,,,65,102
118320,note_on,,,,,0,0,2,,,0,,,77,102
118320,note_on,,,,,0,0,2,,,0,,,45,99
118320,note_on,,,,,0,0,2,,,0,,,72,102
118320,note_on,,,,,0,0,2,,,0,,,75,102
118320,control_change,,,,,0,0,2,,,0,7,116,,
118320,note_on,,,,,0,0,2,,,0,,,41,99
118320,control_change,,,,,0,0,2,,,0,7,116,,
118320,note_on,,,,,40,0,2,,,0,,,29,99
118360,set_tempo,,,,,160,1,0,571429,,,,,,
118374,note_off,,,,,0,0,2,,,0,,,29,64
118374,note_off,,,,,0,0,2,,,0,,,75,64
118374,note_off,,,,,0,0,2,,,0,,,45,64
118374,note_off,,,,,0,0,2,,,0,,,65,64
118374,note_off,,,,,0,0,2,,,0,,,72,64
118374,note_off,,,,,54,0,2,,,0,,,77,64
118374,note_off,,,,,0,0,2,,,0,,,41,64
118380,control_change,,,,,6,0,2,,,0,7,118,,
118380,control_change,,,,,0,0,2,,,0,7,118,,
118400,note_on,,,,,0,0,2,,,0,,,77,109
118400,note_on,,,,,0,0,2,,,0,,,72,109
118400,note_on,,,,,0,0,2,,,0,,,41,104
118400,note_on,,,,,0,0,2,,,0,,,75,109
118400,note_on,,,,,0,0,2,,,0,,,29,104
118400,note_on,,,,,20,0,2,,,0,,,45,104
118400,note_on,,,,,0,0,2,,,0,,,65,109
118454,note_off,,,,,54,0,2,,,0,,,77,64
118454,note_off,,,,,0,0,2,,,0,,,72,64
118454,note_off,,,,,0,0,2,,,0,,,75,64
118454,note_off,,,,,0,0,2,,,0,,,41,64
118454,note_off,,,,,0,0,2,,,0,,,29,64
118454,note_off,,,,,0,0,2,,,0,,,45,64
118454,note_off,,,,,0,0,2,,,0,,,65,64
118470,control_change,,,,,0,0,2,,,0,7,121,,
118470,control_change,,,,,0,0,2,,,0,7,122,,
118470,control_change,,,,,16,0,2,,,0,7,121,,
118470,control_change,,,,,0,0,2,,,0,7,122,,
118480,note_on,,,,,10,0,2,,,0,,,72,112
118480,note_on,,,,,0,0,2,,,0,,,29,108
118480,note_on,,,,,0,0,2,,,0,,,41,108
118480,note_on,,,,,0,0,2,,,0,,,45,108
118480,note_on,,,,,0,0,2,,,0,,,65,112
118480,note_on,,,,,0,0,2,,,0,,,75,112
118480,note_on,,,,,0,0,2,,,0,,,77,112
118480,set_tempo,,,,,120,1,0,612245,,,,,,
118534,control_change,,,,,0,0,2,,,0,7,125,,
118534,control_change,,,,,0,0,2,,,0,7,125,,
118534,note_off,,,,,0,0,2,,,0,,,45,64
118534,note_off,,,,,0,0,2,,,0,,,29,64
118534,note_off,,,,,0,0,2,,,0,,,41,64
118534,note_off,,,,,0,0,2,,,0,,,65,64
118534,note_off,,,,,0,0,2,,,0,,,75,64
118534,note_off,,,,,54,0,2,,,0,,,77,64
118534,note_off,,,,,0,0,2,,,0,,,72,64
118560,note_on,,,,,0,0,2,,,0,,,89,112
118560,note_on,,,,,0,0,2,,,0,,,45,112
118560,note_on,,,,,0,0,2,,,0,,,77,112
118560,note_on,,,,,0,0,2,,,0,,,84,112
118560,note_on,,,,,0,0,2,,,0,,,29,112
118560,note_on,,,,,26,0,2,,,0,,,41,112
118560,note_on,,,,,0,0,2,,,0,,,87,112
118620,control_change,,,,,60,0,2,,,0,7,127,,
118620,control_change,,,,,0,0,2,,,0,7,127,,
118680,note_off,,,,,0,0,2,,,0,,,29,64
118680,note_off,,,,,0,0,2,,,0,,,41,64
118680,note_off,,,,,0,0,2,,,0,,,77,64
118680,note_off,,,,,0,0,2,,,0,,,84,64
118680,note_off,,,,,60,0,2,,,0,,,89,64
118680,note_off,,,,,0,0,2,,,0,,,87,64
118680,note_off,,,,,0,0,2,,,0,,,45,64
118800,control_change,,,,,120,0,2,,,0,64,0,,
118800,set_tempo,,,,,320,1,0,631579,,,,,,
118820,set_tempo,,,,,20,1,0,645161,,,,,,
118950,note_on,,,,,150,0,2,,,0,,,29,94
118960,set_tempo,,,,,140,1,0,600000,,,,,,
118980,note_off,,,,,30,0,2,,,0,,,29,64
118980,note_on,,,,,0,0,2,,,0,,,30,96
119000,set_tempo,,,,,40,1,0,545455,,,,,,
119010,note_off,,,,,30,0,2,,,0,,,30,64
119010,note_on,,,,,0,0,2,,,0,,,32,103
119040,note_off,,,,,30,0,2,,,0,,,32,64
119040,note_on,,,,,0,0,2,,,0,,,30,108
119060,set_tempo,,,,,60,1,0,526316,,,,,,
119070,note_off,,,,,30,0,2,,,0,,,30,64
119070,note_on,,,,,0,0,2,,,0,,,32,105
119100,note_off,,,,,30,0,2,,,0,,,32,64
119100,note_on,,,,,0,0,2,,,0,,,30,103
119130,note_off,,,,,30,0,2,,,0,,,30,64
119130,note_on,,,,,0,0,2,,,0,,,32,101
119160,note_on,,,,,0,0,2,,,0,,,30,95
119160,note_off,,,,,30,0,2,,,0,,,32,64
119190,note_on,,,,,0,0,2,,,0,,,32,92
119190,note_off,,,,,30,0,2,,,0,,,30,64
119220,note_off,,,,,30,0,2,,,0,,,32,64
119220,note_on,,,,,0,0,2,,,0,,,30,90
119250,note_off,,,,,30,0,2,,,0,,,30,64
119250,note_on,,,,,0,0,2,,,0,,,32,87
119280,note_off,,,,,30,0,2,,,0,,,32,64
119280,note_on,,,,,0,0,2,,,0,,,30,83
119310,note_on,,,,,0,0,2,,,0,,,32,79
119310,note_off,,,,,30,0,2,,,0,,,30,64
119340,note_off,,,,,30,0,2,,,0,,,32,64
119340,note_on,,,,,0,0,2,,,0,,,30,78
119360,set_tempo,,,,,300,1,0,540541,,,,,,
119370,note_on,,,,,0,0,2,,,0,,,32,75
119370,note_off,,,,,30,0,2,,,0,,,30,64
119400,note_off,,,,,30,0,2,,,0,,,32,64
119400,note_on,,,,,0,0,2,,,0,,,30,73
119430,note_off,,,,,30,0,2,,,0,,,30,64
119430,note_on,,,,,0,0,2,,,0,,,32,71
119460,note_off,,,,,30,0,2,,,0,,,32,64
119460,note_on,,,,,0,0,2,,,0,,,30,67
119480,set_tempo,,,,,120,1,0,566038,,,,,,
119490,note_off,,,,,30,0,2,,,0,,,30,64
119490,note_on,,,,,0,0,2,,,0,,,32,66
119520,note_off,,,,,30,0,2,,,0,,,32,64
119520,note_on,,,,,0,0,2,,,0,,,30,64
119550,note_on,,,,,0,0,2,,,0,,,32,62
119550,note_off,,,,,30,0,2,,,0,,,30,64
119580,note_off,,,,,30,0,2,,,0,,,32,64
119580,set_tempo,,,,,100,1,0,631579,,,,,,
119580,note_on,,,,,0,0,2,,,0,,,30,60
119610,note_off,,,,,30,0,2,,,0,,,30,64
119610,note_on,,,,,0,0,2,,,0,,,32,58
119640,note_on,,,,,0,0,2,,,0,,,30,55
119640,note_off,,,,,30,0,2,,,0,,,32,64
119670,note_on,,,,,0,0,2,,,0,,,32,55
119670,note_off,,,,,30,0,2,,,0,,,30,64
119680,set_tempo,,,,,100,1,0,659341,,,,,,
119700,note_off,,,,,30,0,2,,,0,,,32,64
119700,note_on,,,,,0,0,2,,,0,,,30,54
119700,set_tempo,,,,,20,1,0,674157,,,,,,
119720,set_tempo,,,,,20,1,0,689655,,,,,,
119730,note_off,,,,,30,0,2,,,0,,,30,64
119730,note_on,,,,,0,0,2,,,0,,,32,51
119760,note_off,,,,,30,0,2,,,0,,,32,64
119760,note_on,,,,,0,0,2,,,0,,,30,51
119760,set_tempo,,,,,40,1,0,869565,,,,,,
119780,set_tempo,,,,,20,1,0,983607,,,,,,
119790,note_on,,,,,0,0,2,,,0,,,32,51
119790,note_off,,,,,30,0,2,,,0,,,30,64
119820,note_off,,,,,30,0,2,,,0,,,32,64
119820,note_on,,,,,0,0,2,,,0,,,30,48
119850,note_off,,,,,30,0,2,,,0,,,30,64
119850,note_on,,,,,0,0,2,,,0,,,32,46
119880,note_on,,,,,0,0,2,,,0,,,30,41
119880,note_off,,,,,30,0,2,,,0,,,32,64
119920,note_off,,,,,40,0,2,,,0,,,30,64
119920,note_on,,,,,0,0,2,,,0,,,29,41
119960,note_on,,,,,0,0,2,,,0,,,30,42
119960,note_off,,,,,40,0,2,,,0,,,29,64
120000,note_on,,,,,0,0,2,,,0,,,29,46
120000,note_off,,,,,40,0,2,,,0,,,30,64
120120,note_off,,,,,120,0,2,,,0,,,29,64
120130,control_change,,,,,10,0,2,,,0,7,80,,
120160,set_tempo,,,,,380,1,0,1304348,,,,,,
120420,set_tempo,,,,,260,1,0,674157,,,,,,
120720,note_on,,,,,0,0,1,,,0,,,46,48
120720,note_on,,,,,0,0,1,,,0,,,65,48
120720,set_tempo,,,,,300,1,0,550459,,,,,,
120720,note_on,,,,,0,0,2,,,0,,,50,37
120720,control_change,,,,,590,0,2,,,0,64,127,,
120720,note_on,,,,,0,0,1,,,0,,,58,48
120720,note_on,,,,,8640,0,1,,,0,,,70,48
120840,note_off,,,,,120,0,2,,,0,,,50,64
120840,set_tempo,,,,,120,1,0,631579,,,,,,
120840,note_on,,,,,0,0,2,,,0,,,53,34
120900,control_change,,,,,60,0,2,,,0,64,0,,
120936,note_off,,,,,36,0,2,,,0,,,53,64
120940,set_tempo,,,,,100,1,0,625000,,,,,,
120960,note_off,,,,,0,0,1,,,0,,,58,64
120960,note_on,,,,,0,0,1,,,0,,,65,48
120960,note_off,,,,,0,0,1,,,0,,,65,64
120960,control_change,,,,,24,0,2,,,0,64,127,,
120960,note_on,,,,,0,0,1,,,0,,,46,48
120960,note_on,,,,,0,0,1,,,0,,,70,48
120960,note_on,,,,,0,0,2,,,0,,,50,42
120960,note_off,,,,,240,0,1,,,0,,,46,64
120960,note_off,,,,,0,0,1,,,0,,,70,64
120960,note_on,,,,,0,0,1,,,0,,,58,48
121080,note_off,,,,,120,0,2,,,0,,,50,64
121080,note_on,,,,,0,0,2,,,0,,,53,34
121140,control_change,,,,,60,0,2,,,0,64,0,,
121176,note_off,,,,,36,0,2,,,0,,,53,64
121180,set_tempo,,,,,240,1,0,566038,,,,,,
121200,note_on,,,,,0,0,1,,,0,,,69,42
121200,note_off,,,,,0,0,1,,,0,,,65,64
121200,note_off,,,,,0,0,1,,,0,,,58,64
121200,note_on,,,,,0,0,1,,,0,,,46,42
121200,note_off,,,,,0,0,1,,,0,,,70,64
121200,note_off,,,,,240,0,1,,,0,,,46,64
121200,control_change,,,,,24,0,2,,,0,64,127,,
121200,note_on,,,,,0,0,2,,,0,,,48,44
121200,note_on,,,,,0,0,1,,,0,,,57,42
121200,note_on,,,,,0,0,1,,,0,,,65,42
121200,set_tempo,,,,,20,1,0,560748,,,,,,
121320,note_off,,,,,120,0,2,,,0,,,48,64
121320,note_on,,,,,0,0,2,,,0,,,53,36
121380,set_tempo,,,,,180,1,0,550459,,,,,,
121380,control_change,,,,,60,0,2,,,0,64,0,,
121416,note_off,,,,,36,0,2,,,0,,,53,64
121440,note_off,,,,,240,0,1,,,0,,,46,64
121440,note_off,,,,,0,0,1,,,0,,,57,64
121440,note_off,,,,,0,0,1,,,0,,,65,64
121440,note_off,,,,,0,0,1,,,0,,,69,64
121440,note_on,,,,,0,0,1,,,0,,,70,49
121440,note_on,,,,,0,0,1,,,0,,,58,49
121440,note_on,,,,,0,0,1,,,0,,,46,49
121440,note_on,,,,,0,0,1,,,0,,,65,49
121440,note_on,,,,,0,0,2,,,0,,,50,45
121440,control_change,,,,,24,0,2,,,0,64,127,,
121560,note_off,,,,,120,0,2,,,0,,,50,64
121560,note_on,,,,,0,0,2,,,0,,,53,37
121620,control_change,,,,,60,0,2,,,0,64,0,,
121656,note_off,,,,,36,0,2,,,0,,,53,64
121680,note_on,,,,,0,0,2,,,0,,,51,48
121680,control_change,,,,,24,0,2,,,0,64,127,,
121680,note_on,,,,,0,0,1,,,0,,,72,54
121680,note_on,,,,,0,0,1,,,0,,,65,54
121680,note_on,,,,,0,0,1,,,0,,,60,54
121680,note_on,,,,,0,0,1,,,0,,,46,54
121680,note_off,,,,,0,0,1,,,0,,,70,64
121680,note_off,,,,,240,0,1,,,0,,,46,64
121680,note_off,,,,,0,0,1,,,0,,,58,64
121680,note_off,,,,,0,0,1,,,0,,,65,64
121800,note_on,,,,,0,0,2,,,0,,,53,38
121800,note_off,,,,,120,0,2,,,0,,,51,64
121820,set_tempo,,,,,440,1,0,612245,,,,,,
121840,set_tempo,,,,,20,1,0,652174,,,,,,
121860,control_change,,,,,60,0,2,,,0,64,0,,
121860,set_tempo,,,,,20,1,0,631579,,,,,,
121896,note_off,,,,,36,0,2,,,0,,,53,64
121920,note_on,,,,,0,0,2,,,0,,,52,50
121920,control_change,,,,,24,0,2,,,0,64,127,,
121920,note_off,,,,,0,0,1,,,0,,,72,64
121920,note_on,,,,,0,0,1,,,0,,,46,57
121920,note_on,,,,,0,0,1,,,0,,,62,57
121920,note_on,,,,,0,0,1,,,0,,,65,57
121920,note_on,,,,,0,0,1,,,0,,,74,57
121920,note_off,,,,,0,0,1,,,0,,,65,64
121920,note_off,,,,,0,0,1,,,0,,,60,64
121920,note_off,,,,,240,0,1,,,0,,,46,64
122000,set_tempo,,,,,140,1,0,600000,,,,,,
122020,set_tempo,,,,,20,1,0,588235,,,,,,
122040,note_off,,,,,120,0,2,,,0,,,52,64
122040,note_on,,,,,0,0,2,,,0,,,53,41
122136,note_off,,,,,96,0,2,,,0,,,53,64
122160,note_on,,,,,24,0,2,,,0,,,53,36
122200,set_tempo,,,,,180,1,0,571429,,,,,,
122256,note_off,,,,,96,0,2,,,0,,,53,64
122280,note_on,,,,,24,0,2,,,0,,,53,30
122376,note_off,,,,,96,0,2,,,0,,,53,64
122400,note_on,,,,,24,0,2,,,0,,,53,36
122496,note_off,,,,,96,0,2,,,0,,,53,64
122520,note_on,,,,,24,0,2,,,0,,,53,37
122580,control_change,,,,,60,0,2,,,0,64,0,,
122616,note_off,,,,,36,0,2,,,0,,,53,64
122620,set_tempo,,,,,420,1,0,550459,,,,,,
122640,note_on,,,,,0,0,2,,,0,,,51,40
122640,control_change,,,,,24,0,2,,,0,64,127,,
122640,note_off,,,,,720,0,1,,,0,,,46,64
122640,note_off,,,,,0,0,1,,,0,,,62,64
122640,note_off,,,,,0,0,1,,,0,,,65,64
122640,note_off,,,,,0,0,1,,,0,,,74,64
122640,note_on,,,,,0,0,1,,,0,,,72,48
122640,note_on,,,,,0,0,1,,,0,,,60,48
122640,note_on,,,,,0,0,1,,,0,,,46,48
122640,note_on,,,,,0,0,1,,,0,,,65,48
122700,set_tempo,,,,,80,1,0,545455,,,,,,
122760,note_on,,,,,0,0,2,,,0,,,50,43
122760,note_on,,,,,0,0,1,,,0,,,58,46
122760,note_off,,,,,120,0,2,,,0,,,51,64
122760,note_on,,,,,0,0,1,,,0,,,70,46
122760,note_off,,,,,0,0,1,,,0,,,72,64
122760,note_off,,,,,0,0,1,,,0,,,65,64
122760,note_off,,,,,120,0,1,,,0,,,60,64
122760,note_on,,,,,0,0,1,,,0,,,65,46
122800,set_tempo,,,,,100,1,0,674157,,,,,,
122820,control_change,,,,,60,0,2,,,0,64,0,,
122840,set_tempo,,,,,40,1,0,681818,,,,,,
122860,set_tempo,,,,,20,1,0,618557,,,,,,
122880,note_on,,,,,0,0,1,,,0,,,60,52
122880,note_off,,,,,60,0,2,,,0,,,50,64
122880,control_change,,,,,0,0,2,,,0,64,127,,
122880,note_on,,,,,0,0,2,,,0,,,51,50
122880,note_on,,,,,0,0,1,,,0,,,41,52
122880,note_off,,,,,120,0,1,,,0,,,58,64
122880,note_off,,,,,0,0,1,,,0,,,65,64
122880,note_off,,,,,0,0,1,,,0,,,70,64
122880,note_off,,,,,0,0,1,,,0,,,46,64
122880,note_on,,,,,0,0,1,,,0,,,65,52
122880,note_on,,,,,0,0,1,,,0,,,72,52
123000,note_on,,,,,0,0,2,,,0,,,53,41
123000,note_off,,,,,120,0,2,,,0,,,51,64
123060,control_change,,,,,60,0,2,,,0,64,0,,
123096,note_off,,,,,36,0,2,,,0,,,53,64
123100,set_tempo,,,,,240,1,0,588235,,,,,,
123120,note_off,,,,,0,0,1,,,0,,,60,64
123120,note_on,,,,,0,0,2,,,0,,,51,47
123120,note_off,,,,,240,0,1,,,0,,,41,64
123120,note_on,,,,,0,0,1,,,0,,,41,47
123120,note_on,,,,,0,0,1,,,0,,,65,47
123120,control_change,,,,,24,0,2,,,0,64,127,,
123120,note_off,,,,,0,0,1,,,0,,,72,64
123120,note_on,,,,,0,0,1,,,0,,,60,47
123120,note_on,,,,,0,0,1,,,0,,,72,47
123120,note_off,,,,,0,0,1,,,0,,,65,64
123240,note_off,,,,,120,0,2,,,0,,,51,64
123240,note_on,,,,,0,0,2,,,0,,,53,43
123240,set_tempo,,,,,140,1,0,600000,,,,,,
123280,set_tempo,,,,,40,1,0,582524,,,,,,
123300,control_change,,,,,60,0,2,,,0,64,0,,
123336,note_off,,,,,36,0,2,,,0,,,53,64
123360,note_on,,,,,0,0,1,,,0,,,72,50
123360,note_off,,,,,240,0,1,,,0,,,41,64
123360,control_change,,,,,24,0,2,,,0,64,127,,
123360,note_on,,,,,0,0,2,,,0,,,51,45
123360,note_on,,,,,0,0,1,,,0,,,41,50
123360,note_off,,,,,0,0,1,,,0,,,60,64
123360,note_off,,,,,0,0,1,,,0,,,65,64
123360,note_on,,,,,0,0,1,,,0,,,60,50
123360,note_on,,,,,0,0,1,,,0,,,65,50
123360,note_off,,,,,0,0,1,,,0,,,72,64
123480,note_on,,,,,0,0,2,,,0,,,53,37
123480,note_off,,,,,120,0,2,,,0,,,51,64
123540,control_change,,,,,60,0,2,,,0,64,0,,
123576,note_off,,,,,36,0,2,,,0,,,53,64
123600,note_off,,,,,240,0,1,,,0,,,41,64
123600,note_on,,,,,0,0,2,,,0,,,50,48
123600,note_on,,,,,0,0,1,,,0,,,41,53
123600,note_on,,,,,0,0,1,,,0,,,58,53
123600,note_on,,,,,0,0,1,,,0,,,65,53
123600,control_change,,,,,24,0,2,,,0,64,127,,
123600,note_off,,,,,0,0,1,,,0,,,72,64
123600,note_off,,,,,0,0,1,,,0,,,65,64
123600,note_on,,,,,0,0,1,,,0,,,70,53
123600,note_off,,,,,0,0,1,,,0,,,60,64
123700,set_tempo,,,,,420,1,0,571429,,,,,,
123720,note_on,,,,,0,0,2,,,0,,,48,38
123720,note_on,,,,,0,0,1,,,0,,,57,55
123720,note_off,,,,,120,0,2,,,0,,,50,64
123720,note_off,,,,,120,0,1,,,0,,,58,64
123720,note_off,,,,,0,0,1,,,0,,,65,64
123720,note_on,,,,,0,0,1,,,0,,,65,55
123720,note_off,,,,,0,0,1,,,0,,,70,64
123720,note_on,,,,,0,0,1,,,0,,,69,55
123760,set_tempo,,,,,60,1,0,631579,,,,,,
123780,control_change,,,,,60,0,2,,,0,64,0,,
123840,note_off,,,,,120,0,1,,,0,,,57,64
123840,set_tempo,,,,,80,1,0,566038,,,,,,
123840,note_on,,,,,0,0,2,,,0,,,50,50
123840,control_change,,,,,0,0,2,,,0,64,127,,
123840,note_off,,,,,60,0,2,,,0,,,48,64
123840,note_off,,,,,0,0,1,,,0,,,65,64
123840,note_on,,,,,0,0,1,,,0,,,46,58
123840,note_on,,,,,0,0,1,,,0,,,58,58
123840,note_on,,,,,0,0,1,,,0,,,65,58
123840,note_on,,,,,0,0,1,,,0,,,70,58
123840,note_off,,,,,0,0,1,,,0,,,69,64
123840,note_off,,,,,0,0,1,,,0,,,41,64
123860,set_tempo,,,,,20,1,0,576923,,,,,,
123960,note_on,,,,,0,0,2,,,0,,,53,41
123960,note_off,,,,,120,0,2,,,0,,,50,64
124056,note_off,,,,,96,0,2,,,0,,,53,64
124060,set_tempo,,,,,200,1,0,606061,,,,,,
124080,note_on,,,,,0,0,1,,,0,,,63,44
124080,note_off,,,,,240,0,1,,,0,,,65,64
124080,note_on,,,,,0,0,1,,,0,,,67,44
124080,note_on,,,,,24,0,2,,,0,,,51,39
124110,control_change,,,,,30,0,2,,,0,64,0,,
124200,note_on,,,,,0,0,2,,,0,,,55,36
124200,note_off,,,,,90,0,2,,,0,,,51,64
124220,set_tempo,,,,,160,1,0,652174,,,,,,
124320,note_on,,,,,0,0,2,,,0,,,50,34
124320,set_tempo,,,,,100,1,0,714286,,,,,,
124320,note_off,,,,,120,0,2,,,0,,,55,64
124320,note_on,,,,,0,0,1,,,0,,,65,34
124320,note_off,,,,,0,0,1,,,0,,,67,64
124320,note_off,,,,,240,0,1,,,0,,,63,64
124320,note_on,,,,,0,0,1,,,0,,,62,34
124440,note_off,,,,,120,0,2,,,0,,,50,64
124440,note_on,,,,,0,0,2,,,0,,,53,32
124460,set_tempo,,,,,140,1,0,750000,,,,,,
124536,note_off,,,,,96,0,2,,,0,,,53,64
124560,note_on,,,,,0,0,2,,,0,,,50,40
124560,note_on,,,,,0,0,1,,,0,,,46,52
124560,set_tempo,,,,,100,1,0,566038,,,,,,
124560,note_off,,,,,240,0,1,,,0,,,62,64
124560,note_off,,,,,0,0,1,,,0,,,65,64
124560,note_off,,,,,0,0,1,,,0,,,46,64
124560,note_off,,,,,0,0,1,,,0,,,58,64
124560,note_off,,,,,0,0,1,,,0,,,70,64
124560,note_on,,,,,0,0,1,,,0,,,70,52
124560,control_change,,,,,24,0,2,,,0,64,127,,
124680,note_on,,,,,0,0,2,,,0,,,58,38
124680,note_off,,,,,120,0,2,,,0,,,50,64
124720,set_tempo,,,,,160,1,0,750000,,,,,,
124740,control_change,,,,,60,0,2,,,0,64,0,,
124770,note_off,,,,,30,0,2,,,0,,,58,64
124800,note_off,,,,,0,0,1,,,0,,,70,64
124800,note_on,,,,,0,0,1,,,0,,,63,54
124800,note_on,,,,,0,0,1,,,0,,,55,54
124800,note_on,,,,,0,0,1,,,0,,,46,54
124800,note_off,,,,,240,0,1,,,0,,,46,64
124800,set_tempo,,,,,80,1,0,571429,,,,,,
124800,note_on,,,,,0,0,1,,,0,,,75,54
124800,control_change,,,,,30,0,2,,,0,64,127,,
124800,note_on,,,,,0,0,1,,,0,,,70,54
124800,note_on,,,,,0,0,2,,,0,,,55,50
124920,note_off,,,,,120,0,2,,,0,,,55,64
124920,note_on,,,,,0,0,2,,,0,,,58,41
125016,note_off,,,,,96,0,2,,,0,,,58,64
125040,note_on,,,,,24,0,2,,,0,,,58,36
125136,note_off,,,,,96,0,2,,,0,,,58,64
125160,note_on,,,,,24,0,2,,,0,,,58,30
125256,note_off,,,,,96,0,2,,,0,,,58,64
125280,note_on,,,,,24,0,2,,,0,,,58,36
125376,note_off,,,,,96,0,2,,,0,,,58,64
125400,note_on,,,,,24,0,2,,,0,,,58,37
125460,control_change,,,,,60,0,2,,,0,64,0,,
125480,set_tempo,,,,,680,1,0,600000,,,,,,
125496,note_off,,,,,36,0,2,,,0,,,58,64
125520,note_off,,,,,0,0,1,,,0,,,63,64
125520,note_off,,,,,0,0,1,,,0,,,70,64
125520,note_off,,,,,0,0,1,,,0,,,75,64
125520,note_on,,,,,0,0,1,,,0,,,74,48
125520,control_change,,,,,24,0,2,,,0,64,127,,
125520,note_on,,,,,0,0,1,,,0,,,62,48
125520,note_on,,,,,0,0,1,,,0,,,46,48
125520,note_on,,,,,0,0,2,,,0,,,53,40
125520,note_off,,,,,720,0,1,,,0,,,46,64
125520,note_on,,,,,0,0,1,,,0,,,70,48
125520,note_off,,,,,0,0,1,,,0,,,55,64
125640,note_off,,,,,120,0,2,,,0,,,53,64
125640,note_on,,,,,0,0,2,,,0,,,51,43
125640,note_on,,,,,0,0,1,,,0,,,70,48
125640,note_off,,,,,0,0,1,,,0,,,74,64
125640,note_off,,,,,120,0,1,,,0,,,62,64
125640,note_off,,,,,0,0,1,,,0,,,70,64
125640,note_on,,,,,0,0,1,,,0,,,72,48
125640,note_on,,,,,0,0,1,,,0,,,60,48
125700,control_change,,,,,60,0,2,,,0,64,0,,
125700,set_tempo,,,,,220,1,0,631579,,,,,,
125760,note_on,,,,,0,0,2,,,0,,,53,50
125760,note_off,,,,,120,0,1,,,0,,,60,64
125760,note_off,,,,,60,0,2,,,0,,,51,64
125760,note_off,,,,,0,0,1,,,0,,,70,64
125760,note_off,,,,,0,0,1,,,0,,,46,64
125760,note_on,,,,,0,0,1,,,0,,,74,48
125760,note_on,,,,,0,0,1,,,0,,,70,48
125760,note_on,,,,,0,0,1,,,0,,,62,48
125760,note_on,,,,,0,0,1,,,0,,,46,48
125760,note_off,,,,,0,0,1,,,0,,,72,64
125760,control_change,,,,,0,0,2,,,0,64,127,,
125880,note_on,,,,,0,0,2,,,0,,,50,41
125880,note_off,,,,,120,0,2,,,0,,,53,64
125940,control_change,,,,,60,0,2,,,0,64,0,,
125976,note_off,,,,,36,0,2,,,0,,,50,64
126000,control_change,,,,,24,0,2,,,0,64,127,,
126000,note_on,,,,,0,0,2,,,0,,,48,36
126000,note_on,,,,,0,0,1,,,0,,,69,52
126000,note_on,,,,,0,0,1,,,0,,,65,52
126000,note_on,,,,,0,0,1,,,0,,,41,52
126000,note_off,,,,,240,0,1,,,0,,,46,64
126000,note_off,,,,,0,0,1,,,0,,,62,64
126000,note_off,,,,,0,0,1,,,0,,,70,64
126000,note_off,,,,,0,0,1,,,0,,,74,64
126000,note_on,,,,,0,0,1,,,0,,,57,52
126020,set_tempo,,,,,320,1,0,606061,,,,,,
126096,note_off,,,,,96,0,2,,,0,,,48,64
126120,note_on,,,,,24,0,2,,,0,,,53,38
126180,control_change,,,,,60,0,2,,,0,64,0,,
126216,note_off,,,,,36,0,2,,,0,,,53,64
126240,note_off,,,,,240,0,1,,,0,,,41,64
126240,note_off,,,,,0,0,1,,,0,,,57,64
126240,note_on,,,,,0,0,1,,,0,,,41,45
126240,note_on,,,,,0,0,1,,,0,,,58,45
126240,note_on,,,,,0,0,1,,,0,,,65,45
126240,note_off,,,,,0,0,1,,,0,,,69,64
126240,note_off,,,,,0,0,1,,,0,,,65,64
126240,note_on,,,,,0,0,1,,,0,,,70,45
126240,note_on,,,,,0,0,2,,,0,,,50,36
126240,control_change,,,,,24,0,2,,,0,64,127,,
126336,note_off,,,,,96,0,2,,,0,,,50,64
126360,note_on,,,,,24,0,2,,,0,,,53,37
126380,set_tempo,,,,,360,1,0,588235,,,,,,
126420,control_change,,,,,60,0,2,,,0,64,0,,
126456,note_off,,,,,36,0,2,,,0,,,53,64
126480,note_on,,,,,0,0,2,,,0,,,51,40
126480,control_change,,,,,24,0,2,,,0,64,127,,
126480,note_off,,,,,0,0,1,,,0,,,58,64
126480,note_off,,,,,0,0,1,,,0,,,70,64
126480,note_on,,,,,0,0,1,,,0,,,72,43
126480,note_on,,,,,0,0,1,,,0,,,65,43
126480,note_on,,,,,0,0,1,,,0,,,60,43
126480,note_on,,,,,0,0,1,,,0,,,41,43
126480,note_off,,,,,240,0,1,,,0,,,41,64
126480,note_off,,,,,0,0,1,,,0,,,65,64
126600,note_off,,,,,120,0,2,,,0,,,51,64
126600,note_on,,,,,0,0,2,,,0,,,53,43
126660,set_tempo,,,,,280,1,0,576923,,,,,,
126660,control_change,,,,,60,0,2,,,0,64,0,,
126720,note_on,,,,,0,0,1,,,0,,,70,48
126720,note_on,,,,,0,0,1,,,0,,,65,48
126720,note_on,,,,,0,0,1,,,0,,,58,48
126720,note_on,,,,,0,0,1,,,0,,,41,48
126720,note_off,,,,,0,0,1,,,0,,,60,64
126720,note_off,,,,,240,0,1,,,0,,,41,64
126720,note_off,,,,,0,0,1,,,0,,,65,64
126720,note_off,,,,,60,0,2,,,0,,,53,64
126720,control_change,,,,,0,0,2,,,0,64,127,,
126720,note_on,,,,,0,0,2,,,0,,,50,50
126720,note_off,,,,,0,0,1,,,0,,,72,64
126840,note_off,,,,,120,0,2,,,0,,,50,64
126840,note_on,,,,,0,0,2,,,0,,,53,49
126960,note_on,,,,,0,0,1,,,0,,,62,53
126960,note_on,,,,,0,0,1,,,0,,,74,53
126960,note_off,,,,,0,0,1,,,0,,,65,64
126960,note_off,,,,,0,0,1,,,0,,,70,64
126960,note_off,,,,,120,0,2,,,0,,,53,64
126960,note_on,,,,,0,0,1,,,0,,,70,53
126960,note_on,,,,,0,0,1,,,0,,,65,53
126960,note_on,,,,,0,0,2,,,0,,,50,41
126960,note_off,,,,,240,0,1,,,0,,,58,64
127000,set_tempo,,,,,340,1,0,612245,,,,,,
127080,note_off,,,,,120,0,2,,,0,,,50,64
127080,note_on,,,,,0,0,2,,,0,,,46,35
127200,note_off,,,,,0,0,1,,,0,,,65,64
127200,note_on,,,,,0,0,1,,,0,,,69,44
127200,note_on,,,,,0,0,1,,,0,,,72,44
127200,note_off,,,,,0,0,1,,,0,,,41,64
127200,note_off,,,,,0,0,1,,,0,,,74,64
127200,note_off,,,,,0,0,1,,,0,,,70,64
127200,note_off,,,,,240,0,1,,,0,,,62,64
127200,note_on,,,,,0,0,1,,,0,,,60,44
127200,note_off,,,,,120,0,2,,,0,,,46,64
127200,note_on,,,,,0,0,2,,,0,,,41,45
127200,note_on,,,,,0,0,1,,,0,,,65,44
127280,set_tempo,,,,,280,1,0,618557,,,,,,
127300,set_tempo,,,,,20,1,0,645161,,,,,,
127320,set_tempo,,,,,20,1,0,659341,,,,,,
127440,note_off,,,,,240,0,2,,,0,,,41,64
127460,set_tempo,,,,,140,1,0,652174,,,,,,
127540,set_tempo,,,,,80,1,0,674157,,,,,,
127580,set_tempo,,,,,40,1,0,582524,,,,,,
127590,control_change,,,,,150,0,2,,,0,64,0,,
127590,note_on,,,,,0,0,2,,,0,,,29,51
127600,set_tempo,,,,,20,1,0,789474,,,,,,
127620,note_off,,,,,30,0,2,,,0,,,29,64
127620,note_on,,,,,0,0,2,,,0,,,30,55
127650,note_off,,,,,30,0,2,,,0,,,30,64
127650,note_on,,,,,0,0,2,,,0,,,32,59
127680,note_off,,,,,30,0,2,,,0,,,32,64
127680,note_on,,,,,0,0,2,,,0,,,30,62
127710,note_off,,,,,30,0,2,,,0,,,30,64
127710,note_on,,,,,0,0,2,,,0,,,32,63
127740,note_off,,,,,30,0,2,,,0,,,32,64
127740,set_tempo,,,,,140,1,0,588235,,,,,,
127740,note_on,,,,,0,0,2,,,0,,,30,60
127770,note_on,,,,,0,0,2,,,0,,,32,59
127770,note_off,,,,,30,0,2,,,0,,,30,64
127780,set_tempo,,,,,40,1,0,600000,,,,,,
127800,note_on,,,,,0,0,2,,,0,,,30,57
127800,note_off,,,,,30,0,2,,,0,,,32,64
127830,note_on,,,,,0,0,2,,,0,,,32,55
127830,note_off,,,,,30,0,2,,,0,,,30,64
127860,note_on,,,,,0,0,2,,,0,,,30,54
127860,note_off,,,,,30,0,2,,,0,,,32,64
127890,note_off,,,,,30,0,2,,,0,,,30,64
127890,note_on,,,,,0,0,2,,,0,,,32,53
127920,note_off,,,,,30,0,2,,,0,,,32,64
127920,note_on,,,,,0,0,2,,,0,,,30,52
127950,note_off,,,,,30,0,2,,,0,,,30,64
127950,note_on,,,,,0,0,2,,,0,,,32,51
127980,note_off,,,,,30,0,2,,,0,,,32,64
127980,note_on,,,,,0,0,2,,,0,,,30,51
128010,note_on,,,,,0,0,2,,,0,,,32,49
128010,note_off,,,,,30,0,2,,,0,,,30,64
128040,note_off,,,,,30,0,2,,,0,,,32,64
128040,note_on,,,,,0,0,2,,,0,,,30,48
128070,note_off,,,,,30,0,2,,,0,,,30,64
128070,note_on,,,,,0,0,2,,,0,,,32,47
128100,note_off,,,,,30,0,2,,,0,,,32,64
128100,note_on,,,,,0,0,2,,,0,,,30,46
128100,set_tempo,,,,,320,1,0,606061,,,,,,
128130,note_on,,,,,0,0,2,,,0,,,32,46
128130,note_off,,,,,30,0,2,,,0,,,30,64
128160,set_tempo,,,,,60,1,0,625000,,,,,,
128160,note_off,,,,,30,0,2,,,0,,,32,64
128160,note_on,,,,,0,0,2,,,0,,,30,45
128190,note_off,,,,,30,0,2,,,0,,,30,64
128190,note_on,,,,,0,0,2,,,0,,,32,44
128220,note_off,,,,,30,0,2,,,0,,,32,64
128220,note_on,,,,,0,0,2,,,0,,,30,44
128250,note_off,,,,,30,0,2,,,0,,,30,64
128250,note_on,,,,,0,0,2,,,0,,,32,44
128280,note_off,,,,,30,0,2,,,0,,,32,64
128280,note_on,,,,,0,0,2,,,0,,,30,43
128310,note_off,,,,,30,0,2,,,0,,,30,64
128310,note_on,,,,,0,0,2,,,0,,,32,43
128340,note_on,,,,,0,0,2,,,0,,,30,44
128340,note_off,,,,,30,0,2,,,0,,,32,64
128370,note_on,,,,,0,0,2,,,0,,,32,42
128370,note_off,,,,,30,0,2,,,0,,,30,64
128380,set_tempo,,,,,220,1,0,652174,,,,,,
128400,note_on,,,,,0,0,2,,,0,,,30,41
128400,note_off,,,,,30,0,2,,,0,,,32,64
128430,note_off,,,,,30,0,2,,,0,,,30,64
128430,note_on,,,,,0,0,2,,,0,,,32,41
128460,note_off,,,,,30,0,2,,,0,,,32,64
128460,note_on,,,,,0,0,2,,,0,,,30,40
128490,note_off,,,,,30,0,2,,,0,,,30,64
128490,note_on,,,,,0,0,2,,,0,,,32,39
128520,note_off,,,,,30,0,2,,,0,,,32,64
128520,note_on,,,,,0,0,2,,,0,,,30,39
128560,set_tempo,,,,,180,1,0,967742,,,,,,
128560,note_on,,,,,0,0,2,,,0,,,29,38
128560,note_off,,,,,40,0,2,,,0,,,30,64
128580,set_tempo,,,,,20,1,0,1000000,,,,,,
128600,note_on,,,,,0,0,2,,,0,,,30,34
128600,note_off,,,,,40,0,2,,,0,,,29,64
128620,set_tempo,,,,,40,1,0,1034483,,,,,,
128640,control_change,,,,,0,0,2,,,0,91,96,,
128640,set_tempo,,,,,20,1,0,1463415,,,,,,
128640,note_off,,,,,40,0,2,,,0,,,30,64
128640,note_on,,,,,0,0,2,,,0,,,29,34
128760,note_off,,,,,1560,0,1,,,0,,,60,64
128760,note_off,,,,,0,0,1,,,0,,,65,64
128760,note_off,,,,,0,0,1,,,0,,,69,64
128760,note_off,,,,,0,0,1,,,0,,,72,64
128760,note_off,,,,,120,0,2,,,0,,,29,64
128780,set_tempo,,,,,140,1,0,560748,,,,,,
129360,note_on,,,,,0,0,1,,,0,,,65,40
129360,note_on,,,,,600,0,1,,,0,,,70,40
129360,note_on,,,,,0,0,1,,,0,,,58,40
129360,note_on,,,,,0,0,1,,,0,,,46,40
129360,control_change,,,,,600,0,2,,,0,64,127,,
129360,note_on,,,,,0,0,2,,,0,,,50,35
129480,note_off,,,,,120,0,2,,,0,,,50,64
129480,note_on,,,,,0,0,2,,,0,,,53,30
129480,set_tempo,,,,,700,1,0,631579,,,,,,
129540,control_change,,,,,60,0,2,,,0,64,0,,
129576,note_off,,,,,36,0,2,,,0,,,53,64
129580,set_tempo,,,,,100,1,0,625000,,,,,,
129600,note_off,,,,,240,0,1,,,0,,,46,64
129600,control_change,,,,,24,0,2,,,0,64,127,,
129600,note_on,,,,,0,0,2,,,0,,,50,39
129600,note_off,,,,,0,0,1,,,0,,,70,64
129600,note_on,,,,,0,0,1,,,0,,,46,49
129600,note_on,,,,,0,0,1,,,0,,,58,49
129600,note_on,,,,,0,0,1,,,0,,,65,49
129600,note_on,,,,,0,0,1,,,0,,,70,49
129600,note_off,,,,,0,0,1,,,0,,,65,64
129600,note_off,,,,,0,0,1,,,0,,,58,64
129720,note_on,,,,,0,0,2,,,0,,,53,31
129720,note_off,,,,,120,0,2,,,0,,,50,64
129780,control_change,,,,,60,0,2,,,0,64,0,,
129816,note_off,,,,,36,0,2,,,0,,,53,64
129840,note_on,,,,,0,0,1,,,0,,,46,41
129840,control_change,,,,,24,0,2,,,0,64,127,,
129840,note_on,,,,,0,0,2,,,0,,,48,36
129840,note_on,,,,,0,0,1,,,0,,,57,41
129840,note_on,,,,,0,0,1,,,0,,,65,41
129840,note_off,,,,,0,0,1,,,0,,,58,64
129840,note_off,,,,,240,0,1,,,0,,,46,64
129840,note_on,,,,,0,0,1,,,0,,,69,41
129840,note_off,,,,,0,0,1,,,0,,,70,64
129840,note_off,,,,,0,0,1,,,0,,,65,64
129840,set_tempo,,,,,260,1,0,618557,,,,,,
129860,set_tempo,,,,,20,1,0,600000,,,,,,
129960,note_on,,,,,0,0,2,,,0,,,53,31
129960,note_off,,,,,120,0,2,,,0,,,48,64
129980,set_tempo,,,,,120,1,0,582524,,,,,,
130020,control_change,,,,,60,0,2,,,0,64,0,,
130056,note_off,,,,,36,0,2,,,0,,,53,64
130080,note_on,,,,,0,0,1,,,0,,,70,44
130080,note_on,,,,,0,0,1,,,0,,,65,44
130080,note_on,,,,,0,0,1,,,0,,,58,44
130080,note_on,,,,,0,0,1,,,0,,,46,44
130080,note_off,,,,,0,0,1,,,0,,,69,64
130080,note_off,,,,,240,0,1,,,0,,,46,64
130080,note_off,,,,,0,0,1,,,0,,,57,64
130080,note_off,,,,,0,0,1,,,0,,,65,64
130080,control_change,,,,,24,0,2,,,0,64,127,,
130080,note_on,,,,,0,0,2,,,0,,,50,39
130120,set_tempo,,,,,140,1,0,545455,,,,,,
130200,note_off,,,,,120,0,2,,,0,,,50,64
130200,note_on,,,,,0,0,2,,,0,,,53,35
130260,control_change,,,,,60,0,2,,,0,64,0,,
130296,note_off,,,,,36,0,2,,,0,,,53,64
130320,note_on,,,,,0,0,2,,,0,,,51,42
130320,note_on,,,,,0,0,1,,,0,,,46,54
130320,note_on,,,,,0,0,1,,,0,,,60,54
130320,control_change,,,,,24,0,2,,,0,64,127,,
130320,note_on,,,,,0,0,1,,,0,,,72,54
130320,note_off,,,,,0,0,1,,,0,,,70,64
130320,note_off,,,,,240,0,1,,,0,,,46,64
130320,note_off,,,,,0,0,1,,,0,,,58,64
130320,note_off,,,,,0,0,1,,,0,,,65,64
130320,note_on,,,,,0,0,1,,,0,,,65,54
130440,set_tempo,,,,,320,1,0,566038,,,,,,
130440,note_off,,,,,120,0,2,,,0,,,51,64
130440,note_on,,,,,0,0,2,,,0,,,53,38
130480,set_tempo,,,,,40,1,0,631579,,,,,,
130500,control_change,,,,,60,0,2,,,0,64,0,,
130536,note_off,,,,,36,0,2,,,0,,,53,64
130560,control_change,,,,,24,0,2,,,0,64,127,,
130560,note_on,,,,,0,0,2,,,0,,,52,50
130560,note_on,,,,,0,0,1,,,0,,,46,57
130560,note_on,,,,,0,0,1,,,0,,,62,57
130560,note_on,,,,,0,0,1,,,0,,,65,57
130560,note_off,,,,,0,0,1,,,0,,,72,64
130560,note_off,,,,,0,0,1,,,0,,,65,64
130560,note_off,,,,,0,0,1,,,0,,,60,64
130560,note_off,,,,,240,0,1,,,0,,,46,64
130560,note_on,,,,,0,0,1,,,0,,,74,57
130580,set_tempo,,,,,100,1,0,606061,,,,,,
130680,note_on,,,,,0,0,2,,,0,,,53,41
130680,note_off,,,,,120,0,2,,,0,,,52,64
130720,set_tempo,,,,,140,1,0,576923,,,,,,
130776,note_off,,,,,96,0,2,,,0,,,53,64
130800,note_on,,,,,24,0,2,,,0,,,53,36
130820,set_tempo,,,,,100,1,0,566038,,,,,,
130896,note_off,,,,,96,0,2,,,0,,,53,64
130920,note_on,,,,,24,0,2,,,0,,,53,30
131016,note_off,,,,,96,0,2,,,0,,,53,64
131040,note_on,,,,,24,0,2,,,0,,,53,36
131136,note_off,,,,,96,0,2,,,0,,,53,64
131160,note_on,,,,,24,0,2,,,0,,,53,37
131220,control_change,,,,,60,0,2,,,0,64,0,,
131240,set_tempo,,,,,420,1,0,545455,,,,,,
131256,note_off,,,,,36,0,2,,,0,,,53,64
131280,note_on,,,,,0,0,2,,,0,,,51,40
131280,control_change,,,,,24,0,2,,,0,64,127,,
131280,note_on,,,,,0,0,1,,,0,,,46,48
131280,note_on,,,,,0,0,1,,,0,,,60,48
131280,note_on,,,,,0,0,1,,,0,,,72,48
131280,note_off,,,,,0,0,1,,,0,,,74,64
131280,note_off,,,,,0,0,1,,,0,,,65,64
131280,note_off,,,,,0,0,1,,,0,,,62,64
131280,note_off,,,,,720,0,1,,,0,,,46,64
131280,note_on,,,,,0,0,1,,,0,,,65,48
131400,note_on,,,,,0,0,1,,,0,,,58,46
131400,note_on,,,,,0,0,1,,,0,,,65,46
131400,note_off,,,,,120,0,2,,,0,,,51,64
131400,note_on,,,,,0,0,2,,,0,,,50,43
131400,note_off,,,,,120,0,1,,,0,,,60,64
131400,note_off,,,,,0,0,1,,,0,,,65,64
131400,note_off,,,,,0,0,1,,,0,,,72,64
131400,note_on,,,,,0,0,1,,,0,,,70,46
131440,set_tempo,,,,,200,1,0,674157,,,,,,
131460,control_change,,,,,60,0,2,,,0,64,0,,
131480,set_tempo,,,,,40,1,0,681818,,,,,,
131500,set_tempo,,,,,20,1,0,631579,,,,,,
131520,note_off,,,,,0,0,1,,,0,,,70,64
131520,set_tempo,,,,,20,1,0,612245,,,,,,
131520,note_off,,,,,0,0,1,,,0,,,65,64
131520,note_off,,,,,0,0,1,,,0,,,46,64
131520,note_on,,,,,0,0,1,,,0,,,65,52
131520,note_on,,,,,0,0,1,,,0,,,72,52
131520,note_on,,,,,0,0,1,,,0,,,60,52
131520,note_on,,,,,0,0,1,,,0,,,41,52
131520,note_off,,,,,120,0,1,,,0,,,58,64
131520,note_off,,,,,60,0,2,,,0,,,50,64
131520,control_change,,,,,0,0,2,,,0,64,127,,
131520,note_on,,,,,0,0,2,,,0,,,51,50
131640,set_tempo,,,,,120,1,0,588235,,,,,,
131640,note_on,,,,,0,0,2,,,0,,,53,41
131640,note_off,,,,,120,0,2,,,0,,,51,64
131700,control_change,,,,,60,0,2,,,0,64,0,,
131736,note_off,,,,,36,0,2,,,0,,,53,64
131760,control_change,,,,,24,0,2,,,0,64,127,,
131760,note_on,,,,,0,0,2,,,0,,,51,47
131760,note_off,,,,,240,0,1,,,0,,,41,64
131760,note_off,,,,,0,0,1,,,0,,,60,64
131760,note_off,,,,,0,0,1,,,0,,,72,64
131760,note_off,,,,,0,0,1,,,0,,,65,64
131760,note_on,,,,,0,0,1,,,0,,,72,47
131760,note_on,,,,,0,0,1,,,0,,,65,47
131760,note_on,,,,,0,0,1,,,0,,,60,47
131760,note_on,,,,,0,0,1,,,0,,,41,47
131880,note_on,,,,,0,0,2,,,0,,,53,43
131880,note_off,,,,,120,0,2,,,0,,,51,64
131940,control_change,,,,,60,0,2,,,0,64,0,,
131976,note_off,,,,,36,0,2,,,0,,,53,64
131980,set_tempo,,,,,340,1,0,576923,,,,,,
132000,note_on,,,,,0,0,1,,,0,,,41,50
132000,note_on,,,,,0,0,1,,,0,,,60,50
132000,note_on,,,,,0,0,1,,,0,,,65,50
132000,note_on,,,,,0,0,1,,,0,,,72,50
132000,note_on,,,,,0,0,2,,,0,,,51,45
132000,control_change,,,,,24,0,2,,,0,64,127,,
132000,note_off,,,,,0,0,1,,,0,,,72,64
132000,note_off,,,,,0,0,1,,,0,,,60,64
132000,note_off,,,,,0,0,1,,,0,,,65,64
132000,note_off,,,,,240,0,1,,,0,,,41,64
132120,note_off,,,,,120,0,2,,,0,,,51,64
132120,note_on,,,,,0,0,2,,,0,,,53,37
132180,control_change,,,,,60,0,2,,,0,64,0,,
132216,note_off,,,,,36,0,2,,,0,,,53,64
132240,note_on,,,,,0,0,2,,,0,,,50,48
132240,control_change,,,,,24,0,2,,,0,64,127,,
132240,note_off,,,,,0,0,1,,,0,,,60,64
132240,note_off,,,,,0,0,1,,,0,,,65,64
132240,note_off,,,,,240,0,1,,,0,,,41,64
132240,note_on,,,,,0,0,1,,,0,,,70,53
132240,note_on,,,,,0,0,1,,,0,,,65,53
132240,note_on,,,,,0,0,1,,,0,,,58,53
132240,note_on,,,,,0,0,1,,,0,,,41,53
132240,note_off,,,,,0,0,1,,,0,,,72,64
132340,set_tempo,,,,,360,1,0,571429,,,,,,
132360,note_on,,,,,0,0,2,,,0,,,48,38
132360,note_off,,,,,120,0,2,,,0,,,50,64
132360,note_on,,,,,0,0,1,,,0,,,65,55
132360,note_off,,,,,0,0,1,,,0,,,70,64
132360,note_off,,,,,0,0,1,,,0,,,65,64
132360,note_off,,,,,120,0,1,,,0,,,58,64
132360,note_on,,,,,0,0,1,,,0,,,57,55
132360,note_on,,,,,0,0,1,,,0,,,69,55
132400,set_tempo,,,,,60,1,0,631579,,,,,,
132420,control_change,,,,,60,0,2,,,0,64,0,,
132480,note_off,,,,,60,0,2,,,0,,,48,64
132480,note_off,,,,,120,0,1,,,0,,,57,64
132480,note_on,,,,,0,0,2,,,0,,,50,50
132480,set_tempo,,,,,80,1,0,566038,,,,,,
132480,note_on,,,,,0,0,1,,,0,,,46,58
132480,note_on,,,,,0,0,1,,,0,,,58,58
132480,note_on,,,,,0,0,1,,,0,,,65,58
132480,note_off,,,,,0,0,1,,,0,,,41,64
132480,note_off,,,,,0,0,1,,,0,,,69,64
132480,note_off,,,,,0,0,1,,,0,,,65,64
132480,control_change,,,,,0,0,2,,,0,64,127,,
132480,note_on,,,,,0,0,1,,,0,,,70,58
132520,set_tempo,,,,,40,1,0,576923,,,,,,
132600,note_on,,,,,0,0,2,,,0,,,53,41
132600,note_off,,,,,120,0,2,,,0,,,50,64
132660,set_tempo,,,,,140,1,0,618557,,,,,,
132696,note_off,,,,,96,0,2,,,0,,,53,64
132720,note_on,,,,,24,0,2,,,0,,,51,39
132720,note_off,,,,,240,0,1,,,0,,,65,64
132720,note_on,,,,,0,0,1,,,0,,,63,44
132720,note_on,,,,,0,0,1,,,0,,,67,44
132750,control_change,,,,,30,0,2,,,0,64,0,,
132840,note_on,,,,,0,0,2,,,0,,,55,36
132840,note_off,,,,,90,0,2,,,0,,,51,64
132900,set_tempo,,,,,240,1,0,645161,,,,,,
132920,set_tempo,,,,,20,1,0,652174,,,,,,
132940,set_tempo,,,,,20,1,0,659341,,,,,,
132960,note_off,,,,,120,0,2,,,0,,,55,64
132960,note_off,,,,,0,0,1,,,0,,,67,64
132960,note_on,,,,,0,0,1,,,0,,,65,34
132960,note_on,,,,,0,0,1,,,0,,,62,34
132960,note_on,,,,,0,0,2,,,0,,,50,34
132960,note_off,,,,,240,0,1,,,0,,,63,64
133020,set_tempo,,,,,80,1,0,612245,,,,,,
133080,note_on,,,,,0,0,2,,,0,,,53,32
133080,note_off,,,,,120,0,2,,,0,,,50,64
133120,set_tempo,,,,,100,1,0,576923,,,,,,
133176,note_off,,,,,96,0,2,,,0,,,53,64
133200,note_off,,,,,0,0,1,,,0,,,70,64
133200,note_on,,,,,0,0,1,,,0,,,74,52
133200,note_off,,,,,0,0,1,,,0,,,58,64
133200,note_off,,,,,0,0,1,,,0,,,46,64
133200,note_off,,,,,0,0,1,,,0,,,65,64
133200,note_off,,,,,240,0,1,,,0,,,62,64
133200,note_on,,,,,0,0,1,,,0,,,65,52
133200,note_on,,,,,0,0,2,,,0,,,50,40
133200,note_on,,,,,0,0,1,,,0,,,62,52
133200,note_on,,,,,0,0,1,,,0,,,44,57
133200,control_change,,,,,24,0,2,,,0,64,127,,
133320,note_on,,,,,0,0,2,,,0,,,53,38
133320,note_off,,,,,120,0,2,,,0,,,50,64
133360,set_tempo,,,,,240,1,0,750000,,,,,,
133380,control_change,,,,,60,0,2,,,0,64,0,,
133410,note_off,,,,,30,0,2,,,0,,,53,64
133440,set_tempo,,,,,80,1,0,618557,,,,,,
133440,note_off,,,,,0,0,1,,,0,,,65,64
133440,note_off,,,,,0,0,1,,,0,,,62,64
133440,note_off,,,,,240,0,1,,,0,,,44,64
133440,note_off,,,,,0,0,1,,,0,,,74,64
133440,note_on,,,,,0,0,1,,,0,,,74,54
133440,control_change,,,,,30,0,2,,,0,64,127,,
133440,note_on,,,,,0,0,2,,,0,,,53,50
133440,note_on,,,,,0,0,1,,,0,,,67,54
133440,note_on,,,,,0,0,1,,,0,,,62,54
133440,note_on,,,,,0,0,1,,,0,,,53,54
133440,note_on,,,,,0,0,1,,,0,,,43,54
133560,note_off,,,,,120,0,2,,,0,,,53,64
133560,note_on,,,,,0,0,2,,,0,,,55,41
133656,note_off,,,,,96,0,2,,,0,,,55,64
133660,set_tempo,,,,,220,1,0,571429,,,,,,
133680,note_on,,,,,24,0,2,,,0,,,55,36
133776,note_off,,,,,96,0,2,,,0,,,55,64
133800,note_on,,,,,24,0,2,,,0,,,55,30
133896,note_off,,,,,96,0,2,,,0,,,55,64
133920,note_on,,,,,24,0,2,,,0,,,55,29
134016,note_off,,,,,96,0,2,,,0,,,55,64
134040,note_on,,,,,24,0,2,,,0,,,55,31
134100,control_change,,,,,60,0,2,,,0,64,0,,
134136,note_off,,,,,36,0,2,,,0,,,55,64
134160,note_on,,,,,0,0,1,,,0,,,60,42
134160,note_on,,,,,0,0,1,,,0,,,43,42
134160,note_on,,,,,0,0,1,,,0,,,67,42
134160,note_on,,,,,0,0,1,,,0,,,72,42
134160,note_off,,,,,0,0,1,,,0,,,74,64
134160,note_off,,,,,0,0,1,,,0,,,67,64
134160,note_off,,,,,0,0,1,,,0,,,62,64
134160,note_on,,,,,0,0,2,,,0,,,51,33
134160,note_off,,,,,0,0,1,,,0,,,53,64
134160,note_off,,,,,720,0,1,,,0,,,43,64
134160,control_change,,,,,24,0,2,,,0,64,127,,
134220,set_tempo,,,,,560,1,0,550459,,,,,,
134280,note_on,,,,,0,0,1,,,0,,,59,47
134280,note_on,,,,,0,0,1,,,0,,,67,47
134280,note_on,,,,,0,0,1,,,0,,,71,47
134280,note_off,,,,,0,0,1,,,0,,,72,64
134280,note_off,,,,,0,0,1,,,0,,,60,64
134280,note_off,,,,,120,0,1,,,0,,,43,64
134280,note_off,,,,,0,0,1,,,0,,,67,64
134280,note_off,,,,,120,0,2,,,0,,,51,64
134280,note_on,,,,,0,0,2,,,0,,,50,36
134280,note_on,,,,,0,0,1,,,0,,,43,47
134340,control_change,,,,,60,0,2,,,0,64,0,,
134400,note_off,,,,,0,0,1,,,0,,,71,64
134400,note_on,,,,,0,0,1,,,0,,,75,49
134400,note_on,,,,,0,0,1,,,0,,,72,49
134400,note_off,,,,,0,0,1,,,0,,,67,64
134400,note_on,,,,,0,0,1,,,0,,,43,49
134400,note_off,,,,,120,0,1,,,0,,,43,64
134400,note_off,,,,,60,0,2,,,0,,,50,64
134400,set_tempo,,,,,180,1,0,576923,,,,,,
134400,note_on,,,,,0,0,2,,,0,,,48,40
134400,note_off,,,,,0,0,1,,,0,,,59,64
134400,note_on,,,,,0,0,1,,,0,,,63,49
134400,control_change,,,,,0,0,2,,,0,64,127,,
134520,note_off,,,,,120,0,2,,,0,,,48,64
134520,note_on,,,,,0,0,2,,,0,,,55,43
134580,control_change,,,,,60,0,2,,,0,64,0,,
134600,set_tempo,,,,,200,1,0,618557,,,,,,
134616,note_off,,,,,36,0,2,,,0,,,55,64
134640,note_on,,,,,0,0,2,,,0,,,53,40
134640,control_change,,,,,24,0,2,,,0,64,127,,
134640,note_off,,,,,240,0,1,,,0,,,43,64
134640,note_off,,,,,0,0,1,,,0,,,63,64
134640,note_off,,,,,0,0,1,,,0,,,72,64
134640,note_off,,,,,0,0,1,,,0,,,75,64
134640,note_on,,,,,0,0,1,,,0,,,74,45
134640,note_on,,,,,0,0,1,,,0,,,67,45
134640,note_on,,,,,0,0,1,,,0,,,62,45
134640,note_on,,,,,0,0,1,,,0,,,43,45
134736,note_off,,,,,96,0,2,,,0,,,53,64
134760,note_on,,,,,24,0,2,,,0,,,55,39
134820,control_change,,,,,60,0,2,,,0,64,0,,
134856,note_off,,,,,36,0,2,,,0,,,55,64
134880,note_off,,,,,240,0,1,,,0,,,43,64
134880,note_off,,,,,0,0,1,,,0,,,62,64
134880,note_off,,,,,0,0,1,,,0,,,67,64
134880,note_off,,,,,0,0,1,,,0,,,74,64
134880,note_on,,,,,0,0,1,,,0,,,72,40
134880,note_on,,,,,0,0,1,,,0,,,67,40
134880,note_on,,,,,0,0,1,,,0,,,60,40
134880,note_on,,,,,0,0,1,,,0,,,43,40
134880,control_change,,,,,24,0,2,,,0,64,127,,
134880,note_on,,,,,0,0,2,,,0,,,51,37
134880,set_tempo,,,,,280,1,0,652174,,,,,,
134900,set_tempo,,,,,20,1,0,659341,,,,,,
134976,note_off,,,,,96,0,2,,,0,,,51,64
135000,note_on,,,,,24,0,2,,,0,,,55,36
135060,control_change,,,,,60,0,2,,,0,64,0,,
135096,note_off,,,,,36,0,2,,,0,,,55,64
135100,set_tempo,,,,,200,1,0,576923,,,,,,
135120,note_on,,,,,0,0,1,,,0,,,72,43
135120,note_on,,,,,0,0,1,,,0,,,60,43
135120,note_on,,,,,0,0,1,,,0,,,42,43
135120,note_off,,,,,0,0,1,,,0,,,67,64
135120,note_off,,,,,0,0,1,,,0,,,60,64
135120,note_off,,,,,240,0,1,,,0,,,43,64
135120,note_off,,,,,0,0,1,,,0,,,72,64
135120,note_on,,,,,0,0,1,,,0,,,69,43
135120,control_change,,,,,0,0,2,,,0,64,127,,
135120,note_on,,,,,24,0,2,,,0,,,51,36
135240,note_on,,,,,0,0,2,,,0,,,54,36
135240,note_off,,,,,120,0,2,,,0,,,51,64
135240,set_tempo,,,,,140,1,0,582524,,,,,,
135300,control_change,,,,,60,0,2,,,0,64,0,,
135300,set_tempo,,,,,60,1,0,588235,,,,,,
135360,note_on,,,,,0,0,2,,,0,,,51,41
135360,control_change,,,,,0,0,2,,,0,64,127,,
135360,note_off,,,,,60,0,2,,,0,,,54,64
135360,note_off,,,,,0,0,1,,,0,,,72,64
135360,note_off,,,,,0,0,1,,,0,,,60,64
135360,set_tempo,,,,,60,1,0,645161,,,,,,
135360,note_on,,,,,0,0,1,,,0,,,41,47
135360,note_on,,,,,0,0,1,,,0,,,51,47
135360,note_on,,,,,0,0,1,,,0,,,60,47
135360,note_off,,,,,240,0,1,,,0,,,42,64
135360,note_on,,,,,0,0,1,,,0,,,72,47
135360,note_off,,,,,0,0,1,,,0,,,69,64
135360,note_on,,,,,0,0,1,,,0,,,65,47
135380,set_tempo,,,,,20,1,0,681818,,,,,,
135400,set_tempo,,,,,20,1,0,674157,,,,,,
135420,set_tempo,,,,,20,1,0,631579,,,,,,
135440,set_tempo,,,,,20,1,0,612245,,,,,,
135460,set_tempo,,,,,20,1,0,582524,,,,,,
135480,set_tempo,,,,,20,1,0,571429,,,,,,
135480,note_off,,,,,120,0,2,,,0,,,51,64
135480,note_on,,,,,0,0,2,,,0,,,53,42
135560,set_tempo,,,,,80,1,0,566038,,,,,,
135576,note_off,,,,,96,0,2,,,0,,,53,64
135600,note_on,,,,,24,0,2,,,0,,,53,36
135696,note_off,,,,,96,0,2,,,0,,,53,64
135720,note_on,,,,,24,0,2,,,0,,,53,34
135816,note_off,,,,,96,0,2,,,0,,,53,64
135840,note_on,,,,,24,0,2,,,0,,,53,34
135936,note_off,,,,,96,0,2,,,0,,,53,64
135960,note_on,,,,,24,0,2,,,0,,,53,34
136020,control_change,,,,,60,0,2,,,0,64,0,,
136056,note_off,,,,,36,0,2,,,0,,,53,64
136080,control_change,,,,,0,0,2,,,0,64,127,,
136080,note_on,,,,,24,0,2,,,0,,,50,36
136080,note_off,,,,,720,0,1,,,0,,,41,64
136080,note_off,,,,,0,0,1,,,0,,,51,64
136080,note_off,,,,,0,0,1,,,0,,,60,64
136080,note_off,,,,,0,0,1,,,0,,,65,64
136080,note_off,,,,,0,0,1,,,0,,,72,64
136080,note_on,,,,,0,0,1,,,0,,,70,38
136080,note_on,,,,,0,0,1,,,0,,,65,38
136080,note_on,,,,,0,0,1,,,0,,,58,38
136080,note_on,,,,,0,0,1,,,0,,,41,38
136200,note_on,,,,,0,0,1,,,0,,,69,42
136200,note_on,,,,,0,0,2,,,0,,,48,37
136200,note_off,,,,,120,0,2,,,0,,,50,64
136200,note_on,,,,,0,0,1,,,0,,,65,42
136200,note_off,,,,,0,0,1,,,0,,,58,64
136200,note_off,,,,,0,0,1,,,0,,,65,64
136200,note_off,,,,,0,0,1,,,0,,,70,64
136200,note_on,,,,,0,0,1,,,0,,,57,42
136200,note_on,,,,,0,0,1,,,0,,,41,42
136200,note_off,,,,,120,0,1,,,0,,,41,64
136260,control_change,,,,,60,0,2,,,0,64,0,,
136320,note_on,,,,,0,0,1,,,0,,,74,47
136320,control_change,,,,,0,0,2,,,0,64,127,,
136320,note_off,,,,,0,0,1,,,0,,,65,64
136320,note_off,,,,,0,0,1,,,0,,,57,64
136320,note_off,,,,,120,0,1,,,0,,,41,64
136320,note_on,,,,,0,0,1,,,0,,,70,47
136320,note_on,,,,,0,0,2,,,0,,,46,38
136320,note_off,,,,,60,0,2,,,0,,,48,64
136320,note_on,,,,,0,0,1,,,0,,,41,47
136320,set_tempo,,,,,760,1,0,560748,,,,,,
136320,note_off,,,,,0,0,1,,,0,,,69,64
136320,note_on,,,,,0,0,1,,,0,,,62,47
136440,note_off,,,,,120,0,2,,,0,,,46,64
136440,note_on,,,,,0,0,2,,,0,,,53,35
136500,control_change,,,,,60,0,2,,,0,64,0,,
136536,note_off,,,,,36,0,2,,,0,,,53,64
136560,note_on,,,,,0,0,1,,,0,,,57,40
136560,note_on,,,,,0,0,1,,,0,,,41,40
136560,note_on,,,,,0,0,1,,,0,,,65,40
136560,control_change,,,,,24,0,2,,,0,64,127,,
136560,note_on,,,,,0,0,2,,,0,,,48,34
136560,note_off,,,,,0,0,1,,,0,,,74,64
136560,note_off,,,,,0,0,1,,,0,,,70,64
136560,note_off,,,,,0,0,1,,,0,,,62,64
136560,note_off,,,,,240,0,1,,,0,,,41,64
136560,note_on,,,,,0,0,1,,,0,,,69,40
136656,note_off,,,,,96,0,2,,,0,,,48,64
136660,set_tempo,,,,,340,1,0,582524,,,,,,
136680,note_on,,,,,24,0,2,,,0,,,53,34
136740,control_change,,,,,60,0,2,,,0,64,0,,
136776,note_off,,,,,36,0,2,,,0,,,53,64
136800,note_off,,,,,0,0,1,,,0,,,57,64
136800,note_off,,,,,0,0,1,,,0,,,69,64
136800,note_off,,,,,0,0,1,,,0,,,65,64
136800,note_on,,,,,0,0,1,,,0,,,41,46
136800,note_on,,,,,0,0,1,,,0,,,58,46
136800,control_change,,,,,0,0,2,,,0,64,127,,
136800,note_off,,,,,240,0,1,,,0,,,41,64
136800,note_on,,,,,24,0,2,,,0,,,50,34
136800,note_on,,,,,0,0,1,,,0,,,70,46
136800,note_on,,,,,0,0,1,,,0,,,65,46
136896,note_off,,,,,96,0,2,,,0,,,50,64
136920,note_on,,,,,24,0,2,,,0,,,53,35
136980,control_change,,,,,60,0,2,,,0,64,0,,
137016,note_off,,,,,36,0,2,,,0,,,53,64
137040,note_off,,,,,240,0,1,,,0,,,41,64
137040,note_on,,,,,0,0,1,,,0,,,65,51
137040,note_on,,,,,0,0,1,,,0,,,69,51
137040,note_on,,,,,0,0,1,,,0,,,72,51
137040,note_off,,,,,0,0,1,,,0,,,70,64
137040,note_off,,,,,0,0,1,,,0,,,65,64
137040,note_off,,,,,0,0,1,,,0,,,58,64
137040,note_on,,,,,0,0,1,,,0,,,41,51
137040,note_on,,,,,0,0,1,,,0,,,60,51
137040,note_on,,,,,24,0,2,,,0,,,51,38
137040,control_change,,,,,0,0,2,,,0,64,127,,
137120,set_tempo,,,,,460,1,0,612245,,,,,,
137160,note_off,,,,,120,0,2,,,0,,,51,64
137160,note_on,,,,,0,0,2,,,0,,,53,41
137220,control_change,,,,,60,0,2,,,0,64,0,,
137280,note_off,,,,,0,0,1,,,0,,,69,64
137280,note_off,,,,,0,0,1,,,0,,,60,64
137280,note_off,,,,,0,0,1,,,0,,,65,64
137280,note_off,,,,,0,0,1,,,0,,,72,64
137280,note_on,,,,,0,0,1,,,0,,,72,56
137280,note_on,,,,,0,0,1,,,0,,,69,56
137280,note_on,,,,,0,0,1,,,0,,,65,56
137280,note_on,,,,,0,0,1,,,0,,,60,56
137280,note_on,,,,,0,0,1,,,0,,,53,56
137280,note_on,,,,,0,0,1,,,0,,,51,56
137280,note_on,,,,,0,0,1,,,0,,,41,56
137280,control_change,,,,,0,0,2,,,0,91,96,,
137280,control_change,,,,,0,0,2,,,0,64,127,,
137280,note_off,,,,,240,0,1,,,0,,,41,64
137280,note_off,,,,,60,0,2,,,0,,,53,64
137360,set_tempo,,,,,240,1,0,631579,,,,,,
137520,set_tempo,,,,,160,1,0,967742,,,,,,
137700,set_tempo,,,,,180,1,0,618557,,,,,,
137740,set_tempo,,,,,40,1,0,588235,,,,,,
137760,note_on,,,,,0,0,1,,,0,,,46,34
137760,note_on,,,,,0,0,1,,,0,,,50,34
137760,note_on,,,,,0,0,1,,,0,,,58,34
137760,note_off,,,,,0,0,1,,,0,,,72,64
137760,note_off,,,,,0,0,1,,,0,,,69,64
137760,note_off,,,,,0,0,1,,,0,,,60,64
137760,note_off,,,,,0,0,1,,,0,,,51,64
137760,note_on,,,,,0,0,1,,,0,,,70,34
137760,note_off,,,,,480,0,1,,,0,,,41,64
137800,set_tempo,,,,,60,1,0,582524,,,,,,
137820,set_tempo,,,,,20,1,0,659341,,,,,,
137880,note_off,,,,,0,0,1,,,0,,,58,64
137880,set_tempo,,,,,60,1,0,1463415,,,,,,
137880,note_off,,,,,0,0,1,,,0,,,70,64
137880,note_off,,,,,0,0,1,,,0,,,53,64
137880,note_off,,,,,0,0,1,,,0,,,65,64
137880,note_off,,,,,0,0,1,,,0,,,50,64
137880,note_off,,,,,120,0,1,,,0,,,46,64
137970,control_change,,,,,690,0,2,,,0,64,0,,
138000,control_change,,,,,30,0,2,,,0,64,127,,
138000,note_on,,,,,0,0,2,,,0,,,34,46
138020,set_tempo,,,,,140,1,0,674157,,,,,,
138090,note_off,,,,,90,0,2,,,0,,,34,64
138120,control_change,,,,,30,0,2,,,0,64,0,,
138160,set_tempo,,,,,140,1,0,550459,,,,,,
138240,note_on,,,,,120,0,2,,,0,,,34,60
138278,note_on,,,,,38,0,2,,,0,,,35,58
138280,note_off,,,,,2,0,2,,,0,,,34,64
138318,note_off,,,,,38,0,2,,,0,,,35,64
138318,note_on,,,,,0,0,2,,,0,,,34,58
138340,set_tempo,,,,,180,1,0,566038,,,,,,
138358,note_off,,,,,40,0,2,,,0,,,34,64
138358,note_on,,,,,0,0,2,,,0,,,35,54
138398,note_on,,,,,0,0,2,,,0,,,34,52
138398,note_off,,,,,40,0,2,,,0,,,35,64
138438,note_on,,,,,0,0,2,,,0,,,35,52
138438,note_off,,,,,40,0,2,,,0,,,34,64
138478,note_on,,,,,0,0,2,,,0,,,34,56
138478,note_off,,,,,40,0,2,,,0,,,35,64
138518,note_on,,,,,0,0,2,,,0,,,35,51
138518,note_off,,,,,40,0,2,,,0,,,34,64
138520,set_tempo,,,,,180,1,0,588235,,,,,,
138558,note_off,,,,,40,0,2,,,0,,,35,64
138558,note_on,,,,,0,0,2,,,0,,,34,51
138598,note_on,,,,,0,0,2,,,0,,,35,51
138598,note_off,,,,,40,0,2,,,0,,,34,64
138638,note_on,,,,,0,0,2,,,0,,,34,51
138638,note_off,,,,,40,0,2,,,0,,,35,64
138678,note_on,,,,,0,0,2,,,0,,,35,51
138678,note_off,,,,,40,0,2,,,0,,,34,64
138718,note_off,,,,,40,0,2,,,0,,,35,64
138718,note_on,,,,,0,0,2,,,0,,,34,56
138720,set_tempo,,,,,200,1,0,631579,,,,,,
138758,note_off,,,,,40,0,2,,,0,,,34,64
138758,note_on,,,,,0,0,2,,,0,,,35,52
138798,note_on,,,,,0,0,2,,,0,,,34,53
138798,note_off,,,,,40,0,2,,,0,,,35,64
138838,note_off,,,,,40,0,2,,,0,,,34,64
138838,note_on,,,,,0,0,2,,,0,,,35,54
138878,note_on,,,,,0,0,2,,,0,,,34,55
138878,note_off,,,,,40,0,2,,,0,,,35,64
138918,note_off,,,,,40,0,2,,,0,,,34,64
138918,note_on,,,,,0,0,2,,,0,,,35,57
138958,note_off,,,,,40,0,2,,,0,,,35,64
138958,note_on,,,,,0,0,2,,,0,,,34,58
138960,note_on,,,,,1080,0,1,,,0,,,70,58
138960,set_tempo,,,,,240,1,0,659341,,,,,,
138980,set_tempo,,,,,20,1,0,681818,,,,,,
138998,note_on,,,,,0,0,2,,,0,,,35,61
138998,note_off,,,,,40,0,2,,,0,,,34,64
139038,note_off,,,,,40,0,2,,,0,,,35,64
139038,note_on,,,,,0,0,2,,,0,,,34,62
139076,note_on,,,,,38,0,2,,,0,,,33,64
139078,note_off,,,,,2,0,2,,,0,,,34,64
139116,note_off,,,,,38,0,2,,,0,,,33,64
139116,note_on,,,,,0,0,2,,,0,,,32,65
139156,note_off,,,,,40,0,2,,,0,,,32,64
139156,note_on,,,,,0,0,2,,,0,,,31,68
139170,note_off,,,,,210,0,1,,,0,,,70,64
139180,set_tempo,,,,,200,1,0,705882,,,,,,
139196,note_off,,,,,40,0,2,,,0,,,31,64
139200,note_on,,,,,4,0,2,,,0,,,30,69
139200,note_on,,,,,30,0,1,,,0,,,70,49
139200,set_tempo,,,,,20,1,0,923077,,,,,,
139200,control_change,,,,,0,0,2,,,0,64,127,,
139230,note_off,,,,,30,0,2,,,0,,,30,64
139260,note_on,,,,,30,0,2,,,0,,,49,30
139260,set_tempo,,,,,60,1,0,705882,,,,,,
139280,set_tempo,,,,,20,1,0,666667,,,,,,
139320,note_on,,,,,0,0,2,,,0,,,54,31
139320,note_off,,,,,60,0,2,,,0,,,49,64
139380,note_off,,,,,60,0,2,,,0,,,54,64
139380,note_on,,,,,0,0,2,,,0,,,49,32
139410,control_change,,,,,30,0,2,,,0,64,0,,
139432,note_off,,,,,22,0,2,,,0,,,49,64
139440,set_tempo,,,,,160,1,0,645161,,,,,,
139440,note_on,,,,,0,0,1,,,0,,,68,46
139440,note_off,,,,,240,0,1,,,0,,,70,64
139440,note_on,,,,,8,0,2,,,0,,,42,37
139440,control_change,,,,,0,0,2,,,0,64,127,,
139500,note_off,,,,,60,0,2,,,0,,,42,64
139500,note_on,,,,,0,0,2,,,0,,,49,27
139560,note_off,,,,,60,0,2,,,0,,,49,64
139560,note_on,,,,,0,0,2,,,0,,,53,28
139580,set_tempo,,,,,140,1,0,612245,,,,,,
139620,note_off,,,,,60,0,2,,,0,,,53,64
139620,note_on,,,,,0,0,2,,,0,,,49,30
139650,control_change,,,,,30,0,2,,,0,64,0,,
139672,note_off,,,,,22,0,2,,,0,,,49,64
139680,note_on,,,,,8,0,2,,,0,,,42,41
139680,control_change,,,,,0,0,2,,,0,64,127,,
139680,note_on,,,,,0,0,1,,,0,,,70,48
139680,note_off,,,,,240,0,1,,,0,,,68,64
139740,note_off,,,,,60,0,2,,,0,,,42,64
139740,note_on,,,,,0,0,2,,,0,,,49,32
139740,set_tempo,,,,,160,1,0,600000,,,,,,
139800,note_off,,,,,60,0,2,,,0,,,49,64
139800,note_on,,,,,0,0,2,,,0,,,54,33
139860,note_off,,,,,60,0,2,,,0,,,54,64
139860,note_on,,,,,0,0,2,,,0,,,49,36
139890,control_change,,,,,30,0,2,,,0,64,0,,
139912,note_off,,,,,22,0,2,,,0,,,49,64
139920,note_on,,,,,0,0,1,,,0,,,71,53
139920,note_off,,,,,240,0,1,,,0,,,70,64
139920,note_on,,,,,8,0,2,,,0,,,42,47
139920,control_change,,,,,0,0,2,,,0,64,127,,
139980,note_on,,,,,0,0,2,,,0,,,49,39
139980,note_off,,,,,60,0,2,,,0,,,42,64
140040,note_on,,,,,0,0,2,,,0,,,56,40
140040,note_off,,,,,60,0,2,,,0,,,49,64
140100,note_on,,,,,0,0,2,,,0,,,49,43
140100,note_off,,,,,60,0,2,,,0,,,56,64
140130,control_change,,,,,30,0,2,,,0,64,0,,
140152,note_off,,,,,22,0,2,,,0,,,49,64
140160,control_change,,,,,8,0,2,,,0,64,127,,
140160,note_on,,,,,0,0,1,,,0,,,73,57
140160,note_on,,,,,0,0,2,,,0,,,42,58
140160,note_off,,,,,240,0,1,,,0,,,71,64
140220,note_on,,,,,0,0,2,,,0,,,49,48
140220,note_off,,,,,60,0,2,,,0,,,42,64
140280,note_off,,,,,60,0,2,,,0,,,49,64
140280,note_on,,,,,0,0,2,,,0,,,58,46
140340,note_off,,,,,60,0,2,,,0,,,58,64
140340,note_on,,,,,0,0,2,,,0,,,49,45
140392,note_off,,,,,52,0,2,,,0,,,49,64
140400,note_on,,,,,8,0,2,,,0,,,42,54
140400,set_tempo,,,,,660,1,0,560748,,,,,,
140460,note_off,,,,,60,0,2,,,0,,,42,64
140460,note_on,,,,,0,0,2,,,0,,,49,42
140520,note_on,,,,,0,0,2,,,0,,,58,41
140520,note_off,,,,,60,0,2,,,0,,,49,64
140580,note_on,,,,,0,0,2,,,0,,,49,39
140580,note_off,,,,,60,0,2,,,0,,,58,64
140632,note_off,,,,,52,0,2,,,0,,,49,64
140640,note_on,,,,,8,0,2,,,0,,,42,48
140700,note_off,,,,,60,0,2,,,0,,,42,64
140700,note_on,,,,,0,0,2,,,0,,,49,37
140760,note_off,,,,,60,0,2,,,0,,,49,64
140760,note_on,,,,,0,0,2,,,0,,,58,36
140820,note_off,,,,,60,0,2,,,0,,,58,64
140820,note_on,,,,,0,0,2,,,0,,,49,35
140850,control_change,,,,,30,0,2,,,0,64,0,,
140860,set_tempo,,,,,460,1,0,582524,,,,,,
140872,note_off,,,,,22,0,2,,,0,,,49,64
140880,note_on,,,,,8,0,2,,,0,,,42,41
140880,control_change,,,,,0,0,2,,,0,64,127,,
140880,note_on,,,,,0,0,1,,,0,,,71,42
140880,note_off,,,,,720,0,1,,,0,,,73,64
140940,note_on,,,,,0,0,2,,,0,,,49,32
140940,note_off,,,,,60,0,2,,,0,,,42,64
141000,note_on,,,,,0,0,2,,,0,,,54,36
141000,note_off,,,,,60,0,2,,,0,,,49,64
141000,note_on,,,,,0,0,1,,,0,,,70,49
141000,note_off,,,,,120,0,1,,,0,,,71,64
141020,set_tempo,,,,,160,1,0,612245,,,,,,
141060,note_on,,,,,0,0,2,,,0,,,49,39
141060,note_off,,,,,60,0,2,,,0,,,54,64
141090,control_change,,,,,30,0,2,,,0,64,0,,
141112,note_off,,,,,22,0,2,,,0,,,49,64
141120,note_on,,,,,0,0,2,,,0,,,42,53
141120,control_change,,,,,8,0,2,,,0,64,127,,
141120,note_off,,,,,120,0,1,,,0,,,70,64
141120,note_on,,,,,0,0,1,,,0,,,75,54
141180,note_off,,,,,60,0,2,,,0,,,42,64
141180,note_on,,,,,0,0,2,,,0,,,51,44
141240,note_off,,,,,60,0,2,,,0,,,51,64
141240,note_on,,,,,0,0,2,,,0,,,59,42
141300,note_off,,,,,60,0,2,,,0,,,59,64
141300,note_on,,,,,0,0,2,,,0,,,51,40
141330,note_off,,,,,210,0,1,,,0,,,75,64
141330,control_change,,,,,30,0,2,,,0,64,0,,
141352,note_off,,,,,22,0,2,,,0,,,51,64
141360,note_on,,,,,30,0,1,,,0,,,75,47
141360,note_on,,,,,0,0,2,,,0,,,42,48
141360,control_change,,,,,8,0,2,,,0,64,127,,
141420,note_on,,,,,0,0,2,,,0,,,51,37
141420,note_off,,,,,60,0,2,,,0,,,42,64
141480,note_off,,,,,60,0,2,,,0,,,51,64
141480,note_on,,,,,0,0,2,,,0,,,59,34
141540,note_off,,,,,60,0,2,,,0,,,59,64
141540,note_on,,,,,0,0,2,,,0,,,51,34
141570,note_off,,,,,210,0,1,,,0,,,75,64
141570,control_change,,,,,30,0,2,,,0,64,0,,
141592,note_off,,,,,22,0,2,,,0,,,51,64
141600,note_on,,,,,30,0,1,,,0,,,75,44
141600,note_on,,,,,0,0,2,,,0,,,42,44
141600,control_change,,,,,8,0,2,,,0,64,127,,
141640,set_tempo,,,,,620,1,0,588235,,,,,,
141660,note_off,,,,,60,0,2,,,0,,,42,64
141660,note_on,,,,,0,0,2,,,0,,,51,34
141720,note_on,,,,,0,0,2,,,0,,,59,34
141720,note_off,,,,,60,0,2,,,0,,,51,64
141760,set_tempo,,,,,120,1,0,560748,,,,,,
141780,note_on,,,,,0,0,2,,,0,,,51,35
141780,note_off,,,,,60,0,2,,,0,,,59,64
141810,note_off,,,,,210,0,1,,,0,,,75,64
141810,control_change,,,,,30,0,2,,,0,64,0,,
141832,note_off,,,,,22,0,2,,,0,,,51,64
141840,note_on,,,,,30,0,1,,,0,,,77,50
141840,control_change,,,,,0,0,2,,,0,64,127,,
141840,note_on,,,,,8,0,2,,,0,,,42,47
141900,note_off,,,,,60,0,2,,,0,,,42,64
141900,note_on,,,,,0,0,2,,,0,,,51,40
141960,note_on,,,,,0,0,1,,,0,,,78,55
141960,note_off,,,,,120,0,1,,,0,,,77,64
141960,note_on,,,,,0,0,2,,,0,,,59,43
141960,note_off,,,,,60,0,2,,,0,,,51,64
142020,note_off,,,,,60,0,2,,,0,,,59,64
142020,note_on,,,,,0,0,2,,,0,,,51,45
142050,control_change,,,,,30,0,2,,,0,64,0,,
142072,note_off,,,,,22,0,2,,,0,,,51,64
142080,control_change,,,,,8,0,2,,,0,64,127,,
142080,note_on,,,,,0,0,2,,,0,,,42,58
142080,note_on,,,,,0,0,1,,,0,,,73,56
142080,note_off,,,,,120,0,1,,,0,,,78,64
142140,note_off,,,,,60,0,2,,,0,,,42,64
142140,note_on,,,,,0,0,2,,,0,,,49,46
142200,note_on,,,,,0,0,2,,,0,,,58,43
142200,note_off,,,,,60,0,2,,,0,,,49,64
142260,note_off,,,,,60,0,2,,,0,,,58,64
142260,note_on,,,,,0,0,2,,,0,,,49,42
142312,note_off,,,,,52,0,2,,,0,,,49,64
142320,note_on,,,,,8,0,2,,,0,,,42,51
142380,note_on,,,,,0,0,2,,,0,,,49,44
142380,note_off,,,,,60,0,2,,,0,,,42,64
142440,note_on,,,,,0,0,2,,,0,,,58,39
142440,note_off,,,,,60,0,2,,,0,,,49,64
142500,note_off,,,,,60,0,2,,,0,,,58,64
142500,note_on,,,,,0,0,2,,,0,,,49,34
142552,note_off,,,,,52,0,2,,,0,,,49,64
142560,note_on,,,,,8,0,2,,,0,,,42,39
142620,note_off,,,,,60,0,2,,,0,,,42,64
142620,note_on,,,,,0,0,2,,,0,,,49,39
142680,note_off,,,,,60,0,2,,,0,,,49,64
142680,note_on,,,,,0,0,2,,,0,,,58,36
142740,note_off,,,,,60,0,2,,,0,,,58,64
142740,note_on,,,,,0,0,2,,,0,,,49,32
142770,control_change,,,,,30,0,2,,,0,64,0,,
142792,note_off,,,,,22,0,2,,,0,,,49,64
142800,note_on,,,,,0,0,1,,,0,,,71,44
142800,note_off,,,,,720,0,1,,,0,,,73,64
142800,note_on,,,,,8,0,2,,,0,,,42,32
142800,control_change,,,,,0,0,2,,,0,64,127,,
142820,set_tempo,,,,,1060,1,0,606061,,,,,,
142860,note_off,,,,,60,0,2,,,0,,,42,64
142860,note_on,,,,,0,0,2,,,0,,,49,33
142920,note_on,,,,,0,0,1,,,0,,,70,45
142920,note_off,,,,,120,0,1,,,0,,,71,64
142920,note_off,,,,,60,0,2,,,0,,,49,64
142920,note_on,,,,,0,0,2,,,0,,,54,35
142980,note_off,,,,,60,0,2,,,0,,,54,64
142980,note_on,,,,,0,0,2,,,0,,,49,35
143010,control_change,,,,,30,0,2,,,0,64,0,,
143032,note_off,,,,,22,0,2,,,0,,,49,64
143040,note_on,,,,,0,0,1,,,0,,,71,49
143040,note_off,,,,,120,0,1,,,0,,,70,64
143040,control_change,,,,,0,0,2,,,0,64,127,,
143040,note_on,,,,,8,0,2,,,0,,,42,54
143100,note_off,,,,,60,0,2,,,0,,,42,64
143100,note_on,,,,,0,0,2,,,0,,,51,46
143160,note_off,,,,,60,0,2,,,0,,,51,64
143160,note_on,,,,,0,0,2,,,0,,,59,42
143220,note_on,,,,,0,0,2,,,0,,,51,41
143220,note_off,,,,,60,0,2,,,0,,,59,64
143250,control_change,,,,,30,0,2,,,0,64,0,,
143272,note_off,,,,,22,0,2,,,0,,,51,64
143280,note_on,,,,,8,0,2,,,0,,,42,50
143280,note_off,,,,,240,0,1,,,0,,,71,64
143280,note_on,,,,,0,0,1,,,0,,,75,47
143280,control_change,,,,,0,0,2,,,0,64,127,,
143300,set_tempo,,,,,480,1,0,576923,,,,,,
143340,note_off,,,,,60,0,2,,,0,,,42,64
143340,note_on,,,,,0,0,2,,,0,,,51,38
143400,note_on,,,,,0,0,2,,,0,,,59,38
143400,note_off,,,,,60,0,2,,,0,,,51,64
143440,set_tempo,,,,,140,1,0,560748,,,,,,
143460,note_off,,,,,60,0,2,,,0,,,59,64
143460,note_on,,,,,0,0,2,,,0,,,51,36
143490,control_change,,,,,30,0,2,,,0,64,0,,
143512,note_off,,,,,22,0,2,,,0,,,51,64
143520,note_on,,,,,8,0,2,,,0,,,42,46
143520,control_change,,,,,0,0,2,,,0,64,127,,
143520,note_on,,,,,0,0,1,,,0,,,68,54
143520,note_off,,,,,240,0,1,,,0,,,75,64
143580,note_off,,,,,60,0,2,,,0,,,42,64
143580,note_on,,,,,0,0,2,,,0,,,49,36
143600,set_tempo,,,,,160,1,0,535714,,,,,,
143640,note_on,,,,,0,0,2,,,0,,,53,36
143640,note_off,,,,,60,0,2,,,0,,,49,64
143700,note_on,,,,,0,0,2,,,0,,,49,36
143700,note_off,,,,,60,0,2,,,0,,,53,64
143730,control_change,,,,,30,0,2,,,0,64,0,,
143740,set_tempo,,,,,140,1,0,550459,,,,,,
143752,note_off,,,,,22,0,2,,,0,,,49,64
143760,note_off,,,,,240,0,1,,,0,,,68,64
143760,note_on,,,,,0,0,1,,,0,,,71,61
143760,control_change,,,,,0,0,2,,,0,64,127,,
143760,note_on,,,,,8,0,2,,,0,,,42,46
143820,note_on,,,,,0,0,2,,,0,,,49,36
143820,note_off,,,,,60,0,2,,,0,,,42,64
143880,note_off,,,,,60,0,2,,,0,,,49,64
143880,note_on,,,,,0,0,2,,,0,,,56,38
143940,note_off,,,,,60,0,2,,,0,,,56,64
143940,note_on,,,,,0,0,2,,,0,,,49,41
143970,control_change,,,,,30,0,2,,,0,64,0,,
143992,note_off,,,,,22,0,2,,,0,,,49,64
144000,note_on,,,,,8,0,2,,,0,,,42,55
144000,set_tempo,,,,,260,1,0,582524,,,,,,
144000,control_change,,,,,0,0,2,,,0,64,127,,
144000,note_on,,,,,0,0,1,,,0,,,70,67
144000,note_off,,,,,240,0,1,,,0,,,71,64
144060,note_on,,,,,0,0,2,,,0,,,49,41
144060,note_off,,,,,60,0,2,,,0,,,42,64
144120,note_on,,,,,0,0,2,,,0,,,58,42
144120,note_off,,,,,60,0,2,,,0,,,49,64
144140,set_tempo,,,,,140,1,0,540541,,,,,,
144180,note_on,,,,,0,0,2,,,0,,,49,47
144180,set_tempo,,,,,40,1,0,535714,,,,,,
144180,note_off,,,,,180,0,1,,,0,,,70,64
144180,note_off,,,,,60,0,2,,,0,,,58,64
144210,control_change,,,,,30,0,2,,,0,64,0,,
144232,note_off,,,,,22,0,2,,,0,,,49,64
144240,note_on,,,,,0,0,1,,,0,,,66,72
144240,note_on,,,,,60,0,1,,,0,,,78,72
144240,note_on,,,,,0,0,2,,,0,,,42,67
144240,control_change,,,,,8,0,2,,,0,64,127,,
144300,note_on,,,,,0,0,2,,,0,,,49,54
144300,note_off,,,,,60,0,2,,,0,,,42,64
144360,note_on,,,,,0,0,2,,,0,,,58,52
144360,note_off,,,,,60,0,2,,,0,,,49,64
144400,set_tempo,,,,,220,1,0,540541,,,,,,
144420,set_tempo,,,,,20,1,0,560748,,,,,,
144420,note_on,,,,,0,0,2,,,0,,,49,47
144420,note_off,,,,,60,0,2,,,0,,,58,64
144472,note_off,,,,,52,0,2,,,0,,,49,64
144480,note_on,,,,,8,0,2,,,0,,,42,54
144540,note_off,,,,,60,0,2,,,0,,,42,64
144540,note_on,,,,,0,0,2,,,0,,,49,41
144600,note_on,,,,,0,0,1,,,0,,,77,58
144600,note_off,,,,,0,0,1,,,0,,,78,64
144600,note_off,,,,,60,0,2,,,0,,,49,64
144600,note_off,,,,,360,0,1,,,0,,,66,64
144600,note_on,,,,,0,0,2,,,0,,,58,38
144600,note_on,,,,,0,0,1,,,0,,,65,58
144660,note_off,,,,,60,0,2,,,0,,,58,64
144660,note_on,,,,,0,0,2,,,0,,,49,36
144712,note_off,,,,,52,0,2,,,0,,,49,64
144720,control_change,,,,,8,0,2,,,0,64,0,,
144720,note_on,,,,,0,0,1,,,0,,,63,52
144720,note_off,,,,,120,0,1,,,0,,,65,64
144720,note_off,,,,,0,0,1,,,0,,,77,64
144720,note_on,,,,,0,0,1,,,0,,,75,52
144720,note_on,,,,,0,0,2,,,0,,,42,44
144780,note_on,,,,,0,0,2,,,0,,,49,32
144780,note_off,,,,,60,0,2,,,0,,,42,64
144840,note_off,,,,,60,0,2,,,0,,,49,64
144840,note_on,,,,,0,0,2,,,0,,,58,30
144840,note_on,,,,,0,0,1,,,0,,,61,45
144840,note_on,,,,,0,0,1,,,0,,,73,45
144840,note_off,,,,,120,0,1,,,0,,,63,64
144840,note_off,,,,,0,0,1,,,0,,,75,64
144900,note_off,,,,,60,0,2,,,0,,,58,64
144900,note_on,,,,,0,0,2,,,0,,,49,27
144952,note_off,,,,,52,0,2,,,0,,,49,64
144960,note_off,,,,,120,0,1,,,0,,,61,64
144960,note_on,,,,,0,0,1,,,0,,,59,41
144960,note_on,,,,,0,0,1,,,0,,,71,41
144960,note_off,,,,,0,0,1,,,0,,,73,64
144960,note_on,,,,,8,0,2,,,0,,,42,42
144960,control_change,,,,,0,0,2,,,0,64,127,,
145000,set_tempo,,,,,580,1,0,582524,,,,,,
145020,note_on,,,,,0,0,2,,,0,,,51,35
145020,note_off,,,,,60,0,2,,,0,,,42,64
145080,note_off,,,,,60,0,2,,,0,,,51,64
145080,note_on,,,,,0,0,2,,,0,,,54,37
145140,note_off,,,,,60,0,2,,,0,,,54,64
145140,note_on,,,,,0,0,2,,,0,,,51,40
145170,control_change,,,,,30,0,2,,,0,64,0,,
145192,note_off,,,,,22,0,2,,,0,,,51,64
145200,note_on,,,,,0,0,1,,,0,,,75,45
145200,note_on,,,,,0,0,2,,,0,,,42,42
145200,note_off,,,,,0,0,1,,,0,,,71,64
145200,note_off,,,,,240,0,1,,,0,,,59,64
145200,control_change,,,,,8,0,2,,,0,64,127,,
145260,note_on,,,,,0,0,2,,,0,,,51,46
145260,note_off,,,,,60,0,2,,,0,,,42,64
145320,note_on,,,,,0,0,2,,,0,,,59,43
145320,note_off,,,,,60,0,2,,,0,,,51,64
145380,note_on,,,,,0,0,2,,,0,,,51,39
145380,note_off,,,,,60,0,2,,,0,,,59,64
145410,control_change,,,,,30,0,2,,,0,64,0,,
145432,note_off,,,,,22,0,2,,,0,,,51,64
145440,note_on,,,,,8,0,2,,,0,,,42,36
145440,note_off,,,,,240,0,1,,,0,,,75,64
145440,note_on,,,,,0,0,1,,,0,,,68,49
145440,control_change,,,,,0,0,2,,,0,64,127,,
145500,note_off,,,,,60,0,2,,,0,,,42,64
145500,note_on,,,,,0,0,2,,,0,,,49,33
145560,note_off,,,,,60,0,2,,,0,,,49,64
145560,note_on,,,,,0,0,2,,,0,,,53,31
145620,note_on,,,,,0,0,2,,,0,,,49,31
145620,note_off,,,,,60,0,2,,,0,,,53,64
145650,control_change,,,,,30,0,2,,,0,64,0,,
145672,note_off,,,,,22,0,2,,,0,,,49,64
145680,control_change,,,,,0,0,2,,,0,64,127,,
145680,note_on,,,,,8,0,2,,,0,,,42,33
145680,note_on,,,,,0,0,1,,,0,,,70,40
145680,note_off,,,,,240,0,1,,,0,,,68,64
145700,set_tempo,,,,,700,1,0,566038,,,,,,
145720,set_tempo,,,,,20,1,0,582524,,,,,,
145740,note_off,,,,,60,0,2,,,0,,,42,64
145740,note_on,,,,,0,0,2,,,0,,,49,32
145800,note_on,,,,,0,0,1,,,0,,,71,38
145800,note_off,,,,,120,0,1,,,0,,,70,64
145800,note_off,,,,,60,0,2,,,0,,,49,64
145800,note_on,,,,,0,0,2,,,0,,,56,29
145820,set_tempo,,,,,100,1,0,560748,,,,,,
145860,note_off,,,,,60,0,2,,,0,,,56,64
145860,note_on,,,,,0,0,2,,,0,,,49,28
145890,control_change,,,,,30,0,2,,,0,64,0,,
145900,set_tempo,,,,,80,1,0,535714,,,,,,
145912,note_off,,,,,22,0,2,,,0,,,49,64
145920,note_on,,,,,0,0,1,,,0,,,70,44
145920,note_off,,,,,120,0,1,,,0,,,71,64
145920,control_change,,,,,8,0,2,,,0,64,127,,
145920,note_on,,,,,0,0,2,,,0,,,42,37
145966,note_off,,,,,46,0,2,,,0,,,42,64
145980,note_on,,,,,14,0,2,,,0,,,58,24
146010,note_off,,,,,90,0,1,,,0,,,70,64
146020,set_tempo,,,,,120,1,0,512821,,,,,,
146040,note_on,,,,,0,0,2,,,0,,,54,26
146040,note_off,,,,,60,0,2,,,0,,,58,64
146040,note_on,,,,,30,0,1,,,0,,,73,40
146100,note_off,,,,,60,0,2,,,0,,,54,64
146100,note_on,,,,,0,0,2,,,0,,,58,30
146160,note_on,,,,,0,0,1,,,0,,,82,44
146160,set_tempo,,,,,140,1,0,500000,,,,,,
146160,note_off,,,,,60,0,2,,,0,,,58,64
146160,note_on,,,,,0,0,2,,,0,,,54,35
146160,note_off,,,,,120,0,1,,,0,,,73,64
146220,note_off,,,,,60,0,2,,,0,,,54,64
146220,note_on,,,,,0,0,2,,,0,,,58,38
146280,note_off,,,,,120,0,1,,,0,,,82,64
146280,note_off,,,,,60,0,2,,,0,,,58,64
146280,note_on,,,,,0,0,2,,,0,,,54,41
146280,note_on,,,,,0,0,1,,,0,,,78,47
146340,note_on,,,,,0,0,2,,,0,,,58,43
146340,note_off,,,,,60,0,2,,,0,,,54,64
146370,control_change,,,,,30,0,2,,,0,64,0,,
146400,control_change,,,,,0,0,2,,,0,64,127,,
146400,note_on,,,,,0,0,2,,,0,,,42,46
146400,note_on,,,,,0,0,1,,,0,,,73,50
146400,note_off,,,,,120,0,1,,,0,,,78,64
146400,note_off,,,,,30,0,2,,,0,,,58,64
146446,note_off,,,,,46,0,2,,,0,,,42,64
146460,note_on,,,,,14,0,2,,,0,,,58,41
146500,set_tempo,,,,,340,1,0,504202,,,,,,
146520,set_tempo,,,,,20,1,0,512821,,,,,,
146520,note_off,,,,,120,0,1,,,0,,,73,64
146520,note_on,,,,,0,0,1,,,0,,,70,45
146520,note_off,,,,,60,0,2,,,0,,,58,64
146520,note_on,,,,,0,0,2,,,0,,,54,37
146580,note_off,,,,,60,0,2,,,0,,,54,64
146580,note_on,,,,,0,0,2,,,0,,,58,37
146640,note_off,,,,,120,0,1,,,0,,,70,64
146640,note_on,,,,,0,0,1,,,0,,,78,44
146640,note_off,,,,,60,0,2,,,0,,,58,64
146640,note_on,,,,,0,0,2,,,0,,,54,37
146700,note_off,,,,,60,0,2,,,0,,,54,64
146700,note_on,,,,,0,0,2,,,0,,,58,37
146700,set_tempo,,,,,180,1,0,530973,,,,,,
146760,note_off,,,,,60,0,2,,,0,,,58,64
146760,note_on,,,,,0,0,2,,,0,,,54,38
146760,note_off,,,,,120,0,1,,,0,,,78,64
146760,note_on,,,,,0,0,1,,,0,,,74,44
146820,set_tempo,,,,,120,1,0,560748,,,,,,
146820,note_on,,,,,0,0,2,,,0,,,58,43
146820,note_off,,,,,60,0,2,,,0,,,54,64
146850,control_change,,,,,30,0,2,,,0,64,0,,
146880,note_on,,,,,0,0,1,,,0,,,75,54
146880,note_off,,,,,30,0,2,,,0,,,58,64
146880,note_on,,,,,0,0,2,,,0,,,42,49
146880,control_change,,,,,0,0,2,,,0,64,127,,
146880,note_off,,,,,120,0,1,,,0,,,74,64
146926,note_off,,,,,46,0,2,,,0,,,42,64
146940,note_on,,,,,14,0,2,,,0,,,59,46
147000,note_off,,,,,120,0,1,,,0,,,75,64
147000,note_on,,,,,0,0,1,,,0,,,71,42
147000,note_off,,,,,60,0,2,,,0,,,59,64
147000,note_on,,,,,0,0,2,,,0,,,54,37
147020,set_tempo,,,,,200,1,0,530973,,,,,,
147060,note_on,,,,,0,0,2,,,0,,,59,34
147060,note_off,,,,,60,0,2,,,0,,,54,64
147120,note_on,,,,,0,0,2,,,0,,,54,33
147120,note_off,,,,,60,0,2,,,0,,,59,64
147120,note_off,,,,,120,0,1,,,0,,,71,64
147120,note_on,,,,,0,0,1,,,0,,,83,47
147180,note_on,,,,,0,0,2,,,0,,,59,33
147180,note_off,,,,,60,0,2,,,0,,,54,64
147240,note_on,,,,,0,0,2,,,0,,,54,36
147240,note_off,,,,,60,0,2,,,0,,,59,64
147240,note_off,,,,,120,0,1,,,0,,,83,64
147240,note_on,,,,,0,0,1,,,0,,,80,52
147300,note_off,,,,,60,0,2,,,0,,,54,64
147300,note_on,,,,,0,0,2,,,0,,,59,44
147300,set_tempo,,,,,280,1,0,504202,,,,,,
147330,control_change,,,,,30,0,2,,,0,64,0,,
147360,note_on,,,,,0,0,1,,,0,,,77,59
147360,note_off,,,,,120,0,1,,,0,,,80,64
147360,note_on,,,,,0,0,2,,,0,,,42,53
147360,note_off,,,,,30,0,2,,,0,,,59,64
147360,control_change,,,,,0,0,2,,,0,64,127,,
147406,note_off,,,,,46,0,2,,,0,,,42,64
147420,note_on,,,,,14,0,2,,,0,,,59,45
147480,note_off,,,,,60,0,2,,,0,,,59,64
147480,note_on,,,,,0,0,1,,,0,,,80,59
147480,note_off,,,,,120,0,1,,,0,,,77,64
147480,note_on,,,,,0,0,2,,,0,,,54,43
147540,note_on,,,,,0,0,2,,,0,,,59,42
147540,note_off,,,,,60,0,2,,,0,,,54,64
147580,set_tempo,,,,,280,1,0,526316,,,,,,
147600,note_off,,,,,60,0,2,,,0,,,59,64
147600,note_on,,,,,0,0,2,,,0,,,54,41
147600,note_on,,,,,0,0,1,,,0,,,85,56
147600,note_off,,,,,120,0,1,,,0,,,80,64
147660,note_off,,,,,60,0,2,,,0,,,54,64
147660,note_on,,,,,0,0,2,,,0,,,59,40
147720,note_on,,,,,0,0,1,,,0,,,81,53
147720,note_off,,,,,60,0,2,,,0,,,59,64
147720,note_on,,,,,0,0,2,,,0,,,54,39
147720,note_off,,,,,120,0,1,,,0,,,85,64
147740,set_tempo,,,,,160,1,0,545455,,,,,,
147780,note_off,,,,,60,0,2,,,0,,,54,64
147780,note_on,,,,,0,0,2,,,0,,,59,37
147810,control_change,,,,,30,0,2,,,0,64,0,,
147840,control_change,,,,,0,0,2,,,0,64,127,,
147840,note_off,,,,,30,0,2,,,0,,,59,64
147840,note_off,,,,,120,0,1,,,0,,,81,64
147840,note_on,,,,,0,0,2,,,0,,,42,45
147840,note_on,,,,,0,0,1,,,0,,,82,44
147886,note_off,,,,,46,0,2,,,0,,,42,64
147900,note_on,,,,,14,0,2,,,0,,,58,25
147940,set_tempo,,,,,200,1,0,526316,,,,,,
147960,note_on,,,,,0,0,1,,,0,,,78,40
147960,note_off,,,,,60,0,2,,,0,,,58,64
147960,note_on,,,,,0,0,2,,,0,,,54,29
147960,note_off,,,,,120,0,1,,,0,,,82,64
148020,note_off,,,,,60,0,2,,,0,,,54,64
148020,note_on,,,,,0,0,2,,,0,,,58,31
148050,note_off,,,,,90,0,1,,,0,,,78,64
148060,set_tempo,,,,,120,1,0,512821,,,,,,
148080,note_on,,,,,30,0,1,,,0,,,82,44
148080,note_on,,,,,0,0,2,,,0,,,54,35
148080,note_off,,,,,60,0,2,,,0,,,58,64
148140,note_on,,,,,0,0,2,,,0,,,58,38
148140,note_off,,,,,60,0,2,,,0,,,54,64
148140,note_off,,,,,60,0,1,,,0,,,82,64
148140,note_on,,,,,0,0,1,,,0,,,78,47
148200,note_on,,,,,0,0,2,,,0,,,54,41
148200,note_off,,,,,60,0,2,,,0,,,58,64
148200,note_on,,,,,0,0,1,,,0,,,82,44
148200,note_off,,,,,60,0,1,,,0,,,78,64
148260,note_on,,,,,0,0,1,,,0,,,78,47
148260,note_on,,,,,0,0,2,,,0,,,58,43
148260,note_off,,,,,60,0,2,,,0,,,54,64
148260,set_tempo,,,,,200,1,0,495868,,,,,,
148260,note_off,,,,,60,0,1,,,0,,,82,64
148290,control_change,,,,,30,0,2,,,0,64,0,,
148320,note_on,,,,,0,0,2,,,0,,,42,46
148320,control_change,,,,,0,0,2,,,0,64,127,,
148320,note_on,,,,,0,0,1,,,0,,,73,50
148320,note_off,,,,,30,0,2,,,0,,,58,64
148320,note_off,,,,,60,0,1,,,0,,,78,64
148366,note_off,,,,,46,0,2,,,0,,,42,64
148380,note_on,,,,,0,0,1,,,0,,,70,45
148380,note_off,,,,,60,0,1,,,0,,,73,64
148380,note_on,,,,,14,0,2,,,0,,,58,41
148440,note_on,,,,,0,0,2,,,0,,,54,37
148440,note_on,,,,,0,0,1,,,0,,,73,50
148440,note_off,,,,,60,0,1,,,0,,,70,64
148440,note_off,,,,,60,0,2,,,0,,,58,64
148500,note_off,,,,,60,0,1,,,0,,,73,64
148500,note_on,,,,,0,0,1,,,0,,,70,45
148500,note_off,,,,,60,0,2,,,0,,,54,64
148500,note_on,,,,,0,0,2,,,0,,,58,37
148520,set_tempo,,,,,260,1,0,512821,,,,,,
148560,note_on,,,,,0,0,1,,,0,,,78,44
148560,note_off,,,,,60,0,1,,,0,,,70,64
148560,note_on,,,,,0,0,2,,,0,,,54,37
148560,note_off,,,,,60,0,2,,,0,,,58,64
148620,note_off,,,,,60,0,1,,,0,,,78,64
148620,note_on,,,,,0,0,2,,,0,,,58,37
148620,note_on,,,,,0,0,1,,,0,,,74,44
148620,note_off,,,,,60,0,2,,,0,,,54,64
148680,note_off,,,,,60,0,2,,,0,,,58,64
148680,note_on,,,,,0,0,2,,,0,,,54,38
148680,set_tempo,,,,,160,1,0,540541,,,,,,
148680,note_on,,,,,0,0,1,,,0,,,78,44
148680,note_off,,,,,60,0,1,,,0,,,74,64
148740,note_on,,,,,0,0,2,,,0,,,58,43
148740,note_on,,,,,0,0,1,,,0,,,74,44
148740,note_off,,,,,60,0,1,,,0,,,78,64
148740,note_off,,,,,60,0,2,,,0,,,54,64
148770,control_change,,,,,30,0,2,,,0,64,0,,
148800,note_off,,,,,30,0,2,,,0,,,58,64
148800,note_on,,,,,0,0,2,,,0,,,42,49
148800,control_change,,,,,0,0,2,,,0,64,127,,
148800,note_on,,,,,0,0,1,,,0,,,75,54
148800,note_off,,,,,60,0,1,,,0,,,74,64
148846,note_off,,,,,46,0,2,,,0,,,42,64
148860,note_on,,,,,14,0,2,,,0,,,59,46
148860,note_on,,,,,0,0,1,,,0,,,71,45
148860,note_off,,,,,60,0,1,,,0,,,75,64
148920,note_off,,,,,60,0,1,,,0,,,71,64
148920,note_on,,,,,0,0,2,,,0,,,54,37
148920,set_tempo,,,,,240,1,0,526316,,,,,,
148920,note_off,,,,,60,0,2,,,0,,,59,64
148920,note_on,,,,,0,0,1,,,0,,,75,47
148980,note_off,,,,,60,0,1,,,0,,,75,64
148980,note_on,,,,,0,0,1,,,0,,,71,50
148980,note_on,,,,,0,0,2,,,0,,,59,34
148980,note_off,,,,,60,0,2,,,0,,,54,64
149040,note_on,,,,,0,0,2,,,0,,,54,33
149040,note_off,,,,,60,0,1,,,0,,,71,64
149040,note_on,,,,,0,0,1,,,0,,,83,50
149040,note_off,,,,,60,0,2,,,0,,,59,64
149100,note_off,,,,,60,0,2,,,0,,,54,64
149100,note_off,,,,,60,0,1,,,0,,,83,64
149100,note_on,,,,,0,0,1,,,0,,,80,49
149100,note_on,,,,,0,0,2,,,0,,,59,33
149160,note_off,,,,,60,0,2,,,0,,,59,64
149160,note_on,,,,,0,0,2,,,0,,,54,36
149160,note_off,,,,,60,0,1,,,0,,,80,64
149160,note_on,,,,,0,0,1,,,0,,,83,48
149160,set_tempo,,,,,240,1,0,508475,,,,,,
149220,note_on,,,,,0,0,2,,,0,,,59,44
149220,note_off,,,,,60,0,2,,,0,,,54,64
149220,note_on,,,,,0,0,1,,,0,,,80,52
149220,note_off,,,,,60,0,1,,,0,,,83,64
149250,control_change,,,,,30,0,2,,,0,64,0,,
149280,note_off,,,,,60,0,1,,,0,,,80,64
149280,note_on,,,,,0,0,1,,,0,,,77,59
149280,control_change,,,,,0,0,2,,,0,64,127,,
149280,note_off,,,,,30,0,2,,,0,,,59,64
149280,note_on,,,,,0,0,2,,,0,,,42,53
149280,set_tempo,,,,,120,1,0,500000,,,,,,
149326,note_off,,,,,46,0,2,,,0,,,42,64
149340,note_on,,,,,14,0,2,,,0,,,59,45
149340,note_off,,,,,60,0,1,,,0,,,77,64
149340,note_on,,,,,0,0,1,,,0,,,80,55
149400,note_on,,,,,0,0,2,,,0,,,54,43
149400,note_off,,,,,60,0,2,,,0,,,59,64
149400,note_off,,,,,60,0,1,,,0,,,80,64
149400,note_on,,,,,0,0,1,,,0,,,77,53
149440,set_tempo,,,,,160,1,0,526316,,,,,,
149460,note_off,,,,,60,0,2,,,0,,,54,64
149460,note_off,,,,,60,0,1,,,0,,,77,64
149460,note_on,,,,,0,0,1,,,0,,,80,53
149460,note_on,,,,,0,0,2,,,0,,,59,42
149520,note_on,,,,,0,0,1,,,0,,,85,57
149520,note_off,,,,,60,0,1,,,0,,,80,64
149520,note_off,,,,,60,0,2,,,0,,,59,64
149520,note_on,,,,,0,0,2,,,0,,,54,41
149580,note_off,,,,,60,0,1,,,0,,,85,64
149580,note_on,,,,,0,0,1,,,0,,,81,49
149580,note_off,,,,,60,0,2,,,0,,,54,64
149580,note_on,,,,,0,0,2,,,0,,,59,40
149640,note_off,,,,,60,0,1,,,0,,,81,64
149640,set_tempo,,,,,200,1,0,550459,,,,,,
149640,note_off,,,,,60,0,2,,,0,,,59,64
149640,note_on,,,,,0,0,1,,,0,,,85,50
149640,note_on,,,,,0,0,2,,,0,,,54,39
149700,note_off,,,,,60,0,2,,,0,,,54,64
149700,note_off,,,,,60,0,1,,,0,,,85,64
149700,note_on,,,,,0,0,1,,,0,,,81,54
149700,note_on,,,,,0,0,2,,,0,,,59,37
149720,set_tempo,,,,,80,1,0,600000,,,,,,
149730,control_change,,,,,30,0,2,,,0,64,0,,
149760,note_on,,,,,0,0,1,,,0,,,82,49
149760,note_off,,,,,60,0,1,,,0,,,81,64
149760,note_off,,,,,30,0,2,,,0,,,59,64
149760,control_change,,,,,0,0,2,,,0,64,127,,
149760,note_on,,,,,0,0,2,,,0,,,42,49
149760,set_tempo,,,,,40,1,0,652174,,,,,,
149804,note_off,,,,,44,0,2,,,0,,,42,64
149820,note_on,,,,,16,0,2,,,0,,,58,29
149820,note_off,,,,,60,0,1,,,0,,,82,64
149820,note_on,,,,,0,0,1,,,0,,,81,39
149860,set_tempo,,,,,100,1,0,576923,,,,,,
149880,note_on,,,,,0,0,2,,,0,,,54,33
149880,note_on,,,,,0,0,1,,,0,,,82,43
149880,note_off,,,,,60,0,1,,,0,,,81,64
149880,note_off,,,,,60,0,2,,,0,,,58,64
149940,note_on,,,,,0,0,2,,,0,,,58,35
149940,note_off,,,,,60,0,1,,,0,,,82,64
149940,note_off,,,,,60,0,2,,,0,,,54,64
149940,note_on,,,,,0,0,1,,,0,,,77,45
149960,set_tempo,,,,,100,1,0,545455,,,,,,
150000,note_off,,,,,60,0,1,,,0,,,77,64
150000,note_on,,,,,0,0,1,,,0,,,78,48
150000,note_on,,,,,0,0,2,,,0,,,54,38
150000,note_off,,,,,60,0,2,,,0,,,58,64
150060,note_off,,,,,60,0,1,,,0,,,78,64
150060,note_on,,,,,0,0,1,,,0,,,77,45
150060,note_on,,,,,0,0,2,,,0,,,58,31
150060,note_off,,,,,60,0,2,,,0,,,54,64
150120,set_tempo,,,,,160,1,0,530973,,,,,,
150120,note_off,,,,,60,0,1,,,0,,,77,64
150120,note_off,,,,,60,0,2,,,0,,,58,64
150120,note_on,,,,,0,0,1,,,0,,,78,43
150120,note_on,,,,,0,0,2,,,0,,,54,35
150180,note_off,,,,,60,0,1,,,0,,,78,64
150180,note_on,,,,,0,0,1,,,0,,,72,41
150180,note_on,,,,,0,0,2,,,0,,,58,37
150180,note_off,,,,,60,0,2,,,0,,,54,64
150210,control_change,,,,,30,0,2,,,0,64,0,,
150240,note_off,,,,,60,0,1,,,0,,,72,64
150240,note_on,,,,,0,0,1,,,0,,,73,39
150240,control_change,,,,,0,0,2,,,0,64,127,,
150240,note_on,,,,,0,0,2,,,0,,,54,38
150240,note_off,,,,,30,0,2,,,0,,,58,64
150260,set_tempo,,,,,140,1,0,517241,,,,,,
150300,note_on,,,,,0,0,1,,,0,,,72,38
150300,note_off,,,,,60,0,1,,,0,,,73,64
150300,note_off,,,,,60,0,2,,,0,,,54,64
150300,note_on,,,,,0,0,2,,,0,,,58,28
150360,note_on,,,,,0,0,1,,,0,,,73,40
150360,note_off,,,,,60,0,1,,,0,,,72,64
150360,note_on,,,,,0,0,2,,,0,,,54,30
150360,note_off,,,,,60,0,2,,,0,,,58,64
150420,note_off,,,,,60,0,2,,,0,,,54,64
150420,note_on,,,,,0,0,2,,,0,,,58,32
150420,note_off,,,,,60,0,1,,,0,,,73,64
150420,note_on,,,,,0,0,1,,,0,,,69,42
150480,note_off,,,,,60,0,2,,,0,,,58,64
150480,note_on,,,,,0,0,2,,,0,,,54,35
150480,note_on,,,,,0,0,1,,,0,,,70,45
150480,note_off,,,,,60,0,1,,,0,,,69,64
150540,note_on,,,,,0,0,1,,,0,,,69,44
150540,note_off,,,,,60,0,1,,,0,,,70,64
150540,note_off,,,,,60,0,2,,,0,,,54,64
150540,note_on,,,,,0,0,2,,,0,,,58,34
150560,set_tempo,,,,,300,1,0,550459,,,,,,
150600,note_off,,,,,60,0,1,,,0,,,69,64
150600,note_off,,,,,60,0,2,,,0,,,58,64
150600,note_on,,,,,0,0,2,,,0,,,54,32
150600,note_on,,,,,0,0,1,,,0,,,70,42
150660,note_off,,,,,60,0,1,,,0,,,70,64
150660,note_off,,,,,60,0,2,,,0,,,54,64
150660,note_on,,,,,0,0,1,,,0,,,65,40
150660,note_on,,,,,0,0,2,,,0,,,58,30
150690,control_change,,,,,30,0,2,,,0,64,0,,
150720,note_off,,,,,30,0,2,,,0,,,58,64
150720,note_on,,,,,0,0,2,,,0,,,42,39
150720,note_off,,,,,60,0,1,,,0,,,65,64
150720,note_on,,,,,0,0,1,,,0,,,66,41
150720,control_change,,,,,0,0,2,,,0,64,127,,
150764,note_off,,,,,44,0,2,,,0,,,42,64
150780,note_off,,,,,60,0,1,,,0,,,66,64
150780,note_on,,,,,0,0,1,,,0,,,81,33
150780,note_on,,,,,16,0,2,,,0,,,58,29
150840,note_off,,,,,60,0,2,,,0,,,58,64
150840,note_on,,,,,0,0,2,,,0,,,54,33
150840,note_off,,,,,60,0,1,,,0,,,81,64
150840,set_tempo,,,,,280,1,0,526316,,,,,,
150840,note_on,,,,,0,0,1,,,0,,,82,35
150900,note_on,,,,,0,0,1,,,0,,,77,38
150900,note_off,,,,,60,0,1,,,0,,,82,64
150900,note_on,,,,,0,0,2,,,0,,,58,35
150900,note_off,,,,,60,0,2,,,0,,,54,64
150920,set_tempo,,,,,80,1,0,504202,,,,,,
150960,note_off,,,,,60,0,1,,,0,,,77,64
150960,note_on,,,,,0,0,2,,,0,,,54,38
150960,note_off,,,,,60,0,2,,,0,,,58,64
150960,note_on,,,,,0,0,1,,,0,,,78,40
151020,note_on,,,,,0,0,1,,,0,,,77,40
151020,note_off,,,,,60,0,2,,,0,,,54,64
151020,note_on,,,,,0,0,2,,,0,,,58,31
151020,note_off,,,,,60,0,1,,,0,,,78,64
151080,note_off,,,,,60,0,1,,,0,,,77,64
151080,note_on,,,,,0,0,1,,,0,,,78,40
151080,note_off,,,,,60,0,2,,,0,,,58,64
151080,note_on,,,,,0,0,2,,,0,,,54,35
151140,note_on,,,,,0,0,2,,,0,,,58,37
151140,note_off,,,,,60,0,1,,,0,,,78,64
151140,note_off,,,,,60,0,2,,,0,,,54,64
151140,note_on,,,,,0,0,1,,,0,,,72,38
151170,control_change,,,,,30,0,2,,,0,64,0,,
151200,note_off,,,,,30,0,2,,,0,,,58,64
151200,note_on,,,,,0,0,2,,,0,,,54,38
151200,control_change,,,,,0,0,2,,,0,64,127,,
151200,set_tempo,,,,,280,1,0,508475,,,,,,
151200,note_on,,,,,0,0,1,,,0,,,73,36
151200,note_off,,,,,60,0,1,,,0,,,72,64
151220,set_tempo,,,,,20,1,0,526316,,,,,,
151260,note_off,,,,,60,0,2,,,0,,,54,64
151260,note_on,,,,,0,0,2,,,0,,,58,28
151260,note_on,,,,,0,0,1,,,0,,,72,36
151260,note_off,,,,,60,0,1,,,0,,,73,64
151320,set_tempo,,,,,100,1,0,540541,,,,,,
151320,note_off,,,,,60,0,1,,,0,,,72,64
151320,note_on,,,,,0,0,2,,,0,,,54,30
151320,note_off,,,,,60,0,2,,,0,,,58,64
151320,note_on,,,,,0,0,1,,,0,,,73,40
151380,note_on,,,,,0,0,1,,,0,,,69,42
151380,note_on,,,,,0,0,2,,,0,,,58,32
151380,note_off,,,,,60,0,2,,,0,,,54,64
151380,note_off,,,,,60,0,1,,,0,,,73,64
151440,note_on,,,,,0,0,2,,,0,,,54,35
151440,note_off,,,,,60,0,2,,,0,,,58,64
151440,note_on,,,,,0,0,1,,,0,,,70,45
151440,note_off,,,,,60,0,1,,,0,,,69,64
151500,note_on,,,,,0,0,2,,,0,,,58,34
151500,note_on,,,,,0,0,1,,,0,,,69,44
151500,note_off,,,,,60,0,1,,,0,,,70,64
151500,note_off,,,,,60,0,2,,,0,,,54,64
151560,note_on,,,,,0,0,2,,,0,,,54,32
151560,note_on,,,,,0,0,1,,,0,,,70,42
151560,note_off,,,,,60,0,2,,,0,,,58,64
151560,note_off,,,,,60,0,1,,,0,,,69,64
151620,note_on,,,,,0,0,1,,,0,,,65,40
151620,note_off,,,,,60,0,1,,,0,,,70,64
151620,set_tempo,,,,,300,1,0,588235,,,,,,
151620,note_on,,,,,0,0,2,,,0,,,58,30
151620,note_off,,,,,60,0,2,,,0,,,54,64
151650,control_change,,,,,30,0,2,,,0,64,0,,
151680,note_off,,,,,30,0,2,,,0,,,58,64
151680,note_on,,,,,0,0,1,,,0,,,66,39
151680,note_off,,,,,60,0,1,,,0,,,65,64
151680,control_change,,,,,0,0,2,,,0,64,127,,
151680,note_on,,,,,0,0,2,,,0,,,54,39
151740,note_off,,,,,60,0,1,,,0,,,66,64
151740,note_on,,,,,0,0,1,,,0,,,65,38
151740,note_off,,,,,60,0,2,,,0,,,54,64
151740,note_on,,,,,0,0,2,,,0,,,58,29
151800,note_off,,,,,60,0,1,,,0,,,65,64
151800,note_on,,,,,0,0,2,,,0,,,54,33
151800,note_on,,,,,0,0,1,,,0,,,66,39
151800,note_off,,,,,60,0,2,,,0,,,58,64
151860,note_off,,,,,60,0,2,,,0,,,54,64
151860,note_on,,,,,0,0,1,,,0,,,68,41
151860,note_off,,,,,60,0,1,,,0,,,66,64
151860,note_on,,,,,0,0,2,,,0,,,58,35
151920,note_off,,,,,60,0,2,,,0,,,58,64
151920,note_on,,,,,0,0,2,,,0,,,54,38
151920,note_on,,,,,0,0,1,,,0,,,70,42
151920,note_off,,,,,60,0,1,,,0,,,68,64
151980,note_on,,,,,0,0,1,,,0,,,71,43
151980,note_off,,,,,60,0,1,,,0,,,70,64
151980,note_off,,,,,60,0,2,,,0,,,54,64
151980,note_on,,,,,0,0,2,,,0,,,58,31
152040,note_off,,,,,60,0,2,,,0,,,58,64
152040,note_off,,,,,60,0,1,,,0,,,71,64
152040,note_on,,,,,0,0,2,,,0,,,54,35
152040,note_on,,,,,0,0,1,,,0,,,70,44
152080,set_tempo,,,,,460,1,0,631579,,,,,,
152100,note_on,,,,,0,0,1,,,0,,,68,45
152100,note_on,,,,,0,0,2,,,0,,,58,37
152100,note_off,,,,,60,0,2,,,0,,,54,64
152100,note_off,,,,,60,0,1,,,0,,,70,64
152130,control_change,,,,,30,0,2,,,0,64,0,,
152160,note_off,,,,,60,0,1,,,0,,,68,64
152160,note_on,,,,,0,0,1,,,0,,,66,46
152160,note_on,,,,,0,0,2,,,0,,,54,38
152160,control_change,,,,,0,0,2,,,0,64,127,,
152160,note_off,,,,,30,0,2,,,0,,,58,64
152220,note_on,,,,,0,0,1,,,0,,,68,46
152220,note_off,,,,,60,0,2,,,0,,,54,64
152220,note_off,,,,,60,0,1,,,0,,,66,64
152220,note_on,,,,,0,0,2,,,0,,,58,38
152240,set_tempo,,,,,160,1,0,666667,,,,,,
152280,note_off,,,,,60,0,2,,,0,,,58,64
152280,note_on,,,,,0,0,1,,,0,,,70,43
152280,note_off,,,,,60,0,1,,,0,,,68,64
152280,note_on,,,,,0,0,2,,,0,,,54,36
152340,note_off,,,,,60,0,1,,,0,,,70,64
152340,note_off,,,,,60,0,2,,,0,,,54,64
152340,note_on,,,,,0,0,2,,,0,,,58,36
152340,note_on,,,,,0,0,1,,,0,,,68,42
152400,note_off,,,,,60,0,2,,,0,,,58,64
152400,note_on,,,,,0,0,1,,,0,,,66,39
152400,note_off,,,,,60,0,1,,,0,,,68,64
152400,note_on,,,,,0,0,2,,,0,,,54,35
152460,note_off,,,,,60,0,2,,,0,,,54,64
152460,note_on,,,,,0,0,2,,,0,,,58,33
152460,note_off,,,,,60,0,1,,,0,,,66,64
152460,note_on,,,,,0,0,1,,,0,,,68,36
152500,set_tempo,,,,,260,1,0,714286,,,,,,
152520,note_on,,,,,0,0,1,,,0,,,66,39
152520,note_off,,,,,60,0,1,,,0,,,68,64
152520,note_on,,,,,0,0,2,,,0,,,54,35
152520,note_off,,,,,60,0,2,,,0,,,58,64
152580,note_on,,,,,0,0,2,,,0,,,58,42
152580,note_on,,,,,0,0,1,,,0,,,65,44
152580,note_off,,,,,60,0,2,,,0,,,54,64
152580,note_off,,,,,60,0,1,,,0,,,66,64
152600,set_tempo,,,,,100,1,0,923077,,,,,,
152610,control_change,,,,,30,0,2,,,0,64,0,,
152620,set_tempo,,,,,20,1,0,895522,,,,,,
152640,note_off,,,,,60,0,1,,,0,,,65,64
152640,note_on,,,,,0,0,1,,,0,,,64,48
152640,note_on,,,,,0,0,2,,,0,,,42,47
152640,control_change,,,,,0,0,2,,,0,64,127,,
152640,note_off,,,,,30,0,2,,,0,,,58,64
152720,note_on,,,,,0,0,2,,,0,,,54,38
152720,note_off,,,,,80,0,2,,,0,,,42,64
152720,note_off,,,,,80,0,1,,,0,,,64,64
152720,note_on,,,,,0,0,1,,,0,,,70,39
152740,set_tempo,,,,,120,1,0,769231,,,,,,
152800,note_on,,,,,0,0,1,,,0,,,58,43
152800,note_on,,,,,0,0,1,,,0,,,64,43
152800,note_on,,,,,0,0,1,,,0,,,70,43
152800,note_off,,,,,80,0,1,,,0,,,70,64
152800,note_on,,,,,0,0,2,,,0,,,54,43
152800,note_on,,,,,0,0,2,,,0,,,42,43
152800,note_off,,,,,80,0,2,,,0,,,54,64
152870,control_change,,,,,70,0,2,,,0,64,0,,
152880,control_change,,,,,0,0,2,,,0,64,127,,
152880,note_on,,,,,0,0,2,,,0,,,54,50
152880,note_on,,,,,0,0,2,,,0,,,42,50
152880,note_off,,,,,0,0,2,,,0,,,42,64
152880,set_tempo,,,,,140,1,0,722892,,,,,,
152880,note_off,,,,,10,0,2,,,0,,,54,64
152880,note_on,,,,,0,0,1,,,0,,,70,56
152880,note_off,,,,,80,0,1,,,0,,,58,64
152880,note_on,,,,,0,0,1,,,0,,,58,56
152880,note_off,,,,,0,0,1,,,0,,,64,64
152880,note_on,,,,,0,0,1,,,0,,,64,56
152880,note_off,,,,,0,0,1,,,0,,,70,64
152960,note_on,,,,,0,0,2,,,0,,,54,42
152960,note_off,,,,,0,0,2,,,0,,,42,64
152960,note_off,,,,,80,0,2,,,0,,,54,64
152960,note_off,,,,,0,0,1,,,0,,,64,64
152960,note_on,,,,,0,0,1,,,0,,,58,46
152960,note_on,,,,,0,0,2,,,0,,,42,42
152960,note_on,,,,,0,0,1,,,0,,,70,46
152960,note_off,,,,,0,0,1,,,0,,,70,64
152960,note_off,,,,,80,0,1,,,0,,,58,64
152960,note_on,,,,,0,0,1,,,0,,,64,46
153000,set_tempo,,,,,120,1,0,659341,,,,,,
153040,note_on,,,,,0,0,2,,,0,,,42,47
153040,note_on,,,,,0,0,2,,,0,,,54,47
153040,note_on,,,,,0,0,1,,,0,,,58,49
153040,note_on,,,,,0,0,1,,,0,,,70,49
153040,note_on,,,,,0,0,1,,,0,,,64,49
153040,note_off,,,,,0,0,1,,,0,,,70,64
153040,note_off,,,,,0,0,1,,,0,,,64,64
153040,note_off,,,,,80,0,1,,,0,,,58,64
153040,note_off,,,,,80,0,2,,,0,,,42,64
153040,note_off,,,,,0,0,2,,,0,,,54,64
153110,control_change,,,,,70,0,2,,,0,64,0,,
153110,control_change,,,,,0,0,2,,,0,64,0,,
153120,note_on,,,,,0,0,2,,,0,,,54,59
153120,note_on,,,,,0,0,2,,,0,,,42,59
153120,control_change,,,,,0,0,2,,,0,64,127,,
153120,note_off,,,,,0,0,2,,,0,,,42,64
153120,note_off,,,,,10,0,2,,,0,,,54,64
153120,note_on,,,,,0,0,1,,,0,,,64,65
153120,note_off,,,,,80,0,1,,,0,,,58,64
153120,note_off,,,,,0,0,1,,,0,,,64,64
153120,note_off,,,,,0,0,1,,,0,,,70,64
153120,note_on,,,,,0,0,1,,,0,,,70,65
153120,note_on,,,,,0,0,1,,,0,,,58,65
153200,note_off,,,,,0,0,1,,,0,,,70,64
153200,note_off,,,,,0,0,2,,,0,,,54,64
153200,note_off,,,,,80,0,2,,,0,,,42,64
153200,note_off,,,,,0,0,1,,,0,,,64,64
153200,note_on,,,,,0,0,2,,,0,,,42,53
153200,note_on,,,,,0,0,2,,,0,,,54,53
153200,note_on,,,,,0,0,1,,,0,,,58,56
153200,note_on,,,,,0,0,1,,,0,,,64,56
153200,note_off,,,,,80,0,1,,,0,,,58,64
153200,note_on,,,,,0,0,1,,,0,,,70,56
153240,set_tempo,,,,,240,1,0,631579,,,,,,
153280,note_off,,,,,0,0,2,,,0,,,42,64
153280,note_on,,,,,0,0,2,,,0,,,54,56
153280,note_on,,,,,0,0,2,,,0,,,42,56
153280,note_on,,,,,0,0,1,,,0,,,58,62
153280,note_on,,,,,0,0,1,,,0,,,64,62
153280,note_off,,,,,0,0,1,,,0,,,70,64
153280,note_off,,,,,0,0,1,,,0,,,64,64
153280,note_off,,,,,80,0,1,,,0,,,58,64
153280,note_off,,,,,80,0,2,,,0,,,54,64
153280,note_on,,,,,0,0,1,,,0,,,70,62
153350,control_change,,,,,70,0,2,,,0,64,0,,
153350,control_change,,,,,0,0,2,,,0,64,0,,
153350,control_change,,,,,0,0,2,,,0,64,0,,
153360,note_on,,,,,0,0,2,,,0,,,54,71
153360,note_off,,,,,0,0,2,,,0,,,54,64
153360,note_off,,,,,10,0,2,,,0,,,42,64
153360,note_on,,,,,0,0,1,,,0,,,58,80
153360,note_on,,,,,0,0,1,,,0,,,64,80
153360,note_off,,,,,0,0,1,,,0,,,70,64
153360,note_off,,,,,0,0,1,,,0,,,64,64
153360,note_on,,,,,0,0,1,,,0,,,70,80
153360,control_change,,,,,0,0,2,,,0,64,127,,
153360,note_on,,,,,0,0,2,,,0,,,42,71
153360,note_on,,,,,0,0,2,,,0,,,49,71
153360,note_off,,,,,80,0,1,,,0,,,58,64
153440,note_on,,,,,0,0,1,,,0,,,64,71
153440,note_off,,,,,80,0,1,,,0,,,58,64
153440,note_off,,,,,0,0,1,,,0,,,64,64
153440,note_off,,,,,0,0,2,,,0,,,54,64
153440,note_on,,,,,0,0,2,,,0,,,54,61
153440,note_on,,,,,0,0,1,,,0,,,70,71
153440,note_on,,,,,0,0,1,,,0,,,58,71
153440,note_off,,,,,0,0,1,,,0,,,70,64
153440,note_on,,,,,0,0,2,,,0,,,49,61
153440,note_off,,,,,80,0,2,,,0,,,42,64
153440,note_off,,,,,0,0,2,,,0,,,49,64
153440,note_on,,,,,0,0,2,,,0,,,42,61
153460,set_tempo,,,,,220,1,0,606061,,,,,,
153520,note_off,,,,,80,0,2,,,0,,,54,64
153520,note_off,,,,,80,0,1,,,0,,,58,64
153520,note_off,,,,,0,0,1,,,0,,,64,64
153520,note_off,,,,,0,0,1,,,0,,,70,64
153520,note_on,,,,,0,0,1,,,0,,,70,76
153520,note_on,,,,,0,0,1,,,0,,,64,76
153520,note_on,,,,,0,0,1,,,0,,,58,76
153520,note_off,,,,,0,0,2,,,0,,,42,64
153520,note_on,,,,,0,0,2,,,0,,,42,64
153520,note_on,,,,,0,0,2,,,0,,,54,64
153520,note_off,,,,,0,0,2,,,0,,,49,64
153520,note_on,,,,,0,0,2,,,0,,,49,64
153590,control_change,,,,,70,0,2,,,0,64,0,,
153590,control_change,,,,,0,0,2,,,0,64,0,,
153590,control_change,,,,,0,0,2,,,0,64,0,,
153590,control_change,,,,,0,0,2,,,0,64,0,,
153600,note_on,,,,,0,0,2,,,0,,,49,80
153600,note_on,,,,,0,0,2,,,0,,,54,80
153600,note_on,,,,,0,0,2,,,0,,,42,80
153600,control_change,,,,,0,0,2,,,0,64,127,,
153600,note_off,,,,,0,0,2,,,0,,,42,64
153600,note_off,,,,,0,0,2,,,0,,,49,64
153600,note_off,,,,,10,0,2,,,0,,,54,64
153600,note_off,,,,,80,0,1,,,0,,,58,64
153600,note_off,,,,,0,0,1,,,0,,,64,64
153600,note_off,,,,,0,0,1,,,0,,,70,64
153600,note_on,,,,,0,0,1,,,0,,,70,91
153600,note_on,,,,,0,0,1,,,0,,,64,91
153600,note_on,,,,,0,0,1,,,0,,,58,91
153680,note_on,,,,,0,0,2,,,0,,,54,73
153680,note_on,,,,,0,0,2,,,0,,,49,73
153680,note_on,,,,,0,0,2,,,0,,,42,73
153680,note_off,,,,,0,0,2,,,0,,,42,64
153680,note_off,,,,,0,0,2,,,0,,,54,64
153680,note_off,,,,,80,0,2,,,0,,,49,64
153680,note_off,,,,,0,0,1,,,0,,,64,64
153680,note_on,,,,,0,0,1,,,0,,,64,84
153680,note_off,,,,,80,0,1,,,0,,,58,64
153680,note_on,,,,,0,0,1,,,0,,,58,84
153680,note_on,,,,,0,0,1,,,0,,,70,84
153680,note_off,,,,,0,0,1,,,0,,,70,64
153760,note_off,,,,,80,0,2,,,0,,,54,64
153760,note_off,,,,,80,0,1,,,0,,,58,64
153760,note_off,,,,,0,0,1,,,0,,,64,64
153760,note_on,,,,,0,0,2,,,0,,,42,77
153760,note_off,,,,,0,0,2,,,0,,,42,64
153760,note_on,,,,,0,0,2,,,0,,,54,77
153760,note_on,,,,,0,0,2,,,0,,,49,77
153760,note_on,,,,,0,0,1,,,0,,,58,86
153760,note_on,,,,,0,0,1,,,0,,,64,86
153760,note_on,,,,,0,0,1,,,0,,,70,86
153760,note_off,,,,,0,0,2,,,0,,,49,64
153760,note_off,,,,,0,0,1,,,0,,,70,64
153830,control_change,,,,,70,0,2,,,0,64,0,,
153830,control_change,,,,,0,0,2,,,0,64,0,,
153830,control_change,,,,,0,0,2,,,0,64,0,,
153830,control_change,,,,,0,0,2,,,0,64,0,,
153830,control_change,,,,,0,0,2,,,0,64,0,,
153840,set_tempo,,,,,380,1,0,631579,,,,,,
153840,note_off,,,,,80,0,1,,,0,,,58,64
153840,note_off,,,,,0,0,2,,,0,,,42,64
153840,control_change,,,,,0,0,2,,,0,64,127,,
153840,note_on,,,,,0,0,2,,,0,,,54,92
153840,note_on,,,,,0,0,2,,,0,,,42,92
153840,note_on,,,,,0,0,2,,,0,,,49,92
153840,note_off,,,,,0,0,2,,,0,,,54,64
153840,note_on,,,,,0,0,1,,,0,,,58,100
153840,note_on,,,,,0,0,1,,,0,,,64,100
153840,note_on,,,,,0,0,1,,,0,,,70,100
153840,note_off,,,,,0,0,1,,,0,,,70,64
153840,note_off,,,,,0,0,1,,,0,,,64,64
153840,note_off,,,,,10,0,2,,,0,,,49,64
153920,note_off,,,,,80,0,1,,,0,,,58,64
153920,note_off,,,,,0,0,1,,,0,,,70,64
153920,note_on,,,,,0,0,1,,,0,,,70,94
153920,note_on,,,,,0,0,1,,,0,,,64,94
153920,note_on,,,,,0,0,1,,,0,,,58,94
153920,note_off,,,,,0,0,1,,,0,,,64,64
153920,note_off,,,,,80,0,2,,,0,,,54,64
153920,note_off,,,,,0,0,2,,,0,,,42,64
153920,note_off,,,,,0,0,2,,,0,,,49,64
153920,note_on,,,,,0,0,2,,,0,,,42,88
153920,note_on,,,,,0,0,2,,,0,,,54,88
153920,note_on,,,,,0,0,2,,,0,,,49,88
154000,note_on,,,,,0,0,2,,,0,,,42,92
154000,set_tempo,,,,,160,1,0,666667,,,,,,
154000,note_off,,,,,0,0,2,,,0,,,42,64
154000,note_on,,,,,0,0,2,,,0,,,49,92
154000,note_off,,,,,80,0,2,,,0,,,49,64
154000,note_off,,,,,0,0,2,,,0,,,54,64
154000,note_on,,,,,0,0,1,,,0,,,64,97
154000,note_off,,,,,80,0,1,,,0,,,58,64
154000,note_on,,,,,0,0,1,,,0,,,58,97
154000,note_off,,,,,0,0,1,,,0,,,64,64
154000,note_on,,,,,0,0,2,,,0,,,54,92
154000,note_off,,,,,0,0,1,,,0,,,70,64
154000,note_on,,,,,0,0,1,,,0,,,70,97
154070,control_change,,,,,0,0,2,,,0,64,0,,
154070,control_change,,,,,0,0,2,,,0,64,0,,
154070,control_change,,,,,0,0,2,,,0,64,0,,
154070,control_change,,,,,0,0,2,,,0,64,0,,
154070,control_change,,,,,70,0,2,,,0,64,0,,
154080,note_on,,,,,0,0,2,,,0,,,54,104
154080,note_on,,,,,0,0,2,,,0,,,49,104
154080,control_change,,,,,0,0,2,,,0,64,127,,
154080,note_off,,,,,10,0,2,,,0,,,42,64
154080,note_on,,,,,0,0,2,,,0,,,42,104
154080,note_off,,,,,0,0,2,,,0,,,54,64
154080,note_off,,,,,0,0,2,,,0,,,49,64
154080,note_on,,,,,0,0,1,,,0,,,70,109
154080,note_off,,,,,80,0,1,,,0,,,58,64
154080,note_off,,,,,0,0,1,,,0,,,64,64
154080,note_off,,,,,0,0,1,,,0,,,70,64
154080,note_on,,,,,0,0,1,,,0,,,64,109
154080,note_on,,,,,0,0,1,,,0,,,58,109
154160,note_on,,,,,0,0,2,,,0,,,42,99
154160,note_on,,,,,0,0,2,,,0,,,49,99
154160,note_on,,,,,0,0,2,,,0,,,54,99
154160,note_off,,,,,0,0,2,,,0,,,49,64
154160,note_off,,,,,0,0,2,,,0,,,54,64
154160,note_off,,,,,80,0,2,,,0,,,42,64
154160,note_off,,,,,80,0,1,,,0,,,58,64
154160,note_off,,,,,0,0,1,,,0,,,64,64
154160,note_off,,,,,0,0,1,,,0,,,70,64
154160,note_on,,,,,0,0,1,,,0,,,64,104
154160,note_on,,,,,0,0,1,,,0,,,58,104
154160,note_on,,,,,0,0,1,,,0,,,70,104
154240,note_on,,,,,0,0,2,,,0,,,42,103
154240,note_on,,,,,0,0,1,,,0,,,58,107
154240,note_on,,,,,0,0,1,,,0,,,64,107
154240,note_on,,,,,0,0,1,,,0,,,70,107
154240,note_off,,,,,0,0,2,,,0,,,54,64
154240,note_off,,,,,0,0,1,,,0,,,70,64
154240,note_off,,,,,80,0,1,,,0,,,58,64
154240,note_on,,,,,0,0,2,,,0,,,49,103
154240,note_on,,,,,0,0,2,,,0,,,54,103
154240,note_off,,,,,80,0,2,,,0,,,42,64
154240,note_off,,,,,0,0,1,,,0,,,64,64
154240,note_off,,,,,0,0,2,,,0,,,49,64
154260,set_tempo,,,,,260,1,0,1000000,,,,,,
154310,control_change,,,,,70,0,2,,,0,64,0,,
154310,control_change,,,,,0,0,2,,,0,64,0,,
154310,control_change,,,,,0,0,2,,,0,64,0,,
154310,control_change,,,,,0,0,2,,,0,64,0,,
154310,control_change,,,,,0,0,2,,,0,64,0,,
154310,control_change,,,,,0,0,2,,,0,64,0,,
154320,note_off,,,,,10,0,2,,,0,,,54,64
154320,note_off,,,,,0,0,2,,,0,,,42,64
154320,note_off,,,,,0,0,2,,,0,,,49,64
154320,note_on,,,,,0,0,2,,,0,,,50,112
154320,note_on,,,,,0,0,2,,,0,,,41,112
154320,note_on,,,,,0,0,1,,,0,,,70,112
154320,control_change,,,,,0,0,2,,,0,64,127,,
154320,note_on,,,,,0,0,1,,,0,,,58,112
154320,note_off,,,,,80,0,1,,,0,,,58,64
154320,note_off,,,,,0,0,1,,,0,,,64,64
154320,note_off,,,,,0,0,1,,,0,,,70,64
154320,note_on,,,,,0,0,1,,,0,,,65,112
154320,note_on,,,,,0,0,2,,,0,,,53,112
154340,set_tempo,,,,,80,1,0,789474,,,,,,
154400,note_on,,,,,0,0,2,,,0,,,53,110
154400,note_off,,,,,0,0,1,,,0,,,65,64
154400,note_off,,,,,0,0,1,,,0,,,70,64
154400,note_on,,,,,0,0,1,,,0,,,70,110
154400,note_on,,,,,0,0,1,,,0,,,65,110
154400,note_on,,,,,0,0,1,,,0,,,58,110
154400,note_off,,,,,80,0,2,,,0,,,53,64
154400,note_off,,,,,0,0,2,,,0,,,41,64
154400,note_off,,,,,0,0,2,,,0,,,50,64
154400,note_on,,,,,0,0,2,,,0,,,41,110
154400,note_on,,,,,0,0,2,,,0,,,50,110
154400,note_off,,,,,80,0,1,,,0,,,58,64
154420,set_tempo,,,,,80,1,0,821918,,,,,,
154440,set_tempo,,,,,20,1,0,869565,,,,,,
154460,set_tempo,,,,,20,1,0,983607,,,,,,
154480,set_tempo,,,,,20,1,0,1000000,,,,,,
154480,note_off,,,,,80,0,1,,,0,,,58,64
154480,note_off,,,,,0,0,1,,,0,,,65,64
154480,note_off,,,,,0,0,1,,,0,,,70,64
154480,note_on,,,,,0,0,1,,,0,,,70,103
154480,note_on,,,,,0,0,1,,,0,,,65,103
154480,note_off,,,,,80,0,2,,,0,,,50,64
154480,note_off,,,,,0,0,2,,,0,,,53,64
154480,note_off,,,,,0,0,2,,,0,,,41,64
154480,note_on,,,,,0,0,2,,,0,,,50,103
154480,note_on,,,,,0,0,2,,,0,,,41,103
154480,note_on,,,,,0,0,2,,,0,,,53,103
154480,note_on,,,,,0,0,1,,,0,,,58,103
154500,set_tempo,,,,,20,1,0,1111111,,,,,,
154520,set_tempo,,,,,20,1,0,1395349,,,,,,
154550,control_change,,,,,70,0,2,,,0,64,0,,
154560,note_off,,,,,10,0,2,,,0,,,53,64
154560,note_off,,,,,0,0,2,,,0,,,41,64
154560,note_off,,,,,0,0,2,,,0,,,50,64
154560,control_change,,,,,0,0,2,,,0,64,127,,
154560,note_on,,,,,0,0,2,,,0,,,50,109
154560,note_off,,,,,0,0,1,,,0,,,65,64
154560,note_off,,,,,80,0,1,,,0,,,58,64
154560,note_off,,,,,0,0,1,,,0,,,70,64
154560,note_on,,,,,0,0,1,,,0,,,70,108
154560,note_on,,,,,0,0,1,,,0,,,65,108
154560,note_on,,,,,0,0,1,,,0,,,58,108
154560,note_on,,,,,0,0,1,,,0,,,46,108
154580,set_tempo,,,,,60,1,0,983607,,,,,,
154600,set_tempo,,,,,20,1,0,967742,,,,,,
154620,set_tempo,,,,,20,1,0,909091,,,,,,
154638,note_off,,,,,78,0,2,,,0,,,50,64
154640,note_on,,,,,2,0,2,,,0,,,53,91
154700,set_tempo,,,,,80,1,0,857143,,,,,,
154704,note_off,,,,,64,0,2,,,0,,,53,64
154720,note_on,,,,,16,0,2,,,0,,,53,88
154776,note_off,,,,,56,0,2,,,0,,,53,64
154780,set_tempo,,,,,80,1,0,800000,,,,,,
154790,control_change,,,,,14,0,2,,,0,64,0,,
154800,note_on,,,,,0,0,1,,,0,,,65,91
154800,note_off,,,,,0,0,1,,,0,,,65,64
154800,note_off,,,,,0,0,1,,,0,,,70,64
154800,note_on,,,,,0,0,1,,,0,,,69,91
154800,note_on,,,,,0,0,1,,,0,,,57,91
154800,note_off,,,,,0,0,1,,,0,,,58,64
154800,note_on,,,,,10,0,2,,,0,,,48,95
154800,note_on,,,,,0,0,1,,,0,,,46,91
154800,note_off,,,,,240,0,1,,,0,,,46,64
154800,control_change,,,,,0,0,2,,,0,64,127,,
154878,note_off,,,,,78,0,2,,,0,,,48,64
154880,note_on,,,,,2,0,2,,,0,,,53,89
154880,set_tempo,,,,,100,1,0,740741,,,,,,
154944,note_off,,,,,64,0,2,,,0,,,53,64
154960,note_on,,,,,16,0,2,,,0,,,53,66
154960,set_tempo,,,,,80,1,0,681818,,,,,,
155016,note_off,,,,,56,0,2,,,0,,,53,64
155030,control_change,,,,,14,0,2,,,0,64,0,,
155040,note_on,,,,,0,0,1,,,0,,,46,89
155040,note_on,,,,,0,0,1,,,0,,,58,89
155040,note_on,,,,,0,0,1,,,0,,,65,89
155040,note_on,,,,,0,0,1,,,0,,,70,89
155040,note_off,,,,,0,0,1,,,0,,,65,64
155040,note_off,,,,,0,0,1,,,0,,,69,64
155040,note_off,,,,,240,0,1,,,0,,,46,64
155040,note_on,,,,,0,0,2,,,0,,,50,89
155040,control_change,,,,,10,0,2,,,0,64,127,,
155040,note_off,,,,,0,0,1,,,0,,,57,64
155100,set_tempo,,,,,140,1,0,645161,,,,,,
155118,note_off,,,,,78,0,2,,,0,,,50,64
155120,note_on,,,,,2,0,2,,,0,,,53,81
155184,note_off,,,,,64,0,2,,,0,,,53,64
155200,note_on,,,,,16,0,2,,,0,,,53,68
155220,set_tempo,,,,,120,1,0,612245,,,,,,
155256,note_off,,,,,56,0,2,,,0,,,53,64
155270,control_change,,,,,14,0,2,,,0,64,0,,
155280,note_off,,,,,0,0,1,,,0,,,58,64
155280,note_off,,,,,240,0,1,,,0,,,46,64
155280,note_off,,,,,0,0,1,,,0,,,65,64
155280,note_on,,,,,0,0,1,,,0,,,72,104
155280,note_on,,,,,10,0,2,,,0,,,51,94
155280,control_change,,,,,0,0,2,,,0,64,127,,
155280,set_tempo,,,,,60,1,0,606061,,,,,,
155280,note_off,,,,,0,0,1,,,0,,,70,64
155280,note_on,,,,,0,0,1,,,0,,,65,104
155280,note_on,,,,,0,0,1,,,0,,,46,104
155280,note_on,,,,,0,0,1,,,0,,,60,104
155300,set_tempo,,,,,20,1,0,566038,,,,,,
155358,note_off,,,,,78,0,2,,,0,,,51,64
155360,note_on,,,,,2,0,2,,,0,,,53,83
155420,set_tempo,,,,,120,1,0,689655,,,,,,
155424,note_off,,,,,64,0,2,,,0,,,53,64
155440,note_on,,,,,16,0,2,,,0,,,53,70
155460,set_tempo,,,,,40,1,0,681818,,,,,,
155496,note_off,,,,,56,0,2,,,0,,,53,64
155510,control_change,,,,,14,0,2,,,0,64,0,,
155520,note_on,,,,,10,0,2,,,0,,,52,106
155520,note_on,,,,,0,0,1,,,0,,,46,109
155520,note_on,,,,,0,0,1,,,0,,,62,109
155520,note_off,,,,,240,0,1,,,0,,,46,64
155520,note_off,,,,,0,0,1,,,0,,,60,64
155520,note_off,,,,,0,0,1,,,0,,,65,64
155520,note_off,,,,,0,0,1,,,0,,,72,64
155520,note_on,,,,,0,0,1,,,0,,,74,109
155520,control_change,,,,,0,0,2,,,0,64,127,,
155520,note_on,,,,,0,0,1,,,0,,,65,109
155580,set_tempo,,,,,120,1,0,645161,,,,,,
155598,note_off,,,,,78,0,2,,,0,,,52,64
155600,note_on,,,,,2,0,2,,,0,,,53,84
155664,note_off,,,,,64,0,2,,,0,,,53,64
155680,note_on,,,,,16,0,2,,,0,,,53,72
155720,set_tempo,,,,,140,1,0,631579,,,,,,
155736,note_off,,,,,56,0,2,,,0,,,53,64
155760,note_on,,,,,24,0,2,,,0,,,53,85
155838,note_off,,,,,78,0,2,,,0,,,53,64
155840,note_on,,,,,2,0,2,,,0,,,53,77
155840,set_tempo,,,,,120,1,0,618557,,,,,,
155904,note_off,,,,,64,0,2,,,0,,,53,64
155920,note_on,,,,,16,0,2,,,0,,,53,65
155920,set_tempo,,,,,80,1,0,606061,,,,,,
155976,note_off,,,,,56,0,2,,,0,,,53,64
156000,note_on,,,,,24,0,2,,,0,,,53,85
156000,set_tempo,,,,,80,1,0,582524,,,,,,
156060,set_tempo,,,,,60,1,0,560748,,,,,,
156078,note_off,,,,,78,0,2,,,0,,,53,64
156080,note_on,,,,,2,0,2,,,0,,,53,82
156140,set_tempo,,,,,80,1,0,588235,,,,,,
156144,note_off,,,,,64,0,2,,,0,,,53,64
156160,note_on,,,,,16,0,2,,,0,,,53,70
156216,note_off,,,,,56,0,2,,,0,,,53,64
156230,control_change,,,,,14,0,2,,,0,64,0,,
156240,control_change,,,,,10,0,2,,,0,64,127,,
156240,note_off,,,,,720,0,1,,,0,,,46,64
156240,note_off,,,,,0,0,1,,,0,,,62,64
156240,note_off,,,,,0,0,1,,,0,,,74,64
156240,note_off,,,,,0,0,1,,,0,,,65,64
156240,note_on,,,,,0,0,1,,,0,,,65,95
156240,note_on,,,,,0,0,1,,,0,,,60,95
156240,note_on,,,,,0,0,1,,,0,,,46,95
156240,note_on,,,,,0,0,2,,,0,,,51,91
156240,note_on,,,,,0,0,1,,,0,,,72,95
156280,set_tempo,,,,,140,1,0,631579,,,,,,
156318,note_off,,,,,78,0,2,,,0,,,51,64
156320,note_on,,,,,2,0,2,,,0,,,53,86
156360,note_off,,,,,120,0,1,,,0,,,60,64
156360,note_off,,,,,0,0,1,,,0,,,65,64
156360,note_on,,,,,0,0,1,,,0,,,70,92
156360,note_on,,,,,0,0,1,,,0,,,65,92
156360,note_on,,,,,0,0,1,,,0,,,58,92
156360,note_off,,,,,0,0,1,,,0,,,72,64
156380,set_tempo,,,,,100,1,0,705882,,,,,,
156384,note_off,,,,,64,0,2,,,0,,,53,64
156400,note_on,,,,,16,0,2,,,0,,,50,73
156456,note_off,,,,,56,0,2,,,0,,,50,64
156460,set_tempo,,,,,80,1,0,769231,,,,,,
156470,control_change,,,,,14,0,2,,,0,64,0,,
156480,note_off,,,,,0,0,1,,,0,,,46,64
156480,note_off,,,,,120,0,1,,,0,,,58,64
156480,control_change,,,,,0,0,2,,,0,64,127,,
156480,note_off,,,,,0,0,1,,,0,,,70,64
156480,note_off,,,,,0,0,1,,,0,,,65,64
156480,note_on,,,,,0,0,1,,,0,,,72,101
156480,note_on,,,,,0,0,1,,,0,,,65,101
156480,note_on,,,,,0,0,1,,,0,,,60,101
156480,note_on,,,,,0,0,1,,,0,,,41,101
156480,note_on,,,,,10,0,2,,,0,,,51,106
156540,set_tempo,,,,,80,1,0,618557,,,,,,
156558,note_off,,,,,78,0,2,,,0,,,51,64
156560,set_tempo,,,,,20,1,0,588235,,,,,,
156560,note_on,,,,,2,0,2,,,0,,,53,84
156624,note_off,,,,,64,0,2,,,0,,,53,64
156640,note_on,,,,,16,0,2,,,0,,,53,72
156696,note_off,,,,,56,0,2,,,0,,,53,64
156710,control_change,,,,,14,0,2,,,0,64,0,,
156720,note_on,,,,,0,0,1,,,0,,,65,94
156720,control_change,,,,,10,0,2,,,0,64,127,,
156720,note_on,,,,,0,0,1,,,0,,,41,94
156720,note_on,,,,,0,0,1,,,0,,,60,94
156720,note_on,,,,,0,0,1,,,0,,,72,94
156720,note_off,,,,,0,0,1,,,0,,,72,64
156720,note_off,,,,,0,0,1,,,0,,,65,64
156720,note_off,,,,,0,0,1,,,0,,,60,64
156720,note_on,,,,,0,0,2,,,0,,,51,101
156720,note_off,,,,,240,0,1,,,0,,,41,64
156760,set_tempo,,,,,200,1,0,600000,,,,,,
156798,note_off,,,,,78,0,2,,,0,,,51,64
156800,note_on,,,,,2,0,2,,,0,,,53,86
156864,note_off,,,,,64,0,2,,,0,,,53,64
156880,note_on,,,,,16,0,2,,,0,,,53,73
156936,note_off,,,,,56,0,2,,,0,,,53,64
156950,control_change,,,,,14,0,2,,,0,64,0,,
156960,control_change,,,,,0,0,2,,,0,64,127,,
156960,note_on,,,,,10,0,2,,,0,,,51,98
156960,note_on,,,,,0,0,1,,,0,,,41,98
156960,note_on,,,,,0,0,1,,,0,,,60,98
156960,note_on,,,,,0,0,1,,,0,,,65,98
156960,note_off,,,,,0,0,1,,,0,,,72,64
156960,note_off,,,,,0,0,1,,,0,,,65,64
156960,note_off,,,,,0,0,1,,,0,,,60,64
156960,note_off,,,,,240,0,1,,,0,,,41,64
156960,note_on,,,,,0,0,1,,,0,,,72,98
157000,set_tempo,,,,,240,1,0,582524,,,,,,
157038,note_off,,,,,78,0,2,,,0,,,51,64
157040,note_on,,,,,2,0,2,,,0,,,53,82
157104,note_off,,,,,64,0,2,,,0,,,53,64
157120,note_on,,,,,16,0,2,,,0,,,53,70
157176,note_off,,,,,56,0,2,,,0,,,53,64
157190,control_change,,,,,14,0,2,,,0,64,0,,
157200,note_off,,,,,240,0,1,,,0,,,41,64
157200,note_off,,,,,0,0,1,,,0,,,60,64
157200,note_off,,,,,0,0,1,,,0,,,65,64
157200,note_off,,,,,0,0,1,,,0,,,72,64
157200,note_on,,,,,0,0,1,,,0,,,70,103
157200,note_on,,,,,0,0,1,,,0,,,65,103
157200,note_on,,,,,0,0,1,,,0,,,58,103
157200,note_on,,,,,0,0,1,,,0,,,41,103
157200,note_on,,,,,10,0,2,,,0,,,50,103
157200,control_change,,,,,0,0,2,,,0,64,127,,
157260,set_tempo,,,,,260,1,0,625000,,,,,,
157278,note_off,,,,,78,0,2,,,0,,,50,64
157280,note_on,,,,,2,0,2,,,0,,,51,83
157280,set_tempo,,,,,20,1,0,631579,,,,,,
157320,note_on,,,,,0,0,1,,,0,,,69,106
157320,note_on,,,,,0,0,1,,,0,,,65,106
157320,note_on,,,,,0,0,1,,,0,,,57,106
157320,note_off,,,,,0,0,1,,,0,,,70,64
157320,note_off,,,,,0,0,1,,,0,,,65,64
157320,note_off,,,,,120,0,1,,,0,,,58,64
157344,note_off,,,,,64,0,2,,,0,,,51,64
157360,note_on,,,,,16,0,2,,,0,,,48,70
157416,note_off,,,,,56,0,2,,,0,,,48,64
157430,control_change,,,,,14,0,2,,,0,64,0,,
157440,control_change,,,,,0,0,2,,,0,64,127,,
157440,note_on,,,,,10,0,2,,,0,,,50,106
157440,note_on,,,,,0,0,1,,,0,,,70,110
157440,note_off,,,,,120,0,1,,,0,,,57,64
157440,note_off,,,,,0,0,1,,,0,,,41,64
157440,note_off,,,,,0,0,1,,,0,,,69,64
157440,note_off,,,,,0,0,1,,,0,,,65,64
157440,set_tempo,,,,,160,1,0,566038,,,,,,
157440,note_on,,,,,0,0,1,,,0,,,58,110
157440,note_on,,,,,0,0,1,,,0,,,46,110
157440,note_on,,,,,0,0,1,,,0,,,65,110
157460,set_tempo,,,,,20,1,0,576923,,,,,,
157518,note_off,,,,,78,0,2,,,0,,,50,64
157520,note_on,,,,,2,0,2,,,0,,,53,84
157584,note_off,,,,,64,0,2,,,0,,,53,64
157600,note_on,,,,,16,0,2,,,0,,,53,72
157640,set_tempo,,,,,180,1,0,612245,,,,,,
157656,note_off,,,,,56,0,2,,,0,,,53,64
157670,control_change,,,,,14,0,2,,,0,64,0,,
157680,note_on,,,,,0,0,1,,,0,,,63,89
157680,note_off,,,,,240,0,1,,,0,,,65,64
157680,note_on,,,,,10,0,2,,,0,,,51,89
157680,note_on,,,,,0,0,1,,,0,,,67,89
157758,note_off,,,,,78,0,2,,,0,,,51,64
157760,note_on,,,,,2,0,2,,,0,,,55,81
157824,note_off,,,,,64,0,2,,,0,,,55,64
157840,note_on,,,,,16,0,2,,,0,,,55,69
157840,set_tempo,,,,,200,1,0,645161,,,,,,
157896,note_off,,,,,56,0,2,,,0,,,55,64
157920,note_on,,,,,24,0,2,,,0,,,50,82
157920,note_on,,,,,0,0,1,,,0,,,62,75
157920,note_on,,,,,0,0,1,,,0,,,65,75
157920,note_off,,,,,0,0,1,,,0,,,67,64
157920,note_off,,,,,240,0,1,,,0,,,63,64
157940,set_tempo,,,,,100,1,0,689655,,,,,,
157998,note_off,,,,,78,0,2,,,0,,,50,64
158000,note_on,,,,,2,0,2,,,0,,,53,79
158020,set_tempo,,,,,80,1,0,731707,,,,,,
158064,note_off,,,,,64,0,2,,,0,,,53,64
158080,note_on,,,,,16,0,2,,,0,,,53,67
158136,note_off,,,,,56,0,2,,,0,,,53,64
158160,note_on,,,,,0,0,1,,,0,,,65,101
158160,note_on,,,,,0,0,1,,,0,,,74,101
158160,note_off,,,,,0,0,1,,,0,,,70,64
158160,note_off,,,,,0,0,1,,,0,,,58,64
158160,note_off,,,,,0,0,1,,,0,,,46,64
158160,note_off,,,,,0,0,1,,,0,,,65,64
158160,note_off,,,,,240,0,1,,,0,,,62,64
158160,note_on,,,,,0,0,1,,,0,,,44,109
158160,control_change,,,,,24,0,2,,,0,64,127,,
158160,note_on,,,,,0,0,2,,,0,,,50,91
158160,note_on,,,,,0,0,1,,,0,,,62,101
158160,set_tempo,,,,,140,1,0,566038,,,,,,
158238,note_off,,,,,78,0,2,,,0,,,50,64
158240,note_on,,,,,2,0,2,,,0,,,53,83
158304,note_off,,,,,64,0,2,,,0,,,53,64
158320,note_on,,,,,16,0,2,,,0,,,53,70
158320,set_tempo,,,,,160,1,0,750000,,,,,,
158376,note_off,,,,,56,0,2,,,0,,,53,64
158390,control_change,,,,,0,0,2,,,0,64,0,,
158390,control_change,,,,,14,0,2,,,0,64,0,,
158400,set_tempo,,,,,80,1,0,618557,,,,,,
158400,note_on,,,,,0,0,2,,,0,,,53,106
158400,control_change,,,,,10,0,2,,,0,64,127,,
158400,note_on,,,,,0,0,1,,,0,,,43,104
158400,note_off,,,,,0,0,1,,,0,,,74,64
158400,note_on,,,,,0,0,1,,,0,,,62,104
158400,note_on,,,,,0,0,1,,,0,,,67,104
158400,note_off,,,,,240,0,1,,,0,,,44,64
158400,note_off,,,,,0,0,1,,,0,,,62,64
158400,note_off,,,,,0,0,1,,,0,,,65,64
158400,note_on,,,,,0,0,1,,,0,,,53,104
158400,note_on,,,,,0,0,1,,,0,,,74,104
158478,note_off,,,,,78,0,2,,,0,,,53,64
158480,note_on,,,,,2,0,2,,,0,,,55,84
158544,note_off,,,,,64,0,2,,,0,,,55,64
158560,note_on,,,,,16,0,2,,,0,,,55,72
158616,note_off,,,,,56,0,2,,,0,,,55,64
158620,set_tempo,,,,,220,1,0,571429,,,,,,
158640,note_on,,,,,24,0,2,,,0,,,53,85
158718,note_off,,,,,78,0,2,,,0,,,53,64
158720,note_on,,,,,2,0,2,,,0,,,55,77
158784,note_off,,,,,64,0,2,,,0,,,55,64
158800,note_on,,,,,16,0,2,,,0,,,55,65
158856,note_off,,,,,56,0,2,,,0,,,55,64
158880,note_on,,,,,24,0,2,,,0,,,53,75
158958,note_off,,,,,78,0,2,,,0,,,53,64
158960,note_on,,,,,2,0,2,,,0,,,55,78
159024,note_off,,,,,64,0,2,,,0,,,55,64
159040,note_on,,,,,16,0,2,,,0,,,55,66
159040,set_tempo,,,,,420,1,0,560748,,,,,,
159096,note_off,,,,,56,0,2,,,0,,,55,64
159110,control_change,,,,,0,0,2,,,0,64,0,,
159110,control_change,,,,,14,0,2,,,0,64,0,,
159120,note_on,,,,,10,0,2,,,0,,,51,80
159120,note_on,,,,,0,0,1,,,0,,,43,86
159120,note_off,,,,,720,0,1,,,0,,,43,64
159120,note_off,,,,,0,0,1,,,0,,,53,64
159120,note_off,,,,,0,0,1,,,0,,,62,64
159120,note_off,,,,,0,0,1,,,0,,,67,64
159120,note_off,,,,,0,0,1,,,0,,,74,64
159120,note_on,,,,,0,0,1,,,0,,,72,86
159120,note_on,,,,,0,0,1,,,0,,,67,86
159120,note_on,,,,,0,0,1,,,0,,,60,86
159120,control_change,,,,,0,0,2,,,0,64,127,,
159198,note_off,,,,,78,0,2,,,0,,,51,64
159200,note_on,,,,,2,0,2,,,0,,,53,81
159240,note_off,,,,,0,0,1,,,0,,,67,64
159240,note_off,,,,,0,0,1,,,0,,,72,64
159240,note_on,,,,,0,0,1,,,0,,,71,94
159240,note_on,,,,,0,0,1,,,0,,,67,94
159240,note_on,,,,,0,0,1,,,0,,,59,94
159240,note_on,,,,,0,0,1,,,0,,,43,94
159240,note_off,,,,,0,0,1,,,0,,,60,64
159240,note_off,,,,,120,0,1,,,0,,,43,64
159264,note_off,,,,,64,0,2,,,0,,,53,64
159280,note_on,,,,,16,0,2,,,0,,,50,69
159320,control_change,,,,,40,0,2,,,0,64,0,,
159336,note_off,,,,,16,0,2,,,0,,,50,64
159350,control_change,,,,,14,0,2,,,0,64,0,,
159360,control_change,,,,,10,0,2,,,0,64,127,,
159360,note_on,,,,,0,0,2,,,0,,,48,91
159360,note_off,,,,,120,0,1,,,0,,,43,64
159360,note_off,,,,,0,0,1,,,0,,,59,64
159360,note_on,,,,,0,0,1,,,0,,,63,97
159360,note_on,,,,,0,0,1,,,0,,,72,97
159360,note_on,,,,,0,0,1,,,0,,,75,97
159360,note_off,,,,,0,0,1,,,0,,,71,64
159360,note_off,,,,,0,0,1,,,0,,,67,64
159360,note_on,,,,,0,0,1,,,0,,,43,97
159380,set_tempo,,,,,340,1,0,588235,,,,,,
159438,note_off,,,,,78,0,2,,,0,,,48,64
159440,note_on,,,,,2,0,2,,,0,,,55,86
159504,note_off,,,,,64,0,2,,,0,,,55,64
159520,note_on,,,,,16,0,2,,,0,,,55,73
159576,note_off,,,,,56,0,2,,,0,,,55,64
159590,control_change,,,,,14,0,2,,,0,64,0,,
159590,control_change,,,,,0,0,2,,,0,64,0,,
159600,control_change,,,,,0,0,2,,,0,64,127,,
159600,note_on,,,,,0,0,1,,,0,,,67,91
159600,note_on,,,,,0,0,1,,,0,,,74,91
159600,note_off,,,,,0,0,1,,,0,,,75,64
159600,note_off,,,,,0,0,1,,,0,,,72,64
159600,note_off,,,,,0,0,1,,,0,,,63,64
159600,note_on,,,,,10,0,2,,,0,,,53,91
159600,note_on,,,,,0,0,1,,,0,,,62,91
159600,note_on,,,,,0,0,1,,,0,,,43,91
159600,note_off,,,,,240,0,1,,,0,,,43,64
159620,set_tempo,,,,,240,1,0,631579,,,,,,
159678,note_off,,,,,78,0,2,,,0,,,53,64
159680,note_on,,,,,2,0,2,,,0,,,55,83
159744,note_off,,,,,64,0,2,,,0,,,55,64
159760,note_on,,,,,16,0,2,,,0,,,55,71
159816,note_off,,,,,56,0,2,,,0,,,55,64
159830,control_change,,,,,14,0,2,,,0,64,0,,
159830,control_change,,,,,0,0,2,,,0,64,0,,
159840,note_off,,,,,240,0,1,,,0,,,43,64
159840,note_off,,,,,0,0,1,,,0,,,62,64
159840,note_off,,,,,0,0,1,,,0,,,67,64
159840,note_on,,,,,0,0,1,,,0,,,60,83
159840,note_on,,,,,0,0,1,,,0,,,67,83
159840,note_on,,,,,0,0,2,,,0,,,51,86
159840,note_off,,,,,0,0,1,,,0,,,74,64
159840,note_on,,,,,0,0,1,,,0,,,72,83
159840,control_change,,,,,10,0,2,,,0,64,127,,
159840,note_on,,,,,0,0,1,,,0,,,43,83
159918,note_off,,,,,78,0,2,,,0,,,51,64
159920,note_on,,,,,2,0,2,,,0,,,55,81
159920,set_tempo,,,,,300,1,0,652174,,,,,,
159980,set_tempo,,,,,60,1,0,659341,,,,,,
159984,note_off,,,,,64,0,2,,,0,,,55,64
160000,note_on,,,,,16,0,2,,,0,,,55,69
160000,set_tempo,,,,,20,1,0,645161,,,,,,
160020,set_tempo,,,,,20,1,0,789474,,,,,,
160056,note_off,,,,,56,0,2,,,0,,,55,64
160070,control_change,,,,,14,0,2,,,0,64,0,,
160070,control_change,,,,,0,0,2,,,0,64,0,,
160080,note_off,,,,,0,0,1,,,0,,,60,64
160080,note_on,,,,,0,0,1,,,0,,,72,88
160080,note_on,,,,,0,0,1,,,0,,,69,88
160080,note_off,,,,,0,0,1,,,0,,,67,64
160080,note_off,,,,,0,0,1,,,0,,,72,64
160080,control_change,,,,,10,0,2,,,0,64,127,,
160080,note_on,,,,,0,0,2,,,0,,,51,85
160080,note_off,,,,,240,0,1,,,0,,,43,64
160080,note_on,,,,,0,0,1,,,0,,,42,88
160080,note_on,,,,,0,0,1,,,0,,,60,88
160120,set_tempo,,,,,100,1,0,588235,,,,,,
160158,note_off,,,,,78,0,2,,,0,,,51,64
160160,note_on,,,,,2,0,2,,,0,,,54,81
160160,set_tempo,,,,,40,1,0,582524,,,,,,
160224,note_off,,,,,64,0,2,,,0,,,54,64
160240,note_on,,,,,16,0,2,,,0,,,54,69
160260,set_tempo,,,,,100,1,0,588235,,,,,,
160280,set_tempo,,,,,20,1,0,779221,,,,,,
160296,note_off,,,,,56,0,2,,,0,,,54,64
160310,control_change,,,,,0,0,2,,,0,64,0,,
160310,control_change,,,,,14,0,2,,,0,64,0,,
160320,note_on,,,,,0,0,2,,,0,,,51,92
160320,control_change,,,,,10,0,2,,,0,64,127,,
160320,note_off,,,,,240,0,1,,,0,,,42,64
160320,note_off,,,,,0,0,1,,,0,,,60,64
160320,note_on,,,,,0,0,1,,,0,,,41,94
160320,note_off,,,,,0,0,1,,,0,,,69,64
160320,note_on,,,,,0,0,1,,,0,,,60,94
160320,note_on,,,,,0,0,1,,,0,,,65,94
160320,note_off,,,,,0,0,1,,,0,,,72,64
160320,note_on,,,,,0,0,1,,,0,,,51,94
160320,note_on,,,,,0,0,1,,,0,,,72,94
160380,set_tempo,,,,,100,1,0,631579,,,,,,
160398,note_off,,,,,78,0,2,,,0,,,51,64
160400,note_on,,,,,2,0,2,,,0,,,53,85
160464,note_off,,,,,64,0,2,,,0,,,53,64
160480,set_tempo,,,,,100,1,0,618557,,,,,,
160480,note_on,,,,,16,0,2,,,0,,,53,73
160536,note_off,,,,,56,0,2,,,0,,,53,64
160560,note_on,,,,,24,0,2,,,0,,,51,85
160638,note_off,,,,,78,0,2,,,0,,,51,64
160640,set_tempo,,,,,160,1,0,606061,,,,,,
160640,note_on,,,,,2,0,2,,,0,,,53,80
160704,note_off,,,,,64,0,2,,,0,,,53,64
160720,note_on,,,,,16,0,2,,,0,,,53,68
160760,set_tempo,,,,,120,1,0,582524,,,,,,
160776,note_off,,,,,56,0,2,,,0,,,53,64
160800,note_on,,,,,24,0,2,,,0,,,51,82
160878,note_off,,,,,78,0,2,,,0,,,51,64
160880,note_on,,,,,2,0,2,,,0,,,53,80
160944,note_off,,,,,64,0,2,,,0,,,53,64
160960,note_on,,,,,16,0,2,,,0,,,53,68
161016,note_off,,,,,56,0,2,,,0,,,53,64
161030,control_change,,,,,14,0,2,,,0,64,0,,
161040,note_on,,,,,10,0,2,,,0,,,50,85
161040,control_change,,,,,0,0,2,,,0,64,127,,
161040,note_off,,,,,0,0,1,,,0,,,72,64
161040,note_off,,,,,720,0,1,,,0,,,41,64
161040,note_on,,,,,0,0,1,,,0,,,41,80
161040,note_on,,,,,0,0,1,,,0,,,65,80
161040,note_on,,,,,0,0,1,,,0,,,70,80
161040,note_off,,,,,0,0,1,,,0,,,51,64
161040,note_on,,,,,0,0,1,,,0,,,58,80
161040,note_off,,,,,0,0,1,,,0,,,60,64
161040,note_off,,,,,0,0,1,,,0,,,65,64
161118,note_off,,,,,78,0,2,,,0,,,50,64
161120,note_on,,,,,2,0,2,,,0,,,51,82
161160,note_on,,,,,0,0,1,,,0,,,41,86
161160,note_on,,,,,0,0,1,,,0,,,57,86
161160,note_on,,,,,0,0,1,,,0,,,65,86
161160,note_on,,,,,0,0,1,,,0,,,69,86
161160,note_off,,,,,0,0,1,,,0,,,70,64
161160,note_off,,,,,0,0,1,,,0,,,65,64
161160,note_off,,,,,0,0,1,,,0,,,58,64
161160,note_off,,,,,120,0,1,,,0,,,41,64
161184,note_off,,,,,64,0,2,,,0,,,51,64
161200,note_on,,,,,16,0,2,,,0,,,48,70
161256,note_off,,,,,56,0,2,,,0,,,48,64
161270,control_change,,,,,14,0,2,,,0,64,0,,
161280,note_off,,,,,120,0,1,,,0,,,41,64
161280,note_on,,,,,10,0,2,,,0,,,46,88
161280,note_on,,,,,0,0,1,,,0,,,41,94
161280,note_on,,,,,0,0,1,,,0,,,62,94
161280,control_change,,,,,0,0,2,,,0,64,127,,
161280,note_on,,,,,0,0,1,,,0,,,74,94
161280,note_off,,,,,0,0,1,,,0,,,69,64
161280,note_on,,,,,0,0,1,,,0,,,70,94
161280,note_off,,,,,0,0,1,,,0,,,57,64
161280,note_off,,,,,0,0,1,,,0,,,65,64
161358,note_off,,,,,78,0,2,,,0,,,46,64
161360,note_on,,,,,2,0,2,,,0,,,53,81
161424,note_off,,,,,64,0,2,,,0,,,53,64
161440,note_on,,,,,16,0,2,,,0,,,53,68
161496,note_off,,,,,56,0,2,,,0,,,53,64
161510,control_change,,,,,14,0,2,,,0,64,0,,
161520,note_on,,,,,0,0,1,,,0,,,57,83
161520,control_change,,,,,0,0,2,,,0,64,127,,
161520,note_on,,,,,0,0,1,,,0,,,65,83
161520,note_off,,,,,240,0,1,,,0,,,41,64
161520,note_off,,,,,0,0,1,,,0,,,62,64
161520,note_off,,,,,0,0,1,,,0,,,70,64
161520,note_off,,,,,0,0,1,,,0,,,74,64
161520,note_on,,,,,0,0,1,,,0,,,69,83
161520,note_on,,,,,10,0,2,,,0,,,48,82
161520,note_on,,,,,0,0,1,,,0,,,41,83
161598,note_off,,,,,78,0,2,,,0,,,48,64
161600,note_on,,,,,2,0,2,,,0,,,53,80
161664,note_off,,,,,64,0,2,,,0,,,53,64
161680,note_on,,,,,16,0,2,,,0,,,53,68
161736,note_off,,,,,56,0,2,,,0,,,53,64
161750,control_change,,,,,14,0,2,,,0,64,0,,
161760,note_on,,,,,0,0,1,,,0,,,41,92
161760,note_on,,,,,0,0,1,,,0,,,70,92
161760,note_off,,,,,0,0,1,,,0,,,69,64
161760,note_off,,,,,0,0,1,,,0,,,65,64
161760,note_off,,,,,0,0,1,,,0,,,57,64
161760,note_off,,,,,240,0,1,,,0,,,41,64
161760,note_on,,,,,0,0,1,,,0,,,58,92
161760,note_on,,,,,10,0,2,,,0,,,50,82
161760,control_change,,,,,0,0,2,,,0,64,127,,
161760,note_on,,,,,0,0,1,,,0,,,65,92
161838,note_off,,,,,78,0,2,,,0,,,50,64
161840,note_on,,,,,2,0,2,,,0,,,53,81
161904,note_off,,,,,64,0,2,,,0,,,53,64
161920,note_on,,,,,16,0,2,,,0,,,53,68
161976,note_off,,,,,56,0,2,,,0,,,53,64
161990,control_change,,,,,14,0,2,,,0,64,0,,
162000,note_on,,,,,10,0,2,,,0,,,51,88
162000,control_change,,,,,0,0,2,,,0,64,127,,
162000,note_off,,,,,0,0,1,,,0,,,58,64
162000,note_off,,,,,0,0,1,,,0,,,65,64
162000,note_off,,,,,240,0,1,,,0,,,41,64
162000,note_off,,,,,0,0,1,,,0,,,70,64
162000,note_on,,,,,0,0,1,,,0,,,72,101
162000,note_on,,,,,0,0,1,,,0,,,69,101
162000,note_on,,,,,0,0,1,,,0,,,65,101
162000,note_on,,,,,0,0,1,,,0,,,60,101
162000,note_on,,,,,0,0,1,,,0,,,41,109
162078,note_off,,,,,78,0,2,,,0,,,51,64
162080,note_on,,,,,2,0,2,,,0,,,53,84
162144,note_off,,,,,64,0,2,,,0,,,53,64
162160,note_on,,,,,16,0,2,,,0,,,53,72
162180,set_tempo,,,,,1420,1,0,631579,,,,,,
162216,note_off,,,,,56,0,2,,,0,,,53,64
162230,control_change,,,,,14,0,2,,,0,64,0,,
162240,note_on,,,,,0,0,1,,,0,,,60,107
162240,control_change,,,,,0,0,2,,,0,91,96,,
162240,control_change,,,,,10,0,2,,,0,64,127,,
162240,note_on,,,,,0,0,2,,,0,,,51,88
162240,note_on,,,,,0,0,1,,,0,,,65,107
162240,control_change,,,,,0,0,2,,,0,64,127,,
162240,note_on,,,,,0,0,1,,,0,,,51,107
162240,note_off,,,,,240,0,1,,,0,,,41,64
162240,note_off,,,,,0,0,1,,,0,,,60,64
162240,note_off,,,,,0,0,1,,,0,,,65,64
162240,note_off,,,,,0,0,1,,,0,,,69,64
162240,note_off,,,,,0,0,1,,,0,,,72,64
162240,note_on,,,,,0,0,1,,,0,,,72,107
162240,note_on,,,,,0,0,1,,,0,,,69,107
162240,note_on,,,,,0,0,1,,,0,,,41,107
162318,note_off,,,,,78,0,2,,,0,,,51,64
162320,note_on,,,,,2,0,2,,,0,,,53,84
162320,set_tempo,,,,,140,1,0,606061,,,,,,
162384,note_off,,,,,64,0,2,,,0,,,53,64
162400,note_on,,,,,16,0,2,,,0,,,53,72
162456,note_off,,,,,56,0,2,,,0,,,53,64
162480,note_on,,,,,24,0,2,,,0,,,53,68
162520,set_tempo,,,,,200,1,0,576923,,,,,,
162558,note_off,,,,,78,0,2,,,0,,,53,64
162560,note_on,,,,,2,0,2,,,0,,,53,62
162624,note_off,,,,,64,0,2,,,0,,,53,64
162640,note_on,,,,,16,0,2,,,0,,,53,54
162696,note_off,,,,,56,0,2,,,0,,,53,64
162720,note_on,,,,,24,0,2,,,0,,,53,54
162798,note_off,,,,,78,0,2,,,0,,,53,64
162800,note_on,,,,,2,0,2,,,0,,,53,54
162864,note_off,,,,,64,0,2,,,0,,,53,64
162880,note_on,,,,,16,0,2,,,0,,,53,55
162920,set_tempo,,,,,400,1,0,600000,,,,,,
162936,note_off,,,,,56,0,2,,,0,,,53,64
162960,note_on,,,,,24,0,2,,,0,,,53,60
162980,set_tempo,,,,,60,1,0,588235,,,,,,
163020,set_tempo,,,,,40,1,0,582524,,,,,,
163038,note_off,,,,,78,0,2,,,0,,,53,64
163040,note_on,,,,,2,0,2,,,0,,,53,64
163080,set_tempo,,,,,60,1,0,652174,,,,,,
163104,note_off,,,,,64,0,2,,,0,,,53,64
163120,note_on,,,,,16,0,2,,,0,,,53,67
163176,note_off,,,,,56,0,2,,,0,,,53,64
163180,set_tempo,,,,,100,1,0,689655,,,,,,
163190,control_change,,,,,14,0,2,,,0,64,0,,
163200,note_on,,,,,0,0,1,,,0,,,71,68
163200,note_on,,,,,0,0,1,,,0,,,68,68
163200,note_on,,,,,0,0,1,,,0,,,59,68
163200,note_on,,,,,0,0,1,,,0,,,41,68
163200,control_change,,,,,10,0,2,,,0,64,127,,
163200,note_off,,,,,0,0,1,,,0,,,72,64
163200,note_on,,,,,0,0,1,,,0,,,50,68
163200,note_off,,,,,0,0,1,,,0,,,69,64
163200,note_off,,,,,0,0,1,,,0,,,60,64
163200,note_off,,,,,0,0,1,,,0,,,51,64
163200,note_off,,,,,960,0,1,,,0,,,41,64
163200,note_on,,,,,0,0,2,,,0,,,50,68
163220,set_tempo,,,,,40,1,0,789474,,,,,,
163278,note_off,,,,,78,0,2,,,0,,,50,64
163280,note_on,,,,,2,0,2,,,0,,,53,62
163300,set_tempo,,,,,80,1,0,769231,,,,,,
163320,set_tempo,,,,,20,1,0,705882,,,,,,
163360,note_off,,,,,80,0,2,,,0,,,53,64
163360,note_on,,,,,0,0,2,,,0,,,53,58
163400,set_tempo,,,,,80,1,0,689655,,,,,,
163420,set_tempo,,,,,20,1,0,674157,,,,,,
163440,note_on,,,,,0,0,2,,,0,,,53,55
163440,note_off,,,,,80,0,2,,,0,,,53,64
163480,set_tempo,,,,,60,1,0,652174,,,,,,
163520,note_off,,,,,80,0,2,,,0,,,53,64
163520,note_on,,,,,0,0,2,,,0,,,53,51
163560,set_tempo,,,,,80,1,0,625000,,,,,,
163600,note_off,,,,,80,0,2,,,0,,,53,64
163600,note_on,,,,,0,0,2,,,0,,,53,49
163680,note_off,,,,,80,0,2,,,0,,,53,64
163680,note_on,,,,,0,0,2,,,0,,,53,49
163760,note_off,,,,,80,0,2,,,0,,,53,64
163760,note_on,,,,,0,0,2,,,0,,,53,49
163840,note_on,,,,,0,0,2,,,0,,,53,49
163840,note_off,,,,,80,0,2,,,0,,,53,64
163910,control_change,,,,,70,0,2,,,0,64,0,,
163920,control_change,,,,,0,0,2,,,0,64,127,,
163920,note_on,,,,,0,0,2,,,0,,,53,54
163920,note_on,,,,,0,0,1,,,0,,,65,88
163920,note_on,,,,,0,0,1,,,0,,,68,88
163920,note_on,,,,,0,0,1,,,0,,,71,88
163920,note_off,,,,,0,0,1,,,0,,,65,64
163920,note_off,,,,,0,0,1,,,0,,,71,64
163920,note_off,,,,,0,0,1,,,0,,,68,64
163920,note_off,,,,,720,0,1,,,0,,,59,64
163920,note_off,,,,,10,0,2,,,0,,,53,64
163920,note_on,,,,,0,0,1,,,0,,,62,88
163940,set_tempo,,,,,380,1,0,631579,,,,,,
164000,note_off,,,,,80,0,2,,,0,,,53,64
164000,note_on,,,,,0,0,2,,,0,,,53,62
164080,note_on,,,,,0,0,2,,,0,,,53,74
164080,note_off,,,,,80,0,2,,,0,,,53,64
164100,set_tempo,,,,,160,1,0,857143,,,,,,
164150,control_change,,,,,70,0,2,,,0,64,0,,
164160,note_off,,,,,0,0,1,,,0,,,71,64
164160,note_on,,,,,0,0,2,,,0,,,53,91
164160,note_off,,,,,240,0,1,,,0,,,62,64
164160,note_off,,,,,10,0,2,,,0,,,53,64
164160,note_off,,,,,0,0,1,,,0,,,68,64
164160,note_off,,,,,0,0,1,,,0,,,41,64
164160,note_off,,,,,0,0,1,,,0,,,50,64
164160,note_on,,,,,0,0,1,,,0,,,71,77
164160,note_on,,,,,0,0,1,,,0,,,68,77
164160,note_on,,,,,0,0,1,,,0,,,65,77
164160,note_off,,,,,0,0,1,,,0,,,65,64
164160,control_change,,,,,0,0,2,,,0,64,127,,
164160,note_on,,,,,0,0,1,,,0,,,62,77
164200,set_tempo,,,,,100,1,0,869565,,,,,,
164240,note_on,,,,,0,0,2,,,0,,,44,72
164240,note_off,,,,,80,0,2,,,0,,,53,64
164260,set_tempo,,,,,60,1,0,666667,,,,,,
164320,note_on,,,,,0,0,2,,,0,,,44,60
164320,note_off,,,,,80,0,2,,,0,,,44,64
164360,set_tempo,,,,,100,1,0,674157,,,,,,
164400,note_on,,,,,0,0,2,,,0,,,44,51
164400,note_off,,,,,80,0,2,,,0,,,44,64
164480,note_off,,,,,80,0,2,,,0,,,44,64
164480,note_on,,,,,0,0,2,,,0,,,44,47
164500,set_tempo,,,,,140,1,0,659341,,,,,,
164560,note_on,,,,,0,0,2,,,0,,,44,45
164560,note_off,,,,,80,0,2,,,0,,,44,64
164640,note_on,,,,,0,0,2,,,0,,,44,44
164640,note_off,,,,,80,0,2,,,0,,,44,64
164720,note_on,,,,,0,0,2,,,0,,,44,43
164720,note_off,,,,,80,0,2,,,0,,,44,64
164740,set_tempo,,,,,240,1,0,705882,,,,,,
164760,set_tempo,,,,,20,1,0,689655,,,,,,
164800,note_on,,,,,0,0,2,,,0,,,44,46
164800,note_off,,,,,80,0,2,,,0,,,44,64
164870,control_change,,,,,70,0,2,,,0,64,0,,
164880,note_off,,,,,0,0,1,,,0,,,71,64
164880,note_off,,,,,720,0,1,,,0,,,62,64
164880,note_off,,,,,0,0,1,,,0,,,65,64
164880,note_off,,,,,0,0,1,,,0,,,68,64
164880,control_change,,,,,0,0,2,,,0,64,127,,
164880,note_on,,,,,0,0,2,,,0,,,44,66
164880,note_on,,,,,0,0,1,,,0,,,65,86
164880,note_on,,,,,0,0,1,,,0,,,68,86
164880,note_on,,,,,0,0,1,,,0,,,71,86
164880,note_on,,,,,0,0,1,,,0,,,74,86
164880,note_off,,,,,10,0,2,,,0,,,44,64
164920,set_tempo,,,,,160,1,0,722892,,,,,,
164960,note_off,,,,,80,0,2,,,0,,,44,64
164960,note_on,,,,,0,0,2,,,0,,,44,77
165040,note_on,,,,,0,0,2,,,0,,,44,94
165040,note_off,,,,,80,0,2,,,0,,,44,64
165080,set_tempo,,,,,160,1,0,1111111,,,,,,
165110,control_change,,,,,70,0,2,,,0,64,0,,
165120,note_off,,,,,10,0,2,,,0,,,44,64
165120,note_on,,,,,0,0,2,,,0,,,44,106
165120,control_change,,,,,0,0,2,,,0,64,127,,
165120,note_off,,,,,240,0,1,,,0,,,65,64
165120,note_off,,,,,0,0,1,,,0,,,68,64
165120,note_off,,,,,0,0,1,,,0,,,71,64
165120,note_off,,,,,0,0,1,,,0,,,74,64
165120,note_on,,,,,0,0,1,,,0,,,74,114
165120,note_on,,,,,0,0,1,,,0,,,71,114
165120,note_on,,,,,0,0,1,,,0,,,68,114
165120,note_on,,,,,0,0,1,,,0,,,65,114
165200,set_tempo,,,,,120,1,0,789474,,,,,,
165200,note_off,,,,,80,0,2,,,0,,,44,64
165200,note_on,,,,,0,0,2,,,0,,,37,86
165220,set_tempo,,,,,20,1,0,689655,,,,,,
165240,set_tempo,,,,,20,1,0,681818,,,,,,
165280,note_off,,,,,80,0,2,,,0,,,37,64
165280,note_on,,,,,0,0,2,,,0,,,37,76
165300,set_tempo,,,,,60,1,0,674157,,,,,,
165340,set_tempo,,,,,40,1,0,659341,,,,,,
165360,note_off,,,,,80,0,2,,,0,,,37,64
165360,note_on,,,,,0,0,2,,,0,,,37,76
165420,set_tempo,,,,,80,1,0,645161,,,,,,
165440,note_off,,,,,80,0,2,,,0,,,37,64
165440,note_on,,,,,0,0,2,,,0,,,37,62
165520,note_off,,,,,80,0,2,,,0,,,37,64
165520,note_on,,,,,0,0,2,,,0,,,37,57
165560,set_tempo,,,,,140,1,0,625000,,,,,,
165600,note_on,,,,,0,0,2,,,0,,,37,57
165600,set_tempo,,,,,40,1,0,789474,,,,,,
165600,note_off,,,,,80,0,2,,,0,,,37,64
165600,note_off,,,,,480,0,1,,,0,,,74,64
165600,note_on,,,,,0,0,1,,,0,,,73,81
165680,note_on,,,,,0,0,2,,,0,,,37,64
165680,note_off,,,,,80,0,2,,,0,,,37,64
165700,set_tempo,,,,,100,1,0,681818,,,,,,
165720,note_off,,,,,120,0,1,,,0,,,73,64
165720,note_off,,,,,0,0,1,,,0,,,65,64
165720,note_off,,,,,0,0,1,,,0,,,68,64
165720,note_off,,,,,0,0,1,,,0,,,71,64
165760,set_tempo,,,,,60,1,0,645161,,,,,,
165760,note_on,,,,,0,0,2,,,0,,,37,76
165760,note_off,,,,,80,0,2,,,0,,,37,64
165830,control_change,,,,,70,0,2,,,0,64,0,,
165840,note_on,,,,,120,0,1,,,0,,,77,118
165840,note_on,,,,,0,0,2,,,0,,,37,93
165840,note_on,,,,,0,0,1,,,0,,,71,118
165840,note_on,,,,,0,0,1,,,0,,,68,118
165840,note_off,,,,,10,0,2,,,0,,,37,64
165840,note_on,,,,,0,0,1,,,0,,,73,118
165880,set_tempo,,,,,120,1,0,869565,,,,,,
165900,note_on,,,,,0,0,2,,,0,,,35,105
165900,note_off,,,,,60,0,2,,,0,,,37,64
165960,note_on,,,,,0,0,2,,,0,,,33,116
165960,note_off,,,,,60,0,2,,,0,,,35,64
165960,note_off,,,,,0,0,1,,,0,,,77,64
165960,note_off,,,,,0,0,1,,,0,,,73,64
165960,note_off,,,,,0,0,1,,,0,,,71,64
165960,note_off,,,,,120,0,1,,,0,,,68,64
166000,set_tempo,,,,,120,1,0,967742,,,,,,
166020,note_on,,,,,0,0,2,,,0,,,32,121
166020,note_off,,,,,60,0,2,,,0,,,33,64
166080,note_on,,,,,120,0,1,,,0,,,78,124
166080,set_tempo,,,,,80,1,0,800000,,,,,,
166080,control_change,,,,,0,0,2,,,0,64,127,,
166080,note_off,,,,,60,0,2,,,0,,,32,64
166080,note_on,,,,,0,0,1,,,0,,,69,124
166080,note_on,,,,,0,0,1,,,0,,,73,124
166080,note_on,,,,,0,0,2,,,0,,,30,127
166140,set_tempo,,,,,60,1,0,731707,,,,,,
166160,note_on,,,,,0,0,1,,,0,,,73,77
166160,note_off,,,,,80,0,1,,,0,,,69,64
166160,note_off,,,,,0,0,1,,,0,,,73,64
166160,note_off,,,,,0,0,1,,,0,,,78,64
166160,note_on,,,,,0,0,1,,,0,,,69,77
166200,note_off,,,,,120,0,2,,,0,,,30,64
166240,note_on,,,,,0,0,1,,,0,,,69,64
166240,note_on,,,,,0,0,1,,,0,,,73,64
166240,note_off,,,,,80,0,1,,,0,,,69,64
166240,note_off,,,,,0,0,1,,,0,,,73,64
166260,set_tempo,,,,,120,1,0,652174,,,,,,
166320,note_on,,,,,0,0,1,,,0,,,69,54
166320,note_off,,,,,0,0,1,,,0,,,73,64
166320,note_off,,,,,80,0,1,,,0,,,69,64
166320,set_tempo,,,,,60,1,0,645161,,,,,,
166320,note_on,,,,,0,0,1,,,0,,,73,54
166400,note_on,,,,,0,0,1,,,0,,,69,46
166400,note_off,,,,,0,0,1,,,0,,,73,64
166400,note_on,,,,,0,0,1,,,0,,,73,46
166400,note_off,,,,,80,0,1,,,0,,,69,64
166440,set_tempo,,,,,120,1,0,600000,,,,,,
166480,note_off,,,,,80,0,1,,,0,,,69,64
166480,note_off,,,,,0,0,1,,,0,,,73,64
166480,note_on,,,,,0,0,1,,,0,,,73,40
166480,note_on,,,,,0,0,1,,,0,,,69,40
166520,set_tempo,,,,,80,1,0,566038,,,,,,
166560,note_off,,,,,80,0,1,,,0,,,69,64
166560,note_on,,,,,0,0,1,,,0,,,73,39
166560,note_on,,,,,0,0,1,,,0,,,69,39
166560,note_off,,,,,0,0,1,,,0,,,73,64
166600,set_tempo,,,,,80,1,0,530973,,,,,,
166640,note_off,,,,,0,0,1,,,0,,,73,64
166640,note_on,,,,,0,0,1,,,0,,,73,36
166640,note_off,,,,,80,0,1,,,0,,,69,64
166640,set_tempo,,,,,40,1,0,540541,,,,,,
166640,note_on,,,,,0,0,1,,,0,,,69,36
166660,set_tempo,,,,,20,1,0,526316,,,,,,
166720,note_off,,,,,80,0,1,,,0,,,69,64
166720,note_on,,,,,0,0,1,,,0,,,69,32
166720,note_on,,,,,0,0,1,,,0,,,73,32
166720,note_off,,,,,0,0,1,,,0,,,73,64
166800,note_off,,,,,80,0,1,,,0,,,69,64
166800,note_off,,,,,0,0,1,,,0,,,73,64
166800,note_on,,,,,600,0,2,,,0,,,54,44
166800,control_change,,,,,0,0,2,,,0,64,0,,
166800,note_on,,,,,0,0,2,,,0,,,61,44
166800,note_on,,,,,110520,0,3,,,0,,,78,42
166880,note_on,,,,,80,0,1,,,0,,,73,33
166880,note_on,,,,,0,0,1,,,0,,,69,33
166960,note_on,,,,,0,0,1,,,0,,,73,32
166960,note_off,,,,,0,0,1,,,0,,,73,64
166960,note_on,,,,,0,0,1,,,0,,,69,32
166960,note_off,,,,,80,0,1,,,0,,,69,64
166980,note_off,,,,,180,0,2,,,0,,,61,64
166980,note_off,,,,,0,0,2,,,0,,,54,64
166980,note_off,,,,,180,0,3,,,0,,,78,64
167040,note_on,,,,,60,0,3,,,0,,,78,50
167040,note_off,,,,,0,0,1,,,0,,,73,64
167040,control_change,,,,,60,0,2,,,0,64,127,,
167040,note_off,,,,,80,0,1,,,0,,,69,64
167040,note_on,,,,,0,0,2,,,0,,,54,53
167040,note_on,,,,,0,0,2,,,0,,,61,53
167060,set_tempo,,,,,400,1,0,631579,,,,,,
167120,note_on,,,,,80,0,1,,,0,,,73,38
167120,note_on,,,,,0,0,1,,,0,,,69,38
167140,set_tempo,,,,,80,1,0,566038,,,,,,
167200,note_off,,,,,80,0,1,,,0,,,69,64
167200,note_on,,,,,0,0,1,,,0,,,69,33
167200,note_on,,,,,0,0,1,,,0,,,73,33
167200,note_off,,,,,0,0,1,,,0,,,73,64
167240,set_tempo,,,,,100,1,0,560748,,,,,,
167260,set_tempo,,,,,20,1,0,535714,,,,,,
167280,note_off,,,,,80,0,1,,,0,,,69,64
167280,note_on,,,,,0,0,1,,,0,,,69,35
167280,note_off,,,,,240,0,3,,,0,,,78,64
167280,note_off,,,,,0,0,1,,,0,,,73,64
167280,note_on,,,,,0,0,1,,,0,,,73,35
167280,note_on,,,,,0,0,3,,,0,,,81,53
167360,note_on,,,,,0,0,1,,,0,,,69,34
167360,note_on,,,,,0,0,1,,,0,,,73,34
167360,note_off,,,,,0,0,1,,,0,,,73,64
167360,note_off,,,,,80,0,1,,,0,,,69,64
167380,set_tempo,,,,,120,1,0,540541,,,,,,
167400,note_on,,,,,0,0,2,,,0,,,59,44
167400,note_off,,,,,360,0,2,,,0,,,61,64
167420,set_tempo,,,,,40,1,0,517241,,,,,,
167440,note_on,,,,,0,0,1,,,0,,,73,32
167440,note_off,,,,,0,0,1,,,0,,,73,64
167440,note_off,,,,,80,0,1,,,0,,,69,64
167440,note_on,,,,,0,0,1,,,0,,,69,32
167520,note_off,,,,,120,0,2,,,0,,,59,64
167520,control_change,,,,,0,0,2,,,0,64,0,,
167520,note_off,,,,,240,0,3,,,0,,,81,64
167520,note_on,,,,,0,0,3,,,0,,,78,51
167520,note_on,,,,,0,0,2,,,0,,,57,36
167520,note_off,,,,,80,0,1,,,0,,,69,64
167520,note_off,,,,,0,0,1,,,0,,,73,64
167600,note_on,,,,,0,0,1,,,0,,,69,39
167600,note_on,,,,,80,0,1,,,0,,,73,39
167640,note_off,,,,,0,0,2,,,0,,,54,64
167640,note_off,,,,,120,0,2,,,0,,,57,64
167680,note_on,,,,,0,0,1,,,0,,,69,35
167680,note_on,,,,,0,0,1,,,0,,,73,35
167680,note_off,,,,,80,0,1,,,0,,,69,64
167680,note_off,,,,,0,0,1,,,0,,,73,64
167760,note_on,,,,,0,0,2,,,0,,,54,47
167760,note_on,,,,,0,0,3,,,0,,,81,57
167760,note_on,,,,,120,0,2,,,0,,,57,47
167760,note_on,,,,,0,0,1,,,0,,,69,33
167760,note_on,,,,,0,0,1,,,0,,,73,33
167760,note_off,,,,,0,0,1,,,0,,,73,64
167760,note_off,,,,,240,0,3,,,0,,,78,64
167760,note_off,,,,,80,0,1,,,0,,,69,64
167840,note_off,,,,,0,0,1,,,0,,,73,64
167840,note_on,,,,,0,0,1,,,0,,,73,31
167840,note_on,,,,,0,0,1,,,0,,,69,31
167840,note_off,,,,,80,0,1,,,0,,,69,64
167920,note_off,,,,,80,0,1,,,0,,,69,64
167920,note_off,,,,,0,0,1,,,0,,,73,64
167920,note_on,,,,,0,0,1,,,0,,,73,27
167920,note_on,,,,,0,0,1,,,0,,,69,27
167940,note_off,,,,,0,0,2,,,0,,,57,64
167940,note_off,,,,,180,0,2,,,0,,,54,64
167970,note_off,,,,,210,0,3,,,0,,,81,64
168000,note_on,,,,,30,0,3,,,0,,,81,67
168000,note_off,,,,,80,0,1,,,0,,,69,64
168000,note_on,,,,,0,0,2,,,0,,,57,51
168000,note_on,,,,,0,0,2,,,0,,,54,51
168000,control_change,,,,,60,0,2,,,0,64,127,,
168000,note_off,,,,,0,0,1,,,0,,,73,64
168040,set_tempo,,,,,620,1,0,631579,,,,,,
168080,note_on,,,,,80,0,1,,,0,,,78,39
168080,set_tempo,,,,,40,1,0,576923,,,,,,
168080,note_on,,,,,0,0,1,,,0,,,73,39
168160,note_off,,,,,80,0,1,,,0,,,73,64
168160,note_off,,,,,0,0,1,,,0,,,78,64
168160,note_on,,,,,0,0,1,,,0,,,78,36
168160,note_on,,,,,0,0,1,,,0,,,73,36
168180,set_tempo,,,,,100,1,0,545455,,,,,,
168240,note_off,,,,,80,0,1,,,0,,,73,64
168240,note_off,,,,,0,0,1,,,0,,,78,64
168240,note_on,,,,,0,0,3,,,0,,,85,54
168240,note_off,,,,,240,0,3,,,0,,,81,64
168240,note_on,,,,,0,0,1,,,0,,,78,36
168240,note_on,,,,,0,0,1,,,0,,,73,36
168280,set_tempo,,,,,100,1,0,526316,,,,,,
168320,note_off,,,,,80,0,1,,,0,,,73,64
168320,note_off,,,,,0,0,1,,,0,,,78,64
168320,note_on,,,,,0,0,1,,,0,,,78,34
168320,note_on,,,,,0,0,1,,,0,,,73,34
168360,note_off,,,,,360,0,2,,,0,,,57,64
168360,note_on,,,,,0,0,2,,,0,,,56,44
168400,note_on,,,,,0,0,1,,,0,,,73,31
168400,note_on,,,,,0,0,1,,,0,,,78,31
168400,note_off,,,,,0,0,1,,,0,,,78,64
168400,note_off,,,,,80,0,1,,,0,,,73,64
168480,note_on,,,,,0,0,2,,,0,,,54,37
168480,control_change,,,,,0,0,2,,,0,64,0,,
168480,note_off,,,,,120,0,2,,,0,,,56,64
168480,note_off,,,,,240,0,3,,,0,,,85,64
168480,note_on,,,,,0,0,3,,,0,,,81,55
168480,note_off,,,,,80,0,1,,,0,,,73,64
168480,note_off,,,,,0,0,1,,,0,,,78,64
168560,note_on,,,,,0,0,1,,,0,,,73,36
168560,note_on,,,,,80,0,1,,,0,,,78,36
168600,note_off,,,,,120,0,2,,,0,,,54,64
168600,note_off,,,,,0,0,2,,,0,,,54,64
168640,note_on,,,,,0,0,1,,,0,,,73,34
168640,note_on,,,,,0,0,1,,,0,,,78,34
168640,note_off,,,,,0,0,1,,,0,,,78,64
168640,note_off,,,,,80,0,1,,,0,,,73,64
168720,note_on,,,,,0,0,1,,,0,,,73,35
168720,note_on,,,,,0,0,1,,,0,,,78,35
168720,note_off,,,,,0,0,1,,,0,,,78,64
168720,note_off,,,,,80,0,1,,,0,,,73,64
168720,note_off,,,,,240,0,3,,,0,,,81,64
168720,note_on,,,,,0,0,3,,,0,,,85,56
168720,note_on,,,,,120,0,2,,,0,,,54,37
168780,set_tempo,,,,,500,1,0,550459,,,,,,
168800,note_on,,,,,0,0,1,,,0,,,78,32
168800,note_off,,,,,0,0,1,,,0,,,78,64
168800,note_off,,,,,80,0,1,,,0,,,73,64
168800,note_on,,,,,0,0,1,,,0,,,73,32
168880,note_on,,,,,0,0,1,,,0,,,78,26
168880,note_off,,,,,80,0,1,,,0,,,73,64
168880,note_off,,,,,0,0,1,,,0,,,78,64
168880,note_on,,,,,0,0,1,,,0,,,73,26
168900,note_off,,,,,180,0,2,,,0,,,54,64
168920,set_tempo,,,,,140,1,0,576923,,,,,,
168930,note_off,,,,,210,0,3,,,0,,,85,64
168960,note_off,,,,,80,0,1,,,0,,,73,64
168960,control_change,,,,,30,0,3,,,0,64,127,,
168960,note_on,,,,,0,0,3,,,0,,,73,59
168960,note_on,,,,,60,0,2,,,0,,,54,45
168960,note_off,,,,,0,0,1,,,0,,,78,64
169040,note_on,,,,,80,0,1,,,0,,,69,33
169040,note_on,,,,,0,0,1,,,0,,,66,33
169080,set_tempo,,,,,160,1,0,550459,,,,,,
169120,note_on,,,,,0,0,1,,,0,,,66,36
169120,note_off,,,,,0,0,1,,,0,,,69,64
169120,note_on,,,,,0,0,1,,,0,,,69,36
169120,note_off,,,,,80,0,1,,,0,,,66,64
169140,control_change,,,,,180,0,3,,,0,64,0,,
169200,note_on,,,,,0,0,3,,,0,,,77,51
169200,note_on,,,,,0,0,2,,,0,,,56,42
169200,note_off,,,,,240,0,2,,,0,,,54,64
169200,note_off,,,,,0,0,1,,,0,,,69,64
169200,note_off,,,,,80,0,1,,,0,,,66,64
169200,control_change,,,,,0,0,3,,,0,64,127,,
169200,note_off,,,,,60,0,3,,,0,,,73,64
169280,note_on,,,,,0,0,1,,,0,,,65,39
169280,note_on,,,,,0,0,1,,,0,,,71,39
169280,note_on,,,,,80,0,1,,,0,,,73,39
169360,set_tempo,,,,,280,1,0,535714,,,,,,
169360,note_off,,,,,0,0,1,,,0,,,73,64
169360,note_on,,,,,0,0,1,,,0,,,65,40
169360,note_off,,,,,80,0,1,,,0,,,65,64
169360,note_on,,,,,0,0,1,,,0,,,71,40
169360,note_on,,,,,0,0,1,,,0,,,73,40
169360,note_off,,,,,0,0,1,,,0,,,71,64
169380,control_change,,,,,180,0,3,,,0,64,0,,
169440,control_change,,,,,0,0,3,,,0,64,127,,
169440,note_off,,,,,240,0,2,,,0,,,56,64
169440,note_on,,,,,0,0,2,,,0,,,57,45
169440,note_on,,,,,0,0,3,,,0,,,78,53
169440,note_off,,,,,0,0,1,,,0,,,73,64
169440,note_off,,,,,80,0,1,,,0,,,65,64
169440,note_off,,,,,0,0,1,,,0,,,71,64
169440,note_off,,,,,60,0,3,,,0,,,77,64
169520,note_on,,,,,0,0,1,,,0,,,69,44
169520,note_on,,,,,0,0,1,,,0,,,66,44
169520,note_on,,,,,80,0,1,,,0,,,73,44
169600,note_on,,,,,0,0,1,,,0,,,69,47
169600,note_off,,,,,0,0,1,,,0,,,73,64
169600,note_off,,,,,0,0,1,,,0,,,69,64
169600,note_off,,,,,80,0,1,,,0,,,66,64
169600,note_on,,,,,0,0,1,,,0,,,66,47
169600,note_on,,,,,0,0,1,,,0,,,73,47
169620,set_tempo,,,,,260,1,0,512821,,,,,,
169620,control_change,,,,,180,0,3,,,0,64,0,,
169680,note_on,,,,,0,0,2,,,0,,,52,50
169680,note_off,,,,,240,0,2,,,0,,,57,64
169680,note_on,,,,,0,0,2,,,0,,,59,50
169680,note_on,,,,,0,0,3,,,0,,,80,60
169680,note_off,,,,,60,0,3,,,0,,,78,64
169680,control_change,,,,,0,0,3,,,0,64,127,,
169680,note_off,,,,,80,0,1,,,0,,,66,64
169680,note_off,,,,,0,0,1,,,0,,,69,64
169680,note_off,,,,,0,0,1,,,0,,,73,64
169760,note_on,,,,,80,0,1,,,0,,,76,50
169760,note_on,,,,,0,0,1,,,0,,,74,50
169760,note_on,,,,,0,0,1,,,0,,,68,50
169820,set_tempo,,,,,200,1,0,500000,,,,,,
169840,note_on,,,,,0,0,1,,,0,,,68,52
169840,note_on,,,,,0,0,1,,,0,,,74,52
169840,note_on,,,,,0,0,1,,,0,,,76,52
169840,note_off,,,,,0,0,1,,,0,,,76,64
169840,note_off,,,,,80,0,1,,,0,,,68,64
169840,note_off,,,,,0,0,1,,,0,,,74,64
169860,control_change,,,,,180,0,3,,,0,64,0,,
169920,note_on,,,,,0,0,2,,,0,,,57,56
169920,control_change,,,,,0,0,3,,,0,64,127,,
169920,note_off,,,,,60,0,3,,,0,,,80,64
169920,note_off,,,,,80,0,1,,,0,,,68,64
169920,note_off,,,,,0,0,1,,,0,,,74,64
169920,note_off,,,,,0,0,1,,,0,,,76,64
169920,note_off,,,,,240,0,2,,,0,,,52,64
169920,note_off,,,,,0,0,2,,,0,,,59,64
169920,note_on,,,,,0,0,2,,,0,,,61,56
169920,note_on,,,,,0,0,3,,,0,,,81,70
170000,note_on,,,,,80,0,1,,,0,,,76,52
170000,note_on,,,,,0,0,1,,,0,,,73,52
170000,note_on,,,,,0,0,1,,,0,,,69,52
170080,note_on,,,,,0,0,1,,,0,,,69,53
170080,note_off,,,,,80,0,1,,,0,,,69,64
170080,note_off,,,,,0,0,1,,,0,,,73,64
170080,note_off,,,,,0,0,1,,,0,,,76,64
170080,note_on,,,,,0,0,1,,,0,,,76,53
170080,note_on,,,,,0,0,1,,,0,,,73,53
170100,control_change,,,,,180,0,3,,,0,64,0,,
170100,note_off,,,,,180,0,2,,,0,,,61,64
170100,note_off,,,,,0,0,2,,,0,,,57,64
170160,note_off,,,,,80,0,1,,,0,,,69,64
170160,note_off,,,,,0,0,1,,,0,,,73,64
170160,note_off,,,,,0,0,1,,,0,,,76,64
170160,note_on,,,,,0,0,2,,,0,,,61,47
170160,set_tempo,,,,,340,1,0,495868,,,,,,
170160,note_on,,,,,60,0,2,,,0,,,56,47
170160,note_off,,,,,60,0,3,,,0,,,81,64
170160,note_on,,,,,0,0,3,,,0,,,83,78
170160,control_change,,,,,0,0,3,,,0,64,127,,
170240,note_on,,,,,80,0,1,,,0,,,77,54
170240,note_on,,,,,0,0,1,,,0,,,73,54
170240,note_on,,,,,0,0,1,,,0,,,71,54
170320,note_off,,,,,0,0,1,,,0,,,73,64
170320,note_off,,,,,80,0,1,,,0,,,71,64
170320,note_on,,,,,0,0,1,,,0,,,73,55
170320,note_off,,,,,0,0,1,,,0,,,77,64
170320,note_on,,,,,0,0,1,,,0,,,77,55
170320,note_on,,,,,0,0,1,,,0,,,71,55
170340,note_off,,,,,0,0,2,,,0,,,56,64
170340,note_off,,,,,180,0,2,,,0,,,61,64
170340,control_change,,,,,180,0,3,,,0,64,0,,
170400,note_off,,,,,60,0,3,,,0,,,83,64
170400,control_change,,,,,0,0,3,,,0,64,127,,
170400,control_change,,,,,0,0,3,,,0,64,127,,
170400,note_on,,,,,0,0,3,,,0,,,81,74
170400,note_off,,,,,0,0,1,,,0,,,77,64
170400,note_on,,,,,0,0,2,,,0,,,61,54
170400,note_on,,,,,60,0,2,,,0,,,54,54
170400,note_off,,,,,0,0,1,,,0,,,73,64
170400,note_off,,,,,80,0,1,,,0,,,71,64
170480,note_on,,,,,0,0,1,,,0,,,73,56
170480,note_on,,,,,80,0,1,,,0,,,78,56
170480,note_on,,,,,0,0,1,,,0,,,69,56
170560,note_on,,,,,0,0,1,,,0,,,73,56
170560,note_on,,,,,0,0,1,,,0,,,69,56
170560,note_on,,,,,0,0,1,,,0,,,78,56
170560,note_off,,,,,0,0,1,,,0,,,73,64
170560,note_off,,,,,0,0,1,,,0,,,78,64
170560,note_off,,,,,80,0,1,,,0,,,69,64
170580,note_off,,,,,180,0,2,,,0,,,61,64
170580,note_off,,,,,0,0,2,,,0,,,54,64
170580,control_change,,,,,180,0,3,,,0,64,0,,
170640,note_on,,,,,0,0,3,,,0,,,80,81
170640,note_on,,,,,60,0,2,,,0,,,62,60
170640,control_change,,,,,0,0,3,,,0,64,127,,
170640,note_off,,,,,60,0,3,,,0,,,81,64
170640,note_off,,,,,0,0,1,,,0,,,78,64
170640,note_off,,,,,0,0,1,,,0,,,73,64
170640,note_off,,,,,80,0,1,,,0,,,69,64
170640,control_change,,,,,0,0,3,,,0,64,127,,
170640,note_on,,,,,0,0,2,,,0,,,52,60
170720,note_on,,,,,0,0,1,,,0,,,71,58
170720,note_on,,,,,80,0,1,,,0,,,76,58
170720,note_on,,,,,0,0,1,,,0,,,68,58
170800,note_off,,,,,0,0,1,,,0,,,71,64
170800,note_on,,,,,0,0,1,,,0,,,68,58
170800,note_on,,,,,0,0,1,,,0,,,71,58
170800,note_off,,,,,80,0,1,,,0,,,68,64
170800,note_off,,,,,0,0,1,,,0,,,76,64
170800,note_on,,,,,0,0,1,,,0,,,76,58
170820,control_change,,,,,180,0,3,,,0,64,0,,
170880,control_change,,,,,0,0,3,,,0,64,127,,
170880,note_off,,,,,60,0,3,,,0,,,80,64
170880,note_off,,,,,0,0,1,,,0,,,76,64
170880,note_off,,,,,0,0,1,,,0,,,71,64
170880,note_off,,,,,240,0,2,,,0,,,52,64
170880,note_on,,,,,0,0,3,,,0,,,80,86
170880,note_on,,,,,0,0,2,,,0,,,52,68
170880,note_on,,,,,0,0,2,,,0,,,62,68
170880,note_off,,,,,80,0,1,,,0,,,68,64
170880,note_off,,,,,0,0,2,,,0,,,62,64
170940,set_tempo,,,,,780,1,0,517241,,,,,,
170960,note_on,,,,,80,0,1,,,0,,,76,59
170960,note_on,,,,,0,0,1,,,0,,,71,59
170960,note_on,,,,,0,0,1,,,0,,,68,59
171040,note_off,,,,,0,0,1,,,0,,,76,64
171040,note_off,,,,,0,0,1,,,0,,,71,64
171040,note_on,,,,,0,0,1,,,0,,,76,55
171040,note_on,,,,,0,0,1,,,0,,,71,55
171040,note_on,,,,,0,0,1,,,0,,,68,55
171040,note_off,,,,,80,0,1,,,0,,,68,64
171100,set_tempo,,,,,160,1,0,535714,,,,,,
171120,note_off,,,,,80,0,1,,,0,,,68,64
171120,note_off,,,,,0,0,1,,,0,,,71,64
171120,note_off,,,,,0,0,1,,,0,,,76,64
171120,note_on,,,,,0,0,1,,,0,,,76,52
171120,note_on,,,,,0,0,1,,,0,,,71,52
171120,note_on,,,,,0,0,1,,,0,,,68,52
171200,note_on,,,,,0,0,1,,,0,,,71,48
171200,note_off,,,,,0,0,1,,,0,,,76,64
171200,note_on,,,,,0,0,1,,,0,,,76,48
171200,note_on,,,,,0,0,1,,,0,,,68,48
171200,note_off,,,,,0,0,1,,,0,,,71,64
171200,note_off,,,,,80,0,1,,,0,,,68,64
171220,set_tempo,,,,,120,1,0,560748,,,,,,
171280,note_off,,,,,0,0,1,,,0,,,71,64
171280,note_off,,,,,0,0,1,,,0,,,76,64
171280,note_on,,,,,0,0,1,,,0,,,76,45
171280,note_on,,,,,0,0,1,,,0,,,71,45
171280,note_on,,,,,0,0,1,,,0,,,68,45
171280,note_off,,,,,80,0,1,,,0,,,68,64
171300,control_change,,,,,420,0,3,,,0,64,0,,
171360,note_off,,,,,480,0,2,,,0,,,62,64
171360,note_off,,,,,0,0,2,,,0,,,52,64
171360,note_on,,,,,0,0,2,,,0,,,53,55
171360,note_on,,,,,0,0,2,,,0,,,61,55
171360,note_off,,,,,60,0,3,,,0,,,80,64
171360,control_change,,,,,0,0,3,,,0,64,127,,
171360,control_change,,,,,0,0,3,,,0,64,127,,
171360,note_on,,,,,0,0,3,,,0,,,80,64
171360,note_off,,,,,0,0,1,,,0,,,76,64
171360,note_off,,,,,0,0,1,,,0,,,71,64
171360,note_off,,,,,80,0,1,,,0,,,68,64
171380,set_tempo,,,,,160,1,0,576923,,,,,,
171400,set_tempo,,,,,20,1,0,600000,,,,,,
171440,note_on,,,,,0,0,1,,,0,,,71,39
171440,note_on,,,,,80,0,1,,,0,,,73,39
171440,note_on,,,,,0,0,1,,,0,,,68,39
171520,note_off,,,,,0,0,1,,,0,,,71,64
171520,note_off,,,,,0,0,1,,,0,,,73,64
171520,note_on,,,,,0,0,1,,,0,,,73,36
171520,set_tempo,,,,,120,1,0,631579,,,,,,
171520,note_on,,,,,0,0,1,,,0,,,71,36
171520,note_on,,,,,0,0,1,,,0,,,68,36
171520,note_off,,,,,80,0,1,,,0,,,68,64
171540,set_tempo,,,,,20,1,0,645161,,,,,,
171540,note_off,,,,,0,0,2,,,0,,,53,64
171540,control_change,,,,,180,0,3,,,0,64,0,,
171540,note_off,,,,,180,0,2,,,0,,,61,64
171600,note_off,,,,,80,0,1,,,0,,,68,64
171600,note_on,,,,,60,0,2,,,0,,,54,52
171600,note_off,,,,,60,0,3,,,0,,,80,64
171600,note_on,,,,,0,0,3,,,0,,,81,49
171600,control_change,,,,,0,0,3,,,0,64,127,,
171600,control_change,,,,,0,0,3,,,0,64,127,,
171600,note_on,,,,,0,0,2,,,0,,,61,52
171600,note_off,,,,,0,0,1,,,0,,,71,64
171600,note_off,,,,,0,0,1,,,0,,,73,64
171680,note_on,,,,,0,0,1,,,0,,,69,27
171680,note_on,,,,,80,0,1,,,0,,,73,27
171700,set_tempo,,,,,160,1,0,731707,,,,,,
171760,note_off,,,,,80,0,1,,,0,,,69,64
171760,note_off,,,,,0,0,1,,,0,,,73,64
171760,note_on,,,,,0,0,1,,,0,,,73,23
171760,note_on,,,,,0,0,1,,,0,,,69,23
171760,set_tempo,,,,,60,1,0,779221,,,,,,
171780,control_change,,,,,0,0,3,,,0,64,0,,
171780,note_off,,,,,180,0,3,,,0,,,81,64
171780,note_off,,,,,180,0,2,,,0,,,61,64
171780,note_off,,,,,0,0,2,,,0,,,54,64
171780,set_tempo,,,,,20,1,0,789474,,,,,,
171820,set_tempo,,,,,40,1,0,612245,,,,,,
171840,note_on,,,,,0,0,2,,,0,,,61,53
171840,note_off,,,,,80,0,1,,,0,,,69,64
171840,note_on,,,,,60,0,3,,,0,,,78,45
171840,note_off,,,,,0,0,1,,,0,,,73,64
171840,note_on,,,,,0,0,2,,,0,,,54,53
171840,control_change,,,,,60,0,2,,,0,64,127,,
171900,set_tempo,,,,,80,1,0,571429,,,,,,
171920,note_on,,,,,0,0,1,,,0,,,69,38
171920,note_on,,,,,80,0,1,,,0,,,73,38
172000,set_tempo,,,,,100,1,0,540541,,,,,,
172000,note_off,,,,,80,0,1,,,0,,,69,64
172000,note_on,,,,,0,0,1,,,0,,,73,33
172000,note_off,,,,,0,0,1,,,0,,,73,64
172000,note_on,,,,,0,0,1,,,0,,,69,33
172080,note_on,,,,,0,0,1,,,0,,,73,35
172080,note_off,,,,,240,0,3,,,0,,,78,64
172080,note_off,,,,,80,0,1,,,0,,,69,64
172080,note_on,,,,,0,0,1,,,0,,,69,35
172080,note_on,,,,,0,0,3,,,0,,,81,43
172080,note_off,,,,,0,0,1,,,0,,,73,64
172160,note_on,,,,,0,0,1,,,0,,,69,34
172160,note_off,,,,,80,0,1,,,0,,,69,64
172160,note_off,,,,,0,0,1,,,0,,,73,64
172160,note_on,,,,,0,0,1,,,0,,,73,34
172180,set_tempo,,,,,180,1,0,526316,,,,,,
172200,note_off,,,,,360,0,2,,,0,,,61,64
172200,note_on,,,,,0,0,2,,,0,,,59,45
172240,note_on,,,,,0,0,1,,,0,,,73,32
172240,note_off,,,,,80,0,1,,,0,,,69,64
172240,note_on,,,,,0,0,1,,,0,,,69,32
172240,note_off,,,,,0,0,1,,,0,,,73,64
172320,note_off,,,,,240,0,3,,,0,,,81,64
172320,note_on,,,,,0,0,3,,,0,,,78,51
172320,note_off,,,,,0,0,1,,,0,,,73,64
172320,control_change,,,,,0,0,2,,,0,64,0,,
172320,note_on,,,,,0,0,2,,,0,,,57,34
172320,note_off,,,,,120,0,2,,,0,,,59,64
172320,note_off,,,,,80,0,1,,,0,,,69,64
172400,note_on,,,,,80,0,1,,,0,,,73,39
172400,note_on,,,,,0,0,1,,,0,,,69,39
172440,note_off,,,,,0,0,2,,,0,,,54,64
172440,note_off,,,,,120,0,2,,,0,,,57,64
172480,note_off,,,,,80,0,1,,,0,,,69,64
172480,note_off,,,,,0,0,1,,,0,,,73,64
172480,note_on,,,,,0,0,1,,,0,,,73,35
172480,note_on,,,,,0,0,1,,,0,,,69,35
172560,note_on,,,,,0,0,1,,,0,,,73,33
172560,note_on,,,,,0,0,1,,,0,,,69,33
172560,note_off,,,,,80,0,1,,,0,,,69,64
172560,note_off,,,,,0,0,1,,,0,,,73,64
172560,note_off,,,,,240,0,3,,,0,,,78,64
172560,note_on,,,,,0,0,2,,,0,,,54,47
172560,note_on,,,,,0,0,3,,,0,,,81,57
172560,note_on,,,,,120,0,2,,,0,,,57,47
172640,note_on,,,,,0,0,1,,,0,,,69,31
172640,note_off,,,,,80,0,1,,,0,,,69,64
172640,note_on,,,,,0,0,1,,,0,,,73,31
172640,note_off,,,,,0,0,1,,,0,,,73,64
172720,note_off,,,,,0,0,1,,,0,,,73,64
172720,note_on,,,,,0,0,1,,,0,,,73,27
172720,note_on,,,,,0,0,1,,,0,,,69,27
172720,note_off,,,,,80,0,1,,,0,,,69,64
172740,note_off,,,,,180,0,2,,,0,,,54,64
172740,note_off,,,,,0,0,2,,,0,,,57,64
172770,note_off,,,,,210,0,3,,,0,,,81,64
172800,note_on,,,,,0,0,2,,,0,,,57,55
172800,note_on,,,,,0,0,2,,,0,,,54,55
172800,note_on,,,,,30,0,3,,,0,,,81,56
172800,control_change,,,,,60,0,2,,,0,64,127,,
172800,note_off,,,,,80,0,1,,,0,,,69,64
172800,note_off,,,,,0,0,1,,,0,,,73,64
172820,set_tempo,,,,,640,1,0,612245,,,,,,
172880,set_tempo,,,,,60,1,0,576923,,,,,,
172880,note_on,,,,,0,0,1,,,0,,,73,39
172880,note_on,,,,,80,0,1,,,0,,,78,39
172960,note_on,,,,,0,0,1,,,0,,,78,36
172960,note_off,,,,,0,0,1,,,0,,,78,64
172960,note_on,,,,,0,0,1,,,0,,,73,36
172960,note_off,,,,,80,0,1,,,0,,,73,64
172980,set_tempo,,,,,100,1,0,526316,,,,,,
173040,note_on,,,,,0,0,1,,,0,,,73,36
173040,note_on,,,,,0,0,1,,,0,,,78,36
173040,note_off,,,,,0,0,1,,,0,,,78,64
173040,note_on,,,,,0,0,3,,,0,,,85,48
173040,note_off,,,,,80,0,1,,,0,,,73,64
173040,note_off,,,,,240,0,3,,,0,,,81,64
173120,note_off,,,,,80,0,1,,,0,,,73,64
173120,note_off,,,,,0,0,1,,,0,,,78,64
173120,note_on,,,,,0,0,1,,,0,,,78,34
173120,note_on,,,,,0,0,1,,,0,,,73,34
173160,note_on,,,,,0,0,2,,,0,,,56,45
173160,note_off,,,,,360,0,2,,,0,,,57,64
173200,note_off,,,,,80,0,1,,,0,,,73,64
173200,note_off,,,,,0,0,1,,,0,,,78,64
173200,note_on,,,,,0,0,1,,,0,,,78,31
173200,note_on,,,,,0,0,1,,,0,,,73,31
173280,note_off,,,,,0,0,1,,,0,,,78,64
173280,note_off,,,,,120,0,2,,,0,,,56,64
173280,note_off,,,,,240,0,3,,,0,,,85,64
173280,note_on,,,,,0,0,3,,,0,,,81,50
173280,note_on,,,,,0,0,2,,,0,,,54,38
173280,control_change,,,,,0,0,2,,,0,64,0,,
173280,note_off,,,,,80,0,1,,,0,,,73,64
173360,note_on,,,,,80,0,1,,,0,,,78,36
173360,note_on,,,,,0,0,1,,,0,,,73,36
173400,note_off,,,,,0,0,2,,,0,,,54,64
173400,note_off,,,,,120,0,2,,,0,,,54,64
173440,note_on,,,,,0,0,1,,,0,,,73,34
173440,note_off,,,,,0,0,1,,,0,,,78,64
173440,note_off,,,,,80,0,1,,,0,,,73,64
173440,note_on,,,,,0,0,1,,,0,,,78,34
173520,note_on,,,,,0,0,1,,,0,,,73,35
173520,note_on,,,,,0,0,3,,,0,,,85,55
173520,note_off,,,,,240,0,3,,,0,,,81,64
173520,note_off,,,,,80,0,1,,,0,,,73,64
173520,note_on,,,,,120,0,2,,,0,,,54,51
173520,note_off,,,,,0,0,1,,,0,,,78,64
173520,note_on,,,,,0,0,1,,,0,,,78,35
173560,set_tempo,,,,,580,1,0,582524,,,,,,
173600,note_off,,,,,0,0,1,,,0,,,78,64
173600,note_on,,,,,0,0,1,,,0,,,73,32
173600,note_off,,,,,80,0,1,,,0,,,73,64
173600,note_on,,,,,0,0,1,,,0,,,78,32
173600,set_tempo,,,,,40,1,0,545455,,,,,,
173680,note_off,,,,,80,0,1,,,0,,,73,64
173680,note_on,,,,,0,0,1,,,0,,,78,26
173680,note_off,,,,,0,0,1,,,0,,,78,64
173680,note_on,,,,,0,0,1,,,0,,,73,26
173700,set_tempo,,,,,100,1,0,582524,,,,,,
173700,note_off,,,,,180,0,2,,,0,,,54,64
173730,note_off,,,,,210,0,3,,,0,,,85,64
173760,note_off,,,,,80,0,1,,,0,,,73,64
173760,note_off,,,,,0,0,1,,,0,,,78,64
173760,note_on,,,,,60,0,2,,,0,,,54,57
173760,note_on,,,,,30,0,3,,,0,,,73,58
173760,control_change,,,,,0,0,2,,,0,64,127,,
173840,note_on,,,,,0,0,1,,,0,,,66,33
173840,note_on,,,,,80,0,1,,,0,,,69,33
173920,note_on,,,,,0,0,1,,,0,,,66,36
173920,note_on,,,,,0,0,1,,,0,,,69,36
173920,note_off,,,,,0,0,1,,,0,,,69,64
173920,note_off,,,,,80,0,1,,,0,,,66,64
173940,control_change,,,,,180,0,2,,,0,64,0,,
173980,set_tempo,,,,,280,1,0,576923,,,,,,
174000,note_off,,,,,60,0,2,,,0,,,54,64
174000,control_change,,,,,0,0,2,,,0,64,127,,
174000,note_on,,,,,0,0,3,,,0,,,77,53
174000,note_on,,,,,0,0,2,,,0,,,56,61
174000,note_off,,,,,0,0,1,,,0,,,69,64
174000,note_off,,,,,80,0,1,,,0,,,66,64
174000,note_off,,,,,240,0,3,,,0,,,73,64
174080,set_tempo,,,,,100,1,0,540541,,,,,,
174080,note_on,,,,,0,0,1,,,0,,,71,39
174080,note_on,,,,,0,0,1,,,0,,,65,39
174080,note_on,,,,,80,0,1,,,0,,,73,39
174160,note_off,,,,,80,0,1,,,0,,,65,64
174160,note_off,,,,,0,0,1,,,0,,,71,64
174160,note_off,,,,,0,0,1,,,0,,,73,64
174160,note_on,,,,,0,0,1,,,0,,,73,40
174160,note_on,,,,,0,0,1,,,0,,,71,40
174160,note_on,,,,,0,0,1,,,0,,,65,40
174160,set_tempo,,,,,80,1,0,530973,,,,,,
174180,control_change,,,,,180,0,2,,,0,64,0,,
174240,note_off,,,,,60,0,2,,,0,,,56,64
174240,control_change,,,,,0,0,2,,,0,64,127,,
174240,note_on,,,,,0,0,2,,,0,,,57,63
174240,note_off,,,,,240,0,3,,,0,,,77,64
174240,note_on,,,,,0,0,3,,,0,,,78,53
174240,note_off,,,,,0,0,1,,,0,,,73,64
174240,note_off,,,,,80,0,1,,,0,,,65,64
174240,note_off,,,,,0,0,1,,,0,,,71,64
174320,note_on,,,,,0,0,1,,,0,,,66,41
174320,note_on,,,,,80,0,1,,,0,,,73,41
174320,note_on,,,,,0,0,1,,,0,,,69,41
174400,note_off,,,,,0,0,1,,,0,,,69,64
174400,note_off,,,,,0,0,1,,,0,,,73,64
174400,note_off,,,,,80,0,1,,,0,,,66,64
174400,note_on,,,,,0,0,1,,,0,,,66,44
174400,note_on,,,,,0,0,1,,,0,,,69,44
174400,note_on,,,,,0,0,1,,,0,,,73,44
174420,set_tempo,,,,,260,1,0,512821,,,,,,
174420,control_change,,,,,180,0,2,,,0,64,0,,
174480,control_change,,,,,0,0,2,,,0,64,127,,
174480,note_on,,,,,0,0,2,,,0,,,59,65
174480,note_on,,,,,0,0,3,,,0,,,80,60
174480,note_off,,,,,240,0,3,,,0,,,78,64
174480,note_off,,,,,0,0,1,,,0,,,73,64
174480,note_off,,,,,0,0,1,,,0,,,69,64
174480,note_off,,,,,80,0,1,,,0,,,66,64
174480,note_off,,,,,60,0,2,,,0,,,57,64
174480,note_on,,,,,0,0,2,,,0,,,52,65
174560,note_on,,,,,0,0,1,,,0,,,68,53
174560,note_on,,,,,0,0,1,,,0,,,74,53
174560,note_on,,,,,80,0,1,,,0,,,76,53
174620,set_tempo,,,,,200,1,0,508475,,,,,,
174640,note_on,,,,,0,0,1,,,0,,,68,58
174640,note_on,,,,,0,0,1,,,0,,,74,58
174640,note_on,,,,,0,0,1,,,0,,,76,58
174640,note_off,,,,,0,0,1,,,0,,,76,64
174640,note_off,,,,,0,0,1,,,0,,,74,64
174640,note_off,,,,,80,0,1,,,0,,,68,64
174640,set_tempo,,,,,20,1,0,504202,,,,,,
174660,control_change,,,,,180,0,2,,,0,64,0,,
174720,note_on,,,,,0,0,3,,,0,,,81,70
174720,note_off,,,,,240,0,3,,,0,,,80,64
174720,control_change,,,,,0,0,2,,,0,64,127,,
174720,note_off,,,,,0,0,2,,,0,,,52,64
174720,note_on,,,,,0,0,2,,,0,,,61,74
174720,note_on,,,,,0,0,2,,,0,,,57,74
174720,note_off,,,,,80,0,1,,,0,,,68,64
174720,note_off,,,,,0,0,1,,,0,,,74,64
174720,note_off,,,,,0,0,1,,,0,,,76,64
174720,note_off,,,,,60,0,2,,,0,,,59,64
174800,note_on,,,,,80,0,1,,,0,,,76,61
174800,note_on,,,,,0,0,1,,,0,,,73,61
174800,note_on,,,,,0,0,1,,,0,,,69,61
174800,set_tempo,,,,,160,1,0,508475,,,,,,
174840,set_tempo,,,,,40,1,0,491803,,,,,,
174880,note_off,,,,,80,0,1,,,0,,,69,64
174880,note_off,,,,,0,0,1,,,0,,,76,64
174880,note_on,,,,,0,0,1,,,0,,,76,59
174880,note_on,,,,,0,0,1,,,0,,,73,59
174880,note_on,,,,,0,0,1,,,0,,,69,59
174880,note_off,,,,,0,0,1,,,0,,,73,64
174900,control_change,,,,,0,0,2,,,0,64,0,,
174900,note_off,,,,,0,0,2,,,0,,,61,64
174900,note_off,,,,,180,0,2,,,0,,,57,64
174960,note_on,,,,,0,0,2,,,0,,,61,67
174960,note_on,,,,,0,0,3,,,0,,,83,70
174960,note_off,,,,,240,0,3,,,0,,,81,64
174960,note_on,,,,,60,0,2,,,0,,,56,67
174960,control_change,,,,,0,0,2,,,0,64,127,,
174960,note_off,,,,,80,0,1,,,0,,,69,64
174960,note_off,,,,,0,0,1,,,0,,,73,64
174960,note_off,,,,,0,0,1,,,0,,,76,64
175040,note_on,,,,,80,0,1,,,0,,,77,58
175040,note_on,,,,,0,0,1,,,0,,,73,58
175040,note_on,,,,,0,0,1,,,0,,,71,58
175120,note_off,,,,,0,0,1,,,0,,,73,64
175120,note_off,,,,,0,0,1,,,0,,,77,64
175120,note_off,,,,,80,0,1,,,0,,,71,64
175120,note_on,,,,,0,0,1,,,0,,,73,54
175120,note_on,,,,,0,0,1,,,0,,,71,54
175120,note_on,,,,,0,0,1,,,0,,,77,54
175140,control_change,,,,,0,0,2,,,0,64,0,,
175140,note_off,,,,,0,0,2,,,0,,,56,64
175140,note_off,,,,,180,0,2,,,0,,,61,64
175200,control_change,,,,,0,0,2,,,0,64,127,,
175200,note_on,,,,,0,0,2,,,0,,,61,58
175200,note_on,,,,,60,0,2,,,0,,,54,58
175200,note_off,,,,,0,0,1,,,0,,,73,64
175200,note_off,,,,,80,0,1,,,0,,,71,64
175200,control_change,,,,,0,0,2,,,0,64,127,,
175200,note_off,,,,,240,0,3,,,0,,,83,64
175200,note_on,,,,,0,0,3,,,0,,,81,68
175200,note_off,,,,,0,0,1,,,0,,,77,64
175280,note_on,,,,,0,0,1,,,0,,,73,53
175280,note_on,,,,,80,0,1,,,0,,,78,53
175280,note_on,,,,,0,0,1,,,0,,,69,53
175360,note_on,,,,,0,0,1,,,0,,,73,52
175360,note_off,,,,,80,0,1,,,0,,,69,64
175360,note_on,,,,,0,0,1,,,0,,,78,52
175360,note_off,,,,,0,0,1,,,0,,,73,64
175360,note_on,,,,,0,0,1,,,0,,,69,52
175360,note_off,,,,,0,0,1,,,0,,,78,64
175380,control_change,,,,,0,0,2,,,0,64,0,,
175380,note_off,,,,,0,0,2,,,0,,,54,64
175380,note_off,,,,,180,0,2,,,0,,,61,64
175400,set_tempo,,,,,560,1,0,512821,,,,,,
175440,note_off,,,,,80,0,1,,,0,,,69,64
175440,control_change,,,,,0,0,2,,,0,64,127,,
175440,note_on,,,,,0,0,2,,,0,,,62,58
175440,note_on,,,,,60,0,2,,,0,,,52,58
175440,note_off,,,,,0,0,1,,,0,,,78,64
175440,note_on,,,,,0,0,3,,,0,,,80,62
175440,note_off,,,,,240,0,3,,,0,,,81,64
175440,control_change,,,,,0,0,2,,,0,64,127,,
175440,note_off,,,,,0,0,1,,,0,,,73,64
175520,note_on,,,,,80,0,1,,,0,,,76,50
175520,note_on,,,,,0,0,1,,,0,,,71,50
175520,note_on,,,,,0,0,1,,,0,,,68,50
175580,set_tempo,,,,,180,1,0,508475,,,,,,
175600,note_off,,,,,80,0,1,,,0,,,68,64
175600,note_off,,,,,0,0,1,,,0,,,71,64
175600,note_off,,,,,0,0,1,,,0,,,76,64
175600,set_tempo,,,,,20,1,0,504202,,,,,,
175600,note_on,,,,,0,0,1,,,0,,,76,49
175600,note_on,,,,,0,0,1,,,0,,,71,49
175600,note_on,,,,,0,0,1,,,0,,,68,49
175620,control_change,,,,,180,0,2,,,0,64,0,,
175680,note_on,,,,,0,0,2,,,0,,,52,58
175680,control_change,,,,,0,0,2,,,0,64,127,,
175680,note_on,,,,,0,0,2,,,0,,,62,58
175680,note_off,,,,,80,0,1,,,0,,,68,64
175680,note_off,,,,,240,0,3,,,0,,,80,64
175680,note_off,,,,,0,0,2,,,0,,,52,64
175680,note_off,,,,,0,0,1,,,0,,,71,64
175680,note_off,,,,,0,0,1,,,0,,,76,64
175680,note_on,,,,,0,0,3,,,0,,,80,61
175680,note_off,,,,,60,0,2,,,0,,,62,64
175760,note_on,,,,,80,0,1,,,0,,,76,47
175760,note_on,,,,,0,0,1,,,0,,,71,47
175760,note_on,,,,,0,0,1,,,0,,,68,47
175780,set_tempo,,,,,180,1,0,526316,,,,,,
175840,note_on,,,,,0,0,1,,,0,,,68,40
175840,note_off,,,,,80,0,1,,,0,,,68,64
175840,note_off,,,,,0,0,1,,,0,,,71,64
175840,note_off,,,,,0,0,1,,,0,,,76,64
175840,note_on,,,,,0,0,1,,,0,,,76,40
175840,note_on,,,,,0,0,1,,,0,,,71,40
175920,note_off,,,,,80,0,1,,,0,,,68,64
175920,note_off,,,,,0,0,1,,,0,,,76,64
175920,note_off,,,,,0,0,1,,,0,,,71,64
175920,note_on,,,,,0,0,1,,,0,,,71,35
175920,note_on,,,,,0,0,1,,,0,,,68,35
175920,note_on,,,,,0,0,1,,,0,,,76,35
175960,set_tempo,,,,,180,1,0,545455,,,,,,
176000,note_off,,,,,80,0,1,,,0,,,68,64
176000,note_off,,,,,0,0,1,,,0,,,71,64
176000,note_off,,,,,0,0,1,,,0,,,76,64
176000,note_on,,,,,0,0,1,,,0,,,76,31
176000,note_on,,,,,0,0,1,,,0,,,71,31
176000,note_on,,,,,0,0,1,,,0,,,68,31
176080,note_on,,,,,0,0,1,,,0,,,76,28
176080,note_on,,,,,0,0,1,,,0,,,68,28
176080,note_on,,,,,0,0,1,,,0,,,71,28
176080,note_off,,,,,80,0,1,,,0,,,68,64
176080,note_off,,,,,0,0,1,,,0,,,71,64
176080,note_off,,,,,0,0,1,,,0,,,76,64
176100,control_change,,,,,420,0,2,,,0,64,0,,
176120,set_tempo,,,,,160,1,0,550459,,,,,,
176140,set_tempo,,,,,20,1,0,576923,,,,,,
176160,note_on,,,,,0,0,1,,,0,,,69,26
176160,note_off,,,,,480,0,3,,,0,,,80,64
176160,note_on,,,,,0,0,1,,,0,,,73,26
176160,note_on,,,,,0,0,1,,,0,,,76,26
176160,note_off,,,,,0,0,1,,,0,,,76,64
176160,note_off,,,,,60,0,2,,,0,,,52,64
176160,note_off,,,,,0,0,2,,,0,,,62,64
176160,note_on,,,,,0,0,2,,,0,,,57,36
176160,note_on,,,,,0,0,2,,,0,,,61,36
176160,control_change,,,,,0,0,2,,,0,64,127,,
176160,control_change,,,,,0,0,2,,,0,64,127,,
176160,note_off,,,,,0,0,1,,,0,,,71,64
176160,note_off,,,,,80,0,1,,,0,,,68,64
176160,note_on,,,,,0,0,3,,,0,,,81,34
176224,note_off,,,,,0,0,2,,,0,,,57,64
176224,note_off,,,,,64,0,2,,,0,,,61,64
176240,note_on,,,,,16,0,2,,,0,,,64,46
176280,set_tempo,,,,,140,1,0,582524,,,,,,
176280,note_off,,,,,120,0,1,,,0,,,69,64
176280,note_off,,,,,0,0,1,,,0,,,73,64
176280,note_off,,,,,0,0,1,,,0,,,76,64
176280,note_off,,,,,120,0,3,,,0,,,81,64
176300,set_tempo,,,,,20,1,0,631579,,,,,,
176320,note_on,,,,,0,0,2,,,0,,,64,42
176320,note_off,,,,,80,0,2,,,0,,,64,64
176340,control_change,,,,,20,0,2,,,0,64,0,,
176340,set_tempo,,,,,40,1,0,652174,,,,,,
176400,control_change,,,,,0,0,2,,,0,64,127,,
176400,control_change,,,,,0,0,2,,,0,64,127,,
176400,note_on,,,,,0,0,2,,,0,,,64,38
176400,note_off,,,,,60,0,2,,,0,,,64,64
176400,note_on,,,,,120,0,1,,,0,,,76,50
176480,note_on,,,,,0,0,2,,,0,,,64,33
176480,note_off,,,,,80,0,2,,,0,,,64,64
176480,set_tempo,,,,,140,1,0,689655,,,,,,
176500,set_tempo,,,,,20,1,0,705882,,,,,,
176560,note_off,,,,,80,0,2,,,0,,,64,64
176560,note_on,,,,,0,0,2,,,0,,,64,39
176580,control_change,,,,,20,0,2,,,0,64,0,,
176580,note_off,,,,,180,0,1,,,0,,,76,64
176600,set_tempo,,,,,100,1,0,769231,,,,,,
176640,control_change,,,,,0,0,2,,,0,64,127,,
176640,note_on,,,,,0,0,2,,,0,,,58,45
176640,note_on,,,,,60,0,1,,,0,,,76,50
176640,note_off,,,,,60,0,2,,,0,,,64,64
176660,set_tempo,,,,,60,1,0,689655,,,,,,
176700,note_on,,,,,0,0,2,,,0,,,64,38
176700,note_off,,,,,60,0,2,,,0,,,58,64
176740,set_tempo,,,,,80,1,0,625000,,,,,,
176760,note_on,,,,,0,0,2,,,0,,,61,35
176760,note_off,,,,,60,0,2,,,0,,,64,64
176820,note_off,,,,,60,0,2,,,0,,,61,64
176820,note_on,,,,,0,0,2,,,0,,,64,33
176820,set_tempo,,,,,80,1,0,550459,,,,,,
176880,note_off,,,,,60,0,2,,,0,,,64,64
176880,note_on,,,,,0,0,2,,,0,,,58,33
176900,set_tempo,,,,,80,1,0,526316,,,,,,
176940,note_off,,,,,60,0,2,,,0,,,58,64
176940,note_on,,,,,0,0,2,,,0,,,64,33
176980,set_tempo,,,,,80,1,0,508475,,,,,,
177000,note_off,,,,,360,0,1,,,0,,,76,64
177000,note_on,,,,,0,0,1,,,0,,,74,42
177000,note_off,,,,,60,0,2,,,0,,,64,64
177000,note_on,,,,,0,0,2,,,0,,,61,32
177060,note_on,,,,,0,0,2,,,0,,,64,30
177060,note_off,,,,,60,0,2,,,0,,,61,64
177060,control_change,,,,,0,0,2,,,0,64,0,,
177100,set_tempo,,,,,120,1,0,483871,,,,,,
177120,note_off,,,,,60,0,2,,,0,,,64,64
177120,control_change,,,,,0,0,2,,,0,64,127,,
177120,control_change,,,,,0,0,2,,,0,64,127,,
177120,note_on,,,,,0,0,2,,,0,,,58,37
177120,note_on,,,,,0,0,1,,,0,,,73,33
177120,note_off,,,,,120,0,1,,,0,,,74,64
177180,note_on,,,,,0,0,2,,,0,,,64,27
177180,note_off,,,,,60,0,2,,,0,,,58,64
177240,note_off,,,,,60,0,2,,,0,,,64,64
177240,note_on,,,,,0,0,2,,,0,,,61,30
177240,note_off,,,,,120,0,1,,,0,,,73,64
177300,note_on,,,,,0,0,2,,,0,,,64,34
177300,control_change,,,,,0,0,2,,,0,64,0,,
177300,note_off,,,,,60,0,2,,,0,,,61,64
177360,note_off,,,,,60,0,2,,,0,,,64,64
177360,note_on,,,,,120,0,1,,,0,,,73,42
177360,note_on,,,,,0,0,2,,,0,,,57,41
177360,control_change,,,,,0,0,2,,,0,64,127,,
177360,control_change,,,,,0,0,2,,,0,64,127,,
177400,set_tempo,,,,,300,1,0,472441,,,,,,
177420,note_off,,,,,60,0,2,,,0,,,57,64
177420,note_on,,,,,0,0,2,,,0,,,64,32
177480,note_on,,,,,0,0,2,,,0,,,61,35
177480,note_off,,,,,60,0,2,,,0,,,64,64
177540,note_off,,,,,180,0,1,,,0,,,73,64
177540,control_change,,,,,0,0,2,,,0,64,0,,
177540,note_on,,,,,0,0,2,,,0,,,64,36
177540,note_off,,,,,60,0,2,,,0,,,61,64
177600,set_tempo,,,,,200,1,0,652174,,,,,,
177600,control_change,,,,,0,0,2,,,0,64,127,,
177600,note_off,,,,,60,0,2,,,0,,,64,64
177600,note_on,,,,,60,0,1,,,0,,,73,50
177600,note_on,,,,,0,0,2,,,0,,,55,38
177620,set_tempo,,,,,20,1,0,674157,,,,,,
177660,note_on,,,,,0,0,2,,,0,,,64,33
177660,note_off,,,,,60,0,2,,,0,,,55,64
177660,set_tempo,,,,,40,1,0,495868,,,,,,
177720,note_off,,,,,60,0,2,,,0,,,64,64
177720,note_on,,,,,0,0,2,,,0,,,61,29
177780,note_on,,,,,0,0,2,,,0,,,64,28
177780,note_off,,,,,60,0,2,,,0,,,61,64
177840,note_on,,,,,0,0,2,,,0,,,55,29
177840,note_off,,,,,60,0,2,,,0,,,64,64
177880,set_tempo,,,,,220,1,0,508475,,,,,,
177900,note_off,,,,,60,0,2,,,0,,,55,64
177900,note_on,,,,,0,0,2,,,0,,,64,25
177960,note_on,,,,,0,0,1,,,0,,,71,42
177960,note_off,,,,,60,0,2,,,0,,,64,64
177960,note_on,,,,,0,0,2,,,0,,,61,29
177960,note_off,,,,,360,0,1,,,0,,,73,64
178000,set_tempo,,,,,120,1,0,530973,,,,,,
178020,note_off,,,,,60,0,2,,,0,,,61,64
178020,note_on,,,,,0,0,2,,,0,,,64,31
178020,control_change,,,,,0,0,2,,,0,64,0,,
178080,note_off,,,,,120,0,1,,,0,,,71,64
178080,note_on,,,,,0,0,1,,,0,,,70,33
178080,control_change,,,,,0,0,2,,,0,64,127,,
178080,control_change,,,,,0,0,2,,,0,64,127,,
178080,note_off,,,,,60,0,2,,,0,,,64,64
178080,note_on,,,,,0,0,2,,,0,,,55,37
178140,note_on,,,,,0,0,2,,,0,,,64,27
178140,note_off,,,,,60,0,2,,,0,,,55,64
178200,note_off,,,,,120,0,1,,,0,,,70,64
178200,note_on,,,,,0,0,2,,,0,,,61,30
178200,note_off,,,,,60,0,2,,,0,,,64,64
178240,set_tempo,,,,,240,1,0,560748,,,,,,
178260,control_change,,,,,0,0,2,,,0,64,0,,
178260,note_on,,,,,0,0,2,,,0,,,64,34
178260,note_off,,,,,60,0,2,,,0,,,61,64
178320,note_on,,,,,120,0,1,,,0,,,70,42
178320,control_change,,,,,0,0,2,,,0,64,127,,
178320,control_change,,,,,0,0,2,,,0,64,127,,
178320,note_on,,,,,0,0,2,,,0,,,54,41
178320,note_off,,,,,60,0,2,,,0,,,64,64
178380,note_on,,,,,0,0,2,,,0,,,64,33
178380,note_off,,,,,60,0,2,,,0,,,54,64
178440,note_on,,,,,0,0,2,,,0,,,61,29
178440,note_off,,,,,60,0,2,,,0,,,64,64
178500,note_off,,,,,60,0,2,,,0,,,61,64
178500,note_on,,,,,0,0,2,,,0,,,64,24
178500,control_change,,,,,0,0,2,,,0,64,0,,
178500,note_off,,,,,180,0,1,,,0,,,70,64
178560,note_on,,,,,0,0,1,,,0,,,66,55
178560,control_change,,,,,0,0,2,,,0,64,127,,
178560,note_on,,,,,60,0,1,,,0,,,70,55
178560,note_on,,,,,0,0,2,,,0,,,54,34
178560,note_off,,,,,60,0,2,,,0,,,64,64
178560,control_change,,,,,0,0,2,,,0,64,127,,
178620,note_off,,,,,60,0,2,,,0,,,54,64
178620,note_on,,,,,0,0,2,,,0,,,64,33
178680,note_off,,,,,60,0,2,,,0,,,64,64
178680,note_on,,,,,0,0,2,,,0,,,61,35
178700,set_tempo,,,,,460,1,0,535714,,,,,,
178740,note_off,,,,,60,0,2,,,0,,,61,64
178740,note_on,,,,,0,0,2,,,0,,,64,40
178770,control_change,,,,,30,0,2,,,0,64,0,,
178780,set_tempo,,,,,80,1,0,517241,,,,,,
178800,control_change,,,,,0,0,2,,,0,64,127,,
178800,note_on,,,,,0,0,1,,,0,,,66,52
178800,note_on,,,,,0,0,1,,,0,,,71,52
178800,note_off,,,,,0,0,1,,,0,,,70,64
178800,note_off,,,,,240,0,1,,,0,,,66,64
178800,note_off,,,,,30,0,2,,,0,,,64,64
178800,note_on,,,,,0,0,2,,,0,,,54,41
178800,control_change,,,,,0,0,2,,,0,64,127,,
178860,note_off,,,,,60,0,2,,,0,,,54,64
178860,note_on,,,,,0,0,2,,,0,,,64,43
178920,note_on,,,,,0,0,2,,,0,,,61,45
178920,note_off,,,,,60,0,2,,,0,,,64,64
178920,set_tempo,,,,,140,1,0,495868,,,,,,
178980,note_on,,,,,0,0,2,,,0,,,64,47
178980,note_off,,,,,60,0,2,,,0,,,61,64
179000,set_tempo,,,,,80,1,0,491803,,,,,,
179010,control_change,,,,,30,0,2,,,0,64,0,,
179020,set_tempo,,,,,20,1,0,480000,,,,,,
179040,note_off,,,,,30,0,2,,,0,,,64,64
179040,note_on,,,,,0,0,2,,,0,,,54,48
179040,control_change,,,,,0,0,2,,,0,64,127,,
179040,control_change,,,,,0,0,2,,,0,64,127,,
179040,note_off,,,,,240,0,1,,,0,,,66,64
179040,note_off,,,,,0,0,1,,,0,,,71,64
179040,note_on,,,,,0,0,1,,,0,,,73,57
179040,note_on,,,,,0,0,1,,,0,,,70,57
179040,note_on,,,,,0,0,1,,,0,,,66,57
179100,note_off,,,,,60,0,2,,,0,,,54,64
179100,note_on,,,,,0,0,2,,,0,,,61,49
179120,set_tempo,,,,,100,1,0,476190,,,,,,
179160,note_off,,,,,60,0,2,,,0,,,61,64
179160,note_on,,,,,0,0,2,,,0,,,58,51
179160,set_tempo,,,,,40,1,0,472441,,,,,,
179220,note_off,,,,,60,0,2,,,0,,,58,64
179220,note_on,,,,,0,0,2,,,0,,,61,52
179250,control_change,,,,,30,0,2,,,0,64,0,,
179280,note_off,,,,,30,0,2,,,0,,,61,64
179280,control_change,,,,,0,0,2,,,0,64,127,,
179280,control_change,,,,,0,0,2,,,0,64,127,,
179280,note_off,,,,,240,0,1,,,0,,,66,64
179280,note_off,,,,,0,0,1,,,0,,,70,64
179280,note_on,,,,,0,0,1,,,0,,,74,63
179280,note_on,,,,,0,0,1,,,0,,,71,63
179280,note_off,,,,,0,0,1,,,0,,,73,64
179280,set_tempo,,,,,120,1,0,468750,,,,,,
179280,note_on,,,,,0,0,2,,,0,,,54,53
179280,note_on,,,,,0,0,1,,,0,,,66,63
179300,set_tempo,,,,,20,1,0,465116,,,,,,
179320,set_tempo,,,,,20,1,0,458015,,,,,,
179340,note_off,,,,,60,0,2,,,0,,,54,64
179340,note_on,,,,,0,0,2,,,0,,,62,55
179380,set_tempo,,,,,60,1,0,454545,,,,,,
179400,note_off,,,,,60,0,2,,,0,,,62,64
179400,note_on,,,,,0,0,2,,,0,,,59,58
179460,set_tempo,,,,,80,1,0,451128,,,,,,
179460,note_off,,,,,60,0,2,,,0,,,59,64
179460,note_on,,,,,0,0,2,,,0,,,62,61
179490,control_change,,,,,30,0,2,,,0,64,0,,
179520,note_on,,,,,0,0,2,,,0,,,54,64
179520,note_on,,,,,0,0,1,,,0,,,73,66
179520,note_off,,,,,30,0,2,,,0,,,62,64
179520,control_change,,,,,0,0,2,,,0,64,127,,
179520,note_on,,,,,0,0,1,,,0,,,76,66
179520,note_off,,,,,0,0,1,,,0,,,74,64
179520,note_off,,,,,0,0,1,,,0,,,71,64
179520,note_off,,,,,240,0,1,,,0,,,66,64
179520,control_change,,,,,0,0,2,,,0,64,127,,
179520,note_on,,,,,0,0,1,,,0,,,66,66
179560,set_tempo,,,,,100,1,0,447761,,,,,,
179580,note_on,,,,,0,0,2,,,0,,,64,67
179580,note_off,,,,,60,0,2,,,0,,,54,64
179620,set_tempo,,,,,60,1,0,441176,,,,,,
179640,note_on,,,,,0,0,2,,,0,,,61,69
179640,note_off,,,,,60,0,2,,,0,,,64,64
179700,set_tempo,,,,,80,1,0,434783,,,,,,
179700,note_off,,,,,60,0,2,,,0,,,61,64
179700,note_on,,,,,0,0,2,,,0,,,64,71
179730,control_change,,,,,30,0,2,,,0,64,0,,
179760,note_off,,,,,0,0,1,,,0,,,73,64
179760,note_off,,,,,0,0,1,,,0,,,76,64
179760,note_on,,,,,0,0,1,,,0,,,76,70
179760,note_on,,,,,0,0,1,,,0,,,73,70
179760,note_on,,,,,0,0,1,,,0,,,67,70
179760,set_tempo,,,,,60,1,0,431655,,,,,,
179760,note_off,,,,,240,0,1,,,0,,,66,64
179760,note_on,,,,,0,0,2,,,0,,,55,74
179760,note_off,,,,,30,0,2,,,0,,,64,64
179760,control_change,,,,,0,0,2,,,0,64,127,,
179760,control_change,,,,,0,0,2,,,0,64,127,,
179820,note_on,,,,,0,0,2,,,0,,,64,75
179820,note_off,,,,,60,0,2,,,0,,,55,64
179880,note_off,,,,,60,0,2,,,0,,,64,64
179880,note_on,,,,,0,0,2,,,0,,,61,76
179880,set_tempo,,,,,120,1,0,425532,,,,,,
179940,note_on,,,,,0,0,2,,,0,,,64,70
179940,note_off,,,,,60,0,2,,,0,,,61,64
179970,control_change,,,,,30,0,2,,,0,64,0,,
180000,note_on,,,,,0,0,1,,,0,,,73,78
180000,note_off,,,,,0,0,1,,,0,,,73,64
180000,note_on,,,,,0,0,1,,,0,,,68,78
180000,set_tempo,,,,,120,1,0,422535,,,,,,
180000,note_on,,,,,0,0,1,,,0,,,76,78
180000,note_off,,,,,0,0,1,,,0,,,76,64
180000,note_off,,,,,240,0,1,,,0,,,67,64
180000,note_off,,,,,30,0,2,,,0,,,64,64
180000,note_on,,,,,0,0,2,,,0,,,56,83
180000,control_change,,,,,0,0,2,,,0,64,127,,
180000,control_change,,,,,0,0,2,,,0,64,127,,
180060,note_off,,,,,60,0,2,,,0,,,56,64
180060,note_on,,,,,0,0,2,,,0,,,64,87
180080,set_tempo,,,,,80,1,0,419580,,,,,,
180120,note_off,,,,,60,0,2,,,0,,,64,64
180120,note_on,,,,,0,0,2,,,0,,,61,83
180180,note_on,,,,,0,0,2,,,0,,,64,84
180180,note_off,,,,,60,0,2,,,0,,,61,64
180210,control_change,,,,,30,0,2,,,0,64,0,,
180220,set_tempo,,,,,140,1,0,416667,,,,,,
180240,note_off,,,,,30,0,2,,,0,,,64,64
180240,note_on,,,,,0,0,2,,,0,,,57,97
180240,control_change,,,,,0,0,2,,,0,64,127,,
180240,control_change,,,,,0,0,2,,,0,64,127,,
180240,note_on,,,,,0,0,1,,,0,,,69,90
180240,note_on,,,,,0,0,1,,,0,,,73,90
180240,note_off,,,,,0,0,1,,,0,,,73,64
180240,note_off,,,,,0,0,1,,,0,,,76,64
180240,note_off,,,,,240,0,1,,,0,,,68,64
180240,note_on,,,,,0,0,1,,,0,,,76,90
180300,note_off,,,,,60,0,2,,,0,,,57,64
180300,note_on,,,,,0,0,2,,,0,,,64,93
180360,note_off,,,,,60,0,2,,,0,,,64,64
180360,note_on,,,,,0,0,2,,,0,,,61,88
180400,set_tempo,,,,,180,1,0,408163,,,,,,
180420,note_off,,,,,60,0,2,,,0,,,61,64
180420,note_on,,,,,0,0,2,,,0,,,64,83
180440,set_tempo,,,,,40,1,0,1538462,,,,,,
180450,control_change,,,,,30,0,2,,,0,64,0,,
180480,note_off,,,,,0,0,1,,,0,,,73,64
180480,note_off,,,,,0,0,1,,,0,,,76,64
180480,note_on,,,,,0,0,1,,,0,,,76,50
180480,note_off,,,,,30,0,2,,,0,,,64,64
180480,note_on,,,,,0,0,2,,,0,,,57,45
180480,control_change,,,,,0,0,2,,,0,64,127,,
180480,set_tempo,,,,,40,1,0,566038,,,,,,
180480,note_off,,,,,240,0,1,,,0,,,69,64
180540,note_off,,,,,60,0,2,,,0,,,57,64
180540,note_on,,,,,0,0,2,,,0,,,64,38
180560,set_tempo,,,,,80,1,0,526316,,,,,,
180600,note_off,,,,,60,0,2,,,0,,,64,64
180600,set_tempo,,,,,40,1,0,500000,,,,,,
180600,note_on,,,,,0,0,2,,,0,,,61,35
180620,set_tempo,,,,,20,1,0,495868,,,,,,
180640,set_tempo,,,,,20,1,0,483871,,,,,,
180660,note_off,,,,,60,0,2,,,0,,,61,64
180660,note_on,,,,,0,0,2,,,0,,,64,33
180720,note_off,,,,,60,0,2,,,0,,,64,64
180720,note_on,,,,,0,0,2,,,0,,,58,33
180760,set_tempo,,,,,120,1,0,458015,,,,,,
180780,note_on,,,,,0,0,2,,,0,,,64,33
180780,note_off,,,,,60,0,2,,,0,,,58,64
180780,note_on,,,,,0,0,1,,,0,,,77,44
180780,note_off,,,,,300,0,1,,,0,,,76,64
180840,note_on,,,,,0,0,1,,,0,,,76,42
180840,note_off,,,,,60,0,1,,,0,,,77,64
180840,note_on,,,,,0,0,2,,,0,,,61,32
180840,note_off,,,,,60,0,2,,,0,,,64,64
180880,set_tempo,,,,,120,1,0,441176,,,,,,
180900,note_on,,,,,0,0,2,,,0,,,64,30
180900,note_on,,,,,0,0,1,,,0,,,74,40
180900,note_off,,,,,60,0,1,,,0,,,76,64
180900,note_off,,,,,60,0,2,,,0,,,61,64
180900,control_change,,,,,0,0,2,,,0,64,0,,
180900,set_tempo,,,,,20,1,0,428571,,,,,,
180960,note_off,,,,,60,0,2,,,0,,,64,64
180960,control_change,,,,,0,0,2,,,0,64,127,,
180960,note_on,,,,,0,0,2,,,0,,,58,37
180960,note_off,,,,,60,0,1,,,0,,,74,64
180960,note_on,,,,,0,0,1,,,0,,,73,38
180960,control_change,,,,,0,0,2,,,0,64,127,,
181020,note_on,,,,,0,0,2,,,0,,,64,27
181020,note_off,,,,,60,0,2,,,0,,,58,64
181020,set_tempo,,,,,120,1,0,416667,,,,,,
181080,note_off,,,,,120,0,1,,,0,,,73,64
181080,note_off,,,,,60,0,2,,,0,,,64,64
181080,note_on,,,,,0,0,2,,,0,,,61,30
181140,note_off,,,,,60,0,2,,,0,,,61,64
181140,control_change,,,,,0,0,2,,,0,64,0,,
181140,note_on,,,,,0,0,2,,,0,,,64,34
181200,note_off,,,,,60,0,2,,,0,,,64,64
181200,note_on,,,,,0,0,2,,,0,,,57,41
181200,control_change,,,,,0,0,2,,,0,64,127,,
181200,control_change,,,,,0,0,2,,,0,64,127,,
181200,note_on,,,,,120,0,1,,,0,,,73,42
181260,note_on,,,,,0,0,2,,,0,,,64,32
181260,note_off,,,,,60,0,2,,,0,,,57,64
181320,note_on,,,,,0,0,2,,,0,,,61,35
181320,note_off,,,,,60,0,2,,,0,,,64,64
181380,control_change,,,,,0,0,2,,,0,64,0,,
181380,note_on,,,,,0,0,2,,,0,,,64,36
181380,note_off,,,,,60,0,2,,,0,,,61,64
181380,note_off,,,,,180,0,1,,,0,,,73,64
181400,set_tempo,,,,,380,1,0,476190,,,,,,
181440,note_off,,,,,60,0,2,,,0,,,64,64
181440,note_on,,,,,0,0,2,,,0,,,55,38
181440,note_on,,,,,60,0,1,,,0,,,73,50
181440,control_change,,,,,0,0,2,,,0,64,127,,
181500,note_on,,,,,0,0,2,,,0,,,64,33
181500,note_off,,,,,60,0,2,,,0,,,55,64
181540,set_tempo,,,,,140,1,0,431655,,,,,,
181560,note_off,,,,,60,0,2,,,0,,,64,64
181560,note_on,,,,,0,0,2,,,0,,,61,29
181620,note_off,,,,,60,0,2,,,0,,,61,64
181620,note_on,,,,,0,0,2,,,0,,,64,28
181680,note_off,,,,,60,0,2,,,0,,,64,64
181680,note_on,,,,,0,0,2,,,0,,,55,29
181740,note_off,,,,,60,0,2,,,0,,,55,64
181740,note_on,,,,,0,0,2,,,0,,,64,25
181740,note_on,,,,,0,0,1,,,0,,,74,46
181740,note_off,,,,,300,0,1,,,0,,,73,64
181780,set_tempo,,,,,240,1,0,441176,,,,,,
181800,note_on,,,,,0,0,2,,,0,,,61,29
181800,note_on,,,,,0,0,1,,,0,,,73,44
181800,note_off,,,,,60,0,1,,,0,,,74,64
181800,note_off,,,,,60,0,2,,,0,,,64,64
181860,note_off,,,,,60,0,2,,,0,,,61,64
181860,note_on,,,,,0,0,1,,,0,,,71,38
181860,note_off,,,,,60,0,1,,,0,,,73,64
181860,note_on,,,,,0,0,2,,,0,,,64,31
181860,control_change,,,,,0,0,2,,,0,64,0,,
181920,note_on,,,,,0,0,1,,,0,,,70,33
181920,note_off,,,,,60,0,1,,,0,,,71,64
181920,note_off,,,,,60,0,2,,,0,,,64,64
181920,note_on,,,,,0,0,2,,,0,,,55,37
181920,control_change,,,,,0,0,2,,,0,64,127,,
181920,control_change,,,,,0,0,2,,,0,64,127,,
181960,set_tempo,,,,,180,1,0,454545,,,,,,
181980,note_off,,,,,60,0,2,,,0,,,55,64
181980,note_on,,,,,0,0,2,,,0,,,64,27
182040,note_off,,,,,60,0,2,,,0,,,64,64
182040,note_off,,,,,120,0,1,,,0,,,70,64
182040,note_on,,,,,0,0,2,,,0,,,61,30
182100,control_change,,,,,0,0,2,,,0,64,0,,
182100,note_off,,,,,60,0,2,,,0,,,61,64
182100,note_on,,,,,0,0,2,,,0,,,64,34
182160,note_on,,,,,120,0,1,,,0,,,70,36
182160,note_off,,,,,60,0,2,,,0,,,64,64
182160,control_change,,,,,0,0,2,,,0,64,127,,
182160,note_on,,,,,0,0,2,,,0,,,54,41
182160,control_change,,,,,0,0,2,,,0,64,127,,
182180,set_tempo,,,,,220,1,0,480000,,,,,,
182220,note_off,,,,,60,0,2,,,0,,,54,64
182220,note_on,,,,,0,0,2,,,0,,,64,33
182280,set_tempo,,,,,100,1,0,500000,,,,,,
182280,note_on,,,,,0,0,2,,,0,,,61,29
182280,note_off,,,,,60,0,2,,,0,,,64,64
182340,note_on,,,,,0,0,2,,,0,,,64,24
182340,note_off,,,,,60,0,2,,,0,,,61,64
182340,note_off,,,,,180,0,1,,,0,,,70,64
182340,control_change,,,,,0,0,2,,,0,64,0,,
182400,control_change,,,,,0,0,2,,,0,64,127,,
182400,note_on,,,,,0,0,1,,,0,,,66,43
182400,set_tempo,,,,,120,1,0,458015,,,,,,
182400,note_on,,,,,60,0,1,,,0,,,70,43
182400,note_off,,,,,60,0,2,,,0,,,64,64
182400,control_change,,,,,0,0,2,,,0,64,127,,
182400,note_on,,,,,0,0,2,,,0,,,54,34
182460,note_off,,,,,60,0,2,,,0,,,54,64
182460,note_on,,,,,0,0,2,,,0,,,64,33
182520,note_off,,,,,60,0,2,,,0,,,64,64
182520,note_on,,,,,0,0,2,,,0,,,61,35
182560,note_off,,,,,0,0,1,,,0,,,70,64
182560,note_off,,,,,160,0,1,,,0,,,66,64
182580,note_on,,,,,0,0,2,,,0,,,64,40
182580,note_on,,,,,0,0,1,,,0,,,66,48
182580,note_on,,,,,20,0,1,,,0,,,70,48
182580,note_off,,,,,60,0,2,,,0,,,61,64
182610,control_change,,,,,30,0,2,,,0,64,0,,
182624,note_off,,,,,44,0,1,,,0,,,66,64
182624,note_off,,,,,0,0,1,,,0,,,70,64
182640,note_on,,,,,16,0,1,,,0,,,71,52
182640,note_on,,,,,0,0,1,,,0,,,66,52
182640,note_off,,,,,30,0,2,,,0,,,64,64
182640,control_change,,,,,0,0,2,,,0,64,127,,
182640,control_change,,,,,0,0,2,,,0,64,127,,
182640,note_on,,,,,0,0,2,,,0,,,54,41
182640,set_tempo,,,,,240,1,0,451128,,,,,,
182680,set_tempo,,,,,40,1,0,447761,,,,,,
182700,note_off,,,,,60,0,2,,,0,,,54,64
182700,note_on,,,,,0,0,2,,,0,,,64,43
182760,note_off,,,,,60,0,2,,,0,,,64,64
182760,note_on,,,,,0,0,2,,,0,,,61,45
182760,set_tempo,,,,,80,1,0,444444,,,,,,
182780,set_tempo,,,,,20,1,0,441176,,,,,,
182800,note_off,,,,,160,0,1,,,0,,,66,64
182800,note_off,,,,,0,0,1,,,0,,,71,64
182820,note_off,,,,,60,0,2,,,0,,,61,64
182820,note_on,,,,,0,0,2,,,0,,,64,47
182820,note_on,,,,,20,0,1,,,0,,,71,42
182820,note_on,,,,,0,0,1,,,0,,,66,42
182850,control_change,,,,,30,0,2,,,0,64,0,,
182864,note_off,,,,,0,0,1,,,0,,,71,64
182864,note_off,,,,,44,0,1,,,0,,,66,64
182880,note_on,,,,,16,0,1,,,0,,,73,55
182880,note_on,,,,,0,0,2,,,0,,,54,48
182880,control_change,,,,,0,0,2,,,0,64,127,,
182880,control_change,,,,,0,0,2,,,0,64,127,,
182880,note_off,,,,,30,0,2,,,0,,,64,64
182880,note_on,,,,,0,0,1,,,0,,,66,55
182880,note_on,,,,,0,0,1,,,0,,,70,55
182940,note_on,,,,,0,0,2,,,0,,,61,49
182940,note_off,,,,,60,0,2,,,0,,,54,64
182960,set_tempo,,,,,180,1,0,434783,,,,,,
182980,set_tempo,,,,,20,1,0,431655,,,,,,
183000,note_on,,,,,0,0,2,,,0,,,58,51
183000,note_off,,,,,60,0,2,,,0,,,61,64
183040,note_off,,,,,0,0,1,,,0,,,70,64
183040,note_off,,,,,160,0,1,,,0,,,66,64
183040,note_off,,,,,0,0,1,,,0,,,73,64
183060,note_on,,,,,0,0,1,,,0,,,66,45
183060,note_on,,,,,0,0,1,,,0,,,70,45
183060,note_on,,,,,20,0,1,,,0,,,73,45
183060,note_on,,,,,0,0,2,,,0,,,61,52
183060,note_off,,,,,60,0,2,,,0,,,58,64
183090,control_change,,,,,30,0,2,,,0,64,0,,
183104,note_off,,,,,44,0,1,,,0,,,66,64
183104,note_off,,,,,0,0,1,,,0,,,70,64
183104,note_off,,,,,0,0,1,,,0,,,73,64
183120,control_change,,,,,0,0,2,,,0,64,127,,
183120,control_change,,,,,0,0,2,,,0,64,127,,
183120,note_off,,,,,30,0,2,,,0,,,61,64
183120,note_on,,,,,0,0,2,,,0,,,54,53
183120,note_on,,,,,0,0,1,,,0,,,66,60
183120,note_on,,,,,0,0,1,,,0,,,71,60
183120,note_on,,,,,16,0,1,,,0,,,74,60
183160,set_tempo,,,,,180,1,0,419580,,,,,,
183180,note_off,,,,,60,0,2,,,0,,,54,64
183180,note_on,,,,,0,0,2,,,0,,,62,55
183240,note_on,,,,,0,0,2,,,0,,,59,58
183240,note_off,,,,,60,0,2,,,0,,,62,64
183280,note_off,,,,,0,0,1,,,0,,,74,64
183280,note_off,,,,,160,0,1,,,0,,,66,64
183280,note_off,,,,,0,0,1,,,0,,,71,64
183300,note_off,,,,,60,0,2,,,0,,,59,64
183300,set_tempo,,,,,140,1,0,410959,,,,,,
183300,note_on,,,,,0,0,1,,,0,,,66,50
183300,note_on,,,,,20,0,1,,,0,,,74,50
183300,note_on,,,,,0,0,2,,,0,,,62,61
183300,note_on,,,,,0,0,1,,,0,,,71,50
183320,set_tempo,,,,,20,1,0,408163,,,,,,
183330,control_change,,,,,30,0,2,,,0,64,0,,
183344,note_off,,,,,0,0,1,,,0,,,71,64
183344,note_off,,,,,0,0,1,,,0,,,74,64
183344,note_off,,,,,44,0,1,,,0,,,66,64
183360,control_change,,,,,0,0,2,,,0,64,127,,
183360,note_on,,,,,0,0,2,,,0,,,54,64
183360,control_change,,,,,0,0,2,,,0,64,127,,
183360,note_on,,,,,0,0,1,,,0,,,66,67
183360,note_on,,,,,0,0,1,,,0,,,73,67
183360,note_on,,,,,16,0,1,,,0,,,76,67
183360,note_off,,,,,30,0,2,,,0,,,62,64
183420,note_off,,,,,60,0,2,,,0,,,54,64
183420,note_on,,,,,0,0,2,,,0,,,64,67
183480,note_off,,,,,60,0,2,,,0,,,64,64
183480,note_on,,,,,0,0,2,,,0,,,61,69
183520,note_off,,,,,0,0,1,,,0,,,76,64
183520,note_off,,,,,160,0,1,,,0,,,66,64
183520,note_off,,,,,0,0,1,,,0,,,73,64
183540,note_on,,,,,0,0,2,,,0,,,64,71
183540,note_off,,,,,60,0,2,,,0,,,61,64
183540,note_on,,,,,0,0,1,,,0,,,66,57
183540,note_on,,,,,0,0,1,,,0,,,73,57
183540,note_on,,,,,20,0,1,,,0,,,76,57
183560,set_tempo,,,,,240,1,0,402685,,,,,,
183570,control_change,,,,,30,0,2,,,0,64,0,,
183584,note_off,,,,,0,0,1,,,0,,,76,64
183584,note_off,,,,,44,0,1,,,0,,,66,64
183584,note_off,,,,,0,0,1,,,0,,,73,64
183600,note_on,,,,,0,0,2,,,0,,,55,74
183600,control_change,,,,,0,0,2,,,0,64,127,,
183600,control_change,,,,,0,0,2,,,0,64,127,,
183600,note_off,,,,,30,0,2,,,0,,,64,64
183600,note_on,,,,,16,0,1,,,0,,,76,77
183600,note_on,,,,,0,0,1,,,0,,,73,77
183600,note_on,,,,,0,0,1,,,0,,,67,77
183660,note_off,,,,,60,0,2,,,0,,,55,64
183660,note_on,,,,,0,0,2,,,0,,,64,75
183720,note_on,,,,,0,0,2,,,0,,,61,76
183720,note_off,,,,,60,0,2,,,0,,,64,64
183740,set_tempo,,,,,180,1,0,394737,,,,,,
183760,note_off,,,,,160,0,1,,,0,,,67,64
183760,note_off,,,,,0,0,1,,,0,,,73,64
183760,note_off,,,,,0,0,1,,,0,,,76,64
183780,note_on,,,,,0,0,2,,,0,,,64,70
183780,note_off,,,,,60,0,2,,,0,,,61,64
183780,note_on,,,,,20,0,1,,,0,,,76,67
183780,note_on,,,,,0,0,1,,,0,,,73,67
183780,note_on,,,,,0,0,1,,,0,,,67,67
183810,control_change,,,,,30,0,2,,,0,64,0,,
183824,note_off,,,,,0,0,1,,,0,,,76,64
183824,note_off,,,,,0,0,1,,,0,,,73,64
183824,note_off,,,,,44,0,1,,,0,,,67,64
183840,control_change,,,,,0,0,2,,,0,64,127,,
183840,note_on,,,,,0,0,1,,,0,,,73,85
183840,note_on,,,,,0,0,1,,,0,,,68,85
183840,note_off,,,,,30,0,2,,,0,,,64,64
183840,note_on,,,,,0,0,2,,,0,,,56,83
183840,control_change,,,,,0,0,2,,,0,64,127,,
183840,note_on,,,,,16,0,1,,,0,,,76,85
183900,note_on,,,,,0,0,2,,,0,,,64,87
183900,note_off,,,,,60,0,2,,,0,,,56,64
183960,note_on,,,,,0,0,2,,,0,,,61,83
183960,note_off,,,,,60,0,2,,,0,,,64,64
184000,note_off,,,,,0,0,1,,,0,,,73,64
184000,note_off,,,,,0,0,1,,,0,,,76,64
184000,note_off,,,,,160,0,1,,,0,,,68,64
184020,note_on,,,,,0,0,2,,,0,,,64,84
184020,note_off,,,,,60,0,2,,,0,,,61,64
184020,note_on,,,,,20,0,1,,,0,,,76,75
184020,note_on,,,,,0,0,1,,,0,,,68,75
184020,note_on,,,,,0,0,1,,,0,,,73,75
184050,control_change,,,,,30,0,2,,,0,64,0,,
184064,note_off,,,,,0,0,1,,,0,,,73,64
184064,note_off,,,,,0,0,1,,,0,,,76,64
184064,note_off,,,,,44,0,1,,,0,,,68,64
184080,control_change,,,,,0,0,2,,,0,64,127,,
184080,control_change,,,,,0,0,2,,,0,64,127,,
184080,note_on,,,,,0,0,2,,,0,,,57,97
184080,note_on,,,,,16,0,1,,,0,,,76,89
184080,note_on,,,,,0,0,1,,,0,,,69,89
184080,note_on,,,,,0,0,1,,,0,,,73,89
184080,note_off,,,,,30,0,2,,,0,,,64,64
184140,note_off,,,,,60,0,2,,,0,,,57,64
184140,note_on,,,,,0,0,2,,,0,,,64,93
184200,note_off,,,,,60,0,2,,,0,,,64,64
184200,note_on,,,,,0,0,2,,,0,,,61,88
184260,set_tempo,,,,,520,1,0,625000,,,,,,
184260,note_off,,,,,60,0,2,,,0,,,61,64
184260,note_on,,,,,0,0,2,,,0,,,64,83
184280,set_tempo,,,,,20,1,0,1000000,,,,,,
184290,control_change,,,,,30,0,2,,,0,64,0,,
184300,note_off,,,,,0,0,1,,,0,,,73,64
184300,note_off,,,,,220,0,1,,,0,,,69,64
184300,note_off,,,,,0,0,1,,,0,,,76,64
184320,note_off,,,,,30,0,2,,,0,,,64,64
184320,note_on,,,,,0,0,2,,,0,,,57,45
184320,control_change,,,,,0,0,2,,,0,64,127,,
184320,note_on,,,,,20,0,1,,,0,,,76,50
184340,set_tempo,,,,,60,1,0,550459,,,,,,
184360,set_tempo,,,,,20,1,0,540541,,,,,,
184380,note_off,,,,,60,0,2,,,0,,,57,64
184380,note_on,,,,,0,0,2,,,0,,,64,38
184440,note_off,,,,,60,0,2,,,0,,,64,64
184440,note_on,,,,,0,0,2,,,0,,,61,35
184500,note_off,,,,,60,0,2,,,0,,,61,64
184500,note_on,,,,,0,0,2,,,0,,,64,33
184530,control_change,,,,,30,0,2,,,0,64,0,,
184560,control_change,,,,,0,0,2,,,0,64,127,,
184560,note_off,,,,,30,0,2,,,0,,,64,64
184560,note_on,,,,,0,0,2,,,0,,,58,33
184580,set_tempo,,,,,220,1,0,508475,,,,,,
184620,note_on,,,,,0,0,2,,,0,,,64,33
184620,note_off,,,,,60,0,2,,,0,,,58,64
184640,set_tempo,,,,,60,1,0,512821,,,,,,
184680,note_on,,,,,0,0,2,,,0,,,61,32
184680,note_off,,,,,360,0,1,,,0,,,76,64
184680,note_on,,,,,0,0,1,,,0,,,74,42
184680,note_off,,,,,60,0,2,,,0,,,64,64
184740,set_tempo,,,,,100,1,0,491803,,,,,,
184740,note_off,,,,,60,0,2,,,0,,,61,64
184740,control_change,,,,,0,0,2,,,0,64,0,,
184740,note_on,,,,,0,0,2,,,0,,,64,30
184800,control_change,,,,,0,0,2,,,0,64,127,,
184800,control_change,,,,,0,0,2,,,0,64,127,,
184800,note_on,,,,,0,0,2,,,0,,,57,37
184800,note_on,,,,,0,0,1,,,0,,,73,33
184800,note_off,,,,,120,0,1,,,0,,,74,64
184800,note_off,,,,,60,0,2,,,0,,,64,64
184840,set_tempo,,,,,100,1,0,483871,,,,,,
184860,note_off,,,,,60,0,2,,,0,,,57,64
184860,note_on,,,,,0,0,2,,,0,,,64,27
184920,note_off,,,,,120,0,1,,,0,,,73,64
184920,note_off,,,,,60,0,2,,,0,,,64,64
184920,note_on,,,,,0,0,2,,,0,,,61,30
184920,set_tempo,,,,,80,1,0,465116,,,,,,
184980,note_off,,,,,60,0,2,,,0,,,61,64
184980,note_on,,,,,0,0,2,,,0,,,64,34
184980,control_change,,,,,0,0,2,,,0,64,0,,
185040,note_off,,,,,60,0,2,,,0,,,64,64
185040,note_on,,,,,120,0,1,,,0,,,73,42
185040,note_on,,,,,0,0,2,,,0,,,55,41
185040,control_change,,,,,0,0,2,,,0,64,127,,
185040,control_change,,,,,0,0,2,,,0,64,127,,
185100,note_on,,,,,0,0,2,,,0,,,64,32
185100,note_off,,,,,60,0,2,,,0,,,55,64
185160,note_on,,,,,0,0,2,,,0,,,61,35
185160,note_off,,,,,60,0,2,,,0,,,64,64
185160,set_tempo,,,,,240,1,0,451128,,,,,,
185180,set_tempo,,,,,20,1,0,447761,,,,,,
185220,note_off,,,,,60,0,2,,,0,,,61,64
185220,note_on,,,,,0,0,2,,,0,,,64,36
185220,control_change,,,,,0,0,2,,,0,64,0,,
185220,note_off,,,,,180,0,1,,,0,,,73,64
185250,note_on,,,,,30,0,1,,,0,,,76,52
185280,note_on,,,,,0,0,2,,,0,,,53,41
185280,note_off,,,,,60,0,2,,,0,,,64,64
185280,control_change,,,,,0,0,2,,,0,64,127,,
185280,control_change,,,,,0,0,2,,,0,64,127,,
185280,note_on,,,,,0,0,1,,,0,,,74,50
185280,note_off,,,,,30,0,1,,,0,,,76,64
185340,note_on,,,,,0,0,1,,,0,,,73,49
185340,note_off,,,,,60,0,1,,,0,,,74,64
185340,note_off,,,,,60,0,2,,,0,,,53,64
185340,note_on,,,,,0,0,2,,,0,,,62,32
185400,note_on,,,,,0,0,1,,,0,,,74,49
185400,note_off,,,,,60,0,1,,,0,,,73,64
185400,note_off,,,,,60,0,2,,,0,,,62,64
185400,note_on,,,,,0,0,2,,,0,,,57,35
185420,set_tempo,,,,,240,1,0,431655,,,,,,
185460,note_on,,,,,0,0,2,,,0,,,62,36
185460,note_on,,,,,0,0,1,,,0,,,76,50
185460,note_off,,,,,60,0,2,,,0,,,57,64
185460,note_off,,,,,60,0,1,,,0,,,74,64
185460,set_tempo,,,,,40,1,0,428571,,,,,,
185460,control_change,,,,,0,0,2,,,0,64,0,,
185490,note_on,,,,,0,0,1,,,0,,,79,52
185490,note_off,,,,,30,0,1,,,0,,,76,64
185520,control_change,,,,,0,0,2,,,0,64,127,,
185520,note_on,,,,,0,0,2,,,0,,,52,41
185520,note_off,,,,,60,0,2,,,0,,,62,64
185520,note_on,,,,,0,0,1,,,0,,,77,54
185520,note_off,,,,,30,0,1,,,0,,,79,64
185520,control_change,,,,,0,0,2,,,0,64,127,,
185580,note_off,,,,,60,0,2,,,0,,,52,64
185580,note_on,,,,,0,0,2,,,0,,,62,35
185580,note_on,,,,,0,0,1,,,0,,,76,57
185580,note_off,,,,,60,0,1,,,0,,,77,64
185640,note_on,,,,,0,0,1,,,0,,,77,61
185640,note_on,,,,,0,0,2,,,0,,,55,40
185640,note_off,,,,,60,0,1,,,0,,,76,64
185640,note_off,,,,,60,0,2,,,0,,,62,64
185700,note_off,,,,,60,0,2,,,0,,,55,64
185700,note_on,,,,,0,0,2,,,0,,,62,42
185700,control_change,,,,,0,0,2,,,0,64,0,,
185700,note_off,,,,,60,0,1,,,0,,,77,64
185700,set_tempo,,,,,240,1,0,410959,,,,,,
185700,note_on,,,,,0,0,1,,,0,,,79,66
185760,note_off,,,,,60,0,1,,,0,,,79,64
185760,control_change,,,,,0,0,2,,,0,64,127,,
185760,note_on,,,,,0,0,1,,,0,,,81,70
185760,note_on,,,,,0,0,2,,,0,,,50,45
185760,control_change,,,,,0,0,2,,,0,64,127,,
185760,note_off,,,,,60,0,2,,,0,,,62,64
185820,note_off,,,,,60,0,2,,,0,,,50,64
185820,note_on,,,,,0,0,2,,,0,,,62,47
185860,set_tempo,,,,,160,1,0,434783,,,,,,
185880,set_tempo,,,,,20,1,0,441176,,,,,,
185880,note_on,,,,,0,0,2,,,0,,,53,45
185880,note_off,,,,,60,0,2,,,0,,,62,64
185880,note_off,,,,,120,0,1,,,0,,,81,64
185940,control_change,,,,,0,0,2,,,0,64,0,,
185940,note_on,,,,,0,0,2,,,0,,,62,43
185940,note_off,,,,,60,0,2,,,0,,,53,64
186000,control_change,,,,,0,0,2,,,0,64,127,,
186000,note_on,,,,,120,0,1,,,0,,,81,50
186000,note_off,,,,,60,0,2,,,0,,,62,64
186000,note_on,,,,,0,0,2,,,0,,,53,43
186000,control_change,,,,,0,0,2,,,0,64,127,,
186060,note_on,,,,,0,0,2,,,0,,,62,41
186060,note_off,,,,,60,0,2,,,0,,,53,64
186080,set_tempo,,,,,200,1,0,451128,,,,,,
186120,note_off,,,,,120,0,1,,,0,,,81,64
186120,note_on,,,,,0,0,2,,,0,,,57,39
186120,note_off,,,,,60,0,2,,,0,,,62,64
186120,note_on,,,,,0,0,1,,,0,,,77,47
186180,note_on,,,,,0,0,2,,,0,,,62,36
186180,control_change,,,,,0,0,2,,,0,64,0,,
186180,note_off,,,,,60,0,2,,,0,,,57,64
186210,note_off,,,,,90,0,1,,,0,,,77,64
186220,set_tempo,,,,,140,1,0,495868,,,,,,
186240,control_change,,,,,0,0,2,,,0,64,127,,
186240,note_on,,,,,0,0,2,,,0,,,57,45
186240,note_off,,,,,60,0,2,,,0,,,62,64
186240,note_on,,,,,30,0,1,,,0,,,76,50
186300,note_on,,,,,0,0,2,,,0,,,64,38
186300,note_off,,,,,60,0,2,,,0,,,57,64
186360,note_off,,,,,60,0,2,,,0,,,64,64
186360,note_on,,,,,0,0,2,,,0,,,61,35
186420,note_on,,,,,0,0,2,,,0,,,64,33
186420,note_off,,,,,60,0,2,,,0,,,61,64
186450,control_change,,,,,30,0,2,,,0,64,0,,
186480,note_off,,,,,30,0,2,,,0,,,64,64
186480,note_on,,,,,0,0,2,,,0,,,58,33
186480,control_change,,,,,0,0,2,,,0,64,127,,
186520,set_tempo,,,,,300,1,0,491803,,,,,,
186540,set_tempo,,,,,20,1,0,468750,,,,,,
186540,note_off,,,,,60,0,2,,,0,,,58,64
186540,note_on,,,,,0,0,2,,,0,,,64,33
186600,note_on,,,,,0,0,1,,,0,,,74,42
186600,note_off,,,,,60,0,2,,,0,,,64,64
186600,note_on,,,,,0,0,2,,,0,,,61,32
186600,note_off,,,,,360,0,1,,,0,,,76,64
186660,note_off,,,,,60,0,2,,,0,,,61,64
186660,control_change,,,,,0,0,2,,,0,64,0,,
186660,note_on,,,,,0,0,2,,,0,,,64,30
186720,note_off,,,,,60,0,2,,,0,,,64,64
186720,note_on,,,,,0,0,2,,,0,,,57,37
186720,control_change,,,,,0,0,2,,,0,64,127,,
186720,control_change,,,,,0,0,2,,,0,64,127,,
186720,note_off,,,,,120,0,1,,,0,,,74,64
186720,note_on,,,,,0,0,1,,,0,,,73,33
186780,note_off,,,,,60,0,2,,,0,,,57,64
186780,note_on,,,,,0,0,2,,,0,,,64,32
186840,note_off,,,,,120,0,1,,,0,,,73,64
186840,note_on,,,,,0,0,2,,,0,,,61,35
186840,note_off,,,,,60,0,2,,,0,,,64,64
186900,control_change,,,,,0,0,2,,,0,64,0,,
186900,note_off,,,,,60,0,2,,,0,,,61,64
186900,note_on,,,,,0,0,2,,,0,,,64,38
186960,note_off,,,,,60,0,2,,,0,,,64,64
186960,note_on,,,,,0,0,2,,,0,,,55,43
186960,control_change,,,,,0,0,2,,,0,64,127,,
186960,note_on,,,,,0,0,1,,,0,,,73,53
186960,note_on,,,,,120,0,1,,,0,,,85,53
186960,control_change,,,,,0,0,2,,,0,64,127,,
186980,set_tempo,,,,,440,1,0,451128,,,,,,
187020,note_off,,,,,60,0,2,,,0,,,55,64
187020,note_on,,,,,0,0,2,,,0,,,64,36
187080,note_on,,,,,0,0,2,,,0,,,61,31
187080,note_off,,,,,60,0,2,,,0,,,64,64
187140,note_off,,,,,180,0,1,,,0,,,73,64
187140,note_off,,,,,0,0,1,,,0,,,85,64
187140,control_change,,,,,0,0,2,,,0,64,0,,
187140,note_on,,,,,0,0,2,,,0,,,64,27
187140,note_off,,,,,60,0,2,,,0,,,61,64
187200,control_change,,,,,0,0,2,,,0,64,127,,
187200,control_change,,,,,0,0,2,,,0,64,127,,
187200,note_on,,,,,0,0,2,,,0,,,53,49
187200,note_off,,,,,60,0,2,,,0,,,64,64
187200,note_on,,,,,60,0,1,,,0,,,86,57
187200,note_on,,,,,0,0,1,,,0,,,74,57
187260,note_on,,,,,0,0,2,,,0,,,65,38
187260,note_off,,,,,60,0,2,,,0,,,53,64
187320,note_off,,,,,60,0,2,,,0,,,65,64
187320,note_off,,,,,120,0,1,,,0,,,74,64
187320,note_off,,,,,0,0,1,,,0,,,86,64
187320,note_on,,,,,0,0,1,,,0,,,89,55
187320,note_on,,,,,0,0,1,,,0,,,77,55
187320,note_on,,,,,0,0,2,,,0,,,62,40
187380,control_change,,,,,0,0,2,,,0,64,0,,
187380,note_on,,,,,0,0,2,,,0,,,65,41
187380,note_off,,,,,60,0,2,,,0,,,62,64
187440,note_off,,,,,120,0,1,,,0,,,77,64
187440,note_off,,,,,60,0,2,,,0,,,65,64
187440,note_on,,,,,0,0,2,,,0,,,53,45
187440,control_change,,,,,0,0,2,,,0,64,127,,
187440,control_change,,,,,0,0,2,,,0,64,127,,
187440,set_tempo,,,,,460,1,0,447761,,,,,,
187440,note_off,,,,,0,0,1,,,0,,,89,64
187440,note_on,,,,,0,0,1,,,0,,,79,59
187440,note_on,,,,,0,0,1,,,0,,,91,59
187500,note_on,,,,,0,0,2,,,0,,,65,47
187500,note_off,,,,,60,0,2,,,0,,,53,64
187560,note_off,,,,,60,0,2,,,0,,,65,64
187560,note_off,,,,,120,0,1,,,0,,,79,64
187560,note_off,,,,,0,0,1,,,0,,,91,64
187560,note_on,,,,,0,0,2,,,0,,,62,50
187560,note_on,,,,,0,0,1,,,0,,,93,65
187560,note_on,,,,,0,0,1,,,0,,,81,65
187620,note_on,,,,,0,0,2,,,0,,,65,56
187620,control_change,,,,,0,0,2,,,0,64,0,,
187620,note_off,,,,,60,0,2,,,0,,,62,64
187680,note_on,,,,,0,0,1,,,0,,,82,74
187680,note_on,,,,,0,0,1,,,0,,,94,74
187680,note_off,,,,,0,0,1,,,0,,,93,64
187680,set_tempo,,,,,240,1,0,441176,,,,,,
187680,note_on,,,,,0,0,2,,,0,,,53,59
187680,control_change,,,,,0,0,2,,,0,64,127,,
187680,control_change,,,,,0,0,2,,,0,64,127,,
187680,note_off,,,,,120,0,1,,,0,,,81,64
187680,note_off,,,,,60,0,2,,,0,,,65,64
187740,note_off,,,,,60,0,2,,,0,,,53,64
187740,note_on,,,,,0,0,2,,,0,,,65,57
187800,note_off,,,,,60,0,2,,,0,,,65,64
187800,note_on,,,,,0,0,2,,,0,,,62,53
187860,note_off,,,,,60,0,2,,,0,,,62,64
187860,control_change,,,,,0,0,2,,,0,64,0,,
187860,note_off,,,,,180,0,1,,,0,,,82,64
187860,note_off,,,,,0,0,1,,,0,,,94,64
187860,note_on,,,,,0,0,2,,,0,,,65,48
187920,note_off,,,,,60,0,2,,,0,,,65,64
187920,note_on,,,,,0,0,2,,,0,,,53,51
187920,control_change,,,,,0,0,2,,,0,64,127,,
187920,note_on,,,,,60,0,1,,,0,,,91,67
187920,note_on,,,,,0,0,1,,,0,,,79,67
187920,control_change,,,,,0,0,2,,,0,64,127,,
187980,note_off,,,,,60,0,2,,,0,,,53,64
187980,note_on,,,,,0,0,2,,,0,,,67,48
188040,note_off,,,,,60,0,2,,,0,,,67,64
188040,note_on,,,,,0,0,2,,,0,,,63,43
188060,set_tempo,,,,,380,1,0,451128,,,,,,
188100,control_change,,,,,0,0,2,,,0,64,0,,
188100,note_off,,,,,60,0,2,,,0,,,63,64
188100,note_on,,,,,0,0,2,,,0,,,67,39
188160,note_on,,,,,0,0,1,,,0,,,77,70
188160,note_off,,,,,60,0,2,,,0,,,67,64
188160,note_on,,,,,0,0,2,,,0,,,53,46
188160,control_change,,,,,0,0,2,,,0,64,127,,
188160,control_change,,,,,0,0,2,,,0,64,127,,
188160,note_off,,,,,240,0,1,,,0,,,79,64
188160,note_off,,,,,0,0,1,,,0,,,91,64
188160,note_on,,,,,0,0,1,,,0,,,89,70
188180,set_tempo,,,,,120,1,0,465116,,,,,,
188220,note_on,,,,,0,0,2,,,0,,,65,45
188220,note_off,,,,,60,0,2,,,0,,,53,64
188280,note_on,,,,,0,0,2,,,0,,,62,39
188280,note_off,,,,,60,0,2,,,0,,,65,64
188340,note_off,,,,,60,0,2,,,0,,,62,64
188340,note_on,,,,,0,0,2,,,0,,,65,36
188340,control_change,,,,,0,0,2,,,0,64,0,,
188400,control_change,,,,,0,0,2,,,0,64,127,,
188400,note_off,,,,,240,0,1,,,0,,,77,64
188400,note_off,,,,,0,0,1,,,0,,,89,64
188400,note_on,,,,,0,0,1,,,0,,,87,54
188400,note_on,,,,,0,0,1,,,0,,,75,54
188400,note_on,,,,,0,0,2,,,0,,,53,40
188400,control_change,,,,,0,0,2,,,0,64,127,,
188400,note_off,,,,,60,0,2,,,0,,,65,64
188460,note_on,,,,,0,0,2,,,0,,,63,37
188460,note_off,,,,,60,0,2,,,0,,,53,64
188480,set_tempo,,,,,300,1,0,491803,,,,,,
188520,note_on,,,,,0,0,2,,,0,,,60,36
188520,note_off,,,,,60,0,2,,,0,,,63,64
188580,control_change,,,,,0,0,2,,,0,64,0,,
188580,note_on,,,,,0,0,2,,,0,,,63,34
188580,note_off,,,,,60,0,2,,,0,,,60,64
188640,note_off,,,,,240,0,1,,,0,,,75,64
188640,note_off,,,,,0,0,1,,,0,,,87,64
188640,note_on,,,,,0,0,1,,,0,,,86,51
188640,note_on,,,,,0,0,1,,,0,,,74,51
188640,note_off,,,,,60,0,2,,,0,,,63,64
188640,control_change,,,,,0,0,2,,,0,64,127,,
188640,control_change,,,,,0,0,2,,,0,64,127,,
188640,note_on,,,,,0,0,2,,,0,,,53,39
188700,note_on,,,,,0,0,2,,,0,,,62,27
188700,note_off,,,,,60,0,2,,,0,,,53,64
188760,note_off,,,,,60,0,2,,,0,,,62,64
188760,note_on,,,,,0,0,2,,,0,,,58,25
188820,note_on,,,,,0,0,2,,,0,,,62,21
188820,note_off,,,,,60,0,2,,,0,,,58,64
188820,control_change,,,,,0,0,2,,,0,64,0,,
188880,note_on,,,,,0,0,2,,,0,,,53,35
188880,control_change,,,,,0,0,2,,,0,64,127,,
188880,control_change,,,,,0,0,2,,,0,64,127,,
188880,note_off,,,,,60,0,2,,,0,,,62,64
188880,note_off,,,,,0,0,1,,,0,,,86,64
188880,note_on,,,,,0,0,1,,,0,,,72,40
188880,note_on,,,,,0,0,1,,,0,,,84,40
188880,note_off,,,,,240,0,1,,,0,,,74,64
188940,note_off,,,,,60,0,2,,,0,,,53,64
188940,set_tempo,,,,,460,1,0,530973,,,,,,
188940,note_on,,,,,0,0,2,,,0,,,60,23
189000,note_on,,,,,0,0,2,,,0,,,56,21
189000,note_off,,,,,60,0,2,,,0,,,60,64
189000,set_tempo,,,,,60,1,0,631579,,,,,,
189060,note_off,,,,,60,0,2,,,0,,,56,64
189060,note_on,,,,,0,0,2,,,0,,,60,18
189060,control_change,,,,,0,0,2,,,0,64,0,,
189120,control_change,,,,,0,0,2,,,0,64,127,,
189120,note_on,,,,,0,0,2,,,0,,,53,30
189120,note_on,,,,,0,0,1,,,0,,,71,31
189120,note_on,,,,,0,0,1,,,0,,,83,31
189120,note_off,,,,,0,0,1,,,0,,,84,64
189120,note_off,,,,,240,0,1,,,0,,,72,64
189120,note_off,,,,,60,0,2,,,0,,,60,64
189120,control_change,,,,,0,0,2,,,0,64,127,,
189180,note_on,,,,,0,0,2,,,0,,,59,28
189180,note_off,,,,,60,0,2,,,0,,,53,64
189200,set_tempo,,,,,200,1,0,588235,,,,,,
189240,note_off,,,,,60,0,2,,,0,,,59,64
189240,note_on,,,,,0,0,2,,,0,,,56,26
189280,set_tempo,,,,,80,1,0,550459,,,,,,
189300,control_change,,,,,0,0,2,,,0,64,0,,
189300,note_on,,,,,0,0,2,,,0,,,59,25
189300,note_off,,,,,60,0,2,,,0,,,56,64
189360,note_off,,,,,60,0,2,,,0,,,59,64
189360,control_change,,,,,0,0,2,,,0,64,127,,
189360,control_change,,,,,0,0,2,,,0,64,127,,
189360,note_on,,,,,0,0,2,,,0,,,53,24
189400,set_tempo,,,,,120,1,0,530973,,,,,,
189420,set_tempo,,,,,20,1,0,526316,,,,,,
189420,note_off,,,,,60,0,2,,,0,,,53,64
189420,note_on,,,,,0,0,2,,,0,,,59,24
189480,note_off,,,,,60,0,2,,,0,,,59,64
189480,note_on,,,,,0,0,2,,,0,,,56,24
189540,note_off,,,,,60,0,2,,,0,,,56,64
189540,note_on,,,,,0,0,2,,,0,,,59,24
189540,control_change,,,,,0,0,2,,,0,64,0,,
189580,set_tempo,,,,,160,1,0,566038,,,,,,
189600,note_off,,,,,60,0,2,,,0,,,59,64
189600,control_change,,,,,0,0,2,,,0,64,127,,
189600,control_change,,,,,0,0,2,,,0,64,127,,
189600,note_on,,,,,0,0,2,,,0,,,53,26
189660,note_off,,,,,60,0,2,,,0,,,53,64
189660,note_on,,,,,0,0,2,,,0,,,59,25
189720,note_off,,,,,60,0,2,,,0,,,59,64
189720,note_on,,,,,0,0,2,,,0,,,56,23
189780,control_change,,,,,0,0,2,,,0,64,0,,
189780,note_on,,,,,0,0,2,,,0,,,59,19
189780,note_off,,,,,60,0,2,,,0,,,56,64
189840,control_change,,,,,0,0,2,,,0,64,127,,
189840,control_change,,,,,0,0,2,,,0,64,127,,
189840,note_on,,,,,0,0,2,,,0,,,53,19
189840,note_off,,,,,60,0,2,,,0,,,59,64
189900,note_off,,,,,60,0,2,,,0,,,53,64
189900,note_on,,,,,0,0,2,,,0,,,59,18
189960,note_off,,,,,60,0,2,,,0,,,59,64
189960,note_on,,,,,0,0,2,,,0,,,56,18
190020,note_on,,,,,0,0,2,,,0,,,59,16
190020,note_off,,,,,60,0,2,,,0,,,56,64
190020,control_change,,,,,0,0,2,,,0,64,0,,
190080,note_off,,,,,60,0,2,,,0,,,59,64
190080,control_change,,,,,0,0,2,,,0,64,127,,
190080,note_on,,,,,0,0,2,,,0,,,53,16
190080,control_change,,,,,0,0,2,,,0,64,127,,
190140,note_on,,,,,0,0,2,,,0,,,59,15
190140,note_off,,,,,60,0,2,,,0,,,53,64
190170,note_off,,,,,1050,0,1,,,0,,,71,64
190170,note_off,,,,,0,0,1,,,0,,,83,64
190200,note_on,,,,,0,0,2,,,0,,,56,13
190200,note_on,,,,,30,0,1,,,0,,,71,29
190200,note_off,,,,,60,0,2,,,0,,,59,64
190260,note_off,,,,,60,0,2,,,0,,,56,64
190260,note_on,,,,,0,0,2,,,0,,,59,14
190260,control_change,,,,,0,0,2,,,0,64,0,,
190280,set_tempo,,,,,700,1,0,526316,,,,,,
190290,note_off,,,,,90,0,1,,,0,,,71,64
190320,note_off,,,,,60,0,2,,,0,,,59,64
190320,control_change,,,,,0,0,2,,,0,64,127,,
190320,control_change,,,,,0,0,2,,,0,64,127,,
190320,note_on,,,,,0,0,2,,,0,,,53,21
190320,note_on,,,,,30,0,1,,,0,,,71,34
190380,note_on,,,,,0,0,2,,,0,,,59,20
190380,note_off,,,,,60,0,2,,,0,,,53,64
190410,note_off,,,,,90,0,1,,,0,,,71,64
190440,note_off,,,,,60,0,2,,,0,,,59,64
190440,note_on,,,,,30,0,1,,,0,,,71,39
190440,note_on,,,,,0,0,2,,,0,,,56,22
190460,set_tempo,,,,,180,1,0,504202,,,,,,
190500,note_off,,,,,60,0,2,,,0,,,56,64
190500,note_on,,,,,0,0,2,,,0,,,59,24
190500,control_change,,,,,0,0,2,,,0,64,0,,
190530,note_off,,,,,90,0,1,,,0,,,71,64
190560,control_change,,,,,0,0,2,,,0,64,127,,
190560,note_on,,,,,30,0,1,,,0,,,71,41
190560,note_off,,,,,60,0,2,,,0,,,59,64
190560,note_on,,,,,0,0,2,,,0,,,52,31
190560,control_change,,,,,0,0,2,,,0,64,127,,
190600,set_tempo,,,,,140,1,0,483871,,,,,,
190620,note_on,,,,,0,0,2,,,0,,,59,26
190620,note_off,,,,,60,0,2,,,0,,,52,64
190650,note_off,,,,,90,0,1,,,0,,,71,64
190680,note_on,,,,,30,0,1,,,0,,,71,38
190680,note_off,,,,,60,0,2,,,0,,,59,64
190680,note_on,,,,,0,0,2,,,0,,,56,31
190720,set_tempo,,,,,120,1,0,480000,,,,,,
190740,set_tempo,,,,,20,1,0,465116,,,,,,
190740,control_change,,,,,0,0,2,,,0,64,0,,
190740,note_on,,,,,0,0,2,,,0,,,59,35
190740,note_off,,,,,60,0,2,,,0,,,56,64
190770,note_off,,,,,90,0,1,,,0,,,71,64
190800,note_on,,,,,30,0,1,,,0,,,71,34
190800,note_on,,,,,0,0,2,,,0,,,50,40
190800,control_change,,,,,0,0,2,,,0,64,127,,
190800,control_change,,,,,0,0,2,,,0,64,127,,
190800,note_off,,,,,60,0,2,,,0,,,59,64
190840,set_tempo,,,,,100,1,0,468750,,,,,,
190860,note_on,,,,,0,0,2,,,0,,,59,40
190860,note_off,,,,,60,0,2,,,0,,,50,64
190890,note_off,,,,,90,0,1,,,0,,,71,64
190920,note_on,,,,,30,0,1,,,0,,,71,35
190920,note_off,,,,,60,0,2,,,0,,,59,64
190920,note_on,,,,,0,0,2,,,0,,,56,37
190980,control_change,,,,,0,0,2,,,0,64,0,,
190980,note_on,,,,,0,0,2,,,0,,,59,32
190980,note_off,,,,,60,0,2,,,0,,,56,64
191010,note_off,,,,,90,0,1,,,0,,,71,64
191040,note_on,,,,,0,0,2,,,0,,,48,40
191040,control_change,,,,,0,0,2,,,0,64,127,,
191040,control_change,,,,,0,0,2,,,0,64,127,,
191040,note_off,,,,,60,0,2,,,0,,,59,64
191040,note_on,,,,,30,0,1,,,0,,,72,53
191100,note_on,,,,,0,0,2,,,0,,,60,28
191100,note_off,,,,,60,0,2,,,0,,,48,64
191160,note_on,,,,,0,0,2,,,0,,,57,32
191160,note_off,,,,,60,0,2,,,0,,,60,64
191220,note_on,,,,,0,0,2,,,0,,,60,35
191220,note_off,,,,,60,0,2,,,0,,,57,64
191258,control_change,,,,,38,0,2,,,0,64,0,,
191280,note_on,,,,,0,0,2,,,0,,,48,40
191280,note_off,,,,,22,0,2,,,0,,,60,64
191280,control_change,,,,,0,0,2,,,0,64,127,,
191280,control_change,,,,,0,0,2,,,0,64,127,,
191340,note_off,,,,,60,0,2,,,0,,,48,64
191340,note_on,,,,,0,0,2,,,0,,,62,30
191400,note_on,,,,,0,0,2,,,0,,,58,31
191400,note_off,,,,,60,0,2,,,0,,,62,64
191460,note_on,,,,,0,0,2,,,0,,,62,34
191460,note_on,,,,,0,0,1,,,0,,,74,41
191460,note_off,,,,,60,0,2,,,0,,,58,64
191460,note_off,,,,,420,0,1,,,0,,,72,64
191498,control_change,,,,,38,0,2,,,0,64,0,,
191520,note_on,,,,,0,0,2,,,0,,,48,36
191520,control_change,,,,,0,0,2,,,0,64,127,,
191520,control_change,,,,,0,0,2,,,0,64,127,,
191520,note_off,,,,,22,0,2,,,0,,,62,64
191520,note_on,,,,,0,0,1,,,0,,,72,46
191520,note_off,,,,,60,0,1,,,0,,,74,64
191580,note_on,,,,,0,0,2,,,0,,,60,39
191580,note_off,,,,,60,0,2,,,0,,,48,64
191640,note_on,,,,,0,0,2,,,0,,,57,42
191640,note_off,,,,,60,0,2,,,0,,,60,64
191640,note_off,,,,,120,0,1,,,0,,,72,64
191700,note_on,,,,,0,0,2,,,0,,,60,44
191700,note_off,,,,,60,0,2,,,0,,,57,64
191730,note_on,,,,,90,0,1,,,0,,,77,52
191738,control_change,,,,,38,0,2,,,0,64,0,,
191760,note_on,,,,,0,0,1,,,0,,,79,49
191760,note_off,,,,,30,0,1,,,0,,,77,64
191760,control_change,,,,,0,0,2,,,0,64,127,,
191760,note_off,,,,,22,0,2,,,0,,,60,64
191760,note_on,,,,,0,0,2,,,0,,,48,46
191760,control_change,,,,,0,0,2,,,0,64,127,,
191790,note_on,,,,,0,0,1,,,0,,,77,49
191790,note_off,,,,,30,0,1,,,0,,,79,64
191820,note_on,,,,,0,0,1,,,0,,,79,47
191820,note_off,,,,,30,0,1,,,0,,,77,64
191820,note_on,,,,,0,0,2,,,0,,,62,42
191820,note_off,,,,,60,0,2,,,0,,,48,64
191850,note_on,,,,,0,0,1,,,0,,,77,48
191850,note_off,,,,,30,0,1,,,0,,,79,64
191880,note_on,,,,,0,0,2,,,0,,,58,48
191880,note_on,,,,,0,0,1,,,0,,,79,51
191880,note_off,,,,,30,0,1,,,0,,,77,64
191880,note_off,,,,,60,0,2,,,0,,,62,64
191910,note_on,,,,,0,0,1,,,0,,,77,56
191910,note_off,,,,,30,0,1,,,0,,,79,64
191940,note_off,,,,,30,0,1,,,0,,,77,64
191940,note_on,,,,,0,0,1,,,0,,,76,60
191940,note_off,,,,,60,0,2,,,0,,,58,64
191940,note_on,,,,,0,0,2,,,0,,,62,57
191970,note_on,,,,,0,0,1,,,0,,,77,65
191970,note_off,,,,,30,0,1,,,0,,,76,64
191978,control_change,,,,,38,0,2,,,0,64,0,,
192000,note_on,,,,,0,0,2,,,0,,,48,64
192000,control_change,,,,,0,0,2,,,0,64,127,,
192000,control_change,,,,,0,0,2,,,0,64,127,,
192000,note_off,,,,,22,0,2,,,0,,,62,64
192000,note_off,,,,,30,0,1,,,0,,,77,64
192000,note_on,,,,,0,0,1,,,0,,,81,69
192000,note_on,,,,,0,0,1,,,0,,,69,69
192060,note_off,,,,,60,0,2,,,0,,,48,64
192060,note_on,,,,,0,0,2,,,0,,,60,60
192120,note_off,,,,,60,0,2,,,0,,,60,64
192120,note_on,,,,,0,0,2,,,0,,,57,56
192180,note_off,,,,,60,0,2,,,0,,,57,64
192180,note_on,,,,,0,0,2,,,0,,,60,49
192218,control_change,,,,,38,0,2,,,0,64,0,,
192240,note_on,,,,,0,0,2,,,0,,,48,49
192240,control_change,,,,,0,0,2,,,0,64,127,,
192240,note_off,,,,,22,0,2,,,0,,,60,64
192240,control_change,,,,,0,0,2,,,0,64,127,,
192300,note_off,,,,,60,0,2,,,0,,,48,64
192300,note_on,,,,,0,0,2,,,0,,,62,46
192360,note_off,,,,,60,0,2,,,0,,,62,64
192360,note_on,,,,,0,0,2,,,0,,,58,42
192420,note_off,,,,,0,0,1,,,0,,,81,64
192420,note_on,,,,,0,0,1,,,0,,,79,57
192420,note_on,,,,,0,0,2,,,0,,,62,39
192420,note_off,,,,,60,0,2,,,0,,,58,64
192420,note_on,,,,,0,0,1,,,0,,,67,57
192420,note_off,,,,,420,0,1,,,0,,,69,64
192458,control_change,,,,,38,0,2,,,0,64,0,,
192480,note_off,,,,,60,0,1,,,0,,,67,64
192480,control_change,,,,,0,0,2,,,0,64,127,,
192480,control_change,,,,,0,0,2,,,0,64,127,,
192480,note_off,,,,,0,0,1,,,0,,,79,64
192480,note_on,,,,,0,0,1,,,0,,,77,48
192480,note_on,,,,,0,0,2,,,0,,,48,38
192480,note_off,,,,,22,0,2,,,0,,,62,64
192480,note_on,,,,,0,0,1,,,0,,,65,48
192540,note_off,,,,,60,0,2,,,0,,,48,64
192540,note_on,,,,,0,0,2,,,0,,,60,36
192600,note_off,,,,,120,0,1,,,0,,,65,64
192600,note_off,,,,,0,0,1,,,0,,,77,64
192600,note_on,,,,,0,0,2,,,0,,,57,33
192600,note_off,,,,,60,0,2,,,0,,,60,64
192660,note_on,,,,,0,0,2,,,0,,,60,28
192660,note_off,,,,,60,0,2,,,0,,,57,64
192698,control_change,,,,,38,0,2,,,0,64,0,,
192720,note_on,,,,,120,0,1,,,0,,,74,60
192720,note_on,,,,,0,0,2,,,0,,,48,30
192720,control_change,,,,,0,0,2,,,0,64,127,,
192720,control_change,,,,,0,0,2,,,0,64,127,,
192720,note_off,,,,,22,0,2,,,0,,,60,64
192780,note_on,,,,,0,0,2,,,0,,,62,28
192780,note_off,,,,,60,0,2,,,0,,,48,64
192840,note_on,,,,,0,0,2,,,0,,,58,26
192840,note_off,,,,,60,0,2,,,0,,,62,64
192900,note_on,,,,,0,0,2,,,0,,,62,20
192900,note_off,,,,,60,0,2,,,0,,,58,64
192938,control_change,,,,,38,0,2,,,0,64,0,,
192960,note_on,,,,,0,0,1,,,0,,,72,69
192960,note_off,,,,,240,0,1,,,0,,,74,64
192960,note_off,,,,,22,0,2,,,0,,,62,64
192960,note_on,,,,,0,0,2,,,0,,,48,40
192960,control_change,,,,,0,0,2,,,0,64,127,,
192960,control_change,,,,,0,0,2,,,0,64,127,,
193020,note_on,,,,,0,0,2,,,0,,,60,37
193020,note_off,,,,,60,0,2,,,0,,,48,64
193080,note_on,,,,,0,0,2,,,0,,,57,42
193080,note_off,,,,,60,0,2,,,0,,,60,64
193140,note_on,,,,,0,0,2,,,0,,,60,47
193140,note_off,,,,,60,0,2,,,0,,,57,64
193178,control_change,,,,,38,0,2,,,0,64,0,,
193200,control_change,,,,,0,0,2,,,0,64,127,,
193200,control_change,,,,,0,0,2,,,0,64,127,,
193200,note_on,,,,,0,0,2,,,0,,,48,53
193200,note_off,,,,,22,0,2,,,0,,,60,64
193260,note_on,,,,,0,0,2,,,0,,,62,59
193260,note_off,,,,,60,0,2,,,0,,,48,64
193320,note_on,,,,,0,0,2,,,0,,,58,63
193320,note_off,,,,,60,0,2,,,0,,,62,64
193380,note_off,,,,,60,0,2,,,0,,,58,64
193380,note_on,,,,,0,0,1,,,0,,,74,73
193380,note_off,,,,,420,0,1,,,0,,,72,64
193380,note_on,,,,,0,0,2,,,0,,,62,66
193418,control_change,,,,,38,0,2,,,0,64,0,,
193440,note_on,,,,,0,0,2,,,0,,,48,71
193440,control_change,,,,,0,0,2,,,0,64,127,,
193440,note_off,,,,,60,0,1,,,0,,,74,64
193440,note_on,,,,,0,0,1,,,0,,,72,80
193440,control_change,,,,,0,0,2,,,0,64,127,,
193440,note_off,,,,,22,0,2,,,0,,,62,64
193500,note_off,,,,,60,0,2,,,0,,,48,64
193500,note_on,,,,,0,0,2,,,0,,,60,75
193560,note_off,,,,,120,0,1,,,0,,,72,64
193560,note_off,,,,,60,0,2,,,0,,,60,64
193560,note_on,,,,,0,0,2,,,0,,,57,78
193620,note_off,,,,,60,0,2,,,0,,,57,64
193620,note_on,,,,,0,0,2,,,0,,,60,82
193650,note_on,,,,,90,0,1,,,0,,,89,85
193658,control_change,,,,,38,0,2,,,0,64,0,,
193680,control_change,,,,,0,0,2,,,0,64,127,,
193680,control_change,,,,,0,0,2,,,0,64,127,,
193680,note_on,,,,,0,0,1,,,0,,,91,84
193680,note_off,,,,,30,0,1,,,0,,,89,64
193680,note_off,,,,,22,0,2,,,0,,,60,64
193680,note_on,,,,,0,0,2,,,0,,,48,86
193710,note_on,,,,,0,0,1,,,0,,,89,81
193710,note_off,,,,,30,0,1,,,0,,,91,64
193740,note_on,,,,,0,0,2,,,0,,,62,90
193740,note_off,,,,,60,0,2,,,0,,,48,64
193740,note_off,,,,,30,0,1,,,0,,,89,64
193740,note_on,,,,,0,0,1,,,0,,,91,81
193770,note_off,,,,,30,0,1,,,0,,,91,64
193770,note_on,,,,,0,0,1,,,0,,,89,86
193800,note_on,,,,,0,0,2,,,0,,,58,92
193800,note_off,,,,,60,0,2,,,0,,,62,64
193800,note_off,,,,,30,0,1,,,0,,,89,64
193800,note_on,,,,,0,0,1,,,0,,,91,90
193830,note_off,,,,,30,0,1,,,0,,,91,64
193830,note_on,,,,,0,0,1,,,0,,,89,94
193860,note_off,,,,,30,0,1,,,0,,,89,64
193860,note_on,,,,,0,0,1,,,0,,,88,98
193860,note_off,,,,,60,0,2,,,0,,,58,64
193860,note_on,,,,,0,0,2,,,0,,,62,98
193890,note_on,,,,,0,0,1,,,0,,,89,104
193890,note_off,,,,,30,0,1,,,0,,,88,64
193898,control_change,,,,,38,0,2,,,0,64,0,,
193920,control_change,,,,,0,0,2,,,0,64,127,,
193920,control_change,,,,,0,0,2,,,0,64,127,,
193920,note_on,,,,,0,0,1,,,0,,,81,110
193920,note_off,,,,,30,0,1,,,0,,,89,64
193920,note_on,,,,,0,0,1,,,0,,,93,110
193920,note_off,,,,,22,0,2,,,0,,,62,64
193920,note_on,,,,,0,0,2,,,0,,,48,99
193980,note_off,,,,,60,0,2,,,0,,,48,64
193980,note_on,,,,,0,0,2,,,0,,,60,100
194040,note_off,,,,,60,0,2,,,0,,,60,64
194040,note_on,,,,,0,0,2,,,0,,,57,97
194100,note_off,,,,,60,0,2,,,0,,,57,64
194100,note_on,,,,,0,0,2,,,0,,,60,90
194138,control_change,,,,,38,0,2,,,0,64,0,,
194160,note_on,,,,,0,0,2,,,0,,,48,89
194160,note_off,,,,,22,0,2,,,0,,,60,64
194160,control_change,,,,,0,0,2,,,0,64,127,,
194160,control_change,,,,,0,0,2,,,0,64,127,,
194220,note_on,,,,,0,0,2,,,0,,,62,85
194220,note_off,,,,,60,0,2,,,0,,,48,64
194280,note_off,,,,,60,0,2,,,0,,,62,64
194280,note_on,,,,,0,0,2,,,0,,,58,79
194340,note_off,,,,,60,0,2,,,0,,,58,64
194340,note_on,,,,,0,0,2,,,0,,,62,77
194340,note_on,,,,,0,0,1,,,0,,,79,87
194340,note_on,,,,,0,0,1,,,0,,,91,87
194340,note_off,,,,,0,0,1,,,0,,,93,64
194340,note_off,,,,,420,0,1,,,0,,,81,64
194378,control_change,,,,,38,0,2,,,0,64,0,,
194400,note_off,,,,,60,0,1,,,0,,,79,64
194400,note_on,,,,,0,0,1,,,0,,,77,85
194400,note_on,,,,,0,0,1,,,0,,,89,85
194400,note_off,,,,,0,0,1,,,0,,,91,64
194400,note_on,,,,,0,0,2,,,0,,,48,77
194400,control_change,,,,,0,0,2,,,0,64,127,,
194400,control_change,,,,,0,0,2,,,0,64,127,,
194400,note_off,,,,,22,0,2,,,0,,,62,64
194460,note_off,,,,,60,0,2,,,0,,,48,64
194460,note_on,,,,,0,0,2,,,0,,,60,81
194520,note_off,,,,,120,0,1,,,0,,,77,64
194520,note_on,,,,,0,0,2,,,0,,,57,84
194520,note_off,,,,,60,0,2,,,0,,,60,64
194520,note_off,,,,,0,0,1,,,0,,,89,64
194560,set_tempo,,,,,3720,1,0,465116,,,,,,
194580,set_tempo,,,,,20,1,0,468750,,,,,,
194580,note_off,,,,,60,0,2,,,0,,,57,64
194580,note_on,,,,,0,0,2,,,0,,,60,85
194618,control_change,,,,,38,0,2,,,0,64,0,,
194640,note_on,,,,,0,0,1,,,0,,,74,114
194640,note_on,,,,,0,0,1,,,0,,,77,114
194640,note_on,,,,,0,0,1,,,0,,,82,114
194640,note_on,,,,,0,0,2,,,0,,,48,90
194640,note_on,,,,,120,0,1,,,0,,,86,114
194640,control_change,,,,,0,0,2,,,0,64,127,,
194640,note_off,,,,,22,0,2,,,0,,,60,64
194640,control_change,,,,,0,0,2,,,0,64,127,,
194700,note_off,,,,,60,0,2,,,0,,,48,64
194700,note_on,,,,,0,0,2,,,0,,,62,92
194760,note_off,,,,,60,0,2,,,0,,,62,64
194760,note_on,,,,,0,0,2,,,0,,,58,95
194820,note_on,,,,,0,0,2,,,0,,,62,98
194820,note_off,,,,,60,0,2,,,0,,,58,64
194840,set_tempo,,,,,260,1,0,472441,,,,,,
194880,note_off,,,,,0,0,1,,,0,,,77,64
194880,note_off,,,,,0,0,1,,,0,,,82,64
194880,note_on,,,,,0,0,1,,,0,,,72,109
194880,note_on,,,,,0,0,1,,,0,,,84,109
194880,note_on,,,,,0,0,1,,,0,,,81,109
194880,note_on,,,,,0,0,1,,,0,,,77,109
194880,note_off,,,,,240,0,1,,,0,,,74,64
194880,note_off,,,,,60,0,2,,,0,,,62,64
194880,note_off,,,,,0,0,1,,,0,,,86,64
194880,control_change,,,,,0,0,2,,,0,64,127,,
194880,control_change,,,,,0,0,2,,,0,64,127,,
194880,note_on,,,,,0,0,2,,,0,,,48,103
194940,note_off,,,,,60,0,2,,,0,,,48,64
194940,note_on,,,,,0,0,2,,,0,,,60,95
195000,note_on,,,,,0,0,2,,,0,,,57,93
195000,note_off,,,,,60,0,2,,,0,,,60,64
195060,note_on,,,,,0,0,2,,,0,,,60,87
195060,note_off,,,,,60,0,2,,,0,,,57,64
195096,note_off,,,,,0,0,1,,,0,,,84,64
195096,note_off,,,,,0,0,1,,,0,,,81,64
195096,note_off,,,,,216,0,1,,,0,,,72,64
195096,note_off,,,,,0,0,1,,,0,,,77,64
195098,control_change,,,,,38,0,2,,,0,64,0,,
195120,note_on,,,,,24,0,1,,,0,,,86,103
195120,note_on,,,,,0,0,1,,,0,,,82,103
195120,note_off,,,,,22,0,2,,,0,,,60,64
195120,control_change,,,,,0,0,2,,,0,64,127,,
195120,control_change,,,,,0,0,2,,,0,64,127,,
195120,note_on,,,,,0,0,2,,,0,,,48,81
195120,note_on,,,,,0,0,1,,,0,,,77,103
195120,note_on,,,,,0,0,1,,,0,,,74,103
195160,set_tempo,,,,,320,1,0,476190,,,,,,
195180,note_on,,,,,0,0,2,,,0,,,62,77
195180,note_off,,,,,60,0,2,,,0,,,48,64
195180,set_tempo,,,,,20,1,0,480000,,,,,,
195200,set_tempo,,,,,20,1,0,495868,,,,,,
195240,note_off,,,,,60,0,2,,,0,,,62,64
195240,note_on,,,,,0,0,2,,,0,,,58,74
195300,note_off,,,,,60,0,2,,,0,,,58,64
195300,note_on,,,,,0,0,2,,,0,,,62,73
195336,note_off,,,,,0,0,1,,,0,,,77,64
195336,note_off,,,,,0,0,1,,,0,,,86,64
195336,note_off,,,,,216,0,1,,,0,,,74,64
195336,note_off,,,,,0,0,1,,,0,,,82,64
195338,control_change,,,,,38,0,2,,,0,64,0,,
195360,note_on,,,,,24,0,1,,,0,,,89,116
195360,note_on,,,,,0,0,1,,,0,,,81,116
195360,control_change,,,,,0,0,2,,,0,64,127,,
195360,note_on,,,,,0,0,1,,,0,,,77,116
195360,control_change,,,,,0,0,2,,,0,64,127,,
195360,note_on,,,,,0,0,1,,,0,,,84,116
195360,note_off,,,,,22,0,2,,,0,,,62,64
195360,note_on,,,,,0,0,2,,,0,,,48,73
195420,note_on,,,,,0,0,2,,,0,,,60,77
195420,note_off,,,,,60,0,2,,,0,,,48,64
195480,note_on,,,,,0,0,2,,,0,,,57,80
195480,note_off,,,,,60,0,2,,,0,,,60,64
195540,note_off,,,,,60,0,2,,,0,,,57,64
195540,note_on,,,,,0,0,2,,,0,,,60,81
195576,note_off,,,,,0,0,1,,,0,,,84,64
195576,note_off,,,,,0,0,1,,,0,,,81,64
195576,note_off,,,,,0,0,1,,,0,,,89,64
195576,note_off,,,,,216,0,1,,,0,,,77,64
195578,control_change,,,,,38,0,2,,,0,64,0,,
195600,note_on,,,,,24,0,1,,,0,,,91,127
195600,note_on,,,,,0,0,1,,,0,,,88,127
195600,note_on,,,,,0,0,1,,,0,,,84,127
195600,note_on,,,,,0,0,1,,,0,,,79,127
195600,note_on,,,,,0,0,2,,,0,,,48,86
195600,control_change,,,,,0,0,2,,,0,64,127,,
195600,control_change,,,,,0,0,2,,,0,64,127,,
195600,note_off,,,,,22,0,2,,,0,,,60,64
195660,note_on,,,,,0,0,2,,,0,,,60,93
195660,note_off,,,,,60,0,2,,,0,,,48,64
195660,set_tempo,,,,,460,1,0,526316,,,,,,
195720,note_on,,,,,0,0,2,,,0,,,58,97
195720,note_off,,,,,60,0,2,,,0,,,60,64
195780,note_on,,,,,0,0,2,,,0,,,60,103
195780,note_off,,,,,60,0,2,,,0,,,58,64
195780,set_tempo,,,,,120,1,0,909091,,,,,,
195816,note_off,,,,,0,0,1,,,0,,,91,64
195816,note_off,,,,,216,0,1,,,0,,,79,64
195816,note_off,,,,,0,0,1,,,0,,,84,64
195816,note_off,,,,,0,0,1,,,0,,,88,64
195840,note_on,,,,,0,0,1,,,0,,,79,127
195840,note_on,,,,,0,0,1,,,0,,,84,127
195840,note_on,,,,,0,0,1,,,0,,,88,127
195840,note_on,,,,,24,0,1,,,0,,,91,127
195840,control_change,,,,,0,0,2,,,0,64,127,,
195840,note_on,,,,,0,0,2,,,0,,,60,112
195840,note_on,,,,,0,0,2,,,0,,,58,112
195840,note_on,,,,,0,0,2,,,0,,,48,112
195840,note_off,,,,,60,0,2,,,0,,,60,64
195840,set_tempo,,,,,60,1,0,545455,,,,,,
195920,set_tempo,,,,,80,1,0,540541,,,,,,
195940,set_tempo,,,,,20,1,0,545455,,,,,,
195960,set_tempo,,,,,20,1,0,535714,,,,,,
196100,set_tempo,,,,,140,1,0,571429,,,,,,
196280,set_tempo,,,,,180,1,0,631579,,,,,,
196320,note_off,,,,,0,0,1,,,0,,,91,64
196320,note_on,,,,,0,0,1,,,0,,,88,106
196320,note_off,,,,,0,0,1,,,0,,,88,64
196320,control_change,,,,,480,0,2,,,0,64,0,,
196320,note_off,,,,,480,0,1,,,0,,,79,64
196320,note_off,,,,,0,0,1,,,0,,,84,64
196400,note_off,,,,,80,0,1,,,0,,,88,64
196400,note_on,,,,,0,0,1,,,0,,,84,91
196400,set_tempo,,,,,120,1,0,681818,,,,,,
196420,set_tempo,,,,,20,1,0,714286,,,,,,
196440,set_tempo,,,,,20,1,0,722892,,,,,,
196460,set_tempo,,,,,20,1,0,652174,,,,,,
196480,note_on,,,,,0,0,1,,,0,,,79,82
196480,note_off,,,,,80,0,1,,,0,,,84,64
196540,set_tempo,,,,,80,1,0,582524,,,,,,
196560,note_off,,,,,80,0,1,,,0,,,79,64
196560,note_on,,,,,0,0,1,,,0,,,76,70
196580,set_tempo,,,,,40,1,0,526316,,,,,,
196640,note_on,,,,,0,0,1,,,0,,,79,63
196640,note_off,,,,,80,0,1,,,0,,,76,64
196720,set_tempo,,,,,140,1,0,500000,,,,,,
196720,note_on,,,,,0,0,1,,,0,,,84,56
196720,note_off,,,,,80,0,1,,,0,,,79,64
196800,note_on,,,,,0,0,1,,,0,,,77,63
196800,note_off,,,,,80,0,1,,,0,,,84,64
196800,note_off,,,,,480,0,2,,,0,,,60,64
196800,note_on,,,,,0,0,2,,,0,,,53,53
196800,note_on,,,,,0,0,2,,,0,,,60,53
196800,set_tempo,,,,,80,1,0,476190,,,,,,
196800,note_off,,,,,0,0,2,,,0,,,58,64
196800,note_off,,,,,0,0,2,,,0,,,48,64
196800,note_on,,,,,0,0,2,,,0,,,57,53
196880,note_off,,,,,80,0,1,,,0,,,77,64
196880,note_on,,,,,0,0,1,,,0,,,84,60
196940,note_off,,,,,60,0,1,,,0,,,84,64
196960,note_on,,,,,20,0,1,,,0,,,81,57
197020,note_off,,,,,60,0,1,,,0,,,81,64
197040,note_on,,,,,20,0,1,,,0,,,77,55
197040,note_off,,,,,240,0,2,,,0,,,60,64
197040,note_off,,,,,0,0,2,,,0,,,57,64
197040,note_off,,,,,0,0,2,,,0,,,53,64
197060,set_tempo,,,,,260,1,0,458015,,,,,,
197100,note_off,,,,,60,0,1,,,0,,,77,64
197120,note_on,,,,,20,0,1,,,0,,,72,50
197180,note_off,,,,,60,0,1,,,0,,,72,64
197200,note_on,,,,,20,0,1,,,0,,,69,45
197260,note_off,,,,,60,0,1,,,0,,,69,64
197280,note_on,,,,,240,0,2,,,0,,,60,40
197280,note_on,,,,,20,0,1,,,0,,,65,51
197280,note_on,,,,,0,0,2,,,0,,,57,40
197280,note_on,,,,,0,0,2,,,0,,,53,40
197340,note_off,,,,,60,0,1,,,0,,,65,64
197360,note_on,,,,,20,0,1,,,0,,,69,40
197380,set_tempo,,,,,320,1,0,483871,,,,,,
197400,note_off,,,,,120,0,2,,,0,,,53,64
197400,note_off,,,,,0,0,2,,,0,,,57,64
197400,note_off,,,,,0,0,2,,,0,,,60,64
197420,note_off,,,,,60,0,1,,,0,,,69,64
197440,note_on,,,,,20,0,1,,,0,,,72,46
197500,note_off,,,,,60,0,1,,,0,,,72,64
197500,set_tempo,,,,,120,1,0,504202,,,,,,
197520,note_on,,,,,20,0,1,,,0,,,69,50
197520,note_on,,,,,0,0,2,,,0,,,53,51
197520,note_on,,,,,120,0,2,,,0,,,63,51
197520,note_on,,,,,0,0,2,,,0,,,60,51
197580,note_off,,,,,60,0,1,,,0,,,69,64
197600,note_on,,,,,20,0,1,,,0,,,72,54
197640,note_off,,,,,0,0,2,,,0,,,60,64
197640,note_off,,,,,0,0,2,,,0,,,63,64
197640,note_off,,,,,120,0,2,,,0,,,53,64
197660,note_off,,,,,60,0,1,,,0,,,72,64
197680,note_on,,,,,20,0,1,,,0,,,77,57
197680,set_tempo,,,,,180,1,0,526316,,,,,,
197740,note_off,,,,,60,0,1,,,0,,,77,64
197760,note_on,,,,,20,0,1,,,0,,,77,58
197760,note_on,,,,,0,0,2,,,0,,,62,62
197760,note_on,,,,,120,0,2,,,0,,,53,62
197760,note_on,,,,,0,0,2,,,0,,,58,62
197780,set_tempo,,,,,100,1,0,540541,,,,,,
197840,note_on,,,,,0,0,1,,,0,,,86,53
197840,note_off,,,,,80,0,1,,,0,,,77,64
197860,set_tempo,,,,,80,1,0,500000,,,,,,
197900,note_off,,,,,60,0,1,,,0,,,86,64
197920,note_on,,,,,20,0,1,,,0,,,82,51
197940,set_tempo,,,,,80,1,0,491803,,,,,,
197980,note_off,,,,,60,0,1,,,0,,,82,64
198000,note_off,,,,,0,0,2,,,0,,,53,64
198000,note_off,,,,,240,0,2,,,0,,,62,64
198000,note_on,,,,,20,0,1,,,0,,,77,50
198000,note_off,,,,,0,0,2,,,0,,,58,64
198040,set_tempo,,,,,100,1,0,480000,,,,,,
198060,note_off,,,,,60,0,1,,,0,,,77,64
198080,note_on,,,,,20,0,1,,,0,,,74,47
198140,note_off,,,,,60,0,1,,,0,,,74,64
198160,note_on,,,,,20,0,1,,,0,,,70,49
198180,set_tempo,,,,,140,1,0,468750,,,,,,
198220,note_off,,,,,60,0,1,,,0,,,70,64
198240,note_on,,,,,20,0,1,,,0,,,65,52
198240,note_on,,,,,0,0,2,,,0,,,53,41
198240,note_on,,,,,0,0,2,,,0,,,58,41
198240,note_on,,,,,240,0,2,,,0,,,62,41
198300,note_off,,,,,60,0,1,,,0,,,65,64
198320,note_on,,,,,20,0,1,,,0,,,70,58
198360,note_off,,,,,0,0,2,,,0,,,62,64
198360,note_off,,,,,120,0,2,,,0,,,53,64
198360,note_off,,,,,0,0,2,,,0,,,58,64
198380,note_off,,,,,60,0,1,,,0,,,70,64
198400,note_on,,,,,20,0,1,,,0,,,74,63
198460,note_off,,,,,60,0,1,,,0,,,74,64
198480,note_on,,,,,20,0,1,,,0,,,70,67
198480,set_tempo,,,,,300,1,0,472441,,,,,,
198480,note_on,,,,,0,0,2,,,0,,,53,51
198480,note_on,,,,,0,0,2,,,0,,,62,51
198480,note_on,,,,,120,0,2,,,0,,,65,51
198500,set_tempo,,,,,20,1,0,476190,,,,,,
198540,note_off,,,,,60,0,1,,,0,,,70,64
198560,note_on,,,,,20,0,1,,,0,,,74,72
198600,note_off,,,,,120,0,2,,,0,,,53,64
198600,note_off,,,,,0,0,2,,,0,,,62,64
198600,note_off,,,,,0,0,2,,,0,,,65,64
198620,note_off,,,,,60,0,1,,,0,,,74,64
198640,note_on,,,,,20,0,1,,,0,,,77,75
198700,note_off,,,,,60,0,1,,,0,,,77,64
198720,note_on,,,,,120,0,2,,,0,,,57,61
198720,note_on,,,,,0,0,2,,,0,,,60,61
198720,note_on,,,,,0,0,2,,,0,,,53,61
198720,note_on,,,,,20,0,1,,,0,,,77,75
198780,set_tempo,,,,,280,1,0,480000,,,,,,
198800,note_off,,,,,80,0,1,,,0,,,77,64
198800,note_on,,,,,0,0,1,,,0,,,89,72
198820,set_tempo,,,,,40,1,0,458015,,,,,,
198860,note_off,,,,,60,0,1,,,0,,,89,64
198880,note_on,,,,,20,0,1,,,0,,,84,69
198940,note_off,,,,,60,0,1,,,0,,,84,64
198960,note_off,,,,,0,0,2,,,0,,,57,64
198960,note_off,,,,,0,0,2,,,0,,,60,64
198960,note_off,,,,,240,0,2,,,0,,,53,64
198960,note_on,,,,,20,0,1,,,0,,,81,65
199020,note_off,,,,,60,0,1,,,0,,,81,64
199040,note_on,,,,,20,0,1,,,0,,,77,61
199100,set_tempo,,,,,280,1,0,451128,,,,,,
199100,note_off,,,,,60,0,1,,,0,,,77,64
199120,note_on,,,,,20,0,1,,,0,,,72,59
199180,note_off,,,,,60,0,1,,,0,,,72,64
199200,note_on,,,,,20,0,1,,,0,,,69,58
199200,note_on,,,,,0,0,2,,,0,,,57,39
199200,note_on,,,,,240,0,2,,,0,,,53,39
199260,note_off,,,,,60,0,1,,,0,,,69,64
199280,note_on,,,,,20,0,1,,,0,,,65,56
199320,note_off,,,,,0,0,2,,,0,,,53,64
199320,note_off,,,,,120,0,2,,,0,,,57,64
199340,note_off,,,,,60,0,1,,,0,,,65,64
199360,note_on,,,,,20,0,1,,,0,,,60,55
199420,note_off,,,,,60,0,1,,,0,,,60,64
199440,note_on,,,,,20,0,1,,,0,,,65,54
199440,note_on,,,,,120,0,2,,,0,,,57,52
199440,note_on,,,,,0,0,2,,,0,,,60,52
199500,note_off,,,,,60,0,1,,,0,,,65,64
199520,note_on,,,,,20,0,1,,,0,,,69,54
199560,note_off,,,,,0,0,2,,,0,,,57,64
199560,note_off,,,,,120,0,2,,,0,,,60,64
199580,note_off,,,,,60,0,1,,,0,,,69,64
199600,note_on,,,,,20,0,1,,,0,,,72,55
199600,set_tempo,,,,,500,1,0,468750,,,,,,
199660,note_off,,,,,60,0,1,,,0,,,72,64
199680,note_on,,,,,0,0,2,,,0,,,48,61
199680,note_on,,,,,0,0,2,,,0,,,57,61
199680,note_on,,,,,20,0,1,,,0,,,72,62
199680,control_change,,,,,0,0,2,,,0,64,127,,
199680,note_on,,,,,120,0,2,,,0,,,60,61
199760,note_off,,,,,80,0,1,,,0,,,72,64
199760,note_on,,,,,0,0,1,,,0,,,77,58
199820,note_off,,,,,60,0,1,,,0,,,77,64
199824,note_off,,,,,144,0,2,,,0,,,48,64
199824,note_off,,,,,0,0,2,,,0,,,60,64
199824,note_off,,,,,0,0,2,,,0,,,57,64
199840,note_on,,,,,20,0,1,,,0,,,77,55
199890,control_change,,,,,66,0,2,,,0,64,0,,
199900,set_tempo,,,,,300,1,0,472441,,,,,,
199900,note_off,,,,,60,0,1,,,0,,,77,64
199920,note_on,,,,,0,0,2,,,0,,,48,55
199920,note_on,,,,,30,0,2,,,0,,,62,55
199920,note_on,,,,,20,0,1,,,0,,,74,65
199920,control_change,,,,,0,0,2,,,0,64,127,,
199920,note_on,,,,,0,0,2,,,0,,,58,55
200000,note_off,,,,,80,0,1,,,0,,,74,64
200000,note_on,,,,,0,0,1,,,0,,,79,62
200016,note_off,,,,,0,0,2,,,0,,,62,64
200016,note_off,,,,,96,0,2,,,0,,,58,64
200016,note_off,,,,,0,0,2,,,0,,,48,64
200060,note_off,,,,,60,0,1,,,0,,,79,64
200080,note_on,,,,,20,0,1,,,0,,,79,58
200100,control_change,,,,,84,0,2,,,0,64,0,,
200140,note_off,,,,,60,0,1,,,0,,,79,64
200160,note_on,,,,,0,0,2,,,0,,,48,48
200160,note_on,,,,,60,0,2,,,0,,,60,48
200160,note_on,,,,,0,0,2,,,0,,,57,48
200160,control_change,,,,,0,0,2,,,0,64,127,,
200160,note_on,,,,,20,0,1,,,0,,,72,61
200200,set_tempo,,,,,300,1,0,476190,,,,,,
200240,note_on,,,,,0,0,1,,,0,,,77,57
200240,note_off,,,,,80,0,1,,,0,,,72,64
200256,note_off,,,,,0,0,2,,,0,,,57,64
200256,note_off,,,,,96,0,2,,,0,,,48,64
200256,note_off,,,,,0,0,2,,,0,,,60,64
200300,note_off,,,,,60,0,1,,,0,,,77,64
200320,note_on,,,,,20,0,1,,,0,,,77,55
200340,control_change,,,,,84,0,2,,,0,64,0,,
200380,note_off,,,,,60,0,1,,,0,,,77,64
200400,note_on,,,,,20,0,1,,,0,,,72,54
200400,note_on,,,,,60,0,2,,,0,,,48,48
200400,control_change,,,,,0,0,2,,,0,64,127,,
200400,note_on,,,,,0,0,2,,,0,,,58,48
200400,note_on,,,,,0,0,2,,,0,,,55,48
200480,note_off,,,,,80,0,1,,,0,,,72,64
200480,note_on,,,,,0,0,1,,,0,,,76,49
200496,note_off,,,,,96,0,2,,,0,,,55,64
200496,note_off,,,,,0,0,2,,,0,,,58,64
200496,note_off,,,,,0,0,2,,,0,,,48,64
200540,set_tempo,,,,,340,1,0,465116,,,,,,
200540,note_off,,,,,60,0,1,,,0,,,76,64
200560,note_on,,,,,20,0,1,,,0,,,76,45
200580,control_change,,,,,84,0,2,,,0,64,0,,
200620,note_off,,,,,60,0,1,,,0,,,76,64
200640,note_on,,,,,0,0,2,,,0,,,57,55
200640,control_change,,,,,0,0,2,,,0,64,127,,
200640,note_on,,,,,0,0,2,,,0,,,48,55
200640,note_on,,,,,60,0,2,,,0,,,54,55
200640,note_on,,,,,20,0,1,,,0,,,72,54
200720,note_off,,,,,80,0,1,,,0,,,72,64
200720,note_on,,,,,0,0,1,,,0,,,75,52
200780,note_off,,,,,60,0,1,,,0,,,75,64
200780,set_tempo,,,,,240,1,0,458015,,,,,,
200784,note_off,,,,,0,0,2,,,0,,,57,64
200784,note_off,,,,,0,0,2,,,0,,,54,64
200784,note_off,,,,,144,0,2,,,0,,,48,64
200800,note_on,,,,,20,0,1,,,0,,,75,48
200800,set_tempo,,,,,20,1,0,451128,,,,,,
200850,control_change,,,,,66,0,2,,,0,64,0,,
200860,note_off,,,,,60,0,1,,,0,,,75,64
200880,note_on,,,,,0,0,2,,,0,,,57,63
200880,note_on,,,,,0,0,2,,,0,,,54,63
200880,control_change,,,,,0,0,2,,,0,64,127,,
200880,note_on,,,,,30,0,2,,,0,,,48,63
200880,note_on,,,,,20,0,1,,,0,,,72,61
200960,note_on,,,,,0,0,1,,,0,,,74,59
200960,note_off,,,,,80,0,1,,,0,,,72,64
200976,note_off,,,,,96,0,2,,,0,,,54,64
200976,note_off,,,,,0,0,2,,,0,,,57,64
200976,note_off,,,,,0,0,2,,,0,,,48,64
201020,note_off,,,,,60,0,1,,,0,,,74,64
201040,note_on,,,,,20,0,1,,,0,,,74,55
201060,control_change,,,,,84,0,2,,,0,64,0,,
201100,note_off,,,,,60,0,1,,,0,,,74,64
201120,note_on,,,,,60,0,2,,,0,,,54,76
201120,note_on,,,,,0,0,2,,,0,,,48,76
201120,control_change,,,,,0,0,2,,,0,64,127,,
201120,note_on,,,,,20,0,1,,,0,,,69,70
201120,note_on,,,,,0,0,1,,,0,,,66,70
201120,note_on,,,,,0,0,2,,,0,,,57,76
201200,note_off,,,,,0,0,1,,,0,,,69,64
201200,note_off,,,,,80,0,1,,,0,,,66,64
201200,note_on,,,,,0,0,1,,,0,,,75,67
201216,note_off,,,,,96,0,2,,,0,,,57,64
201216,note_off,,,,,0,0,2,,,0,,,48,64
201216,note_off,,,,,0,0,2,,,0,,,54,64
201260,note_off,,,,,60,0,1,,,0,,,75,64
201280,set_tempo,,,,,480,1,0,431655,,,,,,
201280,note_on,,,,,20,0,1,,,0,,,75,63
201300,control_change,,,,,84,0,2,,,0,64,0,,
201340,note_off,,,,,60,0,1,,,0,,,75,64
201360,note_on,,,,,0,0,1,,,0,,,66,83
201360,control_change,,,,,60,0,2,,,0,64,127,,
201360,note_on,,,,,20,0,1,,,0,,,69,83
201360,note_on,,,,,0,0,2,,,0,,,57,82
201360,note_on,,,,,0,0,2,,,0,,,54,82
201360,note_on,,,,,0,0,2,,,0,,,48,82
201440,note_on,,,,,0,0,1,,,0,,,74,79
201440,note_off,,,,,80,0,1,,,0,,,66,64
201440,note_off,,,,,0,0,1,,,0,,,69,64
201456,note_off,,,,,96,0,2,,,0,,,57,64
201456,note_off,,,,,0,0,2,,,0,,,48,64
201456,note_off,,,,,0,0,2,,,0,,,54,64
201500,note_off,,,,,60,0,1,,,0,,,74,64
201520,note_on,,,,,20,0,1,,,0,,,74,78
201540,control_change,,,,,84,0,2,,,0,64,0,,
201540,set_tempo,,,,,260,1,0,451128,,,,,,
201580,note_off,,,,,60,0,1,,,0,,,74,64
201600,note_on,,,,,20,0,1,,,0,,,70,76
201600,note_on,,,,,0,0,1,,,0,,,65,76
201600,note_on,,,,,0,0,2,,,0,,,53,76
201600,note_on,,,,,60,0,2,,,0,,,46,76
201600,note_on,,,,,0,0,2,,,0,,,58,76
201600,control_change,,,,,0,0,2,,,0,64,127,,
201680,note_on,,,,,0,0,1,,,0,,,75,74
201680,note_off,,,,,0,0,1,,,0,,,70,64
201680,note_off,,,,,80,0,1,,,0,,,65,64
201740,note_off,,,,,60,0,1,,,0,,,75,64
201744,note_off,,,,,144,0,2,,,0,,,58,64
201744,note_off,,,,,0,0,2,,,0,,,53,64
201744,note_off,,,,,0,0,2,,,0,,,46,64
201760,note_on,,,,,20,0,1,,,0,,,75,71
201810,control_change,,,,,66,0,2,,,0,64,0,,
201820,set_tempo,,,,,280,1,0,458015,,,,,,
201820,note_off,,,,,60,0,1,,,0,,,75,64
201840,note_on,,,,,0,0,1,,,0,,,65,69
201840,control_change,,,,,0,0,2,,,0,64,127,,
201840,note_on,,,,,20,0,1,,,0,,,70,69
201840,set_tempo,,,,,20,1,0,468750,,,,,,
201840,note_on,,,,,0,0,2,,,0,,,53,65
201840,note_on,,,,,0,0,2,,,0,,,58,65
201840,note_on,,,,,30,0,2,,,0,,,46,65
201860,set_tempo,,,,,20,1,0,480000,,,,,,
201920,note_off,,,,,80,0,1,,,0,,,65,64
201920,note_off,,,,,0,0,1,,,0,,,70,64
201920,note_on,,,,,0,0,1,,,0,,,74,64
201936,note_off,,,,,0,0,2,,,0,,,58,64
201936,note_off,,,,,96,0,2,,,0,,,53,64
201936,note_off,,,,,0,0,2,,,0,,,46,64
201980,note_off,,,,,60,0,1,,,0,,,74,64
202000,note_on,,,,,20,0,1,,,0,,,74,63
202020,control_change,,,,,84,0,2,,,0,64,0,,
202020,set_tempo,,,,,160,1,0,491803,,,,,,
202040,set_tempo,,,,,20,1,0,508475,,,,,,
202060,note_off,,,,,60,0,1,,,0,,,74,64
202080,note_on,,,,,0,0,1,,,0,,,65,60
202080,control_change,,,,,0,0,2,,,0,64,127,,
202080,note_on,,,,,0,0,2,,,0,,,48,56
202080,note_on,,,,,0,0,2,,,0,,,57,56
202080,note_on,,,,,20,0,1,,,0,,,69,60
202080,note_on,,,,,60,0,2,,,0,,,53,56
202160,note_on,,,,,0,0,1,,,0,,,72,57
202160,note_off,,,,,0,0,1,,,0,,,69,64
202160,note_off,,,,,80,0,1,,,0,,,65,64
202176,note_off,,,,,0,0,2,,,0,,,53,64
202176,note_off,,,,,0,0,2,,,0,,,48,64
202176,note_off,,,,,96,0,2,,,0,,,57,64
202220,note_off,,,,,60,0,1,,,0,,,72,64
202240,note_on,,,,,20,0,1,,,0,,,72,53
202260,control_change,,,,,84,0,2,,,0,64,0,,
202260,set_tempo,,,,,220,1,0,526316,,,,,,
202300,note_off,,,,,60,0,1,,,0,,,72,64
202320,note_on,,,,,0,0,2,,,0,,,48,42
202320,note_on,,,,,60,0,2,,,0,,,58,42
202320,note_on,,,,,0,0,1,,,0,,,64,49
202320,note_on,,,,,20,0,1,,,0,,,67,49
202320,control_change,,,,,0,0,2,,,0,64,127,,
202320,note_on,,,,,0,0,2,,,0,,,55,42
202400,note_on,,,,,0,0,1,,,0,,,72,44
202400,note_off,,,,,0,0,1,,,0,,,67,64
202400,note_off,,,,,80,0,1,,,0,,,64,64
202416,note_off,,,,,96,0,2,,,0,,,55,64
202416,note_off,,,,,0,0,2,,,0,,,48,64
202416,note_off,,,,,0,0,2,,,0,,,58,64
202420,set_tempo,,,,,160,1,0,535714,,,,,,
202460,note_off,,,,,60,0,1,,,0,,,72,64
202480,note_on,,,,,20,0,1,,,0,,,72,41
202500,control_change,,,,,84,0,2,,,0,64,0,,
202540,note_off,,,,,60,0,1,,,0,,,72,64
202540,set_tempo,,,,,120,1,0,491803,,,,,,
202560,note_on,,,,,60,0,2,,,0,,,53,49
202560,note_on,,,,,20,0,1,,,0,,,72,49
202560,note_on,,,,,0,0,1,,,0,,,69,49
202560,note_on,,,,,0,0,1,,,0,,,65,49
202640,note_off,,,,,80,0,2,,,0,,,53,64
202640,note_on,,,,,0,0,2,,,0,,,60,44
202700,note_off,,,,,60,0,2,,,0,,,60,64
202700,set_tempo,,,,,160,1,0,472441,,,,,,
202720,note_on,,,,,20,0,2,,,0,,,57,46
202780,note_off,,,,,60,0,2,,,0,,,57,64
202800,note_on,,,,,20,0,2,,,0,,,53,48
202800,note_off,,,,,240,0,1,,,0,,,65,64
202800,note_off,,,,,0,0,1,,,0,,,69,64
202800,note_off,,,,,0,0,1,,,0,,,72,64
202860,set_tempo,,,,,160,1,0,465116,,,,,,
202860,note_off,,,,,60,0,2,,,0,,,53,64
202880,note_on,,,,,20,0,2,,,0,,,48,50
202940,note_off,,,,,60,0,2,,,0,,,48,64
202960,note_on,,,,,20,0,2,,,0,,,45,51
203020,note_off,,,,,60,0,2,,,0,,,45,64
203020,set_tempo,,,,,160,1,0,472441,,,,,,
203040,note_on,,,,,20,0,2,,,0,,,41,51
203040,note_on,,,,,0,0,1,,,0,,,69,40
203040,note_on,,,,,0,0,1,,,0,,,72,40
203040,note_on,,,,,240,0,1,,,0,,,77,40
203080,set_tempo,,,,,60,1,0,483871,,,,,,
203100,note_off,,,,,60,0,2,,,0,,,41,64
203100,set_tempo,,,,,20,1,0,491803,,,,,,
203120,note_on,,,,,20,0,2,,,0,,,45,40
203160,note_off,,,,,0,0,1,,,0,,,72,64
203160,note_off,,,,,0,0,1,,,0,,,77,64
203160,note_off,,,,,120,0,1,,,0,,,69,64
203180,note_off,,,,,60,0,2,,,0,,,45,64
203200,note_on,,,,,20,0,2,,,0,,,48,46
203260,note_off,,,,,60,0,2,,,0,,,48,64
203280,note_on,,,,,120,0,1,,,0,,,77,51
203280,note_on,,,,,0,0,1,,,0,,,75,51
203280,note_on,,,,,0,0,1,,,0,,,72,51
203280,note_on,,,,,20,0,2,,,0,,,45,50
203340,note_off,,,,,60,0,2,,,0,,,45,64
203360,note_on,,,,,20,0,2,,,0,,,48,54
203360,set_tempo,,,,,260,1,0,512821,,,,,,
203400,note_off,,,,,0,0,1,,,0,,,77,64
203400,note_off,,,,,0,0,1,,,0,,,75,64
203400,note_off,,,,,120,0,1,,,0,,,72,64
203420,note_off,,,,,60,0,2,,,0,,,48,64
203440,note_on,,,,,20,0,2,,,0,,,53,57
203480,set_tempo,,,,,120,1,0,540541,,,,,,
203500,note_off,,,,,60,0,2,,,0,,,53,64
203500,set_tempo,,,,,20,1,0,545455,,,,,,
203520,note_on,,,,,20,0,2,,,0,,,53,58
203520,note_on,,,,,120,0,1,,,0,,,74,65
203520,note_on,,,,,0,0,1,,,0,,,70,65
203520,note_on,,,,,0,0,1,,,0,,,65,65
203600,note_on,,,,,0,0,2,,,0,,,62,53
203600,note_off,,,,,80,0,2,,,0,,,53,64
203640,set_tempo,,,,,140,1,0,500000,,,,,,
203660,note_off,,,,,60,0,2,,,0,,,62,64
203680,note_on,,,,,20,0,2,,,0,,,58,51
203740,note_off,,,,,60,0,2,,,0,,,58,64
203740,set_tempo,,,,,100,1,0,480000,,,,,,
203760,note_off,,,,,240,0,1,,,0,,,65,64
203760,note_on,,,,,20,0,2,,,0,,,53,50
203760,note_off,,,,,0,0,1,,,0,,,74,64
203760,note_off,,,,,0,0,1,,,0,,,70,64
203820,note_off,,,,,60,0,2,,,0,,,53,64
203840,note_on,,,,,20,0,2,,,0,,,50,47
203900,note_off,,,,,60,0,2,,,0,,,50,64
203920,note_on,,,,,20,0,2,,,0,,,46,49
203980,note_off,,,,,60,0,2,,,0,,,46,64
204000,note_on,,,,,20,0,2,,,0,,,41,52
204000,set_tempo,,,,,260,1,0,465116,,,,,,
204000,note_on,,,,,240,0,1,,,0,,,77,48
204000,note_on,,,,,0,0,1,,,0,,,74,48
204000,note_on,,,,,0,0,1,,,0,,,70,48
204060,note_off,,,,,60,0,2,,,0,,,41,64
204080,note_on,,,,,20,0,2,,,0,,,46,58
204120,note_off,,,,,0,0,1,,,0,,,74,64
204120,note_off,,,,,0,0,1,,,0,,,77,64
204120,note_off,,,,,120,0,1,,,0,,,70,64
204140,note_off,,,,,60,0,2,,,0,,,46,64
204160,note_on,,,,,20,0,2,,,0,,,50,63
204180,set_tempo,,,,,180,1,0,468750,,,,,,
204220,note_off,,,,,60,0,2,,,0,,,50,64
204240,set_tempo,,,,,60,1,0,472441,,,,,,
204240,note_on,,,,,0,0,1,,,0,,,74,60
204240,note_on,,,,,120,0,1,,,0,,,77,60
204240,note_on,,,,,20,0,2,,,0,,,46,67
204300,note_off,,,,,60,0,2,,,0,,,46,64
204320,note_on,,,,,20,0,2,,,0,,,50,72
204360,note_off,,,,,0,0,1,,,0,,,77,64
204360,note_off,,,,,120,0,1,,,0,,,74,64
204380,note_off,,,,,60,0,2,,,0,,,50,64
204400,note_on,,,,,20,0,2,,,0,,,53,75
204420,set_tempo,,,,,180,1,0,476190,,,,,,
204460,note_off,,,,,60,0,2,,,0,,,53,64
204460,set_tempo,,,,,40,1,0,480000,,,,,,
204480,note_on,,,,,20,0,2,,,0,,,53,75
204480,note_on,,,,,0,0,1,,,0,,,69,70
204480,note_on,,,,,0,0,1,,,0,,,72,70
204480,note_on,,,,,120,0,1,,,0,,,77,70
204500,set_tempo,,,,,40,1,0,472441,,,,,,
204560,note_off,,,,,80,0,2,,,0,,,53,64
204560,note_on,,,,,0,0,2,,,0,,,65,72
204620,note_off,,,,,60,0,2,,,0,,,65,64
204640,set_tempo,,,,,140,1,0,476190,,,,,,
204640,note_on,,,,,20,0,2,,,0,,,60,69
204680,set_tempo,,,,,40,1,0,458015,,,,,,
204700,note_off,,,,,60,0,2,,,0,,,60,64
204720,note_off,,,,,0,0,1,,,0,,,77,64
204720,note_off,,,,,240,0,1,,,0,,,69,64
204720,note_off,,,,,0,0,1,,,0,,,72,64
204720,note_on,,,,,20,0,2,,,0,,,57,65
204780,note_off,,,,,60,0,2,,,0,,,57,64
204800,note_on,,,,,20,0,2,,,0,,,53,61
204860,note_off,,,,,60,0,2,,,0,,,53,64
204880,note_on,,,,,20,0,2,,,0,,,48,59
204920,set_tempo,,,,,240,1,0,447761,,,,,,
204940,note_off,,,,,60,0,2,,,0,,,48,64
204960,note_on,,,,,0,0,1,,,0,,,72,68
204960,note_on,,,,,240,0,1,,,0,,,81,68
204960,note_on,,,,,0,0,1,,,0,,,77,68
204960,note_on,,,,,20,0,2,,,0,,,45,58
205020,note_off,,,,,60,0,2,,,0,,,45,64
205040,note_on,,,,,20,0,2,,,0,,,41,56
205080,note_off,,,,,0,0,1,,,0,,,81,64
205080,note_off,,,,,120,0,1,,,0,,,72,64
205080,note_off,,,,,0,0,1,,,0,,,77,64
205100,note_off,,,,,60,0,2,,,0,,,41,64
205120,note_on,,,,,20,0,2,,,0,,,36,55
205180,note_off,,,,,60,0,2,,,0,,,36,64
205200,note_on,,,,,120,0,1,,,0,,,84,79
205200,note_on,,,,,20,0,2,,,0,,,41,54
205200,note_on,,,,,0,0,1,,,0,,,81,79
205200,note_on,,,,,0,0,1,,,0,,,77,79
205220,set_tempo,,,,,300,1,0,451128,,,,,,
205260,note_off,,,,,60,0,2,,,0,,,41,64
205280,note_on,,,,,20,0,2,,,0,,,45,54
205300,set_tempo,,,,,80,1,0,454545,,,,,,
205320,note_off,,,,,0,0,1,,,0,,,84,64
205320,note_off,,,,,120,0,1,,,0,,,77,64
205320,note_off,,,,,0,0,1,,,0,,,81,64
205340,note_off,,,,,60,0,2,,,0,,,45,64
205340,set_tempo,,,,,40,1,0,472441,,,,,,
205360,note_on,,,,,20,0,2,,,0,,,48,55
205420,note_off,,,,,60,0,2,,,0,,,48,64
205440,note_on,,,,,0,0,2,,,0,,,57,61
205440,note_on,,,,,0,0,2,,,0,,,48,61
205440,control_change,,,,,0,0,2,,,0,64,127,,
205440,note_on,,,,,120,0,1,,,0,,,84,85
205440,note_on,,,,,20,0,2,,,0,,,60,61
205520,note_on,,,,,0,0,1,,,0,,,89,82
205520,note_off,,,,,80,0,1,,,0,,,84,64
205580,note_off,,,,,60,0,1,,,0,,,89,64
205584,note_off,,,,,144,0,2,,,0,,,48,64
205584,note_off,,,,,0,0,2,,,0,,,60,64
205584,note_off,,,,,0,0,2,,,0,,,57,64
205600,note_on,,,,,20,0,1,,,0,,,89,77
205650,control_change,,,,,66,0,2,,,0,64,0,,
205660,note_off,,,,,60,0,1,,,0,,,89,64
205680,note_on,,,,,20,0,1,,,0,,,86,72
205680,note_on,,,,,30,0,2,,,0,,,74,55
205680,control_change,,,,,0,0,2,,,0,64,127,,
205680,note_on,,,,,0,0,2,,,0,,,70,55
205680,note_on,,,,,0,0,2,,,0,,,60,55
205760,note_off,,,,,80,0,1,,,0,,,86,64
205760,note_on,,,,,0,0,1,,,0,,,91,66
205776,note_off,,,,,0,0,2,,,0,,,74,64
205776,note_off,,,,,96,0,2,,,0,,,70,64
205776,note_off,,,,,0,0,2,,,0,,,60,64
205780,set_tempo,,,,,440,1,0,458015,,,,,,
205820,set_tempo,,,,,40,1,0,454545,,,,,,
205820,note_off,,,,,60,0,1,,,0,,,91,64
205840,note_on,,,,,20,0,1,,,0,,,91,61
205860,control_change,,,,,84,0,2,,,0,64,0,,
205900,note_off,,,,,60,0,1,,,0,,,91,64
205920,note_on,,,,,60,0,2,,,0,,,72,48
205920,note_on,,,,,20,0,1,,,0,,,84,61
205920,note_on,,,,,0,0,2,,,0,,,60,48
205920,control_change,,,,,0,0,2,,,0,64,127,,
205920,note_on,,,,,0,0,2,,,0,,,69,48
206000,note_on,,,,,0,0,1,,,0,,,89,57
206000,note_off,,,,,80,0,1,,,0,,,84,64
206016,note_off,,,,,96,0,2,,,0,,,60,64
206016,note_off,,,,,0,0,2,,,0,,,72,64
206016,note_off,,,,,0,0,2,,,0,,,69,64
206060,note_off,,,,,60,0,1,,,0,,,89,64
206080,set_tempo,,,,,260,1,0,451128,,,,,,
206080,note_on,,,,,20,0,1,,,0,,,89,55
206100,control_change,,,,,84,0,2,,,0,64,0,,
206140,note_off,,,,,60,0,1,,,0,,,89,64
206160,note_on,,,,,20,0,1,,,0,,,84,54
206160,note_on,,,,,60,0,2,,,0,,,60,47
206160,control_change,,,,,0,0,2,,,0,64,127,,
206160,note_on,,,,,0,0,2,,,0,,,70,47
206160,note_on,,,,,0,0,2,,,0,,,67,47
206240,note_off,,,,,80,0,1,,,0,,,84,64
206240,note_on,,,,,0,0,1,,,0,,,88,49
206256,note_off,,,,,0,0,2,,,0,,,60,64
206256,note_off,,,,,96,0,2,,,0,,,67,64
206256,note_off,,,,,0,0,2,,,0,,,70,64
206300,note_off,,,,,60,0,1,,,0,,,88,64
206320,note_on,,,,,20,0,1,,,0,,,88,45
206340,control_change,,,,,84,0,2,,,0,64,0,,
206380,note_off,,,,,60,0,1,,,0,,,88,64
206380,set_tempo,,,,,300,1,0,441176,,,,,,
206400,control_change,,,,,0,0,2,,,0,64,127,,
206400,note_on,,,,,0,0,2,,,0,,,60,52
206400,note_on,,,,,60,0,2,,,0,,,66,52
206400,note_on,,,,,20,0,1,,,0,,,84,54
206400,note_on,,,,,0,0,2,,,0,,,69,52
206480,note_on,,,,,0,0,1,,,0,,,87,52
206480,note_off,,,,,80,0,1,,,0,,,84,64
206540,note_off,,,,,60,0,1,,,0,,,87,64
206544,note_off,,,,,0,0,2,,,0,,,69,64
206544,note_off,,,,,0,0,2,,,0,,,66,64
206544,note_off,,,,,144,0,2,,,0,,,60,64
206560,note_on,,,,,20,0,1,,,0,,,87,48
206610,control_change,,,,,66,0,2,,,0,64,0,,
206620,note_off,,,,,60,0,1,,,0,,,87,64
206640,note_on,,,,,20,0,1,,,0,,,84,61
206640,note_on,,,,,0,0,2,,,0,,,66,58
206640,note_on,,,,,30,0,2,,,0,,,60,58
206640,control_change,,,,,0,0,2,,,0,64,127,,
206640,note_on,,,,,0,0,2,,,0,,,69,58
206680,set_tempo,,,,,300,1,0,428571,,,,,,
206720,note_off,,,,,80,0,1,,,0,,,84,64
206720,note_on,,,,,0,0,1,,,0,,,86,59
206736,note_off,,,,,0,0,2,,,0,,,69,64
206736,note_off,,,,,0,0,2,,,0,,,60,64
206736,note_off,,,,,96,0,2,,,0,,,66,64
206780,note_off,,,,,60,0,1,,,0,,,86,64
206800,note_on,,,,,20,0,1,,,0,,,86,55
206820,control_change,,,,,84,0,2,,,0,64,0,,
206860,note_off,,,,,60,0,1,,,0,,,86,64
206880,note_on,,,,,20,0,1,,,0,,,81,70
206880,note_on,,,,,0,0,1,,,0,,,78,70
206880,note_on,,,,,60,0,2,,,0,,,66,67
206880,note_on,,,,,0,0,2,,,0,,,60,67
206880,control_change,,,,,0,0,2,,,0,64,127,,
206880,note_on,,,,,0,0,2,,,0,,,69,67
206960,note_off,,,,,0,0,1,,,0,,,81,64
206960,note_off,,,,,80,0,1,,,0,,,78,64
206960,note_on,,,,,0,0,1,,,0,,,87,67
206976,note_off,,,,,0,0,2,,,0,,,66,64
206976,note_off,,,,,96,0,2,,,0,,,69,64
206976,note_off,,,,,0,0,2,,,0,,,60,64
207020,note_off,,,,,60,0,1,,,0,,,87,64
207040,note_on,,,,,20,0,1,,,0,,,87,63
207060,control_change,,,,,84,0,2,,,0,64,0,,
207100,note_off,,,,,60,0,1,,,0,,,87,64
207120,note_on,,,,,0,0,2,,,0,,,60,73
207120,note_on,,,,,0,0,2,,,0,,,66,73
207120,note_on,,,,,0,0,1,,,0,,,78,83
207120,note_on,,,,,20,0,1,,,0,,,81,83
207120,note_on,,,,,0,0,2,,,0,,,69,73
207120,control_change,,,,,60,0,2,,,0,64,127,,
207200,note_off,,,,,80,0,1,,,0,,,78,64
207200,note_off,,,,,0,0,1,,,0,,,81,64
207200,note_on,,,,,0,0,1,,,0,,,86,79
207216,note_off,,,,,96,0,2,,,0,,,69,64
207216,note_off,,,,,0,0,2,,,0,,,60,64
207216,note_off,,,,,0,0,2,,,0,,,66,64
207260,note_off,,,,,60,0,1,,,0,,,86,64
207280,note_on,,,,,20,0,1,,,0,,,86,78
207300,control_change,,,,,84,0,2,,,0,64,0,,
207340,note_off,,,,,60,0,1,,,0,,,86,64
207360,note_on,,,,,20,0,1,,,0,,,82,76
207360,control_change,,,,,0,0,2,,,0,64,127,,
207360,note_on,,,,,0,0,2,,,0,,,70,63
207360,note_on,,,,,60,0,2,,,0,,,58,63
207360,set_tempo,,,,,680,1,0,451128,,,,,,
207360,note_on,,,,,0,0,2,,,0,,,65,63
207360,note_on,,,,,0,0,1,,,0,,,77,76
207420,set_tempo,,,,,60,1,0,476190,,,,,,
207440,set_tempo,,,,,20,1,0,480000,,,,,,
207440,note_off,,,,,80,0,1,,,0,,,77,64
207440,note_on,,,,,0,0,1,,,0,,,87,74
207440,note_off,,,,,0,0,1,,,0,,,82,64
207460,set_tempo,,,,,20,1,0,491803,,,,,,
207500,note_off,,,,,60,0,1,,,0,,,87,64
207504,note_off,,,,,0,0,2,,,0,,,65,64
207504,note_off,,,,,0,0,2,,,0,,,58,64
207504,note_off,,,,,144,0,2,,,0,,,70,64
207520,note_on,,,,,20,0,1,,,0,,,87,71
207570,control_change,,,,,66,0,2,,,0,64,0,,
207580,note_off,,,,,60,0,1,,,0,,,87,64
207580,set_tempo,,,,,120,1,0,447761,,,,,,
207600,note_on,,,,,20,0,1,,,0,,,82,69
207600,note_on,,,,,0,0,1,,,0,,,77,69
207600,note_on,,,,,30,0,2,,,0,,,58,58
207600,note_on,,,,,0,0,2,,,0,,,70,58
207600,note_on,,,,,0,0,2,,,0,,,65,58
207600,control_change,,,,,0,0,2,,,0,64,127,,
207680,note_on,,,,,0,0,1,,,0,,,86,61
207680,note_off,,,,,0,0,1,,,0,,,82,64
207680,note_off,,,,,80,0,1,,,0,,,77,64
207696,note_off,,,,,96,0,2,,,0,,,65,64
207696,note_off,,,,,0,0,2,,,0,,,70,64
207696,note_off,,,,,0,0,2,,,0,,,58,64
207720,set_tempo,,,,,140,1,0,476190,,,,,,
207740,note_off,,,,,60,0,1,,,0,,,86,64
207760,note_on,,,,,20,0,1,,,0,,,86,58
207780,control_change,,,,,84,0,2,,,0,64,0,,
207820,note_off,,,,,60,0,1,,,0,,,86,64
207820,set_tempo,,,,,100,1,0,512821,,,,,,
207840,note_on,,,,,20,0,1,,,0,,,81,54
207840,note_on,,,,,0,0,1,,,0,,,77,54
207840,note_on,,,,,0,0,2,,,0,,,69,45
207840,control_change,,,,,0,0,2,,,0,64,127,,
207840,note_on,,,,,0,0,2,,,0,,,60,45
207840,note_on,,,,,60,0,2,,,0,,,65,45
207920,note_on,,,,,0,0,1,,,0,,,84,50
207920,note_off,,,,,0,0,1,,,0,,,81,64
207920,note_off,,,,,80,0,1,,,0,,,77,64
207936,note_off,,,,,96,0,2,,,0,,,69,64
207936,note_off,,,,,0,0,2,,,0,,,60,64
207936,note_off,,,,,0,0,2,,,0,,,65,64
207960,set_tempo,,,,,140,1,0,535714,,,,,,
207980,set_tempo,,,,,20,1,0,540541,,,,,,
207980,note_off,,,,,60,0,1,,,0,,,84,64
208000,note_on,,,,,20,0,1,,,0,,,84,45
208020,control_change,,,,,84,0,2,,,0,64,0,,
208060,note_off,,,,,60,0,1,,,0,,,84,64
208080,set_tempo,,,,,100,1,0,625000,,,,,,
208080,note_on,,,,,0,0,2,,,0,,,67,35
208080,control_change,,,,,0,0,2,,,0,64,127,,
208080,note_on,,,,,0,0,1,,,0,,,76,41
208080,note_on,,,,,20,0,1,,,0,,,79,41
208080,note_on,,,,,60,0,2,,,0,,,70,35
208080,note_on,,,,,0,0,2,,,0,,,60,35
208160,note_on,,,,,0,0,1,,,0,,,84,32
208160,note_off,,,,,80,0,1,,,0,,,76,64
208160,note_off,,,,,0,0,1,,,0,,,79,64
208176,note_off,,,,,0,0,2,,,0,,,70,64
208176,note_off,,,,,0,0,2,,,0,,,60,64
208176,note_off,,,,,96,0,2,,,0,,,67,64
208180,set_tempo,,,,,100,1,0,674157,,,,,,
208220,note_off,,,,,60,0,1,,,0,,,84,64
208240,note_on,,,,,20,0,1,,,0,,,84,26
208240,set_tempo,,,,,60,1,0,750000,,,,,,
208260,set_tempo,,,,,20,1,0,895522,,,,,,
208260,control_change,,,,,84,0,2,,,0,64,0,,
208300,set_tempo,,,,,40,1,0,3157895,,,,,,
208300,note_off,,,,,60,0,1,,,0,,,84,64
208320,note_on,,,,,20,0,1,,,0,,,70,54
208320,note_on,,,,,0,0,2,,,0,,,55,52
208320,note_on,,,,,0,0,2,,,0,,,46,52
208320,control_change,,,,,0,0,2,,,0,64,127,,
208320,set_tempo,,,,,20,1,0,560748,,,,,,
208320,note_on,,,,,60,0,2,,,0,,,52,52
208340,set_tempo,,,,,20,1,0,545455,,,,,,
208400,note_on,,,,,0,0,1,,,0,,,73,52
208400,note_off,,,,,80,0,1,,,0,,,70,64
208460,note_off,,,,,60,0,1,,,0,,,73,64
208464,note_off,,,,,144,0,2,,,0,,,46,64
208464,note_off,,,,,0,0,2,,,0,,,55,64
208464,note_off,,,,,0,0,2,,,0,,,52,64
208480,note_on,,,,,20,0,1,,,0,,,73,48
208530,control_change,,,,,66,0,2,,,0,64,0,,
208540,note_off,,,,,60,0,1,,,0,,,73,64
208560,note_on,,,,,20,0,1,,,0,,,70,61
208560,note_on,,,,,0,0,2,,,0,,,55,58
208560,note_on,,,,,0,0,2,,,0,,,52,58
208560,control_change,,,,,0,0,2,,,0,64,127,,
208560,note_on,,,,,30,0,2,,,0,,,46,58
208620,set_tempo,,,,,280,1,0,526316,,,,,,
208640,note_off,,,,,80,0,1,,,0,,,70,64
208640,note_on,,,,,0,0,1,,,0,,,72,59
208656,note_off,,,,,0,0,2,,,0,,,55,64
208656,note_off,,,,,96,0,2,,,0,,,52,64
208656,note_off,,,,,0,0,2,,,0,,,46,64
208700,note_off,,,,,60,0,1,,,0,,,72,64
208720,note_on,,,,,20,0,1,,,0,,,72,55
208740,control_change,,,,,84,0,2,,,0,64,0,,
208780,note_off,,,,,60,0,1,,,0,,,72,64
208800,note_on,,,,,0,0,1,,,0,,,64,70
208800,note_on,,,,,0,0,2,,,0,,,46,67
208800,note_on,,,,,0,0,2,,,0,,,55,67
208800,control_change,,,,,0,0,2,,,0,64,127,,
208800,set_tempo,,,,,180,1,0,504202,,,,,,
208800,note_on,,,,,60,0,2,,,0,,,52,67
208800,note_on,,,,,20,0,1,,,0,,,67,70
208880,note_off,,,,,80,0,1,,,0,,,64,64
208880,note_off,,,,,0,0,1,,,0,,,67,64
208880,note_on,,,,,0,0,1,,,0,,,73,67
208896,note_off,,,,,96,0,2,,,0,,,55,64
208896,note_off,,,,,0,0,2,,,0,,,46,64
208896,note_off,,,,,0,0,2,,,0,,,52,64
208940,note_off,,,,,60,0,1,,,0,,,73,64
208960,note_on,,,,,20,0,1,,,0,,,73,63
208980,control_change,,,,,84,0,2,,,0,64,0,,
209020,note_off,,,,,60,0,1,,,0,,,73,64
209040,control_change,,,,,60,0,2,,,0,64,127,,
209040,note_on,,,,,0,0,2,,,0,,,46,73
209040,note_on,,,,,0,0,2,,,0,,,52,73
209040,note_on,,,,,20,0,1,,,0,,,67,83
209040,note_on,,,,,0,0,1,,,0,,,64,83
209040,note_on,,,,,0,0,2,,,0,,,55,73
209100,set_tempo,,,,,300,1,0,491803,,,,,,
209120,note_off,,,,,80,0,1,,,0,,,64,64
209120,note_off,,,,,0,0,1,,,0,,,67,64
209120,note_on,,,,,0,0,1,,,0,,,72,79
209136,note_off,,,,,96,0,2,,,0,,,55,64
209136,note_off,,,,,0,0,2,,,0,,,52,64
209136,note_off,,,,,0,0,2,,,0,,,46,64
209180,note_off,,,,,60,0,1,,,0,,,72,64
209200,note_on,,,,,20,0,1,,,0,,,72,78
209220,control_change,,,,,84,0,2,,,0,64,0,,
209260,note_off,,,,,60,0,1,,,0,,,72,64
209280,note_on,,,,,60,0,2,,,0,,,44,63
209280,control_change,,,,,0,0,2,,,0,64,127,,
209280,note_on,,,,,0,0,2,,,0,,,51,63
209280,note_on,,,,,0,0,2,,,0,,,56,63
209280,note_on,,,,,20,0,1,,,0,,,68,76
209280,note_on,,,,,0,0,1,,,0,,,63,76
209360,note_off,,,,,80,0,1,,,0,,,63,64
209360,note_off,,,,,0,0,1,,,0,,,68,64
209360,note_on,,,,,0,0,1,,,0,,,73,74
209420,note_off,,,,,60,0,1,,,0,,,73,64
209424,note_off,,,,,0,0,2,,,0,,,51,64
209424,note_off,,,,,144,0,2,,,0,,,56,64
209424,note_off,,,,,0,0,2,,,0,,,44,64
209440,note_on,,,,,20,0,1,,,0,,,73,71
209490,control_change,,,,,66,0,2,,,0,64,0,,
209500,set_tempo,,,,,400,1,0,512821,,,,,,
209500,note_off,,,,,60,0,1,,,0,,,73,64
209520,note_on,,,,,0,0,2,,,0,,,51,58
209520,control_change,,,,,0,0,2,,,0,64,127,,
209520,note_on,,,,,20,0,1,,,0,,,68,69
209520,note_on,,,,,30,0,2,,,0,,,44,58
209520,note_on,,,,,0,0,2,,,0,,,56,58
209520,note_on,,,,,0,0,1,,,0,,,63,69
209600,note_off,,,,,80,0,1,,,0,,,63,64
209600,note_off,,,,,0,0,1,,,0,,,68,64
209600,note_on,,,,,0,0,1,,,0,,,72,61
209616,note_off,,,,,0,0,2,,,0,,,44,64
209616,note_off,,,,,0,0,2,,,0,,,56,64
209616,note_off,,,,,96,0,2,,,0,,,51,64
209640,set_tempo,,,,,140,1,0,530973,,,,,,
209660,note_off,,,,,60,0,1,,,0,,,72,64
209680,note_on,,,,,20,0,1,,,0,,,72,58
209700,control_change,,,,,84,0,2,,,0,64,0,,
209740,note_off,,,,,60,0,1,,,0,,,72,64
209760,set_tempo,,,,,120,1,0,582524,,,,,,
209760,note_on,,,,,0,0,1,,,0,,,63,54
209760,note_on,,,,,0,0,2,,,0,,,46,45
209760,note_on,,,,,0,0,2,,,0,,,55,45
209760,control_change,,,,,0,0,2,,,0,64,127,,
209760,note_on,,,,,60,0,2,,,0,,,51,45
209760,note_on,,,,,20,0,1,,,0,,,67,54
209780,set_tempo,,,,,20,1,0,600000,,,,,,
209800,set_tempo,,,,,20,1,0,606061,,,,,,
209840,note_on,,,,,0,0,1,,,0,,,70,50
209840,note_off,,,,,0,0,1,,,0,,,67,64
209840,note_off,,,,,80,0,1,,,0,,,63,64
209856,note_off,,,,,0,0,2,,,0,,,51,64
209856,note_off,,,,,0,0,2,,,0,,,46,64
209856,note_off,,,,,96,0,2,,,0,,,55,64
209880,set_tempo,,,,,80,1,0,625000,,,,,,
209900,set_tempo,,,,,20,1,0,652174,,,,,,
209900,note_off,,,,,60,0,1,,,0,,,70,64
209920,note_on,,,,,20,0,1,,,0,,,70,45
209940,control_change,,,,,84,0,2,,,0,64,0,,
209980,note_off,,,,,60,0,1,,,0,,,70,64
210000,note_on,,,,,60,0,2,,,0,,,56,35
210000,note_on,,,,,0,0,2,,,0,,,53,35
210000,control_change,,,,,0,0,2,,,0,64,127,,
210000,note_on,,,,,20,0,1,,,0,,,65,41
210000,set_tempo,,,,,100,1,0,674157,,,,,,
210000,note_on,,,,,0,0,2,,,0,,,46,35
210000,note_on,,,,,0,0,1,,,0,,,62,41
210020,set_tempo,,,,,20,1,0,689655,,,,,,
210040,set_tempo,,,,,20,1,0,705882,,,,,,
210060,set_tempo,,,,,20,1,0,731707,,,,,,
210080,note_off,,,,,80,0,1,,,0,,,62,64
210080,note_on,,,,,0,0,1,,,0,,,70,32
210080,note_off,,,,,0,0,1,,,0,,,65,64
210096,note_off,,,,,96,0,2,,,0,,,53,64
210096,note_off,,,,,0,0,2,,,0,,,46,64
210096,note_off,,,,,0,0,2,,,0,,,56,64
210120,set_tempo,,,,,60,1,0,769231,,,,,,
210140,set_tempo,,,,,20,1,0,869565,,,,,,
210140,note_off,,,,,60,0,1,,,0,,,70,64
210160,note_on,,,,,20,0,1,,,0,,,70,26
210160,set_tempo,,,,,20,1,0,923077,,,,,,
210180,control_change,,,,,84,0,2,,,0,64,0,,
210200,set_tempo,,,,,40,1,0,952381,,,,,,
210220,note_off,,,,,60,0,1,,,0,,,70,64
210220,set_tempo,,,,,20,1,0,2500000,,,,,,
210240,set_tempo,,,,,20,1,0,2727273,,,,,,
210280,set_tempo,,,,,40,1,0,714286,,,,,,
210700,set_tempo,,,,,420,1,0,600000,,,,,,
210720,note_on,,,,,500,0,1,,,0,,,78,38
210720,note_on,,,,,540,0,2,,,0,,,66,43
210720,control_change,,,,,0,0,2,,,0,64,127,,
210720,note_on,,,,,0,0,1,,,0,,,73,38
210800,note_off,,,,,0,0,1,,,0,,,78,64
210800,note_off,,,,,80,0,1,,,0,,,73,64
210800,set_tempo,,,,,100,1,0,631579,,,,,,
210800,note_on,,,,,0,0,1,,,0,,,82,35
210860,note_off,,,,,60,0,1,,,0,,,82,64
210864,note_off,,,,,144,0,2,,,0,,,66,64
210880,note_on,,,,,20,0,1,,,0,,,82,31
210930,control_change,,,,,66,0,2,,,0,64,0,,
210940,note_off,,,,,60,0,1,,,0,,,82,64
210960,control_change,,,,,30,0,2,,,0,64,127,,
210960,note_on,,,,,20,0,1,,,0,,,78,29
210960,note_on,,,,,0,0,2,,,0,,,63,36
210960,note_on,,,,,0,0,1,,,0,,,73,29
211040,set_tempo,,,,,240,1,0,674157,,,,,,
211040,note_off,,,,,0,0,1,,,0,,,78,64
211040,note_off,,,,,80,0,1,,,0,,,73,64
211040,note_on,,,,,0,0,1,,,0,,,81,26
211056,note_off,,,,,96,0,2,,,0,,,63,64
211100,note_off,,,,,60,0,1,,,0,,,81,64
211120,note_on,,,,,20,0,1,,,0,,,81,28
211140,control_change,,,,,84,0,2,,,0,64,0,,
211180,note_off,,,,,60,0,1,,,0,,,81,64
211200,note_on,,,,,0,0,2,,,0,,,68,30
211200,note_on,,,,,0,0,1,,,0,,,73,30
211200,note_on,,,,,20,0,1,,,0,,,77,30
211200,control_change,,,,,60,0,2,,,0,64,127,,
211280,note_off,,,,,80,0,1,,,0,,,73,64
211280,note_on,,,,,0,0,1,,,0,,,80,28
211280,set_tempo,,,,,240,1,0,731707,,,,,,
211280,note_off,,,,,0,0,1,,,0,,,77,64
211296,note_off,,,,,96,0,2,,,0,,,68,64
211340,note_off,,,,,60,0,1,,,0,,,80,64
211360,note_on,,,,,20,0,1,,,0,,,80,24
211380,control_change,,,,,84,0,2,,,0,64,0,,
211420,note_off,,,,,60,0,1,,,0,,,80,64
211440,note_on,,,,,20,0,1,,,0,,,75,25
211440,note_on,,,,,0,0,1,,,0,,,72,25
211440,control_change,,,,,0,0,2,,,0,64,127,,
211440,note_on,,,,,60,0,2,,,0,,,68,22
211460,set_tempo,,,,,180,1,0,779221,,,,,,
211520,note_off,,,,,80,0,1,,,0,,,72,64
211520,note_off,,,,,0,0,1,,,0,,,75,64
211520,note_on,,,,,0,0,1,,,0,,,80,23
211536,note_off,,,,,96,0,2,,,0,,,68,64
211580,note_off,,,,,60,0,1,,,0,,,80,64
211600,note_on,,,,,20,0,1,,,0,,,80,19
211620,control_change,,,,,84,0,2,,,0,64,0,,
211660,note_off,,,,,60,0,1,,,0,,,80,64
211700,set_tempo,,,,,240,1,0,1395349,,,,,,
211860,set_tempo,,,,,160,1,0,722892,,,,,,
211920,note_on,,,,,0,0,2,,,0,,,44,30
211920,note_on,,,,,0,0,1,,,0,,,61,30
211920,note_on,,,,,260,0,1,,,0,,,64,30
211920,control_change,,,,,300,0,2,,,0,64,127,,
212000,note_on,,,,,0,0,1,,,0,,,68,28
212000,note_off,,,,,0,0,1,,,0,,,64,64
212000,note_off,,,,,80,0,1,,,0,,,61,64
212016,note_off,,,,,96,0,2,,,0,,,44,64
212020,set_tempo,,,,,160,1,0,714286,,,,,,
212060,note_off,,,,,60,0,1,,,0,,,68,64
212080,note_on,,,,,20,0,1,,,0,,,68,24
212100,control_change,,,,,84,0,2,,,0,64,0,,
212140,note_off,,,,,60,0,1,,,0,,,68,64
212160,control_change,,,,,60,0,2,,,0,64,127,,
212160,note_on,,,,,0,0,1,,,0,,,60,25
212160,note_on,,,,,20,0,1,,,0,,,63,25
212160,note_on,,,,,0,0,2,,,0,,,44,22
212200,set_tempo,,,,,180,1,0,769231,,,,,,
212240,note_off,,,,,80,0,1,,,0,,,60,64
212240,note_on,,,,,0,0,1,,,0,,,68,23
212240,note_off,,,,,0,0,1,,,0,,,63,64
212256,note_off,,,,,96,0,2,,,0,,,44,64
212300,note_off,,,,,60,0,1,,,0,,,68,64
212320,note_on,,,,,20,0,1,,,0,,,68,19
212340,control_change,,,,,84,0,2,,,0,64,0,,
212380,note_off,,,,,60,0,1,,,0,,,68,64
212480,set_tempo,,,,,280,1,0,810811,,,,,,
212500,set_tempo,,,,,20,1,0,1304348,,,,,,
212520,set_tempo,,,,,20,1,0,2222222,,,,,,
212620,set_tempo,,,,,100,1,0,1276596,,,,,,
212640,note_on,,,,,0,0,2,,,0,,,45,30
212640,control_change,,,,,300,0,2,,,0,64,127,,
212640,set_tempo,,,,,20,1,0,845070,,,,,,
212640,note_on,,,,,0,0,1,,,0,,,60,30
212640,note_on,,,,,260,0,1,,,0,,,63,30
212680,set_tempo,,,,,40,1,0,869565,,,,,,
212720,note_off,,,,,80,0,1,,,0,,,60,64
212720,note_on,,,,,0,0,1,,,0,,,66,28
212720,note_off,,,,,0,0,1,,,0,,,63,64
212720,set_tempo,,,,,40,1,0,845070,,,,,,
212736,note_off,,,,,96,0,2,,,0,,,45,64
212780,note_off,,,,,60,0,1,,,0,,,66,64
212780,set_tempo,,,,,60,1,0,895522,,,,,,
212800,note_on,,,,,20,0,1,,,0,,,66,24
212820,control_change,,,,,84,0,2,,,0,64,0,,
212860,note_off,,,,,60,0,1,,,0,,,66,64
212880,note_on,,,,,0,0,2,,,0,,,45,22
212880,note_on,,,,,0,0,1,,,0,,,60,25
212880,note_on,,,,,20,0,1,,,0,,,63,25
212880,control_change,,,,,60,0,2,,,0,64,127,,
212880,set_tempo,,,,,100,1,0,967742,,,,,,
212900,set_tempo,,,,,20,1,0,1000000,,,,,,
212960,note_off,,,,,80,0,1,,,0,,,60,64
212960,note_on,,,,,0,0,1,,,0,,,65,23
212960,note_off,,,,,0,0,1,,,0,,,63,64
212976,note_off,,,,,96,0,2,,,0,,,45,64
213020,note_off,,,,,60,0,1,,,0,,,65,64
213040,set_tempo,,,,,140,1,0,1176471,,,,,,
213040,note_on,,,,,20,0,1,,,0,,,65,19
213100,note_off,,,,,60,0,1,,,0,,,65,64
213120,set_tempo,,,,,80,1,0,1463415,,,,,,
213360,note_on,,,,,260,0,1,,,0,,,75,29
213360,set_tempo,,,,,240,1,0,750000,,,,,,
213360,control_change,,,,,384,0,2,,,0,64,127,,
213360,note_on,,,,,0,0,2,,,0,,,57,31
213360,note_on,,,,,0,0,1,,,0,,,72,29
213440,note_on,,,,,0,0,1,,,0,,,77,29
213440,note_off,,,,,0,0,1,,,0,,,75,64
213440,note_off,,,,,80,0,1,,,0,,,72,64
213456,note_off,,,,,96,0,2,,,0,,,57,64
213500,set_tempo,,,,,140,1,0,689655,,,,,,
213500,note_off,,,,,60,0,1,,,0,,,77,64
213520,note_on,,,,,20,0,1,,,0,,,77,30
213540,control_change,,,,,84,0,2,,,0,64,0,,
213580,note_off,,,,,60,0,1,,,0,,,77,64
213600,control_change,,,,,60,0,2,,,0,64,127,,
213600,note_on,,,,,20,0,1,,,0,,,75,38
213600,note_on,,,,,0,0,1,,,0,,,70,38
213600,note_on,,,,,0,0,2,,,0,,,58,35
213620,set_tempo,,,,,120,1,0,645161,,,,,,
213680,note_off,,,,,80,0,1,,,0,,,70,64
213680,note_off,,,,,0,0,1,,,0,,,75,64
213680,note_on,,,,,0,0,1,,,0,,,79,35
213696,note_off,,,,,96,0,2,,,0,,,58,64
213740,note_off,,,,,60,0,1,,,0,,,79,64
213760,note_on,,,,,20,0,1,,,0,,,79,28
213780,control_change,,,,,84,0,2,,,0,64,0,,
213820,set_tempo,,,,,200,1,0,588235,,,,,,
213820,note_off,,,,,60,0,1,,,0,,,79,64
213840,note_on,,,,,0,0,1,,,0,,,70,41
213840,control_change,,,,,0,0,2,,,0,64,127,,
213840,note_on,,,,,20,0,1,,,0,,,74,41
213840,note_on,,,,,60,0,2,,,0,,,46,40
213920,note_on,,,,,0,0,1,,,0,,,77,37
213920,note_off,,,,,0,0,1,,,0,,,74,64
213920,note_off,,,,,80,0,1,,,0,,,70,64
213936,note_off,,,,,96,0,2,,,0,,,46,64
213980,set_tempo,,,,,160,1,0,560748,,,,,,
213980,note_off,,,,,60,0,1,,,0,,,77,64
214000,note_on,,,,,20,0,1,,,0,,,77,35
214020,control_change,,,,,84,0,2,,,0,64,0,,
214060,note_off,,,,,60,0,1,,,0,,,77,64
214080,note_on,,,,,0,0,1,,,0,,,58,51
214080,note_on,,,,,20,0,1,,,0,,,62,51
214080,control_change,,,,,0,0,2,,,0,64,127,,
214080,note_on,,,,,60,0,2,,,0,,,48,46
214160,note_on,,,,,0,0,1,,,0,,,65,49
214160,note_off,,,,,0,0,1,,,0,,,62,64
214160,note_off,,,,,80,0,1,,,0,,,58,64
214200,note_off,,,,,120,0,2,,,0,,,48,64
214220,note_off,,,,,60,0,1,,,0,,,65,64
214240,note_on,,,,,20,0,1,,,0,,,65,43
214290,control_change,,,,,90,0,2,,,0,64,0,,
214300,note_off,,,,,60,0,1,,,0,,,65,64
214320,note_on,,,,,30,0,2,,,0,,,48,53
214320,control_change,,,,,0,0,2,,,0,64,127,,
214320,set_tempo,,,,,340,1,0,545455,,,,,,
214320,note_on,,,,,20,0,1,,,0,,,60,61
214320,note_on,,,,,0,0,1,,,0,,,57,61
214340,set_tempo,,,,,20,1,0,550459,,,,,,
214360,set_tempo,,,,,20,1,0,545455,,,,,,
214380,set_tempo,,,,,20,1,0,550459,,,,,,
214400,note_off,,,,,80,0,1,,,0,,,57,64
214400,note_off,,,,,0,0,1,,,0,,,60,64
214400,note_on,,,,,0,0,1,,,0,,,65,56
214400,set_tempo,,,,,20,1,0,545455,,,,,,
214416,note_off,,,,,96,0,2,,,0,,,48,64
214420,set_tempo,,,,,20,1,0,550459,,,,,,
214440,set_tempo,,,,,20,1,0,540541,,,,,,
214460,note_off,,,,,60,0,1,,,0,,,65,64
214480,note_on,,,,,20,0,1,,,0,,,65,52
214500,control_change,,,,,84,0,2,,,0,64,0,,
214540,note_off,,,,,60,0,1,,,0,,,65,64
214560,note_on,,,,,60,0,2,,,0,,,48,63
214560,control_change,,,,,0,0,2,,,0,64,127,,
214560,note_on,,,,,0,0,2,,,0,,,58,63
214560,note_on,,,,,20,0,1,,,0,,,65,73
214560,note_on,,,,,0,0,1,,,0,,,60,73
214560,note_on,,,,,0,0,2,,,0,,,55,63
214640,note_off,,,,,0,0,1,,,0,,,65,64
214640,note_on,,,,,0,0,1,,,0,,,72,67
214640,note_off,,,,,80,0,1,,,0,,,60,64
214656,note_off,,,,,0,0,2,,,0,,,48,64
214656,note_off,,,,,0,0,2,,,0,,,58,64
214656,note_off,,,,,96,0,2,,,0,,,55,64
214700,note_off,,,,,60,0,1,,,0,,,72,64
214720,note_on,,,,,20,0,1,,,0,,,72,62
214770,control_change,,,,,114,0,2,,,0,64,0,,
214780,note_off,,,,,60,0,1,,,0,,,72,64
214800,note_on,,,,,0,0,2,,,0,,,55,63
214800,note_on,,,,,30,0,2,,,0,,,58,63
214800,note_on,,,,,20,0,1,,,0,,,64,76
214800,control_change,,,,,0,0,2,,,0,64,127,,
214800,note_on,,,,,0,0,2,,,0,,,48,63
214800,note_on,,,,,0,0,1,,,0,,,60,76
214860,set_tempo,,,,,420,1,0,566038,,,,,,
214880,note_on,,,,,0,0,1,,,0,,,72,81
214880,note_off,,,,,80,0,1,,,0,,,60,64
214880,note_off,,,,,0,0,1,,,0,,,64,64
214896,note_off,,,,,96,0,2,,,0,,,55,64
214896,note_off,,,,,0,0,2,,,0,,,48,64
214896,note_off,,,,,0,0,2,,,0,,,58,64
214940,note_off,,,,,60,0,1,,,0,,,72,64
214960,note_on,,,,,20,0,1,,,0,,,72,84
214980,control_change,,,,,84,0,2,,,0,64,0,,
215020,note_off,,,,,60,0,1,,,0,,,72,64
215040,note_on,,,,,0,0,1,,,0,,,60,88
215040,note_on,,,,,20,0,1,,,0,,,65,63
215040,note_on,,,,,0,0,2,,,0,,,41,84
215040,note_on,,,,,0,0,2,,,0,,,53,84
215040,note_on,,,,,0,0,1,,,0,,,57,88
215040,set_tempo,,,,,180,1,0,582524,,,,,,
215040,control_change,,,,,60,0,2,,,0,64,127,,
215060,set_tempo,,,,,20,1,0,689655,,,,,,
215120,set_tempo,,,,,60,1,0,550459,,,,,,
215120,note_off,,,,,0,0,1,,,0,,,60,64
215120,note_off,,,,,0,0,1,,,0,,,65,64
215120,note_on,,,,,0,0,1,,,0,,,60,69
215120,note_off,,,,,80,0,1,,,0,,,57,64
215200,note_off,,,,,80,0,1,,,0,,,60,64
215200,note_on,,,,,0,0,1,,,0,,,57,62
215232,note_off,,,,,0,0,2,,,0,,,53,64
215232,note_off,,,,,192,0,2,,,0,,,41,64
215240,set_tempo,,,,,120,1,0,560748,,,,,,
215280,note_off,,,,,80,0,1,,,0,,,57,64
215280,control_change,,,,,48,0,2,,,0,64,0,,
215280,note_on,,,,,0,0,1,,,0,,,60,68
215360,note_on,,,,,0,0,1,,,0,,,65,76
215360,note_off,,,,,80,0,1,,,0,,,60,64
215440,note_off,,,,,80,0,1,,,0,,,65,64
215440,note_on,,,,,0,0,1,,,0,,,69,80
215520,note_on,,,,,0,0,1,,,0,,,57,84
215520,note_on,,,,,0,0,1,,,0,,,60,84
215520,note_off,,,,,80,0,1,,,0,,,69,64
215520,note_on,,,,,0,0,1,,,0,,,72,84
215580,set_tempo,,,,,340,1,0,625000,,,,,,
215760,note_on,,,,,480,0,2,,,0,,,62,48
215820,set_tempo,,,,,240,1,0,588235,,,,,,
215880,note_on,,,,,0,0,1,,,0,,,55,42
215880,note_off,,,,,0,0,1,,,0,,,72,64
215880,note_off,,,,,120,0,2,,,0,,,62,64
215880,note_on,,,,,0,0,2,,,0,,,64,56
215880,note_on,,,,,0,0,1,,,0,,,58,42
215880,note_off,,,,,360,0,1,,,0,,,57,64
215880,note_off,,,,,0,0,1,,,0,,,60,64
215880,note_on,,,,,0,0,1,,,0,,,70,42
216000,note_off,,,,,120,0,1,,,0,,,55,64
216000,note_off,,,,,0,0,1,,,0,,,58,64
216000,note_on,,,,,0,0,2,,,0,,,65,61
216000,note_on,,,,,0,0,1,,,0,,,57,52
216000,note_off,,,,,120,0,2,,,0,,,64,64
216000,note_on,,,,,0,0,1,,,0,,,53,52
216000,note_off,,,,,0,0,1,,,0,,,70,64
216000,note_on,,,,,0,0,1,,,0,,,69,52
216220,set_tempo,,,,,400,1,0,582524,,,,,,
216240,note_off,,,,,240,0,2,,,0,,,65,64
216240,note_off,,,,,240,0,1,,,0,,,53,64
216240,note_off,,,,,0,0,1,,,0,,,57,64
216240,note_off,,,,,0,0,1,,,0,,,69,64
216240,note_on,,,,,0,0,1,,,0,,,69,50
216240,note_on,,,,,0,0,1,,,0,,,67,50
216240,note_on,,,,,0,0,1,,,0,,,61,50
216240,note_on,,,,,0,0,1,,,0,,,57,50
216240,note_on,,,,,0,0,1,,,0,,,51,50
216240,set_tempo,,,,,20,1,0,571429,,,,,,
216480,note_on,,,,,0,0,1,,,0,,,57,55
216480,note_on,,,,,0,0,1,,,0,,,60,55
216480,note_on,,,,,0,0,1,,,0,,,62,55
216480,note_on,,,,,0,0,1,,,0,,,69,55
216480,note_on,,,,,0,0,1,,,0,,,50,55
216480,note_off,,,,,0,0,1,,,0,,,67,64
216480,note_off,,,,,0,0,1,,,0,,,61,64
216480,note_off,,,,,0,0,1,,,0,,,57,64
216480,note_off,,,,,0,0,1,,,0,,,69,64
216480,note_off,,,,,240,0,1,,,0,,,51,64
216480,note_on,,,,,0,0,1,,,0,,,66,55
216720,note_off,,,,,0,0,1,,,0,,,60,64
216720,note_off,,,,,240,0,1,,,0,,,50,64
216720,note_off,,,,,0,0,1,,,0,,,57,64
216720,note_on,,,,,0,0,2,,,0,,,67,57
216720,note_on,,,,,0,0,2,,,0,,,62,57
216720,note_on,,,,,0,0,2,,,0,,,58,57
216720,note_on,,,,,0,0,2,,,0,,,43,57
216720,note_on,,,,,0,0,2,,,0,,,50,57
216720,note_on,,,,,480,0,2,,,0,,,55,57
216720,note_off,,,,,0,0,1,,,0,,,66,64
216720,note_off,,,,,0,0,1,,,0,,,69,64
216720,note_on,,,,,0,0,1,,,0,,,70,72
216720,note_off,,,,,0,0,1,,,0,,,62,64
216760,set_tempo,,,,,520,1,0,600000,,,,,,
216900,set_tempo,,,,,140,1,0,618557,,,,,,
216900,note_off,,,,,180,0,1,,,0,,,70,64
216900,note_on,,,,,0,0,1,,,0,,,69,48
216960,note_off,,,,,0,0,2,,,0,,,58,64
216960,note_off,,,,,0,0,2,,,0,,,43,64
216960,note_off,,,,,60,0,1,,,0,,,69,64
216960,note_off,,,,,0,0,2,,,0,,,62,64
216960,note_off,,,,,240,0,2,,,0,,,67,64
216960,note_off,,,,,0,0,2,,,0,,,55,64
216960,note_on,,,,,0,0,2,,,0,,,58,42
216960,note_on,,,,,0,0,2,,,0,,,48,42
216960,note_on,,,,,0,0,2,,,0,,,60,42
216960,note_on,,,,,0,0,2,,,0,,,64,42
216960,control_change,,,,,0,0,2,,,0,64,127,,
216960,note_off,,,,,0,0,2,,,0,,,50,64
216960,note_on,,,,,0,0,1,,,0,,,67,45
217300,set_tempo,,,,,400,1,0,652174,,,,,,
217320,note_off,,,,,360,0,1,,,0,,,67,64
217320,note_on,,,,,0,0,1,,,0,,,68,45
217380,control_change,,,,,420,0,2,,,0,64,0,,
217380,set_tempo,,,,,80,1,0,659341,,,,,,
217400,set_tempo,,,,,20,1,0,652174,,,,,,
217440,note_on,,,,,0,0,2,,,0,,,57,38
217440,control_change,,,,,0,0,2,,,0,64,127,,
217440,note_off,,,,,0,0,2,,,0,,,64,64
217440,note_off,,,,,0,0,2,,,0,,,60,64
217440,note_off,,,,,0,0,2,,,0,,,58,64
217440,note_off,,,,,60,0,2,,,0,,,48,64
217440,note_on,,,,,0,0,1,,,0,,,60,39
217440,note_on,,,,,0,0,2,,,0,,,53,38
217440,note_off,,,,,120,0,1,,,0,,,68,64
217440,note_on,,,,,0,0,1,,,0,,,69,39
217440,note_on,,,,,0,0,1,,,0,,,65,39
217480,set_tempo,,,,,80,1,0,689655,,,,,,
217520,note_off,,,,,80,0,2,,,0,,,53,64
217520,note_off,,,,,0,0,1,,,0,,,69,64
217520,note_off,,,,,0,0,1,,,0,,,65,64
217520,note_off,,,,,0,0,2,,,0,,,57,64
217520,note_off,,,,,80,0,1,,,0,,,60,64
217560,control_change,,,,,40,0,2,,,0,64,0,,
217640,set_tempo,,,,,160,1,0,705882,,,,,,
217660,set_tempo,,,,,20,1,0,714286,,,,,,
217680,note_on,,,,,0,0,1,,,0,,,65,28
217680,note_on,,,,,160,0,1,,,0,,,69,28
217680,note_on,,,,,0,0,1,,,0,,,60,28
217680,note_on,,,,,0,0,2,,,0,,,53,28
217680,note_on,,,,,0,0,2,,,0,,,57,28
217680,control_change,,,,,120,0,2,,,0,64,127,,
217760,note_off,,,,,80,0,2,,,0,,,57,64
217760,note_off,,,,,0,0,2,,,0,,,53,64
217760,set_tempo,,,,,100,1,0,1463415,,,,,,
217760,note_off,,,,,80,0,1,,,0,,,60,64
217760,note_off,,,,,0,0,1,,,0,,,65,64
217760,note_off,,,,,0,0,1,,,0,,,69,64
217800,control_change,,,,,40,0,2,,,0,64,0,,
217920,set_tempo,,,,,160,1,0,779221,,,,,,
218000,note_on,,,,,240,0,1,,,0,,,48,41
218000,set_tempo,,,,,80,1,0,689655,,,,,,
218020,set_tempo,,,,,20,1,0,681818,,,,,,
218040,set_tempo,,,,,20,1,0,666667,,,,,,
218080,note_on,,,,,0,0,1,,,0,,,45,39
218080,note_off,,,,,80,0,1,,,0,,,48,64
218140,set_tempo,,,,,100,1,0,645161,,,,,,
218160,note_off,,,,,80,0,1,,,0,,,45,64
218160,note_on,,,,,0,0,1,,,0,,,48,45
218160,control_change,,,,,360,0,2,,,0,64,0,,
218240,note_off,,,,,80,0,1,,,0,,,48,64
218240,note_on,,,,,0,0,1,,,0,,,53,50
218320,note_on,,,,,0,0,1,,,0,,,57,55
218320,note_off,,,,,80,0,1,,,0,,,53,64
218340,set_tempo,,,,,200,1,0,625000,,,,,,
218400,note_on,,,,,0,0,1,,,0,,,60,59
218400,note_on,,,,,0,0,1,,,0,,,45,59
218400,note_on,,,,,0,0,1,,,0,,,48,59
218400,note_off,,,,,80,0,1,,,0,,,57,64
218520,note_off,,,,,120,0,1,,,0,,,48,64
218520,note_on,,,,,360,0,2,,,0,,,48,48
218540,set_tempo,,,,,200,1,0,618557,,,,,,
218560,set_tempo,,,,,20,1,0,582524,,,,,,
218640,note_on,,,,,120,0,2,,,0,,,50,42
218760,note_on,,,,,0,0,1,,,0,,,43,42
218760,note_on,,,,,0,0,1,,,0,,,58,42
218760,note_off,,,,,0,0,1,,,0,,,60,64
218760,note_off,,,,,240,0,1,,,0,,,45,64
218760,note_on,,,,,0,0,1,,,0,,,46,42
218760,note_on,,,,,0,0,2,,,0,,,52,38
218760,note_off,,,,,120,0,2,,,0,,,50,64
218880,note_off,,,,,120,0,1,,,0,,,43,64
218880,note_on,,,,,0,0,1,,,0,,,41,37
218880,note_on,,,,,0,0,1,,,0,,,45,37
218880,note_on,,,,,0,0,1,,,0,,,57,37
218880,note_off,,,,,0,0,1,,,0,,,58,64
218880,note_off,,,,,0,0,1,,,0,,,46,64
218880,note_on,,,,,0,0,2,,,0,,,53,42
218880,note_off,,,,,0,0,2,,,0,,,48,64
218880,note_off,,,,,120,0,2,,,0,,,52,64
218880,set_tempo,,,,,320,1,0,560748,,,,,,
219060,set_tempo,,,,,180,1,0,540541,,,,,,
219120,note_off,,,,,240,0,1,,,0,,,41,64
219120,note_on,,,,,0,0,1,,,0,,,57,55
219120,note_on,,,,,0,0,1,,,0,,,55,55
219120,note_off,,,,,240,0,2,,,0,,,53,64
219120,note_off,,,,,0,0,1,,,0,,,57,64
219120,note_on,,,,,0,0,1,,,0,,,49,55
219120,note_on,,,,,0,0,1,,,0,,,45,55
219120,note_on,,,,,0,0,1,,,0,,,39,55
219120,note_off,,,,,0,0,1,,,0,,,45,64
219320,set_tempo,,,,,260,1,0,612245,,,,,,
219360,note_on,,,,,0,0,1,,,0,,,50,79
219360,note_on,,,,,0,0,1,,,0,,,38,79
219360,note_off,,,,,0,0,1,,,0,,,57,64
219360,note_on,,,,,0,0,1,,,0,,,45,79
219360,note_on,,,,,0,0,1,,,0,,,57,79
219360,note_on,,,,,0,0,1,,,0,,,54,79
219360,note_on,,,,,0,0,1,,,0,,,48,79
219360,note_off,,,,,0,0,1,,,0,,,55,64
219360,control_change,,,,,240,0,2,,,0,64,127,,
219360,note_off,,,,,0,0,1,,,0,,,45,64
219360,note_off,,,,,240,0,1,,,0,,,39,64
219360,note_off,,,,,0,0,1,,,0,,,49,64
219460,set_tempo,,,,,140,1,0,674157,,,,,,
219480,set_tempo,,,,,20,1,0,689655,,,,,,
219500,set_tempo,,,,,20,1,0,560748,,,,,,
219520,set_tempo,,,,,20,1,0,550459,,,,,,
219540,set_tempo,,,,,20,1,0,545455,,,,,,
219574,note_off,,,,,0,0,1,,,0,,,54,64
219574,note_off,,,,,214,0,1,,,0,,,38,64
219574,note_off,,,,,0,0,1,,,0,,,48,64
219574,note_off,,,,,0,0,1,,,0,,,50,64
219574,note_off,,,,,0,0,1,,,0,,,57,64
219574,note_off,,,,,0,0,1,,,0,,,45,64
219580,set_tempo,,,,,40,1,0,540541,,,,,,
219600,set_tempo,,,,,20,1,0,1463415,,,,,,
219600,note_on,,,,,240,0,2,,,0,,,31,63
219600,note_on,,,,,26,0,1,,,0,,,46,63
219610,note_on,,,,,10,0,2,,,0,,,38,63
219610,note_on,,,,,10,0,1,,,0,,,50,63
219620,note_on,,,,,10,0,2,,,0,,,43,63
219620,note_on,,,,,10,0,1,,,0,,,55,63
219630,note_on,,,,,10,0,1,,,0,,,58,63
219640,control_change,,,,,20,0,2,,,0,64,0,,
219700,set_tempo,,,,,100,1,0,705882,,,,,,
219720,note_off,,,,,80,0,2,,,0,,,31,64
219720,note_off,,,,,90,0,1,,,0,,,46,64
219730,note_off,,,,,10,0,2,,,0,,,38,64
219730,note_off,,,,,10,0,1,,,0,,,50,64
219740,note_off,,,,,10,0,2,,,0,,,43,64
219740,note_off,,,,,10,0,1,,,0,,,55,64
219750,note_off,,,,,10,0,1,,,0,,,58,64
220080,note_on,,,,,330,0,1,,,0,,,70,79
220080,note_on,,,,,0,0,1,,,0,,,68,79
220080,note_on,,,,,0,0,1,,,0,,,62,79
220080,note_on,,,,,0,0,1,,,0,,,58,79
220080,note_on,,,,,0,0,1,,,0,,,53,79
220320,note_on,,,,,0,0,1,,,0,,,51,98
220320,note_off,,,,,240,0,1,,,0,,,53,64
220320,note_off,,,,,0,0,1,,,0,,,58,64
220320,note_off,,,,,0,0,1,,,0,,,62,64
220320,note_off,,,,,0,0,1,,,0,,,68,64
220320,note_off,,,,,0,0,1,,,0,,,70,64
220320,note_on,,,,,0,0,1,,,0,,,70,98
220320,note_on,,,,,0,0,1,,,0,,,67,98
220320,note_on,,,,,0,0,1,,,0,,,63,98
220320,note_on,,,,,0,0,1,,,0,,,61,98
220320,note_on,,,,,0,0,1,,,0,,,58,98
220320,control_change,,,,,580,0,2,,,0,64,127,,
220440,set_tempo,,,,,740,1,0,560748,,,,,,
220534,note_off,,,,,214,0,1,,,0,,,51,64
220534,note_off,,,,,0,0,1,,,0,,,58,64
220534,note_off,,,,,0,0,1,,,0,,,61,64
220534,note_off,,,,,0,0,1,,,0,,,63,64
220534,note_off,,,,,0,0,1,,,0,,,70,64
220534,note_off,,,,,0,0,1,,,0,,,67,64
220540,set_tempo,,,,,100,1,0,1538462,,,,,,
220560,note_on,,,,,26,0,1,,,0,,,59,95
220560,note_on,,,,,240,0,2,,,0,,,44,96
220570,note_on,,,,,10,0,1,,,0,,,63,95
220570,note_on,,,,,10,0,2,,,0,,,51,96
220580,note_on,,,,,10,0,1,,,0,,,68,95
220580,note_on,,,,,10,0,2,,,0,,,56,96
220590,note_on,,,,,10,0,1,,,0,,,71,95
220600,control_change,,,,,20,0,2,,,0,64,0,,
220620,set_tempo,,,,,80,1,0,1500000,,,,,,
220640,set_tempo,,,,,20,1,0,1463415,,,,,,
220680,note_off,,,,,80,0,2,,,0,,,44,64
220680,note_off,,,,,90,0,1,,,0,,,59,64
220680,set_tempo,,,,,40,1,0,705882,,,,,,
220690,note_off,,,,,10,0,2,,,0,,,51,64
220690,note_off,,,,,10,0,1,,,0,,,63,64
220700,note_off,,,,,10,0,1,,,0,,,68,64
220700,note_off,,,,,10,0,2,,,0,,,56,64
220710,note_off,,,,,10,0,1,,,0,,,71,64
221040,note_on,,,,,0,0,2,,,0,,,47,112
221040,note_on,,,,,0,0,2,,,0,,,40,112
221040,control_change,,,,,340,0,2,,,0,64,127,,
221040,note_on,,,,,0,0,2,,,0,,,52,112
221040,note_on,,,,,0,0,1,,,0,,,74,112
221040,note_on,,,,,0,0,1,,,0,,,83,112
221040,note_on,,,,,0,0,1,,,0,,,76,112
221040,note_on,,,,,330,0,1,,,0,,,80,112
221254,note_off,,,,,0,0,1,,,0,,,80,64
221254,note_off,,,,,0,0,1,,,0,,,76,64
221254,note_off,,,,,0,0,1,,,0,,,83,64
221254,note_off,,,,,214,0,1,,,0,,,74,64
221254,note_off,,,,,214,0,2,,,0,,,52,64
221254,note_off,,,,,0,0,2,,,0,,,40,64
221254,note_off,,,,,0,0,2,,,0,,,47,64
221280,note_on,,,,,26,0,2,,,0,,,45,112
221280,note_on,,,,,0,0,2,,,0,,,52,112
221280,note_on,,,,,0,0,2,,,0,,,57,112
221280,note_on,,,,,26,0,1,,,0,,,72,112
221290,note_on,,,,,10,0,1,,,0,,,76,112
221300,note_on,,,,,10,0,1,,,0,,,81,112
221300,set_tempo,,,,,620,1,0,1578947,,,,,,
221310,note_on,,,,,10,0,1,,,0,,,84,112
221320,control_change,,,,,40,0,2,,,0,64,0,,
221400,note_off,,,,,90,0,1,,,0,,,72,64
221400,note_off,,,,,0,0,2,,,0,,,52,64
221400,note_off,,,,,80,0,2,,,0,,,57,64
221400,note_off,,,,,0,0,2,,,0,,,45,64
221410,note_off,,,,,10,0,1,,,0,,,76,64
221420,note_off,,,,,10,0,1,,,0,,,81,64
221430,note_off,,,,,10,0,1,,,0,,,84,64
221760,note_on,,,,,0,0,2,,,0,,,81,47
221760,note_on,,,,,360,0,2,,,0,,,77,47
221760,note_on,,,,,330,0,1,,,0,,,84,44
221760,note_on,,,,,0,0,2,,,0,,,65,47
221760,note_on,,,,,0,0,2,,,0,,,75,47
221760,set_tempo,,,,,460,1,0,705882,,,,,,
221920,set_tempo,,,,,160,1,0,560748,,,,,,
222120,note_off,,,,,360,0,1,,,0,,,84,64
222120,note_on,,,,,0,0,1,,,0,,,85,53
222240,note_off,,,,,120,0,1,,,0,,,85,64
222240,note_on,,,,,0,0,1,,,0,,,86,57
222240,note_off,,,,,0,0,2,,,0,,,75,64
222240,note_on,,,,,0,0,2,,,0,,,74,48
222240,note_on,,,,,0,0,2,,,0,,,70,48
222240,note_off,,,,,0,0,2,,,0,,,81,64
222240,note_off,,,,,480,0,2,,,0,,,65,64
222240,note_on,,,,,0,0,1,,,0,,,82,57
222330,note_off,,,,,90,0,2,,,0,,,74,64
222330,note_off,,,,,0,0,2,,,0,,,77,64
222330,note_off,,,,,0,0,2,,,0,,,70,64
222330,note_off,,,,,90,0,1,,,0,,,82,64
222330,note_off,,,,,0,0,1,,,0,,,86,64
222360,set_tempo,,,,,440,1,0,600000,,,,,,
222480,note_on,,,,,0,0,1,,,0,,,82,60
222480,note_on,,,,,150,0,1,,,0,,,86,60
222480,note_on,,,,,150,0,2,,,0,,,74,59
222480,note_on,,,,,0,0,2,,,0,,,70,59
222620,set_tempo,,,,,260,1,0,952381,,,,,,
222630,note_off,,,,,0,0,1,,,0,,,86,64
222630,note_off,,,,,150,0,1,,,0,,,82,64
222630,note_off,,,,,150,0,2,,,0,,,70,64
222630,note_off,,,,,0,0,2,,,0,,,74,64
222680,set_tempo,,,,,60,1,0,566038,,,,,,
222720,note_on,,,,,90,0,1,,,0,,,89,73
222720,note_on,,,,,0,0,1,,,0,,,77,73
222720,note_on,,,,,0,0,1,,,0,,,74,73
222720,note_on,,,,,0,0,1,,,0,,,70,73
222720,note_on,,,,,0,0,1,,,0,,,86,73
223440,note_off,,,,,720,0,1,,,0,,,70,64
223440,note_off,,,,,0,0,1,,,0,,,74,64
223440,note_off,,,,,0,0,1,,,0,,,77,64
223440,note_off,,,,,0,0,1,,,0,,,86,64
223440,note_off,,,,,0,0,1,,,0,,,89,64
223680,note_on,,,,,240,0,1,,,0,,,77,50
224060,set_tempo,,,,,1380,1,0,545455,,,,,,
224240,set_tempo,,,,,180,1,0,530973,,,,,,
224280,note_on,,,,,0,0,1,,,0,,,74,32
224280,note_off,,,,,600,0,1,,,0,,,77,64
224360,set_tempo,,,,,120,1,0,526316,,,,,,
224400,note_off,,,,,120,0,1,,,0,,,74,64
224400,note_on,,,,,0,0,1,,,0,,,70,36
224520,note_off,,,,,120,0,1,,,0,,,70,64
224520,note_on,,,,,0,0,1,,,0,,,69,39
224640,note_off,,,,,120,0,1,,,0,,,69,64
224640,note_on,,,,,0,0,1,,,0,,,69,42
224640,note_on,,,,,2010,0,2,,,0,,,60,38
224640,note_on,,,,,0,0,2,,,0,,,64,38
224640,note_on,,,,,0,0,2,,,0,,,58,38
224640,note_on,,,,,0,0,2,,,0,,,48,38
224800,set_tempo,,,,,440,1,0,540541,,,,,,
224880,note_off,,,,,240,0,1,,,0,,,69,64
224880,note_on,,,,,0,0,1,,,0,,,67,32
224940,set_tempo,,,,,140,1,0,571429,,,,,,
225060,note_off,,,,,180,0,1,,,0,,,67,64
225060,note_on,,,,,0,0,1,,,0,,,68,38
225120,note_off,,,,,480,0,2,,,0,,,48,64
225120,note_off,,,,,0,0,2,,,0,,,58,64
225120,note_off,,,,,0,0,2,,,0,,,64,64
225120,note_on,,,,,0,0,2,,,0,,,53,28
225120,note_on,,,,,0,0,2,,,0,,,57,28
225120,note_on,,,,,0,0,1,,,0,,,65,42
225120,note_on,,,,,0,0,1,,,0,,,69,42
225120,note_off,,,,,60,0,1,,,0,,,68,64
225210,note_off,,,,,90,0,2,,,0,,,57,64
225210,note_off,,,,,0,0,2,,,0,,,60,64
225210,note_off,,,,,0,0,2,,,0,,,53,64
225210,note_off,,,,,90,0,1,,,0,,,65,64
225210,note_off,,,,,0,0,1,,,0,,,69,64
225360,note_on,,,,,0,0,1,,,0,,,65,37
225360,note_on,,,,,150,0,2,,,0,,,57,34
225360,note_on,,,,,0,0,2,,,0,,,53,34
225360,note_on,,,,,150,0,1,,,0,,,69,37
225510,note_off,,,,,150,0,1,,,0,,,65,64
225510,note_off,,,,,0,0,1,,,0,,,69,64
225510,note_off,,,,,0,0,2,,,0,,,57,64
225510,note_off,,,,,150,0,2,,,0,,,53,64
225520,set_tempo,,,,,580,1,0,923077,,,,,,
225600,set_tempo,,,,,80,1,0,566038,,,,,,
225600,note_on,,,,,0,0,1,,,0,,,53,48
225600,note_on,,,,,90,0,1,,,0,,,72,48
225600,note_on,,,,,0,0,1,,,0,,,69,48
225600,note_on,,,,,0,0,1,,,0,,,60,48
226320,note_off,,,,,0,0,1,,,0,,,69,64
226320,note_off,,,,,720,0,1,,,0,,,53,64
226320,note_off,,,,,0,0,1,,,0,,,60,64
226320,set_tempo,,,,,720,1,0,535714,,,,,,
226320,note_off,,,,,0,0,1,,,0,,,72,64
226560,note_on,,,,,240,0,1,,,0,,,84,48
226560,note_on,,,,,0,0,2,,,0,,,75,46
226560,note_on,,,,,0,0,2,,,0,,,81,46
226560,note_on,,,,,1050,0,2,,,0,,,77,46
226560,note_on,,,,,0,0,2,,,0,,,65,46
226580,set_tempo,,,,,260,1,0,550459,,,,,,
226920,note_on,,,,,0,0,1,,,0,,,85,54
226920,note_off,,,,,360,0,1,,,0,,,84,64
227040,note_off,,,,,0,0,2,,,0,,,75,64
227040,note_off,,,,,0,0,2,,,0,,,81,64
227040,note_on,,,,,0,0,2,,,0,,,70,48
227040,note_on,,,,,0,0,1,,,0,,,82,49
227040,note_on,,,,,0,0,1,,,0,,,86,49
227040,note_off,,,,,120,0,1,,,0,,,85,64
227040,note_on,,,,,0,0,2,,,0,,,74,48
227040,note_off,,,,,480,0,2,,,0,,,65,64
227130,note_off,,,,,0,0,2,,,0,,,70,64
227130,note_off,,,,,0,0,2,,,0,,,77,64
227130,note_off,,,,,0,0,1,,,0,,,86,64
227130,note_off,,,,,90,0,1,,,0,,,82,64
227130,note_off,,,,,90,0,2,,,0,,,74,64
227160,set_tempo,,,,,580,1,0,576923,,,,,,
227280,note_on,,,,,0,0,1,,,0,,,82,60
227280,note_on,,,,,150,0,2,,,0,,,74,62
227280,note_on,,,,,0,0,2,,,0,,,70,62
227280,note_on,,,,,150,0,1,,,0,,,86,60
227420,set_tempo,,,,,260,1,0,625000,,,,,,
227430,note_off,,,,,150,0,2,,,0,,,70,64
227430,note_off,,,,,0,0,2,,,0,,,74,64
227430,note_off,,,,,0,0,1,,,0,,,86,64
227430,note_off,,,,,150,0,1,,,0,,,82,64
227500,set_tempo,,,,,80,1,0,769231,,,,,,
227520,note_on,,,,,90,0,1,,,0,,,70,91
227520,control_change,,,,,90,0,2,,,0,64,127,,
227540,set_tempo,,,,,40,1,0,750000,,,,,,
227550,note_on,,,,,0,0,1,,,0,,,74,82
227550,note_off,,,,,30,0,1,,,0,,,70,64
227560,set_tempo,,,,,20,1,0,740741,,,,,,
227580,set_tempo,,,,,20,1,0,588235,,,,,,
227580,note_off,,,,,30,0,1,,,0,,,74,64
227580,note_on,,,,,0,0,1,,,0,,,77,80
227600,set_tempo,,,,,20,1,0,530973,,,,,,
227610,note_off,,,,,30,0,1,,,0,,,77,64
227610,note_on,,,,,0,0,1,,,0,,,82,74
227640,set_tempo,,,,,40,1,0,526316,,,,,,
227640,note_on,,,,,0,0,1,,,0,,,86,69
227640,note_off,,,,,30,0,1,,,0,,,82,64
227670,note_on,,,,,0,0,1,,,0,,,89,66
227670,note_off,,,,,30,0,1,,,0,,,86,64
227700,note_on,,,,,0,0,1,,,0,,,94,61
227700,note_off,,,,,30,0,1,,,0,,,89,64
227720,set_tempo,,,,,80,1,0,504202,,,,,,
227730,note_on,,,,,0,0,1,,,0,,,98,57
227730,note_off,,,,,30,0,1,,,0,,,94,64
227760,note_off,,,,,30,0,1,,,0,,,98,64
227760,note_on,,,,,0,0,1,,,0,,,101,53
227880,note_off,,,,,120,0,1,,,0,,,101,64
228000,set_tempo,,,,,280,1,0,857143,,,,,,
228210,control_change,,,,,690,0,2,,,0,64,0,,
228480,control_change,,,,,0,0,1,,,0,64,0,,
228480,set_tempo,,,,,480,1,0,550459,,,,,,
228480,note_on,,,,,600,0,1,,,0,,,77,70
228800,set_tempo,,,,,320,1,0,545455,,,,,,
228820,set_tempo,,,,,20,1,0,535714,,,,,,
229320,note_on,,,,,0,0,1,,,0,,,76,47
229320,note_off,,,,,840,0,1,,,0,,,77,64
229440,note_off,,,,,120,0,1,,,0,,,76,64
229440,note_on,,,,,0,0,1,,,0,,,76,56
229540,set_tempo,,,,,720,1,0,530973,,,,,,
229680,note_on,,,,,0,0,1,,,0,,,74,42
229680,note_off,,,,,240,0,1,,,0,,,76,64
229780,set_tempo,,,,,240,1,0,517241,,,,,,
229800,set_tempo,,,,,20,1,0,512821,,,,,,
229860,note_on,,,,,0,0,1,,,0,,,72,35
229860,note_off,,,,,180,0,1,,,0,,,74,64
229904,note_off,,,,,44,0,1,,,0,,,72,64
229920,note_on,,,,,16,0,1,,,0,,,72,40
230160,note_off,,,,,240,0,1,,,0,,,72,64
230160,note_on,,,,,0,0,1,,,0,,,70,35
230180,set_tempo,,,,,380,1,0,500000,,,,,,
230340,note_off,,,,,180,0,1,,,0,,,70,64
230340,note_on,,,,,0,0,1,,,0,,,69,31
230384,note_off,,,,,44,0,1,,,0,,,69,64
230400,note_on,,,,,0,0,2,,,0,,,48,25
230400,note_on,,,,,16,0,1,,,0,,,69,34
230400,note_on,,,,,2190,0,2,,,0,,,60,25
230400,note_on,,,,,0,0,2,,,0,,,64,25
230400,note_on,,,,,0,0,2,,,0,,,58,25
230500,set_tempo,,,,,320,1,0,526316,,,,,,
230640,note_off,,,,,240,0,1,,,0,,,69,64
230640,note_on,,,,,0,0,1,,,0,,,67,28
230740,set_tempo,,,,,240,1,0,545455,,,,,,
230820,note_off,,,,,180,0,1,,,0,,,67,64
230820,note_on,,,,,0,0,1,,,0,,,68,33
230880,note_off,,,,,480,0,2,,,0,,,48,64
230880,note_off,,,,,0,0,2,,,0,,,58,64
230880,note_off,,,,,0,0,2,,,0,,,64,64
230880,note_on,,,,,0,0,2,,,0,,,53,23
230880,note_on,,,,,0,0,2,,,0,,,57,23
230880,note_on,,,,,0,0,1,,,0,,,65,34
230880,note_on,,,,,0,0,1,,,0,,,69,34
230880,note_off,,,,,60,0,1,,,0,,,68,64
230970,note_off,,,,,0,0,1,,,0,,,69,64
230970,note_off,,,,,90,0,2,,,0,,,57,64
230970,note_off,,,,,0,0,2,,,0,,,53,64
230970,note_off,,,,,0,0,2,,,0,,,60,64
230970,note_off,,,,,90,0,1,,,0,,,65,64
231000,set_tempo,,,,,260,1,0,576923,,,,,,
231120,note_on,,,,,150,0,1,,,0,,,69,28
231120,note_on,,,,,150,0,2,,,0,,,57,29
231120,note_on,,,,,0,0,2,,,0,,,53,29
231120,note_on,,,,,0,0,1,,,0,,,65,28
231140,set_tempo,,,,,140,1,0,588235,,,,,,
231260,set_tempo,,,,,120,1,0,705882,,,,,,
231270,note_off,,,,,150,0,1,,,0,,,65,64
231270,note_off,,,,,0,0,2,,,0,,,57,64
231270,note_off,,,,,0,0,1,,,0,,,69,64
231270,note_off,,,,,150,0,2,,,0,,,53,64
231320,set_tempo,,,,,60,1,0,689655,,,,,,
231360,set_tempo,,,,,40,1,0,967742,,,,,,
231360,note_on,,,,,0,0,1,,,0,,,53,39
231360,note_on,,,,,0,0,1,,,0,,,60,39
231360,note_on,,,,,0,0,1,,,0,,,69,39
231360,note_on,,,,,90,0,1,,,0,,,72,39
231540,set_tempo,,,,,180,1,0,952381,,,,,,
231620,set_tempo,,,,,80,1,0,923077,,,,,,
232080,note_off,,,,,0,0,1,,,0,,,72,64
232080,note_off,,,,,720,0,1,,,0,,,53,64
232080,note_off,,,,,0,0,1,,,0,,,60,64
232080,note_off,,,,,0,0,1,,,0,,,69,64
232140,set_tempo,,,,,520,1,0,689655,,,,,,
232240,set_tempo,,,,,100,1,0,681818,,,,,,
232320,control_change,,,,,1050,0,2,,,0,64,127,,
232320,note_on,,,,,0,0,1,,,0,,,52,33
232320,note_on,,,,,0,0,1,,,0,,,56,33
232320,note_on,,,,,0,0,1,,,0,,,61,33
232320,note_on,,,,,0,0,1,,,0,,,64,33
232320,note_on,,,,,240,0,1,,,0,,,73,33
232320,note_on,,,,,0,0,1,,,0,,,68,33
232440,note_off,,,,,0,0,1,,,0,,,61,64
232440,note_off,,,,,0,0,1,,,0,,,68,64
232440,note_off,,,,,0,0,1,,,0,,,56,64
232440,note_off,,,,,120,0,1,,,0,,,52,64
232440,note_off,,,,,0,0,1,,,0,,,73,64
232440,set_tempo,,,,,200,1,0,821918,,,,,,
232440,note_off,,,,,0,0,1,,,0,,,64,64
232470,control_change,,,,,150,0,2,,,0,64,0,,
232540,set_tempo,,,,,100,1,0,810811,,,,,,
232560,control_change,,,,,90,0,2,,,0,64,127,,
232560,note_on,,,,,0,0,1,,,0,,,52,27
232560,note_on,,,,,0,0,1,,,0,,,56,27
232560,note_on,,,,,0,0,1,,,0,,,61,27
232560,note_on,,,,,0,0,1,,,0,,,64,27
232560,note_on,,,,,0,0,1,,,0,,,68,27
232560,note_on,,,,,120,0,1,,,0,,,73,27
232640,set_tempo,,,,,100,1,0,1153846,,,,,,
232680,note_off,,,,,0,0,1,,,0,,,73,64
232680,note_off,,,,,0,0,1,,,0,,,64,64
232680,note_off,,,,,0,0,1,,,0,,,61,64
232680,note_off,,,,,0,0,1,,,0,,,56,64
232680,note_off,,,,,120,0,1,,,0,,,52,64
232680,note_off,,,,,0,0,1,,,0,,,68,64
232710,control_change,,,,,150,0,2,,,0,64,0,,
232780,set_tempo,,,,,140,1,0,1463415,,,,,,
232800,control_change,,,,,90,0,2,,,0,64,127,,
232800,note_on,,,,,0,0,1,,,0,,,61,35
232800,note_on,,,,,0,0,1,,,0,,,49,35
232800,note_on,,,,,120,0,1,,,0,,,76,35
232800,note_on,,,,,0,0,1,,,0,,,68,35
232800,note_on,,,,,0,0,1,,,0,,,56,35
232800,set_tempo,,,,,20,1,0,2727273,,,,,,
232800,note_on,,,,,0,0,1,,,0,,,64,35
232980,note_off,,,,,0,0,1,,,0,,,76,64
232980,note_off,,,,,0,0,1,,,0,,,68,64
232980,note_off,,,,,0,0,1,,,0,,,64,64
232980,note_off,,,,,0,0,1,,,0,,,61,64
232980,note_off,,,,,0,0,1,,,0,,,56,64
232980,control_change,,,,,180,0,2,,,0,64,0,,
232980,note_off,,,,,180,0,1,,,0,,,49,64
233020,set_tempo,,,,,220,1,0,550459,,,,,,
233040,note_on,,,,,60,0,1,,,0,,,64,36
233040,marker,,,,,20,1,0,,,,,,,
233040,control_change,,,,,60,0,2,,,0,64,127,,
233040,note_on,,,,,0,0,2,,,0,,,49,30
233160,note_off,,,,,120,0,2,,,0,,,49,64
233160,note_on,,,,,0,0,2,,,0,,,56,25
233220,note_off,,,,,180,0,1,,,0,,,64,64
233250,control_change,,,,,90,0,2,,,0,64,0,,
233280,note_on,,,,,0,0,2,,,0,,,49,35
233280,note_off,,,,,30,0,2,,,0,,,56,64
233280,note_on,,,,,60,0,1,,,0,,,64,40
233280,control_change,,,,,0,0,2,,,0,64,127,,
233320,set_tempo,,,,,280,1,0,545455,,,,,,
233380,set_tempo,,,,,60,1,0,535714,,,,,,
233400,note_on,,,,,0,0,2,,,0,,,56,30
233400,note_off,,,,,120,0,2,,,0,,,49,64
233460,control_change,,,,,60,0,2,,,0,64,0,,
233520,note_off,,,,,60,0,2,,,0,,,56,64
233520,control_change,,,,,0,0,2,,,0,64,127,,
233520,note_on,,,,,0,0,2,,,0,,,48,28
233520,set_tempo,,,,,140,1,0,530973,,,,,,
233520,note_off,,,,,240,0,1,,,0,,,64,64
233520,note_on,,,,,0,0,1,,,0,,,63,33
233540,set_tempo,,,,,20,1,0,526316,,,,,,
233640,note_off,,,,,120,0,2,,,0,,,48,64
233640,note_on,,,,,0,0,2,,,0,,,56,24
233700,control_change,,,,,60,0,2,,,0,64,0,,
233760,note_off,,,,,240,0,1,,,0,,,63,64
233760,note_off,,,,,60,0,2,,,0,,,56,64
233760,control_change,,,,,0,0,2,,,0,64,127,,
233760,note_on,,,,,0,0,2,,,0,,,49,34
233760,note_on,,,,,0,0,1,,,0,,,64,38
233808,set_tempo,,,,,268,1,0,444444,,,,,,
233880,note_off,,,,,120,0,2,,,0,,,49,64
233880,note_on,,,,,0,0,2,,,0,,,56,30
233940,control_change,,,,,60,0,2,,,0,64,0,,
234000,note_on,,,,,0,0,1,,,0,,,66,44
234000,note_off,,,,,60,0,2,,,0,,,56,64
234000,note_on,,,,,0,0,2,,,0,,,51,44
234000,note_off,,,,,240,0,1,,,0,,,64,64
234000,control_change,,,,,0,0,2,,,0,64,127,,
234040,set_tempo,,,,,232,1,0,526316,,,,,,
234060,set_tempo,,,,,20,1,0,530973,,,,,,
234080,set_tempo,,,,,20,1,0,535714,,,,,,
234120,note_off,,,,,120,0,2,,,0,,,51,64
234120,note_on,,,,,0,0,2,,,0,,,56,34
234120,set_tempo,,,,,40,1,0,571429,,,,,,
234140,set_tempo,,,,,20,1,0,588235,,,,,,
234180,set_tempo,,,,,40,1,0,600000,,,,,,
234180,control_change,,,,,60,0,2,,,0,64,0,,
234200,set_tempo,,,,,20,1,0,652174,,,,,,
234240,note_off,,,,,60,0,2,,,0,,,56,64
234240,note_off,,,,,240,0,1,,,0,,,66,64
234240,note_on,,,,,0,0,1,,,0,,,68,42
234240,note_on,,,,,0,0,2,,,0,,,52,47
234240,set_tempo,,,,,40,1,0,540541,,,,,,
234270,control_change,,,,,30,0,2,,,0,64,127,,
234280,set_tempo,,,,,40,1,0,530973,,,,,,
234360,note_off,,,,,90,0,2,,,0,,,52,64
234360,note_on,,,,,0,0,2,,,0,,,56,38
234400,set_tempo,,,,,120,1,0,526316,,,,,,
234480,set_tempo,,,,,80,1,0,517241,,,,,,
234480,note_on,,,,,0,0,2,,,0,,,61,36
234480,note_off,,,,,120,0,2,,,0,,,56,64
234600,note_on,,,,,0,0,2,,,0,,,56,31
234600,note_off,,,,,120,0,2,,,0,,,61,64
234720,note_off,,,,,120,0,2,,,0,,,56,64
234720,note_on,,,,,0,0,2,,,0,,,52,29
234840,note_off,,,,,600,0,1,,,0,,,68,64
234840,note_on,,,,,0,0,2,,,0,,,56,28
234840,note_off,,,,,120,0,2,,,0,,,52,64
234870,control_change,,,,,30,0,2,,,0,64,0,,
234960,note_on,,,,,120,0,1,,,0,,,68,38
234960,note_on,,,,,0,0,2,,,0,,,51,33
234960,note_off,,,,,90,0,2,,,0,,,56,64
234990,control_change,,,,,30,0,2,,,0,64,127,,
235080,note_off,,,,,120,0,1,,,0,,,68,64
235080,note_off,,,,,90,0,2,,,0,,,51,64
235080,note_on,,,,,0,0,2,,,0,,,56,38
235170,control_change,,,,,90,0,2,,,0,64,0,,
235180,set_tempo,,,,,700,1,0,504202,,,,,,
235200,note_on,,,,,0,0,2,,,0,,,52,45
235200,note_off,,,,,30,0,2,,,0,,,56,64
235200,control_change,,,,,0,0,2,,,0,64,127,,
235200,note_on,,,,,120,0,1,,,0,,,68,44
235320,note_on,,,,,0,0,1,,,0,,,66,30
235320,note_off,,,,,120,0,1,,,0,,,68,64
235320,note_off,,,,,120,0,2,,,0,,,52,64
235320,note_on,,,,,0,0,2,,,0,,,56,39
235440,note_off,,,,,120,0,2,,,0,,,56,64
235440,note_on,,,,,0,0,1,,,0,,,68,35
235440,note_on,,,,,0,0,2,,,0,,,61,42
235440,note_off,,,,,120,0,1,,,0,,,66,64
235440,set_tempo,,,,,260,1,0,480000,,,,,,
235560,note_off,,,,,120,0,1,,,0,,,68,64
235560,note_off,,,,,120,0,2,,,0,,,61,64
235560,note_on,,,,,0,0,2,,,0,,,56,33
235560,note_on,,,,,0,0,1,,,0,,,69,42
235620,set_tempo,,,,,180,1,0,472441,,,,,,
235650,control_change,,,,,90,0,2,,,0,64,0,,
235680,note_off,,,,,30,0,2,,,0,,,56,64
235680,note_on,,,,,0,0,2,,,0,,,53,43
235680,note_off,,,,,120,0,1,,,0,,,69,64
235680,note_on,,,,,0,0,1,,,0,,,71,46
235680,control_change,,,,,0,0,2,,,0,64,127,,
235800,note_off,,,,,120,0,2,,,0,,,53,64
235800,note_on,,,,,0,0,2,,,0,,,56,38
235800,note_off,,,,,120,0,1,,,0,,,71,64
235800,note_on,,,,,0,0,1,,,0,,,74,44
235840,set_tempo,,,,,220,1,0,495868,,,,,,
235920,note_off,,,,,120,0,2,,,0,,,56,64
235920,note_on,,,,,0,0,1,,,0,,,73,44
235920,note_off,,,,,120,0,1,,,0,,,74,64
235920,note_on,,,,,0,0,2,,,0,,,53,35
235920,set_tempo,,,,,80,1,0,526316,,,,,,
236000,set_tempo,,,,,80,1,0,540541,,,,,,
236038,note_off,,,,,118,0,2,,,0,,,53,64
236040,note_on,,,,,0,0,1,,,0,,,68,40
236040,note_off,,,,,120,0,1,,,0,,,73,64
236040,note_on,,,,,2,0,2,,,0,,,61,32
236100,set_tempo,,,,,100,1,0,652174,,,,,,
236130,control_change,,,,,90,0,2,,,0,64,0,,
236160,set_tempo,,,,,60,1,0,659341,,,,,,
236160,note_on,,,,,0,0,2,,,0,,,54,39
236160,control_change,,,,,0,0,2,,,0,64,127,,
236160,note_off,,,,,30,0,2,,,0,,,61,64
236160,note_off,,,,,120,0,1,,,0,,,68,64
236160,note_on,,,,,0,0,1,,,0,,,69,44
236220,set_tempo,,,,,60,1,0,512821,,,,,,
236260,set_tempo,,,,,40,1,0,517241,,,,,,
236278,note_off,,,,,118,0,2,,,0,,,54,64
236280,set_tempo,,,,,20,1,0,526316,,,,,,
236280,note_on,,,,,2,0,2,,,0,,,61,36
236380,set_tempo,,,,,100,1,0,530973,,,,,,
236400,set_tempo,,,,,20,1,0,535714,,,,,,
236400,note_off,,,,,120,0,2,,,0,,,61,64
236400,note_on,,,,,0,0,2,,,0,,,54,30
236420,set_tempo,,,,,20,1,0,540541,,,,,,
236480,set_tempo,,,,,60,1,0,545455,,,,,,
236518,note_off,,,,,118,0,2,,,0,,,54,64
236520,note_on,,,,,2,0,2,,,0,,,62,29
236580,set_tempo,,,,,100,1,0,571429,,,,,,
236640,control_change,,,,,0,0,2,,,0,64,0,,
236640,note_on,,,,,0,0,2,,,0,,,54,28
236640,note_off,,,,,120,0,2,,,0,,,62,64
236758,note_off,,,,,118,0,2,,,0,,,54,64
236760,note_on,,,,,2,0,2,,,0,,,61,27
236760,note_off,,,,,600,0,1,,,0,,,69,64
236856,note_off,,,,,96,0,2,,,0,,,61,64
236880,note_on,,,,,120,0,1,,,0,,,81,39
236880,note_on,,,,,0,0,1,,,0,,,69,39
236880,control_change,,,,,24,0,2,,,0,64,127,,
236880,note_on,,,,,0,0,2,,,0,,,54,34
236998,note_off,,,,,118,0,2,,,0,,,54,64
237000,note_on,,,,,2,0,2,,,0,,,60,32
237090,control_change,,,,,90,0,2,,,0,64,0,,
237096,note_off,,,,,216,0,1,,,0,,,69,64
237096,note_off,,,,,0,0,1,,,0,,,81,64
237096,note_off,,,,,6,0,2,,,0,,,60,64
237120,control_change,,,,,24,0,2,,,0,64,127,,
237120,note_on,,,,,0,0,2,,,0,,,54,43
237120,note_on,,,,,0,0,1,,,0,,,69,48
237120,note_on,,,,,24,0,1,,,0,,,81,48
237238,note_off,,,,,118,0,2,,,0,,,54,64
237240,note_on,,,,,2,0,2,,,0,,,61,38
237300,set_tempo,,,,,720,1,0,535714,,,,,,
237330,control_change,,,,,90,0,2,,,0,64,0,,
237336,note_off,,,,,6,0,2,,,0,,,61,64
237360,note_off,,,,,0,0,1,,,0,,,81,64
237360,note_on,,,,,0,0,1,,,0,,,80,39
237360,note_on,,,,,0,0,2,,,0,,,53,42
237360,control_change,,,,,24,0,2,,,0,64,127,,
237360,note_off,,,,,240,0,1,,,0,,,69,64
237360,note_on,,,,,0,0,1,,,0,,,68,39
237480,note_off,,,,,120,0,2,,,0,,,53,64
237480,note_on,,,,,0,0,2,,,0,,,61,34
237570,control_change,,,,,90,0,2,,,0,64,0,,
237576,note_off,,,,,6,0,2,,,0,,,61,64
237600,control_change,,,,,24,0,2,,,0,64,127,,
237600,note_on,,,,,0,0,2,,,0,,,54,47
237600,note_on,,,,,0,0,1,,,0,,,69,46
237600,note_on,,,,,0,0,1,,,0,,,81,46
237600,note_off,,,,,0,0,1,,,0,,,80,64
237600,note_off,,,,,240,0,1,,,0,,,68,64
237640,set_tempo,,,,,340,1,0,517241,,,,,,
237720,note_on,,,,,0,0,2,,,0,,,61,42
237720,note_off,,,,,120,0,2,,,0,,,54,64
237810,control_change,,,,,90,0,2,,,0,64,0,,
237816,note_off,,,,,6,0,2,,,0,,,61,64
237840,note_on,,,,,0,0,1,,,0,,,71,50
237840,note_on,,,,,0,0,1,,,0,,,83,50
237840,note_off,,,,,0,0,1,,,0,,,81,64
237840,note_off,,,,,240,0,1,,,0,,,69,64
237840,note_on,,,,,0,0,2,,,0,,,56,55
237840,control_change,,,,,24,0,2,,,0,64,127,,
237880,set_tempo,,,,,240,1,0,526316,,,,,,
237958,note_off,,,,,118,0,2,,,0,,,56,64
237960,note_on,,,,,2,0,2,,,0,,,61,49
237980,set_tempo,,,,,100,1,0,530973,,,,,,
238020,set_tempo,,,,,40,1,0,631579,,,,,,
238050,control_change,,,,,90,0,2,,,0,64,0,,
238080,control_change,,,,,0,0,2,,,0,64,127,,
238080,note_off,,,,,30,0,2,,,0,,,61,64
238080,note_off,,,,,240,0,1,,,0,,,71,64
238080,note_off,,,,,0,0,1,,,0,,,83,64
238080,note_on,,,,,0,0,1,,,0,,,85,55
238080,note_on,,,,,0,0,1,,,0,,,73,55
238080,note_on,,,,,0,0,2,,,0,,,57,58
238140,set_tempo,,,,,120,1,0,612245,,,,,,
238198,note_off,,,,,118,0,2,,,0,,,57,64
238200,set_tempo,,,,,60,1,0,606061,,,,,,
238200,note_on,,,,,2,0,2,,,0,,,61,49
238260,set_tempo,,,,,60,1,0,576923,,,,,,
238320,note_on,,,,,0,0,2,,,0,,,66,43
238320,note_off,,,,,120,0,2,,,0,,,61,64
238340,set_tempo,,,,,80,1,0,545455,,,,,,
238400,set_tempo,,,,,60,1,0,550459,,,,,,
238438,note_off,,,,,118,0,2,,,0,,,66,64
238440,set_tempo,,,,,40,1,0,526316,,,,,,
238440,note_on,,,,,2,0,2,,,0,,,61,36
238540,set_tempo,,,,,100,1,0,517241,,,,,,
238560,note_on,,,,,0,0,2,,,0,,,57,32
238560,note_off,,,,,120,0,2,,,0,,,61,64
238620,set_tempo,,,,,80,1,0,512821,,,,,,
238678,note_off,,,,,118,0,2,,,0,,,57,64
238680,note_off,,,,,0,0,1,,,0,,,85,64
238680,note_off,,,,,600,0,1,,,0,,,73,64
238680,note_on,,,,,2,0,2,,,0,,,61,32
238770,control_change,,,,,90,0,2,,,0,64,0,,
238776,note_off,,,,,6,0,2,,,0,,,61,64
238800,note_on,,,,,0,0,2,,,0,,,56,34
238800,control_change,,,,,24,0,2,,,0,64,127,,
238800,note_on,,,,,120,0,1,,,0,,,85,41
238800,note_on,,,,,0,0,1,,,0,,,73,41
238918,note_off,,,,,118,0,2,,,0,,,56,64
238920,note_on,,,,,2,0,2,,,0,,,61,32
239010,control_change,,,,,90,0,2,,,0,64,0,,
239040,control_change,,,,,0,0,2,,,0,64,127,,
239040,note_off,,,,,30,0,2,,,0,,,61,64
239040,note_on,,,,,0,0,2,,,0,,,57,40
239040,note_off,,,,,0,0,1,,,0,,,85,64
239040,note_on,,,,,0,0,1,,,0,,,85,44
239040,note_off,,,,,240,0,1,,,0,,,73,64
239040,note_on,,,,,0,0,1,,,0,,,73,44
239158,note_off,,,,,118,0,2,,,0,,,57,64
239160,note_on,,,,,0,0,1,,,0,,,71,34
239160,note_off,,,,,0,0,1,,,0,,,85,64
239160,note_off,,,,,120,0,1,,,0,,,73,64
239160,note_on,,,,,2,0,2,,,0,,,61,32
239160,note_on,,,,,0,0,1,,,0,,,83,34
239180,set_tempo,,,,,560,1,0,483871,,,,,,
239280,note_on,,,,,0,0,2,,,0,,,66,35
239280,note_off,,,,,120,0,1,,,0,,,71,64
239280,note_off,,,,,0,0,1,,,0,,,83,64
239280,note_on,,,,,0,0,1,,,0,,,85,41
239280,note_on,,,,,0,0,1,,,0,,,73,41
239280,note_off,,,,,120,0,2,,,0,,,61,64
239300,set_tempo,,,,,120,1,0,472441,,,,,,
239400,note_off,,,,,120,0,2,,,0,,,66,64
239400,note_on,,,,,0,0,2,,,0,,,61,38
239400,note_off,,,,,120,0,1,,,0,,,73,64
239400,note_off,,,,,0,0,1,,,0,,,85,64
239400,note_on,,,,,0,0,1,,,0,,,86,45
239400,note_on,,,,,0,0,1,,,0,,,74,45
239460,set_tempo,,,,,160,1,0,465116,,,,,,
239490,control_change,,,,,90,0,2,,,0,64,0,,
239520,note_on,,,,,0,0,2,,,0,,,58,42
239520,note_off,,,,,120,0,1,,,0,,,74,64
239520,note_on,,,,,0,0,1,,,0,,,88,48
239520,note_on,,,,,0,0,1,,,0,,,76,48
239520,control_change,,,,,0,0,2,,,0,64,127,,
239520,note_off,,,,,30,0,2,,,0,,,61,64
239520,note_off,,,,,0,0,1,,,0,,,86,64
239640,note_off,,,,,0,0,1,,,0,,,88,64
239640,note_off,,,,,120,0,2,,,0,,,58,64
239640,note_off,,,,,120,0,1,,,0,,,76,64
239640,note_on,,,,,0,0,1,,,0,,,91,41
239640,note_on,,,,,0,0,1,,,0,,,79,41
239640,note_on,,,,,0,0,2,,,0,,,61,33
239660,set_tempo,,,,,200,1,0,480000,,,,,,
239760,note_off,,,,,120,0,2,,,0,,,61,64
239760,note_on,,,,,0,0,1,,,0,,,78,41
239760,note_off,,,,,0,0,1,,,0,,,91,64
239760,note_off,,,,,120,0,1,,,0,,,79,64
239760,note_on,,,,,0,0,2,,,0,,,58,37
239760,note_on,,,,,0,0,1,,,0,,,90,41
239880,note_on,,,,,0,0,1,,,0,,,73,37
239880,note_on,,,,,0,0,2,,,0,,,66,33
239880,note_off,,,,,120,0,1,,,0,,,78,64
239880,note_off,,,,,0,0,1,,,0,,,90,64
239880,note_on,,,,,0,0,1,,,0,,,85,37
239880,note_off,,,,,120,0,2,,,0,,,58,64
239900,set_tempo,,,,,240,1,0,500000,,,,,,
239970,control_change,,,,,90,0,2,,,0,64,0,,
240000,note_off,,,,,120,0,1,,,0,,,73,64
240000,note_on,,,,,0,0,1,,,0,,,86,44
240000,note_off,,,,,0,0,1,,,0,,,85,64
240000,note_on,,,,,0,0,1,,,0,,,74,44
240000,note_on,,,,,0,0,2,,,0,,,59,48
240000,control_change,,,,,0,0,2,,,0,64,127,,
240000,note_off,,,,,30,0,2,,,0,,,66,64
240120,note_on,,,,,0,0,2,,,0,,,66,40
240120,note_off,,,,,120,0,2,,,0,,,59,64
240210,control_change,,,,,90,0,2,,,0,64,0,,
240240,note_off,,,,,30,0,2,,,0,,,66,64
240240,note_on,,,,,0,0,2,,,0,,,59,45
240270,control_change,,,,,30,0,2,,,0,64,127,,
240300,set_tempo,,,,,400,1,0,530973,,,,,,
240360,note_off,,,,,90,0,2,,,0,,,59,64
240360,note_on,,,,,0,0,2,,,0,,,67,42
240450,control_change,,,,,90,0,2,,,0,64,0,,
240480,note_off,,,,,30,0,2,,,0,,,67,64
240480,note_on,,,,,0,0,2,,,0,,,59,38
240510,control_change,,,,,30,0,2,,,0,64,127,,
240600,note_on,,,,,0,0,2,,,0,,,66,35
240600,note_off,,,,,600,0,1,,,0,,,74,64
240600,note_off,,,,,90,0,2,,,0,,,59,64
240600,note_off,,,,,0,0,1,,,0,,,86,64
240640,set_tempo,,,,,340,1,0,517241,,,,,,
240690,control_change,,,,,90,0,2,,,0,64,0,,
240720,note_on,,,,,120,0,1,,,0,,,86,48
240720,note_on,,,,,0,0,1,,,0,,,74,48
240720,note_on,,,,,0,0,2,,,0,,,59,48
240720,note_off,,,,,30,0,2,,,0,,,66,64
240750,control_change,,,,,30,0,2,,,0,64,127,,
240780,set_tempo,,,,,140,1,0,512821,,,,,,
240840,note_off,,,,,90,0,2,,,0,,,59,64
240840,set_tempo,,,,,60,1,0,588235,,,,,,
240840,note_on,,,,,0,0,2,,,0,,,65,41
240930,control_change,,,,,90,0,2,,,0,64,0,,
240960,note_off,,,,,30,0,2,,,0,,,65,64
240960,note_on,,,,,0,0,1,,,0,,,73,56
240960,note_on,,,,,0,0,1,,,0,,,85,56
240960,note_off,,,,,0,0,1,,,0,,,86,64
240960,note_off,,,,,240,0,1,,,0,,,74,64
240960,note_on,,,,,0,0,2,,,0,,,57,48
240990,control_change,,,,,30,0,2,,,0,64,127,,
241020,set_tempo,,,,,180,1,0,535714,,,,,,
241060,set_tempo,,,,,40,1,0,530973,,,,,,
241080,note_on,,,,,0,0,2,,,0,,,66,38
241080,note_off,,,,,90,0,2,,,0,,,57,64
241080,set_tempo,,,,,20,1,0,526316,,,,,,
241140,control_change,,,,,60,0,2,,,0,64,0,,
241200,note_off,,,,,60,0,2,,,0,,,66,64
241200,control_change,,,,,0,0,2,,,0,64,127,,
241200,note_on,,,,,0,0,2,,,0,,,56,33
241320,note_off,,,,,360,0,1,,,0,,,73,64
241320,note_off,,,,,0,0,1,,,0,,,85,64
241320,note_on,,,,,0,0,1,,,0,,,83,41
241320,note_on,,,,,0,0,1,,,0,,,71,41
241320,note_off,,,,,120,0,2,,,0,,,56,64
241320,note_on,,,,,0,0,2,,,0,,,65,31
241380,control_change,,,,,60,0,2,,,0,64,0,,
241440,note_on,,,,,0,0,1,,,0,,,69,35
241440,note_on,,,,,0,0,1,,,0,,,81,35
241440,note_off,,,,,0,0,1,,,0,,,83,64
241440,note_off,,,,,120,0,1,,,0,,,71,64
241440,note_on,,,,,0,0,2,,,0,,,54,41
241440,note_off,,,,,60,0,2,,,0,,,65,64
241470,control_change,,,,,30,0,2,,,0,64,127,,
241560,note_on,,,,,0,0,2,,,0,,,66,32
241560,note_off,,,,,120,0,1,,,0,,,69,64
241560,note_off,,,,,0,0,1,,,0,,,81,64
241560,note_off,,,,,90,0,2,,,0,,,54,64
241620,control_change,,,,,60,0,2,,,0,64,0,,
241680,note_on,,,,,120,0,1,,,0,,,81,41
241680,note_off,,,,,60,0,2,,,0,,,66,64
241680,control_change,,,,,0,0,2,,,0,64,127,,
241680,note_on,,,,,0,0,2,,,0,,,51,36
241680,note_on,,,,,0,0,1,,,0,,,69,41
241780,set_tempo,,,,,700,1,0,606061,,,,,,
241800,note_off,,,,,120,0,2,,,0,,,51,64
241800,note_on,,,,,0,0,2,,,0,,,60,36
241860,control_change,,,,,60,0,2,,,0,64,0,,
241920,note_on,,,,,0,0,2,,,0,,,52,46
241920,note_off,,,,,240,0,1,,,0,,,69,64
241920,note_on,,,,,0,0,1,,,0,,,80,53
241920,note_on,,,,,0,0,1,,,0,,,68,53
241920,control_change,,,,,0,0,2,,,0,64,127,,
241920,note_off,,,,,60,0,2,,,0,,,60,64
241920,note_off,,,,,0,0,1,,,0,,,81,64
241960,set_tempo,,,,,180,1,0,495868,,,,,,
242020,set_tempo,,,,,60,1,0,504202,,,,,,
242040,note_off,,,,,120,0,2,,,0,,,52,64
242040,set_tempo,,,,,20,1,0,508475,,,,,,
242040,note_on,,,,,0,0,2,,,0,,,61,40
242060,set_tempo,,,,,20,1,0,512821,,,,,,
242080,set_tempo,,,,,20,1,0,517241,,,,,,
242100,control_change,,,,,60,0,2,,,0,64,0,,
242160,note_off,,,,,60,0,2,,,0,,,61,64
242160,control_change,,,,,0,0,2,,,0,64,127,,
242160,note_on,,,,,0,0,2,,,0,,,48,37
242280,set_tempo,,,,,200,1,0,526316,,,,,,
242280,note_on,,,,,0,0,1,,,0,,,66,44
242280,note_off,,,,,120,0,2,,,0,,,48,64
242280,note_on,,,,,0,0,2,,,0,,,57,34
242280,note_on,,,,,0,0,1,,,0,,,78,44
242280,note_off,,,,,0,0,1,,,0,,,80,64
242280,note_off,,,,,360,0,1,,,0,,,68,64
242300,set_tempo,,,,,20,1,0,530973,,,,,,
242340,control_change,,,,,60,0,2,,,0,64,0,,
242400,note_on,,,,,0,0,1,,,0,,,76,39
242400,note_on,,,,,0,0,1,,,0,,,64,39
242400,note_off,,,,,0,0,1,,,0,,,78,64
242400,note_off,,,,,120,0,1,,,0,,,66,64
242400,note_on,,,,,0,0,2,,,0,,,49,41
242400,control_change,,,,,0,0,2,,,0,64,127,,
242400,note_off,,,,,60,0,2,,,0,,,57,64
242520,note_on,,,,,0,0,2,,,0,,,56,31
242520,note_off,,,,,120,0,2,,,0,,,49,64
242520,note_off,,,,,120,0,1,,,0,,,64,64
242520,note_off,,,,,0,0,1,,,0,,,76,64
242560,set_tempo,,,,,260,1,0,566038,,,,,,
242580,control_change,,,,,60,0,2,,,0,64,0,,
242640,note_on,,,,,120,0,1,,,0,,,76,50
242640,note_off,,,,,60,0,2,,,0,,,56,64
242640,control_change,,,,,0,0,2,,,0,64,127,,
242640,note_on,,,,,0,0,2,,,0,,,52,34
242640,note_on,,,,,0,0,1,,,0,,,64,50
242720,set_tempo,,,,,160,1,0,606061,,,,,,
242760,note_off,,,,,120,0,2,,,0,,,52,64
242760,note_on,,,,,0,0,2,,,0,,,56,39
242780,set_tempo,,,,,60,1,0,612245,,,,,,
242790,control_change,,,,,30,0,2,,,0,64,0,,
242880,note_on,,,,,0,0,1,,,0,,,74,58
242880,note_off,,,,,0,0,1,,,0,,,76,64
242880,control_change,,,,,0,0,2,,,0,64,127,,
242880,note_off,,,,,90,0,2,,,0,,,56,64
242880,note_on,,,,,0,0,1,,,0,,,62,58
242880,note_off,,,,,240,0,1,,,0,,,64,64
242880,note_on,,,,,0,0,2,,,0,,,54,48
242960,set_tempo,,,,,180,1,0,560748,,,,,,
243000,note_on,,,,,0,0,2,,,0,,,57,41
243000,note_off,,,,,120,0,2,,,0,,,54,64
243090,control_change,,,,,90,0,2,,,0,64,0,,
243120,note_on,,,,,0,0,2,,,0,,,54,48
243120,note_off,,,,,30,0,2,,,0,,,57,64
243120,note_off,,,,,240,0,1,,,0,,,62,64
243120,note_off,,,,,0,0,1,,,0,,,74,64
243120,note_on,,,,,0,0,1,,,0,,,78,55
243120,note_on,,,,,0,0,1,,,0,,,66,55
243150,control_change,,,,,30,0,2,,,0,64,127,,
243240,note_off,,,,,90,0,2,,,0,,,54,64
243240,note_on,,,,,0,0,2,,,0,,,57,53
243330,control_change,,,,,90,0,2,,,0,64,0,,
243360,note_off,,,,,240,0,1,,,0,,,66,64
243360,note_off,,,,,0,0,1,,,0,,,78,64
243360,note_on,,,,,0,0,1,,,0,,,73,65
243360,note_on,,,,,0,0,1,,,0,,,61,65
243360,note_on,,,,,0,0,2,,,0,,,44,58
243360,note_on,,,,,0,0,2,,,0,,,52,58
243360,note_off,,,,,30,0,2,,,0,,,57,64
243390,control_change,,,,,30,0,2,,,0,64,127,,
243480,note_off,,,,,0,0,2,,,0,,,52,64
243480,note_on,,,,,0,0,2,,,0,,,56,61
243480,note_off,,,,,90,0,2,,,0,,,44,64
243520,set_tempo,,,,,560,1,0,566038,,,,,,
243560,set_tempo,,,,,40,1,0,571429,,,,,,
243600,note_off,,,,,0,0,1,,,0,,,73,64
243600,control_change,,,,,0,0,2,,,0,64,0,,
243600,note_on,,,,,0,0,2,,,0,,,44,69
243600,note_on,,,,,0,0,2,,,0,,,51,69
243600,note_off,,,,,120,0,2,,,0,,,56,64
243600,note_off,,,,,240,0,1,,,0,,,61,64
243600,note_on,,,,,0,0,1,,,0,,,72,75
243600,note_on,,,,,0,0,1,,,0,,,60,75
243620,set_tempo,,,,,60,1,0,588235,,,,,,
243660,set_tempo,,,,,40,1,0,606061,,,,,,
243660,control_change,,,,,60,0,2,,,0,64,127,,
243680,set_tempo,,,,,20,1,0,612245,,,,,,
243700,set_tempo,,,,,20,1,0,618557,,,,,,
243720,note_off,,,,,60,0,2,,,0,,,44,64
243720,note_off,,,,,0,0,2,,,0,,,51,64
243720,note_on,,,,,0,0,2,,,0,,,56,77
243740,set_tempo,,,,,40,1,0,625000,,,,,,
243800,set_tempo,,,,,60,1,0,1016949,,,,,,
243810,control_change,,,,,90,0,2,,,0,64,0,,
243840,note_off,,,,,240,0,1,,,0,,,60,64
243840,note_on,,,,,0,0,1,,,0,,,74,91
243840,note_on,,,,,0,0,1,,,0,,,62,91
243840,note_on,,,,,0,0,2,,,0,,,42,90
243840,note_off,,,,,0,0,1,,,0,,,72,64
243840,note_on,,,,,0,0,2,,,0,,,50,90
243840,note_off,,,,,30,0,2,,,0,,,56,64
243870,control_change,,,,,30,0,2,,,0,64,127,,
243900,set_tempo,,,,,100,1,0,631579,,,,,,
243920,set_tempo,,,,,20,1,0,625000,,,,,,
243940,set_tempo,,,,,20,1,0,612245,,,,,,
243960,note_on,,,,,0,0,2,,,0,,,57,83
243960,note_off,,,,,0,0,2,,,0,,,42,64
243960,note_off,,,,,90,0,2,,,0,,,50,64
244080,note_on,,,,,0,0,2,,,0,,,54,74
244080,note_off,,,,,120,0,2,,,0,,,57,64
244080,set_tempo,,,,,140,1,0,600000,,,,,,
244200,note_on,,,,,0,0,2,,,0,,,57,68
244200,note_off,,,,,120,0,2,,,0,,,54,64
244200,set_tempo,,,,,120,1,0,560748,,,,,,
244320,set_tempo,,,,,120,1,0,535714,,,,,,
244320,note_off,,,,,120,0,2,,,0,,,57,64
244320,note_on,,,,,0,0,2,,,0,,,54,63
244440,note_off,,,,,120,0,2,,,0,,,54,64
244440,note_on,,,,,0,0,2,,,0,,,57,59
244500,control_change,,,,,60,0,2,,,0,64,0,,
244560,note_on,,,,,0,0,2,,,0,,,50,52
244560,set_tempo,,,,,240,1,0,517241,,,,,,
244560,note_off,,,,,720,0,1,,,0,,,62,64
244560,note_off,,,,,0,0,1,,,0,,,74,64
244560,note_off,,,,,60,0,2,,,0,,,57,64
244560,note_on,,,,,0,0,1,,,0,,,76,46
244560,note_on,,,,,0,0,1,,,0,,,64,46
244680,note_off,,,,,120,0,1,,,0,,,64,64
244680,note_off,,,,,0,0,1,,,0,,,76,64
244680,note_on,,,,,0,0,1,,,0,,,78,60
244680,note_on,,,,,0,0,1,,,0,,,66,60
244680,note_on,,,,,0,0,2,,,0,,,57,47
244680,note_off,,,,,120,0,2,,,0,,,50,64
244800,note_off,,,,,0,0,1,,,0,,,78,64
244800,note_off,,,,,120,0,1,,,0,,,66,64
244800,note_on,,,,,0,0,1,,,0,,,80,69
244800,note_on,,,,,0,0,1,,,0,,,68,69
244800,control_change,,,,,0,0,2,,,0,64,127,,
244800,note_on,,,,,0,0,2,,,0,,,52,44
244800,note_off,,,,,120,0,2,,,0,,,57,64
244800,set_tempo,,,,,240,1,0,512821,,,,,,
244920,set_tempo,,,,,120,1,0,530973,,,,,,
244920,note_on,,,,,0,0,2,,,0,,,56,51
244920,note_off,,,,,120,0,2,,,0,,,52,64
245010,control_change,,,,,90,0,2,,,0,64,0,,
245040,note_off,,,,,30,0,2,,,0,,,56,64
245040,note_on,,,,,0,0,1,,,0,,,69,62
245040,note_on,,,,,0,0,1,,,0,,,81,62
245040,note_off,,,,,0,0,1,,,0,,,80,64
245040,note_off,,,,,240,0,1,,,0,,,68,64
245040,note_on,,,,,0,0,2,,,0,,,54,51
245070,control_change,,,,,30,0,2,,,0,64,127,,
245100,set_tempo,,,,,180,1,0,545455,,,,,,
245140,set_tempo,,,,,40,1,0,550459,,,,,,
245160,note_off,,,,,90,0,2,,,0,,,54,64
245160,note_on,,,,,0,0,2,,,0,,,56,59
245250,control_change,,,,,90,0,2,,,0,64,0,,
245280,note_off,,,,,0,0,1,,,0,,,81,64
245280,note_on,,,,,0,0,1,,,0,,,73,60
245280,note_on,,,,,0,0,1,,,0,,,61,60
245280,note_off,,,,,30,0,2,,,0,,,56,64
245280,note_on,,,,,0,0,2,,,0,,,44,66
245280,note_off,,,,,240,0,1,,,0,,,69,64
245280,note_on,,,,,0,0,2,,,0,,,52,66
245310,control_change,,,,,30,0,2,,,0,64,127,,
245320,set_tempo,,,,,180,1,0,588235,,,,,,
245400,note_off,,,,,0,0,2,,,0,,,44,64
245400,note_on,,,,,0,0,2,,,0,,,56,54
245400,note_off,,,,,90,0,2,,,0,,,52,64
245420,set_tempo,,,,,100,1,0,631579,,,,,,
245520,control_change,,,,,0,0,2,,,0,64,0,,
245520,note_on,,,,,0,0,2,,,0,,,54,47
245520,note_off,,,,,240,0,1,,,0,,,61,64
245520,note_on,,,,,0,0,2,,,0,,,44,47
245520,note_off,,,,,120,0,2,,,0,,,56,64
245520,note_off,,,,,0,0,1,,,0,,,73,64
245520,note_on,,,,,0,0,1,,,0,,,72,47
245520,note_on,,,,,0,0,1,,,0,,,60,47
245580,set_tempo,,,,,160,1,0,666667,,,,,,
245580,control_change,,,,,60,0,2,,,0,64,127,,
245640,note_off,,,,,0,0,2,,,0,,,44,64
245640,note_on,,,,,0,0,2,,,0,,,56,37
245640,note_off,,,,,60,0,2,,,0,,,54,64
245680,set_tempo,,,,,100,1,0,705882,,,,,,
245730,control_change,,,,,90,0,2,,,0,64,0,,
245760,note_off,,,,,240,0,1,,,0,,,60,64
245760,note_on,,,,,0,0,2,,,0,,,57,57
245760,note_off,,,,,30,0,2,,,0,,,56,64
245760,note_off,,,,,0,0,1,,,0,,,72,64
245760,note_on,,,,,0,0,1,,,0,,,73,62
245760,note_on,,,,,0,0,2,,,0,,,52,57
245760,note_on,,,,,0,0,2,,,0,,,45,57
245840,note_on,,,,,0,0,1,,,0,,,85,58
245840,note_off,,,,,80,0,1,,,0,,,73,64
245920,note_on,,,,,0,0,1,,,0,,,81,54
245920,note_off,,,,,80,0,1,,,0,,,85,64
245940,set_tempo,,,,,260,1,0,645161,,,,,,
245984,note_off,,,,,64,0,1,,,0,,,81,64
246000,note_on,,,,,16,0,1,,,0,,,76,55
246040,set_tempo,,,,,100,1,0,618557,,,,,,
246064,note_off,,,,,64,0,1,,,0,,,76,64
246080,note_on,,,,,16,0,1,,,0,,,73,49
246144,note_off,,,,,64,0,1,,,0,,,73,64
246160,note_on,,,,,16,0,1,,,0,,,69,44
246200,set_tempo,,,,,160,1,0,588235,,,,,,
246224,note_off,,,,,64,0,1,,,0,,,69,64
246240,note_off,,,,,0,0,2,,,0,,,45,64
246240,note_on,,,,,0,0,2,,,0,,,49,43
246240,note_on,,,,,16,0,1,,,0,,,64,51
246240,note_off,,,,,480,0,2,,,0,,,57,64
246240,note_off,,,,,0,0,2,,,0,,,52,64
246300,set_tempo,,,,,100,1,0,566038,,,,,,
246320,note_off,,,,,80,0,1,,,0,,,64,64
246320,note_on,,,,,0,0,1,,,0,,,61,40
246360,note_off,,,,,120,0,2,,,0,,,49,64
246400,note_off,,,,,80,0,1,,,0,,,61,64
246400,note_on,,,,,0,0,1,,,0,,,57,44
246440,set_tempo,,,,,140,1,0,540541,,,,,,
246480,note_off,,,,,80,0,1,,,0,,,57,64
246480,note_on,,,,,120,0,2,,,0,,,52,37
246480,note_on,,,,,0,0,1,,,0,,,61,47
246520,set_tempo,,,,,80,1,0,545455,,,,,,
246560,note_on,,,,,0,0,1,,,0,,,64,39
246560,note_off,,,,,80,0,1,,,0,,,61,64
246560,set_tempo,,,,,40,1,0,560748,,,,,,
246600,note_off,,,,,120,0,2,,,0,,,52,64
246640,note_off,,,,,80,0,1,,,0,,,64,64
246640,note_on,,,,,0,0,1,,,0,,,69,34
246660,set_tempo,,,,,100,1,0,545455,,,,,,
246704,note_off,,,,,64,0,1,,,0,,,69,64
246720,note_on,,,,,0,0,2,,,0,,,57,60
246720,note_on,,,,,16,0,1,,,0,,,73,70
246720,note_on,,,,,120,0,2,,,0,,,45,60
246720,note_on,,,,,0,0,2,,,0,,,52,60
246780,set_tempo,,,,,120,1,0,571429,,,,,,
246800,note_off,,,,,80,0,1,,,0,,,73,64
246800,note_on,,,,,0,0,1,,,0,,,85,66
246880,set_tempo,,,,,100,1,0,550459,,,,,,
246880,note_on,,,,,0,0,1,,,0,,,81,55
246880,note_off,,,,,80,0,1,,,0,,,85,64
246944,note_off,,,,,64,0,1,,,0,,,81,64
246960,note_on,,,,,16,0,1,,,0,,,76,60
247024,note_off,,,,,64,0,1,,,0,,,76,64
247040,note_on,,,,,16,0,1,,,0,,,73,54
247104,note_off,,,,,64,0,1,,,0,,,73,64
247120,note_on,,,,,16,0,1,,,0,,,69,49
247184,note_off,,,,,64,0,1,,,0,,,69,64
247200,note_on,,,,,0,0,2,,,0,,,49,48
247200,note_off,,,,,0,0,2,,,0,,,45,64
247200,set_tempo,,,,,320,1,0,530973,,,,,,
247200,note_off,,,,,0,0,2,,,0,,,52,64
247200,note_on,,,,,16,0,1,,,0,,,64,56
247200,note_off,,,,,480,0,2,,,0,,,57,64
247280,note_off,,,,,80,0,1,,,0,,,64,64
247280,note_on,,,,,0,0,1,,,0,,,61,45
247320,note_off,,,,,120,0,2,,,0,,,49,64
247360,note_off,,,,,80,0,1,,,0,,,61,64
247360,note_on,,,,,0,0,1,,,0,,,57,49
247440,note_on,,,,,120,0,2,,,0,,,52,42
247440,note_on,,,,,0,0,1,,,0,,,61,52
247440,note_off,,,,,80,0,1,,,0,,,57,64
247480,set_tempo,,,,,280,1,0,526316,,,,,,
247520,note_on,,,,,0,0,1,,,0,,,64,44
247520,note_off,,,,,80,0,1,,,0,,,61,64
247560,note_off,,,,,120,0,2,,,0,,,52,64
247600,note_off,,,,,80,0,1,,,0,,,64,64
247600,note_on,,,,,0,0,1,,,0,,,69,39
247664,note_off,,,,,64,0,1,,,0,,,69,64
247680,note_on,,,,,120,0,2,,,0,,,45,57
247680,note_on,,,,,16,0,1,,,0,,,73,42
247700,set_tempo,,,,,220,1,0,508475,,,,,,
247760,note_off,,,,,80,0,1,,,0,,,73,64
247760,note_on,,,,,0,0,1,,,0,,,69,38
247800,note_off,,,,,120,0,2,,,0,,,45,64
247840,note_on,,,,,0,0,1,,,0,,,64,35
247840,note_off,,,,,80,0,1,,,0,,,69,64
247920,note_on,,,,,0,0,1,,,0,,,61,45
247920,note_off,,,,,80,0,1,,,0,,,64,64
247920,note_on,,,,,120,0,2,,,0,,,52,57
247920,control_change,,,,,0,0,2,,,0,64,127,,
247920,note_on,,,,,0,0,1,,,0,,,76,45
248000,set_tempo,,,,,300,1,0,491803,,,,,,
248000,note_on,,,,,80,0,1,,,0,,,69,36
248080,note_off,,,,,80,0,1,,,0,,,69,64
248080,note_on,,,,,0,0,1,,,0,,,64,42
248130,control_change,,,,,210,0,2,,,0,64,0,,
248160,note_on,,,,,0,0,1,,,0,,,74,52
248160,note_on,,,,,0,0,1,,,0,,,59,52
248160,control_change,,,,,30,0,2,,,0,64,127,,
248160,note_off,,,,,0,0,1,,,0,,,76,64
248160,note_off,,,,,0,0,1,,,0,,,61,64
248160,note_off,,,,,80,0,1,,,0,,,64,64
248160,note_on,,,,,0,0,1,,,0,,,77,52
248240,note_off,,,,,80,0,1,,,0,,,74,64
248240,note_on,,,,,0,0,1,,,0,,,68,44
248320,note_off,,,,,80,0,1,,,0,,,68,64
248320,note_on,,,,,0,0,1,,,0,,,65,38
248320,set_tempo,,,,,320,1,0,495868,,,,,,
248370,control_change,,,,,210,0,2,,,0,64,0,,
248400,note_on,,,,,0,0,1,,,0,,,62,48
248400,note_on,,,,,0,0,1,,,0,,,71,48
248400,control_change,,,,,30,0,2,,,0,64,127,,
248400,note_on,,,,,0,0,1,,,0,,,76,48
248400,note_off,,,,,0,0,1,,,0,,,77,64
248400,note_off,,,,,0,0,1,,,0,,,59,64
248400,note_off,,,,,80,0,1,,,0,,,65,64
248480,note_off,,,,,80,0,1,,,0,,,71,64
248480,note_on,,,,,0,0,1,,,0,,,68,37
248560,note_on,,,,,0,0,1,,,0,,,64,43
248560,note_off,,,,,80,0,1,,,0,,,68,64
248610,control_change,,,,,210,0,2,,,0,64,0,,
248620,note_off,,,,,0,0,1,,,0,,,76,64
248620,note_off,,,,,60,0,1,,,0,,,64,64
248620,note_off,,,,,0,0,1,,,0,,,62,64
248640,note_off,,,,,30,0,2,,,0,,,52,64
248640,note_on,,,,,0,0,2,,,0,,,45,57
248640,note_on,,,,,20,0,1,,,0,,,73,51
248720,note_off,,,,,80,0,1,,,0,,,73,64
248720,note_on,,,,,0,0,1,,,0,,,69,49
248760,note_off,,,,,120,0,2,,,0,,,45,64
248780,set_tempo,,,,,460,1,0,526316,,,,,,
248800,note_off,,,,,80,0,1,,,0,,,69,64
248800,note_on,,,,,0,0,1,,,0,,,64,44
248880,note_off,,,,,80,0,1,,,0,,,64,64
248880,note_on,,,,,0,0,1,,,0,,,76,66
248880,note_on,,,,,0,0,1,,,0,,,61,66
248880,note_on,,,,,120,0,2,,,0,,,52,69
248880,control_change,,,,,0,0,2,,,0,64,127,,
248940,set_tempo,,,,,160,1,0,550459,,,,,,
248960,note_on,,,,,80,0,1,,,0,,,69,60
249020,set_tempo,,,,,80,1,0,545455,,,,,,
249040,note_off,,,,,80,0,1,,,0,,,69,64
249040,note_on,,,,,0,0,1,,,0,,,64,52
249080,set_tempo,,,,,60,1,0,540541,,,,,,
249090,control_change,,,,,210,0,2,,,0,64,0,,
249120,control_change,,,,,30,0,2,,,0,64,127,,
249120,note_on,,,,,0,0,1,,,0,,,74,74
249120,note_on,,,,,0,0,1,,,0,,,59,74
249120,note_on,,,,,0,0,1,,,0,,,77,74
249120,note_off,,,,,0,0,1,,,0,,,76,64
249120,note_off,,,,,0,0,1,,,0,,,61,64
249120,note_off,,,,,80,0,1,,,0,,,64,64
249180,set_tempo,,,,,100,1,0,571429,,,,,,
249200,note_on,,,,,0,0,1,,,0,,,68,72
249200,note_off,,,,,80,0,1,,,0,,,74,64
249280,note_on,,,,,0,0,1,,,0,,,65,69
249280,note_off,,,,,80,0,1,,,0,,,68,64
249320,set_tempo,,,,,140,1,0,606061,,,,,,
249330,control_change,,,,,210,0,2,,,0,64,0,,
249360,note_on,,,,,0,0,1,,,0,,,62,89
249360,note_on,,,,,0,0,1,,,0,,,71,89
249360,note_on,,,,,0,0,1,,,0,,,76,89
249360,note_off,,,,,0,0,1,,,0,,,77,64
249360,note_off,,,,,80,0,1,,,0,,,65,64
249360,control_change,,,,,30,0,2,,,0,64,127,,
249360,note_off,,,,,0,0,1,,,0,,,59,64
249440,note_on,,,,,0,0,1,,,0,,,68,85
249440,note_off,,,,,80,0,1,,,0,,,71,64
249520,note_on,,,,,0,0,1,,,0,,,64,81
249520,note_off,,,,,80,0,1,,,0,,,68,64
249560,set_tempo,,,,,240,1,0,631579,,,,,,
249570,control_change,,,,,210,0,2,,,0,64,0,,
249580,note_off,,,,,0,0,1,,,0,,,76,64
249580,note_off,,,,,60,0,1,,,0,,,64,64
249580,note_off,,,,,0,0,1,,,0,,,62,64
249600,note_on,,,,,0,0,2,,,0,,,57,97
249600,note_off,,,,,30,0,2,,,0,,,52,64
249600,note_on,,,,,0,0,2,,,0,,,45,97
249600,note_on,,,,,20,0,1,,,0,,,73,98
249600,note_on,,,,,0,0,2,,,0,,,52,97
249620,set_tempo,,,,,60,1,0,588235,,,,,,
249680,note_on,,,,,0,0,1,,,0,,,85,96
249680,note_off,,,,,80,0,1,,,0,,,73,64
249700,set_tempo,,,,,80,1,0,560748,,,,,,
249760,note_off,,,,,80,0,1,,,0,,,85,64
249760,note_on,,,,,0,0,1,,,0,,,81,92
249780,set_tempo,,,,,80,1,0,550459,,,,,,
249800,set_tempo,,,,,20,1,0,545455,,,,,,
249824,note_off,,,,,64,0,1,,,0,,,81,64
249840,note_on,,,,,16,0,1,,,0,,,76,90
249840,set_tempo,,,,,40,1,0,540541,,,,,,
249904,note_off,,,,,64,0,1,,,0,,,76,64
249920,note_on,,,,,16,0,1,,,0,,,73,86
249984,note_off,,,,,64,0,1,,,0,,,73,64
250000,note_on,,,,,16,0,1,,,0,,,69,82
250064,note_off,,,,,64,0,1,,,0,,,69,64
250080,note_off,,,,,0,0,2,,,0,,,52,64
250080,note_on,,,,,16,0,1,,,0,,,64,76
250080,note_off,,,,,480,0,2,,,0,,,57,64
250080,note_on,,,,,0,0,2,,,0,,,49,71
250080,note_off,,,,,0,0,2,,,0,,,45,64
250160,note_off,,,,,80,0,1,,,0,,,64,64
250160,note_on,,,,,0,0,1,,,0,,,61,66
250200,note_off,,,,,120,0,2,,,0,,,49,64
250240,note_off,,,,,80,0,1,,,0,,,61,64
250240,note_on,,,,,0,0,1,,,0,,,57,60
250300,set_tempo,,,,,460,1,0,526316,,,,,,
250320,note_on,,,,,0,0,1,,,0,,,61,52
250320,note_on,,,,,120,0,2,,,0,,,52,50
250320,note_off,,,,,80,0,1,,,0,,,57,64
250400,note_off,,,,,80,0,1,,,0,,,61,64
250400,note_on,,,,,0,0,1,,,0,,,64,45
250440,note_off,,,,,120,0,2,,,0,,,52,64
250480,note_on,,,,,0,0,1,,,0,,,69,37
250480,note_off,,,,,80,0,1,,,0,,,64,64
250544,note_off,,,,,64,0,1,,,0,,,69,64
250560,note_on,,,,,16,0,1,,,0,,,73,53
250560,note_on,,,,,120,0,2,,,0,,,46,57
250640,note_on,,,,,0,0,1,,,0,,,67,42
250640,note_off,,,,,80,0,1,,,0,,,73,64
250680,note_off,,,,,120,0,2,,,0,,,46,64
250720,note_on,,,,,0,0,1,,,0,,,64,50
250720,note_off,,,,,80,0,1,,,0,,,67,64
250800,note_off,,,,,80,0,1,,,0,,,64,64
250800,note_on,,,,,0,0,1,,,0,,,76,59
250800,note_on,,,,,120,0,2,,,0,,,49,61
250840,set_tempo,,,,,540,1,0,550459,,,,,,
250880,note_off,,,,,80,0,1,,,0,,,76,64
250880,note_on,,,,,0,0,1,,,0,,,70,57
250896,note_off,,,,,96,0,2,,,0,,,49,64
250960,note_on,,,,,0,0,1,,,0,,,67,67
250960,note_off,,,,,80,0,1,,,0,,,70,64
251040,note_on,,,,,144,0,2,,,0,,,43,91
251040,note_off,,,,,80,0,1,,,0,,,67,64
251040,note_on,,,,,0,0,1,,,0,,,82,80
251120,note_off,,,,,80,0,1,,,0,,,82,64
251120,note_on,,,,,0,0,1,,,0,,,76,70
251160,note_off,,,,,120,0,2,,,0,,,43,64
251200,note_off,,,,,80,0,1,,,0,,,76,64
251200,note_on,,,,,0,0,1,,,0,,,73,63
251280,note_on,,,,,120,0,2,,,0,,,51,50
251280,note_off,,,,,80,0,1,,,0,,,73,64
251280,note_on,,,,,0,0,1,,,0,,,79,51
251280,set_tempo,,,,,440,1,0,560748,,,,,,
251360,note_on,,,,,0,0,1,,,0,,,75,43
251360,note_off,,,,,80,0,1,,,0,,,79,64
251376,note_off,,,,,96,0,2,,,0,,,51,64
251440,note_off,,,,,80,0,1,,,0,,,75,64
251440,note_on,,,,,0,0,1,,,0,,,73,35
251520,note_on,,,,,0,0,2,,,0,,,51,57
251520,note_on,,,,,144,0,2,,,0,,,44,57
251520,note_on,,,,,0,0,1,,,0,,,71,62
251520,note_off,,,,,80,0,1,,,0,,,73,64
251520,note_on,,,,,0,0,2,,,0,,,56,57
251600,note_on,,,,,0,0,1,,,0,,,83,58
251600,note_off,,,,,80,0,1,,,0,,,71,64
251680,note_off,,,,,80,0,1,,,0,,,83,64
251680,note_on,,,,,0,0,1,,,0,,,80,54
251744,note_off,,,,,64,0,1,,,0,,,80,64
251760,note_on,,,,,16,0,1,,,0,,,75,55
251824,note_off,,,,,64,0,1,,,0,,,75,64
251840,note_on,,,,,16,0,1,,,0,,,71,49
251904,note_off,,,,,64,0,1,,,0,,,71,64
251920,note_on,,,,,16,0,1,,,0,,,68,44
251984,note_off,,,,,64,0,1,,,0,,,68,64
252000,note_off,,,,,0,0,2,,,0,,,51,64
252000,note_off,,,,,0,0,2,,,0,,,44,64
252000,note_on,,,,,0,0,2,,,0,,,47,43
252000,note_off,,,,,480,0,2,,,0,,,56,64
252000,note_on,,,,,16,0,1,,,0,,,63,51
252080,note_on,,,,,0,0,1,,,0,,,59,40
252080,note_off,,,,,80,0,1,,,0,,,63,64
252120,note_off,,,,,120,0,2,,,0,,,47,64
252160,note_off,,,,,80,0,1,,,0,,,59,64
252160,note_on,,,,,0,0,1,,,0,,,56,44
252240,note_off,,,,,80,0,1,,,0,,,56,64
252240,note_on,,,,,120,0,2,,,0,,,51,37
252240,set_tempo,,,,,960,1,0,550459,,,,,,
252240,note_on,,,,,0,0,1,,,0,,,59,47
252320,note_off,,,,,80,0,1,,,0,,,59,64
252320,note_on,,,,,0,0,1,,,0,,,63,39
252360,note_off,,,,,120,0,2,,,0,,,51,64
252400,note_off,,,,,80,0,1,,,0,,,63,64
252400,note_on,,,,,0,0,1,,,0,,,68,34
252460,set_tempo,,,,,220,1,0,576923,,,,,,
252464,note_off,,,,,64,0,1,,,0,,,68,64
252480,note_on,,,,,0,0,2,,,0,,,56,60
252480,note_on,,,,,120,0,2,,,0,,,44,60
252480,note_on,,,,,16,0,1,,,0,,,71,70
252480,note_on,,,,,0,0,2,,,0,,,51,60
252500,set_tempo,,,,,40,1,0,571429,,,,,,
252520,set_tempo,,,,,20,1,0,566038,,,,,,
252560,note_on,,,,,0,0,1,,,0,,,83,66
252560,note_off,,,,,80,0,1,,,0,,,71,64
252580,set_tempo,,,,,60,1,0,540541,,,,,,
252640,note_off,,,,,80,0,1,,,0,,,83,64
252640,note_on,,,,,0,0,1,,,0,,,80,55
252704,note_off,,,,,64,0,1,,,0,,,80,64
252720,note_on,,,,,16,0,1,,,0,,,75,60
252784,note_off,,,,,64,0,1,,,0,,,75,64
252800,note_on,,,,,16,0,1,,,0,,,71,54
252864,note_off,,,,,64,0,1,,,0,,,71,64
252880,note_on,,,,,16,0,1,,,0,,,68,49
252944,note_off,,,,,64,0,1,,,0,,,68,64
252960,note_on,,,,,16,0,1,,,0,,,63,56
252960,note_off,,,,,0,0,2,,,0,,,51,64
252960,note_off,,,,,0,0,2,,,0,,,44,64
252960,note_off,,,,,480,0,2,,,0,,,56,64
252960,note_on,,,,,0,0,2,,,0,,,47,48
253040,note_on,,,,,0,0,1,,,0,,,59,45
253040,note_off,,,,,80,0,1,,,0,,,63,64
253080,note_off,,,,,120,0,2,,,0,,,47,64
253120,note_off,,,,,80,0,1,,,0,,,59,64
253120,note_on,,,,,0,0,1,,,0,,,56,49
253140,set_tempo,,,,,560,1,0,526316,,,,,,
253200,note_on,,,,,0,0,1,,,0,,,59,52
253200,note_off,,,,,80,0,1,,,0,,,56,64
253200,note_on,,,,,120,0,2,,,0,,,51,42
253280,note_on,,,,,0,0,1,,,0,,,63,47
253280,note_off,,,,,80,0,1,,,0,,,59,64
253320,note_off,,,,,120,0,2,,,0,,,51,64
253360,note_on,,,,,0,0,1,,,0,,,68,52
253360,note_off,,,,,80,0,1,,,0,,,63,64
253424,note_off,,,,,64,0,1,,,0,,,68,64
253440,note_on,,,,,120,0,2,,,0,,,44,50
253440,note_on,,,,,16,0,1,,,0,,,71,55
253440,set_tempo,,,,,300,1,0,571429,,,,,,
253480,set_tempo,,,,,40,1,0,560748,,,,,,
253520,note_on,,,,,0,0,1,,,0,,,68,53
253520,note_off,,,,,80,0,1,,,0,,,71,64
253536,note_off,,,,,96,0,2,,,0,,,44,64
253540,set_tempo,,,,,60,1,0,535714,,,,,,
253600,note_on,,,,,0,0,1,,,0,,,63,59
253600,set_tempo,,,,,60,1,0,526316,,,,,,
253600,note_off,,,,,80,0,1,,,0,,,68,64
253660,set_tempo,,,,,60,1,0,508475,,,,,,
253680,note_on,,,,,144,0,2,,,0,,,47,61
253680,control_change,,,,,0,0,2,,,0,64,127,,
253680,note_off,,,,,80,0,1,,,0,,,63,64
253680,note_on,,,,,0,0,1,,,0,,,75,64
253720,set_tempo,,,,,60,1,0,504202,,,,,,
253760,note_on,,,,,80,0,1,,,0,,,68,65
253776,note_off,,,,,96,0,2,,,0,,,47,64
253840,note_off,,,,,80,0,1,,,0,,,68,64
253840,note_on,,,,,0,0,1,,,0,,,63,71
253890,control_change,,,,,114,0,2,,,0,64,0,,
253920,note_off,,,,,80,0,1,,,0,,,63,64
253920,note_off,,,,,0,0,1,,,0,,,75,64
253920,note_on,,,,,0,0,1,,,0,,,80,75
253920,control_change,,,,,0,0,2,,,0,64,127,,
253920,note_on,,,,,30,0,2,,,0,,,41,87
253940,set_tempo,,,,,220,1,0,491803,,,,,,
254000,note_on,,,,,0,0,1,,,0,,,74,81
254000,note_off,,,,,80,0,1,,,0,,,80,64
254040,note_off,,,,,120,0,2,,,0,,,41,64
254080,note_off,,,,,80,0,1,,,0,,,74,64
254080,note_on,,,,,0,0,1,,,0,,,71,87
254130,control_change,,,,,90,0,2,,,0,64,0,,
254160,note_on,,,,,0,0,1,,,0,,,78,90
254160,note_on,,,,,30,0,2,,,0,,,42,99
254160,control_change,,,,,0,0,2,,,0,64,127,,
254160,note_off,,,,,80,0,1,,,0,,,71,64
254160,note_on,,,,,0,0,1,,,0,,,82,90
254200,set_tempo,,,,,260,1,0,508475,,,,,,
254240,note_off,,,,,80,0,1,,,0,,,78,64
254240,note_on,,,,,0,0,1,,,0,,,76,94
254240,note_off,,,,,0,0,1,,,0,,,82,64
254256,note_off,,,,,96,0,2,,,0,,,42,64
254280,set_tempo,,,,,80,1,0,545455,,,,,,
254320,note_on,,,,,0,0,1,,,0,,,73,101
254320,note_off,,,,,80,0,1,,,0,,,76,64
254360,set_tempo,,,,,80,1,0,582524,,,,,,
254370,control_change,,,,,114,0,2,,,0,64,0,,
254380,note_off,,,,,60,0,1,,,0,,,73,64
254400,note_on,,,,,20,0,1,,,0,,,75,96
254400,note_on,,,,,30,0,2,,,0,,,47,93
254400,note_on,,,,,0,0,2,,,0,,,54,93
254400,note_on,,,,,0,0,2,,,0,,,59,93
254440,set_tempo,,,,,80,1,0,689655,,,,,,
254480,note_off,,,,,80,0,1,,,0,,,75,64
254480,note_on,,,,,0,0,1,,,0,,,87,93
254520,set_tempo,,,,,80,1,0,631579,,,,,,
254560,note_on,,,,,0,0,1,,,0,,,83,90
254560,note_off,,,,,80,0,1,,,0,,,87,64
254600,set_tempo,,,,,80,1,0,576923,,,,,,
254624,note_off,,,,,64,0,1,,,0,,,83,64
254640,note_on,,,,,16,0,1,,,0,,,78,91
254700,set_tempo,,,,,100,1,0,526316,,,,,,
254704,note_off,,,,,64,0,1,,,0,,,78,64
254720,note_on,,,,,16,0,1,,,0,,,75,86
254784,note_off,,,,,64,0,1,,,0,,,75,64
254800,note_on,,,,,16,0,1,,,0,,,71,82
254800,set_tempo,,,,,100,1,0,504202,,,,,,
254820,set_tempo,,,,,20,1,0,500000,,,,,,
254864,note_off,,,,,64,0,1,,,0,,,71,64
254880,note_off,,,,,480,0,2,,,0,,,59,64
254880,note_off,,,,,0,0,2,,,0,,,54,64
254880,note_off,,,,,0,0,2,,,0,,,47,64
254880,note_on,,,,,0,0,2,,,0,,,51,81
254880,note_on,,,,,16,0,1,,,0,,,66,88
254940,set_tempo,,,,,120,1,0,495868,,,,,,
254960,note_off,,,,,80,0,1,,,0,,,66,64
254960,note_on,,,,,0,0,1,,,0,,,63,79
255000,note_off,,,,,120,0,2,,,0,,,51,64
255000,set_tempo,,,,,60,1,0,500000,,,,,,
255040,note_on,,,,,0,0,1,,,0,,,59,82
255040,note_off,,,,,80,0,1,,,0,,,63,64
255080,set_tempo,,,,,80,1,0,504202,,,,,,
255120,note_on,,,,,120,0,2,,,0,,,54,77
255120,note_on,,,,,0,0,1,,,0,,,63,85
255120,note_off,,,,,80,0,1,,,0,,,59,64
255200,set_tempo,,,,,120,1,0,508475,,,,,,
255200,note_on,,,,,0,0,1,,,0,,,66,78
255200,note_off,,,,,80,0,1,,,0,,,63,64
255220,set_tempo,,,,,20,1,0,526316,,,,,,
255240,note_off,,,,,120,0,2,,,0,,,54,64
255280,note_off,,,,,80,0,1,,,0,,,66,64
255280,note_on,,,,,0,0,1,,,0,,,71,74
255344,note_off,,,,,64,0,1,,,0,,,71,64
255360,note_on,,,,,0,0,2,,,0,,,54,95
255360,note_on,,,,,0,0,2,,,0,,,59,95
255360,set_tempo,,,,,140,1,0,612245,,,,,,
255360,note_on,,,,,120,0,2,,,0,,,47,95
255360,note_on,,,,,16,0,1,,,0,,,75,103
255440,note_on,,,,,0,0,1,,,0,,,87,100
255440,note_off,,,,,80,0,1,,,0,,,75,64
255460,set_tempo,,,,,100,1,0,545455,,,,,,
255520,note_on,,,,,0,0,1,,,0,,,83,91
255520,note_off,,,,,80,0,1,,,0,,,87,64
255560,set_tempo,,,,,100,1,0,517241,,,,,,
255584,note_off,,,,,64,0,1,,,0,,,83,64
255600,note_on,,,,,16,0,1,,,0,,,78,95
255620,set_tempo,,,,,60,1,0,480000,,,,,,
255664,note_off,,,,,64,0,1,,,0,,,78,64
255680,note_on,,,,,16,0,1,,,0,,,75,90
255744,note_off,,,,,64,0,1,,,0,,,75,64
255760,note_on,,,,,16,0,1,,,0,,,71,86
255824,note_off,,,,,64,0,1,,,0,,,71,64
255840,note_off,,,,,480,0,2,,,0,,,59,64
255840,note_off,,,,,0,0,2,,,0,,,54,64
255840,note_on,,,,,0,0,2,,,0,,,51,85
255840,note_off,,,,,0,0,2,,,0,,,47,64
255840,note_on,,,,,16,0,1,,,0,,,66,92
255920,note_off,,,,,80,0,1,,,0,,,66,64
255920,note_on,,,,,0,0,1,,,0,,,63,83
255920,set_tempo,,,,,300,1,0,458015,,,,,,
255960,note_off,,,,,120,0,2,,,0,,,51,64
256000,note_off,,,,,80,0,1,,,0,,,63,64
256000,note_on,,,,,0,0,1,,,0,,,59,86
256020,set_tempo,,,,,100,1,0,465116,,,,,,
256080,set_tempo,,,,,60,1,0,468750,,,,,,
256080,note_off,,,,,80,0,1,,,0,,,59,64
256080,note_on,,,,,120,0,2,,,0,,,54,81
256080,note_on,,,,,0,0,1,,,0,,,63,89
256120,set_tempo,,,,,40,1,0,472441,,,,,,
256140,set_tempo,,,,,20,1,0,458015,,,,,,
256160,note_on,,,,,0,0,1,,,0,,,66,82
256160,set_tempo,,,,,20,1,0,476190,,,,,,
256160,note_off,,,,,80,0,1,,,0,,,63,64
256180,set_tempo,,,,,20,1,0,458015,,,,,,
256200,note_off,,,,,120,0,2,,,0,,,54,64
256200,set_tempo,,,,,20,1,0,447761,,,,,,
256240,note_on,,,,,0,0,1,,,0,,,71,78
256240,note_off,,,,,80,0,1,,,0,,,66,64
256304,note_off,,,,,64,0,1,,,0,,,71,64
256320,note_on,,,,,120,0,2,,,0,,,47,93
256320,note_on,,,,,16,0,1,,,0,,,75,81
256400,note_on,,,,,0,0,1,,,0,,,71,78
256400,note_off,,,,,80,0,1,,,0,,,75,64
256440,note_off,,,,,120,0,2,,,0,,,47,64
256480,note_on,,,,,0,0,1,,,0,,,66,75
256480,note_off,,,,,80,0,1,,,0,,,71,64
256560,note_on,,,,,0,0,1,,,0,,,78,83
256560,note_off,,,,,80,0,1,,,0,,,66,64
256560,note_on,,,,,120,0,2,,,0,,,54,93
256560,note_on,,,,,0,0,1,,,0,,,63,83
256560,control_change,,,,,0,0,2,,,0,64,127,,
256640,note_on,,,,,80,0,1,,,0,,,71,76
256720,note_on,,,,,0,0,1,,,0,,,66,81
256720,note_off,,,,,80,0,1,,,0,,,71,64
256770,control_change,,,,,210,0,2,,,0,64,0,,
256800,note_off,,,,,80,0,1,,,0,,,66,64
256800,note_on,,,,,0,0,1,,,0,,,61,89
256800,note_on,,,,,0,0,1,,,0,,,76,89
256800,control_change,,,,,30,0,2,,,0,64,127,,
256800,note_off,,,,,0,0,1,,,0,,,78,64
256800,note_off,,,,,0,0,1,,,0,,,63,64
256800,note_on,,,,,0,0,1,,,0,,,79,89
256880,note_off,,,,,80,0,1,,,0,,,76,64
256880,note_on,,,,,0,0,1,,,0,,,70,82
256960,note_off,,,,,80,0,1,,,0,,,70,64
256960,note_on,,,,,0,0,1,,,0,,,67,78
257010,control_change,,,,,210,0,2,,,0,64,0,,
257040,note_off,,,,,80,0,1,,,0,,,67,64
257040,note_off,,,,,0,0,1,,,0,,,61,64
257040,note_off,,,,,0,0,1,,,0,,,79,64
257040,note_on,,,,,0,0,1,,,0,,,78,85
257040,note_on,,,,,0,0,1,,,0,,,73,85
257040,note_on,,,,,0,0,1,,,0,,,64,85
257040,control_change,,,,,30,0,2,,,0,64,127,,
257120,note_on,,,,,0,0,1,,,0,,,70,77
257120,note_off,,,,,80,0,1,,,0,,,73,64
257140,set_tempo,,,,,940,1,0,444444,,,,,,
257180,set_tempo,,,,,40,1,0,451128,,,,,,
257200,note_off,,,,,80,0,1,,,0,,,70,64
257200,note_on,,,,,0,0,1,,,0,,,66,81
257250,control_change,,,,,210,0,2,,,0,64,0,,
257260,note_off,,,,,60,0,1,,,0,,,66,64
257260,note_off,,,,,0,0,1,,,0,,,64,64
257260,note_off,,,,,0,0,1,,,0,,,78,64
257280,note_on,,,,,20,0,1,,,0,,,75,88
257280,note_off,,,,,30,0,2,,,0,,,54,64
257280,note_on,,,,,0,0,2,,,0,,,47,93
257360,note_off,,,,,80,0,1,,,0,,,75,64
257360,note_on,,,,,0,0,1,,,0,,,71,86
257360,set_tempo,,,,,180,1,0,431655,,,,,,
257400,note_off,,,,,120,0,2,,,0,,,47,64
257440,note_on,,,,,0,0,1,,,0,,,66,82
257440,note_off,,,,,80,0,1,,,0,,,71,64
257460,set_tempo,,,,,100,1,0,419580,,,,,,
257520,note_on,,,,,0,0,1,,,0,,,63,98
257520,note_on,,,,,0,0,1,,,0,,,78,98
257520,note_off,,,,,80,0,1,,,0,,,66,64
257520,control_change,,,,,0,0,2,,,0,64,127,,
257520,note_on,,,,,120,0,2,,,0,,,54,102
257600,note_on,,,,,80,0,1,,,0,,,71,95
257680,note_on,,,,,0,0,1,,,0,,,66,91
257680,note_off,,,,,80,0,1,,,0,,,71,64
257740,set_tempo,,,,,280,1,0,434783,,,,,,
257760,note_off,,,,,80,0,1,,,0,,,66,64
257760,note_off,,,,,0,0,1,,,0,,,63,64
257760,note_off,,,,,0,0,1,,,0,,,78,64
257760,note_on,,,,,0,0,1,,,0,,,79,106
257760,note_on,,,,,0,0,1,,,0,,,76,106
257760,note_on,,,,,0,0,1,,,0,,,61,106
257780,set_tempo,,,,,40,1,0,441176,,,,,,
257840,note_off,,,,,80,0,1,,,0,,,76,64
257840,note_on,,,,,0,0,1,,,0,,,70,103
257920,note_on,,,,,0,0,1,,,0,,,67,99
257920,note_off,,,,,80,0,1,,,0,,,70,64
258000,note_off,,,,,0,0,1,,,0,,,79,64
258000,note_on,,,,,0,0,1,,,0,,,78,112
258000,note_off,,,,,80,0,1,,,0,,,67,64
258000,note_on,,,,,0,0,1,,,0,,,64,112
258000,note_off,,,,,0,0,1,,,0,,,61,64
258000,note_on,,,,,0,0,1,,,0,,,73,112
258040,set_tempo,,,,,260,1,0,454545,,,,,,
258060,set_tempo,,,,,20,1,0,465116,,,,,,
258080,note_off,,,,,80,0,1,,,0,,,73,64
258080,note_on,,,,,0,0,1,,,0,,,70,109
258080,set_tempo,,,,,20,1,0,468750,,,,,,
258160,note_off,,,,,80,0,1,,,0,,,70,64
258160,note_on,,,,,0,0,1,,,0,,,66,103
258210,control_change,,,,,690,0,2,,,0,64,0,,
258220,note_off,,,,,0,0,1,,,0,,,78,64
258220,note_off,,,,,0,0,1,,,0,,,64,64
258220,note_off,,,,,60,0,1,,,0,,,66,64
258240,note_on,,,,,0,0,2,,,0,,,59,124
258240,note_on,,,,,0,0,2,,,0,,,54,124
258240,control_change,,,,,0,0,2,,,0,64,127,,
258240,note_off,,,,,30,0,2,,,0,,,54,64
258240,note_on,,,,,20,0,1,,,0,,,75,125
258240,note_on,,,,,0,0,2,,,0,,,47,124
258320,note_off,,,,,80,0,1,,,0,,,75,64
258320,note_on,,,,,0,0,1,,,0,,,87,123
258360,set_tempo,,,,,280,1,0,441176,,,,,,
258400,note_off,,,,,80,0,1,,,0,,,87,64
258400,note_on,,,,,0,0,1,,,0,,,83,120
258464,note_off,,,,,64,0,1,,,0,,,83,64
258480,note_on,,,,,16,0,1,,,0,,,78,117
258500,set_tempo,,,,,140,1,0,431655,,,,,,
258544,note_off,,,,,64,0,1,,,0,,,78,64
258560,note_on,,,,,16,0,1,,,0,,,75,116
258624,note_off,,,,,64,0,1,,,0,,,75,64
258640,note_on,,,,,16,0,1,,,0,,,71,113
258704,note_off,,,,,64,0,1,,,0,,,71,64
258720,note_on,,,,,16,0,1,,,0,,,66,109
258720,control_change,,,,,0,0,2,,,0,64,0,,
258720,note_off,,,,,0,0,2,,,0,,,54,64
258720,note_off,,,,,0,0,2,,,0,,,59,64
258720,note_off,,,,,480,0,2,,,0,,,47,64
258720,note_on,,,,,0,0,2,,,0,,,51,104
258800,note_on,,,,,0,0,1,,,0,,,63,101
258800,note_off,,,,,80,0,1,,,0,,,66,64
258840,note_off,,,,,120,0,2,,,0,,,51,64
258880,note_on,,,,,0,0,1,,,0,,,59,102
258880,note_off,,,,,80,0,1,,,0,,,63,64
258900,set_tempo,,,,,400,1,0,444444,,,,,,
258960,note_off,,,,,80,0,1,,,0,,,59,64
258960,note_on,,,,,120,0,2,,,0,,,54,97
258960,note_on,,,,,0,0,1,,,0,,,63,105
259040,note_off,,,,,80,0,1,,,0,,,63,64
259040,note_on,,,,,0,0,1,,,0,,,66,110
259060,set_tempo,,,,,160,1,0,458015,,,,,,
259080,note_off,,,,,120,0,2,,,0,,,54,64
259120,note_off,,,,,80,0,1,,,0,,,66,64
259120,note_on,,,,,0,0,1,,,0,,,71,112
259180,set_tempo,,,,,120,1,0,472441,,,,,,
259184,note_off,,,,,64,0,1,,,0,,,71,64
259200,note_on,,,,,16,0,1,,,0,,,75,118
259200,control_change,,,,,120,0,2,,,0,64,127,,
259200,note_on,,,,,0,0,2,,,0,,,48,111
259240,set_tempo,,,,,60,1,0,491803,,,,,,
259280,note_off,,,,,80,0,1,,,0,,,75,64
259280,note_on,,,,,0,0,1,,,0,,,69,106
259320,note_off,,,,,120,0,2,,,0,,,48,64
259360,note_off,,,,,80,0,1,,,0,,,69,64
259360,note_on,,,,,0,0,1,,,0,,,66,108
259410,control_change,,,,,90,0,2,,,0,64,0,,
259440,control_change,,,,,0,0,2,,,0,64,127,,
259440,note_on,,,,,30,0,2,,,0,,,51,99
259440,note_on,,,,,0,0,1,,,0,,,78,112
259440,note_off,,,,,80,0,1,,,0,,,66,64
259440,set_tempo,,,,,200,1,0,508475,,,,,,
259460,set_tempo,,,,,20,1,0,512821,,,,,,
259520,note_on,,,,,0,0,1,,,0,,,72,117
259520,note_off,,,,,80,0,1,,,0,,,78,64
259536,note_off,,,,,96,0,2,,,0,,,51,64
259600,note_on,,,,,0,0,1,,,0,,,69,122
259600,note_off,,,,,80,0,1,,,0,,,72,64
259650,control_change,,,,,114,0,2,,,0,64,0,,
259680,note_on,,,,,0,0,1,,,0,,,84,127
259680,control_change,,,,,0,0,2,,,0,64,127,,
259680,note_on,,,,,30,0,2,,,0,,,45,125
259680,set_tempo,,,,,220,1,0,526316,,,,,,
259680,note_off,,,,,80,0,1,,,0,,,69,64
259760,note_on,,,,,0,0,1,,,0,,,78,110
259760,note_off,,,,,80,0,1,,,0,,,84,64
259800,note_off,,,,,120,0,2,,,0,,,45,64
259800,set_tempo,,,,,120,1,0,530973,,,,,,
259820,set_tempo,,,,,20,1,0,550459,,,,,,
259840,note_off,,,,,80,0,1,,,0,,,78,64
259840,note_on,,,,,0,0,1,,,0,,,75,95
259890,control_change,,,,,90,0,2,,,0,64,0,,
259900,set_tempo,,,,,80,1,0,606061,,,,,,
259920,control_change,,,,,0,0,2,,,0,64,127,,
259920,note_on,,,,,0,0,1,,,0,,,81,86
259920,note_off,,,,,80,0,1,,,0,,,75,64
259920,note_on,,,,,30,0,2,,,0,,,53,87
260000,note_off,,,,,80,0,1,,,0,,,81,64
260000,note_on,,,,,0,0,1,,,0,,,77,70
260016,note_off,,,,,96,0,2,,,0,,,53,64
260080,note_off,,,,,80,0,1,,,0,,,77,64
260080,note_on,,,,,0,0,1,,,0,,,75,63
260100,set_tempo,,,,,200,1,0,645161,,,,,,
260130,control_change,,,,,114,0,2,,,0,64,0,,
260160,note_on,,,,,30,0,2,,,0,,,46,57
260160,note_on,,,,,0,0,2,,,0,,,53,57
260160,note_on,,,,,0,0,2,,,0,,,58,57
260160,note_on,,,,,0,0,1,,,0,,,73,62
260160,note_off,,,,,80,0,1,,,0,,,75,64
260200,set_tempo,,,,,100,1,0,674157,,,,,,
260240,note_on,,,,,0,0,1,,,0,,,85,58
260240,note_off,,,,,80,0,1,,,0,,,73,64
260320,note_on,,,,,0,0,1,,,0,,,82,54
260320,note_off,,,,,80,0,1,,,0,,,85,64
260384,note_off,,,,,64,0,1,,,0,,,82,64
260400,note_on,,,,,16,0,1,,,0,,,77,55
260400,set_tempo,,,,,200,1,0,631579,,,,,,
260464,note_off,,,,,64,0,1,,,0,,,77,64
260480,note_on,,,,,16,0,1,,,0,,,73,49
260500,set_tempo,,,,,100,1,0,606061,,,,,,
260544,note_off,,,,,64,0,1,,,0,,,73,64
260560,note_on,,,,,16,0,1,,,0,,,70,44
260624,note_off,,,,,64,0,1,,,0,,,70,64
260640,note_off,,,,,0,0,2,,,0,,,46,64
260640,note_off,,,,,0,0,2,,,0,,,53,64
260640,note_on,,,,,0,0,2,,,0,,,49,43
260640,note_off,,,,,480,0,2,,,0,,,58,64
260640,note_on,,,,,16,0,1,,,0,,,65,51
260660,set_tempo,,,,,160,1,0,571429,,,,,,
260720,note_on,,,,,0,0,1,,,0,,,61,40
260720,note_off,,,,,80,0,1,,,0,,,65,64
260760,note_off,,,,,120,0,2,,,0,,,49,64
260760,set_tempo,,,,,100,1,0,566038,,,,,,
260780,set_tempo,,,,,20,1,0,550459,,,,,,
260800,note_on,,,,,0,0,1,,,0,,,58,44
260800,note_off,,,,,80,0,1,,,0,,,61,64
260880,note_on,,,,,0,0,1,,,0,,,61,47
260880,note_off,,,,,80,0,1,,,0,,,58,64
260880,note_on,,,,,120,0,2,,,0,,,53,37
260960,note_off,,,,,80,0,1,,,0,,,61,64
260960,note_on,,,,,0,0,1,,,0,,,65,39
261000,note_off,,,,,120,0,2,,,0,,,53,64
261040,note_off,,,,,80,0,1,,,0,,,65,64
261040,note_on,,,,,0,0,1,,,0,,,70,34
261104,note_off,,,,,64,0,1,,,0,,,70,64
261120,note_on,,,,,120,0,2,,,0,,,53,60
261120,note_on,,,,,0,0,2,,,0,,,58,60
261120,note_on,,,,,0,0,2,,,0,,,46,60
261120,note_on,,,,,16,0,1,,,0,,,73,70
261200,note_off,,,,,80,0,1,,,0,,,73,64
261200,note_on,,,,,0,0,1,,,0,,,85,66
261280,note_on,,,,,0,0,1,,,0,,,82,55
261280,note_off,,,,,80,0,1,,,0,,,85,64
261344,note_off,,,,,64,0,1,,,0,,,82,64
261360,note_on,,,,,16,0,1,,,0,,,77,60
261424,note_off,,,,,64,0,1,,,0,,,77,64
261440,note_on,,,,,16,0,1,,,0,,,73,54
261504,note_off,,,,,64,0,1,,,0,,,73,64
261520,note_on,,,,,16,0,1,,,0,,,70,49
261520,set_tempo,,,,,740,1,0,535714,,,,,,
261580,set_tempo,,,,,60,1,0,530973,,,,,,
261584,note_off,,,,,64,0,1,,,0,,,70,64
261600,note_on,,,,,16,0,1,,,0,,,65,56
261600,note_off,,,,,0,0,2,,,0,,,53,64
261600,note_on,,,,,0,0,2,,,0,,,49,48
261600,note_off,,,,,0,0,2,,,0,,,58,64
261600,note_off,,,,,480,0,2,,,0,,,46,64
261680,note_off,,,,,80,0,1,,,0,,,65,64
261680,note_on,,,,,0,0,1,,,0,,,61,45
261720,note_off,,,,,120,0,2,,,0,,,49,64
261760,note_on,,,,,0,0,1,,,0,,,58,49
261760,note_off,,,,,80,0,1,,,0,,,61,64
261780,set_tempo,,,,,200,1,0,526316,,,,,,
261840,note_on,,,,,120,0,2,,,0,,,53,42
261840,note_on,,,,,0,0,1,,,0,,,61,52
261840,note_off,,,,,80,0,1,,,0,,,58,64
261920,note_on,,,,,0,0,1,,,0,,,65,47
261920,note_off,,,,,80,0,1,,,0,,,61,64
261960,note_off,,,,,120,0,2,,,0,,,53,64
262000,note_on,,,,,0,0,1,,,0,,,70,52
262000,note_off,,,,,80,0,1,,,0,,,65,64
262064,note_off,,,,,64,0,1,,,0,,,70,64
262080,note_on,,,,,16,0,1,,,0,,,73,55
262080,note_on,,,,,120,0,2,,,0,,,46,50
262080,set_tempo,,,,,300,1,0,571429,,,,,,
262100,set_tempo,,,,,20,1,0,560748,,,,,,
262160,note_on,,,,,0,0,1,,,0,,,70,51
262160,note_off,,,,,80,0,1,,,0,,,73,64
262160,set_tempo,,,,,60,1,0,530973,,,,,,
262176,note_off,,,,,96,0,2,,,0,,,46,64
262240,set_tempo,,,,,80,1,0,517241,,,,,,
262240,note_on,,,,,0,0,1,,,0,,,65,54
262240,note_off,,,,,80,0,1,,,0,,,70,64
262280,set_tempo,,,,,40,1,0,512821,,,,,,
262320,note_off,,,,,80,0,1,,,0,,,65,64
262320,note_on,,,,,0,0,2,,,0,,,49,57
262320,control_change,,,,,144,0,2,,,0,64,127,,
262320,note_on,,,,,0,0,1,,,0,,,77,64
262360,set_tempo,,,,,80,1,0,500000,,,,,,
262400,note_on,,,,,80,0,1,,,0,,,70,70
262416,note_off,,,,,96,0,2,,,0,,,49,64
262480,note_off,,,,,80,0,1,,,0,,,70,64
262480,note_on,,,,,0,0,1,,,0,,,65,77
262530,control_change,,,,,114,0,2,,,0,64,0,,
262560,note_on,,,,,0,0,1,,,0,,,82,81
262560,note_off,,,,,0,0,1,,,0,,,77,64
262560,note_on,,,,,0,0,2,,,0,,,43,88
262560,note_off,,,,,80,0,1,,,0,,,65,64
262560,control_change,,,,,30,0,2,,,0,64,127,,
262620,set_tempo,,,,,260,1,0,480000,,,,,,
262640,note_off,,,,,80,0,1,,,0,,,82,64
262640,note_on,,,,,0,0,1,,,0,,,77,87
262680,note_off,,,,,120,0,2,,,0,,,43,64
262700,set_tempo,,,,,80,1,0,483871,,,,,,
262720,note_off,,,,,80,0,1,,,0,,,77,64
262720,note_on,,,,,0,0,1,,,0,,,73,95
262760,set_tempo,,,,,60,1,0,491803,,,,,,
262770,control_change,,,,,90,0,2,,,0,64,0,,
262800,note_on,,,,,0,0,1,,,0,,,80,103
262800,control_change,,,,,30,0,2,,,0,64,127,,
262800,note_on,,,,,0,0,2,,,0,,,44,100
262800,note_on,,,,,0,0,1,,,0,,,84,103
262800,note_off,,,,,80,0,1,,,0,,,73,64
262880,note_on,,,,,0,0,1,,,0,,,78,110
262880,note_off,,,,,0,0,1,,,0,,,84,64
262880,note_off,,,,,80,0,1,,,0,,,80,64
262896,note_off,,,,,96,0,2,,,0,,,44,64
262940,set_tempo,,,,,180,1,0,571429,,,,,,
262960,note_on,,,,,0,0,1,,,0,,,75,119
262960,note_off,,,,,80,0,1,,,0,,,78,64
263000,set_tempo,,,,,60,1,0,560748,,,,,,
263010,control_change,,,,,114,0,2,,,0,64,0,,
263020,note_off,,,,,60,0,1,,,0,,,75,64
263040,note_on,,,,,0,0,2,,,0,,,49,118
263040,note_on,,,,,0,0,2,,,0,,,44,118
263040,note_on,,,,,30,0,2,,,0,,,37,118
263040,note_on,,,,,20,0,1,,,0,,,77,124
263060,set_tempo,,,,,60,1,0,681818,,,,,,
263080,set_tempo,,,,,20,1,0,714286,,,,,,
263120,set_tempo,,,,,40,1,0,674157,,,,,,
263120,note_off,,,,,80,0,1,,,0,,,77,64
263120,note_on,,,,,0,0,1,,,0,,,89,116
263140,set_tempo,,,,,20,1,0,625000,,,,,,
263160,set_tempo,,,,,20,1,0,618557,,,,,,
263180,set_tempo,,,,,20,1,0,612245,,,,,,
263200,note_off,,,,,80,0,1,,,0,,,89,64
263200,set_tempo,,,,,20,1,0,571429,,,,,,
263200,note_on,,,,,0,0,1,,,0,,,85,112
263264,note_off,,,,,64,0,1,,,0,,,85,64
263280,set_tempo,,,,,80,1,0,566038,,,,,,
263280,note_on,,,,,16,0,1,,,0,,,80,107
263300,set_tempo,,,,,20,1,0,530973,,,,,,
263344,note_off,,,,,64,0,1,,,0,,,80,64
263360,note_on,,,,,16,0,1,,,0,,,77,101
263400,set_tempo,,,,,100,1,0,504202,,,,,,
263424,note_off,,,,,64,0,1,,,0,,,77,64
263440,note_on,,,,,16,0,1,,,0,,,73,98
263480,set_tempo,,,,,80,1,0,483871,,,,,,
263504,note_off,,,,,64,0,1,,,0,,,73,64
263520,note_on,,,,,16,0,1,,,0,,,68,96
263600,note_off,,,,,80,0,1,,,0,,,68,64
263600,note_on,,,,,0,0,1,,,0,,,65,87
263680,note_off,,,,,80,0,1,,,0,,,65,64
263680,note_on,,,,,0,0,1,,,0,,,61,74
263760,note_off,,,,,0,0,2,,,0,,,44,64
263760,note_off,,,,,720,0,2,,,0,,,49,64
263760,note_off,,,,,0,0,2,,,0,,,37,64
263760,note_off,,,,,80,0,1,,,0,,,61,64
263760,note_on,,,,,0,0,1,,,0,,,56,73
263840,note_on,,,,,0,0,1,,,0,,,53,60
263840,note_off,,,,,80,0,1,,,0,,,56,64
263920,note_on,,,,,0,0,1,,,0,,,49,54
263920,note_off,,,,,80,0,1,,,0,,,53,64
263960,set_tempo,,,,,480,1,0,612245,,,,,,
263984,note_off,,,,,64,0,1,,,0,,,49,64
264000,note_on,,,,,240,0,2,,,0,,,37,72
264120,note_off,,,,,120,0,2,,,0,,,37,64
264120,set_tempo,,,,,160,1,0,606061,,,,,,
264120,note_on,,,,,0,0,2,,,0,,,37,56
264140,set_tempo,,,,,20,1,0,517241,,,,,,
264200,set_tempo,,,,,60,1,0,512821,,,,,,
264210,note_off,,,,,90,0,2,,,0,,,37,64
264240,note_on,,,,,30,0,2,,,0,,,37,44
264330,note_off,,,,,90,0,2,,,0,,,37,64
264360,note_on,,,,,30,0,2,,,0,,,37,37
264450,note_off,,,,,90,0,2,,,0,,,37,64
264480,note_on,,,,,30,0,2,,,0,,,37,31
264570,note_off,,,,,90,0,2,,,0,,,37,64
264600,note_on,,,,,30,0,2,,,0,,,37,30
264660,set_tempo,,,,,460,1,0,535714,,,,,,
264690,note_off,,,,,90,0,2,,,0,,,37,64
264720,note_on,,,,,30,0,2,,,0,,,37,30
264760,set_tempo,,,,,100,1,0,550459,,,,,,
264810,note_off,,,,,90,0,2,,,0,,,37,64
264840,note_on,,,,,30,0,2,,,0,,,37,34
264930,note_off,,,,,90,0,2,,,0,,,37,64
264960,note_on,,,,,30,0,2,,,0,,,37,40
264960,note_on,,,,,0,0,1,,,0,,,56,46
264960,note_on,,,,,0,0,1,,,0,,,53,46
264960,note_on,,,,,976,0,1,,,0,,,61,46
265000,set_tempo,,,,,240,1,0,530973,,,,,,
265080,note_on,,,,,0,0,2,,,0,,,37,38
265080,note_off,,,,,120,0,2,,,0,,,37,64
265140,set_tempo,,,,,140,1,0,512821,,,,,,
265170,note_off,,,,,90,0,2,,,0,,,37,64
265200,note_on,,,,,30,0,2,,,0,,,37,34
265290,note_off,,,,,90,0,2,,,0,,,37,64
265320,note_on,,,,,30,0,2,,,0,,,37,31
265340,set_tempo,,,,,200,1,0,504202,,,,,,
265410,note_off,,,,,90,0,2,,,0,,,37,64
265440,note_off,,,,,0,0,1,,,0,,,61,64
265440,note_on,,,,,0,0,1,,,0,,,65,38
265440,note_off,,,,,480,0,1,,,0,,,53,64
265440,note_on,,,,,30,0,2,,,0,,,37,28
265440,note_off,,,,,0,0,1,,,0,,,56,64
265530,note_off,,,,,90,0,2,,,0,,,37,64
265560,note_off,,,,,120,0,1,,,0,,,65,64
265560,note_on,,,,,30,0,2,,,0,,,37,31
265650,note_off,,,,,90,0,2,,,0,,,37,64
265680,set_tempo,,,,,340,1,0,535714,,,,,,
265680,note_on,,,,,30,0,2,,,0,,,37,33
265680,note_on,,,,,120,0,1,,,0,,,68,34
265770,note_off,,,,,90,0,2,,,0,,,37,64
265800,note_off,,,,,120,0,1,,,0,,,68,64
265800,note_on,,,,,30,0,2,,,0,,,37,38
265820,set_tempo,,,,,140,1,0,600000,,,,,,
265890,note_off,,,,,90,0,2,,,0,,,37,64
265920,note_on,,,,,30,0,2,,,0,,,37,43
265920,note_on,,,,,0,0,1,,,0,,,54,50
265920,note_on,,,,,120,0,1,,,0,,,63,50
265920,note_on,,,,,0,0,1,,,0,,,58,50
266040,note_on,,,,,0,0,2,,,0,,,37,38
266040,note_off,,,,,120,0,2,,,0,,,37,64
266040,set_tempo,,,,,220,1,0,550459,,,,,,
266130,note_off,,,,,90,0,2,,,0,,,37,64
266160,note_on,,,,,30,0,2,,,0,,,37,33
266160,set_tempo,,,,,120,1,0,530973,,,,,,
266250,note_off,,,,,90,0,2,,,0,,,37,64
266280,note_on,,,,,30,0,2,,,0,,,37,29
266320,set_tempo,,,,,160,1,0,526316,,,,,,
266370,note_off,,,,,90,0,2,,,0,,,37,64
266400,note_on,,,,,30,0,2,,,0,,,37,25
266400,note_off,,,,,480,0,1,,,0,,,54,64
266400,note_off,,,,,0,0,1,,,0,,,63,64
266400,note_off,,,,,0,0,1,,,0,,,58,64
266400,note_on,,,,,0,0,1,,,0,,,66,41
266490,note_off,,,,,90,0,2,,,0,,,37,64
266520,note_off,,,,,120,0,1,,,0,,,66,64
266520,note_on,,,,,30,0,2,,,0,,,37,27
266600,set_tempo,,,,,280,1,0,560748,,,,,,
266610,note_off,,,,,90,0,2,,,0,,,37,64
266640,note_on,,,,,30,0,2,,,0,,,37,35
266640,note_on,,,,,120,0,1,,,0,,,70,36
266720,set_tempo,,,,,120,1,0,618557,,,,,,
266730,note_off,,,,,90,0,2,,,0,,,37,64
266760,note_off,,,,,120,0,1,,,0,,,70,64
266760,note_on,,,,,30,0,2,,,0,,,37,43
266850,note_off,,,,,90,0,2,,,0,,,37,64
266860,set_tempo,,,,,140,1,0,722892,,,,,,
266880,note_on,,,,,120,0,1,,,0,,,70,53
266880,note_on,,,,,30,0,2,,,0,,,37,48
267000,note_on,,,,,0,0,1,,,0,,,68,40
267000,note_off,,,,,120,0,2,,,0,,,37,64
267000,note_on,,,,,0,0,2,,,0,,,37,40
267000,note_off,,,,,120,0,1,,,0,,,70,64
267000,set_tempo,,,,,140,1,0,588235,,,,,,
267040,set_tempo,,,,,40,1,0,582524,,,,,,
267090,note_off,,,,,90,0,1,,,0,,,68,64
267090,note_off,,,,,90,0,2,,,0,,,37,64
267120,note_on,,,,,0,0,2,,,0,,,37,34
267120,note_on,,,,,30,0,1,,,0,,,68,45
267120,note_on,,,,,0,0,1,,,0,,,60,45
267120,note_on,,,,,30,0,2,,,0,,,39,34
267140,set_tempo,,,,,100,1,0,530973,,,,,,
267210,note_off,,,,,90,0,2,,,0,,,37,64
267240,note_off,,,,,120,0,1,,,0,,,68,64
267240,note_on,,,,,30,0,2,,,0,,,37,32
267240,note_on,,,,,0,0,1,,,0,,,66,36
267280,set_tempo,,,,,140,1,0,588235,,,,,,
267330,note_off,,,,,90,0,1,,,0,,,66,64
267330,note_off,,,,,0,0,1,,,0,,,60,64
267330,note_off,,,,,90,0,2,,,0,,,37,64
267360,note_on,,,,,30,0,1,,,0,,,66,45
267360,note_on,,,,,0,0,1,,,0,,,60,45
267360,note_off,,,,,30,0,2,,,0,,,39,64
267360,note_on,,,,,0,0,2,,,0,,,44,31
267360,note_on,,,,,0,0,2,,,0,,,37,31
267440,set_tempo,,,,,160,1,0,560748,,,,,,
267450,note_off,,,,,90,0,2,,,0,,,37,64
267480,note_off,,,,,120,0,1,,,0,,,66,64
267480,note_on,,,,,0,0,1,,,0,,,65,33
267480,note_on,,,,,30,0,2,,,0,,,37,30
267500,set_tempo,,,,,60,1,0,566038,,,,,,
267570,note_off,,,,,90,0,1,,,0,,,65,64
267570,note_off,,,,,0,0,1,,,0,,,60,64
267570,note_off,,,,,90,0,2,,,0,,,37,64
267600,note_on,,,,,0,0,2,,,0,,,37,36
267600,note_on,,,,,0,0,1,,,0,,,60,49
267600,note_on,,,,,30,0,1,,,0,,,65,49
267600,note_on,,,,,0,0,2,,,0,,,45,36
267600,note_off,,,,,30,0,2,,,0,,,44,64
267620,set_tempo,,,,,120,1,0,582524,,,,,,
267690,note_off,,,,,90,0,2,,,0,,,37,64
267720,note_on,,,,,30,0,2,,,0,,,37,42
267720,note_off,,,,,120,0,1,,,0,,,65,64
267720,note_on,,,,,0,0,1,,,0,,,64,34
267760,set_tempo,,,,,140,1,0,618557,,,,,,
267810,note_off,,,,,90,0,1,,,0,,,64,64
267810,note_off,,,,,0,0,1,,,0,,,60,64
267810,note_off,,,,,90,0,2,,,0,,,37,64
267840,note_on,,,,,0,0,1,,,0,,,61,42
267840,note_off,,,,,30,0,2,,,0,,,45,64
267840,note_on,,,,,0,0,2,,,0,,,44,39
267840,note_on,,,,,0,0,2,,,0,,,37,39
267840,note_on,,,,,30,0,1,,,0,,,65,42
267860,set_tempo,,,,,100,1,0,689655,,,,,,
267920,note_on,,,,,0,0,2,,,0,,,43,45
267920,note_off,,,,,80,0,2,,,0,,,44,64
267980,set_tempo,,,,,120,1,0,631579,,,,,,
268000,note_on,,,,,0,0,2,,,0,,,44,50
268000,note_off,,,,,80,0,2,,,0,,,43,64
268080,note_off,,,,,80,0,2,,,0,,,44,64
268080,note_on,,,,,0,0,2,,,0,,,45,56
268140,set_tempo,,,,,160,1,0,618557,,,,,,
268160,note_off,,,,,80,0,2,,,0,,,45,64
268160,note_on,,,,,0,0,2,,,0,,,44,46
268240,note_off,,,,,80,0,2,,,0,,,44,64
268240,note_on,,,,,0,0,2,,,0,,,43,40
268260,set_tempo,,,,,120,1,0,600000,,,,,,
268320,note_off,,,,,80,0,2,,,0,,,43,64
268320,note_on,,,,,0,0,2,,,0,,,44,47
268400,note_on,,,,,0,0,2,,,0,,,41,40
268400,note_off,,,,,80,0,2,,,0,,,44,64
268480,note_on,,,,,0,0,2,,,0,,,40,34
268480,set_tempo,,,,,220,1,0,618557,,,,,,
268480,note_off,,,,,80,0,2,,,0,,,41,64
268560,note_on,,,,,0,0,2,,,0,,,41,39
268560,note_off,,,,,80,0,2,,,0,,,40,64
268560,note_off,,,,,0,0,2,,,0,,,37,64
268620,set_tempo,,,,,140,1,0,645161,,,,,,
268640,note_on,,,,,0,0,2,,,0,,,37,37
268640,note_off,,,,,80,0,2,,,0,,,41,64
268720,note_on,,,,,0,0,2,,,0,,,38,39
268720,note_off,,,,,80,0,2,,,0,,,37,64
268720,set_tempo,,,,,100,1,0,666667,,,,,,
268800,note_off,,,,,960,0,1,,,0,,,61,64
268800,note_off,,,,,0,0,1,,,0,,,65,64
268800,note_on,,,,,0,0,1,,,0,,,61,46
268800,note_on,,,,,0,0,1,,,0,,,56,46
268800,note_on,,,,,0,0,1,,,0,,,53,46
268800,note_off,,,,,80,0,2,,,0,,,38,64
268800,note_on,,,,,0,0,2,,,0,,,37,40
268820,set_tempo,,,,,100,1,0,545455,,,,,,
268920,note_off,,,,,120,0,2,,,0,,,37,64
268920,note_on,,,,,0,0,2,,,0,,,37,38
268940,set_tempo,,,,,120,1,0,526316,,,,,,
269010,note_off,,,,,90,0,2,,,0,,,37,64
269040,note_on,,,,,30,0,2,,,0,,,37,34
269040,set_tempo,,,,,100,1,0,512821,,,,,,
269130,note_off,,,,,90,0,2,,,0,,,37,64
269160,note_on,,,,,30,0,2,,,0,,,37,31
269250,note_off,,,,,90,0,2,,,0,,,37,64
269260,set_tempo,,,,,220,1,0,495868,,,,,,
269280,note_off,,,,,0,0,1,,,0,,,56,64
269280,note_on,,,,,0,0,1,,,0,,,65,38
269280,note_off,,,,,480,0,1,,,0,,,53,64
269280,note_on,,,,,30,0,2,,,0,,,37,28
269280,note_off,,,,,0,0,1,,,0,,,61,64
269370,note_off,,,,,90,0,2,,,0,,,37,64
269380,set_tempo,,,,,120,1,0,526316,,,,,,
269400,note_on,,,,,30,0,2,,,0,,,37,31
269400,note_off,,,,,120,0,1,,,0,,,65,64
269490,note_off,,,,,90,0,2,,,0,,,37,64
269520,set_tempo,,,,,140,1,0,535714,,,,,,
269520,note_on,,,,,30,0,2,,,0,,,37,33
269520,note_on,,,,,120,0,1,,,0,,,68,34
269610,note_off,,,,,90,0,2,,,0,,,37,64
269640,note_on,,,,,30,0,2,,,0,,,37,38
269640,note_off,,,,,120,0,1,,,0,,,68,64
269680,set_tempo,,,,,160,1,0,606061,,,,,,
269730,note_off,,,,,90,0,2,,,0,,,37,64
269760,note_on,,,,,0,0,1,,,0,,,57,50
269760,note_on,,,,,0,0,1,,,0,,,54,50
269760,note_on,,,,,30,0,2,,,0,,,36,43
269760,note_on,,,,,120,0,1,,,0,,,63,50
269840,set_tempo,,,,,160,1,0,560748,,,,,,
269880,note_on,,,,,0,0,2,,,0,,,36,38
269880,note_off,,,,,120,0,2,,,0,,,36,64
269920,set_tempo,,,,,80,1,0,535714,,,,,,
269970,note_off,,,,,90,0,2,,,0,,,36,64
270000,note_on,,,,,30,0,2,,,0,,,36,35
270090,note_off,,,,,90,0,2,,,0,,,36,64
270120,note_on,,,,,30,0,2,,,0,,,36,40
270160,set_tempo,,,,,240,1,0,517241,,,,,,
270210,note_off,,,,,90,0,2,,,0,,,36,64
270240,note_on,,,,,30,0,2,,,0,,,36,42
270240,note_on,,,,,0,0,1,,,0,,,66,49
270240,note_off,,,,,0,0,1,,,0,,,63,64
270240,note_off,,,,,0,0,1,,,0,,,57,64
270240,note_off,,,,,480,0,1,,,0,,,54,64
270330,note_off,,,,,90,0,2,,,0,,,36,64
270360,note_off,,,,,120,0,1,,,0,,,66,64
270360,note_on,,,,,30,0,2,,,0,,,36,47
270360,set_tempo,,,,,200,1,0,540541,,,,,,
270450,note_off,,,,,90,0,2,,,0,,,36,64
270480,set_tempo,,,,,120,1,0,566038,,,,,,
270480,note_on,,,,,30,0,2,,,0,,,36,52
270480,note_on,,,,,120,0,1,,,0,,,69,53
270570,note_off,,,,,90,0,2,,,0,,,36,64
270580,set_tempo,,,,,100,1,0,606061,,,,,,
270600,note_off,,,,,120,0,1,,,0,,,69,64
270600,note_on,,,,,30,0,2,,,0,,,36,57
270640,set_tempo,,,,,60,1,0,631579,,,,,,
270690,note_off,,,,,90,0,2,,,0,,,36,64
270700,set_tempo,,,,,60,1,0,714286,,,,,,
270720,note_on,,,,,120,0,1,,,0,,,69,56
270720,note_on,,,,,30,0,2,,,0,,,35,66
270840,note_off,,,,,120,0,1,,,0,,,69,64
270840,note_on,,,,,0,0,1,,,0,,,68,40
270840,set_tempo,,,,,140,1,0,618557,,,,,,
270840,note_off,,,,,120,0,2,,,0,,,35,64
270840,note_on,,,,,0,0,2,,,0,,,35,62
270900,set_tempo,,,,,60,1,0,540541,,,,,,
270930,note_off,,,,,90,0,1,,,0,,,68,64
270930,note_off,,,,,90,0,2,,,0,,,35,64
270960,note_on,,,,,30,0,2,,,0,,,35,57
270960,note_on,,,,,0,0,2,,,0,,,42,57
270960,note_on,,,,,0,0,1,,,0,,,63,54
270960,note_on,,,,,30,0,1,,,0,,,71,54
271000,set_tempo,,,,,100,1,0,526316,,,,,,
271050,note_off,,,,,90,0,2,,,0,,,35,64
271080,note_off,,,,,120,0,1,,,0,,,71,64
271080,note_on,,,,,30,0,2,,,0,,,35,46
271080,note_on,,,,,0,0,1,,,0,,,69,46
271080,set_tempo,,,,,80,1,0,550459,,,,,,
271170,note_off,,,,,90,0,1,,,0,,,69,64
271170,note_off,,,,,0,0,1,,,0,,,63,64
271170,note_off,,,,,90,0,2,,,0,,,35,64
271200,note_on,,,,,0,0,1,,,0,,,63,57
271200,note_on,,,,,0,0,2,,,0,,,47,43
271200,note_on,,,,,0,0,2,,,0,,,35,43
271200,note_off,,,,,30,0,2,,,0,,,42,64
271200,note_on,,,,,30,0,1,,,0,,,69,57
271290,note_off,,,,,90,0,2,,,0,,,35,64
271300,set_tempo,,,,,220,1,0,582524,,,,,,
271320,note_off,,,,,120,0,1,,,0,,,69,64
271320,note_on,,,,,30,0,2,,,0,,,35,44
271320,note_on,,,,,0,0,1,,,0,,,68,47
271410,note_off,,,,,90,0,1,,,0,,,68,64
271410,note_off,,,,,0,0,1,,,0,,,63,64
271410,note_off,,,,,90,0,2,,,0,,,35,64
271440,note_on,,,,,30,0,1,,,0,,,68,52
271440,note_off,,,,,30,0,2,,,0,,,47,64
271440,note_on,,,,,0,0,1,,,0,,,63,52
271440,note_on,,,,,0,0,2,,,0,,,48,49
271440,note_on,,,,,0,0,2,,,0,,,35,49
271530,note_off,,,,,90,0,2,,,0,,,35,64
271560,note_off,,,,,120,0,1,,,0,,,68,64
271560,note_on,,,,,0,0,1,,,0,,,67,41
271560,note_on,,,,,30,0,2,,,0,,,35,53
271600,set_tempo,,,,,300,1,0,612245,,,,,,
271650,note_off,,,,,90,0,1,,,0,,,67,64
271650,note_off,,,,,0,0,1,,,0,,,63,64
271650,note_off,,,,,90,0,2,,,0,,,35,64
271680,note_on,,,,,30,0,1,,,0,,,68,45
271680,note_on,,,,,0,0,2,,,0,,,47,57
271680,set_tempo,,,,,80,1,0,666667,,,,,,
271680,note_off,,,,,30,0,2,,,0,,,48,64
271680,note_on,,,,,0,0,2,,,0,,,40,57
271680,note_on,,,,,0,0,1,,,0,,,64,45
271760,note_on,,,,,0,0,2,,,0,,,46,40
271760,note_off,,,,,80,0,2,,,0,,,47,64
271760,set_tempo,,,,,80,1,0,631579,,,,,,
271840,note_off,,,,,80,0,2,,,0,,,46,64
271840,note_on,,,,,0,0,2,,,0,,,47,44
271920,note_off,,,,,80,0,2,,,0,,,47,64
271920,note_on,,,,,0,0,2,,,0,,,48,48
271920,set_tempo,,,,,160,1,0,612245,,,,,,
272000,note_off,,,,,80,0,2,,,0,,,48,64
272000,note_on,,,,,0,0,2,,,0,,,47,49
272080,note_off,,,,,80,0,2,,,0,,,47,64
272080,note_on,,,,,0,0,2,,,0,,,46,46
272100,set_tempo,,,,,180,1,0,600000,,,,,,
272160,note_on,,,,,0,0,2,,,0,,,47,45
272160,note_off,,,,,80,0,2,,,0,,,46,64
272240,note_off,,,,,80,0,2,,,0,,,47,64
272240,note_on,,,,,0,0,2,,,0,,,44,42
272240,set_tempo,,,,,140,1,0,618557,,,,,,
272320,note_off,,,,,80,0,2,,,0,,,44,64
272320,note_on,,,,,0,0,2,,,0,,,43,38
272400,note_off,,,,,80,0,2,,,0,,,43,64
272400,note_off,,,,,0,0,2,,,0,,,40,64
272400,note_on,,,,,0,0,2,,,0,,,44,38
272400,set_tempo,,,,,160,1,0,645161,,,,,,
272480,note_on,,,,,0,0,2,,,0,,,40,30
272480,note_off,,,,,80,0,2,,,0,,,44,64
272560,set_tempo,,,,,160,1,0,810811,,,,,,
272560,note_off,,,,,80,0,2,,,0,,,40,64
272560,note_on,,,,,0,0,2,,,0,,,41,37
272640,note_off,,,,,80,0,2,,,0,,,41,64
272640,note_on,,,,,0,0,2,,,0,,,40,42
272640,note_off,,,,,960,0,1,,,0,,,64,64
272640,note_off,,,,,0,0,1,,,0,,,68,64
272640,note_on,,,,,0,0,1,,,0,,,64,50
272720,set_tempo,,,,,160,1,0,714286,,,,,,
272760,note_off,,,,,120,0,1,,,0,,,64,64
272760,note_on,,,,,0,0,1,,,0,,,64,45
272800,set_tempo,,,,,80,1,0,625000,,,,,,
272850,note_off,,,,,90,0,1,,,0,,,64,64
272880,note_on,,,,,30,0,1,,,0,,,64,42
272940,set_tempo,,,,,140,1,0,588235,,,,,,
272970,note_off,,,,,90,0,1,,,0,,,64,64
273000,note_on,,,,,30,0,1,,,0,,,64,34
273090,note_off,,,,,90,0,1,,,0,,,64,64
273100,set_tempo,,,,,160,1,0,545455,,,,,,
273120,note_on,,,,,0,0,2,,,0,,,44,51
273120,note_off,,,,,480,0,2,,,0,,,40,64
273120,note_on,,,,,30,0,1,,,0,,,64,35
273210,note_off,,,,,90,0,1,,,0,,,64,64
273240,note_on,,,,,30,0,1,,,0,,,64,29
273240,note_off,,,,,120,0,2,,,0,,,44,64
273260,set_tempo,,,,,160,1,0,550459,,,,,,
273280,set_tempo,,,,,20,1,0,560748,,,,,,
273330,note_off,,,,,90,0,1,,,0,,,64,64
273360,note_on,,,,,30,0,1,,,0,,,64,42
273360,note_on,,,,,120,0,2,,,0,,,47,38
273420,set_tempo,,,,,140,1,0,566038,,,,,,
273450,note_off,,,,,90,0,1,,,0,,,64,64
273480,note_on,,,,,30,0,1,,,0,,,64,48
273480,note_off,,,,,120,0,2,,,0,,,47,64
273520,set_tempo,,,,,100,1,0,612245,,,,,,
273560,set_tempo,,,,,40,1,0,659341,,,,,,
273570,note_off,,,,,90,0,1,,,0,,,64,64
273600,note_on,,,,,120,0,2,,,0,,,40,65
273600,note_on,,,,,0,0,1,,,0,,,64,50
273600,note_on,,,,,30,0,1,,,0,,,65,50
273620,set_tempo,,,,,60,1,0,705882,,,,,,
273700,set_tempo,,,,,80,1,0,612245,,,,,,
273720,note_off,,,,,0,0,1,,,0,,,65,64
273720,note_on,,,,,0,0,1,,,0,,,65,45
273720,note_on,,,,,0,0,1,,,0,,,64,45
273720,note_off,,,,,120,0,1,,,0,,,64,64
273810,note_off,,,,,90,0,1,,,0,,,64,64
273810,note_off,,,,,0,0,1,,,0,,,65,64
273840,note_on,,,,,0,0,1,,,0,,,64,42
273840,note_on,,,,,30,0,1,,,0,,,65,42
273840,set_tempo,,,,,140,1,0,571429,,,,,,
273930,note_off,,,,,0,0,1,,,0,,,65,64
273930,note_off,,,,,90,0,1,,,0,,,64,64
273960,note_on,,,,,30,0,1,,,0,,,65,34
273960,note_on,,,,,0,0,1,,,0,,,64,34
274050,note_off,,,,,0,0,1,,,0,,,65,64
274050,note_off,,,,,90,0,1,,,0,,,64,64
274080,note_on,,,,,30,0,1,,,0,,,65,35
274080,note_off,,,,,480,0,2,,,0,,,40,64
274080,note_on,,,,,0,0,1,,,0,,,64,35
274080,note_on,,,,,0,0,2,,,0,,,45,51
274170,note_off,,,,,90,0,1,,,0,,,64,64
274170,note_off,,,,,0,0,1,,,0,,,65,64
274200,note_on,,,,,30,0,1,,,0,,,65,29
274200,note_on,,,,,0,0,1,,,0,,,64,29
274200,note_off,,,,,120,0,2,,,0,,,45,64
274290,note_off,,,,,90,0,1,,,0,,,64,64
274290,note_off,,,,,0,0,1,,,0,,,65,64
274320,note_on,,,,,30,0,1,,,0,,,65,42
274320,note_on,,,,,0,0,1,,,0,,,64,42
274320,note_on,,,,,120,0,2,,,0,,,48,38
274410,note_off,,,,,90,0,1,,,0,,,64,64
274410,note_off,,,,,0,0,1,,,0,,,65,64
274440,note_off,,,,,120,0,2,,,0,,,48,64
274440,note_on,,,,,30,0,1,,,0,,,65,48
274440,note_on,,,,,0,0,1,,,0,,,64,48
274460,set_tempo,,,,,620,1,0,576923,,,,,,
274500,set_tempo,,,,,40,1,0,582524,,,,,,
274530,note_off,,,,,90,0,1,,,0,,,64,64
274530,note_off,,,,,0,0,1,,,0,,,65,64
274540,set_tempo,,,,,40,1,0,618557,,,,,,
274560,note_on,,,,,0,0,1,,,0,,,64,50
274560,set_tempo,,,,,20,1,0,769231,,,,,,
274560,note_on,,,,,30,0,1,,,0,,,65,50
274560,note_on,,,,,120,0,2,,,0,,,50,42
274620,set_tempo,,,,,60,1,0,645161,,,,,,
274660,set_tempo,,,,,40,1,0,618557,,,,,,
274680,note_on,,,,,0,0,1,,,0,,,64,45
274680,note_on,,,,,0,0,1,,,0,,,65,45
274680,note_off,,,,,0,0,1,,,0,,,65,64
274680,note_on,,,,,0,0,2,,,0,,,48,35
274680,note_off,,,,,120,0,2,,,0,,,50,64
274680,note_off,,,,,120,0,1,,,0,,,64,64
274770,note_off,,,,,90,0,2,,,0,,,48,64
274770,note_off,,,,,90,0,1,,,0,,,64,64
274770,note_off,,,,,0,0,1,,,0,,,65,64
274800,note_on,,,,,30,0,2,,,0,,,48,41
274800,note_on,,,,,0,0,1,,,0,,,64,51
274800,note_on,,,,,30,0,1,,,0,,,65,51
274890,note_off,,,,,0,0,1,,,0,,,65,64
274890,note_off,,,,,90,0,1,,,0,,,64,64
274920,note_on,,,,,0,0,2,,,0,,,47,37
274920,note_on,,,,,30,0,1,,,0,,,65,44
274920,note_on,,,,,0,0,1,,,0,,,64,44
274920,note_off,,,,,120,0,2,,,0,,,48,64
274980,set_tempo,,,,,320,1,0,600000,,,,,,
275010,note_off,,,,,90,0,2,,,0,,,47,64
275010,note_off,,,,,90,0,1,,,0,,,64,64
275010,note_off,,,,,0,0,1,,,0,,,65,64
275040,note_on,,,,,30,0,2,,,0,,,47,45
275040,note_on,,,,,30,0,1,,,0,,,65,59
275040,note_on,,,,,0,0,1,,,0,,,62,59
275060,set_tempo,,,,,80,1,0,582524,,,,,,
275080,set_tempo,,,,,20,1,0,600000,,,,,,
275130,note_off,,,,,0,0,1,,,0,,,65,64
275130,note_off,,,,,90,0,1,,,0,,,62,64
275160,note_off,,,,,120,0,2,,,0,,,47,64
275160,note_on,,,,,0,0,2,,,0,,,45,32
275160,note_on,,,,,30,0,1,,,0,,,65,52
275160,note_on,,,,,0,0,1,,,0,,,62,52
275250,note_off,,,,,90,0,1,,,0,,,62,64
275250,note_off,,,,,90,0,2,,,0,,,45,64
275250,note_off,,,,,0,0,1,,,0,,,65,64
275280,note_on,,,,,30,0,2,,,0,,,45,51
275280,note_on,,,,,0,0,1,,,0,,,60,68
275280,note_on,,,,,0,0,1,,,0,,,62,68
275280,note_on,,,,,30,0,1,,,0,,,66,68
275300,set_tempo,,,,,220,1,0,588235,,,,,,
275340,set_tempo,,,,,40,1,0,560748,,,,,,
275370,note_off,,,,,0,0,1,,,0,,,66,64
275370,note_off,,,,,0,0,1,,,0,,,62,64
275370,note_off,,,,,90,0,1,,,0,,,60,64
275400,note_on,,,,,0,0,1,,,0,,,60,59
275400,note_on,,,,,30,0,1,,,0,,,66,59
275400,note_on,,,,,0,0,1,,,0,,,62,59
275400,note_off,,,,,120,0,2,,,0,,,45,64
275400,note_on,,,,,0,0,2,,,0,,,43,42
275490,note_off,,,,,0,0,1,,,0,,,62,64
275490,note_off,,,,,0,0,1,,,0,,,66,64
275490,note_off,,,,,90,0,1,,,0,,,60,64
275490,note_off,,,,,90,0,2,,,0,,,43,64
275520,note_on,,,,,30,0,2,,,0,,,43,56
275520,note_on,,,,,30,0,1,,,0,,,67,76
275520,note_on,,,,,0,0,1,,,0,,,62,76
275520,note_on,,,,,0,0,1,,,0,,,59,76
275640,note_off,,,,,0,0,1,,,0,,,62,64
275640,note_off,,,,,0,0,1,,,0,,,67,64
275640,note_off,,,,,120,0,1,,,0,,,59,64
275640,note_on,,,,,0,0,1,,,0,,,67,63
275640,note_on,,,,,0,0,1,,,0,,,62,63
275640,note_on,,,,,0,0,1,,,0,,,59,63
275640,note_off,,,,,120,0,2,,,0,,,43,64
275640,note_on,,,,,0,0,2,,,0,,,41,48
275730,note_off,,,,,90,0,1,,,0,,,59,64
275730,note_off,,,,,0,0,1,,,0,,,62,64
275730,note_off,,,,,90,0,2,,,0,,,41,64
275730,note_off,,,,,0,0,1,,,0,,,67,64
275760,note_on,,,,,30,0,1,,,0,,,67,68
275760,note_on,,,,,0,0,1,,,0,,,62,68
275760,note_on,,,,,0,0,1,,,0,,,59,68
275760,note_on,,,,,30,0,2,,,0,,,41,63
275820,set_tempo,,,,,480,1,0,576923,,,,,,
275840,set_tempo,,,,,20,1,0,600000,,,,,,
275850,note_off,,,,,0,0,1,,,0,,,67,64
275850,note_off,,,,,90,0,1,,,0,,,59,64
275850,note_off,,,,,0,0,1,,,0,,,62,64
275880,note_on,,,,,0,0,1,,,0,,,59,56
275880,note_on,,,,,30,0,1,,,0,,,67,56
275880,note_on,,,,,0,0,2,,,0,,,40,56
275880,note_off,,,,,120,0,2,,,0,,,41,64
275880,note_on,,,,,0,0,1,,,0,,,62,56
275970,note_off,,,,,90,0,2,,,0,,,40,64
275970,note_off,,,,,90,0,1,,,0,,,59,64
275970,note_off,,,,,0,0,1,,,0,,,67,64
275970,note_off,,,,,0,0,1,,,0,,,62,64
276000,note_on,,,,,30,0,2,,,0,,,40,53
276000,note_on,,,,,0,0,1,,,0,,,60,52
276000,note_on,,,,,0,0,1,,,0,,,64,52
276000,note_on,,,,,30,0,1,,,0,,,67,52
276090,note_off,,,,,0,0,1,,,0,,,67,64
276090,note_off,,,,,90,0,1,,,0,,,60,64
276090,note_off,,,,,0,0,1,,,0,,,64,64
276120,note_on,,,,,0,0,1,,,0,,,64,40
276120,note_on,,,,,0,0,1,,,0,,,60,40
276120,note_on,,,,,30,0,1,,,0,,,67,40
276120,note_on,,,,,0,0,2,,,0,,,38,45
276120,note_off,,,,,120,0,2,,,0,,,40,64
276160,set_tempo,,,,,320,1,0,618557,,,,,,
276210,note_off,,,,,90,0,1,,,0,,,60,64
276210,note_off,,,,,0,0,1,,,0,,,64,64
276210,note_off,,,,,0,0,1,,,0,,,67,64
276210,note_off,,,,,90,0,2,,,0,,,38,64
276240,note_on,,,,,30,0,2,,,0,,,38,48
276240,note_on,,,,,30,0,1,,,0,,,67,46
276240,note_on,,,,,0,0,1,,,0,,,65,46
276240,note_on,,,,,0,0,1,,,0,,,59,46
276280,set_tempo,,,,,120,1,0,652174,,,,,,
276330,note_off,,,,,0,0,1,,,0,,,65,64
276330,note_off,,,,,0,0,1,,,0,,,67,64
276330,note_off,,,,,90,0,1,,,0,,,59,64
276360,note_on,,,,,0,0,1,,,0,,,65,33
276360,note_on,,,,,30,0,1,,,0,,,67,33
276360,note_on,,,,,0,0,1,,,0,,,59,33
276360,note_off,,,,,120,0,2,,,0,,,38,64
276360,note_on,,,,,0,0,2,,,0,,,36,37
276380,set_tempo,,,,,100,1,0,731707,,,,,,
276450,note_off,,,,,0,0,1,,,0,,,65,64
276450,note_off,,,,,90,0,1,,,0,,,59,64
276450,note_off,,,,,0,0,1,,,0,,,67,64
276450,note_off,,,,,90,0,2,,,0,,,36,64
276480,note_on,,,,,0,0,2,,,0,,,48,67
276480,note_on,,,,,0,0,1,,,0,,,64,51
276480,note_on,,,,,0,0,1,,,0,,,60,51
276480,note_on,,,,,0,0,2,,,0,,,36,67
276480,note_on,,,,,30,0,1,,,0,,,67,51
276480,control_change,,,,,30,0,2,,,0,64,127,,
276500,set_tempo,,,,,120,1,0,810811,,,,,,
276580,set_tempo,,,,,80,1,0,722892,,,,,,
276600,note_off,,,,,120,0,1,,,0,,,60,64
276600,note_off,,,,,0,0,1,,,0,,,64,64
276600,note_off,,,,,0,0,1,,,0,,,67,64
276600,note_on,,,,,0,0,1,,,0,,,72,40
276660,set_tempo,,,,,80,1,0,618557,,,,,,
276690,note_off,,,,,90,0,1,,,0,,,72,64
276720,note_on,,,,,30,0,1,,,0,,,72,40
276740,set_tempo,,,,,80,1,0,582524,,,,,,
276780,set_tempo,,,,,40,1,0,576923,,,,,,
276810,note_off,,,,,90,0,1,,,0,,,72,64
276840,note_on,,,,,30,0,1,,,0,,,72,48
276920,set_tempo,,,,,140,1,0,550459,,,,,,
276930,note_off,,,,,90,0,1,,,0,,,72,64
276960,note_off,,,,,480,0,2,,,0,,,36,64
276960,note_on,,,,,0,0,2,,,0,,,52,64
276960,control_change,,,,,0,0,2,,,0,64,0,,
276960,note_off,,,,,0,0,2,,,0,,,48,64
276960,note_on,,,,,30,0,1,,,0,,,72,53
277050,note_off,,,,,90,0,1,,,0,,,72,64
277080,note_on,,,,,30,0,1,,,0,,,72,48
277080,note_off,,,,,120,0,2,,,0,,,52,64
277170,note_off,,,,,90,0,1,,,0,,,72,64
277200,note_on,,,,,120,0,2,,,0,,,55,76
277200,note_on,,,,,30,0,1,,,0,,,72,59
277290,note_off,,,,,90,0,1,,,0,,,72,64
277320,note_on,,,,,30,0,1,,,0,,,72,63
277320,note_off,,,,,120,0,2,,,0,,,55,64
277380,set_tempo,,,,,460,1,0,618557,,,,,,
277410,note_off,,,,,90,0,1,,,0,,,72,64
277440,set_tempo,,,,,60,1,0,681818,,,,,,
277440,control_change,,,,,120,0,2,,,0,64,127,,
277440,note_on,,,,,0,0,2,,,0,,,48,84
277440,note_on,,,,,30,0,1,,,0,,,73,70
277440,note_on,,,,,0,0,1,,,0,,,72,70
277460,set_tempo,,,,,20,1,0,705882,,,,,,
277480,set_tempo,,,,,20,1,0,714286,,,,,,
277560,set_tempo,,,,,80,1,0,612245,,,,,,
277560,note_off,,,,,120,0,1,,,0,,,72,64
277560,note_off,,,,,0,0,1,,,0,,,73,64
277560,note_on,,,,,0,0,1,,,0,,,73,57
277560,note_on,,,,,0,0,1,,,0,,,72,57
277650,note_off,,,,,90,0,1,,,0,,,72,64
277650,note_off,,,,,0,0,1,,,0,,,73,64
277660,set_tempo,,,,,100,1,0,560748,,,,,,
277680,note_on,,,,,0,0,1,,,0,,,72,65
277680,note_on,,,,,30,0,1,,,0,,,73,65
277770,note_off,,,,,90,0,1,,,0,,,72,64
277770,note_off,,,,,0,0,1,,,0,,,73,64
277800,note_on,,,,,30,0,1,,,0,,,73,72
277800,note_on,,,,,0,0,1,,,0,,,72,72
277890,note_off,,,,,90,0,1,,,0,,,72,64
277890,note_off,,,,,0,0,1,,,0,,,73,64
277920,control_change,,,,,0,0,2,,,0,64,0,,
277920,note_on,,,,,30,0,1,,,0,,,73,77
277920,note_on,,,,,0,0,1,,,0,,,72,77
277920,note_on,,,,,0,0,2,,,0,,,53,62
277920,note_off,,,,,480,0,2,,,0,,,48,64
278010,note_off,,,,,90,0,1,,,0,,,72,64
278010,note_off,,,,,0,0,1,,,0,,,73,64
278040,note_off,,,,,120,0,2,,,0,,,53,64
278040,note_on,,,,,30,0,1,,,0,,,73,64
278040,note_on,,,,,0,0,1,,,0,,,72,64
278130,note_off,,,,,0,0,1,,,0,,,73,64
278130,note_off,,,,,90,0,1,,,0,,,72,64
278160,note_on,,,,,30,0,1,,,0,,,73,65
278160,note_on,,,,,0,0,1,,,0,,,72,65
278160,note_on,,,,,120,0,2,,,0,,,56,74
278250,note_off,,,,,90,0,1,,,0,,,72,64
278250,note_off,,,,,0,0,1,,,0,,,73,64
278280,note_on,,,,,30,0,1,,,0,,,73,71
278280,note_on,,,,,0,0,1,,,0,,,72,71
278280,note_off,,,,,120,0,2,,,0,,,56,64
278360,set_tempo,,,,,700,1,0,576923,,,,,,
278370,note_off,,,,,0,0,1,,,0,,,73,64
278370,note_off,,,,,90,0,1,,,0,,,72,64
278380,set_tempo,,,,,20,1,0,750000,,,,,,
278400,set_tempo,,,,,20,1,0,779221,,,,,,
278400,note_on,,,,,120,0,2,,,0,,,58,74
278400,note_on,,,,,30,0,1,,,0,,,73,79
278400,note_on,,,,,0,0,1,,,0,,,72,79
278440,set_tempo,,,,,40,1,0,645161,,,,,,
278520,note_on,,,,,0,0,2,,,0,,,56,64
278520,note_on,,,,,0,0,1,,,0,,,73,83
278520,note_on,,,,,0,0,1,,,0,,,72,83
278520,note_off,,,,,120,0,1,,,0,,,72,64
278520,note_off,,,,,120,0,2,,,0,,,58,64
278520,note_off,,,,,0,0,1,,,0,,,73,64
278610,note_off,,,,,90,0,1,,,0,,,72,64
278610,note_off,,,,,90,0,2,,,0,,,56,64
278610,note_off,,,,,0,0,1,,,0,,,73,64
278640,note_on,,,,,30,0,2,,,0,,,56,73
278640,note_on,,,,,30,0,1,,,0,,,73,88
278640,note_on,,,,,0,0,1,,,0,,,72,88
278730,note_off,,,,,90,0,1,,,0,,,72,64
278730,note_off,,,,,0,0,1,,,0,,,73,64
278740,set_tempo,,,,,300,1,0,618557,,,,,,
278760,note_on,,,,,0,0,2,,,0,,,55,66
278760,note_off,,,,,120,0,2,,,0,,,56,64
278760,note_on,,,,,30,0,1,,,0,,,73,82
278760,note_on,,,,,0,0,1,,,0,,,72,82
278780,set_tempo,,,,,40,1,0,612245,,,,,,
278840,set_tempo,,,,,60,1,0,588235,,,,,,
278850,note_off,,,,,90,0,1,,,0,,,72,64
278850,note_off,,,,,0,0,1,,,0,,,73,64
278850,note_off,,,,,90,0,2,,,0,,,55,64
278880,note_on,,,,,30,0,1,,,0,,,73,94
278880,note_on,,,,,30,0,2,,,0,,,55,80
278880,note_on,,,,,0,0,1,,,0,,,70,94
278880,set_tempo,,,,,40,1,0,582524,,,,,,
278970,note_off,,,,,90,0,1,,,0,,,70,64
278970,note_off,,,,,0,0,1,,,0,,,73,64
279000,note_off,,,,,120,0,2,,,0,,,55,64
279000,note_on,,,,,30,0,1,,,0,,,73,89
279000,note_on,,,,,0,0,1,,,0,,,70,89
279000,note_on,,,,,0,0,2,,,0,,,53,70
279020,set_tempo,,,,,140,1,0,571429,,,,,,
279060,set_tempo,,,,,40,1,0,566038,,,,,,
279090,note_off,,,,,90,0,2,,,0,,,53,64
279090,note_off,,,,,90,0,1,,,0,,,70,64
279090,note_off,,,,,0,0,1,,,0,,,73,64
279120,note_on,,,,,30,0,1,,,0,,,74,101
279120,note_on,,,,,0,0,1,,,0,,,70,101
279120,note_on,,,,,0,0,1,,,0,,,68,101
279120,note_on,,,,,30,0,2,,,0,,,53,81
279210,note_off,,,,,0,0,1,,,0,,,74,64
279210,note_off,,,,,90,0,1,,,0,,,68,64
279210,note_off,,,,,0,0,1,,,0,,,70,64
279240,note_on,,,,,0,0,2,,,0,,,51,76
279240,note_off,,,,,120,0,2,,,0,,,53,64
279240,note_on,,,,,30,0,1,,,0,,,74,94
279240,note_on,,,,,0,0,1,,,0,,,68,94
279240,note_on,,,,,0,0,1,,,0,,,70,94
279300,set_tempo,,,,,240,1,0,550459,,,,,,
279330,note_off,,,,,90,0,2,,,0,,,51,64
279330,note_off,,,,,0,0,1,,,0,,,74,64
279330,note_off,,,,,0,0,1,,,0,,,70,64
279330,note_off,,,,,90,0,1,,,0,,,68,64
279360,note_on,,,,,30,0,2,,,0,,,51,88
279360,note_on,,,,,30,0,1,,,0,,,75,108
279360,note_on,,,,,0,0,1,,,0,,,70,108
279360,note_on,,,,,0,0,1,,,0,,,67,108
279480,note_off,,,,,120,0,1,,,0,,,67,64
279480,note_on,,,,,0,0,1,,,0,,,70,97
279480,note_on,,,,,0,0,1,,,0,,,67,97
279480,note_off,,,,,120,0,2,,,0,,,51,64
279480,note_on,,,,,0,0,1,,,0,,,75,97
279480,note_on,,,,,0,0,2,,,0,,,49,79
279480,note_off,,,,,0,0,1,,,0,,,75,64
279480,note_off,,,,,0,0,1,,,0,,,70,64
279520,set_tempo,,,,,220,1,0,588235,,,,,,
279570,note_off,,,,,0,0,1,,,0,,,75,64
279570,note_off,,,,,0,0,1,,,0,,,70,64
279570,note_off,,,,,90,0,1,,,0,,,67,64
279570,note_off,,,,,90,0,2,,,0,,,49,64
279600,note_on,,,,,30,0,2,,,0,,,49,84
279600,note_on,,,,,0,0,1,,,0,,,68,101
279600,note_on,,,,,0,0,1,,,0,,,71,101
279600,note_on,,,,,30,0,1,,,0,,,75,101
279690,note_off,,,,,0,0,1,,,0,,,75,64
279690,note_off,,,,,0,0,1,,,0,,,71,64
279690,note_off,,,,,90,0,1,,,0,,,68,64
279720,note_off,,,,,120,0,2,,,0,,,49,64
279720,note_on,,,,,0,0,2,,,0,,,47,78
279720,note_on,,,,,0,0,1,,,0,,,68,92
279720,note_on,,,,,30,0,1,,,0,,,75,92
279720,note_on,,,,,0,0,1,,,0,,,71,92
279810,note_off,,,,,0,0,1,,,0,,,75,64
279810,note_off,,,,,90,0,2,,,0,,,47,64
279810,note_off,,,,,0,0,1,,,0,,,71,64
279810,note_off,,,,,90,0,1,,,0,,,68,64
279840,note_on,,,,,0,0,1,,,0,,,67,89
279840,note_on,,,,,0,0,1,,,0,,,73,89
279840,note_on,,,,,30,0,1,,,0,,,75,89
279840,note_on,,,,,30,0,2,,,0,,,47,73
279900,set_tempo,,,,,380,1,0,618557,,,,,,
279930,note_off,,,,,0,0,1,,,0,,,73,64
279930,note_off,,,,,0,0,1,,,0,,,75,64
279930,note_off,,,,,90,0,1,,,0,,,67,64
279960,note_on,,,,,0,0,1,,,0,,,73,79
279960,note_on,,,,,30,0,1,,,0,,,75,79
279960,note_off,,,,,120,0,2,,,0,,,47,64
279960,note_on,,,,,0,0,2,,,0,,,46,69
279960,note_on,,,,,0,0,1,,,0,,,67,79
280050,note_off,,,,,0,0,1,,,0,,,73,64
280050,note_off,,,,,0,0,1,,,0,,,75,64
280050,note_off,,,,,90,0,1,,,0,,,67,64
280050,note_off,,,,,90,0,2,,,0,,,46,64
280080,note_on,,,,,30,0,1,,,0,,,75,84
280080,note_on,,,,,0,0,1,,,0,,,71,84
280080,note_on,,,,,0,0,1,,,0,,,68,84
280080,note_on,,,,,30,0,2,,,0,,,44,74
280120,set_tempo,,,,,220,1,0,681818,,,,,,
280170,note_off,,,,,0,0,1,,,0,,,71,64
280170,note_off,,,,,90,0,1,,,0,,,68,64
280170,note_off,,,,,90,0,2,,,0,,,44,64
280170,note_off,,,,,0,0,1,,,0,,,75,64
280200,note_on,,,,,30,0,1,,,0,,,75,74
280200,note_on,,,,,30,0,2,,,0,,,59,55
280280,set_tempo,,,,,160,1,0,689655,,,,,,
280290,note_off,,,,,90,0,2,,,0,,,59,64
280290,note_off,,,,,90,0,1,,,0,,,75,64
280300,set_tempo,,,,,20,1,0,750000,,,,,,
280320,note_on,,,,,30,0,2,,,0,,,61,83
280320,note_on,,,,,30,0,1,,,0,,,76,85
280320,note_on,,,,,0,0,1,,,0,,,75,85
280380,set_tempo,,,,,80,1,0,631579,,,,,,
280400,note_on,,,,,80,0,1,,,0,,,64,77
280440,note_off,,,,,120,0,2,,,0,,,61,64
280440,note_on,,,,,0,0,2,,,0,,,59,72
280440,note_off,,,,,0,0,1,,,0,,,76,64
280440,note_off,,,,,40,0,1,,,0,,,75,64
280460,note_off,,,,,20,0,1,,,0,,,64,64
280480,note_on,,,,,20,0,1,,,0,,,76,71
280480,note_on,,,,,0,0,1,,,0,,,75,71
280530,note_off,,,,,90,0,2,,,0,,,59,64
280560,note_on,,,,,30,0,2,,,0,,,59,82
280560,note_on,,,,,80,0,1,,,0,,,76,84
280560,note_on,,,,,0,0,1,,,0,,,75,84
280570,note_off,,,,,10,0,1,,,0,,,75,64
280570,note_off,,,,,0,0,1,,,0,,,76,64
280640,note_on,,,,,70,0,1,,,0,,,64,75
280650,note_off,,,,,0,0,1,,,0,,,76,64
280650,note_off,,,,,10,0,1,,,0,,,75,64
280660,set_tempo,,,,,280,1,0,600000,,,,,,
280680,note_off,,,,,120,0,2,,,0,,,59,64
280680,note_on,,,,,0,0,2,,,0,,,58,74
280700,note_off,,,,,50,0,1,,,0,,,64,64
280720,note_on,,,,,20,0,1,,,0,,,76,73
280720,set_tempo,,,,,60,1,0,588235,,,,,,
280720,note_on,,,,,0,0,1,,,0,,,75,73
280740,set_tempo,,,,,20,1,0,582524,,,,,,
280770,note_off,,,,,90,0,2,,,0,,,58,64
280800,note_on,,,,,30,0,2,,,0,,,58,90
280800,note_on,,,,,80,0,1,,,0,,,76,84
280800,note_on,,,,,0,0,1,,,0,,,73,84
280810,note_off,,,,,10,0,1,,,0,,,75,64
280810,note_off,,,,,0,0,1,,,0,,,76,64
280880,note_on,,,,,70,0,1,,,0,,,64,74
280890,note_off,,,,,10,0,1,,,0,,,73,64
280890,note_off,,,,,0,0,1,,,0,,,76,64
280920,note_on,,,,,0,0,2,,,0,,,56,79
280920,note_off,,,,,120,0,2,,,0,,,58,64
280940,note_off,,,,,50,0,1,,,0,,,64,64
280960,note_on,,,,,0,0,1,,,0,,,73,81
280960,note_on,,,,,20,0,1,,,0,,,76,81
280980,set_tempo,,,,,240,1,0,571429,,,,,,
281010,note_off,,,,,90,0,2,,,0,,,56,64
281040,note_on,,,,,0,0,1,,,0,,,71,97
281040,note_on,,,,,0,0,1,,,0,,,73,97
281040,note_on,,,,,30,0,2,,,0,,,56,91
281040,note_on,,,,,80,0,1,,,0,,,77,97
281050,note_off,,,,,10,0,1,,,0,,,73,64
281050,note_off,,,,,0,0,1,,,0,,,76,64
281120,note_on,,,,,70,0,1,,,0,,,65,85
281130,note_off,,,,,10,0,1,,,0,,,71,64
281130,note_off,,,,,0,0,1,,,0,,,73,64
281130,note_off,,,,,0,0,1,,,0,,,77,64
281160,note_on,,,,,0,0,2,,,0,,,54,86
281160,note_off,,,,,120,0,2,,,0,,,56,64
281180,note_off,,,,,50,0,1,,,0,,,65,64
281200,note_on,,,,,0,0,1,,,0,,,73,89
281200,note_on,,,,,0,0,1,,,0,,,71,89
281200,note_on,,,,,20,0,1,,,0,,,77,89
281240,set_tempo,,,,,260,1,0,550459,,,,,,
281250,note_off,,,,,90,0,2,,,0,,,54,64
281280,note_on,,,,,80,0,1,,,0,,,78,108
281280,note_on,,,,,0,0,1,,,0,,,73,108
281280,set_tempo,,,,,40,1,0,560748,,,,,,
281280,note_on,,,,,0,0,1,,,0,,,70,108
281280,note_on,,,,,30,0,2,,,0,,,54,99
281290,note_off,,,,,10,0,1,,,0,,,71,64
281290,note_off,,,,,0,0,1,,,0,,,77,64
281290,note_off,,,,,0,0,1,,,0,,,73,64
281360,note_on,,,,,70,0,1,,,0,,,66,97
281360,set_tempo,,,,,80,1,0,566038,,,,,,
281400,note_off,,,,,120,0,2,,,0,,,54,64
281400,note_off,,,,,0,0,1,,,0,,,78,64
281400,note_off,,,,,0,0,1,,,0,,,73,64
281400,note_on,,,,,0,0,2,,,0,,,52,89
281400,note_off,,,,,40,0,1,,,0,,,70,64
281420,note_off,,,,,20,0,1,,,0,,,66,64
281440,note_on,,,,,0,0,1,,,0,,,70,96
281440,note_on,,,,,20,0,1,,,0,,,78,96
281440,note_on,,,,,0,0,1,,,0,,,73,96
281440,set_tempo,,,,,80,1,0,582524,,,,,,
281490,note_off,,,,,90,0,2,,,0,,,52,64
281520,note_on,,,,,80,0,1,,,0,,,78,98
281520,note_on,,,,,0,0,1,,,0,,,71,98
281520,note_on,,,,,30,0,2,,,0,,,52,95
281520,note_on,,,,,0,0,1,,,0,,,74,98
281530,note_off,,,,,0,0,1,,,0,,,78,64
281530,note_off,,,,,0,0,1,,,0,,,73,64
281530,note_off,,,,,10,0,1,,,0,,,70,64
281600,note_on,,,,,70,0,1,,,0,,,66,86
281610,note_off,,,,,0,0,1,,,0,,,78,64
281610,note_off,,,,,0,0,1,,,0,,,74,64
281610,note_off,,,,,10,0,1,,,0,,,71,64
281640,note_off,,,,,120,0,2,,,0,,,52,64
281640,note_on,,,,,0,0,2,,,0,,,50,88
281660,note_off,,,,,50,0,1,,,0,,,66,64
281680,note_on,,,,,0,0,1,,,0,,,74,84
281680,note_on,,,,,20,0,1,,,0,,,78,84
281680,note_on,,,,,0,0,1,,,0,,,71,84
281730,note_off,,,,,90,0,2,,,0,,,50,64
281760,note_on,,,,,0,0,1,,,0,,,70,87
281760,note_on,,,,,30,0,2,,,0,,,50,82
281760,note_on,,,,,80,0,1,,,0,,,78,87
281760,note_on,,,,,0,0,1,,,0,,,76,87
281770,note_off,,,,,10,0,1,,,0,,,71,64
281770,note_off,,,,,0,0,1,,,0,,,78,64
281770,note_off,,,,,0,0,1,,,0,,,74,64
281840,note_on,,,,,70,0,1,,,0,,,66,76
281850,note_off,,,,,10,0,1,,,0,,,70,64
281850,note_off,,,,,0,0,1,,,0,,,76,64
281850,note_off,,,,,0,0,1,,,0,,,78,64
281880,note_off,,,,,120,0,2,,,0,,,50,64
281880,note_on,,,,,0,0,2,,,0,,,49,78
281900,note_off,,,,,50,0,1,,,0,,,66,64
281920,note_on,,,,,0,0,1,,,0,,,76,74
281920,note_on,,,,,0,0,1,,,0,,,70,74
281920,note_on,,,,,20,0,1,,,0,,,78,74
281920,set_tempo,,,,,480,1,0,600000,,,,,,
281970,note_off,,,,,90,0,2,,,0,,,49,64
282000,note_on,,,,,30,0,2,,,0,,,47,83
282000,note_on,,,,,0,0,1,,,0,,,71,77
282000,note_on,,,,,80,0,1,,,0,,,78,77
282000,note_on,,,,,0,0,1,,,0,,,74,77
282010,note_off,,,,,10,0,1,,,0,,,70,64
282010,note_off,,,,,0,0,1,,,0,,,78,64
282010,note_off,,,,,0,0,1,,,0,,,76,64
282080,note_on,,,,,70,0,1,,,0,,,66,65
282090,note_off,,,,,90,0,2,,,0,,,47,64
282090,note_off,,,,,10,0,1,,,0,,,71,64
282090,note_off,,,,,0,0,1,,,0,,,74,64
282090,note_off,,,,,0,0,1,,,0,,,78,64
282120,note_on,,,,,0,0,2,,,0,,,50,70
282120,note_on,,,,,30,0,2,,,0,,,62,62
282140,note_off,,,,,50,0,1,,,0,,,66,64
282160,note_on,,,,,20,0,1,,,0,,,78,68
282210,note_off,,,,,0,0,2,,,0,,,62,64
282210,note_off,,,,,90,0,2,,,0,,,50,64
282240,note_on,,,,,0,0,2,,,0,,,52,94
282240,note_on,,,,,0,0,1,,,0,,,78,96
282240,note_on,,,,,80,0,1,,,0,,,79,96
282240,note_on,,,,,30,0,2,,,0,,,64,74
282250,note_off,,,,,10,0,1,,,0,,,78,64
282320,note_on,,,,,70,0,1,,,0,,,67,87
282320,set_tempo,,,,,400,1,0,576923,,,,,,
282360,note_off,,,,,120,0,2,,,0,,,52,64
282360,note_off,,,,,0,0,2,,,0,,,64,64
282360,note_on,,,,,0,0,2,,,0,,,62,64
282360,note_on,,,,,0,0,2,,,0,,,50,81
282360,note_off,,,,,40,0,1,,,0,,,79,64
282360,note_off,,,,,0,0,1,,,0,,,78,64
282380,note_off,,,,,20,0,1,,,0,,,67,64
282400,note_on,,,,,0,0,1,,,0,,,78,80
282400,note_on,,,,,20,0,1,,,0,,,79,80
282450,note_off,,,,,90,0,2,,,0,,,50,64
282450,note_off,,,,,0,0,2,,,0,,,62,64
282480,note_on,,,,,0,0,1,,,0,,,78,95
282480,note_on,,,,,0,0,2,,,0,,,50,92
282480,note_on,,,,,30,0,2,,,0,,,62,73
282480,note_on,,,,,80,0,1,,,0,,,79,95
282490,note_off,,,,,0,0,1,,,0,,,79,64
282490,note_off,,,,,10,0,1,,,0,,,78,64
282560,note_on,,,,,70,0,1,,,0,,,67,85
282570,note_off,,,,,0,0,1,,,0,,,79,64
282570,note_off,,,,,10,0,1,,,0,,,78,64
282580,set_tempo,,,,,260,1,0,535714,,,,,,
282600,note_off,,,,,120,0,2,,,0,,,50,64
282600,note_on,,,,,0,0,2,,,0,,,61,66
282600,note_off,,,,,0,0,2,,,0,,,62,64
282600,note_on,,,,,0,0,2,,,0,,,49,83
282620,note_off,,,,,50,0,1,,,0,,,67,64
282640,note_on,,,,,20,0,1,,,0,,,79,82
282640,note_on,,,,,0,0,1,,,0,,,78,82
282690,note_off,,,,,90,0,2,,,0,,,49,64
282690,note_off,,,,,0,0,2,,,0,,,61,64
282720,note_on,,,,,30,0,2,,,0,,,61,80
282720,note_on,,,,,0,0,2,,,0,,,49,102
282720,note_on,,,,,80,0,1,,,0,,,79,95
282720,note_on,,,,,0,0,1,,,0,,,76,95
282730,note_off,,,,,10,0,1,,,0,,,78,64
282730,note_off,,,,,0,0,1,,,0,,,79,64
282740,set_tempo,,,,,160,1,0,517241,,,,,,
282800,note_on,,,,,70,0,1,,,0,,,67,83
282810,note_off,,,,,0,0,1,,,0,,,79,64
282810,note_off,,,,,10,0,1,,,0,,,76,64
282840,note_off,,,,,120,0,2,,,0,,,49,64
282840,note_off,,,,,0,0,2,,,0,,,61,64
282840,note_on,,,,,0,0,2,,,0,,,59,70
282840,note_on,,,,,0,0,2,,,0,,,47,89
282860,note_off,,,,,50,0,1,,,0,,,67,64
282880,note_on,,,,,20,0,1,,,0,,,79,91
282880,note_on,,,,,0,0,1,,,0,,,76,91
282930,note_off,,,,,90,0,2,,,0,,,47,64
282930,note_off,,,,,0,0,2,,,0,,,59,64
282940,set_tempo,,,,,200,1,0,500000,,,,,,
282960,note_on,,,,,0,0,1,,,0,,,74,109
282960,note_on,,,,,0,0,1,,,0,,,76,109
282960,note_on,,,,,80,0,1,,,0,,,80,109
282960,set_tempo,,,,,20,1,0,495868,,,,,,
282960,note_on,,,,,30,0,2,,,0,,,59,81
282960,note_on,,,,,0,0,2,,,0,,,47,103
282970,note_off,,,,,10,0,1,,,0,,,76,64
282970,note_off,,,,,0,0,1,,,0,,,79,64
283040,note_on,,,,,70,0,1,,,0,,,68,96
283050,note_off,,,,,10,0,1,,,0,,,74,64
283050,note_off,,,,,0,0,1,,,0,,,76,64
283050,note_off,,,,,0,0,1,,,0,,,80,64
283080,note_on,,,,,0,0,2,,,0,,,57,76
283080,note_on,,,,,0,0,2,,,0,,,45,97
283080,note_off,,,,,120,0,2,,,0,,,47,64
283080,note_off,,,,,0,0,2,,,0,,,59,64
283100,note_off,,,,,50,0,1,,,0,,,68,64
283120,note_on,,,,,0,0,1,,,0,,,74,100
283120,note_on,,,,,0,0,1,,,0,,,76,100
283120,note_on,,,,,20,0,1,,,0,,,80,100
283170,note_off,,,,,0,0,2,,,0,,,57,64
283170,note_off,,,,,90,0,2,,,0,,,45,64
283200,note_on,,,,,80,0,1,,,0,,,81,122
283200,note_on,,,,,0,0,1,,,0,,,76,122
283200,note_on,,,,,0,0,1,,,0,,,73,122
283200,set_tempo,,,,,240,1,0,483871,,,,,,
283200,note_on,,,,,0,0,2,,,0,,,45,112
283200,note_on,,,,,30,0,2,,,0,,,57,88
283210,note_off,,,,,10,0,1,,,0,,,74,64
283210,note_off,,,,,0,0,1,,,0,,,76,64
283210,note_off,,,,,0,0,1,,,0,,,80,64
283280,note_on,,,,,70,0,1,,,0,,,69,109
283320,note_off,,,,,0,0,1,,,0,,,76,64
283320,note_off,,,,,0,0,1,,,0,,,81,64
283320,note_off,,,,,40,0,1,,,0,,,73,64
283320,note_off,,,,,120,0,2,,,0,,,45,64
283320,note_on,,,,,0,0,2,,,0,,,43,100
283320,note_on,,,,,0,0,2,,,0,,,55,79
283320,note_off,,,,,0,0,2,,,0,,,57,64
283340,note_off,,,,,20,0,1,,,0,,,69,64
283360,note_on,,,,,20,0,1,,,0,,,81,108
283360,note_on,,,,,0,0,1,,,0,,,76,108
283360,note_on,,,,,0,0,1,,,0,,,73,108
283410,note_off,,,,,0,0,2,,,0,,,55,64
283410,note_off,,,,,90,0,2,,,0,,,43,64
283440,note_on,,,,,0,0,1,,,0,,,73,111
283440,note_on,,,,,0,0,1,,,0,,,76,111
283440,note_on,,,,,0,0,2,,,0,,,43,107
283440,note_on,,,,,30,0,2,,,0,,,55,84
283440,note_on,,,,,80,0,1,,,0,,,81,111
283450,note_off,,,,,0,0,1,,,0,,,76,64
283450,note_off,,,,,0,0,1,,,0,,,81,64
283450,note_off,,,,,10,0,1,,,0,,,73,64
283460,set_tempo,,,,,260,1,0,500000,,,,,,
283520,note_on,,,,,70,0,1,,,0,,,69,97
283530,note_off,,,,,10,0,1,,,0,,,73,64
283530,note_off,,,,,0,0,1,,,0,,,76,64
283530,note_off,,,,,0,0,1,,,0,,,81,64
283560,note_off,,,,,0,0,2,,,0,,,55,64
283560,note_on,,,,,0,0,2,,,0,,,41,99
283560,note_on,,,,,0,0,2,,,0,,,53,78
283560,note_off,,,,,120,0,2,,,0,,,43,64
283580,note_off,,,,,50,0,1,,,0,,,69,64
283580,set_tempo,,,,,120,1,0,517241,,,,,,
283600,note_on,,,,,0,0,1,,,0,,,76,95
283600,note_on,,,,,20,0,1,,,0,,,81,95
283600,note_on,,,,,0,0,1,,,0,,,73,95
283650,note_off,,,,,0,0,2,,,0,,,53,64
283650,note_off,,,,,90,0,2,,,0,,,41,64
283680,note_on,,,,,80,0,1,,,0,,,81,98
283680,note_on,,,,,0,0,1,,,0,,,77,98
283680,note_on,,,,,0,0,1,,,0,,,74,98
283680,note_on,,,,,0,0,2,,,0,,,41,94
283680,note_on,,,,,30,0,2,,,0,,,53,94
283690,note_off,,,,,0,0,1,,,0,,,76,64
283690,note_off,,,,,0,0,1,,,0,,,81,64
283690,note_off,,,,,10,0,1,,,0,,,73,64
283760,note_on,,,,,70,0,1,,,0,,,69,86
283770,note_off,,,,,0,0,1,,,0,,,81,64
283770,note_off,,,,,10,0,1,,,0,,,74,64
283770,note_off,,,,,0,0,1,,,0,,,77,64
283800,note_off,,,,,120,0,2,,,0,,,41,64
283800,note_off,,,,,0,0,2,,,0,,,53,64
283800,note_on,,,,,0,0,2,,,0,,,40,102
283800,note_on,,,,,0,0,2,,,0,,,52,102
283820,note_off,,,,,50,0,1,,,0,,,69,64
283840,note_on,,,,,20,0,1,,,0,,,81,83
283840,note_on,,,,,0,0,1,,,0,,,77,83
283840,note_on,,,,,0,0,1,,,0,,,74,83
283890,note_off,,,,,90,0,2,,,0,,,40,64
283890,note_off,,,,,0,0,2,,,0,,,52,64
283920,note_on,,,,,0,0,1,,,0,,,73,93
283920,note_on,,,,,0,0,1,,,0,,,79,93
283920,note_on,,,,,30,0,2,,,0,,,40,110
283920,note_on,,,,,0,0,2,,,0,,,52,110
283920,note_on,,,,,80,0,1,,,0,,,81,93
283930,note_off,,,,,10,0,1,,,0,,,74,64
283930,note_off,,,,,0,0,1,,,0,,,77,64
283930,note_off,,,,,0,0,1,,,0,,,81,64
283960,set_tempo,,,,,380,1,0,530973,,,,,,
284000,note_on,,,,,70,0,1,,,0,,,69,101
284010,note_off,,,,,0,0,1,,,0,,,81,64
284010,note_off,,,,,10,0,1,,,0,,,73,64
284010,note_off,,,,,0,0,1,,,0,,,79,64
284040,note_off,,,,,120,0,2,,,0,,,52,64
284040,note_off,,,,,0,0,2,,,0,,,40,64
284040,note_on,,,,,0,0,2,,,0,,,50,115
284040,note_on,,,,,0,0,2,,,0,,,38,115
284060,note_off,,,,,50,0,1,,,0,,,69,64
284080,note_on,,,,,0,0,1,,,0,,,73,109
284080,note_on,,,,,20,0,1,,,0,,,81,109
284080,note_on,,,,,0,0,1,,,0,,,79,109
284130,note_off,,,,,90,0,2,,,0,,,38,64
284130,note_off,,,,,0,0,2,,,0,,,50,64
284160,note_on,,,,,30,0,2,,,0,,,38,120
284160,note_on,,,,,0,0,1,,,0,,,74,119
284160,note_on,,,,,0,0,1,,,0,,,77,119
284160,note_on,,,,,80,0,1,,,0,,,81,119
284170,note_off,,,,,0,0,1,,,0,,,73,64
284170,note_off,,,,,0,0,1,,,0,,,79,64
284170,note_off,,,,,10,0,1,,,0,,,81,64
284240,note_on,,,,,70,0,1,,,0,,,69,108
284250,note_off,,,,,10,0,1,,,0,,,74,64
284250,note_off,,,,,0,0,1,,,0,,,77,64
284250,note_off,,,,,0,0,1,,,0,,,81,64
284280,note_on,,,,,0,0,2,,,0,,,45,104
284280,note_on,,,,,120,0,2,,,0,,,50,104
284300,note_off,,,,,50,0,1,,,0,,,69,64
284320,note_on,,,,,0,0,1,,,0,,,81,109
284320,note_on,,,,,20,0,1,,,0,,,77,109
284320,note_on,,,,,0,0,1,,,0,,,74,109
284340,set_tempo,,,,,380,1,0,504202,,,,,,
284370,note_off,,,,,0,0,2,,,0,,,50,64
284370,note_off,,,,,90,0,2,,,0,,,45,64
284388,note_off,,,,,18,0,2,,,0,,,38,64
284400,note_on,,,,,0,0,1,,,0,,,73,90
284400,note_on,,,,,0,0,1,,,0,,,81,90
284400,control_change,,,,,80,0,1,,,0,7,80,,
284400,note_on,,,,,12,0,2,,,0,,,38,105
284400,note_on,,,,,0,0,1,,,0,,,79,90
284410,note_off,,,,,10,0,1,,,0,,,74,64
284410,note_off,,,,,0,0,1,,,0,,,77,64
284410,note_off,,,,,0,0,1,,,0,,,81,64
284434,control_change,,,,,24,0,1,,,0,7,81,,
284460,set_tempo,,,,,120,1,0,500000,,,,,,
284470,control_change,,,,,36,0,1,,,0,7,82,,
284480,note_on,,,,,10,0,1,,,0,,,69,102
284490,note_off,,,,,0,0,1,,,0,,,81,64
284490,note_off,,,,,0,0,1,,,0,,,73,64
284490,note_off,,,,,10,0,1,,,0,,,79,64
284506,control_change,,,,,16,0,1,,,0,7,83,,
284520,note_on,,,,,0,0,2,,,0,,,45,94
284520,note_on,,,,,120,0,2,,,0,,,52,94
284540,note_off,,,,,34,0,1,,,0,,,69,64
284542,control_change,,,,,2,0,1,,,0,7,84,,
284560,note_on,,,,,18,0,1,,,0,,,79,92
284560,note_on,,,,,0,0,1,,,0,,,73,92
284560,note_on,,,,,0,0,1,,,0,,,81,92
284578,control_change,,,,,18,0,1,,,0,7,85,,
284610,note_off,,,,,90,0,2,,,0,,,45,64
284610,note_off,,,,,0,0,2,,,0,,,52,64
284614,control_change,,,,,36,0,1,,,0,7,86,,
284628,note_off,,,,,18,0,2,,,0,,,38,64
284640,note_on,,,,,0,0,1,,,0,,,77,105
284640,note_on,,,,,26,0,1,,,0,,,81,105
284640,set_tempo,,,,,180,1,0,491803,,,,,,
284640,note_on,,,,,12,0,2,,,0,,,38,110
284640,note_on,,,,,0,0,1,,,0,,,74,105
284648,control_change,,,,,8,0,1,,,0,7,87,,
284650,note_off,,,,,2,0,1,,,0,,,81,64
284650,note_off,,,,,0,0,1,,,0,,,73,64
284650,note_off,,,,,0,0,1,,,0,,,79,64
284684,control_change,,,,,34,0,1,,,0,7,88,,
284720,note_on,,,,,0,0,1,,,0,,,69,97
284720,control_change,,,,,36,0,1,,,0,7,89,,
284730,note_off,,,,,10,0,1,,,0,,,74,64
284730,note_off,,,,,0,0,1,,,0,,,77,64
284730,note_off,,,,,0,0,1,,,0,,,81,64
284756,control_change,,,,,26,0,1,,,0,7,90,,
284760,note_on,,,,,120,0,2,,,0,,,50,96
284760,note_on,,,,,0,0,2,,,0,,,45,96
284780,note_off,,,,,24,0,1,,,0,,,69,64
284792,control_change,,,,,12,0,1,,,0,7,91,,
284800,note_on,,,,,8,0,1,,,0,,,77,108
284800,note_on,,,,,0,0,1,,,0,,,74,108
284800,note_on,,,,,0,0,1,,,0,,,81,108
284828,control_change,,,,,28,0,1,,,0,7,92,,
284850,note_off,,,,,90,0,2,,,0,,,45,64
284850,note_off,,,,,0,0,2,,,0,,,50,64
284860,set_tempo,,,,,220,1,0,480000,,,,,,
284864,control_change,,,,,36,0,1,,,0,7,93,,
284868,note_off,,,,,18,0,2,,,0,,,38,64
284880,note_on,,,,,12,0,2,,,0,,,38,115
284880,note_on,,,,,0,0,1,,,0,,,79,98
284880,note_on,,,,,0,0,1,,,0,,,73,98
284880,note_on,,,,,16,0,1,,,0,,,81,98
284890,note_off,,,,,0,0,1,,,0,,,81,64
284890,note_off,,,,,10,0,1,,,0,,,74,64
284890,note_off,,,,,0,0,1,,,0,,,77,64
284898,control_change,,,,,8,0,1,,,0,7,94,,
284934,control_change,,,,,36,0,1,,,0,7,95,,
284960,note_on,,,,,26,0,1,,,0,,,69,112
284970,control_change,,,,,0,0,1,,,0,7,96,,
284970,note_off,,,,,0,0,1,,,0,,,81,64
284970,note_off,,,,,0,0,1,,,0,,,73,64
284970,note_off,,,,,10,0,1,,,0,,,79,64
285000,note_on,,,,,0,0,2,,,0,,,45,98
285000,note_on,,,,,120,0,2,,,0,,,52,98
285006,control_change,,,,,36,0,1,,,0,7,97,,
285020,note_off,,,,,14,0,1,,,0,,,69,64
285040,note_on,,,,,20,0,1,,,0,,,81,102
285040,note_on,,,,,0,0,1,,,0,,,73,102
285040,note_on,,,,,0,0,1,,,0,,,79,102
285042,control_change,,,,,2,0,1,,,0,7,98,,
285078,control_change,,,,,36,0,1,,,0,7,99,,
285090,note_off,,,,,0,0,2,,,0,,,52,64
285090,note_off,,,,,90,0,2,,,0,,,45,64
285108,note_off,,,,,18,0,2,,,0,,,38,64
285114,control_change,,,,,36,0,1,,,0,7,100,,
285120,note_on,,,,,12,0,2,,,0,,,38,120
285120,note_on,,,,,0,0,1,,,0,,,86,119
285120,note_on,,,,,6,0,1,,,0,,,81,119
285120,note_on,,,,,0,0,1,,,0,,,77,119
285130,note_off,,,,,0,0,1,,,0,,,73,64
285130,note_off,,,,,0,0,1,,,0,,,81,64
285130,note_off,,,,,10,0,1,,,0,,,79,64
285140,set_tempo,,,,,280,1,0,458015,,,,,,
285148,control_change,,,,,18,0,1,,,0,7,101,,
285184,control_change,,,,,36,0,1,,,0,7,102,,
285200,note_on,,,,,16,0,1,,,0,,,74,108
285210,note_off,,,,,0,0,1,,,0,,,81,64
285210,note_off,,,,,0,0,1,,,0,,,77,64
285210,note_off,,,,,10,0,1,,,0,,,86,64
285220,control_change,,,,,10,0,1,,,0,7,103,,
285240,note_on,,,,,120,0,2,,,0,,,50,111
285240,note_on,,,,,0,0,2,,,0,,,45,111
285256,control_change,,,,,36,0,1,,,0,7,104,,
285260,note_off,,,,,4,0,1,,,0,,,74,64
285280,note_on,,,,,20,0,1,,,0,,,77,110
285280,note_on,,,,,0,0,1,,,0,,,86,110
285280,note_on,,,,,0,0,1,,,0,,,81,110
285292,control_change,,,,,12,0,1,,,0,7,105,,
285328,control_change,,,,,36,0,1,,,0,7,106,,
285330,note_off,,,,,0,0,2,,,0,,,50,64
285330,note_off,,,,,90,0,2,,,0,,,45,64
285340,set_tempo,,,,,200,1,0,451128,,,,,,
285348,note_off,,,,,18,0,2,,,0,,,38,64
285360,note_on,,,,,12,0,2,,,0,,,38,117
285360,note_on,,,,,32,0,1,,,0,,,81,116
285360,note_on,,,,,0,0,1,,,0,,,79,116
285360,note_on,,,,,0,0,1,,,0,,,85,116
285362,control_change,,,,,2,0,1,,,0,7,107,,
285370,note_off,,,,,8,0,1,,,0,,,81,64
285370,note_off,,,,,0,0,1,,,0,,,77,64
285370,note_off,,,,,0,0,1,,,0,,,86,64
285398,control_change,,,,,28,0,1,,,0,7,108,,
285434,control_change,,,,,36,0,1,,,0,7,109,,
285440,note_on,,,,,6,0,1,,,0,,,73,111
285450,note_off,,,,,0,0,1,,,0,,,81,64
285450,note_off,,,,,10,0,1,,,0,,,85,64
285450,note_off,,,,,0,0,1,,,0,,,79,64
285470,control_change,,,,,20,0,1,,,0,7,110,,
285480,note_on,,,,,120,0,2,,,0,,,52,110
285480,note_on,,,,,0,0,2,,,0,,,45,110
285500,note_off,,,,,30,0,1,,,0,,,73,64
285506,control_change,,,,,6,0,1,,,0,7,111,,
285520,note_on,,,,,14,0,1,,,0,,,85,114
285520,note_on,,,,,0,0,1,,,0,,,81,114
285520,note_on,,,,,0,0,1,,,0,,,79,114
285542,control_change,,,,,22,0,1,,,0,7,112,,
285570,note_off,,,,,90,0,2,,,0,,,45,64
285570,note_off,,,,,0,0,2,,,0,,,52,64
285578,control_change,,,,,36,0,1,,,0,7,113,,
285580,set_tempo,,,,,240,1,0,447761,,,,,,
285588,note_off,,,,,18,0,2,,,0,,,38,64
285600,note_on,,,,,0,0,1,,,0,,,77,119
285600,note_on,,,,,0,0,1,,,0,,,81,119
285600,note_on,,,,,22,0,1,,,0,,,86,119
285600,note_on,,,,,12,0,2,,,0,,,38,121
285610,note_off,,,,,0,0,1,,,0,,,79,64
285610,note_off,,,,,10,0,1,,,0,,,81,64
285610,note_off,,,,,0,0,1,,,0,,,85,64
285612,control_change,,,,,2,0,1,,,0,7,114,,
285648,control_change,,,,,36,0,1,,,0,7,115,,
285680,note_on,,,,,32,0,1,,,0,,,74,114
285684,control_change,,,,,4,0,1,,,0,7,116,,
285690,note_off,,,,,0,0,1,,,0,,,86,64
285690,note_off,,,,,0,0,1,,,0,,,81,64
285690,note_off,,,,,6,0,1,,,0,,,77,64
285720,note_on,,,,,0,0,2,,,0,,,45,116
285720,note_on,,,,,120,0,2,,,0,,,50,116
285720,set_tempo,,,,,140,1,0,465116,,,,,,
285720,control_change,,,,,30,0,1,,,0,7,117,,
285740,note_off,,,,,20,0,1,,,0,,,74,64
285756,control_change,,,,,16,0,1,,,0,7,118,,
285760,set_tempo,,,,,40,1,0,500000,,,,,,
285760,note_on,,,,,0,0,1,,,0,,,86,119
285760,note_on,,,,,4,0,1,,,0,,,81,119
285760,note_on,,,,,0,0,1,,,0,,,77,119
285792,control_change,,,,,32,0,1,,,0,7,119,,
285810,note_off,,,,,0,0,2,,,0,,,50,64
285810,note_off,,,,,90,0,2,,,0,,,45,64
285820,set_tempo,,,,,60,1,0,512821,,,,,,
285828,note_off,,,,,18,0,2,,,0,,,38,64
285828,control_change,,,,,36,0,1,,,0,7,120,,
285840,note_on,,,,,0,0,1,,,0,,,85,125
285840,note_on,,,,,0,0,1,,,0,,,79,125
285840,note_on,,,,,12,0,1,,,0,,,81,125
285840,note_on,,,,,12,0,2,,,0,,,38,127
285840,set_tempo,,,,,20,1,0,545455,,,,,,
285850,note_off,,,,,10,0,1,,,0,,,77,64
285850,note_off,,,,,0,0,1,,,0,,,86,64
285850,note_off,,,,,0,0,1,,,0,,,81,64
285862,control_change,,,,,12,0,1,,,0,7,121,,
285898,control_change,,,,,36,0,1,,,0,7,122,,
285920,note_on,,,,,22,0,1,,,0,,,73,115
285930,note_off,,,,,0,0,1,,,0,,,79,64
285930,note_off,,,,,0,0,1,,,0,,,81,64
285930,note_off,,,,,10,0,1,,,0,,,85,64
285934,control_change,,,,,4,0,1,,,0,7,123,,
285940,set_tempo,,,,,100,1,0,582524,,,,,,
285960,note_on,,,,,120,0,2,,,0,,,52,125
285960,set_tempo,,,,,20,1,0,631579,,,,,,
285960,note_on,,,,,0,0,2,,,0,,,45,125
285970,control_change,,,,,36,0,1,,,0,7,124,,
285980,note_off,,,,,10,0,1,,,0,,,73,64
285980,set_tempo,,,,,20,1,0,645161,,,,,,
286000,note_on,,,,,20,0,1,,,0,,,85,121
286000,note_on,,,,,0,0,1,,,0,,,81,121
286000,note_on,,,,,0,0,1,,,0,,,79,121
286006,control_change,,,,,6,0,1,,,0,7,125,,
286020,set_tempo,,,,,40,1,0,722892,,,,,,
286040,set_tempo,,,,,20,1,0,769231,,,,,,
286042,control_change,,,,,36,0,1,,,0,7,126,,
286050,note_off,,,,,0,0,2,,,0,,,52,64
286050,note_off,,,,,90,0,2,,,0,,,45,64
286068,note_off,,,,,18,0,2,,,0,,,38,64
286078,control_change,,,,,36,0,1,,,0,7,127,,
286080,note_on,,,,,0,0,1,,,0,,,74,126
286080,note_on,,,,,12,0,2,,,0,,,38,126
286080,note_on,,,,,0,0,2,,,0,,,50,126
286080,control_change,,,,,2,0,1,,,0,7,127,,
286080,note_on,,,,,0,0,1,,,0,,,77,126
286080,note_on,,,,,0,0,2,,,0,,,45,126
286080,note_on,,,,,0,0,1,,,0,,,86,126
286080,note_on,,,,,0,0,1,,,0,,,81,126
286090,note_off,,,,,10,0,1,,,0,,,81,64
286090,note_off,,,,,0,0,1,,,0,,,79,64
286090,note_off,,,,,0,0,1,,,0,,,85,64
286094,control_change,,,,,4,0,1,,,0,7,126,,
286110,control_change,,,,,16,0,1,,,0,7,125,,
286124,control_change,,,,,14,0,1,,,0,7,124,,
286140,control_change,,,,,16,0,1,,,0,7,123,,
286140,set_tempo,,,,,100,1,0,714286,,,,,,
286156,control_change,,,,,16,0,1,,,0,7,122,,
286170,note_off,,,,,90,0,2,,,0,,,50,64
286170,control_change,,,,,14,0,1,,,0,7,121,,
286170,note_off,,,,,0,0,2,,,0,,,45,64
286170,note_off,,,,,0,0,2,,,0,,,38,64
286186,control_change,,,,,16,0,1,,,0,7,120,,
286200,note_on,,,,,0,0,2,,,0,,,62,87
286200,note_on,,,,,0,0,2,,,0,,,65,87
286200,note_on,,,,,30,0,2,,,0,,,69,87
286202,control_change,,,,,16,0,1,,,0,7,119,,
286216,control_change,,,,,14,0,1,,,0,7,118,,
286220,set_tempo,,,,,80,1,0,674157,,,,,,
286232,control_change,,,,,16,0,1,,,0,7,117,,
286248,control_change,,,,,16,0,1,,,0,7,116,,
286260,note_off,,,,,12,0,1,,,0,,,86,64
286260,note_off,,,,,0,0,1,,,0,,,74,64
286260,note_off,,,,,0,0,1,,,0,,,81,64
286260,note_off,,,,,0,0,1,,,0,,,77,64
286262,control_change,,,,,2,0,1,,,0,7,115,,
286278,control_change,,,,,16,0,1,,,0,7,114,,
286294,control_change,,,,,16,0,1,,,0,7,113,,
286300,set_tempo,,,,,80,1,0,652174,,,,,,
286308,control_change,,,,,14,0,1,,,0,7,112,,
286320,note_off,,,,,0,0,2,,,0,,,65,64
286320,note_on,,,,,0,0,2,,,0,,,62,65
286320,note_off,,,,,0,0,2,,,0,,,69,64
286320,note_off,,,,,120,0,2,,,0,,,62,64
286320,note_on,,,,,0,0,2,,,0,,,65,65
286320,note_on,,,,,0,0,2,,,0,,,69,65
286324,control_change,,,,,16,0,1,,,0,7,111,,
286340,control_change,,,,,16,0,1,,,0,7,110,,
286354,control_change,,,,,14,0,1,,,0,7,109,,
286360,set_tempo,,,,,60,1,0,625000,,,,,,
286370,control_change,,,,,16,0,1,,,0,7,108,,
286386,control_change,,,,,16,0,1,,,0,7,107,,
286400,control_change,,,,,14,0,1,,,0,7,106,,
286416,control_change,,,,,16,0,1,,,0,7,105,,
286432,control_change,,,,,16,0,1,,,0,7,104,,
286440,note_on,,,,,0,0,2,,,0,,,65,44
286440,note_on,,,,,0,0,2,,,0,,,69,44
286440,note_off,,,,,0,0,2,,,0,,,69,64
286440,note_off,,,,,0,0,2,,,0,,,65,64
286440,note_off,,,,,120,0,2,,,0,,,62,64
286440,set_tempo,,,,,80,1,0,588235,,,,,,
286440,note_on,,,,,0,0,2,,,0,,,62,44
286446,control_change,,,,,14,0,1,,,0,7,103,,
286462,control_change,,,,,16,0,1,,,0,7,102,,
286478,control_change,,,,,16,0,1,,,0,7,101,,
286492,control_change,,,,,14,0,1,,,0,7,100,,
286508,control_change,,,,,16,0,1,,,0,7,99,,
286524,control_change,,,,,16,0,1,,,0,7,98,,
286538,control_change,,,,,14,0,1,,,0,7,97,,
286540,set_tempo,,,,,100,1,0,566038,,,,,,
286554,control_change,,,,,16,0,1,,,0,7,96,,
286560,note_off,,,,,0,0,2,,,0,,,69,64
286560,note_off,,,,,0,0,2,,,0,,,65,64
286560,note_off,,,,,120,0,2,,,0,,,62,64
286560,note_on,,,,,0,0,2,,,0,,,62,27
286560,note_on,,,,,0,0,2,,,0,,,65,27
286560,note_on,,,,,0,0,2,,,0,,,69,27
286570,control_change,,,,,16,0,1,,,0,7,95,,
286584,control_change,,,,,14,0,1,,,0,7,94,,
286600,control_change,,,,,16,0,1,,,0,7,93,,
286616,control_change,,,,,16,0,1,,,0,7,92,,
286630,control_change,,,,,14,0,1,,,0,7,91,,
286646,control_change,,,,,16,0,1,,,0,7,90,,
286662,control_change,,,,,16,0,1,,,0,7,89,,
286676,control_change,,,,,14,0,1,,,0,7,88,,
286680,note_on,,,,,0,0,2,,,0,,,62,27
286680,note_on,,,,,0,0,2,,,0,,,69,27
286680,note_off,,,,,0,0,2,,,0,,,69,64
286680,note_off,,,,,0,0,2,,,0,,,65,64
286680,note_off,,,,,120,0,2,,,0,,,62,64
286680,note_on,,,,,0,0,2,,,0,,,65,27
286692,control_change,,,,,16,0,1,,,0,7,87,,
286708,control_change,,,,,16,0,1,,,0,7,86,,
286722,control_change,,,,,14,0,1,,,0,7,85,,
286738,control_change,,,,,16,0,1,,,0,7,84,,
286754,control_change,,,,,16,0,1,,,0,7,83,,
286768,control_change,,,,,14,0,1,,,0,7,82,,
286784,control_change,,,,,16,0,1,,,0,7,81,,
286800,note_off,,,,,120,0,2,,,0,,,62,64
286800,note_off,,,,,0,0,2,,,0,,,65,64
286800,note_off,,,,,0,0,2,,,0,,,69,64
286800,note_on,,,,,0,0,2,,,0,,,65,30
286800,note_on,,,,,0,0,2,,,0,,,69,30
286800,note_on,,,,,0,0,2,,,0,,,62,30
286800,control_change,,,,,16,0,1,,,0,7,80,,
286920,note_off,,,,,120,0,2,,,0,,,62,64
286920,note_off,,,,,0,0,2,,,0,,,65,64
286920,note_off,,,,,0,0,2,,,0,,,69,64
286920,note_on,,,,,0,0,2,,,0,,,62,35
286920,note_on,,,,,0,0,2,,,0,,,65,35
286920,note_on,,,,,0,0,2,,,0,,,69,35
286980,set_tempo,,,,,440,1,0,705882,,,,,,
287040,note_on,,,,,0,0,2,,,0,,,65,37
287040,note_on,,,,,0,0,2,,,0,,,69,37
287040,note_on,,,,,0,0,2,,,0,,,62,37
287040,note_off,,,,,0,0,2,,,0,,,62,64
287040,note_on,,,,,240,0,1,,,0,,,74,54
287040,note_off,,,,,120,0,2,,,0,,,69,64
287040,note_off,,,,,0,0,2,,,0,,,65,64
287120,set_tempo,,,,,140,1,0,550459,,,,,,
287160,note_off,,,,,120,0,2,,,0,,,65,64
287160,note_off,,,,,0,0,2,,,0,,,69,64
287160,note_off,,,,,0,0,2,,,0,,,62,64
287160,note_on,,,,,0,0,2,,,0,,,69,37
287160,note_on,,,,,0,0,2,,,0,,,65,37
287160,note_on,,,,,0,0,2,,,0,,,62,37
287280,note_on,,,,,0,0,2,,,0,,,65,32
287280,note_on,,,,,0,0,2,,,0,,,62,32
287280,note_on,,,,,0,0,2,,,0,,,69,32
287280,note_off,,,,,0,0,2,,,0,,,69,64
287280,note_off,,,,,120,0,2,,,0,,,62,64
287280,note_off,,,,,0,0,2,,,0,,,65,64
287400,note_off,,,,,120,0,2,,,0,,,62,64
287400,note_off,,,,,0,0,2,,,0,,,65,64
287400,note_off,,,,,0,0,2,,,0,,,69,64
287400,note_on,,,,,0,0,2,,,0,,,69,26
287400,note_on,,,,,0,0,2,,,0,,,65,26
287400,note_on,,,,,0,0,2,,,0,,,62,26
287520,note_off,,,,,480,0,1,,,0,,,74,64
287520,note_on,,,,,0,0,2,,,0,,,62,38
287520,note_on,,,,,0,0,2,,,0,,,65,38
287520,note_on,,,,,0,0,2,,,0,,,69,38
287520,note_off,,,,,0,0,2,,,0,,,65,64
287520,note_off,,,,,120,0,2,,,0,,,62,64
287520,note_on,,,,,0,0,1,,,0,,,77,50
287520,note_off,,,,,0,0,2,,,0,,,69,64
287640,note_off,,,,,120,0,2,,,0,,,62,64
287640,note_off,,,,,0,0,2,,,0,,,65,64
287640,note_off,,,,,0,0,2,,,0,,,69,64
287640,note_on,,,,,0,0,2,,,0,,,69,34
287640,note_on,,,,,0,0,2,,,0,,,65,34
287640,note_on,,,,,0,0,2,,,0,,,62,34
287640,note_off,,,,,120,0,1,,,0,,,77,64
287760,note_on,,,,,120,0,1,,,0,,,81,40
287760,note_on,,,,,0,0,2,,,0,,,62,31
287760,note_off,,,,,0,0,2,,,0,,,69,64
287760,note_on,,,,,0,0,2,,,0,,,69,31
287760,note_off,,,,,0,0,2,,,0,,,65,64
287760,note_off,,,,,120,0,2,,,0,,,62,64
287760,note_on,,,,,0,0,2,,,0,,,65,31
287880,note_on,,,,,0,0,2,,,0,,,62,25
287880,note_on,,,,,0,0,2,,,0,,,65,25
287880,note_on,,,,,0,0,2,,,0,,,69,25
287880,note_off,,,,,0,0,2,,,0,,,65,64
287880,note_off,,,,,120,0,2,,,0,,,62,64
287880,note_off,,,,,120,0,1,,,0,,,81,64
287880,note_off,,,,,0,0,2,,,0,,,69,64
287920,set_tempo,,,,,800,1,0,645161,,,,,,
288000,note_off,,,,,120,0,2,,,0,,,69,64
288000,note_off,,,,,0,0,2,,,0,,,65,64
288000,note_on,,,,,120,0,1,,,0,,,69,54
288000,note_on,,,,,0,0,2,,,0,,,69,41
288000,note_on,,,,,0,0,2,,,0,,,65,41
288000,note_on,,,,,0,0,2,,,0,,,61,41
288000,note_off,,,,,0,0,2,,,0,,,62,64
288080,set_tempo,,,,,160,1,0,550459,,,,,,
288120,note_off,,,,,120,0,2,,,0,,,61,64
288120,note_off,,,,,0,0,2,,,0,,,65,64
288120,note_on,,,,,0,0,2,,,0,,,61,37
288120,note_off,,,,,0,0,2,,,0,,,69,64
288120,note_on,,,,,0,0,2,,,0,,,65,37
288120,note_on,,,,,0,0,2,,,0,,,69,37
288240,note_off,,,,,0,0,2,,,0,,,69,64
288240,note_off,,,,,120,0,2,,,0,,,61,64
288240,note_on,,,,,0,0,2,,,0,,,65,31
288240,note_off,,,,,0,0,2,,,0,,,65,64
288240,note_on,,,,,0,0,2,,,0,,,61,31
288240,note_on,,,,,0,0,2,,,0,,,69,31
288360,note_on,,,,,0,0,2,,,0,,,69,27
288360,note_on,,,,,0,0,2,,,0,,,61,27
288360,note_off,,,,,0,0,2,,,0,,,61,64
288360,note_off,,,,,120,0,2,,,0,,,69,64
288360,note_off,,,,,0,0,2,,,0,,,65,64
288360,note_on,,,,,0,0,2,,,0,,,65,27
288480,note_on,,,,,0,0,1,,,0,,,77,50
288480,note_on,,,,,0,0,2,,,0,,,69,38
288480,note_on,,,,,0,0,2,,,0,,,65,38
288480,note_on,,,,,0,0,2,,,0,,,61,38
288480,note_off,,,,,0,0,2,,,0,,,69,64
288480,note_off,,,,,120,0,2,,,0,,,61,64
288480,note_off,,,,,480,0,1,,,0,,,69,64
288480,note_off,,,,,0,0,2,,,0,,,65,64
288600,note_off,,,,,120,0,1,,,0,,,77,64
288600,note_on,,,,,0,0,2,,,0,,,65,36
288600,note_on,,,,,0,0,2,,,0,,,69,36
288600,note_off,,,,,0,0,2,,,0,,,61,64
288600,note_off,,,,,0,0,2,,,0,,,65,64
288600,note_off,,,,,120,0,2,,,0,,,69,64
288600,note_on,,,,,0,0,2,,,0,,,61,36
288720,note_off,,,,,120,0,2,,,0,,,61,64
288720,note_off,,,,,0,0,2,,,0,,,69,64
288720,note_off,,,,,0,0,2,,,0,,,65,64
288720,note_on,,,,,0,0,2,,,0,,,61,31
288720,note_on,,,,,120,0,1,,,0,,,81,40
288720,note_on,,,,,0,0,2,,,0,,,65,31
288720,note_on,,,,,0,0,2,,,0,,,69,31
288840,note_off,,,,,0,0,2,,,0,,,65,64
288840,note_on,,,,,0,0,2,,,0,,,65,30
288840,note_on,,,,,0,0,2,,,0,,,69,30
288840,note_on,,,,,0,0,2,,,0,,,61,30
288840,note_off,,,,,0,0,2,,,0,,,61,64
288840,note_off,,,,,120,0,2,,,0,,,69,64
288840,note_off,,,,,120,0,1,,,0,,,81,64
288880,set_tempo,,,,,800,1,0,612245,,,,,,
288960,note_off,,,,,0,0,2,,,0,,,61,64
288960,note_off,,,,,0,0,2,,,0,,,69,64
288960,note_off,,,,,120,0,2,,,0,,,65,64
288960,note_on,,,,,0,0,2,,,0,,,69,41
288960,note_on,,,,,0,0,2,,,0,,,62,41
288960,note_on,,,,,120,0,1,,,0,,,74,56
288960,note_on,,,,,0,0,2,,,0,,,65,41
289040,set_tempo,,,,,160,1,0,550459,,,,,,
289080,note_on,,,,,0,0,2,,,0,,,69,40
289080,note_off,,,,,0,0,2,,,0,,,62,64
289080,note_on,,,,,0,0,2,,,0,,,62,40
289080,note_off,,,,,0,0,2,,,0,,,69,64
289080,note_off,,,,,120,0,2,,,0,,,65,64
289080,note_on,,,,,0,0,2,,,0,,,65,40
289120,set_tempo,,,,,80,1,0,540541,,,,,,
289200,note_on,,,,,0,0,2,,,0,,,62,35
289200,note_on,,,,,0,0,2,,,0,,,65,35
289200,note_on,,,,,0,0,2,,,0,,,69,35
289200,note_off,,,,,0,0,2,,,0,,,69,64
289200,note_off,,,,,0,0,2,,,0,,,65,64
289200,note_off,,,,,120,0,2,,,0,,,62,64
289300,set_tempo,,,,,180,1,0,535714,,,,,,
289320,note_on,,,,,0,0,2,,,0,,,69,32
289320,note_on,,,,,0,0,2,,,0,,,62,32
289320,note_on,,,,,0,0,2,,,0,,,65,32
289320,note_off,,,,,0,0,2,,,0,,,69,64
289320,note_off,,,,,0,0,2,,,0,,,65,64
289320,note_off,,,,,120,0,2,,,0,,,62,64
289440,note_on,,,,,0,0,1,,,0,,,77,50
289440,note_on,,,,,0,0,2,,,0,,,62,34
289440,note_on,,,,,0,0,2,,,0,,,65,34
289440,note_off,,,,,0,0,2,,,0,,,69,64
289440,note_off,,,,,0,0,2,,,0,,,65,64
289440,note_off,,,,,120,0,2,,,0,,,62,64
289440,note_off,,,,,480,0,1,,,0,,,74,64
289440,note_on,,,,,0,0,2,,,0,,,69,34
289460,set_tempo,,,,,160,1,0,530973,,,,,,
289560,note_off,,,,,120,0,1,,,0,,,77,64
289560,note_on,,,,,0,0,2,,,0,,,62,30
289560,note_on,,,,,0,0,2,,,0,,,65,30
289560,note_on,,,,,0,0,2,,,0,,,69,30
289560,note_off,,,,,0,0,2,,,0,,,69,64
289560,note_off,,,,,0,0,2,,,0,,,65,64
289560,note_off,,,,,120,0,2,,,0,,,62,64
289640,set_tempo,,,,,180,1,0,526316,,,,,,
289680,note_off,,,,,0,0,2,,,0,,,69,64
289680,note_off,,,,,0,0,2,,,0,,,65,64
289680,note_off,,,,,120,0,2,,,0,,,62,64
289680,note_on,,,,,120,0,1,,,0,,,81,59
289680,note_on,,,,,0,0,2,,,0,,,69,35
289680,note_on,,,,,0,0,2,,,0,,,65,35
289680,note_on,,,,,0,0,2,,,0,,,61,35
289800,note_on,,,,,0,0,2,,,0,,,65,37
289800,note_off,,,,,0,0,2,,,0,,,69,64
289800,note_off,,,,,0,0,2,,,0,,,65,64
289800,note_off,,,,,120,0,1,,,0,,,81,64
289800,note_on,,,,,0,0,2,,,0,,,61,37
289800,note_off,,,,,120,0,2,,,0,,,61,64
289800,note_on,,,,,0,0,2,,,0,,,69,37
289920,note_off,,,,,120,0,2,,,0,,,69,64
289920,note_off,,,,,0,0,2,,,0,,,61,64
289920,note_on,,,,,0,0,2,,,0,,,69,41
289920,note_off,,,,,0,0,2,,,0,,,65,64
289920,note_on,,,,,120,0,1,,,0,,,84,53
289920,note_on,,,,,0,0,2,,,0,,,65,41
289920,note_on,,,,,0,0,2,,,0,,,60,41
289980,set_tempo,,,,,340,1,0,517241,,,,,,
290040,note_on,,,,,0,0,2,,,0,,,60,36
290040,note_on,,,,,0,0,2,,,0,,,69,36
290040,note_off,,,,,0,0,2,,,0,,,65,64
290040,note_off,,,,,0,0,2,,,0,,,69,64
290040,note_off,,,,,120,0,1,,,0,,,84,64
290040,note_on,,,,,0,0,1,,,0,,,81,43
290040,note_on,,,,,0,0,2,,,0,,,65,36
290040,note_off,,,,,120,0,2,,,0,,,60,64
290130,note_off,,,,,90,0,1,,,0,,,81,64
290140,set_tempo,,,,,160,1,0,512821,,,,,,
290160,note_off,,,,,0,0,2,,,0,,,69,64
290160,note_on,,,,,0,0,2,,,0,,,69,32
290160,note_on,,,,,0,0,2,,,0,,,65,32
290160,note_on,,,,,0,0,2,,,0,,,60,32
290160,note_off,,,,,0,0,2,,,0,,,65,64
290160,note_off,,,,,120,0,2,,,0,,,60,64
290160,note_on,,,,,30,0,1,,,0,,,81,57
290280,note_off,,,,,0,0,2,,,0,,,65,64
290280,note_off,,,,,120,0,2,,,0,,,69,64
290280,note_on,,,,,0,0,2,,,0,,,65,30
290280,note_on,,,,,0,0,2,,,0,,,69,30
290280,note_off,,,,,0,0,2,,,0,,,60,64
290280,note_on,,,,,0,0,2,,,0,,,60,30
290280,note_off,,,,,120,0,1,,,0,,,81,64
290280,note_on,,,,,0,0,1,,,0,,,79,45
290300,set_tempo,,,,,160,1,0,508475,,,,,,
290370,note_off,,,,,90,0,1,,,0,,,79,64
290380,set_tempo,,,,,80,1,0,512821,,,,,,
290400,note_off,,,,,0,0,2,,,0,,,60,64
290400,note_off,,,,,0,0,2,,,0,,,65,64
290400,note_on,,,,,0,0,2,,,0,,,69,39
290400,note_on,,,,,0,0,2,,,0,,,65,39
290400,note_on,,,,,0,0,2,,,0,,,60,39
290400,note_on,,,,,30,0,1,,,0,,,79,50
290400,note_off,,,,,120,0,2,,,0,,,69,64
290460,set_tempo,,,,,80,1,0,517241,,,,,,
290520,note_on,,,,,0,0,1,,,0,,,77,36
290520,note_off,,,,,0,0,2,,,0,,,65,64
290520,note_off,,,,,0,0,2,,,0,,,69,64
290520,note_on,,,,,0,0,2,,,0,,,69,36
290520,note_on,,,,,0,0,2,,,0,,,60,36
290520,note_off,,,,,120,0,1,,,0,,,79,64
290520,note_off,,,,,120,0,2,,,0,,,60,64
290520,note_on,,,,,0,0,2,,,0,,,65,36
290520,set_tempo,,,,,60,1,0,526316,,,,,,
290610,note_off,,,,,90,0,1,,,0,,,77,64
290640,note_off,,,,,0,0,2,,,0,,,69,64
290640,note_off,,,,,120,0,2,,,0,,,65,64
290640,note_on,,,,,0,0,2,,,0,,,61,32
290640,note_off,,,,,0,0,2,,,0,,,60,64
290640,note_on,,,,,0,0,2,,,0,,,69,32
290640,note_on,,,,,0,0,2,,,0,,,65,32
290640,note_on,,,,,30,0,1,,,0,,,77,43
290680,set_tempo,,,,,160,1,0,530973,,,,,,
290740,set_tempo,,,,,60,1,0,535714,,,,,,
290760,note_on,,,,,0,0,2,,,0,,,69,31
290760,note_on,,,,,0,0,2,,,0,,,65,31
290760,note_on,,,,,0,0,2,,,0,,,61,31
290760,note_off,,,,,0,0,2,,,0,,,69,64
290760,note_off,,,,,120,0,2,,,0,,,61,64
290760,note_on,,,,,0,0,1,,,0,,,76,33
290760,note_off,,,,,0,0,2,,,0,,,65,64
290760,note_off,,,,,120,0,1,,,0,,,77,64
290820,set_tempo,,,,,80,1,0,540541,,,,,,
290850,note_off,,,,,90,0,1,,,0,,,76,64
290880,note_on,,,,,0,0,2,,,0,,,65,36
290880,note_on,,,,,30,0,1,,,0,,,76,44
290880,note_off,,,,,120,0,2,,,0,,,61,64
290880,note_on,,,,,0,0,2,,,0,,,69,36
290880,note_off,,,,,0,0,2,,,0,,,65,64
290880,note_off,,,,,0,0,2,,,0,,,69,64
290880,note_on,,,,,0,0,2,,,0,,,62,36
290900,set_tempo,,,,,80,1,0,545455,,,,,,
290960,set_tempo,,,,,60,1,0,550459,,,,,,
291000,note_off,,,,,120,0,2,,,0,,,69,64
291000,note_off,,,,,0,0,2,,,0,,,65,64
291000,note_off,,,,,0,0,2,,,0,,,62,64
291000,note_on,,,,,0,0,2,,,0,,,69,28
291000,note_on,,,,,0,0,2,,,0,,,62,28
291000,note_on,,,,,0,0,1,,,0,,,77,36
291000,note_off,,,,,120,0,1,,,0,,,76,64
291000,note_on,,,,,0,0,2,,,0,,,65,28
291040,set_tempo,,,,,80,1,0,560748,,,,,,
291090,note_off,,,,,90,0,1,,,0,,,77,64
291120,note_on,,,,,0,0,2,,,0,,,65,32
291120,note_off,,,,,0,0,2,,,0,,,62,64
291120,note_off,,,,,0,0,2,,,0,,,69,64
291120,note_on,,,,,0,0,2,,,0,,,69,32
291120,set_tempo,,,,,80,1,0,566038,,,,,,
291120,note_on,,,,,30,0,1,,,0,,,77,49
291120,note_off,,,,,120,0,2,,,0,,,65,64
291180,set_tempo,,,,,60,1,0,571429,,,,,,
291240,note_off,,,,,120,0,1,,,0,,,77,64
291240,note_on,,,,,0,0,1,,,0,,,74,38
291240,note_off,,,,,0,0,2,,,0,,,65,64
291240,note_off,,,,,120,0,2,,,0,,,69,64
291240,note_on,,,,,0,0,2,,,0,,,65,36
291240,note_on,,,,,0,0,2,,,0,,,69,36
291260,set_tempo,,,,,80,1,0,576923,,,,,,
291330,note_off,,,,,90,0,1,,,0,,,74,64
291340,set_tempo,,,,,80,1,0,582524,,,,,,
291360,note_off,,,,,0,0,2,,,0,,,65,64
291360,note_on,,,,,0,0,2,,,0,,,69,39
291360,note_on,,,,,30,0,1,,,0,,,74,54
291360,note_off,,,,,120,0,2,,,0,,,69,64
291400,set_tempo,,,,,60,1,0,588235,,,,,,
291480,note_on,,,,,0,0,1,,,0,,,72,42
291480,note_off,,,,,120,0,1,,,0,,,74,64
291480,note_on,,,,,0,0,2,,,0,,,69,37
291480,note_off,,,,,120,0,2,,,0,,,69,64
291520,set_tempo,,,,,120,1,0,582524,,,,,,
291570,note_off,,,,,90,0,1,,,0,,,72,64
291600,note_on,,,,,0,0,2,,,0,,,60,32
291600,note_off,,,,,120,0,2,,,0,,,69,64
291600,note_on,,,,,30,0,1,,,0,,,74,48
291600,note_on,,,,,0,0,2,,,0,,,64,32
291600,note_on,,,,,0,0,2,,,0,,,70,32
291620,set_tempo,,,,,100,1,0,576923,,,,,,
291720,note_on,,,,,0,0,1,,,0,,,72,37
291720,set_tempo,,,,,100,1,0,571429,,,,,,
291720,note_off,,,,,120,0,1,,,0,,,74,64
291720,note_on,,,,,0,0,2,,,0,,,60,31
291720,note_on,,,,,0,0,2,,,0,,,64,31
291720,note_on,,,,,0,0,2,,,0,,,70,31
291720,note_off,,,,,0,0,2,,,0,,,64,64
291720,note_off,,,,,120,0,2,,,0,,,70,64
291720,note_off,,,,,0,0,2,,,0,,,60,64
291810,note_off,,,,,90,0,1,,,0,,,72,64
291820,set_tempo,,,,,100,1,0,566038,,,,,,
291840,note_on,,,,,0,0,2,,,0,,,62,38
291840,note_off,,,,,120,0,2,,,0,,,70,64
291840,note_off,,,,,0,0,2,,,0,,,60,64
291840,note_on,,,,,0,0,2,,,0,,,65,38
291840,note_on,,,,,0,0,2,,,0,,,69,38
291840,note_off,,,,,0,0,2,,,0,,,64,64
291920,set_tempo,,,,,100,1,0,560748,,,,,,
291960,note_off,,,,,120,0,2,,,0,,,65,64
291960,note_off,,,,,0,0,2,,,0,,,69,64
291960,note_on,,,,,0,0,2,,,0,,,62,30
291960,note_off,,,,,0,0,2,,,0,,,62,64
291960,note_on,,,,,0,0,2,,,0,,,69,30
291960,note_on,,,,,0,0,2,,,0,,,65,30
292020,set_tempo,,,,,100,1,0,550459,,,,,,
292080,note_on,,,,,0,0,2,,,0,,,69,35
292080,note_on,,,,,0,0,2,,,0,,,65,35
292080,note_on,,,,,0,0,2,,,0,,,62,35
292080,note_off,,,,,120,0,2,,,0,,,62,64
292080,note_off,,,,,0,0,2,,,0,,,65,64
292080,note_off,,,,,0,0,2,,,0,,,69,64
292100,set_tempo,,,,,80,1,0,545455,,,,,,
292200,note_off,,,,,120,0,2,,,0,,,69,64
292200,note_on,,,,,0,0,2,,,0,,,65,38
292200,note_on,,,,,0,0,2,,,0,,,69,38
292200,note_off,,,,,0,0,2,,,0,,,62,64
292200,note_on,,,,,0,0,2,,,0,,,62,38
292200,note_off,,,,,0,0,2,,,0,,,65,64
292320,note_on,,,,,0,0,2,,,0,,,62,42
292320,note_off,,,,,120,0,2,,,0,,,62,64
292320,note_off,,,,,0,0,2,,,0,,,65,64
292320,note_off,,,,,0,0,2,,,0,,,69,64
292320,note_on,,,,,0,0,2,,,0,,,65,42
292320,note_on,,,,,0,0,2,,,0,,,69,42
292440,note_on,,,,,0,0,2,,,0,,,62,39
292440,note_on,,,,,0,0,2,,,0,,,69,39
292440,note_on,,,,,0,0,2,,,0,,,65,39
292440,note_off,,,,,0,0,2,,,0,,,65,64
292440,note_off,,,,,120,0,2,,,0,,,69,64
292440,note_off,,,,,0,0,2,,,0,,,62,64
292560,note_off,,,,,120,0,2,,,0,,,65,64
292560,note_on,,,,,0,0,2,,,0,,,62,36
292560,note_on,,,,,0,0,2,,,0,,,65,36
292560,note_on,,,,,0,0,2,,,0,,,69,36
292560,note_off,,,,,0,0,2,,,0,,,62,64
292560,note_off,,,,,0,0,2,,,0,,,69,64
292680,note_off,,,,,0,0,2,,,0,,,65,64
292680,note_on,,,,,0,0,2,,,0,,,65,32
292680,note_on,,,,,0,0,2,,,0,,,62,32
292680,note_off,,,,,120,0,2,,,0,,,62,64
292680,note_off,,,,,0,0,2,,,0,,,69,64
292680,note_on,,,,,0,0,2,,,0,,,69,32
292800,note_on,,,,,0,0,1,,,0,,,65,37
292800,note_on,,,,,990,0,1,,,0,,,69,37
292800,note_on,,,,,0,0,1,,,0,,,74,37
292800,set_tempo,,,,,700,1,0,550459,,,,,,
292800,note_off,,,,,0,0,2,,,0,,,69,64
292800,note_off,,,,,0,0,2,,,0,,,65,64
292800,note_off,,,,,120,0,2,,,0,,,62,64
292800,note_on,,,,,0,0,2,,,0,,,50,42
292920,note_on,,,,,0,0,1,,,0,,,69,33
292920,note_off,,,,,120,0,1,,,0,,,74,64
292920,note_off,,,,,0,0,1,,,0,,,65,64
292920,note_off,,,,,0,0,1,,,0,,,69,64
292920,note_on,,,,,0,0,1,,,0,,,74,33
292920,note_on,,,,,0,0,1,,,0,,,65,33
293040,note_off,,,,,120,0,1,,,0,,,65,64
293040,note_off,,,,,0,0,1,,,0,,,74,64
293040,note_off,,,,,0,0,1,,,0,,,69,64
293040,note_on,,,,,0,0,1,,,0,,,65,29
293040,note_on,,,,,0,0,1,,,0,,,69,29
293040,note_on,,,,,0,0,1,,,0,,,74,29
293160,note_off,,,,,120,0,1,,,0,,,74,64
293160,note_off,,,,,0,0,1,,,0,,,69,64
293160,note_off,,,,,0,0,1,,,0,,,65,64
293160,note_on,,,,,0,0,1,,,0,,,65,26
293160,note_on,,,,,0,0,1,,,0,,,69,26
293160,note_on,,,,,0,0,1,,,0,,,74,26
293280,note_on,,,,,0,0,2,,,0,,,53,45
293280,note_on,,,,,0,0,1,,,0,,,74,35
293280,note_on,,,,,0,0,1,,,0,,,65,35
293280,note_off,,,,,480,0,2,,,0,,,50,64
293280,note_off,,,,,0,0,1,,,0,,,65,64
293280,note_off,,,,,0,0,1,,,0,,,69,64
293280,note_on,,,,,0,0,1,,,0,,,69,35
293280,note_off,,,,,120,0,1,,,0,,,74,64
293400,note_on,,,,,0,0,1,,,0,,,74,33
293400,note_on,,,,,0,0,1,,,0,,,69,33
293400,note_off,,,,,120,0,2,,,0,,,53,64
293400,note_off,,,,,0,0,1,,,0,,,69,64
293400,note_off,,,,,0,0,1,,,0,,,65,64
293400,note_off,,,,,120,0,1,,,0,,,74,64
293400,note_on,,,,,0,0,1,,,0,,,65,33
293520,note_off,,,,,120,0,1,,,0,,,74,64
293520,note_on,,,,,120,0,2,,,0,,,57,40
293520,note_off,,,,,0,0,1,,,0,,,65,64
293520,note_on,,,,,0,0,1,,,0,,,74,31
293520,note_on,,,,,0,0,1,,,0,,,65,31
293520,note_on,,,,,0,0,1,,,0,,,69,31
293520,note_off,,,,,0,0,1,,,0,,,69,64
293640,note_off,,,,,120,0,2,,,0,,,57,64
293640,note_on,,,,,0,0,1,,,0,,,65,31
293640,note_on,,,,,0,0,1,,,0,,,69,31
293640,note_off,,,,,0,0,1,,,0,,,74,64
293640,note_off,,,,,0,0,1,,,0,,,65,64
293640,note_off,,,,,120,0,1,,,0,,,69,64
293640,note_on,,,,,0,0,1,,,0,,,74,31
293680,set_tempo,,,,,880,1,0,645161,,,,,,
293760,note_off,,,,,120,0,1,,,0,,,74,64
293760,note_off,,,,,0,0,1,,,0,,,69,64
293760,note_off,,,,,0,0,1,,,0,,,65,64
293760,note_on,,,,,0,0,1,,,0,,,69,37
293760,note_on,,,,,0,0,1,,,0,,,65,37
293760,note_on,,,,,0,0,1,,,0,,,73,37
293760,note_on,,,,,120,0,2,,,0,,,45,52
293840,set_tempo,,,,,160,1,0,550459,,,,,,
293880,note_on,,,,,0,0,1,,,0,,,65,33
293880,note_on,,,,,0,0,1,,,0,,,73,33
293880,note_off,,,,,0,0,1,,,0,,,65,64
293880,note_off,,,,,0,0,1,,,0,,,69,64
293880,note_on,,,,,0,0,1,,,0,,,69,33
293880,note_off,,,,,120,0,1,,,0,,,73,64
294000,note_on,,,,,0,0,1,,,0,,,73,29
294000,note_on,,,,,0,0,1,,,0,,,65,29
294000,note_on,,,,,0,0,1,,,0,,,69,29
294000,note_off,,,,,0,0,1,,,0,,,73,64
294000,note_off,,,,,120,0,1,,,0,,,65,64
294000,note_off,,,,,0,0,1,,,0,,,69,64
294120,note_off,,,,,0,0,1,,,0,,,69,64
294120,note_on,,,,,0,0,1,,,0,,,65,21
294120,note_on,,,,,0,0,1,,,0,,,69,21
294120,note_on,,,,,0,0,1,,,0,,,73,21
294120,note_off,,,,,120,0,1,,,0,,,73,64
294120,note_off,,,,,0,0,1,,,0,,,65,64
294240,note_off,,,,,120,0,1,,,0,,,73,64
294240,note_off,,,,,0,0,1,,,0,,,65,64
294240,note_on,,,,,0,0,1,,,0,,,65,35
294240,note_on,,,,,0,0,1,,,0,,,69,35
294240,note_on,,,,,0,0,1,,,0,,,73,35
294240,note_off,,,,,480,0,2,,,0,,,45,64
294240,note_on,,,,,0,0,2,,,0,,,53,42
294240,note_off,,,,,0,0,1,,,0,,,69,64
294360,note_off,,,,,120,0,2,,,0,,,53,64
294360,note_on,,,,,0,0,1,,,0,,,69,31
294360,note_on,,,,,0,0,1,,,0,,,65,31
294360,note_off,,,,,120,0,1,,,0,,,73,64
294360,note_off,,,,,0,0,1,,,0,,,69,64
294360,note_off,,,,,0,0,1,,,0,,,65,64
294360,note_on,,,,,0,0,1,,,0,,,73,31
294480,note_on,,,,,120,0,2,,,0,,,57,38
294480,note_off,,,,,120,0,1,,,0,,,73,64
294480,note_on,,,,,0,0,1,,,0,,,65,29
294480,note_on,,,,,0,0,1,,,0,,,69,29
294480,note_on,,,,,0,0,1,,,0,,,73,29
294480,note_off,,,,,0,0,1,,,0,,,69,64
294480,note_off,,,,,0,0,1,,,0,,,65,64
294600,note_off,,,,,0,0,1,,,0,,,69,64
294600,note_off,,,,,0,0,1,,,0,,,73,64
294600,note_on,,,,,0,0,1,,,0,,,65,25
294600,note_on,,,,,0,0,1,,,0,,,73,25
294600,note_off,,,,,120,0,2,,,0,,,57,64
294600,note_off,,,,,120,0,1,,,0,,,65,64
294600,note_on,,,,,0,0,1,,,0,,,69,25
294640,set_tempo,,,,,800,1,0,612245,,,,,,
294720,note_on,,,,,120,0,2,,,0,,,50,48
294720,note_on,,,,,0,0,1,,,0,,,65,35
294720,note_on,,,,,0,0,1,,,0,,,69,35
294720,note_on,,,,,0,0,1,,,0,,,74,35
294720,note_off,,,,,0,0,1,,,0,,,65,64
294720,note_off,,,,,0,0,1,,,0,,,69,64
294720,note_off,,,,,120,0,1,,,0,,,73,64
294800,set_tempo,,,,,160,1,0,550459,,,,,,
294840,note_on,,,,,0,0,1,,,0,,,74,29
294840,note_off,,,,,120,0,1,,,0,,,65,64
294840,note_on,,,,,0,0,1,,,0,,,69,29
294840,note_off,,,,,0,0,1,,,0,,,69,64
294840,note_off,,,,,0,0,1,,,0,,,74,64
294840,note_on,,,,,0,0,1,,,0,,,65,29
294880,set_tempo,,,,,80,1,0,540541,,,,,,
294960,set_tempo,,,,,80,1,0,545455,,,,,,
294960,note_on,,,,,0,0,1,,,0,,,65,25
294960,note_on,,,,,0,0,1,,,0,,,69,25
294960,note_on,,,,,0,0,1,,,0,,,74,25
294960,note_off,,,,,0,0,1,,,0,,,69,64
294960,note_off,,,,,0,0,1,,,0,,,74,64
294960,note_off,,,,,120,0,1,,,0,,,65,64
295080,note_off,,,,,0,0,1,,,0,,,74,64
295080,note_off,,,,,0,0,1,,,0,,,69,64
295080,note_on,,,,,0,0,1,,,0,,,69,25
295080,note_off,,,,,120,0,1,,,0,,,65,64
295080,note_on,,,,,0,0,1,,,0,,,65,25
295080,note_on,,,,,0,0,1,,,0,,,74,25
295200,note_on,,,,,0,0,2,,,0,,,53,44
295200,note_off,,,,,480,0,2,,,0,,,50,64
295200,note_off,,,,,120,0,1,,,0,,,74,64
295200,note_off,,,,,0,0,1,,,0,,,65,64
295200,note_on,,,,,0,0,1,,,0,,,69,28
295200,note_off,,,,,0,0,1,,,0,,,69,64
295200,note_on,,,,,0,0,1,,,0,,,74,28
295200,note_on,,,,,0,0,1,,,0,,,65,28
295320,note_off,,,,,0,0,1,,,0,,,69,64
295320,note_off,,,,,120,0,1,,,0,,,74,64
295320,note_off,,,,,0,0,1,,,0,,,65,64
295320,note_on,,,,,0,0,1,,,0,,,65,25
295320,note_on,,,,,0,0,1,,,0,,,69,25
295320,note_off,,,,,120,0,2,,,0,,,53,64
295320,note_on,,,,,0,0,1,,,0,,,74,25
295440,note_on,,,,,120,0,2,,,0,,,57,45
295440,note_on,,,,,0,0,1,,,0,,,73,27
295440,note_off,,,,,120,0,1,,,0,,,65,64
295440,note_off,,,,,0,0,1,,,0,,,69,64
295440,note_off,,,,,0,0,1,,,0,,,74,64
295440,note_on,,,,,0,0,1,,,0,,,69,27
295440,note_on,,,,,0,0,1,,,0,,,65,27
295560,note_on,,,,,0,0,1,,,0,,,65,33
295560,note_off,,,,,120,0,1,,,0,,,73,64
295560,note_off,,,,,0,0,1,,,0,,,65,64
295560,note_off,,,,,0,0,1,,,0,,,69,64
295560,note_on,,,,,0,0,1,,,0,,,69,33
295560,note_off,,,,,120,0,2,,,0,,,57,64
295560,note_on,,,,,0,0,1,,,0,,,73,33
295680,note_on,,,,,0,0,1,,,0,,,65,41
295680,note_off,,,,,120,0,1,,,0,,,69,64
295680,note_off,,,,,0,0,1,,,0,,,73,64
295680,note_off,,,,,0,0,1,,,0,,,65,64
295680,note_on,,,,,120,0,2,,,0,,,60,53
295680,note_on,,,,,0,0,1,,,0,,,69,41
295680,note_on,,,,,0,0,1,,,0,,,72,41
295800,note_off,,,,,120,0,2,,,0,,,60,64
295800,note_on,,,,,0,0,2,,,0,,,57,43
295800,note_off,,,,,0,0,1,,,0,,,65,64
295800,note_off,,,,,0,0,1,,,0,,,69,64
295800,note_on,,,,,0,0,1,,,0,,,65,36
295800,note_on,,,,,0,0,1,,,0,,,69,36
295800,note_off,,,,,120,0,1,,,0,,,72,64
295800,note_on,,,,,0,0,1,,,0,,,72,36
295890,note_off,,,,,90,0,2,,,0,,,57,64
295920,note_off,,,,,120,0,1,,,0,,,69,64
295920,note_off,,,,,0,0,1,,,0,,,65,64
295920,note_off,,,,,0,0,1,,,0,,,72,64
295920,note_on,,,,,0,0,1,,,0,,,69,32
295920,note_on,,,,,0,0,1,,,0,,,72,32
295920,note_on,,,,,0,0,1,,,0,,,65,32
295920,note_on,,,,,30,0,2,,,0,,,57,57
296040,note_off,,,,,0,0,1,,,0,,,65,64
296040,note_on,,,,,0,0,1,,,0,,,72,29
296040,note_on,,,,,0,0,1,,,0,,,65,29
296040,note_on,,,,,0,0,2,,,0,,,55,45
296040,note_on,,,,,0,0,1,,,0,,,69,29
296040,note_off,,,,,120,0,2,,,0,,,57,64
296040,note_off,,,,,0,0,1,,,0,,,69,64
296040,note_off,,,,,120,0,1,,,0,,,72,64
296130,note_off,,,,,90,0,2,,,0,,,55,64
296160,note_off,,,,,120,0,1,,,0,,,69,64
296160,note_off,,,,,0,0,1,,,0,,,65,64
296160,note_on,,,,,0,0,1,,,0,,,69,37
296160,note_off,,,,,0,0,1,,,0,,,72,64
296160,note_on,,,,,0,0,1,,,0,,,72,37
296160,note_on,,,,,0,0,1,,,0,,,65,37
296160,note_on,,,,,30,0,2,,,0,,,55,50
296280,note_off,,,,,120,0,2,,,0,,,55,64
296280,note_off,,,,,0,0,1,,,0,,,72,64
296280,note_on,,,,,0,0,1,,,0,,,72,33
296280,note_on,,,,,0,0,1,,,0,,,65,33
296280,note_on,,,,,0,0,1,,,0,,,69,33
296280,note_off,,,,,0,0,1,,,0,,,69,64
296280,note_off,,,,,120,0,1,,,0,,,65,64
296280,note_on,,,,,0,0,2,,,0,,,53,36
296370,note_off,,,,,90,0,2,,,0,,,53,64
296400,note_on,,,,,30,0,2,,,0,,,53,43
296400,note_off,,,,,120,0,1,,,0,,,69,64
296400,note_off,,,,,0,0,1,,,0,,,65,64
296400,note_off,,,,,0,0,1,,,0,,,72,64
296400,note_on,,,,,0,0,1,,,0,,,69,29
296400,note_on,,,,,0,0,1,,,0,,,65,29
296400,note_on,,,,,0,0,1,,,0,,,73,29
296520,note_on,,,,,0,0,1,,,0,,,69,27
296520,note_on,,,,,0,0,1,,,0,,,65,27
296520,note_on,,,,,0,0,1,,,0,,,73,27
296520,note_off,,,,,0,0,1,,,0,,,69,64
296520,note_off,,,,,120,0,1,,,0,,,73,64
296520,note_on,,,,,0,0,2,,,0,,,52,33
296520,note_off,,,,,120,0,2,,,0,,,53,64
296520,note_off,,,,,0,0,1,,,0,,,65,64
296610,note_off,,,,,90,0,2,,,0,,,52,64
296640,note_on,,,,,30,0,2,,,0,,,52,44
296640,note_off,,,,,120,0,1,,,0,,,69,64
296640,note_off,,,,,0,0,1,,,0,,,65,64
296640,note_off,,,,,0,0,1,,,0,,,73,64
296640,note_on,,,,,0,0,1,,,0,,,65,36
296640,note_on,,,,,0,0,1,,,0,,,69,36
296640,note_on,,,,,0,0,1,,,0,,,74,36
296760,note_off,,,,,120,0,1,,,0,,,74,64
296760,note_off,,,,,0,0,1,,,0,,,69,64
296760,note_off,,,,,0,0,1,,,0,,,65,64
296760,note_off,,,,,120,0,2,,,0,,,52,64
296760,note_on,,,,,0,0,1,,,0,,,69,28
296760,note_on,,,,,0,0,2,,,0,,,53,36
296760,note_on,,,,,0,0,1,,,0,,,65,28
296760,note_on,,,,,0,0,1,,,0,,,74,28
296850,note_off,,,,,90,0,2,,,0,,,53,64
296880,note_on,,,,,0,0,1,,,0,,,65,32
296880,note_on,,,,,0,0,1,,,0,,,69,32
296880,note_on,,,,,0,0,1,,,0,,,77,32
296880,note_off,,,,,120,0,1,,,0,,,74,64
296880,note_on,,,,,30,0,2,,,0,,,53,49
296880,note_off,,,,,0,0,1,,,0,,,69,64
296880,note_off,,,,,0,0,1,,,0,,,65,64
297000,note_off,,,,,120,0,2,,,0,,,53,64
297000,note_on,,,,,0,0,2,,,0,,,50,38
297000,note_on,,,,,0,0,1,,,0,,,65,32
297000,note_on,,,,,0,0,1,,,0,,,77,32
297000,note_on,,,,,0,0,1,,,0,,,69,32
297000,note_off,,,,,0,0,1,,,0,,,65,64
297000,note_off,,,,,0,0,1,,,0,,,69,64
297000,note_off,,,,,120,0,1,,,0,,,77,64
297090,note_off,,,,,90,0,2,,,0,,,50,64
297120,note_on,,,,,0,0,1,,,0,,,69,39
297120,note_on,,,,,0,0,1,,,0,,,81,39
297120,note_off,,,,,120,0,1,,,0,,,65,64
297120,note_off,,,,,0,0,1,,,0,,,69,64
297120,note_off,,,,,0,0,1,,,0,,,77,64
297120,note_on,,,,,30,0,2,,,0,,,50,54
297240,note_on,,,,,0,0,2,,,0,,,48,42
297240,note_off,,,,,120,0,1,,,0,,,81,64
297240,note_off,,,,,0,0,1,,,0,,,69,64
297240,note_on,,,,,0,0,1,,,0,,,81,34
297240,note_on,,,,,0,0,1,,,0,,,69,34
297240,note_off,,,,,120,0,2,,,0,,,50,64
297330,note_off,,,,,90,0,2,,,0,,,48,64
297360,note_off,,,,,120,0,1,,,0,,,69,64
297360,note_on,,,,,30,0,2,,,0,,,50,48
297360,note_on,,,,,0,0,1,,,0,,,82,31
297360,note_off,,,,,0,0,1,,,0,,,81,64
297360,note_on,,,,,0,0,1,,,0,,,76,31
297360,note_on,,,,,0,0,1,,,0,,,70,31
297480,note_off,,,,,120,0,2,,,0,,,50,64
297480,note_off,,,,,120,0,1,,,0,,,76,64
297480,note_off,,,,,0,0,1,,,0,,,70,64
297480,note_off,,,,,0,0,1,,,0,,,82,64
297480,note_on,,,,,0,0,1,,,0,,,70,30
297480,note_on,,,,,0,0,1,,,0,,,76,30
297480,note_on,,,,,0,0,1,,,0,,,82,30
297480,note_on,,,,,0,0,2,,,0,,,48,37
297570,note_off,,,,,90,0,2,,,0,,,48,64
297600,note_on,,,,,30,0,2,,,0,,,50,38
297600,note_on,,,,,0,0,1,,,0,,,77,32
297600,note_off,,,,,0,0,1,,,0,,,70,64
297600,note_on,,,,,0,0,1,,,0,,,81,32
297600,note_off,,,,,120,0,1,,,0,,,82,64
297600,note_on,,,,,0,0,1,,,0,,,69,32
297600,note_off,,,,,0,0,1,,,0,,,76,64
297720,note_off,,,,,0,0,1,,,0,,,69,64
297720,note_on,,,,,0,0,1,,,0,,,69,30
297720,note_off,,,,,0,0,1,,,0,,,77,64
297720,note_on,,,,,0,0,1,,,0,,,62,30
297720,note_off,,,,,120,0,1,,,0,,,81,64
297720,note_on,,,,,0,0,1,,,0,,,65,30
297780,note_off,,,,,180,0,2,,,0,,,50,64
297840,note_off,,,,,120,0,1,,,0,,,62,64
297840,note_off,,,,,0,0,1,,,0,,,65,64
297840,note_off,,,,,0,0,1,,,0,,,69,64
297840,note_on,,,,,0,0,1,,,0,,,62,35
297840,note_on,,,,,0,0,1,,,0,,,69,35
297840,note_on,,,,,0,0,1,,,0,,,65,35
297840,set_tempo,,,,,2880,1,0,540541,,,,,,
297960,note_on,,,,,0,0,1,,,0,,,69,38
297960,note_off,,,,,0,0,1,,,0,,,62,64
297960,note_off,,,,,0,0,1,,,0,,,69,64
297960,note_off,,,,,120,0,1,,,0,,,65,64
297960,note_on,,,,,0,0,1,,,0,,,65,38
297960,note_on,,,,,0,0,1,,,0,,,62,38
298080,note_off,,,,,120,0,1,,,0,,,69,64
298080,note_off,,,,,0,0,1,,,0,,,62,64
298080,note_off,,,,,0,0,1,,,0,,,65,64
298080,note_on,,,,,0,0,1,,,0,,,62,37
298080,note_on,,,,,0,0,1,,,0,,,69,37
298080,note_on,,,,,0,0,1,,,0,,,65,37
298200,note_off,,,,,120,0,1,,,0,,,65,64
298200,note_on,,,,,0,0,1,,,0,,,69,31
298200,note_on,,,,,0,0,1,,,0,,,62,31
298200,note_on,,,,,0,0,1,,,0,,,65,31
298200,note_off,,,,,0,0,1,,,0,,,69,64
298200,note_off,,,,,0,0,1,,,0,,,62,64
298320,note_off,,,,,0,0,1,,,0,,,65,64
298320,note_off,,,,,120,0,1,,,0,,,69,64
298320,note_on,,,,,0,0,1,,,0,,,69,28
298320,note_on,,,,,0,0,1,,,0,,,62,28
298320,note_on,,,,,0,0,1,,,0,,,65,28
298320,note_off,,,,,0,0,1,,,0,,,62,64
298440,note_on,,,,,0,0,1,,,0,,,69,28
298440,note_off,,,,,0,0,1,,,0,,,65,64
298440,note_off,,,,,0,0,1,,,0,,,62,64
298440,note_off,,,,,120,0,1,,,0,,,69,64
298440,note_on,,,,,0,0,1,,,0,,,65,28
298440,note_on,,,,,0,0,1,,,0,,,62,28
298530,note_on,,,,,750,0,2,,,0,,,40,38
298560,note_off,,,,,30,0,2,,,0,,,40,64
298560,note_off,,,,,120,0,1,,,0,,,69,64
298560,note_off,,,,,0,0,1,,,0,,,65,64
298560,note_off,,,,,0,0,1,,,0,,,62,64
298560,note_on,,,,,0,0,1,,,0,,,65,35
298560,note_on,,,,,0,0,1,,,0,,,62,35
298560,note_on,,,,,0,0,1,,,0,,,69,35
298560,note_on,,,,,0,0,2,,,0,,,38,42
298590,note_on,,,,,0,0,2,,,0,,,40,36
298590,note_off,,,,,30,0,2,,,0,,,38,64
298620,note_on,,,,,0,0,2,,,0,,,38,39
298620,note_off,,,,,30,0,2,,,0,,,40,64
298650,note_on,,,,,0,0,2,,,0,,,40,41
298650,note_off,,,,,30,0,2,,,0,,,38,64
298680,note_on,,,,,0,0,1,,,0,,,62,30
298680,note_off,,,,,0,0,1,,,0,,,65,64
298680,note_off,,,,,0,0,1,,,0,,,62,64
298680,note_off,,,,,120,0,1,,,0,,,69,64
298680,note_on,,,,,0,0,1,,,0,,,65,30
298680,note_off,,,,,30,0,2,,,0,,,40,64
298680,note_on,,,,,0,0,2,,,0,,,38,42
298680,note_on,,,,,0,0,1,,,0,,,69,30
298710,note_off,,,,,30,0,2,,,0,,,38,64
298710,note_on,,,,,0,0,2,,,0,,,40,43
298740,note_on,,,,,0,0,2,,,0,,,38,43
298740,note_off,,,,,30,0,2,,,0,,,40,64
298770,note_on,,,,,0,0,2,,,0,,,40,44
298770,note_off,,,,,30,0,2,,,0,,,38,64
298800,note_off,,,,,30,0,2,,,0,,,40,64
298800,note_on,,,,,0,0,2,,,0,,,38,46
298800,note_off,,,,,0,0,1,,,0,,,65,64
298800,note_off,,,,,0,0,1,,,0,,,69,64
298800,note_on,,,,,0,0,1,,,0,,,65,35
298800,note_on,,,,,0,0,1,,,0,,,69,35
298800,note_on,,,,,0,0,1,,,0,,,62,35
298800,note_off,,,,,120,0,1,,,0,,,62,64
298830,note_on,,,,,0,0,2,,,0,,,40,46
298830,note_off,,,,,30,0,2,,,0,,,38,64
298860,note_on,,,,,0,0,2,,,0,,,38,46
298860,note_off,,,,,30,0,2,,,0,,,40,64
298890,note_on,,,,,0,0,2,,,0,,,40,47
298890,note_off,,,,,30,0,2,,,0,,,38,64
298920,note_off,,,,,120,0,1,,,0,,,62,64
298920,note_off,,,,,0,0,1,,,0,,,65,64
298920,note_on,,,,,0,0,1,,,0,,,62,38
298920,note_on,,,,,0,0,1,,,0,,,65,38
298920,note_on,,,,,0,0,1,,,0,,,69,38
298920,note_on,,,,,0,0,2,,,0,,,38,49
298920,note_off,,,,,30,0,2,,,0,,,40,64
298920,note_off,,,,,0,0,1,,,0,,,69,64
298950,note_off,,,,,30,0,2,,,0,,,38,64
298950,note_on,,,,,0,0,2,,,0,,,40,49
298980,note_off,,,,,30,0,2,,,0,,,40,64
298980,note_on,,,,,0,0,2,,,0,,,38,50
299010,note_on,,,,,0,0,2,,,0,,,40,50
299010,note_off,,,,,30,0,2,,,0,,,38,64
299040,note_on,,,,,0,0,1,,,0,,,65,42
299040,note_off,,,,,0,0,1,,,0,,,65,64
299040,note_off,,,,,0,0,1,,,0,,,62,64
299040,note_on,,,,,0,0,1,,,0,,,69,42
299040,note_on,,,,,0,0,1,,,0,,,62,42
299040,note_off,,,,,30,0,2,,,0,,,40,64
299040,note_on,,,,,0,0,2,,,0,,,38,50
299040,note_off,,,,,120,0,1,,,0,,,69,64
299070,note_off,,,,,30,0,2,,,0,,,38,64
299070,note_on,,,,,0,0,2,,,0,,,40,49
299100,note_off,,,,,30,0,2,,,0,,,40,64
299100,note_on,,,,,0,0,2,,,0,,,38,47
299130,note_off,,,,,30,0,2,,,0,,,38,64
299130,note_on,,,,,0,0,2,,,0,,,40,45
299160,note_off,,,,,30,0,2,,,0,,,40,64
299160,note_on,,,,,0,0,2,,,0,,,38,44
299160,note_on,,,,,0,0,1,,,0,,,62,39
299160,note_off,,,,,0,0,1,,,0,,,69,64
299160,note_off,,,,,0,0,1,,,0,,,62,64
299160,note_on,,,,,0,0,1,,,0,,,65,39
299160,note_on,,,,,0,0,1,,,0,,,69,39
299160,note_off,,,,,120,0,1,,,0,,,65,64
299190,note_off,,,,,30,0,2,,,0,,,38,64
299190,note_on,,,,,0,0,2,,,0,,,40,44
299220,note_on,,,,,0,0,2,,,0,,,38,42
299220,note_off,,,,,30,0,2,,,0,,,40,64
299250,note_on,,,,,0,0,2,,,0,,,40,42
299250,note_off,,,,,30,0,2,,,0,,,38,64
299280,note_off,,,,,30,0,2,,,0,,,40,64
299280,note_on,,,,,0,0,2,,,0,,,38,41
299280,note_on,,,,,0,0,1,,,0,,,65,36
299280,note_off,,,,,0,0,1,,,0,,,62,64
299280,note_off,,,,,0,0,1,,,0,,,65,64
299280,note_off,,,,,120,0,1,,,0,,,69,64
299280,note_on,,,,,0,0,1,,,0,,,69,36
299280,note_on,,,,,0,0,1,,,0,,,62,36
299310,note_on,,,,,0,0,2,,,0,,,40,40
299310,note_off,,,,,30,0,2,,,0,,,38,64
299340,note_on,,,,,0,0,2,,,0,,,38,39
299340,note_off,,,,,30,0,2,,,0,,,40,64
299370,note_on,,,,,0,0,2,,,0,,,40,37
299370,note_off,,,,,30,0,2,,,0,,,38,64
299400,note_off,,,,,120,0,1,,,0,,,65,64
299400,note_on,,,,,0,0,2,,,0,,,38,36
299400,note_off,,,,,30,0,2,,,0,,,40,64
299400,note_off,,,,,0,0,1,,,0,,,62,64
299400,note_on,,,,,0,0,1,,,0,,,62,32
299400,note_on,,,,,0,0,1,,,0,,,69,32
299400,note_on,,,,,0,0,1,,,0,,,65,32
299400,note_off,,,,,0,0,1,,,0,,,69,64
299430,note_off,,,,,30,0,2,,,0,,,38,64
299430,note_on,,,,,0,0,2,,,0,,,37,35
299460,note_off,,,,,30,0,2,,,0,,,37,64
299460,note_on,,,,,0,0,2,,,0,,,38,36
299490,note_off,,,,,30,0,2,,,0,,,38,64
299490,note_on,,,,,0,0,2,,,0,,,40,38
299520,note_off,,,,,0,0,1,,,0,,,69,64
299520,note_off,,,,,120,0,1,,,0,,,62,64
299520,note_off,,,,,0,0,1,,,0,,,65,64
299520,note_off,,,,,30,0,2,,,0,,,40,64
299520,note_on,,,,,0,0,2,,,0,,,38,40
299520,note_on,,,,,0,0,1,,,0,,,65,30
299520,note_on,,,,,0,0,1,,,0,,,62,30
299520,note_on,,,,,0,0,1,,,0,,,69,30
299640,note_off,,,,,120,0,2,,,0,,,38,64
299640,note_off,,,,,120,0,1,,,0,,,69,64
299640,note_off,,,,,0,0,1,,,0,,,62,64
299640,note_off,,,,,0,0,1,,,0,,,65,64
299640,note_on,,,,,0,0,1,,,0,,,65,27
299640,note_on,,,,,0,0,1,,,0,,,69,27
299640,note_on,,,,,0,0,1,,,0,,,62,27
299760,note_on,,,,,0,0,1,,,0,,,65,26
299760,note_on,,,,,0,0,1,,,0,,,69,26
299760,note_on,,,,,0,0,1,,,0,,,62,26
299760,note_off,,,,,120,0,1,,,0,,,62,64
299760,note_off,,,,,0,0,1,,,0,,,69,64
299760,note_off,,,,,0,0,1,,,0,,,65,64
299880,note_off,,,,,0,0,1,,,0,,,65,64
299880,note_off,,,,,0,0,1,,,0,,,69,64
299880,note_off,,,,,120,0,1,,,0,,,62,64
299880,note_on,,,,,0,0,1,,,0,,,62,25
299880,note_on,,,,,0,0,1,,,0,,,65,25
299880,note_on,,,,,0,0,1,,,0,,,69,25
300000,note_off,,,,,0,0,1,,,0,,,62,64
300000,note_on,,,,,0,0,1,,,0,,,65,27
300000,note_on,,,,,0,0,1,,,0,,,62,27
300000,note_on,,,,,0,0,1,,,0,,,69,27
300000,note_off,,,,,0,0,1,,,0,,,69,64
300000,note_off,,,,,120,0,1,,,0,,,65,64
300120,note_off,,,,,0,0,1,,,0,,,69,64
300120,note_off,,,,,0,0,1,,,0,,,62,64
300120,note_off,,,,,120,0,1,,,0,,,65,64
300120,note_on,,,,,0,0,1,,,0,,,65,24
300120,note_on,,,,,0,0,1,,,0,,,62,24
300120,note_on,,,,,0,0,1,,,0,,,69,24
300240,note_on,,,,,0,0,1,,,0,,,62,22
300240,note_on,,,,,0,0,1,,,0,,,65,22
300240,note_on,,,,,0,0,1,,,0,,,69,22
300240,note_off,,,,,0,0,1,,,0,,,62,64
300240,note_off,,,,,0,0,1,,,0,,,65,64
300240,note_off,,,,,120,0,1,,,0,,,69,64
300240,note_on,,,,,600,0,2,,,0,,,77,46
300360,note_off,,,,,0,0,1,,,0,,,69,64
300360,note_on,,,,,0,0,1,,,0,,,62,20
300360,note_on,,,,,0,0,1,,,0,,,69,20
300360,note_on,,,,,0,0,1,,,0,,,65,20
300360,note_off,,,,,120,0,1,,,0,,,62,64
300360,note_off,,,,,0,0,1,,,0,,,65,64
300480,note_off,,,,,120,0,1,,,0,,,65,64
300480,note_off,,,,,0,0,1,,,0,,,69,64
300480,note_off,,,,,0,0,1,,,0,,,62,64
300480,note_on,,,,,0,0,1,,,0,,,62,24
300480,note_on,,,,,0,0,1,,,0,,,65,24
300480,note_on,,,,,0,0,1,,,0,,,69,24
300480,note_off,,,,,240,0,2,,,0,,,77,64
300480,note_on,,,,,0,0,2,,,0,,,77,54
300600,note_on,,,,,0,0,1,,,0,,,65,20
300600,note_off,,,,,120,0,1,,,0,,,65,64
300600,note_off,,,,,0,0,1,,,0,,,62,64
300600,note_off,,,,,0,0,1,,,0,,,69,64
300600,note_on,,,,,0,0,1,,,0,,,62,20
300600,note_on,,,,,0,0,1,,,0,,,69,20
300720,note_off,,,,,120,0,1,,,0,,,65,64
300720,note_off,,,,,0,0,1,,,0,,,62,64
300720,note_on,,,,,0,0,1,,,0,,,62,19
300720,note_on,,,,,0,0,1,,,0,,,69,19
300720,note_on,,,,,0,0,1,,,0,,,65,19
300720,note_off,,,,,0,0,1,,,0,,,69,64
300720,note_on,,,,,0,0,2,,,0,,,76,45
300720,note_off,,,,,240,0,2,,,0,,,77,64
300840,note_off,,,,,120,0,1,,,0,,,65,64
300840,note_off,,,,,0,0,1,,,0,,,69,64
300840,note_off,,,,,0,0,1,,,0,,,62,64
300840,note_on,,,,,0,0,1,,,0,,,65,16
300840,note_on,,,,,0,0,1,,,0,,,62,16
300840,note_on,,,,,0,0,1,,,0,,,69,16
300900,set_tempo,,,,,3060,1,0,566038,,,,,,
300960,note_on,,,,,0,0,1,,,0,,,69,22
300960,note_on,,,,,0,0,1,,,0,,,62,22
300960,note_off,,,,,0,0,1,,,0,,,65,64
300960,note_off,,,,,0,0,1,,,0,,,62,64
300960,note_off,,,,,120,0,1,,,0,,,69,64
300960,note_on,,,,,0,0,1,,,0,,,65,22
300960,note_on,,,,,0,0,2,,,0,,,77,49
300960,note_off,,,,,240,0,2,,,0,,,76,64
301080,note_on,,,,,0,0,1,,,0,,,65,18
301080,note_off,,,,,120,0,1,,,0,,,69,64
301080,note_off,,,,,0,0,1,,,0,,,65,64
301080,note_off,,,,,0,0,1,,,0,,,62,64
301080,note_on,,,,,0,0,1,,,0,,,69,18
301080,note_on,,,,,0,0,1,,,0,,,62,18
301200,note_on,,,,,0,0,1,,,0,,,65,16
301200,note_on,,,,,0,0,1,,,0,,,69,16
301200,note_on,,,,,0,0,1,,,0,,,62,16
301200,note_off,,,,,0,0,1,,,0,,,69,64
301200,note_on,,,,,0,0,2,,,0,,,79,53
301200,note_off,,,,,120,0,1,,,0,,,65,64
301200,note_off,,,,,240,0,2,,,0,,,77,64
301200,note_off,,,,,0,0,1,,,0,,,62,64
301220,set_tempo,,,,,320,1,0,560748,,,,,,
301320,note_on,,,,,0,0,1,,,0,,,65,15
301320,note_off,,,,,120,0,1,,,0,,,65,64
301320,note_off,,,,,0,0,1,,,0,,,69,64
301320,note_off,,,,,0,0,1,,,0,,,62,64
301320,note_on,,,,,0,0,1,,,0,,,69,15
301320,note_on,,,,,0,0,1,,,0,,,62,15
301440,note_off,,,,,0,0,1,,,0,,,62,64
301440,note_on,,,,,0,0,2,,,0,,,81,54
301440,note_off,,,,,120,0,1,,,0,,,69,64
301440,note_off,,,,,0,0,1,,,0,,,65,64
301440,note_on,,,,,0,0,1,,,0,,,69,25
301440,note_on,,,,,0,0,1,,,0,,,62,25
301440,note_on,,,,,0,0,1,,,0,,,65,25
301440,note_off,,,,,240,0,2,,,0,,,79,64
301560,note_on,,,,,0,0,1,,,0,,,69,19
301560,note_on,,,,,0,0,1,,,0,,,62,19
301560,note_off,,,,,0,0,1,,,0,,,69,64
301560,note_off,,,,,0,0,1,,,0,,,62,64
301560,note_off,,,,,120,0,1,,,0,,,65,64
301560,note_on,,,,,0,0,1,,,0,,,65,19
301680,note_off,,,,,120,0,1,,,0,,,65,64
301680,note_off,,,,,0,0,1,,,0,,,69,64
301680,note_off,,,,,0,0,1,,,0,,,62,64
301680,note_on,,,,,0,0,1,,,0,,,69,19
301680,note_on,,,,,0,0,1,,,0,,,65,19
301680,note_on,,,,,0,0,1,,,0,,,61,19
301800,note_off,,,,,0,0,1,,,0,,,65,64
301800,note_on,,,,,0,0,1,,,0,,,65,20
301800,note_on,,,,,0,0,1,,,0,,,69,20
301800,note_off,,,,,0,0,1,,,0,,,69,64
301800,note_on,,,,,0,0,1,,,0,,,61,20
301800,note_off,,,,,120,0,1,,,0,,,61,64
301900,set_tempo,,,,,680,1,0,550459,,,,,,
301920,note_off,,,,,120,0,1,,,0,,,65,64
301920,note_off,,,,,0,0,1,,,0,,,61,64
301920,note_off,,,,,0,0,1,,,0,,,69,64
301920,note_on,,,,,0,0,1,,,0,,,65,25
301920,note_on,,,,,0,0,1,,,0,,,69,25
301920,note_on,,,,,0,0,1,,,0,,,60,25
302040,note_on,,,,,0,0,1,,,0,,,65,18
302040,note_on,,,,,0,0,1,,,0,,,60,18
302040,note_off,,,,,0,0,1,,,0,,,65,64
302040,note_off,,,,,120,0,1,,,0,,,60,64
302040,note_on,,,,,0,0,1,,,0,,,69,18
302040,note_off,,,,,0,0,1,,,0,,,69,64
302100,set_tempo,,,,,200,1,0,535714,,,,,,
302160,note_off,,,,,120,0,1,,,0,,,65,64
302160,note_off,,,,,0,0,1,,,0,,,60,64
302160,note_off,,,,,0,0,1,,,0,,,69,64
302160,note_on,,,,,0,0,1,,,0,,,65,20
302160,note_on,,,,,0,0,1,,,0,,,69,20
302160,note_on,,,,,0,0,1,,,0,,,59,20
302160,note_off,,,,,720,0,2,,,0,,,81,64
302160,note_on,,,,,0,0,2,,,0,,,79,43
302220,set_tempo,,,,,120,1,0,566038,,,,,,
302280,note_on,,,,,0,0,2,,,0,,,77,46
302280,note_on,,,,,0,0,1,,,0,,,65,21
302280,note_on,,,,,0,0,1,,,0,,,69,21
302280,note_on,,,,,0,0,1,,,0,,,59,21
302280,note_off,,,,,0,0,1,,,0,,,65,64
302280,note_off,,,,,120,0,1,,,0,,,59,64
302280,note_off,,,,,120,0,2,,,0,,,79,64
302280,note_off,,,,,0,0,1,,,0,,,69,64
302300,set_tempo,,,,,80,1,0,600000,,,,,,
302360,set_tempo,,,,,60,1,0,606061,,,,,,
302380,set_tempo,,,,,20,1,0,612245,,,,,,
302400,note_on,,,,,0,0,2,,,0,,,79,50
302400,note_on,,,,,0,0,1,,,0,,,58,25
302400,note_on,,,,,0,0,1,,,0,,,65,25
302400,note_off,,,,,0,0,1,,,0,,,69,64
302400,note_off,,,,,0,0,1,,,0,,,59,64
302400,note_off,,,,,120,0,1,,,0,,,65,64
302400,note_off,,,,,120,0,2,,,0,,,77,64
302400,note_on,,,,,0,0,1,,,0,,,67,25
302440,set_tempo,,,,,60,1,0,582524,,,,,,
302520,note_on,,,,,0,0,1,,,0,,,58,19
302520,set_tempo,,,,,80,1,0,560748,,,,,,
302520,note_on,,,,,0,0,1,,,0,,,65,19
302520,note_off,,,,,120,0,1,,,0,,,58,64
302520,note_on,,,,,0,0,1,,,0,,,67,19
302520,note_off,,,,,0,0,1,,,0,,,65,64
302520,note_off,,,,,0,0,1,,,0,,,67,64
302540,set_tempo,,,,,20,1,0,550459,,,,,,
302580,note_off,,,,,180,0,2,,,0,,,79,64
302600,set_tempo,,,,,60,1,0,535714,,,,,,
302640,note_on,,,,,0,0,1,,,0,,,62,22
302640,note_on,,,,,0,0,1,,,0,,,67,22
302640,note_off,,,,,0,0,1,,,0,,,65,64
302640,note_off,,,,,0,0,1,,,0,,,67,64
302640,note_off,,,,,120,0,1,,,0,,,58,64
302640,note_on,,,,,0,0,1,,,0,,,58,22
302640,note_on,,,,,60,0,2,,,0,,,79,43
302760,note_on,,,,,0,0,1,,,0,,,62,23
302760,note_on,,,,,0,0,1,,,0,,,67,23
302760,set_tempo,,,,,160,1,0,540541,,,,,,
302760,note_off,,,,,0,0,1,,,0,,,67,64
302760,note_off,,,,,0,0,1,,,0,,,62,64
302760,note_off,,,,,120,0,1,,,0,,,58,64
302760,note_on,,,,,0,0,1,,,0,,,58,23
302820,note_off,,,,,180,0,2,,,0,,,79,64
302880,note_on,,,,,0,0,1,,,0,,,64,23
302880,note_on,,,,,0,0,1,,,0,,,58,23
302880,note_on,,,,,0,0,1,,,0,,,67,23
302880,note_off,,,,,0,0,1,,,0,,,67,64
302880,note_off,,,,,120,0,1,,,0,,,58,64
302880,note_on,,,,,60,0,2,,,0,,,79,52
302880,note_off,,,,,0,0,1,,,0,,,62,64
303000,note_off,,,,,0,0,1,,,0,,,67,64
303000,note_on,,,,,0,0,1,,,0,,,58,22
303000,note_on,,,,,0,0,1,,,0,,,67,22
303000,note_on,,,,,0,0,1,,,0,,,64,22
303000,note_off,,,,,0,0,1,,,0,,,64,64
303000,note_off,,,,,120,0,1,,,0,,,58,64
303060,note_off,,,,,180,0,2,,,0,,,79,64
303080,set_tempo,,,,,320,1,0,560748,,,,,,
303120,note_on,,,,,0,0,1,,,0,,,57,20
303120,note_on,,,,,0,0,1,,,0,,,67,20
303120,note_off,,,,,0,0,1,,,0,,,64,64
303120,note_off,,,,,0,0,1,,,0,,,67,64
303120,note_on,,,,,0,0,1,,,0,,,61,20
303120,note_on,,,,,60,0,2,,,0,,,77,41
303120,note_off,,,,,120,0,1,,,0,,,58,64
303160,set_tempo,,,,,80,1,0,550459,,,,,,
303240,note_off,,,,,120,0,2,,,0,,,77,64
303240,note_on,,,,,0,0,2,,,0,,,76,37
303240,set_tempo,,,,,80,1,0,571429,,,,,,
303240,note_off,,,,,0,0,1,,,0,,,57,64
303240,note_off,,,,,0,0,1,,,0,,,67,64
303240,note_on,,,,,0,0,1,,,0,,,61,20
303240,note_on,,,,,0,0,1,,,0,,,67,20
303240,note_off,,,,,120,0,1,,,0,,,61,64
303240,note_on,,,,,0,0,1,,,0,,,57,20
303300,set_tempo,,,,,60,1,0,576923,,,,,,
303360,note_on,,,,,0,0,1,,,0,,,65,26
303360,note_off,,,,,120,0,1,,,0,,,57,64
303360,note_on,,,,,0,0,1,,,0,,,62,26
303360,note_off,,,,,0,0,1,,,0,,,61,64
303360,note_on,,,,,0,0,2,,,0,,,77,35
303360,note_off,,,,,120,0,2,,,0,,,76,64
303360,note_off,,,,,0,0,1,,,0,,,67,64
303380,set_tempo,,,,,80,1,0,618557,,,,,,
303420,set_tempo,,,,,40,1,0,576923,,,,,,
303480,note_off,,,,,120,0,1,,,0,,,65,64
303480,note_on,,,,,0,0,1,,,0,,,65,20
303480,note_off,,,,,0,0,1,,,0,,,62,64
303480,note_on,,,,,0,0,1,,,0,,,62,20
303540,set_tempo,,,,,120,1,0,550459,,,,,,
303600,note_on,,,,,0,0,1,,,0,,,65,20
303600,note_on,,,,,0,0,1,,,0,,,62,20
303600,note_off,,,,,0,0,1,,,0,,,62,64
303600,note_off,,,,,120,0,1,,,0,,,65,64
303600,note_off,,,,,240,0,2,,,0,,,77,64
303720,note_on,,,,,0,0,1,,,0,,,62,25
303720,note_on,,,,,0,0,1,,,0,,,65,25
303720,note_off,,,,,0,0,1,,,0,,,62,64
303720,note_off,,,,,120,0,1,,,0,,,65,64
303840,note_on,,,,,0,0,1,,,0,,,69,28
303840,set_tempo,,,,,300,1,0,535714,,,,,,
303840,note_off,,,,,0,0,1,,,0,,,65,64
303840,note_off,,,,,120,0,1,,,0,,,62,64
303840,note_on,,,,,0,0,1,,,0,,,62,28
303840,note_on,,,,,0,0,1,,,0,,,65,28
303960,note_on,,,,,0,0,1,,,0,,,62,25
303960,note_on,,,,,0,0,1,,,0,,,65,25
303960,note_off,,,,,0,0,1,,,0,,,62,64
303960,note_off,,,,,0,0,1,,,0,,,65,64
303960,note_off,,,,,120,0,1,,,0,,,69,64
303960,note_on,,,,,0,0,1,,,0,,,69,25
304060,set_tempo,,,,,220,1,0,526316,,,,,,
304080,note_off,,,,,120,0,1,,,0,,,65,64
304080,note_off,,,,,0,0,1,,,0,,,69,64
304080,note_on,,,,,0,0,1,,,0,,,62,23
304080,note_on,,,,,0,0,1,,,0,,,69,23
304080,note_on,,,,,0,0,1,,,0,,,65,23
304080,note_off,,,,,0,0,1,,,0,,,62,64
304200,note_off,,,,,120,0,1,,,0,,,65,64
304200,note_on,,,,,0,0,1,,,0,,,69,21
304200,note_off,,,,,0,0,1,,,0,,,62,64
304200,note_off,,,,,0,0,1,,,0,,,69,64
304200,note_on,,,,,0,0,1,,,0,,,62,21
304200,note_on,,,,,0,0,1,,,0,,,65,21
304290,note_on,,,,,690,0,2,,,0,,,40,38
304300,set_tempo,,,,,240,1,0,508475,,,,,,
304320,note_off,,,,,30,0,2,,,0,,,40,64
304320,note_on,,,,,0,0,2,,,0,,,38,42
304320,note_off,,,,,120,0,1,,,0,,,69,64
304320,note_off,,,,,0,0,1,,,0,,,65,64
304320,note_off,,,,,0,0,1,,,0,,,62,64
304320,note_on,,,,,0,0,1,,,0,,,65,27
304320,note_on,,,,,0,0,1,,,0,,,62,27
304320,note_on,,,,,0,0,1,,,0,,,69,27
304350,note_off,,,,,30,0,2,,,0,,,38,64
304350,note_on,,,,,0,0,2,,,0,,,40,36
304380,note_on,,,,,0,0,2,,,0,,,38,39
304380,note_off,,,,,30,0,2,,,0,,,40,64
304410,note_off,,,,,30,0,2,,,0,,,38,64
304410,note_on,,,,,0,0,2,,,0,,,40,41
304440,note_off,,,,,0,0,1,,,0,,,62,64
304440,note_on,,,,,0,0,1,,,0,,,62,23
304440,note_on,,,,,0,0,1,,,0,,,69,23
304440,note_off,,,,,30,0,2,,,0,,,40,64
304440,note_on,,,,,0,0,2,,,0,,,38,42
304440,note_off,,,,,120,0,1,,,0,,,69,64
304440,note_off,,,,,0,0,1,,,0,,,65,64
304440,note_on,,,,,0,0,1,,,0,,,65,23
304470,note_off,,,,,30,0,2,,,0,,,38,64
304470,note_on,,,,,0,0,2,,,0,,,40,43
304500,note_off,,,,,30,0,2,,,0,,,40,64
304500,note_on,,,,,0,0,2,,,0,,,38,43
304530,note_off,,,,,30,0,2,,,0,,,38,64
304530,note_on,,,,,0,0,2,,,0,,,40,44
304560,note_on,,,,,0,0,2,,,0,,,38,46
304560,note_off,,,,,30,0,2,,,0,,,40,64
304560,note_off,,,,,0,0,1,,,0,,,69,64
304560,note_off,,,,,120,0,1,,,0,,,62,64
304560,note_off,,,,,0,0,1,,,0,,,65,64
304560,note_on,,,,,0,0,1,,,0,,,62,29
304560,note_on,,,,,0,0,1,,,0,,,69,29
304560,note_on,,,,,0,0,1,,,0,,,65,29
304590,note_off,,,,,30,0,2,,,0,,,38,64
304590,note_on,,,,,0,0,2,,,0,,,40,46
304620,note_off,,,,,30,0,2,,,0,,,40,64
304620,note_on,,,,,0,0,2,,,0,,,38,46
304650,note_on,,,,,0,0,2,,,0,,,40,47
304650,note_off,,,,,30,0,2,,,0,,,38,64
304680,note_off,,,,,0,0,1,,,0,,,65,64
304680,note_off,,,,,0,0,1,,,0,,,69,64
304680,note_on,,,,,0,0,1,,,0,,,62,29
304680,note_on,,,,,0,0,1,,,0,,,65,29
304680,note_on,,,,,0,0,1,,,0,,,69,29
304680,note_off,,,,,30,0,2,,,0,,,40,64
304680,note_on,,,,,0,0,2,,,0,,,38,49
304680,note_off,,,,,120,0,1,,,0,,,62,64
304710,note_off,,,,,30,0,2,,,0,,,38,64
304710,note_on,,,,,0,0,2,,,0,,,40,49
304740,note_on,,,,,0,0,2,,,0,,,38,50
304740,note_off,,,,,30,0,2,,,0,,,40,64
304760,set_tempo,,,,,460,1,0,526316,,,,,,
304770,note_off,,,,,30,0,2,,,0,,,38,64
304770,note_on,,,,,0,0,2,,,0,,,40,50
304800,note_off,,,,,0,0,1,,,0,,,62,64
304800,note_off,,,,,120,0,1,,,0,,,69,64
304800,note_on,,,,,0,0,1,,,0,,,69,27
304800,note_off,,,,,0,0,1,,,0,,,65,64
304800,note_on,,,,,0,0,1,,,0,,,62,27
304800,note_on,,,,,0,0,2,,,0,,,38,50
304800,note_off,,,,,30,0,2,,,0,,,40,64
304800,note_on,,,,,0,0,1,,,0,,,65,27
304830,note_on,,,,,0,0,2,,,0,,,40,49
304830,note_off,,,,,30,0,2,,,0,,,38,64
304860,note_on,,,,,0,0,2,,,0,,,38,47
304860,note_off,,,,,30,0,2,,,0,,,40,64
304880,set_tempo,,,,,120,1,0,540541,,,,,,
304890,note_on,,,,,0,0,2,,,0,,,40,45
304890,note_off,,,,,30,0,2,,,0,,,38,64
304920,note_on,,,,,0,0,1,,,0,,,65,25
304920,note_on,,,,,0,0,1,,,0,,,69,25
304920,note_off,,,,,0,0,1,,,0,,,69,64
304920,note_off,,,,,0,0,1,,,0,,,62,64
304920,note_off,,,,,120,0,1,,,0,,,65,64
304920,note_on,,,,,0,0,2,,,0,,,38,44
304920,note_off,,,,,30,0,2,,,0,,,40,64
304920,note_on,,,,,0,0,1,,,0,,,62,25
304950,note_on,,,,,0,0,2,,,0,,,40,44
304950,note_off,,,,,30,0,2,,,0,,,38,64
304980,note_on,,,,,0,0,2,,,0,,,38,42
304980,note_off,,,,,30,0,2,,,0,,,40,64
305010,note_off,,,,,30,0,2,,,0,,,38,64
305010,note_on,,,,,0,0,2,,,0,,,40,42
305020,set_tempo,,,,,140,1,0,545455,,,,,,
305040,note_on,,,,,0,0,2,,,0,,,38,41
305040,note_off,,,,,120,0,1,,,0,,,69,64
305040,note_off,,,,,0,0,1,,,0,,,65,64
305040,note_on,,,,,0,0,1,,,0,,,69,23
305040,note_off,,,,,0,0,1,,,0,,,62,64
305040,note_on,,,,,0,0,1,,,0,,,65,23
305040,note_off,,,,,30,0,2,,,0,,,40,64
305040,set_tempo,,,,,20,1,0,560748,,,,,,
305040,note_on,,,,,0,0,1,,,0,,,62,23
305060,set_tempo,,,,,20,1,0,582524,,,,,,
305070,note_off,,,,,30,0,2,,,0,,,38,64
305070,note_on,,,,,0,0,2,,,0,,,40,40
305100,note_off,,,,,30,0,2,,,0,,,40,64
305100,note_on,,,,,0,0,2,,,0,,,38,39
305120,set_tempo,,,,,60,1,0,612245,,,,,,
305130,note_off,,,,,30,0,2,,,0,,,38,64
305130,note_on,,,,,0,0,2,,,0,,,40,37
305160,note_off,,,,,30,0,2,,,0,,,40,64
305160,note_off,,,,,0,0,1,,,0,,,62,64
305160,note_off,,,,,0,0,1,,,0,,,69,64
305160,note_on,,,,,0,0,1,,,0,,,65,23
305160,note_on,,,,,0,0,1,,,0,,,69,23
305160,note_on,,,,,0,0,1,,,0,,,62,23
305160,note_on,,,,,0,0,2,,,0,,,38,36
305160,note_off,,,,,120,0,1,,,0,,,65,64
305160,set_tempo,,,,,40,1,0,631579,,,,,,
305190,note_off,,,,,30,0,2,,,0,,,38,64
305190,note_on,,,,,0,0,2,,,0,,,40,35
305220,note_off,,,,,30,0,2,,,0,,,40,64
305220,note_on,,,,,0,0,2,,,0,,,38,36
305220,set_tempo,,,,,60,1,0,705882,,,,,,
305250,note_on,,,,,0,0,2,,,0,,,36,38
305250,note_off,,,,,30,0,2,,,0,,,38,64
305280,note_off,,,,,30,0,2,,,0,,,36,64
305280,note_off,,,,,120,0,1,,,0,,,62,64
305280,note_off,,,,,0,0,1,,,0,,,69,64
305280,note_on,,,,,0,0,1,,,0,,,62,30
305280,note_off,,,,,0,0,1,,,0,,,65,64
305280,note_on,,,,,0,0,1,,,0,,,70,27
305280,note_on,,,,,0,0,2,,,0,,,34,40
305280,note_on,,,,,0,0,1,,,0,,,65,30
305320,set_tempo,,,,,100,1,0,645161,,,,,,
305340,set_tempo,,,,,20,1,0,631579,,,,,,
305400,note_off,,,,,0,0,1,,,0,,,70,64
305400,note_off,,,,,120,0,2,,,0,,,34,64
305400,note_off,,,,,120,0,1,,,0,,,62,64
305400,note_on,,,,,0,0,1,,,0,,,65,32
305400,note_on,,,,,0,0,1,,,0,,,70,24
305400,note_off,,,,,0,0,1,,,0,,,65,64
305400,note_on,,,,,0,0,1,,,0,,,62,32
305420,set_tempo,,,,,80,1,0,618557,,,,,,
305480,set_tempo,,,,,60,1,0,582524,,,,,,
305520,note_off,,,,,0,0,1,,,0,,,65,64
305520,note_off,,,,,120,0,1,,,0,,,62,64
305520,note_off,,,,,0,0,1,,,0,,,70,64
305520,note_on,,,,,0,0,1,,,0,,,62,34
305520,note_on,,,,,0,0,1,,,0,,,70,27
305520,note_on,,,,,0,0,1,,,0,,,65,34
305580,set_tempo,,,,,100,1,0,560748,,,,,,
305640,note_on,,,,,0,0,1,,,0,,,62,34
305640,note_off,,,,,120,0,1,,,0,,,65,64
305640,note_off,,,,,0,0,1,,,0,,,70,64
305640,note_off,,,,,0,0,1,,,0,,,62,64
305640,note_on,,,,,0,0,1,,,0,,,70,31
305640,note_on,,,,,0,0,1,,,0,,,65,34
305760,note_on,,,,,0,0,1,,,0,,,62,37
305760,note_on,,,,,0,0,1,,,0,,,70,33
305760,note_off,,,,,0,0,1,,,0,,,70,64
305760,note_on,,,,,0,0,1,,,0,,,65,37
305760,note_off,,,,,120,0,1,,,0,,,62,64
305760,note_off,,,,,0,0,1,,,0,,,65,64
305880,note_off,,,,,120,0,1,,,0,,,62,64
305880,note_off,,,,,0,0,1,,,0,,,65,64
305880,note_off,,,,,0,0,1,,,0,,,70,64
305880,note_on,,,,,0,0,1,,,0,,,62,37
305880,note_on,,,,,0,0,1,,,0,,,70,28
305880,note_on,,,,,0,0,1,,,0,,,65,37
306000,note_on,,,,,0,0,1,,,0,,,70,24
306000,note_on,,,,,0,0,1,,,0,,,65,35
306000,note_on,,,,,0,0,1,,,0,,,62,35
306000,note_off,,,,,0,0,1,,,0,,,62,64
306000,note_on,,,,,600,0,2,,,0,,,82,43
306000,note_off,,,,,120,0,1,,,0,,,65,64
306000,note_off,,,,,0,0,1,,,0,,,70,64
306120,note_on,,,,,0,0,1,,,0,,,65,33
306120,note_off,,,,,120,0,1,,,0,,,62,64
306120,note_off,,,,,0,0,1,,,0,,,65,64
306120,note_off,,,,,0,0,1,,,0,,,70,64
306120,note_on,,,,,0,0,1,,,0,,,62,33
306120,note_on,,,,,0,0,1,,,0,,,70,19
306200,set_tempo,,,,,620,1,0,652174,,,,,,
306240,note_on,,,,,0,0,1,,,0,,,62,34
306240,note_on,,,,,0,0,2,,,0,,,82,49
306240,note_off,,,,,0,0,1,,,0,,,62,64
306240,note_on,,,,,0,0,1,,,0,,,70,34
306240,note_off,,,,,120,0,1,,,0,,,70,64
306240,note_on,,,,,0,0,1,,,0,,,65,34
306240,note_off,,,,,240,0,2,,,0,,,82,64
306240,note_off,,,,,0,0,1,,,0,,,65,64
306280,set_tempo,,,,,80,1,0,566038,,,,,,
306360,note_off,,,,,120,0,1,,,0,,,70,64
306360,note_off,,,,,0,0,1,,,0,,,65,64
306360,note_off,,,,,0,0,1,,,0,,,62,64
306360,note_on,,,,,0,0,1,,,0,,,62,28
306360,note_on,,,,,0,0,1,,,0,,,70,28
306360,note_on,,,,,0,0,1,,,0,,,65,28
306480,note_off,,,,,240,0,2,,,0,,,82,64
306480,note_on,,,,,0,0,2,,,0,,,81,42
306480,note_on,,,,,0,0,1,,,0,,,65,25
306480,note_on,,,,,0,0,1,,,0,,,72,25
306480,note_on,,,,,0,0,1,,,0,,,62,25
306480,note_off,,,,,0,0,1,,,0,,,62,64
306480,note_off,,,,,0,0,1,,,0,,,70,64
306480,note_off,,,,,120,0,1,,,0,,,65,64
306600,note_off,,,,,0,0,1,,,0,,,62,64
306600,note_on,,,,,0,0,1,,,0,,,62,25
306600,note_on,,,,,0,0,1,,,0,,,65,25
306600,note_on,,,,,0,0,1,,,0,,,72,25
306600,note_off,,,,,120,0,1,,,0,,,72,64
306600,note_off,,,,,0,0,1,,,0,,,65,64
306720,note_on,,,,,0,0,2,,,0,,,82,47
306720,note_off,,,,,240,0,2,,,0,,,81,64
306720,note_on,,,,,0,0,1,,,0,,,74,29
306720,note_on,,,,,0,0,1,,,0,,,65,29
306720,note_on,,,,,0,0,1,,,0,,,62,29
306720,note_off,,,,,0,0,1,,,0,,,65,64
306720,note_off,,,,,0,0,1,,,0,,,62,64
306720,note_off,,,,,120,0,1,,,0,,,72,64
306840,note_off,,,,,0,0,1,,,0,,,65,64
306840,note_on,,,,,0,0,1,,,0,,,74,26
306840,note_on,,,,,0,0,1,,,0,,,62,26
306840,note_on,,,,,0,0,1,,,0,,,65,26
306840,note_off,,,,,0,0,1,,,0,,,62,64
306840,note_off,,,,,120,0,1,,,0,,,74,64
306880,set_tempo,,,,,600,1,0,571429,,,,,,
306960,note_off,,,,,120,0,1,,,0,,,74,64
306960,note_off,,,,,0,0,1,,,0,,,62,64
306960,note_off,,,,,0,0,1,,,0,,,65,64
306960,note_on,,,,,0,0,1,,,0,,,69,21
306960,note_on,,,,,0,0,1,,,0,,,65,21
306960,note_on,,,,,0,0,1,,,0,,,62,21
306960,note_off,,,,,240,0,2,,,0,,,82,64
306960,note_on,,,,,0,0,2,,,0,,,84,48
307040,set_tempo,,,,,160,1,0,588235,,,,,,
307080,note_on,,,,,0,0,1,,,0,,,69,18
307080,note_on,,,,,0,0,1,,,0,,,65,18
307080,note_on,,,,,0,0,1,,,0,,,62,18
307080,note_off,,,,,0,0,1,,,0,,,62,64
307080,note_off,,,,,0,0,1,,,0,,,69,64
307080,note_off,,,,,120,0,1,,,0,,,65,64
307140,set_tempo,,,,,100,1,0,618557,,,,,,
307200,note_on,,,,,0,0,1,,,0,,,65,25
307200,note_on,,,,,0,0,2,,,0,,,86,48
307200,note_off,,,,,240,0,2,,,0,,,84,64
307200,note_off,,,,,120,0,1,,,0,,,69,64
307200,note_off,,,,,0,0,1,,,0,,,65,64
307200,note_off,,,,,0,0,1,,,0,,,62,64
307200,note_on,,,,,0,0,1,,,0,,,62,25
307200,note_on,,,,,0,0,1,,,0,,,70,25
307280,set_tempo,,,,,140,1,0,576923,,,,,,
307320,note_off,,,,,0,0,1,,,0,,,62,64
307320,note_on,,,,,0,0,1,,,0,,,62,19
307320,note_on,,,,,0,0,1,,,0,,,70,19
307320,note_on,,,,,0,0,1,,,0,,,65,19
307320,note_off,,,,,120,0,1,,,0,,,70,64
307320,note_off,,,,,0,0,1,,,0,,,65,64
307440,note_off,,,,,0,0,1,,,0,,,70,64
307440,note_on,,,,,0,0,1,,,0,,,62,19
307440,note_off,,,,,120,0,1,,,0,,,65,64
307440,note_off,,,,,0,0,1,,,0,,,62,64
307440,note_on,,,,,0,0,1,,,0,,,70,19
307440,note_on,,,,,0,0,1,,,0,,,65,19
307560,note_on,,,,,0,0,1,,,0,,,70,20
307560,note_on,,,,,0,0,1,,,0,,,62,20
307560,note_on,,,,,0,0,1,,,0,,,65,20
307560,note_off,,,,,120,0,1,,,0,,,62,64
307560,note_off,,,,,0,0,1,,,0,,,65,64
307560,note_off,,,,,0,0,1,,,0,,,70,64
307680,note_off,,,,,120,0,1,,,0,,,70,64
307680,note_off,,,,,0,0,1,,,0,,,62,64
307680,note_on,,,,,0,0,1,,,0,,,70,25
307680,note_on,,,,,0,0,1,,,0,,,62,25
307680,set_tempo,,,,,400,1,0,566038,,,,,,
307680,note_on,,,,,0,0,1,,,0,,,65,25
307680,note_off,,,,,0,0,1,,,0,,,65,64
307760,set_tempo,,,,,80,1,0,545455,,,,,,
307800,note_off,,,,,120,0,1,,,0,,,62,64
307800,note_off,,,,,0,0,1,,,0,,,70,64
307800,note_off,,,,,0,0,1,,,0,,,65,64
307800,note_on,,,,,0,0,1,,,0,,,70,18
307800,note_on,,,,,0,0,1,,,0,,,65,18
307800,note_on,,,,,0,0,1,,,0,,,62,18
307920,note_off,,,,,720,0,2,,,0,,,86,64
307920,note_on,,,,,0,0,2,,,0,,,84,35
307920,note_on,,,,,0,0,1,,,0,,,62,20
307920,note_on,,,,,0,0,1,,,0,,,70,20
307920,note_on,,,,,0,0,1,,,0,,,65,20
307920,note_off,,,,,0,0,1,,,0,,,70,64
307920,note_off,,,,,0,0,1,,,0,,,65,64
307920,note_off,,,,,120,0,1,,,0,,,62,64
307980,set_tempo,,,,,220,1,0,560748,,,,,,
308040,note_on,,,,,0,0,2,,,0,,,82,41
308040,note_off,,,,,120,0,2,,,0,,,84,64
308040,note_off,,,,,120,0,1,,,0,,,62,64
308040,note_off,,,,,0,0,1,,,0,,,70,64
308040,note_off,,,,,0,0,1,,,0,,,65,64
308040,note_on,,,,,0,0,1,,,0,,,70,21
308040,note_on,,,,,0,0,1,,,0,,,65,21
308040,note_on,,,,,0,0,1,,,0,,,62,21
308060,set_tempo,,,,,80,1,0,576923,,,,,,
308080,set_tempo,,,,,20,1,0,582524,,,,,,
308140,set_tempo,,,,,60,1,0,618557,,,,,,
308160,note_on,,,,,0,0,1,,,0,,,63,25
308160,note_off,,,,,0,0,1,,,0,,,70,64
308160,note_on,,,,,0,0,1,,,0,,,66,25
308160,note_off,,,,,120,0,1,,,0,,,62,64
308160,note_off,,,,,0,0,1,,,0,,,65,64
308160,note_on,,,,,0,0,1,,,0,,,70,25
308160,note_off,,,,,120,0,2,,,0,,,82,64
308160,note_on,,,,,0,0,2,,,0,,,84,43
308200,set_tempo,,,,,60,1,0,582524,,,,,,
308280,note_off,,,,,120,0,1,,,0,,,66,64
308280,note_off,,,,,0,0,1,,,0,,,70,64
308280,note_off,,,,,0,0,1,,,0,,,63,64
308280,note_on,,,,,0,0,1,,,0,,,70,19
308280,note_on,,,,,0,0,1,,,0,,,63,19
308280,note_on,,,,,0,0,1,,,0,,,66,19
308300,set_tempo,,,,,100,1,0,550459,,,,,,
308340,note_off,,,,,180,0,2,,,0,,,84,64
308380,set_tempo,,,,,80,1,0,530973,,,,,,
308400,note_on,,,,,0,0,1,,,0,,,66,22
308400,note_on,,,,,0,0,1,,,0,,,63,22
308400,note_off,,,,,120,0,1,,,0,,,63,64
308400,note_on,,,,,0,0,1,,,0,,,70,22
308400,note_off,,,,,0,0,1,,,0,,,70,64
308400,note_off,,,,,0,0,1,,,0,,,66,64
308400,note_on,,,,,60,0,2,,,0,,,84,39
308520,note_off,,,,,120,0,1,,,0,,,66,64
308520,note_on,,,,,0,0,1,,,0,,,63,23
308520,note_on,,,,,0,0,1,,,0,,,70,23
308520,note_on,,,,,0,0,1,,,0,,,66,23
308520,note_off,,,,,0,0,1,,,0,,,63,64
308520,note_off,,,,,0,0,1,,,0,,,70,64
308580,note_off,,,,,180,0,2,,,0,,,84,64
308640,note_on,,,,,60,0,2,,,0,,,84,45
308640,note_on,,,,,0,0,1,,,0,,,66,23
308640,note_off,,,,,120,0,1,,,0,,,66,64
308640,note_off,,,,,0,0,1,,,0,,,70,64
308640,note_off,,,,,0,0,1,,,0,,,63,64
308640,note_on,,,,,0,0,1,,,0,,,63,23
308640,note_on,,,,,0,0,1,,,0,,,70,23
308760,note_off,,,,,120,0,1,,,0,,,70,64
308760,note_off,,,,,0,0,1,,,0,,,63,64
308760,note_off,,,,,0,0,1,,,0,,,66,64
308760,note_on,,,,,0,0,1,,,0,,,70,22
308760,note_on,,,,,0,0,1,,,0,,,66,22
308760,note_on,,,,,0,0,1,,,0,,,63,22
308820,note_off,,,,,180,0,2,,,0,,,84,64
308860,set_tempo,,,,,480,1,0,560748,,,,,,
308880,note_off,,,,,120,0,1,,,0,,,66,64
308880,note_on,,,,,0,0,1,,,0,,,70,20
308880,note_on,,,,,0,0,1,,,0,,,66,20
308880,note_on,,,,,0,0,1,,,0,,,63,20
308880,note_off,,,,,0,0,1,,,0,,,70,64
308880,note_off,,,,,0,0,1,,,0,,,63,64
308880,note_on,,,,,60,0,2,,,0,,,82,38
309000,note_on,,,,,0,0,1,,,0,,,63,20
309000,note_off,,,,,120,0,2,,,0,,,82,64
309000,note_off,,,,,120,0,1,,,0,,,70,64
309000,note_off,,,,,0,0,1,,,0,,,66,64
309000,note_off,,,,,0,0,1,,,0,,,63,64
309000,note_on,,,,,0,0,1,,,0,,,66,20
309000,note_on,,,,,0,0,2,,,0,,,81,34
309000,note_on,,,,,0,0,1,,,0,,,70,20
309040,set_tempo,,,,,180,1,0,582524,,,,,,
309120,note_off,,,,,0,0,1,,,0,,,66,64
309120,note_off,,,,,0,0,1,,,0,,,63,64
309120,note_on,,,,,0,0,1,,,0,,,65,26
309120,note_on,,,,,0,0,1,,,0,,,62,26
309120,note_on,,,,,0,0,1,,,0,,,70,26
309120,note_on,,,,,0,0,2,,,0,,,82,32
309120,note_off,,,,,120,0,2,,,0,,,81,64
309120,note_off,,,,,120,0,1,,,0,,,70,64
309240,note_off,,,,,120,0,1,,,0,,,70,64
309240,note_off,,,,,0,0,1,,,0,,,62,64
309240,note_off,,,,,0,0,1,,,0,,,65,64
309240,note_on,,,,,0,0,1,,,0,,,70,20
309240,note_on,,,,,0,0,1,,,0,,,65,20
309240,note_on,,,,,0,0,1,,,0,,,62,20
309320,set_tempo,,,,,280,1,0,566038,,,,,,
309360,note_on,,,,,0,0,1,,,0,,,65,20
309360,note_off,,,,,120,0,1,,,0,,,70,64
309360,note_on,,,,,0,0,1,,,0,,,62,20
309360,note_off,,,,,240,0,2,,,0,,,82,64
309360,note_on,,,,,0,0,1,,,0,,,70,20
309360,note_off,,,,,0,0,1,,,0,,,65,64
309360,note_off,,,,,0,0,1,,,0,,,62,64
309440,set_tempo,,,,,120,1,0,545455,,,,,,
309480,note_on,,,,,0,0,1,,,0,,,65,25
309480,note_on,,,,,0,0,1,,,0,,,70,25
309480,note_off,,,,,120,0,1,,,0,,,65,64
309480,note_off,,,,,0,0,1,,,0,,,62,64
309480,note_off,,,,,0,0,1,,,0,,,70,64
309480,note_on,,,,,0,0,1,,,0,,,62,25
309600,note_on,,,,,0,0,1,,,0,,,70,28
309600,note_on,,,,,0,0,1,,,0,,,62,28
309600,note_on,,,,,0,0,1,,,0,,,65,28
309600,note_off,,,,,0,0,1,,,0,,,65,64
309600,note_off,,,,,120,0,1,,,0,,,70,64
309600,note_off,,,,,0,0,1,,,0,,,62,64
309720,note_on,,,,,0,0,1,,,0,,,70,25
309720,note_off,,,,,120,0,1,,,0,,,70,64
309720,note_off,,,,,0,0,1,,,0,,,62,64
309720,note_off,,,,,0,0,1,,,0,,,65,64
309720,note_on,,,,,0,0,1,,,0,,,65,25
309720,note_on,,,,,0,0,1,,,0,,,62,25
309760,set_tempo,,,,,320,1,0,535714,,,,,,
309840,note_off,,,,,120,0,1,,,0,,,70,64
309840,note_on,,,,,0,0,1,,,0,,,70,23
309840,note_off,,,,,0,0,1,,,0,,,65,64
309840,note_on,,,,,0,0,1,,,0,,,62,23
309840,note_off,,,,,0,0,1,,,0,,,62,64
309840,note_on,,,,,0,0,1,,,0,,,65,23
309960,note_off,,,,,120,0,1,,,0,,,62,64
309960,note_off,,,,,0,0,1,,,0,,,70,64
309960,note_off,,,,,0,0,1,,,0,,,65,64
309960,note_on,,,,,0,0,1,,,0,,,70,21
309960,note_on,,,,,0,0,1,,,0,,,62,21
309960,note_on,,,,,0,0,1,,,0,,,65,21
310050,note_on,,,,,690,0,2,,,0,,,36,47
310080,note_on,,,,,0,0,2,,,0,,,34,51
310080,note_off,,,,,30,0,2,,,0,,,36,64
310080,note_on,,,,,0,0,1,,,0,,,70,26
310080,note_on,,,,,0,0,1,,,0,,,62,26
310080,note_off,,,,,0,0,1,,,0,,,70,64
310080,note_off,,,,,0,0,1,,,0,,,62,64
310080,note_off,,,,,120,0,1,,,0,,,65,64
310080,note_on,,,,,0,0,1,,,0,,,65,26
310110,note_off,,,,,30,0,2,,,0,,,34,64
310110,note_on,,,,,0,0,2,,,0,,,36,42
310140,set_tempo,,,,,380,1,0,540541,,,,,,
310140,note_on,,,,,0,0,2,,,0,,,34,41
310140,note_off,,,,,30,0,2,,,0,,,36,64
310170,note_on,,,,,0,0,2,,,0,,,36,42
310170,note_off,,,,,30,0,2,,,0,,,34,64
310200,note_off,,,,,30,0,2,,,0,,,36,64
310200,note_on,,,,,0,0,2,,,0,,,34,42
310200,note_off,,,,,0,0,1,,,0,,,65,64
310200,note_on,,,,,0,0,1,,,0,,,62,25
310200,note_on,,,,,0,0,1,,,0,,,65,25
310200,note_off,,,,,0,0,1,,,0,,,62,64
310200,note_off,,,,,120,0,1,,,0,,,70,64
310200,note_on,,,,,0,0,1,,,0,,,70,25
310230,note_off,,,,,30,0,2,,,0,,,34,64
310230,note_on,,,,,0,0,2,,,0,,,36,43
310260,note_off,,,,,30,0,2,,,0,,,36,64
310260,note_on,,,,,0,0,2,,,0,,,34,45
310290,note_on,,,,,0,0,2,,,0,,,36,46
310290,note_off,,,,,30,0,2,,,0,,,34,64
310320,note_on,,,,,0,0,1,,,0,,,62,30
310320,note_on,,,,,0,0,2,,,0,,,34,46
310320,note_on,,,,,0,0,1,,,0,,,65,30
310320,note_off,,,,,0,0,1,,,0,,,65,64
310320,note_off,,,,,0,0,1,,,0,,,62,64
310320,note_off,,,,,120,0,1,,,0,,,70,64
310320,note_off,,,,,30,0,2,,,0,,,36,64
310320,note_on,,,,,0,0,1,,,0,,,70,30
310350,note_off,,,,,30,0,2,,,0,,,34,64
310350,note_on,,,,,0,0,2,,,0,,,36,47
310380,note_off,,,,,30,0,2,,,0,,,36,64
310380,note_on,,,,,0,0,2,,,0,,,34,48
310380,set_tempo,,,,,240,1,0,545455,,,,,,
310410,note_on,,,,,0,0,2,,,0,,,36,49
310410,note_off,,,,,30,0,2,,,0,,,34,64
310440,note_on,,,,,0,0,1,,,0,,,65,34
310440,note_off,,,,,0,0,1,,,0,,,70,64
310440,note_off,,,,,120,0,1,,,0,,,65,64
310440,note_off,,,,,0,0,1,,,0,,,62,64
310440,note_on,,,,,0,0,1,,,0,,,70,34
310440,note_on,,,,,0,0,2,,,0,,,34,50
310440,note_off,,,,,30,0,2,,,0,,,36,64
310440,note_on,,,,,0,0,1,,,0,,,62,34
310440,set_tempo,,,,,60,1,0,571429,,,,,,
310470,note_off,,,,,30,0,2,,,0,,,34,64
310470,note_on,,,,,0,0,2,,,0,,,36,51
310500,set_tempo,,,,,60,1,0,576923,,,,,,
310500,note_off,,,,,30,0,2,,,0,,,36,64
310500,note_on,,,,,0,0,2,,,0,,,34,53
310530,note_on,,,,,0,0,2,,,0,,,36,54
310530,note_off,,,,,30,0,2,,,0,,,34,64
310560,note_on,,,,,0,0,2,,,0,,,34,55
310560,note_off,,,,,30,0,2,,,0,,,36,64
310560,note_off,,,,,0,0,1,,,0,,,62,64
310560,note_on,,,,,0,0,1,,,0,,,65,38
310560,note_off,,,,,0,0,1,,,0,,,65,64
310560,note_on,,,,,0,0,1,,,0,,,70,38
310560,note_on,,,,,0,0,1,,,0,,,62,38
310560,note_off,,,,,120,0,1,,,0,,,70,64
310590,note_on,,,,,0,0,2,,,0,,,36,56
310590,note_off,,,,,30,0,2,,,0,,,34,64
310620,note_off,,,,,30,0,2,,,0,,,36,64
310620,note_on,,,,,0,0,2,,,0,,,34,57
310650,note_off,,,,,30,0,2,,,0,,,34,64
310650,note_on,,,,,0,0,2,,,0,,,36,58
310680,note_on,,,,,0,0,1,,,0,,,62,42
310680,note_on,,,,,0,0,1,,,0,,,65,42
310680,note_off,,,,,0,0,1,,,0,,,65,64
310680,note_off,,,,,0,0,1,,,0,,,62,64
310680,note_off,,,,,120,0,1,,,0,,,70,64
310680,note_on,,,,,0,0,2,,,0,,,34,60
310680,note_off,,,,,30,0,2,,,0,,,36,64
310680,note_on,,,,,0,0,1,,,0,,,70,42
310700,set_tempo,,,,,200,1,0,606061,,,,,,
310710,note_off,,,,,30,0,2,,,0,,,34,64
310710,note_on,,,,,0,0,2,,,0,,,36,62
310740,note_off,,,,,30,0,2,,,0,,,36,64
310740,note_on,,,,,0,0,2,,,0,,,34,63
310740,set_tempo,,,,,40,1,0,612245,,,,,,
310770,note_off,,,,,30,0,2,,,0,,,34,64
310770,note_on,,,,,0,0,2,,,0,,,36,65
310800,note_on,,,,,0,0,1,,,0,,,70,45
310800,note_off,,,,,30,0,2,,,0,,,36,64
310800,note_on,,,,,0,0,2,,,0,,,34,65
310800,note_off,,,,,0,0,1,,,0,,,62,64
310800,note_off,,,,,0,0,1,,,0,,,65,64
310800,note_on,,,,,0,0,1,,,0,,,65,45
310800,note_on,,,,,0,0,1,,,0,,,62,45
310800,note_off,,,,,120,0,1,,,0,,,70,64
310830,note_off,,,,,30,0,2,,,0,,,34,64
310830,note_on,,,,,0,0,2,,,0,,,36,67
310860,note_off,,,,,30,0,2,,,0,,,36,64
310860,note_on,,,,,0,0,2,,,0,,,34,69
310860,set_tempo,,,,,120,1,0,631579,,,,,,
310890,note_off,,,,,30,0,2,,,0,,,34,64
310890,note_on,,,,,0,0,2,,,0,,,36,70
310920,note_on,,,,,0,0,1,,,0,,,65,49
310920,note_on,,,,,0,0,1,,,0,,,62,49
310920,note_on,,,,,0,0,1,,,0,,,70,49
310920,note_off,,,,,0,0,1,,,0,,,65,64
310920,note_off,,,,,120,0,1,,,0,,,62,64
310920,note_off,,,,,0,0,1,,,0,,,70,64
310920,note_off,,,,,30,0,2,,,0,,,36,64
310920,note_on,,,,,0,0,2,,,0,,,34,73
310940,set_tempo,,,,,80,1,0,666667,,,,,,
310950,note_on,,,,,0,0,2,,,0,,,33,75
310950,note_off,,,,,30,0,2,,,0,,,34,64
310980,note_on,,,,,0,0,2,,,0,,,34,77
310980,note_off,,,,,30,0,2,,,0,,,33,64
311010,note_off,,,,,30,0,2,,,0,,,34,64
311010,note_on,,,,,0,0,2,,,0,,,36,79
311020,set_tempo,,,,,80,1,0,882353,,,,,,
311040,note_off,,,,,30,0,2,,,0,,,36,64
311040,note_on,,,,,0,0,1,,,0,,,69,51
311040,note_on,,,,,0,0,1,,,0,,,62,51
311040,note_on,,,,,0,0,1,,,0,,,65,51
311040,note_off,,,,,0,0,1,,,0,,,70,64
311040,note_off,,,,,0,0,1,,,0,,,62,64
311040,note_off,,,,,120,0,1,,,0,,,65,64
311040,set_tempo,,,,,20,1,0,550459,,,,,,
311040,note_on,,,,,0,0,2,,,0,,,38,79
311060,set_tempo,,,,,20,1,0,689655,,,,,,
311080,set_tempo,,,,,20,1,0,659341,,,,,,
311120,set_tempo,,,,,40,1,0,618557,,,,,,
311160,note_on,,,,,0,0,1,,,0,,,62,44
311160,note_on,,,,,0,0,1,,,0,,,69,44
311160,note_on,,,,,0,0,1,,,0,,,65,44
311160,note_off,,,,,0,0,1,,,0,,,65,64
311160,note_off,,,,,0,0,1,,,0,,,62,64
311160,note_off,,,,,120,0,1,,,0,,,69,64
311160,note_off,,,,,120,0,2,,,0,,,38,64
311220,set_tempo,,,,,100,1,0,600000,,,,,,
311280,note_off,,,,,120,0,1,,,0,,,62,64
311280,note_off,,,,,0,0,1,,,0,,,65,64
311280,note_on,,,,,0,0,1,,,0,,,65,36
311280,note_on,,,,,0,0,1,,,0,,,69,36
311280,note_on,,,,,0,0,1,,,0,,,62,36
311280,note_off,,,,,0,0,1,,,0,,,69,64
311320,set_tempo,,,,,100,1,0,576923,,,,,,
311340,set_tempo,,,,,20,1,0,571429,,,,,,
311400,note_off,,,,,120,0,1,,,0,,,62,64
311400,note_off,,,,,0,0,1,,,0,,,69,64
311400,note_off,,,,,0,0,1,,,0,,,65,64
311400,note_on,,,,,0,0,1,,,0,,,69,30
311400,note_on,,,,,0,0,1,,,0,,,62,30
311400,note_on,,,,,0,0,1,,,0,,,65,30
311440,set_tempo,,,,,100,1,0,566038,,,,,,
311520,note_on,,,,,0,0,1,,,0,,,62,26
311520,note_on,,,,,0,0,1,,,0,,,65,26
311520,note_off,,,,,0,0,1,,,0,,,62,64
311520,note_off,,,,,0,0,1,,,0,,,69,64
311520,note_on,,,,,0,0,1,,,0,,,69,26
311520,note_off,,,,,120,0,1,,,0,,,65,64
311640,note_on,,,,,0,0,1,,,0,,,69,19
311640,note_on,,,,,0,0,1,,,0,,,62,19
311640,note_off,,,,,0,0,1,,,0,,,69,64
311640,note_on,,,,,0,0,1,,,0,,,65,19
311640,note_off,,,,,120,0,1,,,0,,,65,64
311640,set_tempo,,,,,200,1,0,560748,,,,,,
311640,note_off,,,,,0,0,1,,,0,,,62,64
311760,note_off,,,,,120,0,1,,,0,,,69,64
311760,note_off,,,,,0,0,1,,,0,,,65,64
311760,note_off,,,,,0,0,1,,,0,,,62,64
311760,note_on,,,,,0,0,1,,,0,,,69,20
311760,note_on,,,,,0,0,1,,,0,,,65,20
311760,note_on,,,,,0,0,1,,,0,,,62,20
311760,note_on,,,,,600,0,2,,,0,,,77,38
311880,note_on,,,,,0,0,1,,,0,,,65,22
311880,note_on,,,,,0,0,1,,,0,,,69,22
311880,note_on,,,,,0,0,1,,,0,,,62,22
311880,note_off,,,,,0,0,1,,,0,,,69,64
311880,note_off,,,,,0,0,1,,,0,,,65,64
311880,note_off,,,,,120,0,1,,,0,,,62,64
311960,set_tempo,,,,,320,1,0,652174,,,,,,
312000,note_off,,,,,240,0,2,,,0,,,77,64
312000,note_on,,,,,0,0,2,,,0,,,77,44
312000,note_on,,,,,0,0,1,,,0,,,65,29
312000,note_on,,,,,0,0,1,,,0,,,69,29
312000,note_off,,,,,0,0,1,,,0,,,62,64
312000,note_off,,,,,120,0,1,,,0,,,65,64
312000,note_on,,,,,0,0,1,,,0,,,62,29
312000,note_off,,,,,0,0,1,,,0,,,69,64
312040,set_tempo,,,,,80,1,0,566038,,,,,,
312120,note_off,,,,,120,0,1,,,0,,,65,64
312120,note_off,,,,,0,0,1,,,0,,,62,64
312120,note_off,,,,,0,0,1,,,0,,,69,64
312120,note_on,,,,,0,0,1,,,0,,,62,28
312120,note_on,,,,,0,0,1,,,0,,,69,28
312120,note_on,,,,,0,0,1,,,0,,,65,28
312240,note_on,,,,,0,0,2,,,0,,,76,35
312240,note_off,,,,,240,0,2,,,0,,,77,64
312240,note_on,,,,,0,0,1,,,0,,,65,25
312240,note_on,,,,,0,0,1,,,0,,,69,25
312240,note_on,,,,,0,0,1,,,0,,,62,25
312240,note_off,,,,,0,0,1,,,0,,,62,64
312240,note_off,,,,,120,0,1,,,0,,,65,64
312240,note_off,,,,,0,0,1,,,0,,,69,64
312360,note_on,,,,,0,0,1,,,0,,,65,25
312360,note_on,,,,,0,0,1,,,0,,,62,25
312360,note_on,,,,,0,0,1,,,0,,,69,25
312360,note_off,,,,,120,0,1,,,0,,,65,64
312360,note_off,,,,,0,0,1,,,0,,,62,64
312360,note_off,,,,,0,0,1,,,0,,,69,64
312480,note_on,,,,,0,0,1,,,0,,,69,29
312480,note_off,,,,,240,0,2,,,0,,,76,64
312480,note_on,,,,,0,0,2,,,0,,,77,38
312480,note_on,,,,,0,0,1,,,0,,,62,29
312480,note_off,,,,,0,0,1,,,0,,,65,64
312480,note_off,,,,,0,0,1,,,0,,,62,64
312480,note_off,,,,,120,0,1,,,0,,,69,64
312480,note_on,,,,,0,0,1,,,0,,,65,29
312600,note_off,,,,,120,0,1,,,0,,,69,64
312600,note_off,,,,,0,0,1,,,0,,,62,64
312600,note_on,,,,,0,0,1,,,0,,,69,26
312600,note_off,,,,,0,0,1,,,0,,,65,64
312600,note_on,,,,,0,0,1,,,0,,,65,26
312600,note_on,,,,,0,0,1,,,0,,,62,26
312720,note_off,,,,,240,0,2,,,0,,,77,64
312720,note_on,,,,,0,0,2,,,0,,,79,42
312720,note_off,,,,,0,0,1,,,0,,,62,64
312720,note_off,,,,,120,0,1,,,0,,,65,64
312720,note_on,,,,,0,0,1,,,0,,,62,21
312720,note_on,,,,,0,0,1,,,0,,,69,21
312720,note_on,,,,,0,0,1,,,0,,,65,21
312720,note_off,,,,,0,0,1,,,0,,,69,64
312820,set_tempo,,,,,780,1,0,600000,,,,,,
312840,note_off,,,,,0,0,1,,,0,,,69,64
312840,note_off,,,,,0,0,1,,,0,,,62,64
312840,note_on,,,,,0,0,1,,,0,,,69,18
312840,note_on,,,,,0,0,1,,,0,,,65,18
312840,note_on,,,,,0,0,1,,,0,,,62,18
312840,note_off,,,,,120,0,1,,,0,,,65,64
312960,note_off,,,,,0,0,1,,,0,,,65,64
312960,note_on,,,,,0,0,1,,,0,,,65,25
312960,note_on,,,,,0,0,1,,,0,,,62,25
312960,note_on,,,,,0,0,1,,,0,,,69,25
312960,note_off,,,,,0,0,1,,,0,,,62,64
312960,note_on,,,,,0,0,2,,,0,,,81,45
312960,note_off,,,,,240,0,2,,,0,,,79,64
312960,note_off,,,,,120,0,1,,,0,,,69,64
313080,note_off,,,,,120,0,1,,,0,,,65,64
313080,note_off,,,,,0,0,1,,,0,,,69,64
313080,note_off,,,,,0,0,1,,,0,,,62,64
313080,note_on,,,,,0,0,1,,,0,,,65,19
313080,note_on,,,,,0,0,1,,,0,,,69,19
313080,note_on,,,,,0,0,1,,,0,,,62,19
313100,set_tempo,,,,,280,1,0,576923,,,,,,
313200,note_on,,,,,0,0,1,,,0,,,65,19
313200,note_on,,,,,0,0,1,,,0,,,69,19
313200,note_off,,,,,0,0,1,,,0,,,62,64
313200,note_off,,,,,0,0,1,,,0,,,69,64
313200,note_off,,,,,120,0,1,,,0,,,65,64
313200,note_on,,,,,0,0,1,,,0,,,61,19
313320,note_off,,,,,0,0,1,,,0,,,69,64
313320,note_off,,,,,120,0,1,,,0,,,61,64
313320,note_off,,,,,0,0,1,,,0,,,65,64
313320,note_on,,,,,0,0,1,,,0,,,69,20
313320,note_on,,,,,0,0,1,,,0,,,61,20
313320,note_on,,,,,0,0,1,,,0,,,65,20
313440,note_off,,,,,120,0,1,,,0,,,65,64
313440,note_off,,,,,0,0,1,,,0,,,61,64
313440,note_on,,,,,0,0,1,,,0,,,60,25
313440,note_on,,,,,0,0,1,,,0,,,69,25
313440,note_off,,,,,0,0,1,,,0,,,69,64
313440,note_on,,,,,0,0,1,,,0,,,65,25
313500,set_tempo,,,,,400,1,0,560748,,,,,,
313560,note_on,,,,,0,0,1,,,0,,,69,18
313560,note_off,,,,,120,0,1,,,0,,,60,64
313560,note_off,,,,,0,0,1,,,0,,,69,64
313560,note_on,,,,,0,0,1,,,0,,,60,18
313560,note_off,,,,,0,0,1,,,0,,,65,64
313560,note_on,,,,,0,0,1,,,0,,,65,18
313580,set_tempo,,,,,80,1,0,540541,,,,,,
313680,note_on,,,,,0,0,2,,,0,,,79,35
313680,note_off,,,,,720,0,2,,,0,,,81,64
313680,note_off,,,,,120,0,1,,,0,,,65,64
313680,note_on,,,,,0,0,1,,,0,,,69,20
313680,note_off,,,,,0,0,1,,,0,,,60,64
313680,note_off,,,,,0,0,1,,,0,,,69,64
313680,note_on,,,,,0,0,1,,,0,,,59,20
313680,note_on,,,,,0,0,1,,,0,,,65,20
313800,note_on,,,,,0,0,2,,,0,,,77,41
313800,note_off,,,,,120,0,2,,,0,,,79,64
313800,note_off,,,,,0,0,1,,,0,,,69,64
313800,note_off,,,,,0,0,1,,,0,,,65,64
313800,note_off,,,,,120,0,1,,,0,,,59,64
313800,note_on,,,,,0,0,1,,,0,,,69,21
313800,note_on,,,,,0,0,1,,,0,,,65,21
313800,note_on,,,,,0,0,1,,,0,,,59,21
313820,set_tempo,,,,,240,1,0,582524,,,,,,
313880,set_tempo,,,,,60,1,0,618557,,,,,,
313900,set_tempo,,,,,20,1,0,625000,,,,,,
313920,note_off,,,,,120,0,1,,,0,,,65,64
313920,note_off,,,,,0,0,1,,,0,,,69,64
313920,note_off,,,,,0,0,1,,,0,,,59,64
313920,note_on,,,,,0,0,1,,,0,,,65,25
313920,note_on,,,,,0,0,1,,,0,,,67,25
313920,note_off,,,,,120,0,2,,,0,,,77,64
313920,note_on,,,,,0,0,2,,,0,,,79,43
313920,note_on,,,,,0,0,1,,,0,,,58,25
313980,set_tempo,,,,,80,1,0,576923,,,,,,
314040,note_off,,,,,0,0,1,,,0,,,67,64
314040,note_on,,,,,0,0,1,,,0,,,58,17
314040,note_on,,,,,0,0,1,,,0,,,67,17
314040,note_on,,,,,0,0,1,,,0,,,65,17
314040,note_off,,,,,0,0,1,,,0,,,65,64
314040,note_off,,,,,120,0,1,,,0,,,58,64
314060,set_tempo,,,,,80,1,0,560748,,,,,,
314100,note_off,,,,,180,0,2,,,0,,,79,64
314100,set_tempo,,,,,40,1,0,550459,,,,,,
314120,set_tempo,,,,,20,1,0,540541,,,,,,
314160,note_off,,,,,0,0,1,,,0,,,67,64
314160,note_off,,,,,0,0,1,,,0,,,65,64
314160,note_on,,,,,0,0,1,,,0,,,67,25
314160,note_on,,,,,0,0,1,,,0,,,58,25
314160,note_off,,,,,120,0,1,,,0,,,58,64
314160,note_on,,,,,0,0,1,,,0,,,62,25
314160,note_on,,,,,60,0,2,,,0,,,79,54
314160,set_tempo,,,,,40,1,0,566038,,,,,,
314280,note_on,,,,,0,0,1,,,0,,,62,30
314280,note_off,,,,,120,0,1,,,0,,,58,64
314280,note_off,,,,,0,0,1,,,0,,,62,64
314280,note_off,,,,,0,0,1,,,0,,,67,64
314280,note_on,,,,,0,0,1,,,0,,,67,30
314280,note_on,,,,,0,0,1,,,0,,,58,30
314340,note_off,,,,,180,0,2,,,0,,,79,64
314380,set_tempo,,,,,220,1,0,588235,,,,,,
314400,note_on,,,,,60,0,2,,,0,,,79,73
314400,note_off,,,,,120,0,1,,,0,,,58,64
314400,note_off,,,,,0,0,1,,,0,,,67,64
314400,note_on,,,,,0,0,1,,,0,,,67,35
314400,note_off,,,,,0,0,1,,,0,,,62,64
314400,note_on,,,,,0,0,1,,,0,,,58,35
314400,note_on,,,,,0,0,1,,,0,,,64,35
314520,note_off,,,,,120,0,1,,,0,,,58,64
314520,note_off,,,,,0,0,1,,,0,,,64,64
314520,note_off,,,,,0,0,1,,,0,,,67,64
314520,note_on,,,,,0,0,1,,,0,,,64,42
314520,note_on,,,,,0,0,1,,,0,,,67,42
314520,note_on,,,,,0,0,1,,,0,,,58,42
314580,set_tempo,,,,,200,1,0,631579,,,,,,
314580,note_off,,,,,180,0,2,,,0,,,79,64
314640,note_on,,,,,0,0,1,,,0,,,67,51
314640,note_off,,,,,0,0,1,,,0,,,64,64
314640,note_off,,,,,0,0,1,,,0,,,67,64
314640,note_off,,,,,120,0,1,,,0,,,58,64
314640,note_on,,,,,0,0,1,,,0,,,60,51
314640,note_on,,,,,60,0,2,,,0,,,77,87
314640,note_on,,,,,0,0,1,,,0,,,58,51
314720,set_tempo,,,,,140,1,0,674157,,,,,,
314760,note_off,,,,,0,0,1,,,0,,,60,64
314760,note_off,,,,,120,0,1,,,0,,,58,64
314760,note_off,,,,,0,0,1,,,0,,,67,64
314760,note_on,,,,,0,0,1,,,0,,,60,60
314760,note_off,,,,,120,0,2,,,0,,,77,64
314760,note_on,,,,,0,0,1,,,0,,,67,60
314760,note_on,,,,,0,0,2,,,0,,,76,83
314760,note_on,,,,,0,0,1,,,0,,,58,60
314820,set_tempo,,,,,100,1,0,731707,,,,,,
314860,set_tempo,,,,,40,1,0,845070,,,,,,
314880,note_off,,,,,120,0,1,,,0,,,60,64
314880,note_off,,,,,120,0,2,,,0,,,76,64
314880,note_on,,,,,0,0,1,,,0,,,57,72
314880,note_on,,,,,0,0,1,,,0,,,60,72
314880,note_on,,,,,0,0,2,,,0,,,77,101
314880,note_on,,,,,0,0,1,,,0,,,65,72
314880,note_off,,,,,0,0,1,,,0,,,58,64
314880,note_off,,,,,0,0,1,,,0,,,67,64
314880,note_on,,,,,0,0,1,,,0,,,63,72
314900,set_tempo,,,,,40,1,0,967742,,,,,,
314940,set_tempo,,,,,40,1,0,810811,,,,,,
314980,set_tempo,,,,,40,1,0,731707,,,,,,
315000,note_on,,,,,0,0,1,,,0,,,57,65
315000,note_on,,,,,0,0,1,,,0,,,65,65
315000,note_off,,,,,0,0,1,,,0,,,65,64
315000,note_off,,,,,0,0,1,,,0,,,63,64
315000,note_off,,,,,0,0,1,,,0,,,60,64
315000,note_off,,,,,120,0,1,,,0,,,57,64
315000,note_on,,,,,0,0,1,,,0,,,60,65
315000,note_on,,,,,0,0,1,,,0,,,63,65
315020,set_tempo,,,,,40,1,0,681818,,,,,,
315060,set_tempo,,,,,40,1,0,631579,,,,,,
315120,set_tempo,,,,,60,1,0,588235,,,,,,
315120,note_on,,,,,0,0,1,,,0,,,65,53
315120,note_on,,,,,0,0,1,,,0,,,60,53
315120,note_off,,,,,120,0,1,,,0,,,57,64
315120,note_off,,,,,0,0,1,,,0,,,60,64
315120,note_off,,,,,0,0,1,,,0,,,65,64
315120,note_off,,,,,0,0,1,,,0,,,63,64
315120,note_on,,,,,0,0,1,,,0,,,63,53
315120,note_on,,,,,0,0,1,,,0,,,57,53
315200,set_tempo,,,,,80,1,0,566038,,,,,,
315240,note_off,,,,,0,0,1,,,0,,,60,64
315240,note_on,,,,,0,0,1,,,0,,,57,41
315240,note_on,,,,,0,0,1,,,0,,,60,41
315240,note_on,,,,,0,0,1,,,0,,,63,41
315240,note_on,,,,,0,0,1,,,0,,,65,41
315240,note_off,,,,,0,0,1,,,0,,,63,64
315240,note_off,,,,,120,0,1,,,0,,,57,64
315240,note_off,,,,,0,0,1,,,0,,,65,64
315260,set_tempo,,,,,60,1,0,535714,,,,,,
315360,set_tempo,,,,,100,1,0,526316,,,,,,
315360,note_off,,,,,0,0,1,,,0,,,60,64
315360,note_on,,,,,0,0,1,,,0,,,57,32
315360,note_on,,,,,0,0,1,,,0,,,60,32
315360,note_on,,,,,0,0,1,,,0,,,63,32
315360,note_on,,,,,0,0,1,,,0,,,65,32
315360,note_off,,,,,0,0,1,,,0,,,65,64
315360,note_off,,,,,0,0,1,,,0,,,63,64
315360,note_off,,,,,120,0,1,,,0,,,57,64
315480,note_on,,,,,0,0,1,,,0,,,60,25
315480,note_on,,,,,0,0,1,,,0,,,57,25
315480,note_on,,,,,0,0,1,,,0,,,65,25
315480,note_off,,,,,0,0,1,,,0,,,65,64
315480,note_off,,,,,0,0,1,,,0,,,63,64
315480,note_off,,,,,0,0,1,,,0,,,60,64
315480,note_off,,,,,120,0,1,,,0,,,57,64
315480,note_on,,,,,0,0,1,,,0,,,63,25
315600,note_off,,,,,120,0,1,,,0,,,57,64
315600,note_off,,,,,0,0,1,,,0,,,60,64
315600,note_on,,,,,0,0,1,,,0,,,57,22
315600,note_on,,,,,0,0,1,,,0,,,60,22
315600,note_on,,,,,0,0,1,,,0,,,63,22
315600,note_off,,,,,0,0,1,,,0,,,63,64
315600,note_off,,,,,0,0,1,,,0,,,65,64
315600,note_on,,,,,0,0,1,,,0,,,65,22
315720,note_on,,,,,0,0,1,,,0,,,63,28
315720,note_on,,,,,0,0,1,,,0,,,65,28
315720,note_on,,,,,0,0,1,,,0,,,57,28
315720,note_on,,,,,0,0,1,,,0,,,60,28
315720,note_off,,,,,120,0,1,,,0,,,57,64
315720,note_off,,,,,0,0,1,,,0,,,60,64
315720,note_off,,,,,0,0,1,,,0,,,63,64
315720,note_off,,,,,0,0,1,,,0,,,65,64
315840,note_on,,,,,0,0,1,,,0,,,60,37
315840,note_on,,,,,0,0,1,,,0,,,63,37
315840,note_on,,,,,0,0,1,,,0,,,65,37
315840,note_off,,,,,0,0,1,,,0,,,65,64
315840,note_off,,,,,0,0,1,,,0,,,63,64
315840,note_off,,,,,0,0,1,,,0,,,60,64
315840,note_off,,,,,120,0,1,,,0,,,57,64
315840,note_on,,,,,0,0,1,,,0,,,57,37
315960,note_on,,,,,120,0,1,,,0,,,81,31
315960,note_off,,,,,1080,0,2,,,0,,,77,64
316080,note_on,,,,,0,0,1,,,0,,,79,29
316080,note_off,,,,,120,0,1,,,0,,,81,64
316080,note_off,,,,,0,0,1,,,0,,,57,64
316080,note_off,,,,,0,0,1,,,0,,,60,64
316080,note_off,,,,,0,0,1,,,0,,,63,64
316080,note_off,,,,,0,0,1,,,0,,,65,64
316200,note_off,,,,,120,0,1,,,0,,,79,64
316200,note_on,,,,,0,0,1,,,0,,,77,33
316320,note_off,,,,,120,0,1,,,0,,,77,64
316320,note_on,,,,,0,0,1,,,0,,,84,36
316440,note_on,,,,,0,0,1,,,0,,,82,34
316440,note_off,,,,,120,0,1,,,0,,,84,64
316560,note_on,,,,,0,0,1,,,0,,,81,33
316560,note_off,,,,,120,0,1,,,0,,,82,64
316680,note_on,,,,,0,0,1,,,0,,,87,38
316680,note_off,,,,,120,0,1,,,0,,,81,64
316800,note_off,,,,,120,0,1,,,0,,,87,64
316800,note_on,,,,,0,0,1,,,0,,,86,50
316820,set_tempo,,,,,1460,1,0,545455,,,,,,
316920,note_off,,,,,120,0,1,,,0,,,86,64
316920,note_on,,,,,0,0,1,,,0,,,84,44
316980,set_tempo,,,,,160,1,0,582524,,,,,,
317040,note_off,,,,,120,0,1,,,0,,,84,64
317040,note_on,,,,,0,0,1,,,0,,,91,41
317160,note_off,,,,,120,0,1,,,0,,,91,64
317160,note_on,,,,,0,0,1,,,0,,,89,40
317280,note_on,,,,,0,0,1,,,0,,,87,41
317280,note_off,,,,,120,0,1,,,0,,,89,64
317380,set_tempo,,,,,400,1,0,625000,,,,,,
317400,note_off,,,,,120,0,1,,,0,,,87,64
317400,note_on,,,,,0,0,1,,,0,,,86,46
317520,set_tempo,,,,,140,1,0,659341,,,,,,
317520,note_off,,,,,120,0,1,,,0,,,86,64
317520,note_on,,,,,0,0,1,,,0,,,84,53
317620,set_tempo,,,,,100,1,0,705882,,,,,,
317640,note_on,,,,,0,0,1,,,0,,,86,58
317640,note_off,,,,,120,0,1,,,0,,,84,64
317680,set_tempo,,,,,60,1,0,750000,,,,,,
317720,set_tempo,,,,,40,1,0,895522,,,,,,
317740,set_tempo,,,,,20,1,0,923077,,,,,,
317760,note_off,,,,,120,0,1,,,0,,,86,64
317760,note_on,,,,,0,0,1,,,0,,,87,63
317760,note_on,,,,,0,0,2,,,0,,,66,60
317760,note_on,,,,,1800,0,2,,,0,,,63,60
317760,note_on,,,,,0,0,2,,,0,,,57,60
317760,note_on,,,,,0,0,2,,,0,,,60,60
317820,set_tempo,,,,,80,1,0,810811,,,,,,
317880,note_off,,,,,120,0,2,,,0,,,66,64
317880,note_off,,,,,0,0,2,,,0,,,57,64
317880,note_off,,,,,0,0,2,,,0,,,60,64
317880,note_off,,,,,0,0,2,,,0,,,63,64
317880,note_on,,,,,0,0,2,,,0,,,63,50
317880,note_on,,,,,0,0,2,,,0,,,66,50
317880,note_on,,,,,0,0,2,,,0,,,57,50
317880,note_on,,,,,0,0,2,,,0,,,60,50
317900,set_tempo,,,,,80,1,0,750000,,,,,,
318000,set_tempo,,,,,100,1,0,666667,,,,,,
318000,note_off,,,,,120,0,2,,,0,,,57,64
318000,note_off,,,,,0,0,2,,,0,,,66,64
318000,note_off,,,,,0,0,2,,,0,,,60,64
318000,note_off,,,,,0,0,2,,,0,,,63,64
318000,note_on,,,,,0,0,2,,,0,,,57,44
318000,note_on,,,,,0,0,2,,,0,,,60,44
318000,note_on,,,,,0,0,2,,,0,,,63,44
318000,note_on,,,,,0,0,2,,,0,,,66,44
318080,set_tempo,,,,,80,1,0,625000,,,,,,
318120,note_on,,,,,0,0,2,,,0,,,63,38
318120,note_off,,,,,120,0,2,,,0,,,66,64
318120,note_on,,,,,0,0,2,,,0,,,57,38
318120,note_on,,,,,0,0,2,,,0,,,60,38
318120,note_off,,,,,0,0,2,,,0,,,63,64
318120,note_on,,,,,0,0,2,,,0,,,66,38
318120,note_off,,,,,0,0,2,,,0,,,57,64
318120,note_off,,,,,0,0,2,,,0,,,60,64
318160,set_tempo,,,,,80,1,0,588235,,,,,,
318220,set_tempo,,,,,60,1,0,560748,,,,,,
318240,note_on,,,,,0,0,2,,,0,,,63,35
318240,note_off,,,,,120,0,2,,,0,,,57,64
318240,note_off,,,,,0,0,2,,,0,,,60,64
318240,note_off,,,,,0,0,2,,,0,,,63,64
318240,note_off,,,,,0,0,2,,,0,,,66,64
318240,note_on,,,,,0,0,2,,,0,,,60,35
318240,note_on,,,,,0,0,2,,,0,,,57,35
318240,note_on,,,,,0,0,2,,,0,,,66,35
318320,set_tempo,,,,,100,1,0,540541,,,,,,
318340,set_tempo,,,,,20,1,0,530973,,,,,,
318360,note_on,,,,,0,0,2,,,0,,,57,34
318360,note_off,,,,,120,0,2,,,0,,,66,64
318360,note_off,,,,,0,0,2,,,0,,,63,64
318360,note_off,,,,,0,0,2,,,0,,,57,64
318360,note_off,,,,,0,0,2,,,0,,,60,64
318360,note_on,,,,,0,0,2,,,0,,,63,34
318360,note_on,,,,,0,0,2,,,0,,,66,34
318360,note_on,,,,,0,0,2,,,0,,,60,34
318480,note_on,,,,,0,0,2,,,0,,,60,31
318480,note_off,,,,,0,0,2,,,0,,,60,64
318480,note_off,,,,,0,0,2,,,0,,,57,64
318480,note_off,,,,,0,0,2,,,0,,,63,64
318480,note_on,,,,,0,0,2,,,0,,,66,31
318480,note_on,,,,,0,0,2,,,0,,,63,31
318480,note_on,,,,,0,0,2,,,0,,,57,31
318480,note_off,,,,,120,0,2,,,0,,,66,64
318600,note_off,,,,,0,0,2,,,0,,,60,64
318600,note_on,,,,,0,0,2,,,0,,,60,29
318600,note_on,,,,,0,0,2,,,0,,,66,29
318600,note_on,,,,,0,0,2,,,0,,,57,29
318600,note_on,,,,,0,0,2,,,0,,,63,29
318600,note_off,,,,,0,0,2,,,0,,,66,64
318600,note_off,,,,,0,0,2,,,0,,,63,64
318600,note_off,,,,,120,0,2,,,0,,,57,64
318720,note_on,,,,,0,0,2,,,0,,,60,34
318720,note_on,,,,,0,0,2,,,0,,,57,34
318720,note_on,,,,,0,0,2,,,0,,,63,34
318720,note_off,,,,,0,0,2,,,0,,,63,64
318720,note_off,,,,,0,0,2,,,0,,,57,64
318720,note_off,,,,,0,0,2,,,0,,,66,64
318720,note_off,,,,,120,0,2,,,0,,,60,64
318720,note_on,,,,,0,0,2,,,0,,,66,34
318840,note_on,,,,,0,0,1,,,0,,,84,36
318840,note_off,,,,,1080,0,1,,,0,,,87,64
318900,set_tempo,,,,,560,1,0,535714,,,,,,
318960,note_off,,,,,240,0,2,,,0,,,66,64
318960,note_off,,,,,0,0,2,,,0,,,60,64
318960,note_off,,,,,0,0,2,,,0,,,57,64
318960,note_off,,,,,0,0,2,,,0,,,63,64
318960,set_tempo,,,,,60,1,0,540541,,,,,,
318960,note_off,,,,,120,0,1,,,0,,,84,64
318960,note_on,,,,,0,0,1,,,0,,,90,44
319080,note_on,,,,,0,0,1,,,0,,,89,49
319080,set_tempo,,,,,120,1,0,571429,,,,,,
319080,note_off,,,,,120,0,1,,,0,,,90,64
319200,note_off,,,,,120,0,1,,,0,,,89,64
319200,note_on,,,,,0,0,1,,,0,,,87,54
319280,set_tempo,,,,,200,1,0,600000,,,,,,
319320,note_on,,,,,0,0,1,,,0,,,86,49
319320,note_off,,,,,120,0,1,,,0,,,87,64
319380,set_tempo,,,,,100,1,0,645161,,,,,,
319440,note_on,,,,,0,0,1,,,0,,,84,45
319440,note_off,,,,,120,0,1,,,0,,,86,64
319520,set_tempo,,,,,140,1,0,689655,,,,,,
319560,note_on,,,,,0,0,1,,,0,,,86,40
319560,note_off,,,,,120,0,1,,,0,,,84,64
319600,set_tempo,,,,,80,1,0,779221,,,,,,
319680,note_on,,,,,0,0,1,,,0,,,87,36
319680,note_on,,,,,720,0,2,,,0,,,63,39
319680,note_on,,,,,0,0,2,,,0,,,60,39
319680,note_on,,,,,0,0,2,,,0,,,57,39
319680,note_on,,,,,0,0,2,,,0,,,65,39
319680,set_tempo,,,,,80,1,0,952381,,,,,,
319680,note_off,,,,,120,0,1,,,0,,,86,64
319760,set_tempo,,,,,80,1,0,810811,,,,,,
319800,set_tempo,,,,,40,1,0,740741,,,,,,
319800,note_on,,,,,0,0,2,,,0,,,60,37
319800,note_on,,,,,0,0,2,,,0,,,63,37
319800,note_on,,,,,0,0,2,,,0,,,65,37
319800,note_on,,,,,0,0,2,,,0,,,57,37
319800,note_off,,,,,0,0,2,,,0,,,60,64
319800,note_off,,,,,0,0,2,,,0,,,57,64
319800,note_off,,,,,120,0,2,,,0,,,65,64
319800,note_off,,,,,0,0,2,,,0,,,63,64
319880,set_tempo,,,,,80,1,0,674157,,,,,,
319920,note_on,,,,,0,0,2,,,0,,,60,34
319920,note_off,,,,,120,0,2,,,0,,,57,64
319920,note_on,,,,,0,0,2,,,0,,,57,34
319920,note_off,,,,,0,0,2,,,0,,,60,64
319920,note_on,,,,,0,0,2,,,0,,,65,34
319920,note_off,,,,,0,0,2,,,0,,,65,64
319920,note_on,,,,,0,0,2,,,0,,,63,34
319920,note_off,,,,,0,0,2,,,0,,,63,64
319940,set_tempo,,,,,60,1,0,666667,,,,,,
319960,set_tempo,,,,,20,1,0,631579,,,,,,
320040,note_on,,,,,0,0,2,,,0,,,57,32
320040,note_off,,,,,120,0,2,,,0,,,65,64
320040,note_off,,,,,0,0,2,,,0,,,57,64
320040,note_off,,,,,0,0,2,,,0,,,60,64
320040,note_off,,,,,0,0,2,,,0,,,63,64
320040,note_on,,,,,0,0,2,,,0,,,63,32
320040,note_on,,,,,0,0,2,,,0,,,60,32
320040,note_on,,,,,0,0,2,,,0,,,65,32
320060,set_tempo,,,,,100,1,0,612245,,,,,,
320080,set_tempo,,,,,20,1,0,606061,,,,,,
320140,set_tempo,,,,,60,1,0,582524,,,,,,
320160,note_on,,,,,0,0,2,,,0,,,57,29
320160,note_off,,,,,120,0,2,,,0,,,57,64
320160,note_on,,,,,0,0,2,,,0,,,63,29
320160,note_off,,,,,0,0,2,,,0,,,60,64
320160,note_off,,,,,0,0,2,,,0,,,65,64
320160,note_on,,,,,0,0,2,,,0,,,60,29
320160,note_off,,,,,0,0,2,,,0,,,63,64
320160,note_on,,,,,0,0,2,,,0,,,65,29
320260,set_tempo,,,,,120,1,0,566038,,,,,,
320280,note_off,,,,,0,0,2,,,0,,,57,64
320280,note_off,,,,,0,0,2,,,0,,,60,64
320280,note_off,,,,,0,0,2,,,0,,,63,64
320280,note_off,,,,,120,0,2,,,0,,,65,64
320280,note_on,,,,,0,0,2,,,0,,,63,27
320280,note_on,,,,,0,0,2,,,0,,,65,27
320280,note_on,,,,,0,0,2,,,0,,,57,27
320280,note_on,,,,,0,0,2,,,0,,,60,27
320400,note_on,,,,,0,0,2,,,0,,,60,27
320400,note_on,,,,,0,0,2,,,0,,,57,27
320400,note_on,,,,,0,0,2,,,0,,,63,27
320400,note_on,,,,,0,0,2,,,0,,,65,27
320400,note_off,,,,,0,0,2,,,0,,,63,64
320400,note_off,,,,,0,0,2,,,0,,,60,64
320400,note_off,,,,,120,0,2,,,0,,,65,64
320400,note_off,,,,,0,0,2,,,0,,,57,64
320420,set_tempo,,,,,160,1,0,540541,,,,,,
320520,note_off,,,,,0,0,2,,,0,,,60,64
320520,note_off,,,,,120,0,2,,,0,,,63,64
320520,note_on,,,,,0,0,2,,,0,,,60,27
320520,note_on,,,,,0,0,2,,,0,,,65,27
320520,note_on,,,,,0,0,2,,,0,,,63,27
320520,note_on,,,,,0,0,2,,,0,,,57,27
320520,note_off,,,,,0,0,2,,,0,,,65,64
320520,note_off,,,,,0,0,2,,,0,,,57,64
320560,set_tempo,,,,,140,1,0,535714,,,,,,
320640,note_off,,,,,0,0,2,,,0,,,57,64
320640,note_on,,,,,0,0,2,,,0,,,60,27
320640,note_off,,,,,0,0,2,,,0,,,65,64
320640,note_on,,,,,0,0,2,,,0,,,57,27
320640,note_on,,,,,0,0,2,,,0,,,65,27
320640,note_off,,,,,120,0,2,,,0,,,60,64
320640,note_off,,,,,0,0,2,,,0,,,63,64
320640,note_on,,,,,0,0,2,,,0,,,63,27
320760,note_off,,,,,1080,0,1,,,0,,,87,64
320760,note_on,,,,,0,0,1,,,0,,,84,36
320880,note_off,,,,,0,0,2,,,0,,,60,64
320880,note_off,,,,,0,0,2,,,0,,,63,64
320880,note_off,,,,,0,0,2,,,0,,,57,64
320880,note_off,,,,,240,0,2,,,0,,,65,64
320880,note_on,,,,,0,0,1,,,0,,,91,38
320880,note_off,,,,,120,0,1,,,0,,,84,64
320970,note_off,,,,,90,0,1,,,0,,,91,64
321000,note_on,,,,,30,0,1,,,0,,,89,42
321090,note_off,,,,,90,0,1,,,0,,,89,64
321120,note_on,,,,,30,0,1,,,0,,,87,47
321210,note_off,,,,,90,0,1,,,0,,,87,64
321240,note_on,,,,,30,0,1,,,0,,,86,41
321330,note_off,,,,,90,0,1,,,0,,,86,64
321360,note_on,,,,,30,0,1,,,0,,,84,37
321450,note_off,,,,,90,0,1,,,0,,,84,64
321480,note_on,,,,,30,0,1,,,0,,,82,32
321570,note_off,,,,,90,0,1,,,0,,,82,64
321600,note_on,,,,,30,0,1,,,0,,,81,38
321690,note_off,,,,,90,0,1,,,0,,,81,64
321720,note_on,,,,,30,0,1,,,0,,,79,36
321810,note_off,,,,,90,0,1,,,0,,,79,64
321840,note_on,,,,,30,0,1,,,0,,,77,29
321930,note_off,,,,,90,0,1,,,0,,,77,64
321960,note_on,,,,,30,0,1,,,0,,,76,27
322020,set_tempo,,,,,1460,1,0,550459,,,,,,
322040,set_tempo,,,,,20,1,0,545455,,,,,,
322050,note_off,,,,,90,0,1,,,0,,,76,64
322080,control_change,,,,,1200,0,2,,,0,7,80,,
322080,control_change,,,,,30,0,1,,,0,7,80,,
322080,note_on,,,,,0,0,1,,,0,,,75,29
322100,set_tempo,,,,,60,1,0,540541,,,,,,
322140,control_change,,,,,60,0,2,,,0,7,79,,
322140,control_change,,,,,60,0,1,,,0,7,79,,
322160,note_on,,,,,0,0,1,,,0,,,74,25
322160,note_off,,,,,20,0,1,,,0,,,75,64
322200,control_change,,,,,40,0,1,,,0,7,78,,
322200,control_change,,,,,60,0,2,,,0,7,78,,
322240,note_off,,,,,40,0,1,,,0,,,74,64
322240,note_on,,,,,0,0,1,,,0,,,72,25
322260,control_change,,,,,20,0,1,,,0,7,77,,
322260,control_change,,,,,60,0,2,,,0,7,77,,
322320,control_change,,,,,60,0,2,,,0,7,76,,
322320,control_change,,,,,0,0,1,,,0,7,76,,
322320,note_off,,,,,60,0,1,,,0,,,72,64
322320,note_on,,,,,0,0,1,,,0,,,70,31
322380,set_tempo,,,,,280,1,0,566038,,,,,,
322380,control_change,,,,,60,0,1,,,0,7,75,,
322380,control_change,,,,,60,0,2,,,0,7,75,,
322400,note_on,,,,,0,0,1,,,0,,,69,29
322400,note_off,,,,,20,0,1,,,0,,,70,64
322440,control_change,,,,,40,0,1,,,0,7,74,,
322440,control_change,,,,,60,0,2,,,0,7,74,,
322480,note_on,,,,,0,0,1,,,0,,,67,31
322480,note_off,,,,,40,0,1,,,0,,,69,64
322500,control_change,,,,,60,0,2,,,0,7,73,,
322500,set_tempo,,,,,120,1,0,560748,,,,,,
322500,control_change,,,,,20,0,1,,,0,7,73,,
322560,control_change,,,,,60,0,2,,,0,7,72,,
322560,control_change,,,,,0,0,1,,,0,7,72,,
322560,note_off,,,,,60,0,1,,,0,,,67,64
322560,note_on,,,,,0,0,1,,,0,,,65,36
322600,set_tempo,,,,,100,1,0,576923,,,,,,
322620,control_change,,,,,60,0,2,,,0,7,71,,
322620,control_change,,,,,60,0,1,,,0,7,71,,
322640,note_off,,,,,20,0,1,,,0,,,65,64
322640,note_on,,,,,0,0,1,,,0,,,64,34
322680,control_change,,,,,40,0,1,,,0,7,70,,
322680,control_change,,,,,60,0,2,,,0,7,70,,
322720,note_on,,,,,0,0,1,,,0,,,63,36
322720,note_off,,,,,40,0,1,,,0,,,64,64
322740,control_change,,,,,20,0,1,,,0,7,69,,
322740,control_change,,,,,60,0,2,,,0,7,69,,
322800,control_change,,,,,0,0,1,,,0,7,68,,
322800,note_off,,,,,60,0,1,,,0,,,63,64
322800,note_on,,,,,0,0,1,,,0,,,62,37
322800,control_change,,,,,60,0,2,,,0,7,68,,
322860,set_tempo,,,,,260,1,0,600000,,,,,,
322860,control_change,,,,,60,0,2,,,0,7,67,,
322860,control_change,,,,,60,0,1,,,0,7,67,,
322880,note_on,,,,,0,0,1,,,0,,,61,34
322880,note_off,,,,,20,0,1,,,0,,,62,64
322920,control_change,,,,,40,0,1,,,0,7,66,,
322920,control_change,,,,,60,0,2,,,0,7,66,,
322960,note_off,,,,,40,0,1,,,0,,,61,64
322960,note_on,,,,,0,0,1,,,0,,,60,32
322980,control_change,,,,,20,0,1,,,0,7,65,,
322980,control_change,,,,,60,0,2,,,0,7,65,,
323000,set_tempo,,,,,140,1,0,631579,,,,,,
323040,control_change,,,,,60,0,2,,,0,7,64,,
323040,note_on,,,,,0,0,1,,,0,,,59,30
323040,control_change,,,,,0,0,1,,,0,7,64,,
323040,note_off,,,,,60,0,1,,,0,,,60,64
323100,control_change,,,,,60,0,1,,,0,7,63,,
323100,control_change,,,,,60,0,2,,,0,7,63,,
323120,note_off,,,,,20,0,1,,,0,,,59,64
323120,note_on,,,,,0,0,1,,,0,,,58,29
323160,control_change,,,,,40,0,1,,,0,7,62,,
323160,control_change,,,,,60,0,2,,,0,7,62,,
323200,note_on,,,,,0,0,1,,,0,,,57,27
323200,note_off,,,,,40,0,1,,,0,,,58,64
323220,control_change,,,,,60,0,2,,,0,7,61,,
323220,control_change,,,,,20,0,1,,,0,7,61,,
323240,set_tempo,,,,,240,1,0,659341,,,,,,
323280,control_change,,,,,60,0,2,,,0,7,60,,
323280,note_off,,,,,60,0,1,,,0,,,57,64
323280,note_on,,,,,0,0,1,,,0,,,56,26
323280,control_change,,,,,0,0,1,,,0,7,60,,
323340,control_change,,,,,60,0,2,,,0,7,59,,
323340,control_change,,,,,60,0,1,,,0,7,59,,
323360,set_tempo,,,,,120,1,0,666667,,,,,,
323360,note_off,,,,,20,0,1,,,0,,,56,64
323360,note_on,,,,,0,0,1,,,0,,,55,22
323380,set_tempo,,,,,20,1,0,681818,,,,,,
323400,control_change,,,,,60,0,2,,,0,7,58,,
323400,control_change,,,,,40,0,1,,,0,7,58,,
323440,note_off,,,,,40,0,1,,,0,,,55,64
323440,note_on,,,,,0,0,1,,,0,,,54,20
323440,set_tempo,,,,,60,1,0,967742,,,,,,
323460,control_change,,,,,20,0,1,,,0,7,57,,
323460,control_change,,,,,60,0,2,,,0,7,57,,
323490,note_on,,,,,30,0,2,,,0,,,56,25
323490,note_off,,,,,30,0,1,,,0,,,54,64
323500,set_tempo,,,,,60,1,0,1111111,,,,,,
323520,control_change,,,,,30,0,1,,,0,7,56,,
323520,note_off,,,,,30,0,2,,,0,,,56,64
323520,control_change,,,,,0,0,2,,,0,7,56,,
323520,note_on,,,,,0,0,2,,,0,,,54,30
323550,note_off,,,,,30,0,2,,,0,,,54,64
323550,note_on,,,,,0,0,2,,,0,,,56,30
323560,set_tempo,,,,,60,1,0,845070,,,,,,
323580,set_tempo,,,,,20,1,0,645161,,,,,,
323580,note_on,,,,,0,0,2,,,0,,,54,28
323580,note_off,,,,,30,0,2,,,0,,,56,64
323600,set_tempo,,,,,20,1,0,631579,,,,,,
323610,note_off,,,,,30,0,2,,,0,,,54,64
323610,note_on,,,,,0,0,2,,,0,,,56,28
323640,note_off,,,,,30,0,2,,,0,,,56,64
323640,note_on,,,,,0,0,2,,,0,,,54,29
323670,note_off,,,,,30,0,2,,,0,,,54,64
323670,note_on,,,,,0,0,2,,,0,,,56,30
323680,set_tempo,,,,,80,1,0,625000,,,,,,
323700,note_off,,,,,30,0,2,,,0,,,56,64
323700,note_on,,,,,0,0,2,,,0,,,54,30
323730,note_on,,,,,0,0,2,,,0,,,56,31
323730,note_off,,,,,30,0,2,,,0,,,54,64
323740,set_tempo,,,,,60,1,0,588235,,,,,,
323760,note_on,,,,,0,0,2,,,0,,,54,32
323760,note_off,,,,,30,0,2,,,0,,,56,64
323790,note_on,,,,,0,0,2,,,0,,,56,33
323790,note_off,,,,,30,0,2,,,0,,,54,64
323820,note_off,,,,,30,0,2,,,0,,,56,64
323820,note_on,,,,,0,0,2,,,0,,,54,34
323850,note_on,,,,,0,0,2,,,0,,,56,34
323850,note_off,,,,,30,0,2,,,0,,,54,64
323860,set_tempo,,,,,120,1,0,576923,,,,,,
323880,note_on,,,,,0,0,2,,,0,,,54,35
323880,note_off,,,,,30,0,2,,,0,,,56,64
323910,note_off,,,,,30,0,2,,,0,,,54,64
323910,note_on,,,,,0,0,2,,,0,,,56,36
323940,note_off,,,,,30,0,2,,,0,,,56,64
323940,note_on,,,,,0,0,2,,,0,,,54,36
323960,set_tempo,,,,,100,1,0,582524,,,,,,
323970,note_off,,,,,30,0,2,,,0,,,54,64
323970,note_on,,,,,0,0,2,,,0,,,56,36
323980,set_tempo,,,,,20,1,0,606061,,,,,,
324000,note_on,,,,,0,0,2,,,0,,,54,36
324000,note_off,,,,,30,0,2,,,0,,,56,64
324030,note_off,,,,,30,0,2,,,0,,,54,64
324030,note_on,,,,,0,0,2,,,0,,,56,36
324060,note_off,,,,,30,0,2,,,0,,,56,64
324060,note_on,,,,,0,0,2,,,0,,,54,35
324090,note_on,,,,,0,0,2,,,0,,,56,32
324090,note_off,,,,,30,0,2,,,0,,,54,64
324120,note_on,,,,,0,0,2,,,0,,,54,32
324120,note_off,,,,,30,0,2,,,0,,,56,64
324150,note_on,,,,,0,0,2,,,0,,,56,31
324150,note_off,,,,,30,0,2,,,0,,,54,64
324180,note_off,,,,,30,0,2,,,0,,,56,64
324180,note_on,,,,,0,0,2,,,0,,,54,28
324210,note_off,,,,,30,0,2,,,0,,,54,64
324210,note_on,,,,,0,0,2,,,0,,,56,27
324220,set_tempo,,,,,240,1,0,631579,,,,,,
324240,note_on,,,,,0,0,2,,,0,,,54,26
324240,note_off,,,,,30,0,2,,,0,,,56,64
324270,note_on,,,,,0,0,2,,,0,,,56,26
324270,note_off,,,,,30,0,2,,,0,,,54,64
324300,note_off,,,,,30,0,2,,,0,,,56,64
324300,note_on,,,,,0,0,2,,,0,,,54,24
324330,note_off,,,,,30,0,2,,,0,,,54,64
324330,note_on,,,,,0,0,2,,,0,,,56,24
324360,set_tempo,,,,,140,1,0,652174,,,,,,
324360,note_off,,,,,30,0,2,,,0,,,56,64
324360,note_on,,,,,0,0,2,,,0,,,54,24
324398,note_on,,,,,38,0,2,,,0,,,53,24
324400,note_off,,,,,2,0,2,,,0,,,54,64
324438,note_off,,,,,38,0,2,,,0,,,53,64
324438,note_on,,,,,0,0,2,,,0,,,54,26
324440,set_tempo,,,,,80,1,0,882353,,,,,,
324478,note_off,,,,,40,0,2,,,0,,,54,64
324480,set_tempo,,,,,40,1,0,869565,,,,,,
324480,note_on,,,,,2,0,2,,,0,,,53,31
324560,set_tempo,,,,,80,1,0,857143,,,,,,
324580,set_tempo,,,,,20,1,0,810811,,,,,,
324600,note_off,,,,,120,0,2,,,0,,,53,64
324700,set_tempo,,,,,120,1,0,789474,,,,,,
324800,set_tempo,,,,,100,1,0,750000,,,,,,
325120,set_tempo,,,,,320,1,0,769231,,,,,,
325220,set_tempo,,,,,100,1,0,779221,,,,,,
325340,set_tempo,,,,,120,1,0,895522,,,,,,
325350,note_on,,,,,0,0,2,,,0,,,29,32
325350,control_change,,,,,750,0,2,,,0,7,80,,
325380,note_off,,,,,30,0,2,,,0,,,29,64
325380,note_on,,,,,0,0,2,,,0,,,30,34
325410,note_off,,,,,30,0,2,,,0,,,30,64
325410,note_on,,,,,0,0,2,,,0,,,32,36
325440,note_off,,,,,30,0,2,,,0,,,32,64
325440,note_on,,,,,0,0,2,,,0,,,30,38
325470,note_off,,,,,30,0,2,,,0,,,30,64
325470,note_on,,,,,0,0,2,,,0,,,32,39
325500,set_tempo,,,,,160,1,0,882353,,,,,,
325500,note_on,,,,,0,0,2,,,0,,,30,34
325500,note_off,,,,,30,0,2,,,0,,,32,64
325530,note_on,,,,,0,0,2,,,0,,,32,33
325530,note_off,,,,,30,0,2,,,0,,,30,64
325560,note_on,,,,,0,0,2,,,0,,,30,32
325560,note_off,,,,,30,0,2,,,0,,,32,64
325580,set_tempo,,,,,80,1,0,789474,,,,,,
325590,note_on,,,,,0,0,2,,,0,,,32,32
325590,note_off,,,,,30,0,2,,,0,,,30,64
325620,note_on,,,,,0,0,2,,,0,,,30,32
325620,note_off,,,,,30,0,2,,,0,,,32,64
325650,note_on,,,,,0,0,2,,,0,,,32,32
325650,note_off,,,,,30,0,2,,,0,,,30,64
325680,note_off,,,,,30,0,2,,,0,,,32,64
325680,note_on,,,,,0,0,2,,,0,,,30,32
325710,note_on,,,,,0,0,2,,,0,,,32,33
325710,note_off,,,,,30,0,2,,,0,,,30,64
325740,note_on,,,,,0,0,2,,,0,,,30,34
325740,note_off,,,,,30,0,2,,,0,,,32,64
325760,set_tempo,,,,,180,1,0,740741,,,,,,
325770,note_on,,,,,0,0,2,,,0,,,32,33
325770,note_off,,,,,30,0,2,,,0,,,30,64
325800,note_off,,,,,30,0,2,,,0,,,32,64
325800,note_on,,,,,0,0,2,,,0,,,30,35
325830,note_off,,,,,30,0,2,,,0,,,30,64
325830,note_on,,,,,0,0,2,,,0,,,32,36
325860,note_off,,,,,30,0,2,,,0,,,32,64
325860,note_on,,,,,0,0,2,,,0,,,30,37
325890,note_off,,,,,30,0,2,,,0,,,30,64
325890,note_on,,,,,0,0,2,,,0,,,32,40
325900,set_tempo,,,,,140,1,0,800000,,,,,,
325920,note_off,,,,,30,0,2,,,0,,,32,64
325920,note_on,,,,,0,0,2,,,0,,,30,41
325950,note_off,,,,,30,0,2,,,0,,,30,64
325950,note_on,,,,,0,0,2,,,0,,,32,43
325980,note_off,,,,,30,0,2,,,0,,,32,64
325980,note_on,,,,,0,0,2,,,0,,,30,42
326010,note_on,,,,,0,0,2,,,0,,,32,40
326010,note_off,,,,,30,0,2,,,0,,,30,64
326040,set_tempo,,,,,140,1,0,882353,,,,,,
326040,note_off,,,,,30,0,2,,,0,,,32,64
326040,note_on,,,,,0,0,2,,,0,,,30,39
326070,note_off,,,,,30,0,2,,,0,,,30,64
326070,note_on,,,,,0,0,2,,,0,,,32,38
326100,note_off,,,,,30,0,2,,,0,,,32,64
326100,note_on,,,,,0,0,2,,,0,,,30,36
326120,set_tempo,,,,,80,1,0,952381,,,,,,
326130,note_off,,,,,30,0,2,,,0,,,30,64
326130,note_on,,,,,0,0,2,,,0,,,32,35
326160,note_off,,,,,30,0,2,,,0,,,32,64
326160,note_on,,,,,0,0,2,,,0,,,30,34
326190,note_off,,,,,30,0,2,,,0,,,30,64
326190,note_on,,,,,0,0,2,,,0,,,32,33
326220,note_off,,,,,30,0,2,,,0,,,32,64
326220,note_on,,,,,0,0,2,,,0,,,30,33
326250,note_off,,,,,30,0,2,,,0,,,30,64
326250,note_on,,,,,0,0,2,,,0,,,32,33
326260,set_tempo,,,,,140,1,0,1034483,,,,,,
326280,note_on,,,,,0,0,2,,,0,,,30,33
326280,note_off,,,,,30,0,2,,,0,,,32,64
326318,note_on,,,,,38,0,2,,,0,,,29,31
326320,note_off,,,,,2,0,2,,,0,,,30,64
326340,set_tempo,,,,,80,1,0,1052632,,,,,,
326358,note_on,,,,,0,0,2,,,0,,,30,31
326358,note_off,,,,,38,0,2,,,0,,,29,64
326380,set_tempo,,,,,40,1,0,952381,,,,,,
326398,note_off,,,,,40,0,2,,,0,,,30,64
326400,control_change,,,,,0,0,2,,,0,91,96,,
326400,note_on,,,,,2,0,2,,,0,,,29,29
326520,note_off,,,,,120,0,2,,,0,,,29,64
326860,set_tempo,,,,,480,1,0,1935484,,,,,,
327120,note_on,,,,,0,0,1,,,0,,,58,34
327120,note_on,,,,,0,0,2,,,0,,,50,29
327120,control_change,,,,,600,0,2,,,0,64,127,,
327120,note_on,,,,,0,0,1,,,0,,,46,34
327120,note_on,,,,,0,0,1,,,0,,,65,34
327120,note_on,,,,,3600,0,1,,,0,,,70,34
327120,marker,,,,,260,1,0,,,,,,,
327140,set_tempo,,,,,20,1,0,722892,,,,,,
327240,set_tempo,,,,,100,1,0,631579,,,,,,
327240,note_on,,,,,0,0,2,,,0,,,53,26
327240,note_off,,,,,120,0,2,,,0,,,50,64
327300,control_change,,,,,60,0,2,,,0,64,0,,
327336,note_off,,,,,36,0,2,,,0,,,53,64
327340,set_tempo,,,,,100,1,0,625000,,,,,,
327360,note_on,,,,,0,0,1,,,0,,,46,42
327360,note_on,,,,,0,0,1,,,0,,,70,42
327360,note_on,,,,,0,0,1,,,0,,,65,42
327360,note_on,,,,,0,0,1,,,0,,,58,42
327360,control_change,,,,,24,0,2,,,0,64,127,,
327360,note_off,,,,,0,0,1,,,0,,,70,64
327360,note_on,,,,,0,0,2,,,0,,,50,35
327360,note_off,,,,,0,0,1,,,0,,,58,64
327360,note_off,,,,,240,0,1,,,0,,,46,64
327360,note_off,,,,,0,0,1,,,0,,,65,64
327480,note_on,,,,,0,0,2,,,0,,,53,32
327480,note_off,,,,,120,0,2,,,0,,,50,64
327540,control_change,,,,,60,0,2,,,0,64,0,,
327576,note_off,,,,,36,0,2,,,0,,,53,64
327600,set_tempo,,,,,260,1,0,618557,,,,,,
327600,note_off,,,,,0,0,1,,,0,,,58,64
327600,note_off,,,,,0,0,1,,,0,,,65,64
327600,note_off,,,,,0,0,1,,,0,,,70,64
327600,note_on,,,,,0,0,1,,,0,,,69,33
327600,note_on,,,,,0,0,1,,,0,,,57,33
327600,note_on,,,,,0,0,1,,,0,,,46,33
327600,note_on,,,,,0,0,2,,,0,,,48,37
327600,control_change,,,,,24,0,2,,,0,64,127,,
327600,note_on,,,,,0,0,1,,,0,,,65,33
327600,note_off,,,,,240,0,1,,,0,,,46,64
327620,set_tempo,,,,,20,1,0,560748,,,,,,
327720,note_on,,,,,0,0,2,,,0,,,53,28
327720,note_off,,,,,120,0,2,,,0,,,48,64
327780,control_change,,,,,60,0,2,,,0,64,0,,
327816,note_off,,,,,36,0,2,,,0,,,53,64
327840,note_on,,,,,0,0,1,,,0,,,58,40
327840,note_off,,,,,240,0,1,,,0,,,46,64
327840,note_on,,,,,0,0,1,,,0,,,65,40
327840,note_on,,,,,0,0,1,,,0,,,70,40
327840,note_off,,,,,0,0,1,,,0,,,69,64
327840,note_off,,,,,0,0,1,,,0,,,65,64
327840,note_on,,,,,0,0,2,,,0,,,50,39
327840,control_change,,,,,24,0,2,,,0,64,127,,
327840,note_on,,,,,0,0,1,,,0,,,46,40
327840,note_off,,,,,0,0,1,,,0,,,57,64
327960,note_off,,,,,120,0,2,,,0,,,50,64
327960,note_on,,,,,0,0,2,,,0,,,53,33
328020,control_change,,,,,60,0,2,,,0,64,0,,
328056,note_off,,,,,36,0,2,,,0,,,53,64
328080,note_on,,,,,0,0,1,,,0,,,46,44
328080,control_change,,,,,24,0,2,,,0,64,127,,
328080,note_on,,,,,0,0,2,,,0,,,51,42
328080,note_off,,,,,240,0,1,,,0,,,46,64
328080,note_off,,,,,0,0,1,,,0,,,58,64
328080,note_off,,,,,0,0,1,,,0,,,65,64
328080,note_off,,,,,0,0,1,,,0,,,70,64
328080,note_on,,,,,0,0,1,,,0,,,72,44
328080,note_on,,,,,0,0,1,,,0,,,65,44
328080,note_on,,,,,0,0,1,,,0,,,60,44
328160,set_tempo,,,,,540,1,0,631579,,,,,,
328200,note_off,,,,,120,0,2,,,0,,,51,64
328200,note_on,,,,,0,0,2,,,0,,,53,36
328260,control_change,,,,,60,0,2,,,0,64,0,,
328260,set_tempo,,,,,100,1,0,625000,,,,,,
328296,note_off,,,,,36,0,2,,,0,,,53,64
328320,note_off,,,,,240,0,1,,,0,,,46,64
328320,note_off,,,,,0,0,1,,,0,,,60,64
328320,note_off,,,,,0,0,1,,,0,,,65,64
328320,note_on,,,,,0,0,2,,,0,,,52,45
328320,note_on,,,,,0,0,1,,,0,,,62,50
328320,note_on,,,,,0,0,1,,,0,,,74,50
328320,note_on,,,,,0,0,1,,,0,,,65,50
328320,note_on,,,,,0,0,1,,,0,,,46,50
328320,note_off,,,,,0,0,1,,,0,,,72,64
328320,control_change,,,,,24,0,2,,,0,64,127,,
328440,note_off,,,,,120,0,2,,,0,,,52,64
328440,note_on,,,,,0,0,2,,,0,,,53,41
328440,set_tempo,,,,,180,1,0,576923,,,,,,
328536,note_off,,,,,96,0,2,,,0,,,53,64
328560,note_on,,,,,24,0,2,,,0,,,53,36
328620,set_tempo,,,,,180,1,0,560748,,,,,,
328656,note_off,,,,,96,0,2,,,0,,,53,64
328680,note_on,,,,,24,0,2,,,0,,,53,30
328776,note_off,,,,,96,0,2,,,0,,,53,64
328800,note_on,,,,,24,0,2,,,0,,,53,36
328896,note_off,,,,,96,0,2,,,0,,,53,64
328920,note_on,,,,,24,0,2,,,0,,,53,37
328980,control_change,,,,,60,0,2,,,0,64,0,,
329016,note_off,,,,,36,0,2,,,0,,,53,64
329040,note_on,,,,,0,0,2,,,0,,,51,40
329040,control_change,,,,,24,0,2,,,0,64,127,,
329040,note_off,,,,,720,0,1,,,0,,,46,64
329040,note_on,,,,,0,0,1,,,0,,,65,48
329040,note_off,,,,,0,0,1,,,0,,,74,64
329040,note_off,,,,,0,0,1,,,0,,,62,64
329040,note_on,,,,,0,0,1,,,0,,,72,48
329040,note_on,,,,,0,0,1,,,0,,,60,48
329040,note_on,,,,,0,0,1,,,0,,,46,48
329040,note_off,,,,,0,0,1,,,0,,,65,64
329100,set_tempo,,,,,480,1,0,545455,,,,,,
329160,note_on,,,,,0,0,2,,,0,,,50,43
329160,note_off,,,,,120,0,2,,,0,,,51,64
329160,note_on,,,,,0,0,1,,,0,,,58,46
329160,note_on,,,,,0,0,1,,,0,,,65,46
329160,note_on,,,,,0,0,1,,,0,,,70,46
329160,note_off,,,,,0,0,1,,,0,,,72,64
329160,note_off,,,,,0,0,1,,,0,,,65,64
329160,note_off,,,,,120,0,1,,,0,,,60,64
329200,set_tempo,,,,,100,1,0,674157,,,,,,
329220,control_change,,,,,60,0,2,,,0,64,0,,
329240,set_tempo,,,,,40,1,0,681818,,,,,,
329260,set_tempo,,,,,20,1,0,631579,,,,,,
329280,note_off,,,,,60,0,2,,,0,,,50,64
329280,note_off,,,,,0,0,1,,,0,,,46,64
329280,note_off,,,,,0,0,1,,,0,,,70,64
329280,note_off,,,,,0,0,1,,,0,,,65,64
329280,note_off,,,,,120,0,1,,,0,,,58,64
329280,note_on,,,,,0,0,1,,,0,,,60,52
329280,note_on,,,,,0,0,1,,,0,,,72,52
329280,control_change,,,,,0,0,2,,,0,64,127,,
329280,note_on,,,,,0,0,2,,,0,,,51,50
329280,set_tempo,,,,,20,1,0,618557,,,,,,
329280,note_on,,,,,0,0,1,,,0,,,65,52
329280,note_on,,,,,0,0,1,,,0,,,41,52
329380,set_tempo,,,,,100,1,0,612245,,,,,,
329400,note_off,,,,,120,0,2,,,0,,,51,64
329400,note_on,,,,,0,0,2,,,0,,,53,41
329420,set_tempo,,,,,40,1,0,606061,,,,,,
329460,control_change,,,,,60,0,2,,,0,64,0,,
329480,set_tempo,,,,,60,1,0,600000,,,,,,
329496,note_off,,,,,36,0,2,,,0,,,53,64
329500,set_tempo,,,,,20,1,0,588235,,,,,,
329520,control_change,,,,,24,0,2,,,0,64,127,,
329520,note_on,,,,,0,0,2,,,0,,,51,47
329520,note_off,,,,,240,0,1,,,0,,,41,64
329520,note_on,,,,,0,0,1,,,0,,,65,47
329520,note_on,,,,,0,0,1,,,0,,,41,47
329520,note_on,,,,,0,0,1,,,0,,,60,47
329520,note_on,,,,,0,0,1,,,0,,,72,47
329520,note_off,,,,,0,0,1,,,0,,,72,64
329520,note_off,,,,,0,0,1,,,0,,,65,64
329520,note_off,,,,,0,0,1,,,0,,,60,64
329620,set_tempo,,,,,120,1,0,576923,,,,,,
329640,note_on,,,,,0,0,2,,,0,,,53,43
329640,note_off,,,,,120,0,2,,,0,,,51,64
329700,control_change,,,,,60,0,2,,,0,64,0,,
329736,note_off,,,,,36,0,2,,,0,,,53,64
329760,note_on,,,,,0,0,1,,,0,,,60,50
329760,note_on,,,,,0,0,1,,,0,,,65,50
329760,note_off,,,,,0,0,1,,,0,,,65,64
329760,note_on,,,,,0,0,1,,,0,,,72,50
329760,note_off,,,,,240,0,1,,,0,,,41,64
329760,control_change,,,,,24,0,2,,,0,64,127,,
329760,note_on,,,,,0,0,2,,,0,,,51,45
329760,note_off,,,,,0,0,1,,,0,,,72,64
329760,note_on,,,,,0,0,1,,,0,,,41,50
329760,note_off,,,,,0,0,1,,,0,,,60,64
329880,note_off,,,,,120,0,2,,,0,,,51,64
329880,note_on,,,,,0,0,2,,,0,,,53,37
329940,control_change,,,,,60,0,2,,,0,64,0,,
329976,note_off,,,,,36,0,2,,,0,,,53,64
330000,note_off,,,,,0,0,1,,,0,,,72,64
330000,control_change,,,,,24,0,2,,,0,64,127,,
330000,note_on,,,,,0,0,2,,,0,,,50,48
330000,note_on,,,,,0,0,1,,,0,,,41,53
330000,note_on,,,,,0,0,1,,,0,,,58,53
330000,note_off,,,,,0,0,1,,,0,,,65,64
330000,note_off,,,,,0,0,1,,,0,,,60,64
330000,note_off,,,,,240,0,1,,,0,,,41,64
330000,note_on,,,,,0,0,1,,,0,,,65,53
330000,note_on,,,,,0,0,1,,,0,,,70,53
330100,set_tempo,,,,,480,1,0,571429,,,,,,
330120,note_off,,,,,0,0,1,,,0,,,65,64
330120,note_off,,,,,120,0,1,,,0,,,58,64
330120,note_off,,,,,0,0,1,,,0,,,70,64
330120,note_on,,,,,0,0,1,,,0,,,69,55
330120,note_on,,,,,0,0,1,,,0,,,65,55
330120,note_on,,,,,0,0,1,,,0,,,57,55
330120,note_on,,,,,0,0,2,,,0,,,48,38
330120,note_off,,,,,120,0,2,,,0,,,50,64
330160,set_tempo,,,,,60,1,0,631579,,,,,,
330180,control_change,,,,,60,0,2,,,0,64,0,,
330240,note_on,,,,,0,0,2,,,0,,,50,50
330240,note_off,,,,,60,0,2,,,0,,,48,64
330240,control_change,,,,,0,0,2,,,0,64,127,,
330240,note_on,,,,,0,0,1,,,0,,,65,58
330240,note_on,,,,,0,0,1,,,0,,,46,58
330240,note_on,,,,,0,0,1,,,0,,,58,58
330240,note_on,,,,,0,0,1,,,0,,,70,58
330240,note_off,,,,,0,0,1,,,0,,,41,64
330240,note_off,,,,,0,0,1,,,0,,,69,64
330240,note_off,,,,,0,0,1,,,0,,,65,64
330240,note_off,,,,,120,0,1,,,0,,,57,64
330240,set_tempo,,,,,80,1,0,566038,,,,,,
330300,set_tempo,,,,,60,1,0,582524,,,,,,
330360,note_off,,,,,120,0,2,,,0,,,50,64
330360,note_on,,,,,0,0,2,,,0,,,53,41
330420,set_tempo,,,,,120,1,0,612245,,,,,,
330456,note_off,,,,,96,0,2,,,0,,,53,64
330480,note_on,,,,,24,0,2,,,0,,,51,39
330480,note_off,,,,,240,0,1,,,0,,,65,64
330480,note_on,,,,,0,0,1,,,0,,,67,44
330480,note_on,,,,,0,0,1,,,0,,,63,44
330510,control_change,,,,,30,0,2,,,0,64,0,,
330560,set_tempo,,,,,140,1,0,631579,,,,,,
330600,note_off,,,,,90,0,2,,,0,,,51,64
330600,note_on,,,,,0,0,2,,,0,,,55,36
330700,set_tempo,,,,,140,1,0,689655,,,,,,
330720,note_off,,,,,0,0,1,,,0,,,67,64
330720,note_on,,,,,0,0,1,,,0,,,65,34
330720,note_on,,,,,0,0,1,,,0,,,62,34
330720,note_off,,,,,240,0,1,,,0,,,63,64
330720,note_off,,,,,120,0,2,,,0,,,55,64
330720,note_on,,,,,0,0,2,,,0,,,50,34
330800,set_tempo,,,,,100,1,0,731707,,,,,,
330840,note_off,,,,,120,0,2,,,0,,,50,64
330840,note_on,,,,,0,0,2,,,0,,,53,32
330900,set_tempo,,,,,100,1,0,740741,,,,,,
330936,note_off,,,,,96,0,2,,,0,,,53,64
330960,note_on,,,,,0,0,2,,,0,,,50,40
330960,set_tempo,,,,,60,1,0,566038,,,,,,
330960,note_off,,,,,240,0,1,,,0,,,62,64
330960,note_off,,,,,0,0,1,,,0,,,65,64
330960,note_off,,,,,0,0,1,,,0,,,46,64
330960,note_off,,,,,0,0,1,,,0,,,58,64
330960,note_off,,,,,0,0,1,,,0,,,70,64
330960,note_on,,,,,0,0,1,,,0,,,70,52
330960,control_change,,,,,24,0,2,,,0,64,127,,
330960,note_on,,,,,0,0,1,,,0,,,46,52
331080,note_on,,,,,0,0,2,,,0,,,58,38
331080,note_off,,,,,120,0,2,,,0,,,50,64
331120,set_tempo,,,,,160,1,0,750000,,,,,,
331140,control_change,,,,,60,0,2,,,0,64,0,,
331170,note_off,,,,,30,0,2,,,0,,,58,64
331200,note_off,,,,,240,0,1,,,0,,,46,64
331200,note_off,,,,,0,0,1,,,0,,,70,64
331200,note_on,,,,,0,0,1,,,0,,,75,54
331200,note_on,,,,,0,0,1,,,0,,,70,54
331200,note_on,,,,,0,0,1,,,0,,,55,54
331200,set_tempo,,,,,80,1,0,571429,,,,,,
331200,note_on,,,,,0,0,1,,,0,,,63,54
331200,note_on,,,,,0,0,2,,,0,,,55,50
331200,control_change,,,,,30,0,2,,,0,64,127,,
331200,note_on,,,,,0,0,1,,,0,,,46,54
331320,note_on,,,,,0,0,2,,,0,,,58,41
331320,note_off,,,,,120,0,2,,,0,,,55,64
331416,note_off,,,,,96,0,2,,,0,,,58,64
331440,note_on,,,,,24,0,2,,,0,,,58,36
331536,note_off,,,,,96,0,2,,,0,,,58,64
331560,note_on,,,,,24,0,2,,,0,,,58,30
331656,note_off,,,,,96,0,2,,,0,,,58,64
331680,note_on,,,,,24,0,2,,,0,,,58,36
331776,note_off,,,,,96,0,2,,,0,,,58,64
331800,note_on,,,,,24,0,2,,,0,,,58,37
331860,control_change,,,,,60,0,2,,,0,64,0,,
331896,note_off,,,,,36,0,2,,,0,,,58,64
331920,note_off,,,,,720,0,1,,,0,,,46,64
331920,note_off,,,,,0,0,1,,,0,,,55,64
331920,note_off,,,,,0,0,1,,,0,,,63,64
331920,note_off,,,,,0,0,1,,,0,,,70,64
331920,note_off,,,,,0,0,1,,,0,,,75,64
331920,note_on,,,,,0,0,1,,,0,,,74,48
331920,note_on,,,,,0,0,1,,,0,,,70,48
331920,note_on,,,,,0,0,1,,,0,,,62,48
331920,note_on,,,,,0,0,1,,,0,,,46,48
331920,control_change,,,,,24,0,2,,,0,64,127,,
331920,set_tempo,,,,,720,1,0,582524,,,,,,
331920,note_on,,,,,0,0,2,,,0,,,53,40
332040,note_off,,,,,120,0,2,,,0,,,53,64
332040,note_on,,,,,0,0,2,,,0,,,51,43
332040,note_off,,,,,0,0,1,,,0,,,70,64
332040,note_off,,,,,0,0,1,,,0,,,74,64
332040,set_tempo,,,,,120,1,0,612245,,,,,,
332040,note_off,,,,,120,0,1,,,0,,,62,64
332040,note_on,,,,,0,0,1,,,0,,,60,48
332040,note_on,,,,,0,0,1,,,0,,,72,48
332040,note_on,,,,,0,0,1,,,0,,,70,48
332100,control_change,,,,,60,0,2,,,0,64,0,,
332160,note_on,,,,,0,0,2,,,0,,,53,50
332160,note_off,,,,,60,0,2,,,0,,,51,64
332160,note_off,,,,,120,0,1,,,0,,,60,64
332160,note_on,,,,,0,0,1,,,0,,,70,48
332160,note_on,,,,,0,0,1,,,0,,,74,48
332160,note_on,,,,,0,0,1,,,0,,,46,48
332160,note_off,,,,,0,0,1,,,0,,,46,64
332160,note_off,,,,,0,0,1,,,0,,,72,64
332160,control_change,,,,,0,0,2,,,0,64,127,,
332160,note_off,,,,,0,0,1,,,0,,,70,64
332160,note_on,,,,,0,0,1,,,0,,,62,48
332180,set_tempo,,,,,140,1,0,645161,,,,,,
332280,note_off,,,,,120,0,2,,,0,,,53,64
332280,note_on,,,,,0,0,2,,,0,,,50,41
332320,set_tempo,,,,,140,1,0,625000,,,,,,
332340,control_change,,,,,60,0,2,,,0,64,0,,
332376,note_off,,,,,36,0,2,,,0,,,50,64
332400,control_change,,,,,24,0,2,,,0,64,127,,
332400,note_on,,,,,0,0,2,,,0,,,48,36
332400,note_off,,,,,240,0,1,,,0,,,46,64
332400,note_off,,,,,0,0,1,,,0,,,62,64
332400,note_off,,,,,0,0,1,,,0,,,70,64
332400,note_on,,,,,0,0,1,,,0,,,41,52
332400,note_on,,,,,0,0,1,,,0,,,57,52
332400,note_on,,,,,0,0,1,,,0,,,65,52
332400,note_on,,,,,0,0,1,,,0,,,69,52
332400,note_off,,,,,0,0,1,,,0,,,74,64
332496,note_off,,,,,96,0,2,,,0,,,48,64
332500,set_tempo,,,,,180,1,0,618557,,,,,,
332520,note_on,,,,,24,0,2,,,0,,,53,38
332520,set_tempo,,,,,20,1,0,600000,,,,,,
332580,control_change,,,,,60,0,2,,,0,64,0,,
332616,note_off,,,,,36,0,2,,,0,,,53,64
332640,note_on,,,,,0,0,2,,,0,,,50,36
332640,control_change,,,,,24,0,2,,,0,64,127,,
332640,note_on,,,,,0,0,1,,,0,,,65,45
332640,note_off,,,,,240,0,1,,,0,,,41,64
332640,note_off,,,,,0,0,1,,,0,,,57,64
332640,note_off,,,,,0,0,1,,,0,,,65,64
332640,note_off,,,,,0,0,1,,,0,,,69,64
332640,note_on,,,,,0,0,1,,,0,,,70,45
332640,note_on,,,,,0,0,1,,,0,,,41,45
332640,note_on,,,,,0,0,1,,,0,,,58,45
332736,note_off,,,,,96,0,2,,,0,,,50,64
332760,note_on,,,,,24,0,2,,,0,,,53,37
332820,control_change,,,,,60,0,2,,,0,64,0,,
332840,set_tempo,,,,,320,1,0,576923,,,,,,
332856,note_off,,,,,36,0,2,,,0,,,53,64
332880,control_change,,,,,24,0,2,,,0,64,127,,
332880,note_on,,,,,0,0,2,,,0,,,51,40
332880,note_on,,,,,0,0,1,,,0,,,65,43
332880,note_off,,,,,0,0,1,,,0,,,70,64
332880,note_off,,,,,240,0,1,,,0,,,41,64
332880,note_off,,,,,0,0,1,,,0,,,58,64
332880,note_off,,,,,0,0,1,,,0,,,65,64
332880,note_on,,,,,0,0,1,,,0,,,72,43
332880,note_on,,,,,0,0,1,,,0,,,60,43
332880,note_on,,,,,0,0,1,,,0,,,41,43
333000,note_off,,,,,120,0,2,,,0,,,51,64
333000,note_on,,,,,0,0,2,,,0,,,53,43
333060,control_change,,,,,60,0,2,,,0,64,0,,
333120,control_change,,,,,0,0,2,,,0,64,127,,
333120,note_on,,,,,0,0,2,,,0,,,50,50
333120,note_off,,,,,240,0,1,,,0,,,41,64
333120,note_off,,,,,0,0,1,,,0,,,60,64
333120,note_off,,,,,0,0,1,,,0,,,65,64
333120,note_off,,,,,0,0,1,,,0,,,72,64
333120,note_off,,,,,60,0,2,,,0,,,53,64
333120,note_on,,,,,0,0,1,,,0,,,70,48
333120,note_on,,,,,0,0,1,,,0,,,58,48
333120,note_on,,,,,0,0,1,,,0,,,41,48
333120,note_on,,,,,0,0,1,,,0,,,65,48
333240,note_off,,,,,120,0,2,,,0,,,50,64
333240,note_on,,,,,0,0,2,,,0,,,53,49
333340,set_tempo,,,,,500,1,0,600000,,,,,,
333360,note_off,,,,,120,0,2,,,0,,,53,64
333360,note_on,,,,,0,0,2,,,0,,,50,41
333360,note_on,,,,,0,0,1,,,0,,,65,53
333360,note_on,,,,,0,0,1,,,0,,,70,53
333360,note_on,,,,,0,0,1,,,0,,,62,53
333360,note_on,,,,,0,0,1,,,0,,,74,53
333360,note_off,,,,,0,0,1,,,0,,,70,64
333360,note_off,,,,,0,0,1,,,0,,,65,64
333360,note_off,,,,,240,0,1,,,0,,,58,64
333480,note_on,,,,,0,0,2,,,0,,,46,35
333480,note_off,,,,,120,0,2,,,0,,,50,64
333500,set_tempo,,,,,160,1,0,618557,,,,,,
333600,note_on,,,,,0,0,1,,,0,,,69,44
333600,note_on,,,,,0,0,2,,,0,,,41,45
333600,note_off,,,,,120,0,2,,,0,,,46,64
333600,note_on,,,,,0,0,1,,,0,,,60,44
333600,note_off,,,,,0,0,1,,,0,,,70,64
333600,note_off,,,,,240,0,1,,,0,,,62,64
333600,note_off,,,,,0,0,1,,,0,,,65,64
333600,note_on,,,,,0,0,1,,,0,,,72,44
333600,note_off,,,,,0,0,1,,,0,,,41,64
333600,note_off,,,,,0,0,1,,,0,,,74,64
333600,note_on,,,,,0,0,1,,,0,,,65,44
333640,set_tempo,,,,,140,1,0,631579,,,,,,
333780,set_tempo,,,,,140,1,0,666667,,,,,,
333840,note_off,,,,,240,0,2,,,0,,,41,64
333940,set_tempo,,,,,160,1,0,674157,,,,,,
333980,set_tempo,,,,,40,1,0,582524,,,,,,
333990,note_on,,,,,0,0,2,,,0,,,29,51
333990,control_change,,,,,150,0,2,,,0,64,0,,
334000,set_tempo,,,,,20,1,0,789474,,,,,,
334020,note_off,,,,,30,0,2,,,0,,,29,64
334020,note_on,,,,,0,0,2,,,0,,,30,55
334050,note_off,,,,,30,0,2,,,0,,,30,64
334050,note_on,,,,,0,0,2,,,0,,,32,59
334080,note_on,,,,,0,0,2,,,0,,,30,62
334080,note_off,,,,,30,0,2,,,0,,,32,64
334110,note_on,,,,,0,0,2,,,0,,,32,63
334110,note_off,,,,,30,0,2,,,0,,,30,64
334140,set_tempo,,,,,140,1,0,588235,,,,,,
334140,note_on,,,,,0,0,2,,,0,,,30,60
334140,note_off,,,,,30,0,2,,,0,,,32,64
334170,note_on,,,,,0,0,2,,,0,,,32,59
334170,note_off,,,,,30,0,2,,,0,,,30,64
334200,note_on,,,,,0,0,2,,,0,,,30,57
334200,note_off,,,,,30,0,2,,,0,,,32,64
334220,set_tempo,,,,,80,1,0,606061,,,,,,
334230,note_on,,,,,0,0,2,,,0,,,32,55
334230,note_off,,,,,30,0,2,,,0,,,30,64
334260,note_on,,,,,0,0,2,,,0,,,30,54
334260,note_off,,,,,30,0,2,,,0,,,32,64
334290,note_on,,,,,0,0,2,,,0,,,32,53
334290,note_off,,,,,30,0,2,,,0,,,30,64
334320,note_on,,,,,0,0,2,,,0,,,30,52
334320,note_off,,,,,30,0,2,,,0,,,32,64
334350,note_off,,,,,30,0,2,,,0,,,30,64
334350,note_on,,,,,0,0,2,,,0,,,32,51
334380,note_on,,,,,0,0,2,,,0,,,30,51
334380,note_off,,,,,30,0,2,,,0,,,32,64
334400,set_tempo,,,,,180,1,0,631579,,,,,,
334410,note_on,,,,,0,0,2,,,0,,,32,49
334410,note_off,,,,,30,0,2,,,0,,,30,64
334440,note_on,,,,,0,0,2,,,0,,,30,48
334440,note_off,,,,,30,0,2,,,0,,,32,64
334470,note_off,,,,,30,0,2,,,0,,,30,64
334470,note_on,,,,,0,0,2,,,0,,,32,47
334500,note_on,,,,,0,0,2,,,0,,,30,46
334500,note_off,,,,,30,0,2,,,0,,,32,64
334530,note_on,,,,,0,0,2,,,0,,,32,46
334530,note_off,,,,,30,0,2,,,0,,,30,64
334560,note_on,,,,,0,0,2,,,0,,,30,45
334560,note_off,,,,,30,0,2,,,0,,,32,64
334590,note_on,,,,,0,0,2,,,0,,,32,44
334590,note_off,,,,,30,0,2,,,0,,,30,64
334620,note_on,,,,,0,0,2,,,0,,,30,44
334620,note_off,,,,,30,0,2,,,0,,,32,64
334650,note_on,,,,,0,0,2,,,0,,,32,44
334650,note_off,,,,,30,0,2,,,0,,,30,64
334680,note_off,,,,,30,0,2,,,0,,,32,64
334680,note_on,,,,,0,0,2,,,0,,,30,43
334710,note_on,,,,,0,0,2,,,0,,,32,43
334710,note_off,,,,,30,0,2,,,0,,,30,64
334740,note_on,,,,,0,0,2,,,0,,,30,44
334740,note_off,,,,,30,0,2,,,0,,,32,64
334770,note_on,,,,,0,0,2,,,0,,,32,42
334770,note_off,,,,,30,0,2,,,0,,,30,64
334800,note_on,,,,,0,0,2,,,0,,,30,41
334800,note_off,,,,,30,0,2,,,0,,,32,64
334830,note_off,,,,,30,0,2,,,0,,,30,64
334830,note_on,,,,,0,0,2,,,0,,,32,41
334860,note_off,,,,,30,0,2,,,0,,,32,64
334860,note_on,,,,,0,0,2,,,0,,,30,40
334890,note_off,,,,,30,0,2,,,0,,,30,64
334890,note_on,,,,,0,0,2,,,0,,,32,39
334920,note_off,,,,,30,0,2,,,0,,,32,64
334920,note_on,,,,,0,0,2,,,0,,,30,39
334920,set_tempo,,,,,520,1,0,659341,,,,,,
334940,set_tempo,,,,,20,1,0,666667,,,,,,
334960,note_on,,,,,0,0,2,,,0,,,29,38
334960,set_tempo,,,,,20,1,0,967742,,,,,,
334960,note_off,,,,,40,0,2,,,0,,,30,64
334980,set_tempo,,,,,20,1,0,1000000,,,,,,
335000,note_off,,,,,40,0,2,,,0,,,29,64
335000,note_on,,,,,0,0,2,,,0,,,30,34
335020,set_tempo,,,,,40,1,0,1034483,,,,,,
335040,note_off,,,,,40,0,2,,,0,,,30,64
335040,control_change,,,,,0,0,2,,,0,91,96,,
335040,set_tempo,,,,,20,1,0,1463415,,,,,,
335040,note_on,,,,,0,0,2,,,0,,,29,34
335160,note_off,,,,,120,0,2,,,0,,,29,64
335160,note_off,,,,,0,0,1,,,0,,,72,64
335160,note_off,,,,,0,0,1,,,0,,,69,64
335160,note_off,,,,,0,0,1,,,0,,,65,64
335160,note_off,,,,,1560,0,1,,,0,,,60,64
335180,set_tempo,,,,,140,1,0,560748,,,,,,
335760,note_on,,,,,0,0,1,,,0,,,65,40
335760,control_change,,,,,600,0,2,,,0,64,127,,
335760,note_on,,,,,0,0,2,,,0,,,50,35
335760,note_on,,,,,0,0,1,,,0,,,46,40
335760,note_on,,,,,600,0,1,,,0,,,70,40
335760,note_on,,,,,0,0,1,,,0,,,58,40
335880,set_tempo,,,,,700,1,0,631579,,,,,,
335880,note_on,,,,,0,0,2,,,0,,,53,30
335880,note_off,,,,,120,0,2,,,0,,,50,64
335940,control_change,,,,,60,0,2,,,0,64,0,,
335976,note_off,,,,,36,0,2,,,0,,,53,64
335980,set_tempo,,,,,100,1,0,625000,,,,,,
336000,note_off,,,,,0,0,1,,,0,,,65,64
336000,note_off,,,,,0,0,1,,,0,,,70,64
336000,note_on,,,,,0,0,1,,,0,,,70,49
336000,note_on,,,,,0,0,1,,,0,,,65,49
336000,note_on,,,,,0,0,1,,,0,,,58,49
336000,note_on,,,,,0,0,1,,,0,,,46,49
336000,note_off,,,,,0,0,1,,,0,,,58,64
336000,note_off,,,,,240,0,1,,,0,,,46,64
336000,control_change,,,,,24,0,2,,,0,64,127,,
336000,note_on,,,,,0,0,2,,,0,,,50,39
336120,note_off,,,,,120,0,2,,,0,,,50,64
336120,note_on,,,,,0,0,2,,,0,,,53,31
336180,control_change,,,,,60,0,2,,,0,64,0,,
336216,note_off,,,,,36,0,2,,,0,,,53,64
336220,set_tempo,,,,,240,1,0,600000,,,,,,
336240,control_change,,,,,24,0,2,,,0,64,127,,
336240,note_on,,,,,0,0,2,,,0,,,48,36
336240,note_off,,,,,240,0,1,,,0,,,46,64
336240,note_off,,,,,0,0,1,,,0,,,58,64
336240,note_off,,,,,0,0,1,,,0,,,65,64
336240,note_off,,,,,0,0,1,,,0,,,70,64
336240,note_on,,,,,0,0,1,,,0,,,65,41
336240,note_on,,,,,0,0,1,,,0,,,57,41
336240,note_on,,,,,0,0,1,,,0,,,46,41
336240,note_on,,,,,0,0,1,,,0,,,69,41
336360,note_off,,,,,120,0,2,,,0,,,48,64
336360,note_on,,,,,0,0,2,,,0,,,53,31
336420,control_change,,,,,60,0,2,,,0,64,0,,
336420,set_tempo,,,,,200,1,0,571429,,,,,,
336456,note_off,,,,,36,0,2,,,0,,,53,64
336480,note_off,,,,,240,0,1,,,0,,,46,64
336480,note_on,,,,,0,0,1,,,0,,,58,44
336480,note_on,,,,,0,0,1,,,0,,,65,44
336480,note_on,,,,,0,0,1,,,0,,,70,44
336480,note_off,,,,,0,0,1,,,0,,,69,64
336480,note_off,,,,,0,0,1,,,0,,,65,64
336480,note_off,,,,,0,0,1,,,0,,,57,64
336480,control_change,,,,,24,0,2,,,0,64,127,,
336480,note_on,,,,,0,0,2,,,0,,,50,39
336480,note_on,,,,,0,0,1,,,0,,,46,44
336560,set_tempo,,,,,140,1,0,550459,,,,,,
336600,note_off,,,,,120,0,2,,,0,,,50,64
336600,note_on,,,,,0,0,2,,,0,,,53,35
336660,control_change,,,,,60,0,2,,,0,64,0,,
336696,note_off,,,,,36,0,2,,,0,,,53,64
336720,note_off,,,,,240,0,1,,,0,,,46,64
336720,control_change,,,,,24,0,2,,,0,64,127,,
336720,note_on,,,,,0,0,2,,,0,,,51,42
336720,note_on,,,,,0,0,1,,,0,,,60,54
336720,note_on,,,,,0,0,1,,,0,,,46,54
336720,note_off,,,,,0,0,1,,,0,,,58,64
336720,note_off,,,,,0,0,1,,,0,,,65,64
336720,note_off,,,,,0,0,1,,,0,,,70,64
336720,note_on,,,,,0,0,1,,,0,,,72,54
336720,note_on,,,,,0,0,1,,,0,,,65,54
336840,note_on,,,,,0,0,2,,,0,,,53,38
336840,note_off,,,,,120,0,2,,,0,,,51,64
336840,set_tempo,,,,,280,1,0,566038,,,,,,
336880,set_tempo,,,,,40,1,0,631579,,,,,,
336900,control_change,,,,,60,0,2,,,0,64,0,,
336936,note_off,,,,,36,0,2,,,0,,,53,64
336960,note_off,,,,,240,0,1,,,0,,,46,64
336960,note_off,,,,,0,0,1,,,0,,,60,64
336960,note_on,,,,,0,0,1,,,0,,,46,57
336960,note_on,,,,,0,0,1,,,0,,,65,57
336960,note_on,,,,,0,0,1,,,0,,,74,57
336960,note_on,,,,,0,0,1,,,0,,,62,57
336960,note_off,,,,,0,0,1,,,0,,,65,64
336960,control_change,,,,,24,0,2,,,0,64,127,,
336960,note_on,,,,,0,0,2,,,0,,,52,50
336960,note_off,,,,,0,0,1,,,0,,,72,64
336980,set_tempo,,,,,100,1,0,625000,,,,,,
337060,set_tempo,,,,,80,1,0,600000,,,,,,
337080,note_off,,,,,120,0,2,,,0,,,52,64
337080,note_on,,,,,0,0,2,,,0,,,53,41
337160,set_tempo,,,,,100,1,0,566038,,,,,,
337176,note_off,,,,,96,0,2,,,0,,,53,64
337200,note_on,,,,,24,0,2,,,0,,,53,36
337296,note_off,,,,,96,0,2,,,0,,,53,64
337320,note_on,,,,,24,0,2,,,0,,,53,30
337416,note_off,,,,,96,0,2,,,0,,,53,64
337440,note_on,,,,,24,0,2,,,0,,,53,36
337536,note_off,,,,,96,0,2,,,0,,,53,64
337560,note_on,,,,,24,0,2,,,0,,,53,37
337620,control_change,,,,,60,0,2,,,0,64,0,,
337620,set_tempo,,,,,460,1,0,550459,,,,,,
337640,set_tempo,,,,,20,1,0,560748,,,,,,
337656,note_off,,,,,36,0,2,,,0,,,53,64
337660,set_tempo,,,,,20,1,0,550459,,,,,,
337680,note_on,,,,,0,0,1,,,0,,,72,48
337680,note_off,,,,,0,0,1,,,0,,,65,64
337680,note_off,,,,,0,0,1,,,0,,,74,64
337680,note_off,,,,,0,0,1,,,0,,,62,64
337680,note_on,,,,,0,0,1,,,0,,,65,48
337680,note_on,,,,,0,0,1,,,0,,,60,48
337680,note_on,,,,,0,0,1,,,0,,,46,48
337680,note_off,,,,,720,0,1,,,0,,,46,64
337680,control_change,,,,,24,0,2,,,0,64,127,,
337680,note_on,,,,,0,0,2,,,0,,,51,40
337740,set_tempo,,,,,80,1,0,545455,,,,,,
337800,note_on,,,,,0,0,2,,,0,,,50,43
337800,note_on,,,,,0,0,1,,,0,,,58,46
337800,note_on,,,,,0,0,1,,,0,,,70,46
337800,note_off,,,,,0,0,1,,,0,,,72,64
337800,note_off,,,,,0,0,1,,,0,,,65,64
337800,note_off,,,,,120,0,1,,,0,,,60,64
337800,note_on,,,,,0,0,1,,,0,,,65,46
337800,note_off,,,,,120,0,2,,,0,,,51,64
337840,set_tempo,,,,,100,1,0,674157,,,,,,
337860,control_change,,,,,60,0,2,,,0,64,0,,
337880,set_tempo,,,,,40,1,0,681818,,,,,,
337900,set_tempo,,,,,20,1,0,631579,,,,,,
337920,note_off,,,,,60,0,2,,,0,,,50,64
337920,note_on,,,,,0,0,1,,,0,,,65,52
337920,control_change,,,,,0,0,2,,,0,64,127,,
337920,note_on,,,,,0,0,1,,,0,,,60,52
337920,note_on,,,,,0,0,1,,,0,,,72,52
337920,note_on,,,,,0,0,2,,,0,,,51,50
337920,set_tempo,,,,,20,1,0,618557,,,,,,
337920,note_off,,,,,0,0,1,,,0,,,46,64
337920,note_off,,,,,0,0,1,,,0,,,70,64
337920,note_off,,,,,0,0,1,,,0,,,65,64
337920,note_off,,,,,120,0,1,,,0,,,58,64
337920,note_on,,,,,0,0,1,,,0,,,41,52
338040,note_on,,,,,0,0,2,,,0,,,53,41
338040,set_tempo,,,,,120,1,0,606061,,,,,,
338040,note_off,,,,,120,0,2,,,0,,,51,64
338100,control_change,,,,,60,0,2,,,0,64,0,,
338136,note_off,,,,,36,0,2,,,0,,,53,64
338160,control_change,,,,,24,0,2,,,0,64,127,,
338160,note_on,,,,,0,0,2,,,0,,,51,47
338160,note_on,,,,,0,0,1,,,0,,,60,47
338160,note_off,,,,,240,0,1,,,0,,,41,64
338160,note_off,,,,,0,0,1,,,0,,,60,64
338160,note_off,,,,,0,0,1,,,0,,,65,64
338160,note_off,,,,,0,0,1,,,0,,,72,64
338160,note_on,,,,,0,0,1,,,0,,,72,47
338160,note_on,,,,,0,0,1,,,0,,,65,47
338160,note_on,,,,,0,0,1,,,0,,,41,47
338160,set_tempo,,,,,120,1,0,582524,,,,,,
338280,note_off,,,,,120,0,2,,,0,,,51,64
338280,note_on,,,,,0,0,2,,,0,,,53,43
338340,control_change,,,,,60,0,2,,,0,64,0,,
338376,note_off,,,,,36,0,2,,,0,,,53,64
338400,note_on,,,,,0,0,2,,,0,,,51,45
338400,note_off,,,,,0,0,1,,,0,,,60,64
338400,note_off,,,,,240,0,1,,,0,,,41,64
338400,note_off,,,,,0,0,1,,,0,,,65,64
338400,control_change,,,,,24,0,2,,,0,64,127,,
338400,note_off,,,,,0,0,1,,,0,,,72,64
338400,note_on,,,,,0,0,1,,,0,,,60,50
338400,note_on,,,,,0,0,1,,,0,,,65,50
338400,note_on,,,,,0,0,1,,,0,,,41,50
338400,note_on,,,,,0,0,1,,,0,,,72,50
338520,note_on,,,,,0,0,2,,,0,,,53,37
338520,note_off,,,,,120,0,2,,,0,,,51,64
338580,control_change,,,,,60,0,2,,,0,64,0,,
338616,note_off,,,,,36,0,2,,,0,,,53,64
338640,note_off,,,,,0,0,1,,,0,,,65,64
338640,note_off,,,,,240,0,1,,,0,,,41,64
338640,note_off,,,,,0,0,1,,,0,,,60,64
338640,note_on,,,,,0,0,2,,,0,,,50,48
338640,note_off,,,,,0,0,1,,,0,,,72,64
338640,note_on,,,,,0,0,1,,,0,,,41,53
338640,note_on,,,,,0,0,1,,,0,,,70,53
338640,note_on,,,,,0,0,1,,,0,,,65,53
338640,note_on,,,,,0,0,1,,,0,,,58,53
338640,control_change,,,,,24,0,2,,,0,64,127,,
338740,set_tempo,,,,,580,1,0,571429,,,,,,
338760,note_off,,,,,0,0,1,,,0,,,65,64
338760,note_off,,,,,120,0,1,,,0,,,58,64
338760,note_on,,,,,0,0,1,,,0,,,57,55
338760,note_on,,,,,0,0,1,,,0,,,69,55
338760,note_on,,,,,0,0,2,,,0,,,48,38
338760,note_off,,,,,120,0,2,,,0,,,50,64
338760,note_off,,,,,0,0,1,,,0,,,70,64
338760,note_on,,,,,0,0,1,,,0,,,65,55
338800,set_tempo,,,,,60,1,0,631579,,,,,,
338820,control_change,,,,,60,0,2,,,0,64,0,,
338880,set_tempo,,,,,80,1,0,566038,,,,,,
338880,note_on,,,,,0,0,1,,,0,,,58,58
338880,control_change,,,,,0,0,2,,,0,64,127,,
338880,note_on,,,,,0,0,2,,,0,,,50,50
338880,note_on,,,,,0,0,1,,,0,,,46,58
338880,note_on,,,,,0,0,1,,,0,,,65,58
338880,note_on,,,,,0,0,1,,,0,,,70,58
338880,note_off,,,,,0,0,1,,,0,,,41,64
338880,note_off,,,,,0,0,1,,,0,,,69,64
338880,note_off,,,,,0,0,1,,,0,,,65,64
338880,note_off,,,,,120,0,1,,,0,,,57,64
338880,note_off,,,,,60,0,2,,,0,,,48,64
338920,set_tempo,,,,,40,1,0,582524,,,,,,
339000,note_on,,,,,0,0,2,,,0,,,53,41
339000,note_off,,,,,120,0,2,,,0,,,50,64
339040,set_tempo,,,,,120,1,0,606061,,,,,,
339096,note_off,,,,,96,0,2,,,0,,,53,64
339120,note_on,,,,,0,0,1,,,0,,,63,44
339120,note_on,,,,,24,0,2,,,0,,,51,39
339120,note_on,,,,,0,0,1,,,0,,,67,44
339120,note_off,,,,,240,0,1,,,0,,,65,64
339150,control_change,,,,,30,0,2,,,0,64,0,,
339180,set_tempo,,,,,140,1,0,631579,,,,,,
339240,note_off,,,,,90,0,2,,,0,,,51,64
339240,note_on,,,,,0,0,2,,,0,,,55,36
339360,note_off,,,,,0,0,1,,,0,,,67,64
339360,note_off,,,,,240,0,1,,,0,,,63,64
339360,note_off,,,,,120,0,2,,,0,,,55,64
339360,note_on,,,,,0,0,2,,,0,,,50,34
339360,note_on,,,,,0,0,1,,,0,,,65,34
339360,note_on,,,,,0,0,1,,,0,,,62,34
339400,set_tempo,,,,,220,1,0,645161,,,,,,
339460,set_tempo,,,,,60,1,0,618557,,,,,,
339480,note_on,,,,,0,0,2,,,0,,,53,32
339480,note_off,,,,,120,0,2,,,0,,,50,64
339500,set_tempo,,,,,40,1,0,612245,,,,,,
339540,set_tempo,,,,,40,1,0,600000,,,,,,
339576,note_off,,,,,96,0,2,,,0,,,53,64
339600,note_off,,,,,0,0,1,,,0,,,46,64
339600,note_off,,,,,240,0,1,,,0,,,62,64
339600,note_off,,,,,0,0,1,,,0,,,65,64
339600,note_on,,,,,0,0,1,,,0,,,44,57
339600,note_on,,,,,0,0,1,,,0,,,62,52
339600,note_on,,,,,0,0,1,,,0,,,65,52
339600,control_change,,,,,24,0,2,,,0,64,127,,
339600,note_on,,,,,0,0,2,,,0,,,50,40
339600,note_on,,,,,0,0,1,,,0,,,74,52
339600,note_off,,,,,0,0,1,,,0,,,70,64
339600,note_off,,,,,0,0,1,,,0,,,58,64
339700,set_tempo,,,,,160,1,0,560748,,,,,,
339720,note_off,,,,,120,0,2,,,0,,,50,64
339720,set_tempo,,,,,20,1,0,550459,,,,,,
339720,note_on,,,,,0,0,2,,,0,,,53,38
339760,set_tempo,,,,,40,1,0,750000,,,,,,
339780,control_change,,,,,60,0,2,,,0,64,0,,
339810,note_off,,,,,30,0,2,,,0,,,53,64
339840,note_on,,,,,0,0,1,,,0,,,67,54
339840,note_on,,,,,0,0,1,,,0,,,74,54
339840,note_on,,,,,0,0,1,,,0,,,53,54
339840,note_off,,,,,0,0,1,,,0,,,74,64
339840,note_off,,,,,0,0,1,,,0,,,65,64
339840,set_tempo,,,,,80,1,0,618557,,,,,,
339840,note_on,,,,,0,0,2,,,0,,,53,50
339840,control_change,,,,,30,0,2,,,0,64,127,,
339840,note_off,,,,,0,0,1,,,0,,,62,64
339840,note_on,,,,,0,0,1,,,0,,,62,54
339840,note_on,,,,,0,0,1,,,0,,,43,54
339840,note_off,,,,,240,0,1,,,0,,,44,64
339960,note_on,,,,,0,0,2,,,0,,,55,41
339960,note_off,,,,,120,0,2,,,0,,,53,64
340056,note_off,,,,,96,0,2,,,0,,,55,64
340060,set_tempo,,,,,220,1,0,571429,,,,,,
340080,note_on,,,,,24,0,2,,,0,,,55,36
340176,note_off,,,,,96,0,2,,,0,,,55,64
340200,note_on,,,,,24,0,2,,,0,,,55,30
340296,note_off,,,,,96,0,2,,,0,,,55,64
340320,note_on,,,,,24,0,2,,,0,,,55,29
340416,note_off,,,,,96,0,2,,,0,,,55,64
340440,note_on,,,,,24,0,2,,,0,,,55,31
340500,control_change,,,,,60,0,2,,,0,64,0,,
340536,note_off,,,,,36,0,2,,,0,,,55,64
340540,set_tempo,,,,,480,1,0,566038,,,,,,
340560,control_change,,,,,24,0,2,,,0,64,127,,
340560,note_on,,,,,0,0,2,,,0,,,51,33
340560,note_off,,,,,720,0,1,,,0,,,43,64
340560,note_off,,,,,0,0,1,,,0,,,53,64
340560,note_off,,,,,0,0,1,,,0,,,62,64
340560,note_off,,,,,0,0,1,,,0,,,67,64
340560,note_off,,,,,0,0,1,,,0,,,74,64
340560,note_on,,,,,0,0,1,,,0,,,72,42
340560,note_on,,,,,0,0,1,,,0,,,67,42
340560,note_on,,,,,0,0,1,,,0,,,60,42
340560,note_on,,,,,0,0,1,,,0,,,43,42
340680,set_tempo,,,,,140,1,0,560748,,,,,,
340680,note_off,,,,,0,0,1,,,0,,,60,64
340680,note_off,,,,,0,0,1,,,0,,,67,64
340680,note_off,,,,,120,0,1,,,0,,,43,64
340680,note_on,,,,,0,0,1,,,0,,,71,47
340680,note_on,,,,,0,0,1,,,0,,,67,47
340680,note_on,,,,,0,0,1,,,0,,,43,47
340680,note_on,,,,,0,0,1,,,0,,,59,47
340680,note_off,,,,,120,0,2,,,0,,,51,64
340680,note_off,,,,,0,0,1,,,0,,,72,64
340680,note_on,,,,,0,0,2,,,0,,,50,36
340740,set_tempo,,,,,60,1,0,550459,,,,,,
340740,control_change,,,,,60,0,2,,,0,64,0,,
340760,set_tempo,,,,,20,1,0,576923,,,,,,
340780,set_tempo,,,,,20,1,0,588235,,,,,,
340800,note_off,,,,,0,0,1,,,0,,,67,64
340800,note_off,,,,,0,0,1,,,0,,,59,64
340800,note_off,,,,,120,0,1,,,0,,,43,64
340800,note_off,,,,,60,0,2,,,0,,,50,64
340800,note_off,,,,,0,0,1,,,0,,,71,64
340800,note_on,,,,,0,0,1,,,0,,,75,49
340800,note_on,,,,,0,0,2,,,0,,,48,40
340800,note_on,,,,,0,0,1,,,0,,,63,49
340800,note_on,,,,,0,0,1,,,0,,,43,49
340800,control_change,,,,,0,0,2,,,0,64,127,,
340800,note_on,,,,,0,0,1,,,0,,,72,49
340880,set_tempo,,,,,100,1,0,612245,,,,,,
340920,note_on,,,,,0,0,2,,,0,,,55,43
340920,note_off,,,,,120,0,2,,,0,,,48,64
340940,set_tempo,,,,,60,1,0,618557,,,,,,
340980,control_change,,,,,60,0,2,,,0,64,0,,
341016,note_off,,,,,36,0,2,,,0,,,55,64
341040,note_off,,,,,240,0,1,,,0,,,43,64
341040,note_off,,,,,0,0,1,,,0,,,63,64
341040,note_on,,,,,0,0,1,,,0,,,62,45
341040,note_off,,,,,0,0,1,,,0,,,75,64
341040,note_on,,,,,0,0,2,,,0,,,53,40
341040,note_on,,,,,0,0,1,,,0,,,43,45
341040,note_on,,,,,0,0,1,,,0,,,74,45
341040,note_on,,,,,0,0,1,,,0,,,67,45
341040,note_off,,,,,0,0,1,,,0,,,72,64
341040,control_change,,,,,24,0,2,,,0,64,127,,
341136,note_off,,,,,96,0,2,,,0,,,53,64
341160,note_on,,,,,24,0,2,,,0,,,55,39
341220,control_change,,,,,60,0,2,,,0,64,0,,
341240,set_tempo,,,,,300,1,0,625000,,,,,,
341256,note_off,,,,,36,0,2,,,0,,,55,64
341260,set_tempo,,,,,20,1,0,631579,,,,,,
341280,note_off,,,,,0,0,1,,,0,,,74,64
341280,note_on,,,,,0,0,1,,,0,,,67,40
341280,note_on,,,,,0,0,1,,,0,,,43,40
341280,note_on,,,,,0,0,1,,,0,,,72,40
341280,note_off,,,,,0,0,1,,,0,,,67,64
341280,note_on,,,,,0,0,1,,,0,,,60,40
341280,note_off,,,,,240,0,1,,,0,,,43,64
341280,control_change,,,,,24,0,2,,,0,64,127,,
341280,note_on,,,,,0,0,2,,,0,,,51,37
341280,note_off,,,,,0,0,1,,,0,,,62,64
341376,note_off,,,,,96,0,2,,,0,,,51,64
341400,note_on,,,,,24,0,2,,,0,,,55,36
341420,set_tempo,,,,,160,1,0,666667,,,,,,
341460,control_change,,,,,60,0,2,,,0,64,0,,
341480,set_tempo,,,,,60,1,0,652174,,,,,,
341496,note_off,,,,,36,0,2,,,0,,,55,64
341500,set_tempo,,,,,20,1,0,571429,,,,,,
341520,note_on,,,,,0,0,1,,,0,,,72,43
341520,note_on,,,,,24,0,2,,,0,,,51,36
341520,control_change,,,,,0,0,2,,,0,64,127,,
341520,note_off,,,,,0,0,1,,,0,,,72,64
341520,note_off,,,,,0,0,1,,,0,,,60,64
341520,note_off,,,,,240,0,1,,,0,,,43,64
341520,note_off,,,,,0,0,1,,,0,,,67,64
341520,note_on,,,,,0,0,1,,,0,,,42,43
341520,note_on,,,,,0,0,1,,,0,,,60,43
341520,note_on,,,,,0,0,1,,,0,,,69,43
341620,set_tempo,,,,,120,1,0,576923,,,,,,
341640,set_tempo,,,,,20,1,0,582524,,,,,,
341640,note_on,,,,,0,0,2,,,0,,,54,36
341640,note_off,,,,,120,0,2,,,0,,,51,64
341700,control_change,,,,,60,0,2,,,0,64,0,,
341700,set_tempo,,,,,60,1,0,588235,,,,,,
341760,control_change,,,,,0,0,2,,,0,64,127,,
341760,note_on,,,,,0,0,2,,,0,,,51,41
341760,set_tempo,,,,,60,1,0,645161,,,,,,
341760,note_off,,,,,60,0,2,,,0,,,54,64
341760,note_on,,,,,0,0,1,,,0,,,65,47
341760,note_on,,,,,0,0,1,,,0,,,41,47
341760,note_on,,,,,0,0,1,,,0,,,51,47
341760,note_on,,,,,0,0,1,,,0,,,60,47
341760,note_off,,,,,0,0,1,,,0,,,72,64
341760,note_off,,,,,240,0,1,,,0,,,42,64
341760,note_off,,,,,0,0,1,,,0,,,60,64
341760,note_on,,,,,0,0,1,,,0,,,72,47
341760,note_off,,,,,0,0,1,,,0,,,69,64
341780,set_tempo,,,,,20,1,0,681818,,,,,,
341800,set_tempo,,,,,20,1,0,674157,,,,,,
341820,set_tempo,,,,,20,1,0,659341,,,,,,
341840,set_tempo,,,,,20,1,0,612245,,,,,,
341880,note_off,,,,,120,0,2,,,0,,,51,64
341880,note_on,,,,,0,0,2,,,0,,,53,42
341880,set_tempo,,,,,40,1,0,571429,,,,,,
341960,set_tempo,,,,,80,1,0,566038,,,,,,
341976,note_off,,,,,96,0,2,,,0,,,53,64
342000,note_on,,,,,24,0,2,,,0,,,53,36
342096,note_off,,,,,96,0,2,,,0,,,53,64
342120,note_on,,,,,24,0,2,,,0,,,53,34
342216,note_off,,,,,96,0,2,,,0,,,53,64
342240,note_on,,,,,24,0,2,,,0,,,53,34
342336,note_off,,,,,96,0,2,,,0,,,53,64
342360,note_on,,,,,24,0,2,,,0,,,53,34
342420,control_change,,,,,60,0,2,,,0,64,0,,
342456,note_off,,,,,36,0,2,,,0,,,53,64
342480,control_change,,,,,0,0,2,,,0,64,127,,
342480,note_off,,,,,0,0,1,,,0,,,72,64
342480,note_on,,,,,0,0,1,,,0,,,70,38
342480,note_on,,,,,0,0,1,,,0,,,65,38
342480,note_on,,,,,0,0,1,,,0,,,58,38
342480,note_on,,,,,0,0,1,,,0,,,41,38
342480,note_off,,,,,720,0,1,,,0,,,41,64
342480,note_off,,,,,0,0,1,,,0,,,51,64
342480,note_off,,,,,0,0,1,,,0,,,60,64
342480,note_on,,,,,24,0,2,,,0,,,50,36
342480,note_off,,,,,0,0,1,,,0,,,65,64
342600,note_off,,,,,0,0,1,,,0,,,65,64
342600,note_off,,,,,120,0,2,,,0,,,50,64
342600,note_off,,,,,0,0,1,,,0,,,70,64
342600,note_on,,,,,0,0,2,,,0,,,48,37
342600,note_off,,,,,0,0,1,,,0,,,58,64
342600,note_on,,,,,0,0,1,,,0,,,41,42
342600,note_off,,,,,120,0,1,,,0,,,41,64
342600,note_on,,,,,0,0,1,,,0,,,65,42
342600,note_on,,,,,0,0,1,,,0,,,57,42
342600,note_on,,,,,0,0,1,,,0,,,69,42
342660,control_change,,,,,60,0,2,,,0,64,0,,
342720,note_on,,,,,0,0,1,,,0,,,41,47
342720,control_change,,,,,0,0,2,,,0,64,127,,
342720,note_on,,,,,0,0,2,,,0,,,46,38
342720,note_off,,,,,60,0,2,,,0,,,48,64
342720,set_tempo,,,,,760,1,0,560748,,,,,,
342720,note_off,,,,,120,0,1,,,0,,,41,64
342720,note_off,,,,,0,0,1,,,0,,,57,64
342720,note_on,,,,,0,0,1,,,0,,,62,47
342720,note_on,,,,,0,0,1,,,0,,,70,47
342720,note_on,,,,,0,0,1,,,0,,,74,47
342720,note_off,,,,,0,0,1,,,0,,,69,64
342720,note_off,,,,,0,0,1,,,0,,,65,64
342840,note_on,,,,,0,0,2,,,0,,,53,35
342840,note_off,,,,,120,0,2,,,0,,,46,64
342900,control_change,,,,,60,0,2,,,0,64,0,,
342936,note_off,,,,,36,0,2,,,0,,,53,64
342960,note_off,,,,,240,0,1,,,0,,,41,64
342960,note_on,,,,,0,0,2,,,0,,,48,34
342960,control_change,,,,,24,0,2,,,0,64,127,,
342960,note_on,,,,,0,0,1,,,0,,,57,40
342960,note_off,,,,,0,0,1,,,0,,,70,64
342960,note_off,,,,,0,0,1,,,0,,,74,64
342960,note_on,,,,,0,0,1,,,0,,,65,40
342960,note_on,,,,,0,0,1,,,0,,,69,40
342960,note_on,,,,,0,0,1,,,0,,,41,40
342960,note_off,,,,,0,0,1,,,0,,,62,64
343056,note_off,,,,,96,0,2,,,0,,,48,64
343080,note_on,,,,,24,0,2,,,0,,,53,34
343140,set_tempo,,,,,420,1,0,571429,,,,,,
343140,control_change,,,,,60,0,2,,,0,64,0,,
343176,note_off,,,,,36,0,2,,,0,,,53,64
343200,note_on,,,,,0,0,1,,,0,,,41,46
343200,note_on,,,,,0,0,1,,,0,,,65,46
343200,note_on,,,,,0,0,1,,,0,,,70,46
343200,note_off,,,,,0,0,1,,,0,,,65,64
343200,note_off,,,,,0,0,1,,,0,,,69,64
343200,note_off,,,,,0,0,1,,,0,,,57,64
343200,control_change,,,,,0,0,2,,,0,64,127,,
343200,note_off,,,,,240,0,1,,,0,,,41,64
343200,note_on,,,,,0,0,1,,,0,,,58,46
343200,note_on,,,,,24,0,2,,,0,,,50,34
343296,note_off,,,,,96,0,2,,,0,,,50,64
343320,note_on,,,,,24,0,2,,,0,,,53,35
343340,set_tempo,,,,,200,1,0,600000,,,,,,
343380,control_change,,,,,60,0,2,,,0,64,0,,
343416,note_off,,,,,36,0,2,,,0,,,53,64
343440,note_on,,,,,24,0,2,,,0,,,51,38
343440,control_change,,,,,0,0,2,,,0,64,127,,
343440,note_on,,,,,0,0,1,,,0,,,65,51
343440,note_off,,,,,0,0,1,,,0,,,70,64
343440,note_off,,,,,0,0,1,,,0,,,58,64
343440,note_on,,,,,0,0,1,,,0,,,60,51
343440,note_on,,,,,0,0,1,,,0,,,69,51
343440,note_on,,,,,0,0,1,,,0,,,72,51
343440,note_off,,,,,0,0,1,,,0,,,65,64
343440,note_off,,,,,240,0,1,,,0,,,41,64
343440,note_on,,,,,0,0,1,,,0,,,41,51
343480,set_tempo,,,,,140,1,0,588235,,,,,,
343520,set_tempo,,,,,40,1,0,625000,,,,,,
343560,note_off,,,,,120,0,2,,,0,,,51,64
343560,note_on,,,,,0,0,2,,,0,,,53,41
343620,control_change,,,,,60,0,2,,,0,64,0,,
343660,set_tempo,,,,,140,1,0,631579,,,,,,
343680,control_change,,,,,0,0,2,,,0,64,127,,
343680,note_on,,,,,0,0,1,,,0,,,65,56
343680,note_on,,,,,0,0,1,,,0,,,60,56
343680,note_on,,,,,0,0,1,,,0,,,53,56
343680,note_on,,,,,0,0,1,,,0,,,51,56
343680,note_on,,,,,0,0,1,,,0,,,41,56
343680,note_off,,,,,0,0,1,,,0,,,65,64
343680,note_off,,,,,0,0,1,,,0,,,72,64
343680,note_off,,,,,0,0,1,,,0,,,60,64
343680,control_change,,,,,0,0,2,,,0,91,96,,
343680,note_off,,,,,240,0,1,,,0,,,41,64
343680,note_on,,,,,0,0,1,,,0,,,69,56
343680,note_off,,,,,60,0,2,,,0,,,53,64
343680,note_off,,,,,0,0,1,,,0,,,69,64
343680,note_on,,,,,0,0,1,,,0,,,72,56
343920,set_tempo,,,,,260,1,0,967742,,,,,,
344100,set_tempo,,,,,180,1,0,618557,,,,,,
344140,set_tempo,,,,,40,1,0,588235,,,,,,
344160,note_on,,,,,0,0,1,,,0,,,70,34
344160,note_off,,,,,0,0,1,,,0,,,51,64
344160,note_off,,,,,0,0,1,,,0,,,60,64
344160,note_off,,,,,0,0,1,,,0,,,69,64
344160,note_off,,,,,0,0,1,,,0,,,72,64
344160,note_off,,,,,480,0,1,,,0,,,41,64
344160,note_on,,,,,0,0,1,,,0,,,58,34
344160,note_on,,,,,0,0,1,,,0,,,50,34
344160,note_on,,,,,0,0,1,,,0,,,46,34
344200,set_tempo,,,,,60,1,0,582524,,,,,,
344220,set_tempo,,,,,20,1,0,659341,,,,,,
344280,note_off,,,,,0,0,1,,,0,,,50,64
344280,note_off,,,,,0,0,1,,,0,,,58,64
344280,note_off,,,,,0,0,1,,,0,,,70,64
344280,note_off,,,,,0,0,1,,,0,,,53,64
344280,note_off,,,,,0,0,1,,,0,,,65,64
344280,note_off,,,,,120,0,1,,,0,,,46,64
344280,set_tempo,,,,,60,1,0,1463415,,,,,,
344370,control_change,,,,,690,0,2,,,0,64,0,,
344400,control_change,,,,,30,0,2,,,0,64,127,,
344400,note_on,,,,,0,0,2,,,0,,,34,46
344420,set_tempo,,,,,140,1,0,674157,,,,,,
344490,note_off,,,,,90,0,2,,,0,,,34,64
344520,control_change,,,,,30,0,2,,,0,64,0,,
344560,set_tempo,,,,,140,1,0,550459,,,,,,
344640,note_on,,,,,120,0,2,,,0,,,34,60
344678,note_on,,,,,38,0,2,,,0,,,35,58
344680,note_off,,,,,2,0,2,,,0,,,34,64
344718,note_off,,,,,38,0,2,,,0,,,35,64
344718,note_on,,,,,0,0,2,,,0,,,34,58
344758,note_off,,,,,40,0,2,,,0,,,34,64
344758,note_on,,,,,0,0,2,,,0,,,35,54
344780,set_tempo,,,,,220,1,0,560748,,,,,,
344798,note_on,,,,,0,0,2,,,0,,,34,52
344798,note_off,,,,,40,0,2,,,0,,,35,64
344800,set_tempo,,,,,20,1,0,566038,,,,,,
344838,note_off,,,,,40,0,2,,,0,,,34,64
344838,note_on,,,,,0,0,2,,,0,,,35,52
344840,set_tempo,,,,,40,1,0,576923,,,,,,
344878,note_off,,,,,40,0,2,,,0,,,35,64
344878,note_on,,,,,0,0,2,,,0,,,34,56
344918,note_on,,,,,0,0,2,,,0,,,35,51
344918,note_off,,,,,40,0,2,,,0,,,34,64
344958,note_off,,,,,40,0,2,,,0,,,35,64
344958,note_on,,,,,0,0,2,,,0,,,34,51
344980,set_tempo,,,,,140,1,0,606061,,,,,,
344998,note_off,,,,,40,0,2,,,0,,,34,64
344998,note_on,,,,,0,0,2,,,0,,,35,51
345038,note_off,,,,,40,0,2,,,0,,,35,64
345038,note_on,,,,,0,0,2,,,0,,,34,51
345078,note_on,,,,,0,0,2,,,0,,,35,51
345078,note_off,,,,,40,0,2,,,0,,,34,64
345118,note_on,,,,,0,0,2,,,0,,,34,56
345118,note_off,,,,,40,0,2,,,0,,,35,64
345140,set_tempo,,,,,160,1,0,618557,,,,,,
345158,note_off,,,,,40,0,2,,,0,,,34,64
345158,note_on,,,,,0,0,2,,,0,,,35,52
345160,set_tempo,,,,,20,1,0,625000,,,,,,
345198,note_off,,,,,40,0,2,,,0,,,35,64
345198,note_on,,,,,0,0,2,,,0,,,34,53
345238,note_off,,,,,40,0,2,,,0,,,34,64
345238,note_on,,,,,0,0,2,,,0,,,35,54
345278,note_off,,,,,40,0,2,,,0,,,35,64
345278,note_on,,,,,0,0,2,,,0,,,34,55
345280,set_tempo,,,,,120,1,0,631579,,,,,,
345300,set_tempo,,,,,20,1,0,652174,,,,,,
345318,note_on,,,,,0,0,2,,,0,,,35,57
345318,note_off,,,,,40,0,2,,,0,,,34,64
345358,note_on,,,,,0,0,2,,,0,,,34,58
345358,note_off,,,,,40,0,2,,,0,,,35,64
345360,note_on,,,,,1080,0,1,,,0,,,70,58
345380,set_tempo,,,,,80,1,0,689655,,,,,,
345398,note_on,,,,,0,0,2,,,0,,,35,61
345398,note_off,,,,,40,0,2,,,0,,,34,64
345438,note_on,,,,,0,0,2,,,0,,,34,62
345438,note_off,,,,,40,0,2,,,0,,,35,64
345476,note_on,,,,,38,0,2,,,0,,,33,64
345478,note_off,,,,,2,0,2,,,0,,,34,64
345516,note_on,,,,,0,0,2,,,0,,,32,65
345516,note_off,,,,,38,0,2,,,0,,,33,64
345556,note_on,,,,,0,0,2,,,0,,,31,68
345556,note_off,,,,,40,0,2,,,0,,,32,64
345570,note_off,,,,,210,0,1,,,0,,,70,64
345580,set_tempo,,,,,200,1,0,705882,,,,,,
345596,note_off,,,,,40,0,2,,,0,,,31,64
345600,control_change,,,,,0,0,2,,,0,64,127,,
345600,note_on,,,,,30,0,1,,,0,,,70,49
345600,note_on,,,,,4,0,2,,,0,,,30,69
345600,set_tempo,,,,,20,1,0,923077,,,,,,
345630,note_off,,,,,30,0,2,,,0,,,30,64
345660,set_tempo,,,,,60,1,0,705882,,,,,,
345660,note_on,,,,,30,0,2,,,0,,,49,30
345700,set_tempo,,,,,40,1,0,674157,,,,,,
345720,note_off,,,,,60,0,2,,,0,,,49,64
345720,note_on,,,,,0,0,2,,,0,,,54,31
345740,set_tempo,,,,,40,1,0,666667,,,,,,
345760,set_tempo,,,,,20,1,0,659341,,,,,,
345780,note_on,,,,,0,0,2,,,0,,,49,32
345780,note_off,,,,,60,0,2,,,0,,,54,64
345800,set_tempo,,,,,40,1,0,652174,,,,,,
345810,control_change,,,,,30,0,2,,,0,64,0,,
345832,note_off,,,,,22,0,2,,,0,,,49,64
345840,control_change,,,,,0,0,2,,,0,64,127,,
345840,note_off,,,,,240,0,1,,,0,,,70,64
345840,note_on,,,,,0,0,1,,,0,,,68,46
345840,note_on,,,,,8,0,2,,,0,,,42,37
345900,note_on,,,,,0,0,2,,,0,,,49,27
345900,note_off,,,,,60,0,2,,,0,,,42,64
345900,set_tempo,,,,,100,1,0,631579,,,,,,
345960,note_on,,,,,0,0,2,,,0,,,53,28
345960,note_off,,,,,60,0,2,,,0,,,49,64
345980,set_tempo,,,,,80,1,0,618557,,,,,,
346020,note_off,,,,,60,0,2,,,0,,,53,64
346020,note_on,,,,,0,0,2,,,0,,,49,30
346020,set_tempo,,,,,40,1,0,588235,,,,,,
346050,control_change,,,,,30,0,2,,,0,64,0,,
346072,note_off,,,,,22,0,2,,,0,,,49,64
346080,note_off,,,,,240,0,1,,,0,,,68,64
346080,set_tempo,,,,,60,1,0,582524,,,,,,
346080,note_on,,,,,8,0,2,,,0,,,42,41
346080,control_change,,,,,0,0,2,,,0,64,127,,
346080,note_on,,,,,0,0,1,,,0,,,70,48
346100,set_tempo,,,,,20,1,0,576923,,,,,,
346140,note_off,,,,,60,0,2,,,0,,,42,64
346140,note_on,,,,,0,0,2,,,0,,,49,32
346200,note_on,,,,,0,0,2,,,0,,,54,33
346200,note_off,,,,,60,0,2,,,0,,,49,64
346260,note_on,,,,,0,0,2,,,0,,,49,36
346260,note_off,,,,,60,0,2,,,0,,,54,64
346290,control_change,,,,,30,0,2,,,0,64,0,,
346312,note_off,,,,,22,0,2,,,0,,,49,64
346320,note_off,,,,,240,0,1,,,0,,,70,64
346320,note_on,,,,,0,0,1,,,0,,,71,53
346320,control_change,,,,,0,0,2,,,0,64,127,,
346320,note_on,,,,,8,0,2,,,0,,,42,47
346380,note_off,,,,,60,0,2,,,0,,,42,64
346380,note_on,,,,,0,0,2,,,0,,,49,39
346440,note_off,,,,,60,0,2,,,0,,,49,64
346440,note_on,,,,,0,0,2,,,0,,,56,40
346500,note_off,,,,,60,0,2,,,0,,,56,64
346500,note_on,,,,,0,0,2,,,0,,,49,43
346530,control_change,,,,,30,0,2,,,0,64,0,,
346552,note_off,,,,,22,0,2,,,0,,,49,64
346560,note_on,,,,,0,0,2,,,0,,,42,58
346560,note_on,,,,,0,0,1,,,0,,,73,57
346560,note_off,,,,,240,0,1,,,0,,,71,64
346560,control_change,,,,,8,0,2,,,0,64,127,,
346620,note_on,,,,,0,0,2,,,0,,,49,48
346620,note_off,,,,,60,0,2,,,0,,,42,64
346680,note_off,,,,,60,0,2,,,0,,,49,64
346680,note_on,,,,,0,0,2,,,0,,,58,46
346740,note_on,,,,,0,0,2,,,0,,,49,45
346740,note_off,,,,,60,0,2,,,0,,,58,64
346792,note_off,,,,,52,0,2,,,0,,,49,64
346800,note_on,,,,,8,0,2,,,0,,,42,54
346860,note_on,,,,,0,0,2,,,0,,,49,42
346860,note_off,,,,,60,0,2,,,0,,,42,64
346920,note_on,,,,,0,0,2,,,0,,,58,41
346920,note_off,,,,,60,0,2,,,0,,,49,64
346980,note_on,,,,,0,0,2,,,0,,,49,39
346980,note_off,,,,,60,0,2,,,0,,,58,64
347032,note_off,,,,,52,0,2,,,0,,,49,64
347040,note_on,,,,,8,0,2,,,0,,,42,48
347100,note_off,,,,,60,0,2,,,0,,,42,64
347100,note_on,,,,,0,0,2,,,0,,,49,37
347160,note_off,,,,,60,0,2,,,0,,,49,64
347160,note_on,,,,,0,0,2,,,0,,,58,36
347220,note_on,,,,,0,0,2,,,0,,,49,35
347220,note_off,,,,,60,0,2,,,0,,,58,64
347250,control_change,,,,,30,0,2,,,0,64,0,,
347272,note_off,,,,,22,0,2,,,0,,,49,64
347280,note_on,,,,,0,0,1,,,0,,,71,42
347280,note_on,,,,,8,0,2,,,0,,,42,41
347280,control_change,,,,,0,0,2,,,0,64,127,,
347280,note_off,,,,,720,0,1,,,0,,,73,64
347340,note_off,,,,,60,0,2,,,0,,,42,64
347340,note_on,,,,,0,0,2,,,0,,,49,32
347360,set_tempo,,,,,1260,1,0,612245,,,,,,
347400,note_off,,,,,120,0,1,,,0,,,71,64
347400,note_off,,,,,60,0,2,,,0,,,49,64
347400,note_on,,,,,0,0,2,,,0,,,54,36
347400,note_on,,,,,0,0,1,,,0,,,70,49
347460,note_on,,,,,0,0,2,,,0,,,49,39
347460,note_off,,,,,60,0,2,,,0,,,54,64
347490,control_change,,,,,30,0,2,,,0,64,0,,
347512,note_off,,,,,22,0,2,,,0,,,49,64
347520,note_on,,,,,0,0,2,,,0,,,42,53
347520,note_on,,,,,0,0,1,,,0,,,75,54
347520,control_change,,,,,8,0,2,,,0,64,127,,
347520,note_off,,,,,120,0,1,,,0,,,70,64
347580,note_on,,,,,0,0,2,,,0,,,51,44
347580,note_off,,,,,60,0,2,,,0,,,42,64
347640,note_on,,,,,0,0,2,,,0,,,59,42
347640,note_off,,,,,60,0,2,,,0,,,51,64
347700,note_on,,,,,0,0,2,,,0,,,51,40
347700,note_off,,,,,60,0,2,,,0,,,59,64
347730,note_off,,,,,210,0,1,,,0,,,75,64
347730,control_change,,,,,30,0,2,,,0,64,0,,
347752,note_off,,,,,22,0,2,,,0,,,51,64
347760,note_on,,,,,30,0,1,,,0,,,75,47
347760,control_change,,,,,8,0,2,,,0,64,127,,
347760,note_on,,,,,0,0,2,,,0,,,42,48
347820,note_off,,,,,60,0,2,,,0,,,42,64
347820,note_on,,,,,0,0,2,,,0,,,51,37
347840,set_tempo,,,,,480,1,0,588235,,,,,,
347880,note_on,,,,,0,0,2,,,0,,,59,34
347880,note_off,,,,,60,0,2,,,0,,,51,64
347940,note_off,,,,,60,0,2,,,0,,,59,64
347940,note_on,,,,,0,0,2,,,0,,,51,34
347970,note_off,,,,,210,0,1,,,0,,,75,64
347970,control_change,,,,,30,0,2,,,0,64,0,,
347992,note_off,,,,,22,0,2,,,0,,,51,64
348000,control_change,,,,,8,0,2,,,0,64,127,,
348000,note_on,,,,,30,0,1,,,0,,,75,44
348000,note_on,,,,,0,0,2,,,0,,,42,44
348060,note_on,,,,,0,0,2,,,0,,,51,34
348060,note_off,,,,,60,0,2,,,0,,,42,64
348100,set_tempo,,,,,260,1,0,576923,,,,,,
348120,note_off,,,,,60,0,2,,,0,,,51,64
348120,note_on,,,,,0,0,2,,,0,,,59,34
348180,note_off,,,,,60,0,2,,,0,,,59,64
348180,note_on,,,,,0,0,2,,,0,,,51,35
348210,control_change,,,,,30,0,2,,,0,64,0,,
348210,note_off,,,,,210,0,1,,,0,,,75,64
348232,note_off,,,,,22,0,2,,,0,,,51,64
348240,note_on,,,,,30,0,1,,,0,,,77,50
348240,control_change,,,,,0,0,2,,,0,64,127,,
348240,note_on,,,,,8,0,2,,,0,,,42,47
348260,set_tempo,,,,,160,1,0,550459,,,,,,
348300,note_on,,,,,0,0,2,,,0,,,51,40
348300,note_off,,,,,60,0,2,,,0,,,42,64
348360,note_on,,,,,0,0,2,,,0,,,59,43
348360,note_off,,,,,60,0,2,,,0,,,51,64
348360,note_off,,,,,120,0,1,,,0,,,77,64
348360,note_on,,,,,0,0,1,,,0,,,78,55
348420,note_off,,,,,60,0,2,,,0,,,59,64
348420,note_on,,,,,0,0,2,,,0,,,51,45
348450,control_change,,,,,30,0,2,,,0,64,0,,
348472,note_off,,,,,22,0,2,,,0,,,51,64
348480,note_on,,,,,0,0,1,,,0,,,73,56
348480,note_off,,,,,120,0,1,,,0,,,78,64
348480,control_change,,,,,8,0,2,,,0,64,127,,
348480,note_on,,,,,0,0,2,,,0,,,42,58
348540,note_on,,,,,0,0,2,,,0,,,49,46
348540,note_off,,,,,60,0,2,,,0,,,42,64
348600,note_on,,,,,0,0,2,,,0,,,58,43
348600,note_off,,,,,60,0,2,,,0,,,49,64
348620,set_tempo,,,,,360,1,0,571429,,,,,,
348660,note_off,,,,,60,0,2,,,0,,,58,64
348660,note_on,,,,,0,0,2,,,0,,,49,42
348712,note_off,,,,,52,0,2,,,0,,,49,64
348720,note_on,,,,,8,0,2,,,0,,,42,51
348740,set_tempo,,,,,120,1,0,600000,,,,,,
348780,note_off,,,,,60,0,2,,,0,,,42,64
348780,note_on,,,,,0,0,2,,,0,,,49,44
348840,note_off,,,,,60,0,2,,,0,,,49,64
348840,note_on,,,,,0,0,2,,,0,,,58,39
348880,set_tempo,,,,,140,1,0,618557,,,,,,
348900,note_on,,,,,0,0,2,,,0,,,49,34
348900,note_off,,,,,60,0,2,,,0,,,58,64
348952,note_off,,,,,52,0,2,,,0,,,49,64
348960,note_on,,,,,8,0,2,,,0,,,42,39
349020,note_off,,,,,60,0,2,,,0,,,42,64
349020,note_on,,,,,0,0,2,,,0,,,49,39
349080,note_off,,,,,60,0,2,,,0,,,49,64
349080,note_on,,,,,0,0,2,,,0,,,58,36
349080,set_tempo,,,,,200,1,0,689655,,,,,,
349140,note_on,,,,,0,0,2,,,0,,,49,32
349140,note_off,,,,,60,0,2,,,0,,,58,64
349160,set_tempo,,,,,80,1,0,750000,,,,,,
349170,control_change,,,,,30,0,2,,,0,64,0,,
349192,note_off,,,,,22,0,2,,,0,,,49,64
349200,note_off,,,,,720,0,1,,,0,,,73,64
349200,note_on,,,,,0,0,2,,,0,,,42,51
349200,control_change,,,,,8,0,2,,,0,64,127,,
349202,note_on,,,,,2,0,1,,,0,,,69,50
349220,set_tempo,,,,,60,1,0,674157,,,,,,
349260,note_on,,,,,0,0,2,,,0,,,49,44
349260,note_off,,,,,60,0,2,,,0,,,42,64
349300,set_tempo,,,,,80,1,0,631579,,,,,,
349320,note_on,,,,,0,0,2,,,0,,,54,39
349320,note_off,,,,,60,0,2,,,0,,,49,64
349340,set_tempo,,,,,40,1,0,600000,,,,,,
349380,note_off,,,,,60,0,2,,,0,,,54,64
349380,note_on,,,,,0,0,2,,,0,,,49,34
349410,control_change,,,,,30,0,2,,,0,64,0,,
349412,note_off,,,,,210,0,1,,,0,,,69,64
349420,set_tempo,,,,,80,1,0,714286,,,,,,
349432,note_off,,,,,22,0,2,,,0,,,49,64
349440,control_change,,,,,8,0,2,,,0,64,127,,
349440,note_on,,,,,0,0,2,,,0,,,42,39
349442,note_on,,,,,30,0,1,,,0,,,69,49
349500,set_tempo,,,,,80,1,0,659341,,,,,,
349500,note_off,,,,,60,0,2,,,0,,,42,64
349502,note_on,,,,,2,0,2,,,0,,,49,30
349562,note_off,,,,,60,0,2,,,0,,,49,64
349562,note_on,,,,,0,0,2,,,0,,,54,31
349600,set_tempo,,,,,100,1,0,645161,,,,,,
349622,note_on,,,,,0,0,2,,,0,,,49,32
349622,note_off,,,,,60,0,2,,,0,,,54,64
349650,control_change,,,,,28,0,2,,,0,64,0,,
349674,note_off,,,,,24,0,2,,,0,,,49,64
349682,note_on,,,,,8,0,2,,,0,,,42,37
349682,note_on,,,,,0,0,1,,,0,,,68,46
349682,control_change,,,,,0,0,2,,,0,64,127,,
349682,note_off,,,,,240,0,1,,,0,,,69,64
349700,set_tempo,,,,,100,1,0,618557,,,,,,
349742,note_on,,,,,0,0,2,,,0,,,49,27
349742,note_off,,,,,60,0,2,,,0,,,42,64
349800,set_tempo,,,,,100,1,0,606061,,,,,,
349802,note_off,,,,,60,0,2,,,0,,,49,64
349802,note_on,,,,,0,0,2,,,0,,,53,28
349862,note_off,,,,,60,0,2,,,0,,,53,64
349862,note_on,,,,,0,0,2,,,0,,,49,30
349890,control_change,,,,,28,0,2,,,0,64,0,,
349914,note_off,,,,,24,0,2,,,0,,,49,64
349922,note_off,,,,,240,0,1,,,0,,,68,64
349922,note_on,,,,,8,0,2,,,0,,,42,41
349922,note_on,,,,,0,0,1,,,0,,,69,48
349922,control_change,,,,,0,0,2,,,0,64,127,,
349982,note_off,,,,,60,0,2,,,0,,,42,64
349982,note_on,,,,,0,0,2,,,0,,,49,32
350042,note_off,,,,,60,0,2,,,0,,,49,64
350042,note_on,,,,,0,0,2,,,0,,,54,33
350102,note_off,,,,,60,0,2,,,0,,,54,64
350102,note_on,,,,,0,0,2,,,0,,,49,36
350132,control_change,,,,,30,0,2,,,0,64,0,,
350154,note_off,,,,,22,0,2,,,0,,,49,64
350162,note_off,,,,,240,0,1,,,0,,,69,64
350162,note_on,,,,,0,0,1,,,0,,,71,53
350162,note_on,,,,,0,0,2,,,0,,,42,47
350162,control_change,,,,,8,0,2,,,0,64,127,,
350222,note_on,,,,,0,0,2,,,0,,,49,39
350222,note_off,,,,,60,0,2,,,0,,,42,64
350282,note_on,,,,,0,0,2,,,0,,,56,40
350282,note_off,,,,,60,0,2,,,0,,,49,64
350342,note_off,,,,,60,0,2,,,0,,,56,64
350342,note_on,,,,,0,0,2,,,0,,,49,43
350372,control_change,,,,,30,0,2,,,0,64,0,,
350382,set_tempo,,,,,582,1,0,588235,,,,,,
350394,note_off,,,,,22,0,2,,,0,,,49,64
350402,control_change,,,,,0,0,2,,,0,64,127,,
350402,note_off,,,,,240,0,1,,,0,,,71,64
350402,note_on,,,,,8,0,2,,,0,,,42,58
350402,note_on,,,,,0,0,1,,,0,,,73,57
350440,set_tempo,,,,,58,1,0,576923,,,,,,
350462,note_off,,,,,60,0,2,,,0,,,42,64
350462,note_on,,,,,0,0,2,,,0,,,49,48
350500,set_tempo,,,,,60,1,0,571429,,,,,,
350522,note_off,,,,,60,0,2,,,0,,,49,64
350522,note_on,,,,,0,0,2,,,0,,,57,46
350582,note_off,,,,,60,0,2,,,0,,,57,64
350582,note_on,,,,,0,0,2,,,0,,,49,45
350610,control_change,,,,,28,0,2,,,0,64,0,,
350620,set_tempo,,,,,120,1,0,566038,,,,,,
350634,note_off,,,,,24,0,2,,,0,,,49,64
350640,control_change,,,,,6,0,2,,,0,64,127,,
350642,note_on,,,,,2,0,2,,,0,,,44,54
350702,note_on,,,,,0,0,2,,,0,,,49,42
350702,note_off,,,,,60,0,2,,,0,,,44,64
350762,note_on,,,,,0,0,2,,,0,,,57,41
350762,note_off,,,,,60,0,2,,,0,,,49,64
350822,note_off,,,,,60,0,2,,,0,,,57,64
350822,note_on,,,,,0,0,2,,,0,,,49,39
350850,control_change,,,,,28,0,2,,,0,64,0,,
350874,note_off,,,,,24,0,2,,,0,,,49,64
350880,control_change,,,,,6,0,2,,,0,64,127,,
350882,note_on,,,,,2,0,2,,,0,,,45,48
350942,note_off,,,,,60,0,2,,,0,,,45,64
350942,note_on,,,,,0,0,2,,,0,,,49,37
351002,note_off,,,,,60,0,2,,,0,,,49,64
351002,note_on,,,,,0,0,2,,,0,,,57,36
351062,note_off,,,,,60,0,2,,,0,,,57,64
351062,note_on,,,,,0,0,2,,,0,,,49,35
351090,control_change,,,,,28,0,2,,,0,64,0,,
351114,note_off,,,,,24,0,2,,,0,,,49,64
351120,set_tempo,,,,,500,1,0,600000,,,,,,
351122,note_on,,,,,0,0,1,,,0,,,74,63
351122,note_off,,,,,720,0,1,,,0,,,73,64
351122,control_change,,,,,0,0,2,,,0,64,127,,
351122,note_on,,,,,8,0,2,,,0,,,45,41
351182,note_on,,,,,0,0,2,,,0,,,49,46
351182,note_off,,,,,60,0,2,,,0,,,45,64
351220,set_tempo,,,,,100,1,0,618557,,,,,,
351242,note_on,,,,,0,0,1,,,0,,,76,70
351242,note_off,,,,,60,0,2,,,0,,,49,64
351242,note_on,,,,,0,0,2,,,0,,,57,51
351242,note_off,,,,,120,0,1,,,0,,,74,64
351302,note_on,,,,,0,0,2,,,0,,,49,58
351302,note_off,,,,,60,0,2,,,0,,,57,64
351354,note_off,,,,,52,0,2,,,0,,,49,64
351360,control_change,,,,,6,0,2,,,0,64,0,,
351362,note_off,,,,,120,0,1,,,0,,,76,64
351362,note_on,,,,,0,0,1,,,0,,,78,86
351362,control_change,,,,,0,0,2,,,0,64,127,,
351362,note_on,,,,,2,0,2,,,0,,,45,65
351422,note_on,,,,,0,0,2,,,0,,,54,67
351422,note_off,,,,,60,0,2,,,0,,,45,64
351482,note_off,,,,,60,0,2,,,0,,,54,64
351482,note_on,,,,,0,0,2,,,0,,,62,65
351542,note_off,,,,,60,0,2,,,0,,,62,64
351542,note_on,,,,,0,0,2,,,0,,,54,63
351572,control_change,,,,,30,0,2,,,0,64,0,,
351572,note_off,,,,,210,0,1,,,0,,,78,64
351594,note_off,,,,,22,0,2,,,0,,,54,64
351602,note_on,,,,,30,0,1,,,0,,,78,78
351602,control_change,,,,,8,0,2,,,0,64,127,,
351602,note_on,,,,,0,0,2,,,0,,,45,68
351662,note_on,,,,,0,0,2,,,0,,,54,61
351662,note_off,,,,,60,0,2,,,0,,,45,64
351680,set_tempo,,,,,460,1,0,606061,,,,,,
351700,set_tempo,,,,,20,1,0,600000,,,,,,
351722,note_off,,,,,60,0,2,,,0,,,54,64
351722,note_on,,,,,0,0,2,,,0,,,62,55
351782,note_on,,,,,0,0,2,,,0,,,54,51
351782,note_off,,,,,60,0,2,,,0,,,62,64
351812,control_change,,,,,30,0,2,,,0,64,0,,
351812,note_off,,,,,210,0,1,,,0,,,78,64
351834,note_off,,,,,22,0,2,,,0,,,54,64
351842,note_on,,,,,30,0,1,,,0,,,78,71
351842,control_change,,,,,0,0,2,,,0,64,127,,
351842,note_on,,,,,8,0,2,,,0,,,45,59
351902,note_on,,,,,0,0,2,,,0,,,54,58
351902,note_off,,,,,60,0,2,,,0,,,45,64
351920,set_tempo,,,,,220,1,0,576923,,,,,,
351962,note_off,,,,,60,0,2,,,0,,,54,64
351962,note_on,,,,,0,0,2,,,0,,,62,53
352000,set_tempo,,,,,80,1,0,571429,,,,,,
352020,set_tempo,,,,,20,1,0,576923,,,,,,
352022,note_off,,,,,60,0,2,,,0,,,62,64
352022,note_on,,,,,0,0,2,,,0,,,54,49
352052,control_change,,,,,30,0,2,,,0,64,0,,
352052,note_off,,,,,210,0,1,,,0,,,78,64
352074,note_off,,,,,22,0,2,,,0,,,54,64
352082,note_on,,,,,30,0,1,,,0,,,80,60
352082,control_change,,,,,8,0,2,,,0,64,127,,
352082,note_on,,,,,0,0,2,,,0,,,45,52
352142,note_on,,,,,0,0,2,,,0,,,54,51
352142,note_off,,,,,60,0,2,,,0,,,45,64
352202,note_on,,,,,0,0,2,,,0,,,62,47
352202,note_off,,,,,60,0,2,,,0,,,54,64
352202,note_on,,,,,0,0,1,,,0,,,81,60
352202,note_off,,,,,120,0,1,,,0,,,80,64
352262,note_off,,,,,60,0,2,,,0,,,62,64
352262,note_on,,,,,0,0,2,,,0,,,54,43
352292,control_change,,,,,30,0,2,,,0,64,0,,
352300,set_tempo,,,,,280,1,0,560748,,,,,,
352314,note_off,,,,,22,0,2,,,0,,,54,64
352322,note_off,,,,,120,0,1,,,0,,,81,64
352322,note_on,,,,,0,0,1,,,0,,,76,53
352322,control_change,,,,,8,0,2,,,0,64,127,,
352322,note_on,,,,,0,0,2,,,0,,,45,58
352340,set_tempo,,,,,40,1,0,550459,,,,,,
352382,note_on,,,,,0,0,2,,,0,,,52,46
352382,note_off,,,,,60,0,2,,,0,,,45,64
352442,note_on,,,,,0,0,2,,,0,,,61,43
352442,note_off,,,,,60,0,2,,,0,,,52,64
352502,note_on,,,,,0,0,2,,,0,,,52,42
352502,note_off,,,,,60,0,2,,,0,,,61,64
352554,note_off,,,,,52,0,2,,,0,,,52,64
352562,note_on,,,,,8,0,2,,,0,,,45,51
352622,note_on,,,,,0,0,2,,,0,,,52,44
352622,note_off,,,,,60,0,2,,,0,,,45,64
352682,note_on,,,,,0,0,2,,,0,,,61,39
352682,note_off,,,,,60,0,2,,,0,,,52,64
352742,note_on,,,,,0,0,2,,,0,,,52,34
352742,note_off,,,,,60,0,2,,,0,,,61,64
352794,note_off,,,,,52,0,2,,,0,,,52,64
352802,note_on,,,,,8,0,2,,,0,,,45,39
352860,set_tempo,,,,,520,1,0,576923,,,,,,
352862,note_off,,,,,60,0,2,,,0,,,45,64
352862,note_on,,,,,0,0,2,,,0,,,52,39
352922,note_off,,,,,60,0,2,,,0,,,52,64
352922,note_on,,,,,0,0,2,,,0,,,61,36
352982,note_off,,,,,60,0,2,,,0,,,61,64
352982,note_on,,,,,0,0,2,,,0,,,52,32
353012,control_change,,,,,30,0,2,,,0,64,0,,
353034,note_off,,,,,22,0,2,,,0,,,52,64
353042,control_change,,,,,8,0,2,,,0,64,127,,
353042,note_on,,,,,0,0,2,,,0,,,45,32
353042,note_off,,,,,720,0,1,,,0,,,76,64
353042,note_on,,,,,0,0,1,,,0,,,74,44
353044,control_change,,,,,2,0,2,,,0,64,127,,
353080,set_tempo,,,,,220,1,0,606061,,,,,,
353102,note_off,,,,,58,0,2,,,0,,,45,64
353104,note_on,,,,,2,0,2,,,0,,,52,33
353162,note_off,,,,,120,0,1,,,0,,,74,64
353164,note_on,,,,,2,0,1,,,0,,,73,45
353164,note_off,,,,,60,0,2,,,0,,,52,64
353164,note_on,,,,,0,0,2,,,0,,,57,35
353224,note_off,,,,,60,0,2,,,0,,,57,64
353224,note_on,,,,,0,0,2,,,0,,,52,35
353254,control_change,,,,,30,0,2,,,0,64,0,,
353276,note_off,,,,,22,0,2,,,0,,,52,64
353284,note_on,,,,,0,0,1,,,0,,,74,49
353284,note_on,,,,,0,0,2,,,0,,,45,54
353284,note_off,,,,,120,0,1,,,0,,,73,64
353284,control_change,,,,,8,0,2,,,0,64,127,,
353344,note_off,,,,,60,0,2,,,0,,,45,64
353344,note_on,,,,,0,0,2,,,0,,,54,46
353404,note_on,,,,,0,0,2,,,0,,,62,42
353404,note_off,,,,,60,0,2,,,0,,,54,64
353464,note_on,,,,,0,0,2,,,0,,,54,41
353464,note_off,,,,,60,0,2,,,0,,,62,64
353494,control_change,,,,,30,0,2,,,0,64,0,,
353500,set_tempo,,,,,420,1,0,588235,,,,,,
353516,note_off,,,,,22,0,2,,,0,,,54,64
353524,note_off,,,,,240,0,1,,,0,,,74,64
353524,note_on,,,,,8,0,2,,,0,,,45,50
353524,control_change,,,,,0,0,2,,,0,64,127,,
353524,note_on,,,,,0,0,1,,,0,,,78,47
353584,note_off,,,,,60,0,2,,,0,,,45,64
353584,note_on,,,,,0,0,2,,,0,,,54,38
353640,set_tempo,,,,,140,1,0,560748,,,,,,
353644,note_on,,,,,0,0,2,,,0,,,62,38
353644,note_off,,,,,60,0,2,,,0,,,54,64
353680,set_tempo,,,,,40,1,0,550459,,,,,,
353704,note_on,,,,,0,0,2,,,0,,,54,36
353704,note_off,,,,,60,0,2,,,0,,,62,64
353720,set_tempo,,,,,40,1,0,545455,,,,,,
353734,control_change,,,,,30,0,2,,,0,64,0,,
353756,note_off,,,,,22,0,2,,,0,,,54,64
353764,control_change,,,,,0,0,2,,,0,64,127,,
353764,note_on,,,,,8,0,2,,,0,,,45,46
353764,note_on,,,,,0,0,1,,,0,,,71,54
353764,note_off,,,,,240,0,1,,,0,,,78,64
353820,set_tempo,,,,,100,1,0,530973,,,,,,
353824,note_on,,,,,0,0,2,,,0,,,52,36
353824,note_off,,,,,60,0,2,,,0,,,45,64
353884,note_on,,,,,0,0,2,,,0,,,56,36
353884,note_off,,,,,60,0,2,,,0,,,52,64
353940,set_tempo,,,,,120,1,0,540541,,,,,,
353944,note_off,,,,,60,0,2,,,0,,,56,64
353944,note_on,,,,,0,0,2,,,0,,,52,36
353960,set_tempo,,,,,20,1,0,571429,,,,,,
353974,control_change,,,,,30,0,2,,,0,64,0,,
353996,note_off,,,,,22,0,2,,,0,,,52,64
354000,set_tempo,,,,,40,1,0,550459,,,,,,
354004,control_change,,,,,8,0,2,,,0,64,127,,
354004,note_on,,,,,0,0,2,,,0,,,45,46
354004,note_off,,,,,240,0,1,,,0,,,71,64
354004,note_on,,,,,0,0,1,,,0,,,74,61
354064,note_off,,,,,60,0,2,,,0,,,45,64
354064,note_on,,,,,0,0,2,,,0,,,52,36
354124,note_off,,,,,60,0,2,,,0,,,52,64
354124,note_on,,,,,0,0,2,,,0,,,59,38
354184,note_off,,,,,60,0,2,,,0,,,59,64
354184,note_on,,,,,0,0,2,,,0,,,52,41
354214,control_change,,,,,30,0,2,,,0,64,0,,
354236,note_off,,,,,22,0,2,,,0,,,52,64
354240,set_tempo,,,,,240,1,0,618557,,,,,,
354244,control_change,,,,,0,0,2,,,0,64,127,,
354244,note_on,,,,,8,0,2,,,0,,,45,55
354244,note_on,,,,,0,0,1,,,0,,,73,67
354244,note_off,,,,,240,0,1,,,0,,,74,64
354304,note_off,,,,,60,0,2,,,0,,,45,64
354304,note_on,,,,,0,0,2,,,0,,,52,41
354364,note_off,,,,,60,0,2,,,0,,,52,64
354364,note_on,,,,,0,0,2,,,0,,,61,42
354380,set_tempo,,,,,140,1,0,550459,,,,,,
354424,note_off,,,,,60,0,2,,,0,,,61,64
354424,note_on,,,,,0,0,2,,,0,,,52,47
354424,note_off,,,,,180,0,1,,,0,,,73,64
354454,control_change,,,,,30,0,2,,,0,64,0,,
354476,note_off,,,,,22,0,2,,,0,,,52,64
354484,note_on,,,,,0,0,1,,,0,,,69,72
354484,note_on,,,,,0,0,2,,,0,,,45,67
354484,control_change,,,,,8,0,2,,,0,64,127,,
354484,note_on,,,,,60,0,1,,,0,,,81,72
354544,note_on,,,,,0,0,2,,,0,,,52,54
354544,note_off,,,,,60,0,2,,,0,,,45,64
354604,note_off,,,,,60,0,2,,,0,,,52,64
354604,note_on,,,,,0,0,2,,,0,,,61,52
354664,note_off,,,,,60,0,2,,,0,,,61,64
354664,note_on,,,,,0,0,2,,,0,,,52,47
354716,note_off,,,,,52,0,2,,,0,,,52,64
354724,note_on,,,,,8,0,2,,,0,,,45,54
354784,note_off,,,,,60,0,2,,,0,,,45,64
354784,note_on,,,,,0,0,2,,,0,,,52,41
354844,note_on,,,,,0,0,1,,,0,,,68,58
354844,note_off,,,,,0,0,1,,,0,,,81,64
354844,note_on,,,,,0,0,1,,,0,,,80,58
354844,note_on,,,,,0,0,2,,,0,,,61,38
354844,note_off,,,,,60,0,2,,,0,,,52,64
354844,note_off,,,,,360,0,1,,,0,,,69,64
354900,set_tempo,,,,,520,1,0,576923,,,,,,
354904,note_off,,,,,60,0,2,,,0,,,61,64
354904,note_on,,,,,0,0,2,,,0,,,52,36
354956,note_off,,,,,52,0,2,,,0,,,52,64
354964,note_off,,,,,120,0,1,,,0,,,68,64
354964,note_off,,,,,0,0,1,,,0,,,80,64
354964,note_on,,,,,0,0,1,,,0,,,78,52
354964,note_on,,,,,0,0,1,,,0,,,66,52
354964,note_on,,,,,8,0,2,,,0,,,45,44
354964,control_change,,,,,0,0,2,,,0,64,0,,
355024,note_off,,,,,60,0,2,,,0,,,45,64
355024,note_on,,,,,0,0,2,,,0,,,52,32
355084,note_on,,,,,0,0,2,,,0,,,61,30
355084,note_off,,,,,60,0,2,,,0,,,52,64
355084,note_on,,,,,0,0,1,,,0,,,64,45
355084,note_on,,,,,0,0,1,,,0,,,76,45
355084,note_off,,,,,0,0,1,,,0,,,78,64
355084,note_off,,,,,120,0,1,,,0,,,66,64
355144,note_on,,,,,0,0,2,,,0,,,52,27
355144,note_off,,,,,60,0,2,,,0,,,61,64
355196,note_off,,,,,52,0,2,,,0,,,52,64
355204,note_on,,,,,0,0,2,,,0,,,45,42
355204,control_change,,,,,8,0,2,,,0,64,127,,
355204,note_on,,,,,0,0,1,,,0,,,62,41
355204,note_off,,,,,120,0,1,,,0,,,64,64
355204,note_off,,,,,0,0,1,,,0,,,76,64
355204,note_on,,,,,0,0,1,,,0,,,74,41
355264,note_off,,,,,60,0,2,,,0,,,45,64
355264,note_on,,,,,0,0,2,,,0,,,54,35
355324,note_on,,,,,0,0,2,,,0,,,57,37
355324,note_off,,,,,60,0,2,,,0,,,54,64
355384,note_on,,,,,0,0,2,,,0,,,54,40
355384,note_off,,,,,60,0,2,,,0,,,57,64
355414,control_change,,,,,30,0,2,,,0,64,0,,
355436,note_off,,,,,22,0,2,,,0,,,54,64
355444,note_off,,,,,240,0,1,,,0,,,62,64
355444,note_on,,,,,8,0,2,,,0,,,45,42
355444,note_off,,,,,0,0,1,,,0,,,74,64
355444,control_change,,,,,0,0,2,,,0,64,127,,
355444,note_on,,,,,0,0,1,,,0,,,78,45
355504,note_off,,,,,60,0,2,,,0,,,45,64
355504,note_on,,,,,0,0,2,,,0,,,54,46
355564,note_off,,,,,60,0,2,,,0,,,54,64
355564,note_on,,,,,0,0,2,,,0,,,62,43
355624,note_off,,,,,60,0,2,,,0,,,62,64
355624,note_on,,,,,0,0,2,,,0,,,54,39
355654,control_change,,,,,30,0,2,,,0,64,0,,
355676,note_off,,,,,22,0,2,,,0,,,54,64
355684,control_change,,,,,0,0,2,,,0,64,127,,
355684,note_on,,,,,8,0,2,,,0,,,45,36
355684,note_off,,,,,240,0,1,,,0,,,78,64
355684,note_on,,,,,0,0,1,,,0,,,71,49
355744,note_off,,,,,60,0,2,,,0,,,45,64
355744,note_on,,,,,0,0,2,,,0,,,52,33
355804,note_off,,,,,60,0,2,,,0,,,52,64
355804,note_on,,,,,0,0,2,,,0,,,56,31
355864,note_off,,,,,60,0,2,,,0,,,56,64
355864,note_on,,,,,0,0,2,,,0,,,52,31
355894,control_change,,,,,30,0,2,,,0,64,0,,
355916,note_off,,,,,22,0,2,,,0,,,52,64
355924,note_on,,,,,0,0,1,,,0,,,73,40
355924,note_on,,,,,0,0,2,,,0,,,45,33
355924,note_off,,,,,240,0,1,,,0,,,71,64
355924,control_change,,,,,8,0,2,,,0,64,127,,
355984,note_off,,,,,60,0,2,,,0,,,45,64
355984,note_on,,,,,0,0,2,,,0,,,52,32
356020,set_tempo,,,,,1120,1,0,545455,,,,,,
356044,note_on,,,,,0,0,1,,,0,,,74,38
356044,note_off,,,,,120,0,1,,,0,,,73,64
356044,note_on,,,,,0,0,2,,,0,,,59,29
356044,note_off,,,,,60,0,2,,,0,,,52,64
356104,note_on,,,,,0,0,2,,,0,,,52,28
356104,note_off,,,,,60,0,2,,,0,,,59,64
356134,control_change,,,,,30,0,2,,,0,64,0,,
356140,set_tempo,,,,,120,1,0,530973,,,,,,
356156,note_off,,,,,22,0,2,,,0,,,52,64
356164,control_change,,,,,8,0,2,,,0,64,127,,
356164,note_on,,,,,0,0,1,,,0,,,73,44
356164,note_off,,,,,120,0,1,,,0,,,74,64
356164,note_on,,,,,0,0,2,,,0,,,45,37
356210,note_off,,,,,46,0,2,,,0,,,45,64
356224,note_on,,,,,14,0,2,,,0,,,61,24
356254,note_off,,,,,90,0,1,,,0,,,73,64
356260,set_tempo,,,,,120,1,0,526316,,,,,,
356280,set_tempo,,,,,20,1,0,508475,,,,,,
356284,note_on,,,,,30,0,1,,,0,,,76,40
356284,note_off,,,,,60,0,2,,,0,,,61,64
356284,note_on,,,,,0,0,2,,,0,,,57,26
356300,set_tempo,,,,,20,1,0,504202,,,,,,
356344,note_on,,,,,0,0,2,,,0,,,61,30
356344,note_off,,,,,60,0,2,,,0,,,57,64
356404,note_off,,,,,120,0,1,,,0,,,76,64
356404,note_on,,,,,0,0,2,,,0,,,57,35
356404,note_on,,,,,0,0,1,,,0,,,85,44
356404,note_off,,,,,60,0,2,,,0,,,61,64
356464,note_on,,,,,0,0,2,,,0,,,61,38
356464,note_off,,,,,60,0,2,,,0,,,57,64
356524,note_on,,,,,0,0,2,,,0,,,57,41
356524,note_off,,,,,60,0,2,,,0,,,61,64
356524,note_off,,,,,120,0,1,,,0,,,85,64
356524,note_on,,,,,0,0,1,,,0,,,81,47
356584,note_on,,,,,0,0,2,,,0,,,61,43
356584,note_off,,,,,60,0,2,,,0,,,57,64
356614,control_change,,,,,30,0,2,,,0,64,0,,
356644,note_off,,,,,30,0,2,,,0,,,61,64
356644,note_on,,,,,0,0,2,,,0,,,45,46
356644,control_change,,,,,0,0,2,,,0,64,127,,
356644,note_off,,,,,120,0,1,,,0,,,81,64
356644,note_on,,,,,0,0,1,,,0,,,76,50
356690,note_off,,,,,46,0,2,,,0,,,45,64
356704,note_on,,,,,14,0,2,,,0,,,61,41
356764,note_off,,,,,120,0,1,,,0,,,76,64
356764,note_on,,,,,0,0,1,,,0,,,73,45
356764,note_on,,,,,0,0,2,,,0,,,57,37
356764,note_off,,,,,60,0,2,,,0,,,61,64
356824,note_on,,,,,0,0,2,,,0,,,61,37
356824,note_off,,,,,60,0,2,,,0,,,57,64
356860,set_tempo,,,,,560,1,0,530973,,,,,,
356884,note_off,,,,,120,0,1,,,0,,,73,64
356884,note_on,,,,,0,0,2,,,0,,,57,37
356884,note_off,,,,,60,0,2,,,0,,,61,64
356884,note_on,,,,,0,0,1,,,0,,,81,44
356944,note_off,,,,,60,0,2,,,0,,,57,64
356944,note_on,,,,,0,0,2,,,0,,,61,37
357004,note_off,,,,,120,0,1,,,0,,,81,64
357004,note_on,,,,,0,0,1,,,0,,,77,44
357004,note_off,,,,,60,0,2,,,0,,,61,64
357004,note_on,,,,,0,0,2,,,0,,,57,38
357064,note_off,,,,,60,0,2,,,0,,,57,64
357064,note_on,,,,,0,0,2,,,0,,,61,43
357094,control_change,,,,,30,0,2,,,0,64,0,,
357100,set_tempo,,,,,240,1,0,582524,,,,,,
357124,note_off,,,,,30,0,2,,,0,,,61,64
357124,control_change,,,,,0,0,2,,,0,64,127,,
357124,note_on,,,,,0,0,2,,,0,,,45,49
357124,note_on,,,,,0,0,1,,,0,,,78,54
357124,note_off,,,,,120,0,1,,,0,,,77,64
357160,set_tempo,,,,,60,1,0,566038,,,,,,
357170,note_off,,,,,46,0,2,,,0,,,45,64
357184,note_on,,,,,14,0,2,,,0,,,62,46
357244,note_on,,,,,0,0,1,,,0,,,74,42
357244,note_on,,,,,0,0,2,,,0,,,57,37
357244,note_off,,,,,120,0,1,,,0,,,78,64
357244,note_off,,,,,60,0,2,,,0,,,62,64
357280,set_tempo,,,,,120,1,0,545455,,,,,,
357304,note_off,,,,,60,0,2,,,0,,,57,64
357304,note_on,,,,,0,0,2,,,0,,,62,34
357364,note_on,,,,,0,0,2,,,0,,,57,33
357364,note_off,,,,,60,0,2,,,0,,,62,64
357364,note_on,,,,,0,0,1,,,0,,,86,47
357364,note_off,,,,,120,0,1,,,0,,,74,64
357424,note_off,,,,,60,0,2,,,0,,,57,64
357424,note_on,,,,,0,0,2,,,0,,,62,33
357484,note_off,,,,,60,0,2,,,0,,,62,64
357484,note_on,,,,,0,0,2,,,0,,,57,36
357484,note_on,,,,,0,0,1,,,0,,,83,52
357484,note_off,,,,,120,0,1,,,0,,,86,64
357540,set_tempo,,,,,260,1,0,512821,,,,,,
357544,note_off,,,,,60,0,2,,,0,,,57,64
357544,note_on,,,,,0,0,2,,,0,,,62,44
357560,set_tempo,,,,,20,1,0,500000,,,,,,
357574,control_change,,,,,30,0,2,,,0,64,0,,
357604,note_on,,,,,0,0,1,,,0,,,80,59
357604,control_change,,,,,0,0,2,,,0,64,127,,
357604,note_on,,,,,0,0,2,,,0,,,45,53
357604,note_off,,,,,30,0,2,,,0,,,62,64
357604,note_off,,,,,120,0,1,,,0,,,83,64
357650,note_off,,,,,46,0,2,,,0,,,45,64
357664,note_on,,,,,14,0,2,,,0,,,62,45
357724,note_on,,,,,0,0,1,,,0,,,83,59
357724,note_off,,,,,120,0,1,,,0,,,80,64
357724,note_off,,,,,60,0,2,,,0,,,62,64
357724,note_on,,,,,0,0,2,,,0,,,57,43
357740,set_tempo,,,,,180,1,0,526316,,,,,,
357784,note_on,,,,,0,0,2,,,0,,,62,42
357784,note_off,,,,,60,0,2,,,0,,,57,64
357844,note_on,,,,,0,0,1,,,0,,,88,56
357844,note_off,,,,,120,0,1,,,0,,,83,64
357844,note_on,,,,,0,0,2,,,0,,,57,41
357844,note_off,,,,,60,0,2,,,0,,,62,64
357904,note_on,,,,,0,0,2,,,0,,,62,40
357904,note_off,,,,,60,0,2,,,0,,,57,64
357940,set_tempo,,,,,200,1,0,550459,,,,,,
357964,note_off,,,,,60,0,2,,,0,,,62,64
357964,note_on,,,,,0,0,2,,,0,,,57,39
357964,note_off,,,,,120,0,1,,,0,,,88,64
357964,note_on,,,,,0,0,1,,,0,,,84,53
358024,note_off,,,,,60,0,2,,,0,,,57,64
358024,note_on,,,,,0,0,2,,,0,,,62,37
358054,control_change,,,,,30,0,2,,,0,64,0,,
358084,note_on,,,,,0,0,1,,,0,,,85,44
358084,note_off,,,,,120,0,1,,,0,,,84,64
358084,control_change,,,,,0,0,2,,,0,64,127,,
358084,note_off,,,,,30,0,2,,,0,,,62,64
358084,note_on,,,,,0,0,2,,,0,,,45,45
358130,note_off,,,,,46,0,2,,,0,,,45,64
358144,note_on,,,,,14,0,2,,,0,,,61,25
358200,set_tempo,,,,,260,1,0,526316,,,,,,
358204,note_on,,,,,0,0,1,,,0,,,81,40
358204,note_off,,,,,60,0,2,,,0,,,61,64
358204,note_on,,,,,0,0,2,,,0,,,57,29
358204,note_off,,,,,120,0,1,,,0,,,85,64
358220,set_tempo,,,,,20,1,0,517241,,,,,,
358264,note_on,,,,,0,0,2,,,0,,,61,31
358264,note_off,,,,,60,0,2,,,0,,,57,64
358294,note_off,,,,,90,0,1,,,0,,,81,64
358324,note_off,,,,,60,0,2,,,0,,,61,64
358324,note_on,,,,,0,0,2,,,0,,,57,35
358324,note_on,,,,,30,0,1,,,0,,,85,44
358384,note_on,,,,,0,0,1,,,0,,,81,47
358384,note_off,,,,,60,0,1,,,0,,,85,64
358384,note_off,,,,,60,0,2,,,0,,,57,64
358384,note_on,,,,,0,0,2,,,0,,,61,38
358400,set_tempo,,,,,180,1,0,504202,,,,,,
358444,note_off,,,,,60,0,1,,,0,,,81,64
358444,note_on,,,,,0,0,2,,,0,,,57,41
358444,note_off,,,,,60,0,2,,,0,,,61,64
358444,note_on,,,,,0,0,1,,,0,,,85,44
358480,set_tempo,,,,,80,1,0,500000,,,,,,
358500,set_tempo,,,,,20,1,0,495868,,,,,,
358504,note_on,,,,,0,0,2,,,0,,,61,43
358504,note_off,,,,,60,0,2,,,0,,,57,64
358504,note_off,,,,,60,0,1,,,0,,,85,64
358504,note_on,,,,,0,0,1,,,0,,,81,47
358534,control_change,,,,,30,0,2,,,0,64,0,,
358564,note_on,,,,,0,0,1,,,0,,,76,50
358564,note_off,,,,,30,0,2,,,0,,,61,64
358564,control_change,,,,,0,0,2,,,0,64,127,,
358564,note_on,,,,,0,0,2,,,0,,,45,46
358564,note_off,,,,,60,0,1,,,0,,,81,64
358610,note_off,,,,,46,0,2,,,0,,,45,64
358624,note_off,,,,,60,0,1,,,0,,,76,64
358624,note_on,,,,,0,0,1,,,0,,,73,45
358624,note_on,,,,,14,0,2,,,0,,,61,41
358684,note_off,,,,,60,0,1,,,0,,,73,64
358684,note_on,,,,,0,0,2,,,0,,,57,37
358684,note_off,,,,,60,0,2,,,0,,,61,64
358684,note_on,,,,,0,0,1,,,0,,,76,50
358744,note_on,,,,,0,0,2,,,0,,,61,37
358744,note_off,,,,,60,0,2,,,0,,,57,64
358744,note_on,,,,,0,0,1,,,0,,,73,45
358744,note_off,,,,,60,0,1,,,0,,,76,64
358804,note_on,,,,,0,0,1,,,0,,,81,44
358804,note_off,,,,,60,0,1,,,0,,,73,64
358804,note_off,,,,,60,0,2,,,0,,,61,64
358804,note_on,,,,,0,0,2,,,0,,,57,37
358840,set_tempo,,,,,340,1,0,526316,,,,,,
358864,note_off,,,,,60,0,2,,,0,,,57,64
358864,note_on,,,,,0,0,1,,,0,,,77,44
358864,note_on,,,,,0,0,2,,,0,,,61,37
358864,note_off,,,,,60,0,1,,,0,,,81,64
358924,note_on,,,,,0,0,1,,,0,,,81,44
358924,note_off,,,,,60,0,1,,,0,,,77,64
358924,note_off,,,,,60,0,2,,,0,,,61,64
358924,note_on,,,,,0,0,2,,,0,,,57,38
358980,set_tempo,,,,,140,1,0,550459,,,,,,
358984,note_on,,,,,0,0,2,,,0,,,61,43
358984,note_off,,,,,60,0,1,,,0,,,81,64
358984,note_on,,,,,0,0,1,,,0,,,77,44
358984,note_off,,,,,60,0,2,,,0,,,57,64
359014,control_change,,,,,30,0,2,,,0,64,0,,
359044,note_off,,,,,30,0,2,,,0,,,61,64
359044,control_change,,,,,0,0,2,,,0,64,127,,
359044,note_off,,,,,60,0,1,,,0,,,77,64
359044,note_on,,,,,0,0,1,,,0,,,78,54
359044,note_on,,,,,0,0,2,,,0,,,45,49
359090,note_off,,,,,46,0,2,,,0,,,45,64
359104,note_on,,,,,14,0,2,,,0,,,62,46
359104,note_off,,,,,60,0,1,,,0,,,78,64
359104,note_on,,,,,0,0,1,,,0,,,74,45
359120,set_tempo,,,,,140,1,0,530973,,,,,,
359164,note_off,,,,,60,0,1,,,0,,,74,64
359164,note_off,,,,,60,0,2,,,0,,,62,64
359164,note_on,,,,,0,0,2,,,0,,,57,37
359164,note_on,,,,,0,0,1,,,0,,,78,47
359224,note_on,,,,,0,0,1,,,0,,,74,50
359224,note_off,,,,,60,0,1,,,0,,,78,64
359224,note_on,,,,,0,0,2,,,0,,,62,34
359224,note_off,,,,,60,0,2,,,0,,,57,64
359280,set_tempo,,,,,160,1,0,517241,,,,,,
359284,note_on,,,,,0,0,2,,,0,,,57,33
359284,note_on,,,,,0,0,1,,,0,,,86,50
359284,note_off,,,,,60,0,1,,,0,,,74,64
359284,note_off,,,,,60,0,2,,,0,,,62,64
359344,note_off,,,,,60,0,2,,,0,,,57,64
359344,note_on,,,,,0,0,2,,,0,,,62,33
359344,note_on,,,,,0,0,1,,,0,,,83,49
359344,note_off,,,,,60,0,1,,,0,,,86,64
359404,note_off,,,,,60,0,2,,,0,,,62,64
359404,note_on,,,,,0,0,2,,,0,,,57,36
359404,note_on,,,,,0,0,1,,,0,,,86,48
359404,note_off,,,,,60,0,1,,,0,,,83,64
359440,set_tempo,,,,,160,1,0,508475,,,,,,
359460,set_tempo,,,,,20,1,0,504202,,,,,,
359464,note_on,,,,,0,0,2,,,0,,,62,44
359464,note_off,,,,,60,0,1,,,0,,,86,64
359464,note_on,,,,,0,0,1,,,0,,,83,52
359464,note_off,,,,,60,0,2,,,0,,,57,64
359494,control_change,,,,,30,0,2,,,0,64,0,,
359524,control_change,,,,,0,0,2,,,0,64,127,,
359524,note_on,,,,,0,0,2,,,0,,,45,53
359524,note_off,,,,,30,0,2,,,0,,,62,64
359524,note_off,,,,,60,0,1,,,0,,,83,64
359524,note_on,,,,,0,0,1,,,0,,,80,59
359570,note_off,,,,,46,0,2,,,0,,,45,64
359584,note_on,,,,,0,0,1,,,0,,,83,55
359584,note_on,,,,,14,0,2,,,0,,,62,45
359584,note_off,,,,,60,0,1,,,0,,,80,64
359644,note_off,,,,,60,0,1,,,0,,,83,64
359644,note_on,,,,,0,0,1,,,0,,,80,53
359644,note_off,,,,,60,0,2,,,0,,,62,64
359644,note_on,,,,,0,0,2,,,0,,,57,43
359704,note_on,,,,,0,0,1,,,0,,,83,53
359704,note_off,,,,,60,0,1,,,0,,,80,64
359704,note_off,,,,,60,0,2,,,0,,,57,64
359704,note_on,,,,,0,0,2,,,0,,,62,42
359720,set_tempo,,,,,260,1,0,530973,,,,,,
359764,note_off,,,,,60,0,1,,,0,,,83,64
359764,note_on,,,,,0,0,1,,,0,,,88,57
359764,note_off,,,,,60,0,2,,,0,,,62,64
359764,note_on,,,,,0,0,2,,,0,,,57,41
359824,note_off,,,,,60,0,1,,,0,,,88,64
359824,note_on,,,,,0,0,1,,,0,,,84,49
359824,note_off,,,,,60,0,2,,,0,,,57,64
359824,note_on,,,,,0,0,2,,,0,,,62,40
359840,set_tempo,,,,,120,1,0,566038,,,,,,
359884,note_on,,,,,0,0,2,,,0,,,57,39
359884,note_on,,,,,0,0,1,,,0,,,88,50
359884,note_off,,,,,60,0,1,,,0,,,84,64
359884,note_off,,,,,60,0,2,,,0,,,62,64
359944,note_off,,,,,60,0,2,,,0,,,57,64
359944,note_on,,,,,0,0,1,,,0,,,84,54
359944,note_off,,,,,60,0,1,,,0,,,88,64
359944,note_on,,,,,0,0,2,,,0,,,62,37
359974,control_change,,,,,30,0,2,,,0,64,0,,
359980,set_tempo,,,,,140,1,0,631579,,,,,,
360004,note_on,,,,,0,0,2,,,0,,,45,49
360004,control_change,,,,,0,0,2,,,0,64,127,,
360004,note_off,,,,,30,0,2,,,0,,,62,64
360004,note_off,,,,,60,0,1,,,0,,,84,64
360004,note_on,,,,,0,0,1,,,0,,,85,49
360048,note_off,,,,,44,0,2,,,0,,,45,64
360064,note_on,,,,,16,0,2,,,0,,,61,29
360064,note_off,,,,,60,0,1,,,0,,,85,64
360064,note_on,,,,,0,0,1,,,0,,,84,39
360100,set_tempo,,,,,120,1,0,576923,,,,,,
360124,note_off,,,,,60,0,2,,,0,,,61,64
360124,note_on,,,,,0,0,2,,,0,,,57,33
360124,note_on,,,,,0,0,1,,,0,,,85,43
360124,note_off,,,,,60,0,1,,,0,,,84,64
360180,set_tempo,,,,,80,1,0,560748,,,,,,
360184,note_off,,,,,60,0,2,,,0,,,57,64
360184,note_on,,,,,0,0,2,,,0,,,61,35
360184,note_on,,,,,0,0,1,,,0,,,80,45
360184,note_off,,,,,60,0,1,,,0,,,85,64
360244,note_off,,,,,60,0,2,,,0,,,61,64
360244,note_off,,,,,60,0,1,,,0,,,80,64
360244,note_on,,,,,0,0,2,,,0,,,57,38
360244,note_on,,,,,0,0,1,,,0,,,81,48
360304,note_off,,,,,60,0,1,,,0,,,81,64
360304,note_on,,,,,0,0,1,,,0,,,80,45
360304,note_on,,,,,0,0,2,,,0,,,61,31
360304,note_off,,,,,60,0,2,,,0,,,57,64
360320,set_tempo,,,,,140,1,0,535714,,,,,,
360364,note_on,,,,,0,0,2,,,0,,,57,35
360364,note_off,,,,,60,0,1,,,0,,,80,64
360364,note_off,,,,,60,0,2,,,0,,,61,64
360364,note_on,,,,,0,0,1,,,0,,,81,43
360420,set_tempo,,,,,100,1,0,526316,,,,,,
360424,note_off,,,,,60,0,1,,,0,,,81,64
360424,note_on,,,,,0,0,2,,,0,,,61,37
360424,note_off,,,,,60,0,2,,,0,,,57,64
360424,note_on,,,,,0,0,1,,,0,,,75,41
360454,control_change,,,,,30,0,2,,,0,64,0,,
360484,note_off,,,,,30,0,2,,,0,,,61,64
360484,note_on,,,,,0,0,2,,,0,,,57,38
360484,control_change,,,,,0,0,2,,,0,64,127,,
360484,note_on,,,,,0,0,1,,,0,,,76,39
360484,note_off,,,,,60,0,1,,,0,,,75,64
360544,note_off,,,,,60,0,1,,,0,,,76,64
360544,note_off,,,,,60,0,2,,,0,,,57,64
360544,note_on,,,,,0,0,1,,,0,,,75,38
360544,note_on,,,,,0,0,2,,,0,,,61,28
360604,note_off,,,,,60,0,1,,,0,,,75,64
360604,note_on,,,,,0,0,1,,,0,,,76,40
360604,note_off,,,,,60,0,2,,,0,,,61,64
360604,note_on,,,,,0,0,2,,,0,,,57,30
360664,note_off,,,,,60,0,1,,,0,,,76,64
360664,note_off,,,,,60,0,2,,,0,,,57,64
360664,note_on,,,,,0,0,1,,,0,,,72,42
360664,note_on,,,,,0,0,2,,,0,,,61,32
360700,set_tempo,,,,,280,1,0,545455,,,,,,
360724,note_off,,,,,60,0,2,,,0,,,61,64
360724,note_on,,,,,0,0,2,,,0,,,57,35
360724,note_on,,,,,0,0,1,,,0,,,73,45
360724,note_off,,,,,60,0,1,,,0,,,72,64
360784,note_off,,,,,60,0,2,,,0,,,57,64
360784,note_off,,,,,60,0,1,,,0,,,73,64
360784,note_on,,,,,0,0,2,,,0,,,61,34
360784,note_on,,,,,0,0,1,,,0,,,72,44
360840,set_tempo,,,,,140,1,0,550459,,,,,,
360844,note_on,,,,,0,0,1,,,0,,,73,42
360844,note_on,,,,,0,0,2,,,0,,,57,32
360844,note_off,,,,,60,0,1,,,0,,,72,64
360844,note_off,,,,,60,0,2,,,0,,,61,64
360860,set_tempo,,,,,20,1,0,566038,,,,,,
360904,note_on,,,,,0,0,1,,,0,,,68,40
360904,note_off,,,,,60,0,1,,,0,,,73,64
360904,note_off,,,,,60,0,2,,,0,,,57,64
360904,note_on,,,,,0,0,2,,,0,,,61,30
360934,control_change,,,,,30,0,2,,,0,64,0,,
360964,note_on,,,,,0,0,1,,,0,,,69,41
360964,note_off,,,,,60,0,1,,,0,,,68,64
360964,note_off,,,,,30,0,2,,,0,,,61,64
360964,note_on,,,,,0,0,2,,,0,,,45,39
360964,control_change,,,,,0,0,2,,,0,64,127,,
361008,note_off,,,,,44,0,2,,,0,,,45,64
361020,set_tempo,,,,,160,1,0,545455,,,,,,
361024,note_off,,,,,60,0,1,,,0,,,69,64
361024,note_on,,,,,16,0,2,,,0,,,61,29
361024,note_on,,,,,0,0,1,,,0,,,84,33
361084,note_off,,,,,60,0,2,,,0,,,61,64
361084,note_on,,,,,0,0,2,,,0,,,57,33
361084,note_on,,,,,0,0,1,,,0,,,85,35
361084,note_off,,,,,60,0,1,,,0,,,84,64
361100,set_tempo,,,,,80,1,0,526316,,,,,,
361144,note_off,,,,,60,0,2,,,0,,,57,64
361144,note_on,,,,,0,0,1,,,0,,,80,38
361144,note_off,,,,,60,0,1,,,0,,,85,64
361144,note_on,,,,,0,0,2,,,0,,,61,35
361180,set_tempo,,,,,80,1,0,508475,,,,,,
361204,note_off,,,,,60,0,1,,,0,,,80,64
361204,note_off,,,,,60,0,2,,,0,,,61,64
361204,note_on,,,,,0,0,1,,,0,,,81,40
361204,note_on,,,,,0,0,2,,,0,,,57,38
361264,note_on,,,,,0,0,2,,,0,,,61,31
361264,note_on,,,,,0,0,1,,,0,,,80,40
361264,note_off,,,,,60,0,2,,,0,,,57,64
361264,note_off,,,,,60,0,1,,,0,,,81,64
361324,note_off,,,,,60,0,2,,,0,,,61,64
361324,note_on,,,,,0,0,2,,,0,,,57,35
361324,note_off,,,,,60,0,1,,,0,,,80,64
361324,note_on,,,,,0,0,1,,,0,,,81,40
361380,set_tempo,,,,,200,1,0,512821,,,,,,
361384,note_off,,,,,60,0,2,,,0,,,57,64
361384,note_on,,,,,0,0,2,,,0,,,61,37
361384,note_off,,,,,60,0,1,,,0,,,81,64
361384,note_on,,,,,0,0,1,,,0,,,75,38
361414,control_change,,,,,30,0,2,,,0,64,0,,
361420,set_tempo,,,,,40,1,0,517241,,,,,,
361440,set_tempo,,,,,20,1,0,530973,,,,,,
361444,note_on,,,,,0,0,1,,,0,,,76,36
361444,note_off,,,,,60,0,1,,,0,,,75,64
361444,note_off,,,,,30,0,2,,,0,,,61,64
361444,note_on,,,,,0,0,2,,,0,,,57,38
361444,control_change,,,,,0,0,2,,,0,64,127,,
361460,set_tempo,,,,,20,1,0,535714,,,,,,
361504,note_off,,,,,60,0,2,,,0,,,57,64
361504,note_on,,,,,0,0,2,,,0,,,61,28
361504,note_off,,,,,60,0,1,,,0,,,76,64
361504,note_on,,,,,0,0,1,,,0,,,75,36
361564,note_off,,,,,60,0,1,,,0,,,75,64
361564,note_on,,,,,0,0,1,,,0,,,76,40
361564,note_on,,,,,0,0,2,,,0,,,57,30
361564,note_off,,,,,60,0,2,,,0,,,61,64
361624,note_off,,,,,60,0,2,,,0,,,57,64
361624,note_on,,,,,0,0,2,,,0,,,61,32
361624,note_on,,,,,0,0,1,,,0,,,72,42
361624,note_off,,,,,60,0,1,,,0,,,76,64
361684,note_off,,,,,60,0,1,,,0,,,72,64
361684,note_off,,,,,60,0,2,,,0,,,61,64
361684,note_on,,,,,0,0,2,,,0,,,57,35
361684,note_on,,,,,0,0,1,,,0,,,73,45
361740,set_tempo,,,,,280,1,0,560748,,,,,,
361744,note_on,,,,,0,0,1,,,0,,,72,44
361744,note_off,,,,,60,0,1,,,0,,,73,64
361744,note_on,,,,,0,0,2,,,0,,,61,34
361744,note_off,,,,,60,0,2,,,0,,,57,64
361804,note_on,,,,,0,0,1,,,0,,,73,42
361804,note_off,,,,,60,0,1,,,0,,,72,64
361804,note_off,,,,,60,0,2,,,0,,,61,64
361804,note_on,,,,,0,0,2,,,0,,,57,32
361864,note_off,,,,,60,0,1,,,0,,,73,64
361864,note_on,,,,,0,0,2,,,0,,,61,30
361864,note_off,,,,,60,0,2,,,0,,,57,64
361864,note_on,,,,,0,0,1,,,0,,,68,40
361894,control_change,,,,,30,0,2,,,0,64,0,,
361900,set_tempo,,,,,160,1,0,600000,,,,,,
361924,note_off,,,,,60,0,1,,,0,,,68,64
361924,note_on,,,,,0,0,1,,,0,,,69,39
361924,control_change,,,,,0,0,2,,,0,64,127,,
361924,note_on,,,,,0,0,2,,,0,,,57,39
361924,note_off,,,,,30,0,2,,,0,,,61,64
361984,note_on,,,,,0,0,2,,,0,,,61,29
361984,note_off,,,,,60,0,2,,,0,,,57,64
361984,note_off,,,,,60,0,1,,,0,,,69,64
361984,note_on,,,,,0,0,1,,,0,,,68,38
362044,note_off,,,,,60,0,2,,,0,,,61,64
362044,note_off,,,,,60,0,1,,,0,,,68,64
362044,note_on,,,,,0,0,2,,,0,,,57,33
362044,note_on,,,,,0,0,1,,,0,,,69,39
362104,note_off,,,,,60,0,1,,,0,,,69,64
362104,note_on,,,,,0,0,1,,,0,,,71,41
362104,note_off,,,,,60,0,2,,,0,,,57,64
362104,note_on,,,,,0,0,2,,,0,,,61,35
362164,note_off,,,,,60,0,1,,,0,,,71,64
362164,note_on,,,,,0,0,1,,,0,,,73,42
362164,note_off,,,,,60,0,2,,,0,,,61,64
362164,note_on,,,,,0,0,2,,,0,,,57,38
362224,note_off,,,,,60,0,2,,,0,,,57,64
362224,note_on,,,,,0,0,2,,,0,,,61,31
362224,note_off,,,,,60,0,1,,,0,,,73,64
362224,note_on,,,,,0,0,1,,,0,,,74,43
362284,note_on,,,,,0,0,2,,,0,,,57,35
362284,note_off,,,,,60,0,2,,,0,,,61,64
362284,note_off,,,,,60,0,1,,,0,,,74,64
362284,note_on,,,,,0,0,1,,,0,,,73,44
362344,note_off,,,,,60,0,2,,,0,,,57,64
362344,note_on,,,,,0,0,2,,,0,,,61,37
362344,note_off,,,,,60,0,1,,,0,,,73,64
362344,note_on,,,,,0,0,1,,,0,,,71,45
362374,control_change,,,,,30,0,2,,,0,64,0,,
362380,set_tempo,,,,,480,1,0,659341,,,,,,
362404,note_on,,,,,0,0,1,,,0,,,69,46
362404,control_change,,,,,0,0,2,,,0,64,127,,
362404,note_on,,,,,0,0,2,,,0,,,57,38
362404,note_off,,,,,30,0,2,,,0,,,61,64
362404,note_off,,,,,60,0,1,,,0,,,71,64
362464,note_off,,,,,60,0,2,,,0,,,57,64
362464,note_off,,,,,60,0,1,,,0,,,69,64
362464,note_on,,,,,0,0,1,,,0,,,71,46
362464,note_on,,,,,0,0,2,,,0,,,61,38
362524,note_off,,,,,60,0,1,,,0,,,71,64
362524,note_on,,,,,0,0,2,,,0,,,57,36
362524,note_off,,,,,60,0,2,,,0,,,61,64
362524,note_on,,,,,0,0,1,,,0,,,73,43
362584,note_on,,,,,0,0,2,,,0,,,61,36
362584,note_off,,,,,60,0,2,,,0,,,57,64
362584,note_off,,,,,60,0,1,,,0,,,73,64
362584,note_on,,,,,0,0,1,,,0,,,71,42
362620,set_tempo,,,,,240,1,0,689655,,,,,,
362644,note_on,,,,,0,0,2,,,0,,,57,35
362644,note_off,,,,,60,0,2,,,0,,,61,64
362644,note_off,,,,,60,0,1,,,0,,,71,64
362644,note_on,,,,,0,0,1,,,0,,,69,39
362704,note_off,,,,,60,0,2,,,0,,,57,64
362704,note_off,,,,,60,0,1,,,0,,,69,64
362704,note_on,,,,,0,0,1,,,0,,,71,36
362704,note_on,,,,,0,0,2,,,0,,,61,33
362764,note_on,,,,,0,0,1,,,0,,,69,39
362764,note_off,,,,,60,0,1,,,0,,,71,64
362764,note_off,,,,,60,0,2,,,0,,,61,64
362764,note_on,,,,,0,0,2,,,0,,,57,35
362824,note_on,,,,,0,0,1,,,0,,,68,44
362824,note_off,,,,,60,0,1,,,0,,,69,64
362824,note_off,,,,,60,0,2,,,0,,,57,64
362824,note_on,,,,,0,0,2,,,0,,,61,42
362840,set_tempo,,,,,220,1,0,983607,,,,,,
362854,control_change,,,,,30,0,2,,,0,64,0,,
362884,note_off,,,,,60,0,1,,,0,,,68,64
362884,control_change,,,,,0,0,2,,,0,64,127,,
362884,note_on,,,,,0,0,2,,,0,,,45,47
362884,note_off,,,,,30,0,2,,,0,,,61,64
362884,note_on,,,,,0,0,1,,,0,,,67,48
362900,set_tempo,,,,,60,1,0,869565,,,,,,
362964,note_on,,,,,0,0,1,,,0,,,73,39
362964,note_off,,,,,80,0,2,,,0,,,45,64
362964,note_off,,,,,80,0,1,,,0,,,67,64
362964,note_on,,,,,0,0,2,,,0,,,57,38
362980,set_tempo,,,,,80,1,0,789474,,,,,,
363044,note_off,,,,,80,0,2,,,0,,,57,64
363044,note_on,,,,,0,0,2,,,0,,,57,43
363044,note_on,,,,,0,0,2,,,0,,,45,43
363044,note_on,,,,,0,0,1,,,0,,,61,43
363044,note_on,,,,,0,0,1,,,0,,,67,43
363044,note_on,,,,,0,0,1,,,0,,,73,43
363044,note_off,,,,,80,0,1,,,0,,,73,64
363114,control_change,,,,,70,0,2,,,0,64,0,,
363124,note_on,,,,,0,0,1,,,0,,,61,56
363124,note_on,,,,,0,0,1,,,0,,,73,56
363124,note_on,,,,,0,0,1,,,0,,,67,56
363124,note_off,,,,,0,0,1,,,0,,,73,64
363124,note_on,,,,,0,0,2,,,0,,,45,50
363124,note_on,,,,,0,0,2,,,0,,,57,50
363124,control_change,,,,,0,0,2,,,0,64,127,,
363124,note_off,,,,,80,0,1,,,0,,,61,64
363124,note_off,,,,,0,0,1,,,0,,,67,64
363124,note_off,,,,,0,0,2,,,0,,,45,64
363124,note_off,,,,,10,0,2,,,0,,,57,64
363140,set_tempo,,,,,160,1,0,722892,,,,,,
363204,note_off,,,,,0,0,1,,,0,,,73,64
363204,note_off,,,,,80,0,2,,,0,,,57,64
363204,note_off,,,,,0,0,2,,,0,,,45,64
363204,note_on,,,,,0,0,2,,,0,,,57,42
363204,note_on,,,,,0,0,2,,,0,,,45,42
363204,note_on,,,,,0,0,1,,,0,,,73,46
363204,note_on,,,,,0,0,1,,,0,,,61,46
363204,note_on,,,,,0,0,1,,,0,,,67,46
363204,note_off,,,,,80,0,1,,,0,,,61,64
363204,note_off,,,,,0,0,1,,,0,,,67,64
363220,set_tempo,,,,,80,1,0,681818,,,,,,
363284,note_off,,,,,80,0,2,,,0,,,45,64
363284,note_on,,,,,0,0,2,,,0,,,45,47
363284,note_on,,,,,0,0,2,,,0,,,57,47
363284,note_off,,,,,0,0,2,,,0,,,57,64
363284,note_on,,,,,0,0,1,,,0,,,61,49
363284,note_on,,,,,0,0,1,,,0,,,67,49
363284,note_on,,,,,0,0,1,,,0,,,73,49
363284,note_off,,,,,0,0,1,,,0,,,73,64
363284,note_off,,,,,0,0,1,,,0,,,67,64
363284,note_off,,,,,80,0,1,,,0,,,61,64
363354,control_change,,,,,70,0,2,,,0,64,0,,
363354,control_change,,,,,0,0,2,,,0,64,0,,
363360,set_tempo,,,,,140,1,0,645161,,,,,,
363364,control_change,,,,,0,0,2,,,0,64,127,,
363364,note_off,,,,,80,0,1,,,0,,,61,64
363364,note_on,,,,,0,0,2,,,0,,,45,59
363364,note_on,,,,,0,0,2,,,0,,,57,59
363364,note_off,,,,,0,0,2,,,0,,,45,64
363364,note_on,,,,,0,0,1,,,0,,,73,65
363364,note_off,,,,,0,0,1,,,0,,,73,64
363364,note_off,,,,,0,0,1,,,0,,,67,64
363364,note_on,,,,,0,0,1,,,0,,,67,65
363364,note_on,,,,,0,0,1,,,0,,,61,65
363364,note_off,,,,,10,0,2,,,0,,,57,64
363444,note_on,,,,,0,0,2,,,0,,,57,53
363444,note_on,,,,,0,0,1,,,0,,,61,56
363444,note_off,,,,,0,0,2,,,0,,,57,64
363444,note_off,,,,,80,0,2,,,0,,,45,64
363444,note_off,,,,,80,0,1,,,0,,,61,64
363444,note_off,,,,,0,0,1,,,0,,,67,64
363444,note_off,,,,,0,0,1,,,0,,,73,64
363444,note_on,,,,,0,0,1,,,0,,,73,56
363444,note_on,,,,,0,0,1,,,0,,,67,56
363444,note_on,,,,,0,0,2,,,0,,,45,53
363480,set_tempo,,,,,120,1,0,631579,,,,,,
363524,note_off,,,,,80,0,2,,,0,,,57,64
363524,note_off,,,,,0,0,2,,,0,,,45,64
363524,note_on,,,,,0,0,2,,,0,,,57,56
363524,note_on,,,,,0,0,2,,,0,,,45,56
363524,note_on,,,,,0,0,1,,,0,,,73,62
363524,note_off,,,,,0,0,1,,,0,,,73,64
363524,note_off,,,,,0,0,1,,,0,,,67,64
363524,note_off,,,,,80,0,1,,,0,,,61,64
363524,note_on,,,,,0,0,1,,,0,,,67,62
363524,note_on,,,,,0,0,1,,,0,,,61,62
363540,set_tempo,,,,,60,1,0,618557,,,,,,
363594,control_change,,,,,0,0,2,,,0,64,0,,
363594,control_change,,,,,0,0,2,,,0,64,0,,
363594,control_change,,,,,70,0,2,,,0,64,0,,
363604,note_on,,,,,0,0,1,,,0,,,73,80
363604,note_off,,,,,10,0,2,,,0,,,45,64
363604,note_off,,,,,0,0,2,,,0,,,57,64
363604,note_on,,,,,0,0,2,,,0,,,57,71
363604,note_on,,,,,0,0,2,,,0,,,52,71
363604,note_on,,,,,0,0,2,,,0,,,45,71
363604,control_change,,,,,0,0,2,,,0,64,127,,
363604,note_off,,,,,0,0,1,,,0,,,73,64
363604,note_off,,,,,80,0,1,,,0,,,61,64
363604,note_off,,,,,0,0,1,,,0,,,67,64
363604,note_on,,,,,0,0,1,,,0,,,61,80
363604,note_on,,,,,0,0,1,,,0,,,67,80
363660,set_tempo,,,,,120,1,0,612245,,,,,,
363684,note_off,,,,,80,0,2,,,0,,,45,64
363684,note_off,,,,,0,0,2,,,0,,,52,64
363684,note_off,,,,,0,0,2,,,0,,,57,64
363684,note_on,,,,,0,0,2,,,0,,,52,61
363684,note_on,,,,,0,0,2,,,0,,,45,61
363684,note_on,,,,,0,0,2,,,0,,,57,61
363684,note_on,,,,,0,0,1,,,0,,,73,71
363684,note_off,,,,,80,0,1,,,0,,,61,64
363684,note_off,,,,,0,0,1,,,0,,,67,64
363684,note_off,,,,,0,0,1,,,0,,,73,64
363684,note_on,,,,,0,0,1,,,0,,,67,71
363684,note_on,,,,,0,0,1,,,0,,,61,71
363764,note_on,,,,,0,0,1,,,0,,,61,76
363764,note_on,,,,,0,0,2,,,0,,,52,64
363764,note_off,,,,,80,0,1,,,0,,,61,64
363764,note_off,,,,,0,0,1,,,0,,,67,64
363764,note_off,,,,,0,0,1,,,0,,,73,64
363764,note_on,,,,,0,0,1,,,0,,,73,76
363764,note_on,,,,,0,0,1,,,0,,,67,76
363764,note_on,,,,,0,0,2,,,0,,,45,64
363764,note_on,,,,,0,0,2,,,0,,,57,64
363764,note_off,,,,,80,0,2,,,0,,,57,64
363764,note_off,,,,,0,0,2,,,0,,,52,64
363764,note_off,,,,,0,0,2,,,0,,,45,64
363834,control_change,,,,,0,0,2,,,0,64,0,,
363834,control_change,,,,,0,0,2,,,0,64,0,,
363834,control_change,,,,,0,0,2,,,0,64,0,,
363834,control_change,,,,,70,0,2,,,0,64,0,,
363844,note_off,,,,,10,0,2,,,0,,,57,64
363844,note_off,,,,,0,0,2,,,0,,,52,64
363844,note_off,,,,,0,0,2,,,0,,,45,64
363844,control_change,,,,,0,0,2,,,0,64,127,,
363844,note_on,,,,,0,0,2,,,0,,,45,80
363844,note_on,,,,,0,0,2,,,0,,,57,80
363844,note_on,,,,,0,0,2,,,0,,,52,80
363844,note_off,,,,,80,0,1,,,0,,,61,64
363844,note_off,,,,,0,0,1,,,0,,,67,64
363844,note_on,,,,,0,0,1,,,0,,,67,91
363844,note_on,,,,,0,0,1,,,0,,,73,91
363844,note_off,,,,,0,0,1,,,0,,,73,64
363844,note_on,,,,,0,0,1,,,0,,,61,91
363924,note_off,,,,,0,0,2,,,0,,,57,64
363924,note_off,,,,,0,0,2,,,0,,,45,64
363924,note_on,,,,,0,0,2,,,0,,,45,73
363924,note_on,,,,,0,0,2,,,0,,,57,73
363924,note_off,,,,,80,0,1,,,0,,,61,64
363924,note_off,,,,,0,0,1,,,0,,,67,64
363924,note_off,,,,,0,0,1,,,0,,,73,64
363924,note_on,,,,,0,0,1,,,0,,,73,84
363924,note_on,,,,,0,0,1,,,0,,,67,84
363924,note_on,,,,,0,0,1,,,0,,,61,84
363924,note_off,,,,,80,0,2,,,0,,,52,64
363924,note_on,,,,,0,0,2,,,0,,,52,73
364004,note_on,,,,,0,0,1,,,0,,,61,86
364004,note_off,,,,,80,0,1,,,0,,,61,64
364004,note_off,,,,,0,0,1,,,0,,,67,64
364004,note_on,,,,,0,0,1,,,0,,,73,86
364004,note_on,,,,,0,0,1,,,0,,,67,86
364004,note_off,,,,,0,0,1,,,0,,,73,64
364004,note_off,,,,,0,0,2,,,0,,,45,64
364004,note_off,,,,,0,0,2,,,0,,,52,64
364004,note_off,,,,,80,0,2,,,0,,,57,64
364004,note_on,,,,,0,0,2,,,0,,,57,77
364004,note_on,,,,,0,0,2,,,0,,,45,77
364004,note_on,,,,,0,0,2,,,0,,,52,77
364020,set_tempo,,,,,360,1,0,631579,,,,,,
364074,control_change,,,,,0,0,2,,,0,64,0,,
364074,control_change,,,,,0,0,2,,,0,64,0,,
364074,control_change,,,,,0,0,2,,,0,64,0,,
364074,control_change,,,,,70,0,2,,,0,64,0,,
364074,control_change,,,,,0,0,2,,,0,64,0,,
364084,note_off,,,,,80,0,1,,,0,,,61,64
364084,note_on,,,,,0,0,1,,,0,,,67,100
364084,note_on,,,,,0,0,1,,,0,,,73,100
364084,note_off,,,,,0,0,1,,,0,,,73,64
364084,note_on,,,,,0,0,1,,,0,,,61,100
364084,note_off,,,,,0,0,1,,,0,,,67,64
364084,note_on,,,,,0,0,2,,,0,,,52,92
364084,note_on,,,,,0,0,2,,,0,,,57,92
364084,note_on,,,,,0,0,2,,,0,,,45,92
364084,note_off,,,,,0,0,2,,,0,,,57,64
364084,note_off,,,,,0,0,2,,,0,,,45,64
364084,note_off,,,,,10,0,2,,,0,,,52,64
364084,control_change,,,,,0,0,2,,,0,64,127,,
364160,set_tempo,,,,,140,1,0,652174,,,,,,
364164,note_off,,,,,80,0,1,,,0,,,61,64
364164,note_off,,,,,0,0,1,,,0,,,67,64
364164,note_on,,,,,0,0,2,,,0,,,52,88
364164,note_on,,,,,0,0,1,,,0,,,73,94
364164,note_on,,,,,0,0,2,,,0,,,57,88
364164,note_on,,,,,0,0,2,,,0,,,45,88
364164,note_off,,,,,0,0,2,,,0,,,52,64
364164,note_off,,,,,0,0,2,,,0,,,45,64
364164,note_off,,,,,80,0,2,,,0,,,57,64
364164,note_off,,,,,0,0,1,,,0,,,73,64
364164,note_on,,,,,0,0,1,,,0,,,67,94
364164,note_on,,,,,0,0,1,,,0,,,61,94
364244,note_on,,,,,0,0,1,,,0,,,73,97
364244,note_off,,,,,0,0,2,,,0,,,57,64
364244,note_off,,,,,80,0,2,,,0,,,52,64
364244,note_off,,,,,0,0,1,,,0,,,73,64
364244,note_off,,,,,80,0,1,,,0,,,61,64
364244,note_off,,,,,0,0,1,,,0,,,67,64
364244,note_on,,,,,0,0,1,,,0,,,61,97
364244,note_on,,,,,0,0,2,,,0,,,57,92
364244,note_on,,,,,0,0,2,,,0,,,45,92
364244,note_off,,,,,0,0,2,,,0,,,45,64
364244,note_on,,,,,0,0,1,,,0,,,67,97
364244,note_on,,,,,0,0,2,,,0,,,52,92
364314,control_change,,,,,0,0,2,,,0,64,0,,
364314,control_change,,,,,0,0,2,,,0,64,0,,
364314,control_change,,,,,0,0,2,,,0,64,0,,
364314,control_change,,,,,0,0,2,,,0,64,0,,
364314,control_change,,,,,70,0,2,,,0,64,0,,
364324,note_off,,,,,80,0,1,,,0,,,61,64
364324,note_on,,,,,0,0,1,,,0,,,61,109
364324,note_on,,,,,0,0,1,,,0,,,67,109
364324,note_on,,,,,0,0,1,,,0,,,73,109
364324,note_off,,,,,0,0,1,,,0,,,73,64
364324,note_off,,,,,0,0,1,,,0,,,67,64
364324,control_change,,,,,0,0,2,,,0,64,127,,
364324,note_on,,,,,0,0,2,,,0,,,57,104
364324,note_on,,,,,0,0,2,,,0,,,52,104
364324,note_off,,,,,0,0,2,,,0,,,52,64
364324,note_off,,,,,0,0,2,,,0,,,57,64
364324,note_off,,,,,10,0,2,,,0,,,45,64
364324,note_on,,,,,0,0,2,,,0,,,45,104
364360,set_tempo,,,,,200,1,0,681818,,,,,,
364404,note_off,,,,,80,0,1,,,0,,,61,64
364404,note_on,,,,,0,0,1,,,0,,,73,104
364404,note_on,,,,,0,0,1,,,0,,,67,104
364404,note_on,,,,,0,0,2,,,0,,,45,99
364404,note_on,,,,,0,0,2,,,0,,,52,99
364404,note_on,,,,,0,0,2,,,0,,,57,99
364404,note_on,,,,,0,0,1,,,0,,,61,104
364404,note_off,,,,,0,0,1,,,0,,,73,64
364404,note_off,,,,,0,0,1,,,0,,,67,64
364404,note_off,,,,,0,0,2,,,0,,,57,64
364404,note_off,,,,,80,0,2,,,0,,,45,64
364404,note_off,,,,,0,0,2,,,0,,,52,64
364484,note_off,,,,,80,0,1,,,0,,,61,64
364484,note_off,,,,,0,0,1,,,0,,,73,64
364484,note_on,,,,,0,0,1,,,0,,,73,107
364484,note_on,,,,,0,0,1,,,0,,,67,107
364484,note_on,,,,,0,0,1,,,0,,,61,107
364484,note_off,,,,,0,0,1,,,0,,,67,64
364484,note_on,,,,,0,0,2,,,0,,,57,103
364484,note_off,,,,,0,0,2,,,0,,,57,64
364484,note_on,,,,,0,0,2,,,0,,,45,103
364484,note_on,,,,,0,0,2,,,0,,,52,103
364484,note_off,,,,,0,0,2,,,0,,,52,64
364484,note_off,,,,,80,0,2,,,0,,,45,64
364504,set_tempo,,,,,144,1,0,1000000,,,,,,
364554,control_change,,,,,0,0,2,,,0,64,0,,
364554,control_change,,,,,0,0,2,,,0,64,0,,
364554,control_change,,,,,0,0,2,,,0,64,0,,
364554,control_change,,,,,0,0,2,,,0,64,0,,
364554,control_change,,,,,70,0,2,,,0,64,0,,
364554,control_change,,,,,0,0,2,,,0,64,0,,
364564,note_off,,,,,80,0,1,,,0,,,61,64
364564,note_off,,,,,0,0,1,,,0,,,67,64
364564,note_off,,,,,0,0,1,,,0,,,73,64
364564,note_on,,,,,0,0,1,,,0,,,74,112
364564,note_on,,,,,0,0,1,,,0,,,65,112
364564,note_on,,,,,0,0,1,,,0,,,62,112
364564,note_off,,,,,0,0,2,,,0,,,45,64
364564,note_on,,,,,0,0,2,,,0,,,58,112
364564,note_on,,,,,0,0,2,,,0,,,50,112
364564,note_on,,,,,0,0,2,,,0,,,53,112
364564,note_on,,,,,0,0,2,,,0,,,46,112
364564,control_change,,,,,0,0,2,,,0,64,127,,
364564,note_off,,,,,0,0,2,,,0,,,52,64
364564,note_off,,,,,10,0,2,,,0,,,57,64
364584,set_tempo,,,,,80,1,0,789474,,,,,,
364600,set_tempo,,,,,16,1,0,821918,,,,,,
364620,set_tempo,,,,,20,1,0,810811,,,,,,
364644,note_on,,,,,0,0,2,,,0,,,50,110
364644,note_on,,,,,0,0,2,,,0,,,53,110
364644,note_on,,,,,0,0,2,,,0,,,58,110
364644,note_on,,,,,0,0,2,,,0,,,46,110
364644,note_off,,,,,0,0,2,,,0,,,46,64
364644,note_off,,,,,0,0,2,,,0,,,58,64
364644,note_off,,,,,80,0,2,,,0,,,50,64
364644,note_off,,,,,80,0,1,,,0,,,62,64
364644,note_off,,,,,0,0,1,,,0,,,65,64
364644,note_off,,,,,0,0,1,,,0,,,74,64
364644,note_on,,,,,0,0,1,,,0,,,74,110
364644,note_on,,,,,0,0,1,,,0,,,65,110
364644,note_on,,,,,0,0,1,,,0,,,62,110
364644,note_off,,,,,0,0,2,,,0,,,53,64
364680,set_tempo,,,,,60,1,0,1052632,,,,,,
364724,note_off,,,,,80,0,1,,,0,,,62,64
364724,note_on,,,,,0,0,2,,,0,,,53,103
364724,note_on,,,,,0,0,2,,,0,,,58,103
364724,note_on,,,,,0,0,2,,,0,,,46,103
364724,note_on,,,,,0,0,2,,,0,,,50,103
364724,note_off,,,,,0,0,2,,,0,,,46,64
364724,note_off,,,,,0,0,2,,,0,,,58,64
364724,note_off,,,,,0,0,1,,,0,,,65,64
364724,note_off,,,,,80,0,2,,,0,,,50,64
364724,set_tempo,,,,,44,1,0,1000000,,,,,,
364724,note_off,,,,,0,0,2,,,0,,,53,64
364724,note_off,,,,,0,0,1,,,0,,,74,64
364724,note_on,,,,,0,0,1,,,0,,,74,103
364724,note_on,,,,,0,0,1,,,0,,,65,103
364724,note_on,,,,,0,0,1,,,0,,,62,103
364744,set_tempo,,,,,20,1,0,1111111,,,,,,
364764,set_tempo,,,,,20,1,0,1395349,,,,,,
364794,control_change,,,,,70,0,2,,,0,64,0,,
364800,set_tempo,,,,,36,1,0,952381,,,,,,
364804,note_on,,,,,0,0,2,,,0,,,58,109
364804,note_on,,,,,0,0,2,,,0,,,50,109
364804,control_change,,,,,0,0,2,,,0,64,127,,
364804,note_off,,,,,0,0,2,,,0,,,50,64
364804,note_off,,,,,0,0,2,,,0,,,46,64
364804,note_off,,,,,0,0,2,,,0,,,58,64
364804,note_off,,,,,10,0,2,,,0,,,53,64
364804,note_off,,,,,80,0,1,,,0,,,62,64
364804,note_off,,,,,0,0,1,,,0,,,65,64
364804,note_on,,,,,0,0,1,,,0,,,46,108
364804,note_on,,,,,0,0,1,,,0,,,62,108
364804,note_on,,,,,0,0,1,,,0,,,65,108
364804,note_on,,,,,0,0,1,,,0,,,74,108
364804,note_off,,,,,0,0,1,,,0,,,74,64
364882,note_off,,,,,78,0,2,,,0,,,58,64
364882,note_off,,,,,0,0,2,,,0,,,50,64
364884,note_on,,,,,2,0,2,,,0,,,53,91
364920,set_tempo,,,,,120,1,0,857143,,,,,,
364948,note_off,,,,,64,0,2,,,0,,,53,64
364964,note_on,,,,,16,0,2,,,0,,,53,88
365020,note_off,,,,,56,0,2,,,0,,,53,64
365034,control_change,,,,,14,0,2,,,0,64,0,,
365040,set_tempo,,,,,120,1,0,779221,,,,,,
365044,note_off,,,,,0,0,1,,,0,,,65,64
365044,note_off,,,,,0,0,1,,,0,,,62,64
365044,note_off,,,,,240,0,1,,,0,,,46,64
365044,control_change,,,,,10,0,2,,,0,64,127,,
365044,note_off,,,,,0,0,1,,,0,,,74,64
365044,note_on,,,,,0,0,2,,,0,,,48,95
365044,note_on,,,,,0,0,1,,,0,,,72,91
365044,note_on,,,,,0,0,1,,,0,,,46,91
365044,note_on,,,,,0,0,1,,,0,,,60,91
365044,note_on,,,,,0,0,1,,,0,,,65,91
365100,set_tempo,,,,,60,1,0,740741,,,,,,
365122,note_off,,,,,78,0,2,,,0,,,48,64
365124,note_on,,,,,2,0,2,,,0,,,53,89
365188,note_off,,,,,64,0,2,,,0,,,53,64
365204,note_on,,,,,16,0,2,,,0,,,53,66
365240,set_tempo,,,,,140,1,0,666667,,,,,,
365260,note_off,,,,,56,0,2,,,0,,,53,64
365274,control_change,,,,,14,0,2,,,0,64,0,,
365284,note_off,,,,,0,0,1,,,0,,,60,64
365284,note_off,,,,,240,0,1,,,0,,,46,64
365284,note_on,,,,,0,0,1,,,0,,,70,89
365284,control_change,,,,,10,0,2,,,0,64,127,,
365284,note_on,,,,,0,0,2,,,0,,,50,89
365284,note_on,,,,,0,0,1,,,0,,,65,89
365284,note_on,,,,,0,0,1,,,0,,,58,89
365284,note_on,,,,,0,0,1,,,0,,,46,89
365284,note_off,,,,,0,0,1,,,0,,,65,64
365284,note_off,,,,,0,0,1,,,0,,,72,64
365362,note_off,,,,,78,0,2,,,0,,,50,64
365364,note_on,,,,,2,0,2,,,0,,,53,81
365400,set_tempo,,,,,160,1,0,625000,,,,,,
365428,note_off,,,,,64,0,2,,,0,,,53,64
365444,note_on,,,,,16,0,2,,,0,,,53,68
365500,set_tempo,,,,,100,1,0,588235,,,,,,
365500,note_off,,,,,56,0,2,,,0,,,53,64
365514,control_change,,,,,14,0,2,,,0,64,0,,
365524,note_on,,,,,0,0,2,,,0,,,51,94
365524,control_change,,,,,10,0,2,,,0,64,127,,
365524,note_on,,,,,0,0,1,,,0,,,46,104
365524,note_on,,,,,0,0,1,,,0,,,65,104
365524,note_on,,,,,0,0,1,,,0,,,60,104
365524,note_off,,,,,0,0,1,,,0,,,70,64
365524,note_off,,,,,240,0,1,,,0,,,46,64
365524,note_on,,,,,0,0,1,,,0,,,72,104
365524,note_off,,,,,0,0,1,,,0,,,65,64
365524,note_off,,,,,0,0,1,,,0,,,58,64
365544,set_tempo,,,,,44,1,0,600000,,,,,,
365584,set_tempo,,,,,40,1,0,588235,,,,,,
365602,note_off,,,,,78,0,2,,,0,,,51,64
365604,note_on,,,,,2,0,2,,,0,,,53,83
365624,set_tempo,,,,,40,1,0,582524,,,,,,
365664,set_tempo,,,,,40,1,0,689655,,,,,,
365668,note_off,,,,,64,0,2,,,0,,,53,64
365684,note_on,,,,,16,0,2,,,0,,,53,70
365704,set_tempo,,,,,40,1,0,681818,,,,,,
365740,note_off,,,,,56,0,2,,,0,,,53,64
365754,control_change,,,,,14,0,2,,,0,64,0,,
365764,control_change,,,,,0,0,2,,,0,64,127,,
365764,note_on,,,,,10,0,2,,,0,,,52,106
365764,note_on,,,,,0,0,1,,,0,,,62,109
365764,note_off,,,,,240,0,1,,,0,,,46,64
365764,note_on,,,,,0,0,1,,,0,,,46,109
365764,note_off,,,,,0,0,1,,,0,,,60,64
365764,note_off,,,,,0,0,1,,,0,,,65,64
365764,note_off,,,,,0,0,1,,,0,,,72,64
365764,note_on,,,,,0,0,1,,,0,,,65,109
365764,note_on,,,,,0,0,1,,,0,,,74,109
365800,set_tempo,,,,,96,1,0,666667,,,,,,
365842,note_off,,,,,78,0,2,,,0,,,52,64
365844,note_on,,,,,2,0,2,,,0,,,53,84
365908,note_off,,,,,64,0,2,,,0,,,53,64
365924,note_on,,,,,16,0,2,,,0,,,53,72
365960,set_tempo,,,,,160,1,0,631579,,,,,,
365980,note_off,,,,,56,0,2,,,0,,,53,64
366004,note_on,,,,,24,0,2,,,0,,,53,85
366082,note_off,,,,,78,0,2,,,0,,,53,64
366084,note_on,,,,,2,0,2,,,0,,,53,77
366100,set_tempo,,,,,140,1,0,606061,,,,,,
366120,set_tempo,,,,,20,1,0,600000,,,,,,
366148,note_off,,,,,64,0,2,,,0,,,53,64
366164,note_on,,,,,16,0,2,,,0,,,53,65
366220,note_off,,,,,56,0,2,,,0,,,53,64
366244,note_on,,,,,24,0,2,,,0,,,53,85
366280,set_tempo,,,,,160,1,0,571429,,,,,,
366322,note_off,,,,,78,0,2,,,0,,,53,64
366324,note_on,,,,,2,0,2,,,0,,,53,82
366388,note_off,,,,,64,0,2,,,0,,,53,64
366400,set_tempo,,,,,120,1,0,600000,,,,,,
366404,note_on,,,,,16,0,2,,,0,,,53,70
366440,set_tempo,,,,,40,1,0,606061,,,,,,
366460,note_off,,,,,56,0,2,,,0,,,53,64
366474,control_change,,,,,14,0,2,,,0,64,0,,
366484,note_off,,,,,720,0,1,,,0,,,46,64
366484,note_off,,,,,0,0,1,,,0,,,62,64
366484,note_off,,,,,0,0,1,,,0,,,65,64
366484,note_off,,,,,0,0,1,,,0,,,74,64
366484,note_on,,,,,0,0,1,,,0,,,72,95
366484,note_on,,,,,0,0,2,,,0,,,51,91
366484,control_change,,,,,10,0,2,,,0,64,127,,
366484,note_on,,,,,0,0,1,,,0,,,46,95
366484,note_on,,,,,0,0,1,,,0,,,65,95
366484,note_on,,,,,0,0,1,,,0,,,60,95
366520,set_tempo,,,,,80,1,0,631579,,,,,,
366562,note_off,,,,,78,0,2,,,0,,,51,64
366564,note_on,,,,,2,0,2,,,0,,,50,86
366604,note_off,,,,,120,0,1,,,0,,,60,64
366604,note_off,,,,,0,0,1,,,0,,,65,64
366604,note_off,,,,,0,0,1,,,0,,,72,64
366604,note_on,,,,,0,0,1,,,0,,,70,92
366604,note_on,,,,,0,0,1,,,0,,,65,92
366604,note_on,,,,,0,0,1,,,0,,,58,92
366620,set_tempo,,,,,100,1,0,705882,,,,,,
366628,note_off,,,,,64,0,2,,,0,,,50,64
366644,note_on,,,,,16,0,2,,,0,,,50,73
366700,note_off,,,,,56,0,2,,,0,,,50,64
366714,control_change,,,,,14,0,2,,,0,64,0,,
366724,note_off,,,,,0,0,1,,,0,,,70,64
366724,note_on,,,,,0,0,1,,,0,,,72,101
366724,note_on,,,,,0,0,1,,,0,,,65,101
366724,note_on,,,,,0,0,1,,,0,,,41,101
366724,note_off,,,,,120,0,1,,,0,,,46,64
366724,note_off,,,,,0,0,1,,,0,,,65,64
366724,note_on,,,,,0,0,1,,,0,,,60,101
366724,note_off,,,,,0,0,1,,,0,,,58,64
366724,note_on,,,,,10,0,2,,,0,,,51,106
366724,control_change,,,,,0,0,2,,,0,64,127,,
366784,set_tempo,,,,,164,1,0,618557,,,,,,
366800,set_tempo,,,,,16,1,0,600000,,,,,,
366802,note_off,,,,,78,0,2,,,0,,,51,64
366804,note_on,,,,,2,0,2,,,0,,,53,84
366868,note_off,,,,,64,0,2,,,0,,,53,64
366884,note_on,,,,,16,0,2,,,0,,,53,72
366940,note_off,,,,,56,0,2,,,0,,,53,64
366954,control_change,,,,,14,0,2,,,0,64,0,,
366964,note_on,,,,,0,0,2,,,0,,,51,101
366964,note_on,,,,,0,0,1,,,0,,,41,94
366964,note_on,,,,,0,0,1,,,0,,,60,94
366964,note_on,,,,,0,0,1,,,0,,,65,94
366964,note_off,,,,,0,0,1,,,0,,,72,64
366964,note_off,,,,,0,0,1,,,0,,,65,64
366964,note_off,,,,,0,0,1,,,0,,,60,64
366964,note_off,,,,,240,0,1,,,0,,,41,64
366964,note_on,,,,,0,0,1,,,0,,,72,94
366964,control_change,,,,,10,0,2,,,0,64,127,,
366980,set_tempo,,,,,180,1,0,582524,,,,,,
367042,note_off,,,,,78,0,2,,,0,,,51,64
367044,note_on,,,,,2,0,2,,,0,,,53,86
367108,note_off,,,,,64,0,2,,,0,,,53,64
367124,note_on,,,,,16,0,2,,,0,,,53,73
367180,note_off,,,,,56,0,2,,,0,,,53,64
367194,control_change,,,,,14,0,2,,,0,64,0,,
367204,control_change,,,,,0,0,2,,,0,64,127,,
367204,note_on,,,,,10,0,2,,,0,,,51,98
367204,note_off,,,,,0,0,1,,,0,,,65,64
367204,note_off,,,,,240,0,1,,,0,,,41,64
367204,note_off,,,,,0,0,1,,,0,,,60,64
367204,note_off,,,,,0,0,1,,,0,,,72,64
367204,note_on,,,,,0,0,1,,,0,,,41,98
367204,note_on,,,,,0,0,1,,,0,,,60,98
367204,note_on,,,,,0,0,1,,,0,,,65,98
367204,note_on,,,,,0,0,1,,,0,,,72,98
367282,note_off,,,,,78,0,2,,,0,,,51,64
367284,note_on,,,,,2,0,2,,,0,,,53,82
367348,note_off,,,,,64,0,2,,,0,,,53,64
367364,note_on,,,,,16,0,2,,,0,,,53,70
367420,note_off,,,,,56,0,2,,,0,,,53,64
367434,control_change,,,,,14,0,2,,,0,64,0,,
367444,control_change,,,,,0,0,2,,,0,64,127,,
367444,note_on,,,,,10,0,2,,,0,,,50,103
367444,note_on,,,,,0,0,1,,,0,,,65,103
367444,note_off,,,,,240,0,1,,,0,,,41,64
367444,note_off,,,,,0,0,1,,,0,,,60,64
367444,note_off,,,,,0,0,1,,,0,,,65,64
367444,note_on,,,,,0,0,1,,,0,,,41,103
367444,note_on,,,,,0,0,1,,,0,,,58,103
367444,note_on,,,,,0,0,1,,,0,,,70,103
367444,note_off,,,,,0,0,1,,,0,,,72,64
367504,set_tempo,,,,,524,1,0,625000,,,,,,
367522,note_off,,,,,78,0,2,,,0,,,50,64
367524,note_on,,,,,2,0,2,,,0,,,48,83
367524,set_tempo,,,,,20,1,0,631579,,,,,,
367564,note_off,,,,,120,0,1,,,0,,,58,64
367564,note_off,,,,,0,0,1,,,0,,,70,64
367564,note_off,,,,,0,0,1,,,0,,,65,64
367564,note_on,,,,,0,0,1,,,0,,,69,106
367564,note_on,,,,,0,0,1,,,0,,,65,106
367564,note_on,,,,,0,0,1,,,0,,,57,106
367588,note_off,,,,,64,0,2,,,0,,,48,64
367604,note_on,,,,,16,0,2,,,0,,,48,70
367660,note_off,,,,,56,0,2,,,0,,,48,64
367674,control_change,,,,,14,0,2,,,0,64,0,,
367684,note_on,,,,,0,0,1,,,0,,,70,110
367684,note_off,,,,,0,0,1,,,0,,,69,64
367684,note_off,,,,,0,0,1,,,0,,,65,64
367684,note_off,,,,,0,0,1,,,0,,,57,64
367684,note_off,,,,,120,0,1,,,0,,,41,64
367684,control_change,,,,,0,0,2,,,0,64,127,,
367684,note_on,,,,,0,0,1,,,0,,,58,110
367684,note_on,,,,,0,0,1,,,0,,,46,110
367684,note_on,,,,,10,0,2,,,0,,,50,106
367684,note_on,,,,,0,0,1,,,0,,,65,110
367684,set_tempo,,,,,160,1,0,566038,,,,,,
367700,set_tempo,,,,,16,1,0,576923,,,,,,
367762,note_off,,,,,78,0,2,,,0,,,50,64
367764,note_on,,,,,2,0,2,,,0,,,53,84
367828,note_off,,,,,64,0,2,,,0,,,53,64
367844,note_on,,,,,16,0,2,,,0,,,53,72
367880,set_tempo,,,,,180,1,0,606061,,,,,,
367900,note_off,,,,,56,0,2,,,0,,,53,64
367914,control_change,,,,,14,0,2,,,0,64,0,,
367924,note_on,,,,,0,0,1,,,0,,,63,89
367924,note_on,,,,,0,0,1,,,0,,,67,89
367924,note_off,,,,,240,0,1,,,0,,,65,64
367924,note_on,,,,,10,0,2,,,0,,,51,89
368002,note_off,,,,,78,0,2,,,0,,,51,64
368004,note_on,,,,,2,0,2,,,0,,,55,81
368040,set_tempo,,,,,160,1,0,652174,,,,,,
368060,set_tempo,,,,,20,1,0,659341,,,,,,
368068,note_off,,,,,64,0,2,,,0,,,55,64
368084,note_on,,,,,16,0,2,,,0,,,55,69
368140,note_off,,,,,56,0,2,,,0,,,55,64
368140,set_tempo,,,,,80,1,0,689655,,,,,,
368160,set_tempo,,,,,20,1,0,705882,,,,,,
368164,note_on,,,,,0,0,1,,,0,,,65,75
368164,note_on,,,,,0,0,1,,,0,,,62,75
368164,note_off,,,,,0,0,1,,,0,,,67,64
368164,note_off,,,,,240,0,1,,,0,,,63,64
368164,note_on,,,,,24,0,2,,,0,,,50,82
368242,note_off,,,,,78,0,2,,,0,,,50,64
368244,note_on,,,,,2,0,2,,,0,,,53,79
368280,set_tempo,,,,,120,1,0,740741,,,,,,
368308,note_off,,,,,64,0,2,,,0,,,53,64
368324,note_on,,,,,16,0,2,,,0,,,53,67
368324,set_tempo,,,,,44,1,0,750000,,,,,,
368344,set_tempo,,,,,20,1,0,779221,,,,,,
368380,note_off,,,,,56,0,2,,,0,,,53,64
368404,note_off,,,,,0,0,1,,,0,,,58,64
368404,note_on,,,,,0,0,1,,,0,,,44,109
368404,note_on,,,,,0,0,1,,,0,,,62,101
368404,note_on,,,,,0,0,1,,,0,,,74,101
368404,note_off,,,,,240,0,1,,,0,,,62,64
368404,note_off,,,,,0,0,1,,,0,,,65,64
368404,note_off,,,,,0,0,1,,,0,,,46,64
368404,note_off,,,,,0,0,1,,,0,,,70,64
368404,note_on,,,,,0,0,1,,,0,,,65,101
368404,note_on,,,,,0,0,2,,,0,,,50,91
368404,control_change,,,,,24,0,2,,,0,64,127,,
368404,set_tempo,,,,,60,1,0,566038,,,,,,
368482,note_off,,,,,78,0,2,,,0,,,50,64
368484,note_on,,,,,2,0,2,,,0,,,53,83
368548,note_off,,,,,64,0,2,,,0,,,53,64
368564,note_on,,,,,16,0,2,,,0,,,53,70
368564,set_tempo,,,,,160,1,0,750000,,,,,,
368620,note_off,,,,,56,0,2,,,0,,,53,64
368634,control_change,,,,,0,0,2,,,0,64,0,,
368634,control_change,,,,,14,0,2,,,0,64,0,,
368644,note_on,,,,,0,0,2,,,0,,,53,106
368644,control_change,,,,,10,0,2,,,0,64,127,,
368644,note_off,,,,,0,0,1,,,0,,,62,64
368644,note_on,,,,,0,0,1,,,0,,,53,104
368644,note_on,,,,,0,0,1,,,0,,,62,104
368644,note_on,,,,,0,0,1,,,0,,,67,104
368644,note_on,,,,,0,0,1,,,0,,,74,104
368644,note_off,,,,,0,0,1,,,0,,,74,64
368644,note_off,,,,,0,0,1,,,0,,,65,64
368644,note_off,,,,,240,0,1,,,0,,,44,64
368644,note_on,,,,,0,0,1,,,0,,,43,104
368644,set_tempo,,,,,80,1,0,618557,,,,,,
368722,note_off,,,,,78,0,2,,,0,,,53,64
368724,note_on,,,,,2,0,2,,,0,,,55,84
368788,note_off,,,,,64,0,2,,,0,,,55,64
368804,note_on,,,,,16,0,2,,,0,,,55,72
368860,note_off,,,,,56,0,2,,,0,,,55,64
368864,set_tempo,,,,,220,1,0,571429,,,,,,
368884,note_on,,,,,24,0,2,,,0,,,53,85
368962,note_off,,,,,78,0,2,,,0,,,53,64
368964,note_on,,,,,2,0,2,,,0,,,55,77
369028,note_off,,,,,64,0,2,,,0,,,55,64
369044,note_on,,,,,16,0,2,,,0,,,55,65
369100,note_off,,,,,56,0,2,,,0,,,55,64
369124,note_on,,,,,24,0,2,,,0,,,53,75
369202,note_off,,,,,78,0,2,,,0,,,53,64
369204,note_on,,,,,2,0,2,,,0,,,55,78
369268,note_off,,,,,64,0,2,,,0,,,55,64
369284,note_on,,,,,16,0,2,,,0,,,55,66
369320,set_tempo,,,,,456,1,0,566038,,,,,,
369340,note_off,,,,,56,0,2,,,0,,,55,64
369354,control_change,,,,,0,0,2,,,0,64,0,,
369354,control_change,,,,,14,0,2,,,0,64,0,,
369364,note_off,,,,,0,0,1,,,0,,,53,64
369364,note_off,,,,,0,0,1,,,0,,,62,64
369364,note_off,,,,,0,0,1,,,0,,,67,64
369364,note_on,,,,,0,0,1,,,0,,,60,86
369364,note_on,,,,,0,0,1,,,0,,,67,86
369364,control_change,,,,,0,0,2,,,0,64,127,,
369364,note_on,,,,,0,0,1,,,0,,,43,86
369364,note_on,,,,,10,0,2,,,0,,,51,80
369364,note_on,,,,,0,0,1,,,0,,,72,86
369364,note_off,,,,,0,0,1,,,0,,,74,64
369364,note_off,,,,,720,0,1,,,0,,,43,64
369442,note_off,,,,,78,0,2,,,0,,,51,64
369444,note_on,,,,,2,0,2,,,0,,,53,81
369484,note_on,,,,,0,0,1,,,0,,,59,94
369484,note_on,,,,,0,0,1,,,0,,,67,94
369484,note_on,,,,,0,0,1,,,0,,,71,94
369484,note_off,,,,,0,0,1,,,0,,,72,64
369484,note_off,,,,,0,0,1,,,0,,,67,64
369484,note_off,,,,,0,0,1,,,0,,,60,64
369484,note_off,,,,,120,0,1,,,0,,,43,64
369484,note_on,,,,,0,0,1,,,0,,,43,94
369508,note_off,,,,,64,0,2,,,0,,,53,64
369524,note_on,,,,,16,0,2,,,0,,,50,69
369560,set_tempo,,,,,240,1,0,600000,,,,,,
369564,control_change,,,,,40,0,2,,,0,64,0,,
369580,note_off,,,,,16,0,2,,,0,,,50,64
369594,control_change,,,,,14,0,2,,,0,64,0,,
369604,note_on,,,,,0,0,1,,,0,,,75,97
369604,control_change,,,,,10,0,2,,,0,64,127,,
369604,note_on,,,,,0,0,2,,,0,,,48,91
369604,note_off,,,,,120,0,1,,,0,,,43,64
369604,note_off,,,,,0,0,1,,,0,,,59,64
369604,note_off,,,,,0,0,1,,,0,,,67,64
369604,note_off,,,,,0,0,1,,,0,,,71,64
369604,note_on,,,,,0,0,1,,,0,,,72,97
369604,note_on,,,,,0,0,1,,,0,,,63,97
369604,note_on,,,,,0,0,1,,,0,,,43,97
369682,note_off,,,,,78,0,2,,,0,,,48,64
369684,note_on,,,,,2,0,2,,,0,,,55,86
369740,set_tempo,,,,,180,1,0,588235,,,,,,
369748,note_off,,,,,64,0,2,,,0,,,55,64
369760,set_tempo,,,,,20,1,0,582524,,,,,,
369764,note_on,,,,,16,0,2,,,0,,,55,73
369820,note_off,,,,,56,0,2,,,0,,,55,64
369834,control_change,,,,,0,0,2,,,0,64,0,,
369834,control_change,,,,,14,0,2,,,0,64,0,,
369844,control_change,,,,,0,0,2,,,0,64,127,,
369844,note_on,,,,,10,0,2,,,0,,,53,91
369844,note_off,,,,,0,0,1,,,0,,,63,64
369844,note_on,,,,,0,0,1,,,0,,,43,91
369844,note_on,,,,,0,0,1,,,0,,,62,91
369844,note_on,,,,,0,0,1,,,0,,,67,91
369844,note_on,,,,,0,0,1,,,0,,,74,91
369844,note_off,,,,,0,0,1,,,0,,,75,64
369844,note_off,,,,,0,0,1,,,0,,,72,64
369844,note_off,,,,,240,0,1,,,0,,,43,64
369880,set_tempo,,,,,120,1,0,588235,,,,,,
369900,set_tempo,,,,,20,1,0,618557,,,,,,
369922,note_off,,,,,78,0,2,,,0,,,53,64
369924,note_on,,,,,2,0,2,,,0,,,55,83
369988,note_off,,,,,64,0,2,,,0,,,55,64
370004,note_on,,,,,16,0,2,,,0,,,55,71
370060,set_tempo,,,,,160,1,0,652174,,,,,,
370060,note_off,,,,,56,0,2,,,0,,,55,64
370074,control_change,,,,,14,0,2,,,0,64,0,,
370074,control_change,,,,,0,0,2,,,0,64,0,,
370084,control_change,,,,,10,0,2,,,0,64,127,,
370084,note_on,,,,,0,0,2,,,0,,,51,86
370084,note_off,,,,,240,0,1,,,0,,,43,64
370084,note_off,,,,,0,0,1,,,0,,,62,64
370084,note_on,,,,,0,0,1,,,0,,,43,83
370084,note_on,,,,,0,0,1,,,0,,,67,83
370084,note_on,,,,,0,0,1,,,0,,,72,83
370084,note_on,,,,,0,0,1,,,0,,,60,83
370084,note_off,,,,,0,0,1,,,0,,,67,64
370084,note_off,,,,,0,0,1,,,0,,,74,64
370162,note_off,,,,,78,0,2,,,0,,,51,64
370164,note_on,,,,,2,0,2,,,0,,,55,81
370224,set_tempo,,,,,164,1,0,659341,,,,,,
370228,note_off,,,,,64,0,2,,,0,,,55,64
370244,note_on,,,,,16,0,2,,,0,,,55,69
370244,set_tempo,,,,,20,1,0,645161,,,,,,
370264,set_tempo,,,,,20,1,0,789474,,,,,,
370300,note_off,,,,,56,0,2,,,0,,,55,64
370314,control_change,,,,,14,0,2,,,0,64,0,,
370314,control_change,,,,,0,0,2,,,0,64,0,,
370324,note_off,,,,,240,0,1,,,0,,,43,64
370324,control_change,,,,,10,0,2,,,0,64,127,,
370324,note_on,,,,,0,0,2,,,0,,,51,85
370324,note_off,,,,,0,0,1,,,0,,,60,64
370324,note_off,,,,,0,0,1,,,0,,,72,64
370324,note_on,,,,,0,0,1,,,0,,,72,88
370324,note_on,,,,,0,0,1,,,0,,,42,88
370324,note_on,,,,,0,0,1,,,0,,,69,88
370324,note_off,,,,,0,0,1,,,0,,,67,64
370324,note_on,,,,,0,0,1,,,0,,,60,88
370364,set_tempo,,,,,100,1,0,588235,,,,,,
370402,note_off,,,,,78,0,2,,,0,,,51,64
370404,note_on,,,,,2,0,2,,,0,,,54,81
370404,set_tempo,,,,,40,1,0,582524,,,,,,
370468,note_off,,,,,64,0,2,,,0,,,54,64
370484,note_on,,,,,16,0,2,,,0,,,54,69
370504,set_tempo,,,,,100,1,0,588235,,,,,,
370524,set_tempo,,,,,20,1,0,779221,,,,,,
370540,note_off,,,,,56,0,2,,,0,,,54,64
370554,control_change,,,,,14,0,2,,,0,64,0,,
370554,control_change,,,,,0,0,2,,,0,64,0,,
370564,note_off,,,,,240,0,1,,,0,,,42,64
370564,note_off,,,,,0,0,1,,,0,,,69,64
370564,control_change,,,,,10,0,2,,,0,64,127,,
370564,note_on,,,,,0,0,2,,,0,,,51,92
370564,note_off,,,,,0,0,1,,,0,,,60,64
370564,note_off,,,,,0,0,1,,,0,,,72,64
370564,note_on,,,,,0,0,1,,,0,,,51,94
370564,note_on,,,,,0,0,1,,,0,,,72,94
370564,note_on,,,,,0,0,1,,,0,,,65,94
370564,note_on,,,,,0,0,1,,,0,,,60,94
370564,note_on,,,,,0,0,1,,,0,,,41,94
370624,set_tempo,,,,,100,1,0,631579,,,,,,
370642,note_off,,,,,78,0,2,,,0,,,51,64
370644,note_on,,,,,2,0,2,,,0,,,53,85
370708,note_off,,,,,64,0,2,,,0,,,53,64
370724,note_on,,,,,16,0,2,,,0,,,53,73
370780,note_off,,,,,56,0,2,,,0,,,53,64
370804,note_on,,,,,24,0,2,,,0,,,51,85
370840,set_tempo,,,,,216,1,0,612245,,,,,,
370882,note_off,,,,,78,0,2,,,0,,,51,64
370884,note_on,,,,,2,0,2,,,0,,,53,80
370948,note_off,,,,,64,0,2,,,0,,,53,64
370964,note_on,,,,,16,0,2,,,0,,,53,68
371020,note_off,,,,,56,0,2,,,0,,,53,64
371044,note_on,,,,,24,0,2,,,0,,,51,82
371060,set_tempo,,,,,220,1,0,582524,,,,,,
371122,note_off,,,,,78,0,2,,,0,,,51,64
371124,note_on,,,,,2,0,2,,,0,,,53,80
371188,note_off,,,,,64,0,2,,,0,,,53,64
371204,note_on,,,,,16,0,2,,,0,,,53,68
371260,note_off,,,,,56,0,2,,,0,,,53,64
371274,control_change,,,,,14,0,2,,,0,64,0,,
371284,note_on,,,,,10,0,2,,,0,,,50,85
371284,control_change,,,,,0,0,2,,,0,64,127,,
371284,note_off,,,,,0,0,1,,,0,,,72,64
371284,note_off,,,,,0,0,1,,,0,,,51,64
371284,note_off,,,,,0,0,1,,,0,,,60,64
371284,note_off,,,,,0,0,1,,,0,,,65,64
371284,note_on,,,,,0,0,1,,,0,,,70,80
371284,note_on,,,,,0,0,1,,,0,,,65,80
371284,note_on,,,,,0,0,1,,,0,,,58,80
371284,note_on,,,,,0,0,1,,,0,,,41,80
371284,note_off,,,,,720,0,1,,,0,,,41,64
371362,note_off,,,,,78,0,2,,,0,,,50,64
371364,note_on,,,,,2,0,2,,,0,,,51,82
371404,note_on,,,,,0,0,1,,,0,,,57,86
371404,note_off,,,,,0,0,1,,,0,,,65,64
371404,note_on,,,,,0,0,1,,,0,,,41,86
371404,note_on,,,,,0,0,1,,,0,,,69,86
371404,note_off,,,,,0,0,1,,,0,,,70,64
371404,note_off,,,,,0,0,1,,,0,,,58,64
371404,note_off,,,,,120,0,1,,,0,,,41,64
371404,note_on,,,,,0,0,1,,,0,,,65,86
371428,note_off,,,,,64,0,2,,,0,,,51,64
371444,note_on,,,,,16,0,2,,,0,,,48,70
371500,note_off,,,,,56,0,2,,,0,,,48,64
371514,control_change,,,,,14,0,2,,,0,64,0,,
371524,note_on,,,,,0,0,1,,,0,,,62,94
371524,note_off,,,,,120,0,1,,,0,,,41,64
371524,control_change,,,,,0,0,2,,,0,64,127,,
371524,note_on,,,,,10,0,2,,,0,,,46,88
371524,note_on,,,,,0,0,1,,,0,,,41,94
371524,note_off,,,,,0,0,1,,,0,,,57,64
371524,note_on,,,,,0,0,1,,,0,,,70,94
371524,note_on,,,,,0,0,1,,,0,,,74,94
371524,note_off,,,,,0,0,1,,,0,,,69,64
371524,note_off,,,,,0,0,1,,,0,,,65,64
371602,note_off,,,,,78,0,2,,,0,,,46,64
371604,note_on,,,,,2,0,2,,,0,,,53,81
371668,note_off,,,,,64,0,2,,,0,,,53,64
371684,note_on,,,,,16,0,2,,,0,,,53,68
371740,note_off,,,,,56,0,2,,,0,,,53,64
371754,control_change,,,,,14,0,2,,,0,64,0,,
371764,note_on,,,,,0,0,1,,,0,,,57,83
371764,control_change,,,,,0,0,2,,,0,64,127,,
371764,note_off,,,,,240,0,1,,,0,,,41,64
371764,note_off,,,,,0,0,1,,,0,,,62,64
371764,note_off,,,,,0,0,1,,,0,,,70,64
371764,note_off,,,,,0,0,1,,,0,,,74,64
371764,note_on,,,,,10,0,2,,,0,,,48,82
371764,note_on,,,,,0,0,1,,,0,,,65,83
371764,note_on,,,,,0,0,1,,,0,,,41,83
371764,note_on,,,,,0,0,1,,,0,,,69,83
371842,note_off,,,,,78,0,2,,,0,,,48,64
371844,note_on,,,,,2,0,2,,,0,,,53,80
371908,note_off,,,,,64,0,2,,,0,,,53,64
371924,note_on,,,,,16,0,2,,,0,,,53,68
371980,note_off,,,,,56,0,2,,,0,,,53,64
371994,control_change,,,,,14,0,2,,,0,64,0,,
372004,note_off,,,,,0,0,1,,,0,,,57,64
372004,note_off,,,,,0,0,1,,,0,,,65,64
372004,note_on,,,,,0,0,1,,,0,,,41,92
372004,note_on,,,,,0,0,1,,,0,,,58,92
372004,note_on,,,,,0,0,1,,,0,,,65,92
372004,note_on,,,,,0,0,1,,,0,,,70,92
372004,note_off,,,,,240,0,1,,,0,,,41,64
372004,note_off,,,,,0,0,1,,,0,,,69,64
372004,control_change,,,,,0,0,2,,,0,64,127,,
372004,note_on,,,,,10,0,2,,,0,,,50,82
372082,note_off,,,,,78,0,2,,,0,,,50,64
372084,note_on,,,,,2,0,2,,,0,,,53,81
372148,note_off,,,,,64,0,2,,,0,,,53,64
372164,note_on,,,,,16,0,2,,,0,,,53,68
372220,note_off,,,,,56,0,2,,,0,,,53,64
372234,control_change,,,,,14,0,2,,,0,64,0,,
372244,note_on,,,,,0,0,1,,,0,,,65,101
372244,note_on,,,,,0,0,1,,,0,,,69,101
372244,note_on,,,,,0,0,1,,,0,,,72,101
372244,note_off,,,,,0,0,1,,,0,,,70,64
372244,note_off,,,,,0,0,1,,,0,,,65,64
372244,note_off,,,,,0,0,1,,,0,,,58,64
372244,note_on,,,,,0,0,1,,,0,,,41,109
372244,note_on,,,,,0,0,1,,,0,,,60,101
372244,control_change,,,,,0,0,2,,,0,64,127,,
372244,note_on,,,,,10,0,2,,,0,,,51,88
372244,note_off,,,,,240,0,1,,,0,,,41,64
372322,note_off,,,,,78,0,2,,,0,,,51,64
372324,note_on,,,,,2,0,2,,,0,,,53,84
372388,note_off,,,,,64,0,2,,,0,,,53,64
372404,note_on,,,,,16,0,2,,,0,,,53,72
372424,set_tempo,,,,,1364,1,0,631579,,,,,,
372460,note_off,,,,,56,0,2,,,0,,,53,64
372474,control_change,,,,,14,0,2,,,0,64,0,,
372484,note_off,,,,,0,0,1,,,0,,,60,64
372484,note_off,,,,,0,0,1,,,0,,,65,64
372484,note_off,,,,,0,0,1,,,0,,,69,64
372484,note_on,,,,,0,0,1,,,0,,,41,107
372484,note_on,,,,,0,0,1,,,0,,,60,107
372484,note_on,,,,,0,0,1,,,0,,,65,107
372484,note_on,,,,,0,0,1,,,0,,,51,107
372484,note_off,,,,,240,0,1,,,0,,,41,64
372484,note_off,,,,,0,0,1,,,0,,,72,64
372484,note_on,,,,,0,0,1,,,0,,,72,107
372484,control_change,,,,,10,0,2,,,0,64,127,,
372484,control_change,,,,,0,0,2,,,0,91,96,,
372484,control_change,,,,,0,0,2,,,0,64,127,,
372484,note_on,,,,,0,0,1,,,0,,,69,107
372484,note_on,,,,,0,0,2,,,0,,,51,88
372562,note_off,,,,,78,0,2,,,0,,,51,64
372564,set_tempo,,,,,140,1,0,606061,,,,,,
372564,note_on,,,,,2,0,2,,,0,,,53,84
372628,note_off,,,,,64,0,2,,,0,,,53,64
372644,note_on,,,,,16,0,2,,,0,,,53,72
372700,note_off,,,,,56,0,2,,,0,,,53,64
372724,note_on,,,,,24,0,2,,,0,,,53,68
372764,set_tempo,,,,,200,1,0,576923,,,,,,
372802,note_off,,,,,78,0,2,,,0,,,53,64
372804,note_on,,,,,2,0,2,,,0,,,53,62
372868,note_off,,,,,64,0,2,,,0,,,53,64
372884,note_on,,,,,16,0,2,,,0,,,53,54
372940,note_off,,,,,56,0,2,,,0,,,53,64
372964,note_on,,,,,24,0,2,,,0,,,53,54
373042,note_off,,,,,78,0,2,,,0,,,53,64
373044,note_on,,,,,2,0,2,,,0,,,53,54
373108,note_off,,,,,64,0,2,,,0,,,53,64
373124,note_on,,,,,16,0,2,,,0,,,53,55
373160,set_tempo,,,,,396,1,0,600000,,,,,,
373180,note_off,,,,,56,0,2,,,0,,,53,64
373204,note_on,,,,,24,0,2,,,0,,,53,60
373282,note_off,,,,,78,0,2,,,0,,,53,64
373284,note_on,,,,,2,0,2,,,0,,,53,64
373340,set_tempo,,,,,180,1,0,631579,,,,,,
373348,note_off,,,,,64,0,2,,,0,,,53,64
373364,note_on,,,,,16,0,2,,,0,,,53,67
373400,set_tempo,,,,,60,1,0,645161,,,,,,
373404,set_tempo,,,,,4,1,0,681818,,,,,,
373420,note_off,,,,,56,0,2,,,0,,,53,64
373424,set_tempo,,,,,20,1,0,689655,,,,,,
373434,control_change,,,,,14,0,2,,,0,64,0,,
373444,note_off,,,,,960,0,1,,,0,,,41,64
373444,note_on,,,,,0,0,1,,,0,,,50,68
373444,note_off,,,,,0,0,1,,,0,,,60,64
373444,note_off,,,,,0,0,1,,,0,,,69,64
373444,note_off,,,,,0,0,1,,,0,,,72,64
373444,note_on,,,,,0,0,1,,,0,,,71,68
373444,note_on,,,,,0,0,1,,,0,,,68,68
373444,note_on,,,,,0,0,1,,,0,,,59,68
373444,note_on,,,,,0,0,1,,,0,,,41,68
373444,note_off,,,,,0,0,1,,,0,,,51,64
373444,control_change,,,,,10,0,2,,,0,64,127,,
373444,note_on,,,,,0,0,2,,,0,,,50,68
373464,set_tempo,,,,,40,1,0,789474,,,,,,
373520,set_tempo,,,,,56,1,0,769231,,,,,,
373522,note_off,,,,,78,0,2,,,0,,,50,64
373524,note_on,,,,,2,0,2,,,0,,,53,58
373540,set_tempo,,,,,20,1,0,750000,,,,,,
373580,set_tempo,,,,,40,1,0,714286,,,,,,
373604,note_off,,,,,80,0,2,,,0,,,53,64
373604,note_on,,,,,0,0,2,,,0,,,53,51
373680,set_tempo,,,,,100,1,0,674157,,,,,,
373684,note_off,,,,,80,0,2,,,0,,,53,64
373684,note_on,,,,,0,0,2,,,0,,,53,47
373760,set_tempo,,,,,80,1,0,645161,,,,,,
373764,note_off,,,,,80,0,2,,,0,,,53,64
373764,note_on,,,,,0,0,2,,,0,,,53,44
373844,note_on,,,,,0,0,2,,,0,,,53,42
373844,note_off,,,,,80,0,2,,,0,,,53,64
373860,set_tempo,,,,,100,1,0,625000,,,,,,
373924,note_on,,,,,0,0,2,,,0,,,53,43
373924,note_off,,,,,80,0,2,,,0,,,53,64
374004,set_tempo,,,,,144,1,0,618557,,,,,,
374004,note_on,,,,,0,0,2,,,0,,,53,49
374004,note_off,,,,,80,0,2,,,0,,,53,64
374084,note_off,,,,,80,0,2,,,0,,,53,64
374084,note_on,,,,,0,0,2,,,0,,,53,58
374154,control_change,,,,,70,0,2,,,0,64,0,,
374164,note_on,,,,,0,0,1,,,0,,,71,88
374164,note_off,,,,,720,0,1,,,0,,,59,64
374164,note_off,,,,,0,0,1,,,0,,,68,64
374164,note_off,,,,,0,0,1,,,0,,,71,64
374164,note_off,,,,,0,0,1,,,0,,,65,64
374164,note_on,,,,,0,0,1,,,0,,,68,88
374164,note_on,,,,,0,0,1,,,0,,,62,88
374164,note_on,,,,,0,0,2,,,0,,,53,69
374164,control_change,,,,,0,0,2,,,0,64,127,,
374164,note_on,,,,,0,0,1,,,0,,,65,88
374164,note_off,,,,,10,0,2,,,0,,,53,64
374184,set_tempo,,,,,180,1,0,631579,,,,,,
374244,note_off,,,,,80,0,2,,,0,,,53,64
374244,note_on,,,,,0,0,2,,,0,,,53,76
374324,note_on,,,,,0,0,2,,,0,,,53,83
374324,note_off,,,,,80,0,2,,,0,,,53,64
374344,set_tempo,,,,,160,1,0,857143,,,,,,
374394,control_change,,,,,70,0,2,,,0,64,0,,
374404,control_change,,,,,0,0,2,,,0,64,127,,
374404,note_on,,,,,0,0,2,,,0,,,53,92
374404,note_off,,,,,10,0,2,,,0,,,53,64
374404,note_off,,,,,0,0,1,,,0,,,65,64
374404,note_off,,,,,0,0,1,,,0,,,68,64
374404,note_off,,,,,0,0,1,,,0,,,50,64
374404,note_off,,,,,0,0,1,,,0,,,62,64
374404,note_on,,,,,0,0,1,,,0,,,65,77
374404,note_on,,,,,0,0,1,,,0,,,68,77
374404,note_on,,,,,0,0,1,,,0,,,62,77
374404,note_on,,,,,0,0,1,,,0,,,71,77
374404,note_off,,,,,0,0,1,,,0,,,71,64
374404,note_off,,,,,240,0,1,,,0,,,41,64
374444,set_tempo,,,,,100,1,0,869565,,,,,,
374484,note_off,,,,,80,0,2,,,0,,,53,64
374484,note_on,,,,,0,0,2,,,0,,,44,76
374504,set_tempo,,,,,60,1,0,666667,,,,,,
374564,note_off,,,,,80,0,2,,,0,,,44,64
374564,note_on,,,,,0,0,2,,,0,,,44,64
374604,set_tempo,,,,,100,1,0,674157,,,,,,
374644,note_on,,,,,0,0,2,,,0,,,44,62
374644,note_off,,,,,80,0,2,,,0,,,44,64
374724,note_on,,,,,0,0,2,,,0,,,44,51
374724,note_off,,,,,80,0,2,,,0,,,44,64
374744,set_tempo,,,,,140,1,0,659341,,,,,,
374804,note_on,,,,,0,0,2,,,0,,,44,51
374804,note_off,,,,,80,0,2,,,0,,,44,64
374884,note_on,,,,,0,0,2,,,0,,,44,53
374884,note_off,,,,,80,0,2,,,0,,,44,64
374960,set_tempo,,,,,216,1,0,705882,,,,,,
374964,note_off,,,,,80,0,2,,,0,,,44,64
374964,note_on,,,,,0,0,2,,,0,,,44,54
375020,set_tempo,,,,,60,1,0,714286,,,,,,
375044,note_on,,,,,0,0,2,,,0,,,44,59
375044,note_off,,,,,80,0,2,,,0,,,44,64
375114,control_change,,,,,70,0,2,,,0,64,0,,
375124,note_on,,,,,0,0,2,,,0,,,44,64
375124,note_on,,,,,0,0,1,,,0,,,65,86
375124,note_off,,,,,720,0,1,,,0,,,62,64
375124,control_change,,,,,0,0,2,,,0,64,127,,
375124,note_off,,,,,10,0,2,,,0,,,44,64
375124,note_on,,,,,0,0,1,,,0,,,68,86
375124,note_off,,,,,0,0,1,,,0,,,65,64
375124,note_off,,,,,0,0,1,,,0,,,68,64
375124,note_off,,,,,0,0,1,,,0,,,71,64
375124,note_on,,,,,0,0,1,,,0,,,74,86
375124,note_on,,,,,0,0,1,,,0,,,71,86
375160,set_tempo,,,,,140,1,0,740741,,,,,,
375204,note_off,,,,,80,0,2,,,0,,,44,64
375204,note_on,,,,,0,0,2,,,0,,,44,68
375284,note_on,,,,,0,0,2,,,0,,,44,79
375284,note_off,,,,,80,0,2,,,0,,,44,64
375324,set_tempo,,,,,164,1,0,1111111,,,,,,
375360,control_change,,,,,76,0,2,,,0,64,0,,
375364,note_on,,,,,0,0,2,,,0,,,44,106
375364,note_off,,,,,0,0,1,,,0,,,68,64
375364,note_off,,,,,0,0,1,,,0,,,71,64
375364,note_on,,,,,0,0,1,,,0,,,66,114
375364,note_on,,,,,0,0,1,,,0,,,71,114
375364,note_on,,,,,0,0,1,,,0,,,74,114
375364,note_off,,,,,0,0,1,,,0,,,74,64
375364,note_off,,,,,4,0,2,,,0,,,44,64
375364,note_off,,,,,240,0,1,,,0,,,65,64
375444,note_on,,,,,0,0,2,,,0,,,42,72
375444,note_off,,,,,80,0,2,,,0,,,44,64
375444,set_tempo,,,,,120,1,0,789474,,,,,,
375464,set_tempo,,,,,20,1,0,689655,,,,,,
375484,set_tempo,,,,,20,1,0,681818,,,,,,
375500,set_tempo,,,,,16,1,0,659341,,,,,,
375524,note_off,,,,,80,0,2,,,0,,,42,64
375524,note_on,,,,,0,0,2,,,0,,,42,58
375600,set_tempo,,,,,100,1,0,652174,,,,,,
375604,note_off,,,,,80,0,2,,,0,,,42,64
375604,note_on,,,,,0,0,2,,,0,,,42,51
375684,note_off,,,,,80,0,2,,,0,,,42,64
375684,note_on,,,,,0,0,2,,,0,,,42,50
375700,set_tempo,,,,,100,1,0,631579,,,,,,
375764,note_off,,,,,80,0,2,,,0,,,42,64
375764,note_on,,,,,0,0,2,,,0,,,42,53
375804,set_tempo,,,,,104,1,0,625000,,,,,,
375820,set_tempo,,,,,16,1,0,789474,,,,,,
375840,control_change,,,,,76,0,2,,,0,64,127,,
375844,note_on,,,,,0,0,1,,,0,,,70,81
375844,note_on,,,,,0,0,1,,,0,,,73,81
375844,note_off,,,,,0,0,1,,,0,,,74,64
375844,note_off,,,,,480,0,1,,,0,,,71,64
375844,note_on,,,,,0,0,2,,,0,,,42,56
375844,note_off,,,,,4,0,2,,,0,,,42,64
375920,set_tempo,,,,,100,1,0,714286,,,,,,
375924,note_off,,,,,80,0,2,,,0,,,42,64
375924,note_on,,,,,0,0,2,,,0,,,42,71
375964,note_off,,,,,0,0,1,,,0,,,66,64
375964,note_off,,,,,0,0,1,,,0,,,73,64
375964,note_off,,,,,120,0,1,,,0,,,70,64
375980,set_tempo,,,,,60,1,0,645161,,,,,,
376004,note_off,,,,,80,0,2,,,0,,,42,64
376004,note_on,,,,,0,0,2,,,0,,,42,94
376020,set_tempo,,,,,40,1,0,652174,,,,,,
376044,set_tempo,,,,,24,1,0,659341,,,,,,
376064,set_tempo,,,,,20,1,0,645161,,,,,,
376074,control_change,,,,,70,0,2,,,0,64,0,,
376084,note_on,,,,,0,0,1,,,0,,,76,118
376084,note_off,,,,,10,0,2,,,0,,,42,64
376084,note_on,,,,,0,0,2,,,0,,,42,98
376084,note_on,,,,,0,0,1,,,0,,,78,118
376084,note_on,,,,,0,0,1,,,0,,,73,118
376084,note_on,,,,,120,0,1,,,0,,,82,118
376104,set_tempo,,,,,40,1,0,631579,,,,,,
376120,set_tempo,,,,,16,1,0,857143,,,,,,
376204,note_off,,,,,120,0,1,,,0,,,73,64
376204,note_off,,,,,0,0,1,,,0,,,76,64
376204,note_off,,,,,0,0,1,,,0,,,78,64
376204,note_off,,,,,0,0,1,,,0,,,82,64
376220,set_tempo,,,,,100,1,0,952381,,,,,,
376240,set_tempo,,,,,20,1,0,967742,,,,,,
376260,note_on,,,,,176,0,2,,,0,,,40,108
376264,note_off,,,,,4,0,2,,,0,,,42,64
376270,note_off,,,,,6,0,2,,,0,,,40,64
376280,note_on,,,,,10,0,2,,,0,,,38,113
376284,set_tempo,,,,,44,1,0,952381,,,,,,
376290,note_off,,,,,10,0,2,,,0,,,38,64
376300,note_on,,,,,10,0,2,,,0,,,37,117
376304,set_tempo,,,,,20,1,0,967742,,,,,,
376310,note_off,,,,,10,0,2,,,0,,,37,64
376324,note_on,,,,,0,0,2,,,0,,,35,124
376324,control_change,,,,,14,0,2,,,0,64,127,,
376324,note_on,,,,,120,0,1,,,0,,,83,124
376324,note_on,,,,,0,0,1,,,0,,,78,124
376324,note_on,,,,,0,0,1,,,0,,,74,124
376340,set_tempo,,,,,36,1,0,779221,,,,,,
376404,note_off,,,,,80,0,1,,,0,,,74,64
376404,note_off,,,,,0,0,1,,,0,,,83,64
376404,note_on,,,,,0,0,1,,,0,,,78,77
376404,note_on,,,,,0,0,1,,,0,,,74,77
376404,note_off,,,,,0,0,1,,,0,,,78,64
376420,set_tempo,,,,,80,1,0,722892,,,,,,
376440,set_tempo,,,,,20,1,0,714286,,,,,,
376444,note_off,,,,,120,0,2,,,0,,,35,64
376484,note_on,,,,,0,0,1,,,0,,,74,64
376484,note_on,,,,,0,0,1,,,0,,,78,64
376484,note_off,,,,,0,0,1,,,0,,,78,64
376484,note_off,,,,,80,0,1,,,0,,,74,64
376520,set_tempo,,,,,80,1,0,645161,,,,,,
376564,note_off,,,,,80,0,1,,,0,,,74,64
376564,note_off,,,,,0,0,1,,,0,,,78,64
376564,note_on,,,,,0,0,1,,,0,,,78,54
376564,note_on,,,,,0,0,1,,,0,,,74,54
376600,set_tempo,,,,,80,1,0,631579,,,,,,
376620,set_tempo,,,,,20,1,0,612245,,,,,,
376644,note_off,,,,,80,0,1,,,0,,,74,64
376644,note_on,,,,,0,0,1,,,0,,,78,46
376644,note_on,,,,,0,0,1,,,0,,,74,46
376644,note_off,,,,,0,0,1,,,0,,,78,64
376724,note_on,,,,,0,0,1,,,0,,,74,40
376724,note_on,,,,,0,0,1,,,0,,,78,40
376724,note_off,,,,,0,0,1,,,0,,,78,64
376724,note_off,,,,,80,0,1,,,0,,,74,64
376780,set_tempo,,,,,160,1,0,550459,,,,,,
376804,note_off,,,,,0,0,1,,,0,,,78,64
376804,note_off,,,,,80,0,1,,,0,,,74,64
376804,note_on,,,,,0,0,1,,,0,,,74,39
376804,note_on,,,,,0,0,1,,,0,,,78,39
376884,note_off,,,,,80,0,1,,,0,,,74,64
376884,note_off,,,,,0,0,1,,,0,,,78,64
376884,note_on,,,,,0,0,1,,,0,,,78,36
376884,note_on,,,,,0,0,1,,,0,,,74,36
376900,set_tempo,,,,,120,1,0,526316,,,,,,
376964,note_on,,,,,0,0,1,,,0,,,74,32
376964,note_on,,,,,0,0,1,,,0,,,78,32
376964,note_off,,,,,80,0,1,,,0,,,74,64
376964,note_off,,,,,0,0,1,,,0,,,78,64
377040,note_on,,,,,200760,0,3,,,0,,,83,42
377044,note_on,,,,,600,0,2,,,0,,,59,44
377044,note_off,,,,,0,0,1,,,0,,,78,64
377044,control_change,,,,,0,0,2,,,0,64,0,,
377044,note_on,,,,,0,0,2,,,0,,,66,44
377044,note_off,,,,,80,0,1,,,0,,,74,64
377124,note_on,,,,,80,0,1,,,0,,,78,33
377124,note_on,,,,,0,0,1,,,0,,,74,33
377204,note_on,,,,,0,0,1,,,0,,,74,32
377204,note_off,,,,,0,0,1,,,0,,,78,64
377204,note_off,,,,,80,0,1,,,0,,,74,64
377204,note_on,,,,,0,0,1,,,0,,,78,32
377220,note_off,,,,,180,0,3,,,0,,,83,64
377224,note_off,,,,,180,0,2,,,0,,,66,64
377224,note_off,,,,,0,0,2,,,0,,,59,64
377280,note_on,,,,,60,0,3,,,0,,,83,50
377280,set_tempo,,,,,380,1,0,618557,,,,,,
377284,note_off,,,,,0,0,1,,,0,,,78,64
377284,control_change,,,,,60,0,2,,,0,64,127,,
377284,note_on,,,,,0,0,2,,,0,,,66,53
377284,note_on,,,,,0,0,2,,,0,,,59,53
377284,note_off,,,,,80,0,1,,,0,,,74,64
377364,note_on,,,,,0,0,1,,,0,,,74,38
377364,note_on,,,,,80,0,1,,,0,,,78,38
377380,set_tempo,,,,,100,1,0,571429,,,,,,
377444,note_off,,,,,80,0,1,,,0,,,74,64
377444,note_off,,,,,0,0,1,,,0,,,78,64
377444,note_on,,,,,0,0,1,,,0,,,78,33
377444,note_on,,,,,0,0,1,,,0,,,74,33
377460,set_tempo,,,,,80,1,0,545455,,,,,,
377480,set_tempo,,,,,20,1,0,540541,,,,,,
377520,note_off,,,,,240,0,3,,,0,,,83,64
377520,note_on,,,,,0,0,3,,,0,,,86,53
377524,note_off,,,,,80,0,1,,,0,,,74,64
377524,note_off,,,,,0,0,1,,,0,,,78,64
377524,note_on,,,,,0,0,1,,,0,,,78,35
377524,note_on,,,,,0,0,1,,,0,,,74,35
377580,set_tempo,,,,,100,1,0,526316,,,,,,
377604,note_on,,,,,0,0,1,,,0,,,78,34
377604,note_off,,,,,0,0,1,,,0,,,78,64
377604,note_off,,,,,80,0,1,,,0,,,74,64
377604,note_on,,,,,0,0,1,,,0,,,74,34
377644,note_on,,,,,0,0,2,,,0,,,64,44
377644,note_off,,,,,360,0,2,,,0,,,66,64
377684,note_off,,,,,80,0,1,,,0,,,74,64
377684,note_off,,,,,0,0,1,,,0,,,78,64
377684,note_on,,,,,0,0,1,,,0,,,78,32
377684,note_on,,,,,0,0,1,,,0,,,74,32
377760,note_on,,,,,0,0,3,,,0,,,83,51
377760,note_off,,,,,240,0,3,,,0,,,86,64
377764,note_off,,,,,80,0,1,,,0,,,74,64
377764,note_off,,,,,0,0,1,,,0,,,78,64
377764,control_change,,,,,0,0,2,,,0,64,0,,
377764,note_on,,,,,0,0,2,,,0,,,62,36
377764,note_off,,,,,120,0,2,,,0,,,64,64
377844,note_on,,,,,0,0,1,,,0,,,74,39
377844,note_on,,,,,80,0,1,,,0,,,78,39
377884,note_off,,,,,120,0,2,,,0,,,62,64
377884,note_off,,,,,0,0,2,,,0,,,59,64
377924,note_on,,,,,0,0,1,,,0,,,74,35
377924,note_on,,,,,0,0,1,,,0,,,78,35
377924,note_off,,,,,0,0,1,,,0,,,78,64
377924,note_off,,,,,80,0,1,,,0,,,74,64
378000,note_off,,,,,240,0,3,,,0,,,83,64
378000,note_on,,,,,0,0,3,,,0,,,86,57
378004,note_on,,,,,120,0,2,,,0,,,62,47
378004,note_on,,,,,0,0,2,,,0,,,59,47
378004,note_off,,,,,0,0,1,,,0,,,78,64
378004,note_off,,,,,80,0,1,,,0,,,74,64
378004,note_on,,,,,0,0,1,,,0,,,78,33
378004,note_on,,,,,0,0,1,,,0,,,74,33
378084,note_on,,,,,0,0,1,,,0,,,74,31
378084,note_on,,,,,0,0,1,,,0,,,78,31
378084,note_off,,,,,0,0,1,,,0,,,78,64
378084,note_off,,,,,80,0,1,,,0,,,74,64
378164,note_off,,,,,80,0,1,,,0,,,74,64
378164,note_on,,,,,0,0,1,,,0,,,78,27
378164,note_on,,,,,0,0,1,,,0,,,74,27
378164,note_off,,,,,0,0,1,,,0,,,78,64
378184,note_off,,,,,0,0,2,,,0,,,62,64
378184,note_off,,,,,180,0,2,,,0,,,59,64
378210,note_off,,,,,210,0,3,,,0,,,86,64
378240,note_on,,,,,30,0,3,,,0,,,86,67
378244,note_on,,,,,0,0,2,,,0,,,62,51
378244,note_on,,,,,0,0,2,,,0,,,59,51
378244,control_change,,,,,60,0,2,,,0,64,127,,
378244,note_off,,,,,80,0,1,,,0,,,74,64
378244,note_off,,,,,0,0,1,,,0,,,78,64
378260,set_tempo,,,,,680,1,0,588235,,,,,,
378280,set_tempo,,,,,20,1,0,612245,,,,,,
378320,set_tempo,,,,,40,1,0,576923,,,,,,
378324,note_on,,,,,80,0,1,,,0,,,83,39
378324,note_on,,,,,0,0,1,,,0,,,78,39
378380,set_tempo,,,,,60,1,0,530973,,,,,,
378404,note_off,,,,,80,0,1,,,0,,,78,64
378404,note_off,,,,,0,0,1,,,0,,,83,64
378404,note_on,,,,,0,0,1,,,0,,,83,36
378404,note_on,,,,,0,0,1,,,0,,,78,36
378480,note_on,,,,,0,0,3,,,0,,,90,54
378480,note_off,,,,,240,0,3,,,0,,,86,64
378484,note_off,,,,,80,0,1,,,0,,,78,64
378484,note_on,,,,,0,0,1,,,0,,,83,36
378484,note_on,,,,,0,0,1,,,0,,,78,36
378484,note_off,,,,,0,0,1,,,0,,,83,64
378564,note_off,,,,,80,0,1,,,0,,,78,64
378564,note_off,,,,,0,0,1,,,0,,,83,64
378564,note_on,,,,,0,0,1,,,0,,,83,34
378564,note_on,,,,,0,0,1,,,0,,,78,34
378604,note_on,,,,,0,0,2,,,0,,,61,44
378604,note_off,,,,,360,0,2,,,0,,,62,64
378644,note_on,,,,,0,0,1,,,0,,,83,31
378644,note_off,,,,,80,0,1,,,0,,,78,64
378644,note_off,,,,,0,0,1,,,0,,,83,64
378644,note_on,,,,,0,0,1,,,0,,,78,31
378660,set_tempo,,,,,280,1,0,517241,,,,,,
378720,note_off,,,,,240,0,3,,,0,,,90,64
378720,note_on,,,,,0,0,3,,,0,,,86,55
378724,note_off,,,,,120,0,2,,,0,,,61,64
378724,control_change,,,,,0,0,2,,,0,64,0,,
378724,note_on,,,,,0,0,2,,,0,,,59,37
378724,note_off,,,,,0,0,1,,,0,,,83,64
378724,note_off,,,,,80,0,1,,,0,,,78,64
378804,note_on,,,,,80,0,1,,,0,,,83,36
378804,note_on,,,,,0,0,1,,,0,,,78,36
378844,note_off,,,,,0,0,2,,,0,,,59,64
378844,note_off,,,,,120,0,2,,,0,,,59,64
378884,note_off,,,,,80,0,1,,,0,,,78,64
378884,note_on,,,,,0,0,1,,,0,,,78,34
378884,note_on,,,,,0,0,1,,,0,,,83,34
378884,note_off,,,,,0,0,1,,,0,,,83,64
378960,note_on,,,,,0,0,3,,,0,,,90,56
378960,note_off,,,,,240,0,3,,,0,,,86,64
378964,note_off,,,,,80,0,1,,,0,,,78,64
378964,note_on,,,,,120,0,2,,,0,,,59,37
378964,note_off,,,,,0,0,1,,,0,,,83,64
378964,note_on,,,,,0,0,1,,,0,,,83,35
378964,note_on,,,,,0,0,1,,,0,,,78,35
378980,set_tempo,,,,,320,1,0,526316,,,,,,
379044,note_on,,,,,0,0,1,,,0,,,83,32
379044,note_off,,,,,0,0,1,,,0,,,83,64
379044,note_off,,,,,80,0,1,,,0,,,78,64
379044,note_on,,,,,0,0,1,,,0,,,78,32
379120,set_tempo,,,,,140,1,0,545455,,,,,,
379124,note_on,,,,,0,0,1,,,0,,,78,26
379124,note_on,,,,,0,0,1,,,0,,,83,26
379124,note_off,,,,,0,0,1,,,0,,,83,64
379124,note_off,,,,,80,0,1,,,0,,,78,64
379140,set_tempo,,,,,20,1,0,550459,,,,,,
379144,note_off,,,,,180,0,2,,,0,,,59,64
379170,note_off,,,,,210,0,3,,,0,,,90,64
379200,control_change,,,,,30,0,3,,,0,64,127,,
379200,note_on,,,,,0,0,3,,,0,,,78,59
379204,note_off,,,,,80,0,1,,,0,,,78,64
379204,note_on,,,,,60,0,2,,,0,,,59,45
379204,note_off,,,,,0,0,1,,,0,,,83,64
379284,note_on,,,,,80,0,1,,,0,,,74,33
379284,note_on,,,,,0,0,1,,,0,,,71,33
379364,note_on,,,,,0,0,1,,,0,,,71,36
379364,note_on,,,,,0,0,1,,,0,,,74,36
379364,note_off,,,,,0,0,1,,,0,,,74,64
379364,note_off,,,,,80,0,1,,,0,,,71,64
379380,control_change,,,,,180,0,3,,,0,64,0,,
379440,control_change,,,,,0,0,3,,,0,64,127,,
379440,note_on,,,,,0,0,3,,,0,,,82,51
379440,note_off,,,,,60,0,3,,,0,,,78,64
379444,note_off,,,,,0,0,1,,,0,,,74,64
379444,note_off,,,,,80,0,1,,,0,,,71,64
379444,note_on,,,,,0,0,2,,,0,,,61,42
379444,note_off,,,,,240,0,2,,,0,,,59,64
379524,note_on,,,,,80,0,1,,,0,,,78,39
379524,note_on,,,,,0,0,1,,,0,,,76,39
379524,note_on,,,,,0,0,1,,,0,,,70,39
379560,set_tempo,,,,,420,1,0,540541,,,,,,
379604,note_on,,,,,0,0,1,,,0,,,78,40
379604,note_on,,,,,0,0,1,,,0,,,76,40
379604,note_on,,,,,0,0,1,,,0,,,70,40
379604,note_off,,,,,0,0,1,,,0,,,76,64
379604,note_off,,,,,80,0,1,,,0,,,70,64
379604,note_off,,,,,0,0,1,,,0,,,78,64
379620,control_change,,,,,180,0,3,,,0,64,0,,
379680,note_on,,,,,0,0,3,,,0,,,83,53
379680,control_change,,,,,0,0,3,,,0,64,127,,
379680,note_off,,,,,60,0,3,,,0,,,82,64
379684,note_off,,,,,0,0,1,,,0,,,78,64
379684,note_off,,,,,80,0,1,,,0,,,70,64
379684,note_off,,,,,0,0,1,,,0,,,76,64
379684,note_off,,,,,240,0,2,,,0,,,61,64
379684,note_on,,,,,0,0,2,,,0,,,62,45
379700,set_tempo,,,,,140,1,0,530973,,,,,,
379764,note_on,,,,,0,0,1,,,0,,,71,44
379764,note_on,,,,,0,0,1,,,0,,,74,44
379764,note_on,,,,,80,0,1,,,0,,,78,44
379820,set_tempo,,,,,120,1,0,512821,,,,,,
379844,note_on,,,,,0,0,1,,,0,,,71,47
379844,note_on,,,,,0,0,1,,,0,,,74,47
379844,note_on,,,,,0,0,1,,,0,,,78,47
379844,note_off,,,,,0,0,1,,,0,,,78,64
379844,note_off,,,,,0,0,1,,,0,,,74,64
379844,note_off,,,,,80,0,1,,,0,,,71,64
379860,control_change,,,,,180,0,3,,,0,64,0,,
379920,note_off,,,,,60,0,3,,,0,,,83,64
379920,note_on,,,,,0,0,3,,,0,,,85,60
379920,control_change,,,,,0,0,3,,,0,64,127,,
379924,note_off,,,,,0,0,1,,,0,,,78,64
379924,note_off,,,,,0,0,1,,,0,,,74,64
379924,note_off,,,,,240,0,2,,,0,,,62,64
379924,note_on,,,,,0,0,2,,,0,,,64,50
379924,note_on,,,,,0,0,2,,,0,,,57,50
379924,note_off,,,,,80,0,1,,,0,,,71,64
379940,set_tempo,,,,,120,1,0,508475,,,,,,
380004,note_on,,,,,0,0,1,,,0,,,73,50
380004,note_on,,,,,0,0,1,,,0,,,79,50
380004,note_on,,,,,80,0,1,,,0,,,81,50
380084,note_on,,,,,0,0,1,,,0,,,79,52
380084,note_on,,,,,0,0,1,,,0,,,73,52
380084,note_on,,,,,0,0,1,,,0,,,81,52
380084,note_off,,,,,0,0,1,,,0,,,81,64
380084,note_off,,,,,0,0,1,,,0,,,79,64
380084,note_off,,,,,80,0,1,,,0,,,73,64
380100,control_change,,,,,180,0,3,,,0,64,0,,
380160,note_on,,,,,0,0,3,,,0,,,86,70
380160,note_off,,,,,60,0,3,,,0,,,85,64
380160,control_change,,,,,0,0,3,,,0,64,127,,
380164,note_off,,,,,0,0,2,,,0,,,64,64
380164,note_on,,,,,0,0,2,,,0,,,66,56
380164,note_on,,,,,0,0,2,,,0,,,62,56
380164,note_off,,,,,240,0,2,,,0,,,57,64
380164,note_off,,,,,0,0,1,,,0,,,81,64
380164,note_off,,,,,0,0,1,,,0,,,79,64
380164,note_off,,,,,80,0,1,,,0,,,73,64
380244,note_on,,,,,0,0,1,,,0,,,74,52
380244,note_on,,,,,80,0,1,,,0,,,81,52
380244,note_on,,,,,0,0,1,,,0,,,78,52
380260,set_tempo,,,,,320,1,0,495868,,,,,,
380324,note_on,,,,,0,0,1,,,0,,,78,53
380324,note_on,,,,,0,0,1,,,0,,,74,53
380324,note_on,,,,,0,0,1,,,0,,,81,53
380324,note_off,,,,,0,0,1,,,0,,,81,64
380324,note_off,,,,,0,0,1,,,0,,,78,64
380324,note_off,,,,,80,0,1,,,0,,,74,64
380340,control_change,,,,,180,0,3,,,0,64,0,,
380344,note_off,,,,,0,0,2,,,0,,,62,64
380344,note_off,,,,,180,0,2,,,0,,,66,64
380400,note_off,,,,,60,0,3,,,0,,,86,64
380400,control_change,,,,,0,0,3,,,0,64,127,,
380400,note_on,,,,,0,0,3,,,0,,,88,78
380404,note_off,,,,,0,0,1,,,0,,,81,64
380404,note_off,,,,,0,0,1,,,0,,,78,64
380404,note_on,,,,,60,0,2,,,0,,,61,47
380404,note_on,,,,,0,0,2,,,0,,,66,47
380404,note_off,,,,,80,0,1,,,0,,,74,64
380484,note_on,,,,,0,0,1,,,0,,,78,54
380484,note_on,,,,,0,0,1,,,0,,,76,54
380484,note_on,,,,,80,0,1,,,0,,,82,54
380564,note_on,,,,,0,0,1,,,0,,,76,55
380564,note_off,,,,,80,0,1,,,0,,,76,64
380564,note_off,,,,,0,0,1,,,0,,,82,64
380564,note_on,,,,,0,0,1,,,0,,,82,55
380564,note_on,,,,,0,0,1,,,0,,,78,55
380564,note_off,,,,,0,0,1,,,0,,,78,64
380580,control_change,,,,,180,0,3,,,0,64,0,,
380584,note_off,,,,,0,0,2,,,0,,,61,64
380584,note_off,,,,,180,0,2,,,0,,,66,64
380640,note_on,,,,,0,0,3,,,0,,,86,74
380640,control_change,,,,,0,0,3,,,0,64,127,,
380640,note_off,,,,,60,0,3,,,0,,,88,64
380640,control_change,,,,,0,0,3,,,0,64,127,,
380644,note_on,,,,,60,0,2,,,0,,,59,54
380644,note_off,,,,,0,0,1,,,0,,,82,64
380644,note_off,,,,,0,0,1,,,0,,,78,64
380644,note_off,,,,,80,0,1,,,0,,,76,64
380644,note_on,,,,,0,0,2,,,0,,,66,54
380724,note_on,,,,,80,0,1,,,0,,,83,56
380724,note_on,,,,,0,0,1,,,0,,,74,56
380724,note_on,,,,,0,0,1,,,0,,,78,56
380804,note_on,,,,,0,0,1,,,0,,,83,56
380804,note_on,,,,,0,0,1,,,0,,,74,56
380804,note_off,,,,,0,0,1,,,0,,,78,64
380804,note_off,,,,,80,0,1,,,0,,,74,64
380804,note_on,,,,,0,0,1,,,0,,,78,56
380804,note_off,,,,,0,0,1,,,0,,,83,64
380820,control_change,,,,,180,0,3,,,0,64,0,,
380824,note_off,,,,,0,0,2,,,0,,,59,64
380824,note_off,,,,,180,0,2,,,0,,,66,64
380880,note_on,,,,,0,0,3,,,0,,,85,81
380880,control_change,,,,,0,0,3,,,0,64,127,,
380880,note_off,,,,,60,0,3,,,0,,,86,64
380880,control_change,,,,,0,0,3,,,0,64,127,,
380884,note_off,,,,,0,0,1,,,0,,,78,64
380884,note_on,,,,,60,0,2,,,0,,,67,60
380884,note_on,,,,,0,0,2,,,0,,,57,60
380884,note_off,,,,,0,0,1,,,0,,,83,64
380884,note_off,,,,,80,0,1,,,0,,,74,64
380964,note_on,,,,,0,0,1,,,0,,,73,58
380964,note_on,,,,,0,0,1,,,0,,,76,58
380964,note_on,,,,,80,0,1,,,0,,,81,58
381044,note_off,,,,,80,0,1,,,0,,,73,64
381044,note_on,,,,,0,0,1,,,0,,,73,58
381044,note_on,,,,,0,0,1,,,0,,,76,58
381044,note_on,,,,,0,0,1,,,0,,,81,58
381044,note_off,,,,,0,0,1,,,0,,,81,64
381044,note_off,,,,,0,0,1,,,0,,,76,64
381060,control_change,,,,,180,0,3,,,0,64,0,,
381100,set_tempo,,,,,840,1,0,512821,,,,,,
381120,note_on,,,,,0,0,3,,,0,,,85,86
381120,control_change,,,,,0,0,3,,,0,64,127,,
381120,note_off,,,,,60,0,3,,,0,,,85,64
381124,note_off,,,,,240,0,2,,,0,,,57,64
381124,note_off,,,,,80,0,1,,,0,,,73,64
381124,note_off,,,,,0,0,1,,,0,,,76,64
381124,note_off,,,,,0,0,1,,,0,,,81,64
381124,note_on,,,,,0,0,2,,,0,,,57,68
381124,note_on,,,,,0,0,2,,,0,,,67,68
381124,note_off,,,,,0,0,2,,,0,,,67,64
381204,note_on,,,,,0,0,1,,,0,,,73,59
381204,note_on,,,,,0,0,1,,,0,,,76,59
381204,note_on,,,,,80,0,1,,,0,,,81,59
381260,set_tempo,,,,,160,1,0,530973,,,,,,
381284,note_on,,,,,0,0,1,,,0,,,81,55
381284,note_off,,,,,80,0,1,,,0,,,73,64
381284,note_off,,,,,0,0,1,,,0,,,76,64
381284,note_off,,,,,0,0,1,,,0,,,81,64
381284,note_on,,,,,0,0,1,,,0,,,73,55
381284,note_on,,,,,0,0,1,,,0,,,76,55
381364,note_off,,,,,0,0,1,,,0,,,76,64
381364,note_off,,,,,0,0,1,,,0,,,81,64
381364,note_on,,,,,0,0,1,,,0,,,81,52
381364,note_on,,,,,0,0,1,,,0,,,76,52
381364,note_off,,,,,80,0,1,,,0,,,73,64
381364,note_on,,,,,0,0,1,,,0,,,73,52
381440,set_tempo,,,,,180,1,0,560748,,,,,,
381444,note_on,,,,,0,0,1,,,0,,,73,48
381444,note_on,,,,,0,0,1,,,0,,,76,48
381444,note_off,,,,,0,0,1,,,0,,,81,64
381444,note_on,,,,,0,0,1,,,0,,,81,48
381444,note_off,,,,,80,0,1,,,0,,,73,64
381444,note_off,,,,,0,0,1,,,0,,,76,64
381524,note_off,,,,,80,0,1,,,0,,,73,64
381524,note_off,,,,,0,0,1,,,0,,,76,64
381524,note_off,,,,,0,0,1,,,0,,,81,64
381524,note_on,,,,,0,0,1,,,0,,,81,45
381524,note_on,,,,,0,0,1,,,0,,,76,45
381524,note_on,,,,,0,0,1,,,0,,,73,45
381540,control_change,,,,,420,0,3,,,0,64,0,,
381600,note_off,,,,,60,0,3,,,0,,,85,64
381600,control_change,,,,,0,0,3,,,0,64,127,,
381600,control_change,,,,,0,0,3,,,0,64,127,,
381600,note_on,,,,,0,0,3,,,0,,,85,64
381604,note_off,,,,,480,0,2,,,0,,,67,64
381604,note_off,,,,,0,0,2,,,0,,,57,64
381604,note_on,,,,,0,0,2,,,0,,,66,55
381604,note_off,,,,,0,0,1,,,0,,,81,64
381604,note_off,,,,,0,0,1,,,0,,,76,64
381604,note_off,,,,,80,0,1,,,0,,,73,64
381604,note_on,,,,,0,0,2,,,0,,,58,55
381620,set_tempo,,,,,180,1,0,600000,,,,,,
381640,set_tempo,,,,,20,1,0,612245,,,,,,
381684,note_on,,,,,0,0,1,,,0,,,73,39
381684,note_on,,,,,80,0,1,,,0,,,78,39
381684,note_on,,,,,0,0,1,,,0,,,76,39
381764,note_off,,,,,0,0,1,,,0,,,76,64
381764,note_off,,,,,80,0,1,,,0,,,73,64
381764,note_on,,,,,0,0,1,,,0,,,78,36
381764,note_on,,,,,0,0,1,,,0,,,76,36
381764,note_on,,,,,0,0,1,,,0,,,73,36
381764,note_off,,,,,0,0,1,,,0,,,78,64
381780,control_change,,,,,180,0,3,,,0,64,0,,
381784,note_off,,,,,0,0,2,,,0,,,58,64
381784,note_off,,,,,180,0,2,,,0,,,66,64
381840,note_on,,,,,0,0,3,,,0,,,86,39
381840,control_change,,,,,0,0,3,,,0,64,127,,
381840,control_change,,,,,0,0,3,,,0,64,127,,
381840,note_off,,,,,60,0,3,,,0,,,85,64
381844,note_on,,,,,60,0,2,,,0,,,59,52
381844,note_off,,,,,0,0,1,,,0,,,78,64
381844,note_off,,,,,80,0,1,,,0,,,73,64
381844,note_on,,,,,0,0,2,,,0,,,66,52
381844,note_off,,,,,0,0,1,,,0,,,76,64
381860,set_tempo,,,,,220,1,0,659341,,,,,,
381880,set_tempo,,,,,20,1,0,666667,,,,,,
381924,note_on,,,,,0,0,1,,,0,,,74,27
381924,note_on,,,,,80,0,1,,,0,,,78,27
381960,set_tempo,,,,,80,1,0,731707,,,,,,
381980,set_tempo,,,,,20,1,0,750000,,,,,,
382004,note_on,,,,,0,0,1,,,0,,,78,23
382004,note_off,,,,,0,0,1,,,0,,,78,64
382004,note_on,,,,,0,0,1,,,0,,,74,23
382004,note_off,,,,,80,0,1,,,0,,,74,64
382020,control_change,,,,,0,0,3,,,0,64,0,,
382020,note_off,,,,,180,0,3,,,0,,,86,64
382024,note_off,,,,,180,0,2,,,0,,,66,64
382024,note_off,,,,,0,0,2,,,0,,,59,64
382040,set_tempo,,,,,60,1,0,810811,,,,,,
382060,set_tempo,,,,,20,1,0,560748,,,,,,
382080,note_on,,,,,60,0,3,,,0,,,83,45
382084,note_on,,,,,0,0,2,,,0,,,59,53
382084,note_off,,,,,0,0,1,,,0,,,78,64
382084,note_off,,,,,80,0,1,,,0,,,74,64
382084,control_change,,,,,60,0,2,,,0,64,127,,
382084,note_on,,,,,0,0,2,,,0,,,66,53
382100,set_tempo,,,,,40,1,0,618557,,,,,,
382160,set_tempo,,,,,60,1,0,576923,,,,,,
382164,note_on,,,,,0,0,1,,,0,,,74,38
382164,note_on,,,,,80,0,1,,,0,,,78,38
382200,set_tempo,,,,,40,1,0,560748,,,,,,
382244,note_on,,,,,0,0,1,,,0,,,74,33
382244,note_on,,,,,0,0,1,,,0,,,78,33
382244,note_off,,,,,0,0,1,,,0,,,78,64
382244,note_off,,,,,80,0,1,,,0,,,74,64
382260,set_tempo,,,,,60,1,0,535714,,,,,,
382320,note_off,,,,,240,0,3,,,0,,,83,64
382320,note_on,,,,,0,0,3,,,0,,,86,43
382324,note_on,,,,,0,0,1,,,0,,,78,35
382324,note_on,,,,,0,0,1,,,0,,,74,35
382324,note_off,,,,,0,0,1,,,0,,,78,64
382324,note_off,,,,,80,0,1,,,0,,,74,64
382360,set_tempo,,,,,100,1,0,526316,,,,,,
382404,note_on,,,,,0,0,1,,,0,,,74,34
382404,note_on,,,,,0,0,1,,,0,,,78,34
382404,note_off,,,,,0,0,1,,,0,,,78,64
382404,note_off,,,,,80,0,1,,,0,,,74,64
382444,note_on,,,,,0,0,2,,,0,,,64,45
382444,note_off,,,,,360,0,2,,,0,,,66,64
382484,note_off,,,,,80,0,1,,,0,,,74,64
382484,note_off,,,,,0,0,1,,,0,,,78,64
382484,note_on,,,,,0,0,1,,,0,,,78,32
382484,note_on,,,,,0,0,1,,,0,,,74,32
382560,note_off,,,,,240,0,3,,,0,,,86,64
382560,note_on,,,,,0,0,3,,,0,,,83,51
382564,note_off,,,,,120,0,2,,,0,,,64,64
382564,note_on,,,,,0,0,2,,,0,,,62,34
382564,control_change,,,,,0,0,2,,,0,64,0,,
382564,note_off,,,,,80,0,1,,,0,,,74,64
382564,note_off,,,,,0,0,1,,,0,,,78,64
382644,note_on,,,,,80,0,1,,,0,,,78,39
382644,note_on,,,,,0,0,1,,,0,,,74,39
382684,note_off,,,,,0,0,2,,,0,,,59,64
382684,note_off,,,,,120,0,2,,,0,,,62,64
382724,note_off,,,,,80,0,1,,,0,,,74,64
382724,note_off,,,,,0,0,1,,,0,,,78,64
382724,note_on,,,,,0,0,1,,,0,,,78,35
382724,note_on,,,,,0,0,1,,,0,,,74,35
382800,note_on,,,,,0,0,3,,,0,,,86,57
382800,note_off,,,,,240,0,3,,,0,,,83,64
382804,note_off,,,,,0,0,1,,,0,,,78,64
382804,note_on,,,,,0,0,1,,,0,,,78,33
382804,note_on,,,,,0,0,1,,,0,,,74,33
382804,note_on,,,,,120,0,2,,,0,,,62,47
382804,note_on,,,,,0,0,2,,,0,,,59,47
382804,note_off,,,,,80,0,1,,,0,,,74,64
382884,note_on,,,,,0,0,1,,,0,,,74,31
382884,note_off,,,,,0,0,1,,,0,,,78,64
382884,note_off,,,,,80,0,1,,,0,,,74,64
382884,note_on,,,,,0,0,1,,,0,,,78,31
382964,note_off,,,,,80,0,1,,,0,,,74,64
382964,note_off,,,,,0,0,1,,,0,,,78,64
382964,note_on,,,,,0,0,1,,,0,,,78,27
382964,note_on,,,,,0,0,1,,,0,,,74,27
382984,note_off,,,,,0,0,2,,,0,,,62,64
382984,note_off,,,,,180,0,2,,,0,,,59,64
383010,note_off,,,,,210,0,3,,,0,,,86,64
383020,set_tempo,,,,,660,1,0,631579,,,,,,
383040,note_on,,,,,30,0,3,,,0,,,86,56
383044,note_off,,,,,0,0,1,,,0,,,78,64
383044,note_on,,,,,0,0,2,,,0,,,62,55
383044,note_on,,,,,0,0,2,,,0,,,59,55
383044,control_change,,,,,60,0,2,,,0,64,127,,
383044,note_off,,,,,80,0,1,,,0,,,74,64
383120,set_tempo,,,,,100,1,0,571429,,,,,,
383124,note_on,,,,,80,0,1,,,0,,,83,39
383124,note_on,,,,,0,0,1,,,0,,,78,39
383180,set_tempo,,,,,60,1,0,545455,,,,,,
383204,note_off,,,,,80,0,1,,,0,,,78,64
383204,note_off,,,,,0,0,1,,,0,,,83,64
383204,note_on,,,,,0,0,1,,,0,,,78,36
383204,note_on,,,,,0,0,1,,,0,,,83,36
383280,note_off,,,,,240,0,3,,,0,,,86,64
383280,note_on,,,,,0,0,3,,,0,,,90,48
383284,note_on,,,,,0,0,1,,,0,,,78,36
383284,note_on,,,,,0,0,1,,,0,,,83,36
383284,note_off,,,,,0,0,1,,,0,,,83,64
383284,note_off,,,,,80,0,1,,,0,,,78,64
383320,set_tempo,,,,,140,1,0,526316,,,,,,
383364,note_off,,,,,0,0,1,,,0,,,83,64
383364,note_off,,,,,80,0,1,,,0,,,78,64
383364,note_on,,,,,0,0,1,,,0,,,83,34
383364,note_on,,,,,0,0,1,,,0,,,78,34
383404,note_on,,,,,0,0,2,,,0,,,61,45
383404,note_off,,,,,360,0,2,,,0,,,62,64
383444,note_on,,,,,0,0,1,,,0,,,78,31
383444,note_off,,,,,0,0,1,,,0,,,83,64
383444,note_off,,,,,80,0,1,,,0,,,78,64
383444,note_on,,,,,0,0,1,,,0,,,83,31
383520,note_off,,,,,240,0,3,,,0,,,90,64
383520,note_on,,,,,0,0,3,,,0,,,86,50
383524,note_off,,,,,120,0,2,,,0,,,61,64
383524,note_off,,,,,80,0,1,,,0,,,78,64
383524,note_off,,,,,0,0,1,,,0,,,83,64
383524,note_on,,,,,0,0,2,,,0,,,59,38
383524,control_change,,,,,0,0,2,,,0,64,0,,
383604,note_on,,,,,80,0,1,,,0,,,83,36
383604,note_on,,,,,0,0,1,,,0,,,78,36
383644,note_off,,,,,120,0,2,,,0,,,59,64
383644,note_off,,,,,0,0,2,,,0,,,59,64
383684,note_off,,,,,0,0,1,,,0,,,83,64
383684,note_off,,,,,80,0,1,,,0,,,78,64
383684,note_on,,,,,0,0,1,,,0,,,83,34
383684,note_on,,,,,0,0,1,,,0,,,78,34
383740,set_tempo,,,,,420,1,0,535714,,,,,,
383760,note_on,,,,,0,0,3,,,0,,,90,55
383760,note_off,,,,,240,0,3,,,0,,,86,64
383764,note_on,,,,,120,0,2,,,0,,,59,51
383764,note_off,,,,,80,0,1,,,0,,,78,64
383764,note_off,,,,,0,0,1,,,0,,,83,64
383764,note_on,,,,,0,0,1,,,0,,,83,35
383764,note_on,,,,,0,0,1,,,0,,,78,35
383844,note_on,,,,,0,0,1,,,0,,,83,32
383844,note_on,,,,,0,0,1,,,0,,,78,32
383844,note_off,,,,,80,0,1,,,0,,,78,64
383844,note_off,,,,,0,0,1,,,0,,,83,64
383900,set_tempo,,,,,160,1,0,571429,,,,,,
383924,note_off,,,,,80,0,1,,,0,,,78,64
383924,note_off,,,,,0,0,1,,,0,,,83,64
383924,note_on,,,,,0,0,1,,,0,,,83,26
383924,note_on,,,,,0,0,1,,,0,,,78,26
383944,note_off,,,,,180,0,2,,,0,,,59,64
383970,note_off,,,,,210,0,3,,,0,,,90,64
384000,note_on,,,,,30,0,3,,,0,,,78,58
384004,note_off,,,,,0,0,1,,,0,,,83,64
384004,note_off,,,,,80,0,1,,,0,,,78,64
384004,control_change,,,,,0,0,2,,,0,64,127,,
384004,note_on,,,,,60,0,2,,,0,,,59,57
384084,note_on,,,,,80,0,1,,,0,,,74,33
384084,note_on,,,,,0,0,1,,,0,,,71,33
384160,set_tempo,,,,,260,1,0,550459,,,,,,
384164,note_on,,,,,0,0,1,,,0,,,71,36
384164,note_on,,,,,0,0,1,,,0,,,74,36
384164,note_off,,,,,0,0,1,,,0,,,74,64
384164,note_off,,,,,80,0,1,,,0,,,71,64
384184,control_change,,,,,180,0,2,,,0,64,0,,
384200,set_tempo,,,,,40,1,0,545455,,,,,,
384220,set_tempo,,,,,20,1,0,550459,,,,,,
384240,note_on,,,,,0,0,3,,,0,,,82,53
384240,note_off,,,,,240,0,3,,,0,,,78,64
384240,set_tempo,,,,,20,1,0,545455,,,,,,
384244,note_off,,,,,60,0,2,,,0,,,59,64
384244,control_change,,,,,0,0,2,,,0,64,127,,
384244,note_off,,,,,80,0,1,,,0,,,71,64
384244,note_off,,,,,0,0,1,,,0,,,74,64
384244,note_on,,,,,0,0,2,,,0,,,61,61
384260,set_tempo,,,,,20,1,0,550459,,,,,,
384324,note_on,,,,,0,0,1,,,0,,,76,39
384324,note_on,,,,,0,0,1,,,0,,,70,39
384324,note_on,,,,,80,0,1,,,0,,,78,39
384340,set_tempo,,,,,80,1,0,545455,,,,,,
384360,set_tempo,,,,,20,1,0,550459,,,,,,
384380,set_tempo,,,,,20,1,0,530973,,,,,,
384404,note_on,,,,,0,0,1,,,0,,,76,40
384404,note_off,,,,,80,0,1,,,0,,,70,64
384404,note_off,,,,,0,0,1,,,0,,,76,64
384404,note_off,,,,,0,0,1,,,0,,,78,64
384404,note_on,,,,,0,0,1,,,0,,,78,40
384404,note_on,,,,,0,0,1,,,0,,,70,40
384424,control_change,,,,,180,0,2,,,0,64,0,,
384480,note_on,,,,,0,0,3,,,0,,,83,53
384480,note_off,,,,,240,0,3,,,0,,,82,64
384484,note_off,,,,,60,0,2,,,0,,,61,64
384484,note_on,,,,,0,0,2,,,0,,,62,63
384484,control_change,,,,,0,0,2,,,0,64,127,,
384484,note_off,,,,,80,0,1,,,0,,,70,64
384484,note_off,,,,,0,0,1,,,0,,,76,64
384484,note_off,,,,,0,0,1,,,0,,,78,64
384564,note_on,,,,,80,0,1,,,0,,,78,41
384564,note_on,,,,,0,0,1,,,0,,,74,41
384564,note_on,,,,,0,0,1,,,0,,,71,41
384644,note_on,,,,,0,0,1,,,0,,,74,44
384644,note_off,,,,,0,0,1,,,0,,,74,64
384644,note_off,,,,,0,0,1,,,0,,,78,64
384644,note_on,,,,,0,0,1,,,0,,,78,44
384644,note_on,,,,,0,0,1,,,0,,,71,44
384644,note_off,,,,,80,0,1,,,0,,,71,64
384664,control_change,,,,,180,0,2,,,0,64,0,,
384680,set_tempo,,,,,300,1,0,512821,,,,,,
384720,note_off,,,,,240,0,3,,,0,,,83,64
384720,note_on,,,,,0,0,3,,,0,,,85,60
384724,note_on,,,,,0,0,2,,,0,,,64,65
384724,note_off,,,,,80,0,1,,,0,,,71,64
384724,note_off,,,,,0,0,1,,,0,,,74,64
384724,note_off,,,,,60,0,2,,,0,,,62,64
384724,note_off,,,,,0,0,1,,,0,,,78,64
384724,note_on,,,,,0,0,2,,,0,,,57,65
384724,control_change,,,,,0,0,2,,,0,64,127,,
384804,note_on,,,,,80,0,1,,,0,,,81,53
384804,note_on,,,,,0,0,1,,,0,,,79,53
384804,note_on,,,,,0,0,1,,,0,,,73,53
384880,set_tempo,,,,,200,1,0,500000,,,,,,
384884,note_on,,,,,0,0,1,,,0,,,73,58
384884,note_on,,,,,0,0,1,,,0,,,79,58
384884,note_on,,,,,0,0,1,,,0,,,81,58
384884,note_off,,,,,0,0,1,,,0,,,81,64
384884,note_off,,,,,0,0,1,,,0,,,79,64
384884,note_off,,,,,80,0,1,,,0,,,73,64
384904,control_change,,,,,180,0,2,,,0,64,0,,
384960,note_off,,,,,240,0,3,,,0,,,85,64
384960,note_on,,,,,0,0,3,,,0,,,86,70
384964,note_off,,,,,60,0,2,,,0,,,64,64
384964,control_change,,,,,0,0,2,,,0,64,127,,
384964,note_off,,,,,0,0,1,,,0,,,81,64
384964,note_off,,,,,0,0,1,,,0,,,79,64
384964,note_off,,,,,80,0,1,,,0,,,73,64
384964,note_on,,,,,0,0,2,,,0,,,66,74
384964,note_off,,,,,0,0,2,,,0,,,57,64
384964,note_on,,,,,0,0,2,,,0,,,62,74
385044,note_on,,,,,80,0,1,,,0,,,81,61
385044,note_on,,,,,0,0,1,,,0,,,74,61
385044,note_on,,,,,0,0,1,,,0,,,78,61
385124,note_off,,,,,0,0,1,,,0,,,81,64
385124,note_off,,,,,80,0,1,,,0,,,74,64
385124,note_off,,,,,0,0,1,,,0,,,78,64
385124,note_on,,,,,0,0,1,,,0,,,81,59
385124,note_on,,,,,0,0,1,,,0,,,78,59
385124,note_on,,,,,0,0,1,,,0,,,74,59
385144,note_off,,,,,180,0,2,,,0,,,62,64
385144,note_off,,,,,0,0,2,,,0,,,66,64
385144,control_change,,,,,0,0,2,,,0,64,0,,
385200,note_on,,,,,0,0,3,,,0,,,88,70
385200,note_off,,,,,240,0,3,,,0,,,86,64
385204,note_off,,,,,0,0,1,,,0,,,78,64
385204,note_off,,,,,0,0,1,,,0,,,81,64
385204,note_on,,,,,60,0,2,,,0,,,61,67
385204,control_change,,,,,0,0,2,,,0,64,127,,
385204,note_on,,,,,0,0,2,,,0,,,66,67
385204,note_off,,,,,80,0,1,,,0,,,74,64
385240,set_tempo,,,,,360,1,0,491803,,,,,,
385284,note_on,,,,,80,0,1,,,0,,,82,58
385284,note_on,,,,,0,0,1,,,0,,,76,58
385284,note_on,,,,,0,0,1,,,0,,,78,58
385364,note_off,,,,,0,0,1,,,0,,,78,64
385364,note_off,,,,,80,0,1,,,0,,,76,64
385364,note_off,,,,,0,0,1,,,0,,,82,64
385364,note_on,,,,,0,0,1,,,0,,,82,54
385364,note_on,,,,,0,0,1,,,0,,,78,54
385364,note_on,,,,,0,0,1,,,0,,,76,54
385384,control_change,,,,,0,0,2,,,0,64,0,,
385384,note_off,,,,,0,0,2,,,0,,,61,64
385384,note_off,,,,,180,0,2,,,0,,,66,64
385440,note_on,,,,,0,0,3,,,0,,,86,68
385440,note_off,,,,,240,0,3,,,0,,,88,64
385444,note_on,,,,,0,0,2,,,0,,,66,58
385444,control_change,,,,,0,0,2,,,0,64,127,,
385444,control_change,,,,,0,0,2,,,0,64,127,,
385444,note_on,,,,,60,0,2,,,0,,,59,58
385444,note_off,,,,,80,0,1,,,0,,,76,64
385444,note_off,,,,,0,0,1,,,0,,,82,64
385444,note_off,,,,,0,0,1,,,0,,,78,64
385524,note_on,,,,,0,0,1,,,0,,,78,53
385524,note_on,,,,,0,0,1,,,0,,,74,53
385524,note_on,,,,,80,0,1,,,0,,,83,53
385604,note_off,,,,,80,0,1,,,0,,,74,64
385604,note_off,,,,,0,0,1,,,0,,,78,64
385604,note_off,,,,,0,0,1,,,0,,,83,64
385604,note_on,,,,,0,0,1,,,0,,,83,52
385604,note_on,,,,,0,0,1,,,0,,,78,52
385604,note_on,,,,,0,0,1,,,0,,,74,52
385624,control_change,,,,,0,0,2,,,0,64,0,,
385624,note_off,,,,,0,0,2,,,0,,,59,64
385624,note_off,,,,,180,0,2,,,0,,,66,64
385680,note_on,,,,,0,0,3,,,0,,,85,62
385680,note_off,,,,,240,0,3,,,0,,,86,64
385684,note_on,,,,,60,0,2,,,0,,,57,58
385684,note_off,,,,,0,0,1,,,0,,,78,64
385684,note_off,,,,,0,0,1,,,0,,,83,64
385684,note_off,,,,,80,0,1,,,0,,,74,64
385684,note_on,,,,,0,0,2,,,0,,,67,58
385684,control_change,,,,,0,0,2,,,0,64,127,,
385684,control_change,,,,,0,0,2,,,0,64,127,,
385740,set_tempo,,,,,500,1,0,508475,,,,,,
385764,note_on,,,,,80,0,1,,,0,,,81,50
385764,note_on,,,,,0,0,1,,,0,,,76,50
385764,note_on,,,,,0,0,1,,,0,,,73,50
385844,note_off,,,,,0,0,1,,,0,,,81,64
385844,note_on,,,,,0,0,1,,,0,,,73,49
385844,note_on,,,,,0,0,1,,,0,,,76,49
385844,note_off,,,,,80,0,1,,,0,,,73,64
385844,note_off,,,,,0,0,1,,,0,,,76,64
385844,note_on,,,,,0,0,1,,,0,,,81,49
385864,control_change,,,,,180,0,2,,,0,64,0,,
385920,note_off,,,,,240,0,3,,,0,,,85,64
385920,note_on,,,,,0,0,3,,,0,,,85,61
385924,note_off,,,,,0,0,1,,,0,,,81,64
385924,note_off,,,,,80,0,1,,,0,,,73,64
385924,note_off,,,,,0,0,1,,,0,,,76,64
385924,note_off,,,,,0,0,2,,,0,,,57,64
385924,note_on,,,,,0,0,2,,,0,,,67,58
385924,note_on,,,,,0,0,2,,,0,,,57,58
385924,control_change,,,,,0,0,2,,,0,64,127,,
385924,note_off,,,,,60,0,2,,,0,,,67,64
386004,note_on,,,,,0,0,1,,,0,,,73,47
386004,note_on,,,,,80,0,1,,,0,,,81,47
386004,note_on,,,,,0,0,1,,,0,,,76,47
386040,set_tempo,,,,,300,1,0,526316,,,,,,
386084,note_on,,,,,0,0,1,,,0,,,73,40
386084,note_on,,,,,0,0,1,,,0,,,76,40
386084,note_off,,,,,0,0,1,,,0,,,81,64
386084,note_on,,,,,0,0,1,,,0,,,81,40
386084,note_off,,,,,80,0,1,,,0,,,73,64
386084,note_off,,,,,0,0,1,,,0,,,76,64
386164,note_off,,,,,80,0,1,,,0,,,73,64
386164,note_off,,,,,0,0,1,,,0,,,76,64
386164,note_off,,,,,0,0,1,,,0,,,81,64
386164,note_on,,,,,0,0,1,,,0,,,81,35
386164,note_on,,,,,0,0,1,,,0,,,76,35
386164,note_on,,,,,0,0,1,,,0,,,73,35
386180,set_tempo,,,,,140,1,0,560748,,,,,,
386244,note_on,,,,,0,0,1,,,0,,,76,31
386244,note_off,,,,,80,0,1,,,0,,,73,64
386244,note_off,,,,,0,0,1,,,0,,,76,64
386244,note_off,,,,,0,0,1,,,0,,,81,64
386244,note_on,,,,,0,0,1,,,0,,,81,31
386244,note_on,,,,,0,0,1,,,0,,,73,31
386324,note_on,,,,,0,0,1,,,0,,,73,28
386324,note_off,,,,,0,0,1,,,0,,,76,64
386324,note_off,,,,,0,0,1,,,0,,,81,64
386324,note_on,,,,,0,0,1,,,0,,,76,28
386324,note_on,,,,,0,0,1,,,0,,,81,28
386324,note_off,,,,,80,0,1,,,0,,,73,64
386344,control_change,,,,,420,0,2,,,0,64,0,,
386400,note_off,,,,,480,0,3,,,0,,,85,64
386400,note_on,,,,,0,0,3,,,0,,,86,34
386400,set_tempo,,,,,220,1,0,582524,,,,,,
386404,note_on,,,,,0,0,1,,,0,,,74,26
386404,note_on,,,,,0,0,1,,,0,,,81,26
386404,note_off,,,,,0,0,1,,,0,,,81,64
386404,note_off,,,,,0,0,1,,,0,,,76,64
386404,note_off,,,,,80,0,1,,,0,,,73,64
386404,note_off,,,,,60,0,2,,,0,,,57,64
386404,note_off,,,,,0,0,2,,,0,,,67,64
386404,note_on,,,,,0,0,1,,,0,,,78,26
386404,note_on,,,,,0,0,2,,,0,,,66,36
386404,control_change,,,,,0,0,2,,,0,64,127,,
386404,control_change,,,,,0,0,2,,,0,64,127,,
386404,note_on,,,,,0,0,2,,,0,,,62,36
386464,set_tempo,,,,,64,1,0,588235,,,,,,
386468,note_off,,,,,64,0,2,,,0,,,66,64
386468,note_off,,,,,0,0,2,,,0,,,62,64
386484,note_on,,,,,16,0,2,,,0,,,69,48
386484,set_tempo,,,,,20,1,0,740741,,,,,,
386520,end_of_track,,,,,0,1,3,,,,,,,
386520,note_off,,,,,120,0,3,,,0,,,86,64
386524,note_off,,,,,120,0,1,,,0,,,74,64
386524,note_off,,,,,0,0,1,,,0,,,78,64
386524,note_off,,,,,0,0,1,,,0,,,81,64
386564,note_off,,,,,80,0,2,,,0,,,69,64
386564,note_on,,,,,0,0,2,,,0,,,69,39
386580,set_tempo,,,,,96,1,0,714286,,,,,,
386584,control_change,,,,,20,0,2,,,0,64,0,,
386644,control_change,,,,,0,0,2,,,0,64,127,,
386644,note_on,,,,,0,0,2,,,0,,,69,35
386644,note_off,,,,,60,0,2,,,0,,,69,64
386644,note_on,,,,,120,0,1,,,0,,,81,44
386644,control_change,,,,,0,0,2,,,0,64,127,,
386680,set_tempo,,,,,100,1,0,722892,,,,,,
386720,set_tempo,,,,,40,1,0,731707,,,,,,
386724,note_on,,,,,0,0,2,,,0,,,69,29
386724,note_off,,,,,80,0,2,,,0,,,69,64
386804,note_on,,,,,0,0,2,,,0,,,69,35
386804,note_off,,,,,80,0,2,,,0,,,69,64
386820,set_tempo,,,,,100,1,0,769231,,,,,,
386824,note_off,,,,,180,0,1,,,0,,,81,64
386824,control_change,,,,,20,0,2,,,0,64,0,,
386860,set_tempo,,,,,40,1,0,779221,,,,,,
386884,note_off,,,,,60,0,2,,,0,,,69,64
386884,note_on,,,,,0,0,2,,,0,,,63,45
386884,control_change,,,,,0,0,2,,,0,64,127,,
386884,note_on,,,,,60,0,1,,,0,,,81,50
386940,set_tempo,,,,,80,1,0,674157,,,,,,
386944,note_off,,,,,60,0,2,,,0,,,63,64
386944,note_on,,,,,0,0,2,,,0,,,69,38
386960,set_tempo,,,,,20,1,0,666667,,,,,,
387000,set_tempo,,,,,40,1,0,588235,,,,,,
387004,note_off,,,,,60,0,2,,,0,,,69,64
387004,note_on,,,,,0,0,2,,,0,,,66,35
387064,note_on,,,,,0,0,2,,,0,,,69,33
387064,note_off,,,,,60,0,2,,,0,,,66,64
387100,set_tempo,,,,,100,1,0,540541,,,,,,
387124,note_off,,,,,60,0,2,,,0,,,69,64
387124,note_on,,,,,0,0,2,,,0,,,63,33
387180,set_tempo,,,,,80,1,0,512821,,,,,,
387184,note_on,,,,,0,0,2,,,0,,,69,33
387184,note_off,,,,,60,0,2,,,0,,,63,64
387244,note_on,,,,,0,0,1,,,0,,,79,42
387244,note_off,,,,,60,0,2,,,0,,,69,64
387244,note_on,,,,,0,0,2,,,0,,,66,32
387244,note_off,,,,,360,0,1,,,0,,,81,64
387304,control_change,,,,,0,0,2,,,0,64,0,,
387304,note_off,,,,,60,0,2,,,0,,,66,64
387304,note_on,,,,,0,0,2,,,0,,,69,30
387340,set_tempo,,,,,160,1,0,491803,,,,,,
387364,note_off,,,,,60,0,2,,,0,,,69,64
387364,note_off,,,,,120,0,1,,,0,,,79,64
387364,note_on,,,,,0,0,1,,,0,,,78,33
387364,control_change,,,,,0,0,2,,,0,64,127,,
387364,control_change,,,,,0,0,2,,,0,64,127,,
387364,note_on,,,,,0,0,2,,,0,,,63,37
387424,note_off,,,,,60,0,2,,,0,,,63,64
387424,note_on,,,,,0,0,2,,,0,,,69,27
387480,set_tempo,,,,,140,1,0,480000,,,,,,
387484,note_on,,,,,0,0,2,,,0,,,66,30
387484,note_off,,,,,120,0,1,,,0,,,78,64
387484,note_off,,,,,60,0,2,,,0,,,69,64
387544,control_change,,,,,0,0,2,,,0,64,0,,
387544,note_off,,,,,60,0,2,,,0,,,66,64
387544,note_on,,,,,0,0,2,,,0,,,69,34
387604,control_change,,,,,0,0,2,,,0,64,127,,
387604,note_on,,,,,0,0,2,,,0,,,62,41
387604,note_off,,,,,60,0,2,,,0,,,69,64
387604,note_on,,,,,120,0,1,,,0,,,78,42
387604,control_change,,,,,0,0,2,,,0,64,127,,
387664,note_on,,,,,0,0,2,,,0,,,69,32
387664,note_off,,,,,60,0,2,,,0,,,62,64
387704,set_tempo,,,,,224,1,0,476190,,,,,,
387724,note_off,,,,,60,0,2,,,0,,,69,64
387724,note_on,,,,,0,0,2,,,0,,,66,35
387784,control_change,,,,,0,0,2,,,0,64,0,,
387784,note_on,,,,,0,0,2,,,0,,,69,36
387784,note_off,,,,,60,0,2,,,0,,,66,64
387784,note_off,,,,,180,0,1,,,0,,,78,64
387844,note_on,,,,,60,0,1,,,0,,,78,50
387844,set_tempo,,,,,140,1,0,652174,,,,,,
387844,note_on,,,,,0,0,2,,,0,,,60,38
387844,note_off,,,,,60,0,2,,,0,,,69,64
387844,control_change,,,,,0,0,2,,,0,64,127,,
387864,set_tempo,,,,,20,1,0,674157,,,,,,
387904,set_tempo,,,,,40,1,0,495868,,,,,,
387904,note_off,,,,,60,0,2,,,0,,,60,64
387904,note_on,,,,,0,0,2,,,0,,,69,33
387920,set_tempo,,,,,16,1,0,491803,,,,,,
387964,note_off,,,,,60,0,2,,,0,,,69,64
387964,note_on,,,,,0,0,2,,,0,,,66,29
388000,set_tempo,,,,,80,1,0,526316,,,,,,
388024,note_off,,,,,60,0,2,,,0,,,66,64
388024,note_on,,,,,0,0,2,,,0,,,69,28
388084,note_off,,,,,60,0,2,,,0,,,69,64
388084,note_on,,,,,0,0,2,,,0,,,60,29
388144,note_on,,,,,0,0,2,,,0,,,69,25
388144,note_off,,,,,60,0,2,,,0,,,60,64
388204,note_on,,,,,0,0,2,,,0,,,66,29
388204,note_off,,,,,360,0,1,,,0,,,78,64
388204,note_on,,,,,0,0,1,,,0,,,76,42
388204,note_off,,,,,60,0,2,,,0,,,69,64
388264,note_off,,,,,60,0,2,,,0,,,66,64
388264,note_on,,,,,0,0,2,,,0,,,69,31
388264,control_change,,,,,0,0,2,,,0,64,0,,
388280,set_tempo,,,,,280,1,0,550459,,,,,,
388300,set_tempo,,,,,20,1,0,560748,,,,,,
388324,note_on,,,,,0,0,1,,,0,,,75,33
388324,note_off,,,,,120,0,1,,,0,,,76,64
388324,note_off,,,,,60,0,2,,,0,,,69,64
388324,control_change,,,,,0,0,2,,,0,64,127,,
388324,control_change,,,,,0,0,2,,,0,64,127,,
388324,note_on,,,,,0,0,2,,,0,,,60,37
388384,note_off,,,,,60,0,2,,,0,,,60,64
388384,note_on,,,,,0,0,2,,,0,,,69,27
388444,note_off,,,,,120,0,1,,,0,,,75,64
388444,note_off,,,,,60,0,2,,,0,,,69,64
388444,note_on,,,,,0,0,2,,,0,,,66,30
388504,control_change,,,,,0,0,2,,,0,64,0,,
388504,note_off,,,,,60,0,2,,,0,,,66,64
388504,note_on,,,,,0,0,2,,,0,,,69,34
388564,note_on,,,,,120,0,1,,,0,,,75,42
388564,note_off,,,,,60,0,2,,,0,,,69,64
388564,note_on,,,,,0,0,2,,,0,,,59,41
388564,control_change,,,,,0,0,2,,,0,64,127,,
388564,control_change,,,,,0,0,2,,,0,64,127,,
388600,set_tempo,,,,,300,1,0,588235,,,,,,
388624,note_off,,,,,60,0,2,,,0,,,59,64
388624,note_on,,,,,0,0,2,,,0,,,69,33
388684,note_on,,,,,0,0,2,,,0,,,66,29
388684,note_off,,,,,60,0,2,,,0,,,69,64
388740,set_tempo,,,,,140,1,0,618557,,,,,,
388744,control_change,,,,,0,0,2,,,0,64,0,,
388744,note_on,,,,,0,0,2,,,0,,,69,24
388744,note_off,,,,,60,0,2,,,0,,,66,64
388744,note_off,,,,,180,0,1,,,0,,,75,64
388800,set_tempo,,,,,60,1,0,566038,,,,,,
388804,note_off,,,,,60,0,2,,,0,,,69,64
388804,note_on,,,,,60,0,1,,,0,,,75,55
388804,note_on,,,,,0,0,1,,,0,,,71,55
388804,note_on,,,,,0,0,2,,,0,,,59,34
388804,control_change,,,,,0,0,2,,,0,64,127,,
388804,control_change,,,,,0,0,2,,,0,64,127,,
388840,set_tempo,,,,,40,1,0,560748,,,,,,
388864,note_on,,,,,0,0,2,,,0,,,69,33
388864,note_off,,,,,60,0,2,,,0,,,59,64
388880,set_tempo,,,,,40,1,0,550459,,,,,,
388920,set_tempo,,,,,40,1,0,530973,,,,,,
388924,note_off,,,,,60,0,2,,,0,,,69,64
388924,note_on,,,,,0,0,2,,,0,,,66,35
388984,note_off,,,,,60,0,2,,,0,,,66,64
388984,note_on,,,,,0,0,2,,,0,,,69,40
389014,control_change,,,,,30,0,2,,,0,64,0,,
389044,note_on,,,,,0,0,1,,,0,,,71,52
389044,note_off,,,,,30,0,2,,,0,,,69,64
389044,control_change,,,,,0,0,2,,,0,64,127,,
389044,control_change,,,,,0,0,2,,,0,64,127,,
389044,note_on,,,,,0,0,2,,,0,,,59,41
389044,note_on,,,,,0,0,1,,,0,,,76,52
389044,note_off,,,,,240,0,1,,,0,,,71,64
389044,note_off,,,,,0,0,1,,,0,,,75,64
389080,set_tempo,,,,,160,1,0,512821,,,,,,
389104,note_off,,,,,60,0,2,,,0,,,59,64
389104,note_on,,,,,0,0,2,,,0,,,69,43
389164,note_off,,,,,60,0,2,,,0,,,69,64
389164,note_on,,,,,0,0,2,,,0,,,66,45
389180,set_tempo,,,,,100,1,0,500000,,,,,,
389200,set_tempo,,,,,20,1,0,495868,,,,,,
389224,note_off,,,,,60,0,2,,,0,,,66,64
389224,note_on,,,,,0,0,2,,,0,,,69,47
389254,control_change,,,,,30,0,2,,,0,64,0,,
389284,note_on,,,,,0,0,1,,,0,,,71,57
389284,note_off,,,,,30,0,2,,,0,,,69,64
389284,note_off,,,,,240,0,1,,,0,,,71,64
389284,note_on,,,,,0,0,2,,,0,,,59,48
389284,control_change,,,,,0,0,2,,,0,64,127,,
389284,note_off,,,,,0,0,1,,,0,,,76,64
389284,note_on,,,,,0,0,1,,,0,,,78,57
389284,note_on,,,,,0,0,1,,,0,,,75,57
389284,control_change,,,,,0,0,2,,,0,64,127,,
389320,set_tempo,,,,,120,1,0,476190,,,,,,
389344,note_off,,,,,60,0,2,,,0,,,59,64
389344,note_on,,,,,0,0,2,,,0,,,66,49
389404,note_on,,,,,0,0,2,,,0,,,63,51
389404,note_off,,,,,60,0,2,,,0,,,66,64
389464,note_on,,,,,0,0,2,,,0,,,66,52
389464,note_off,,,,,60,0,2,,,0,,,63,64
389480,set_tempo,,,,,160,1,0,472441,,,,,,
389494,control_change,,,,,30,0,2,,,0,64,0,,
389500,set_tempo,,,,,20,1,0,458015,,,,,,
389524,note_off,,,,,0,0,1,,,0,,,75,64
389524,note_on,,,,,0,0,2,,,0,,,59,53
389524,control_change,,,,,0,0,2,,,0,64,127,,
389524,control_change,,,,,0,0,2,,,0,64,127,,
389524,note_off,,,,,30,0,2,,,0,,,66,64
389524,note_off,,,,,240,0,1,,,0,,,71,64
389524,note_off,,,,,0,0,1,,,0,,,78,64
389524,note_on,,,,,0,0,1,,,0,,,71,63
389524,note_on,,,,,0,0,1,,,0,,,76,63
389524,note_on,,,,,0,0,1,,,0,,,79,63
389584,note_off,,,,,60,0,2,,,0,,,59,64
389584,note_on,,,,,0,0,2,,,0,,,67,55
389644,note_on,,,,,0,0,2,,,0,,,64,58
389644,note_off,,,,,60,0,2,,,0,,,67,64
389704,note_on,,,,,0,0,2,,,0,,,67,61
389704,note_off,,,,,60,0,2,,,0,,,64,64
389734,control_change,,,,,30,0,2,,,0,64,0,,
389764,note_off,,,,,0,0,1,,,0,,,79,64
389764,note_off,,,,,0,0,1,,,0,,,76,64
389764,control_change,,,,,0,0,2,,,0,64,127,,
389764,control_change,,,,,0,0,2,,,0,64,127,,
389764,note_off,,,,,30,0,2,,,0,,,67,64
389764,note_on,,,,,0,0,2,,,0,,,59,64
389764,note_on,,,,,0,0,1,,,0,,,78,66
389764,note_on,,,,,0,0,1,,,0,,,81,66
389764,note_on,,,,,0,0,1,,,0,,,71,66
389764,note_off,,,,,240,0,1,,,0,,,71,64
389780,set_tempo,,,,,280,1,0,447761,,,,,,
389824,note_on,,,,,0,0,2,,,0,,,69,67
389824,note_off,,,,,60,0,2,,,0,,,59,64
389884,note_off,,,,,60,0,2,,,0,,,69,64
389884,note_on,,,,,0,0,2,,,0,,,66,69
389900,set_tempo,,,,,120,1,0,434783,,,,,,
389944,note_off,,,,,60,0,2,,,0,,,66,64
389944,note_on,,,,,0,0,2,,,0,,,69,71
389974,control_change,,,,,30,0,2,,,0,64,0,,
390004,note_off,,,,,30,0,2,,,0,,,69,64
390004,control_change,,,,,0,0,2,,,0,64,127,,
390004,control_change,,,,,0,0,2,,,0,64,127,,
390004,note_on,,,,,0,0,2,,,0,,,60,74
390004,note_on,,,,,0,0,1,,,0,,,72,70
390004,note_off,,,,,0,0,1,,,0,,,78,64
390004,note_off,,,,,0,0,1,,,0,,,81,64
390004,note_on,,,,,0,0,1,,,0,,,81,70
390004,note_on,,,,,0,0,1,,,0,,,78,70
390004,note_off,,,,,240,0,1,,,0,,,71,64
390064,note_off,,,,,60,0,2,,,0,,,60,64
390064,note_on,,,,,0,0,2,,,0,,,69,75
390080,set_tempo,,,,,180,1,0,422535,,,,,,
390124,note_on,,,,,0,0,2,,,0,,,66,76
390124,note_off,,,,,60,0,2,,,0,,,69,64
390184,note_off,,,,,60,0,2,,,0,,,66,64
390184,note_on,,,,,0,0,2,,,0,,,69,70
390214,control_change,,,,,30,0,2,,,0,64,0,,
390244,note_off,,,,,30,0,2,,,0,,,69,64
390244,note_on,,,,,0,0,2,,,0,,,61,83
390244,control_change,,,,,0,0,2,,,0,64,127,,
390244,control_change,,,,,0,0,2,,,0,64,127,,
390244,note_on,,,,,0,0,1,,,0,,,81,78
390244,note_on,,,,,0,0,1,,,0,,,78,78
390244,note_off,,,,,0,0,1,,,0,,,78,64
390244,note_off,,,,,240,0,1,,,0,,,72,64
390244,note_on,,,,,0,0,1,,,0,,,73,78
390244,note_off,,,,,0,0,1,,,0,,,81,64
390304,note_off,,,,,60,0,2,,,0,,,61,64
390304,note_on,,,,,0,0,2,,,0,,,69,87
390340,set_tempo,,,,,260,1,0,410959,,,,,,
390364,note_off,,,,,60,0,2,,,0,,,69,64
390364,note_on,,,,,0,0,2,,,0,,,66,83
390424,note_on,,,,,0,0,2,,,0,,,69,84
390424,note_off,,,,,60,0,2,,,0,,,66,64
390454,control_change,,,,,30,0,2,,,0,64,0,,
390484,note_off,,,,,0,0,1,,,0,,,78,64
390484,note_on,,,,,0,0,1,,,0,,,74,90
390484,note_on,,,,,0,0,1,,,0,,,78,90
390484,note_off,,,,,30,0,2,,,0,,,69,64
390484,note_off,,,,,0,0,1,,,0,,,81,64
390484,control_change,,,,,0,0,2,,,0,64,127,,
390484,control_change,,,,,0,0,2,,,0,64,127,,
390484,note_on,,,,,0,0,2,,,0,,,62,97
390484,note_on,,,,,0,0,1,,,0,,,81,90
390484,note_off,,,,,240,0,1,,,0,,,73,64
390544,note_on,,,,,0,0,2,,,0,,,69,93
390544,note_off,,,,,60,0,2,,,0,,,62,64
390604,note_off,,,,,60,0,2,,,0,,,69,64
390604,note_on,,,,,0,0,2,,,0,,,66,88
390644,set_tempo,,,,,304,1,0,408163,,,,,,
390664,note_off,,,,,60,0,2,,,0,,,66,64
390664,note_on,,,,,0,0,2,,,0,,,69,83
390684,set_tempo,,,,,40,1,0,1538462,,,,,,
390694,control_change,,,,,30,0,2,,,0,64,0,,
390724,set_tempo,,,,,40,1,0,566038,,,,,,
390724,note_off,,,,,240,0,1,,,0,,,74,64
390724,note_off,,,,,0,0,1,,,0,,,78,64
390724,note_off,,,,,0,0,1,,,0,,,81,64
390724,note_off,,,,,30,0,2,,,0,,,69,64
390724,note_on,,,,,0,0,2,,,0,,,62,45
390724,control_change,,,,,0,0,2,,,0,64,127,,
390724,note_on,,,,,0,0,1,,,0,,,81,50
390784,note_off,,,,,60,0,2,,,0,,,62,64
390784,note_on,,,,,0,0,2,,,0,,,69,38
390800,set_tempo,,,,,76,1,0,512821,,,,,,
390844,note_on,,,,,0,0,2,,,0,,,66,35
390844,note_off,,,,,60,0,2,,,0,,,69,64
390860,set_tempo,,,,,60,1,0,491803,,,,,,
390904,note_off,,,,,60,0,2,,,0,,,66,64
390904,note_on,,,,,0,0,2,,,0,,,69,33
390940,set_tempo,,,,,80,1,0,468750,,,,,,
390964,note_off,,,,,60,0,2,,,0,,,69,64
390964,note_on,,,,,0,0,2,,,0,,,63,33
391020,set_tempo,,,,,80,1,0,451128,,,,,,
391024,note_off,,,,,60,0,2,,,0,,,63,64
391024,note_on,,,,,0,0,2,,,0,,,69,33
391024,note_on,,,,,0,0,1,,,0,,,82,44
391024,note_off,,,,,300,0,1,,,0,,,81,64
391084,note_off,,,,,60,0,2,,,0,,,69,64
391084,note_on,,,,,0,0,1,,,0,,,81,42
391084,note_on,,,,,0,0,2,,,0,,,66,32
391084,note_off,,,,,60,0,1,,,0,,,82,64
391100,set_tempo,,,,,80,1,0,447761,,,,,,
391140,set_tempo,,,,,40,1,0,428571,,,,,,
391144,note_off,,,,,60,0,1,,,0,,,81,64
391144,note_on,,,,,0,0,1,,,0,,,79,40
391144,control_change,,,,,0,0,2,,,0,64,0,,
391144,note_on,,,,,0,0,2,,,0,,,69,30
391144,note_off,,,,,60,0,2,,,0,,,66,64
391204,note_on,,,,,0,0,2,,,0,,,63,37
391204,control_change,,,,,0,0,2,,,0,64,127,,
391204,note_off,,,,,60,0,2,,,0,,,69,64
391204,control_change,,,,,0,0,2,,,0,64,127,,
391204,note_on,,,,,0,0,1,,,0,,,78,38
391204,note_off,,,,,60,0,1,,,0,,,79,64
391240,set_tempo,,,,,100,1,0,425532,,,,,,
391260,set_tempo,,,,,20,1,0,410959,,,,,,
391264,note_on,,,,,0,0,2,,,0,,,69,27
391264,note_off,,,,,60,0,2,,,0,,,63,64
391300,set_tempo,,,,,40,1,0,408163,,,,,,
391320,set_tempo,,,,,20,1,0,405405,,,,,,
391324,note_on,,,,,0,0,2,,,0,,,66,30
391324,note_off,,,,,120,0,1,,,0,,,78,64
391324,note_off,,,,,60,0,2,,,0,,,69,64
391384,note_on,,,,,0,0,2,,,0,,,69,34
391384,note_off,,,,,60,0,2,,,0,,,66,64
391384,control_change,,,,,0,0,2,,,0,64,0,,
391444,note_off,,,,,60,0,2,,,0,,,69,64
391444,note_on,,,,,0,0,2,,,0,,,62,41
391444,control_change,,,,,0,0,2,,,0,64,127,,
391444,control_change,,,,,0,0,2,,,0,64,127,,
391444,note_on,,,,,120,0,1,,,0,,,78,42
391504,note_on,,,,,0,0,2,,,0,,,69,32
391504,note_off,,,,,60,0,2,,,0,,,62,64
391564,note_on,,,,,0,0,2,,,0,,,66,35
391564,note_off,,,,,60,0,2,,,0,,,69,64
391624,control_change,,,,,0,0,2,,,0,64,0,,
391624,note_on,,,,,0,0,2,,,0,,,69,36
391624,note_off,,,,,60,0,2,,,0,,,66,64
391624,note_off,,,,,180,0,1,,,0,,,78,64
391644,set_tempo,,,,,324,1,0,454545,,,,,,
391664,set_tempo,,,,,20,1,0,458015,,,,,,
391684,note_on,,,,,60,0,1,,,0,,,78,50
391684,set_tempo,,,,,20,1,0,472441,,,,,,
391684,note_off,,,,,60,0,2,,,0,,,69,64
391684,control_change,,,,,0,0,2,,,0,64,127,,
391684,note_on,,,,,0,0,2,,,0,,,60,38
391704,set_tempo,,,,,20,1,0,476190,,,,,,
391724,set_tempo,,,,,20,1,0,465116,,,,,,
391744,note_on,,,,,0,0,2,,,0,,,69,33
391744,note_off,,,,,60,0,2,,,0,,,60,64
391744,set_tempo,,,,,20,1,0,454545,,,,,,
391764,set_tempo,,,,,20,1,0,444444,,,,,,
391784,set_tempo,,,,,20,1,0,425532,,,,,,
391804,note_on,,,,,0,0,2,,,0,,,66,29
391804,note_off,,,,,60,0,2,,,0,,,69,64
391864,note_on,,,,,0,0,2,,,0,,,69,28
391864,note_off,,,,,60,0,2,,,0,,,66,64
391924,note_on,,,,,0,0,2,,,0,,,60,29
391924,note_off,,,,,60,0,2,,,0,,,69,64
391944,set_tempo,,,,,160,1,0,428571,,,,,,
391960,set_tempo,,,,,16,1,0,434783,,,,,,
391984,note_on,,,,,0,0,2,,,0,,,69,25
391984,note_off,,,,,60,0,2,,,0,,,60,64
391984,note_off,,,,,300,0,1,,,0,,,78,64
391984,note_on,,,,,0,0,1,,,0,,,79,46
392044,note_off,,,,,60,0,1,,,0,,,79,64
392044,note_on,,,,,0,0,2,,,0,,,66,29
392044,note_on,,,,,0,0,1,,,0,,,78,44
392044,note_off,,,,,60,0,2,,,0,,,69,64
392104,note_on,,,,,0,0,2,,,0,,,69,31
392104,note_off,,,,,60,0,2,,,0,,,66,64
392104,note_off,,,,,60,0,1,,,0,,,78,64
392104,note_on,,,,,0,0,1,,,0,,,76,38
392104,control_change,,,,,0,0,2,,,0,64,0,,
392160,set_tempo,,,,,200,1,0,451128,,,,,,
392164,control_change,,,,,0,0,2,,,0,64,127,,
392164,note_off,,,,,60,0,1,,,0,,,76,64
392164,note_on,,,,,0,0,1,,,0,,,75,33
392164,note_off,,,,,60,0,2,,,0,,,69,64
392164,note_on,,,,,0,0,2,,,0,,,60,37
392164,control_change,,,,,0,0,2,,,0,64,127,,
392180,set_tempo,,,,,20,1,0,454545,,,,,,
392224,note_off,,,,,60,0,2,,,0,,,60,64
392224,note_on,,,,,0,0,2,,,0,,,69,27
392284,note_off,,,,,120,0,1,,,0,,,75,64
392284,note_off,,,,,60,0,2,,,0,,,69,64
392284,note_on,,,,,0,0,2,,,0,,,66,30
392344,note_off,,,,,60,0,2,,,0,,,66,64
392344,note_on,,,,,0,0,2,,,0,,,69,34
392344,control_change,,,,,0,0,2,,,0,64,0,,
392380,set_tempo,,,,,200,1,0,472441,,,,,,
392404,note_off,,,,,60,0,2,,,0,,,69,64
392404,note_on,,,,,0,0,2,,,0,,,59,41
392404,control_change,,,,,0,0,2,,,0,64,127,,
392404,control_change,,,,,0,0,2,,,0,64,127,,
392404,note_on,,,,,120,0,1,,,0,,,75,36
392440,set_tempo,,,,,60,1,0,476190,,,,,,
392464,note_off,,,,,60,0,2,,,0,,,59,64
392464,note_on,,,,,0,0,2,,,0,,,69,33
392524,note_off,,,,,60,0,2,,,0,,,69,64
392524,note_on,,,,,0,0,2,,,0,,,66,29
392560,set_tempo,,,,,120,1,0,491803,,,,,,
392580,set_tempo,,,,,20,1,0,495868,,,,,,
392584,control_change,,,,,0,0,2,,,0,64,0,,
392584,note_off,,,,,60,0,2,,,0,,,66,64
392584,note_off,,,,,180,0,1,,,0,,,75,64
392584,note_on,,,,,0,0,2,,,0,,,69,24
392644,note_on,,,,,60,0,1,,,0,,,75,43
392644,note_on,,,,,0,0,1,,,0,,,71,43
392644,control_change,,,,,0,0,2,,,0,64,127,,
392644,control_change,,,,,0,0,2,,,0,64,127,,
392644,note_on,,,,,0,0,2,,,0,,,59,34
392644,note_off,,,,,60,0,2,,,0,,,69,64
392700,set_tempo,,,,,120,1,0,451128,,,,,,
392704,note_on,,,,,0,0,2,,,0,,,69,33
392704,note_off,,,,,60,0,2,,,0,,,59,64
392764,note_on,,,,,0,0,2,,,0,,,66,35
392764,note_off,,,,,60,0,2,,,0,,,69,64
392804,note_off,,,,,0,0,1,,,0,,,75,64
392804,note_off,,,,,160,0,1,,,0,,,71,64
392824,note_on,,,,,0,0,1,,,0,,,71,48
392824,note_on,,,,,20,0,1,,,0,,,75,48
392824,note_off,,,,,60,0,2,,,0,,,66,64
392824,note_on,,,,,0,0,2,,,0,,,69,40
392854,control_change,,,,,30,0,2,,,0,64,0,,
392868,note_off,,,,,44,0,1,,,0,,,71,64
392868,note_off,,,,,0,0,1,,,0,,,75,64
392884,note_on,,,,,16,0,1,,,0,,,76,52
392884,note_off,,,,,30,0,2,,,0,,,69,64
392884,note_on,,,,,0,0,2,,,0,,,59,41
392884,control_change,,,,,0,0,2,,,0,64,127,,
392884,control_change,,,,,0,0,2,,,0,64,127,,
392884,note_on,,,,,0,0,1,,,0,,,71,52
392944,note_off,,,,,60,0,2,,,0,,,59,64
392944,note_on,,,,,0,0,2,,,0,,,69,43
392980,set_tempo,,,,,280,1,0,434783,,,,,,
393004,note_off,,,,,60,0,2,,,0,,,69,64
393004,note_on,,,,,0,0,2,,,0,,,66,45
393044,note_off,,,,,160,0,1,,,0,,,71,64
393044,note_off,,,,,0,0,1,,,0,,,76,64
393064,note_on,,,,,20,0,1,,,0,,,76,42
393064,note_off,,,,,60,0,2,,,0,,,66,64
393064,note_on,,,,,0,0,2,,,0,,,69,47
393064,note_on,,,,,0,0,1,,,0,,,71,42
393094,control_change,,,,,30,0,2,,,0,64,0,,
393108,note_off,,,,,44,0,1,,,0,,,71,64
393108,note_off,,,,,0,0,1,,,0,,,76,64
393120,set_tempo,,,,,140,1,0,428571,,,,,,
393124,note_on,,,,,16,0,1,,,0,,,78,55
393124,note_on,,,,,0,0,1,,,0,,,75,55
393124,note_on,,,,,0,0,1,,,0,,,71,55
393124,note_off,,,,,30,0,2,,,0,,,69,64
393124,note_on,,,,,0,0,2,,,0,,,59,48
393124,control_change,,,,,0,0,2,,,0,64,127,,
393124,control_change,,,,,0,0,2,,,0,64,127,,
393184,note_on,,,,,0,0,2,,,0,,,66,49
393184,note_off,,,,,60,0,2,,,0,,,59,64
393220,set_tempo,,,,,100,1,0,431655,,,,,,
393244,note_off,,,,,60,0,2,,,0,,,66,64
393244,note_on,,,,,0,0,2,,,0,,,63,51
393284,note_off,,,,,0,0,1,,,0,,,78,64
393284,note_off,,,,,0,0,1,,,0,,,75,64
393284,note_off,,,,,160,0,1,,,0,,,71,64
393304,note_on,,,,,20,0,1,,,0,,,78,45
393304,note_on,,,,,0,0,1,,,0,,,71,45
393304,note_on,,,,,0,0,1,,,0,,,75,45
393304,note_off,,,,,60,0,2,,,0,,,63,64
393304,note_on,,,,,0,0,2,,,0,,,66,52
393334,control_change,,,,,30,0,2,,,0,64,0,,
393348,note_off,,,,,44,0,1,,,0,,,71,64
393348,note_off,,,,,0,0,1,,,0,,,75,64
393348,note_off,,,,,0,0,1,,,0,,,78,64
393360,set_tempo,,,,,140,1,0,416667,,,,,,
393364,note_on,,,,,0,0,1,,,0,,,71,60
393364,control_change,,,,,0,0,2,,,0,64,127,,
393364,note_on,,,,,16,0,1,,,0,,,79,60
393364,note_on,,,,,0,0,2,,,0,,,59,53
393364,control_change,,,,,0,0,2,,,0,64,127,,
393364,note_off,,,,,30,0,2,,,0,,,66,64
393364,note_on,,,,,0,0,1,,,0,,,76,60
393424,note_on,,,,,0,0,2,,,0,,,67,55
393424,note_off,,,,,60,0,2,,,0,,,59,64
393484,note_on,,,,,0,0,2,,,0,,,64,58
393484,note_off,,,,,60,0,2,,,0,,,67,64
393524,note_off,,,,,160,0,1,,,0,,,71,64
393524,note_off,,,,,0,0,1,,,0,,,76,64
393524,note_off,,,,,0,0,1,,,0,,,79,64
393544,note_on,,,,,0,0,2,,,0,,,67,61
393544,note_off,,,,,60,0,2,,,0,,,64,64
393544,note_on,,,,,20,0,1,,,0,,,79,50
393544,note_on,,,,,0,0,1,,,0,,,76,50
393544,note_on,,,,,0,0,1,,,0,,,71,50
393574,control_change,,,,,30,0,2,,,0,64,0,,
393588,note_off,,,,,0,0,1,,,0,,,76,64
393588,note_off,,,,,44,0,1,,,0,,,71,64
393588,note_off,,,,,0,0,1,,,0,,,79,64
393604,note_off,,,,,30,0,2,,,0,,,67,64
393604,note_on,,,,,0,0,2,,,0,,,59,64
393604,control_change,,,,,0,0,2,,,0,64,127,,
393604,control_change,,,,,0,0,2,,,0,64,127,,
393604,note_on,,,,,0,0,1,,,0,,,71,67
393604,note_on,,,,,0,0,1,,,0,,,78,67
393604,note_on,,,,,16,0,1,,,0,,,81,67
393640,set_tempo,,,,,280,1,0,402685,,,,,,
393664,note_off,,,,,60,0,2,,,0,,,59,64
393664,note_on,,,,,0,0,2,,,0,,,69,67
393724,note_off,,,,,60,0,2,,,0,,,69,64
393724,note_on,,,,,0,0,2,,,0,,,66,69
393764,note_off,,,,,160,0,1,,,0,,,71,64
393764,note_off,,,,,0,0,1,,,0,,,81,64
393764,note_off,,,,,0,0,1,,,0,,,78,64
393784,note_on,,,,,20,0,1,,,0,,,81,57
393784,note_on,,,,,0,0,1,,,0,,,71,57
393784,note_on,,,,,0,0,2,,,0,,,69,71
393784,note_off,,,,,60,0,2,,,0,,,66,64
393784,note_on,,,,,0,0,1,,,0,,,78,57
393814,control_change,,,,,30,0,2,,,0,64,0,,
393828,note_off,,,,,0,0,1,,,0,,,78,64
393828,note_off,,,,,44,0,1,,,0,,,71,64
393828,note_off,,,,,0,0,1,,,0,,,81,64
393844,note_on,,,,,0,0,2,,,0,,,60,74
393844,note_on,,,,,0,0,1,,,0,,,78,77
393844,note_off,,,,,30,0,2,,,0,,,69,64
393844,note_on,,,,,16,0,1,,,0,,,81,77
393844,control_change,,,,,0,0,2,,,0,64,127,,
393844,control_change,,,,,0,0,2,,,0,64,127,,
393844,note_on,,,,,0,0,1,,,0,,,72,77
393904,note_on,,,,,0,0,2,,,0,,,69,75
393904,note_off,,,,,60,0,2,,,0,,,60,64
393964,note_off,,,,,60,0,2,,,0,,,69,64
393964,note_on,,,,,0,0,2,,,0,,,66,76
394000,set_tempo,,,,,360,1,0,394737,,,,,,
394004,note_off,,,,,0,0,1,,,0,,,81,64
394004,note_off,,,,,0,0,1,,,0,,,78,64
394004,note_off,,,,,160,0,1,,,0,,,72,64
394024,note_on,,,,,20,0,1,,,0,,,81,67
394024,note_on,,,,,0,0,1,,,0,,,78,67
394024,note_on,,,,,0,0,1,,,0,,,72,67
394024,note_off,,,,,60,0,2,,,0,,,66,64
394024,note_on,,,,,0,0,2,,,0,,,69,70
394054,control_change,,,,,30,0,2,,,0,64,0,,
394068,note_off,,,,,44,0,1,,,0,,,72,64
394068,note_off,,,,,0,0,1,,,0,,,78,64
394068,note_off,,,,,0,0,1,,,0,,,81,64
394084,note_on,,,,,16,0,1,,,0,,,81,85
394084,note_on,,,,,0,0,1,,,0,,,78,85
394084,note_off,,,,,30,0,2,,,0,,,69,64
394084,note_on,,,,,0,0,2,,,0,,,61,83
394084,control_change,,,,,0,0,2,,,0,64,127,,
394084,note_on,,,,,0,0,1,,,0,,,73,85
394084,control_change,,,,,0,0,2,,,0,64,127,,
394144,note_on,,,,,0,0,2,,,0,,,69,87
394144,note_off,,,,,60,0,2,,,0,,,61,64
394204,note_on,,,,,0,0,2,,,0,,,66,83
394204,note_off,,,,,60,0,2,,,0,,,69,64
394244,note_off,,,,,0,0,1,,,0,,,81,64
394244,note_off,,,,,0,0,1,,,0,,,78,64
394244,note_off,,,,,160,0,1,,,0,,,73,64
394264,note_off,,,,,60,0,2,,,0,,,66,64
394264,note_on,,,,,0,0,2,,,0,,,69,84
394264,note_on,,,,,0,0,1,,,0,,,73,75
394264,note_on,,,,,0,0,1,,,0,,,78,75
394264,note_on,,,,,20,0,1,,,0,,,81,75
394294,control_change,,,,,30,0,2,,,0,64,0,,
394308,note_off,,,,,0,0,1,,,0,,,81,64
394308,note_off,,,,,0,0,1,,,0,,,78,64
394308,note_off,,,,,44,0,1,,,0,,,73,64
394324,note_off,,,,,30,0,2,,,0,,,69,64
394324,control_change,,,,,0,0,2,,,0,64,127,,
394324,note_on,,,,,0,0,2,,,0,,,62,97
394324,note_on,,,,,0,0,1,,,0,,,74,89
394324,control_change,,,,,0,0,2,,,0,64,127,,
394324,note_on,,,,,16,0,1,,,0,,,81,89
394324,note_on,,,,,0,0,1,,,0,,,78,89
394384,note_on,,,,,0,0,2,,,0,,,69,93
394384,note_off,,,,,60,0,2,,,0,,,62,64
394444,note_on,,,,,0,0,2,,,0,,,66,88
394444,note_off,,,,,60,0,2,,,0,,,69,64
394504,note_on,,,,,0,0,2,,,0,,,69,83
394504,note_off,,,,,60,0,2,,,0,,,66,64
394504,set_tempo,,,,,504,1,0,625000,,,,,,
394524,set_tempo,,,,,20,1,0,1000000,,,,,,
394534,control_change,,,,,30,0,2,,,0,64,0,,
394544,note_off,,,,,0,0,1,,,0,,,78,64
394544,note_off,,,,,0,0,1,,,0,,,81,64
394544,note_off,,,,,220,0,1,,,0,,,74,64
394564,note_on,,,,,20,0,1,,,0,,,81,50
394564,control_change,,,,,0,0,2,,,0,64,127,,
394564,note_on,,,,,0,0,2,,,0,,,62,45
394564,note_off,,,,,30,0,2,,,0,,,69,64
394584,set_tempo,,,,,60,1,0,550459,,,,,,
394600,set_tempo,,,,,16,1,0,535714,,,,,,
394624,note_on,,,,,0,0,2,,,0,,,69,38
394624,note_off,,,,,60,0,2,,,0,,,62,64
394684,note_off,,,,,60,0,2,,,0,,,69,64
394684,note_on,,,,,0,0,2,,,0,,,66,35
394744,note_on,,,,,0,0,2,,,0,,,69,33
394744,note_off,,,,,60,0,2,,,0,,,66,64
394794,control_change,,,,,50,0,2,,,0,64,0,,
394804,control_change,,,,,0,0,2,,,0,64,127,,
394804,note_on,,,,,0,0,2,,,0,,,63,33
394804,note_off,,,,,10,0,2,,,0,,,69,64
394820,set_tempo,,,,,220,1,0,517241,,,,,,
394860,set_tempo,,,,,40,1,0,512821,,,,,,
394864,note_on,,,,,0,0,2,,,0,,,69,33
394864,note_off,,,,,60,0,2,,,0,,,63,64
394880,set_tempo,,,,,20,1,0,508475,,,,,,
394924,note_off,,,,,360,0,1,,,0,,,81,64
394924,note_on,,,,,0,0,1,,,0,,,79,42
394924,note_off,,,,,60,0,2,,,0,,,69,64
394924,note_on,,,,,0,0,2,,,0,,,66,32
394984,note_off,,,,,60,0,2,,,0,,,66,64
394984,control_change,,,,,0,0,2,,,0,64,0,,
394984,note_on,,,,,0,0,2,,,0,,,69,30
395040,set_tempo,,,,,160,1,0,480000,,,,,,
395044,control_change,,,,,0,0,2,,,0,64,127,,
395044,note_off,,,,,60,0,2,,,0,,,69,64
395044,note_on,,,,,0,0,1,,,0,,,78,33
395044,note_off,,,,,120,0,1,,,0,,,79,64
395044,control_change,,,,,0,0,2,,,0,64,127,,
395044,note_on,,,,,0,0,2,,,0,,,62,37
395104,note_off,,,,,60,0,2,,,0,,,62,64
395104,note_on,,,,,0,0,2,,,0,,,69,27
395164,note_off,,,,,120,0,1,,,0,,,78,64
395164,note_off,,,,,60,0,2,,,0,,,69,64
395164,note_on,,,,,0,0,2,,,0,,,66,30
395220,set_tempo,,,,,180,1,0,454545,,,,,,
395224,note_off,,,,,60,0,2,,,0,,,66,64
395224,note_on,,,,,0,0,2,,,0,,,69,34
395224,control_change,,,,,0,0,2,,,0,64,0,,
395284,note_off,,,,,60,0,2,,,0,,,69,64
395284,control_change,,,,,0,0,2,,,0,64,127,,
395284,control_change,,,,,0,0,2,,,0,64,127,,
395284,note_on,,,,,0,0,2,,,0,,,60,41
395284,note_on,,,,,120,0,1,,,0,,,78,42
395344,note_on,,,,,0,0,2,,,0,,,69,32
395344,note_off,,,,,60,0,2,,,0,,,60,64
395404,note_on,,,,,0,0,2,,,0,,,66,35
395404,note_off,,,,,60,0,2,,,0,,,69,64
395464,note_off,,,,,60,0,2,,,0,,,66,64
395464,note_on,,,,,0,0,2,,,0,,,69,36
395464,control_change,,,,,0,0,2,,,0,64,0,,
395464,note_off,,,,,180,0,1,,,0,,,78,64
395494,note_on,,,,,30,0,1,,,0,,,81,52
395524,control_change,,,,,0,0,2,,,0,64,127,,
395524,note_off,,,,,30,0,1,,,0,,,81,64
395524,note_on,,,,,0,0,1,,,0,,,79,50
395524,note_off,,,,,60,0,2,,,0,,,69,64
395524,note_on,,,,,0,0,2,,,0,,,58,41
395524,control_change,,,,,0,0,2,,,0,64,127,,
395560,set_tempo,,,,,340,1,0,444444,,,,,,
395584,note_off,,,,,60,0,2,,,0,,,58,64
395584,note_off,,,,,60,0,1,,,0,,,79,64
395584,note_on,,,,,0,0,1,,,0,,,78,49
395584,note_on,,,,,0,0,2,,,0,,,67,32
395644,note_on,,,,,0,0,2,,,0,,,62,35
395644,note_off,,,,,60,0,2,,,0,,,67,64
395644,note_on,,,,,0,0,1,,,0,,,79,49
395644,note_off,,,,,60,0,1,,,0,,,78,64
395704,note_off,,,,,60,0,2,,,0,,,62,64
395704,control_change,,,,,0,0,2,,,0,64,0,,
395704,note_on,,,,,0,0,1,,,0,,,81,50
395704,note_off,,,,,60,0,1,,,0,,,79,64
395704,note_on,,,,,0,0,2,,,0,,,67,36
395734,note_on,,,,,0,0,1,,,0,,,84,52
395734,note_off,,,,,30,0,1,,,0,,,81,64
395740,set_tempo,,,,,180,1,0,441176,,,,,,
395760,set_tempo,,,,,20,1,0,434783,,,,,,
395764,note_on,,,,,0,0,2,,,0,,,57,41
395764,control_change,,,,,0,0,2,,,0,64,127,,
395764,control_change,,,,,0,0,2,,,0,64,127,,
395764,note_off,,,,,60,0,2,,,0,,,67,64
395764,note_off,,,,,30,0,1,,,0,,,84,64
395764,note_on,,,,,0,0,1,,,0,,,82,54
395820,set_tempo,,,,,60,1,0,422535,,,,,,
395824,note_on,,,,,0,0,1,,,0,,,81,57
395824,note_off,,,,,60,0,1,,,0,,,82,64
395824,note_off,,,,,60,0,2,,,0,,,57,64
395824,note_on,,,,,0,0,2,,,0,,,67,35
395884,note_on,,,,,0,0,1,,,0,,,82,61
395884,note_off,,,,,60,0,1,,,0,,,81,64
395884,note_off,,,,,60,0,2,,,0,,,67,64
395884,note_on,,,,,0,0,2,,,0,,,60,40
395944,note_on,,,,,0,0,1,,,0,,,84,66
395944,note_off,,,,,60,0,1,,,0,,,82,64
395944,control_change,,,,,0,0,2,,,0,64,0,,
395944,note_on,,,,,0,0,2,,,0,,,67,42
395944,note_off,,,,,60,0,2,,,0,,,60,64
395980,set_tempo,,,,,160,1,0,416667,,,,,,
396004,note_on,,,,,0,0,1,,,0,,,86,70
396004,control_change,,,,,0,0,2,,,0,64,127,,
396004,control_change,,,,,0,0,2,,,0,64,127,,
396004,note_on,,,,,0,0,2,,,0,,,55,45
396004,note_off,,,,,60,0,1,,,0,,,84,64
396004,note_off,,,,,60,0,2,,,0,,,67,64
396064,note_off,,,,,60,0,2,,,0,,,55,64
396064,note_on,,,,,0,0,2,,,0,,,67,47
396100,set_tempo,,,,,120,1,0,434783,,,,,,
396124,note_on,,,,,0,0,2,,,0,,,58,45
396124,note_off,,,,,120,0,1,,,0,,,86,64
396124,note_off,,,,,60,0,2,,,0,,,67,64
396184,note_on,,,,,0,0,2,,,0,,,67,43
396184,control_change,,,,,0,0,2,,,0,64,0,,
396184,note_off,,,,,60,0,2,,,0,,,58,64
396244,note_off,,,,,60,0,2,,,0,,,67,64
396244,note_on,,,,,0,0,2,,,0,,,58,43
396244,control_change,,,,,0,0,2,,,0,64,127,,
396244,control_change,,,,,0,0,2,,,0,64,127,,
396244,note_on,,,,,120,0,1,,,0,,,86,50
396304,note_off,,,,,60,0,2,,,0,,,58,64
396304,note_on,,,,,0,0,2,,,0,,,67,41
396340,set_tempo,,,,,240,1,0,454545,,,,,,
396364,note_off,,,,,60,0,2,,,0,,,67,64
396364,note_on,,,,,0,0,2,,,0,,,62,39
396364,note_off,,,,,120,0,1,,,0,,,86,64
396364,note_on,,,,,0,0,1,,,0,,,82,47
396420,set_tempo,,,,,80,1,0,480000,,,,,,
396424,note_on,,,,,0,0,2,,,0,,,67,36
396424,control_change,,,,,0,0,2,,,0,64,0,,
396424,note_off,,,,,60,0,2,,,0,,,62,64
396454,note_off,,,,,90,0,1,,,0,,,82,64
396460,set_tempo,,,,,40,1,0,483871,,,,,,
396484,control_change,,,,,0,0,2,,,0,64,127,,
396484,note_on,,,,,30,0,1,,,0,,,81,50
396484,note_on,,,,,0,0,2,,,0,,,62,45
396484,note_off,,,,,60,0,2,,,0,,,67,64
396500,set_tempo,,,,,40,1,0,504202,,,,,,
396540,set_tempo,,,,,40,1,0,476190,,,,,,
396544,note_off,,,,,60,0,2,,,0,,,62,64
396544,note_on,,,,,0,0,2,,,0,,,69,38
396560,set_tempo,,,,,20,1,0,472441,,,,,,
396604,note_off,,,,,60,0,2,,,0,,,69,64
396604,note_on,,,,,0,0,2,,,0,,,66,35
396664,note_off,,,,,60,0,2,,,0,,,66,64
396664,note_on,,,,,0,0,2,,,0,,,69,33
396716,control_change,,,,,52,0,2,,,0,64,0,,
396724,note_on,,,,,0,0,2,,,0,,,63,33
396724,control_change,,,,,0,0,2,,,0,64,127,,
396724,note_off,,,,,8,0,2,,,0,,,69,64
396784,note_on,,,,,0,0,2,,,0,,,69,33
396784,note_off,,,,,60,0,2,,,0,,,63,64
396844,note_off,,,,,60,0,2,,,0,,,69,64
396844,note_on,,,,,0,0,1,,,0,,,79,42
396844,note_off,,,,,360,0,1,,,0,,,81,64
396844,note_on,,,,,0,0,2,,,0,,,66,32
396904,control_change,,,,,0,0,2,,,0,64,0,,
396904,note_on,,,,,0,0,2,,,0,,,69,30
396904,note_off,,,,,60,0,2,,,0,,,66,64
396964,note_on,,,,,0,0,2,,,0,,,62,37
396964,control_change,,,,,0,0,2,,,0,64,127,,
396964,note_off,,,,,120,0,1,,,0,,,79,64
396964,note_on,,,,,0,0,1,,,0,,,78,33
396964,control_change,,,,,0,0,2,,,0,64,127,,
396964,note_off,,,,,60,0,2,,,0,,,69,64
397024,note_on,,,,,0,0,2,,,0,,,69,32
397024,note_off,,,,,60,0,2,,,0,,,62,64
397084,note_off,,,,,120,0,1,,,0,,,78,64
397084,note_on,,,,,0,0,2,,,0,,,66,35
397084,note_off,,,,,60,0,2,,,0,,,69,64
397144,control_change,,,,,0,0,2,,,0,64,0,,
397144,note_off,,,,,60,0,2,,,0,,,66,64
397144,note_on,,,,,0,0,2,,,0,,,69,38
397200,set_tempo,,,,,640,1,0,454545,,,,,,
397204,note_on,,,,,0,0,1,,,0,,,78,53
397204,note_off,,,,,60,0,2,,,0,,,69,64
397204,note_on,,,,,0,0,2,,,0,,,60,43
397204,control_change,,,,,0,0,2,,,0,64,127,,
397204,control_change,,,,,0,0,2,,,0,64,127,,
397204,note_on,,,,,120,0,1,,,0,,,90,53
397264,note_off,,,,,60,0,2,,,0,,,60,64
397264,note_on,,,,,0,0,2,,,0,,,69,36
397324,note_off,,,,,60,0,2,,,0,,,69,64
397324,note_on,,,,,0,0,2,,,0,,,66,31
397384,note_off,,,,,180,0,1,,,0,,,78,64
397384,note_off,,,,,0,0,1,,,0,,,90,64
397384,control_change,,,,,0,0,2,,,0,64,0,,
397384,note_off,,,,,60,0,2,,,0,,,66,64
397384,note_on,,,,,0,0,2,,,0,,,69,27
397444,note_on,,,,,60,0,1,,,0,,,91,57
397444,note_on,,,,,0,0,1,,,0,,,79,57
397444,note_off,,,,,60,0,2,,,0,,,69,64
397444,note_on,,,,,0,0,2,,,0,,,58,49
397444,control_change,,,,,0,0,2,,,0,64,127,,
397444,control_change,,,,,0,0,2,,,0,64,127,,
397504,note_off,,,,,60,0,2,,,0,,,58,64
397504,note_on,,,,,0,0,2,,,0,,,70,38
397564,note_off,,,,,120,0,1,,,0,,,79,64
397564,note_off,,,,,0,0,1,,,0,,,91,64
397564,note_off,,,,,60,0,2,,,0,,,70,64
397564,note_on,,,,,0,0,1,,,0,,,94,55
397564,note_on,,,,,0,0,2,,,0,,,67,40
397564,note_on,,,,,0,0,1,,,0,,,82,55
397624,note_off,,,,,60,0,2,,,0,,,67,64
397624,control_change,,,,,0,0,2,,,0,64,0,,
397624,note_on,,,,,0,0,2,,,0,,,70,41
397684,note_on,,,,,0,0,1,,,0,,,96,59
397684,note_off,,,,,0,0,1,,,0,,,94,64
397684,note_on,,,,,0,0,1,,,0,,,84,59
397684,control_change,,,,,0,0,2,,,0,64,127,,
397684,control_change,,,,,0,0,2,,,0,64,127,,
397684,note_on,,,,,0,0,2,,,0,,,58,45
397684,note_off,,,,,60,0,2,,,0,,,70,64
397684,note_off,,,,,120,0,1,,,0,,,82,64
397720,set_tempo,,,,,520,1,0,444444,,,,,,
397744,note_off,,,,,60,0,2,,,0,,,58,64
397744,note_on,,,,,0,0,2,,,0,,,70,47
397804,note_off,,,,,120,0,1,,,0,,,84,64
397804,note_on,,,,,0,0,1,,,0,,,86,65
397804,note_on,,,,,0,0,1,,,0,,,98,65
397804,note_off,,,,,60,0,2,,,0,,,70,64
397804,note_on,,,,,0,0,2,,,0,,,67,50
397804,note_off,,,,,0,0,1,,,0,,,96,64
397864,note_off,,,,,60,0,2,,,0,,,67,64
397864,control_change,,,,,0,0,2,,,0,64,0,,
397864,note_on,,,,,0,0,2,,,0,,,70,56
397924,note_off,,,,,120,0,1,,,0,,,86,64
397924,note_off,,,,,60,0,2,,,0,,,70,64
397924,note_on,,,,,0,0,2,,,0,,,58,59
397924,control_change,,,,,0,0,2,,,0,64,127,,
397924,control_change,,,,,0,0,2,,,0,64,127,,
397924,note_on,,,,,0,0,1,,,0,,,87,74
397924,note_on,,,,,0,0,1,,,0,,,99,74
397924,note_off,,,,,0,0,1,,,0,,,98,64
397984,note_off,,,,,60,0,2,,,0,,,58,64
397984,note_on,,,,,0,0,2,,,0,,,70,57
398044,note_off,,,,,60,0,2,,,0,,,70,64
398044,note_on,,,,,0,0,2,,,0,,,67,53
398104,note_off,,,,,0,0,1,,,0,,,99,64
398104,note_off,,,,,180,0,1,,,0,,,87,64
398104,note_on,,,,,0,0,2,,,0,,,70,48
398104,control_change,,,,,0,0,2,,,0,64,0,,
398104,note_off,,,,,60,0,2,,,0,,,67,64
398164,control_change,,,,,0,0,2,,,0,64,127,,
398164,note_on,,,,,0,0,2,,,0,,,58,51
398164,note_off,,,,,60,0,2,,,0,,,70,64
398164,note_on,,,,,0,0,1,,,0,,,84,67
398164,control_change,,,,,0,0,2,,,0,64,127,,
398164,note_on,,,,,60,0,1,,,0,,,96,67
398224,note_on,,,,,0,0,2,,,0,,,72,48
398224,note_off,,,,,60,0,2,,,0,,,58,64
398284,note_off,,,,,60,0,2,,,0,,,72,64
398284,note_on,,,,,0,0,2,,,0,,,68,43
398344,note_off,,,,,60,0,2,,,0,,,68,64
398344,note_on,,,,,0,0,2,,,0,,,72,39
398344,control_change,,,,,0,0,2,,,0,64,0,,
398400,set_tempo,,,,,680,1,0,465116,,,,,,
398404,note_off,,,,,0,0,1,,,0,,,96,64
398404,note_off,,,,,60,0,2,,,0,,,72,64
398404,control_change,,,,,0,0,2,,,0,64,127,,
398404,control_change,,,,,0,0,2,,,0,64,127,,
398404,note_off,,,,,240,0,1,,,0,,,84,64
398404,note_on,,,,,0,0,2,,,0,,,58,46
398404,note_on,,,,,0,0,1,,,0,,,82,70
398404,note_on,,,,,0,0,1,,,0,,,94,70
398464,note_on,,,,,0,0,2,,,0,,,70,45
398464,note_off,,,,,60,0,2,,,0,,,58,64
398524,note_off,,,,,60,0,2,,,0,,,70,64
398524,note_on,,,,,0,0,2,,,0,,,67,39
398584,note_off,,,,,60,0,2,,,0,,,67,64
398584,control_change,,,,,0,0,2,,,0,64,0,,
398584,note_on,,,,,0,0,2,,,0,,,70,36
398644,note_on,,,,,0,0,1,,,0,,,92,54
398644,note_off,,,,,0,0,1,,,0,,,94,64
398644,note_off,,,,,240,0,1,,,0,,,82,64
398644,note_on,,,,,0,0,1,,,0,,,80,54
398644,control_change,,,,,0,0,2,,,0,64,127,,
398644,note_off,,,,,60,0,2,,,0,,,70,64
398644,note_on,,,,,0,0,2,,,0,,,58,40
398644,control_change,,,,,0,0,2,,,0,64,127,,
398660,set_tempo,,,,,260,1,0,483871,,,,,,
398704,note_off,,,,,60,0,2,,,0,,,58,64
398704,note_on,,,,,0,0,2,,,0,,,68,37
398764,note_off,,,,,60,0,2,,,0,,,68,64
398764,note_on,,,,,0,0,2,,,0,,,65,36
398824,note_off,,,,,60,0,2,,,0,,,65,64
398824,note_on,,,,,0,0,2,,,0,,,68,34
398824,control_change,,,,,0,0,2,,,0,64,0,,
398884,note_off,,,,,0,0,1,,,0,,,92,64
398884,note_on,,,,,0,0,2,,,0,,,58,39
398884,control_change,,,,,0,0,2,,,0,64,127,,
398884,control_change,,,,,0,0,2,,,0,64,127,,
398884,note_off,,,,,60,0,2,,,0,,,68,64
398884,note_on,,,,,0,0,1,,,0,,,91,51
398884,note_on,,,,,0,0,1,,,0,,,79,51
398884,note_off,,,,,240,0,1,,,0,,,80,64
398900,set_tempo,,,,,240,1,0,508475,,,,,,
398944,note_on,,,,,0,0,2,,,0,,,67,27
398944,note_off,,,,,60,0,2,,,0,,,58,64
399004,note_off,,,,,60,0,2,,,0,,,67,64
399004,note_on,,,,,0,0,2,,,0,,,63,25
399064,control_change,,,,,0,0,2,,,0,64,0,,
399064,note_on,,,,,0,0,2,,,0,,,67,21
399064,note_off,,,,,60,0,2,,,0,,,63,64
399124,note_off,,,,,240,0,1,,,0,,,79,64
399124,note_off,,,,,0,0,1,,,0,,,91,64
399124,control_change,,,,,0,0,2,,,0,64,127,,
399124,note_on,,,,,0,0,2,,,0,,,58,35
399124,note_on,,,,,0,0,1,,,0,,,89,40
399124,control_change,,,,,0,0,2,,,0,64,127,,
399124,note_off,,,,,60,0,2,,,0,,,67,64
399124,note_on,,,,,0,0,1,,,0,,,77,40
399184,note_on,,,,,0,0,2,,,0,,,65,23
399184,note_off,,,,,60,0,2,,,0,,,58,64
399240,set_tempo,,,,,340,1,0,618557,,,,,,
399244,note_off,,,,,60,0,2,,,0,,,65,64
399244,note_on,,,,,0,0,2,,,0,,,61,21
399260,set_tempo,,,,,20,1,0,631579,,,,,,
399304,note_off,,,,,60,0,2,,,0,,,61,64
399304,note_on,,,,,0,0,2,,,0,,,65,18
399304,control_change,,,,,0,0,2,,,0,64,0,,
399340,set_tempo,,,,,80,1,0,666667,,,,,,
399364,note_off,,,,,0,0,1,,,0,,,89,64
399364,note_on,,,,,0,0,1,,,0,,,76,31
399364,note_off,,,,,60,0,2,,,0,,,65,64
399364,control_change,,,,,0,0,2,,,0,64,127,,
399364,control_change,,,,,0,0,2,,,0,64,127,,
399364,note_on,,,,,0,0,2,,,0,,,58,30
399364,note_off,,,,,240,0,1,,,0,,,77,64
399364,note_on,,,,,0,0,1,,,0,,,88,31
399400,set_tempo,,,,,60,1,0,612245,,,,,,
399424,note_off,,,,,60,0,2,,,0,,,58,64
399424,note_on,,,,,0,0,2,,,0,,,64,28
399480,set_tempo,,,,,80,1,0,582524,,,,,,
399484,note_off,,,,,60,0,2,,,0,,,64,64
399484,note_on,,,,,0,0,2,,,0,,,61,26
399544,note_off,,,,,60,0,2,,,0,,,61,64
399544,control_change,,,,,0,0,2,,,0,64,0,,
399544,note_on,,,,,0,0,2,,,0,,,64,25
399560,set_tempo,,,,,80,1,0,540541,,,,,,
399604,note_off,,,,,60,0,2,,,0,,,64,64
399604,control_change,,,,,0,0,2,,,0,64,127,,
399604,note_on,,,,,0,0,2,,,0,,,58,24
399604,control_change,,,,,0,0,2,,,0,64,127,,
399640,set_tempo,,,,,80,1,0,526316,,,,,,
399664,note_off,,,,,60,0,2,,,0,,,58,64
399664,note_on,,,,,0,0,2,,,0,,,64,24
399724,note_off,,,,,60,0,2,,,0,,,64,64
399724,note_on,,,,,0,0,2,,,0,,,61,24
399784,note_on,,,,,0,0,2,,,0,,,64,24
399784,control_change,,,,,0,0,2,,,0,64,0,,
399784,note_off,,,,,60,0,2,,,0,,,61,64
399844,control_change,,,,,0,0,2,,,0,64,127,,
399844,note_off,,,,,60,0,2,,,0,,,64,64
399844,note_on,,,,,0,0,2,,,0,,,58,26
399844,control_change,,,,,0,0,2,,,0,64,127,,
399880,set_tempo,,,,,240,1,0,545455,,,,,,
399904,note_off,,,,,60,0,2,,,0,,,58,64
399904,note_on,,,,,0,0,2,,,0,,,64,25
399964,note_on,,,,,0,0,2,,,0,,,61,23
399964,note_off,,,,,60,0,2,,,0,,,64,64
400024,note_off,,,,,60,0,2,,,0,,,61,64
400024,control_change,,,,,0,0,2,,,0,64,0,,
400024,note_on,,,,,0,0,2,,,0,,,64,19
400040,set_tempo,,,,,160,1,0,571429,,,,,,
400084,note_off,,,,,60,0,2,,,0,,,64,64
400084,control_change,,,,,0,0,2,,,0,64,127,,
400084,control_change,,,,,0,0,2,,,0,64,127,,
400084,note_on,,,,,0,0,2,,,0,,,58,19
400144,note_on,,,,,0,0,2,,,0,,,64,18
400144,note_off,,,,,60,0,2,,,0,,,58,64
400204,note_on,,,,,0,0,2,,,0,,,61,18
400204,note_off,,,,,60,0,2,,,0,,,64,64
400264,note_on,,,,,0,0,2,,,0,,,64,16
400264,control_change,,,,,0,0,2,,,0,64,0,,
400264,note_off,,,,,60,0,2,,,0,,,61,64
400324,note_on,,,,,0,0,2,,,0,,,58,16
400324,control_change,,,,,0,0,2,,,0,64,127,,
400324,control_change,,,,,0,0,2,,,0,64,127,,
400324,note_off,,,,,60,0,2,,,0,,,64,64
400384,note_on,,,,,0,0,2,,,0,,,64,15
400384,note_off,,,,,60,0,2,,,0,,,58,64
400414,note_off,,,,,0,0,1,,,0,,,88,64
400414,note_off,,,,,1050,0,1,,,0,,,76,64
400444,note_on,,,,,30,0,1,,,0,,,76,29
400444,note_off,,,,,60,0,2,,,0,,,64,64
400444,note_on,,,,,0,0,2,,,0,,,61,13
400504,note_off,,,,,60,0,2,,,0,,,61,64
400504,note_on,,,,,0,0,2,,,0,,,64,14
400504,control_change,,,,,0,0,2,,,0,64,0,,
400534,note_off,,,,,90,0,1,,,0,,,76,64
400560,set_tempo,,,,,520,1,0,535714,,,,,,
400564,control_change,,,,,0,0,2,,,0,64,127,,
400564,control_change,,,,,0,0,2,,,0,64,127,,
400564,note_on,,,,,0,0,2,,,0,,,58,21
400564,note_off,,,,,60,0,2,,,0,,,64,64
400564,note_on,,,,,30,0,1,,,0,,,76,34
400624,note_off,,,,,60,0,2,,,0,,,58,64
400624,note_on,,,,,0,0,2,,,0,,,64,20
400654,note_off,,,,,90,0,1,,,0,,,76,64
400660,set_tempo,,,,,100,1,0,508475,,,,,,
400684,note_off,,,,,60,0,2,,,0,,,64,64
400684,note_on,,,,,0,0,2,,,0,,,61,22
400684,note_on,,,,,30,0,1,,,0,,,76,39
400744,note_on,,,,,0,0,2,,,0,,,64,24
400744,note_off,,,,,60,0,2,,,0,,,61,64
400744,control_change,,,,,0,0,2,,,0,64,0,,
400774,note_off,,,,,90,0,1,,,0,,,76,64
400804,control_change,,,,,0,0,2,,,0,64,127,,
400804,control_change,,,,,0,0,2,,,0,64,127,,
400804,note_on,,,,,0,0,2,,,0,,,57,31
400804,note_on,,,,,30,0,1,,,0,,,76,41
400804,note_off,,,,,60,0,2,,,0,,,64,64
400820,set_tempo,,,,,160,1,0,491803,,,,,,
400864,note_off,,,,,60,0,2,,,0,,,57,64
400864,note_on,,,,,0,0,2,,,0,,,64,26
400880,set_tempo,,,,,60,1,0,476190,,,,,,
400894,note_off,,,,,90,0,1,,,0,,,76,64
400900,set_tempo,,,,,20,1,0,480000,,,,,,
400924,note_on,,,,,30,0,1,,,0,,,76,38
400924,note_on,,,,,0,0,2,,,0,,,61,31
400924,note_off,,,,,60,0,2,,,0,,,64,64
400940,set_tempo,,,,,40,1,0,483871,,,,,,
400960,set_tempo,,,,,20,1,0,476190,,,,,,
400984,note_off,,,,,60,0,2,,,0,,,61,64
400984,note_on,,,,,0,0,2,,,0,,,64,35
400984,control_change,,,,,0,0,2,,,0,64,0,,
401014,note_off,,,,,90,0,1,,,0,,,76,64
401044,note_on,,,,,0,0,2,,,0,,,55,40
401044,note_off,,,,,60,0,2,,,0,,,64,64
401044,control_change,,,,,0,0,2,,,0,64,127,,
401044,note_on,,,,,30,0,1,,,0,,,76,34
401044,control_change,,,,,0,0,2,,,0,64,127,,
401084,set_tempo,,,,,124,1,0,468750,,,,,,
401104,note_off,,,,,60,0,2,,,0,,,55,64
401104,note_on,,,,,0,0,2,,,0,,,64,40
401134,note_off,,,,,90,0,1,,,0,,,76,64
401164,note_off,,,,,60,0,2,,,0,,,64,64
401164,note_on,,,,,0,0,2,,,0,,,61,37
401164,note_on,,,,,30,0,1,,,0,,,76,35
401224,note_off,,,,,60,0,2,,,0,,,61,64
401224,control_change,,,,,0,0,2,,,0,64,0,,
401224,note_on,,,,,0,0,2,,,0,,,64,32
401254,note_off,,,,,90,0,1,,,0,,,76,64
401284,control_change,,,,,0,0,2,,,0,64,127,,
401284,note_on,,,,,0,0,2,,,0,,,53,40
401284,note_on,,,,,30,0,1,,,0,,,77,53
401284,control_change,,,,,0,0,2,,,0,64,127,,
401284,note_off,,,,,60,0,2,,,0,,,64,64
401344,note_on,,,,,0,0,2,,,0,,,65,28
401344,note_off,,,,,60,0,2,,,0,,,53,64
401404,note_on,,,,,0,0,2,,,0,,,62,32
401404,note_off,,,,,60,0,2,,,0,,,65,64
401464,note_off,,,,,60,0,2,,,0,,,62,64
401464,note_on,,,,,0,0,2,,,0,,,65,35
401502,control_change,,,,,38,0,2,,,0,64,0,,
401524,note_off,,,,,22,0,2,,,0,,,65,64
401524,control_change,,,,,0,0,2,,,0,64,127,,
401524,control_change,,,,,0,0,2,,,0,64,127,,
401524,note_on,,,,,0,0,2,,,0,,,53,40
401584,note_on,,,,,0,0,2,,,0,,,67,30
401584,note_off,,,,,60,0,2,,,0,,,53,64
401644,note_on,,,,,0,0,2,,,0,,,63,31
401644,note_off,,,,,60,0,2,,,0,,,67,64
401704,note_on,,,,,0,0,2,,,0,,,67,34
401704,note_off,,,,,60,0,2,,,0,,,63,64
401704,note_on,,,,,0,0,1,,,0,,,79,41
401704,note_off,,,,,420,0,1,,,0,,,77,64
401742,control_change,,,,,38,0,2,,,0,64,0,,
401764,note_off,,,,,60,0,1,,,0,,,79,64
401764,note_on,,,,,0,0,1,,,0,,,77,46
401764,note_on,,,,,0,0,2,,,0,,,53,36
401764,control_change,,,,,0,0,2,,,0,64,127,,
401764,control_change,,,,,0,0,2,,,0,64,127,,
401764,note_off,,,,,22,0,2,,,0,,,67,64
401824,note_off,,,,,60,0,2,,,0,,,53,64
401824,note_on,,,,,0,0,2,,,0,,,65,39
401884,note_off,,,,,120,0,1,,,0,,,77,64
401884,note_off,,,,,60,0,2,,,0,,,65,64
401884,note_on,,,,,0,0,2,,,0,,,62,42
401944,note_off,,,,,60,0,2,,,0,,,62,64
401944,note_on,,,,,0,0,2,,,0,,,65,44
401974,note_on,,,,,90,0,1,,,0,,,82,52
401982,control_change,,,,,38,0,2,,,0,64,0,,
402004,note_on,,,,,0,0,2,,,0,,,53,46
402004,control_change,,,,,0,0,2,,,0,64,127,,
402004,control_change,,,,,0,0,2,,,0,64,127,,
402004,note_off,,,,,22,0,2,,,0,,,65,64
402004,note_off,,,,,30,0,1,,,0,,,82,64
402004,note_on,,,,,0,0,1,,,0,,,84,49
402034,note_on,,,,,0,0,1,,,0,,,82,49
402034,note_off,,,,,30,0,1,,,0,,,84,64
402064,note_off,,,,,60,0,2,,,0,,,53,64
402064,note_on,,,,,0,0,1,,,0,,,84,47
402064,note_off,,,,,30,0,1,,,0,,,82,64
402064,note_on,,,,,0,0,2,,,0,,,67,42
402094,note_on,,,,,0,0,1,,,0,,,82,48
402094,note_off,,,,,30,0,1,,,0,,,84,64
402124,note_on,,,,,0,0,1,,,0,,,84,51
402124,note_off,,,,,60,0,2,,,0,,,67,64
402124,note_off,,,,,30,0,1,,,0,,,82,64
402124,note_on,,,,,0,0,2,,,0,,,63,48
402154,note_on,,,,,0,0,1,,,0,,,82,56
402154,note_off,,,,,30,0,1,,,0,,,84,64
402184,note_off,,,,,30,0,1,,,0,,,82,64
402184,note_off,,,,,60,0,2,,,0,,,63,64
402184,note_on,,,,,0,0,1,,,0,,,81,60
402184,note_on,,,,,0,0,2,,,0,,,67,57
402214,note_on,,,,,0,0,1,,,0,,,82,65
402214,note_off,,,,,30,0,1,,,0,,,81,64
402222,control_change,,,,,38,0,2,,,0,64,0,,
402244,control_change,,,,,0,0,2,,,0,64,127,,
402244,control_change,,,,,0,0,2,,,0,64,127,,
402244,note_on,,,,,0,0,2,,,0,,,53,64
402244,note_off,,,,,30,0,1,,,0,,,82,64
402244,note_on,,,,,0,0,1,,,0,,,86,69
402244,note_off,,,,,22,0,2,,,0,,,67,64
402244,note_on,,,,,0,0,1,,,0,,,74,69
402304,note_off,,,,,60,0,2,,,0,,,53,64
402304,note_on,,,,,0,0,2,,,0,,,65,60
402364,note_off,,,,,60,0,2,,,0,,,65,64
402364,note_on,,,,,0,0,2,,,0,,,62,56
402424,note_off,,,,,60,0,2,,,0,,,62,64
402424,note_on,,,,,0,0,2,,,0,,,65,49
402462,control_change,,,,,38,0,2,,,0,64,0,,
402484,control_change,,,,,0,0,2,,,0,64,127,,
402484,note_off,,,,,22,0,2,,,0,,,65,64
402484,control_change,,,,,0,0,2,,,0,64,127,,
402484,note_on,,,,,0,0,2,,,0,,,53,49
402544,note_off,,,,,60,0,2,,,0,,,53,64
402544,note_on,,,,,0,0,2,,,0,,,67,46
402604,note_on,,,,,0,0,2,,,0,,,63,42
402604,note_off,,,,,60,0,2,,,0,,,67,64
402664,note_off,,,,,0,0,1,,,0,,,86,64
402664,note_on,,,,,0,0,1,,,0,,,84,57
402664,note_on,,,,,0,0,1,,,0,,,72,57
402664,note_off,,,,,420,0,1,,,0,,,74,64
402664,note_on,,,,,0,0,2,,,0,,,67,39
402664,note_off,,,,,60,0,2,,,0,,,63,64
402702,control_change,,,,,38,0,2,,,0,64,0,,
402724,note_on,,,,,0,0,2,,,0,,,53,38
402724,control_change,,,,,0,0,2,,,0,64,127,,
402724,note_off,,,,,22,0,2,,,0,,,67,64
402724,note_off,,,,,60,0,1,,,0,,,72,64
402724,control_change,,,,,0,0,2,,,0,64,127,,
402724,note_on,,,,,0,0,1,,,0,,,82,48
402724,note_on,,,,,0,0,1,,,0,,,70,48
402724,note_off,,,,,0,0,1,,,0,,,84,64
402784,note_on,,,,,0,0,2,,,0,,,65,36
402784,note_off,,,,,60,0,2,,,0,,,53,64
402844,note_off,,,,,120,0,1,,,0,,,70,64
402844,note_off,,,,,0,0,1,,,0,,,82,64
402844,note_off,,,,,60,0,2,,,0,,,65,64
402844,note_on,,,,,0,0,2,,,0,,,62,33
402904,note_off,,,,,60,0,2,,,0,,,62,64
402904,note_on,,,,,0,0,2,,,0,,,65,28
402942,control_change,,,,,38,0,2,,,0,64,0,,
402964,note_on,,,,,0,0,2,,,0,,,53,30
402964,note_off,,,,,22,0,2,,,0,,,65,64
402964,control_change,,,,,0,0,2,,,0,64,127,,
402964,note_on,,,,,120,0,1,,,0,,,79,53
402964,control_change,,,,,0,0,2,,,0,64,127,,
403024,note_off,,,,,60,0,2,,,0,,,53,64
403024,note_on,,,,,0,0,2,,,0,,,67,28
403084,note_on,,,,,0,0,2,,,0,,,63,26
403084,note_off,,,,,60,0,2,,,0,,,67,64
403144,note_on,,,,,0,0,2,,,0,,,67,20
403144,note_off,,,,,60,0,2,,,0,,,63,64
403182,control_change,,,,,38,0,2,,,0,64,0,,
403204,note_off,,,,,240,0,1,,,0,,,79,64
403204,note_off,,,,,22,0,2,,,0,,,67,64
403204,control_change,,,,,0,0,2,,,0,64,127,,
403204,note_on,,,,,0,0,1,,,0,,,77,63
403204,control_change,,,,,0,0,2,,,0,64,127,,
403204,note_on,,,,,0,0,2,,,0,,,53,40
403264,note_on,,,,,0,0,2,,,0,,,65,36
403264,note_off,,,,,60,0,2,,,0,,,53,64
403324,note_on,,,,,0,0,2,,,0,,,62,43
403324,note_off,,,,,60,0,2,,,0,,,65,64
403384,note_on,,,,,0,0,2,,,0,,,65,46
403384,note_off,,,,,60,0,2,,,0,,,62,64
403422,control_change,,,,,38,0,2,,,0,64,0,,
403444,control_change,,,,,0,0,2,,,0,64,127,,
403444,note_off,,,,,22,0,2,,,0,,,65,64
403444,control_change,,,,,0,0,2,,,0,64,127,,
403444,note_on,,,,,0,0,2,,,0,,,53,49
403504,note_off,,,,,60,0,2,,,0,,,53,64
403504,note_on,,,,,0,0,2,,,0,,,67,51
403564,note_off,,,,,60,0,2,,,0,,,67,64
403564,note_on,,,,,0,0,2,,,0,,,63,55
403624,note_on,,,,,0,0,1,,,0,,,79,68
403624,note_off,,,,,420,0,1,,,0,,,77,64
403624,note_off,,,,,60,0,2,,,0,,,63,64
403624,note_on,,,,,0,0,2,,,0,,,67,56
403662,control_change,,,,,38,0,2,,,0,64,0,,
403684,note_on,,,,,0,0,1,,,0,,,77,65
403684,note_off,,,,,60,0,1,,,0,,,79,64
403684,note_on,,,,,0,0,2,,,0,,,53,61
403684,control_change,,,,,0,0,2,,,0,64,127,,
403684,control_change,,,,,0,0,2,,,0,64,127,,
403684,note_off,,,,,22,0,2,,,0,,,67,64
403744,note_on,,,,,0,0,2,,,0,,,65,63
403744,note_off,,,,,60,0,2,,,0,,,53,64
403804,note_off,,,,,120,0,1,,,0,,,77,64
403804,note_off,,,,,60,0,2,,,0,,,65,64
403804,note_on,,,,,0,0,2,,,0,,,62,69
403864,note_off,,,,,60,0,2,,,0,,,62,64
403864,note_on,,,,,0,0,2,,,0,,,65,71
403894,note_on,,,,,90,0,1,,,0,,,82,83
403902,control_change,,,,,38,0,2,,,0,64,0,,
403924,control_change,,,,,0,0,2,,,0,64,127,,
403924,control_change,,,,,0,0,2,,,0,64,127,,
403924,note_off,,,,,22,0,2,,,0,,,65,64
403924,note_off,,,,,30,0,1,,,0,,,82,64
403924,note_on,,,,,0,0,2,,,0,,,53,78
403924,note_on,,,,,0,0,1,,,0,,,84,83
403954,note_on,,,,,0,0,1,,,0,,,82,73
403954,note_off,,,,,30,0,1,,,0,,,84,64
403984,note_on,,,,,0,0,1,,,0,,,84,73
403984,note_off,,,,,60,0,2,,,0,,,53,64
403984,note_on,,,,,0,0,2,,,0,,,67,83
403984,note_off,,,,,30,0,1,,,0,,,82,64
404014,note_on,,,,,0,0,1,,,0,,,82,79
404014,note_off,,,,,30,0,1,,,0,,,84,64
404044,note_off,,,,,30,0,1,,,0,,,82,64
404044,note_on,,,,,0,0,1,,,0,,,84,84
404044,note_on,,,,,0,0,2,,,0,,,63,89
404044,note_off,,,,,60,0,2,,,0,,,67,64
404074,note_on,,,,,0,0,1,,,0,,,82,91
404074,note_off,,,,,30,0,1,,,0,,,84,64
404104,note_on,,,,,0,0,2,,,0,,,67,92
404104,note_off,,,,,30,0,1,,,0,,,82,64
404104,note_off,,,,,60,0,2,,,0,,,63,64
404104,note_on,,,,,0,0,1,,,0,,,81,98
404134,note_on,,,,,0,0,1,,,0,,,82,107
404134,note_off,,,,,30,0,1,,,0,,,81,64
404142,control_change,,,,,38,0,2,,,0,64,0,,
404164,note_on,,,,,0,0,1,,,0,,,86,115
404164,note_off,,,,,30,0,1,,,0,,,82,64
404164,note_off,,,,,22,0,2,,,0,,,67,64
404164,control_change,,,,,0,0,2,,,0,64,127,,
404164,control_change,,,,,0,0,2,,,0,64,127,,
404164,note_on,,,,,0,0,2,,,0,,,53,95
404164,note_on,,,,,0,0,1,,,0,,,74,115
404224,note_off,,,,,60,0,2,,,0,,,53,64
404224,note_on,,,,,0,0,2,,,0,,,65,94
404284,note_off,,,,,60,0,2,,,0,,,65,64
404284,note_on,,,,,0,0,2,,,0,,,62,89
404344,note_on,,,,,0,0,2,,,0,,,65,84
404344,note_off,,,,,60,0,2,,,0,,,62,64
404382,control_change,,,,,38,0,2,,,0,64,0,,
404404,note_on,,,,,0,0,2,,,0,,,53,84
404404,control_change,,,,,0,0,2,,,0,64,127,,
404404,control_change,,,,,0,0,2,,,0,64,127,,
404404,note_off,,,,,22,0,2,,,0,,,65,64
404464,note_on,,,,,0,0,2,,,0,,,67,81
404464,note_off,,,,,60,0,2,,,0,,,53,64
404524,note_on,,,,,0,0,2,,,0,,,63,77
404524,note_off,,,,,60,0,2,,,0,,,67,64
404584,note_off,,,,,0,0,1,,,0,,,86,64
404584,note_on,,,,,0,0,1,,,0,,,84,95
404584,note_on,,,,,0,0,1,,,0,,,72,95
404584,note_off,,,,,60,0,2,,,0,,,63,64
404584,note_on,,,,,0,0,2,,,0,,,67,72
404584,note_off,,,,,420,0,1,,,0,,,74,64
404622,control_change,,,,,38,0,2,,,0,64,0,,
404644,control_change,,,,,0,0,2,,,0,64,127,,
404644,note_off,,,,,60,0,1,,,0,,,72,64
404644,note_on,,,,,0,0,1,,,0,,,82,85
404644,note_on,,,,,0,0,1,,,0,,,70,85
404644,note_off,,,,,22,0,2,,,0,,,67,64
404644,control_change,,,,,0,0,2,,,0,64,127,,
404644,note_on,,,,,0,0,2,,,0,,,53,74
404644,note_off,,,,,0,0,1,,,0,,,84,64
404704,note_on,,,,,0,0,2,,,0,,,65,76
404704,note_off,,,,,60,0,2,,,0,,,53,64
404740,set_tempo,,,,,3656,1,0,480000,,,,,,
404764,note_off,,,,,0,0,1,,,0,,,82,64
404764,note_on,,,,,0,0,2,,,0,,,62,80
404764,note_off,,,,,60,0,2,,,0,,,65,64
404764,note_off,,,,,120,0,1,,,0,,,70,64
404824,note_on,,,,,0,0,2,,,0,,,65,82
404824,note_off,,,,,60,0,2,,,0,,,62,64
404862,control_change,,,,,38,0,2,,,0,64,0,,
404884,note_on,,,,,120,0,1,,,0,,,79,114
404884,note_on,,,,,0,0,1,,,0,,,75,114
404884,control_change,,,,,0,0,2,,,0,64,127,,
404884,note_on,,,,,0,0,1,,,0,,,70,114
404884,note_on,,,,,0,0,1,,,0,,,67,114
404884,note_off,,,,,22,0,2,,,0,,,65,64
404884,note_on,,,,,0,0,2,,,0,,,53,86
404884,control_change,,,,,0,0,2,,,0,64,127,,
404944,note_on,,,,,0,0,2,,,0,,,67,90
404944,note_off,,,,,60,0,2,,,0,,,53,64
405004,note_on,,,,,0,0,2,,,0,,,63,95
405004,note_off,,,,,60,0,2,,,0,,,67,64
405060,set_tempo,,,,,320,1,0,483871,,,,,,
405064,note_off,,,,,60,0,2,,,0,,,63,64
405064,note_on,,,,,0,0,2,,,0,,,67,98
405080,set_tempo,,,,,20,1,0,491803,,,,,,
405118,control_change,,,,,54,0,2,,,0,64,0,,
405120,control_change,,,,,2,0,2,,,0,64,127,,
405124,note_off,,,,,0,0,1,,,0,,,75,64
405124,note_on,,,,,0,0,1,,,0,,,65,109
405124,note_on,,,,,0,0,1,,,0,,,70,109
405124,note_on,,,,,0,0,1,,,0,,,74,109
405124,note_off,,,,,0,0,1,,,0,,,70,64
405124,note_off,,,,,240,0,1,,,0,,,67,64
405124,note_off,,,,,0,0,1,,,0,,,79,64
405124,note_on,,,,,0,0,1,,,0,,,77,109
405124,note_on,,,,,0,0,2,,,0,,,53,98
405124,note_off,,,,,4,0,2,,,0,,,67,64
405184,note_on,,,,,0,0,2,,,0,,,65,93
405184,note_off,,,,,60,0,2,,,0,,,53,64
405244,note_on,,,,,0,0,2,,,0,,,62,89
405244,note_off,,,,,60,0,2,,,0,,,65,64
405300,control_change,,,,,56,0,2,,,0,64,0,,
405300,set_tempo,,,,,220,1,0,483871,,,,,,
405304,note_off,,,,,4,0,2,,,0,,,62,64
405304,note_on,,,,,0,0,2,,,0,,,65,83
405340,note_off,,,,,0,0,1,,,0,,,77,64
405340,note_off,,,,,216,0,1,,,0,,,65,64
405340,note_off,,,,,0,0,1,,,0,,,70,64
405340,note_off,,,,,0,0,1,,,0,,,74,64
405364,note_off,,,,,60,0,2,,,0,,,65,64
405364,note_on,,,,,24,0,1,,,0,,,79,103
405364,note_on,,,,,0,0,1,,,0,,,75,103
405364,note_on,,,,,0,0,1,,,0,,,70,103
405364,note_on,,,,,0,0,1,,,0,,,67,103
405364,control_change,,,,,0,0,2,,,0,64,127,,
405364,control_change,,,,,0,0,2,,,0,64,127,,
405364,note_on,,,,,0,0,2,,,0,,,53,78
405424,note_on,,,,,0,0,2,,,0,,,67,78
405424,note_off,,,,,60,0,2,,,0,,,53,64
405484,note_on,,,,,0,0,2,,,0,,,63,75
405484,note_off,,,,,60,0,2,,,0,,,67,64
405544,note_on,,,,,0,0,2,,,0,,,67,75
405544,note_off,,,,,60,0,2,,,0,,,63,64
405580,note_off,,,,,0,0,1,,,0,,,79,64
405580,note_off,,,,,216,0,1,,,0,,,67,64
405580,note_off,,,,,0,0,1,,,0,,,75,64
405580,note_off,,,,,0,0,1,,,0,,,70,64
405582,control_change,,,,,38,0,2,,,0,64,0,,
405604,note_on,,,,,24,0,1,,,0,,,82,116
405604,note_on,,,,,0,0,1,,,0,,,77,116
405604,note_on,,,,,0,0,1,,,0,,,74,116
405604,note_on,,,,,0,0,1,,,0,,,70,116
405604,control_change,,,,,0,0,2,,,0,64,127,,
405604,note_on,,,,,0,0,2,,,0,,,53,74
405604,control_change,,,,,0,0,2,,,0,64,127,,
405604,note_off,,,,,22,0,2,,,0,,,67,64
405620,set_tempo,,,,,320,1,0,480000,,,,,,
405664,note_on,,,,,0,0,2,,,0,,,65,74
405664,note_off,,,,,60,0,2,,,0,,,53,64
405720,set_tempo,,,,,100,1,0,504202,,,,,,
405724,note_on,,,,,0,0,2,,,0,,,62,80
405724,note_off,,,,,60,0,2,,,0,,,65,64
405784,note_on,,,,,0,0,2,,,0,,,65,81
405784,note_off,,,,,60,0,2,,,0,,,62,64
405820,note_off,,,,,216,0,1,,,0,,,70,64
405820,note_off,,,,,0,0,1,,,0,,,74,64
405820,note_off,,,,,0,0,1,,,0,,,77,64
405820,note_off,,,,,0,0,1,,,0,,,82,64
405822,control_change,,,,,38,0,2,,,0,64,0,,
405844,note_off,,,,,22,0,2,,,0,,,65,64
405844,control_change,,,,,0,0,2,,,0,64,127,,
405844,note_on,,,,,0,0,1,,,0,,,72,127
405844,note_on,,,,,0,0,1,,,0,,,77,127
405844,note_on,,,,,24,0,1,,,0,,,84,127
405844,note_on,,,,,0,0,1,,,0,,,81,127
405844,control_change,,,,,0,0,2,,,0,64,127,,
405844,note_on,,,,,0,0,2,,,0,,,53,86
405904,note_on,,,,,0,0,2,,,0,,,65,93
405904,note_off,,,,,60,0,2,,,0,,,53,64
405940,set_tempo,,,,,220,1,0,526316,,,,,,
405964,note_off,,,,,60,0,2,,,0,,,65,64
405964,note_on,,,,,0,0,2,,,0,,,63,97
406024,set_tempo,,,,,84,1,0,909091,,,,,,
406024,note_off,,,,,60,0,2,,,0,,,63,64
406024,note_on,,,,,0,0,2,,,0,,,65,103
406060,note_off,,,,,0,0,1,,,0,,,81,64
406060,note_off,,,,,0,0,1,,,0,,,84,64
406060,note_off,,,,,0,0,1,,,0,,,77,64
406060,note_off,,,,,216,0,1,,,0,,,72,64
406084,set_tempo,,,,,60,1,0,545455,,,,,,
406084,note_on,,,,,0,0,1,,,0,,,72,127
406084,note_on,,,,,0,0,1,,,0,,,77,127
406084,note_on,,,,,0,0,1,,,0,,,81,127
406084,note_on,,,,,24,0,1,,,0,,,84,127
406084,note_on,,,,,0,0,2,,,0,,,53,112
406084,note_off,,,,,60,0,2,,,0,,,65,64
406084,note_on,,,,,0,0,2,,,0,,,63,112
406084,note_on,,,,,0,0,2,,,0,,,65,112
406084,control_change,,,,,0,0,2,,,0,64,127,,
406164,set_tempo,,,,,80,1,0,540541,,,,,,
406184,set_tempo,,,,,20,1,0,545455,,,,,,
406240,set_tempo,,,,,56,1,0,560748,,,,,,
406320,set_tempo,,,,,80,1,0,582524,,,,,,
406360,set_tempo,,,,,40,1,0,588235,,,,,,
406484,set_tempo,,,,,124,1,0,576923,,,,,,
406504,set_tempo,,,,,20,1,0,582524,,,,,,
406524,set_tempo,,,,,20,1,0,588235,,,,,,
406544,set_tempo,,,,,20,1,0,681818,,,,,,
406564,note_off,,,,,0,0,1,,,0,,,77,64
406564,note_off,,,,,0,0,1,,,0,,,84,64
406564,note_on,,,,,0,0,1,,,0,,,81,106
406564,note_off,,,,,0,0,1,,,0,,,81,64
406564,note_off,,,,,480,0,1,,,0,,,72,64
406564,control_change,,,,,480,0,2,,,0,64,0,,
406564,set_tempo,,,,,20,1,0,705882,,,,,,
406644,note_off,,,,,80,0,1,,,0,,,81,64
406644,note_on,,,,,0,0,1,,,0,,,77,91
406660,set_tempo,,,,,96,1,0,618557,,,,,,
406724,note_off,,,,,80,0,1,,,0,,,77,64
406724,note_on,,,,,0,0,1,,,0,,,72,82
406800,set_tempo,,,,,140,1,0,566038,,,,,,
406804,note_off,,,,,80,0,1,,,0,,,72,64
406804,note_on,,,,,0,0,1,,,0,,,77,70
406860,set_tempo,,,,,60,1,0,530973,,,,,,
406884,note_off,,,,,80,0,1,,,0,,,77,64
406884,note_on,,,,,0,0,1,,,0,,,81,63
406940,set_tempo,,,,,80,1,0,495868,,,,,,
406964,note_on,,,,,0,0,1,,,0,,,84,56
406964,note_off,,,,,80,0,1,,,0,,,81,64
407044,note_off,,,,,480,0,2,,,0,,,65,64
407044,note_off,,,,,0,0,2,,,0,,,63,64
407044,note_off,,,,,0,0,2,,,0,,,53,64
407044,note_on,,,,,0,0,1,,,0,,,82,63
407044,note_off,,,,,80,0,1,,,0,,,84,64
407044,note_on,,,,,0,0,2,,,0,,,62,53
407044,note_on,,,,,0,0,2,,,0,,,65,53
407044,note_on,,,,,0,0,2,,,0,,,58,53
407060,set_tempo,,,,,120,1,0,483871,,,,,,
407124,note_off,,,,,80,0,1,,,0,,,82,64
407124,note_on,,,,,0,0,1,,,0,,,89,60
407184,note_off,,,,,60,0,1,,,0,,,89,64
407204,note_on,,,,,20,0,1,,,0,,,86,57
407264,note_off,,,,,60,0,1,,,0,,,86,64
407284,note_on,,,,,20,0,1,,,0,,,82,55
407284,note_off,,,,,240,0,2,,,0,,,65,64
407284,note_off,,,,,0,0,2,,,0,,,62,64
407284,note_off,,,,,0,0,2,,,0,,,58,64
407300,set_tempo,,,,,240,1,0,465116,,,,,,
407344,note_off,,,,,60,0,1,,,0,,,82,64
407364,note_on,,,,,20,0,1,,,0,,,77,50
407424,note_off,,,,,60,0,1,,,0,,,77,64
407444,note_on,,,,,20,0,1,,,0,,,74,45
407504,note_off,,,,,60,0,1,,,0,,,74,64
407524,note_on,,,,,20,0,1,,,0,,,70,51
407524,note_on,,,,,0,0,2,,,0,,,62,40
407524,note_on,,,,,240,0,2,,,0,,,65,40
407524,note_on,,,,,0,0,2,,,0,,,58,40
407560,set_tempo,,,,,260,1,0,476190,,,,,,
407584,note_off,,,,,60,0,1,,,0,,,70,64
407604,note_on,,,,,20,0,1,,,0,,,74,40
407644,note_off,,,,,0,0,2,,,0,,,65,64
407644,note_off,,,,,0,0,2,,,0,,,62,64
407644,note_off,,,,,120,0,2,,,0,,,58,64
407664,note_off,,,,,60,0,1,,,0,,,74,64
407680,set_tempo,,,,,120,1,0,491803,,,,,,
407684,note_on,,,,,20,0,1,,,0,,,77,46
407744,note_off,,,,,60,0,1,,,0,,,77,64
407760,set_tempo,,,,,80,1,0,512821,,,,,,
407764,note_on,,,,,20,0,1,,,0,,,74,50
407764,note_on,,,,,0,0,2,,,0,,,58,51
407764,note_on,,,,,0,0,2,,,0,,,65,51
407764,note_on,,,,,120,0,2,,,0,,,68,51
407824,note_off,,,,,60,0,1,,,0,,,74,64
407844,note_on,,,,,20,0,1,,,0,,,77,54
407884,note_off,,,,,120,0,2,,,0,,,58,64
407884,note_off,,,,,0,0,2,,,0,,,65,64
407884,note_off,,,,,0,0,2,,,0,,,68,64
407904,note_off,,,,,60,0,1,,,0,,,77,64
407924,note_on,,,,,20,0,1,,,0,,,82,57
407980,set_tempo,,,,,220,1,0,526316,,,,,,
407984,note_off,,,,,60,0,1,,,0,,,82,64
408004,note_on,,,,,0,0,2,,,0,,,63,62
408004,note_on,,,,,20,0,1,,,0,,,82,58
408004,note_on,,,,,0,0,2,,,0,,,67,62
408004,note_on,,,,,120,0,2,,,0,,,58,62
408084,note_off,,,,,80,0,1,,,0,,,82,64
408084,note_on,,,,,0,0,1,,,0,,,91,53
408140,set_tempo,,,,,160,1,0,508475,,,,,,
408144,note_off,,,,,60,0,1,,,0,,,91,64
408164,note_on,,,,,20,0,1,,,0,,,87,51
408200,set_tempo,,,,,60,1,0,491803,,,,,,
408224,note_off,,,,,60,0,1,,,0,,,87,64
408244,note_off,,,,,240,0,2,,,0,,,67,64
408244,note_off,,,,,0,0,2,,,0,,,63,64
408244,note_off,,,,,0,0,2,,,0,,,58,64
408244,note_on,,,,,20,0,1,,,0,,,82,50
408304,note_off,,,,,60,0,1,,,0,,,82,64
408324,note_on,,,,,20,0,1,,,0,,,79,47
408360,set_tempo,,,,,160,1,0,476190,,,,,,
408380,set_tempo,,,,,20,1,0,472441,,,,,,
408384,note_off,,,,,60,0,1,,,0,,,79,64
408404,note_on,,,,,20,0,1,,,0,,,75,49
408464,note_off,,,,,60,0,1,,,0,,,75,64
408484,note_on,,,,,240,0,2,,,0,,,67,41
408484,note_on,,,,,0,0,2,,,0,,,63,41
408484,note_on,,,,,0,0,2,,,0,,,58,41
408484,note_on,,,,,20,0,1,,,0,,,70,52
408500,set_tempo,,,,,120,1,0,465116,,,,,,
408544,note_off,,,,,60,0,1,,,0,,,70,64
408564,note_on,,,,,20,0,1,,,0,,,75,58
408604,note_off,,,,,0,0,2,,,0,,,67,64
408604,note_off,,,,,120,0,2,,,0,,,58,64
408604,note_off,,,,,0,0,2,,,0,,,63,64
408620,set_tempo,,,,,120,1,0,476190,,,,,,
408624,note_off,,,,,60,0,1,,,0,,,75,64
408640,set_tempo,,,,,20,1,0,480000,,,,,,
408644,note_on,,,,,20,0,1,,,0,,,79,63
408704,note_off,,,,,60,0,1,,,0,,,79,64
408724,note_on,,,,,120,0,2,,,0,,,70,51
408724,note_on,,,,,0,0,2,,,0,,,67,51
408724,note_on,,,,,20,0,1,,,0,,,75,67
408724,note_on,,,,,0,0,2,,,0,,,58,51
408784,note_off,,,,,60,0,1,,,0,,,75,64
408804,note_on,,,,,20,0,1,,,0,,,79,72
408844,note_off,,,,,120,0,2,,,0,,,58,64
408844,note_off,,,,,0,0,2,,,0,,,67,64
408844,note_off,,,,,0,0,2,,,0,,,70,64
408864,note_off,,,,,60,0,1,,,0,,,79,64
408884,note_on,,,,,20,0,1,,,0,,,82,75
408944,note_off,,,,,60,0,1,,,0,,,82,64
408964,note_on,,,,,20,0,1,,,0,,,82,75
408964,note_on,,,,,0,0,2,,,0,,,58,61
408964,note_on,,,,,0,0,2,,,0,,,65,61
408964,note_on,,,,,120,0,2,,,0,,,62,61
409044,note_on,,,,,0,0,1,,,0,,,94,72
409044,note_off,,,,,80,0,1,,,0,,,82,64
409104,note_off,,,,,60,0,1,,,0,,,94,64
409120,set_tempo,,,,,480,1,0,468750,,,,,,
409124,note_on,,,,,20,0,1,,,0,,,89,69
409184,note_off,,,,,60,0,1,,,0,,,89,64
409204,note_on,,,,,20,0,1,,,0,,,86,65
409204,note_off,,,,,240,0,2,,,0,,,58,64
409204,note_off,,,,,0,0,2,,,0,,,65,64
409204,note_off,,,,,0,0,2,,,0,,,62,64
409220,set_tempo,,,,,100,1,0,454545,,,,,,
409264,note_off,,,,,60,0,1,,,0,,,86,64
409284,note_on,,,,,20,0,1,,,0,,,82,61
409344,note_off,,,,,60,0,1,,,0,,,82,64
409364,note_on,,,,,20,0,1,,,0,,,77,59
409380,set_tempo,,,,,160,1,0,444444,,,,,,
409424,note_off,,,,,60,0,1,,,0,,,77,64
409444,note_on,,,,,20,0,1,,,0,,,74,58
409444,note_on,,,,,240,0,2,,,0,,,58,39
409444,note_on,,,,,0,0,2,,,0,,,62,39
409504,note_off,,,,,60,0,1,,,0,,,74,64
409524,note_on,,,,,20,0,1,,,0,,,70,56
409564,note_off,,,,,120,0,2,,,0,,,62,64
409564,note_off,,,,,0,0,2,,,0,,,58,64
409584,note_off,,,,,60,0,1,,,0,,,70,64
409604,note_on,,,,,20,0,1,,,0,,,65,55
409664,note_off,,,,,60,0,1,,,0,,,65,64
409684,note_on,,,,,20,0,1,,,0,,,70,54
409684,note_on,,,,,120,0,2,,,0,,,62,52
409684,note_on,,,,,0,0,2,,,0,,,65,52
409720,set_tempo,,,,,340,1,0,454545,,,,,,
409744,note_off,,,,,60,0,1,,,0,,,70,64
409764,note_on,,,,,20,0,1,,,0,,,74,54
409804,note_off,,,,,0,0,2,,,0,,,62,64
409804,note_off,,,,,120,0,2,,,0,,,65,64
409824,note_off,,,,,60,0,1,,,0,,,74,64
409840,set_tempo,,,,,120,1,0,468750,,,,,,
409844,note_on,,,,,20,0,1,,,0,,,77,55
409904,note_off,,,,,60,0,1,,,0,,,77,64
409924,note_on,,,,,0,0,2,,,0,,,62,61
409924,note_on,,,,,20,0,1,,,0,,,77,62
409924,note_on,,,,,120,0,2,,,0,,,65,61
409924,note_on,,,,,0,0,2,,,0,,,53,61
409924,control_change,,,,,0,0,2,,,0,64,127,,
410004,note_off,,,,,80,0,1,,,0,,,77,64
410004,note_on,,,,,0,0,1,,,0,,,82,58
410064,note_off,,,,,60,0,1,,,0,,,82,64
410068,note_off,,,,,0,0,2,,,0,,,62,64
410068,note_off,,,,,0,0,2,,,0,,,65,64
410068,note_off,,,,,144,0,2,,,0,,,53,64
410084,note_on,,,,,20,0,1,,,0,,,82,55
410134,control_change,,,,,66,0,2,,,0,64,0,,
410144,note_off,,,,,60,0,1,,,0,,,82,64
410164,note_on,,,,,30,0,2,,,0,,,67,55
410164,note_on,,,,,20,0,1,,,0,,,79,65
410164,note_on,,,,,0,0,2,,,0,,,53,55
410164,note_on,,,,,0,0,2,,,0,,,63,55
410164,control_change,,,,,0,0,2,,,0,64,127,,
410244,note_on,,,,,0,0,1,,,0,,,84,62
410244,note_off,,,,,80,0,1,,,0,,,79,64
410260,note_off,,,,,0,0,2,,,0,,,67,64
410260,note_off,,,,,96,0,2,,,0,,,63,64
410260,note_off,,,,,0,0,2,,,0,,,53,64
410304,note_off,,,,,60,0,1,,,0,,,84,64
410324,note_on,,,,,20,0,1,,,0,,,84,58
410344,control_change,,,,,84,0,2,,,0,64,0,,
410384,note_off,,,,,60,0,1,,,0,,,84,64
410404,note_on,,,,,60,0,2,,,0,,,65,48
410404,control_change,,,,,0,0,2,,,0,64,127,,
410404,note_on,,,,,0,0,2,,,0,,,62,48
410404,note_on,,,,,0,0,2,,,0,,,53,48
410404,note_on,,,,,20,0,1,,,0,,,77,61
410484,note_off,,,,,80,0,1,,,0,,,77,64
410484,note_on,,,,,0,0,1,,,0,,,82,57
410500,note_off,,,,,0,0,2,,,0,,,65,64
410500,note_off,,,,,0,0,2,,,0,,,62,64
410500,note_off,,,,,96,0,2,,,0,,,53,64
410544,note_off,,,,,60,0,1,,,0,,,82,64
410564,note_on,,,,,20,0,1,,,0,,,82,55
410584,control_change,,,,,84,0,2,,,0,64,0,,
410624,note_off,,,,,60,0,1,,,0,,,82,64
410644,note_on,,,,,0,0,2,,,0,,,60,48
410644,note_on,,,,,0,0,2,,,0,,,63,48
410644,control_change,,,,,0,0,2,,,0,64,127,,
410644,note_on,,,,,60,0,2,,,0,,,53,48
410644,note_on,,,,,20,0,1,,,0,,,77,54
410680,set_tempo,,,,,840,1,0,465116,,,,,,
410724,note_off,,,,,80,0,1,,,0,,,77,64
410724,note_on,,,,,0,0,1,,,0,,,81,49
410740,note_off,,,,,96,0,2,,,0,,,60,64
410740,note_off,,,,,0,0,2,,,0,,,63,64
410740,note_off,,,,,0,0,2,,,0,,,53,64
410784,note_off,,,,,60,0,1,,,0,,,81,64
410804,note_on,,,,,20,0,1,,,0,,,81,45
410824,control_change,,,,,84,0,2,,,0,64,0,,
410864,note_off,,,,,60,0,1,,,0,,,81,64
410884,note_on,,,,,0,0,2,,,0,,,62,55
410884,note_on,,,,,60,0,2,,,0,,,59,55
410884,control_change,,,,,0,0,2,,,0,64,127,,
410884,note_on,,,,,20,0,1,,,0,,,77,54
410884,note_on,,,,,0,0,2,,,0,,,53,55
410964,note_on,,,,,0,0,1,,,0,,,80,52
410964,note_off,,,,,80,0,1,,,0,,,77,64
411024,note_off,,,,,60,0,1,,,0,,,80,64
411028,note_off,,,,,144,0,2,,,0,,,53,64
411028,note_off,,,,,0,0,2,,,0,,,62,64
411028,note_off,,,,,0,0,2,,,0,,,59,64
411044,note_on,,,,,20,0,1,,,0,,,80,48
411094,control_change,,,,,66,0,2,,,0,64,0,,
411104,note_off,,,,,60,0,1,,,0,,,80,64
411120,set_tempo,,,,,440,1,0,447761,,,,,,
411124,note_on,,,,,20,0,1,,,0,,,77,61
411124,note_on,,,,,30,0,2,,,0,,,53,63
411124,control_change,,,,,0,0,2,,,0,64,127,,
411124,note_on,,,,,0,0,2,,,0,,,62,63
411124,note_on,,,,,0,0,2,,,0,,,59,63
411204,note_on,,,,,0,0,1,,,0,,,79,59
411204,note_off,,,,,80,0,1,,,0,,,77,64
411220,note_off,,,,,96,0,2,,,0,,,59,64
411220,note_off,,,,,0,0,2,,,0,,,62,64
411220,note_off,,,,,0,0,2,,,0,,,53,64
411264,note_off,,,,,60,0,1,,,0,,,79,64
411284,note_on,,,,,20,0,1,,,0,,,79,55
411304,control_change,,,,,84,0,2,,,0,64,0,,
411344,note_off,,,,,60,0,1,,,0,,,79,64
411364,note_on,,,,,0,0,2,,,0,,,62,76
411364,control_change,,,,,0,0,2,,,0,64,127,,
411364,note_on,,,,,0,0,1,,,0,,,71,70
411364,note_on,,,,,20,0,1,,,0,,,74,70
411364,note_on,,,,,0,0,2,,,0,,,53,76
411364,note_on,,,,,60,0,2,,,0,,,59,76
411444,note_off,,,,,80,0,1,,,0,,,71,64
411444,note_on,,,,,0,0,1,,,0,,,80,67
411444,note_off,,,,,0,0,1,,,0,,,74,64
411460,note_off,,,,,0,0,2,,,0,,,59,64
411460,note_off,,,,,96,0,2,,,0,,,62,64
411460,set_tempo,,,,,340,1,0,441176,,,,,,
411460,note_off,,,,,0,0,2,,,0,,,53,64
411504,note_off,,,,,60,0,1,,,0,,,80,64
411524,note_on,,,,,20,0,1,,,0,,,80,63
411544,control_change,,,,,84,0,2,,,0,64,0,,
411584,note_off,,,,,60,0,1,,,0,,,80,64
411604,control_change,,,,,60,0,2,,,0,64,127,,
411604,note_on,,,,,0,0,2,,,0,,,53,82
411604,note_on,,,,,20,0,1,,,0,,,74,83
411604,note_on,,,,,0,0,2,,,0,,,62,82
411604,note_on,,,,,0,0,1,,,0,,,71,83
411604,note_on,,,,,0,0,2,,,0,,,59,82
411660,set_tempo,,,,,200,1,0,428571,,,,,,
411684,note_off,,,,,0,0,1,,,0,,,74,64
411684,note_off,,,,,80,0,1,,,0,,,71,64
411684,note_on,,,,,0,0,1,,,0,,,79,79
411700,note_off,,,,,0,0,2,,,0,,,53,64
411700,note_off,,,,,96,0,2,,,0,,,62,64
411700,note_off,,,,,0,0,2,,,0,,,59,64
411744,note_off,,,,,60,0,1,,,0,,,79,64
411764,note_on,,,,,20,0,1,,,0,,,79,78
411784,control_change,,,,,84,0,2,,,0,64,0,,
411824,note_off,,,,,60,0,1,,,0,,,79,64
411844,note_on,,,,,0,0,2,,,0,,,63,76
411844,control_change,,,,,0,0,2,,,0,64,127,,
411844,note_on,,,,,0,0,1,,,0,,,70,76
411844,note_on,,,,,60,0,2,,,0,,,51,76
411844,note_on,,,,,0,0,2,,,0,,,58,76
411844,note_on,,,,,20,0,1,,,0,,,75,76
411860,set_tempo,,,,,200,1,0,447761,,,,,,
411924,note_on,,,,,0,0,1,,,0,,,80,74
411924,note_off,,,,,0,0,1,,,0,,,75,64
411924,note_off,,,,,80,0,1,,,0,,,70,64
411984,note_off,,,,,60,0,1,,,0,,,80,64
411988,note_off,,,,,0,0,2,,,0,,,51,64
411988,note_off,,,,,0,0,2,,,0,,,58,64
411988,note_off,,,,,144,0,2,,,0,,,63,64
412000,set_tempo,,,,,140,1,0,468750,,,,,,
412004,note_on,,,,,20,0,1,,,0,,,80,71
412054,control_change,,,,,66,0,2,,,0,64,0,,
412064,note_off,,,,,60,0,1,,,0,,,80,64
412084,note_on,,,,,30,0,2,,,0,,,51,65
412084,note_on,,,,,0,0,2,,,0,,,63,65
412084,note_on,,,,,0,0,2,,,0,,,58,65
412084,note_on,,,,,20,0,1,,,0,,,75,69
412084,control_change,,,,,0,0,2,,,0,64,127,,
412084,note_on,,,,,0,0,1,,,0,,,70,69
412164,note_off,,,,,80,0,1,,,0,,,70,64
412164,note_off,,,,,0,0,1,,,0,,,75,64
412164,note_on,,,,,0,0,1,,,0,,,79,64
412180,note_off,,,,,0,0,2,,,0,,,51,64
412180,note_off,,,,,0,0,2,,,0,,,63,64
412180,note_off,,,,,96,0,2,,,0,,,58,64
412224,note_off,,,,,60,0,1,,,0,,,79,64
412240,set_tempo,,,,,240,1,0,495868,,,,,,
412244,note_on,,,,,20,0,1,,,0,,,79,63
412264,control_change,,,,,84,0,2,,,0,64,0,,
412304,note_off,,,,,60,0,1,,,0,,,79,64
412324,note_on,,,,,0,0,2,,,0,,,62,56
412324,note_on,,,,,20,0,1,,,0,,,74,60
412324,note_on,,,,,0,0,2,,,0,,,53,56
412324,control_change,,,,,0,0,2,,,0,64,127,,
412324,note_on,,,,,60,0,2,,,0,,,58,56
412324,note_on,,,,,0,0,1,,,0,,,70,60
412380,set_tempo,,,,,140,1,0,526316,,,,,,
412404,note_off,,,,,80,0,1,,,0,,,70,64
412404,note_on,,,,,0,0,1,,,0,,,77,57
412404,note_off,,,,,0,0,1,,,0,,,74,64
412420,note_off,,,,,96,0,2,,,0,,,62,64
412420,note_off,,,,,0,0,2,,,0,,,53,64
412420,note_off,,,,,0,0,2,,,0,,,58,64
412464,note_off,,,,,60,0,1,,,0,,,77,64
412484,note_on,,,,,20,0,1,,,0,,,77,53
412504,control_change,,,,,84,0,2,,,0,64,0,,
412544,note_off,,,,,60,0,1,,,0,,,77,64
412564,note_on,,,,,0,0,1,,,0,,,69,49
412564,control_change,,,,,0,0,2,,,0,64,127,,
412564,note_on,,,,,0,0,2,,,0,,,60,42
412564,note_on,,,,,0,0,2,,,0,,,53,42
412564,note_on,,,,,60,0,2,,,0,,,63,42
412564,note_on,,,,,20,0,1,,,0,,,72,49
412644,note_off,,,,,0,0,1,,,0,,,72,64
412644,note_on,,,,,0,0,1,,,0,,,77,44
412644,note_off,,,,,80,0,1,,,0,,,69,64
412660,note_off,,,,,0,0,2,,,0,,,53,64
412660,note_off,,,,,0,0,2,,,0,,,63,64
412660,note_off,,,,,96,0,2,,,0,,,60,64
412704,note_off,,,,,60,0,1,,,0,,,77,64
412724,note_on,,,,,20,0,1,,,0,,,77,41
412744,control_change,,,,,84,0,2,,,0,64,0,,
412744,set_tempo,,,,,364,1,0,535714,,,,,,
412784,note_off,,,,,60,0,1,,,0,,,77,64
412800,set_tempo,,,,,56,1,0,480000,,,,,,
412804,note_on,,,,,20,0,1,,,0,,,77,49
412804,note_on,,,,,0,0,1,,,0,,,74,49
412804,note_on,,,,,0,0,1,,,0,,,70,49
412804,note_on,,,,,60,0,2,,,0,,,58,49
412884,note_off,,,,,80,0,2,,,0,,,58,64
412884,note_on,,,,,0,0,2,,,0,,,65,44
412944,note_off,,,,,60,0,2,,,0,,,65,64
412964,note_on,,,,,20,0,2,,,0,,,62,46
413024,note_off,,,,,60,0,2,,,0,,,62,64
413044,note_on,,,,,20,0,2,,,0,,,58,48
413044,note_off,,,,,0,0,1,,,0,,,74,64
413044,note_off,,,,,0,0,1,,,0,,,77,64
413044,note_off,,,,,240,0,1,,,0,,,70,64
413060,set_tempo,,,,,260,1,0,472441,,,,,,
413104,note_off,,,,,60,0,2,,,0,,,58,64
413124,note_on,,,,,20,0,2,,,0,,,53,50
413184,note_off,,,,,60,0,2,,,0,,,53,64
413204,note_on,,,,,20,0,2,,,0,,,50,51
413240,set_tempo,,,,,180,1,0,468750,,,,,,
413264,note_off,,,,,60,0,2,,,0,,,50,64
413284,note_on,,,,,240,0,1,,,0,,,82,40
413284,note_on,,,,,0,0,1,,,0,,,74,40
413284,note_on,,,,,0,0,1,,,0,,,77,40
413284,note_on,,,,,20,0,2,,,0,,,46,51
413344,note_off,,,,,60,0,2,,,0,,,46,64
413364,note_on,,,,,20,0,2,,,0,,,50,40
413380,set_tempo,,,,,140,1,0,491803,,,,,,
413404,note_off,,,,,120,0,1,,,0,,,74,64
413404,note_off,,,,,0,0,1,,,0,,,77,64
413404,note_off,,,,,0,0,1,,,0,,,82,64
413424,note_off,,,,,60,0,2,,,0,,,50,64
413444,note_on,,,,,20,0,2,,,0,,,53,46
413480,set_tempo,,,,,100,1,0,500000,,,,,,
413504,note_off,,,,,60,0,2,,,0,,,53,64
413524,note_on,,,,,0,0,1,,,0,,,80,51
413524,note_on,,,,,120,0,1,,,0,,,82,51
413524,note_on,,,,,20,0,2,,,0,,,50,50
413524,note_on,,,,,0,0,1,,,0,,,77,51
413540,set_tempo,,,,,60,1,0,504202,,,,,,
413584,note_off,,,,,60,0,2,,,0,,,50,64
413604,note_on,,,,,20,0,2,,,0,,,53,54
413640,set_tempo,,,,,100,1,0,526316,,,,,,
413644,note_off,,,,,120,0,1,,,0,,,77,64
413644,note_off,,,,,0,0,1,,,0,,,82,64
413644,note_off,,,,,0,0,1,,,0,,,80,64
413664,note_off,,,,,60,0,2,,,0,,,53,64
413684,note_on,,,,,20,0,2,,,0,,,58,57
413744,note_off,,,,,60,0,2,,,0,,,58,64
413764,note_on,,,,,120,0,1,,,0,,,82,65
413764,note_on,,,,,20,0,2,,,0,,,58,58
413764,note_on,,,,,0,0,1,,,0,,,79,65
413764,note_on,,,,,0,0,1,,,0,,,75,65
413820,set_tempo,,,,,180,1,0,508475,,,,,,
413844,note_on,,,,,0,0,2,,,0,,,67,53
413844,note_off,,,,,80,0,2,,,0,,,58,64
413904,note_off,,,,,60,0,2,,,0,,,67,64
413924,note_on,,,,,20,0,2,,,0,,,63,51
413960,set_tempo,,,,,140,1,0,491803,,,,,,
413984,note_off,,,,,60,0,2,,,0,,,63,64
414004,note_on,,,,,20,0,2,,,0,,,58,50
414004,note_off,,,,,0,0,1,,,0,,,82,64
414004,note_off,,,,,0,0,1,,,0,,,79,64
414004,note_off,,,,,240,0,1,,,0,,,75,64
414064,note_off,,,,,60,0,2,,,0,,,58,64
414080,set_tempo,,,,,120,1,0,480000,,,,,,
414084,note_on,,,,,20,0,2,,,0,,,55,47
414144,note_off,,,,,60,0,2,,,0,,,55,64
414164,note_on,,,,,20,0,2,,,0,,,51,49
414224,note_off,,,,,60,0,2,,,0,,,51,64
414244,note_on,,,,,0,0,1,,,0,,,75,48
414244,note_on,,,,,0,0,1,,,0,,,79,48
414244,note_on,,,,,240,0,1,,,0,,,82,48
414244,note_on,,,,,20,0,2,,,0,,,46,52
414260,set_tempo,,,,,180,1,0,458015,,,,,,
414304,note_off,,,,,60,0,2,,,0,,,46,64
414324,note_on,,,,,20,0,2,,,0,,,51,58
414364,note_off,,,,,120,0,1,,,0,,,75,64
414364,note_off,,,,,0,0,1,,,0,,,79,64
414364,note_off,,,,,0,0,1,,,0,,,82,64
414384,note_off,,,,,60,0,2,,,0,,,51,64
414404,note_on,,,,,20,0,2,,,0,,,55,63
414440,set_tempo,,,,,180,1,0,480000,,,,,,
414464,note_off,,,,,60,0,2,,,0,,,55,64
414484,note_on,,,,,20,0,2,,,0,,,51,67
414484,note_on,,,,,120,0,1,,,0,,,82,60
414484,note_on,,,,,0,0,1,,,0,,,79,60
414544,note_off,,,,,60,0,2,,,0,,,51,64
414564,note_on,,,,,20,0,2,,,0,,,55,72
414604,note_off,,,,,120,0,1,,,0,,,79,64
414604,note_off,,,,,0,0,1,,,0,,,82,64
414624,note_off,,,,,60,0,2,,,0,,,55,64
414644,note_on,,,,,20,0,2,,,0,,,58,75
414704,note_off,,,,,60,0,2,,,0,,,58,64
414724,note_on,,,,,20,0,2,,,0,,,58,75
414724,note_on,,,,,0,0,1,,,0,,,74,70
414724,note_on,,,,,120,0,1,,,0,,,82,70
414724,note_on,,,,,0,0,1,,,0,,,77,70
414804,note_on,,,,,0,0,2,,,0,,,70,75
414804,note_off,,,,,80,0,2,,,0,,,58,64
414840,set_tempo,,,,,400,1,0,458015,,,,,,
414884,note_on,,,,,0,0,2,,,0,,,65,69
414884,note_off,,,,,80,0,2,,,0,,,70,64
414944,note_off,,,,,60,0,2,,,0,,,65,64
414964,note_off,,,,,240,0,1,,,0,,,74,64
414964,note_off,,,,,0,0,1,,,0,,,77,64
414964,note_on,,,,,20,0,2,,,0,,,62,65
414964,note_off,,,,,0,0,1,,,0,,,82,64
415020,set_tempo,,,,,180,1,0,451128,,,,,,
415024,note_off,,,,,60,0,2,,,0,,,62,64
415044,note_on,,,,,20,0,2,,,0,,,58,61
415104,note_off,,,,,60,0,2,,,0,,,58,64
415124,note_on,,,,,20,0,2,,,0,,,53,59
415184,note_off,,,,,60,0,2,,,0,,,53,64
415204,note_on,,,,,20,0,2,,,0,,,50,58
415204,note_on,,,,,240,0,1,,,0,,,86,68
415204,note_on,,,,,0,0,1,,,0,,,82,68
415204,note_on,,,,,0,0,1,,,0,,,77,68
415264,note_off,,,,,60,0,2,,,0,,,50,64
415284,note_on,,,,,20,0,2,,,0,,,46,56
415324,note_off,,,,,120,0,1,,,0,,,77,64
415324,note_off,,,,,0,0,1,,,0,,,86,64
415324,note_off,,,,,0,0,1,,,0,,,82,64
415344,note_off,,,,,60,0,2,,,0,,,46,64
415364,note_on,,,,,20,0,2,,,0,,,41,55
415424,note_off,,,,,60,0,2,,,0,,,41,64
415444,note_on,,,,,20,0,2,,,0,,,46,54
415444,note_on,,,,,120,0,1,,,0,,,89,79
415444,note_on,,,,,0,0,1,,,0,,,86,79
415444,note_on,,,,,0,0,1,,,0,,,82,79
415504,note_off,,,,,60,0,2,,,0,,,46,64
415524,note_on,,,,,20,0,2,,,0,,,50,54
415564,note_off,,,,,0,0,1,,,0,,,86,64
415564,note_off,,,,,120,0,1,,,0,,,82,64
415564,note_off,,,,,0,0,1,,,0,,,89,64
415580,set_tempo,,,,,560,1,0,468750,,,,,,
415584,note_off,,,,,60,0,2,,,0,,,50,64
415604,note_on,,,,,20,0,2,,,0,,,53,55
415664,note_off,,,,,60,0,2,,,0,,,53,64
415684,note_on,,,,,120,0,1,,,0,,,89,85
415684,note_on,,,,,0,0,2,,,0,,,53,61
415684,note_on,,,,,20,0,2,,,0,,,65,61
415684,note_on,,,,,0,0,2,,,0,,,62,61
415684,control_change,,,,,0,0,2,,,0,64,127,,
415764,note_on,,,,,0,0,1,,,0,,,94,82
415764,note_off,,,,,80,0,1,,,0,,,89,64
415824,note_off,,,,,60,0,1,,,0,,,94,64
415828,note_off,,,,,144,0,2,,,0,,,53,64
415828,note_off,,,,,0,0,2,,,0,,,65,64
415828,note_off,,,,,0,0,2,,,0,,,62,64
415844,note_on,,,,,20,0,1,,,0,,,94,77
415894,control_change,,,,,66,0,2,,,0,64,0,,
415904,note_off,,,,,60,0,1,,,0,,,94,64
415924,note_on,,,,,0,0,2,,,0,,,65,55
415924,note_on,,,,,20,0,1,,,0,,,91,72
415924,note_on,,,,,0,0,2,,,0,,,75,55
415924,control_change,,,,,0,0,2,,,0,64,127,,
415924,note_on,,,,,30,0,2,,,0,,,79,55
416004,note_off,,,,,80,0,1,,,0,,,91,64
416004,note_on,,,,,0,0,1,,,0,,,96,66
416020,note_off,,,,,0,0,2,,,0,,,79,64
416020,note_off,,,,,0,0,2,,,0,,,65,64
416020,note_off,,,,,96,0,2,,,0,,,75,64
416040,set_tempo,,,,,460,1,0,454545,,,,,,
416064,note_off,,,,,60,0,1,,,0,,,96,64
416084,note_on,,,,,20,0,1,,,0,,,96,61
416104,control_change,,,,,84,0,2,,,0,64,0,,
416144,note_off,,,,,60,0,1,,,0,,,96,64
416164,note_on,,,,,0,0,2,,,0,,,74,48
416164,note_on,,,,,20,0,1,,,0,,,89,61
416164,note_on,,,,,60,0,2,,,0,,,77,48
416164,note_on,,,,,0,0,2,,,0,,,65,48
416164,control_change,,,,,0,0,2,,,0,64,127,,
416244,note_off,,,,,80,0,1,,,0,,,89,64
416244,note_on,,,,,0,0,1,,,0,,,94,57
416260,note_off,,,,,0,0,2,,,0,,,77,64
416260,note_off,,,,,0,0,2,,,0,,,74,64
416260,note_off,,,,,96,0,2,,,0,,,65,64
416304,note_off,,,,,60,0,1,,,0,,,94,64
416324,note_on,,,,,20,0,1,,,0,,,94,55
416344,control_change,,,,,84,0,2,,,0,64,0,,
416384,note_off,,,,,60,0,1,,,0,,,94,64
416404,note_on,,,,,20,0,1,,,0,,,89,54
416404,note_on,,,,,0,0,2,,,0,,,75,47
416404,control_change,,,,,0,0,2,,,0,64,127,,
416404,note_on,,,,,60,0,2,,,0,,,65,47
416404,note_on,,,,,0,0,2,,,0,,,72,47
416420,set_tempo,,,,,380,1,0,447761,,,,,,
416440,set_tempo,,,,,20,1,0,444444,,,,,,
416484,note_off,,,,,80,0,1,,,0,,,89,64
416484,note_on,,,,,0,0,1,,,0,,,93,49
416500,note_off,,,,,0,0,2,,,0,,,65,64
416500,note_off,,,,,96,0,2,,,0,,,72,64
416500,note_off,,,,,0,0,2,,,0,,,75,64
416544,note_off,,,,,60,0,1,,,0,,,93,64
416564,note_on,,,,,20,0,1,,,0,,,93,45
416584,control_change,,,,,84,0,2,,,0,64,0,,
416624,note_off,,,,,60,0,1,,,0,,,93,64
416644,note_on,,,,,20,0,1,,,0,,,89,54
416644,control_change,,,,,0,0,2,,,0,64,127,,
416644,note_on,,,,,0,0,2,,,0,,,65,52
416644,note_on,,,,,0,0,2,,,0,,,74,52
416644,note_on,,,,,60,0,2,,,0,,,71,52
416724,note_on,,,,,0,0,1,,,0,,,92,52
416724,note_off,,,,,80,0,1,,,0,,,89,64
416784,note_off,,,,,60,0,1,,,0,,,92,64
416788,note_off,,,,,0,0,2,,,0,,,71,64
416788,note_off,,,,,0,0,2,,,0,,,74,64
416788,note_off,,,,,144,0,2,,,0,,,65,64
416804,note_on,,,,,20,0,1,,,0,,,92,48
416820,set_tempo,,,,,380,1,0,428571,,,,,,
416854,control_change,,,,,66,0,2,,,0,64,0,,
416864,note_off,,,,,60,0,1,,,0,,,92,64
416884,control_change,,,,,0,0,2,,,0,64,127,,
416884,note_on,,,,,0,0,2,,,0,,,74,58
416884,note_on,,,,,0,0,2,,,0,,,71,58
416884,note_on,,,,,20,0,1,,,0,,,89,61
416884,note_on,,,,,30,0,2,,,0,,,65,58
416964,note_off,,,,,80,0,1,,,0,,,89,64
416964,note_on,,,,,0,0,1,,,0,,,91,59
416980,note_off,,,,,0,0,2,,,0,,,74,64
416980,note_off,,,,,0,0,2,,,0,,,65,64
416980,note_off,,,,,96,0,2,,,0,,,71,64
417024,note_off,,,,,60,0,1,,,0,,,91,64
417044,note_on,,,,,20,0,1,,,0,,,91,55
417064,control_change,,,,,84,0,2,,,0,64,0,,
417104,note_off,,,,,60,0,1,,,0,,,91,64
417124,note_on,,,,,20,0,1,,,0,,,86,70
417124,note_on,,,,,0,0,1,,,0,,,83,70
417124,note_on,,,,,60,0,2,,,0,,,71,67
417124,note_on,,,,,0,0,2,,,0,,,65,67
417124,note_on,,,,,0,0,2,,,0,,,74,67
417124,control_change,,,,,0,0,2,,,0,64,127,,
417204,note_on,,,,,0,0,1,,,0,,,92,67
417204,note_off,,,,,0,0,1,,,0,,,86,64
417204,note_off,,,,,80,0,1,,,0,,,83,64
417220,note_off,,,,,0,0,2,,,0,,,71,64
417220,note_off,,,,,0,0,2,,,0,,,65,64
417220,note_off,,,,,96,0,2,,,0,,,74,64
417264,note_off,,,,,60,0,1,,,0,,,92,64
417284,note_on,,,,,20,0,1,,,0,,,92,63
417300,set_tempo,,,,,480,1,0,425532,,,,,,
417304,control_change,,,,,84,0,2,,,0,64,0,,
417344,note_off,,,,,60,0,1,,,0,,,92,64
417364,note_on,,,,,0,0,2,,,0,,,74,73
417364,note_on,,,,,0,0,2,,,0,,,71,73
417364,note_on,,,,,0,0,2,,,0,,,65,73
417364,control_change,,,,,60,0,2,,,0,64,127,,
417364,note_on,,,,,20,0,1,,,0,,,86,83
417364,note_on,,,,,0,0,1,,,0,,,83,83
417444,note_on,,,,,0,0,1,,,0,,,91,79
417444,note_off,,,,,80,0,1,,,0,,,83,64
417444,note_off,,,,,0,0,1,,,0,,,86,64
417460,note_off,,,,,96,0,2,,,0,,,74,64
417460,note_off,,,,,0,0,2,,,0,,,71,64
417460,note_off,,,,,0,0,2,,,0,,,65,64
417480,set_tempo,,,,,180,1,0,451128,,,,,,
417504,note_off,,,,,60,0,1,,,0,,,91,64
417524,note_on,,,,,20,0,1,,,0,,,91,78
417544,control_change,,,,,84,0,2,,,0,64,0,,
417584,note_off,,,,,60,0,1,,,0,,,91,64
417604,note_on,,,,,60,0,2,,,0,,,63,63
417604,control_change,,,,,0,0,2,,,0,64,127,,
417604,note_on,,,,,0,0,2,,,0,,,75,63
417604,note_on,,,,,0,0,1,,,0,,,82,76
417604,note_on,,,,,20,0,1,,,0,,,87,76
417604,note_on,,,,,0,0,2,,,0,,,70,63
417640,set_tempo,,,,,160,1,0,480000,,,,,,
417684,note_off,,,,,80,0,1,,,0,,,82,64
417684,note_off,,,,,0,0,1,,,0,,,87,64
417684,note_on,,,,,0,0,1,,,0,,,92,74
417744,note_off,,,,,60,0,1,,,0,,,92,64
417748,note_off,,,,,144,0,2,,,0,,,75,64
417748,note_off,,,,,0,0,2,,,0,,,63,64
417748,note_off,,,,,0,0,2,,,0,,,70,64
417764,note_on,,,,,20,0,1,,,0,,,92,71
417814,control_change,,,,,66,0,2,,,0,64,0,,
417824,note_off,,,,,60,0,1,,,0,,,92,64
417840,set_tempo,,,,,200,1,0,451128,,,,,,
417844,note_on,,,,,30,0,2,,,0,,,63,58
417844,control_change,,,,,0,0,2,,,0,64,127,,
417844,note_on,,,,,0,0,2,,,0,,,75,58
417844,note_on,,,,,0,0,2,,,0,,,70,58
417844,note_on,,,,,0,0,1,,,0,,,82,69
417844,note_on,,,,,20,0,1,,,0,,,87,69
417924,note_off,,,,,0,0,1,,,0,,,87,64
417924,note_on,,,,,0,0,1,,,0,,,91,61
417924,note_off,,,,,80,0,1,,,0,,,82,64
417940,note_off,,,,,0,0,2,,,0,,,63,64
417940,note_off,,,,,0,0,2,,,0,,,75,64
417940,note_off,,,,,96,0,2,,,0,,,70,64
417960,set_tempo,,,,,120,1,0,476190,,,,,,
417984,note_off,,,,,60,0,1,,,0,,,91,64
418004,note_on,,,,,20,0,1,,,0,,,91,58
418024,control_change,,,,,84,0,2,,,0,64,0,,
418060,set_tempo,,,,,100,1,0,526316,,,,,,
418064,note_off,,,,,60,0,1,,,0,,,91,64
418084,note_on,,,,,60,0,2,,,0,,,70,45
418084,note_on,,,,,0,0,2,,,0,,,65,45
418084,note_on,,,,,0,0,2,,,0,,,74,45
418084,note_on,,,,,0,0,1,,,0,,,82,54
418084,note_on,,,,,20,0,1,,,0,,,86,54
418084,control_change,,,,,0,0,2,,,0,64,127,,
418164,note_off,,,,,0,0,1,,,0,,,86,64
418164,note_off,,,,,80,0,1,,,0,,,82,64
418164,note_on,,,,,0,0,1,,,0,,,89,50
418180,note_off,,,,,96,0,2,,,0,,,74,64
418180,note_off,,,,,0,0,2,,,0,,,65,64
418180,note_off,,,,,0,0,2,,,0,,,70,64
418224,note_off,,,,,60,0,1,,,0,,,89,64
418244,note_on,,,,,20,0,1,,,0,,,89,45
418260,set_tempo,,,,,200,1,0,576923,,,,,,
418264,control_change,,,,,84,0,2,,,0,64,0,,
418304,note_off,,,,,60,0,1,,,0,,,89,64
418320,set_tempo,,,,,60,1,0,625000,,,,,,
418324,note_on,,,,,0,0,1,,,0,,,81,41
418324,note_on,,,,,20,0,1,,,0,,,84,41
418324,note_on,,,,,60,0,2,,,0,,,75,35
418324,note_on,,,,,0,0,2,,,0,,,65,35
418324,note_on,,,,,0,0,2,,,0,,,72,35
418324,control_change,,,,,0,0,2,,,0,64,127,,
418404,note_off,,,,,0,0,1,,,0,,,84,64
418404,note_on,,,,,0,0,1,,,0,,,89,32
418404,note_off,,,,,80,0,1,,,0,,,81,64
418420,note_off,,,,,96,0,2,,,0,,,72,64
418420,note_off,,,,,0,0,2,,,0,,,75,64
418420,set_tempo,,,,,100,1,0,631579,,,,,,
418420,note_off,,,,,0,0,2,,,0,,,65,64
418440,set_tempo,,,,,20,1,0,666667,,,,,,
418464,note_off,,,,,60,0,1,,,0,,,89,64
418484,set_tempo,,,,,44,1,0,750000,,,,,,
418484,note_on,,,,,20,0,1,,,0,,,89,26
418504,control_change,,,,,84,0,2,,,0,64,0,,
418504,set_tempo,,,,,20,1,0,895522,,,,,,
418544,set_tempo,,,,,40,1,0,3157895,,,,,,
418544,note_off,,,,,60,0,1,,,0,,,89,64
418560,set_tempo,,,,,16,1,0,545455,,,,,,
418564,note_on,,,,,0,0,2,,,0,,,51,52
418564,note_on,,,,,0,0,2,,,0,,,60,52
418564,note_on,,,,,60,0,2,,,0,,,57,52
418564,control_change,,,,,0,0,2,,,0,64,127,,
418564,note_on,,,,,20,0,1,,,0,,,75,54
418644,note_off,,,,,80,0,1,,,0,,,75,64
418644,note_on,,,,,0,0,1,,,0,,,78,52
418704,note_off,,,,,60,0,1,,,0,,,78,64
418708,note_off,,,,,144,0,2,,,0,,,51,64
418708,note_off,,,,,0,0,2,,,0,,,60,64
418708,note_off,,,,,0,0,2,,,0,,,57,64
418724,note_on,,,,,20,0,1,,,0,,,78,48
418774,control_change,,,,,66,0,2,,,0,64,0,,
418784,note_off,,,,,60,0,1,,,0,,,78,64
418804,control_change,,,,,0,0,2,,,0,64,127,,
418804,note_on,,,,,30,0,2,,,0,,,51,58
418804,note_on,,,,,20,0,1,,,0,,,75,61
418804,note_on,,,,,0,0,2,,,0,,,60,58
418804,note_on,,,,,0,0,2,,,0,,,57,58
418840,set_tempo,,,,,280,1,0,526316,,,,,,
418884,note_off,,,,,80,0,1,,,0,,,75,64
418884,note_on,,,,,0,0,1,,,0,,,77,59
418900,note_off,,,,,96,0,2,,,0,,,57,64
418900,note_off,,,,,0,0,2,,,0,,,60,64
418900,note_off,,,,,0,0,2,,,0,,,51,64
418944,note_off,,,,,60,0,1,,,0,,,77,64
418964,note_on,,,,,20,0,1,,,0,,,77,55
418984,control_change,,,,,84,0,2,,,0,64,0,,
419000,set_tempo,,,,,160,1,0,508475,,,,,,
419024,note_off,,,,,60,0,1,,,0,,,77,64
419044,note_on,,,,,0,0,1,,,0,,,69,70
419044,note_on,,,,,60,0,2,,,0,,,57,67
419044,note_on,,,,,20,0,1,,,0,,,72,70
419044,note_on,,,,,0,0,2,,,0,,,51,67
419044,note_on,,,,,0,0,2,,,0,,,60,67
419044,control_change,,,,,0,0,2,,,0,64,127,,
419124,note_off,,,,,80,0,1,,,0,,,69,64
419124,note_on,,,,,0,0,1,,,0,,,78,67
419124,note_off,,,,,0,0,1,,,0,,,72,64
419140,note_off,,,,,0,0,2,,,0,,,51,64
419140,note_off,,,,,0,0,2,,,0,,,57,64
419140,note_off,,,,,96,0,2,,,0,,,60,64
419184,note_off,,,,,60,0,1,,,0,,,78,64
419204,note_on,,,,,20,0,1,,,0,,,78,63
419224,control_change,,,,,84,0,2,,,0,64,0,,
419264,note_off,,,,,60,0,1,,,0,,,78,64
419284,control_change,,,,,60,0,2,,,0,64,127,,
419284,note_on,,,,,0,0,2,,,0,,,51,73
419284,note_on,,,,,0,0,2,,,0,,,57,73
419284,note_on,,,,,0,0,2,,,0,,,60,73
419284,note_on,,,,,20,0,1,,,0,,,72,83
419284,note_on,,,,,0,0,1,,,0,,,69,83
419320,set_tempo,,,,,320,1,0,500000,,,,,,
419364,note_off,,,,,80,0,1,,,0,,,69,64
419364,note_off,,,,,0,0,1,,,0,,,72,64
419364,note_on,,,,,0,0,1,,,0,,,77,79
419380,note_off,,,,,96,0,2,,,0,,,60,64
419380,note_off,,,,,0,0,2,,,0,,,57,64
419380,note_off,,,,,0,0,2,,,0,,,51,64
419424,note_off,,,,,60,0,1,,,0,,,77,64
419444,note_on,,,,,20,0,1,,,0,,,77,78
419464,control_change,,,,,84,0,2,,,0,64,0,,
419504,note_off,,,,,60,0,1,,,0,,,77,64
419524,note_on,,,,,20,0,1,,,0,,,73,76
419524,control_change,,,,,0,0,2,,,0,64,127,,
419524,note_on,,,,,0,0,2,,,0,,,61,63
419524,note_on,,,,,60,0,2,,,0,,,49,63
419524,note_on,,,,,0,0,1,,,0,,,68,76
419524,note_on,,,,,0,0,2,,,0,,,56,63
419540,set_tempo,,,,,220,1,0,476190,,,,,,
419604,note_off,,,,,80,0,1,,,0,,,68,64
419604,note_on,,,,,0,0,1,,,0,,,78,74
419604,note_off,,,,,0,0,1,,,0,,,73,64
419640,set_tempo,,,,,100,1,0,508475,,,,,,
419664,note_off,,,,,60,0,1,,,0,,,78,64
419668,note_off,,,,,0,0,2,,,0,,,49,64
419668,note_off,,,,,0,0,2,,,0,,,56,64
419668,note_off,,,,,144,0,2,,,0,,,61,64
419684,note_on,,,,,20,0,1,,,0,,,78,71
419734,control_change,,,,,66,0,2,,,0,64,0,,
419744,note_off,,,,,60,0,1,,,0,,,78,64
419764,note_on,,,,,0,0,1,,,0,,,68,69
419764,note_on,,,,,20,0,1,,,0,,,73,69
419764,note_on,,,,,0,0,2,,,0,,,61,58
419764,note_on,,,,,0,0,2,,,0,,,56,58
419764,control_change,,,,,0,0,2,,,0,64,127,,
419764,note_on,,,,,30,0,2,,,0,,,49,58
419840,set_tempo,,,,,200,1,0,512821,,,,,,
419844,note_on,,,,,0,0,1,,,0,,,77,61
419844,note_off,,,,,0,0,1,,,0,,,73,64
419844,note_off,,,,,80,0,1,,,0,,,68,64
419860,note_off,,,,,0,0,2,,,0,,,49,64
419860,note_off,,,,,0,0,2,,,0,,,61,64
419860,note_off,,,,,96,0,2,,,0,,,56,64
419860,set_tempo,,,,,20,1,0,526316,,,,,,
419880,set_tempo,,,,,20,1,0,540541,,,,,,
419904,note_off,,,,,60,0,1,,,0,,,77,64
419924,note_on,,,,,20,0,1,,,0,,,77,58
419940,set_tempo,,,,,60,1,0,606061,,,,,,
419944,control_change,,,,,84,0,2,,,0,64,0,,
419984,note_off,,,,,60,0,1,,,0,,,77,64
420004,control_change,,,,,0,0,2,,,0,64,127,,
420004,note_on,,,,,60,0,2,,,0,,,56,45
420004,note_on,,,,,0,0,2,,,0,,,60,45
420004,note_on,,,,,0,0,2,,,0,,,51,45
420004,note_on,,,,,20,0,1,,,0,,,72,54
420004,note_on,,,,,0,0,1,,,0,,,68,54
420084,note_off,,,,,80,0,1,,,0,,,68,64
420084,note_off,,,,,0,0,1,,,0,,,72,64
420084,note_on,,,,,0,0,1,,,0,,,75,50
420100,note_off,,,,,0,0,2,,,0,,,56,64
420100,note_off,,,,,0,0,2,,,0,,,51,64
420100,note_off,,,,,96,0,2,,,0,,,60,64
420120,set_tempo,,,,,180,1,0,659341,,,,,,
420144,note_off,,,,,60,0,1,,,0,,,75,64
420164,note_on,,,,,20,0,1,,,0,,,75,45
420184,control_change,,,,,84,0,2,,,0,64,0,,
420224,note_off,,,,,60,0,1,,,0,,,75,64
420244,control_change,,,,,0,0,2,,,0,64,127,,
420244,note_on,,,,,0,0,1,,,0,,,67,41
420244,note_on,,,,,20,0,1,,,0,,,70,41
420244,note_on,,,,,60,0,2,,,0,,,61,35
420244,note_on,,,,,0,0,2,,,0,,,51,35
420244,note_on,,,,,0,0,2,,,0,,,58,35
420260,set_tempo,,,,,140,1,0,731707,,,,,,
420324,note_off,,,,,0,0,1,,,0,,,70,64
420324,note_off,,,,,80,0,1,,,0,,,67,64
420324,note_on,,,,,0,0,1,,,0,,,75,32
420340,note_off,,,,,0,0,2,,,0,,,61,64
420340,note_off,,,,,0,0,2,,,0,,,51,64
420340,note_off,,,,,96,0,2,,,0,,,58,64
420360,set_tempo,,,,,100,1,0,869565,,,,,,
420384,note_off,,,,,60,0,1,,,0,,,75,64
420404,note_on,,,,,20,0,1,,,0,,,75,26
420424,control_change,,,,,84,0,2,,,0,64,0,,
420444,set_tempo,,,,,84,1,0,952381,,,,,,
420464,set_tempo,,,,,20,1,0,2500000,,,,,,
420464,note_off,,,,,60,0,1,,,0,,,75,64
420484,set_tempo,,,,,20,1,0,2727273,,,,,,
420524,set_tempo,,,,,40,1,0,714286,,,,,,
420944,set_tempo,,,,,420,1,0,600000,,,,,,
420964,control_change,,,,,0,0,2,,,0,64,127,,
420964,note_on,,,,,540,0,2,,,0,,,71,43
420964,note_on,,,,,500,0,1,,,0,,,83,38
420964,note_on,,,,,0,0,1,,,0,,,78,38
421044,note_off,,,,,0,0,1,,,0,,,83,64
421044,note_on,,,,,0,0,1,,,0,,,87,35
421044,note_off,,,,,80,0,1,,,0,,,78,64
421080,set_tempo,,,,,136,1,0,625000,,,,,,
421104,note_off,,,,,60,0,1,,,0,,,87,64
421108,note_off,,,,,144,0,2,,,0,,,71,64
421124,note_on,,,,,20,0,1,,,0,,,87,31
421174,control_change,,,,,66,0,2,,,0,64,0,,
421184,note_off,,,,,60,0,1,,,0,,,87,64
421204,note_on,,,,,0,0,2,,,0,,,68,36
421204,control_change,,,,,30,0,2,,,0,64,127,,
421204,note_on,,,,,20,0,1,,,0,,,83,29
421204,note_on,,,,,0,0,1,,,0,,,78,29
421220,set_tempo,,,,,140,1,0,666667,,,,,,
421284,note_on,,,,,0,0,1,,,0,,,86,26
421284,note_off,,,,,0,0,1,,,0,,,83,64
421284,note_off,,,,,80,0,1,,,0,,,78,64
421300,note_off,,,,,96,0,2,,,0,,,68,64
421344,note_off,,,,,60,0,1,,,0,,,86,64
421344,set_tempo,,,,,124,1,0,674157,,,,,,
421364,note_on,,,,,20,0,1,,,0,,,86,28
421384,control_change,,,,,84,0,2,,,0,64,0,,
421424,note_off,,,,,60,0,1,,,0,,,86,64
421444,note_on,,,,,0,0,2,,,0,,,73,30
421444,control_change,,,,,60,0,2,,,0,64,127,,
421444,note_on,,,,,0,0,1,,,0,,,78,30
421444,note_on,,,,,20,0,1,,,0,,,82,30
421464,set_tempo,,,,,120,1,0,689655,,,,,,
421480,set_tempo,,,,,16,1,0,722892,,,,,,
421524,note_off,,,,,80,0,1,,,0,,,78,64
421524,note_off,,,,,0,0,1,,,0,,,82,64
421524,note_on,,,,,0,0,1,,,0,,,85,28
421540,note_off,,,,,96,0,2,,,0,,,73,64
421580,set_tempo,,,,,100,1,0,740741,,,,,,
421584,note_off,,,,,60,0,1,,,0,,,85,64
421600,set_tempo,,,,,20,1,0,750000,,,,,,
421604,note_on,,,,,20,0,1,,,0,,,85,24
421624,control_change,,,,,84,0,2,,,0,64,0,,
421640,set_tempo,,,,,40,1,0,769231,,,,,,
421664,note_off,,,,,60,0,1,,,0,,,85,64
421684,note_on,,,,,60,0,2,,,0,,,73,22
421684,control_change,,,,,0,0,2,,,0,64,127,,
421684,note_on,,,,,0,0,1,,,0,,,77,25
421684,note_on,,,,,20,0,1,,,0,,,80,25
421764,note_on,,,,,0,0,1,,,0,,,85,23
421764,note_off,,,,,0,0,1,,,0,,,80,64
421764,note_off,,,,,80,0,1,,,0,,,77,64
421780,note_off,,,,,96,0,2,,,0,,,73,64
421824,note_off,,,,,60,0,1,,,0,,,85,64
421844,note_on,,,,,20,0,1,,,0,,,85,19
421864,control_change,,,,,84,0,2,,,0,64,0,,
421904,note_off,,,,,60,0,1,,,0,,,85,64
421944,set_tempo,,,,,304,1,0,1395349,,,,,,
422104,set_tempo,,,,,160,1,0,722892,,,,,,
422164,note_on,,,,,0,0,1,,,0,,,66,30
422164,control_change,,,,,300,0,2,,,0,64,127,,
422164,note_on,,,,,0,0,2,,,0,,,49,30
422164,note_on,,,,,260,0,1,,,0,,,69,30
422244,note_off,,,,,80,0,1,,,0,,,66,64
422244,note_off,,,,,0,0,1,,,0,,,69,64
422244,note_on,,,,,0,0,1,,,0,,,73,28
422260,note_off,,,,,96,0,2,,,0,,,49,64
422304,note_off,,,,,60,0,1,,,0,,,73,64
422324,note_on,,,,,20,0,1,,,0,,,73,24
422344,control_change,,,,,84,0,2,,,0,64,0,,
422384,note_off,,,,,60,0,1,,,0,,,73,64
422404,control_change,,,,,60,0,2,,,0,64,127,,
422404,note_on,,,,,0,0,2,,,0,,,49,22
422404,note_on,,,,,0,0,1,,,0,,,65,25
422404,note_on,,,,,20,0,1,,,0,,,68,25
422460,set_tempo,,,,,356,1,0,769231,,,,,,
422484,note_on,,,,,0,0,1,,,0,,,73,23
422484,note_off,,,,,80,0,1,,,0,,,65,64
422484,note_off,,,,,0,0,1,,,0,,,68,64
422500,note_off,,,,,96,0,2,,,0,,,49,64
422544,note_off,,,,,60,0,1,,,0,,,73,64
422564,note_on,,,,,20,0,1,,,0,,,73,19
422584,control_change,,,,,84,0,2,,,0,64,0,,
422624,note_off,,,,,60,0,1,,,0,,,73,64
422664,set_tempo,,,,,204,1,0,800000,,,,,,
422724,set_tempo,,,,,60,1,0,810811,,,,,,
422744,set_tempo,,,,,20,1,0,1304348,,,,,,
422764,set_tempo,,,,,20,1,0,2222222,,,,,,
422864,set_tempo,,,,,100,1,0,1276596,,,,,,
422884,note_on,,,,,260,0,1,,,0,,,68,30
422884,control_change,,,,,300,0,2,,,0,64,127,,
422884,set_tempo,,,,,20,1,0,845070,,,,,,
422884,note_on,,,,,0,0,1,,,0,,,65,30
422884,note_on,,,,,0,0,2,,,0,,,50,30
422900,set_tempo,,,,,16,1,0,857143,,,,,,
422964,note_on,,,,,0,0,1,,,0,,,71,28
422964,note_off,,,,,0,0,1,,,0,,,68,64
422964,note_off,,,,,80,0,1,,,0,,,65,64
422980,note_off,,,,,96,0,2,,,0,,,50,64
423020,set_tempo,,,,,120,1,0,967742,,,,,,
423024,note_off,,,,,60,0,1,,,0,,,71,64
423044,note_on,,,,,20,0,1,,,0,,,71,24
423064,control_change,,,,,84,0,2,,,0,64,0,,
423104,note_off,,,,,60,0,1,,,0,,,71,64
423124,control_change,,,,,60,0,2,,,0,64,127,,
423124,note_on,,,,,0,0,1,,,0,,,65,25
423124,note_on,,,,,20,0,1,,,0,,,68,25
423124,note_on,,,,,0,0,2,,,0,,,50,22
423204,note_off,,,,,0,0,1,,,0,,,68,64
423204,note_on,,,,,0,0,1,,,0,,,70,23
423204,note_off,,,,,80,0,1,,,0,,,65,64
423220,set_tempo,,,,,200,1,0,1071429,,,,,,
423220,note_off,,,,,96,0,2,,,0,,,50,64
423264,note_off,,,,,60,0,1,,,0,,,70,64
423284,note_on,,,,,20,0,1,,,0,,,70,19
423300,set_tempo,,,,,80,1,0,1250000,,,,,,
423344,note_off,,,,,60,0,1,,,0,,,70,64
423360,set_tempo,,,,,60,1,0,1395349,,,,,,
423604,note_on,,,,,260,0,1,,,0,,,80,29
423604,note_on,,,,,0,0,1,,,0,,,77,29
423604,control_change,,,,,384,0,2,,,0,64,127,,
423604,note_on,,,,,0,0,2,,,0,,,62,31
423620,set_tempo,,,,,260,1,0,722892,,,,,,
423684,note_off,,,,,80,0,1,,,0,,,77,64
423684,note_off,,,,,0,0,1,,,0,,,80,64
423684,note_on,,,,,0,0,1,,,0,,,82,29
423700,note_off,,,,,96,0,2,,,0,,,62,64
423744,note_off,,,,,60,0,1,,,0,,,82,64
423764,note_on,,,,,20,0,1,,,0,,,82,30
423780,set_tempo,,,,,160,1,0,674157,,,,,,
423784,control_change,,,,,84,0,2,,,0,64,0,,
423824,note_off,,,,,60,0,1,,,0,,,82,64
423844,note_on,,,,,20,0,1,,,0,,,80,38
423844,note_on,,,,,0,0,1,,,0,,,75,38
423844,control_change,,,,,60,0,2,,,0,64,127,,
423844,note_on,,,,,0,0,2,,,0,,,63,35
423924,note_off,,,,,80,0,1,,,0,,,75,64
423924,note_off,,,,,0,0,1,,,0,,,80,64
423924,note_on,,,,,0,0,1,,,0,,,84,35
423940,note_off,,,,,96,0,2,,,0,,,63,64
423960,set_tempo,,,,,180,1,0,625000,,,,,,
423984,note_off,,,,,60,0,1,,,0,,,84,64
424004,note_on,,,,,20,0,1,,,0,,,84,28
424024,control_change,,,,,84,0,2,,,0,64,0,,
424064,note_off,,,,,60,0,1,,,0,,,84,64
424080,set_tempo,,,,,120,1,0,588235,,,,,,
424084,note_on,,,,,60,0,2,,,0,,,51,40
424084,note_on,,,,,0,0,1,,,0,,,75,41
424084,note_on,,,,,20,0,1,,,0,,,79,41
424084,control_change,,,,,0,0,2,,,0,64,127,,
424164,note_on,,,,,0,0,1,,,0,,,82,37
424164,note_off,,,,,80,0,1,,,0,,,75,64
424164,note_off,,,,,0,0,1,,,0,,,79,64
424180,note_off,,,,,96,0,2,,,0,,,51,64
424200,set_tempo,,,,,120,1,0,566038,,,,,,
424224,note_off,,,,,60,0,1,,,0,,,82,64
424244,note_on,,,,,20,0,1,,,0,,,82,35
424264,control_change,,,,,84,0,2,,,0,64,0,,
424304,note_off,,,,,60,0,1,,,0,,,82,64
424324,control_change,,,,,0,0,2,,,0,64,127,,
424324,note_on,,,,,60,0,2,,,0,,,53,46
424324,note_on,,,,,0,0,1,,,0,,,63,51
424324,note_on,,,,,20,0,1,,,0,,,67,51
424340,set_tempo,,,,,140,1,0,545455,,,,,,
424404,note_off,,,,,80,0,1,,,0,,,63,64
424404,note_off,,,,,0,0,1,,,0,,,67,64
424404,note_on,,,,,0,0,1,,,0,,,70,49
424444,note_off,,,,,120,0,2,,,0,,,53,64
424464,note_off,,,,,60,0,1,,,0,,,70,64
424484,note_on,,,,,20,0,1,,,0,,,70,43
424534,control_change,,,,,90,0,2,,,0,64,0,,
424544,note_off,,,,,60,0,1,,,0,,,70,64
424564,control_change,,,,,0,0,2,,,0,64,127,,
424564,note_on,,,,,0,0,1,,,0,,,62,61
424564,note_on,,,,,30,0,2,,,0,,,53,53
424564,note_on,,,,,20,0,1,,,0,,,65,61
424644,note_on,,,,,0,0,1,,,0,,,70,56
424644,note_off,,,,,0,0,1,,,0,,,65,64
424644,note_off,,,,,80,0,1,,,0,,,62,64
424660,note_off,,,,,96,0,2,,,0,,,53,64
424704,note_off,,,,,60,0,1,,,0,,,70,64
424724,note_on,,,,,20,0,1,,,0,,,70,52
424744,control_change,,,,,84,0,2,,,0,64,0,,
424784,note_off,,,,,60,0,1,,,0,,,70,64
424804,note_on,,,,,20,0,1,,,0,,,70,73
424804,note_on,,,,,0,0,1,,,0,,,65,73
424804,control_change,,,,,0,0,2,,,0,64,127,,
424804,note_on,,,,,60,0,2,,,0,,,53,63
424804,note_on,,,,,0,0,2,,,0,,,63,63
424804,note_on,,,,,0,0,2,,,0,,,60,63
424884,note_on,,,,,0,0,1,,,0,,,77,67
424884,note_off,,,,,0,0,1,,,0,,,70,64
424884,note_off,,,,,80,0,1,,,0,,,65,64
424900,note_off,,,,,96,0,2,,,0,,,60,64
424900,note_off,,,,,0,0,2,,,0,,,63,64
424900,note_off,,,,,0,0,2,,,0,,,53,64
424944,note_off,,,,,60,0,1,,,0,,,77,64
424964,note_on,,,,,20,0,1,,,0,,,77,62
425014,control_change,,,,,114,0,2,,,0,64,0,,
425024,note_off,,,,,60,0,1,,,0,,,77,64
425044,note_on,,,,,0,0,2,,,0,,,53,63
425044,note_on,,,,,30,0,2,,,0,,,63,63
425044,note_on,,,,,0,0,1,,,0,,,65,76
425044,control_change,,,,,0,0,2,,,0,64,127,,
425044,note_on,,,,,20,0,1,,,0,,,69,76
425044,note_on,,,,,0,0,2,,,0,,,60,63
425120,set_tempo,,,,,780,1,0,588235,,,,,,
425124,note_off,,,,,80,0,1,,,0,,,65,64
425124,note_off,,,,,0,0,1,,,0,,,69,64
425124,note_on,,,,,0,0,1,,,0,,,77,81
425140,note_off,,,,,0,0,2,,,0,,,63,64
425140,note_off,,,,,0,0,2,,,0,,,53,64
425140,note_off,,,,,96,0,2,,,0,,,60,64
425184,note_off,,,,,60,0,1,,,0,,,77,64
425204,note_on,,,,,20,0,1,,,0,,,77,84
425224,set_tempo,,,,,104,1,0,576923,,,,,,
425224,control_change,,,,,84,0,2,,,0,64,0,,
425264,note_off,,,,,60,0,1,,,0,,,77,64
425284,note_on,,,,,0,0,2,,,0,,,58,84
425284,note_on,,,,,20,0,1,,,0,,,70,63
425284,note_on,,,,,0,0,1,,,0,,,65,88
425284,note_on,,,,,0,0,1,,,0,,,62,88
425284,note_on,,,,,0,0,2,,,0,,,46,84
425284,control_change,,,,,60,0,2,,,0,64,127,,
425284,set_tempo,,,,,60,1,0,582524,,,,,,
425304,set_tempo,,,,,20,1,0,689655,,,,,,
425364,note_off,,,,,0,0,1,,,0,,,70,64
425364,note_off,,,,,0,0,1,,,0,,,65,64
425364,note_off,,,,,80,0,1,,,0,,,62,64
425364,note_on,,,,,0,0,1,,,0,,,65,69
425364,set_tempo,,,,,60,1,0,550459,,,,,,
425444,note_off,,,,,80,0,1,,,0,,,65,64
425444,note_on,,,,,0,0,1,,,0,,,62,62
425476,note_off,,,,,0,0,2,,,0,,,58,64
425476,note_off,,,,,192,0,2,,,0,,,46,64
425484,set_tempo,,,,,120,1,0,560748,,,,,,
425524,note_on,,,,,0,0,1,,,0,,,65,68
425524,note_off,,,,,80,0,1,,,0,,,62,64
425524,control_change,,,,,48,0,2,,,0,64,0,,
425604,note_off,,,,,80,0,1,,,0,,,65,64
425604,note_on,,,,,0,0,1,,,0,,,70,76
425684,note_off,,,,,80,0,1,,,0,,,70,64
425684,note_on,,,,,0,0,1,,,0,,,74,80
425764,note_off,,,,,80,0,1,,,0,,,74,64
425764,note_on,,,,,0,0,1,,,0,,,77,84
425764,note_on,,,,,0,0,1,,,0,,,62,84
425764,note_on,,,,,0,0,1,,,0,,,65,84
425780,set_tempo,,,,,296,1,0,631579,,,,,,
426004,note_on,,,,,480,0,2,,,0,,,67,48
426060,set_tempo,,,,,280,1,0,606061,,,,,,
426124,note_on,,,,,0,0,1,,,0,,,60,42
426124,note_on,,,,,0,0,1,,,0,,,63,42
426124,note_on,,,,,0,0,1,,,0,,,75,42
426124,note_on,,,,,0,0,2,,,0,,,69,56
426124,note_off,,,,,120,0,2,,,0,,,67,64
426124,note_off,,,,,0,0,1,,,0,,,77,64
426124,note_off,,,,,0,0,1,,,0,,,65,64
426124,note_off,,,,,360,0,1,,,0,,,62,64
426240,set_tempo,,,,,180,1,0,588235,,,,,,
426244,note_on,,,,,0,0,2,,,0,,,70,61
426244,note_off,,,,,0,0,1,,,0,,,63,64
426244,note_off,,,,,120,0,1,,,0,,,60,64
426244,note_on,,,,,0,0,1,,,0,,,62,52
426244,note_on,,,,,0,0,1,,,0,,,74,52
426244,note_off,,,,,120,0,2,,,0,,,69,64
426244,note_off,,,,,0,0,1,,,0,,,75,64
426244,note_on,,,,,0,0,1,,,0,,,58,52
426484,note_off,,,,,0,0,1,,,0,,,74,64
426484,note_on,,,,,0,0,1,,,0,,,74,50
426484,note_on,,,,,0,0,1,,,0,,,72,50
426484,note_on,,,,,0,0,1,,,0,,,66,50
426484,note_on,,,,,0,0,1,,,0,,,62,50
426484,note_on,,,,,0,0,1,,,0,,,56,50
426484,note_off,,,,,0,0,1,,,0,,,62,64
426484,note_off,,,,,240,0,1,,,0,,,58,64
426484,note_off,,,,,240,0,2,,,0,,,70,64
426660,set_tempo,,,,,420,1,0,571429,,,,,,
426724,note_off,,,,,0,0,1,,,0,,,62,64
426724,note_off,,,,,240,0,1,,,0,,,56,64
426724,note_off,,,,,0,0,1,,,0,,,72,64
426724,note_off,,,,,0,0,1,,,0,,,74,64
426724,note_on,,,,,0,0,1,,,0,,,74,55
426724,note_on,,,,,0,0,1,,,0,,,71,55
426724,note_on,,,,,0,0,1,,,0,,,67,55
426724,note_off,,,,,0,0,1,,,0,,,66,64
426724,note_on,,,,,0,0,1,,,0,,,62,55
426724,note_on,,,,,0,0,1,,,0,,,55,55
426724,note_on,,,,,0,0,1,,,0,,,65,55
426964,note_on,,,,,0,0,1,,,0,,,75,72
426964,note_on,,,,,480,0,2,,,0,,,60,57
426964,note_on,,,,,0,0,2,,,0,,,55,57
426964,note_on,,,,,0,0,2,,,0,,,48,57
426964,note_on,,,,,0,0,2,,,0,,,63,57
426964,note_on,,,,,0,0,2,,,0,,,72,57
426964,note_on,,,,,0,0,2,,,0,,,67,57
426964,note_off,,,,,0,0,1,,,0,,,67,64
426964,note_off,,,,,0,0,1,,,0,,,71,64
426964,note_off,,,,,0,0,1,,,0,,,74,64
426964,note_off,,,,,0,0,1,,,0,,,62,64
426964,note_off,,,,,240,0,1,,,0,,,55,64
426964,note_off,,,,,0,0,1,,,0,,,65,64
427040,set_tempo,,,,,380,1,0,618557,,,,,,
427120,set_tempo,,,,,80,1,0,625000,,,,,,
427144,note_on,,,,,0,0,1,,,0,,,74,48
427144,note_off,,,,,180,0,1,,,0,,,75,64
427204,note_off,,,,,240,0,2,,,0,,,72,64
427204,note_off,,,,,0,0,2,,,0,,,67,64
427204,note_on,,,,,0,0,2,,,0,,,65,42
427204,note_off,,,,,0,0,2,,,0,,,48,64
427204,note_on,,,,,0,0,1,,,0,,,72,45
427204,note_off,,,,,0,0,2,,,0,,,63,64
427204,note_on,,,,,0,0,2,,,0,,,53,42
427204,note_on,,,,,0,0,2,,,0,,,63,42
427204,note_off,,,,,60,0,1,,,0,,,74,64
427204,note_off,,,,,0,0,2,,,0,,,55,64
427204,note_off,,,,,0,0,2,,,0,,,60,64
427204,control_change,,,,,0,0,2,,,0,64,127,,
427204,note_on,,,,,0,0,2,,,0,,,69,42
427560,set_tempo,,,,,440,1,0,666667,,,,,,
427564,note_off,,,,,360,0,1,,,0,,,72,64
427564,note_on,,,,,0,0,1,,,0,,,73,45
427624,control_change,,,,,420,0,2,,,0,64,0,,
427684,note_off,,,,,60,0,2,,,0,,,53,64
427684,note_on,,,,,0,0,2,,,0,,,62,38
427684,control_change,,,,,0,0,2,,,0,64,127,,
427684,note_off,,,,,0,0,2,,,0,,,69,64
427684,note_off,,,,,0,0,2,,,0,,,65,64
427684,note_off,,,,,0,0,2,,,0,,,63,64
427684,note_on,,,,,0,0,1,,,0,,,74,39
427684,note_on,,,,,0,0,1,,,0,,,65,39
427684,note_on,,,,,0,0,1,,,0,,,70,39
427684,note_on,,,,,0,0,2,,,0,,,58,38
427684,note_off,,,,,120,0,1,,,0,,,73,64
427764,note_off,,,,,0,0,1,,,0,,,70,64
427764,note_off,,,,,80,0,1,,,0,,,65,64
427764,note_off,,,,,0,0,1,,,0,,,74,64
427764,note_off,,,,,0,0,2,,,0,,,62,64
427764,note_off,,,,,80,0,2,,,0,,,58,64
427800,set_tempo,,,,,240,1,0,731707,,,,,,
427804,control_change,,,,,40,0,2,,,0,64,0,,
427924,note_on,,,,,160,0,1,,,0,,,74,28
427924,note_on,,,,,0,0,1,,,0,,,70,28
427924,note_on,,,,,0,0,1,,,0,,,65,28
427924,control_change,,,,,120,0,2,,,0,64,127,,
427924,note_on,,,,,0,0,2,,,0,,,62,28
427924,note_on,,,,,0,0,2,,,0,,,58,28
428004,note_off,,,,,80,0,2,,,0,,,62,64
428004,note_off,,,,,0,0,1,,,0,,,74,64
428004,note_off,,,,,80,0,1,,,0,,,65,64
428004,set_tempo,,,,,204,1,0,1463415,,,,,,
428004,note_off,,,,,0,0,2,,,0,,,58,64
428004,note_off,,,,,0,0,1,,,0,,,70,64
428044,control_change,,,,,40,0,2,,,0,64,0,,
428164,set_tempo,,,,,160,1,0,779221,,,,,,
428244,set_tempo,,,,,80,1,0,689655,,,,,,
428244,note_on,,,,,240,0,1,,,0,,,53,34
428260,set_tempo,,,,,16,1,0,666667,,,,,,
428324,note_off,,,,,80,0,1,,,0,,,53,64
428324,note_on,,,,,0,0,1,,,0,,,50,37
428380,set_tempo,,,,,120,1,0,645161,,,,,,
428404,note_off,,,,,80,0,1,,,0,,,50,64
428404,control_change,,,,,360,0,2,,,0,64,0,,
428404,note_on,,,,,0,0,1,,,0,,,53,39
428484,note_off,,,,,80,0,1,,,0,,,53,64
428484,note_on,,,,,0,0,1,,,0,,,58,44
428564,note_off,,,,,80,0,1,,,0,,,58,64
428564,note_on,,,,,0,0,1,,,0,,,62,48
428644,note_off,,,,,80,0,1,,,0,,,62,64
428644,note_on,,,,,0,0,1,,,0,,,65,55
428644,note_on,,,,,0,0,1,,,0,,,53,55
428644,note_on,,,,,0,0,1,,,0,,,50,55
428740,set_tempo,,,,,360,1,0,600000,,,,,,
428764,note_on,,,,,360,0,2,,,0,,,53,51
428764,note_off,,,,,120,0,1,,,0,,,53,64
428884,note_on,,,,,120,0,2,,,0,,,55,43
429000,set_tempo,,,,,260,1,0,576923,,,,,,
429004,note_off,,,,,120,0,2,,,0,,,55,64
429004,note_on,,,,,0,0,2,,,0,,,57,37
429004,note_off,,,,,240,0,1,,,0,,,50,64
429004,note_off,,,,,0,0,1,,,0,,,65,64
429004,note_on,,,,,0,0,1,,,0,,,51,47
429004,note_on,,,,,0,0,1,,,0,,,63,47
429004,note_on,,,,,0,0,1,,,0,,,48,47
429124,note_off,,,,,120,0,2,,,0,,,53,64
429124,note_off,,,,,0,0,2,,,0,,,57,64
429124,note_on,,,,,0,0,2,,,0,,,58,51
429124,note_on,,,,,0,0,1,,,0,,,50,40
429124,note_on,,,,,0,0,1,,,0,,,62,40
429124,note_on,,,,,0,0,1,,,0,,,46,40
429124,note_off,,,,,120,0,1,,,0,,,48,64
429124,note_off,,,,,0,0,1,,,0,,,51,64
429124,note_off,,,,,0,0,1,,,0,,,63,64
429220,set_tempo,,,,,220,1,0,545455,,,,,,
429364,note_off,,,,,0,0,1,,,0,,,50,64
429364,note_off,,,,,0,0,1,,,0,,,62,64
429364,note_on,,,,,0,0,1,,,0,,,62,63
429364,note_on,,,,,0,0,1,,,0,,,60,63
429364,note_on,,,,,0,0,1,,,0,,,54,63
429364,note_on,,,,,0,0,1,,,0,,,44,63
429364,note_off,,,,,240,0,1,,,0,,,46,64
429364,note_off,,,,,240,0,2,,,0,,,58,64
429364,note_on,,,,,0,0,1,,,0,,,50,63
429560,set_tempo,,,,,340,1,0,582524,,,,,,
429580,set_tempo,,,,,20,1,0,606061,,,,,,
429600,set_tempo,,,,,20,1,0,618557,,,,,,
429604,note_on,,,,,0,0,1,,,0,,,43,79
429604,note_on,,,,,0,0,1,,,0,,,50,79
429604,note_on,,,,,0,0,1,,,0,,,53,79
429604,note_on,,,,,0,0,1,,,0,,,55,79
429604,note_on,,,,,0,0,1,,,0,,,59,79
429604,note_on,,,,,0,0,1,,,0,,,62,79
429604,note_off,,,,,0,0,1,,,0,,,60,64
429604,note_off,,,,,0,0,1,,,0,,,62,64
429604,note_off,,,,,0,0,1,,,0,,,50,64
429604,note_off,,,,,240,0,1,,,0,,,44,64
429604,control_change,,,,,240,0,2,,,0,64,127,,
429604,note_off,,,,,0,0,1,,,0,,,54,64
429704,set_tempo,,,,,104,1,0,674157,,,,,,
429724,set_tempo,,,,,20,1,0,689655,,,,,,
429744,set_tempo,,,,,20,1,0,560748,,,,,,
429764,set_tempo,,,,,20,1,0,550459,,,,,,
429784,set_tempo,,,,,20,1,0,545455,,,,,,
429818,note_off,,,,,0,0,1,,,0,,,62,64
429818,note_off,,,,,214,0,1,,,0,,,43,64
429818,note_off,,,,,0,0,1,,,0,,,50,64
429818,note_off,,,,,0,0,1,,,0,,,53,64
429818,note_off,,,,,0,0,1,,,0,,,55,64
429818,note_off,,,,,0,0,1,,,0,,,59,64
429824,set_tempo,,,,,40,1,0,540541,,,,,,
429844,set_tempo,,,,,20,1,0,1463415,,,,,,
429844,note_on,,,,,240,0,2,,,0,,,36,63
429844,note_on,,,,,26,0,1,,,0,,,51,63
429854,note_on,,,,,10,0,1,,,0,,,55,63
429854,note_on,,,,,10,0,2,,,0,,,43,63
429864,note_on,,,,,10,0,2,,,0,,,48,63
429864,note_on,,,,,10,0,1,,,0,,,60,63
429874,note_on,,,,,10,0,1,,,0,,,63,63
429884,control_change,,,,,20,0,2,,,0,64,0,,
429944,set_tempo,,,,,100,1,0,705882,,,,,,
429964,note_off,,,,,90,0,1,,,0,,,51,64
429964,note_off,,,,,80,0,2,,,0,,,36,64
429974,note_off,,,,,10,0,2,,,0,,,43,64
429974,note_off,,,,,10,0,1,,,0,,,55,64
429984,note_off,,,,,10,0,2,,,0,,,48,64
429984,note_off,,,,,10,0,1,,,0,,,60,64
429994,note_off,,,,,10,0,1,,,0,,,63,64
430324,note_on,,,,,0,0,1,,,0,,,63,79
430324,note_on,,,,,0,0,1,,,0,,,73,79
430324,note_on,,,,,0,0,1,,,0,,,67,79
430324,note_on,,,,,0,0,1,,,0,,,58,79
430324,note_on,,,,,330,0,1,,,0,,,75,79
430564,control_change,,,,,580,0,2,,,0,64,127,,
430564,note_off,,,,,0,0,1,,,0,,,75,64
430564,note_on,,,,,0,0,1,,,0,,,68,98
430564,note_off,,,,,0,0,1,,,0,,,73,64
430564,note_off,,,,,0,0,1,,,0,,,67,64
430564,note_off,,,,,0,0,1,,,0,,,63,64
430564,note_off,,,,,240,0,1,,,0,,,58,64
430564,note_on,,,,,0,0,1,,,0,,,72,98
430564,note_on,,,,,0,0,1,,,0,,,66,98
430564,note_on,,,,,0,0,1,,,0,,,63,98
430564,note_on,,,,,0,0,1,,,0,,,56,98
430564,note_on,,,,,0,0,1,,,0,,,75,98
430684,set_tempo,,,,,740,1,0,560748,,,,,,
430778,note_off,,,,,0,0,1,,,0,,,63,64
430778,note_off,,,,,214,0,1,,,0,,,56,64
430778,note_off,,,,,0,0,1,,,0,,,75,64
430778,note_off,,,,,0,0,1,,,0,,,72,64
430778,note_off,,,,,0,0,1,,,0,,,68,64
430778,note_off,,,,,0,0,1,,,0,,,66,64
430784,set_tempo,,,,,100,1,0,1538462,,,,,,
430804,note_on,,,,,240,0,2,,,0,,,49,96
430804,note_on,,,,,26,0,1,,,0,,,64,95
430814,note_on,,,,,10,0,1,,,0,,,68,95
430814,note_on,,,,,10,0,2,,,0,,,56,96
430824,note_on,,,,,10,0,2,,,0,,,61,96
430824,note_on,,,,,10,0,1,,,0,,,73,95
430834,note_on,,,,,10,0,1,,,0,,,76,95
430844,control_change,,,,,20,0,2,,,0,64,0,,
430864,set_tempo,,,,,80,1,0,1500000,,,,,,
430884,set_tempo,,,,,20,1,0,1463415,,,,,,
430924,set_tempo,,,,,40,1,0,705882,,,,,,
430924,note_off,,,,,90,0,1,,,0,,,64,64
430924,note_off,,,,,80,0,2,,,0,,,49,64
430934,note_off,,,,,10,0,1,,,0,,,68,64
430934,note_off,,,,,10,0,2,,,0,,,56,64
430944,note_off,,,,,10,0,1,,,0,,,73,64
430944,note_off,,,,,10,0,2,,,0,,,61,64
430954,note_off,,,,,10,0,1,,,0,,,76,64
431284,note_on,,,,,0,0,2,,,0,,,45,112
431284,note_on,,,,,0,0,2,,,0,,,49,112
431284,control_change,,,,,340,0,2,,,0,64,127,,
431284,note_on,,,,,330,0,1,,,0,,,85,112
431284,note_on,,,,,0,0,1,,,0,,,79,112
431284,note_on,,,,,0,0,1,,,0,,,88,112
431284,note_on,,,,,0,0,1,,,0,,,81,112
431284,note_on,,,,,0,0,2,,,0,,,52,112
431498,note_off,,,,,0,0,2,,,0,,,52,64
431498,note_off,,,,,0,0,2,,,0,,,45,64
431498,note_off,,,,,214,0,2,,,0,,,49,64
431498,note_off,,,,,214,0,1,,,0,,,79,64
431498,note_off,,,,,0,0,1,,,0,,,81,64
431498,note_off,,,,,0,0,1,,,0,,,88,64
431498,note_off,,,,,0,0,1,,,0,,,85,64
431524,note_on,,,,,26,0,1,,,0,,,77,112
431524,note_on,,,,,26,0,2,,,0,,,50,112
431524,note_on,,,,,0,0,2,,,0,,,38,112
431524,note_on,,,,,0,0,2,,,0,,,45,112
431534,note_on,,,,,10,0,1,,,0,,,81,112
431544,note_on,,,,,10,0,1,,,0,,,86,112
431544,set_tempo,,,,,620,1,0,1578947,,,,,,
431554,note_on,,,,,10,0,1,,,0,,,89,112
431564,control_change,,,,,40,0,2,,,0,64,0,,
431644,note_off,,,,,80,0,2,,,0,,,45,64
431644,note_off,,,,,0,0,2,,,0,,,38,64
431644,note_off,,,,,90,0,1,,,0,,,77,64
431644,note_off,,,,,0,0,2,,,0,,,50,64
431654,note_off,,,,,10,0,1,,,0,,,81,64
431664,note_off,,,,,10,0,1,,,0,,,86,64
431674,note_off,,,,,10,0,1,,,0,,,89,64
432004,note_on,,,,,360,0,2,,,0,,,70,47
432004,note_on,,,,,0,0,2,,,0,,,74,47
432004,note_on,,,,,0,0,2,,,0,,,68,47
432004,note_on,,,,,0,0,2,,,0,,,58,47
432004,set_tempo,,,,,460,1,0,705882,,,,,,
432004,note_on,,,,,330,0,1,,,0,,,77,44
432164,set_tempo,,,,,160,1,0,560748,,,,,,
432364,note_off,,,,,360,0,1,,,0,,,77,64
432364,note_on,,,,,0,0,1,,,0,,,78,53
432484,note_off,,,,,120,0,1,,,0,,,78,64
432484,note_on,,,,,0,0,1,,,0,,,79,57
432484,note_off,,,,,480,0,2,,,0,,,58,64
432484,note_off,,,,,0,0,2,,,0,,,68,64
432484,note_on,,,,,0,0,2,,,0,,,63,48
432484,note_on,,,,,0,0,2,,,0,,,67,48
432484,note_off,,,,,0,0,2,,,0,,,74,64
432484,note_on,,,,,0,0,1,,,0,,,75,57
432574,note_off,,,,,90,0,1,,,0,,,75,64
432574,note_off,,,,,0,0,2,,,0,,,70,64
432574,note_off,,,,,0,0,2,,,0,,,67,64
432574,note_off,,,,,90,0,2,,,0,,,63,64
432574,note_off,,,,,0,0,1,,,0,,,79,64
432604,set_tempo,,,,,440,1,0,600000,,,,,,
432724,note_on,,,,,150,0,1,,,0,,,79,60
432724,note_on,,,,,0,0,1,,,0,,,75,60
432724,note_on,,,,,0,0,2,,,0,,,63,59
432724,note_on,,,,,150,0,2,,,0,,,67,59
432864,set_tempo,,,,,260,1,0,952381,,,,,,
432874,note_off,,,,,0,0,1,,,0,,,79,64
432874,note_off,,,,,150,0,2,,,0,,,63,64
432874,note_off,,,,,150,0,1,,,0,,,75,64
432874,note_off,,,,,0,0,2,,,0,,,67,64
432924,set_tempo,,,,,60,1,0,566038,,,,,,
432964,note_on,,,,,90,0,1,,,0,,,82,73
432964,note_on,,,,,0,0,1,,,0,,,79,73
432964,note_on,,,,,0,0,1,,,0,,,70,73
432964,note_on,,,,,0,0,1,,,0,,,67,73
432964,note_on,,,,,0,0,1,,,0,,,63,73
433684,note_off,,,,,0,0,1,,,0,,,82,64
433684,note_off,,,,,0,0,1,,,0,,,79,64
433684,note_off,,,,,0,0,1,,,0,,,70,64
433684,note_off,,,,,0,0,1,,,0,,,67,64
433684,note_off,,,,,720,0,1,,,0,,,63,64
433924,note_on,,,,,240,0,1,,,0,,,70,50
434400,set_tempo,,,,,1476,1,0,540541,,,,,,
434524,note_off,,,,,600,0,1,,,0,,,70,64
434524,note_on,,,,,0,0,1,,,0,,,67,32
434620,set_tempo,,,,,220,1,0,517241,,,,,,
434640,set_tempo,,,,,20,1,0,512821,,,,,,
434644,note_off,,,,,120,0,1,,,0,,,67,64
434644,note_on,,,,,0,0,1,,,0,,,63,36
434680,set_tempo,,,,,40,1,0,508475,,,,,,
434764,note_off,,,,,120,0,1,,,0,,,63,64
434764,note_on,,,,,0,0,1,,,0,,,62,39
434884,note_on,,,,,0,0,1,,,0,,,62,42
434884,note_off,,,,,120,0,1,,,0,,,62,64
434884,note_on,,,,,2010,0,2,,,0,,,53,38
434884,note_on,,,,,0,0,2,,,0,,,57,38
434884,note_on,,,,,0,0,2,,,0,,,51,38
434884,note_on,,,,,0,0,2,,,0,,,41,38
435000,set_tempo,,,,,320,1,0,530973,,,,,,
435100,set_tempo,,,,,100,1,0,560748,,,,,,
435124,note_on,,,,,0,0,1,,,0,,,60,32
435124,note_off,,,,,240,0,1,,,0,,,62,64
435304,note_on,,,,,0,0,1,,,0,,,61,38
435304,note_off,,,,,180,0,1,,,0,,,60,64
435364,note_on,,,,,0,0,1,,,0,,,58,42
435364,note_on,,,,,0,0,1,,,0,,,62,42
435364,note_off,,,,,60,0,1,,,0,,,61,64
435364,note_off,,,,,480,0,2,,,0,,,41,64
435364,note_off,,,,,0,0,2,,,0,,,51,64
435364,note_on,,,,,0,0,2,,,0,,,50,28
435364,note_on,,,,,0,0,2,,,0,,,46,28
435364,note_off,,,,,0,0,2,,,0,,,57,64
435454,note_off,,,,,0,0,2,,,0,,,53,64
435454,note_off,,,,,0,0,2,,,0,,,46,64
435454,note_off,,,,,90,0,2,,,0,,,50,64
435454,note_off,,,,,90,0,1,,,0,,,58,64
435454,note_off,,,,,0,0,1,,,0,,,62,64
435604,note_on,,,,,150,0,2,,,0,,,50,34
435604,note_on,,,,,0,0,2,,,0,,,46,34
435604,note_on,,,,,150,0,1,,,0,,,62,37
435604,note_on,,,,,0,0,1,,,0,,,58,37
435754,note_off,,,,,0,0,1,,,0,,,62,64
435754,note_off,,,,,150,0,1,,,0,,,58,64
435754,note_off,,,,,150,0,2,,,0,,,46,64
435754,note_off,,,,,0,0,2,,,0,,,50,64
435764,set_tempo,,,,,664,1,0,923077,,,,,,
435844,note_on,,,,,0,0,1,,,0,,,53,48
435844,set_tempo,,,,,80,1,0,566038,,,,,,
435844,note_on,,,,,0,0,1,,,0,,,46,48
435844,note_on,,,,,0,0,1,,,0,,,62,48
435844,note_on,,,,,90,0,1,,,0,,,65,48
436564,set_tempo,,,,,720,1,0,535714,,,,,,
436564,note_off,,,,,0,0,1,,,0,,,65,64
436564,note_off,,,,,0,0,1,,,0,,,62,64
436564,note_off,,,,,0,0,1,,,0,,,53,64
436564,note_off,,,,,720,0,1,,,0,,,46,64
436804,note_on,,,,,1050,0,2,,,0,,,70,46
436804,note_on,,,,,0,0,2,,,0,,,68,46
436804,note_on,,,,,0,0,2,,,0,,,58,46
436804,note_on,,,,,0,0,2,,,0,,,74,46
436804,note_on,,,,,240,0,1,,,0,,,77,48
436840,set_tempo,,,,,276,1,0,540541,,,,,,
437100,set_tempo,,,,,260,1,0,535714,,,,,,
437164,note_on,,,,,0,0,1,,,0,,,78,54
437164,note_off,,,,,360,0,1,,,0,,,77,64
437180,set_tempo,,,,,80,1,0,530973,,,,,,
437280,set_tempo,,,,,100,1,0,560748,,,,,,
437284,note_on,,,,,0,0,2,,,0,,,67,48
437284,note_on,,,,,0,0,1,,,0,,,75,49
437284,note_on,,,,,0,0,1,,,0,,,79,49
437284,note_off,,,,,120,0,1,,,0,,,78,64
437284,note_on,,,,,0,0,2,,,0,,,63,48
437284,note_off,,,,,0,0,2,,,0,,,68,64
437284,note_off,,,,,480,0,2,,,0,,,58,64
437284,note_off,,,,,0,0,2,,,0,,,74,64
437374,note_off,,,,,0,0,2,,,0,,,70,64
437374,note_off,,,,,90,0,1,,,0,,,75,64
437374,note_off,,,,,0,0,1,,,0,,,79,64
437374,note_off,,,,,90,0,2,,,0,,,67,64
437374,note_off,,,,,0,0,2,,,0,,,63,64
437500,set_tempo,,,,,220,1,0,550459,,,,,,
437524,note_on,,,,,0,0,1,,,0,,,75,60
437524,note_on,,,,,150,0,1,,,0,,,79,60
437524,note_on,,,,,150,0,2,,,0,,,67,62
437524,note_on,,,,,0,0,2,,,0,,,63,62
437560,set_tempo,,,,,60,1,0,600000,,,,,,
437640,set_tempo,,,,,80,1,0,588235,,,,,,
437660,set_tempo,,,,,20,1,0,631579,,,,,,
437674,note_off,,,,,150,0,2,,,0,,,63,64
437674,note_off,,,,,0,0,2,,,0,,,67,64
437674,note_off,,,,,150,0,1,,,0,,,75,64
437674,note_off,,,,,0,0,1,,,0,,,79,64
437720,set_tempo,,,,,60,1,0,681818,,,,,,
437740,set_tempo,,,,,20,1,0,789474,,,,,,
437764,note_on,,,,,90,0,1,,,0,,,63,91
437764,control_change,,,,,90,0,2,,,0,64,127,,
437794,note_on,,,,,0,0,1,,,0,,,67,82
437794,note_off,,,,,30,0,1,,,0,,,63,64
437824,note_on,,,,,0,0,1,,,0,,,70,80
437824,note_off,,,,,30,0,1,,,0,,,67,64
437840,set_tempo,,,,,100,1,0,606061,,,,,,
437854,note_on,,,,,0,0,1,,,0,,,75,74
437854,note_off,,,,,30,0,1,,,0,,,70,64
437880,set_tempo,,,,,40,1,0,545455,,,,,,
437884,note_off,,,,,30,0,1,,,0,,,75,64
437884,note_on,,,,,0,0,1,,,0,,,79,69
437900,set_tempo,,,,,20,1,0,540541,,,,,,
437914,note_off,,,,,30,0,1,,,0,,,79,64
437914,note_on,,,,,0,0,1,,,0,,,82,66
437944,note_on,,,,,0,0,1,,,0,,,87,61
437944,note_off,,,,,30,0,1,,,0,,,82,64
437960,set_tempo,,,,,60,1,0,500000,,,,,,
437974,note_off,,,,,30,0,1,,,0,,,87,64
437974,note_on,,,,,0,0,1,,,0,,,91,57
437980,set_tempo,,,,,20,1,0,495868,,,,,,
438004,note_off,,,,,30,0,1,,,0,,,91,64
438004,note_on,,,,,0,0,1,,,0,,,94,53
438040,set_tempo,,,,,60,1,0,491803,,,,,,
438124,note_off,,,,,120,0,1,,,0,,,94,64
438244,set_tempo,,,,,204,1,0,857143,,,,,,
438454,control_change,,,,,690,0,2,,,0,64,0,,
438724,set_tempo,,,,,480,1,0,550459,,,,,,
438724,note_on,,,,,600,0,1,,,0,,,82,70
438724,control_change,,,,,0,0,1,,,0,64,0,,
439040,set_tempo,,,,,316,1,0,535714,,,,,,
439564,note_off,,,,,840,0,1,,,0,,,82,64
439564,note_on,,,,,0,0,1,,,0,,,81,47
439684,note_off,,,,,120,0,1,,,0,,,81,64
439684,note_on,,,,,0,0,1,,,0,,,81,56
439700,set_tempo,,,,,660,1,0,545455,,,,,,
439860,set_tempo,,,,,160,1,0,526316,,,,,,
439924,note_off,,,,,240,0,1,,,0,,,81,64
439924,note_on,,,,,0,0,1,,,0,,,79,42
440104,note_off,,,,,180,0,1,,,0,,,79,64
440104,note_on,,,,,0,0,1,,,0,,,77,35
440148,note_off,,,,,44,0,1,,,0,,,77,64
440164,note_on,,,,,16,0,1,,,0,,,77,40
440240,set_tempo,,,,,380,1,0,508475,,,,,,
440260,set_tempo,,,,,20,1,0,504202,,,,,,
440400,set_tempo,,,,,140,1,0,508475,,,,,,
440404,note_off,,,,,240,0,1,,,0,,,77,64
440404,note_on,,,,,0,0,1,,,0,,,75,35
440584,note_off,,,,,180,0,1,,,0,,,75,64
440584,note_on,,,,,0,0,1,,,0,,,74,31
440628,note_off,,,,,44,0,1,,,0,,,74,64
440644,note_on,,,,,2190,0,2,,,0,,,65,27
440644,note_on,,,,,0,0,2,,,0,,,69,27
440644,note_on,,,,,0,0,2,,,0,,,63,27
440644,note_on,,,,,0,0,2,,,0,,,53,27
440644,note_on,,,,,16,0,1,,,0,,,74,34
440740,set_tempo,,,,,340,1,0,526316,,,,,,
440884,note_off,,,,,240,0,1,,,0,,,74,64
440884,note_on,,,,,0,0,1,,,0,,,72,28
440960,set_tempo,,,,,220,1,0,535714,,,,,,
441064,note_on,,,,,0,0,1,,,0,,,73,33
441064,note_off,,,,,180,0,1,,,0,,,72,64
441100,set_tempo,,,,,140,1,0,566038,,,,,,
441124,note_on,,,,,0,0,2,,,0,,,62,22
441124,note_off,,,,,60,0,1,,,0,,,73,64
441124,note_on,,,,,0,0,1,,,0,,,74,34
441124,note_on,,,,,0,0,1,,,0,,,70,34
441124,note_off,,,,,0,0,2,,,0,,,69,64
441124,note_off,,,,,0,0,2,,,0,,,63,64
441124,note_off,,,,,480,0,2,,,0,,,53,64
441124,note_on,,,,,0,0,2,,,0,,,58,22
441214,note_off,,,,,90,0,2,,,0,,,62,64
441214,note_off,,,,,0,0,2,,,0,,,58,64
441214,note_off,,,,,0,0,2,,,0,,,65,64
441214,note_off,,,,,0,0,1,,,0,,,74,64
441214,note_off,,,,,90,0,1,,,0,,,70,64
441364,note_on,,,,,0,0,1,,,0,,,70,28
441364,note_on,,,,,150,0,1,,,0,,,74,28
441364,note_on,,,,,0,0,2,,,0,,,58,28
441364,note_on,,,,,150,0,2,,,0,,,62,28
441384,set_tempo,,,,,284,1,0,588235,,,,,,
441504,set_tempo,,,,,120,1,0,705882,,,,,,
441514,note_off,,,,,150,0,1,,,0,,,70,64
441514,note_off,,,,,0,0,2,,,0,,,62,64
441514,note_off,,,,,150,0,2,,,0,,,58,64
441514,note_off,,,,,0,0,1,,,0,,,74,64
441600,note_on,,,,,0,0,2,,,0,,,65,39
441600,note_on,,,,,86,0,2,,,0,,,58,39
441604,note_on,,,,,0,0,1,,,0,,,74,39
441604,set_tempo,,,,,100,1,0,560748,,,,,,
441604,note_on,,,,,90,0,1,,,0,,,77,39
442180,set_tempo,,,,,576,1,0,550459,,,,,,
442320,note_off,,,,,720,0,2,,,0,,,65,64
442320,note_off,,,,,0,0,2,,,0,,,58,64
442324,note_off,,,,,720,0,1,,,0,,,74,64
442324,note_off,,,,,0,0,1,,,0,,,77,64
442360,set_tempo,,,,,180,1,0,560748,,,,,,
442400,set_tempo,,,,,40,1,0,566038,,,,,,
442460,set_tempo,,,,,60,1,0,821918,,,,,,
442560,note_on,,,,,0,0,1,,,0,,,74,75
442560,note_on,,,,,0,0,1,,,0,,,72,75
442560,note_on,,,,,0,0,2,,,0,,,62,75
442560,note_on,,,,,0,0,2,,,0,,,65,75
442560,note_on,,,,,240,0,2,,,0,,,56,75
442560,note_on,,,,,236,0,1,,,0,,,77,75
442580,set_tempo,,,,,120,1,0,681818,,,,,,
442600,set_tempo,,,,,20,1,0,666667,,,,,,
442620,set_tempo,,,,,20,1,0,560748,,,,,,
443420,set_tempo,,,,,800,1,0,983607,,,,,,
443460,note_off,,,,,900,0,1,,,0,,,72,64
443460,note_off,,,,,0,0,1,,,0,,,74,64
443460,note_off,,,,,0,0,1,,,0,,,77,64
443460,note_off,,,,,0,0,2,,,0,,,56,64
443460,note_off,,,,,0,0,2,,,0,,,65,64
443460,note_off,,,,,900,0,2,,,0,,,62,64
443520,note_on,,,,,0,0,2,,,0,,,65,100
443520,set_tempo,,,,,100,1,0,566038,,,,,,
443520,note_on,,,,,60,0,2,,,0,,,62,100
443520,note_on,,,,,0,0,2,,,0,,,55,100
443520,note_on,,,,,0,0,1,,,0,,,68,100
443520,note_on,,,,,0,0,1,,,0,,,71,100
443520,note_on,,,,,0,0,1,,,0,,,74,100
443520,note_on,,,,,60,0,1,,,0,,,80,100
444240,note_off,,,,,0,0,1,,,0,,,71,64
444240,note_on,,,,,0,0,1,,,0,,,79,78
444240,note_on,,,,,0,0,1,,,0,,,67,78
444240,note_off,,,,,720,0,1,,,0,,,68,64
444240,note_off,,,,,0,0,2,,,0,,,62,64
444240,note_off,,,,,0,0,2,,,0,,,55,64
444240,note_off,,,,,720,0,2,,,0,,,65,64
444240,note_off,,,,,0,0,1,,,0,,,74,64
444240,note_off,,,,,0,0,1,,,0,,,80,64
444420,note_off,,,,,0,0,1,,,0,,,79,64
444420,note_off,,,,,180,0,1,,,0,,,67,64
444480,note_on,,,,,0,0,1,,,0,,,72,73
444480,note_on,,,,,60,0,1,,,0,,,77,73
444480,note_on,,,,,0,0,2,,,0,,,63,76
444480,note_on,,,,,0,0,1,,,0,,,67,73
444480,note_on,,,,,240,0,2,,,0,,,60,76
444500,set_tempo,,,,,980,1,0,560748,,,,,,
444720,note_off,,,,,0,0,1,,,0,,,77,64
444720,note_on,,,,,0,0,1,,,0,,,75,64
444720,note_off,,,,,0,0,1,,,0,,,72,64
444720,note_off,,,,,240,0,1,,,0,,,67,64
444760,set_tempo,,,,,260,1,0,535714,,,,,,
444840,note_on,,,,,360,0,2,,,0,,,66,70
444840,note_on,,,,,0,0,1,,,0,,,74,58
444840,note_off,,,,,120,0,1,,,0,,,75,64
444920,set_tempo,,,,,160,1,0,526316,,,,,,
444960,note_off,,,,,120,0,2,,,0,,,66,64
444960,note_on,,,,,0,0,2,,,0,,,67,64
444960,note_off,,,,,0,0,2,,,0,,,63,64
444960,note_off,,,,,0,0,2,,,0,,,60,64
444960,note_off,,,,,120,0,1,,,0,,,74,64
444960,note_on,,,,,0,0,1,,,0,,,77,60
445100,set_tempo,,,,,180,1,0,504202,,,,,,
445200,note_off,,,,,240,0,1,,,0,,,77,64
445200,note_on,,,,,0,0,1,,,0,,,75,50
445320,note_on,,,,,0,0,2,,,0,,,63,53
445320,note_off,,,,,360,0,2,,,0,,,67,64
445320,note_off,,,,,120,0,1,,,0,,,75,64
445320,note_on,,,,,0,0,1,,,0,,,72,54
445440,note_on,,,,,0,0,2,,,0,,,60,46
445440,note_off,,,,,120,0,2,,,0,,,63,64
445440,note_on,,,,,0,0,1,,,0,,,70,61
445440,note_off,,,,,120,0,1,,,0,,,72,64
445460,set_tempo,,,,,360,1,0,526316,,,,,,
445560,note_off,,,,,120,0,2,,,0,,,60,64
445580,set_tempo,,,,,120,1,0,545455,,,,,,
445620,note_on,,,,,0,0,1,,,0,,,69,49
445620,note_off,,,,,180,0,1,,,0,,,70,64
445664,note_off,,,,,44,0,1,,,0,,,69,64
445680,note_on,,,,,16,0,1,,,0,,,69,55
445680,note_on,,,,,0,0,1,,,0,,,65,55
445680,note_on,,,,,120,0,2,,,0,,,53,47
445680,note_on,,,,,0,0,2,,,0,,,60,47
445680,set_tempo,,,,,100,1,0,566038,,,,,,
445700,set_tempo,,,,,20,1,0,571429,,,,,,
445800,set_tempo,,,,,100,1,0,606061,,,,,,
445860,note_off,,,,,180,0,2,,,0,,,60,64
445860,note_off,,,,,0,0,2,,,0,,,53,64
445860,note_on,,,,,0,0,2,,,0,,,62,57
445860,note_off,,,,,180,0,1,,,0,,,65,64
445860,note_off,,,,,0,0,1,,,0,,,69,64
445920,set_tempo,,,,,120,1,0,631579,,,,,,
445920,note_on,,,,,0,0,1,,,0,,,66,67
445920,note_on,,,,,0,0,2,,,0,,,63,68
445920,note_on,,,,,0,0,2,,,0,,,53,68
445920,note_off,,,,,60,0,2,,,0,,,62,64
445920,note_on,,,,,60,0,1,,,0,,,69,67
446040,set_tempo,,,,,120,1,0,674157,,,,,,
446160,note_on,,,,,0,0,2,,,0,,,60,52
446160,note_off,,,,,240,0,1,,,0,,,66,64
446160,note_off,,,,,0,0,1,,,0,,,69,64
446160,note_on,,,,,0,0,1,,,0,,,69,51
446160,note_on,,,,,0,0,1,,,0,,,65,51
446160,note_off,,,,,240,0,2,,,0,,,63,64
446160,note_on,,,,,0,0,2,,,0,,,53,52
446160,note_off,,,,,0,0,2,,,0,,,53,64
446280,note_off,,,,,120,0,1,,,0,,,65,64
446280,note_on,,,,,0,0,1,,,0,,,63,47
446400,note_off,,,,,240,0,2,,,0,,,53,64
446400,note_on,,,,,0,0,2,,,0,,,46,43
446400,note_on,,,,,0,0,2,,,0,,,58,43
446400,note_on,,,,,0,0,1,,,0,,,70,43
446400,note_off,,,,,0,0,1,,,0,,,69,64
446400,note_off,,,,,120,0,1,,,0,,,63,64
446400,note_off,,,,,0,0,2,,,0,,,60,64
446400,note_on,,,,,0,0,1,,,0,,,62,43
446580,note_off,,,,,180,0,2,,,0,,,46,64
446580,note_off,,,,,0,0,1,,,0,,,70,64
446580,note_off,,,,,180,0,1,,,0,,,62,64
446580,note_off,,,,,0,0,2,,,0,,,58,64
446640,note_on,,,,,60,0,2,,,0,,,53,55
446640,note_on,,,,,0,0,2,,,0,,,46,55
446640,note_on,,,,,0,0,1,,,0,,,62,55
446640,note_on,,,,,60,0,1,,,0,,,65,55
446640,set_tempo,,,,,600,1,0,560748,,,,,,
447360,note_off,,,,,720,0,1,,,0,,,62,64
447360,note_off,,,,,0,0,1,,,0,,,65,64
447360,note_off,,,,,0,0,2,,,0,,,53,64
447360,note_off,,,,,720,0,2,,,0,,,46,64
447500,set_tempo,,,,,860,1,0,800000,,,,,,
447580,set_tempo,,,,,80,1,0,810811,,,,,,
447600,note_on,,,,,240,0,2,,,0,,,44,76
447600,note_on,,,,,0,0,2,,,0,,,53,76
447600,note_on,,,,,0,0,1,,,0,,,60,76
447600,note_on,,,,,240,0,1,,,0,,,65,76
447600,note_on,,,,,0,0,1,,,0,,,62,76
447600,set_tempo,,,,,20,1,0,550459,,,,,,
448020,set_tempo,,,,,420,1,0,967742,,,,,,
448220,set_tempo,,,,,200,1,0,1052632,,,,,,
448240,set_tempo,,,,,20,1,0,1016949,,,,,,
448258,note_off,,,,,0,0,2,,,0,,,44,64
448258,note_off,,,,,658,0,1,,,0,,,60,64
448258,note_off,,,,,0,0,1,,,0,,,62,64
448258,note_off,,,,,0,0,1,,,0,,,65,64
448258,note_off,,,,,658,0,2,,,0,,,53,64
448320,note_on,,,,,62,0,2,,,0,,,43,100
448320,note_on,,,,,0,0,2,,,0,,,53,100
448320,note_on,,,,,0,0,2,,,0,,,50,100
448320,note_on,,,,,0,0,1,,,0,,,62,100
448320,note_on,,,,,0,0,1,,,0,,,56,100
448320,note_on,,,,,0,0,1,,,0,,,59,100
448320,set_tempo,,,,,80,1,0,681818,,,,,,
448320,note_on,,,,,62,0,1,,,0,,,68,100
448380,set_tempo,,,,,60,1,0,674157,,,,,,
448400,set_tempo,,,,,20,1,0,645161,,,,,,
449040,note_on,,,,,0,0,1,,,0,,,55,74
449040,note_on,,,,,0,0,1,,,0,,,67,74
449040,note_off,,,,,0,0,1,,,0,,,68,64
449040,set_tempo,,,,,640,1,0,631579,,,,,,
449040,note_off,,,,,720,0,1,,,0,,,56,64
449080,set_tempo,,,,,40,1,0,612245,,,,,,
449280,note_on,,,,,0,0,1,,,0,,,60,65
449280,note_off,,,,,240,0,1,,,0,,,55,64
449280,note_off,,,,,0,0,1,,,0,,,67,64
449280,note_off,,,,,0,0,1,,,0,,,59,64
449280,note_off,,,,,0,0,1,,,0,,,62,64
449280,note_on,,,,,0,0,1,,,0,,,55,65
449280,note_on,,,,,0,0,2,,,0,,,51,47
449280,note_on,,,,,0,0,1,,,0,,,65,65
449280,note_off,,,,,960,0,2,,,0,,,50,64
449280,note_off,,,,,0,0,2,,,0,,,53,64
449280,note_on,,,,,0,0,2,,,0,,,48,47
449280,note_off,,,,,0,0,2,,,0,,,43,64
449520,note_off,,,,,0,0,2,,,0,,,51,64
449520,note_off,,,,,240,0,2,,,0,,,48,64
449520,note_off,,,,,0,0,1,,,0,,,60,64
449520,note_off,,,,,240,0,1,,,0,,,55,64
449520,note_off,,,,,0,0,1,,,0,,,65,64
449520,note_on,,,,,0,0,1,,,0,,,63,53
449560,set_tempo,,,,,480,1,0,582524,,,,,,
449640,note_on,,,,,120,0,2,,,0,,,54,44
449640,note_on,,,,,0,0,1,,,0,,,62,48
449640,note_off,,,,,120,0,1,,,0,,,63,64
449760,note_on,,,,,0,0,2,,,0,,,55,52
449760,note_off,,,,,120,0,2,,,0,,,54,64
449760,note_on,,,,,0,0,1,,,0,,,65,56
449760,note_off,,,,,120,0,1,,,0,,,62,64
449940,set_tempo,,,,,380,1,0,566038,,,,,,
450000,note_off,,,,,240,0,1,,,0,,,65,64
450000,note_on,,,,,0,0,1,,,0,,,63,46
450120,note_on,,,,,0,0,1,,,0,,,60,41
450120,note_off,,,,,120,0,1,,,0,,,63,64
450120,note_on,,,,,0,0,2,,,0,,,51,46
450120,note_off,,,,,360,0,2,,,0,,,55,64
450240,note_on,,,,,0,0,2,,,0,,,48,42
450240,note_off,,,,,120,0,1,,,0,,,60,64
450240,note_on,,,,,0,0,1,,,0,,,58,36
450240,note_off,,,,,120,0,2,,,0,,,51,64
450380,set_tempo,,,,,440,1,0,540541,,,,,,
450420,note_off,,,,,180,0,1,,,0,,,58,64
450420,note_off,,,,,180,0,2,,,0,,,48,64
450420,note_on,,,,,0,0,1,,,0,,,57,50
450480,note_off,,,,,60,0,1,,,0,,,57,64
450480,note_on,,,,,0,0,1,,,0,,,53,48
450480,note_on,,,,,60,0,2,,,0,,,48,54
450480,note_on,,,,,0,0,2,,,0,,,41,54
450480,note_on,,,,,0,0,1,,,0,,,57,48
450600,set_tempo,,,,,220,1,0,545455,,,,,,
450620,set_tempo,,,,,20,1,0,566038,,,,,,
450660,note_off,,,,,0,0,2,,,0,,,48,64
450660,note_off,,,,,180,0,2,,,0,,,41,64
450660,note_off,,,,,0,0,1,,,0,,,57,64
450660,note_off,,,,,180,0,1,,,0,,,53,64
450660,note_on,,,,,0,0,2,,,0,,,50,46
450720,note_off,,,,,60,0,2,,,0,,,50,64
450720,note_on,,,,,0,0,2,,,0,,,41,45
450720,note_on,,,,,0,0,2,,,0,,,51,45
450720,set_tempo,,,,,100,1,0,618557,,,,,,
450720,note_on,,,,,0,0,1,,,0,,,54,56
450720,note_on,,,,,60,0,1,,,0,,,57,56
450780,set_tempo,,,,,60,1,0,659341,,,,,,
450880,set_tempo,,,,,100,1,0,750000,,,,,,
450960,note_on,,,,,0,0,2,,,0,,,48,38
450960,note_off,,,,,240,0,1,,,0,,,54,64
450960,note_off,,,,,0,0,1,,,0,,,57,64
450960,note_on,,,,,0,0,1,,,0,,,57,52
450960,note_on,,,,,0,0,1,,,0,,,53,52
450960,note_off,,,,,240,0,2,,,0,,,51,64
450960,note_off,,,,,0,0,2,,,0,,,41,64
450960,note_on,,,,,0,0,2,,,0,,,41,38
451020,set_tempo,,,,,140,1,0,769231,,,,,,
451040,set_tempo,,,,,20,1,0,909091,,,,,,
451060,set_tempo,,,,,20,1,0,923077,,,,,,
451080,note_on,,,,,0,0,1,,,0,,,51,47
451080,note_off,,,,,120,0,1,,,0,,,53,64
451200,set_tempo,,,,,140,1,0,1071429,,,,,,
451200,note_on,,,,,0,0,1,,,0,,,50,44
451200,note_on,,,,,0,0,1,,,0,,,58,44
451200,note_off,,,,,0,0,1,,,0,,,57,64
451200,note_off,,,,,120,0,1,,,0,,,51,64
451200,note_off,,,,,240,0,2,,,0,,,41,64
451200,note_off,,,,,0,0,2,,,0,,,48,64
451200,note_on,,,,,0,0,2,,,0,,,46,34
451200,note_on,,,,,0,0,2,,,0,,,50,34
451280,set_tempo,,,,,80,1,0,983607,,,,,,
451320,note_off,,,,,120,0,2,,,0,,,50,64
451320,note_on,,,,,0,0,2,,,0,,,53,39
451320,note_off,,,,,0,0,2,,,0,,,46,64
451400,set_tempo,,,,,120,1,0,909091,,,,,,
451410,note_off,,,,,90,0,2,,,0,,,53,64
451440,note_on,,,,,30,0,2,,,0,,,53,31
451440,note_off,,,,,0,0,1,,,0,,,58,64
451440,note_off,,,,,240,0,1,,,0,,,50,64
451520,set_tempo,,,,,120,1,0,845070,,,,,,
451530,note_off,,,,,90,0,2,,,0,,,53,64
451560,note_on,,,,,30,0,2,,,0,,,53,35
451580,set_tempo,,,,,60,1,0,821918,,,,,,
451620,set_tempo,,,,,40,1,0,810811,,,,,,
451640,set_tempo,,,,,20,1,0,714286,,,,,,
451650,note_off,,,,,90,0,2,,,0,,,53,64
451680,note_on,,,,,30,0,2,,,0,,,53,38
451740,set_tempo,,,,,100,1,0,674157,,,,,,
451800,note_on,,,,,0,0,2,,,0,,,53,35
451800,note_off,,,,,120,0,2,,,0,,,53,64
451840,set_tempo,,,,,100,1,0,666667,,,,,,
451860,set_tempo,,,,,20,1,0,631579,,,,,,
451890,note_off,,,,,90,0,2,,,0,,,53,64
451920,control_change,,,,,0,0,2,,,0,64,127,,
451920,note_on,,,,,0,0,1,,,0,,,41,48
451920,note_on,,,,,30,0,2,,,0,,,50,42
451920,note_on,,,,,0,0,1,,,0,,,58,48
451920,note_on,,,,,0,0,1,,,0,,,65,48
451920,note_on,,,,,480,0,1,,,0,,,70,48
451940,set_tempo,,,,,80,1,0,606061,,,,,,
452040,note_off,,,,,120,0,2,,,0,,,50,64
452040,note_on,,,,,0,0,2,,,0,,,53,34
452060,set_tempo,,,,,120,1,0,576923,,,,,,
452100,control_change,,,,,60,0,2,,,0,64,0,,
452136,note_off,,,,,36,0,2,,,0,,,53,64
452140,set_tempo,,,,,80,1,0,566038,,,,,,
452160,note_on,,,,,0,0,1,,,0,,,65,53
452160,note_off,,,,,240,0,1,,,0,,,41,64
452160,note_off,,,,,0,0,1,,,0,,,58,64
452160,note_off,,,,,0,0,1,,,0,,,65,64
452160,note_off,,,,,0,0,1,,,0,,,70,64
452160,note_on,,,,,0,0,1,,,0,,,70,53
452160,note_on,,,,,0,0,1,,,0,,,58,53
452160,note_on,,,,,0,0,2,,,0,,,50,42
452160,control_change,,,,,24,0,2,,,0,64,127,,
452160,note_on,,,,,0,0,1,,,0,,,41,53
452280,note_off,,,,,120,0,2,,,0,,,50,64
452280,note_on,,,,,0,0,2,,,0,,,53,34
452300,set_tempo,,,,,160,1,0,588235,,,,,,
452340,control_change,,,,,60,0,2,,,0,64,0,,
452376,note_off,,,,,36,0,2,,,0,,,53,64
452400,note_off,,,,,240,0,1,,,0,,,41,64
452400,note_on,,,,,0,0,1,,,0,,,65,42
452400,note_on,,,,,0,0,1,,,0,,,69,42
452400,note_off,,,,,0,0,1,,,0,,,70,64
452400,note_off,,,,,0,0,1,,,0,,,65,64
452400,note_on,,,,,0,0,1,,,0,,,41,42
452400,note_on,,,,,0,0,2,,,0,,,48,44
452400,control_change,,,,,24,0,2,,,0,64,127,,
452400,note_on,,,,,0,0,1,,,0,,,57,42
452400,note_off,,,,,0,0,1,,,0,,,58,64
452420,set_tempo,,,,,120,1,0,625000,,,,,,
452520,note_on,,,,,0,0,2,,,0,,,53,36
452520,note_off,,,,,120,0,2,,,0,,,48,64
452520,set_tempo,,,,,100,1,0,666667,,,,,,
452580,control_change,,,,,60,0,2,,,0,64,0,,
452616,note_off,,,,,36,0,2,,,0,,,53,64
452620,set_tempo,,,,,100,1,0,714286,,,,,,
452640,control_change,,,,,0,0,2,,,0,64,127,,
452640,note_on,,,,,24,0,2,,,0,,,50,45
452640,note_on,,,,,0,0,1,,,0,,,58,49
452640,note_on,,,,,0,0,1,,,0,,,65,49
452640,note_on,,,,,0,0,1,,,0,,,41,49
452640,note_off,,,,,0,0,1,,,0,,,69,64
452640,note_off,,,,,0,0,1,,,0,,,65,64
452640,note_off,,,,,0,0,1,,,0,,,57,64
452640,note_off,,,,,240,0,1,,,0,,,41,64
452640,note_on,,,,,0,0,1,,,0,,,70,49
452740,set_tempo,,,,,120,1,0,722892,,,,,,
452760,set_tempo,,,,,20,1,0,740741,,,,,,
452760,note_off,,,,,120,0,2,,,0,,,50,64
452760,note_on,,,,,0,0,2,,,0,,,53,49
452780,set_tempo,,,,,20,1,0,750000,,,,,,
452820,control_change,,,,,60,0,2,,,0,64,0,,
452856,note_off,,,,,36,0,2,,,0,,,53,64
452880,note_on,,,,,24,0,2,,,0,,,51,56
452880,note_off,,,,,0,0,1,,,0,,,65,64
452880,note_on,,,,,0,0,1,,,0,,,60,63
452880,note_off,,,,,240,0,1,,,0,,,41,64
452880,set_tempo,,,,,100,1,0,666667,,,,,,
452880,note_on,,,,,0,0,1,,,0,,,41,63
452880,note_on,,,,,0,0,1,,,0,,,65,63
452880,note_on,,,,,0,0,1,,,0,,,72,63
452880,note_off,,,,,0,0,1,,,0,,,70,64
452880,control_change,,,,,0,0,2,,,0,64,127,,
452880,note_off,,,,,0,0,1,,,0,,,58,64
453000,note_off,,,,,120,0,2,,,0,,,51,64
453000,note_on,,,,,0,0,2,,,0,,,53,38
453060,control_change,,,,,60,0,2,,,0,64,0,,
453060,set_tempo,,,,,180,1,0,631579,,,,,,
453096,note_off,,,,,36,0,2,,,0,,,53,64
453120,control_change,,,,,0,0,2,,,0,64,127,,
453120,note_on,,,,,24,0,2,,,0,,,50,42
453120,note_off,,,,,240,0,1,,,0,,,41,64
453120,note_off,,,,,0,0,1,,,0,,,60,64
453120,note_off,,,,,0,0,1,,,0,,,65,64
453120,note_off,,,,,0,0,1,,,0,,,72,64
453120,note_on,,,,,0,0,1,,,0,,,70,47
453120,note_on,,,,,0,0,1,,,0,,,65,47
453120,note_on,,,,,0,0,1,,,0,,,58,47
453120,note_on,,,,,0,0,1,,,0,,,46,47
453220,set_tempo,,,,,160,1,0,606061,,,,,,
453240,note_off,,,,,120,0,2,,,0,,,50,64
453240,note_on,,,,,0,0,2,,,0,,,53,36
453336,note_off,,,,,96,0,2,,,0,,,53,64
453360,note_on,,,,,24,0,2,,,0,,,53,31
453380,set_tempo,,,,,160,1,0,582524,,,,,,
453450,note_off,,,,,90,0,2,,,0,,,53,64
453480,note_on,,,,,30,0,2,,,0,,,53,35
453570,note_off,,,,,90,0,2,,,0,,,53,64
453580,set_tempo,,,,,200,1,0,566038,,,,,,
453600,note_on,,,,,30,0,2,,,0,,,53,38
453602,note_off,,,,,0,0,1,,,0,,,65,64
453602,note_off,,,,,0,0,1,,,0,,,70,64
453602,note_off,,,,,482,0,1,,,0,,,46,64
453602,note_off,,,,,0,0,1,,,0,,,58,64
453720,note_off,,,,,120,0,2,,,0,,,53,64
453720,note_on,,,,,0,0,2,,,0,,,53,35
453810,note_off,,,,,90,0,2,,,0,,,53,64
453840,note_on,,,,,238,0,1,,,0,,,74,48
453840,note_on,,,,,0,0,1,,,0,,,65,48
453840,note_on,,,,,0,0,1,,,0,,,62,48
453840,control_change,,,,,0,0,2,,,0,64,127,,
453840,note_on,,,,,30,0,2,,,0,,,46,42
453840,note_on,,,,,0,0,1,,,0,,,41,48
453960,note_on,,,,,0,0,2,,,0,,,53,34
453960,note_off,,,,,120,0,2,,,0,,,46,64
454020,control_change,,,,,60,0,2,,,0,64,0,,
454056,note_off,,,,,36,0,2,,,0,,,53,64
454080,note_on,,,,,0,0,1,,,0,,,41,59
454080,note_on,,,,,0,0,1,,,0,,,65,59
454080,note_on,,,,,0,0,1,,,0,,,62,59
454080,note_off,,,,,0,0,1,,,0,,,74,64
454080,note_off,,,,,0,0,1,,,0,,,65,64
454080,note_on,,,,,0,0,1,,,0,,,74,59
454080,note_off,,,,,240,0,1,,,0,,,41,64
454080,note_off,,,,,0,0,1,,,0,,,62,64
454080,note_on,,,,,24,0,2,,,0,,,46,42
454080,control_change,,,,,0,0,2,,,0,64,127,,
454200,note_off,,,,,120,0,2,,,0,,,46,64
454200,note_on,,,,,0,0,2,,,0,,,53,35
454240,set_tempo,,,,,660,1,0,576923,,,,,,
454260,control_change,,,,,60,0,2,,,0,64,0,,
454260,set_tempo,,,,,20,1,0,588235,,,,,,
454296,note_off,,,,,36,0,2,,,0,,,53,64
454320,note_on,,,,,0,0,1,,,0,,,72,56
454320,control_change,,,,,24,0,2,,,0,64,127,,
454320,note_on,,,,,0,0,2,,,0,,,45,48
454320,note_off,,,,,240,0,1,,,0,,,41,64
454320,note_off,,,,,0,0,1,,,0,,,74,64
454320,note_on,,,,,0,0,1,,,0,,,65,56
454320,note_off,,,,,0,0,1,,,0,,,62,64
454320,note_off,,,,,0,0,1,,,0,,,65,64
454320,note_on,,,,,0,0,1,,,0,,,60,56
454320,note_on,,,,,0,0,1,,,0,,,41,56
454340,set_tempo,,,,,80,1,0,618557,,,,,,
454440,note_on,,,,,0,0,2,,,0,,,53,45
454440,note_off,,,,,120,0,2,,,0,,,45,64
454480,set_tempo,,,,,140,1,0,625000,,,,,,
454500,set_tempo,,,,,20,1,0,652174,,,,,,
454500,control_change,,,,,60,0,2,,,0,64,0,,
454536,note_off,,,,,36,0,2,,,0,,,53,64
454560,note_off,,,,,0,0,1,,,0,,,65,64
454560,note_off,,,,,0,0,1,,,0,,,60,64
454560,note_off,,,,,240,0,1,,,0,,,41,64
454560,note_on,,,,,0,0,1,,,0,,,65,71
454560,note_on,,,,,0,0,1,,,0,,,74,71
454560,note_off,,,,,0,0,1,,,0,,,72,64
454560,note_on,,,,,0,0,1,,,0,,,62,71
454560,note_on,,,,,0,0,1,,,0,,,41,71
454560,control_change,,,,,24,0,2,,,0,64,127,,
454560,note_on,,,,,0,0,2,,,0,,,46,61
454620,set_tempo,,,,,120,1,0,681818,,,,,,
454680,note_off,,,,,120,0,2,,,0,,,46,64
454680,note_on,,,,,0,0,2,,,0,,,53,58
454740,set_tempo,,,,,120,1,0,731707,,,,,,
454740,control_change,,,,,60,0,2,,,0,64,0,,
454776,note_off,,,,,36,0,2,,,0,,,53,64
454800,note_off,,,,,0,0,1,,,0,,,74,64
454800,note_on,,,,,0,0,1,,,0,,,75,80
454800,note_on,,,,,0,0,1,,,0,,,65,80
454800,note_on,,,,,0,0,1,,,0,,,63,80
454800,note_on,,,,,0,0,1,,,0,,,41,80
454800,note_on,,,,,24,0,2,,,0,,,48,73
454800,control_change,,,,,0,0,2,,,0,64,127,,
454800,note_off,,,,,0,0,1,,,0,,,65,64
454800,note_off,,,,,240,0,1,,,0,,,41,64
454800,note_off,,,,,0,0,1,,,0,,,62,64
454820,set_tempo,,,,,80,1,0,789474,,,,,,
454880,set_tempo,,,,,60,1,0,645161,,,,,,
454920,note_off,,,,,120,0,2,,,0,,,48,64
454920,note_on,,,,,0,0,2,,,0,,,53,58
454980,control_change,,,,,60,0,2,,,0,64,0,,
455016,note_off,,,,,36,0,2,,,0,,,53,64
455020,set_tempo,,,,,140,1,0,631579,,,,,,
455040,control_change,,,,,0,0,2,,,0,64,127,,
455040,note_on,,,,,24,0,2,,,0,,,46,55
455040,set_tempo,,,,,20,1,0,821918,,,,,,
455040,note_on,,,,,0,0,1,,,0,,,74,55
455040,note_on,,,,,0,0,1,,,0,,,62,55
455040,note_on,,,,,0,0,1,,,0,,,46,55
455040,note_off,,,,,0,0,1,,,0,,,75,64
455040,note_off,,,,,0,0,1,,,0,,,65,64
455040,note_off,,,,,0,0,1,,,0,,,63,64
455040,note_off,,,,,240,0,1,,,0,,,41,64
455040,note_on,,,,,0,0,1,,,0,,,65,55
455160,note_off,,,,,120,0,2,,,0,,,46,64
455160,note_on,,,,,0,0,2,,,0,,,53,41
455256,note_off,,,,,96,0,2,,,0,,,53,64
455280,note_on,,,,,24,0,2,,,0,,,53,27
455300,set_tempo,,,,,260,1,0,800000,,,,,,
455320,set_tempo,,,,,20,1,0,789474,,,,,,
455370,note_off,,,,,90,0,2,,,0,,,53,64
455400,note_on,,,,,30,0,2,,,0,,,53,19
455420,set_tempo,,,,,100,1,0,740741,,,,,,
455490,note_off,,,,,90,0,2,,,0,,,53,64
455520,note_on,,,,,30,0,2,,,0,,,53,24
455522,note_off,,,,,0,0,1,,,0,,,65,64
455522,note_off,,,,,0,0,1,,,0,,,74,64
455522,note_off,,,,,0,0,1,,,0,,,62,64
455522,note_off,,,,,482,0,1,,,0,,,46,64
455540,set_tempo,,,,,120,1,0,681818,,,,,,
455640,note_off,,,,,120,0,2,,,0,,,53,64
455640,note_on,,,,,0,0,2,,,0,,,53,19
455660,set_tempo,,,,,120,1,0,631579,,,,,,
455730,note_off,,,,,90,0,2,,,0,,,53,64
455760,note_on,,,,,0,0,1,,,0,,,58,30
455760,note_on,,,,,0,0,1,,,0,,,65,30
455760,note_on,,,,,238,0,1,,,0,,,70,30
455760,note_on,,,,,30,0,2,,,0,,,50,23
455760,control_change,,,,,0,0,2,,,0,64,127,,
455760,note_on,,,,,0,0,1,,,0,,,41,30
455780,set_tempo,,,,,120,1,0,588235,,,,,,
455880,note_on,,,,,0,0,2,,,0,,,53,15
455880,note_off,,,,,120,0,2,,,0,,,50,64
455920,set_tempo,,,,,140,1,0,566038,,,,,,
455940,control_change,,,,,60,0,2,,,0,64,0,,
455940,set_tempo,,,,,20,1,0,560748,,,,,,
455976,note_off,,,,,36,0,2,,,0,,,53,64
456000,note_on,,,,,0,0,1,,,0,,,70,37
456000,note_on,,,,,0,0,1,,,0,,,58,37
456000,note_on,,,,,0,0,1,,,0,,,41,37
456000,note_off,,,,,0,0,1,,,0,,,70,64
456000,note_off,,,,,0,0,1,,,0,,,65,64
456000,note_off,,,,,0,0,1,,,0,,,58,64
456000,note_off,,,,,240,0,1,,,0,,,41,64
456000,note_on,,,,,0,0,1,,,0,,,65,37
456000,control_change,,,,,24,0,2,,,0,64,127,,
456000,note_on,,,,,0,0,2,,,0,,,50,21
456120,note_on,,,,,0,0,2,,,0,,,53,16
456120,note_off,,,,,120,0,2,,,0,,,50,64
456140,set_tempo,,,,,200,1,0,600000,,,,,,
456180,control_change,,,,,60,0,2,,,0,64,0,,
456216,note_off,,,,,36,0,2,,,0,,,53,64
456240,control_change,,,,,24,0,2,,,0,64,127,,
456240,note_on,,,,,0,0,2,,,0,,,48,18
456240,note_off,,,,,240,0,1,,,0,,,41,64
456240,note_off,,,,,0,0,1,,,0,,,58,64
456240,note_off,,,,,0,0,1,,,0,,,65,64
456240,note_off,,,,,0,0,1,,,0,,,70,64
456240,note_on,,,,,0,0,1,,,0,,,69,33
456240,note_on,,,,,0,0,1,,,0,,,65,33
456240,note_on,,,,,0,0,1,,,0,,,57,33
456240,note_on,,,,,0,0,1,,,0,,,41,33
456360,note_on,,,,,0,0,2,,,0,,,53,19
456360,note_off,,,,,120,0,2,,,0,,,48,64
456420,control_change,,,,,60,0,2,,,0,64,0,,
456420,set_tempo,,,,,280,1,0,606061,,,,,,
456440,set_tempo,,,,,20,1,0,652174,,,,,,
456456,note_off,,,,,36,0,2,,,0,,,53,64
456460,set_tempo,,,,,20,1,0,631579,,,,,,
456480,note_off,,,,,0,0,1,,,0,,,69,64
456480,note_on,,,,,0,0,1,,,0,,,65,36
456480,note_off,,,,,0,0,1,,,0,,,65,64
456480,note_off,,,,,240,0,1,,,0,,,41,64
456480,note_on,,,,,0,0,1,,,0,,,70,36
456480,note_off,,,,,0,0,1,,,0,,,57,64
456480,control_change,,,,,0,0,2,,,0,64,127,,
456480,note_on,,,,,24,0,2,,,0,,,50,31
456480,note_on,,,,,0,0,1,,,0,,,58,36
456480,note_on,,,,,0,0,1,,,0,,,41,36
456600,note_off,,,,,120,0,2,,,0,,,50,64
456600,note_on,,,,,0,0,2,,,0,,,53,30
456660,control_change,,,,,60,0,2,,,0,64,0,,
456660,set_tempo,,,,,200,1,0,983607,,,,,,
456696,note_off,,,,,36,0,2,,,0,,,53,64
456700,set_tempo,,,,,40,1,0,967742,,,,,,
456720,note_on,,,,,0,0,1,,,0,,,60,41
456720,note_on,,,,,0,0,1,,,0,,,41,41
456720,note_off,,,,,240,0,1,,,0,,,41,64
456720,note_off,,,,,0,0,1,,,0,,,58,64
456720,note_on,,,,,0,0,1,,,0,,,72,41
456720,control_change,,,,,0,0,2,,,0,64,127,,
456720,note_off,,,,,0,0,1,,,0,,,70,64
456720,note_off,,,,,0,0,1,,,0,,,65,64
456720,note_on,,,,,0,0,1,,,0,,,65,41
456720,note_on,,,,,24,0,2,,,0,,,51,41
456840,note_on,,,,,0,0,2,,,0,,,53,31
456840,note_off,,,,,120,0,2,,,0,,,51,64
456900,set_tempo,,,,,200,1,0,1333333,,,,,,
456900,control_change,,,,,60,0,2,,,0,64,0,,
456936,note_off,,,,,36,0,2,,,0,,,53,64
456960,note_off,,,,,0,0,1,,,0,,,65,64
456960,note_on,,,,,0,0,2,,,0,,,51,46
456960,note_off,,,,,240,0,1,,,0,,,41,64
456960,note_off,,,,,0,0,1,,,0,,,60,64
456960,note_on,,,,,0,0,2,,,0,,,53,46
456960,note_off,,,,,0,0,1,,,0,,,72,64
456960,note_on,,,,,24,0,2,,,0,,,41,46
456960,note_on,,,,,0,0,1,,,0,,,69,48
456960,note_on,,,,,0,0,1,,,0,,,65,48
456960,note_on,,,,,0,0,1,,,0,,,60,48
456960,note_on,,,,,0,0,1,,,0,,,72,48
457040,set_tempo,,,,,140,1,0,618557,,,,,,
457260,set_tempo,,,,,220,1,0,631579,,,,,,
457300,set_tempo,,,,,40,1,0,659341,,,,,,
457580,set_tempo,,,,,280,1,0,652174,,,,,,
457740,note_off,,,,,780,0,2,,,0,,,53,64
457740,note_off,,,,,0,0,2,,,0,,,51,64
457740,note_off,,,,,0,0,2,,,0,,,41,64
457830,note_on,,,,,90,0,2,,,0,,,29,48
457860,set_tempo,,,,,280,1,0,750000,,,,,,
457860,note_off,,,,,30,0,2,,,0,,,29,64
457860,note_on,,,,,0,0,2,,,0,,,30,51
457890,note_off,,,,,30,0,2,,,0,,,30,64
457890,note_on,,,,,0,0,2,,,0,,,32,54
457900,set_tempo,,,,,40,1,0,740741,,,,,,
457920,note_on,,,,,0,0,2,,,0,,,30,56
457920,set_tempo,,,,,20,1,0,731707,,,,,,
457920,note_off,,,,,30,0,2,,,0,,,32,64
457940,set_tempo,,,,,20,1,0,714286,,,,,,
457950,note_off,,,,,30,0,2,,,0,,,30,64
457950,note_on,,,,,0,0,2,,,0,,,32,56
457980,note_off,,,,,30,0,2,,,0,,,32,64
457980,note_on,,,,,0,0,2,,,0,,,30,55
458010,note_off,,,,,30,0,2,,,0,,,30,64
458010,note_on,,,,,0,0,2,,,0,,,32,54
458040,note_off,,,,,30,0,2,,,0,,,32,64
458040,set_tempo,,,,,100,1,0,674157,,,,,,
458040,note_on,,,,,0,0,2,,,0,,,30,54
458070,note_on,,,,,0,0,2,,,0,,,32,54
458070,note_off,,,,,30,0,2,,,0,,,30,64
458100,note_on,,,,,0,0,2,,,0,,,30,52
458100,note_off,,,,,30,0,2,,,0,,,32,64
458130,note_off,,,,,30,0,2,,,0,,,30,64
458130,note_on,,,,,0,0,2,,,0,,,32,50
458160,note_off,,,,,30,0,2,,,0,,,32,64
458160,note_on,,,,,0,0,2,,,0,,,30,48
458180,set_tempo,,,,,140,1,0,645161,,,,,,
458190,note_off,,,,,30,0,2,,,0,,,30,64
458190,note_on,,,,,0,0,2,,,0,,,32,48
458220,note_on,,,,,0,0,2,,,0,,,30,46
458220,note_off,,,,,30,0,2,,,0,,,32,64
458250,note_off,,,,,30,0,2,,,0,,,30,64
458250,note_on,,,,,0,0,2,,,0,,,32,45
458260,set_tempo,,,,,80,1,0,631579,,,,,,
458280,note_on,,,,,0,0,2,,,0,,,30,43
458280,set_tempo,,,,,20,1,0,618557,,,,,,
458280,note_off,,,,,30,0,2,,,0,,,32,64
458310,note_off,,,,,30,0,2,,,0,,,30,64
458310,note_on,,,,,0,0,2,,,0,,,32,41
458340,note_off,,,,,30,0,2,,,0,,,32,64
458340,note_on,,,,,0,0,2,,,0,,,30,40
458370,note_off,,,,,30,0,2,,,0,,,30,64
458370,note_on,,,,,0,0,2,,,0,,,32,37
458400,note_on,,,,,0,0,2,,,0,,,30,35
458400,note_off,,,,,30,0,2,,,0,,,32,64
458400,set_tempo,,,,,120,1,0,576923,,,,,,
458430,note_off,,,,,30,0,2,,,0,,,30,64
458430,note_on,,,,,0,0,2,,,0,,,32,34
458460,note_off,,,,,30,0,2,,,0,,,32,64
458460,note_on,,,,,0,0,2,,,0,,,30,32
458490,note_on,,,,,0,0,2,,,0,,,32,31
458490,note_off,,,,,30,0,2,,,0,,,30,64
458520,note_on,,,,,0,0,2,,,0,,,30,29
458520,note_off,,,,,30,0,2,,,0,,,32,64
458540,set_tempo,,,,,140,1,0,645161,,,,,,
458550,note_on,,,,,0,0,2,,,0,,,32,27
458550,note_off,,,,,30,0,2,,,0,,,30,64
458580,note_on,,,,,0,0,2,,,0,,,30,27
458580,note_off,,,,,30,0,2,,,0,,,32,64
458610,note_on,,,,,0,0,2,,,0,,,32,26
458610,note_off,,,,,30,0,2,,,0,,,30,64
458620,set_tempo,,,,,80,1,0,705882,,,,,,
458640,note_on,,,,,0,0,2,,,0,,,30,26
458640,note_off,,,,,30,0,2,,,0,,,32,64
458670,note_on,,,,,0,0,2,,,0,,,32,26
458670,note_off,,,,,30,0,2,,,0,,,30,64
458700,set_tempo,,,,,80,1,0,769231,,,,,,
458700,note_off,,,,,30,0,2,,,0,,,32,64
458700,note_on,,,,,0,0,2,,,0,,,30,26
458730,note_off,,,,,30,0,2,,,0,,,30,64
458730,note_on,,,,,0,0,2,,,0,,,32,26
458760,note_on,,,,,0,0,2,,,0,,,30,26
458760,note_off,,,,,30,0,2,,,0,,,32,64
458798,note_on,,,,,38,0,2,,,0,,,29,26
458800,note_off,,,,,2,0,2,,,0,,,30,64
458800,set_tempo,,,,,100,1,0,882353,,,,,,
458838,note_on,,,,,0,0,2,,,0,,,30,29
458838,note_off,,,,,38,0,2,,,0,,,29,64
458840,set_tempo,,,,,40,1,0,895522,,,,,,
458860,set_tempo,,,,,20,1,0,1132075,,,,,,
458878,note_off,,,,,40,0,2,,,0,,,30,64
458880,note_on,,,,,2,0,2,,,0,,,29,33
458900,set_tempo,,,,,40,1,0,789474,,,,,,
459000,note_off,,,,,120,0,2,,,0,,,29,64
459060,set_tempo,,,,,160,1,0,800000,,,,,,
459120,note_off,,,,,2160,0,1,,,0,,,60,64
459120,note_off,,,,,0,0,1,,,0,,,65,64
459120,note_off,,,,,0,0,1,,,0,,,69,64
459120,note_off,,,,,0,0,1,,,0,,,72,64
459280,set_tempo,,,,,220,1,0,625000,,,,,,
459360,note_on,,,,,0,0,1,,,0,,,48,35
459360,note_on,,,,,0,0,1,,,0,,,53,35
459360,control_change,,,,,360,0,2,,,0,64,127,,
459360,note_on,,,,,0,0,1,,,0,,,69,35
459360,note_on,,,,,0,0,1,,,0,,,63,35
459360,note_on,,,,,240,0,1,,,0,,,77,35
459360,note_on,,,,,0,0,1,,,0,,,41,35
459600,note_off,,,,,240,0,1,,,0,,,41,64
459600,note_off,,,,,0,0,1,,,0,,,63,64
459600,note_off,,,,,0,0,1,,,0,,,69,64
459600,note_off,,,,,0,0,1,,,0,,,77,64
459600,note_off,,,,,0,0,1,,,0,,,53,64
459600,note_off,,,,,0,0,1,,,0,,,48,64
459720,control_change,,,,,360,0,2,,,0,64,0,,
459840,note_on,,,,,240,0,1,,,0,,,70,26
459840,control_change,,,,,120,0,2,,,0,64,127,,
459840,note_on,,,,,0,0,1,,,0,,,46,26
459840,note_on,,,,,0,0,1,,,0,,,53,26
459840,note_on,,,,,0,0,1,,,0,,,62,26
460080,note_off,,,,,0,0,1,,,0,,,62,64
460080,note_off,,,,,0,0,1,,,0,,,53,64
460080,note_off,,,,,240,0,1,,,0,,,46,64
460080,note_off,,,,,0,0,1,,,0,,,70,64
460200,control_change,,,,,360,0,2,,,0,64,0,,
460340,set_tempo,,,,,1060,1,0,714286,,,,,,
460800,note_on,,,,,720,0,1,,,0,,,58,26
460800,note_on,,,,,0,0,1,,,0,,,53,26
460800,note_on,,,,,0,0,1,,,0,,,50,26
460800,note_on,,,,,0,0,1,,,0,,,46,26
460800,note_on,,,,,0,0,1,,,0,,,34,26
460800,control_change,,,,,600,0,2,,,0,64,127,,
461040,note_off,,,,,0,0,1,,,0,,,50,64
461040,note_off,,,,,0,0,1,,,0,,,58,64
461040,note_off,,,,,240,0,1,,,0,,,34,64
461040,note_off,,,,,0,0,1,,,0,,,53,64
461040,note_off,,,,,0,0,1,,,0,,,46,64
461160,control_change,,,,,360,0,2,,,0,64,0,,
461160,end_of_track,,,,,0,1,2,,,,,,,
461440,set_tempo,,,,,1100,1,0,869565,,,,,,
461440,end_of_track,,,,,0,1,0,,,,,,,
461760,note_on,,,,,720,0,1,,,0,,,58,19
461760,note_on,,,,,0,0,1,,,0,,,53,19
461760,note_on,,,,,0,0,1,,,0,,,50,19
461760,note_on,,,,,0,0,1,,,0,,,46,19
461760,note_on,,,,,0,0,1,,,0,,,34,19
462960,note_off,,,,,1200,0,1,,,0,,,34,64
462960,note_off,,,,,0,0,1,,,0,,,46,64
462960,note_off,,,,,0,0,1,,,0,,,50,64
462960,note_off,,,,,0,0,1,,,0,,,53,64
462960,end_of_track,,,,,0,1,1,,,,,,,
462960,note_off,,,,,0,0,1,,,0,,,58,64
