tick,type,time,meta,track,numerator,denominator,clocks_per_click,notated_32nd_notes_per_beat,key,tempo,port,program,channel,control,value,note,velocity
0,track_name,0,1,0,,,,,,,,,,,,,
0,program_change,0,0,1,,,,,,,,0,0,,,,
0,control_change,0,0,1,,,,,,,,,0,7,127,,
0,control_change,0,0,1,,,,,,,,,0,10,97,,
0,midi_port,0,1,2,,,,,,,0,,,,,,
0,track_name,0,1,2,,,,,,,,,,,,,
0,program_change,0,0,2,,,,,,,,0,1,,,,
0,control_change,0,0,2,,,,,,,,,1,7,127,,
0,control_change,0,0,2,,,,,,,,,1,10,97,,
0,track_name,0,1,4,,,,,,,,,,,,,
0,midi_port,0,1,3,,,,,,,0,,,,,,
0,track_name,0,1,3,,,,,,,,,,,,,
0,program_change,0,0,3,,,,,,,,0,2,,,,
0,control_change,0,0,3,,,,,,,,,2,7,127,,
0,control_change,0,0,3,,,,,,,,,2,10,30,,
0,control_change,0,0,4,,,,,,,,,3,10,30,,
0,control_change,0,0,4,,,,,,,,,3,7,127,,
0,program_change,0,0,4,,,,,,,,0,3,,,,
0,track_name,0,1,1,,,,,,,,,,,,,
0,midi_port,0,1,1,,,,,,,0,,,,,,
0,midi_port,0,1,4,,,,,,,0,,,,,,
0,time_signature,0,1,0,3,4,24,8,,,,,,,,,
0,text,0,1,0,,,,,,,,,,,,,
0,copyright,0,1,0,,,,,,,,,,,,,
0,key_signature,0,1,0,,,,,D,,,,,,,,
0,set_tempo,0,1,0,,,,,,600000,,,,,,,
720,note_on,0,0,1,,,,,,,,,0,,,81,64
720,control_change,720,0,1,,,,,,,,,0,64,127,,
720,note_on,0,0,2,,,,,,,,,1,,,69,64
720,control_change,720,0,2,,,,,,,,,1,64,127,,
800,note_on,0,0,2,,,,,,,,,1,,,74,64
800,note_on,0,0,1,,,,,,,,,0,,,86,64
800,note_on,80,0,1,,,,,,,,,0,,,81,0
800,note_on,80,0,2,,,,,,,,,1,,,69,0
879,note_on,79,0,2,,,,,,,,,1,,,74,0
879,note_on,79,0,1,,,,,,,,,0,,,86,0
879,note_on,0,0,1,,,,,,,,,0,,,90,64
879,note_on,0,0,2,,,,,,,,,1,,,78,64
960,note_on,81,0,1,,,,,,,,,0,,,90,0
960,note_on,0,0,2,,,,,,,,,1,,,83,90
960,note_on,0,0,1,,,,,,,,,0,,,95,90
960,note_on,81,0,2,,,,,,,,,1,,,78,0
1320,note_on,360,0,1,,,,,,,,,0,,,95,0
1320,note_on,0,0,1,,,,,,,,,0,,,93,64
1320,note_on,0,0,2,,,,,,,,,1,,,81,64
1320,note_on,360,0,2,,,,,,,,,1,,,83,0
1440,control_change,0,0,2,,,,,,,,,1,64,0,,
1440,note_on,0,0,2,,,,,,,,,1,,,78,64
1440,note_on,0,0,1,,,,,,,,,0,,,90,64
1440,control_change,0,0,1,,,,,,,,,0,64,0,,
1440,note_on,0,0,4,,,,,,,,,3,,,50,62
1440,note_on,1440,0,4,,,,,,,,,3,,,38,62
1440,note_on,120,0,2,,,,,,,,,1,,,81,0
1440,note_on,120,0,1,,,,,,,,,0,,,93,0
1680,note_on,0,0,4,,,,,,,,,3,,,38,0
1680,note_on,240,0,4,,,,,,,,,3,,,50,0
1800,note_on,1800,0,3,,,,,,,,,2,,,57,49
1800,note_on,0,0,3,,,,,,,,,2,,,66,49
1800,note_on,0,0,3,,,,,,,,,2,,,62,49
1920,note_on,0,0,3,,,,,,,,,2,,,57,49
1920,note_on,0,0,3,,,,,,,,,2,,,66,49
1920,note_on,0,0,3,,,,,,,,,2,,,57,0
1920,note_on,120,0,3,,,,,,,,,2,,,66,0
1920,note_on,0,0,3,,,,,,,,,2,,,62,49
1920,note_on,0,0,3,,,,,,,,,2,,,62,0
2160,note_on,240,0,3,,,,,,,,,2,,,66,0
2160,note_on,0,0,3,,,,,,,,,2,,,62,0
2160,note_on,0,0,3,,,,,,,,,2,,,57,0
2340,note_on,900,0,2,,,,,,,,,1,,,78,64
2340,note_on,900,0,1,,,,,,,,,0,,,90,64
2400,note_on,0,0,3,,,,,,,,,2,,,61,49
2400,note_on,0,0,2,,,,,,,,,1,,,76,64
2400,note_on,60,0,2,,,,,,,,,1,,,78,0
2400,note_on,0,0,3,,,,,,,,,2,,,67,49
2400,control_change,0,0,2,,,,,,,,,1,64,127,,
2400,note_on,240,0,3,,,,,,,,,2,,,57,49
2400,control_change,0,0,1,,,,,,,,,0,64,127,,
2400,note_on,0,0,1,,,,,,,,,0,,,88,64
2400,note_on,0,0,1,,,,,,,,,0,,,90,0
2400,note_on,0,0,2,,,,,,,,,1,,,78,0
2400,note_on,60,0,1,,,,,,,,,0,,,90,0
2520,note_on,0,0,2,,,,,,,,,1,,,75,64
2520,note_on,120,0,1,,,,,,,,,0,,,88,0
2520,note_on,0,0,1,,,,,,,,,0,,,87,64
2520,note_on,120,0,2,,,,,,,,,1,,,76,0
2640,note_on,0,0,3,,,,,,,,,2,,,57,0
2640,note_on,120,0,1,,,,,,,,,0,,,87,0
2640,note_on,0,0,1,,,,,,,,,0,,,88,64
2640,note_on,240,0,3,,,,,,,,,2,,,67,0
2640,note_on,0,0,2,,,,,,,,,1,,,76,64
2640,note_on,0,0,3,,,,,,,,,2,,,61,0
2640,note_on,120,0,2,,,,,,,,,1,,,75,0
2760,note_on,0,0,2,,,,,,,,,1,,,78,64
2760,note_on,120,0,2,,,,,,,,,1,,,76,0
2760,note_on,0,0,1,,,,,,,,,0,,,90,64
2760,note_on,120,0,1,,,,,,,,,0,,,88,0
2880,note_on,0,0,2,,,,,,,,,1,,,74,64
2880,note_on,1200,0,4,,,,,,,,,3,,,38,62
2880,note_on,120,0,2,,,,,,,,,1,,,78,0
2880,note_on,0,0,1,,,,,,,,,0,,,86,64
2880,control_change,0,0,1,,,,,,,,,0,64,0,,
2880,note_on,120,0,1,,,,,,,,,0,,,90,0
2880,note_on,0,0,4,,,,,,,,,3,,,50,62
2880,control_change,0,0,2,,,,,,,,,1,64,0,,
3120,note_on,0,0,4,,,,,,,,,3,,,38,0
3120,note_on,240,0,4,,,,,,,,,3,,,50,0
3240,note_on,0,0,3,,,,,,,,,2,,,66,49
3240,note_on,0,0,3,,,,,,,,,2,,,62,49
3240,note_on,600,0,3,,,,,,,,,2,,,57,49
3360,note_on,0,0,3,,,,,,,,,2,,,57,49
3360,note_on,0,0,3,,,,,,,,,2,,,62,49
3360,note_on,0,0,3,,,,,,,,,2,,,66,49
3360,note_on,0,0,3,,,,,,,,,2,,,62,0
3360,note_on,120,0,3,,,,,,,,,2,,,66,0
3360,note_on,0,0,3,,,,,,,,,2,,,57,0
3600,note_on,240,0,3,,,,,,,,,2,,,66,0
3600,note_on,0,0,3,,,,,,,,,2,,,62,0
3600,note_on,0,0,3,,,,,,,,,2,,,57,0
3720,note_on,840,0,2,,,,,,,,,1,,,76,64
3720,note_on,840,0,1,,,,,,,,,0,,,88,64
3780,note_on,60,0,2,,,,,,,,,1,,,76,0
3780,note_on,0,0,2,,,,,,,,,1,,,74,64
3780,note_on,0,0,1,,,,,,,,,0,,,86,64
3780,note_on,60,0,1,,,,,,,,,0,,,88,0
3840,note_on,0,0,1,,,,,,,,,0,,,86,0
3840,control_change,0,0,2,,,,,,,,,1,64,127,,
3840,note_on,60,0,1,,,,,,,,,0,,,86,0
3840,note_on,0,0,3,,,,,,,,,2,,,66,49
3840,note_on,0,0,1,,,,,,,,,0,,,85,64
3840,note_on,0,0,2,,,,,,,,,1,,,73,64
3840,note_on,0,0,2,,,,,,,,,1,,,74,0
3840,note_on,60,0,2,,,,,,,,,1,,,74,0
3840,note_on,240,0,3,,,,,,,,,2,,,57,49
3840,note_on,0,0,3,,,,,,,,,2,,,62,49
3840,control_change,0,0,1,,,,,,,,,0,64,127,,
3960,note_on,0,0,2,,,,,,,,,1,,,74,64
3960,note_on,120,0,2,,,,,,,,,1,,,73,0
3960,note_on,0,0,1,,,,,,,,,0,,,86,64
3960,note_on,120,0,1,,,,,,,,,0,,,85,0
4080,note_on,120,0,1,,,,,,,,,0,,,86,0
4080,note_on,0,0,1,,,,,,,,,0,,,88,64
4080,note_on,120,0,2,,,,,,,,,1,,,74,0
4080,note_on,0,0,2,,,,,,,,,1,,,76,64
4080,note_on,240,0,3,,,,,,,,,2,,,66,0
4080,note_on,0,0,3,,,,,,,,,2,,,62,0
4080,note_on,0,0,3,,,,,,,,,2,,,57,0
4200,note_on,120,0,2,,,,,,,,,1,,,76,0
4200,control_change,0,0,2,,,,,,,,,1,64,0,,
4200,note_on,0,0,2,,,,,,,,,1,,,78,64
4200,control_change,0,0,1,,,,,,,,,0,64,0,,
4200,note_on,120,0,1,,,,,,,,,0,,,88,0
4200,note_on,0,0,1,,,,,,,,,0,,,90,64
4320,note_on,0,0,4,,,,,,,,,3,,,45,62
4320,note_on,120,0,1,,,,,,,,,0,,,90,0
4320,control_change,0,0,1,,,,,,,,,0,64,127,,
4320,note_on,0,0,1,,,,,,,,,0,,,90,64
4320,note_on,120,0,2,,,,,,,,,1,,,78,0
4320,control_change,0,0,2,,,,,,,,,1,64,127,,
4320,note_on,0,0,2,,,,,,,,,1,,,78,64
4320,note_on,1200,0,4,,,,,,,,,3,,,33,62
4560,note_on,240,0,4,,,,,,,,,3,,,45,0
4560,note_on,0,0,4,,,,,,,,,3,,,33,0
4680,note_on,360,0,2,,,,,,,,,1,,,78,0
4680,note_on,0,0,2,,,,,,,,,1,,,76,64
4680,note_on,0,0,3,,,,,,,,,2,,,67,49
4680,note_on,0,0,1,,,,,,,,,0,,,88,64
4680,note_on,360,0,1,,,,,,,,,0,,,90,0
4680,note_on,600,0,3,,,,,,,,,2,,,57,49
4680,note_on,0,0,3,,,,,,,,,2,,,61,49
4800,note_on,120,0,2,,,,,,,,,1,,,76,0
4800,note_on,0,0,1,,,,,,,,,0,,,87,64
4800,note_on,120,0,1,,,,,,,,,0,,,88,0
4800,note_on,120,0,3,,,,,,,,,2,,,67,0
4800,note_on,0,0,2,,,,,,,,,1,,,75,64
4800,note_on,0,0,3,,,,,,,,,2,,,61,0
4800,note_on,0,0,3,,,,,,,,,2,,,57,49
4800,note_on,0,0,3,,,,,,,,,2,,,61,49
4800,note_on,0,0,3,,,,,,,,,2,,,67,49
4800,note_on,0,0,3,,,,,,,,,2,,,57,0
5040,note_on,240,0,3,,,,,,,,,2,,,67,0
5040,note_on,0,0,3,,,,,,,,,2,,,61,0
5040,note_on,0,0,3,,,,,,,,,2,,,57,0
5160,note_on,0,0,1,,,,,,,,,0,,,88,64
5160,note_on,0,0,2,,,,,,,,,1,,,76,64
5160,note_on,360,0,2,,,,,,,,,1,,,75,0
5160,note_on,360,0,1,,,,,,,,,0,,,87,0
5280,note_on,120,0,1,,,,,,,,,0,,,88,0
5280,note_on,0,0,2,,,,,,,,,1,,,83,64
5280,note_on,0,0,3,,,,,,,,,2,,,67,49
5280,note_on,0,0,3,,,,,,,,,2,,,61,49
5280,note_on,240,0,3,,,,,,,,,2,,,57,49
5280,note_on,0,0,1,,,,,,,,,0,,,95,64
5280,note_on,120,0,2,,,,,,,,,1,,,76,0
5520,note_on,0,0,3,,,,,,,,,2,,,57,0
5520,note_on,0,0,3,,,,,,,,,2,,,61,0
5520,note_on,240,0,3,,,,,,,,,2,,,67,0
5640,note_on,360,0,1,,,,,,,,,0,,,95,0
5640,note_on,0,0,1,,,,,,,,,0,,,93,64
5640,note_on,0,0,2,,,,,,,,,1,,,81,64
5640,control_change,0,0,2,,,,,,,,,1,64,0,,
5640,note_on,360,0,2,,,,,,,,,1,,,83,0
5640,control_change,0,0,1,,,,,,,,,0,64,0,,
5760,note_on,120,0,1,,,,,,,,,0,,,93,0
5760,note_on,0,0,4,,,,,,,,,3,,,50,62
5760,note_on,1200,0,4,,,,,,,,,3,,,38,62
5760,note_on,0,0,1,,,,,,,,,0,,,89,64
5760,time_signature,5760,1,0,7,8,12,8,,,,,,,,,
5760,note_on,120,0,2,,,,,,,,,1,,,81,0
5760,note_on,0,0,2,,,,,,,,,1,,,77,64
6000,note_on,0,0,4,,,,,,,,,3,,,38,0
6000,note_on,240,0,4,,,,,,,,,3,,,50,0
6120,note_on,600,0,3,,,,,,,,,2,,,57,49
6120,note_on,0,0,3,,,,,,,,,2,,,62,49
6120,note_on,0,0,3,,,,,,,,,2,,,66,49
6240,note_on,480,0,1,,,,,,,,,0,,,89,0
6240,note_on,0,0,1,,,,,,,,,0,,,90,64
6240,note_on,480,0,2,,,,,,,,,1,,,77,0
6240,note_on,120,0,3,,,,,,,,,2,,,66,0
6240,note_on,0,0,3,,,,,,,,,2,,,62,0
6240,note_on,0,0,3,,,,,,,,,2,,,57,0
6240,note_on,0,0,3,,,,,,,,,2,,,62,49
6240,note_on,0,0,3,,,,,,,,,2,,,57,49
6240,note_on,0,0,2,,,,,,,,,1,,,78,64
6240,note_on,0,0,3,,,,,,,,,2,,,66,49
6480,note_on,240,0,3,,,,,,,,,2,,,66,0
6480,note_on,0,0,3,,,,,,,,,2,,,62,0
6480,note_on,0,0,3,,,,,,,,,2,,,57,0
6480,note_on,240,0,2,,,,,,,,,1,,,78,0
6480,note_on,240,0,1,,,,,,,,,0,,,90,0
6720,control_change,240,0,1,,,,,,,,,0,64,127,,
6720,control_change,240,0,2,,,,,,,,,1,64,127,,
6720,note_on,0,0,2,,,,,,,,,1,,,69,64
6720,note_on,0,0,1,,,,,,,,,0,,,81,64
6800,note_on,80,0,2,,,,,,,,,1,,,69,0
6800,note_on,0,0,2,,,,,,,,,1,,,74,64
6800,note_on,0,0,1,,,,,,,,,0,,,86,64
6800,note_on,80,0,1,,,,,,,,,0,,,81,0
6879,note_on,79,0,1,,,,,,,,,0,,,86,0
6879,note_on,0,0,1,,,,,,,,,0,,,90,64
6879,note_on,79,0,2,,,,,,,,,1,,,74,0
6879,note_on,0,0,2,,,,,,,,,1,,,78,64
6960,note_on,0,0,1,,,,,,,,,0,,,95,90
6960,note_on,480,0,3,,,,,,,,,2,,,57,49
6960,note_on,0,0,3,,,,,,,,,2,,,62,49
6960,note_on,0,0,3,,,,,,,,,2,,,66,49
6960,note_on,81,0,2,,,,,,,,,1,,,78,0
6960,note_on,0,0,2,,,,,,,,,1,,,83,90
6960,note_on,81,0,1,,,,,,,,,0,,,90,0
7200,note_on,240,0,3,,,,,,,,,2,,,66,0
7200,note_on,0,0,3,,,,,,,,,2,,,62,0
7200,note_on,0,0,3,,,,,,,,,2,,,57,0
7320,note_on,360,0,1,,,,,,,,,0,,,95,0
7320,note_on,0,0,1,,,,,,,,,0,,,93,64
7320,note_on,360,0,2,,,,,,,,,1,,,83,0
7320,note_on,0,0,2,,,,,,,,,1,,,81,64
7440,note_on,0,0,2,,,,,,,,,1,,,78,64
7440,note_on,1440,0,4,,,,,,,,,3,,,38,62
7440,note_on,120,0,2,,,,,,,,,1,,,81,0
7440,note_on,120,0,1,,,,,,,,,0,,,93,0
7440,control_change,0,0,1,,,,,,,,,0,64,0,,
7440,note_on,0,0,1,,,,,,,,,0,,,90,64
7440,time_signature,1680,1,0,3,4,24,8,,,,,,,,,
7440,note_on,0,0,4,,,,,,,,,3,,,50,62
7440,control_change,0,0,2,,,,,,,,,1,64,0,,
7680,note_on,0,0,4,,,,,,,,,3,,,38,0
7680,note_on,240,0,4,,,,,,,,,3,,,50,0
7800,note_on,0,0,3,,,,,,,,,2,,,66,49
7800,note_on,600,0,3,,,,,,,,,2,,,57,49
7800,note_on,0,0,3,,,,,,,,,2,,,62,49
7920,note_on,120,0,3,,,,,,,,,2,,,66,0
7920,note_on,0,0,3,,,,,,,,,2,,,62,0
7920,note_on,0,0,3,,,,,,,,,2,,,57,0
7920,note_on,0,0,3,,,,,,,,,2,,,57,49
7920,note_on,0,0,3,,,,,,,,,2,,,62,49
7920,note_on,0,0,3,,,,,,,,,2,,,66,49
8160,note_on,240,0,3,,,,,,,,,2,,,66,0
8160,note_on,0,0,3,,,,,,,,,2,,,62,0
8160,note_on,0,0,3,,,,,,,,,2,,,57,0
8340,note_on,900,0,2,,,,,,,,,1,,,78,64
8340,note_on,900,0,1,,,,,,,,,0,,,90,64
8400,control_change,0,0,1,,,,,,,,,0,64,127,,
8400,note_on,0,0,1,,,,,,,,,0,,,88,64
8400,note_on,0,0,1,,,,,,,,,0,,,90,0
8400,note_on,60,0,1,,,,,,,,,0,,,90,0
8400,note_on,0,0,3,,,,,,,,,2,,,61,49
8400,note_on,0,0,3,,,,,,,,,2,,,67,49
8400,note_on,240,0,3,,,,,,,,,2,,,57,49
8400,control_change,0,0,2,,,,,,,,,1,64,127,,
8400,note_on,0,0,2,,,,,,,,,1,,,76,64
8400,note_on,60,0,2,,,,,,,,,1,,,78,0
8400,note_on,0,0,2,,,,,,,,,1,,,78,0
8520,note_on,0,0,1,,,,,,,,,0,,,87,64
8520,note_on,120,0,1,,,,,,,,,0,,,88,0
8520,note_on,120,0,2,,,,,,,,,1,,,76,0
8520,note_on,0,0,2,,,,,,,,,1,,,75,64
8640,note_on,120,0,1,,,,,,,,,0,,,87,0
8640,note_on,0,0,3,,,,,,,,,2,,,61,0
8640,note_on,0,0,1,,,,,,,,,0,,,88,64
8640,note_on,0,0,2,,,,,,,,,1,,,76,64
8640,note_on,0,0,3,,,,,,,,,2,,,57,0
8640,note_on,240,0,3,,,,,,,,,2,,,67,0
8640,note_on,120,0,2,,,,,,,,,1,,,75,0
8760,note_on,120,0,1,,,,,,,,,0,,,88,0
8760,note_on,0,0,2,,,,,,,,,1,,,78,64
8760,control_change,0,0,2,,,,,,,,,1,64,0,,
8760,control_change,0,0,1,,,,,,,,,0,64,0,,
8760,note_on,120,0,2,,,,,,,,,1,,,76,0
8760,note_on,0,0,1,,,,,,,,,0,,,90,64
8880,note_on,1200,0,4,,,,,,,,,3,,,38,62
8880,note_on,0,0,4,,,,,,,,,3,,,50,62
8880,note_on,120,0,2,,,,,,,,,1,,,78,0
8880,note_on,0,0,1,,,,,,,,,0,,,86,64
8880,note_on,0,0,2,,,,,,,,,1,,,74,64
8880,note_on,120,0,1,,,,,,,,,0,,,90,0
9120,note_on,240,0,4,,,,,,,,,3,,,50,0
9120,note_on,0,0,4,,,,,,,,,3,,,38,0
9240,note_on,0,0,3,,,,,,,,,2,,,66,49
9240,note_on,0,0,3,,,,,,,,,2,,,62,49
9240,note_on,600,0,3,,,,,,,,,2,,,57,49
9360,note_on,0,0,3,,,,,,,,,2,,,62,49
9360,note_on,0,0,3,,,,,,,,,2,,,57,49
9360,note_on,0,0,3,,,,,,,,,2,,,57,0
9360,note_on,0,0,3,,,,,,,,,2,,,62,0
9360,note_on,120,0,3,,,,,,,,,2,,,66,0
9360,note_on,0,0,3,,,,,,,,,2,,,66,49
9600,note_on,240,0,3,,,,,,,,,2,,,66,0
9600,note_on,0,0,3,,,,,,,,,2,,,57,0
9600,note_on,0,0,3,,,,,,,,,2,,,62,0
9720,note_on,840,0,2,,,,,,,,,1,,,76,64
9720,note_on,840,0,1,,,,,,,,,0,,,88,64
9780,note_on,0,0,2,,,,,,,,,1,,,74,64
9780,note_on,60,0,2,,,,,,,,,1,,,76,0
9780,note_on,0,0,1,,,,,,,,,0,,,86,64
9780,note_on,60,0,1,,,,,,,,,0,,,88,0
9840,note_on,240,0,3,,,,,,,,,2,,,57,49
9840,note_on,0,0,3,,,,,,,,,2,,,66,49
9840,note_on,60,0,2,,,,,,,,,1,,,74,0
9840,note_on,0,0,2,,,,,,,,,1,,,74,0
9840,note_on,0,0,1,,,,,,,,,0,,,86,0
9840,control_change,0,0,2,,,,,,,,,1,64,127,,
9840,note_on,0,0,2,,,,,,,,,1,,,73,64
9840,note_on,60,0,1,,,,,,,,,0,,,86,0
9840,note_on,0,0,1,,,,,,,,,0,,,85,64
9840,note_on,0,0,3,,,,,,,,,2,,,62,49
9840,control_change,0,0,1,,,,,,,,,0,64,127,,
9960,note_on,0,0,1,,,,,,,,,0,,,86,64
9960,note_on,120,0,2,,,,,,,,,1,,,73,0
9960,note_on,0,0,2,,,,,,,,,1,,,74,64
9960,note_on,120,0,1,,,,,,,,,0,,,85,0
10080,note_on,120,0,1,,,,,,,,,0,,,86,0
10080,note_on,0,0,3,,,,,,,,,2,,,57,0
10080,note_on,0,0,3,,,,,,,,,2,,,62,0
10080,note_on,240,0,3,,,,,,,,,2,,,66,0
10080,note_on,0,0,2,,,,,,,,,1,,,76,64
10080,note_on,120,0,2,,,,,,,,,1,,,74,0
10080,note_on,0,0,1,,,,,,,,,0,,,88,64
10200,note_on,0,0,2,,,,,,,,,1,,,78,64
10200,control_change,0,0,2,,,,,,,,,1,64,0,,
10200,note_on,120,0,2,,,,,,,,,1,,,76,0
10200,control_change,0,0,1,,,,,,,,,0,64,0,,
10200,note_on,0,0,1,,,,,,,,,0,,,90,64
10200,note_on,120,0,1,,,,,,,,,0,,,88,0
10320,note_on,240,0,3,,,,,,,,,2,,,57,75
10320,note_on,0,0,3,,,,,,,,,2,,,61,75
10320,note_on,0,0,2,,,,,,,,,1,,,78,90
10320,control_change,0,0,2,,,,,,,,,1,64,127,,
10320,note_on,1200,0,4,,,,,,,,,3,,,40,88
10320,note_on,0,0,4,,,,,,,,,3,,,52,88
10320,note_on,0,0,1,,,,,,,,,0,,,90,90
10320,control_change,0,0,1,,,,,,,,,0,64,127,,
10320,note_on,120,0,1,,,,,,,,,0,,,90,0
10320,note_on,120,0,2,,,,,,,,,1,,,78,0
10320,note_on,0,0,3,,,,,,,,,2,,,64,75
11160,note_on,840,0,2,,,,,,,,,1,,,78,0
11160,note_on,0,0,2,,,,,,,,,1,,,76,64
11160,note_on,0,0,1,,,,,,,,,0,,,88,64
11160,note_on,840,0,1,,,,,,,,,0,,,90,0
11280,note_on,120,0,2,,,,,,,,,1,,,76,0
11280,note_on,0,0,2,,,,,,,,,1,,,78,64
11280,note_on,0,0,3,,,,,,,,,2,,,64,49
11280,note_on,0,0,3,,,,,,,,,2,,,62,49
11280,note_on,0,0,3,,,,,,,,,2,,,59,49
11280,note_on,0,0,3,,,,,,,,,2,,,56,49
11280,note_on,0,0,3,,,,,,,,,2,,,57,0
11280,note_on,0,0,3,,,,,,,,,2,,,61,0
11280,note_on,960,0,3,,,,,,,,,2,,,64,0
11280,note_on,0,0,1,,,,,,,,,0,,,90,64
11280,note_on,120,0,1,,,,,,,,,0,,,88,0
11640,note_on,360,0,1,,,,,,,,,0,,,90,0
11640,control_change,0,0,1,,,,,,,,,0,64,0,,
11640,note_on,0,0,1,,,,,,,,,0,,,88,64
11640,note_on,0,0,2,,,,,,,,,1,,,76,64
11640,control_change,0,0,2,,,,,,,,,1,64,0,,
11640,note_on,360,0,2,,,,,,,,,1,,,78,0
11760,note_on,0,0,4,,,,,,,,,3,,,40,0
11760,note_on,0,0,4,,,,,,,,,3,,,45,62
11760,note_on,1440,0,4,,,,,,,,,3,,,52,0
11760,note_on,0,0,4,,,,,,,,,3,,,52,62
11760,note_on,480,0,3,,,,,,,,,2,,,64,0
11760,note_on,0,0,3,,,,,,,,,2,,,62,0
11760,note_on,0,0,3,,,,,,,,,2,,,59,0
11760,note_on,120,0,1,,,,,,,,,0,,,88,0
11760,note_on,120,0,2,,,,,,,,,1,,,76,0
11760,note_on,0,0,2,,,,,,,,,1,,,69,64
11760,note_on,0,0,3,,,,,,,,,2,,,64,49
11760,note_on,0,0,3,,,,,,,,,2,,,61,49
11760,note_on,0,0,3,,,,,,,,,2,,,57,49
11760,note_on,0,0,3,,,,,,,,,2,,,56,0
11760,note_on,0,0,1,,,,,,,,,0,,,81,64
12240,note_on,0,0,3,,,,,,,,,2,,,57,0
12240,note_on,0,0,3,,,,,,,,,2,,,61,0
12240,note_on,480,0,3,,,,,,,,,2,,,64,0
12240,note_on,480,0,4,,,,,,,,,3,,,52,0
12240,note_on,480,0,1,,,,,,,,,0,,,81,0
12240,note_on,0,0,4,,,,,,,,,3,,,45,0
12240,note_on,480,0,2,,,,,,,,,1,,,69,0
12480,note_on,0,0,3,,,,,,,,,2,,,57,75
12480,control_change,240,0,3,,,,,,,,,2,64,127,,
12540,note_on,0,0,3,,,,,,,,,2,,,61,75
12540,note_on,60,0,3,,,,,,,,,2,,,57,0
12600,note_on,0,0,3,,,,,,,,,2,,,64,75
12600,note_on,60,0,3,,,,,,,,,2,,,61,0
12660,note_on,0,0,3,,,,,,,,,2,,,67,75
12660,note_on,60,0,3,,,,,,,,,2,,,64,0
12720,note_on,60,0,3,,,,,,,,,2,,,67,0
12720,note_on,0,0,3,,,,,,,,,2,,,71,101
13080,note_on,360,0,3,,,,,,,,,2,,,71,0
13080,note_on,0,0,3,,,,,,,,,2,,,69,75
13200,note_on,0,0,3,,,,,,,,,2,,,66,75
13200,note_on,120,0,3,,,,,,,,,2,,,69,0
13200,note_on,0,0,4,,,,,,,,,3,,,57,62
13200,note_on,960,0,4,,,,,,,,,3,,,50,62
13200,control_change,0,0,3,,,,,,,,,2,64,0,,
13560,note_on,0,0,2,,,,,,,,,1,,,69,64
13560,control_change,1320,0,2,,,,,,,,,1,64,127,,
13560,control_change,1320,0,1,,,,,,,,,0,64,127,,
13560,note_on,0,0,1,,,,,,,,,0,,,81,64
13680,note_on,0,0,2,,,,,,,,,1,,,74,64
13680,note_on,120,0,2,,,,,,,,,1,,,69,0
13680,note_on,0,0,1,,,,,,,,,0,,,86,64
13680,note_on,0,0,4,,,,,,,,,3,,,50,0
13680,note_on,480,0,4,,,,,,,,,3,,,57,0
13680,note_on,120,0,1,,,,,,,,,0,,,81,0
14040,note_on,360,0,1,,,,,,,,,0,,,86,0
14040,note_on,0,0,1,,,,,,,,,0,,,90,64
14040,note_on,0,0,2,,,,,,,,,1,,,78,64
14040,note_on,360,0,2,,,,,,,,,1,,,74,0
14100,note_on,900,0,3,,,,,,,,,2,,,66,75
14160,note_on,0,0,4,,,,,,,,,3,,,55,62
14160,note_on,0,0,2,,,,,,,,,1,,,83,90
14160,note_on,120,0,2,,,,,,,,,1,,,78,0
14160,note_on,60,0,3,,,,,,,,,2,,,66,0
14160,note_on,0,0,3,,,,,,,,,2,,,66,0
14160,note_on,480,0,4,,,,,,,,,3,,,45,62
14160,note_on,0,0,3,,,,,,,,,2,,,64,75
14160,control_change,0,0,3,,,,,,,,,2,64,127,,
14160,note_on,0,0,1,,,,,,,,,0,,,95,90
14160,note_on,120,0,1,,,,,,,,,0,,,90,0
14280,note_on,0,0,3,,,,,,,,,2,,,63,75
14280,note_on,120,0,3,,,,,,,,,2,,,64,0
14400,note_on,120,0,3,,,,,,,,,2,,,63,0
14400,note_on,0,0,1,,,,,,,,,0,,,93,64
14400,note_on,0,0,3,,,,,,,,,2,,,64,75
14400,note_on,240,0,1,,,,,,,,,0,,,95,0
14400,note_on,240,0,2,,,,,,,,,1,,,83,0
14400,control_change,0,0,2,,,,,,,,,1,64,0,,
14400,note_on,0,0,2,,,,,,,,,1,,,81,64
14400,control_change,0,0,1,,,,,,,,,0,64,0,,
14520,note_on,0,0,3,,,,,,,,,2,,,66,75
14520,note_on,120,0,3,,,,,,,,,2,,,64,0
14520,note_on,120,0,2,,,,,,,,,1,,,81,0
14520,note_on,120,0,1,,,,,,,,,0,,,93,0
14640,note_on,0,0,4,,,,,,,,,3,,,54,62
14640,note_on,480,0,4,,,,,,,,,3,,,55,0
14640,note_on,0,0,4,,,,,,,,,3,,,45,0
14640,control_change,0,0,3,,,,,,,,,2,64,0,,
14640,note_on,120,0,3,,,,,,,,,2,,,66,0
14640,note_on,0,0,3,,,,,,,,,2,,,62,75
14640,note_on,0,0,4,,,,,,,,,3,,,50,62
14687,note_on,0,0,4,,,,,,,,,3,,,50,0
14687,note_on,47,0,4,,,,,,,,,3,,,54,0
15000,note_on,0,0,1,,,,,,,,,0,,,86,64
15000,note_on,0,0,2,,,,,,,,,1,,,74,64
15000,control_change,480,0,1,,,,,,,,,0,64,127,,
15000,control_change,480,0,2,,,,,,,,,1,64,127,,
15120,note_on,120,0,1,,,,,,,,,0,,,86,0
15120,note_on,433,0,4,,,,,,,,,3,,,38,62
15120,note_on,0,0,1,,,,,,,,,0,,,90,90
15120,note_on,0,0,2,,,,,,,,,1,,,78,90
15120,note_on,120,0,2,,,,,,,,,1,,,74,0
15167,note_on,47,0,4,,,,,,,,,3,,,38,0
15480,note_on,0,0,1,,,,,,,,,0,,,86,64
15480,note_on,0,0,2,,,,,,,,,1,,,74,64
15480,note_on,360,0,2,,,,,,,,,1,,,78,0
15480,note_on,360,0,1,,,,,,,,,0,,,90,0
15480,note_on,840,0,3,,,,,,,,,2,,,64,75
15540,note_on,0,0,3,,,,,,,,,2,,,62,75
15540,note_on,60,0,3,,,,,,,,,2,,,64,0
15600,control_change,0,0,1,,,,,,,,,0,64,0,,
15600,control_change,0,0,2,,,,,,,,,1,64,0,,
15600,note_on,120,0,2,,,,,,,,,1,,,74,0
15600,note_on,60,0,3,,,,,,,,,2,,,62,0
15600,note_on,0,0,3,,,,,,,,,2,,,62,0
15600,control_change,0,0,3,,,,,,,,,2,64,127,,
15600,note_on,0,0,3,,,,,,,,,2,,,61,75
15600,note_on,0,0,1,,,,,,,,,0,,,81,64
15600,note_on,120,0,1,,,,,,,,,0,,,86,0
15600,note_on,0,0,2,,,,,,,,,1,,,69,64
15720,note_on,120,0,3,,,,,,,,,2,,,61,0
15720,note_on,0,0,3,,,,,,,,,2,,,62,75
15840,note_on,240,0,1,,,,,,,,,0,,,81,0
15840,note_on,240,0,2,,,,,,,,,1,,,69,0
15840,note_on,0,0,3,,,,,,,,,2,,,64,75
15840,note_on,120,0,3,,,,,,,,,2,,,62,0
15960,note_on,120,0,3,,,,,,,,,2,,,64,0
15960,note_on,0,0,3,,,,,,,,,2,,,66,75
15960,control_change,0,0,3,,,,,,,,,2,64,0,,
16080,note_on,120,0,3,,,,,,,,,2,,,66,0
16080,control_change,0,0,3,,,,,,,,,2,64,127,,
16080,note_on,0,0,3,,,,,,,,,2,,,66,75
16080,note_on,0,0,4,,,,,,,,,3,,,55,62
16080,note_on,913,0,4,,,,,,,,,3,,,45,62
16440,note_on,0,0,2,,,,,,,,,1,,,76,64
16440,note_on,360,0,3,,,,,,,,,2,,,66,0
16440,note_on,0,0,1,,,,,,,,,0,,,88,64
16440,control_change,600,0,2,,,,,,,,,1,64,127,,
16440,note_on,0,0,3,,,,,,,,,2,,,64,75
16440,control_change,600,0,1,,,,,,,,,0,64,127,,
16560,note_on,120,0,1,,,,,,,,,0,,,88,0
16560,note_on,0,0,1,,,,,,,,,0,,,90,64
16560,note_on,480,0,4,,,,,,,,,3,,,55,0
16560,note_on,120,0,2,,,,,,,,,1,,,76,0
16560,note_on,0,0,2,,,,,,,,,1,,,78,64
16560,note_on,0,0,4,,,,,,,,,3,,,45,0
16560,note_on,120,0,3,,,,,,,,,2,,,64,0
16560,note_on,0,0,3,,,,,,,,,2,,,63,75
16920,note_on,360,0,2,,,,,,,,,1,,,78,0
16920,note_on,0,0,2,,,,,,,,,1,,,76,64
16920,note_on,360,0,1,,,,,,,,,0,,,90,0
16920,note_on,0,0,1,,,,,,,,,0,,,88,64
16920,note_on,360,0,3,,,,,,,,,2,,,63,0
16920,note_on,0,0,3,,,,,,,,,2,,,64,75
17040,note_on,120,0,3,,,,,,,,,2,,,64,0
17040,note_on,0,0,3,,,,,,,,,2,,,61,75
17040,note_on,0,0,3,,,,,,,,,2,,,71,75
17040,note_on,120,0,1,,,,,,,,,0,,,88,0
17040,note_on,0,0,1,,,,,,,,,0,,,91,64
17040,note_on,0,0,4,,,,,,,,,3,,,55,62
17040,note_on,480,0,4,,,,,,,,,3,,,45,62
17040,note_on,120,0,2,,,,,,,,,1,,,76,0
17040,note_on,0,0,2,,,,,,,,,1,,,79,64
17400,note_on,360,0,1,,,,,,,,,0,,,91,0
17400,control_change,0,0,1,,,,,,,,,0,64,0,,
17400,note_on,0,0,1,,,,,,,,,0,,,85,64
17400,control_change,0,0,2,,,,,,,,,1,64,0,,
17400,note_on,0,0,2,,,,,,,,,1,,,73,64
17400,note_on,0,0,3,,,,,,,,,2,,,69,75
17400,control_change,0,0,3,,,,,,,,,2,64,0,,
17400,note_on,360,0,3,,,,,,,,,2,,,71,0
17400,note_on,360,0,2,,,,,,,,,1,,,79,0
17400,note_on,0,0,3,,,,,,,,,2,,,61,0
17520,note_on,0,0,3,,,,,,,,,2,,,65,75
17520,note_on,120,0,3,,,,,,,,,2,,,69,0
17520,note_on,0,0,2,,,,,,,,,1,,,74,64
17520,note_on,0,0,4,,,,,,,,,3,,,45,0
17520,note_on,120,0,1,,,,,,,,,0,,,85,0
17520,time_signature,10080,1,0,7,8,12,8,,,,,,,,,
17520,note_on,480,0,4,,,,,,,,,3,,,55,0
17520,note_on,0,0,1,,,,,,,,,0,,,86,64
17520,note_on,0,0,4,,,,,,,,,3,,,38,62
17520,note_on,120,0,2,,,,,,,,,1,,,73,0
17880,note_on,360,0,1,,,,,,,,,0,,,86,0
17880,note_on,0,0,2,,,,,,,,,1,,,69,64
17880,note_on,360,0,2,,,,,,,,,1,,,74,0
17880,note_on,0,0,1,,,,,,,,,0,,,81,64
18000,note_on,0,0,4,,,,,,,,,3,,,54,62
18000,note_on,480,0,4,,,,,,,,,3,,,38,0
18000,note_on,0,0,2,,,,,,,,,1,,,74,64
18000,note_on,0,0,3,,,,,,,,,2,,,66,75
18000,note_on,480,0,3,,,,,,,,,2,,,65,0
18000,note_on,120,0,2,,,,,,,,,1,,,69,0
18000,note_on,0,0,1,,,,,,,,,0,,,86,64
18000,note_on,120,0,1,,,,,,,,,0,,,81,0
18000,note_on,0,0,4,,,,,,,,,3,,,50,62
18240,note_on,240,0,2,,,,,,,,,1,,,74,0
18240,note_on,240,0,1,,,,,,,,,0,,,86,0
18240,note_on,240,0,3,,,,,,,,,2,,,66,0
18480,note_on,480,0,4,,,,,,,,,3,,,54,0
18480,control_change,240,0,3,,,,,,,,,2,64,127,,
18480,note_on,0,0,3,,,,,,,,,2,,,57,75
18480,note_on,0,0,4,,,,,,,,,3,,,50,0
18560,note_on,80,0,3,,,,,,,,,2,,,57,0
18560,note_on,0,0,3,,,,,,,,,2,,,62,75
18639,note_on,79,0,3,,,,,,,,,2,,,62,0
18639,note_on,0,0,3,,,,,,,,,2,,,66,75
18720,note_on,81,0,3,,,,,,,,,2,,,66,0
18720,note_on,0,0,3,,,,,,,,,2,,,71,101
19080,note_on,0,0,3,,,,,,,,,2,,,69,75
19080,control_change,0,0,3,,,,,,,,,2,64,0,,
19080,note_on,360,0,3,,,,,,,,,2,,,71,0
19200,note_on,720,0,4,,,,,,,,,3,,,50,62
19200,note_on,0,0,4,,,,,,,,,3,,,57,62
19200,time_signature,1680,1,0,3,4,24,8,,,,,,,,,
19200,note_on,0,0,3,,,,,,,,,2,,,66,75
19200,control_change,0,0,3,,,,,,,,,2,64,0,,
19200,note_on,120,0,3,,,,,,,,,2,,,69,0
19560,note_on,0,0,1,,,,,,,,,0,,,81,64
19560,note_on,0,0,2,,,,,,,,,1,,,69,64
19560,control_change,1320,0,2,,,,,,,,,1,64,127,,
19560,control_change,1320,0,1,,,,,,,,,0,64,127,,
19680,note_on,0,0,1,,,,,,,,,0,,,86,64
19680,note_on,0,0,4,,,,,,,,,3,,,50,0
19680,note_on,120,0,1,,,,,,,,,0,,,81,0
19680,note_on,0,0,2,,,,,,,,,1,,,74,64
19680,note_on,120,0,2,,,,,,,,,1,,,69,0
19680,note_on,480,0,4,,,,,,,,,3,,,57,0
20040,note_on,0,0,1,,,,,,,,,0,,,90,64
20040,note_on,360,0,1,,,,,,,,,0,,,86,0
20040,note_on,0,0,2,,,,,,,,,1,,,78,64
20040,note_on,360,0,2,,,,,,,,,1,,,74,0
20100,note_on,900,0,3,,,,,,,,,2,,,66,75
20160,note_on,60,0,3,,,,,,,,,2,,,66,0
20160,note_on,0,0,3,,,,,,,,,2,,,66,0
20160,control_change,0,0,3,,,,,,,,,2,64,127,,
20160,note_on,0,0,3,,,,,,,,,2,,,64,75
20160,note_on,480,0,4,,,,,,,,,3,,,45,62
20160,note_on,0,0,4,,,,,,,,,3,,,55,62
20160,note_on,0,0,1,,,,,,,,,0,,,95,90
20160,note_on,120,0,1,,,,,,,,,0,,,90,0
20160,note_on,0,0,2,,,,,,,,,1,,,83,90
20160,note_on,120,0,2,,,,,,,,,1,,,78,0
20280,note_on,120,0,3,,,,,,,,,2,,,64,0
20280,note_on,0,0,3,,,,,,,,,2,,,63,75
20400,note_on,0,0,1,,,,,,,,,0,,,93,64
20400,control_change,0,0,1,,,,,,,,,0,64,0,,
20400,note_on,240,0,1,,,,,,,,,0,,,95,0
20400,note_on,0,0,3,,,,,,,,,2,,,64,75
20400,note_on,0,0,2,,,,,,,,,1,,,81,64
20400,control_change,0,0,2,,,,,,,,,1,64,0,,
20400,note_on,240,0,2,,,,,,,,,1,,,83,0
20400,note_on,120,0,3,,,,,,,,,2,,,63,0
20520,note_on,120,0,3,,,,,,,,,2,,,64,0
20520,note_on,120,0,2,,,,,,,,,1,,,81,0
20520,note_on,0,0,3,,,,,,,,,2,,,66,75
20520,note_on,120,0,1,,,,,,,,,0,,,93,0
20640,note_on,0,0,4,,,,,,,,,3,,,45,0
20640,note_on,480,0,4,,,,,,,,,3,,,55,0
20640,note_on,0,0,4,,,,,,,,,3,,,54,62
20640,note_on,120,0,3,,,,,,,,,2,,,66,0
20640,control_change,0,0,3,,,,,,,,,2,64,0,,
20640,note_on,0,0,3,,,,,,,,,2,,,62,75
20640,note_on,0,0,4,,,,,,,,,3,,,50,62
20687,note_on,47,0,4,,,,,,,,,3,,,54,0
20687,note_on,0,0,4,,,,,,,,,3,,,50,0
21000,control_change,480,0,1,,,,,,,,,0,64,127,,
21000,note_on,0,0,1,,,,,,,,,0,,,86,64
21000,control_change,480,0,2,,,,,,,,,1,64,127,,
21000,note_on,0,0,2,,,,,,,,,1,,,74,64
21120,note_on,0,0,2,,,,,,,,,1,,,78,90
21120,note_on,433,0,4,,,,,,,,,3,,,38,62
21120,note_on,0,0,1,,,,,,,,,0,,,90,90
21120,note_on,120,0,1,,,,,,,,,0,,,86,0
21120,note_on,120,0,2,,,,,,,,,1,,,74,0
21167,note_on,47,0,4,,,,,,,,,3,,,38,0
21480,note_on,360,0,2,,,,,,,,,1,,,78,0
21480,note_on,0,0,2,,,,,,,,,1,,,74,64
21480,note_on,840,0,3,,,,,,,,,2,,,64,75
21480,note_on,360,0,1,,,,,,,,,0,,,90,0
21480,note_on,0,0,1,,,,,,,,,0,,,86,64
21540,note_on,0,0,3,,,,,,,,,2,,,62,75
21540,note_on,60,0,3,,,,,,,,,2,,,64,0
21600,note_on,60,0,3,,,,,,,,,2,,,62,0
21600,note_on,0,0,3,,,,,,,,,2,,,62,0
21600,control_change,0,0,3,,,,,,,,,2,64,127,,
21600,note_on,0,0,3,,,,,,,,,2,,,61,75
21600,note_on,0,0,2,,,,,,,,,1,,,69,64
21600,control_change,0,0,2,,,,,,,,,1,64,0,,
21600,note_on,120,0,2,,,,,,,,,1,,,74,0
21600,note_on,120,0,1,,,,,,,,,0,,,86,0
21600,control_change,0,0,1,,,,,,,,,0,64,0,,
21600,note_on,0,0,1,,,,,,,,,0,,,81,64
21720,note_on,120,0,3,,,,,,,,,2,,,61,0
21720,note_on,0,0,3,,,,,,,,,2,,,62,75
21840,note_on,240,0,1,,,,,,,,,0,,,81,0
21840,note_on,240,0,2,,,,,,,,,1,,,69,0
21840,note_on,120,0,3,,,,,,,,,2,,,62,0
21840,note_on,0,0,3,,,,,,,,,2,,,64,75
21960,note_on,0,0,3,,,,,,,,,2,,,66,75
21960,control_change,0,0,3,,,,,,,,,2,64,0,,
21960,note_on,120,0,3,,,,,,,,,2,,,64,0
22080,note_on,913,0,4,,,,,,,,,3,,,52,62
22080,note_on,0,0,4,,,,,,,,,3,,,57,62
22080,note_on,120,0,3,,,,,,,,,2,,,66,0
22080,control_change,0,0,3,,,,,,,,,2,64,127,,
22080,note_on,0,0,4,,,,,,,,,3,,,61,62
22080,note_on,0,0,3,,,,,,,,,2,,,66,101
22440,note_on,0,0,1,,,,,,,,,0,,,85,64
22440,control_change,600,0,1,,,,,,,,,0,64,127,,
22440,control_change,600,0,2,,,,,,,,,1,64,127,,
22440,note_on,0,0,2,,,,,,,,,1,,,73,64
22560,note_on,120,0,2,,,,,,,,,1,,,73,0
22560,note_on,0,0,1,,,,,,,,,0,,,93,64
22560,note_on,120,0,1,,,,,,,,,0,,,85,0
22560,note_on,0,0,2,,,,,,,,,1,,,81,64
22560,note_on,0,0,4,,,,,,,,,3,,,52,0
22560,note_on,0,0,4,,,,,,,,,3,,,57,0
22560,note_on,480,0,4,,,,,,,,,3,,,61,0
22920,note_on,0,0,1,,,,,,,,,0,,,85,64
22920,note_on,360,0,1,,,,,,,,,0,,,93,0
22920,note_on,360,0,2,,,,,,,,,1,,,81,0
22920,note_on,0,0,2,,,,,,,,,1,,,73,64
22920,note_on,840,0,3,,,,,,,,,2,,,66,0
22920,note_on,0,0,3,,,,,,,,,2,,,64,75
23040,note_on,0,0,3,,,,,,,,,2,,,66,75
23040,note_on,120,0,3,,,,,,,,,2,,,64,0
23040,note_on,120,0,1,,,,,,,,,0,,,85,0
23040,note_on,0,0,1,,,,,,,,,0,,,87,64
23040,note_on,0,0,2,,,,,,,,,1,,,75,64
23040,note_on,120,0,2,,,,,,,,,1,,,73,0
23040,note_on,0,0,4,,,,,,,,,3,,,62,62
23040,note_on,0,0,4,,,,,,,,,3,,,56,62
23040,note_on,480,0,4,,,,,,,,,3,,,52,62
23400,note_on,0,0,3,,,,,,,,,2,,,64,75
23400,control_change,0,0,3,,,,,,,,,2,64,0,,
23400,control_change,0,0,2,,,,,,,,,1,64,0,,
23400,note_on,360,0,2,,,,,,,,,1,,,75,0
23400,note_on,0,0,1,,,,,,,,,0,,,88,64
23400,control_change,0,0,1,,,,,,,,,0,64,0,,
23400,note_on,360,0,1,,,,,,,,,0,,,87,0
23400,note_on,360,0,3,,,,,,,,,2,,,66,0
23400,note_on,0,0,2,,,,,,,,,1,,,76,64
23520,note_on,120,0,1,,,,,,,,,0,,,88,0
23520,note_on,0,0,3,,,,,,,,,2,,,61,75
23520,note_on,480,0,4,,,,,,,,,3,,,62,0
23520,note_on,0,0,4,,,,,,,,,3,,,56,0
23520,note_on,0,0,4,,,,,,,,,3,,,52,0
23520,note_on,0,0,4,,,,,,,,,3,,,57,62
23520,note_on,120,0,3,,,,,,,,,2,,,64,0
23520,note_on,0,0,2,,,,,,,,,1,,,69,64
23520,note_on,120,0,2,,,,,,,,,1,,,76,0
23520,note_on,0,0,1,,,,,,,,,0,,,81,64
24000,note_on,480,0,3,,,,,,,,,2,,,61,0
24000,note_on,480,0,1,,,,,,,,,0,,,81,0
24000,note_on,0,0,4,,,,,,,,,3,,,45,62
24000,note_on,480,0,4,,,,,,,,,3,,,57,0
24000,note_on,480,0,2,,,,,,,,,1,,,69,0
24420,note_on,420,0,1,,,,,,,,,0,,,90,64
24420,note_on,420,0,2,,,,,,,,,1,,,78,64
24480,note_on,480,0,4,,,,,,,,,3,,,45,0
24480,note_on,60,0,1,,,,,,,,,0,,,90,0
24480,note_on,0,0,1,,,,,,,,,0,,,88,64
24480,note_on,0,0,2,,,,,,,,,1,,,76,64
24480,note_on,60,0,2,,,,,,,,,1,,,78,0
24600,note_on,120,0,1,,,,,,,,,0,,,88,0
24600,note_on,0,0,1,,,,,,,,,0,,,87,64
24600,note_on,120,0,2,,,,,,,,,1,,,76,0
24600,note_on,0,0,2,,,,,,,,,1,,,75,64
24720,note_on,0,0,1,,,,,,,,,0,,,88,64
24720,note_on,120,0,1,,,,,,,,,0,,,87,0
24720,note_on,120,0,2,,,,,,,,,1,,,75,0
24720,note_on,0,0,2,,,,,,,,,1,,,76,64
24840,note_on,120,0,2,,,,,,,,,1,,,76,0
24840,note_on,120,0,1,,,,,,,,,0,,,88,0
24840,note_on,0,0,1,,,,,,,,,0,,,90,64
24840,note_on,0,0,2,,,,,,,,,1,,,78,64
24960,note_on,120,0,1,,,,,,,,,0,,,90,0
24960,note_on,120,0,2,,,,,,,,,1,,,78,0
24960,note_on,0,0,1,,,,,,,,,0,,,91,64
24960,note_on,0,0,4,,,,,,,,,3,,,52,62
24960,note_on,480,0,4,,,,,,,,,3,,,40,62
24960,note_on,960,0,3,,,,,,,,,2,,,55,49
24960,note_on,0,0,4,,,,,,,,,3,,,64,62
24960,note_on,0,0,2,,,,,,,,,1,,,79,64
25200,note_on,240,0,3,,,,,,,,,2,,,55,0
25200,note_on,0,0,3,,,,,,,,,2,,,59,49
25440,note_on,0,0,3,,,,,,,,,2,,,55,49
25440,note_on,240,0,3,,,,,,,,,2,,,59,0
25680,note_on,240,0,3,,,,,,,,,2,,,55,0
25680,note_on,0,0,3,,,,,,,,,2,,,59,49
25800,note_on,840,0,2,,,,,,,,,1,,,81,64
25800,note_on,840,0,1,,,,,,,,,0,,,93,64
25860,note_on,60,0,2,,,,,,,,,1,,,81,0
25860,note_on,0,0,1,,,,,,,,,0,,,91,64
25860,note_on,60,0,1,,,,,,,,,0,,,93,0
25860,note_on,0,0,2,,,,,,,,,1,,,79,64
25920,note_on,0,0,3,,,,,,,,,2,,,57,49
25920,note_on,0,0,1,,,,,,,,,0,,,91,0
25920,note_on,60,0,1,,,,,,,,,0,,,91,0
25920,note_on,0,0,3,,,,,,,,,2,,,63,49
25920,note_on,240,0,3,,,,,,,,,2,,,59,0
25920,note_on,0,0,1,,,,,,,,,0,,,90,64
25920,note_on,60,0,2,,,,,,,,,1,,,79,0
25920,note_on,0,0,2,,,,,,,,,1,,,79,0
25920,note_on,0,0,2,,,,,,,,,1,,,78,64
26040,note_on,120,0,1,,,,,,,,,0,,,90,0
26040,note_on,0,0,1,,,,,,,,,0,,,91,64
26040,note_on,120,0,2,,,,,,,,,1,,,78,0
26040,note_on,0,0,2,,,,,,,,,1,,,79,64
26160,note_on,120,0,1,,,,,,,,,0,,,91,0
26160,note_on,0,0,3,,,,,,,,,2,,,59,49
26160,note_on,0,0,3,,,,,,,,,2,,,57,0
26160,note_on,240,0,3,,,,,,,,,2,,,63,0
26160,note_on,0,0,1,,,,,,,,,0,,,93,64
26160,note_on,0,0,2,,,,,,,,,1,,,81,64
26160,note_on,120,0,2,,,,,,,,,1,,,79,0
26280,note_on,120,0,2,,,,,,,,,1,,,81,0
26280,note_on,0,0,2,,,,,,,,,1,,,82,64
26280,note_on,0,0,1,,,,,,,,,0,,,94,64
26280,note_on,120,0,1,,,,,,,,,0,,,93,0
26400,note_on,120,0,1,,,,,,,,,0,,,94,0
26400,note_on,0,0,1,,,,,,,,,0,,,95,64
26400,note_on,0,0,4,,,,,,,,,3,,,40,0
26400,note_on,0,0,4,,,,,,,,,3,,,52,0
26400,note_on,1440,0,4,,,,,,,,,3,,,64,0
26400,note_on,240,0,3,,,,,,,,,2,,,59,0
26400,note_on,0,0,3,,,,,,,,,2,,,55,49
26400,note_on,0,0,4,,,,,,,,,3,,,40,62
26400,note_on,0,0,4,,,,,,,,,3,,,52,62
26400,note_on,0,0,4,,,,,,,,,3,,,64,62
26400,note_on,0,0,2,,,,,,,,,1,,,83,64
26400,note_on,120,0,2,,,,,,,,,1,,,82,0
26640,note_on,0,0,3,,,,,,,,,2,,,59,49
26640,note_on,240,0,3,,,,,,,,,2,,,55,0
26760,note_on,0,0,1,,,,,,,,,0,,,91,64
26760,note_on,360,0,2,,,,,,,,,1,,,83,0
26760,note_on,0,0,2,,,,,,,,,1,,,79,64
26760,note_on,360,0,1,,,,,,,,,0,,,95,0
26880,note_on,0,0,1,,,,,,,,,0,,,88,64
26880,note_on,120,0,2,,,,,,,,,1,,,79,0
26880,note_on,0,0,2,,,,,,,,,1,,,76,64
26880,note_on,240,0,3,,,,,,,,,2,,,59,0
26880,note_on,0,0,3,,,,,,,,,2,,,55,49
26880,note_on,120,0,1,,,,,,,,,0,,,91,0
27120,note_on,240,0,1,,,,,,,,,0,,,88,0
27120,note_on,240,0,3,,,,,,,,,2,,,55,0
27120,note_on,0,0,3,,,,,,,,,2,,,59,49
27120,note_on,240,0,2,,,,,,,,,1,,,76,0
27300,note_on,180,0,2,,,,,,,,,1,,,76,90
27300,note_on,180,0,1,,,,,,,,,0,,,88,90
27360,note_on,240,0,3,,,,,,,,,2,,,59,0
27360,note_on,0,0,3,,,,,,,,,2,,,55,49
27360,note_on,60,0,2,,,,,,,,,1,,,88,90
27360,note_on,60,0,1,,,,,,,,,0,,,100,90
27600,note_on,0,0,3,,,,,,,,,2,,,59,49
27600,note_on,240,0,3,,,,,,,,,2,,,55,0
27840,note_on,0,0,2,,,,,,,,,1,,,76,0
27840,note_on,0,0,2,,,,,,,,,1,,,83,64
27840,note_on,240,0,3,,,,,,,,,2,,,59,0
27840,note_on,0,0,3,,,,,,,,,2,,,55,49
27840,note_on,0,0,1,,,,,,,,,0,,,88,0
27840,note_on,1440,0,4,,,,,,,,,3,,,64,0
27840,note_on,0,0,4,,,,,,,,,3,,,52,0
27840,note_on,0,0,4,,,,,,,,,3,,,40,0
27840,note_on,0,0,4,,,,,,,,,3,,,40,62
27840,note_on,480,0,1,,,,,,,,,0,,,100,0
27840,note_on,0,0,1,,,,,,,,,0,,,95,64
27840,note_on,480,0,2,,,,,,,,,1,,,88,0
27840,note_on,0,0,4,,,,,,,,,3,,,64,62
28080,note_on,240,0,3,,,,,,,,,2,,,55,0
28080,note_on,0,0,3,,,,,,,,,2,,,59,49
28200,note_on,360,0,4,,,,,,,,,3,,,64,0
28200,note_on,0,0,4,,,,,,,,,3,,,43,62
28200,note_on,0,0,4,,,,,,,,,3,,,40,0
28320,note_on,0,0,4,,,,,,,,,3,,,47,62
28320,note_on,240,0,3,,,,,,,,,2,,,59,0
28320,note_on,0,0,3,,,,,,,,,2,,,55,49
28320,note_on,120,0,4,,,,,,,,,3,,,43,0
28560,note_on,0,0,3,,,,,,,,,2,,,59,49
28560,note_on,720,0,1,,,,,,,,,0,,,95,0
28560,note_on,0,0,2,,,,,,,,,1,,,81,64
28560,note_on,720,0,2,,,,,,,,,1,,,83,0
28560,note_on,240,0,3,,,,,,,,,2,,,55,0
28560,note_on,0,0,1,,,,,,,,,0,,,93,64
28680,note_on,120,0,1,,,,,,,,,0,,,93,0
28680,note_on,0,0,2,,,,,,,,,1,,,79,64
28680,note_on,120,0,2,,,,,,,,,1,,,81,0
28680,note_on,0,0,1,,,,,,,,,0,,,91,64
28800,note_on,0,0,4,,,,,,,,,3,,,35,62
28800,note_on,0,0,2,,,,,,,,,1,,,78,64
28800,note_on,0,0,3,,,,,,,,,2,,,57,49
28800,note_on,0,0,3,,,,,,,,,2,,,63,49
28800,note_on,480,0,4,,,,,,,,,3,,,47,0
28800,note_on,0,0,1,,,,,,,,,0,,,90,64
28800,note_on,120,0,1,,,,,,,,,0,,,91,0
28800,note_on,120,0,2,,,,,,,,,1,,,79,0
28800,note_on,240,0,3,,,,,,,,,2,,,59,0
28920,note_on,120,0,2,,,,,,,,,1,,,78,0
28920,note_on,120,0,1,,,,,,,,,0,,,90,0
28920,note_on,0,0,2,,,,,,,,,1,,,79,64
28920,note_on,0,0,1,,,,,,,,,0,,,91,64
29040,note_on,120,0,2,,,,,,,,,1,,,79,0
29040,note_on,0,0,2,,,,,,,,,1,,,81,64
29040,note_on,0,0,3,,,,,,,,,2,,,66,49
29040,note_on,0,0,1,,,,,,,,,0,,,93,64
29040,note_on,120,0,1,,,,,,,,,0,,,91,0
29040,note_on,0,0,3,,,,,,,,,2,,,57,0
29040,note_on,240,0,3,,,,,,,,,2,,,63,0
29160,note_on,0,0,1,,,,,,,,,0,,,87,64
29160,note_on,120,0,1,,,,,,,,,0,,,93,0
29160,note_on,0,0,2,,,,,,,,,1,,,75,64
29160,note_on,120,0,2,,,,,,,,,1,,,81,0
29280,note_on,120,0,1,,,,,,,,,0,,,87,0
29280,note_on,0,0,1,,,,,,,,,0,,,88,64
29280,note_on,240,0,3,,,,,,,,,2,,,66,0
29280,note_on,480,0,4,,,,,,,,,3,,,35,0
29280,note_on,0,0,3,,,,,,,,,2,,,55,49
29280,note_on,0,0,2,,,,,,,,,1,,,76,64
29280,note_on,0,0,4,,,,,,,,,3,,,40,62
29280,note_on,120,0,2,,,,,,,,,1,,,75,0
29520,note_on,240,0,3,,,,,,,,,2,,,55,0
29520,note_on,0,0,3,,,,,,,,,2,,,59,49
29760,note_on,240,0,3,,,,,,,,,2,,,59,0
29760,note_on,0,0,3,,,,,,,,,2,,,55,49
30000,note_on,0,0,3,,,,,,,,,2,,,59,49
30000,note_on,240,0,3,,,,,,,,,2,,,55,0
30180,note_on,900,0,2,,,,,,,,,1,,,69,64
30180,note_on,900,0,1,,,,,,,,,0,,,81,64
30240,note_on,60,0,1,,,,,,,,,0,,,81,0
30240,note_on,0,0,1,,,,,,,,,0,,,88,0
30240,control_change,0,0,1,,,,,,,,,0,64,127,,
30240,note_on,0,0,3,,,,,,,,,2,,,55,49
30240,note_on,240,0,3,,,,,,,,,2,,,59,0
30240,note_on,0,0,1,,,,,,,,,0,,,79,64
30240,note_on,60,0,2,,,,,,,,,1,,,69,0
30240,note_on,0,0,2,,,,,,,,,1,,,76,0
30240,control_change,0,0,2,,,,,,,,,1,64,127,,
30240,note_on,0,0,2,,,,,,,,,1,,,67,64
30360,note_on,120,0,2,,,,,,,,,1,,,67,0
30360,note_on,0,0,2,,,,,,,,,1,,,66,64
30360,note_on,0,0,1,,,,,,,,,0,,,78,64
30360,note_on,120,0,1,,,,,,,,,0,,,79,0
30480,note_on,120,0,1,,,,,,,,,0,,,78,0
30480,note_on,0,0,1,,,,,,,,,0,,,79,64
30480,note_on,0,0,2,,,,,,,,,1,,,67,64
30480,note_on,120,0,2,,,,,,,,,1,,,66,0
30480,note_on,240,0,3,,,,,,,,,2,,,55,0
30480,note_on,0,0,3,,,,,,,,,2,,,60,49
30600,note_on,120,0,1,,,,,,,,,0,,,79,0
30600,control_change,0,0,1,,,,,,,,,0,64,0,,
30600,note_on,0,0,1,,,,,,,,,0,,,84,64
30600,note_on,0,0,2,,,,,,,,,1,,,72,64
30600,control_change,0,0,2,,,,,,,,,1,64,0,,
30600,note_on,120,0,2,,,,,,,,,1,,,67,0
30720,note_on,0,0,2,,,,,,,,,1,,,76,64
30720,note_on,240,0,3,,,,,,,,,2,,,60,0
30720,note_on,0,0,3,,,,,,,,,2,,,55,49
30720,note_on,120,0,2,,,,,,,,,1,,,72,0
30720,note_on,0,0,4,,,,,,,,,3,,,64,62
30720,note_on,0,0,4,,,,,,,,,3,,,48,62
30720,note_on,0,0,4,,,,,,,,,3,,,36,62
30720,note_on,1440,0,4,,,,,,,,,3,,,40,0
30720,note_on,0,0,1,,,,,,,,,0,,,88,64
30720,note_on,120,0,1,,,,,,,,,0,,,84,0
30960,note_on,240,0,3,,,,,,,,,2,,,55,0
30960,note_on,0,0,3,,,,,,,,,2,,,60,49
31200,note_on,240,0,3,,,,,,,,,2,,,60,0
31200,note_on,0,0,3,,,,,,,,,2,,,55,49
31440,note_on,240,0,3,,,,,,,,,2,,,55,0
31440,note_on,0,0,3,,,,,,,,,2,,,60,49
31560,note_on,840,0,2,,,,,,,,,1,,,76,0
31560,note_on,0,0,1,,,,,,,,,0,,,84,64
31560,note_on,840,0,1,,,,,,,,,0,,,88,0
31560,note_on,0,0,2,,,,,,,,,1,,,72,64
31680,note_on,240,0,3,,,,,,,,,2,,,60,0
31680,note_on,0,0,3,,,,,,,,,2,,,55,49
31680,note_on,0,0,2,,,,,,,,,1,,,79,64
31680,note_on,0,0,1,,,,,,,,,0,,,91,64
31680,note_on,120,0,1,,,,,,,,,0,,,84,0
31680,note_on,120,0,2,,,,,,,,,1,,,72,0
31920,note_on,240,0,3,,,,,,,,,2,,,55,0
31920,note_on,0,0,3,,,,,,,,,2,,,60,49
32040,note_on,0,0,1,,,,,,,,,0,,,88,64
32040,note_on,360,0,1,,,,,,,,,0,,,91,0
32040,note_on,0,0,2,,,,,,,,,1,,,76,64
32040,note_on,360,0,2,,,,,,,,,1,,,79,0
32160,note_on,0,0,1,,,,,,,,,0,,,86,64
32160,note_on,120,0,1,,,,,,,,,0,,,88,0
32160,note_on,0,0,4,,,,,,,,,3,,,48,0
32160,note_on,0,0,2,,,,,,,,,1,,,74,64
32160,note_on,120,0,2,,,,,,,,,1,,,76,0
32160,note_on,1440,0,4,,,,,,,,,3,,,64,0
32160,note_on,0,0,4,,,,,,,,,3,,,36,0
32160,note_on,0,0,3,,,,,,,,,2,,,59,49
32160,note_on,240,0,3,,,,,,,,,2,,,60,0
32160,note_on,0,0,4,,,,,,,,,3,,,62,62
32160,note_on,0,0,4,,,,,,,,,3,,,31,62
32160,note_on,0,0,4,,,,,,,,,3,,,43,62
32400,note_on,240,0,3,,,,,,,,,2,,,59,0
32400,note_on,0,0,3,,,,,,,,,2,,,55,49
32640,note_on,0,0,3,,,,,,,,,2,,,59,49
32640,note_on,240,0,3,,,,,,,,,2,,,55,0
32880,note_on,0,0,3,,,,,,,,,2,,,55,49
32880,note_on,240,0,3,,,,,,,,,2,,,59,0
32880,note_on,720,0,1,,,,,,,,,0,,,86,0
32880,note_on,0,0,1,,,,,,,,,0,,,85,64
32880,note_on,0,0,2,,,,,,,,,1,,,73,64
32880,note_on,720,0,2,,,,,,,,,1,,,74,0
33000,note_on,0,0,1,,,,,,,,,0,,,86,64
33000,note_on,0,0,2,,,,,,,,,1,,,74,64
33000,note_on,120,0,1,,,,,,,,,0,,,85,0
33000,note_on,120,0,2,,,,,,,,,1,,,73,0
33120,note_on,0,0,2,,,,,,,,,1,,,76,64
33120,note_on,120,0,2,,,,,,,,,1,,,74,0
33120,note_on,240,0,3,,,,,,,,,2,,,55,0
33120,note_on,0,0,1,,,,,,,,,0,,,88,64
33120,note_on,120,0,1,,,,,,,,,0,,,86,0
33120,note_on,0,0,3,,,,,,,,,2,,,59,49
33240,note_on,120,0,2,,,,,,,,,1,,,76,0
33240,note_on,0,0,2,,,,,,,,,1,,,74,64
33240,note_on,120,0,1,,,,,,,,,0,,,88,0
33240,note_on,0,0,1,,,,,,,,,0,,,86,64
33360,note_on,120,0,1,,,,,,,,,0,,,86,0
33360,note_on,0,0,1,,,,,,,,,0,,,83,64
33360,note_on,0,0,3,,,,,,,,,2,,,55,49
33360,note_on,240,0,3,,,,,,,,,2,,,59,0
33360,note_on,120,0,2,,,,,,,,,1,,,74,0
33360,note_on,0,0,2,,,,,,,,,1,,,71,64
33480,note_on,0,0,2,,,,,,,,,1,,,67,64
33480,note_on,120,0,2,,,,,,,,,1,,,71,0
33480,note_on,0,0,1,,,,,,,,,0,,,79,64
33480,note_on,120,0,1,,,,,,,,,0,,,83,0
33600,note_on,0,0,1,,,,,,,,,0,,,78,64
33600,note_on,120,0,1,,,,,,,,,0,,,79,0
33600,note_on,120,0,2,,,,,,,,,1,,,67,0
33600,note_on,0,0,4,,,,,,,,,3,,,60,62
33600,note_on,0,0,4,,,,,,,,,3,,,36,62
33600,note_on,0,0,4,,,,,,,,,3,,,31,0
33600,note_on,240,0,3,,,,,,,,,2,,,55,0
33600,note_on,1440,0,4,,,,,,,,,3,,,62,0
33600,note_on,0,0,2,,,,,,,,,1,,,66,64
33600,note_on,0,0,3,,,,,,,,,2,,,52,49
33600,note_on,0,0,4,,,,,,,,,3,,,43,0
33720,note_on,0,0,2,,,,,,,,,1,,,64,64
33720,note_on,120,0,2,,,,,,,,,1,,,66,0
33720,note_on,120,0,1,,,,,,,,,0,,,78,0
33720,note_on,0,0,1,,,,,,,,,0,,,76,64
33840,note_on,0,0,2,,,,,,,,,1,,,69,64
33840,note_on,0,0,3,,,,,,,,,2,,,57,49
33840,note_on,240,0,3,,,,,,,,,2,,,52,0
33840,note_on,120,0,1,,,,,,,,,0,,,76,0
33840,note_on,0,0,1,,,,,,,,,0,,,81,64
33840,note_on,120,0,2,,,,,,,,,1,,,64,0
33960,note_on,120,0,2,,,,,,,,,1,,,69,0
33960,note_on,0,0,2,,,,,,,,,1,,,68,64
33960,note_on,0,0,1,,,,,,,,,0,,,80,64
33960,note_on,120,0,1,,,,,,,,,0,,,81,0
34080,note_on,240,0,3,,,,,,,,,2,,,57,0
34080,note_on,0,0,3,,,,,,,,,2,,,52,49
34080,note_on,0,0,1,,,,,,,,,0,,,83,64
34080,note_on,120,0,2,,,,,,,,,1,,,68,0
34080,note_on,0,0,2,,,,,,,,,1,,,71,64
34080,note_on,120,0,1,,,,,,,,,0,,,80,0
34200,note_on,0,0,1,,,,,,,,,0,,,81,64
34200,note_on,120,0,1,,,,,,,,,0,,,83,0
34200,note_on,120,0,2,,,,,,,,,1,,,71,0
34200,note_on,0,0,2,,,,,,,,,1,,,69,64
34320,note_on,120,0,2,,,,,,,,,1,,,69,0
34320,note_on,0,0,2,,,,,,,,,1,,,72,64
34320,note_on,120,0,1,,,,,,,,,0,,,81,0
34320,note_on,0,0,1,,,,,,,,,0,,,84,64
34320,note_on,240,0,3,,,,,,,,,2,,,52,0
34320,note_on,0,0,3,,,,,,,,,2,,,57,49
34440,note_on,0,0,1,,,,,,,,,0,,,83,64
34440,note_on,120,0,1,,,,,,,,,0,,,84,0
34440,note_on,120,0,2,,,,,,,,,1,,,72,0
34440,note_on,0,0,2,,,,,,,,,1,,,71,64
34560,note_on,120,0,1,,,,,,,,,0,,,83,0
34560,note_on,0,0,1,,,,,,,,,0,,,86,64
34560,note_on,240,0,3,,,,,,,,,2,,,57,0
34560,note_on,120,0,2,,,,,,,,,1,,,71,0
34560,note_on,0,0,2,,,,,,,,,1,,,74,64
34560,note_on,0,0,3,,,,,,,,,2,,,52,49
34680,note_on,0,0,2,,,,,,,,,1,,,72,64
34680,note_on,120,0,2,,,,,,,,,1,,,74,0
34680,note_on,120,0,1,,,,,,,,,0,,,86,0
34680,note_on,0,0,1,,,,,,,,,0,,,84,64
34800,note_on,0,0,3,,,,,,,,,2,,,57,49
34800,note_on,0,0,2,,,,,,,,,1,,,76,64
34800,note_on,120,0,2,,,,,,,,,1,,,72,0
34800,note_on,240,0,3,,,,,,,,,2,,,52,0
34800,note_on,120,0,1,,,,,,,,,0,,,84,0
34800,note_on,0,0,1,,,,,,,,,0,,,88,64
34880,note_on,0,0,2,,,,,,,,,1,,,72,64
34880,note_on,0,0,1,,,,,,,,,0,,,84,64
34880,note_on,80,0,2,,,,,,,,,1,,,76,0
34880,note_on,80,0,1,,,,,,,,,0,,,88,0
34959,note_on,79,0,1,,,,,,,,,0,,,84,0
34959,note_on,0,0,1,,,,,,,,,0,,,81,64
34959,note_on,79,0,2,,,,,,,,,1,,,72,0
34959,note_on,0,0,2,,,,,,,,,1,,,69,64
35040,control_change,0,0,3,,,,,,,,,2,64,127,,
35040,note_on,81,0,1,,,,,,,,,0,,,81,0
35040,note_on,0,0,1,,,,,,,,,0,,,79,64
35040,note_on,0,0,4,,,,,,,,,3,,,36,0
35040,note_on,1440,0,4,,,,,,,,,3,,,60,0
35040,note_on,240,0,3,,,,,,,,,2,,,57,0
35040,note_on,0,0,3,,,,,,,,,2,,,59,49
35040,note_on,0,0,4,,,,,,,,,3,,,38,62
35040,note_on,0,0,2,,,,,,,,,1,,,67,64
35040,note_on,81,0,2,,,,,,,,,1,,,69,0
35280,note_on,0,0,3,,,,,,,,,2,,,50,49
35280,note_on,240,0,3,,,,,,,,,2,,,59,0
35400,note_on,360,0,1,,,,,,,,,0,,,81,64
35400,note_on,360,0,2,,,,,,,,,1,,,69,64
35460,note_on,0,0,1,,,,,,,,,0,,,79,64
35460,note_on,60,0,1,,,,,,,,,0,,,81,0
35460,note_on,60,0,2,,,,,,,,,1,,,69,0
35460,note_on,0,0,2,,,,,,,,,1,,,67,64
35520,note_on,240,0,3,,,,,,,,,2,,,50,0
35520,note_on,0,0,1,,,,,,,,,0,,,78,64
35520,note_on,0,0,1,,,,,,,,,0,,,79,0
35520,note_on,60,0,1,,,,,,,,,0,,,79,0
35520,note_on,0,0,2,,,,,,,,,1,,,66,64
35520,note_on,0,0,2,,,,,,,,,1,,,67,0
35520,note_on,60,0,2,,,,,,,,,1,,,67,0
35520,note_on,0,0,3,,,,,,,,,2,,,57,49
35760,note_on,240,0,2,,,,,,,,,1,,,66,0
35760,note_on,0,0,3,,,,,,,,,2,,,50,49
35760,control_change,0,0,3,,,,,,,,,2,64,0,,
35760,note_on,240,0,3,,,,,,,,,2,,,57,0
35760,note_on,240,0,1,,,,,,,,,0,,,78,0
36000,control_change,240,0,2,,,,,,,,,1,64,127,,
36000,control_change,240,0,1,,,,,,,,,0,64,127,,
36000,note_on,0,0,1,,,,,,,,,0,,,79,75
36000,note_on,0,0,2,,,,,,,,,1,,,67,75
36000,note_on,240,0,3,,,,,,,,,2,,,50,0
36000,note_on,0,0,3,,,,,,,,,2,,,53,49
36000,note_on,960,0,4,,,,,,,,,3,,,38,0
36000,note_on,0,0,4,,,,,,,,,3,,,62,62
36000,note_on,0,0,4,,,,,,,,,3,,,43,62
36120,note_on,0,0,1,,,,,,,,,0,,,81,75
36120,note_on,120,0,1,,,,,,,,,0,,,79,0
36120,note_on,120,0,2,,,,,,,,,1,,,67,0
36120,note_on,0,0,2,,,,,,,,,1,,,69,75
36240,note_on,240,0,3,,,,,,,,,2,,,53,0
36240,note_on,0,0,1,,,,,,,,,0,,,82,75
36240,note_on,120,0,1,,,,,,,,,0,,,81,0
36240,note_on,0,0,2,,,,,,,,,1,,,70,75
36240,note_on,0,0,3,,,,,,,,,2,,,55,49
36240,note_on,120,0,2,,,,,,,,,1,,,69,0
36360,note_on,0,0,1,,,,,,,,,0,,,83,75
36360,note_on,120,0,2,,,,,,,,,1,,,70,0
36360,note_on,120,0,1,,,,,,,,,0,,,82,0
36360,note_on,0,0,2,,,,,,,,,1,,,71,75
36360,control_change,0,0,1,,,,,,,,,0,64,0,,
36360,control_change,0,0,2,,,,,,,,,1,64,0,,
36480,note_on,480,0,4,,,,,,,,,3,,,62,0
36480,note_on,0,0,4,,,,,,,,,3,,,43,0
36480,note_on,240,0,3,,,,,,,,,2,,,55,0
36480,note_on,0,0,4,,,,,,,,,3,,,36,75
36480,note_on,0,0,4,,,,,,,,,3,,,48,75
36480,note_on,0,0,4,,,,,,,,,3,,,60,75
36480,note_on,0,0,1,,,,,,,,,0,,,84,88
36480,note_on,0,0,3,,,,,,,,,2,,,52,62
36480,note_on,120,0,1,,,,,,,,,0,,,83,0
36480,note_on,120,0,2,,,,,,,,,1,,,71,0
36480,note_on,0,0,2,,,,,,,,,1,,,72,88
36720,note_on,0,0,3,,,,,,,,,2,,,55,62
36720,note_on,240,0,3,,,,,,,,,2,,,52,0
36840,note_on,360,0,2,,,,,,,,,1,,,72,0
36840,note_on,0,0,1,,,,,,,,,0,,,79,88
36840,note_on,360,0,1,,,,,,,,,0,,,84,0
36840,note_on,0,0,2,,,,,,,,,1,,,67,88
36960,note_on,0,0,1,,,,,,,,,0,,,88,88
36960,note_on,120,0,1,,,,,,,,,0,,,79,0
36960,note_on,0,0,3,,,,,,,,,2,,,52,62
36960,note_on,240,0,3,,,,,,,,,2,,,55,0
36960,note_on,120,0,2,,,,,,,,,1,,,67,0
36960,note_on,0,0,2,,,,,,,,,1,,,76,88
37200,note_on,240,0,3,,,,,,,,,2,,,52,0
37200,note_on,0,0,3,,,,,,,,,2,,,55,62
37320,note_on,0,0,1,,,,,,,,,0,,,84,88
37320,note_on,360,0,2,,,,,,,,,1,,,76,0
37320,note_on,0,0,2,,,,,,,,,1,,,72,88
37320,note_on,360,0,1,,,,,,,,,0,,,88,0
37440,note_on,120,0,1,,,,,,,,,0,,,84,0
37440,note_on,0,0,1,,,,,,,,,0,,,91,88
37440,note_on,120,0,2,,,,,,,,,1,,,72,0
37440,note_on,960,0,4,,,,,,,,,3,,,60,0
37440,note_on,0,0,3,,,,,,,,,2,,,60,62
37440,note_on,0,0,4,,,,,,,,,3,,,48,0
37440,note_on,0,0,2,,,,,,,,,1,,,79,88
37440,note_on,0,0,4,,,,,,,,,3,,,64,75
37440,note_on,0,0,4,,,,,,,,,3,,,36,0
37440,note_on,240,0,3,,,,,,,,,2,,,55,0
37680,note_on,0,0,3,,,,,,,,,2,,,55,62
37680,note_on,240,0,3,,,,,,,,,2,,,60,0
37800,note_on,360,0,2,,,,,,,,,1,,,79,0
37800,note_on,0,0,1,,,,,,,,,0,,,88,88
37800,note_on,360,0,1,,,,,,,,,0,,,91,0
37800,note_on,0,0,2,,,,,,,,,1,,,76,88
37920,note_on,240,0,3,,,,,,,,,2,,,55,0
37920,note_on,0,0,1,,,,,,,,,0,,,86,88
37920,note_on,120,0,1,,,,,,,,,0,,,88,0
37920,note_on,120,0,2,,,,,,,,,1,,,76,0
37920,note_on,0,0,2,,,,,,,,,1,,,74,88
37920,note_on,0,0,4,,,,,,,,,3,,,62,62
37920,note_on,0,0,4,,,,,,,,,3,,,43,62
37920,note_on,0,0,3,,,,,,,,,2,,,59,49
37920,note_on,0,0,4,,,,,,,,,3,,,31,62
37920,note_on,480,0,4,,,,,,,,,3,,,64,0
38160,note_on,0,0,3,,,,,,,,,2,,,55,49
38160,note_on,240,0,3,,,,,,,,,2,,,59,0
38400,note_on,240,0,3,,,,,,,,,2,,,55,0
38400,note_on,0,0,3,,,,,,,,,2,,,59,49
38640,note_on,0,0,3,,,,,,,,,2,,,55,49
38640,note_on,0,0,2,,,,,,,,,1,,,73,75
38640,note_on,240,0,3,,,,,,,,,2,,,59,0
38640,note_on,720,0,2,,,,,,,,,1,,,74,0
38640,note_on,720,0,1,,,,,,,,,0,,,86,0
38640,note_on,0,0,1,,,,,,,,,0,,,85,75
38760,note_on,0,0,1,,,,,,,,,0,,,86,75
38760,note_on,120,0,1,,,,,,,,,0,,,85,0
38760,note_on,120,0,2,,,,,,,,,1,,,73,0
38760,note_on,0,0,2,,,,,,,,,1,,,74,75
38880,note_on,120,0,2,,,,,,,,,1,,,74,0
38880,note_on,0,0,3,,,,,,,,,2,,,59,49
38880,note_on,240,0,3,,,,,,,,,2,,,55,0
38880,note_on,120,0,1,,,,,,,,,0,,,86,0
38880,note_on,0,0,1,,,,,,,,,0,,,88,62
38880,note_on,0,0,2,,,,,,,,,1,,,76,62
39000,note_on,0,0,2,,,,,,,,,1,,,74,62
39000,note_on,120,0,1,,,,,,,,,0,,,88,0
39000,note_on,0,0,1,,,,,,,,,0,,,86,62
39000,note_on,120,0,2,,,,,,,,,1,,,76,0
39120,note_on,0,0,1,,,,,,,,,0,,,85,62
39120,note_on,120,0,1,,,,,,,,,0,,,86,0
39120,note_on,240,0,3,,,,,,,,,2,,,59,0
39120,note_on,0,0,3,,,,,,,,,2,,,55,49
39120,note_on,120,0,2,,,,,,,,,1,,,74,0
39120,note_on,0,0,2,,,,,,,,,1,,,73,62
39240,note_on,120,0,2,,,,,,,,,1,,,73,0
39240,note_on,0,0,2,,,,,,,,,1,,,71,62
39240,note_on,120,0,1,,,,,,,,,0,,,85,0
39240,note_on,0,0,1,,,,,,,,,0,,,83,62
39360,note_on,240,0,3,,,,,,,,,2,,,55,0
39360,note_on,120,0,1,,,,,,,,,0,,,83,0
39360,note_on,1440,0,4,,,,,,,,,3,,,62,0
39360,note_on,0,0,4,,,,,,,,,3,,,43,0
39360,note_on,0,0,4,,,,,,,,,3,,,31,0
39360,note_on,0,0,4,,,,,,,,,3,,,30,62
39360,note_on,0,0,4,,,,,,,,,3,,,42,62
39360,note_on,0,0,4,,,,,,,,,3,,,62,62
39360,note_on,0,0,1,,,,,,,,,0,,,83,62
39360,note_on,0,0,3,,,,,,,,,2,,,59,49
39360,note_on,0,0,2,,,,,,,,,1,,,71,62
39360,note_on,120,0,2,,,,,,,,,1,,,71,0
39600,note_on,240,0,3,,,,,,,,,2,,,59,0
39600,note_on,0,0,3,,,,,,,,,2,,,54,49
39840,note_on,240,0,3,,,,,,,,,2,,,54,0
39840,note_on,0,0,3,,,,,,,,,2,,,59,49
40080,note_on,240,0,3,,,,,,,,,2,,,59,0
40080,note_on,0,0,3,,,,,,,,,2,,,54,49
40260,note_on,900,0,1,,,,,,,,,0,,,82,62
40260,note_on,900,0,2,,,,,,,,,1,,,70,62
40320,note_on,0,0,4,,,,,,,,,3,,,42,0
40320,note_on,0,0,1,,,,,,,,,0,,,90,62
40320,note_on,60,0,1,,,,,,,,,0,,,83,0
40320,note_on,0,0,2,,,,,,,,,1,,,78,62
40320,note_on,60,0,2,,,,,,,,,1,,,71,0
40320,note_on,960,0,4,,,,,,,,,3,,,62,0
40320,note_on,240,0,3,,,,,,,,,2,,,54,0
40320,note_on,0,0,4,,,,,,,,,3,,,30,0
40320,note_on,0,0,4,,,,,,,,,3,,,64,62
40320,note_on,0,0,3,,,,,,,,,2,,,61,49
40560,note_on,0,0,3,,,,,,,,,2,,,54,49
40560,note_on,240,0,3,,,,,,,,,2,,,61,0
40680,note_on,0,0,2,,,,,,,,,1,,,70,62
40680,note_on,0,0,1,,,,,,,,,0,,,82,0
40680,note_on,360,0,2,,,,,,,,,1,,,78,0
40680,note_on,360,0,1,,,,,,,,,0,,,90,0
40680,note_on,0,0,1,,,,,,,,,0,,,82,62
40680,note_on,0,0,2,,,,,,,,,1,,,70,0
40800,note_on,240,0,3,,,,,,,,,2,,,54,0
40800,note_on,120,0,1,,,,,,,,,0,,,82,0
40800,note_on,0,0,3,,,,,,,,,2,,,59,49
40800,note_on,0,0,2,,,,,,,,,1,,,71,62
40800,note_on,480,0,4,,,,,,,,,3,,,64,0
40800,note_on,0,0,4,,,,,,,,,3,,,35,62
40800,note_on,0,0,4,,,,,,,,,3,,,47,62
40800,note_on,0,0,4,,,,,,,,,3,,,62,62
40800,note_on,120,0,2,,,,,,,,,1,,,70,0
40800,note_on,0,0,1,,,,,,,,,0,,,83,62
41040,note_on,240,0,3,,,,,,,,,2,,,59,0
41040,note_on,0,0,3,,,,,,,,,2,,,54,49
41280,note_on,240,0,3,,,,,,,,,2,,,54,0
41280,note_on,0,0,3,,,,,,,,,2,,,59,49
41520,control_change,0,0,1,,,,,,,,,0,64,127,,
41520,note_on,240,0,3,,,,,,,,,2,,,59,0
41520,note_on,0,0,1,,,,,,,,,0,,,83,62
41520,note_on,720,0,2,,,,,,,,,1,,,71,0
41520,control_change,0,0,2,,,,,,,,,1,64,127,,
41520,note_on,0,0,2,,,,,,,,,1,,,71,62
41520,note_on,720,0,4,,,,,,,,,3,,,62,0
41520,note_on,0,0,4,,,,,,,,,3,,,47,0
41520,note_on,0,0,4,,,,,,,,,3,,,35,0
41520,note_on,720,0,1,,,,,,,,,0,,,83,0
41760,note_on,240,0,2,,,,,,,,,1,,,71,0
41760,note_on,0,0,2,,,,,,,,,1,,,71,62
41760,note_on,240,0,1,,,,,,,,,0,,,83,0
41760,note_on,0,0,1,,,,,,,,,0,,,83,62
42000,control_change,0,0,2,,,,,,,,,1,64,0,,
42000,note_on,240,0,2,,,,,,,,,1,,,71,0
42000,note_on,240,0,1,,,,,,,,,0,,,83,0
42000,control_change,0,0,1,,,,,,,,,0,64,0,,
42000,note_on,0,0,2,,,,,,,,,1,,,70,62
42000,note_on,0,0,1,,,,,,,,,0,,,82,62
42240,note_on,720,0,3,,,,,,,,,2,,,55,49
42240,note_on,0,0,3,,,,,,,,,2,,,57,49
42240,note_on,0,0,3,,,,,,,,,2,,,64,49
42240,control_change,0,0,2,,,,,,,,,1,64,127,,
42240,note_on,0,0,1,,,,,,,,,0,,,81,62
42240,control_change,0,0,1,,,,,,,,,0,64,127,,
42240,note_on,240,0,1,,,,,,,,,0,,,82,0
42240,note_on,240,0,2,,,,,,,,,1,,,70,0
42240,note_on,0,0,2,,,,,,,,,1,,,69,62
42240,note_on,720,0,4,,,,,,,,,3,,,49,62
42480,note_on,240,0,2,,,,,,,,,1,,,69,0
42480,note_on,0,0,2,,,,,,,,,1,,,73,62
42480,note_on,240,0,1,,,,,,,,,0,,,81,0
42480,note_on,0,0,1,,,,,,,,,0,,,85,62
42540,note_on,0,0,2,,,,,,,,,1,,,75,62
42540,note_on,60,0,2,,,,,,,,,1,,,73,0
42540,note_on,60,0,1,,,,,,,,,0,,,85,0
42540,note_on,0,0,1,,,,,,,,,0,,,87,62
42600,note_on,0,0,2,,,,,,,,,1,,,76,62
42600,note_on,0,0,1,,,,,,,,,0,,,88,62
42600,note_on,60,0,2,,,,,,,,,1,,,75,0
42600,note_on,60,0,1,,,,,,,,,0,,,87,0
42660,note_on,60,0,1,,,,,,,,,0,,,88,0
42660,note_on,0,0,1,,,,,,,,,0,,,90,62
42660,note_on,60,0,2,,,,,,,,,1,,,76,0
42660,note_on,0,0,2,,,,,,,,,1,,,78,62
42720,note_on,0,0,1,,,,,,,,,0,,,91,62
42720,control_change,0,0,1,,,,,,,,,0,64,0,,
42720,note_on,60,0,1,,,,,,,,,0,,,90,0
42720,note_on,60,0,2,,,,,,,,,1,,,78,0
42720,control_change,0,0,2,,,,,,,,,1,64,0,,
42720,note_on,0,0,2,,,,,,,,,1,,,79,62
42960,note_on,720,0,4,,,,,,,,,3,,,49,0
42960,control_change,0,0,4,,,,,,,,,3,64,127,,
42960,note_on,0,0,4,,,,,,,,,3,,,49,62
42960,note_on,240,0,2,,,,,,,,,1,,,79,0
42960,note_on,240,0,1,,,,,,,,,0,,,91,0
42960,note_on,720,0,3,,,,,,,,,2,,,64,0
42960,note_on,0,0,3,,,,,,,,,2,,,57,0
42960,note_on,0,0,3,,,,,,,,,2,,,55,0
42960,control_change,0,0,3,,,,,,,,,2,64,127,,
42960,note_on,0,0,3,,,,,,,,,2,,,55,49
42960,note_on,0,0,3,,,,,,,,,2,,,57,49
42960,note_on,0,0,3,,,,,,,,,2,,,64,49
43200,note_on,0,0,4,,,,,,,,,3,,,49,62
43200,note_on,240,0,4,,,,,,,,,3,,,49,0
43200,note_on,240,0,3,,,,,,,,,2,,,64,0
43200,note_on,0,0,3,,,,,,,,,2,,,57,0
43200,note_on,0,0,3,,,,,,,,,2,,,55,0
43200,note_on,0,0,3,,,,,,,,,2,,,55,49
43200,note_on,0,0,3,,,,,,,,,2,,,57,49
43200,note_on,0,0,3,,,,,,,,,2,,,64,49
43440,note_on,0,0,4,,,,,,,,,3,,,49,62
43440,control_change,0,0,4,,,,,,,,,3,64,0,,
43440,note_on,240,0,4,,,,,,,,,3,,,49,0
43440,note_on,0,0,3,,,,,,,,,2,,,64,49
43440,note_on,0,0,3,,,,,,,,,2,,,55,49
43440,control_change,0,0,3,,,,,,,,,2,64,0,,
43440,note_on,0,0,3,,,,,,,,,2,,,55,0
43440,note_on,0,0,3,,,,,,,,,2,,,57,49
43440,note_on,240,0,3,,,,,,,,,2,,,64,0
43440,note_on,0,0,3,,,,,,,,,2,,,57,0
43680,note_on,0,0,1,,,,,,,,,0,,,82,62
43680,note_on,0,0,3,,,,,,,,,2,,,64,49
43680,control_change,720,0,2,,,,,,,,,1,64,127,,
43680,note_on,0,0,2,,,,,,,,,1,,,70,62
43680,control_change,720,0,1,,,,,,,,,0,64,127,,
43680,note_on,0,0,3,,,,,,,,,2,,,58,49
43680,note_on,0,0,4,,,,,,,,,3,,,50,62
43680,note_on,0,0,3,,,,,,,,,2,,,55,0
43680,note_on,0,0,3,,,,,,,,,2,,,57,0
43680,note_on,240,0,3,,,,,,,,,2,,,64,0
43680,note_on,240,0,4,,,,,,,,,3,,,49,0
43680,note_on,0,0,3,,,,,,,,,2,,,55,49
43920,note_on,240,0,2,,,,,,,,,1,,,70,0
43920,note_on,0,0,1,,,,,,,,,0,,,85,62
43920,note_on,240,0,1,,,,,,,,,0,,,82,0
43920,note_on,0,0,2,,,,,,,,,1,,,73,62
43980,note_on,0,0,1,,,,,,,,,0,,,87,62
43980,note_on,60,0,1,,,,,,,,,0,,,85,0
43980,note_on,0,0,2,,,,,,,,,1,,,75,62
43980,note_on,60,0,2,,,,,,,,,1,,,73,0
44040,note_on,60,0,2,,,,,,,,,1,,,75,0
44040,note_on,0,0,1,,,,,,,,,0,,,88,62
44040,note_on,0,0,2,,,,,,,,,1,,,76,62
44040,note_on,60,0,1,,,,,,,,,0,,,87,0
44100,note_on,60,0,2,,,,,,,,,1,,,76,0
44100,note_on,60,0,1,,,,,,,,,0,,,88,0
44100,note_on,0,0,1,,,,,,,,,0,,,90,62
44100,note_on,0,0,2,,,,,,,,,1,,,78,62
44160,note_on,60,0,1,,,,,,,,,0,,,90,0
44160,control_change,0,0,1,,,,,,,,,0,64,0,,
44160,note_on,0,0,1,,,,,,,,,0,,,91,62
44160,note_on,0,0,2,,,,,,,,,1,,,79,62
44160,control_change,0,0,2,,,,,,,,,1,64,0,,
44160,note_on,60,0,2,,,,,,,,,1,,,78,0
44400,note_on,0,0,3,,,,,,,,,2,,,55,0
44400,note_on,0,0,3,,,,,,,,,2,,,64,49
44400,note_on,240,0,2,,,,,,,,,1,,,79,0
44400,note_on,240,0,1,,,,,,,,,0,,,91,0
44400,note_on,0,0,3,,,,,,,,,2,,,58,49
44400,control_change,0,0,4,,,,,,,,,3,64,127,,
44400,note_on,0,0,3,,,,,,,,,2,,,55,49
44400,control_change,0,0,3,,,,,,,,,2,64,127,,
44400,note_on,720,0,3,,,,,,,,,2,,,64,0
44400,note_on,0,0,3,,,,,,,,,2,,,58,0
44400,note_on,720,0,4,,,,,,,,,3,,,50,0
44400,note_on,0,0,4,,,,,,,,,3,,,50,62
44640,note_on,0,0,3,,,,,,,,,2,,,55,0
44640,note_on,0,0,4,,,,,,,,,3,,,50,62
44640,note_on,240,0,4,,,,,,,,,3,,,50,0
44640,note_on,240,0,3,,,,,,,,,2,,,64,0
44640,note_on,0,0,3,,,,,,,,,2,,,58,0
44640,note_on,0,0,3,,,,,,,,,2,,,55,49
44640,note_on,0,0,3,,,,,,,,,2,,,64,49
44640,note_on,0,0,3,,,,,,,,,2,,,58,49
44880,note_on,0,0,3,,,,,,,,,2,,,55,0
44880,note_on,0,0,3,,,,,,,,,2,,,58,0
44880,note_on,240,0,3,,,,,,,,,2,,,64,0
44880,note_on,0,0,3,,,,,,,,,2,,,64,49
44880,note_on,0,0,3,,,,,,,,,2,,,55,49
44880,note_on,0,0,3,,,,,,,,,2,,,58,49
44880,control_change,0,0,3,,,,,,,,,2,64,0,,
44880,note_on,0,0,4,,,,,,,,,3,,,50,62
44880,control_change,0,0,4,,,,,,,,,3,64,0,,
44880,note_on,240,0,4,,,,,,,,,3,,,50,0
45120,note_on,0,0,2,,,,,,,,,1,,,69,88
45120,control_change,720,0,2,,,,,,,,,1,64,127,,
45120,control_change,720,0,1,,,,,,,,,0,64,127,,
45120,note_on,0,0,4,,,,,,,,,3,,,49,88
45120,note_on,0,0,1,,,,,,,,,0,,,81,88
45120,note_on,240,0,4,,,,,,,,,3,,,50,0
45120,note_on,0,0,3,,,,,,,,,2,,,55,75
45120,note_on,0,0,3,,,,,,,,,2,,,57,75
45120,note_on,0,0,3,,,,,,,,,2,,,55,0
45120,note_on,240,0,3,,,,,,,,,2,,,64,0
45120,note_on,0,0,3,,,,,,,,,2,,,58,0
45120,time_signature,25920,1,0,10,8,12,8,,,,,,,,,
45120,note_on,0,0,3,,,,,,,,,2,,,64,75
45360,note_on,0,0,1,,,,,,,,,0,,,85,88
45360,note_on,240,0,2,,,,,,,,,1,,,69,0
45360,note_on,0,0,2,,,,,,,,,1,,,73,88
45360,note_on,240,0,1,,,,,,,,,0,,,81,0
45420,note_on,0,0,2,,,,,,,,,1,,,75,88
45420,note_on,60,0,2,,,,,,,,,1,,,73,0
45420,note_on,0,0,1,,,,,,,,,0,,,87,88
45420,note_on,60,0,1,,,,,,,,,0,,,85,0
45480,note_on,0,0,2,,,,,,,,,1,,,76,88
45480,note_on,60,0,2,,,,,,,,,1,,,75,0
45480,note_on,0,0,1,,,,,,,,,0,,,88,88
45480,note_on,60,0,1,,,,,,,,,0,,,87,0
45540,note_on,0,0,2,,,,,,,,,1,,,78,88
45540,note_on,60,0,1,,,,,,,,,0,,,88,0
45540,note_on,0,0,1,,,,,,,,,0,,,90,88
45540,note_on,60,0,2,,,,,,,,,1,,,76,0
45600,note_on,60,0,1,,,,,,,,,0,,,90,0
45600,set_tempo,480,1,0,,,,,,750000,,,,,,,
45600,control_change,0,0,2,,,,,,,,,1,64,0,,
45600,note_on,0,0,2,,,,,,,,,1,,,79,88
45600,note_on,0,0,1,,,,,,,,,0,,,91,88
45600,control_change,0,0,1,,,,,,,,,0,64,0,,
45600,note_on,60,0,2,,,,,,,,,1,,,78,0
45840,note_on,0,0,3,,,,,,,,,2,,,55,0
45840,note_on,720,0,4,,,,,,,,,3,,,49,0
45840,note_on,0,0,3,,,,,,,,,2,,,57,0
45840,note_on,720,0,3,,,,,,,,,2,,,64,0
46080,note_on,480,0,2,,,,,,,,,1,,,79,0
46080,note_on,480,0,1,,,,,,,,,0,,,91,0
46080,note_on,0,0,1,,,,,,,,,0,,,92,88
46080,note_on,0,0,2,,,,,,,,,1,,,80,88
46800,note_on,0,0,2,,,,,,,,,1,,,69,88
46800,note_on,720,0,1,,,,,,,,,0,,,92,0
46800,control_change,0,0,1,,,,,,,,,0,64,127,,
46800,note_on,0,0,1,,,,,,,,,0,,,81,88
46800,note_on,720,0,2,,,,,,,,,1,,,80,0
46800,control_change,0,0,2,,,,,,,,,1,64,127,,
46830,note_on,30,0,2,,,,,,,,,1,,,69,0
46830,note_on,0,0,1,,,,,,,,,0,,,85,88
46830,note_on,30,0,1,,,,,,,,,0,,,81,0
46830,note_on,0,0,2,,,,,,,,,1,,,73,88
46860,note_on,30,0,1,,,,,,,,,0,,,85,0
46860,note_on,30,0,2,,,,,,,,,1,,,73,0
46860,note_on,0,0,2,,,,,,,,,1,,,76,88
46860,note_on,0,0,1,,,,,,,,,0,,,88,88
46890,note_on,30,0,1,,,,,,,,,0,,,88,0
46890,note_on,0,0,1,,,,,,,,,0,,,91,88
46890,note_on,0,0,2,,,,,,,,,1,,,79,88
46890,note_on,30,0,2,,,,,,,,,1,,,76,0
46920,note_on,30,0,1,,,,,,,,,0,,,91,0
46920,note_on,30,0,2,,,,,,,,,1,,,79,0
46920,note_on,0,0,1,,,,,,,,,0,,,95,114
46920,note_on,0,0,2,,,,,,,,,1,,,83,114
47280,note_on,360,0,2,,,,,,,,,1,,,83,0
47280,note_on,0,0,1,,,,,,,,,0,,,93,88
47280,note_on,360,0,1,,,,,,,,,0,,,95,0
47280,note_on,0,0,2,,,,,,,,,1,,,81,88
47400,note_on,120,0,2,,,,,,,,,1,,,81,0
47400,note_on,120,0,1,,,,,,,,,0,,,93,0
47520,control_change,120,0,1,,,,,,,,,0,64,0,,
47520,set_tempo,0,1,0,,,,,,600000,,,,,,,
47520,note_on,0,0,2,,,,,,,,,1,,,78,88
47520,control_change,120,0,2,,,,,,,,,1,64,0,,
47520,note_on,1680,0,4,,,,,,,,,3,,,38,62
47520,time_signature,1920,1,0,3,4,24,8,,,,,,,,,
47520,note_on,0,0,4,,,,,,,,,3,,,50,62
47520,note_on,0,0,1,,,,,,,,,0,,,90,88
47760,note_on,240,0,4,,,,,,,,,3,,,50,0
47760,note_on,0,0,4,,,,,,,,,3,,,38,0
47880,note_on,0,0,3,,,,,,,,,2,,,62,49
47880,note_on,0,0,3,,,,,,,,,2,,,66,49
47880,note_on,2040,0,3,,,,,,,,,2,,,57,49
48000,note_on,120,0,3,,,,,,,,,2,,,66,0
48000,note_on,0,0,3,,,,,,,,,2,,,62,0
48000,note_on,0,0,3,,,,,,,,,2,,,57,0
48000,note_on,0,0,3,,,,,,,,,2,,,66,49
48000,note_on,0,0,3,,,,,,,,,2,,,57,49
48000,note_on,0,0,3,,,,,,,,,2,,,62,49
48240,note_on,0,0,3,,,,,,,,,2,,,62,0
48240,note_on,240,0,3,,,,,,,,,2,,,66,0
48240,note_on,0,0,3,,,,,,,,,2,,,57,0
48420,note_on,900,0,1,,,,,,,,,0,,,90,88
48420,note_on,900,0,2,,,,,,,,,1,,,78,88
48480,note_on,0,0,2,,,,,,,,,1,,,78,0
48480,control_change,0,0,2,,,,,,,,,1,64,127,,
48480,note_on,0,0,3,,,,,,,,,2,,,67,49
48480,note_on,0,0,2,,,,,,,,,1,,,76,88
48480,note_on,240,0,3,,,,,,,,,2,,,57,49
48480,note_on,0,0,3,,,,,,,,,2,,,61,49
48480,control_change,0,0,1,,,,,,,,,0,64,127,,
48480,note_on,0,0,1,,,,,,,,,0,,,88,88
48480,note_on,0,0,1,,,,,,,,,0,,,90,0
48480,note_on,60,0,1,,,,,,,,,0,,,90,0
48480,note_on,60,0,2,,,,,,,,,1,,,78,0
48600,note_on,120,0,2,,,,,,,,,1,,,76,0
48600,note_on,0,0,1,,,,,,,,,0,,,87,88
48600,note_on,120,0,1,,,,,,,,,0,,,88,0
48600,note_on,0,0,2,,,,,,,,,1,,,75,88
48720,note_on,120,0,2,,,,,,,,,1,,,75,0
48720,note_on,0,0,3,,,,,,,,,2,,,57,0
48720,note_on,0,0,3,,,,,,,,,2,,,61,0
48720,note_on,0,0,2,,,,,,,,,1,,,76,88
48720,note_on,240,0,3,,,,,,,,,2,,,67,0
48720,note_on,0,0,1,,,,,,,,,0,,,88,88
48720,note_on,120,0,1,,,,,,,,,0,,,87,0
48840,note_on,120,0,2,,,,,,,,,1,,,76,0
48840,note_on,0,0,1,,,,,,,,,0,,,90,88
48840,note_on,0,0,2,,,,,,,,,1,,,78,88
48840,note_on,120,0,1,,,,,,,,,0,,,88,0
48960,note_on,0,0,2,,,,,,,,,1,,,74,88
48960,control_change,0,0,2,,,,,,,,,1,64,0,,
48960,note_on,120,0,2,,,,,,,,,1,,,78,0
48960,note_on,120,0,1,,,,,,,,,0,,,90,0
48960,control_change,0,0,1,,,,,,,,,0,64,0,,
48960,note_on,0,0,1,,,,,,,,,0,,,86,88
48960,note_on,1200,0,4,,,,,,,,,3,,,38,62
48960,note_on,0,0,4,,,,,,,,,3,,,50,62
49200,note_on,0,0,4,,,,,,,,,3,,,38,0
49200,note_on,240,0,4,,,,,,,,,3,,,50,0
49320,note_on,0,0,3,,,,,,,,,2,,,66,49
49320,note_on,0,0,3,,,,,,,,,2,,,62,49
49320,note_on,600,0,3,,,,,,,,,2,,,57,49
49440,note_on,0,0,3,,,,,,,,,2,,,62,0
49440,note_on,0,0,3,,,,,,,,,2,,,66,49
49440,note_on,0,0,3,,,,,,,,,2,,,57,49
49440,note_on,0,0,3,,,,,,,,,2,,,57,0
49440,note_on,120,0,3,,,,,,,,,2,,,66,0
49440,note_on,0,0,3,,,,,,,,,2,,,62,49
49680,note_on,0,0,3,,,,,,,,,2,,,57,0
49680,note_on,240,0,3,,,,,,,,,2,,,66,0
49680,note_on,0,0,3,,,,,,,,,2,,,62,0
49800,note_on,840,0,1,,,,,,,,,0,,,88,88
49800,note_on,840,0,2,,,,,,,,,1,,,76,88
49860,note_on,0,0,2,,,,,,,,,1,,,74,88
49860,note_on,60,0,1,,,,,,,,,0,,,88,0
49860,note_on,0,0,1,,,,,,,,,0,,,86,88
49860,note_on,60,0,2,,,,,,,,,1,,,76,0
49920,note_on,0,0,1,,,,,,,,,0,,,85,88
49920,note_on,0,0,1,,,,,,,,,0,,,86,0
49920,note_on,240,0,3,,,,,,,,,2,,,57,49
49920,note_on,0,0,3,,,,,,,,,2,,,62,49
49920,note_on,60,0,1,,,,,,,,,0,,,86,0
49920,note_on,0,0,3,,,,,,,,,2,,,66,49
49920,control_change,0,0,1,,,,,,,,,0,64,127,,
49920,note_on,0,0,2,,,,,,,,,1,,,73,88
49920,control_change,0,0,2,,,,,,,,,1,64,127,,
49920,note_on,0,0,2,,,,,,,,,1,,,74,0
49920,note_on,60,0,2,,,,,,,,,1,,,74,0
50040,note_on,0,0,2,,,,,,,,,1,,,74,88
50040,note_on,120,0,2,,,,,,,,,1,,,73,0
50040,note_on,120,0,1,,,,,,,,,0,,,85,0
50040,note_on,0,0,1,,,,,,,,,0,,,86,88
50160,note_on,120,0,2,,,,,,,,,1,,,74,0
50160,note_on,0,0,3,,,,,,,,,2,,,62,0
50160,note_on,240,0,3,,,,,,,,,2,,,66,0
50160,note_on,120,0,1,,,,,,,,,0,,,86,0
50160,note_on,0,0,1,,,,,,,,,0,,,88,88
50160,note_on,0,0,2,,,,,,,,,1,,,76,88
50160,note_on,0,0,3,,,,,,,,,2,,,57,0
50280,control_change,0,0,1,,,,,,,,,0,64,0,,
50280,control_change,0,0,2,,,,,,,,,1,64,0,,
50280,note_on,120,0,2,,,,,,,,,1,,,76,0
50280,note_on,0,0,1,,,,,,,,,0,,,90,88
50280,note_on,120,0,1,,,,,,,,,0,,,88,0
50280,note_on,0,0,2,,,,,,,,,1,,,78,88
50400,note_on,120,0,2,,,,,,,,,1,,,78,0
50400,note_on,0,0,2,,,,,,,,,1,,,78,88
50400,note_on,120,0,1,,,,,,,,,0,,,90,0
50400,control_change,0,0,1,,,,,,,,,0,64,127,,
50400,note_on,0,0,1,,,,,,,,,0,,,90,88
50400,note_on,0,0,4,,,,,,,,,3,,,45,62
50400,note_on,1200,0,4,,,,,,,,,3,,,33,62
50400,control_change,0,0,2,,,,,,,,,1,64,127,,
50640,note_on,0,0,4,,,,,,,,,3,,,33,0
50640,note_on,240,0,4,,,,,,,,,3,,,45,0
50760,note_on,0,0,2,,,,,,,,,1,,,76,88
50760,note_on,360,0,2,,,,,,,,,1,,,78,0
50760,note_on,600,0,3,,,,,,,,,2,,,57,49
50760,note_on,0,0,1,,,,,,,,,0,,,88,88
50760,note_on,360,0,1,,,,,,,,,0,,,90,0
50760,note_on,0,0,3,,,,,,,,,2,,,61,49
50760,note_on,0,0,3,,,,,,,,,2,,,67,49
50880,note_on,0,0,3,,,,,,,,,2,,,57,49
50880,note_on,0,0,2,,,,,,,,,1,,,75,88
50880,note_on,0,0,3,,,,,,,,,2,,,67,49
50880,note_on,0,0,3,,,,,,,,,2,,,61,49
50880,note_on,120,0,3,,,,,,,,,2,,,67,0
50880,note_on,120,0,2,,,,,,,,,1,,,76,0
50880,note_on,0,0,3,,,,,,,,,2,,,61,0
50880,note_on,0,0,3,,,,,,,,,2,,,57,0
50880,note_on,120,0,1,,,,,,,,,0,,,88,0
50880,note_on,0,0,1,,,,,,,,,0,,,87,88
51120,note_on,0,0,3,,,,,,,,,2,,,61,0
51120,note_on,0,0,3,,,,,,,,,2,,,57,0
51120,note_on,240,0,3,,,,,,,,,2,,,67,0
51240,note_on,0,0,2,,,,,,,,,1,,,76,88
51240,note_on,360,0,1,,,,,,,,,0,,,87,0
51240,note_on,0,0,1,,,,,,,,,0,,,88,88
51240,note_on,360,0,2,,,,,,,,,1,,,75,0
51360,note_on,0,0,3,,,,,,,,,2,,,67,49
51360,note_on,0,0,1,,,,,,,,,0,,,95,88
51360,note_on,120,0,1,,,,,,,,,0,,,88,0
51360,note_on,120,0,2,,,,,,,,,1,,,76,0
51360,note_on,0,0,2,,,,,,,,,1,,,83,88
51360,note_on,240,0,3,,,,,,,,,2,,,57,49
51360,note_on,0,0,3,,,,,,,,,2,,,61,49
51600,note_on,0,0,3,,,,,,,,,2,,,57,0
51600,note_on,0,0,3,,,,,,,,,2,,,61,0
51600,note_on,240,0,3,,,,,,,,,2,,,67,0
51720,control_change,0,0,2,,,,,,,,,1,64,0,,
51720,note_on,0,0,2,,,,,,,,,1,,,81,88
51720,note_on,0,0,1,,,,,,,,,0,,,93,88
51720,control_change,0,0,1,,,,,,,,,0,64,0,,
51720,note_on,360,0,1,,,,,,,,,0,,,95,0
51720,note_on,360,0,2,,,,,,,,,1,,,83,0
51840,note_on,1200,0,4,,,,,,,,,3,,,38,62
51840,note_on,120,0,1,,,,,,,,,0,,,93,0
51840,note_on,0,0,1,,,,,,,,,0,,,89,88
51840,note_on,120,0,2,,,,,,,,,1,,,81,0
51840,note_on,0,0,2,,,,,,,,,1,,,77,88
51840,note_on,0,0,4,,,,,,,,,3,,,50,62
51840,time_signature,4320,1,0,7,8,12,8,,,,,,,,,
52080,note_on,0,0,4,,,,,,,,,3,,,38,0
52080,note_on,240,0,4,,,,,,,,,3,,,50,0
52200,note_on,0,0,3,,,,,,,,,2,,,66,49
52200,note_on,0,0,3,,,,,,,,,2,,,62,49
52200,note_on,600,0,3,,,,,,,,,2,,,57,49
52320,note_on,0,0,3,,,,,,,,,2,,,62,49
52320,note_on,0,0,3,,,,,,,,,2,,,57,49
52320,note_on,0,0,3,,,,,,,,,2,,,57,0
52320,note_on,0,0,3,,,,,,,,,2,,,62,0
52320,note_on,120,0,3,,,,,,,,,2,,,66,0
52320,note_on,0,0,1,,,,,,,,,0,,,90,88
52320,note_on,480,0,1,,,,,,,,,0,,,89,0
52320,note_on,0,0,2,,,,,,,,,1,,,78,88
52320,note_on,480,0,2,,,,,,,,,1,,,77,0
52320,note_on,0,0,3,,,,,,,,,2,,,66,49
52560,note_on,240,0,1,,,,,,,,,0,,,90,0
52560,note_on,240,0,2,,,,,,,,,1,,,78,0
52560,note_on,240,0,3,,,,,,,,,2,,,66,0
52560,note_on,0,0,3,,,,,,,,,2,,,62,0
52560,note_on,0,0,3,,,,,,,,,2,,,57,0
52560,control_change,0,0,3,,,,,,,,,2,64,127,,
52800,note_on,240,0,3,,,,,,,,,2,,,57,75
52880,note_on,80,0,3,,,,,,,,,2,,,57,0
52880,note_on,0,0,3,,,,,,,,,2,,,62,75
52959,note_on,0,0,3,,,,,,,,,2,,,66,75
52959,note_on,79,0,3,,,,,,,,,2,,,62,0
53040,note_on,0,0,3,,,,,,,,,2,,,71,101
53040,note_on,81,0,3,,,,,,,,,2,,,66,0
53400,note_on,360,0,3,,,,,,,,,2,,,71,0
53400,note_on,0,0,3,,,,,,,,,2,,,69,75
53520,time_signature,1680,1,0,3,4,24,8,,,,,,,,,
53520,note_on,0,0,3,,,,,,,,,2,,,66,75
53520,control_change,0,0,3,,,,,,,,,2,64,0,,
53520,note_on,120,0,3,,,,,,,,,2,,,69,0
53520,note_on,0,0,4,,,,,,,,,3,,,57,62
53520,note_on,1440,0,4,,,,,,,,,3,,,50,62
53880,note_on,0,0,2,,,,,,,,,1,,,69,62
53880,note_on,0,0,1,,,,,,,,,0,,,81,62
53880,control_change,1320,0,2,,,,,,,,,1,64,127,,
53880,control_change,1320,0,1,,,,,,,,,0,64,127,,
54000,note_on,0,0,1,,,,,,,,,0,,,86,62
54000,note_on,120,0,1,,,,,,,,,0,,,81,0
54000,note_on,480,0,4,,,,,,,,,3,,,57,0
54000,note_on,0,0,2,,,,,,,,,1,,,74,62
54000,note_on,0,0,4,,,,,,,,,3,,,50,0
54000,note_on,120,0,2,,,,,,,,,1,,,69,0
54360,note_on,360,0,1,,,,,,,,,0,,,86,0
54360,note_on,360,0,2,,,,,,,,,1,,,74,0
54360,note_on,0,0,2,,,,,,,,,1,,,78,62
54360,note_on,0,0,1,,,,,,,,,0,,,90,62
54420,note_on,900,0,3,,,,,,,,,2,,,66,75
54480,note_on,0,0,3,,,,,,,,,2,,,66,0
54480,control_change,0,0,3,,,,,,,,,2,64,127,,
54480,note_on,480,0,4,,,,,,,,,3,,,46,62
54480,note_on,0,0,1,,,,,,,,,0,,,91,88
54480,note_on,120,0,1,,,,,,,,,0,,,90,0
54480,note_on,0,0,3,,,,,,,,,2,,,64,75
54480,note_on,0,0,4,,,,,,,,,3,,,55,62
54480,note_on,120,0,2,,,,,,,,,1,,,78,0
54480,note_on,0,0,2,,,,,,,,,1,,,79,88
54480,note_on,60,0,3,,,,,,,,,2,,,66,0
54600,note_on,0,0,3,,,,,,,,,2,,,63,75
54600,note_on,120,0,3,,,,,,,,,2,,,64,0
54720,note_on,240,0,2,,,,,,,,,1,,,79,0
54720,note_on,0,0,2,,,,,,,,,1,,,73,62
54720,note_on,0,0,1,,,,,,,,,0,,,85,62
54720,control_change,0,0,1,,,,,,,,,0,64,0,,
54720,note_on,240,0,1,,,,,,,,,0,,,91,0
54720,note_on,120,0,3,,,,,,,,,2,,,63,0
54720,note_on,0,0,3,,,,,,,,,2,,,64,75
54720,control_change,0,0,2,,,,,,,,,1,64,0,,
54840,note_on,120,0,1,,,,,,,,,0,,,85,0
54840,note_on,0,0,3,,,,,,,,,2,,,66,75
54840,note_on,120,0,3,,,,,,,,,2,,,64,0
54840,note_on,120,0,2,,,,,,,,,1,,,73,0
54960,note_on,120,0,3,,,,,,,,,2,,,66,0
54960,control_change,0,0,3,,,,,,,,,2,64,0,,
54960,note_on,0,0,3,,,,,,,,,2,,,62,75
54960,note_on,480,0,4,,,,,,,,,3,,,55,0
54960,note_on,0,0,4,,,,,,,,,3,,,46,0
54960,note_on,0,0,4,,,,,,,,,3,,,54,62
54960,note_on,0,0,4,,,,,,,,,3,,,47,62
55320,control_change,480,0,1,,,,,,,,,0,64,127,,
55320,note_on,0,0,1,,,,,,,,,0,,,86,62
55320,note_on,0,0,2,,,,,,,,,1,,,74,62
55320,control_change,480,0,2,,,,,,,,,1,64,127,,
55440,note_on,120,0,1,,,,,,,,,0,,,86,0
55440,note_on,0,0,1,,,,,,,,,0,,,90,88
55440,note_on,0,0,2,,,,,,,,,1,,,78,88
55440,note_on,120,0,2,,,,,,,,,1,,,74,0
55440,note_on,0,0,4,,,,,,,,,3,,,47,0
55440,note_on,480,0,4,,,,,,,,,3,,,54,0
55800,note_on,840,0,3,,,,,,,,,2,,,64,75
55800,note_on,360,0,1,,,,,,,,,0,,,90,0
55800,note_on,0,0,1,,,,,,,,,0,,,86,62
55800,note_on,0,0,2,,,,,,,,,1,,,74,62
55800,note_on,360,0,2,,,,,,,,,1,,,78,0
55860,note_on,0,0,3,,,,,,,,,2,,,63,75
55860,note_on,60,0,3,,,,,,,,,2,,,64,0
55920,note_on,0,0,2,,,,,,,,,1,,,71,62
55920,control_change,0,0,1,,,,,,,,,0,64,0,,
55920,note_on,120,0,1,,,,,,,,,0,,,86,0
55920,note_on,0,0,4,,,,,,,,,3,,,55,62
55920,note_on,0,0,3,,,,,,,,,2,,,64,75
55920,control_change,0,0,3,,,,,,,,,2,64,127,,
55920,note_on,480,0,4,,,,,,,,,3,,,43,62
55920,note_on,60,0,3,,,,,,,,,2,,,63,0
55920,note_on,120,0,2,,,,,,,,,1,,,74,0
55920,control_change,0,0,2,,,,,,,,,1,64,0,,
55920,note_on,0,0,3,,,,,,,,,2,,,62,0
55920,note_on,0,0,1,,,,,,,,,0,,,83,62
56040,note_on,0,0,3,,,,,,,,,2,,,67,75
56040,note_on,120,0,3,,,,,,,,,2,,,64,0
56160,note_on,240,0,1,,,,,,,,,0,,,83,0
56160,note_on,120,0,3,,,,,,,,,2,,,67,0
56160,note_on,0,0,3,,,,,,,,,2,,,69,75
56160,note_on,240,0,2,,,,,,,,,1,,,71,0
56280,note_on,0,0,3,,,,,,,,,2,,,71,75
56280,note_on,120,0,3,,,,,,,,,2,,,69,0
56280,control_change,0,0,3,,,,,,,,,2,64,0,,
56400,note_on,0,0,4,,,,,,,,,3,,,43,0
56400,note_on,0,0,4,,,,,,,,,3,,,66,62
56400,note_on,0,0,4,,,,,,,,,3,,,57,62
56400,note_on,0,0,4,,,,,,,,,3,,,45,62
56400,note_on,480,0,4,,,,,,,,,3,,,55,0
56400,note_on,120,0,3,,,,,,,,,2,,,71,0
56400,control_change,0,0,3,,,,,,,,,2,64,127,,
56400,note_on,0,0,3,,,,,,,,,2,,,71,101
56400,note_on,0,0,4,,,,,,,,,3,,,62,62
56760,note_on,0,0,1,,,,,,,,,0,,,90,62
56760,control_change,600,0,1,,,,,,,,,0,64,127,,
56760,control_change,600,0,2,,,,,,,,,1,64,127,,
56760,note_on,0,0,2,,,,,,,,,1,,,78,62
56880,note_on,120,0,1,,,,,,,,,0,,,90,0
56880,note_on,0,0,1,,,,,,,,,0,,,98,88
56880,note_on,0,0,2,,,,,,,,,1,,,86,88
56880,note_on,120,0,2,,,,,,,,,1,,,78,0
57240,note_on,360,0,2,,,,,,,,,1,,,86,0
57240,note_on,0,0,3,,,,,,,,,2,,,69,75
57240,note_on,840,0,3,,,,,,,,,2,,,71,0
57240,note_on,360,0,1,,,,,,,,,0,,,98,0
57240,note_on,0,0,2,,,,,,,,,1,,,78,62
57240,note_on,0,0,1,,,,,,,,,0,,,90,62
57360,note_on,960,0,4,,,,,,,,,3,,,66,0
57360,note_on,0,0,3,,,,,,,,,2,,,71,75
57360,note_on,120,0,3,,,,,,,,,2,,,69,0
57360,note_on,0,0,4,,,,,,,,,3,,,64,62
57360,note_on,0,0,4,,,,,,,,,3,,,61,62
57360,note_on,0,0,2,,,,,,,,,1,,,80,62
57360,note_on,0,0,4,,,,,,,,,3,,,45,0
57360,note_on,120,0,2,,,,,,,,,1,,,78,0
57360,note_on,0,0,1,,,,,,,,,0,,,92,62
57360,note_on,120,0,1,,,,,,,,,0,,,90,0
57360,note_on,0,0,4,,,,,,,,,3,,,55,62
57360,note_on,0,0,4,,,,,,,,,3,,,45,62
57360,note_on,0,0,4,,,,,,,,,3,,,62,0
57360,note_on,0,0,4,,,,,,,,,3,,,57,0
57720,note_on,360,0,2,,,,,,,,,1,,,80,0
57720,note_on,0,0,2,,,,,,,,,1,,,81,62
57720,control_change,0,0,2,,,,,,,,,1,64,0,,
57720,note_on,360,0,3,,,,,,,,,2,,,71,0
57720,note_on,0,0,1,,,,,,,,,0,,,93,62
57720,control_change,0,0,3,,,,,,,,,2,64,0,,
57720,note_on,0,0,3,,,,,,,,,2,,,69,75
57720,note_on,360,0,1,,,,,,,,,0,,,92,0
57720,control_change,0,0,1,,,,,,,,,0,64,0,,
57840,note_on,0,0,4,,,,,,,,,3,,,50,62
57840,note_on,0,0,4,,,,,,,,,3,,,54,62
57840,note_on,480,0,4,,,,,,,,,3,,,64,0
57840,note_on,0,0,4,,,,,,,,,3,,,61,0
57840,note_on,0,0,4,,,,,,,,,3,,,55,0
57840,note_on,0,0,1,,,,,,,,,0,,,86,62
57840,note_on,0,0,3,,,,,,,,,2,,,62,75
57840,note_on,120,0,3,,,,,,,,,2,,,69,0
57840,note_on,120,0,2,,,,,,,,,1,,,81,0
57840,note_on,0,0,2,,,,,,,,,1,,,74,62
57840,note_on,120,0,1,,,,,,,,,0,,,93,0
57840,note_on,0,0,4,,,,,,,,,3,,,45,0
58320,note_on,480,0,3,,,,,,,,,2,,,62,0
58320,note_on,480,0,2,,,,,,,,,1,,,74,0
58320,note_on,480,0,4,,,,,,,,,3,,,54,0
58320,note_on,0,0,4,,,,,,,,,3,,,50,0
58320,note_on,0,0,4,,,,,,,,,3,,,38,62
58320,note_on,480,0,1,,,,,,,,,0,,,86,0
58800,note_on,480,0,4,,,,,,,,,3,,,38,0
59280,key_signature,0,1,0,,,,,F,,,,,,,,
59280,time_signature,5760,1,0,3,8,12,8,,,,,,,,,
59460,note_on,1140,0,1,,,,,,,,,0,,,88,101
59460,note_on,1140,0,2,,,,,,,,,1,,,76,101
59520,control_change,0,0,1,,,,,,,,,0,64,127,,
59520,note_on,60,0,2,,,,,,,,,1,,,76,0
59520,control_change,0,0,2,,,,,,,,,1,64,127,,
59520,note_on,0,0,2,,,,,,,,,1,,,74,101
59520,note_on,60,0,1,,,,,,,,,0,,,88,0
59520,note_on,0,0,1,,,,,,,,,0,,,86,101
59640,note_on,0,0,2,,,,,,,,,1,,,73,101
59640,note_on,120,0,1,,,,,,,,,0,,,86,0
59640,note_on,120,0,2,,,,,,,,,1,,,74,0
59640,note_on,0,0,1,,,,,,,,,0,,,85,101
59760,note_on,120,0,1,,,,,,,,,0,,,85,0
59760,note_on,0,0,1,,,,,,,,,0,,,86,101
59760,note_on,0,0,2,,,,,,,,,1,,,74,101
59760,note_on,120,0,2,,,,,,,,,1,,,73,0
59880,note_on,120,0,1,,,,,,,,,0,,,86,0
59880,control_change,0,0,1,,,,,,,,,0,64,0,,
59880,note_on,0,0,1,,,,,,,,,0,,,88,101
59880,note_on,0,0,2,,,,,,,,,1,,,76,101
59880,control_change,0,0,2,,,,,,,,,1,64,0,,
59880,note_on,120,0,2,,,,,,,,,1,,,74,0
59940,note_on,1620,0,3,,,,,,,,,2,,,52,88
59940,note_on,1140,0,4,,,,,,,,,3,,,40,88
60000,note_on,60,0,3,,,,,,,,,2,,,52,0
60000,note_on,60,0,4,,,,,,,,,3,,,40,0
60000,note_on,0,0,4,,,,,,,,,3,,,38,101
60000,note_on,0,0,3,,,,,,,,,2,,,50,88
60000,note_on,120,0,2,,,,,,,,,1,,,76,0
60000,note_on,0,0,2,,,,,,,,,1,,,69,101
60000,note_on,0,0,2,,,,,,,,,1,,,74,101
60000,note_on,0,0,2,,,,,,,,,1,,,77,101
60000,note_on,0,0,1,,,,,,,,,0,,,89,101
60000,note_on,0,0,1,,,,,,,,,0,,,86,101
60000,note_on,0,0,1,,,,,,,,,0,,,81,101
60000,note_on,120,0,1,,,,,,,,,0,,,88,0
60000,time_signature,720,1,0,3,4,24,8,,,,,,,,,
60120,note_on,0,0,3,,,,,,,,,2,,,49,88
60120,note_on,120,0,4,,,,,,,,,3,,,38,0
60120,note_on,0,0,4,,,,,,,,,3,,,37,101
60120,note_on,120,0,3,,,,,,,,,2,,,50,0
60240,note_on,0,0,4,,,,,,,,,3,,,38,101
60240,note_on,120,0,4,,,,,,,,,3,,,37,0
60240,note_on,120,0,3,,,,,,,,,2,,,49,0
60240,note_on,0,0,3,,,,,,,,,2,,,50,88
60360,note_on,0,0,4,,,,,,,,,3,,,40,101
60360,note_on,120,0,4,,,,,,,,,3,,,38,0
60360,note_on,120,0,3,,,,,,,,,2,,,50,0
60360,note_on,0,0,3,,,,,,,,,2,,,52,88
60420,note_on,60,0,4,,,,,,,,,3,,,43,101
60420,note_on,60,0,3,,,,,,,,,2,,,55,88
60480,note_on,0,0,4,,,,,,,,,3,,,40,0
60480,note_on,60,0,3,,,,,,,,,2,,,55,0
60480,note_on,0,0,3,,,,,,,,,2,,,53,88
60480,note_on,0,0,4,,,,,,,,,3,,,41,101
60480,note_on,60,0,4,,,,,,,,,3,,,43,0
60480,note_on,0,0,3,,,,,,,,,2,,,52,0
60600,note_on,0,0,3,,,,,,,,,2,,,52,88
60600,note_on,0,0,4,,,,,,,,,3,,,40,101
60600,note_on,120,0,4,,,,,,,,,3,,,41,0
60600,note_on,120,0,3,,,,,,,,,2,,,53,0
60720,note_on,120,0,4,,,,,,,,,3,,,40,0
60720,note_on,0,0,4,,,,,,,,,3,,,41,101
60720,note_on,0,0,3,,,,,,,,,2,,,53,88
60720,note_on,120,0,3,,,,,,,,,2,,,52,0
60840,note_on,0,0,3,,,,,,,,,2,,,55,88
60840,note_on,120,0,3,,,,,,,,,2,,,53,0
60840,note_on,120,0,4,,,,,,,,,3,,,41,0
60840,note_on,0,0,4,,,,,,,,,3,,,43,101
60900,note_on,60,0,3,,,,,,,,,2,,,58,88
60900,note_on,60,0,4,,,,,,,,,3,,,46,101
60960,note_on,0,0,3,,,,,,,,,2,,,57,88
60960,note_on,0,0,3,,,,,,,,,2,,,55,0
60960,note_on,60,0,3,,,,,,,,,2,,,58,0
60960,note_on,0,0,4,,,,,,,,,3,,,45,101
60960,note_on,0,0,4,,,,,,,,,3,,,43,0
60960,note_on,60,0,4,,,,,,,,,3,,,46,0
61080,note_on,120,0,3,,,,,,,,,2,,,57,0
61080,note_on,0,0,3,,,,,,,,,2,,,56,88
61080,note_on,120,0,4,,,,,,,,,3,,,45,0
61080,note_on,0,0,4,,,,,,,,,3,,,44,101
61200,note_on,120,0,4,,,,,,,,,3,,,44,0
61200,note_on,0,0,3,,,,,,,,,2,,,57,88
61200,note_on,120,0,3,,,,,,,,,2,,,56,0
61200,note_on,0,0,4,,,,,,,,,3,,,45,101
61320,note_on,0,0,3,,,,,,,,,2,,,61,88
61320,note_on,120,0,3,,,,,,,,,2,,,57,0
61320,note_on,0,0,4,,,,,,,,,3,,,49,101
61320,note_on,120,0,4,,,,,,,,,3,,,45,0
61380,note_on,60,0,3,,,,,,,,,2,,,64,88
61380,note_on,60,0,4,,,,,,,,,3,,,52,101
61440,note_on,60,0,3,,,,,,,,,2,,,64,0
61440,note_on,0,0,3,,,,,,,,,2,,,62,88
61440,note_on,0,0,3,,,,,,,,,2,,,61,0
61440,note_on,60,0,4,,,,,,,,,3,,,52,0
61440,note_on,0,0,4,,,,,,,,,3,,,50,101
61440,note_on,0,0,4,,,,,,,,,3,,,49,0
61560,note_on,120,0,4,,,,,,,,,3,,,50,0
61560,note_on,120,0,3,,,,,,,,,2,,,62,0
61560,note_on,0,0,3,,,,,,,,,2,,,61,88
61560,note_on,0,0,4,,,,,,,,,3,,,49,101
61680,note_on,0,0,3,,,,,,,,,2,,,62,88
61680,note_on,0,0,4,,,,,,,,,3,,,50,101
61680,note_on,120,0,4,,,,,,,,,3,,,49,0
61680,note_on,120,0,3,,,,,,,,,2,,,61,0
61800,note_on,0,0,3,,,,,,,,,2,,,64,88
61800,note_on,120,0,3,,,,,,,,,2,,,62,0
61800,note_on,0,0,4,,,,,,,,,3,,,52,101
61800,note_on,120,0,4,,,,,,,,,3,,,50,0
61920,note_on,120,0,3,,,,,,,,,2,,,64,0
61920,note_on,0,0,3,,,,,,,,,2,,,65,88
61920,note_on,0,0,4,,,,,,,,,3,,,53,101
61920,note_on,120,0,4,,,,,,,,,3,,,52,0
62160,note_on,0,0,2,,,,,,,,,1,,,81,62
62160,note_on,0,0,2,,,,,,,,,1,,,77,62
62160,control_change,0,0,2,,,,,,,,,1,64,127,,
62160,note_on,0,0,2,,,,,,,,,1,,,69,0
62160,note_on,0,0,2,,,,,,,,,1,,,74,0
62160,note_on,2160,0,1,,,,,,,,,0,,,89,0
62160,control_change,0,0,1,,,,,,,,,0,64,127,,
62160,note_on,0,0,1,,,,,,,,,0,,,86,0
62160,note_on,0,0,1,,,,,,,,,0,,,81,0
62160,note_on,0,0,1,,,,,,,,,0,,,89,62
62160,note_on,0,0,1,,,,,,,,,0,,,93,62
62160,note_on,2160,0,2,,,,,,,,,1,,,77,0
62400,note_on,240,0,2,,,,,,,,,1,,,81,0
62400,note_on,0,0,2,,,,,,,,,1,,,77,0
62400,note_on,0,0,2,,,,,,,,,1,,,74,62
62400,note_on,0,0,1,,,,,,,,,0,,,89,62
62400,note_on,0,0,2,,,,,,,,,1,,,77,62
62400,note_on,240,0,1,,,,,,,,,0,,,93,0
62400,note_on,0,0,1,,,,,,,,,0,,,89,0
62400,note_on,0,0,1,,,,,,,,,0,,,86,62
62640,note_on,0,0,2,,,,,,,,,1,,,69,62
62640,note_on,0,0,1,,,,,,,,,0,,,85,62
62640,note_on,0,0,1,,,,,,,,,0,,,81,62
62640,note_on,0,0,1,,,,,,,,,0,,,86,0
62640,note_on,240,0,1,,,,,,,,,0,,,89,0
62640,note_on,240,0,2,,,,,,,,,1,,,77,0
62640,note_on,0,0,2,,,,,,,,,1,,,74,0
62640,control_change,0,0,2,,,,,,,,,1,64,0,,
62640,note_on,0,0,1,,,,,,,,,0,,,88,62
62640,note_on,0,0,2,,,,,,,,,1,,,73,62
62640,note_on,0,0,2,,,,,,,,,1,,,76,62
62640,control_change,0,0,1,,,,,,,,,0,64,0,,
62880,control_change,0,0,1,,,,,,,,,0,64,127,,
62880,note_on,0,0,1,,,,,,,,,0,,,86,62
62880,note_on,0,0,1,,,,,,,,,0,,,82,62
62880,note_on,0,0,1,,,,,,,,,0,,,81,0
62880,note_on,0,0,1,,,,,,,,,0,,,85,0
62880,note_on,240,0,2,,,,,,,,,1,,,76,0
62880,note_on,0,0,2,,,,,,,,,1,,,73,0
62880,note_on,240,0,1,,,,,,,,,0,,,88,0
62880,control_change,0,0,2,,,,,,,,,1,64,127,,
62880,note_on,0,0,2,,,,,,,,,1,,,70,62
62880,note_on,0,0,2,,,,,,,,,1,,,74,62
62880,note_on,0,0,2,,,,,,,,,1,,,69,0
63120,note_on,0,0,3,,,,,,,,,2,,,58,49
63120,note_on,0,0,1,,,,,,,,,0,,,82,0
63120,note_on,1200,0,3,,,,,,,,,2,,,65,0
63120,note_on,1200,0,4,,,,,,,,,3,,,53,0
63120,note_on,0,0,4,,,,,,,,,3,,,46,62
63120,note_on,240,0,2,,,,,,,,,1,,,74,0
63120,note_on,0,0,2,,,,,,,,,1,,,70,0
63120,note_on,240,0,1,,,,,,,,,0,,,86,0
63240,note_on,120,0,4,,,,,,,,,3,,,46,0
63240,note_on,120,0,3,,,,,,,,,2,,,58,0
63360,note_on,120,0,4,,,,,,,,,3,,,46,62
63360,note_on,120,0,3,,,,,,,,,2,,,58,49
63360,note_on,240,0,2,,,,,,,,,1,,,74,62
63360,note_on,240,0,1,,,,,,,,,0,,,86,62
63360,note_on,0,0,1,,,,,,,,,0,,,91,62
63360,note_on,0,0,2,,,,,,,,,1,,,79,62
63600,note_on,240,0,3,,,,,,,,,2,,,58,0
63600,note_on,0,0,1,,,,,,,,,0,,,86,0
63600,note_on,0,0,2,,,,,,,,,1,,,74,0
63600,note_on,240,0,2,,,,,,,,,1,,,79,0
63600,note_on,240,0,4,,,,,,,,,3,,,46,0
63600,note_on,0,0,4,,,,,,,,,3,,,50,62
63600,note_on,0,0,3,,,,,,,,,2,,,62,49
63600,note_on,240,0,1,,,,,,,,,0,,,91,0
63720,note_on,120,0,3,,,,,,,,,2,,,62,0
63720,note_on,120,0,4,,,,,,,,,3,,,50,0
63840,control_change,240,0,1,,,,,,,,,0,64,0,,
63840,note_on,0,0,1,,,,,,,,,0,,,91,62
63840,note_on,0,0,1,,,,,,,,,0,,,94,62
63840,note_on,120,0,4,,,,,,,,,3,,,50,62
63840,control_change,240,0,2,,,,,,,,,1,64,0,,
63840,note_on,120,0,3,,,,,,,,,2,,,62,49
63840,note_on,0,0,2,,,,,,,,,1,,,79,62
63840,note_on,0,0,2,,,,,,,,,1,,,82,62
64080,note_on,240,0,3,,,,,,,,,2,,,62,0
64080,note_on,0,0,1,,,,,,,,,0,,,91,0
64080,note_on,240,0,1,,,,,,,,,0,,,94,0
64080,note_on,240,0,4,,,,,,,,,3,,,50,0
64080,note_on,0,0,2,,,,,,,,,1,,,79,0
64080,note_on,240,0,2,,,,,,,,,1,,,82,0
64080,note_on,0,0,4,,,,,,,,,3,,,43,62
64080,note_on,0,0,3,,,,,,,,,2,,,55,49
64200,note_on,120,0,4,,,,,,,,,3,,,43,0
64200,note_on,120,0,3,,,,,,,,,2,,,55,0
64320,control_change,240,0,2,,,,,,,,,1,64,127,,
64320,note_on,0,0,2,,,,,,,,,1,,,65,62
64320,note_on,0,0,2,,,,,,,,,1,,,67,62
64320,note_on,0,0,1,,,,,,,,,0,,,79,62
64320,control_change,240,0,1,,,,,,,,,0,64,127,,
64320,note_on,0,0,3,,,,,,,,,2,,,55,49
64320,control_change,120,0,3,,,,,,,,,2,64,127,,
64320,note_on,0,0,4,,,,,,,,,3,,,43,62
64320,control_change,120,0,4,,,,,,,,,3,64,127,,
64320,note_on,0,0,1,,,,,,,,,0,,,77,62
64440,note_on,0,0,3,,,,,,,,,2,,,57,49
64440,note_on,120,0,3,,,,,,,,,2,,,55,0
64440,note_on,120,0,4,,,,,,,,,3,,,43,0
64440,note_on,0,0,4,,,,,,,,,3,,,45,62
64560,note_on,0,0,4,,,,,,,,,3,,,46,62
64560,note_on,120,0,4,,,,,,,,,3,,,45,0
64560,note_on,120,0,3,,,,,,,,,2,,,57,0
64560,note_on,0,0,3,,,,,,,,,2,,,58,49
64680,note_on,120,0,3,,,,,,,,,2,,,58,0
64680,note_on,0,0,3,,,,,,,,,2,,,59,49
64680,note_on,0,0,2,,,,,,,,,1,,,68,75
64680,note_on,0,0,2,,,,,,,,,1,,,65,0
64680,note_on,360,0,2,,,,,,,,,1,,,67,0
64680,note_on,0,0,1,,,,,,,,,0,,,80,75
64680,note_on,0,0,1,,,,,,,,,0,,,77,0
64680,note_on,360,0,1,,,,,,,,,0,,,79,0
64680,note_on,0,0,4,,,,,,,,,3,,,47,62
64680,note_on,120,0,4,,,,,,,,,3,,,46,0
64800,note_on,120,0,4,,,,,,,,,3,,,47,0
64800,control_change,0,0,3,,,,,,,,,2,64,0,,
64800,note_on,0,0,3,,,,,,,,,2,,,60,75
64800,note_on,0,0,4,,,,,,,,,3,,,48,88
64800,control_change,0,0,4,,,,,,,,,3,64,0,,
64800,note_on,0,0,2,,,,,,,,,1,,,69,75
64800,note_on,120,0,2,,,,,,,,,1,,,68,0
64800,note_on,120,0,1,,,,,,,,,0,,,80,0
64800,note_on,0,0,1,,,,,,,,,0,,,81,75
64800,note_on,120,0,3,,,,,,,,,2,,,59,0
64920,note_on,0,0,1,,,,,,,,,0,,,82,88
64920,note_on,120,0,2,,,,,,,,,1,,,69,0
64920,note_on,0,0,2,,,,,,,,,1,,,70,88
64920,note_on,120,0,1,,,,,,,,,0,,,81,0
65040,note_on,0,0,2,,,,,,,,,1,,,71,88
65040,note_on,120,0,2,,,,,,,,,1,,,70,0
65040,note_on,120,0,1,,,,,,,,,0,,,82,0
65040,note_on,0,0,1,,,,,,,,,0,,,83,88
65160,control_change,0,0,2,,,,,,,,,1,64,0,,
65160,note_on,0,0,2,,,,,,,,,1,,,72,88
65160,note_on,120,0,1,,,,,,,,,0,,,83,0
65160,control_change,0,0,1,,,,,,,,,0,64,0,,
65160,note_on,120,0,2,,,,,,,,,1,,,71,0
65160,note_on,0,0,1,,,,,,,,,0,,,84,88
65280,note_on,0,0,1,,,,,,,,,0,,,79,75
65280,note_on,0,0,1,,,,,,,,,0,,,86,75
65280,note_on,120,0,1,,,,,,,,,0,,,84,0
65280,note_on,120,0,2,,,,,,,,,1,,,72,0
65280,note_on,0,0,2,,,,,,,,,1,,,64,75
65280,note_on,0,0,2,,,,,,,,,1,,,67,75
65280,note_on,0,0,2,,,,,,,,,1,,,74,75
65280,note_on,0,0,1,,,,,,,,,0,,,76,75
65640,note_on,360,0,1,,,,,,,,,0,,,86,0
65640,note_on,0,0,1,,,,,,,,,0,,,79,0
65640,note_on,0,0,1,,,,,,,,,0,,,76,0
65640,note_on,0,0,2,,,,,,,,,1,,,67,0
65640,note_on,0,0,2,,,,,,,,,1,,,64,0
65640,note_on,360,0,2,,,,,,,,,1,,,74,0
65640,note_on,0,0,1,,,,,,,,,0,,,84,75
65640,note_on,0,0,2,,,,,,,,,1,,,72,75
65760,note_on,960,0,3,,,,,,,,,2,,,60,0
65760,note_on,120,0,1,,,,,,,,,0,,,84,0
65760,note_on,120,0,2,,,,,,,,,1,,,72,0
65760,note_on,0,0,2,,,,,,,,,1,,,65,62
65760,note_on,0,0,1,,,,,,,,,0,,,77,62
65760,note_on,960,0,4,,,,,,,,,3,,,48,0
65760,note_on,0,0,4,,,,,,,,,3,,,41,62
65760,note_on,0,0,2,,,,,,,,,1,,,69,62
65760,note_on,0,0,1,,,,,,,,,0,,,81,62
65880,note_on,120,0,3,,,,,,,,,2,,,48,49
66000,note_on,240,0,4,,,,,,,,,3,,,41,0
66000,note_on,120,0,3,,,,,,,,,2,,,48,0
66000,note_on,0,0,3,,,,,,,,,2,,,57,49
66120,note_on,120,0,3,,,,,,,,,2,,,57,0
66120,note_on,0,0,3,,,,,,,,,2,,,48,49
66240,note_on,480,0,2,,,,,,,,,1,,,69,0
66240,note_on,0,0,2,,,,,,,,,1,,,65,0
66240,note_on,120,0,3,,,,,,,,,2,,,48,0
66240,note_on,480,0,1,,,,,,,,,0,,,81,0
66240,note_on,240,0,4,,,,,,,,,3,,,41,62
66240,note_on,0,0,1,,,,,,,,,0,,,77,0
66360,note_on,120,0,3,,,,,,,,,2,,,48,49
66480,control_change,240,0,2,,,,,,,,,1,64,127,,
66480,note_on,0,0,2,,,,,,,,,1,,,72,62
66480,note_on,240,0,4,,,,,,,,,3,,,41,0
66480,note_on,120,0,3,,,,,,,,,2,,,48,0
66480,note_on,0,0,3,,,,,,,,,2,,,57,49
66600,note_on,0,0,3,,,,,,,,,2,,,48,49
66600,note_on,120,0,3,,,,,,,,,2,,,57,0
66720,note_on,120,0,3,,,,,,,,,2,,,48,0
66720,note_on,240,0,2,,,,,,,,,1,,,72,0
66720,note_on,0,0,2,,,,,,,,,1,,,72,62
66720,note_on,240,0,4,,,,,,,,,3,,,41,62
66840,note_on,120,0,3,,,,,,,,,2,,,48,49
66960,note_on,120,0,3,,,,,,,,,2,,,48,0
66960,note_on,0,0,3,,,,,,,,,2,,,57,49
66960,note_on,240,0,2,,,,,,,,,1,,,72,0
66960,control_change,0,0,2,,,,,,,,,1,64,0,,
66960,note_on,0,0,2,,,,,,,,,1,,,72,62
66960,note_on,240,0,4,,,,,,,,,3,,,41,0
67080,note_on,120,0,3,,,,,,,,,2,,,57,0
67080,note_on,0,0,3,,,,,,,,,2,,,48,49
67200,note_on,120,0,3,,,,,,,,,2,,,48,0
67200,note_on,240,0,4,,,,,,,,,3,,,41,62
67200,note_on,240,0,2,,,,,,,,,1,,,72,0
67200,note_on,0,0,2,,,,,,,,,1,,,72,62
67320,note_on,120,0,3,,,,,,,,,2,,,52,49
67440,note_on,0,0,3,,,,,,,,,2,,,58,49
67440,note_on,120,0,3,,,,,,,,,2,,,52,0
67440,note_on,240,0,4,,,,,,,,,3,,,41,0
67440,note_on,240,0,2,,,,,,,,,1,,,72,0
67440,note_on,0,0,2,,,,,,,,,1,,,73,88
67560,note_on,0,0,3,,,,,,,,,2,,,52,49
67560,note_on,120,0,3,,,,,,,,,2,,,58,0
67680,note_on,120,0,3,,,,,,,,,2,,,52,0
67680,note_on,240,0,4,,,,,,,,,3,,,41,62
67800,note_on,120,0,3,,,,,,,,,2,,,52,49
67920,note_on,120,0,3,,,,,,,,,2,,,52,0
67920,note_on,0,0,2,,,,,,,,,1,,,64,62
67920,note_on,480,0,2,,,,,,,,,1,,,73,0
67920,control_change,0,0,2,,,,,,,,,1,64,127,,
67920,control_change,1680,0,1,,,,,,,,,0,64,127,,
67920,note_on,240,0,4,,,,,,,,,3,,,41,0
67920,note_on,0,0,3,,,,,,,,,2,,,58,49
67920,note_on,0,0,1,,,,,,,,,0,,,85,62
68040,note_on,0,0,2,,,,,,,,,1,,,67,62
68040,note_on,0,0,3,,,,,,,,,2,,,52,49
68040,note_on,120,0,3,,,,,,,,,2,,,58,0
68040,note_on,120,0,2,,,,,,,,,1,,,64,0
68160,note_on,240,0,1,,,,,,,,,0,,,85,0
68160,note_on,120,0,3,,,,,,,,,2,,,52,0
68160,note_on,0,0,1,,,,,,,,,0,,,85,62
68160,note_on,0,0,2,,,,,,,,,1,,,70,62
68160,note_on,120,0,2,,,,,,,,,1,,,67,0
68160,note_on,240,0,4,,,,,,,,,3,,,41,62
68280,note_on,120,0,2,,,,,,,,,1,,,70,0
68280,note_on,0,0,2,,,,,,,,,1,,,73,62
68280,note_on,120,0,3,,,,,,,,,2,,,52,49
68400,note_on,120,0,2,,,,,,,,,1,,,73,0
68400,note_on,0,0,2,,,,,,,,,1,,,76,62
68400,note_on,0,0,1,,,,,,,,,0,,,85,62
68400,control_change,0,0,1,,,,,,,,,0,64,0,,
68400,note_on,240,0,1,,,,,,,,,0,,,85,0
68400,note_on,0,0,3,,,,,,,,,2,,,58,49
68400,note_on,240,0,4,,,,,,,,,3,,,41,0
68400,note_on,120,0,3,,,,,,,,,2,,,52,0
68520,note_on,0,0,3,,,,,,,,,2,,,52,49
68520,note_on,120,0,3,,,,,,,,,2,,,58,0
68520,note_on,120,0,2,,,,,,,,,1,,,76,0
68520,note_on,0,0,2,,,,,,,,,1,,,79,62
68640,note_on,0,0,2,,,,,,,,,1,,,81,62
68640,control_change,0,0,2,,,,,,,,,1,64,0,,
68640,note_on,120,0,2,,,,,,,,,1,,,79,0
68640,note_on,240,0,1,,,,,,,,,0,,,85,0
68640,note_on,0,0,1,,,,,,,,,0,,,85,88
68640,note_on,240,0,4,,,,,,,,,3,,,41,62
68640,note_on,120,0,3,,,,,,,,,2,,,52,0
68760,note_on,120,0,3,,,,,,,,,2,,,53,49
68880,note_on,240,0,4,,,,,,,,,3,,,41,0
68880,note_on,0,0,3,,,,,,,,,2,,,57,49
68880,note_on,120,0,3,,,,,,,,,2,,,53,0
68880,note_on,0,0,1,,,,,,,,,0,,,84,62
68880,note_on,240,0,1,,,,,,,,,0,,,85,0
69000,note_on,120,0,3,,,,,,,,,2,,,57,0
69000,note_on,0,0,3,,,,,,,,,2,,,48,49
69120,note_on,240,0,4,,,,,,,,,3,,,41,62
69120,note_on,120,0,3,,,,,,,,,2,,,48,0
69240,note_on,120,0,3,,,,,,,,,2,,,48,49
69360,note_on,120,0,3,,,,,,,,,2,,,48,0
69360,note_on,0,0,3,,,,,,,,,2,,,57,49
69360,note_on,240,0,4,,,,,,,,,3,,,41,0
69360,note_on,720,0,2,,,,,,,,,1,,,81,0
69360,control_change,0,0,2,,,,,,,,,1,64,127,,
69360,note_on,0,0,1,,,,,,,,,0,,,96,62
69360,control_change,0,0,1,,,,,,,,,0,64,127,,
69360,note_on,480,0,1,,,,,,,,,0,,,84,0
69360,note_on,0,0,2,,,,,,,,,1,,,72,62
69480,note_on,0,0,3,,,,,,,,,2,,,48,49
69480,note_on,0,0,1,,,,,,,,,0,,,93,62
69480,note_on,120,0,1,,,,,,,,,0,,,96,0
69480,note_on,120,0,3,,,,,,,,,2,,,57,0
69600,note_on,0,0,2,,,,,,,,,1,,,72,62
69600,note_on,240,0,4,,,,,,,,,3,,,41,62
69600,note_on,240,0,2,,,,,,,,,1,,,72,0
69600,note_on,0,0,1,,,,,,,,,0,,,89,62
69600,note_on,120,0,3,,,,,,,,,2,,,48,0
69600,note_on,120,0,1,,,,,,,,,0,,,93,0
69720,note_on,120,0,3,,,,,,,,,2,,,48,49
69720,note_on,0,0,1,,,,,,,,,0,,,84,62
69720,note_on,120,0,1,,,,,,,,,0,,,89,0
69840,control_change,0,0,2,,,,,,,,,1,64,0,,
69840,note_on,0,0,3,,,,,,,,,2,,,57,49
69840,note_on,240,0,4,,,,,,,,,3,,,41,0
69840,note_on,120,0,3,,,,,,,,,2,,,48,0
69840,note_on,120,0,1,,,,,,,,,0,,,84,0
69840,note_on,0,0,1,,,,,,,,,0,,,81,62
69840,note_on,240,0,2,,,,,,,,,1,,,72,0
69840,note_on,0,0,2,,,,,,,,,1,,,72,62
69960,note_on,120,0,3,,,,,,,,,2,,,57,0
69960,note_on,0,0,3,,,,,,,,,2,,,48,49
69960,note_on,0,0,1,,,,,,,,,0,,,77,62
69960,control_change,0,0,1,,,,,,,,,0,64,0,,
69960,note_on,120,0,1,,,,,,,,,0,,,81,0
70080,note_on,0,0,1,,,,,,,,,0,,,76,62
70080,note_on,240,0,4,,,,,,,,,3,,,41,62
70080,note_on,120,0,3,,,,,,,,,2,,,48,0
70080,note_on,120,0,1,,,,,,,,,0,,,77,0
70080,note_on,240,0,2,,,,,,,,,1,,,72,0
70080,note_on,0,0,2,,,,,,,,,1,,,72,62
70200,note_on,120,0,3,,,,,,,,,2,,,52,49
70320,note_on,240,0,4,,,,,,,,,3,,,41,0
70320,note_on,120,0,3,,,,,,,,,2,,,52,0
70320,note_on,240,0,2,,,,,,,,,1,,,72,0
70320,note_on,0,0,2,,,,,,,,,1,,,73,88
70320,note_on,0,0,3,,,,,,,,,2,,,58,49
70440,note_on,0,0,3,,,,,,,,,2,,,52,49
70440,note_on,120,0,3,,,,,,,,,2,,,58,0
70560,note_on,240,0,4,,,,,,,,,3,,,41,62
70560,note_on,480,0,1,,,,,,,,,0,,,76,0
70560,note_on,120,0,3,,,,,,,,,2,,,52,0
70680,note_on,120,0,3,,,,,,,,,2,,,52,49
70800,note_on,480,0,2,,,,,,,,,1,,,73,0
70800,note_on,0,0,2,,,,,,,,,1,,,64,62
70800,note_on,240,0,4,,,,,,,,,3,,,41,0
70800,control_change,240,0,1,,,,,,,,,0,64,127,,
70800,note_on,0,0,1,,,,,,,,,0,,,85,62
70800,control_change,0,0,2,,,,,,,,,1,64,127,,
70800,note_on,0,0,3,,,,,,,,,2,,,58,49
70800,note_on,120,0,3,,,,,,,,,2,,,52,0
70920,note_on,0,0,3,,,,,,,,,2,,,52,49
70920,note_on,120,0,3,,,,,,,,,2,,,58,0
70920,note_on,0,0,2,,,,,,,,,1,,,67,62
70920,note_on,120,0,2,,,,,,,,,1,,,64,0
71040,note_on,0,0,2,,,,,,,,,1,,,70,62
71040,note_on,0,0,1,,,,,,,,,0,,,85,62
71040,note_on,120,0,2,,,,,,,,,1,,,67,0
71040,note_on,240,0,4,,,,,,,,,3,,,41,62
71040,note_on,120,0,3,,,,,,,,,2,,,52,0
71040,note_on,240,0,1,,,,,,,,,0,,,85,0
71160,note_on,0,0,2,,,,,,,,,1,,,73,62
71160,note_on,120,0,2,,,,,,,,,1,,,70,0
71160,note_on,120,0,3,,,,,,,,,2,,,52,49
71280,note_on,0,0,2,,,,,,,,,1,,,76,62
71280,note_on,240,0,4,,,,,,,,,3,,,41,0
71280,note_on,120,0,2,,,,,,,,,1,,,73,0
71280,note_on,120,0,3,,,,,,,,,2,,,52,0
71280,note_on,0,0,1,,,,,,,,,0,,,85,62
71280,control_change,0,0,1,,,,,,,,,0,64,0,,
71280,note_on,240,0,1,,,,,,,,,0,,,85,0
71280,note_on,0,0,3,,,,,,,,,2,,,58,49
71400,note_on,120,0,3,,,,,,,,,2,,,58,0
71400,note_on,120,0,2,,,,,,,,,1,,,76,0
71400,note_on,0,0,2,,,,,,,,,1,,,79,62
71400,note_on,0,0,3,,,,,,,,,2,,,52,49
71520,note_on,240,0,4,,,,,,,,,3,,,41,62
71520,note_on,0,0,2,,,,,,,,,1,,,81,62
71520,control_change,0,0,2,,,,,,,,,1,64,0,,
71520,note_on,120,0,2,,,,,,,,,1,,,79,0
71520,note_on,240,0,1,,,,,,,,,0,,,85,0
71520,note_on,0,0,1,,,,,,,,,0,,,85,88
71520,note_on,120,0,3,,,,,,,,,2,,,52,0
71640,note_on,120,0,3,,,,,,,,,2,,,53,49
71760,note_on,240,0,4,,,,,,,,,3,,,41,0
71760,note_on,240,0,1,,,,,,,,,0,,,85,0
71760,note_on,0,0,1,,,,,,,,,0,,,84,62
71760,note_on,120,0,3,,,,,,,,,2,,,53,0
71760,note_on,0,0,3,,,,,,,,,2,,,57,49
71880,note_on,120,0,3,,,,,,,,,2,,,57,0
71880,note_on,0,0,3,,,,,,,,,2,,,48,49
72000,note_on,240,0,4,,,,,,,,,3,,,41,62
72000,note_on,120,0,3,,,,,,,,,2,,,48,0
72120,note_on,120,0,3,,,,,,,,,2,,,48,49
72240,note_on,120,0,3,,,,,,,,,2,,,48,0
72240,note_on,0,0,3,,,,,,,,,2,,,57,49
72240,control_change,0,0,2,,,,,,,,,1,64,127,,
72240,note_on,720,0,2,,,,,,,,,1,,,81,0
72240,note_on,0,0,1,,,,,,,,,0,,,96,62
72240,control_change,0,0,1,,,,,,,,,0,64,127,,
72240,note_on,480,0,1,,,,,,,,,0,,,84,0
72240,note_on,0,0,2,,,,,,,,,1,,,72,62
72240,note_on,240,0,4,,,,,,,,,3,,,41,0
72360,note_on,0,0,1,,,,,,,,,0,,,93,62
72360,note_on,120,0,1,,,,,,,,,0,,,96,0
72360,note_on,0,0,3,,,,,,,,,2,,,48,49
72360,note_on,120,0,3,,,,,,,,,2,,,57,0
72480,note_on,240,0,2,,,,,,,,,1,,,72,0
72480,note_on,0,0,2,,,,,,,,,1,,,72,62
72480,note_on,0,0,1,,,,,,,,,0,,,89,62
72480,note_on,120,0,1,,,,,,,,,0,,,93,0
72480,note_on,240,0,4,,,,,,,,,3,,,41,62
72480,note_on,120,0,3,,,,,,,,,2,,,48,0
72600,note_on,120,0,3,,,,,,,,,2,,,48,49
72600,note_on,0,0,1,,,,,,,,,0,,,84,62
72600,note_on,120,0,1,,,,,,,,,0,,,89,0
72720,note_on,120,0,3,,,,,,,,,2,,,48,0
72720,note_on,0,0,3,,,,,,,,,2,,,53,49
72720,note_on,240,0,4,,,,,,,,,3,,,41,0
72720,note_on,0,0,1,,,,,,,,,0,,,81,62
72720,note_on,120,0,1,,,,,,,,,0,,,84,0
72720,note_on,240,0,2,,,,,,,,,1,,,72,0
72720,control_change,0,0,2,,,,,,,,,1,64,0,,
72720,note_on,0,0,2,,,,,,,,,1,,,72,62
72840,note_on,120,0,3,,,,,,,,,2,,,53,0
72840,note_on,0,0,1,,,,,,,,,0,,,77,62
72840,control_change,0,0,1,,,,,,,,,0,64,0,,
72840,note_on,120,0,1,,,,,,,,,0,,,81,0
72840,note_on,0,0,3,,,,,,,,,2,,,57,49
72960,note_on,120,0,1,,,,,,,,,0,,,77,0
72960,note_on,0,0,1,,,,,,,,,0,,,76,62
72960,note_on,0,0,2,,,,,,,,,1,,,73,62
72960,note_on,240,0,2,,,,,,,,,1,,,72,0
72960,note_on,240,0,4,,,,,,,,,3,,,33,62
72960,note_on,120,0,3,,,,,,,,,2,,,57,0
73080,note_on,120,0,3,,,,,,,,,2,,,45,49
73200,note_on,240,0,1,,,,,,,,,0,,,76,0
73200,note_on,120,0,3,,,,,,,,,2,,,45,0
73200,note_on,0,0,1,,,,,,,,,0,,,81,62
73200,note_on,0,0,3,,,,,,,,,2,,,49,49
73320,note_on,120,0,3,,,,,,,,,2,,,49,0
73320,note_on,0,0,3,,,,,,,,,2,,,52,49
73440,note_on,120,0,3,,,,,,,,,2,,,52,0
73440,note_on,0,0,3,,,,,,,,,2,,,57,75
73680,control_change,0,0,1,,,,,,,,,0,64,127,,
73680,note_on,480,0,1,,,,,,,,,0,,,81,0
73680,note_on,0,0,2,,,,,,,,,1,,,73,62
73680,note_on,0,0,1,,,,,,,,,0,,,81,62
73680,control_change,0,0,2,,,,,,,,,1,64,127,,
73680,note_on,720,0,2,,,,,,,,,1,,,73,0
73680,note_on,0,0,2,,,,,,,,,1,,,76,62
73920,note_on,0,0,1,,,,,,,,,0,,,81,75
73920,note_on,0,0,2,,,,,,,,,1,,,73,0
73920,note_on,240,0,1,,,,,,,,,0,,,81,0
73920,note_on,0,0,2,,,,,,,,,1,,,76,62
73920,note_on,0,0,2,,,,,,,,,1,,,73,62
73920,note_on,240,0,2,,,,,,,,,1,,,76,0
74160,note_on,0,0,2,,,,,,,,,1,,,73,62
74160,note_on,0,0,2,,,,,,,,,1,,,73,0
74160,note_on,240,0,2,,,,,,,,,1,,,76,0
74160,note_on,0,0,1,,,,,,,,,0,,,81,75
74160,note_on,240,0,1,,,,,,,,,0,,,81,0
74160,control_change,0,0,1,,,,,,,,,0,64,0,,
74160,note_on,0,0,2,,,,,,,,,1,,,76,62
74160,control_change,0,0,2,,,,,,,,,1,64,0,,
74400,note_on,960,0,3,,,,,,,,,2,,,57,0
74400,note_on,0,0,2,,,,,,,,,1,,,74,62
74400,note_on,0,0,4,,,,,,,,,3,,,33,62
74400,note_on,1440,0,4,,,,,,,,,3,,,33,0
74400,note_on,240,0,2,,,,,,,,,1,,,76,0
74400,note_on,240,0,1,,,,,,,,,0,,,81,0
74400,note_on,0,0,2,,,,,,,,,1,,,73,0
74400,note_on,0,0,2,,,,,,,,,1,,,77,62
74400,note_on,0,0,1,,,,,,,,,0,,,81,75
74520,note_on,0,0,3,,,,,,,,,2,,,45,49
74520,control_change,120,0,3,,,,,,,,,2,64,127,,
74640,note_on,0,0,3,,,,,,,,,2,,,50,49
74640,note_on,0,0,1,,,,,,,,,0,,,82,62
74640,note_on,240,0,1,,,,,,,,,0,,,81,0
74640,note_on,120,0,3,,,,,,,,,2,,,45,0
74760,note_on,120,0,3,,,,,,,,,2,,,50,0
74760,note_on,0,0,3,,,,,,,,,2,,,53,49
74880,note_on,120,0,3,,,,,,,,,2,,,53,0
74880,note_on,0,0,3,,,,,,,,,2,,,57,75
74880,control_change,0,0,3,,,,,,,,,2,64,0,,
75120,control_change,0,0,1,,,,,,,,,0,64,127,,
75120,note_on,720,0,2,,,,,,,,,1,,,77,0
75120,note_on,0,0,2,,,,,,,,,1,,,74,0
75120,note_on,0,0,2,,,,,,,,,1,,,77,62
75120,note_on,0,0,2,,,,,,,,,1,,,74,62
75120,note_on,0,0,1,,,,,,,,,0,,,82,62
75120,note_on,480,0,1,,,,,,,,,0,,,82,0
75120,control_change,0,0,2,,,,,,,,,1,64,127,,
75360,note_on,240,0,2,,,,,,,,,1,,,77,0
75360,note_on,0,0,2,,,,,,,,,1,,,74,0
75360,note_on,0,0,2,,,,,,,,,1,,,74,62
75360,note_on,0,0,1,,,,,,,,,0,,,82,75
75360,note_on,240,0,1,,,,,,,,,0,,,82,0
75360,note_on,0,0,2,,,,,,,,,1,,,77,62
75600,note_on,0,0,1,,,,,,,,,0,,,82,75
75600,control_change,0,0,1,,,,,,,,,0,64,0,,
75600,note_on,0,0,2,,,,,,,,,1,,,77,62
75600,note_on,0,0,2,,,,,,,,,1,,,74,62
75600,control_change,0,0,2,,,,,,,,,1,64,0,,
75600,note_on,0,0,2,,,,,,,,,1,,,74,0
75600,note_on,240,0,2,,,,,,,,,1,,,77,0
75600,note_on,240,0,1,,,,,,,,,0,,,82,0
75840,note_on,0,0,4,,,,,,,,,3,,,33,62
75840,note_on,1440,0,4,,,,,,,,,3,,,33,0
75840,note_on,0,0,2,,,,,,,,,1,,,76,62
75840,note_on,0,0,2,,,,,,,,,1,,,79,62
75840,note_on,240,0,2,,,,,,,,,1,,,77,0
75840,note_on,0,0,2,,,,,,,,,1,,,74,0
75840,note_on,240,0,1,,,,,,,,,0,,,82,0
75840,note_on,960,0,3,,,,,,,,,2,,,57,0
75840,note_on,0,0,1,,,,,,,,,0,,,86,75
75960,control_change,120,0,3,,,,,,,,,2,64,127,,
75960,note_on,0,0,3,,,,,,,,,2,,,45,49
76080,note_on,120,0,3,,,,,,,,,2,,,45,0
76080,note_on,0,0,3,,,,,,,,,2,,,52,49
76080,note_on,240,0,1,,,,,,,,,0,,,86,0
76080,note_on,0,0,1,,,,,,,,,0,,,85,62
76200,note_on,120,0,3,,,,,,,,,2,,,52,0
76200,note_on,0,0,3,,,,,,,,,2,,,55,49
76320,note_on,0,0,3,,,,,,,,,2,,,58,75
76320,note_on,120,0,3,,,,,,,,,2,,,55,0
76560,control_change,0,0,1,,,,,,,,,0,64,127,,
76560,note_on,0,0,1,,,,,,,,,0,,,91,62
76560,note_on,480,0,1,,,,,,,,,0,,,85,0
76560,note_on,0,0,2,,,,,,,,,1,,,76,0
76560,note_on,720,0,2,,,,,,,,,1,,,79,0
76560,note_on,0,0,2,,,,,,,,,1,,,79,62
76560,note_on,0,0,3,,,,,,,,,2,,,57,49
76560,control_change,0,0,3,,,,,,,,,2,64,0,,
76560,note_on,240,0,3,,,,,,,,,2,,,58,0
76560,control_change,0,0,2,,,,,,,,,1,64,127,,
76800,note_on,240,0,2,,,,,,,,,1,,,79,0
76800,note_on,0,0,2,,,,,,,,,1,,,79,62
76800,note_on,240,0,1,,,,,,,,,0,,,91,0
76800,note_on,0,0,1,,,,,,,,,0,,,91,62
77040,note_on,0,0,1,,,,,,,,,0,,,91,62
77040,control_change,0,0,1,,,,,,,,,0,64,0,,
77040,note_on,0,0,2,,,,,,,,,1,,,79,62
77040,control_change,0,0,2,,,,,,,,,1,64,0,,
77040,note_on,240,0,2,,,,,,,,,1,,,79,0
77040,note_on,240,0,1,,,,,,,,,0,,,91,0
77220,note_on,180,0,2,,,,,,,,,1,,,79,88
77220,note_on,180,0,1,,,,,,,,,0,,,91,88
77280,note_on,720,0,3,,,,,,,,,2,,,57,0
77280,note_on,0,0,3,,,,,,,,,2,,,52,75
77280,note_on,0,0,3,,,,,,,,,2,,,61,75
77280,note_on,0,0,3,,,,,,,,,2,,,55,75
77280,note_on,0,0,4,,,,,,,,,3,,,45,88
77280,note_on,0,0,2,,,,,,,,,1,,,82,114
77280,control_change,0,0,2,,,,,,,,,1,64,127,,
77280,note_on,60,0,2,,,,,,,,,1,,,79,0
77280,note_on,0,0,1,,,,,,,,,0,,,94,114
77280,control_change,0,0,1,,,,,,,,,0,64,127,,
77280,note_on,60,0,1,,,,,,,,,0,,,91,0
77280,note_on,1440,0,4,,,,,,,,,3,,,33,0
77280,note_on,0,0,4,,,,,,,,,3,,,33,88
77520,note_on,240,0,4,,,,,,,,,3,,,45,0
77520,note_on,240,0,3,,,,,,,,,2,,,61,0
77520,note_on,0,0,4,,,,,,,,,3,,,33,0
77520,note_on,0,0,3,,,,,,,,,2,,,55,0
77520,note_on,0,0,3,,,,,,,,,2,,,52,0
77760,note_on,480,0,1,,,,,,,,,0,,,91,0
77760,note_on,480,0,2,,,,,,,,,1,,,79,0
77880,note_on,120,0,2,,,,,,,,,1,,,82,0
77880,note_on,0,0,2,,,,,,,,,1,,,79,88
77880,note_on,0,0,1,,,,,,,,,0,,,91,88
77880,note_on,120,0,1,,,,,,,,,0,,,94,0
78000,note_on,0,0,1,,,,,,,,,0,,,88,88
78000,note_on,120,0,1,,,,,,,,,0,,,91,0
78000,note_on,120,0,2,,,,,,,,,1,,,79,0
78000,note_on,0,0,2,,,,,,,,,1,,,76,88
78120,control_change,0,0,1,,,,,,,,,0,64,0,,
78120,note_on,120,0,1,,,,,,,,,0,,,88,0
78120,note_on,0,0,2,,,,,,,,,1,,,73,88
78120,note_on,0,0,1,,,,,,,,,0,,,85,88
78120,control_change,0,0,2,,,,,,,,,1,64,0,,
78120,note_on,120,0,2,,,,,,,,,1,,,76,0
78180,note_on,60,0,1,,,,,,,,,0,,,88,88
78180,note_on,60,0,2,,,,,,,,,1,,,76,88
78240,note_on,60,0,2,,,,,,,,,1,,,76,0
78240,control_change,0,0,2,,,,,,,,,1,64,127,,
78240,note_on,0,0,2,,,,,,,,,1,,,74,101
78240,note_on,0,0,2,,,,,,,,,1,,,73,0
78240,control_change,0,0,1,,,,,,,,,0,64,127,,
78240,note_on,0,0,1,,,,,,,,,0,,,86,101
78240,note_on,0,0,1,,,,,,,,,0,,,85,0
78240,note_on,60,0,1,,,,,,,,,0,,,88,0
78360,note_on,0,0,1,,,,,,,,,0,,,85,101
78360,note_on,0,0,2,,,,,,,,,1,,,73,101
78360,note_on,120,0,2,,,,,,,,,1,,,74,0
78360,note_on,120,0,1,,,,,,,,,0,,,86,0
78480,note_on,0,0,1,,,,,,,,,0,,,86,101
78480,note_on,120,0,2,,,,,,,,,1,,,73,0
78480,note_on,0,0,2,,,,,,,,,1,,,74,101
78480,note_on,120,0,1,,,,,,,,,0,,,85,0
78600,note_on,120,0,1,,,,,,,,,0,,,86,0
78600,control_change,0,0,1,,,,,,,,,0,64,0,,
78600,note_on,0,0,1,,,,,,,,,0,,,88,101
78600,note_on,0,0,2,,,,,,,,,1,,,76,101
78600,note_on,120,0,2,,,,,,,,,1,,,74,0
78600,control_change,0,0,2,,,,,,,,,1,64,0,,
78660,note_on,1140,0,3,,,,,,,,,2,,,52,88
78660,note_on,1140,0,4,,,,,,,,,3,,,40,88
78720,note_on,0,0,4,,,,,,,,,3,,,38,101
78720,note_on,60,0,4,,,,,,,,,3,,,40,0
78720,note_on,120,0,1,,,,,,,,,0,,,88,0
78720,note_on,0,0,1,,,,,,,,,0,,,81,101
78720,note_on,60,0,3,,,,,,,,,2,,,52,0
78720,note_on,0,0,1,,,,,,,,,0,,,86,101
78720,note_on,0,0,2,,,,,,,,,1,,,69,101
78720,note_on,0,0,2,,,,,,,,,1,,,77,101
78720,note_on,0,0,1,,,,,,,,,0,,,89,101
78720,note_on,0,0,3,,,,,,,,,2,,,50,88
78720,note_on,120,0,2,,,,,,,,,1,,,76,0
78720,note_on,0,0,2,,,,,,,,,1,,,74,101
78840,note_on,0,0,3,,,,,,,,,2,,,49,88
78840,note_on,120,0,3,,,,,,,,,2,,,50,0
78840,note_on,120,0,4,,,,,,,,,3,,,38,0
78840,note_on,0,0,4,,,,,,,,,3,,,37,101
78960,note_on,0,0,3,,,,,,,,,2,,,50,88
78960,note_on,120,0,3,,,,,,,,,2,,,49,0
78960,note_on,120,0,4,,,,,,,,,3,,,37,0
78960,note_on,0,0,4,,,,,,,,,3,,,38,101
79080,note_on,0,0,4,,,,,,,,,3,,,40,101
79080,note_on,120,0,4,,,,,,,,,3,,,38,0
79080,note_on,120,0,3,,,,,,,,,2,,,50,0
79080,note_on,0,0,3,,,,,,,,,2,,,52,88
79140,note_on,60,0,4,,,,,,,,,3,,,43,101
79140,note_on,60,0,3,,,,,,,,,2,,,55,88
79200,note_on,0,0,3,,,,,,,,,2,,,53,88
79200,note_on,0,0,3,,,,,,,,,2,,,52,0
79200,note_on,0,0,4,,,,,,,,,3,,,41,101
79200,note_on,0,0,4,,,,,,,,,3,,,40,0
79200,note_on,60,0,4,,,,,,,,,3,,,43,0
79200,note_on,60,0,3,,,,,,,,,2,,,55,0
79320,note_on,0,0,3,,,,,,,,,2,,,52,88
79320,note_on,120,0,3,,,,,,,,,2,,,53,0
79320,note_on,0,0,4,,,,,,,,,3,,,40,101
79320,note_on,120,0,4,,,,,,,,,3,,,41,0
79440,note_on,120,0,4,,,,,,,,,3,,,40,0
79440,note_on,120,0,3,,,,,,,,,2,,,52,0
79440,note_on,0,0,3,,,,,,,,,2,,,53,88
79440,note_on,0,0,4,,,,,,,,,3,,,41,101
79560,note_on,0,0,4,,,,,,,,,3,,,43,101
79560,note_on,120,0,4,,,,,,,,,3,,,41,0
79560,note_on,120,0,3,,,,,,,,,2,,,53,0
79560,note_on,0,0,3,,,,,,,,,2,,,55,88
79620,note_on,60,0,4,,,,,,,,,3,,,46,101
79620,note_on,60,0,3,,,,,,,,,2,,,58,88
79680,note_on,0,0,3,,,,,,,,,2,,,55,0
79680,note_on,0,0,3,,,,,,,,,2,,,57,88
79680,note_on,60,0,3,,,,,,,,,2,,,58,0
79680,note_on,0,0,4,,,,,,,,,3,,,45,101
79680,note_on,0,0,4,,,,,,,,,3,,,43,0
79680,note_on,60,0,4,,,,,,,,,3,,,46,0
79800,note_on,120,0,3,,,,,,,,,2,,,57,0
79800,note_on,0,0,4,,,,,,,,,3,,,44,101
79800,note_on,120,0,4,,,,,,,,,3,,,45,0
79800,note_on,0,0,3,,,,,,,,,2,,,56,88
79920,note_on,0,0,3,,,,,,,,,2,,,57,88
79920,note_on,0,0,4,,,,,,,,,3,,,45,101
79920,note_on,120,0,4,,,,,,,,,3,,,44,0
79920,note_on,120,0,3,,,,,,,,,2,,,56,0
80040,note_on,0,0,3,,,,,,,,,2,,,61,88
80040,note_on,120,0,4,,,,,,,,,3,,,45,0
80040,note_on,120,0,3,,,,,,,,,2,,,57,0
80040,note_on,0,0,4,,,,,,,,,3,,,49,101
80100,note_on,60,0,4,,,,,,,,,3,,,52,101
80100,note_on,60,0,3,,,,,,,,,2,,,64,88
80160,note_on,0,0,4,,,,,,,,,3,,,50,101
80160,note_on,60,0,4,,,,,,,,,3,,,52,0
80160,note_on,0,0,4,,,,,,,,,3,,,49,0
80160,note_on,60,0,3,,,,,,,,,2,,,64,0
80160,note_on,0,0,3,,,,,,,,,2,,,61,0
80160,note_on,0,0,3,,,,,,,,,2,,,62,88
80280,note_on,120,0,3,,,,,,,,,2,,,62,0
80280,note_on,0,0,3,,,,,,,,,2,,,61,88
80280,note_on,0,0,4,,,,,,,,,3,,,49,101
80280,note_on,120,0,4,,,,,,,,,3,,,50,0
80400,note_on,0,0,3,,,,,,,,,2,,,62,88
80400,note_on,120,0,4,,,,,,,,,3,,,49,0
80400,note_on,120,0,3,,,,,,,,,2,,,61,0
80400,note_on,0,0,4,,,,,,,,,3,,,50,101
80520,note_on,0,0,4,,,,,,,,,3,,,52,101
80520,note_on,120,0,3,,,,,,,,,2,,,62,0
80520,note_on,0,0,3,,,,,,,,,2,,,64,88
80520,note_on,120,0,4,,,,,,,,,3,,,50,0
80640,note_on,0,0,3,,,,,,,,,2,,,65,114
80640,note_on,120,0,4,,,,,,,,,3,,,52,0
80640,note_on,120,0,3,,,,,,,,,2,,,64,0
80640,note_on,0,0,4,,,,,,,,,3,,,53,127
80880,note_on,0,0,2,,,,,,,,,1,,,69,0
80880,note_on,0,0,2,,,,,,,,,1,,,74,0
80880,control_change,0,0,2,,,,,,,,,1,64,127,,
80880,note_on,2160,0,2,,,,,,,,,1,,,77,0
80880,note_on,0,0,2,,,,,,,,,1,,,77,62
80880,note_on,2160,0,1,,,,,,,,,0,,,89,0
80880,note_on,0,0,2,,,,,,,,,1,,,81,62
80880,note_on,0,0,1,,,,,,,,,0,,,81,0
80880,note_on,0,0,1,,,,,,,,,0,,,89,62
80880,note_on,0,0,1,,,,,,,,,0,,,93,62
80880,control_change,0,0,1,,,,,,,,,0,64,127,,
80880,note_on,0,0,1,,,,,,,,,0,,,86,0
81120,note_on,240,0,1,,,,,,,,,0,,,93,0
81120,note_on,0,0,1,,,,,,,,,0,,,89,0
81120,note_on,0,0,1,,,,,,,,,0,,,86,62
81120,note_on,0,0,2,,,,,,,,,1,,,77,62
81120,note_on,0,0,2,,,,,,,,,1,,,74,62
81120,note_on,0,0,2,,,,,,,,,1,,,77,0
81120,note_on,0,0,1,,,,,,,,,0,,,89,62
81120,note_on,240,0,2,,,,,,,,,1,,,81,0
81360,note_on,0,0,2,,,,,,,,,1,,,69,62
81360,control_change,0,0,2,,,,,,,,,1,64,0,,
81360,note_on,0,0,2,,,,,,,,,1,,,73,62
81360,note_on,0,0,2,,,,,,,,,1,,,76,62
81360,note_on,240,0,1,,,,,,,,,0,,,89,0
81360,note_on,0,0,1,,,,,,,,,0,,,86,0
81360,note_on,0,0,1,,,,,,,,,0,,,81,62
81360,note_on,0,0,2,,,,,,,,,1,,,74,0
81360,note_on,0,0,1,,,,,,,,,0,,,85,62
81360,control_change,0,0,1,,,,,,,,,0,64,0,,
81360,note_on,0,0,1,,,,,,,,,0,,,88,62
81360,note_on,240,0,2,,,,,,,,,1,,,77,0
81600,note_on,0,0,2,,,,,,,,,1,,,73,0
81600,note_on,0,0,2,,,,,,,,,1,,,69,0
81600,note_on,240,0,2,,,,,,,,,1,,,76,0
81600,control_change,0,0,2,,,,,,,,,1,64,127,,
81600,note_on,0,0,2,,,,,,,,,1,,,70,62
81600,note_on,0,0,2,,,,,,,,,1,,,74,62
81600,note_on,0,0,1,,,,,,,,,0,,,82,62
81600,note_on,240,0,1,,,,,,,,,0,,,88,0
81600,note_on,0,0,1,,,,,,,,,0,,,85,0
81600,note_on,0,0,1,,,,,,,,,0,,,81,0
81600,note_on,0,0,1,,,,,,,,,0,,,86,62
81600,control_change,0,0,1,,,,,,,,,0,64,127,,
81840,note_on,0,0,2,,,,,,,,,1,,,70,0
81840,note_on,1200,0,4,,,,,,,,,3,,,53,0
81840,note_on,0,0,4,,,,,,,,,3,,,46,62
81840,note_on,0,0,3,,,,,,,,,2,,,58,49
81840,note_on,1200,0,3,,,,,,,,,2,,,65,0
81840,note_on,240,0,1,,,,,,,,,0,,,86,0
81840,note_on,0,0,1,,,,,,,,,0,,,82,0
81840,note_on,240,0,2,,,,,,,,,1,,,74,0
81960,note_on,120,0,3,,,,,,,,,2,,,58,0
81960,note_on,120,0,4,,,,,,,,,3,,,46,0
82080,note_on,240,0,1,,,,,,,,,0,,,86,62
82080,note_on,240,0,2,,,,,,,,,1,,,74,62
82080,note_on,0,0,2,,,,,,,,,1,,,79,62
82080,note_on,0,0,1,,,,,,,,,0,,,91,62
82080,note_on,120,0,3,,,,,,,,,2,,,58,49
82080,note_on,120,0,4,,,,,,,,,3,,,46,62
82320,note_on,240,0,1,,,,,,,,,0,,,91,0
82320,note_on,0,0,1,,,,,,,,,0,,,86,0
82320,note_on,0,0,3,,,,,,,,,2,,,62,49
82320,note_on,0,0,4,,,,,,,,,3,,,50,62
82320,note_on,240,0,4,,,,,,,,,3,,,46,0
82320,note_on,240,0,3,,,,,,,,,2,,,58,0
82320,note_on,0,0,2,,,,,,,,,1,,,74,0
82320,note_on,240,0,2,,,,,,,,,1,,,79,0
82440,note_on,120,0,3,,,,,,,,,2,,,62,0
82440,note_on,120,0,4,,,,,,,,,3,,,50,0
82560,note_on,0,0,1,,,,,,,,,0,,,94,62
82560,note_on,120,0,4,,,,,,,,,3,,,50,62
82560,control_change,240,0,1,,,,,,,,,0,64,0,,
82560,control_change,240,0,2,,,,,,,,,1,64,0,,
82560,note_on,0,0,1,,,,,,,,,0,,,91,62
82560,note_on,120,0,3,,,,,,,,,2,,,62,49
82560,note_on,0,0,2,,,,,,,,,1,,,79,75
82560,note_on,0,0,2,,,,,,,,,1,,,82,75
82800,note_on,240,0,4,,,,,,,,,3,,,50,0
82800,note_on,0,0,4,,,,,,,,,3,,,43,62
82800,note_on,0,0,2,,,,,,,,,1,,,79,0
82800,note_on,240,0,1,,,,,,,,,0,,,94,0
82800,note_on,0,0,1,,,,,,,,,0,,,91,0
82800,note_on,0,0,3,,,,,,,,,2,,,55,49
82800,note_on,240,0,2,,,,,,,,,1,,,82,0
82800,note_on,240,0,3,,,,,,,,,2,,,62,0
82920,note_on,120,0,4,,,,,,,,,3,,,43,0
82920,note_on,120,0,3,,,,,,,,,2,,,55,0
82980,note_on,60,0,4,,,,,,,,,3,,,33,101
82980,note_on,60,0,3,,,,,,,,,2,,,45,88
83040,note_on,0,0,1,,,,,,,,,0,,,79,101
83040,note_on,0,0,1,,,,,,,,,0,,,82,101
83040,note_on,240,0,1,,,,,,,,,0,,,74,101
83040,note_on,0,0,2,,,,,,,,,1,,,67,101
83040,note_on,0,0,4,,,,,,,,,3,,,31,101
83040,note_on,0,0,2,,,,,,,,,1,,,70,101
83040,note_on,0,0,3,,,,,,,,,2,,,43,88
83040,note_on,60,0,3,,,,,,,,,2,,,45,0
83040,note_on,240,0,2,,,,,,,,,1,,,62,101
83040,note_on,60,0,4,,,,,,,,,3,,,33,0
83160,note_on,0,0,3,,,,,,,,,2,,,42,88
83160,note_on,0,0,4,,,,,,,,,3,,,30,101
83160,note_on,120,0,3,,,,,,,,,2,,,43,0
83160,note_on,120,0,4,,,,,,,,,3,,,31,0
83280,note_on,0,0,3,,,,,,,,,2,,,43,88
83280,note_on,120,0,3,,,,,,,,,2,,,42,0
83280,note_on,120,0,4,,,,,,,,,3,,,30,0
83280,note_on,0,0,4,,,,,,,,,3,,,31,101
83400,note_on,0,0,3,,,,,,,,,2,,,45,88
83400,note_on,120,0,3,,,,,,,,,2,,,43,0
83400,note_on,0,0,4,,,,,,,,,3,,,33,101
83400,note_on,120,0,4,,,,,,,,,3,,,31,0
83460,note_on,60,0,3,,,,,,,,,2,,,48,88
83460,note_on,60,0,4,,,,,,,,,3,,,36,101
83520,note_on,0,0,4,,,,,,,,,3,,,34,101
83520,note_on,0,0,4,,,,,,,,,3,,,33,0
83520,note_on,60,0,4,,,,,,,,,3,,,36,0
83520,note_on,0,0,3,,,,,,,,,2,,,46,88
83520,note_on,0,0,3,,,,,,,,,2,,,45,0
83520,note_on,60,0,3,,,,,,,,,2,,,48,0
83640,note_on,0,0,3,,,,,,,,,2,,,45,88
83640,note_on,120,0,3,,,,,,,,,2,,,46,0
83640,note_on,120,0,4,,,,,,,,,3,,,34,0
83640,note_on,0,0,4,,,,,,,,,3,,,33,101
83760,note_on,120,0,4,,,,,,,,,3,,,33,0
83760,note_on,0,0,4,,,,,,,,,3,,,34,101
83760,note_on,0,0,3,,,,,,,,,2,,,46,88
83760,note_on,120,0,3,,,,,,,,,2,,,45,0
83880,note_on,120,0,4,,,,,,,,,3,,,34,0
83880,note_on,0,0,4,,,,,,,,,3,,,36,101
83880,note_on,0,0,3,,,,,,,,,2,,,48,88
83880,note_on,120,0,3,,,,,,,,,2,,,46,0
83940,note_on,60,0,4,,,,,,,,,3,,,40,101
83940,note_on,60,0,3,,,,,,,,,2,,,52,88
84000,note_on,60,0,3,,,,,,,,,2,,,52,0
84000,note_on,0,0,3,,,,,,,,,2,,,48,0
84000,note_on,0,0,3,,,,,,,,,2,,,50,88
84000,note_on,0,0,4,,,,,,,,,3,,,38,101
84000,note_on,0,0,4,,,,,,,,,3,,,36,0
84000,note_on,60,0,4,,,,,,,,,3,,,40,0
84120,note_on,120,0,3,,,,,,,,,2,,,50,0
84120,note_on,0,0,3,,,,,,,,,2,,,49,88
84120,note_on,0,0,4,,,,,,,,,3,,,37,101
84120,note_on,120,0,4,,,,,,,,,3,,,38,0
84240,note_on,120,0,3,,,,,,,,,2,,,49,0
84240,note_on,0,0,3,,,,,,,,,2,,,50,88
84240,note_on,0,0,4,,,,,,,,,3,,,38,101
84240,note_on,120,0,4,,,,,,,,,3,,,37,0
84360,note_on,120,0,3,,,,,,,,,2,,,50,0
84360,note_on,0,0,3,,,,,,,,,2,,,54,88
84360,note_on,120,0,4,,,,,,,,,3,,,38,0
84360,note_on,0,0,4,,,,,,,,,3,,,42,101
84420,note_on,60,0,4,,,,,,,,,3,,,45,101
84420,note_on,60,0,3,,,,,,,,,2,,,57,88
84480,note_on,0,0,4,,,,,,,,,3,,,42,0
84480,note_on,60,0,4,,,,,,,,,3,,,45,0
84480,note_on,60,0,3,,,,,,,,,2,,,57,0
84480,note_on,0,0,3,,,,,,,,,2,,,55,88
84480,note_on,0,0,3,,,,,,,,,2,,,54,0
84480,note_on,0,0,4,,,,,,,,,3,,,43,101
84600,note_on,120,0,3,,,,,,,,,2,,,55,0
84600,note_on,0,0,3,,,,,,,,,2,,,54,88
84600,note_on,120,0,4,,,,,,,,,3,,,43,0
84600,note_on,0,0,4,,,,,,,,,3,,,42,101
84720,note_on,120,0,3,,,,,,,,,2,,,54,0
84720,note_on,120,0,4,,,,,,,,,3,,,42,0
84720,note_on,0,0,4,,,,,,,,,3,,,43,101
84720,note_on,0,0,3,,,,,,,,,2,,,55,88
84840,note_on,120,0,4,,,,,,,,,3,,,43,0
84840,note_on,0,0,4,,,,,,,,,3,,,45,101
84840,note_on,120,0,3,,,,,,,,,2,,,55,0
84840,note_on,0,0,3,,,,,,,,,2,,,57,88
84960,note_on,120,0,4,,,,,,,,,3,,,45,0
84960,note_on,0,0,4,,,,,,,,,3,,,46,127
84960,note_on,120,0,3,,,,,,,,,2,,,57,0
84960,note_on,0,0,3,,,,,,,,,2,,,58,114
85200,note_on,2160,0,1,,,,,,,,,0,,,82,0
85200,note_on,0,0,2,,,,,,,,,1,,,67,0
85200,note_on,0,0,2,,,,,,,,,1,,,62,0
85200,control_change,0,0,2,,,,,,,,,1,64,127,,
85200,note_on,0,0,2,,,,,,,,,1,,,74,62
85200,note_on,2160,0,2,,,,,,,,,1,,,70,0
85200,note_on,0,0,2,,,,,,,,,1,,,70,62
85200,note_on,0,0,1,,,,,,,,,0,,,79,0
85200,control_change,0,0,1,,,,,,,,,0,64,127,,
85200,note_on,0,0,1,,,,,,,,,0,,,86,62
85200,note_on,0,0,1,,,,,,,,,0,,,82,62
85200,note_on,0,0,1,,,,,,,,,0,,,74,0
85440,note_on,0,0,2,,,,,,,,,1,,,67,62
85440,note_on,0,0,1,,,,,,,,,0,,,82,62
85440,note_on,0,0,1,,,,,,,,,0,,,79,62
85440,note_on,0,0,2,,,,,,,,,1,,,70,0
85440,note_on,240,0,2,,,,,,,,,1,,,74,0
85440,note_on,0,0,1,,,,,,,,,0,,,82,0
85440,note_on,240,0,1,,,,,,,,,0,,,86,0
85440,note_on,0,0,2,,,,,,,,,1,,,70,62
85680,note_on,0,0,1,,,,,,,,,0,,,79,0
85680,note_on,0,0,1,,,,,,,,,0,,,78,62
85680,note_on,240,0,1,,,,,,,,,0,,,82,0
85680,control_change,0,0,1,,,,,,,,,0,64,0,,
85680,note_on,0,0,1,,,,,,,,,0,,,74,62
85680,note_on,0,0,1,,,,,,,,,0,,,81,62
85680,control_change,0,0,2,,,,,,,,,1,64,0,,
85680,note_on,0,0,2,,,,,,,,,1,,,67,0
85680,note_on,0,0,2,,,,,,,,,1,,,69,62
85680,note_on,240,0,2,,,,,,,,,1,,,70,0
85680,note_on,0,0,2,,,,,,,,,1,,,66,62
85680,note_on,0,0,2,,,,,,,,,1,,,62,62
85920,note_on,240,0,2,,,,,,,,,1,,,69,0
85920,note_on,0,0,2,,,,,,,,,1,,,67,62
85920,note_on,0,0,2,,,,,,,,,1,,,63,62
85920,control_change,0,0,2,,,,,,,,,1,64,127,,
85920,note_on,0,0,1,,,,,,,,,0,,,78,0
85920,note_on,0,0,1,,,,,,,,,0,,,75,62
85920,note_on,0,0,1,,,,,,,,,0,,,79,62
85920,control_change,0,0,1,,,,,,,,,0,64,127,,
85920,note_on,240,0,1,,,,,,,,,0,,,81,0
85920,note_on,0,0,2,,,,,,,,,1,,,62,0
85920,note_on,0,0,2,,,,,,,,,1,,,66,0
85920,note_on,0,0,1,,,,,,,,,0,,,74,0
86160,note_on,240,0,2,,,,,,,,,1,,,67,0
86160,note_on,1200,0,4,,,,,,,,,3,,,46,0
86160,note_on,0,0,4,,,,,,,,,3,,,39,62
86160,note_on,0,0,2,,,,,,,,,1,,,63,0
86160,note_on,240,0,1,,,,,,,,,0,,,79,0
86160,note_on,0,0,1,,,,,,,,,0,,,75,0
86160,note_on,0,0,3,,,,,,,,,2,,,51,49
86160,note_on,1200,0,3,,,,,,,,,2,,,58,0
86280,note_on,120,0,4,,,,,,,,,3,,,39,0
86280,note_on,120,0,3,,,,,,,,,2,,,51,0
86400,note_on,120,0,3,,,,,,,,,2,,,51,49
86400,note_on,240,0,1,,,,,,,,,0,,,79,62
86400,note_on,0,0,1,,,,,,,,,0,,,84,62
86400,note_on,240,0,2,,,,,,,,,1,,,67,62
86400,note_on,0,0,2,,,,,,,,,1,,,72,62
86400,note_on,120,0,4,,,,,,,,,3,,,39,62
86640,note_on,240,0,2,,,,,,,,,1,,,72,0
86640,note_on,0,0,1,,,,,,,,,0,,,79,0
86640,note_on,240,0,1,,,,,,,,,0,,,84,0
86640,note_on,0,0,2,,,,,,,,,1,,,67,0
86640,note_on,240,0,4,,,,,,,,,3,,,39,0
86640,note_on,0,0,4,,,,,,,,,3,,,43,62
86640,note_on,240,0,3,,,,,,,,,2,,,51,0
86640,note_on,0,0,3,,,,,,,,,2,,,55,49
86760,note_on,120,0,4,,,,,,,,,3,,,43,0
86760,note_on,120,0,3,,,,,,,,,2,,,55,0
86880,note_on,120,0,4,,,,,,,,,3,,,43,62
86880,note_on,0,0,1,,,,,,,,,0,,,84,62
86880,control_change,240,0,1,,,,,,,,,0,64,0,,
86880,control_change,240,0,2,,,,,,,,,1,64,0,,
86880,note_on,0,0,2,,,,,,,,,1,,,72,62
86880,note_on,120,0,3,,,,,,,,,2,,,55,49
86880,note_on,0,0,2,,,,,,,,,1,,,75,62
86880,note_on,0,0,1,,,,,,,,,0,,,87,62
87120,note_on,0,0,1,,,,,,,,,0,,,84,0
87120,note_on,240,0,2,,,,,,,,,1,,,75,0
87120,note_on,0,0,3,,,,,,,,,2,,,48,49
87120,note_on,240,0,1,,,,,,,,,0,,,87,0
87120,note_on,240,0,3,,,,,,,,,2,,,55,0
87120,note_on,0,0,2,,,,,,,,,1,,,72,0
87120,note_on,240,0,4,,,,,,,,,3,,,43,0
87120,note_on,0,0,4,,,,,,,,,3,,,36,62
87240,note_on,120,0,4,,,,,,,,,3,,,36,0
87240,note_on,120,0,3,,,,,,,,,2,,,48,0
87360,control_change,240,0,2,,,,,,,,,1,64,127,,
87360,note_on,120,0,4,,,,,,,,,3,,,36,62
87360,note_on,120,0,3,,,,,,,,,2,,,48,49
87360,note_on,0,0,1,,,,,,,,,0,,,84,62
87360,note_on,0,0,1,,,,,,,,,0,,,82,62
87360,control_change,240,0,1,,,,,,,,,0,64,127,,
87360,note_on,0,0,2,,,,,,,,,1,,,70,62
87360,note_on,0,0,2,,,,,,,,,1,,,72,62
87480,note_on,120,0,3,,,,,,,,,2,,,48,0
87480,note_on,0,0,4,,,,,,,,,3,,,38,62
87480,note_on,0,0,3,,,,,,,,,2,,,50,49
87480,note_on,120,0,4,,,,,,,,,3,,,36,0
87600,note_on,120,0,4,,,,,,,,,3,,,38,0
87600,note_on,0,0,4,,,,,,,,,3,,,39,62
87600,note_on,120,0,3,,,,,,,,,2,,,50,0
87600,note_on,0,0,3,,,,,,,,,2,,,51,49
87720,note_on,0,0,2,,,,,,,,,1,,,73,75
87720,note_on,120,0,4,,,,,,,,,3,,,39,0
87720,note_on,0,0,4,,,,,,,,,3,,,40,62
87720,note_on,360,0,1,,,,,,,,,0,,,84,0
87720,note_on,0,0,1,,,,,,,,,0,,,82,0
87720,note_on,0,0,1,,,,,,,,,0,,,85,75
87720,note_on,0,0,2,,,,,,,,,1,,,70,0
87720,note_on,360,0,2,,,,,,,,,1,,,72,0
87720,note_on,120,0,3,,,,,,,,,2,,,51,0
87720,note_on,0,0,3,,,,,,,,,2,,,52,49
87840,note_on,120,0,3,,,,,,,,,2,,,52,0
87840,note_on,0,0,3,,,,,,,,,2,,,53,75
87840,note_on,0,0,4,,,,,,,,,3,,,41,88
87840,note_on,120,0,4,,,,,,,,,3,,,40,0
87840,note_on,0,0,1,,,,,,,,,0,,,86,75
87840,note_on,120,0,1,,,,,,,,,0,,,85,0
87840,note_on,0,0,2,,,,,,,,,1,,,74,75
87840,note_on,120,0,2,,,,,,,,,1,,,73,0
87960,note_on,0,0,1,,,,,,,,,0,,,87,88
87960,note_on,120,0,1,,,,,,,,,0,,,86,0
87960,note_on,120,0,2,,,,,,,,,1,,,74,0
87960,note_on,0,0,2,,,,,,,,,1,,,75,88
88080,note_on,0,0,1,,,,,,,,,0,,,88,88
88080,note_on,120,0,1,,,,,,,,,0,,,87,0
88080,note_on,120,0,2,,,,,,,,,1,,,75,0
88080,note_on,0,0,2,,,,,,,,,1,,,76,88
88200,note_on,120,0,2,,,,,,,,,1,,,76,0
88200,note_on,0,0,2,,,,,,,,,1,,,77,75
88200,note_on,120,0,1,,,,,,,,,0,,,88,0
88200,control_change,0,0,1,,,,,,,,,0,64,0,,
88200,note_on,0,0,1,,,,,,,,,0,,,89,75
88200,control_change,0,0,2,,,,,,,,,1,64,0,,
88320,note_on,120,0,1,,,,,,,,,0,,,89,0
88320,note_on,0,0,1,,,,,,,,,0,,,81,75
88320,note_on,0,0,1,,,,,,,,,0,,,84,75
88320,note_on,0,0,1,,,,,,,,,0,,,91,75
88320,note_on,0,0,2,,,,,,,,,1,,,69,75
88320,note_on,120,0,2,,,,,,,,,1,,,77,0
88320,note_on,0,0,2,,,,,,,,,1,,,72,75
88320,note_on,0,0,2,,,,,,,,,1,,,79,75
88680,note_on,0,0,2,,,,,,,,,1,,,72,0
88680,note_on,0,0,2,,,,,,,,,1,,,69,0
88680,note_on,360,0,2,,,,,,,,,1,,,79,0
88680,note_on,0,0,2,,,,,,,,,1,,,77,75
88680,note_on,0,0,1,,,,,,,,,0,,,84,0
88680,note_on,360,0,1,,,,,,,,,0,,,91,0
88680,note_on,0,0,1,,,,,,,,,0,,,81,0
88680,note_on,0,0,1,,,,,,,,,0,,,89,75
88800,note_on,120,0,2,,,,,,,,,1,,,77,0
88800,note_on,0,0,2,,,,,,,,,1,,,70,62
88800,note_on,0,0,2,,,,,,,,,1,,,74,62
88800,note_on,960,0,3,,,,,,,,,2,,,53,0
88800,note_on,960,0,4,,,,,,,,,3,,,41,0
88800,note_on,0,0,4,,,,,,,,,3,,,46,62
88800,note_on,0,0,1,,,,,,,,,0,,,86,62
88800,note_on,0,0,1,,,,,,,,,0,,,82,62
88800,note_on,120,0,1,,,,,,,,,0,,,89,0
88920,note_on,120,0,3,,,,,,,,,2,,,53,49
89040,note_on,120,0,3,,,,,,,,,2,,,53,0
89040,note_on,0,0,3,,,,,,,,,2,,,62,49
89040,note_on,240,0,4,,,,,,,,,3,,,46,0
89160,note_on,120,0,3,,,,,,,,,2,,,62,0
89160,note_on,0,0,3,,,,,,,,,2,,,53,49
89280,note_on,0,0,2,,,,,,,,,1,,,70,0
89280,note_on,240,0,4,,,,,,,,,3,,,46,62
89280,note_on,0,0,1,,,,,,,,,0,,,82,0
89280,note_on,120,0,3,,,,,,,,,2,,,53,0
89280,note_on,480,0,2,,,,,,,,,1,,,74,0
89280,note_on,480,0,1,,,,,,,,,0,,,86,0
89400,note_on,120,0,3,,,,,,,,,2,,,53,49
89520,note_on,0,0,2,,,,,,,,,1,,,77,62
89520,note_on,0,0,3,,,,,,,,,2,,,62,49
89520,note_on,240,0,4,,,,,,,,,3,,,46,0
89520,control_change,240,0,2,,,,,,,,,1,64,127,,
89520,note_on,120,0,3,,,,,,,,,2,,,53,0
89640,note_on,0,0,3,,,,,,,,,2,,,53,49
89640,note_on,120,0,3,,,,,,,,,2,,,62,0
89760,note_on,0,0,2,,,,,,,,,1,,,77,62
89760,note_on,240,0,4,,,,,,,,,3,,,46,62
89760,note_on,120,0,3,,,,,,,,,2,,,53,0
89760,note_on,240,0,2,,,,,,,,,1,,,77,0
89880,note_on,120,0,3,,,,,,,,,2,,,53,49
90000,note_on,120,0,3,,,,,,,,,2,,,53,0
90000,note_on,0,0,3,,,,,,,,,2,,,62,49
90000,note_on,240,0,2,,,,,,,,,1,,,77,0
90000,note_on,240,0,4,,,,,,,,,3,,,46,0
90000,control_change,0,0,2,,,,,,,,,1,64,0,,
90000,note_on,0,0,2,,,,,,,,,1,,,77,62
90120,note_on,0,0,3,,,,,,,,,2,,,53,49
90120,note_on,120,0,3,,,,,,,,,2,,,62,0
90240,note_on,240,0,2,,,,,,,,,1,,,77,0
90240,note_on,0,0,2,,,,,,,,,1,,,77,62
90240,note_on,120,0,3,,,,,,,,,2,,,53,0
90240,note_on,240,0,4,,,,,,,,,3,,,46,62
90360,note_on,120,0,3,,,,,,,,,2,,,57,49
90480,note_on,0,0,3,,,,,,,,,2,,,63,49
90480,note_on,0,0,2,,,,,,,,,1,,,78,88
90480,note_on,240,0,2,,,,,,,,,1,,,77,0
90480,note_on,240,0,4,,,,,,,,,3,,,46,0
90480,note_on,120,0,3,,,,,,,,,2,,,57,0
90600,note_on,120,0,3,,,,,,,,,2,,,63,0
90600,note_on,0,0,3,,,,,,,,,2,,,57,49
90720,note_on,120,0,3,,,,,,,,,2,,,57,0
90720,note_on,240,0,4,,,,,,,,,3,,,46,62
90840,note_on,120,0,3,,,,,,,,,2,,,57,49
90960,note_on,0,0,1,,,,,,,,,0,,,90,62
90960,note_on,120,0,3,,,,,,,,,2,,,57,0
90960,note_on,0,0,3,,,,,,,,,2,,,63,49
90960,note_on,480,0,2,,,,,,,,,1,,,78,0
90960,note_on,240,0,4,,,,,,,,,3,,,46,0
90960,control_change,0,0,2,,,,,,,,,1,64,127,,
90960,control_change,1680,0,1,,,,,,,,,0,64,127,,
90960,note_on,0,0,2,,,,,,,,,1,,,69,62
91080,note_on,0,0,2,,,,,,,,,1,,,72,62
91080,note_on,120,0,2,,,,,,,,,1,,,69,0
91080,note_on,120,0,3,,,,,,,,,2,,,63,0
91080,note_on,0,0,3,,,,,,,,,2,,,57,49
91200,note_on,240,0,1,,,,,,,,,0,,,90,0
91200,note_on,0,0,1,,,,,,,,,0,,,90,62
91200,note_on,240,0,4,,,,,,,,,3,,,46,62
91200,note_on,120,0,3,,,,,,,,,2,,,57,0
91200,note_on,120,0,2,,,,,,,,,1,,,72,0
91200,note_on,0,0,2,,,,,,,,,1,,,75,62
91320,note_on,120,0,3,,,,,,,,,2,,,57,49
91320,note_on,0,0,2,,,,,,,,,1,,,78,62
91320,note_on,120,0,2,,,,,,,,,1,,,75,0
91440,note_on,0,0,2,,,,,,,,,1,,,81,62
91440,note_on,120,0,2,,,,,,,,,1,,,78,0
91440,control_change,0,0,1,,,,,,,,,0,64,0,,
91440,note_on,240,0,1,,,,,,,,,0,,,90,0
91440,note_on,0,0,3,,,,,,,,,2,,,63,49
91440,note_on,120,0,3,,,,,,,,,2,,,57,0
91440,note_on,240,0,4,,,,,,,,,3,,,46,0
91440,note_on,0,0,1,,,,,,,,,0,,,90,62
91560,note_on,120,0,2,,,,,,,,,1,,,81,0
91560,control_change,0,0,2,,,,,,,,,1,64,0,,
91560,note_on,0,0,3,,,,,,,,,2,,,57,49
91560,note_on,120,0,3,,,,,,,,,2,,,63,0
91560,note_on,0,0,2,,,,,,,,,1,,,84,62
91680,note_on,120,0,2,,,,,,,,,1,,,84,0
91680,note_on,0,0,2,,,,,,,,,1,,,86,88
91680,note_on,0,0,1,,,,,,,,,0,,,90,88
91680,note_on,240,0,1,,,,,,,,,0,,,90,0
91680,note_on,240,0,4,,,,,,,,,3,,,46,62
91680,note_on,120,0,3,,,,,,,,,2,,,57,0
91800,note_on,120,0,3,,,,,,,,,2,,,58,49
91920,note_on,0,0,1,,,,,,,,,0,,,89,62
91920,note_on,240,0,1,,,,,,,,,0,,,90,0
91920,note_on,0,0,3,,,,,,,,,2,,,62,49
91920,note_on,240,0,4,,,,,,,,,3,,,46,0
91920,note_on,120,0,3,,,,,,,,,2,,,58,0
92040,note_on,0,0,3,,,,,,,,,2,,,53,49
92040,note_on,120,0,3,,,,,,,,,2,,,62,0
92160,note_on,240,0,4,,,,,,,,,3,,,46,62
92160,note_on,480,0,2,,,,,,,,,1,,,86,0
92160,note_on,120,0,3,,,,,,,,,2,,,53,0
92280,note_on,120,0,3,,,,,,,,,2,,,53,49
92400,note_on,0,0,3,,,,,,,,,2,,,62,49
92400,control_change,240,0,2,,,,,,,,,1,64,127,,
92400,note_on,0,0,1,,,,,,,,,0,,,101,62
92400,note_on,240,0,4,,,,,,,,,3,,,46,0
92400,control_change,0,0,1,,,,,,,,,0,64,127,,
92400,note_on,480,0,1,,,,,,,,,0,,,89,0
92400,note_on,0,0,2,,,,,,,,,1,,,77,62
92400,note_on,120,0,3,,,,,,,,,2,,,53,0
92520,note_on,120,0,3,,,,,,,,,2,,,62,0
92520,note_on,0,0,3,,,,,,,,,2,,,53,49
92520,note_on,120,0,1,,,,,,,,,0,,,101,0
92520,note_on,0,0,1,,,,,,,,,0,,,98,62
92640,note_on,0,0,1,,,,,,,,,0,,,94,62
92640,note_on,120,0,1,,,,,,,,,0,,,98,0
92640,note_on,0,0,2,,,,,,,,,1,,,77,62
92640,note_on,240,0,4,,,,,,,,,3,,,46,62
92640,note_on,120,0,3,,,,,,,,,2,,,53,0
92640,note_on,240,0,2,,,,,,,,,1,,,77,0
92760,note_on,120,0,3,,,,,,,,,2,,,53,49
92760,note_on,120,0,1,,,,,,,,,0,,,94,0
92760,note_on,0,0,1,,,,,,,,,0,,,89,62
92880,note_on,120,0,1,,,,,,,,,0,,,89,0
92880,note_on,0,0,3,,,,,,,,,2,,,62,49
92880,note_on,120,0,3,,,,,,,,,2,,,53,0
92880,note_on,240,0,4,,,,,,,,,3,,,46,0
92880,note_on,0,0,1,,,,,,,,,0,,,86,62
92880,note_on,240,0,2,,,,,,,,,1,,,77,0
92880,control_change,0,0,2,,,,,,,,,1,64,0,,
92880,note_on,0,0,2,,,,,,,,,1,,,77,62
93000,note_on,120,0,1,,,,,,,,,0,,,86,0
93000,note_on,0,0,3,,,,,,,,,2,,,53,49
93000,note_on,120,0,3,,,,,,,,,2,,,62,0
93000,control_change,0,0,1,,,,,,,,,0,64,0,,
93000,note_on,0,0,1,,,,,,,,,0,,,82,62
93120,note_on,120,0,3,,,,,,,,,2,,,53,0
93120,note_on,0,0,1,,,,,,,,,0,,,81,62
93120,note_on,120,0,1,,,,,,,,,0,,,82,0
93120,note_on,240,0,4,,,,,,,,,3,,,46,62
93120,note_on,0,0,2,,,,,,,,,1,,,77,62
93120,note_on,240,0,2,,,,,,,,,1,,,77,0
93240,note_on,120,0,3,,,,,,,,,2,,,57,49
93360,note_on,120,0,3,,,,,,,,,2,,,57,0
93360,note_on,240,0,4,,,,,,,,,3,,,46,0
93360,note_on,0,0,3,,,,,,,,,2,,,63,49
93360,note_on,240,0,2,,,,,,,,,1,,,77,0
93360,note_on,0,0,2,,,,,,,,,1,,,78,88
93480,note_on,120,0,3,,,,,,,,,2,,,63,0
93480,note_on,0,0,3,,,,,,,,,2,,,57,49
93600,note_on,480,0,1,,,,,,,,,0,,,81,0
93600,note_on,240,0,4,,,,,,,,,3,,,46,62
93600,note_on,120,0,3,,,,,,,,,2,,,57,0
93720,note_on,120,0,3,,,,,,,,,2,,,57,49
93840,note_on,120,0,3,,,,,,,,,2,,,57,0
93840,control_change,240,0,1,,,,,,,,,0,64,127,,
93840,control_change,0,0,2,,,,,,,,,1,64,127,,
93840,note_on,480,0,2,,,,,,,,,1,,,78,0
93840,note_on,0,0,3,,,,,,,,,2,,,63,49
93840,note_on,240,0,4,,,,,,,,,3,,,46,0
93840,note_on,0,0,1,,,,,,,,,0,,,90,62
93840,note_on,0,0,2,,,,,,,,,1,,,69,62
93960,note_on,0,0,2,,,,,,,,,1,,,72,62
93960,note_on,120,0,2,,,,,,,,,1,,,69,0
93960,note_on,120,0,3,,,,,,,,,2,,,63,0
93960,note_on,0,0,3,,,,,,,,,2,,,57,49
94080,note_on,120,0,2,,,,,,,,,1,,,72,0
94080,note_on,120,0,3,,,,,,,,,2,,,57,0
94080,note_on,0,0,1,,,,,,,,,0,,,90,62
94080,note_on,240,0,1,,,,,,,,,0,,,90,0
94080,note_on,240,0,4,,,,,,,,,3,,,46,62
94080,note_on,0,0,2,,,,,,,,,1,,,75,62
94200,note_on,120,0,2,,,,,,,,,1,,,75,0
94200,note_on,120,0,3,,,,,,,,,2,,,57,49
94200,note_on,0,0,2,,,,,,,,,1,,,78,62
94320,note_on,0,0,2,,,,,,,,,1,,,81,62
94320,note_on,120,0,3,,,,,,,,,2,,,57,0
94320,note_on,0,0,3,,,,,,,,,2,,,63,49
94320,note_on,120,0,2,,,,,,,,,1,,,78,0
94320,control_change,0,0,1,,,,,,,,,0,64,0,,
94320,note_on,0,0,1,,,,,,,,,0,,,90,62
94320,note_on,240,0,4,,,,,,,,,3,,,46,0
94320,note_on,240,0,1,,,,,,,,,0,,,90,0
94440,note_on,0,0,2,,,,,,,,,1,,,84,62
94440,control_change,0,0,2,,,,,,,,,1,64,0,,
94440,note_on,120,0,2,,,,,,,,,1,,,81,0
94440,note_on,120,0,3,,,,,,,,,2,,,63,0
94440,note_on,0,0,3,,,,,,,,,2,,,57,49
94560,note_on,0,0,1,,,,,,,,,0,,,90,88
94560,note_on,120,0,2,,,,,,,,,1,,,84,0
94560,note_on,0,0,2,,,,,,,,,1,,,86,88
94560,note_on,240,0,4,,,,,,,,,3,,,46,62
94560,note_on,120,0,3,,,,,,,,,2,,,57,0
94560,note_on,240,0,1,,,,,,,,,0,,,90,0
94680,note_on,120,0,3,,,,,,,,,2,,,58,49
94800,note_on,240,0,1,,,,,,,,,0,,,90,0
94800,note_on,0,0,1,,,,,,,,,0,,,89,62
94800,note_on,0,0,3,,,,,,,,,2,,,62,49
94800,note_on,240,0,4,,,,,,,,,3,,,46,0
94800,note_on,120,0,3,,,,,,,,,2,,,58,0
94920,note_on,0,0,3,,,,,,,,,2,,,53,49
94920,note_on,120,0,3,,,,,,,,,2,,,62,0
95040,note_on,480,0,2,,,,,,,,,1,,,86,0
95040,note_on,120,0,3,,,,,,,,,2,,,53,0
95040,note_on,240,0,4,,,,,,,,,3,,,46,62
95160,note_on,120,0,3,,,,,,,,,2,,,53,49
95280,note_on,240,0,4,,,,,,,,,3,,,46,0
95280,note_on,120,0,3,,,,,,,,,2,,,53,0
95280,note_on,0,0,3,,,,,,,,,2,,,62,49
95280,control_change,240,0,2,,,,,,,,,1,64,127,,
95280,note_on,0,0,2,,,,,,,,,1,,,77,62
95280,note_on,0,0,1,,,,,,,,,0,,,101,62
95280,control_change,0,0,1,,,,,,,,,0,64,127,,
95280,note_on,480,0,1,,,,,,,,,0,,,89,0
95400,note_on,0,0,1,,,,,,,,,0,,,98,62
95400,note_on,120,0,1,,,,,,,,,0,,,101,0
95400,note_on,0,0,3,,,,,,,,,2,,,53,49
95400,note_on,120,0,3,,,,,,,,,2,,,62,0
95520,note_on,240,0,4,,,,,,,,,3,,,46,62
95520,note_on,240,0,2,,,,,,,,,1,,,77,0
95520,note_on,0,0,2,,,,,,,,,1,,,77,62
95520,note_on,120,0,1,,,,,,,,,0,,,98,0
95520,note_on,120,0,3,,,,,,,,,2,,,53,0
95520,note_on,0,0,1,,,,,,,,,0,,,94,62
95640,note_on,120,0,1,,,,,,,,,0,,,94,0
95640,note_on,0,0,1,,,,,,,,,0,,,89,62
95640,note_on,120,0,3,,,,,,,,,2,,,53,49
95760,note_on,120,0,3,,,,,,,,,2,,,53,0
95760,note_on,0,0,3,,,,,,,,,2,,,58,49
95760,note_on,0,0,1,,,,,,,,,0,,,86,62
95760,note_on,120,0,1,,,,,,,,,0,,,89,0
95760,note_on,240,0,2,,,,,,,,,1,,,77,0
95760,control_change,0,0,2,,,,,,,,,1,64,0,,
95760,note_on,0,0,2,,,,,,,,,1,,,77,62
95760,note_on,240,0,4,,,,,,,,,3,,,46,0
95880,note_on,0,0,3,,,,,,,,,2,,,62,49
95880,note_on,120,0,1,,,,,,,,,0,,,86,0
95880,note_on,120,0,3,,,,,,,,,2,,,58,0
95880,control_change,0,0,1,,,,,,,,,0,64,0,,
95880,note_on,0,0,1,,,,,,,,,0,,,82,62
96000,note_on,0,0,1,,,,,,,,,0,,,81,62
96000,note_on,240,0,4,,,,,,,,,3,,,38,62
96000,note_on,240,0,2,,,,,,,,,1,,,77,0
96000,note_on,0,0,2,,,,,,,,,1,,,78,62
96000,note_on,120,0,3,,,,,,,,,2,,,62,0
96000,note_on,120,0,1,,,,,,,,,0,,,82,0
96120,control_change,120,0,3,,,,,,,,,2,64,127,,
96120,note_on,0,0,3,,,,,,,,,2,,,50,49
96240,note_on,120,0,3,,,,,,,,,2,,,50,0
96240,note_on,0,0,3,,,,,,,,,2,,,54,49
96240,note_on,0,0,1,,,,,,,,,0,,,86,62
96240,note_on,240,0,1,,,,,,,,,0,,,81,0
96360,note_on,120,0,3,,,,,,,,,2,,,54,0
96360,note_on,0,0,3,,,,,,,,,2,,,57,49
96480,note_on,0,0,3,,,,,,,,,2,,,62,75
96480,note_on,120,0,3,,,,,,,,,2,,,57,0
96480,control_change,0,0,3,,,,,,,,,2,64,0,,
96720,note_on,480,0,1,,,,,,,,,0,,,86,0
96720,note_on,0,0,2,,,,,,,,,1,,,66,62
96720,note_on,0,0,1,,,,,,,,,0,,,86,62
96720,note_on,0,0,1,,,,,,,,,0,,,74,62
96720,note_on,0,0,2,,,,,,,,,1,,,69,62
96720,control_change,0,0,2,,,,,,,,,1,64,127,,
96720,note_on,720,0,2,,,,,,,,,1,,,78,0
96720,control_change,0,0,1,,,,,,,,,0,64,127,,
96960,note_on,0,0,1,,,,,,,,,0,,,74,62
96960,note_on,0,0,1,,,,,,,,,0,,,74,0
96960,note_on,0,0,1,,,,,,,,,0,,,86,62
96960,note_on,0,0,2,,,,,,,,,1,,,66,62
96960,note_on,0,0,2,,,,,,,,,1,,,69,62
96960,note_on,0,0,2,,,,,,,,,1,,,66,0
96960,note_on,240,0,2,,,,,,,,,1,,,69,0
96960,note_on,240,0,1,,,,,,,,,0,,,86,0
97200,note_on,0,0,1,,,,,,,,,0,,,74,62
97200,note_on,240,0,1,,,,,,,,,0,,,86,0
97200,note_on,0,0,1,,,,,,,,,0,,,86,62
97200,control_change,0,0,1,,,,,,,,,0,64,0,,
97200,note_on,0,0,1,,,,,,,,,0,,,74,0
97200,note_on,0,0,2,,,,,,,,,1,,,66,62
97200,note_on,0,0,2,,,,,,,,,1,,,69,62
97200,control_change,0,0,2,,,,,,,,,1,64,0,,
97200,note_on,240,0,2,,,,,,,,,1,,,69,0
97200,note_on,0,0,2,,,,,,,,,1,,,66,0
97440,note_on,0,0,4,,,,,,,,,3,,,38,62
97440,note_on,960,0,3,,,,,,,,,2,,,62,0
97440,note_on,0,0,2,,,,,,,,,1,,,67,62
97440,note_on,0,0,2,,,,,,,,,1,,,70,62
97440,note_on,0,0,1,,,,,,,,,0,,,86,88
97440,note_on,0,0,1,,,,,,,,,0,,,74,0
97440,note_on,1440,0,4,,,,,,,,,3,,,38,0
97440,note_on,240,0,1,,,,,,,,,0,,,86,0
97440,note_on,0,0,2,,,,,,,,,1,,,66,0
97440,note_on,240,0,2,,,,,,,,,1,,,69,0
97440,note_on,0,0,1,,,,,,,,,0,,,74,88
97560,control_change,120,0,3,,,,,,,,,2,64,127,,
97560,note_on,0,0,3,,,,,,,,,2,,,50,49
97680,note_on,0,0,3,,,,,,,,,2,,,55,49
97680,note_on,0,0,1,,,,,,,,,0,,,87,62
97680,note_on,0,0,1,,,,,,,,,0,,,74,0
97680,note_on,240,0,1,,,,,,,,,0,,,86,0
97680,note_on,120,0,3,,,,,,,,,2,,,50,0
97680,note_on,0,0,1,,,,,,,,,0,,,75,62
97800,note_on,120,0,3,,,,,,,,,2,,,55,0
97800,note_on,0,0,3,,,,,,,,,2,,,58,49
97920,control_change,0,0,3,,,,,,,,,2,64,0,,
97920,note_on,120,0,3,,,,,,,,,2,,,58,0
97920,note_on,0,0,3,,,,,,,,,2,,,62,75
98160,note_on,0,0,2,,,,,,,,,1,,,67,62
98160,note_on,720,0,2,,,,,,,,,1,,,70,0
98160,note_on,0,0,2,,,,,,,,,1,,,67,0
98160,control_change,0,0,2,,,,,,,,,1,64,127,,
98160,note_on,0,0,2,,,,,,,,,1,,,70,62
98160,control_change,0,0,1,,,,,,,,,0,64,127,,
98160,note_on,0,0,1,,,,,,,,,0,,,87,62
98160,note_on,480,0,1,,,,,,,,,0,,,87,0
98160,note_on,0,0,1,,,,,,,,,0,,,75,62
98160,note_on,0,0,1,,,,,,,,,0,,,75,0
98400,note_on,0,0,1,,,,,,,,,0,,,75,62
98400,note_on,0,0,2,,,,,,,,,1,,,70,62
98400,note_on,0,0,2,,,,,,,,,1,,,67,62
98400,note_on,0,0,2,,,,,,,,,1,,,67,0
98400,note_on,240,0,2,,,,,,,,,1,,,70,0
98400,note_on,0,0,1,,,,,,,,,0,,,75,0
98400,note_on,240,0,1,,,,,,,,,0,,,87,0
98400,note_on,0,0,1,,,,,,,,,0,,,87,62
98640,note_on,0,0,2,,,,,,,,,1,,,67,62
98640,note_on,0,0,1,,,,,,,,,0,,,87,62
98640,note_on,0,0,1,,,,,,,,,0,,,75,62
98640,note_on,240,0,2,,,,,,,,,1,,,70,0
98640,note_on,240,0,1,,,,,,,,,0,,,87,0
98640,note_on,0,0,2,,,,,,,,,1,,,67,0
98640,note_on,0,0,2,,,,,,,,,1,,,70,62
98640,note_on,0,0,1,,,,,,,,,0,,,75,0
98640,control_change,0,0,1,,,,,,,,,0,64,0,,
98640,control_change,0,0,2,,,,,,,,,1,64,0,,
98880,note_on,0,0,4,,,,,,,,,3,,,38,62
98880,note_on,240,0,2,,,,,,,,,1,,,70,0
98880,note_on,0,0,2,,,,,,,,,1,,,67,0
98880,note_on,0,0,2,,,,,,,,,1,,,69,88
98880,note_on,0,0,2,,,,,,,,,1,,,72,88
98880,note_on,0,0,1,,,,,,,,,0,,,91,88
98880,note_on,240,0,1,,,,,,,,,0,,,87,0
98880,note_on,0,0,1,,,,,,,,,0,,,75,0
98880,note_on,1440,0,4,,,,,,,,,3,,,38,0
98880,note_on,0,0,1,,,,,,,,,0,,,79,88
98880,note_on,960,0,3,,,,,,,,,2,,,62,0
99000,note_on,0,0,3,,,,,,,,,2,,,50,49
99000,control_change,120,0,3,,,,,,,,,2,64,127,,
99120,note_on,0,0,1,,,,,,,,,0,,,90,62
99120,note_on,0,0,1,,,,,,,,,0,,,78,62
99120,note_on,0,0,3,,,,,,,,,2,,,57,49
99120,note_on,0,0,1,,,,,,,,,0,,,79,0
99120,note_on,240,0,1,,,,,,,,,0,,,91,0
99120,note_on,120,0,3,,,,,,,,,2,,,50,0
99240,note_on,0,0,3,,,,,,,,,2,,,60,49
99240,note_on,120,0,3,,,,,,,,,2,,,57,0
99360,note_on,0,0,3,,,,,,,,,2,,,63,75
99360,note_on,120,0,3,,,,,,,,,2,,,60,0
99600,note_on,240,0,3,,,,,,,,,2,,,63,0
99600,note_on,0,0,1,,,,,,,,,0,,,78,0
99600,note_on,480,0,1,,,,,,,,,0,,,90,0
99600,note_on,0,0,1,,,,,,,,,0,,,78,62
99600,control_change,0,0,1,,,,,,,,,0,64,127,,
99600,note_on,0,0,2,,,,,,,,,1,,,72,62
99600,note_on,720,0,2,,,,,,,,,1,,,72,0
99600,note_on,0,0,2,,,,,,,,,1,,,69,62
99600,control_change,0,0,3,,,,,,,,,2,64,0,,
99600,note_on,0,0,3,,,,,,,,,2,,,62,49
99600,note_on,0,0,2,,,,,,,,,1,,,69,0
99600,control_change,0,0,2,,,,,,,,,1,64,127,,
99840,note_on,0,0,2,,,,,,,,,1,,,69,62
99840,note_on,0,0,2,,,,,,,,,1,,,69,0
99840,note_on,240,0,2,,,,,,,,,1,,,72,0
99840,note_on,0,0,1,,,,,,,,,0,,,78,62
99840,note_on,240,0,1,,,,,,,,,0,,,78,0
99840,note_on,0,0,2,,,,,,,,,1,,,72,62
100080,note_on,0,0,1,,,,,,,,,0,,,78,62
100080,control_change,0,0,1,,,,,,,,,0,64,0,,
100080,note_on,240,0,1,,,,,,,,,0,,,78,0
100080,note_on,240,0,2,,,,,,,,,1,,,72,0
100080,note_on,0,0,2,,,,,,,,,1,,,72,62
100080,control_change,0,0,2,,,,,,,,,1,64,0,,
100080,note_on,0,0,2,,,,,,,,,1,,,69,62
100080,note_on,0,0,2,,,,,,,,,1,,,69,0
100320,note_on,240,0,1,,,,,,,,,0,,,78,0
100320,note_on,0,0,1,,,,,,,,,0,,,81,88
100320,note_on,0,0,2,,,,,,,,,1,,,74,88
100320,note_on,720,0,3,,,,,,,,,2,,,62,0
100320,note_on,0,0,2,,,,,,,,,1,,,69,0
100320,note_on,240,0,2,,,,,,,,,1,,,72,0
100320,note_on,1440,0,4,,,,,,,,,3,,,38,0
100320,note_on,0,0,2,,,,,,,,,1,,,70,88
100320,note_on,0,0,4,,,,,,,,,3,,,38,62
100440,control_change,120,0,3,,,,,,,,,2,64,127,,
100440,note_on,0,0,3,,,,,,,,,2,,,50,49
100560,note_on,240,0,1,,,,,,,,,0,,,81,0
100560,note_on,0,0,1,,,,,,,,,0,,,79,62
100560,note_on,0,0,3,,,,,,,,,2,,,55,49
100560,note_on,120,0,3,,,,,,,,,2,,,50,0
100680,note_on,120,0,3,,,,,,,,,2,,,55,0
100680,note_on,0,0,3,,,,,,,,,2,,,58,49
100800,note_on,120,0,3,,,,,,,,,2,,,58,0
100800,note_on,0,0,3,,,,,,,,,2,,,62,75
101040,note_on,480,0,1,,,,,,,,,0,,,79,0
101040,control_change,0,0,1,,,,,,,,,0,64,127,,
101040,note_on,0,0,2,,,,,,,,,1,,,70,0
101040,note_on,0,0,2,,,,,,,,,1,,,67,62
101040,note_on,0,0,2,,,,,,,,,1,,,64,62
101040,control_change,0,0,2,,,,,,,,,1,64,127,,
101040,note_on,0,0,1,,,,,,,,,0,,,79,62
101040,note_on,720,0,2,,,,,,,,,1,,,74,0
101280,note_on,240,0,1,,,,,,,,,0,,,79,0
101280,note_on,960,0,4,,,,,,,,,3,,,38,0
101280,note_on,0,0,4,,,,,,,,,3,,,37,62
101280,note_on,0,0,3,,,,,,,,,2,,,61,49
101280,note_on,480,0,3,,,,,,,,,2,,,62,0
101280,control_change,0,0,3,,,,,,,,,2,64,0,,
101280,note_on,0,0,1,,,,,,,,,0,,,79,62
101280,note_on,0,0,2,,,,,,,,,1,,,64,62
101280,note_on,0,0,2,,,,,,,,,1,,,64,0
101280,note_on,240,0,2,,,,,,,,,1,,,67,0
101280,note_on,0,0,2,,,,,,,,,1,,,67,62
101520,note_on,0,0,1,,,,,,,,,0,,,79,62
101520,control_change,0,0,1,,,,,,,,,0,64,0,,
101520,note_on,240,0,1,,,,,,,,,0,,,79,0
101520,note_on,240,0,2,,,,,,,,,1,,,67,0
101520,note_on,0,0,2,,,,,,,,,1,,,64,0
101520,note_on,0,0,2,,,,,,,,,1,,,67,62
101520,note_on,0,0,2,,,,,,,,,1,,,64,62
101520,control_change,0,0,2,,,,,,,,,1,64,0,,
101760,note_on,240,0,1,,,,,,,,,0,,,79,0
101760,note_on,480,0,4,,,,,,,,,3,,,37,0
101760,note_on,0,0,4,,,,,,,,,3,,,36,62
101760,note_on,0,0,2,,,,,,,,,1,,,70,88
101760,note_on,0,0,1,,,,,,,,,0,,,86,88
101760,note_on,0,0,2,,,,,,,,,1,,,74,88
101760,note_on,0,0,2,,,,,,,,,1,,,67,88
101760,note_on,0,0,2,,,,,,,,,1,,,64,0
101760,note_on,240,0,2,,,,,,,,,1,,,67,0
101760,note_on,480,0,3,,,,,,,,,2,,,61,0
101880,control_change,120,0,3,,,,,,,,,2,64,127,,
101880,note_on,0,0,3,,,,,,,,,2,,,48,49
102000,note_on,120,0,3,,,,,,,,,2,,,48,0
102000,note_on,0,0,3,,,,,,,,,2,,,52,49
102000,note_on,240,0,2,,,,,,,,,1,,,74,0
102000,note_on,0,0,2,,,,,,,,,1,,,70,0
102000,note_on,240,0,1,,,,,,,,,0,,,86,0
102000,note_on,0,0,1,,,,,,,,,0,,,84,62
102000,note_on,0,0,2,,,,,,,,,1,,,67,0
102000,note_on,0,0,2,,,,,,,,,1,,,72,62
102120,note_on,120,0,3,,,,,,,,,2,,,52,0
102120,note_on,0,0,3,,,,,,,,,2,,,55,49
102240,note_on,120,0,3,,,,,,,,,2,,,55,0
102240,note_on,0,0,3,,,,,,,,,2,,,60,75
102240,control_change,0,0,3,,,,,,,,,2,64,0,,
102480,control_change,0,0,2,,,,,,,,,1,64,127,,
102480,note_on,0,0,1,,,,,,,,,0,,,84,62
102480,note_on,0,0,1,,,,,,,,,0,,,76,62
102480,control_change,0,0,1,,,,,,,,,0,64,127,,
102480,note_on,480,0,1,,,,,,,,,0,,,84,0
102480,note_on,0,0,2,,,,,,,,,1,,,67,62
102480,note_on,0,0,2,,,,,,,,,1,,,70,62
102480,note_on,0,0,2,,,,,,,,,1,,,72,62
102480,set_tempo,42480,1,0,,,,,,750000,,,,,,,
102480,note_on,480,0,2,,,,,,,,,1,,,72,0
102720,note_on,0,0,2,,,,,,,,,1,,,70,62
102720,note_on,0,0,2,,,,,,,,,1,,,72,62
102720,note_on,0,0,2,,,,,,,,,1,,,67,0
102720,note_on,0,0,2,,,,,,,,,1,,,67,62
102720,note_on,0,0,1,,,,,,,,,0,,,76,0
102720,note_on,0,0,1,,,,,,,,,0,,,76,62
102720,note_on,0,0,1,,,,,,,,,0,,,84,62
102720,note_on,240,0,2,,,,,,,,,1,,,72,0
102720,note_on,240,0,1,,,,,,,,,0,,,84,0
102720,note_on,0,0,2,,,,,,,,,1,,,70,0
102960,control_change,0,0,1,,,,,,,,,0,64,0,,
102960,note_on,0,0,2,,,,,,,,,1,,,72,62
102960,note_on,0,0,2,,,,,,,,,1,,,70,62
102960,note_on,0,0,2,,,,,,,,,1,,,67,62
102960,note_on,0,0,1,,,,,,,,,0,,,84,62
102960,note_on,0,0,2,,,,,,,,,1,,,67,0
102960,note_on,240,0,1,,,,,,,,,0,,,84,0
102960,note_on,0,0,1,,,,,,,,,0,,,76,62
102960,note_on,0,0,1,,,,,,,,,0,,,76,0
102960,control_change,0,0,2,,,,,,,,,1,64,0,,
102960,note_on,0,0,2,,,,,,,,,1,,,70,0
102960,note_on,240,0,2,,,,,,,,,1,,,72,0
103140,note_on,1380,0,4,,,,,,,,,3,,,43,62
103200,note_on,0,0,2,,,,,,,,,1,,,67,0
103200,note_on,0,0,4,,,,,,,,,3,,,41,62
103200,note_on,0,0,4,,,,,,,,,3,,,36,0
103200,note_on,60,0,4,,,,,,,,,3,,,43,0
103200,note_on,0,0,2,,,,,,,,,1,,,70,0
103200,note_on,0,0,1,,,,,,,,,0,,,76,0
103200,note_on,240,0,2,,,,,,,,,1,,,72,0
103200,note_on,960,0,3,,,,,,,,,2,,,60,0
103200,note_on,240,0,1,,,,,,,,,0,,,84,0
103200,set_tempo,720,1,0,,,,,,600000,,,,,,,
103320,note_on,120,0,4,,,,,,,,,3,,,41,0
103320,note_on,0,0,4,,,,,,,,,3,,,40,62
103440,note_on,0,0,1,,,,,,,,,0,,,84,88
103440,note_on,240,0,1,,,,,,,,,0,,,81,88
103440,note_on,240,0,3,,,,,,,,,2,,,53,49
103440,note_on,0,0,3,,,,,,,,,2,,,57,49
103440,note_on,0,0,4,,,,,,,,,3,,,41,62
103440,note_on,0,0,3,,,,,,,,,2,,,60,49
103440,note_on,240,0,2,,,,,,,,,1,,,69,88
103440,note_on,0,0,2,,,,,,,,,1,,,72,88
103440,note_on,120,0,4,,,,,,,,,3,,,40,0
103463,note_on,23,0,2,,,,,,,,,1,,,72,0
103463,note_on,0,0,2,,,,,,,,,1,,,69,0
103463,note_on,23,0,1,,,,,,,,,0,,,84,0
103463,note_on,0,0,1,,,,,,,,,0,,,81,0
103560,note_on,0,0,4,,,,,,,,,3,,,43,62
103560,note_on,120,0,4,,,,,,,,,3,,,41,0
103680,note_on,0,0,2,,,,,,,,,1,,,69,62
103680,note_on,217,0,1,,,,,,,,,0,,,77,62
103680,note_on,217,0,2,,,,,,,,,1,,,65,62
103680,note_on,240,0,3,,,,,,,,,2,,,60,0
103680,note_on,0,0,4,,,,,,,,,3,,,45,62
103680,note_on,0,0,3,,,,,,,,,2,,,53,0
103680,note_on,0,0,3,,,,,,,,,2,,,57,0
103680,note_on,0,0,1,,,,,,,,,0,,,81,62
103680,note_on,120,0,4,,,,,,,,,3,,,43,0
103703,note_on,23,0,1,,,,,,,,,0,,,81,0
103703,note_on,0,0,1,,,,,,,,,0,,,77,0
103703,note_on,23,0,2,,,,,,,,,1,,,69,0
103703,note_on,0,0,2,,,,,,,,,1,,,65,0
103920,note_on,0,0,3,,,,,,,,,2,,,57,49
103920,note_on,240,0,4,,,,,,,,,3,,,45,0
103920,note_on,0,0,1,,,,,,,,,0,,,84,62
103920,note_on,240,0,3,,,,,,,,,2,,,53,49
103920,note_on,217,0,2,,,,,,,,,1,,,69,62
103920,note_on,0,0,2,,,,,,,,,1,,,72,62
103920,note_on,217,0,1,,,,,,,,,0,,,81,62
103920,note_on,0,0,3,,,,,,,,,2,,,60,49
103943,note_on,23,0,1,,,,,,,,,0,,,84,0
103943,note_on,0,0,1,,,,,,,,,0,,,81,0
103943,note_on,23,0,2,,,,,,,,,1,,,72,0
103943,note_on,0,0,2,,,,,,,,,1,,,69,0
104160,control_change,217,0,2,,,,,,,,,1,64,127,,
104160,note_on,0,0,2,,,,,,,,,1,,,77,88
104160,note_on,0,0,3,,,,,,,,,2,,,53,0
104160,note_on,0,0,3,,,,,,,,,2,,,57,0
104160,control_change,217,0,1,,,,,,,,,0,64,127,,
104160,note_on,0,0,1,,,,,,,,,0,,,89,88
104160,note_on,240,0,3,,,,,,,,,2,,,60,0
104160,note_on,240,0,4,,,,,,,,,3,,,41,62
104280,note_on,0,0,2,,,,,,,,,1,,,76,62
104280,note_on,120,0,2,,,,,,,,,1,,,77,0
104280,note_on,0,0,1,,,,,,,,,0,,,88,62
104280,note_on,120,0,1,,,,,,,,,0,,,89,0
104400,note_on,0,0,3,,,,,,,,,2,,,56,75
104400,note_on,240,0,3,,,,,,,,,2,,,53,75
104400,note_on,240,0,4,,,,,,,,,3,,,41,0
104400,note_on,0,0,1,,,,,,,,,0,,,89,62
104400,note_on,120,0,1,,,,,,,,,0,,,88,0
104400,note_on,0,0,2,,,,,,,,,1,,,77,62
104400,note_on,0,0,3,,,,,,,,,2,,,62,75
104400,note_on,0,0,3,,,,,,,,,2,,,59,75
104400,note_on,120,0,2,,,,,,,,,1,,,76,0
104520,control_change,0,0,2,,,,,,,,,1,64,0,,
104520,note_on,120,0,2,,,,,,,,,1,,,77,0
104520,note_on,120,0,1,,,,,,,,,0,,,89,0
104520,control_change,0,0,1,,,,,,,,,0,64,0,,
104520,note_on,0,0,1,,,,,,,,,0,,,86,62
104520,note_on,0,0,2,,,,,,,,,1,,,74,62
104580,note_on,180,0,4,,,,,,,,,3,,,38,62
104640,note_on,0,0,2,,,,,,,,,1,,,72,62
104640,note_on,120,0,2,,,,,,,,,1,,,74,0
104640,note_on,0,0,1,,,,,,,,,0,,,84,62
104640,note_on,60,0,4,,,,,,,,,3,,,38,0
104640,note_on,0,0,4,,,,,,,,,3,,,36,62
104640,note_on,0,0,3,,,,,,,,,2,,,59,0
104640,note_on,0,0,3,,,,,,,,,2,,,56,0
104640,note_on,0,0,3,,,,,,,,,2,,,53,0
104640,note_on,240,0,3,,,,,,,,,2,,,62,0
104640,note_on,120,0,1,,,,,,,,,0,,,86,0
104663,note_on,23,0,1,,,,,,,,,0,,,84,0
104663,note_on,23,0,2,,,,,,,,,1,,,72,0
104760,note_on,0,0,4,,,,,,,,,3,,,35,62
104760,note_on,120,0,4,,,,,,,,,3,,,36,0
104880,note_on,217,0,1,,,,,,,,,0,,,79,88
104880,note_on,0,0,1,,,,,,,,,0,,,82,88
104880,note_on,0,0,1,,,,,,,,,0,,,84,88
104880,note_on,0,0,2,,,,,,,,,1,,,70,88
104880,note_on,240,0,3,,,,,,,,,2,,,52,49
104880,note_on,0,0,3,,,,,,,,,2,,,55,49
104880,note_on,0,0,3,,,,,,,,,2,,,60,49
104880,note_on,0,0,4,,,,,,,,,3,,,36,62
104880,note_on,120,0,4,,,,,,,,,3,,,35,0
104880,note_on,217,0,2,,,,,,,,,1,,,67,88
104880,note_on,0,0,2,,,,,,,,,1,,,72,88
104903,note_on,0,0,2,,,,,,,,,1,,,70,0
104903,note_on,0,0,1,,,,,,,,,0,,,82,0
104903,note_on,0,0,1,,,,,,,,,0,,,79,0
104903,note_on,0,0,2,,,,,,,,,1,,,67,0
104903,note_on,23,0,2,,,,,,,,,1,,,72,0
104903,note_on,23,0,1,,,,,,,,,0,,,84,0
105000,note_on,0,0,4,,,,,,,,,3,,,38,62
105000,note_on,120,0,4,,,,,,,,,3,,,36,0
105120,note_on,240,0,3,,,,,,,,,2,,,60,0
105120,note_on,0,0,3,,,,,,,,,2,,,55,0
105120,note_on,0,0,3,,,,,,,,,2,,,52,0
105120,note_on,217,0,1,,,,,,,,,0,,,72,62
105120,note_on,0,0,1,,,,,,,,,0,,,79,62
105120,note_on,0,0,1,,,,,,,,,0,,,82,62
105120,note_on,0,0,2,,,,,,,,,1,,,70,62
105120,note_on,217,0,2,,,,,,,,,1,,,60,62
105120,note_on,120,0,4,,,,,,,,,3,,,38,0
105120,note_on,0,0,4,,,,,,,,,3,,,40,62
105120,note_on,0,0,2,,,,,,,,,1,,,67,62
105143,note_on,23,0,2,,,,,,,,,1,,,70,0
105143,note_on,0,0,2,,,,,,,,,1,,,67,0
105143,note_on,0,0,2,,,,,,,,,1,,,60,0
105143,note_on,0,0,1,,,,,,,,,0,,,72,0
105143,note_on,0,0,1,,,,,,,,,0,,,79,0
105143,note_on,23,0,1,,,,,,,,,0,,,82,0
105360,note_on,240,0,4,,,,,,,,,3,,,40,0
105360,note_on,217,0,2,,,,,,,,,1,,,67,62
105360,note_on,240,0,3,,,,,,,,,2,,,52,49
105360,note_on,0,0,3,,,,,,,,,2,,,55,49
105360,note_on,0,0,1,,,,,,,,,0,,,84,62
105360,note_on,0,0,2,,,,,,,,,1,,,70,62
105360,note_on,0,0,2,,,,,,,,,1,,,72,62
105360,note_on,217,0,1,,,,,,,,,0,,,79,62
105360,note_on,0,0,1,,,,,,,,,0,,,82,62
105360,note_on,0,0,3,,,,,,,,,2,,,60,49
105383,note_on,0,0,1,,,,,,,,,0,,,82,0
105383,note_on,0,0,1,,,,,,,,,0,,,79,0
105383,note_on,23,0,1,,,,,,,,,0,,,84,0
105383,note_on,0,0,2,,,,,,,,,1,,,70,0
105383,note_on,0,0,2,,,,,,,,,1,,,67,0
105383,note_on,23,0,2,,,,,,,,,1,,,72,0
105600,note_on,240,0,3,,,,,,,,,2,,,60,0
105600,note_on,0,0,2,,,,,,,,,1,,,82,62
105600,control_change,217,0,2,,,,,,,,,1,64,127,,
105600,note_on,0,0,3,,,,,,,,,2,,,55,0
105600,note_on,240,0,4,,,,,,,,,3,,,36,62
105600,note_on,0,0,3,,,,,,,,,2,,,52,0
105600,control_change,217,0,1,,,,,,,,,0,64,127,,
105600,note_on,0,0,1,,,,,,,,,0,,,94,62
105720,note_on,120,0,1,,,,,,,,,0,,,94,0
105720,note_on,120,0,2,,,,,,,,,1,,,82,0
105720,note_on,0,0,2,,,,,,,,,1,,,81,62
105720,note_on,0,0,1,,,,,,,,,0,,,93,62
105840,note_on,120,0,1,,,,,,,,,0,,,93,0
105840,note_on,0,0,2,,,,,,,,,1,,,82,62
105840,note_on,0,0,3,,,,,,,,,2,,,58,75
105840,note_on,0,0,3,,,,,,,,,2,,,55,75
105840,note_on,0,0,3,,,,,,,,,2,,,60,75
105840,note_on,0,0,1,,,,,,,,,0,,,94,62
105840,note_on,120,0,2,,,,,,,,,1,,,81,0
105840,note_on,240,0,4,,,,,,,,,3,,,36,0
105840,note_on,240,0,3,,,,,,,,,2,,,52,75
105960,note_on,0,0,2,,,,,,,,,1,,,76,62
105960,note_on,120,0,1,,,,,,,,,0,,,94,0
105960,control_change,0,0,1,,,,,,,,,0,64,0,,
105960,note_on,0,0,1,,,,,,,,,0,,,88,62
105960,note_on,120,0,2,,,,,,,,,1,,,82,0
105960,control_change,0,0,2,,,,,,,,,1,64,0,,
106020,note_on,180,0,4,,,,,,,,,3,,,43,62
106080,note_on,120,0,1,,,,,,,,,0,,,88,0
106080,note_on,120,0,2,,,,,,,,,1,,,76,0
106080,note_on,0,0,2,,,,,,,,,1,,,77,62
106080,note_on,0,0,3,,,,,,,,,2,,,52,0
106080,note_on,0,0,3,,,,,,,,,2,,,58,0
106080,note_on,0,0,4,,,,,,,,,3,,,41,62
106080,note_on,60,0,4,,,,,,,,,3,,,43,0
106080,note_on,0,0,3,,,,,,,,,2,,,55,0
106080,note_on,240,0,3,,,,,,,,,2,,,60,0
106080,note_on,0,0,1,,,,,,,,,0,,,89,62
106200,note_on,0,0,4,,,,,,,,,3,,,40,62
106200,note_on,120,0,4,,,,,,,,,3,,,41,0
106320,note_on,240,0,1,,,,,,,,,0,,,89,0
106320,note_on,120,0,4,,,,,,,,,3,,,40,0
106320,note_on,0,0,1,,,,,,,,,0,,,84,88
106320,note_on,0,0,1,,,,,,,,,0,,,81,88
106320,note_on,240,0,2,,,,,,,,,1,,,77,0
106320,note_on,0,0,2,,,,,,,,,1,,,69,88
106320,note_on,0,0,2,,,,,,,,,1,,,72,88
106320,note_on,240,0,3,,,,,,,,,2,,,53,49
106320,note_on,0,0,3,,,,,,,,,2,,,57,49
106320,note_on,0,0,4,,,,,,,,,3,,,41,62
106320,note_on,0,0,3,,,,,,,,,2,,,60,49
106343,note_on,0,0,1,,,,,,,,,0,,,81,0
106343,note_on,0,0,2,,,,,,,,,1,,,69,0
106343,note_on,23,0,1,,,,,,,,,0,,,84,0
106343,note_on,23,0,2,,,,,,,,,1,,,72,0
106440,note_on,0,0,4,,,,,,,,,3,,,43,62
106440,note_on,120,0,4,,,,,,,,,3,,,41,0
106560,note_on,0,0,1,,,,,,,,,0,,,81,62
106560,note_on,0,0,3,,,,,,,,,2,,,53,0
106560,note_on,0,0,4,,,,,,,,,3,,,45,62
106560,note_on,120,0,4,,,,,,,,,3,,,43,0
106560,note_on,217,0,1,,,,,,,,,0,,,77,62
106560,note_on,217,0,2,,,,,,,,,1,,,65,62
106560,note_on,0,0,3,,,,,,,,,2,,,57,0
106560,note_on,0,0,2,,,,,,,,,1,,,69,62
106560,note_on,240,0,3,,,,,,,,,2,,,60,0
106583,note_on,23,0,1,,,,,,,,,0,,,81,0
106583,note_on,0,0,1,,,,,,,,,0,,,77,0
106583,note_on,23,0,2,,,,,,,,,1,,,69,0
106583,note_on,0,0,2,,,,,,,,,1,,,65,0
106800,note_on,217,0,1,,,,,,,,,0,,,81,62
106800,note_on,0,0,1,,,,,,,,,0,,,84,62
106800,note_on,240,0,4,,,,,,,,,3,,,45,0
106800,note_on,0,0,3,,,,,,,,,2,,,60,49
106800,note_on,0,0,3,,,,,,,,,2,,,57,49
106800,note_on,240,0,3,,,,,,,,,2,,,53,49
106800,note_on,217,0,2,,,,,,,,,1,,,69,62
106800,note_on,0,0,2,,,,,,,,,1,,,72,62
106823,note_on,23,0,2,,,,,,,,,1,,,72,0
106823,note_on,0,0,2,,,,,,,,,1,,,69,0
106823,note_on,0,0,1,,,,,,,,,0,,,81,0
106823,note_on,23,0,1,,,,,,,,,0,,,84,0
107040,control_change,217,0,2,,,,,,,,,1,64,127,,
107040,note_on,0,0,2,,,,,,,,,1,,,77,88
107040,note_on,0,0,1,,,,,,,,,0,,,89,88
107040,control_change,217,0,1,,,,,,,,,0,64,127,,
107040,note_on,240,0,3,,,,,,,,,2,,,60,0
107040,note_on,0,0,3,,,,,,,,,2,,,57,0
107040,note_on,0,0,3,,,,,,,,,2,,,53,0
107040,note_on,240,0,4,,,,,,,,,3,,,41,62
107160,note_on,120,0,2,,,,,,,,,1,,,77,0
107160,note_on,0,0,2,,,,,,,,,1,,,76,62
107160,note_on,0,0,1,,,,,,,,,0,,,88,62
107160,note_on,120,0,1,,,,,,,,,0,,,89,0
107280,note_on,240,0,4,,,,,,,,,3,,,41,0
107280,note_on,0,0,3,,,,,,,,,2,,,59,75
107280,note_on,0,0,2,,,,,,,,,1,,,77,62
107280,note_on,120,0,1,,,,,,,,,0,,,88,0
107280,note_on,120,0,2,,,,,,,,,1,,,76,0
107280,note_on,0,0,3,,,,,,,,,2,,,56,75
107280,note_on,240,0,3,,,,,,,,,2,,,53,75
107280,note_on,0,0,1,,,,,,,,,0,,,89,62
107280,note_on,0,0,3,,,,,,,,,2,,,62,75
107400,note_on,120,0,2,,,,,,,,,1,,,77,0
107400,control_change,0,0,2,,,,,,,,,1,64,0,,
107400,note_on,0,0,2,,,,,,,,,1,,,74,62
107400,note_on,120,0,1,,,,,,,,,0,,,89,0
107400,control_change,0,0,1,,,,,,,,,0,64,0,,
107400,note_on,0,0,1,,,,,,,,,0,,,86,62
107520,note_on,120,0,2,,,,,,,,,1,,,74,0
107520,control_change,0,0,2,,,,,,,,,1,64,127,,
107520,note_on,0,0,2,,,,,,,,,1,,,74,62
107520,note_on,240,0,3,,,,,,,,,2,,,62,0
107520,note_on,0,0,1,,,,,,,,,0,,,86,62
107520,note_on,0,0,3,,,,,,,,,2,,,59,0
107520,note_on,0,0,3,,,,,,,,,2,,,56,0
107520,note_on,0,0,3,,,,,,,,,2,,,53,0
107520,control_change,0,0,1,,,,,,,,,0,64,127,,
107520,note_on,120,0,1,,,,,,,,,0,,,86,0
107640,note_on,120,0,1,,,,,,,,,0,,,86,0
107640,note_on,0,0,1,,,,,,,,,0,,,85,62
107640,note_on,0,0,2,,,,,,,,,1,,,73,62
107640,note_on,120,0,2,,,,,,,,,1,,,74,0
107760,note_on,480,0,4,,,,,,,,,3,,,41,62
107760,note_on,0,0,3,,,,,,,,,2,,,62,49
107760,note_on,0,0,3,,,,,,,,,2,,,57,49
107760,note_on,240,0,3,,,,,,,,,2,,,53,49
107760,note_on,120,0,1,,,,,,,,,0,,,85,0
107760,note_on,0,0,1,,,,,,,,,0,,,86,62
107760,note_on,120,0,2,,,,,,,,,1,,,73,0
107760,note_on,0,0,2,,,,,,,,,1,,,74,62
107880,control_change,0,0,1,,,,,,,,,0,64,0,,
107880,note_on,120,0,1,,,,,,,,,0,,,86,0
107880,note_on,0,0,1,,,,,,,,,0,,,81,62
107880,note_on,0,0,2,,,,,,,,,1,,,69,62
107880,note_on,120,0,2,,,,,,,,,1,,,74,0
107880,control_change,0,0,2,,,,,,,,,1,64,0,,
108000,note_on,240,0,4,,,,,,,,,3,,,41,0
108000,note_on,240,0,3,,,,,,,,,2,,,62,0
108000,note_on,0,0,3,,,,,,,,,2,,,57,0
108000,note_on,0,0,3,,,,,,,,,2,,,53,0
108000,note_on,0,0,1,,,,,,,,,0,,,81,62
108000,control_change,0,0,1,,,,,,,,,0,64,127,,
108000,note_on,120,0,1,,,,,,,,,0,,,81,0
108000,control_change,0,0,2,,,,,,,,,1,64,127,,
108000,note_on,120,0,2,,,,,,,,,1,,,69,0
108000,note_on,0,0,2,,,,,,,,,1,,,69,62
108120,note_on,120,0,1,,,,,,,,,0,,,81,0
108120,note_on,120,0,2,,,,,,,,,1,,,69,0
108120,note_on,0,0,2,,,,,,,,,1,,,68,62
108120,note_on,0,0,1,,,,,,,,,0,,,80,62
108240,note_on,120,0,1,,,,,,,,,0,,,80,0
108240,note_on,120,0,2,,,,,,,,,1,,,68,0
108240,note_on,0,0,1,,,,,,,,,0,,,81,62
108240,note_on,0,0,3,,,,,,,,,2,,,57,49
108240,note_on,0,0,3,,,,,,,,,2,,,53,49
108240,note_on,240,0,3,,,,,,,,,2,,,50,49
108240,note_on,240,0,4,,,,,,,,,3,,,45,62
108240,note_on,0,0,2,,,,,,,,,1,,,69,62
108360,note_on,0,0,1,,,,,,,,,0,,,77,62
108360,note_on,120,0,1,,,,,,,,,0,,,81,0
108360,note_on,120,0,2,,,,,,,,,1,,,69,0
108360,note_on,0,0,2,,,,,,,,,1,,,65,62
108480,note_on,0,0,3,,,,,,,,,2,,,50,0
108480,note_on,0,0,3,,,,,,,,,2,,,53,0
108480,note_on,240,0,3,,,,,,,,,2,,,57,0
108480,note_on,0,0,2,,,,,,,,,1,,,64,62
108480,note_on,240,0,4,,,,,,,,,3,,,45,0
108480,note_on,120,0,2,,,,,,,,,1,,,65,0
108480,note_on,120,0,1,,,,,,,,,0,,,77,0
108480,note_on,0,0,1,,,,,,,,,0,,,76,62
108600,note_on,0,0,2,,,,,,,,,1,,,67,62
108600,note_on,120,0,2,,,,,,,,,1,,,64,0
108600,note_on,0,0,1,,,,,,,,,0,,,79,62
108600,note_on,120,0,1,,,,,,,,,0,,,76,0
108720,note_on,0,0,2,,,,,,,,,1,,,70,62
108720,note_on,120,0,2,,,,,,,,,1,,,67,0
108720,note_on,0,0,1,,,,,,,,,0,,,82,62
108720,note_on,240,0,3,,,,,,,,,2,,,49,49
108720,note_on,0,0,3,,,,,,,,,2,,,55,49
108720,note_on,0,0,3,,,,,,,,,2,,,57,49
108720,note_on,0,0,4,,,,,,,,,3,,,45,62
108720,note_on,120,0,1,,,,,,,,,0,,,79,0
108720,note_on,240,0,4,,,,,,,,,3,,,33,62
108840,note_on,120,0,2,,,,,,,,,1,,,70,0
108840,control_change,0,0,1,,,,,,,,,0,64,0,,
108840,note_on,0,0,1,,,,,,,,,0,,,81,62
108840,control_change,0,0,2,,,,,,,,,1,64,0,,
108840,note_on,0,0,2,,,,,,,,,1,,,69,62
108840,note_on,120,0,1,,,,,,,,,0,,,82,0
108960,note_on,0,0,2,,,,,,,,,1,,,62,62
108960,note_on,240,0,3,,,,,,,,,2,,,57,0
108960,note_on,240,0,4,,,,,,,,,3,,,45,0
108960,note_on,0,0,4,,,,,,,,,3,,,33,0
108960,control_change,0,0,4,,,,,,,,,3,64,127,,
108960,note_on,0,0,4,,,,,,,,,3,,,38,62
108960,note_on,0,0,3,,,,,,,,,2,,,55,0
108960,note_on,0,0,3,,,,,,,,,2,,,49,0
108960,note_on,0,0,1,,,,,,,,,0,,,74,62
108960,note_on,120,0,1,,,,,,,,,0,,,81,0
108960,note_on,0,0,3,,,,,,,,,2,,,50,49
108960,note_on,120,0,2,,,,,,,,,1,,,69,0
108960,control_change,0,0,3,,,,,,,,,2,64,127,,
109080,note_on,0,0,4,,,,,,,,,3,,,37,62
109080,note_on,120,0,4,,,,,,,,,3,,,38,0
109080,note_on,120,0,3,,,,,,,,,2,,,50,0
109080,note_on,0,0,3,,,,,,,,,2,,,49,49
109200,note_on,120,0,3,,,,,,,,,2,,,49,0
109200,note_on,120,0,4,,,,,,,,,3,,,37,0
109200,note_on,0,0,3,,,,,,,,,2,,,50,49
109200,note_on,0,0,4,,,,,,,,,3,,,38,62
109320,note_on,0,0,3,,,,,,,,,2,,,52,49
109320,note_on,0,0,4,,,,,,,,,3,,,40,62
109320,note_on,120,0,4,,,,,,,,,3,,,38,0
109320,note_on,120,0,3,,,,,,,,,2,,,50,0
109440,note_on,0,0,4,,,,,,,,,3,,,41,62
109440,note_on,480,0,1,,,,,,,,,0,,,74,0
109440,note_on,120,0,4,,,,,,,,,3,,,40,0
109440,note_on,0,0,3,,,,,,,,,2,,,53,49
109440,note_on,120,0,3,,,,,,,,,2,,,52,0
109440,note_on,480,0,2,,,,,,,,,1,,,62,0
109560,note_on,120,0,3,,,,,,,,,2,,,53,0
109560,note_on,0,0,3,,,,,,,,,2,,,52,49
109560,note_on,120,0,4,,,,,,,,,3,,,41,0
109560,note_on,0,0,4,,,,,,,,,3,,,40,62
109680,note_on,120,0,3,,,,,,,,,2,,,52,0
109680,note_on,0,0,2,,,,,,,,,1,,,65,62
109680,note_on,0,0,2,,,,,,,,,1,,,69,62
109680,control_change,240,0,1,,,,,,,,,0,64,127,,
109680,note_on,0,0,1,,,,,,,,,0,,,77,62
109680,note_on,0,0,1,,,,,,,,,0,,,81,62
109680,control_change,240,0,2,,,,,,,,,1,64,127,,
109680,note_on,0,0,1,,,,,,,,,0,,,89,62
109680,note_on,0,0,4,,,,,,,,,3,,,41,62
109680,note_on,0,0,3,,,,,,,,,2,,,53,49
109680,note_on,120,0,4,,,,,,,,,3,,,40,0
109800,note_on,120,0,4,,,,,,,,,3,,,41,0
109800,note_on,0,0,4,,,,,,,,,3,,,43,62
109800,note_on,120,0,3,,,,,,,,,2,,,53,0
109800,note_on,0,0,3,,,,,,,,,2,,,55,49
109920,note_on,240,0,1,,,,,,,,,0,,,89,0
109920,note_on,240,0,2,,,,,,,,,1,,,69,0
109920,note_on,0,0,2,,,,,,,,,1,,,65,0
109920,note_on,0,0,2,,,,,,,,,1,,,65,62
109920,note_on,0,0,1,,,,,,,,,0,,,81,62
109920,note_on,0,0,1,,,,,,,,,0,,,88,62
109920,note_on,0,0,1,,,,,,,,,0,,,77,62
109920,note_on,0,0,4,,,,,,,,,3,,,45,62
109920,note_on,120,0,4,,,,,,,,,3,,,43,0
109920,note_on,0,0,1,,,,,,,,,0,,,77,0
109920,note_on,0,0,2,,,,,,,,,1,,,69,62
109920,note_on,0,0,1,,,,,,,,,0,,,81,0
109920,note_on,0,0,2,,,,,,,,,1,,,76,62
109920,note_on,120,0,3,,,,,,,,,2,,,55,0
109920,note_on,0,0,3,,,,,,,,,2,,,57,49
110040,note_on,0,0,4,,,,,,,,,3,,,44,62
110040,note_on,120,0,4,,,,,,,,,3,,,45,0
110040,note_on,120,0,3,,,,,,,,,2,,,57,0
110040,note_on,0,0,3,,,,,,,,,2,,,56,49
110160,control_change,0,0,1,,,,,,,,,0,64,0,,
110160,note_on,0,0,4,,,,,,,,,3,,,45,62
110160,note_on,120,0,4,,,,,,,,,3,,,44,0
110160,note_on,120,0,3,,,,,,,,,2,,,56,0
110160,note_on,0,0,3,,,,,,,,,2,,,57,49
110160,note_on,240,0,1,,,,,,,,,0,,,88,0
110160,note_on,0,0,1,,,,,,,,,0,,,77,0
110160,note_on,0,0,1,,,,,,,,,0,,,77,62
110160,note_on,0,0,1,,,,,,,,,0,,,81,62
110160,note_on,0,0,2,,,,,,,,,1,,,74,62
110160,note_on,0,0,1,,,,,,,,,0,,,81,0
110160,note_on,0,0,2,,,,,,,,,1,,,65,62
110160,note_on,240,0,2,,,,,,,,,1,,,76,0
110160,note_on,0,0,2,,,,,,,,,1,,,69,0
110160,control_change,0,0,2,,,,,,,,,1,64,0,,
110160,note_on,0,0,2,,,,,,,,,1,,,65,0
110160,note_on,0,0,1,,,,,,,,,0,,,86,62
110160,note_on,0,0,2,,,,,,,,,1,,,69,62
110280,note_on,120,0,4,,,,,,,,,3,,,45,0
110280,control_change,0,0,4,,,,,,,,,3,64,0,,
110280,note_on,0,0,4,,,,,,,,,3,,,41,62
110280,note_on,120,0,3,,,,,,,,,2,,,57,0
110280,control_change,0,0,3,,,,,,,,,2,64,0,,
110280,note_on,0,0,3,,,,,,,,,2,,,53,49
110400,note_on,0,0,1,,,,,,,,,0,,,81,0
110400,note_on,0,0,1,,,,,,,,,0,,,77,0
110400,note_on,0,0,1,,,,,,,,,0,,,74,62
110400,note_on,120,0,3,,,,,,,,,2,,,53,0
110400,note_on,0,0,1,,,,,,,,,0,,,86,62
110400,control_change,0,0,1,,,,,,,,,0,64,127,,
110400,note_on,120,0,4,,,,,,,,,3,,,41,0
110400,note_on,0,0,4,,,,,,,,,3,,,46,88
110400,note_on,240,0,1,,,,,,,,,0,,,86,0
110400,note_on,0,0,2,,,,,,,,,1,,,65,0
110400,note_on,0,0,2,,,,,,,,,1,,,64,62
110400,note_on,0,0,2,,,,,,,,,1,,,67,62
110400,note_on,0,0,2,,,,,,,,,1,,,76,62
110400,note_on,0,0,2,,,,,,,,,1,,,79,62
110400,note_on,0,0,3,,,,,,,,,2,,,58,75
110400,note_on,0,0,2,,,,,,,,,1,,,69,0
110400,note_on,240,0,2,,,,,,,,,1,,,74,0
110520,note_on,0,0,1,,,,,,,,,0,,,74,0
110520,note_on,0,0,1,,,,,,,,,0,,,73,62
110520,note_on,120,0,1,,,,,,,,,0,,,86,0
110520,note_on,0,0,1,,,,,,,,,0,,,85,62
110640,note_on,120,0,1,,,,,,,,,0,,,85,0
110640,note_on,0,0,1,,,,,,,,,0,,,73,0
110640,note_on,0,0,1,,,,,,,,,0,,,72,62
110640,note_on,0,0,1,,,,,,,,,0,,,84,62
110760,note_on,0,0,1,,,,,,,,,0,,,85,62
110760,note_on,0,0,1,,,,,,,,,0,,,73,62
110760,note_on,120,0,1,,,,,,,,,0,,,84,0
110760,note_on,0,0,1,,,,,,,,,0,,,72,0
110880,note_on,120,0,1,,,,,,,,,0,,,85,0
110880,control_change,0,0,1,,,,,,,,,0,64,0,,
110880,note_on,0,0,1,,,,,,,,,0,,,84,62
110880,note_on,0,0,1,,,,,,,,,0,,,72,62
110880,note_on,0,0,1,,,,,,,,,0,,,73,0
111000,note_on,0,0,3,,,,,,,,,2,,,48,49
111000,note_on,600,0,4,,,,,,,,,3,,,46,0
111000,control_change,0,0,3,,,,,,,,,2,64,127,,
111000,note_on,600,0,3,,,,,,,,,2,,,58,0
111000,control_change,0,0,4,,,,,,,,,3,64,127,,
111000,note_on,0,0,4,,,,,,,,,3,,,36,62
111120,note_on,120,0,3,,,,,,,,,2,,,48,0
111120,note_on,0,0,3,,,,,,,,,2,,,47,49
111120,note_on,0,0,4,,,,,,,,,3,,,35,62
111120,note_on,120,0,4,,,,,,,,,3,,,36,0
111240,note_on,0,0,4,,,,,,,,,3,,,36,62
111240,note_on,120,0,4,,,,,,,,,3,,,35,0
111240,note_on,120,0,3,,,,,,,,,2,,,47,0
111240,note_on,0,0,3,,,,,,,,,2,,,48,49
111360,note_on,0,0,4,,,,,,,,,3,,,40,62
111360,note_on,120,0,3,,,,,,,,,2,,,48,0
111360,note_on,0,0,3,,,,,,,,,2,,,52,49
111360,note_on,120,0,4,,,,,,,,,3,,,36,0
111480,note_on,120,0,3,,,,,,,,,2,,,52,0
111480,note_on,120,0,4,,,,,,,,,3,,,40,0
111480,note_on,0,0,4,,,,,,,,,3,,,36,62
111480,note_on,0,0,3,,,,,,,,,2,,,48,49
111600,note_on,120,0,3,,,,,,,,,2,,,48,0
111600,note_on,0,0,4,,,,,,,,,3,,,40,62
111600,note_on,120,0,4,,,,,,,,,3,,,36,0
111600,note_on,0,0,3,,,,,,,,,2,,,52,49
111720,control_change,0,0,3,,,,,,,,,2,64,0,,
111720,note_on,0,0,3,,,,,,,,,2,,,55,49
111720,note_on,120,0,4,,,,,,,,,3,,,40,0
111720,note_on,0,0,4,,,,,,,,,3,,,43,62
111720,note_on,120,0,3,,,,,,,,,2,,,52,0
111720,control_change,0,0,4,,,,,,,,,3,64,0,,
111840,note_on,0,0,2,,,,,,,,,1,,,64,0
111840,note_on,120,0,3,,,,,,,,,2,,,55,0
111840,control_change,0,0,3,,,,,,,,,2,64,127,,
111840,note_on,120,0,4,,,,,,,,,3,,,43,0
111840,control_change,0,0,4,,,,,,,,,3,64,127,,
111840,note_on,0,0,4,,,,,,,,,3,,,46,88
111840,note_on,0,0,2,,,,,,,,,1,,,79,62
111840,note_on,0,0,2,,,,,,,,,1,,,76,62
111840,note_on,960,0,1,,,,,,,,,0,,,84,0
111840,note_on,0,0,1,,,,,,,,,0,,,72,0
111840,note_on,1440,0,2,,,,,,,,,1,,,79,0
111840,note_on,0,0,1,,,,,,,,,0,,,74,62
111840,control_change,0,0,1,,,,,,,,,0,64,127,,
111840,note_on,0,0,3,,,,,,,,,2,,,58,75
111840,note_on,0,0,2,,,,,,,,,1,,,67,62
111840,note_on,0,0,2,,,,,,,,,1,,,64,62
111840,note_on,0,0,2,,,,,,,,,1,,,76,0
111840,note_on,0,0,2,,,,,,,,,1,,,67,0
111840,note_on,0,0,1,,,,,,,,,0,,,86,62
111960,note_on,0,0,1,,,,,,,,,0,,,74,0
111960,note_on,0,0,1,,,,,,,,,0,,,73,62
111960,note_on,0,0,1,,,,,,,,,0,,,85,62
111960,note_on,120,0,1,,,,,,,,,0,,,86,0
112080,note_on,0,0,1,,,,,,,,,0,,,84,62
112080,note_on,0,0,1,,,,,,,,,0,,,73,0
112080,note_on,120,0,1,,,,,,,,,0,,,85,0
112080,note_on,0,0,1,,,,,,,,,0,,,72,62
112200,note_on,120,0,1,,,,,,,,,0,,,84,0
112200,note_on,0,0,1,,,,,,,,,0,,,72,0
112200,note_on,0,0,1,,,,,,,,,0,,,73,62
112200,note_on,0,0,1,,,,,,,,,0,,,85,62
112320,note_on,120,0,1,,,,,,,,,0,,,85,0
112320,note_on,0,0,1,,,,,,,,,0,,,73,0
112320,note_on,0,0,1,,,,,,,,,0,,,72,62
112320,note_on,0,0,1,,,,,,,,,0,,,84,62
112320,control_change,0,0,1,,,,,,,,,0,64,0,,
112440,note_on,0,0,4,,,,,,,,,3,,,36,62
112440,note_on,600,0,3,,,,,,,,,2,,,58,0
112440,note_on,0,0,3,,,,,,,,,2,,,48,49
112440,note_on,600,0,4,,,,,,,,,3,,,46,0
112560,note_on,0,0,4,,,,,,,,,3,,,35,62
112560,note_on,120,0,3,,,,,,,,,2,,,48,0
112560,note_on,120,0,4,,,,,,,,,3,,,36,0
112560,note_on,0,0,3,,,,,,,,,2,,,47,49
112680,note_on,120,0,4,,,,,,,,,3,,,35,0
112680,note_on,0,0,3,,,,,,,,,2,,,48,49
112680,note_on,120,0,3,,,,,,,,,2,,,47,0
112680,note_on,0,0,4,,,,,,,,,3,,,36,62
112800,note_on,120,0,3,,,,,,,,,2,,,48,0
112800,note_on,120,0,4,,,,,,,,,3,,,36,0
112800,note_on,0,0,4,,,,,,,,,3,,,40,62
112800,note_on,0,0,3,,,,,,,,,2,,,52,49
112920,note_on,120,0,3,,,,,,,,,2,,,52,0
112920,note_on,0,0,3,,,,,,,,,2,,,48,49
112920,note_on,120,0,4,,,,,,,,,3,,,40,0
112920,note_on,0,0,4,,,,,,,,,3,,,36,62
113040,note_on,120,0,3,,,,,,,,,2,,,48,0
113040,note_on,0,0,3,,,,,,,,,2,,,52,49
113040,note_on,0,0,4,,,,,,,,,3,,,40,62
113040,note_on,120,0,4,,,,,,,,,3,,,36,0
113160,control_change,0,0,3,,,,,,,,,2,64,0,,
113160,note_on,0,0,4,,,,,,,,,3,,,43,62
113160,note_on,120,0,3,,,,,,,,,2,,,52,0
113160,control_change,0,0,4,,,,,,,,,3,64,0,,
113160,note_on,0,0,3,,,,,,,,,2,,,55,49
113160,note_on,120,0,4,,,,,,,,,3,,,40,0
113280,control_change,0,0,4,,,,,,,,,3,64,127,,
113280,note_on,120,0,4,,,,,,,,,3,,,43,0
113280,note_on,0,0,2,,,,,,,,,1,,,76,0
113280,note_on,0,0,2,,,,,,,,,1,,,67,0
113280,note_on,0,0,3,,,,,,,,,2,,,58,49
113280,control_change,0,0,3,,,,,,,,,2,64,127,,
113280,note_on,120,0,3,,,,,,,,,2,,,55,0
113280,note_on,0,0,2,,,,,,,,,1,,,64,0
113280,note_on,1440,0,2,,,,,,,,,1,,,79,0
113280,note_on,0,0,1,,,,,,,,,0,,,72,0
113280,note_on,960,0,1,,,,,,,,,0,,,84,0
113280,note_on,0,0,4,,,,,,,,,3,,,46,62
113400,note_on,0,0,4,,,,,,,,,3,,,45,62
113400,note_on,120,0,4,,,,,,,,,3,,,46,0
113400,note_on,120,0,3,,,,,,,,,2,,,58,0
113400,note_on,0,0,3,,,,,,,,,2,,,57,49
113520,note_on,0,0,4,,,,,,,,,3,,,43,62
113520,note_on,120,0,4,,,,,,,,,3,,,45,0
113520,note_on,240,0,1,,,,,,,,,0,,,79,62
113520,note_on,0,0,1,,,,,,,,,0,,,84,62
113520,note_on,0,0,1,,,,,,,,,0,,,88,62
113520,note_on,0,0,3,,,,,,,,,2,,,55,49
113520,note_on,120,0,3,,,,,,,,,2,,,57,0
113520,note_on,240,0,2,,,,,,,,,1,,,67,62
113520,note_on,0,0,2,,,,,,,,,1,,,72,62
113520,note_on,0,0,2,,,,,,,,,1,,,76,62
113543,note_on,0,0,1,,,,,,,,,0,,,79,0
113543,note_on,23,0,2,,,,,,,,,1,,,76,0
113543,note_on,0,0,2,,,,,,,,,1,,,72,0
113543,note_on,0,0,2,,,,,,,,,1,,,67,0
113543,note_on,23,0,1,,,,,,,,,0,,,88,0
113543,note_on,0,0,1,,,,,,,,,0,,,84,0
113640,note_on,120,0,3,,,,,,,,,2,,,55,0
113640,note_on,0,0,3,,,,,,,,,2,,,53,49
113640,note_on,0,0,4,,,,,,,,,3,,,41,62
113640,note_on,120,0,4,,,,,,,,,3,,,43,0
113760,note_on,120,0,3,,,,,,,,,2,,,53,0
113760,note_on,0,0,3,,,,,,,,,2,,,52,62
113760,note_on,0,0,4,,,,,,,,,3,,,40,75
113760,note_on,120,0,4,,,,,,,,,3,,,41,0
113880,note_on,0,0,4,,,,,,,,,3,,,38,75
113880,note_on,120,0,4,,,,,,,,,3,,,40,0
113880,note_on,120,0,3,,,,,,,,,2,,,52,0
113880,note_on,0,0,3,,,,,,,,,2,,,50,62
114000,note_on,0,0,2,,,,,,,,,1,,,76,75
114000,note_on,0,0,2,,,,,,,,,1,,,79,75
114000,note_on,457,0,1,,,,,,,,,0,,,84,75
114000,note_on,0,0,4,,,,,,,,,3,,,36,75
114000,note_on,120,0,4,,,,,,,,,3,,,38,0
114000,note_on,0,0,1,,,,,,,,,0,,,88,75
114000,note_on,0,0,1,,,,,,,,,0,,,91,75
114000,note_on,0,0,3,,,,,,,,,2,,,48,62
114000,note_on,120,0,3,,,,,,,,,2,,,50,0
114000,note_on,457,0,2,,,,,,,,,1,,,72,75
114023,note_on,23,0,1,,,,,,,,,0,,,91,0
114023,note_on,0,0,1,,,,,,,,,0,,,88,0
114023,note_on,0,0,2,,,,,,,,,1,,,72,0
114023,note_on,23,0,2,,,,,,,,,1,,,79,0
114023,note_on,0,0,1,,,,,,,,,0,,,84,0
114023,note_on,0,0,2,,,,,,,,,1,,,76,0
114120,note_on,120,0,3,,,,,,,,,2,,,48,0
114120,note_on,0,0,3,,,,,,,,,2,,,47,62
114120,note_on,120,0,4,,,,,,,,,3,,,36,0
114120,note_on,0,0,4,,,,,,,,,3,,,35,75
114240,note_on,120,0,3,,,,,,,,,2,,,47,0
114240,note_on,0,0,3,,,,,,,,,2,,,46,75
114240,note_on,120,0,4,,,,,,,,,3,,,35,0
114240,note_on,0,0,4,,,,,,,,,3,,,34,88
114240,set_tempo,11040,1,0,,,,,,750000,,,,,,,
114360,note_on,0,0,3,,,,,,,,,2,,,45,75
114360,note_on,120,0,3,,,,,,,,,2,,,46,0
114360,note_on,0,0,4,,,,,,,,,3,,,33,88
114360,note_on,120,0,4,,,,,,,,,3,,,34,0
114480,note_on,0,0,1,,,,,,,,,0,,,91,75
114480,note_on,0,0,2,,,,,,,,,1,,,84,75
114480,note_on,457,0,1,,,,,,,,,0,,,88,75
114480,note_on,0,0,3,,,,,,,,,2,,,43,75
114480,note_on,120,0,3,,,,,,,,,2,,,45,0
114480,note_on,0,0,2,,,,,,,,,1,,,79,75
114480,note_on,0,0,4,,,,,,,,,3,,,31,88
114480,note_on,120,0,4,,,,,,,,,3,,,33,0
114480,note_on,457,0,2,,,,,,,,,1,,,76,75
114480,note_on,0,0,1,,,,,,,,,0,,,96,75
114503,note_on,23,0,2,,,,,,,,,1,,,84,0
114503,note_on,0,0,2,,,,,,,,,1,,,79,0
114503,note_on,0,0,2,,,,,,,,,1,,,76,0
114503,note_on,23,0,1,,,,,,,,,0,,,96,0
114503,note_on,0,0,1,,,,,,,,,0,,,91,0
114503,note_on,0,0,1,,,,,,,,,0,,,88,0
114600,note_on,120,0,3,,,,,,,,,2,,,43,0
114600,note_on,120,0,4,,,,,,,,,3,,,31,0
114600,control_change,0,0,4,,,,,,,,,3,64,0,,
114600,note_on,0,0,4,,,,,,,,,3,,,36,88
114600,note_on,0,0,3,,,,,,,,,2,,,48,75
114600,control_change,0,0,3,,,,,,,,,2,64,0,,
114660,note_on,60,0,4,,,,,,,,,3,,,43,88
114720,note_on,60,0,4,,,,,,,,,3,,,43,0
114720,control_change,0,0,4,,,,,,,,,3,64,127,,
114720,note_on,0,0,4,,,,,,,,,3,,,36,0
114720,note_on,0,0,4,,,,,,,,,3,,,41,62
114720,note_on,120,0,3,,,,,,,,,2,,,48,0
114720,set_tempo,480,1,0,,,,,,600000,,,,,,,
114840,note_on,0,0,4,,,,,,,,,3,,,40,62
114840,note_on,120,0,4,,,,,,,,,3,,,41,0
114960,note_on,120,0,4,,,,,,,,,3,,,40,0
114960,note_on,0,0,3,,,,,,,,,2,,,60,49
114960,note_on,0,0,3,,,,,,,,,2,,,57,49
114960,note_on,240,0,3,,,,,,,,,2,,,53,49
114960,note_on,457,0,2,,,,,,,,,1,,,69,88
114960,note_on,0,0,2,,,,,,,,,1,,,72,88
114960,note_on,0,0,1,,,,,,,,,0,,,84,88
114960,note_on,0,0,4,,,,,,,,,3,,,41,62
114960,note_on,457,0,1,,,,,,,,,0,,,81,88
114983,note_on,23,0,1,,,,,,,,,0,,,84,0
114983,note_on,0,0,2,,,,,,,,,1,,,69,0
114983,note_on,0,0,1,,,,,,,,,0,,,81,0
114983,note_on,23,0,2,,,,,,,,,1,,,72,0
115080,note_on,0,0,4,,,,,,,,,3,,,43,62
115080,note_on,120,0,4,,,,,,,,,3,,,41,0
115080,control_change,0,0,4,,,,,,,,,3,64,0,,
115200,note_on,217,0,2,,,,,,,,,1,,,65,62
115200,note_on,0,0,2,,,,,,,,,1,,,69,62
115200,note_on,217,0,1,,,,,,,,,0,,,77,62
115200,note_on,0,0,1,,,,,,,,,0,,,81,62
115200,note_on,0,0,3,,,,,,,,,2,,,57,0
115200,note_on,120,0,4,,,,,,,,,3,,,43,0
115200,note_on,0,0,4,,,,,,,,,3,,,45,62
115200,note_on,240,0,3,,,,,,,,,2,,,60,0
115200,note_on,0,0,3,,,,,,,,,2,,,53,0
115223,note_on,0,0,2,,,,,,,,,1,,,65,0
115223,note_on,23,0,2,,,,,,,,,1,,,69,0
115223,note_on,23,0,1,,,,,,,,,0,,,81,0
115223,note_on,0,0,1,,,,,,,,,0,,,77,0
115440,note_on,240,0,4,,,,,,,,,3,,,45,0
115440,note_on,217,0,2,,,,,,,,,1,,,69,62
115440,note_on,0,0,2,,,,,,,,,1,,,72,62
115440,note_on,0,0,3,,,,,,,,,2,,,60,49
115440,note_on,0,0,3,,,,,,,,,2,,,57,49
115440,note_on,240,0,3,,,,,,,,,2,,,53,49
115440,note_on,217,0,1,,,,,,,,,0,,,81,62
115440,note_on,0,0,1,,,,,,,,,0,,,84,62
115463,note_on,23,0,1,,,,,,,,,0,,,84,0
115463,note_on,0,0,1,,,,,,,,,0,,,81,0
115463,note_on,0,0,2,,,,,,,,,1,,,69,0
115463,note_on,23,0,2,,,,,,,,,1,,,72,0
115680,control_change,217,0,2,,,,,,,,,1,64,127,,
115680,note_on,0,0,2,,,,,,,,,1,,,77,88
115680,note_on,240,0,4,,,,,,,,,3,,,41,62
115680,note_on,240,0,3,,,,,,,,,2,,,60,0
115680,note_on,0,0,3,,,,,,,,,2,,,57,0
115680,note_on,0,0,3,,,,,,,,,2,,,53,0
115680,note_on,0,0,1,,,,,,,,,0,,,89,88
115680,control_change,217,0,1,,,,,,,,,0,64,127,,
115800,note_on,0,0,1,,,,,,,,,0,,,88,62
115800,note_on,120,0,1,,,,,,,,,0,,,89,0
115800,note_on,120,0,2,,,,,,,,,1,,,77,0
115800,note_on,0,0,2,,,,,,,,,1,,,76,62
115920,note_on,240,0,3,,,,,,,,,2,,,53,75
115920,note_on,0,0,3,,,,,,,,,2,,,56,75
115920,note_on,240,0,4,,,,,,,,,3,,,41,0
115920,note_on,0,0,2,,,,,,,,,1,,,77,62
115920,note_on,0,0,3,,,,,,,,,2,,,62,75
115920,note_on,0,0,3,,,,,,,,,2,,,59,75
115920,note_on,0,0,1,,,,,,,,,0,,,89,62
115920,note_on,120,0,1,,,,,,,,,0,,,88,0
115920,note_on,120,0,2,,,,,,,,,1,,,76,0
116040,note_on,120,0,2,,,,,,,,,1,,,77,0
116040,note_on,0,0,2,,,,,,,,,1,,,74,62
116040,note_on,0,0,1,,,,,,,,,0,,,86,62
116040,note_on,120,0,1,,,,,,,,,0,,,89,0
116100,note_on,180,0,4,,,,,,,,,3,,,38,62
116160,note_on,0,0,3,,,,,,,,,2,,,56,0
116160,note_on,0,0,3,,,,,,,,,2,,,59,0
116160,note_on,240,0,3,,,,,,,,,2,,,62,0
116160,note_on,60,0,4,,,,,,,,,3,,,38,0
116160,note_on,0,0,3,,,,,,,,,2,,,53,0
116160,control_change,0,0,4,,,,,,,,,3,64,127,,
116160,note_on,0,0,4,,,,,,,,,3,,,36,62
116160,note_on,120,0,1,,,,,,,,,0,,,86,0
116160,control_change,0,0,1,,,,,,,,,0,64,0,,
116160,note_on,0,0,1,,,,,,,,,0,,,84,62
116160,note_on,120,0,2,,,,,,,,,1,,,74,0
116160,note_on,0,0,2,,,,,,,,,1,,,72,62
116160,control_change,0,0,2,,,,,,,,,1,64,0,,
116183,note_on,23,0,2,,,,,,,,,1,,,72,0
116183,note_on,23,0,1,,,,,,,,,0,,,84,0
116280,note_on,120,0,4,,,,,,,,,3,,,36,0
116280,note_on,0,0,4,,,,,,,,,3,,,35,62
116400,note_on,0,0,3,,,,,,,,,2,,,60,49
116400,note_on,0,0,3,,,,,,,,,2,,,55,49
116400,note_on,240,0,3,,,,,,,,,2,,,52,49
116400,note_on,0,0,1,,,,,,,,,0,,,82,88
116400,note_on,0,0,1,,,,,,,,,0,,,84,88
116400,note_on,217,0,2,,,,,,,,,1,,,67,88
116400,note_on,120,0,4,,,,,,,,,3,,,35,0
116400,note_on,217,0,1,,,,,,,,,0,,,79,88
116400,note_on,0,0,2,,,,,,,,,1,,,70,88
116400,note_on,0,0,2,,,,,,,,,1,,,72,88
116400,note_on,0,0,4,,,,,,,,,3,,,36,62
116423,note_on,0,0,1,,,,,,,,,0,,,82,0
116423,note_on,23,0,2,,,,,,,,,1,,,72,0
116423,note_on,0,0,1,,,,,,,,,0,,,79,0
116423,note_on,0,0,2,,,,,,,,,1,,,67,0
116423,note_on,23,0,1,,,,,,,,,0,,,84,0
116423,note_on,0,0,2,,,,,,,,,1,,,70,0
116520,control_change,0,0,4,,,,,,,,,3,64,0,,
116520,note_on,120,0,4,,,,,,,,,3,,,36,0
116520,note_on,0,0,4,,,,,,,,,3,,,38,62
116640,note_on,0,0,3,,,,,,,,,2,,,52,0
116640,note_on,0,0,4,,,,,,,,,3,,,40,62
116640,note_on,217,0,2,,,,,,,,,1,,,60,62
116640,note_on,0,0,2,,,,,,,,,1,,,67,62
116640,note_on,0,0,2,,,,,,,,,1,,,70,62
116640,note_on,120,0,4,,,,,,,,,3,,,38,0
116640,note_on,240,0,3,,,,,,,,,2,,,60,0
116640,note_on,0,0,3,,,,,,,,,2,,,55,0
116640,note_on,0,0,1,,,,,,,,,0,,,82,62
116640,note_on,0,0,1,,,,,,,,,0,,,79,62
116640,note_on,217,0,1,,,,,,,,,0,,,72,62
116663,note_on,0,0,1,,,,,,,,,0,,,79,0
116663,note_on,23,0,1,,,,,,,,,0,,,82,0
116663,note_on,0,0,2,,,,,,,,,1,,,60,0
116663,note_on,0,0,2,,,,,,,,,1,,,67,0
116663,note_on,23,0,2,,,,,,,,,1,,,70,0
116663,note_on,0,0,1,,,,,,,,,0,,,72,0
116880,note_on,240,0,3,,,,,,,,,2,,,52,49
116880,note_on,217,0,1,,,,,,,,,0,,,79,62
116880,note_on,0,0,3,,,,,,,,,2,,,55,49
116880,note_on,0,0,1,,,,,,,,,0,,,82,62
116880,note_on,0,0,1,,,,,,,,,0,,,84,62
116880,note_on,0,0,2,,,,,,,,,1,,,72,62
116880,note_on,0,0,2,,,,,,,,,1,,,70,62
116880,note_on,217,0,2,,,,,,,,,1,,,67,62
116880,note_on,240,0,4,,,,,,,,,3,,,40,0
116880,note_on,0,0,3,,,,,,,,,2,,,60,49
116903,note_on,23,0,1,,,,,,,,,0,,,84,0
116903,note_on,0,0,1,,,,,,,,,0,,,79,0
116903,note_on,0,0,1,,,,,,,,,0,,,82,0
116903,note_on,23,0,2,,,,,,,,,1,,,72,0
116903,note_on,0,0,2,,,,,,,,,1,,,70,0
116903,note_on,0,0,2,,,,,,,,,1,,,67,0
117120,note_on,0,0,3,,,,,,,,,2,,,55,0
117120,control_change,217,0,2,,,,,,,,,1,64,127,,
117120,note_on,0,0,2,,,,,,,,,1,,,82,88
117120,note_on,240,0,4,,,,,,,,,3,,,36,62
117120,note_on,240,0,3,,,,,,,,,2,,,60,0
117120,note_on,0,0,1,,,,,,,,,0,,,94,88
117120,control_change,217,0,1,,,,,,,,,0,64,127,,
117120,note_on,0,0,3,,,,,,,,,2,,,52,0
117240,note_on,0,0,1,,,,,,,,,0,,,93,62
117240,note_on,120,0,1,,,,,,,,,0,,,94,0
117240,note_on,120,0,2,,,,,,,,,1,,,82,0
117240,note_on,0,0,2,,,,,,,,,1,,,81,62
117360,note_on,0,0,1,,,,,,,,,0,,,94,62
117360,note_on,120,0,1,,,,,,,,,0,,,93,0
117360,note_on,0,0,2,,,,,,,,,1,,,82,62
117360,note_on,0,0,3,,,,,,,,,2,,,60,75
117360,note_on,0,0,3,,,,,,,,,2,,,58,75
117360,note_on,0,0,3,,,,,,,,,2,,,55,75
117360,note_on,240,0,3,,,,,,,,,2,,,52,75
117360,note_on,120,0,2,,,,,,,,,1,,,81,0
117360,note_on,240,0,4,,,,,,,,,3,,,36,0
117480,note_on,0,0,1,,,,,,,,,0,,,88,62
117480,note_on,120,0,2,,,,,,,,,1,,,82,0
117480,note_on,0,0,2,,,,,,,,,1,,,76,62
117480,note_on,120,0,1,,,,,,,,,0,,,94,0
117540,note_on,180,0,4,,,,,,,,,3,,,43,62
117600,note_on,0,0,3,,,,,,,,,2,,,58,0
117600,control_change,0,0,4,,,,,,,,,3,64,127,,
117600,note_on,240,0,3,,,,,,,,,2,,,60,0
117600,control_change,0,0,2,,,,,,,,,1,64,0,,
117600,note_on,0,0,2,,,,,,,,,1,,,77,62
117600,note_on,0,0,1,,,,,,,,,0,,,89,62
117600,control_change,0,0,1,,,,,,,,,0,64,0,,
117600,note_on,120,0,1,,,,,,,,,0,,,88,0
117600,note_on,0,0,4,,,,,,,,,3,,,41,62
117600,note_on,60,0,4,,,,,,,,,3,,,43,0
117600,note_on,0,0,3,,,,,,,,,2,,,52,0
117600,note_on,0,0,3,,,,,,,,,2,,,55,0
117600,note_on,120,0,2,,,,,,,,,1,,,76,0
117623,note_on,23,0,1,,,,,,,,,0,,,89,0
117623,note_on,23,0,2,,,,,,,,,1,,,77,0
117720,note_on,120,0,4,,,,,,,,,3,,,41,0
117720,note_on,0,0,4,,,,,,,,,3,,,40,62
117840,note_on,120,0,4,,,,,,,,,3,,,40,0
117840,note_on,217,0,2,,,,,,,,,1,,,69,88
117840,note_on,0,0,4,,,,,,,,,3,,,41,62
117840,note_on,0,0,2,,,,,,,,,1,,,72,88
117840,note_on,240,0,3,,,,,,,,,2,,,53,49
117840,note_on,217,0,1,,,,,,,,,0,,,81,88
117840,note_on,0,0,3,,,,,,,,,2,,,57,49
117840,note_on,0,0,3,,,,,,,,,2,,,60,49
117840,note_on,0,0,1,,,,,,,,,0,,,84,88
117863,note_on,0,0,1,,,,,,,,,0,,,81,0
117863,note_on,0,0,2,,,,,,,,,1,,,69,0
117863,note_on,23,0,2,,,,,,,,,1,,,72,0
117863,note_on,23,0,1,,,,,,,,,0,,,84,0
117960,control_change,0,0,4,,,,,,,,,3,64,0,,
117960,note_on,0,0,4,,,,,,,,,3,,,43,62
117960,note_on,120,0,4,,,,,,,,,3,,,41,0
118080,note_on,240,0,3,,,,,,,,,2,,,60,0
118080,note_on,217,0,2,,,,,,,,,1,,,65,62
118080,note_on,0,0,4,,,,,,,,,3,,,45,62
118080,note_on,0,0,1,,,,,,,,,0,,,81,62
118080,note_on,0,0,2,,,,,,,,,1,,,69,62
118080,note_on,120,0,4,,,,,,,,,3,,,43,0
118080,note_on,0,0,3,,,,,,,,,2,,,57,0
118080,note_on,0,0,3,,,,,,,,,2,,,53,0
118080,note_on,217,0,1,,,,,,,,,0,,,77,62
118103,note_on,0,0,2,,,,,,,,,1,,,65,0
118103,note_on,0,0,1,,,,,,,,,0,,,77,0
118103,note_on,23,0,1,,,,,,,,,0,,,81,0
118103,note_on,23,0,2,,,,,,,,,1,,,69,0
118320,note_on,240,0,3,,,,,,,,,2,,,53,49
118320,note_on,0,0,3,,,,,,,,,2,,,57,49
118320,note_on,0,0,3,,,,,,,,,2,,,60,49
118320,note_on,217,0,2,,,,,,,,,1,,,69,62
118320,note_on,240,0,4,,,,,,,,,3,,,45,0
118320,note_on,0,0,2,,,,,,,,,1,,,72,62
118320,note_on,0,0,1,,,,,,,,,0,,,84,62
118320,note_on,217,0,1,,,,,,,,,0,,,81,62
118343,note_on,23,0,1,,,,,,,,,0,,,84,0
118343,note_on,0,0,2,,,,,,,,,1,,,69,0
118343,note_on,0,0,1,,,,,,,,,0,,,81,0
118343,note_on,23,0,2,,,,,,,,,1,,,72,0
118560,note_on,0,0,3,,,,,,,,,2,,,57,0
118560,note_on,240,0,3,,,,,,,,,2,,,60,0
118560,control_change,217,0,2,,,,,,,,,1,64,127,,
118560,note_on,0,0,3,,,,,,,,,2,,,53,0
118560,note_on,0,0,2,,,,,,,,,1,,,77,88
118560,control_change,217,0,1,,,,,,,,,0,64,127,,
118560,note_on,240,0,4,,,,,,,,,3,,,41,62
118560,note_on,0,0,1,,,,,,,,,0,,,89,88
118680,note_on,0,0,2,,,,,,,,,1,,,76,62
118680,note_on,0,0,1,,,,,,,,,0,,,88,62
118680,note_on,120,0,1,,,,,,,,,0,,,89,0
118680,note_on,120,0,2,,,,,,,,,1,,,77,0
118800,note_on,0,0,2,,,,,,,,,1,,,77,62
118800,note_on,0,0,3,,,,,,,,,2,,,62,75
118800,note_on,0,0,3,,,,,,,,,2,,,59,75
118800,note_on,0,0,3,,,,,,,,,2,,,56,75
118800,note_on,120,0,1,,,,,,,,,0,,,88,0
118800,note_on,0,0,1,,,,,,,,,0,,,89,62
118800,note_on,240,0,4,,,,,,,,,3,,,41,0
118800,note_on,240,0,3,,,,,,,,,2,,,53,75
118800,note_on,120,0,2,,,,,,,,,1,,,76,0
118920,note_on,120,0,1,,,,,,,,,0,,,89,0
118920,control_change,0,0,1,,,,,,,,,0,64,0,,
118920,note_on,0,0,1,,,,,,,,,0,,,86,62
118920,note_on,120,0,2,,,,,,,,,1,,,77,0
118920,note_on,0,0,2,,,,,,,,,1,,,74,62
118920,control_change,0,0,2,,,,,,,,,1,64,0,,
119040,note_on,120,0,1,,,,,,,,,0,,,86,0
119040,note_on,0,0,2,,,,,,,,,1,,,74,62
119040,control_change,0,0,2,,,,,,,,,1,64,127,,
119040,note_on,120,0,2,,,,,,,,,1,,,74,0
119040,note_on,240,0,3,,,,,,,,,2,,,62,0
119040,note_on,0,0,3,,,,,,,,,2,,,53,0
119040,note_on,0,0,1,,,,,,,,,0,,,86,62
119040,note_on,0,0,3,,,,,,,,,2,,,59,0
119040,control_change,0,0,1,,,,,,,,,0,64,127,,
119040,note_on,0,0,3,,,,,,,,,2,,,56,0
119160,note_on,120,0,1,,,,,,,,,0,,,86,0
119160,note_on,120,0,2,,,,,,,,,1,,,74,0
119160,note_on,0,0,2,,,,,,,,,1,,,73,62
119160,note_on,0,0,1,,,,,,,,,0,,,85,62
119280,note_on,240,0,3,,,,,,,,,2,,,54,49
119280,note_on,0,0,1,,,,,,,,,0,,,86,62
119280,note_on,0,0,3,,,,,,,,,2,,,57,49
119280,note_on,0,0,3,,,,,,,,,2,,,62,49
119280,note_on,480,0,4,,,,,,,,,3,,,42,62
119280,note_on,120,0,2,,,,,,,,,1,,,73,0
119280,note_on,0,0,2,,,,,,,,,1,,,74,62
119280,note_on,120,0,1,,,,,,,,,0,,,85,0
119303,note_on,23,0,4,,,,,,,,,3,,,42,0
119303,note_on,23,0,3,,,,,,,,,2,,,62,0
119303,note_on,0,0,3,,,,,,,,,2,,,57,0
119303,note_on,0,0,3,,,,,,,,,2,,,54,0
119400,note_on,0,0,2,,,,,,,,,1,,,69,62
119400,control_change,0,0,2,,,,,,,,,1,64,0,,
119400,note_on,120,0,1,,,,,,,,,0,,,86,0
119400,control_change,0,0,1,,,,,,,,,0,64,0,,
119400,note_on,0,0,1,,,,,,,,,0,,,81,62
119400,note_on,120,0,2,,,,,,,,,1,,,74,0
119520,note_on,120,0,2,,,,,,,,,1,,,69,0
119520,control_change,0,0,2,,,,,,,,,1,64,127,,
119520,note_on,0,0,2,,,,,,,,,1,,,69,62
119520,control_change,0,0,1,,,,,,,,,0,64,127,,
119520,note_on,120,0,1,,,,,,,,,0,,,81,0
119520,note_on,0,0,1,,,,,,,,,0,,,81,62
119640,note_on,120,0,1,,,,,,,,,0,,,81,0
119640,note_on,0,0,2,,,,,,,,,1,,,68,62
119640,note_on,120,0,2,,,,,,,,,1,,,69,0
119640,note_on,0,0,1,,,,,,,,,0,,,80,62
119760,note_on,120,0,1,,,,,,,,,0,,,80,0
119760,note_on,0,0,1,,,,,,,,,0,,,81,62
119760,note_on,0,0,2,,,,,,,,,1,,,69,62
119760,note_on,120,0,2,,,,,,,,,1,,,68,0
119760,note_on,457,0,4,,,,,,,,,3,,,45,62
119760,note_on,0,0,3,,,,,,,,,2,,,62,49
119760,note_on,0,0,3,,,,,,,,,2,,,57,49
119760,note_on,457,0,3,,,,,,,,,2,,,54,49
119783,note_on,23,0,3,,,,,,,,,2,,,62,0
119783,note_on,23,0,4,,,,,,,,,3,,,45,0
119783,note_on,0,0,3,,,,,,,,,2,,,57,0
119783,note_on,0,0,3,,,,,,,,,2,,,54,0
119880,control_change,0,0,2,,,,,,,,,1,64,0,,
119880,note_on,120,0,2,,,,,,,,,1,,,69,0
119880,note_on,0,0,2,,,,,,,,,1,,,66,62
119880,note_on,0,0,1,,,,,,,,,0,,,78,62
119880,note_on,120,0,1,,,,,,,,,0,,,81,0
119880,control_change,0,0,1,,,,,,,,,0,64,0,,
120000,note_on,0,0,1,,,,,,,,,0,,,76,62
120000,note_on,0,0,2,,,,,,,,,1,,,64,62
120000,control_change,0,0,2,,,,,,,,,1,64,127,,
120000,note_on,120,0,2,,,,,,,,,1,,,66,0
120000,control_change,0,0,1,,,,,,,,,0,64,127,,
120000,note_on,120,0,1,,,,,,,,,0,,,78,0
120120,note_on,0,0,1,,,,,,,,,0,,,79,62
120120,note_on,0,0,2,,,,,,,,,1,,,67,62
120120,note_on,120,0,2,,,,,,,,,1,,,64,0
120120,note_on,120,0,1,,,,,,,,,0,,,76,0
120240,note_on,0,0,2,,,,,,,,,1,,,71,62
120240,note_on,0,0,3,,,,,,,,,2,,,55,49
120240,note_on,0,0,3,,,,,,,,,2,,,57,49
120240,note_on,0,0,4,,,,,,,,,3,,,45,62
120240,note_on,457,0,3,,,,,,,,,2,,,49,49
120240,note_on,457,0,4,,,,,,,,,3,,,33,62
120240,note_on,0,0,1,,,,,,,,,0,,,83,62
120240,note_on,120,0,2,,,,,,,,,1,,,67,0
120240,note_on,120,0,1,,,,,,,,,0,,,79,0
120263,note_on,0,0,3,,,,,,,,,2,,,49,0
120263,note_on,0,0,3,,,,,,,,,2,,,55,0
120263,note_on,23,0,3,,,,,,,,,2,,,57,0
120263,note_on,23,0,4,,,,,,,,,3,,,45,0
120263,note_on,0,0,4,,,,,,,,,3,,,33,0
120360,note_on,0,0,2,,,,,,,,,1,,,69,62
120360,control_change,0,0,2,,,,,,,,,1,64,0,,
120360,note_on,120,0,1,,,,,,,,,0,,,83,0
120360,note_on,120,0,2,,,,,,,,,1,,,71,0
120360,control_change,0,0,1,,,,,,,,,0,64,0,,
120360,note_on,0,0,1,,,,,,,,,0,,,81,62
120480,note_on,0,0,1,,,,,,,,,0,,,74,62
120480,note_on,0,0,3,,,,,,,,,2,,,50,49
120480,control_change,217,0,4,,,,,,,,,3,64,127,,
120480,control_change,217,0,3,,,,,,,,,2,64,127,,
120480,note_on,120,0,1,,,,,,,,,0,,,81,0
120480,note_on,0,0,2,,,,,,,,,1,,,62,62
120480,note_on,120,0,2,,,,,,,,,1,,,69,0
120480,note_on,0,0,4,,,,,,,,,3,,,38,62
120600,note_on,120,0,3,,,,,,,,,2,,,50,0
120600,note_on,0,0,3,,,,,,,,,2,,,49,49
120600,note_on,0,0,4,,,,,,,,,3,,,37,62
120600,note_on,120,0,4,,,,,,,,,3,,,38,0
120720,note_on,120,0,3,,,,,,,,,2,,,49,0
120720,note_on,0,0,3,,,,,,,,,2,,,50,49
120720,note_on,120,0,4,,,,,,,,,3,,,37,0
120720,note_on,0,0,4,,,,,,,,,3,,,38,62
120840,note_on,0,0,3,,,,,,,,,2,,,52,49
120840,note_on,120,0,3,,,,,,,,,2,,,50,0
120840,note_on,0,0,4,,,,,,,,,3,,,40,62
120840,note_on,120,0,4,,,,,,,,,3,,,38,0
120960,note_on,0,0,3,,,,,,,,,2,,,54,49
120960,note_on,120,0,4,,,,,,,,,3,,,40,0
120960,note_on,0,0,4,,,,,,,,,3,,,42,62
120960,note_on,120,0,3,,,,,,,,,2,,,52,0
120960,note_on,480,0,2,,,,,,,,,1,,,62,0
120960,note_on,480,0,1,,,,,,,,,0,,,74,0
121080,note_on,120,0,3,,,,,,,,,2,,,54,0
121080,note_on,0,0,4,,,,,,,,,3,,,40,62
121080,note_on,120,0,4,,,,,,,,,3,,,42,0
121080,note_on,0,0,3,,,,,,,,,2,,,52,49
121200,control_change,240,0,1,,,,,,,,,0,64,127,,
121200,note_on,0,0,1,,,,,,,,,0,,,78,62
121200,note_on,0,0,1,,,,,,,,,0,,,81,62
121200,note_on,0,0,1,,,,,,,,,0,,,90,62
121200,note_on,0,0,2,,,,,,,,,1,,,69,62
121200,note_on,120,0,3,,,,,,,,,2,,,52,0
121200,note_on,0,0,2,,,,,,,,,1,,,66,62
121200,control_change,240,0,2,,,,,,,,,1,64,127,,
121200,note_on,0,0,4,,,,,,,,,3,,,42,62
121200,note_on,120,0,4,,,,,,,,,3,,,40,0
121200,note_on,0,0,3,,,,,,,,,2,,,54,49
121320,note_on,0,0,3,,,,,,,,,2,,,55,49
121320,note_on,0,0,4,,,,,,,,,3,,,43,62
121320,note_on,120,0,4,,,,,,,,,3,,,42,0
121320,note_on,120,0,3,,,,,,,,,2,,,54,0
121440,note_on,0,0,2,,,,,,,,,1,,,76,62
121440,note_on,0,0,2,,,,,,,,,1,,,69,62
121440,note_on,0,0,2,,,,,,,,,1,,,66,62
121440,note_on,0,0,2,,,,,,,,,1,,,66,0
121440,note_on,240,0,2,,,,,,,,,1,,,69,0
121440,note_on,120,0,3,,,,,,,,,2,,,55,0
121440,note_on,0,0,3,,,,,,,,,2,,,57,49
121440,note_on,240,0,1,,,,,,,,,0,,,90,0
121440,note_on,0,0,1,,,,,,,,,0,,,81,0
121440,note_on,0,0,1,,,,,,,,,0,,,78,0
121440,note_on,0,0,1,,,,,,,,,0,,,78,62
121440,note_on,0,0,1,,,,,,,,,0,,,81,62
121440,note_on,0,0,1,,,,,,,,,0,,,88,62
121440,note_on,120,0,4,,,,,,,,,3,,,43,0
121440,note_on,0,0,4,,,,,,,,,3,,,45,62
121560,note_on,0,0,3,,,,,,,,,2,,,56,49
121560,note_on,120,0,3,,,,,,,,,2,,,57,0
121560,note_on,0,0,4,,,,,,,,,3,,,44,62
121560,note_on,120,0,4,,,,,,,,,3,,,45,0
121680,control_change,0,0,3,,,,,,,,,2,64,0,,
121680,note_on,120,0,4,,,,,,,,,3,,,44,0
121680,control_change,0,0,4,,,,,,,,,3,64,0,,
121680,note_on,0,0,4,,,,,,,,,3,,,45,62
121680,note_on,120,0,3,,,,,,,,,2,,,56,0
121680,note_on,0,0,3,,,,,,,,,2,,,57,49
121680,note_on,0,0,2,,,,,,,,,1,,,66,62
121680,note_on,0,0,1,,,,,,,,,0,,,78,0
121680,control_change,0,0,1,,,,,,,,,0,64,0,,
121680,note_on,0,0,1,,,,,,,,,0,,,86,62
121680,note_on,0,0,2,,,,,,,,,1,,,74,62
121680,note_on,0,0,1,,,,,,,,,0,,,81,62
121680,note_on,0,0,1,,,,,,,,,0,,,78,62
121680,note_on,0,0,2,,,,,,,,,1,,,69,62
121680,control_change,0,0,2,,,,,,,,,1,64,0,,
121680,note_on,0,0,2,,,,,,,,,1,,,66,0
121680,note_on,0,0,2,,,,,,,,,1,,,69,0
121680,note_on,240,0,2,,,,,,,,,1,,,76,0
121680,note_on,240,0,1,,,,,,,,,0,,,88,0
121680,note_on,0,0,1,,,,,,,,,0,,,81,0
121800,note_on,120,0,4,,,,,,,,,3,,,45,0
121800,note_on,0,0,4,,,,,,,,,3,,,42,62
121800,note_on,0,0,3,,,,,,,,,2,,,54,49
121800,note_on,120,0,3,,,,,,,,,2,,,57,0
121920,note_on,0,0,2,,,,,,,,,1,,,64,62
121920,note_on,0,0,2,,,,,,,,,1,,,81,62
121920,note_on,0,0,2,,,,,,,,,1,,,76,62
121920,note_on,0,0,2,,,,,,,,,1,,,69,62
121920,control_change,0,0,1,,,,,,,,,0,64,127,,
121920,note_on,0,0,1,,,,,,,,,0,,,86,62
121920,note_on,120,0,4,,,,,,,,,3,,,42,0
121920,note_on,0,0,1,,,,,,,,,0,,,78,0
121920,note_on,0,0,1,,,,,,,,,0,,,74,62
121920,note_on,240,0,1,,,,,,,,,0,,,86,0
121920,note_on,0,0,3,,,,,,,,,2,,,55,75
121920,note_on,240,0,2,,,,,,,,,1,,,74,0
121920,note_on,0,0,2,,,,,,,,,1,,,69,0
121920,note_on,120,0,3,,,,,,,,,2,,,54,0
121920,note_on,0,0,2,,,,,,,,,1,,,66,0
121920,note_on,0,0,1,,,,,,,,,0,,,81,0
121920,note_on,0,0,4,,,,,,,,,3,,,43,88
122040,note_on,120,0,1,,,,,,,,,0,,,86,0
122040,note_on,0,0,1,,,,,,,,,0,,,74,0
122040,note_on,0,0,1,,,,,,,,,0,,,73,62
122040,note_on,0,0,1,,,,,,,,,0,,,85,62
122160,note_on,0,0,1,,,,,,,,,0,,,71,62
122160,note_on,0,0,1,,,,,,,,,0,,,83,62
122160,note_on,120,0,1,,,,,,,,,0,,,85,0
122160,note_on,0,0,1,,,,,,,,,0,,,73,0
122280,control_change,0,0,1,,,,,,,,,0,64,0,,
122280,note_on,0,0,1,,,,,,,,,0,,,81,62
122280,note_on,0,0,1,,,,,,,,,0,,,69,62
122280,note_on,0,0,1,,,,,,,,,0,,,71,0
122280,note_on,120,0,1,,,,,,,,,0,,,83,0
122400,note_on,0,0,2,,,,,,,,,1,,,64,0
122400,note_on,120,0,1,,,,,,,,,0,,,81,0
122400,note_on,0,0,1,,,,,,,,,0,,,81,62
122400,note_on,0,0,1,,,,,,,,,0,,,76,62
122400,note_on,0,0,2,,,,,,,,,1,,,69,0
122400,note_on,0,0,2,,,,,,,,,1,,,76,0
122400,note_on,0,0,2,,,,,,,,,1,,,61,62
122400,note_on,0,0,2,,,,,,,,,1,,,64,62
122400,note_on,0,0,1,,,,,,,,,0,,,73,62
122400,note_on,0,0,1,,,,,,,,,0,,,69,0
122400,note_on,480,0,2,,,,,,,,,1,,,81,0
122400,note_on,0,0,2,,,,,,,,,1,,,69,62
122400,control_change,480,0,4,,,,,,,,,3,64,127,,
122400,control_change,480,0,3,,,,,,,,,2,64,127,,
122520,note_on,120,0,4,,,,,,,,,3,,,43,0
122520,note_on,0,0,4,,,,,,,,,3,,,33,62
122520,note_on,0,0,3,,,,,,,,,2,,,45,49
122520,note_on,120,0,3,,,,,,,,,2,,,55,0
122640,note_on,120,0,3,,,,,,,,,2,,,45,0
122640,note_on,120,0,4,,,,,,,,,3,,,33,0
122640,note_on,0,0,4,,,,,,,,,3,,,32,62
122640,note_on,0,0,3,,,,,,,,,2,,,44,49
122760,note_on,120,0,3,,,,,,,,,2,,,44,0
122760,note_on,120,0,4,,,,,,,,,3,,,32,0
122760,note_on,0,0,4,,,,,,,,,3,,,33,62
122760,note_on,0,0,3,,,,,,,,,2,,,45,49
122880,note_on,0,0,4,,,,,,,,,3,,,37,62
122880,note_on,120,0,4,,,,,,,,,3,,,33,0
122880,note_on,0,0,3,,,,,,,,,2,,,49,49
122880,note_on,120,0,3,,,,,,,,,2,,,45,0
123000,note_on,120,0,4,,,,,,,,,3,,,37,0
123000,note_on,0,0,3,,,,,,,,,2,,,45,49
123000,note_on,120,0,3,,,,,,,,,2,,,49,0
123000,note_on,0,0,4,,,,,,,,,3,,,33,62
123120,note_on,0,0,4,,,,,,,,,3,,,37,62
123120,note_on,0,0,3,,,,,,,,,2,,,49,49
123120,note_on,120,0,3,,,,,,,,,2,,,45,0
123120,note_on,120,0,4,,,,,,,,,3,,,33,0
123240,note_on,0,0,3,,,,,,,,,2,,,52,49
123240,note_on,120,0,4,,,,,,,,,3,,,37,0
123240,control_change,0,0,4,,,,,,,,,3,64,0,,
123240,note_on,0,0,4,,,,,,,,,3,,,40,62
123240,note_on,120,0,3,,,,,,,,,2,,,49,0
123240,control_change,0,0,3,,,,,,,,,2,64,0,,
123360,note_on,0,0,2,,,,,,,,,1,,,76,62
123360,control_change,0,0,1,,,,,,,,,0,64,127,,
123360,note_on,0,0,1,,,,,,,,,0,,,83,62
123360,note_on,0,0,1,,,,,,,,,0,,,71,62
123360,note_on,0,0,1,,,,,,,,,0,,,73,0
123360,note_on,0,0,1,,,,,,,,,0,,,76,0
123360,note_on,960,0,1,,,,,,,,,0,,,81,0
123360,note_on,120,0,3,,,,,,,,,2,,,52,0
123360,note_on,0,0,3,,,,,,,,,2,,,55,49
123360,note_on,960,0,2,,,,,,,,,1,,,69,0
123360,note_on,0,0,2,,,,,,,,,1,,,64,0
123360,note_on,0,0,2,,,,,,,,,1,,,61,0
123360,note_on,0,0,2,,,,,,,,,1,,,61,62
123360,note_on,0,0,2,,,,,,,,,1,,,64,62
123360,note_on,0,0,4,,,,,,,,,3,,,43,62
123360,note_on,120,0,4,,,,,,,,,3,,,40,0
123360,note_on,0,0,2,,,,,,,,,1,,,73,62
123480,note_on,120,0,1,,,,,,,,,0,,,83,0
123480,note_on,0,0,1,,,,,,,,,0,,,71,0
123480,note_on,0,0,1,,,,,,,,,0,,,82,62
123480,note_on,0,0,1,,,,,,,,,0,,,70,62
123600,note_on,0,0,1,,,,,,,,,0,,,70,0
123600,note_on,0,0,1,,,,,,,,,0,,,81,62
123600,note_on,0,0,1,,,,,,,,,0,,,69,62
123600,note_on,120,0,1,,,,,,,,,0,,,82,0
123720,note_on,0,0,1,,,,,,,,,0,,,82,62
123720,note_on,0,0,1,,,,,,,,,0,,,70,62
123720,note_on,0,0,1,,,,,,,,,0,,,69,0
123720,note_on,120,0,1,,,,,,,,,0,,,81,0
123840,control_change,480,0,4,,,,,,,,,3,64,127,,
123840,control_change,480,0,3,,,,,,,,,2,64,127,,
123840,note_on,0,0,1,,,,,,,,,0,,,70,0
123840,note_on,120,0,1,,,,,,,,,0,,,82,0
123840,note_on,0,0,1,,,,,,,,,0,,,69,62
123840,control_change,0,0,1,,,,,,,,,0,64,0,,
123840,note_on,0,0,1,,,,,,,,,0,,,81,62
123960,note_on,120,0,4,,,,,,,,,3,,,43,0
123960,note_on,0,0,4,,,,,,,,,3,,,33,62
123960,note_on,0,0,3,,,,,,,,,2,,,45,49
123960,note_on,120,0,3,,,,,,,,,2,,,55,0
124080,note_on,120,0,3,,,,,,,,,2,,,45,0
124080,note_on,120,0,4,,,,,,,,,3,,,33,0
124080,note_on,0,0,4,,,,,,,,,3,,,32,62
124080,note_on,0,0,3,,,,,,,,,2,,,44,49
124200,note_on,0,0,3,,,,,,,,,2,,,45,49
124200,note_on,0,0,4,,,,,,,,,3,,,33,62
124200,note_on,120,0,4,,,,,,,,,3,,,32,0
124200,note_on,120,0,3,,,,,,,,,2,,,44,0
124320,note_on,120,0,3,,,,,,,,,2,,,45,0
124320,note_on,0,0,3,,,,,,,,,2,,,49,49
124320,note_on,120,0,4,,,,,,,,,3,,,33,0
124320,note_on,0,0,4,,,,,,,,,3,,,37,62
124440,note_on,120,0,4,,,,,,,,,3,,,37,0
124440,note_on,120,0,3,,,,,,,,,2,,,49,0
124440,note_on,0,0,3,,,,,,,,,2,,,45,49
124440,note_on,0,0,4,,,,,,,,,3,,,33,62
124560,note_on,120,0,4,,,,,,,,,3,,,33,0
124560,note_on,120,0,3,,,,,,,,,2,,,45,0
124560,note_on,0,0,4,,,,,,,,,3,,,37,62
124560,note_on,0,0,3,,,,,,,,,2,,,49,49
124680,note_on,120,0,4,,,,,,,,,3,,,37,0
124680,control_change,0,0,4,,,,,,,,,3,64,0,,
124680,note_on,0,0,4,,,,,,,,,3,,,40,62
124680,note_on,120,0,3,,,,,,,,,2,,,49,0
124680,note_on,0,0,3,,,,,,,,,2,,,52,49
124680,control_change,0,0,3,,,,,,,,,2,64,0,,
124800,note_on,0,0,4,,,,,,,,,3,,,43,75
124800,control_change,0,0,4,,,,,,,,,3,64,127,,
124800,note_on,120,0,4,,,,,,,,,3,,,40,0
124800,note_on,0,0,1,,,,,,,,,0,,,69,0
124800,note_on,0,0,3,,,,,,,,,2,,,55,75
124800,control_change,0,0,3,,,,,,,,,2,64,127,,
124800,note_on,120,0,3,,,,,,,,,2,,,52,0
124800,note_on,1440,0,2,,,,,,,,,1,,,76,0
124800,note_on,0,0,2,,,,,,,,,1,,,61,0
124800,note_on,0,0,2,,,,,,,,,1,,,64,0
124800,note_on,0,0,2,,,,,,,,,1,,,73,0
124800,note_on,960,0,1,,,,,,,,,0,,,81,0
124920,note_on,120,0,3,,,,,,,,,2,,,55,0
124920,note_on,120,0,4,,,,,,,,,3,,,43,0
124920,note_on,0,0,4,,,,,,,,,3,,,42,75
124920,note_on,0,0,3,,,,,,,,,2,,,54,75
125040,note_on,0,0,1,,,,,,,,,0,,,85,62
125040,note_on,0,0,1,,,,,,,,,0,,,81,62
125040,note_on,240,0,1,,,,,,,,,0,,,76,62
125040,note_on,0,0,3,,,,,,,,,2,,,55,75
125040,note_on,120,0,3,,,,,,,,,2,,,54,0
125040,note_on,240,0,2,,,,,,,,,1,,,64,62
125040,note_on,0,0,4,,,,,,,,,3,,,43,75
125040,note_on,0,0,2,,,,,,,,,1,,,73,62
125040,note_on,120,0,4,,,,,,,,,3,,,42,0
125040,note_on,0,0,2,,,,,,,,,1,,,69,62
125063,note_on,0,0,1,,,,,,,,,0,,,81,0
125063,note_on,0,0,1,,,,,,,,,0,,,76,0
125063,note_on,0,0,2,,,,,,,,,1,,,64,0
125063,note_on,0,0,2,,,,,,,,,1,,,69,0
125063,note_on,23,0,2,,,,,,,,,1,,,73,0
125063,note_on,23,0,1,,,,,,,,,0,,,85,0
125160,note_on,120,0,4,,,,,,,,,3,,,43,0
125160,note_on,0,0,4,,,,,,,,,3,,,44,75
125160,note_on,120,0,3,,,,,,,,,2,,,55,0
125160,note_on,0,0,3,,,,,,,,,2,,,56,75
125280,note_on,0,0,3,,,,,,,,,2,,,57,75
125280,note_on,120,0,3,,,,,,,,,2,,,56,0
125280,note_on,0,0,4,,,,,,,,,3,,,45,75
125280,note_on,120,0,4,,,,,,,,,3,,,44,0
125400,note_on,0,0,3,,,,,,,,,2,,,61,75
125400,note_on,120,0,3,,,,,,,,,2,,,57,0
125400,note_on,0,0,4,,,,,,,,,3,,,49,75
125400,note_on,120,0,4,,,,,,,,,3,,,45,0
125520,note_on,0,0,4,,,,,,,,,3,,,52,75
125520,note_on,120,0,4,,,,,,,,,3,,,49,0
125520,note_on,0,0,2,,,,,,,,,1,,,76,75
125520,note_on,0,0,2,,,,,,,,,1,,,73,75
125520,note_on,120,0,3,,,,,,,,,2,,,61,0
125520,note_on,457,0,1,,,,,,,,,0,,,81,75
125520,note_on,0,0,1,,,,,,,,,0,,,85,75
125520,note_on,0,0,1,,,,,,,,,0,,,88,75
125520,note_on,457,0,2,,,,,,,,,1,,,69,75
125520,note_on,0,0,3,,,,,,,,,2,,,64,75
125543,note_on,23,0,1,,,,,,,,,0,,,88,0
125543,note_on,0,0,1,,,,,,,,,0,,,81,0
125543,note_on,0,0,2,,,,,,,,,1,,,69,0
125543,note_on,0,0,2,,,,,,,,,1,,,73,0
125543,note_on,23,0,2,,,,,,,,,1,,,76,0
125543,note_on,0,0,1,,,,,,,,,0,,,85,0
125640,note_on,120,0,3,,,,,,,,,2,,,64,0
125640,note_on,0,0,3,,,,,,,,,2,,,61,88
125640,note_on,0,0,4,,,,,,,,,3,,,49,88
125640,note_on,120,0,4,,,,,,,,,3,,,52,0
125760,note_on,0,0,4,,,,,,,,,3,,,45,88
125760,note_on,0,0,3,,,,,,,,,2,,,57,88
125760,note_on,120,0,4,,,,,,,,,3,,,49,0
125760,note_on,120,0,3,,,,,,,,,2,,,61,0
125880,note_on,120,0,4,,,,,,,,,3,,,45,0
125880,note_on,120,0,3,,,,,,,,,2,,,57,0
125880,note_on,0,0,3,,,,,,,,,2,,,55,88
125880,note_on,0,0,4,,,,,,,,,3,,,43,88
126000,note_on,457,0,1,,,,,,,,,0,,,85,88
126000,note_on,0,0,1,,,,,,,,,0,,,88,88
126000,note_on,0,0,1,,,,,,,,,0,,,93,88
126000,note_on,120,0,4,,,,,,,,,3,,,43,0
126000,note_on,0,0,2,,,,,,,,,1,,,81,88
126000,control_change,0,0,3,,,,,,,,,2,64,0,,
126000,note_on,0,0,3,,,,,,,,,2,,,52,88
126000,control_change,0,0,4,,,,,,,,,3,64,0,,
126000,note_on,457,0,2,,,,,,,,,1,,,73,88
126000,note_on,0,0,2,,,,,,,,,1,,,76,88
126000,note_on,120,0,3,,,,,,,,,2,,,55,0
126000,note_on,0,0,4,,,,,,,,,3,,,40,88
126023,note_on,23,0,1,,,,,,,,,0,,,93,0
126023,note_on,0,0,2,,,,,,,,,1,,,76,0
126023,note_on,0,0,2,,,,,,,,,1,,,73,0
126023,note_on,23,0,2,,,,,,,,,1,,,81,0
126023,note_on,0,0,1,,,,,,,,,0,,,85,0
126023,note_on,0,0,1,,,,,,,,,0,,,88,0
126120,note_on,120,0,3,,,,,,,,,2,,,52,0
126120,note_on,0,0,4,,,,,,,,,3,,,45,88
126120,note_on,120,0,4,,,,,,,,,3,,,40,0
126120,note_on,0,0,3,,,,,,,,,2,,,57,88
126180,note_on,60,0,3,,,,,,,,,2,,,52,88
126180,note_on,60,0,4,,,,,,,,,3,,,40,88
126240,note_on,0,0,4,,,,,,,,,3,,,45,0
126240,note_on,0,0,3,,,,,,,,,2,,,57,0
126240,note_on,0,0,3,,,,,,,,,2,,,50,101
126240,note_on,217,0,1,,,,,,,,,0,,,81,101
126240,note_on,0,0,2,,,,,,,,,1,,,77,101
126240,note_on,0,0,1,,,,,,,,,0,,,89,101
126240,note_on,0,0,2,,,,,,,,,1,,,74,101
126240,note_on,217,0,2,,,,,,,,,1,,,69,101
126240,note_on,60,0,4,,,,,,,,,3,,,40,0
126240,note_on,60,0,3,,,,,,,,,2,,,52,0
126240,note_on,0,0,4,,,,,,,,,3,,,38,101
126240,note_on,0,0,1,,,,,,,,,0,,,86,101
126360,note_on,0,0,4,,,,,,,,,3,,,37,101
126360,note_on,120,0,4,,,,,,,,,3,,,38,0
126360,note_on,0,0,3,,,,,,,,,2,,,49,101
126360,note_on,120,0,3,,,,,,,,,2,,,50,0
126480,note_on,0,0,4,,,,,,,,,3,,,38,101
126480,note_on,120,0,4,,,,,,,,,3,,,37,0
126480,note_on,0,0,3,,,,,,,,,2,,,50,101
126480,note_on,120,0,3,,,,,,,,,2,,,49,0
126600,note_on,0,0,4,,,,,,,,,3,,,40,101
126600,note_on,120,0,4,,,,,,,,,3,,,38,0
126600,note_on,0,0,3,,,,,,,,,2,,,52,101
126600,note_on,120,0,3,,,,,,,,,2,,,50,0
126660,note_on,60,0,4,,,,,,,,,3,,,43,101
126660,note_on,60,0,3,,,,,,,,,2,,,55,101
126720,note_on,0,0,3,,,,,,,,,2,,,52,0
126720,note_on,0,0,4,,,,,,,,,3,,,40,0
126720,note_on,0,0,4,,,,,,,,,3,,,41,101
126720,note_on,60,0,4,,,,,,,,,3,,,43,0
126720,note_on,0,0,3,,,,,,,,,2,,,53,101
126720,note_on,60,0,3,,,,,,,,,2,,,55,0
126840,note_on,120,0,3,,,,,,,,,2,,,53,0
126840,note_on,0,0,4,,,,,,,,,3,,,40,101
126840,note_on,120,0,4,,,,,,,,,3,,,41,0
126840,note_on,0,0,3,,,,,,,,,2,,,52,101
126960,note_on,120,0,3,,,,,,,,,2,,,52,0
126960,note_on,0,0,4,,,,,,,,,3,,,41,101
126960,note_on,120,0,4,,,,,,,,,3,,,40,0
126960,note_on,0,0,3,,,,,,,,,2,,,53,101
127080,note_on,120,0,4,,,,,,,,,3,,,41,0
127080,note_on,120,0,3,,,,,,,,,2,,,53,0
127080,note_on,0,0,3,,,,,,,,,2,,,55,101
127080,note_on,0,0,4,,,,,,,,,3,,,43,101
127140,note_on,60,0,4,,,,,,,,,3,,,46,101
127140,note_on,60,0,3,,,,,,,,,2,,,58,101
127200,note_on,0,0,4,,,,,,,,,3,,,45,101
127200,note_on,0,0,4,,,,,,,,,3,,,43,0
127200,note_on,60,0,4,,,,,,,,,3,,,46,0
127200,note_on,60,0,3,,,,,,,,,2,,,58,0
127200,note_on,0,0,3,,,,,,,,,2,,,55,0
127200,note_on,0,0,3,,,,,,,,,2,,,57,101
127320,note_on,0,0,4,,,,,,,,,3,,,44,101
127320,note_on,120,0,4,,,,,,,,,3,,,45,0
127320,note_on,120,0,3,,,,,,,,,2,,,57,0
127320,note_on,0,0,3,,,,,,,,,2,,,56,101
127440,note_on,0,0,4,,,,,,,,,3,,,45,101
127440,note_on,0,0,3,,,,,,,,,2,,,57,101
127440,note_on,120,0,3,,,,,,,,,2,,,56,0
127440,note_on,120,0,4,,,,,,,,,3,,,44,0
127560,note_on,120,0,3,,,,,,,,,2,,,57,0
127560,note_on,0,0,3,,,,,,,,,2,,,61,101
127560,note_on,120,0,4,,,,,,,,,3,,,45,0
127560,note_on,0,0,4,,,,,,,,,3,,,49,101
127620,note_on,60,0,3,,,,,,,,,2,,,64,101
127620,note_on,60,0,4,,,,,,,,,3,,,52,101
127680,note_on,60,0,3,,,,,,,,,2,,,64,0
127680,note_on,0,0,3,,,,,,,,,2,,,61,0
127680,note_on,0,0,4,,,,,,,,,3,,,50,101
127680,note_on,60,0,4,,,,,,,,,3,,,52,0
127680,note_on,0,0,4,,,,,,,,,3,,,49,0
127680,note_on,0,0,3,,,,,,,,,2,,,62,101
127800,note_on,0,0,4,,,,,,,,,3,,,49,101
127800,note_on,0,0,3,,,,,,,,,2,,,61,101
127800,note_on,120,0,3,,,,,,,,,2,,,62,0
127800,note_on,120,0,4,,,,,,,,,3,,,50,0
127920,note_on,120,0,3,,,,,,,,,2,,,61,0
127920,note_on,0,0,4,,,,,,,,,3,,,50,101
127920,note_on,120,0,4,,,,,,,,,3,,,49,0
127920,note_on,0,0,3,,,,,,,,,2,,,62,101
128040,note_on,0,0,3,,,,,,,,,2,,,64,101
128040,note_on,120,0,3,,,,,,,,,2,,,62,0
128040,note_on,0,0,4,,,,,,,,,3,,,52,101
128040,note_on,120,0,4,,,,,,,,,3,,,50,0
128160,note_on,0,0,3,,,,,,,,,2,,,65,127
128160,note_on,120,0,4,,,,,,,,,3,,,52,0
128160,note_on,0,0,4,,,,,,,,,3,,,53,127
128160,note_on,120,0,3,,,,,,,,,2,,,64,0
128400,note_on,0,0,1,,,,,,,,,0,,,89,62
128400,note_on,0,0,1,,,,,,,,,0,,,81,0
128400,note_on,0,0,1,,,,,,,,,0,,,86,0
128400,note_on,2160,0,1,,,,,,,,,0,,,89,0
128400,control_change,0,0,1,,,,,,,,,0,64,127,,
128400,note_on,0,0,1,,,,,,,,,0,,,93,62
128400,note_on,0,0,2,,,,,,,,,1,,,77,62
128400,note_on,2160,0,2,,,,,,,,,1,,,77,0
128400,note_on,0,0,2,,,,,,,,,1,,,74,0
128400,note_on,0,0,2,,,,,,,,,1,,,69,0
128400,control_change,0,0,2,,,,,,,,,1,64,127,,
128400,note_on,0,0,2,,,,,,,,,1,,,81,62
128640,note_on,240,0,1,,,,,,,,,0,,,93,0
128640,note_on,0,0,1,,,,,,,,,0,,,89,0
128640,note_on,0,0,1,,,,,,,,,0,,,86,62
128640,note_on,0,0,2,,,,,,,,,1,,,77,62
128640,note_on,0,0,1,,,,,,,,,0,,,89,62
128640,note_on,240,0,2,,,,,,,,,1,,,81,0
128640,note_on,0,0,2,,,,,,,,,1,,,77,0
128640,note_on,0,0,2,,,,,,,,,1,,,74,62
128880,control_change,0,0,2,,,,,,,,,1,64,0,,
128880,note_on,240,0,2,,,,,,,,,1,,,77,0
128880,note_on,0,0,2,,,,,,,,,1,,,74,0
128880,note_on,0,0,1,,,,,,,,,0,,,81,62
128880,note_on,0,0,1,,,,,,,,,0,,,86,0
128880,note_on,0,0,2,,,,,,,,,1,,,76,62
128880,control_change,0,0,1,,,,,,,,,0,64,0,,
128880,note_on,0,0,1,,,,,,,,,0,,,88,62
128880,note_on,0,0,1,,,,,,,,,0,,,85,62
128880,note_on,240,0,1,,,,,,,,,0,,,89,0
128880,note_on,0,0,2,,,,,,,,,1,,,69,62
128880,note_on,0,0,2,,,,,,,,,1,,,73,62
129060,note_on,900,0,3,,,,,,,,,2,,,48,101
129060,note_on,900,0,4,,,,,,,,,3,,,36,101
129120,note_on,60,0,3,,,,,,,,,2,,,48,0
129120,note_on,0,0,3,,,,,,,,,2,,,46,101
129120,note_on,0,0,2,,,,,,,,,1,,,70,101
129120,note_on,0,0,2,,,,,,,,,1,,,65,101
129120,note_on,0,0,2,,,,,,,,,1,,,69,0
129120,note_on,0,0,2,,,,,,,,,1,,,73,0
129120,note_on,240,0,2,,,,,,,,,1,,,76,0
129120,note_on,0,0,2,,,,,,,,,1,,,74,101
129120,note_on,0,0,3,,,,,,,,,2,,,65,0
129120,note_on,0,0,4,,,,,,,,,3,,,53,0
129120,note_on,0,0,1,,,,,,,,,0,,,81,0
129120,note_on,0,0,1,,,,,,,,,0,,,82,101
129120,note_on,0,0,1,,,,,,,,,0,,,77,101
129120,note_on,60,0,4,,,,,,,,,3,,,36,0
129120,note_on,240,0,1,,,,,,,,,0,,,88,0
129120,note_on,0,0,1,,,,,,,,,0,,,85,0
129120,note_on,0,0,4,,,,,,,,,3,,,34,101
129120,note_on,0,0,1,,,,,,,,,0,,,86,101
129240,note_on,0,0,4,,,,,,,,,3,,,33,101
129240,note_on,120,0,4,,,,,,,,,3,,,34,0
129240,note_on,120,0,3,,,,,,,,,2,,,46,0
129240,note_on,0,0,3,,,,,,,,,2,,,45,101
129360,note_on,120,0,4,,,,,,,,,3,,,33,0
129360,note_on,120,0,3,,,,,,,,,2,,,45,0
129360,note_on,0,0,3,,,,,,,,,2,,,46,101
129360,note_on,0,0,4,,,,,,,,,3,,,34,101
129480,note_on,120,0,4,,,,,,,,,3,,,34,0
129480,note_on,0,0,4,,,,,,,,,3,,,36,101
129480,note_on,120,0,3,,,,,,,,,2,,,46,0
129480,note_on,0,0,3,,,,,,,,,2,,,48,101
129540,note_on,60,0,4,,,,,,,,,3,,,39,101
129540,note_on,60,0,3,,,,,,,,,2,,,51,101
129600,note_on,0,0,3,,,,,,,,,2,,,48,0
129600,note_on,0,0,3,,,,,,,,,2,,,50,101
129600,note_on,60,0,3,,,,,,,,,2,,,51,0
129600,note_on,60,0,4,,,,,,,,,3,,,39,0
129600,note_on,0,0,4,,,,,,,,,3,,,38,101
129600,note_on,0,0,4,,,,,,,,,3,,,36,0
129720,note_on,0,0,4,,,,,,,,,3,,,36,101
129720,note_on,120,0,4,,,,,,,,,3,,,38,0
129720,note_on,0,0,3,,,,,,,,,2,,,48,101
129720,note_on,120,0,3,,,,,,,,,2,,,50,0
129840,note_on,120,0,3,,,,,,,,,2,,,48,0
129840,note_on,0,0,4,,,,,,,,,3,,,38,101
129840,note_on,120,0,4,,,,,,,,,3,,,36,0
129840,note_on,0,0,3,,,,,,,,,2,,,50,101
129960,note_on,120,0,4,,,,,,,,,3,,,38,0
129960,note_on,0,0,4,,,,,,,,,3,,,39,101
129960,note_on,0,0,3,,,,,,,,,2,,,51,101
129960,note_on,120,0,3,,,,,,,,,2,,,50,0
130020,note_on,60,0,4,,,,,,,,,3,,,43,101
130020,note_on,60,0,3,,,,,,,,,2,,,55,101
130080,note_on,60,0,4,,,,,,,,,3,,,43,0
130080,note_on,0,0,4,,,,,,,,,3,,,41,101
130080,note_on,0,0,4,,,,,,,,,3,,,39,0
130080,note_on,60,0,3,,,,,,,,,2,,,55,0
130080,note_on,0,0,3,,,,,,,,,2,,,51,0
130080,note_on,0,0,3,,,,,,,,,2,,,53,101
130200,note_on,0,0,4,,,,,,,,,3,,,40,101
130200,note_on,120,0,4,,,,,,,,,3,,,41,0
130200,note_on,0,0,3,,,,,,,,,2,,,52,101
130200,note_on,120,0,3,,,,,,,,,2,,,53,0
130320,note_on,0,0,4,,,,,,,,,3,,,41,101
130320,note_on,120,0,4,,,,,,,,,3,,,40,0
130320,note_on,0,0,3,,,,,,,,,2,,,53,101
130320,note_on,120,0,3,,,,,,,,,2,,,52,0
130440,note_on,120,0,4,,,,,,,,,3,,,41,0
130440,note_on,120,0,3,,,,,,,,,2,,,53,0
130440,note_on,0,0,4,,,,,,,,,3,,,45,101
130440,note_on,0,0,3,,,,,,,,,2,,,57,101
130500,note_on,60,0,4,,,,,,,,,3,,,48,101
130500,note_on,60,0,3,,,,,,,,,2,,,60,101
130560,note_on,0,0,3,,,,,,,,,2,,,57,0
130560,note_on,0,0,3,,,,,,,,,2,,,58,101
130560,note_on,60,0,3,,,,,,,,,2,,,60,0
130560,note_on,60,0,4,,,,,,,,,3,,,48,0
130560,note_on,0,0,4,,,,,,,,,3,,,45,0
130560,note_on,0,0,4,,,,,,,,,3,,,46,101
130680,note_on,120,0,4,,,,,,,,,3,,,46,0
130680,note_on,0,0,4,,,,,,,,,3,,,45,101
130680,note_on,120,0,3,,,,,,,,,2,,,58,0
130680,note_on,0,0,3,,,,,,,,,2,,,57,101
130800,note_on,120,0,4,,,,,,,,,3,,,45,0
130800,note_on,120,0,3,,,,,,,,,2,,,57,0
130800,note_on,0,0,3,,,,,,,,,2,,,58,101
130800,note_on,0,0,4,,,,,,,,,3,,,46,101
130920,note_on,0,0,3,,,,,,,,,2,,,60,101
130920,note_on,120,0,3,,,,,,,,,2,,,58,0
130920,note_on,0,0,4,,,,,,,,,3,,,48,101
130920,note_on,120,0,4,,,,,,,,,3,,,46,0
131040,note_on,0,0,3,,,,,,,,,2,,,62,127
131040,note_on,120,0,4,,,,,,,,,3,,,48,0
131040,note_on,0,0,4,,,,,,,,,3,,,50,127
131040,note_on,120,0,3,,,,,,,,,2,,,60,0
131280,note_on,0,0,2,,,,,,,,,1,,,65,0
131280,control_change,0,0,1,,,,,,,,,0,64,127,,
131280,note_on,0,0,1,,,,,,,,,0,,,89,62
131280,note_on,0,0,1,,,,,,,,,0,,,77,0
131280,note_on,0,0,2,,,,,,,,,1,,,70,0
131280,note_on,2160,0,1,,,,,,,,,0,,,86,0
131280,note_on,2160,0,2,,,,,,,,,1,,,74,0
131280,control_change,0,0,2,,,,,,,,,1,64,127,,
131280,note_on,0,0,2,,,,,,,,,1,,,74,62
131280,note_on,0,0,2,,,,,,,,,1,,,77,62
131280,note_on,0,0,1,,,,,,,,,0,,,82,0
131280,note_on,0,0,1,,,,,,,,,0,,,86,62
131520,note_on,240,0,1,,,,,,,,,0,,,89,0
131520,note_on,0,0,1,,,,,,,,,0,,,86,62
131520,note_on,0,0,1,,,,,,,,,0,,,86,0
131520,note_on,240,0,2,,,,,,,,,1,,,77,0
131520,note_on,0,0,2,,,,,,,,,1,,,74,0
131520,note_on,0,0,1,,,,,,,,,0,,,82,62
131520,note_on,0,0,2,,,,,,,,,1,,,74,62
131520,note_on,0,0,2,,,,,,,,,1,,,70,62
131760,control_change,0,0,2,,,,,,,,,1,64,0,,
131760,note_on,0,0,2,,,,,,,,,1,,,70,0
131760,note_on,0,0,2,,,,,,,,,1,,,69,62
131760,note_on,0,0,2,,,,,,,,,1,,,72,62
131760,note_on,0,0,2,,,,,,,,,1,,,66,62
131760,note_on,240,0,2,,,,,,,,,1,,,74,0
131760,note_on,240,0,1,,,,,,,,,0,,,86,0
131760,note_on,0,0,1,,,,,,,,,0,,,78,62
131760,note_on,0,0,1,,,,,,,,,0,,,81,62
131760,note_on,0,0,1,,,,,,,,,0,,,84,62
131760,control_change,0,0,1,,,,,,,,,0,64,0,,
131760,note_on,0,0,1,,,,,,,,,0,,,82,0
132000,note_on,0,0,2,,,,,,,,,1,,,70,62
132000,note_on,0,0,2,,,,,,,,,1,,,67,62
132000,note_on,0,0,2,,,,,,,,,1,,,69,0
132000,note_on,240,0,2,,,,,,,,,1,,,72,0
132000,note_on,960,0,4,,,,,,,,,3,,,50,0
132000,note_on,0,0,4,,,,,,,,,3,,,39,62
132000,note_on,0,0,2,,,,,,,,,1,,,66,0
132000,note_on,0,0,1,,,,,,,,,0,,,78,0
132000,note_on,240,0,1,,,,,,,,,0,,,84,0
132000,note_on,0,0,1,,,,,,,,,0,,,79,62
132000,note_on,0,0,1,,,,,,,,,0,,,82,62
132000,note_on,960,0,3,,,,,,,,,2,,,62,0
132000,note_on,0,0,1,,,,,,,,,0,,,81,0
132120,note_on,120,0,3,,,,,,,,,2,,,46,49
132240,note_on,120,0,3,,,,,,,,,2,,,46,0
132240,note_on,240,0,4,,,,,,,,,3,,,39,0
132240,note_on,0,0,3,,,,,,,,,2,,,55,49
132360,note_on,120,0,3,,,,,,,,,2,,,55,0
132360,note_on,0,0,3,,,,,,,,,2,,,46,49
132480,note_on,480,0,2,,,,,,,,,1,,,70,0
132480,note_on,0,0,2,,,,,,,,,1,,,67,0
132480,note_on,480,0,1,,,,,,,,,0,,,82,0
132480,note_on,240,0,4,,,,,,,,,3,,,39,62
132480,note_on,120,0,3,,,,,,,,,2,,,46,0
132480,note_on,0,0,1,,,,,,,,,0,,,79,0
132600,note_on,120,0,3,,,,,,,,,2,,,46,49
132720,note_on,120,0,3,,,,,,,,,2,,,46,0
132720,note_on,0,0,3,,,,,,,,,2,,,55,49
132720,note_on,240,0,4,,,,,,,,,3,,,39,0
132720,note_on,240,0,1,,,,,,,,,0,,,79,62
132720,note_on,240,0,2,,,,,,,,,1,,,67,62
132840,note_on,120,0,3,,,,,,,,,2,,,55,0
132840,note_on,0,0,3,,,,,,,,,2,,,46,49
132960,note_on,0,0,2,,,,,,,,,1,,,65,62
132960,note_on,120,0,3,,,,,,,,,2,,,46,0
132960,note_on,240,0,2,,,,,,,,,1,,,67,0
132960,note_on,240,0,4,,,,,,,,,3,,,39,62
132960,note_on,0,0,1,,,,,,,,,0,,,77,62
132960,note_on,240,0,1,,,,,,,,,0,,,79,0
133080,note_on,120,0,3,,,,,,,,,2,,,46,49
133200,note_on,0,0,2,,,,,,,,,1,,,63,62
133200,note_on,240,0,2,,,,,,,,,1,,,65,0
133200,note_on,0,0,1,,,,,,,,,0,,,75,62
133200,note_on,0,0,3,,,,,,,,,2,,,55,49
133200,note_on,240,0,4,,,,,,,,,3,,,39,0
133200,note_on,120,0,3,,,,,,,,,2,,,46,0
133200,note_on,240,0,1,,,,,,,,,0,,,77,0
133320,note_on,120,0,3,,,,,,,,,2,,,55,0
133320,note_on,0,0,3,,,,,,,,,2,,,46,49
133440,note_on,0,0,2,,,,,,,,,1,,,63,62
133440,note_on,240,0,2,,,,,,,,,1,,,63,0
133440,note_on,0,0,1,,,,,,,,,0,,,75,62
133440,note_on,240,0,1,,,,,,,,,0,,,75,0
133440,note_on,120,0,3,,,,,,,,,2,,,46,0
133440,note_on,240,0,4,,,,,,,,,3,,,41,62
133560,note_on,120,0,3,,,,,,,,,2,,,46,49
133680,note_on,120,0,3,,,,,,,,,2,,,46,0
133680,note_on,0,0,3,,,,,,,,,2,,,56,49
133680,note_on,240,0,4,,,,,,,,,3,,,41,0
133800,note_on,0,0,3,,,,,,,,,2,,,46,49
133800,note_on,120,0,3,,,,,,,,,2,,,56,0
133920,note_on,0,0,1,,,,,,,,,0,,,74,62
133920,note_on,120,0,3,,,,,,,,,2,,,46,0
133920,note_on,240,0,4,,,,,,,,,3,,,41,62
133920,note_on,480,0,2,,,,,,,,,1,,,63,0
133920,note_on,0,0,2,,,,,,,,,1,,,62,62
133920,note_on,480,0,1,,,,,,,,,0,,,75,0
134040,note_on,120,0,3,,,,,,,,,2,,,46,49
134160,note_on,120,0,3,,,,,,,,,2,,,46,0
134160,note_on,0,0,3,,,,,,,,,2,,,56,49
134160,note_on,240,0,2,,,,,,,,,1,,,62,0
134160,note_on,240,0,4,,,,,,,,,3,,,41,0
134160,note_on,240,0,1,,,,,,,,,0,,,74,0
134160,control_change,0,0,1,,,,,,,,,0,64,127,,
134160,note_on,0,0,1,,,,,,,,,0,,,82,62
134160,control_change,0,0,2,,,,,,,,,1,64,127,,
134160,note_on,0,0,2,,,,,,,,,1,,,70,62
134280,note_on,120,0,3,,,,,,,,,2,,,56,0
134280,note_on,0,0,3,,,,,,,,,2,,,46,49
134400,note_on,120,0,3,,,,,,,,,2,,,46,0
134400,note_on,240,0,2,,,,,,,,,1,,,70,0
134400,note_on,0,0,1,,,,,,,,,0,,,82,62
134400,note_on,240,0,1,,,,,,,,,0,,,82,0
134400,note_on,240,0,4,,,,,,,,,3,,,41,62
134400,note_on,0,0,2,,,,,,,,,1,,,70,62
134520,note_on,120,0,3,,,,,,,,,2,,,50,49
134640,note_on,240,0,1,,,,,,,,,0,,,82,0
134640,control_change,0,0,1,,,,,,,,,0,64,0,,
134640,note_on,0,0,1,,,,,,,,,0,,,82,62
134640,note_on,240,0,4,,,,,,,,,3,,,41,0
134640,note_on,240,0,2,,,,,,,,,1,,,70,0
134640,control_change,0,0,2,,,,,,,,,1,64,0,,
134640,note_on,120,0,3,,,,,,,,,2,,,50,0
134640,note_on,0,0,3,,,,,,,,,2,,,56,49
134640,note_on,0,0,2,,,,,,,,,1,,,70,62
134760,note_on,120,0,3,,,,,,,,,2,,,56,0
134760,note_on,0,0,3,,,,,,,,,2,,,50,49
134880,note_on,120,0,3,,,,,,,,,2,,,50,0
134880,note_on,0,0,1,,,,,,,,,0,,,82,88
134880,note_on,240,0,1,,,,,,,,,0,,,82,0
134880,note_on,240,0,4,,,,,,,,,3,,,43,62
134880,note_on,0,0,2,,,,,,,,,1,,,70,88
134880,note_on,240,0,2,,,,,,,,,1,,,70,0
135000,note_on,120,0,3,,,,,,,,,2,,,51,49
135120,note_on,0,0,3,,,,,,,,,2,,,55,49
135120,note_on,240,0,4,,,,,,,,,3,,,43,0
135120,note_on,120,0,3,,,,,,,,,2,,,51,0
135240,note_on,0,0,3,,,,,,,,,2,,,46,49
135240,note_on,120,0,3,,,,,,,,,2,,,55,0
135360,note_on,120,0,3,,,,,,,,,2,,,46,0
135360,note_on,240,0,4,,,,,,,,,3,,,43,62
135360,note_on,0,0,2,,,,,,,,,1,,,63,62
135360,note_on,480,0,2,,,,,,,,,1,,,70,0
135360,note_on,0,0,1,,,,,,,,,0,,,75,62
135360,note_on,480,0,1,,,,,,,,,0,,,82,0
135480,note_on,120,0,3,,,,,,,,,2,,,51,49
135600,note_on,0,0,2,,,,,,,,,1,,,79,62
135600,note_on,240,0,2,,,,,,,,,1,,,63,0
135600,note_on,0,0,3,,,,,,,,,2,,,58,49
135600,note_on,0,0,1,,,,,,,,,0,,,91,62
135600,note_on,240,0,1,,,,,,,,,0,,,75,0
135600,note_on,240,0,4,,,,,,,,,3,,,43,0
135600,note_on,120,0,3,,,,,,,,,2,,,51,0
135720,note_on,0,0,3,,,,,,,,,2,,,46,49
135720,note_on,120,0,3,,,,,,,,,2,,,58,0
135840,note_on,120,0,3,,,,,,,,,2,,,46,0
135840,note_on,240,0,2,,,,,,,,,1,,,79,0
135840,note_on,240,0,4,,,,,,,,,3,,,43,62
135840,note_on,240,0,1,,,,,,,,,0,,,91,0
135840,note_on,0,0,1,,,,,,,,,0,,,89,62
135840,note_on,0,0,2,,,,,,,,,1,,,77,62
135960,note_on,120,0,3,,,,,,,,,2,,,51,49
136080,note_on,0,0,2,,,,,,,,,1,,,75,62
136080,note_on,120,0,3,,,,,,,,,2,,,51,0
136080,note_on,0,0,3,,,,,,,,,2,,,58,49
136080,note_on,240,0,4,,,,,,,,,3,,,43,0
136080,note_on,240,0,1,,,,,,,,,0,,,89,0
136080,note_on,0,0,1,,,,,,,,,0,,,87,62
136080,note_on,240,0,2,,,,,,,,,1,,,77,0
136200,note_on,120,0,3,,,,,,,,,2,,,58,0
136200,note_on,0,0,3,,,,,,,,,2,,,46,49
136320,note_on,240,0,1,,,,,,,,,0,,,87,0
136320,note_on,0,0,1,,,,,,,,,0,,,87,88
136320,note_on,240,0,2,,,,,,,,,1,,,75,0
136320,note_on,0,0,2,,,,,,,,,1,,,75,88
136320,note_on,120,0,3,,,,,,,,,2,,,46,0
136320,note_on,240,0,4,,,,,,,,,3,,,44,62
136440,note_on,120,0,3,,,,,,,,,2,,,46,49
136560,note_on,0,0,3,,,,,,,,,2,,,53,49
136560,note_on,120,0,3,,,,,,,,,2,,,46,0
136560,note_on,240,0,4,,,,,,,,,3,,,44,0
136680,note_on,0,0,3,,,,,,,,,2,,,58,49
136680,note_on,120,0,3,,,,,,,,,2,,,53,0
136800,note_on,120,0,3,,,,,,,,,2,,,58,0
136800,note_on,0,0,2,,,,,,,,,1,,,74,62
136800,note_on,0,0,1,,,,,,,,,0,,,86,62
136800,note_on,480,0,1,,,,,,,,,0,,,87,0
136800,note_on,240,0,4,,,,,,,,,3,,,44,62
136800,note_on,480,0,2,,,,,,,,,1,,,75,0
136920,note_on,120,0,3,,,,,,,,,2,,,46,49
137040,note_on,0,0,3,,,,,,,,,2,,,53,49
137040,note_on,0,0,2,,,,,,,,,1,,,82,62
137040,control_change,0,0,2,,,,,,,,,1,64,127,,
137040,note_on,240,0,2,,,,,,,,,1,,,74,0
137040,note_on,240,0,4,,,,,,,,,3,,,44,0
137040,note_on,0,0,1,,,,,,,,,0,,,94,62
137040,control_change,0,0,1,,,,,,,,,0,64,127,,
137040,note_on,240,0,1,,,,,,,,,0,,,86,0
137040,note_on,120,0,3,,,,,,,,,2,,,46,0
137160,note_on,120,0,3,,,,,,,,,2,,,53,0
137160,note_on,0,0,3,,,,,,,,,2,,,58,49
137280,note_on,240,0,4,,,,,,,,,3,,,44,62
137280,note_on,120,0,3,,,,,,,,,2,,,58,0
137280,note_on,0,0,2,,,,,,,,,1,,,82,62
137280,note_on,240,0,2,,,,,,,,,1,,,82,0
137280,note_on,0,0,1,,,,,,,,,0,,,94,62
137280,note_on,240,0,1,,,,,,,,,0,,,94,0
137400,note_on,120,0,3,,,,,,,,,2,,,46,49
137520,note_on,240,0,1,,,,,,,,,0,,,94,0
137520,note_on,0,0,3,,,,,,,,,2,,,53,49
137520,note_on,0,0,1,,,,,,,,,0,,,94,62
137520,control_change,0,0,1,,,,,,,,,0,64,0,,
137520,note_on,120,0,3,,,,,,,,,2,,,46,0
137520,note_on,240,0,4,,,,,,,,,3,,,44,0
137520,note_on,240,0,2,,,,,,,,,1,,,82,0
137520,control_change,0,0,2,,,,,,,,,1,64,0,,
137520,note_on,0,0,2,,,,,,,,,1,,,82,62
137640,note_on,120,0,3,,,,,,,,,2,,,53,0
137640,note_on,0,0,3,,,,,,,,,2,,,58,49
137760,note_on,0,0,1,,,,,,,,,0,,,94,88
137760,note_on,240,0,1,,,,,,,,,0,,,94,0
137760,note_on,120,0,3,,,,,,,,,2,,,58,0
137760,note_on,0,0,2,,,,,,,,,1,,,82,88
137760,note_on,240,0,4,,,,,,,,,3,,,43,62
137760,note_on,240,0,2,,,,,,,,,1,,,82,0
137880,note_on,120,0,3,,,,,,,,,2,,,46,49
138000,note_on,120,0,3,,,,,,,,,2,,,46,0
138000,note_on,240,0,4,,,,,,,,,3,,,43,0
138000,note_on,0,0,3,,,,,,,,,2,,,51,49
138120,note_on,120,0,3,,,,,,,,,2,,,51,0
138120,note_on,0,0,3,,,,,,,,,2,,,58,49
138240,note_on,120,0,3,,,,,,,,,2,,,58,0
138240,note_on,240,0,4,,,,,,,,,3,,,43,62
138240,note_on,480,0,2,,,,,,,,,1,,,82,0
138240,note_on,0,0,2,,,,,,,,,1,,,75,62
138240,note_on,480,0,1,,,,,,,,,0,,,94,0
138240,note_on,0,0,1,,,,,,,,,0,,,87,62
138360,note_on,120,0,3,,,,,,,,,2,,,46,49
138480,note_on,240,0,2,,,,,,,,,1,,,75,0
138480,control_change,0,0,2,,,,,,,,,1,64,127,,
138480,note_on,0,0,2,,,,,,,,,1,,,70,62
138480,note_on,0,0,1,,,,,,,,,0,,,82,62
138480,note_on,0,0,3,,,,,,,,,2,,,51,49
138480,note_on,120,0,3,,,,,,,,,2,,,46,0
138480,note_on,240,0,4,,,,,,,,,3,,,43,0
138480,control_change,0,0,1,,,,,,,,,0,64,127,,
138480,note_on,240,0,1,,,,,,,,,0,,,87,0
138600,note_on,120,0,3,,,,,,,,,2,,,51,0
138600,note_on,0,0,3,,,,,,,,,2,,,58,49
138720,note_on,0,0,2,,,,,,,,,1,,,70,62
138720,note_on,240,0,2,,,,,,,,,1,,,70,0
138720,note_on,0,0,1,,,,,,,,,0,,,82,62
138720,note_on,240,0,4,,,,,,,,,3,,,43,62
138720,note_on,120,0,3,,,,,,,,,2,,,58,0
138720,note_on,240,0,1,,,,,,,,,0,,,82,0
138840,note_on,120,0,3,,,,,,,,,2,,,46,49
138960,note_on,0,0,1,,,,,,,,,0,,,82,62
138960,note_on,0,0,2,,,,,,,,,1,,,70,62
138960,control_change,0,0,2,,,,,,,,,1,64,0,,
138960,note_on,240,0,2,,,,,,,,,1,,,70,0
138960,control_change,0,0,1,,,,,,,,,0,64,0,,
138960,note_on,240,0,4,,,,,,,,,3,,,43,0
138960,note_on,240,0,1,,,,,,,,,0,,,82,0
138960,note_on,0,0,3,,,,,,,,,2,,,51,49
138960,note_on,120,0,3,,,,,,,,,2,,,46,0
139080,note_on,120,0,3,,,,,,,,,2,,,51,0
139080,note_on,0,0,3,,,,,,,,,2,,,58,49
139200,note_on,240,0,1,,,,,,,,,0,,,82,0
139200,control_change,0,0,1,,,,,,,,,0,64,127,,
139200,note_on,240,0,2,,,,,,,,,1,,,70,0
139200,control_change,0,0,2,,,,,,,,,1,64,127,,
139200,note_on,0,0,1,,,,,,,,,0,,,81,62
139200,note_on,0,0,2,,,,,,,,,1,,,69,62
139200,note_on,240,0,4,,,,,,,,,3,,,45,62
139200,note_on,120,0,3,,,,,,,,,2,,,58,0
139320,note_on,120,0,3,,,,,,,,,2,,,52,49
139440,note_on,120,0,3,,,,,,,,,2,,,52,0
139440,note_on,0,0,3,,,,,,,,,2,,,57,49
139440,note_on,240,0,4,,,,,,,,,3,,,45,0
139560,note_on,120,0,3,,,,,,,,,2,,,57,0
139560,note_on,0,0,3,,,,,,,,,2,,,61,49
139680,note_on,240,0,4,,,,,,,,,3,,,45,62
139680,note_on,120,0,3,,,,,,,,,2,,,61,0
139800,note_on,120,0,3,,,,,,,,,2,,,52,49
139920,note_on,0,0,3,,,,,,,,,2,,,57,49
139920,note_on,720,0,1,,,,,,,,,0,,,81,0
139920,note_on,0,0,1,,,,,,,,,0,,,91,62
139920,note_on,240,0,4,,,,,,,,,3,,,45,0
139920,note_on,720,0,2,,,,,,,,,1,,,69,0
139920,note_on,120,0,3,,,,,,,,,2,,,52,0
139920,note_on,0,0,2,,,,,,,,,1,,,79,62
140040,note_on,120,0,3,,,,,,,,,2,,,57,0
140040,note_on,0,0,3,,,,,,,,,2,,,61,49
140160,note_on,0,0,2,,,,,,,,,1,,,77,62
140160,note_on,240,0,2,,,,,,,,,1,,,79,0
140160,note_on,120,0,3,,,,,,,,,2,,,61,0
140160,note_on,0,0,1,,,,,,,,,0,,,89,62
140160,note_on,240,0,1,,,,,,,,,0,,,91,0
140160,note_on,240,0,4,,,,,,,,,3,,,45,62
140280,note_on,120,0,3,,,,,,,,,2,,,55,49
140400,note_on,0,0,2,,,,,,,,,1,,,76,62
140400,control_change,0,0,2,,,,,,,,,1,64,0,,
140400,note_on,240,0,2,,,,,,,,,1,,,77,0
140400,note_on,0,0,3,,,,,,,,,2,,,57,49
140400,note_on,240,0,1,,,,,,,,,0,,,89,0
140400,note_on,240,0,4,,,,,,,,,3,,,45,0
140400,control_change,0,0,1,,,,,,,,,0,64,0,,
140400,note_on,0,0,1,,,,,,,,,0,,,88,62
140400,note_on,120,0,3,,,,,,,,,2,,,55,0
140520,note_on,120,0,3,,,,,,,,,2,,,57,0
140520,note_on,0,0,3,,,,,,,,,2,,,61,49
140640,note_on,120,0,3,,,,,,,,,2,,,61,0
140640,note_on,240,0,2,,,,,,,,,1,,,76,0
140640,note_on,240,0,4,,,,,,,,,3,,,45,62
140640,note_on,240,0,1,,,,,,,,,0,,,88,0
140640,note_on,0,0,1,,,,,,,,,0,,,94,88
140640,note_on,0,0,2,,,,,,,,,1,,,82,88
140760,note_on,120,0,3,,,,,,,,,2,,,53,49
140880,note_on,120,0,3,,,,,,,,,2,,,53,0
140880,note_on,240,0,4,,,,,,,,,3,,,45,0
140880,note_on,0,0,3,,,,,,,,,2,,,62,49
141000,note_on,0,0,3,,,,,,,,,2,,,65,49
141000,note_on,120,0,3,,,,,,,,,2,,,62,0
141120,note_on,240,0,4,,,,,,,,,3,,,45,62
141120,note_on,480,0,1,,,,,,,,,0,,,94,0
141120,note_on,120,0,3,,,,,,,,,2,,,65,0
141120,note_on,0,0,1,,,,,,,,,0,,,93,62
141120,note_on,480,0,2,,,,,,,,,1,,,82,0
141120,note_on,0,0,2,,,,,,,,,1,,,81,62
141240,note_on,120,0,3,,,,,,,,,2,,,53,49
141360,note_on,0,0,3,,,,,,,,,2,,,57,49
141360,note_on,120,0,3,,,,,,,,,2,,,53,0
141360,note_on,240,0,2,,,,,,,,,1,,,81,0
141360,note_on,0,0,2,,,,,,,,,1,,,77,62
141360,note_on,240,0,4,,,,,,,,,3,,,45,0
141360,note_on,240,0,1,,,,,,,,,0,,,93,0
141360,note_on,0,0,1,,,,,,,,,0,,,89,62
141480,note_on,0,0,3,,,,,,,,,2,,,62,49
141480,note_on,120,0,3,,,,,,,,,2,,,57,0
141600,note_on,0,0,1,,,,,,,,,0,,,88,62
141600,note_on,240,0,1,,,,,,,,,0,,,89,0
141600,note_on,240,0,4,,,,,,,,,3,,,45,62
141600,note_on,240,0,2,,,,,,,,,1,,,77,0
141600,note_on,0,0,2,,,,,,,,,1,,,76,62
141600,note_on,120,0,3,,,,,,,,,2,,,62,0
141720,note_on,120,0,3,,,,,,,,,2,,,53,49
141840,note_on,0,0,2,,,,,,,,,1,,,74,62
141840,note_on,240,0,2,,,,,,,,,1,,,76,0
141840,note_on,120,0,3,,,,,,,,,2,,,53,0
141840,note_on,0,0,3,,,,,,,,,2,,,57,49
141840,note_on,0,0,1,,,,,,,,,0,,,86,62
141840,note_on,240,0,1,,,,,,,,,0,,,88,0
141840,note_on,240,0,4,,,,,,,,,3,,,45,0
141960,note_on,120,0,3,,,,,,,,,2,,,57,0
141960,note_on,0,0,3,,,,,,,,,2,,,62,49
142080,note_on,0,0,2,,,,,,,,,1,,,69,62
142080,control_change,0,0,2,,,,,,,,,1,64,127,,
142080,note_on,240,0,2,,,,,,,,,1,,,74,0
142080,note_on,0,0,1,,,,,,,,,0,,,81,62
142080,control_change,0,0,1,,,,,,,,,0,64,127,,
142080,note_on,240,0,1,,,,,,,,,0,,,86,0
142080,note_on,240,0,4,,,,,,,,,3,,,45,62
142080,note_on,120,0,3,,,,,,,,,2,,,62,0
142200,note_on,120,0,3,,,,,,,,,2,,,49,49
142320,note_on,240,0,4,,,,,,,,,3,,,45,0
142320,note_on,0,0,3,,,,,,,,,2,,,55,49
142320,note_on,120,0,3,,,,,,,,,2,,,49,0
142440,note_on,0,0,3,,,,,,,,,2,,,57,49
142440,note_on,120,0,3,,,,,,,,,2,,,55,0
142560,note_on,240,0,4,,,,,,,,,3,,,45,62
142560,note_on,120,0,3,,,,,,,,,2,,,57,0
142680,note_on,120,0,3,,,,,,,,,2,,,49,49
142800,note_on,240,0,4,,,,,,,,,3,,,45,0
142800,note_on,0,0,2,,,,,,,,,1,,,67,62
142800,note_on,120,0,3,,,,,,,,,2,,,49,0
142800,note_on,0,0,3,,,,,,,,,2,,,55,49
142800,note_on,720,0,1,,,,,,,,,0,,,81,0
142800,note_on,720,0,2,,,,,,,,,1,,,69,0
142800,note_on,0,0,1,,,,,,,,,0,,,79,62
142920,note_on,120,0,3,,,,,,,,,2,,,55,0
142920,note_on,0,0,3,,,,,,,,,2,,,57,49
143040,note_on,240,0,4,,,,,,,,,3,,,45,62
143040,note_on,0,0,2,,,,,,,,,1,,,65,62
143040,note_on,240,0,2,,,,,,,,,1,,,67,0
143040,note_on,0,0,1,,,,,,,,,0,,,77,62
143040,note_on,240,0,1,,,,,,,,,0,,,79,0
143040,note_on,120,0,3,,,,,,,,,2,,,57,0
143160,note_on,120,0,3,,,,,,,,,2,,,49,49
143280,note_on,240,0,1,,,,,,,,,0,,,77,0
143280,note_on,240,0,4,,,,,,,,,3,,,45,0
143280,control_change,0,0,1,,,,,,,,,0,64,0,,
143280,note_on,0,0,3,,,,,,,,,2,,,55,49
143280,note_on,240,0,2,,,,,,,,,1,,,65,0
143280,note_on,0,0,2,,,,,,,,,1,,,64,62
143280,control_change,0,0,2,,,,,,,,,1,64,0,,
143280,note_on,120,0,3,,,,,,,,,2,,,49,0
143280,note_on,0,0,1,,,,,,,,,0,,,76,62
143400,note_on,120,0,3,,,,,,,,,2,,,55,0
143400,note_on,0,0,3,,,,,,,,,2,,,57,49
143520,note_on,120,0,3,,,,,,,,,2,,,57,0
143520,note_on,240,0,4,,,,,,,,,3,,,45,62
143520,note_on,0,0,2,,,,,,,,,1,,,67,62
143520,note_on,0,0,1,,,,,,,,,0,,,79,62
143520,note_on,240,0,1,,,,,,,,,0,,,76,0
143520,note_on,240,0,2,,,,,,,,,1,,,64,0
143640,note_on,120,0,3,,,,,,,,,2,,,50,49
143760,note_on,0,0,3,,,,,,,,,2,,,53,49
143760,note_on,120,0,3,,,,,,,,,2,,,50,0
143760,note_on,240,0,4,,,,,,,,,3,,,45,0
143880,note_on,120,0,3,,,,,,,,,2,,,53,0
143880,note_on,0,0,3,,,,,,,,,2,,,57,49
144000,note_on,480,0,1,,,,,,,,,0,,,79,0
144000,note_on,480,0,2,,,,,,,,,1,,,67,0
144000,note_on,0,0,1,,,,,,,,,0,,,77,62
144000,note_on,240,0,4,,,,,,,,,3,,,45,62
144000,note_on,0,0,2,,,,,,,,,1,,,65,62
144000,note_on,120,0,3,,,,,,,,,2,,,57,0
144120,note_on,120,0,3,,,,,,,,,2,,,50,49
144240,note_on,240,0,4,,,,,,,,,3,,,45,0
144240,note_on,240,0,2,,,,,,,,,1,,,65,0
144240,note_on,0,0,3,,,,,,,,,2,,,53,49
144240,note_on,0,0,2,,,,,,,,,1,,,65,62
144240,note_on,240,0,1,,,,,,,,,0,,,77,0
144240,note_on,0,0,1,,,,,,,,,0,,,77,62
144240,note_on,120,0,3,,,,,,,,,2,,,50,0
144360,note_on,120,0,3,,,,,,,,,2,,,53,0
144360,note_on,0,0,3,,,,,,,,,2,,,57,49
144480,note_on,120,0,3,,,,,,,,,2,,,57,0
144480,note_on,0,0,2,,,,,,,,,1,,,64,62
144480,note_on,240,0,2,,,,,,,,,1,,,65,0
144480,note_on,240,0,4,,,,,,,,,3,,,45,62
144480,note_on,240,0,1,,,,,,,,,0,,,77,0
144480,note_on,0,0,1,,,,,,,,,0,,,76,62
144600,note_on,120,0,3,,,,,,,,,2,,,50,49
144720,note_on,0,0,2,,,,,,,,,1,,,62,62
144720,note_on,240,0,4,,,,,,,,,3,,,45,0
144720,note_on,0,0,3,,,,,,,,,2,,,53,49
144720,note_on,240,0,2,,,,,,,,,1,,,64,0
144720,note_on,0,0,1,,,,,,,,,0,,,74,62
144720,note_on,120,0,3,,,,,,,,,2,,,50,0
144720,note_on,240,0,1,,,,,,,,,0,,,76,0
144840,note_on,120,0,3,,,,,,,,,2,,,53,0
144840,note_on,0,0,3,,,,,,,,,2,,,57,49
144960,note_on,240,0,1,,,,,,,,,0,,,74,0
144960,control_change,0,0,1,,,,,,,,,0,64,127,,
144960,note_on,0,0,1,,,,,,,,,0,,,86,88
144960,note_on,120,0,3,,,,,,,,,2,,,57,0
144960,note_on,240,0,4,,,,,,,,,3,,,46,88
144960,note_on,0,0,2,,,,,,,,,1,,,74,88
144960,control_change,0,0,2,,,,,,,,,1,64,127,,
144960,note_on,240,0,2,,,,,,,,,1,,,62,0
145080,note_on,120,0,3,,,,,,,,,2,,,50,49
145200,note_on,240,0,4,,,,,,,,,3,,,46,0
145200,note_on,0,0,3,,,,,,,,,2,,,53,49
145200,note_on,120,0,3,,,,,,,,,2,,,50,0
145320,note_on,0,0,3,,,,,,,,,2,,,62,49
145320,note_on,120,0,3,,,,,,,,,2,,,53,0
145440,note_on,120,0,3,,,,,,,,,2,,,62,0
145440,note_on,240,0,4,,,,,,,,,3,,,46,62
145560,note_on,120,0,3,,,,,,,,,2,,,50,49
145680,note_on,720,0,1,,,,,,,,,0,,,86,0
145680,note_on,0,0,1,,,,,,,,,0,,,82,62
145680,note_on,720,0,2,,,,,,,,,1,,,74,0
145680,note_on,0,0,3,,,,,,,,,2,,,53,49
145680,note_on,120,0,3,,,,,,,,,2,,,50,0
145680,note_on,0,0,2,,,,,,,,,1,,,70,62
145680,note_on,240,0,4,,,,,,,,,3,,,46,0
145800,note_on,120,0,3,,,,,,,,,2,,,53,0
145800,note_on,0,0,3,,,,,,,,,2,,,62,49
145920,note_on,240,0,2,,,,,,,,,1,,,70,0
145920,note_on,240,0,1,,,,,,,,,0,,,82,0
145920,note_on,240,0,4,,,,,,,,,3,,,34,62
145920,note_on,0,0,1,,,,,,,,,0,,,81,62
145920,note_on,0,0,2,,,,,,,,,1,,,69,62
145920,note_on,120,0,3,,,,,,,,,2,,,62,0
146040,note_on,120,0,3,,,,,,,,,2,,,50,49
146160,note_on,0,0,1,,,,,,,,,0,,,80,62
146160,note_on,0,0,3,,,,,,,,,2,,,53,49
146160,note_on,120,0,3,,,,,,,,,2,,,50,0
146160,note_on,240,0,1,,,,,,,,,0,,,81,0
146160,note_on,240,0,4,,,,,,,,,3,,,34,0
146160,note_on,240,0,2,,,,,,,,,1,,,69,0
146160,note_on,0,0,2,,,,,,,,,1,,,68,62
146280,note_on,0,0,3,,,,,,,,,2,,,62,49
146280,note_on,120,0,3,,,,,,,,,2,,,53,0
146400,note_on,0,0,1,,,,,,,,,0,,,81,62
146400,note_on,120,0,3,,,,,,,,,2,,,62,0
146400,note_on,240,0,4,,,,,,,,,3,,,33,62
146400,control_change,0,0,1,,,,,,,,,0,64,0,,
146400,note_on,0,0,2,,,,,,,,,1,,,69,62
146400,control_change,0,0,2,,,,,,,,,1,64,0,,
146400,note_on,240,0,1,,,,,,,,,0,,,80,0
146400,note_on,240,0,2,,,,,,,,,1,,,68,0
146520,control_change,120,0,3,,,,,,,,,2,64,127,,
146520,note_on,0,0,3,,,,,,,,,2,,,45,49
146640,note_on,0,0,3,,,,,,,,,2,,,52,49
146640,note_on,240,0,4,,,,,,,,,3,,,33,0
146640,note_on,120,0,3,,,,,,,,,2,,,45,0
146760,note_on,0,0,3,,,,,,,,,2,,,57,49
146760,note_on,120,0,3,,,,,,,,,2,,,52,0
146880,note_on,0,0,3,,,,,,,,,2,,,61,49
146880,control_change,0,0,3,,,,,,,,,2,64,0,,
146880,note_on,120,0,3,,,,,,,,,2,,,57,0
147120,note_on,0,0,1,,,,,,,,,0,,,81,62
147120,note_on,240,0,3,,,,,,,,,2,,,61,0
147120,note_on,720,0,1,,,,,,,,,0,,,81,0
147120,control_change,0,0,1,,,,,,,,,0,64,127,,
147120,control_change,0,0,2,,,,,,,,,1,64,127,,
147120,note_on,0,0,2,,,,,,,,,1,,,69,62
147120,note_on,720,0,2,,,,,,,,,1,,,69,0
147360,note_on,240,0,2,,,,,,,,,1,,,69,0
147360,note_on,0,0,1,,,,,,,,,0,,,81,62
147360,note_on,240,0,1,,,,,,,,,0,,,81,0
147360,note_on,0,0,2,,,,,,,,,1,,,69,62
147600,note_on,0,0,2,,,,,,,,,1,,,69,62
147600,control_change,0,0,2,,,,,,,,,1,64,0,,
147600,note_on,240,0,2,,,,,,,,,1,,,69,0
147600,control_change,0,0,1,,,,,,,,,0,64,0,,
147600,note_on,0,0,1,,,,,,,,,0,,,81,62
147600,note_on,240,0,1,,,,,,,,,0,,,81,0
147840,note_on,1200,0,4,,,,,,,,,3,,,33,62
147840,note_on,0,0,2,,,,,,,,,1,,,70,62
147840,note_on,240,0,2,,,,,,,,,1,,,69,0
147840,note_on,240,0,1,,,,,,,,,0,,,81,0
147840,note_on,0,0,1,,,,,,,,,0,,,82,62
147960,control_change,840,0,3,,,,,,,,,2,64,127,,
147960,note_on,0,0,3,,,,,,,,,2,,,45,49
148080,note_on,240,0,4,,,,,,,,,3,,,33,0
148080,note_on,0,0,1,,,,,,,,,0,,,83,62
148080,note_on,0,0,3,,,,,,,,,2,,,52,49
148080,note_on,240,0,1,,,,,,,,,0,,,82,0
148080,note_on,240,0,2,,,,,,,,,1,,,70,0
148080,note_on,0,0,2,,,,,,,,,1,,,71,62
148080,note_on,120,0,3,,,,,,,,,2,,,45,0
148200,note_on,120,0,3,,,,,,,,,2,,,52,0
148200,note_on,0,0,3,,,,,,,,,2,,,55,49
148320,note_on,0,0,3,,,,,,,,,2,,,61,49
148320,note_on,120,0,3,,,,,,,,,2,,,55,0
148320,control_change,0,0,3,,,,,,,,,2,64,0,,
148560,control_change,0,0,2,,,,,,,,,1,64,127,,
148560,note_on,480,0,2,,,,,,,,,1,,,71,0
148560,note_on,0,0,2,,,,,,,,,1,,,71,62
148560,note_on,240,0,3,,,,,,,,,2,,,61,0
148560,note_on,480,0,1,,,,,,,,,0,,,83,0
148560,control_change,0,0,1,,,,,,,,,0,64,127,,
148560,note_on,0,0,1,,,,,,,,,0,,,83,62
148800,note_on,240,0,1,,,,,,,,,0,,,83,0
148800,note_on,0,0,1,,,,,,,,,0,,,91,62
148800,note_on,0,0,2,,,,,,,,,1,,,79,62
148800,note_on,240,0,2,,,,,,,,,1,,,71,0
149040,note_on,240,0,1,,,,,,,,,0,,,91,0
149040,note_on,0,0,1,,,,,,,,,0,,,88,62
149040,note_on,0,0,2,,,,,,,,,1,,,76,62
149040,note_on,240,0,2,,,,,,,,,1,,,79,0
149280,note_on,0,0,2,,,,,,,,,1,,,74,62
149280,note_on,240,0,2,,,,,,,,,1,,,76,0
149280,control_change,720,0,3,,,,,,,,,2,64,127,,
149280,note_on,0,0,1,,,,,,,,,0,,,86,62
149280,note_on,240,0,1,,,,,,,,,0,,,88,0
149280,note_on,1200,0,4,,,,,,,,,3,,,33,62
149400,note_on,120,0,3,,,,,,,,,2,,,45,49
149520,note_on,120,0,3,,,,,,,,,2,,,45,0
149520,note_on,0,0,3,,,,,,,,,2,,,52,49
149520,note_on,240,0,4,,,,,,,,,3,,,33,0
149640,note_on,0,0,3,,,,,,,,,2,,,55,49
149640,note_on,120,0,3,,,,,,,,,2,,,52,0
149760,note_on,0,0,2,,,,,,,,,1,,,73,62
149760,note_on,0,0,1,,,,,,,,,0,,,85,62
149760,control_change,0,0,1,,,,,,,,,0,64,0,,
149760,note_on,0,0,3,,,,,,,,,2,,,57,49
149760,control_change,0,0,2,,,,,,,,,1,64,0,,
149760,note_on,120,0,3,,,,,,,,,2,,,55,0
149760,control_change,0,0,3,,,,,,,,,2,64,0,,
149760,note_on,480,0,1,,,,,,,,,0,,,86,0
149760,note_on,480,0,2,,,,,,,,,1,,,74,0
150000,note_on,0,0,1,,,,,,,,,0,,,85,62
150000,control_change,0,0,1,,,,,,,,,0,64,127,,
150000,note_on,240,0,1,,,,,,,,,0,,,85,0
150000,control_change,0,0,2,,,,,,,,,1,64,127,,
150000,note_on,240,0,2,,,,,,,,,1,,,73,0
150000,note_on,0,0,2,,,,,,,,,1,,,73,62
150000,note_on,240,0,3,,,,,,,,,2,,,57,0
150240,note_on,240,0,2,,,,,,,,,1,,,73,0
150240,note_on,0,0,2,,,,,,,,,1,,,83,62
150240,note_on,240,0,1,,,,,,,,,0,,,85,0
150240,note_on,0,0,1,,,,,,,,,0,,,95,62
150480,note_on,240,0,2,,,,,,,,,1,,,83,0
150480,note_on,240,0,1,,,,,,,,,0,,,95,0
150480,note_on,0,0,2,,,,,,,,,1,,,79,62
150480,note_on,0,0,1,,,,,,,,,0,,,91,62
150720,note_on,0,0,2,,,,,,,,,1,,,78,62
150720,note_on,240,0,1,,,,,,,,,0,,,91,0
150720,note_on,240,0,2,,,,,,,,,1,,,79,0
150720,note_on,1200,0,4,,,,,,,,,3,,,33,62
150720,note_on,0,0,1,,,,,,,,,0,,,90,62
150840,control_change,840,0,3,,,,,,,,,2,64,127,,
150840,note_on,0,0,3,,,,,,,,,2,,,45,49
150960,note_on,240,0,4,,,,,,,,,3,,,33,0
150960,note_on,120,0,3,,,,,,,,,2,,,45,0
150960,note_on,0,0,3,,,,,,,,,2,,,55,49
151080,note_on,0,0,3,,,,,,,,,2,,,57,49
151080,note_on,120,0,3,,,,,,,,,2,,,55,0
151200,note_on,120,0,3,,,,,,,,,2,,,57,0
151200,control_change,0,0,1,,,,,,,,,0,64,0,,
151200,control_change,0,0,3,,,,,,,,,2,64,0,,
151200,note_on,480,0,2,,,,,,,,,1,,,78,0
151200,control_change,0,0,2,,,,,,,,,1,64,0,,
151200,note_on,0,0,3,,,,,,,,,2,,,61,49
151200,note_on,0,0,1,,,,,,,,,0,,,88,62
151200,note_on,0,0,2,,,,,,,,,1,,,76,62
151200,note_on,480,0,1,,,,,,,,,0,,,90,0
151440,note_on,240,0,2,,,,,,,,,1,,,76,0
151440,note_on,240,0,1,,,,,,,,,0,,,88,0
151440,note_on,240,0,3,,,,,,,,,2,,,61,0
151680,note_on,240,0,2,,,,,,,,,1,,,78,62
151680,note_on,240,0,1,,,,,,,,,0,,,90,62
151703,note_on,23,0,2,,,,,,,,,1,,,78,0
151703,note_on,23,0,1,,,,,,,,,0,,,90,0
152160,note_on,457,0,2,,,,,,,,,1,,,79,62
152160,note_on,457,0,1,,,,,,,,,0,,,91,62
152160,set_tempo,0,1,0,,,,,,750000,,,,,,,
152160,time_signature,37440,1,0,10,8,12,8,,,,,,,,,
152640,note_on,480,0,2,,,,,,,,,1,,,79,0
152640,note_on,480,0,1,,,,,,,,,0,,,91,0
152880,note_on,240,0,2,,,,,,,,,1,,,80,62
152880,note_on,240,0,1,,,,,,,,,0,,,92,62
153600,note_on,720,0,2,,,,,,,,,1,,,80,0
153600,note_on,720,0,1,,,,,,,,,0,,,92,0
153840,note_on,0,0,2,,,,,,,,,1,,,69,62
153840,note_on,0,0,1,,,,,,,,,0,,,81,62
153840,control_change,240,0,2,,,,,,,,,1,64,127,,
153840,control_change,240,0,1,,,,,,,,,0,64,127,,
153900,note_on,60,0,2,,,,,,,,,1,,,69,0
153900,note_on,0,0,1,,,,,,,,,0,,,85,62
153900,note_on,0,0,2,,,,,,,,,1,,,73,62
153900,note_on,60,0,1,,,,,,,,,0,,,81,0
153960,note_on,0,0,1,,,,,,,,,0,,,88,62
153960,note_on,60,0,2,,,,,,,,,1,,,73,0
153960,note_on,0,0,2,,,,,,,,,1,,,76,62
153960,note_on,60,0,1,,,,,,,,,0,,,85,0
154020,note_on,60,0,2,,,,,,,,,1,,,76,0
154020,note_on,0,0,2,,,,,,,,,1,,,79,62
154020,note_on,0,0,1,,,,,,,,,0,,,91,62
154020,note_on,60,0,1,,,,,,,,,0,,,88,0
154080,note_on,0,0,2,,,,,,,,,1,,,83,88
154080,note_on,0,0,1,,,,,,,,,0,,,95,88
154080,note_on,60,0,1,,,,,,,,,0,,,91,0
154080,note_on,60,0,2,,,,,,,,,1,,,79,0
154440,note_on,0,0,1,,,,,,,,,0,,,93,62
154440,note_on,360,0,1,,,,,,,,,0,,,95,0
154440,control_change,0,0,1,,,,,,,,,0,64,0,,
154440,note_on,0,0,2,,,,,,,,,1,,,81,62
154440,control_change,0,0,2,,,,,,,,,1,64,0,,
154440,note_on,360,0,2,,,,,,,,,1,,,83,0
154560,key_signature,0,1,0,,,,,D,,,,,,,,
154560,set_tempo,0,1,0,,,,,,600000,,,,,,,
154560,note_on,120,0,1,,,,,,,,,0,,,93,0
154560,control_change,0,0,1,,,,,,,,,0,64,0,,
154560,note_on,0,0,4,,,,,,,,,3,,,50,62
154560,time_signature,2400,1,0,3,4,24,8,,,,,,,,,
154560,note_on,3600,0,4,,,,,,,,,3,,,38,62
154560,note_on,0,0,2,,,,,,,,,1,,,78,62
154560,control_change,0,0,2,,,,,,,,,1,64,0,,
154560,note_on,120,0,2,,,,,,,,,1,,,81,0
154560,note_on,0,0,1,,,,,,,,,0,,,90,62
154800,note_on,0,0,4,,,,,,,,,3,,,38,0
154800,note_on,240,0,4,,,,,,,,,3,,,50,0
154920,note_on,3480,0,3,,,,,,,,,2,,,57,49
154920,note_on,0,0,3,,,,,,,,,2,,,66,49
154920,note_on,0,0,3,,,,,,,,,2,,,62,49
155040,note_on,0,0,3,,,,,,,,,2,,,57,0
155040,note_on,0,0,3,,,,,,,,,2,,,57,49
155040,note_on,0,0,3,,,,,,,,,2,,,62,49
155040,note_on,0,0,3,,,,,,,,,2,,,66,49
155040,note_on,0,0,3,,,,,,,,,2,,,62,0
155040,note_on,120,0,3,,,,,,,,,2,,,66,0
155280,note_on,0,0,3,,,,,,,,,2,,,57,0
155280,note_on,240,0,3,,,,,,,,,2,,,66,0
155280,note_on,0,0,3,,,,,,,,,2,,,62,0
155460,note_on,900,0,2,,,,,,,,,1,,,78,62
155460,note_on,900,0,1,,,,,,,,,0,,,90,62
155520,note_on,0,0,3,,,,,,,,,2,,,67,49
155520,note_on,0,0,2,,,,,,,,,1,,,78,0
155520,note_on,240,0,3,,,,,,,,,2,,,57,49
155520,control_change,0,0,2,,,,,,,,,1,64,127,,
155520,note_on,0,0,3,,,,,,,,,2,,,61,49
155520,note_on,0,0,2,,,,,,,,,1,,,76,62
155520,note_on,60,0,1,,,,,,,,,0,,,90,0
155520,note_on,0,0,1,,,,,,,,,0,,,90,0
155520,note_on,0,0,1,,,,,,,,,0,,,88,62
155520,control_change,0,0,1,,,,,,,,,0,64,127,,
155520,note_on,60,0,2,,,,,,,,,1,,,78,0
155640,note_on,0,0,2,,,,,,,,,1,,,75,62
155640,note_on,0,0,1,,,,,,,,,0,,,87,62
155640,note_on,120,0,1,,,,,,,,,0,,,88,0
155640,note_on,120,0,2,,,,,,,,,1,,,76,0
155760,note_on,120,0,1,,,,,,,,,0,,,87,0
155760,note_on,0,0,2,,,,,,,,,1,,,76,62
155760,note_on,0,0,1,,,,,,,,,0,,,88,62
155760,note_on,240,0,3,,,,,,,,,2,,,67,0
155760,note_on,0,0,3,,,,,,,,,2,,,61,0
155760,note_on,0,0,3,,,,,,,,,2,,,57,0
155760,note_on,120,0,2,,,,,,,,,1,,,75,0
155880,note_on,120,0,1,,,,,,,,,0,,,88,0
155880,note_on,0,0,2,,,,,,,,,1,,,78,62
155880,note_on,0,0,1,,,,,,,,,0,,,90,62
155880,note_on,120,0,2,,,,,,,,,1,,,76,0
156000,note_on,0,0,2,,,,,,,,,1,,,74,62
156000,control_change,0,0,2,,,,,,,,,1,64,0,,
156000,note_on,120,0,2,,,,,,,,,1,,,78,0
156000,note_on,0,0,4,,,,,,,,,3,,,50,62
156000,note_on,1200,0,4,,,,,,,,,3,,,38,62
156000,note_on,120,0,1,,,,,,,,,0,,,90,0
156000,control_change,0,0,1,,,,,,,,,0,64,0,,
156000,note_on,0,0,1,,,,,,,,,0,,,86,62
156240,note_on,0,0,4,,,,,,,,,3,,,38,0
156240,note_on,240,0,4,,,,,,,,,3,,,50,0
156360,note_on,600,0,3,,,,,,,,,2,,,57,49
156360,note_on,0,0,3,,,,,,,,,2,,,62,49
156360,note_on,0,0,3,,,,,,,,,2,,,66,49
156480,note_on,0,0,3,,,,,,,,,2,,,62,0
156480,note_on,120,0,3,,,,,,,,,2,,,66,0
156480,note_on,0,0,3,,,,,,,,,2,,,57,0
156480,note_on,0,0,3,,,,,,,,,2,,,57,49
156480,note_on,0,0,3,,,,,,,,,2,,,62,49
156480,note_on,0,0,3,,,,,,,,,2,,,66,49
156720,note_on,0,0,3,,,,,,,,,2,,,57,0
156720,note_on,0,0,3,,,,,,,,,2,,,62,0
156720,note_on,240,0,3,,,,,,,,,2,,,66,0
156840,note_on,840,0,1,,,,,,,,,0,,,88,62
156840,note_on,840,0,2,,,,,,,,,1,,,76,62
156900,note_on,0,0,1,,,,,,,,,0,,,86,62
156900,note_on,60,0,2,,,,,,,,,1,,,76,0
156900,note_on,0,0,2,,,,,,,,,1,,,74,62
156900,note_on,60,0,1,,,,,,,,,0,,,88,0
156960,note_on,0,0,3,,,,,,,,,2,,,66,49
156960,note_on,60,0,2,,,,,,,,,1,,,74,0
156960,note_on,240,0,3,,,,,,,,,2,,,57,49
156960,control_change,0,0,1,,,,,,,,,0,64,127,,
156960,note_on,0,0,2,,,,,,,,,1,,,74,0
156960,control_change,0,0,2,,,,,,,,,1,64,127,,
156960,note_on,0,0,1,,,,,,,,,0,,,85,62
156960,note_on,0,0,1,,,,,,,,,0,,,86,0
156960,note_on,0,0,2,,,,,,,,,1,,,73,62
156960,note_on,60,0,1,,,,,,,,,0,,,86,0
156960,note_on,0,0,3,,,,,,,,,2,,,62,49
157080,note_on,120,0,1,,,,,,,,,0,,,85,0
157080,note_on,120,0,2,,,,,,,,,1,,,73,0
157080,note_on,0,0,2,,,,,,,,,1,,,74,62
157080,note_on,0,0,1,,,,,,,,,0,,,86,62
157200,note_on,120,0,2,,,,,,,,,1,,,74,0
157200,note_on,0,0,2,,,,,,,,,1,,,76,62
157200,note_on,0,0,3,,,,,,,,,2,,,57,0
157200,note_on,0,0,3,,,,,,,,,2,,,62,0
157200,note_on,0,0,1,,,,,,,,,0,,,88,62
157200,note_on,240,0,3,,,,,,,,,2,,,66,0
157200,note_on,120,0,1,,,,,,,,,0,,,86,0
157320,note_on,0,0,1,,,,,,,,,0,,,90,62
157320,control_change,0,0,1,,,,,,,,,0,64,0,,
157320,note_on,120,0,2,,,,,,,,,1,,,76,0
157320,control_change,0,0,2,,,,,,,,,1,64,0,,
157320,note_on,0,0,2,,,,,,,,,1,,,78,62
157320,note_on,120,0,1,,,,,,,,,0,,,88,0
157440,control_change,0,0,1,,,,,,,,,0,64,127,,
157440,note_on,1200,0,4,,,,,,,,,3,,,33,62
157440,note_on,120,0,2,,,,,,,,,1,,,78,0
157440,control_change,0,0,2,,,,,,,,,1,64,127,,
157440,note_on,0,0,2,,,,,,,,,1,,,78,62
157440,note_on,0,0,4,,,,,,,,,3,,,45,62
157440,note_on,120,0,1,,,,,,,,,0,,,90,0
157440,note_on,0,0,1,,,,,,,,,0,,,90,62
157680,note_on,0,0,4,,,,,,,,,3,,,33,0
157680,note_on,240,0,4,,,,,,,,,3,,,45,0
157800,note_on,360,0,1,,,,,,,,,0,,,90,0
157800,note_on,0,0,3,,,,,,,,,2,,,61,49
157800,note_on,600,0,3,,,,,,,,,2,,,57,49
157800,note_on,0,0,2,,,,,,,,,1,,,76,62
157800,note_on,360,0,2,,,,,,,,,1,,,78,0
157800,note_on,0,0,1,,,,,,,,,0,,,88,62
157800,note_on,0,0,3,,,,,,,,,2,,,67,49
157920,note_on,120,0,3,,,,,,,,,2,,,67,0
157920,note_on,0,0,1,,,,,,,,,0,,,87,62
157920,note_on,120,0,1,,,,,,,,,0,,,88,0
157920,note_on,0,0,3,,,,,,,,,2,,,67,49
157920,note_on,0,0,3,,,,,,,,,2,,,61,49
157920,note_on,0,0,3,,,,,,,,,2,,,57,49
157920,note_on,0,0,3,,,,,,,,,2,,,57,0
157920,note_on,0,0,2,,,,,,,,,1,,,75,62
157920,note_on,120,0,2,,,,,,,,,1,,,76,0
157920,note_on,0,0,3,,,,,,,,,2,,,61,0
158160,note_on,0,0,3,,,,,,,,,2,,,61,0
158160,note_on,0,0,3,,,,,,,,,2,,,57,0
158160,note_on,240,0,3,,,,,,,,,2,,,67,0
158280,note_on,360,0,1,,,,,,,,,0,,,87,0
158280,note_on,0,0,1,,,,,,,,,0,,,88,62
158280,note_on,360,0,2,,,,,,,,,1,,,75,0
158280,note_on,0,0,2,,,,,,,,,1,,,76,62
158400,note_on,120,0,1,,,,,,,,,0,,,88,0
158400,note_on,0,0,1,,,,,,,,,0,,,95,62
158400,note_on,120,0,2,,,,,,,,,1,,,76,0
158400,note_on,0,0,2,,,,,,,,,1,,,83,62
158400,note_on,240,0,3,,,,,,,,,2,,,57,49
158400,note_on,0,0,3,,,,,,,,,2,,,61,49
158400,note_on,0,0,3,,,,,,,,,2,,,67,49
158640,note_on,0,0,3,,,,,,,,,2,,,61,0
158640,note_on,240,0,3,,,,,,,,,2,,,67,0
158640,note_on,0,0,3,,,,,,,,,2,,,57,0
158760,note_on,0,0,2,,,,,,,,,1,,,81,62
158760,control_change,0,0,2,,,,,,,,,1,64,0,,
158760,note_on,360,0,2,,,,,,,,,1,,,83,0
158760,note_on,0,0,1,,,,,,,,,0,,,93,62
158760,control_change,0,0,1,,,,,,,,,0,64,0,,
158760,note_on,360,0,1,,,,,,,,,0,,,95,0
158880,time_signature,4320,1,0,7,8,12,8,,,,,,,,,
158880,note_on,120,0,2,,,,,,,,,1,,,81,0
158880,note_on,0,0,2,,,,,,,,,1,,,77,62
158880,note_on,0,0,1,,,,,,,,,0,,,89,62
158880,note_on,120,0,1,,,,,,,,,0,,,93,0
158880,note_on,1200,0,4,,,,,,,,,3,,,38,62
158880,note_on,0,0,4,,,,,,,,,3,,,50,62
159120,note_on,0,0,4,,,,,,,,,3,,,38,0
159120,note_on,240,0,4,,,,,,,,,3,,,50,0
159240,note_on,600,0,3,,,,,,,,,2,,,57,49
159240,note_on,0,0,3,,,,,,,,,2,,,66,49
159240,note_on,0,0,3,,,,,,,,,2,,,62,49
159360,note_on,0,0,3,,,,,,,,,2,,,57,49
159360,note_on,0,0,3,,,,,,,,,2,,,62,0
159360,note_on,120,0,3,,,,,,,,,2,,,66,0
159360,note_on,0,0,3,,,,,,,,,2,,,62,49
159360,note_on,0,0,3,,,,,,,,,2,,,57,0
159360,note_on,0,0,1,,,,,,,,,0,,,90,62
159360,note_on,0,0,2,,,,,,,,,1,,,78,62
159360,note_on,480,0,2,,,,,,,,,1,,,77,0
159360,note_on,480,0,1,,,,,,,,,0,,,89,0
159360,note_on,0,0,3,,,,,,,,,2,,,66,49
159600,note_on,0,0,3,,,,,,,,,2,,,62,0
159600,note_on,240,0,3,,,,,,,,,2,,,66,0
159600,control_change,0,0,3,,,,,,,,,2,64,127,,
159600,note_on,0,0,3,,,,,,,,,2,,,57,0
159600,note_on,240,0,2,,,,,,,,,1,,,78,0
159600,note_on,240,0,1,,,,,,,,,0,,,90,0
159840,note_on,240,0,3,,,,,,,,,2,,,57,75
159920,note_on,80,0,3,,,,,,,,,2,,,57,0
159920,note_on,0,0,3,,,,,,,,,2,,,62,75
159999,note_on,79,0,3,,,,,,,,,2,,,62,0
159999,note_on,0,0,3,,,,,,,,,2,,,66,75
160080,note_on,0,0,3,,,,,,,,,2,,,71,101
160080,note_on,81,0,3,,,,,,,,,2,,,66,0
160440,note_on,360,0,3,,,,,,,,,2,,,71,0
160440,note_on,0,0,3,,,,,,,,,2,,,69,75
160560,note_on,120,0,3,,,,,,,,,2,,,69,0
160560,control_change,0,0,3,,,,,,,,,2,64,0,,
160560,note_on,0,0,3,,,,,,,,,2,,,66,75
160560,time_signature,1680,1,0,3,4,24,8,,,,,,,,,
160560,note_on,0,0,4,,,,,,,,,3,,,57,62
160560,note_on,1440,0,4,,,,,,,,,3,,,50,62
160920,note_on,0,0,1,,,,,,,,,0,,,81,62
160920,control_change,1320,0,1,,,,,,,,,0,64,127,,
160920,control_change,1320,0,2,,,,,,,,,1,64,127,,
160920,note_on,0,0,2,,,,,,,,,1,,,69,62
161040,note_on,0,0,1,,,,,,,,,0,,,86,62
161040,note_on,120,0,1,,,,,,,,,0,,,81,0
161040,note_on,120,0,2,,,,,,,,,1,,,69,0
161040,note_on,0,0,4,,,,,,,,,3,,,50,0
161040,note_on,480,0,4,,,,,,,,,3,,,57,0
161040,note_on,0,0,2,,,,,,,,,1,,,74,62
161400,note_on,360,0,2,,,,,,,,,1,,,74,0
161400,note_on,0,0,2,,,,,,,,,1,,,78,62
161400,note_on,0,0,1,,,,,,,,,0,,,90,62
161400,note_on,360,0,1,,,,,,,,,0,,,86,0
161460,note_on,900,0,3,,,,,,,,,2,,,66,75
161520,note_on,120,0,1,,,,,,,,,0,,,90,0
161520,note_on,0,0,1,,,,,,,,,0,,,95,88
161520,note_on,60,0,3,,,,,,,,,2,,,66,0
161520,note_on,0,0,3,,,,,,,,,2,,,66,0
161520,control_change,0,0,3,,,,,,,,,2,64,127,,
161520,note_on,0,0,3,,,,,,,,,2,,,64,75
161520,note_on,0,0,4,,,,,,,,,3,,,55,62
161520,note_on,480,0,4,,,,,,,,,3,,,45,62
161520,note_on,0,0,2,,,,,,,,,1,,,83,88
161520,note_on,120,0,2,,,,,,,,,1,,,78,0
161640,note_on,0,0,3,,,,,,,,,2,,,63,75
161640,note_on,120,0,3,,,,,,,,,2,,,64,0
161760,note_on,0,0,1,,,,,,,,,0,,,93,62
161760,note_on,120,0,3,,,,,,,,,2,,,63,0
161760,control_change,0,0,1,,,,,,,,,0,64,0,,
161760,note_on,0,0,3,,,,,,,,,2,,,64,75
161760,note_on,240,0,1,,,,,,,,,0,,,95,0
161760,note_on,0,0,2,,,,,,,,,1,,,81,62
161760,control_change,0,0,2,,,,,,,,,1,64,0,,
161760,note_on,240,0,2,,,,,,,,,1,,,83,0
161880,note_on,120,0,1,,,,,,,,,0,,,93,0
161880,note_on,0,0,3,,,,,,,,,2,,,66,75
161880,note_on,120,0,3,,,,,,,,,2,,,64,0
161880,note_on,120,0,2,,,,,,,,,1,,,81,0
162000,note_on,120,0,3,,,,,,,,,2,,,66,0
162000,note_on,0,0,4,,,,,,,,,3,,,50,62
162000,note_on,0,0,4,,,,,,,,,3,,,45,0
162000,note_on,480,0,4,,,,,,,,,3,,,55,0
162000,control_change,0,0,3,,,,,,,,,2,64,0,,
162000,note_on,0,0,4,,,,,,,,,3,,,54,62
162000,note_on,0,0,3,,,,,,,,,2,,,62,75
162360,control_change,480,0,2,,,,,,,,,1,64,127,,
162360,control_change,480,0,1,,,,,,,,,0,64,127,,
162360,note_on,0,0,1,,,,,,,,,0,,,86,62
162360,note_on,0,0,2,,,,,,,,,1,,,74,62
162480,note_on,480,0,4,,,,,,,,,3,,,54,0
162480,note_on,120,0,2,,,,,,,,,1,,,74,0
162480,note_on,0,0,2,,,,,,,,,1,,,78,62
162480,note_on,120,0,1,,,,,,,,,0,,,86,0
162480,note_on,0,0,4,,,,,,,,,3,,,38,62
162480,note_on,0,0,4,,,,,,,,,3,,,50,0
162480,note_on,0,0,1,,,,,,,,,0,,,90,62
162840,note_on,0,0,2,,,,,,,,,1,,,74,62
162840,note_on,360,0,1,,,,,,,,,0,,,90,0
162840,note_on,360,0,2,,,,,,,,,1,,,78,0
162840,note_on,0,0,1,,,,,,,,,0,,,86,62
162840,note_on,840,0,3,,,,,,,,,2,,,64,75
162900,note_on,60,0,3,,,,,,,,,2,,,64,0
162900,note_on,0,0,3,,,,,,,,,2,,,62,75
162960,note_on,120,0,2,,,,,,,,,1,,,74,0
162960,note_on,0,0,3,,,,,,,,,2,,,62,0
162960,note_on,0,0,1,,,,,,,,,0,,,81,62
162960,control_change,0,0,1,,,,,,,,,0,64,0,,
162960,control_change,0,0,3,,,,,,,,,2,64,127,,
162960,note_on,480,0,4,,,,,,,,,3,,,38,0
162960,note_on,60,0,3,,,,,,,,,2,,,62,0
162960,note_on,0,0,3,,,,,,,,,2,,,61,75
162960,note_on,0,0,2,,,,,,,,,1,,,69,62
162960,control_change,0,0,2,,,,,,,,,1,64,0,,
162960,note_on,120,0,1,,,,,,,,,0,,,86,0
163080,note_on,0,0,3,,,,,,,,,2,,,62,75
163080,note_on,120,0,3,,,,,,,,,2,,,61,0
163200,note_on,240,0,2,,,,,,,,,1,,,69,0
163200,note_on,240,0,1,,,,,,,,,0,,,81,0
163200,note_on,120,0,3,,,,,,,,,2,,,62,0
163200,note_on,0,0,3,,,,,,,,,2,,,64,75
163320,note_on,0,0,3,,,,,,,,,2,,,66,75
163320,note_on,120,0,3,,,,,,,,,2,,,64,0
163320,control_change,0,0,3,,,,,,,,,2,64,0,,
163440,note_on,0,0,3,,,,,,,,,2,,,66,101
163440,note_on,0,0,4,,,,,,,,,3,,,57,62
163440,note_on,0,0,4,,,,,,,,,3,,,61,62
163440,control_change,0,0,3,,,,,,,,,2,64,127,,
163440,note_on,120,0,3,,,,,,,,,2,,,66,0
163440,note_on,480,0,4,,,,,,,,,3,,,52,62
163800,control_change,600,0,1,,,,,,,,,0,64,127,,
163800,note_on,0,0,1,,,,,,,,,0,,,85,62
163800,note_on,0,0,2,,,,,,,,,1,,,73,62
163800,control_change,600,0,2,,,,,,,,,1,64,127,,
163920,note_on,0,0,4,,,,,,,,,3,,,52,0
163920,note_on,0,0,2,,,,,,,,,1,,,81,62
163920,note_on,120,0,2,,,,,,,,,1,,,73,0
163920,note_on,0,0,1,,,,,,,,,0,,,93,62
163920,note_on,120,0,1,,,,,,,,,0,,,85,0
163920,note_on,480,0,4,,,,,,,,,3,,,61,0
163920,note_on,0,0,4,,,,,,,,,3,,,57,0
164280,note_on,0,0,2,,,,,,,,,1,,,73,62
164280,note_on,0,0,3,,,,,,,,,2,,,64,75
164280,note_on,840,0,3,,,,,,,,,2,,,66,0
164280,note_on,0,0,1,,,,,,,,,0,,,85,62
164280,note_on,360,0,1,,,,,,,,,0,,,93,0
164280,note_on,360,0,2,,,,,,,,,1,,,81,0
164400,note_on,0,0,2,,,,,,,,,1,,,75,88
164400,note_on,120,0,2,,,,,,,,,1,,,73,0
164400,note_on,120,0,3,,,,,,,,,2,,,64,0
164400,note_on,120,0,1,,,,,,,,,0,,,85,0
164400,note_on,0,0,1,,,,,,,,,0,,,87,88
164400,note_on,0,0,4,,,,,,,,,3,,,62,62
164400,note_on,0,0,3,,,,,,,,,2,,,66,75
164400,note_on,480,0,4,,,,,,,,,3,,,52,62
164400,note_on,0,0,4,,,,,,,,,3,,,56,62
164760,note_on,360,0,2,,,,,,,,,1,,,75,0
164760,note_on,360,0,1,,,,,,,,,0,,,87,0
164760,control_change,0,0,1,,,,,,,,,0,64,0,,
164760,note_on,0,0,1,,,,,,,,,0,,,88,62
164760,note_on,0,0,2,,,,,,,,,1,,,76,62
164760,control_change,0,0,2,,,,,,,,,1,64,0,,
164760,note_on,0,0,3,,,,,,,,,2,,,64,75
164760,control_change,0,0,3,,,,,,,,,2,64,0,,
164760,note_on,360,0,3,,,,,,,,,2,,,66,0
164880,note_on,0,0,3,,,,,,,,,2,,,61,75
164880,note_on,0,0,1,,,,,,,,,0,,,81,62
164880,note_on,0,0,4,,,,,,,,,3,,,57,62
164880,note_on,480,0,4,,,,,,,,,3,,,62,0
164880,note_on,0,0,4,,,,,,,,,3,,,56,0
164880,note_on,120,0,3,,,,,,,,,2,,,64,0
164880,note_on,120,0,2,,,,,,,,,1,,,76,0
164880,note_on,0,0,2,,,,,,,,,1,,,69,62
164880,note_on,0,0,4,,,,,,,,,3,,,52,0
164880,note_on,120,0,1,,,,,,,,,0,,,88,0
165360,note_on,480,0,4,,,,,,,,,3,,,57,0
165360,note_on,0,0,4,,,,,,,,,3,,,45,62
165360,note_on,480,0,1,,,,,,,,,0,,,81,0
165360,note_on,480,0,2,,,,,,,,,1,,,69,0
165360,note_on,480,0,3,,,,,,,,,2,,,61,0
165780,note_on,420,0,1,,,,,,,,,0,,,90,62
165780,note_on,420,0,2,,,,,,,,,1,,,78,62
165840,note_on,0,0,1,,,,,,,,,0,,,88,62
165840,note_on,60,0,1,,,,,,,,,0,,,90,0
165840,control_change,0,0,1,,,,,,,,,0,64,127,,
165840,note_on,480,0,4,,,,,,,,,3,,,45,0
165840,note_on,60,0,2,,,,,,,,,1,,,78,0
165840,control_change,0,0,2,,,,,,,,,1,64,127,,
165840,note_on,0,0,2,,,,,,,,,1,,,76,62
165960,note_on,120,0,1,,,,,,,,,0,,,88,0
165960,note_on,0,0,2,,,,,,,,,1,,,75,62
165960,note_on,120,0,2,,,,,,,,,1,,,76,0
165960,note_on,0,0,1,,,,,,,,,0,,,87,62
166080,note_on,120,0,2,,,,,,,,,1,,,75,0
166080,note_on,120,0,1,,,,,,,,,0,,,87,0
166080,note_on,0,0,1,,,,,,,,,0,,,88,62
166080,note_on,0,0,2,,,,,,,,,1,,,76,62
166200,note_on,120,0,2,,,,,,,,,1,,,76,0
166200,control_change,0,0,2,,,,,,,,,1,64,0,,
166200,note_on,0,0,2,,,,,,,,,1,,,78,62
166200,note_on,0,0,1,,,,,,,,,0,,,90,62
166200,control_change,0,0,1,,,,,,,,,0,64,0,,
166200,note_on,120,0,1,,,,,,,,,0,,,88,0
166320,note_on,120,0,1,,,,,,,,,0,,,90,0
166320,control_change,0,0,1,,,,,,,,,0,64,127,,
166320,control_change,0,0,2,,,,,,,,,1,64,127,,
166320,note_on,480,0,4,,,,,,,,,3,,,40,62
166320,note_on,0,0,1,,,,,,,,,0,,,91,62
166320,note_on,0,0,4,,,,,,,,,3,,,64,62
166320,note_on,960,0,3,,,,,,,,,2,,,55,49
166320,note_on,120,0,2,,,,,,,,,1,,,78,0
166320,note_on,0,0,4,,,,,,,,,3,,,52,62
166320,note_on,0,0,2,,,,,,,,,1,,,79,62
166560,note_on,240,0,3,,,,,,,,,2,,,55,0
166560,note_on,0,0,3,,,,,,,,,2,,,59,49
166800,note_on,0,0,3,,,,,,,,,2,,,55,49
166800,note_on,240,0,3,,,,,,,,,2,,,59,0
167040,note_on,0,0,3,,,,,,,,,2,,,59,49
167040,note_on,240,0,3,,,,,,,,,2,,,55,0
167160,note_on,840,0,2,,,,,,,,,1,,,81,62
167160,note_on,840,0,1,,,,,,,,,0,,,93,62
167220,note_on,60,0,1,,,,,,,,,0,,,93,0
167220,note_on,60,0,2,,,,,,,,,1,,,81,0
167220,note_on,0,0,2,,,,,,,,,1,,,79,62
167220,note_on,0,0,1,,,,,,,,,0,,,91,62
167280,note_on,0,0,2,,,,,,,,,1,,,78,62
167280,note_on,0,0,2,,,,,,,,,1,,,79,0
167280,note_on,60,0,2,,,,,,,,,1,,,79,0
167280,note_on,0,0,4,,,,,,,,,3,,,63,62
167280,note_on,60,0,1,,,,,,,,,0,,,91,0
167280,note_on,0,0,1,,,,,,,,,0,,,91,0
167280,note_on,0,0,1,,,,,,,,,0,,,90,62
167280,note_on,0,0,3,,,,,,,,,2,,,57,49
167280,note_on,960,0,4,,,,,,,,,3,,,64,0
167280,note_on,0,0,4,,,,,,,,,3,,,52,0
167280,note_on,0,0,4,,,,,,,,,3,,,40,0
167280,note_on,240,0,3,,,,,,,,,2,,,59,0
167400,note_on,0,0,1,,,,,,,,,0,,,91,62
167400,note_on,120,0,2,,,,,,,,,1,,,78,0
167400,note_on,0,0,2,,,,,,,,,1,,,79,62
167400,note_on,120,0,1,,,,,,,,,0,,,90,0
167520,note_on,240,0,3,,,,,,,,,2,,,57,0
167520,note_on,0,0,2,,,,,,,,,1,,,81,75
167520,note_on,120,0,2,,,,,,,,,1,,,79,0
167520,note_on,0,0,3,,,,,,,,,2,,,59,49
167520,note_on,0,0,1,,,,,,,,,0,,,93,75
167520,note_on,120,0,1,,,,,,,,,0,,,91,0
167640,note_on,120,0,1,,,,,,,,,0,,,93,0
167640,note_on,0,0,1,,,,,,,,,0,,,94,75
167640,note_on,120,0,2,,,,,,,,,1,,,81,0
167640,note_on,0,0,2,,,,,,,,,1,,,82,75
167760,note_on,0,0,4,,,,,,,,,3,,,64,62
167760,note_on,120,0,2,,,,,,,,,1,,,82,0
167760,note_on,0,0,2,,,,,,,,,1,,,83,88
167760,note_on,0,0,4,,,,,,,,,3,,,40,62
167760,note_on,0,0,4,,,,,,,,,3,,,52,62
167760,note_on,0,0,3,,,,,,,,,2,,,55,49
167760,note_on,240,0,3,,,,,,,,,2,,,59,0
167760,note_on,120,0,1,,,,,,,,,0,,,94,0
167760,note_on,0,0,1,,,,,,,,,0,,,95,88
167760,note_on,480,0,4,,,,,,,,,3,,,63,0
168000,note_on,240,0,3,,,,,,,,,2,,,55,0
168000,note_on,0,0,3,,,,,,,,,2,,,59,49
168120,note_on,360,0,1,,,,,,,,,0,,,95,0
168120,note_on,0,0,1,,,,,,,,,0,,,91,88
168120,note_on,360,0,2,,,,,,,,,1,,,83,0
168120,note_on,0,0,2,,,,,,,,,1,,,79,88
168240,control_change,0,0,2,,,,,,,,,1,64,0,,
168240,note_on,120,0,2,,,,,,,,,1,,,79,0
168240,note_on,0,0,2,,,,,,,,,1,,,76,75
168240,control_change,0,0,1,,,,,,,,,0,64,0,,
168240,note_on,0,0,1,,,,,,,,,0,,,88,75
168240,note_on,120,0,1,,,,,,,,,0,,,91,0
168240,note_on,0,0,3,,,,,,,,,2,,,55,49
168240,note_on,240,0,3,,,,,,,,,2,,,59,0
168480,note_on,0,0,3,,,,,,,,,2,,,59,49
168480,note_on,240,0,3,,,,,,,,,2,,,55,0
168480,note_on,240,0,1,,,,,,,,,0,,,88,0
168480,note_on,240,0,2,,,,,,,,,1,,,76,0
168660,note_on,180,0,2,,,,,,,,,1,,,76,88
168660,note_on,180,0,1,,,,,,,,,0,,,88,88
168720,note_on,0,0,3,,,,,,,,,2,,,55,49
168720,note_on,240,0,3,,,,,,,,,2,,,59,0
168720,note_on,0,0,2,,,,,,,,,1,,,88,88
168720,control_change,60,0,2,,,,,,,,,1,64,127,,
168720,note_on,0,0,1,,,,,,,,,0,,,100,88
168720,control_change,60,0,1,,,,,,,,,0,64,127,,
168960,note_on,0,0,3,,,,,,,,,2,,,59,49
168960,note_on,240,0,3,,,,,,,,,2,,,55,0
169200,note_on,0,0,3,,,,,,,,,2,,,55,49
169200,note_on,240,0,3,,,,,,,,,2,,,59,0
169200,note_on,0,0,4,,,,,,,,,3,,,40,0
169200,note_on,0,0,4,,,,,,,,,3,,,52,0
169200,note_on,0,0,1,,,,,,,,,0,,,95,62
169200,note_on,480,0,2,,,,,,,,,1,,,88,0
169200,note_on,0,0,2,,,,,,,,,1,,,76,0
169200,note_on,0,0,2,,,,,,,,,1,,,83,62
169200,note_on,0,0,1,,,,,,,,,0,,,88,0
169200,note_on,480,0,1,,,,,,,,,0,,,100,0
169200,note_on,1440,0,4,,,,,,,,,3,,,64,0
169200,note_on,0,0,4,,,,,,,,,3,,,64,62
169200,note_on,0,0,4,,,,,,,,,3,,,40,62
169440,note_on,0,0,3,,,,,,,,,2,,,59,49
169440,note_on,240,0,3,,,,,,,,,2,,,55,0
169560,note_on,360,0,4,,,,,,,,,3,,,64,0
169560,note_on,0,0,4,,,,,,,,,3,,,40,0
169560,note_on,0,0,4,,,,,,,,,3,,,43,62
169680,note_on,120,0,4,,,,,,,,,3,,,43,0
169680,note_on,0,0,4,,,,,,,,,3,,,47,62
169680,note_on,0,0,3,,,,,,,,,2,,,55,49
169680,note_on,240,0,3,,,,,,,,,2,,,59,0
169920,note_on,0,0,2,,,,,,,,,1,,,81,62
169920,note_on,720,0,2,,,,,,,,,1,,,83,0
169920,note_on,0,0,3,,,,,,,,,2,,,59,49
169920,note_on,0,0,1,,,,,,,,,0,,,93,62
169920,note_on,720,0,1,,,,,,,,,0,,,95,0
169920,note_on,240,0,3,,,,,,,,,2,,,55,0
170040,note_on,120,0,1,,,,,,,,,0,,,93,0
170040,note_on,120,0,2,,,,,,,,,1,,,81,0
170040,note_on,0,0,1,,,,,,,,,0,,,91,62
170040,note_on,0,0,2,,,,,,,,,1,,,79,62
170160,note_on,240,0,3,,,,,,,,,2,,,59,0
170160,note_on,0,0,2,,,,,,,,,1,,,78,62
170160,note_on,0,0,4,,,,,,,,,3,,,35,62
170160,note_on,0,0,4,,,,,,,,,3,,,57,62
170160,note_on,120,0,1,,,,,,,,,0,,,91,0
170160,note_on,0,0,3,,,,,,,,,2,,,63,49
170160,note_on,480,0,4,,,,,,,,,3,,,47,0
170160,note_on,120,0,2,,,,,,,,,1,,,79,0
170160,note_on,0,0,1,,,,,,,,,0,,,90,62
170280,note_on,0,0,1,,,,,,,,,0,,,91,62
170280,note_on,120,0,2,,,,,,,,,1,,,78,0
170280,note_on,0,0,2,,,,,,,,,1,,,79,62
170280,note_on,120,0,1,,,,,,,,,0,,,90,0
170400,note_on,0,0,2,,,,,,,,,1,,,81,62
170400,note_on,120,0,2,,,,,,,,,1,,,79,0
170400,note_on,240,0,3,,,,,,,,,2,,,63,0
170400,note_on,0,0,3,,,,,,,,,2,,,66,49
170400,note_on,120,0,1,,,,,,,,,0,,,91,0
170400,note_on,0,0,1,,,,,,,,,0,,,93,62
170520,note_on,120,0,2,,,,,,,,,1,,,81,0
170520,note_on,0,0,2,,,,,,,,,1,,,75,62
170520,note_on,120,0,1,,,,,,,,,0,,,93,0
170520,note_on,0,0,1,,,,,,,,,0,,,87,62
170640,note_on,0,0,4,,,,,,,,,3,,,35,0
170640,note_on,480,0,4,,,,,,,,,3,,,57,0
170640,note_on,120,0,2,,,,,,,,,1,,,75,0
170640,control_change,0,0,2,,,,,,,,,1,64,0,,
170640,note_on,0,0,2,,,,,,,,,1,,,76,62
170640,note_on,240,0,3,,,,,,,,,2,,,66,0
170640,note_on,0,0,3,,,,,,,,,2,,,55,49
170640,note_on,0,0,4,,,,,,,,,3,,,40,62
170640,note_on,0,0,4,,,,,,,,,3,,,64,62
170640,control_change,0,0,1,,,,,,,,,0,64,0,,
170640,note_on,0,0,1,,,,,,,,,0,,,88,62
170640,note_on,120,0,1,,,,,,,,,0,,,87,0
170880,note_on,0,0,3,,,,,,,,,2,,,59,49
170880,note_on,240,0,3,,,,,,,,,2,,,55,0
171120,note_on,0,0,3,,,,,,,,,2,,,55,49
171120,note_on,240,0,3,,,,,,,,,2,,,59,0
171360,note_on,0,0,3,,,,,,,,,2,,,59,49
171360,note_on,240,0,3,,,,,,,,,2,,,55,0
171540,note_on,900,0,1,,,,,,,,,0,,,81,62
171540,note_on,900,0,2,,,,,,,,,1,,,69,62
171600,note_on,0,0,2,,,,,,,,,1,,,67,62
171600,control_change,0,0,1,,,,,,,,,0,64,127,,
171600,note_on,0,0,1,,,,,,,,,0,,,79,62
171600,note_on,60,0,2,,,,,,,,,1,,,69,0
171600,note_on,0,0,2,,,,,,,,,1,,,76,0
171600,control_change,0,0,2,,,,,,,,,1,64,127,,
171600,note_on,0,0,1,,,,,,,,,0,,,88,0
171600,note_on,60,0,1,,,,,,,,,0,,,81,0
171600,note_on,240,0,3,,,,,,,,,2,,,59,0
171600,note_on,0,0,3,,,,,,,,,2,,,55,49
171720,note_on,0,0,2,,,,,,,,,1,,,66,62
171720,note_on,120,0,1,,,,,,,,,0,,,79,0
171720,note_on,0,0,1,,,,,,,,,0,,,78,62
171720,note_on,120,0,2,,,,,,,,,1,,,67,0
171840,note_on,120,0,2,,,,,,,,,1,,,66,0
171840,note_on,120,0,1,,,,,,,,,0,,,78,0
171840,note_on,0,0,1,,,,,,,,,0,,,79,62
171840,note_on,0,0,2,,,,,,,,,1,,,67,62
171840,note_on,240,0,3,,,,,,,,,2,,,55,0
171840,note_on,0,0,3,,,,,,,,,2,,,60,49
171960,note_on,120,0,2,,,,,,,,,1,,,67,0
171960,note_on,120,0,1,,,,,,,,,0,,,79,0
171960,control_change,0,0,1,,,,,,,,,0,64,0,,
171960,note_on,0,0,1,,,,,,,,,0,,,84,62
171960,note_on,0,0,2,,,,,,,,,1,,,72,62
171960,control_change,0,0,2,,,,,,,,,1,64,0,,
172080,note_on,240,0,3,,,,,,,,,2,,,60,0
172080,note_on,0,0,3,,,,,,,,,2,,,60,62
172080,note_on,0,0,4,,,,,,,,,3,,,64,75
172080,note_on,120,0,2,,,,,,,,,1,,,72,0
172080,note_on,0,0,2,,,,,,,,,1,,,76,62
172080,note_on,1440,0,4,,,,,,,,,3,,,64,0
172080,note_on,0,0,4,,,,,,,,,3,,,40,0
172080,note_on,0,0,4,,,,,,,,,3,,,36,75
172080,note_on,0,0,4,,,,,,,,,3,,,48,75
172080,note_on,120,0,1,,,,,,,,,0,,,84,0
172080,note_on,0,0,1,,,,,,,,,0,,,88,62
172320,note_on,240,0,3,,,,,,,,,2,,,60,0
172320,note_on,0,0,3,,,,,,,,,2,,,55,62
172560,note_on,0,0,3,,,,,,,,,2,,,60,62
172560,note_on,240,0,3,,,,,,,,,2,,,55,0
172800,note_on,240,0,3,,,,,,,,,2,,,60,0
172800,note_on,0,0,3,,,,,,,,,2,,,55,62
172920,note_on,840,0,1,,,,,,,,,0,,,88,0
172920,note_on,0,0,1,,,,,,,,,0,,,84,62
172920,note_on,840,0,2,,,,,,,,,1,,,76,0
172920,note_on,0,0,2,,,,,,,,,1,,,72,62
173040,note_on,240,0,3,,,,,,,,,2,,,55,0
173040,note_on,0,0,3,,,,,,,,,2,,,60,62
173040,note_on,120,0,1,,,,,,,,,0,,,84,0
173040,note_on,0,0,1,,,,,,,,,0,,,91,62
173040,note_on,0,0,2,,,,,,,,,1,,,79,62
173040,note_on,960,0,4,,,,,,,,,3,,,64,0
173040,note_on,120,0,2,,,,,,,,,1,,,72,0
173040,note_on,0,0,4,,,,,,,,,3,,,48,0
173040,note_on,0,0,4,,,,,,,,,3,,,36,0
173280,note_on,240,0,3,,,,,,,,,2,,,60,0
173280,note_on,0,0,3,,,,,,,,,2,,,55,62
173400,note_on,0,0,1,,,,,,,,,0,,,88,62
173400,note_on,360,0,1,,,,,,,,,0,,,91,0
173400,note_on,0,0,2,,,,,,,,,1,,,76,62
173400,note_on,360,0,2,,,,,,,,,1,,,79,0
173520,note_on,120,0,1,,,,,,,,,0,,,88,0
173520,note_on,480,0,4,,,,,,,,,3,,,31,75
173520,note_on,0,0,4,,,,,,,,,3,,,43,75
173520,control_change,0,0,1,,,,,,,,,0,64,127,,
173520,note_on,0,0,4,,,,,,,,,3,,,62,75
173520,note_on,0,0,1,,,,,,,,,0,,,86,62
173520,note_on,0,0,3,,,,,,,,,2,,,59,62
173520,note_on,240,0,3,,,,,,,,,2,,,55,0
173520,control_change,0,0,2,,,,,,,,,1,64,127,,
173520,note_on,0,0,2,,,,,,,,,1,,,74,62
173520,note_on,120,0,2,,,,,,,,,1,,,76,0
173760,note_on,0,0,3,,,,,,,,,2,,,55,62
173760,note_on,240,0,3,,,,,,,,,2,,,59,0
174000,note_on,240,0,3,,,,,,,,,2,,,55,0
174000,note_on,0,0,3,,,,,,,,,2,,,59,62
174240,note_on,0,0,1,,,,,,,,,0,,,85,62
174240,note_on,720,0,2,,,,,,,,,1,,,74,0
174240,note_on,0,0,2,,,,,,,,,1,,,73,62
174240,note_on,720,0,1,,,,,,,,,0,,,86,0
174240,note_on,240,0,3,,,,,,,,,2,,,59,0
174240,note_on,0,0,3,,,,,,,,,2,,,55,62
174360,note_on,120,0,1,,,,,,,,,0,,,85,0
174360,note_on,0,0,1,,,,,,,,,0,,,86,62
174360,note_on,0,0,2,,,,,,,,,1,,,74,62
174360,note_on,120,0,2,,,,,,,,,1,,,73,0
174480,note_on,0,0,2,,,,,,,,,1,,,76,62
174480,note_on,120,0,2,,,,,,,,,1,,,74,0
174480,note_on,0,0,4,,,,,,,,,3,,,31,0
174480,note_on,240,0,3,,,,,,,,,2,,,55,0
174480,note_on,960,0,4,,,,,,,,,3,,,62,0
174480,note_on,0,0,1,,,,,,,,,0,,,88,62
174480,note_on,120,0,1,,,,,,,,,0,,,86,0
174480,note_on,0,0,4,,,,,,,,,3,,,43,0
174480,note_on,0,0,3,,,,,,,,,2,,,59,62
174600,note_on,0,0,1,,,,,,,,,0,,,86,62
174600,note_on,120,0,1,,,,,,,,,0,,,88,0
174600,note_on,120,0,2,,,,,,,,,1,,,76,0
174600,note_on,0,0,2,,,,,,,,,1,,,74,62
174720,note_on,0,0,3,,,,,,,,,2,,,55,62
174720,note_on,240,0,3,,,,,,,,,2,,,59,0
174720,note_on,0,0,1,,,,,,,,,0,,,85,62
174720,note_on,120,0,1,,,,,,,,,0,,,86,0
174720,note_on,120,0,2,,,,,,,,,1,,,74,0
174720,note_on,0,0,2,,,,,,,,,1,,,73,62
174840,control_change,0,0,2,,,,,,,,,1,64,0,,
174840,note_on,120,0,2,,,,,,,,,1,,,73,0
174840,note_on,0,0,2,,,,,,,,,1,,,71,62
174840,note_on,120,0,1,,,,,,,,,0,,,85,0
174840,control_change,0,0,1,,,,,,,,,0,64,0,,
174840,note_on,0,0,1,,,,,,,,,0,,,83,62
174960,note_on,0,0,3,,,,,,,,,2,,,59,49
174960,note_on,480,0,4,,,,,,,,,3,,,30,62
174960,note_on,240,0,3,,,,,,,,,2,,,55,0
174960,note_on,0,0,1,,,,,,,,,0,,,83,62
174960,note_on,0,0,4,,,,,,,,,3,,,42,62
174960,note_on,0,0,4,,,,,,,,,3,,,62,62
174960,note_on,120,0,2,,,,,,,,,1,,,71,0
174960,note_on,120,0,1,,,,,,,,,0,,,83,0
174960,note_on,0,0,2,,,,,,,,,1,,,71,62
175200,note_on,0,0,3,,,,,,,,,2,,,54,49
175200,note_on,240,0,3,,,,,,,,,2,,,59,0
175440,note_on,240,0,3,,,,,,,,,2,,,54,0
175440,note_on,0,0,3,,,,,,,,,2,,,59,49
175680,note_on,240,0,3,,,,,,,,,2,,,59,0
175680,note_on,0,0,3,,,,,,,,,2,,,54,49
175860,note_on,900,0,1,,,,,,,,,0,,,82,62
175860,note_on,900,0,2,,,,,,,,,1,,,70,62
175920,note_on,0,0,4,,,,,,,,,3,,,30,0
175920,note_on,0,0,4,,,,,,,,,3,,,42,0
175920,note_on,960,0,4,,,,,,,,,3,,,62,0
175920,note_on,0,0,1,,,,,,,,,0,,,90,62
175920,note_on,60,0,1,,,,,,,,,0,,,83,0
175920,note_on,0,0,2,,,,,,,,,1,,,78,62
175920,note_on,60,0,2,,,,,,,,,1,,,71,0
175920,note_on,240,0,3,,,,,,,,,2,,,54,0
175920,note_on,0,0,3,,,,,,,,,2,,,61,49
176160,note_on,240,0,3,,,,,,,,,2,,,61,0
176160,note_on,0,0,3,,,,,,,,,2,,,54,49
176280,note_on,0,0,2,,,,,,,,,1,,,70,62
176280,note_on,0,0,2,,,,,,,,,1,,,70,0
176280,note_on,360,0,2,,,,,,,,,1,,,78,0
176280,note_on,0,0,1,,,,,,,,,0,,,82,62
176280,note_on,360,0,1,,,,,,,,,0,,,90,0
176280,note_on,0,0,1,,,,,,,,,0,,,82,0
176400,note_on,480,0,4,,,,,,,,,3,,,35,62
176400,note_on,120,0,2,,,,,,,,,1,,,70,0
176400,note_on,0,0,4,,,,,,,,,3,,,47,62
176400,note_on,0,0,4,,,,,,,,,3,,,62,62
176400,note_on,0,0,2,,,,,,,,,1,,,71,62
176400,note_on,0,0,3,,,,,,,,,2,,,59,49
176400,note_on,240,0,3,,,,,,,,,2,,,54,0
176400,note_on,0,0,1,,,,,,,,,0,,,83,62
176400,note_on,120,0,1,,,,,,,,,0,,,82,0
176640,note_on,240,0,3,,,,,,,,,2,,,59,0
176640,note_on,0,0,3,,,,,,,,,2,,,54,49
176880,note_on,240,0,3,,,,,,,,,2,,,54,0
176880,note_on,480,0,1,,,,,,,,,0,,,83,0
176880,note_on,0,0,3,,,,,,,,,2,,,59,49
176880,note_on,480,0,2,,,,,,,,,1,,,71,0
177120,control_change,240,0,1,,,,,,,,,0,64,127,,
177120,note_on,0,0,1,,,,,,,,,0,,,83,62
177120,note_on,0,0,2,,,,,,,,,1,,,71,62
177120,note_on,240,0,3,,,,,,,,,2,,,59,0
177120,control_change,240,0,2,,,,,,,,,1,64,127,,
177120,note_on,0,0,4,,,,,,,,,3,,,35,0
177120,note_on,0,0,4,,,,,,,,,3,,,47,0
177120,note_on,720,0,4,,,,,,,,,3,,,62,0
177360,note_on,0,0,1,,,,,,,,,0,,,83,62
177360,note_on,0,0,2,,,,,,,,,1,,,71,62
177360,note_on,240,0,2,,,,,,,,,1,,,71,0
177360,note_on,240,0,1,,,,,,,,,0,,,83,0
177600,note_on,240,0,1,,,,,,,,,0,,,83,0
177600,control_change,0,0,1,,,,,,,,,0,64,0,,
177600,note_on,0,0,1,,,,,,,,,0,,,82,62
177600,note_on,0,0,2,,,,,,,,,1,,,70,62
177600,control_change,0,0,2,,,,,,,,,1,64,0,,
177600,note_on,240,0,2,,,,,,,,,1,,,71,0
177840,note_on,0,0,2,,,,,,,,,1,,,69,62
177840,note_on,240,0,1,,,,,,,,,0,,,82,0
177840,control_change,0,0,1,,,,,,,,,0,64,127,,
177840,note_on,0,0,1,,,,,,,,,0,,,81,62
177840,control_change,0,0,2,,,,,,,,,1,64,127,,
177840,note_on,0,0,3,,,,,,,,,2,,,57,49
177840,note_on,720,0,3,,,,,,,,,2,,,55,49
177840,note_on,0,0,3,,,,,,,,,2,,,64,49
177840,note_on,720,0,4,,,,,,,,,3,,,49,62
177840,note_on,240,0,2,,,,,,,,,1,,,70,0
178080,note_on,240,0,2,,,,,,,,,1,,,69,0
178080,note_on,0,0,2,,,,,,,,,1,,,73,62
178080,note_on,240,0,1,,,,,,,,,0,,,81,0
178080,note_on,0,0,1,,,,,,,,,0,,,85,62
178140,note_on,0,0,1,,,,,,,,,0,,,87,62
178140,note_on,60,0,1,,,,,,,,,0,,,85,0
178140,note_on,0,0,2,,,,,,,,,1,,,75,62
178140,note_on,60,0,2,,,,,,,,,1,,,73,0
178200,note_on,60,0,1,,,,,,,,,0,,,87,0
178200,note_on,0,0,2,,,,,,,,,1,,,76,62
178200,note_on,60,0,2,,,,,,,,,1,,,75,0
178200,note_on,0,0,1,,,,,,,,,0,,,88,62
178260,note_on,60,0,1,,,,,,,,,0,,,88,0
178260,note_on,0,0,1,,,,,,,,,0,,,90,62
178260,note_on,60,0,2,,,,,,,,,1,,,76,0
178260,note_on,0,0,2,,,,,,,,,1,,,78,62
178320,note_on,0,0,1,,,,,,,,,0,,,91,62
178320,note_on,60,0,1,,,,,,,,,0,,,90,0
178320,control_change,0,0,1,,,,,,,,,0,64,0,,
178320,note_on,0,0,2,,,,,,,,,1,,,79,62
178320,note_on,60,0,2,,,,,,,,,1,,,78,0
178320,control_change,0,0,2,,,,,,,,,1,64,0,,
178560,note_on,0,0,4,,,,,,,,,3,,,49,62
178560,control_change,0,0,4,,,,,,,,,3,64,127,,
178560,note_on,720,0,4,,,,,,,,,3,,,49,0
178560,note_on,0,0,3,,,,,,,,,2,,,57,0
178560,note_on,240,0,1,,,,,,,,,0,,,91,0
178560,note_on,720,0,3,,,,,,,,,2,,,64,0
178560,note_on,240,0,2,,,,,,,,,1,,,79,0
178560,note_on,0,0,3,,,,,,,,,2,,,64,49
178560,note_on,0,0,3,,,,,,,,,2,,,57,49
178560,note_on,0,0,3,,,,,,,,,2,,,55,49
178560,control_change,0,0,3,,,,,,,,,2,64,127,,
178560,note_on,0,0,3,,,,,,,,,2,,,55,0
178800,note_on,0,0,3,,,,,,,,,2,,,64,49
178800,note_on,240,0,4,,,,,,,,,3,,,49,0
178800,note_on,0,0,3,,,,,,,,,2,,,57,49
178800,note_on,0,0,4,,,,,,,,,3,,,49,62
178800,note_on,0,0,3,,,,,,,,,2,,,55,49
178800,note_on,240,0,3,,,,,,,,,2,,,64,0
178800,note_on,0,0,3,,,,,,,,,2,,,57,0
178800,note_on,0,0,3,,,,,,,,,2,,,55,0
179040,note_on,240,0,3,,,,,,,,,2,,,64,0
179040,note_on,0,0,3,,,,,,,,,2,,,57,0
179040,note_on,240,0,4,,,,,,,,,3,,,49,0
179040,control_change,0,0,4,,,,,,,,,3,64,0,,
179040,note_on,0,0,3,,,,,,,,,2,,,55,0
179040,control_change,0,0,3,,,,,,,,,2,64,0,,
179040,note_on,0,0,3,,,,,,,,,2,,,55,49
179040,note_on,0,0,3,,,,,,,,,2,,,57,49
179040,note_on,0,0,3,,,,,,,,,2,,,64,49
179040,note_on,0,0,4,,,,,,,,,3,,,49,62
179280,note_on,0,0,3,,,,,,,,,2,,,55,0
179280,note_on,0,0,3,,,,,,,,,2,,,55,49
179280,note_on,240,0,3,,,,,,,,,2,,,64,0
179280,note_on,0,0,3,,,,,,,,,2,,,57,0
179280,note_on,0,0,3,,,,,,,,,2,,,64,49
179280,note_on,0,0,2,,,,,,,,,1,,,70,62
179280,note_on,0,0,3,,,,,,,,,2,,,58,49
179280,control_change,720,0,2,,,,,,,,,1,64,127,,
179280,note_on,0,0,4,,,,,,,,,3,,,50,62
179280,note_on,0,0,1,,,,,,,,,0,,,82,62
179280,note_on,240,0,4,,,,,,,,,3,,,49,0
179280,control_change,720,0,1,,,,,,,,,0,64,127,,
179520,note_on,240,0,1,,,,,,,,,0,,,82,0
179520,note_on,240,0,2,,,,,,,,,1,,,70,0
179520,note_on,0,0,1,,,,,,,,,0,,,85,62
179520,note_on,0,0,2,,,,,,,,,1,,,73,62
179580,note_on,0,0,2,,,,,,,,,1,,,75,62
179580,note_on,0,0,1,,,,,,,,,0,,,87,62
179580,note_on,60,0,1,,,,,,,,,0,,,85,0
179580,note_on,60,0,2,,,,,,,,,1,,,73,0
179640,note_on,0,0,2,,,,,,,,,1,,,76,62
179640,note_on,60,0,2,,,,,,,,,1,,,75,0
179640,note_on,0,0,1,,,,,,,,,0,,,88,62
179640,note_on,60,0,1,,,,,,,,,0,,,87,0
179700,note_on,60,0,1,,,,,,,,,0,,,88,0
179700,note_on,0,0,2,,,,,,,,,1,,,78,62
179700,note_on,60,0,2,,,,,,,,,1,,,76,0
179700,note_on,0,0,1,,,,,,,,,0,,,90,62
179760,note_on,60,0,1,,,,,,,,,0,,,90,0
179760,note_on,0,0,1,,,,,,,,,0,,,91,62
179760,control_change,0,0,1,,,,,,,,,0,64,0,,
179760,note_on,0,0,2,,,,,,,,,1,,,79,62
179760,control_change,0,0,2,,,,,,,,,1,64,0,,
179760,note_on,60,0,2,,,,,,,,,1,,,78,0
180000,note_on,240,0,2,,,,,,,,,1,,,79,0
180000,note_on,720,0,3,,,,,,,,,2,,,64,0
180000,note_on,720,0,4,,,,,,,,,3,,,50,0
180000,control_change,0,0,4,,,,,,,,,3,64,127,,
180000,note_on,240,0,1,,,,,,,,,0,,,91,0
180000,note_on,0,0,3,,,,,,,,,2,,,58,0
180000,note_on,0,0,3,,,,,,,,,2,,,64,49
180000,note_on,0,0,3,,,,,,,,,2,,,58,49
180000,note_on,0,0,3,,,,,,,,,2,,,55,49
180000,control_change,0,0,3,,,,,,,,,2,64,127,,
180000,note_on,0,0,3,,,,,,,,,2,,,55,0
180000,note_on,0,0,4,,,,,,,,,3,,,50,62
180240,note_on,0,0,4,,,,,,,,,3,,,50,62
180240,note_on,240,0,4,,,,,,,,,3,,,50,0
180240,note_on,0,0,3,,,,,,,,,2,,,64,49
180240,note_on,0,0,3,,,,,,,,,2,,,55,0
180240,note_on,240,0,3,,,,,,,,,2,,,64,0
180240,note_on,0,0,3,,,,,,,,,2,,,58,0
180240,note_on,0,0,3,,,,,,,,,2,,,55,49
180240,note_on,0,0,3,,,,,,,,,2,,,58,49
180480,note_on,0,0,4,,,,,,,,,3,,,50,62
180480,control_change,0,0,4,,,,,,,,,3,64,0,,
180480,note_on,240,0,4,,,,,,,,,3,,,50,0
180480,note_on,0,0,3,,,,,,,,,2,,,55,0
180480,note_on,0,0,3,,,,,,,,,2,,,58,0
180480,note_on,0,0,3,,,,,,,,,2,,,64,49
180480,note_on,0,0,3,,,,,,,,,2,,,58,49
180480,note_on,0,0,3,,,,,,,,,2,,,55,49
180480,note_on,240,0,3,,,,,,,,,2,,,64,0
180480,control_change,0,0,3,,,,,,,,,2,64,0,,
180720,note_on,0,0,3,,,,,,,,,2,,,58,0
180720,note_on,240,0,3,,,,,,,,,2,,,64,0
180720,note_on,0,0,3,,,,,,,,,2,,,55,75
180720,note_on,0,0,3,,,,,,,,,2,,,57,75
180720,note_on,0,0,3,,,,,,,,,2,,,64,75
180720,time_signature,20160,1,0,10,8,12,8,,,,,,,,,
180720,note_on,0,0,3,,,,,,,,,2,,,55,0
180720,note_on,0,0,4,,,,,,,,,3,,,49,88
180720,note_on,240,0,4,,,,,,,,,3,,,50,0
180720,note_on,0,0,2,,,,,,,,,1,,,69,88
180720,control_change,720,0,2,,,,,,,,,1,64,127,,
180720,note_on,0,0,1,,,,,,,,,0,,,81,88
180720,control_change,720,0,1,,,,,,,,,0,64,127,,
180960,note_on,0,0,1,,,,,,,,,0,,,85,88
180960,note_on,240,0,1,,,,,,,,,0,,,81,0
180960,note_on,240,0,2,,,,,,,,,1,,,69,0
180960,note_on,0,0,2,,,,,,,,,1,,,73,88
181020,note_on,60,0,2,,,,,,,,,1,,,73,0
181020,note_on,60,0,1,,,,,,,,,0,,,85,0
181020,note_on,0,0,1,,,,,,,,,0,,,87,88
181020,note_on,0,0,2,,,,,,,,,1,,,75,88
181080,note_on,60,0,1,,,,,,,,,0,,,87,0
181080,note_on,60,0,2,,,,,,,,,1,,,75,0
181080,note_on,0,0,2,,,,,,,,,1,,,76,88
181080,note_on,0,0,1,,,,,,,,,0,,,88,88
181140,note_on,0,0,1,,,,,,,,,0,,,90,88
181140,note_on,60,0,2,,,,,,,,,1,,,76,0
181140,note_on,0,0,2,,,,,,,,,1,,,78,88
181140,note_on,60,0,1,,,,,,,,,0,,,88,0
181200,control_change,0,0,2,,,,,,,,,1,64,0,,
181200,note_on,60,0,2,,,,,,,,,1,,,78,0
181200,set_tempo,480,1,0,,,,,,750000,,,,,,,
181200,note_on,0,0,2,,,,,,,,,1,,,79,88
181200,note_on,0,0,1,,,,,,,,,0,,,91,88
181200,control_change,0,0,1,,,,,,,,,0,64,0,,
181200,note_on,60,0,1,,,,,,,,,0,,,90,0
181440,note_on,720,0,4,,,,,,,,,3,,,49,0
181440,note_on,0,0,3,,,,,,,,,2,,,57,0
181440,note_on,720,0,3,,,,,,,,,2,,,64,0
181440,note_on,0,0,3,,,,,,,,,2,,,55,0
181680,note_on,0,0,1,,,,,,,,,0,,,92,88
181680,note_on,480,0,1,,,,,,,,,0,,,91,0
181680,note_on,480,0,2,,,,,,,,,1,,,79,0
181680,note_on,0,0,2,,,,,,,,,1,,,80,88
182400,note_on,0,0,2,,,,,,,,,1,,,69,88
182400,control_change,0,0,2,,,,,,,,,1,64,127,,
182400,note_on,720,0,2,,,,,,,,,1,,,80,0
182400,note_on,720,0,1,,,,,,,,,0,,,92,0
182400,control_change,0,0,1,,,,,,,,,0,64,127,,
182400,note_on,0,0,1,,,,,,,,,0,,,81,88
182430,note_on,0,0,1,,,,,,,,,0,,,85,88
182430,note_on,30,0,2,,,,,,,,,1,,,69,0
182430,note_on,0,0,2,,,,,,,,,1,,,73,88
182430,note_on,30,0,1,,,,,,,,,0,,,81,0
182460,note_on,30,0,2,,,,,,,,,1,,,73,0
182460,note_on,0,0,2,,,,,,,,,1,,,76,88
182460,note_on,0,0,1,,,,,,,,,0,,,88,88
182460,note_on,30,0,1,,,,,,,,,0,,,85,0
182490,note_on,0,0,1,,,,,,,,,0,,,91,88
182490,note_on,30,0,1,,,,,,,,,0,,,88,0
182490,note_on,30,0,2,,,,,,,,,1,,,76,0
182490,note_on,0,0,2,,,,,,,,,1,,,79,88
182520,note_on,30,0,1,,,,,,,,,0,,,91,0
182520,note_on,0,0,1,,,,,,,,,0,,,95,114
182520,note_on,0,0,2,,,,,,,,,1,,,83,114
182520,note_on,30,0,2,,,,,,,,,1,,,79,0
182880,note_on,360,0,1,,,,,,,,,0,,,95,0
182880,note_on,0,0,1,,,,,,,,,0,,,93,88
182880,note_on,360,0,2,,,,,,,,,1,,,83,0
182880,note_on,0,0,2,,,,,,,,,1,,,81,88
183000,note_on,120,0,1,,,,,,,,,0,,,93,0
183000,note_on,120,0,2,,,,,,,,,1,,,81,0
183120,set_tempo,0,1,0,,,,,,600000,,,,,,,
183120,control_change,120,0,1,,,,,,,,,0,64,0,,
183120,note_on,0,0,1,,,,,,,,,0,,,90,88
183120,control_change,120,0,2,,,,,,,,,1,64,0,,
183120,note_on,0,0,2,,,,,,,,,1,,,78,88
183120,time_signature,1920,1,0,3,4,24,8,,,,,,,,,
183120,note_on,0,0,4,,,,,,,,,3,,,50,62
183120,note_on,1680,0,4,,,,,,,,,3,,,38,62
183360,note_on,0,0,4,,,,,,,,,3,,,38,0
183360,note_on,240,0,4,,,,,,,,,3,,,50,0
183480,note_on,2040,0,3,,,,,,,,,2,,,57,49
183480,note_on,0,0,3,,,,,,,,,2,,,66,49
183480,note_on,0,0,3,,,,,,,,,2,,,62,49
183600,note_on,120,0,3,,,,,,,,,2,,,66,0
183600,note_on,0,0,3,,,,,,,,,2,,,62,0
183600,note_on,0,0,3,,,,,,,,,2,,,57,0
183600,note_on,0,0,3,,,,,,,,,2,,,57,49
183600,note_on,0,0,3,,,,,,,,,2,,,62,49
183600,note_on,0,0,3,,,,,,,,,2,,,66,49
183840,note_on,240,0,3,,,,,,,,,2,,,66,0
183840,note_on,0,0,3,,,,,,,,,2,,,62,0
183840,note_on,0,0,3,,,,,,,,,2,,,57,0
184020,note_on,900,0,2,,,,,,,,,1,,,78,88
184020,note_on,900,0,1,,,,,,,,,0,,,90,88
184080,control_change,0,0,2,,,,,,,,,1,64,127,,
184080,note_on,240,0,3,,,,,,,,,2,,,57,49
184080,note_on,0,0,3,,,,,,,,,2,,,61,49
184080,note_on,0,0,1,,,,,,,,,0,,,88,88
184080,note_on,0,0,2,,,,,,,,,1,,,76,88
184080,note_on,0,0,1,,,,,,,,,0,,,90,0
184080,note_on,60,0,1,,,,,,,,,0,,,90,0
184080,note_on,60,0,2,,,,,,,,,1,,,78,0
184080,note_on,0,0,2,,,,,,,,,1,,,78,0
184080,note_on,0,0,3,,,,,,,,,2,,,67,49
184080,control_change,0,0,1,,,,,,,,,0,64,127,,
184200,note_on,120,0,1,,,,,,,,,0,,,88,0
184200,note_on,0,0,2,,,,,,,,,1,,,75,88
184200,note_on,0,0,1,,,,,,,,,0,,,87,88
184200,note_on,120,0,2,,,,,,,,,1,,,76,0
184320,note_on,0,0,1,,,,,,,,,0,,,88,88
184320,note_on,120,0,1,,,,,,,,,0,,,87,0
184320,note_on,0,0,3,,,,,,,,,2,,,61,0
184320,note_on,0,0,3,,,,,,,,,2,,,57,0
184320,note_on,120,0,2,,,,,,,,,1,,,75,0
184320,note_on,0,0,2,,,,,,,,,1,,,76,88
184320,note_on,240,0,3,,,,,,,,,2,,,67,0
184440,note_on,120,0,2,,,,,,,,,1,,,76,0
184440,note_on,0,0,2,,,,,,,,,1,,,78,88
184440,note_on,120,0,1,,,,,,,,,0,,,88,0
184440,note_on,0,0,1,,,,,,,,,0,,,90,88
184560,control_change,0,0,1,,,,,,,,,0,64,0,,
184560,note_on,120,0,2,,,,,,,,,1,,,78,0
184560,control_change,0,0,2,,,,,,,,,1,64,0,,
184560,note_on,0,0,2,,,,,,,,,1,,,74,88
184560,note_on,1200,0,4,,,,,,,,,3,,,38,62
184560,note_on,0,0,4,,,,,,,,,3,,,50,62
184560,note_on,0,0,1,,,,,,,,,0,,,86,88
184560,note_on,120,0,1,,,,,,,,,0,,,90,0
184800,note_on,240,0,4,,,,,,,,,3,,,50,0
184800,note_on,0,0,4,,,,,,,,,3,,,38,0
184920,note_on,0,0,3,,,,,,,,,2,,,66,49
184920,note_on,0,0,3,,,,,,,,,2,,,62,49
184920,note_on,600,0,3,,,,,,,,,2,,,57,49
185040,note_on,0,0,3,,,,,,,,,2,,,66,49
185040,note_on,0,0,3,,,,,,,,,2,,,62,49
185040,note_on,0,0,3,,,,,,,,,2,,,57,49
185040,note_on,0,0,3,,,,,,,,,2,,,57,0
185040,note_on,0,0,3,,,,,,,,,2,,,62,0
185040,note_on,120,0,3,,,,,,,,,2,,,66,0
185280,note_on,0,0,3,,,,,,,,,2,,,57,0
185280,note_on,0,0,3,,,,,,,,,2,,,62,0
185280,note_on,240,0,3,,,,,,,,,2,,,66,0
185400,note_on,840,0,2,,,,,,,,,1,,,76,88
185400,note_on,840,0,1,,,,,,,,,0,,,88,88
185460,note_on,60,0,1,,,,,,,,,0,,,88,0
185460,note_on,0,0,2,,,,,,,,,1,,,74,88
185460,note_on,60,0,2,,,,,,,,,1,,,76,0
185460,note_on,0,0,1,,,,,,,,,0,,,86,88
185520,note_on,0,0,3,,,,,,,,,2,,,66,49
185520,note_on,0,0,3,,,,,,,,,2,,,62,49
185520,note_on,240,0,3,,,,,,,,,2,,,57,49
185520,note_on,60,0,1,,,,,,,,,0,,,86,0
185520,note_on,0,0,1,,,,,,,,,0,,,86,0
185520,note_on,0,0,1,,,,,,,,,0,,,85,88
185520,note_on,60,0,2,,,,,,,,,1,,,74,0
185520,note_on,0,0,2,,,,,,,,,1,,,73,88
185520,control_change,0,0,2,,,,,,,,,1,64,127,,
185520,note_on,0,0,2,,,,,,,,,1,,,74,0
185520,control_change,0,0,1,,,,,,,,,0,64,127,,
185640,note_on,120,0,1,,,,,,,,,0,,,85,0
185640,note_on,0,0,1,,,,,,,,,0,,,86,88
185640,note_on,0,0,2,,,,,,,,,1,,,74,88
185640,note_on,120,0,2,,,,,,,,,1,,,73,0
185760,note_on,0,0,2,,,,,,,,,1,,,76,88
185760,note_on,120,0,2,,,,,,,,,1,,,74,0
185760,note_on,0,0,3,,,,,,,,,2,,,62,0
185760,note_on,0,0,3,,,,,,,,,2,,,57,0
185760,note_on,240,0,3,,,,,,,,,2,,,66,0
185760,note_on,0,0,1,,,,,,,,,0,,,88,88
185760,note_on,120,0,1,,,,,,,,,0,,,86,0
185880,note_on,120,0,1,,,,,,,,,0,,,88,0
185880,note_on,0,0,1,,,,,,,,,0,,,90,88
185880,note_on,0,0,2,,,,,,,,,1,,,78,88
185880,control_change,0,0,2,,,,,,,,,1,64,0,,
185880,note_on,120,0,2,,,,,,,,,1,,,76,0
185880,control_change,0,0,1,,,,,,,,,0,64,0,,
186000,note_on,120,0,1,,,,,,,,,0,,,90,0
186000,control_change,0,0,1,,,,,,,,,0,64,127,,
186000,note_on,0,0,4,,,,,,,,,3,,,45,62
186000,note_on,0,0,1,,,,,,,,,0,,,90,88
186000,note_on,120,0,2,,,,,,,,,1,,,78,0
186000,control_change,0,0,2,,,,,,,,,1,64,127,,
186000,note_on,0,0,2,,,,,,,,,1,,,78,88
186000,note_on,1200,0,4,,,,,,,,,3,,,33,62
186240,note_on,240,0,4,,,,,,,,,3,,,45,0
186240,note_on,0,0,4,,,,,,,,,3,,,33,0
186360,note_on,360,0,2,,,,,,,,,1,,,78,0
186360,note_on,0,0,2,,,,,,,,,1,,,76,88
186360,note_on,0,0,3,,,,,,,,,2,,,61,49
186360,note_on,360,0,1,,,,,,,,,0,,,90,0
186360,note_on,0,0,1,,,,,,,,,0,,,88,88
186360,note_on,0,0,3,,,,,,,,,2,,,67,49
186360,note_on,600,0,3,,,,,,,,,2,,,57,49
186480,note_on,0,0,3,,,,,,,,,2,,,67,49
186480,note_on,0,0,3,,,,,,,,,2,,,61,49
186480,note_on,0,0,3,,,,,,,,,2,,,57,49
186480,note_on,0,0,3,,,,,,,,,2,,,57,0
186480,note_on,0,0,3,,,,,,,,,2,,,61,0
186480,note_on,120,0,3,,,,,,,,,2,,,67,0
186480,note_on,120,0,2,,,,,,,,,1,,,76,0
186480,note_on,0,0,2,,,,,,,,,1,,,75,88
186480,note_on,120,0,1,,,,,,,,,0,,,88,0
186480,note_on,0,0,1,,,,,,,,,0,,,87,88
186720,note_on,240,0,3,,,,,,,,,2,,,67,0
186720,note_on,0,0,3,,,,,,,,,2,,,57,0
186720,note_on,0,0,3,,,,,,,,,2,,,61,0
186840,note_on,0,0,2,,,,,,,,,1,,,76,88
186840,note_on,360,0,2,,,,,,,,,1,,,75,0
186840,note_on,360,0,1,,,,,,,,,0,,,87,0
186840,note_on,0,0,1,,,,,,,,,0,,,88,88
186960,note_on,120,0,1,,,,,,,,,0,,,88,0
186960,note_on,0,0,1,,,,,,,,,0,,,95,88
186960,note_on,0,0,2,,,,,,,,,1,,,83,88
186960,note_on,0,0,3,,,,,,,,,2,,,67,49
186960,note_on,0,0,3,,,,,,,,,2,,,61,49
186960,note_on,240,0,3,,,,,,,,,2,,,57,49
186960,note_on,120,0,2,,,,,,,,,1,,,76,0
187200,note_on,0,0,3,,,,,,,,,2,,,57,0
187200,note_on,0,0,3,,,,,,,,,2,,,61,0
187200,note_on,240,0,3,,,,,,,,,2,,,67,0
187320,control_change,0,0,1,,,,,,,,,0,64,0,,
187320,note_on,0,0,1,,,,,,,,,0,,,93,88
187320,note_on,360,0,1,,,,,,,,,0,,,95,0
187320,note_on,360,0,2,,,,,,,,,1,,,83,0
187320,control_change,0,0,2,,,,,,,,,1,64,0,,
187320,note_on,0,0,2,,,,,,,,,1,,,81,88
187440,note_on,1200,0,4,,,,,,,,,3,,,38,62
187440,note_on,0,0,4,,,,,,,,,3,,,50,62
187440,time_signature,4320,1,0,7,8,12,8,,,,,,,,,
187440,note_on,0,0,2,,,,,,,,,1,,,77,88
187440,note_on,120,0,2,,,,,,,,,1,,,81,0
187440,note_on,120,0,1,,,,,,,,,0,,,93,0
187440,note_on,0,0,1,,,,,,,,,0,,,89,88
187680,note_on,0,0,4,,,,,,,,,3,,,38,0
187680,note_on,240,0,4,,,,,,,,,3,,,50,0
187800,note_on,600,0,3,,,,,,,,,2,,,57,49
187800,note_on,0,0,3,,,,,,,,,2,,,62,49
187800,note_on,0,0,3,,,,,,,,,2,,,66,49
187920,note_on,480,0,2,,,,,,,,,1,,,77,0
187920,note_on,0,0,3,,,,,,,,,2,,,66,49
187920,note_on,120,0,3,,,,,,,,,2,,,66,0
187920,note_on,0,0,3,,,,,,,,,2,,,62,0
187920,note_on,0,0,3,,,,,,,,,2,,,57,49
187920,note_on,0,0,3,,,,,,,,,2,,,62,49
187920,note_on,480,0,1,,,,,,,,,0,,,89,0
187920,note_on,0,0,1,,,,,,,,,0,,,90,88
187920,note_on,0,0,2,,,,,,,,,1,,,78,88
187920,note_on,0,0,3,,,,,,,,,2,,,57,0
188160,note_on,240,0,1,,,,,,,,,0,,,90,0
188160,control_change,0,0,3,,,,,,,,,2,64,127,,
188160,note_on,0,0,3,,,,,,,,,2,,,57,0
188160,note_on,0,0,3,,,,,,,,,2,,,62,0
188160,note_on,240,0,3,,,,,,,,,2,,,66,0
188160,note_on,240,0,2,,,,,,,,,1,,,78,0
188400,note_on,240,0,3,,,,,,,,,2,,,57,75
188480,note_on,0,0,3,,,,,,,,,2,,,62,75
188480,note_on,80,0,3,,,,,,,,,2,,,57,0
188559,note_on,0,0,3,,,,,,,,,2,,,66,75
188559,note_on,79,0,3,,,,,,,,,2,,,62,0
188640,note_on,0,0,3,,,,,,,,,2,,,71,101
188640,note_on,81,0,3,,,,,,,,,2,,,66,0
189000,note_on,0,0,3,,,,,,,,,2,,,69,75
189000,note_on,360,0,3,,,,,,,,,2,,,71,0
189120,note_on,0,0,4,,,,,,,,,3,,,57,62
189120,note_on,1440,0,4,,,,,,,,,3,,,50,62
189120,time_signature,1680,1,0,3,4,24,8,,,,,,,,,
189120,note_on,120,0,3,,,,,,,,,2,,,69,0
189120,control_change,0,0,3,,,,,,,,,2,64,0,,
189120,note_on,0,0,3,,,,,,,,,2,,,66,75
189480,note_on,0,0,1,,,,,,,,,0,,,81,62
189480,control_change,1320,0,1,,,,,,,,,0,64,127,,
189480,note_on,0,0,2,,,,,,,,,1,,,69,62
189480,control_change,1320,0,2,,,,,,,,,1,64,127,,
189600,note_on,0,0,1,,,,,,,,,0,,,86,62
189600,note_on,120,0,2,,,,,,,,,1,,,69,0
189600,note_on,0,0,2,,,,,,,,,1,,,74,62
189600,note_on,120,0,1,,,,,,,,,0,,,81,0
189600,note_on,0,0,4,,,,,,,,,3,,,50,0
189600,note_on,480,0,4,,,,,,,,,3,,,57,0
189960,note_on,360,0,2,,,,,,,,,1,,,74,0
189960,note_on,0,0,2,,,,,,,,,1,,,78,62
189960,note_on,0,0,1,,,,,,,,,0,,,90,62
189960,note_on,360,0,1,,,,,,,,,0,,,86,0
190020,note_on,900,0,3,,,,,,,,,2,,,66,75
190080,note_on,0,0,3,,,,,,,,,2,,,64,75
190080,note_on,0,0,4,,,,,,,,,3,,,55,62
190080,note_on,0,0,3,,,,,,,,,2,,,66,0
190080,note_on,120,0,1,,,,,,,,,0,,,90,0
190080,note_on,0,0,1,,,,,,,,,0,,,91,88
190080,note_on,60,0,3,,,,,,,,,2,,,66,0
190080,note_on,120,0,2,,,,,,,,,1,,,78,0
190080,note_on,0,0,2,,,,,,,,,1,,,79,88
190080,note_on,480,0,4,,,,,,,,,3,,,46,62
190080,control_change,0,0,3,,,,,,,,,2,64,127,,
190200,note_on,120,0,3,,,,,,,,,2,,,64,0
190200,note_on,0,0,3,,,,,,,,,2,,,63,75
190320,note_on,120,0,3,,,,,,,,,2,,,63,0
190320,note_on,0,0,3,,,,,,,,,2,,,64,75
190320,note_on,240,0,1,,,,,,,,,0,,,91,0
190320,note_on,0,0,1,,,,,,,,,0,,,85,62
190320,note_on,240,0,2,,,,,,,,,1,,,79,0
190320,control_change,0,0,2,,,,,,,,,1,64,0,,
190320,note_on,0,0,2,,,,,,,,,1,,,73,62
190320,control_change,0,0,1,,,,,,,,,0,64,0,,
190440,note_on,0,0,3,,,,,,,,,2,,,66,75
190440,note_on,120,0,1,,,,,,,,,0,,,85,0
190440,note_on,120,0,2,,,,,,,,,1,,,73,0
190440,note_on,120,0,3,,,,,,,,,2,,,64,0
190560,control_change,0,0,3,,,,,,,,,2,64,0,,
190560,note_on,0,0,3,,,,,,,,,2,,,62,75
190560,note_on,480,0,4,,,,,,,,,3,,,55,0
190560,note_on,0,0,4,,,,,,,,,3,,,46,0
190560,note_on,0,0,4,,,,,,,,,3,,,47,62
190560,note_on,0,0,4,,,,,,,,,3,,,54,62
190560,note_on,120,0,3,,,,,,,,,2,,,66,0
190920,note_on,0,0,2,,,,,,,,,1,,,74,62
190920,control_change,480,0,2,,,,,,,,,1,64,127,,
190920,control_change,480,0,1,,,,,,,,,0,64,127,,
190920,note_on,0,0,1,,,,,,,,,0,,,86,62
191040,note_on,0,0,2,,,,,,,,,1,,,78,88
191040,note_on,0,0,4,,,,,,,,,3,,,47,0
191040,note_on,480,0,4,,,,,,,,,3,,,54,0
191040,note_on,120,0,1,,,,,,,,,0,,,86,0
191040,note_on,0,0,1,,,,,,,,,0,,,90,88
191040,note_on,120,0,2,,,,,,,,,1,,,74,0
191400,note_on,0,0,1,,,,,,,,,0,,,86,62
191400,note_on,0,0,2,,,,,,,,,1,,,74,62
191400,note_on,360,0,2,,,,,,,,,1,,,78,0
191400,note_on,360,0,1,,,,,,,,,0,,,90,0
191520,control_change,0,0,3,,,,,,,,,2,64,127,,
191520,note_on,0,0,3,,,,,,,,,2,,,64,75
191520,note_on,480,0,4,,,,,,,,,3,,,43,62
191520,note_on,960,0,3,,,,,,,,,2,,,62,0
191520,note_on,0,0,4,,,,,,,,,3,,,55,62
191520,note_on,120,0,1,,,,,,,,,0,,,86,0
191520,control_change,0,0,2,,,,,,,,,1,64,0,,
191520,note_on,0,0,1,,,,,,,,,0,,,83,62
191520,control_change,0,0,1,,,,,,,,,0,64,0,,
191520,note_on,120,0,2,,,,,,,,,1,,,74,0
191520,note_on,0,0,2,,,,,,,,,1,,,71,62
191640,note_on,0,0,3,,,,,,,,,2,,,66,75
191640,note_on,120,0,3,,,,,,,,,2,,,64,0
191760,note_on,240,0,1,,,,,,,,,0,,,83,0
191760,note_on,0,0,3,,,,,,,,,2,,,67,75
191760,note_on,120,0,3,,,,,,,,,2,,,66,0
191760,note_on,240,0,2,,,,,,,,,1,,,71,0
191880,note_on,0,0,3,,,,,,,,,2,,,71,75
191880,note_on,120,0,3,,,,,,,,,2,,,67,0
191880,control_change,0,0,3,,,,,,,,,2,64,0,,
192000,note_on,0,0,3,,,,,,,,,2,,,71,101
192000,control_change,0,0,3,,,,,,,,,2,64,127,,
192000,note_on,120,0,3,,,,,,,,,2,,,71,0
192000,note_on,0,0,4,,,,,,,,,3,,,62,62
192000,note_on,0,0,4,,,,,,,,,3,,,43,0
192000,note_on,0,0,4,,,,,,,,,3,,,57,62
192000,note_on,0,0,4,,,,,,,,,3,,,66,62
192000,note_on,480,0,4,,,,,,,,,3,,,55,0
192000,note_on,0,0,4,,,,,,,,,3,,,45,62
192360,note_on,0,0,1,,,,,,,,,0,,,90,62
192360,control_change,600,0,1,,,,,,,,,0,64,127,,
192360,control_change,600,0,2,,,,,,,,,1,64,127,,
192360,note_on,0,0,2,,,,,,,,,1,,,78,62
192480,note_on,120,0,1,,,,,,,,,0,,,90,0
192480,note_on,0,0,1,,,,,,,,,0,,,98,88
192480,note_on,120,0,2,,,,,,,,,1,,,78,0
192480,note_on,0,0,2,,,,,,,,,1,,,86,88
192840,note_on,0,0,3,,,,,,,,,2,,,69,75
192840,note_on,840,0,3,,,,,,,,,2,,,71,0
192840,note_on,360,0,1,,,,,,,,,0,,,98,0
192840,note_on,0,0,2,,,,,,,,,1,,,78,62
192840,note_on,0,0,1,,,,,,,,,0,,,90,62
192840,note_on,360,0,2,,,,,,,,,1,,,86,0
192960,note_on,960,0,4,,,,,,,,,3,,,66,0
192960,note_on,0,0,4,,,,,,,,,3,,,57,0
192960,note_on,0,0,4,,,,,,,,,3,,,45,62
192960,note_on,0,0,4,,,,,,,,,3,,,62,0
192960,note_on,0,0,4,,,,,,,,,3,,,55,62
192960,note_on,0,0,4,,,,,,,,,3,,,45,0
192960,note_on,0,0,4,,,,,,,,,3,,,64,62
192960,note_on,120,0,3,,,,,,,,,2,,,69,0
192960,note_on,120,0,2,,,,,,,,,1,,,78,0
192960,note_on,0,0,2,,,,,,,,,1,,,80,62
192960,note_on,0,0,4,,,,,,,,,3,,,61,62
192960,note_on,120,0,1,,,,,,,,,0,,,90,0
192960,note_on,0,0,1,,,,,,,,,0,,,92,62
192960,note_on,0,0,3,,,,,,,,,2,,,71,101
193320,note_on,0,0,1,,,,,,,,,0,,,93,62
193320,note_on,360,0,1,,,,,,,,,0,,,92,0
193320,control_change,0,0,1,,,,,,,,,0,64,0,,
193320,note_on,0,0,3,,,,,,,,,2,,,69,75
193320,control_change,0,0,3,,,,,,,,,2,64,0,,
193320,note_on,0,0,2,,,,,,,,,1,,,81,62
193320,control_change,0,0,2,,,,,,,,,1,64,0,,
193320,note_on,360,0,3,,,,,,,,,2,,,71,0
193320,note_on,360,0,2,,,,,,,,,1,,,80,0
193440,note_on,480,0,4,,,,,,,,,3,,,64,0
193440,note_on,0,0,4,,,,,,,,,3,,,45,0
193440,note_on,0,0,4,,,,,,,,,3,,,55,0
193440,note_on,0,0,4,,,,,,,,,3,,,61,0
193440,note_on,0,0,4,,,,,,,,,3,,,50,62
193440,note_on,0,0,4,,,,,,,,,3,,,54,62
193440,note_on,120,0,1,,,,,,,,,0,,,93,0
193440,note_on,0,0,2,,,,,,,,,1,,,74,62
193440,note_on,120,0,2,,,,,,,,,1,,,81,0
193440,note_on,0,0,1,,,,,,,,,0,,,86,62
193440,note_on,120,0,3,,,,,,,,,2,,,69,0
193440,note_on,0,0,3,,,,,,,,,2,,,62,75
193920,note_on,480,0,1,,,,,,,,,0,,,86,0
193920,note_on,0,0,4,,,,,,,,,3,,,38,62
193920,note_on,0,0,4,,,,,,,,,3,,,50,0
193920,note_on,480,0,4,,,,,,,,,3,,,54,0
193920,note_on,480,0,2,,,,,,,,,1,,,74,0
193920,note_on,480,0,3,,,,,,,,,2,,,62,0
194400,note_on,480,0,4,,,,,,,,,3,,,38,0
194880,time_signature,5760,1,0,1,4,24,8,,,,,,,,,
194880,note_on,960,0,3,,,,,,,,,2,,,62,75
194880,key_signature,0,1,0,,,,,G,,,,,,,,
194880,note_on,0,0,2,,,,,,,,,1,,,74,62
194880,control_change,960,0,2,,,,,,,,,1,64,127,,
195000,note_on,0,0,2,,,,,,,,,1,,,76,62
195000,note_on,120,0,2,,,,,,,,,1,,,74,0
195120,note_on,0,0,3,,,,,,,,,2,,,66,75
195120,note_on,240,0,3,,,,,,,,,2,,,62,0
195120,note_on,120,0,2,,,,,,,,,1,,,76,0
195120,note_on,0,0,2,,,,,,,,,1,,,72,62
195240,note_on,120,0,2,,,,,,,,,1,,,72,0
195240,control_change,0,0,2,,,,,,,,,1,64,0,,
195240,note_on,0,0,2,,,,,,,,,1,,,74,62
195360,note_on,120,0,2,,,,,,,,,1,,,74,0
195360,control_change,0,0,3,,,,,,,,,2,64,127,,
195360,note_on,0,0,3,,,,,,,,,2,,,67,75
195360,note_on,960,0,4,,,,,,,,,3,,,31,62
195360,note_on,0,0,4,,,,,,,,,3,,,43,62
195360,time_signature,480,1,0,3,4,24,8,,,,,,,,,
195360,note_on,0,0,2,,,,,,,,,1,,,71,62
195360,control_change,0,0,2,,,,,,,,,1,64,127,,
195360,note_on,240,0,3,,,,,,,,,2,,,66,0
195480,note_on,0,0,2,,,,,,,,,1,,,72,62
195480,note_on,120,0,2,,,,,,,,,1,,,71,0
195600,note_on,0,0,3,,,,,,,,,2,,,62,75
195600,note_on,240,0,3,,,,,,,,,2,,,67,0
195600,note_on,120,0,2,,,,,,,,,1,,,72,0
195600,note_on,0,0,2,,,,,,,,,1,,,69,62
195720,note_on,0,0,2,,,,,,,,,1,,,71,62
195720,note_on,120,0,2,,,,,,,,,1,,,69,0
195840,note_on,0,0,2,,,,,,,,,1,,,67,62
195840,note_on,120,0,2,,,,,,,,,1,,,71,0
195840,note_on,0,0,3,,,,,,,,,2,,,59,75
195840,note_on,240,0,3,,,,,,,,,2,,,62,0
195960,note_on,0,0,2,,,,,,,,,1,,,71,62
195960,note_on,120,0,2,,,,,,,,,1,,,67,0
196080,note_on,120,0,2,,,,,,,,,1,,,71,0
196080,note_on,0,0,3,,,,,,,,,2,,,65,75
196080,note_on,240,0,3,,,,,,,,,2,,,59,0
196080,note_on,0,0,2,,,,,,,,,1,,,72,62
196200,note_on,120,0,2,,,,,,,,,1,,,72,0
196200,note_on,0,0,2,,,,,,,,,1,,,74,62
196320,note_on,0,0,3,,,,,,,,,2,,,64,75
196320,note_on,240,0,3,,,,,,,,,2,,,65,0
196320,note_on,120,0,2,,,,,,,,,1,,,74,0
196320,note_on,0,0,2,,,,,,,,,1,,,76,62
196440,note_on,120,0,2,,,,,,,,,1,,,76,0
196440,note_on,0,0,2,,,,,,,,,1,,,79,62
196560,note_on,240,0,3,,,,,,,,,2,,,64,0
196560,note_on,120,0,2,,,,,,,,,1,,,79,0
196560,note_on,0,0,2,,,,,,,,,1,,,78,62
196560,note_on,0,0,3,,,,,,,,,2,,,60,75
196560,control_change,0,0,3,,,,,,,,,2,64,0,,
196680,note_on,120,0,2,,,,,,,,,1,,,78,0
196680,control_change,0,0,2,,,,,,,,,1,64,0,,
196680,note_on,0,0,2,,,,,,,,,1,,,76,62
196800,note_on,240,0,3,,,,,,,,,2,,,60,0
196800,control_change,0,0,3,,,,,,,,,2,64,127,,
196800,note_on,0,0,3,,,,,,,,,2,,,59,75
196800,note_on,0,0,2,,,,,,,,,1,,,74,62
196800,note_on,0,0,4,,,,,,,,,3,,,31,62
196800,note_on,0,0,4,,,,,,,,,3,,,43,62
196800,note_on,0,0,4,,,,,,,,,3,,,31,0
196800,note_on,1440,0,4,,,,,,,,,3,,,43,0
196800,note_on,120,0,2,,,,,,,,,1,,,76,0
196800,control_change,0,0,2,,,,,,,,,1,64,127,,
196920,note_on,0,0,2,,,,,,,,,1,,,83,62
196920,note_on,120,0,2,,,,,,,,,1,,,74,0
197040,note_on,0,0,2,,,,,,,,,1,,,81,62
197040,note_on,0,0,3,,,,,,,,,2,,,60,75
197040,note_on,240,0,3,,,,,,,,,2,,,59,0
197040,note_on,120,0,2,,,,,,,,,1,,,83,0
197160,note_on,0,0,2,,,,,,,,,1,,,79,62
197160,note_on,0,0,3,,,,,,,,,2,,,59,75
197160,note_on,120,0,2,,,,,,,,,1,,,81,0
197160,note_on,120,0,3,,,,,,,,,2,,,60,0
197280,note_on,0,0,3,,,,,,,,,2,,,57,75
197280,note_on,120,0,2,,,,,,,,,1,,,79,0
197280,note_on,120,0,3,,,,,,,,,2,,,59,0
197280,note_on,0,0,2,,,,,,,,,1,,,78,62
197400,note_on,120,0,2,,,,,,,,,1,,,78,0
197400,note_on,0,0,2,,,,,,,,,1,,,79,62
197520,note_on,120,0,2,,,,,,,,,1,,,79,0
197520,note_on,0,0,2,,,,,,,,,1,,,81,62
197520,note_on,0,0,3,,,,,,,,,2,,,59,75
197520,note_on,240,0,3,,,,,,,,,2,,,57,0
197640,note_on,120,0,2,,,,,,,,,1,,,81,0
197640,note_on,0,0,2,,,,,,,,,1,,,79,62
197760,note_on,240,0,3,,,,,,,,,2,,,59,0
197760,note_on,120,0,2,,,,,,,,,1,,,79,0
197760,note_on,0,0,2,,,,,,,,,1,,,78,62
197760,note_on,0,0,3,,,,,,,,,2,,,60,75
197880,note_on,0,0,2,,,,,,,,,1,,,76,62
197880,note_on,120,0,2,,,,,,,,,1,,,78,0
198000,note_on,120,0,2,,,,,,,,,1,,,76,0
198000,note_on,0,0,3,,,,,,,,,2,,,64,75
198000,control_change,0,0,3,,,,,,,,,2,64,0,,
198000,note_on,240,0,3,,,,,,,,,2,,,60,0
198000,note_on,0,0,2,,,,,,,,,1,,,79,62
198120,control_change,0,0,2,,,,,,,,,1,64,0,,
198120,note_on,120,0,2,,,,,,,,,1,,,79,0
198120,note_on,0,0,2,,,,,,,,,1,,,76,62
198240,note_on,0,0,3,,,,,,,,,2,,,66,75
198240,note_on,120,0,2,,,,,,,,,1,,,76,0
198240,control_change,0,0,2,,,,,,,,,1,64,127,,
198240,note_on,0,0,2,,,,,,,,,1,,,74,62
198240,note_on,240,0,3,,,,,,,,,2,,,64,0
198240,control_change,0,0,3,,,,,,,,,2,64,127,,
198360,note_on,120,0,2,,,,,,,,,1,,,74,0
198360,note_on,0,0,2,,,,,,,,,1,,,76,62
198480,note_on,120,0,2,,,,,,,,,1,,,76,0
198480,note_on,240,0,3,,,,,,,,,2,,,66,0
198480,note_on,0,0,3,,,,,,,,,2,,,62,75
198480,note_on,0,0,2,,,,,,,,,1,,,72,62
198600,note_on,120,0,2,,,,,,,,,1,,,72,0
198600,note_on,0,0,2,,,,,,,,,1,,,74,62
198720,note_on,240,0,3,,,,,,,,,2,,,62,0
198720,note_on,0,0,3,,,,,,,,,2,,,67,75
198720,note_on,120,0,2,,,,,,,,,1,,,74,0
198720,note_on,0,0,2,,,,,,,,,1,,,71,62
198840,note_on,120,0,2,,,,,,,,,1,,,71,0
198840,note_on,0,0,2,,,,,,,,,1,,,79,62
198960,note_on,120,0,2,,,,,,,,,1,,,79,0
198960,note_on,0,0,2,,,,,,,,,1,,,78,62
198960,note_on,0,0,3,,,,,,,,,2,,,59,75
198960,note_on,240,0,3,,,,,,,,,2,,,67,0
199080,note_on,120,0,2,,,,,,,,,1,,,78,0
199080,note_on,0,0,2,,,,,,,,,1,,,76,62
199200,note_on,240,0,3,,,,,,,,,2,,,59,0
199200,note_on,0,0,3,,,,,,,,,2,,,60,75
199200,note_on,0,0,4,,,,,,,,,3,,,48,62
199200,note_on,0,0,4,,,,,,,,,3,,,36,62
199200,note_on,0,0,4,,,,,,,,,3,,,31,0
199200,note_on,2400,0,4,,,,,,,,,3,,,43,0
199200,note_on,120,0,2,,,,,,,,,1,,,76,0
199200,note_on,0,0,2,,,,,,,,,1,,,75,62
199320,note_on,120,0,2,,,,,,,,,1,,,75,0
199320,note_on,0,0,2,,,,,,,,,1,,,76,62
199440,note_on,240,0,3,,,,,,,,,2,,,60,0
199440,note_on,0,0,3,,,,,,,,,2,,,57,75
199440,control_change,0,0,3,,,,,,,,,2,64,0,,
199440,note_on,120,0,2,,,,,,,,,1,,,76,0
199440,note_on,0,0,2,,,,,,,,,1,,,72,62
199560,note_on,120,0,2,,,,,,,,,1,,,72,0
199560,note_on,0,0,2,,,,,,,,,1,,,69,62
199560,control_change,0,0,2,,,,,,,,,1,64,0,,
199680,note_on,0,0,3,,,,,,,,,2,,,62,75
199680,note_on,0,0,2,,,,,,,,,1,,,66,62
199680,control_change,0,0,2,,,,,,,,,1,64,127,,
199680,note_on,120,0,2,,,,,,,,,1,,,69,0
199680,note_on,0,0,4,,,,,,,,,3,,,36,0
199680,note_on,480,0,4,,,,,,,,,3,,,48,0
199680,note_on,240,0,3,,,,,,,,,2,,,57,0
199680,control_change,0,0,3,,,,,,,,,2,64,127,,
199680,note_on,0,0,4,,,,,,,,,3,,,38,62
199680,note_on,0,0,4,,,,,,,,,3,,,50,62
199800,note_on,120,0,2,,,,,,,,,1,,,66,0
199800,note_on,0,0,2,,,,,,,,,1,,,74,62
199920,note_on,120,0,2,,,,,,,,,1,,,74,0
199920,note_on,0,0,2,,,,,,,,,1,,,73,62
199920,note_on,0,0,3,,,,,,,,,2,,,67,75
199920,note_on,240,0,3,,,,,,,,,2,,,62,0
200040,note_on,120,0,2,,,,,,,,,1,,,73,0
200040,note_on,0,0,2,,,,,,,,,1,,,76,62
200160,note_on,120,0,2,,,,,,,,,1,,,76,0
200160,note_on,0,0,2,,,,,,,,,1,,,74,62
200160,note_on,0,0,3,,,,,,,,,2,,,66,75
200160,note_on,240,0,3,,,,,,,,,2,,,67,0
200160,set_tempo,4800,1,0,,,,,,750000,,,,,,,
200280,note_on,0,0,2,,,,,,,,,1,,,78,62
200280,note_on,120,0,2,,,,,,,,,1,,,74,0
200400,note_on,240,0,3,,,,,,,,,2,,,66,0
200400,note_on,0,0,3,,,,,,,,,2,,,57,75
200400,note_on,0,0,3,,,,,,,,,2,,,64,75
200400,note_on,120,0,2,,,,,,,,,1,,,78,0
200400,note_on,0,0,2,,,,,,,,,1,,,79,62
200520,note_on,0,0,2,,,,,,,,,1,,,73,62
200520,control_change,0,0,2,,,,,,,,,1,64,0,,
200520,note_on,120,0,2,,,,,,,,,1,,,79,0
200640,control_change,0,0,2,,,,,,,,,1,64,127,,
200640,note_on,120,0,2,,,,,,,,,1,,,73,0
200640,set_tempo,480,1,0,,,,,,600000,,,,,,,
200640,note_on,0,0,1,,,,,,,,,0,,,86,62
200640,control_change,6720,0,1,,,,,,,,,0,64,127,,
200640,note_on,0,0,2,,,,,,,,,1,,,74,62
200640,note_on,240,0,3,,,,,,,,,2,,,64,0
200640,note_on,0,0,3,,,,,,,,,2,,,57,0
200640,control_change,0,0,3,,,,,,,,,2,64,0,,
200640,note_on,0,0,3,,,,,,,,,2,,,54,75
200640,note_on,0,0,3,,,,,,,,,2,,,62,75
200760,note_on,0,0,2,,,,,,,,,1,,,76,62
200760,note_on,120,0,1,,,,,,,,,0,,,86,0
200760,note_on,120,0,2,,,,,,,,,1,,,74,0
200760,note_on,0,0,1,,,,,,,,,0,,,88,62
200880,note_on,0,0,2,,,,,,,,,1,,,72,62
200880,note_on,0,0,1,,,,,,,,,0,,,84,62
200880,note_on,0,0,3,,,,,,,,,2,,,66,75
200880,control_change,0,0,3,,,,,,,,,2,64,127,,
200880,note_on,0,0,3,,,,,,,,,2,,,54,0
200880,note_on,120,0,1,,,,,,,,,0,,,88,0
200880,note_on,240,0,3,,,,,,,,,2,,,62,0
200880,note_on,120,0,2,,,,,,,,,1,,,76,0
201000,control_change,0,0,2,,,,,,,,,1,64,0,,
201000,note_on,0,0,1,,,,,,,,,0,,,86,62
201000,control_change,0,0,1,,,,,,,,,0,64,0,,
201000,note_on,120,0,1,,,,,,,,,0,,,84,0
201000,note_on,120,0,2,,,,,,,,,1,,,72,0
201000,note_on,0,0,2,,,,,,,,,1,,,74,62
201120,note_on,120,0,2,,,,,,,,,1,,,74,0
201120,control_change,0,0,2,,,,,,,,,1,64,127,,
201120,note_on,0,0,2,,,,,,,,,1,,,71,62
201120,note_on,0,0,4,,,,,,,,,3,,,38,0
201120,note_on,0,0,4,,,,,,,,,3,,,31,62
201120,note_on,0,0,4,,,,,,,,,3,,,43,62
201120,note_on,240,0,3,,,,,,,,,2,,,66,0
201120,note_on,0,0,3,,,,,,,,,2,,,67,75
201120,note_on,1440,0,4,,,,,,,,,3,,,50,0
201120,note_on,0,0,1,,,,,,,,,0,,,83,62
201120,note_on,120,0,1,,,,,,,,,0,,,86,0
201120,control_change,0,0,1,,,,,,,,,0,64,127,,
201240,note_on,120,0,1,,,,,,,,,0,,,83,0
201240,note_on,0,0,1,,,,,,,,,0,,,84,62
201240,note_on,120,0,2,,,,,,,,,1,,,71,0
201240,note_on,0,0,2,,,,,,,,,1,,,72,62
201360,note_on,0,0,3,,,,,,,,,2,,,62,75
201360,note_on,120,0,2,,,,,,,,,1,,,72,0
201360,note_on,0,0,2,,,,,,,,,1,,,69,62
201360,note_on,240,0,3,,,,,,,,,2,,,67,0
201360,note_on,0,0,1,,,,,,,,,0,,,81,62
201360,note_on,120,0,1,,,,,,,,,0,,,84,0
201480,note_on,0,0,2,,,,,,,,,1,,,71,62
201480,note_on,120,0,2,,,,,,,,,1,,,69,0
201480,note_on,0,0,1,,,,,,,,,0,,,83,62
201480,note_on,120,0,1,,,,,,,,,0,,,81,0
201600,note_on,120,0,1,,,,,,,,,0,,,83,0
201600,note_on,240,0,3,,,,,,,,,2,,,62,0
201600,note_on,0,0,1,,,,,,,,,0,,,79,62
201600,note_on,0,0,3,,,,,,,,,2,,,59,75
201600,note_on,120,0,2,,,,,,,,,1,,,71,0
201600,note_on,0,0,2,,,,,,,,,1,,,67,62
201720,note_on,120,0,2,,,,,,,,,1,,,67,0
201720,note_on,0,0,2,,,,,,,,,1,,,71,62
201720,note_on,0,0,1,,,,,,,,,0,,,83,62
201720,note_on,120,0,1,,,,,,,,,0,,,79,0
201840,note_on,0,0,2,,,,,,,,,1,,,72,62
201840,note_on,120,0,2,,,,,,,,,1,,,71,0
201840,note_on,240,0,3,,,,,,,,,2,,,59,0
201840,note_on,0,0,3,,,,,,,,,2,,,65,75
201840,note_on,0,0,1,,,,,,,,,0,,,84,62
201840,note_on,120,0,1,,,,,,,,,0,,,83,0
201960,note_on,120,0,1,,,,,,,,,0,,,84,0
201960,note_on,0,0,1,,,,,,,,,0,,,86,62
201960,note_on,120,0,2,,,,,,,,,1,,,72,0
201960,note_on,0,0,2,,,,,,,,,1,,,74,62
202080,note_on,120,0,2,,,,,,,,,1,,,74,0
202080,note_on,0,0,2,,,,,,,,,1,,,76,62
202080,note_on,0,0,1,,,,,,,,,0,,,88,62
202080,note_on,120,0,1,,,,,,,,,0,,,86,0
202080,note_on,0,0,3,,,,,,,,,2,,,64,75
202080,note_on,240,0,3,,,,,,,,,2,,,65,0
202200,note_on,0,0,1,,,,,,,,,0,,,91,62
202200,note_on,120,0,1,,,,,,,,,0,,,88,0
202200,note_on,120,0,2,,,,,,,,,1,,,76,0
202200,note_on,0,0,2,,,,,,,,,1,,,79,62
202320,note_on,120,0,1,,,,,,,,,0,,,91,0
202320,note_on,240,0,3,,,,,,,,,2,,,64,0
202320,control_change,0,0,3,,,,,,,,,2,64,0,,
202320,note_on,0,0,3,,,,,,,,,2,,,60,75
202320,note_on,120,0,2,,,,,,,,,1,,,79,0
202320,note_on,0,0,2,,,,,,,,,1,,,78,62
202320,note_on,0,0,1,,,,,,,,,0,,,90,62
202440,note_on,0,0,1,,,,,,,,,0,,,88,62
202440,control_change,0,0,1,,,,,,,,,0,64,0,,
202440,note_on,120,0,2,,,,,,,,,1,,,78,0
202440,control_change,0,0,2,,,,,,,,,1,64,0,,
202440,note_on,0,0,2,,,,,,,,,1,,,76,62
202440,note_on,120,0,1,,,,,,,,,0,,,90,0
202560,note_on,0,0,3,,,,,,,,,2,,,59,75
202560,control_change,0,0,3,,,,,,,,,2,64,127,,
202560,note_on,240,0,3,,,,,,,,,2,,,60,0
202560,control_change,0,0,2,,,,,,,,,1,64,127,,
202560,note_on,0,0,1,,,,,,,,,0,,,86,62
202560,note_on,0,0,2,,,,,,,,,1,,,74,62
202560,note_on,0,0,4,,,,,,,,,3,,,43,62
202560,note_on,0,0,4,,,,,,,,,3,,,31,62
202560,note_on,0,0,4,,,,,,,,,3,,,31,0
202560,note_on,1440,0,4,,,,,,,,,3,,,43,0
202560,note_on,120,0,1,,,,,,,,,0,,,88,0
202560,control_change,0,0,1,,,,,,,,,0,64,127,,
202560,note_on,120,0,2,,,,,,,,,1,,,76,0
202680,note_on,120,0,2,,,,,,,,,1,,,74,0
202680,note_on,0,0,2,,,,,,,,,1,,,83,62
202680,note_on,120,0,1,,,,,,,,,0,,,86,0
202680,note_on,0,0,1,,,,,,,,,0,,,95,62
202800,note_on,240,0,3,,,,,,,,,2,,,59,0
202800,note_on,120,0,2,,,,,,,,,1,,,83,0
202800,note_on,120,0,1,,,,,,,,,0,,,95,0
202800,note_on,0,0,1,,,,,,,,,0,,,93,62
202800,note_on,0,0,3,,,,,,,,,2,,,60,75
202800,note_on,0,0,2,,,,,,,,,1,,,81,62
202920,note_on,0,0,1,,,,,,,,,0,,,91,62
202920,note_on,0,0,2,,,,,,,,,1,,,79,62
202920,note_on,120,0,2,,,,,,,,,1,,,81,0
202920,note_on,120,0,1,,,,,,,,,0,,,93,0
202920,note_on,120,0,3,,,,,,,,,2,,,60,0
202920,note_on,0,0,3,,,,,,,,,2,,,59,75
203040,note_on,120,0,2,,,,,,,,,1,,,79,0
203040,note_on,0,0,2,,,,,,,,,1,,,78,62
203040,note_on,0,0,1,,,,,,,,,0,,,90,62
203040,note_on,120,0,1,,,,,,,,,0,,,91,0
203040,note_on,120,0,3,,,,,,,,,2,,,59,0
203040,note_on,0,0,3,,,,,,,,,2,,,57,75
203160,note_on,120,0,2,,,,,,,,,1,,,78,0
203160,note_on,0,0,1,,,,,,,,,0,,,91,62
203160,note_on,120,0,1,,,,,,,,,0,,,90,0
203160,note_on,0,0,2,,,,,,,,,1,,,79,62
203280,note_on,0,0,2,,,,,,,,,1,,,81,62
203280,note_on,240,0,3,,,,,,,,,2,,,57,0
203280,note_on,0,0,3,,,,,,,,,2,,,59,75
203280,note_on,120,0,2,,,,,,,,,1,,,79,0
203280,note_on,120,0,1,,,,,,,,,0,,,91,0
203280,note_on,0,0,1,,,,,,,,,0,,,93,62
203400,note_on,0,0,1,,,,,,,,,0,,,91,62
203400,note_on,120,0,1,,,,,,,,,0,,,93,0
203400,note_on,0,0,2,,,,,,,,,1,,,79,62
203400,note_on,120,0,2,,,,,,,,,1,,,81,0
203520,note_on,0,0,2,,,,,,,,,1,,,78,62
203520,note_on,0,0,1,,,,,,,,,0,,,90,62
203520,note_on,240,0,3,,,,,,,,,2,,,59,0
203520,note_on,0,0,3,,,,,,,,,2,,,60,75
203520,note_on,120,0,2,,,,,,,,,1,,,79,0
203520,note_on,120,0,1,,,,,,,,,0,,,91,0
203640,note_on,120,0,2,,,,,,,,,1,,,78,0
203640,note_on,0,0,2,,,,,,,,,1,,,76,62
203640,note_on,120,0,1,,,,,,,,,0,,,90,0
203640,note_on,0,0,1,,,,,,,,,0,,,88,62
203760,note_on,0,0,1,,,,,,,,,0,,,91,62
203760,note_on,240,0,3,,,,,,,,,2,,,60,0
203760,control_change,0,0,3,,,,,,,,,2,64,0,,
203760,note_on,120,0,1,,,,,,,,,0,,,88,0
203760,note_on,0,0,3,,,,,,,,,2,,,64,75
203760,note_on,120,0,2,,,,,,,,,1,,,76,0
203760,note_on,0,0,2,,,,,,,,,1,,,79,62
203880,note_on,0,0,1,,,,,,,,,0,,,88,62
203880,control_change,0,0,1,,,,,,,,,0,64,0,,
203880,note_on,120,0,1,,,,,,,,,0,,,91,0
203880,note_on,120,0,2,,,,,,,,,1,,,79,0
203880,control_change,0,0,2,,,,,,,,,1,64,0,,
203880,note_on,0,0,2,,,,,,,,,1,,,76,62
204000,note_on,120,0,2,,,,,,,,,1,,,76,0
204000,control_change,0,0,2,,,,,,,,,1,64,127,,
204000,note_on,0,0,2,,,,,,,,,1,,,74,62
204000,note_on,120,0,1,,,,,,,,,0,,,88,0
204000,note_on,240,0,3,,,,,,,,,2,,,64,0
204000,control_change,0,0,3,,,,,,,,,2,64,127,,
204000,note_on,0,0,3,,,,,,,,,2,,,66,75
204000,note_on,0,0,1,,,,,,,,,0,,,86,62
204000,control_change,0,0,1,,,,,,,,,0,64,127,,
204120,note_on,0,0,2,,,,,,,,,1,,,76,62
204120,note_on,120,0,1,,,,,,,,,0,,,86,0
204120,note_on,0,0,1,,,,,,,,,0,,,88,62
204120,note_on,120,0,2,,,,,,,,,1,,,74,0
204240,note_on,120,0,1,,,,,,,,,0,,,88,0
204240,note_on,120,0,2,,,,,,,,,1,,,76,0
204240,note_on,0,0,2,,,,,,,,,1,,,72,62
204240,note_on,0,0,1,,,,,,,,,0,,,84,62
204240,note_on,240,0,3,,,,,,,,,2,,,66,0
204240,note_on,0,0,3,,,,,,,,,2,,,62,75
204360,note_on,0,0,1,,,,,,,,,0,,,86,62
204360,note_on,120,0,2,,,,,,,,,1,,,72,0
204360,note_on,0,0,2,,,,,,,,,1,,,74,62
204360,note_on,120,0,1,,,,,,,,,0,,,84,0
204480,note_on,120,0,2,,,,,,,,,1,,,74,0
204480,note_on,0,0,1,,,,,,,,,0,,,83,62
204480,note_on,0,0,2,,,,,,,,,1,,,71,62
204480,note_on,240,0,3,,,,,,,,,2,,,62,0
204480,note_on,0,0,3,,,,,,,,,2,,,67,75
204480,note_on,120,0,1,,,,,,,,,0,,,86,0
204600,note_on,120,0,1,,,,,,,,,0,,,83,0
204600,note_on,0,0,1,,,,,,,,,0,,,91,62
204600,note_on,0,0,2,,,,,,,,,1,,,79,62
204600,note_on,120,0,2,,,,,,,,,1,,,71,0
204720,note_on,120,0,1,,,,,,,,,0,,,91,0
204720,note_on,0,0,1,,,,,,,,,0,,,90,62
204720,note_on,0,0,3,,,,,,,,,2,,,59,75
204720,note_on,240,0,3,,,,,,,,,2,,,67,0
204720,note_on,120,0,2,,,,,,,,,1,,,79,0
204720,note_on,0,0,2,,,,,,,,,1,,,78,62
204840,note_on,0,0,2,,,,,,,,,1,,,76,62
204840,note_on,0,0,1,,,,,,,,,0,,,88,62
204840,note_on,120,0,1,,,,,,,,,0,,,90,0
204840,note_on,120,0,2,,,,,,,,,1,,,78,0
204960,note_on,120,0,2,,,,,,,,,1,,,76,0
204960,note_on,0,0,3,,,,,,,,,2,,,60,75
204960,note_on,240,0,3,,,,,,,,,2,,,59,0
204960,note_on,0,0,4,,,,,,,,,3,,,31,0
204960,note_on,0,0,2,,,,,,,,,1,,,75,62
204960,note_on,0,0,4,,,,,,,,,3,,,48,62
204960,note_on,120,0,1,,,,,,,,,0,,,88,0
204960,note_on,0,0,1,,,,,,,,,0,,,87,62
204960,note_on,2400,0,4,,,,,,,,,3,,,43,0
205080,note_on,120,0,2,,,,,,,,,1,,,75,0
205080,note_on,120,0,1,,,,,,,,,0,,,87,0
205080,note_on,0,0,1,,,,,,,,,0,,,88,62
205080,note_on,0,0,2,,,,,,,,,1,,,76,62
205200,note_on,120,0,2,,,,,,,,,1,,,76,0
205200,note_on,0,0,2,,,,,,,,,1,,,72,62
205200,note_on,0,0,3,,,,,,,,,2,,,64,75
205200,note_on,240,0,3,,,,,,,,,2,,,60,0
205200,note_on,0,0,1,,,,,,,,,0,,,84,62
205200,note_on,120,0,1,,,,,,,,,0,,,88,0
205200,control_change,0,0,3,,,,,,,,,2,64,0,,
205320,note_on,120,0,1,,,,,,,,,0,,,84,0
205320,note_on,0,0,1,,,,,,,,,0,,,81,62
205320,note_on,0,0,2,,,,,,,,,1,,,69,62
205320,control_change,0,0,2,,,,,,,,,1,64,0,,
205320,note_on,120,0,2,,,,,,,,,1,,,72,0
205320,control_change,0,0,1,,,,,,,,,0,64,0,,
205440,note_on,120,0,1,,,,,,,,,0,,,81,0
205440,note_on,240,0,3,,,,,,,,,2,,,64,0
205440,control_change,0,0,3,,,,,,,,,2,64,127,,
205440,note_on,0,0,3,,,,,,,,,2,,,60,75
205440,control_change,0,0,1,,,,,,,,,0,64,127,,
205440,note_on,480,0,4,,,,,,,,,3,,,48,0
205440,note_on,0,0,1,,,,,,,,,0,,,78,62
205440,note_on,0,0,4,,,,,,,,,3,,,51,62
205440,note_on,120,0,2,,,,,,,,,1,,,69,0
205440,note_on,0,0,2,,,,,,,,,1,,,66,62
205440,control_change,0,0,2,,,,,,,,,1,64,127,,
205560,note_on,120,0,1,,,,,,,,,0,,,78,0
205560,note_on,0,0,1,,,,,,,,,0,,,81,62
205560,note_on,0,0,2,,,,,,,,,1,,,69,62
205560,note_on,120,0,2,,,,,,,,,1,,,66,0
205680,note_on,240,0,4,,,,,,,,,3,,,51,0
205680,note_on,240,0,3,,,,,,,,,2,,,60,0
205680,note_on,0,0,3,,,,,,,,,2,,,59,75
205680,note_on,0,0,4,,,,,,,,,3,,,52,62
205680,note_on,0,0,2,,,,,,,,,1,,,67,62
205680,note_on,120,0,2,,,,,,,,,1,,,69,0
205680,note_on,0,0,1,,,,,,,,,0,,,79,62
205680,note_on,120,0,1,,,,,,,,,0,,,81,0
205800,note_on,120,0,1,,,,,,,,,0,,,79,0
205800,note_on,0,0,1,,,,,,,,,0,,,91,62
205800,note_on,120,0,2,,,,,,,,,1,,,67,0
205800,note_on,0,0,2,,,,,,,,,1,,,79,62
205920,note_on,120,0,1,,,,,,,,,0,,,91,0
205920,note_on,0,0,1,,,,,,,,,0,,,88,62
205920,note_on,240,0,3,,,,,,,,,2,,,59,0
205920,note_on,0,0,3,,,,,,,,,2,,,57,75
205920,note_on,0,0,2,,,,,,,,,1,,,76,62
205920,note_on,120,0,2,,,,,,,,,1,,,79,0
205920,note_on,0,0,4,,,,,,,,,3,,,48,62
205920,note_on,240,0,4,,,,,,,,,3,,,52,0
206040,note_on,120,0,1,,,,,,,,,0,,,88,0
206040,note_on,0,0,1,,,,,,,,,0,,,84,62
206040,note_on,0,0,2,,,,,,,,,1,,,72,62
206040,note_on,120,0,2,,,,,,,,,1,,,76,0
206160,note_on,240,0,4,,,,,,,,,3,,,48,0
206160,control_change,0,0,3,,,,,,,,,2,64,0,,
206160,note_on,0,0,4,,,,,,,,,3,,,50,62
206160,note_on,0,0,3,,,,,,,,,2,,,60,75
206160,note_on,240,0,3,,,,,,,,,2,,,57,0
206160,note_on,0,0,2,,,,,,,,,1,,,69,62
206160,note_on,0,0,1,,,,,,,,,0,,,81,62
206160,note_on,120,0,1,,,,,,,,,0,,,84,0
206160,note_on,120,0,2,,,,,,,,,1,,,72,0
206280,note_on,0,0,1,,,,,,,,,0,,,86,62
206280,note_on,120,0,1,,,,,,,,,0,,,81,0
206280,note_on,120,0,2,,,,,,,,,1,,,69,0
206280,note_on,0,0,2,,,,,,,,,1,,,74,62
206400,note_on,240,0,3,,,,,,,,,2,,,60,0
206400,note_on,120,0,1,,,,,,,,,0,,,86,0
206400,control_change,0,0,1,,,,,,,,,0,64,0,,
206400,note_on,0,0,1,,,,,,,,,0,,,79,62
206400,control_change,0,0,2,,,,,,,,,1,64,0,,
206400,note_on,240,0,4,,,,,,,,,3,,,50,0
206400,note_on,0,0,4,,,,,,,,,3,,,43,62
206400,note_on,120,0,2,,,,,,,,,1,,,74,0
206400,note_on,0,0,2,,,,,,,,,1,,,67,62
206400,note_on,0,0,3,,,,,,,,,2,,,59,75
206415,note_on,15,0,4,,,,,,,,,3,,,43,0
206415,note_on,15,0,3,,,,,,,,,2,,,59,0
206520,note_on,105,0,3,,,,,,,,,2,,,47,75
206520,note_on,105,0,4,,,,,,,,,3,,,35,62
206640,note_on,240,0,1,,,,,,,,,0,,,79,0
206640,note_on,0,0,3,,,,,,,,,2,,,48,75
206640,note_on,120,0,4,,,,,,,,,3,,,35,0
206640,note_on,240,0,2,,,,,,,,,1,,,67,0
206640,note_on,0,0,4,,,,,,,,,3,,,36,62
206640,note_on,120,0,3,,,,,,,,,2,,,47,0
206760,note_on,0,0,3,,,,,,,,,2,,,49,75
206760,note_on,0,0,4,,,,,,,,,3,,,37,62
206760,note_on,120,0,4,,,,,,,,,3,,,36,0
206760,note_on,120,0,3,,,,,,,,,2,,,48,0
206880,note_on,0,0,3,,,,,,,,,2,,,50,75
206880,note_on,120,0,3,,,,,,,,,2,,,49,0
206880,control_change,0,0,3,,,,,,,,,2,64,127,,
206880,note_on,240,0,2,,,,,,,,,1,,,66,88
206880,note_on,0,0,1,,,,,,,,,0,,,81,88
206880,note_on,0,0,1,,,,,,,,,0,,,86,88
206880,note_on,0,0,2,,,,,,,,,1,,,74,88
206880,note_on,0,0,2,,,,,,,,,1,,,69,88
206880,note_on,120,0,4,,,,,,,,,3,,,37,0
206880,control_change,0,0,4,,,,,,,,,3,64,127,,
206880,note_on,0,0,4,,,,,,,,,3,,,38,62
206880,note_on,240,0,1,,,,,,,,,0,,,78,88
207000,note_on,120,0,3,,,,,,,,,2,,,50,0
207000,note_on,0,0,3,,,,,,,,,2,,,51,75
207000,note_on,120,0,4,,,,,,,,,3,,,38,0
207000,note_on,0,0,4,,,,,,,,,3,,,39,62
207120,note_on,0,0,3,,,,,,,,,2,,,52,75
207120,note_on,120,0,3,,,,,,,,,2,,,51,0
207120,note_on,0,0,4,,,,,,,,,3,,,40,62
207120,note_on,120,0,4,,,,,,,,,3,,,39,0
207240,note_on,120,0,3,,,,,,,,,2,,,52,0
207240,note_on,120,0,4,,,,,,,,,3,,,40,0
207240,note_on,0,0,4,,,,,,,,,3,,,41,62
207240,note_on,0,0,3,,,,,,,,,2,,,53,75
207360,note_on,0,0,3,,,,,,,,,2,,,54,62
207360,note_on,120,0,3,,,,,,,,,2,,,53,0
207360,note_on,120,0,4,,,,,,,,,3,,,41,0
207360,note_on,0,0,4,,,,,,,,,3,,,42,62
207480,note_on,0,0,4,,,,,,,,,3,,,45,62
207480,note_on,0,0,3,,,,,,,,,2,,,57,62
207480,note_on,120,0,3,,,,,,,,,2,,,54,0
207480,note_on,120,0,4,,,,,,,,,3,,,42,0
207600,note_on,0,0,1,,,,,,,,,0,,,83,62
207600,note_on,0,0,1,,,,,,,,,0,,,78,0
207600,note_on,0,0,1,,,,,,,,,0,,,81,0
207600,note_on,720,0,2,,,,,,,,,1,,,74,0
207600,note_on,0,0,2,,,,,,,,,1,,,69,0
207600,note_on,0,0,2,,,,,,,,,1,,,66,0
207600,control_change,0,0,2,,,,,,,,,1,64,127,,
207600,note_on,0,0,3,,,,,,,,,2,,,55,62
207600,note_on,120,0,4,,,,,,,,,3,,,45,0
207600,note_on,120,0,3,,,,,,,,,2,,,57,0
207600,note_on,0,0,1,,,,,,,,,0,,,86,62
207600,note_on,0,0,2,,,,,,,,,1,,,71,62
207600,note_on,0,0,2,,,,,,,,,1,,,74,62
207600,note_on,720,0,1,,,,,,,,,0,,,86,0
207600,note_on,0,0,4,,,,,,,,,3,,,43,62
207600,control_change,0,0,1,,,,,,,,,0,64,127,,
207720,note_on,120,0,4,,,,,,,,,3,,,43,0
207720,note_on,0,0,4,,,,,,,,,3,,,47,62
207720,note_on,0,0,3,,,,,,,,,2,,,59,62
207720,note_on,120,0,3,,,,,,,,,2,,,55,0
207840,note_on,0,0,1,,,,,,,,,0,,,83,0
207840,note_on,0,0,1,,,,,,,,,0,,,81,62
207840,note_on,0,0,1,,,,,,,,,0,,,84,62
207840,note_on,0,0,1,,,,,,,,,0,,,86,62
207840,note_on,0,0,4,,,,,,,,,3,,,45,62
207840,note_on,120,0,4,,,,,,,,,3,,,47,0
207840,note_on,0,0,2,,,,,,,,,1,,,72,62
207840,note_on,240,0,2,,,,,,,,,1,,,74,0
207840,note_on,0,0,2,,,,,,,,,1,,,69,62
207840,note_on,240,0,1,,,,,,,,,0,,,86,0
207840,note_on,0,0,2,,,,,,,,,1,,,74,62
207840,note_on,0,0,2,,,,,,,,,1,,,71,0
207840,note_on,120,0,3,,,,,,,,,2,,,59,0
207840,note_on,0,0,3,,,,,,,,,2,,,57,62
207960,note_on,120,0,3,,,,,,,,,2,,,57,0
207960,note_on,0,0,3,,,,,,,,,2,,,60,62
207960,note_on,0,0,4,,,,,,,,,3,,,48,62
207960,note_on,120,0,4,,,,,,,,,3,,,45,0
208080,note_on,120,0,3,,,,,,,,,2,,,60,0
208080,note_on,0,0,3,,,,,,,,,2,,,59,62
208080,note_on,240,0,1,,,,,,,,,0,,,86,0
208080,note_on,0,0,1,,,,,,,,,0,,,84,0
208080,note_on,240,0,2,,,,,,,,,1,,,74,0
208080,note_on,0,0,1,,,,,,,,,0,,,86,62
208080,control_change,0,0,1,,,,,,,,,0,64,0,,
208080,note_on,120,0,4,,,,,,,,,3,,,48,0
208080,note_on,0,0,4,,,,,,,,,3,,,47,62
208080,note_on,0,0,2,,,,,,,,,1,,,72,0
208080,note_on,0,0,1,,,,,,,,,0,,,79,62
208080,note_on,0,0,1,,,,,,,,,0,,,83,62
208080,note_on,0,0,1,,,,,,,,,0,,,81,0
208080,control_change,0,0,2,,,,,,,,,1,64,0,,
208080,note_on,0,0,2,,,,,,,,,1,,,74,62
208080,note_on,0,0,2,,,,,,,,,1,,,71,62
208080,note_on,0,0,2,,,,,,,,,1,,,67,62
208080,note_on,0,0,2,,,,,,,,,1,,,69,0
208200,control_change,0,0,3,,,,,,,,,2,64,0,,
208200,note_on,120,0,3,,,,,,,,,2,,,59,0
208200,note_on,120,0,4,,,,,,,,,3,,,47,0
208200,note_on,0,0,3,,,,,,,,,2,,,62,62
208200,control_change,0,0,4,,,,,,,,,3,64,0,,
208200,note_on,0,0,4,,,,,,,,,3,,,50,62
208320,note_on,0,0,1,,,,,,,,,0,,,78,62
208320,note_on,0,0,2,,,,,,,,,1,,,71,0
208320,note_on,0,0,2,,,,,,,,,1,,,67,0
208320,note_on,0,0,2,,,,,,,,,1,,,74,62
208320,note_on,0,0,2,,,,,,,,,1,,,69,62
208320,note_on,240,0,1,,,,,,,,,0,,,86,0
208320,note_on,0,0,1,,,,,,,,,0,,,83,0
208320,note_on,0,0,1,,,,,,,,,0,,,79,0
208320,note_on,240,0,2,,,,,,,,,1,,,74,0
208320,note_on,0,0,1,,,,,,,,,0,,,81,62
208320,note_on,0,0,1,,,,,,,,,0,,,86,62
208320,note_on,0,0,3,,,,,,,,,2,,,60,62
208320,control_change,0,0,3,,,,,,,,,2,64,127,,
208320,note_on,120,0,3,,,,,,,,,2,,,62,0
208320,note_on,120,0,4,,,,,,,,,3,,,50,0
208320,control_change,0,0,4,,,,,,,,,3,64,127,,
208320,note_on,0,0,4,,,,,,,,,3,,,48,62
208320,note_on,0,0,2,,,,,,,,,1,,,66,62
208440,note_on,120,0,3,,,,,,,,,2,,,60,0
208440,note_on,0,0,4,,,,,,,,,3,,,47,62
208440,note_on,120,0,4,,,,,,,,,3,,,48,0
208440,note_on,0,0,3,,,,,,,,,2,,,59,62
208560,note_on,0,0,4,,,,,,,,,3,,,48,62
208560,note_on,120,0,4,,,,,,,,,3,,,47,0
208560,note_on,0,0,3,,,,,,,,,2,,,60,62
208560,note_on,120,0,3,,,,,,,,,2,,,59,0
208680,note_on,120,0,4,,,,,,,,,3,,,48,0
208680,note_on,0,0,3,,,,,,,,,2,,,48,62
208680,note_on,120,0,3,,,,,,,,,2,,,60,0
208680,note_on,0,0,4,,,,,,,,,3,,,36,62
208800,note_on,120,0,4,,,,,,,,,3,,,36,0
208800,control_change,0,0,4,,,,,,,,,3,64,0,,
208800,note_on,0,0,4,,,,,,,,,3,,,48,62
208800,note_on,0,0,3,,,,,,,,,2,,,60,62
208800,note_on,120,0,3,,,,,,,,,2,,,48,0
208800,control_change,0,0,3,,,,,,,,,2,64,0,,
209040,note_on,0,0,1,,,,,,,,,0,,,78,0
209040,note_on,0,0,1,,,,,,,,,0,,,78,62
209040,note_on,720,0,1,,,,,,,,,0,,,86,0
209040,note_on,0,0,1,,,,,,,,,0,,,86,62
209040,control_change,0,0,1,,,,,,,,,0,64,127,,
209040,note_on,0,0,2,,,,,,,,,1,,,69,62
209040,note_on,0,0,2,,,,,,,,,1,,,74,62
209040,note_on,720,0,2,,,,,,,,,1,,,74,0
209040,note_on,0,0,2,,,,,,,,,1,,,69,0
209040,note_on,0,0,2,,,,,,,,,1,,,66,0
209040,control_change,0,0,2,,,,,,,,,1,64,127,,
209040,note_on,0,0,2,,,,,,,,,1,,,66,62
209040,note_on,0,0,1,,,,,,,,,0,,,81,0
209040,note_on,0,0,1,,,,,,,,,0,,,81,62
209280,note_on,0,0,2,,,,,,,,,1,,,69,0
209280,note_on,0,0,2,,,,,,,,,1,,,69,62
209280,note_on,0,0,2,,,,,,,,,1,,,66,62
209280,note_on,0,0,2,,,,,,,,,1,,,66,0
209280,note_on,0,0,2,,,,,,,,,1,,,74,62
209280,note_on,0,0,1,,,,,,,,,0,,,86,62
209280,note_on,0,0,1,,,,,,,,,0,,,81,62
209280,note_on,240,0,2,,,,,,,,,1,,,74,0
209280,note_on,240,0,1,,,,,,,,,0,,,86,0
209280,note_on,0,0,1,,,,,,,,,0,,,81,0
209280,note_on,0,0,1,,,,,,,,,0,,,78,0
209280,note_on,0,0,1,,,,,,,,,0,,,78,62
209520,note_on,0,0,2,,,,,,,,,1,,,66,0
209520,note_on,0,0,2,,,,,,,,,1,,,69,62
209520,note_on,240,0,1,,,,,,,,,0,,,86,0
209520,note_on,0,0,1,,,,,,,,,0,,,81,0
209520,note_on,0,0,1,,,,,,,,,0,,,86,62
209520,note_on,0,0,1,,,,,,,,,0,,,81,62
209520,note_on,0,0,1,,,,,,,,,0,,,78,62
209520,note_on,0,0,1,,,,,,,,,0,,,78,0
209520,note_on,720,0,4,,,,,,,,,3,,,48,0
209520,note_on,0,0,4,,,,,,,,,3,,,48,62
209520,control_change,0,0,1,,,,,,,,,0,64,0,,
209520,note_on,0,0,2,,,,,,,,,1,,,74,62
209520,note_on,0,0,2,,,,,,,,,1,,,66,62
209520,note_on,240,0,2,,,,,,,,,1,,,74,0
209520,note_on,0,0,2,,,,,,,,,1,,,69,0
209520,control_change,0,0,2,,,,,,,,,1,64,0,,
209520,note_on,720,0,3,,,,,,,,,2,,,60,0
209520,note_on,0,0,3,,,,,,,,,2,,,60,62
209760,note_on,0,0,1,,,,,,,,,0,,,78,0
209760,note_on,240,0,1,,,,,,,,,0,,,86,0
209760,note_on,0,0,1,,,,,,,,,0,,,81,62
209760,note_on,0,0,1,,,,,,,,,0,,,87,62
209760,note_on,0,0,2,,,,,,,,,1,,,75,62
209760,note_on,0,0,3,,,,,,,,,2,,,60,49
209760,control_change,0,0,3,,,,,,,,,2,64,127,,
209760,note_on,240,0,3,,,,,,,,,2,,,60,0
209760,note_on,0,0,1,,,,,,,,,0,,,81,0
209760,note_on,0,0,2,,,,,,,,,1,,,69,62
209760,note_on,0,0,1,,,,,,,,,0,,,78,62
209760,control_change,0,0,4,,,,,,,,,3,64,127,,
209760,note_on,0,0,2,,,,,,,,,1,,,69,0
209760,note_on,0,0,2,,,,,,,,,1,,,66,0
209760,note_on,0,0,2,,,,,,,,,1,,,66,62
209760,note_on,240,0,4,,,,,,,,,3,,,48,0
209760,note_on,0,0,4,,,,,,,,,3,,,48,62
209760,note_on,240,0,2,,,,,,,,,1,,,74,0
209880,note_on,120,0,3,,,,,,,,,2,,,60,0
209880,note_on,0,0,3,,,,,,,,,2,,,59,49
209880,note_on,0,0,4,,,,,,,,,3,,,47,62
209880,note_on,120,0,4,,,,,,,,,3,,,48,0
210000,note_on,120,0,3,,,,,,,,,2,,,59,0
210000,note_on,0,0,3,,,,,,,,,2,,,60,49
210000,note_on,120,0,4,,,,,,,,,3,,,47,0
210000,note_on,0,0,4,,,,,,,,,3,,,48,62
210120,note_on,0,0,4,,,,,,,,,3,,,36,62
210120,note_on,0,0,3,,,,,,,,,2,,,48,49
210120,note_on,120,0,3,,,,,,,,,2,,,60,0
210120,note_on,120,0,4,,,,,,,,,3,,,48,0
210240,note_on,0,0,3,,,,,,,,,2,,,60,49
210240,note_on,120,0,3,,,,,,,,,2,,,48,0
210240,control_change,0,0,3,,,,,,,,,2,64,0,,
210240,control_change,0,0,4,,,,,,,,,3,64,0,,
210240,note_on,120,0,4,,,,,,,,,3,,,36,0
210240,note_on,0,0,4,,,,,,,,,3,,,48,62
210480,note_on,0,0,2,,,,,,,,,1,,,75,62
210480,note_on,720,0,2,,,,,,,,,1,,,75,0
210480,note_on,0,0,2,,,,,,,,,1,,,69,0
210480,control_change,0,0,2,,,,,,,,,1,64,127,,
210480,note_on,0,0,2,,,,,,,,,1,,,66,62
210480,control_change,0,0,1,,,,,,,,,0,64,127,,
210480,note_on,0,0,2,,,,,,,,,1,,,66,0
210480,note_on,0,0,1,,,,,,,,,0,,,87,62
210480,note_on,0,0,1,,,,,,,,,0,,,81,62
210480,note_on,0,0,1,,,,,,,,,0,,,78,62
210480,note_on,0,0,2,,,,,,,,,1,,,69,62
210480,note_on,0,0,1,,,,,,,,,0,,,78,0
210480,note_on,0,0,1,,,,,,,,,0,,,81,0
210480,note_on,720,0,1,,,,,,,,,0,,,87,0
210720,note_on,240,0,1,,,,,,,,,0,,,87,0
210720,note_on,0,0,2,,,,,,,,,1,,,66,62
210720,note_on,0,0,2,,,,,,,,,1,,,66,0
210720,note_on,0,0,2,,,,,,,,,1,,,69,0
210720,note_on,240,0,2,,,,,,,,,1,,,75,0
210720,note_on,0,0,2,,,,,,,,,1,,,75,62
210720,note_on,0,0,1,,,,,,,,,0,,,87,62
210720,note_on,0,0,1,,,,,,,,,0,,,81,62
210720,note_on,0,0,1,,,,,,,,,0,,,78,62
210720,note_on,0,0,1,,,,,,,,,0,,,78,0
210720,note_on,0,0,1,,,,,,,,,0,,,81,0
210720,note_on,0,0,2,,,,,,,,,1,,,69,62
210960,note_on,0,0,3,,,,,,,,,2,,,60,49
210960,note_on,0,0,2,,,,,,,,,1,,,75,62
210960,note_on,0,0,2,,,,,,,,,1,,,69,62
210960,note_on,0,0,2,,,,,,,,,1,,,66,62
210960,control_change,0,0,2,,,,,,,,,1,64,0,,
210960,note_on,0,0,2,,,,,,,,,1,,,66,0
210960,note_on,0,0,2,,,,,,,,,1,,,69,0
210960,note_on,720,0,3,,,,,,,,,2,,,60,0
210960,note_on,240,0,1,,,,,,,,,0,,,87,0
210960,note_on,720,0,4,,,,,,,,,3,,,48,0
210960,note_on,0,0,4,,,,,,,,,3,,,48,62
210960,note_on,0,0,1,,,,,,,,,0,,,81,0
210960,note_on,0,0,1,,,,,,,,,0,,,78,0
210960,note_on,0,0,1,,,,,,,,,0,,,78,62
210960,note_on,0,0,1,,,,,,,,,0,,,81,62
210960,note_on,0,0,1,,,,,,,,,0,,,87,62
210960,control_change,0,0,1,,,,,,,,,0,64,0,,
210960,note_on,240,0,2,,,,,,,,,1,,,75,0
211200,note_on,240,0,1,,,,,,,,,0,,,87,0
211200,note_on,240,0,4,,,,,,,,,3,,,48,0
211200,note_on,0,0,4,,,,,,,,,3,,,48,62
211200,note_on,0,0,1,,,,,,,,,0,,,81,0
211200,note_on,240,0,3,,,,,,,,,2,,,60,0
211200,note_on,0,0,2,,,,,,,,,1,,,66,0
211200,note_on,0,0,2,,,,,,,,,1,,,69,0
211200,note_on,240,0,2,,,,,,,,,1,,,75,0
211200,control_change,0,0,2,,,,,,,,,1,64,127,,
211200,note_on,0,0,2,,,,,,,,,1,,,64,62
211200,note_on,0,0,2,,,,,,,,,1,,,76,62
211200,note_on,0,0,1,,,,,,,,,0,,,78,0
211200,note_on,0,0,3,,,,,,,,,2,,,60,49
211200,control_change,0,0,1,,,,,,,,,0,64,127,,
211200,note_on,0,0,1,,,,,,,,,0,,,88,62
211200,note_on,0,0,1,,,,,,,,,0,,,76,62
211440,note_on,240,0,3,,,,,,,,,2,,,60,0
211440,note_on,240,0,1,,,,,,,,,0,,,76,0
211440,note_on,240,0,2,,,,,,,,,1,,,64,0
211440,note_on,0,0,4,,,,,,,,,3,,,49,75
211440,note_on,0,0,2,,,,,,,,,1,,,70,75
211440,note_on,0,0,3,,,,,,,,,2,,,61,62
211440,note_on,240,0,4,,,,,,,,,3,,,48,0
211440,note_on,0,0,1,,,,,,,,,0,,,82,75
211680,note_on,0,0,1,,,,,,,,,0,,,88,0
211680,note_on,0,0,3,,,,,,,,,2,,,62,75
211680,note_on,240,0,4,,,,,,,,,3,,,49,0
211680,note_on,0,0,4,,,,,,,,,3,,,50,88
211680,note_on,0,0,2,,,,,,,,,1,,,79,88
211680,note_on,0,0,2,,,,,,,,,1,,,69,88
211680,note_on,240,0,3,,,,,,,,,2,,,61,0
211680,note_on,240,0,2,,,,,,,,,1,,,70,0
211680,note_on,240,0,1,,,,,,,,,0,,,82,0
211680,note_on,0,0,1,,,,,,,,,0,,,81,88
211680,note_on,0,0,1,,,,,,,,,0,,,91,88
211680,note_on,0,0,2,,,,,,,,,1,,,76,0
211920,note_on,0,0,1,,,,,,,,,0,,,81,0
211920,note_on,0,0,1,,,,,,,,,0,,,89,75
211920,control_change,0,0,1,,,,,,,,,0,64,0,,
211920,note_on,240,0,2,,,,,,,,,1,,,79,0
211920,note_on,0,0,2,,,,,,,,,1,,,69,0
211920,note_on,240,0,1,,,,,,,,,0,,,91,0
211920,control_change,0,0,2,,,,,,,,,1,64,0,,
211920,note_on,0,0,2,,,,,,,,,1,,,77,75
212040,note_on,120,0,1,,,,,,,,,0,,,89,0
212040,note_on,120,0,2,,,,,,,,,1,,,77,0
212160,control_change,120,0,1,,,,,,,,,0,64,127,,
212160,note_on,0,0,1,,,,,,,,,0,,,81,62
212160,control_change,120,0,2,,,,,,,,,1,64,127,,
212160,note_on,0,0,2,,,,,,,,,1,,,69,62
212280,note_on,0,0,2,,,,,,,,,1,,,71,62
212280,note_on,120,0,2,,,,,,,,,1,,,69,0
212280,note_on,120,0,1,,,,,,,,,0,,,81,0
212280,note_on,0,0,1,,,,,,,,,0,,,83,62
212400,note_on,0,0,2,,,,,,,,,1,,,72,62
212400,note_on,120,0,2,,,,,,,,,1,,,71,0
212400,note_on,720,0,3,,,,,,,,,2,,,62,0
212400,note_on,0,0,1,,,,,,,,,0,,,84,62
212400,note_on,0,0,4,,,,,,,,,3,,,41,62
212400,note_on,720,0,4,,,,,,,,,3,,,50,0
212400,note_on,120,0,1,,,,,,,,,0,,,83,0
212400,note_on,0,0,3,,,,,,,,,2,,,62,49
212400,note_on,0,0,3,,,,,,,,,2,,,53,49
212400,note_on,0,0,3,,,,,,,,,2,,,57,49
212520,note_on,120,0,2,,,,,,,,,1,,,72,0
212520,note_on,120,0,1,,,,,,,,,0,,,84,0
212520,control_change,0,0,1,,,,,,,,,0,64,0,,
212520,note_on,0,0,1,,,,,,,,,0,,,86,62
212520,control_change,0,0,2,,,,,,,,,1,64,0,,
212520,note_on,0,0,2,,,,,,,,,1,,,74,62
212640,note_on,240,0,3,,,,,,,,,2,,,62,0
212640,note_on,0,0,3,,,,,,,,,2,,,57,0
212640,note_on,0,0,3,,,,,,,,,2,,,53,0
212640,note_on,240,0,4,,,,,,,,,3,,,41,0
212640,note_on,0,0,3,,,,,,,,,2,,,55,49
212640,note_on,0,0,3,,,,,,,,,2,,,60,49
212640,note_on,0,0,3,,,,,,,,,2,,,64,49
212640,note_on,0,0,2,,,,,,,,,1,,,74,62
212640,note_on,120,0,2,,,,,,,,,1,,,74,0
212640,note_on,0,0,4,,,,,,,,,3,,,43,62
212640,note_on,120,0,1,,,,,,,,,0,,,86,0
212640,note_on,0,0,1,,,,,,,,,0,,,86,62
212663,note_on,23,0,2,,,,,,,,,1,,,74,0
212663,note_on,23,0,1,,,,,,,,,0,,,86,0
212880,note_on,217,0,2,,,,,,,,,1,,,72,88
212880,note_on,217,0,1,,,,,,,,,0,,,84,88
213120,note_on,480,0,4,,,,,,,,,3,,,43,0
213120,note_on,480,0,3,,,,,,,,,2,,,64,0
213120,note_on,0,0,3,,,,,,,,,2,,,60,0
213120,note_on,0,0,3,,,,,,,,,2,,,55,0
213360,note_on,240,0,3,,,,,,,,,2,,,55,49
213360,note_on,240,0,4,,,,,,,,,3,,,43,62
213360,note_on,480,0,2,,,,,,,,,1,,,72,0
213360,note_on,0,0,3,,,,,,,,,2,,,60,49
213360,note_on,0,0,3,,,,,,,,,2,,,64,49
213360,note_on,480,0,1,,,,,,,,,0,,,84,0
213360,control_change,0,0,1,,,,,,,,,0,64,127,,
213360,note_on,0,0,2,,,,,,,,,1,,,72,62
213360,control_change,0,0,2,,,,,,,,,1,64,127,,
213360,note_on,0,0,1,,,,,,,,,0,,,84,62
213383,note_on,23,0,3,,,,,,,,,2,,,64,0
213383,note_on,0,0,3,,,,,,,,,2,,,60,0
213383,note_on,0,0,3,,,,,,,,,2,,,55,0
213383,note_on,23,0,4,,,,,,,,,3,,,43,0
213407,note_on,47,0,1,,,,,,,,,0,,,84,0
213407,note_on,0,0,1,,,,,,,,,0,,,86,62
213407,note_on,47,0,2,,,,,,,,,1,,,72,0
213407,note_on,0,0,2,,,,,,,,,1,,,74,62
213456,note_on,49,0,1,,,,,,,,,0,,,86,0
213456,note_on,0,0,2,,,,,,,,,1,,,72,62
213456,note_on,49,0,2,,,,,,,,,1,,,74,0
213456,note_on,0,0,1,,,,,,,,,0,,,84,62
213503,note_on,0,0,2,,,,,,,,,1,,,71,62
213503,note_on,47,0,2,,,,,,,,,1,,,72,0
213503,note_on,0,0,1,,,,,,,,,0,,,83,62
213503,note_on,47,0,1,,,,,,,,,0,,,84,0
213552,note_on,0,0,2,,,,,,,,,1,,,72,62
213552,note_on,49,0,2,,,,,,,,,1,,,71,0
213552,note_on,0,0,1,,,,,,,,,0,,,84,62
213552,note_on,49,0,1,,,,,,,,,0,,,83,0
213600,note_on,217,0,4,,,,,,,,,3,,,43,62
213600,note_on,48,0,2,,,,,,,,,1,,,72,0
213600,note_on,217,0,3,,,,,,,,,2,,,55,49
213600,note_on,0,0,3,,,,,,,,,2,,,59,49
213600,note_on,0,0,3,,,,,,,,,2,,,65,49
213600,note_on,0,0,1,,,,,,,,,0,,,88,62
213600,note_on,0,0,2,,,,,,,,,1,,,76,62
213600,note_on,48,0,1,,,,,,,,,0,,,84,0
213623,note_on,23,0,4,,,,,,,,,3,,,43,0
213623,note_on,23,0,3,,,,,,,,,2,,,65,0
213623,note_on,0,0,3,,,,,,,,,2,,,59,0
213623,note_on,0,0,3,,,,,,,,,2,,,55,0
213840,note_on,217,0,4,,,,,,,,,3,,,43,62
213840,note_on,0,0,3,,,,,,,,,2,,,59,49
213840,note_on,0,0,3,,,,,,,,,2,,,65,49
213840,note_on,217,0,3,,,,,,,,,2,,,55,49
213863,note_on,23,0,4,,,,,,,,,3,,,43,0
213863,note_on,0,0,3,,,,,,,,,2,,,55,0
213863,note_on,0,0,3,,,,,,,,,2,,,59,0
213863,note_on,23,0,3,,,,,,,,,2,,,65,0
213960,control_change,0,0,2,,,,,,,,,1,64,0,,
213960,note_on,0,0,2,,,,,,,,,1,,,74,62
213960,note_on,360,0,2,,,,,,,,,1,,,76,0
213960,note_on,360,0,1,,,,,,,,,0,,,88,0
213960,control_change,0,0,1,,,,,,,,,0,64,0,,
213960,note_on,0,0,1,,,,,,,,,0,,,86,62
214080,note_on,0,0,3,,,,,,,,,2,,,64,49
214080,note_on,0,0,3,,,,,,,,,2,,,60,49
214080,note_on,120,0,1,,,,,,,,,0,,,86,0
214080,note_on,0,0,1,,,,,,,,,0,,,84,62
214080,note_on,120,0,2,,,,,,,,,1,,,74,0
214080,note_on,0,0,2,,,,,,,,,1,,,72,62
214080,note_on,217,0,4,,,,,,,,,3,,,48,62
214080,note_on,217,0,3,,,,,,,,,2,,,55,49
214103,note_on,23,0,2,,,,,,,,,1,,,72,0
214103,note_on,23,0,1,,,,,,,,,0,,,84,0
214103,note_on,0,0,3,,,,,,,,,2,,,55,0
214103,note_on,23,0,3,,,,,,,,,2,,,64,0
214103,note_on,0,0,3,,,,,,,,,2,,,60,0
214320,note_on,217,0,2,,,,,,,,,1,,,76,88
214320,note_on,0,0,2,,,,,,,,,1,,,79,88
214320,note_on,240,0,4,,,,,,,,,3,,,48,0
214320,control_change,217,0,3,,,,,,,,,2,64,127,,
214320,note_on,0,0,3,,,,,,,,,2,,,49,75
214320,note_on,0,0,4,,,,,,,,,3,,,45,62
214320,note_on,0,0,1,,,,,,,,,0,,,91,88
214320,note_on,217,0,1,,,,,,,,,0,,,88,88
214320,note_on,0,0,4,,,,,,,,,3,,,33,62
214440,note_on,120,0,3,,,,,,,,,2,,,49,0
214440,note_on,0,0,3,,,,,,,,,2,,,50,75
214560,note_on,120,0,3,,,,,,,,,2,,,50,0
214560,note_on,0,0,3,,,,,,,,,2,,,51,75
214680,note_on,120,0,3,,,,,,,,,2,,,51,0
214680,note_on,0,0,3,,,,,,,,,2,,,52,75
214800,note_on,120,0,3,,,,,,,,,2,,,52,0
214800,note_on,0,0,3,,,,,,,,,2,,,53,62
214800,note_on,480,0,4,,,,,,,,,3,,,45,0
214800,note_on,0,0,2,,,,,,,,,1,,,76,62
214800,note_on,0,0,2,,,,,,,,,1,,,76,0
214800,note_on,0,0,1,,,,,,,,,0,,,88,62
214800,note_on,480,0,2,,,,,,,,,1,,,79,0
214800,note_on,0,0,1,,,,,,,,,0,,,85,62
214800,note_on,0,0,1,,,,,,,,,0,,,88,0
214800,note_on,480,0,1,,,,,,,,,0,,,91,0
214800,note_on,0,0,4,,,,,,,,,3,,,33,0
214800,note_on,0,0,4,,,,,,,,,3,,,46,62
214800,note_on,0,0,2,,,,,,,,,1,,,73,62
214823,note_on,23,0,1,,,,,,,,,0,,,88,0
214823,note_on,23,0,2,,,,,,,,,1,,,76,0
214823,note_on,23,0,4,,,,,,,,,3,,,46,0
214823,note_on,0,0,1,,,,,,,,,0,,,85,0
214823,note_on,0,0,2,,,,,,,,,1,,,73,0
214920,note_on,120,0,3,,,,,,,,,2,,,53,0
214920,note_on,0,0,3,,,,,,,,,2,,,54,62
215040,note_on,0,0,3,,,,,,,,,2,,,55,62
215040,note_on,0,0,2,,,,,,,,,1,,,73,62
215040,note_on,0,0,1,,,,,,,,,0,,,85,62
215040,note_on,217,0,4,,,,,,,,,3,,,45,62
215040,note_on,217,0,1,,,,,,,,,0,,,79,62
215040,note_on,120,0,3,,,,,,,,,2,,,54,0
215040,note_on,217,0,2,,,,,,,,,1,,,67,62
215063,note_on,0,0,1,,,,,,,,,0,,,79,0
215063,note_on,23,0,1,,,,,,,,,0,,,85,0
215063,note_on,0,0,2,,,,,,,,,1,,,67,0
215063,note_on,23,0,2,,,,,,,,,1,,,73,0
215063,note_on,23,0,4,,,,,,,,,3,,,45,0
215160,note_on,120,0,3,,,,,,,,,2,,,55,0
215160,note_on,0,0,3,,,,,,,,,2,,,57,62
215280,note_on,0,0,3,,,,,,,,,2,,,58,62
215280,note_on,0,0,1,,,,,,,,,0,,,79,62
215280,note_on,217,0,1,,,,,,,,,0,,,76,62
215280,note_on,120,0,3,,,,,,,,,2,,,57,0
215280,note_on,0,0,2,,,,,,,,,1,,,67,62
215280,note_on,217,0,2,,,,,,,,,1,,,64,62
215280,note_on,217,0,4,,,,,,,,,3,,,33,62
215303,note_on,23,0,4,,,,,,,,,3,,,33,0
215303,note_on,0,0,1,,,,,,,,,0,,,76,0
215303,note_on,23,0,1,,,,,,,,,0,,,79,0
215303,note_on,23,0,2,,,,,,,,,1,,,67,0
215303,note_on,0,0,2,,,,,,,,,1,,,64,0
215400,note_on,120,0,3,,,,,,,,,2,,,58,0
215400,control_change,0,0,3,,,,,,,,,2,64,0,,
215400,note_on,0,0,3,,,,,,,,,2,,,61,62
215520,note_on,0,0,1,,,,,,,,,0,,,77,62
215520,note_on,0,0,2,,,,,,,,,1,,,65,62
215520,note_on,217,0,2,,,,,,,,,1,,,62,62
215520,note_on,217,0,1,,,,,,,,,0,,,74,62
215520,note_on,0,0,3,,,,,,,,,2,,,62,62
215520,note_on,217,0,4,,,,,,,,,3,,,38,62
215520,note_on,120,0,3,,,,,,,,,2,,,61,0
215543,note_on,23,0,3,,,,,,,,,2,,,62,0
215543,note_on,23,0,2,,,,,,,,,1,,,65,0
215543,note_on,0,0,2,,,,,,,,,1,,,62,0
215543,note_on,23,0,4,,,,,,,,,3,,,38,0
215543,note_on,23,0,1,,,,,,,,,0,,,77,0
215543,note_on,0,0,1,,,,,,,,,0,,,74,0
215760,note_on,217,0,3,,,,,,,,,2,,,43,75
215760,note_on,0,0,1,,,,,,,,,0,,,89,88
215760,note_on,0,0,2,,,,,,,,,1,,,77,88
215760,note_on,217,0,4,,,,,,,,,3,,,31,62
215760,note_on,217,0,1,,,,,,,,,0,,,86,88
215760,note_on,217,0,2,,,,,,,,,1,,,74,88
215880,note_on,120,0,3,,,,,,,,,2,,,43,0
215880,note_on,0,0,3,,,,,,,,,2,,,45,75
216000,note_on,120,0,3,,,,,,,,,2,,,45,0
216000,note_on,0,0,3,,,,,,,,,2,,,47,75
216120,note_on,0,0,3,,,,,,,,,2,,,48,75
216120,note_on,120,0,3,,,,,,,,,2,,,47,0
216240,note_on,0,0,2,,,,,,,,,1,,,74,0
216240,note_on,120,0,3,,,,,,,,,2,,,48,0
216240,note_on,0,0,1,,,,,,,,,0,,,86,0
216240,note_on,0,0,3,,,,,,,,,2,,,50,62
216240,note_on,480,0,2,,,,,,,,,1,,,77,0
216240,note_on,0,0,2,,,,,,,,,1,,,71,62
216240,note_on,0,0,2,,,,,,,,,1,,,74,62
216240,note_on,0,0,4,,,,,,,,,3,,,44,62
216240,note_on,480,0,4,,,,,,,,,3,,,31,0
216240,note_on,480,0,1,,,,,,,,,0,,,89,0
216240,note_on,0,0,1,,,,,,,,,0,,,86,62
216240,note_on,0,0,1,,,,,,,,,0,,,83,62
216263,note_on,23,0,2,,,,,,,,,1,,,74,0
216263,note_on,23,0,1,,,,,,,,,0,,,86,0
216263,note_on,23,0,4,,,,,,,,,3,,,44,0
216263,note_on,0,0,1,,,,,,,,,0,,,83,0
216263,note_on,0,0,2,,,,,,,,,1,,,71,0
216360,note_on,0,0,3,,,,,,,,,2,,,52,62
216360,note_on,120,0,3,,,,,,,,,2,,,50,0
216480,note_on,120,0,3,,,,,,,,,2,,,52,0
216480,note_on,0,0,3,,,,,,,,,2,,,53,62
216480,note_on,217,0,2,,,,,,,,,1,,,65,62
216480,note_on,0,0,1,,,,,,,,,0,,,83,62
216480,note_on,0,0,2,,,,,,,,,1,,,71,62
216480,note_on,217,0,1,,,,,,,,,0,,,77,62
216480,note_on,217,0,4,,,,,,,,,3,,,43,62
216503,note_on,0,0,2,,,,,,,,,1,,,65,0
216503,note_on,23,0,4,,,,,,,,,3,,,43,0
216503,note_on,23,0,1,,,,,,,,,0,,,83,0
216503,note_on,23,0,2,,,,,,,,,1,,,71,0
216503,note_on,0,0,1,,,,,,,,,0,,,77,0
216600,note_on,0,0,3,,,,,,,,,2,,,55,62
216600,note_on,120,0,3,,,,,,,,,2,,,53,0
216720,note_on,0,0,3,,,,,,,,,2,,,57,62
216720,note_on,0,0,1,,,,,,,,,0,,,77,62
216720,note_on,217,0,1,,,,,,,,,0,,,74,62
216720,note_on,120,0,3,,,,,,,,,2,,,55,0
216720,note_on,217,0,4,,,,,,,,,3,,,31,62
216720,note_on,0,0,2,,,,,,,,,1,,,65,62
216720,note_on,217,0,2,,,,,,,,,1,,,62,62
216743,note_on,0,0,2,,,,,,,,,1,,,62,0
216743,note_on,23,0,2,,,,,,,,,1,,,65,0
216743,note_on,0,0,1,,,,,,,,,0,,,74,0
216743,note_on,23,0,1,,,,,,,,,0,,,77,0
216743,note_on,23,0,4,,,,,,,,,3,,,31,0
216840,note_on,0,0,3,,,,,,,,,2,,,59,62
216840,note_on,120,0,3,,,,,,,,,2,,,57,0
216960,note_on,0,0,4,,,,,,,,,3,,,45,62
216960,note_on,0,0,3,,,,,,,,,2,,,60,62
216960,note_on,120,0,3,,,,,,,,,2,,,59,0
216960,note_on,217,0,2,,,,,,,,,1,,,60,62
216960,note_on,217,0,4,,,,,,,,,3,,,33,62
216960,note_on,217,0,1,,,,,,,,,0,,,72,62
216960,note_on,0,0,1,,,,,,,,,0,,,76,62
216960,note_on,0,0,2,,,,,,,,,1,,,64,62
216983,note_on,23,0,1,,,,,,,,,0,,,76,0
216983,note_on,23,0,3,,,,,,,,,2,,,60,0
216983,note_on,23,0,4,,,,,,,,,3,,,45,0
216983,note_on,0,0,1,,,,,,,,,0,,,72,0
216983,note_on,23,0,2,,,,,,,,,1,,,64,0
216983,note_on,0,0,4,,,,,,,,,3,,,33,0
216983,note_on,0,0,2,,,,,,,,,1,,,60,0
217200,note_on,217,0,2,,,,,,,,,1,,,74,88
217200,note_on,217,0,4,,,,,,,,,3,,,41,88
217200,note_on,0,0,3,,,,,,,,,2,,,57,75
217200,note_on,0,0,3,,,,,,,,,2,,,62,75
217200,note_on,217,0,3,,,,,,,,,2,,,53,75
217200,note_on,217,0,1,,,,,,,,,0,,,86,88
217223,note_on,0,0,3,,,,,,,,,2,,,57,0
217223,note_on,23,0,3,,,,,,,,,2,,,62,0
217223,note_on,23,0,4,,,,,,,,,3,,,41,0
217223,note_on,0,0,3,,,,,,,,,2,,,53,0
217320,note_on,120,0,2,,,,,,,,,1,,,74,0
217320,note_on,0,0,2,,,,,,,,,1,,,81,88
217320,note_on,120,0,1,,,,,,,,,0,,,86,0
217320,note_on,0,0,1,,,,,,,,,0,,,93,88
217440,note_on,120,0,2,,,,,,,,,1,,,81,0
217440,note_on,217,0,4,,,,,,,,,3,,,43,88
217440,note_on,0,0,2,,,,,,,,,1,,,72,88
217440,note_on,0,0,1,,,,,,,,,0,,,84,88
217440,note_on,120,0,1,,,,,,,,,0,,,93,0
217440,note_on,217,0,3,,,,,,,,,2,,,55,75
217440,note_on,0,0,3,,,,,,,,,2,,,60,75
217440,note_on,0,0,3,,,,,,,,,2,,,64,75
217463,note_on,23,0,2,,,,,,,,,1,,,72,0
217463,note_on,23,0,1,,,,,,,,,0,,,84,0
217680,note_on,240,0,3,,,,,,,,,2,,,64,0
217680,note_on,0,0,1,,,,,,,,,0,,,84,88
217680,note_on,0,0,3,,,,,,,,,2,,,55,0
217680,note_on,240,0,4,,,,,,,,,3,,,43,0
217680,control_change,217,0,1,,,,,,,,,0,64,127,,
217680,note_on,0,0,3,,,,,,,,,2,,,60,0
217680,control_change,217,0,2,,,,,,,,,1,64,127,,
217680,note_on,0,0,2,,,,,,,,,1,,,72,88
217727,note_on,47,0,1,,,,,,,,,0,,,84,0
217727,note_on,47,0,2,,,,,,,,,1,,,72,0
217727,note_on,0,0,1,,,,,,,,,0,,,86,88
217727,note_on,0,0,2,,,,,,,,,1,,,74,88
217776,note_on,49,0,1,,,,,,,,,0,,,86,0
217776,note_on,49,0,2,,,,,,,,,1,,,74,0
217776,note_on,0,0,1,,,,,,,,,0,,,84,88
217776,note_on,0,0,2,,,,,,,,,1,,,72,88
217823,note_on,0,0,2,,,,,,,,,1,,,71,88
217823,note_on,47,0,2,,,,,,,,,1,,,72,0
217823,note_on,0,0,1,,,,,,,,,0,,,83,88
217823,note_on,47,0,1,,,,,,,,,0,,,84,0
217872,note_on,0,0,2,,,,,,,,,1,,,72,88
217872,note_on,49,0,2,,,,,,,,,1,,,71,0
217872,note_on,49,0,1,,,,,,,,,0,,,83,0
217872,note_on,0,0,1,,,,,,,,,0,,,84,88
217920,note_on,240,0,4,,,,,,,,,3,,,43,88
217920,note_on,48,0,1,,,,,,,,,0,,,84,0
217920,note_on,0,0,1,,,,,,,,,0,,,88,88
217920,note_on,0,0,2,,,,,,,,,1,,,76,88
217920,note_on,48,0,2,,,,,,,,,1,,,72,0
217920,note_on,0,0,3,,,,,,,,,2,,,65,75
217920,note_on,0,0,3,,,,,,,,,2,,,59,75
217920,note_on,240,0,3,,,,,,,,,2,,,55,75
218160,note_on,240,0,4,,,,,,,,,3,,,43,0
218160,note_on,240,0,3,,,,,,,,,2,,,65,0
218160,note_on,0,0,3,,,,,,,,,2,,,55,0
218160,note_on,0,0,3,,,,,,,,,2,,,59,0
218280,note_on,0,0,1,,,,,,,,,0,,,86,88
218280,control_change,0,0,1,,,,,,,,,0,64,0,,
218280,note_on,360,0,1,,,,,,,,,0,,,88,0
218280,note_on,360,0,2,,,,,,,,,1,,,76,0
218280,control_change,0,0,2,,,,,,,,,1,64,0,,
218280,note_on,0,0,2,,,,,,,,,1,,,74,88
218400,control_change,0,0,1,,,,,,,,,0,64,127,,
218400,note_on,120,0,1,,,,,,,,,0,,,86,0
218400,note_on,0,0,1,,,,,,,,,0,,,84,62
218400,note_on,240,0,4,,,,,,,,,3,,,36,62
218400,note_on,120,0,2,,,,,,,,,1,,,74,0
218400,control_change,0,0,2,,,,,,,,,1,64,127,,
218400,note_on,0,0,4,,,,,,,,,3,,,48,62
218400,control_change,240,0,3,,,,,,,,,2,64,127,,
218400,note_on,0,0,3,,,,,,,,,2,,,52,49
218400,note_on,0,0,2,,,,,,,,,1,,,72,62
218520,note_on,120,0,3,,,,,,,,,2,,,52,0
218520,note_on,0,0,3,,,,,,,,,2,,,55,49
218640,note_on,0,0,3,,,,,,,,,2,,,60,49
218640,note_on,120,0,3,,,,,,,,,2,,,55,0
218760,note_on,120,0,3,,,,,,,,,2,,,60,0
218760,note_on,0,0,3,,,,,,,,,2,,,55,49
218880,note_on,120,0,3,,,,,,,,,2,,,55,0
218880,note_on,0,0,3,,,,,,,,,2,,,52,49
219000,note_on,120,0,3,,,,,,,,,2,,,52,0
219000,note_on,0,0,3,,,,,,,,,2,,,55,49
219120,note_on,0,0,2,,,,,,,,,1,,,71,62
219120,note_on,720,0,2,,,,,,,,,1,,,72,0
219120,note_on,0,0,1,,,,,,,,,0,,,83,62
219120,note_on,720,0,1,,,,,,,,,0,,,84,0
219120,note_on,120,0,3,,,,,,,,,2,,,55,0
219120,note_on,0,0,3,,,,,,,,,2,,,60,49
219240,note_on,120,0,2,,,,,,,,,1,,,71,0
219240,note_on,0,0,2,,,,,,,,,1,,,72,62
219240,note_on,0,0,3,,,,,,,,,2,,,55,49
219240,note_on,120,0,1,,,,,,,,,0,,,83,0
219240,note_on,0,0,1,,,,,,,,,0,,,84,62
219240,note_on,120,0,3,,,,,,,,,2,,,60,0
219360,note_on,120,0,3,,,,,,,,,2,,,55,0
219360,note_on,120,0,2,,,,,,,,,1,,,72,0
219360,note_on,0,0,2,,,,,,,,,1,,,74,62
219360,note_on,120,0,1,,,,,,,,,0,,,84,0
219360,note_on,0,0,1,,,,,,,,,0,,,86,62
219360,note_on,0,0,3,,,,,,,,,2,,,53,49
219480,note_on,0,0,1,,,,,,,,,0,,,88,62
219480,note_on,120,0,1,,,,,,,,,0,,,86,0
219480,note_on,120,0,3,,,,,,,,,2,,,53,0
219480,note_on,0,0,3,,,,,,,,,2,,,55,49
219480,note_on,0,0,2,,,,,,,,,1,,,76,62
219480,note_on,120,0,2,,,,,,,,,1,,,74,0
219600,note_on,0,0,2,,,,,,,,,1,,,77,62
219600,note_on,120,0,2,,,,,,,,,1,,,76,0
219600,note_on,0,0,1,,,,,,,,,0,,,89,62
219600,note_on,120,0,1,,,,,,,,,0,,,88,0
219600,note_on,0,0,3,,,,,,,,,2,,,59,49
219600,note_on,120,0,3,,,,,,,,,2,,,55,0
219720,control_change,0,0,3,,,,,,,,,2,64,0,,
219720,note_on,0,0,3,,,,,,,,,2,,,55,49
219720,note_on,0,0,2,,,,,,,,,1,,,78,62
219720,note_on,120,0,1,,,,,,,,,0,,,89,0
219720,note_on,0,0,1,,,,,,,,,0,,,90,62
219720,note_on,120,0,3,,,,,,,,,2,,,59,0
219720,note_on,120,0,2,,,,,,,,,1,,,77,0
219840,note_on,120,0,1,,,,,,,,,0,,,90,0
219840,note_on,0,0,1,,,,,,,,,0,,,93,88
219840,note_on,0,0,2,,,,,,,,,1,,,81,88
219840,note_on,120,0,3,,,,,,,,,2,,,55,0
219840,control_change,0,0,3,,,,,,,,,2,64,127,,
219840,note_on,0,0,3,,,,,,,,,2,,,52,49
219840,note_on,120,0,2,,,,,,,,,1,,,78,0
219960,note_on,120,0,3,,,,,,,,,2,,,52,0
219960,note_on,0,0,3,,,,,,,,,2,,,55,49
220080,note_on,0,0,3,,,,,,,,,2,,,60,49
220080,note_on,120,0,3,,,,,,,,,2,,,55,0
220080,note_on,0,0,2,,,,,,,,,1,,,79,62
220080,control_change,0,0,2,,,,,,,,,1,64,0,,
220080,note_on,240,0,2,,,,,,,,,1,,,81,0
220080,note_on,240,0,1,,,,,,,,,0,,,93,0
220080,control_change,0,0,1,,,,,,,,,0,64,0,,
220080,note_on,0,0,1,,,,,,,,,0,,,91,62
220200,note_on,0,0,3,,,,,,,,,2,,,55,49
220200,note_on,120,0,3,,,,,,,,,2,,,60,0
220320,note_on,0,0,3,,,,,,,,,2,,,52,49
220320,note_on,120,0,3,,,,,,,,,2,,,55,0
220440,note_on,0,0,3,,,,,,,,,2,,,55,49
220440,note_on,120,0,3,,,,,,,,,2,,,52,0
220560,control_change,0,0,2,,,,,,,,,1,64,127,,
220560,note_on,480,0,2,,,,,,,,,1,,,79,0
220560,note_on,480,0,1,,,,,,,,,0,,,91,0
220560,note_on,0,0,1,,,,,,,,,0,,,89,62
220560,control_change,0,0,1,,,,,,,,,0,64,127,,
220560,note_on,120,0,3,,,,,,,,,2,,,55,0
220560,note_on,0,0,3,,,,,,,,,2,,,60,49
220560,note_on,0,0,2,,,,,,,,,1,,,77,62
220680,note_on,120,0,2,,,,,,,,,1,,,77,0
220680,note_on,120,0,1,,,,,,,,,0,,,89,0
220680,note_on,0,0,1,,,,,,,,,0,,,88,62
220680,note_on,0,0,2,,,,,,,,,1,,,76,62
220680,note_on,120,0,3,,,,,,,,,2,,,60,0
220680,note_on,0,0,3,,,,,,,,,2,,,55,49
220800,note_on,120,0,3,,,,,,,,,2,,,55,0
220800,note_on,120,0,2,,,,,,,,,1,,,76,0
220800,note_on,0,0,2,,,,,,,,,1,,,74,62
220800,note_on,0,0,1,,,,,,,,,0,,,86,62
220800,note_on,120,0,1,,,,,,,,,0,,,88,0
220800,note_on,0,0,3,,,,,,,,,2,,,53,49
220920,note_on,0,0,1,,,,,,,,,0,,,81,62
220920,note_on,120,0,1,,,,,,,,,0,,,86,0
220920,note_on,120,0,3,,,,,,,,,2,,,53,0
220920,note_on,0,0,2,,,,,,,,,1,,,69,62
220920,note_on,120,0,2,,,,,,,,,1,,,74,0
220920,note_on,0,0,3,,,,,,,,,2,,,55,49
221040,note_on,120,0,3,,,,,,,,,2,,,55,0
221040,note_on,0,0,2,,,,,,,,,1,,,72,62
221040,note_on,120,0,2,,,,,,,,,1,,,69,0
221040,note_on,120,0,1,,,,,,,,,0,,,81,0
221040,note_on,0,0,1,,,,,,,,,0,,,84,62
221040,note_on,0,0,3,,,,,,,,,2,,,59,49
221160,note_on,120,0,1,,,,,,,,,0,,,84,0
221160,note_on,0,0,1,,,,,,,,,0,,,83,62
221160,note_on,0,0,3,,,,,,,,,2,,,55,49
221160,control_change,0,0,3,,,,,,,,,2,64,0,,
221160,note_on,120,0,3,,,,,,,,,2,,,59,0
221160,note_on,120,0,2,,,,,,,,,1,,,72,0
221160,note_on,0,0,2,,,,,,,,,1,,,71,62
221280,note_on,0,0,4,,,,,,,,,3,,,36,0
221280,note_on,2880,0,4,,,,,,,,,3,,,48,0
221280,note_on,0,0,3,,,,,,,,,2,,,52,49
221280,control_change,0,0,3,,,,,,,,,2,64,127,,
221280,note_on,120,0,3,,,,,,,,,2,,,55,0
221280,note_on,0,0,2,,,,,,,,,1,,,74,88
221280,note_on,120,0,2,,,,,,,,,1,,,71,0
221280,note_on,0,0,1,,,,,,,,,0,,,86,88
221280,note_on,120,0,1,,,,,,,,,0,,,83,0
221280,note_on,0,0,4,,,,,,,,,3,,,48,62
221280,note_on,0,0,4,,,,,,,,,3,,,36,62
221400,note_on,120,0,3,,,,,,,,,2,,,52,0
221400,note_on,0,0,3,,,,,,,,,2,,,55,49
221520,note_on,120,0,3,,,,,,,,,2,,,55,0
221520,control_change,0,0,2,,,,,,,,,1,64,0,,
221520,note_on,0,0,2,,,,,,,,,1,,,72,62
221520,note_on,0,0,1,,,,,,,,,0,,,84,62
221520,control_change,0,0,1,,,,,,,,,0,64,0,,
221520,note_on,240,0,1,,,,,,,,,0,,,86,0
221520,note_on,240,0,2,,,,,,,,,1,,,74,0
221520,note_on,0,0,3,,,,,,,,,2,,,60,49
221640,note_on,0,0,3,,,,,,,,,2,,,55,49
221640,note_on,120,0,3,,,,,,,,,2,,,60,0
221760,note_on,120,0,3,,,,,,,,,2,,,55,0
221760,note_on,0,0,3,,,,,,,,,2,,,52,49
221880,note_on,120,0,3,,,,,,,,,2,,,52,0
221880,note_on,0,0,3,,,,,,,,,2,,,55,49
222000,note_on,120,0,3,,,,,,,,,2,,,55,0
222000,note_on,0,0,3,,,,,,,,,2,,,60,49
222000,note_on,0,0,2,,,,,,,,,1,,,71,62
222000,control_change,0,0,2,,,,,,,,,1,64,127,,
222000,note_on,480,0,2,,,,,,,,,1,,,72,0
222000,note_on,480,0,1,,,,,,,,,0,,,84,0
222000,note_on,0,0,1,,,,,,,,,0,,,83,62
222000,control_change,0,0,1,,,,,,,,,0,64,127,,
222120,note_on,120,0,2,,,,,,,,,1,,,71,0
222120,note_on,0,0,1,,,,,,,,,0,,,84,62
222120,note_on,0,0,3,,,,,,,,,2,,,55,49
222120,note_on,120,0,3,,,,,,,,,2,,,60,0
222120,note_on,120,0,1,,,,,,,,,0,,,83,0
222120,note_on,0,0,2,,,,,,,,,1,,,72,62
222240,note_on,0,0,3,,,,,,,,,2,,,53,49
222240,note_on,120,0,3,,,,,,,,,2,,,55,0
222240,note_on,120,0,2,,,,,,,,,1,,,72,0
222240,note_on,120,0,1,,,,,,,,,0,,,84,0
222240,note_on,0,0,1,,,,,,,,,0,,,86,62
222240,note_on,0,0,2,,,,,,,,,1,,,74,62
222360,note_on,120,0,1,,,,,,,,,0,,,86,0
222360,note_on,0,0,1,,,,,,,,,0,,,88,62
222360,note_on,0,0,3,,,,,,,,,2,,,55,49
222360,note_on,120,0,3,,,,,,,,,2,,,53,0
222360,note_on,0,0,2,,,,,,,,,1,,,76,62
222360,note_on,120,0,2,,,,,,,,,1,,,74,0
222480,note_on,0,0,3,,,,,,,,,2,,,59,49
222480,note_on,120,0,1,,,,,,,,,0,,,88,0
222480,note_on,0,0,1,,,,,,,,,0,,,89,62
222480,note_on,120,0,3,,,,,,,,,2,,,55,0
222480,note_on,0,0,2,,,,,,,,,1,,,77,62
222480,note_on,120,0,2,,,,,,,,,1,,,76,0
222600,note_on,0,0,3,,,,,,,,,2,,,55,49
222600,note_on,120,0,2,,,,,,,,,1,,,77,0
222600,note_on,0,0,2,,,,,,,,,1,,,78,62
222600,note_on,0,0,1,,,,,,,,,0,,,90,62
222600,note_on,120,0,1,,,,,,,,,0,,,89,0
222600,control_change,0,0,3,,,,,,,,,2,64,0,,
222600,note_on,120,0,3,,,,,,,,,2,,,59,0
222720,note_on,120,0,2,,,,,,,,,1,,,78,0
222720,note_on,0,0,3,,,,,,,,,2,,,52,49
222720,control_change,0,0,3,,,,,,,,,2,64,127,,
222720,note_on,0,0,2,,,,,,,,,1,,,81,88
222720,note_on,0,0,1,,,,,,,,,0,,,93,88
222720,note_on,120,0,1,,,,,,,,,0,,,90,0
222720,note_on,120,0,3,,,,,,,,,2,,,55,0
222840,note_on,120,0,3,,,,,,,,,2,,,52,0
222840,note_on,0,0,3,,,,,,,,,2,,,55,49
222960,note_on,120,0,3,,,,,,,,,2,,,55,0
222960,note_on,0,0,3,,,,,,,,,2,,,60,49
222960,note_on,0,0,1,,,,,,,,,0,,,91,62
222960,note_on,240,0,1,,,,,,,,,0,,,93,0
222960,note_on,0,0,2,,,,,,,,,1,,,79,62
222960,note_on,240,0,2,,,,,,,,,1,,,81,0
223080,note_on,120,0,3,,,,,,,,,2,,,60,0
223080,note_on,0,0,3,,,,,,,,,2,,,55,49
223200,note_on,120,0,3,,,,,,,,,2,,,55,0
223200,control_change,240,0,2,,,,,,,,,1,64,0,,
223200,control_change,240,0,1,,,,,,,,,0,64,0,,
223200,note_on,0,0,3,,,,,,,,,2,,,52,49
223320,note_on,120,0,3,,,,,,,,,2,,,52,0
223320,note_on,0,0,3,,,,,,,,,2,,,55,49
223440,note_on,240,0,2,,,,,,,,,1,,,79,0
223440,note_on,240,0,1,,,,,,,,,0,,,91,0
223440,control_change,0,0,1,,,,,,,,,0,64,127,,
223440,note_on,0,0,1,,,,,,,,,0,,,89,62
223440,note_on,120,0,3,,,,,,,,,2,,,55,0
223440,note_on,0,0,3,,,,,,,,,2,,,60,49
223560,note_on,0,0,1,,,,,,,,,0,,,88,62
223560,note_on,120,0,1,,,,,,,,,0,,,89,0
223560,note_on,0,0,3,,,,,,,,,2,,,55,49
223560,note_on,120,0,3,,,,,,,,,2,,,60,0
223680,note_on,120,0,3,,,,,,,,,2,,,55,0
223680,note_on,0,0,1,,,,,,,,,0,,,86,62
223680,note_on,120,0,1,,,,,,,,,0,,,88,0
223680,note_on,0,0,3,,,,,,,,,2,,,53,49
223800,note_on,120,0,3,,,,,,,,,2,,,53,0
223800,note_on,0,0,3,,,,,,,,,2,,,55,49
223800,note_on,0,0,1,,,,,,,,,0,,,81,62
223800,note_on,120,0,1,,,,,,,,,0,,,86,0
223920,note_on,120,0,3,,,,,,,,,2,,,55,0
223920,note_on,0,0,3,,,,,,,,,2,,,59,49
223920,note_on,0,0,1,,,,,,,,,0,,,84,62
223920,note_on,120,0,1,,,,,,,,,0,,,81,0
224040,control_change,0,0,3,,,,,,,,,2,64,0,,
224040,note_on,0,0,3,,,,,,,,,2,,,55,49
224040,note_on,0,0,1,,,,,,,,,0,,,83,62
224040,note_on,120,0,1,,,,,,,,,0,,,84,0
224040,note_on,120,0,3,,,,,,,,,2,,,59,0
224160,note_on,120,0,1,,,,,,,,,0,,,83,0
224160,note_on,120,0,3,,,,,,,,,2,,,55,0
224160,note_on,0,0,3,,,,,,,,,2,,,52,49
224160,control_change,0,0,3,,,,,,,,,2,64,127,,
224160,note_on,0,0,4,,,,,,,,,3,,,48,62
224160,note_on,0,0,4,,,,,,,,,3,,,36,62
224160,note_on,0,0,4,,,,,,,,,3,,,36,0
224160,note_on,2880,0,4,,,,,,,,,3,,,48,0
224160,note_on,720,0,2,,,,,,,,,1,,,76,62
224160,note_on,0,0,1,,,,,,,,,0,,,86,62
224280,note_on,120,0,3,,,,,,,,,2,,,52,0
224280,note_on,0,0,3,,,,,,,,,2,,,55,49
224280,note_on,0,0,2,,,,,,,,,1,,,77,62
224280,note_on,120,0,2,,,,,,,,,1,,,76,0
224400,note_on,240,0,1,,,,,,,,,0,,,86,0
224400,note_on,0,0,2,,,,,,,,,1,,,78,62
224400,note_on,120,0,2,,,,,,,,,1,,,77,0
224400,note_on,0,0,1,,,,,,,,,0,,,84,62
224400,note_on,120,0,3,,,,,,,,,2,,,55,0
224400,note_on,0,0,3,,,,,,,,,2,,,60,49
224520,note_on,0,0,2,,,,,,,,,1,,,79,62
224520,note_on,120,0,3,,,,,,,,,2,,,60,0
224520,note_on,0,0,3,,,,,,,,,2,,,55,49
224520,note_on,120,0,2,,,,,,,,,1,,,78,0
224640,note_on,0,0,3,,,,,,,,,2,,,52,49
224640,note_on,120,0,2,,,,,,,,,1,,,79,0
224640,note_on,120,0,3,,,,,,,,,2,,,55,0
224640,note_on,0,0,2,,,,,,,,,1,,,81,88
224640,control_change,240,0,1,,,,,,,,,0,64,0,,
224760,note_on,120,0,3,,,,,,,,,2,,,52,0
224760,note_on,0,0,3,,,,,,,,,2,,,55,49
224880,note_on,0,0,3,,,,,,,,,2,,,60,49
224880,note_on,120,0,3,,,,,,,,,2,,,55,0
224880,note_on,240,0,2,,,,,,,,,1,,,81,0
224880,note_on,0,0,2,,,,,,,,,1,,,79,62
224880,control_change,0,0,1,,,,,,,,,0,64,127,,
224880,note_on,240,0,1,,,,,,,,,0,,,84,0
224880,note_on,0,0,1,,,,,,,,,0,,,83,62
225000,note_on,0,0,1,,,,,,,,,0,,,84,62
225000,note_on,120,0,1,,,,,,,,,0,,,83,0
225000,note_on,0,0,3,,,,,,,,,2,,,55,49
225000,note_on,120,0,3,,,,,,,,,2,,,60,0
225120,note_on,120,0,3,,,,,,,,,2,,,55,0
225120,note_on,0,0,3,,,,,,,,,2,,,53,49
225120,note_on,0,0,1,,,,,,,,,0,,,86,62
225120,note_on,120,0,1,,,,,,,,,0,,,84,0
225240,note_on,0,0,3,,,,,,,,,2,,,55,49
225240,note_on,0,0,1,,,,,,,,,0,,,88,62
225240,note_on,120,0,1,,,,,,,,,0,,,86,0
225240,note_on,120,0,3,,,,,,,,,2,,,53,0
225360,note_on,0,0,1,,,,,,,,,0,,,89,62
225360,note_on,120,0,1,,,,,,,,,0,,,88,0
225360,note_on,120,0,3,,,,,,,,,2,,,55,0
225360,note_on,0,0,3,,,,,,,,,2,,,59,49
225480,note_on,0,0,3,,,,,,,,,2,,,55,49
225480,control_change,0,0,3,,,,,,,,,2,64,0,,
225480,note_on,120,0,3,,,,,,,,,2,,,59,0
225480,note_on,120,0,1,,,,,,,,,0,,,89,0
225480,control_change,0,0,1,,,,,,,,,0,64,0,,
225480,note_on,0,0,1,,,,,,,,,0,,,83,62
225600,note_on,0,0,3,,,,,,,,,2,,,52,49
225600,control_change,0,0,3,,,,,,,,,2,64,127,,
225600,note_on,120,0,3,,,,,,,,,2,,,55,0
225600,note_on,120,0,1,,,,,,,,,0,,,83,0
225600,note_on,0,0,2,,,,,,,,,1,,,76,62
225600,note_on,720,0,2,,,,,,,,,1,,,79,0
225600,control_change,0,0,2,,,,,,,,,1,64,127,,
225600,note_on,0,0,1,,,,,,,,,0,,,86,62
225720,note_on,0,0,2,,,,,,,,,1,,,77,62
225720,note_on,120,0,3,,,,,,,,,2,,,52,0
225720,note_on,0,0,3,,,,,,,,,2,,,55,49
225720,note_on,120,0,2,,,,,,,,,1,,,76,0
225840,note_on,120,0,3,,,,,,,,,2,,,55,0
225840,note_on,0,0,3,,,,,,,,,2,,,60,49
225840,note_on,0,0,1,,,,,,,,,0,,,84,62
225840,note_on,240,0,1,,,,,,,,,0,,,86,0
225840,note_on,0,0,2,,,,,,,,,1,,,78,62
225840,note_on,120,0,2,,,,,,,,,1,,,77,0
225960,note_on,120,0,2,,,,,,,,,1,,,78,0
225960,note_on,0,0,3,,,,,,,,,2,,,55,49
225960,note_on,120,0,3,,,,,,,,,2,,,60,0
225960,note_on,0,0,2,,,,,,,,,1,,,79,62
226080,note_on,0,0,3,,,,,,,,,2,,,52,49
226080,note_on,120,0,3,,,,,,,,,2,,,55,0
226080,note_on,0,0,2,,,,,,,,,1,,,81,88
226080,note_on,120,0,2,,,,,,,,,1,,,79,0
226200,note_on,0,0,3,,,,,,,,,2,,,55,49
226200,note_on,120,0,3,,,,,,,,,2,,,52,0
226320,control_change,0,0,1,,,,,,,,,0,64,127,,
226320,note_on,480,0,1,,,,,,,,,0,,,84,0
226320,note_on,240,0,2,,,,,,,,,1,,,81,0
226320,control_change,0,0,2,,,,,,,,,1,64,0,,
226320,note_on,0,0,2,,,,,,,,,1,,,79,62
226320,note_on,120,0,3,,,,,,,,,2,,,55,0
226320,note_on,0,0,3,,,,,,,,,2,,,60,49
226320,note_on,0,0,1,,,,,,,,,0,,,83,62
226440,note_on,0,0,3,,,,,,,,,2,,,55,49
226440,note_on,120,0,3,,,,,,,,,2,,,60,0
226440,note_on,0,0,1,,,,,,,,,0,,,84,62
226440,note_on,120,0,1,,,,,,,,,0,,,83,0
226560,note_on,0,0,3,,,,,,,,,2,,,53,49
226560,note_on,120,0,3,,,,,,,,,2,,,55,0
226560,note_on,0,0,1,,,,,,,,,0,,,86,62
226560,note_on,120,0,1,,,,,,,,,0,,,84,0
226680,note_on,120,0,1,,,,,,,,,0,,,86,0
226680,note_on,120,0,3,,,,,,,,,2,,,53,0
226680,note_on,0,0,3,,,,,,,,,2,,,55,49
226680,note_on,0,0,1,,,,,,,,,0,,,88,62
226800,note_on,120,0,1,,,,,,,,,0,,,88,0
226800,note_on,120,0,3,,,,,,,,,2,,,55,0
226800,note_on,0,0,3,,,,,,,,,2,,,59,49
226800,note_on,0,0,1,,,,,,,,,0,,,89,62
226920,note_on,0,0,1,,,,,,,,,0,,,83,62
226920,note_on,120,0,3,,,,,,,,,2,,,59,0
226920,control_change,0,0,3,,,,,,,,,2,64,0,,
226920,note_on,0,0,3,,,,,,,,,2,,,55,49
226920,note_on,120,0,1,,,,,,,,,0,,,89,0
227040,note_on,0,0,4,,,,,,,,,3,,,48,62
227040,note_on,0,0,4,,,,,,,,,3,,,36,62
227040,note_on,0,0,4,,,,,,,,,3,,,36,0
227040,note_on,2880,0,4,,,,,,,,,3,,,48,0
227040,note_on,720,0,2,,,,,,,,,1,,,79,0
227040,note_on,0,0,1,,,,,,,,,0,,,86,62
227040,control_change,0,0,3,,,,,,,,,2,64,127,,
227040,note_on,0,0,3,,,,,,,,,2,,,52,49
227040,note_on,120,0,1,,,,,,,,,0,,,83,0
227040,note_on,120,0,3,,,,,,,,,2,,,55,0
227160,note_on,120,0,3,,,,,,,,,2,,,52,0
227160,note_on,0,0,3,,,,,,,,,2,,,55,49
227280,note_on,0,0,3,,,,,,,,,2,,,60,49
227280,note_on,120,0,3,,,,,,,,,2,,,55,0
227280,note_on,240,0,1,,,,,,,,,0,,,86,0
227280,note_on,0,0,1,,,,,,,,,0,,,84,62
227400,note_on,0,0,3,,,,,,,,,2,,,55,49
227400,note_on,120,0,3,,,,,,,,,2,,,60,0
227520,control_change,240,0,1,,,,,,,,,0,64,0,,
227520,note_on,120,0,3,,,,,,,,,2,,,55,0
227520,note_on,0,0,3,,,,,,,,,2,,,52,49
227520,note_on,480,0,2,,,,,,,,,1,,,79,62
227640,note_on,0,0,3,,,,,,,,,2,,,55,49
227640,note_on,120,0,3,,,,,,,,,2,,,52,0
227760,note_on,0,0,3,,,,,,,,,2,,,60,49
227760,note_on,120,0,3,,,,,,,,,2,,,55,0
227760,note_on,240,0,2,,,,,,,,,1,,,79,0
227760,note_on,0,0,2,,,,,,,,,1,,,76,62
227880,note_on,0,0,3,,,,,,,,,2,,,55,49
227880,note_on,120,0,3,,,,,,,,,2,,,60,0
228000,note_on,0,0,3,,,,,,,,,2,,,52,49
228000,note_on,120,0,3,,,,,,,,,2,,,55,0
228120,note_on,0,0,3,,,,,,,,,2,,,55,49
228120,note_on,120,0,3,,,,,,,,,2,,,52,0
228240,note_on,0,0,3,,,,,,,,,2,,,60,49
228240,note_on,120,0,3,,,,,,,,,2,,,55,0
228360,note_on,0,0,3,,,,,,,,,2,,,55,49
228360,control_change,0,0,3,,,,,,,,,2,64,0,,
228360,note_on,120,0,3,,,,,,,,,2,,,60,0
228480,note_on,120,0,3,,,,,,,,,2,,,55,0
228480,note_on,0,0,3,,,,,,,,,2,,,51,49
228480,control_change,0,0,3,,,,,,,,,2,64,127,,
228480,note_on,0,0,1,,,,,,,,,0,,,86,62
228480,note_on,960,0,1,,,,,,,,,0,,,84,0
228480,note_on,720,0,2,,,,,,,,,1,,,76,0
228600,note_on,0,0,3,,,,,,,,,2,,,55,49
228600,note_on,120,0,3,,,,,,,,,2,,,51,0
228720,note_on,0,0,1,,,,,,,,,0,,,84,62
228720,note_on,0,0,3,,,,,,,,,2,,,60,49
228720,note_on,120,0,3,,,,,,,,,2,,,55,0
228720,note_on,240,0,1,,,,,,,,,0,,,86,0
228840,note_on,120,0,3,,,,,,,,,2,,,60,0
228840,note_on,0,0,3,,,,,,,,,2,,,55,49
228960,note_on,120,0,3,,,,,,,,,2,,,55,0
228960,note_on,480,0,2,,,,,,,,,1,,,79,62
228960,note_on,0,0,3,,,,,,,,,2,,,51,49
229080,note_on,120,0,3,,,,,,,,,2,,,51,0
229080,note_on,0,0,3,,,,,,,,,2,,,55,49
229200,note_on,120,0,3,,,,,,,,,2,,,55,0
229200,note_on,0,0,3,,,,,,,,,2,,,60,49
229200,note_on,240,0,2,,,,,,,,,1,,,79,0
229200,note_on,0,0,2,,,,,,,,,1,,,75,62
229320,note_on,120,0,3,,,,,,,,,2,,,60,0
229320,note_on,0,0,3,,,,,,,,,2,,,55,49
229440,note_on,0,0,3,,,,,,,,,2,,,51,49
229440,note_on,120,0,3,,,,,,,,,2,,,55,0
229560,note_on,120,0,3,,,,,,,,,2,,,51,0
229560,note_on,0,0,3,,,,,,,,,2,,,55,49
229680,note_on,120,0,3,,,,,,,,,2,,,55,0
229680,note_on,0,0,3,,,,,,,,,2,,,60,49
229800,note_on,120,0,3,,,,,,,,,2,,,60,0
229800,note_on,0,0,3,,,,,,,,,2,,,55,49
229800,control_change,0,0,3,,,,,,,,,2,64,0,,
229920,note_on,120,0,3,,,,,,,,,2,,,55,0
229920,note_on,0,0,4,,,,,,,,,3,,,36,0
229920,note_on,0,0,4,,,,,,,,,3,,,50,62
229920,note_on,720,0,2,,,,,,,,,1,,,75,0
229920,note_on,0,0,4,,,,,,,,,3,,,38,62
229920,note_on,0,0,1,,,,,,,,,0,,,84,88
229920,note_on,1200,0,1,,,,,,,,,0,,,84,0
229920,note_on,2880,0,4,,,,,,,,,3,,,48,0
230040,control_change,120,0,3,,,,,,,,,2,64,127,,
230040,note_on,0,0,3,,,,,,,,,2,,,54,49
230160,note_on,120,0,3,,,,,,,,,2,,,54,0
230160,note_on,0,0,4,,,,,,,,,3,,,38,0
230160,note_on,240,0,1,,,,,,,,,0,,,84,0
230160,note_on,0,0,1,,,,,,,,,0,,,81,62
230160,note_on,0,0,3,,,,,,,,,2,,,57,49
230160,note_on,240,0,4,,,,,,,,,3,,,50,0
230280,note_on,0,0,3,,,,,,,,,2,,,60,49
230280,note_on,120,0,3,,,,,,,,,2,,,57,0
230400,note_on,0,0,1,,,,,,,,,0,,,81,88
230400,note_on,120,0,3,,,,,,,,,2,,,60,0
230400,note_on,240,0,1,,,,,,,,,0,,,81,0
230400,note_on,0,0,3,,,,,,,,,2,,,66,49
230400,note_on,480,0,2,,,,,,,,,1,,,75,88
230520,note_on,120,0,3,,,,,,,,,2,,,66,0
230520,note_on,0,0,3,,,,,,,,,2,,,60,49
230640,note_on,0,0,1,,,,,,,,,0,,,87,62
230640,note_on,0,0,2,,,,,,,,,1,,,69,62
230640,note_on,240,0,2,,,,,,,,,1,,,75,0
230640,note_on,120,0,3,,,,,,,,,2,,,60,0
230640,note_on,0,0,3,,,,,,,,,2,,,57,49
230640,note_on,240,0,1,,,,,,,,,0,,,81,0
230760,note_on,0,0,3,,,,,,,,,2,,,54,49
230760,control_change,0,0,3,,,,,,,,,2,64,0,,
230760,note_on,120,0,3,,,,,,,,,2,,,57,0
230880,note_on,0,0,1,,,,,,,,,0,,,87,88
230880,note_on,120,0,3,,,,,,,,,2,,,54,0
230880,note_on,0,0,2,,,,,,,,,1,,,69,88
230880,note_on,240,0,2,,,,,,,,,1,,,69,0
230880,note_on,720,0,4,,,,,,,,,3,,,38,62
230880,note_on,0,0,4,,,,,,,,,3,,,50,62
230880,note_on,240,0,1,,,,,,,,,0,,,87,0
231000,note_on,120,0,3,,,,,,,,,2,,,54,49
231120,note_on,0,0,2,,,,,,,,,1,,,74,62
231120,note_on,240,0,2,,,,,,,,,1,,,69,0
231120,note_on,240,0,4,,,,,,,,,3,,,50,0
231120,note_on,0,0,4,,,,,,,,,3,,,38,0
231120,note_on,0,0,3,,,,,,,,,2,,,57,49
231120,note_on,120,0,3,,,,,,,,,2,,,54,0
231120,note_on,0,0,1,,,,,,,,,0,,,86,62
231120,note_on,240,0,1,,,,,,,,,0,,,87,0
231240,note_on,120,0,3,,,,,,,,,2,,,57,0
231240,note_on,0,0,3,,,,,,,,,2,,,60,49
231360,note_on,240,0,1,,,,,,,,,0,,,86,0
231360,note_on,240,0,2,,,,,,,,,1,,,74,0
231360,note_on,0,0,4,,,,,,,,,3,,,50,62
231360,note_on,240,0,4,,,,,,,,,3,,,38,62
231360,note_on,120,0,3,,,,,,,,,2,,,60,0
231480,control_change,120,0,3,,,,,,,,,2,64,127,,
231480,note_on,0,0,3,,,,,,,,,2,,,54,49
231600,note_on,0,0,3,,,,,,,,,2,,,57,49
231600,note_on,240,0,4,,,,,,,,,3,,,50,0
231600,note_on,0,0,4,,,,,,,,,3,,,38,0
231600,note_on,120,0,3,,,,,,,,,2,,,54,0
231720,note_on,120,0,3,,,,,,,,,2,,,57,0
231720,note_on,0,0,3,,,,,,,,,2,,,60,49
231840,note_on,480,0,2,,,,,,,,,1,,,75,88
231840,note_on,480,0,1,,,,,,,,,0,,,81,88
231840,note_on,120,0,3,,,,,,,,,2,,,60,0
231840,note_on,0,0,3,,,,,,,,,2,,,66,49
231960,note_on,120,0,3,,,,,,,,,2,,,66,0
231960,note_on,0,0,3,,,,,,,,,2,,,60,49
232080,note_on,120,0,3,,,,,,,,,2,,,60,0
232080,note_on,240,0,1,,,,,,,,,0,,,81,0
232080,note_on,0,0,1,,,,,,,,,0,,,87,62
232080,note_on,0,0,2,,,,,,,,,1,,,69,62
232080,note_on,240,0,2,,,,,,,,,1,,,75,0
232080,note_on,0,0,3,,,,,,,,,2,,,57,49
232200,note_on,120,0,3,,,,,,,,,2,,,57,0
232200,control_change,0,0,3,,,,,,,,,2,64,0,,
232200,note_on,0,0,3,,,,,,,,,2,,,54,49
232320,note_on,0,0,4,,,,,,,,,3,,,50,62
232320,note_on,720,0,4,,,,,,,,,3,,,38,62
232320,note_on,120,0,3,,,,,,,,,2,,,54,0
232320,note_on,240,0,2,,,,,,,,,1,,,69,0
232320,note_on,0,0,1,,,,,,,,,0,,,87,88
232320,note_on,240,0,1,,,,,,,,,0,,,87,0
232320,note_on,0,0,2,,,,,,,,,1,,,69,88
232440,note_on,120,0,3,,,,,,,,,2,,,54,49
232560,note_on,120,0,3,,,,,,,,,2,,,54,0
232560,note_on,0,0,3,,,,,,,,,2,,,57,49
232560,note_on,0,0,2,,,,,,,,,1,,,74,62
232560,note_on,240,0,4,,,,,,,,,3,,,50,0
232560,note_on,240,0,1,,,,,,,,,0,,,87,0
232560,note_on,0,0,1,,,,,,,,,0,,,86,62
232560,note_on,240,0,2,,,,,,,,,1,,,69,0
232560,note_on,0,0,4,,,,,,,,,3,,,38,0
232680,note_on,0,0,3,,,,,,,,,2,,,60,49
232680,note_on,120,0,3,,,,,,,,,2,,,57,0
232800,note_on,240,0,2,,,,,,,,,1,,,74,0
232800,note_on,240,0,1,,,,,,,,,0,,,86,0
232800,note_on,0,0,4,,,,,,,,,3,,,50,62
232800,note_on,240,0,4,,,,,,,,,3,,,38,62
232800,time_signature,32160,1,0,4,4,24,8,,,,,,,,,
232800,note_on,120,0,3,,,,,,,,,2,,,60,0
232800,set_tempo,0,1,0,,,,,,750000,,,,,,,
232920,control_change,120,0,3,,,,,,,,,2,64,127,,
232920,note_on,0,0,3,,,,,,,,,2,,,57,49
233040,note_on,120,0,3,,,,,,,,,2,,,57,0
233040,note_on,0,0,3,,,,,,,,,2,,,60,49
233160,note_on,0,0,3,,,,,,,,,2,,,62,49
233160,note_on,120,0,3,,,,,,,,,2,,,60,0
233280,note_on,480,0,2,,,,,,,,,1,,,69,62
233280,note_on,120,0,3,,,,,,,,,2,,,62,0
233280,note_on,0,0,3,,,,,,,,,2,,,66,49
233280,note_on,480,0,1,,,,,,,,,0,,,88,88
233520,note_on,240,0,2,,,,,,,,,1,,,69,0
233520,note_on,0,0,2,,,,,,,,,1,,,74,62
233520,note_on,0,0,1,,,,,,,,,0,,,86,62
233520,note_on,240,0,1,,,,,,,,,0,,,88,0
234240,note_on,960,0,3,,,,,,,,,2,,,66,0
234240,control_change,0,0,3,,,,,,,,,2,64,0,,
234240,note_on,0,0,3,,,,,,,,,2,,,62,49
234240,note_on,720,0,2,,,,,,,,,1,,,74,0
234240,set_tempo,1440,1,0,,,,,,600000,,,,,,,
234240,note_on,720,0,1,,,,,,,,,0,,,86,0
234240,note_on,0,0,2,,,,,,,,,1,,,74,62
234240,control_change,0,0,2,,,,,,,,,1,64,127,,
234360,note_on,120,0,2,,,,,,,,,1,,,74,0
234360,note_on,0,0,2,,,,,,,,,1,,,76,62
234480,note_on,0,0,2,,,,,,,,,1,,,72,62
234480,note_on,0,0,3,,,,,,,,,2,,,66,49
234480,note_on,240,0,3,,,,,,,,,2,,,62,0
234480,note_on,120,0,2,,,,,,,,,1,,,76,0
234600,note_on,120,0,2,,,,,,,,,1,,,72,0
234600,note_on,0,0,2,,,,,,,,,1,,,74,62
234600,control_change,0,0,2,,,,,,,,,1,64,0,,
234720,note_on,0,0,4,,,,,,,,,3,,,38,0
234720,note_on,240,0,3,,,,,,,,,2,,,66,0
234720,control_change,0,0,3,,,,,,,,,2,64,127,,
234720,note_on,0,0,3,,,,,,,,,2,,,67,75
234720,note_on,120,0,2,,,,,,,,,1,,,74,0
234720,control_change,0,0,2,,,,,,,,,1,64,127,,
234720,time_signature,480,1,0,3,4,24,8,,,,,,,,,
234720,note_on,1920,0,4,,,,,,,,,3,,,50,0
234720,note_on,0,0,4,,,,,,,,,3,,,31,62
234720,note_on,0,0,2,,,,,,,,,1,,,71,62
234720,note_on,0,0,4,,,,,,,,,3,,,43,62
234840,note_on,0,0,2,,,,,,,,,1,,,72,62
234840,note_on,120,0,2,,,,,,,,,1,,,71,0
234960,note_on,0,0,2,,,,,,,,,1,,,69,62
234960,note_on,0,0,3,,,,,,,,,2,,,62,75
234960,note_on,240,0,3,,,,,,,,,2,,,67,0
234960,note_on,120,0,2,,,,,,,,,1,,,72,0
235080,note_on,0,0,2,,,,,,,,,1,,,71,62
235080,note_on,120,0,2,,,,,,,,,1,,,69,0
235200,note_on,0,0,3,,,,,,,,,2,,,59,75
235200,note_on,240,0,3,,,,,,,,,2,,,62,0
235200,note_on,0,0,2,,,,,,,,,1,,,67,62
235200,note_on,120,0,2,,,,,,,,,1,,,71,0
235320,note_on,0,0,2,,,,,,,,,1,,,71,62
235320,note_on,120,0,2,,,,,,,,,1,,,67,0
235440,note_on,240,0,3,,,,,,,,,2,,,59,0
235440,note_on,0,0,2,,,,,,,,,1,,,72,62
235440,note_on,120,0,2,,,,,,,,,1,,,71,0
235440,note_on,0,0,3,,,,,,,,,2,,,65,75
235560,note_on,120,0,2,,,,,,,,,1,,,72,0
235560,note_on,0,0,2,,,,,,,,,1,,,74,62
235680,note_on,120,0,2,,,,,,,,,1,,,74,0
235680,note_on,0,0,2,,,,,,,,,1,,,76,62
235680,note_on,240,0,3,,,,,,,,,2,,,65,0
235680,note_on,0,0,3,,,,,,,,,2,,,64,75
235800,note_on,120,0,2,,,,,,,,,1,,,76,0
235800,note_on,0,0,2,,,,,,,,,1,,,79,62
235920,note_on,0,0,2,,,,,,,,,1,,,78,62
235920,note_on,120,0,2,,,,,,,,,1,,,79,0
235920,note_on,240,0,3,,,,,,,,,2,,,64,0
235920,control_change,0,0,3,,,,,,,,,2,64,0,,
235920,note_on,0,0,3,,,,,,,,,2,,,60,75
236040,note_on,0,0,2,,,,,,,,,1,,,76,62
236040,control_change,0,0,2,,,,,,,,,1,64,0,,
236040,note_on,120,0,2,,,,,,,,,1,,,78,0
236160,control_change,0,0,2,,,,,,,,,1,64,127,,
236160,note_on,0,0,4,,,,,,,,,3,,,43,62
236160,note_on,0,0,4,,,,,,,,,3,,,31,62
236160,note_on,0,0,4,,,,,,,,,3,,,31,0
236160,note_on,1440,0,4,,,,,,,,,3,,,43,0
236160,note_on,120,0,2,,,,,,,,,1,,,76,0
236160,note_on,240,0,3,,,,,,,,,2,,,60,0
236160,note_on,0,0,3,,,,,,,,,2,,,59,75
236160,control_change,0,0,3,,,,,,,,,2,64,127,,
236160,note_on,0,0,2,,,,,,,,,1,,,74,62
236280,note_on,0,0,2,,,,,,,,,1,,,83,62
236280,note_on,120,0,2,,,,,,,,,1,,,74,0
236400,note_on,0,0,3,,,,,,,,,2,,,60,75
236400,note_on,240,0,3,,,,,,,,,2,,,59,0
236400,note_on,0,0,2,,,,,,,,,1,,,81,62
236400,note_on,120,0,2,,,,,,,,,1,,,83,0
236520,note_on,0,0,2,,,,,,,,,1,,,79,62
236520,note_on,120,0,2,,,,,,,,,1,,,81,0
236520,note_on,120,0,3,,,,,,,,,2,,,60,0
236520,note_on,0,0,3,,,,,,,,,2,,,59,75
236640,note_on,0,0,3,,,,,,,,,2,,,57,75
236640,note_on,0,0,2,,,,,,,,,1,,,78,62
236640,note_on,120,0,2,,,,,,,,,1,,,79,0
236640,note_on,120,0,3,,,,,,,,,2,,,59,0
236760,note_on,0,0,2,,,,,,,,,1,,,79,62
236760,note_on,120,0,2,,,,,,,,,1,,,78,0
236880,note_on,120,0,2,,,,,,,,,1,,,79,0
236880,note_on,0,0,3,,,,,,,,,2,,,59,75
236880,note_on,240,0,3,,,,,,,,,2,,,57,0
236880,note_on,0,0,2,,,,,,,,,1,,,81,62
237000,note_on,120,0,2,,,,,,,,,1,,,81,0
237000,note_on,0,0,2,,,,,,,,,1,,,79,62
237120,note_on,120,0,2,,,,,,,,,1,,,79,0
237120,note_on,240,0,3,,,,,,,,,2,,,59,0
237120,note_on,0,0,2,,,,,,,,,1,,,78,62
237120,note_on,0,0,3,,,,,,,,,2,,,60,75
237240,note_on,0,0,2,,,,,,,,,1,,,76,62
237240,note_on,120,0,2,,,,,,,,,1,,,78,0
237360,note_on,0,0,2,,,,,,,,,1,,,79,62
237360,note_on,120,0,2,,,,,,,,,1,,,76,0
237360,note_on,240,0,3,,,,,,,,,2,,,60,0
237360,note_on,0,0,3,,,,,,,,,2,,,64,75
237360,control_change,0,0,3,,,,,,,,,2,64,0,,
237480,note_on,120,0,2,,,,,,,,,1,,,79,0
237480,control_change,0,0,2,,,,,,,,,1,64,0,,
237480,note_on,0,0,2,,,,,,,,,1,,,76,62
237600,control_change,0,0,3,,,,,,,,,2,64,127,,
237600,note_on,0,0,3,,,,,,,,,2,,,66,75
237600,note_on,120,0,2,,,,,,,,,1,,,76,0
237600,note_on,240,0,3,,,,,,,,,2,,,64,0
237600,control_change,0,0,2,,,,,,,,,1,64,127,,
237600,note_on,0,0,2,,,,,,,,,1,,,74,62
237720,note_on,0,0,2,,,,,,,,,1,,,76,62
237720,note_on,120,0,2,,,,,,,,,1,,,74,0
237840,note_on,120,0,2,,,,,,,,,1,,,76,0
237840,note_on,0,0,2,,,,,,,,,1,,,72,62
237840,note_on,0,0,3,,,,,,,,,2,,,62,75
237840,note_on,240,0,3,,,,,,,,,2,,,66,0
237960,note_on,120,0,2,,,,,,,,,1,,,72,0
237960,note_on,0,0,2,,,,,,,,,1,,,74,62
238080,note_on,0,0,2,,,,,,,,,1,,,71,62
238080,note_on,0,0,3,,,,,,,,,2,,,67,75
238080,note_on,240,0,3,,,,,,,,,2,,,62,0
238080,note_on,120,0,2,,,,,,,,,1,,,74,0
238200,note_on,0,0,2,,,,,,,,,1,,,79,62
238200,note_on,120,0,2,,,,,,,,,1,,,71,0
238320,note_on,0,0,3,,,,,,,,,2,,,59,75
238320,note_on,240,0,3,,,,,,,,,2,,,67,0
238320,note_on,0,0,2,,,,,,,,,1,,,78,62
238320,note_on,120,0,2,,,,,,,,,1,,,79,0
238440,note_on,0,0,2,,,,,,,,,1,,,76,62
238440,note_on,120,0,2,,,,,,,,,1,,,78,0
238560,note_on,2400,0,4,,,,,,,,,3,,,43,0
238560,note_on,240,0,3,,,,,,,,,2,,,59,0
238560,note_on,0,0,4,,,,,,,,,3,,,36,62
238560,note_on,0,0,4,,,,,,,,,3,,,31,0
238560,note_on,0,0,4,,,,,,,,,3,,,48,62
238560,note_on,120,0,2,,,,,,,,,1,,,76,0
238560,note_on,0,0,3,,,,,,,,,2,,,60,75
238560,note_on,0,0,2,,,,,,,,,1,,,75,62
238680,note_on,120,0,2,,,,,,,,,1,,,75,0
238680,note_on,0,0,2,,,,,,,,,1,,,76,62
238800,note_on,120,0,2,,,,,,,,,1,,,76,0
238800,note_on,240,0,3,,,,,,,,,2,,,60,0
238800,control_change,0,0,3,,,,,,,,,2,64,0,,
238800,note_on,0,0,3,,,,,,,,,2,,,57,75
238800,note_on,0,0,2,,,,,,,,,1,,,72,62
238920,note_on,120,0,2,,,,,,,,,1,,,72,0
238920,control_change,0,0,2,,,,,,,,,1,64,0,,
238920,note_on,0,0,2,,,,,,,,,1,,,69,62
239040,control_change,0,0,3,,,,,,,,,2,64,127,,
239040,control_change,0,0,2,,,,,,,,,1,64,127,,
239040,note_on,0,0,3,,,,,,,,,2,,,62,75
239040,note_on,0,0,4,,,,,,,,,3,,,50,62
239040,note_on,120,0,2,,,,,,,,,1,,,69,0
239040,note_on,0,0,4,,,,,,,,,3,,,36,0
239040,note_on,480,0,4,,,,,,,,,3,,,48,0
239040,note_on,240,0,3,,,,,,,,,2,,,57,0
239040,note_on,0,0,4,,,,,,,,,3,,,38,62
239040,note_on,0,0,2,,,,,,,,,1,,,66,62
239160,note_on,120,0,2,,,,,,,,,1,,,66,0
239160,note_on,0,0,2,,,,,,,,,1,,,74,62
239280,note_on,0,0,3,,,,,,,,,2,,,67,75
239280,note_on,240,0,3,,,,,,,,,2,,,62,0
239280,note_on,0,0,2,,,,,,,,,1,,,73,62
239280,note_on,120,0,2,,,,,,,,,1,,,74,0
239400,note_on,0,0,2,,,,,,,,,1,,,76,62
239400,note_on,120,0,2,,,,,,,,,1,,,73,0
239520,note_on,240,0,3,,,,,,,,,2,,,67,0
239520,set_tempo,4800,1,0,,,,,,750000,,,,,,,
239520,note_on,0,0,2,,,,,,,,,1,,,74,62
239520,note_on,120,0,2,,,,,,,,,1,,,76,0
239520,note_on,0,0,3,,,,,,,,,2,,,66,75
239640,note_on,0,0,2,,,,,,,,,1,,,78,62
239640,note_on,120,0,2,,,,,,,,,1,,,74,0
239760,note_on,0,0,3,,,,,,,,,2,,,64,75
239760,note_on,0,0,2,,,,,,,,,1,,,79,62
239760,note_on,120,0,2,,,,,,,,,1,,,78,0
239760,note_on,0,0,3,,,,,,,,,2,,,57,75
239760,note_on,240,0,3,,,,,,,,,2,,,66,0
239880,note_on,120,0,2,,,,,,,,,1,,,79,0
239880,control_change,0,0,2,,,,,,,,,1,64,0,,
239880,note_on,0,0,2,,,,,,,,,1,,,73,62
240000,note_on,0,0,3,,,,,,,,,2,,,54,75
240000,control_change,0,0,2,,,,,,,,,1,64,127,,
240000,note_on,120,0,2,,,,,,,,,1,,,73,0
240000,note_on,0,0,3,,,,,,,,,2,,,62,75
240000,control_change,0,0,3,,,,,,,,,2,64,0,,
240000,note_on,0,0,3,,,,,,,,,2,,,57,0
240000,note_on,0,0,1,,,,,,,,,0,,,86,62
240000,note_on,0,0,2,,,,,,,,,1,,,74,62
240000,control_change,5760,0,1,,,,,,,,,0,64,127,,
240000,set_tempo,480,1,0,,,,,,600000,,,,,,,
240000,note_on,240,0,3,,,,,,,,,2,,,64,0
240120,note_on,120,0,2,,,,,,,,,1,,,74,0
240120,note_on,0,0,2,,,,,,,,,1,,,76,62
240120,note_on,0,0,1,,,,,,,,,0,,,88,62
240120,note_on,120,0,1,,,,,,,,,0,,,86,0
240240,note_on,120,0,2,,,,,,,,,1,,,76,0
240240,note_on,0,0,3,,,,,,,,,2,,,66,75
240240,control_change,0,0,3,,,,,,,,,2,64,127,,
240240,note_on,0,0,3,,,,,,,,,2,,,54,0
240240,note_on,0,0,2,,,,,,,,,1,,,72,62
240240,note_on,240,0,3,,,,,,,,,2,,,62,0
240240,note_on,120,0,1,,,,,,,,,0,,,88,0
240240,note_on,0,0,1,,,,,,,,,0,,,84,62
240360,note_on,120,0,1,,,,,,,,,0,,,84,0
240360,control_change,0,0,1,,,,,,,,,0,64,0,,
240360,note_on,0,0,1,,,,,,,,,0,,,86,62
240360,note_on,120,0,2,,,,,,,,,1,,,72,0
240360,control_change,0,0,2,,,,,,,,,1,64,0,,
240360,note_on,0,0,2,,,,,,,,,1,,,74,62
240480,note_on,1440,0,4,,,,,,,,,3,,,50,0
240480,note_on,0,0,4,,,,,,,,,3,,,43,62
240480,note_on,240,0,3,,,,,,,,,2,,,66,0
240480,note_on,0,0,3,,,,,,,,,2,,,67,75
240480,note_on,0,0,1,,,,,,,,,0,,,83,62
240480,note_on,0,0,4,,,,,,,,,3,,,31,62
240480,control_change,0,0,1,,,,,,,,,0,64,127,,
240480,note_on,0,0,4,,,,,,,,,3,,,38,0
240480,note_on,120,0,1,,,,,,,,,0,,,86,0
240480,note_on,120,0,2,,,,,,,,,1,,,74,0
240480,control_change,0,0,2,,,,,,,,,1,64,127,,
240480,note_on,0,0,2,,,,,,,,,1,,,71,62
240600,note_on,0,0,2,,,,,,,,,1,,,72,62
240600,note_on,120,0,2,,,,,,,,,1,,,71,0
240600,note_on,120,0,1,,,,,,,,,0,,,83,0
240600,note_on,0,0,1,,,,,,,,,0,,,84,62
240720,note_on,240,0,3,,,,,,,,,2,,,67,0
240720,note_on,0,0,3,,,,,,,,,2,,,62,75
240720,note_on,120,0,2,,,,,,,,,1,,,72,0
240720,note_on,0,0,1,,,,,,,,,0,,,81,62
240720,note_on,120,0,1,,,,,,,,,0,,,84,0
240720,note_on,0,0,2,,,,,,,,,1,,,69,62
240840,note_on,0,0,1,,,,,,,,,0,,,83,62
240840,note_on,120,0,1,,,,,,,,,0,,,81,0
240840,note_on,120,0,2,,,,,,,,,1,,,69,0
240840,note_on,0,0,2,,,,,,,,,1,,,71,62
240960,note_on,120,0,2,,,,,,,,,1,,,71,0
240960,note_on,0,0,2,,,,,,,,,1,,,67,62
240960,note_on,240,0,3,,,,,,,,,2,,,62,0
240960,note_on,0,0,3,,,,,,,,,2,,,59,75
240960,note_on,0,0,1,,,,,,,,,0,,,79,62
240960,note_on,120,0,1,,,,,,,,,0,,,83,0
241080,note_on,0,0,1,,,,,,,,,0,,,83,62
241080,note_on,0,0,2,,,,,,,,,1,,,71,62
241080,note_on,120,0,2,,,,,,,,,1,,,67,0
241080,note_on,120,0,1,,,,,,,,,0,,,79,0
241200,note_on,0,0,3,,,,,,,,,2,,,65,75
241200,note_on,240,0,3,,,,,,,,,2,,,59,0
241200,note_on,0,0,1,,,,,,,,,0,,,84,62
241200,note_on,120,0,2,,,,,,,,,1,,,71,0
241200,note_on,120,0,1,,,,,,,,,0,,,83,0
241200,note_on,0,0,2,,,,,,,,,1,,,72,62
241320,note_on,120,0,2,,,,,,,,,1,,,72,0
241320,note_on,0,0,2,,,,,,,,,1,,,74,62
241320,note_on,120,0,1,,,,,,,,,0,,,84,0
241320,note_on,0,0,1,,,,,,,,,0,,,86,62
241440,note_on,120,0,1,,,,,,,,,0,,,86,0
241440,note_on,0,0,1,,,,,,,,,0,,,88,62
241440,note_on,0,0,2,,,,,,,,,1,,,76,62
241440,note_on,0,0,3,,,,,,,,,2,,,64,75
241440,note_on,240,0,3,,,,,,,,,2,,,65,0
241440,note_on,120,0,2,,,,,,,,,1,,,74,0
241560,note_on,120,0,1,,,,,,,,,0,,,88,0
241560,note_on,0,0,1,,,,,,,,,0,,,91,62
241560,note_on,120,0,2,,,,,,,,,1,,,76,0
241560,note_on,0,0,2,,,,,,,,,1,,,79,62
241680,note_on,120,0,1,,,,,,,,,0,,,91,0
241680,note_on,0,0,1,,,,,,,,,0,,,90,62
241680,note_on,0,0,3,,,,,,,,,2,,,60,75
241680,note_on,240,0,3,,,,,,,,,2,,,64,0
241680,control_change,0,0,3,,,,,,,,,2,64,0,,
241680,note_on,0,0,2,,,,,,,,,1,,,78,62
241680,note_on,120,0,2,,,,,,,,,1,,,79,0
241800,control_change,0,0,2,,,,,,,,,1,64,0,,
241800,note_on,120,0,2,,,,,,,,,1,,,78,0
241800,note_on,0,0,2,,,,,,,,,1,,,76,62
241800,note_on,120,0,1,,,,,,,,,0,,,90,0
241800,control_change,0,0,1,,,,,,,,,0,64,0,,
241800,note_on,0,0,1,,,,,,,,,0,,,88,62
241920,note_on,0,0,4,,,,,,,,,3,,,43,62
241920,note_on,0,0,2,,,,,,,,,1,,,74,62
241920,note_on,0,0,4,,,,,,,,,3,,,31,0
241920,note_on,1440,0,4,,,,,,,,,3,,,43,0
241920,note_on,120,0,1,,,,,,,,,0,,,88,0
241920,control_change,0,0,2,,,,,,,,,1,64,127,,
241920,note_on,120,0,2,,,,,,,,,1,,,76,0
241920,note_on,0,0,1,,,,,,,,,0,,,86,62
241920,note_on,240,0,3,,,,,,,,,2,,,60,0
241920,control_change,0,0,3,,,,,,,,,2,64,127,,
241920,note_on,0,0,3,,,,,,,,,2,,,59,75
241920,control_change,0,0,1,,,,,,,,,0,64,127,,
241920,note_on,0,0,4,,,,,,,,,3,,,31,62
242040,note_on,120,0,1,,,,,,,,,0,,,86,0
242040,note_on,0,0,1,,,,,,,,,0,,,95,62
242040,note_on,0,0,2,,,,,,,,,1,,,83,62
242040,note_on,120,0,2,,,,,,,,,1,,,74,0
242160,note_on,0,0,3,,,,,,,,,2,,,60,75
242160,note_on,240,0,3,,,,,,,,,2,,,59,0
242160,note_on,120,0,1,,,,,,,,,0,,,95,0
242160,note_on,0,0,2,,,,,,,,,1,,,81,62
242160,note_on,120,0,2,,,,,,,,,1,,,83,0
242160,note_on,0,0,1,,,,,,,,,0,,,93,62
242280,note_on,0,0,3,,,,,,,,,2,,,59,75
242280,note_on,120,0,1,,,,,,,,,0,,,93,0
242280,note_on,0,0,1,,,,,,,,,0,,,91,62
242280,note_on,120,0,3,,,,,,,,,2,,,60,0
242280,note_on,0,0,2,,,,,,,,,1,,,79,62
242280,note_on,120,0,2,,,,,,,,,1,,,81,0
242400,note_on,120,0,1,,,,,,,,,0,,,91,0
242400,note_on,0,0,3,,,,,,,,,2,,,57,75
242400,note_on,120,0,3,,,,,,,,,2,,,59,0
242400,note_on,0,0,1,,,,,,,,,0,,,90,62
242400,note_on,0,0,2,,,,,,,,,1,,,78,62
242400,note_on,120,0,2,,,,,,,,,1,,,79,0
242520,note_on,120,0,1,,,,,,,,,0,,,90,0
242520,note_on,0,0,2,,,,,,,,,1,,,79,62
242520,note_on,120,0,2,,,,,,,,,1,,,78,0
242520,note_on,0,0,1,,,,,,,,,0,,,91,62
242640,note_on,0,0,1,,,,,,,,,0,,,93,62
242640,note_on,120,0,1,,,,,,,,,0,,,91,0
242640,note_on,0,0,3,,,,,,,,,2,,,59,75
242640,note_on,240,0,3,,,,,,,,,2,,,57,0
242640,note_on,0,0,2,,,,,,,,,1,,,81,62
242640,note_on,120,0,2,,,,,,,,,1,,,79,0
242760,note_on,0,0,1,,,,,,,,,0,,,91,62
242760,note_on,120,0,1,,,,,,,,,0,,,93,0
242760,note_on,0,0,2,,,,,,,,,1,,,79,62
242760,note_on,120,0,2,,,,,,,,,1,,,81,0
242880,note_on,0,0,3,,,,,,,,,2,,,60,75
242880,note_on,0,0,1,,,,,,,,,0,,,90,62
242880,note_on,120,0,1,,,,,,,,,0,,,91,0
242880,note_on,120,0,2,,,,,,,,,1,,,79,0
242880,note_on,0,0,2,,,,,,,,,1,,,78,62
242880,note_on,240,0,3,,,,,,,,,2,,,59,0
243000,note_on,120,0,1,,,,,,,,,0,,,90,0
243000,note_on,0,0,1,,,,,,,,,0,,,88,62
243000,note_on,120,0,2,,,,,,,,,1,,,78,0
243000,note_on,0,0,2,,,,,,,,,1,,,76,62
243120,note_on,240,0,3,,,,,,,,,2,,,60,0
243120,note_on,0,0,2,,,,,,,,,1,,,79,62
243120,note_on,0,0,3,,,,,,,,,2,,,64,75
243120,note_on,0,0,1,,,,,,,,,0,,,91,62
243120,note_on,120,0,2,,,,,,,,,1,,,76,0
243120,control_change,0,0,3,,,,,,,,,2,64,0,,
243120,note_on,120,0,1,,,,,,,,,0,,,88,0
243240,note_on,0,0,1,,,,,,,,,0,,,88,62
243240,control_change,0,0,1,,,,,,,,,0,64,0,,
243240,note_on,120,0,1,,,,,,,,,0,,,91,0
243240,control_change,0,0,2,,,,,,,,,1,64,0,,
243240,note_on,120,0,2,,,,,,,,,1,,,79,0
243240,note_on,0,0,2,,,,,,,,,1,,,76,62
243360,control_change,0,0,1,,,,,,,,,0,64,127,,
243360,note_on,0,0,2,,,,,,,,,1,,,74,62
243360,note_on,0,0,1,,,,,,,,,0,,,86,62
243360,control_change,0,0,2,,,,,,,,,1,64,127,,
243360,note_on,120,0,1,,,,,,,,,0,,,88,0
243360,note_on,240,0,3,,,,,,,,,2,,,64,0
243360,control_change,0,0,3,,,,,,,,,2,64,127,,
243360,note_on,120,0,2,,,,,,,,,1,,,76,0
243360,note_on,0,0,3,,,,,,,,,2,,,66,75
243480,note_on,0,0,2,,,,,,,,,1,,,76,62
243480,note_on,120,0,1,,,,,,,,,0,,,86,0
243480,note_on,0,0,1,,,,,,,,,0,,,88,62
243480,note_on,120,0,2,,,,,,,,,1,,,74,0
243600,note_on,240,0,3,,,,,,,,,2,,,66,0
243600,note_on,0,0,3,,,,,,,,,2,,,62,75
243600,note_on,120,0,2,,,,,,,,,1,,,76,0
243600,note_on,120,0,1,,,,,,,,,0,,,88,0
243600,note_on,0,0,2,,,,,,,,,1,,,72,62
243600,note_on,0,0,1,,,,,,,,,0,,,84,62
243720,note_on,0,0,2,,,,,,,,,1,,,74,62
243720,note_on,120,0,1,,,,,,,,,0,,,84,0
243720,note_on,0,0,1,,,,,,,,,0,,,86,62
243720,note_on,120,0,2,,,,,,,,,1,,,72,0
243840,note_on,120,0,1,,,,,,,,,0,,,86,0
243840,note_on,0,0,1,,,,,,,,,0,,,83,62
243840,note_on,240,0,3,,,,,,,,,2,,,62,0
243840,note_on,0,0,3,,,,,,,,,2,,,67,75
243840,note_on,0,0,2,,,,,,,,,1,,,71,62
243840,note_on,120,0,2,,,,,,,,,1,,,74,0
243960,note_on,120,0,2,,,,,,,,,1,,,71,0
243960,note_on,0,0,1,,,,,,,,,0,,,91,62
243960,note_on,120,0,1,,,,,,,,,0,,,83,0
243960,note_on,0,0,2,,,,,,,,,1,,,79,62
244080,note_on,120,0,2,,,,,,,,,1,,,79,0
244080,note_on,0,0,2,,,,,,,,,1,,,78,62
244080,note_on,120,0,1,,,,,,,,,0,,,91,0
244080,note_on,240,0,3,,,,,,,,,2,,,67,0
244080,note_on,0,0,3,,,,,,,,,2,,,59,75
244080,note_on,0,0,1,,,,,,,,,0,,,90,62
244200,note_on,120,0,2,,,,,,,,,1,,,78,0
244200,note_on,120,0,1,,,,,,,,,0,,,90,0
244200,note_on,0,0,1,,,,,,,,,0,,,88,62
244200,note_on,0,0,2,,,,,,,,,1,,,76,62
244320,note_on,120,0,2,,,,,,,,,1,,,76,0
244320,note_on,2400,0,4,,,,,,,,,3,,,43,0
244320,note_on,0,0,4,,,,,,,,,3,,,31,0
244320,note_on,0,0,4,,,,,,,,,3,,,48,62
244320,note_on,0,0,1,,,,,,,,,0,,,87,62
244320,note_on,120,0,1,,,,,,,,,0,,,88,0
244320,note_on,240,0,3,,,,,,,,,2,,,59,0
244320,note_on,0,0,3,,,,,,,,,2,,,60,75
244320,note_on,0,0,2,,,,,,,,,1,,,75,62
244440,note_on,0,0,1,,,,,,,,,0,,,88,62
244440,note_on,120,0,2,,,,,,,,,1,,,75,0
244440,note_on,0,0,2,,,,,,,,,1,,,76,62
244440,note_on,120,0,1,,,,,,,,,0,,,87,0
244560,note_on,0,0,2,,,,,,,,,1,,,72,62
244560,note_on,240,0,3,,,,,,,,,2,,,60,0
244560,control_change,0,0,3,,,,,,,,,2,64,0,,
244560,note_on,0,0,3,,,,,,,,,2,,,64,75
244560,note_on,120,0,1,,,,,,,,,0,,,88,0
244560,note_on,0,0,1,,,,,,,,,0,,,84,62
244560,note_on,120,0,2,,,,,,,,,1,,,76,0
244680,note_on,0,0,1,,,,,,,,,0,,,81,62
244680,note_on,0,0,2,,,,,,,,,1,,,69,62
244680,control_change,0,0,2,,,,,,,,,1,64,0,,
244680,note_on,120,0,2,,,,,,,,,1,,,72,0
244680,note_on,120,0,1,,,,,,,,,0,,,84,0
244680,control_change,0,0,1,,,,,,,,,0,64,0,,
244800,note_on,120,0,1,,,,,,,,,0,,,81,0
244800,control_change,0,0,1,,,,,,,,,0,64,127,,
244800,note_on,0,0,1,,,,,,,,,0,,,78,62
244800,note_on,0,0,4,,,,,,,,,3,,,51,62
244800,note_on,480,0,4,,,,,,,,,3,,,48,0
244800,control_change,0,0,2,,,,,,,,,1,64,127,,
244800,note_on,240,0,3,,,,,,,,,2,,,64,0
244800,control_change,0,0,3,,,,,,,,,2,64,127,,
244800,note_on,0,0,2,,,,,,,,,1,,,66,62
244800,note_on,0,0,3,,,,,,,,,2,,,60,75
244800,note_on,120,0,2,,,,,,,,,1,,,69,0
244920,note_on,120,0,2,,,,,,,,,1,,,66,0
244920,note_on,0,0,2,,,,,,,,,1,,,69,62
244920,note_on,0,0,1,,,,,,,,,0,,,81,62
244920,note_on,120,0,1,,,,,,,,,0,,,78,0
245040,note_on,0,0,1,,,,,,,,,0,,,79,62
245040,note_on,0,0,4,,,,,,,,,3,,,52,62
245040,note_on,240,0,4,,,,,,,,,3,,,51,0
245040,note_on,0,0,2,,,,,,,,,1,,,67,62
245040,note_on,120,0,2,,,,,,,,,1,,,69,0
245040,note_on,0,0,3,,,,,,,,,2,,,59,75
245040,note_on,240,0,3,,,,,,,,,2,,,60,0
245040,note_on,120,0,1,,,,,,,,,0,,,81,0
245160,note_on,0,0,1,,,,,,,,,0,,,91,62
245160,note_on,120,0,1,,,,,,,,,0,,,79,0
245160,note_on,0,0,2,,,,,,,,,1,,,79,62
245160,note_on,120,0,2,,,,,,,,,1,,,67,0
245280,note_on,240,0,3,,,,,,,,,2,,,59,0
245280,note_on,0,0,3,,,,,,,,,2,,,57,75
245280,note_on,0,0,4,,,,,,,,,3,,,48,62
245280,note_on,0,0,1,,,,,,,,,0,,,88,62
245280,note_on,120,0,1,,,,,,,,,0,,,91,0
245280,note_on,240,0,4,,,,,,,,,3,,,52,0
245280,note_on,120,0,2,,,,,,,,,1,,,79,0
245280,note_on,0,0,2,,,,,,,,,1,,,76,62
245400,note_on,120,0,1,,,,,,,,,0,,,88,0
245400,note_on,0,0,1,,,,,,,,,0,,,84,62
245400,note_on,0,0,2,,,,,,,,,1,,,72,62
245400,note_on,120,0,2,,,,,,,,,1,,,76,0
245520,note_on,240,0,4,,,,,,,,,3,,,48,0
245520,note_on,0,0,4,,,,,,,,,3,,,50,62
245520,note_on,0,0,2,,,,,,,,,1,,,69,62
245520,note_on,120,0,2,,,,,,,,,1,,,72,0
245520,note_on,120,0,1,,,,,,,,,0,,,84,0
245520,note_on,0,0,1,,,,,,,,,0,,,81,62
245520,note_on,240,0,3,,,,,,,,,2,,,57,0
245520,control_change,0,0,3,,,,,,,,,2,64,0,,
245520,note_on,0,0,3,,,,,,,,,2,,,60,75
245640,note_on,0,0,2,,,,,,,,,1,,,74,62
245640,note_on,120,0,1,,,,,,,,,0,,,81,0
245640,note_on,120,0,2,,,,,,,,,1,,,69,0
245640,note_on,0,0,1,,,,,,,,,0,,,86,62
245760,note_on,240,0,3,,,,,,,,,2,,,60,0
245760,control_change,0,0,1,,,,,,,,,0,64,0,,
245760,note_on,120,0,1,,,,,,,,,0,,,86,0
245760,note_on,0,0,2,,,,,,,,,1,,,67,62
245760,note_on,0,0,4,,,,,,,,,3,,,43,62
245760,note_on,240,0,4,,,,,,,,,3,,,50,0
245760,control_change,0,0,2,,,,,,,,,1,64,0,,
245760,note_on,120,0,2,,,,,,,,,1,,,74,0
245760,note_on,0,0,3,,,,,,,,,2,,,59,75
245760,note_on,0,0,1,,,,,,,,,0,,,79,62
245775,note_on,15,0,4,,,,,,,,,3,,,43,0
245775,note_on,15,0,3,,,,,,,,,2,,,59,0
245880,note_on,105,0,3,,,,,,,,,2,,,47,75
245880,note_on,105,0,4,,,,,,,,,3,,,35,62
246000,note_on,240,0,1,,,,,,,,,0,,,79,0
246000,note_on,0,0,3,,,,,,,,,2,,,48,75
246000,note_on,0,0,4,,,,,,,,,3,,,36,62
246000,note_on,120,0,4,,,,,,,,,3,,,35,0
246000,note_on,120,0,3,,,,,,,,,2,,,47,0
246000,note_on,240,0,2,,,,,,,,,1,,,67,0
246120,note_on,120,0,4,,,,,,,,,3,,,36,0
246120,note_on,0,0,4,,,,,,,,,3,,,37,62
246120,note_on,120,0,3,,,,,,,,,2,,,48,0
246120,note_on,0,0,3,,,,,,,,,2,,,49,75
246240,note_on,0,0,2,,,,,,,,,1,,,69,88
246240,note_on,120,0,3,,,,,,,,,2,,,49,0
246240,note_on,0,0,3,,,,,,,,,2,,,50,75
246240,control_change,0,0,3,,,,,,,,,2,64,127,,
246240,note_on,0,0,1,,,,,,,,,0,,,86,88
246240,note_on,0,0,2,,,,,,,,,1,,,74,88
246240,note_on,0,0,1,,,,,,,,,0,,,81,88
246240,note_on,240,0,1,,,,,,,,,0,,,78,88
246240,note_on,240,0,2,,,,,,,,,1,,,66,88
246240,note_on,120,0,4,,,,,,,,,3,,,37,0
246240,note_on,0,0,4,,,,,,,,,3,,,38,62
246240,control_change,0,0,4,,,,,,,,,3,64,127,,
246360,note_on,0,0,4,,,,,,,,,3,,,39,62
246360,note_on,0,0,3,,,,,,,,,2,,,51,75
246360,note_on,120,0,3,,,,,,,,,2,,,50,0
246360,note_on,120,0,4,,,,,,,,,3,,,38,0
246480,note_on,120,0,3,,,,,,,,,2,,,51,0
246480,note_on,0,0,4,,,,,,,,,3,,,40,62
246480,note_on,120,0,4,,,,,,,,,3,,,39,0
246480,note_on,0,0,3,,,,,,,,,2,,,52,75
246600,note_on,0,0,3,,,,,,,,,2,,,53,75
246600,note_on,0,0,4,,,,,,,,,3,,,41,62
246600,note_on,120,0,4,,,,,,,,,3,,,40,0
246600,note_on,120,0,3,,,,,,,,,2,,,52,0
246720,note_on,120,0,3,,,,,,,,,2,,,53,0
246720,note_on,0,0,3,,,,,,,,,2,,,54,62
246720,note_on,120,0,4,,,,,,,,,3,,,41,0
246720,note_on,0,0,4,,,,,,,,,3,,,42,62
246840,note_on,0,0,4,,,,,,,,,3,,,45,62
246840,note_on,120,0,4,,,,,,,,,3,,,42,0
246840,note_on,0,0,3,,,,,,,,,2,,,57,62
246840,note_on,120,0,3,,,,,,,,,2,,,54,0
246960,note_on,120,0,4,,,,,,,,,3,,,45,0
246960,note_on,0,0,4,,,,,,,,,3,,,43,62
246960,note_on,120,0,3,,,,,,,,,2,,,57,0
246960,note_on,0,0,3,,,,,,,,,2,,,55,62
246960,note_on,0,0,2,,,,,,,,,1,,,74,62
246960,note_on,0,0,1,,,,,,,,,0,,,83,62
246960,note_on,0,0,1,,,,,,,,,0,,,78,0
246960,note_on,0,0,1,,,,,,,,,0,,,81,0
246960,note_on,720,0,1,,,,,,,,,0,,,86,0
246960,control_change,0,0,1,,,,,,,,,0,64,127,,
246960,note_on,0,0,2,,,,,,,,,1,,,71,62
246960,control_change,0,0,2,,,,,,,,,1,64,127,,
246960,note_on,0,0,2,,,,,,,,,1,,,66,0
246960,note_on,0,0,2,,,,,,,,,1,,,69,0
246960,note_on,0,0,1,,,,,,,,,0,,,86,62
246960,note_on,720,0,2,,,,,,,,,1,,,74,0
247080,note_on,120,0,4,,,,,,,,,3,,,43,0
247080,note_on,0,0,4,,,,,,,,,3,,,47,62
247080,note_on,120,0,3,,,,,,,,,2,,,55,0
247080,note_on,0,0,3,,,,,,,,,2,,,59,62
247200,note_on,0,0,2,,,,,,,,,1,,,69,62
247200,note_on,0,0,2,,,,,,,,,1,,,71,0
247200,note_on,0,0,1,,,,,,,,,0,,,86,62
247200,note_on,240,0,1,,,,,,,,,0,,,86,0
247200,note_on,0,0,1,,,,,,,,,0,,,83,0
247200,note_on,0,0,1,,,,,,,,,0,,,81,62
247200,note_on,0,0,1,,,,,,,,,0,,,84,62
247200,note_on,0,0,3,,,,,,,,,2,,,57,62
247200,note_on,120,0,3,,,,,,,,,2,,,59,0
247200,note_on,240,0,2,,,,,,,,,1,,,74,0
247200,note_on,120,0,4,,,,,,,,,3,,,47,0
247200,note_on,0,0,4,,,,,,,,,3,,,45,62
247200,note_on,0,0,2,,,,,,,,,1,,,72,62
247200,note_on,0,0,2,,,,,,,,,1,,,74,62
247320,note_on,120,0,4,,,,,,,,,3,,,45,0
247320,note_on,0,0,4,,,,,,,,,3,,,48,62
247320,note_on,0,0,3,,,,,,,,,2,,,60,62
247320,note_on,120,0,3,,,,,,,,,2,,,57,0
247440,control_change,0,0,2,,,,,,,,,1,64,0,,
247440,note_on,240,0,1,,,,,,,,,0,,,86,0
247440,note_on,0,0,1,,,,,,,,,0,,,84,0
247440,note_on,0,0,2,,,,,,,,,1,,,74,62
247440,note_on,0,0,3,,,,,,,,,2,,,59,62
247440,note_on,0,0,2,,,,,,,,,1,,,71,62
247440,note_on,0,0,2,,,,,,,,,1,,,67,62
247440,note_on,0,0,2,,,,,,,,,1,,,69,0
247440,control_change,0,0,1,,,,,,,,,0,64,0,,
247440,note_on,0,0,4,,,,,,,,,3,,,47,62
247440,note_on,0,0,1,,,,,,,,,0,,,86,62
247440,note_on,0,0,1,,,,,,,,,0,,,83,62
247440,note_on,120,0,3,,,,,,,,,2,,,60,0
247440,note_on,0,0,1,,,,,,,,,0,,,79,62
247440,note_on,240,0,2,,,,,,,,,1,,,74,0
247440,note_on,0,0,2,,,,,,,,,1,,,72,0
247440,note_on,120,0,4,,,,,,,,,3,,,48,0
247440,note_on,0,0,1,,,,,,,,,0,,,81,0
247560,note_on,0,0,4,,,,,,,,,3,,,50,62
247560,control_change,0,0,4,,,,,,,,,3,64,0,,
247560,note_on,120,0,3,,,,,,,,,2,,,59,0
247560,control_change,0,0,3,,,,,,,,,2,64,0,,
247560,note_on,0,0,3,,,,,,,,,2,,,62,62
247560,note_on,120,0,4,,,,,,,,,3,,,47,0
247680,note_on,0,0,2,,,,,,,,,1,,,71,0
247680,note_on,240,0,2,,,,,,,,,1,,,74,0
247680,note_on,0,0,2,,,,,,,,,1,,,69,49
247680,note_on,120,0,3,,,,,,,,,2,,,62,0
247680,control_change,0,0,3,,,,,,,,,2,64,127,,
247680,note_on,0,0,2,,,,,,,,,1,,,67,0
247680,note_on,0,0,3,,,,,,,,,2,,,60,62
247680,note_on,0,0,1,,,,,,,,,0,,,81,62
247680,note_on,0,0,1,,,,,,,,,0,,,78,62
247680,note_on,0,0,1,,,,,,,,,0,,,79,0
247680,note_on,0,0,1,,,,,,,,,0,,,83,0
247680,note_on,240,0,1,,,,,,,,,0,,,86,0
247680,note_on,0,0,4,,,,,,,,,3,,,48,62
247680,control_change,0,0,4,,,,,,,,,3,64,127,,
247680,note_on,120,0,4,,,,,,,,,3,,,50,0
247680,note_on,0,0,1,,,,,,,,,0,,,86,62
247680,note_on,0,0,2,,,,,,,,,1,,,66,49
247680,note_on,0,0,2,,,,,,,,,1,,,74,49
247800,note_on,120,0,3,,,,,,,,,2,,,60,0
247800,note_on,0,0,3,,,,,,,,,2,,,59,62
247800,note_on,120,0,4,,,,,,,,,3,,,48,0
247800,note_on,0,0,4,,,,,,,,,3,,,47,62
247920,note_on,0,0,3,,,,,,,,,2,,,60,62
247920,note_on,120,0,3,,,,,,,,,2,,,59,0
247920,note_on,120,0,4,,,,,,,,,3,,,47,0
247920,note_on,0,0,4,,,,,,,,,3,,,48,62
248040,note_on,120,0,3,,,,,,,,,2,,,60,0
248040,note_on,0,0,3,,,,,,,,,2,,,48,62
248040,note_on,120,0,4,,,,,,,,,3,,,48,0
248040,note_on,0,0,4,,,,,,,,,3,,,36,62
248160,note_on,120,0,4,,,,,,,,,3,,,36,0
248160,control_change,0,0,4,,,,,,,,,3,64,0,,
248160,note_on,0,0,4,,,,,,,,,3,,,48,62
248160,note_on,120,0,3,,,,,,,,,2,,,48,0
248160,control_change,0,0,3,,,,,,,,,2,64,0,,
248160,note_on,0,0,3,,,,,,,,,2,,,60,62
248400,note_on,0,0,2,,,,,,,,,1,,,66,49
248400,control_change,0,0,2,,,,,,,,,1,64,127,,
248400,note_on,720,0,1,,,,,,,,,0,,,86,0
248400,note_on,0,0,1,,,,,,,,,0,,,81,0
248400,note_on,0,0,1,,,,,,,,,0,,,78,0
248400,note_on,0,0,1,,,,,,,,,0,,,78,62
248400,note_on,0,0,1,,,,,,,,,0,,,81,62
248400,note_on,0,0,1,,,,,,,,,0,,,86,62
248400,control_change,0,0,1,,,,,,,,,0,64,127,,
248400,note_on,0,0,2,,,,,,,,,1,,,66,0
248400,note_on,0,0,2,,,,,,,,,1,,,69,0
248400,note_on,720,0,2,,,,,,,,,1,,,74,0
248400,note_on,0,0,2,,,,,,,,,1,,,74,49
248400,note_on,0,0,2,,,,,,,,,1,,,69,49
248640,note_on,240,0,1,,,,,,,,,0,,,86,0
248640,note_on,0,0,1,,,,,,,,,0,,,78,0
248640,note_on,0,0,1,,,,,,,,,0,,,78,62
248640,note_on,0,0,1,,,,,,,,,0,,,81,62
248640,note_on,0,0,1,,,,,,,,,0,,,86,62
248640,note_on,0,0,2,,,,,,,,,1,,,66,49
248640,note_on,0,0,2,,,,,,,,,1,,,69,49
248640,note_on,0,0,2,,,,,,,,,1,,,69,0
248640,note_on,0,0,2,,,,,,,,,1,,,74,49
248640,note_on,240,0,2,,,,,,,,,1,,,74,0
248640,note_on,0,0,1,,,,,,,,,0,,,81,0
248640,note_on,0,0,2,,,,,,,,,1,,,66,0
248880,note_on,0,0,4,,,,,,,,,3,,,48,62
248880,note_on,240,0,2,,,,,,,,,1,,,74,0
248880,note_on,0,0,2,,,,,,,,,1,,,69,0
248880,control_change,0,0,1,,,,,,,,,0,64,0,,
248880,note_on,0,0,1,,,,,,,,,0,,,86,62
248880,note_on,0,0,1,,,,,,,,,0,,,81,62
248880,note_on,0,0,1,,,,,,,,,0,,,78,62
248880,note_on,0,0,1,,,,,,,,,0,,,78,0
248880,note_on,720,0,4,,,,,,,,,3,,,48,0
248880,note_on,0,0,1,,,,,,,,,0,,,81,0
248880,control_change,0,0,2,,,,,,,,,1,64,0,,
248880,note_on,0,0,2,,,,,,,,,1,,,66,49
248880,note_on,0,0,2,,,,,,,,,1,,,69,49
248880,note_on,0,0,2,,,,,,,,,1,,,74,49
248880,note_on,0,0,3,,,,,,,,,2,,,60,62
248880,note_on,720,0,3,,,,,,,,,2,,,60,0
248880,note_on,240,0,1,,,,,,,,,0,,,86,0
248880,note_on,0,0,2,,,,,,,,,1,,,66,0
249120,note_on,0,0,4,,,,,,,,,3,,,48,62
249120,control_change,0,0,3,,,,,,,,,2,64,127,,
249120,note_on,240,0,3,,,,,,,,,2,,,60,0
249120,note_on,240,0,4,,,,,,,,,3,,,48,0
249120,control_change,0,0,4,,,,,,,,,3,64,127,,
249120,note_on,0,0,1,,,,,,,,,0,,,81,62
249120,note_on,240,0,2,,,,,,,,,1,,,74,0
249120,note_on,0,0,2,,,,,,,,,1,,,69,0
249120,note_on,0,0,2,,,,,,,,,1,,,66,0
249120,note_on,0,0,2,,,,,,,,,1,,,66,49
249120,note_on,0,0,2,,,,,,,,,1,,,69,49
249120,note_on,0,0,1,,,,,,,,,0,,,87,62
249120,note_on,240,0,1,,,,,,,,,0,,,86,0
249120,note_on,0,0,1,,,,,,,,,0,,,81,0
249120,note_on,0,0,1,,,,,,,,,0,,,78,0
249120,note_on,0,0,2,,,,,,,,,1,,,75,49
249120,note_on,0,0,3,,,,,,,,,2,,,60,49
249120,note_on,0,0,1,,,,,,,,,0,,,78,62
249240,note_on,120,0,4,,,,,,,,,3,,,48,0
249240,note_on,120,0,3,,,,,,,,,2,,,60,0
249240,note_on,0,0,4,,,,,,,,,3,,,47,62
249240,note_on,0,0,3,,,,,,,,,2,,,59,49
249360,note_on,0,0,4,,,,,,,,,3,,,48,62
249360,note_on,120,0,4,,,,,,,,,3,,,47,0
249360,note_on,120,0,3,,,,,,,,,2,,,59,0
249360,note_on,0,0,3,,,,,,,,,2,,,60,49
249480,note_on,0,0,4,,,,,,,,,3,,,36,62
249480,note_on,120,0,4,,,,,,,,,3,,,48,0
249480,note_on,0,0,3,,,,,,,,,2,,,48,49
249480,note_on,120,0,3,,,,,,,,,2,,,60,0
249600,control_change,0,0,4,,,,,,,,,3,64,0,,
249600,control_change,0,0,3,,,,,,,,,2,64,0,,
249600,note_on,0,0,4,,,,,,,,,3,,,48,62
249600,note_on,120,0,4,,,,,,,,,3,,,36,0
249600,note_on,120,0,3,,,,,,,,,2,,,48,0
249600,note_on,0,0,3,,,,,,,,,2,,,60,49
249840,control_change,0,0,1,,,,,,,,,0,64,127,,
249840,note_on,0,0,1,,,,,,,,,0,,,81,0
249840,note_on,720,0,2,,,,,,,,,1,,,75,0
249840,note_on,0,0,2,,,,,,,,,1,,,69,0
249840,note_on,0,0,2,,,,,,,,,1,,,66,0
249840,control_change,0,0,2,,,,,,,,,1,64,127,,
249840,note_on,0,0,2,,,,,,,,,1,,,66,49
249840,note_on,0,0,2,,,,,,,,,1,,,69,49
249840,note_on,0,0,2,,,,,,,,,1,,,75,49
249840,note_on,720,0,1,,,,,,,,,0,,,87,0
249840,note_on,0,0,1,,,,,,,,,0,,,78,0
249840,note_on,0,0,1,,,,,,,,,0,,,78,62
249840,note_on,0,0,1,,,,,,,,,0,,,81,62
249840,note_on,0,0,1,,,,,,,,,0,,,87,62
250080,note_on,0,0,2,,,,,,,,,1,,,75,49
250080,note_on,240,0,1,,,,,,,,,0,,,87,0
250080,note_on,0,0,1,,,,,,,,,0,,,81,0
250080,note_on,0,0,2,,,,,,,,,1,,,69,49
250080,note_on,0,0,1,,,,,,,,,0,,,78,62
250080,note_on,0,0,1,,,,,,,,,0,,,81,62
250080,note_on,0,0,2,,,,,,,,,1,,,66,49
250080,note_on,0,0,2,,,,,,,,,1,,,66,0
250080,note_on,0,0,2,,,,,,,,,1,,,69,0
250080,note_on,240,0,2,,,,,,,,,1,,,75,0
250080,note_on,0,0,1,,,,,,,,,0,,,87,62
250080,note_on,0,0,1,,,,,,,,,0,,,78,0
250320,note_on,0,0,2,,,,,,,,,1,,,69,0
250320,note_on,240,0,2,,,,,,,,,1,,,75,0
250320,note_on,0,0,2,,,,,,,,,1,,,66,0
250320,note_on,720,0,3,,,,,,,,,2,,,60,0
250320,note_on,0,0,2,,,,,,,,,1,,,66,49
250320,note_on,0,0,2,,,,,,,,,1,,,69,49
250320,note_on,0,0,2,,,,,,,,,1,,,75,49
250320,note_on,0,0,3,,,,,,,,,2,,,60,49
250320,note_on,720,0,4,,,,,,,,,3,,,48,0
250320,note_on,0,0,4,,,,,,,,,3,,,48,62
250320,control_change,0,0,1,,,,,,,,,0,64,0,,
250320,note_on,0,0,1,,,,,,,,,0,,,87,62
250320,control_change,0,0,2,,,,,,,,,1,64,0,,
250320,note_on,240,0,1,,,,,,,,,0,,,87,0
250320,note_on,0,0,1,,,,,,,,,0,,,81,0
250320,note_on,0,0,1,,,,,,,,,0,,,78,0
250320,note_on,0,0,1,,,,,,,,,0,,,78,62
250320,note_on,0,0,1,,,,,,,,,0,,,81,62
250560,note_on,0,0,3,,,,,,,,,2,,,58,49
250560,note_on,240,0,4,,,,,,,,,3,,,48,0
250560,note_on,0,0,4,,,,,,,,,3,,,46,62
250560,note_on,0,0,2,,,,,,,,,1,,,65,62
250560,note_on,240,0,3,,,,,,,,,2,,,60,0
250560,note_on,0,0,2,,,,,,,,,1,,,69,0
250560,note_on,240,0,2,,,,,,,,,1,,,75,0
250560,note_on,0,0,1,,,,,,,,,0,,,87,88
250560,note_on,0,0,1,,,,,,,,,0,,,78,0
250560,note_on,0,0,1,,,,,,,,,0,,,81,0
250560,note_on,0,0,1,,,,,,,,,0,,,75,88
250560,note_on,0,0,2,,,,,,,,,1,,,77,62
250560,note_on,0,0,2,,,,,,,,,1,,,70,62
250560,note_on,240,0,1,,,,,,,,,0,,,87,0
250560,note_on,0,0,2,,,,,,,,,1,,,66,0
250560,note_on,0,0,2,,,,,,,,,1,,,82,62
250800,note_on,0,0,1,,,,,,,,,0,,,74,62
250800,note_on,240,0,1,,,,,,,,,0,,,87,0
250800,note_on,0,0,1,,,,,,,,,0,,,75,0
250800,note_on,0,0,1,,,,,,,,,0,,,86,62
251040,note_on,0,0,3,,,,,,,,,2,,,51,49
251040,note_on,0,0,1,,,,,,,,,0,,,86,88
251040,note_on,0,0,1,,,,,,,,,0,,,74,88
251040,note_on,480,0,3,,,,,,,,,2,,,58,0
251040,note_on,0,0,1,,,,,,,,,0,,,74,0
251040,note_on,0,0,4,,,,,,,,,3,,,39,62
251040,note_on,480,0,2,,,,,,,,,1,,,82,0
251040,note_on,480,0,4,,,,,,,,,3,,,46,0
251040,note_on,0,0,2,,,,,,,,,1,,,65,0
251040,note_on,0,0,2,,,,,,,,,1,,,70,0
251040,note_on,0,0,2,,,,,,,,,1,,,77,0
251040,note_on,240,0,1,,,,,,,,,0,,,86,0
251040,note_on,0,0,2,,,,,,,,,1,,,67,62
251040,note_on,0,0,2,,,,,,,,,1,,,79,62
251280,note_on,240,0,1,,,,,,,,,0,,,86,0
251280,note_on,0,0,1,,,,,,,,,0,,,74,0
251280,note_on,0,0,1,,,,,,,,,0,,,72,62
251280,note_on,0,0,1,,,,,,,,,0,,,84,62
251520,note_on,480,0,4,,,,,,,,,3,,,39,0
251520,note_on,480,0,3,,,,,,,,,2,,,51,0
251520,note_on,0,0,1,,,,,,,,,0,,,83,62
251520,control_change,0,0,1,,,,,,,,,0,64,127,,
251520,note_on,0,0,1,,,,,,,,,0,,,72,0
251520,note_on,240,0,1,,,,,,,,,0,,,84,0
251520,note_on,480,0,2,,,,,,,,,1,,,79,0
251520,note_on,0,0,2,,,,,,,,,1,,,71,62
251520,note_on,0,0,2,,,,,,,,,1,,,67,0
251520,control_change,0,0,2,,,,,,,,,1,64,127,,
251640,note_on,0,0,1,,,,,,,,,0,,,84,62
251640,note_on,120,0,1,,,,,,,,,0,,,83,0
251640,note_on,120,0,2,,,,,,,,,1,,,71,0
251640,note_on,0,0,2,,,,,,,,,1,,,72,62
251760,note_on,120,0,1,,,,,,,,,0,,,84,0
251760,note_on,0,0,3,,,,,,,,,2,,,55,49
251760,note_on,240,0,3,,,,,,,,,2,,,51,49
251760,note_on,240,0,4,,,,,,,,,3,,,39,62
251760,note_on,120,0,2,,,,,,,,,1,,,72,0
251760,note_on,0,0,2,,,,,,,,,1,,,75,62
251760,note_on,0,0,1,,,,,,,,,0,,,87,62
251760,note_on,0,0,3,,,,,,,,,2,,,60,49
251880,note_on,120,0,1,,,,,,,,,0,,,87,0
251880,control_change,0,0,2,,,,,,,,,1,64,0,,
251880,control_change,0,0,1,,,,,,,,,0,64,0,,
251880,note_on,120,0,2,,,,,,,,,1,,,75,0
251880,note_on,0,0,2,,,,,,,,,1,,,79,62
251880,note_on,0,0,1,,,,,,,,,0,,,91,62
252000,note_on,0,0,3,,,,,,,,,2,,,51,0
252000,note_on,0,0,3,,,,,,,,,2,,,53,49
252000,note_on,0,0,3,,,,,,,,,2,,,58,49
252000,note_on,0,0,3,,,,,,,,,2,,,62,49
252000,note_on,120,0,1,,,,,,,,,0,,,91,0
252000,note_on,0,0,3,,,,,,,,,2,,,55,0
252000,note_on,0,0,1,,,,,,,,,0,,,91,62
252000,note_on,0,0,2,,,,,,,,,1,,,79,62
252000,note_on,120,0,2,,,,,,,,,1,,,79,0
252000,note_on,240,0,4,,,,,,,,,3,,,39,0
252000,note_on,0,0,4,,,,,,,,,3,,,41,62
252000,note_on,240,0,3,,,,,,,,,2,,,60,0
252240,note_on,240,0,1,,,,,,,,,0,,,91,0
252240,note_on,0,0,1,,,,,,,,,0,,,82,88
252240,note_on,0,0,2,,,,,,,,,1,,,70,88
252240,note_on,240,0,2,,,,,,,,,1,,,79,0
252480,note_on,480,0,3,,,,,,,,,2,,,62,0
252480,note_on,0,0,3,,,,,,,,,2,,,53,0
252480,note_on,0,0,3,,,,,,,,,2,,,58,0
252480,note_on,480,0,4,,,,,,,,,3,,,41,0
252720,control_change,0,0,2,,,,,,,,,1,64,127,,
252720,note_on,0,0,1,,,,,,,,,0,,,82,62
252720,control_change,0,0,1,,,,,,,,,0,64,127,,
252720,note_on,480,0,1,,,,,,,,,0,,,82,0
252720,note_on,240,0,4,,,,,,,,,3,,,41,62
252720,note_on,480,0,2,,,,,,,,,1,,,70,0
252720,note_on,240,0,3,,,,,,,,,2,,,53,49
252720,note_on,0,0,3,,,,,,,,,2,,,58,49
252720,note_on,0,0,3,,,,,,,,,2,,,62,49
252720,note_on,0,0,2,,,,,,,,,1,,,70,62
252743,note_on,23,0,3,,,,,,,,,2,,,62,0
252743,note_on,0,0,3,,,,,,,,,2,,,58,0
252743,note_on,0,0,3,,,,,,,,,2,,,53,0
252743,note_on,23,0,4,,,,,,,,,3,,,41,0
252767,note_on,0,0,2,,,,,,,,,1,,,72,62
252767,note_on,47,0,2,,,,,,,,,1,,,70,0
252767,note_on,0,0,1,,,,,,,,,0,,,84,62
252767,note_on,47,0,1,,,,,,,,,0,,,82,0
252816,note_on,0,0,2,,,,,,,,,1,,,70,62
252816,note_on,0,0,1,,,,,,,,,0,,,82,62
252816,note_on,49,0,1,,,,,,,,,0,,,84,0
252816,note_on,49,0,2,,,,,,,,,1,,,72,0
252863,note_on,0,0,1,,,,,,,,,0,,,81,62
252863,note_on,47,0,2,,,,,,,,,1,,,70,0
252863,note_on,0,0,2,,,,,,,,,1,,,69,62
252863,note_on,47,0,1,,,,,,,,,0,,,82,0
252912,note_on,0,0,2,,,,,,,,,1,,,70,62
252912,note_on,49,0,2,,,,,,,,,1,,,69,0
252912,note_on,0,0,1,,,,,,,,,0,,,82,62
252912,note_on,49,0,1,,,,,,,,,0,,,81,0
252960,note_on,48,0,1,,,,,,,,,0,,,82,0
252960,note_on,217,0,3,,,,,,,,,2,,,53,49
252960,note_on,0,0,3,,,,,,,,,2,,,57,49
252960,note_on,0,0,3,,,,,,,,,2,,,63,49
252960,note_on,0,0,1,,,,,,,,,0,,,86,62
252960,note_on,48,0,2,,,,,,,,,1,,,70,0
252960,note_on,217,0,4,,,,,,,,,3,,,41,62
252960,note_on,0,0,2,,,,,,,,,1,,,74,62
252983,note_on,0,0,3,,,,,,,,,2,,,53,0
252983,note_on,0,0,3,,,,,,,,,2,,,57,0
252983,note_on,23,0,3,,,,,,,,,2,,,63,0
252983,note_on,23,0,4,,,,,,,,,3,,,41,0
253200,note_on,0,0,3,,,,,,,,,2,,,63,49
253200,note_on,0,0,3,,,,,,,,,2,,,57,49
253200,note_on,217,0,4,,,,,,,,,3,,,41,62
253200,note_on,217,0,3,,,,,,,,,2,,,53,49
253223,note_on,23,0,4,,,,,,,,,3,,,41,0
253223,note_on,0,0,3,,,,,,,,,2,,,57,0
253223,note_on,0,0,3,,,,,,,,,2,,,53,0
253223,note_on,23,0,3,,,,,,,,,2,,,63,0
253320,note_on,0,0,1,,,,,,,,,0,,,84,62
253320,control_change,0,0,1,,,,,,,,,0,64,0,,
253320,note_on,360,0,2,,,,,,,,,1,,,74,0
253320,note_on,360,0,1,,,,,,,,,0,,,86,0
253320,note_on,0,0,2,,,,,,,,,1,,,72,62
253320,control_change,0,0,2,,,,,,,,,1,64,0,,
253440,note_on,217,0,4,,,,,,,,,3,,,46,62
253440,note_on,217,0,3,,,,,,,,,2,,,53,49
253440,note_on,120,0,2,,,,,,,,,1,,,72,0
253440,note_on,0,0,2,,,,,,,,,1,,,70,62
253440,note_on,0,0,3,,,,,,,,,2,,,62,49
253440,note_on,0,0,1,,,,,,,,,0,,,82,62
253440,note_on,120,0,1,,,,,,,,,0,,,84,0
253440,note_on,0,0,3,,,,,,,,,2,,,58,49
253463,note_on,23,0,3,,,,,,,,,2,,,62,0
253463,note_on,0,0,3,,,,,,,,,2,,,58,0
253463,note_on,0,0,3,,,,,,,,,2,,,53,0
253463,note_on,23,0,4,,,,,,,,,3,,,46,0
253680,note_on,0,0,2,,,,,,,,,1,,,77,88
253680,note_on,217,0,4,,,,,,,,,3,,,31,62
253680,note_on,240,0,2,,,,,,,,,1,,,70,0
253680,note_on,0,0,2,,,,,,,,,1,,,74,88
253680,control_change,217,0,3,,,,,,,,,2,64,127,,
253680,note_on,0,0,1,,,,,,,,,0,,,86,88
253680,note_on,240,0,1,,,,,,,,,0,,,82,0
253680,note_on,0,0,4,,,,,,,,,3,,,43,62
253680,note_on,0,0,3,,,,,,,,,2,,,47,75
253680,note_on,0,0,1,,,,,,,,,0,,,89,88
253800,note_on,0,0,3,,,,,,,,,2,,,48,75
253800,note_on,120,0,3,,,,,,,,,2,,,47,0
253920,note_on,120,0,3,,,,,,,,,2,,,48,0
253920,note_on,0,0,3,,,,,,,,,2,,,49,75
254040,note_on,120,0,3,,,,,,,,,2,,,49,0
254040,note_on,0,0,3,,,,,,,,,2,,,50,75
254160,note_on,0,0,1,,,,,,,,,0,,,86,62
254160,note_on,0,0,2,,,,,,,,,1,,,74,62
254160,note_on,0,0,2,,,,,,,,,1,,,71,62
254160,note_on,0,0,2,,,,,,,,,1,,,74,0
254160,note_on,480,0,2,,,,,,,,,1,,,77,0
254160,note_on,0,0,4,,,,,,,,,3,,,31,0
254160,note_on,0,0,4,,,,,,,,,3,,,44,62
254160,note_on,0,0,1,,,,,,,,,0,,,86,0
254160,note_on,480,0,1,,,,,,,,,0,,,89,0
254160,note_on,480,0,4,,,,,,,,,3,,,43,0
254160,note_on,0,0,1,,,,,,,,,0,,,83,62
254160,note_on,120,0,3,,,,,,,,,2,,,50,0
254160,note_on,0,0,3,,,,,,,,,2,,,51,75
254183,note_on,23,0,1,,,,,,,,,0,,,86,0
254183,note_on,0,0,1,,,,,,,,,0,,,83,0
254183,note_on,23,0,4,,,,,,,,,3,,,44,0
254183,note_on,23,0,2,,,,,,,,,1,,,74,0
254183,note_on,0,0,2,,,,,,,,,1,,,71,0
254280,note_on,0,0,3,,,,,,,,,2,,,52,75
254280,note_on,120,0,3,,,,,,,,,2,,,51,0
254400,note_on,217,0,4,,,,,,,,,3,,,43,62
254400,note_on,0,0,3,,,,,,,,,2,,,53,62
254400,note_on,0,0,1,,,,,,,,,0,,,83,62
254400,note_on,217,0,1,,,,,,,,,0,,,77,62
254400,note_on,120,0,3,,,,,,,,,2,,,52,0
254400,note_on,0,0,2,,,,,,,,,1,,,71,62
254400,note_on,217,0,2,,,,,,,,,1,,,65,62
254423,note_on,23,0,2,,,,,,,,,1,,,71,0
254423,note_on,0,0,2,,,,,,,,,1,,,65,0
254423,note_on,23,0,4,,,,,,,,,3,,,43,0
254423,note_on,0,0,1,,,,,,,,,0,,,77,0
254423,note_on,23,0,1,,,,,,,,,0,,,83,0
254520,note_on,120,0,3,,,,,,,,,2,,,53,0
254520,note_on,0,0,3,,,,,,,,,2,,,55,62
254640,note_on,217,0,1,,,,,,,,,0,,,74,62
254640,note_on,0,0,3,,,,,,,,,2,,,56,62
254640,note_on,0,0,2,,,,,,,,,1,,,65,62
254640,note_on,217,0,4,,,,,,,,,3,,,31,62
254640,note_on,217,0,2,,,,,,,,,1,,,62,62
254640,note_on,120,0,3,,,,,,,,,2,,,55,0
254640,note_on,0,0,1,,,,,,,,,0,,,77,62
254663,note_on,23,0,2,,,,,,,,,1,,,65,0
254663,note_on,23,0,1,,,,,,,,,0,,,77,0
254663,note_on,0,0,1,,,,,,,,,0,,,74,0
254663,note_on,23,0,4,,,,,,,,,3,,,31,0
254663,note_on,0,0,2,,,,,,,,,1,,,62,0
254760,note_on,120,0,3,,,,,,,,,2,,,56,0
254760,control_change,0,0,3,,,,,,,,,2,64,0,,
254760,note_on,0,0,3,,,,,,,,,2,,,59,62
254880,note_on,217,0,4,,,,,,,,,3,,,36,62
254880,note_on,120,0,3,,,,,,,,,2,,,59,0
254880,note_on,0,0,3,,,,,,,,,2,,,60,62
254880,note_on,217,0,2,,,,,,,,,1,,,60,62
254880,note_on,217,0,1,,,,,,,,,0,,,72,62
254880,note_on,0,0,2,,,,,,,,,1,,,63,62
254880,note_on,0,0,1,,,,,,,,,0,,,75,62
254903,note_on,23,0,3,,,,,,,,,2,,,60,0
254903,note_on,0,0,1,,,,,,,,,0,,,72,0
254903,note_on,23,0,4,,,,,,,,,3,,,36,0
254903,note_on,23,0,2,,,,,,,,,1,,,63,0
254903,note_on,0,0,2,,,,,,,,,1,,,60,0
254903,note_on,23,0,1,,,,,,,,,0,,,75,0
255120,note_on,0,0,1,,,,,,,,,0,,,87,88
255120,note_on,217,0,4,,,,,,,,,3,,,29,62
255120,note_on,217,0,2,,,,,,,,,1,,,72,88
255120,note_on,0,0,2,,,,,,,,,1,,,75,88
255120,control_change,217,0,3,,,,,,,,,2,64,127,,
255120,note_on,0,0,3,,,,,,,,,2,,,41,75
255120,note_on,217,0,1,,,,,,,,,0,,,84,88
255240,note_on,120,0,3,,,,,,,,,2,,,41,0
255240,note_on,0,0,3,,,,,,,,,2,,,43,75
255360,note_on,120,0,3,,,,,,,,,2,,,43,0
255360,note_on,0,0,3,,,,,,,,,2,,,45,75
255480,note_on,120,0,3,,,,,,,,,2,,,45,0
255480,note_on,0,0,3,,,,,,,,,2,,,46,75
255600,note_on,0,0,3,,,,,,,,,2,,,48,75
255600,note_on,0,0,2,,,,,,,,,1,,,72,62
255600,note_on,0,0,2,,,,,,,,,1,,,69,62
255600,note_on,0,0,2,,,,,,,,,1,,,72,0
255600,note_on,480,0,2,,,,,,,,,1,,,75,0
255600,note_on,0,0,1,,,,,,,,,0,,,84,62
255600,note_on,120,0,3,,,,,,,,,2,,,46,0
255600,note_on,0,0,1,,,,,,,,,0,,,84,0
255600,note_on,480,0,4,,,,,,,,,3,,,29,0
255600,note_on,0,0,1,,,,,,,,,0,,,81,62
255600,note_on,480,0,1,,,,,,,,,0,,,87,0
255600,note_on,0,0,4,,,,,,,,,3,,,42,62
255623,note_on,23,0,4,,,,,,,,,3,,,42,0
255623,note_on,23,0,1,,,,,,,,,0,,,84,0
255623,note_on,0,0,1,,,,,,,,,0,,,81,0
255623,note_on,0,0,2,,,,,,,,,1,,,69,0
255623,note_on,23,0,2,,,,,,,,,1,,,72,0
255720,note_on,0,0,3,,,,,,,,,2,,,50,75
255720,note_on,120,0,3,,,,,,,,,2,,,48,0
255840,note_on,0,0,1,,,,,,,,,0,,,81,62
255840,note_on,217,0,1,,,,,,,,,0,,,75,62
255840,note_on,217,0,2,,,,,,,,,1,,,63,62
255840,note_on,0,0,2,,,,,,,,,1,,,69,62
255840,note_on,217,0,4,,,,,,,,,3,,,41,62
255840,note_on,0,0,3,,,,,,,,,2,,,51,62
255840,note_on,120,0,3,,,,,,,,,2,,,50,0
255863,note_on,0,0,1,,,,,,,,,0,,,75,0
255863,note_on,23,0,1,,,,,,,,,0,,,81,0
255863,note_on,23,0,2,,,,,,,,,1,,,69,0
255863,note_on,0,0,2,,,,,,,,,1,,,63,0
255863,note_on,23,0,4,,,,,,,,,3,,,41,0
255960,note_on,0,0,3,,,,,,,,,2,,,53,62
255960,note_on,120,0,3,,,,,,,,,2,,,51,0
256080,note_on,0,0,1,,,,,,,,,0,,,75,62
256080,note_on,217,0,1,,,,,,,,,0,,,72,62
256080,note_on,217,0,4,,,,,,,,,3,,,29,62
256080,note_on,0,0,3,,,,,,,,,2,,,55,62
256080,note_on,120,0,3,,,,,,,,,2,,,53,0
256080,note_on,0,0,2,,,,,,,,,1,,,63,62
256080,note_on,217,0,2,,,,,,,,,1,,,60,62
256103,note_on,0,0,2,,,,,,,,,1,,,60,0
256103,note_on,23,0,2,,,,,,,,,1,,,63,0
256103,note_on,23,0,1,,,,,,,,,0,,,75,0
256103,note_on,0,0,1,,,,,,,,,0,,,72,0
256103,note_on,23,0,4,,,,,,,,,3,,,29,0
256200,note_on,0,0,3,,,,,,,,,2,,,57,62
256200,control_change,0,0,3,,,,,,,,,2,64,0,,
256200,note_on,120,0,3,,,,,,,,,2,,,55,0
256320,note_on,217,0,4,,,,,,,,,3,,,31,62
256320,note_on,217,0,1,,,,,,,,,0,,,70,62
256320,note_on,0,0,3,,,,,,,,,2,,,58,62
256320,note_on,120,0,3,,,,,,,,,2,,,57,0
256320,note_on,217,0,2,,,,,,,,,1,,,62,62
256320,note_on,0,0,4,,,,,,,,,3,,,43,62
256320,note_on,0,0,1,,,,,,,,,0,,,74,62
256560,note_on,0,0,1,,,,,,,,,0,,,84,88
256560,note_on,240,0,1,,,,,,,,,0,,,74,0
256560,note_on,240,0,4,,,,,,,,,3,,,43,0
256560,note_on,0,0,4,,,,,,,,,3,,,31,0
256560,note_on,0,0,4,,,,,,,,,3,,,39,88
256560,note_on,0,0,1,,,,,,,,,0,,,70,0
256560,note_on,240,0,3,,,,,,,,,2,,,58,0
256560,note_on,0,0,3,,,,,,,,,2,,,51,75
256560,note_on,0,0,3,,,,,,,,,2,,,55,75
256560,note_on,0,0,3,,,,,,,,,2,,,60,75
256560,note_on,240,0,2,,,,,,,,,1,,,62,0
256560,note_on,0,0,2,,,,,,,,,1,,,72,88
256680,note_on,120,0,2,,,,,,,,,1,,,72,0
256680,note_on,0,0,2,,,,,,,,,1,,,79,88
256680,note_on,0,0,1,,,,,,,,,0,,,91,88
256680,note_on,120,0,1,,,,,,,,,0,,,84,0
256800,note_on,120,0,2,,,,,,,,,1,,,79,0
256800,note_on,0,0,2,,,,,,,,,1,,,70,88
256800,note_on,0,0,3,,,,,,,,,2,,,62,75
256800,note_on,0,0,3,,,,,,,,,2,,,53,75
256800,note_on,0,0,4,,,,,,,,,3,,,41,88
256800,note_on,0,0,3,,,,,,,,,2,,,51,0
256800,note_on,120,0,1,,,,,,,,,0,,,91,0
256800,note_on,0,0,1,,,,,,,,,0,,,82,88
256800,note_on,0,0,3,,,,,,,,,2,,,55,0
256800,note_on,240,0,3,,,,,,,,,2,,,60,0
256800,note_on,0,0,3,,,,,,,,,2,,,58,75
256800,note_on,240,0,4,,,,,,,,,3,,,39,0
256823,note_on,23,0,2,,,,,,,,,1,,,70,0
256823,note_on,23,0,1,,,,,,,,,0,,,82,0
257040,note_on,240,0,3,,,,,,,,,2,,,62,0
257040,note_on,0,0,3,,,,,,,,,2,,,58,0
257040,note_on,0,0,2,,,,,,,,,1,,,70,88
257040,note_on,0,0,3,,,,,,,,,2,,,53,0
257040,control_change,217,0,1,,,,,,,,,0,64,127,,
257040,note_on,0,0,1,,,,,,,,,0,,,82,88
257040,note_on,240,0,4,,,,,,,,,3,,,41,0
257040,control_change,217,0,2,,,,,,,,,1,64,127,,
257087,note_on,0,0,2,,,,,,,,,1,,,72,88
257087,note_on,47,0,1,,,,,,,,,0,,,82,0
257087,note_on,0,0,1,,,,,,,,,0,,,84,88
257087,note_on,47,0,2,,,,,,,,,1,,,70,0
257136,note_on,0,0,2,,,,,,,,,1,,,70,88
257136,note_on,0,0,1,,,,,,,,,0,,,82,88
257136,note_on,49,0,1,,,,,,,,,0,,,84,0
257136,note_on,49,0,2,,,,,,,,,1,,,72,0
257183,note_on,0,0,1,,,,,,,,,0,,,81,88
257183,note_on,47,0,1,,,,,,,,,0,,,82,0
257183,note_on,47,0,2,,,,,,,,,1,,,70,0
257183,note_on,0,0,2,,,,,,,,,1,,,69,88
257232,note_on,0,0,1,,,,,,,,,0,,,82,88
257232,note_on,0,0,2,,,,,,,,,1,,,70,88
257232,note_on,49,0,1,,,,,,,,,0,,,81,0
257232,note_on,49,0,2,,,,,,,,,1,,,69,0
257280,note_on,0,0,3,,,,,,,,,2,,,63,75
257280,note_on,0,0,3,,,,,,,,,2,,,57,75
257280,note_on,240,0,3,,,,,,,,,2,,,53,75
257280,note_on,240,0,4,,,,,,,,,3,,,41,88
257280,note_on,0,0,2,,,,,,,,,1,,,74,88
257280,note_on,0,0,1,,,,,,,,,0,,,86,88
257280,note_on,48,0,1,,,,,,,,,0,,,82,0
257280,note_on,48,0,2,,,,,,,,,1,,,70,0
257520,note_on,240,0,4,,,,,,,,,3,,,41,0
257520,note_on,0,0,3,,,,,,,,,2,,,53,0
257520,note_on,0,0,3,,,,,,,,,2,,,57,0
257520,note_on,240,0,3,,,,,,,,,2,,,63,0
257640,control_change,0,0,2,,,,,,,,,1,64,0,,
257640,control_change,0,0,1,,,,,,,,,0,64,0,,
257640,note_on,360,0,1,,,,,,,,,0,,,86,0
257640,note_on,360,0,2,,,,,,,,,1,,,74,0
257640,note_on,0,0,2,,,,,,,,,1,,,72,88
257640,note_on,0,0,1,,,,,,,,,0,,,84,88
257760,note_on,0,0,1,,,,,,,,,0,,,82,62
257760,control_change,0,0,1,,,,,,,,,0,64,127,,
257760,note_on,0,0,3,,,,,,,,,2,,,50,49
257760,control_change,240,0,3,,,,,,,,,2,64,127,,
257760,note_on,240,0,4,,,,,,,,,3,,,34,62
257760,note_on,120,0,1,,,,,,,,,0,,,84,0
257760,note_on,0,0,2,,,,,,,,,1,,,70,62
257760,note_on,0,0,4,,,,,,,,,3,,,46,62
257760,note_on,120,0,2,,,,,,,,,1,,,72,0
257760,control_change,0,0,2,,,,,,,,,1,64,127,,
257880,note_on,120,0,3,,,,,,,,,2,,,50,0
257880,note_on,0,0,3,,,,,,,,,2,,,53,49
258000,note_on,120,0,3,,,,,,,,,2,,,53,0
258000,note_on,0,0,3,,,,,,,,,2,,,58,49
258120,note_on,120,0,3,,,,,,,,,2,,,58,0
258120,note_on,0,0,3,,,,,,,,,2,,,53,49
258240,note_on,120,0,3,,,,,,,,,2,,,53,0
258240,note_on,0,0,3,,,,,,,,,2,,,50,49
258360,note_on,120,0,3,,,,,,,,,2,,,50,0
258360,note_on,0,0,3,,,,,,,,,2,,,53,49
258480,note_on,720,0,2,,,,,,,,,1,,,70,0
258480,note_on,0,0,2,,,,,,,,,1,,,69,62
258480,note_on,0,0,3,,,,,,,,,2,,,58,49
258480,note_on,120,0,3,,,,,,,,,2,,,53,0
258480,note_on,0,0,1,,,,,,,,,0,,,81,62
258480,note_on,720,0,1,,,,,,,,,0,,,82,0
258600,note_on,120,0,3,,,,,,,,,2,,,58,0
258600,note_on,0,0,3,,,,,,,,,2,,,53,49
258600,note_on,120,0,2,,,,,,,,,1,,,69,0
258600,note_on,0,0,2,,,,,,,,,1,,,70,62
258600,note_on,120,0,1,,,,,,,,,0,,,81,0
258600,note_on,0,0,1,,,,,,,,,0,,,82,62
258720,note_on,0,0,1,,,,,,,,,0,,,84,62
258720,note_on,120,0,2,,,,,,,,,1,,,70,0
258720,note_on,0,0,2,,,,,,,,,1,,,72,62
258720,note_on,120,0,1,,,,,,,,,0,,,82,0
258720,note_on,0,0,3,,,,,,,,,2,,,51,49
258720,note_on,120,0,3,,,,,,,,,2,,,53,0
258840,note_on,120,0,1,,,,,,,,,0,,,84,0
258840,note_on,0,0,3,,,,,,,,,2,,,53,49
258840,note_on,120,0,3,,,,,,,,,2,,,51,0
258840,note_on,0,0,1,,,,,,,,,0,,,86,62
258840,note_on,0,0,2,,,,,,,,,1,,,74,62
258840,note_on,120,0,2,,,,,,,,,1,,,72,0
258960,note_on,0,0,1,,,,,,,,,0,,,87,62
258960,note_on,0,0,3,,,,,,,,,2,,,57,49
258960,note_on,0,0,2,,,,,,,,,1,,,75,62
258960,note_on,120,0,2,,,,,,,,,1,,,74,0
258960,note_on,120,0,3,,,,,,,,,2,,,53,0
258960,note_on,120,0,1,,,,,,,,,0,,,86,0
259080,note_on,120,0,3,,,,,,,,,2,,,57,0
259080,control_change,0,0,3,,,,,,,,,2,64,0,,
259080,note_on,0,0,3,,,,,,,,,2,,,53,49
259080,note_on,0,0,2,,,,,,,,,1,,,76,62
259080,note_on,120,0,1,,,,,,,,,0,,,87,0
259080,note_on,0,0,1,,,,,,,,,0,,,88,62
259080,note_on,120,0,2,,,,,,,,,1,,,75,0
259200,note_on,0,0,3,,,,,,,,,2,,,50,49
259200,control_change,0,0,3,,,,,,,,,2,64,127,,
259200,note_on,120,0,3,,,,,,,,,2,,,53,0
259200,note_on,0,0,1,,,,,,,,,0,,,91,88
259200,note_on,0,0,2,,,,,,,,,1,,,79,88
259200,note_on,120,0,2,,,,,,,,,1,,,76,0
259200,note_on,120,0,1,,,,,,,,,0,,,88,0
259320,note_on,0,0,3,,,,,,,,,2,,,53,49
259320,note_on,120,0,3,,,,,,,,,2,,,50,0
259440,note_on,120,0,3,,,,,,,,,2,,,53,0
259440,note_on,0,0,3,,,,,,,,,2,,,58,49
259440,note_on,0,0,2,,,,,,,,,1,,,77,62
259440,control_change,0,0,2,,,,,,,,,1,64,0,,
259440,note_on,240,0,2,,,,,,,,,1,,,79,0
259440,note_on,240,0,1,,,,,,,,,0,,,91,0
259440,control_change,0,0,1,,,,,,,,,0,64,0,,
259440,note_on,0,0,1,,,,,,,,,0,,,89,62
259560,note_on,0,0,3,,,,,,,,,2,,,53,49
259560,note_on,120,0,3,,,,,,,,,2,,,58,0
259680,note_on,120,0,3,,,,,,,,,2,,,53,0
259680,note_on,0,0,3,,,,,,,,,2,,,50,49
259800,note_on,0,0,3,,,,,,,,,2,,,53,49
259800,note_on,120,0,3,,,,,,,,,2,,,50,0
259920,control_change,0,0,2,,,,,,,,,1,64,127,,
259920,note_on,120,0,3,,,,,,,,,2,,,53,0
259920,note_on,0,0,3,,,,,,,,,2,,,58,49
259920,note_on,0,0,2,,,,,,,,,1,,,75,62
259920,note_on,480,0,2,,,,,,,,,1,,,77,0
259920,note_on,480,0,1,,,,,,,,,0,,,89,0
259920,control_change,0,0,1,,,,,,,,,0,64,127,,
259920,note_on,0,0,1,,,,,,,,,0,,,87,62
260040,note_on,120,0,2,,,,,,,,,1,,,75,0
260040,note_on,0,0,3,,,,,,,,,2,,,53,49
260040,note_on,120,0,3,,,,,,,,,2,,,58,0
260040,note_on,120,0,1,,,,,,,,,0,,,87,0
260040,note_on,0,0,1,,,,,,,,,0,,,86,62
260040,note_on,0,0,2,,,,,,,,,1,,,74,62
260160,note_on,0,0,3,,,,,,,,,2,,,51,49
260160,note_on,120,0,3,,,,,,,,,2,,,53,0
260160,note_on,120,0,1,,,,,,,,,0,,,86,0
260160,note_on,0,0,1,,,,,,,,,0,,,84,62
260160,note_on,0,0,2,,,,,,,,,1,,,72,62
260160,note_on,120,0,2,,,,,,,,,1,,,74,0
260280,note_on,120,0,1,,,,,,,,,0,,,84,0
260280,note_on,0,0,1,,,,,,,,,0,,,79,62
260280,note_on,0,0,2,,,,,,,,,1,,,67,62
260280,note_on,120,0,2,,,,,,,,,1,,,72,0
260280,note_on,120,0,3,,,,,,,,,2,,,51,0
260280,note_on,0,0,3,,,,,,,,,2,,,53,49
260400,note_on,0,0,1,,,,,,,,,0,,,82,62
260400,note_on,120,0,1,,,,,,,,,0,,,79,0
260400,note_on,120,0,2,,,,,,,,,1,,,67,0
260400,note_on,0,0,2,,,,,,,,,1,,,70,62
260400,note_on,120,0,3,,,,,,,,,2,,,53,0
260400,note_on,0,0,3,,,,,,,,,2,,,57,49
260520,note_on,120,0,2,,,,,,,,,1,,,70,0
260520,note_on,0,0,2,,,,,,,,,1,,,69,62
260520,note_on,120,0,1,,,,,,,,,0,,,82,0
260520,note_on,0,0,1,,,,,,,,,0,,,81,62
260520,note_on,120,0,3,,,,,,,,,2,,,57,0
260520,control_change,0,0,3,,,,,,,,,2,64,0,,
260520,note_on,0,0,3,,,,,,,,,2,,,53,49
260640,control_change,0,0,3,,,,,,,,,2,64,127,,
260640,note_on,0,0,2,,,,,,,,,1,,,72,88
260640,note_on,120,0,2,,,,,,,,,1,,,69,0
260640,note_on,0,0,1,,,,,,,,,0,,,84,88
260640,note_on,120,0,1,,,,,,,,,0,,,81,0
260640,note_on,2880,0,4,,,,,,,,,3,,,46,0
260640,note_on,0,0,4,,,,,,,,,3,,,34,0
260640,note_on,0,0,4,,,,,,,,,3,,,46,62
260640,note_on,0,0,4,,,,,,,,,3,,,34,62
260640,note_on,120,0,3,,,,,,,,,2,,,53,0
260640,note_on,0,0,3,,,,,,,,,2,,,50,49
260760,note_on,120,0,3,,,,,,,,,2,,,50,0
260760,note_on,0,0,3,,,,,,,,,2,,,53,49
260880,note_on,0,0,2,,,,,,,,,1,,,70,62
260880,note_on,240,0,2,,,,,,,,,1,,,72,0
260880,note_on,240,0,1,,,,,,,,,0,,,84,0
260880,note_on,0,0,1,,,,,,,,,0,,,82,62
260880,note_on,0,0,3,,,,,,,,,2,,,58,49
260880,note_on,120,0,3,,,,,,,,,2,,,53,0
261000,note_on,120,0,3,,,,,,,,,2,,,58,0
261000,note_on,0,0,3,,,,,,,,,2,,,53,49
261120,note_on,0,0,3,,,,,,,,,2,,,50,49
261120,control_change,240,0,1,,,,,,,,,0,64,0,,
261120,control_change,240,0,2,,,,,,,,,1,64,0,,
261120,note_on,120,0,3,,,,,,,,,2,,,53,0
261240,note_on,120,0,3,,,,,,,,,2,,,50,0
261240,note_on,0,0,3,,,,,,,,,2,,,53,49
261360,note_on,240,0,1,,,,,,,,,0,,,82,0
261360,control_change,0,0,1,,,,,,,,,0,64,127,,
261360,note_on,0,0,1,,,,,,,,,0,,,81,62
261360,note_on,240,0,2,,,,,,,,,1,,,70,0
261360,note_on,0,0,2,,,,,,,,,1,,,69,62
261360,note_on,0,0,3,,,,,,,,,2,,,58,49
261360,control_change,0,0,2,,,,,,,,,1,64,127,,
261360,note_on,120,0,3,,,,,,,,,2,,,53,0
261480,note_on,120,0,3,,,,,,,,,2,,,58,0
261480,note_on,0,0,3,,,,,,,,,2,,,53,49
261480,note_on,0,0,1,,,,,,,,,0,,,82,62
261480,note_on,120,0,1,,,,,,,,,0,,,81,0
261480,note_on,120,0,2,,,,,,,,,1,,,69,0
261480,note_on,0,0,2,,,,,,,,,1,,,70,62
261600,note_on,120,0,3,,,,,,,,,2,,,53,0
261600,note_on,0,0,1,,,,,,,,,0,,,84,62
261600,note_on,120,0,1,,,,,,,,,0,,,82,0
261600,note_on,120,0,2,,,,,,,,,1,,,70,0
261600,note_on,0,0,2,,,,,,,,,1,,,72,62
261600,note_on,0,0,3,,,,,,,,,2,,,51,49
261720,note_on,0,0,1,,,,,,,,,0,,,86,62
261720,note_on,0,0,3,,,,,,,,,2,,,53,49
261720,note_on,120,0,3,,,,,,,,,2,,,51,0
261720,note_on,0,0,2,,,,,,,,,1,,,74,62
261720,note_on,120,0,2,,,,,,,,,1,,,72,0
261720,note_on,120,0,1,,,,,,,,,0,,,84,0
261840,note_on,120,0,1,,,,,,,,,0,,,86,0
261840,note_on,120,0,2,,,,,,,,,1,,,74,0
261840,note_on,120,0,3,,,,,,,,,2,,,53,0
261840,note_on,0,0,3,,,,,,,,,2,,,57,49
261840,note_on,0,0,1,,,,,,,,,0,,,87,62
261840,note_on,0,0,2,,,,,,,,,1,,,75,62
261960,note_on,120,0,1,,,,,,,,,0,,,87,0
261960,control_change,0,0,1,,,,,,,,,0,64,0,,
261960,note_on,0,0,1,,,,,,,,,0,,,88,62
261960,note_on,120,0,3,,,,,,,,,2,,,57,0
261960,note_on,0,0,3,,,,,,,,,2,,,53,49
261960,control_change,0,0,2,,,,,,,,,1,64,0,,
261960,note_on,120,0,2,,,,,,,,,1,,,75,0
261960,note_on,0,0,2,,,,,,,,,1,,,76,62
261960,control_change,0,0,3,,,,,,,,,2,64,0,,
262080,note_on,0,0,3,,,,,,,,,2,,,50,49
262080,control_change,0,0,3,,,,,,,,,2,64,127,,
262080,note_on,120,0,3,,,,,,,,,2,,,53,0
262080,note_on,120,0,1,,,,,,,,,0,,,88,0
262080,note_on,0,0,2,,,,,,,,,1,,,79,88
262080,note_on,0,0,1,,,,,,,,,0,,,91,88
262080,note_on,120,0,2,,,,,,,,,1,,,76,0
262200,note_on,120,0,3,,,,,,,,,2,,,50,0
262200,note_on,0,0,3,,,,,,,,,2,,,53,49
262320,note_on,240,0,1,,,,,,,,,0,,,91,0
262320,note_on,0,0,1,,,,,,,,,0,,,89,62
262320,note_on,120,0,3,,,,,,,,,2,,,53,0
262320,note_on,0,0,2,,,,,,,,,1,,,77,62
262320,note_on,240,0,2,,,,,,,,,1,,,79,0
262320,note_on,0,0,3,,,,,,,,,2,,,58,49
262440,note_on,120,0,3,,,,,,,,,2,,,58,0
262440,note_on,0,0,3,,,,,,,,,2,,,53,49
262560,note_on,120,0,3,,,,,,,,,2,,,53,0
262560,note_on,0,0,3,,,,,,,,,2,,,50,49
262680,note_on,120,0,3,,,,,,,,,2,,,50,0
262680,note_on,0,0,3,,,,,,,,,2,,,53,49
262800,control_change,0,0,2,,,,,,,,,1,64,127,,
262800,note_on,120,0,3,,,,,,,,,2,,,53,0
262800,note_on,480,0,2,,,,,,,,,1,,,77,0
262800,note_on,0,0,1,,,,,,,,,0,,,87,62
262800,note_on,0,0,3,,,,,,,,,2,,,58,49
262800,note_on,480,0,1,,,,,,,,,0,,,89,0
262800,note_on,0,0,2,,,,,,,,,1,,,75,62
262800,control_change,0,0,1,,,,,,,,,0,64,127,,
262920,note_on,120,0,1,,,,,,,,,0,,,87,0
262920,note_on,0,0,2,,,,,,,,,1,,,74,62
262920,note_on,120,0,2,,,,,,,,,1,,,75,0
262920,note_on,0,0,3,,,,,,,,,2,,,53,49
262920,note_on,120,0,3,,,,,,,,,2,,,58,0
262920,note_on,0,0,1,,,,,,,,,0,,,86,62
263040,note_on,120,0,2,,,,,,,,,1,,,74,0
263040,note_on,0,0,2,,,,,,,,,1,,,72,62
263040,note_on,120,0,1,,,,,,,,,0,,,86,0
263040,note_on,0,0,1,,,,,,,,,0,,,84,62
263040,note_on,120,0,3,,,,,,,,,2,,,53,0
263040,note_on,0,0,3,,,,,,,,,2,,,51,49
263160,note_on,0,0,1,,,,,,,,,0,,,79,62
263160,note_on,120,0,1,,,,,,,,,0,,,84,0
263160,note_on,0,0,2,,,,,,,,,1,,,67,62
263160,note_on,120,0,3,,,,,,,,,2,,,51,0
263160,note_on,0,0,3,,,,,,,,,2,,,53,49
263160,note_on,120,0,2,,,,,,,,,1,,,72,0
263280,note_on,0,0,1,,,,,,,,,0,,,82,62
263280,note_on,120,0,1,,,,,,,,,0,,,79,0
263280,note_on,120,0,2,,,,,,,,,1,,,67,0
263280,note_on,0,0,2,,,,,,,,,1,,,70,62
263280,note_on,0,0,3,,,,,,,,,2,,,57,49
263280,note_on,120,0,3,,,,,,,,,2,,,53,0
263400,note_on,120,0,1,,,,,,,,,0,,,82,0
263400,note_on,0,0,2,,,,,,,,,1,,,69,62
263400,control_change,0,0,3,,,,,,,,,2,64,0,,
263400,note_on,0,0,1,,,,,,,,,0,,,81,62
263400,control_change,0,0,2,,,,,,,,,1,64,0,,
263400,note_on,120,0,2,,,,,,,,,1,,,70,0
263400,note_on,0,0,3,,,,,,,,,2,,,53,49
263400,note_on,120,0,3,,,,,,,,,2,,,57,0
263520,control_change,0,0,3,,,,,,,,,2,64,127,,
263520,note_on,0,0,3,,,,,,,,,2,,,50,49
263520,note_on,120,0,3,,,,,,,,,2,,,53,0
263520,note_on,0,0,4,,,,,,,,,3,,,34,62
263520,control_change,0,0,2,,,,,,,,,1,64,127,,
263520,note_on,0,0,4,,,,,,,,,3,,,34,0
263520,note_on,2880,0,4,,,,,,,,,3,,,46,0
263520,note_on,120,0,2,,,,,,,,,1,,,69,0
263520,note_on,0,0,2,,,,,,,,,1,,,74,62
263520,note_on,0,0,1,,,,,,,,,0,,,84,88
263520,note_on,120,0,1,,,,,,,,,0,,,81,0
263520,note_on,0,0,4,,,,,,,,,3,,,46,62
263640,note_on,120,0,3,,,,,,,,,2,,,50,0
263640,note_on,120,0,2,,,,,,,,,1,,,74,0
263640,note_on,0,0,2,,,,,,,,,1,,,75,62
263640,note_on,0,0,3,,,,,,,,,2,,,53,49
263760,note_on,0,0,3,,,,,,,,,2,,,58,49
263760,note_on,120,0,2,,,,,,,,,1,,,75,0
263760,note_on,0,0,2,,,,,,,,,1,,,76,62
263760,note_on,120,0,3,,,,,,,,,2,,,53,0
263760,note_on,240,0,1,,,,,,,,,0,,,84,0
263760,control_change,0,0,1,,,,,,,,,0,64,0,,
263760,note_on,0,0,1,,,,,,,,,0,,,82,62
263880,note_on,120,0,2,,,,,,,,,1,,,76,0
263880,note_on,0,0,3,,,,,,,,,2,,,53,49
263880,note_on,120,0,3,,,,,,,,,2,,,58,0
263880,note_on,0,0,2,,,,,,,,,1,,,77,62
264000,note_on,0,0,2,,,,,,,,,1,,,79,88
264000,note_on,120,0,3,,,,,,,,,2,,,53,0
264000,note_on,0,0,3,,,,,,,,,2,,,50,49
264000,note_on,120,0,2,,,,,,,,,1,,,77,0
264120,note_on,120,0,3,,,,,,,,,2,,,50,0
264120,note_on,0,0,3,,,,,,,,,2,,,53,49
264240,note_on,120,0,3,,,,,,,,,2,,,53,0
264240,note_on,0,0,3,,,,,,,,,2,,,58,49
264240,control_change,0,0,2,,,,,,,,,1,64,0,,
264240,note_on,0,0,2,,,,,,,,,1,,,77,62
264240,note_on,240,0,2,,,,,,,,,1,,,79,0
264240,note_on,480,0,1,,,,,,,,,0,,,82,0
264240,control_change,0,0,1,,,,,,,,,0,64,127,,
264240,note_on,0,0,1,,,,,,,,,0,,,81,62
264360,note_on,120,0,1,,,,,,,,,0,,,81,0
264360,note_on,0,0,1,,,,,,,,,0,,,82,62
264360,note_on,120,0,3,,,,,,,,,2,,,58,0
264360,note_on,0,0,3,,,,,,,,,2,,,53,49
264480,note_on,0,0,1,,,,,,,,,0,,,84,62
264480,note_on,120,0,3,,,,,,,,,2,,,53,0
264480,note_on,0,0,3,,,,,,,,,2,,,51,49
264480,note_on,120,0,1,,,,,,,,,0,,,82,0
264600,note_on,120,0,3,,,,,,,,,2,,,51,0
264600,note_on,0,0,3,,,,,,,,,2,,,53,49
264600,note_on,0,0,1,,,,,,,,,0,,,86,62
264600,note_on,120,0,1,,,,,,,,,0,,,84,0
264720,note_on,0,0,3,,,,,,,,,2,,,57,49
264720,note_on,120,0,3,,,,,,,,,2,,,53,0
264720,note_on,0,0,1,,,,,,,,,0,,,87,62
264720,note_on,120,0,1,,,,,,,,,0,,,86,0
264840,note_on,120,0,3,,,,,,,,,2,,,57,0
264840,note_on,0,0,3,,,,,,,,,2,,,53,49
264840,control_change,0,0,3,,,,,,,,,2,64,0,,
264840,note_on,120,0,1,,,,,,,,,0,,,87,0
264840,note_on,0,0,1,,,,,,,,,0,,,81,62
264960,control_change,0,0,2,,,,,,,,,1,64,127,,
264960,note_on,120,0,1,,,,,,,,,0,,,81,0
264960,note_on,0,0,2,,,,,,,,,1,,,74,62
264960,note_on,720,0,2,,,,,,,,,1,,,77,0
264960,note_on,120,0,3,,,,,,,,,2,,,53,0
264960,control_change,0,0,3,,,,,,,,,2,64,127,,
264960,note_on,0,0,1,,,,,,,,,0,,,84,62
264960,note_on,0,0,3,,,,,,,,,2,,,50,49
265080,note_on,120,0,3,,,,,,,,,2,,,50,0
265080,note_on,0,0,3,,,,,,,,,2,,,53,49
265080,note_on,0,0,2,,,,,,,,,1,,,75,62
265080,note_on,120,0,2,,,,,,,,,1,,,74,0
265200,note_on,240,0,1,,,,,,,,,0,,,84,0
265200,note_on,0,0,2,,,,,,,,,1,,,76,62
265200,note_on,120,0,3,,,,,,,,,2,,,53,0
265200,note_on,120,0,2,,,,,,,,,1,,,75,0
265200,note_on,0,0,3,,,,,,,,,2,,,58,49
265200,note_on,0,0,1,,,,,,,,,0,,,82,62
265320,note_on,120,0,3,,,,,,,,,2,,,58,0
265320,note_on,0,0,3,,,,,,,,,2,,,53,49
265320,note_on,120,0,2,,,,,,,,,1,,,76,0
265320,note_on,0,0,2,,,,,,,,,1,,,77,62
265440,note_on,120,0,2,,,,,,,,,1,,,77,0
265440,note_on,0,0,3,,,,,,,,,2,,,50,49
265440,note_on,120,0,3,,,,,,,,,2,,,53,0
265440,control_change,240,0,1,,,,,,,,,0,64,0,,
265440,note_on,0,0,2,,,,,,,,,1,,,79,88
265560,note_on,120,0,3,,,,,,,,,2,,,50,0
265560,note_on,0,0,3,,,,,,,,,2,,,53,49
265680,note_on,240,0,1,,,,,,,,,0,,,82,0
265680,note_on,0,0,1,,,,,,,,,0,,,81,62
265680,note_on,0,0,3,,,,,,,,,2,,,58,49
265680,note_on,120,0,3,,,,,,,,,2,,,53,0
265680,control_change,0,0,1,,,,,,,,,0,64,127,,
265680,control_change,0,0,2,,,,,,,,,1,64,0,,
265680,note_on,240,0,2,,,,,,,,,1,,,79,0
265680,note_on,0,0,2,,,,,,,,,1,,,77,62
265800,note_on,120,0,3,,,,,,,,,2,,,58,0
265800,note_on,0,0,3,,,,,,,,,2,,,53,49
265800,note_on,120,0,1,,,,,,,,,0,,,81,0
265800,note_on,0,0,1,,,,,,,,,0,,,82,62
265920,note_on,120,0,3,,,,,,,,,2,,,53,0
265920,note_on,0,0,3,,,,,,,,,2,,,51,49
265920,note_on,120,0,1,,,,,,,,,0,,,82,0
265920,note_on,0,0,1,,,,,,,,,0,,,84,62
266040,note_on,120,0,3,,,,,,,,,2,,,51,0
266040,note_on,0,0,3,,,,,,,,,2,,,53,49
266040,note_on,120,0,1,,,,,,,,,0,,,84,0
266040,note_on,0,0,1,,,,,,,,,0,,,86,62
266160,note_on,120,0,3,,,,,,,,,2,,,53,0
266160,note_on,0,0,1,,,,,,,,,0,,,87,62
266160,note_on,0,0,3,,,,,,,,,2,,,57,49
266160,note_on,120,0,1,,,,,,,,,0,,,86,0
266280,note_on,120,0,1,,,,,,,,,0,,,87,0
266280,control_change,0,0,3,,,,,,,,,2,64,0,,
266280,note_on,120,0,3,,,,,,,,,2,,,57,0
266280,note_on,0,0,3,,,,,,,,,2,,,53,49
266280,note_on,0,0,1,,,,,,,,,0,,,81,62
266400,note_on,0,0,4,,,,,,,,,3,,,46,62
266400,note_on,2880,0,4,,,,,,,,,3,,,46,0
266400,note_on,720,0,2,,,,,,,,,1,,,77,0
266400,note_on,0,0,4,,,,,,,,,3,,,34,0
266400,note_on,0,0,4,,,,,,,,,3,,,34,62
266400,note_on,0,0,3,,,,,,,,,2,,,50,49
266400,note_on,0,0,1,,,,,,,,,0,,,84,62
266400,note_on,120,0,1,,,,,,,,,0,,,81,0
266400,note_on,120,0,3,,,,,,,,,2,,,53,0
266400,control_change,0,0,3,,,,,,,,,2,64,127,,
266520,note_on,120,0,3,,,,,,,,,2,,,50,0
266520,note_on,0,0,3,,,,,,,,,2,,,53,49
266640,note_on,240,0,1,,,,,,,,,0,,,84,0
266640,note_on,0,0,1,,,,,,,,,0,,,82,62
266640,note_on,120,0,3,,,,,,,,,2,,,53,0
266640,note_on,0,0,3,,,,,,,,,2,,,58,49
266760,note_on,0,0,3,,,,,,,,,2,,,53,49
266760,note_on,120,0,3,,,,,,,,,2,,,58,0
266880,note_on,0,0,3,,,,,,,,,2,,,50,49
266880,control_change,240,0,1,,,,,,,,,0,64,0,,
266880,note_on,120,0,3,,,,,,,,,2,,,53,0
266880,note_on,480,0,2,,,,,,,,,1,,,77,62
267000,note_on,120,0,3,,,,,,,,,2,,,50,0
267000,note_on,0,0,3,,,,,,,,,2,,,53,49
267120,note_on,0,0,2,,,,,,,,,1,,,74,62
267120,note_on,120,0,3,,,,,,,,,2,,,53,0
267120,note_on,0,0,3,,,,,,,,,2,,,58,49
267120,note_on,240,0,2,,,,,,,,,1,,,77,0
267240,note_on,120,0,3,,,,,,,,,2,,,58,0
267240,note_on,0,0,3,,,,,,,,,2,,,53,49
267360,note_on,120,0,3,,,,,,,,,2,,,53,0
267360,note_on,0,0,3,,,,,,,,,2,,,50,49
267480,note_on,120,0,3,,,,,,,,,2,,,50,0
267480,note_on,0,0,3,,,,,,,,,2,,,53,49
267600,note_on,0,0,3,,,,,,,,,2,,,58,49
267600,note_on,120,0,3,,,,,,,,,2,,,53,0
267720,note_on,120,0,3,,,,,,,,,2,,,58,0
267720,note_on,0,0,3,,,,,,,,,2,,,53,49
267720,control_change,0,0,3,,,,,,,,,2,64,0,,
267840,note_on,0,0,4,,,,,,,,,3,,,43,62
267840,note_on,720,0,2,,,,,,,,,1,,,74,0
267840,note_on,0,0,4,,,,,,,,,3,,,31,62
267840,note_on,0,0,4,,,,,,,,,3,,,34,0
267840,note_on,1440,0,4,,,,,,,,,3,,,46,0
267840,note_on,0,0,3,,,,,,,,,2,,,50,49
267840,note_on,0,0,1,,,,,,,,,0,,,84,62
267840,note_on,960,0,1,,,,,,,,,0,,,82,0
267840,control_change,0,0,3,,,,,,,,,2,64,127,,
267840,note_on,120,0,3,,,,,,,,,2,,,53,0
267960,note_on,0,0,3,,,,,,,,,2,,,55,49
267960,note_on,120,0,3,,,,,,,,,2,,,50,0
268080,note_on,0,0,3,,,,,,,,,2,,,58,49
268080,note_on,120,0,3,,,,,,,,,2,,,55,0
268080,note_on,240,0,1,,,,,,,,,0,,,84,0
268080,note_on,0,0,1,,,,,,,,,0,,,82,62
268200,note_on,120,0,3,,,,,,,,,2,,,58,0
268200,note_on,0,0,3,,,,,,,,,2,,,55,49
268320,note_on,0,0,3,,,,,,,,,2,,,50,49
268320,note_on,480,0,2,,,,,,,,,1,,,79,62
268320,note_on,120,0,3,,,,,,,,,2,,,55,0
268440,note_on,120,0,3,,,,,,,,,2,,,50,0
268440,note_on,0,0,3,,,,,,,,,2,,,55,49
268560,note_on,0,0,3,,,,,,,,,2,,,58,49
268560,note_on,120,0,3,,,,,,,,,2,,,55,0
268560,note_on,240,0,2,,,,,,,,,1,,,79,0
268560,note_on,0,0,2,,,,,,,,,1,,,74,62
268680,note_on,0,0,3,,,,,,,,,2,,,55,49
268680,note_on,120,0,3,,,,,,,,,2,,,58,0
268800,note_on,120,0,3,,,,,,,,,2,,,55,0
268800,note_on,0,0,3,,,,,,,,,2,,,50,49
268920,note_on,120,0,3,,,,,,,,,2,,,50,0
268920,note_on,0,0,3,,,,,,,,,2,,,55,49
269040,note_on,0,0,3,,,,,,,,,2,,,58,49
269040,note_on,120,0,3,,,,,,,,,2,,,55,0
269160,control_change,0,0,3,,,,,,,,,2,64,0,,
269160,note_on,0,0,3,,,,,,,,,2,,,55,49
269160,note_on,120,0,3,,,,,,,,,2,,,58,0
269280,note_on,120,0,3,,,,,,,,,2,,,55,0
269280,note_on,1200,0,1,,,,,,,,,0,,,82,0
269280,note_on,0,0,1,,,,,,,,,0,,,82,62
269280,note_on,720,0,2,,,,,,,,,1,,,74,0
269280,note_on,1440,0,4,,,,,,,,,3,,,43,0
269280,note_on,0,0,4,,,,,,,,,3,,,31,0
269280,note_on,0,0,4,,,,,,,,,3,,,45,62
269280,note_on,0,0,4,,,,,,,,,3,,,33,62
269400,note_on,0,0,3,,,,,,,,,2,,,49,49
269400,control_change,120,0,3,,,,,,,,,2,64,127,,
269520,note_on,0,0,1,,,,,,,,,0,,,81,62
269520,note_on,0,0,4,,,,,,,,,3,,,33,0
269520,note_on,240,0,4,,,,,,,,,3,,,45,0
269520,note_on,120,0,3,,,,,,,,,2,,,49,0
269520,note_on,240,0,1,,,,,,,,,0,,,82,0
269520,note_on,0,0,3,,,,,,,,,2,,,52,49
269640,note_on,120,0,3,,,,,,,,,2,,,52,0
269640,note_on,0,0,3,,,,,,,,,2,,,55,49
269760,note_on,0,0,3,,,,,,,,,2,,,61,49
269760,note_on,480,0,2,,,,,,,,,1,,,79,62
269760,note_on,120,0,3,,,,,,,,,2,,,55,0
269880,note_on,120,0,3,,,,,,,,,2,,,61,0
269880,note_on,0,0,3,,,,,,,,,2,,,55,49
270000,note_on,120,0,3,,,,,,,,,2,,,55,0
270000,note_on,0,0,3,,,,,,,,,2,,,52,49
270000,note_on,0,0,2,,,,,,,,,1,,,76,62
270000,note_on,240,0,2,,,,,,,,,1,,,79,0
270120,note_on,0,0,3,,,,,,,,,2,,,49,49
270120,note_on,120,0,3,,,,,,,,,2,,,52,0
270120,control_change,0,0,3,,,,,,,,,2,64,0,,
270240,note_on,0,0,4,,,,,,,,,3,,,45,62
270240,note_on,120,0,3,,,,,,,,,2,,,49,0
270240,note_on,720,0,4,,,,,,,,,3,,,33,62
270360,note_on,120,0,3,,,,,,,,,2,,,49,49
270480,note_on,0,0,4,,,,,,,,,3,,,33,0
270480,note_on,240,0,4,,,,,,,,,3,,,45,0
270480,note_on,120,0,3,,,,,,,,,2,,,49,0
270480,note_on,0,0,3,,,,,,,,,2,,,52,49
270600,note_on,0,0,3,,,,,,,,,2,,,55,49
270600,note_on,120,0,3,,,,,,,,,2,,,52,0
270720,note_on,0,0,1,,,,,,,,,0,,,86,62
270720,note_on,1200,0,1,,,,,,,,,0,,,81,0
270720,note_on,720,0,2,,,,,,,,,1,,,76,0
270720,note_on,0,0,4,,,,,,,,,3,,,45,62
270720,note_on,240,0,4,,,,,,,,,3,,,33,62
270720,note_on,120,0,3,,,,,,,,,2,,,55,0
270840,control_change,120,0,3,,,,,,,,,2,64,127,,
270840,note_on,0,0,3,,,,,,,,,2,,,50,49
270960,note_on,0,0,4,,,,,,,,,3,,,33,0
270960,note_on,0,0,1,,,,,,,,,0,,,81,62
270960,note_on,240,0,1,,,,,,,,,0,,,86,0
270960,note_on,240,0,4,,,,,,,,,3,,,45,0
270960,note_on,0,0,3,,,,,,,,,2,,,53,49
270960,note_on,120,0,3,,,,,,,,,2,,,50,0
271080,note_on,0,0,3,,,,,,,,,2,,,57,49
271080,note_on,120,0,3,,,,,,,,,2,,,53,0
271200,note_on,480,0,2,,,,,,,,,1,,,77,62
271200,note_on,0,0,3,,,,,,,,,2,,,62,49
271200,note_on,120,0,3,,,,,,,,,2,,,57,0
271320,note_on,0,0,3,,,,,,,,,2,,,57,49
271320,note_on,120,0,3,,,,,,,,,2,,,62,0
271440,note_on,0,0,3,,,,,,,,,2,,,53,49
271440,note_on,120,0,3,,,,,,,,,2,,,57,0
271440,note_on,0,0,2,,,,,,,,,1,,,74,62
271440,note_on,240,0,2,,,,,,,,,1,,,77,0
271560,note_on,0,0,3,,,,,,,,,2,,,50,49
271560,control_change,0,0,3,,,,,,,,,2,64,0,,
271560,note_on,120,0,3,,,,,,,,,2,,,53,0
271680,note_on,0,0,4,,,,,,,,,3,,,45,62
271680,note_on,720,0,4,,,,,,,,,3,,,33,62
271680,note_on,120,0,3,,,,,,,,,2,,,50,0
271800,note_on,120,0,3,,,,,,,,,2,,,50,49
271920,note_on,0,0,3,,,,,,,,,2,,,53,49
271920,note_on,240,0,4,,,,,,,,,3,,,45,0
271920,note_on,0,0,4,,,,,,,,,3,,,33,0
271920,note_on,120,0,3,,,,,,,,,2,,,50,0
272040,note_on,120,0,3,,,,,,,,,2,,,53,0
272040,note_on,0,0,3,,,,,,,,,2,,,57,49
272160,note_on,1200,0,1,,,,,,,,,0,,,81,0
272160,note_on,720,0,2,,,,,,,,,1,,,74,0
272160,note_on,240,0,4,,,,,,,,,3,,,34,62
272160,note_on,0,0,4,,,,,,,,,3,,,46,62
272160,note_on,0,0,1,,,,,,,,,0,,,89,62
272160,note_on,120,0,3,,,,,,,,,2,,,57,0
272280,note_on,0,0,3,,,,,,,,,2,,,50,49
272280,control_change,120,0,3,,,,,,,,,2,64,127,,
272400,note_on,0,0,1,,,,,,,,,0,,,80,62
272400,note_on,0,0,4,,,,,,,,,3,,,34,0
272400,note_on,240,0,4,,,,,,,,,3,,,46,0
272400,note_on,240,0,1,,,,,,,,,0,,,89,0
272400,note_on,120,0,3,,,,,,,,,2,,,50,0
272400,note_on,0,0,3,,,,,,,,,2,,,53,49
272520,note_on,120,0,3,,,,,,,,,2,,,53,0
272520,note_on,0,0,3,,,,,,,,,2,,,56,49
272640,note_on,120,0,3,,,,,,,,,2,,,56,0
272640,note_on,480,0,2,,,,,,,,,1,,,77,62
272640,note_on,0,0,3,,,,,,,,,2,,,62,49
272760,note_on,120,0,3,,,,,,,,,2,,,62,0
272760,note_on,0,0,3,,,,,,,,,2,,,56,49
272880,note_on,120,0,3,,,,,,,,,2,,,56,0
272880,note_on,0,0,3,,,,,,,,,2,,,53,49
272880,note_on,0,0,2,,,,,,,,,1,,,74,62
272880,note_on,240,0,2,,,,,,,,,1,,,77,0
273000,note_on,120,0,3,,,,,,,,,2,,,53,0
273000,control_change,0,0,3,,,,,,,,,2,64,0,,
273000,note_on,0,0,3,,,,,,,,,2,,,50,49
273120,note_on,0,0,4,,,,,,,,,3,,,46,62
273120,note_on,720,0,4,,,,,,,,,3,,,34,62
273120,note_on,120,0,3,,,,,,,,,2,,,50,0
273240,note_on,120,0,3,,,,,,,,,2,,,50,49
273360,note_on,240,0,4,,,,,,,,,3,,,46,0
273360,note_on,0,0,4,,,,,,,,,3,,,34,0
273360,note_on,120,0,3,,,,,,,,,2,,,50,0
273360,note_on,0,0,3,,,,,,,,,2,,,53,49
273480,note_on,120,0,3,,,,,,,,,2,,,53,0
273480,note_on,0,0,3,,,,,,,,,2,,,56,49
273600,note_on,240,0,4,,,,,,,,,3,,,33,62
273600,note_on,0,0,1,,,,,,,,,0,,,81,62
273600,note_on,0,0,2,,,,,,,,,1,,,69,62
273600,control_change,0,0,2,,,,,,,,,1,64,127,,
273600,note_on,720,0,2,,,,,,,,,1,,,74,0
273600,note_on,0,0,4,,,,,,,,,3,,,45,62
273600,control_change,0,0,1,,,,,,,,,0,64,127,,
273600,note_on,120,0,3,,,,,,,,,2,,,56,0
273600,note_on,0,0,3,,,,,,,,,2,,,49,49
273600,note_on,1200,0,1,,,,,,,,,0,,,80,0
273600,note_on,0,0,3,,,,,,,,,2,,,57,49
273840,note_on,0,0,4,,,,,,,,,3,,,33,0
273840,note_on,240,0,4,,,,,,,,,3,,,45,0
273840,note_on,240,0,3,,,,,,,,,2,,,57,0
273840,note_on,0,0,3,,,,,,,,,2,,,49,0
274080,note_on,0,0,3,,,,,,,,,2,,,64,75
274080,note_on,240,0,3,,,,,,,,,2,,,55,75
274080,note_on,0,0,3,,,,,,,,,2,,,57,75
274320,note_on,720,0,2,,,,,,,,,1,,,69,0
274320,note_on,480,0,4,,,,,,,,,3,,,45,62
274320,note_on,720,0,1,,,,,,,,,0,,,81,0
274320,note_on,0,0,1,,,,,,,,,0,,,80,62
274320,note_on,0,0,2,,,,,,,,,1,,,68,62
274343,note_on,23,0,4,,,,,,,,,3,,,45,0
274440,note_on,0,0,2,,,,,,,,,1,,,69,62
274440,note_on,120,0,2,,,,,,,,,1,,,68,0
274440,note_on,120,0,1,,,,,,,,,0,,,80,0
274440,note_on,0,0,1,,,,,,,,,0,,,81,62
274560,note_on,217,0,4,,,,,,,,,3,,,41,62
274560,note_on,120,0,1,,,,,,,,,0,,,81,0
274560,note_on,0,0,1,,,,,,,,,0,,,85,75
274560,note_on,0,0,3,,,,,,,,,2,,,53,49
274560,note_on,0,0,3,,,,,,,,,2,,,55,0
274560,note_on,480,0,3,,,,,,,,,2,,,64,0
274560,note_on,120,0,2,,,,,,,,,1,,,69,0
274560,note_on,0,0,2,,,,,,,,,1,,,73,75
274560,note_on,0,0,3,,,,,,,,,2,,,62,49
274583,note_on,23,0,4,,,,,,,,,3,,,41,0
274680,note_on,120,0,1,,,,,,,,,0,,,85,0
274680,note_on,120,0,2,,,,,,,,,1,,,73,0
274680,note_on,0,0,2,,,,,,,,,1,,,74,75
274680,note_on,0,0,1,,,,,,,,,0,,,86,75
274800,note_on,0,0,1,,,,,,,,,0,,,88,75
274800,note_on,120,0,1,,,,,,,,,0,,,86,0
274800,note_on,217,0,4,,,,,,,,,3,,,38,62
274800,note_on,0,0,2,,,,,,,,,1,,,76,75
274800,note_on,120,0,2,,,,,,,,,1,,,74,0
274823,note_on,23,0,4,,,,,,,,,3,,,38,0
274920,note_on,0,0,1,,,,,,,,,0,,,89,75
274920,note_on,120,0,2,,,,,,,,,1,,,76,0
274920,note_on,120,0,1,,,,,,,,,0,,,88,0
274920,note_on,0,0,2,,,,,,,,,1,,,77,75
275040,note_on,120,0,2,,,,,,,,,1,,,77,0
275040,note_on,0,0,3,,,,,,,,,2,,,61,62
275040,note_on,0,0,3,,,,,,,,,2,,,57,62
275040,note_on,0,0,3,,,,,,,,,2,,,52,62
275040,note_on,480,0,3,,,,,,,,,2,,,62,0
275040,note_on,0,0,3,,,,,,,,,2,,,53,0
275040,note_on,217,0,4,,,,,,,,,3,,,33,75
275040,note_on,0,0,1,,,,,,,,,0,,,88,75
275040,note_on,0,0,2,,,,,,,,,1,,,76,75
275040,note_on,0,0,3,,,,,,,,,2,,,57,0
275040,note_on,120,0,1,,,,,,,,,0,,,89,0
275280,note_on,240,0,4,,,,,,,,,3,,,33,0
275280,control_change,0,0,1,,,,,,,,,0,64,0,,
275280,note_on,240,0,3,,,,,,,,,2,,,61,0
275280,note_on,0,0,2,,,,,,,,,1,,,81,75
275280,control_change,0,0,2,,,,,,,,,1,64,0,,
275280,note_on,240,0,2,,,,,,,,,1,,,76,0
275280,note_on,0,0,1,,,,,,,,,0,,,93,75
275280,note_on,240,0,1,,,,,,,,,0,,,88,0
275280,note_on,0,0,3,,,,,,,,,2,,,52,0
275280,note_on,0,0,3,,,,,,,,,2,,,57,0
275520,note_on,0,0,3,,,,,,,,,2,,,61,88
275520,note_on,0,0,3,,,,,,,,,2,,,57,88
275520,note_on,240,0,3,,,,,,,,,2,,,52,88
275760,note_on,0,0,2,,,,,,,,,1,,,82,75
275760,note_on,0,0,1,,,,,,,,,0,,,94,75
275760,control_change,0,0,1,,,,,,,,,0,64,127,,
275760,note_on,480,0,1,,,,,,,,,0,,,93,0
275760,note_on,480,0,4,,,,,,,,,3,,,33,75
275760,note_on,480,0,2,,,,,,,,,1,,,81,0
275760,control_change,0,0,2,,,,,,,,,1,64,127,,
275783,note_on,23,0,4,,,,,,,,,3,,,33,0
275880,note_on,0,0,1,,,,,,,,,0,,,93,75
275880,note_on,120,0,2,,,,,,,,,1,,,82,0
275880,note_on,0,0,2,,,,,,,,,1,,,81,75
275880,note_on,120,0,1,,,,,,,,,0,,,94,0
276000,note_on,120,0,2,,,,,,,,,1,,,81,0
276000,note_on,0,0,2,,,,,,,,,1,,,79,75
276000,note_on,120,0,1,,,,,,,,,0,,,93,0
276000,note_on,217,0,4,,,,,,,,,3,,,38,75
276000,note_on,0,0,1,,,,,,,,,0,,,91,75
276000,note_on,0,0,3,,,,,,,,,2,,,62,62
276000,note_on,0,0,3,,,,,,,,,2,,,53,62
276000,note_on,0,0,3,,,,,,,,,2,,,52,0
276000,note_on,480,0,3,,,,,,,,,2,,,61,0
276023,note_on,23,0,4,,,,,,,,,3,,,38,0
276120,note_on,120,0,2,,,,,,,,,1,,,79,0
276120,note_on,120,0,1,,,,,,,,,0,,,91,0
276120,note_on,0,0,1,,,,,,,,,0,,,89,75
276120,note_on,0,0,2,,,,,,,,,1,,,77,75
276240,note_on,217,0,4,,,,,,,,,3,,,41,75
276240,note_on,120,0,2,,,,,,,,,1,,,77,0
276240,note_on,0,0,2,,,,,,,,,1,,,76,75
276240,note_on,120,0,1,,,,,,,,,0,,,89,0
276240,note_on,0,0,1,,,,,,,,,0,,,88,75
276263,note_on,23,0,4,,,,,,,,,3,,,41,0
276360,note_on,120,0,1,,,,,,,,,0,,,88,0
276360,note_on,0,0,1,,,,,,,,,0,,,86,75
276360,note_on,0,0,2,,,,,,,,,1,,,74,75
276360,note_on,120,0,2,,,,,,,,,1,,,76,0
276480,note_on,0,0,3,,,,,,,,,2,,,64,75
276480,note_on,120,0,1,,,,,,,,,0,,,86,0
276480,note_on,0,0,3,,,,,,,,,2,,,57,75
276480,note_on,0,0,3,,,,,,,,,2,,,55,75
276480,note_on,0,0,3,,,,,,,,,2,,,57,0
276480,note_on,0,0,3,,,,,,,,,2,,,53,0
276480,control_change,0,0,1,,,,,,,,,0,64,0,,
276480,note_on,480,0,3,,,,,,,,,2,,,62,0
276480,control_change,0,0,2,,,,,,,,,1,64,0,,
276480,note_on,120,0,2,,,,,,,,,1,,,74,0
276480,note_on,217,0,4,,,,,,,,,3,,,45,88
276480,note_on,0,0,2,,,,,,,,,1,,,69,88
276480,note_on,0,0,1,,,,,,,,,0,,,81,88
276720,note_on,0,0,3,,,,,,,,,2,,,55,0
276720,note_on,240,0,4,,,,,,,,,3,,,45,0
276720,note_on,0,0,3,,,,,,,,,2,,,57,0
276720,note_on,240,0,3,,,,,,,,,2,,,64,0
276960,note_on,240,0,3,,,,,,,,,2,,,55,101
276960,note_on,0,0,3,,,,,,,,,2,,,64,101
276960,note_on,0,0,3,,,,,,,,,2,,,57,101
277200,control_change,0,0,1,,,,,,,,,0,64,127,,
277200,note_on,480,0,4,,,,,,,,,3,,,45,88
277200,note_on,0,0,1,,,,,,,,,0,,,80,88
277200,note_on,720,0,2,,,,,,,,,1,,,69,0
277200,control_change,0,0,2,,,,,,,,,1,64,127,,
277200,note_on,0,0,2,,,,,,,,,1,,,68,88
277200,note_on,720,0,1,,,,,,,,,0,,,81,0
277223,note_on,23,0,4,,,,,,,,,3,,,45,0
277320,note_on,120,0,2,,,,,,,,,1,,,68,0
277320,note_on,0,0,2,,,,,,,,,1,,,69,88
277320,note_on,120,0,1,,,,,,,,,0,,,80,0
277320,note_on,0,0,1,,,,,,,,,0,,,81,88
277440,note_on,0,0,3,,,,,,,,,2,,,55,0
277440,note_on,120,0,2,,,,,,,,,1,,,69,0
277440,note_on,0,0,2,,,,,,,,,1,,,73,88
277440,note_on,217,0,4,,,,,,,,,3,,,41,88
277440,note_on,480,0,3,,,,,,,,,2,,,64,0
277440,note_on,0,0,3,,,,,,,,,2,,,62,75
277440,note_on,0,0,1,,,,,,,,,0,,,85,88
277440,note_on,120,0,1,,,,,,,,,0,,,81,0
277440,note_on,0,0,3,,,,,,,,,2,,,53,75
277463,note_on,23,0,4,,,,,,,,,3,,,41,0
277560,note_on,0,0,2,,,,,,,,,1,,,74,88
277560,note_on,120,0,2,,,,,,,,,1,,,73,0
277560,note_on,120,0,1,,,,,,,,,0,,,85,0
277560,note_on,0,0,1,,,,,,,,,0,,,86,88
277680,note_on,217,0,4,,,,,,,,,3,,,38,88
277680,note_on,0,0,2,,,,,,,,,1,,,76,88
277680,note_on,120,0,1,,,,,,,,,0,,,86,0
277680,note_on,120,0,2,,,,,,,,,1,,,74,0
277680,note_on,0,0,1,,,,,,,,,0,,,88,88
277703,note_on,23,0,4,,,,,,,,,3,,,38,0
277800,note_on,120,0,1,,,,,,,,,0,,,88,0
277800,control_change,0,0,1,,,,,,,,,0,64,0,,
277800,note_on,0,0,1,,,,,,,,,0,,,89,88
277800,control_change,0,0,2,,,,,,,,,1,64,0,,
277800,note_on,0,0,2,,,,,,,,,1,,,77,88
277800,note_on,120,0,2,,,,,,,,,1,,,76,0
277920,note_on,217,0,4,,,,,,,,,3,,,33,75
277920,note_on,0,0,1,,,,,,,,,0,,,88,88
277920,note_on,0,0,3,,,,,,,,,2,,,57,62
277920,note_on,0,0,3,,,,,,,,,2,,,52,62
277920,note_on,0,0,3,,,,,,,,,2,,,61,62
277920,note_on,0,0,3,,,,,,,,,2,,,53,0
277920,note_on,480,0,3,,,,,,,,,2,,,62,0
277920,note_on,0,0,2,,,,,,,,,1,,,76,88
277920,note_on,120,0,2,,,,,,,,,1,,,77,0
277920,note_on,0,0,3,,,,,,,,,2,,,57,0
277920,note_on,120,0,1,,,,,,,,,0,,,89,0
278160,note_on,240,0,3,,,,,,,,,2,,,61,0
278160,note_on,0,0,3,,,,,,,,,2,,,57,0
278160,note_on,0,0,3,,,,,,,,,2,,,52,0
278160,note_on,240,0,4,,,,,,,,,3,,,33,0
278160,note_on,0,0,1,,,,,,,,,0,,,93,88
278160,note_on,240,0,1,,,,,,,,,0,,,88,0
278160,note_on,0,0,2,,,,,,,,,1,,,81,88
278160,note_on,240,0,2,,,,,,,,,1,,,76,0
278400,note_on,0,0,3,,,,,,,,,2,,,61,88
278400,note_on,0,0,3,,,,,,,,,2,,,57,88
278400,note_on,240,0,3,,,,,,,,,2,,,52,88
278640,note_on,480,0,4,,,,,,,,,3,,,45,75
278640,note_on,480,0,2,,,,,,,,,1,,,81,0
278640,note_on,0,0,1,,,,,,,,,0,,,94,88
278640,control_change,0,0,1,,,,,,,,,0,64,127,,
278640,note_on,480,0,1,,,,,,,,,0,,,93,0
278663,note_on,23,0,4,,,,,,,,,3,,,45,0
278760,note_on,0,0,1,,,,,,,,,0,,,93,88
278760,note_on,120,0,1,,,,,,,,,0,,,94,0
278880,note_on,0,0,3,,,,,,,,,2,,,62,62
278880,note_on,480,0,3,,,,,,,,,2,,,61,0
278880,note_on,0,0,1,,,,,,,,,0,,,91,88
278880,note_on,120,0,1,,,,,,,,,0,,,93,0
278880,note_on,0,0,3,,,,,,,,,2,,,53,62
278880,note_on,217,0,4,,,,,,,,,3,,,41,75
278880,note_on,0,0,3,,,,,,,,,2,,,52,0
278903,note_on,23,0,4,,,,,,,,,3,,,41,0
279000,note_on,120,0,1,,,,,,,,,0,,,91,0
279000,note_on,0,0,1,,,,,,,,,0,,,89,88
279060,note_on,60,0,1,,,,,,,,,0,,,89,0
279060,note_on,0,0,1,,,,,,,,,0,,,88,88
279090,note_on,30,0,1,,,,,,,,,0,,,88,0
279090,note_on,0,0,1,,,,,,,,,0,,,89,88
279120,note_on,0,0,1,,,,,,,,,0,,,88,88
279120,note_on,217,0,4,,,,,,,,,3,,,38,75
279120,note_on,30,0,1,,,,,,,,,0,,,89,0
279143,note_on,23,0,4,,,,,,,,,3,,,38,0
279240,note_on,0,0,1,,,,,,,,,0,,,86,88
279240,note_on,120,0,1,,,,,,,,,0,,,88,0
279360,note_on,217,0,4,,,,,,,,,3,,,33,62
279360,note_on,0,0,3,,,,,,,,,2,,,52,49
279360,note_on,0,0,1,,,,,,,,,0,,,81,88
279360,note_on,0,0,3,,,,,,,,,2,,,53,0
279360,note_on,0,0,3,,,,,,,,,2,,,57,49
279360,note_on,0,0,3,,,,,,,,,2,,,57,0
279360,note_on,480,0,3,,,,,,,,,2,,,62,0
279360,note_on,120,0,1,,,,,,,,,0,,,86,0
279360,control_change,0,0,1,,,,,,,,,0,64,0,,
279360,note_on,0,0,3,,,,,,,,,2,,,61,49
279600,note_on,0,0,3,,,,,,,,,2,,,52,0
279600,note_on,0,0,3,,,,,,,,,2,,,57,0
279600,note_on,240,0,3,,,,,,,,,2,,,61,0
279600,control_change,960,0,2,,,,,,,,,1,64,127,,
279600,note_on,240,0,4,,,,,,,,,3,,,33,0
279600,note_on,0,0,2,,,,,,,,,1,,,79,88
279720,note_on,0,0,2,,,,,,,,,1,,,77,88
279720,note_on,120,0,2,,,,,,,,,1,,,79,0
279840,note_on,0,0,2,,,,,,,,,1,,,76,88
279840,note_on,120,0,2,,,,,,,,,1,,,77,0
279840,note_on,0,0,3,,,,,,,,,2,,,61,75
279840,note_on,0,0,3,,,,,,,,,2,,,57,75
279840,note_on,240,0,3,,,,,,,,,2,,,52,75
279960,note_on,120,0,2,,,,,,,,,1,,,76,0
279960,note_on,0,0,2,,,,,,,,,1,,,74,88
280080,note_on,480,0,4,,,,,,,,,3,,,45,62
280080,note_on,120,0,2,,,,,,,,,1,,,74,0
280080,note_on,0,0,2,,,,,,,,,1,,,73,88
280080,note_on,0,0,1,,,,,,,,,0,,,94,88
280080,note_on,720,0,1,,,,,,,,,0,,,81,0
280080,control_change,0,0,1,,,,,,,,,0,64,127,,
280103,note_on,23,0,4,,,,,,,,,3,,,45,0
280200,note_on,120,0,2,,,,,,,,,1,,,73,0
280200,note_on,0,0,2,,,,,,,,,1,,,76,88
280200,note_on,0,0,1,,,,,,,,,0,,,93,88
280200,note_on,120,0,1,,,,,,,,,0,,,94,0
280320,note_on,480,0,3,,,,,,,,,2,,,61,0
280320,note_on,0,0,3,,,,,,,,,2,,,52,0
280320,note_on,0,0,3,,,,,,,,,2,,,53,49
280320,note_on,0,0,3,,,,,,,,,2,,,62,49
280320,note_on,217,0,4,,,,,,,,,3,,,41,62
280320,note_on,120,0,2,,,,,,,,,1,,,76,0
280320,note_on,0,0,2,,,,,,,,,1,,,81,114
280320,note_on,120,0,1,,,,,,,,,0,,,93,0
280320,note_on,0,0,1,,,,,,,,,0,,,91,88
280343,note_on,23,0,4,,,,,,,,,3,,,41,0
280440,note_on,120,0,1,,,,,,,,,0,,,91,0
280440,note_on,0,0,1,,,,,,,,,0,,,89,88
280500,note_on,60,0,1,,,,,,,,,0,,,89,0
280500,note_on,0,0,1,,,,,,,,,0,,,88,88
280530,note_on,30,0,1,,,,,,,,,0,,,88,0
280530,note_on,0,0,1,,,,,,,,,0,,,89,88
280560,note_on,240,0,2,,,,,,,,,1,,,81,0
280560,control_change,0,0,2,,,,,,,,,1,64,0,,
280560,note_on,0,0,2,,,,,,,,,1,,,77,88
280560,note_on,217,0,4,,,,,,,,,3,,,38,62
280560,note_on,0,0,1,,,,,,,,,0,,,88,88
280560,note_on,30,0,1,,,,,,,,,0,,,89,0
280583,note_on,23,0,4,,,,,,,,,3,,,38,0
280680,note_on,120,0,1,,,,,,,,,0,,,88,0
280680,note_on,0,0,1,,,,,,,,,0,,,86,88
280800,note_on,120,0,1,,,,,,,,,0,,,86,0
280800,control_change,0,0,1,,,,,,,,,0,64,0,,
280800,note_on,480,0,3,,,,,,,,,2,,,62,0
280800,note_on,0,0,3,,,,,,,,,2,,,53,0
280800,note_on,0,0,1,,,,,,,,,0,,,81,88
280800,note_on,0,0,3,,,,,,,,,2,,,61,49
280800,note_on,0,0,3,,,,,,,,,2,,,57,49
280800,note_on,0,0,3,,,,,,,,,2,,,52,49
280800,set_tempo,40800,1,0,,,,,,750000,,,,,,,
280800,note_on,0,0,3,,,,,,,,,2,,,57,0
280800,note_on,217,0,4,,,,,,,,,3,,,33,62
280800,note_on,240,0,2,,,,,,,,,1,,,77,0
281040,control_change,240,0,2,,,,,,,,,1,64,127,,
281040,note_on,0,0,2,,,,,,,,,1,,,79,88
281040,note_on,0,0,3,,,,,,,,,2,,,57,0
281040,note_on,0,0,3,,,,,,,,,2,,,52,0
281040,note_on,240,0,4,,,,,,,,,3,,,33,0
281040,note_on,240,0,3,,,,,,,,,2,,,61,0
281160,note_on,0,0,2,,,,,,,,,1,,,77,88
281160,note_on,120,0,2,,,,,,,,,1,,,79,0
281280,note_on,0,0,2,,,,,,,,,1,,,76,88
281280,note_on,120,0,2,,,,,,,,,1,,,77,0
281280,note_on,240,0,3,,,,,,,,,2,,,52,75
281280,note_on,0,0,3,,,,,,,,,2,,,57,75
281280,note_on,0,0,3,,,,,,,,,2,,,61,75
281400,note_on,0,0,2,,,,,,,,,1,,,74,88
281400,note_on,120,0,2,,,,,,,,,1,,,76,0
281520,control_change,0,0,1,,,,,,,,,0,64,127,,
281520,note_on,120,0,2,,,,,,,,,1,,,74,0
281520,note_on,0,0,2,,,,,,,,,1,,,73,88
281520,note_on,720,0,1,,,,,,,,,0,,,81,0
281520,note_on,0,0,1,,,,,,,,,0,,,94,88
281520,note_on,480,0,4,,,,,,,,,3,,,45,62
281543,note_on,23,0,4,,,,,,,,,3,,,45,0
281640,note_on,120,0,2,,,,,,,,,1,,,73,0
281640,note_on,0,0,2,,,,,,,,,1,,,76,88
281640,note_on,120,0,1,,,,,,,,,0,,,94,0
281640,note_on,0,0,1,,,,,,,,,0,,,93,88
281760,note_on,120,0,2,,,,,,,,,1,,,76,0
281760,note_on,0,0,2,,,,,,,,,1,,,81,114
281760,note_on,0,0,3,,,,,,,,,2,,,62,49
281760,note_on,0,0,3,,,,,,,,,2,,,53,49
281760,note_on,0,0,3,,,,,,,,,2,,,52,0
281760,note_on,480,0,3,,,,,,,,,2,,,61,0
281760,note_on,0,0,1,,,,,,,,,0,,,91,88
281760,note_on,217,0,4,,,,,,,,,3,,,41,62
281760,note_on,120,0,1,,,,,,,,,0,,,93,0
281783,note_on,23,0,4,,,,,,,,,3,,,41,0
281880,note_on,120,0,1,,,,,,,,,0,,,91,0
281880,note_on,0,0,1,,,,,,,,,0,,,89,88
281940,note_on,60,0,1,,,,,,,,,0,,,89,0
281940,note_on,0,0,1,,,,,,,,,0,,,88,88
281970,note_on,0,0,1,,,,,,,,,0,,,89,88
281970,note_on,30,0,1,,,,,,,,,0,,,88,0
282000,note_on,0,0,2,,,,,,,,,1,,,77,88
282000,note_on,240,0,2,,,,,,,,,1,,,81,0
282000,note_on,30,0,1,,,,,,,,,0,,,89,0
282000,note_on,0,0,1,,,,,,,,,0,,,88,88
282000,note_on,217,0,4,,,,,,,,,3,,,38,62
282023,note_on,23,0,4,,,,,,,,,3,,,38,0
282120,note_on,0,0,1,,,,,,,,,0,,,86,88
282120,note_on,0,0,2,,,,,,,,,1,,,74,88
282120,control_change,0,0,2,,,,,,,,,1,64,0,,
282120,note_on,120,0,2,,,,,,,,,1,,,77,0
282120,note_on,120,0,1,,,,,,,,,0,,,88,0
282120,control_change,0,0,1,,,,,,,,,0,64,0,,
282240,note_on,0,0,4,,,,,,,,,3,,,45,62
282240,note_on,0,0,2,,,,,,,,,1,,,69,88
282240,note_on,120,0,2,,,,,,,,,1,,,74,0
282240,note_on,120,0,1,,,,,,,,,0,,,86,0
282240,note_on,0,0,1,,,,,,,,,0,,,81,88
282240,note_on,480,0,3,,,,,,,,,2,,,62,0
282240,time_signature,1440,1,0,6,4,24,8,,,,,,,,,
282240,note_on,0,0,3,,,,,,,,,2,,,57,0
282240,note_on,217,0,4,,,,,,,,,3,,,33,62
282240,note_on,0,0,3,,,,,,,,,2,,,53,0
282240,note_on,0,0,3,,,,,,,,,2,,,61,49
282240,note_on,0,0,3,,,,,,,,,2,,,57,49
282240,note_on,0,0,3,,,,,,,,,2,,,52,49
282960,note_on,0,0,2,,,,,,,,,1,,,73,88
282960,control_change,0,0,2,,,,,,,,,1,64,127,,
282960,note_on,720,0,2,,,,,,,,,1,,,69,0
282960,note_on,720,0,1,,,,,,,,,0,,,81,0
282960,note_on,0,0,1,,,,,,,,,0,,,85,88
282960,control_change,0,0,1,,,,,,,,,0,64,127,,
283200,note_on,0,0,3,,,,,,,,,2,,,57,0
283200,note_on,0,0,1,,,,,,,,,0,,,87,88
283200,note_on,240,0,1,,,,,,,,,0,,,85,0
283200,note_on,0,0,2,,,,,,,,,1,,,75,88
283200,note_on,240,0,2,,,,,,,,,1,,,73,0
283200,note_on,960,0,4,,,,,,,,,3,,,45,0
283200,note_on,0,0,4,,,,,,,,,3,,,33,0
283200,note_on,0,0,3,,,,,,,,,2,,,52,0
283200,note_on,960,0,3,,,,,,,,,2,,,61,0
283440,note_on,0,0,2,,,,,,,,,1,,,76,88
283440,note_on,240,0,2,,,,,,,,,1,,,75,0
283440,note_on,0,0,1,,,,,,,,,0,,,88,88
283440,note_on,240,0,1,,,,,,,,,0,,,87,0
283680,note_on,240,0,2,,,,,,,,,1,,,76,0
283680,note_on,240,0,1,,,,,,,,,0,,,88,0
283680,note_on,0,0,1,,,,,,,,,0,,,90,88
283680,note_on,0,0,2,,,,,,,,,1,,,78,88
283920,note_on,0,0,1,,,,,,,,,0,,,91,88
283920,note_on,0,0,2,,,,,,,,,1,,,79,88
283920,note_on,240,0,1,,,,,,,,,0,,,90,0
283920,note_on,240,0,2,,,,,,,,,1,,,78,0
284160,note_on,0,0,2,,,,,,,,,1,,,80,88
284160,control_change,0,0,2,,,,,,,,,1,64,0,,
284160,note_on,240,0,2,,,,,,,,,1,,,79,0
284160,control_change,0,0,1,,,,,,,,,0,64,0,,
284160,note_on,240,0,1,,,,,,,,,0,,,91,0
284160,note_on,0,0,1,,,,,,,,,0,,,92,88
284400,control_change,0,0,1,,,,,,,,,0,64,127,,
284400,note_on,240,0,1,,,,,,,,,0,,,92,0
284400,note_on,240,0,2,,,,,,,,,1,,,80,0
284400,control_change,0,0,2,,,,,,,,,1,64,127,,
284400,note_on,0,0,2,,,,,,,,,1,,,69,88
284400,note_on,0,0,1,,,,,,,,,0,,,81,88
284460,note_on,0,0,2,,,,,,,,,1,,,73,88
284460,note_on,60,0,1,,,,,,,,,0,,,81,0
284460,note_on,60,0,2,,,,,,,,,1,,,69,0
284460,note_on,0,0,1,,,,,,,,,0,,,85,88
284520,note_on,0,0,2,,,,,,,,,1,,,76,88
284520,note_on,60,0,2,,,,,,,,,1,,,73,0
284520,note_on,60,0,1,,,,,,,,,0,,,85,0
284520,note_on,0,0,1,,,,,,,,,0,,,88,88
284580,note_on,0,0,1,,,,,,,,,0,,,91,88
284580,note_on,60,0,1,,,,,,,,,0,,,88,0
284580,note_on,0,0,2,,,,,,,,,1,,,79,88
284580,note_on,60,0,2,,,,,,,,,1,,,76,0
284640,note_on,60,0,1,,,,,,,,,0,,,91,0
284640,note_on,0,0,2,,,,,,,,,1,,,83,114
284640,note_on,60,0,2,,,,,,,,,1,,,79,0
284640,note_on,0,0,1,,,,,,,,,0,,,95,114
285000,note_on,0,0,1,,,,,,,,,0,,,93,88
285000,control_change,0,0,2,,,,,,,,,1,64,0,,
285000,note_on,0,0,2,,,,,,,,,1,,,81,88
285000,note_on,360,0,2,,,,,,,,,1,,,83,0
285000,control_change,0,0,1,,,,,,,,,0,64,0,,
285000,note_on,360,0,1,,,,,,,,,0,,,95,0
285120,time_signature,2880,1,0,3,4,24,8,,,,,,,,,
285120,key_signature,0,1,0,,,,,D,,,,,,,,
285120,set_tempo,0,1,0,,,,,,600000,,,,,,,
285120,note_on,1920,0,4,,,,,,,,,3,,,38,62
285120,note_on,0,0,1,,,,,,,,,0,,,90,88
285120,control_change,0,0,1,,,,,,,,,0,64,0,,
285120,note_on,120,0,2,,,,,,,,,1,,,81,0
285120,control_change,0,0,2,,,,,,,,,1,64,0,,
285120,note_on,0,0,4,,,,,,,,,3,,,50,62
285120,note_on,0,0,2,,,,,,,,,1,,,78,88
285120,note_on,120,0,1,,,,,,,,,0,,,93,0
285360,note_on,240,0,4,,,,,,,,,3,,,50,0
285360,note_on,0,0,4,,,,,,,,,3,,,38,0
285480,note_on,2280,0,3,,,,,,,,,2,,,57,49
285480,note_on,0,0,3,,,,,,,,,2,,,62,49
285480,note_on,0,0,3,,,,,,,,,2,,,66,49
285600,note_on,0,0,3,,,,,,,,,2,,,57,0
285600,note_on,0,0,3,,,,,,,,,2,,,62,0
285600,note_on,0,0,3,,,,,,,,,2,,,66,49
285600,note_on,120,0,3,,,,,,,,,2,,,66,0
285600,note_on,0,0,3,,,,,,,,,2,,,57,49
285600,note_on,0,0,3,,,,,,,,,2,,,62,49
285840,note_on,0,0,3,,,,,,,,,2,,,57,0
285840,note_on,0,0,3,,,,,,,,,2,,,62,0
285840,note_on,240,0,3,,,,,,,,,2,,,66,0
286020,note_on,900,0,2,,,,,,,,,1,,,78,88
286020,note_on,900,0,1,,,,,,,,,0,,,90,88
286080,note_on,0,0,2,,,,,,,,,1,,,78,0
286080,note_on,60,0,2,,,,,,,,,1,,,78,0
286080,note_on,240,0,3,,,,,,,,,2,,,57,49
286080,note_on,0,0,3,,,,,,,,,2,,,67,49
286080,note_on,60,0,1,,,,,,,,,0,,,90,0
286080,note_on,0,0,1,,,,,,,,,0,,,90,0
286080,note_on,0,0,1,,,,,,,,,0,,,88,88
286080,control_change,0,0,1,,,,,,,,,0,64,127,,
286080,control_change,0,0,2,,,,,,,,,1,64,127,,
286080,note_on,0,0,2,,,,,,,,,1,,,76,88
286080,note_on,0,0,3,,,,,,,,,2,,,61,49
286200,note_on,0,0,2,,,,,,,,,1,,,75,88
286200,note_on,120,0,1,,,,,,,,,0,,,88,0
286200,note_on,0,0,1,,,,,,,,,0,,,87,88
286200,note_on,120,0,2,,,,,,,,,1,,,76,0
286320,note_on,0,0,3,,,,,,,,,2,,,57,0
286320,note_on,0,0,3,,,,,,,,,2,,,61,0
286320,note_on,240,0,3,,,,,,,,,2,,,67,0
286320,note_on,0,0,2,,,,,,,,,1,,,76,88
286320,note_on,120,0,2,,,,,,,,,1,,,75,0
286320,note_on,120,0,1,,,,,,,,,0,,,87,0
286320,note_on,0,0,1,,,,,,,,,0,,,88,88
286440,note_on,120,0,1,,,,,,,,,0,,,88,0
286440,note_on,0,0,2,,,,,,,,,1,,,78,88
286440,note_on,120,0,2,,,,,,,,,1,,,76,0
286440,note_on,0,0,1,,,,,,,,,0,,,90,88
286560,note_on,0,0,1,,,,,,,,,0,,,86,88
286560,note_on,1200,0,4,,,,,,,,,3,,,38,62
286560,control_change,0,0,1,,,,,,,,,0,64,0,,
286560,note_on,0,0,4,,,,,,,,,3,,,50,62
286560,note_on,120,0,1,,,,,,,,,0,,,90,0
286560,note_on,120,0,2,,,,,,,,,1,,,78,0
286560,control_change,0,0,2,,,,,,,,,1,64,0,,
286560,note_on,0,0,2,,,,,,,,,1,,,74,88
286800,note_on,240,0,4,,,,,,,,,3,,,50,0
286800,note_on,0,0,4,,,,,,,,,3,,,38,0
286920,note_on,600,0,3,,,,,,,,,2,,,57,49
286920,note_on,0,0,3,,,,,,,,,2,,,62,49
286920,note_on,0,0,3,,,,,,,,,2,,,66,49
287040,note_on,0,0,3,,,,,,,,,2,,,57,49
287040,note_on,120,0,3,,,,,,,,,2,,,66,0
287040,note_on,0,0,3,,,,,,,,,2,,,62,0
287040,note_on,0,0,3,,,,,,,,,2,,,57,0
287040,note_on,0,0,3,,,,,,,,,2,,,66,49
287040,note_on,0,0,3,,,,,,,,,2,,,62,49
287280,note_on,0,0,3,,,,,,,,,2,,,62,0
287280,note_on,240,0,3,,,,,,,,,2,,,66,0
287280,note_on,0,0,3,,,,,,,,,2,,,57,0
287400,note_on,840,0,1,,,,,,,,,0,,,88,88
287400,note_on,840,0,2,,,,,,,,,1,,,76,88
287460,note_on,60,0,1,,,,,,,,,0,,,88,0
287460,note_on,0,0,2,,,,,,,,,1,,,74,88
287460,note_on,0,0,1,,,,,,,,,0,,,86,88
287460,note_on,60,0,2,,,,,,,,,1,,,76,0
287520,note_on,0,0,3,,,,,,,,,2,,,62,49
287520,note_on,0,0,3,,,,,,,,,2,,,66,49
287520,note_on,0,0,2,,,,,,,,,1,,,74,0
287520,note_on,60,0,2,,,,,,,,,1,,,74,0
287520,note_on,0,0,1,,,,,,,,,0,,,85,88
287520,control_change,0,0,1,,,,,,,,,0,64,127,,
287520,control_change,0,0,2,,,,,,,,,1,64,127,,
287520,note_on,0,0,1,,,,,,,,,0,,,86,0
287520,note_on,0,0,2,,,,,,,,,1,,,73,88
287520,note_on,240,0,3,,,,,,,,,2,,,57,49
287520,note_on,60,0,1,,,,,,,,,0,,,86,0
287640,note_on,120,0,2,,,,,,,,,1,,,73,0
287640,note_on,0,0,1,,,,,,,,,0,,,86,88
287640,note_on,0,0,2,,,,,,,,,1,,,74,88
287640,note_on,120,0,1,,,,,,,,,0,,,85,0
287760,note_on,240,0,3,,,,,,,,,2,,,66,0
287760,note_on,0,0,1,,,,,,,,,0,,,88,88
287760,note_on,120,0,1,,,,,,,,,0,,,86,0
287760,note_on,0,0,3,,,,,,,,,2,,,62,0
287760,note_on,0,0,3,,,,,,,,,2,,,57,0
287760,note_on,0,0,2,,,,,,,,,1,,,76,88
287760,note_on,120,0,2,,,,,,,,,1,,,74,0
287880,note_on,120,0,1,,,,,,,,,0,,,88,0
287880,control_change,0,0,2,,,,,,,,,1,64,0,,
287880,control_change,0,0,1,,,,,,,,,0,64,0,,
287880,note_on,0,0,1,,,,,,,,,0,,,90,88
287880,note_on,0,0,2,,,,,,,,,1,,,78,88
287880,note_on,120,0,2,,,,,,,,,1,,,76,0
288000,note_on,0,0,2,,,,,,,,,1,,,78,88
288000,control_change,0,0,2,,,,,,,,,1,64,127,,
288000,note_on,120,0,2,,,,,,,,,1,,,78,0
288000,note_on,0,0,4,,,,,,,,,3,,,45,62
288000,note_on,0,0,1,,,,,,,,,0,,,90,88
288000,control_change,0,0,1,,,,,,,,,0,64,127,,
288000,note_on,120,0,1,,,,,,,,,0,,,90,0
288000,note_on,1200,0,4,,,,,,,,,3,,,33,62
288240,note_on,0,0,4,,,,,,,,,3,,,33,0
288240,note_on,240,0,4,,,,,,,,,3,,,45,0
288360,note_on,360,0,2,,,,,,,,,1,,,78,0
288360,note_on,0,0,2,,,,,,,,,1,,,76,88
288360,note_on,0,0,3,,,,,,,,,2,,,67,49
288360,note_on,360,0,1,,,,,,,,,0,,,90,0
288360,note_on,0,0,1,,,,,,,,,0,,,88,88
288360,note_on,600,0,3,,,,,,,,,2,,,57,49
288360,note_on,0,0,3,,,,,,,,,2,,,61,49
288480,note_on,0,0,3,,,,,,,,,2,,,67,49
288480,note_on,0,0,3,,,,,,,,,2,,,61,49
288480,note_on,0,0,3,,,,,,,,,2,,,57,49
288480,note_on,120,0,2,,,,,,,,,1,,,76,0
288480,note_on,0,0,3,,,,,,,,,2,,,61,0
288480,note_on,120,0,3,,,,,,,,,2,,,67,0
288480,note_on,0,0,2,,,,,,,,,1,,,75,88
288480,note_on,0,0,3,,,,,,,,,2,,,57,0
288480,note_on,120,0,1,,,,,,,,,0,,,88,0
288480,note_on,0,0,1,,,,,,,,,0,,,87,88
288720,note_on,0,0,3,,,,,,,,,2,,,57,0
288720,note_on,0,0,3,,,,,,,,,2,,,61,0
288720,note_on,240,0,3,,,,,,,,,2,,,67,0
288840,note_on,0,0,2,,,,,,,,,1,,,76,88
288840,note_on,360,0,2,,,,,,,,,1,,,75,0
288840,note_on,360,0,1,,,,,,,,,0,,,87,0
288840,note_on,0,0,1,,,,,,,,,0,,,88,88
288960,note_on,0,0,3,,,,,,,,,2,,,67,49
288960,note_on,120,0,1,,,,,,,,,0,,,88,0
288960,note_on,0,0,1,,,,,,,,,0,,,95,88
288960,note_on,120,0,2,,,,,,,,,1,,,76,0
288960,note_on,0,0,2,,,,,,,,,1,,,83,88
288960,note_on,240,0,3,,,,,,,,,2,,,57,49
288960,note_on,0,0,3,,,,,,,,,2,,,61,49
289200,note_on,240,0,3,,,,,,,,,2,,,67,0
289200,note_on,0,0,3,,,,,,,,,2,,,61,0
289200,note_on,0,0,3,,,,,,,,,2,,,57,0
289320,note_on,360,0,1,,,,,,,,,0,,,95,0
289320,control_change,0,0,1,,,,,,,,,0,64,0,,
289320,note_on,0,0,1,,,,,,,,,0,,,93,88
289320,note_on,360,0,2,,,,,,,,,1,,,83,0
289320,control_change,0,0,2,,,,,,,,,1,64,0,,
289320,note_on,0,0,2,,,,,,,,,1,,,81,88
289440,note_on,0,0,4,,,,,,,,,3,,,50,62
289440,note_on,120,0,1,,,,,,,,,0,,,93,0
289440,note_on,0,0,1,,,,,,,,,0,,,89,88
289440,time_signature,4320,1,0,7,8,12,8,,,,,,,,,
289440,note_on,120,0,2,,,,,,,,,1,,,81,0
289440,note_on,0,0,2,,,,,,,,,1,,,77,88
289440,note_on,1200,0,4,,,,,,,,,3,,,38,62
289680,note_on,240,0,4,,,,,,,,,3,,,50,0
289680,note_on,0,0,4,,,,,,,,,3,,,38,0
289800,note_on,0,0,3,,,,,,,,,2,,,62,49
289800,note_on,600,0,3,,,,,,,,,2,,,57,49
289800,note_on,0,0,3,,,,,,,,,2,,,66,49
289920,note_on,120,0,3,,,,,,,,,2,,,66,0
289920,note_on,0,0,3,,,,,,,,,2,,,62,0
289920,note_on,0,0,3,,,,,,,,,2,,,57,0
289920,note_on,0,0,3,,,,,,,,,2,,,57,49
289920,note_on,0,0,3,,,,,,,,,2,,,62,49
289920,note_on,0,0,3,,,,,,,,,2,,,66,49
289920,note_on,480,0,1,,,,,,,,,0,,,89,0
289920,note_on,480,0,2,,,,,,,,,1,,,77,0
289920,note_on,0,0,2,,,,,,,,,1,,,78,88
289920,note_on,0,0,1,,,,,,,,,0,,,90,88
290160,note_on,0,0,3,,,,,,,,,2,,,57,0
290160,note_on,0,0,3,,,,,,,,,2,,,62,0
290160,note_on,240,0,3,,,,,,,,,2,,,66,0
290160,control_change,0,0,3,,,,,,,,,2,64,127,,
290160,note_on,240,0,2,,,,,,,,,1,,,78,0
290160,note_on,240,0,1,,,,,,,,,0,,,90,0
290400,note_on,240,0,3,,,,,,,,,2,,,57,75
290480,note_on,0,0,3,,,,,,,,,2,,,62,75
290480,note_on,80,0,3,,,,,,,,,2,,,57,0
290559,note_on,79,0,3,,,,,,,,,2,,,62,0
290559,note_on,0,0,3,,,,,,,,,2,,,66,75
290640,note_on,81,0,3,,,,,,,,,2,,,66,0
290640,note_on,0,0,3,,,,,,,,,2,,,71,101
291000,note_on,0,0,3,,,,,,,,,2,,,69,75
291000,note_on,360,0,3,,,,,,,,,2,,,71,0
291120,note_on,0,0,3,,,,,,,,,2,,,66,75
291120,note_on,1440,0,4,,,,,,,,,3,,,50,62
291120,time_signature,1680,1,0,3,4,24,8,,,,,,,,,
291120,note_on,0,0,4,,,,,,,,,3,,,57,62
291120,control_change,0,0,3,,,,,,,,,2,64,0,,
291120,note_on,120,0,3,,,,,,,,,2,,,69,0
291480,control_change,1320,0,1,,,,,,,,,0,64,127,,
291480,note_on,0,0,1,,,,,,,,,0,,,81,62
291480,control_change,1320,0,2,,,,,,,,,1,64,127,,
291480,note_on,0,0,2,,,,,,,,,1,,,69,62
291600,note_on,120,0,2,,,,,,,,,1,,,69,0
291600,note_on,0,0,1,,,,,,,,,0,,,86,62
291600,note_on,120,0,1,,,,,,,,,0,,,81,0
291600,note_on,0,0,4,,,,,,,,,3,,,50,0
291600,note_on,0,0,2,,,,,,,,,1,,,74,62
291600,note_on,480,0,4,,,,,,,,,3,,,57,0
291960,note_on,360,0,1,,,,,,,,,0,,,86,0
291960,note_on,0,0,1,,,,,,,,,0,,,90,62
291960,note_on,360,0,2,,,,,,,,,1,,,74,0
291960,note_on,0,0,2,,,,,,,,,1,,,78,62
292020,note_on,900,0,3,,,,,,,,,2,,,66,75
292080,note_on,0,0,4,,,,,,,,,3,,,55,62
292080,note_on,480,0,4,,,,,,,,,3,,,46,62
292080,note_on,0,0,1,,,,,,,,,0,,,91,88
292080,note_on,0,0,2,,,,,,,,,1,,,79,88
292080,note_on,120,0,1,,,,,,,,,0,,,90,0
292080,note_on,0,0,3,,,,,,,,,2,,,66,0
292080,control_change,0,0,3,,,,,,,,,2,64,127,,
292080,note_on,0,0,3,,,,,,,,,2,,,64,75
292080,note_on,120,0,2,,,,,,,,,1,,,78,0
292080,note_on,60,0,3,,,,,,,,,2,,,66,0
292200,note_on,120,0,3,,,,,,,,,2,,,64,0
292200,note_on,0,0,3,,,,,,,,,2,,,63,75
292320,note_on,0,0,3,,,,,,,,,2,,,64,75
292320,note_on,240,0,2,,,,,,,,,1,,,79,0
292320,note_on,120,0,3,,,,,,,,,2,,,63,0
292320,note_on,240,0,1,,,,,,,,,0,,,91,0
292320,control_change,0,0,1,,,,,,,,,0,64,0,,
292320,note_on,0,0,1,,,,,,,,,0,,,85,62
292320,control_change,0,0,2,,,,,,,,,1,64,0,,
292320,note_on,0,0,2,,,,,,,,,1,,,73,62
292440,note_on,120,0,3,,,,,,,,,2,,,64,0
292440,note_on,120,0,2,,,,,,,,,1,,,73,0
292440,note_on,120,0,1,,,,,,,,,0,,,85,0
292440,note_on,0,0,3,,,,,,,,,2,,,66,75
292560,note_on,0,0,3,,,,,,,,,2,,,62,75
292560,note_on,0,0,4,,,,,,,,,3,,,47,62
292560,note_on,0,0,4,,,,,,,,,3,,,46,0
292560,note_on,480,0,4,,,,,,,,,3,,,55,0
292560,control_change,0,0,3,,,,,,,,,2,64,0,,
292560,note_on,0,0,4,,,,,,,,,3,,,54,62
292560,note_on,120,0,3,,,,,,,,,2,,,66,0
292920,note_on,0,0,1,,,,,,,,,0,,,86,62
292920,control_change,480,0,2,,,,,,,,,1,64,127,,
292920,note_on,0,0,2,,,,,,,,,1,,,74,62
292920,control_change,480,0,1,,,,,,,,,0,64,127,,
293040,note_on,120,0,1,,,,,,,,,0,,,86,0
293040,note_on,0,0,1,,,,,,,,,0,,,90,88
293040,note_on,480,0,4,,,,,,,,,3,,,54,0
293040,note_on,0,0,4,,,,,,,,,3,,,47,0
293040,note_on,120,0,2,,,,,,,,,1,,,74,0
293040,note_on,0,0,2,,,,,,,,,1,,,78,88
293400,note_on,360,0,2,,,,,,,,,1,,,78,0
293400,note_on,0,0,2,,,,,,,,,1,,,74,62
293400,note_on,0,0,1,,,,,,,,,0,,,86,62
293400,note_on,360,0,1,,,,,,,,,0,,,90,0
293520,note_on,0,0,4,,,,,,,,,3,,,55,62
293520,note_on,120,0,1,,,,,,,,,0,,,86,0
293520,control_change,0,0,1,,,,,,,,,0,64,0,,
293520,control_change,0,0,3,,,,,,,,,2,64,127,,
293520,note_on,0,0,3,,,,,,,,,2,,,64,75
293520,note_on,0,0,2,,,,,,,,,1,,,71,62
293520,control_change,0,0,2,,,,,,,,,1,64,0,,
293520,note_on,120,0,2,,,,,,,,,1,,,74,0
293520,note_on,480,0,4,,,,,,,,,3,,,43,62
293520,note_on,960,0,3,,,,,,,,,2,,,62,0
293520,note_on,0,0,1,,,,,,,,,0,,,83,62
293640,note_on,120,0,3,,,,,,,,,2,,,64,0
293640,note_on,0,0,3,,,,,,,,,2,,,66,75
293760,note_on,240,0,2,,,,,,,,,1,,,71,0
293760,note_on,120,0,3,,,,,,,,,2,,,66,0
293760,note_on,0,0,3,,,,,,,,,2,,,67,75
293760,note_on,240,0,1,,,,,,,,,0,,,83,0
293880,control_change,0,0,3,,,,,,,,,2,64,0,,
293880,note_on,0,0,3,,,,,,,,,2,,,71,75
293880,note_on,120,0,3,,,,,,,,,2,,,67,0
294000,note_on,120,0,3,,,,,,,,,2,,,71,0
294000,note_on,0,0,4,,,,,,,,,3,,,43,0
294000,note_on,0,0,4,,,,,,,,,3,,,62,62
294000,note_on,0,0,4,,,,,,,,,3,,,66,62
294000,note_on,0,0,4,,,,,,,,,3,,,45,62
294000,control_change,0,0,3,,,,,,,,,2,64,127,,
294000,note_on,0,0,3,,,,,,,,,2,,,71,101
294000,note_on,0,0,4,,,,,,,,,3,,,57,62
294000,note_on,480,0,4,,,,,,,,,3,,,55,0
294360,note_on,0,0,1,,,,,,,,,0,,,90,62
294360,note_on,0,0,2,,,,,,,,,1,,,78,62
294360,control_change,600,0,2,,,,,,,,,1,64,127,,
294360,control_change,600,0,1,,,,,,,,,0,64,127,,
294480,note_on,120,0,2,,,,,,,,,1,,,78,0
294480,note_on,0,0,2,,,,,,,,,1,,,86,88
294480,note_on,0,0,1,,,,,,,,,0,,,98,88
294480,note_on,120,0,1,,,,,,,,,0,,,90,0
294840,note_on,360,0,1,,,,,,,,,0,,,98,0
294840,note_on,360,0,2,,,,,,,,,1,,,86,0
294840,note_on,0,0,2,,,,,,,,,1,,,78,62
294840,note_on,840,0,3,,,,,,,,,2,,,71,0
294840,note_on,0,0,3,,,,,,,,,2,,,69,75
294840,note_on,0,0,1,,,,,,,,,0,,,90,62
294960,note_on,120,0,2,,,,,,,,,1,,,78,0
294960,note_on,0,0,2,,,,,,,,,1,,,80,62
294960,note_on,960,0,4,,,,,,,,,3,,,66,0
294960,note_on,0,0,4,,,,,,,,,3,,,61,62
294960,note_on,0,0,4,,,,,,,,,3,,,45,0
294960,note_on,0,0,4,,,,,,,,,3,,,62,0
294960,note_on,0,0,4,,,,,,,,,3,,,45,62
294960,note_on,0,0,4,,,,,,,,,3,,,55,62
294960,note_on,0,0,4,,,,,,,,,3,,,64,62
294960,note_on,120,0,1,,,,,,,,,0,,,90,0
294960,note_on,0,0,1,,,,,,,,,0,,,92,62
294960,note_on,120,0,3,,,,,,,,,2,,,69,0
294960,note_on,0,0,3,,,,,,,,,2,,,71,75
294960,note_on,0,0,4,,,,,,,,,3,,,57,0
295320,note_on,360,0,1,,,,,,,,,0,,,92,0
295320,control_change,0,0,1,,,,,,,,,0,64,0,,
295320,note_on,360,0,3,,,,,,,,,2,,,71,0
295320,note_on,360,0,2,,,,,,,,,1,,,80,0
295320,control_change,0,0,2,,,,,,,,,1,64,0,,
295320,note_on,0,0,3,,,,,,,,,2,,,69,75
295320,control_change,0,0,3,,,,,,,,,2,64,0,,
295320,note_on,0,0,1,,,,,,,,,0,,,93,62
295320,note_on,0,0,2,,,,,,,,,1,,,81,62
295440,note_on,0,0,4,,,,,,,,,3,,,61,0
295440,note_on,0,0,2,,,,,,,,,1,,,74,62
295440,note_on,0,0,1,,,,,,,,,0,,,86,62
295440,note_on,480,0,4,,,,,,,,,3,,,64,0
295440,note_on,0,0,4,,,,,,,,,3,,,54,62
295440,note_on,0,0,4,,,,,,,,,3,,,45,0
295440,note_on,0,0,4,,,,,,,,,3,,,55,0
295440,note_on,120,0,2,,,,,,,,,1,,,81,0
295440,note_on,0,0,3,,,,,,,,,2,,,66,75
295440,note_on,0,0,3,,,,,,,,,2,,,62,75
295440,note_on,120,0,3,,,,,,,,,2,,,69,0
295440,note_on,0,0,4,,,,,,,,,3,,,50,62
295440,note_on,120,0,1,,,,,,,,,0,,,93,0
295680,note_on,0,0,3,,,,,,,,,2,,,66,49
295680,note_on,240,0,3,,,,,,,,,2,,,66,0
295680,note_on,240,0,4,,,,,,,,,3,,,54,0
295680,note_on,0,0,4,,,,,,,,,3,,,50,0
295680,note_on,0,0,4,,,,,,,,,3,,,50,62
295680,note_on,0,0,3,,,,,,,,,2,,,62,0
295680,note_on,0,0,3,,,,,,,,,2,,,57,49
295680,note_on,0,0,3,,,,,,,,,2,,,62,49
295920,note_on,480,0,1,,,,,,,,,0,,,86,0
295920,note_on,480,0,2,,,,,,,,,1,,,74,0
295920,note_on,240,0,4,,,,,,,,,3,,,50,0
295920,note_on,0,0,4,,,,,,,,,3,,,50,62
295920,note_on,240,0,3,,,,,,,,,2,,,66,0
295920,note_on,0,0,3,,,,,,,,,2,,,62,0
295920,note_on,0,0,3,,,,,,,,,2,,,57,0
295920,note_on,0,0,3,,,,,,,,,2,,,57,49
295920,note_on,0,0,3,,,,,,,,,2,,,62,49
295920,note_on,0,0,3,,,,,,,,,2,,,66,49
296160,note_on,0,0,3,,,,,,,,,2,,,57,0
296160,control_change,240,0,1,,,,,,,,,0,64,127,,
296160,note_on,0,0,2,,,,,,,,,1,,,69,62
296160,note_on,0,0,1,,,,,,,,,0,,,81,62
296160,note_on,240,0,4,,,,,,,,,3,,,50,0
296160,note_on,0,0,4,,,,,,,,,3,,,50,62
296160,control_change,240,0,2,,,,,,,,,1,64,127,,
296160,note_on,0,0,3,,,,,,,,,2,,,62,0
296160,note_on,240,0,3,,,,,,,,,2,,,66,0
296160,note_on,0,0,3,,,,,,,,,2,,,57,49
296160,note_on,0,0,3,,,,,,,,,2,,,62,49
296160,note_on,0,0,3,,,,,,,,,2,,,66,49
296280,note_on,120,0,2,,,,,,,,,1,,,69,0
296280,note_on,0,0,2,,,,,,,,,1,,,71,62
296280,note_on,120,0,1,,,,,,,,,0,,,81,0
296280,note_on,0,0,1,,,,,,,,,0,,,83,62
296400,note_on,240,0,3,,,,,,,,,2,,,66,0
296400,note_on,0,0,1,,,,,,,,,0,,,85,62
296400,note_on,0,0,3,,,,,,,,,2,,,66,49
296400,note_on,0,0,3,,,,,,,,,2,,,57,49
296400,note_on,0,0,3,,,,,,,,,2,,,57,0
296400,note_on,0,0,3,,,,,,,,,2,,,62,0
296400,note_on,120,0,1,,,,,,,,,0,,,83,0
296400,note_on,0,0,3,,,,,,,,,2,,,62,49
296400,note_on,0,0,4,,,,,,,,,3,,,50,62
296400,note_on,240,0,4,,,,,,,,,3,,,50,0
296400,note_on,120,0,2,,,,,,,,,1,,,71,0
296400,note_on,0,0,2,,,,,,,,,1,,,73,62
296520,note_on,120,0,1,,,,,,,,,0,,,85,0
296520,note_on,0,0,1,,,,,,,,,0,,,86,62
296520,note_on,120,0,2,,,,,,,,,1,,,73,0
296520,note_on,0,0,2,,,,,,,,,1,,,74,62
296640,note_on,0,0,4,,,,,,,,,3,,,50,62
296640,note_on,240,0,4,,,,,,,,,3,,,50,0
296640,note_on,120,0,1,,,,,,,,,0,,,86,0
296640,note_on,120,0,2,,,,,,,,,1,,,74,0
296640,note_on,0,0,1,,,,,,,,,0,,,88,62
296640,note_on,240,0,3,,,,,,,,,2,,,66,0
296640,note_on,0,0,3,,,,,,,,,2,,,62,0
296640,note_on,0,0,3,,,,,,,,,2,,,57,0
296640,note_on,0,0,3,,,,,,,,,2,,,57,49
296640,note_on,0,0,3,,,,,,,,,2,,,62,49
296640,note_on,0,0,3,,,,,,,,,2,,,66,49
296640,note_on,0,0,2,,,,,,,,,1,,,76,62
296760,note_on,120,0,2,,,,,,,,,1,,,76,0
296760,control_change,0,0,2,,,,,,,,,1,64,0,,
296760,note_on,0,0,1,,,,,,,,,0,,,90,62
296760,control_change,0,0,1,,,,,,,,,0,64,0,,
296760,note_on,120,0,1,,,,,,,,,0,,,88,0
296760,note_on,0,0,2,,,,,,,,,1,,,78,62
296880,note_on,120,0,1,,,,,,,,,0,,,90,0
296880,note_on,0,0,3,,,,,,,,,2,,,57,0
296880,note_on,0,0,3,,,,,,,,,2,,,62,49
296880,note_on,0,0,3,,,,,,,,,2,,,58,49
296880,note_on,0,0,3,,,,,,,,,2,,,66,49
296880,note_on,0,0,3,,,,,,,,,2,,,62,0
296880,note_on,240,0,4,,,,,,,,,3,,,50,0
296880,note_on,120,0,2,,,,,,,,,1,,,78,0
296880,note_on,0,0,1,,,,,,,,,0,,,90,88
296880,note_on,240,0,3,,,,,,,,,2,,,66,0
296880,note_on,0,0,4,,,,,,,,,3,,,50,62
296880,note_on,0,0,2,,,,,,,,,1,,,78,88
297120,note_on,0,0,3,,,,,,,,,2,,,58,0
297120,note_on,0,0,3,,,,,,,,,2,,,58,49
297120,note_on,240,0,4,,,,,,,,,3,,,50,0
297120,note_on,0,0,3,,,,,,,,,2,,,66,49
297120,note_on,0,0,4,,,,,,,,,3,,,50,62
297120,note_on,240,0,3,,,,,,,,,2,,,66,0
297120,note_on,0,0,3,,,,,,,,,2,,,62,0
297120,note_on,0,0,3,,,,,,,,,2,,,62,49
297360,note_on,240,0,3,,,,,,,,,2,,,66,0
297360,note_on,0,0,3,,,,,,,,,2,,,62,0
297360,note_on,0,0,2,,,,,,,,,1,,,71,62
297360,note_on,0,0,1,,,,,,,,,0,,,83,62
297360,note_on,480,0,2,,,,,,,,,1,,,78,0
297360,note_on,480,0,1,,,,,,,,,0,,,90,0
297360,note_on,0,0,3,,,,,,,,,2,,,62,49
297360,note_on,0,0,3,,,,,,,,,2,,,67,49
297360,note_on,240,0,4,,,,,,,,,3,,,50,0
297360,note_on,0,0,3,,,,,,,,,2,,,58,0
297360,note_on,0,0,4,,,,,,,,,3,,,50,62
297360,note_on,0,0,3,,,,,,,,,2,,,59,49
297600,note_on,240,0,4,,,,,,,,,3,,,50,0
297600,note_on,0,0,3,,,,,,,,,2,,,62,0
297600,note_on,0,0,3,,,,,,,,,2,,,59,0
297600,note_on,0,0,1,,,,,,,,,0,,,91,62
297600,control_change,0,0,1,,,,,,,,,0,64,127,,
297600,note_on,240,0,1,,,,,,,,,0,,,83,0
297600,note_on,0,0,3,,,,,,,,,2,,,62,49
297600,note_on,240,0,2,,,,,,,,,1,,,71,0
297600,control_change,0,0,2,,,,,,,,,1,64,127,,
297600,note_on,0,0,2,,,,,,,,,1,,,79,62
297600,note_on,0,0,3,,,,,,,,,2,,,67,49
297600,note_on,0,0,4,,,,,,,,,3,,,50,62
297600,note_on,240,0,3,,,,,,,,,2,,,67,0
297600,note_on,0,0,3,,,,,,,,,2,,,59,49
297720,note_on,0,0,2,,,,,,,,,1,,,78,62
297720,note_on,0,0,1,,,,,,,,,0,,,90,62
297720,note_on,120,0,1,,,,,,,,,0,,,91,0
297720,note_on,120,0,2,,,,,,,,,1,,,79,0
297840,note_on,0,0,3,,,,,,,,,2,,,64,49
297840,note_on,0,0,3,,,,,,,,,2,,,67,49
297840,note_on,120,0,1,,,,,,,,,0,,,90,0
297840,note_on,0,0,2,,,,,,,,,1,,,76,62
297840,note_on,0,0,3,,,,,,,,,2,,,57,49
297840,note_on,0,0,3,,,,,,,,,2,,,59,0
297840,note_on,0,0,3,,,,,,,,,2,,,61,49
297840,note_on,240,0,3,,,,,,,,,2,,,67,0
297840,note_on,240,0,4,,,,,,,,,3,,,50,0
297840,note_on,0,0,4,,,,,,,,,3,,,50,62
297840,note_on,0,0,3,,,,,,,,,2,,,62,0
297840,note_on,120,0,2,,,,,,,,,1,,,78,0
297840,note_on,0,0,1,,,,,,,,,0,,,88,62
297960,note_on,0,0,2,,,,,,,,,1,,,79,62
297960,note_on,0,0,1,,,,,,,,,0,,,91,62
297960,note_on,120,0,2,,,,,,,,,1,,,76,0
297960,note_on,120,0,1,,,,,,,,,0,,,88,0
298080,note_on,240,0,3,,,,,,,,,2,,,67,0
298080,note_on,0,0,2,,,,,,,,,1,,,83,62
298080,note_on,120,0,2,,,,,,,,,1,,,79,0
298080,note_on,0,0,1,,,,,,,,,0,,,95,62
298080,note_on,0,0,4,,,,,,,,,3,,,50,62
298080,note_on,0,0,3,,,,,,,,,2,,,57,0
298080,note_on,120,0,1,,,,,,,,,0,,,91,0
298080,note_on,0,0,3,,,,,,,,,2,,,67,49
298080,note_on,0,0,3,,,,,,,,,2,,,64,49
298080,note_on,0,0,3,,,,,,,,,2,,,61,49
298080,note_on,0,0,3,,,,,,,,,2,,,57,49
298080,note_on,240,0,4,,,,,,,,,3,,,50,0
298080,note_on,0,0,3,,,,,,,,,2,,,64,0
298080,note_on,0,0,3,,,,,,,,,2,,,61,0
298200,note_on,120,0,1,,,,,,,,,0,,,95,0
298200,note_on,120,0,2,,,,,,,,,1,,,83,0
298200,control_change,0,0,2,,,,,,,,,1,64,0,,
298200,note_on,0,0,2,,,,,,,,,1,,,81,62
298200,control_change,0,0,1,,,,,,,,,0,64,0,,
298200,note_on,0,0,1,,,,,,,,,0,,,93,62
298320,note_on,240,0,4,,,,,,,,,3,,,50,0
298320,note_on,0,0,2,,,,,,,,,1,,,81,88
298320,note_on,0,0,4,,,,,,,,,3,,,50,62
298320,note_on,0,0,1,,,,,,,,,0,,,93,88
298320,note_on,120,0,2,,,,,,,,,1,,,81,0
298320,note_on,120,0,1,,,,,,,,,0,,,93,0
298320,note_on,0,0,3,,,,,,,,,2,,,66,49
298320,note_on,240,0,3,,,,,,,,,2,,,67,0
298320,note_on,0,0,3,,,,,,,,,2,,,57,0
298320,note_on,0,0,3,,,,,,,,,2,,,61,0
298320,note_on,0,0,3,,,,,,,,,2,,,64,0
298320,note_on,0,0,3,,,,,,,,,2,,,62,49
298320,note_on,0,0,3,,,,,,,,,2,,,57,49
298560,note_on,0,0,3,,,,,,,,,2,,,62,0
298560,note_on,0,0,3,,,,,,,,,2,,,57,0
298560,note_on,240,0,4,,,,,,,,,3,,,50,0
298560,note_on,0,0,4,,,,,,,,,3,,,50,62
298560,note_on,240,0,3,,,,,,,,,2,,,66,0
298560,note_on,0,0,3,,,,,,,,,2,,,66,49
298560,note_on,0,0,3,,,,,,,,,2,,,57,49
298560,note_on,0,0,3,,,,,,,,,2,,,62,49
298800,note_on,240,0,3,,,,,,,,,2,,,66,0
298800,note_on,0,0,2,,,,,,,,,1,,,78,62
298800,note_on,480,0,1,,,,,,,,,0,,,93,0
298800,note_on,0,0,4,,,,,,,,,3,,,50,62
298800,note_on,240,0,4,,,,,,,,,3,,,50,0
298800,note_on,480,0,2,,,,,,,,,1,,,81,0
298800,note_on,0,0,1,,,,,,,,,0,,,90,62
298800,note_on,0,0,3,,,,,,,,,2,,,57,0
298800,note_on,0,0,3,,,,,,,,,2,,,57,49
298800,note_on,0,0,3,,,,,,,,,2,,,62,49
298800,note_on,0,0,3,,,,,,,,,2,,,66,49
298800,note_on,0,0,3,,,,,,,,,2,,,62,0
299040,note_on,240,0,4,,,,,,,,,3,,,50,0
299040,note_on,0,0,3,,,,,,,,,2,,,66,49
299040,control_change,0,0,2,,,,,,,,,1,64,127,,
299040,note_on,0,0,3,,,,,,,,,2,,,57,49
299040,note_on,0,0,3,,,,,,,,,2,,,57,0
299040,note_on,0,0,3,,,,,,,,,2,,,62,0
299040,note_on,240,0,3,,,,,,,,,2,,,66,0
299040,note_on,240,0,1,,,,,,,,,0,,,90,0
299040,control_change,0,0,1,,,,,,,,,0,64,127,,
299040,note_on,0,0,1,,,,,,,,,0,,,81,62
299040,note_on,0,0,3,,,,,,,,,2,,,62,49
299040,note_on,240,0,2,,,,,,,,,1,,,78,0
299040,note_on,0,0,4,,,,,,,,,3,,,50,62
299040,note_on,0,0,2,,,,,,,,,1,,,69,62
299160,note_on,120,0,1,,,,,,,,,0,,,81,0
299160,note_on,0,0,2,,,,,,,,,1,,,71,62
299160,note_on,120,0,2,,,,,,,,,1,,,69,0
299160,note_on,0,0,1,,,,,,,,,0,,,83,62
299280,note_on,0,0,1,,,,,,,,,0,,,85,62
299280,note_on,0,0,2,,,,,,,,,1,,,73,62
299280,note_on,120,0,2,,,,,,,,,1,,,71,0
299280,note_on,120,0,1,,,,,,,,,0,,,83,0
299280,note_on,0,0,3,,,,,,,,,2,,,66,49
299280,note_on,0,0,3,,,,,,,,,2,,,57,49
299280,note_on,240,0,4,,,,,,,,,3,,,50,0
299280,note_on,0,0,4,,,,,,,,,3,,,50,62
299280,note_on,240,0,3,,,,,,,,,2,,,66,0
299280,note_on,0,0,3,,,,,,,,,2,,,62,0
299280,note_on,0,0,3,,,,,,,,,2,,,57,0
299280,note_on,0,0,3,,,,,,,,,2,,,62,49
299400,note_on,120,0,2,,,,,,,,,1,,,73,0
299400,note_on,0,0,1,,,,,,,,,0,,,86,62
299400,note_on,120,0,1,,,,,,,,,0,,,85,0
299400,note_on,0,0,2,,,,,,,,,1,,,74,62
299520,note_on,0,0,3,,,,,,,,,2,,,66,49
299520,note_on,0,0,3,,,,,,,,,2,,,57,49
299520,note_on,0,0,3,,,,,,,,,2,,,57,0
299520,note_on,0,0,3,,,,,,,,,2,,,62,49
299520,note_on,240,0,3,,,,,,,,,2,,,66,0
299520,note_on,0,0,1,,,,,,,,,0,,,88,62
299520,note_on,0,0,4,,,,,,,,,3,,,50,62
299520,note_on,240,0,4,,,,,,,,,3,,,50,0
299520,note_on,0,0,3,,,,,,,,,2,,,62,0
299520,note_on,0,0,2,,,,,,,,,1,,,76,62
299520,note_on,120,0,1,,,,,,,,,0,,,86,0
299520,note_on,120,0,2,,,,,,,,,1,,,74,0
299640,note_on,120,0,2,,,,,,,,,1,,,76,0
299640,note_on,0,0,1,,,,,,,,,0,,,90,62
299640,control_change,0,0,1,,,,,,,,,0,64,0,,
299640,note_on,120,0,1,,,,,,,,,0,,,88,0
299640,control_change,0,0,2,,,,,,,,,1,64,0,,
299640,note_on,0,0,2,,,,,,,,,1,,,78,62
299760,note_on,120,0,2,,,,,,,,,1,,,78,0
299760,note_on,0,0,1,,,,,,,,,0,,,90,88
299760,note_on,0,0,2,,,,,,,,,1,,,78,88
299760,note_on,0,0,3,,,,,,,,,2,,,66,49
299760,note_on,240,0,3,,,,,,,,,2,,,66,0
299760,note_on,0,0,3,,,,,,,,,2,,,62,0
299760,note_on,0,0,3,,,,,,,,,2,,,57,0
299760,note_on,120,0,1,,,,,,,,,0,,,90,0
299760,note_on,0,0,3,,,,,,,,,2,,,62,49
299760,note_on,240,0,4,,,,,,,,,3,,,50,0
299760,note_on,0,0,4,,,,,,,,,3,,,50,62
299760,note_on,0,0,3,,,,,,,,,2,,,58,49
300000,note_on,240,0,4,,,,,,,,,3,,,50,0
300000,note_on,0,0,3,,,,,,,,,2,,,66,49
300000,note_on,0,0,3,,,,,,,,,2,,,58,49
300000,note_on,0,0,3,,,,,,,,,2,,,62,49
300000,note_on,0,0,3,,,,,,,,,2,,,62,0
300000,note_on,240,0,3,,,,,,,,,2,,,66,0
300000,note_on,0,0,4,,,,,,,,,3,,,50,62
300000,note_on,0,0,3,,,,,,,,,2,,,58,0
300240,note_on,0,0,4,,,,,,,,,3,,,50,62
300240,note_on,0,0,1,,,,,,,,,0,,,83,62
300240,note_on,480,0,1,,,,,,,,,0,,,90,0
300240,note_on,0,0,3,,,,,,,,,2,,,67,49
300240,note_on,0,0,3,,,,,,,,,2,,,62,49
300240,note_on,240,0,4,,,,,,,,,3,,,50,0
300240,note_on,480,0,2,,,,,,,,,1,,,78,0
300240,note_on,0,0,3,,,,,,,,,2,,,58,0
300240,note_on,0,0,3,,,,,,,,,2,,,62,0
300240,note_on,0,0,2,,,,,,,,,1,,,71,62
300240,note_on,0,0,3,,,,,,,,,2,,,59,49
300240,note_on,240,0,3,,,,,,,,,2,,,66,0
300480,note_on,0,0,3,,,,,,,,,2,,,59,49
300480,note_on,0,0,3,,,,,,,,,2,,,59,0
300480,note_on,0,0,3,,,,,,,,,2,,,62,0
300480,note_on,240,0,3,,,,,,,,,2,,,67,0
300480,note_on,240,0,2,,,,,,,,,1,,,71,0
300480,control_change,0,0,2,,,,,,,,,1,64,127,,
300480,note_on,0,0,2,,,,,,,,,1,,,76,62
300480,note_on,0,0,3,,,,,,,,,2,,,67,49
300480,note_on,0,0,4,,,,,,,,,3,,,50,62
300480,note_on,0,0,1,,,,,,,,,0,,,88,62
300480,control_change,0,0,1,,,,,,,,,0,64,127,,
300480,note_on,240,0,1,,,,,,,,,0,,,83,0
300480,note_on,240,0,4,,,,,,,,,3,,,50,0
300480,note_on,0,0,3,,,,,,,,,2,,,62,49
300600,note_on,0,0,2,,,,,,,,,1,,,78,62
300600,note_on,120,0,2,,,,,,,,,1,,,76,0
300600,note_on,0,0,1,,,,,,,,,0,,,90,62
300600,note_on,120,0,1,,,,,,,,,0,,,88,0
300720,note_on,0,0,1,,,,,,,,,0,,,91,62
300720,note_on,120,0,1,,,,,,,,,0,,,90,0
300720,note_on,0,0,3,,,,,,,,,2,,,61,49
300720,note_on,0,0,3,,,,,,,,,2,,,67,49
300720,note_on,0,0,2,,,,,,,,,1,,,79,62
300720,note_on,240,0,3,,,,,,,,,2,,,67,0
300720,note_on,0,0,3,,,,,,,,,2,,,62,0
300720,note_on,0,0,3,,,,,,,,,2,,,59,0
300720,note_on,0,0,3,,,,,,,,,2,,,57,49
300720,note_on,0,0,3,,,,,,,,,2,,,64,49
300720,note_on,120,0,2,,,,,,,,,1,,,78,0
300720,note_on,240,0,4,,,,,,,,,3,,,50,0
300720,note_on,0,0,4,,,,,,,,,3,,,50,62
300840,note_on,0,0,1,,,,,,,,,0,,,92,62
300840,note_on,120,0,1,,,,,,,,,0,,,91,0
300840,note_on,0,0,2,,,,,,,,,1,,,80,62
300840,note_on,120,0,2,,,,,,,,,1,,,79,0
300960,note_on,0,0,3,,,,,,,,,2,,,67,49
300960,note_on,0,0,1,,,,,,,,,0,,,95,62
300960,note_on,120,0,1,,,,,,,,,0,,,92,0
300960,note_on,0,0,2,,,,,,,,,1,,,83,62
300960,note_on,240,0,4,,,,,,,,,3,,,50,0
300960,note_on,120,0,2,,,,,,,,,1,,,80,0
300960,note_on,240,0,3,,,,,,,,,2,,,67,0
300960,note_on,0,0,3,,,,,,,,,2,,,57,0
300960,note_on,0,0,3,,,,,,,,,2,,,61,0
300960,note_on,0,0,3,,,,,,,,,2,,,64,49
300960,note_on,0,0,4,,,,,,,,,3,,,50,62
300960,note_on,0,0,3,,,,,,,,,2,,,61,49
300960,note_on,0,0,3,,,,,,,,,2,,,57,49
300960,note_on,0,0,3,,,,,,,,,2,,,64,0
301080,note_on,0,0,1,,,,,,,,,0,,,93,62
301080,control_change,0,0,1,,,,,,,,,0,64,0,,
301080,note_on,120,0,1,,,,,,,,,0,,,95,0
301080,note_on,120,0,2,,,,,,,,,1,,,83,0
301080,control_change,0,0,2,,,,,,,,,1,64,0,,
301080,note_on,0,0,2,,,,,,,,,1,,,81,62
301200,note_on,0,0,3,,,,,,,,,2,,,61,0
301200,note_on,0,0,2,,,,,,,,,1,,,74,62
301200,note_on,0,0,3,,,,,,,,,2,,,66,49
301200,note_on,0,0,3,,,,,,,,,2,,,62,49
301200,note_on,120,0,2,,,,,,,,,1,,,81,0
301200,note_on,240,0,3,,,,,,,,,2,,,67,0
301200,note_on,0,0,3,,,,,,,,,2,,,57,0
301200,note_on,120,0,1,,,,,,,,,0,,,93,0
301200,note_on,0,0,3,,,,,,,,,2,,,64,0
301200,note_on,0,0,1,,,,,,,,,0,,,86,62
301200,note_on,0,0,3,,,,,,,,,2,,,57,49
301200,note_on,0,0,4,,,,,,,,,3,,,50,62
301200,note_on,240,0,4,,,,,,,,,3,,,50,0
301440,note_on,0,0,2,,,,,,,,,1,,,73,101
301440,note_on,240,0,4,,,,,,,,,3,,,50,0
301440,note_on,0,0,2,,,,,,,,,1,,,69,101
301440,note_on,240,0,2,,,,,,,,,1,,,74,0
301440,note_on,0,0,2,,,,,,,,,1,,,76,101
301440,note_on,0,0,3,,,,,,,,,2,,,62,0
301440,note_on,0,0,3,,,,,,,,,2,,,57,0
301440,note_on,0,0,3,,,,,,,,,2,,,57,101
301440,note_on,240,0,1,,,,,,,,,0,,,86,0
301440,note_on,0,0,1,,,,,,,,,0,,,81,101
301440,note_on,0,0,1,,,,,,,,,0,,,85,101
301440,note_on,0,0,1,,,,,,,,,0,,,88,101
301440,note_on,0,0,4,,,,,,,,,3,,,45,101
301440,note_on,240,0,3,,,,,,,,,2,,,66,0
301455,note_on,15,0,3,,,,,,,,,2,,,57,0
301455,note_on,15,0,1,,,,,,,,,0,,,88,0
301455,note_on,15,0,2,,,,,,,,,1,,,76,0
301455,note_on,0,0,2,,,,,,,,,1,,,73,0
301455,note_on,0,0,2,,,,,,,,,1,,,69,0
301455,note_on,0,0,1,,,,,,,,,0,,,85,0
301455,note_on,0,0,1,,,,,,,,,0,,,81,0
301455,note_on,15,0,4,,,,,,,,,3,,,45,0
301560,note_on,105,0,2,,,,,,,,,1,,,69,101
301560,note_on,0,0,2,,,,,,,,,1,,,76,101
301560,note_on,0,0,2,,,,,,,,,1,,,73,101
301560,note_on,105,0,1,,,,,,,,,0,,,81,101
301560,note_on,0,0,1,,,,,,,,,0,,,85,101
301560,note_on,105,0,4,,,,,,,,,3,,,45,101
301560,note_on,0,0,1,,,,,,,,,0,,,88,101
301560,note_on,105,0,3,,,,,,,,,2,,,57,101
301575,note_on,0,0,1,,,,,,,,,0,,,85,0
301575,note_on,15,0,3,,,,,,,,,2,,,57,0
301575,note_on,15,0,2,,,,,,,,,1,,,76,0
301575,note_on,0,0,2,,,,,,,,,1,,,73,0
301575,note_on,0,0,2,,,,,,,,,1,,,69,0
301575,note_on,15,0,4,,,,,,,,,3,,,45,0
301575,note_on,15,0,1,,,,,,,,,0,,,88,0
301575,note_on,0,0,1,,,,,,,,,0,,,81,0
301680,note_on,105,0,2,,,,,,,,,1,,,69,101
301680,note_on,0,0,2,,,,,,,,,1,,,74,101
301680,note_on,0,0,2,,,,,,,,,1,,,78,101
301680,note_on,105,0,3,,,,,,,,,2,,,62,101
301680,note_on,0,0,1,,,,,,,,,0,,,86,101
301680,note_on,105,0,4,,,,,,,,,3,,,50,101
301680,note_on,0,0,1,,,,,,,,,0,,,90,101
301680,note_on,105,0,1,,,,,,,,,0,,,81,101
301703,note_on,0,0,1,,,,,,,,,0,,,86,0
301703,note_on,23,0,1,,,,,,,,,0,,,90,0
301703,note_on,23,0,4,,,,,,,,,3,,,50,0
301703,note_on,0,0,2,,,,,,,,,1,,,69,0
301703,note_on,0,0,2,,,,,,,,,1,,,74,0
301703,note_on,23,0,2,,,,,,,,,1,,,78,0
301703,note_on,23,0,3,,,,,,,,,2,,,62,0
301703,note_on,0,0,1,,,,,,,,,0,,,81,0
301920,note_on,217,0,3,,,,,,,,,2,,,57,101
301920,note_on,217,0,1,,,,,,,,,0,,,81,101
301920,note_on,0,0,1,,,,,,,,,0,,,85,101
301920,note_on,0,0,1,,,,,,,,,0,,,88,101
301920,note_on,217,0,2,,,,,,,,,1,,,69,101
301920,note_on,0,0,2,,,,,,,,,1,,,76,101
301920,note_on,0,0,2,,,,,,,,,1,,,73,101
301920,note_on,217,0,4,,,,,,,,,3,,,45,101
301943,note_on,0,0,1,,,,,,,,,0,,,81,0
301943,note_on,0,0,1,,,,,,,,,0,,,85,0
301943,note_on,23,0,1,,,,,,,,,0,,,88,0
301943,note_on,23,0,4,,,,,,,,,3,,,45,0
301943,note_on,23,0,3,,,,,,,,,2,,,57,0
301943,note_on,0,0,2,,,,,,,,,1,,,69,0
301943,note_on,0,0,2,,,,,,,,,1,,,73,0
301943,note_on,23,0,2,,,,,,,,,1,,,76,0
302160,note_on,217,0,3,,,,,,,,,2,,,62,101
302160,note_on,217,0,2,,,,,,,,,1,,,69,101
302160,note_on,217,0,1,,,,,,,,,0,,,81,101
302160,note_on,0,0,1,,,,,,,,,0,,,86,101
302160,note_on,0,0,1,,,,,,,,,0,,,90,101
302160,note_on,217,0,4,,,,,,,,,3,,,50,101
302160,note_on,0,0,2,,,,,,,,,1,,,74,101
302160,note_on,0,0,2,,,,,,,,,1,,,78,101
302183,note_on,23,0,3,,,,,,,,,2,,,62,0
302183,note_on,23,0,2,,,,,,,,,1,,,78,0
302183,note_on,23,0,4,,,,,,,,,3,,,50,0
302183,note_on,23,0,1,,,,,,,,,0,,,90,0
302183,note_on,0,0,1,,,,,,,,,0,,,81,0
302183,note_on,0,0,1,,,,,,,,,0,,,86,0
302183,note_on,0,0,2,,,,,,,,,1,,,74,0
302183,note_on,0,0,2,,,,,,,,,1,,,69,0
302400,note_on,0,0,1,,,,,,,,,0,,,89,101
302400,note_on,217,0,1,,,,,,,,,0,,,86,101
302400,note_on,217,0,2,,,,,,,,,1,,,74,101
302400,note_on,217,0,3,,,,,,,,,2,,,58,101
302400,note_on,0,0,2,,,,,,,,,1,,,77,101
302400,note_on,0,0,2,,,,,,,,,1,,,80,101
302400,note_on,0,0,1,,,,,,,,,0,,,92,101
302400,note_on,217,0,4,,,,,,,,,3,,,46,101
302423,note_on,23,0,3,,,,,,,,,2,,,58,0
302423,note_on,0,0,2,,,,,,,,,1,,,77,0
302423,note_on,0,0,1,,,,,,,,,0,,,89,0
302423,note_on,0,0,2,,,,,,,,,1,,,74,0
302423,note_on,23,0,2,,,,,,,,,1,,,80,0
302423,note_on,23,0,4,,,,,,,,,3,,,46,0
302423,note_on,23,0,1,,,,,,,,,0,,,92,0
302423,note_on,0,0,1,,,,,,,,,0,,,86,0
302640,note_on,0,0,1,,,,,,,,,0,,,93,101
302640,note_on,0,0,1,,,,,,,,,0,,,90,101
302640,note_on,217,0,1,,,,,,,,,0,,,86,101
302640,note_on,0,0,2,,,,,,,,,1,,,81,101
302640,note_on,217,0,3,,,,,,,,,2,,,57,101
302640,note_on,217,0,2,,,,,,,,,1,,,74,101
302640,note_on,0,0,2,,,,,,,,,1,,,78,101
302640,note_on,217,0,4,,,,,,,,,3,,,45,101
302663,note_on,23,0,1,,,,,,,,,0,,,93,0
302663,note_on,0,0,1,,,,,,,,,0,,,90,0
302663,note_on,0,0,1,,,,,,,,,0,,,86,0
302663,note_on,23,0,3,,,,,,,,,2,,,57,0
302663,note_on,23,0,4,,,,,,,,,3,,,45,0
302663,note_on,0,0,2,,,,,,,,,1,,,78,0
302663,note_on,23,0,2,,,,,,,,,1,,,81,0
302663,note_on,0,0,2,,,,,,,,,1,,,74,0
302880,note_on,217,0,4,,,,,,,,,3,,,57,62
302880,note_on,217,0,3,,,,,,,,,2,,,66,62
302880,note_on,0,0,3,,,,,,,,,2,,,69,62
302880,note_on,0,0,3,,,,,,,,,2,,,74,62
302895,note_on,15,0,4,,,,,,,,,3,,,57,0
302895,note_on,15,0,3,,,,,,,,,2,,,74,0
302895,note_on,0,0,3,,,,,,,,,2,,,69,0
302895,note_on,0,0,3,,,,,,,,,2,,,66,0
303000,note_on,0,0,3,,,,,,,,,2,,,69,62
303000,note_on,105,0,3,,,,,,,,,2,,,66,62
303000,note_on,0,0,3,,,,,,,,,2,,,74,62
303000,note_on,105,0,4,,,,,,,,,3,,,57,62
303015,note_on,0,0,3,,,,,,,,,2,,,66,0
303015,note_on,0,0,3,,,,,,,,,2,,,69,0
303015,note_on,15,0,3,,,,,,,,,2,,,74,0
303015,note_on,15,0,4,,,,,,,,,3,,,57,0
303120,note_on,105,0,3,,,,,,,,,2,,,64,62
303120,note_on,0,0,3,,,,,,,,,2,,,67,62
303120,note_on,0,0,3,,,,,,,,,2,,,73,62
303120,note_on,105,0,4,,,,,,,,,3,,,58,62
303143,note_on,23,0,4,,,,,,,,,3,,,58,0
303143,note_on,0,0,3,,,,,,,,,2,,,67,0
303143,note_on,23,0,3,,,,,,,,,2,,,73,0
303143,note_on,0,0,3,,,,,,,,,2,,,64,0
303360,note_on,217,0,3,,,,,,,,,2,,,62,62
303360,note_on,217,0,4,,,,,,,,,3,,,59,62
303360,note_on,0,0,3,,,,,,,,,2,,,66,62
303360,note_on,0,0,3,,,,,,,,,2,,,71,62
303383,note_on,0,0,3,,,,,,,,,2,,,62,0
303383,note_on,0,0,3,,,,,,,,,2,,,66,0
303383,note_on,23,0,4,,,,,,,,,3,,,59,0
303383,note_on,23,0,3,,,,,,,,,2,,,71,0
303600,note_on,217,0,4,,,,,,,,,3,,,54,62
303600,note_on,217,0,3,,,,,,,,,2,,,60,62
303600,note_on,0,0,3,,,,,,,,,2,,,62,62
303600,note_on,0,0,3,,,,,,,,,2,,,69,62
303623,note_on,23,0,3,,,,,,,,,2,,,69,0
303623,note_on,0,0,3,,,,,,,,,2,,,60,0
303623,note_on,0,0,3,,,,,,,,,2,,,62,0
303623,note_on,23,0,4,,,,,,,,,3,,,54,0
303840,note_on,0,0,3,,,,,,,,,2,,,62,62
303840,note_on,0,0,3,,,,,,,,,2,,,67,62
303840,note_on,217,0,4,,,,,,,,,3,,,55,62
303840,note_on,217,0,3,,,,,,,,,2,,,59,62
303863,note_on,23,0,3,,,,,,,,,2,,,67,0
303863,note_on,0,0,3,,,,,,,,,2,,,59,0
303863,note_on,23,0,4,,,,,,,,,3,,,55,0
303863,note_on,0,0,3,,,,,,,,,2,,,62,0
304080,note_on,217,0,3,,,,,,,,,2,,,62,62
304080,note_on,0,0,3,,,,,,,,,2,,,66,62
304080,note_on,217,0,4,,,,,,,,,3,,,57,62
304320,note_on,1657,0,1,,,,,,,,,0,,,74,62
304320,note_on,240,0,3,,,,,,,,,2,,,66,0
304320,note_on,240,0,4,,,,,,,,,3,,,57,0
304320,note_on,1657,0,2,,,,,,,,,1,,,62,62
304320,note_on,0,0,3,,,,,,,,,2,,,62,0
304440,note_on,0,0,2,,,,,,,,,1,,,64,62
304440,note_on,120,0,2,,,,,,,,,1,,,62,0
304440,note_on,0,0,1,,,,,,,,,0,,,76,62
304440,note_on,120,0,1,,,,,,,,,0,,,74,0
304560,note_on,120,0,2,,,,,,,,,1,,,64,0
304560,note_on,0,0,1,,,,,,,,,0,,,78,62
304560,note_on,120,0,1,,,,,,,,,0,,,76,0
304560,note_on,0,0,2,,,,,,,,,1,,,66,62
304680,note_on,120,0,2,,,,,,,,,1,,,66,0
304680,note_on,0,0,2,,,,,,,,,1,,,62,62
304680,note_on,120,0,1,,,,,,,,,0,,,78,0
304680,note_on,0,0,1,,,,,,,,,0,,,74,62
304800,note_on,120,0,2,,,,,,,,,1,,,62,0
304800,note_on,0,0,2,,,,,,,,,1,,,66,62
304800,note_on,120,0,1,,,,,,,,,0,,,74,0
304800,note_on,0,0,1,,,,,,,,,0,,,78,62
304920,note_on,0,0,1,,,,,,,,,0,,,81,62
304920,note_on,120,0,2,,,,,,,,,1,,,66,0
304920,note_on,0,0,2,,,,,,,,,1,,,69,62
304920,note_on,120,0,1,,,,,,,,,0,,,78,0
305040,note_on,120,0,2,,,,,,,,,1,,,69,0
305040,note_on,720,0,3,,,,,,,,,2,,,57,49
305040,note_on,120,0,1,,,,,,,,,0,,,81,0
305040,note_on,0,0,1,,,,,,,,,0,,,83,88
305040,note_on,0,0,2,,,,,,,,,1,,,71,88
305040,note_on,0,0,3,,,,,,,,,2,,,67,49
305040,note_on,0,0,3,,,,,,,,,2,,,61,49
305040,note_on,720,0,4,,,,,,,,,3,,,45,62
305280,note_on,240,0,1,,,,,,,,,0,,,83,0
305280,note_on,0,0,1,,,,,,,,,0,,,81,62
305280,note_on,240,0,2,,,,,,,,,1,,,71,0
305280,note_on,0,0,2,,,,,,,,,1,,,69,62
305460,note_on,180,0,1,,,,,,,,,0,,,81,62
305460,note_on,180,0,2,,,,,,,,,1,,,69,62
305520,note_on,60,0,2,,,,,,,,,1,,,69,0
305520,note_on,480,0,4,,,,,,,,,3,,,45,0
305520,note_on,0,0,2,,,,,,,,,1,,,78,62
305520,note_on,0,0,3,,,,,,,,,2,,,66,49
305520,note_on,480,0,3,,,,,,,,,2,,,67,0
305520,note_on,0,0,3,,,,,,,,,2,,,61,0
305520,note_on,0,0,1,,,,,,,,,0,,,90,62
305520,note_on,0,0,4,,,,,,,,,3,,,50,62
305520,control_change,0,0,1,,,,,,,,,0,64,127,,
305520,control_change,0,0,2,,,,,,,,,1,64,127,,
305520,note_on,60,0,1,,,,,,,,,0,,,81,0
305520,note_on,0,0,3,,,,,,,,,2,,,57,0
305520,note_on,0,0,3,,,,,,,,,2,,,57,49
305520,note_on,0,0,3,,,,,,,,,2,,,62,49
305760,control_change,0,0,3,,,,,,,,,2,64,127,,
305760,note_on,240,0,3,,,,,,,,,2,,,66,0
305760,note_on,240,0,4,,,,,,,,,3,,,50,0
305760,note_on,0,0,3,,,,,,,,,2,,,62,0
305760,note_on,0,0,3,,,,,,,,,2,,,62,62
305760,note_on,0,0,3,,,,,,,,,2,,,57,0
305880,note_on,0,0,3,,,,,,,,,2,,,64,62
305880,note_on,120,0,3,,,,,,,,,2,,,62,0
306000,note_on,0,0,3,,,,,,,,,2,,,66,62
306000,note_on,120,0,3,,,,,,,,,2,,,64,0
306120,note_on,0,0,3,,,,,,,,,2,,,62,62
306120,note_on,120,0,3,,,,,,,,,2,,,66,0
306240,note_on,0,0,1,,,,,,,,,0,,,81,0
306240,note_on,0,0,1,,,,,,,,,0,,,88,62
306240,note_on,0,0,3,,,,,,,,,2,,,66,62
306240,note_on,720,0,1,,,,,,,,,0,,,90,0
306240,note_on,120,0,3,,,,,,,,,2,,,62,0
306240,note_on,0,0,2,,,,,,,,,1,,,76,62
306240,note_on,0,0,2,,,,,,,,,1,,,69,0
306240,note_on,720,0,2,,,,,,,,,1,,,78,0
306360,note_on,120,0,1,,,,,,,,,0,,,88,0
306360,note_on,0,0,3,,,,,,,,,2,,,69,62
306360,note_on,0,0,1,,,,,,,,,0,,,86,62
306360,note_on,120,0,3,,,,,,,,,2,,,66,0
306360,note_on,120,0,2,,,,,,,,,1,,,76,0
306360,note_on,0,0,2,,,,,,,,,1,,,74,62
306480,note_on,720,0,4,,,,,,,,,3,,,45,62
306480,note_on,0,0,1,,,,,,,,,0,,,85,62
306480,control_change,0,0,1,,,,,,,,,0,64,0,,
306480,note_on,120,0,1,,,,,,,,,0,,,86,0
306480,note_on,0,0,3,,,,,,,,,2,,,70,62
306480,note_on,120,0,3,,,,,,,,,2,,,69,0
306480,note_on,120,0,2,,,,,,,,,1,,,74,0
306480,control_change,0,0,2,,,,,,,,,1,64,0,,
306480,note_on,0,0,2,,,,,,,,,1,,,73,62
306480,note_on,0,0,4,,,,,,,,,3,,,55,62
306503,note_on,23,0,2,,,,,,,,,1,,,73,0
306503,note_on,23,0,1,,,,,,,,,0,,,85,0
306720,note_on,217,0,1,,,,,,,,,0,,,93,62
306720,note_on,217,0,2,,,,,,,,,1,,,81,62
306720,note_on,240,0,3,,,,,,,,,2,,,70,0
306720,control_change,0,0,3,,,,,,,,,2,64,0,,
306720,note_on,0,0,3,,,,,,,,,2,,,69,62
306743,note_on,23,0,1,,,,,,,,,0,,,93,0
306743,note_on,23,0,2,,,,,,,,,1,,,81,0
306960,note_on,217,0,2,,,,,,,,,1,,,74,62
306960,note_on,217,0,1,,,,,,,,,0,,,86,62
306960,note_on,0,0,4,,,,,,,,,3,,,50,62
306960,note_on,0,0,4,,,,,,,,,3,,,54,62
306960,note_on,480,0,4,,,,,,,,,3,,,55,0
306960,note_on,0,0,3,,,,,,,,,2,,,66,62
306960,note_on,0,0,3,,,,,,,,,2,,,62,62
306960,note_on,240,0,3,,,,,,,,,2,,,69,0
306960,note_on,0,0,4,,,,,,,,,3,,,45,0
307200,note_on,0,0,1,,,,,,,,,0,,,81,101
307200,note_on,240,0,3,,,,,,,,,2,,,66,0
307200,note_on,0,0,3,,,,,,,,,2,,,62,0
307200,note_on,240,0,1,,,,,,,,,0,,,86,0
307200,note_on,0,0,3,,,,,,,,,2,,,57,101
307200,note_on,0,0,1,,,,,,,,,0,,,85,101
307200,note_on,0,0,4,,,,,,,,,3,,,45,101
307200,note_on,0,0,1,,,,,,,,,0,,,88,101
307200,note_on,0,0,4,,,,,,,,,3,,,50,0
307200,note_on,240,0,4,,,,,,,,,3,,,54,0
307200,note_on,0,0,2,,,,,,,,,1,,,76,101
307200,note_on,0,0,2,,,,,,,,,1,,,73,101
307200,note_on,0,0,2,,,,,,,,,1,,,69,101
307200,note_on,240,0,2,,,,,,,,,1,,,74,0
307215,note_on,15,0,1,,,,,,,,,0,,,88,0
307215,note_on,0,0,2,,,,,,,,,1,,,69,0
307215,note_on,0,0,2,,,,,,,,,1,,,73,0
307215,note_on,15,0,2,,,,,,,,,1,,,76,0
307215,note_on,15,0,3,,,,,,,,,2,,,57,0
307215,note_on,0,0,1,,,,,,,,,0,,,81,0
307215,note_on,15,0,4,,,,,,,,,3,,,45,0
307215,note_on,0,0,1,,,,,,,,,0,,,85,0
307320,note_on,0,0,1,,,,,,,,,0,,,88,101
307320,note_on,0,0,1,,,,,,,,,0,,,85,101
307320,note_on,105,0,1,,,,,,,,,0,,,81,101
307320,note_on,105,0,4,,,,,,,,,3,,,45,101
307320,note_on,105,0,3,,,,,,,,,2,,,57,101
307320,note_on,0,0,2,,,,,,,,,1,,,76,101
307320,note_on,0,0,2,,,,,,,,,1,,,73,101
307320,note_on,105,0,2,,,,,,,,,1,,,69,101
307335,note_on,15,0,3,,,,,,,,,2,,,57,0
307335,note_on,0,0,2,,,,,,,,,1,,,73,0
307335,note_on,0,0,2,,,,,,,,,1,,,69,0
307335,note_on,0,0,1,,,,,,,,,0,,,81,0
307335,note_on,0,0,1,,,,,,,,,0,,,85,0
307335,note_on,15,0,1,,,,,,,,,0,,,88,0
307335,note_on,15,0,4,,,,,,,,,3,,,45,0
307335,note_on,15,0,2,,,,,,,,,1,,,76,0
307440,note_on,0,0,1,,,,,,,,,0,,,86,101
307440,note_on,105,0,1,,,,,,,,,0,,,81,101
307440,note_on,0,0,1,,,,,,,,,0,,,89,101
307440,note_on,105,0,3,,,,,,,,,2,,,62,101
307440,note_on,0,0,2,,,,,,,,,1,,,77,101
307440,note_on,105,0,4,,,,,,,,,3,,,50,101
307440,note_on,105,0,2,,,,,,,,,1,,,69,101
307440,note_on,0,0,2,,,,,,,,,1,,,74,101
307463,note_on,0,0,1,,,,,,,,,0,,,81,0
307463,note_on,0,0,1,,,,,,,,,0,,,86,0
307463,note_on,23,0,1,,,,,,,,,0,,,89,0
307463,note_on,23,0,2,,,,,,,,,1,,,77,0
307463,note_on,0,0,2,,,,,,,,,1,,,69,0
307463,note_on,0,0,2,,,,,,,,,1,,,74,0
307463,note_on,23,0,4,,,,,,,,,3,,,50,0
307463,note_on,23,0,3,,,,,,,,,2,,,62,0
307680,note_on,0,0,1,,,,,,,,,0,,,88,101
307680,note_on,217,0,4,,,,,,,,,3,,,45,101
307680,note_on,0,0,2,,,,,,,,,1,,,76,101
307680,note_on,0,0,2,,,,,,,,,1,,,73,101
307680,note_on,217,0,1,,,,,,,,,0,,,81,101
307680,note_on,0,0,1,,,,,,,,,0,,,85,101
307680,note_on,217,0,2,,,,,,,,,1,,,69,101
307680,note_on,217,0,3,,,,,,,,,2,,,57,101
307703,note_on,0,0,1,,,,,,,,,0,,,81,0
307703,note_on,23,0,4,,,,,,,,,3,,,45,0
307703,note_on,0,0,2,,,,,,,,,1,,,73,0
307703,note_on,0,0,2,,,,,,,,,1,,,69,0
307703,note_on,0,0,1,,,,,,,,,0,,,85,0
307703,note_on,23,0,1,,,,,,,,,0,,,88,0
307703,note_on,23,0,2,,,,,,,,,1,,,76,0
307703,note_on,23,0,3,,,,,,,,,2,,,57,0
307920,note_on,0,0,1,,,,,,,,,0,,,86,101
307920,note_on,217,0,4,,,,,,,,,3,,,50,101
307920,note_on,0,0,2,,,,,,,,,1,,,77,101
307920,note_on,0,0,2,,,,,,,,,1,,,74,101
307920,note_on,217,0,2,,,,,,,,,1,,,69,101
307920,note_on,217,0,3,,,,,,,,,2,,,62,101
307920,note_on,0,0,1,,,,,,,,,0,,,89,101
307920,note_on,217,0,1,,,,,,,,,0,,,81,101
307943,note_on,23,0,3,,,,,,,,,2,,,62,0
307943,note_on,23,0,4,,,,,,,,,3,,,50,0
307943,note_on,0,0,2,,,,,,,,,1,,,69,0
307943,note_on,0,0,1,,,,,,,,,0,,,86,0
307943,note_on,0,0,2,,,,,,,,,1,,,74,0
307943,note_on,23,0,2,,,,,,,,,1,,,77,0
307943,note_on,0,0,1,,,,,,,,,0,,,81,0
307943,note_on,23,0,1,,,,,,,,,0,,,89,0
308160,note_on,217,0,1,,,,,,,,,0,,,86,101
308160,note_on,0,0,1,,,,,,,,,0,,,89,101
308160,note_on,0,0,1,,,,,,,,,0,,,91,101
308160,note_on,217,0,4,,,,,,,,,3,,,47,101
308160,note_on,217,0,3,,,,,,,,,2,,,59,101
308160,note_on,0,0,2,,,,,,,,,1,,,79,101
308160,note_on,0,0,2,,,,,,,,,1,,,77,101
308160,note_on,217,0,2,,,,,,,,,1,,,74,101
308183,note_on,0,0,1,,,,,,,,,0,,,89,0
308183,note_on,23,0,1,,,,,,,,,0,,,91,0
308183,note_on,0,0,1,,,,,,,,,0,,,86,0
308183,note_on,23,0,3,,,,,,,,,2,,,59,0
308183,note_on,23,0,2,,,,,,,,,1,,,79,0
308183,note_on,0,0,2,,,,,,,,,1,,,77,0
308183,note_on,0,0,2,,,,,,,,,1,,,74,0
308183,note_on,23,0,4,,,,,,,,,3,,,47,0
308400,note_on,217,0,2,,,,,,,,,1,,,72,101
308400,note_on,217,0,3,,,,,,,,,2,,,60,101
308400,note_on,217,0,1,,,,,,,,,0,,,84,101
308400,note_on,0,0,1,,,,,,,,,0,,,89,101
308400,note_on,0,0,2,,,,,,,,,1,,,77,101
308400,note_on,217,0,4,,,,,,,,,3,,,48,101
308400,note_on,0,0,1,,,,,,,,,0,,,93,101
308400,note_on,0,0,2,,,,,,,,,1,,,81,101
308423,note_on,23,0,2,,,,,,,,,1,,,81,0
308423,note_on,0,0,2,,,,,,,,,1,,,77,0
308423,note_on,0,0,2,,,,,,,,,1,,,72,0
308423,note_on,23,0,1,,,,,,,,,0,,,93,0
308423,note_on,0,0,1,,,,,,,,,0,,,89,0
308423,note_on,0,0,1,,,,,,,,,0,,,84,0
308423,note_on,23,0,4,,,,,,,,,3,,,48,0
308640,note_on,0,0,3,,,,,,,,,2,,,65,62
308640,note_on,0,0,3,,,,,,,,,2,,,60,62
308640,note_on,0,0,3,,,,,,,,,2,,,57,62
308640,note_on,240,0,3,,,,,,,,,2,,,60,0
308640,note_on,217,0,4,,,,,,,,,3,,,48,62
308655,note_on,15,0,4,,,,,,,,,3,,,48,0
308655,note_on,0,0,3,,,,,,,,,2,,,57,0
308655,note_on,0,0,3,,,,,,,,,2,,,60,0
308655,note_on,15,0,3,,,,,,,,,2,,,65,0
308760,note_on,105,0,3,,,,,,,,,2,,,57,62
308760,note_on,0,0,3,,,,,,,,,2,,,60,62
308760,note_on,0,0,3,,,,,,,,,2,,,65,62
308760,note_on,105,0,4,,,,,,,,,3,,,48,62
308775,note_on,15,0,4,,,,,,,,,3,,,48,0
308775,note_on,0,0,3,,,,,,,,,2,,,57,0
308775,note_on,0,0,3,,,,,,,,,2,,,60,0
308775,note_on,15,0,3,,,,,,,,,2,,,65,0
308880,note_on,0,0,3,,,,,,,,,2,,,58,62
308880,note_on,105,0,4,,,,,,,,,3,,,49,62
308880,note_on,105,0,3,,,,,,,,,2,,,55,62
308880,note_on,0,0,3,,,,,,,,,2,,,64,62
308903,note_on,0,0,3,,,,,,,,,2,,,55,0
308903,note_on,23,0,4,,,,,,,,,3,,,49,0
308903,note_on,23,0,3,,,,,,,,,2,,,64,0
308903,note_on,0,0,3,,,,,,,,,2,,,58,0
309120,note_on,0,0,3,,,,,,,,,2,,,57,62
309120,note_on,0,0,3,,,,,,,,,2,,,62,62
309120,note_on,217,0,4,,,,,,,,,3,,,50,62
309120,note_on,217,0,3,,,,,,,,,2,,,53,62
309143,note_on,23,0,3,,,,,,,,,2,,,62,0
309143,note_on,0,0,3,,,,,,,,,2,,,57,0
309143,note_on,0,0,3,,,,,,,,,2,,,53,0
309143,note_on,23,0,4,,,,,,,,,3,,,50,0
309360,note_on,217,0,3,,,,,,,,,2,,,51,62
309360,note_on,0,0,3,,,,,,,,,2,,,60,62
309360,note_on,217,0,4,,,,,,,,,3,,,45,62
309360,note_on,0,0,3,,,,,,,,,2,,,53,62
309383,note_on,0,0,3,,,,,,,,,2,,,51,0
309383,note_on,0,0,3,,,,,,,,,2,,,53,0
309383,note_on,23,0,3,,,,,,,,,2,,,60,0
309383,note_on,23,0,4,,,,,,,,,3,,,45,0
309600,note_on,217,0,4,,,,,,,,,3,,,46,62
309600,note_on,217,0,3,,,,,,,,,2,,,50,62
309600,note_on,0,0,3,,,,,,,,,2,,,53,62
309600,note_on,0,0,3,,,,,,,,,2,,,58,62
309623,note_on,23,0,3,,,,,,,,,2,,,58,0
309623,note_on,0,0,3,,,,,,,,,2,,,53,0
309623,note_on,0,0,3,,,,,,,,,2,,,50,0
309623,note_on,23,0,4,,,,,,,,,3,,,46,0
309840,note_on,217,0,4,,,,,,,,,3,,,48,62
309840,note_on,217,0,3,,,,,,,,,2,,,53,62
309840,note_on,0,0,3,,,,,,,,,2,,,57,62
310080,note_on,0,0,2,,,,,,,,,1,,,65,62
310080,control_change,1657,0,2,,,,,,,,,1,64,127,,
310080,note_on,0,0,1,,,,,,,,,0,,,77,62
310080,control_change,1657,0,1,,,,,,,,,0,64,127,,
310200,note_on,120,0,1,,,,,,,,,0,,,77,0
310200,note_on,0,0,1,,,,,,,,,0,,,79,62
310200,note_on,120,0,2,,,,,,,,,1,,,65,0
310200,note_on,0,0,2,,,,,,,,,1,,,67,62
310320,note_on,0,0,2,,,,,,,,,1,,,69,62
310320,note_on,120,0,2,,,,,,,,,1,,,67,0
310320,note_on,480,0,3,,,,,,,,,2,,,57,0
310320,note_on,480,0,4,,,,,,,,,3,,,48,0
310320,note_on,0,0,1,,,,,,,,,0,,,81,62
310320,note_on,120,0,1,,,,,,,,,0,,,79,0
310320,note_on,0,0,3,,,,,,,,,2,,,53,0
310440,note_on,0,0,1,,,,,,,,,0,,,77,62
310440,note_on,120,0,1,,,,,,,,,0,,,81,0
310440,note_on,0,0,2,,,,,,,,,1,,,65,62
310440,note_on,120,0,2,,,,,,,,,1,,,69,0
310560,note_on,120,0,2,,,,,,,,,1,,,65,0
310560,note_on,0,0,2,,,,,,,,,1,,,69,62
310560,note_on,0,0,1,,,,,,,,,0,,,81,62
310560,note_on,120,0,1,,,,,,,,,0,,,77,0
310680,note_on,120,0,1,,,,,,,,,0,,,81,0
310680,note_on,120,0,2,,,,,,,,,1,,,69,0
310680,note_on,0,0,1,,,,,,,,,0,,,84,62
310680,note_on,0,0,2,,,,,,,,,1,,,72,62
310800,note_on,480,0,3,,,,,,,,,2,,,52,62
310800,note_on,0,0,2,,,,,,,,,1,,,74,62
310800,note_on,0,0,3,,,,,,,,,2,,,58,62
310800,note_on,0,0,4,,,,,,,,,3,,,48,62
310800,note_on,480,0,4,,,,,,,,,3,,,36,62
310800,note_on,120,0,1,,,,,,,,,0,,,84,0
310800,note_on,120,0,2,,,,,,,,,1,,,72,0
310800,note_on,0,0,1,,,,,,,,,0,,,86,62
311040,note_on,240,0,2,,,,,,,,,1,,,74,0
311040,control_change,0,0,2,,,,,,,,,1,64,0,,
311040,note_on,0,0,2,,,,,,,,,1,,,72,62
311040,control_change,0,0,1,,,,,,,,,0,64,0,,
311040,note_on,0,0,1,,,,,,,,,0,,,84,62
311040,note_on,240,0,1,,,,,,,,,0,,,86,0
311220,note_on,180,0,2,,,,,,,,,1,,,72,62
311220,note_on,180,0,1,,,,,,,,,0,,,84,62
311280,note_on,60,0,2,,,,,,,,,1,,,72,0
311280,note_on,0,0,4,,,,,,,,,3,,,36,0
311280,note_on,480,0,4,,,,,,,,,3,,,48,0
311280,note_on,0,0,1,,,,,,,,,0,,,96,62
311280,note_on,60,0,1,,,,,,,,,0,,,84,0
311280,note_on,480,0,3,,,,,,,,,2,,,58,0
311280,note_on,0,0,3,,,,,,,,,2,,,52,0
311280,note_on,0,0,3,,,,,,,,,2,,,53,62
311280,note_on,0,0,3,,,,,,,,,2,,,57,62
311280,note_on,0,0,4,,,,,,,,,3,,,41,62
311280,note_on,0,0,2,,,,,,,,,1,,,84,62
311520,note_on,240,0,4,,,,,,,,,3,,,41,0
311520,note_on,240,0,3,,,,,,,,,2,,,57,0
311520,note_on,0,0,3,,,,,,,,,2,,,53,0
311520,control_change,0,0,3,,,,,,,,,2,64,127,,
311520,note_on,0,0,3,,,,,,,,,2,,,65,62
311640,note_on,120,0,3,,,,,,,,,2,,,65,0
311640,note_on,0,0,3,,,,,,,,,2,,,67,62
311760,note_on,120,0,3,,,,,,,,,2,,,67,0
311760,note_on,0,0,3,,,,,,,,,2,,,69,62
311880,note_on,0,0,3,,,,,,,,,2,,,65,62
311880,note_on,120,0,3,,,,,,,,,2,,,69,0
312000,note_on,0,0,3,,,,,,,,,2,,,69,62
312000,note_on,720,0,2,,,,,,,,,1,,,84,0
312000,note_on,120,0,3,,,,,,,,,2,,,65,0
312000,note_on,0,0,2,,,,,,,,,1,,,72,0
312000,note_on,720,0,1,,,,,,,,,0,,,96,0
312000,note_on,0,0,1,,,,,,,,,0,,,84,0
312000,note_on,0,0,2,,,,,,,,,1,,,82,62
312000,note_on,0,0,1,,,,,,,,,0,,,94,62
312120,note_on,120,0,1,,,,,,,,,0,,,94,0
312120,note_on,0,0,1,,,,,,,,,0,,,93,62
312120,note_on,0,0,2,,,,,,,,,1,,,81,62
312120,note_on,120,0,2,,,,,,,,,1,,,82,0
312120,note_on,120,0,3,,,,,,,,,2,,,69,0
312120,note_on,0,0,3,,,,,,,,,2,,,72,62
312240,note_on,120,0,1,,,,,,,,,0,,,93,0
312240,note_on,120,0,3,,,,,,,,,2,,,72,0
312240,note_on,720,0,4,,,,,,,,,3,,,48,62
312240,note_on,0,0,4,,,,,,,,,3,,,52,62
312240,note_on,0,0,4,,,,,,,,,3,,,58,62
312240,note_on,0,0,1,,,,,,,,,0,,,91,62
312240,note_on,0,0,2,,,,,,,,,1,,,79,62
312240,note_on,0,0,3,,,,,,,,,2,,,73,88
312240,note_on,120,0,2,,,,,,,,,1,,,81,0
312263,note_on,23,0,1,,,,,,,,,0,,,91,0
312263,note_on,23,0,2,,,,,,,,,1,,,79,0
312480,control_change,0,0,3,,,,,,,,,2,64,0,,
312480,note_on,217,0,1,,,,,,,,,0,,,96,62
312480,note_on,217,0,2,,,,,,,,,1,,,84,62
312480,note_on,240,0,3,,,,,,,,,2,,,73,0
312480,note_on,0,0,3,,,,,,,,,2,,,72,62
312503,note_on,23,0,1,,,,,,,,,0,,,96,0
312503,note_on,23,0,2,,,,,,,,,1,,,84,0
312720,note_on,480,0,4,,,,,,,,,3,,,58,0
312720,note_on,217,0,1,,,,,,,,,0,,,89,62
312720,note_on,0,0,4,,,,,,,,,3,,,48,0
312720,note_on,0,0,4,,,,,,,,,3,,,52,0
312720,note_on,0,0,4,,,,,,,,,3,,,49,62
312720,note_on,0,0,4,,,,,,,,,3,,,37,62
312720,note_on,217,0,2,,,,,,,,,1,,,77,62
312720,note_on,240,0,3,,,,,,,,,2,,,72,0
312720,control_change,0,0,3,,,,,,,,,2,64,127,,
312720,note_on,0,0,3,,,,,,,,,2,,,65,49
312840,note_on,0,0,3,,,,,,,,,2,,,61,49
312840,note_on,120,0,3,,,,,,,,,2,,,65,0
312960,note_on,0,0,3,,,,,,,,,2,,,56,49
312960,note_on,120,0,3,,,,,,,,,2,,,61,0
313080,note_on,0,0,3,,,,,,,,,2,,,61,49
313080,control_change,0,0,3,,,,,,,,,2,64,0,,
313080,note_on,120,0,3,,,,,,,,,2,,,56,0
313200,note_on,0,0,3,,,,,,,,,2,,,65,49
313200,control_change,0,0,3,,,,,,,,,2,64,127,,
313200,note_on,120,0,3,,,,,,,,,2,,,61,0
313320,note_on,0,0,3,,,,,,,,,2,,,61,49
313320,note_on,120,0,3,,,,,,,,,2,,,65,0
313440,note_on,120,0,3,,,,,,,,,2,,,61,0
313440,note_on,0,0,2,,,,,,,,,1,,,80,62
313440,note_on,0,0,3,,,,,,,,,2,,,56,49
313440,note_on,720,0,2,,,,,,,,,1,,,77,0
313440,note_on,720,0,1,,,,,,,,,0,,,89,0
313440,note_on,0,0,1,,,,,,,,,0,,,92,62
313560,note_on,0,0,3,,,,,,,,,2,,,61,49
313560,note_on,120,0,3,,,,,,,,,2,,,56,0
313560,note_on,120,0,2,,,,,,,,,1,,,80,0
313560,note_on,0,0,2,,,,,,,,,1,,,80,62
313560,note_on,120,0,1,,,,,,,,,0,,,92,0
313560,note_on,0,0,1,,,,,,,,,0,,,92,62
313560,control_change,0,0,3,,,,,,,,,2,64,0,,
313680,note_on,120,0,1,,,,,,,,,0,,,92,0
313680,note_on,0,0,1,,,,,,,,,0,,,85,62
313680,note_on,0,0,3,,,,,,,,,2,,,65,49
313680,control_change,0,0,3,,,,,,,,,2,64,127,,
313680,note_on,0,0,2,,,,,,,,,1,,,73,62
313680,note_on,120,0,2,,,,,,,,,1,,,80,0
313680,note_on,120,0,3,,,,,,,,,2,,,61,0
313703,note_on,23,0,1,,,,,,,,,0,,,85,0
313703,note_on,23,0,2,,,,,,,,,1,,,73,0
313800,note_on,120,0,3,,,,,,,,,2,,,65,0
313800,note_on,0,0,3,,,,,,,,,2,,,61,49
313920,note_on,217,0,2,,,,,,,,,1,,,75,62
313920,note_on,120,0,3,,,,,,,,,2,,,61,0
313920,note_on,217,0,1,,,,,,,,,0,,,87,62
313920,note_on,0,0,3,,,,,,,,,2,,,56,49
313943,note_on,23,0,2,,,,,,,,,1,,,75,0
313943,note_on,23,0,1,,,,,,,,,0,,,87,0
314040,note_on,0,0,3,,,,,,,,,2,,,61,49
314040,control_change,0,0,3,,,,,,,,,2,64,0,,
314040,note_on,120,0,3,,,,,,,,,2,,,56,0
314160,control_change,0,0,3,,,,,,,,,2,64,127,,
314160,note_on,0,0,3,,,,,,,,,2,,,67,49
314160,note_on,0,0,4,,,,,,,,,3,,,33,62
314160,note_on,217,0,2,,,,,,,,,1,,,76,62
314160,note_on,0,0,4,,,,,,,,,3,,,37,0
314160,note_on,1440,0,4,,,,,,,,,3,,,49,0
314160,note_on,120,0,3,,,,,,,,,2,,,61,0
314160,note_on,0,0,4,,,,,,,,,3,,,45,62
314160,note_on,217,0,1,,,,,,,,,0,,,88,62
314280,note_on,0,0,3,,,,,,,,,2,,,61,49
314280,note_on,120,0,3,,,,,,,,,2,,,67,0
314400,note_on,0,0,3,,,,,,,,,2,,,57,49
314400,note_on,120,0,3,,,,,,,,,2,,,61,0
314520,note_on,120,0,3,,,,,,,,,2,,,57,0
314520,note_on,0,0,3,,,,,,,,,2,,,61,49
314520,control_change,0,0,3,,,,,,,,,2,64,0,,
314640,note_on,0,0,3,,,,,,,,,2,,,67,49
314640,note_on,120,0,3,,,,,,,,,2,,,61,0
314640,control_change,0,0,3,,,,,,,,,2,64,127,,
314760,note_on,0,0,3,,,,,,,,,2,,,61,49
314760,note_on,120,0,3,,,,,,,,,2,,,67,0
314880,note_on,0,0,2,,,,,,,,,1,,,79,62
314880,note_on,120,0,3,,,,,,,,,2,,,61,0
314880,note_on,720,0,1,,,,,,,,,0,,,88,0
314880,note_on,0,0,1,,,,,,,,,0,,,91,62
314880,note_on,0,0,3,,,,,,,,,2,,,57,49
314880,note_on,720,0,2,,,,,,,,,1,,,76,0
315000,note_on,120,0,1,,,,,,,,,0,,,91,0
315000,note_on,0,0,1,,,,,,,,,0,,,88,62
315000,note_on,120,0,3,,,,,,,,,2,,,57,0
315000,note_on,0,0,2,,,,,,,,,1,,,76,62
315000,note_on,120,0,2,,,,,,,,,1,,,79,0
315000,note_on,0,0,3,,,,,,,,,2,,,61,49
315000,control_change,0,0,3,,,,,,,,,2,64,0,,
315120,note_on,120,0,2,,,,,,,,,1,,,76,0
315120,note_on,0,0,3,,,,,,,,,2,,,67,49
315120,control_change,0,0,3,,,,,,,,,2,64,127,,
315120,note_on,120,0,1,,,,,,,,,0,,,88,0
315120,note_on,0,0,1,,,,,,,,,0,,,85,62
315120,note_on,120,0,3,,,,,,,,,2,,,61,0
315120,note_on,0,0,2,,,,,,,,,1,,,73,62
315143,note_on,23,0,1,,,,,,,,,0,,,85,0
315143,note_on,23,0,2,,,,,,,,,1,,,73,0
315240,note_on,0,0,3,,,,,,,,,2,,,61,49
315240,note_on,120,0,3,,,,,,,,,2,,,67,0
315360,note_on,217,0,2,,,,,,,,,1,,,81,62
315360,note_on,217,0,1,,,,,,,,,0,,,93,62
315360,note_on,0,0,3,,,,,,,,,2,,,57,49
315360,note_on,120,0,3,,,,,,,,,2,,,61,0
315383,note_on,23,0,1,,,,,,,,,0,,,93,0
315383,note_on,23,0,2,,,,,,,,,1,,,81,0
315480,note_on,0,0,3,,,,,,,,,2,,,61,49
315480,note_on,120,0,3,,,,,,,,,2,,,57,0
315480,control_change,0,0,3,,,,,,,,,2,64,0,,
315600,note_on,1440,0,4,,,,,,,,,3,,,45,0
315600,note_on,217,0,1,,,,,,,,,0,,,86,62
315600,note_on,0,0,3,,,,,,,,,2,,,62,49
315600,note_on,0,0,3,,,,,,,,,2,,,57,49
315600,note_on,120,0,3,,,,,,,,,2,,,61,0
315600,note_on,0,0,4,,,,,,,,,3,,,50,62
315600,note_on,217,0,2,,,,,,,,,1,,,74,62
315600,note_on,0,0,4,,,,,,,,,3,,,33,0
315600,note_on,0,0,3,,,,,,,,,2,,,66,49
315840,note_on,0,0,3,,,,,,,,,2,,,66,49
315840,note_on,0,0,4,,,,,,,,,3,,,50,62
315840,note_on,0,0,3,,,,,,,,,2,,,62,49
315840,note_on,0,0,3,,,,,,,,,2,,,57,49
315840,note_on,0,0,3,,,,,,,,,2,,,57,0
315840,note_on,0,0,3,,,,,,,,,2,,,62,0
315840,note_on,240,0,3,,,,,,,,,2,,,66,0
315840,note_on,240,0,4,,,,,,,,,3,,,50,0
316080,note_on,480,0,2,,,,,,,,,1,,,74,0
316080,note_on,0,0,4,,,,,,,,,3,,,50,62
316080,note_on,0,0,3,,,,,,,,,2,,,57,0
316080,note_on,0,0,3,,,,,,,,,2,,,57,49
316080,note_on,0,0,3,,,,,,,,,2,,,62,49
316080,note_on,0,0,3,,,,,,,,,2,,,66,49
316080,note_on,480,0,1,,,,,,,,,0,,,86,0
316080,note_on,240,0,4,,,,,,,,,3,,,50,0
316080,note_on,240,0,3,,,,,,,,,2,,,66,0
316080,note_on,0,0,3,,,,,,,,,2,,,62,0
316320,note_on,0,0,3,,,,,,,,,2,,,62,49
316320,control_change,240,0,1,,,,,,,,,0,64,127,,
316320,note_on,0,0,3,,,,,,,,,2,,,57,49
316320,note_on,240,0,4,,,,,,,,,3,,,50,0
316320,note_on,0,0,2,,,,,,,,,1,,,69,62
316320,control_change,240,0,2,,,,,,,,,1,64,127,,
316320,note_on,0,0,3,,,,,,,,,2,,,57,0
316320,note_on,0,0,3,,,,,,,,,2,,,62,0
316320,note_on,0,0,1,,,,,,,,,0,,,81,62
316320,note_on,0,0,4,,,,,,,,,3,,,50,62
316320,note_on,240,0,3,,,,,,,,,2,,,66,0
316320,note_on,0,0,3,,,,,,,,,2,,,66,49
316440,note_on,120,0,2,,,,,,,,,1,,,69,0
316440,note_on,120,0,1,,,,,,,,,0,,,81,0
316440,note_on,0,0,1,,,,,,,,,0,,,83,62
316440,note_on,0,0,2,,,,,,,,,1,,,71,62
316560,note_on,0,0,4,,,,,,,,,3,,,50,62
316560,note_on,240,0,4,,,,,,,,,3,,,50,0
316560,note_on,0,0,2,,,,,,,,,1,,,73,62
316560,note_on,120,0,2,,,,,,,,,1,,,71,0
316560,note_on,0,0,1,,,,,,,,,0,,,85,62
316560,note_on,120,0,1,,,,,,,,,0,,,83,0
316560,note_on,0,0,3,,,,,,,,,2,,,66,49
316560,note_on,0,0,3,,,,,,,,,2,,,62,49
316560,note_on,0,0,3,,,,,,,,,2,,,57,49
316560,note_on,0,0,3,,,,,,,,,2,,,57,0
316560,note_on,0,0,3,,,,,,,,,2,,,62,0
316560,note_on,240,0,3,,,,,,,,,2,,,66,0
316680,note_on,0,0,1,,,,,,,,,0,,,86,62
316680,note_on,120,0,1,,,,,,,,,0,,,85,0
316680,note_on,120,0,2,,,,,,,,,1,,,73,0
316680,note_on,0,0,2,,,,,,,,,1,,,74,62
316800,note_on,240,0,4,,,,,,,,,3,,,50,0
316800,note_on,240,0,3,,,,,,,,,2,,,66,0
316800,note_on,0,0,3,,,,,,,,,2,,,62,0
316800,note_on,0,0,3,,,,,,,,,2,,,57,0
316800,note_on,0,0,3,,,,,,,,,2,,,57,49
316800,note_on,0,0,4,,,,,,,,,3,,,50,62
316800,note_on,0,0,3,,,,,,,,,2,,,62,49
316800,note_on,0,0,3,,,,,,,,,2,,,66,49
316800,note_on,0,0,2,,,,,,,,,1,,,76,62
316800,note_on,120,0,1,,,,,,,,,0,,,86,0
316800,note_on,0,0,1,,,,,,,,,0,,,88,62
316800,note_on,120,0,2,,,,,,,,,1,,,74,0
316920,note_on,0,0,2,,,,,,,,,1,,,78,62
316920,note_on,120,0,2,,,,,,,,,1,,,76,0
316920,note_on,120,0,1,,,,,,,,,0,,,88,0
316920,control_change,0,0,1,,,,,,,,,0,64,0,,
316920,note_on,0,0,1,,,,,,,,,0,,,90,62
316920,control_change,0,0,2,,,,,,,,,1,64,0,,
317040,note_on,240,0,3,,,,,,,,,2,,,66,0
317040,note_on,0,0,3,,,,,,,,,2,,,62,0
317040,note_on,0,0,3,,,,,,,,,2,,,58,49
317040,note_on,0,0,2,,,,,,,,,1,,,78,88
317040,note_on,0,0,3,,,,,,,,,2,,,66,49
317040,note_on,0,0,3,,,,,,,,,2,,,57,0
317040,note_on,240,0,4,,,,,,,,,3,,,50,0
317040,note_on,0,0,4,,,,,,,,,3,,,50,62
317040,note_on,120,0,1,,,,,,,,,0,,,90,0
317040,note_on,0,0,1,,,,,,,,,0,,,90,88
317040,note_on,120,0,2,,,,,,,,,1,,,78,0
317040,note_on,0,0,3,,,,,,,,,2,,,62,49
317280,note_on,0,0,3,,,,,,,,,2,,,66,49
317280,note_on,0,0,3,,,,,,,,,2,,,62,49
317280,note_on,0,0,3,,,,,,,,,2,,,58,0
317280,note_on,0,0,3,,,,,,,,,2,,,58,49
317280,note_on,240,0,3,,,,,,,,,2,,,66,0
317280,note_on,0,0,3,,,,,,,,,2,,,62,0
317280,note_on,240,0,4,,,,,,,,,3,,,50,0
317280,note_on,0,0,4,,,,,,,,,3,,,50,62
317520,note_on,240,0,3,,,,,,,,,2,,,66,0
317520,note_on,0,0,1,,,,,,,,,0,,,83,62
317520,note_on,480,0,1,,,,,,,,,0,,,90,0
317520,note_on,480,0,2,,,,,,,,,1,,,78,0
317520,note_on,240,0,4,,,,,,,,,3,,,50,0
317520,note_on,0,0,2,,,,,,,,,1,,,71,62
317520,note_on,0,0,4,,,,,,,,,3,,,50,62
317520,note_on,0,0,3,,,,,,,,,2,,,62,0
317520,note_on,0,0,3,,,,,,,,,2,,,67,49
317520,note_on,0,0,3,,,,,,,,,2,,,58,0
317520,note_on,0,0,3,,,,,,,,,2,,,62,49
317520,note_on,0,0,3,,,,,,,,,2,,,59,49
317760,note_on,0,0,3,,,,,,,,,2,,,62,0
317760,note_on,0,0,1,,,,,,,,,0,,,91,62
317760,control_change,0,0,1,,,,,,,,,0,64,127,,
317760,note_on,240,0,1,,,,,,,,,0,,,83,0
317760,note_on,0,0,2,,,,,,,,,1,,,79,62
317760,note_on,240,0,3,,,,,,,,,2,,,67,0
317760,control_change,0,0,2,,,,,,,,,1,64,127,,
317760,note_on,240,0,4,,,,,,,,,3,,,50,0
317760,note_on,240,0,2,,,,,,,,,1,,,71,0
317760,note_on,0,0,3,,,,,,,,,2,,,67,49
317760,note_on,0,0,3,,,,,,,,,2,,,62,49
317760,note_on,0,0,3,,,,,,,,,2,,,59,49
317760,note_on,0,0,3,,,,,,,,,2,,,59,0
317760,note_on,0,0,4,,,,,,,,,3,,,50,62
317880,note_on,0,0,2,,,,,,,,,1,,,78,62
317880,note_on,120,0,2,,,,,,,,,1,,,79,0
317880,note_on,120,0,1,,,,,,,,,0,,,91,0
317880,note_on,0,0,1,,,,,,,,,0,,,90,62
318000,note_on,240,0,4,,,,,,,,,3,,,50,0
318000,note_on,0,0,1,,,,,,,,,0,,,88,62
318000,note_on,120,0,1,,,,,,,,,0,,,90,0
318000,note_on,0,0,4,,,,,,,,,3,,,50,62
318000,note_on,0,0,3,,,,,,,,,2,,,62,0
318000,note_on,0,0,3,,,,,,,,,2,,,64,49
318000,note_on,240,0,3,,,,,,,,,2,,,67,0
318000,note_on,0,0,3,,,,,,,,,2,,,59,0
318000,note_on,0,0,3,,,,,,,,,2,,,57,49
318000,note_on,0,0,3,,,,,,,,,2,,,61,49
318000,note_on,0,0,3,,,,,,,,,2,,,67,49
318000,note_on,120,0,2,,,,,,,,,1,,,78,0
318000,note_on,0,0,2,,,,,,,,,1,,,76,62
318120,note_on,0,0,1,,,,,,,,,0,,,91,62
318120,note_on,120,0,1,,,,,,,,,0,,,88,0
318120,note_on,120,0,2,,,,,,,,,1,,,76,0
318120,note_on,0,0,2,,,,,,,,,1,,,79,62
318240,note_on,0,0,3,,,,,,,,,2,,,57,0
318240,note_on,120,0,2,,,,,,,,,1,,,79,0
318240,note_on,240,0,3,,,,,,,,,2,,,67,0
318240,note_on,0,0,2,,,,,,,,,1,,,83,62
318240,note_on,0,0,3,,,,,,,,,2,,,61,0
318240,note_on,0,0,3,,,,,,,,,2,,,64,0
318240,note_on,0,0,3,,,,,,,,,2,,,64,49
318240,note_on,0,0,3,,,,,,,,,2,,,61,49
318240,note_on,0,0,3,,,,,,,,,2,,,67,49
318240,note_on,240,0,4,,,,,,,,,3,,,50,0
318240,note_on,0,0,4,,,,,,,,,3,,,50,62
318240,note_on,120,0,1,,,,,,,,,0,,,91,0
318240,note_on,0,0,1,,,,,,,,,0,,,95,62
318240,note_on,0,0,3,,,,,,,,,2,,,57,49
318360,control_change,0,0,2,,,,,,,,,1,64,0,,
318360,note_on,120,0,1,,,,,,,,,0,,,95,0
318360,control_change,0,0,1,,,,,,,,,0,64,0,,
318360,note_on,0,0,1,,,,,,,,,0,,,93,62
318360,note_on,120,0,2,,,,,,,,,1,,,83,0
318360,note_on,0,0,2,,,,,,,,,1,,,81,62
318480,note_on,120,0,1,,,,,,,,,0,,,93,0
318480,note_on,0,0,2,,,,,,,,,1,,,81,88
318480,note_on,240,0,4,,,,,,,,,3,,,50,0
318480,note_on,0,0,1,,,,,,,,,0,,,93,88
318480,note_on,240,0,3,,,,,,,,,2,,,67,0
318480,note_on,0,0,3,,,,,,,,,2,,,57,0
318480,note_on,0,0,3,,,,,,,,,2,,,61,0
318480,note_on,0,0,3,,,,,,,,,2,,,64,0
318480,note_on,0,0,3,,,,,,,,,2,,,62,49
318480,note_on,0,0,3,,,,,,,,,2,,,66,49
318480,note_on,120,0,2,,,,,,,,,1,,,81,0
318480,note_on,0,0,4,,,,,,,,,3,,,50,62
318480,note_on,0,0,3,,,,,,,,,2,,,57,49
318720,note_on,0,0,3,,,,,,,,,2,,,66,49
318720,note_on,0,0,4,,,,,,,,,3,,,50,62
318720,note_on,240,0,4,,,,,,,,,3,,,50,0
318720,note_on,240,0,3,,,,,,,,,2,,,66,0
318720,note_on,0,0,3,,,,,,,,,2,,,62,0
318720,note_on,0,0,3,,,,,,,,,2,,,57,0
318720,note_on,0,0,3,,,,,,,,,2,,,57,49
318720,note_on,0,0,3,,,,,,,,,2,,,62,49
318960,note_on,0,0,3,,,,,,,,,2,,,57,0
318960,note_on,0,0,3,,,,,,,,,2,,,66,49
318960,note_on,0,0,3,,,,,,,,,2,,,62,49
318960,note_on,0,0,3,,,,,,,,,2,,,62,0
318960,note_on,0,0,3,,,,,,,,,2,,,57,49
318960,note_on,240,0,4,,,,,,,,,3,,,50,0
318960,note_on,480,0,2,,,,,,,,,1,,,81,0
318960,note_on,480,0,1,,,,,,,,,0,,,93,0
318960,note_on,0,0,1,,,,,,,,,0,,,90,62
318960,note_on,0,0,2,,,,,,,,,1,,,78,62
318960,note_on,240,0,3,,,,,,,,,2,,,66,0
318960,note_on,0,0,4,,,,,,,,,3,,,50,62
319200,note_on,240,0,3,,,,,,,,,2,,,66,0
319200,note_on,0,0,3,,,,,,,,,2,,,62,0
319200,note_on,0,0,3,,,,,,,,,2,,,57,0
319200,note_on,240,0,2,,,,,,,,,1,,,78,0
319200,note_on,0,0,2,,,,,,,,,1,,,69,62
319200,note_on,0,0,4,,,,,,,,,3,,,50,62
319200,note_on,0,0,1,,,,,,,,,0,,,81,62
319200,control_change,0,0,2,,,,,,,,,1,64,127,,
319200,note_on,0,0,3,,,,,,,,,2,,,57,49
319200,note_on,0,0,3,,,,,,,,,2,,,62,49
319200,note_on,0,0,3,,,,,,,,,2,,,66,49
319200,note_on,240,0,1,,,,,,,,,0,,,90,0
319200,control_change,0,0,1,,,,,,,,,0,64,127,,
319200,note_on,240,0,4,,,,,,,,,3,,,50,0
319320,note_on,120,0,2,,,,,,,,,1,,,69,0
319320,note_on,0,0,1,,,,,,,,,0,,,83,62
319320,note_on,0,0,2,,,,,,,,,1,,,71,62
319320,note_on,120,0,1,,,,,,,,,0,,,81,0
319440,note_on,0,0,4,,,,,,,,,3,,,50,62
319440,note_on,240,0,4,,,,,,,,,3,,,50,0
319440,note_on,0,0,3,,,,,,,,,2,,,66,49
319440,note_on,0,0,3,,,,,,,,,2,,,62,49
319440,note_on,0,0,3,,,,,,,,,2,,,57,49
319440,note_on,0,0,3,,,,,,,,,2,,,57,0
319440,note_on,0,0,3,,,,,,,,,2,,,62,0
319440,note_on,240,0,3,,,,,,,,,2,,,66,0
319440,note_on,120,0,1,,,,,,,,,0,,,83,0
319440,note_on,0,0,1,,,,,,,,,0,,,85,62
319440,note_on,0,0,2,,,,,,,,,1,,,73,62
319440,note_on,120,0,2,,,,,,,,,1,,,71,0
319560,note_on,120,0,1,,,,,,,,,0,,,85,0
319560,note_on,0,0,2,,,,,,,,,1,,,74,62
319560,note_on,120,0,2,,,,,,,,,1,,,73,0
319560,note_on,0,0,1,,,,,,,,,0,,,86,62
319680,note_on,120,0,1,,,,,,,,,0,,,86,0
319680,note_on,0,0,3,,,,,,,,,2,,,57,49
319680,note_on,0,0,3,,,,,,,,,2,,,62,49
319680,note_on,0,0,3,,,,,,,,,2,,,66,49
319680,note_on,0,0,3,,,,,,,,,2,,,57,0
319680,note_on,0,0,1,,,,,,,,,0,,,88,62
319680,note_on,0,0,3,,,,,,,,,2,,,62,0
319680,note_on,240,0,4,,,,,,,,,3,,,50,0
319680,note_on,120,0,2,,,,,,,,,1,,,74,0
319680,note_on,240,0,3,,,,,,,,,2,,,66,0
319680,note_on,0,0,4,,,,,,,,,3,,,50,62
319680,note_on,0,0,2,,,,,,,,,1,,,76,62
319800,note_on,0,0,1,,,,,,,,,0,,,90,62
319800,control_change,0,0,1,,,,,,,,,0,64,0,,
319800,note_on,120,0,1,,,,,,,,,0,,,88,0
319800,note_on,0,0,2,,,,,,,,,1,,,78,62
319800,control_change,0,0,2,,,,,,,,,1,64,0,,
319800,note_on,120,0,2,,,,,,,,,1,,,76,0
319920,note_on,240,0,3,,,,,,,,,2,,,66,0
319920,note_on,120,0,1,,,,,,,,,0,,,90,0
319920,note_on,0,0,3,,,,,,,,,2,,,58,49
319920,note_on,0,0,3,,,,,,,,,2,,,62,49
319920,note_on,0,0,3,,,,,,,,,2,,,66,49
319920,note_on,0,0,1,,,,,,,,,0,,,90,88
319920,note_on,0,0,3,,,,,,,,,2,,,57,0
319920,note_on,0,0,4,,,,,,,,,3,,,50,62
319920,note_on,0,0,3,,,,,,,,,2,,,62,0
319920,note_on,0,0,2,,,,,,,,,1,,,78,88
319920,note_on,120,0,2,,,,,,,,,1,,,78,0
319920,note_on,240,0,4,,,,,,,,,3,,,50,0
319920,note_on,0,0,4,,,,,,,,,3,,,38,62
320160,note_on,0,0,3,,,,,,,,,2,,,62,0
320160,note_on,0,0,3,,,,,,,,,2,,,58,0
320160,note_on,0,0,3,,,,,,,,,2,,,58,49
320160,note_on,240,0,3,,,,,,,,,2,,,66,0
320160,note_on,0,0,3,,,,,,,,,2,,,66,49
320160,note_on,240,0,4,,,,,,,,,3,,,50,0
320160,note_on,0,0,4,,,,,,,,,3,,,38,0
320160,note_on,0,0,4,,,,,,,,,3,,,38,62
320160,note_on,0,0,4,,,,,,,,,3,,,50,62
320160,note_on,0,0,3,,,,,,,,,2,,,62,49
320400,note_on,240,0,4,,,,,,,,,3,,,50,0
320400,note_on,480,0,2,,,,,,,,,1,,,78,0
320400,note_on,0,0,2,,,,,,,,,1,,,71,62
320400,note_on,0,0,4,,,,,,,,,3,,,38,0
320400,note_on,0,0,4,,,,,,,,,3,,,38,62
320400,note_on,0,0,4,,,,,,,,,3,,,50,62
320400,note_on,240,0,3,,,,,,,,,2,,,66,0
320400,note_on,0,0,3,,,,,,,,,2,,,58,0
320400,note_on,0,0,3,,,,,,,,,2,,,62,0
320400,note_on,0,0,3,,,,,,,,,2,,,59,49
320400,note_on,0,0,3,,,,,,,,,2,,,62,49
320400,note_on,0,0,3,,,,,,,,,2,,,67,49
320400,note_on,480,0,1,,,,,,,,,0,,,90,0
320400,note_on,0,0,1,,,,,,,,,0,,,83,62
320640,note_on,240,0,1,,,,,,,,,0,,,83,0
320640,note_on,0,0,4,,,,,,,,,3,,,50,62
320640,note_on,0,0,4,,,,,,,,,3,,,38,62
320640,note_on,0,0,4,,,,,,,,,3,,,38,0
320640,note_on,240,0,4,,,,,,,,,3,,,50,0
320640,note_on,240,0,3,,,,,,,,,2,,,67,0
320640,note_on,0,0,3,,,,,,,,,2,,,62,0
320640,note_on,0,0,3,,,,,,,,,2,,,59,0
320640,note_on,0,0,3,,,,,,,,,2,,,59,49
320640,note_on,0,0,3,,,,,,,,,2,,,67,49
320640,note_on,0,0,2,,,,,,,,,1,,,76,62
320640,note_on,240,0,2,,,,,,,,,1,,,71,0
320640,control_change,0,0,1,,,,,,,,,0,64,127,,
320640,note_on,0,0,1,,,,,,,,,0,,,88,62
320640,control_change,0,0,2,,,,,,,,,1,64,127,,
320640,note_on,0,0,3,,,,,,,,,2,,,62,49
320760,note_on,0,0,2,,,,,,,,,1,,,78,62
320760,note_on,120,0,1,,,,,,,,,0,,,88,0
320760,note_on,0,0,1,,,,,,,,,0,,,90,62
320760,note_on,120,0,2,,,,,,,,,1,,,76,0
320880,note_on,0,0,4,,,,,,,,,3,,,38,62
320880,note_on,0,0,3,,,,,,,,,2,,,62,0
320880,note_on,0,0,3,,,,,,,,,2,,,64,49
320880,note_on,0,0,3,,,,,,,,,2,,,59,0
320880,note_on,0,0,3,,,,,,,,,2,,,57,49
320880,note_on,0,0,3,,,,,,,,,2,,,61,49
320880,note_on,0,0,3,,,,,,,,,2,,,67,49
320880,note_on,240,0,3,,,,,,,,,2,,,67,0
320880,note_on,0,0,4,,,,,,,,,3,,,38,0
320880,note_on,0,0,1,,,,,,,,,0,,,91,62
320880,note_on,240,0,4,,,,,,,,,3,,,50,0
320880,note_on,0,0,4,,,,,,,,,3,,,50,62
320880,note_on,120,0,2,,,,,,,,,1,,,78,0
320880,note_on,120,0,1,,,,,,,,,0,,,90,0
320880,note_on,0,0,2,,,,,,,,,1,,,79,62
321000,note_on,120,0,1,,,,,,,,,0,,,91,0
321000,note_on,0,0,1,,,,,,,,,0,,,92,62
321000,note_on,0,0,2,,,,,,,,,1,,,80,62
321000,note_on,120,0,2,,,,,,,,,1,,,79,0
321120,note_on,0,0,3,,,,,,,,,2,,,64,49
321120,note_on,0,0,3,,,,,,,,,2,,,61,49
321120,note_on,0,0,3,,,,,,,,,2,,,57,49
321120,note_on,0,0,3,,,,,,,,,2,,,64,0
321120,note_on,0,0,3,,,,,,,,,2,,,61,0
321120,note_on,0,0,3,,,,,,,,,2,,,57,0
321120,note_on,240,0,3,,,,,,,,,2,,,67,0
321120,note_on,240,0,4,,,,,,,,,3,,,50,0
321120,note_on,0,0,4,,,,,,,,,3,,,38,0
321120,note_on,0,0,1,,,,,,,,,0,,,95,62
321120,note_on,0,0,4,,,,,,,,,3,,,50,62
321120,note_on,0,0,4,,,,,,,,,3,,,38,62
321120,note_on,0,0,3,,,,,,,,,2,,,67,49
321120,note_on,120,0,2,,,,,,,,,1,,,80,0
321120,note_on,0,0,2,,,,,,,,,1,,,83,62
321120,note_on,120,0,1,,,,,,,,,0,,,92,0
321240,note_on,120,0,2,,,,,,,,,1,,,83,0
321240,control_change,0,0,2,,,,,,,,,1,64,0,,
321240,note_on,0,0,2,,,,,,,,,1,,,81,62
321240,note_on,0,0,1,,,,,,,,,0,,,93,62
321240,control_change,0,0,1,,,,,,,,,0,64,0,,
321240,note_on,120,0,1,,,,,,,,,0,,,95,0
321360,note_on,0,0,3,,,,,,,,,2,,,61,0
321360,note_on,0,0,3,,,,,,,,,2,,,64,0
321360,note_on,0,0,3,,,,,,,,,2,,,57,49
321360,note_on,0,0,3,,,,,,,,,2,,,57,0
321360,note_on,0,0,3,,,,,,,,,2,,,62,49
321360,note_on,120,0,2,,,,,,,,,1,,,81,0
321360,note_on,0,0,1,,,,,,,,,0,,,86,62
321360,note_on,120,0,1,,,,,,,,,0,,,93,0
321360,note_on,0,0,2,,,,,,,,,1,,,74,62
321360,note_on,0,0,3,,,,,,,,,2,,,66,49
321360,note_on,240,0,3,,,,,,,,,2,,,67,0
321360,note_on,240,0,4,,,,,,,,,3,,,50,0
321360,note_on,0,0,4,,,,,,,,,3,,,50,62
321360,note_on,0,0,4,,,,,,,,,3,,,38,62
321360,note_on,0,0,4,,,,,,,,,3,,,38,0
321600,note_on,0,0,2,,,,,,,,,1,,,73,101
321600,note_on,240,0,1,,,,,,,,,0,,,86,0
321600,note_on,0,0,1,,,,,,,,,0,,,81,101
321600,note_on,0,0,4,,,,,,,,,3,,,45,101
321600,note_on,0,0,4,,,,,,,,,3,,,38,0
321600,note_on,240,0,4,,,,,,,,,3,,,50,0
321600,note_on,0,0,2,,,,,,,,,1,,,76,101
321600,note_on,0,0,3,,,,,,,,,2,,,57,0
321600,note_on,0,0,3,,,,,,,,,2,,,62,0
321600,note_on,240,0,3,,,,,,,,,2,,,66,0
321600,note_on,0,0,1,,,,,,,,,0,,,85,101
321600,note_on,0,0,1,,,,,,,,,0,,,88,101
321600,note_on,240,0,2,,,,,,,,,1,,,74,0
321600,note_on,0,0,2,,,,,,,,,1,,,69,101
321600,note_on,0,0,3,,,,,,,,,2,,,57,101
321615,note_on,0,0,2,,,,,,,,,1,,,73,0
321615,note_on,15,0,1,,,,,,,,,0,,,88,0
321615,note_on,0,0,1,,,,,,,,,0,,,85,0
321615,note_on,0,0,2,,,,,,,,,1,,,69,0
321615,note_on,15,0,2,,,,,,,,,1,,,76,0
321615,note_on,0,0,1,,,,,,,,,0,,,81,0
321615,note_on,15,0,4,,,,,,,,,3,,,45,0
321615,note_on,15,0,3,,,,,,,,,2,,,57,0
321720,note_on,105,0,3,,,,,,,,,2,,,57,101
321720,note_on,0,0,1,,,,,,,,,0,,,85,101
321720,note_on,0,0,1,,,,,,,,,0,,,88,101
321720,note_on,105,0,2,,,,,,,,,1,,,69,101
321720,note_on,0,0,2,,,,,,,,,1,,,73,101
321720,note_on,0,0,2,,,,,,,,,1,,,76,101
321720,note_on,105,0,1,,,,,,,,,0,,,81,101
321720,note_on,105,0,4,,,,,,,,,3,,,45,101
321735,note_on,15,0,1,,,,,,,,,0,,,88,0
321735,note_on,0,0,1,,,,,,,,,0,,,85,0
321735,note_on,0,0,1,,,,,,,,,0,,,81,0
321735,note_on,15,0,4,,,,,,,,,3,,,45,0
321735,note_on,15,0,2,,,,,,,,,1,,,76,0
321735,note_on,15,0,3,,,,,,,,,2,,,57,0
321735,note_on,0,0,2,,,,,,,,,1,,,73,0
321735,note_on,0,0,2,,,,,,,,,1,,,69,0
321840,note_on,105,0,3,,,,,,,,,2,,,62,101
321840,note_on,105,0,2,,,,,,,,,1,,,69,101
321840,note_on,0,0,2,,,,,,,,,1,,,78,101
321840,note_on,0,0,2,,,,,,,,,1,,,74,101
321840,note_on,105,0,4,,,,,,,,,3,,,50,101
321840,note_on,105,0,1,,,,,,,,,0,,,81,101
321840,note_on,0,0,1,,,,,,,,,0,,,86,101
321840,note_on,0,0,1,,,,,,,,,0,,,90,101
321863,note_on,0,0,1,,,,,,,,,0,,,86,0
321863,note_on,23,0,3,,,,,,,,,2,,,62,0
321863,note_on,0,0,2,,,,,,,,,1,,,69,0
321863,note_on,0,0,1,,,,,,,,,0,,,81,0
321863,note_on,23,0,4,,,,,,,,,3,,,50,0
321863,note_on,23,0,2,,,,,,,,,1,,,78,0
321863,note_on,0,0,2,,,,,,,,,1,,,74,0
321863,note_on,23,0,1,,,,,,,,,0,,,90,0
322080,note_on,217,0,3,,,,,,,,,2,,,57,101
322080,note_on,0,0,2,,,,,,,,,1,,,76,101
322080,note_on,0,0,2,,,,,,,,,1,,,73,101
322080,note_on,217,0,2,,,,,,,,,1,,,69,101
322080,note_on,217,0,4,,,,,,,,,3,,,45,101
322080,note_on,0,0,1,,,,,,,,,0,,,85,101
322080,note_on,0,0,1,,,,,,,,,0,,,88,101
322080,note_on,217,0,1,,,,,,,,,0,,,81,101
322103,note_on,23,0,1,,,,,,,,,0,,,88,0
322103,note_on,0,0,1,,,,,,,,,0,,,85,0
322103,note_on,0,0,1,,,,,,,,,0,,,81,0
322103,note_on,23,0,2,,,,,,,,,1,,,76,0
322103,note_on,0,0,2,,,,,,,,,1,,,73,0
322103,note_on,0,0,2,,,,,,,,,1,,,69,0
322103,note_on,23,0,4,,,,,,,,,3,,,45,0
322103,note_on,23,0,3,,,,,,,,,2,,,57,0
322320,note_on,0,0,1,,,,,,,,,0,,,86,101
322320,note_on,217,0,4,,,,,,,,,3,,,50,101
322320,note_on,217,0,3,,,,,,,,,2,,,62,101
322320,note_on,0,0,1,,,,,,,,,0,,,90,101
322320,note_on,217,0,1,,,,,,,,,0,,,81,101
322320,note_on,217,0,2,,,,,,,,,1,,,69,101
322320,note_on,0,0,2,,,,,,,,,1,,,74,101
322320,note_on,0,0,2,,,,,,,,,1,,,78,101
322343,note_on,23,0,3,,,,,,,,,2,,,62,0
322343,note_on,0,0,1,,,,,,,,,0,,,81,0
322343,note_on,0,0,2,,,,,,,,,1,,,69,0
322343,note_on,23,0,4,,,,,,,,,3,,,50,0
322343,note_on,0,0,1,,,,,,,,,0,,,86,0
322343,note_on,0,0,2,,,,,,,,,1,,,74,0
322343,note_on,23,0,2,,,,,,,,,1,,,78,0
322343,note_on,23,0,1,,,,,,,,,0,,,90,0
322560,note_on,217,0,4,,,,,,,,,3,,,46,101
322560,note_on,217,0,1,,,,,,,,,0,,,86,101
322560,note_on,0,0,1,,,,,,,,,0,,,89,101
322560,note_on,0,0,1,,,,,,,,,0,,,92,101
322560,note_on,0,0,2,,,,,,,,,1,,,80,101
322560,note_on,0,0,2,,,,,,,,,1,,,77,101
322560,note_on,217,0,2,,,,,,,,,1,,,74,101
322560,note_on,217,0,3,,,,,,,,,2,,,58,101
322583,note_on,0,0,2,,,,,,,,,1,,,74,0
322583,note_on,0,0,2,,,,,,,,,1,,,77,0
322583,note_on,23,0,2,,,,,,,,,1,,,80,0
322583,note_on,23,0,3,,,,,,,,,2,,,58,0
322583,note_on,23,0,4,,,,,,,,,3,,,46,0
322583,note_on,0,0,1,,,,,,,,,0,,,86,0
322583,note_on,0,0,1,,,,,,,,,0,,,89,0
322583,note_on,23,0,1,,,,,,,,,0,,,92,0
322800,note_on,217,0,4,,,,,,,,,3,,,45,101
322800,note_on,0,0,1,,,,,,,,,0,,,93,101
322800,note_on,0,0,1,,,,,,,,,0,,,90,101
322800,note_on,217,0,1,,,,,,,,,0,,,86,101
322800,note_on,217,0,3,,,,,,,,,2,,,57,101
322800,note_on,0,0,2,,,,,,,,,1,,,78,101
322800,note_on,0,0,2,,,,,,,,,1,,,81,101
322800,note_on,217,0,2,,,,,,,,,1,,,74,101
322823,note_on,0,0,2,,,,,,,,,1,,,74,0
322823,note_on,23,0,2,,,,,,,,,1,,,81,0
322823,note_on,23,0,1,,,,,,,,,0,,,93,0
322823,note_on,0,0,1,,,,,,,,,0,,,90,0
322823,note_on,0,0,2,,,,,,,,,1,,,78,0
322823,note_on,23,0,3,,,,,,,,,2,,,57,0
322823,note_on,23,0,4,,,,,,,,,3,,,45,0
322823,note_on,0,0,1,,,,,,,,,0,,,86,0
323040,note_on,0,0,3,,,,,,,,,2,,,69,62
323040,note_on,0,0,3,,,,,,,,,2,,,74,62
323040,note_on,217,0,4,,,,,,,,,3,,,57,62
323040,note_on,217,0,3,,,,,,,,,2,,,66,62
323055,note_on,15,0,3,,,,,,,,,2,,,74,0
323055,note_on,0,0,3,,,,,,,,,2,,,69,0
323055,note_on,15,0,4,,,,,,,,,3,,,57,0
323055,note_on,0,0,3,,,,,,,,,2,,,66,0
323160,note_on,0,0,3,,,,,,,,,2,,,74,62
323160,note_on,105,0,4,,,,,,,,,3,,,57,62
323160,note_on,0,0,3,,,,,,,,,2,,,69,62
323160,note_on,105,0,3,,,,,,,,,2,,,66,62
323175,note_on,15,0,3,,,,,,,,,2,,,74,0
323175,note_on,0,0,3,,,,,,,,,2,,,69,0
323175,note_on,0,0,3,,,,,,,,,2,,,66,0
323175,note_on,15,0,4,,,,,,,,,3,,,57,0
323280,note_on,105,0,4,,,,,,,,,3,,,58,62
323280,note_on,105,0,3,,,,,,,,,2,,,64,62
323280,note_on,0,0,3,,,,,,,,,2,,,67,62
323280,note_on,0,0,3,,,,,,,,,2,,,73,62
323303,note_on,0,0,3,,,,,,,,,2,,,67,0
323303,note_on,0,0,3,,,,,,,,,2,,,64,0
323303,note_on,23,0,3,,,,,,,,,2,,,73,0
323303,note_on,23,0,4,,,,,,,,,3,,,58,0
323520,note_on,0,0,3,,,,,,,,,2,,,71,62
323520,note_on,0,0,3,,,,,,,,,2,,,66,62
323520,note_on,217,0,4,,,,,,,,,3,,,59,62
323520,note_on,217,0,3,,,,,,,,,2,,,62,62
323543,note_on,23,0,3,,,,,,,,,2,,,71,0
323543,note_on,0,0,3,,,,,,,,,2,,,66,0
323543,note_on,0,0,3,,,,,,,,,2,,,62,0
323543,note_on,23,0,4,,,,,,,,,3,,,59,0
323760,note_on,217,0,3,,,,,,,,,2,,,60,62
323760,note_on,0,0,3,,,,,,,,,2,,,62,62
323760,note_on,0,0,3,,,,,,,,,2,,,69,62
323760,note_on,217,0,4,,,,,,,,,3,,,54,62
323783,note_on,23,0,4,,,,,,,,,3,,,54,0
323783,note_on,0,0,3,,,,,,,,,2,,,60,0
323783,note_on,0,0,3,,,,,,,,,2,,,62,0
323783,note_on,23,0,3,,,,,,,,,2,,,69,0
324000,note_on,0,0,3,,,,,,,,,2,,,67,62
324000,note_on,217,0,4,,,,,,,,,3,,,55,62
324000,note_on,217,0,3,,,,,,,,,2,,,59,62
324000,note_on,0,0,3,,,,,,,,,2,,,62,62
324023,note_on,23,0,3,,,,,,,,,2,,,67,0
324023,note_on,0,0,3,,,,,,,,,2,,,62,0
324023,note_on,0,0,3,,,,,,,,,2,,,59,0
324023,note_on,23,0,4,,,,,,,,,3,,,55,0
324240,note_on,217,0,4,,,,,,,,,3,,,57,62
324240,note_on,0,0,3,,,,,,,,,2,,,66,62
324240,note_on,217,0,3,,,,,,,,,2,,,62,62
324480,note_on,0,0,1,,,,,,,,,0,,,74,62
324480,note_on,0,0,3,,,,,,,,,2,,,62,0
324480,note_on,240,0,3,,,,,,,,,2,,,66,0
324480,note_on,0,0,2,,,,,,,,,1,,,62,62
324480,note_on,240,0,4,,,,,,,,,3,,,57,0
324480,control_change,1657,0,1,,,,,,,,,0,64,127,,
324480,control_change,1657,0,2,,,,,,,,,1,64,127,,
324600,note_on,0,0,2,,,,,,,,,1,,,64,62
324600,note_on,120,0,2,,,,,,,,,1,,,62,0
324600,note_on,0,0,1,,,,,,,,,0,,,76,62
324600,note_on,120,0,1,,,,,,,,,0,,,74,0
324720,note_on,120,0,1,,,,,,,,,0,,,76,0
324720,note_on,0,0,1,,,,,,,,,0,,,78,62
324720,note_on,0,0,2,,,,,,,,,1,,,66,62
324720,note_on,120,0,2,,,,,,,,,1,,,64,0
324840,note_on,120,0,1,,,,,,,,,0,,,78,0
324840,note_on,0,0,2,,,,,,,,,1,,,62,62
324840,note_on,0,0,1,,,,,,,,,0,,,74,62
324840,note_on,120,0,2,,,,,,,,,1,,,66,0
324960,note_on,120,0,1,,,,,,,,,0,,,74,0
324960,note_on,0,0,1,,,,,,,,,0,,,78,62
324960,note_on,120,0,2,,,,,,,,,1,,,62,0
324960,note_on,0,0,2,,,,,,,,,1,,,66,62
325080,note_on,0,0,1,,,,,,,,,0,,,81,62
325080,note_on,120,0,2,,,,,,,,,1,,,66,0
325080,note_on,0,0,2,,,,,,,,,1,,,69,62
325080,note_on,120,0,1,,,,,,,,,0,,,78,0
325200,note_on,120,0,1,,,,,,,,,0,,,81,0
325200,note_on,0,0,1,,,,,,,,,0,,,83,88
325200,note_on,0,0,3,,,,,,,,,2,,,67,62
325200,note_on,0,0,2,,,,,,,,,1,,,71,88
325200,note_on,720,0,4,,,,,,,,,3,,,45,62
325200,note_on,120,0,2,,,,,,,,,1,,,69,0
325200,note_on,720,0,3,,,,,,,,,2,,,57,62
325200,note_on,0,0,3,,,,,,,,,2,,,61,62
325440,control_change,0,0,2,,,,,,,,,1,64,0,,
325440,note_on,240,0,2,,,,,,,,,1,,,71,0
325440,note_on,0,0,1,,,,,,,,,0,,,81,62
325440,control_change,0,0,1,,,,,,,,,0,64,0,,
325440,note_on,240,0,1,,,,,,,,,0,,,83,0
325440,note_on,0,0,2,,,,,,,,,1,,,69,62
325620,note_on,180,0,2,,,,,,,,,1,,,69,62
325620,note_on,180,0,1,,,,,,,,,0,,,81,62
325680,note_on,480,0,4,,,,,,,,,3,,,45,0
325680,note_on,0,0,3,,,,,,,,,2,,,62,62
325680,note_on,0,0,3,,,,,,,,,2,,,57,62
325680,note_on,0,0,3,,,,,,,,,2,,,57,0
325680,note_on,0,0,3,,,,,,,,,2,,,61,0
325680,note_on,480,0,3,,,,,,,,,2,,,67,0
325680,note_on,60,0,2,,,,,,,,,1,,,69,0
325680,note_on,60,0,1,,,,,,,,,0,,,81,0
325680,control_change,0,0,1,,,,,,,,,0,64,127,,
325680,note_on,0,0,1,,,,,,,,,0,,,90,62
325680,note_on,0,0,4,,,,,,,,,3,,,50,62
325680,note_on,0,0,3,,,,,,,,,2,,,66,62
325680,control_change,0,0,2,,,,,,,,,1,64,127,,
325680,note_on,0,0,2,,,,,,,,,1,,,78,62
325920,note_on,0,0,3,,,,,,,,,2,,,62,62
325920,control_change,0,0,3,,,,,,,,,2,64,127,,
325920,note_on,0,0,3,,,,,,,,,2,,,57,0
325920,note_on,0,0,3,,,,,,,,,2,,,62,0
325920,note_on,240,0,3,,,,,,,,,2,,,66,0
325920,note_on,240,0,4,,,,,,,,,3,,,50,0
326040,note_on,0,0,3,,,,,,,,,2,,,64,62
326040,note_on,120,0,3,,,,,,,,,2,,,62,0
326160,note_on,0,0,3,,,,,,,,,2,,,66,62
326160,note_on,120,0,3,,,,,,,,,2,,,64,0
326280,note_on,0,0,3,,,,,,,,,2,,,62,62
326280,note_on,120,0,3,,,,,,,,,2,,,66,0
326400,note_on,0,0,1,,,,,,,,,0,,,88,62
326400,note_on,0,0,1,,,,,,,,,0,,,81,0
326400,note_on,720,0,1,,,,,,,,,0,,,90,0
326400,note_on,720,0,2,,,,,,,,,1,,,78,0
326400,note_on,0,0,2,,,,,,,,,1,,,69,0
326400,note_on,0,0,2,,,,,,,,,1,,,76,62
326400,note_on,0,0,3,,,,,,,,,2,,,66,62
326400,note_on,120,0,3,,,,,,,,,2,,,62,0
326520,note_on,0,0,1,,,,,,,,,0,,,86,62
326520,note_on,120,0,1,,,,,,,,,0,,,88,0
326520,note_on,120,0,2,,,,,,,,,1,,,76,0
326520,note_on,120,0,3,,,,,,,,,2,,,66,0
326520,note_on,0,0,2,,,,,,,,,1,,,74,62
326520,note_on,0,0,3,,,,,,,,,2,,,69,62
326640,note_on,0,0,2,,,,,,,,,1,,,73,62
326640,note_on,120,0,3,,,,,,,,,2,,,69,0
326640,note_on,0,0,3,,,,,,,,,2,,,70,88
326640,control_change,0,0,2,,,,,,,,,1,64,0,,
326640,note_on,0,0,1,,,,,,,,,0,,,85,62
326640,control_change,0,0,1,,,,,,,,,0,64,0,,
326640,note_on,120,0,1,,,,,,,,,0,,,86,0
326640,note_on,720,0,4,,,,,,,,,3,,,45,62
326640,note_on,0,0,4,,,,,,,,,3,,,55,62
326640,note_on,120,0,2,,,,,,,,,1,,,74,0
326663,note_on,23,0,2,,,,,,,,,1,,,73,0
326663,note_on,23,0,1,,,,,,,,,0,,,85,0
326880,note_on,240,0,3,,,,,,,,,2,,,70,0
326880,control_change,0,0,3,,,,,,,,,2,64,0,,
326880,note_on,0,0,3,,,,,,,,,2,,,69,62
326880,note_on,217,0,1,,,,,,,,,0,,,93,62
326880,note_on,217,0,2,,,,,,,,,1,,,81,62
326903,note_on,23,0,1,,,,,,,,,0,,,93,0
326903,note_on,23,0,2,,,,,,,,,1,,,81,0
327120,control_change,217,0,2,,,,,,,,,1,64,127,,
327120,note_on,480,0,4,,,,,,,,,3,,,55,0
327120,note_on,240,0,3,,,,,,,,,2,,,69,0
327120,note_on,0,0,3,,,,,,,,,2,,,57,88
327120,note_on,0,0,1,,,,,,,,,0,,,81,88
327120,control_change,217,0,1,,,,,,,,,0,64,127,,
327120,note_on,0,0,3,,,,,,,,,2,,,62,88
327120,note_on,0,0,4,,,,,,,,,3,,,50,88
327120,note_on,0,0,3,,,,,,,,,2,,,66,88
327120,note_on,0,0,2,,,,,,,,,1,,,78,88
327120,note_on,0,0,4,,,,,,,,,3,,,45,0
327240,note_on,0,0,1,,,,,,,,,0,,,85,88
327240,note_on,120,0,2,,,,,,,,,1,,,78,0
327240,note_on,0,0,2,,,,,,,,,1,,,76,88
327240,note_on,120,0,1,,,,,,,,,0,,,81,0
327360,note_on,0,0,1,,,,,,,,,0,,,86,88
327360,note_on,240,0,3,,,,,,,,,2,,,66,0
327360,note_on,0,0,3,,,,,,,,,2,,,62,0
327360,note_on,240,0,4,,,,,,,,,3,,,50,0
327360,note_on,120,0,1,,,,,,,,,0,,,85,0
327360,note_on,0,0,2,,,,,,,,,1,,,74,88
327360,note_on,0,0,3,,,,,,,,,2,,,57,0
327360,note_on,120,0,2,,,,,,,,,1,,,76,0
327480,note_on,120,0,2,,,,,,,,,1,,,74,0
327480,control_change,0,0,2,,,,,,,,,1,64,0,,
327480,note_on,0,0,2,,,,,,,,,1,,,69,88
327480,note_on,120,0,1,,,,,,,,,0,,,86,0
327480,control_change,0,0,1,,,,,,,,,0,64,0,,
327480,note_on,0,0,1,,,,,,,,,0,,,90,88
327600,note_on,0,0,1,,,,,,,,,0,,,81,88
327600,note_on,0,0,3,,,,,,,,,2,,,66,88
327600,note_on,240,0,4,,,,,,,,,3,,,50,88
327600,note_on,240,0,3,,,,,,,,,2,,,57,88
327600,note_on,120,0,2,,,,,,,,,1,,,69,0
327600,control_change,0,0,2,,,,,,,,,1,64,127,,
327600,note_on,0,0,2,,,,,,,,,1,,,78,88
327600,control_change,0,0,1,,,,,,,,,0,64,127,,
327600,note_on,120,0,1,,,,,,,,,0,,,90,0
327600,note_on,0,0,3,,,,,,,,,2,,,62,88
327720,note_on,0,0,1,,,,,,,,,0,,,85,88
327720,note_on,120,0,1,,,,,,,,,0,,,81,0
327720,note_on,120,0,2,,,,,,,,,1,,,78,0
327720,note_on,0,0,2,,,,,,,,,1,,,76,88
327840,note_on,0,0,1,,,,,,,,,0,,,86,88
327840,note_on,120,0,1,,,,,,,,,0,,,85,0
327840,note_on,240,0,4,,,,,,,,,3,,,50,0
327840,note_on,0,0,2,,,,,,,,,1,,,74,88
327840,note_on,120,0,2,,,,,,,,,1,,,76,0
327840,note_on,0,0,3,,,,,,,,,2,,,57,0
327840,note_on,0,0,3,,,,,,,,,2,,,62,0
327840,note_on,240,0,3,,,,,,,,,2,,,66,0
327960,control_change,0,0,2,,,,,,,,,1,64,0,,
327960,note_on,120,0,1,,,,,,,,,0,,,86,0
327960,control_change,0,0,1,,,,,,,,,0,64,0,,
327960,note_on,0,0,1,,,,,,,,,0,,,90,88
327960,note_on,120,0,2,,,,,,,,,1,,,74,0
327960,note_on,0,0,2,,,,,,,,,1,,,69,88
328080,note_on,120,0,1,,,,,,,,,0,,,90,0
328080,control_change,0,0,1,,,,,,,,,0,64,127,,
328080,note_on,0,0,1,,,,,,,,,0,,,81,88
328080,note_on,0,0,3,,,,,,,,,2,,,66,88
328080,control_change,0,0,2,,,,,,,,,1,64,127,,
328080,note_on,0,0,3,,,,,,,,,2,,,62,88
328080,note_on,240,0,3,,,,,,,,,2,,,57,88
328080,note_on,0,0,2,,,,,,,,,1,,,78,88
328080,note_on,120,0,2,,,,,,,,,1,,,69,0
328080,note_on,240,0,4,,,,,,,,,3,,,50,88
328200,note_on,0,0,2,,,,,,,,,1,,,76,88
328200,note_on,120,0,2,,,,,,,,,1,,,78,0
328200,note_on,0,0,1,,,,,,,,,0,,,85,88
328200,note_on,120,0,1,,,,,,,,,0,,,81,0
328320,note_on,240,0,3,,,,,,,,,2,,,66,0
328320,note_on,240,0,4,,,,,,,,,3,,,50,0
328320,note_on,120,0,1,,,,,,,,,0,,,85,0
328320,note_on,0,0,1,,,,,,,,,0,,,86,88
328320,note_on,120,0,2,,,,,,,,,1,,,76,0
328320,note_on,0,0,2,,,,,,,,,1,,,74,88
328320,note_on,0,0,3,,,,,,,,,2,,,62,0
328320,note_on,0,0,3,,,,,,,,,2,,,57,0
328440,control_change,0,0,2,,,,,,,,,1,64,0,,
328440,note_on,120,0,1,,,,,,,,,0,,,86,0
328440,control_change,0,0,1,,,,,,,,,0,64,0,,
328440,note_on,0,0,1,,,,,,,,,0,,,90,88
328440,note_on,0,0,2,,,,,,,,,1,,,69,88
328440,note_on,120,0,2,,,,,,,,,1,,,74,0
328560,note_on,0,0,3,,,,,,,,,2,,,65,88
328560,note_on,120,0,2,,,,,,,,,1,,,69,0
328560,note_on,0,0,2,,,,,,,,,1,,,70,88
328560,note_on,0,0,1,,,,,,,,,0,,,86,88
328560,note_on,0,0,1,,,,,,,,,0,,,89,88
328560,note_on,240,0,3,,,,,,,,,2,,,62,88
328560,note_on,0,0,2,,,,,,,,,1,,,74,88
328560,note_on,120,0,1,,,,,,,,,0,,,90,0
328560,note_on,240,0,4,,,,,,,,,3,,,46,88
328560,note_on,0,0,1,,,,,,,,,0,,,77,88
328680,note_on,120,0,4,,,,,,,,,3,,,46,0
328680,note_on,0,0,4,,,,,,,,,3,,,45,88
328680,note_on,120,0,3,,,,,,,,,2,,,65,0
328680,note_on,0,0,3,,,,,,,,,2,,,62,0
328680,note_on,0,0,3,,,,,,,,,2,,,61,88
328800,note_on,0,0,3,,,,,,,,,2,,,62,88
328800,note_on,120,0,3,,,,,,,,,2,,,61,0
328800,note_on,120,0,4,,,,,,,,,3,,,45,0
328800,note_on,0,0,4,,,,,,,,,3,,,46,88
328920,note_on,120,0,3,,,,,,,,,2,,,62,0
328920,note_on,120,0,4,,,,,,,,,3,,,46,0
328920,note_on,0,0,3,,,,,,,,,2,,,53,88
328920,note_on,0,0,4,,,,,,,,,3,,,34,88
329040,note_on,480,0,2,,,,,,,,,1,,,74,0
329040,note_on,0,0,1,,,,,,,,,0,,,86,0
329040,note_on,480,0,1,,,,,,,,,0,,,89,0
329040,note_on,0,0,1,,,,,,,,,0,,,77,0
329040,note_on,0,0,2,,,,,,,,,1,,,70,0
329040,note_on,0,0,4,,,,,,,,,3,,,46,88
329040,note_on,0,0,3,,,,,,,,,2,,,65,88
329040,note_on,0,0,3,,,,,,,,,2,,,62,88
329040,note_on,120,0,3,,,,,,,,,2,,,53,0
329040,note_on,120,0,4,,,,,,,,,3,,,34,0
329160,note_on,0,0,3,,,,,,,,,2,,,62,0
329160,note_on,120,0,3,,,,,,,,,2,,,65,0
329160,note_on,120,0,4,,,,,,,,,3,,,46,0
329160,note_on,0,0,4,,,,,,,,,3,,,45,88
329160,note_on,0,0,3,,,,,,,,,2,,,61,88
329280,note_on,0,0,4,,,,,,,,,3,,,46,88
329280,note_on,0,0,3,,,,,,,,,2,,,62,88
329280,note_on,120,0,4,,,,,,,,,3,,,45,0
329280,note_on,120,0,3,,,,,,,,,2,,,61,0
329400,note_on,0,0,4,,,,,,,,,3,,,34,88
329400,note_on,120,0,4,,,,,,,,,3,,,46,0
329400,note_on,0,0,3,,,,,,,,,2,,,53,88
329400,note_on,120,0,3,,,,,,,,,2,,,62,0
329520,note_on,0,0,3,,,,,,,,,2,,,62,88
329520,note_on,0,0,4,,,,,,,,,3,,,46,88
329520,note_on,0,0,3,,,,,,,,,2,,,65,88
329520,note_on,120,0,4,,,,,,,,,3,,,34,0
329520,note_on,120,0,3,,,,,,,,,2,,,53,0
329640,note_on,0,0,4,,,,,,,,,3,,,45,88
329640,note_on,120,0,3,,,,,,,,,2,,,65,0
329640,note_on,0,0,3,,,,,,,,,2,,,62,0
329640,note_on,0,0,3,,,,,,,,,2,,,61,88
329640,note_on,120,0,4,,,,,,,,,3,,,46,0
329760,note_on,120,0,4,,,,,,,,,3,,,45,0
329760,note_on,120,0,3,,,,,,,,,2,,,61,0
329760,note_on,0,0,4,,,,,,,,,3,,,46,88
329760,note_on,0,0,3,,,,,,,,,2,,,62,88
329880,note_on,120,0,4,,,,,,,,,3,,,46,0
329880,note_on,0,0,4,,,,,,,,,3,,,34,88
329880,note_on,0,0,3,,,,,,,,,2,,,53,88
329880,note_on,120,0,3,,,,,,,,,2,,,62,0
330000,note_on,0,0,3,,,,,,,,,2,,,62,49
330000,note_on,0,0,3,,,,,,,,,2,,,64,49
330000,note_on,960,0,2,,,,,,,,,1,,,71,62
330000,note_on,960,0,1,,,,,,,,,0,,,83,62
330000,note_on,0,0,3,,,,,,,,,2,,,52,49
330000,note_on,120,0,3,,,,,,,,,2,,,53,0
330000,note_on,0,0,4,,,,,,,,,3,,,32,62
330000,note_on,120,0,4,,,,,,,,,3,,,34,0
330000,note_on,0,0,4,,,,,,,,,3,,,44,62
330120,note_on,120,0,1,,,,,,,,,0,,,83,0
330120,note_on,0,0,1,,,,,,,,,0,,,86,62
330120,note_on,120,0,2,,,,,,,,,1,,,71,0
330120,note_on,0,0,2,,,,,,,,,1,,,74,62
330240,note_on,0,0,2,,,,,,,,,1,,,73,62
330240,note_on,120,0,2,,,,,,,,,1,,,74,0
330240,note_on,120,0,1,,,,,,,,,0,,,86,0
330240,note_on,0,0,1,,,,,,,,,0,,,85,62
330360,note_on,120,0,1,,,,,,,,,0,,,85,0
330360,note_on,120,0,2,,,,,,,,,1,,,73,0
330360,note_on,0,0,2,,,,,,,,,1,,,74,62
330360,note_on,0,0,1,,,,,,,,,0,,,86,62
330480,note_on,120,0,2,,,,,,,,,1,,,74,0
330480,note_on,0,0,2,,,,,,,,,1,,,76,62
330480,note_on,0,0,3,,,,,,,,,2,,,52,0
330480,note_on,480,0,3,,,,,,,,,2,,,64,0
330480,note_on,0,0,3,,,,,,,,,2,,,62,0
330480,note_on,480,0,4,,,,,,,,,3,,,44,0
330480,note_on,0,0,4,,,,,,,,,3,,,32,0
330480,note_on,120,0,1,,,,,,,,,0,,,86,0
330480,note_on,0,0,1,,,,,,,,,0,,,88,62
330600,note_on,0,0,2,,,,,,,,,1,,,74,62
330600,note_on,120,0,2,,,,,,,,,1,,,76,0
330600,note_on,0,0,1,,,,,,,,,0,,,86,62
330600,note_on,120,0,1,,,,,,,,,0,,,88,0
330720,note_on,0,0,1,,,,,,,,,0,,,90,62
330720,note_on,240,0,3,,,,,,,,,2,,,52,49
330720,note_on,240,0,4,,,,,,,,,3,,,44,62
330720,note_on,0,0,3,,,,,,,,,2,,,64,49
330720,note_on,120,0,2,,,,,,,,,1,,,74,0
330720,note_on,0,0,2,,,,,,,,,1,,,78,62
330720,note_on,120,0,1,,,,,,,,,0,,,86,0
330720,note_on,0,0,3,,,,,,,,,2,,,62,49
330840,note_on,120,0,1,,,,,,,,,0,,,90,0
330840,note_on,0,0,1,,,,,,,,,0,,,88,62
330840,note_on,120,0,2,,,,,,,,,1,,,78,0
330840,note_on,0,0,2,,,,,,,,,1,,,76,62
330960,note_on,120,0,2,,,,,,,,,1,,,76,0
330960,note_on,0,0,2,,,,,,,,,1,,,74,62
330960,note_on,0,0,3,,,,,,,,,2,,,62,0
330960,note_on,0,0,1,,,,,,,,,0,,,86,62
330960,note_on,240,0,4,,,,,,,,,3,,,44,0
330960,note_on,0,0,4,,,,,,,,,3,,,44,62
330960,note_on,120,0,1,,,,,,,,,0,,,88,0
330960,note_on,240,0,3,,,,,,,,,2,,,64,0
330960,note_on,0,0,3,,,,,,,,,2,,,52,0
330960,note_on,0,0,3,,,,,,,,,2,,,52,49
330960,note_on,0,0,3,,,,,,,,,2,,,62,49
330960,note_on,0,0,3,,,,,,,,,2,,,64,49
331080,note_on,0,0,1,,,,,,,,,0,,,85,62
331080,note_on,120,0,1,,,,,,,,,0,,,86,0
331080,note_on,120,0,2,,,,,,,,,1,,,74,0
331080,note_on,0,0,2,,,,,,,,,1,,,73,62
331200,note_on,0,0,3,,,,,,,,,2,,,62,0
331200,note_on,0,0,3,,,,,,,,,2,,,52,0
331200,note_on,0,0,3,,,,,,,,,2,,,52,49
331200,note_on,0,0,3,,,,,,,,,2,,,64,49
331200,note_on,0,0,3,,,,,,,,,2,,,62,49
331200,note_on,0,0,4,,,,,,,,,3,,,44,62
331200,note_on,240,0,4,,,,,,,,,3,,,44,0
331200,note_on,240,0,3,,,,,,,,,2,,,64,0
331200,note_on,0,0,1,,,,,,,,,0,,,83,62
331200,note_on,0,0,2,,,,,,,,,1,,,71,62
331200,note_on,120,0,2,,,,,,,,,1,,,73,0
331200,note_on,120,0,1,,,,,,,,,0,,,85,0
331320,note_on,120,0,1,,,,,,,,,0,,,83,0
331320,note_on,0,0,2,,,,,,,,,1,,,70,62
331320,note_on,0,0,1,,,,,,,,,0,,,82,62
331320,note_on,120,0,2,,,,,,,,,1,,,71,0
331440,note_on,0,0,3,,,,,,,,,2,,,62,0
331440,note_on,0,0,3,,,,,,,,,2,,,66,49
331440,note_on,120,0,1,,,,,,,,,0,,,82,0
331440,note_on,0,0,3,,,,,,,,,2,,,54,49
331440,note_on,0,0,1,,,,,,,,,0,,,81,62
331440,note_on,0,0,3,,,,,,,,,2,,,62,49
331440,note_on,0,0,3,,,,,,,,,2,,,52,0
331440,note_on,240,0,3,,,,,,,,,2,,,64,0
331440,note_on,120,0,2,,,,,,,,,1,,,70,0
331440,note_on,0,0,2,,,,,,,,,1,,,69,62
331440,note_on,0,0,4,,,,,,,,,3,,,45,62
331440,note_on,240,0,4,,,,,,,,,3,,,44,0
331560,note_on,120,0,2,,,,,,,,,1,,,69,0
331560,note_on,0,0,2,,,,,,,,,1,,,71,62
331560,note_on,120,0,1,,,,,,,,,0,,,81,0
331560,note_on,0,0,1,,,,,,,,,0,,,83,62
331680,note_on,120,0,2,,,,,,,,,1,,,71,0
331680,note_on,0,0,2,,,,,,,,,1,,,72,62
331680,note_on,120,0,1,,,,,,,,,0,,,83,0
331680,note_on,0,0,1,,,,,,,,,0,,,84,62
331800,note_on,0,0,2,,,,,,,,,1,,,73,62
331800,note_on,120,0,2,,,,,,,,,1,,,72,0
331800,note_on,120,0,1,,,,,,,,,0,,,84,0
331800,note_on,0,0,1,,,,,,,,,0,,,85,62
331920,note_on,0,0,2,,,,,,,,,1,,,74,62
331920,note_on,120,0,2,,,,,,,,,1,,,73,0
331920,note_on,120,0,1,,,,,,,,,0,,,85,0
331920,note_on,0,0,1,,,,,,,,,0,,,86,62
332040,note_on,120,0,2,,,,,,,,,1,,,74,0
332040,note_on,0,0,2,,,,,,,,,1,,,76,62
332040,note_on,0,0,1,,,,,,,,,0,,,88,62
332040,note_on,120,0,1,,,,,,,,,0,,,86,0
332160,note_on,120,0,1,,,,,,,,,0,,,88,0
332160,note_on,0,0,1,,,,,,,,,0,,,89,62
332160,note_on,120,0,2,,,,,,,,,1,,,76,0
332160,note_on,0,0,2,,,,,,,,,1,,,77,62
332280,note_on,0,0,1,,,,,,,,,0,,,90,62
332280,note_on,120,0,1,,,,,,,,,0,,,89,0
332280,note_on,0,0,2,,,,,,,,,1,,,78,62
332280,note_on,120,0,2,,,,,,,,,1,,,77,0
332400,note_on,960,0,3,,,,,,,,,2,,,66,0
332400,note_on,0,0,3,,,,,,,,,2,,,62,0
332400,note_on,0,0,3,,,,,,,,,2,,,54,0
332400,note_on,0,0,3,,,,,,,,,2,,,57,49
332400,note_on,0,0,3,,,,,,,,,2,,,61,49
332400,note_on,0,0,4,,,,,,,,,3,,,45,62
332400,note_on,960,0,4,,,,,,,,,3,,,45,0
332400,note_on,0,0,2,,,,,,,,,1,,,79,62
332400,note_on,0,0,3,,,,,,,,,2,,,64,49
332400,note_on,120,0,2,,,,,,,,,1,,,78,0
332400,note_on,120,0,1,,,,,,,,,0,,,90,0
332400,note_on,0,0,1,,,,,,,,,0,,,91,62
332520,note_on,0,0,2,,,,,,,,,1,,,80,62
332520,note_on,120,0,2,,,,,,,,,1,,,79,0
332520,note_on,0,0,1,,,,,,,,,0,,,92,62
332520,note_on,120,0,1,,,,,,,,,0,,,91,0
332640,note_on,0,0,2,,,,,,,,,1,,,83,62
332640,note_on,120,0,2,,,,,,,,,1,,,80,0
332640,note_on,0,0,1,,,,,,,,,0,,,95,62
332640,note_on,120,0,1,,,,,,,,,0,,,92,0
332760,note_on,120,0,2,,,,,,,,,1,,,83,0
332760,note_on,0,0,2,,,,,,,,,1,,,81,62
332760,note_on,0,0,1,,,,,,,,,0,,,93,62
332760,note_on,120,0,1,,,,,,,,,0,,,95,0
332880,note_on,0,0,3,,,,,,,,,2,,,66,88
332880,note_on,0,0,3,,,,,,,,,2,,,62,88
332880,note_on,0,0,3,,,,,,,,,2,,,57,88
332880,note_on,0,0,3,,,,,,,,,2,,,57,0
332880,note_on,0,0,3,,,,,,,,,2,,,61,0
332880,note_on,480,0,3,,,,,,,,,2,,,64,0
332880,note_on,0,0,2,,,,,,,,,1,,,78,62
332880,note_on,120,0,2,,,,,,,,,1,,,81,0
332880,note_on,480,0,4,,,,,,,,,3,,,45,0
332880,note_on,0,0,4,,,,,,,,,3,,,38,88
332880,note_on,0,0,1,,,,,,,,,0,,,81,88
332880,note_on,0,0,4,,,,,,,,,3,,,50,88
332880,control_change,0,0,1,,,,,,,,,0,64,127,,
332880,note_on,120,0,1,,,,,,,,,0,,,93,0
332880,control_change,0,0,2,,,,,,,,,1,64,127,,
333000,note_on,120,0,2,,,,,,,,,1,,,78,0
333000,note_on,0,0,2,,,,,,,,,1,,,76,62
333000,note_on,0,0,1,,,,,,,,,0,,,85,88
333000,note_on,120,0,1,,,,,,,,,0,,,81,0
333120,note_on,0,0,3,,,,,,,,,2,,,62,0
333120,note_on,0,0,1,,,,,,,,,0,,,86,88
333120,note_on,120,0,1,,,,,,,,,0,,,85,0
333120,note_on,120,0,2,,,,,,,,,1,,,76,0
333120,note_on,0,0,4,,,,,,,,,3,,,38,0
333120,note_on,240,0,4,,,,,,,,,3,,,50,0
333120,note_on,0,0,2,,,,,,,,,1,,,74,62
333120,note_on,0,0,3,,,,,,,,,2,,,57,0
333120,note_on,240,0,3,,,,,,,,,2,,,66,0
333240,control_change,0,0,2,,,,,,,,,1,64,0,,
333240,note_on,0,0,1,,,,,,,,,0,,,90,88
333240,note_on,120,0,1,,,,,,,,,0,,,86,0
333240,note_on,120,0,2,,,,,,,,,1,,,74,0
333240,note_on,0,0,2,,,,,,,,,1,,,69,62
333240,control_change,0,0,1,,,,,,,,,0,64,0,,
333360,note_on,120,0,2,,,,,,,,,1,,,69,0
333360,note_on,240,0,3,,,,,,,,,2,,,57,88
333360,note_on,0,0,1,,,,,,,,,0,,,81,88
333360,control_change,0,0,1,,,,,,,,,0,64,127,,
333360,note_on,0,0,2,,,,,,,,,1,,,78,62
333360,note_on,240,0,4,,,,,,,,,3,,,38,88
333360,note_on,0,0,4,,,,,,,,,3,,,50,88
333360,note_on,0,0,3,,,,,,,,,2,,,66,88
333360,note_on,0,0,3,,,,,,,,,2,,,62,88
333360,control_change,0,0,2,,,,,,,,,1,64,127,,
333360,note_on,120,0,1,,,,,,,,,0,,,90,0
333480,note_on,0,0,2,,,,,,,,,1,,,76,62
333480,note_on,120,0,2,,,,,,,,,1,,,78,0
333480,note_on,120,0,1,,,,,,,,,0,,,81,0
333480,note_on,0,0,1,,,,,,,,,0,,,85,88
333600,note_on,120,0,2,,,,,,,,,1,,,76,0
333600,note_on,0,0,2,,,,,,,,,1,,,74,62
333600,note_on,0,0,3,,,,,,,,,2,,,57,0
333600,note_on,240,0,4,,,,,,,,,3,,,50,0
333600,note_on,240,0,3,,,,,,,,,2,,,66,0
333600,note_on,0,0,3,,,,,,,,,2,,,62,0
333600,note_on,0,0,1,,,,,,,,,0,,,86,88
333600,note_on,120,0,1,,,,,,,,,0,,,85,0
333600,note_on,0,0,4,,,,,,,,,3,,,38,0
333720,note_on,0,0,2,,,,,,,,,1,,,69,62
333720,note_on,120,0,1,,,,,,,,,0,,,86,0
333720,control_change,0,0,1,,,,,,,,,0,64,0,,
333720,note_on,0,0,1,,,,,,,,,0,,,90,88
333720,note_on,120,0,2,,,,,,,,,1,,,74,0
333720,control_change,0,0,2,,,,,,,,,1,64,0,,
333840,note_on,120,0,1,,,,,,,,,0,,,90,0
333840,note_on,0,0,4,,,,,,,,,3,,,50,88
333840,note_on,120,0,2,,,,,,,,,1,,,69,0
333840,control_change,0,0,2,,,,,,,,,1,64,127,,
333840,note_on,0,0,2,,,,,,,,,1,,,78,62
333840,note_on,240,0,4,,,,,,,,,3,,,38,88
333840,note_on,240,0,3,,,,,,,,,2,,,57,88
333840,note_on,0,0,3,,,,,,,,,2,,,62,88
333840,note_on,0,0,3,,,,,,,,,2,,,66,88
333840,control_change,0,0,1,,,,,,,,,0,64,127,,
333840,note_on,0,0,1,,,,,,,,,0,,,81,88
333960,note_on,0,0,2,,,,,,,,,1,,,76,62
333960,note_on,120,0,2,,,,,,,,,1,,,78,0
333960,note_on,0,0,1,,,,,,,,,0,,,85,88
333960,note_on,120,0,1,,,,,,,,,0,,,81,0
334080,note_on,240,0,3,,,,,,,,,2,,,66,0
334080,note_on,0,0,2,,,,,,,,,1,,,74,62
334080,note_on,120,0,2,,,,,,,,,1,,,76,0
334080,note_on,0,0,3,,,,,,,,,2,,,57,0
334080,note_on,0,0,3,,,,,,,,,2,,,62,0
334080,note_on,0,0,4,,,,,,,,,3,,,38,0
334080,note_on,240,0,4,,,,,,,,,3,,,50,0
334080,note_on,120,0,1,,,,,,,,,0,,,85,0
334080,note_on,0,0,1,,,,,,,,,0,,,86,88
334200,note_on,120,0,1,,,,,,,,,0,,,86,0
334200,control_change,0,0,1,,,,,,,,,0,64,0,,
334200,note_on,0,0,1,,,,,,,,,0,,,90,88
334200,note_on,120,0,2,,,,,,,,,1,,,74,0
334200,control_change,0,0,2,,,,,,,,,1,64,0,,
334200,note_on,0,0,2,,,,,,,,,1,,,69,62
334320,note_on,0,0,2,,,,,,,,,1,,,70,62
334320,note_on,120,0,2,,,,,,,,,1,,,69,0
334320,note_on,0,0,2,,,,,,,,,1,,,74,62
334320,note_on,0,0,1,,,,,,,,,0,,,86,88
334320,note_on,0,0,1,,,,,,,,,0,,,89,88
334320,note_on,120,0,1,,,,,,,,,0,,,90,0
334320,note_on,240,0,3,,,,,,,,,2,,,62,88
334320,note_on,0,0,3,,,,,,,,,2,,,65,88
334320,note_on,0,0,1,,,,,,,,,0,,,77,88
334320,note_on,240,0,4,,,,,,,,,3,,,34,88
334440,note_on,0,0,4,,,,,,,,,3,,,33,88
334440,note_on,120,0,3,,,,,,,,,2,,,65,0
334440,note_on,0,0,3,,,,,,,,,2,,,62,0
334440,note_on,0,0,3,,,,,,,,,2,,,61,88
334440,note_on,120,0,4,,,,,,,,,3,,,34,0
334560,note_on,0,0,4,,,,,,,,,3,,,34,88
334560,note_on,120,0,4,,,,,,,,,3,,,33,0
334560,note_on,120,0,3,,,,,,,,,2,,,61,0
334560,note_on,0,0,3,,,,,,,,,2,,,62,88
334680,note_on,0,0,4,,,,,,,,,3,,,46,88
334680,note_on,0,0,3,,,,,,,,,2,,,53,88
334680,note_on,120,0,4,,,,,,,,,3,,,34,0
334680,note_on,120,0,3,,,,,,,,,2,,,62,0
334800,note_on,0,0,3,,,,,,,,,2,,,65,88
334800,note_on,480,0,2,,,,,,,,,1,,,74,0
334800,note_on,120,0,3,,,,,,,,,2,,,53,0
334800,note_on,0,0,1,,,,,,,,,0,,,77,0
334800,note_on,0,0,1,,,,,,,,,0,,,86,0
334800,note_on,0,0,4,,,,,,,,,3,,,34,88
334800,note_on,120,0,4,,,,,,,,,3,,,46,0
334800,note_on,480,0,1,,,,,,,,,0,,,89,0
334800,note_on,0,0,3,,,,,,,,,2,,,62,88
334800,note_on,0,0,2,,,,,,,,,1,,,70,0
334920,note_on,0,0,3,,,,,,,,,2,,,61,88
334920,note_on,0,0,4,,,,,,,,,3,,,33,88
334920,note_on,120,0,3,,,,,,,,,2,,,65,0
334920,note_on,120,0,4,,,,,,,,,3,,,34,0
334920,note_on,0,0,3,,,,,,,,,2,,,62,0
335040,note_on,120,0,3,,,,,,,,,2,,,61,0
335040,note_on,0,0,3,,,,,,,,,2,,,62,88
335040,note_on,120,0,4,,,,,,,,,3,,,33,0
335040,note_on,0,0,4,,,,,,,,,3,,,34,88
335160,note_on,120,0,4,,,,,,,,,3,,,34,0
335160,note_on,120,0,3,,,,,,,,,2,,,62,0
335160,note_on,0,0,3,,,,,,,,,2,,,53,88
335160,note_on,0,0,4,,,,,,,,,3,,,46,88
335280,note_on,120,0,3,,,,,,,,,2,,,53,0
335280,note_on,0,0,3,,,,,,,,,2,,,62,88
335280,note_on,120,0,4,,,,,,,,,3,,,46,0
335280,note_on,0,0,4,,,,,,,,,3,,,34,88
335280,note_on,0,0,3,,,,,,,,,2,,,65,88
335400,note_on,120,0,3,,,,,,,,,2,,,65,0
335400,note_on,120,0,4,,,,,,,,,3,,,34,0
335400,note_on,0,0,4,,,,,,,,,3,,,33,88
335400,note_on,0,0,3,,,,,,,,,2,,,61,88
335400,note_on,0,0,3,,,,,,,,,2,,,62,0
335520,note_on,120,0,3,,,,,,,,,2,,,61,0
335520,note_on,0,0,3,,,,,,,,,2,,,62,88
335520,note_on,120,0,4,,,,,,,,,3,,,33,0
335520,note_on,0,0,4,,,,,,,,,3,,,34,88
335640,note_on,120,0,4,,,,,,,,,3,,,34,0
335640,note_on,0,0,3,,,,,,,,,2,,,53,88
335640,note_on,0,0,4,,,,,,,,,3,,,46,88
335640,note_on,120,0,3,,,,,,,,,2,,,62,0
335760,note_on,960,0,1,,,,,,,,,0,,,83,62
335760,note_on,120,0,4,,,,,,,,,3,,,46,0
335760,note_on,120,0,3,,,,,,,,,2,,,53,0
335760,note_on,0,0,4,,,,,,,,,3,,,44,62
335760,note_on,0,0,3,,,,,,,,,2,,,52,49
335760,note_on,0,0,3,,,,,,,,,2,,,62,49
335760,note_on,0,0,3,,,,,,,,,2,,,64,49
335760,note_on,960,0,2,,,,,,,,,1,,,71,62
335880,note_on,0,0,2,,,,,,,,,1,,,74,62
335880,note_on,120,0,2,,,,,,,,,1,,,71,0
335880,note_on,120,0,1,,,,,,,,,0,,,83,0
335880,note_on,0,0,1,,,,,,,,,0,,,86,62
336000,note_on,120,0,1,,,,,,,,,0,,,86,0
336000,note_on,0,0,1,,,,,,,,,0,,,85,62
336000,note_on,120,0,2,,,,,,,,,1,,,74,0
336000,note_on,0,0,2,,,,,,,,,1,,,73,62
336120,note_on,120,0,1,,,,,,,,,0,,,85,0
336120,note_on,0,0,1,,,,,,,,,0,,,86,62
336120,note_on,0,0,2,,,,,,,,,1,,,74,62
336120,note_on,120,0,2,,,,,,,,,1,,,73,0
336240,note_on,120,0,1,,,,,,,,,0,,,86,0
336240,note_on,0,0,1,,,,,,,,,0,,,88,62
336240,note_on,480,0,4,,,,,,,,,3,,,44,0
336240,note_on,0,0,2,,,,,,,,,1,,,76,62
336240,note_on,120,0,2,,,,,,,,,1,,,74,0
336240,note_on,0,0,3,,,,,,,,,2,,,52,0
336240,note_on,0,0,3,,,,,,,,,2,,,62,0
336240,note_on,480,0,3,,,,,,,,,2,,,64,0
336360,note_on,0,0,1,,,,,,,,,0,,,86,62
336360,note_on,120,0,1,,,,,,,,,0,,,88,0
336360,note_on,120,0,2,,,,,,,,,1,,,76,0
336360,note_on,0,0,2,,,,,,,,,1,,,74,62
336480,note_on,240,0,4,,,,,,,,,3,,,44,62
336480,note_on,0,0,3,,,,,,,,,2,,,64,49
336480,note_on,0,0,3,,,,,,,,,2,,,62,49
336480,note_on,240,0,3,,,,,,,,,2,,,52,49
336480,note_on,0,0,2,,,,,,,,,1,,,78,62
336480,note_on,0,0,1,,,,,,,,,0,,,90,62
336480,note_on,120,0,1,,,,,,,,,0,,,86,0
336480,note_on,120,0,2,,,,,,,,,1,,,74,0
336600,note_on,120,0,2,,,,,,,,,1,,,78,0
336600,note_on,120,0,1,,,,,,,,,0,,,90,0
336600,note_on,0,0,1,,,,,,,,,0,,,88,62
336600,note_on,0,0,2,,,,,,,,,1,,,76,62
336720,note_on,0,0,3,,,,,,,,,2,,,64,49
336720,note_on,0,0,3,,,,,,,,,2,,,62,49
336720,note_on,0,0,3,,,,,,,,,2,,,52,49
336720,note_on,0,0,1,,,,,,,,,0,,,86,62
336720,note_on,0,0,3,,,,,,,,,2,,,62,0
336720,note_on,240,0,3,,,,,,,,,2,,,64,0
336720,note_on,120,0,1,,,,,,,,,0,,,88,0
336720,note_on,0,0,3,,,,,,,,,2,,,52,0
336720,note_on,0,0,4,,,,,,,,,3,,,44,62
336720,note_on,240,0,4,,,,,,,,,3,,,44,0
336720,note_on,120,0,2,,,,,,,,,1,,,76,0
336720,note_on,0,0,2,,,,,,,,,1,,,74,62
336840,note_on,0,0,1,,,,,,,,,0,,,85,62
336840,note_on,120,0,1,,,,,,,,,0,,,86,0
336840,note_on,120,0,2,,,,,,,,,1,,,74,0
336840,note_on,0,0,2,,,,,,,,,1,,,73,62
336960,note_on,0,0,3,,,,,,,,,2,,,52,0
336960,note_on,0,0,1,,,,,,,,,0,,,83,62
336960,note_on,120,0,1,,,,,,,,,0,,,85,0
336960,note_on,0,0,4,,,,,,,,,3,,,44,62
336960,note_on,240,0,4,,,,,,,,,3,,,44,0
336960,note_on,120,0,2,,,,,,,,,1,,,73,0
336960,note_on,0,0,2,,,,,,,,,1,,,71,62
336960,note_on,0,0,3,,,,,,,,,2,,,52,49
336960,note_on,240,0,3,,,,,,,,,2,,,64,0
336960,note_on,0,0,3,,,,,,,,,2,,,62,49
336960,note_on,0,0,3,,,,,,,,,2,,,64,49
336960,note_on,0,0,3,,,,,,,,,2,,,62,0
337080,note_on,0,0,1,,,,,,,,,0,,,82,62
337080,note_on,120,0,1,,,,,,,,,0,,,83,0
337080,note_on,0,0,2,,,,,,,,,1,,,70,62
337080,note_on,120,0,2,,,,,,,,,1,,,71,0
337200,note_on,0,0,3,,,,,,,,,2,,,54,49
337200,note_on,240,0,4,,,,,,,,,3,,,44,0
337200,note_on,0,0,4,,,,,,,,,3,,,45,62
337200,note_on,0,0,3,,,,,,,,,2,,,62,0
337200,note_on,240,0,3,,,,,,,,,2,,,64,0
337200,note_on,120,0,1,,,,,,,,,0,,,82,0
337200,note_on,0,0,1,,,,,,,,,0,,,81,62
337200,note_on,0,0,3,,,,,,,,,2,,,52,0
337200,note_on,0,0,3,,,,,,,,,2,,,66,49
337200,note_on,0,0,3,,,,,,,,,2,,,62,49
337200,note_on,120,0,2,,,,,,,,,1,,,70,0
337200,note_on,0,0,2,,,,,,,,,1,,,69,62
337320,note_on,0,0,1,,,,,,,,,0,,,83,62
337320,note_on,120,0,2,,,,,,,,,1,,,69,0
337320,note_on,0,0,2,,,,,,,,,1,,,71,62
337320,note_on,120,0,1,,,,,,,,,0,,,81,0
337440,note_on,120,0,2,,,,,,,,,1,,,71,0
337440,note_on,0,0,1,,,,,,,,,0,,,84,62
337440,note_on,120,0,1,,,,,,,,,0,,,83,0
337440,note_on,0,0,2,,,,,,,,,1,,,72,62
337560,note_on,120,0,1,,,,,,,,,0,,,84,0
337560,note_on,0,0,2,,,,,,,,,1,,,73,62
337560,note_on,0,0,1,,,,,,,,,0,,,85,62
337560,note_on,120,0,2,,,,,,,,,1,,,72,0
337680,note_on,0,0,1,,,,,,,,,0,,,86,62
337680,note_on,0,0,2,,,,,,,,,1,,,74,62
337680,note_on,120,0,2,,,,,,,,,1,,,73,0
337680,note_on,120,0,1,,,,,,,,,0,,,85,0
337800,note_on,0,0,1,,,,,,,,,0,,,88,62
337800,note_on,120,0,1,,,,,,,,,0,,,86,0
337800,note_on,0,0,2,,,,,,,,,1,,,76,62
337800,note_on,120,0,2,,,,,,,,,1,,,74,0
337920,note_on,120,0,1,,,,,,,,,0,,,88,0
337920,note_on,120,0,2,,,,,,,,,1,,,76,0
337920,note_on,0,0,2,,,,,,,,,1,,,77,62
337920,note_on,0,0,1,,,,,,,,,0,,,89,62
338040,note_on,120,0,2,,,,,,,,,1,,,77,0
338040,note_on,0,0,2,,,,,,,,,1,,,78,62
338040,note_on,120,0,1,,,,,,,,,0,,,89,0
338040,note_on,0,0,1,,,,,,,,,0,,,90,62
338160,note_on,0,0,3,,,,,,,,,2,,,64,49
338160,note_on,0,0,3,,,,,,,,,2,,,61,49
338160,note_on,0,0,3,,,,,,,,,2,,,57,49
338160,note_on,0,0,3,,,,,,,,,2,,,54,0
338160,note_on,0,0,3,,,,,,,,,2,,,62,0
338160,note_on,120,0,1,,,,,,,,,0,,,90,0
338160,note_on,0,0,1,,,,,,,,,0,,,91,62
338160,note_on,960,0,4,,,,,,,,,3,,,45,0
338160,note_on,0,0,4,,,,,,,,,3,,,45,62
338160,note_on,0,0,2,,,,,,,,,1,,,79,62
338160,note_on,120,0,2,,,,,,,,,1,,,78,0
338160,note_on,960,0,3,,,,,,,,,2,,,66,0
338280,note_on,0,0,1,,,,,,,,,0,,,92,62
338280,note_on,120,0,1,,,,,,,,,0,,,91,0
338280,note_on,0,0,2,,,,,,,,,1,,,80,62
338280,note_on,120,0,2,,,,,,,,,1,,,79,0
338400,note_on,120,0,2,,,,,,,,,1,,,80,0
338400,note_on,120,0,1,,,,,,,,,0,,,92,0
338400,note_on,0,0,1,,,,,,,,,0,,,95,62
338400,note_on,0,0,2,,,,,,,,,1,,,83,62
338520,note_on,0,0,2,,,,,,,,,1,,,81,62
338520,note_on,120,0,2,,,,,,,,,1,,,83,0
338520,note_on,0,0,1,,,,,,,,,0,,,93,62
338520,note_on,120,0,1,,,,,,,,,0,,,95,0
338640,note_on,0,0,3,,,,,,,,,2,,,61,0
338640,note_on,0,0,4,,,,,,,,,3,,,47,62
338640,note_on,480,0,3,,,,,,,,,2,,,64,0
338640,note_on,480,0,4,,,,,,,,,3,,,45,0
338640,note_on,0,0,3,,,,,,,,,2,,,57,0
338640,note_on,120,0,2,,,,,,,,,1,,,81,0
338640,note_on,0,0,2,,,,,,,,,1,,,74,62
338640,note_on,120,0,1,,,,,,,,,0,,,93,0
338640,note_on,0,0,1,,,,,,,,,0,,,86,62
338640,note_on,0,0,3,,,,,,,,,2,,,54,49
338640,note_on,0,0,3,,,,,,,,,2,,,62,49
338880,note_on,0,0,3,,,,,,,,,2,,,54,0
338880,note_on,240,0,2,,,,,,,,,1,,,74,0
338880,note_on,240,0,4,,,,,,,,,3,,,47,0
338880,note_on,0,0,1,,,,,,,,,0,,,86,101
338880,note_on,0,0,4,,,,,,,,,3,,,32,62
338880,note_on,0,0,1,,,,,,,,,0,,,95,101
338880,note_on,240,0,1,,,,,,,,,0,,,86,0
338880,note_on,0,0,1,,,,,,,,,0,,,89,101
338880,note_on,240,0,3,,,,,,,,,2,,,62,0
339000,note_on,0,0,1,,,,,,,,,0,,,86,0
339000,note_on,120,0,3,,,,,,,,,2,,,44,101
339000,note_on,0,0,1,,,,,,,,,0,,,89,0
339000,note_on,120,0,4,,,,,,,,,3,,,32,0
339000,note_on,120,0,1,,,,,,,,,0,,,95,0
339000,note_on,120,0,2,,,,,,,,,1,,,74,101
339000,note_on,0,0,2,,,,,,,,,1,,,77,101
339000,note_on,0,0,2,,,,,,,,,1,,,83,101
339120,note_on,120,0,1,,,,,,,,,0,,,83,101
339120,note_on,0,0,2,,,,,,,,,1,,,77,0
339120,note_on,120,0,2,,,,,,,,,1,,,83,0
339120,note_on,120,0,3,,,,,,,,,2,,,44,0
339120,note_on,0,0,1,,,,,,,,,0,,,86,101
339120,note_on,0,0,1,,,,,,,,,0,,,89,101
339120,note_on,0,0,2,,,,,,,,,1,,,74,0
339120,note_on,120,0,4,,,,,,,,,3,,,35,62
339240,note_on,120,0,2,,,,,,,,,1,,,71,101
339240,note_on,0,0,2,,,,,,,,,1,,,74,101
339240,note_on,0,0,2,,,,,,,,,1,,,77,101
339240,note_on,120,0,3,,,,,,,,,2,,,47,101
339240,note_on,120,0,4,,,,,,,,,3,,,35,0
339240,note_on,120,0,1,,,,,,,,,0,,,89,0
339240,note_on,0,0,1,,,,,,,,,0,,,86,0
339240,note_on,0,0,1,,,,,,,,,0,,,83,0
339360,note_on,120,0,4,,,,,,,,,3,,,38,62
339360,note_on,120,0,3,,,,,,,,,2,,,47,0
339360,note_on,120,0,1,,,,,,,,,0,,,77,101
339360,note_on,0,0,1,,,,,,,,,0,,,83,101
339360,note_on,0,0,1,,,,,,,,,0,,,86,101
339360,note_on,120,0,2,,,,,,,,,1,,,77,0
339360,note_on,0,0,2,,,,,,,,,1,,,74,0
339360,note_on,0,0,2,,,,,,,,,1,,,71,0
339480,note_on,0,0,1,,,,,,,,,0,,,83,0
339480,note_on,120,0,3,,,,,,,,,2,,,50,101
339480,note_on,120,0,4,,,,,,,,,3,,,38,0
339480,note_on,0,0,2,,,,,,,,,1,,,74,101
339480,note_on,0,0,2,,,,,,,,,1,,,71,101
339480,note_on,120,0,2,,,,,,,,,1,,,65,101
339480,note_on,120,0,1,,,,,,,,,0,,,86,0
339480,note_on,0,0,1,,,,,,,,,0,,,77,0
339600,note_on,120,0,4,,,,,,,,,3,,,41,62
339600,note_on,0,0,1,,,,,,,,,0,,,83,101
339600,note_on,0,0,2,,,,,,,,,1,,,65,0
339600,note_on,0,0,1,,,,,,,,,0,,,77,101
339600,note_on,120,0,3,,,,,,,,,2,,,50,0
339600,note_on,120,0,2,,,,,,,,,1,,,74,0
339600,note_on,0,0,2,,,,,,,,,1,,,71,0
339600,note_on,120,0,1,,,,,,,,,0,,,74,101
339720,note_on,120,0,2,,,,,,,,,1,,,62,101
339720,note_on,0,0,2,,,,,,,,,1,,,71,101
339720,note_on,0,0,2,,,,,,,,,1,,,65,101
339720,note_on,120,0,1,,,,,,,,,0,,,83,0
339720,note_on,0,0,1,,,,,,,,,0,,,77,0
339720,note_on,0,0,1,,,,,,,,,0,,,74,0
339720,note_on,120,0,4,,,,,,,,,3,,,41,0
339720,note_on,120,0,3,,,,,,,,,2,,,53,101
339840,note_on,0,0,1,,,,,,,,,0,,,77,101
339840,note_on,120,0,1,,,,,,,,,0,,,71,101
339840,note_on,120,0,4,,,,,,,,,3,,,44,62
339840,note_on,0,0,1,,,,,,,,,0,,,74,101
339840,note_on,120,0,3,,,,,,,,,2,,,53,0
339840,note_on,120,0,2,,,,,,,,,1,,,71,0
339840,note_on,0,0,2,,,,,,,,,1,,,65,0
339840,note_on,0,0,2,,,,,,,,,1,,,62,0
339960,note_on,120,0,3,,,,,,,,,2,,,56,101
339960,note_on,0,0,2,,,,,,,,,1,,,65,101
339960,note_on,0,0,2,,,,,,,,,1,,,62,101
339960,note_on,120,0,1,,,,,,,,,0,,,77,0
339960,note_on,120,0,2,,,,,,,,,1,,,59,101
339960,note_on,0,0,1,,,,,,,,,0,,,71,0
339960,note_on,120,0,4,,,,,,,,,3,,,44,0
339960,note_on,0,0,1,,,,,,,,,0,,,74,0
340080,note_on,120,0,2,,,,,,,,,1,,,65,0
340080,note_on,120,0,4,,,,,,,,,3,,,45,62
340080,note_on,0,0,2,,,,,,,,,1,,,62,0
340080,note_on,0,0,2,,,,,,,,,1,,,66,101
340080,note_on,0,0,2,,,,,,,,,1,,,62,101
340080,note_on,120,0,1,,,,,,,,,0,,,69,101
340080,note_on,0,0,1,,,,,,,,,0,,,74,101
340080,note_on,0,0,1,,,,,,,,,0,,,78,101
340080,note_on,120,0,3,,,,,,,,,2,,,56,0
340080,note_on,0,0,2,,,,,,,,,1,,,59,0
340080,note_on,0,0,3,,,,,,,,,2,,,57,101
340320,note_on,0,0,1,,,,,,,,,0,,,73,127
340320,note_on,0,0,1,,,,,,,,,0,,,69,127
340320,note_on,240,0,1,,,,,,,,,0,,,78,0
340320,note_on,0,0,1,,,,,,,,,0,,,74,0
340320,note_on,0,0,1,,,,,,,,,0,,,69,0
340320,note_on,0,0,1,,,,,,,,,0,,,76,127
340320,note_on,0,0,3,,,,,,,,,2,,,57,127
340320,note_on,0,0,4,,,,,,,,,3,,,45,88
340320,note_on,0,0,4,,,,,,,,,3,,,33,88
340320,note_on,240,0,4,,,,,,,,,3,,,45,0
340320,note_on,0,0,1,,,,,,,,,0,,,81,127
340320,note_on,0,0,2,,,,,,,,,1,,,64,127
340320,note_on,0,0,2,,,,,,,,,1,,,62,0
340320,note_on,240,0,2,,,,,,,,,1,,,66,0
340320,note_on,0,0,2,,,,,,,,,1,,,67,127
340320,note_on,240,0,3,,,,,,,,,2,,,57,0
340800,note_on,0,0,2,,,,,,,,,1,,,64,62
340800,note_on,0,0,2,,,,,,,,,1,,,61,62
340800,note_on,0,0,2,,,,,,,,,1,,,57,62
340800,note_on,0,0,4,,,,,,,,,3,,,45,62
340800,note_on,0,0,4,,,,,,,,,3,,,33,62
340800,note_on,0,0,4,,,,,,,,,3,,,33,0
340800,note_on,480,0,4,,,,,,,,,3,,,45,0
340800,note_on,480,0,3,,,,,,,,,2,,,57,0
340800,note_on,0,0,2,,,,,,,,,1,,,64,0
340800,control_change,0,0,1,,,,,,,,,0,64,127,,
340800,note_on,0,0,3,,,,,,,,,2,,,73,101
340800,note_on,480,0,1,,,,,,,,,0,,,81,0
340800,note_on,480,0,2,,,,,,,,,1,,,67,0
340800,note_on,0,0,2,,,,,,,,,1,,,67,62
340800,note_on,0,0,1,,,,,,,,,0,,,69,0
340800,note_on,0,0,1,,,,,,,,,0,,,73,0
340800,note_on,0,0,1,,,,,,,,,0,,,76,0
340800,note_on,0,0,1,,,,,,,,,0,,,85,101
340800,control_change,0,0,3,,,,,,,,,2,64,127,,
340920,note_on,0,0,1,,,,,,,,,0,,,86,101
340920,note_on,120,0,1,,,,,,,,,0,,,85,0
340920,note_on,120,0,3,,,,,,,,,2,,,73,0
340920,note_on,0,0,3,,,,,,,,,2,,,74,101
341040,note_on,0,0,4,,,,,,,,,3,,,33,62
341040,note_on,0,0,2,,,,,,,,,1,,,61,62
341040,note_on,0,0,2,,,,,,,,,1,,,57,62
341040,note_on,0,0,2,,,,,,,,,1,,,64,0
341040,note_on,0,0,2,,,,,,,,,1,,,61,0
341040,note_on,0,0,2,,,,,,,,,1,,,57,0
341040,note_on,240,0,2,,,,,,,,,1,,,67,0
341040,note_on,0,0,4,,,,,,,,,3,,,45,62
341040,note_on,0,0,4,,,,,,,,,3,,,33,0
341040,note_on,240,0,4,,,,,,,,,3,,,45,0
341040,note_on,0,0,2,,,,,,,,,1,,,64,62
341040,note_on,0,0,2,,,,,,,,,1,,,67,62
341040,note_on,0,0,1,,,,,,,,,0,,,88,101
341040,note_on,120,0,1,,,,,,,,,0,,,86,0
341040,note_on,0,0,3,,,,,,,,,2,,,76,101
341040,note_on,120,0,3,,,,,,,,,2,,,74,0
341160,note_on,120,0,1,,,,,,,,,0,,,88,0
341160,note_on,0,0,3,,,,,,,,,2,,,78,101
341160,note_on,120,0,3,,,,,,,,,2,,,76,0
341160,note_on,0,0,1,,,,,,,,,0,,,90,101
341280,note_on,0,0,2,,,,,,,,,1,,,61,0
341280,note_on,0,0,4,,,,,,,,,3,,,33,0
341280,note_on,0,0,2,,,,,,,,,1,,,57,62
341280,note_on,0,0,2,,,,,,,,,1,,,61,62
341280,note_on,0,0,2,,,,,,,,,1,,,64,0
341280,note_on,0,0,4,,,,,,,,,3,,,33,62
341280,note_on,0,0,2,,,,,,,,,1,,,64,62
341280,note_on,0,0,1,,,,,,,,,0,,,91,101
341280,note_on,120,0,1,,,,,,,,,0,,,90,0
341280,note_on,0,0,3,,,,,,,,,2,,,79,101
341280,note_on,120,0,3,,,,,,,,,2,,,78,0
341280,note_on,240,0,2,,,,,,,,,1,,,67,0
341280,note_on,0,0,2,,,,,,,,,1,,,67,62
341280,note_on,0,0,2,,,,,,,,,1,,,57,0
341280,note_on,240,0,4,,,,,,,,,3,,,45,0
341280,note_on,0,0,4,,,,,,,,,3,,,45,62
341400,control_change,0,0,3,,,,,,,,,2,64,0,,
341400,note_on,0,0,1,,,,,,,,,0,,,93,101
341400,control_change,0,0,1,,,,,,,,,0,64,0,,
341400,note_on,120,0,1,,,,,,,,,0,,,91,0
341400,note_on,0,0,3,,,,,,,,,2,,,81,101
341400,note_on,120,0,3,,,,,,,,,2,,,79,0
341520,note_on,0,0,4,,,,,,,,,3,,,50,62
341520,note_on,120,0,3,,,,,,,,,2,,,81,0
341520,note_on,0,0,4,,,,,,,,,3,,,38,62
341520,note_on,0,0,4,,,,,,,,,3,,,33,0
341520,note_on,120,0,1,,,,,,,,,0,,,93,0
341520,note_on,0,0,1,,,,,,,,,0,,,86,62
341520,note_on,240,0,4,,,,,,,,,3,,,45,0
341520,note_on,240,0,2,,,,,,,,,1,,,67,0
341520,note_on,0,0,3,,,,,,,,,2,,,74,62
341520,note_on,0,0,2,,,,,,,,,1,,,57,0
341520,note_on,0,0,2,,,,,,,,,1,,,61,0
341520,note_on,0,0,2,,,,,,,,,1,,,57,49
341520,note_on,0,0,2,,,,,,,,,1,,,64,0
341640,note_on,120,0,2,,,,,,,,,1,,,57,0
341640,note_on,0,0,2,,,,,,,,,1,,,62,49
341760,note_on,120,0,2,,,,,,,,,1,,,62,0
341760,note_on,0,0,2,,,,,,,,,1,,,66,49
341880,note_on,0,0,2,,,,,,,,,1,,,62,49
341880,note_on,120,0,2,,,,,,,,,1,,,66,0
342000,note_on,480,0,1,,,,,,,,,0,,,86,0
342000,note_on,120,0,2,,,,,,,,,1,,,62,0
342000,note_on,480,0,3,,,,,,,,,2,,,74,0
342000,note_on,0,0,2,,,,,,,,,1,,,57,49
342120,note_on,0,0,2,,,,,,,,,1,,,62,49
342120,note_on,120,0,2,,,,,,,,,1,,,57,0
342240,note_on,120,0,2,,,,,,,,,1,,,62,0
342240,note_on,0,0,2,,,,,,,,,1,,,66,49
342360,note_on,0,0,2,,,,,,,,,1,,,62,49
342360,note_on,120,0,2,,,,,,,,,1,,,66,0
342480,note_on,120,0,2,,,,,,,,,1,,,62,0
342480,note_on,0,0,2,,,,,,,,,1,,,57,49
342600,note_on,0,0,2,,,,,,,,,1,,,61,49
342600,note_on,120,0,2,,,,,,,,,1,,,57,0
342720,note_on,0,0,2,,,,,,,,,1,,,67,49
342720,note_on,120,0,2,,,,,,,,,1,,,61,0
342840,note_on,0,0,2,,,,,,,,,1,,,61,49
342840,note_on,120,0,2,,,,,,,,,1,,,67,0
342960,note_on,1440,0,4,,,,,,,,,3,,,50,0
342960,note_on,0,0,4,,,,,,,,,3,,,38,0
342960,note_on,0,0,4,,,,,,,,,3,,,50,62
342960,note_on,0,0,2,,,,,,,,,1,,,57,49
342960,note_on,120,0,2,,,,,,,,,1,,,61,0
342960,note_on,0,0,4,,,,,,,,,3,,,38,62
343080,note_on,120,0,2,,,,,,,,,1,,,57,0
343080,note_on,0,0,2,,,,,,,,,1,,,62,49
343200,note_on,120,0,2,,,,,,,,,1,,,62,0
343200,note_on,0,0,2,,,,,,,,,1,,,66,49
343320,note_on,120,0,2,,,,,,,,,1,,,66,0
343320,note_on,0,0,2,,,,,,,,,1,,,62,49
343440,note_on,120,0,2,,,,,,,,,1,,,62,0
343440,note_on,0,0,2,,,,,,,,,1,,,57,49
343560,note_on,0,0,2,,,,,,,,,1,,,62,49
343560,note_on,120,0,2,,,,,,,,,1,,,57,0
343680,note_on,0,0,2,,,,,,,,,1,,,66,49
343680,note_on,120,0,2,,,,,,,,,1,,,62,0
343800,note_on,0,0,2,,,,,,,,,1,,,62,49
343800,note_on,120,0,2,,,,,,,,,1,,,66,0
343920,note_on,0,0,2,,,,,,,,,1,,,57,49
343920,note_on,120,0,2,,,,,,,,,1,,,62,0
343920,note_on,1920,0,3,,,,,,,,,2,,,83,75
344040,note_on,0,0,2,,,,,,,,,1,,,61,49
344040,note_on,120,0,2,,,,,,,,,1,,,57,0
344160,note_on,120,0,2,,,,,,,,,1,,,61,0
344160,note_on,0,0,2,,,,,,,,,1,,,67,49
344280,note_on,120,0,2,,,,,,,,,1,,,67,0
344280,note_on,0,0,2,,,,,,,,,1,,,61,49
344280,note_on,360,0,3,,,,,,,,,2,,,83,0
344280,note_on,0,0,3,,,,,,,,,2,,,81,75
344400,note_on,120,0,2,,,,,,,,,1,,,61,0
344400,note_on,0,0,2,,,,,,,,,1,,,57,49
344400,note_on,0,0,4,,,,,,,,,3,,,50,62
344400,note_on,0,0,4,,,,,,,,,3,,,38,62
344400,note_on,0,0,4,,,,,,,,,3,,,38,0
344400,note_on,1440,0,4,,,,,,,,,3,,,50,0
344400,note_on,120,0,3,,,,,,,,,2,,,81,0
344400,note_on,0,0,3,,,,,,,,,2,,,78,75
344520,note_on,0,0,2,,,,,,,,,1,,,62,49
344520,note_on,120,0,2,,,,,,,,,1,,,57,0
344640,note_on,120,0,2,,,,,,,,,1,,,62,0
344640,note_on,0,0,2,,,,,,,,,1,,,66,49
344760,note_on,120,0,2,,,,,,,,,1,,,66,0
344760,note_on,0,0,2,,,,,,,,,1,,,62,49
344880,note_on,0,0,2,,,,,,,,,1,,,57,49
344880,note_on,120,0,2,,,,,,,,,1,,,62,0
345000,note_on,120,0,2,,,,,,,,,1,,,57,0
345000,note_on,0,0,2,,,,,,,,,1,,,62,49
345120,note_on,120,0,2,,,,,,,,,1,,,62,0
345120,note_on,0,0,2,,,,,,,,,1,,,66,49
345240,note_on,120,0,2,,,,,,,,,1,,,66,0
345240,note_on,0,0,2,,,,,,,,,1,,,62,49
345300,note_on,900,0,3,,,,,,,,,2,,,78,75
345360,note_on,120,0,2,,,,,,,,,1,,,62,0
345360,note_on,0,0,2,,,,,,,,,1,,,57,49
345360,note_on,3360,0,1,,,,,,,,,0,,,95,75
345360,note_on,60,0,3,,,,,,,,,2,,,78,0
345360,note_on,0,0,3,,,,,,,,,2,,,78,0
345360,control_change,0,0,3,,,,,,,,,2,64,127,,
345360,note_on,0,0,3,,,,,,,,,2,,,76,75
345480,note_on,0,0,2,,,,,,,,,1,,,61,49
345480,note_on,120,0,3,,,,,,,,,2,,,76,0
345480,note_on,0,0,3,,,,,,,,,2,,,75,75
345480,note_on,120,0,2,,,,,,,,,1,,,57,0
345600,note_on,0,0,2,,,,,,,,,1,,,67,49
345600,note_on,120,0,2,,,,,,,,,1,,,61,0
345600,note_on,120,0,3,,,,,,,,,2,,,75,0
345600,note_on,0,0,3,,,,,,,,,2,,,76,75
345720,note_on,0,0,2,,,,,,,,,1,,,61,49
345720,note_on,120,0,2,,,,,,,,,1,,,67,0
345720,note_on,0,0,3,,,,,,,,,2,,,78,75
345720,note_on,120,0,3,,,,,,,,,2,,,76,0
345720,note_on,360,0,1,,,,,,,,,0,,,95,0
345720,note_on,0,0,1,,,,,,,,,0,,,93,75
345840,note_on,120,0,2,,,,,,,,,1,,,61,0
345840,note_on,1440,0,4,,,,,,,,,3,,,50,0
345840,note_on,0,0,4,,,,,,,,,3,,,38,0
345840,note_on,0,0,4,,,,,,,,,3,,,38,62
345840,note_on,0,0,4,,,,,,,,,3,,,50,62
345840,note_on,120,0,1,,,,,,,,,0,,,93,0
345840,note_on,0,0,1,,,,,,,,,0,,,90,75
345840,note_on,0,0,3,,,,,,,,,2,,,74,101
345840,note_on,120,0,3,,,,,,,,,2,,,78,0
345840,note_on,0,0,2,,,,,,,,,1,,,57,49
345960,note_on,120,0,2,,,,,,,,,1,,,57,0
345960,note_on,0,0,2,,,,,,,,,1,,,62,49
346080,note_on,120,0,2,,,,,,,,,1,,,62,0
346080,note_on,0,0,2,,,,,,,,,1,,,66,49
346200,note_on,120,0,2,,,,,,,,,1,,,66,0
346200,note_on,0,0,2,,,,,,,,,1,,,62,49
346320,note_on,0,0,3,,,,,,,,,2,,,69,75
346320,note_on,480,0,3,,,,,,,,,2,,,74,0
346320,control_change,0,0,3,,,,,,,,,2,64,0,,
346320,note_on,0,0,2,,,,,,,,,1,,,57,49
346320,note_on,120,0,2,,,,,,,,,1,,,62,0
346440,note_on,0,0,2,,,,,,,,,1,,,62,49
346440,note_on,120,0,2,,,,,,,,,1,,,57,0
346560,note_on,240,0,3,,,,,,,,,2,,,69,0
346560,note_on,120,0,2,,,,,,,,,1,,,62,0
346560,note_on,0,0,2,,,,,,,,,1,,,66,49
346680,note_on,0,0,2,,,,,,,,,1,,,62,49
346680,note_on,120,0,2,,,,,,,,,1,,,66,0
346740,note_on,900,0,1,,,,,,,,,0,,,90,75
346800,control_change,0,0,1,,,,,,,,,0,64,127,,
346800,note_on,0,0,1,,,,,,,,,0,,,90,0
346800,note_on,0,0,1,,,,,,,,,0,,,88,75
346800,note_on,120,0,2,,,,,,,,,1,,,62,0
346800,note_on,0,0,2,,,,,,,,,1,,,57,49
346800,note_on,240,0,3,,,,,,,,,2,,,83,75
346800,note_on,60,0,1,,,,,,,,,0,,,90,0
346920,note_on,120,0,1,,,,,,,,,0,,,88,0
346920,note_on,0,0,1,,,,,,,,,0,,,87,75
346920,note_on,120,0,2,,,,,,,,,1,,,57,0
346920,note_on,0,0,2,,,,,,,,,1,,,61,49
347040,note_on,120,0,1,,,,,,,,,0,,,87,0
347040,note_on,0,0,1,,,,,,,,,0,,,88,75
347040,note_on,120,0,2,,,,,,,,,1,,,61,0
347040,note_on,0,0,2,,,,,,,,,1,,,67,49
347160,note_on,120,0,1,,,,,,,,,0,,,88,0
347160,note_on,0,0,1,,,,,,,,,0,,,90,75
347160,note_on,360,0,3,,,,,,,,,2,,,83,0
347160,note_on,120,0,2,,,,,,,,,1,,,67,0
347160,note_on,0,0,3,,,,,,,,,2,,,81,75
347160,note_on,0,0,2,,,,,,,,,1,,,61,49
347280,note_on,120,0,1,,,,,,,,,0,,,90,0
347280,note_on,0,0,1,,,,,,,,,0,,,86,101
347280,note_on,0,0,2,,,,,,,,,1,,,57,49
347280,note_on,120,0,2,,,,,,,,,1,,,61,0
347280,note_on,120,0,3,,,,,,,,,2,,,81,0
347280,note_on,0,0,4,,,,,,,,,3,,,38,62
347280,note_on,0,0,4,,,,,,,,,3,,,38,0
347280,note_on,0,0,3,,,,,,,,,2,,,78,75
347280,note_on,1440,0,4,,,,,,,,,3,,,50,0
347280,note_on,0,0,4,,,,,,,,,3,,,50,62
347400,note_on,120,0,2,,,,,,,,,1,,,57,0
347400,note_on,0,0,2,,,,,,,,,1,,,62,49
347520,note_on,120,0,2,,,,,,,,,1,,,62,0
347520,note_on,0,0,2,,,,,,,,,1,,,66,49
347640,note_on,120,0,2,,,,,,,,,1,,,66,0
347640,note_on,0,0,2,,,,,,,,,1,,,62,49
347760,note_on,0,0,1,,,,,,,,,0,,,81,75
347760,note_on,120,0,2,,,,,,,,,1,,,62,0
347760,note_on,0,0,2,,,,,,,,,1,,,57,49
347760,control_change,0,0,1,,,,,,,,,0,64,0,,
347760,note_on,480,0,1,,,,,,,,,0,,,86,0
347880,note_on,120,0,2,,,,,,,,,1,,,57,0
347880,note_on,0,0,2,,,,,,,,,1,,,62,49
348000,note_on,0,0,2,,,,,,,,,1,,,66,49
348000,note_on,120,0,2,,,,,,,,,1,,,62,0
348000,note_on,240,0,1,,,,,,,,,0,,,81,0
348120,note_on,120,0,2,,,,,,,,,1,,,66,0
348120,note_on,0,0,2,,,,,,,,,1,,,62,49
348180,note_on,900,0,3,,,,,,,,,2,,,78,75
348240,note_on,60,0,3,,,,,,,,,2,,,78,0
348240,note_on,0,0,3,,,,,,,,,2,,,76,75
348240,control_change,0,0,3,,,,,,,,,2,64,127,,
348240,note_on,240,0,1,,,,,,,,,0,,,95,75
348240,note_on,0,0,2,,,,,,,,,1,,,57,49
348240,note_on,120,0,2,,,,,,,,,1,,,62,0
348240,note_on,0,0,3,,,,,,,,,2,,,78,0
348360,note_on,0,0,3,,,,,,,,,2,,,75,75
348360,note_on,120,0,3,,,,,,,,,2,,,76,0
348360,note_on,0,0,2,,,,,,,,,1,,,61,49
348360,note_on,120,0,2,,,,,,,,,1,,,57,0
348480,note_on,0,0,3,,,,,,,,,2,,,76,75
348480,note_on,120,0,3,,,,,,,,,2,,,75,0
348480,note_on,120,0,2,,,,,,,,,1,,,61,0
348480,note_on,0,0,2,,,,,,,,,1,,,67,49
348600,note_on,0,0,3,,,,,,,,,2,,,78,75
348600,note_on,120,0,3,,,,,,,,,2,,,76,0
348600,note_on,0,0,2,,,,,,,,,1,,,61,49
348600,note_on,120,0,2,,,,,,,,,1,,,67,0
348600,note_on,0,0,1,,,,,,,,,0,,,93,75
348600,note_on,360,0,1,,,,,,,,,0,,,95,0
348720,note_on,0,0,4,,,,,,,,,3,,,38,0
348720,note_on,0,0,4,,,,,,,,,3,,,38,62
348720,note_on,0,0,4,,,,,,,,,3,,,50,62
348720,note_on,0,0,3,,,,,,,,,2,,,74,101
348720,note_on,1440,0,4,,,,,,,,,3,,,50,0
348720,note_on,120,0,3,,,,,,,,,2,,,78,0
348720,note_on,0,0,2,,,,,,,,,1,,,57,49
348720,note_on,120,0,1,,,,,,,,,0,,,93,0
348720,note_on,0,0,1,,,,,,,,,0,,,90,75
348720,note_on,120,0,2,,,,,,,,,1,,,61,0
348840,note_on,120,0,2,,,,,,,,,1,,,57,0
348840,note_on,0,0,2,,,,,,,,,1,,,62,49
348960,note_on,120,0,2,,,,,,,,,1,,,62,0
348960,note_on,0,0,2,,,,,,,,,1,,,66,49
349080,note_on,120,0,2,,,,,,,,,1,,,66,0
349080,note_on,0,0,2,,,,,,,,,1,,,62,49
349200,note_on,0,0,2,,,,,,,,,1,,,57,49
349200,note_on,0,0,3,,,,,,,,,2,,,69,75
349200,control_change,0,0,3,,,,,,,,,2,64,0,,
349200,note_on,480,0,3,,,,,,,,,2,,,74,0
349200,note_on,120,0,2,,,,,,,,,1,,,62,0
349320,note_on,120,0,2,,,,,,,,,1,,,57,0
349320,note_on,0,0,2,,,,,,,,,1,,,62,49
349440,note_on,120,0,2,,,,,,,,,1,,,62,0
349440,note_on,0,0,2,,,,,,,,,1,,,66,49
349440,note_on,240,0,3,,,,,,,,,2,,,69,0
349560,note_on,120,0,2,,,,,,,,,1,,,66,0
349560,note_on,0,0,2,,,,,,,,,1,,,62,49
349620,note_on,900,0,1,,,,,,,,,0,,,90,75
349680,note_on,120,0,2,,,,,,,,,1,,,62,0
349680,note_on,0,0,2,,,,,,,,,1,,,57,49
349680,control_change,0,0,1,,,,,,,,,0,64,127,,
349680,note_on,0,0,1,,,,,,,,,0,,,88,75
349680,note_on,0,0,1,,,,,,,,,0,,,90,0
349680,note_on,60,0,1,,,,,,,,,0,,,90,0
349680,note_on,240,0,3,,,,,,,,,2,,,83,75
349800,note_on,120,0,2,,,,,,,,,1,,,57,0
349800,note_on,0,0,2,,,,,,,,,1,,,61,49
349800,note_on,0,0,1,,,,,,,,,0,,,87,75
349800,note_on,120,0,1,,,,,,,,,0,,,88,0
349920,note_on,0,0,1,,,,,,,,,0,,,88,75
349920,note_on,120,0,2,,,,,,,,,1,,,61,0
349920,note_on,0,0,2,,,,,,,,,1,,,67,49
349920,note_on,120,0,1,,,,,,,,,0,,,87,0
350040,note_on,0,0,2,,,,,,,,,1,,,61,49
350040,note_on,360,0,3,,,,,,,,,2,,,83,0
350040,note_on,120,0,1,,,,,,,,,0,,,88,0
350040,note_on,0,0,1,,,,,,,,,0,,,90,75
350040,note_on,0,0,3,,,,,,,,,2,,,81,75
350040,note_on,120,0,2,,,,,,,,,1,,,67,0
350160,note_on,0,0,4,,,,,,,,,3,,,38,0
350160,note_on,0,0,4,,,,,,,,,3,,,38,62
350160,note_on,0,0,4,,,,,,,,,3,,,50,62
350160,note_on,0,0,2,,,,,,,,,1,,,57,49
350160,note_on,120,0,1,,,,,,,,,0,,,90,0
350160,note_on,0,0,1,,,,,,,,,0,,,86,75
350160,note_on,1440,0,4,,,,,,,,,3,,,50,0
350160,note_on,120,0,2,,,,,,,,,1,,,61,0
350160,note_on,0,0,3,,,,,,,,,2,,,78,75
350160,note_on,120,0,3,,,,,,,,,2,,,81,0
350280,note_on,120,0,2,,,,,,,,,1,,,57,0
350280,note_on,0,0,2,,,,,,,,,1,,,62,49
350400,note_on,120,0,2,,,,,,,,,1,,,62,0
350400,note_on,0,0,2,,,,,,,,,1,,,66,49
350520,note_on,120,0,2,,,,,,,,,1,,,66,0
350520,note_on,0,0,2,,,,,,,,,1,,,62,49
350640,note_on,120,0,2,,,,,,,,,1,,,62,0
350640,note_on,0,0,2,,,,,,,,,1,,,57,49
350760,note_on,120,0,2,,,,,,,,,1,,,57,0
350760,note_on,0,0,2,,,,,,,,,1,,,62,49
350880,note_on,120,0,2,,,,,,,,,1,,,62,0
350880,note_on,0,0,2,,,,,,,,,1,,,66,49
351000,note_on,120,0,2,,,,,,,,,1,,,66,0
351000,note_on,0,0,2,,,,,,,,,1,,,62,49
351060,note_on,900,0,3,,,,,,,,,2,,,78,75
351120,note_on,120,0,2,,,,,,,,,1,,,62,0
351120,note_on,0,0,3,,,,,,,,,2,,,76,75
351120,note_on,0,0,2,,,,,,,,,1,,,57,49
351120,note_on,0,0,3,,,,,,,,,2,,,78,0
351120,note_on,0,0,1,,,,,,,,,0,,,83,75
351120,control_change,0,0,3,,,,,,,,,2,64,127,,
351120,note_on,960,0,1,,,,,,,,,0,,,86,0
351120,note_on,60,0,3,,,,,,,,,2,,,78,0
351240,note_on,120,0,3,,,,,,,,,2,,,76,0
351240,note_on,120,0,2,,,,,,,,,1,,,57,0
351240,note_on,0,0,3,,,,,,,,,2,,,75,75
351240,note_on,0,0,2,,,,,,,,,1,,,61,49
351360,note_on,120,0,2,,,,,,,,,1,,,61,0
351360,note_on,0,0,3,,,,,,,,,2,,,76,75
351360,note_on,120,0,3,,,,,,,,,2,,,75,0
351360,note_on,0,0,2,,,,,,,,,1,,,67,49
351480,note_on,0,0,3,,,,,,,,,2,,,69,75
351480,note_on,120,0,3,,,,,,,,,2,,,76,0
351480,note_on,360,0,1,,,,,,,,,0,,,83,0
351480,note_on,0,0,1,,,,,,,,,0,,,81,75
351480,note_on,120,0,2,,,,,,,,,1,,,67,0
351480,note_on,0,0,2,,,,,,,,,1,,,61,49
351600,note_on,120,0,2,,,,,,,,,1,,,61,0
351600,note_on,0,0,2,,,,,,,,,1,,,57,49
351600,note_on,0,0,4,,,,,,,,,3,,,50,62
351600,note_on,0,0,4,,,,,,,,,3,,,38,62
351600,note_on,0,0,4,,,,,,,,,3,,,38,0
351600,note_on,1440,0,4,,,,,,,,,3,,,50,0
351600,note_on,0,0,3,,,,,,,,,2,,,74,75
351600,note_on,120,0,3,,,,,,,,,2,,,69,0
351600,note_on,120,0,1,,,,,,,,,0,,,81,0
351600,note_on,0,0,1,,,,,,,,,0,,,78,75
351720,note_on,120,0,2,,,,,,,,,1,,,57,0
351720,note_on,0,0,2,,,,,,,,,1,,,62,49
351840,note_on,120,0,2,,,,,,,,,1,,,62,0
351840,note_on,0,0,2,,,,,,,,,1,,,66,49
351960,note_on,120,0,2,,,,,,,,,1,,,66,0
351960,note_on,0,0,2,,,,,,,,,1,,,62,49
352080,note_on,0,0,2,,,,,,,,,1,,,57,49
352080,note_on,120,0,2,,,,,,,,,1,,,62,0
352080,note_on,480,0,3,,,,,,,,,2,,,74,0
352080,control_change,0,0,3,,,,,,,,,2,64,0,,
352080,note_on,0,0,3,,,,,,,,,2,,,69,75
352200,note_on,120,0,2,,,,,,,,,1,,,57,0
352200,note_on,0,0,2,,,,,,,,,1,,,62,49
352320,note_on,0,0,2,,,,,,,,,1,,,66,49
352320,note_on,240,0,3,,,,,,,,,2,,,69,0
352320,note_on,120,0,2,,,,,,,,,1,,,62,0
352440,note_on,0,0,2,,,,,,,,,1,,,62,49
352440,note_on,120,0,2,,,,,,,,,1,,,66,0
352500,note_on,180,0,3,,,,,,,,,2,,,78,75
352560,note_on,120,0,2,,,,,,,,,1,,,62,0
352560,note_on,960,0,1,,,,,,,,,0,,,78,0
352560,note_on,0,0,1,,,,,,,,,0,,,83,75
352560,note_on,0,0,3,,,,,,,,,2,,,76,75
352560,control_change,0,0,3,,,,,,,,,2,64,127,,
352560,note_on,60,0,3,,,,,,,,,2,,,78,0
352560,note_on,0,0,2,,,,,,,,,1,,,57,49
352680,note_on,120,0,2,,,,,,,,,1,,,57,0
352680,note_on,0,0,2,,,,,,,,,1,,,61,49
352680,note_on,0,0,3,,,,,,,,,2,,,75,75
352680,note_on,120,0,3,,,,,,,,,2,,,76,0
352800,note_on,0,0,3,,,,,,,,,2,,,76,75
352800,note_on,120,0,3,,,,,,,,,2,,,75,0
352800,note_on,0,0,2,,,,,,,,,1,,,67,49
352800,note_on,120,0,2,,,,,,,,,1,,,61,0
352920,note_on,0,0,2,,,,,,,,,1,,,61,49
352920,note_on,0,0,1,,,,,,,,,0,,,81,75
352920,note_on,120,0,3,,,,,,,,,2,,,76,0
352920,note_on,0,0,3,,,,,,,,,2,,,69,75
352920,note_on,120,0,2,,,,,,,,,1,,,67,0
352920,note_on,360,0,1,,,,,,,,,0,,,83,0
353040,note_on,0,0,4,,,,,,,,,3,,,38,62
353040,note_on,0,0,4,,,,,,,,,3,,,38,0
353040,note_on,1440,0,4,,,,,,,,,3,,,50,0
353040,note_on,120,0,3,,,,,,,,,2,,,69,0
353040,note_on,0,0,3,,,,,,,,,2,,,74,75
353040,note_on,0,0,1,,,,,,,,,0,,,78,75
353040,note_on,120,0,1,,,,,,,,,0,,,81,0
353040,note_on,0,0,4,,,,,,,,,3,,,50,62
353040,note_on,120,0,2,,,,,,,,,1,,,61,0
353040,note_on,0,0,2,,,,,,,,,1,,,57,49
353160,note_on,0,0,2,,,,,,,,,1,,,62,49
353160,note_on,120,0,2,,,,,,,,,1,,,57,0
353280,note_on,120,0,2,,,,,,,,,1,,,62,0
353280,note_on,0,0,2,,,,,,,,,1,,,66,49
353400,note_on,120,0,2,,,,,,,,,1,,,66,0
353400,note_on,0,0,2,,,,,,,,,1,,,62,49
353520,note_on,0,0,2,,,,,,,,,1,,,57,49
353520,note_on,120,0,2,,,,,,,,,1,,,62,0
353520,note_on,0,0,3,,,,,,,,,2,,,69,75
353520,note_on,480,0,3,,,,,,,,,2,,,74,0
353520,control_change,0,0,3,,,,,,,,,2,64,0,,
353640,note_on,120,0,2,,,,,,,,,1,,,57,0
353640,note_on,0,0,2,,,,,,,,,1,,,62,49
353760,note_on,240,0,3,,,,,,,,,2,,,69,0
353760,note_on,120,0,2,,,,,,,,,1,,,62,0
353760,note_on,0,0,2,,,,,,,,,1,,,66,49
353880,note_on,0,0,2,,,,,,,,,1,,,62,49
353880,note_on,120,0,2,,,,,,,,,1,,,66,0
353940,note_on,180,0,3,,,,,,,,,2,,,78,75
354000,note_on,0,0,2,,,,,,,,,1,,,57,49
354000,note_on,0,0,3,,,,,,,,,2,,,76,75
354000,note_on,60,0,3,,,,,,,,,2,,,78,0
354000,control_change,0,0,3,,,,,,,,,2,64,127,,
354000,note_on,120,0,2,,,,,,,,,1,,,62,0
354000,note_on,960,0,1,,,,,,,,,0,,,78,0
354000,note_on,0,0,1,,,,,,,,,0,,,83,75
354000,set_tempo,62880,1,0,,,,,,750000,,,,,,,
354120,note_on,120,0,3,,,,,,,,,2,,,76,0
354120,note_on,120,0,2,,,,,,,,,1,,,57,0
354120,note_on,0,0,2,,,,,,,,,1,,,61,49
354120,note_on,0,0,3,,,,,,,,,2,,,75,75
354240,note_on,120,0,3,,,,,,,,,2,,,75,0
354240,note_on,0,0,3,,,,,,,,,2,,,76,75
354240,note_on,120,0,2,,,,,,,,,1,,,61,0
354240,note_on,0,0,2,,,,,,,,,1,,,67,49
354360,note_on,120,0,3,,,,,,,,,2,,,76,0
354360,note_on,120,0,2,,,,,,,,,1,,,67,0
354360,note_on,0,0,2,,,,,,,,,1,,,61,49
354360,note_on,0,0,1,,,,,,,,,0,,,81,75
354360,note_on,360,0,1,,,,,,,,,0,,,83,0
354360,note_on,0,0,3,,,,,,,,,2,,,69,75
354360,control_change,0,0,3,,,,,,,,,2,64,0,,
354480,note_on,120,0,3,,,,,,,,,2,,,69,0
354480,note_on,0,0,2,,,,,,,,,1,,,62,49
354480,note_on,0,0,3,,,,,,,,,2,,,74,75
354480,note_on,0,0,2,,,,,,,,,1,,,57,49
354480,note_on,120,0,2,,,,,,,,,1,,,61,0
354480,note_on,0,0,1,,,,,,,,,0,,,78,75
354480,note_on,120,0,1,,,,,,,,,0,,,81,0
354480,set_tempo,480,1,0,,,,,,600000,,,,,,,
354480,note_on,1440,0,4,,,,,,,,,3,,,50,0
354480,note_on,0,0,4,,,,,,,,,3,,,38,0
354480,note_on,0,0,4,,,,,,,,,3,,,38,62
354480,note_on,0,0,4,,,,,,,,,3,,,50,62
354480,note_on,0,0,2,,,,,,,,,1,,,66,49
354503,note_on,23,0,3,,,,,,,,,2,,,74,0
354503,note_on,23,0,4,,,,,,,,,3,,,50,0
354503,note_on,0,0,4,,,,,,,,,3,,,38,0
354720,note_on,0,0,2,,,,,,,,,1,,,64,101
354720,note_on,0,0,2,,,,,,,,,1,,,61,101
354720,note_on,0,0,2,,,,,,,,,1,,,57,101
354720,note_on,0,0,2,,,,,,,,,1,,,57,0
354720,note_on,0,0,2,,,,,,,,,1,,,62,0
354720,note_on,240,0,2,,,,,,,,,1,,,66,0
354720,note_on,0,0,1,,,,,,,,,0,,,88,101
354720,note_on,0,0,1,,,,,,,,,0,,,85,101
354720,note_on,0,0,1,,,,,,,,,0,,,81,101
354720,note_on,0,0,3,,,,,,,,,2,,,76,101
354720,note_on,217,0,4,,,,,,,,,3,,,33,101
354720,note_on,0,0,4,,,,,,,,,3,,,45,101
354720,note_on,0,0,3,,,,,,,,,2,,,73,101
354720,note_on,217,0,3,,,,,,,,,2,,,69,101
354720,note_on,240,0,1,,,,,,,,,0,,,78,0
354743,note_on,23,0,2,,,,,,,,,1,,,64,0
354743,note_on,23,0,3,,,,,,,,,2,,,76,0
354743,note_on,0,0,3,,,,,,,,,2,,,73,0
354743,note_on,0,0,3,,,,,,,,,2,,,69,0
354743,note_on,23,0,4,,,,,,,,,3,,,45,0
354743,note_on,0,0,4,,,,,,,,,3,,,33,0
354743,note_on,0,0,1,,,,,,,,,0,,,81,0
354743,note_on,0,0,1,,,,,,,,,0,,,85,0
354743,note_on,0,0,2,,,,,,,,,1,,,57,0
354743,note_on,23,0,1,,,,,,,,,0,,,88,0
354743,note_on,0,0,2,,,,,,,,,1,,,61,0
354960,note_on,0,0,1,,,,,,,,,0,,,86,101
354960,note_on,217,0,1,,,,,,,,,0,,,81,101
354960,note_on,0,0,1,,,,,,,,,0,,,90,101
354960,note_on,0,0,2,,,,,,,,,1,,,66,101
354960,note_on,0,0,2,,,,,,,,,1,,,62,101
354960,note_on,217,0,3,,,,,,,,,2,,,69,101
354960,note_on,0,0,3,,,,,,,,,2,,,74,101
354960,note_on,0,0,3,,,,,,,,,2,,,78,101
354960,note_on,217,0,2,,,,,,,,,1,,,57,101
354960,note_on,217,0,4,,,,,,,,,3,,,38,101
354960,note_on,0,0,4,,,,,,,,,3,,,50,101
354983,note_on,0,0,4,,,,,,,,,3,,,38,0
354983,note_on,23,0,1,,,,,,,,,0,,,90,0
354983,note_on,0,0,1,,,,,,,,,0,,,86,0
354983,note_on,0,0,3,,,,,,,,,2,,,69,0
354983,note_on,0,0,3,,,,,,,,,2,,,74,0
354983,note_on,23,0,3,,,,,,,,,2,,,78,0
354983,note_on,0,0,2,,,,,,,,,1,,,57,0
354983,note_on,0,0,2,,,,,,,,,1,,,62,0
354983,note_on,23,0,2,,,,,,,,,1,,,66,0
354983,note_on,23,0,4,,,,,,,,,3,,,50,0
354983,note_on,0,0,1,,,,,,,,,0,,,81,0
355200,note_on,217,0,4,,,,,,,,,3,,,33,101
355200,note_on,0,0,4,,,,,,,,,3,,,45,101
355200,note_on,0,0,1,,,,,,,,,0,,,85,101
355200,note_on,0,0,2,,,,,,,,,1,,,61,101
355200,note_on,0,0,2,,,,,,,,,1,,,64,101
355200,note_on,217,0,1,,,,,,,,,0,,,81,101
355200,note_on,0,0,1,,,,,,,,,0,,,88,101
355200,note_on,0,0,3,,,,,,,,,2,,,73,101
355200,note_on,0,0,3,,,,,,,,,2,,,76,101
355200,note_on,217,0,2,,,,,,,,,1,,,57,101
355200,note_on,217,0,3,,,,,,,,,2,,,69,101
355223,note_on,23,0,3,,,,,,,,,2,,,76,0
355223,note_on,0,0,3,,,,,,,,,2,,,73,0
355223,note_on,0,0,3,,,,,,,,,2,,,69,0
355223,note_on,23,0,4,,,,,,,,,3,,,45,0
355223,note_on,23,0,2,,,,,,,,,1,,,64,0
355223,note_on,0,0,2,,,,,,,,,1,,,57,0
355223,note_on,0,0,2,,,,,,,,,1,,,61,0
355223,note_on,0,0,4,,,,,,,,,3,,,33,0
355223,note_on,0,0,1,,,,,,,,,0,,,85,0
355223,note_on,23,0,1,,,,,,,,,0,,,88,0
355223,note_on,0,0,1,,,,,,,,,0,,,81,0
355440,note_on,217,0,1,,,,,,,,,0,,,81,101
355440,note_on,0,0,3,,,,,,,,,2,,,78,101
355440,note_on,217,0,4,,,,,,,,,3,,,38,101
355440,note_on,0,0,1,,,,,,,,,0,,,90,101
355440,note_on,0,0,3,,,,,,,,,2,,,74,101
355440,note_on,217,0,3,,,,,,,,,2,,,69,101
355440,note_on,0,0,4,,,,,,,,,3,,,50,101
355440,note_on,0,0,2,,,,,,,,,1,,,66,101
355440,note_on,0,0,2,,,,,,,,,1,,,62,101
355440,note_on,217,0,2,,,,,,,,,1,,,57,101
355440,note_on,0,0,1,,,,,,,,,0,,,86,101
355463,note_on,23,0,1,,,,,,,,,0,,,90,0
355463,note_on,0,0,1,,,,,,,,,0,,,86,0
355463,note_on,0,0,1,,,,,,,,,0,,,81,0
355463,note_on,0,0,3,,,,,,,,,2,,,74,0
355463,note_on,23,0,4,,,,,,,,,3,,,50,0
355463,note_on,0,0,4,,,,,,,,,3,,,38,0
355463,note_on,0,0,3,,,,,,,,,2,,,69,0
355463,note_on,23,0,3,,,,,,,,,2,,,78,0
355463,note_on,23,0,2,,,,,,,,,1,,,66,0
355463,note_on,0,0,2,,,,,,,,,1,,,62,0
355463,note_on,0,0,2,,,,,,,,,1,,,57,0
355680,note_on,217,0,1,,,,,,,,,0,,,81,101
355680,note_on,0,0,2,,,,,,,,,1,,,64,101
355680,note_on,0,0,2,,,,,,,,,1,,,61,101
355680,note_on,0,0,3,,,,,,,,,2,,,76,101
355680,note_on,0,0,3,,,,,,,,,2,,,73,101
355680,note_on,217,0,2,,,,,,,,,1,,,57,101
355680,note_on,0,0,1,,,,,,,,,0,,,85,101
355680,note_on,217,0,4,,,,,,,,,3,,,33,101
355680,note_on,0,0,4,,,,,,,,,3,,,45,101
355680,note_on,217,0,3,,,,,,,,,2,,,69,101
355680,note_on,0,0,1,,,,,,,,,0,,,88,101
355703,note_on,23,0,4,,,,,,,,,3,,,45,0
355703,note_on,23,0,2,,,,,,,,,1,,,64,0
355703,note_on,0,0,4,,,,,,,,,3,,,33,0
355703,note_on,23,0,1,,,,,,,,,0,,,88,0
355703,note_on,0,0,3,,,,,,,,,2,,,69,0
355703,note_on,0,0,3,,,,,,,,,2,,,73,0
355703,note_on,23,0,3,,,,,,,,,2,,,76,0
355703,note_on,0,0,2,,,,,,,,,1,,,61,0
355703,note_on,0,0,2,,,,,,,,,1,,,57,0
355703,note_on,0,0,1,,,,,,,,,0,,,85,0
355703,note_on,0,0,1,,,,,,,,,0,,,81,0
355920,note_on,217,0,2,,,,,,,,,1,,,57,101
355920,note_on,217,0,1,,,,,,,,,0,,,81,101
355920,note_on,0,0,1,,,,,,,,,0,,,90,101
355920,note_on,0,0,4,,,,,,,,,3,,,50,101
355920,note_on,217,0,4,,,,,,,,,3,,,38,101
355920,note_on,0,0,1,,,,,,,,,0,,,86,101
355920,note_on,0,0,2,,,,,,,,,1,,,66,101
355920,note_on,0,0,2,,,,,,,,,1,,,62,101
355920,note_on,217,0,3,,,,,,,,,2,,,69,101
355920,note_on,0,0,3,,,,,,,,,2,,,74,101
355920,note_on,0,0,3,,,,,,,,,2,,,78,101
356400,note_on,0,0,1,,,,,,,,,0,,,86,0
356400,note_on,0,0,1,,,,,,,,,0,,,81,0
356400,note_on,480,0,4,,,,,,,,,3,,,50,0
356400,note_on,480,0,1,,,,,,,,,0,,,90,0
356400,note_on,0,0,4,,,,,,,,,3,,,38,0
356400,note_on,0,0,3,,,,,,,,,2,,,69,0
356400,note_on,0,0,3,,,,,,,,,2,,,74,0
356400,note_on,480,0,3,,,,,,,,,2,,,78,0
356400,note_on,0,0,2,,,,,,,,,1,,,57,0
356400,note_on,480,0,2,,,,,,,,,1,,,66,0
356400,note_on,0,0,2,,,,,,,,,1,,,62,0
357360,note_on,0,0,1,,,,,,,,,0,,,93,101
357360,note_on,960,0,4,,,,,,,,,3,,,33,101
357360,note_on,0,0,4,,,,,,,,,3,,,45,101
357360,note_on,0,0,3,,,,,,,,,2,,,76,101
357360,note_on,0,0,3,,,,,,,,,2,,,73,101
357360,note_on,960,0,3,,,,,,,,,2,,,69,101
357360,note_on,960,0,1,,,,,,,,,0,,,81,101
357360,note_on,0,0,1,,,,,,,,,0,,,88,101
357360,note_on,0,0,1,,,,,,,,,0,,,85,101
357360,note_on,960,0,2,,,,,,,,,1,,,57,101
357360,note_on,0,0,2,,,,,,,,,1,,,67,101
357360,note_on,0,0,2,,,,,,,,,1,,,64,101
357360,note_on,0,0,2,,,,,,,,,1,,,61,101
357840,note_on,0,0,3,,,,,,,,,2,,,73,0
357840,note_on,0,0,1,,,,,,,,,0,,,88,0
357840,note_on,480,0,3,,,,,,,,,2,,,76,0
357840,note_on,0,0,1,,,,,,,,,0,,,85,0
357840,note_on,0,0,1,,,,,,,,,0,,,81,0
357840,note_on,480,0,1,,,,,,,,,0,,,93,0
357840,note_on,0,0,3,,,,,,,,,2,,,69,0
357840,note_on,0,0,4,,,,,,,,,3,,,33,0
357840,note_on,480,0,4,,,,,,,,,3,,,45,0
357840,note_on,480,0,2,,,,,,,,,1,,,67,0
357840,note_on,0,0,2,,,,,,,,,1,,,57,0
357840,note_on,0,0,2,,,,,,,,,1,,,64,0
357840,note_on,0,0,2,,,,,,,,,1,,,61,0
358800,note_on,960,0,4,,,,,,,,,3,,,38,101
358800,note_on,0,0,4,,,,,,,,,3,,,45,101
358800,note_on,0,0,4,,,,,,,,,3,,,50,101
358800,note_on,960,0,1,,,,,,,,,0,,,78,101
358800,note_on,960,0,3,,,,,,,,,2,,,66,101
358800,note_on,0,0,1,,,,,,,,,0,,,86,101
358800,note_on,0,0,1,,,,,,,,,0,,,81,101
358800,note_on,0,0,3,,,,,,,,,2,,,74,101
358800,note_on,960,0,2,,,,,,,,,1,,,62,101
358800,note_on,0,0,3,,,,,,,,,2,,,69,101
358920,note_on,120,0,2,,,,,,,,,1,,,62,0
358920,note_on,0,0,2,,,,,,,,,1,,,57,101
359040,note_on,120,0,2,,,,,,,,,1,,,57,0
359040,note_on,0,0,2,,,,,,,,,1,,,54,101
359160,note_on,120,0,2,,,,,,,,,1,,,54,0
359160,note_on,0,0,2,,,,,,,,,1,,,57,101
359280,note_on,0,0,4,,,,,,,,,3,,,50,101
359280,note_on,0,0,4,,,,,,,,,3,,,45,101
359280,note_on,0,0,4,,,,,,,,,3,,,38,101
359280,note_on,0,0,4,,,,,,,,,3,,,38,0
359280,note_on,0,0,4,,,,,,,,,3,,,45,0
359280,note_on,480,0,4,,,,,,,,,3,,,50,0
359280,note_on,0,0,3,,,,,,,,,2,,,69,0
359280,note_on,0,0,2,,,,,,,,,1,,,62,101
359280,note_on,0,0,3,,,,,,,,,2,,,66,101
359280,note_on,0,0,3,,,,,,,,,2,,,66,0
359280,note_on,120,0,2,,,,,,,,,1,,,57,0
359280,note_on,480,0,3,,,,,,,,,2,,,74,0
359280,note_on,0,0,3,,,,,,,,,2,,,69,101
359280,note_on,0,0,1,,,,,,,,,0,,,86,101
359280,note_on,0,0,3,,,,,,,,,2,,,74,101
359280,note_on,480,0,1,,,,,,,,,0,,,86,0
359280,note_on,0,0,1,,,,,,,,,0,,,81,101
359280,note_on,0,0,1,,,,,,,,,0,,,81,0
359280,note_on,0,0,1,,,,,,,,,0,,,78,0
359280,note_on,0,0,1,,,,,,,,,0,,,78,101
359400,note_on,0,0,2,,,,,,,,,1,,,57,101
359400,note_on,120,0,2,,,,,,,,,1,,,62,0
359520,note_on,0,0,2,,,,,,,,,1,,,54,101
359520,note_on,120,0,2,,,,,,,,,1,,,57,0
359640,note_on,0,0,2,,,,,,,,,1,,,57,101
359640,note_on,120,0,2,,,,,,,,,1,,,54,0
359760,note_on,480,0,1,,,,,,,,,0,,,86,0
359760,set_tempo,5280,1,0,,,,,,750000,,,,,,,
359760,note_on,0,0,2,,,,,,,,,1,,,62,101
359760,note_on,120,0,2,,,,,,,,,1,,,57,0
359760,note_on,480,0,4,,,,,,,,,3,,,50,0
359760,note_on,480,0,3,,,,,,,,,2,,,74,0
359760,note_on,0,0,4,,,,,,,,,3,,,38,101
359760,note_on,0,0,1,,,,,,,,,0,,,81,0
359760,note_on,0,0,1,,,,,,,,,0,,,78,0
359760,note_on,0,0,4,,,,,,,,,3,,,38,0
359760,note_on,0,0,1,,,,,,,,,0,,,81,101
359760,note_on,0,0,1,,,,,,,,,0,,,86,101
359760,note_on,0,0,3,,,,,,,,,2,,,74,101
359760,note_on,0,0,1,,,,,,,,,0,,,78,101
359760,note_on,0,0,3,,,,,,,,,2,,,66,101
359760,note_on,0,0,3,,,,,,,,,2,,,66,0
359760,note_on,0,0,3,,,,,,,,,2,,,69,0
359760,note_on,0,0,4,,,,,,,,,3,,,50,101
359760,note_on,0,0,4,,,,,,,,,3,,,45,101
359760,note_on,0,0,3,,,,,,,,,2,,,69,101
359760,note_on,0,0,4,,,,,,,,,3,,,45,0
359880,note_on,120,0,2,,,,,,,,,1,,,62,0
359880,note_on,0,0,2,,,,,,,,,1,,,57,101
360000,note_on,120,0,2,,,,,,,,,1,,,57,0
360000,note_on,0,0,2,,,,,,,,,1,,,54,101
360120,note_on,120,0,2,,,,,,,,,1,,,54,0
360120,note_on,0,0,2,,,,,,,,,1,,,57,101
360240,note_on,480,0,3,,,,,,,,,2,,,74,0
360240,time_signature,480,1,0,6,4,24,8,,,,,,,,,
360240,note_on,480,0,4,,,,,,,,,3,,,50,0
360240,note_on,0,0,4,,,,,,,,,3,,,45,0
360240,note_on,0,0,4,,,,,,,,,3,,,38,0
360240,note_on,0,0,4,,,,,,,,,3,,,38,101
360240,note_on,0,0,4,,,,,,,,,3,,,45,101
360240,note_on,0,0,4,,,,,,,,,3,,,50,101
360240,note_on,0,0,3,,,,,,,,,2,,,69,0
360240,note_on,0,0,3,,,,,,,,,2,,,66,0
360240,note_on,120,0,2,,,,,,,,,1,,,57,0
360240,note_on,0,0,3,,,,,,,,,2,,,69,101
360240,note_on,0,0,3,,,,,,,,,2,,,74,101
360240,end_of_track,0,1,0,,,,,,,,,,,,,
360240,note_on,480,0,1,,,,,,,,,0,,,86,0
360240,note_on,0,0,1,,,,,,,,,0,,,81,0
360240,note_on,0,0,1,,,,,,,,,0,,,78,0
360240,note_on,0,0,1,,,,,,,,,0,,,78,101
360240,note_on,0,0,1,,,,,,,,,0,,,81,101
360240,note_on,0,0,2,,,,,,,,,1,,,62,101
360240,note_on,0,0,2,,,,,,,,,1,,,57,101
360240,note_on,0,0,2,,,,,,,,,1,,,54,101
360240,note_on,0,0,1,,,,,,,,,0,,,86,101
360240,note_on,0,0,3,,,,,,,,,2,,,66,101
363120,note_on,0,0,4,,,,,,,,,3,,,45,0
363120,note_on,2880,0,4,,,,,,,,,3,,,50,0
363120,note_on,2880,0,1,,,,,,,,,0,,,86,0
363120,end_of_track,0,1,1,,,,,,,,,,,,,
363120,note_on,0,0,1,,,,,,,,,0,,,78,0
363120,note_on,0,0,4,,,,,,,,,3,,,38,0
363120,note_on,2880,0,2,,,,,,,,,1,,,62,0
363120,note_on,0,0,2,,,,,,,,,1,,,57,0
363120,note_on,0,0,2,,,,,,,,,1,,,54,0
363120,end_of_track,0,1,2,,,,,,,,,,,,,
363120,end_of_track,0,1,3,,,,,,,,,,,,,
363120,note_on,0,0,3,,,,,,,,,2,,,66,0
363120,note_on,0,0,3,,,,,,,,,2,,,69,0
363120,note_on,2880,0,3,,,,,,,,,2,,,74,0
363120,note_on,0,0,1,,,,,,,,,0,,,81,0
363120,end_of_track,0,1,4,,,,,,,,,,,,,
