tick,type,time,meta,track,numerator,denominator,clocks_per_click,notated_32nd_notes_per_beat,key,tempo,port,program,channel,control,value,note,velocity
0,track_name,0,1,0,,,,,,,,,,,,,
0,track_name,0,1,2,,,,,,,,,,,,,
0,program_change,0,0,2,,,,,,,,0,1,,,,
0,control_change,0,0,2,,,,,,,,,1,7,127,,
0,control_change,0,0,2,,,,,,,,,1,10,97,,
0,note_on,0,0,1,,,,,,,,,0,,,57,88
0,control_change,0,0,1,,,,,,,,,0,64,127,,
0,control_change,0,0,1,,,,,,,,,0,10,97,,
0,control_change,0,0,1,,,,,,,,,0,7,127,,
0,program_change,0,0,1,,,,,,,,0,0,,,,
0,track_name,0,1,1,,,,,,,,,,,,,
0,midi_port,0,1,3,,,,,,,0,,,,,,
0,track_name,0,1,3,,,,,,,,,,,,,
0,program_change,0,0,3,,,,,,,,0,2,,,,
0,control_change,0,0,3,,,,,,,,,2,7,127,,
0,control_change,0,0,3,,,,,,,,,2,10,30,,
0,control_change,0,0,3,,,,,,,,,2,64,127,,
0,note_on,0,0,3,,,,,,,,,2,,,45,75
0,midi_port,0,1,2,,,,,,,0,,,,,,
0,midi_port,0,1,4,,,,,,,0,,,,,,
0,midi_port,0,1,1,,,,,,,0,,,,,,
0,program_change,0,0,4,,,,,,,,0,3,,,,
0,track_name,0,1,4,,,,,,,,,,,,,
0,set_tempo,0,1,0,,,,,,454545,,,,,,,
0,key_signature,0,1,0,,,,,C,,,,,,,,
0,time_signature,0,1,0,3,8,12,8,,,,,,,,,
0,text,0,1,0,,,,,,,,,,,,,
0,copyright,0,1,0,,,,,,,,,,,,,
0,control_change,0,0,4,,,,,,,,,3,10,30,,
0,control_change,0,0,4,,,,,,,,,3,7,127,,
90,note_on,0,0,3,,,,,,,,,2,,,47,75
90,note_on,90,0,3,,,,,,,,,2,,,45,0
90,note_on,90,0,1,,,,,,,,,0,,,57,0
90,note_on,0,0,1,,,,,,,,,0,,,59,88
120,note_on,30,0,1,,,,,,,,,0,,,59,0
120,note_on,0,0,3,,,,,,,,,2,,,48,75
120,note_on,0,0,1,,,,,,,,,0,,,60,88
120,note_on,30,0,3,,,,,,,,,2,,,47,0
150,note_on,30,0,3,,,,,,,,,2,,,48,0
150,note_on,0,0,3,,,,,,,,,2,,,50,75
150,note_on,30,0,1,,,,,,,,,0,,,60,0
150,note_on,0,0,1,,,,,,,,,0,,,62,88
180,note_on,30,0,3,,,,,,,,,2,,,50,0
180,note_on,0,0,3,,,,,,,,,2,,,52,75
180,note_on,0,0,1,,,,,,,,,0,,,64,88
180,note_on,30,0,1,,,,,,,,,0,,,62,0
300,note_on,120,0,1,,,,,,,,,0,,,64,0
300,note_on,0,0,3,,,,,,,,,2,,,54,75
300,note_on,0,0,1,,,,,,,,,0,,,66,88
300,note_on,120,0,3,,,,,,,,,2,,,52,0
330,note_on,0,0,3,,,,,,,,,2,,,56,75
330,note_on,30,0,1,,,,,,,,,0,,,66,0
330,control_change,0,0,1,,,,,,,,,0,64,0,,
330,note_on,0,0,1,,,,,,,,,0,,,68,88
330,note_on,30,0,3,,,,,,,,,2,,,54,0
330,control_change,0,0,3,,,,,,,,,2,64,0,,
360,note_on,30,0,3,,,,,,,,,2,,,56,0
360,control_change,0,0,3,,,,,,,,,2,64,127,,
360,note_on,0,0,3,,,,,,,,,2,,,57,75
360,note_on,0,0,1,,,,,,,,,0,,,69,88
360,control_change,0,0,1,,,,,,,,,0,64,127,,
360,note_on,30,0,1,,,,,,,,,0,,,68,0
420,note_on,60,0,3,,,,,,,,,2,,,57,0
420,note_on,0,0,1,,,,,,,,,0,,,71,88
420,note_on,0,0,3,,,,,,,,,2,,,59,75
420,note_on,60,0,1,,,,,,,,,0,,,69,0
450,note_on,0,0,3,,,,,,,,,2,,,60,75
450,note_on,30,0,3,,,,,,,,,2,,,59,0
450,note_on,0,0,1,,,,,,,,,0,,,72,88
450,note_on,30,0,1,,,,,,,,,0,,,71,0
480,note_on,0,0,1,,,,,,,,,0,,,74,88
480,note_on,30,0,1,,,,,,,,,0,,,72,0
480,note_on,30,0,3,,,,,,,,,2,,,60,0
480,note_on,0,0,3,,,,,,,,,2,,,62,75
510,note_on,0,0,1,,,,,,,,,0,,,76,88
510,note_on,30,0,1,,,,,,,,,0,,,74,0
510,control_change,0,0,1,,,,,,,,,0,64,0,,
510,note_on,30,0,3,,,,,,,,,2,,,62,0
510,control_change,0,0,3,,,,,,,,,2,64,0,,
510,note_on,0,0,3,,,,,,,,,2,,,64,75
540,note_on,0,0,1,,,,,,,,,0,,,77,88
540,note_on,30,0,1,,,,,,,,,0,,,76,0
540,note_on,30,0,3,,,,,,,,,2,,,64,0
540,time_signature,540,1,0,6,8,12,8,,,,,,,,,
540,note_on,0,0,3,,,,,,,,,2,,,65,75
720,note_on,180,0,3,,,,,,,,,2,,,65,0
720,note_on,180,0,1,,,,,,,,,0,,,77,0
900,note_on,180,0,3,,,,,,,,,2,,,48,36
900,note_on,0,0,3,,,,,,,,,2,,,57,36
900,note_on,180,0,1,,,,,,,,,0,,,64,49
900,time_signature,360,1,0,3,8,12,8,,,,,,,,,
900,note_on,0,0,1,,,,,,,,,0,,,76,49
1080,note_on,180,0,1,,,,,,,,,0,,,76,0
1080,note_on,0,0,1,,,,,,,,,0,,,64,0
1080,note_on,0,0,1,,,,,,,,,0,,,69,49
1080,note_on,0,0,1,,,,,,,,,0,,,63,49
1080,note_on,0,0,3,,,,,,,,,2,,,48,0
1080,note_on,180,0,3,,,,,,,,,2,,,57,0
1080,note_on,0,0,3,,,,,,,,,2,,,60,36
1080,note_on,0,0,3,,,,,,,,,2,,,53,36
1245,note_on,165,0,1,,,,,,,,,0,,,71,49
1260,control_change,0,0,1,,,,,,,,,0,64,127,,
1260,note_on,15,0,1,,,,,,,,,0,,,71,0
1260,note_on,0,0,1,,,,,,,,,0,,,69,0
1260,note_on,0,0,3,,,,,,,,,2,,,53,0
1260,note_on,0,0,3,,,,,,,,,2,,,60,36
1260,note_on,0,0,3,,,,,,,,,2,,,52,36
1260,note_on,0,0,1,,,,,,,,,0,,,63,0
1260,note_on,180,0,3,,,,,,,,,2,,,60,0
1260,note_on,1260,0,2,,,,,,,,,1,,,64,64
1260,note_on,0,0,1,,,,,,,,,0,,,69,49
1320,note_on,0,0,1,,,,,,,,,0,,,68,49
1320,note_on,60,0,1,,,,,,,,,0,,,69,0
1380,note_on,60,0,1,,,,,,,,,0,,,68,0
1380,control_change,0,0,1,,,,,,,,,0,64,0,,
1380,note_on,0,0,1,,,,,,,,,0,,,69,49
1440,note_on,60,0,1,,,,,,,,,0,,,69,0
1440,note_on,0,0,1,,,,,,,,,0,,,72,49
1440,note_on,180,0,3,,,,,,,,,2,,,60,0
1440,note_on,180,0,2,,,,,,,,,1,,,64,0
1440,note_on,0,0,2,,,,,,,,,1,,,68,64
1440,note_on,0,0,3,,,,,,,,,2,,,62,36
1560,note_on,120,0,1,,,,,,,,,0,,,72,0
1560,note_on,0,0,1,,,,,,,,,0,,,71,49
1620,note_on,180,0,3,,,,,,,,,2,,,62,0
1620,note_on,0,0,3,,,,,,,,,2,,,52,0
1620,note_on,180,0,2,,,,,,,,,1,,,68,0
1620,note_on,60,0,1,,,,,,,,,0,,,71,0
1620,time_signature,720,1,0,6,8,12,8,,,,,,,,,
1980,time_signature,360,1,0,3,8,12,8,,,,,,,,,
1980,note_on,0,0,3,,,,,,,,,2,,,45,75
1980,control_change,360,0,1,,,,,,,,,0,64,127,,
1980,note_on,0,0,1,,,,,,,,,0,,,57,88
1980,control_change,360,0,3,,,,,,,,,2,64,127,,
2070,note_on,0,0,1,,,,,,,,,0,,,59,88
2070,note_on,0,0,3,,,,,,,,,2,,,47,75
2070,note_on,90,0,1,,,,,,,,,0,,,57,0
2070,note_on,90,0,3,,,,,,,,,2,,,45,0
2100,note_on,0,0,3,,,,,,,,,2,,,48,75
2100,note_on,30,0,3,,,,,,,,,2,,,47,0
2100,note_on,30,0,1,,,,,,,,,0,,,59,0
2100,note_on,0,0,1,,,,,,,,,0,,,60,88
2130,note_on,30,0,1,,,,,,,,,0,,,60,0
2130,note_on,30,0,3,,,,,,,,,2,,,48,0
2130,note_on,0,0,3,,,,,,,,,2,,,50,75
2130,note_on,0,0,1,,,,,,,,,0,,,62,88
2160,note_on,30,0,3,,,,,,,,,2,,,50,0
2160,note_on,0,0,3,,,,,,,,,2,,,52,75
2160,note_on,0,0,1,,,,,,,,,0,,,64,88
2160,note_on,30,0,1,,,,,,,,,0,,,62,0
2280,note_on,0,0,3,,,,,,,,,2,,,54,75
2280,note_on,120,0,1,,,,,,,,,0,,,64,0
2280,note_on,120,0,3,,,,,,,,,2,,,52,0
2280,note_on,0,0,1,,,,,,,,,0,,,66,88
2310,note_on,30,0,3,,,,,,,,,2,,,54,0
2310,control_change,0,0,3,,,,,,,,,2,64,0,,
2310,note_on,0,0,3,,,,,,,,,2,,,56,75
2310,note_on,0,0,1,,,,,,,,,0,,,68,88
2310,control_change,0,0,1,,,,,,,,,0,64,0,,
2310,note_on,30,0,1,,,,,,,,,0,,,66,0
2340,note_on,0,0,3,,,,,,,,,2,,,57,75
2340,control_change,0,0,3,,,,,,,,,2,64,127,,
2340,note_on,30,0,3,,,,,,,,,2,,,56,0
2340,control_change,0,0,1,,,,,,,,,0,64,127,,
2340,note_on,0,0,1,,,,,,,,,0,,,69,88
2340,note_on,30,0,1,,,,,,,,,0,,,68,0
2400,note_on,0,0,3,,,,,,,,,2,,,59,75
2400,note_on,60,0,3,,,,,,,,,2,,,57,0
2400,note_on,60,0,1,,,,,,,,,0,,,69,0
2400,note_on,0,0,1,,,,,,,,,0,,,71,88
2430,note_on,0,0,3,,,,,,,,,2,,,60,75
2430,note_on,30,0,3,,,,,,,,,2,,,59,0
2430,note_on,30,0,1,,,,,,,,,0,,,71,0
2430,note_on,0,0,1,,,,,,,,,0,,,72,88
2460,note_on,0,0,3,,,,,,,,,2,,,62,75
2460,note_on,30,0,3,,,,,,,,,2,,,60,0
2460,note_on,30,0,1,,,,,,,,,0,,,72,0
2460,note_on,0,0,1,,,,,,,,,0,,,74,88
2490,note_on,30,0,3,,,,,,,,,2,,,62,0
2490,note_on,0,0,1,,,,,,,,,0,,,76,88
2490,note_on,30,0,1,,,,,,,,,0,,,74,0
2490,note_on,0,0,3,,,,,,,,,2,,,64,75
2520,note_on,0,0,3,,,,,,,,,2,,,65,75
2520,control_change,0,0,3,,,,,,,,,2,64,0,,
2520,time_signature,540,1,0,6,8,12,8,,,,,,,,,
2520,note_on,30,0,3,,,,,,,,,2,,,64,0
2520,control_change,0,0,1,,,,,,,,,0,64,0,,
2520,note_on,0,0,1,,,,,,,,,0,,,77,88
2520,note_on,30,0,1,,,,,,,,,0,,,76,0
2700,note_on,180,0,3,,,,,,,,,2,,,65,0
2880,time_signature,360,1,0,3,8,12,8,,,,,,,,,
2880,note_on,0,0,3,,,,,,,,,2,,,58,36
2880,note_on,360,0,1,,,,,,,,,0,,,65,49
2880,note_on,180,0,3,,,,,,,,,2,,,50,36
3060,note_on,0,0,1,,,,,,,,,0,,,77,0
3060,note_on,180,0,3,,,,,,,,,2,,,58,0
3060,note_on,0,0,3,,,,,,,,,2,,,50,0
3060,note_on,0,0,3,,,,,,,,,2,,,55,36
3060,note_on,0,0,3,,,,,,,,,2,,,60,36
3060,note_on,0,0,1,,,,,,,,,0,,,70,49
3060,note_on,180,0,1,,,,,,,,,0,,,65,0
3060,note_on,0,0,1,,,,,,,,,0,,,64,49
3225,note_on,165,0,1,,,,,,,,,0,,,72,49
3240,note_on,0,0,3,,,,,,,,,2,,,62,36
3240,note_on,0,0,3,,,,,,,,,2,,,53,36
3240,note_on,15,0,1,,,,,,,,,0,,,72,0
3240,note_on,0,0,3,,,,,,,,,2,,,55,0
3240,control_change,0,0,1,,,,,,,,,0,64,127,,
3240,note_on,0,0,1,,,,,,,,,0,,,70,49
3240,note_on,0,0,1,,,,,,,,,0,,,64,0
3240,note_on,0,0,1,,,,,,,,,0,,,70,0
3240,note_on,1620,0,2,,,,,,,,,1,,,65,64
3240,note_on,180,0,3,,,,,,,,,2,,,60,0
3300,note_on,0,0,1,,,,,,,,,0,,,69,49
3300,note_on,60,0,1,,,,,,,,,0,,,70,0
3360,note_on,0,0,1,,,,,,,,,0,,,70,49
3360,control_change,0,0,1,,,,,,,,,0,64,0,,
3360,note_on,60,0,1,,,,,,,,,0,,,69,0
3420,note_on,0,0,1,,,,,,,,,0,,,74,49
3420,note_on,0,0,3,,,,,,,,,2,,,63,36
3420,note_on,180,0,3,,,,,,,,,2,,,62,0
3420,note_on,180,0,2,,,,,,,,,1,,,65,0
3420,note_on,0,0,2,,,,,,,,,1,,,69,64
3420,note_on,60,0,1,,,,,,,,,0,,,70,0
3540,note_on,120,0,1,,,,,,,,,0,,,74,0
3540,note_on,0,0,1,,,,,,,,,0,,,72,49
3600,note_on,180,0,2,,,,,,,,,1,,,69,0
3600,note_on,0,0,3,,,,,,,,,2,,,53,0
3600,note_on,180,0,3,,,,,,,,,2,,,63,0
3600,note_on,60,0,1,,,,,,,,,0,,,72,0
3765,note_on,165,0,1,,,,,,,,,0,,,71,49
3780,note_on,180,0,2,,,,,,,,,1,,,64,64
3780,note_on,180,0,3,,,,,,,,,2,,,52,36
3780,note_on,15,0,1,,,,,,,,,0,,,71,0
3780,control_change,0,0,1,,,,,,,,,0,64,127,,
3780,note_on,0,0,1,,,,,,,,,0,,,69,49
3780,note_on,0,0,3,,,,,,,,,2,,,60,36
3840,note_on,0,0,1,,,,,,,,,0,,,68,49
3840,note_on,60,0,1,,,,,,,,,0,,,69,0
3900,note_on,0,0,1,,,,,,,,,0,,,69,49
3900,control_change,0,0,1,,,,,,,,,0,64,0,,
3900,note_on,60,0,1,,,,,,,,,0,,,68,0
3960,note_on,0,0,1,,,,,,,,,0,,,72,49
3960,note_on,60,0,1,,,,,,,,,0,,,69,0
3960,note_on,180,0,2,,,,,,,,,1,,,68,64
3960,note_on,180,0,3,,,,,,,,,2,,,60,0
3960,note_on,0,0,3,,,,,,,,,2,,,62,36
4080,note_on,0,0,1,,,,,,,,,0,,,71,49
4080,note_on,120,0,1,,,,,,,,,0,,,72,0
4140,note_on,60,0,1,,,,,,,,,0,,,71,0
4140,note_on,0,0,2,,,,,,,,,1,,,64,0
4140,note_on,180,0,2,,,,,,,,,1,,,68,0
4140,note_on,180,0,3,,,,,,,,,2,,,62,0
4140,note_on,0,0,3,,,,,,,,,2,,,52,0
4140,time_signature,1260,1,0,6,8,12,8,,,,,,,,,
4500,note_on,0,0,3,,,,,,,,,2,,,45,75
4500,control_change,360,0,3,,,,,,,,,2,64,127,,
4500,control_change,360,0,1,,,,,,,,,0,64,127,,
4500,time_signature,360,1,0,3,8,12,8,,,,,,,,,
4500,note_on,0,0,1,,,,,,,,,0,,,57,88
4590,note_on,90,0,3,,,,,,,,,2,,,45,0
4590,note_on,0,0,3,,,,,,,,,2,,,47,75
4590,note_on,90,0,1,,,,,,,,,0,,,57,0
4590,note_on,0,0,1,,,,,,,,,0,,,59,88
4620,note_on,30,0,3,,,,,,,,,2,,,47,0
4620,note_on,0,0,3,,,,,,,,,2,,,48,75
4620,note_on,30,0,1,,,,,,,,,0,,,59,0
4620,note_on,0,0,1,,,,,,,,,0,,,60,88
4650,note_on,30,0,1,,,,,,,,,0,,,60,0
4650,note_on,0,0,1,,,,,,,,,0,,,62,88
4650,note_on,0,0,3,,,,,,,,,2,,,50,75
4650,note_on,30,0,3,,,,,,,,,2,,,48,0
4680,note_on,30,0,3,,,,,,,,,2,,,50,0
4680,note_on,0,0,3,,,,,,,,,2,,,52,75
4680,note_on,30,0,1,,,,,,,,,0,,,62,0
4680,note_on,0,0,1,,,,,,,,,0,,,64,88
4800,note_on,120,0,3,,,,,,,,,2,,,52,0
4800,note_on,0,0,3,,,,,,,,,2,,,54,75
4800,note_on,0,0,1,,,,,,,,,0,,,66,88
4800,note_on,120,0,1,,,,,,,,,0,,,64,0
4830,note_on,0,0,3,,,,,,,,,2,,,56,75
4830,control_change,0,0,3,,,,,,,,,2,64,0,,
4830,note_on,30,0,3,,,,,,,,,2,,,54,0
4830,note_on,30,0,1,,,,,,,,,0,,,66,0
4830,control_change,0,0,1,,,,,,,,,0,64,0,,
4830,note_on,0,0,1,,,,,,,,,0,,,68,88
4860,control_change,0,0,1,,,,,,,,,0,64,127,,
4860,note_on,0,0,3,,,,,,,,,2,,,57,75
4860,control_change,0,0,3,,,,,,,,,2,64,127,,
4860,note_on,30,0,3,,,,,,,,,2,,,56,0
4860,note_on,30,0,1,,,,,,,,,0,,,68,0
4860,note_on,0,0,1,,,,,,,,,0,,,69,88
4920,note_on,0,0,3,,,,,,,,,2,,,59,75
4920,note_on,60,0,3,,,,,,,,,2,,,57,0
4920,note_on,0,0,1,,,,,,,,,0,,,71,88
4920,note_on,60,0,1,,,,,,,,,0,,,69,0
4950,note_on,0,0,3,,,,,,,,,2,,,60,75
4950,note_on,30,0,3,,,,,,,,,2,,,59,0
4950,note_on,30,0,1,,,,,,,,,0,,,71,0
4950,note_on,0,0,1,,,,,,,,,0,,,72,88
4980,note_on,30,0,1,,,,,,,,,0,,,72,0
4980,note_on,0,0,3,,,,,,,,,2,,,62,75
4980,note_on,30,0,3,,,,,,,,,2,,,60,0
4980,note_on,0,0,1,,,,,,,,,0,,,74,88
5010,note_on,0,0,3,,,,,,,,,2,,,64,75
5010,control_change,0,0,3,,,,,,,,,2,64,0,,
5010,note_on,30,0,3,,,,,,,,,2,,,62,0
5010,note_on,0,0,1,,,,,,,,,0,,,76,88
5010,control_change,0,0,1,,,,,,,,,0,64,0,,
5010,note_on,30,0,1,,,,,,,,,0,,,74,0
5040,note_on,30,0,1,,,,,,,,,0,,,76,0
5040,time_signature,540,1,0,6,8,12,8,,,,,,,,,
5040,note_on,0,0,1,,,,,,,,,0,,,77,88
5040,note_on,30,0,3,,,,,,,,,2,,,64,0
5040,note_on,0,0,3,,,,,,,,,2,,,65,75
5220,note_on,180,0,1,,,,,,,,,0,,,77,0
5220,note_on,180,0,3,,,,,,,,,2,,,65,0
5400,note_on,180,0,1,,,,,,,,,0,,,64,49
5400,time_signature,360,1,0,3,8,12,8,,,,,,,,,
5400,note_on,0,0,3,,,,,,,,,2,,,57,36
5400,note_on,180,0,3,,,,,,,,,2,,,49,36
5400,note_on,0,0,1,,,,,,,,,0,,,76,49
5580,note_on,0,0,3,,,,,,,,,2,,,54,36
5580,note_on,0,0,3,,,,,,,,,2,,,49,0
5580,note_on,180,0,3,,,,,,,,,2,,,57,0
5580,note_on,180,0,1,,,,,,,,,0,,,76,0
5580,note_on,0,0,3,,,,,,,,,2,,,60,36
5580,note_on,0,0,1,,,,,,,,,0,,,63,49
5580,note_on,0,0,1,,,,,,,,,0,,,69,49
5580,note_on,0,0,1,,,,,,,,,0,,,64,0
5745,note_on,165,0,1,,,,,,,,,0,,,71,49
5760,note_on,0,0,3,,,,,,,,,2,,,52,36
5760,note_on,15,0,1,,,,,,,,,0,,,71,0
5760,note_on,0,0,1,,,,,,,,,0,,,69,0
5760,note_on,1620,0,2,,,,,,,,,1,,,64,64
5760,note_on,0,0,1,,,,,,,,,0,,,63,0
5760,note_on,0,0,1,,,,,,,,,0,,,69,49
5760,control_change,0,0,1,,,,,,,,,0,64,127,,
5760,note_on,180,0,3,,,,,,,,,2,,,60,0
5760,note_on,0,0,3,,,,,,,,,2,,,54,0
5760,note_on,0,0,3,,,,,,,,,2,,,61,36
5820,note_on,0,0,1,,,,,,,,,0,,,68,49
5820,note_on,60,0,1,,,,,,,,,0,,,69,0
5880,note_on,60,0,1,,,,,,,,,0,,,68,0
5880,control_change,0,0,1,,,,,,,,,0,64,0,,
5880,note_on,0,0,1,,,,,,,,,0,,,69,49
5940,note_on,0,0,3,,,,,,,,,2,,,62,36
5940,note_on,180,0,3,,,,,,,,,2,,,61,0
5940,note_on,0,0,1,,,,,,,,,0,,,73,49
5940,note_on,60,0,1,,,,,,,,,0,,,69,0
5940,note_on,180,0,2,,,,,,,,,1,,,64,0
5940,note_on,0,0,2,,,,,,,,,1,,,64,64
5940,note_on,0,0,2,,,,,,,,,1,,,68,64
6060,note_on,0,0,1,,,,,,,,,0,,,71,49
6060,note_on,120,0,1,,,,,,,,,0,,,73,0
6120,note_on,0,0,3,,,,,,,,,2,,,52,0
6120,note_on,0,0,2,,,,,,,,,1,,,64,0
6120,note_on,180,0,2,,,,,,,,,1,,,68,0
6120,note_on,60,0,1,,,,,,,,,0,,,71,0
6120,note_on,180,0,3,,,,,,,,,2,,,62,0
6300,control_change,180,0,3,,,,,,,,,2,64,127,,
6300,note_on,0,0,3,,,,,,,,,2,,,61,49
6300,control_change,180,0,1,,,,,,,,,0,64,127,,
6300,note_on,6300,0,4,,,,,,,,,3,,,57,36
6300,note_on,180,0,2,,,,,,,,,1,,,69,36
6300,key_signature,900,1,0,,,,,A,,,,,,,,
6300,note_on,0,0,1,,,,,,,,,0,,,76,49
6330,note_on,30,0,1,,,,,,,,,0,,,76,0
6330,note_on,0,0,1,,,,,,,,,0,,,78,49
6360,note_on,0,0,3,,,,,,,,,2,,,60,49
6360,note_on,30,0,1,,,,,,,,,0,,,78,0
6360,note_on,0,0,1,,,,,,,,,0,,,75,49
6360,note_on,60,0,3,,,,,,,,,2,,,61,0
6390,note_on,30,0,1,,,,,,,,,0,,,75,0
6390,note_on,0,0,1,,,,,,,,,0,,,78,49
6420,note_on,60,0,3,,,,,,,,,2,,,60,0
6420,note_on,0,0,3,,,,,,,,,2,,,61,49
6420,note_on,30,0,1,,,,,,,,,0,,,78,0
6420,note_on,0,0,1,,,,,,,,,0,,,76,49
6450,note_on,30,0,1,,,,,,,,,0,,,76,0
6450,note_on,0,0,1,,,,,,,,,0,,,78,49
6480,note_on,0,0,3,,,,,,,,,2,,,60,49
6480,note_on,0,0,1,,,,,,,,,0,,,75,49
6480,note_on,30,0,1,,,,,,,,,0,,,78,0
6480,note_on,60,0,3,,,,,,,,,2,,,61,0
6510,note_on,0,0,1,,,,,,,,,0,,,78,49
6510,note_on,30,0,1,,,,,,,,,0,,,75,0
6540,note_on,0,0,1,,,,,,,,,0,,,76,49
6540,note_on,30,0,1,,,,,,,,,0,,,78,0
6540,note_on,60,0,3,,,,,,,,,2,,,60,0
6540,note_on,0,0,3,,,,,,,,,2,,,61,49
6570,note_on,0,0,1,,,,,,,,,0,,,78,49
6570,note_on,30,0,1,,,,,,,,,0,,,76,0
6600,note_on,0,0,3,,,,,,,,,2,,,60,49
6600,note_on,0,0,1,,,,,,,,,0,,,75,49
6600,note_on,30,0,1,,,,,,,,,0,,,78,0
6600,note_on,60,0,3,,,,,,,,,2,,,61,0
6630,note_on,0,0,1,,,,,,,,,0,,,78,49
6630,note_on,30,0,1,,,,,,,,,0,,,75,0
6660,control_change,0,0,1,,,,,,,,,0,64,0,,
6660,note_on,30,0,1,,,,,,,,,0,,,78,0
6660,note_on,0,0,3,,,,,,,,,2,,,61,49
6660,control_change,0,0,3,,,,,,,,,2,64,0,,
6660,note_on,0,0,1,,,,,,,,,0,,,76,49
6660,note_on,60,0,3,,,,,,,,,2,,,60,0
6750,note_on,90,0,1,,,,,,,,,0,,,76,0
6750,note_on,0,0,1,,,,,,,,,0,,,76,62
6780,note_on,480,0,2,,,,,,,,,1,,,69,0
6780,note_on,120,0,3,,,,,,,,,2,,,61,0
6780,note_on,480,0,4,,,,,,,,,3,,,57,0
6780,note_on,30,0,1,,,,,,,,,0,,,76,0
6780,note_on,0,0,1,,,,,,,,,0,,,81,75
6810,note_on,0,0,1,,,,,,,,,0,,,85,88
6810,note_on,30,0,1,,,,,,,,,0,,,81,0
6840,note_on,0,0,1,,,,,,,,,0,,,88,114
6840,note_on,30,0,1,,,,,,,,,0,,,85,0
6840,note_on,60,0,3,,,,,,,,,2,,,64,101
6840,note_on,0,0,3,,,,,,,,,2,,,76,101
6840,note_on,0,0,3,,,,,,,,,2,,,73,101
7020,note_on,0,0,3,,,,,,,,,2,,,64,0
7020,note_on,180,0,3,,,,,,,,,2,,,76,0
7020,note_on,180,0,1,,,,,,,,,0,,,88,0
7020,note_on,0,0,1,,,,,,,,,0,,,88,49
7020,note_on,0,0,3,,,,,,,,,2,,,73,0
7020,note_on,0,0,3,,,,,,,,,2,,,71,36
7020,note_on,0,0,3,,,,,,,,,2,,,74,36
7026,note_on,0,0,3,,,,,,,,,2,,,71,0
7026,note_on,6,0,3,,,,,,,,,2,,,74,0
7050,note_on,30,0,1,,,,,,,,,0,,,88,0
7050,note_on,0,0,1,,,,,,,,,0,,,86,49
7080,note_on,54,0,3,,,,,,,,,2,,,69,36
7080,note_on,0,0,3,,,,,,,,,2,,,73,36
7080,note_on,30,0,1,,,,,,,,,0,,,86,0
7080,note_on,0,0,1,,,,,,,,,0,,,86,49
7086,note_on,6,0,3,,,,,,,,,2,,,73,0
7086,note_on,0,0,3,,,,,,,,,2,,,69,0
7110,note_on,0,0,1,,,,,,,,,0,,,85,49
7110,note_on,30,0,1,,,,,,,,,0,,,86,0
7140,note_on,54,0,3,,,,,,,,,2,,,68,36
7140,note_on,0,0,3,,,,,,,,,2,,,71,36
7140,note_on,30,0,1,,,,,,,,,0,,,85,0
7140,note_on,0,0,1,,,,,,,,,0,,,85,49
7146,note_on,6,0,3,,,,,,,,,2,,,71,0
7146,note_on,0,0,3,,,,,,,,,2,,,68,0
7170,note_on,30,0,1,,,,,,,,,0,,,85,0
7170,note_on,0,0,1,,,,,,,,,0,,,83,49
7200,note_on,54,0,3,,,,,,,,,2,,,66,36
7200,note_on,0,0,1,,,,,,,,,0,,,83,49
7200,note_on,0,0,3,,,,,,,,,2,,,69,36
7200,note_on,30,0,1,,,,,,,,,0,,,83,0
7206,note_on,6,0,3,,,,,,,,,2,,,69,0
7206,note_on,0,0,3,,,,,,,,,2,,,66,0
7230,note_on,30,0,1,,,,,,,,,0,,,83,0
7230,note_on,0,0,1,,,,,,,,,0,,,81,49
7260,note_on,0,0,1,,,,,,,,,0,,,81,49
7260,note_on,0,0,3,,,,,,,,,2,,,68,36
7260,note_on,54,0,3,,,,,,,,,2,,,64,36
7260,note_on,30,0,1,,,,,,,,,0,,,81,0
7266,note_on,6,0,3,,,,,,,,,2,,,68,0
7266,note_on,0,0,3,,,,,,,,,2,,,64,0
7290,note_on,30,0,1,,,,,,,,,0,,,81,0
7290,note_on,0,0,1,,,,,,,,,0,,,80,49
7320,note_on,0,0,1,,,,,,,,,0,,,80,49
7320,note_on,30,0,1,,,,,,,,,0,,,80,0
7320,note_on,0,0,3,,,,,,,,,2,,,66,36
7320,note_on,54,0,3,,,,,,,,,2,,,62,36
7326,note_on,0,0,3,,,,,,,,,2,,,62,0
7326,note_on,6,0,3,,,,,,,,,2,,,66,0
7350,note_on,0,0,1,,,,,,,,,0,,,78,49
7350,note_on,30,0,1,,,,,,,,,0,,,80,0
7380,note_on,0,0,3,,,,,,,,,2,,,64,49
7380,note_on,54,0,3,,,,,,,,,2,,,61,49
7380,note_on,30,0,1,,,,,,,,,0,,,78,0
7380,note_on,0,0,1,,,,,,,,,0,,,78,62
7386,note_on,0,0,3,,,,,,,,,2,,,61,0
7386,note_on,6,0,3,,,,,,,,,2,,,64,0
7410,note_on,0,0,1,,,,,,,,,0,,,76,62
7410,note_on,30,0,1,,,,,,,,,0,,,78,0
7440,note_on,0,0,3,,,,,,,,,2,,,62,62
7440,note_on,54,0,3,,,,,,,,,2,,,59,62
7440,note_on,0,0,1,,,,,,,,,0,,,76,75
7440,note_on,30,0,1,,,,,,,,,0,,,76,0
7446,note_on,0,0,3,,,,,,,,,2,,,59,0
7446,note_on,6,0,3,,,,,,,,,2,,,62,0
7470,note_on,30,0,1,,,,,,,,,0,,,76,0
7470,note_on,0,0,1,,,,,,,,,0,,,74,75
7500,note_on,30,0,1,,,,,,,,,0,,,74,0
7500,note_on,0,0,1,,,,,,,,,0,,,74,75
7500,note_on,54,0,3,,,,,,,,,2,,,57,62
7500,note_on,0,0,3,,,,,,,,,2,,,61,62
7506,note_on,6,0,3,,,,,,,,,2,,,61,0
7506,note_on,0,0,3,,,,,,,,,2,,,57,0
7530,note_on,0,0,1,,,,,,,,,0,,,73,75
7530,note_on,30,0,1,,,,,,,,,0,,,74,0
7560,note_on,54,0,3,,,,,,,,,2,,,56,62
7560,note_on,0,0,3,,,,,,,,,2,,,59,62
7560,note_on,0,0,1,,,,,,,,,0,,,73,75
7560,note_on,30,0,1,,,,,,,,,0,,,73,0
7566,note_on,6,0,3,,,,,,,,,2,,,59,0
7566,note_on,0,0,3,,,,,,,,,2,,,56,0
7590,note_on,30,0,1,,,,,,,,,0,,,73,0
7590,note_on,0,0,1,,,,,,,,,0,,,71,75
7620,note_on,30,0,1,,,,,,,,,0,,,71,0
7620,note_on,54,0,3,,,,,,,,,2,,,54,62
7620,note_on,0,0,3,,,,,,,,,2,,,57,62
7620,note_on,0,0,1,,,,,,,,,0,,,71,75
7626,note_on,0,0,3,,,,,,,,,2,,,54,0
7626,note_on,6,0,3,,,,,,,,,2,,,57,0
7650,note_on,30,0,1,,,,,,,,,0,,,71,0
7650,note_on,0,0,1,,,,,,,,,0,,,69,75
7680,note_on,0,0,3,,,,,,,,,2,,,56,62
7680,note_on,30,0,1,,,,,,,,,0,,,69,0
7680,note_on,54,0,3,,,,,,,,,2,,,52,62
7680,note_on,0,0,1,,,,,,,,,0,,,69,75
7686,note_on,6,0,3,,,,,,,,,2,,,56,0
7686,note_on,0,0,3,,,,,,,,,2,,,52,0
7710,note_on,30,0,1,,,,,,,,,0,,,69,0
7710,note_on,0,0,1,,,,,,,,,0,,,68,75
7740,note_on,30,0,1,,,,,,,,,0,,,68,0
7740,note_on,0,0,3,,,,,,,,,2,,,59,36
7740,note_on,0,0,3,,,,,,,,,2,,,56,36
7740,note_on,0,0,3,,,,,,,,,2,,,52,36
7740,control_change,54,0,3,,,,,,,,,2,64,127,,
7740,note_on,0,0,3,,,,,,,,,2,,,62,36
7746,note_on,0,0,3,,,,,,,,,2,,,52,0
7746,note_on,0,0,3,,,,,,,,,2,,,56,0
7746,note_on,0,0,3,,,,,,,,,2,,,59,0
7746,note_on,6,0,3,,,,,,,,,2,,,62,0
7800,note_on,0,0,3,,,,,,,,,2,,,62,36
7800,note_on,54,0,3,,,,,,,,,2,,,52,36
7800,note_on,0,0,3,,,,,,,,,2,,,56,36
7800,note_on,0,0,3,,,,,,,,,2,,,59,36
7806,note_on,6,0,3,,,,,,,,,2,,,62,0
7806,note_on,0,0,3,,,,,,,,,2,,,52,0
7806,note_on,0,0,3,,,,,,,,,2,,,56,0
7806,note_on,0,0,3,,,,,,,,,2,,,59,0
7860,control_change,54,0,3,,,,,,,,,2,64,0,,
7860,note_on,0,0,3,,,,,,,,,2,,,62,36
7860,note_on,0,0,3,,,,,,,,,2,,,59,36
7860,note_on,120,0,1,,,,,,,,,0,,,71,49
7860,note_on,0,0,3,,,,,,,,,2,,,56,36
7860,note_on,0,0,3,,,,,,,,,2,,,52,36
7866,note_on,0,0,3,,,,,,,,,2,,,52,0
7866,note_on,6,0,3,,,,,,,,,2,,,62,0
7866,note_on,0,0,3,,,,,,,,,2,,,56,0
7866,note_on,0,0,3,,,,,,,,,2,,,59,0
7920,control_change,54,0,3,,,,,,,,,2,64,127,,
7920,note_on,0,0,3,,,,,,,,,2,,,53,36
7920,note_on,0,0,3,,,,,,,,,2,,,57,36
7920,note_on,0,0,3,,,,,,,,,2,,,59,36
7920,note_on,60,0,1,,,,,,,,,0,,,71,0
7920,note_on,0,0,1,,,,,,,,,0,,,74,75
7920,note_on,0,0,3,,,,,,,,,2,,,62,36
7926,note_on,0,0,3,,,,,,,,,2,,,59,0
7926,note_on,0,0,3,,,,,,,,,2,,,53,0
7926,note_on,0,0,3,,,,,,,,,2,,,57,0
7926,note_on,6,0,3,,,,,,,,,2,,,62,0
7980,note_on,0,0,3,,,,,,,,,2,,,62,36
7980,note_on,0,0,3,,,,,,,,,2,,,59,36
7980,note_on,0,0,3,,,,,,,,,2,,,57,36
7980,note_on,54,0,3,,,,,,,,,2,,,53,36
7986,note_on,0,0,3,,,,,,,,,2,,,59,0
7986,note_on,0,0,3,,,,,,,,,2,,,57,0
7986,note_on,0,0,3,,,,,,,,,2,,,53,0
7986,note_on,6,0,3,,,,,,,,,2,,,62,0
8040,note_on,0,0,3,,,,,,,,,2,,,53,36
8040,note_on,0,0,3,,,,,,,,,2,,,62,36
8040,note_on,0,0,3,,,,,,,,,2,,,59,36
8040,note_on,0,0,3,,,,,,,,,2,,,57,36
8040,note_on,120,0,1,,,,,,,,,0,,,74,0
8040,note_on,0,0,1,,,,,,,,,0,,,71,49
8040,control_change,54,0,3,,,,,,,,,2,64,0,,
8046,note_on,0,0,3,,,,,,,,,2,,,59,0
8046,note_on,6,0,3,,,,,,,,,2,,,62,0
8046,note_on,0,0,3,,,,,,,,,2,,,53,0
8046,note_on,0,0,3,,,,,,,,,2,,,57,0
8100,note_on,0,0,3,,,,,,,,,2,,,62,36
8100,note_on,0,0,3,,,,,,,,,2,,,59,36
8100,note_on,0,0,3,,,,,,,,,2,,,56,36
8100,note_on,60,0,1,,,,,,,,,0,,,71,0
8100,control_change,54,0,3,,,,,,,,,2,64,127,,
8100,note_on,0,0,3,,,,,,,,,2,,,52,36
8106,note_on,6,0,3,,,,,,,,,2,,,62,0
8106,note_on,0,0,3,,,,,,,,,2,,,52,0
8106,note_on,0,0,3,,,,,,,,,2,,,59,0
8106,note_on,0,0,3,,,,,,,,,2,,,56,0
8160,note_on,0,0,3,,,,,,,,,2,,,56,36
8160,note_on,54,0,3,,,,,,,,,2,,,52,36
8160,note_on,0,0,3,,,,,,,,,2,,,59,36
8160,note_on,0,0,3,,,,,,,,,2,,,62,36
8166,note_on,6,0,3,,,,,,,,,2,,,62,0
8166,note_on,0,0,3,,,,,,,,,2,,,52,0
8166,note_on,0,0,3,,,,,,,,,2,,,56,0
8166,note_on,0,0,3,,,,,,,,,2,,,59,0
8220,note_on,0,0,1,,,,,,,,,0,,,83,49
8220,note_on,0,0,3,,,,,,,,,2,,,62,36
8220,note_on,0,0,3,,,,,,,,,2,,,59,36
8220,note_on,0,0,3,,,,,,,,,2,,,56,36
8220,note_on,0,0,3,,,,,,,,,2,,,52,36
8220,control_change,54,0,3,,,,,,,,,2,64,0,,
8220,note_on,120,0,1,,,,,,,,,0,,,71,49
8226,note_on,6,0,3,,,,,,,,,2,,,62,0
8226,note_on,0,0,3,,,,,,,,,2,,,52,0
8226,note_on,0,0,3,,,,,,,,,2,,,56,0
8226,note_on,0,0,3,,,,,,,,,2,,,59,0
8280,note_on,0,0,3,,,,,,,,,2,,,59,36
8280,note_on,0,0,3,,,,,,,,,2,,,62,36
8280,note_on,0,0,3,,,,,,,,,2,,,53,36
8280,note_on,0,0,3,,,,,,,,,2,,,57,36
8280,note_on,0,0,1,,,,,,,,,0,,,86,75
8280,control_change,54,0,3,,,,,,,,,2,64,127,,
8280,note_on,0,0,1,,,,,,,,,0,,,74,67
8280,note_on,60,0,1,,,,,,,,,0,,,83,0
8280,note_on,0,0,1,,,,,,,,,0,,,71,0
8286,note_on,6,0,3,,,,,,,,,2,,,62,0
8286,note_on,0,0,3,,,,,,,,,2,,,53,0
8286,note_on,0,0,3,,,,,,,,,2,,,57,0
8286,note_on,0,0,3,,,,,,,,,2,,,59,0
8340,note_on,0,0,3,,,,,,,,,2,,,62,36
8340,note_on,0,0,3,,,,,,,,,2,,,57,36
8340,note_on,54,0,3,,,,,,,,,2,,,53,36
8340,note_on,0,0,3,,,,,,,,,2,,,59,36
8346,note_on,0,0,3,,,,,,,,,2,,,53,0
8346,note_on,0,0,3,,,,,,,,,2,,,57,0
8346,note_on,0,0,3,,,,,,,,,2,,,59,0
8346,note_on,6,0,3,,,,,,,,,2,,,62,0
8400,note_on,0,0,3,,,,,,,,,2,,,59,36
8400,control_change,54,0,3,,,,,,,,,2,64,0,,
8400,note_on,0,0,3,,,,,,,,,2,,,53,36
8400,note_on,0,0,3,,,,,,,,,2,,,57,36
8400,note_on,0,0,3,,,,,,,,,2,,,62,36
8400,note_on,0,0,1,,,,,,,,,0,,,74,0
8400,note_on,0,0,1,,,,,,,,,0,,,83,49
8400,note_on,120,0,1,,,,,,,,,0,,,86,0
8400,note_on,0,0,1,,,,,,,,,0,,,71,49
8406,note_on,6,0,3,,,,,,,,,2,,,62,0
8406,note_on,0,0,3,,,,,,,,,2,,,53,0
8406,note_on,0,0,3,,,,,,,,,2,,,57,0
8406,note_on,0,0,3,,,,,,,,,2,,,59,0
8460,note_on,60,0,1,,,,,,,,,0,,,83,0
8460,control_change,54,0,3,,,,,,,,,2,64,127,,
8460,note_on,0,0,3,,,,,,,,,2,,,52,49
8460,note_on,0,0,3,,,,,,,,,2,,,56,49
8460,note_on,0,0,3,,,,,,,,,2,,,59,49
8460,note_on,0,0,3,,,,,,,,,2,,,62,49
8460,note_on,0,0,1,,,,,,,,,0,,,71,0
8466,note_on,0,0,3,,,,,,,,,2,,,59,0
8466,note_on,6,0,3,,,,,,,,,2,,,62,0
8466,note_on,0,0,3,,,,,,,,,2,,,52,0
8466,note_on,0,0,3,,,,,,,,,2,,,56,0
8520,note_on,54,0,3,,,,,,,,,2,,,52,49
8520,note_on,0,0,3,,,,,,,,,2,,,56,49
8520,note_on,0,0,3,,,,,,,,,2,,,59,49
8520,note_on,0,0,3,,,,,,,,,2,,,62,49
8526,note_on,6,0,3,,,,,,,,,2,,,62,0
8526,note_on,0,0,3,,,,,,,,,2,,,52,0
8526,note_on,0,0,3,,,,,,,,,2,,,59,0
8526,note_on,0,0,3,,,,,,,,,2,,,56,0
8580,note_on,0,0,3,,,,,,,,,2,,,59,49
8580,note_on,120,0,1,,,,,,,,,0,,,71,62
8580,control_change,54,0,3,,,,,,,,,2,64,0,,
8580,note_on,0,0,3,,,,,,,,,2,,,62,49
8580,note_on,0,0,3,,,,,,,,,2,,,56,49
8580,note_on,0,0,3,,,,,,,,,2,,,52,49
8586,note_on,6,0,3,,,,,,,,,2,,,62,0
8586,note_on,0,0,3,,,,,,,,,2,,,52,0
8586,note_on,0,0,3,,,,,,,,,2,,,56,0
8586,note_on,0,0,3,,,,,,,,,2,,,59,0
8640,note_on,0,0,1,,,,,,,,,0,,,74,88
8640,control_change,54,0,3,,,,,,,,,2,64,127,,
8640,note_on,0,0,3,,,,,,,,,2,,,53,49
8640,note_on,0,0,3,,,,,,,,,2,,,57,49
8640,note_on,60,0,1,,,,,,,,,0,,,71,0
8640,note_on,0,0,3,,,,,,,,,2,,,59,49
8640,note_on,0,0,3,,,,,,,,,2,,,62,49
8646,note_on,0,0,3,,,,,,,,,2,,,53,0
8646,note_on,0,0,3,,,,,,,,,2,,,59,0
8646,note_on,0,0,3,,,,,,,,,2,,,57,0
8646,note_on,6,0,3,,,,,,,,,2,,,62,0
8700,note_on,54,0,3,,,,,,,,,2,,,53,49
8700,note_on,0,0,3,,,,,,,,,2,,,57,49
8700,note_on,0,0,3,,,,,,,,,2,,,59,49
8700,note_on,0,0,3,,,,,,,,,2,,,62,49
8706,note_on,0,0,3,,,,,,,,,2,,,57,0
8706,note_on,0,0,3,,,,,,,,,2,,,53,0
8706,note_on,6,0,3,,,,,,,,,2,,,62,0
8706,note_on,0,0,3,,,,,,,,,2,,,59,0
8760,control_change,54,0,3,,,,,,,,,2,64,0,,
8760,note_on,0,0,1,,,,,,,,,0,,,71,62
8760,note_on,120,0,1,,,,,,,,,0,,,74,0
8760,note_on,0,0,3,,,,,,,,,2,,,62,49
8760,note_on,0,0,3,,,,,,,,,2,,,57,49
8760,note_on,0,0,3,,,,,,,,,2,,,59,49
8760,note_on,0,0,3,,,,,,,,,2,,,53,49
8766,note_on,0,0,3,,,,,,,,,2,,,57,0
8766,note_on,0,0,3,,,,,,,,,2,,,59,0
8766,note_on,6,0,3,,,,,,,,,2,,,62,0
8766,note_on,0,0,3,,,,,,,,,2,,,53,0
8820,note_on,60,0,1,,,,,,,,,0,,,71,0
8820,note_on,0,0,3,,,,,,,,,2,,,62,62
8820,control_change,54,0,3,,,,,,,,,2,64,127,,
8820,note_on,0,0,3,,,,,,,,,2,,,52,62
8820,note_on,0,0,3,,,,,,,,,2,,,56,62
8820,note_on,0,0,3,,,,,,,,,2,,,59,62
8826,note_on,0,0,3,,,,,,,,,2,,,59,0
8826,note_on,0,0,3,,,,,,,,,2,,,56,0
8826,note_on,0,0,3,,,,,,,,,2,,,52,0
8826,note_on,6,0,3,,,,,,,,,2,,,62,0
8880,note_on,54,0,3,,,,,,,,,2,,,52,62
8880,note_on,0,0,3,,,,,,,,,2,,,56,62
8880,note_on,0,0,3,,,,,,,,,2,,,59,62
8880,note_on,0,0,3,,,,,,,,,2,,,62,62
8886,note_on,0,0,3,,,,,,,,,2,,,56,0
8886,note_on,6,0,3,,,,,,,,,2,,,62,0
8886,note_on,0,0,3,,,,,,,,,2,,,52,0
8886,note_on,0,0,3,,,,,,,,,2,,,59,0
8940,note_on,0,0,3,,,,,,,,,2,,,52,62
8940,note_on,0,0,3,,,,,,,,,2,,,56,62
8940,note_on,0,0,3,,,,,,,,,2,,,59,62
8940,control_change,54,0,3,,,,,,,,,2,64,0,,
8940,note_on,120,0,1,,,,,,,,,0,,,71,75
8940,note_on,0,0,3,,,,,,,,,2,,,62,62
8940,note_on,0,0,1,,,,,,,,,0,,,83,75
8946,note_on,6,0,3,,,,,,,,,2,,,62,0
8946,note_on,0,0,3,,,,,,,,,2,,,52,0
8946,note_on,0,0,3,,,,,,,,,2,,,56,0
8946,note_on,0,0,3,,,,,,,,,2,,,59,0
9000,note_on,0,0,1,,,,,,,,,0,,,86,101
9000,note_on,0,0,3,,,,,,,,,2,,,62,62
9000,note_on,0,0,3,,,,,,,,,2,,,59,62
9000,note_on,0,0,3,,,,,,,,,2,,,56,62
9000,note_on,0,0,1,,,,,,,,,0,,,74,93
9000,control_change,54,0,3,,,,,,,,,2,64,127,,
9000,note_on,60,0,1,,,,,,,,,0,,,83,0
9000,note_on,0,0,3,,,,,,,,,2,,,53,62
9000,note_on,0,0,1,,,,,,,,,0,,,71,0
9006,note_on,0,0,3,,,,,,,,,2,,,59,0
9006,note_on,0,0,3,,,,,,,,,2,,,56,0
9006,note_on,6,0,3,,,,,,,,,2,,,62,0
9006,note_on,0,0,3,,,,,,,,,2,,,53,0
9060,note_on,54,0,3,,,,,,,,,2,,,53,62
9060,note_on,0,0,3,,,,,,,,,2,,,56,62
9060,note_on,0,0,3,,,,,,,,,2,,,59,62
9060,note_on,0,0,3,,,,,,,,,2,,,62,62
9066,note_on,6,0,3,,,,,,,,,2,,,62,0
9066,note_on,0,0,3,,,,,,,,,2,,,53,0
9066,note_on,0,0,3,,,,,,,,,2,,,56,0
9066,note_on,0,0,3,,,,,,,,,2,,,59,0
9120,control_change,54,0,3,,,,,,,,,2,64,0,,
9120,note_on,0,0,3,,,,,,,,,2,,,56,62
9120,note_on,0,0,3,,,,,,,,,2,,,59,62
9120,note_on,0,0,3,,,,,,,,,2,,,62,62
9120,note_on,0,0,3,,,,,,,,,2,,,53,62
9120,note_on,120,0,1,,,,,,,,,0,,,86,0
9120,note_on,0,0,1,,,,,,,,,0,,,74,0
9120,note_on,0,0,1,,,,,,,,,0,,,71,75
9120,note_on,0,0,1,,,,,,,,,0,,,83,75
9126,note_on,6,0,3,,,,,,,,,2,,,62,0
9126,note_on,0,0,3,,,,,,,,,2,,,56,0
9126,note_on,0,0,3,,,,,,,,,2,,,59,0
9126,note_on,0,0,3,,,,,,,,,2,,,53,0
9180,note_on,0,0,2,,,,,,,,,1,,,71,75
9180,note_on,54,0,3,,,,,,,,,2,,,62,75
9180,control_change,2400,0,4,,,,,,,,,3,64,127,,
9180,note_on,0,0,4,,,,,,,,,3,,,54,75
9180,note_on,2400,0,2,,,,,,,,,1,,,66,75
9180,note_on,0,0,1,,,,,,,,,0,,,78,114
9180,control_change,0,0,1,,,,,,,,,0,64,127,,
9180,note_on,0,0,1,,,,,,,,,0,,,71,0
9180,note_on,60,0,1,,,,,,,,,0,,,83,0
9186,note_on,6,0,4,,,,,,,,,3,,,54,0
9240,note_on,54,0,4,,,,,,,,,3,,,54,75
9246,note_on,6,0,4,,,,,,,,,3,,,54,0
9300,note_on,0,0,4,,,,,,,,,3,,,54,75
9300,note_on,120,0,1,,,,,,,,,0,,,78,0
9300,note_on,0,0,1,,,,,,,,,0,,,76,88
9300,control_change,54,0,4,,,,,,,,,3,64,0,,
9306,note_on,6,0,4,,,,,,,,,3,,,54,0
9330,control_change,0,0,1,,,,,,,,,0,64,0,,
9330,note_on,0,0,1,,,,,,,,,0,,,74,88
9330,note_on,30,0,1,,,,,,,,,0,,,76,0
9360,control_change,54,0,4,,,,,,,,,3,64,127,,
9360,note_on,0,0,4,,,,,,,,,3,,,54,75
9360,note_on,30,0,1,,,,,,,,,0,,,74,0
9360,note_on,180,0,3,,,,,,,,,2,,,62,0
9360,note_on,0,0,3,,,,,,,,,2,,,64,75
9360,control_change,0,0,1,,,,,,,,,0,64,127,,
9360,note_on,0,0,1,,,,,,,,,0,,,73,114
9360,note_on,0,0,2,,,,,,,,,1,,,70,75
9360,note_on,0,0,2,,,,,,,,,1,,,67,75
9360,note_on,0,0,2,,,,,,,,,1,,,66,0
9360,note_on,180,0,2,,,,,,,,,1,,,71,0
9366,note_on,6,0,4,,,,,,,,,3,,,54,0
9420,note_on,54,0,4,,,,,,,,,3,,,54,75
9426,note_on,6,0,4,,,,,,,,,3,,,54,0
9480,control_change,54,0,4,,,,,,,,,3,64,0,,
9480,note_on,0,0,1,,,,,,,,,0,,,74,88
9480,note_on,120,0,1,,,,,,,,,0,,,73,0
9480,note_on,0,0,4,,,,,,,,,3,,,54,75
9486,note_on,6,0,4,,,,,,,,,3,,,54,0
9510,control_change,0,0,1,,,,,,,,,0,64,0,,
9510,note_on,30,0,1,,,,,,,,,0,,,74,0
9510,note_on,0,0,1,,,,,,,,,0,,,76,88
9540,control_change,0,0,1,,,,,,,,,0,64,127,,
9540,note_on,0,0,1,,,,,,,,,0,,,78,88
9540,note_on,0,0,4,,,,,,,,,3,,,54,75
9540,note_on,180,0,3,,,,,,,,,2,,,64,0
9540,note_on,0,0,2,,,,,,,,,1,,,71,75
9540,note_on,0,0,2,,,,,,,,,1,,,66,75
9540,note_on,0,0,2,,,,,,,,,1,,,67,0
9540,note_on,180,0,2,,,,,,,,,1,,,70,0
9540,note_on,30,0,1,,,,,,,,,0,,,76,0
9540,control_change,54,0,4,,,,,,,,,3,64,127,,
9540,note_on,0,0,3,,,,,,,,,2,,,62,75
9546,note_on,6,0,4,,,,,,,,,3,,,54,0
9600,note_on,54,0,4,,,,,,,,,3,,,54,75
9606,note_on,6,0,4,,,,,,,,,3,,,54,0
9660,note_on,120,0,1,,,,,,,,,0,,,78,0
9660,note_on,0,0,4,,,,,,,,,3,,,54,75
9660,control_change,54,0,4,,,,,,,,,3,64,0,,
9660,note_on,0,0,1,,,,,,,,,0,,,76,88
9666,note_on,6,0,4,,,,,,,,,3,,,54,0
9690,note_on,30,0,1,,,,,,,,,0,,,76,0
9690,control_change,0,0,1,,,,,,,,,0,64,0,,
9690,note_on,0,0,1,,,,,,,,,0,,,74,88
9720,control_change,0,0,1,,,,,,,,,0,64,127,,
9720,note_on,0,0,4,,,,,,,,,3,,,54,75
9720,note_on,180,0,2,,,,,,,,,1,,,71,0
9720,note_on,0,0,2,,,,,,,,,1,,,66,0
9720,note_on,0,0,2,,,,,,,,,1,,,67,75
9720,note_on,0,0,2,,,,,,,,,1,,,70,75
9720,note_on,30,0,1,,,,,,,,,0,,,74,0
9720,note_on,180,0,3,,,,,,,,,2,,,62,0
9720,control_change,54,0,4,,,,,,,,,3,64,127,,
9720,note_on,0,0,3,,,,,,,,,2,,,64,75
9720,note_on,0,0,1,,,,,,,,,0,,,73,114
9726,note_on,6,0,4,,,,,,,,,3,,,54,0
9780,note_on,54,0,4,,,,,,,,,3,,,54,75
9786,note_on,6,0,4,,,,,,,,,3,,,54,0
9840,note_on,0,0,4,,,,,,,,,3,,,54,75
9840,control_change,54,0,4,,,,,,,,,3,64,0,,
9840,note_on,0,0,1,,,,,,,,,0,,,74,88
9840,note_on,120,0,1,,,,,,,,,0,,,73,0
9846,note_on,6,0,4,,,,,,,,,3,,,54,0
9870,note_on,30,0,1,,,,,,,,,0,,,74,0
9870,note_on,0,0,1,,,,,,,,,0,,,76,88
9870,control_change,0,0,1,,,,,,,,,0,64,0,,
9900,note_on,180,0,2,,,,,,,,,1,,,70,0
9900,note_on,0,0,2,,,,,,,,,1,,,67,0
9900,note_on,0,0,3,,,,,,,,,2,,,65,88
9900,control_change,0,0,3,,,,,,,,,2,64,127,,
9900,note_on,0,0,3,,,,,,,,,2,,,54,88
9900,note_on,180,0,3,,,,,,,,,2,,,64,0
9900,note_on,30,0,1,,,,,,,,,0,,,76,0
9900,control_change,0,0,1,,,,,,,,,0,64,127,,
9900,note_on,0,0,1,,,,,,,,,0,,,68,101
9900,note_on,0,0,1,,,,,,,,,0,,,71,101
9900,note_on,0,0,1,,,,,,,,,0,,,74,101
9900,note_on,0,0,1,,,,,,,,,0,,,77,101
9900,note_on,0,0,3,,,,,,,,,2,,,62,88
9906,note_on,0,0,1,,,,,,,,,0,,,71,0
9906,note_on,0,0,3,,,,,,,,,2,,,54,0
9906,note_on,0,0,1,,,,,,,,,0,,,74,0
9906,note_on,0,0,3,,,,,,,,,2,,,62,0
9906,note_on,6,0,3,,,,,,,,,2,,,65,0
9906,note_on,6,0,1,,,,,,,,,0,,,77,0
9906,note_on,0,0,1,,,,,,,,,0,,,68,0
9960,note_on,0,0,3,,,,,,,,,2,,,62,88
9960,note_on,54,0,3,,,,,,,,,2,,,54,88
9960,note_on,54,0,1,,,,,,,,,0,,,68,101
9960,note_on,0,0,1,,,,,,,,,0,,,74,101
9960,note_on,0,0,3,,,,,,,,,2,,,65,88
9960,note_on,0,0,1,,,,,,,,,0,,,77,101
9960,note_on,0,0,1,,,,,,,,,0,,,71,101
9966,note_on,0,0,1,,,,,,,,,0,,,71,0
9966,note_on,0,0,1,,,,,,,,,0,,,74,0
9966,note_on,0,0,1,,,,,,,,,0,,,68,0
9966,note_on,6,0,3,,,,,,,,,2,,,65,0
9966,note_on,0,0,3,,,,,,,,,2,,,62,0
9966,note_on,0,0,3,,,,,,,,,2,,,54,0
9966,note_on,6,0,1,,,,,,,,,0,,,77,0
10020,note_on,0,0,3,,,,,,,,,2,,,65,88
10020,note_on,54,0,3,,,,,,,,,2,,,54,88
10020,note_on,0,0,3,,,,,,,,,2,,,62,88
10020,note_on,0,0,1,,,,,,,,,0,,,77,101
10020,note_on,54,0,1,,,,,,,,,0,,,68,101
10020,note_on,0,0,1,,,,,,,,,0,,,71,101
10020,note_on,0,0,1,,,,,,,,,0,,,74,101
10026,note_on,0,0,3,,,,,,,,,2,,,54,0
10026,note_on,6,0,1,,,,,,,,,0,,,77,0
10026,note_on,0,0,1,,,,,,,,,0,,,68,0
10026,note_on,0,0,1,,,,,,,,,0,,,71,0
10026,note_on,6,0,3,,,,,,,,,2,,,65,0
10026,note_on,0,0,3,,,,,,,,,2,,,62,0
10026,note_on,0,0,1,,,,,,,,,0,,,74,0
10080,note_on,54,0,1,,,,,,,,,0,,,68,101
10080,note_on,0,0,3,,,,,,,,,2,,,65,88
10080,note_on,0,0,1,,,,,,,,,0,,,77,101
10080,note_on,0,0,3,,,,,,,,,2,,,62,88
10080,note_on,54,0,3,,,,,,,,,2,,,54,88
10080,note_on,0,0,1,,,,,,,,,0,,,74,101
10080,note_on,0,0,1,,,,,,,,,0,,,71,101
10086,note_on,0,0,1,,,,,,,,,0,,,74,0
10086,note_on,0,0,1,,,,,,,,,0,,,71,0
10086,note_on,0,0,1,,,,,,,,,0,,,68,0
10086,note_on,6,0,1,,,,,,,,,0,,,77,0
10086,note_on,0,0,3,,,,,,,,,2,,,54,0
10086,note_on,0,0,3,,,,,,,,,2,,,62,0
10086,note_on,6,0,3,,,,,,,,,2,,,65,0
10140,note_on,0,0,3,,,,,,,,,2,,,65,88
10140,note_on,0,0,3,,,,,,,,,2,,,62,88
10140,note_on,0,0,1,,,,,,,,,0,,,77,101
10140,note_on,0,0,1,,,,,,,,,0,,,74,101
10140,note_on,0,0,1,,,,,,,,,0,,,71,101
10140,note_on,54,0,1,,,,,,,,,0,,,68,101
10140,note_on,54,0,3,,,,,,,,,2,,,54,88
10146,note_on,0,0,3,,,,,,,,,2,,,54,0
10146,note_on,6,0,3,,,,,,,,,2,,,65,0
10146,note_on,0,0,3,,,,,,,,,2,,,62,0
10146,note_on,6,0,1,,,,,,,,,0,,,77,0
10146,note_on,0,0,1,,,,,,,,,0,,,68,0
10146,note_on,0,0,1,,,,,,,,,0,,,71,0
10146,note_on,0,0,1,,,,,,,,,0,,,74,0
10200,note_on,0,0,1,,,,,,,,,0,,,74,101
10200,control_change,54,0,1,,,,,,,,,0,64,0,,
10200,note_on,0,0,1,,,,,,,,,0,,,68,101
10200,note_on,0,0,1,,,,,,,,,0,,,71,101
10200,control_change,54,0,3,,,,,,,,,2,64,0,,
10200,note_on,0,0,3,,,,,,,,,2,,,54,88
10200,note_on,0,0,3,,,,,,,,,2,,,62,88
10200,note_on,0,0,3,,,,,,,,,2,,,65,88
10200,note_on,0,0,1,,,,,,,,,0,,,77,101
10206,note_on,6,0,1,,,,,,,,,0,,,77,0
10206,note_on,6,0,3,,,,,,,,,2,,,65,0
10206,note_on,0,0,3,,,,,,,,,2,,,54,0
10206,note_on,0,0,3,,,,,,,,,2,,,62,0
10206,note_on,0,0,1,,,,,,,,,0,,,74,0
10206,note_on,0,0,1,,,,,,,,,0,,,68,0
10206,note_on,0,0,1,,,,,,,,,0,,,71,0
10260,control_change,54,0,1,,,,,,,,,0,64,127,,
10260,note_on,0,0,1,,,,,,,,,0,,,70,101
10260,note_on,0,0,1,,,,,,,,,0,,,78,101
10260,control_change,54,0,3,,,,,,,,,2,64,127,,
10260,note_on,0,0,1,,,,,,,,,0,,,73,101
10260,note_on,0,0,3,,,,,,,,,2,,,66,88
10260,note_on,0,0,3,,,,,,,,,2,,,61,88
10260,note_on,0,0,3,,,,,,,,,2,,,54,88
10266,note_on,6,0,3,,,,,,,,,2,,,66,0
10266,note_on,0,0,1,,,,,,,,,0,,,70,0
10266,note_on,0,0,1,,,,,,,,,0,,,73,0
10266,note_on,6,0,1,,,,,,,,,0,,,78,0
10266,note_on,0,0,3,,,,,,,,,2,,,61,0
10266,note_on,0,0,3,,,,,,,,,2,,,54,0
10380,control_change,114,0,1,,,,,,,,,0,64,0,,
10380,control_change,114,0,3,,,,,,,,,2,64,0,,
10620,note_on,0,0,1,,,,,,,,,0,,,65,49
10620,note_on,0,0,3,,,,,,,,,2,,,53,36
10620,note_on,0,0,3,,,,,,,,,2,,,50,36
10620,note_on,240,0,3,,,,,,,,,2,,,42,36
10620,note_on,240,0,1,,,,,,,,,0,,,56,49
10620,note_on,0,0,1,,,,,,,,,0,,,59,49
10620,note_on,0,0,1,,,,,,,,,0,,,62,49
10626,note_on,6,0,3,,,,,,,,,2,,,53,0
10626,note_on,0,0,3,,,,,,,,,2,,,50,0
10626,note_on,0,0,3,,,,,,,,,2,,,42,0
10626,note_on,0,0,1,,,,,,,,,0,,,62,0
10626,note_on,0,0,1,,,,,,,,,0,,,59,0
10626,note_on,6,0,1,,,,,,,,,0,,,65,0
10626,note_on,0,0,1,,,,,,,,,0,,,56,0
10680,note_on,54,0,3,,,,,,,,,2,,,42,36
10680,note_on,0,0,3,,,,,,,,,2,,,50,36
10680,note_on,0,0,3,,,,,,,,,2,,,53,36
10680,note_on,0,0,1,,,,,,,,,0,,,62,49
10680,note_on,54,0,1,,,,,,,,,0,,,56,49
10680,note_on,0,0,1,,,,,,,,,0,,,59,49
10680,note_on,0,0,1,,,,,,,,,0,,,65,49
10686,note_on,0,0,3,,,,,,,,,2,,,42,0
10686,note_on,0,0,3,,,,,,,,,2,,,50,0
10686,note_on,6,0,1,,,,,,,,,0,,,65,0
10686,note_on,6,0,3,,,,,,,,,2,,,53,0
10686,note_on,0,0,1,,,,,,,,,0,,,59,0
10686,note_on,0,0,1,,,,,,,,,0,,,62,0
10686,note_on,0,0,1,,,,,,,,,0,,,56,0
10740,note_on,0,0,1,,,,,,,,,0,,,62,49
10740,note_on,54,0,3,,,,,,,,,2,,,42,36
10740,note_on,0,0,3,,,,,,,,,2,,,50,36
10740,note_on,0,0,3,,,,,,,,,2,,,53,36
10740,note_on,0,0,1,,,,,,,,,0,,,65,49
10740,note_on,0,0,1,,,,,,,,,0,,,59,49
10740,note_on,54,0,1,,,,,,,,,0,,,56,49
10746,note_on,0,0,1,,,,,,,,,0,,,59,0
10746,note_on,6,0,3,,,,,,,,,2,,,53,0
10746,note_on,0,0,3,,,,,,,,,2,,,42,0
10746,note_on,6,0,1,,,,,,,,,0,,,65,0
10746,note_on,0,0,1,,,,,,,,,0,,,62,0
10746,note_on,0,0,1,,,,,,,,,0,,,56,0
10746,note_on,0,0,3,,,,,,,,,2,,,50,0
10800,note_on,0,0,1,,,,,,,,,0,,,62,49
10800,note_on,0,0,1,,,,,,,,,0,,,65,49
10800,note_on,0,0,3,,,,,,,,,2,,,53,36
10800,note_on,0,0,3,,,,,,,,,2,,,50,36
10800,note_on,54,0,3,,,,,,,,,2,,,42,36
10800,note_on,54,0,1,,,,,,,,,0,,,56,49
10800,note_on,0,0,1,,,,,,,,,0,,,59,49
10806,note_on,0,0,1,,,,,,,,,0,,,59,0
10806,note_on,0,0,1,,,,,,,,,0,,,56,0
10806,note_on,6,0,1,,,,,,,,,0,,,65,0
10806,note_on,0,0,3,,,,,,,,,2,,,42,0
10806,note_on,0,0,3,,,,,,,,,2,,,50,0
10806,note_on,0,0,1,,,,,,,,,0,,,62,0
10806,note_on,6,0,3,,,,,,,,,2,,,53,0
10860,note_on,54,0,1,,,,,,,,,0,,,56,49
10860,note_on,0,0,1,,,,,,,,,0,,,59,49
10860,note_on,0,0,1,,,,,,,,,0,,,65,49
10860,note_on,54,0,3,,,,,,,,,2,,,42,36
10860,note_on,0,0,3,,,,,,,,,2,,,50,36
10860,note_on,0,0,3,,,,,,,,,2,,,53,36
10860,note_on,0,0,1,,,,,,,,,0,,,62,49
10866,note_on,0,0,1,,,,,,,,,0,,,59,0
10866,note_on,0,0,1,,,,,,,,,0,,,56,0
10866,note_on,6,0,1,,,,,,,,,0,,,65,0
10866,note_on,6,0,3,,,,,,,,,2,,,53,0
10866,note_on,0,0,3,,,,,,,,,2,,,50,0
10866,note_on,0,0,3,,,,,,,,,2,,,42,0
10866,note_on,0,0,1,,,,,,,,,0,,,62,0
10920,note_on,0,0,1,,,,,,,,,0,,,62,49
10920,note_on,0,0,3,,,,,,,,,2,,,50,36
10920,note_on,54,0,3,,,,,,,,,2,,,42,36
10920,note_on,0,0,1,,,,,,,,,0,,,59,49
10920,note_on,54,0,1,,,,,,,,,0,,,56,49
10920,note_on,0,0,3,,,,,,,,,2,,,53,36
10920,note_on,0,0,1,,,,,,,,,0,,,65,49
10926,note_on,6,0,3,,,,,,,,,2,,,53,0
10926,note_on,0,0,3,,,,,,,,,2,,,50,0
10926,note_on,0,0,3,,,,,,,,,2,,,42,0
10926,note_on,0,0,1,,,,,,,,,0,,,62,0
10926,note_on,0,0,1,,,,,,,,,0,,,59,0
10926,note_on,0,0,1,,,,,,,,,0,,,56,0
10926,note_on,6,0,1,,,,,,,,,0,,,65,0
10980,note_on,0,0,1,,,,,,,,,0,,,58,49
10980,control_change,54,0,1,,,,,,,,,0,64,127,,
10980,note_on,0,0,3,,,,,,,,,2,,,54,36
10980,note_on,0,0,1,,,,,,,,,0,,,66,49
10980,note_on,0,0,3,,,,,,,,,2,,,49,36
10980,note_on,0,0,3,,,,,,,,,2,,,42,36
10980,control_change,54,0,3,,,,,,,,,2,64,127,,
10980,note_on,0,0,1,,,,,,,,,0,,,61,49
10986,note_on,0,0,3,,,,,,,,,2,,,42,0
10986,note_on,0,0,3,,,,,,,,,2,,,49,0
10986,note_on,0,0,1,,,,,,,,,0,,,61,0
10986,note_on,6,0,3,,,,,,,,,2,,,54,0
10986,note_on,0,0,1,,,,,,,,,0,,,58,0
10986,note_on,6,0,1,,,,,,,,,0,,,66,0
11040,control_change,54,0,1,,,,,,,,,0,64,0,,
11040,control_change,54,0,3,,,,,,,,,2,64,0,,
11340,control_change,300,0,1,,,,,,,,,0,64,127,,
11340,note_on,0,0,1,,,,,,,,,0,,,78,75
11340,control_change,300,0,3,,,,,,,,,2,64,127,,
11340,note_on,0,0,3,,,,,,,,,2,,,50,62
11400,note_on,0,0,3,,,,,,,,,2,,,57,62
11400,note_on,60,0,3,,,,,,,,,2,,,50,0
11460,note_on,120,0,1,,,,,,,,,0,,,78,0
11460,note_on,0,0,3,,,,,,,,,2,,,62,62
11460,note_on,60,0,3,,,,,,,,,2,,,57,0
11460,note_on,0,0,1,,,,,,,,,0,,,76,75
11505,note_on,45,0,1,,,,,,,,,0,,,76,75
11520,note_on,0,0,1,,,,,,,,,0,,,76,0
11520,note_on,15,0,1,,,,,,,,,0,,,76,0
11520,note_on,0,0,1,,,,,,,,,0,,,74,75
11520,note_on,0,0,3,,,,,,,,,2,,,54,62
11520,note_on,60,0,3,,,,,,,,,2,,,62,0
11580,note_on,0,0,3,,,,,,,,,2,,,57,62
11580,note_on,60,0,3,,,,,,,,,2,,,54,0
11580,note_on,60,0,1,,,,,,,,,0,,,74,0
11580,note_on,0,0,1,,,,,,,,,0,,,73,75
11640,control_change,0,0,3,,,,,,,,,2,64,0,,
11640,note_on,60,0,3,,,,,,,,,2,,,57,0
11640,note_on,60,0,1,,,,,,,,,0,,,73,0
11640,control_change,0,0,1,,,,,,,,,0,64,0,,
11640,note_on,0,0,1,,,,,,,,,0,,,74,75
11640,note_on,0,0,3,,,,,,,,,2,,,62,62
11700,note_on,0,0,2,,,,,,,,,1,,,69,62
11700,note_on,0,0,2,,,,,,,,,1,,,72,62
11700,note_on,0,0,1,,,,,,,,,0,,,75,101
11700,control_change,0,0,1,,,,,,,,,0,64,127,,
11700,note_on,0,0,3,,,,,,,,,2,,,55,62
11700,note_on,60,0,1,,,,,,,,,0,,,74,0
11700,control_change,1800,0,2,,,,,,,,,1,64,127,,
11700,control_change,0,0,3,,,,,,,,,2,64,127,,
11700,note_on,60,0,3,,,,,,,,,2,,,62,0
11760,note_on,0,0,3,,,,,,,,,2,,,60,62
11760,note_on,60,0,3,,,,,,,,,2,,,55,0
11820,note_on,0,0,3,,,,,,,,,2,,,63,49
11820,note_on,60,0,3,,,,,,,,,2,,,60,0
11820,note_on,0,0,1,,,,,,,,,0,,,78,62
11820,note_on,120,0,1,,,,,,,,,0,,,75,0
11880,note_on,0,0,2,,,,,,,,,1,,,69,0
11880,control_change,0,0,2,,,,,,,,,1,64,0,,
11880,note_on,0,0,2,,,,,,,,,1,,,71,49
11880,note_on,0,0,1,,,,,,,,,0,,,76,62
11880,control_change,0,0,1,,,,,,,,,0,64,0,,
11880,note_on,60,0,1,,,,,,,,,0,,,78,0
11880,note_on,60,0,3,,,,,,,,,2,,,63,0
11880,note_on,0,0,3,,,,,,,,,2,,,55,49
11880,note_on,180,0,2,,,,,,,,,1,,,72,0
11940,note_on,0,0,3,,,,,,,,,2,,,59,49
11940,note_on,60,0,3,,,,,,,,,2,,,55,0
12000,control_change,0,0,3,,,,,,,,,2,64,0,,
12000,note_on,0,0,3,,,,,,,,,2,,,64,49
12000,note_on,60,0,3,,,,,,,,,2,,,59,0
12060,control_change,0,0,3,,,,,,,,,2,64,127,,
12060,note_on,0,0,3,,,,,,,,,2,,,56,49
12060,note_on,0,0,1,,,,,,,,,0,,,83,62
12060,control_change,0,0,1,,,,,,,,,0,64,127,,
12060,note_on,180,0,1,,,,,,,,,0,,,76,0
12060,note_on,180,0,2,,,,,,,,,1,,,71,0
12060,control_change,0,0,2,,,,,,,,,1,64,127,,
12060,note_on,0,0,2,,,,,,,,,1,,,71,49
12060,note_on,60,0,3,,,,,,,,,2,,,64,0
12120,note_on,60,0,3,,,,,,,,,2,,,56,0
12120,note_on,0,0,3,,,,,,,,,2,,,62,49
12180,note_on,60,0,3,,,,,,,,,2,,,62,0
12180,note_on,0,0,3,,,,,,,,,2,,,64,49
12225,note_on,165,0,1,,,,,,,,,0,,,76,62
12240,note_on,0,0,1,,,,,,,,,0,,,74,62
12240,note_on,0,0,3,,,,,,,,,2,,,59,49
12240,note_on,60,0,3,,,,,,,,,2,,,64,0
12240,note_on,15,0,1,,,,,,,,,0,,,76,0
12240,note_on,180,0,2,,,,,,,,,1,,,71,0
12240,note_on,0,0,2,,,,,,,,,1,,,68,49
12240,note_on,0,0,1,,,,,,,,,0,,,83,0
12300,note_on,0,0,3,,,,,,,,,2,,,62,49
12300,note_on,60,0,3,,,,,,,,,2,,,59,0
12300,note_on,0,0,1,,,,,,,,,0,,,73,62
12300,note_on,60,0,1,,,,,,,,,0,,,74,0
12360,note_on,0,0,3,,,,,,,,,2,,,64,49
12360,note_on,0,0,1,,,,,,,,,0,,,74,62
12360,note_on,60,0,3,,,,,,,,,2,,,62,0
12360,note_on,60,0,1,,,,,,,,,0,,,73,0
12420,note_on,60,0,1,,,,,,,,,0,,,74,0
12420,note_on,0,0,2,,,,,,,,,1,,,69,75
12420,note_on,0,0,3,,,,,,,,,2,,,57,75
12420,note_on,60,0,3,,,,,,,,,2,,,64,0
12420,control_change,0,0,1,,,,,,,,,0,64,0,,
12420,note_on,0,0,1,,,,,,,,,0,,,78,88
12420,note_on,180,0,2,,,,,,,,,1,,,68,0
12420,control_change,0,0,2,,,,,,,,,1,64,0,,
12480,note_on,0,0,3,,,,,,,,,2,,,62,49
12480,note_on,60,0,3,,,,,,,,,2,,,57,0
12540,note_on,60,0,3,,,,,,,,,2,,,62,0
12540,note_on,0,0,3,,,,,,,,,2,,,66,49
12540,control_change,0,0,3,,,,,,,,,2,64,0,,
12600,note_on,60,0,3,,,,,,,,,2,,,66,0
12600,note_on,2754,0,4,,,,,,,,,3,,,57,62
12600,note_on,0,0,1,,,,,,,,,0,,,76,62
12600,note_on,180,0,1,,,,,,,,,0,,,78,0
12660,note_on,60,0,3,,,,,,,,,2,,,61,49
12720,note_on,120,0,1,,,,,,,,,0,,,76,0
12720,note_on,0,0,3,,,,,,,,,2,,,64,49
12720,note_on,300,0,2,,,,,,,,,1,,,69,0
12720,note_on,60,0,3,,,,,,,,,2,,,61,0
12765,note_on,45,0,1,,,,,,,,,0,,,69,62
12780,note_on,0,0,3,,,,,,,,,2,,,50,62
12780,control_change,0,0,3,,,,,,,,,2,64,127,,
12780,note_on,60,0,3,,,,,,,,,2,,,64,0
12780,note_on,180,0,4,,,,,,,,,3,,,57,0
12780,note_on,0,0,1,,,,,,,,,0,,,78,75
12780,control_change,0,0,1,,,,,,,,,0,64,127,,
12780,note_on,15,0,1,,,,,,,,,0,,,69,0
12840,note_on,0,0,3,,,,,,,,,2,,,57,62
12840,note_on,60,0,3,,,,,,,,,2,,,50,0
12900,note_on,120,0,1,,,,,,,,,0,,,78,0
12900,note_on,0,0,1,,,,,,,,,0,,,76,75
12900,note_on,60,0,3,,,,,,,,,2,,,57,0
12900,note_on,0,0,3,,,,,,,,,2,,,62,62
12945,note_on,45,0,1,,,,,,,,,0,,,76,75
12960,note_on,15,0,1,,,,,,,,,0,,,76,0
12960,note_on,0,0,1,,,,,,,,,0,,,76,0
12960,note_on,0,0,1,,,,,,,,,0,,,74,75
12960,note_on,60,0,3,,,,,,,,,2,,,62,0
12960,note_on,0,0,3,,,,,,,,,2,,,54,62
13020,note_on,60,0,3,,,,,,,,,2,,,54,0
13020,note_on,0,0,3,,,,,,,,,2,,,57,62
13020,note_on,0,0,1,,,,,,,,,0,,,73,75
13020,note_on,60,0,1,,,,,,,,,0,,,74,0
13080,note_on,0,0,1,,,,,,,,,0,,,74,75
13080,note_on,0,0,3,,,,,,,,,2,,,62,62
13080,control_change,0,0,3,,,,,,,,,2,64,0,,
13080,note_on,60,0,3,,,,,,,,,2,,,57,0
13080,note_on,60,0,1,,,,,,,,,0,,,73,0
13080,control_change,0,0,1,,,,,,,,,0,64,0,,
13140,note_on,0,0,2,,,,,,,,,1,,,69,62
13140,note_on,0,0,2,,,,,,,,,1,,,72,62
13140,note_on,0,0,1,,,,,,,,,0,,,75,101
13140,note_on,0,0,3,,,,,,,,,2,,,55,62
13140,control_change,0,0,3,,,,,,,,,2,64,127,,
13140,note_on,60,0,3,,,,,,,,,2,,,62,0
13140,note_on,60,0,1,,,,,,,,,0,,,74,0
13140,control_change,0,0,1,,,,,,,,,0,64,127,,
13140,control_change,420,0,2,,,,,,,,,1,64,127,,
13200,note_on,0,0,3,,,,,,,,,2,,,60,62
13200,note_on,60,0,3,,,,,,,,,2,,,55,0
13260,note_on,60,0,3,,,,,,,,,2,,,60,0
13260,note_on,0,0,3,,,,,,,,,2,,,63,62
13260,note_on,0,0,1,,,,,,,,,0,,,78,75
13260,note_on,120,0,1,,,,,,,,,0,,,75,0
13320,note_on,0,0,1,,,,,,,,,0,,,76,75
13320,note_on,0,0,2,,,,,,,,,1,,,71,62
13320,control_change,0,0,2,,,,,,,,,1,64,0,,
13320,note_on,0,0,2,,,,,,,,,1,,,69,0
13320,note_on,180,0,2,,,,,,,,,1,,,72,0
13320,control_change,0,0,1,,,,,,,,,0,64,0,,
13320,note_on,60,0,1,,,,,,,,,0,,,78,0
13320,note_on,60,0,3,,,,,,,,,2,,,63,0
13320,note_on,0,0,3,,,,,,,,,2,,,55,62
13380,note_on,60,0,3,,,,,,,,,2,,,55,0
13380,note_on,0,0,3,,,,,,,,,2,,,59,62
13440,note_on,60,0,3,,,,,,,,,2,,,59,0
13440,control_change,0,0,3,,,,,,,,,2,64,0,,
13440,note_on,0,0,3,,,,,,,,,2,,,64,62
13500,note_on,180,0,2,,,,,,,,,1,,,71,0
13500,note_on,180,0,1,,,,,,,,,0,,,76,0
13500,control_change,0,0,1,,,,,,,,,0,64,127,,
13500,control_change,0,0,2,,,,,,,,,1,64,127,,
13500,note_on,0,0,2,,,,,,,,,1,,,71,49
13500,note_on,0,0,1,,,,,,,,,0,,,83,62
13500,note_on,0,0,3,,,,,,,,,2,,,56,49
13500,control_change,0,0,3,,,,,,,,,2,64,127,,
13500,note_on,60,0,3,,,,,,,,,2,,,64,0
13560,note_on,60,0,3,,,,,,,,,2,,,56,0
13560,note_on,0,0,3,,,,,,,,,2,,,62,49
13620,note_on,60,0,3,,,,,,,,,2,,,62,0
13620,note_on,0,0,3,,,,,,,,,2,,,64,49
13665,note_on,165,0,1,,,,,,,,,0,,,76,62
13680,note_on,0,0,2,,,,,,,,,1,,,68,49
13680,control_change,0,0,2,,,,,,,,,1,64,0,,
13680,note_on,180,0,2,,,,,,,,,1,,,71,0
13680,note_on,0,0,1,,,,,,,,,0,,,74,62
13680,note_on,0,0,1,,,,,,,,,0,,,83,0
13680,note_on,15,0,1,,,,,,,,,0,,,76,0
13680,note_on,0,0,3,,,,,,,,,2,,,59,49
13680,note_on,60,0,3,,,,,,,,,2,,,64,0
13740,note_on,60,0,3,,,,,,,,,2,,,59,0
13740,note_on,0,0,3,,,,,,,,,2,,,62,49
13740,note_on,0,0,1,,,,,,,,,0,,,73,62
13740,note_on,60,0,1,,,,,,,,,0,,,74,0
13800,control_change,0,0,1,,,,,,,,,0,64,0,,
13800,note_on,60,0,3,,,,,,,,,2,,,62,0
13800,control_change,0,0,3,,,,,,,,,2,64,0,,
13800,note_on,0,0,3,,,,,,,,,2,,,64,49
13800,note_on,0,0,1,,,,,,,,,0,,,74,62
13800,note_on,60,0,1,,,,,,,,,0,,,73,0
13860,note_on,60,0,1,,,,,,,,,0,,,74,0
13860,note_on,0,0,1,,,,,,,,,0,,,83,62
13860,note_on,180,0,2,,,,,,,,,1,,,68,0
13860,control_change,0,0,2,,,,,,,,,1,64,127,,
13860,note_on,0,0,2,,,,,,,,,1,,,71,49
13860,control_change,0,0,1,,,,,,,,,0,64,127,,
13860,note_on,60,0,3,,,,,,,,,2,,,64,0
13860,control_change,0,0,3,,,,,,,,,2,64,127,,
13860,note_on,0,0,3,,,,,,,,,2,,,56,49
13920,note_on,0,0,3,,,,,,,,,2,,,62,49
13920,note_on,60,0,3,,,,,,,,,2,,,56,0
13980,note_on,0,0,3,,,,,,,,,2,,,64,49
13980,note_on,60,0,3,,,,,,,,,2,,,62,0
14025,note_on,165,0,1,,,,,,,,,0,,,76,62
14040,note_on,0,0,2,,,,,,,,,1,,,68,49
14040,note_on,0,0,3,,,,,,,,,2,,,59,49
14040,note_on,60,0,3,,,,,,,,,2,,,64,0
14040,control_change,0,0,2,,,,,,,,,1,64,0,,
14040,note_on,180,0,2,,,,,,,,,1,,,71,0
14040,note_on,0,0,1,,,,,,,,,0,,,74,62
14040,note_on,0,0,1,,,,,,,,,0,,,83,0
14040,note_on,15,0,1,,,,,,,,,0,,,76,0
14100,note_on,0,0,3,,,,,,,,,2,,,62,49
14100,note_on,0,0,1,,,,,,,,,0,,,73,62
14100,note_on,60,0,3,,,,,,,,,2,,,59,0
14100,note_on,60,0,1,,,,,,,,,0,,,74,0
14160,control_change,0,0,3,,,,,,,,,2,64,0,,
14160,note_on,0,0,3,,,,,,,,,2,,,64,49
14160,note_on,60,0,3,,,,,,,,,2,,,62,0
14160,note_on,0,0,1,,,,,,,,,0,,,74,62
14160,note_on,60,0,1,,,,,,,,,0,,,73,0
14160,control_change,0,0,1,,,,,,,,,0,64,0,,
14220,note_on,0,0,1,,,,,,,,,0,,,83,62
14220,control_change,0,0,1,,,,,,,,,0,64,127,,
14220,note_on,60,0,1,,,,,,,,,0,,,74,0
14220,note_on,0,0,3,,,,,,,,,2,,,56,49
14220,control_change,0,0,3,,,,,,,,,2,64,127,,
14220,note_on,180,0,2,,,,,,,,,1,,,68,0
14220,note_on,60,0,3,,,,,,,,,2,,,64,0
14220,note_on,0,0,2,,,,,,,,,1,,,71,49
14220,control_change,0,0,2,,,,,,,,,1,64,127,,
14280,note_on,60,0,3,,,,,,,,,2,,,56,0
14280,note_on,0,0,3,,,,,,,,,2,,,62,49
14340,note_on,60,0,3,,,,,,,,,2,,,62,0
14340,note_on,0,0,3,,,,,,,,,2,,,64,49
14385,note_on,165,0,1,,,,,,,,,0,,,76,62
14400,note_on,0,0,1,,,,,,,,,0,,,74,62
14400,note_on,0,0,1,,,,,,,,,0,,,83,0
14400,note_on,15,0,1,,,,,,,,,0,,,76,0
14400,note_on,0,0,2,,,,,,,,,1,,,68,49
14400,note_on,60,0,3,,,,,,,,,2,,,64,0
14400,note_on,180,0,2,,,,,,,,,1,,,71,0
14400,control_change,0,0,2,,,,,,,,,1,64,0,,
14400,note_on,0,0,3,,,,,,,,,2,,,59,49
14460,note_on,0,0,3,,,,,,,,,2,,,62,49
14460,note_on,60,0,3,,,,,,,,,2,,,59,0
14460,note_on,0,0,1,,,,,,,,,0,,,73,62
14460,note_on,60,0,1,,,,,,,,,0,,,74,0
14520,control_change,0,0,1,,,,,,,,,0,64,0,,
14520,note_on,0,0,1,,,,,,,,,0,,,74,62
14520,note_on,60,0,1,,,,,,,,,0,,,73,0
14520,note_on,60,0,3,,,,,,,,,2,,,62,0
14520,control_change,0,0,3,,,,,,,,,2,64,0,,
14520,note_on,0,0,3,,,,,,,,,2,,,64,49
14580,control_change,0,0,1,,,,,,,,,0,64,127,,
14580,note_on,60,0,1,,,,,,,,,0,,,74,0
14580,note_on,180,0,2,,,,,,,,,1,,,68,0
14580,control_change,0,0,2,,,,,,,,,1,64,127,,
14580,note_on,0,0,2,,,,,,,,,1,,,71,49
14580,note_on,0,0,1,,,,,,,,,0,,,83,62
14580,note_on,60,0,3,,,,,,,,,2,,,64,0
14580,control_change,0,0,3,,,,,,,,,2,64,127,,
14580,note_on,0,0,3,,,,,,,,,2,,,56,49
14640,note_on,0,0,3,,,,,,,,,2,,,62,49
14640,note_on,60,0,3,,,,,,,,,2,,,56,0
14700,note_on,60,0,3,,,,,,,,,2,,,62,0
14700,note_on,0,0,3,,,,,,,,,2,,,64,49
14745,note_on,165,0,1,,,,,,,,,0,,,76,62
14760,note_on,180,0,2,,,,,,,,,1,,,71,0
14760,control_change,0,0,2,,,,,,,,,1,64,0,,
14760,note_on,60,0,3,,,,,,,,,2,,,64,0
14760,note_on,0,0,3,,,,,,,,,2,,,59,49
14760,note_on,0,0,1,,,,,,,,,0,,,74,62
14760,note_on,0,0,1,,,,,,,,,0,,,83,0
14760,note_on,15,0,1,,,,,,,,,0,,,76,0
14760,note_on,0,0,2,,,,,,,,,1,,,68,49
14820,note_on,60,0,3,,,,,,,,,2,,,59,0
14820,note_on,0,0,3,,,,,,,,,2,,,62,49
14820,note_on,60,0,1,,,,,,,,,0,,,74,0
14820,note_on,0,0,1,,,,,,,,,0,,,73,62
14880,note_on,0,0,3,,,,,,,,,2,,,64,49
14880,note_on,60,0,3,,,,,,,,,2,,,62,0
14880,control_change,0,0,3,,,,,,,,,2,64,0,,
14880,control_change,0,0,1,,,,,,,,,0,64,0,,
14880,note_on,60,0,1,,,,,,,,,0,,,73,0
14880,note_on,0,0,1,,,,,,,,,0,,,74,62
14940,note_on,60,0,1,,,,,,,,,0,,,74,0
14940,control_change,0,0,1,,,,,,,,,0,64,127,,
14940,note_on,0,0,1,,,,,,,,,0,,,84,49
14940,note_on,180,0,2,,,,,,,,,1,,,68,0
14940,control_change,0,0,2,,,,,,,,,1,64,127,,
14940,note_on,60,0,3,,,,,,,,,2,,,64,0
14940,control_change,0,0,3,,,,,,,,,2,64,127,,
14940,note_on,0,0,3,,,,,,,,,2,,,57,36
14940,note_on,0,0,2,,,,,,,,,1,,,72,36
15000,note_on,60,0,3,,,,,,,,,2,,,57,0
15000,note_on,0,0,3,,,,,,,,,2,,,64,36
15060,note_on,60,0,3,,,,,,,,,2,,,64,0
15060,note_on,0,0,3,,,,,,,,,2,,,65,36
15105,note_on,165,0,1,,,,,,,,,0,,,80,49
15120,control_change,0,0,2,,,,,,,,,1,64,0,,
15120,note_on,180,0,2,,,,,,,,,1,,,72,0
15120,note_on,60,0,3,,,,,,,,,2,,,65,0
15120,note_on,0,0,1,,,,,,,,,0,,,77,49
15120,note_on,0,0,3,,,,,,,,,2,,,60,36
15120,note_on,15,0,1,,,,,,,,,0,,,80,0
15120,note_on,0,0,2,,,,,,,,,1,,,69,36
15120,note_on,0,0,1,,,,,,,,,0,,,84,0
15180,note_on,60,0,1,,,,,,,,,0,,,77,0
15180,note_on,0,0,1,,,,,,,,,0,,,76,49
15180,note_on,60,0,3,,,,,,,,,2,,,60,0
15180,note_on,0,0,3,,,,,,,,,2,,,67,36
15240,note_on,60,0,3,,,,,,,,,2,,,67,0
15240,control_change,0,0,3,,,,,,,,,2,64,0,,
15240,note_on,0,0,3,,,,,,,,,2,,,65,36
15240,control_change,0,0,1,,,,,,,,,0,64,0,,
15240,note_on,60,0,1,,,,,,,,,0,,,76,0
15240,note_on,0,0,1,,,,,,,,,0,,,77,49
15300,note_on,60,0,3,,,,,,,,,2,,,65,0
15300,note_on,60,0,1,,,,,,,,,0,,,77,0
15300,note_on,0,0,2,,,,,,,,,1,,,72,36
15300,control_change,0,0,2,,,,,,,,,1,64,127,,
15300,note_on,180,0,2,,,,,,,,,1,,,69,0
15300,note_on,0,0,3,,,,,,,,,2,,,57,36
15300,control_change,0,0,3,,,,,,,,,2,64,127,,
15300,control_change,0,0,1,,,,,,,,,0,64,127,,
15300,note_on,0,0,1,,,,,,,,,0,,,84,49
15360,note_on,0,0,3,,,,,,,,,2,,,64,36
15360,note_on,60,0,3,,,,,,,,,2,,,57,0
15420,note_on,0,0,3,,,,,,,,,2,,,65,36
15420,note_on,60,0,3,,,,,,,,,2,,,64,0
15465,note_on,165,0,1,,,,,,,,,0,,,80,49
15480,note_on,15,0,1,,,,,,,,,0,,,80,0
15480,note_on,0,0,1,,,,,,,,,0,,,84,0
15480,note_on,0,0,1,,,,,,,,,0,,,77,49
15480,note_on,180,0,2,,,,,,,,,1,,,72,0
15480,control_change,0,0,2,,,,,,,,,1,64,0,,
15480,note_on,0,0,2,,,,,,,,,1,,,69,36
15480,note_on,60,0,3,,,,,,,,,2,,,65,0
15480,note_on,0,0,3,,,,,,,,,2,,,60,36
15540,note_on,0,0,1,,,,,,,,,0,,,76,49
15540,note_on,60,0,3,,,,,,,,,2,,,60,0
15540,note_on,0,0,3,,,,,,,,,2,,,67,36
15540,note_on,60,0,1,,,,,,,,,0,,,77,0
15600,note_on,0,0,1,,,,,,,,,0,,,77,49
15600,note_on,0,0,3,,,,,,,,,2,,,65,36
15600,control_change,0,0,3,,,,,,,,,2,64,0,,
15600,note_on,60,0,3,,,,,,,,,2,,,67,0
15600,control_change,0,0,1,,,,,,,,,0,64,0,,
15600,note_on,60,0,1,,,,,,,,,0,,,76,0
15660,control_change,0,0,1,,,,,,,,,0,64,127,,
15660,note_on,0,0,2,,,,,,,,,1,,,72,36
15660,note_on,0,0,1,,,,,,,,,0,,,84,49
15660,note_on,60,0,1,,,,,,,,,0,,,77,0
15660,note_on,180,0,2,,,,,,,,,1,,,69,0
15660,control_change,0,0,2,,,,,,,,,1,64,127,,
15660,note_on,60,0,3,,,,,,,,,2,,,65,0
15660,control_change,0,0,3,,,,,,,,,2,64,127,,
15660,note_on,0,0,3,,,,,,,,,2,,,58,36
15720,note_on,0,0,3,,,,,,,,,2,,,65,36
15720,note_on,60,0,3,,,,,,,,,2,,,58,0
15780,note_on,0,0,3,,,,,,,,,2,,,64,36
15780,note_on,60,0,3,,,,,,,,,2,,,65,0
15825,note_on,165,0,1,,,,,,,,,0,,,81,49
15840,note_on,0,0,2,,,,,,,,,1,,,70,36
15840,note_on,0,0,3,,,,,,,,,2,,,60,36
15840,note_on,0,0,1,,,,,,,,,0,,,84,0
15840,note_on,15,0,1,,,,,,,,,0,,,81,0
15840,note_on,180,0,2,,,,,,,,,1,,,72,0
15840,note_on,60,0,3,,,,,,,,,2,,,64,0
15840,control_change,0,0,2,,,,,,,,,1,64,0,,
15840,note_on,0,0,1,,,,,,,,,0,,,79,49
15900,note_on,0,0,1,,,,,,,,,0,,,78,49
15900,note_on,60,0,3,,,,,,,,,2,,,60,0
15900,note_on,0,0,3,,,,,,,,,2,,,63,36
15900,note_on,60,0,1,,,,,,,,,0,,,79,0
15960,note_on,60,0,3,,,,,,,,,2,,,63,0
15960,control_change,0,0,3,,,,,,,,,2,64,0,,
15960,note_on,0,0,3,,,,,,,,,2,,,64,36
15960,note_on,60,0,1,,,,,,,,,0,,,78,0
15960,control_change,0,0,1,,,,,,,,,0,64,0,,
15960,note_on,0,0,1,,,,,,,,,0,,,79,49
16020,note_on,0,0,2,,,,,,,,,1,,,72,36
16020,note_on,60,0,3,,,,,,,,,2,,,64,0
16020,note_on,180,0,2,,,,,,,,,1,,,70,0
16020,note_on,0,0,1,,,,,,,,,0,,,84,49
16020,control_change,0,0,1,,,,,,,,,0,64,127,,
16020,control_change,0,0,2,,,,,,,,,1,64,127,,
16020,control_change,0,0,3,,,,,,,,,2,64,127,,
16020,note_on,60,0,1,,,,,,,,,0,,,79,0
16020,note_on,0,0,3,,,,,,,,,2,,,58,36
16080,note_on,60,0,3,,,,,,,,,2,,,58,0
16080,note_on,0,0,3,,,,,,,,,2,,,65,36
16140,note_on,60,0,3,,,,,,,,,2,,,65,0
16140,note_on,0,0,3,,,,,,,,,2,,,64,36
16185,note_on,165,0,1,,,,,,,,,0,,,81,49
16200,note_on,0,0,3,,,,,,,,,2,,,60,36
16200,note_on,15,0,1,,,,,,,,,0,,,81,0
16200,note_on,60,0,3,,,,,,,,,2,,,64,0
16200,note_on,180,0,2,,,,,,,,,1,,,72,0
16200,control_change,0,0,2,,,,,,,,,1,64,0,,
16200,note_on,0,0,2,,,,,,,,,1,,,70,36
16200,note_on,0,0,1,,,,,,,,,0,,,79,49
16200,note_on,0,0,1,,,,,,,,,0,,,84,0
16260,note_on,60,0,1,,,,,,,,,0,,,79,0
16260,note_on,0,0,1,,,,,,,,,0,,,78,49
16260,note_on,60,0,3,,,,,,,,,2,,,60,0
16260,note_on,0,0,3,,,,,,,,,2,,,63,36
16320,note_on,60,0,1,,,,,,,,,0,,,78,0
16320,note_on,0,0,1,,,,,,,,,0,,,79,49
16320,control_change,0,0,1,,,,,,,,,0,64,0,,
16320,note_on,60,0,3,,,,,,,,,2,,,63,0
16320,control_change,0,0,3,,,,,,,,,2,64,0,,
16320,note_on,0,0,3,,,,,,,,,2,,,64,36
16380,control_change,0,0,1,,,,,,,,,0,64,127,,
16380,note_on,60,0,1,,,,,,,,,0,,,79,0
16380,note_on,0,0,2,,,,,,,,,1,,,72,36
16380,note_on,0,0,3,,,,,,,,,2,,,57,36
16380,note_on,180,0,2,,,,,,,,,1,,,70,0
16380,control_change,0,0,2,,,,,,,,,1,64,127,,
16380,note_on,0,0,1,,,,,,,,,0,,,84,36
16380,control_change,0,0,3,,,,,,,,,2,64,127,,
16380,note_on,60,0,3,,,,,,,,,2,,,64,0
16440,note_on,0,0,3,,,,,,,,,2,,,64,36
16440,note_on,60,0,3,,,,,,,,,2,,,57,0
16500,note_on,0,0,3,,,,,,,,,2,,,65,36
16500,note_on,60,0,3,,,,,,,,,2,,,64,0
16545,note_on,165,0,1,,,,,,,,,0,,,79,36
16560,control_change,0,0,2,,,,,,,,,1,64,0,,
16560,note_on,180,0,2,,,,,,,,,1,,,72,0
16560,note_on,0,0,2,,,,,,,,,1,,,69,36
16560,note_on,0,0,3,,,,,,,,,2,,,60,36
16560,note_on,0,0,1,,,,,,,,,0,,,77,36
16560,note_on,0,0,1,,,,,,,,,0,,,84,0
16560,note_on,15,0,1,,,,,,,,,0,,,79,0
16560,note_on,60,0,3,,,,,,,,,2,,,65,0
16620,note_on,0,0,3,,,,,,,,,2,,,67,36
16620,note_on,0,0,1,,,,,,,,,0,,,76,36
16620,note_on,60,0,1,,,,,,,,,0,,,77,0
16620,note_on,60,0,3,,,,,,,,,2,,,60,0
16680,note_on,60,0,1,,,,,,,,,0,,,76,0
16680,note_on,0,0,1,,,,,,,,,0,,,77,36
16680,control_change,0,0,1,,,,,,,,,0,64,0,,
16680,note_on,0,0,3,,,,,,,,,2,,,65,36
16680,note_on,60,0,3,,,,,,,,,2,,,67,0
16680,control_change,0,0,3,,,,,,,,,2,64,0,,
16740,note_on,60,0,3,,,,,,,,,2,,,65,0
16740,note_on,0,0,1,,,,,,,,,0,,,84,36
16740,control_change,0,0,1,,,,,,,,,0,64,127,,
16740,note_on,0,0,2,,,,,,,,,1,,,72,36
16740,note_on,60,0,1,,,,,,,,,0,,,77,0
16740,control_change,0,0,2,,,,,,,,,1,64,127,,
16740,note_on,180,0,2,,,,,,,,,1,,,69,0
16740,note_on,0,0,3,,,,,,,,,2,,,57,36
16740,control_change,0,0,3,,,,,,,,,2,64,127,,
16800,note_on,0,0,3,,,,,,,,,2,,,64,36
16800,note_on,60,0,3,,,,,,,,,2,,,57,0
16860,note_on,0,0,3,,,,,,,,,2,,,65,36
16860,note_on,60,0,3,,,,,,,,,2,,,64,0
16905,note_on,165,0,1,,,,,,,,,0,,,79,36
16920,note_on,15,0,1,,,,,,,,,0,,,79,0
16920,note_on,0,0,1,,,,,,,,,0,,,84,0
16920,note_on,0,0,1,,,,,,,,,0,,,77,36
16920,note_on,0,0,3,,,,,,,,,2,,,60,36
16920,note_on,180,0,2,,,,,,,,,1,,,72,0
16920,note_on,0,0,2,,,,,,,,,1,,,69,36
16920,note_on,60,0,3,,,,,,,,,2,,,65,0
16980,note_on,60,0,1,,,,,,,,,0,,,77,0
16980,note_on,60,0,3,,,,,,,,,2,,,60,0
16980,note_on,0,0,3,,,,,,,,,2,,,67,36
16980,note_on,0,0,1,,,,,,,,,0,,,76,36
17040,note_on,0,0,1,,,,,,,,,0,,,77,36
17040,control_change,0,0,1,,,,,,,,,0,64,0,,
17040,note_on,60,0,1,,,,,,,,,0,,,76,0
17040,note_on,60,0,3,,,,,,,,,2,,,67,0
17040,control_change,0,0,3,,,,,,,,,2,64,0,,
17040,note_on,0,0,3,,,,,,,,,2,,,65,36
17100,note_on,60,0,1,,,,,,,,,0,,,77,0
17100,control_change,0,0,3,,,,,,,,,2,64,127,,
17100,note_on,180,0,2,,,,,,,,,1,,,69,0
17100,control_change,0,0,2,,,,,,,,,1,64,127,,
17100,note_on,0,0,2,,,,,,,,,1,,,72,36
17100,note_on,60,0,3,,,,,,,,,2,,,65,0
17100,note_on,0,0,1,,,,,,,,,0,,,84,36
17100,note_on,0,0,3,,,,,,,,,2,,,58,36
17100,control_change,0,0,1,,,,,,,,,0,64,127,,
17160,note_on,60,0,3,,,,,,,,,2,,,58,0
17160,note_on,0,0,3,,,,,,,,,2,,,65,36
17220,note_on,60,0,3,,,,,,,,,2,,,65,0
17220,note_on,0,0,3,,,,,,,,,2,,,64,36
17265,note_on,165,0,1,,,,,,,,,0,,,81,36
17280,control_change,0,0,2,,,,,,,,,1,64,0,,
17280,note_on,0,0,1,,,,,,,,,0,,,79,36
17280,note_on,0,0,1,,,,,,,,,0,,,84,0
17280,note_on,15,0,1,,,,,,,,,0,,,81,0
17280,note_on,60,0,3,,,,,,,,,2,,,64,0
17280,note_on,0,0,2,,,,,,,,,1,,,70,36
17280,note_on,180,0,2,,,,,,,,,1,,,72,0
17280,note_on,0,0,3,,,,,,,,,2,,,60,36
17340,note_on,0,0,3,,,,,,,,,2,,,63,36
17340,note_on,60,0,3,,,,,,,,,2,,,60,0
17340,note_on,0,0,1,,,,,,,,,0,,,78,36
17340,note_on,60,0,1,,,,,,,,,0,,,79,0
17400,control_change,0,0,3,,,,,,,,,2,64,0,,
17400,note_on,60,0,3,,,,,,,,,2,,,63,0
17400,note_on,0,0,3,,,,,,,,,2,,,64,36
17400,control_change,0,0,1,,,,,,,,,0,64,0,,
17400,note_on,60,0,1,,,,,,,,,0,,,78,0
17400,note_on,0,0,1,,,,,,,,,0,,,79,36
17460,control_change,0,0,3,,,,,,,,,2,64,127,,
17460,note_on,60,0,1,,,,,,,,,0,,,79,0
17460,control_change,0,0,1,,,,,,,,,0,64,127,,
17460,note_on,0,0,1,,,,,,,,,0,,,84,36
17460,note_on,0,0,2,,,,,,,,,1,,,72,36
17460,note_on,60,0,3,,,,,,,,,2,,,64,0
17460,control_change,0,0,2,,,,,,,,,1,64,127,,
17460,note_on,0,0,3,,,,,,,,,2,,,58,36
17460,note_on,180,0,2,,,,,,,,,1,,,70,0
17520,note_on,0,0,3,,,,,,,,,2,,,65,36
17520,note_on,60,0,3,,,,,,,,,2,,,58,0
17580,note_on,60,0,3,,,,,,,,,2,,,65,0
17580,note_on,0,0,3,,,,,,,,,2,,,64,36
17625,note_on,165,0,1,,,,,,,,,0,,,81,36
17640,note_on,0,0,3,,,,,,,,,2,,,60,36
17640,note_on,0,0,2,,,,,,,,,1,,,70,36
17640,control_change,0,0,2,,,,,,,,,1,64,0,,
17640,note_on,0,0,1,,,,,,,,,0,,,79,36
17640,note_on,0,0,1,,,,,,,,,0,,,84,0
17640,note_on,15,0,1,,,,,,,,,0,,,81,0
17640,note_on,180,0,2,,,,,,,,,1,,,72,0
17640,note_on,60,0,3,,,,,,,,,2,,,64,0
17700,note_on,60,0,1,,,,,,,,,0,,,79,0
17700,note_on,0,0,3,,,,,,,,,2,,,63,36
17700,note_on,60,0,3,,,,,,,,,2,,,60,0
17700,note_on,0,0,1,,,,,,,,,0,,,78,36
17760,note_on,60,0,3,,,,,,,,,2,,,63,0
17760,control_change,0,0,3,,,,,,,,,2,64,0,,
17760,note_on,0,0,3,,,,,,,,,2,,,64,36
17760,note_on,0,0,1,,,,,,,,,0,,,79,36
17760,control_change,0,0,1,,,,,,,,,0,64,0,,
17760,note_on,60,0,1,,,,,,,,,0,,,78,0
17820,note_on,60,0,1,,,,,,,,,0,,,79,0
17820,control_change,0,0,1,,,,,,,,,0,64,127,,
17820,note_on,0,0,1,,,,,,,,,0,,,71,114
17820,note_on,0,0,1,,,,,,,,,0,,,80,114
17820,note_on,180,0,2,,,,,,,,,1,,,70,0
17820,note_on,60,0,3,,,,,,,,,2,,,64,0
17820,control_change,0,0,3,,,,,,,,,2,64,127,,
17820,note_on,0,0,3,,,,,,,,,2,,,64,101
17820,note_on,0,0,3,,,,,,,,,2,,,68,101
17820,note_on,0,0,1,,,,,,,,,0,,,76,114
17820,note_on,5040,0,4,,,,,,,,,3,,,59,101
17826,note_on,6,0,3,,,,,,,,,2,,,68,0
17826,note_on,0,0,3,,,,,,,,,2,,,64,0
17880,note_on,54,0,3,,,,,,,,,2,,,64,36
17880,note_on,0,0,3,,,,,,,,,2,,,68,36
17886,note_on,0,0,3,,,,,,,,,2,,,64,0
17886,note_on,6,0,3,,,,,,,,,2,,,68,0
17940,note_on,54,0,3,,,,,,,,,2,,,64,36
17940,note_on,0,0,3,,,,,,,,,2,,,68,36
17946,note_on,6,0,3,,,,,,,,,2,,,68,0
17946,note_on,0,0,3,,,,,,,,,2,,,64,0
18000,note_on,54,0,3,,,,,,,,,2,,,64,36
18000,note_on,0,0,3,,,,,,,,,2,,,68,36
18006,note_on,6,0,3,,,,,,,,,2,,,68,0
18006,note_on,0,0,3,,,,,,,,,2,,,64,0
18060,note_on,54,0,3,,,,,,,,,2,,,64,36
18060,note_on,240,0,1,,,,,,,,,0,,,80,0
18060,note_on,0,0,1,,,,,,,,,0,,,76,0
18060,note_on,0,0,1,,,,,,,,,0,,,71,0
18060,note_on,0,0,1,,,,,,,,,0,,,81,49
18060,note_on,0,0,3,,,,,,,,,2,,,68,36
18066,note_on,0,0,3,,,,,,,,,2,,,64,0
18066,note_on,6,0,3,,,,,,,,,2,,,68,0
18090,note_on,30,0,1,,,,,,,,,0,,,81,0
18090,note_on,0,0,1,,,,,,,,,0,,,80,49
18120,note_on,0,0,1,,,,,,,,,0,,,78,49
18120,note_on,30,0,1,,,,,,,,,0,,,80,0
18120,note_on,0,0,3,,,,,,,,,2,,,68,36
18120,control_change,54,0,3,,,,,,,,,2,64,0,,
18120,note_on,0,0,3,,,,,,,,,2,,,64,36
18126,note_on,0,0,3,,,,,,,,,2,,,64,0
18126,note_on,6,0,3,,,,,,,,,2,,,68,0
18150,note_on,0,0,1,,,,,,,,,0,,,76,49
18150,control_change,0,0,1,,,,,,,,,0,64,0,,
18150,note_on,30,0,1,,,,,,,,,0,,,78,0
18180,note_on,30,0,1,,,,,,,,,0,,,76,0
18180,note_on,0,0,3,,,,,,,,,2,,,69,36
18180,note_on,0,0,3,,,,,,,,,2,,,66,36
18180,note_on,360,0,2,,,,,,,,,1,,,75,36
18180,note_on,0,0,4,,,,,,,,,3,,,59,36
18180,note_on,0,0,1,,,,,,,,,0,,,75,49
18180,control_change,54,0,3,,,,,,,,,2,64,127,,
18180,note_on,360,0,4,,,,,,,,,3,,,59,0
18180,control_change,0,0,1,,,,,,,,,0,64,127,,
18186,note_on,0,0,3,,,,,,,,,2,,,66,0
18186,note_on,6,0,3,,,,,,,,,2,,,69,0
18240,note_on,0,0,3,,,,,,,,,2,,,69,36
18240,note_on,54,0,3,,,,,,,,,2,,,66,36
18240,note_on,0,0,1,,,,,,,,,0,,,82,49
18240,note_on,60,0,1,,,,,,,,,0,,,75,0
18246,note_on,6,0,3,,,,,,,,,2,,,69,0
18246,note_on,0,0,3,,,,,,,,,2,,,66,0
18300,note_on,0,0,1,,,,,,,,,0,,,83,49
18300,note_on,54,0,3,,,,,,,,,2,,,66,36
18300,note_on,0,0,3,,,,,,,,,2,,,69,36
18300,note_on,60,0,1,,,,,,,,,0,,,82,0
18306,note_on,6,0,3,,,,,,,,,2,,,69,0
18306,note_on,0,0,3,,,,,,,,,2,,,66,0
18360,note_on,54,0,3,,,,,,,,,2,,,66,36
18360,control_change,0,0,1,,,,,,,,,0,64,0,,
18360,note_on,0,0,1,,,,,,,,,0,,,83,49
18360,note_on,60,0,1,,,,,,,,,0,,,83,0
18360,note_on,0,0,3,,,,,,,,,2,,,69,36
18366,note_on,6,0,3,,,,,,,,,2,,,69,0
18366,note_on,0,0,3,,,,,,,,,2,,,66,0
18420,note_on,54,0,3,,,,,,,,,2,,,66,36
18420,note_on,0,0,3,,,,,,,,,2,,,69,36
18426,note_on,6,0,3,,,,,,,,,2,,,69,0
18426,note_on,0,0,3,,,,,,,,,2,,,66,0
18480,note_on,0,0,3,,,,,,,,,2,,,69,36
18480,note_on,0,0,3,,,,,,,,,2,,,66,36
18480,control_change,54,0,3,,,,,,,,,2,64,0,,
18486,note_on,0,0,3,,,,,,,,,2,,,66,0
18486,note_on,6,0,3,,,,,,,,,2,,,69,0
18540,control_change,54,0,3,,,,,,,,,2,64,127,,
18540,note_on,360,0,2,,,,,,,,,1,,,75,0
18540,note_on,360,0,4,,,,,,,,,3,,,59,0
18540,note_on,0,0,3,,,,,,,,,2,,,52,75
18540,note_on,0,0,3,,,,,,,,,2,,,56,75
18540,note_on,0,0,1,,,,,,,,,0,,,68,88
18540,note_on,0,0,1,,,,,,,,,0,,,64,88
18540,control_change,0,0,1,,,,,,,,,0,64,127,,
18540,note_on,180,0,1,,,,,,,,,0,,,83,0
18540,note_on,0,0,1,,,,,,,,,0,,,59,88
18540,note_on,0,0,4,,,,,,,,,3,,,47,75
18546,note_on,0,0,3,,,,,,,,,2,,,52,0
18546,note_on,6,0,3,,,,,,,,,2,,,56,0
18600,note_on,54,0,3,,,,,,,,,2,,,52,36
18600,note_on,0,0,3,,,,,,,,,2,,,56,36
18606,note_on,6,0,3,,,,,,,,,2,,,56,0
18606,note_on,0,0,3,,,,,,,,,2,,,52,0
18660,note_on,0,0,3,,,,,,,,,2,,,56,36
18660,note_on,54,0,3,,,,,,,,,2,,,52,36
18666,note_on,6,0,3,,,,,,,,,2,,,56,0
18666,note_on,0,0,3,,,,,,,,,2,,,52,0
18720,note_on,54,0,3,,,,,,,,,2,,,52,36
18720,note_on,0,0,3,,,,,,,,,2,,,56,36
18726,note_on,6,0,3,,,,,,,,,2,,,56,0
18726,note_on,0,0,3,,,,,,,,,2,,,52,0
18780,note_on,240,0,1,,,,,,,,,0,,,68,0
18780,note_on,0,0,1,,,,,,,,,0,,,64,0
18780,note_on,0,0,1,,,,,,,,,0,,,59,0
18780,note_on,0,0,1,,,,,,,,,0,,,69,49
18780,note_on,0,0,3,,,,,,,,,2,,,56,36
18780,note_on,54,0,3,,,,,,,,,2,,,52,36
18786,note_on,0,0,3,,,,,,,,,2,,,52,0
18786,note_on,6,0,3,,,,,,,,,2,,,56,0
18810,note_on,30,0,1,,,,,,,,,0,,,69,0
18810,note_on,0,0,1,,,,,,,,,0,,,68,49
18840,note_on,0,0,1,,,,,,,,,0,,,66,49
18840,note_on,30,0,1,,,,,,,,,0,,,68,0
18840,control_change,54,0,3,,,,,,,,,2,64,0,,
18840,note_on,0,0,3,,,,,,,,,2,,,52,36
18840,note_on,0,0,3,,,,,,,,,2,,,56,36
18846,note_on,6,0,3,,,,,,,,,2,,,56,0
18846,note_on,0,0,3,,,,,,,,,2,,,52,0
18870,control_change,0,0,1,,,,,,,,,0,64,0,,
18870,note_on,30,0,1,,,,,,,,,0,,,66,0
18870,note_on,0,0,1,,,,,,,,,0,,,64,49
18900,note_on,360,0,2,,,,,,,,,1,,,63,36
18900,note_on,0,0,3,,,,,,,,,2,,,57,36
18900,note_on,0,0,4,,,,,,,,,3,,,47,36
18900,note_on,30,0,1,,,,,,,,,0,,,64,0
18900,note_on,0,0,3,,,,,,,,,2,,,54,36
18900,note_on,0,0,1,,,,,,,,,0,,,63,49
18900,control_change,0,0,1,,,,,,,,,0,64,127,,
18900,note_on,360,0,4,,,,,,,,,3,,,47,0
18900,control_change,54,0,3,,,,,,,,,2,64,127,,
18906,note_on,0,0,3,,,,,,,,,2,,,54,0
18906,note_on,6,0,3,,,,,,,,,2,,,57,0
18960,note_on,0,0,3,,,,,,,,,2,,,57,36
18960,note_on,54,0,3,,,,,,,,,2,,,54,36
18960,note_on,60,0,1,,,,,,,,,0,,,63,0
18960,note_on,0,0,1,,,,,,,,,0,,,73,49
18966,note_on,6,0,3,,,,,,,,,2,,,57,0
18966,note_on,0,0,3,,,,,,,,,2,,,54,0
19020,note_on,54,0,3,,,,,,,,,2,,,54,36
19020,note_on,0,0,3,,,,,,,,,2,,,57,36
19020,note_on,60,0,1,,,,,,,,,0,,,73,0
19020,note_on,0,0,1,,,,,,,,,0,,,71,49
19026,note_on,6,0,3,,,,,,,,,2,,,57,0
19026,note_on,0,0,3,,,,,,,,,2,,,54,0
19080,control_change,0,0,1,,,,,,,,,0,64,0,,
19080,note_on,0,0,1,,,,,,,,,0,,,71,49
19080,note_on,60,0,1,,,,,,,,,0,,,71,0
19080,note_on,0,0,3,,,,,,,,,2,,,57,36
19080,note_on,54,0,3,,,,,,,,,2,,,54,36
19086,note_on,0,0,3,,,,,,,,,2,,,54,0
19086,note_on,6,0,3,,,,,,,,,2,,,57,0
19140,note_on,0,0,3,,,,,,,,,2,,,57,36
19140,note_on,54,0,3,,,,,,,,,2,,,54,36
19146,note_on,6,0,3,,,,,,,,,2,,,57,0
19146,note_on,0,0,3,,,,,,,,,2,,,54,0
19200,note_on,0,0,3,,,,,,,,,2,,,57,36
19200,note_on,0,0,3,,,,,,,,,2,,,54,36
19200,control_change,54,0,3,,,,,,,,,2,64,0,,
19206,note_on,6,0,3,,,,,,,,,2,,,57,0
19206,note_on,0,0,3,,,,,,,,,2,,,54,0
19260,note_on,0,0,4,,,,,,,,,3,,,59,75
19260,note_on,360,0,4,,,,,,,,,3,,,47,0
19260,control_change,0,0,1,,,,,,,,,0,64,127,,
19260,note_on,360,0,2,,,,,,,,,1,,,63,0
19260,note_on,0,0,1,,,,,,,,,0,,,71,88
19260,note_on,0,0,1,,,,,,,,,0,,,76,88
19260,note_on,0,0,1,,,,,,,,,0,,,79,88
19260,control_change,54,0,3,,,,,,,,,2,64,127,,
19260,note_on,180,0,1,,,,,,,,,0,,,71,0
19260,note_on,0,0,3,,,,,,,,,2,,,67,75
19260,note_on,0,0,3,,,,,,,,,2,,,64,75
19266,note_on,0,0,3,,,,,,,,,2,,,64,0
19266,note_on,6,0,3,,,,,,,,,2,,,67,0
19320,note_on,54,0,3,,,,,,,,,2,,,64,36
19320,note_on,0,0,3,,,,,,,,,2,,,67,36
19326,note_on,6,0,3,,,,,,,,,2,,,67,0
19326,note_on,0,0,3,,,,,,,,,2,,,64,0
19380,note_on,54,0,3,,,,,,,,,2,,,64,36
19380,note_on,0,0,3,,,,,,,,,2,,,67,36
19386,note_on,0,0,3,,,,,,,,,2,,,64,0
19386,note_on,6,0,3,,,,,,,,,2,,,67,0
19440,note_on,0,0,3,,,,,,,,,2,,,67,36
19440,note_on,54,0,3,,,,,,,,,2,,,64,36
19446,note_on,6,0,3,,,,,,,,,2,,,67,0
19446,note_on,0,0,3,,,,,,,,,2,,,64,0
19500,note_on,240,0,1,,,,,,,,,0,,,79,0
19500,note_on,54,0,3,,,,,,,,,2,,,64,36
19500,note_on,0,0,1,,,,,,,,,0,,,71,0
19500,note_on,0,0,1,,,,,,,,,0,,,81,88
19500,note_on,0,0,3,,,,,,,,,2,,,67,36
19500,note_on,0,0,1,,,,,,,,,0,,,76,0
19506,note_on,0,0,3,,,,,,,,,2,,,64,0
19506,note_on,6,0,3,,,,,,,,,2,,,67,0
19530,note_on,0,0,1,,,,,,,,,0,,,79,88
19530,note_on,30,0,1,,,,,,,,,0,,,81,0
19560,note_on,0,0,3,,,,,,,,,2,,,64,36
19560,note_on,0,0,3,,,,,,,,,2,,,67,36
19560,control_change,54,0,3,,,,,,,,,2,64,0,,
19560,note_on,0,0,1,,,,,,,,,0,,,78,88
19560,note_on,30,0,1,,,,,,,,,0,,,79,0
19566,note_on,0,0,3,,,,,,,,,2,,,64,0
19566,note_on,6,0,3,,,,,,,,,2,,,67,0
19590,note_on,30,0,1,,,,,,,,,0,,,78,0
19590,control_change,0,0,1,,,,,,,,,0,64,0,,
19590,note_on,0,0,1,,,,,,,,,0,,,76,88
19620,note_on,30,0,1,,,,,,,,,0,,,76,0
19620,control_change,54,0,3,,,,,,,,,2,64,127,,
19620,note_on,360,0,4,,,,,,,,,3,,,59,0
19620,note_on,0,0,3,,,,,,,,,2,,,69,36
19620,note_on,0,0,3,,,,,,,,,2,,,66,36
19620,control_change,0,0,1,,,,,,,,,0,64,127,,
19620,note_on,0,0,4,,,,,,,,,3,,,59,75
19620,note_on,0,0,1,,,,,,,,,0,,,75,88
19620,note_on,360,0,2,,,,,,,,,1,,,75,36
19626,note_on,0,0,3,,,,,,,,,2,,,66,0
19626,note_on,6,0,3,,,,,,,,,2,,,69,0
19680,note_on,0,0,3,,,,,,,,,2,,,69,36
19680,note_on,54,0,3,,,,,,,,,2,,,66,36
19680,note_on,0,0,1,,,,,,,,,0,,,82,88
19680,note_on,60,0,1,,,,,,,,,0,,,75,0
19686,note_on,6,0,3,,,,,,,,,2,,,69,0
19686,note_on,0,0,3,,,,,,,,,2,,,66,0
19740,note_on,0,0,3,,,,,,,,,2,,,69,36
19740,note_on,54,0,3,,,,,,,,,2,,,66,36
19740,note_on,0,0,1,,,,,,,,,0,,,83,88
19740,note_on,60,0,1,,,,,,,,,0,,,82,0
19746,note_on,6,0,3,,,,,,,,,2,,,69,0
19746,note_on,0,0,3,,,,,,,,,2,,,66,0
19800,note_on,60,0,1,,,,,,,,,0,,,83,0
19800,control_change,0,0,1,,,,,,,,,0,64,0,,
19800,note_on,0,0,1,,,,,,,,,0,,,83,88
19800,note_on,54,0,3,,,,,,,,,2,,,66,36
19800,note_on,0,0,3,,,,,,,,,2,,,69,36
19806,note_on,6,0,3,,,,,,,,,2,,,69,0
19806,note_on,0,0,3,,,,,,,,,2,,,66,0
19860,note_on,54,0,3,,,,,,,,,2,,,66,36
19860,note_on,0,0,3,,,,,,,,,2,,,69,36
19866,note_on,6,0,3,,,,,,,,,2,,,69,0
19866,note_on,0,0,3,,,,,,,,,2,,,66,0
19920,note_on,0,0,3,,,,,,,,,2,,,66,36
19920,control_change,54,0,3,,,,,,,,,2,64,0,,
19920,note_on,0,0,3,,,,,,,,,2,,,69,36
19926,note_on,6,0,3,,,,,,,,,2,,,69,0
19926,note_on,0,0,3,,,,,,,,,2,,,66,0
19980,note_on,0,0,1,,,,,,,,,0,,,59,88
19980,note_on,0,0,4,,,,,,,,,3,,,47,75
19980,note_on,360,0,4,,,,,,,,,3,,,59,0
19980,note_on,0,0,1,,,,,,,,,0,,,67,88
19980,control_change,0,0,1,,,,,,,,,0,64,127,,
19980,note_on,180,0,1,,,,,,,,,0,,,83,0
19980,control_change,54,0,3,,,,,,,,,2,64,127,,
19980,note_on,0,0,3,,,,,,,,,2,,,52,75
19980,note_on,0,0,1,,,,,,,,,0,,,64,88
19980,note_on,0,0,3,,,,,,,,,2,,,55,75
19980,note_on,360,0,2,,,,,,,,,1,,,75,0
19986,note_on,6,0,3,,,,,,,,,2,,,55,0
19986,note_on,0,0,3,,,,,,,,,2,,,52,0
20040,note_on,0,0,3,,,,,,,,,2,,,55,36
20040,note_on,54,0,3,,,,,,,,,2,,,52,36
20046,note_on,0,0,3,,,,,,,,,2,,,52,0
20046,note_on,6,0,3,,,,,,,,,2,,,55,0
20100,note_on,54,0,3,,,,,,,,,2,,,52,36
20100,note_on,0,0,3,,,,,,,,,2,,,55,36
20106,note_on,6,0,3,,,,,,,,,2,,,55,0
20106,note_on,0,0,3,,,,,,,,,2,,,52,0
20160,note_on,54,0,3,,,,,,,,,2,,,52,36
20160,note_on,0,0,3,,,,,,,,,2,,,55,36
20166,note_on,6,0,3,,,,,,,,,2,,,55,0
20166,note_on,0,0,3,,,,,,,,,2,,,52,0
20220,note_on,54,0,3,,,,,,,,,2,,,52,36
20220,note_on,0,0,3,,,,,,,,,2,,,55,36
20220,note_on,240,0,1,,,,,,,,,0,,,67,0
20220,note_on,0,0,1,,,,,,,,,0,,,64,0
20220,note_on,0,0,1,,,,,,,,,0,,,59,0
20220,note_on,0,0,1,,,,,,,,,0,,,69,88
20226,note_on,0,0,3,,,,,,,,,2,,,52,0
20226,note_on,6,0,3,,,,,,,,,2,,,55,0
20250,note_on,0,0,1,,,,,,,,,0,,,67,88
20250,note_on,30,0,1,,,,,,,,,0,,,69,0
20280,note_on,0,0,3,,,,,,,,,2,,,55,36
20280,note_on,0,0,3,,,,,,,,,2,,,52,36
20280,control_change,54,0,3,,,,,,,,,2,64,0,,
20280,note_on,0,0,1,,,,,,,,,0,,,66,88
20280,note_on,30,0,1,,,,,,,,,0,,,67,0
20286,note_on,0,0,3,,,,,,,,,2,,,52,0
20286,note_on,6,0,3,,,,,,,,,2,,,55,0
20310,note_on,30,0,1,,,,,,,,,0,,,66,0
20310,control_change,0,0,1,,,,,,,,,0,64,0,,
20310,note_on,0,0,1,,,,,,,,,0,,,64,88
20340,note_on,360,0,2,,,,,,,,,1,,,63,36
20340,note_on,0,0,3,,,,,,,,,2,,,57,36
20340,note_on,0,0,3,,,,,,,,,2,,,54,36
20340,note_on,360,0,4,,,,,,,,,3,,,47,0
20340,note_on,30,0,1,,,,,,,,,0,,,64,0
20340,control_change,0,0,1,,,,,,,,,0,64,127,,
20340,note_on,0,0,1,,,,,,,,,0,,,63,88
20340,control_change,54,0,3,,,,,,,,,2,64,127,,
20340,note_on,0,0,4,,,,,,,,,3,,,47,75
20346,note_on,0,0,3,,,,,,,,,2,,,54,0
20346,note_on,6,0,3,,,,,,,,,2,,,57,0
20400,note_on,54,0,3,,,,,,,,,2,,,54,36
20400,note_on,0,0,3,,,,,,,,,2,,,57,36
20400,note_on,60,0,1,,,,,,,,,0,,,63,0
20400,note_on,0,0,1,,,,,,,,,0,,,72,88
20406,note_on,6,0,3,,,,,,,,,2,,,57,0
20406,note_on,0,0,3,,,,,,,,,2,,,54,0
20460,note_on,60,0,1,,,,,,,,,0,,,72,0
20460,note_on,0,0,1,,,,,,,,,0,,,71,88
20460,note_on,54,0,3,,,,,,,,,2,,,54,36
20460,note_on,0,0,3,,,,,,,,,2,,,57,36
20466,note_on,6,0,3,,,,,,,,,2,,,57,0
20466,note_on,0,0,3,,,,,,,,,2,,,54,0
20520,note_on,54,0,3,,,,,,,,,2,,,54,36
20520,note_on,60,0,1,,,,,,,,,0,,,71,0
20520,control_change,0,0,1,,,,,,,,,0,64,0,,
20520,note_on,0,0,1,,,,,,,,,0,,,71,88
20520,note_on,0,0,3,,,,,,,,,2,,,57,36
20526,note_on,6,0,3,,,,,,,,,2,,,57,0
20526,note_on,0,0,3,,,,,,,,,2,,,54,0
20580,note_on,54,0,3,,,,,,,,,2,,,54,36
20580,note_on,0,0,3,,,,,,,,,2,,,57,36
20586,note_on,6,0,3,,,,,,,,,2,,,57,0
20586,note_on,0,0,3,,,,,,,,,2,,,54,0
20640,control_change,54,0,3,,,,,,,,,2,64,0,,
20640,note_on,0,0,3,,,,,,,,,2,,,54,36
20640,note_on,0,0,3,,,,,,,,,2,,,57,36
20646,note_on,6,0,3,,,,,,,,,2,,,57,0
20646,note_on,0,0,3,,,,,,,,,2,,,54,0
20700,note_on,360,0,4,,,,,,,,,3,,,47,0
20700,note_on,0,0,3,,,,,,,,,2,,,52,101
20700,control_change,54,0,3,,,,,,,,,2,64,127,,
20700,note_on,0,0,3,,,,,,,,,2,,,47,101
20700,note_on,0,0,3,,,,,,,,,2,,,40,101
20700,note_on,360,0,2,,,,,,,,,1,,,63,0
20700,control_change,0,0,1,,,,,,,,,0,64,127,,
20700,note_on,0,0,1,,,,,,,,,0,,,64,114
20700,note_on,0,0,1,,,,,,,,,0,,,68,114
20700,note_on,0,0,1,,,,,,,,,0,,,71,114
20700,note_on,0,0,1,,,,,,,,,0,,,76,114
20700,note_on,180,0,1,,,,,,,,,0,,,71,0
20820,note_on,0,0,3,,,,,,,,,2,,,40,0
20820,note_on,0,0,3,,,,,,,,,2,,,52,101
20820,note_on,0,0,3,,,,,,,,,2,,,56,101
20820,note_on,0,0,3,,,,,,,,,2,,,47,0
20820,note_on,120,0,3,,,,,,,,,2,,,52,0
20820,note_on,0,0,1,,,,,,,,,0,,,64,0
20820,note_on,0,0,1,,,,,,,,,0,,,68,0
20820,note_on,0,0,1,,,,,,,,,0,,,71,0
20820,note_on,120,0,1,,,,,,,,,0,,,76,0
20820,note_on,0,0,1,,,,,,,,,0,,,64,114
20826,note_on,6,0,3,,,,,,,,,2,,,56,0
20826,note_on,0,0,3,,,,,,,,,2,,,52,0
20850,note_on,30,0,1,,,,,,,,,0,,,64,0
20850,note_on,0,0,1,,,,,,,,,0,,,68,114
20880,note_on,54,0,3,,,,,,,,,2,,,54,101
20880,note_on,0,0,1,,,,,,,,,0,,,66,114
20880,note_on,30,0,1,,,,,,,,,0,,,68,0
20880,note_on,0,0,3,,,,,,,,,2,,,57,101
20886,note_on,0,0,3,,,,,,,,,2,,,54,0
20886,note_on,6,0,3,,,,,,,,,2,,,57,0
20910,note_on,0,0,1,,,,,,,,,0,,,69,114
20910,note_on,30,0,1,,,,,,,,,0,,,66,0
20940,note_on,30,0,1,,,,,,,,,0,,,69,0
20940,note_on,0,0,1,,,,,,,,,0,,,68,114
20940,note_on,0,0,3,,,,,,,,,2,,,59,101
20940,note_on,54,0,3,,,,,,,,,2,,,56,101
20946,note_on,0,0,3,,,,,,,,,2,,,56,0
20946,note_on,6,0,3,,,,,,,,,2,,,59,0
20970,note_on,0,0,1,,,,,,,,,0,,,71,114
20970,note_on,30,0,1,,,,,,,,,0,,,68,0
21000,control_change,54,0,3,,,,,,,,,2,64,0,,
21000,note_on,0,0,3,,,,,,,,,2,,,61,101
21000,note_on,0,0,1,,,,,,,,,0,,,69,114
21000,note_on,0,0,3,,,,,,,,,2,,,57,101
21000,note_on,30,0,1,,,,,,,,,0,,,71,0
21006,note_on,6,0,3,,,,,,,,,2,,,61,0
21006,note_on,0,0,3,,,,,,,,,2,,,57,0
21030,control_change,0,0,1,,,,,,,,,0,64,0,,
21030,note_on,0,0,1,,,,,,,,,0,,,73,114
21030,note_on,30,0,1,,,,,,,,,0,,,69,0
21060,note_on,30,0,1,,,,,,,,,0,,,73,0
21060,note_on,0,0,3,,,,,,,,,2,,,47,101
21060,control_change,54,0,3,,,,,,,,,2,64,127,,
21060,note_on,0,0,3,,,,,,,,,2,,,54,101
21060,note_on,0,0,3,,,,,,,,,2,,,59,101
21060,note_on,0,0,1,,,,,,,,,0,,,63,114
21060,note_on,0,0,1,,,,,,,,,0,,,71,114
21060,control_change,0,0,1,,,,,,,,,0,64,127,,
21060,note_on,0,0,1,,,,,,,,,0,,,66,114
21060,note_on,0,0,1,,,,,,,,,0,,,69,114
21180,note_on,120,0,1,,,,,,,,,0,,,71,0
21180,note_on,120,0,3,,,,,,,,,2,,,59,0
21180,note_on,480,0,4,,,,,,,,,3,,,59,101
21180,note_on,0,0,3,,,,,,,,,2,,,63,101
21180,note_on,0,0,3,,,,,,,,,2,,,54,0
21180,note_on,0,0,3,,,,,,,,,2,,,47,0
21180,note_on,0,0,1,,,,,,,,,0,,,63,0
21180,note_on,0,0,1,,,,,,,,,0,,,66,0
21180,note_on,0,0,1,,,,,,,,,0,,,69,0
21180,note_on,0,0,1,,,,,,,,,0,,,81,114
21210,note_on,30,0,1,,,,,,,,,0,,,81,0
21210,note_on,0,0,1,,,,,,,,,0,,,71,114
21240,note_on,0,0,1,,,,,,,,,0,,,78,114
21240,note_on,0,0,3,,,,,,,,,2,,,66,101
21240,note_on,60,0,3,,,,,,,,,2,,,63,0
21240,note_on,30,0,1,,,,,,,,,0,,,71,0
21270,note_on,30,0,1,,,,,,,,,0,,,78,0
21270,note_on,0,0,1,,,,,,,,,0,,,71,114
21300,note_on,30,0,1,,,,,,,,,0,,,71,0
21300,note_on,0,0,3,,,,,,,,,2,,,68,101
21300,note_on,0,0,1,,,,,,,,,0,,,76,114
21300,note_on,60,0,3,,,,,,,,,2,,,66,0
21330,note_on,30,0,1,,,,,,,,,0,,,76,0
21330,note_on,0,0,1,,,,,,,,,0,,,71,114
21360,note_on,60,0,3,,,,,,,,,2,,,68,0
21360,control_change,0,0,3,,,,,,,,,2,64,0,,
21360,note_on,0,0,3,,,,,,,,,2,,,69,101
21360,note_on,0,0,1,,,,,,,,,0,,,75,114
21360,note_on,30,0,1,,,,,,,,,0,,,71,0
21390,note_on,0,0,1,,,,,,,,,0,,,71,114
21390,note_on,30,0,1,,,,,,,,,0,,,75,0
21390,control_change,0,0,1,,,,,,,,,0,64,0,,
21420,note_on,240,0,4,,,,,,,,,3,,,59,0
21420,note_on,0,0,1,,,,,,,,,0,,,64,114
21420,control_change,0,0,3,,,,,,,,,2,64,127,,
21420,note_on,0,0,3,,,,,,,,,2,,,40,101
21420,note_on,0,0,3,,,,,,,,,2,,,47,101
21420,note_on,0,0,3,,,,,,,,,2,,,52,101
21420,note_on,0,0,1,,,,,,,,,0,,,71,114
21420,note_on,0,0,1,,,,,,,,,0,,,76,114
21420,note_on,0,0,1,,,,,,,,,0,,,68,114
21420,control_change,0,0,1,,,,,,,,,0,64,127,,
21420,note_on,30,0,1,,,,,,,,,0,,,71,0
21420,note_on,60,0,3,,,,,,,,,2,,,69,0
21540,note_on,0,0,3,,,,,,,,,2,,,47,0
21540,note_on,0,0,3,,,,,,,,,2,,,40,0
21540,note_on,0,0,3,,,,,,,,,2,,,56,101
21540,note_on,0,0,3,,,,,,,,,2,,,52,101
21540,note_on,120,0,3,,,,,,,,,2,,,52,0
21540,note_on,0,0,1,,,,,,,,,0,,,64,114
21540,note_on,0,0,1,,,,,,,,,0,,,71,0
21540,note_on,0,0,1,,,,,,,,,0,,,68,0
21540,note_on,120,0,1,,,,,,,,,0,,,76,0
21540,note_on,0,0,1,,,,,,,,,0,,,64,0
21546,note_on,6,0,3,,,,,,,,,2,,,56,0
21546,note_on,0,0,3,,,,,,,,,2,,,52,0
21570,note_on,30,0,1,,,,,,,,,0,,,64,0
21570,note_on,0,0,1,,,,,,,,,0,,,68,114
21600,note_on,0,0,3,,,,,,,,,2,,,57,101
21600,note_on,54,0,3,,,,,,,,,2,,,54,101
21600,note_on,0,0,1,,,,,,,,,0,,,66,114
21600,note_on,30,0,1,,,,,,,,,0,,,68,0
21606,note_on,0,0,3,,,,,,,,,2,,,54,0
21606,note_on,6,0,3,,,,,,,,,2,,,57,0
21630,note_on,0,0,1,,,,,,,,,0,,,69,114
21630,note_on,30,0,1,,,,,,,,,0,,,66,0
21660,note_on,0,0,1,,,,,,,,,0,,,68,114
21660,note_on,0,0,3,,,,,,,,,2,,,59,101
21660,note_on,30,0,1,,,,,,,,,0,,,69,0
21660,note_on,54,0,3,,,,,,,,,2,,,56,101
21666,note_on,6,0,3,,,,,,,,,2,,,59,0
21666,note_on,0,0,3,,,,,,,,,2,,,56,0
21690,note_on,0,0,1,,,,,,,,,0,,,71,114
21690,note_on,30,0,1,,,,,,,,,0,,,68,0
21720,control_change,54,0,3,,,,,,,,,2,64,0,,
21720,note_on,0,0,1,,,,,,,,,0,,,69,114
21720,note_on,30,0,1,,,,,,,,,0,,,71,0
21720,note_on,0,0,3,,,,,,,,,2,,,61,101
21720,note_on,0,0,3,,,,,,,,,2,,,57,101
21726,note_on,6,0,3,,,,,,,,,2,,,61,0
21726,note_on,0,0,3,,,,,,,,,2,,,57,0
21750,control_change,0,0,1,,,,,,,,,0,64,0,,
21750,note_on,30,0,1,,,,,,,,,0,,,69,0
21750,note_on,0,0,1,,,,,,,,,0,,,73,114
21780,note_on,0,0,1,,,,,,,,,0,,,71,114
21780,note_on,0,0,1,,,,,,,,,0,,,69,114
21780,note_on,0,0,1,,,,,,,,,0,,,66,114
21780,note_on,0,0,1,,,,,,,,,0,,,63,114
21780,note_on,30,0,1,,,,,,,,,0,,,73,0
21780,note_on,0,0,3,,,,,,,,,2,,,47,101
21780,note_on,0,0,3,,,,,,,,,2,,,59,101
21780,note_on,0,0,3,,,,,,,,,2,,,54,101
21780,control_change,0,0,1,,,,,,,,,0,64,127,,
21780,control_change,54,0,3,,,,,,,,,2,64,127,,
21900,note_on,0,0,1,,,,,,,,,0,,,69,0
21900,note_on,0,0,1,,,,,,,,,0,,,66,0
21900,note_on,0,0,1,,,,,,,,,0,,,63,0
21900,note_on,120,0,1,,,,,,,,,0,,,71,0
21900,note_on,120,0,3,,,,,,,,,2,,,59,0
21900,note_on,0,0,3,,,,,,,,,2,,,54,0
21900,note_on,480,0,4,,,,,,,,,3,,,59,101
21900,note_on,0,0,3,,,,,,,,,2,,,63,101
21900,note_on,0,0,3,,,,,,,,,2,,,47,0
21900,note_on,0,0,1,,,,,,,,,0,,,81,114
21930,note_on,0,0,1,,,,,,,,,0,,,71,114
21930,note_on,30,0,1,,,,,,,,,0,,,81,0
21960,note_on,30,0,1,,,,,,,,,0,,,71,0
21960,note_on,0,0,1,,,,,,,,,0,,,78,114
21960,note_on,0,0,3,,,,,,,,,2,,,66,101
21960,note_on,60,0,3,,,,,,,,,2,,,63,0
21990,note_on,0,0,1,,,,,,,,,0,,,71,114
21990,note_on,30,0,1,,,,,,,,,0,,,78,0
22020,note_on,0,0,3,,,,,,,,,2,,,68,101
22020,note_on,30,0,1,,,,,,,,,0,,,71,0
22020,note_on,0,0,1,,,,,,,,,0,,,76,114
22020,note_on,60,0,3,,,,,,,,,2,,,66,0
22050,note_on,0,0,1,,,,,,,,,0,,,71,114
22050,note_on,30,0,1,,,,,,,,,0,,,76,0
22080,note_on,0,0,3,,,,,,,,,2,,,69,101
22080,note_on,60,0,3,,,,,,,,,2,,,68,0
22080,note_on,30,0,1,,,,,,,,,0,,,71,0
22080,note_on,0,0,1,,,,,,,,,0,,,75,114
22110,note_on,0,0,1,,,,,,,,,0,,,71,114
22110,note_on,30,0,1,,,,,,,,,0,,,75,0
22140,note_on,0,0,3,,,,,,,,,2,,,52,101
22140,control_change,0,0,3,,,,,,,,,2,64,0,,
22140,note_on,60,0,3,,,,,,,,,2,,,69,0
22140,note_on,240,0,4,,,,,,,,,3,,,59,0
22140,note_on,0,0,1,,,,,,,,,0,,,80,114
22140,note_on,0,0,3,,,,,,,,,2,,,64,101
22140,note_on,30,0,1,,,,,,,,,0,,,71,0
22146,note_on,6,0,3,,,,,,,,,2,,,64,0
22146,note_on,0,0,3,,,,,,,,,2,,,52,0
22170,control_change,0,0,1,,,,,,,,,0,64,0,,
22170,note_on,30,0,1,,,,,,,,,0,,,80,0
22170,note_on,0,0,1,,,,,,,,,0,,,71,114
22200,control_change,0,0,1,,,,,,,,,0,64,127,,
22200,note_on,30,0,1,,,,,,,,,0,,,71,0
22200,note_on,0,0,3,,,,,,,,,2,,,56,119
22200,note_on,0,0,3,,,,,,,,,2,,,63,127
22200,control_change,54,0,3,,,,,,,,,2,64,127,,
22200,note_on,0,0,1,,,,,,,,,0,,,72,114
22230,note_on,0,0,1,,,,,,,,,0,,,78,114
22230,note_on,30,0,1,,,,,,,,,0,,,72,0
22260,note_on,30,0,1,,,,,,,,,0,,,78,0
22260,note_on,0,0,1,,,,,,,,,0,,,75,114
22290,note_on,30,0,1,,,,,,,,,0,,,75,0
22290,note_on,0,0,1,,,,,,,,,0,,,72,114
22320,control_change,0,0,3,,,,,,,,,2,64,0,,
22320,note_on,30,0,1,,,,,,,,,0,,,72,0
22320,note_on,0,0,1,,,,,,,,,0,,,76,114
22320,note_on,0,0,3,,,,,,,,,2,,,56,0
22320,note_on,0,0,3,,,,,,,,,2,,,61,101
22320,note_on,120,0,3,,,,,,,,,2,,,63,0
22320,note_on,0,0,3,,,,,,,,,2,,,49,101
22326,note_on,0,0,3,,,,,,,,,2,,,49,0
22326,note_on,6,0,3,,,,,,,,,2,,,61,0
22350,note_on,0,0,1,,,,,,,,,0,,,64,114
22350,control_change,0,0,1,,,,,,,,,0,64,0,,
22350,note_on,30,0,1,,,,,,,,,0,,,76,0
22380,control_change,0,0,1,,,,,,,,,0,64,127,,
22380,control_change,54,0,3,,,,,,,,,2,64,127,,
22380,note_on,0,0,3,,,,,,,,,2,,,52,119
22380,note_on,0,0,3,,,,,,,,,2,,,59,127
22380,note_on,30,0,1,,,,,,,,,0,,,64,0
22380,note_on,0,0,1,,,,,,,,,0,,,68,114
22410,note_on,0,0,1,,,,,,,,,0,,,74,114
22410,note_on,30,0,1,,,,,,,,,0,,,68,0
22440,note_on,30,0,1,,,,,,,,,0,,,74,0
22440,note_on,0,0,1,,,,,,,,,0,,,71,114
22470,note_on,30,0,1,,,,,,,,,0,,,71,0
22470,note_on,0,0,1,,,,,,,,,0,,,68,114
22500,control_change,0,0,3,,,,,,,,,2,64,0,,
22500,note_on,0,0,3,,,,,,,,,2,,,45,101
22500,note_on,0,0,3,,,,,,,,,2,,,57,101
22500,note_on,30,0,1,,,,,,,,,0,,,68,0
22500,note_on,120,0,3,,,,,,,,,2,,,59,0
22500,note_on,0,0,3,,,,,,,,,2,,,52,0
22500,note_on,0,0,1,,,,,,,,,0,,,73,114
22506,note_on,0,0,3,,,,,,,,,2,,,45,0
22506,note_on,6,0,3,,,,,,,,,2,,,57,0
22530,note_on,0,0,1,,,,,,,,,0,,,64,114
22530,control_change,0,0,1,,,,,,,,,0,64,0,,
22530,note_on,30,0,1,,,,,,,,,0,,,73,0
22560,note_on,0,0,1,,,,,,,,,0,,,65,114
22560,note_on,0,0,3,,,,,,,,,2,,,56,127
22560,note_on,54,0,3,,,,,,,,,2,,,49,119
22560,control_change,0,0,1,,,,,,,,,0,64,127,,
22560,note_on,30,0,1,,,,,,,,,0,,,64,0
22590,note_on,0,0,1,,,,,,,,,0,,,71,114
22590,note_on,30,0,1,,,,,,,,,0,,,65,0
22620,note_on,0,0,1,,,,,,,,,0,,,68,114
22620,note_on,30,0,1,,,,,,,,,0,,,71,0
22650,note_on,0,0,1,,,,,,,,,0,,,65,114
22650,note_on,30,0,1,,,,,,,,,0,,,68,0
22650,control_change,0,0,1,,,,,,,,,0,64,0,,
22680,note_on,30,0,1,,,,,,,,,0,,,65,0
22680,control_change,0,0,1,,,,,,,,,0,64,127,,
22680,note_on,0,0,1,,,,,,,,,0,,,69,101
22680,note_on,120,0,3,,,,,,,,,2,,,56,0
22680,note_on,0,0,3,,,,,,,,,2,,,49,0
22680,control_change,0,0,3,,,,,,,,,2,64,127,,
22680,note_on,0,0,3,,,,,,,,,2,,,42,88
22686,note_on,6,0,3,,,,,,,,,2,,,42,0
22710,note_on,30,0,1,,,,,,,,,0,,,69,0
22710,note_on,0,0,1,,,,,,,,,0,,,61,101
22740,note_on,30,0,1,,,,,,,,,0,,,61,0
22740,note_on,54,0,3,,,,,,,,,2,,,54,88
22740,note_on,0,0,3,,,,,,,,,2,,,57,88
22740,note_on,0,0,1,,,,,,,,,0,,,66,101
22746,note_on,0,0,3,,,,,,,,,2,,,54,0
22746,note_on,6,0,3,,,,,,,,,2,,,57,0
22770,note_on,0,0,1,,,,,,,,,0,,,69,101
22770,note_on,30,0,1,,,,,,,,,0,,,66,0
22800,note_on,54,0,3,,,,,,,,,2,,,42,88
22800,note_on,30,0,1,,,,,,,,,0,,,69,0
22800,note_on,0,0,1,,,,,,,,,0,,,61,101
22806,note_on,6,0,3,,,,,,,,,2,,,42,0
22830,note_on,30,0,1,,,,,,,,,0,,,61,0
22830,note_on,0,0,1,,,,,,,,,0,,,66,101
22860,note_on,0,0,3,,,,,,,,,2,,,57,101
22860,note_on,54,0,3,,,,,,,,,2,,,54,101
22860,note_on,0,0,1,,,,,,,,,0,,,69,114
22860,note_on,30,0,1,,,,,,,,,0,,,66,0
22866,note_on,6,0,3,,,,,,,,,2,,,57,0
22866,note_on,0,0,3,,,,,,,,,2,,,54,0
22890,note_on,0,0,1,,,,,,,,,0,,,61,114
22890,note_on,30,0,1,,,,,,,,,0,,,69,0
22920,note_on,30,0,1,,,,,,,,,0,,,61,0
22920,note_on,0,0,1,,,,,,,,,0,,,66,114
22920,note_on,54,0,3,,,,,,,,,2,,,42,101
22926,note_on,6,0,3,,,,,,,,,2,,,42,0
22950,note_on,30,0,1,,,,,,,,,0,,,66,0
22950,note_on,0,0,1,,,,,,,,,0,,,69,114
22980,note_on,0,0,3,,,,,,,,,2,,,54,101
22980,control_change,54,0,3,,,,,,,,,2,64,0,,
22980,note_on,0,0,3,,,,,,,,,2,,,57,101
22980,note_on,30,0,1,,,,,,,,,0,,,69,0
22980,note_on,0,0,1,,,,,,,,,0,,,61,114
22986,note_on,6,0,3,,,,,,,,,2,,,57,0
22986,note_on,0,0,3,,,,,,,,,2,,,54,0
23010,note_on,0,0,1,,,,,,,,,0,,,66,114
23010,control_change,0,0,1,,,,,,,,,0,64,0,,
23010,note_on,30,0,1,,,,,,,,,0,,,61,0
23040,note_on,0,0,1,,,,,,,,,0,,,69,114
23040,note_on,30,0,1,,,,,,,,,0,,,66,0
23040,control_change,0,0,1,,,,,,,,,0,64,127,,
23040,note_on,0,0,3,,,,,,,,,2,,,40,101
23040,control_change,54,0,3,,,,,,,,,2,64,127,,
23046,note_on,6,0,3,,,,,,,,,2,,,40,0
23070,note_on,30,0,1,,,,,,,,,0,,,69,0
23070,note_on,0,0,1,,,,,,,,,0,,,60,114
23100,note_on,54,0,3,,,,,,,,,2,,,52,101
23100,note_on,30,0,1,,,,,,,,,0,,,60,0
23100,note_on,0,0,1,,,,,,,,,0,,,66,114
23100,note_on,0,0,3,,,,,,,,,2,,,59,101
23100,note_on,0,0,3,,,,,,,,,2,,,54,101
23106,note_on,6,0,3,,,,,,,,,2,,,59,0
23106,note_on,0,0,3,,,,,,,,,2,,,54,0
23106,note_on,0,0,3,,,,,,,,,2,,,52,0
23130,note_on,30,0,1,,,,,,,,,0,,,66,0
23130,note_on,0,0,1,,,,,,,,,0,,,69,114
23160,note_on,54,0,3,,,,,,,,,2,,,40,101
23160,note_on,30,0,1,,,,,,,,,0,,,69,0
23160,note_on,0,0,1,,,,,,,,,0,,,60,114
23166,note_on,6,0,3,,,,,,,,,2,,,40,0
23190,note_on,30,0,1,,,,,,,,,0,,,60,0
23190,note_on,0,0,1,,,,,,,,,0,,,66,114
23220,note_on,0,0,3,,,,,,,,,2,,,57,101
23220,note_on,0,0,3,,,,,,,,,2,,,54,101
23220,note_on,54,0,3,,,,,,,,,2,,,52,101
23220,note_on,0,0,1,,,,,,,,,0,,,69,114
23220,note_on,30,0,1,,,,,,,,,0,,,66,0
23226,note_on,6,0,3,,,,,,,,,2,,,57,0
23226,note_on,0,0,3,,,,,,,,,2,,,54,0
23226,note_on,0,0,3,,,,,,,,,2,,,52,0
23250,note_on,30,0,1,,,,,,,,,0,,,69,0
23250,note_on,0,0,1,,,,,,,,,0,,,60,114
23280,note_on,30,0,1,,,,,,,,,0,,,60,0
23280,note_on,54,0,3,,,,,,,,,2,,,40,101
23280,note_on,0,0,1,,,,,,,,,0,,,66,114
23286,note_on,6,0,3,,,,,,,,,2,,,40,0
23310,note_on,30,0,1,,,,,,,,,0,,,66,0
23310,note_on,0,0,1,,,,,,,,,0,,,69,114
23340,note_on,0,0,1,,,,,,,,,0,,,60,114
23340,note_on,30,0,1,,,,,,,,,0,,,69,0
23340,control_change,54,0,3,,,,,,,,,2,64,0,,
23340,note_on,0,0,3,,,,,,,,,2,,,57,101
23340,note_on,0,0,3,,,,,,,,,2,,,54,101
23340,note_on,0,0,3,,,,,,,,,2,,,52,101
23346,note_on,0,0,3,,,,,,,,,2,,,52,0
23346,note_on,0,0,3,,,,,,,,,2,,,54,0
23346,note_on,6,0,3,,,,,,,,,2,,,57,0
23370,note_on,30,0,1,,,,,,,,,0,,,60,0
23370,control_change,0,0,1,,,,,,,,,0,64,0,,
23370,note_on,0,0,1,,,,,,,,,0,,,66,114
23400,note_on,30,0,1,,,,,,,,,0,,,66,0
23400,control_change,0,0,1,,,,,,,,,0,64,127,,
23400,note_on,0,0,1,,,,,,,,,0,,,59,114
23400,note_on,0,0,3,,,,,,,,,2,,,57,101
23400,note_on,54,0,3,,,,,,,,,2,,,51,101
23400,note_on,0,0,3,,,,,,,,,2,,,54,101
23430,note_on,0,0,1,,,,,,,,,0,,,63,114
23430,note_on,30,0,1,,,,,,,,,0,,,59,0
23460,note_on,30,0,1,,,,,,,,,0,,,63,0
23460,note_on,0,0,1,,,,,,,,,0,,,66,114
23490,note_on,30,0,1,,,,,,,,,0,,,66,0
23490,note_on,0,0,1,,,,,,,,,0,,,71,114
23520,note_on,0,0,3,,,,,,,,,2,,,54,0
23520,note_on,0,0,1,,,,,,,,,0,,,75,114
23520,note_on,120,0,3,,,,,,,,,2,,,57,0
23520,note_on,0,0,3,,,,,,,,,2,,,51,0
23520,note_on,30,0,1,,,,,,,,,0,,,71,0
23550,note_on,30,0,1,,,,,,,,,0,,,75,0
23550,note_on,0,0,1,,,,,,,,,0,,,78,114
23580,note_on,30,0,1,,,,,,,,,0,,,78,0
23580,note_on,0,0,1,,,,,,,,,0,,,81,114
23940,control_change,360,0,1,,,,,,,,,0,64,0,,
24120,note_on,180,0,1,,,,,,,,,0,,,81,0
24120,control_change,0,0,1,,,,,,,,,0,64,127,,
24120,note_on,0,0,1,,,,,,,,,0,,,80,49
24120,control_change,600,0,3,,,,,,,,,2,64,127,,
24120,note_on,0,0,3,,,,,,,,,2,,,52,36
24180,note_on,60,0,3,,,,,,,,,2,,,52,0
24180,note_on,0,0,3,,,,,,,,,2,,,59,36
24240,note_on,120,0,1,,,,,,,,,0,,,80,0
24240,note_on,60,0,3,,,,,,,,,2,,,59,0
24240,note_on,0,0,1,,,,,,,,,0,,,78,49
24240,note_on,0,0,3,,,,,,,,,2,,,64,36
24285,note_on,45,0,1,,,,,,,,,0,,,78,49
24300,note_on,0,0,1,,,,,,,,,0,,,76,49
24300,note_on,60,0,3,,,,,,,,,2,,,64,0
24300,note_on,0,0,3,,,,,,,,,2,,,56,36
24300,note_on,0,0,1,,,,,,,,,0,,,78,0
24300,note_on,15,0,1,,,,,,,,,0,,,78,0
24360,note_on,0,0,1,,,,,,,,,0,,,75,49
24360,note_on,60,0,1,,,,,,,,,0,,,76,0
24360,note_on,60,0,3,,,,,,,,,2,,,56,0
24360,note_on,0,0,3,,,,,,,,,2,,,59,36
24420,control_change,0,0,3,,,,,,,,,2,64,0,,
24420,note_on,0,0,1,,,,,,,,,0,,,76,49
24420,control_change,0,0,1,,,,,,,,,0,64,0,,
24420,note_on,60,0,1,,,,,,,,,0,,,75,0
24420,note_on,0,0,3,,,,,,,,,2,,,64,36
24420,note_on,60,0,3,,,,,,,,,2,,,59,0
24480,note_on,0,0,1,,,,,,,,,0,,,77,75
24480,note_on,60,0,1,,,,,,,,,0,,,76,0
24480,note_on,3780,0,2,,,,,,,,,1,,,71,36
24480,note_on,0,0,2,,,,,,,,,1,,,74,36
24480,control_change,0,0,1,,,,,,,,,0,64,127,,
24480,note_on,60,0,3,,,,,,,,,2,,,64,0
24480,control_change,0,0,3,,,,,,,,,2,64,127,,
24480,note_on,0,0,3,,,,,,,,,2,,,57,36
24540,note_on,60,0,3,,,,,,,,,2,,,57,0
24540,note_on,0,0,3,,,,,,,,,2,,,62,36
24600,note_on,120,0,1,,,,,,,,,0,,,77,0
24600,control_change,0,0,1,,,,,,,,,0,64,0,,
24600,note_on,60,0,3,,,,,,,,,2,,,62,0
24600,note_on,0,0,1,,,,,,,,,0,,,80,49
24600,note_on,0,0,3,,,,,,,,,2,,,65,36
24600,control_change,0,0,3,,,,,,,,,2,64,0,,
24660,note_on,0,0,2,,,,,,,,,1,,,73,36
24660,note_on,60,0,1,,,,,,,,,0,,,80,0
24660,control_change,0,0,1,,,,,,,,,0,64,127,,
24660,note_on,0,0,1,,,,,,,,,0,,,78,49
24660,note_on,0,0,2,,,,,,,,,1,,,71,0
24660,note_on,60,0,3,,,,,,,,,2,,,65,0
24660,control_change,0,0,3,,,,,,,,,2,64,127,,
24660,note_on,0,0,3,,,,,,,,,2,,,57,36
24660,note_on,180,0,2,,,,,,,,,1,,,74,0
24720,note_on,0,0,3,,,,,,,,,2,,,61,36
24720,note_on,60,0,3,,,,,,,,,2,,,57,0
24780,note_on,60,0,3,,,,,,,,,2,,,61,0
24780,note_on,0,0,3,,,,,,,,,2,,,66,36
24780,note_on,120,0,1,,,,,,,,,0,,,78,0
24780,control_change,0,0,1,,,,,,,,,0,64,0,,
24780,control_change,0,0,3,,,,,,,,,2,64,0,,
24780,note_on,0,0,1,,,,,,,,,0,,,85,49
24825,control_change,45,0,1,,,,,,,,,0,64,127,,
24825,note_on,0,0,1,,,,,,,,,0,,,78,49
24840,note_on,15,0,1,,,,,,,,,0,,,78,0
24840,note_on,0,0,1,,,,,,,,,0,,,85,0
24840,note_on,0,0,1,,,,,,,,,0,,,76,49
24840,note_on,180,0,2,,,,,,,,,1,,,73,0
24840,note_on,0,0,3,,,,,,,,,2,,,59,36
24840,control_change,0,0,3,,,,,,,,,2,64,127,,
24840,note_on,60,0,3,,,,,,,,,2,,,66,0
24900,note_on,60,0,1,,,,,,,,,0,,,76,0
24900,note_on,0,0,1,,,,,,,,,0,,,75,49
24900,note_on,0,0,3,,,,,,,,,2,,,68,36
24900,note_on,60,0,3,,,,,,,,,2,,,59,0
24960,control_change,0,0,3,,,,,,,,,2,64,0,,
24960,note_on,0,0,1,,,,,,,,,0,,,76,49
24960,control_change,0,0,1,,,,,,,,,0,64,0,,
24960,note_on,60,0,1,,,,,,,,,0,,,75,0
24960,note_on,0,0,3,,,,,,,,,2,,,71,36
24960,note_on,60,0,3,,,,,,,,,2,,,68,0
25020,control_change,0,0,3,,,,,,,,,2,64,127,,
25020,note_on,60,0,3,,,,,,,,,2,,,71,0
25020,note_on,180,0,2,,,,,,,,,1,,,75,36
25020,note_on,60,0,1,,,,,,,,,0,,,76,0
25020,control_change,0,0,1,,,,,,,,,0,64,127,,
25020,note_on,0,0,1,,,,,,,,,0,,,80,49
25020,note_on,0,0,3,,,,,,,,,2,,,59,36
25080,note_on,60,0,3,,,,,,,,,2,,,59,0
25080,note_on,0,0,3,,,,,,,,,2,,,69,36
25140,note_on,0,0,1,,,,,,,,,0,,,78,49
25140,note_on,120,0,1,,,,,,,,,0,,,80,0
25140,note_on,60,0,3,,,,,,,,,2,,,69,0
25140,control_change,0,0,3,,,,,,,,,2,64,0,,
25140,note_on,0,0,3,,,,,,,,,2,,,71,36
25140,control_change,0,0,1,,,,,,,,,0,64,0,,
25200,note_on,0,0,1,,,,,,,,,0,,,76,114
25200,note_on,0,0,3,,,,,,,,,2,,,47,101
25200,note_on,0,0,1,,,,,,,,,0,,,68,114
25200,note_on,0,0,1,,,,,,,,,0,,,64,114
25200,control_change,0,0,1,,,,,,,,,0,64,127,,
25200,note_on,60,0,1,,,,,,,,,0,,,78,0
25200,note_on,0,0,3,,,,,,,,,2,,,52,101
25200,note_on,60,0,3,,,,,,,,,2,,,71,0
25200,control_change,0,0,3,,,,,,,,,2,64,127,,
25200,note_on,0,0,3,,,,,,,,,2,,,40,101
25200,note_on,0,0,1,,,,,,,,,0,,,71,114
25200,note_on,180,0,2,,,,,,,,,1,,,75,0
25320,note_on,120,0,1,,,,,,,,,0,,,76,0
25320,note_on,0,0,1,,,,,,,,,0,,,64,0
25320,note_on,0,0,1,,,,,,,,,0,,,68,0
25320,note_on,0,0,1,,,,,,,,,0,,,71,0
25320,note_on,0,0,1,,,,,,,,,0,,,64,114
25320,note_on,0,0,3,,,,,,,,,2,,,52,101
25320,note_on,120,0,3,,,,,,,,,2,,,52,0
25320,note_on,0,0,3,,,,,,,,,2,,,47,0
25320,note_on,0,0,3,,,,,,,,,2,,,40,0
25320,note_on,0,0,3,,,,,,,,,2,,,56,101
25326,note_on,6,0,3,,,,,,,,,2,,,56,0
25326,note_on,0,0,3,,,,,,,,,2,,,52,0
25350,note_on,30,0,1,,,,,,,,,0,,,64,0
25350,note_on,0,0,1,,,,,,,,,0,,,68,114
25380,note_on,54,0,3,,,,,,,,,2,,,54,101
25380,note_on,0,0,3,,,,,,,,,2,,,57,101
25380,note_on,30,0,1,,,,,,,,,0,,,68,0
25380,note_on,0,0,1,,,,,,,,,0,,,66,114
25386,note_on,6,0,3,,,,,,,,,2,,,57,0
25386,note_on,0,0,3,,,,,,,,,2,,,54,0
25410,note_on,0,0,1,,,,,,,,,0,,,69,114
25410,note_on,30,0,1,,,,,,,,,0,,,66,0
25440,note_on,54,0,3,,,,,,,,,2,,,56,101
25440,note_on,0,0,1,,,,,,,,,0,,,68,114
25440,note_on,30,0,1,,,,,,,,,0,,,69,0
25440,note_on,0,0,3,,,,,,,,,2,,,59,101
25446,note_on,6,0,3,,,,,,,,,2,,,59,0
25446,note_on,0,0,3,,,,,,,,,2,,,56,0
25470,note_on,30,0,1,,,,,,,,,0,,,68,0
25470,note_on,0,0,1,,,,,,,,,0,,,71,114
25500,note_on,30,0,1,,,,,,,,,0,,,71,0
25500,note_on,0,0,3,,,,,,,,,2,,,61,101
25500,note_on,0,0,1,,,,,,,,,0,,,69,114
25500,control_change,54,0,3,,,,,,,,,2,64,0,,
25500,note_on,0,0,3,,,,,,,,,2,,,57,101
25506,note_on,6,0,3,,,,,,,,,2,,,61,0
25506,note_on,0,0,3,,,,,,,,,2,,,57,0
25530,note_on,0,0,1,,,,,,,,,0,,,73,114
25530,note_on,30,0,1,,,,,,,,,0,,,69,0
25530,control_change,0,0,1,,,,,,,,,0,64,0,,
25560,control_change,54,0,3,,,,,,,,,2,64,127,,
25560,note_on,0,0,3,,,,,,,,,2,,,47,101
25560,note_on,0,0,3,,,,,,,,,2,,,54,101
25560,note_on,0,0,3,,,,,,,,,2,,,59,101
25560,note_on,0,0,1,,,,,,,,,0,,,71,114
25560,note_on,0,0,1,,,,,,,,,0,,,66,114
25560,note_on,0,0,1,,,,,,,,,0,,,69,114
25560,note_on,0,0,1,,,,,,,,,0,,,63,114
25560,control_change,0,0,1,,,,,,,,,0,64,127,,
25560,note_on,30,0,1,,,,,,,,,0,,,73,0
25680,note_on,3540,0,4,,,,,,,,,3,,,59,101
25680,note_on,120,0,1,,,,,,,,,0,,,71,0
25680,note_on,0,0,1,,,,,,,,,0,,,63,0
25680,note_on,0,0,1,,,,,,,,,0,,,66,0
25680,note_on,0,0,1,,,,,,,,,0,,,69,0
25680,note_on,0,0,1,,,,,,,,,0,,,81,114
25680,note_on,0,0,3,,,,,,,,,2,,,47,0
25680,note_on,0,0,3,,,,,,,,,2,,,54,0
25680,note_on,120,0,3,,,,,,,,,2,,,59,0
25680,note_on,0,0,3,,,,,,,,,2,,,63,101
25710,note_on,0,0,1,,,,,,,,,0,,,71,114
25710,note_on,30,0,1,,,,,,,,,0,,,81,0
25740,note_on,30,0,1,,,,,,,,,0,,,71,0
25740,note_on,0,0,1,,,,,,,,,0,,,78,114
25740,note_on,0,0,3,,,,,,,,,2,,,66,101
25740,note_on,60,0,3,,,,,,,,,2,,,63,0
25770,note_on,0,0,1,,,,,,,,,0,,,71,114
25770,note_on,30,0,1,,,,,,,,,0,,,78,0
25800,note_on,60,0,3,,,,,,,,,2,,,66,0
25800,note_on,0,0,1,,,,,,,,,0,,,76,114
25800,note_on,0,0,3,,,,,,,,,2,,,68,101
25800,note_on,30,0,1,,,,,,,,,0,,,71,0
25830,note_on,30,0,1,,,,,,,,,0,,,76,0
25830,note_on,0,0,1,,,,,,,,,0,,,71,114
25860,note_on,60,0,3,,,,,,,,,2,,,68,0
25860,note_on,0,0,3,,,,,,,,,2,,,69,101
25860,note_on,30,0,1,,,,,,,,,0,,,71,0
25860,note_on,0,0,1,,,,,,,,,0,,,75,114
25890,note_on,30,0,1,,,,,,,,,0,,,75,0
25890,note_on,0,0,1,,,,,,,,,0,,,71,114
25920,control_change,0,0,1,,,,,,,,,0,64,127,,
25920,note_on,60,0,3,,,,,,,,,2,,,69,0
25920,note_on,30,0,1,,,,,,,,,0,,,71,0
25920,note_on,240,0,4,,,,,,,,,3,,,59,0
25920,note_on,0,0,1,,,,,,,,,0,,,76,114
25920,note_on,0,0,1,,,,,,,,,0,,,71,114
25920,note_on,0,0,1,,,,,,,,,0,,,64,114
25920,note_on,0,0,1,,,,,,,,,0,,,68,114
25920,control_change,0,0,3,,,,,,,,,2,64,127,,
25920,note_on,0,0,3,,,,,,,,,2,,,40,101
25920,note_on,0,0,3,,,,,,,,,2,,,47,101
25920,note_on,0,0,3,,,,,,,,,2,,,52,101
26040,note_on,0,0,3,,,,,,,,,2,,,40,0
26040,note_on,0,0,1,,,,,,,,,0,,,64,114
26040,note_on,0,0,1,,,,,,,,,0,,,71,0
26040,note_on,0,0,1,,,,,,,,,0,,,68,0
26040,note_on,0,0,3,,,,,,,,,2,,,47,0
26040,note_on,120,0,1,,,,,,,,,0,,,76,0
26040,note_on,120,0,3,,,,,,,,,2,,,52,0
26040,note_on,0,0,1,,,,,,,,,0,,,64,0
26040,note_on,0,0,3,,,,,,,,,2,,,56,101
26040,note_on,0,0,3,,,,,,,,,2,,,52,101
26046,note_on,6,0,3,,,,,,,,,2,,,56,0
26046,note_on,0,0,3,,,,,,,,,2,,,52,0
26070,note_on,0,0,1,,,,,,,,,0,,,68,114
26070,note_on,30,0,1,,,,,,,,,0,,,64,0
26100,note_on,54,0,3,,,,,,,,,2,,,54,101
26100,note_on,0,0,3,,,,,,,,,2,,,57,101
26100,note_on,30,0,1,,,,,,,,,0,,,68,0
26100,note_on,0,0,1,,,,,,,,,0,,,66,114
26106,note_on,0,0,3,,,,,,,,,2,,,54,0
26106,note_on,6,0,3,,,,,,,,,2,,,57,0
26130,note_on,30,0,1,,,,,,,,,0,,,66,0
26130,note_on,0,0,1,,,,,,,,,0,,,69,114
26160,note_on,0,0,3,,,,,,,,,2,,,59,101
26160,note_on,30,0,1,,,,,,,,,0,,,69,0
26160,note_on,0,0,1,,,,,,,,,0,,,68,114
26160,note_on,54,0,3,,,,,,,,,2,,,56,101
26166,note_on,0,0,3,,,,,,,,,2,,,56,0
26166,note_on,6,0,3,,,,,,,,,2,,,59,0
26190,note_on,30,0,1,,,,,,,,,0,,,68,0
26190,note_on,0,0,1,,,,,,,,,0,,,71,114
26220,note_on,0,0,3,,,,,,,,,2,,,61,101
26220,note_on,0,0,3,,,,,,,,,2,,,57,101
26220,control_change,54,0,3,,,,,,,,,2,64,0,,
26220,note_on,30,0,1,,,,,,,,,0,,,71,0
26220,note_on,0,0,1,,,,,,,,,0,,,69,114
26226,note_on,0,0,3,,,,,,,,,2,,,57,0
26226,note_on,6,0,3,,,,,,,,,2,,,61,0
26250,note_on,30,0,1,,,,,,,,,0,,,69,0
26250,control_change,0,0,1,,,,,,,,,0,64,0,,
26250,note_on,0,0,1,,,,,,,,,0,,,73,114
26280,control_change,0,0,1,,,,,,,,,0,64,127,,
26280,note_on,30,0,1,,,,,,,,,0,,,73,0
26280,note_on,0,0,1,,,,,,,,,0,,,63,114
26280,note_on,0,0,3,,,,,,,,,2,,,47,101
26280,note_on,0,0,1,,,,,,,,,0,,,69,114
26280,note_on,0,0,1,,,,,,,,,0,,,66,114
26280,note_on,0,0,3,,,,,,,,,2,,,59,101
26280,note_on,0,0,3,,,,,,,,,2,,,54,101
26280,control_change,54,0,3,,,,,,,,,2,64,127,,
26280,note_on,0,0,1,,,,,,,,,0,,,71,114
26400,note_on,0,0,1,,,,,,,,,0,,,69,0
26400,note_on,0,0,1,,,,,,,,,0,,,81,114
26400,note_on,480,0,4,,,,,,,,,3,,,59,101
26400,note_on,0,0,1,,,,,,,,,0,,,63,0
26400,note_on,120,0,1,,,,,,,,,0,,,71,0
26400,note_on,120,0,3,,,,,,,,,2,,,59,0
26400,note_on,0,0,3,,,,,,,,,2,,,54,0
26400,note_on,0,0,3,,,,,,,,,2,,,47,0
26400,note_on,0,0,3,,,,,,,,,2,,,63,101
26400,note_on,0,0,1,,,,,,,,,0,,,66,0
26430,note_on,30,0,1,,,,,,,,,0,,,81,0
26430,note_on,0,0,1,,,,,,,,,0,,,71,114
26460,note_on,60,0,3,,,,,,,,,2,,,63,0
26460,note_on,0,0,1,,,,,,,,,0,,,78,114
26460,note_on,30,0,1,,,,,,,,,0,,,71,0
26460,note_on,0,0,3,,,,,,,,,2,,,66,101
26490,note_on,0,0,1,,,,,,,,,0,,,71,114
26490,note_on,30,0,1,,,,,,,,,0,,,78,0
26520,note_on,60,0,3,,,,,,,,,2,,,66,0
26520,note_on,0,0,3,,,,,,,,,2,,,68,101
26520,note_on,0,0,1,,,,,,,,,0,,,76,114
26520,note_on,30,0,1,,,,,,,,,0,,,71,0
26550,note_on,0,0,1,,,,,,,,,0,,,71,114
26550,note_on,30,0,1,,,,,,,,,0,,,76,0
26580,note_on,0,0,1,,,,,,,,,0,,,75,114
26580,note_on,0,0,3,,,,,,,,,2,,,69,101
26580,note_on,60,0,3,,,,,,,,,2,,,68,0
26580,note_on,30,0,1,,,,,,,,,0,,,71,0
26610,note_on,30,0,1,,,,,,,,,0,,,75,0
26610,note_on,0,0,1,,,,,,,,,0,,,71,114
26640,note_on,0,0,1,,,,,,,,,0,,,80,114
26640,note_on,60,0,3,,,,,,,,,2,,,69,0
26640,note_on,0,0,3,,,,,,,,,2,,,64,101
26640,note_on,30,0,1,,,,,,,,,0,,,71,0
26640,control_change,0,0,3,,,,,,,,,2,64,0,,
26640,note_on,0,0,3,,,,,,,,,2,,,52,101
26640,note_on,240,0,4,,,,,,,,,3,,,59,0
26646,note_on,6,0,3,,,,,,,,,2,,,64,0
26646,note_on,0,0,3,,,,,,,,,2,,,52,0
26670,note_on,0,0,1,,,,,,,,,0,,,71,114
26670,control_change,0,0,1,,,,,,,,,0,64,0,,
26670,note_on,30,0,1,,,,,,,,,0,,,80,0
26700,control_change,54,0,3,,,,,,,,,2,64,127,,
26700,note_on,30,0,1,,,,,,,,,0,,,71,0
26700,note_on,0,0,3,,,,,,,,,2,,,56,119
26700,note_on,0,0,1,,,,,,,,,0,,,72,114
26700,control_change,0,0,1,,,,,,,,,0,64,127,,
26700,note_on,0,0,3,,,,,,,,,2,,,63,127
26730,note_on,0,0,1,,,,,,,,,0,,,78,114
26730,note_on,30,0,1,,,,,,,,,0,,,72,0
26760,note_on,30,0,1,,,,,,,,,0,,,78,0
26760,note_on,0,0,1,,,,,,,,,0,,,75,114
26790,note_on,0,0,1,,,,,,,,,0,,,72,114
26790,note_on,30,0,1,,,,,,,,,0,,,75,0
26820,note_on,30,0,1,,,,,,,,,0,,,72,0
26820,note_on,0,0,3,,,,,,,,,2,,,49,101
26820,control_change,0,0,3,,,,,,,,,2,64,0,,
26820,note_on,120,0,3,,,,,,,,,2,,,63,0
26820,note_on,0,0,3,,,,,,,,,2,,,56,0
26820,note_on,0,0,3,,,,,,,,,2,,,61,101
26820,note_on,0,0,1,,,,,,,,,0,,,76,114
26826,note_on,0,0,3,,,,,,,,,2,,,49,0
26826,note_on,6,0,3,,,,,,,,,2,,,61,0
26850,note_on,30,0,1,,,,,,,,,0,,,76,0
26850,control_change,0,0,1,,,,,,,,,0,64,0,,
26850,note_on,0,0,1,,,,,,,,,0,,,64,114
26880,note_on,30,0,1,,,,,,,,,0,,,64,0
26880,note_on,0,0,1,,,,,,,,,0,,,68,114
26880,note_on,0,0,3,,,,,,,,,2,,,59,127
26880,note_on,0,0,3,,,,,,,,,2,,,52,119
26880,control_change,54,0,3,,,,,,,,,2,64,127,,
26880,control_change,0,0,1,,,,,,,,,0,64,127,,
26910,note_on,30,0,1,,,,,,,,,0,,,68,0
26910,note_on,0,0,1,,,,,,,,,0,,,74,114
26940,note_on,0,0,1,,,,,,,,,0,,,71,114
26940,note_on,30,0,1,,,,,,,,,0,,,74,0
26970,note_on,0,0,1,,,,,,,,,0,,,68,114
26970,note_on,30,0,1,,,,,,,,,0,,,71,0
27000,note_on,0,0,1,,,,,,,,,0,,,73,114
27000,note_on,120,0,3,,,,,,,,,2,,,59,0
27000,note_on,0,0,3,,,,,,,,,2,,,52,0
27000,note_on,0,0,3,,,,,,,,,2,,,45,101
27000,control_change,0,0,3,,,,,,,,,2,64,0,,
27000,note_on,0,0,3,,,,,,,,,2,,,57,101
27000,note_on,30,0,1,,,,,,,,,0,,,68,0
27006,note_on,6,0,3,,,,,,,,,2,,,57,0
27006,note_on,0,0,3,,,,,,,,,2,,,45,0
27030,note_on,0,0,1,,,,,,,,,0,,,64,114
27030,control_change,0,0,1,,,,,,,,,0,64,0,,
27030,note_on,30,0,1,,,,,,,,,0,,,73,0
27060,note_on,54,0,3,,,,,,,,,2,,,49,119
27060,note_on,0,0,3,,,,,,,,,2,,,56,127
27060,note_on,0,0,1,,,,,,,,,0,,,65,114
27060,control_change,0,0,1,,,,,,,,,0,64,127,,
27060,note_on,30,0,1,,,,,,,,,0,,,64,0
27090,note_on,30,0,1,,,,,,,,,0,,,65,0
27090,note_on,0,0,1,,,,,,,,,0,,,71,114
27120,note_on,0,0,1,,,,,,,,,0,,,68,114
27120,note_on,30,0,1,,,,,,,,,0,,,71,0
27150,control_change,0,0,1,,,,,,,,,0,64,0,,
27150,note_on,0,0,1,,,,,,,,,0,,,65,114
27150,note_on,30,0,1,,,,,,,,,0,,,68,0
27180,note_on,120,0,3,,,,,,,,,2,,,56,0
27180,note_on,0,0,3,,,,,,,,,2,,,49,0
27180,note_on,0,0,1,,,,,,,,,0,,,69,101
27180,control_change,0,0,1,,,,,,,,,0,64,127,,
27180,note_on,30,0,1,,,,,,,,,0,,,65,0
27180,note_on,0,0,3,,,,,,,,,2,,,42,88
27180,control_change,0,0,3,,,,,,,,,2,64,127,,
27186,note_on,6,0,3,,,,,,,,,2,,,42,0
27210,note_on,30,0,1,,,,,,,,,0,,,69,0
27210,note_on,0,0,1,,,,,,,,,0,,,61,101
27240,note_on,54,0,3,,,,,,,,,2,,,54,88
27240,note_on,0,0,1,,,,,,,,,0,,,66,101
27240,note_on,0,0,3,,,,,,,,,2,,,57,88
27240,note_on,30,0,1,,,,,,,,,0,,,61,0
27246,note_on,6,0,3,,,,,,,,,2,,,57,0
27246,note_on,0,0,3,,,,,,,,,2,,,54,0
27270,note_on,30,0,1,,,,,,,,,0,,,66,0
27270,note_on,0,0,1,,,,,,,,,0,,,69,101
27300,note_on,54,0,3,,,,,,,,,2,,,42,88
27300,note_on,30,0,1,,,,,,,,,0,,,69,0
27300,note_on,0,0,1,,,,,,,,,0,,,61,101
27306,note_on,6,0,3,,,,,,,,,2,,,42,0
27330,note_on,30,0,1,,,,,,,,,0,,,61,0
27330,note_on,0,0,1,,,,,,,,,0,,,66,101
27360,note_on,54,0,3,,,,,,,,,2,,,54,101
27360,note_on,0,0,3,,,,,,,,,2,,,57,101
27360,note_on,30,0,1,,,,,,,,,0,,,66,0
27360,note_on,0,0,1,,,,,,,,,0,,,69,114
27366,note_on,0,0,3,,,,,,,,,2,,,54,0
27366,note_on,6,0,3,,,,,,,,,2,,,57,0
27390,note_on,30,0,1,,,,,,,,,0,,,69,0
27390,note_on,0,0,1,,,,,,,,,0,,,61,114
27420,note_on,30,0,1,,,,,,,,,0,,,61,0
27420,note_on,54,0,3,,,,,,,,,2,,,42,101
27420,note_on,0,0,1,,,,,,,,,0,,,66,114
27426,note_on,6,0,3,,,,,,,,,2,,,42,0
27450,note_on,0,0,1,,,,,,,,,0,,,69,114
27450,note_on,30,0,1,,,,,,,,,0,,,66,0
27480,note_on,0,0,1,,,,,,,,,0,,,61,114
27480,note_on,30,0,1,,,,,,,,,0,,,69,0
27480,control_change,54,0,3,,,,,,,,,2,64,0,,
27480,note_on,0,0,3,,,,,,,,,2,,,54,101
27480,note_on,0,0,3,,,,,,,,,2,,,57,101
27486,note_on,0,0,3,,,,,,,,,2,,,54,0
27486,note_on,6,0,3,,,,,,,,,2,,,57,0
27510,control_change,0,0,1,,,,,,,,,0,64,0,,
27510,note_on,30,0,1,,,,,,,,,0,,,61,0
27510,note_on,0,0,1,,,,,,,,,0,,,66,114
27540,control_change,0,0,1,,,,,,,,,0,64,127,,
27540,note_on,0,0,3,,,,,,,,,2,,,40,101
27540,note_on,0,0,1,,,,,,,,,0,,,69,114
27540,note_on,30,0,1,,,,,,,,,0,,,66,0
27540,control_change,54,0,3,,,,,,,,,2,64,127,,
27546,note_on,6,0,3,,,,,,,,,2,,,40,0
27570,note_on,0,0,1,,,,,,,,,0,,,60,114
27570,note_on,30,0,1,,,,,,,,,0,,,69,0
27600,note_on,30,0,1,,,,,,,,,0,,,60,0
27600,note_on,0,0,1,,,,,,,,,0,,,66,114
27600,note_on,0,0,3,,,,,,,,,2,,,59,101
27600,note_on,0,0,3,,,,,,,,,2,,,54,101
27600,note_on,54,0,3,,,,,,,,,2,,,52,101
27606,note_on,6,0,3,,,,,,,,,2,,,59,0
27606,note_on,0,0,3,,,,,,,,,2,,,52,0
27606,note_on,0,0,3,,,,,,,,,2,,,54,0
27630,note_on,30,0,1,,,,,,,,,0,,,66,0
27630,note_on,0,0,1,,,,,,,,,0,,,69,114
27660,note_on,30,0,1,,,,,,,,,0,,,69,0
27660,note_on,0,0,1,,,,,,,,,0,,,60,114
27660,note_on,54,0,3,,,,,,,,,2,,,40,101
27666,note_on,6,0,3,,,,,,,,,2,,,40,0
27690,note_on,30,0,1,,,,,,,,,0,,,60,0
27690,note_on,0,0,1,,,,,,,,,0,,,66,114
27720,note_on,0,0,3,,,,,,,,,2,,,57,101
27720,note_on,0,0,3,,,,,,,,,2,,,54,101
27720,note_on,30,0,1,,,,,,,,,0,,,66,0
27720,note_on,0,0,1,,,,,,,,,0,,,69,114
27720,note_on,54,0,3,,,,,,,,,2,,,52,101
27726,note_on,0,0,3,,,,,,,,,2,,,54,0
27726,note_on,6,0,3,,,,,,,,,2,,,57,0
27726,note_on,0,0,3,,,,,,,,,2,,,52,0
27750,note_on,0,0,1,,,,,,,,,0,,,60,114
27750,note_on,30,0,1,,,,,,,,,0,,,69,0
27780,note_on,30,0,1,,,,,,,,,0,,,60,0
27780,note_on,0,0,1,,,,,,,,,0,,,66,114
27780,note_on,54,0,3,,,,,,,,,2,,,40,101
27786,note_on,6,0,3,,,,,,,,,2,,,40,0
27810,note_on,30,0,1,,,,,,,,,0,,,66,0
27810,note_on,0,0,1,,,,,,,,,0,,,69,114
27840,note_on,0,0,3,,,,,,,,,2,,,57,101
27840,control_change,54,0,3,,,,,,,,,2,64,0,,
27840,note_on,30,0,1,,,,,,,,,0,,,69,0
27840,note_on,0,0,3,,,,,,,,,2,,,54,101
27840,note_on,0,0,1,,,,,,,,,0,,,60,114
27840,note_on,0,0,3,,,,,,,,,2,,,52,101
27846,note_on,0,0,3,,,,,,,,,2,,,52,0
27846,note_on,0,0,3,,,,,,,,,2,,,54,0
27846,note_on,6,0,3,,,,,,,,,2,,,57,0
27870,note_on,0,0,1,,,,,,,,,0,,,66,114
27870,control_change,0,0,1,,,,,,,,,0,64,0,,
27870,note_on,30,0,1,,,,,,,,,0,,,60,0
27900,note_on,0,0,1,,,,,,,,,0,,,59,114
27900,note_on,0,0,3,,,,,,,,,2,,,54,101
27900,note_on,0,0,3,,,,,,,,,2,,,57,101
27900,control_change,0,0,1,,,,,,,,,0,64,127,,
27900,note_on,30,0,1,,,,,,,,,0,,,66,0
27900,note_on,54,0,3,,,,,,,,,2,,,51,101
27930,note_on,0,0,1,,,,,,,,,0,,,63,114
27930,note_on,30,0,1,,,,,,,,,0,,,59,0
27960,note_on,0,0,1,,,,,,,,,0,,,66,114
27960,note_on,30,0,1,,,,,,,,,0,,,63,0
27990,note_on,30,0,1,,,,,,,,,0,,,66,0
27990,note_on,0,0,1,,,,,,,,,0,,,71,114
28020,note_on,0,0,1,,,,,,,,,0,,,75,114
28020,note_on,120,0,3,,,,,,,,,2,,,57,0
28020,note_on,0,0,3,,,,,,,,,2,,,54,0
28020,note_on,0,0,3,,,,,,,,,2,,,51,0
28020,note_on,30,0,1,,,,,,,,,0,,,71,0
28050,note_on,30,0,1,,,,,,,,,0,,,75,0
28050,note_on,0,0,1,,,,,,,,,0,,,78,114
28080,note_on,0,0,1,,,,,,,,,0,,,81,114
28080,note_on,30,0,1,,,,,,,,,0,,,78,0
28440,control_change,360,0,1,,,,,,,,,0,64,0,,
28620,note_on,0,0,1,,,,,,,,,0,,,80,49
28620,note_on,180,0,1,,,,,,,,,0,,,81,0
28620,note_on,0,0,3,,,,,,,,,2,,,52,36
28620,control_change,600,0,3,,,,,,,,,2,64,127,,
28620,control_change,0,0,1,,,,,,,,,0,64,127,,
28680,note_on,0,0,3,,,,,,,,,2,,,59,36
28680,note_on,60,0,3,,,,,,,,,2,,,52,0
28740,note_on,120,0,1,,,,,,,,,0,,,80,0
28740,note_on,0,0,1,,,,,,,,,0,,,78,49
28740,note_on,60,0,3,,,,,,,,,2,,,59,0
28740,note_on,0,0,3,,,,,,,,,2,,,64,36
28785,note_on,45,0,1,,,,,,,,,0,,,78,49
28800,note_on,60,0,3,,,,,,,,,2,,,64,0
28800,note_on,15,0,1,,,,,,,,,0,,,78,0
28800,note_on,0,0,3,,,,,,,,,2,,,56,36
28800,note_on,0,0,1,,,,,,,,,0,,,76,49
28800,note_on,0,0,1,,,,,,,,,0,,,78,0
28860,note_on,0,0,1,,,,,,,,,0,,,75,49
28860,note_on,60,0,1,,,,,,,,,0,,,76,0
28860,note_on,60,0,3,,,,,,,,,2,,,56,0
28860,note_on,0,0,3,,,,,,,,,2,,,59,36
28920,note_on,60,0,3,,,,,,,,,2,,,59,0
28920,note_on,0,0,1,,,,,,,,,0,,,76,49
28920,control_change,0,0,1,,,,,,,,,0,64,0,,
28920,note_on,60,0,1,,,,,,,,,0,,,75,0
28920,control_change,0,0,3,,,,,,,,,2,64,0,,
28920,note_on,0,0,3,,,,,,,,,2,,,64,36
28980,note_on,0,0,2,,,,,,,,,1,,,74,36
28980,note_on,3780,0,2,,,,,,,,,1,,,71,36
28980,note_on,0,0,1,,,,,,,,,0,,,77,75
28980,control_change,0,0,1,,,,,,,,,0,64,127,,
28980,note_on,60,0,1,,,,,,,,,0,,,76,0
28980,control_change,0,0,3,,,,,,,,,2,64,127,,
28980,note_on,60,0,3,,,,,,,,,2,,,64,0
28980,note_on,0,0,3,,,,,,,,,2,,,57,36
29040,note_on,60,0,3,,,,,,,,,2,,,57,0
29040,note_on,0,0,3,,,,,,,,,2,,,62,36
29100,note_on,120,0,1,,,,,,,,,0,,,77,0
29100,control_change,0,0,1,,,,,,,,,0,64,0,,
29100,control_change,0,0,3,,,,,,,,,2,64,0,,
29100,note_on,0,0,3,,,,,,,,,2,,,65,36
29100,note_on,60,0,3,,,,,,,,,2,,,62,0
29100,note_on,0,0,1,,,,,,,,,0,,,80,49
29160,note_on,60,0,1,,,,,,,,,0,,,80,0
29160,note_on,0,0,3,,,,,,,,,2,,,57,36
29160,control_change,0,0,3,,,,,,,,,2,64,127,,
29160,note_on,60,0,3,,,,,,,,,2,,,65,0
29160,note_on,0,0,2,,,,,,,,,1,,,71,0
29160,note_on,0,0,2,,,,,,,,,1,,,73,36
29160,note_on,0,0,1,,,,,,,,,0,,,78,49
29160,control_change,0,0,1,,,,,,,,,0,64,127,,
29160,note_on,180,0,2,,,,,,,,,1,,,74,0
29220,note_on,0,0,3,,,,,,,,,2,,,61,36
29220,note_on,60,0,3,,,,,,,,,2,,,57,0
29280,note_on,60,0,3,,,,,,,,,2,,,61,0
29280,note_on,120,0,1,,,,,,,,,0,,,78,0
29280,control_change,0,0,1,,,,,,,,,0,64,0,,
29280,note_on,0,0,1,,,,,,,,,0,,,85,49
29280,control_change,0,0,3,,,,,,,,,2,64,0,,
29280,note_on,0,0,3,,,,,,,,,2,,,66,36
29325,control_change,45,0,1,,,,,,,,,0,64,127,,
29325,note_on,0,0,1,,,,,,,,,0,,,78,49
29340,note_on,60,0,3,,,,,,,,,2,,,66,0
29340,note_on,15,0,1,,,,,,,,,0,,,78,0
29340,note_on,0,0,1,,,,,,,,,0,,,85,0
29340,note_on,0,0,1,,,,,,,,,0,,,76,49
29340,note_on,180,0,2,,,,,,,,,1,,,73,0
29340,control_change,0,0,3,,,,,,,,,2,64,127,,
29340,note_on,0,0,3,,,,,,,,,2,,,59,36
29400,note_on,60,0,1,,,,,,,,,0,,,76,0
29400,note_on,0,0,1,,,,,,,,,0,,,75,49
29400,note_on,60,0,3,,,,,,,,,2,,,59,0
29400,note_on,0,0,3,,,,,,,,,2,,,68,36
29460,control_change,0,0,1,,,,,,,,,0,64,0,,
29460,note_on,0,0,1,,,,,,,,,0,,,76,49
29460,note_on,0,0,3,,,,,,,,,2,,,71,36
29460,control_change,0,0,3,,,,,,,,,2,64,0,,
29460,note_on,60,0,3,,,,,,,,,2,,,68,0
29460,note_on,60,0,1,,,,,,,,,0,,,75,0
29520,note_on,180,0,2,,,,,,,,,1,,,75,36
29520,note_on,60,0,3,,,,,,,,,2,,,71,0
29520,note_on,0,0,3,,,,,,,,,2,,,59,36
29520,control_change,0,0,3,,,,,,,,,2,64,127,,
29520,note_on,60,0,1,,,,,,,,,0,,,76,0
29520,control_change,0,0,1,,,,,,,,,0,64,127,,
29520,note_on,0,0,1,,,,,,,,,0,,,80,36
29580,note_on,0,0,3,,,,,,,,,2,,,69,36
29580,note_on,60,0,3,,,,,,,,,2,,,59,0
29580,set_tempo,23280,1,0,,,,,,465116,,,,,,,
29640,note_on,0,0,3,,,,,,,,,2,,,71,36
29640,control_change,0,0,3,,,,,,,,,2,64,0,,
29640,note_on,60,0,3,,,,,,,,,2,,,69,0
29640,note_on,0,0,1,,,,,,,,,0,,,78,36
29640,control_change,0,0,1,,,,,,,,,0,64,0,,
29640,note_on,120,0,1,,,,,,,,,0,,,80,0
29640,set_tempo,60,1,0,,,,,,476190,,,,,,,
29700,control_change,0,0,3,,,,,,,,,2,64,127,,
29700,set_tempo,60,1,0,,,,,,487805,,,,,,,
29700,note_on,0,0,3,,,,,,,,,2,,,59,36
29700,note_on,60,0,3,,,,,,,,,2,,,71,0
29700,note_on,0,0,2,,,,,,,,,1,,,75,36
29700,note_on,180,0,2,,,,,,,,,1,,,75,0
29700,note_on,0,0,1,,,,,,,,,0,,,80,36
29700,control_change,0,0,1,,,,,,,,,0,64,127,,
29700,note_on,60,0,1,,,,,,,,,0,,,78,0
29760,note_on,0,0,3,,,,,,,,,2,,,69,36
29760,set_tempo,60,1,0,,,,,,504202,,,,,,,
29760,note_on,60,0,3,,,,,,,,,2,,,59,0
29820,note_on,0,0,1,,,,,,,,,0,,,78,36
29820,note_on,60,0,3,,,,,,,,,2,,,69,0
29820,control_change,0,0,1,,,,,,,,,0,64,0,,
29820,note_on,120,0,1,,,,,,,,,0,,,80,0
29820,note_on,0,0,3,,,,,,,,,2,,,71,36
29820,set_tempo,60,1,0,,,,,,517241,,,,,,,
29820,control_change,0,0,3,,,,,,,,,2,64,0,,
29880,control_change,0,0,3,,,,,,,,,2,64,127,,
29880,note_on,0,0,3,,,,,,,,,2,,,59,36
29880,set_tempo,60,1,0,,,,,,530973,,,,,,,
29880,note_on,60,0,1,,,,,,,,,0,,,78,0
29880,note_on,60,0,3,,,,,,,,,2,,,71,0
29880,control_change,0,0,1,,,,,,,,,0,64,127,,
29880,note_on,0,0,2,,,,,,,,,1,,,75,36
29880,note_on,180,0,2,,,,,,,,,1,,,75,0
29880,note_on,0,0,1,,,,,,,,,0,,,80,36
29940,note_on,60,0,3,,,,,,,,,2,,,59,0
29940,note_on,0,0,3,,,,,,,,,2,,,69,36
29940,set_tempo,60,1,0,,,,,,545455,,,,,,,
30000,set_tempo,60,1,0,,,,,,566038,,,,,,,
30000,note_on,120,0,1,,,,,,,,,0,,,80,0
30000,note_on,0,0,3,,,,,,,,,2,,,71,36
30000,note_on,0,0,1,,,,,,,,,0,,,78,36
30000,control_change,0,0,1,,,,,,,,,0,64,0,,
30000,note_on,60,0,3,,,,,,,,,2,,,69,0
30000,control_change,0,0,3,,,,,,,,,2,64,0,,
30060,note_on,60,0,3,,,,,,,,,2,,,71,0
30060,note_on,180,0,2,,,,,,,,,1,,,75,0
30060,note_on,60,0,1,,,,,,,,,0,,,78,0
30060,time_signature,60,1,0,6,8,12,8,,,,,,,,,
30420,control_change,360,0,3,,,,,,,,,2,64,127,,
30420,note_on,0,0,1,,,,,,,,,0,,,52,88
30420,key_signature,0,1,0,,,,,G,,,,,,,,
30420,control_change,360,0,1,,,,,,,,,0,64,127,,
30420,time_signature,360,1,0,3,8,12,8,,,,,,,,,
30420,set_tempo,0,1,0,,,,,,454545,,,,,,,
30420,note_on,0,0,3,,,,,,,,,2,,,40,75
30510,note_on,90,0,3,,,,,,,,,2,,,40,0
30510,note_on,0,0,3,,,,,,,,,2,,,42,75
30510,note_on,90,0,1,,,,,,,,,0,,,52,0
30510,note_on,0,0,1,,,,,,,,,0,,,54,88
30540,note_on,30,0,3,,,,,,,,,2,,,42,0
30540,note_on,0,0,3,,,,,,,,,2,,,43,75
30540,note_on,0,0,1,,,,,,,,,0,,,55,88
30540,note_on,30,0,1,,,,,,,,,0,,,54,0
30570,note_on,0,0,1,,,,,,,,,0,,,57,88
30570,note_on,30,0,1,,,,,,,,,0,,,55,0
30570,note_on,0,0,3,,,,,,,,,2,,,45,75
30570,note_on,30,0,3,,,,,,,,,2,,,43,0
30600,note_on,30,0,1,,,,,,,,,0,,,57,0
30600,note_on,0,0,1,,,,,,,,,0,,,59,88
30600,note_on,0,0,3,,,,,,,,,2,,,47,75
30600,note_on,30,0,3,,,,,,,,,2,,,45,0
30720,note_on,120,0,1,,,,,,,,,0,,,59,0
30720,note_on,0,0,1,,,,,,,,,0,,,61,88
30720,note_on,120,0,3,,,,,,,,,2,,,47,0
30720,note_on,0,0,3,,,,,,,,,2,,,49,75
30750,note_on,30,0,3,,,,,,,,,2,,,49,0
30750,control_change,0,0,3,,,,,,,,,2,64,0,,
30750,control_change,0,0,1,,,,,,,,,0,64,0,,
30750,note_on,0,0,1,,,,,,,,,0,,,63,88
30750,note_on,30,0,1,,,,,,,,,0,,,61,0
30750,note_on,0,0,3,,,,,,,,,2,,,51,75
30780,control_change,0,0,1,,,,,,,,,0,64,127,,
30780,note_on,30,0,1,,,,,,,,,0,,,63,0
30780,note_on,30,0,3,,,,,,,,,2,,,51,0
30780,control_change,0,0,3,,,,,,,,,2,64,127,,
30780,note_on,0,0,3,,,,,,,,,2,,,52,75
30780,note_on,0,0,1,,,,,,,,,0,,,64,88
30840,note_on,0,0,1,,,,,,,,,0,,,66,88
30840,note_on,60,0,3,,,,,,,,,2,,,52,0
30840,note_on,0,0,3,,,,,,,,,2,,,54,75
30840,note_on,60,0,1,,,,,,,,,0,,,64,0
30870,note_on,0,0,3,,,,,,,,,2,,,55,75
30870,note_on,30,0,1,,,,,,,,,0,,,66,0
30870,note_on,0,0,1,,,,,,,,,0,,,67,88
30870,note_on,30,0,3,,,,,,,,,2,,,54,0
30900,note_on,30,0,3,,,,,,,,,2,,,55,0
30900,note_on,0,0,3,,,,,,,,,2,,,57,75
30900,note_on,30,0,1,,,,,,,,,0,,,67,0
30900,note_on,0,0,1,,,,,,,,,0,,,69,88
30930,note_on,30,0,1,,,,,,,,,0,,,69,0
30930,control_change,0,0,1,,,,,,,,,0,64,0,,
30930,note_on,0,0,1,,,,,,,,,0,,,71,88
30930,note_on,0,0,3,,,,,,,,,2,,,59,75
30930,note_on,30,0,3,,,,,,,,,2,,,57,0
30930,control_change,0,0,3,,,,,,,,,2,64,0,,
30960,note_on,0,0,3,,,,,,,,,2,,,60,75
30960,note_on,30,0,3,,,,,,,,,2,,,59,0
30960,note_on,0,0,1,,,,,,,,,0,,,72,88
30960,note_on,30,0,1,,,,,,,,,0,,,71,0
30960,time_signature,540,1,0,6,8,12,8,,,,,,,,,
31140,note_on,180,0,3,,,,,,,,,2,,,60,0
31140,note_on,180,0,1,,,,,,,,,0,,,72,0
31320,note_on,0,0,3,,,,,,,,,2,,,52,36
31320,note_on,180,0,3,,,,,,,,,2,,,43,36
31320,time_signature,360,1,0,3,8,12,8,,,,,,,,,
31320,note_on,180,0,1,,,,,,,,,0,,,59,49
31320,note_on,0,0,1,,,,,,,,,0,,,71,49
31500,note_on,0,0,3,,,,,,,,,2,,,55,36
31500,note_on,180,0,1,,,,,,,,,0,,,71,0
31500,note_on,0,0,1,,,,,,,,,0,,,59,0
31500,note_on,0,0,1,,,,,,,,,0,,,58,49
31500,note_on,0,0,1,,,,,,,,,0,,,64,49
31500,note_on,0,0,3,,,,,,,,,2,,,48,36
31500,note_on,180,0,3,,,,,,,,,2,,,52,0
31500,note_on,0,0,3,,,,,,,,,2,,,43,0
31665,note_on,165,0,1,,,,,,,,,0,,,66,49
31680,note_on,1620,0,2,,,,,,,,,1,,,59,36
31680,note_on,0,0,1,,,,,,,,,0,,,64,49
31680,note_on,180,0,3,,,,,,,,,2,,,55,0
31680,note_on,0,0,3,,,,,,,,,2,,,55,36
31680,note_on,0,0,1,,,,,,,,,0,,,58,0
31680,note_on,0,0,3,,,,,,,,,2,,,47,36
31680,control_change,0,0,1,,,,,,,,,0,64,127,,
31680,note_on,0,0,1,,,,,,,,,0,,,64,0
31680,note_on,15,0,1,,,,,,,,,0,,,66,0
31680,note_on,0,0,3,,,,,,,,,2,,,48,0
31740,note_on,60,0,1,,,,,,,,,0,,,64,0
31740,note_on,0,0,1,,,,,,,,,0,,,63,49
31800,note_on,60,0,1,,,,,,,,,0,,,63,0
31800,control_change,0,0,1,,,,,,,,,0,64,0,,
31800,note_on,0,0,1,,,,,,,,,0,,,64,49
31860,note_on,0,0,3,,,,,,,,,2,,,57,36
31860,note_on,0,0,2,,,,,,,,,1,,,63,36
31860,note_on,0,0,1,,,,,,,,,0,,,67,49
31860,note_on,60,0,1,,,,,,,,,0,,,64,0
31860,note_on,180,0,3,,,,,,,,,2,,,55,0
31860,note_on,180,0,2,,,,,,,,,1,,,59,0
31980,note_on,120,0,1,,,,,,,,,0,,,67,0
31980,note_on,0,0,1,,,,,,,,,0,,,66,49
32040,note_on,180,0,2,,,,,,,,,1,,,63,0
32040,time_signature,720,1,0,6,8,12,8,,,,,,,,,
32040,note_on,60,0,1,,,,,,,,,0,,,66,0
32040,note_on,0,0,3,,,,,,,,,2,,,47,0
32040,note_on,180,0,3,,,,,,,,,2,,,57,0
32400,note_on,0,0,1,,,,,,,,,0,,,52,88
32400,control_change,360,0,1,,,,,,,,,0,64,127,,
32400,note_on,0,0,3,,,,,,,,,2,,,40,75
32400,time_signature,360,1,0,3,8,12,8,,,,,,,,,
32400,set_tempo,0,1,0,,,,,,454545,,,,,,,
32400,control_change,360,0,3,,,,,,,,,2,64,127,,
32490,note_on,90,0,1,,,,,,,,,0,,,52,0
32490,note_on,0,0,3,,,,,,,,,2,,,42,75
32490,note_on,90,0,3,,,,,,,,,2,,,40,0
32490,note_on,0,0,1,,,,,,,,,0,,,54,88
32520,note_on,0,0,3,,,,,,,,,2,,,43,75
32520,note_on,30,0,3,,,,,,,,,2,,,42,0
32520,note_on,30,0,1,,,,,,,,,0,,,54,0
32520,note_on,0,0,1,,,,,,,,,0,,,55,88
32550,note_on,30,0,1,,,,,,,,,0,,,55,0
32550,note_on,0,0,1,,,,,,,,,0,,,57,88
32550,note_on,30,0,3,,,,,,,,,2,,,43,0
32550,note_on,0,0,3,,,,,,,,,2,,,45,75
32580,note_on,30,0,3,,,,,,,,,2,,,45,0
32580,note_on,0,0,3,,,,,,,,,2,,,47,75
32580,note_on,0,0,1,,,,,,,,,0,,,59,88
32580,note_on,30,0,1,,,,,,,,,0,,,57,0
32700,note_on,120,0,3,,,,,,,,,2,,,47,0
32700,note_on,0,0,3,,,,,,,,,2,,,49,75
32700,note_on,0,0,1,,,,,,,,,0,,,61,88
32700,note_on,120,0,1,,,,,,,,,0,,,59,0
32730,note_on,30,0,1,,,,,,,,,0,,,61,0
32730,note_on,0,0,3,,,,,,,,,2,,,51,75
32730,note_on,0,0,1,,,,,,,,,0,,,63,88
32730,note_on,30,0,3,,,,,,,,,2,,,49,0
32730,control_change,0,0,1,,,,,,,,,0,64,0,,
32730,control_change,0,0,3,,,,,,,,,2,64,0,,
32760,note_on,0,0,3,,,,,,,,,2,,,52,75
32760,note_on,30,0,1,,,,,,,,,0,,,63,0
32760,control_change,0,0,1,,,,,,,,,0,64,127,,
32760,note_on,0,0,1,,,,,,,,,0,,,64,88
32760,control_change,0,0,3,,,,,,,,,2,64,127,,
32760,note_on,30,0,3,,,,,,,,,2,,,51,0
32820,note_on,0,0,1,,,,,,,,,0,,,66,88
32820,note_on,60,0,1,,,,,,,,,0,,,64,0
32820,note_on,0,0,3,,,,,,,,,2,,,54,75
32820,note_on,60,0,3,,,,,,,,,2,,,52,0
32850,note_on,30,0,3,,,,,,,,,2,,,54,0
32850,note_on,0,0,3,,,,,,,,,2,,,55,75
32850,note_on,0,0,1,,,,,,,,,0,,,67,88
32850,note_on,30,0,1,,,,,,,,,0,,,66,0
32880,note_on,30,0,3,,,,,,,,,2,,,55,0
32880,note_on,0,0,1,,,,,,,,,0,,,69,88
32880,note_on,30,0,1,,,,,,,,,0,,,67,0
32880,note_on,0,0,3,,,,,,,,,2,,,57,75
32910,note_on,30,0,3,,,,,,,,,2,,,57,0
32910,note_on,0,0,3,,,,,,,,,2,,,59,75
32910,control_change,0,0,3,,,,,,,,,2,64,0,,
32910,note_on,0,0,1,,,,,,,,,0,,,71,88
32910,control_change,0,0,1,,,,,,,,,0,64,0,,
32910,note_on,30,0,1,,,,,,,,,0,,,69,0
32940,note_on,0,0,3,,,,,,,,,2,,,60,75
32940,time_signature,540,1,0,6,8,12,8,,,,,,,,,
32940,note_on,0,0,1,,,,,,,,,0,,,72,88
32940,note_on,30,0,3,,,,,,,,,2,,,59,0
32940,note_on,30,0,1,,,,,,,,,0,,,71,0
33120,note_on,180,0,3,,,,,,,,,2,,,60,0
33300,time_signature,360,1,0,3,8,12,8,,,,,,,,,
33300,note_on,360,0,1,,,,,,,,,0,,,60,49
33300,note_on,180,0,3,,,,,,,,,2,,,45,36
33300,note_on,0,0,3,,,,,,,,,2,,,53,36
33480,note_on,180,0,1,,,,,,,,,0,,,60,0
33480,note_on,0,0,1,,,,,,,,,0,,,59,49
33480,note_on,0,0,1,,,,,,,,,0,,,72,0
33480,note_on,0,0,3,,,,,,,,,2,,,45,0
33480,note_on,0,0,1,,,,,,,,,0,,,65,49
33480,note_on,180,0,3,,,,,,,,,2,,,53,0
33480,note_on,0,0,3,,,,,,,,,2,,,50,36
33480,note_on,0,0,3,,,,,,,,,2,,,55,36
33645,note_on,165,0,1,,,,,,,,,0,,,67,49
33660,control_change,0,0,1,,,,,,,,,0,64,127,,
33660,note_on,0,0,3,,,,,,,,,2,,,57,36
33660,note_on,0,0,3,,,,,,,,,2,,,48,36
33660,note_on,0,0,3,,,,,,,,,2,,,50,0
33660,note_on,180,0,3,,,,,,,,,2,,,55,0
33660,note_on,15,0,1,,,,,,,,,0,,,67,0
33660,note_on,0,0,1,,,,,,,,,0,,,65,0
33660,note_on,0,0,1,,,,,,,,,0,,,59,0
33660,note_on,0,0,1,,,,,,,,,0,,,65,49
33660,note_on,1620,0,2,,,,,,,,,1,,,60,36
33720,note_on,60,0,1,,,,,,,,,0,,,65,0
33720,note_on,0,0,1,,,,,,,,,0,,,64,49
33780,note_on,60,0,1,,,,,,,,,0,,,64,0
33780,control_change,0,0,1,,,,,,,,,0,64,0,,
33780,note_on,0,0,1,,,,,,,,,0,,,65,49
33840,note_on,0,0,2,,,,,,,,,1,,,64,36
33840,note_on,0,0,3,,,,,,,,,2,,,58,36
33840,note_on,180,0,3,,,,,,,,,2,,,57,0
33840,note_on,180,0,2,,,,,,,,,1,,,60,0
33840,note_on,60,0,1,,,,,,,,,0,,,65,0
33840,note_on,0,0,1,,,,,,,,,0,,,69,49
33960,note_on,120,0,1,,,,,,,,,0,,,69,0
33960,note_on,0,0,1,,,,,,,,,0,,,67,49
34020,note_on,180,0,3,,,,,,,,,2,,,58,0
34020,note_on,60,0,1,,,,,,,,,0,,,67,0
34020,note_on,180,0,2,,,,,,,,,1,,,64,0
34020,note_on,0,0,3,,,,,,,,,2,,,48,0
34185,note_on,165,0,1,,,,,,,,,0,,,66,49
34200,note_on,180,0,2,,,,,,,,,1,,,59,36
34200,note_on,15,0,1,,,,,,,,,0,,,66,0
34200,control_change,0,0,1,,,,,,,,,0,64,127,,
34200,note_on,0,0,1,,,,,,,,,0,,,64,49
34200,note_on,180,0,3,,,,,,,,,2,,,47,36
34200,note_on,0,0,3,,,,,,,,,2,,,55,36
34260,note_on,60,0,1,,,,,,,,,0,,,64,0
34260,note_on,0,0,1,,,,,,,,,0,,,63,49
34320,note_on,60,0,1,,,,,,,,,0,,,63,0
34320,control_change,0,0,1,,,,,,,,,0,64,0,,
34320,note_on,0,0,1,,,,,,,,,0,,,64,49
34380,note_on,180,0,3,,,,,,,,,2,,,55,0
34380,note_on,0,0,3,,,,,,,,,2,,,57,36
34380,note_on,180,0,2,,,,,,,,,1,,,59,0
34380,note_on,0,0,1,,,,,,,,,0,,,67,49
34380,note_on,60,0,1,,,,,,,,,0,,,64,0
34380,note_on,0,0,2,,,,,,,,,1,,,63,36
34500,note_on,120,0,1,,,,,,,,,0,,,67,0
34500,note_on,0,0,1,,,,,,,,,0,,,66,49
34560,note_on,180,0,2,,,,,,,,,1,,,63,0
34560,note_on,0,0,3,,,,,,,,,2,,,47,0
34560,time_signature,1260,1,0,6,8,12,8,,,,,,,,,
34560,note_on,60,0,1,,,,,,,,,0,,,66,0
34560,note_on,180,0,3,,,,,,,,,2,,,57,0
34920,note_on,0,0,3,,,,,,,,,2,,,40,75
34920,control_change,360,0,3,,,,,,,,,2,64,127,,
34920,note_on,0,0,1,,,,,,,,,0,,,52,88
34920,control_change,360,0,1,,,,,,,,,0,64,127,,
34920,time_signature,360,1,0,3,8,12,8,,,,,,,,,
34920,set_tempo,0,1,0,,,,,,454545,,,,,,,
35010,note_on,90,0,1,,,,,,,,,0,,,52,0
35010,note_on,90,0,3,,,,,,,,,2,,,40,0
35010,note_on,0,0,3,,,,,,,,,2,,,42,75
35010,note_on,0,0,1,,,,,,,,,0,,,54,88
35040,note_on,30,0,3,,,,,,,,,2,,,42,0
35040,note_on,0,0,3,,,,,,,,,2,,,43,75
35040,note_on,30,0,1,,,,,,,,,0,,,54,0
35040,note_on,0,0,1,,,,,,,,,0,,,55,88
35070,note_on,0,0,1,,,,,,,,,0,,,57,88
35070,note_on,30,0,1,,,,,,,,,0,,,55,0
35070,note_on,30,0,3,,,,,,,,,2,,,43,0
35070,note_on,0,0,3,,,,,,,,,2,,,45,75
35100,note_on,0,0,3,,,,,,,,,2,,,47,75
35100,note_on,30,0,1,,,,,,,,,0,,,57,0
35100,note_on,30,0,3,,,,,,,,,2,,,45,0
35100,note_on,0,0,1,,,,,,,,,0,,,59,88
35220,note_on,0,0,3,,,,,,,,,2,,,49,75
35220,note_on,120,0,3,,,,,,,,,2,,,47,0
35220,note_on,120,0,1,,,,,,,,,0,,,59,0
35220,note_on,0,0,1,,,,,,,,,0,,,61,88
35250,control_change,0,0,3,,,,,,,,,2,64,0,,
35250,note_on,0,0,3,,,,,,,,,2,,,51,75
35250,note_on,30,0,1,,,,,,,,,0,,,61,0
35250,note_on,30,0,3,,,,,,,,,2,,,49,0
35250,control_change,0,0,1,,,,,,,,,0,64,0,,
35250,note_on,0,0,1,,,,,,,,,0,,,63,88
35280,note_on,30,0,1,,,,,,,,,0,,,63,0
35280,note_on,0,0,3,,,,,,,,,2,,,52,75
35280,control_change,0,0,3,,,,,,,,,2,64,127,,
35280,note_on,30,0,3,,,,,,,,,2,,,51,0
35280,control_change,0,0,1,,,,,,,,,0,64,127,,
35280,note_on,0,0,1,,,,,,,,,0,,,64,88
35340,note_on,0,0,3,,,,,,,,,2,,,54,75
35340,note_on,60,0,1,,,,,,,,,0,,,64,0
35340,note_on,0,0,1,,,,,,,,,0,,,66,88
35340,note_on,60,0,3,,,,,,,,,2,,,52,0
35370,note_on,0,0,1,,,,,,,,,0,,,67,88
35370,note_on,30,0,1,,,,,,,,,0,,,66,0
35370,note_on,0,0,3,,,,,,,,,2,,,55,75
35370,note_on,30,0,3,,,,,,,,,2,,,54,0
35400,note_on,0,0,1,,,,,,,,,0,,,69,88
35400,note_on,0,0,3,,,,,,,,,2,,,57,75
35400,note_on,30,0,3,,,,,,,,,2,,,55,0
35400,note_on,30,0,1,,,,,,,,,0,,,67,0
35430,note_on,30,0,1,,,,,,,,,0,,,69,0
35430,control_change,0,0,1,,,,,,,,,0,64,0,,
35430,note_on,0,0,1,,,,,,,,,0,,,71,88
35430,note_on,0,0,3,,,,,,,,,2,,,59,75
35430,control_change,0,0,3,,,,,,,,,2,64,0,,
35430,note_on,30,0,3,,,,,,,,,2,,,57,0
35460,note_on,0,0,3,,,,,,,,,2,,,60,75
35460,note_on,30,0,3,,,,,,,,,2,,,59,0
35460,note_on,0,0,1,,,,,,,,,0,,,72,88
35460,note_on,30,0,1,,,,,,,,,0,,,71,0
35460,time_signature,540,1,0,6,8,12,8,,,,,,,,,
35640,note_on,180,0,3,,,,,,,,,2,,,60,0
35640,note_on,180,0,1,,,,,,,,,0,,,72,0
35820,note_on,180,0,1,,,,,,,,,0,,,59,49
35820,note_on,0,0,1,,,,,,,,,0,,,71,49
35820,note_on,180,0,3,,,,,,,,,2,,,44,36
35820,time_signature,360,1,0,3,8,12,8,,,,,,,,,
35820,note_on,0,0,3,,,,,,,,,2,,,52,36
36000,note_on,180,0,3,,,,,,,,,2,,,52,0
36000,note_on,0,0,1,,,,,,,,,0,,,58,49
36000,note_on,0,0,1,,,,,,,,,0,,,64,49
36000,note_on,0,0,3,,,,,,,,,2,,,44,0
36000,note_on,0,0,3,,,,,,,,,2,,,49,36
36000,note_on,0,0,3,,,,,,,,,2,,,54,36
36000,note_on,180,0,1,,,,,,,,,0,,,71,0
36000,note_on,0,0,1,,,,,,,,,0,,,59,0
36165,note_on,165,0,1,,,,,,,,,0,,,66,49
36180,note_on,15,0,1,,,,,,,,,0,,,66,0
36180,note_on,0,0,1,,,,,,,,,0,,,64,0
36180,note_on,0,0,1,,,,,,,,,0,,,58,0
36180,note_on,0,0,1,,,,,,,,,0,,,64,49
36180,control_change,0,0,1,,,,,,,,,0,64,127,,
36180,note_on,1620,0,2,,,,,,,,,1,,,59,36
36180,note_on,180,0,3,,,,,,,,,2,,,54,0
36180,note_on,0,0,3,,,,,,,,,2,,,49,0
36180,note_on,0,0,3,,,,,,,,,2,,,47,36
36180,note_on,0,0,3,,,,,,,,,2,,,56,36
36240,note_on,60,0,1,,,,,,,,,0,,,64,0
36240,note_on,0,0,1,,,,,,,,,0,,,63,49
36300,note_on,60,0,1,,,,,,,,,0,,,63,0
36300,control_change,0,0,1,,,,,,,,,0,64,0,,
36300,note_on,0,0,1,,,,,,,,,0,,,64,49
36360,note_on,0,0,3,,,,,,,,,2,,,57,36
36360,note_on,0,0,2,,,,,,,,,1,,,63,36
36360,note_on,180,0,2,,,,,,,,,1,,,59,0
36360,note_on,0,0,1,,,,,,,,,0,,,68,49
36360,note_on,60,0,1,,,,,,,,,0,,,64,0
36360,note_on,180,0,3,,,,,,,,,2,,,56,0
36480,note_on,0,0,1,,,,,,,,,0,,,66,49
36480,note_on,120,0,1,,,,,,,,,0,,,68,0
36540,note_on,180,0,3,,,,,,,,,2,,,57,0
36540,note_on,60,0,1,,,,,,,,,0,,,66,0
36540,note_on,180,0,2,,,,,,,,,1,,,63,0
36540,note_on,0,0,3,,,,,,,,,2,,,47,0
36720,note_on,10080,0,4,,,,,,,,,3,,,52,36
36720,control_change,180,0,1,,,,,,,,,0,64,127,,
36720,note_on,0,0,1,,,,,,,,,0,,,71,49
36720,key_signature,900,1,0,,,,,E,,,,,,,,
36720,note_on,180,0,2,,,,,,,,,1,,,64,36
36720,control_change,180,0,3,,,,,,,,,2,64,127,,
36720,note_on,0,0,3,,,,,,,,,2,,,56,36
36750,note_on,0,0,1,,,,,,,,,0,,,73,49
36750,note_on,30,0,1,,,,,,,,,0,,,71,0
36780,note_on,0,0,3,,,,,,,,,2,,,55,36
36780,note_on,0,0,1,,,,,,,,,0,,,70,49
36780,note_on,30,0,1,,,,,,,,,0,,,73,0
36780,note_on,60,0,3,,,,,,,,,2,,,56,0
36810,note_on,30,0,1,,,,,,,,,0,,,70,0
36810,note_on,0,0,1,,,,,,,,,0,,,73,49
36840,note_on,0,0,3,,,,,,,,,2,,,56,49
36840,note_on,0,0,1,,,,,,,,,0,,,71,62
36840,note_on,60,0,3,,,,,,,,,2,,,55,0
36840,note_on,30,0,1,,,,,,,,,0,,,73,0
36870,note_on,0,0,1,,,,,,,,,0,,,73,62
36870,note_on,30,0,1,,,,,,,,,0,,,71,0
36900,note_on,30,0,1,,,,,,,,,0,,,73,0
36900,note_on,0,0,1,,,,,,,,,0,,,70,62
36900,note_on,60,0,3,,,,,,,,,2,,,56,0
36900,note_on,0,0,3,,,,,,,,,2,,,55,49
36930,note_on,0,0,1,,,,,,,,,0,,,73,62
36930,note_on,30,0,1,,,,,,,,,0,,,70,0
36960,note_on,30,0,1,,,,,,,,,0,,,73,0
36960,note_on,0,0,3,,,,,,,,,2,,,56,49
36960,note_on,60,0,3,,,,,,,,,2,,,55,0
36960,note_on,0,0,1,,,,,,,,,0,,,71,62
36990,note_on,30,0,1,,,,,,,,,0,,,71,0
36990,note_on,0,0,1,,,,,,,,,0,,,73,62
37020,note_on,30,0,1,,,,,,,,,0,,,73,0
37020,note_on,0,0,3,,,,,,,,,2,,,55,62
37020,control_change,0,0,3,,,,,,,,,2,64,0,,
37020,note_on,60,0,3,,,,,,,,,2,,,56,0
37020,note_on,0,0,1,,,,,,,,,0,,,70,75
37050,note_on,30,0,1,,,,,,,,,0,,,70,0
37050,note_on,0,0,1,,,,,,,,,0,,,73,75
37050,control_change,0,0,1,,,,,,,,,0,64,0,,
37080,note_on,60,0,3,,,,,,,,,2,,,55,0
37080,note_on,0,0,1,,,,,,,,,0,,,71,75
37080,note_on,0,0,3,,,,,,,,,2,,,56,62
37080,note_on,30,0,1,,,,,,,,,0,,,73,0
37080,control_change,0,0,1,,,,,,,,,0,64,127,,
37170,note_on,90,0,1,,,,,,,,,0,,,71,0
37170,note_on,0,0,1,,,,,,,,,0,,,71,75
37200,note_on,30,0,1,,,,,,,,,0,,,71,0
37200,note_on,480,0,2,,,,,,,,,1,,,64,0
37200,note_on,480,0,4,,,,,,,,,3,,,52,0
37200,note_on,0,0,1,,,,,,,,,0,,,76,75
37200,note_on,120,0,3,,,,,,,,,2,,,56,0
37230,note_on,0,0,1,,,,,,,,,0,,,80,75
37230,note_on,30,0,1,,,,,,,,,0,,,76,0
37260,note_on,60,0,3,,,,,,,,,2,,,59,75
37260,note_on,0,0,1,,,,,,,,,0,,,83,88
37260,note_on,0,0,3,,,,,,,,,2,,,68,75
37260,note_on,0,0,1,,,,,,,,,0,,,71,88
37260,control_change,0,0,1,,,,,,,,,0,64,0,,
37260,note_on,30,0,1,,,,,,,,,0,,,80,0
37440,note_on,180,0,1,,,,,,,,,0,,,83,0
37440,note_on,0,0,1,,,,,,,,,0,,,71,0
37440,note_on,0,0,3,,,,,,,,,2,,,69,36
37440,note_on,0,0,1,,,,,,,,,0,,,83,49
37440,note_on,0,0,3,,,,,,,,,2,,,66,36
37440,note_on,180,0,3,,,,,,,,,2,,,68,0
37440,note_on,0,0,3,,,,,,,,,2,,,59,0
37446,note_on,0,0,3,,,,,,,,,2,,,66,0
37446,note_on,6,0,3,,,,,,,,,2,,,69,0
37470,note_on,0,0,1,,,,,,,,,0,,,81,49
37470,note_on,30,0,1,,,,,,,,,0,,,83,0
37500,note_on,0,0,3,,,,,,,,,2,,,68,36
37500,note_on,54,0,3,,,,,,,,,2,,,64,36
37500,note_on,0,0,1,,,,,,,,,0,,,81,49
37500,note_on,30,0,1,,,,,,,,,0,,,81,0
37506,note_on,6,0,3,,,,,,,,,2,,,68,0
37506,note_on,0,0,3,,,,,,,,,2,,,64,0
37530,note_on,0,0,1,,,,,,,,,0,,,80,49
37530,note_on,30,0,1,,,,,,,,,0,,,81,0
37560,note_on,0,0,1,,,,,,,,,0,,,80,49
37560,note_on,30,0,1,,,,,,,,,0,,,80,0
37560,note_on,54,0,3,,,,,,,,,2,,,63,36
37560,note_on,0,0,3,,,,,,,,,2,,,66,36
37566,note_on,6,0,3,,,,,,,,,2,,,66,0
37566,note_on,0,0,3,,,,,,,,,2,,,63,0
37590,note_on,0,0,1,,,,,,,,,0,,,78,49
37590,note_on,30,0,1,,,,,,,,,0,,,80,0
37620,note_on,0,0,1,,,,,,,,,0,,,78,49
37620,note_on,30,0,1,,,,,,,,,0,,,78,0
37620,note_on,0,0,3,,,,,,,,,2,,,64,36
37620,note_on,54,0,3,,,,,,,,,2,,,61,36
37626,note_on,0,0,3,,,,,,,,,2,,,61,0
37626,note_on,6,0,3,,,,,,,,,2,,,64,0
37650,note_on,0,0,1,,,,,,,,,0,,,76,49
37650,note_on,30,0,1,,,,,,,,,0,,,78,0
37680,note_on,0,0,3,,,,,,,,,2,,,63,36
37680,note_on,54,0,3,,,,,,,,,2,,,59,36
37680,note_on,30,0,1,,,,,,,,,0,,,76,0
37680,note_on,0,0,1,,,,,,,,,0,,,76,49
37686,note_on,0,0,3,,,,,,,,,2,,,59,0
37686,note_on,6,0,3,,,,,,,,,2,,,63,0
37710,note_on,30,0,1,,,,,,,,,0,,,76,0
37710,note_on,0,0,1,,,,,,,,,0,,,75,49
37740,note_on,30,0,1,,,,,,,,,0,,,75,0
37740,note_on,54,0,3,,,,,,,,,2,,,57,36
37740,note_on,0,0,3,,,,,,,,,2,,,61,36
37740,note_on,0,0,1,,,,,,,,,0,,,75,49
37746,note_on,6,0,3,,,,,,,,,2,,,61,0
37746,note_on,0,0,3,,,,,,,,,2,,,57,0
37770,note_on,30,0,1,,,,,,,,,0,,,75,0
37770,note_on,0,0,1,,,,,,,,,0,,,73,49
37800,note_on,0,0,3,,,,,,,,,2,,,59,49
37800,note_on,30,0,1,,,,,,,,,0,,,73,0
37800,note_on,54,0,3,,,,,,,,,2,,,56,49
37800,note_on,0,0,1,,,,,,,,,0,,,73,62
37806,note_on,0,0,3,,,,,,,,,2,,,56,0
37806,note_on,6,0,3,,,,,,,,,2,,,59,0
37830,note_on,30,0,1,,,,,,,,,0,,,73,0
37830,note_on,0,0,1,,,,,,,,,0,,,71,62
37860,note_on,30,0,1,,,,,,,,,0,,,71,0
37860,note_on,0,0,3,,,,,,,,,2,,,57,49
37860,note_on,54,0,3,,,,,,,,,2,,,54,49
37860,note_on,0,0,1,,,,,,,,,0,,,71,62
37866,note_on,6,0,3,,,,,,,,,2,,,57,0
37866,note_on,0,0,3,,,,,,,,,2,,,54,0
37890,note_on,0,0,1,,,,,,,,,0,,,69,62
37890,note_on,30,0,1,,,,,,,,,0,,,71,0
37920,note_on,0,0,3,,,,,,,,,2,,,56,49
37920,note_on,30,0,1,,,,,,,,,0,,,69,0
37920,note_on,54,0,3,,,,,,,,,2,,,52,49
37920,note_on,0,0,1,,,,,,,,,0,,,69,62
37926,note_on,6,0,3,,,,,,,,,2,,,56,0
37926,note_on,0,0,3,,,,,,,,,2,,,52,0
37950,note_on,30,0,1,,,,,,,,,0,,,69,0
37950,note_on,0,0,1,,,,,,,,,0,,,68,62
37980,note_on,0,0,1,,,,,,,,,0,,,68,75
37980,note_on,0,0,3,,,,,,,,,2,,,54,62
37980,note_on,30,0,1,,,,,,,,,0,,,68,0
37980,note_on,54,0,3,,,,,,,,,2,,,51,62
37986,note_on,6,0,3,,,,,,,,,2,,,54,0
37986,note_on,0,0,3,,,,,,,,,2,,,51,0
38010,note_on,0,0,1,,,,,,,,,0,,,66,75
38010,note_on,30,0,1,,,,,,,,,0,,,68,0
38040,note_on,30,0,1,,,,,,,,,0,,,66,0
38040,note_on,0,0,1,,,,,,,,,0,,,66,75
38040,note_on,0,0,3,,,,,,,,,2,,,52,62
38040,note_on,54,0,3,,,,,,,,,2,,,49,62
38046,note_on,6,0,3,,,,,,,,,2,,,52,0
38046,note_on,0,0,3,,,,,,,,,2,,,49,0
38070,note_on,30,0,1,,,,,,,,,0,,,66,0
38070,note_on,0,0,1,,,,,,,,,0,,,64,75
38100,note_on,0,0,1,,,,,,,,,0,,,64,75
38100,note_on,30,0,1,,,,,,,,,0,,,64,0
38100,note_on,0,0,3,,,,,,,,,2,,,51,62
38100,note_on,54,0,3,,,,,,,,,2,,,47,62
38106,note_on,6,0,3,,,,,,,,,2,,,51,0
38106,note_on,0,0,3,,,,,,,,,2,,,47,0
38130,note_on,0,0,1,,,,,,,,,0,,,63,75
38130,note_on,30,0,1,,,,,,,,,0,,,64,0
38160,control_change,54,0,3,,,,,,,,,2,64,127,,
38160,note_on,0,0,3,,,,,,,,,2,,,59,36
38160,note_on,0,0,3,,,,,,,,,2,,,63,36
38160,note_on,0,0,3,,,,,,,,,2,,,66,36
38160,note_on,0,0,3,,,,,,,,,2,,,69,36
38160,note_on,30,0,1,,,,,,,,,0,,,63,0
38166,note_on,0,0,3,,,,,,,,,2,,,59,0
38166,note_on,6,0,3,,,,,,,,,2,,,69,0
38166,note_on,0,0,3,,,,,,,,,2,,,66,0
38166,note_on,0,0,3,,,,,,,,,2,,,63,0
38220,note_on,0,0,3,,,,,,,,,2,,,63,36
38220,note_on,0,0,3,,,,,,,,,2,,,66,36
38220,note_on,0,0,3,,,,,,,,,2,,,69,36
38220,note_on,54,0,3,,,,,,,,,2,,,59,36
38226,note_on,6,0,3,,,,,,,,,2,,,69,0
38226,note_on,0,0,3,,,,,,,,,2,,,59,0
38226,note_on,0,0,3,,,,,,,,,2,,,63,0
38226,note_on,0,0,3,,,,,,,,,2,,,66,0
38280,note_on,0,0,3,,,,,,,,,2,,,63,36
38280,note_on,0,0,3,,,,,,,,,2,,,59,36
38280,note_on,0,0,3,,,,,,,,,2,,,66,36
38280,note_on,0,0,3,,,,,,,,,2,,,69,36
38280,note_on,120,0,1,,,,,,,,,0,,,78,49
38280,control_change,54,0,3,,,,,,,,,2,64,0,,
38286,note_on,6,0,3,,,,,,,,,2,,,69,0
38286,note_on,0,0,3,,,,,,,,,2,,,59,0
38286,note_on,0,0,3,,,,,,,,,2,,,63,0
38286,note_on,0,0,3,,,,,,,,,2,,,66,0
38340,note_on,60,0,1,,,,,,,,,0,,,78,0
38340,note_on,0,0,1,,,,,,,,,0,,,81,75
38340,note_on,0,0,3,,,,,,,,,2,,,66,36
38340,note_on,0,0,3,,,,,,,,,2,,,69,36
38340,note_on,0,0,3,,,,,,,,,2,,,64,36
38340,note_on,0,0,3,,,,,,,,,2,,,60,36
38340,control_change,54,0,3,,,,,,,,,2,64,127,,
38346,note_on,0,0,3,,,,,,,,,2,,,60,0
38346,note_on,0,0,3,,,,,,,,,2,,,64,0
38346,note_on,0,0,3,,,,,,,,,2,,,66,0
38346,note_on,6,0,3,,,,,,,,,2,,,69,0
38400,note_on,0,0,3,,,,,,,,,2,,,64,36
38400,note_on,54,0,3,,,,,,,,,2,,,60,36
38400,note_on,0,0,3,,,,,,,,,2,,,66,36
38400,note_on,0,0,3,,,,,,,,,2,,,69,36
38406,note_on,0,0,3,,,,,,,,,2,,,66,0
38406,note_on,6,0,3,,,,,,,,,2,,,69,0
38406,note_on,0,0,3,,,,,,,,,2,,,60,0
38406,note_on,0,0,3,,,,,,,,,2,,,64,0
38460,control_change,54,0,3,,,,,,,,,2,64,0,,
38460,note_on,0,0,1,,,,,,,,,0,,,78,49
38460,note_on,0,0,3,,,,,,,,,2,,,69,36
38460,note_on,0,0,3,,,,,,,,,2,,,66,36
38460,note_on,0,0,3,,,,,,,,,2,,,64,36
38460,note_on,120,0,1,,,,,,,,,0,,,81,0
38460,note_on,0,0,3,,,,,,,,,2,,,60,36
38466,note_on,0,0,3,,,,,,,,,2,,,66,0
38466,note_on,0,0,3,,,,,,,,,2,,,64,0
38466,note_on,0,0,3,,,,,,,,,2,,,60,0
38466,note_on,6,0,3,,,,,,,,,2,,,69,0
38520,note_on,0,0,3,,,,,,,,,2,,,63,36
38520,note_on,0,0,3,,,,,,,,,2,,,69,36
38520,note_on,0,0,3,,,,,,,,,2,,,66,36
38520,note_on,0,0,3,,,,,,,,,2,,,59,36
38520,control_change,54,0,3,,,,,,,,,2,64,127,,
38520,note_on,60,0,1,,,,,,,,,0,,,78,0
38526,note_on,0,0,3,,,,,,,,,2,,,63,0
38526,note_on,6,0,3,,,,,,,,,2,,,69,0
38526,note_on,0,0,3,,,,,,,,,2,,,66,0
38526,note_on,0,0,3,,,,,,,,,2,,,59,0
38580,note_on,0,0,3,,,,,,,,,2,,,63,36
38580,note_on,0,0,3,,,,,,,,,2,,,66,36
38580,note_on,54,0,3,,,,,,,,,2,,,59,36
38580,note_on,0,0,3,,,,,,,,,2,,,69,36
38586,note_on,0,0,3,,,,,,,,,2,,,59,0
38586,note_on,0,0,3,,,,,,,,,2,,,63,0
38586,note_on,0,0,3,,,,,,,,,2,,,66,0
38586,note_on,6,0,3,,,,,,,,,2,,,69,0
38640,control_change,54,0,3,,,,,,,,,2,64,0,,
38640,note_on,0,0,3,,,,,,,,,2,,,59,36
38640,note_on,0,0,3,,,,,,,,,2,,,63,36
38640,note_on,0,0,3,,,,,,,,,2,,,66,36
38640,note_on,0,0,3,,,,,,,,,2,,,69,36
38640,note_on,120,0,1,,,,,,,,,0,,,78,67
38640,note_on,0,0,1,,,,,,,,,0,,,90,75
38646,note_on,0,0,3,,,,,,,,,2,,,66,0
38646,note_on,0,0,3,,,,,,,,,2,,,63,0
38646,note_on,6,0,3,,,,,,,,,2,,,69,0
38646,note_on,0,0,3,,,,,,,,,2,,,59,0
38700,note_on,0,0,3,,,,,,,,,2,,,69,36
38700,note_on,0,0,3,,,,,,,,,2,,,66,36
38700,note_on,0,0,3,,,,,,,,,2,,,64,36
38700,note_on,0,0,3,,,,,,,,,2,,,60,36
38700,control_change,54,0,3,,,,,,,,,2,64,127,,
38700,note_on,0,0,1,,,,,,,,,0,,,93,49
38700,note_on,0,0,1,,,,,,,,,0,,,81,49
38700,note_on,0,0,1,,,,,,,,,0,,,78,0
38700,note_on,60,0,1,,,,,,,,,0,,,90,0
38706,note_on,6,0,3,,,,,,,,,2,,,69,0
38706,note_on,0,0,3,,,,,,,,,2,,,60,0
38706,note_on,0,0,3,,,,,,,,,2,,,66,0
38706,note_on,0,0,3,,,,,,,,,2,,,64,0
38760,note_on,0,0,3,,,,,,,,,2,,,69,36
38760,note_on,0,0,3,,,,,,,,,2,,,66,36
38760,note_on,0,0,3,,,,,,,,,2,,,64,36
38760,note_on,54,0,3,,,,,,,,,2,,,60,36
38766,note_on,0,0,3,,,,,,,,,2,,,66,0
38766,note_on,0,0,3,,,,,,,,,2,,,64,0
38766,note_on,6,0,3,,,,,,,,,2,,,69,0
38766,note_on,0,0,3,,,,,,,,,2,,,60,0
38820,note_on,0,0,3,,,,,,,,,2,,,66,36
38820,note_on,0,0,1,,,,,,,,,0,,,90,49
38820,note_on,0,0,1,,,,,,,,,0,,,78,49
38820,note_on,0,0,1,,,,,,,,,0,,,81,0
38820,note_on,120,0,1,,,,,,,,,0,,,93,0
38820,control_change,54,0,3,,,,,,,,,2,64,0,,
38820,note_on,0,0,3,,,,,,,,,2,,,60,36
38820,note_on,0,0,3,,,,,,,,,2,,,64,36
38820,note_on,0,0,3,,,,,,,,,2,,,69,36
38826,note_on,0,0,3,,,,,,,,,2,,,66,0
38826,note_on,0,0,3,,,,,,,,,2,,,60,0
38826,note_on,6,0,3,,,,,,,,,2,,,69,0
38826,note_on,0,0,3,,,,,,,,,2,,,64,0
38880,note_on,60,0,1,,,,,,,,,0,,,90,0
38880,note_on,0,0,1,,,,,,,,,0,,,78,0
38880,control_change,54,0,3,,,,,,,,,2,64,127,,
38880,note_on,0,0,3,,,,,,,,,2,,,59,36
38880,note_on,0,0,3,,,,,,,,,2,,,63,36
38880,note_on,0,0,3,,,,,,,,,2,,,66,36
38880,note_on,0,0,3,,,,,,,,,2,,,69,36
38886,note_on,0,0,3,,,,,,,,,2,,,63,0
38886,note_on,0,0,3,,,,,,,,,2,,,66,0
38886,note_on,0,0,3,,,,,,,,,2,,,59,0
38886,note_on,6,0,3,,,,,,,,,2,,,69,0
38940,note_on,0,0,3,,,,,,,,,2,,,69,36
38940,note_on,54,0,3,,,,,,,,,2,,,59,36
38940,note_on,0,0,3,,,,,,,,,2,,,63,36
38940,note_on,0,0,3,,,,,,,,,2,,,66,36
38946,note_on,0,0,3,,,,,,,,,2,,,66,0
38946,note_on,0,0,3,,,,,,,,,2,,,63,0
38946,note_on,0,0,3,,,,,,,,,2,,,59,0
38946,note_on,6,0,3,,,,,,,,,2,,,69,0
39000,note_on,120,0,1,,,,,,,,,0,,,78,49
39000,control_change,54,0,3,,,,,,,,,2,64,0,,
39000,note_on,0,0,3,,,,,,,,,2,,,59,36
39000,note_on,0,0,3,,,,,,,,,2,,,63,36
39000,note_on,0,0,3,,,,,,,,,2,,,66,36
39000,note_on,0,0,3,,,,,,,,,2,,,69,36
39006,note_on,6,0,3,,,,,,,,,2,,,69,0
39006,note_on,0,0,3,,,,,,,,,2,,,59,0
39006,note_on,0,0,3,,,,,,,,,2,,,63,0
39006,note_on,0,0,3,,,,,,,,,2,,,66,0
39060,note_on,0,0,3,,,,,,,,,2,,,66,49
39060,note_on,0,0,3,,,,,,,,,2,,,69,49
39060,note_on,0,0,3,,,,,,,,,2,,,64,49
39060,note_on,60,0,1,,,,,,,,,0,,,78,0
39060,control_change,54,0,3,,,,,,,,,2,64,127,,
39060,note_on,0,0,1,,,,,,,,,0,,,81,88
39060,note_on,0,0,3,,,,,,,,,2,,,60,49
39066,note_on,6,0,3,,,,,,,,,2,,,69,0
39066,note_on,0,0,3,,,,,,,,,2,,,60,0
39066,note_on,0,0,3,,,,,,,,,2,,,64,0
39066,note_on,0,0,3,,,,,,,,,2,,,66,0
39120,note_on,54,0,3,,,,,,,,,2,,,60,49
39120,note_on,0,0,3,,,,,,,,,2,,,64,49
39120,note_on,0,0,3,,,,,,,,,2,,,66,49
39120,note_on,0,0,3,,,,,,,,,2,,,69,49
39126,note_on,6,0,3,,,,,,,,,2,,,69,0
39126,note_on,0,0,3,,,,,,,,,2,,,60,0
39126,note_on,0,0,3,,,,,,,,,2,,,64,0
39126,note_on,0,0,3,,,,,,,,,2,,,66,0
39180,note_on,0,0,3,,,,,,,,,2,,,60,49
39180,note_on,0,0,3,,,,,,,,,2,,,64,49
39180,note_on,0,0,1,,,,,,,,,0,,,78,62
39180,note_on,120,0,1,,,,,,,,,0,,,81,0
39180,control_change,54,0,3,,,,,,,,,2,64,0,,
39180,note_on,0,0,3,,,,,,,,,2,,,69,49
39180,note_on,0,0,3,,,,,,,,,2,,,66,49
39186,note_on,0,0,3,,,,,,,,,2,,,60,0
39186,note_on,0,0,3,,,,,,,,,2,,,64,0
39186,note_on,0,0,3,,,,,,,,,2,,,66,0
39186,note_on,6,0,3,,,,,,,,,2,,,69,0
39240,note_on,0,0,3,,,,,,,,,2,,,69,62
39240,note_on,0,0,3,,,,,,,,,2,,,66,62
39240,note_on,0,0,3,,,,,,,,,2,,,63,62
39240,note_on,60,0,1,,,,,,,,,0,,,78,0
39240,note_on,0,0,3,,,,,,,,,2,,,59,62
39240,control_change,54,0,3,,,,,,,,,2,64,127,,
39246,note_on,6,0,3,,,,,,,,,2,,,69,0
39246,note_on,0,0,3,,,,,,,,,2,,,59,0
39246,note_on,0,0,3,,,,,,,,,2,,,63,0
39246,note_on,0,0,3,,,,,,,,,2,,,66,0
39300,note_on,54,0,3,,,,,,,,,2,,,59,62
39300,note_on,0,0,3,,,,,,,,,2,,,63,62
39300,note_on,0,0,3,,,,,,,,,2,,,66,62
39300,note_on,0,0,3,,,,,,,,,2,,,69,62
39306,note_on,0,0,3,,,,,,,,,2,,,66,0
39306,note_on,0,0,3,,,,,,,,,2,,,59,0
39306,note_on,0,0,3,,,,,,,,,2,,,63,0
39306,note_on,6,0,3,,,,,,,,,2,,,69,0
39360,note_on,0,0,1,,,,,,,,,0,,,90,75
39360,control_change,54,0,3,,,,,,,,,2,64,0,,
39360,note_on,0,0,3,,,,,,,,,2,,,59,62
39360,note_on,0,0,3,,,,,,,,,2,,,63,62
39360,note_on,0,0,3,,,,,,,,,2,,,66,62
39360,note_on,0,0,3,,,,,,,,,2,,,69,62
39360,note_on,120,0,1,,,,,,,,,0,,,78,75
39366,note_on,6,0,3,,,,,,,,,2,,,69,0
39366,note_on,0,0,3,,,,,,,,,2,,,59,0
39366,note_on,0,0,3,,,,,,,,,2,,,63,0
39366,note_on,0,0,3,,,,,,,,,2,,,66,0
39420,note_on,0,0,1,,,,,,,,,0,,,81,93
39420,note_on,0,0,1,,,,,,,,,0,,,78,0
39420,note_on,60,0,1,,,,,,,,,0,,,90,0
39420,note_on,0,0,3,,,,,,,,,2,,,66,62
39420,note_on,0,0,3,,,,,,,,,2,,,63,62
39420,note_on,0,0,3,,,,,,,,,2,,,60,62
39420,control_change,54,0,3,,,,,,,,,2,64,127,,
39420,note_on,0,0,3,,,,,,,,,2,,,69,62
39420,note_on,0,0,1,,,,,,,,,0,,,93,101
39426,note_on,6,0,3,,,,,,,,,2,,,69,0
39426,note_on,0,0,3,,,,,,,,,2,,,60,0
39426,note_on,0,0,3,,,,,,,,,2,,,63,0
39426,note_on,0,0,3,,,,,,,,,2,,,66,0
39480,note_on,54,0,3,,,,,,,,,2,,,60,62
39480,note_on,0,0,3,,,,,,,,,2,,,63,62
39480,note_on,0,0,3,,,,,,,,,2,,,66,62
39480,note_on,0,0,3,,,,,,,,,2,,,69,62
39486,note_on,0,0,3,,,,,,,,,2,,,60,0
39486,note_on,0,0,3,,,,,,,,,2,,,66,0
39486,note_on,0,0,3,,,,,,,,,2,,,63,0
39486,note_on,6,0,3,,,,,,,,,2,,,69,0
39540,note_on,0,0,1,,,,,,,,,0,,,90,75
39540,note_on,0,0,1,,,,,,,,,0,,,78,75
39540,note_on,0,0,1,,,,,,,,,0,,,81,0
39540,note_on,120,0,1,,,,,,,,,0,,,93,0
39540,control_change,54,0,3,,,,,,,,,2,64,0,,
39540,note_on,0,0,3,,,,,,,,,2,,,63,62
39540,note_on,0,0,3,,,,,,,,,2,,,69,62
39540,note_on,0,0,3,,,,,,,,,2,,,66,62
39540,note_on,0,0,3,,,,,,,,,2,,,60,62
39546,note_on,0,0,3,,,,,,,,,2,,,66,0
39546,note_on,0,0,3,,,,,,,,,2,,,63,0
39546,note_on,0,0,3,,,,,,,,,2,,,60,0
39546,note_on,6,0,3,,,,,,,,,2,,,69,0
39600,control_change,0,0,1,,,,,,,,,0,64,127,,
39600,note_on,60,0,1,,,,,,,,,0,,,90,0
39600,note_on,0,0,1,,,,,,,,,0,,,78,0
39600,note_on,0,0,1,,,,,,,,,0,,,85,114
39600,note_on,2400,0,2,,,,,,,,,1,,,73,75
39600,note_on,0,0,2,,,,,,,,,1,,,78,75
39600,note_on,54,0,3,,,,,,,,,2,,,69,75
39600,control_change,2400,0,4,,,,,,,,,3,64,127,,
39600,note_on,0,0,4,,,,,,,,,3,,,61,75
39606,note_on,6,0,4,,,,,,,,,3,,,61,0
39660,note_on,54,0,4,,,,,,,,,3,,,61,75
39666,note_on,6,0,4,,,,,,,,,3,,,61,0
39720,note_on,0,0,1,,,,,,,,,0,,,83,88
39720,note_on,120,0,1,,,,,,,,,0,,,85,0
39720,control_change,54,0,4,,,,,,,,,3,64,0,,
39720,note_on,0,0,4,,,,,,,,,3,,,61,75
39726,note_on,6,0,4,,,,,,,,,3,,,61,0
39750,note_on,0,0,1,,,,,,,,,0,,,81,88
39750,note_on,30,0,1,,,,,,,,,0,,,83,0
39750,control_change,0,0,1,,,,,,,,,0,64,0,,
39780,note_on,0,0,4,,,,,,,,,3,,,61,75
39780,note_on,0,0,1,,,,,,,,,0,,,80,114
39780,note_on,0,0,3,,,,,,,,,2,,,71,75
39780,note_on,180,0,3,,,,,,,,,2,,,69,0
39780,note_on,0,0,2,,,,,,,,,1,,,77,75
39780,note_on,0,0,2,,,,,,,,,1,,,74,75
39780,note_on,0,0,2,,,,,,,,,1,,,73,0
39780,note_on,180,0,2,,,,,,,,,1,,,78,0
39780,note_on,30,0,1,,,,,,,,,0,,,81,0
39780,control_change,54,0,4,,,,,,,,,3,64,127,,
39780,control_change,0,0,1,,,,,,,,,0,64,127,,
39786,note_on,6,0,4,,,,,,,,,3,,,61,0
39840,note_on,54,0,4,,,,,,,,,3,,,61,75
39846,note_on,6,0,4,,,,,,,,,3,,,61,0
39900,control_change,54,0,4,,,,,,,,,3,64,0,,
39900,note_on,120,0,1,,,,,,,,,0,,,80,0
39900,note_on,0,0,1,,,,,,,,,0,,,81,88
39900,note_on,0,0,4,,,,,,,,,3,,,61,75
39906,note_on,6,0,4,,,,,,,,,3,,,61,0
39930,note_on,30,0,1,,,,,,,,,0,,,81,0
39930,control_change,0,0,1,,,,,,,,,0,64,0,,
39930,note_on,0,0,1,,,,,,,,,0,,,83,88
39960,control_change,54,0,4,,,,,,,,,3,64,127,,
39960,note_on,0,0,4,,,,,,,,,3,,,61,75
39960,note_on,0,0,2,,,,,,,,,1,,,74,0
39960,note_on,0,0,3,,,,,,,,,2,,,69,75
39960,note_on,180,0,3,,,,,,,,,2,,,71,0
39960,note_on,0,0,2,,,,,,,,,1,,,78,75
39960,note_on,180,0,2,,,,,,,,,1,,,77,0
39960,note_on,0,0,2,,,,,,,,,1,,,73,75
39960,note_on,30,0,1,,,,,,,,,0,,,83,0
39960,control_change,0,0,1,,,,,,,,,0,64,127,,
39960,note_on,0,0,1,,,,,,,,,0,,,85,114
39966,note_on,6,0,4,,,,,,,,,3,,,61,0
40020,note_on,54,0,4,,,,,,,,,3,,,61,75
40026,note_on,6,0,4,,,,,,,,,3,,,61,0
40080,note_on,0,0,1,,,,,,,,,0,,,83,88
40080,note_on,120,0,1,,,,,,,,,0,,,85,0
40080,control_change,54,0,4,,,,,,,,,3,64,0,,
40080,note_on,0,0,4,,,,,,,,,3,,,61,75
40086,note_on,6,0,4,,,,,,,,,3,,,61,0
40110,control_change,0,0,1,,,,,,,,,0,64,0,,
40110,note_on,30,0,1,,,,,,,,,0,,,83,0
40110,note_on,0,0,1,,,,,,,,,0,,,81,88
40140,note_on,30,0,1,,,,,,,,,0,,,81,0
40140,note_on,0,0,2,,,,,,,,,1,,,73,0
40140,note_on,0,0,4,,,,,,,,,3,,,61,75
40140,note_on,0,0,3,,,,,,,,,2,,,71,75
40140,note_on,180,0,3,,,,,,,,,2,,,69,0
40140,note_on,0,0,2,,,,,,,,,1,,,77,75
40140,note_on,0,0,2,,,,,,,,,1,,,74,75
40140,note_on,180,0,2,,,,,,,,,1,,,78,0
40140,note_on,0,0,1,,,,,,,,,0,,,80,114
40140,control_change,0,0,1,,,,,,,,,0,64,127,,
40140,control_change,54,0,4,,,,,,,,,3,64,127,,
40146,note_on,6,0,4,,,,,,,,,3,,,61,0
40200,note_on,54,0,4,,,,,,,,,3,,,61,75
40206,note_on,6,0,4,,,,,,,,,3,,,61,0
40260,note_on,0,0,1,,,,,,,,,0,,,81,88
40260,note_on,0,0,4,,,,,,,,,3,,,61,75
40260,control_change,54,0,4,,,,,,,,,3,64,0,,
40260,note_on,120,0,1,,,,,,,,,0,,,80,0
40266,note_on,6,0,4,,,,,,,,,3,,,61,0
40290,note_on,0,0,1,,,,,,,,,0,,,83,88
40290,control_change,0,0,1,,,,,,,,,0,64,0,,
40290,note_on,30,0,1,,,,,,,,,0,,,81,0
40320,note_on,0,0,1,,,,,,,,,0,,,81,101
40320,note_on,180,0,3,,,,,,,,,2,,,71,0
40320,note_on,0,0,1,,,,,,,,,0,,,78,101
40320,note_on,0,0,1,,,,,,,,,0,,,75,101
40320,note_on,0,0,3,,,,,,,,,2,,,69,88
40320,note_on,0,0,1,,,,,,,,,0,,,84,101
40320,note_on,0,0,3,,,,,,,,,2,,,72,88
40320,note_on,0,0,2,,,,,,,,,1,,,74,0
40320,control_change,0,0,1,,,,,,,,,0,64,127,,
40320,note_on,30,0,1,,,,,,,,,0,,,83,0
40320,note_on,180,0,2,,,,,,,,,1,,,77,0
40320,control_change,0,0,3,,,,,,,,,2,64,127,,
40320,note_on,0,0,3,,,,,,,,,2,,,61,88
40326,note_on,0,0,1,,,,,,,,,0,,,81,0
40326,note_on,0,0,1,,,,,,,,,0,,,78,0
40326,note_on,0,0,1,,,,,,,,,0,,,75,0
40326,note_on,6,0,1,,,,,,,,,0,,,84,0
40326,note_on,6,0,3,,,,,,,,,2,,,72,0
40326,note_on,0,0,3,,,,,,,,,2,,,69,0
40326,note_on,0,0,3,,,,,,,,,2,,,61,0
40380,note_on,54,0,3,,,,,,,,,2,,,61,88
40380,note_on,0,0,3,,,,,,,,,2,,,69,88
40380,note_on,0,0,3,,,,,,,,,2,,,72,88
40380,note_on,54,0,1,,,,,,,,,0,,,75,101
40380,note_on,0,0,1,,,,,,,,,0,,,78,101
40380,note_on,0,0,1,,,,,,,,,0,,,81,101
40380,note_on,0,0,1,,,,,,,,,0,,,84,101
40386,note_on,6,0,1,,,,,,,,,0,,,84,0
40386,note_on,0,0,1,,,,,,,,,0,,,75,0
40386,note_on,0,0,1,,,,,,,,,0,,,78,0
40386,note_on,0,0,1,,,,,,,,,0,,,81,0
40386,note_on,0,0,3,,,,,,,,,2,,,61,0
40386,note_on,0,0,3,,,,,,,,,2,,,69,0
40386,note_on,6,0,3,,,,,,,,,2,,,72,0
40440,note_on,0,0,1,,,,,,,,,0,,,81,101
40440,note_on,0,0,3,,,,,,,,,2,,,72,88
40440,note_on,54,0,3,,,,,,,,,2,,,61,88
40440,note_on,0,0,3,,,,,,,,,2,,,69,88
40440,note_on,0,0,1,,,,,,,,,0,,,84,101
40440,note_on,54,0,1,,,,,,,,,0,,,75,101
40440,note_on,0,0,1,,,,,,,,,0,,,78,101
40446,note_on,6,0,3,,,,,,,,,2,,,72,0
40446,note_on,0,0,3,,,,,,,,,2,,,69,0
40446,note_on,0,0,3,,,,,,,,,2,,,61,0
40446,note_on,6,0,1,,,,,,,,,0,,,84,0
40446,note_on,0,0,1,,,,,,,,,0,,,75,0
40446,note_on,0,0,1,,,,,,,,,0,,,78,0
40446,note_on,0,0,1,,,,,,,,,0,,,81,0
40500,note_on,0,0,1,,,,,,,,,0,,,84,101
40500,note_on,0,0,1,,,,,,,,,0,,,81,101
40500,note_on,0,0,1,,,,,,,,,0,,,78,101
40500,control_change,54,0,1,,,,,,,,,0,64,127,,
40500,note_on,0,0,3,,,,,,,,,2,,,72,88
40500,note_on,0,0,3,,,,,,,,,2,,,69,88
40500,note_on,0,0,3,,,,,,,,,2,,,61,88
40500,control_change,54,0,3,,,,,,,,,2,64,127,,
40500,note_on,0,0,1,,,,,,,,,0,,,75,101
40506,note_on,0,0,3,,,,,,,,,2,,,61,0
40506,note_on,0,0,3,,,,,,,,,2,,,69,0
40506,note_on,6,0,3,,,,,,,,,2,,,72,0
40506,note_on,6,0,1,,,,,,,,,0,,,84,0
40506,note_on,0,0,1,,,,,,,,,0,,,75,0
40506,note_on,0,0,1,,,,,,,,,0,,,78,0
40506,note_on,0,0,1,,,,,,,,,0,,,81,0
40560,note_on,0,0,3,,,,,,,,,2,,,69,88
40560,note_on,0,0,1,,,,,,,,,0,,,78,101
40560,note_on,0,0,3,,,,,,,,,2,,,72,88
40560,note_on,0,0,1,,,,,,,,,0,,,84,101
40560,note_on,54,0,1,,,,,,,,,0,,,75,101
40560,note_on,54,0,3,,,,,,,,,2,,,61,88
40560,note_on,0,0,1,,,,,,,,,0,,,81,101
40566,note_on,6,0,1,,,,,,,,,0,,,84,0
40566,note_on,0,0,1,,,,,,,,,0,,,75,0
40566,note_on,0,0,1,,,,,,,,,0,,,78,0
40566,note_on,0,0,1,,,,,,,,,0,,,81,0
40566,note_on,0,0,3,,,,,,,,,2,,,69,0
40566,note_on,0,0,3,,,,,,,,,2,,,61,0
40566,note_on,6,0,3,,,,,,,,,2,,,72,0
40620,note_on,0,0,3,,,,,,,,,2,,,72,88
40620,note_on,0,0,1,,,,,,,,,0,,,75,101
40620,note_on,0,0,3,,,,,,,,,2,,,69,88
40620,control_change,54,0,1,,,,,,,,,0,64,0,,
40620,control_change,54,0,3,,,,,,,,,2,64,0,,
40620,note_on,0,0,3,,,,,,,,,2,,,61,88
40620,note_on,0,0,1,,,,,,,,,0,,,78,101
40620,note_on,0,0,1,,,,,,,,,0,,,81,101
40620,note_on,0,0,1,,,,,,,,,0,,,84,101
40626,note_on,0,0,1,,,,,,,,,0,,,75,0
40626,note_on,0,0,3,,,,,,,,,2,,,61,0
40626,note_on,0,0,3,,,,,,,,,2,,,69,0
40626,note_on,6,0,1,,,,,,,,,0,,,84,0
40626,note_on,6,0,3,,,,,,,,,2,,,72,0
40626,note_on,0,0,1,,,,,,,,,0,,,78,0
40626,note_on,0,0,1,,,,,,,,,0,,,81,0
40680,note_on,0,0,3,,,,,,,,,2,,,73,88
40680,note_on,0,0,3,,,,,,,,,2,,,68,88
40680,control_change,54,0,3,,,,,,,,,2,64,127,,
40680,control_change,54,0,1,,,,,,,,,0,64,127,,
40680,note_on,0,0,1,,,,,,,,,0,,,77,101
40680,note_on,0,0,1,,,,,,,,,0,,,80,101
40680,note_on,0,0,3,,,,,,,,,2,,,61,88
40680,note_on,0,0,1,,,,,,,,,0,,,85,101
40686,note_on,6,0,1,,,,,,,,,0,,,85,0
40686,note_on,0,0,3,,,,,,,,,2,,,68,0
40686,note_on,6,0,3,,,,,,,,,2,,,73,0
40686,note_on,0,0,1,,,,,,,,,0,,,80,0
40686,note_on,0,0,3,,,,,,,,,2,,,61,0
40686,note_on,0,0,1,,,,,,,,,0,,,77,0
40800,control_change,114,0,1,,,,,,,,,0,64,0,,
40800,control_change,114,0,3,,,,,,,,,2,64,0,,
41040,control_change,240,0,1,,,,,,,,,0,64,127,,
41040,note_on,0,0,1,,,,,,,,,0,,,66,49
41040,note_on,0,0,1,,,,,,,,,0,,,69,49
41040,note_on,0,0,1,,,,,,,,,0,,,72,49
41040,control_change,240,0,3,,,,,,,,,2,64,127,,
41040,note_on,0,0,3,,,,,,,,,2,,,49,36
41040,note_on,0,0,3,,,,,,,,,2,,,57,36
41040,note_on,0,0,3,,,,,,,,,2,,,60,36
41040,note_on,0,0,1,,,,,,,,,0,,,63,49
41046,note_on,6,0,3,,,,,,,,,2,,,60,0
41046,note_on,0,0,3,,,,,,,,,2,,,57,0
41046,note_on,0,0,3,,,,,,,,,2,,,49,0
41046,note_on,0,0,1,,,,,,,,,0,,,63,0
41046,note_on,6,0,1,,,,,,,,,0,,,72,0
41046,note_on,0,0,1,,,,,,,,,0,,,66,0
41046,note_on,0,0,1,,,,,,,,,0,,,69,0
41100,note_on,54,0,1,,,,,,,,,0,,,63,49
41100,note_on,0,0,1,,,,,,,,,0,,,66,49
41100,note_on,0,0,1,,,,,,,,,0,,,69,49
41100,note_on,0,0,1,,,,,,,,,0,,,72,49
41100,note_on,0,0,3,,,,,,,,,2,,,57,36
41100,note_on,54,0,3,,,,,,,,,2,,,49,36
41100,note_on,0,0,3,,,,,,,,,2,,,60,36
41106,note_on,0,0,3,,,,,,,,,2,,,57,0
41106,note_on,0,0,3,,,,,,,,,2,,,49,0
41106,note_on,6,0,3,,,,,,,,,2,,,60,0
41106,note_on,0,0,1,,,,,,,,,0,,,69,0
41106,note_on,0,0,1,,,,,,,,,0,,,66,0
41106,note_on,0,0,1,,,,,,,,,0,,,63,0
41106,note_on,6,0,1,,,,,,,,,0,,,72,0
41160,note_on,54,0,1,,,,,,,,,0,,,63,49
41160,note_on,0,0,1,,,,,,,,,0,,,72,49
41160,note_on,0,0,3,,,,,,,,,2,,,60,36
41160,note_on,0,0,3,,,,,,,,,2,,,57,36
41160,note_on,54,0,3,,,,,,,,,2,,,49,36
41160,note_on,0,0,1,,,,,,,,,0,,,66,49
41160,note_on,0,0,1,,,,,,,,,0,,,69,49
41166,note_on,0,0,3,,,,,,,,,2,,,49,0
41166,note_on,0,0,3,,,,,,,,,2,,,57,0
41166,note_on,6,0,3,,,,,,,,,2,,,60,0
41166,note_on,0,0,1,,,,,,,,,0,,,69,0
41166,note_on,0,0,1,,,,,,,,,0,,,66,0
41166,note_on,0,0,1,,,,,,,,,0,,,63,0
41166,note_on,6,0,1,,,,,,,,,0,,,72,0
41220,note_on,0,0,1,,,,,,,,,0,,,69,49
41220,note_on,0,0,1,,,,,,,,,0,,,66,49
41220,note_on,54,0,1,,,,,,,,,0,,,63,49
41220,note_on,54,0,3,,,,,,,,,2,,,49,36
41220,note_on,0,0,1,,,,,,,,,0,,,72,49
41220,note_on,0,0,3,,,,,,,,,2,,,57,36
41220,note_on,0,0,3,,,,,,,,,2,,,60,36
41226,note_on,0,0,1,,,,,,,,,0,,,63,0
41226,note_on,0,0,1,,,,,,,,,0,,,66,0
41226,note_on,6,0,1,,,,,,,,,0,,,72,0
41226,note_on,6,0,3,,,,,,,,,2,,,60,0
41226,note_on,0,0,3,,,,,,,,,2,,,57,0
41226,note_on,0,0,3,,,,,,,,,2,,,49,0
41226,note_on,0,0,1,,,,,,,,,0,,,69,0
41280,note_on,0,0,1,,,,,,,,,0,,,66,49
41280,note_on,54,0,3,,,,,,,,,2,,,49,36
41280,note_on,0,0,3,,,,,,,,,2,,,57,36
41280,note_on,0,0,1,,,,,,,,,0,,,69,49
41280,note_on,0,0,1,,,,,,,,,0,,,72,49
41280,note_on,0,0,3,,,,,,,,,2,,,60,36
41280,note_on,54,0,1,,,,,,,,,0,,,63,49
41286,note_on,6,0,1,,,,,,,,,0,,,72,0
41286,note_on,0,0,1,,,,,,,,,0,,,63,0
41286,note_on,0,0,1,,,,,,,,,0,,,66,0
41286,note_on,0,0,1,,,,,,,,,0,,,69,0
41286,note_on,6,0,3,,,,,,,,,2,,,60,0
41286,note_on,0,0,3,,,,,,,,,2,,,57,0
41286,note_on,0,0,3,,,,,,,,,2,,,49,0
41340,control_change,54,0,3,,,,,,,,,2,64,0,,
41340,note_on,0,0,3,,,,,,,,,2,,,49,36
41340,note_on,0,0,3,,,,,,,,,2,,,57,36
41340,note_on,0,0,3,,,,,,,,,2,,,60,36
41340,control_change,54,0,1,,,,,,,,,0,64,0,,
41340,note_on,0,0,1,,,,,,,,,0,,,66,49
41340,note_on,0,0,1,,,,,,,,,0,,,69,49
41340,note_on,0,0,1,,,,,,,,,0,,,72,49
41340,note_on,0,0,1,,,,,,,,,0,,,63,49
41346,note_on,0,0,1,,,,,,,,,0,,,63,0
41346,note_on,0,0,3,,,,,,,,,2,,,49,0
41346,note_on,0,0,3,,,,,,,,,2,,,57,0
41346,note_on,6,0,3,,,,,,,,,2,,,60,0
41346,note_on,0,0,1,,,,,,,,,0,,,66,0
41346,note_on,0,0,1,,,,,,,,,0,,,69,0
41346,note_on,6,0,1,,,,,,,,,0,,,72,0
41400,note_on,0,0,1,,,,,,,,,0,,,65,49
41400,note_on,0,0,1,,,,,,,,,0,,,68,49
41400,note_on,0,0,1,,,,,,,,,0,,,73,49
41400,control_change,54,0,3,,,,,,,,,2,64,127,,
41400,note_on,0,0,3,,,,,,,,,2,,,49,36
41400,note_on,0,0,3,,,,,,,,,2,,,56,36
41400,note_on,0,0,3,,,,,,,,,2,,,61,36
41400,control_change,54,0,1,,,,,,,,,0,64,127,,
41406,note_on,0,0,3,,,,,,,,,2,,,56,0
41406,note_on,6,0,1,,,,,,,,,0,,,73,0
41406,note_on,0,0,1,,,,,,,,,0,,,65,0
41406,note_on,6,0,3,,,,,,,,,2,,,61,0
41406,note_on,0,0,3,,,,,,,,,2,,,49,0
41406,note_on,0,0,1,,,,,,,,,0,,,68,0
41460,control_change,54,0,3,,,,,,,,,2,64,0,,
41460,control_change,54,0,1,,,,,,,,,0,64,0,,
41580,control_change,120,0,3,,,,,,,,,2,64,127,,
41580,note_on,0,0,1,,,,,,,,,0,,,74,114
41580,control_change,120,0,1,,,,,,,,,0,64,127,,
41580,note_on,0,0,3,,,,,,,,,2,,,62,101
41760,note_on,0,0,3,,,,,,,,,2,,,73,88
41760,note_on,0,0,1,,,,,,,,,0,,,82,101
41760,note_on,0,0,1,,,,,,,,,0,,,85,101
41760,note_on,0,0,3,,,,,,,,,2,,,70,88
41760,note_on,180,0,3,,,,,,,,,2,,,62,0
41760,note_on,0,0,3,,,,,,,,,2,,,62,88
41760,note_on,180,0,1,,,,,,,,,0,,,74,0
41760,note_on,0,0,1,,,,,,,,,0,,,76,101
41760,note_on,0,0,1,,,,,,,,,0,,,79,101
41766,note_on,6,0,3,,,,,,,,,2,,,73,0
41766,note_on,0,0,3,,,,,,,,,2,,,70,0
41766,note_on,6,0,1,,,,,,,,,0,,,85,0
41766,note_on,0,0,1,,,,,,,,,0,,,76,0
41766,note_on,0,0,1,,,,,,,,,0,,,79,0
41766,note_on,0,0,1,,,,,,,,,0,,,82,0
41766,note_on,0,0,3,,,,,,,,,2,,,62,0
41820,note_on,54,0,1,,,,,,,,,0,,,76,101
41820,note_on,0,0,1,,,,,,,,,0,,,79,101
41820,note_on,0,0,1,,,,,,,,,0,,,82,101
41820,note_on,0,0,1,,,,,,,,,0,,,85,101
41820,note_on,0,0,3,,,,,,,,,2,,,70,88
41820,note_on,0,0,3,,,,,,,,,2,,,73,88
41820,note_on,54,0,3,,,,,,,,,2,,,62,88
41826,note_on,0,0,1,,,,,,,,,0,,,82,0
41826,note_on,0,0,1,,,,,,,,,0,,,79,0
41826,note_on,0,0,1,,,,,,,,,0,,,76,0
41826,note_on,6,0,1,,,,,,,,,0,,,85,0
41826,note_on,6,0,3,,,,,,,,,2,,,73,0
41826,note_on,0,0,3,,,,,,,,,2,,,70,0
41826,note_on,0,0,3,,,,,,,,,2,,,62,0
41880,note_on,0,0,1,,,,,,,,,0,,,82,101
41880,note_on,54,0,3,,,,,,,,,2,,,62,88
41880,note_on,0,0,3,,,,,,,,,2,,,73,88
41880,note_on,0,0,1,,,,,,,,,0,,,79,101
41880,note_on,0,0,1,,,,,,,,,0,,,85,101
41880,note_on,0,0,3,,,,,,,,,2,,,70,88
41880,note_on,54,0,1,,,,,,,,,0,,,76,101
41886,note_on,6,0,3,,,,,,,,,2,,,73,0
41886,note_on,0,0,3,,,,,,,,,2,,,62,0
41886,note_on,0,0,3,,,,,,,,,2,,,70,0
41886,note_on,0,0,1,,,,,,,,,0,,,76,0
41886,note_on,0,0,1,,,,,,,,,0,,,79,0
41886,note_on,0,0,1,,,,,,,,,0,,,82,0
41886,note_on,6,0,1,,,,,,,,,0,,,85,0
41940,note_on,54,0,1,,,,,,,,,0,,,76,101
41940,note_on,0,0,1,,,,,,,,,0,,,79,101
41940,note_on,0,0,1,,,,,,,,,0,,,82,101
41940,note_on,0,0,1,,,,,,,,,0,,,85,101
41940,note_on,54,0,3,,,,,,,,,2,,,62,88
41940,note_on,0,0,3,,,,,,,,,2,,,70,88
41940,note_on,0,0,3,,,,,,,,,2,,,73,88
41946,note_on,0,0,3,,,,,,,,,2,,,62,0
41946,note_on,0,0,3,,,,,,,,,2,,,70,0
41946,note_on,6,0,3,,,,,,,,,2,,,73,0
41946,note_on,6,0,1,,,,,,,,,0,,,85,0
41946,note_on,0,0,1,,,,,,,,,0,,,76,0
41946,note_on,0,0,1,,,,,,,,,0,,,79,0
41946,note_on,0,0,1,,,,,,,,,0,,,82,0
42000,note_on,0,0,3,,,,,,,,,2,,,73,88
42000,note_on,54,0,3,,,,,,,,,2,,,62,88
42000,note_on,0,0,3,,,,,,,,,2,,,70,88
42000,note_on,0,0,1,,,,,,,,,0,,,82,101
42000,note_on,54,0,1,,,,,,,,,0,,,76,101
42000,note_on,0,0,1,,,,,,,,,0,,,85,101
42000,note_on,0,0,1,,,,,,,,,0,,,79,101
42006,note_on,6,0,3,,,,,,,,,2,,,73,0
42006,note_on,0,0,3,,,,,,,,,2,,,70,0
42006,note_on,0,0,3,,,,,,,,,2,,,62,0
42006,note_on,6,0,1,,,,,,,,,0,,,85,0
42006,note_on,0,0,1,,,,,,,,,0,,,76,0
42006,note_on,0,0,1,,,,,,,,,0,,,79,0
42006,note_on,0,0,1,,,,,,,,,0,,,82,0
42060,note_on,54,0,1,,,,,,,,,0,,,76,101
42060,note_on,0,0,3,,,,,,,,,2,,,73,88
42060,note_on,0,0,1,,,,,,,,,0,,,82,101
42060,note_on,0,0,3,,,,,,,,,2,,,70,88
42060,note_on,0,0,1,,,,,,,,,0,,,85,101
42060,note_on,0,0,1,,,,,,,,,0,,,79,101
42060,note_on,54,0,3,,,,,,,,,2,,,62,88
42066,note_on,0,0,3,,,,,,,,,2,,,70,0
42066,note_on,6,0,1,,,,,,,,,0,,,85,0
42066,note_on,0,0,1,,,,,,,,,0,,,76,0
42066,note_on,0,0,1,,,,,,,,,0,,,79,0
42066,note_on,0,0,1,,,,,,,,,0,,,82,0
42066,note_on,0,0,3,,,,,,,,,2,,,62,0
42066,note_on,6,0,3,,,,,,,,,2,,,73,0
42120,note_on,54,0,3,,,,,,,,,2,,,62,88
42120,note_on,0,0,3,,,,,,,,,2,,,69,88
42120,note_on,0,0,3,,,,,,,,,2,,,74,88
42120,note_on,0,0,1,,,,,,,,,0,,,86,101
42120,note_on,0,0,1,,,,,,,,,0,,,81,101
42120,note_on,54,0,1,,,,,,,,,0,,,78,101
42126,note_on,6,0,1,,,,,,,,,0,,,86,0
42126,note_on,0,0,1,,,,,,,,,0,,,78,0
42126,note_on,0,0,1,,,,,,,,,0,,,81,0
42126,note_on,6,0,3,,,,,,,,,2,,,74,0
42126,note_on,0,0,3,,,,,,,,,2,,,69,0
42126,note_on,0,0,3,,,,,,,,,2,,,62,0
42180,control_change,54,0,3,,,,,,,,,2,64,0,,
42180,control_change,54,0,1,,,,,,,,,0,64,0,,
42300,control_change,120,0,3,,,,,,,,,2,64,127,,
42300,note_on,0,0,3,,,,,,,,,2,,,50,75
42300,control_change,120,0,1,,,,,,,,,0,64,127,,
42300,note_on,0,0,1,,,,,,,,,0,,,62,88
42480,note_on,0,0,1,,,,,,,,,0,,,70,49
42480,note_on,0,0,1,,,,,,,,,0,,,73,49
42480,note_on,0,0,1,,,,,,,,,0,,,67,49
42480,note_on,0,0,3,,,,,,,,,2,,,61,36
42480,note_on,180,0,1,,,,,,,,,0,,,62,0
42480,note_on,180,0,3,,,,,,,,,2,,,50,0
42480,note_on,0,0,3,,,,,,,,,2,,,50,36
42480,note_on,0,0,3,,,,,,,,,2,,,58,36
42480,note_on,0,0,1,,,,,,,,,0,,,64,49
42486,note_on,0,0,3,,,,,,,,,2,,,50,0
42486,note_on,6,0,3,,,,,,,,,2,,,61,0
42486,note_on,0,0,3,,,,,,,,,2,,,58,0
42486,note_on,0,0,1,,,,,,,,,0,,,70,0
42486,note_on,0,0,1,,,,,,,,,0,,,67,0
42486,note_on,0,0,1,,,,,,,,,0,,,64,0
42486,note_on,6,0,1,,,,,,,,,0,,,73,0
42540,note_on,0,0,1,,,,,,,,,0,,,67,49
42540,note_on,0,0,1,,,,,,,,,0,,,70,49
42540,note_on,0,0,1,,,,,,,,,0,,,73,49
42540,note_on,54,0,3,,,,,,,,,2,,,50,36
42540,note_on,0,0,3,,,,,,,,,2,,,58,36
42540,note_on,0,0,3,,,,,,,,,2,,,61,36
42540,note_on,54,0,1,,,,,,,,,0,,,64,49
42546,note_on,0,0,3,,,,,,,,,2,,,50,0
42546,note_on,6,0,3,,,,,,,,,2,,,61,0
42546,note_on,0,0,3,,,,,,,,,2,,,58,0
42546,note_on,0,0,1,,,,,,,,,0,,,70,0
42546,note_on,0,0,1,,,,,,,,,0,,,67,0
42546,note_on,0,0,1,,,,,,,,,0,,,64,0
42546,note_on,6,0,1,,,,,,,,,0,,,73,0
42600,note_on,0,0,1,,,,,,,,,0,,,67,49
42600,note_on,0,0,3,,,,,,,,,2,,,61,36
42600,note_on,0,0,3,,,,,,,,,2,,,58,36
42600,note_on,54,0,3,,,,,,,,,2,,,50,36
42600,note_on,54,0,1,,,,,,,,,0,,,64,49
42600,note_on,0,0,1,,,,,,,,,0,,,70,49
42600,note_on,0,0,1,,,,,,,,,0,,,73,49
42606,note_on,6,0,1,,,,,,,,,0,,,73,0
42606,note_on,0,0,1,,,,,,,,,0,,,70,0
42606,note_on,0,0,1,,,,,,,,,0,,,64,0
42606,note_on,6,0,3,,,,,,,,,2,,,61,0
42606,note_on,0,0,3,,,,,,,,,2,,,58,0
42606,note_on,0,0,3,,,,,,,,,2,,,50,0
42606,note_on,0,0,1,,,,,,,,,0,,,67,0
42660,note_on,0,0,1,,,,,,,,,0,,,73,49
42660,note_on,0,0,1,,,,,,,,,0,,,70,49
42660,note_on,54,0,3,,,,,,,,,2,,,50,36
42660,note_on,0,0,3,,,,,,,,,2,,,58,36
42660,note_on,54,0,1,,,,,,,,,0,,,64,49
42660,note_on,0,0,3,,,,,,,,,2,,,61,36
42660,note_on,0,0,1,,,,,,,,,0,,,67,49
42666,note_on,0,0,1,,,,,,,,,0,,,67,0
42666,note_on,6,0,1,,,,,,,,,0,,,73,0
42666,note_on,0,0,1,,,,,,,,,0,,,64,0
42666,note_on,0,0,1,,,,,,,,,0,,,70,0
42666,note_on,6,0,3,,,,,,,,,2,,,61,0
42666,note_on,0,0,3,,,,,,,,,2,,,58,0
42666,note_on,0,0,3,,,,,,,,,2,,,50,0
42720,note_on,54,0,1,,,,,,,,,0,,,64,49
42720,note_on,54,0,3,,,,,,,,,2,,,50,36
42720,note_on,0,0,3,,,,,,,,,2,,,58,36
42720,note_on,0,0,3,,,,,,,,,2,,,61,36
42720,note_on,0,0,1,,,,,,,,,0,,,67,49
42720,note_on,0,0,1,,,,,,,,,0,,,70,49
42720,note_on,0,0,1,,,,,,,,,0,,,73,49
42726,note_on,6,0,1,,,,,,,,,0,,,73,0
42726,note_on,0,0,1,,,,,,,,,0,,,64,0
42726,note_on,0,0,1,,,,,,,,,0,,,70,0
42726,note_on,0,0,1,,,,,,,,,0,,,67,0
42726,note_on,0,0,3,,,,,,,,,2,,,58,0
42726,note_on,0,0,3,,,,,,,,,2,,,50,0
42726,note_on,6,0,3,,,,,,,,,2,,,61,0
42780,note_on,54,0,1,,,,,,,,,0,,,64,49
42780,note_on,0,0,1,,,,,,,,,0,,,67,49
42780,note_on,0,0,1,,,,,,,,,0,,,70,49
42780,note_on,0,0,1,,,,,,,,,0,,,73,49
42780,note_on,0,0,3,,,,,,,,,2,,,58,36
42780,note_on,54,0,3,,,,,,,,,2,,,50,36
42780,note_on,0,0,3,,,,,,,,,2,,,61,36
42786,note_on,0,0,1,,,,,,,,,0,,,70,0
42786,note_on,0,0,1,,,,,,,,,0,,,67,0
42786,note_on,0,0,1,,,,,,,,,0,,,64,0
42786,note_on,6,0,1,,,,,,,,,0,,,73,0
42786,note_on,0,0,3,,,,,,,,,2,,,58,0
42786,note_on,6,0,3,,,,,,,,,2,,,61,0
42786,note_on,0,0,3,,,,,,,,,2,,,50,0
42840,note_on,0,0,3,,,,,,,,,2,,,57,36
42840,note_on,0,0,1,,,,,,,,,0,,,74,49
42840,note_on,0,0,1,,,,,,,,,0,,,69,49
42840,note_on,54,0,1,,,,,,,,,0,,,66,49
42840,note_on,54,0,3,,,,,,,,,2,,,50,36
42840,note_on,0,0,3,,,,,,,,,2,,,62,36
42846,note_on,0,0,3,,,,,,,,,2,,,57,0
42846,note_on,6,0,3,,,,,,,,,2,,,62,0
42846,note_on,0,0,1,,,,,,,,,0,,,66,0
42846,note_on,6,0,1,,,,,,,,,0,,,74,0
42846,note_on,0,0,1,,,,,,,,,0,,,69,0
42846,note_on,0,0,3,,,,,,,,,2,,,50,0
42900,control_change,54,0,3,,,,,,,,,2,64,0,,
42900,control_change,54,0,1,,,,,,,,,0,64,0,,
43200,key_signature,6480,1,0,,,,,G,,,,,,,,
43200,note_on,0,0,3,,,,,,,,,2,,,55,36
43200,control_change,300,0,3,,,,,,,,,2,64,127,,
43200,note_on,0,0,1,,,,,,,,,0,,,83,49
43200,control_change,300,0,1,,,,,,,,,0,64,127,,
43260,note_on,60,0,3,,,,,,,,,2,,,55,0
43260,note_on,0,0,3,,,,,,,,,2,,,62,36
43320,note_on,0,0,1,,,,,,,,,0,,,81,49
43320,note_on,120,0,1,,,,,,,,,0,,,83,0
43320,note_on,60,0,3,,,,,,,,,2,,,62,0
43320,note_on,0,0,3,,,,,,,,,2,,,67,36
43365,note_on,45,0,1,,,,,,,,,0,,,81,49
43380,note_on,0,0,1,,,,,,,,,0,,,79,49
43380,note_on,60,0,3,,,,,,,,,2,,,67,0
43380,note_on,0,0,3,,,,,,,,,2,,,59,36
43380,note_on,0,0,1,,,,,,,,,0,,,81,0
43380,note_on,15,0,1,,,,,,,,,0,,,81,0
43440,note_on,60,0,3,,,,,,,,,2,,,59,0
43440,note_on,0,0,1,,,,,,,,,0,,,78,49
43440,note_on,0,0,3,,,,,,,,,2,,,62,36
43440,note_on,60,0,1,,,,,,,,,0,,,79,0
43500,note_on,60,0,3,,,,,,,,,2,,,62,0
43500,control_change,0,0,3,,,,,,,,,2,64,0,,
43500,note_on,0,0,3,,,,,,,,,2,,,67,36
43500,note_on,0,0,1,,,,,,,,,0,,,79,49
43500,control_change,0,0,1,,,,,,,,,0,64,0,,
43500,note_on,60,0,1,,,,,,,,,0,,,78,0
43560,note_on,0,0,3,,,,,,,,,2,,,60,36
43560,control_change,0,0,3,,,,,,,,,2,64,127,,
43560,note_on,60,0,3,,,,,,,,,2,,,67,0
43560,note_on,0,0,2,,,,,,,,,1,,,77,36
43560,control_change,0,0,1,,,,,,,,,0,64,127,,
43560,note_on,0,0,1,,,,,,,,,0,,,80,49
43560,note_on,60,0,1,,,,,,,,,0,,,79,0
43560,note_on,3240,0,2,,,,,,,,,1,,,74,36
43620,note_on,0,0,3,,,,,,,,,2,,,65,36
43620,note_on,60,0,3,,,,,,,,,2,,,60,0
43680,note_on,60,0,3,,,,,,,,,2,,,65,0
43680,note_on,0,0,3,,,,,,,,,2,,,68,36
43680,note_on,120,0,1,,,,,,,,,0,,,80,0
43680,note_on,0,0,1,,,,,,,,,0,,,83,49
43740,note_on,0,0,2,,,,,,,,,1,,,74,0
43740,note_on,180,0,2,,,,,,,,,1,,,77,0
43740,note_on,0,0,1,,,,,,,,,0,,,81,49
43740,control_change,0,0,1,,,,,,,,,0,64,0,,
43740,note_on,0,0,1,,,,,,,,,0,,,76,49
43740,note_on,60,0,1,,,,,,,,,0,,,83,0
43740,note_on,0,0,3,,,,,,,,,2,,,60,36
43740,note_on,60,0,3,,,,,,,,,2,,,68,0
43800,note_on,0,0,3,,,,,,,,,2,,,64,36
43800,note_on,60,0,3,,,,,,,,,2,,,60,0
43860,note_on,0,0,3,,,,,,,,,2,,,69,36
43860,control_change,0,0,3,,,,,,,,,2,64,0,,
43860,note_on,60,0,3,,,,,,,,,2,,,64,0
43920,control_change,0,0,1,,,,,,,,,0,64,127,,
43920,note_on,0,0,1,,,,,,,,,0,,,88,62
43920,note_on,60,0,3,,,,,,,,,2,,,69,0
43920,note_on,0,0,1,,,,,,,,,0,,,76,62
43920,note_on,0,0,1,,,,,,,,,0,,,76,0
43920,control_change,0,0,3,,,,,,,,,2,64,127,,
43920,note_on,0,0,3,,,,,,,,,2,,,61,49
43920,note_on,180,0,1,,,,,,,,,0,,,81,0
43980,note_on,60,0,3,,,,,,,,,2,,,61,0
43980,note_on,0,0,3,,,,,,,,,2,,,67,49
44040,note_on,60,0,3,,,,,,,,,2,,,67,0
44040,note_on,0,0,3,,,,,,,,,2,,,69,49
44085,note_on,165,0,1,,,,,,,,,0,,,81,62
44100,note_on,0,0,1,,,,,,,,,0,,,79,62
44100,note_on,0,0,1,,,,,,,,,0,,,76,0
44100,note_on,360,0,2,,,,,,,,,1,,,73,49
44100,note_on,60,0,3,,,,,,,,,2,,,69,0
44100,note_on,0,0,3,,,,,,,,,2,,,64,49
44100,note_on,0,0,1,,,,,,,,,0,,,88,0
44100,note_on,15,0,1,,,,,,,,,0,,,81,0
44160,note_on,0,0,3,,,,,,,,,2,,,67,49
44160,note_on,0,0,1,,,,,,,,,0,,,78,62
44160,note_on,60,0,1,,,,,,,,,0,,,79,0
44160,note_on,60,0,3,,,,,,,,,2,,,64,0
44220,note_on,60,0,3,,,,,,,,,2,,,67,0
44220,note_on,0,0,3,,,,,,,,,2,,,69,49
44220,control_change,0,0,3,,,,,,,,,2,64,0,,
44220,note_on,0,0,1,,,,,,,,,0,,,79,62
44220,control_change,0,0,1,,,,,,,,,0,64,0,,
44220,note_on,60,0,1,,,,,,,,,0,,,78,0
44280,note_on,60,0,3,,,,,,,,,2,,,69,0
44280,note_on,0,0,2,,,,,,,,,1,,,74,49
44280,control_change,0,0,3,,,,,,,,,2,64,127,,
44280,note_on,0,0,3,,,,,,,,,2,,,62,49
44280,note_on,180,0,2,,,,,,,,,1,,,73,0
44280,note_on,60,0,1,,,,,,,,,0,,,79,0
44280,note_on,0,0,1,,,,,,,,,0,,,83,62
44340,note_on,60,0,3,,,,,,,,,2,,,62,0
44340,note_on,0,0,3,,,,,,,,,2,,,67,49
44400,note_on,60,0,3,,,,,,,,,2,,,67,0
44400,note_on,0,0,3,,,,,,,,,2,,,71,49
44460,note_on,0,0,1,,,,,,,,,0,,,81,62
44460,note_on,180,0,1,,,,,,,,,0,,,83,0
44460,note_on,0,0,3,,,,,,,,,2,,,62,49
44460,note_on,60,0,3,,,,,,,,,2,,,71,0
44520,note_on,0,0,3,,,,,,,,,2,,,66,49
44520,note_on,60,0,3,,,,,,,,,2,,,62,0
44580,note_on,0,0,3,,,,,,,,,2,,,69,49
44580,note_on,60,0,3,,,,,,,,,2,,,66,0
44580,control_change,0,0,3,,,,,,,,,2,64,0,,
44640,note_on,60,0,3,,,,,,,,,2,,,69,0
44640,note_on,180,0,1,,,,,,,,,0,,,81,0
44640,note_on,360,0,2,,,,,,,,,1,,,74,0
44640,control_change,0,0,1,,,,,,,,,0,64,127,,
44640,note_on,0,0,1,,,,,,,,,0,,,83,49
44640,note_on,0,0,3,,,,,,,,,2,,,55,36
44640,control_change,0,0,3,,,,,,,,,2,64,127,,
44700,note_on,60,0,3,,,,,,,,,2,,,55,0
44700,note_on,0,0,3,,,,,,,,,2,,,62,36
44760,note_on,0,0,1,,,,,,,,,0,,,81,49
44760,note_on,120,0,1,,,,,,,,,0,,,83,0
44760,note_on,60,0,3,,,,,,,,,2,,,62,0
44760,note_on,0,0,3,,,,,,,,,2,,,67,36
44805,note_on,45,0,1,,,,,,,,,0,,,81,49
44820,note_on,60,0,3,,,,,,,,,2,,,67,0
44820,note_on,0,0,3,,,,,,,,,2,,,59,36
44820,note_on,15,0,1,,,,,,,,,0,,,81,0
44820,note_on,0,0,1,,,,,,,,,0,,,81,0
44820,note_on,0,0,1,,,,,,,,,0,,,79,49
44880,note_on,60,0,3,,,,,,,,,2,,,59,0
44880,note_on,0,0,3,,,,,,,,,2,,,62,36
44880,note_on,60,0,1,,,,,,,,,0,,,79,0
44880,note_on,0,0,1,,,,,,,,,0,,,78,49
44940,note_on,0,0,1,,,,,,,,,0,,,79,49
44940,control_change,0,0,1,,,,,,,,,0,64,0,,
44940,note_on,0,0,3,,,,,,,,,2,,,67,36
44940,control_change,0,0,3,,,,,,,,,2,64,0,,
44940,note_on,60,0,3,,,,,,,,,2,,,62,0
44940,note_on,60,0,1,,,,,,,,,0,,,78,0
45000,note_on,0,0,3,,,,,,,,,2,,,60,36
45000,note_on,60,0,3,,,,,,,,,2,,,67,0
45000,control_change,0,0,3,,,,,,,,,2,64,127,,
45000,note_on,60,0,1,,,,,,,,,0,,,79,0
45000,control_change,0,0,1,,,,,,,,,0,64,127,,
45000,note_on,0,0,1,,,,,,,,,0,,,80,49
45000,note_on,360,0,2,,,,,,,,,1,,,74,36
45000,note_on,0,0,2,,,,,,,,,1,,,77,36
45060,note_on,60,0,3,,,,,,,,,2,,,60,0
45060,note_on,0,0,3,,,,,,,,,2,,,65,36
45120,note_on,0,0,1,,,,,,,,,0,,,83,49
45120,note_on,120,0,1,,,,,,,,,0,,,80,0
45120,note_on,60,0,3,,,,,,,,,2,,,65,0
45120,note_on,0,0,3,,,,,,,,,2,,,68,36
45180,note_on,0,0,1,,,,,,,,,0,,,81,49
45180,note_on,0,0,1,,,,,,,,,0,,,76,49
45180,control_change,0,0,1,,,,,,,,,0,64,0,,
45180,note_on,60,0,1,,,,,,,,,0,,,83,0
45180,note_on,0,0,2,,,,,,,,,1,,,74,0
45180,note_on,180,0,2,,,,,,,,,1,,,77,0
45180,note_on,0,0,3,,,,,,,,,2,,,60,36
45180,note_on,60,0,3,,,,,,,,,2,,,68,0
45240,note_on,60,0,3,,,,,,,,,2,,,60,0
45240,note_on,0,0,3,,,,,,,,,2,,,64,36
45300,note_on,60,0,3,,,,,,,,,2,,,64,0
45300,control_change,0,0,3,,,,,,,,,2,64,0,,
45300,note_on,0,0,3,,,,,,,,,2,,,69,36
45360,note_on,0,0,1,,,,,,,,,0,,,88,62
45360,note_on,0,0,1,,,,,,,,,0,,,76,62
45360,note_on,0,0,1,,,,,,,,,0,,,76,0
45360,note_on,180,0,1,,,,,,,,,0,,,81,0
45360,note_on,0,0,3,,,,,,,,,2,,,61,49
45360,control_change,0,0,3,,,,,,,,,2,64,127,,
45360,note_on,60,0,3,,,,,,,,,2,,,69,0
45360,control_change,0,0,1,,,,,,,,,0,64,127,,
45420,note_on,60,0,3,,,,,,,,,2,,,61,0
45420,note_on,0,0,3,,,,,,,,,2,,,67,49
45480,note_on,60,0,3,,,,,,,,,2,,,67,0
45480,note_on,0,0,3,,,,,,,,,2,,,69,49
45525,note_on,165,0,1,,,,,,,,,0,,,81,62
45540,note_on,0,0,1,,,,,,,,,0,,,88,0
45540,note_on,0,0,3,,,,,,,,,2,,,64,49
45540,note_on,0,0,1,,,,,,,,,0,,,76,0
45540,note_on,0,0,1,,,,,,,,,0,,,79,62
45540,note_on,15,0,1,,,,,,,,,0,,,81,0
45540,note_on,60,0,3,,,,,,,,,2,,,69,0
45540,note_on,360,0,2,,,,,,,,,1,,,73,49
45600,note_on,0,0,3,,,,,,,,,2,,,67,49
45600,note_on,0,0,1,,,,,,,,,0,,,78,62
45600,note_on,60,0,1,,,,,,,,,0,,,79,0
45600,note_on,60,0,3,,,,,,,,,2,,,64,0
45660,note_on,60,0,1,,,,,,,,,0,,,78,0
45660,control_change,0,0,1,,,,,,,,,0,64,0,,
45660,note_on,0,0,1,,,,,,,,,0,,,79,62
45660,note_on,60,0,3,,,,,,,,,2,,,67,0
45660,control_change,0,0,3,,,,,,,,,2,64,0,,
45660,note_on,0,0,3,,,,,,,,,2,,,69,49
45720,note_on,0,0,1,,,,,,,,,0,,,88,62
45720,note_on,60,0,1,,,,,,,,,0,,,79,0
45720,control_change,0,0,1,,,,,,,,,0,64,127,,
45720,note_on,0,0,1,,,,,,,,,0,,,76,62
45720,note_on,180,0,2,,,,,,,,,1,,,73,0
45720,note_on,0,0,3,,,,,,,,,2,,,61,49
45720,control_change,0,0,3,,,,,,,,,2,64,127,,
45720,note_on,60,0,3,,,,,,,,,2,,,69,0
45780,note_on,0,0,3,,,,,,,,,2,,,67,49
45780,note_on,60,0,3,,,,,,,,,2,,,61,0
45840,note_on,60,0,3,,,,,,,,,2,,,67,0
45840,note_on,0,0,3,,,,,,,,,2,,,69,49
45885,note_on,165,0,1,,,,,,,,,0,,,81,62
45900,note_on,60,0,3,,,,,,,,,2,,,69,0
45900,note_on,0,0,3,,,,,,,,,2,,,64,49
45900,note_on,15,0,1,,,,,,,,,0,,,81,0
45900,note_on,0,0,1,,,,,,,,,0,,,88,0
45900,note_on,0,0,1,,,,,,,,,0,,,76,0
45900,note_on,180,0,2,,,,,,,,,1,,,73,49
45900,note_on,0,0,1,,,,,,,,,0,,,79,62
45960,note_on,0,0,1,,,,,,,,,0,,,78,62
45960,note_on,0,0,3,,,,,,,,,2,,,67,49
45960,note_on,60,0,3,,,,,,,,,2,,,64,0
45960,note_on,60,0,1,,,,,,,,,0,,,79,0
46020,control_change,0,0,1,,,,,,,,,0,64,0,,
46020,note_on,0,0,1,,,,,,,,,0,,,79,62
46020,note_on,60,0,1,,,,,,,,,0,,,78,0
46020,note_on,0,0,3,,,,,,,,,2,,,69,49
46020,control_change,0,0,3,,,,,,,,,2,64,0,,
46020,note_on,60,0,3,,,,,,,,,2,,,67,0
46080,note_on,0,0,3,,,,,,,,,2,,,61,49
46080,control_change,0,0,3,,,,,,,,,2,64,127,,
46080,note_on,60,0,3,,,,,,,,,2,,,69,0
46080,note_on,60,0,1,,,,,,,,,0,,,79,0
46080,note_on,0,0,1,,,,,,,,,0,,,88,62
46080,note_on,0,0,1,,,,,,,,,0,,,76,62
46080,note_on,180,0,2,,,,,,,,,1,,,73,0
46080,control_change,0,0,1,,,,,,,,,0,64,127,,
46140,note_on,60,0,3,,,,,,,,,2,,,61,0
46140,note_on,0,0,3,,,,,,,,,2,,,67,49
46200,note_on,60,0,3,,,,,,,,,2,,,67,0
46200,note_on,0,0,3,,,,,,,,,2,,,69,49
46245,note_on,165,0,1,,,,,,,,,0,,,81,62
46260,note_on,0,0,3,,,,,,,,,2,,,64,49
46260,note_on,60,0,3,,,,,,,,,2,,,69,0
46260,note_on,0,0,1,,,,,,,,,0,,,88,0
46260,note_on,180,0,2,,,,,,,,,1,,,73,49
46260,note_on,15,0,1,,,,,,,,,0,,,81,0
46260,note_on,0,0,1,,,,,,,,,0,,,79,62
46260,note_on,0,0,1,,,,,,,,,0,,,76,0
46320,note_on,60,0,3,,,,,,,,,2,,,64,0
46320,note_on,0,0,3,,,,,,,,,2,,,67,49
46320,note_on,0,0,1,,,,,,,,,0,,,78,62
46320,note_on,60,0,1,,,,,,,,,0,,,79,0
46380,note_on,0,0,1,,,,,,,,,0,,,79,62
46380,control_change,0,0,1,,,,,,,,,0,64,0,,
46380,note_on,60,0,1,,,,,,,,,0,,,78,0
46380,note_on,0,0,3,,,,,,,,,2,,,69,49
46380,note_on,60,0,3,,,,,,,,,2,,,67,0
46380,control_change,0,0,3,,,,,,,,,2,64,0,,
46440,note_on,60,0,1,,,,,,,,,0,,,79,0
46440,note_on,180,0,2,,,,,,,,,1,,,73,0
46440,note_on,0,0,1,,,,,,,,,0,,,88,62
46440,note_on,0,0,1,,,,,,,,,0,,,76,62
46440,control_change,0,0,1,,,,,,,,,0,64,127,,
46440,note_on,0,0,3,,,,,,,,,2,,,61,49
46440,control_change,0,0,3,,,,,,,,,2,64,127,,
46440,note_on,60,0,3,,,,,,,,,2,,,69,0
46500,note_on,60,0,3,,,,,,,,,2,,,61,0
46500,note_on,0,0,3,,,,,,,,,2,,,67,49
46560,note_on,60,0,3,,,,,,,,,2,,,67,0
46560,note_on,0,0,3,,,,,,,,,2,,,69,49
46605,note_on,165,0,1,,,,,,,,,0,,,81,62
46620,note_on,0,0,1,,,,,,,,,0,,,76,0
46620,note_on,0,0,1,,,,,,,,,0,,,79,62
46620,note_on,0,0,1,,,,,,,,,0,,,88,0
46620,note_on,15,0,1,,,,,,,,,0,,,81,0
46620,note_on,0,0,3,,,,,,,,,2,,,64,49
46620,note_on,180,0,2,,,,,,,,,1,,,73,49
46620,note_on,60,0,3,,,,,,,,,2,,,69,0
46680,note_on,60,0,3,,,,,,,,,2,,,64,0
46680,note_on,0,0,3,,,,,,,,,2,,,67,49
46680,note_on,60,0,1,,,,,,,,,0,,,79,0
46680,note_on,0,0,1,,,,,,,,,0,,,78,62
46740,note_on,0,0,3,,,,,,,,,2,,,69,49
46740,note_on,60,0,3,,,,,,,,,2,,,67,0
46740,note_on,60,0,1,,,,,,,,,0,,,78,0
46740,control_change,0,0,1,,,,,,,,,0,64,0,,
46740,note_on,0,0,1,,,,,,,,,0,,,79,62
46740,control_change,0,0,3,,,,,,,,,2,64,0,,
46800,note_on,0,0,1,,,,,,,,,0,,,89,49
46800,note_on,60,0,3,,,,,,,,,2,,,69,0
46800,note_on,0,0,2,,,,,,,,,1,,,77,36
46800,note_on,180,0,2,,,,,,,,,1,,,73,0
46800,note_on,60,0,1,,,,,,,,,0,,,79,0
46800,control_change,0,0,1,,,,,,,,,0,64,127,,
46800,note_on,0,0,3,,,,,,,,,2,,,62,36
46800,control_change,0,0,3,,,,,,,,,2,64,127,,
46860,note_on,0,0,3,,,,,,,,,2,,,69,36
46860,note_on,60,0,3,,,,,,,,,2,,,62,0
46920,note_on,0,0,3,,,,,,,,,2,,,70,36
46920,note_on,60,0,3,,,,,,,,,2,,,69,0
46965,note_on,165,0,1,,,,,,,,,0,,,84,49
46980,note_on,0,0,3,,,,,,,,,2,,,65,36
46980,note_on,60,0,3,,,,,,,,,2,,,70,0
46980,note_on,0,0,2,,,,,,,,,1,,,74,36
46980,note_on,15,0,1,,,,,,,,,0,,,84,0
46980,note_on,0,0,1,,,,,,,,,0,,,89,0
46980,note_on,0,0,1,,,,,,,,,0,,,82,49
46980,note_on,180,0,2,,,,,,,,,1,,,77,0
47040,note_on,60,0,1,,,,,,,,,0,,,82,0
47040,note_on,0,0,1,,,,,,,,,0,,,81,49
47040,note_on,0,0,3,,,,,,,,,2,,,72,36
47040,note_on,60,0,3,,,,,,,,,2,,,65,0
47100,control_change,0,0,3,,,,,,,,,2,64,0,,
47100,note_on,60,0,1,,,,,,,,,0,,,81,0
47100,note_on,0,0,3,,,,,,,,,2,,,70,36
47100,note_on,0,0,1,,,,,,,,,0,,,82,49
47100,note_on,60,0,3,,,,,,,,,2,,,72,0
47100,control_change,0,0,1,,,,,,,,,0,64,0,,
47160,note_on,60,0,3,,,,,,,,,2,,,70,0
47160,control_change,0,0,3,,,,,,,,,2,64,127,,
47160,note_on,0,0,3,,,,,,,,,2,,,62,36
47160,note_on,60,0,1,,,,,,,,,0,,,82,0
47160,note_on,0,0,1,,,,,,,,,0,,,89,49
47160,control_change,0,0,1,,,,,,,,,0,64,127,,
47160,note_on,180,0,2,,,,,,,,,1,,,74,0
47160,note_on,0,0,2,,,,,,,,,1,,,77,36
47220,note_on,60,0,3,,,,,,,,,2,,,62,0
47220,note_on,0,0,3,,,,,,,,,2,,,69,36
47280,note_on,60,0,3,,,,,,,,,2,,,69,0
47280,note_on,0,0,3,,,,,,,,,2,,,70,36
47325,note_on,165,0,1,,,,,,,,,0,,,84,49
47340,note_on,0,0,1,,,,,,,,,0,,,82,49
47340,note_on,0,0,1,,,,,,,,,0,,,89,0
47340,note_on,15,0,1,,,,,,,,,0,,,84,0
47340,note_on,60,0,3,,,,,,,,,2,,,70,0
47340,note_on,0,0,2,,,,,,,,,1,,,74,36
47340,note_on,180,0,2,,,,,,,,,1,,,77,0
47340,note_on,0,0,3,,,,,,,,,2,,,65,36
47400,note_on,60,0,1,,,,,,,,,0,,,82,0
47400,note_on,60,0,3,,,,,,,,,2,,,65,0
47400,note_on,0,0,3,,,,,,,,,2,,,72,36
47400,note_on,0,0,1,,,,,,,,,0,,,81,49
47460,note_on,60,0,3,,,,,,,,,2,,,72,0
47460,note_on,0,0,3,,,,,,,,,2,,,70,36
47460,note_on,0,0,1,,,,,,,,,0,,,82,49
47460,control_change,0,0,1,,,,,,,,,0,64,0,,
47460,note_on,60,0,1,,,,,,,,,0,,,81,0
47460,control_change,0,0,3,,,,,,,,,2,64,0,,
47520,note_on,60,0,3,,,,,,,,,2,,,70,0
47520,control_change,0,0,3,,,,,,,,,2,64,127,,
47520,note_on,0,0,2,,,,,,,,,1,,,77,36
47520,note_on,0,0,3,,,,,,,,,2,,,63,36
47520,note_on,0,0,1,,,,,,,,,0,,,89,49
47520,control_change,0,0,1,,,,,,,,,0,64,127,,
47520,note_on,60,0,1,,,,,,,,,0,,,82,0
47520,note_on,180,0,2,,,,,,,,,1,,,74,0
47580,note_on,0,0,3,,,,,,,,,2,,,70,36
47580,note_on,60,0,3,,,,,,,,,2,,,63,0
47640,note_on,60,0,3,,,,,,,,,2,,,70,0
47640,note_on,0,0,3,,,,,,,,,2,,,69,36
47685,note_on,165,0,1,,,,,,,,,0,,,86,49
47700,note_on,180,0,2,,,,,,,,,1,,,77,0
47700,note_on,15,0,1,,,,,,,,,0,,,86,0
47700,note_on,0,0,1,,,,,,,,,0,,,89,0
47700,note_on,0,0,1,,,,,,,,,0,,,84,49
47700,note_on,60,0,3,,,,,,,,,2,,,69,0
47700,note_on,0,0,3,,,,,,,,,2,,,65,36
47700,note_on,0,0,2,,,,,,,,,1,,,75,36
47760,note_on,60,0,1,,,,,,,,,0,,,84,0
47760,note_on,0,0,1,,,,,,,,,0,,,83,49
47760,note_on,60,0,3,,,,,,,,,2,,,65,0
47760,note_on,0,0,3,,,,,,,,,2,,,68,36
47820,note_on,60,0,3,,,,,,,,,2,,,68,0
47820,note_on,0,0,3,,,,,,,,,2,,,69,36
47820,control_change,0,0,3,,,,,,,,,2,64,0,,
47820,note_on,60,0,1,,,,,,,,,0,,,83,0
47820,control_change,0,0,1,,,,,,,,,0,64,0,,
47820,note_on,0,0,1,,,,,,,,,0,,,84,49
47880,note_on,60,0,1,,,,,,,,,0,,,84,0
47880,control_change,0,0,1,,,,,,,,,0,64,127,,
47880,note_on,0,0,1,,,,,,,,,0,,,89,49
47880,control_change,0,0,3,,,,,,,,,2,64,127,,
47880,note_on,0,0,3,,,,,,,,,2,,,63,36
47880,note_on,60,0,3,,,,,,,,,2,,,69,0
47880,note_on,0,0,2,,,,,,,,,1,,,77,36
47880,note_on,180,0,2,,,,,,,,,1,,,75,0
47940,note_on,60,0,3,,,,,,,,,2,,,63,0
47940,note_on,0,0,3,,,,,,,,,2,,,70,36
48000,note_on,60,0,3,,,,,,,,,2,,,70,0
48000,note_on,0,0,3,,,,,,,,,2,,,69,36
48045,note_on,165,0,1,,,,,,,,,0,,,86,49
48060,note_on,15,0,1,,,,,,,,,0,,,86,0
48060,note_on,0,0,2,,,,,,,,,1,,,75,36
48060,note_on,180,0,2,,,,,,,,,1,,,77,0
48060,note_on,0,0,1,,,,,,,,,0,,,84,49
48060,note_on,0,0,1,,,,,,,,,0,,,89,0
48060,note_on,60,0,3,,,,,,,,,2,,,69,0
48060,note_on,0,0,3,,,,,,,,,2,,,65,36
48120,note_on,60,0,1,,,,,,,,,0,,,84,0
48120,note_on,60,0,3,,,,,,,,,2,,,65,0
48120,note_on,0,0,3,,,,,,,,,2,,,68,36
48120,note_on,0,0,1,,,,,,,,,0,,,83,49
48180,note_on,60,0,1,,,,,,,,,0,,,83,0
48180,control_change,0,0,1,,,,,,,,,0,64,0,,
48180,note_on,0,0,1,,,,,,,,,0,,,84,49
48180,note_on,0,0,3,,,,,,,,,2,,,69,36
48180,control_change,0,0,3,,,,,,,,,2,64,0,,
48180,note_on,60,0,3,,,,,,,,,2,,,68,0
48240,note_on,0,0,1,,,,,,,,,0,,,89,36
48240,note_on,0,0,2,,,,,,,,,1,,,77,36
48240,note_on,180,0,2,,,,,,,,,1,,,75,0
48240,note_on,60,0,1,,,,,,,,,0,,,84,0
48240,control_change,0,0,1,,,,,,,,,0,64,127,,
48240,note_on,0,0,3,,,,,,,,,2,,,62,36
48240,note_on,60,0,3,,,,,,,,,2,,,69,0
48240,control_change,0,0,3,,,,,,,,,2,64,127,,
48300,note_on,60,0,3,,,,,,,,,2,,,62,0
48300,note_on,0,0,3,,,,,,,,,2,,,69,36
48360,note_on,60,0,3,,,,,,,,,2,,,69,0
48360,note_on,0,0,3,,,,,,,,,2,,,70,36
48405,note_on,165,0,1,,,,,,,,,0,,,84,36
48420,note_on,0,0,1,,,,,,,,,0,,,82,36
48420,note_on,0,0,1,,,,,,,,,0,,,89,0
48420,note_on,0,0,2,,,,,,,,,1,,,74,36
48420,note_on,15,0,1,,,,,,,,,0,,,84,0
48420,note_on,180,0,2,,,,,,,,,1,,,77,0
48420,note_on,0,0,3,,,,,,,,,2,,,65,36
48420,note_on,60,0,3,,,,,,,,,2,,,70,0
48480,note_on,0,0,1,,,,,,,,,0,,,81,36
48480,note_on,0,0,3,,,,,,,,,2,,,72,36
48480,note_on,60,0,3,,,,,,,,,2,,,65,0
48480,note_on,60,0,1,,,,,,,,,0,,,82,0
48540,note_on,60,0,3,,,,,,,,,2,,,72,0
48540,control_change,0,0,3,,,,,,,,,2,64,0,,
48540,note_on,60,0,1,,,,,,,,,0,,,81,0
48540,note_on,0,0,3,,,,,,,,,2,,,70,36
48540,note_on,0,0,1,,,,,,,,,0,,,82,36
48540,control_change,0,0,1,,,,,,,,,0,64,0,,
48600,note_on,60,0,1,,,,,,,,,0,,,82,0
48600,control_change,0,0,3,,,,,,,,,2,64,127,,
48600,note_on,60,0,3,,,,,,,,,2,,,70,0
48600,control_change,0,0,1,,,,,,,,,0,64,127,,
48600,note_on,0,0,1,,,,,,,,,0,,,89,36
48600,note_on,0,0,3,,,,,,,,,2,,,62,36
48600,note_on,180,0,2,,,,,,,,,1,,,74,0
48600,note_on,0,0,2,,,,,,,,,1,,,77,36
48660,note_on,60,0,3,,,,,,,,,2,,,62,0
48660,note_on,0,0,3,,,,,,,,,2,,,69,36
48720,note_on,60,0,3,,,,,,,,,2,,,69,0
48720,note_on,0,0,3,,,,,,,,,2,,,70,36
48765,note_on,165,0,1,,,,,,,,,0,,,84,36
48780,note_on,0,0,2,,,,,,,,,1,,,74,36
48780,note_on,180,0,2,,,,,,,,,1,,,77,0
48780,note_on,0,0,1,,,,,,,,,0,,,89,0
48780,note_on,15,0,1,,,,,,,,,0,,,84,0
48780,note_on,0,0,1,,,,,,,,,0,,,82,36
48780,note_on,0,0,3,,,,,,,,,2,,,65,36
48780,note_on,60,0,3,,,,,,,,,2,,,70,0
48840,note_on,60,0,1,,,,,,,,,0,,,82,0
48840,note_on,60,0,3,,,,,,,,,2,,,65,0
48840,note_on,0,0,3,,,,,,,,,2,,,72,36
48840,note_on,0,0,1,,,,,,,,,0,,,81,36
48900,note_on,60,0,1,,,,,,,,,0,,,81,0
48900,control_change,0,0,1,,,,,,,,,0,64,0,,
48900,note_on,0,0,1,,,,,,,,,0,,,82,36
48900,note_on,60,0,3,,,,,,,,,2,,,72,0
48900,note_on,0,0,3,,,,,,,,,2,,,70,36
48900,control_change,0,0,3,,,,,,,,,2,64,0,,
48960,control_change,0,0,1,,,,,,,,,0,64,127,,
48960,note_on,60,0,3,,,,,,,,,2,,,70,0
48960,note_on,0,0,2,,,,,,,,,1,,,77,36
48960,note_on,180,0,2,,,,,,,,,1,,,74,0
48960,note_on,0,0,1,,,,,,,,,0,,,89,36
48960,control_change,0,0,3,,,,,,,,,2,64,127,,
48960,note_on,0,0,3,,,,,,,,,2,,,63,36
48960,note_on,60,0,1,,,,,,,,,0,,,82,0
49020,note_on,60,0,3,,,,,,,,,2,,,63,0
49020,note_on,0,0,3,,,,,,,,,2,,,70,36
49080,note_on,0,0,3,,,,,,,,,2,,,69,36
49080,note_on,60,0,3,,,,,,,,,2,,,70,0
49125,note_on,165,0,1,,,,,,,,,0,,,86,36
49140,note_on,0,0,2,,,,,,,,,1,,,75,36
49140,note_on,0,0,1,,,,,,,,,0,,,84,36
49140,note_on,0,0,3,,,,,,,,,2,,,65,36
49140,note_on,60,0,3,,,,,,,,,2,,,69,0
49140,note_on,15,0,1,,,,,,,,,0,,,86,0
49140,note_on,0,0,1,,,,,,,,,0,,,89,0
49140,note_on,180,0,2,,,,,,,,,1,,,77,0
49200,note_on,0,0,1,,,,,,,,,0,,,83,36
49200,note_on,0,0,3,,,,,,,,,2,,,68,36
49200,note_on,60,0,3,,,,,,,,,2,,,65,0
49200,note_on,60,0,1,,,,,,,,,0,,,84,0
49260,note_on,0,0,1,,,,,,,,,0,,,84,36
49260,note_on,0,0,3,,,,,,,,,2,,,69,36
49260,note_on,60,0,1,,,,,,,,,0,,,83,0
49260,control_change,0,0,3,,,,,,,,,2,64,0,,
49260,control_change,0,0,1,,,,,,,,,0,64,0,,
49260,note_on,60,0,3,,,,,,,,,2,,,68,0
49320,note_on,60,0,1,,,,,,,,,0,,,84,0
49320,note_on,180,0,2,,,,,,,,,1,,,75,0
49320,note_on,0,0,2,,,,,,,,,1,,,77,36
49320,note_on,60,0,3,,,,,,,,,2,,,69,0
49320,control_change,0,0,3,,,,,,,,,2,64,127,,
49320,note_on,0,0,3,,,,,,,,,2,,,63,36
49320,control_change,0,0,1,,,,,,,,,0,64,127,,
49320,note_on,0,0,1,,,,,,,,,0,,,89,36
49380,note_on,60,0,3,,,,,,,,,2,,,63,0
49380,note_on,0,0,3,,,,,,,,,2,,,70,36
49440,note_on,60,0,3,,,,,,,,,2,,,70,0
49440,note_on,0,0,3,,,,,,,,,2,,,69,36
49485,note_on,165,0,1,,,,,,,,,0,,,86,36
49500,note_on,15,0,1,,,,,,,,,0,,,86,0
49500,note_on,60,0,3,,,,,,,,,2,,,69,0
49500,note_on,0,0,3,,,,,,,,,2,,,65,36
49500,note_on,0,0,1,,,,,,,,,0,,,89,0
49500,note_on,0,0,1,,,,,,,,,0,,,84,36
49500,note_on,180,0,2,,,,,,,,,1,,,77,0
49500,note_on,0,0,2,,,,,,,,,1,,,75,36
49560,note_on,0,0,1,,,,,,,,,0,,,83,36
49560,note_on,60,0,3,,,,,,,,,2,,,65,0
49560,note_on,0,0,3,,,,,,,,,2,,,68,36
49560,note_on,60,0,1,,,,,,,,,0,,,84,0
49620,note_on,60,0,1,,,,,,,,,0,,,83,0
49620,control_change,0,0,1,,,,,,,,,0,64,0,,
49620,note_on,0,0,1,,,,,,,,,0,,,84,36
49620,note_on,60,0,3,,,,,,,,,2,,,68,0
49620,control_change,0,0,3,,,,,,,,,2,64,0,,
49620,note_on,0,0,3,,,,,,,,,2,,,69,36
49680,note_on,0,0,1,,,,,,,,,0,,,76,114
49680,note_on,0,0,1,,,,,,,,,0,,,85,114
49680,note_on,0,0,3,,,,,,,,,2,,,73,101
49680,note_on,0,0,3,,,,,,,,,2,,,69,101
49680,note_on,60,0,3,,,,,,,,,2,,,69,0
49680,note_on,0,0,1,,,,,,,,,0,,,81,114
49680,note_on,9414,0,4,,,,,,,,,3,,,64,101
49680,note_on,60,0,1,,,,,,,,,0,,,84,0
49680,note_on,180,0,2,,,,,,,,,1,,,75,0
49680,key_signature,6480,1,0,,,,,A,,,,,,,,
49680,control_change,0,0,3,,,,,,,,,2,64,127,,
49680,control_change,0,0,1,,,,,,,,,0,64,127,,
49686,note_on,6,0,3,,,,,,,,,2,,,73,0
49686,note_on,0,0,3,,,,,,,,,2,,,69,0
49740,note_on,54,0,3,,,,,,,,,2,,,69,36
49740,note_on,0,0,3,,,,,,,,,2,,,73,36
49746,note_on,6,0,3,,,,,,,,,2,,,73,0
49746,note_on,0,0,3,,,,,,,,,2,,,69,0
49800,note_on,54,0,3,,,,,,,,,2,,,69,36
49800,note_on,0,0,3,,,,,,,,,2,,,73,36
49806,note_on,6,0,3,,,,,,,,,2,,,73,0
49806,note_on,0,0,3,,,,,,,,,2,,,69,0
49860,note_on,54,0,3,,,,,,,,,2,,,69,36
49860,note_on,0,0,3,,,,,,,,,2,,,73,36
49866,note_on,6,0,3,,,,,,,,,2,,,73,0
49866,note_on,0,0,3,,,,,,,,,2,,,69,0
49920,note_on,0,0,3,,,,,,,,,2,,,73,36
49920,note_on,240,0,1,,,,,,,,,0,,,85,0
49920,note_on,0,0,1,,,,,,,,,0,,,81,0
49920,note_on,0,0,1,,,,,,,,,0,,,76,0
49920,note_on,0,0,1,,,,,,,,,0,,,86,49
49920,note_on,54,0,3,,,,,,,,,2,,,69,36
49926,note_on,0,0,3,,,,,,,,,2,,,69,0
49926,note_on,6,0,3,,,,,,,,,2,,,73,0
49950,note_on,0,0,1,,,,,,,,,0,,,85,49
49950,note_on,30,0,1,,,,,,,,,0,,,86,0
49980,note_on,0,0,1,,,,,,,,,0,,,83,49
49980,note_on,0,0,3,,,,,,,,,2,,,73,36
49980,note_on,0,0,3,,,,,,,,,2,,,69,36
49980,control_change,54,0,3,,,,,,,,,2,64,0,,
49980,note_on,30,0,1,,,,,,,,,0,,,85,0
49986,note_on,0,0,3,,,,,,,,,2,,,69,0
49986,note_on,6,0,3,,,,,,,,,2,,,73,0
50010,note_on,30,0,1,,,,,,,,,0,,,83,0
50010,control_change,0,0,1,,,,,,,,,0,64,0,,
50010,note_on,0,0,1,,,,,,,,,0,,,81,49
50040,note_on,30,0,1,,,,,,,,,0,,,81,0
50040,control_change,0,0,1,,,,,,,,,0,64,127,,
50040,note_on,0,0,3,,,,,,,,,2,,,71,36
50040,note_on,0,0,3,,,,,,,,,2,,,74,36
50040,note_on,360,0,2,,,,,,,,,1,,,80,36
50040,note_on,360,0,4,,,,,,,,,3,,,64,0
50040,note_on,0,0,4,,,,,,,,,3,,,64,36
50040,control_change,54,0,3,,,,,,,,,2,64,127,,
50040,note_on,0,0,1,,,,,,,,,0,,,80,49
50046,note_on,0,0,3,,,,,,,,,2,,,71,0
50046,note_on,6,0,3,,,,,,,,,2,,,74,0
50100,note_on,54,0,3,,,,,,,,,2,,,71,36
50100,note_on,60,0,1,,,,,,,,,0,,,80,0
50100,note_on,0,0,1,,,,,,,,,0,,,87,49
50100,note_on,0,0,3,,,,,,,,,2,,,74,36
50106,note_on,6,0,3,,,,,,,,,2,,,74,0
50106,note_on,0,0,3,,,,,,,,,2,,,71,0
50160,note_on,54,0,3,,,,,,,,,2,,,71,36
50160,note_on,0,0,1,,,,,,,,,0,,,88,49
50160,note_on,60,0,1,,,,,,,,,0,,,87,0
50160,note_on,0,0,3,,,,,,,,,2,,,74,36
50166,note_on,0,0,3,,,,,,,,,2,,,71,0
50166,note_on,6,0,3,,,,,,,,,2,,,74,0
50220,note_on,0,0,1,,,,,,,,,0,,,88,49
50220,control_change,0,0,1,,,,,,,,,0,64,0,,
50220,note_on,54,0,3,,,,,,,,,2,,,71,36
50220,note_on,0,0,3,,,,,,,,,2,,,74,36
50220,note_on,60,0,1,,,,,,,,,0,,,88,0
50226,note_on,0,0,3,,,,,,,,,2,,,71,0
50226,note_on,6,0,3,,,,,,,,,2,,,74,0
50280,note_on,0,0,3,,,,,,,,,2,,,74,36
50280,note_on,54,0,3,,,,,,,,,2,,,71,36
50286,note_on,0,0,3,,,,,,,,,2,,,71,0
50286,note_on,6,0,3,,,,,,,,,2,,,74,0
50340,note_on,0,0,3,,,,,,,,,2,,,71,36
50340,control_change,54,0,3,,,,,,,,,2,64,0,,
50340,note_on,0,0,3,,,,,,,,,2,,,74,36
50346,note_on,0,0,3,,,,,,,,,2,,,71,0
50346,note_on,6,0,3,,,,,,,,,2,,,74,0
50400,control_change,54,0,3,,,,,,,,,2,64,127,,
50400,note_on,0,0,4,,,,,,,,,3,,,52,75
50400,note_on,360,0,4,,,,,,,,,3,,,64,0
50400,note_on,360,0,2,,,,,,,,,1,,,80,0
50400,note_on,0,0,3,,,,,,,,,2,,,57,75
50400,note_on,0,0,3,,,,,,,,,2,,,61,75
50400,note_on,0,0,1,,,,,,,,,0,,,64,88
50400,note_on,180,0,1,,,,,,,,,0,,,88,0
50400,control_change,0,0,1,,,,,,,,,0,64,127,,
50400,note_on,0,0,1,,,,,,,,,0,,,69,88
50400,note_on,0,0,1,,,,,,,,,0,,,73,88
50406,note_on,0,0,3,,,,,,,,,2,,,57,0
50406,note_on,6,0,3,,,,,,,,,2,,,61,0
50460,note_on,0,0,3,,,,,,,,,2,,,61,36
50460,note_on,54,0,3,,,,,,,,,2,,,57,36
50466,note_on,6,0,3,,,,,,,,,2,,,61,0
50466,note_on,0,0,3,,,,,,,,,2,,,57,0
50520,note_on,0,0,3,,,,,,,,,2,,,61,36
50520,note_on,54,0,3,,,,,,,,,2,,,57,36
50526,note_on,0,0,3,,,,,,,,,2,,,57,0
50526,note_on,6,0,3,,,,,,,,,2,,,61,0
50580,note_on,54,0,3,,,,,,,,,2,,,57,36
50580,note_on,0,0,3,,,,,,,,,2,,,61,36
50586,note_on,0,0,3,,,,,,,,,2,,,57,0
50586,note_on,6,0,3,,,,,,,,,2,,,61,0
50640,note_on,54,0,3,,,,,,,,,2,,,57,36
50640,note_on,0,0,3,,,,,,,,,2,,,61,36
50640,note_on,240,0,1,,,,,,,,,0,,,73,0
50640,note_on,0,0,1,,,,,,,,,0,,,69,0
50640,note_on,0,0,1,,,,,,,,,0,,,74,49
50640,note_on,0,0,1,,,,,,,,,0,,,64,0
50646,note_on,6,0,3,,,,,,,,,2,,,61,0
50646,note_on,0,0,3,,,,,,,,,2,,,57,0
50670,note_on,30,0,1,,,,,,,,,0,,,74,0
50670,note_on,0,0,1,,,,,,,,,0,,,73,49
50700,note_on,0,0,1,,,,,,,,,0,,,71,49
50700,note_on,30,0,1,,,,,,,,,0,,,73,0
50700,control_change,54,0,3,,,,,,,,,2,64,0,,
50700,note_on,0,0,3,,,,,,,,,2,,,57,36
50700,note_on,0,0,3,,,,,,,,,2,,,61,36
50706,note_on,6,0,3,,,,,,,,,2,,,61,0
50706,note_on,0,0,3,,,,,,,,,2,,,57,0
50730,control_change,0,0,1,,,,,,,,,0,64,0,,
50730,note_on,0,0,1,,,,,,,,,0,,,69,49
50730,note_on,30,0,1,,,,,,,,,0,,,71,0
50760,note_on,0,0,3,,,,,,,,,2,,,62,36
50760,control_change,54,0,3,,,,,,,,,2,64,127,,
50760,note_on,360,0,2,,,,,,,,,1,,,68,36
50760,note_on,0,0,3,,,,,,,,,2,,,59,36
50760,note_on,360,0,4,,,,,,,,,3,,,52,0
50760,note_on,0,0,4,,,,,,,,,3,,,52,36
50760,note_on,30,0,1,,,,,,,,,0,,,69,0
50760,control_change,0,0,1,,,,,,,,,0,64,127,,
50760,note_on,0,0,1,,,,,,,,,0,,,68,49
50766,note_on,0,0,3,,,,,,,,,2,,,59,0
50766,note_on,6,0,3,,,,,,,,,2,,,62,0
50820,note_on,54,0,3,,,,,,,,,2,,,59,36
50820,note_on,60,0,1,,,,,,,,,0,,,68,0
50820,note_on,0,0,1,,,,,,,,,0,,,78,49
50820,note_on,0,0,3,,,,,,,,,2,,,62,36
50826,note_on,0,0,3,,,,,,,,,2,,,59,0
50826,note_on,6,0,3,,,,,,,,,2,,,62,0
50880,note_on,0,0,3,,,,,,,,,2,,,62,36
50880,note_on,60,0,1,,,,,,,,,0,,,78,0
50880,note_on,0,0,1,,,,,,,,,0,,,76,49
50880,note_on,54,0,3,,,,,,,,,2,,,59,36
50886,note_on,6,0,3,,,,,,,,,2,,,62,0
50886,note_on,0,0,3,,,,,,,,,2,,,59,0
50940,control_change,0,0,1,,,,,,,,,0,64,0,,
50940,note_on,0,0,3,,,,,,,,,2,,,62,36
50940,note_on,54,0,3,,,,,,,,,2,,,59,36
50940,note_on,60,0,1,,,,,,,,,0,,,76,0
50940,note_on,0,0,1,,,,,,,,,0,,,76,49
50946,note_on,6,0,3,,,,,,,,,2,,,62,0
50946,note_on,0,0,3,,,,,,,,,2,,,59,0
51000,note_on,0,0,3,,,,,,,,,2,,,62,36
51000,note_on,54,0,3,,,,,,,,,2,,,59,36
51006,note_on,6,0,3,,,,,,,,,2,,,62,0
51006,note_on,0,0,3,,,,,,,,,2,,,59,0
51060,note_on,0,0,3,,,,,,,,,2,,,62,36
51060,control_change,54,0,3,,,,,,,,,2,64,0,,
51060,note_on,0,0,3,,,,,,,,,2,,,59,36
51066,note_on,6,0,3,,,,,,,,,2,,,62,0
51066,note_on,0,0,3,,,,,,,,,2,,,59,0
51120,note_on,0,0,1,,,,,,,,,0,,,76,88
51120,control_change,54,0,3,,,,,,,,,2,64,127,,
51120,note_on,0,0,3,,,,,,,,,2,,,69,75
51120,note_on,0,0,3,,,,,,,,,2,,,72,75
51120,note_on,0,0,1,,,,,,,,,0,,,81,88
51120,note_on,360,0,4,,,,,,,,,3,,,52,0
51120,note_on,0,0,4,,,,,,,,,3,,,64,75
51120,note_on,360,0,2,,,,,,,,,1,,,68,0
51120,note_on,180,0,1,,,,,,,,,0,,,76,0
51120,control_change,0,0,1,,,,,,,,,0,64,127,,
51120,note_on,0,0,1,,,,,,,,,0,,,84,88
51126,note_on,0,0,3,,,,,,,,,2,,,69,0
51126,note_on,6,0,3,,,,,,,,,2,,,72,0
51180,note_on,0,0,3,,,,,,,,,2,,,72,36
51180,note_on,54,0,3,,,,,,,,,2,,,69,36
51186,note_on,6,0,3,,,,,,,,,2,,,72,0
51186,note_on,0,0,3,,,,,,,,,2,,,69,0
51240,note_on,54,0,3,,,,,,,,,2,,,69,36
51240,note_on,0,0,3,,,,,,,,,2,,,72,36
51246,note_on,6,0,3,,,,,,,,,2,,,72,0
51246,note_on,0,0,3,,,,,,,,,2,,,69,0
51300,note_on,54,0,3,,,,,,,,,2,,,69,36
51300,note_on,0,0,3,,,,,,,,,2,,,72,36
51306,note_on,0,0,3,,,,,,,,,2,,,69,0
51306,note_on,6,0,3,,,,,,,,,2,,,72,0
51360,note_on,0,0,1,,,,,,,,,0,,,81,0
51360,note_on,0,0,1,,,,,,,,,0,,,76,0
51360,note_on,0,0,1,,,,,,,,,0,,,86,49
51360,note_on,240,0,1,,,,,,,,,0,,,84,0
51360,note_on,0,0,3,,,,,,,,,2,,,72,36
51360,note_on,54,0,3,,,,,,,,,2,,,69,36
51366,note_on,6,0,3,,,,,,,,,2,,,72,0
51366,note_on,0,0,3,,,,,,,,,2,,,69,0
51390,note_on,30,0,1,,,,,,,,,0,,,86,0
51390,note_on,0,0,1,,,,,,,,,0,,,84,49
51420,note_on,30,0,1,,,,,,,,,0,,,84,0
51420,note_on,0,0,1,,,,,,,,,0,,,83,49
51420,note_on,0,0,3,,,,,,,,,2,,,69,36
51420,note_on,0,0,3,,,,,,,,,2,,,72,36
51420,control_change,54,0,3,,,,,,,,,2,64,0,,
51426,note_on,6,0,3,,,,,,,,,2,,,72,0
51426,note_on,0,0,3,,,,,,,,,2,,,69,0
51450,note_on,30,0,1,,,,,,,,,0,,,83,0
51450,control_change,0,0,1,,,,,,,,,0,64,0,,
51450,note_on,0,0,1,,,,,,,,,0,,,81,49
51480,control_change,54,0,3,,,,,,,,,2,64,127,,
51480,note_on,0,0,3,,,,,,,,,2,,,74,36
51480,note_on,0,0,4,,,,,,,,,3,,,64,36
51480,note_on,0,0,1,,,,,,,,,0,,,80,49
51480,control_change,0,0,1,,,,,,,,,0,64,127,,
51480,note_on,360,0,4,,,,,,,,,3,,,64,0
51480,note_on,30,0,1,,,,,,,,,0,,,81,0
51480,note_on,0,0,3,,,,,,,,,2,,,71,36
51480,note_on,360,0,2,,,,,,,,,1,,,80,36
51486,note_on,6,0,3,,,,,,,,,2,,,74,0
51486,note_on,0,0,3,,,,,,,,,2,,,71,0
51540,note_on,0,0,1,,,,,,,,,0,,,87,49
51540,note_on,60,0,1,,,,,,,,,0,,,80,0
51540,note_on,54,0,3,,,,,,,,,2,,,71,36
51540,note_on,0,0,3,,,,,,,,,2,,,74,36
51546,note_on,0,0,3,,,,,,,,,2,,,71,0
51546,note_on,6,0,3,,,,,,,,,2,,,74,0
51600,note_on,54,0,3,,,,,,,,,2,,,71,36
51600,note_on,60,0,1,,,,,,,,,0,,,87,0
51600,note_on,0,0,1,,,,,,,,,0,,,88,49
51600,note_on,0,0,3,,,,,,,,,2,,,74,36
51606,note_on,6,0,3,,,,,,,,,2,,,74,0
51606,note_on,0,0,3,,,,,,,,,2,,,71,0
51660,note_on,60,0,1,,,,,,,,,0,,,88,0
51660,control_change,0,0,1,,,,,,,,,0,64,0,,
51660,note_on,0,0,1,,,,,,,,,0,,,88,49
51660,note_on,0,0,3,,,,,,,,,2,,,74,36
51660,note_on,54,0,3,,,,,,,,,2,,,71,36
51666,note_on,6,0,3,,,,,,,,,2,,,74,0
51666,note_on,0,0,3,,,,,,,,,2,,,71,0
51720,note_on,54,0,3,,,,,,,,,2,,,71,36
51720,note_on,0,0,3,,,,,,,,,2,,,74,36
51726,note_on,0,0,3,,,,,,,,,2,,,71,0
51726,note_on,6,0,3,,,,,,,,,2,,,74,0
51780,note_on,0,0,3,,,,,,,,,2,,,74,36
51780,note_on,0,0,3,,,,,,,,,2,,,71,36
51780,control_change,54,0,3,,,,,,,,,2,64,0,,
51786,note_on,6,0,3,,,,,,,,,2,,,74,0
51786,note_on,0,0,3,,,,,,,,,2,,,71,0
51840,note_on,180,0,1,,,,,,,,,0,,,88,0
51840,note_on,0,0,1,,,,,,,,,0,,,72,88
51840,note_on,0,0,3,,,,,,,,,2,,,60,75
51840,note_on,0,0,1,,,,,,,,,0,,,69,88
51840,note_on,0,0,3,,,,,,,,,2,,,57,75
51840,control_change,54,0,3,,,,,,,,,2,64,127,,
51840,note_on,360,0,4,,,,,,,,,3,,,64,0
51840,control_change,0,0,1,,,,,,,,,0,64,127,,
51840,note_on,360,0,2,,,,,,,,,1,,,80,0
51840,note_on,0,0,4,,,,,,,,,3,,,52,75
51840,note_on,0,0,1,,,,,,,,,0,,,64,88
51846,note_on,6,0,3,,,,,,,,,2,,,60,0
51846,note_on,0,0,3,,,,,,,,,2,,,57,0
51900,note_on,54,0,3,,,,,,,,,2,,,57,75
51900,note_on,0,0,3,,,,,,,,,2,,,60,75
51906,note_on,6,0,3,,,,,,,,,2,,,60,0
51906,note_on,0,0,3,,,,,,,,,2,,,57,0
51960,note_on,0,0,3,,,,,,,,,2,,,60,75
51960,note_on,54,0,3,,,,,,,,,2,,,57,75
51966,note_on,6,0,3,,,,,,,,,2,,,60,0
51966,note_on,0,0,3,,,,,,,,,2,,,57,0
52020,note_on,54,0,3,,,,,,,,,2,,,57,36
52020,note_on,0,0,3,,,,,,,,,2,,,60,36
52026,note_on,6,0,3,,,,,,,,,2,,,60,0
52026,note_on,0,0,3,,,,,,,,,2,,,57,0
52080,note_on,0,0,1,,,,,,,,,0,,,69,0
52080,note_on,54,0,3,,,,,,,,,2,,,57,36
52080,note_on,240,0,1,,,,,,,,,0,,,72,0
52080,note_on,0,0,3,,,,,,,,,2,,,60,36
52080,note_on,0,0,1,,,,,,,,,0,,,74,49
52080,note_on,0,0,1,,,,,,,,,0,,,64,0
52086,note_on,0,0,3,,,,,,,,,2,,,57,0
52086,note_on,6,0,3,,,,,,,,,2,,,60,0
52110,note_on,0,0,1,,,,,,,,,0,,,72,49
52110,note_on,30,0,1,,,,,,,,,0,,,74,0
52140,note_on,0,0,1,,,,,,,,,0,,,71,49
52140,note_on,30,0,1,,,,,,,,,0,,,72,0
52140,note_on,0,0,3,,,,,,,,,2,,,57,36
52140,control_change,54,0,3,,,,,,,,,2,64,0,,
52140,note_on,0,0,3,,,,,,,,,2,,,60,36
52146,note_on,6,0,3,,,,,,,,,2,,,60,0
52146,note_on,0,0,3,,,,,,,,,2,,,57,0
52170,note_on,30,0,1,,,,,,,,,0,,,71,0
52170,control_change,0,0,1,,,,,,,,,0,64,0,,
52170,note_on,0,0,1,,,,,,,,,0,,,69,49
52200,control_change,54,0,3,,,,,,,,,2,64,127,,
52200,note_on,0,0,1,,,,,,,,,0,,,68,49
52200,note_on,360,0,4,,,,,,,,,3,,,52,0
52200,note_on,360,0,2,,,,,,,,,1,,,68,36
52200,note_on,0,0,4,,,,,,,,,3,,,52,36
52200,control_change,0,0,1,,,,,,,,,0,64,127,,
52200,note_on,30,0,1,,,,,,,,,0,,,69,0
52200,note_on,0,0,3,,,,,,,,,2,,,59,36
52200,note_on,0,0,3,,,,,,,,,2,,,62,36
52206,note_on,6,0,3,,,,,,,,,2,,,62,0
52206,note_on,0,0,3,,,,,,,,,2,,,59,0
52260,note_on,0,0,3,,,,,,,,,2,,,62,36
52260,note_on,0,0,1,,,,,,,,,0,,,77,49
52260,note_on,54,0,3,,,,,,,,,2,,,59,36
52260,note_on,60,0,1,,,,,,,,,0,,,68,0
52266,note_on,0,0,3,,,,,,,,,2,,,59,0
52266,note_on,6,0,3,,,,,,,,,2,,,62,0
52320,note_on,54,0,3,,,,,,,,,2,,,59,36
52320,note_on,0,0,3,,,,,,,,,2,,,62,36
52320,note_on,60,0,1,,,,,,,,,0,,,77,0
52320,note_on,0,0,1,,,,,,,,,0,,,76,49
52326,note_on,0,0,3,,,,,,,,,2,,,59,0
52326,note_on,6,0,3,,,,,,,,,2,,,62,0
52380,note_on,0,0,3,,,,,,,,,2,,,62,36
52380,note_on,54,0,3,,,,,,,,,2,,,59,36
52380,note_on,60,0,1,,,,,,,,,0,,,76,0
52380,control_change,0,0,1,,,,,,,,,0,64,0,,
52380,note_on,0,0,1,,,,,,,,,0,,,76,49
52386,note_on,0,0,3,,,,,,,,,2,,,59,0
52386,note_on,6,0,3,,,,,,,,,2,,,62,0
52440,note_on,0,0,3,,,,,,,,,2,,,62,36
52440,note_on,54,0,3,,,,,,,,,2,,,59,36
52446,note_on,6,0,3,,,,,,,,,2,,,62,0
52446,note_on,0,0,3,,,,,,,,,2,,,59,0
52500,control_change,54,0,3,,,,,,,,,2,64,0,,
52500,note_on,0,0,3,,,,,,,,,2,,,59,36
52500,note_on,0,0,3,,,,,,,,,2,,,62,36
52506,note_on,6,0,3,,,,,,,,,2,,,62,0
52506,note_on,0,0,3,,,,,,,,,2,,,59,0
52560,note_on,360,0,2,,,,,,,,,1,,,68,0
52560,note_on,0,0,1,,,,,,,,,0,,,64,114
52560,note_on,0,0,3,,,,,,,,,2,,,45,101
52560,note_on,0,0,3,,,,,,,,,2,,,52,101
52560,note_on,0,0,3,,,,,,,,,2,,,57,101
52560,note_on,360,0,4,,,,,,,,,3,,,52,0
52560,note_on,180,0,1,,,,,,,,,0,,,76,0
52560,control_change,0,0,1,,,,,,,,,0,64,127,,
52560,note_on,0,0,1,,,,,,,,,0,,,61,114
52560,note_on,0,0,1,,,,,,,,,0,,,69,114
52560,control_change,54,0,3,,,,,,,,,2,64,127,,
52680,note_on,120,0,1,,,,,,,,,0,,,69,0
52680,note_on,120,0,3,,,,,,,,,2,,,57,0
52680,note_on,0,0,3,,,,,,,,,2,,,45,0
52680,note_on,0,0,3,,,,,,,,,2,,,57,101
52680,note_on,0,0,3,,,,,,,,,2,,,61,101
52680,note_on,0,0,1,,,,,,,,,0,,,64,0
52680,note_on,0,0,3,,,,,,,,,2,,,52,0
52680,note_on,0,0,1,,,,,,,,,0,,,69,114
52680,note_on,0,0,1,,,,,,,,,0,,,61,0
52686,note_on,0,0,3,,,,,,,,,2,,,57,0
52686,note_on,6,0,3,,,,,,,,,2,,,61,0
52710,note_on,0,0,1,,,,,,,,,0,,,73,114
52710,note_on,30,0,1,,,,,,,,,0,,,69,0
52740,note_on,30,0,1,,,,,,,,,0,,,73,0
52740,note_on,0,0,3,,,,,,,,,2,,,62,101
52740,note_on,54,0,3,,,,,,,,,2,,,59,101
52740,note_on,0,0,1,,,,,,,,,0,,,71,114
52746,note_on,0,0,3,,,,,,,,,2,,,59,0
52746,note_on,6,0,3,,,,,,,,,2,,,62,0
52770,note_on,30,0,1,,,,,,,,,0,,,71,0
52770,note_on,0,0,1,,,,,,,,,0,,,74,114
52800,note_on,54,0,3,,,,,,,,,2,,,61,101
52800,note_on,0,0,1,,,,,,,,,0,,,73,114
52800,note_on,30,0,1,,,,,,,,,0,,,74,0
52800,note_on,0,0,3,,,,,,,,,2,,,64,101
52806,note_on,6,0,3,,,,,,,,,2,,,64,0
52806,note_on,0,0,3,,,,,,,,,2,,,61,0
52830,note_on,0,0,1,,,,,,,,,0,,,76,114
52830,note_on,30,0,1,,,,,,,,,0,,,73,0
52860,note_on,0,0,1,,,,,,,,,0,,,74,114
52860,note_on,30,0,1,,,,,,,,,0,,,76,0
52860,note_on,0,0,3,,,,,,,,,2,,,66,101
52860,note_on,0,0,3,,,,,,,,,2,,,62,101
52860,control_change,54,0,3,,,,,,,,,2,64,0,,
52866,note_on,0,0,3,,,,,,,,,2,,,62,0
52866,note_on,6,0,3,,,,,,,,,2,,,66,0
52890,note_on,30,0,1,,,,,,,,,0,,,74,0
52890,control_change,0,0,1,,,,,,,,,0,64,0,,
52890,note_on,0,0,1,,,,,,,,,0,,,78,114
52920,note_on,30,0,1,,,,,,,,,0,,,78,0
52920,note_on,0,0,3,,,,,,,,,2,,,52,101
52920,note_on,0,0,3,,,,,,,,,2,,,59,101
52920,note_on,0,0,3,,,,,,,,,2,,,64,101
52920,note_on,0,0,1,,,,,,,,,0,,,68,114
52920,note_on,0,0,1,,,,,,,,,0,,,71,114
52920,note_on,0,0,1,,,,,,,,,0,,,74,114
52920,control_change,0,0,1,,,,,,,,,0,64,127,,
52920,note_on,0,0,1,,,,,,,,,0,,,76,114
52920,control_change,54,0,3,,,,,,,,,2,64,127,,
53040,note_on,120,0,1,,,,,,,,,0,,,76,0
53040,note_on,0,0,1,,,,,,,,,0,,,68,0
53040,note_on,0,0,1,,,,,,,,,0,,,71,0
53040,note_on,480,0,4,,,,,,,,,3,,,64,36
53040,note_on,0,0,1,,,,,,,,,0,,,74,0
53040,note_on,0,0,3,,,,,,,,,2,,,52,0
53040,note_on,0,0,3,,,,,,,,,2,,,59,0
53040,note_on,120,0,3,,,,,,,,,2,,,64,0
53040,note_on,0,0,1,,,,,,,,,0,,,86,114
53040,note_on,0,0,3,,,,,,,,,2,,,68,101
53070,note_on,30,0,1,,,,,,,,,0,,,86,0
53070,note_on,0,0,1,,,,,,,,,0,,,76,114
53100,note_on,0,0,1,,,,,,,,,0,,,83,114
53100,note_on,0,0,3,,,,,,,,,2,,,71,101
53100,note_on,60,0,3,,,,,,,,,2,,,68,0
53100,note_on,30,0,1,,,,,,,,,0,,,76,0
53130,note_on,30,0,1,,,,,,,,,0,,,83,0
53130,note_on,0,0,1,,,,,,,,,0,,,76,114
53160,note_on,0,0,3,,,,,,,,,2,,,73,101
53160,note_on,30,0,1,,,,,,,,,0,,,76,0
53160,note_on,0,0,1,,,,,,,,,0,,,81,114
53160,note_on,60,0,3,,,,,,,,,2,,,71,0
53190,note_on,30,0,1,,,,,,,,,0,,,81,0
53190,note_on,0,0,1,,,,,,,,,0,,,76,114
53220,note_on,60,0,3,,,,,,,,,2,,,73,0
53220,control_change,0,0,3,,,,,,,,,2,64,0,,
53220,note_on,0,0,3,,,,,,,,,2,,,74,101
53220,note_on,30,0,1,,,,,,,,,0,,,76,0
53220,note_on,0,0,1,,,,,,,,,0,,,80,114
53250,note_on,0,0,1,,,,,,,,,0,,,76,114
53250,note_on,30,0,1,,,,,,,,,0,,,80,0
53250,control_change,0,0,1,,,,,,,,,0,64,0,,
53280,note_on,30,0,1,,,,,,,,,0,,,76,0
53280,control_change,0,0,1,,,,,,,,,0,64,127,,
53280,note_on,0,0,1,,,,,,,,,0,,,69,114
53280,note_on,0,0,1,,,,,,,,,0,,,73,114
53280,note_on,0,0,1,,,,,,,,,0,,,76,114
53280,note_on,0,0,1,,,,,,,,,0,,,81,114
53280,note_on,0,0,3,,,,,,,,,2,,,57,101
53280,note_on,0,0,3,,,,,,,,,2,,,52,101
53280,note_on,240,0,4,,,,,,,,,3,,,64,0
53280,note_on,60,0,3,,,,,,,,,2,,,74,0
53280,control_change,0,0,3,,,,,,,,,2,64,127,,
53280,note_on,0,0,3,,,,,,,,,2,,,45,101
53400,note_on,0,0,1,,,,,,,,,0,,,76,0
53400,note_on,0,0,1,,,,,,,,,0,,,69,114
53400,note_on,0,0,1,,,,,,,,,0,,,73,0
53400,note_on,120,0,3,,,,,,,,,2,,,57,0
53400,note_on,0,0,3,,,,,,,,,2,,,52,0
53400,note_on,0,0,3,,,,,,,,,2,,,45,0
53400,note_on,0,0,3,,,,,,,,,2,,,57,101
53400,note_on,0,0,3,,,,,,,,,2,,,61,101
53400,note_on,0,0,1,,,,,,,,,0,,,69,0
53400,note_on,120,0,1,,,,,,,,,0,,,81,0
53406,note_on,0,0,3,,,,,,,,,2,,,57,0
53406,note_on,6,0,3,,,,,,,,,2,,,61,0
53430,note_on,30,0,1,,,,,,,,,0,,,69,0
53430,note_on,0,0,1,,,,,,,,,0,,,73,114
53460,note_on,0,0,3,,,,,,,,,2,,,62,101
53460,note_on,30,0,1,,,,,,,,,0,,,73,0
53460,note_on,0,0,1,,,,,,,,,0,,,71,114
53460,note_on,54,0,3,,,,,,,,,2,,,59,101
53466,note_on,6,0,3,,,,,,,,,2,,,62,0
53466,note_on,0,0,3,,,,,,,,,2,,,59,0
53490,note_on,0,0,1,,,,,,,,,0,,,74,114
53490,note_on,30,0,1,,,,,,,,,0,,,71,0
53520,note_on,30,0,1,,,,,,,,,0,,,74,0
53520,note_on,54,0,3,,,,,,,,,2,,,61,101
53520,note_on,0,0,3,,,,,,,,,2,,,64,101
53520,note_on,0,0,1,,,,,,,,,0,,,73,114
53526,note_on,0,0,3,,,,,,,,,2,,,61,0
53526,note_on,6,0,3,,,,,,,,,2,,,64,0
53550,note_on,30,0,1,,,,,,,,,0,,,73,0
53550,note_on,0,0,1,,,,,,,,,0,,,76,114
53580,note_on,0,0,3,,,,,,,,,2,,,62,101
53580,control_change,54,0,3,,,,,,,,,2,64,0,,
53580,note_on,0,0,1,,,,,,,,,0,,,74,114
53580,note_on,30,0,1,,,,,,,,,0,,,76,0
53580,note_on,0,0,3,,,,,,,,,2,,,66,101
53586,note_on,6,0,3,,,,,,,,,2,,,66,0
53586,note_on,0,0,3,,,,,,,,,2,,,62,0
53610,note_on,0,0,1,,,,,,,,,0,,,78,114
53610,note_on,30,0,1,,,,,,,,,0,,,74,0
53610,control_change,0,0,1,,,,,,,,,0,64,0,,
53640,note_on,0,0,3,,,,,,,,,2,,,59,101
53640,note_on,0,0,3,,,,,,,,,2,,,52,101
53640,control_change,54,0,3,,,,,,,,,2,64,127,,
53640,note_on,0,0,1,,,,,,,,,0,,,76,114
53640,note_on,0,0,1,,,,,,,,,0,,,74,114
53640,note_on,0,0,1,,,,,,,,,0,,,71,114
53640,note_on,0,0,1,,,,,,,,,0,,,68,114
53640,note_on,0,0,3,,,,,,,,,2,,,64,101
53640,control_change,0,0,1,,,,,,,,,0,64,127,,
53640,note_on,30,0,1,,,,,,,,,0,,,78,0
53760,note_on,0,0,1,,,,,,,,,0,,,86,114
53760,note_on,480,0,4,,,,,,,,,3,,,64,36
53760,note_on,0,0,3,,,,,,,,,2,,,68,101
53760,note_on,0,0,3,,,,,,,,,2,,,52,0
53760,note_on,0,0,3,,,,,,,,,2,,,59,0
53760,note_on,120,0,3,,,,,,,,,2,,,64,0
53760,note_on,120,0,1,,,,,,,,,0,,,76,0
53760,note_on,0,0,1,,,,,,,,,0,,,68,0
53760,note_on,0,0,1,,,,,,,,,0,,,71,0
53760,note_on,0,0,1,,,,,,,,,0,,,74,0
53790,note_on,30,0,1,,,,,,,,,0,,,86,0
53790,note_on,0,0,1,,,,,,,,,0,,,76,114
53820,note_on,0,0,3,,,,,,,,,2,,,71,101
53820,note_on,30,0,1,,,,,,,,,0,,,76,0
53820,note_on,60,0,3,,,,,,,,,2,,,68,0
53820,note_on,0,0,1,,,,,,,,,0,,,83,114
53850,note_on,30,0,1,,,,,,,,,0,,,83,0
53850,note_on,0,0,1,,,,,,,,,0,,,76,114
53880,note_on,30,0,1,,,,,,,,,0,,,76,0
53880,note_on,0,0,1,,,,,,,,,0,,,81,114
53880,note_on,0,0,3,,,,,,,,,2,,,73,101
53880,note_on,60,0,3,,,,,,,,,2,,,71,0
53910,note_on,30,0,1,,,,,,,,,0,,,81,0
53910,note_on,0,0,1,,,,,,,,,0,,,76,114
53940,note_on,0,0,3,,,,,,,,,2,,,74,101
53940,note_on,30,0,1,,,,,,,,,0,,,76,0
53940,note_on,0,0,1,,,,,,,,,0,,,80,114
53940,note_on,60,0,3,,,,,,,,,2,,,73,0
53970,note_on,0,0,1,,,,,,,,,0,,,76,114
53970,note_on,30,0,1,,,,,,,,,0,,,80,0
54000,note_on,30,0,1,,,,,,,,,0,,,76,0
54000,note_on,0,0,3,,,,,,,,,2,,,57,88
54000,note_on,60,0,3,,,,,,,,,2,,,74,0
54000,control_change,0,0,3,,,,,,,,,2,64,0,,
54000,note_on,0,0,1,,,,,,,,,0,,,85,101
54000,note_on,0,0,3,,,,,,,,,2,,,69,88
54000,note_on,240,0,4,,,,,,,,,3,,,64,0
54030,note_on,30,0,1,,,,,,,,,0,,,85,0
54030,control_change,0,0,1,,,,,,,,,0,64,0,,
54030,note_on,0,0,1,,,,,,,,,0,,,76,101
54060,note_on,30,0,1,,,,,,,,,0,,,76,0
54060,note_on,60,0,3,,,,,,,,,2,,,69,0
54060,note_on,0,0,3,,,,,,,,,2,,,68,114
54060,note_on,0,0,3,,,,,,,,,2,,,61,106
54060,note_on,0,0,3,,,,,,,,,2,,,57,0
54060,control_change,0,0,1,,,,,,,,,0,64,127,,
54060,note_on,0,0,1,,,,,,,,,0,,,77,127
54090,note_on,30,0,1,,,,,,,,,0,,,77,0
54090,note_on,0,0,1,,,,,,,,,0,,,83,101
54120,note_on,30,0,1,,,,,,,,,0,,,83,0
54120,note_on,0,0,1,,,,,,,,,0,,,80,101
54150,note_on,30,0,1,,,,,,,,,0,,,80,0
54150,note_on,0,0,1,,,,,,,,,0,,,77,101
54180,note_on,30,0,1,,,,,,,,,0,,,77,0
54180,note_on,0,0,1,,,,,,,,,0,,,81,88
54180,note_on,0,0,3,,,,,,,,,2,,,66,75
54180,note_on,120,0,3,,,,,,,,,2,,,68,0
54180,note_on,0,0,3,,,,,,,,,2,,,61,0
54180,note_on,0,0,3,,,,,,,,,2,,,54,75
54210,note_on,30,0,1,,,,,,,,,0,,,81,0
54210,control_change,0,0,1,,,,,,,,,0,64,0,,
54210,note_on,0,0,1,,,,,,,,,0,,,69,88
54240,note_on,0,0,3,,,,,,,,,2,,,54,0
54240,note_on,0,0,3,,,,,,,,,2,,,57,93
54240,note_on,0,0,3,,,,,,,,,2,,,64,101
54240,note_on,60,0,3,,,,,,,,,2,,,66,0
54240,note_on,30,0,1,,,,,,,,,0,,,69,0
54240,control_change,0,0,1,,,,,,,,,0,64,127,,
54240,note_on,0,0,1,,,,,,,,,0,,,73,114
54270,note_on,30,0,1,,,,,,,,,0,,,73,0
54270,note_on,0,0,1,,,,,,,,,0,,,79,88
54300,note_on,0,0,1,,,,,,,,,0,,,76,88
54300,note_on,30,0,1,,,,,,,,,0,,,79,0
54330,note_on,0,0,1,,,,,,,,,0,,,73,88
54330,note_on,30,0,1,,,,,,,,,0,,,76,0
54360,note_on,120,0,3,,,,,,,,,2,,,64,0
54360,note_on,0,0,3,,,,,,,,,2,,,50,62
54360,note_on,0,0,3,,,,,,,,,2,,,62,62
54360,note_on,0,0,3,,,,,,,,,2,,,57,0
54360,note_on,0,0,1,,,,,,,,,0,,,78,75
54360,note_on,30,0,1,,,,,,,,,0,,,73,0
54390,note_on,0,0,1,,,,,,,,,0,,,69,75
54390,control_change,0,0,1,,,,,,,,,0,64,0,,
54390,note_on,30,0,1,,,,,,,,,0,,,78,0
54420,control_change,0,0,1,,,,,,,,,0,64,127,,
54420,note_on,30,0,1,,,,,,,,,0,,,69,0
54420,note_on,0,0,3,,,,,,,,,2,,,54,80
54420,note_on,0,0,3,,,,,,,,,2,,,50,0
54420,note_on,0,0,1,,,,,,,,,0,,,70,101
54420,note_on,0,0,3,,,,,,,,,2,,,61,88
54420,note_on,60,0,3,,,,,,,,,2,,,62,0
54450,note_on,0,0,1,,,,,,,,,0,,,76,75
54450,note_on,30,0,1,,,,,,,,,0,,,70,0
54480,note_on,30,0,1,,,,,,,,,0,,,76,0
54480,note_on,0,0,1,,,,,,,,,0,,,73,75
54510,note_on,30,0,1,,,,,,,,,0,,,73,0
54510,control_change,0,0,1,,,,,,,,,0,64,0,,
54510,note_on,0,0,1,,,,,,,,,0,,,70,75
54540,note_on,0,0,1,,,,,,,,,0,,,74,75
54540,note_on,120,0,3,,,,,,,,,2,,,61,0
54540,note_on,0,0,3,,,,,,,,,2,,,54,0
54540,control_change,0,0,3,,,,,,,,,2,64,127,,
54540,note_on,0,0,3,,,,,,,,,2,,,47,62
54540,control_change,0,0,1,,,,,,,,,0,64,127,,
54540,note_on,30,0,1,,,,,,,,,0,,,70,0
54546,note_on,6,0,3,,,,,,,,,2,,,47,0
54570,note_on,0,0,1,,,,,,,,,0,,,66,75
54570,note_on,30,0,1,,,,,,,,,0,,,74,0
54600,note_on,30,0,1,,,,,,,,,0,,,66,0
54600,note_on,0,0,1,,,,,,,,,0,,,71,75
54600,note_on,54,0,3,,,,,,,,,2,,,59,62
54600,note_on,0,0,3,,,,,,,,,2,,,62,62
54606,note_on,6,0,3,,,,,,,,,2,,,62,0
54606,note_on,0,0,3,,,,,,,,,2,,,59,0
54630,note_on,30,0,1,,,,,,,,,0,,,71,0
54630,note_on,0,0,1,,,,,,,,,0,,,74,75
54660,note_on,30,0,1,,,,,,,,,0,,,74,0
54660,note_on,0,0,1,,,,,,,,,0,,,66,75
54660,note_on,54,0,3,,,,,,,,,2,,,47,62
54666,note_on,6,0,3,,,,,,,,,2,,,47,0
54690,note_on,30,0,1,,,,,,,,,0,,,66,0
54690,note_on,0,0,1,,,,,,,,,0,,,71,75
54720,note_on,54,0,3,,,,,,,,,2,,,59,75
54720,note_on,0,0,3,,,,,,,,,2,,,62,75
54720,note_on,30,0,1,,,,,,,,,0,,,71,0
54720,note_on,0,0,1,,,,,,,,,0,,,74,88
54726,note_on,6,0,3,,,,,,,,,2,,,62,0
54726,note_on,0,0,3,,,,,,,,,2,,,59,0
54750,note_on,30,0,1,,,,,,,,,0,,,74,0
54750,note_on,0,0,1,,,,,,,,,0,,,66,88
54780,note_on,0,0,1,,,,,,,,,0,,,71,88
54780,note_on,30,0,1,,,,,,,,,0,,,66,0
54780,note_on,54,0,3,,,,,,,,,2,,,47,75
54786,note_on,6,0,3,,,,,,,,,2,,,47,0
54810,note_on,30,0,1,,,,,,,,,0,,,71,0
54810,note_on,0,0,1,,,,,,,,,0,,,74,88
54840,note_on,0,0,3,,,,,,,,,2,,,59,75
54840,control_change,54,0,3,,,,,,,,,2,64,0,,
54840,note_on,30,0,1,,,,,,,,,0,,,74,0
54840,note_on,0,0,1,,,,,,,,,0,,,66,88
54840,note_on,0,0,3,,,,,,,,,2,,,62,75
54846,note_on,0,0,3,,,,,,,,,2,,,59,0
54846,note_on,6,0,3,,,,,,,,,2,,,62,0
54870,control_change,0,0,1,,,,,,,,,0,64,0,,
54870,note_on,30,0,1,,,,,,,,,0,,,66,0
54870,note_on,0,0,1,,,,,,,,,0,,,71,88
54900,control_change,0,0,1,,,,,,,,,0,64,127,,
54900,note_on,30,0,1,,,,,,,,,0,,,71,0
54900,control_change,54,0,3,,,,,,,,,2,64,127,,
54900,note_on,0,0,3,,,,,,,,,2,,,45,75
54900,note_on,0,0,1,,,,,,,,,0,,,74,88
54906,note_on,6,0,3,,,,,,,,,2,,,45,0
54930,note_on,30,0,1,,,,,,,,,0,,,74,0
54930,note_on,0,0,1,,,,,,,,,0,,,65,88
54960,note_on,54,0,3,,,,,,,,,2,,,57,75
54960,note_on,0,0,3,,,,,,,,,2,,,62,75
54960,note_on,0,0,3,,,,,,,,,2,,,59,75
54960,note_on,30,0,1,,,,,,,,,0,,,65,0
54960,note_on,0,0,1,,,,,,,,,0,,,71,88
54966,note_on,0,0,3,,,,,,,,,2,,,59,0
54966,note_on,6,0,3,,,,,,,,,2,,,62,0
54966,note_on,0,0,3,,,,,,,,,2,,,57,0
54990,note_on,30,0,1,,,,,,,,,0,,,71,0
54990,note_on,0,0,1,,,,,,,,,0,,,74,88
55020,note_on,54,0,3,,,,,,,,,2,,,45,75
55020,note_on,0,0,1,,,,,,,,,0,,,65,88
55020,note_on,30,0,1,,,,,,,,,0,,,74,0
55026,note_on,6,0,3,,,,,,,,,2,,,45,0
55050,note_on,30,0,1,,,,,,,,,0,,,65,0
55050,note_on,0,0,1,,,,,,,,,0,,,71,88
55080,note_on,0,0,1,,,,,,,,,0,,,74,101
55080,note_on,30,0,1,,,,,,,,,0,,,71,0
55080,note_on,54,0,3,,,,,,,,,2,,,57,88
55080,note_on,0,0,3,,,,,,,,,2,,,59,88
55080,note_on,0,0,3,,,,,,,,,2,,,62,88
55086,note_on,6,0,3,,,,,,,,,2,,,62,0
55086,note_on,0,0,3,,,,,,,,,2,,,57,0
55086,note_on,0,0,3,,,,,,,,,2,,,59,0
55110,note_on,30,0,1,,,,,,,,,0,,,74,0
55110,note_on,0,0,1,,,,,,,,,0,,,65,101
55140,note_on,30,0,1,,,,,,,,,0,,,65,0
55140,note_on,0,0,1,,,,,,,,,0,,,71,101
55140,note_on,54,0,3,,,,,,,,,2,,,45,88
55146,note_on,6,0,3,,,,,,,,,2,,,45,0
55170,note_on,30,0,1,,,,,,,,,0,,,71,0
55170,note_on,0,0,1,,,,,,,,,0,,,74,101
55200,note_on,0,0,1,,,,,,,,,0,,,65,101
55200,note_on,0,0,3,,,,,,,,,2,,,57,88
55200,control_change,54,0,3,,,,,,,,,2,64,0,,
55200,note_on,0,0,3,,,,,,,,,2,,,59,88
55200,note_on,0,0,3,,,,,,,,,2,,,62,88
55200,note_on,30,0,1,,,,,,,,,0,,,74,0
55206,note_on,6,0,3,,,,,,,,,2,,,62,0
55206,note_on,0,0,3,,,,,,,,,2,,,57,0
55206,note_on,0,0,3,,,,,,,,,2,,,59,0
55230,note_on,30,0,1,,,,,,,,,0,,,65,0
55230,control_change,0,0,1,,,,,,,,,0,64,0,,
55230,note_on,0,0,1,,,,,,,,,0,,,71,101
55260,note_on,30,0,1,,,,,,,,,0,,,71,0
55260,note_on,54,0,3,,,,,,,,,2,,,56,88
55260,note_on,0,0,1,,,,,,,,,0,,,64,101
55260,note_on,0,0,3,,,,,,,,,2,,,59,88
55260,note_on,0,0,3,,,,,,,,,2,,,62,88
55260,control_change,0,0,1,,,,,,,,,0,64,127,,
55290,note_on,0,0,1,,,,,,,,,0,,,68,101
55290,note_on,30,0,1,,,,,,,,,0,,,64,0
55320,note_on,30,0,1,,,,,,,,,0,,,68,0
55320,note_on,0,0,1,,,,,,,,,0,,,71,101
55350,note_on,0,0,1,,,,,,,,,0,,,76,101
55350,note_on,30,0,1,,,,,,,,,0,,,71,0
55380,note_on,120,0,3,,,,,,,,,2,,,62,0
55380,note_on,0,0,3,,,,,,,,,2,,,59,0
55380,note_on,30,0,1,,,,,,,,,0,,,76,0
55380,note_on,0,0,1,,,,,,,,,0,,,80,101
55380,note_on,0,0,3,,,,,,,,,2,,,56,0
55410,note_on,30,0,1,,,,,,,,,0,,,80,0
55410,note_on,0,0,1,,,,,,,,,0,,,83,101
55440,note_on,0,0,1,,,,,,,,,0,,,86,101
55440,note_on,30,0,1,,,,,,,,,0,,,83,0
55800,control_change,360,0,1,,,,,,,,,0,64,0,,
55980,note_on,180,0,1,,,,,,,,,0,,,86,0
55980,control_change,0,0,1,,,,,,,,,0,64,127,,
55980,note_on,0,0,1,,,,,,,,,0,,,85,49
55980,note_on,600,0,3,,,,,,,,,2,,,57,36
56040,note_on,0,0,3,,,,,,,,,2,,,64,36
56040,note_on,60,0,3,,,,,,,,,2,,,57,0
56100,note_on,0,0,1,,,,,,,,,0,,,83,49
56100,note_on,0,0,3,,,,,,,,,2,,,69,36
56100,note_on,60,0,3,,,,,,,,,2,,,64,0
56100,note_on,120,0,1,,,,,,,,,0,,,85,0
56145,note_on,45,0,1,,,,,,,,,0,,,83,49
56160,note_on,15,0,1,,,,,,,,,0,,,83,0
56160,note_on,0,0,1,,,,,,,,,0,,,83,0
56160,note_on,0,0,1,,,,,,,,,0,,,81,49
56160,note_on,0,0,3,,,,,,,,,2,,,61,36
56160,note_on,60,0,3,,,,,,,,,2,,,69,0
56220,note_on,60,0,1,,,,,,,,,0,,,81,0
56220,note_on,0,0,1,,,,,,,,,0,,,80,49
56220,note_on,0,0,3,,,,,,,,,2,,,64,36
56220,note_on,60,0,3,,,,,,,,,2,,,61,0
56280,note_on,60,0,3,,,,,,,,,2,,,64,0
56280,control_change,0,0,3,,,,,,,,,2,64,0,,
56280,note_on,0,0,3,,,,,,,,,2,,,69,36
56280,note_on,0,0,1,,,,,,,,,0,,,81,49
56280,note_on,60,0,1,,,,,,,,,0,,,80,0
56280,control_change,0,0,1,,,,,,,,,0,64,0,,
56340,control_change,0,0,1,,,,,,,,,0,64,127,,
56340,control_change,0,0,3,,,,,,,,,2,64,127,,
56340,note_on,0,0,3,,,,,,,,,2,,,62,36
56340,note_on,0,0,2,,,,,,,,,1,,,79,36
56340,note_on,60,0,1,,,,,,,,,0,,,81,0
56340,note_on,3780,0,2,,,,,,,,,1,,,76,36
56340,note_on,60,0,3,,,,,,,,,2,,,69,0
56340,note_on,0,0,1,,,,,,,,,0,,,82,49
56400,note_on,0,0,3,,,,,,,,,2,,,67,36
56400,note_on,60,0,3,,,,,,,,,2,,,62,0
56460,note_on,60,0,3,,,,,,,,,2,,,67,0
56460,note_on,0,0,1,,,,,,,,,0,,,85,49
56460,note_on,120,0,1,,,,,,,,,0,,,82,0
56460,note_on,0,0,3,,,,,,,,,2,,,70,36
56520,note_on,0,0,2,,,,,,,,,1,,,76,0
56520,note_on,0,0,2,,,,,,,,,1,,,78,36
56520,note_on,180,0,2,,,,,,,,,1,,,79,0
56520,note_on,60,0,1,,,,,,,,,0,,,85,0
56520,note_on,60,0,3,,,,,,,,,2,,,70,0
56520,note_on,0,0,3,,,,,,,,,2,,,62,36
56520,note_on,0,0,1,,,,,,,,,0,,,83,49
56580,note_on,0,0,3,,,,,,,,,2,,,66,36
56580,note_on,60,0,3,,,,,,,,,2,,,62,0
56640,control_change,0,0,3,,,,,,,,,2,64,0,,
56640,note_on,0,0,3,,,,,,,,,2,,,71,36
56640,note_on,60,0,3,,,,,,,,,2,,,66,0
56640,note_on,0,0,1,,,,,,,,,0,,,90,49
56640,control_change,0,0,1,,,,,,,,,0,64,0,,
56640,note_on,120,0,1,,,,,,,,,0,,,83,0
56685,note_on,45,0,1,,,,,,,,,0,,,83,49
56700,note_on,0,0,3,,,,,,,,,2,,,64,36
56700,control_change,0,0,3,,,,,,,,,2,64,127,,
56700,note_on,60,0,3,,,,,,,,,2,,,71,0
56700,note_on,180,0,2,,,,,,,,,1,,,78,0
56700,note_on,15,0,1,,,,,,,,,0,,,83,0
56700,control_change,0,0,1,,,,,,,,,0,64,127,,
56700,note_on,0,0,1,,,,,,,,,0,,,90,0
56700,note_on,0,0,1,,,,,,,,,0,,,81,49
56760,note_on,0,0,3,,,,,,,,,2,,,73,36
56760,note_on,60,0,3,,,,,,,,,2,,,64,0
56760,note_on,0,0,1,,,,,,,,,0,,,80,49
56760,note_on,60,0,1,,,,,,,,,0,,,81,0
56820,note_on,0,0,1,,,,,,,,,0,,,81,49
56820,note_on,60,0,3,,,,,,,,,2,,,73,0
56820,note_on,0,0,3,,,,,,,,,2,,,76,36
56820,note_on,60,0,1,,,,,,,,,0,,,80,0
56880,note_on,0,0,1,,,,,,,,,0,,,85,49
56880,note_on,60,0,1,,,,,,,,,0,,,81,0
56880,note_on,60,0,3,,,,,,,,,2,,,76,0
56880,note_on,0,0,3,,,,,,,,,2,,,64,36
56880,note_on,180,0,2,,,,,,,,,1,,,80,36
56940,note_on,0,0,3,,,,,,,,,2,,,74,36
56940,note_on,60,0,3,,,,,,,,,2,,,64,0
57000,control_change,0,0,3,,,,,,,,,2,64,0,,
57000,note_on,60,0,3,,,,,,,,,2,,,74,0
57000,note_on,0,0,1,,,,,,,,,0,,,83,49
57000,control_change,0,0,1,,,,,,,,,0,64,0,,
57000,note_on,120,0,1,,,,,,,,,0,,,85,0
57000,note_on,0,0,3,,,,,,,,,2,,,76,36
57060,note_on,0,0,1,,,,,,,,,0,,,69,114
57060,note_on,60,0,3,,,,,,,,,2,,,76,0
57060,control_change,0,0,3,,,,,,,,,2,64,127,,
57060,note_on,0,0,3,,,,,,,,,2,,,52,101
57060,note_on,180,0,2,,,,,,,,,1,,,80,0
57060,note_on,0,0,3,,,,,,,,,2,,,57,101
57060,control_change,0,0,1,,,,,,,,,0,64,127,,
57060,note_on,0,0,1,,,,,,,,,0,,,64,114
57060,note_on,0,0,3,,,,,,,,,2,,,45,101
57060,note_on,60,0,1,,,,,,,,,0,,,83,0
57060,note_on,0,0,1,,,,,,,,,0,,,61,114
57180,note_on,0,0,1,,,,,,,,,0,,,64,0
57180,note_on,0,0,1,,,,,,,,,0,,,69,114
57180,note_on,0,0,1,,,,,,,,,0,,,61,0
57180,note_on,120,0,1,,,,,,,,,0,,,69,0
57180,note_on,120,0,3,,,,,,,,,2,,,57,0
57180,note_on,0,0,3,,,,,,,,,2,,,52,0
57180,note_on,0,0,3,,,,,,,,,2,,,57,101
57180,note_on,0,0,3,,,,,,,,,2,,,45,0
57180,note_on,0,0,3,,,,,,,,,2,,,61,101
57186,note_on,6,0,3,,,,,,,,,2,,,61,0
57186,note_on,0,0,3,,,,,,,,,2,,,57,0
57210,note_on,30,0,1,,,,,,,,,0,,,69,0
57210,note_on,0,0,1,,,,,,,,,0,,,73,114
57240,note_on,30,0,1,,,,,,,,,0,,,73,0
57240,note_on,54,0,3,,,,,,,,,2,,,59,101
57240,note_on,0,0,3,,,,,,,,,2,,,62,101
57240,note_on,0,0,1,,,,,,,,,0,,,71,114
57246,note_on,0,0,3,,,,,,,,,2,,,59,0
57246,note_on,6,0,3,,,,,,,,,2,,,62,0
57270,note_on,0,0,1,,,,,,,,,0,,,74,114
57270,note_on,30,0,1,,,,,,,,,0,,,71,0
57300,note_on,30,0,1,,,,,,,,,0,,,74,0
57300,note_on,0,0,1,,,,,,,,,0,,,73,114
57300,note_on,0,0,3,,,,,,,,,2,,,64,101
57300,note_on,54,0,3,,,,,,,,,2,,,61,101
57306,note_on,0,0,3,,,,,,,,,2,,,61,0
57306,note_on,6,0,3,,,,,,,,,2,,,64,0
57330,note_on,30,0,1,,,,,,,,,0,,,73,0
57330,note_on,0,0,1,,,,,,,,,0,,,76,114
57360,note_on,0,0,3,,,,,,,,,2,,,66,101
57360,note_on,0,0,3,,,,,,,,,2,,,62,101
57360,control_change,54,0,3,,,,,,,,,2,64,0,,
57360,note_on,0,0,1,,,,,,,,,0,,,74,114
57360,note_on,30,0,1,,,,,,,,,0,,,76,0
57366,note_on,0,0,3,,,,,,,,,2,,,62,0
57366,note_on,6,0,3,,,,,,,,,2,,,66,0
57390,control_change,0,0,1,,,,,,,,,0,64,0,,
57390,note_on,30,0,1,,,,,,,,,0,,,74,0
57390,note_on,0,0,1,,,,,,,,,0,,,78,114
57420,note_on,0,0,3,,,,,,,,,2,,,52,101
57420,control_change,54,0,3,,,,,,,,,2,64,127,,
57420,note_on,0,0,1,,,,,,,,,0,,,74,114
57420,note_on,0,0,1,,,,,,,,,0,,,71,114
57420,note_on,0,0,1,,,,,,,,,0,,,68,114
57420,note_on,30,0,1,,,,,,,,,0,,,78,0
57420,note_on,0,0,3,,,,,,,,,2,,,59,101
57420,note_on,0,0,1,,,,,,,,,0,,,76,114
57420,note_on,0,0,3,,,,,,,,,2,,,64,101
57420,control_change,0,0,1,,,,,,,,,0,64,127,,
57540,note_on,120,0,1,,,,,,,,,0,,,76,0
57540,note_on,0,0,1,,,,,,,,,0,,,71,0
57540,note_on,0,0,3,,,,,,,,,2,,,68,101
57540,note_on,3540,0,4,,,,,,,,,3,,,64,36
57540,note_on,0,0,1,,,,,,,,,0,,,74,0
57540,note_on,0,0,1,,,,,,,,,0,,,86,114
57540,note_on,0,0,3,,,,,,,,,2,,,52,0
57540,note_on,0,0,3,,,,,,,,,2,,,59,0
57540,note_on,0,0,1,,,,,,,,,0,,,68,0
57540,note_on,120,0,3,,,,,,,,,2,,,64,0
57570,note_on,30,0,1,,,,,,,,,0,,,86,0
57570,note_on,0,0,1,,,,,,,,,0,,,76,114
57600,note_on,30,0,1,,,,,,,,,0,,,76,0
57600,note_on,60,0,3,,,,,,,,,2,,,68,0
57600,note_on,0,0,1,,,,,,,,,0,,,83,114
57600,note_on,0,0,3,,,,,,,,,2,,,71,101
57630,note_on,0,0,1,,,,,,,,,0,,,76,114
57630,note_on,30,0,1,,,,,,,,,0,,,83,0
57660,note_on,0,0,3,,,,,,,,,2,,,73,101
57660,note_on,60,0,3,,,,,,,,,2,,,71,0
57660,note_on,0,0,1,,,,,,,,,0,,,81,114
57660,note_on,30,0,1,,,,,,,,,0,,,76,0
57690,note_on,0,0,1,,,,,,,,,0,,,76,114
57690,note_on,30,0,1,,,,,,,,,0,,,81,0
57720,note_on,60,0,3,,,,,,,,,2,,,73,0
57720,note_on,30,0,1,,,,,,,,,0,,,76,0
57720,note_on,0,0,1,,,,,,,,,0,,,80,114
57720,note_on,0,0,3,,,,,,,,,2,,,74,101
57720,control_change,0,0,3,,,,,,,,,2,64,0,,
57750,note_on,30,0,1,,,,,,,,,0,,,80,0
57750,control_change,0,0,1,,,,,,,,,0,64,0,,
57750,note_on,0,0,1,,,,,,,,,0,,,76,114
57780,note_on,0,0,3,,,,,,,,,2,,,45,101
57780,note_on,240,0,4,,,,,,,,,3,,,64,0
57780,note_on,0,0,3,,,,,,,,,2,,,52,101
57780,note_on,0,0,1,,,,,,,,,0,,,81,114
57780,note_on,0,0,1,,,,,,,,,0,,,73,114
57780,note_on,0,0,1,,,,,,,,,0,,,69,114
57780,note_on,0,0,1,,,,,,,,,0,,,76,114
57780,note_on,30,0,1,,,,,,,,,0,,,76,0
57780,control_change,0,0,3,,,,,,,,,2,64,127,,
57780,note_on,0,0,3,,,,,,,,,2,,,57,101
57780,note_on,60,0,3,,,,,,,,,2,,,74,0
57780,control_change,0,0,1,,,,,,,,,0,64,127,,
57900,note_on,0,0,3,,,,,,,,,2,,,61,101
57900,note_on,0,0,3,,,,,,,,,2,,,57,101
57900,note_on,0,0,3,,,,,,,,,2,,,45,0
57900,note_on,0,0,3,,,,,,,,,2,,,52,0
57900,note_on,0,0,1,,,,,,,,,0,,,73,0
57900,note_on,0,0,1,,,,,,,,,0,,,69,114
57900,note_on,0,0,1,,,,,,,,,0,,,76,0
57900,note_on,0,0,1,,,,,,,,,0,,,69,0
57900,note_on,120,0,1,,,,,,,,,0,,,81,0
57900,note_on,120,0,3,,,,,,,,,2,,,57,0
57906,note_on,6,0,3,,,,,,,,,2,,,61,0
57906,note_on,0,0,3,,,,,,,,,2,,,57,0
57930,note_on,0,0,1,,,,,,,,,0,,,73,114
57930,note_on,30,0,1,,,,,,,,,0,,,69,0
57960,note_on,0,0,1,,,,,,,,,0,,,71,114
57960,note_on,54,0,3,,,,,,,,,2,,,59,101
57960,note_on,0,0,3,,,,,,,,,2,,,62,101
57960,note_on,30,0,1,,,,,,,,,0,,,73,0
57966,note_on,0,0,3,,,,,,,,,2,,,59,0
57966,note_on,6,0,3,,,,,,,,,2,,,62,0
57990,note_on,30,0,1,,,,,,,,,0,,,71,0
57990,note_on,0,0,1,,,,,,,,,0,,,74,114
58020,note_on,54,0,3,,,,,,,,,2,,,61,101
58020,note_on,0,0,1,,,,,,,,,0,,,73,114
58020,note_on,0,0,3,,,,,,,,,2,,,64,101
58020,note_on,30,0,1,,,,,,,,,0,,,74,0
58026,note_on,6,0,3,,,,,,,,,2,,,64,0
58026,note_on,0,0,3,,,,,,,,,2,,,61,0
58050,note_on,0,0,1,,,,,,,,,0,,,76,114
58050,note_on,30,0,1,,,,,,,,,0,,,73,0
58080,note_on,0,0,3,,,,,,,,,2,,,66,101
58080,note_on,0,0,3,,,,,,,,,2,,,62,101
58080,note_on,0,0,1,,,,,,,,,0,,,74,114
58080,note_on,30,0,1,,,,,,,,,0,,,76,0
58080,control_change,54,0,3,,,,,,,,,2,64,0,,
58086,note_on,0,0,3,,,,,,,,,2,,,62,0
58086,note_on,6,0,3,,,,,,,,,2,,,66,0
58110,note_on,30,0,1,,,,,,,,,0,,,74,0
58110,control_change,0,0,1,,,,,,,,,0,64,0,,
58110,note_on,0,0,1,,,,,,,,,0,,,78,114
58140,control_change,54,0,3,,,,,,,,,2,64,127,,
58140,note_on,0,0,3,,,,,,,,,2,,,59,101
58140,note_on,0,0,3,,,,,,,,,2,,,64,101
58140,note_on,0,0,1,,,,,,,,,0,,,68,114
58140,note_on,0,0,3,,,,,,,,,2,,,52,101
58140,control_change,0,0,1,,,,,,,,,0,64,127,,
58140,note_on,0,0,1,,,,,,,,,0,,,76,114
58140,note_on,0,0,1,,,,,,,,,0,,,74,114
58140,note_on,0,0,1,,,,,,,,,0,,,71,114
58140,note_on,30,0,1,,,,,,,,,0,,,78,0
58260,note_on,120,0,3,,,,,,,,,2,,,64,0
58260,note_on,0,0,3,,,,,,,,,2,,,59,0
58260,note_on,0,0,3,,,,,,,,,2,,,52,0
58260,note_on,0,0,3,,,,,,,,,2,,,68,101
58260,note_on,0,0,1,,,,,,,,,0,,,68,0
58260,note_on,480,0,4,,,,,,,,,3,,,64,36
58260,note_on,120,0,1,,,,,,,,,0,,,76,0
58260,note_on,0,0,1,,,,,,,,,0,,,71,0
58260,note_on,0,0,1,,,,,,,,,0,,,74,0
58260,note_on,0,0,1,,,,,,,,,0,,,86,114
58290,note_on,30,0,1,,,,,,,,,0,,,86,0
58290,note_on,0,0,1,,,,,,,,,0,,,76,114
58320,note_on,60,0,3,,,,,,,,,2,,,68,0
58320,note_on,0,0,3,,,,,,,,,2,,,71,101
58320,note_on,30,0,1,,,,,,,,,0,,,76,0
58320,note_on,0,0,1,,,,,,,,,0,,,83,114
58350,note_on,30,0,1,,,,,,,,,0,,,83,0
58350,note_on,0,0,1,,,,,,,,,0,,,76,114
58380,note_on,30,0,1,,,,,,,,,0,,,76,0
58380,note_on,0,0,3,,,,,,,,,2,,,73,101
58380,note_on,60,0,3,,,,,,,,,2,,,71,0
58380,note_on,0,0,1,,,,,,,,,0,,,81,114
58410,note_on,0,0,1,,,,,,,,,0,,,76,114
58410,note_on,30,0,1,,,,,,,,,0,,,81,0
58440,note_on,60,0,3,,,,,,,,,2,,,73,0
58440,note_on,0,0,3,,,,,,,,,2,,,74,101
58440,note_on,30,0,1,,,,,,,,,0,,,76,0
58440,note_on,0,0,1,,,,,,,,,0,,,80,114
58470,note_on,0,0,1,,,,,,,,,0,,,76,114
58470,note_on,30,0,1,,,,,,,,,0,,,80,0
58500,control_change,0,0,3,,,,,,,,,2,64,0,,
58500,note_on,0,0,3,,,,,,,,,2,,,69,88
58500,note_on,0,0,1,,,,,,,,,0,,,85,101
58500,note_on,30,0,1,,,,,,,,,0,,,76,0
58500,note_on,0,0,3,,,,,,,,,2,,,57,88
58500,note_on,240,0,4,,,,,,,,,3,,,64,0
58500,note_on,60,0,3,,,,,,,,,2,,,74,0
58530,note_on,0,0,1,,,,,,,,,0,,,76,101
58530,control_change,0,0,1,,,,,,,,,0,64,0,,
58530,note_on,30,0,1,,,,,,,,,0,,,85,0
58560,control_change,0,0,1,,,,,,,,,0,64,127,,
58560,note_on,30,0,1,,,,,,,,,0,,,76,0
58560,note_on,60,0,3,,,,,,,,,2,,,69,0
58560,note_on,0,0,3,,,,,,,,,2,,,68,114
58560,note_on,0,0,3,,,,,,,,,2,,,61,106
58560,note_on,0,0,1,,,,,,,,,0,,,77,127
58560,note_on,0,0,3,,,,,,,,,2,,,57,0
58590,note_on,0,0,1,,,,,,,,,0,,,83,101
58590,note_on,30,0,1,,,,,,,,,0,,,77,0
58620,note_on,0,0,1,,,,,,,,,0,,,80,101
58620,note_on,30,0,1,,,,,,,,,0,,,83,0
58650,note_on,0,0,1,,,,,,,,,0,,,77,101
58650,note_on,30,0,1,,,,,,,,,0,,,80,0
58680,note_on,0,0,3,,,,,,,,,2,,,61,0
58680,note_on,120,0,3,,,,,,,,,2,,,68,0
58680,note_on,0,0,3,,,,,,,,,2,,,54,75
58680,note_on,0,0,3,,,,,,,,,2,,,66,75
58680,note_on,0,0,1,,,,,,,,,0,,,81,88
58680,note_on,30,0,1,,,,,,,,,0,,,77,0
58710,note_on,30,0,1,,,,,,,,,0,,,81,0
58710,note_on,0,0,1,,,,,,,,,0,,,69,88
58710,control_change,0,0,1,,,,,,,,,0,64,0,,
58740,note_on,60,0,3,,,,,,,,,2,,,66,0
58740,note_on,0,0,3,,,,,,,,,2,,,54,0
58740,note_on,0,0,3,,,,,,,,,2,,,57,93
58740,note_on,0,0,1,,,,,,,,,0,,,73,114
58740,control_change,0,0,1,,,,,,,,,0,64,127,,
58740,note_on,30,0,1,,,,,,,,,0,,,69,0
58740,note_on,0,0,3,,,,,,,,,2,,,64,101
58770,note_on,0,0,1,,,,,,,,,0,,,79,88
58770,note_on,30,0,1,,,,,,,,,0,,,73,0
58800,note_on,0,0,1,,,,,,,,,0,,,76,88
58800,note_on,30,0,1,,,,,,,,,0,,,79,0
58830,note_on,30,0,1,,,,,,,,,0,,,76,0
58830,note_on,0,0,1,,,,,,,,,0,,,73,88
58860,note_on,0,0,3,,,,,,,,,2,,,50,62
58860,note_on,0,0,3,,,,,,,,,2,,,57,0
58860,note_on,120,0,3,,,,,,,,,2,,,64,0
58860,note_on,30,0,1,,,,,,,,,0,,,73,0
58860,note_on,0,0,3,,,,,,,,,2,,,62,62
58860,note_on,0,0,1,,,,,,,,,0,,,78,75
58890,note_on,0,0,1,,,,,,,,,0,,,69,75
58890,control_change,0,0,1,,,,,,,,,0,64,0,,
58890,note_on,30,0,1,,,,,,,,,0,,,78,0
58920,note_on,0,0,3,,,,,,,,,2,,,50,0
58920,note_on,0,0,3,,,,,,,,,2,,,54,80
58920,note_on,0,0,3,,,,,,,,,2,,,61,88
58920,note_on,0,0,1,,,,,,,,,0,,,70,101
58920,control_change,0,0,1,,,,,,,,,0,64,127,,
58920,note_on,60,0,3,,,,,,,,,2,,,62,0
58920,note_on,30,0,1,,,,,,,,,0,,,69,0
58950,note_on,0,0,1,,,,,,,,,0,,,76,75
58950,note_on,30,0,1,,,,,,,,,0,,,70,0
58980,note_on,0,0,1,,,,,,,,,0,,,73,75
58980,note_on,30,0,1,,,,,,,,,0,,,76,0
59010,control_change,0,0,1,,,,,,,,,0,64,0,,
59010,note_on,0,0,1,,,,,,,,,0,,,70,75
59010,note_on,30,0,1,,,,,,,,,0,,,73,0
59040,note_on,0,0,1,,,,,,,,,0,,,74,75
59040,note_on,0,0,3,,,,,,,,,2,,,47,62
59040,note_on,30,0,1,,,,,,,,,0,,,70,0
59040,control_change,0,0,1,,,,,,,,,0,64,127,,
59040,control_change,0,0,3,,,,,,,,,2,64,127,,
59040,note_on,0,0,3,,,,,,,,,2,,,54,0
59040,note_on,120,0,3,,,,,,,,,2,,,61,0
59046,note_on,6,0,3,,,,,,,,,2,,,47,0
59070,note_on,30,0,1,,,,,,,,,0,,,74,0
59070,note_on,0,0,1,,,,,,,,,0,,,66,75
59100,note_on,54,0,3,,,,,,,,,2,,,59,62
59100,note_on,30,0,1,,,,,,,,,0,,,66,0
59100,note_on,0,0,1,,,,,,,,,0,,,71,75
59100,note_on,0,0,3,,,,,,,,,2,,,62,62
59106,note_on,6,0,3,,,,,,,,,2,,,62,0
59106,note_on,0,0,3,,,,,,,,,2,,,59,0
59130,note_on,0,0,1,,,,,,,,,0,,,74,75
59130,note_on,30,0,1,,,,,,,,,0,,,71,0
59160,note_on,0,0,1,,,,,,,,,0,,,66,75
59160,note_on,30,0,1,,,,,,,,,0,,,74,0
59160,note_on,54,0,3,,,,,,,,,2,,,47,62
59166,note_on,6,0,3,,,,,,,,,2,,,47,0
59190,note_on,0,0,1,,,,,,,,,0,,,71,75
59190,note_on,30,0,1,,,,,,,,,0,,,66,0
59220,note_on,0,0,3,,,,,,,,,2,,,62,75
59220,note_on,54,0,3,,,,,,,,,2,,,59,75
59220,note_on,0,0,1,,,,,,,,,0,,,74,88
59220,note_on,30,0,1,,,,,,,,,0,,,71,0
59226,note_on,6,0,3,,,,,,,,,2,,,62,0
59226,note_on,0,0,3,,,,,,,,,2,,,59,0
59250,note_on,0,0,1,,,,,,,,,0,,,66,88
59250,note_on,30,0,1,,,,,,,,,0,,,74,0
59280,note_on,0,0,1,,,,,,,,,0,,,71,88
59280,note_on,30,0,1,,,,,,,,,0,,,66,0
59280,note_on,54,0,3,,,,,,,,,2,,,47,75
59286,note_on,6,0,3,,,,,,,,,2,,,47,0
59310,note_on,30,0,1,,,,,,,,,0,,,71,0
59310,note_on,0,0,1,,,,,,,,,0,,,74,88
59340,note_on,0,0,3,,,,,,,,,2,,,62,75
59340,note_on,30,0,1,,,,,,,,,0,,,74,0
59340,note_on,0,0,1,,,,,,,,,0,,,66,88
59340,note_on,0,0,3,,,,,,,,,2,,,59,75
59340,control_change,54,0,3,,,,,,,,,2,64,0,,
59346,note_on,6,0,3,,,,,,,,,2,,,62,0
59346,note_on,0,0,3,,,,,,,,,2,,,59,0
59370,control_change,0,0,1,,,,,,,,,0,64,0,,
59370,note_on,30,0,1,,,,,,,,,0,,,66,0
59370,note_on,0,0,1,,,,,,,,,0,,,71,88
59400,note_on,30,0,1,,,,,,,,,0,,,71,0
59400,note_on,0,0,1,,,,,,,,,0,,,74,88
59400,note_on,0,0,3,,,,,,,,,2,,,45,75
59400,control_change,54,0,3,,,,,,,,,2,64,127,,
59400,control_change,0,0,1,,,,,,,,,0,64,127,,
59406,note_on,6,0,3,,,,,,,,,2,,,45,0
59430,note_on,30,0,1,,,,,,,,,0,,,74,0
59430,note_on,0,0,1,,,,,,,,,0,,,65,88
59460,note_on,0,0,3,,,,,,,,,2,,,59,75
59460,note_on,0,0,3,,,,,,,,,2,,,62,75
59460,note_on,30,0,1,,,,,,,,,0,,,65,0
59460,note_on,0,0,1,,,,,,,,,0,,,71,88
59460,note_on,54,0,3,,,,,,,,,2,,,57,75
59466,note_on,6,0,3,,,,,,,,,2,,,62,0
59466,note_on,0,0,3,,,,,,,,,2,,,59,0
59466,note_on,0,0,3,,,,,,,,,2,,,57,0
59490,note_on,0,0,1,,,,,,,,,0,,,74,88
59490,note_on,30,0,1,,,,,,,,,0,,,71,0
59520,note_on,30,0,1,,,,,,,,,0,,,74,0
59520,note_on,0,0,1,,,,,,,,,0,,,65,88
59520,note_on,54,0,3,,,,,,,,,2,,,45,75
59526,note_on,6,0,3,,,,,,,,,2,,,45,0
59550,note_on,0,0,1,,,,,,,,,0,,,71,88
59550,note_on,30,0,1,,,,,,,,,0,,,65,0
59580,note_on,0,0,1,,,,,,,,,0,,,74,101
59580,note_on,30,0,1,,,,,,,,,0,,,71,0
59580,note_on,54,0,3,,,,,,,,,2,,,57,88
59580,note_on,0,0,3,,,,,,,,,2,,,59,88
59580,note_on,0,0,3,,,,,,,,,2,,,62,88
59586,note_on,0,0,3,,,,,,,,,2,,,57,0
59586,note_on,6,0,3,,,,,,,,,2,,,62,0
59586,note_on,0,0,3,,,,,,,,,2,,,59,0
59610,note_on,0,0,1,,,,,,,,,0,,,65,101
59610,note_on,30,0,1,,,,,,,,,0,,,74,0
59640,note_on,0,0,1,,,,,,,,,0,,,71,101
59640,note_on,30,0,1,,,,,,,,,0,,,65,0
59640,note_on,54,0,3,,,,,,,,,2,,,45,88
59646,note_on,6,0,3,,,,,,,,,2,,,45,0
59670,note_on,0,0,1,,,,,,,,,0,,,74,101
59670,note_on,30,0,1,,,,,,,,,0,,,71,0
59700,note_on,30,0,1,,,,,,,,,0,,,74,0
59700,note_on,0,0,1,,,,,,,,,0,,,65,101
59700,note_on,0,0,3,,,,,,,,,2,,,62,88
59700,note_on,0,0,3,,,,,,,,,2,,,59,88
59700,note_on,0,0,3,,,,,,,,,2,,,57,88
59700,control_change,54,0,3,,,,,,,,,2,64,0,,
59706,note_on,0,0,3,,,,,,,,,2,,,59,0
59706,note_on,6,0,3,,,,,,,,,2,,,62,0
59706,note_on,0,0,3,,,,,,,,,2,,,57,0
59730,note_on,30,0,1,,,,,,,,,0,,,65,0
59730,note_on,0,0,1,,,,,,,,,0,,,71,101
59730,control_change,0,0,1,,,,,,,,,0,64,0,,
59760,control_change,0,0,1,,,,,,,,,0,64,127,,
59760,note_on,0,0,1,,,,,,,,,0,,,64,101
59760,note_on,30,0,1,,,,,,,,,0,,,71,0
59760,note_on,54,0,3,,,,,,,,,2,,,56,88
59760,note_on,0,0,3,,,,,,,,,2,,,62,88
59760,note_on,0,0,3,,,,,,,,,2,,,59,88
59790,note_on,30,0,1,,,,,,,,,0,,,64,0
59790,note_on,0,0,1,,,,,,,,,0,,,68,101
59820,note_on,30,0,1,,,,,,,,,0,,,68,0
59820,note_on,0,0,1,,,,,,,,,0,,,71,101
59850,note_on,30,0,1,,,,,,,,,0,,,71,0
59850,note_on,0,0,1,,,,,,,,,0,,,76,101
59880,note_on,0,0,1,,,,,,,,,0,,,80,101
59880,note_on,0,0,3,,,,,,,,,2,,,56,0
59880,note_on,30,0,1,,,,,,,,,0,,,76,0
59880,note_on,0,0,3,,,,,,,,,2,,,59,0
59880,note_on,120,0,3,,,,,,,,,2,,,62,0
59910,note_on,30,0,1,,,,,,,,,0,,,80,0
59910,note_on,0,0,1,,,,,,,,,0,,,83,101
59940,note_on,30,0,1,,,,,,,,,0,,,83,0
59940,note_on,0,0,1,,,,,,,,,0,,,86,101
60300,control_change,360,0,1,,,,,,,,,0,64,0,,
60480,control_change,0,0,1,,,,,,,,,0,64,127,,
60480,note_on,180,0,1,,,,,,,,,0,,,86,0
60480,note_on,600,0,3,,,,,,,,,2,,,57,36
60480,note_on,0,0,1,,,,,,,,,0,,,85,49
60540,note_on,60,0,3,,,,,,,,,2,,,57,0
60540,note_on,0,0,3,,,,,,,,,2,,,64,36
60600,note_on,0,0,1,,,,,,,,,0,,,83,49
60600,note_on,120,0,1,,,,,,,,,0,,,85,0
60600,note_on,60,0,3,,,,,,,,,2,,,64,0
60600,note_on,0,0,3,,,,,,,,,2,,,69,36
60645,note_on,45,0,1,,,,,,,,,0,,,83,49
60660,note_on,15,0,1,,,,,,,,,0,,,83,0
60660,note_on,0,0,3,,,,,,,,,2,,,61,36
60660,note_on,60,0,3,,,,,,,,,2,,,69,0
60660,note_on,0,0,1,,,,,,,,,0,,,81,49
60660,note_on,0,0,1,,,,,,,,,0,,,83,0
60720,note_on,60,0,3,,,,,,,,,2,,,61,0
60720,note_on,0,0,3,,,,,,,,,2,,,64,36
60720,note_on,0,0,1,,,,,,,,,0,,,80,49
60720,note_on,60,0,1,,,,,,,,,0,,,81,0
60780,note_on,60,0,1,,,,,,,,,0,,,80,0
60780,control_change,0,0,3,,,,,,,,,2,64,0,,
60780,note_on,60,0,3,,,,,,,,,2,,,64,0
60780,control_change,0,0,1,,,,,,,,,0,64,0,,
60780,note_on,0,0,1,,,,,,,,,0,,,81,49
60780,note_on,0,0,3,,,,,,,,,2,,,69,36
60840,note_on,60,0,1,,,,,,,,,0,,,81,0
60840,note_on,0,0,1,,,,,,,,,0,,,82,49
60840,control_change,0,0,1,,,,,,,,,0,64,127,,
60840,note_on,0,0,3,,,,,,,,,2,,,62,36
60840,control_change,0,0,3,,,,,,,,,2,64,127,,
60840,note_on,60,0,3,,,,,,,,,2,,,69,0
60840,note_on,3780,0,2,,,,,,,,,1,,,76,36
60840,note_on,0,0,2,,,,,,,,,1,,,79,36
60900,note_on,0,0,3,,,,,,,,,2,,,67,36
60900,note_on,60,0,3,,,,,,,,,2,,,62,0
60960,note_on,0,0,3,,,,,,,,,2,,,70,36
60960,note_on,0,0,1,,,,,,,,,0,,,85,49
60960,note_on,120,0,1,,,,,,,,,0,,,82,0
60960,note_on,60,0,3,,,,,,,,,2,,,67,0
61020,note_on,60,0,3,,,,,,,,,2,,,70,0
61020,note_on,0,0,3,,,,,,,,,2,,,62,36
61020,note_on,60,0,1,,,,,,,,,0,,,85,0
61020,note_on,0,0,1,,,,,,,,,0,,,83,49
61020,note_on,0,0,2,,,,,,,,,1,,,78,36
61020,note_on,0,0,2,,,,,,,,,1,,,76,0
61020,note_on,180,0,2,,,,,,,,,1,,,79,0
61080,note_on,60,0,3,,,,,,,,,2,,,62,0
61080,note_on,0,0,3,,,,,,,,,2,,,66,36
61140,note_on,0,0,1,,,,,,,,,0,,,90,49
61140,control_change,0,0,1,,,,,,,,,0,64,0,,
61140,note_on,120,0,1,,,,,,,,,0,,,83,0
61140,note_on,60,0,3,,,,,,,,,2,,,66,0
61140,control_change,0,0,3,,,,,,,,,2,64,0,,
61140,note_on,0,0,3,,,,,,,,,2,,,71,36
61185,note_on,45,0,1,,,,,,,,,0,,,83,49
61200,note_on,0,0,3,,,,,,,,,2,,,64,36
61200,note_on,0,0,1,,,,,,,,,0,,,81,49
61200,control_change,0,0,1,,,,,,,,,0,64,127,,
61200,note_on,15,0,1,,,,,,,,,0,,,83,0
61200,note_on,0,0,1,,,,,,,,,0,,,90,0
61200,control_change,0,0,3,,,,,,,,,2,64,127,,
61200,note_on,60,0,3,,,,,,,,,2,,,71,0
61200,note_on,180,0,2,,,,,,,,,1,,,78,0
61260,note_on,0,0,1,,,,,,,,,0,,,80,49
61260,note_on,60,0,1,,,,,,,,,0,,,81,0
61260,note_on,60,0,3,,,,,,,,,2,,,64,0
61260,note_on,0,0,3,,,,,,,,,2,,,73,36
61320,note_on,60,0,3,,,,,,,,,2,,,73,0
61320,note_on,0,0,3,,,,,,,,,2,,,76,36
61320,note_on,0,0,1,,,,,,,,,0,,,81,49
61320,note_on,60,0,1,,,,,,,,,0,,,80,0
61380,note_on,60,0,3,,,,,,,,,2,,,76,0
61380,note_on,0,0,3,,,,,,,,,2,,,64,36
61380,note_on,180,0,2,,,,,,,,,1,,,80,36
61380,note_on,60,0,1,,,,,,,,,0,,,81,0
61380,note_on,0,0,1,,,,,,,,,0,,,85,49
61440,note_on,0,0,3,,,,,,,,,2,,,74,36
61440,note_on,60,0,3,,,,,,,,,2,,,64,0
61500,note_on,0,0,3,,,,,,,,,2,,,76,36
61500,control_change,0,0,3,,,,,,,,,2,64,0,,
61500,note_on,60,0,3,,,,,,,,,2,,,74,0
61500,note_on,120,0,1,,,,,,,,,0,,,85,0
61500,control_change,0,0,1,,,,,,,,,0,64,0,,
61500,note_on,0,0,1,,,,,,,,,0,,,83,49
61560,note_on,60,0,1,,,,,,,,,0,,,83,0
61560,note_on,180,0,2,,,,,,,,,1,,,80,0
61560,note_on,0,0,2,,,,,,,,,1,,,80,36
61560,note_on,60,0,3,,,,,,,,,2,,,76,0
61560,note_on,0,0,1,,,,,,,,,0,,,85,36
61560,note_on,0,0,3,,,,,,,,,2,,,64,36
61620,note_on,60,0,3,,,,,,,,,2,,,64,0
61620,set_tempo,11940,1,0,,,,,,465116,,,,,,,
61620,note_on,0,0,3,,,,,,,,,2,,,74,36
61680,set_tempo,60,1,0,,,,,,476190,,,,,,,
61680,note_on,120,0,1,,,,,,,,,0,,,85,0
61680,control_change,0,0,1,,,,,,,,,0,64,0,,
61680,note_on,0,0,1,,,,,,,,,0,,,83,36
61680,note_on,60,0,3,,,,,,,,,2,,,74,0
61680,control_change,0,0,3,,,,,,,,,2,64,0,,
61680,note_on,0,0,3,,,,,,,,,2,,,76,36
61740,note_on,0,0,3,,,,,,,,,2,,,64,36
61740,note_on,60,0,3,,,,,,,,,2,,,76,0
61740,note_on,0,0,1,,,,,,,,,0,,,85,36
61740,note_on,60,0,1,,,,,,,,,0,,,83,0
61740,note_on,180,0,2,,,,,,,,,1,,,80,0
61740,set_tempo,60,1,0,,,,,,487805,,,,,,,
61740,note_on,0,0,2,,,,,,,,,1,,,80,36
61800,note_on,60,0,3,,,,,,,,,2,,,64,0
61800,note_on,0,0,3,,,,,,,,,2,,,74,36
61800,set_tempo,60,1,0,,,,,,504202,,,,,,,
61860,control_change,0,0,1,,,,,,,,,0,64,0,,
61860,note_on,0,0,1,,,,,,,,,0,,,83,36
61860,set_tempo,60,1,0,,,,,,517241,,,,,,,
61860,note_on,0,0,3,,,,,,,,,2,,,76,36
61860,note_on,120,0,1,,,,,,,,,0,,,85,0
61860,control_change,0,0,3,,,,,,,,,2,64,0,,
61860,note_on,60,0,3,,,,,,,,,2,,,74,0
61920,note_on,180,0,2,,,,,,,,,1,,,80,0
61920,time_signature,60,1,0,6,8,12,8,,,,,,,,,
61920,set_tempo,0,1,0,,,,,,530973,,,,,,,
61920,note_on,60,0,1,,,,,,,,,0,,,83,0
61920,note_on,60,0,3,,,,,,,,,2,,,76,0
61980,set_tempo,60,1,0,,,,,,545455,,,,,,,
62040,set_tempo,60,1,0,,,,,,566038,,,,,,,
62280,control_change,360,0,3,,,,,,,,,2,64,127,,
62280,note_on,0,0,3,,,,,,,,,2,,,45,75
62280,time_signature,240,1,0,3,8,12,8,,,,,,,,,
62280,set_tempo,0,1,0,,,,,,454545,,,,,,,
62280,key_signature,0,1,0,,,,,C,,,,,,,,
62280,control_change,360,0,1,,,,,,,,,0,64,127,,
62280,note_on,0,0,1,,,,,,,,,0,,,57,88
62370,note_on,0,0,3,,,,,,,,,2,,,47,75
62370,note_on,90,0,3,,,,,,,,,2,,,45,0
62370,note_on,90,0,1,,,,,,,,,0,,,57,0
62370,note_on,0,0,1,,,,,,,,,0,,,59,88
62400,note_on,30,0,1,,,,,,,,,0,,,59,0
62400,note_on,30,0,3,,,,,,,,,2,,,47,0
62400,note_on,0,0,3,,,,,,,,,2,,,48,75
62400,note_on,0,0,1,,,,,,,,,0,,,60,88
62430,note_on,30,0,3,,,,,,,,,2,,,48,0
62430,note_on,30,0,1,,,,,,,,,0,,,60,0
62430,note_on,0,0,1,,,,,,,,,0,,,62,88
62430,note_on,0,0,3,,,,,,,,,2,,,50,75
62460,note_on,30,0,3,,,,,,,,,2,,,50,0
62460,note_on,30,0,1,,,,,,,,,0,,,62,0
62460,note_on,0,0,3,,,,,,,,,2,,,52,75
62460,note_on,0,0,1,,,,,,,,,0,,,64,88
62580,note_on,120,0,3,,,,,,,,,2,,,52,0
62580,note_on,0,0,3,,,,,,,,,2,,,54,75
62580,note_on,0,0,1,,,,,,,,,0,,,66,88
62580,note_on,120,0,1,,,,,,,,,0,,,64,0
62610,note_on,0,0,1,,,,,,,,,0,,,68,88
62610,note_on,30,0,1,,,,,,,,,0,,,66,0
62610,control_change,0,0,1,,,,,,,,,0,64,0,,
62610,note_on,0,0,3,,,,,,,,,2,,,56,75
62610,control_change,0,0,3,,,,,,,,,2,64,0,,
62610,note_on,30,0,3,,,,,,,,,2,,,54,0
62640,note_on,0,0,3,,,,,,,,,2,,,57,75
62640,note_on,30,0,1,,,,,,,,,0,,,68,0
62640,control_change,0,0,1,,,,,,,,,0,64,127,,
62640,note_on,0,0,1,,,,,,,,,0,,,69,88
62640,control_change,0,0,3,,,,,,,,,2,64,127,,
62640,note_on,30,0,3,,,,,,,,,2,,,56,0
62700,note_on,60,0,3,,,,,,,,,2,,,57,0
62700,note_on,0,0,3,,,,,,,,,2,,,59,75
62700,note_on,60,0,1,,,,,,,,,0,,,69,0
62700,note_on,0,0,1,,,,,,,,,0,,,71,88
62730,note_on,0,0,1,,,,,,,,,0,,,72,88
62730,note_on,30,0,1,,,,,,,,,0,,,71,0
62730,note_on,0,0,3,,,,,,,,,2,,,60,75
62730,note_on,30,0,3,,,,,,,,,2,,,59,0
62760,note_on,30,0,1,,,,,,,,,0,,,72,0
62760,note_on,30,0,3,,,,,,,,,2,,,60,0
62760,note_on,0,0,1,,,,,,,,,0,,,74,88
62760,note_on,0,0,3,,,,,,,,,2,,,62,75
62790,control_change,0,0,3,,,,,,,,,2,64,0,,
62790,note_on,30,0,3,,,,,,,,,2,,,62,0
62790,note_on,30,0,1,,,,,,,,,0,,,74,0
62790,note_on,0,0,1,,,,,,,,,0,,,76,88
62790,control_change,0,0,1,,,,,,,,,0,64,0,,
62790,note_on,0,0,3,,,,,,,,,2,,,64,75
62820,note_on,30,0,3,,,,,,,,,2,,,64,0
62820,time_signature,540,1,0,6,8,12,8,,,,,,,,,
62820,note_on,30,0,1,,,,,,,,,0,,,76,0
62820,note_on,0,0,1,,,,,,,,,0,,,77,88
62820,note_on,0,0,3,,,,,,,,,2,,,65,75
63000,note_on,180,0,1,,,,,,,,,0,,,77,0
63000,note_on,180,0,3,,,,,,,,,2,,,65,0
63180,note_on,180,0,1,,,,,,,,,0,,,64,49
63180,time_signature,360,1,0,3,8,12,8,,,,,,,,,
63180,note_on,0,0,3,,,,,,,,,2,,,57,36
63180,note_on,0,0,1,,,,,,,,,0,,,76,49
63180,note_on,180,0,3,,,,,,,,,2,,,48,36
63360,note_on,180,0,3,,,,,,,,,2,,,57,0
63360,note_on,0,0,3,,,,,,,,,2,,,48,0
63360,note_on,0,0,3,,,,,,,,,2,,,53,36
63360,note_on,180,0,1,,,,,,,,,0,,,76,0
63360,note_on,0,0,1,,,,,,,,,0,,,63,49
63360,note_on,0,0,1,,,,,,,,,0,,,69,49
63360,note_on,0,0,3,,,,,,,,,2,,,60,36
63360,note_on,0,0,1,,,,,,,,,0,,,64,0
63525,note_on,165,0,1,,,,,,,,,0,,,71,49
63540,note_on,15,0,1,,,,,,,,,0,,,71,0
63540,note_on,0,0,1,,,,,,,,,0,,,69,0
63540,note_on,0,0,1,,,,,,,,,0,,,69,49
63540,control_change,0,0,1,,,,,,,,,0,64,127,,
63540,note_on,0,0,1,,,,,,,,,0,,,63,0
63540,note_on,1620,0,2,,,,,,,,,1,,,64,36
63540,note_on,180,0,3,,,,,,,,,2,,,60,0
63540,note_on,0,0,3,,,,,,,,,2,,,53,0
63540,note_on,0,0,3,,,,,,,,,2,,,52,36
63540,note_on,0,0,3,,,,,,,,,2,,,60,36
63600,note_on,60,0,1,,,,,,,,,0,,,69,0
63600,note_on,0,0,1,,,,,,,,,0,,,68,49
63660,note_on,0,0,1,,,,,,,,,0,,,69,49
63660,note_on,60,0,1,,,,,,,,,0,,,68,0
63660,control_change,0,0,1,,,,,,,,,0,64,0,,
63720,note_on,0,0,3,,,,,,,,,2,,,62,36
63720,note_on,60,0,1,,,,,,,,,0,,,69,0
63720,note_on,0,0,1,,,,,,,,,0,,,72,49
63720,note_on,180,0,2,,,,,,,,,1,,,64,0
63720,note_on,0,0,2,,,,,,,,,1,,,68,36
63720,note_on,180,0,3,,,,,,,,,2,,,60,0
63840,note_on,120,0,1,,,,,,,,,0,,,72,0
63840,note_on,0,0,1,,,,,,,,,0,,,71,49
63900,note_on,180,0,3,,,,,,,,,2,,,62,0
63900,note_on,0,0,3,,,,,,,,,2,,,52,0
63900,note_on,180,0,2,,,,,,,,,1,,,68,0
63900,time_signature,720,1,0,6,8,12,8,,,,,,,,,
63900,note_on,60,0,1,,,,,,,,,0,,,71,0
64260,note_on,0,0,3,,,,,,,,,2,,,45,75
64260,control_change,360,0,3,,,,,,,,,2,64,127,,
64260,control_change,360,0,1,,,,,,,,,0,64,127,,
64260,note_on,0,0,1,,,,,,,,,0,,,57,88
64260,time_signature,360,1,0,3,8,12,8,,,,,,,,,
64350,note_on,0,0,3,,,,,,,,,2,,,47,75
64350,note_on,90,0,3,,,,,,,,,2,,,45,0
64350,note_on,90,0,1,,,,,,,,,0,,,57,0
64350,note_on,0,0,1,,,,,,,,,0,,,59,88
64380,note_on,30,0,3,,,,,,,,,2,,,47,0
64380,note_on,30,0,1,,,,,,,,,0,,,59,0
64380,note_on,0,0,1,,,,,,,,,0,,,60,88
64380,note_on,0,0,3,,,,,,,,,2,,,48,75
64410,note_on,30,0,1,,,,,,,,,0,,,60,0
64410,note_on,0,0,3,,,,,,,,,2,,,50,75
64410,note_on,30,0,3,,,,,,,,,2,,,48,0
64410,note_on,0,0,1,,,,,,,,,0,,,62,88
64440,note_on,30,0,1,,,,,,,,,0,,,62,0
64440,note_on,0,0,1,,,,,,,,,0,,,64,88
64440,note_on,30,0,3,,,,,,,,,2,,,50,0
64440,note_on,0,0,3,,,,,,,,,2,,,52,75
64560,note_on,0,0,1,,,,,,,,,0,,,66,88
64560,note_on,120,0,3,,,,,,,,,2,,,52,0
64560,note_on,120,0,1,,,,,,,,,0,,,64,0
64560,note_on,0,0,3,,,,,,,,,2,,,54,75
64590,note_on,0,0,3,,,,,,,,,2,,,56,75
64590,control_change,0,0,3,,,,,,,,,2,64,0,,
64590,note_on,0,0,1,,,,,,,,,0,,,68,88
64590,control_change,0,0,1,,,,,,,,,0,64,0,,
64590,note_on,30,0,1,,,,,,,,,0,,,66,0
64590,note_on,30,0,3,,,,,,,,,2,,,54,0
64620,control_change,0,0,3,,,,,,,,,2,64,127,,
64620,note_on,30,0,3,,,,,,,,,2,,,56,0
64620,note_on,0,0,1,,,,,,,,,0,,,69,88
64620,control_change,0,0,1,,,,,,,,,0,64,127,,
64620,note_on,30,0,1,,,,,,,,,0,,,68,0
64620,note_on,0,0,3,,,,,,,,,2,,,57,75
64680,note_on,60,0,1,,,,,,,,,0,,,69,0
64680,note_on,0,0,1,,,,,,,,,0,,,71,88
64680,note_on,0,0,3,,,,,,,,,2,,,59,75
64680,note_on,60,0,3,,,,,,,,,2,,,57,0
64710,note_on,30,0,3,,,,,,,,,2,,,59,0
64710,note_on,0,0,3,,,,,,,,,2,,,60,75
64710,note_on,30,0,1,,,,,,,,,0,,,71,0
64710,note_on,0,0,1,,,,,,,,,0,,,72,88
64740,note_on,0,0,3,,,,,,,,,2,,,62,75
64740,note_on,30,0,3,,,,,,,,,2,,,60,0
64740,note_on,30,0,1,,,,,,,,,0,,,72,0
64740,note_on,0,0,1,,,,,,,,,0,,,74,88
64770,note_on,0,0,3,,,,,,,,,2,,,64,75
64770,note_on,30,0,1,,,,,,,,,0,,,74,0
64770,note_on,30,0,3,,,,,,,,,2,,,62,0
64770,note_on,0,0,1,,,,,,,,,0,,,76,88
64800,note_on,30,0,1,,,,,,,,,0,,,76,0
64800,time_signature,540,1,0,6,8,12,8,,,,,,,,,
64800,note_on,0,0,1,,,,,,,,,0,,,77,88
64800,note_on,30,0,3,,,,,,,,,2,,,64,0
64800,control_change,0,0,1,,,,,,,,,0,64,0,,
64800,note_on,0,0,3,,,,,,,,,2,,,65,75
64800,control_change,0,0,3,,,,,,,,,2,64,0,,
64980,note_on,180,0,3,,,,,,,,,2,,,65,0
65160,time_signature,360,1,0,3,8,12,8,,,,,,,,,
65160,note_on,0,0,3,,,,,,,,,2,,,58,36
65160,note_on,360,0,1,,,,,,,,,0,,,65,49
65160,note_on,180,0,3,,,,,,,,,2,,,50,36
65340,note_on,180,0,3,,,,,,,,,2,,,58,0
65340,note_on,0,0,1,,,,,,,,,0,,,70,49
65340,note_on,180,0,1,,,,,,,,,0,,,65,0
65340,note_on,0,0,1,,,,,,,,,0,,,77,0
65340,note_on,0,0,3,,,,,,,,,2,,,50,0
65340,note_on,0,0,1,,,,,,,,,0,,,64,49
65340,note_on,0,0,3,,,,,,,,,2,,,60,36
65340,note_on,0,0,3,,,,,,,,,2,,,55,36
65505,note_on,165,0,1,,,,,,,,,0,,,72,49
65520,control_change,0,0,1,,,,,,,,,0,64,127,,
65520,note_on,180,0,3,,,,,,,,,2,,,60,0
65520,note_on,0,0,3,,,,,,,,,2,,,55,0
65520,note_on,0,0,3,,,,,,,,,2,,,53,36
65520,note_on,0,0,3,,,,,,,,,2,,,62,36
65520,note_on,0,0,1,,,,,,,,,0,,,70,0
65520,note_on,0,0,1,,,,,,,,,0,,,70,49
65520,note_on,1620,0,2,,,,,,,,,1,,,65,36
65520,note_on,0,0,1,,,,,,,,,0,,,64,0
65520,note_on,15,0,1,,,,,,,,,0,,,72,0
65580,note_on,60,0,1,,,,,,,,,0,,,70,0
65580,note_on,0,0,1,,,,,,,,,0,,,69,49
65640,note_on,60,0,1,,,,,,,,,0,,,69,0
65640,control_change,0,0,1,,,,,,,,,0,64,0,,
65640,note_on,0,0,1,,,,,,,,,0,,,70,49
65700,note_on,0,0,3,,,,,,,,,2,,,63,36
65700,note_on,180,0,3,,,,,,,,,2,,,62,0
65700,note_on,0,0,1,,,,,,,,,0,,,74,49
65700,note_on,60,0,1,,,,,,,,,0,,,70,0
65700,note_on,180,0,2,,,,,,,,,1,,,65,0
65700,note_on,0,0,2,,,,,,,,,1,,,69,36
65820,note_on,120,0,1,,,,,,,,,0,,,74,0
65820,note_on,0,0,1,,,,,,,,,0,,,72,49
65880,note_on,180,0,3,,,,,,,,,2,,,63,0
65880,note_on,0,0,3,,,,,,,,,2,,,53,0
65880,note_on,60,0,1,,,,,,,,,0,,,72,0
65880,note_on,180,0,2,,,,,,,,,1,,,69,0
66045,note_on,165,0,1,,,,,,,,,0,,,71,49
66060,note_on,180,0,2,,,,,,,,,1,,,64,36
66060,note_on,0,0,3,,,,,,,,,2,,,60,36
66060,note_on,0,0,1,,,,,,,,,0,,,69,49
66060,control_change,0,0,1,,,,,,,,,0,64,127,,
66060,note_on,180,0,3,,,,,,,,,2,,,52,36
66060,note_on,15,0,1,,,,,,,,,0,,,71,0
66120,note_on,60,0,1,,,,,,,,,0,,,69,0
66120,note_on,0,0,1,,,,,,,,,0,,,68,49
66180,note_on,60,0,1,,,,,,,,,0,,,68,0
66180,note_on,0,0,1,,,,,,,,,0,,,69,49
66240,note_on,180,0,3,,,,,,,,,2,,,60,0
66240,note_on,0,0,3,,,,,,,,,2,,,62,36
66240,control_change,0,0,1,,,,,,,,,0,64,0,,
66240,note_on,60,0,1,,,,,,,,,0,,,69,0
66240,note_on,0,0,1,,,,,,,,,0,,,72,49
66240,note_on,0,0,2,,,,,,,,,1,,,68,36
66240,note_on,180,0,2,,,,,,,,,1,,,64,0
66360,note_on,120,0,1,,,,,,,,,0,,,72,0
66360,note_on,0,0,1,,,,,,,,,0,,,71,49
66420,control_change,0,0,1,,,,,,,,,0,64,127,,
66420,note_on,60,0,1,,,,,,,,,0,,,71,0
66420,note_on,180,0,3,,,,,,,,,2,,,62,0
66420,note_on,0,0,3,,,,,,,,,2,,,52,0
66420,control_change,0,0,3,,,,,,,,,2,64,127,,
66420,note_on,0,0,3,,,,,,,,,2,,,53,88
66420,note_on,0,0,3,,,,,,,,,2,,,60,88
66420,note_on,180,0,2,,,,,,,,,1,,,68,0
66420,note_on,0,0,1,,,,,,,,,0,,,69,101
66420,note_on,0,0,1,,,,,,,,,0,,,65,101
66690,note_on,270,0,3,,,,,,,,,2,,,60,0
66690,note_on,0,0,3,,,,,,,,,2,,,53,0
66690,note_on,270,0,1,,,,,,,,,0,,,69,0
66690,note_on,0,0,1,,,,,,,,,0,,,65,0
66690,note_on,0,0,1,,,,,,,,,0,,,69,101
66720,note_on,0,0,1,,,,,,,,,0,,,72,101
66720,note_on,30,0,1,,,,,,,,,0,,,69,0
66750,note_on,0,0,1,,,,,,,,,0,,,77,101
66750,note_on,30,0,1,,,,,,,,,0,,,72,0
66780,note_on,0,0,3,,,,,,,,,2,,,72,88
66780,note_on,90,0,3,,,,,,,,,2,,,65,88
66780,note_on,0,0,1,,,,,,,,,0,,,81,101
66780,note_on,0,0,1,,,,,,,,,0,,,77,101
66780,note_on,30,0,1,,,,,,,,,0,,,77,0
66786,note_on,0,0,3,,,,,,,,,2,,,65,0
66786,note_on,6,0,3,,,,,,,,,2,,,72,0
66786,note_on,6,0,1,,,,,,,,,0,,,81,0
66786,note_on,0,0,1,,,,,,,,,0,,,77,0
66840,note_on,54,0,3,,,,,,,,,2,,,65,88
66840,note_on,0,0,1,,,,,,,,,0,,,81,101
66840,note_on,54,0,1,,,,,,,,,0,,,77,101
66840,note_on,0,0,3,,,,,,,,,2,,,72,88
66846,note_on,6,0,3,,,,,,,,,2,,,72,0
66846,note_on,0,0,3,,,,,,,,,2,,,65,0
66846,note_on,6,0,1,,,,,,,,,0,,,81,0
66846,note_on,0,0,1,,,,,,,,,0,,,77,0
66900,note_on,0,0,3,,,,,,,,,2,,,72,88
66900,note_on,54,0,1,,,,,,,,,0,,,77,101
66900,note_on,0,0,1,,,,,,,,,0,,,81,101
66900,note_on,54,0,3,,,,,,,,,2,,,65,88
66906,note_on,6,0,1,,,,,,,,,0,,,81,0
66906,note_on,0,0,1,,,,,,,,,0,,,77,0
66906,note_on,6,0,3,,,,,,,,,2,,,72,0
66906,note_on,0,0,3,,,,,,,,,2,,,65,0
66960,note_on,54,0,1,,,,,,,,,0,,,77,101
66960,note_on,0,0,1,,,,,,,,,0,,,81,101
66960,note_on,54,0,3,,,,,,,,,2,,,65,88
66960,note_on,0,0,3,,,,,,,,,2,,,72,88
66966,note_on,0,0,3,,,,,,,,,2,,,65,0
66966,note_on,6,0,3,,,,,,,,,2,,,72,0
66966,note_on,6,0,1,,,,,,,,,0,,,81,0
66966,note_on,0,0,1,,,,,,,,,0,,,77,0
67020,note_on,0,0,3,,,,,,,,,2,,,72,88
67020,note_on,54,0,3,,,,,,,,,2,,,65,88
67020,note_on,54,0,1,,,,,,,,,0,,,77,101
67020,note_on,0,0,1,,,,,,,,,0,,,81,101
67026,note_on,6,0,3,,,,,,,,,2,,,72,0
67026,note_on,0,0,3,,,,,,,,,2,,,65,0
67026,note_on,6,0,1,,,,,,,,,0,,,81,0
67026,note_on,0,0,1,,,,,,,,,0,,,77,0
67080,control_change,54,0,3,,,,,,,,,2,64,0,,
67080,note_on,0,0,3,,,,,,,,,2,,,65,88
67080,note_on,0,0,3,,,,,,,,,2,,,72,88
67080,note_on,0,0,1,,,,,,,,,0,,,77,101
67080,control_change,54,0,1,,,,,,,,,0,64,0,,
67080,note_on,0,0,1,,,,,,,,,0,,,81,101
67086,note_on,0,0,1,,,,,,,,,0,,,77,0
67086,note_on,6,0,1,,,,,,,,,0,,,81,0
67086,note_on,6,0,3,,,,,,,,,2,,,72,0
67086,note_on,0,0,3,,,,,,,,,2,,,65,0
67140,note_on,0,0,3,,,,,,,,,2,,,65,88
67140,control_change,54,0,1,,,,,,,,,0,64,127,,
67140,control_change,54,0,3,,,,,,,,,2,64,127,,
67140,note_on,0,0,1,,,,,,,,,0,,,76,101
67140,note_on,0,0,1,,,,,,,,,0,,,79,101
67140,note_on,0,0,1,,,,,,,,,0,,,82,101
67140,note_on,0,0,3,,,,,,,,,2,,,73,88
67410,note_on,270,0,1,,,,,,,,,0,,,82,0
67410,note_on,0,0,1,,,,,,,,,0,,,79,0
67410,note_on,0,0,1,,,,,,,,,0,,,76,0
67410,note_on,270,0,3,,,,,,,,,2,,,73,0
67410,note_on,0,0,3,,,,,,,,,2,,,65,0
67410,note_on,0,0,1,,,,,,,,,0,,,61,49
67440,note_on,30,0,1,,,,,,,,,0,,,61,0
67440,note_on,0,0,1,,,,,,,,,0,,,64,49
67470,note_on,30,0,1,,,,,,,,,0,,,64,0
67470,note_on,0,0,1,,,,,,,,,0,,,67,49
67500,note_on,90,0,3,,,,,,,,,2,,,53,36
67500,note_on,0,0,3,,,,,,,,,2,,,61,36
67500,note_on,0,0,3,,,,,,,,,2,,,64,36
67500,note_on,30,0,1,,,,,,,,,0,,,67,0
67500,note_on,0,0,1,,,,,,,,,0,,,67,49
67500,note_on,0,0,1,,,,,,,,,0,,,70,49
67506,note_on,0,0,3,,,,,,,,,2,,,61,0
67506,note_on,6,0,1,,,,,,,,,0,,,70,0
67506,note_on,0,0,1,,,,,,,,,0,,,67,0
67506,note_on,0,0,3,,,,,,,,,2,,,53,0
67506,note_on,6,0,3,,,,,,,,,2,,,64,0
67560,note_on,54,0,3,,,,,,,,,2,,,53,36
67560,note_on,0,0,1,,,,,,,,,0,,,70,49
67560,note_on,54,0,1,,,,,,,,,0,,,67,49
67560,note_on,0,0,3,,,,,,,,,2,,,64,36
67560,note_on,0,0,3,,,,,,,,,2,,,61,36
67566,note_on,6,0,3,,,,,,,,,2,,,64,0
67566,note_on,0,0,3,,,,,,,,,2,,,53,0
67566,note_on,0,0,3,,,,,,,,,2,,,61,0
67566,note_on,0,0,1,,,,,,,,,0,,,67,0
67566,note_on,6,0,1,,,,,,,,,0,,,70,0
67620,note_on,0,0,3,,,,,,,,,2,,,61,36
67620,note_on,54,0,3,,,,,,,,,2,,,53,36
67620,note_on,0,0,3,,,,,,,,,2,,,64,36
67620,note_on,54,0,1,,,,,,,,,0,,,67,49
67620,note_on,0,0,1,,,,,,,,,0,,,70,49
67626,note_on,0,0,3,,,,,,,,,2,,,61,0
67626,note_on,6,0,1,,,,,,,,,0,,,70,0
67626,note_on,0,0,3,,,,,,,,,2,,,53,0
67626,note_on,0,0,1,,,,,,,,,0,,,67,0
67626,note_on,6,0,3,,,,,,,,,2,,,64,0
67680,note_on,54,0,1,,,,,,,,,0,,,67,49
67680,note_on,0,0,1,,,,,,,,,0,,,70,49
67680,note_on,0,0,3,,,,,,,,,2,,,64,36
67680,note_on,0,0,3,,,,,,,,,2,,,61,36
67680,note_on,54,0,3,,,,,,,,,2,,,53,36
67686,note_on,0,0,1,,,,,,,,,0,,,67,0
67686,note_on,0,0,3,,,,,,,,,2,,,53,0
67686,note_on,6,0,1,,,,,,,,,0,,,70,0
67686,note_on,0,0,3,,,,,,,,,2,,,61,0
67686,note_on,6,0,3,,,,,,,,,2,,,64,0
67740,note_on,0,0,3,,,,,,,,,2,,,64,36
67740,note_on,0,0,3,,,,,,,,,2,,,61,36
67740,note_on,54,0,1,,,,,,,,,0,,,67,49
67740,note_on,0,0,1,,,,,,,,,0,,,70,49
67740,note_on,54,0,3,,,,,,,,,2,,,53,36
67746,note_on,0,0,1,,,,,,,,,0,,,67,0
67746,note_on,6,0,3,,,,,,,,,2,,,64,0
67746,note_on,0,0,3,,,,,,,,,2,,,61,0
67746,note_on,0,0,3,,,,,,,,,2,,,53,0
67746,note_on,6,0,1,,,,,,,,,0,,,70,0
67800,control_change,54,0,3,,,,,,,,,2,64,0,,
67800,note_on,0,0,3,,,,,,,,,2,,,61,36
67800,note_on,0,0,3,,,,,,,,,2,,,64,36
67800,control_change,54,0,1,,,,,,,,,0,64,0,,
67800,note_on,0,0,1,,,,,,,,,0,,,67,49
67800,note_on,0,0,1,,,,,,,,,0,,,70,49
67800,note_on,0,0,3,,,,,,,,,2,,,53,36
67806,note_on,6,0,3,,,,,,,,,2,,,64,0
67806,note_on,0,0,3,,,,,,,,,2,,,61,0
67806,note_on,0,0,3,,,,,,,,,2,,,53,0
67806,note_on,6,0,1,,,,,,,,,0,,,70,0
67806,note_on,0,0,1,,,,,,,,,0,,,67,0
67860,note_on,0,0,1,,,,,,,,,0,,,65,49
67860,note_on,0,0,1,,,,,,,,,0,,,69,49
67860,note_on,0,0,3,,,,,,,,,2,,,60,36
67860,control_change,54,0,3,,,,,,,,,2,64,127,,
67860,control_change,54,0,1,,,,,,,,,0,64,127,,
67860,note_on,0,0,3,,,,,,,,,2,,,53,36
68130,note_on,0,0,3,,,,,,,,,2,,,53,0
68130,note_on,270,0,3,,,,,,,,,2,,,60,0
68130,note_on,0,0,1,,,,,,,,,0,,,69,49
68130,note_on,0,0,1,,,,,,,,,0,,,65,0
68130,note_on,270,0,1,,,,,,,,,0,,,69,0
68160,note_on,30,0,1,,,,,,,,,0,,,69,0
68160,note_on,0,0,1,,,,,,,,,0,,,72,49
68190,note_on,0,0,1,,,,,,,,,0,,,77,49
68190,note_on,30,0,1,,,,,,,,,0,,,72,0
68220,note_on,30,0,1,,,,,,,,,0,,,77,0
68220,note_on,0,0,1,,,,,,,,,0,,,77,101
68220,note_on,0,0,1,,,,,,,,,0,,,81,101
68220,note_on,90,0,3,,,,,,,,,2,,,65,88
68220,note_on,0,0,3,,,,,,,,,2,,,72,88
68226,note_on,6,0,1,,,,,,,,,0,,,81,0
68226,note_on,0,0,1,,,,,,,,,0,,,77,0
68226,note_on,6,0,3,,,,,,,,,2,,,72,0
68226,note_on,0,0,3,,,,,,,,,2,,,65,0
68280,note_on,54,0,1,,,,,,,,,0,,,77,101
68280,note_on,0,0,1,,,,,,,,,0,,,81,101
68280,note_on,0,0,3,,,,,,,,,2,,,72,88
68280,note_on,54,0,3,,,,,,,,,2,,,65,88
68286,note_on,6,0,3,,,,,,,,,2,,,72,0
68286,note_on,6,0,1,,,,,,,,,0,,,81,0
68286,note_on,0,0,1,,,,,,,,,0,,,77,0
68286,note_on,0,0,3,,,,,,,,,2,,,65,0
68340,note_on,54,0,3,,,,,,,,,2,,,65,88
68340,note_on,0,0,3,,,,,,,,,2,,,72,88
68340,note_on,54,0,1,,,,,,,,,0,,,77,101
68340,note_on,0,0,1,,,,,,,,,0,,,81,101
68346,note_on,6,0,3,,,,,,,,,2,,,72,0
68346,note_on,6,0,1,,,,,,,,,0,,,81,0
68346,note_on,0,0,1,,,,,,,,,0,,,77,0
68346,note_on,0,0,3,,,,,,,,,2,,,65,0
68400,note_on,54,0,1,,,,,,,,,0,,,77,101
68400,note_on,0,0,1,,,,,,,,,0,,,81,101
68400,note_on,0,0,3,,,,,,,,,2,,,72,88
68400,note_on,54,0,3,,,,,,,,,2,,,65,88
68406,note_on,6,0,1,,,,,,,,,0,,,81,0
68406,note_on,0,0,3,,,,,,,,,2,,,65,0
68406,note_on,6,0,3,,,,,,,,,2,,,72,0
68406,note_on,0,0,1,,,,,,,,,0,,,77,0
68460,note_on,54,0,1,,,,,,,,,0,,,77,101
68460,note_on,54,0,3,,,,,,,,,2,,,65,88
68460,note_on,0,0,1,,,,,,,,,0,,,81,101
68460,note_on,0,0,3,,,,,,,,,2,,,72,88
68466,note_on,6,0,3,,,,,,,,,2,,,72,0
68466,note_on,0,0,1,,,,,,,,,0,,,77,0
68466,note_on,6,0,1,,,,,,,,,0,,,81,0
68466,note_on,0,0,3,,,,,,,,,2,,,65,0
68520,note_on,0,0,1,,,,,,,,,0,,,77,101
68520,control_change,54,0,1,,,,,,,,,0,64,0,,
68520,note_on,0,0,3,,,,,,,,,2,,,72,88
68520,note_on,0,0,3,,,,,,,,,2,,,65,88
68520,control_change,54,0,3,,,,,,,,,2,64,0,,
68520,note_on,0,0,1,,,,,,,,,0,,,81,101
68526,note_on,6,0,3,,,,,,,,,2,,,72,0
68526,note_on,6,0,1,,,,,,,,,0,,,81,0
68526,note_on,0,0,1,,,,,,,,,0,,,77,0
68526,note_on,0,0,3,,,,,,,,,2,,,65,0
68580,control_change,54,0,3,,,,,,,,,2,64,127,,
68580,note_on,0,0,3,,,,,,,,,2,,,65,88
68580,note_on,0,0,3,,,,,,,,,2,,,73,88
68580,note_on,0,0,1,,,,,,,,,0,,,76,101
68580,note_on,0,0,1,,,,,,,,,0,,,79,101
68580,note_on,0,0,1,,,,,,,,,0,,,82,101
68580,control_change,54,0,1,,,,,,,,,0,64,127,,
68850,note_on,0,0,3,,,,,,,,,2,,,65,0
68850,note_on,270,0,1,,,,,,,,,0,,,82,0
68850,note_on,0,0,1,,,,,,,,,0,,,79,0
68850,note_on,0,0,1,,,,,,,,,0,,,76,0
68850,note_on,0,0,1,,,,,,,,,0,,,61,49
68850,note_on,270,0,3,,,,,,,,,2,,,73,0
68880,note_on,0,0,1,,,,,,,,,0,,,64,49
68880,note_on,30,0,1,,,,,,,,,0,,,61,0
68910,note_on,30,0,1,,,,,,,,,0,,,64,0
68910,note_on,0,0,1,,,,,,,,,0,,,67,49
68940,note_on,30,0,1,,,,,,,,,0,,,67,0
68940,note_on,0,0,1,,,,,,,,,0,,,64,49
68940,note_on,0,0,1,,,,,,,,,0,,,67,49
68940,note_on,0,0,1,,,,,,,,,0,,,70,49
68940,note_on,90,0,3,,,,,,,,,2,,,53,36
68940,note_on,0,0,3,,,,,,,,,2,,,61,36
68946,note_on,0,0,3,,,,,,,,,2,,,53,0
68946,note_on,6,0,3,,,,,,,,,2,,,61,0
68946,note_on,6,0,1,,,,,,,,,0,,,70,0
68946,note_on,0,0,1,,,,,,,,,0,,,67,0
68946,note_on,0,0,1,,,,,,,,,0,,,64,0
69000,note_on,0,0,3,,,,,,,,,2,,,61,36
69000,note_on,54,0,3,,,,,,,,,2,,,53,36
69000,note_on,0,0,1,,,,,,,,,0,,,70,49
69000,note_on,54,0,1,,,,,,,,,0,,,64,49
69000,note_on,0,0,1,,,,,,,,,0,,,67,49
69006,note_on,6,0,3,,,,,,,,,2,,,61,0
69006,note_on,6,0,1,,,,,,,,,0,,,70,0
69006,note_on,0,0,1,,,,,,,,,0,,,67,0
69006,note_on,0,0,1,,,,,,,,,0,,,64,0
69006,note_on,0,0,3,,,,,,,,,2,,,53,0
69060,note_on,0,0,3,,,,,,,,,2,,,61,36
69060,note_on,54,0,3,,,,,,,,,2,,,53,36
69060,note_on,0,0,1,,,,,,,,,0,,,70,49
69060,note_on,54,0,1,,,,,,,,,0,,,64,49
69060,note_on,0,0,1,,,,,,,,,0,,,67,49
69066,note_on,6,0,3,,,,,,,,,2,,,61,0
69066,note_on,0,0,3,,,,,,,,,2,,,53,0
69066,note_on,0,0,1,,,,,,,,,0,,,67,0
69066,note_on,0,0,1,,,,,,,,,0,,,64,0
69066,note_on,6,0,1,,,,,,,,,0,,,70,0
69120,note_on,54,0,3,,,,,,,,,2,,,53,36
69120,note_on,0,0,3,,,,,,,,,2,,,61,36
69120,note_on,54,0,1,,,,,,,,,0,,,64,49
69120,note_on,0,0,1,,,,,,,,,0,,,70,49
69120,note_on,0,0,1,,,,,,,,,0,,,67,49
69126,note_on,0,0,1,,,,,,,,,0,,,67,0
69126,note_on,0,0,3,,,,,,,,,2,,,53,0
69126,note_on,6,0,3,,,,,,,,,2,,,61,0
69126,note_on,6,0,1,,,,,,,,,0,,,70,0
69126,note_on,0,0,1,,,,,,,,,0,,,64,0
69180,note_on,54,0,1,,,,,,,,,0,,,64,49
69180,note_on,54,0,3,,,,,,,,,2,,,53,36
69180,note_on,0,0,1,,,,,,,,,0,,,67,49
69180,note_on,0,0,1,,,,,,,,,0,,,70,49
69180,note_on,0,0,3,,,,,,,,,2,,,61,36
69186,note_on,6,0,1,,,,,,,,,0,,,70,0
69186,note_on,0,0,1,,,,,,,,,0,,,67,0
69186,note_on,0,0,1,,,,,,,,,0,,,64,0
69186,note_on,6,0,3,,,,,,,,,2,,,61,0
69186,note_on,0,0,3,,,,,,,,,2,,,53,0
69240,control_change,54,0,3,,,,,,,,,2,64,0,,
69240,note_on,0,0,3,,,,,,,,,2,,,53,36
69240,note_on,0,0,1,,,,,,,,,0,,,67,49
69240,note_on,0,0,1,,,,,,,,,0,,,70,49
69240,note_on,0,0,1,,,,,,,,,0,,,64,49
69240,control_change,54,0,1,,,,,,,,,0,64,0,,
69240,note_on,0,0,3,,,,,,,,,2,,,61,36
69246,note_on,6,0,3,,,,,,,,,2,,,61,0
69246,note_on,0,0,1,,,,,,,,,0,,,64,0
69246,note_on,0,0,1,,,,,,,,,0,,,67,0
69246,note_on,6,0,1,,,,,,,,,0,,,70,0
69246,note_on,0,0,3,,,,,,,,,2,,,53,0
69300,note_on,0,0,1,,,,,,,,,0,,,65,49
69300,control_change,54,0,1,,,,,,,,,0,64,127,,
69300,note_on,0,0,3,,,,,,,,,2,,,53,36
69300,note_on,0,0,1,,,,,,,,,0,,,69,49
69300,note_on,0,0,3,,,,,,,,,2,,,60,36
69300,control_change,54,0,3,,,,,,,,,2,64,127,,
69570,note_on,0,0,3,,,,,,,,,2,,,53,0
69570,note_on,270,0,3,,,,,,,,,2,,,60,0
69570,note_on,270,0,1,,,,,,,,,0,,,69,0
69570,note_on,0,0,1,,,,,,,,,0,,,65,0
69570,note_on,0,0,3,,,,,,,,,2,,,57,101
69570,note_on,0,0,1,,,,,,,,,0,,,69,101
69600,note_on,0,0,1,,,,,,,,,0,,,65,101
69600,note_on,0,0,3,,,,,,,,,2,,,53,101
69600,note_on,30,0,1,,,,,,,,,0,,,69,0
69600,note_on,30,0,3,,,,,,,,,2,,,57,0
69630,note_on,30,0,3,,,,,,,,,2,,,53,0
69630,note_on,0,0,3,,,,,,,,,2,,,48,101
69630,note_on,0,0,1,,,,,,,,,0,,,60,101
69630,note_on,30,0,1,,,,,,,,,0,,,65,0
69660,note_on,0,0,3,,,,,,,,,2,,,45,101
69660,note_on,30,0,3,,,,,,,,,2,,,48,0
69660,note_on,0,0,1,,,,,,,,,0,,,57,101
69660,note_on,30,0,1,,,,,,,,,0,,,60,0
69666,note_on,6,0,3,,,,,,,,,2,,,45,0
69666,note_on,6,0,1,,,,,,,,,0,,,57,0
69720,note_on,54,0,1,,,,,,,,,0,,,57,101
69720,note_on,54,0,3,,,,,,,,,2,,,45,101
69726,note_on,6,0,1,,,,,,,,,0,,,57,0
69726,note_on,6,0,3,,,,,,,,,2,,,45,0
69780,note_on,54,0,3,,,,,,,,,2,,,45,101
69780,note_on,54,0,1,,,,,,,,,0,,,57,101
69786,note_on,6,0,3,,,,,,,,,2,,,45,0
69786,note_on,6,0,1,,,,,,,,,0,,,57,0
69840,note_on,54,0,3,,,,,,,,,2,,,45,101
69840,note_on,54,0,1,,,,,,,,,0,,,57,101
69846,note_on,6,0,1,,,,,,,,,0,,,57,0
69846,note_on,6,0,3,,,,,,,,,2,,,45,0
69900,note_on,54,0,1,,,,,,,,,0,,,57,101
69900,note_on,54,0,3,,,,,,,,,2,,,45,101
69906,note_on,6,0,1,,,,,,,,,0,,,57,0
69906,note_on,6,0,3,,,,,,,,,2,,,45,0
69960,control_change,54,0,1,,,,,,,,,0,64,0,,
69960,note_on,0,0,1,,,,,,,,,0,,,57,101
69960,control_change,54,0,3,,,,,,,,,2,64,0,,
69960,note_on,0,0,3,,,,,,,,,2,,,45,101
69966,note_on,6,0,1,,,,,,,,,0,,,57,0
69966,note_on,6,0,3,,,,,,,,,2,,,45,0
70020,control_change,54,0,1,,,,,,,,,0,64,127,,
70020,note_on,0,0,3,,,,,,,,,2,,,52,75
70020,note_on,0,0,3,,,,,,,,,2,,,49,75
70020,note_on,0,0,3,,,,,,,,,2,,,45,75
70020,note_on,0,0,3,,,,,,,,,2,,,40,75
70020,control_change,54,0,3,,,,,,,,,2,64,127,,
70020,note_on,0,0,1,,,,,,,,,0,,,57,88
70020,note_on,0,0,1,,,,,,,,,0,,,61,88
70020,note_on,0,0,1,,,,,,,,,0,,,64,88
70380,control_change,11880,0,4,,,,,,,,,3,64,127,,
70380,note_on,0,0,2,,,,,,,,,1,,,64,49
70380,control_change,3960,0,2,,,,,,,,,1,64,127,,
70380,note_on,0,0,4,,,,,,,,,3,,,52,36
70380,note_on,360,0,3,,,,,,,,,2,,,52,0
70380,note_on,360,0,1,,,,,,,,,0,,,64,0
70386,note_on,6,0,2,,,,,,,,,1,,,64,0
70386,note_on,6,0,4,,,,,,,,,3,,,52,0
70440,note_on,54,0,2,,,,,,,,,1,,,64,49
70440,note_on,54,0,4,,,,,,,,,3,,,52,36
70446,note_on,6,0,2,,,,,,,,,1,,,64,0
70446,note_on,6,0,4,,,,,,,,,3,,,52,0
70500,note_on,54,0,2,,,,,,,,,1,,,64,49
70500,note_on,54,0,4,,,,,,,,,3,,,52,36
70506,note_on,6,0,2,,,,,,,,,1,,,64,0
70506,note_on,6,0,4,,,,,,,,,3,,,52,0
70560,control_change,180,0,3,,,,,,,,,2,64,0,,
70560,control_change,180,0,1,,,,,,,,,0,64,0,,
70560,note_on,54,0,2,,,,,,,,,1,,,64,49
70560,note_on,54,0,4,,,,,,,,,3,,,52,36
70566,note_on,6,0,2,,,,,,,,,1,,,64,0
70566,note_on,6,0,4,,,,,,,,,3,,,52,0
70620,note_on,54,0,4,,,,,,,,,3,,,52,36
70620,note_on,54,0,2,,,,,,,,,1,,,64,49
70626,note_on,6,0,2,,,,,,,,,1,,,64,0
70626,note_on,6,0,4,,,,,,,,,3,,,52,0
70680,control_change,54,0,4,,,,,,,,,3,64,0,,
70680,note_on,0,0,4,,,,,,,,,3,,,52,36
70680,control_change,54,0,2,,,,,,,,,1,64,0,,
70680,note_on,0,0,2,,,,,,,,,1,,,64,49
70686,note_on,6,0,2,,,,,,,,,1,,,64,0
70686,note_on,6,0,4,,,,,,,,,3,,,52,0
70740,note_on,0,0,3,,,,,,,,,2,,,45,0
70740,note_on,0,0,3,,,,,,,,,2,,,49,0
70740,note_on,0,0,3,,,,,,,,,2,,,40,36
70740,note_on,0,0,3,,,,,,,,,2,,,50,36
70740,note_on,0,0,1,,,,,,,,,0,,,57,0
70740,note_on,180,0,1,,,,,,,,,0,,,61,0
70740,note_on,0,0,1,,,,,,,,,0,,,56,49
70740,note_on,0,0,1,,,,,,,,,0,,,59,49
70740,note_on,0,0,1,,,,,,,,,0,,,64,49
70740,note_on,0,0,3,,,,,,,,,2,,,52,36
70740,note_on,180,0,3,,,,,,,,,2,,,40,0
71100,note_on,360,0,3,,,,,,,,,2,,,52,0
71100,note_on,360,0,1,,,,,,,,,0,,,64,0
71100,note_on,0,0,2,,,,,,,,,1,,,64,49
71100,note_on,0,0,4,,,,,,,,,3,,,52,36
71100,control_change,414,0,4,,,,,,,,,3,64,127,,
71100,control_change,414,0,2,,,,,,,,,1,64,127,,
71106,note_on,6,0,4,,,,,,,,,3,,,52,0
71106,note_on,6,0,2,,,,,,,,,1,,,64,0
71160,note_on,54,0,4,,,,,,,,,3,,,52,36
71160,note_on,54,0,2,,,,,,,,,1,,,64,49
71166,note_on,6,0,4,,,,,,,,,3,,,52,0
71166,note_on,6,0,2,,,,,,,,,1,,,64,0
71220,note_on,54,0,4,,,,,,,,,3,,,52,36
71220,note_on,54,0,2,,,,,,,,,1,,,64,49
71226,note_on,6,0,4,,,,,,,,,3,,,52,0
71226,note_on,6,0,2,,,,,,,,,1,,,64,0
71280,note_on,54,0,4,,,,,,,,,3,,,52,36
71280,note_on,54,0,2,,,,,,,,,1,,,64,49
71286,note_on,6,0,4,,,,,,,,,3,,,52,0
71286,note_on,6,0,2,,,,,,,,,1,,,64,0
71340,note_on,54,0,4,,,,,,,,,3,,,52,36
71340,note_on,54,0,2,,,,,,,,,1,,,64,49
71346,note_on,6,0,2,,,,,,,,,1,,,64,0
71346,note_on,6,0,4,,,,,,,,,3,,,52,0
71400,control_change,54,0,2,,,,,,,,,1,64,0,,
71400,note_on,0,0,4,,,,,,,,,3,,,52,36
71400,control_change,54,0,4,,,,,,,,,3,64,0,,
71400,note_on,0,0,2,,,,,,,,,1,,,64,49
71406,note_on,6,0,2,,,,,,,,,1,,,64,0
71406,note_on,6,0,4,,,,,,,,,3,,,52,0
71460,note_on,360,0,1,,,,,,,,,0,,,59,0
71460,note_on,360,0,3,,,,,,,,,2,,,50,0
71460,note_on,0,0,3,,,,,,,,,2,,,40,0
71460,note_on,0,0,3,,,,,,,,,2,,,33,36
71460,note_on,0,0,3,,,,,,,,,2,,,45,36
71460,note_on,0,0,3,,,,,,,,,2,,,40,36
71460,note_on,0,0,1,,,,,,,,,0,,,49,36
71460,note_on,0,0,1,,,,,,,,,0,,,57,36
71460,key_signature,6300,1,0,,,,,A,,,,,,,,
71460,note_on,0,0,1,,,,,,,,,0,,,56,0
71460,note_on,0,0,1,,,,,,,,,0,,,52,36
71820,note_on,0,0,3,,,,,,,,,2,,,33,0
71820,note_on,360,0,3,,,,,,,,,2,,,45,0
71820,control_change,414,0,4,,,,,,,,,3,64,127,,
71820,note_on,0,0,4,,,,,,,,,3,,,33,36
71820,note_on,0,0,4,,,,,,,,,3,,,45,36
71826,note_on,0,0,4,,,,,,,,,3,,,33,0
71826,note_on,6,0,4,,,,,,,,,3,,,45,0
71880,note_on,54,0,4,,,,,,,,,3,,,33,36
71880,note_on,0,0,4,,,,,,,,,3,,,45,36
71886,note_on,0,0,4,,,,,,,,,3,,,33,0
71886,note_on,6,0,4,,,,,,,,,3,,,45,0
71940,note_on,0,0,4,,,,,,,,,3,,,45,36
71940,note_on,54,0,4,,,,,,,,,3,,,33,36
71946,note_on,0,0,4,,,,,,,,,3,,,33,0
71946,note_on,6,0,4,,,,,,,,,3,,,45,0
72000,note_on,54,0,4,,,,,,,,,3,,,33,36
72000,note_on,0,0,4,,,,,,,,,3,,,45,36
72006,note_on,6,0,4,,,,,,,,,3,,,45,0
72006,note_on,0,0,4,,,,,,,,,3,,,33,0
72060,note_on,0,0,4,,,,,,,,,3,,,45,36
72060,note_on,54,0,4,,,,,,,,,3,,,33,36
72066,note_on,6,0,4,,,,,,,,,3,,,45,0
72066,note_on,0,0,4,,,,,,,,,3,,,33,0
72120,control_change,54,0,4,,,,,,,,,3,64,127,,
72120,note_on,0,0,4,,,,,,,,,3,,,33,36
72120,note_on,0,0,4,,,,,,,,,3,,,45,36
72126,note_on,0,0,4,,,,,,,,,3,,,33,0
72126,note_on,6,0,4,,,,,,,,,3,,,45,0
72180,note_on,0,0,3,,,,,,,,,2,,,45,36
72180,note_on,0,0,3,,,,,,,,,2,,,33,36
72180,note_on,360,0,3,,,,,,,,,2,,,40,0
72180,note_on,0,0,3,,,,,,,,,2,,,40,36
72180,note_on,0,0,1,,,,,,,,,0,,,52,0
72180,note_on,720,0,1,,,,,,,,,0,,,57,0
72180,note_on,0,0,1,,,,,,,,,0,,,57,36
72180,note_on,0,0,1,,,,,,,,,0,,,49,0
72180,note_on,0,0,1,,,,,,,,,0,,,49,36
72180,note_on,0,0,1,,,,,,,,,0,,,52,36
72420,set_tempo,960,1,0,,,,,,465116,,,,,,,
72480,set_tempo,60,1,0,,,,,,476190,,,,,,,
72540,set_tempo,60,1,0,,,,,,487805,,,,,,,
72540,note_on,360,0,3,,,,,,,,,2,,,45,0
72540,control_change,414,0,4,,,,,,,,,3,64,127,,
72540,note_on,0,0,4,,,,,,,,,3,,,45,36
72540,note_on,0,0,4,,,,,,,,,3,,,33,36
72540,note_on,0,0,3,,,,,,,,,2,,,33,0
72546,note_on,6,0,4,,,,,,,,,3,,,45,0
72546,note_on,0,0,4,,,,,,,,,3,,,33,0
72600,set_tempo,60,1,0,,,,,,504202,,,,,,,
72600,note_on,54,0,4,,,,,,,,,3,,,33,36
72600,note_on,0,0,4,,,,,,,,,3,,,45,36
72606,note_on,6,0,4,,,,,,,,,3,,,45,0
72606,note_on,0,0,4,,,,,,,,,3,,,33,0
72660,note_on,54,0,4,,,,,,,,,3,,,33,36
72660,note_on,0,0,4,,,,,,,,,3,,,45,36
72660,set_tempo,60,1,0,,,,,,517241,,,,,,,
72666,note_on,0,0,4,,,,,,,,,3,,,33,0
72666,note_on,6,0,4,,,,,,,,,3,,,45,0
72720,set_tempo,60,1,0,,,,,,530973,,,,,,,
72720,note_on,54,0,4,,,,,,,,,3,,,33,36
72720,note_on,0,0,4,,,,,,,,,3,,,45,36
72726,note_on,0,0,4,,,,,,,,,3,,,33,0
72726,note_on,6,0,4,,,,,,,,,3,,,45,0
72780,note_on,0,0,4,,,,,,,,,3,,,45,36
72780,set_tempo,60,1,0,,,,,,545455,,,,,,,
72780,note_on,54,0,4,,,,,,,,,3,,,33,36
72786,note_on,0,0,4,,,,,,,,,3,,,33,0
72786,note_on,6,0,4,,,,,,,,,3,,,45,0
72840,note_on,0,0,4,,,,,,,,,3,,,45,36
72840,end_of_track,0,1,0,,,,,,,,,,,,,
72840,set_tempo,60,1,0,,,,,,566038,,,,,,,
72840,note_on,54,0,4,,,,,,,,,3,,,33,36
72846,note_on,0,0,4,,,,,,,,,3,,,33,0
72846,note_on,6,0,4,,,,,,,,,3,,,45,0
72900,note_on,0,0,4,,,,,,,,,3,,,45,36
72900,control_change,54,0,4,,,,,,,,,3,64,127,,
72900,note_on,0,0,4,,,,,,,,,3,,,33,36
73020,note_on,120,0,4,,,,,,,,,3,,,45,0
73020,note_on,0,0,4,,,,,,,,,3,,,33,0
73020,note_on,840,0,1,,,,,,,,,0,,,57,0
73020,note_on,0,0,1,,,,,,,,,0,,,52,0
73020,note_on,0,0,1,,,,,,,,,0,,,49,0
73080,note_on,60,0,1,,,,,,,,,0,,,69,114
73080,note_on,0,0,1,,,,,,,,,0,,,73,114
73080,note_on,0,0,1,,,,,,,,,0,,,76,114
73080,note_on,0,0,1,,,,,,,,,0,,,81,114
73080,note_on,540,0,3,,,,,,,,,2,,,40,0
73080,note_on,0,0,3,,,,,,,,,2,,,45,101
73080,note_on,0,0,3,,,,,,,,,2,,,40,101
73080,note_on,0,0,3,,,,,,,,,2,,,37,101
73080,note_on,0,0,3,,,,,,,,,2,,,33,101
73260,note_on,0,0,1,,,,,,,,,0,,,73,0
73260,note_on,0,0,1,,,,,,,,,0,,,69,0
73260,note_on,180,0,1,,,,,,,,,0,,,81,0
73260,note_on,0,0,3,,,,,,,,,2,,,37,0
73260,note_on,0,0,3,,,,,,,,,2,,,33,0
73260,note_on,180,0,3,,,,,,,,,2,,,45,0
73260,note_on,0,0,3,,,,,,,,,2,,,40,0
73260,note_on,0,0,1,,,,,,,,,0,,,76,0
73620,control_change,360,0,3,,,,,,,,,2,64,0,,
73620,control_change,360,0,1,,,,,,,,,0,64,0,,
73620,end_of_track,0,1,1,,,,,,,,,,,,,
73620,control_change,600,0,4,,,,,,,,,3,64,0,,
73620,control_change,2214,0,2,,,,,,,,,1,64,0,,
73620,end_of_track,0,1,2,,,,,,,,,,,,,
73620,end_of_track,0,1,3,,,,,,,,,,,,,
73620,end_of_track,0,1,4,,,,,,,,,,,,,
