tick,type,time,meta,track,numerator,denominator,clocks_per_click,notated_32nd_notes_per_beat,key,tempo,port,program,channel,control,value,note,velocity
0,track_name,0,1,0,,,,,,,,,,,,,
0,program_change,0,0,4,,,,,,,,0,3,,,,
0,track_name,0,1,4,,,,,,,,,,,,,
0,midi_port,0,1,4,,,,,,,0,,,,,,
0,midi_port,0,1,1,,,,,,,0,,,,,,
0,track_name,0,1,1,,,,,,,,,,,,,
0,program_change,0,0,1,,,,,,,,0,0,,,,
0,control_change,0,0,1,,,,,,,,,0,7,127,,
0,control_change,0,0,1,,,,,,,,,0,10,97,,
0,control_change,0,0,1,,,,,,,,,0,64,127,,
0,note_on,0,0,1,,,,,,,,,0,,,59,49
0,note_on,0,0,1,,,,,,,,,0,,,64,49
0,note_on,0,0,1,,,,,,,,,0,,,68,49
0,track_name,0,1,2,,,,,,,,,,,,,
0,note_on,0,0,3,,,,,,,,,2,,,40,36
0,control_change,0,0,3,,,,,,,,,2,64,127,,
0,control_change,0,0,3,,,,,,,,,2,10,30,,
0,control_change,0,0,3,,,,,,,,,2,7,127,,
0,program_change,0,0,3,,,,,,,,0,2,,,,
0,track_name,0,1,3,,,,,,,,,,,,,
0,midi_port,0,1,3,,,,,,,0,,,,,,
0,control_change,0,0,2,,,,,,,,,1,10,97,,
0,control_change,0,0,2,,,,,,,,,1,7,127,,
0,program_change,0,0,2,,,,,,,,0,1,,,,
0,control_change,0,0,4,,,,,,,,,3,7,127,,
0,control_change,0,0,4,,,,,,,,,3,10,30,,
0,midi_port,0,1,2,,,,,,,0,,,,,,
0,copyright,0,1,0,,,,,,,,,,,,,
0,text,0,1,0,,,,,,,,,,,,,
0,time_signature,0,1,0,3,4,24,8,,,,,,,,,
0,set_tempo,0,1,0,,,,,,1000000,,,,,,,
0,key_signature,0,1,0,,,,,E,,,,,,,,
9,note_on,0,0,1,,,,,,,,,0,,,64,0
9,note_on,0,0,1,,,,,,,,,0,,,59,0
9,note_on,9,0,1,,,,,,,,,0,,,68,0
90,note_on,0,0,1,,,,,,,,,0,,,64,49
90,note_on,0,0,1,,,,,,,,,0,,,68,49
90,note_on,0,0,3,,,,,,,,,2,,,52,36
90,note_on,81,0,1,,,,,,,,,0,,,59,49
90,note_on,90,0,3,,,,,,,,,2,,,40,0
94,note_on,4,0,1,,,,,,,,,0,,,68,0
94,note_on,0,0,1,,,,,,,,,0,,,64,0
94,note_on,0,0,1,,,,,,,,,0,,,59,0
94,note_on,4,0,3,,,,,,,,,2,,,52,0
120,note_on,26,0,1,,,,,,,,,0,,,59,49
120,note_on,26,0,3,,,,,,,,,2,,,52,36
120,note_on,0,0,1,,,,,,,,,0,,,64,49
120,note_on,0,0,1,,,,,,,,,0,,,68,49
126,note_on,0,0,1,,,,,,,,,0,,,59,0
126,note_on,0,0,1,,,,,,,,,0,,,64,0
126,note_on,6,0,3,,,,,,,,,2,,,52,0
126,note_on,6,0,1,,,,,,,,,0,,,68,0
180,note_on,54,0,1,,,,,,,,,0,,,60,49
180,note_on,54,0,3,,,,,,,,,2,,,52,36
180,note_on,0,0,1,,,,,,,,,0,,,68,49
180,note_on,0,0,1,,,,,,,,,0,,,64,49
186,note_on,0,0,1,,,,,,,,,0,,,60,0
186,note_on,0,0,1,,,,,,,,,0,,,64,0
186,note_on,6,0,1,,,,,,,,,0,,,68,0
186,note_on,6,0,3,,,,,,,,,2,,,52,0
240,control_change,54,0,1,,,,,,,,,0,64,0,,
240,note_on,0,0,1,,,,,,,,,0,,,61,49
240,note_on,0,0,1,,,,,,,,,0,,,69,49
240,note_on,0,0,1,,,,,,,,,0,,,64,49
240,note_on,0,0,3,,,,,,,,,2,,,52,36
240,control_change,54,0,3,,,,,,,,,2,64,0,,
246,note_on,0,0,1,,,,,,,,,0,,,61,0
246,note_on,6,0,3,,,,,,,,,2,,,52,0
246,note_on,6,0,1,,,,,,,,,0,,,69,0
246,note_on,0,0,1,,,,,,,,,0,,,64,0
300,note_on,0,0,1,,,,,,,,,0,,,62,49
300,note_on,0,0,1,,,,,,,,,0,,,71,49
300,note_on,0,0,1,,,,,,,,,0,,,64,49
300,note_on,0,0,3,,,,,,,,,2,,,52,36
300,note_on,0,0,3,,,,,,,,,2,,,44,36
300,control_change,54,0,1,,,,,,,,,0,64,0,,
300,control_change,54,0,3,,,,,,,,,2,64,0,,
306,note_on,0,0,3,,,,,,,,,2,,,44,0
306,note_on,6,0,3,,,,,,,,,2,,,52,0
306,note_on,0,0,1,,,,,,,,,0,,,62,0
306,note_on,6,0,1,,,,,,,,,0,,,71,0
306,note_on,0,0,1,,,,,,,,,0,,,64,0
360,control_change,54,0,1,,,,,,,,,0,64,127,,
360,note_on,360,0,2,,,,,,,,,1,,,61,36
360,note_on,0,0,2,,,,,,,,,1,,,64,36
360,note_on,0,0,1,,,,,,,,,0,,,71,49
360,note_on,54,0,3,,,,,,,,,2,,,45,36
360,note_on,0,0,3,,,,,,,,,2,,,52,36
450,note_on,90,0,1,,,,,,,,,0,,,71,0
450,note_on,0,0,1,,,,,,,,,0,,,69,49
480,note_on,30,0,1,,,,,,,,,0,,,69,0
480,control_change,0,0,1,,,,,,,,,0,64,0,,
480,note_on,0,0,3,,,,,,,,,2,,,45,0
480,note_on,120,0,3,,,,,,,,,2,,,52,0
480,note_on,120,0,2,,,,,,,,,1,,,64,0
480,note_on,0,0,2,,,,,,,,,1,,,61,0
480,note_on,0,0,2,,,,,,,,,1,,,59,36
480,note_on,0,0,2,,,,,,,,,1,,,64,36
480,note_on,0,0,3,,,,,,,,,2,,,52,36
480,note_on,0,0,3,,,,,,,,,2,,,40,36
480,note_on,0,0,1,,,,,,,,,0,,,68,49
600,note_on,120,0,1,,,,,,,,,0,,,68,0
600,note_on,0,0,3,,,,,,,,,2,,,40,0
600,note_on,120,0,3,,,,,,,,,2,,,52,0
600,note_on,0,0,2,,,,,,,,,1,,,59,0
600,note_on,120,0,2,,,,,,,,,1,,,64,0
720,note_on,120,0,1,,,,,,,,,0,,,68,36
720,note_on,0,0,2,,,,,,,,,1,,,63,36
720,note_on,120,0,2,,,,,,,,,1,,,57,36
720,note_on,120,0,3,,,,,,,,,2,,,47,36
810,note_on,90,0,3,,,,,,,,,2,,,47,0
810,note_on,0,0,3,,,,,,,,,2,,,48,36
810,note_on,0,0,1,,,,,,,,,0,,,66,36
810,note_on,90,0,1,,,,,,,,,0,,,68,0
840,note_on,0,0,3,,,,,,,,,2,,,49,36
840,note_on,30,0,3,,,,,,,,,2,,,48,0
840,note_on,0,0,1,,,,,,,,,0,,,64,36
840,note_on,30,0,1,,,,,,,,,0,,,66,0
840,note_on,120,0,2,,,,,,,,,1,,,63,0
840,note_on,0,0,2,,,,,,,,,1,,,57,0
840,note_on,0,0,2,,,,,,,,,1,,,56,36
846,note_on,6,0,2,,,,,,,,,1,,,56,0
846,note_on,6,0,1,,,,,,,,,0,,,64,0
900,note_on,0,0,3,,,,,,,,,2,,,45,36
900,note_on,60,0,3,,,,,,,,,2,,,49,0
900,note_on,54,0,2,,,,,,,,,1,,,57,36
900,note_on,0,0,2,,,,,,,,,1,,,61,36
900,note_on,54,0,1,,,,,,,,,0,,,68,36
906,note_on,6,0,3,,,,,,,,,2,,,45,0
930,note_on,0,0,1,,,,,,,,,0,,,66,36
930,note_on,30,0,1,,,,,,,,,0,,,68,0
960,note_on,60,0,2,,,,,,,,,1,,,61,0
960,note_on,0,0,2,,,,,,,,,1,,,57,0
960,note_on,0,0,2,,,,,,,,,1,,,56,36
960,note_on,0,0,1,,,,,,,,,0,,,64,36
960,note_on,30,0,1,,,,,,,,,0,,,66,0
960,note_on,54,0,3,,,,,,,,,2,,,47,36
966,note_on,6,0,2,,,,,,,,,1,,,56,0
966,note_on,6,0,1,,,,,,,,,0,,,64,0
966,note_on,6,0,3,,,,,,,,,2,,,47,0
1020,note_on,0,0,2,,,,,,,,,1,,,63,36
1020,note_on,54,0,3,,,,,,,,,2,,,47,36
1020,note_on,54,0,2,,,,,,,,,1,,,59,36
1020,note_on,54,0,1,,,,,,,,,0,,,66,36
1026,note_on,6,0,1,,,,,,,,,0,,,66,0
1026,note_on,6,0,2,,,,,,,,,1,,,63,0
1026,note_on,0,0,2,,,,,,,,,1,,,59,0
1026,note_on,6,0,3,,,,,,,,,2,,,47,0
1080,note_on,54,0,2,,,,,,,,,1,,,59,36
1080,note_on,0,0,2,,,,,,,,,1,,,64,36
1080,note_on,0,0,1,,,,,,,,,0,,,68,36
1080,control_change,54,0,1,,,,,,,,,0,64,127,,
1080,control_change,54,0,3,,,,,,,,,2,64,127,,
1080,note_on,0,0,3,,,,,,,,,2,,,52,36
1089,note_on,9,0,3,,,,,,,,,2,,,52,0
1170,note_on,0,0,1,,,,,,,,,0,,,69,36
1170,note_on,90,0,1,,,,,,,,,0,,,68,0
1170,note_on,81,0,3,,,,,,,,,2,,,44,36
1174,note_on,4,0,3,,,,,,,,,2,,,44,0
1185,control_change,0,0,1,,,,,,,,,0,64,0,,
1185,note_on,15,0,1,,,,,,,,,0,,,69,0
1185,note_on,0,0,1,,,,,,,,,0,,,71,36
1200,note_on,15,0,1,,,,,,,,,0,,,71,0
1200,note_on,0,0,1,,,,,,,,,0,,,66,36
1200,note_on,0,0,2,,,,,,,,,1,,,59,0
1200,note_on,0,0,2,,,,,,,,,1,,,59,36
1200,note_on,0,0,2,,,,,,,,,1,,,63,36
1200,note_on,120,0,2,,,,,,,,,1,,,64,0
1200,control_change,26,0,3,,,,,,,,,2,64,0,,
1200,note_on,0,0,3,,,,,,,,,2,,,47,36
1212,note_on,12,0,3,,,,,,,,,2,,,47,0
1320,note_on,120,0,2,,,,,,,,,1,,,63,0
1320,note_on,120,0,1,,,,,,,,,0,,,66,0
1320,note_on,0,0,2,,,,,,,,,1,,,59,0
1440,control_change,228,0,3,,,,,,,,,2,64,127,,
1440,note_on,0,0,3,,,,,,,,,2,,,52,75
1440,note_on,0,0,3,,,,,,,,,2,,,62,75
1440,control_change,120,0,1,,,,,,,,,0,64,127,,
1440,note_on,0,0,1,,,,,,,,,0,,,64,88
1440,note_on,0,0,1,,,,,,,,,0,,,76,88
1440,note_on,0,0,1,,,,,,,,,0,,,68,88
1530,note_on,0,0,3,,,,,,,,,2,,,52,0
1530,note_on,90,0,3,,,,,,,,,2,,,62,0
1530,note_on,0,0,1,,,,,,,,,0,,,64,0
1530,note_on,0,0,1,,,,,,,,,0,,,68,0
1530,note_on,0,0,1,,,,,,,,,0,,,64,49
1530,note_on,0,0,1,,,,,,,,,0,,,68,49
1530,note_on,0,0,3,,,,,,,,,2,,,62,36
1530,note_on,90,0,1,,,,,,,,,0,,,76,0
1530,note_on,0,0,3,,,,,,,,,2,,,52,36
1560,note_on,30,0,1,,,,,,,,,0,,,68,0
1560,note_on,0,0,1,,,,,,,,,0,,,64,0
1560,note_on,0,0,3,,,,,,,,,2,,,52,36
1560,note_on,0,0,3,,,,,,,,,2,,,52,0
1560,note_on,30,0,3,,,,,,,,,2,,,62,0
1560,note_on,0,0,3,,,,,,,,,2,,,62,36
1560,note_on,0,0,1,,,,,,,,,0,,,68,49
1560,note_on,0,0,1,,,,,,,,,0,,,64,49
1566,note_on,6,0,3,,,,,,,,,2,,,62,0
1566,note_on,0,0,3,,,,,,,,,2,,,52,0
1620,note_on,300,0,2,,,,,,,,,1,,,64,36
1620,note_on,0,0,1,,,,,,,,,0,,,64,0
1620,note_on,54,0,3,,,,,,,,,2,,,52,36
1620,note_on,0,0,3,,,,,,,,,2,,,62,36
1620,note_on,0,0,1,,,,,,,,,0,,,76,49
1620,note_on,60,0,1,,,,,,,,,0,,,68,0
1620,note_on,0,0,1,,,,,,,,,0,,,68,49
1626,note_on,6,0,3,,,,,,,,,2,,,62,0
1626,note_on,0,0,3,,,,,,,,,2,,,52,0
1650,note_on,0,0,1,,,,,,,,,0,,,68,49
1650,note_on,30,0,1,,,,,,,,,0,,,76,0
1650,note_on,0,0,1,,,,,,,,,0,,,68,0
1650,control_change,0,0,1,,,,,,,,,0,64,0,,
1680,note_on,0,0,3,,,,,,,,,2,,,52,36
1680,note_on,0,0,3,,,,,,,,,2,,,61,36
1680,note_on,0,0,2,,,,,,,,,1,,,64,36
1680,note_on,60,0,2,,,,,,,,,1,,,64,0
1680,control_change,54,0,3,,,,,,,,,2,64,0,,
1680,note_on,30,0,1,,,,,,,,,0,,,68,0
1680,note_on,0,0,1,,,,,,,,,0,,,69,49
1686,note_on,6,0,3,,,,,,,,,2,,,61,0
1686,note_on,0,0,3,,,,,,,,,2,,,52,0
1686,note_on,6,0,1,,,,,,,,,0,,,69,0
1686,note_on,6,0,2,,,,,,,,,1,,,64,0
1740,note_on,0,0,2,,,,,,,,,1,,,64,36
1740,note_on,54,0,2,,,,,,,,,1,,,62,36
1740,note_on,0,0,3,,,,,,,,,2,,,56,36
1740,note_on,54,0,3,,,,,,,,,2,,,52,36
1740,note_on,54,0,1,,,,,,,,,0,,,71,49
1746,note_on,0,0,2,,,,,,,,,1,,,62,0
1746,note_on,0,0,3,,,,,,,,,2,,,52,0
1746,note_on,6,0,3,,,,,,,,,2,,,56,0
1746,note_on,6,0,1,,,,,,,,,0,,,71,0
1746,note_on,6,0,2,,,,,,,,,1,,,64,0
1800,note_on,0,0,1,,,,,,,,,0,,,71,49
1800,note_on,0,0,1,,,,,,,,,0,,,64,49
1800,note_on,54,0,1,,,,,,,,,0,,,62,49
1800,note_on,0,0,3,,,,,,,,,2,,,56,36
1800,note_on,54,0,3,,,,,,,,,2,,,52,36
1890,note_on,0,0,3,,,,,,,,,2,,,45,36
1890,note_on,0,0,3,,,,,,,,,2,,,52,0
1890,note_on,90,0,3,,,,,,,,,2,,,56,0
1890,note_on,0,0,1,,,,,,,,,0,,,73,49
1890,note_on,0,0,1,,,,,,,,,0,,,64,49
1890,note_on,0,0,1,,,,,,,,,0,,,61,49
1890,note_on,0,0,1,,,,,,,,,0,,,62,0
1890,note_on,0,0,1,,,,,,,,,0,,,64,0
1890,note_on,0,0,3,,,,,,,,,2,,,57,36
1890,note_on,90,0,1,,,,,,,,,0,,,71,0
1920,note_on,30,0,3,,,,,,,,,2,,,57,0
1920,note_on,0,0,1,,,,,,,,,0,,,59,49
1920,note_on,0,0,3,,,,,,,,,2,,,52,36
1920,note_on,0,0,3,,,,,,,,,2,,,56,36
1920,note_on,0,0,1,,,,,,,,,0,,,61,0
1920,note_on,0,0,1,,,,,,,,,0,,,64,0
1920,note_on,0,0,1,,,,,,,,,0,,,64,49
1920,note_on,30,0,1,,,,,,,,,0,,,73,0
1920,note_on,0,0,1,,,,,,,,,0,,,71,49
1920,note_on,0,0,3,,,,,,,,,2,,,45,0
2040,note_on,120,0,1,,,,,,,,,0,,,71,0
2040,note_on,0,0,1,,,,,,,,,0,,,64,0
2040,note_on,0,0,3,,,,,,,,,2,,,52,0
2040,note_on,120,0,3,,,,,,,,,2,,,56,0
2040,note_on,0,0,1,,,,,,,,,0,,,59,0
2160,note_on,120,0,1,,,,,,,,,0,,,71,36
2160,note_on,414,0,2,,,,,,,,,1,,,63,36
2160,note_on,2160,0,4,,,,,,,,,3,,,47,64
2160,note_on,120,0,3,,,,,,,,,2,,,54,36
2250,note_on,90,0,4,,,,,,,,,3,,,47,0
2250,note_on,0,0,1,,,,,,,,,0,,,69,36
2250,note_on,0,0,4,,,,,,,,,3,,,48,64
2250,note_on,90,0,1,,,,,,,,,0,,,71,0
2280,note_on,0,0,3,,,,,,,,,2,,,52,36
2280,note_on,0,0,2,,,,,,,,,1,,,64,36
2280,note_on,120,0,2,,,,,,,,,1,,,63,0
2280,note_on,0,0,1,,,,,,,,,0,,,68,36
2280,note_on,30,0,1,,,,,,,,,0,,,69,0
2280,note_on,120,0,3,,,,,,,,,2,,,54,0
2280,note_on,0,0,4,,,,,,,,,3,,,49,64
2280,note_on,30,0,4,,,,,,,,,3,,,48,0
2340,note_on,60,0,4,,,,,,,,,3,,,49,0
2340,note_on,0,0,2,,,,,,,,,1,,,61,36
2340,note_on,60,0,2,,,,,,,,,1,,,64,0
2340,note_on,60,0,3,,,,,,,,,2,,,52,0
2340,note_on,0,0,1,,,,,,,,,0,,,68,36
2340,note_on,60,0,1,,,,,,,,,0,,,68,0
2340,note_on,0,0,2,,,,,,,,,1,,,57,36
2340,note_on,0,0,4,,,,,,,,,3,,,45,64
2370,note_on,30,0,1,,,,,,,,,0,,,68,0
2370,note_on,0,0,1,,,,,,,,,0,,,66,36
2400,note_on,0,0,2,,,,,,,,,1,,,56,36
2400,note_on,0,0,2,,,,,,,,,1,,,57,0
2400,note_on,60,0,2,,,,,,,,,1,,,61,0
2400,note_on,60,0,4,,,,,,,,,3,,,45,0
2400,note_on,0,0,4,,,,,,,,,3,,,47,64
2400,note_on,30,0,1,,,,,,,,,0,,,66,0
2400,note_on,0,0,1,,,,,,,,,0,,,64,36
2460,note_on,60,0,4,,,,,,,,,3,,,47,0
2460,note_on,0,0,4,,,,,,,,,3,,,47,64
2460,note_on,60,0,2,,,,,,,,,1,,,56,0
2460,note_on,0,0,2,,,,,,,,,1,,,57,36
2460,note_on,0,0,2,,,,,,,,,1,,,63,36
2460,note_on,0,0,1,,,,,,,,,0,,,68,36
2460,note_on,60,0,1,,,,,,,,,0,,,64,0
2490,note_on,0,0,1,,,,,,,,,0,,,66,36
2490,note_on,30,0,1,,,,,,,,,0,,,68,0
2520,note_on,0,0,1,,,,,,,,,0,,,64,36
2520,control_change,0,0,1,,,,,,,,,0,64,127,,
2520,note_on,30,0,1,,,,,,,,,0,,,66,0
2520,note_on,0,0,2,,,,,,,,,1,,,57,0
2520,note_on,180,0,3,,,,,,,,,2,,,52,36
2520,note_on,60,0,2,,,,,,,,,1,,,63,0
2520,note_on,60,0,4,,,,,,,,,3,,,47,0
2520,note_on,0,0,2,,,,,,,,,1,,,56,36
2610,note_on,90,0,3,,,,,,,,,2,,,52,0
2610,note_on,0,0,1,,,,,,,,,0,,,66,36
2610,note_on,90,0,1,,,,,,,,,0,,,64,0
2610,note_on,0,0,3,,,,,,,,,2,,,47,36
2614,note_on,4,0,3,,,,,,,,,2,,,47,0
2625,control_change,0,0,1,,,,,,,,,0,64,0,,
2625,note_on,0,0,1,,,,,,,,,0,,,68,36
2625,note_on,15,0,1,,,,,,,,,0,,,66,0
2640,note_on,15,0,1,,,,,,,,,0,,,68,0
2640,note_on,0,0,1,,,,,,,,,0,,,64,36
2640,note_on,26,0,3,,,,,,,,,2,,,52,36
2640,note_on,120,0,2,,,,,,,,,1,,,56,0
2640,note_on,0,0,2,,,,,,,,,1,,,56,36
2760,note_on,120,0,3,,,,,,,,,2,,,52,0
2760,note_on,120,0,2,,,,,,,,,1,,,56,0
2760,note_on,120,0,1,,,,,,,,,0,,,64,0
2760,note_on,0,0,1,,,,,,,,,0,,,64,88
2760,note_on,0,0,1,,,,,,,,,0,,,76,88
2850,note_on,0,0,1,,,,,,,,,0,,,64,49
2850,note_on,0,0,1,,,,,,,,,0,,,64,0
2850,note_on,0,0,1,,,,,,,,,0,,,76,49
2850,note_on,90,0,1,,,,,,,,,0,,,76,0
2880,note_on,30,0,1,,,,,,,,,0,,,76,0
2880,note_on,0,0,1,,,,,,,,,0,,,64,0
2880,note_on,0,0,1,,,,,,,,,0,,,64,36
2880,note_on,0,0,1,,,,,,,,,0,,,76,36
2880,control_change,0,0,1,,,,,,,,,0,64,127,,
2880,control_change,120,0,3,,,,,,,,,2,64,127,,
2886,note_on,6,0,1,,,,,,,,,0,,,76,0
2886,note_on,0,0,1,,,,,,,,,0,,,64,0
2910,note_on,30,0,3,,,,,,,,,2,,,44,62
2917,note_on,31,0,1,,,,,,,,,0,,,64,36
2925,note_on,8,0,1,,,,,,,,,0,,,69,36
2932,note_on,7,0,1,,,,,,,,,0,,,73,36
2940,note_on,30,0,3,,,,,,,,,2,,,44,0
2940,note_on,0,0,3,,,,,,,,,2,,,45,62
2940,note_on,0,0,1,,,,,,,,,0,,,76,36
2940,control_change,8,0,1,,,,,,,,,0,64,0,,
2945,note_on,5,0,1,,,,,,,,,0,,,73,0
2945,note_on,0,0,1,,,,,,,,,0,,,64,0
2946,note_on,1,0,1,,,,,,,,,0,,,69,0
2946,note_on,0,0,1,,,,,,,,,0,,,76,0
2970,note_on,30,0,3,,,,,,,,,2,,,45,0
2970,note_on,0,0,3,,,,,,,,,2,,,49,62
2970,control_change,0,0,3,,,,,,,,,2,64,0,,
3000,note_on,0,0,1,,,,,,,,,0,,,64,36
3000,control_change,54,0,1,,,,,,,,,0,64,127,,
3000,note_on,30,0,3,,,,,,,,,2,,,49,0
3000,control_change,0,0,3,,,,,,,,,2,64,127,,
3000,note_on,0,0,3,,,,,,,,,2,,,54,62
3000,note_on,0,0,1,,,,,,,,,0,,,76,36
3006,note_on,0,0,1,,,,,,,,,0,,,64,0
3006,note_on,6,0,1,,,,,,,,,0,,,76,0
3030,note_on,30,0,3,,,,,,,,,2,,,54,0
3030,note_on,0,0,3,,,,,,,,,2,,,48,62
3037,note_on,31,0,1,,,,,,,,,0,,,64,36
3045,note_on,8,0,1,,,,,,,,,0,,,69,36
3052,note_on,7,0,1,,,,,,,,,0,,,73,36
3060,control_change,8,0,1,,,,,,,,,0,64,0,,
3060,note_on,0,0,3,,,,,,,,,2,,,49,62
3060,note_on,30,0,3,,,,,,,,,2,,,48,0
3060,note_on,0,0,1,,,,,,,,,0,,,76,36
3065,note_on,5,0,1,,,,,,,,,0,,,73,0
3065,note_on,0,0,1,,,,,,,,,0,,,64,0
3066,note_on,0,0,1,,,,,,,,,0,,,76,0
3066,note_on,1,0,1,,,,,,,,,0,,,69,0
3090,note_on,0,0,3,,,,,,,,,2,,,52,62
3090,control_change,0,0,3,,,,,,,,,2,64,0,,
3090,note_on,30,0,3,,,,,,,,,2,,,49,0
3120,control_change,0,0,3,,,,,,,,,2,64,127,,
3120,note_on,30,0,3,,,,,,,,,2,,,52,0
3120,control_change,54,0,1,,,,,,,,,0,64,127,,
3120,note_on,0,0,1,,,,,,,,,0,,,64,36
3120,note_on,0,0,1,,,,,,,,,0,,,76,36
3120,note_on,0,0,3,,,,,,,,,2,,,59,62
3126,note_on,6,0,1,,,,,,,,,0,,,76,0
3126,note_on,0,0,1,,,,,,,,,0,,,64,0
3150,note_on,30,0,3,,,,,,,,,2,,,59,0
3150,note_on,0,0,3,,,,,,,,,2,,,56,62
3157,note_on,31,0,1,,,,,,,,,0,,,64,36
3165,note_on,8,0,1,,,,,,,,,0,,,69,36
3172,note_on,7,0,1,,,,,,,,,0,,,73,36
3180,control_change,8,0,1,,,,,,,,,0,64,0,,
3180,note_on,0,0,1,,,,,,,,,0,,,76,36
3180,note_on,30,0,3,,,,,,,,,2,,,56,0
3180,note_on,0,0,3,,,,,,,,,2,,,57,62
3185,note_on,5,0,1,,,,,,,,,0,,,73,0
3185,note_on,0,0,1,,,,,,,,,0,,,64,0
3186,note_on,1,0,1,,,,,,,,,0,,,69,0
3186,note_on,0,0,1,,,,,,,,,0,,,76,0
3210,note_on,30,0,3,,,,,,,,,2,,,57,0
3210,control_change,0,0,3,,,,,,,,,2,64,0,,
3210,note_on,0,0,3,,,,,,,,,2,,,61,62
3240,note_on,0,0,1,,,,,,,,,0,,,76,36
3240,control_change,0,0,3,,,,,,,,,2,64,127,,
3240,note_on,0,0,3,,,,,,,,,2,,,62,114
3240,note_on,0,0,1,,,,,,,,,0,,,64,36
3240,control_change,54,0,1,,,,,,,,,0,64,127,,
3240,note_on,30,0,3,,,,,,,,,2,,,61,0
3246,note_on,6,0,1,,,,,,,,,0,,,76,0
3246,note_on,0,0,1,,,,,,,,,0,,,64,0
3277,note_on,31,0,1,,,,,,,,,0,,,64,36
3285,note_on,8,0,1,,,,,,,,,0,,,71,36
3292,note_on,7,0,1,,,,,,,,,0,,,74,36
3300,note_on,8,0,1,,,,,,,,,0,,,76,36
3305,note_on,0,0,1,,,,,,,,,0,,,64,0
3305,note_on,5,0,1,,,,,,,,,0,,,74,0
3306,note_on,0,0,1,,,,,,,,,0,,,76,0
3306,note_on,1,0,1,,,,,,,,,0,,,71,0
3330,note_on,0,0,3,,,,,,,,,2,,,59,62
3330,note_on,90,0,3,,,,,,,,,2,,,62,0
3360,note_on,0,0,3,,,,,,,,,2,,,56,62
3360,note_on,54,0,1,,,,,,,,,0,,,64,36
3360,note_on,30,0,3,,,,,,,,,2,,,59,0
3360,note_on,0,0,1,,,,,,,,,0,,,76,36
3366,note_on,0,0,1,,,,,,,,,0,,,64,0
3366,note_on,6,0,1,,,,,,,,,0,,,76,0
3397,note_on,31,0,1,,,,,,,,,0,,,64,36
3405,note_on,8,0,1,,,,,,,,,0,,,71,36
3412,note_on,7,0,1,,,,,,,,,0,,,74,36
3420,note_on,8,0,1,,,,,,,,,0,,,76,36
3425,note_on,0,0,1,,,,,,,,,0,,,64,0
3425,note_on,5,0,1,,,,,,,,,0,,,74,0
3426,note_on,0,0,1,,,,,,,,,0,,,76,0
3426,note_on,1,0,1,,,,,,,,,0,,,71,0
3480,note_on,0,0,1,,,,,,,,,0,,,76,36
3480,note_on,54,0,1,,,,,,,,,0,,,64,36
3480,note_on,120,0,3,,,,,,,,,2,,,56,0
3486,note_on,0,0,1,,,,,,,,,0,,,64,0
3486,note_on,6,0,1,,,,,,,,,0,,,76,0
3510,control_change,30,0,3,,,,,,,,,2,64,0,,
3510,note_on,0,0,3,,,,,,,,,2,,,40,62
3514,note_on,4,0,3,,,,,,,,,2,,,40,0
3517,note_on,31,0,1,,,,,,,,,0,,,64,36
3525,note_on,8,0,1,,,,,,,,,0,,,71,36
3532,note_on,7,0,1,,,,,,,,,0,,,74,36
3540,note_on,26,0,3,,,,,,,,,2,,,42,62
3540,note_on,0,0,1,,,,,,,,,0,,,76,36
3540,control_change,8,0,1,,,,,,,,,0,64,0,,
3544,note_on,4,0,3,,,,,,,,,2,,,42,0
3545,note_on,5,0,1,,,,,,,,,0,,,74,0
3545,note_on,0,0,1,,,,,,,,,0,,,64,0
3546,note_on,0,0,1,,,,,,,,,0,,,76,0
3546,note_on,1,0,1,,,,,,,,,0,,,71,0
3570,note_on,26,0,3,,,,,,,,,2,,,44,62
3574,note_on,4,0,3,,,,,,,,,2,,,44,0
3600,note_on,0,0,1,,,,,,,,,0,,,76,36
3600,note_on,0,0,1,,,,,,,,,0,,,64,36
3600,control_change,54,0,1,,,,,,,,,0,64,127,,
3600,note_on,0,0,3,,,,,,,,,2,,,45,62
3600,control_change,26,0,3,,,,,,,,,2,64,127,,
3606,note_on,6,0,1,,,,,,,,,0,,,76,0
3606,note_on,0,0,1,,,,,,,,,0,,,64,0
3630,note_on,30,0,3,,,,,,,,,2,,,45,0
3630,note_on,0,0,3,,,,,,,,,2,,,44,62
3637,note_on,31,0,1,,,,,,,,,0,,,64,36
3645,note_on,8,0,1,,,,,,,,,0,,,69,36
3652,note_on,7,0,1,,,,,,,,,0,,,72,36
3660,note_on,0,0,3,,,,,,,,,2,,,45,62
3660,note_on,30,0,3,,,,,,,,,2,,,44,0
3660,control_change,8,0,1,,,,,,,,,0,64,0,,
3660,note_on,0,0,1,,,,,,,,,0,,,76,36
3665,note_on,5,0,1,,,,,,,,,0,,,72,0
3665,note_on,0,0,1,,,,,,,,,0,,,64,0
3666,note_on,1,0,1,,,,,,,,,0,,,69,0
3666,note_on,0,0,1,,,,,,,,,0,,,76,0
3690,note_on,0,0,3,,,,,,,,,2,,,48,62
3690,control_change,0,0,3,,,,,,,,,2,64,0,,
3690,note_on,30,0,3,,,,,,,,,2,,,45,0
3720,control_change,0,0,3,,,,,,,,,2,64,127,,
3720,note_on,30,0,3,,,,,,,,,2,,,48,0
3720,control_change,54,0,1,,,,,,,,,0,64,127,,
3720,note_on,0,0,1,,,,,,,,,0,,,64,36
3720,note_on,0,0,3,,,,,,,,,2,,,53,62
3720,note_on,0,0,1,,,,,,,,,0,,,76,36
3726,note_on,6,0,1,,,,,,,,,0,,,76,0
3726,note_on,0,0,1,,,,,,,,,0,,,64,0
3750,note_on,0,0,3,,,,,,,,,2,,,47,62
3750,note_on,30,0,3,,,,,,,,,2,,,53,0
3757,note_on,31,0,1,,,,,,,,,0,,,64,36
3765,note_on,8,0,1,,,,,,,,,0,,,69,36
3772,note_on,7,0,1,,,,,,,,,0,,,72,36
3780,control_change,8,0,1,,,,,,,,,0,64,0,,
3780,note_on,0,0,1,,,,,,,,,0,,,76,36
3780,note_on,0,0,3,,,,,,,,,2,,,48,62
3780,note_on,30,0,3,,,,,,,,,2,,,47,0
3785,note_on,5,0,1,,,,,,,,,0,,,72,0
3785,note_on,0,0,1,,,,,,,,,0,,,64,0
3786,note_on,1,0,1,,,,,,,,,0,,,69,0
3786,note_on,0,0,1,,,,,,,,,0,,,76,0
3810,note_on,30,0,3,,,,,,,,,2,,,48,0
3810,note_on,0,0,3,,,,,,,,,2,,,52,62
3810,control_change,0,0,3,,,,,,,,,2,64,0,,
3840,note_on,30,0,3,,,,,,,,,2,,,52,0
3840,note_on,0,0,3,,,,,,,,,2,,,59,62
3840,note_on,0,0,1,,,,,,,,,0,,,76,36
3840,note_on,0,0,1,,,,,,,,,0,,,64,36
3840,control_change,54,0,1,,,,,,,,,0,64,127,,
3840,control_change,0,0,3,,,,,,,,,2,64,127,,
3846,note_on,6,0,1,,,,,,,,,0,,,76,0
3846,note_on,0,0,1,,,,,,,,,0,,,64,0
3870,note_on,30,0,3,,,,,,,,,2,,,59,0
3870,note_on,0,0,3,,,,,,,,,2,,,56,62
3877,note_on,31,0,1,,,,,,,,,0,,,64,36
3885,note_on,8,0,1,,,,,,,,,0,,,69,36
3892,note_on,7,0,1,,,,,,,,,0,,,72,36
3900,note_on,0,0,1,,,,,,,,,0,,,76,36
3900,note_on,0,0,3,,,,,,,,,2,,,57,62
3900,control_change,8,0,1,,,,,,,,,0,64,0,,
3900,note_on,30,0,3,,,,,,,,,2,,,56,0
3905,note_on,0,0,1,,,,,,,,,0,,,64,0
3905,note_on,5,0,1,,,,,,,,,0,,,72,0
3906,note_on,0,0,1,,,,,,,,,0,,,76,0
3906,note_on,1,0,1,,,,,,,,,0,,,69,0
3930,note_on,30,0,3,,,,,,,,,2,,,57,0
3930,control_change,0,0,3,,,,,,,,,2,64,0,,
3930,note_on,0,0,3,,,,,,,,,2,,,60,62
3960,note_on,0,0,1,,,,,,,,,0,,,65,49
3960,control_change,54,0,1,,,,,,,,,0,64,127,,
3960,control_change,0,0,3,,,,,,,,,2,64,127,,
3960,note_on,0,0,1,,,,,,,,,0,,,77,49
3960,note_on,0,0,3,,,,,,,,,2,,,62,114
3960,note_on,30,0,3,,,,,,,,,2,,,60,0
3966,note_on,6,0,1,,,,,,,,,0,,,77,0
3966,note_on,0,0,1,,,,,,,,,0,,,65,0
3997,note_on,31,0,1,,,,,,,,,0,,,67,49
4005,note_on,8,0,1,,,,,,,,,0,,,71,49
4012,note_on,7,0,1,,,,,,,,,0,,,74,49
4020,note_on,8,0,1,,,,,,,,,0,,,79,49
4025,note_on,0,0,1,,,,,,,,,0,,,67,0
4025,note_on,5,0,1,,,,,,,,,0,,,74,0
4026,note_on,1,0,1,,,,,,,,,0,,,71,0
4026,note_on,0,0,1,,,,,,,,,0,,,79,0
4050,note_on,90,0,3,,,,,,,,,2,,,62,0
4050,note_on,0,0,3,,,,,,,,,2,,,59,62
4080,note_on,0,0,3,,,,,,,,,2,,,55,75
4080,note_on,30,0,3,,,,,,,,,2,,,59,0
4080,note_on,0,0,1,,,,,,,,,0,,,77,49
4080,note_on,54,0,1,,,,,,,,,0,,,65,49
4086,note_on,6,0,1,,,,,,,,,0,,,77,0
4086,note_on,0,0,1,,,,,,,,,0,,,65,0
4117,note_on,31,0,1,,,,,,,,,0,,,67,49
4125,note_on,8,0,1,,,,,,,,,0,,,71,49
4132,note_on,7,0,1,,,,,,,,,0,,,74,49
4140,note_on,8,0,1,,,,,,,,,0,,,79,49
4145,note_on,5,0,1,,,,,,,,,0,,,74,0
4145,note_on,0,0,1,,,,,,,,,0,,,67,0
4146,note_on,1,0,1,,,,,,,,,0,,,71,0
4146,note_on,0,0,1,,,,,,,,,0,,,79,0
4200,note_on,54,0,1,,,,,,,,,0,,,65,62
4200,note_on,0,0,1,,,,,,,,,0,,,77,62
4200,note_on,120,0,3,,,,,,,,,2,,,55,0
4206,note_on,6,0,1,,,,,,,,,0,,,77,0
4206,note_on,0,0,1,,,,,,,,,0,,,65,0
4230,control_change,30,0,3,,,,,,,,,2,64,0,,
4230,note_on,0,0,3,,,,,,,,,2,,,50,75
4237,note_on,31,0,1,,,,,,,,,0,,,67,62
4245,note_on,8,0,1,,,,,,,,,0,,,71,62
4252,note_on,7,0,1,,,,,,,,,0,,,74,62
4260,note_on,30,0,3,,,,,,,,,2,,,50,0
4260,note_on,0,0,1,,,,,,,,,0,,,79,62
4260,control_change,8,0,1,,,,,,,,,0,64,0,,
4260,note_on,0,0,3,,,,,,,,,2,,,47,75
4265,note_on,0,0,1,,,,,,,,,0,,,67,0
4265,note_on,5,0,1,,,,,,,,,0,,,74,0
4266,note_on,1,0,1,,,,,,,,,0,,,71,0
4266,note_on,0,0,1,,,,,,,,,0,,,79,0
4290,note_on,30,0,3,,,,,,,,,2,,,47,0
4290,note_on,0,0,3,,,,,,,,,2,,,41,75
4320,control_change,54,0,1,,,,,,,,,0,64,127,,
4320,note_on,0,0,1,,,,,,,,,0,,,79,75
4320,note_on,0,0,1,,,,,,,,,0,,,67,75
4320,control_change,0,0,3,,,,,,,,,2,64,127,,
4320,note_on,0,0,3,,,,,,,,,2,,,40,88
4320,note_on,30,0,3,,,,,,,,,2,,,41,0
4326,note_on,0,0,1,,,,,,,,,0,,,67,0
4326,note_on,6,0,1,,,,,,,,,0,,,79,0
4357,note_on,31,0,1,,,,,,,,,0,,,67,75
4365,note_on,8,0,1,,,,,,,,,0,,,72,75
4372,note_on,7,0,1,,,,,,,,,0,,,76,75
4380,note_on,8,0,1,,,,,,,,,0,,,79,75
4385,note_on,5,0,1,,,,,,,,,0,,,76,0
4385,note_on,0,0,1,,,,,,,,,0,,,67,0
4386,note_on,0,0,1,,,,,,,,,0,,,79,0
4386,note_on,1,0,1,,,,,,,,,0,,,72,0
4410,note_on,0,0,3,,,,,,,,,2,,,43,88
4410,note_on,90,0,3,,,,,,,,,2,,,40,0
4440,note_on,0,0,3,,,,,,,,,2,,,47,101
4440,note_on,30,0,3,,,,,,,,,2,,,43,0
4440,note_on,0,0,1,,,,,,,,,0,,,79,88
4440,note_on,54,0,1,,,,,,,,,0,,,67,88
4446,note_on,6,0,1,,,,,,,,,0,,,79,0
4446,note_on,0,0,1,,,,,,,,,0,,,67,0
4477,note_on,31,0,1,,,,,,,,,0,,,67,88
4485,note_on,8,0,1,,,,,,,,,0,,,72,88
4492,note_on,7,0,1,,,,,,,,,0,,,76,88
4500,note_on,0,0,3,,,,,,,,,2,,,48,101
4500,note_on,60,0,3,,,,,,,,,2,,,47,0
4500,control_change,8,0,1,,,,,,,,,0,64,0,,
4500,note_on,0,0,1,,,,,,,,,0,,,79,88
4500,control_change,0,0,3,,,,,,,,,2,64,0,,
4505,note_on,5,0,1,,,,,,,,,0,,,76,0
4505,note_on,0,0,1,,,,,,,,,0,,,67,0
4506,note_on,1,0,1,,,,,,,,,0,,,72,0
4506,note_on,0,0,1,,,,,,,,,0,,,79,0
4560,note_on,0,0,3,,,,,,,,,2,,,52,101
4560,note_on,60,0,3,,,,,,,,,2,,,48,0
4560,note_on,0,0,1,,,,,,,,,0,,,79,88
4560,note_on,54,0,1,,,,,,,,,0,,,67,88
4566,note_on,6,0,1,,,,,,,,,0,,,79,0
4566,note_on,0,0,1,,,,,,,,,0,,,67,0
4597,note_on,31,0,1,,,,,,,,,0,,,68,88
4605,note_on,8,0,1,,,,,,,,,0,,,71,88
4612,note_on,7,0,1,,,,,,,,,0,,,74,88
4620,note_on,8,0,1,,,,,,,,,0,,,80,101
4620,note_on,0,0,3,,,,,,,,,2,,,53,114
4620,note_on,60,0,3,,,,,,,,,2,,,52,0
4625,note_on,0,0,1,,,,,,,,,0,,,68,0
4625,note_on,5,0,1,,,,,,,,,0,,,74,0
4626,note_on,1,0,1,,,,,,,,,0,,,71,0
4626,note_on,0,0,1,,,,,,,,,0,,,80,0
4680,note_on,0,0,1,,,,,,,,,0,,,66,101
4680,note_on,60,0,3,,,,,,,,,2,,,53,0
4680,control_change,0,0,3,,,,,,,,,2,64,127,,
4680,note_on,0,0,3,,,,,,,,,2,,,54,114
4680,control_change,54,0,1,,,,,,,,,0,64,127,,
4680,note_on,0,0,1,,,,,,,,,0,,,78,101
4717,note_on,37,0,1,,,,,,,,,0,,,66,101
4725,note_on,8,0,1,,,,,,,,,0,,,71,101
4732,note_on,7,0,1,,,,,,,,,0,,,75,101
4740,note_on,0,0,1,,,,,,,,,0,,,66,0
4740,note_on,0,0,1,,,,,,,,,0,,,78,101
4740,note_on,8,0,1,,,,,,,,,0,,,78,0
4770,note_on,90,0,3,,,,,,,,,2,,,54,0
4770,note_on,0,0,3,,,,,,,,,2,,,59,114
4800,note_on,30,0,3,,,,,,,,,2,,,59,0
4800,note_on,0,0,1,,,,,,,,,0,,,66,101
4800,note_on,0,0,1,,,,,,,,,0,,,78,101
4800,note_on,0,0,1,,,,,,,,,0,,,71,0
4800,note_on,0,0,1,,,,,,,,,0,,,66,0
4800,note_on,0,0,1,,,,,,,,,0,,,75,0
4800,note_on,60,0,1,,,,,,,,,0,,,78,0
4800,note_on,0,0,3,,,,,,,,,2,,,63,114
4837,note_on,37,0,1,,,,,,,,,0,,,66,101
4845,note_on,8,0,1,,,,,,,,,0,,,71,101
4852,note_on,7,0,1,,,,,,,,,0,,,75,101
4860,note_on,0,0,1,,,,,,,,,0,,,78,101
4860,note_on,0,0,1,,,,,,,,,0,,,66,0
4860,note_on,8,0,1,,,,,,,,,0,,,78,0
4890,control_change,0,0,3,,,,,,,,,2,64,0,,
4890,note_on,90,0,3,,,,,,,,,2,,,63,0
4890,note_on,0,0,3,,,,,,,,,2,,,59,114
4920,note_on,30,0,3,,,,,,,,,2,,,59,0
4920,note_on,60,0,1,,,,,,,,,0,,,78,0
4920,note_on,0,0,1,,,,,,,,,0,,,66,0
4920,note_on,0,0,1,,,,,,,,,0,,,71,0
4920,note_on,0,0,1,,,,,,,,,0,,,66,101
4920,note_on,0,0,1,,,,,,,,,0,,,78,101
4920,control_change,0,0,1,,,,,,,,,0,64,0,,
4920,note_on,0,0,3,,,,,,,,,2,,,64,114
4920,note_on,0,0,1,,,,,,,,,0,,,75,0
4957,note_on,37,0,1,,,,,,,,,0,,,66,101
4965,note_on,8,0,1,,,,,,,,,0,,,70,101
4972,note_on,7,0,1,,,,,,,,,0,,,76,101
4980,note_on,8,0,1,,,,,,,,,0,,,78,0
4980,note_on,0,0,1,,,,,,,,,0,,,66,0
4980,note_on,0,0,1,,,,,,,,,0,,,78,101
5010,note_on,0,0,3,,,,,,,,,2,,,61,114
5010,note_on,90,0,3,,,,,,,,,2,,,64,0
5040,note_on,0,0,1,,,,,,,,,0,,,66,0
5040,note_on,0,0,1,,,,,,,,,0,,,76,0
5040,note_on,60,0,1,,,,,,,,,0,,,78,0
5040,note_on,0,0,1,,,,,,,,,0,,,70,0
5040,note_on,0,0,1,,,,,,,,,0,,,75,88
5040,control_change,0,0,1,,,,,,,,,0,64,127,,
5040,note_on,30,0,3,,,,,,,,,2,,,61,0
5040,control_change,0,0,3,,,,,,,,,2,64,127,,
5040,note_on,0,0,3,,,,,,,,,2,,,59,75
5040,note_on,0,0,1,,,,,,,,,0,,,71,88
5046,note_on,6,0,3,,,,,,,,,2,,,59,0
5100,note_on,54,0,3,,,,,,,,,2,,,47,75
5100,note_on,0,0,3,,,,,,,,,2,,,59,75
5100,set_tempo,5100,1,0,,,,,,1052632,,,,,,,
5106,note_on,6,0,3,,,,,,,,,2,,,59,0
5106,note_on,0,0,3,,,,,,,,,2,,,47,0
5130,note_on,0,0,1,,,,,,,,,0,,,69,88
5130,note_on,90,0,1,,,,,,,,,0,,,75,0
5130,note_on,0,0,1,,,,,,,,,0,,,71,0
5130,note_on,0,0,1,,,,,,,,,0,,,78,88
5160,note_on,0,0,1,,,,,,,,,0,,,69,0
5160,note_on,0,0,1,,,,,,,,,0,,,68,75
5160,note_on,0,0,1,,,,,,,,,0,,,71,75
5160,control_change,0,0,1,,,,,,,,,0,64,0,,
5160,set_tempo,60,1,0,,,,,,1111111,,,,,,,
5160,note_on,30,0,1,,,,,,,,,0,,,78,0
5160,note_on,54,0,3,,,,,,,,,2,,,59,62
5166,note_on,6,0,3,,,,,,,,,2,,,59,0
5220,set_tempo,60,1,0,,,,,,1176471,,,,,,,
5220,note_on,0,0,3,,,,,,,,,2,,,47,62
5220,note_on,0,0,3,,,,,,,,,2,,,59,62
5220,control_change,54,0,3,,,,,,,,,2,64,0,,
5226,note_on,6,0,3,,,,,,,,,2,,,59,0
5226,note_on,0,0,3,,,,,,,,,2,,,47,0
5250,note_on,90,0,1,,,,,,,,,0,,,71,0
5250,note_on,0,0,1,,,,,,,,,0,,,68,0
5250,note_on,0,0,1,,,,,,,,,0,,,65,75
5250,note_on,0,0,1,,,,,,,,,0,,,73,75
5280,set_tempo,60,1,0,,,,,,1276596,,,,,,,
5280,note_on,54,0,3,,,,,,,,,2,,,59,49
5280,note_on,0,0,1,,,,,,,,,0,,,69,62
5280,note_on,0,0,1,,,,,,,,,0,,,66,62
5280,note_on,0,0,1,,,,,,,,,0,,,65,0
5280,note_on,30,0,1,,,,,,,,,0,,,73,0
5286,note_on,6,0,3,,,,,,,,,2,,,59,0
5340,note_on,54,0,3,,,,,,,,,2,,,47,49
5340,note_on,0,0,3,,,,,,,,,2,,,59,49
5340,set_tempo,60,1,0,,,,,,1363636,,,,,,,
5346,note_on,6,0,3,,,,,,,,,2,,,59,0
5346,note_on,0,0,3,,,,,,,,,2,,,47,0
5370,note_on,0,0,1,,,,,,,,,0,,,66,0
5370,note_on,0,0,1,,,,,,,,,0,,,63,62
5370,note_on,0,0,1,,,,,,,,,0,,,71,62
5370,note_on,90,0,1,,,,,,,,,0,,,69,0
5400,control_change,0,0,1,,,,,,,,,0,64,127,,
5400,note_on,0,0,3,,,,,,,,,2,,,52,36
5400,note_on,0,0,3,,,,,,,,,2,,,40,36
5400,control_change,54,0,3,,,,,,,,,2,64,127,,
5400,set_tempo,60,1,0,,,,,,1052632,,,,,,,
5400,note_on,30,0,1,,,,,,,,,0,,,71,0
5400,note_on,0,0,1,,,,,,,,,0,,,63,0
5400,note_on,0,0,1,,,,,,,,,0,,,59,49
5400,note_on,0,0,1,,,,,,,,,0,,,64,49
5400,note_on,0,0,1,,,,,,,,,0,,,68,49
5409,note_on,0,0,1,,,,,,,,,0,,,59,0
5409,note_on,0,0,1,,,,,,,,,0,,,64,0
5409,note_on,9,0,1,,,,,,,,,0,,,68,0
5460,set_tempo,60,1,0,,,,,,1111111,,,,,,,
5490,note_on,81,0,1,,,,,,,,,0,,,59,49
5490,note_on,0,0,1,,,,,,,,,0,,,68,49
5490,note_on,0,0,1,,,,,,,,,0,,,64,49
5490,note_on,0,0,3,,,,,,,,,2,,,52,36
5490,note_on,0,0,3,,,,,,,,,2,,,40,0
5490,note_on,90,0,3,,,,,,,,,2,,,52,0
5494,note_on,4,0,1,,,,,,,,,0,,,68,0
5494,note_on,0,0,1,,,,,,,,,0,,,64,0
5494,note_on,0,0,1,,,,,,,,,0,,,59,0
5494,note_on,4,0,3,,,,,,,,,2,,,52,0
5520,note_on,26,0,3,,,,,,,,,2,,,52,36
5520,note_on,26,0,1,,,,,,,,,0,,,59,49
5520,note_on,0,0,1,,,,,,,,,0,,,68,49
5520,note_on,0,0,1,,,,,,,,,0,,,64,49
5520,set_tempo,60,1,0,,,,,,1200000,,,,,,,
5526,note_on,6,0,3,,,,,,,,,2,,,52,0
5526,note_on,0,0,1,,,,,,,,,0,,,59,0
5526,note_on,0,0,1,,,,,,,,,0,,,64,0
5526,note_on,6,0,1,,,,,,,,,0,,,68,0
5580,note_on,54,0,3,,,,,,,,,2,,,52,36
5580,note_on,0,0,1,,,,,,,,,0,,,68,49
5580,note_on,0,0,1,,,,,,,,,0,,,64,49
5580,note_on,54,0,1,,,,,,,,,0,,,60,49
5586,note_on,6,0,1,,,,,,,,,0,,,68,0
5586,note_on,0,0,1,,,,,,,,,0,,,64,0
5586,note_on,0,0,1,,,,,,,,,0,,,60,0
5586,note_on,6,0,3,,,,,,,,,2,,,52,0
5640,note_on,0,0,3,,,,,,,,,2,,,52,36
5640,note_on,0,0,1,,,,,,,,,0,,,69,49
5640,note_on,0,0,1,,,,,,,,,0,,,64,49
5640,note_on,0,0,1,,,,,,,,,0,,,61,49
5640,control_change,54,0,1,,,,,,,,,0,64,0,,
5640,control_change,54,0,3,,,,,,,,,2,64,0,,
5646,note_on,0,0,1,,,,,,,,,0,,,64,0
5646,note_on,6,0,3,,,,,,,,,2,,,52,0
5646,note_on,0,0,1,,,,,,,,,0,,,61,0
5646,note_on,6,0,1,,,,,,,,,0,,,69,0
5700,note_on,0,0,3,,,,,,,,,2,,,52,36
5700,control_change,54,0,3,,,,,,,,,2,64,0,,
5700,note_on,0,0,3,,,,,,,,,2,,,44,36
5700,note_on,0,0,1,,,,,,,,,0,,,71,49
5700,note_on,0,0,1,,,,,,,,,0,,,64,49
5700,note_on,0,0,1,,,,,,,,,0,,,62,49
5700,control_change,54,0,1,,,,,,,,,0,64,0,,
5706,note_on,0,0,1,,,,,,,,,0,,,64,0
5706,note_on,0,0,3,,,,,,,,,2,,,44,0
5706,note_on,6,0,3,,,,,,,,,2,,,52,0
5706,note_on,0,0,1,,,,,,,,,0,,,62,0
5706,note_on,6,0,1,,,,,,,,,0,,,71,0
5760,set_tempo,240,1,0,,,,,,1000000,,,,,,,
5760,note_on,54,0,3,,,,,,,,,2,,,45,36
5760,note_on,0,0,3,,,,,,,,,2,,,52,36
5760,note_on,0,0,1,,,,,,,,,0,,,71,49
5760,note_on,0,0,2,,,,,,,,,1,,,64,36
5760,note_on,3000,0,2,,,,,,,,,1,,,61,36
5760,control_change,54,0,1,,,,,,,,,0,64,127,,
5850,note_on,90,0,1,,,,,,,,,0,,,71,0
5850,note_on,0,0,1,,,,,,,,,0,,,69,49
5880,note_on,0,0,2,,,,,,,,,1,,,59,36
5880,note_on,0,0,3,,,,,,,,,2,,,45,0
5880,note_on,120,0,2,,,,,,,,,1,,,64,0
5880,note_on,0,0,2,,,,,,,,,1,,,61,0
5880,note_on,30,0,1,,,,,,,,,0,,,69,0
5880,control_change,0,0,1,,,,,,,,,0,64,0,,
5880,note_on,0,0,1,,,,,,,,,0,,,68,49
5880,note_on,0,0,3,,,,,,,,,2,,,40,36
5880,note_on,0,0,3,,,,,,,,,2,,,52,36
5880,note_on,0,0,2,,,,,,,,,1,,,64,36
5880,note_on,120,0,3,,,,,,,,,2,,,52,0
5940,note_on,60,0,3,,,,,,,,,2,,,52,0
5940,note_on,0,0,3,,,,,,,,,2,,,44,36
5940,note_on,0,0,3,,,,,,,,,2,,,40,0
5946,note_on,6,0,3,,,,,,,,,2,,,44,0
6000,note_on,54,0,3,,,,,,,,,2,,,42,36
6000,note_on,120,0,1,,,,,,,,,0,,,68,0
6000,note_on,0,0,2,,,,,,,,,1,,,59,0
6000,note_on,120,0,2,,,,,,,,,1,,,64,0
6006,note_on,6,0,3,,,,,,,,,2,,,42,0
6060,note_on,54,0,3,,,,,,,,,2,,,40,36
6064,note_on,4,0,3,,,,,,,,,2,,,40,0
6120,note_on,0,0,2,,,,,,,,,1,,,63,36
6120,note_on,120,0,2,,,,,,,,,1,,,57,36
6120,note_on,120,0,1,,,,,,,,,0,,,68,36
6120,note_on,56,0,3,,,,,,,,,2,,,47,36
6210,note_on,0,0,3,,,,,,,,,2,,,48,36
6210,note_on,90,0,3,,,,,,,,,2,,,47,0
6210,note_on,90,0,1,,,,,,,,,0,,,68,0
6210,note_on,0,0,1,,,,,,,,,0,,,66,36
6240,note_on,0,0,2,,,,,,,,,1,,,56,36
6240,note_on,30,0,3,,,,,,,,,2,,,48,0
6240,note_on,0,0,3,,,,,,,,,2,,,49,36
6240,note_on,120,0,2,,,,,,,,,1,,,63,0
6240,note_on,0,0,2,,,,,,,,,1,,,57,0
6240,note_on,30,0,1,,,,,,,,,0,,,66,0
6240,note_on,0,0,1,,,,,,,,,0,,,64,36
6246,note_on,6,0,1,,,,,,,,,0,,,64,0
6246,note_on,6,0,2,,,,,,,,,1,,,56,0
6300,note_on,54,0,2,,,,,,,,,1,,,57,36
6300,note_on,0,0,2,,,,,,,,,1,,,61,36
6300,note_on,0,0,3,,,,,,,,,2,,,45,36
6300,note_on,60,0,3,,,,,,,,,2,,,49,0
6300,note_on,54,0,1,,,,,,,,,0,,,68,36
6306,note_on,6,0,3,,,,,,,,,2,,,45,0
6330,note_on,0,0,1,,,,,,,,,0,,,66,36
6330,note_on,30,0,1,,,,,,,,,0,,,68,0
6360,note_on,54,0,3,,,,,,,,,2,,,47,36
6360,note_on,0,0,2,,,,,,,,,1,,,56,36
6360,note_on,0,0,1,,,,,,,,,0,,,64,36
6360,note_on,0,0,2,,,,,,,,,1,,,57,0
6360,note_on,60,0,2,,,,,,,,,1,,,61,0
6360,note_on,30,0,1,,,,,,,,,0,,,66,0
6366,note_on,6,0,1,,,,,,,,,0,,,64,0
6366,note_on,6,0,2,,,,,,,,,1,,,56,0
6366,note_on,6,0,3,,,,,,,,,2,,,47,0
6420,note_on,54,0,2,,,,,,,,,1,,,59,36
6420,note_on,0,0,2,,,,,,,,,1,,,63,36
6420,note_on,54,0,1,,,,,,,,,0,,,66,36
6420,note_on,54,0,3,,,,,,,,,2,,,47,36
6426,note_on,6,0,1,,,,,,,,,0,,,66,0
6426,note_on,0,0,2,,,,,,,,,1,,,59,0
6426,note_on,6,0,2,,,,,,,,,1,,,63,0
6426,note_on,6,0,3,,,,,,,,,2,,,47,0
6480,note_on,0,0,3,,,,,,,,,2,,,52,36
6480,note_on,0,0,2,,,,,,,,,1,,,64,36
6480,note_on,54,0,2,,,,,,,,,1,,,59,36
6480,note_on,0,0,1,,,,,,,,,0,,,68,36
6480,control_change,54,0,3,,,,,,,,,2,64,127,,
6480,control_change,54,0,1,,,,,,,,,0,64,127,,
6489,note_on,9,0,3,,,,,,,,,2,,,52,0
6570,note_on,0,0,1,,,,,,,,,0,,,69,36
6570,note_on,90,0,1,,,,,,,,,0,,,68,0
6570,note_on,81,0,3,,,,,,,,,2,,,44,36
6574,note_on,4,0,3,,,,,,,,,2,,,44,0
6585,note_on,15,0,1,,,,,,,,,0,,,69,0
6585,control_change,0,0,1,,,,,,,,,0,64,0,,
6585,note_on,0,0,1,,,,,,,,,0,,,71,36
6600,note_on,0,0,2,,,,,,,,,1,,,63,36
6600,note_on,15,0,1,,,,,,,,,0,,,71,0
6600,note_on,0,0,2,,,,,,,,,1,,,59,36
6600,control_change,26,0,3,,,,,,,,,2,64,0,,
6600,note_on,120,0,2,,,,,,,,,1,,,64,0
6600,note_on,0,0,2,,,,,,,,,1,,,59,0
6600,note_on,0,0,1,,,,,,,,,0,,,66,36
6600,note_on,0,0,3,,,,,,,,,2,,,47,36
6606,note_on,6,0,3,,,,,,,,,2,,,47,0
6660,note_on,54,0,3,,,,,,,,,2,,,46,36
6720,note_on,120,0,1,,,,,,,,,0,,,66,0
6720,note_on,0,0,2,,,,,,,,,1,,,59,0
6720,note_on,0,0,3,,,,,,,,,2,,,45,36
6720,note_on,60,0,3,,,,,,,,,2,,,46,0
6720,note_on,120,0,2,,,,,,,,,1,,,63,0
6780,note_on,60,0,3,,,,,,,,,2,,,45,0
6780,note_on,0,0,3,,,,,,,,,2,,,42,36
6840,note_on,0,0,3,,,,,,,,,2,,,40,75
6840,note_on,0,0,3,,,,,,,,,2,,,52,75
6840,control_change,0,0,3,,,,,,,,,2,64,127,,
6840,note_on,60,0,3,,,,,,,,,2,,,42,0
6840,note_on,0,0,1,,,,,,,,,0,,,68,88
6840,note_on,0,0,1,,,,,,,,,0,,,64,88
6840,control_change,120,0,1,,,,,,,,,0,64,127,,
6840,note_on,0,0,1,,,,,,,,,0,,,76,88
6930,note_on,0,0,3,,,,,,,,,2,,,40,0
6930,note_on,0,0,3,,,,,,,,,2,,,52,36
6930,note_on,0,0,1,,,,,,,,,0,,,68,49
6930,note_on,0,0,1,,,,,,,,,0,,,64,49
6930,note_on,0,0,1,,,,,,,,,0,,,64,0
6930,note_on,0,0,1,,,,,,,,,0,,,68,0
6930,note_on,90,0,1,,,,,,,,,0,,,76,0
6930,note_on,0,0,3,,,,,,,,,2,,,62,36
6930,note_on,90,0,3,,,,,,,,,2,,,52,0
6960,note_on,0,0,1,,,,,,,,,0,,,64,49
6960,note_on,30,0,1,,,,,,,,,0,,,68,0
6960,note_on,0,0,1,,,,,,,,,0,,,64,0
6960,note_on,0,0,3,,,,,,,,,2,,,62,36
6960,note_on,0,0,3,,,,,,,,,2,,,52,36
6960,note_on,0,0,3,,,,,,,,,2,,,52,0
6960,note_on,30,0,3,,,,,,,,,2,,,62,0
6960,note_on,0,0,1,,,,,,,,,0,,,68,49
6966,note_on,0,0,3,,,,,,,,,2,,,52,0
6966,note_on,6,0,3,,,,,,,,,2,,,62,0
7020,note_on,60,0,1,,,,,,,,,0,,,68,0
7020,note_on,0,0,1,,,,,,,,,0,,,64,0
7020,note_on,0,0,1,,,,,,,,,0,,,68,49
7020,note_on,0,0,1,,,,,,,,,0,,,76,49
7020,note_on,54,0,3,,,,,,,,,2,,,52,36
7020,note_on,0,0,3,,,,,,,,,2,,,62,36
7020,note_on,300,0,2,,,,,,,,,1,,,64,36
7026,note_on,0,0,3,,,,,,,,,2,,,52,0
7026,note_on,6,0,3,,,,,,,,,2,,,62,0
7050,control_change,0,0,1,,,,,,,,,0,64,0,,
7050,note_on,0,0,1,,,,,,,,,0,,,68,49
7050,note_on,0,0,1,,,,,,,,,0,,,68,0
7050,note_on,30,0,1,,,,,,,,,0,,,76,0
7080,note_on,0,0,1,,,,,,,,,0,,,69,49
7080,note_on,0,0,3,,,,,,,,,2,,,61,36
7080,note_on,30,0,1,,,,,,,,,0,,,68,0
7080,note_on,60,0,2,,,,,,,,,1,,,64,0
7080,note_on,0,0,3,,,,,,,,,2,,,52,36
7080,note_on,0,0,2,,,,,,,,,1,,,64,36
7080,control_change,54,0,3,,,,,,,,,2,64,0,,
7086,note_on,6,0,2,,,,,,,,,1,,,64,0
7086,note_on,6,0,1,,,,,,,,,0,,,69,0
7086,note_on,6,0,3,,,,,,,,,2,,,61,0
7086,note_on,0,0,3,,,,,,,,,2,,,52,0
7140,note_on,54,0,2,,,,,,,,,1,,,62,36
7140,note_on,0,0,2,,,,,,,,,1,,,64,36
7140,note_on,0,0,3,,,,,,,,,2,,,56,36
7140,note_on,54,0,3,,,,,,,,,2,,,52,36
7140,note_on,54,0,1,,,,,,,,,0,,,71,49
7146,note_on,6,0,3,,,,,,,,,2,,,56,0
7146,note_on,6,0,1,,,,,,,,,0,,,71,0
7146,note_on,6,0,2,,,,,,,,,1,,,64,0
7146,note_on,0,0,2,,,,,,,,,1,,,62,0
7146,note_on,0,0,3,,,,,,,,,2,,,52,0
7200,note_on,0,0,3,,,,,,,,,2,,,56,36
7200,note_on,0,0,3,,,,,,,,,2,,,52,36
7200,control_change,54,0,3,,,,,,,,,2,64,127,,
7200,note_on,0,0,1,,,,,,,,,0,,,71,75
7200,note_on,0,0,1,,,,,,,,,0,,,64,70
7200,note_on,0,0,1,,,,,,,,,0,,,62,65
7200,control_change,54,0,1,,,,,,,,,0,64,127,,
7290,note_on,0,0,1,,,,,,,,,0,,,62,0
7290,note_on,0,0,1,,,,,,,,,0,,,61,49
7290,note_on,0,0,1,,,,,,,,,0,,,64,49
7290,note_on,0,0,1,,,,,,,,,0,,,73,49
7290,note_on,0,0,1,,,,,,,,,0,,,64,0
7290,note_on,90,0,1,,,,,,,,,0,,,71,0
7290,note_on,90,0,3,,,,,,,,,2,,,56,0
7290,note_on,0,0,3,,,,,,,,,2,,,52,0
7290,note_on,0,0,3,,,,,,,,,2,,,45,36
7290,note_on,0,0,3,,,,,,,,,2,,,57,36
7320,control_change,0,0,3,,,,,,,,,2,64,0,,
7320,note_on,0,0,1,,,,,,,,,0,,,64,49
7320,note_on,0,0,1,,,,,,,,,0,,,71,49
7320,control_change,0,0,1,,,,,,,,,0,64,0,,
7320,note_on,0,0,1,,,,,,,,,0,,,64,0
7320,note_on,30,0,3,,,,,,,,,2,,,57,0
7320,note_on,30,0,1,,,,,,,,,0,,,73,0
7320,note_on,0,0,3,,,,,,,,,2,,,45,0
7320,note_on,0,0,1,,,,,,,,,0,,,59,49
7320,note_on,0,0,1,,,,,,,,,0,,,61,0
7320,note_on,0,0,3,,,,,,,,,2,,,56,36
7320,note_on,0,0,3,,,,,,,,,2,,,52,36
7380,note_on,60,0,3,,,,,,,,,2,,,56,0
7380,note_on,0,0,3,,,,,,,,,2,,,56,36
7380,note_on,0,0,3,,,,,,,,,2,,,52,0
7386,note_on,6,0,3,,,,,,,,,2,,,56,0
7440,note_on,0,0,1,,,,,,,,,0,,,59,0
7440,note_on,0,0,1,,,,,,,,,0,,,64,0
7440,note_on,120,0,1,,,,,,,,,0,,,71,0
7440,note_on,54,0,3,,,,,,,,,2,,,54,36
7446,note_on,6,0,3,,,,,,,,,2,,,54,0
7500,note_on,54,0,3,,,,,,,,,2,,,52,36
7506,note_on,6,0,3,,,,,,,,,2,,,52,0
7560,note_on,0,0,1,,,,,,,,,0,,,71,36
7560,note_on,0,0,2,,,,,,,,,1,,,63,36
7560,note_on,0,0,4,,,,,,,,,3,,,47,64
7560,control_change,414,0,2,,,,,,,,,1,64,127,,
7560,note_on,0,0,3,,,,,,,,,2,,,54,36
7560,control_change,54,0,3,,,,,,,,,2,64,127,,
7560,control_change,120,0,1,,,,,,,,,0,64,127,,
7560,control_change,5040,0,4,,,,,,,,,3,64,127,,
7650,note_on,0,0,1,,,,,,,,,0,,,69,36
7650,note_on,0,0,4,,,,,,,,,3,,,48,64
7650,note_on,90,0,4,,,,,,,,,3,,,47,0
7650,note_on,90,0,1,,,,,,,,,0,,,71,0
7680,note_on,0,0,3,,,,,,,,,2,,,52,36
7680,note_on,120,0,3,,,,,,,,,2,,,54,0
7680,note_on,0,0,2,,,,,,,,,1,,,64,36
7680,note_on,0,0,4,,,,,,,,,3,,,49,64
7680,note_on,120,0,2,,,,,,,,,1,,,63,0
7680,note_on,30,0,1,,,,,,,,,0,,,69,0
7680,note_on,0,0,1,,,,,,,,,0,,,68,36
7680,note_on,30,0,4,,,,,,,,,3,,,48,0
7740,note_on,0,0,3,,,,,,,,,2,,,51,36
7740,note_on,0,0,3,,,,,,,,,2,,,45,36
7740,control_change,0,0,3,,,,,,,,,2,64,0,,
7740,note_on,60,0,3,,,,,,,,,2,,,52,0
7740,note_on,0,0,1,,,,,,,,,0,,,68,36
7740,control_change,0,0,4,,,,,,,,,3,64,0,,
7740,note_on,60,0,4,,,,,,,,,3,,,49,0
7740,note_on,60,0,2,,,,,,,,,1,,,64,0
7740,note_on,60,0,1,,,,,,,,,0,,,68,0
7740,control_change,0,0,2,,,,,,,,,1,64,0,,
7740,note_on,0,0,2,,,,,,,,,1,,,59,36
7740,control_change,0,0,1,,,,,,,,,0,64,0,,
7746,note_on,0,0,3,,,,,,,,,2,,,45,0
7746,note_on,6,0,3,,,,,,,,,2,,,51,0
7770,note_on,30,0,1,,,,,,,,,0,,,68,0
7770,note_on,0,0,1,,,,,,,,,0,,,66,36
7800,note_on,0,0,3,,,,,,,,,2,,,54,36
7800,note_on,54,0,3,,,,,,,,,2,,,45,36
7800,note_on,0,0,2,,,,,,,,,1,,,59,36
7800,note_on,60,0,2,,,,,,,,,1,,,59,0
7800,note_on,0,0,1,,,,,,,,,0,,,64,36
7800,note_on,30,0,1,,,,,,,,,0,,,66,0
7806,note_on,6,0,3,,,,,,,,,2,,,54,0
7806,note_on,0,0,3,,,,,,,,,2,,,45,0
7830,note_on,0,0,1,,,,,,,,,0,,,63,36
7830,note_on,30,0,1,,,,,,,,,0,,,64,0
7860,note_on,0,0,2,,,,,,,,,1,,,63,36
7860,note_on,0,0,3,,,,,,,,,2,,,57,36
7860,note_on,0,0,1,,,,,,,,,0,,,73,36
7860,note_on,30,0,1,,,,,,,,,0,,,63,0
7860,note_on,60,0,2,,,,,,,,,1,,,59,0
7860,note_on,54,0,3,,,,,,,,,2,,,45,36
7864,note_on,0,0,3,,,,,,,,,2,,,45,0
7864,note_on,4,0,3,,,,,,,,,2,,,57,0
7890,note_on,0,0,1,,,,,,,,,0,,,71,36
7890,note_on,30,0,1,,,,,,,,,0,,,73,0
7920,note_on,0,0,1,,,,,,,,,0,,,71,114
7920,control_change,0,0,1,,,,,,,,,0,64,127,,
7920,note_on,30,0,1,,,,,,,,,0,,,71,0
7920,control_change,56,0,3,,,,,,,,,2,64,127,,
7920,note_on,0,0,3,,,,,,,,,2,,,44,91
7920,note_on,0,0,3,,,,,,,,,2,,,52,96
7920,note_on,0,0,3,,,,,,,,,2,,,56,101
7920,note_on,0,0,2,,,,,,,,,1,,,62,75
7920,note_on,0,0,2,,,,,,,,,1,,,64,75
7920,control_change,0,0,2,,,,,,,,,1,64,127,,
7920,note_on,60,0,2,,,,,,,,,1,,,63,0
7980,note_on,0,0,2,,,,,,,,,1,,,64,36
7980,note_on,0,0,2,,,,,,,,,1,,,62,0
7980,note_on,60,0,2,,,,,,,,,1,,,64,0
7980,note_on,60,0,3,,,,,,,,,2,,,56,0
7980,note_on,0,0,3,,,,,,,,,2,,,52,0
7980,note_on,0,0,3,,,,,,,,,2,,,44,0
7980,note_on,0,0,3,,,,,,,,,2,,,56,36
7980,note_on,0,0,3,,,,,,,,,2,,,62,36
7984,note_on,0,0,3,,,,,,,,,2,,,56,0
7984,note_on,4,0,3,,,,,,,,,2,,,62,0
8040,note_on,56,0,3,,,,,,,,,2,,,56,36
8040,note_on,0,0,3,,,,,,,,,2,,,62,36
8040,note_on,0,0,2,,,,,,,,,1,,,64,36
8040,note_on,60,0,2,,,,,,,,,1,,,64,0
8044,note_on,4,0,3,,,,,,,,,2,,,62,0
8044,note_on,0,0,3,,,,,,,,,2,,,56,0
8070,note_on,0,0,1,,,,,,,,,0,,,70,49
8070,note_on,150,0,1,,,,,,,,,0,,,71,0
8100,note_on,0,0,1,,,,,,,,,0,,,74,49
8100,note_on,30,0,1,,,,,,,,,0,,,70,0
8100,note_on,60,0,2,,,,,,,,,1,,,64,0
8100,note_on,0,0,2,,,,,,,,,1,,,64,36
8100,note_on,0,0,3,,,,,,,,,2,,,59,36
8100,note_on,56,0,3,,,,,,,,,2,,,56,36
8106,note_on,0,0,3,,,,,,,,,2,,,56,0
8106,note_on,6,0,3,,,,,,,,,2,,,59,0
8130,note_on,0,0,1,,,,,,,,,0,,,73,49
8130,note_on,30,0,1,,,,,,,,,0,,,74,0
8160,note_on,0,0,3,,,,,,,,,2,,,62,36
8160,note_on,0,0,1,,,,,,,,,0,,,71,49
8160,note_on,0,0,3,,,,,,,,,2,,,56,36
8160,control_change,54,0,3,,,,,,,,,2,64,0,,
8160,note_on,60,0,2,,,,,,,,,1,,,64,0
8160,control_change,0,0,2,,,,,,,,,1,64,0,,
8160,note_on,0,0,2,,,,,,,,,1,,,64,36
8160,control_change,0,0,1,,,,,,,,,0,64,0,,
8160,note_on,30,0,1,,,,,,,,,0,,,73,0
8166,note_on,0,0,3,,,,,,,,,2,,,56,0
8166,note_on,6,0,3,,,,,,,,,2,,,62,0
8190,note_on,30,0,1,,,,,,,,,0,,,71,0
8190,note_on,0,0,1,,,,,,,,,0,,,70,49
8220,note_on,0,0,2,,,,,,,,,1,,,64,36
8220,note_on,60,0,2,,,,,,,,,1,,,64,0
8220,note_on,54,0,3,,,,,,,,,2,,,56,36
8220,note_on,0,0,1,,,,,,,,,0,,,74,49
8220,note_on,0,0,3,,,,,,,,,2,,,59,36
8220,note_on,30,0,1,,,,,,,,,0,,,70,0
8224,note_on,4,0,3,,,,,,,,,2,,,59,0
8224,note_on,0,0,3,,,,,,,,,2,,,56,0
8250,note_on,30,0,1,,,,,,,,,0,,,74,0
8250,note_on,0,0,1,,,,,,,,,0,,,73,49
8280,control_change,56,0,3,,,,,,,,,2,64,127,,
8280,note_on,0,0,3,,,,,,,,,2,,,45,75
8280,note_on,0,0,3,,,,,,,,,2,,,53,75
8280,note_on,0,0,3,,,,,,,,,2,,,57,75
8280,note_on,60,0,2,,,,,,,,,1,,,64,0
8280,control_change,0,0,2,,,,,,,,,1,64,127,,
8280,note_on,0,0,1,,,,,,,,,0,,,74,114
8280,note_on,0,0,2,,,,,,,,,1,,,65,75
8280,note_on,30,0,1,,,,,,,,,0,,,73,0
8280,control_change,0,0,1,,,,,,,,,0,64,127,,
8280,note_on,0,0,2,,,,,,,,,1,,,62,75
8286,note_on,6,0,3,,,,,,,,,2,,,57,0
8286,note_on,0,0,3,,,,,,,,,2,,,45,0
8286,note_on,0,0,3,,,,,,,,,2,,,53,0
8340,note_on,0,0,2,,,,,,,,,1,,,69,36
8340,note_on,0,0,2,,,,,,,,,1,,,65,36
8340,note_on,0,0,2,,,,,,,,,1,,,62,0
8340,note_on,60,0,2,,,,,,,,,1,,,65,0
8340,note_on,54,0,3,,,,,,,,,2,,,57,36
8346,note_on,6,0,3,,,,,,,,,2,,,57,0
8400,note_on,54,0,3,,,,,,,,,2,,,57,36
8400,note_on,0,0,2,,,,,,,,,1,,,69,36
8400,note_on,60,0,2,,,,,,,,,1,,,69,0
8400,note_on,0,0,2,,,,,,,,,1,,,65,36
8400,note_on,0,0,2,,,,,,,,,1,,,65,0
8406,note_on,6,0,3,,,,,,,,,2,,,57,0
8430,note_on,0,0,1,,,,,,,,,0,,,73,49
8430,note_on,150,0,1,,,,,,,,,0,,,74,0
8460,note_on,60,0,2,,,,,,,,,1,,,69,0
8460,note_on,0,0,2,,,,,,,,,1,,,65,0
8460,note_on,0,0,1,,,,,,,,,0,,,77,49
8460,note_on,30,0,1,,,,,,,,,0,,,73,0
8460,note_on,0,0,2,,,,,,,,,1,,,65,36
8460,note_on,54,0,3,,,,,,,,,2,,,57,36
8460,note_on,0,0,2,,,,,,,,,1,,,69,36
8466,note_on,6,0,3,,,,,,,,,2,,,57,0
8490,note_on,0,0,1,,,,,,,,,0,,,76,49
8490,note_on,30,0,1,,,,,,,,,0,,,77,0
8520,note_on,60,0,2,,,,,,,,,1,,,69,0
8520,note_on,30,0,1,,,,,,,,,0,,,76,0
8520,control_change,0,0,1,,,,,,,,,0,64,0,,
8520,note_on,0,0,1,,,,,,,,,0,,,74,75
8520,control_change,54,0,3,,,,,,,,,2,64,0,,
8520,note_on,0,0,3,,,,,,,,,2,,,57,62
8520,note_on,0,0,2,,,,,,,,,1,,,65,0
8520,note_on,0,0,2,,,,,,,,,1,,,65,62
8520,control_change,0,0,2,,,,,,,,,1,64,0,,
8520,note_on,0,0,2,,,,,,,,,1,,,69,62
8526,note_on,6,0,3,,,,,,,,,2,,,57,0
8550,note_on,30,0,1,,,,,,,,,0,,,74,0
8550,note_on,0,0,1,,,,,,,,,0,,,73,75
8580,note_on,0,0,2,,,,,,,,,1,,,65,0
8580,note_on,0,0,2,,,,,,,,,1,,,67,62
8580,note_on,0,0,2,,,,,,,,,1,,,70,62
8580,note_on,30,0,1,,,,,,,,,0,,,73,0
8580,note_on,0,0,1,,,,,,,,,0,,,77,75
8580,note_on,60,0,2,,,,,,,,,1,,,69,0
8580,note_on,54,0,3,,,,,,,,,2,,,48,80
8580,note_on,0,0,3,,,,,,,,,2,,,60,88
8586,note_on,6,0,3,,,,,,,,,2,,,60,0
8586,note_on,0,0,3,,,,,,,,,2,,,48,0
8610,note_on,30,0,1,,,,,,,,,0,,,77,0
8610,note_on,0,0,1,,,,,,,,,0,,,76,75
8640,note_on,30,0,1,,,,,,,,,0,,,76,0
8640,note_on,0,0,1,,,,,,,,,0,,,68,88
8640,note_on,0,0,1,,,,,,,,,0,,,71,88
8640,note_on,0,0,1,,,,,,,,,0,,,76,88
8640,note_on,54,0,3,,,,,,,,,2,,,47,75
8640,note_on,60,0,2,,,,,,,,,1,,,70,0
8640,note_on,0,0,3,,,,,,,,,2,,,59,75
8640,note_on,0,0,2,,,,,,,,,1,,,67,0
8760,note_on,0,0,3,,,,,,,,,2,,,47,0
8760,note_on,120,0,3,,,,,,,,,2,,,59,0
8760,note_on,120,0,1,,,,,,,,,0,,,76,0
8760,note_on,0,0,1,,,,,,,,,0,,,71,0
8760,note_on,0,0,1,,,,,,,,,0,,,68,0
8790,note_on,0,0,1,,,,,,,,,0,,,68,49
8790,note_on,30,0,1,,,,,,,,,0,,,64,49
8820,note_on,0,0,1,,,,,,,,,0,,,69,49
8820,note_on,0,0,1,,,,,,,,,0,,,64,0
8820,note_on,60,0,3,,,,,,,,,2,,,54,75
8820,note_on,0,0,1,,,,,,,,,0,,,63,49
8820,note_on,30,0,1,,,,,,,,,0,,,68,0
8850,note_on,30,0,1,,,,,,,,,0,,,69,0
8850,note_on,0,0,1,,,,,,,,,0,,,63,0
8850,note_on,0,0,1,,,,,,,,,0,,,61,49
8850,note_on,0,0,1,,,,,,,,,0,,,70,49
8880,control_change,1140,0,4,,,,,,,,,3,64,127,,
8880,note_on,30,0,1,,,,,,,,,0,,,70,0
8880,note_on,0,0,1,,,,,,,,,0,,,61,0
8880,note_on,0,0,1,,,,,,,,,0,,,59,49
8880,note_on,0,0,1,,,,,,,,,0,,,71,49
8880,control_change,0,0,1,,,,,,,,,0,64,127,,
8910,note_on,30,0,1,,,,,,,,,0,,,71,0
8910,note_on,30,0,4,,,,,,,,,3,,,51,36
8910,note_on,0,0,1,,,,,,,,,0,,,59,0
8910,note_on,0,0,1,,,,,,,,,0,,,63,49
8910,note_on,0,0,1,,,,,,,,,0,,,69,49
8914,note_on,4,0,4,,,,,,,,,3,,,51,0
8940,note_on,0,0,1,,,,,,,,,0,,,68,49
8940,note_on,0,0,1,,,,,,,,,0,,,64,49
8940,note_on,0,0,1,,,,,,,,,0,,,63,0
8940,note_on,120,0,3,,,,,,,,,2,,,54,0
8940,note_on,0,0,3,,,,,,,,,2,,,59,75
8940,note_on,26,0,4,,,,,,,,,3,,,51,36
8940,note_on,30,0,1,,,,,,,,,0,,,69,0
8944,note_on,4,0,4,,,,,,,,,3,,,51,0
8970,note_on,30,0,3,,,,,,,,,2,,,59,0
8970,note_on,0,0,3,,,,,,,,,2,,,51,75
8970,note_on,0,0,4,,,,,,,,,3,,,51,36
8970,control_change,26,0,4,,,,,,,,,3,64,0,,
8970,note_on,0,0,1,,,,,,,,,0,,,66,49
8970,note_on,30,0,1,,,,,,,,,0,,,68,0
8970,note_on,0,0,1,,,,,,,,,0,,,64,0
8970,control_change,0,0,1,,,,,,,,,0,64,0,,
8970,note_on,0,0,1,,,,,,,,,0,,,59,49
8974,note_on,4,0,4,,,,,,,,,3,,,51,0
9000,note_on,0,0,1,,,,,,,,,0,,,59,0
9000,note_on,0,0,1,,,,,,,,,0,,,56,49
9000,note_on,0,0,1,,,,,,,,,0,,,64,49
9000,note_on,30,0,3,,,,,,,,,2,,,51,0
9000,note_on,30,0,1,,,,,,,,,0,,,66,0
9000,note_on,0,0,3,,,,,,,,,2,,,40,49
9000,note_on,0,0,3,,,,,,,,,2,,,52,49
9060,set_tempo,3300,1,0,,,,,,1052632,,,,,,,
9120,set_tempo,60,1,0,,,,,,1111111,,,,,,,
9120,note_on,0,0,3,,,,,,,,,2,,,40,0
9120,note_on,0,0,1,,,,,,,,,0,,,56,0
9120,note_on,120,0,1,,,,,,,,,0,,,64,0
9120,note_on,120,0,3,,,,,,,,,2,,,52,0
9150,note_on,30,0,3,,,,,,,,,2,,,52,36
9150,note_on,0,0,3,,,,,,,,,2,,,56,36
9180,set_tempo,60,1,0,,,,,,1176471,,,,,,,
9180,note_on,0,0,3,,,,,,,,,2,,,52,0
9180,note_on,30,0,3,,,,,,,,,2,,,56,0
9180,note_on,0,0,3,,,,,,,,,2,,,57,36
9180,note_on,60,0,1,,,,,,,,,0,,,66,62
9180,note_on,0,0,3,,,,,,,,,2,,,51,36
9210,note_on,0,0,3,,,,,,,,,2,,,49,36
9210,note_on,30,0,3,,,,,,,,,2,,,57,0
9210,note_on,0,0,3,,,,,,,,,2,,,58,36
9210,note_on,0,0,3,,,,,,,,,2,,,51,0
9240,note_on,0,0,3,,,,,,,,,2,,,59,36
9240,note_on,0,0,3,,,,,,,,,2,,,47,36
9240,note_on,0,0,3,,,,,,,,,2,,,49,0
9240,note_on,30,0,3,,,,,,,,,2,,,58,0
9240,set_tempo,60,1,0,,,,,,1276596,,,,,,,
9240,control_change,0,0,3,,,,,,,,,2,64,127,,
9270,note_on,0,0,3,,,,,,,,,2,,,51,36
9270,note_on,0,0,3,,,,,,,,,2,,,47,36
9270,note_on,0,0,3,,,,,,,,,2,,,47,0
9270,note_on,30,0,3,,,,,,,,,2,,,59,0
9270,note_on,0,0,3,,,,,,,,,2,,,57,36
9300,note_on,0,0,3,,,,,,,,,2,,,51,0
9300,note_on,0,0,1,,,,,,,,,0,,,71,36
9300,note_on,0,0,3,,,,,,,,,2,,,47,0
9300,note_on,0,0,3,,,,,,,,,2,,,47,36
9300,note_on,30,0,3,,,,,,,,,2,,,57,0
9300,note_on,120,0,1,,,,,,,,,0,,,66,0
9300,note_on,0,0,3,,,,,,,,,2,,,52,36
9300,note_on,0,0,3,,,,,,,,,2,,,56,36
9300,set_tempo,60,1,0,,,,,,1363636,,,,,,,
9300,note_on,660,0,2,,,,,,,,,1,,,71,36
9330,control_change,0,0,3,,,,,,,,,2,64,0,,
9330,note_on,0,0,3,,,,,,,,,2,,,47,0
9330,note_on,0,0,3,,,,,,,,,2,,,52,0
9330,note_on,30,0,3,,,,,,,,,2,,,56,0
9330,note_on,0,0,3,,,,,,,,,2,,,47,36
9330,note_on,30,0,2,,,,,,,,,1,,,71,0
9330,note_on,0,0,2,,,,,,,,,1,,,63,36
9330,note_on,0,0,3,,,,,,,,,2,,,54,36
9360,note_on,0,0,1,,,,,,,,,0,,,69,88
9360,note_on,0,0,1,,,,,,,,,0,,,64,88
9360,note_on,60,0,1,,,,,,,,,0,,,71,0
9360,note_on,0,0,3,,,,,,,,,2,,,40,101
9360,control_change,0,0,3,,,,,,,,,2,64,127,,
9360,note_on,0,0,3,,,,,,,,,2,,,47,0
9360,note_on,30,0,3,,,,,,,,,2,,,54,0
9360,set_tempo,0,1,0,,,,,,1052632,,,,,,,
9360,key_signature,60,1,0,,,,,G,,,,,,,,
9360,note_on,0,0,3,,,,,,,,,2,,,52,101
9360,note_on,30,0,2,,,,,,,,,1,,,63,0
9360,note_on,0,0,1,,,,,,,,,0,,,71,88
9364,note_on,4,0,3,,,,,,,,,2,,,52,0
9364,note_on,0,0,3,,,,,,,,,2,,,40,0
9390,note_on,0,0,3,,,,,,,,,2,,,57,101
9390,note_on,26,0,3,,,,,,,,,2,,,45,101
9394,note_on,0,0,3,,,,,,,,,2,,,45,0
9394,note_on,4,0,3,,,,,,,,,2,,,57,0
9420,note_on,0,0,3,,,,,,,,,2,,,55,101
9420,note_on,26,0,3,,,,,,,,,2,,,43,101
9420,set_tempo,60,1,0,,,,,,1111111,,,,,,,
9424,note_on,0,0,3,,,,,,,,,2,,,43,0
9424,note_on,4,0,3,,,,,,,,,2,,,55,0
9450,control_change,26,0,3,,,,,,,,,2,64,0,,
9450,note_on,0,0,3,,,,,,,,,2,,,54,101
9450,note_on,0,0,3,,,,,,,,,2,,,42,101
9480,note_on,0,0,3,,,,,,,,,2,,,42,0
9480,control_change,0,0,3,,,,,,,,,2,64,127,,
9480,note_on,0,0,3,,,,,,,,,2,,,40,101
9480,note_on,0,0,3,,,,,,,,,2,,,52,101
9480,set_tempo,60,1,0,,,,,,1071429,,,,,,,
9480,note_on,0,0,1,,,,,,,,,0,,,76,88
9480,note_on,30,0,3,,,,,,,,,2,,,54,0
9480,note_on,0,0,1,,,,,,,,,0,,,64,88
9480,note_on,0,0,1,,,,,,,,,0,,,64,0
9480,note_on,0,0,1,,,,,,,,,0,,,69,0
9480,note_on,120,0,1,,,,,,,,,0,,,71,0
9480,note_on,0,0,1,,,,,,,,,0,,,67,88
9484,note_on,4,0,3,,,,,,,,,2,,,52,0
9484,note_on,0,0,3,,,,,,,,,2,,,40,0
9510,note_on,0,0,3,,,,,,,,,2,,,64,101
9510,note_on,26,0,3,,,,,,,,,2,,,52,101
9514,note_on,4,0,3,,,,,,,,,2,,,64,0
9514,note_on,0,0,3,,,,,,,,,2,,,52,0
9540,note_on,0,0,3,,,,,,,,,2,,,60,101
9540,note_on,26,0,3,,,,,,,,,2,,,48,101
9544,note_on,0,0,3,,,,,,,,,2,,,48,0
9544,note_on,4,0,3,,,,,,,,,2,,,60,0
9570,note_on,0,0,3,,,,,,,,,2,,,58,101
9570,note_on,0,0,3,,,,,,,,,2,,,46,101
9570,control_change,26,0,3,,,,,,,,,2,64,0,,
9600,note_on,0,0,3,,,,,,,,,2,,,47,101
9600,note_on,0,0,3,,,,,,,,,2,,,46,0
9600,note_on,0,0,1,,,,,,,,,0,,,67,0
9600,note_on,120,0,1,,,,,,,,,0,,,76,0
9600,note_on,0,0,1,,,,,,,,,0,,,64,88
9600,note_on,0,0,1,,,,,,,,,0,,,67,88
9600,note_on,0,0,1,,,,,,,,,0,,,76,88
9600,note_on,0,0,1,,,,,,,,,0,,,64,0
9600,note_on,30,0,3,,,,,,,,,2,,,58,0
9600,note_on,0,0,3,,,,,,,,,2,,,59,101
9600,control_change,0,0,3,,,,,,,,,2,64,127,,
9604,note_on,0,0,3,,,,,,,,,2,,,47,0
9604,note_on,4,0,3,,,,,,,,,2,,,59,0
9630,note_on,0,0,3,,,,,,,,,2,,,55,101
9630,note_on,26,0,3,,,,,,,,,2,,,43,101
9634,note_on,0,0,3,,,,,,,,,2,,,43,0
9634,note_on,4,0,3,,,,,,,,,2,,,55,0
9660,note_on,0,0,3,,,,,,,,,2,,,54,101
9660,note_on,26,0,3,,,,,,,,,2,,,42,101
9664,note_on,4,0,3,,,,,,,,,2,,,54,0
9664,note_on,0,0,3,,,,,,,,,2,,,42,0
9690,control_change,26,0,3,,,,,,,,,2,64,0,,
9690,note_on,0,0,3,,,,,,,,,2,,,40,101
9690,note_on,0,0,3,,,,,,,,,2,,,52,101
9720,note_on,0,0,1,,,,,,,,,0,,,64,0
9720,note_on,120,0,1,,,,,,,,,0,,,76,0
9720,note_on,0,0,1,,,,,,,,,0,,,67,0
9720,note_on,0,0,1,,,,,,,,,0,,,71,101
9720,note_on,0,0,3,,,,,,,,,2,,,35,101
9720,note_on,0,0,1,,,,,,,,,0,,,78,101
9720,note_on,0,0,1,,,,,,,,,0,,,83,101
9720,note_on,0,0,3,,,,,,,,,2,,,47,101
9720,control_change,0,0,3,,,,,,,,,2,64,127,,
9720,note_on,0,0,3,,,,,,,,,2,,,40,0
9720,note_on,30,0,3,,,,,,,,,2,,,52,0
9720,note_on,0,0,1,,,,,,,,,0,,,76,101
9720,set_tempo,240,1,0,,,,,,1000000,,,,,,,
9724,note_on,0,0,3,,,,,,,,,2,,,35,0
9724,note_on,4,0,3,,,,,,,,,2,,,47,0
9750,note_on,0,0,3,,,,,,,,,2,,,52,101
9750,note_on,26,0,3,,,,,,,,,2,,,40,101
9754,note_on,0,0,3,,,,,,,,,2,,,40,0
9754,note_on,4,0,3,,,,,,,,,2,,,52,0
9780,note_on,0,0,3,,,,,,,,,2,,,50,101
9780,note_on,26,0,3,,,,,,,,,2,,,38,101
9784,note_on,0,0,3,,,,,,,,,2,,,38,0
9784,note_on,4,0,3,,,,,,,,,2,,,50,0
9810,control_change,26,0,3,,,,,,,,,2,64,0,,
9810,note_on,0,0,3,,,,,,,,,2,,,49,101
9810,note_on,0,0,3,,,,,,,,,2,,,37,101
9840,note_on,0,0,3,,,,,,,,,2,,,35,101
9840,control_change,0,0,3,,,,,,,,,2,64,127,,
9840,note_on,0,0,3,,,,,,,,,2,,,37,0
9840,note_on,30,0,3,,,,,,,,,2,,,49,0
9840,note_on,0,0,1,,,,,,,,,0,,,76,0
9840,note_on,0,0,1,,,,,,,,,0,,,71,0
9840,note_on,0,0,3,,,,,,,,,2,,,47,101
9840,note_on,0,0,1,,,,,,,,,0,,,74,101
9840,note_on,0,0,1,,,,,,,,,0,,,71,101
9840,note_on,0,0,1,,,,,,,,,0,,,78,0
9840,note_on,120,0,1,,,,,,,,,0,,,83,0
9840,note_on,0,0,1,,,,,,,,,0,,,83,101
9844,note_on,0,0,3,,,,,,,,,2,,,35,0
9844,note_on,4,0,3,,,,,,,,,2,,,47,0
9870,note_on,26,0,3,,,,,,,,,2,,,47,101
9870,note_on,0,0,3,,,,,,,,,2,,,59,101
9874,note_on,0,0,3,,,,,,,,,2,,,47,0
9874,note_on,4,0,3,,,,,,,,,2,,,59,0
9900,note_on,0,0,3,,,,,,,,,2,,,55,101
9900,note_on,26,0,3,,,,,,,,,2,,,43,101
9904,note_on,4,0,3,,,,,,,,,2,,,55,0
9904,note_on,0,0,3,,,,,,,,,2,,,43,0
9930,control_change,26,0,3,,,,,,,,,2,64,0,,
9930,note_on,0,0,3,,,,,,,,,2,,,41,101
9930,note_on,0,0,3,,,,,,,,,2,,,53,101
9960,note_on,0,0,1,,,,,,,,,0,,,71,0
9960,note_on,0,0,1,,,,,,,,,0,,,71,101
9960,note_on,0,0,1,,,,,,,,,0,,,74,101
9960,note_on,0,0,3,,,,,,,,,2,,,54,101
9960,note_on,0,0,3,,,,,,,,,2,,,42,101
9960,control_change,0,0,3,,,,,,,,,2,64,127,,
9960,note_on,0,0,3,,,,,,,,,2,,,41,0
9960,note_on,30,0,3,,,,,,,,,2,,,53,0
9960,note_on,0,0,1,,,,,,,,,0,,,83,101
9960,note_on,0,0,1,,,,,,,,,0,,,74,0
9960,note_on,120,0,1,,,,,,,,,0,,,83,0
9964,note_on,4,0,3,,,,,,,,,2,,,54,0
9964,note_on,0,0,3,,,,,,,,,2,,,42,0
9990,note_on,26,0,3,,,,,,,,,2,,,38,101
9990,note_on,0,0,3,,,,,,,,,2,,,50,101
9994,note_on,0,0,3,,,,,,,,,2,,,38,0
9994,note_on,4,0,3,,,,,,,,,2,,,50,0
10020,note_on,0,0,3,,,,,,,,,2,,,49,101
10020,note_on,26,0,3,,,,,,,,,2,,,37,101
10024,note_on,0,0,3,,,,,,,,,2,,,37,0
10024,note_on,4,0,3,,,,,,,,,2,,,49,0
10050,note_on,0,0,3,,,,,,,,,2,,,35,101
10050,note_on,0,0,3,,,,,,,,,2,,,47,101
10050,control_change,26,0,3,,,,,,,,,2,64,0,,
10080,note_on,30,0,3,,,,,,,,,2,,,47,0
10080,note_on,0,0,3,,,,,,,,,2,,,35,0
10080,control_change,0,0,3,,,,,,,,,2,64,127,,
10080,note_on,0,0,3,,,,,,,,,2,,,30,101
10080,note_on,120,0,1,,,,,,,,,0,,,83,0
10080,note_on,0,0,3,,,,,,,,,2,,,42,101
10080,note_on,0,0,1,,,,,,,,,0,,,71,0
10080,note_on,0,0,1,,,,,,,,,0,,,78,101
10080,note_on,0,0,1,,,,,,,,,0,,,83,101
10080,note_on,0,0,1,,,,,,,,,0,,,85,101
10080,note_on,0,0,1,,,,,,,,,0,,,90,101
10080,note_on,0,0,1,,,,,,,,,0,,,74,0
10084,note_on,4,0,3,,,,,,,,,2,,,42,0
10084,note_on,0,0,3,,,,,,,,,2,,,30,0
10110,note_on,26,0,3,,,,,,,,,2,,,35,101
10110,note_on,0,0,3,,,,,,,,,2,,,47,101
10114,note_on,0,0,3,,,,,,,,,2,,,35,0
10114,note_on,4,0,3,,,,,,,,,2,,,47,0
10140,note_on,26,0,3,,,,,,,,,2,,,33,101
10140,note_on,0,0,3,,,,,,,,,2,,,45,101
10144,note_on,4,0,3,,,,,,,,,2,,,45,0
10144,note_on,0,0,3,,,,,,,,,2,,,33,0
10170,control_change,26,0,3,,,,,,,,,2,64,0,,
10170,note_on,0,0,3,,,,,,,,,2,,,32,101
10170,note_on,0,0,3,,,,,,,,,2,,,44,101
10200,note_on,30,0,3,,,,,,,,,2,,,44,0
10200,note_on,0,0,3,,,,,,,,,2,,,32,0
10200,note_on,0,0,3,,,,,,,,,2,,,42,101
10200,note_on,0,0,3,,,,,,,,,2,,,30,101
10200,note_on,120,0,1,,,,,,,,,0,,,90,0
10200,note_on,0,0,1,,,,,,,,,0,,,78,0
10200,note_on,0,0,1,,,,,,,,,0,,,83,0
10200,note_on,0,0,1,,,,,,,,,0,,,85,0
10200,note_on,0,0,1,,,,,,,,,0,,,78,101
10200,note_on,0,0,1,,,,,,,,,0,,,81,101
10200,control_change,0,0,3,,,,,,,,,2,64,127,,
10200,note_on,0,0,1,,,,,,,,,0,,,85,101
10200,note_on,0,0,1,,,,,,,,,0,,,90,101
10204,note_on,0,0,3,,,,,,,,,2,,,30,0
10204,note_on,4,0,3,,,,,,,,,2,,,42,0
10230,note_on,0,0,3,,,,,,,,,2,,,54,101
10230,note_on,26,0,3,,,,,,,,,2,,,42,101
10234,note_on,0,0,3,,,,,,,,,2,,,42,0
10234,note_on,4,0,3,,,,,,,,,2,,,54,0
10260,note_on,26,0,3,,,,,,,,,2,,,38,101
10260,note_on,0,0,3,,,,,,,,,2,,,50,101
10264,note_on,4,0,3,,,,,,,,,2,,,50,0
10264,note_on,0,0,3,,,,,,,,,2,,,38,0
10290,note_on,0,0,3,,,,,,,,,2,,,48,101
10290,note_on,0,0,3,,,,,,,,,2,,,36,101
10290,control_change,26,0,3,,,,,,,,,2,64,0,,
10320,note_on,0,0,1,,,,,,,,,0,,,90,101
10320,control_change,0,0,3,,,,,,,,,2,64,127,,
10320,note_on,0,0,3,,,,,,,,,2,,,37,101
10320,note_on,0,0,3,,,,,,,,,2,,,49,101
10320,note_on,0,0,1,,,,,,,,,0,,,85,101
10320,note_on,0,0,1,,,,,,,,,0,,,78,101
10320,note_on,0,0,1,,,,,,,,,0,,,85,0
10320,note_on,0,0,1,,,,,,,,,0,,,81,0
10320,note_on,0,0,1,,,,,,,,,0,,,78,0
10320,note_on,0,0,1,,,,,,,,,0,,,81,101
10320,note_on,120,0,1,,,,,,,,,0,,,90,0
10320,note_on,0,0,3,,,,,,,,,2,,,36,0
10320,note_on,30,0,3,,,,,,,,,2,,,48,0
10324,note_on,4,0,3,,,,,,,,,2,,,49,0
10324,note_on,0,0,3,,,,,,,,,2,,,37,0
10350,note_on,26,0,3,,,,,,,,,2,,,33,101
10350,note_on,0,0,3,,,,,,,,,2,,,45,101
10354,note_on,4,0,3,,,,,,,,,2,,,45,0
10354,note_on,0,0,3,,,,,,,,,2,,,33,0
10380,note_on,26,0,3,,,,,,,,,2,,,32,101
10380,note_on,0,0,3,,,,,,,,,2,,,44,101
10384,note_on,0,0,3,,,,,,,,,2,,,32,0
10384,note_on,4,0,3,,,,,,,,,2,,,44,0
10410,note_on,0,0,3,,,,,,,,,2,,,30,101
10410,note_on,0,0,3,,,,,,,,,2,,,42,101
10410,control_change,26,0,3,,,,,,,,,2,64,0,,
10440,note_on,0,0,3,,,,,,,,,2,,,28,101
10440,note_on,0,0,1,,,,,,,,,0,,,88,101
10440,note_on,0,0,1,,,,,,,,,0,,,91,101
10440,control_change,0,0,1,,,,,,,,,0,64,127,,
10440,note_on,0,0,3,,,,,,,,,2,,,30,0
10440,note_on,120,0,1,,,,,,,,,0,,,90,0
10440,control_change,0,0,3,,,,,,,,,2,64,127,,
10440,note_on,0,0,1,,,,,,,,,0,,,78,0
10440,note_on,0,0,1,,,,,,,,,0,,,85,0
10440,note_on,0,0,1,,,,,,,,,0,,,79,101
10440,note_on,0,0,1,,,,,,,,,0,,,84,101
10440,note_on,0,0,3,,,,,,,,,2,,,40,101
10440,note_on,0,0,1,,,,,,,,,0,,,81,0
10440,note_on,30,0,3,,,,,,,,,2,,,42,0
10470,note_on,0,0,3,,,,,,,,,2,,,40,101
10470,note_on,0,0,3,,,,,,,,,2,,,28,101
10470,note_on,0,0,3,,,,,,,,,2,,,28,0
10470,note_on,30,0,3,,,,,,,,,2,,,40,0
10500,note_on,30,0,3,,,,,,,,,2,,,40,0
10500,note_on,0,0,3,,,,,,,,,2,,,31,101
10500,note_on,0,0,3,,,,,,,,,2,,,43,101
10500,note_on,0,0,3,,,,,,,,,2,,,28,0
10530,note_on,0,0,3,,,,,,,,,2,,,36,101
10530,note_on,30,0,3,,,,,,,,,2,,,43,0
10530,note_on,0,0,3,,,,,,,,,2,,,31,0
10530,note_on,0,0,3,,,,,,,,,2,,,48,101
10560,note_on,0,0,3,,,,,,,,,2,,,52,101
10560,note_on,0,0,3,,,,,,,,,2,,,40,101
10560,note_on,0,0,3,,,,,,,,,2,,,36,0
10560,note_on,120,0,1,,,,,,,,,0,,,91,0
10560,note_on,0,0,1,,,,,,,,,0,,,79,0
10560,note_on,0,0,1,,,,,,,,,0,,,84,0
10560,note_on,0,0,1,,,,,,,,,0,,,88,0
10560,note_on,0,0,1,,,,,,,,,0,,,79,101
10560,note_on,0,0,1,,,,,,,,,0,,,84,101
10560,note_on,0,0,1,,,,,,,,,0,,,88,101
10560,note_on,0,0,1,,,,,,,,,0,,,91,101
10560,note_on,30,0,3,,,,,,,,,2,,,48,0
10590,note_on,30,0,3,,,,,,,,,2,,,52,0
10590,note_on,0,0,3,,,,,,,,,2,,,55,101
10590,note_on,0,0,3,,,,,,,,,2,,,43,101
10590,note_on,0,0,3,,,,,,,,,2,,,40,0
10620,note_on,0,0,3,,,,,,,,,2,,,48,101
10620,note_on,0,0,3,,,,,,,,,2,,,43,0
10620,note_on,0,0,3,,,,,,,,,2,,,60,101
10620,note_on,30,0,3,,,,,,,,,2,,,55,0
10650,note_on,0,0,3,,,,,,,,,2,,,48,0
10650,note_on,0,0,3,,,,,,,,,2,,,52,101
10650,note_on,0,0,3,,,,,,,,,2,,,64,101
10650,note_on,30,0,3,,,,,,,,,2,,,60,0
10680,note_on,0,0,3,,,,,,,,,2,,,55,101
10680,note_on,0,0,3,,,,,,,,,2,,,52,0
10680,note_on,30,0,3,,,,,,,,,2,,,64,0
10680,note_on,0,0,3,,,,,,,,,2,,,67,101
10680,note_on,0,0,1,,,,,,,,,0,,,79,101
10680,control_change,0,0,1,,,,,,,,,0,64,0,,
10680,note_on,0,0,1,,,,,,,,,0,,,84,0
10680,note_on,0,0,1,,,,,,,,,0,,,91,101
10680,note_on,0,0,1,,,,,,,,,0,,,88,101
10680,note_on,0,0,1,,,,,,,,,0,,,84,101
10680,note_on,0,0,1,,,,,,,,,0,,,79,0
10680,note_on,120,0,1,,,,,,,,,0,,,91,0
10680,note_on,0,0,1,,,,,,,,,0,,,88,0
10710,note_on,0,0,3,,,,,,,,,2,,,52,101
10710,note_on,0,0,3,,,,,,,,,2,,,55,0
10710,note_on,30,0,3,,,,,,,,,2,,,67,0
10710,note_on,0,0,3,,,,,,,,,2,,,64,101
10740,note_on,0,0,3,,,,,,,,,2,,,52,0
10740,note_on,30,0,3,,,,,,,,,2,,,64,0
10740,note_on,0,0,3,,,,,,,,,2,,,62,101
10740,note_on,0,0,3,,,,,,,,,2,,,50,101
10770,note_on,0,0,3,,,,,,,,,2,,,50,0
10770,note_on,0,0,3,,,,,,,,,2,,,48,101
10770,note_on,0,0,3,,,,,,,,,2,,,60,101
10770,note_on,30,0,3,,,,,,,,,2,,,62,0
10800,note_on,0,0,1,,,,,,,,,0,,,79,0
10800,note_on,0,0,3,,,,,,,,,2,,,48,0
10800,note_on,0,0,1,,,,,,,,,0,,,84,0
10800,note_on,0,0,1,,,,,,,,,0,,,88,0
10800,note_on,0,0,1,,,,,,,,,0,,,79,101
10800,note_on,0,0,1,,,,,,,,,0,,,84,101
10800,note_on,0,0,1,,,,,,,,,0,,,86,101
10800,note_on,120,0,1,,,,,,,,,0,,,91,0
10800,note_on,0,0,1,,,,,,,,,0,,,91,101
10800,control_change,0,0,3,,,,,,,,,2,64,127,,
10800,note_on,0,0,3,,,,,,,,,2,,,53,101
10800,note_on,0,0,3,,,,,,,,,2,,,65,101
10800,control_change,0,0,1,,,,,,,,,0,64,127,,
10800,note_on,30,0,3,,,,,,,,,2,,,60,0
10830,note_on,30,0,3,,,,,,,,,2,,,65,0
10830,note_on,0,0,3,,,,,,,,,2,,,49,101
10830,note_on,0,0,3,,,,,,,,,2,,,61,101
10830,note_on,0,0,3,,,,,,,,,2,,,53,0
10860,note_on,30,0,3,,,,,,,,,2,,,61,0
10860,note_on,0,0,3,,,,,,,,,2,,,49,0
10860,note_on,0,0,3,,,,,,,,,2,,,50,101
10860,note_on,0,0,3,,,,,,,,,2,,,62,101
10890,note_on,0,0,3,,,,,,,,,2,,,52,101
10890,note_on,0,0,3,,,,,,,,,2,,,64,101
10890,note_on,0,0,3,,,,,,,,,2,,,50,0
10890,note_on,30,0,3,,,,,,,,,2,,,62,0
10920,note_on,30,0,3,,,,,,,,,2,,,64,0
10920,note_on,0,0,3,,,,,,,,,2,,,52,0
10920,note_on,0,0,3,,,,,,,,,2,,,53,101
10920,note_on,0,0,3,,,,,,,,,2,,,65,101
10920,note_on,0,0,1,,,,,,,,,0,,,86,101
10920,note_on,120,0,1,,,,,,,,,0,,,91,0
10920,note_on,0,0,1,,,,,,,,,0,,,79,0
10920,note_on,0,0,1,,,,,,,,,0,,,84,0
10920,note_on,0,0,1,,,,,,,,,0,,,86,0
10920,note_on,0,0,1,,,,,,,,,0,,,79,101
10920,note_on,0,0,1,,,,,,,,,0,,,83,101
10920,note_on,0,0,1,,,,,,,,,0,,,91,101
10950,note_on,30,0,3,,,,,,,,,2,,,65,0
10950,note_on,0,0,3,,,,,,,,,2,,,53,0
10950,note_on,0,0,3,,,,,,,,,2,,,37,101
10950,note_on,0,0,3,,,,,,,,,2,,,49,101
10980,note_on,30,0,3,,,,,,,,,2,,,49,0
10980,note_on,0,0,3,,,,,,,,,2,,,38,101
10980,note_on,0,0,3,,,,,,,,,2,,,50,101
10980,note_on,0,0,3,,,,,,,,,2,,,37,0
11010,note_on,0,0,3,,,,,,,,,2,,,52,101
11010,note_on,0,0,3,,,,,,,,,2,,,40,101
11010,note_on,0,0,3,,,,,,,,,2,,,38,0
11010,note_on,30,0,3,,,,,,,,,2,,,50,0
11040,note_on,0,0,3,,,,,,,,,2,,,40,0
11040,note_on,0,0,1,,,,,,,,,0,,,83,0
11040,note_on,0,0,1,,,,,,,,,0,,,86,0
11040,note_on,0,0,1,,,,,,,,,0,,,79,101
11040,note_on,0,0,1,,,,,,,,,0,,,83,101
11040,note_on,0,0,1,,,,,,,,,0,,,86,101
11040,note_on,0,0,1,,,,,,,,,0,,,91,101
11040,note_on,0,0,1,,,,,,,,,0,,,79,0
11040,note_on,120,0,1,,,,,,,,,0,,,91,0
11040,note_on,0,0,3,,,,,,,,,2,,,53,101
11040,control_change,0,0,1,,,,,,,,,0,64,0,,
11040,note_on,30,0,3,,,,,,,,,2,,,52,0
11040,note_on,0,0,3,,,,,,,,,2,,,41,101
11070,note_on,0,0,3,,,,,,,,,2,,,41,0
11070,note_on,30,0,3,,,,,,,,,2,,,53,0
11070,note_on,0,0,3,,,,,,,,,2,,,38,101
11070,note_on,0,0,3,,,,,,,,,2,,,50,101
11100,note_on,30,0,3,,,,,,,,,2,,,50,0
11100,note_on,0,0,3,,,,,,,,,2,,,38,0
11100,note_on,0,0,3,,,,,,,,,2,,,35,101
11100,note_on,0,0,3,,,,,,,,,2,,,47,101
11130,note_on,0,0,3,,,,,,,,,2,,,31,101
11130,note_on,0,0,3,,,,,,,,,2,,,43,101
11130,control_change,0,0,3,,,,,,,,,2,64,0,,
11130,note_on,0,0,3,,,,,,,,,2,,,35,0
11130,note_on,30,0,3,,,,,,,,,2,,,47,0
11160,note_on,0,0,3,,,,,,,,,2,,,48,101
11160,control_change,0,0,3,,,,,,,,,2,64,127,,
11160,note_on,0,0,3,,,,,,,,,2,,,31,0
11160,note_on,30,0,3,,,,,,,,,2,,,43,0
11160,note_on,0,0,1,,,,,,,,,0,,,86,0
11160,key_signature,1440,1,0,,,,,C,,,,,,,,
11160,note_on,120,0,1,,,,,,,,,0,,,91,0
11160,control_change,0,0,1,,,,,,,,,0,64,127,,
11160,note_on,0,0,1,,,,,,,,,0,,,83,0
11160,note_on,0,0,3,,,,,,,,,2,,,36,101
11160,note_on,0,0,1,,,,,,,,,0,,,72,49
11160,note_on,0,0,1,,,,,,,,,0,,,84,49
11160,note_on,0,0,1,,,,,,,,,0,,,79,49
11160,note_on,0,0,1,,,,,,,,,0,,,76,49
11160,note_on,0,0,1,,,,,,,,,0,,,79,0
11164,note_on,4,0,1,,,,,,,,,0,,,84,0
11164,note_on,0,0,1,,,,,,,,,0,,,72,0
11164,note_on,0,0,1,,,,,,,,,0,,,76,0
11164,note_on,0,0,1,,,,,,,,,0,,,79,0
11190,note_on,26,0,1,,,,,,,,,0,,,84,49
11194,note_on,4,0,1,,,,,,,,,0,,,84,0
11220,note_on,60,0,3,,,,,,,,,2,,,48,0
11220,note_on,0,0,3,,,,,,,,,2,,,36,0
11220,note_on,26,0,1,,,,,,,,,0,,,83,49
11224,note_on,4,0,1,,,,,,,,,0,,,83,0
11250,note_on,26,0,1,,,,,,,,,0,,,81,49
11254,note_on,4,0,1,,,,,,,,,0,,,81,0
11280,note_on,60,0,3,,,,,,,,,2,,,60,36
11280,note_on,0,0,3,,,,,,,,,2,,,64,36
11280,note_on,26,0,1,,,,,,,,,0,,,79,49
11284,note_on,4,0,1,,,,,,,,,0,,,79,0
11286,note_on,6,0,3,,,,,,,,,2,,,64,0
11286,note_on,0,0,3,,,,,,,,,2,,,60,0
11310,note_on,26,0,1,,,,,,,,,0,,,88,49
11314,note_on,4,0,1,,,,,,,,,0,,,88,0
11340,note_on,26,0,1,,,,,,,,,0,,,86,49
11344,note_on,4,0,1,,,,,,,,,0,,,86,0
11370,note_on,26,0,1,,,,,,,,,0,,,84,49
11374,note_on,4,0,1,,,,,,,,,0,,,84,0
11400,note_on,0,0,3,,,,,,,,,2,,,64,36
11400,note_on,26,0,1,,,,,,,,,0,,,83,49
11400,note_on,114,0,3,,,,,,,,,2,,,60,36
11404,note_on,4,0,1,,,,,,,,,0,,,83,0
11406,note_on,0,0,3,,,,,,,,,2,,,60,0
11406,note_on,6,0,3,,,,,,,,,2,,,64,0
11430,note_on,26,0,1,,,,,,,,,0,,,84,49
11434,note_on,4,0,1,,,,,,,,,0,,,84,0
11460,control_change,54,0,3,,,,,,,,,2,64,0,,
11460,note_on,26,0,1,,,,,,,,,0,,,83,49
11464,note_on,4,0,1,,,,,,,,,0,,,83,0
11490,control_change,26,0,1,,,,,,,,,0,64,0,,
11490,note_on,0,0,1,,,,,,,,,0,,,81,49
11494,note_on,4,0,1,,,,,,,,,0,,,81,0
11520,control_change,2160,0,2,,,,,,,,,1,64,127,,
11520,note_on,2546,0,4,,,,,,,,,3,,,52,36
11520,note_on,26,0,1,,,,,,,,,0,,,80,49
11520,control_change,60,0,3,,,,,,,,,2,64,127,,
11550,note_on,30,0,2,,,,,,,,,1,,,74,49
11550,note_on,30,0,3,,,,,,,,,2,,,65,36
11554,note_on,4,0,2,,,,,,,,,1,,,74,0
11554,note_on,4,0,3,,,,,,,,,2,,,65,0
11580,note_on,26,0,3,,,,,,,,,2,,,64,36
11580,note_on,60,0,4,,,,,,,,,3,,,52,0
11580,note_on,26,0,2,,,,,,,,,1,,,73,49
11584,note_on,4,0,2,,,,,,,,,1,,,73,0
11584,note_on,4,0,3,,,,,,,,,2,,,64,0
11610,note_on,26,0,2,,,,,,,,,1,,,72,49
11610,note_on,26,0,3,,,,,,,,,2,,,63,36
11614,note_on,4,0,3,,,,,,,,,2,,,63,0
11614,note_on,4,0,2,,,,,,,,,1,,,72,0
11640,note_on,26,0,2,,,,,,,,,1,,,71,49
11640,note_on,26,0,3,,,,,,,,,2,,,62,36
11644,note_on,4,0,3,,,,,,,,,2,,,62,0
11644,note_on,4,0,2,,,,,,,,,1,,,71,0
11670,note_on,26,0,3,,,,,,,,,2,,,62,36
11670,note_on,26,0,2,,,,,,,,,1,,,77,49
11674,note_on,4,0,3,,,,,,,,,2,,,62,0
11674,note_on,4,0,2,,,,,,,,,1,,,77,0
11700,note_on,26,0,3,,,,,,,,,2,,,61,36
11700,note_on,26,0,2,,,,,,,,,1,,,76,49
11704,note_on,4,0,3,,,,,,,,,2,,,61,0
11704,note_on,4,0,2,,,,,,,,,1,,,76,0
11730,note_on,26,0,3,,,,,,,,,2,,,60,36
11730,note_on,26,0,2,,,,,,,,,1,,,75,49
11734,note_on,4,0,2,,,,,,,,,1,,,75,0
11734,note_on,4,0,3,,,,,,,,,2,,,60,0
11760,note_on,26,0,2,,,,,,,,,1,,,74,49
11760,note_on,26,0,3,,,,,,,,,2,,,59,36
11764,note_on,4,0,2,,,,,,,,,1,,,74,0
11764,note_on,4,0,3,,,,,,,,,2,,,59,0
11790,note_on,26,0,2,,,,,,,,,1,,,75,49
11790,note_on,26,0,3,,,,,,,,,2,,,60,36
11794,note_on,4,0,2,,,,,,,,,1,,,75,0
11794,note_on,4,0,3,,,,,,,,,2,,,60,0
11820,note_on,26,0,2,,,,,,,,,1,,,76,49
11820,note_on,26,0,3,,,,,,,,,2,,,61,36
11824,note_on,4,0,2,,,,,,,,,1,,,76,0
11824,note_on,4,0,3,,,,,,,,,2,,,61,0
11850,control_change,26,0,3,,,,,,,,,2,64,0,,
11850,note_on,0,0,3,,,,,,,,,2,,,59,36
11850,control_change,26,0,2,,,,,,,,,1,64,0,,
11850,note_on,0,0,2,,,,,,,,,1,,,74,49
11854,note_on,4,0,3,,,,,,,,,2,,,59,0
11854,note_on,4,0,2,,,,,,,,,1,,,74,0
11880,note_on,0,0,3,,,,,,,,,2,,,57,36
11880,note_on,0,0,3,,,,,,,,,2,,,53,36
11880,control_change,26,0,3,,,,,,,,,2,64,127,,
11880,control_change,0,0,1,,,,,,,,,0,64,127,,
11880,note_on,360,0,1,,,,,,,,,0,,,80,0
11880,note_on,0,0,1,,,,,,,,,0,,,72,36
11880,note_on,0,0,1,,,,,,,,,0,,,81,36
11884,note_on,0,0,3,,,,,,,,,2,,,53,0
11884,note_on,4,0,3,,,,,,,,,2,,,57,0
11886,note_on,6,0,1,,,,,,,,,0,,,81,0
11886,note_on,0,0,1,,,,,,,,,0,,,72,0
11910,note_on,26,0,3,,,,,,,,,2,,,65,36
11914,note_on,4,0,3,,,,,,,,,2,,,65,0
11940,note_on,26,0,3,,,,,,,,,2,,,64,36
11940,note_on,0,0,1,,,,,,,,,0,,,72,36
11940,note_on,54,0,1,,,,,,,,,0,,,69,36
11944,note_on,4,0,3,,,,,,,,,2,,,64,0
11946,note_on,0,0,1,,,,,,,,,0,,,69,0
11946,note_on,6,0,1,,,,,,,,,0,,,72,0
11970,note_on,26,0,3,,,,,,,,,2,,,62,36
11974,note_on,4,0,3,,,,,,,,,2,,,62,0
12000,note_on,26,0,3,,,,,,,,,2,,,60,36
12004,note_on,4,0,3,,,,,,,,,2,,,60,0
12030,note_on,26,0,3,,,,,,,,,2,,,69,36
12034,note_on,4,0,3,,,,,,,,,2,,,69,0
12060,note_on,26,0,3,,,,,,,,,2,,,67,36
12060,note_on,114,0,1,,,,,,,,,0,,,69,36
12060,note_on,0,0,1,,,,,,,,,0,,,72,36
12064,note_on,4,0,3,,,,,,,,,2,,,67,0
12066,note_on,0,0,1,,,,,,,,,0,,,69,0
12066,note_on,6,0,1,,,,,,,,,0,,,72,0
12090,note_on,26,0,3,,,,,,,,,2,,,65,36
12094,note_on,4,0,3,,,,,,,,,2,,,65,0
12120,note_on,26,0,3,,,,,,,,,2,,,64,36
12124,note_on,4,0,3,,,,,,,,,2,,,64,0
12150,note_on,26,0,3,,,,,,,,,2,,,65,36
12154,note_on,4,0,3,,,,,,,,,2,,,65,0
12180,note_on,0,0,1,,,,,,,,,0,,,69,36
12180,control_change,0,0,1,,,,,,,,,0,64,0,,
12180,control_change,114,0,1,,,,,,,,,0,64,0,,
12180,note_on,26,0,3,,,,,,,,,2,,,64,36
12180,note_on,0,0,1,,,,,,,,,0,,,72,36
12184,note_on,4,0,3,,,,,,,,,2,,,64,0
12186,note_on,6,0,1,,,,,,,,,0,,,72,0
12186,note_on,0,0,1,,,,,,,,,0,,,69,0
12210,control_change,26,0,3,,,,,,,,,2,64,0,,
12210,note_on,0,0,3,,,,,,,,,2,,,62,36
12214,note_on,4,0,3,,,,,,,,,2,,,62,0
12240,note_on,0,0,4,,,,,,,,,3,,,60,36
12240,control_change,660,0,4,,,,,,,,,3,64,127,,
12240,control_change,54,0,1,,,,,,,,,0,64,127,,
12240,control_change,26,0,3,,,,,,,,,2,64,127,,
12270,note_on,30,0,1,,,,,,,,,0,,,82,36
12274,note_on,4,0,1,,,,,,,,,0,,,82,0
12300,note_on,0,0,3,,,,,,,,,2,,,72,36
12300,note_on,60,0,3,,,,,,,,,2,,,70,36
12300,note_on,26,0,1,,,,,,,,,0,,,79,36
12304,note_on,4,0,1,,,,,,,,,0,,,79,0
12330,note_on,26,0,1,,,,,,,,,0,,,77,36
12334,note_on,4,0,1,,,,,,,,,0,,,77,0
12360,note_on,0,0,3,,,,,,,,,2,,,70,0
12360,note_on,60,0,3,,,,,,,,,2,,,72,0
12360,note_on,26,0,1,,,,,,,,,0,,,76,36
12364,note_on,4,0,1,,,,,,,,,0,,,76,0
12390,note_on,26,0,1,,,,,,,,,0,,,86,36
12394,note_on,4,0,1,,,,,,,,,0,,,86,0
12420,note_on,26,0,1,,,,,,,,,0,,,85,36
12420,note_on,60,0,3,,,,,,,,,2,,,70,36
12420,note_on,0,0,3,,,,,,,,,2,,,72,36
12424,note_on,4,0,1,,,,,,,,,0,,,85,0
12450,note_on,26,0,1,,,,,,,,,0,,,84,36
12454,note_on,4,0,1,,,,,,,,,0,,,84,0
12480,note_on,60,0,3,,,,,,,,,2,,,72,0
12480,note_on,0,0,4,,,,,,,,,3,,,60,36
12480,note_on,26,0,1,,,,,,,,,0,,,83,36
12480,note_on,240,0,4,,,,,,,,,3,,,60,0
12480,note_on,0,0,3,,,,,,,,,2,,,70,0
12480,control_change,0,0,4,,,,,,,,,3,64,0,,
12484,note_on,4,0,1,,,,,,,,,0,,,83,0
12510,note_on,26,0,1,,,,,,,,,0,,,82,36
12514,note_on,4,0,1,,,,,,,,,0,,,82,0
12540,note_on,0,0,3,,,,,,,,,2,,,72,36
12540,note_on,0,0,3,,,,,,,,,2,,,70,36
12540,control_change,60,0,3,,,,,,,,,2,64,0,,
12540,note_on,26,0,1,,,,,,,,,0,,,81,36
12544,note_on,4,0,1,,,,,,,,,0,,,81,0
12570,control_change,26,0,1,,,,,,,,,0,64,0,,
12570,note_on,0,0,1,,,,,,,,,0,,,80,36
12574,note_on,4,0,1,,,,,,,,,0,,,80,0
12600,note_on,60,0,3,,,,,,,,,2,,,72,0
12600,note_on,0,0,3,,,,,,,,,2,,,70,0
12600,note_on,746,0,2,,,,,,,,,1,,,81,49
12600,control_change,0,0,3,,,,,,,,,2,64,127,,
12600,note_on,120,0,4,,,,,,,,,3,,,60,0
12600,control_change,26,0,1,,,,,,,,,0,64,127,,
12630,note_on,30,0,3,,,,,,,,,2,,,65,36
12634,note_on,4,0,3,,,,,,,,,2,,,65,0
12660,note_on,26,0,3,,,,,,,,,2,,,64,36
12660,note_on,60,0,1,,,,,,,,,0,,,69,36
12660,note_on,0,0,1,,,,,,,,,0,,,72,36
12664,note_on,4,0,3,,,,,,,,,2,,,64,0
12666,note_on,6,0,1,,,,,,,,,0,,,72,0
12666,note_on,0,0,1,,,,,,,,,0,,,69,0
12690,note_on,26,0,3,,,,,,,,,2,,,62,36
12694,note_on,4,0,3,,,,,,,,,2,,,62,0
12720,note_on,26,0,3,,,,,,,,,2,,,60,36
12724,note_on,4,0,3,,,,,,,,,2,,,60,0
12750,note_on,26,0,3,,,,,,,,,2,,,69,36
12754,note_on,4,0,3,,,,,,,,,2,,,69,0
12780,note_on,0,0,1,,,,,,,,,0,,,72,36
12780,note_on,26,0,3,,,,,,,,,2,,,67,36
12780,note_on,114,0,1,,,,,,,,,0,,,69,36
12784,note_on,4,0,3,,,,,,,,,2,,,67,0
12786,note_on,0,0,1,,,,,,,,,0,,,69,0
12786,note_on,6,0,1,,,,,,,,,0,,,72,0
12810,note_on,26,0,3,,,,,,,,,2,,,65,36
12814,note_on,4,0,3,,,,,,,,,2,,,65,0
12840,note_on,26,0,3,,,,,,,,,2,,,64,36
12844,note_on,4,0,3,,,,,,,,,2,,,64,0
12870,note_on,26,0,3,,,,,,,,,2,,,65,36
12874,note_on,4,0,3,,,,,,,,,2,,,65,0
12900,control_change,0,0,1,,,,,,,,,0,64,0,,
12900,note_on,0,0,1,,,,,,,,,0,,,72,36
12900,control_change,114,0,1,,,,,,,,,0,64,0,,
12900,note_on,26,0,3,,,,,,,,,2,,,64,36
12900,note_on,0,0,1,,,,,,,,,0,,,69,36
12904,note_on,4,0,3,,,,,,,,,2,,,64,0
12906,note_on,6,0,1,,,,,,,,,0,,,72,0
12906,note_on,0,0,1,,,,,,,,,0,,,69,0
12930,note_on,0,0,3,,,,,,,,,2,,,62,36
12930,control_change,26,0,3,,,,,,,,,2,64,0,,
12934,note_on,4,0,3,,,,,,,,,2,,,62,0
12960,note_on,360,0,2,,,,,,,,,1,,,81,0
12960,note_on,360,0,4,,,,,,,,,3,,,61,36
12960,control_change,54,0,1,,,,,,,,,0,64,127,,
12960,control_change,26,0,3,,,,,,,,,2,64,127,,
12990,note_on,30,0,1,,,,,,,,,0,,,82,36
12994,note_on,4,0,1,,,,,,,,,0,,,82,0
13020,note_on,26,0,1,,,,,,,,,0,,,79,36
13020,note_on,60,0,3,,,,,,,,,2,,,67,36
13020,note_on,0,0,3,,,,,,,,,2,,,70,36
13024,note_on,4,0,1,,,,,,,,,0,,,79,0
13026,note_on,0,0,3,,,,,,,,,2,,,67,0
13026,note_on,6,0,3,,,,,,,,,2,,,70,0
13050,note_on,26,0,1,,,,,,,,,0,,,77,36
13054,note_on,4,0,1,,,,,,,,,0,,,77,0
13080,note_on,26,0,1,,,,,,,,,0,,,76,36
13084,note_on,4,0,1,,,,,,,,,0,,,76,0
13110,note_on,26,0,1,,,,,,,,,0,,,88,36
13114,note_on,4,0,1,,,,,,,,,0,,,88,0
13140,note_on,26,0,1,,,,,,,,,0,,,85,36
13140,note_on,0,0,3,,,,,,,,,2,,,70,36
13140,note_on,114,0,3,,,,,,,,,2,,,67,36
13144,note_on,4,0,1,,,,,,,,,0,,,85,0
13146,note_on,6,0,3,,,,,,,,,2,,,70,0
13146,note_on,0,0,3,,,,,,,,,2,,,67,0
13170,note_on,26,0,1,,,,,,,,,0,,,82,36
13174,note_on,4,0,1,,,,,,,,,0,,,82,0
13200,note_on,26,0,1,,,,,,,,,0,,,81,36
13204,note_on,4,0,1,,,,,,,,,0,,,81,0
13230,note_on,26,0,1,,,,,,,,,0,,,79,36
13234,note_on,4,0,1,,,,,,,,,0,,,79,0
13260,note_on,0,0,3,,,,,,,,,2,,,67,36
13260,control_change,114,0,3,,,,,,,,,2,64,0,,
13260,note_on,26,0,1,,,,,,,,,0,,,77,36
13260,note_on,0,0,3,,,,,,,,,2,,,70,36
13264,note_on,4,0,1,,,,,,,,,0,,,77,0
13266,note_on,6,0,3,,,,,,,,,2,,,70,0
13266,note_on,0,0,3,,,,,,,,,2,,,67,0
13290,control_change,26,0,1,,,,,,,,,0,64,0,,
13290,note_on,0,0,1,,,,,,,,,0,,,76,36
13294,note_on,4,0,1,,,,,,,,,0,,,76,0
13320,note_on,360,0,4,,,,,,,,,3,,,61,0
13320,control_change,54,0,3,,,,,,,,,2,64,127,,
13320,note_on,26,0,1,,,,,,,,,0,,,77,36
13320,control_change,360,0,2,,,,,,,,,1,64,127,,
13350,note_on,30,0,3,,,,,,,,,2,,,62,36
13354,note_on,4,0,3,,,,,,,,,2,,,62,0
13380,note_on,60,0,2,,,,,,,,,1,,,65,49
13380,note_on,26,0,3,,,,,,,,,2,,,63,36
13380,note_on,0,0,2,,,,,,,,,1,,,69,49
13384,note_on,4,0,3,,,,,,,,,2,,,63,0
13386,note_on,6,0,2,,,,,,,,,1,,,69,0
13386,note_on,0,0,2,,,,,,,,,1,,,65,0
13410,note_on,26,0,3,,,,,,,,,2,,,60,36
13414,note_on,4,0,3,,,,,,,,,2,,,60,0
13440,note_on,26,0,3,,,,,,,,,2,,,57,36
13444,note_on,4,0,3,,,,,,,,,2,,,57,0
13470,note_on,26,0,3,,,,,,,,,2,,,58,36
13474,note_on,4,0,3,,,,,,,,,2,,,58,0
13500,note_on,0,0,2,,,,,,,,,1,,,69,49
13500,note_on,26,0,3,,,,,,,,,2,,,60,36
13500,note_on,114,0,2,,,,,,,,,1,,,65,49
13504,note_on,4,0,3,,,,,,,,,2,,,60,0
13506,note_on,6,0,2,,,,,,,,,1,,,69,0
13506,note_on,0,0,2,,,,,,,,,1,,,65,0
13530,note_on,26,0,3,,,,,,,,,2,,,57,36
13534,note_on,4,0,3,,,,,,,,,2,,,57,0
13560,note_on,26,0,3,,,,,,,,,2,,,53,36
13564,note_on,4,0,3,,,,,,,,,2,,,53,0
13590,note_on,26,0,3,,,,,,,,,2,,,54,36
13594,note_on,4,0,3,,,,,,,,,2,,,54,0
13620,control_change,114,0,2,,,,,,,,,1,64,0,,
13620,note_on,0,0,2,,,,,,,,,1,,,69,49
13620,note_on,26,0,3,,,,,,,,,2,,,55,36
13620,note_on,0,0,2,,,,,,,,,1,,,65,49
13624,note_on,4,0,3,,,,,,,,,2,,,55,0
13626,note_on,6,0,2,,,,,,,,,1,,,69,0
13626,note_on,0,0,2,,,,,,,,,1,,,65,0
13650,note_on,0,0,3,,,,,,,,,2,,,51,36
13650,control_change,26,0,3,,,,,,,,,2,64,0,,
13654,note_on,4,0,3,,,,,,,,,2,,,51,0
13665,note_on,345,0,4,,,,,,,,,3,,,50,36
13680,note_on,360,0,1,,,,,,,,,0,,,77,0
13680,note_on,0,0,4,,,,,,,,,3,,,62,36
13680,note_on,15,0,4,,,,,,,,,3,,,50,0
13710,control_change,30,0,1,,,,,,,,,0,64,127,,
13710,note_on,0,0,1,,,,,,,,,0,,,81,36
13740,control_change,86,0,3,,,,,,,,,2,64,127,,
13740,note_on,30,0,1,,,,,,,,,0,,,81,0
13740,note_on,0,0,3,,,,,,,,,2,,,66,36
13740,note_on,0,0,1,,,,,,,,,0,,,84,36
13740,note_on,0,0,3,,,,,,,,,2,,,69,36
13746,note_on,6,0,3,,,,,,,,,2,,,69,0
13746,note_on,0,0,3,,,,,,,,,2,,,66,0
13770,note_on,30,0,1,,,,,,,,,0,,,84,0
13770,note_on,0,0,1,,,,,,,,,0,,,81,36
13800,note_on,30,0,1,,,,,,,,,0,,,81,0
13800,note_on,0,0,1,,,,,,,,,0,,,78,36
13830,note_on,30,0,1,,,,,,,,,0,,,78,0
13830,note_on,0,0,1,,,,,,,,,0,,,79,36
13860,note_on,114,0,3,,,,,,,,,2,,,66,36
13860,note_on,0,0,1,,,,,,,,,0,,,81,36
13860,note_on,0,0,3,,,,,,,,,2,,,69,36
13860,note_on,30,0,1,,,,,,,,,0,,,79,0
13866,note_on,0,0,3,,,,,,,,,2,,,66,0
13866,note_on,6,0,3,,,,,,,,,2,,,69,0
13890,note_on,0,0,1,,,,,,,,,0,,,78,36
13890,note_on,30,0,1,,,,,,,,,0,,,81,0
13920,note_on,30,0,1,,,,,,,,,0,,,78,0
13920,note_on,0,0,1,,,,,,,,,0,,,74,36
13950,note_on,30,0,1,,,,,,,,,0,,,74,0
13950,note_on,0,0,1,,,,,,,,,0,,,75,36
13980,note_on,30,0,1,,,,,,,,,0,,,75,0
13980,note_on,0,0,3,,,,,,,,,2,,,69,36
13980,note_on,0,0,3,,,,,,,,,2,,,66,36
13980,control_change,114,0,3,,,,,,,,,2,64,0,,
13980,note_on,0,0,1,,,,,,,,,0,,,76,36
13984,note_on,0,0,3,,,,,,,,,2,,,66,0
13984,note_on,4,0,3,,,,,,,,,2,,,69,0
14010,control_change,0,0,1,,,,,,,,,0,64,0,,
14010,note_on,0,0,1,,,,,,,,,0,,,72,36
14010,note_on,30,0,1,,,,,,,,,0,,,76,0
14040,note_on,360,0,4,,,,,,,,,3,,,62,0
14040,note_on,0,0,1,,,,,,,,,0,,,71,36
14040,note_on,30,0,1,,,,,,,,,0,,,72,0
14070,note_on,0,0,3,,,,,,,,,2,,,64,36
14070,control_change,86,0,3,,,,,,,,,2,64,127,,
14074,note_on,4,0,3,,,,,,,,,2,,,64,0
14100,note_on,0,0,2,,,,,,,,,1,,,67,49
14100,control_change,474,0,2,,,,,,,,,1,64,127,,
14100,note_on,26,0,3,,,,,,,,,2,,,65,36
14104,note_on,4,0,3,,,,,,,,,2,,,65,0
14106,note_on,6,0,2,,,,,,,,,1,,,67,0
14130,note_on,26,0,3,,,,,,,,,2,,,62,36
14134,note_on,4,0,3,,,,,,,,,2,,,62,0
14160,note_on,26,0,3,,,,,,,,,2,,,59,36
14164,note_on,4,0,3,,,,,,,,,2,,,59,0
14190,note_on,26,0,3,,,,,,,,,2,,,60,36
14194,note_on,4,0,3,,,,,,,,,2,,,60,0
14220,note_on,114,0,2,,,,,,,,,1,,,65,49
14220,note_on,0,0,2,,,,,,,,,1,,,67,49
14220,note_on,26,0,3,,,,,,,,,2,,,62,36
14224,note_on,4,0,3,,,,,,,,,2,,,62,0
14226,note_on,6,0,2,,,,,,,,,1,,,67,0
14226,note_on,0,0,2,,,,,,,,,1,,,65,0
14250,note_on,26,0,3,,,,,,,,,2,,,59,36
14254,note_on,4,0,3,,,,,,,,,2,,,59,0
14280,note_on,26,0,3,,,,,,,,,2,,,55,36
14284,note_on,4,0,3,,,,,,,,,2,,,55,0
14310,note_on,26,0,3,,,,,,,,,2,,,56,36
14314,note_on,4,0,3,,,,,,,,,2,,,56,0
14340,note_on,0,0,2,,,,,,,,,1,,,59,49
14340,note_on,0,0,2,,,,,,,,,1,,,62,49
14340,note_on,0,0,2,,,,,,,,,1,,,67,49
14340,note_on,26,0,3,,,,,,,,,2,,,57,36
14340,control_change,114,0,2,,,,,,,,,1,64,0,,
14344,note_on,4,0,3,,,,,,,,,2,,,57,0
14346,note_on,0,0,2,,,,,,,,,1,,,59,0
14346,note_on,6,0,2,,,,,,,,,1,,,67,0
14346,note_on,0,0,2,,,,,,,,,1,,,62,0
14370,note_on,0,0,3,,,,,,,,,2,,,53,36
14370,control_change,26,0,3,,,,,,,,,2,64,0,,
14374,note_on,4,0,3,,,,,,,,,2,,,53,0
14400,note_on,0,0,1,,,,,,,,,0,,,72,36
14400,note_on,0,0,1,,,,,,,,,0,,,60,36
14400,control_change,0,0,1,,,,,,,,,0,64,127,,
14400,note_on,360,0,1,,,,,,,,,0,,,71,0
14400,note_on,26,0,3,,,,,,,,,2,,,48,36
14400,note_on,0,0,1,,,,,,,,,0,,,67,36
14430,note_on,0,0,1,,,,,,,,,0,,,72,75
14430,note_on,0,0,1,,,,,,,,,0,,,60,0
14430,note_on,0,0,1,,,,,,,,,0,,,67,0
14430,note_on,30,0,1,,,,,,,,,0,,,72,0
14430,note_on,30,0,3,,,,,,,,,2,,,48,0
14434,note_on,4,0,1,,,,,,,,,0,,,72,0
14460,note_on,26,0,1,,,,,,,,,0,,,71,75
14464,note_on,4,0,1,,,,,,,,,0,,,71,0
14490,note_on,26,0,1,,,,,,,,,0,,,69,75
14494,note_on,4,0,1,,,,,,,,,0,,,69,0
14520,note_on,26,0,1,,,,,,,,,0,,,67,75
14524,note_on,4,0,1,,,,,,,,,0,,,67,0
14550,note_on,0,0,1,,,,,,,,,0,,,76,75
14550,note_on,26,0,1,,,,,,,,,0,,,64,75
14550,control_change,120,0,3,,,,,,,,,2,64,127,,
14550,note_on,0,0,3,,,,,,,,,2,,,48,62
14550,note_on,0,0,3,,,,,,,,,2,,,55,62
14550,note_on,0,0,3,,,,,,,,,2,,,60,62
14554,note_on,0,0,3,,,,,,,,,2,,,48,0
14554,note_on,0,0,3,,,,,,,,,2,,,55,0
14554,note_on,4,0,3,,,,,,,,,2,,,60,0
14554,note_on,4,0,1,,,,,,,,,0,,,76,0
14554,note_on,0,0,1,,,,,,,,,0,,,64,0
14580,note_on,26,0,3,,,,,,,,,2,,,48,62
14580,note_on,0,0,3,,,,,,,,,2,,,55,62
14580,note_on,0,0,3,,,,,,,,,2,,,60,62
14580,note_on,0,0,1,,,,,,,,,0,,,74,75
14580,note_on,26,0,1,,,,,,,,,0,,,64,75
14584,note_on,0,0,1,,,,,,,,,0,,,64,0
14584,note_on,0,0,3,,,,,,,,,2,,,55,0
14584,note_on,4,0,3,,,,,,,,,2,,,60,0
14584,note_on,0,0,3,,,,,,,,,2,,,48,0
14584,note_on,4,0,1,,,,,,,,,0,,,74,0
14610,note_on,0,0,3,,,,,,,,,2,,,60,75
14610,note_on,0,0,1,,,,,,,,,0,,,72,88
14610,note_on,0,0,3,,,,,,,,,2,,,55,75
14610,note_on,26,0,3,,,,,,,,,2,,,48,75
14610,note_on,26,0,1,,,,,,,,,0,,,64,88
14614,note_on,4,0,1,,,,,,,,,0,,,72,0
14614,note_on,0,0,1,,,,,,,,,0,,,64,0
14614,note_on,4,0,3,,,,,,,,,2,,,60,0
14614,note_on,0,0,3,,,,,,,,,2,,,48,0
14614,note_on,0,0,3,,,,,,,,,2,,,55,0
14640,note_on,26,0,3,,,,,,,,,2,,,48,75
14640,note_on,0,0,1,,,,,,,,,0,,,71,88
14640,note_on,26,0,1,,,,,,,,,0,,,64,88
14640,note_on,0,0,3,,,,,,,,,2,,,60,75
14640,note_on,0,0,3,,,,,,,,,2,,,55,75
14644,note_on,0,0,3,,,,,,,,,2,,,55,0
14644,note_on,0,0,3,,,,,,,,,2,,,48,0
14644,note_on,0,0,1,,,,,,,,,0,,,64,0
14644,note_on,4,0,3,,,,,,,,,2,,,60,0
14644,note_on,4,0,1,,,,,,,,,0,,,71,0
14670,note_on,0,0,3,,,,,,,,,2,,,55,75
14670,note_on,26,0,3,,,,,,,,,2,,,48,75
14670,note_on,0,0,3,,,,,,,,,2,,,60,75
14670,note_on,26,0,1,,,,,,,,,0,,,64,88
14670,note_on,0,0,1,,,,,,,,,0,,,72,88
14674,note_on,4,0,1,,,,,,,,,0,,,72,0
14674,note_on,0,0,3,,,,,,,,,2,,,48,0
14674,note_on,0,0,3,,,,,,,,,2,,,55,0
14674,note_on,4,0,3,,,,,,,,,2,,,60,0
14674,note_on,0,0,1,,,,,,,,,0,,,64,0
14700,note_on,0,0,3,,,,,,,,,2,,,60,62
14700,note_on,0,0,3,,,,,,,,,2,,,55,62
14700,note_on,0,0,1,,,,,,,,,0,,,71,75
14700,note_on,26,0,1,,,,,,,,,0,,,64,75
14700,note_on,26,0,3,,,,,,,,,2,,,48,62
14704,note_on,4,0,1,,,,,,,,,0,,,71,0
14704,note_on,0,0,1,,,,,,,,,0,,,64,0
14704,note_on,4,0,3,,,,,,,,,2,,,60,0
14704,note_on,0,0,3,,,,,,,,,2,,,55,0
14704,note_on,0,0,3,,,,,,,,,2,,,48,0
14730,note_on,0,0,1,,,,,,,,,0,,,64,75
14730,control_change,26,0,1,,,,,,,,,0,64,0,,
14730,note_on,0,0,1,,,,,,,,,0,,,69,75
14730,note_on,0,0,3,,,,,,,,,2,,,60,62
14730,note_on,0,0,3,,,,,,,,,2,,,48,62
14730,note_on,0,0,3,,,,,,,,,2,,,55,62
14730,control_change,26,0,3,,,,,,,,,2,64,0,,
14734,note_on,4,0,3,,,,,,,,,2,,,60,0
14734,note_on,0,0,3,,,,,,,,,2,,,55,0
14734,note_on,0,0,3,,,,,,,,,2,,,48,0
14734,note_on,4,0,1,,,,,,,,,0,,,69,0
14734,note_on,0,0,1,,,,,,,,,0,,,64,0
14760,note_on,0,0,3,,,,,,,,,2,,,59,62
14760,note_on,0,0,3,,,,,,,,,2,,,55,62
14760,note_on,0,0,1,,,,,,,,,0,,,67,75
14760,note_on,0,0,3,,,,,,,,,2,,,50,62
14760,control_change,26,0,1,,,,,,,,,0,64,127,,
14760,control_change,26,0,3,,,,,,,,,2,64,127,,
14760,note_on,0,0,1,,,,,,,,,0,,,65,75
14790,note_on,30,0,1,,,,,,,,,0,,,67,0
14790,note_on,0,0,1,,,,,,,,,0,,,65,0
14790,note_on,0,0,1,,,,,,,,,0,,,74,75
14790,note_on,30,0,3,,,,,,,,,2,,,59,0
14790,note_on,0,0,3,,,,,,,,,2,,,55,0
14790,note_on,0,0,3,,,,,,,,,2,,,50,0
14794,note_on,4,0,1,,,,,,,,,0,,,74,0
14820,note_on,26,0,1,,,,,,,,,0,,,71,75
14824,note_on,4,0,1,,,,,,,,,0,,,71,0
14850,note_on,26,0,1,,,,,,,,,0,,,68,75
14854,note_on,4,0,1,,,,,,,,,0,,,68,0
14880,note_on,26,0,1,,,,,,,,,0,,,67,75
14884,note_on,4,0,1,,,,,,,,,0,,,67,0
14910,note_on,0,0,3,,,,,,,,,2,,,59,62
14910,note_on,0,0,3,,,,,,,,,2,,,55,62
14910,note_on,120,0,3,,,,,,,,,2,,,50,62
14910,note_on,0,0,1,,,,,,,,,0,,,77,75
14910,note_on,26,0,1,,,,,,,,,0,,,65,75
14914,note_on,0,0,3,,,,,,,,,2,,,50,0
14914,note_on,4,0,3,,,,,,,,,2,,,59,0
14914,note_on,0,0,3,,,,,,,,,2,,,55,0
14914,note_on,4,0,1,,,,,,,,,0,,,77,0
14914,note_on,0,0,1,,,,,,,,,0,,,65,0
14940,note_on,26,0,1,,,,,,,,,0,,,65,75
14940,note_on,0,0,1,,,,,,,,,0,,,76,75
14940,note_on,26,0,3,,,,,,,,,2,,,50,62
14940,note_on,0,0,3,,,,,,,,,2,,,55,62
14940,note_on,0,0,3,,,,,,,,,2,,,59,62
14944,note_on,4,0,1,,,,,,,,,0,,,76,0
14944,note_on,0,0,1,,,,,,,,,0,,,65,0
14944,note_on,0,0,3,,,,,,,,,2,,,50,0
14944,note_on,0,0,3,,,,,,,,,2,,,55,0
14944,note_on,4,0,3,,,,,,,,,2,,,59,0
14970,note_on,26,0,3,,,,,,,,,2,,,50,62
14970,note_on,0,0,3,,,,,,,,,2,,,55,62
14970,note_on,0,0,3,,,,,,,,,2,,,59,62
14970,note_on,0,0,1,,,,,,,,,0,,,74,75
14970,note_on,26,0,1,,,,,,,,,0,,,65,75
14974,note_on,4,0,1,,,,,,,,,0,,,74,0
14974,note_on,0,0,1,,,,,,,,,0,,,65,0
14974,note_on,4,0,3,,,,,,,,,2,,,59,0
14974,note_on,0,0,3,,,,,,,,,2,,,55,0
14974,note_on,0,0,3,,,,,,,,,2,,,50,0
15000,note_on,0,0,3,,,,,,,,,2,,,59,62
15000,note_on,0,0,1,,,,,,,,,0,,,73,75
15000,note_on,0,0,3,,,,,,,,,2,,,55,62
15000,note_on,26,0,3,,,,,,,,,2,,,50,62
15000,note_on,26,0,1,,,,,,,,,0,,,65,75
15004,note_on,4,0,1,,,,,,,,,0,,,73,0
15004,note_on,4,0,3,,,,,,,,,2,,,59,0
15004,note_on,0,0,3,,,,,,,,,2,,,55,0
15004,note_on,0,0,3,,,,,,,,,2,,,50,0
15004,note_on,0,0,1,,,,,,,,,0,,,65,0
15030,note_on,26,0,3,,,,,,,,,2,,,50,62
15030,note_on,0,0,3,,,,,,,,,2,,,55,62
15030,note_on,0,0,3,,,,,,,,,2,,,59,62
15030,note_on,0,0,1,,,,,,,,,0,,,74,75
15030,note_on,26,0,1,,,,,,,,,0,,,65,75
15034,note_on,0,0,3,,,,,,,,,2,,,50,0
15034,note_on,0,0,3,,,,,,,,,2,,,55,0
15034,note_on,4,0,3,,,,,,,,,2,,,59,0
15034,note_on,0,0,1,,,,,,,,,0,,,65,0
15034,note_on,4,0,1,,,,,,,,,0,,,74,0
15060,note_on,0,0,1,,,,,,,,,0,,,72,75
15060,note_on,0,0,3,,,,,,,,,2,,,60,62
15060,note_on,0,0,3,,,,,,,,,2,,,55,62
15060,note_on,26,0,3,,,,,,,,,2,,,50,62
15060,note_on,26,0,1,,,,,,,,,0,,,65,75
15064,note_on,0,0,3,,,,,,,,,2,,,50,0
15064,note_on,0,0,3,,,,,,,,,2,,,55,0
15064,note_on,4,0,3,,,,,,,,,2,,,60,0
15064,note_on,4,0,1,,,,,,,,,0,,,72,0
15064,note_on,0,0,1,,,,,,,,,0,,,65,0
15090,control_change,26,0,3,,,,,,,,,2,64,0,,
15090,note_on,0,0,3,,,,,,,,,2,,,62,62
15090,control_change,26,0,1,,,,,,,,,0,64,0,,
15090,note_on,0,0,1,,,,,,,,,0,,,65,75
15090,note_on,0,0,1,,,,,,,,,0,,,71,75
15090,note_on,0,0,3,,,,,,,,,2,,,50,62
15090,note_on,0,0,3,,,,,,,,,2,,,55,62
15094,note_on,0,0,3,,,,,,,,,2,,,50,0
15094,note_on,4,0,3,,,,,,,,,2,,,62,0
15094,note_on,0,0,3,,,,,,,,,2,,,55,0
15094,note_on,4,0,1,,,,,,,,,0,,,71,0
15094,note_on,0,0,1,,,,,,,,,0,,,65,0
15120,control_change,26,0,1,,,,,,,,,0,64,127,,
15120,note_on,0,0,3,,,,,,,,,2,,,60,62
15120,note_on,0,0,3,,,,,,,,,2,,,55,62
15120,note_on,0,0,3,,,,,,,,,2,,,52,62
15120,note_on,0,0,1,,,,,,,,,0,,,72,75
15120,control_change,26,0,3,,,,,,,,,2,64,127,,
15120,note_on,0,0,1,,,,,,,,,0,,,67,75
15150,note_on,0,0,3,,,,,,,,,2,,,52,0
15150,note_on,30,0,1,,,,,,,,,0,,,72,0
15150,note_on,0,0,1,,,,,,,,,0,,,76,75
15150,note_on,30,0,3,,,,,,,,,2,,,60,0
15150,note_on,0,0,3,,,,,,,,,2,,,55,0
15150,note_on,0,0,1,,,,,,,,,0,,,67,0
15154,note_on,4,0,1,,,,,,,,,0,,,76,0
15180,note_on,26,0,1,,,,,,,,,0,,,75,75
15184,note_on,4,0,1,,,,,,,,,0,,,75,0
15210,note_on,26,0,1,,,,,,,,,0,,,74,75
15214,note_on,4,0,1,,,,,,,,,0,,,74,0
15240,note_on,26,0,1,,,,,,,,,0,,,72,75
15244,note_on,4,0,1,,,,,,,,,0,,,72,0
15270,note_on,120,0,3,,,,,,,,,2,,,52,62
15270,note_on,26,0,1,,,,,,,,,0,,,67,75
15270,note_on,0,0,1,,,,,,,,,0,,,79,75
15270,note_on,0,0,3,,,,,,,,,2,,,60,62
15274,note_on,4,0,3,,,,,,,,,2,,,60,0
15274,note_on,0,0,3,,,,,,,,,2,,,52,0
15274,note_on,4,0,1,,,,,,,,,0,,,79,0
15274,note_on,0,0,1,,,,,,,,,0,,,67,0
15300,note_on,0,0,3,,,,,,,,,2,,,60,62
15300,note_on,26,0,3,,,,,,,,,2,,,52,62
15300,note_on,26,0,1,,,,,,,,,0,,,67,75
15300,note_on,0,0,1,,,,,,,,,0,,,77,75
15304,note_on,4,0,3,,,,,,,,,2,,,60,0
15304,note_on,0,0,3,,,,,,,,,2,,,52,0
15304,note_on,0,0,1,,,,,,,,,0,,,67,0
15304,note_on,4,0,1,,,,,,,,,0,,,77,0
15330,note_on,0,0,3,,,,,,,,,2,,,60,62
15330,note_on,26,0,3,,,,,,,,,2,,,52,62
15330,note_on,0,0,1,,,,,,,,,0,,,76,75
15330,note_on,26,0,1,,,,,,,,,0,,,67,75
15334,note_on,0,0,1,,,,,,,,,0,,,67,0
15334,note_on,0,0,3,,,,,,,,,2,,,52,0
15334,note_on,4,0,1,,,,,,,,,0,,,76,0
15334,note_on,4,0,3,,,,,,,,,2,,,60,0
15360,note_on,26,0,1,,,,,,,,,0,,,67,75
15360,note_on,26,0,3,,,,,,,,,2,,,52,62
15360,note_on,0,0,3,,,,,,,,,2,,,60,62
15360,note_on,0,0,1,,,,,,,,,0,,,75,75
15364,note_on,4,0,3,,,,,,,,,2,,,60,0
15364,note_on,0,0,3,,,,,,,,,2,,,52,0
15364,note_on,4,0,1,,,,,,,,,0,,,75,0
15364,note_on,0,0,1,,,,,,,,,0,,,67,0
15390,note_on,26,0,3,,,,,,,,,2,,,52,62
15390,note_on,0,0,3,,,,,,,,,2,,,60,62
15390,note_on,26,0,1,,,,,,,,,0,,,67,75
15390,note_on,0,0,1,,,,,,,,,0,,,76,75
15394,note_on,4,0,1,,,,,,,,,0,,,76,0
15394,note_on,0,0,1,,,,,,,,,0,,,67,0
15394,note_on,4,0,3,,,,,,,,,2,,,60,0
15394,note_on,0,0,3,,,,,,,,,2,,,52,0
15420,note_on,0,0,1,,,,,,,,,0,,,74,75
15420,note_on,26,0,3,,,,,,,,,2,,,52,62
15420,note_on,0,0,3,,,,,,,,,2,,,60,62
15420,note_on,26,0,1,,,,,,,,,0,,,68,75
15424,note_on,4,0,3,,,,,,,,,2,,,60,0
15424,note_on,0,0,1,,,,,,,,,0,,,68,0
15424,note_on,0,0,3,,,,,,,,,2,,,52,0
15424,note_on,4,0,1,,,,,,,,,0,,,74,0
15450,note_on,0,0,1,,,,,,,,,0,,,72,75
15450,note_on,0,0,1,,,,,,,,,0,,,68,75
15450,control_change,26,0,1,,,,,,,,,0,64,0,,
15450,control_change,26,0,3,,,,,,,,,2,64,0,,
15450,note_on,0,0,3,,,,,,,,,2,,,52,62
15450,note_on,0,0,3,,,,,,,,,2,,,60,62
15454,note_on,4,0,3,,,,,,,,,2,,,60,0
15454,note_on,0,0,3,,,,,,,,,2,,,52,0
15454,note_on,4,0,1,,,,,,,,,0,,,72,0
15454,note_on,0,0,1,,,,,,,,,0,,,68,0
15480,note_on,0,0,3,,,,,,,,,2,,,60,62
15480,control_change,26,0,3,,,,,,,,,2,64,127,,
15480,note_on,0,0,3,,,,,,,,,2,,,53,62
15480,note_on,0,0,1,,,,,,,,,0,,,69,75
15480,control_change,26,0,1,,,,,,,,,0,64,127,,
15484,note_on,0,0,3,,,,,,,,,2,,,53,0
15484,note_on,4,0,3,,,,,,,,,2,,,60,0
15510,note_on,0,0,3,,,,,,,,,2,,,57,75
15510,note_on,26,0,3,,,,,,,,,2,,,52,75
15510,note_on,0,0,3,,,,,,,,,2,,,61,75
15514,note_on,4,0,3,,,,,,,,,2,,,61,0
15514,note_on,0,0,3,,,,,,,,,2,,,52,0
15514,note_on,0,0,3,,,,,,,,,2,,,57,0
15540,note_on,60,0,1,,,,,,,,,0,,,69,0
15540,note_on,0,0,3,,,,,,,,,2,,,62,75
15540,note_on,26,0,3,,,,,,,,,2,,,53,75
15540,note_on,0,0,3,,,,,,,,,2,,,57,75
15544,note_on,0,0,3,,,,,,,,,2,,,57,0
15544,note_on,4,0,3,,,,,,,,,2,,,62,0
15544,note_on,0,0,3,,,,,,,,,2,,,53,0
15570,note_on,0,0,3,,,,,,,,,2,,,57,75
15570,note_on,26,0,3,,,,,,,,,2,,,52,75
15570,note_on,0,0,3,,,,,,,,,2,,,61,75
15574,note_on,4,0,3,,,,,,,,,2,,,61,0
15574,note_on,0,0,3,,,,,,,,,2,,,52,0
15574,note_on,0,0,3,,,,,,,,,2,,,57,0
15600,note_on,0,0,3,,,,,,,,,2,,,62,75
15600,note_on,0,0,3,,,,,,,,,2,,,57,75
15600,note_on,0,0,3,,,,,,,,,2,,,53,75
15600,control_change,26,0,3,,,,,,,,,2,64,0,,
15630,note_on,0,0,3,,,,,,,,,2,,,57,0
15630,note_on,90,0,1,,,,,,,,,0,,,80,75
15630,note_on,0,0,3,,,,,,,,,2,,,53,0
15630,note_on,30,0,3,,,,,,,,,2,,,62,0
15634,note_on,4,0,1,,,,,,,,,0,,,80,0
15660,note_on,26,0,1,,,,,,,,,0,,,83,75
15664,note_on,4,0,1,,,,,,,,,0,,,83,0
15690,note_on,26,0,1,,,,,,,,,0,,,81,75
15694,note_on,4,0,1,,,,,,,,,0,,,81,0
15720,note_on,26,0,1,,,,,,,,,0,,,79,75
15724,note_on,4,0,1,,,,,,,,,0,,,79,0
15750,note_on,26,0,1,,,,,,,,,0,,,77,75
15754,note_on,4,0,1,,,,,,,,,0,,,77,0
15780,note_on,26,0,1,,,,,,,,,0,,,76,75
15784,note_on,4,0,1,,,,,,,,,0,,,76,0
15810,note_on,0,0,1,,,,,,,,,0,,,74,75
15810,control_change,26,0,1,,,,,,,,,0,64,0,,
15814,note_on,4,0,1,,,,,,,,,0,,,74,0
15840,control_change,210,0,3,,,,,,,,,2,64,127,,
15840,note_on,26,0,1,,,,,,,,,0,,,72,75
15870,note_on,30,0,3,,,,,,,,,2,,,40,75
15874,note_on,4,0,3,,,,,,,,,2,,,40,0
15900,note_on,26,0,3,,,,,,,,,2,,,41,75
15904,note_on,4,0,3,,,,,,,,,2,,,41,0
15930,note_on,26,0,3,,,,,,,,,2,,,42,75
15934,note_on,4,0,3,,,,,,,,,2,,,42,0
15960,control_change,1614,0,2,,,,,,,,,1,64,127,,
15960,note_on,26,0,3,,,,,,,,,2,,,43,75
15990,note_on,0,0,2,,,,,,,,,1,,,66,62
15990,note_on,30,0,2,,,,,,,,,1,,,63,62
15994,note_on,4,0,2,,,,,,,,,1,,,66,0
15994,note_on,0,0,2,,,,,,,,,1,,,63,0
16020,note_on,26,0,2,,,,,,,,,1,,,65,62
16020,note_on,0,0,2,,,,,,,,,1,,,69,62
16024,note_on,0,0,2,,,,,,,,,1,,,65,0
16024,note_on,4,0,2,,,,,,,,,1,,,69,0
16050,note_on,0,0,2,,,,,,,,,1,,,67,62
16050,note_on,26,0,2,,,,,,,,,1,,,64,62
16054,note_on,4,0,2,,,,,,,,,1,,,67,0
16054,note_on,0,0,2,,,,,,,,,1,,,64,0
16080,note_on,0,0,2,,,,,,,,,1,,,66,62
16080,note_on,26,0,2,,,,,,,,,1,,,63,62
16084,note_on,4,0,2,,,,,,,,,1,,,66,0
16084,note_on,0,0,2,,,,,,,,,1,,,63,0
16110,note_on,0,0,2,,,,,,,,,1,,,67,62
16110,note_on,26,0,2,,,,,,,,,1,,,64,62
16114,note_on,0,0,2,,,,,,,,,1,,,64,0
16114,note_on,4,0,2,,,,,,,,,1,,,67,0
16140,note_on,0,0,2,,,,,,,,,1,,,65,62
16140,note_on,26,0,2,,,,,,,,,1,,,62,62
16144,note_on,0,0,2,,,,,,,,,1,,,62,0
16144,note_on,4,0,2,,,,,,,,,1,,,65,0
16170,note_on,0,0,2,,,,,,,,,1,,,60,62
16170,control_change,26,0,2,,,,,,,,,1,64,0,,
16170,note_on,0,0,2,,,,,,,,,1,,,64,62
16174,note_on,0,0,2,,,,,,,,,1,,,60,0
16174,note_on,4,0,2,,,,,,,,,1,,,64,0
16200,note_on,0,0,2,,,,,,,,,1,,,65,62
16200,control_change,0,0,3,,,,,,,,,2,64,0,,
16200,note_on,240,0,3,,,,,,,,,2,,,43,0
16200,control_change,360,0,1,,,,,,,,,0,64,127,,
16200,note_on,26,0,2,,,,,,,,,1,,,62,62
16230,note_on,0,0,3,,,,,,,,,2,,,42,62
16230,control_change,30,0,3,,,,,,,,,2,64,127,,
16234,note_on,4,0,3,,,,,,,,,2,,,42,0
16260,note_on,26,0,3,,,,,,,,,2,,,43,62
16264,note_on,4,0,3,,,,,,,,,2,,,43,0
16290,note_on,26,0,3,,,,,,,,,2,,,42,62
16294,note_on,4,0,3,,,,,,,,,2,,,42,0
16320,note_on,26,0,3,,,,,,,,,2,,,43,75
16320,note_on,0,0,1,,,,,,,,,0,,,71,62
16320,note_on,120,0,1,,,,,,,,,0,,,72,0
16324,note_on,4,0,3,,,,,,,,,2,,,43,0
16327,note_on,7,0,1,,,,,,,,,0,,,72,62
16328,note_on,1,0,1,,,,,,,,,0,,,71,0
16335,note_on,7,0,1,,,,,,,,,0,,,72,0
16335,note_on,0,0,1,,,,,,,,,0,,,71,62
16342,note_on,7,0,1,,,,,,,,,0,,,72,62
16343,note_on,1,0,1,,,,,,,,,0,,,71,0
16350,note_on,7,0,1,,,,,,,,,0,,,72,0
16350,note_on,0,0,1,,,,,,,,,0,,,71,62
16350,note_on,26,0,3,,,,,,,,,2,,,44,75
16354,note_on,4,0,3,,,,,,,,,2,,,44,0
16357,note_on,7,0,1,,,,,,,,,0,,,72,62
16358,note_on,1,0,1,,,,,,,,,0,,,71,0
16365,note_on,7,0,1,,,,,,,,,0,,,72,0
16365,note_on,0,0,1,,,,,,,,,0,,,71,62
16372,note_on,7,0,1,,,,,,,,,0,,,72,62
16373,note_on,1,0,1,,,,,,,,,0,,,71,0
16380,note_on,26,0,3,,,,,,,,,2,,,43,75
16380,note_on,7,0,1,,,,,,,,,0,,,72,0
16380,note_on,0,0,1,,,,,,,,,0,,,71,62
16384,note_on,4,0,3,,,,,,,,,2,,,43,0
16387,note_on,7,0,1,,,,,,,,,0,,,72,62
16388,note_on,1,0,1,,,,,,,,,0,,,71,0
16395,note_on,7,0,1,,,,,,,,,0,,,72,0
16395,note_on,0,0,1,,,,,,,,,0,,,71,62
16402,note_on,7,0,1,,,,,,,,,0,,,72,62
16403,note_on,1,0,1,,,,,,,,,0,,,71,0
16410,note_on,26,0,3,,,,,,,,,2,,,44,75
16410,note_on,0,0,1,,,,,,,,,0,,,71,62
16410,note_on,7,0,1,,,,,,,,,0,,,72,0
16414,note_on,4,0,3,,,,,,,,,2,,,44,0
16417,note_on,7,0,1,,,,,,,,,0,,,72,62
16418,note_on,1,0,1,,,,,,,,,0,,,71,0
16425,note_on,7,0,1,,,,,,,,,0,,,72,0
16425,note_on,0,0,1,,,,,,,,,0,,,71,62
16432,note_on,7,0,1,,,,,,,,,0,,,72,62
16433,note_on,1,0,1,,,,,,,,,0,,,71,0
16440,note_on,26,0,3,,,,,,,,,2,,,43,75
16440,note_on,7,0,1,,,,,,,,,0,,,72,0
16440,note_on,0,0,1,,,,,,,,,0,,,71,62
16444,note_on,4,0,3,,,,,,,,,2,,,43,0
16447,note_on,7,0,1,,,,,,,,,0,,,72,62
16448,note_on,1,0,1,,,,,,,,,0,,,71,0
16455,note_on,7,0,1,,,,,,,,,0,,,72,0
16455,note_on,0,0,1,,,,,,,,,0,,,71,62
16462,note_on,7,0,1,,,,,,,,,0,,,72,62
16463,note_on,1,0,1,,,,,,,,,0,,,71,0
16470,note_on,0,0,1,,,,,,,,,0,,,71,62
16470,note_on,26,0,3,,,,,,,,,2,,,42,75
16470,note_on,7,0,1,,,,,,,,,0,,,72,0
16474,note_on,4,0,3,,,,,,,,,2,,,42,0
16477,note_on,7,0,1,,,,,,,,,0,,,72,62
16478,note_on,1,0,1,,,,,,,,,0,,,71,0
16485,note_on,7,0,1,,,,,,,,,0,,,72,0
16485,note_on,0,0,1,,,,,,,,,0,,,71,62
16492,note_on,7,0,1,,,,,,,,,0,,,72,62
16493,note_on,1,0,1,,,,,,,,,0,,,71,0
16500,note_on,7,0,1,,,,,,,,,0,,,72,0
16500,note_on,0,0,1,,,,,,,,,0,,,71,62
16500,note_on,26,0,3,,,,,,,,,2,,,43,75
16504,note_on,4,0,3,,,,,,,,,2,,,43,0
16507,note_on,7,0,1,,,,,,,,,0,,,72,62
16508,note_on,1,0,1,,,,,,,,,0,,,71,0
16515,note_on,7,0,1,,,,,,,,,0,,,72,0
16515,note_on,0,0,1,,,,,,,,,0,,,71,62
16522,note_on,7,0,1,,,,,,,,,0,,,72,62
16523,note_on,1,0,1,,,,,,,,,0,,,71,0
16530,note_on,0,0,3,,,,,,,,,2,,,31,75
16530,control_change,26,0,3,,,,,,,,,2,64,0,,
16530,note_on,7,0,1,,,,,,,,,0,,,72,0
16530,note_on,0,0,1,,,,,,,,,0,,,71,62
16534,note_on,4,0,3,,,,,,,,,2,,,31,0
16537,note_on,7,0,1,,,,,,,,,0,,,72,62
16538,note_on,1,0,1,,,,,,,,,0,,,71,0
16545,control_change,0,0,1,,,,,,,,,0,64,0,,
16545,note_on,0,0,1,,,,,,,,,0,,,69,62
16545,note_on,7,0,1,,,,,,,,,0,,,72,0
16552,note_on,7,0,1,,,,,,,,,0,,,71,62
16553,note_on,1,0,1,,,,,,,,,0,,,69,0
16560,note_on,0,0,1,,,,,,,,,0,,,72,49
16560,control_change,26,0,3,,,,,,,,,2,64,127,,
16560,note_on,0,0,1,,,,,,,,,0,,,60,49
16560,note_on,7,0,1,,,,,,,,,0,,,71,0
16560,note_on,0,0,2,,,,,,,,,1,,,62,0
16560,note_on,360,0,2,,,,,,,,,1,,,65,0
16560,note_on,0,0,1,,,,,,,,,0,,,64,49
16590,note_on,30,0,3,,,,,,,,,2,,,35,49
16594,note_on,4,0,3,,,,,,,,,2,,,35,0
16620,note_on,60,0,1,,,,,,,,,0,,,72,0
16620,note_on,0,0,1,,,,,,,,,0,,,64,0
16620,note_on,0,0,1,,,,,,,,,0,,,60,0
16620,note_on,26,0,3,,,,,,,,,2,,,36,49
16624,note_on,4,0,3,,,,,,,,,2,,,36,0
16650,note_on,26,0,3,,,,,,,,,2,,,35,49
16654,note_on,4,0,3,,,,,,,,,2,,,35,0
16680,note_on,26,0,3,,,,,,,,,2,,,36,49
16686,note_on,6,0,3,,,,,,,,,2,,,36,0
16710,note_on,0,0,1,,,,,,,,,0,,,66,62
16710,note_on,90,0,1,,,,,,,,,0,,,63,62
16714,note_on,0,0,1,,,,,,,,,0,,,63,0
16714,note_on,4,0,1,,,,,,,,,0,,,66,0
16740,note_on,0,0,1,,,,,,,,,0,,,67,62
16740,note_on,26,0,1,,,,,,,,,0,,,64,62
16740,control_change,54,0,3,,,,,,,,,2,64,0,,
16744,note_on,4,0,1,,,,,,,,,0,,,67,0
16744,note_on,0,0,1,,,,,,,,,0,,,64,0
16770,note_on,26,0,1,,,,,,,,,0,,,63,62
16770,note_on,0,0,1,,,,,,,,,0,,,66,62
16774,note_on,4,0,1,,,,,,,,,0,,,66,0
16774,note_on,0,0,1,,,,,,,,,0,,,63,0
16800,note_on,0,0,1,,,,,,,,,0,,,67,75
16800,note_on,0,0,1,,,,,,,,,0,,,64,75
16800,control_change,26,0,1,,,,,,,,,0,64,127,,
16804,note_on,0,0,1,,,,,,,,,0,,,64,0
16804,note_on,4,0,1,,,,,,,,,0,,,67,0
16830,note_on,0,0,1,,,,,,,,,0,,,69,75
16830,note_on,26,0,1,,,,,,,,,0,,,66,75
16834,note_on,0,0,1,,,,,,,,,0,,,66,0
16834,note_on,4,0,1,,,,,,,,,0,,,69,0
16860,note_on,26,0,1,,,,,,,,,0,,,67,75
16860,note_on,0,0,1,,,,,,,,,0,,,70,75
16864,note_on,4,0,1,,,,,,,,,0,,,70,0
16864,note_on,0,0,1,,,,,,,,,0,,,67,0
16890,note_on,0,0,1,,,,,,,,,0,,,66,75
16890,control_change,26,0,1,,,,,,,,,0,64,0,,
16890,note_on,0,0,1,,,,,,,,,0,,,69,75
16894,note_on,0,0,1,,,,,,,,,0,,,66,0
16894,note_on,4,0,1,,,,,,,,,0,,,69,0
16920,note_on,0,0,1,,,,,,,,,0,,,70,88
16920,note_on,26,0,1,,,,,,,,,0,,,67,88
16920,control_change,180,0,3,,,,,,,,,2,64,127,,
16950,note_on,30,0,3,,,,,,,,,2,,,35,88
16954,note_on,4,0,3,,,,,,,,,2,,,35,0
16980,note_on,0,0,1,,,,,,,,,0,,,67,0
16980,note_on,60,0,1,,,,,,,,,0,,,70,0
16980,note_on,26,0,3,,,,,,,,,2,,,36,88
16984,note_on,4,0,3,,,,,,,,,2,,,36,0
17010,note_on,26,0,3,,,,,,,,,2,,,35,88
17014,note_on,4,0,3,,,,,,,,,2,,,35,0
17040,note_on,26,0,3,,,,,,,,,2,,,36,88
17046,note_on,6,0,3,,,,,,,,,2,,,36,0
17070,note_on,90,0,1,,,,,,,,,0,,,66,88
17070,note_on,0,0,1,,,,,,,,,0,,,76,88
17070,note_on,0,0,1,,,,,,,,,0,,,69,88
17074,note_on,0,0,1,,,,,,,,,0,,,69,0
17074,note_on,4,0,1,,,,,,,,,0,,,76,0
17074,note_on,0,0,1,,,,,,,,,0,,,66,0
17100,control_change,54,0,3,,,,,,,,,2,64,0,,
17100,note_on,26,0,1,,,,,,,,,0,,,67,88
17100,note_on,0,0,1,,,,,,,,,0,,,76,88
17100,note_on,0,0,1,,,,,,,,,0,,,70,88
17104,note_on,0,0,1,,,,,,,,,0,,,70,0
17104,note_on,0,0,1,,,,,,,,,0,,,67,0
17104,note_on,4,0,1,,,,,,,,,0,,,76,0
17130,note_on,26,0,1,,,,,,,,,0,,,66,88
17130,note_on,0,0,1,,,,,,,,,0,,,69,88
17130,note_on,0,0,1,,,,,,,,,0,,,76,88
17134,note_on,0,0,1,,,,,,,,,0,,,69,0
17134,note_on,0,0,1,,,,,,,,,0,,,66,0
17134,note_on,4,0,1,,,,,,,,,0,,,76,0
17160,note_on,26,0,1,,,,,,,,,0,,,67,88
17160,note_on,0,0,1,,,,,,,,,0,,,70,88
17160,note_on,0,0,1,,,,,,,,,0,,,76,88
17166,note_on,0,0,1,,,,,,,,,0,,,70,0
17166,note_on,0,0,1,,,,,,,,,0,,,67,0
17166,note_on,6,0,1,,,,,,,,,0,,,76,0
17190,note_on,90,0,3,,,,,,,,,2,,,35,88
17194,note_on,4,0,3,,,,,,,,,2,,,35,0
17220,note_on,26,0,3,,,,,,,,,2,,,36,88
17224,note_on,4,0,3,,,,,,,,,2,,,36,0
17250,note_on,26,0,3,,,,,,,,,2,,,35,88
17254,note_on,4,0,3,,,,,,,,,2,,,35,0
17280,note_on,26,0,3,,,,,,,,,2,,,36,88
17280,control_change,114,0,1,,,,,,,,,0,64,127,,
17310,note_on,0,0,1,,,,,,,,,0,,,76,75
17310,note_on,0,0,1,,,,,,,,,0,,,69,75
17310,note_on,30,0,1,,,,,,,,,0,,,66,75
17314,note_on,0,0,1,,,,,,,,,0,,,66,0
17314,note_on,0,0,1,,,,,,,,,0,,,69,0
17314,note_on,4,0,1,,,,,,,,,0,,,76,0
17340,note_on,26,0,1,,,,,,,,,0,,,67,75
17340,note_on,0,0,1,,,,,,,,,0,,,70,75
17340,note_on,0,0,1,,,,,,,,,0,,,76,75
17340,note_on,60,0,3,,,,,,,,,2,,,36,0
17344,note_on,4,0,1,,,,,,,,,0,,,76,0
17344,note_on,0,0,1,,,,,,,,,0,,,70,0
17344,note_on,0,0,1,,,,,,,,,0,,,67,0
17370,note_on,0,0,1,,,,,,,,,0,,,69,75
17370,note_on,0,0,1,,,,,,,,,0,,,76,75
17370,note_on,26,0,1,,,,,,,,,0,,,66,75
17374,note_on,0,0,1,,,,,,,,,0,,,69,0
17374,note_on,0,0,1,,,,,,,,,0,,,66,0
17374,note_on,4,0,1,,,,,,,,,0,,,76,0
17400,control_change,26,0,1,,,,,,,,,0,64,0,,
17400,note_on,0,0,1,,,,,,,,,0,,,67,75
17400,note_on,0,0,1,,,,,,,,,0,,,70,75
17400,note_on,0,0,1,,,,,,,,,0,,,76,75
17406,note_on,0,0,1,,,,,,,,,0,,,67,0
17406,note_on,6,0,1,,,,,,,,,0,,,76,0
17406,note_on,0,0,1,,,,,,,,,0,,,70,0
17430,note_on,90,0,3,,,,,,,,,2,,,35,62
17434,note_on,4,0,3,,,,,,,,,2,,,35,0
17460,note_on,26,0,3,,,,,,,,,2,,,36,62
17464,note_on,4,0,3,,,,,,,,,2,,,36,0
17490,note_on,26,0,3,,,,,,,,,2,,,35,62
17494,note_on,4,0,3,,,,,,,,,2,,,35,0
17520,note_on,26,0,3,,,,,,,,,2,,,36,62
17524,note_on,4,0,3,,,,,,,,,2,,,36,0
17550,note_on,26,0,3,,,,,,,,,2,,,34,62
17554,note_on,4,0,3,,,,,,,,,2,,,34,0
17580,note_on,26,0,3,,,,,,,,,2,,,35,62
17584,note_on,4,0,3,,,,,,,,,2,,,35,0
17610,note_on,26,0,3,,,,,,,,,2,,,34,62
17614,note_on,4,0,3,,,,,,,,,2,,,34,0
17640,note_on,0,0,3,,,,,,,,,2,,,35,49
17640,control_change,26,0,3,,,,,,,,,2,64,127,,
17640,control_change,234,0,1,,,,,,,,,0,64,127,,
17646,note_on,6,0,3,,,,,,,,,2,,,35,0
17670,note_on,30,0,1,,,,,,,,,0,,,67,49
17670,note_on,0,0,1,,,,,,,,,0,,,76,49
17670,note_on,0,0,1,,,,,,,,,0,,,70,49
17674,note_on,4,0,1,,,,,,,,,0,,,76,0
17674,note_on,0,0,1,,,,,,,,,0,,,67,0
17674,note_on,0,0,1,,,,,,,,,0,,,70,0
17700,note_on,26,0,1,,,,,,,,,0,,,68,49
17700,note_on,0,0,1,,,,,,,,,0,,,71,49
17700,note_on,0,0,1,,,,,,,,,0,,,76,49
17704,note_on,4,0,1,,,,,,,,,0,,,76,0
17704,note_on,0,0,1,,,,,,,,,0,,,71,0
17704,note_on,0,0,1,,,,,,,,,0,,,68,0
17730,note_on,26,0,1,,,,,,,,,0,,,67,49
17730,note_on,0,0,1,,,,,,,,,0,,,70,49
17730,note_on,0,0,1,,,,,,,,,0,,,76,49
17734,note_on,4,0,1,,,,,,,,,0,,,76,0
17734,note_on,0,0,1,,,,,,,,,0,,,70,0
17734,note_on,0,0,1,,,,,,,,,0,,,67,0
17760,note_on,0,0,1,,,,,,,,,0,,,76,49
17760,note_on,0,0,1,,,,,,,,,0,,,71,49
17760,note_on,26,0,1,,,,,,,,,0,,,68,49
17766,note_on,6,0,1,,,,,,,,,0,,,76,0
17766,note_on,0,0,1,,,,,,,,,0,,,71,0
17766,note_on,0,0,1,,,,,,,,,0,,,68,0
17790,note_on,144,0,3,,,,,,,,,2,,,34,49
17794,note_on,4,0,3,,,,,,,,,2,,,34,0
17820,control_change,54,0,1,,,,,,,,,0,64,0,,
17820,note_on,26,0,3,,,,,,,,,2,,,35,49
17824,note_on,4,0,3,,,,,,,,,2,,,35,0
17850,note_on,26,0,3,,,,,,,,,2,,,34,49
17854,note_on,4,0,3,,,,,,,,,2,,,34,0
17880,note_on,26,0,3,,,,,,,,,2,,,35,49
17886,note_on,6,0,3,,,,,,,,,2,,,35,0
17910,note_on,0,0,1,,,,,,,,,0,,,68,49
17910,note_on,0,0,1,,,,,,,,,0,,,75,49
17910,note_on,90,0,1,,,,,,,,,0,,,65,49
17914,note_on,0,0,1,,,,,,,,,0,,,65,0
17914,note_on,0,0,1,,,,,,,,,0,,,68,0
17914,note_on,4,0,1,,,,,,,,,0,,,75,0
17940,control_change,54,0,3,,,,,,,,,2,64,0,,
17940,set_tempo,6780,1,0,,,,,,1052632,,,,,,,
17940,note_on,0,0,1,,,,,,,,,0,,,75,49
17940,note_on,0,0,1,,,,,,,,,0,,,69,49
17940,note_on,26,0,1,,,,,,,,,0,,,66,49
17944,note_on,0,0,1,,,,,,,,,0,,,66,0
17944,note_on,0,0,1,,,,,,,,,0,,,69,0
17944,note_on,4,0,1,,,,,,,,,0,,,75,0
17970,note_on,26,0,1,,,,,,,,,0,,,65,49
17970,note_on,0,0,1,,,,,,,,,0,,,68,49
17970,note_on,0,0,1,,,,,,,,,0,,,75,49
17974,note_on,0,0,1,,,,,,,,,0,,,68,0
17974,note_on,4,0,1,,,,,,,,,0,,,75,0
17974,note_on,0,0,1,,,,,,,,,0,,,65,0
18000,set_tempo,60,1,0,,,,,,1111111,,,,,,,
18000,control_change,26,0,1,,,,,,,,,0,64,127,,
18000,note_on,0,0,1,,,,,,,,,0,,,69,49
18000,note_on,0,0,1,,,,,,,,,0,,,75,49
18000,control_change,60,0,3,,,,,,,,,2,64,127,,
18000,note_on,0,0,1,,,,,,,,,0,,,66,49
18030,note_on,30,0,3,,,,,,,,,2,,,34,49
18034,note_on,4,0,3,,,,,,,,,2,,,34,0
18060,note_on,60,0,1,,,,,,,,,0,,,75,0
18060,note_on,0,0,1,,,,,,,,,0,,,69,0
18060,note_on,0,0,1,,,,,,,,,0,,,66,0
18060,note_on,26,0,3,,,,,,,,,2,,,35,49
18060,set_tempo,60,1,0,,,,,,1176471,,,,,,,
18064,note_on,4,0,3,,,,,,,,,2,,,35,0
18090,note_on,26,0,3,,,,,,,,,2,,,34,49
18094,note_on,4,0,3,,,,,,,,,2,,,34,0
18120,set_tempo,60,1,0,,,,,,1276596,,,,,,,
18120,note_on,26,0,3,,,,,,,,,2,,,35,49
18126,note_on,6,0,3,,,,,,,,,2,,,35,0
18150,note_on,90,0,1,,,,,,,,,0,,,58,36
18154,note_on,4,0,1,,,,,,,,,0,,,58,0
18180,control_change,54,0,3,,,,,,,,,2,64,0,,
18180,control_change,26,0,1,,,,,,,,,0,64,0,,
18180,note_on,0,0,1,,,,,,,,,0,,,59,36
18180,set_tempo,60,1,0,,,,,,1363636,,,,,,,
18184,note_on,4,0,1,,,,,,,,,0,,,59,0
18210,note_on,26,0,1,,,,,,,,,0,,,58,36
18214,note_on,4,0,1,,,,,,,,,0,,,58,0
18240,note_on,26,0,1,,,,,,,,,0,,,59,36
18240,set_tempo,60,1,0,,,,,,1463415,,,,,,,
18244,note_on,4,0,1,,,,,,,,,0,,,59,0
18270,note_on,26,0,1,,,,,,,,,0,,,58,36
18274,note_on,4,0,1,,,,,,,,,0,,,58,0
18300,set_tempo,60,1,0,,,,,,1578947,,,,,,,
18300,note_on,26,0,1,,,,,,,,,0,,,59,36
18304,note_on,4,0,1,,,,,,,,,0,,,59,0
18330,note_on,26,0,1,,,,,,,,,0,,,58,36
18334,note_on,4,0,1,,,,,,,,,0,,,58,0
18360,control_change,26,0,1,,,,,,,,,0,64,127,,
18360,set_tempo,0,1,0,,,,,,1071429,,,,,,,
18360,note_on,0,0,1,,,,,,,,,0,,,68,36
18360,note_on,0,0,1,,,,,,,,,0,,,64,36
18360,control_change,1800,0,2,,,,,,,,,1,64,127,,
18360,key_signature,60,1,0,,,,,E,,,,,,,,
18360,note_on,0,0,2,,,,,,,,,1,,,59,36
18360,note_on,0,0,3,,,,,,,,,2,,,40,36
18360,control_change,180,0,3,,,,,,,,,2,64,127,,
18360,note_on,0,0,3,,,,,,,,,2,,,52,36
18369,note_on,9,0,1,,,,,,,,,0,,,68,0
18369,note_on,0,0,1,,,,,,,,,0,,,64,0
18390,note_on,30,0,2,,,,,,,,,1,,,59,0
18390,note_on,0,0,2,,,,,,,,,1,,,58,36
18420,note_on,0,0,2,,,,,,,,,1,,,59,36
18420,note_on,30,0,2,,,,,,,,,1,,,58,0
18450,note_on,81,0,1,,,,,,,,,0,,,68,36
18450,note_on,0,0,2,,,,,,,,,1,,,58,36
18450,note_on,30,0,2,,,,,,,,,1,,,59,0
18450,note_on,0,0,3,,,,,,,,,2,,,40,0
18450,note_on,0,0,3,,,,,,,,,2,,,52,36
18450,note_on,0,0,2,,,,,,,,,1,,,64,36
18450,note_on,90,0,3,,,,,,,,,2,,,52,0
18454,note_on,4,0,3,,,,,,,,,2,,,52,0
18454,note_on,4,0,1,,,,,,,,,0,,,68,0
18480,note_on,26,0,3,,,,,,,,,2,,,52,36
18480,note_on,30,0,2,,,,,,,,,1,,,64,0
18480,note_on,26,0,1,,,,,,,,,0,,,68,36
18480,note_on,0,0,2,,,,,,,,,1,,,59,36
18480,note_on,0,0,2,,,,,,,,,1,,,64,36
18480,note_on,0,0,2,,,,,,,,,1,,,58,0
18486,note_on,6,0,3,,,,,,,,,2,,,52,0
18486,note_on,6,0,1,,,,,,,,,0,,,68,0
18510,note_on,30,0,2,,,,,,,,,1,,,64,0
18510,note_on,0,0,2,,,,,,,,,1,,,59,0
18510,note_on,0,0,2,,,,,,,,,1,,,58,36
18540,note_on,0,0,3,,,,,,,,,2,,,52,36
18540,control_change,54,0,3,,,,,,,,,2,64,0,,
18540,note_on,0,0,1,,,,,,,,,0,,,68,36
18540,control_change,0,0,2,,,,,,,,,1,64,0,,
18540,control_change,54,0,1,,,,,,,,,0,64,0,,
18540,note_on,0,0,2,,,,,,,,,1,,,64,36
18540,note_on,0,0,2,,,,,,,,,1,,,59,36
18540,note_on,30,0,2,,,,,,,,,1,,,58,0
18546,note_on,6,0,3,,,,,,,,,2,,,52,0
18546,note_on,6,0,1,,,,,,,,,0,,,68,0
18570,note_on,30,0,2,,,,,,,,,1,,,64,0
18570,note_on,0,0,2,,,,,,,,,1,,,59,0
18570,note_on,0,0,2,,,,,,,,,1,,,60,36
18600,note_on,0,0,2,,,,,,,,,1,,,64,36
18600,note_on,54,0,1,,,,,,,,,0,,,69,49
18600,note_on,30,0,2,,,,,,,,,1,,,60,0
18600,note_on,0,0,2,,,,,,,,,1,,,61,36
18600,note_on,54,0,3,,,,,,,,,2,,,52,36
18606,note_on,6,0,1,,,,,,,,,0,,,69,0
18606,note_on,6,0,3,,,,,,,,,2,,,52,0
18630,note_on,0,0,2,,,,,,,,,1,,,60,36
18630,note_on,30,0,2,,,,,,,,,1,,,64,0
18630,note_on,0,0,2,,,,,,,,,1,,,61,0
18660,note_on,30,0,2,,,,,,,,,1,,,60,0
18660,note_on,0,0,2,,,,,,,,,1,,,61,36
18660,note_on,0,0,2,,,,,,,,,1,,,64,36
18660,note_on,54,0,1,,,,,,,,,0,,,71,49
18660,note_on,54,0,3,,,,,,,,,2,,,44,36
18660,note_on,0,0,3,,,,,,,,,2,,,52,36
18666,note_on,6,0,1,,,,,,,,,0,,,71,0
18666,note_on,0,0,3,,,,,,,,,2,,,44,0
18666,note_on,6,0,3,,,,,,,,,2,,,52,0
18690,note_on,30,0,2,,,,,,,,,1,,,64,0
18690,note_on,0,0,2,,,,,,,,,1,,,61,0
18690,note_on,0,0,2,,,,,,,,,1,,,62,36
18720,note_on,0,0,3,,,,,,,,,2,,,52,36
18720,note_on,0,0,1,,,,,,,,,0,,,71,49
18720,note_on,54,0,3,,,,,,,,,2,,,45,36
18720,note_on,0,0,1,,,,,,,,,0,,,64,49
18720,note_on,0,0,2,,,,,,,,,1,,,61,36
18720,control_change,0,0,2,,,,,,,,,1,64,127,,
18720,control_change,54,0,1,,,,,,,,,0,64,127,,
18720,note_on,30,0,2,,,,,,,,,1,,,62,0
18750,note_on,0,0,2,,,,,,,,,1,,,60,36
18750,note_on,30,0,2,,,,,,,,,1,,,61,0
18780,note_on,0,0,2,,,,,,,,,1,,,61,36
18780,note_on,30,0,2,,,,,,,,,1,,,60,0
18810,note_on,0,0,2,,,,,,,,,1,,,63,36
18810,note_on,30,0,2,,,,,,,,,1,,,61,0
18810,note_on,0,0,1,,,,,,,,,0,,,69,36
18810,note_on,0,0,1,,,,,,,,,0,,,64,0
18810,note_on,90,0,1,,,,,,,,,0,,,71,0
18840,note_on,30,0,2,,,,,,,,,1,,,63,0
18840,note_on,30,0,1,,,,,,,,,0,,,69,0
18840,note_on,120,0,3,,,,,,,,,2,,,52,0
18840,note_on,0,0,3,,,,,,,,,2,,,40,36
18840,note_on,0,0,3,,,,,,,,,2,,,45,0
18840,control_change,0,0,1,,,,,,,,,0,64,0,,
18840,note_on,0,0,3,,,,,,,,,2,,,52,36
18840,note_on,0,0,1,,,,,,,,,0,,,68,36
18840,note_on,0,0,2,,,,,,,,,1,,,64,36
18870,note_on,0,0,2,,,,,,,,,1,,,59,36
18870,note_on,30,0,2,,,,,,,,,1,,,64,0
18870,control_change,0,0,2,,,,,,,,,1,64,0,,
18900,note_on,0,0,2,,,,,,,,,1,,,64,36
18900,note_on,60,0,3,,,,,,,,,2,,,52,0
18900,note_on,0,0,3,,,,,,,,,2,,,40,0
18900,note_on,30,0,2,,,,,,,,,1,,,59,0
18900,note_on,60,0,1,,,,,,,,,0,,,68,0
18930,note_on,0,0,2,,,,,,,,,1,,,63,36
18930,note_on,30,0,2,,,,,,,,,1,,,64,0
18960,note_on,30,0,2,,,,,,,,,1,,,63,0
18960,note_on,0,0,2,,,,,,,,,1,,,64,36
18990,note_on,0,0,2,,,,,,,,,1,,,63,36
18990,note_on,30,0,2,,,,,,,,,1,,,64,0
19020,note_on,0,0,2,,,,,,,,,1,,,61,36
19020,note_on,30,0,2,,,,,,,,,1,,,63,0
19050,note_on,0,0,2,,,,,,,,,1,,,59,36
19050,note_on,30,0,2,,,,,,,,,1,,,61,0
19080,note_on,30,0,2,,,,,,,,,1,,,59,0
19080,note_on,0,0,3,,,,,,,,,2,,,47,36
19080,control_change,180,0,1,,,,,,,,,0,64,127,,
19080,note_on,0,0,1,,,,,,,,,0,,,68,36
19080,note_on,0,0,1,,,,,,,,,0,,,63,36
19080,control_change,180,0,3,,,,,,,,,2,64,127,,
19080,control_change,0,0,2,,,,,,,,,1,64,127,,
19080,note_on,0,0,2,,,,,,,,,1,,,57,36
19110,note_on,30,0,2,,,,,,,,,1,,,57,0
19110,note_on,0,0,2,,,,,,,,,1,,,58,36
19140,note_on,30,0,2,,,,,,,,,1,,,58,0
19140,note_on,0,0,2,,,,,,,,,1,,,59,36
19170,note_on,0,0,1,,,,,,,,,0,,,63,0
19170,note_on,90,0,1,,,,,,,,,0,,,68,0
19170,note_on,0,0,2,,,,,,,,,1,,,57,36
19170,note_on,90,0,3,,,,,,,,,2,,,47,0
19170,note_on,0,0,3,,,,,,,,,2,,,48,36
19170,note_on,0,0,1,,,,,,,,,0,,,66,36
19170,note_on,30,0,2,,,,,,,,,1,,,59,0
19200,note_on,0,0,3,,,,,,,,,2,,,49,36
19200,control_change,0,0,3,,,,,,,,,2,64,0,,
19200,note_on,0,0,1,,,,,,,,,0,,,64,36
19200,note_on,30,0,3,,,,,,,,,2,,,48,0
19200,control_change,0,0,1,,,,,,,,,0,64,0,,
19200,note_on,30,0,2,,,,,,,,,1,,,57,0
19200,note_on,30,0,1,,,,,,,,,0,,,66,0
19200,control_change,0,0,2,,,,,,,,,1,64,0,,
19200,note_on,0,0,2,,,,,,,,,1,,,56,36
19230,note_on,30,0,2,,,,,,,,,1,,,56,0
19230,note_on,0,0,2,,,,,,,,,1,,,57,36
19260,note_on,30,0,2,,,,,,,,,1,,,57,0
19260,note_on,0,0,1,,,,,,,,,0,,,68,36
19260,note_on,0,0,2,,,,,,,,,1,,,60,36
19260,note_on,60,0,1,,,,,,,,,0,,,64,0
19260,note_on,0,0,3,,,,,,,,,2,,,45,36
19260,note_on,60,0,3,,,,,,,,,2,,,49,0
19266,note_on,6,0,3,,,,,,,,,2,,,45,0
19290,note_on,30,0,1,,,,,,,,,0,,,68,0
19290,note_on,30,0,2,,,,,,,,,1,,,60,0
19290,note_on,0,0,2,,,,,,,,,1,,,61,36
19290,note_on,0,0,1,,,,,,,,,0,,,66,36
19320,note_on,30,0,1,,,,,,,,,0,,,66,0
19320,note_on,54,0,3,,,,,,,,,2,,,47,36
19320,note_on,30,0,2,,,,,,,,,1,,,61,0
19320,note_on,0,0,2,,,,,,,,,1,,,56,36
19320,note_on,0,0,1,,,,,,,,,0,,,64,36
19324,note_on,4,0,1,,,,,,,,,0,,,64,0
19326,note_on,6,0,3,,,,,,,,,2,,,47,0
19350,note_on,0,0,2,,,,,,,,,1,,,59,36
19350,note_on,30,0,2,,,,,,,,,1,,,56,0
19380,note_on,0,0,2,,,,,,,,,1,,,57,36
19380,note_on,54,0,3,,,,,,,,,2,,,47,36
19380,note_on,0,0,2,,,,,,,,,1,,,63,36
19380,note_on,56,0,1,,,,,,,,,0,,,66,36
19380,note_on,30,0,2,,,,,,,,,1,,,59,0
19386,note_on,6,0,3,,,,,,,,,2,,,47,0
19386,note_on,6,0,1,,,,,,,,,0,,,66,0
19410,note_on,30,0,2,,,,,,,,,1,,,63,0
19410,note_on,0,0,2,,,,,,,,,1,,,57,0
19410,note_on,0,0,2,,,,,,,,,1,,,59,36
19440,note_on,0,0,1,,,,,,,,,0,,,68,36
19440,note_on,0,0,3,,,,,,,,,2,,,52,36
19440,control_change,0,0,2,,,,,,,,,1,64,127,,
19440,note_on,0,0,1,,,,,,,,,0,,,64,36
19440,control_change,54,0,1,,,,,,,,,0,64,127,,
19440,control_change,54,0,3,,,,,,,,,2,64,127,,
19440,note_on,0,0,2,,,,,,,,,1,,,56,36
19440,note_on,30,0,2,,,,,,,,,1,,,59,0
19470,note_on,30,0,2,,,,,,,,,1,,,56,0
19470,note_on,0,0,2,,,,,,,,,1,,,58,36
19500,note_on,0,0,2,,,,,,,,,1,,,59,36
19500,note_on,30,0,2,,,,,,,,,1,,,58,0
19530,note_on,0,0,3,,,,,,,,,2,,,44,36
19530,note_on,30,0,2,,,,,,,,,1,,,59,0
19530,note_on,0,0,2,,,,,,,,,1,,,59,36
19530,note_on,0,0,1,,,,,,,,,0,,,64,0
19530,note_on,0,0,1,,,,,,,,,0,,,69,36
19530,note_on,90,0,1,,,,,,,,,0,,,68,0
19530,note_on,90,0,3,,,,,,,,,2,,,52,0
19534,note_on,4,0,3,,,,,,,,,2,,,44,0
19545,note_on,0,0,1,,,,,,,,,0,,,71,36
19545,note_on,15,0,1,,,,,,,,,0,,,69,0
19560,note_on,15,0,1,,,,,,,,,0,,,71,0
19560,control_change,0,0,1,,,,,,,,,0,64,0,,
19560,note_on,0,0,3,,,,,,,,,2,,,47,36
19560,control_change,26,0,3,,,,,,,,,2,64,0,,
19560,note_on,0,0,2,,,,,,,,,1,,,59,36
19560,control_change,0,0,2,,,,,,,,,1,64,0,,
19560,note_on,30,0,2,,,,,,,,,1,,,59,0
19560,note_on,0,0,1,,,,,,,,,0,,,63,36
19560,note_on,0,0,1,,,,,,,,,0,,,66,36
19590,note_on,0,0,2,,,,,,,,,1,,,58,36
19590,note_on,30,0,2,,,,,,,,,1,,,59,0
19620,note_on,0,0,2,,,,,,,,,1,,,59,36
19620,note_on,30,0,2,,,,,,,,,1,,,58,0
19650,note_on,30,0,2,,,,,,,,,1,,,59,0
19650,note_on,0,0,2,,,,,,,,,1,,,61,36
19680,note_on,0,0,1,,,,,,,,,0,,,63,0
19680,note_on,120,0,1,,,,,,,,,0,,,66,0
19680,note_on,0,0,2,,,,,,,,,1,,,63,36
19680,note_on,30,0,2,,,,,,,,,1,,,61,0
19680,note_on,120,0,3,,,,,,,,,2,,,47,0
19710,note_on,0,0,2,,,,,,,,,1,,,64,36
19710,note_on,30,0,2,,,,,,,,,1,,,63,0
19740,note_on,30,0,2,,,,,,,,,1,,,64,0
19740,note_on,0,0,2,,,,,,,,,1,,,65,36
19770,note_on,30,0,2,,,,,,,,,1,,,65,0
19770,note_on,0,0,2,,,,,,,,,1,,,66,36
19800,note_on,0,0,1,,,,,,,,,0,,,68,88
19800,control_change,120,0,1,,,,,,,,,0,64,127,,
19800,note_on,0,0,1,,,,,,,,,0,,,62,88
19800,note_on,0,0,1,,,,,,,,,0,,,64,88
19800,note_on,0,0,1,,,,,,,,,0,,,76,88
19800,note_on,0,0,4,,,,,,,,,3,,,52,75
19800,note_on,0,0,3,,,,,,,,,2,,,59,75
19800,control_change,120,0,3,,,,,,,,,2,64,127,,
19800,note_on,30,0,2,,,,,,,,,1,,,66,0
19800,control_change,5760,0,4,,,,,,,,,3,64,127,,
19830,note_on,0,0,3,,,,,,,,,2,,,58,36
19830,note_on,30,0,3,,,,,,,,,2,,,59,0
19860,note_on,0,0,3,,,,,,,,,2,,,59,36
19860,note_on,30,0,3,,,,,,,,,2,,,58,0
19890,note_on,0,0,1,,,,,,,,,0,,,64,49
19890,note_on,90,0,4,,,,,,,,,3,,,52,0
19890,note_on,0,0,4,,,,,,,,,3,,,52,36
19890,note_on,30,0,3,,,,,,,,,2,,,59,0
19890,note_on,0,0,3,,,,,,,,,2,,,58,36
19890,note_on,0,0,1,,,,,,,,,0,,,68,49
19890,note_on,0,0,1,,,,,,,,,0,,,62,49
19890,note_on,0,0,1,,,,,,,,,0,,,68,0
19890,note_on,90,0,1,,,,,,,,,0,,,76,0
19890,note_on,0,0,1,,,,,,,,,0,,,62,0
19890,note_on,0,0,1,,,,,,,,,0,,,64,0
19920,note_on,30,0,1,,,,,,,,,0,,,68,0
19920,note_on,0,0,4,,,,,,,,,3,,,52,36
19920,note_on,0,0,3,,,,,,,,,2,,,59,36
19920,note_on,30,0,3,,,,,,,,,2,,,58,0
19920,note_on,30,0,4,,,,,,,,,3,,,52,0
19920,note_on,0,0,1,,,,,,,,,0,,,64,0
19920,note_on,0,0,1,,,,,,,,,0,,,62,49
19920,note_on,0,0,1,,,,,,,,,0,,,62,0
19920,note_on,0,0,1,,,,,,,,,0,,,68,49
19920,note_on,0,0,1,,,,,,,,,0,,,64,49
19926,note_on,6,0,4,,,,,,,,,3,,,52,0
19950,note_on,0,0,3,,,,,,,,,2,,,58,36
19950,note_on,30,0,3,,,,,,,,,2,,,59,0
19980,note_on,30,0,3,,,,,,,,,2,,,58,0
19980,note_on,0,0,3,,,,,,,,,2,,,59,36
19980,note_on,54,0,4,,,,,,,,,3,,,52,36
19980,note_on,0,0,1,,,,,,,,,0,,,76,49
19980,note_on,0,0,1,,,,,,,,,0,,,64,49
19980,note_on,0,0,1,,,,,,,,,0,,,62,49
19980,note_on,0,0,1,,,,,,,,,0,,,62,0
19980,note_on,0,0,1,,,,,,,,,0,,,64,0
19980,note_on,60,0,1,,,,,,,,,0,,,68,0
19980,note_on,0,0,1,,,,,,,,,0,,,68,49
19986,note_on,6,0,4,,,,,,,,,3,,,52,0
20010,note_on,0,0,3,,,,,,,,,2,,,60,36
20010,note_on,0,0,1,,,,,,,,,0,,,68,49
20010,note_on,0,0,1,,,,,,,,,0,,,68,0
20010,note_on,30,0,3,,,,,,,,,2,,,59,0
20010,note_on,0,0,1,,,,,,,,,0,,,62,0
20010,control_change,0,0,3,,,,,,,,,2,64,0,,
20010,note_on,30,0,1,,,,,,,,,0,,,76,0
20010,note_on,0,0,1,,,,,,,,,0,,,64,0
20040,note_on,240,0,2,,,,,,,,,1,,,64,36
20040,note_on,0,0,4,,,,,,,,,3,,,61,36
20040,note_on,0,0,4,,,,,,,,,3,,,52,36
20040,control_change,54,0,4,,,,,,,,,3,64,0,,
20040,note_on,30,0,3,,,,,,,,,2,,,60,0
20040,note_on,30,0,1,,,,,,,,,0,,,68,0
20040,control_change,0,0,1,,,,,,,,,0,64,0,,
20040,note_on,0,0,1,,,,,,,,,0,,,69,49
20046,note_on,6,0,1,,,,,,,,,0,,,69,0
20046,note_on,0,0,4,,,,,,,,,3,,,52,0
20046,note_on,6,0,4,,,,,,,,,3,,,61,0
20070,note_on,30,0,2,,,,,,,,,1,,,64,0
20070,note_on,0,0,2,,,,,,,,,1,,,63,36
20100,note_on,54,0,4,,,,,,,,,3,,,52,36
20100,note_on,0,0,2,,,,,,,,,1,,,64,36
20100,note_on,0,0,4,,,,,,,,,3,,,56,36
20100,note_on,30,0,2,,,,,,,,,1,,,63,0
20100,note_on,54,0,1,,,,,,,,,0,,,71,49
20106,note_on,6,0,1,,,,,,,,,0,,,71,0
20106,note_on,6,0,4,,,,,,,,,3,,,56,0
20106,note_on,0,0,4,,,,,,,,,3,,,52,0
20130,note_on,0,0,2,,,,,,,,,1,,,66,36
20130,note_on,30,0,2,,,,,,,,,1,,,64,0
20160,control_change,120,0,3,,,,,,,,,2,64,127,,
20160,note_on,0,0,2,,,,,,,,,1,,,64,36
20160,note_on,0,0,3,,,,,,,,,2,,,56,36
20160,note_on,30,0,2,,,,,,,,,1,,,66,0
20160,note_on,0,0,3,,,,,,,,,2,,,52,36
20160,control_change,54,0,1,,,,,,,,,0,64,127,,
20160,note_on,0,0,1,,,,,,,,,0,,,62,49
20160,note_on,0,0,1,,,,,,,,,0,,,71,49
20160,control_change,0,0,2,,,,,,,,,1,64,127,,
20190,note_on,30,0,2,,,,,,,,,1,,,64,0
20190,note_on,0,0,2,,,,,,,,,1,,,63,36
20220,note_on,30,0,2,,,,,,,,,1,,,63,0
20220,note_on,0,0,2,,,,,,,,,1,,,64,36
20250,note_on,90,0,1,,,,,,,,,0,,,71,0
20250,note_on,0,0,1,,,,,,,,,0,,,62,0
20250,note_on,0,0,3,,,,,,,,,2,,,45,36
20250,note_on,0,0,3,,,,,,,,,2,,,52,0
20250,note_on,0,0,3,,,,,,,,,2,,,57,36
20250,note_on,90,0,3,,,,,,,,,2,,,56,0
20250,note_on,0,0,1,,,,,,,,,0,,,73,49
20250,note_on,0,0,1,,,,,,,,,0,,,61,49
20250,note_on,0,0,2,,,,,,,,,1,,,64,36
20250,note_on,30,0,2,,,,,,,,,1,,,64,0
20280,note_on,30,0,1,,,,,,,,,0,,,73,0
20280,note_on,0,0,1,,,,,,,,,0,,,61,0
20280,note_on,30,0,2,,,,,,,,,1,,,64,0
20280,control_change,0,0,1,,,,,,,,,0,64,0,,
20280,note_on,0,0,3,,,,,,,,,2,,,56,36
20280,note_on,0,0,3,,,,,,,,,2,,,52,36
20280,control_change,0,0,3,,,,,,,,,2,64,0,,
20280,note_on,0,0,3,,,,,,,,,2,,,45,0
20280,note_on,30,0,3,,,,,,,,,2,,,57,0
20280,note_on,0,0,2,,,,,,,,,1,,,64,36
20280,note_on,0,0,1,,,,,,,,,0,,,71,49
20310,note_on,0,0,2,,,,,,,,,1,,,63,36
20310,note_on,30,0,2,,,,,,,,,1,,,64,0
20340,note_on,0,0,2,,,,,,,,,1,,,64,36
20340,note_on,30,0,2,,,,,,,,,1,,,63,0
20370,note_on,30,0,2,,,,,,,,,1,,,64,0
20370,note_on,0,0,2,,,,,,,,,1,,,66,36
20400,note_on,30,0,2,,,,,,,,,1,,,66,0
20400,control_change,0,0,2,,,,,,,,,1,64,0,,
20400,note_on,0,0,2,,,,,,,,,1,,,69,36
20400,note_on,0,0,3,,,,,,,,,2,,,52,0
20400,note_on,120,0,3,,,,,,,,,2,,,56,0
20400,note_on,120,0,1,,,,,,,,,0,,,71,0
20430,note_on,30,0,2,,,,,,,,,1,,,69,0
20430,note_on,0,0,2,,,,,,,,,1,,,68,36
20460,note_on,30,0,2,,,,,,,,,1,,,68,0
20460,note_on,0,0,2,,,,,,,,,1,,,66,36
20490,note_on,0,0,2,,,,,,,,,1,,,64,36
20490,note_on,30,0,2,,,,,,,,,1,,,66,0
20520,control_change,0,0,2,,,,,,,,,1,64,127,,
20520,note_on,0,0,3,,,,,,,,,2,,,54,36
20520,note_on,0,0,3,,,,,,,,,2,,,47,36
20520,control_change,120,0,3,,,,,,,,,2,64,127,,
20520,note_on,0,0,2,,,,,,,,,1,,,63,36
20520,note_on,0,0,1,,,,,,,,,0,,,71,36
20520,control_change,120,0,1,,,,,,,,,0,64,127,,
20520,note_on,30,0,2,,,,,,,,,1,,,64,0
20550,note_on,30,0,2,,,,,,,,,1,,,63,0
20550,note_on,0,0,2,,,,,,,,,1,,,62,36
20580,note_on,30,0,2,,,,,,,,,1,,,62,0
20580,note_on,0,0,2,,,,,,,,,1,,,63,36
20610,note_on,0,0,3,,,,,,,,,2,,,51,36
20610,note_on,0,0,3,,,,,,,,,2,,,48,36
20610,note_on,0,0,3,,,,,,,,,2,,,47,0
20610,note_on,90,0,3,,,,,,,,,2,,,54,0
20610,note_on,0,0,1,,,,,,,,,0,,,69,36
20610,note_on,0,0,2,,,,,,,,,1,,,66,36
20610,note_on,30,0,2,,,,,,,,,1,,,63,0
20610,note_on,90,0,1,,,,,,,,,0,,,71,0
20640,note_on,30,0,2,,,,,,,,,1,,,66,0
20640,control_change,0,0,2,,,,,,,,,1,64,0,,
20640,note_on,0,0,3,,,,,,,,,2,,,52,36
20640,note_on,0,0,3,,,,,,,,,2,,,49,36
20640,note_on,0,0,2,,,,,,,,,1,,,64,36
20640,note_on,0,0,3,,,,,,,,,2,,,48,0
20640,note_on,0,0,1,,,,,,,,,0,,,68,36
20640,control_change,0,0,1,,,,,,,,,0,64,0,,
20640,note_on,30,0,1,,,,,,,,,0,,,69,0
20640,note_on,30,0,3,,,,,,,,,2,,,51,0
20640,control_change,0,0,3,,,,,,,,,2,64,0,,
20670,note_on,30,0,2,,,,,,,,,1,,,64,0
20670,note_on,0,0,2,,,,,,,,,1,,,63,36
20700,note_on,30,0,2,,,,,,,,,1,,,63,0
20700,note_on,0,0,2,,,,,,,,,1,,,61,36
20700,note_on,0,0,3,,,,,,,,,2,,,45,36
20700,note_on,0,0,3,,,,,,,,,2,,,49,0
20700,note_on,60,0,1,,,,,,,,,0,,,68,0
20700,note_on,0,0,1,,,,,,,,,0,,,68,36
20700,note_on,60,0,3,,,,,,,,,2,,,52,0
20706,note_on,6,0,3,,,,,,,,,2,,,45,0
20730,note_on,30,0,2,,,,,,,,,1,,,61,0
20730,note_on,30,0,1,,,,,,,,,0,,,68,0
20730,note_on,0,0,1,,,,,,,,,0,,,66,36
20730,note_on,0,0,2,,,,,,,,,1,,,57,36
20760,note_on,0,0,2,,,,,,,,,1,,,56,36
20760,note_on,30,0,2,,,,,,,,,1,,,57,0
20760,note_on,54,0,3,,,,,,,,,2,,,47,36
20760,note_on,0,0,1,,,,,,,,,0,,,64,36
20760,note_on,30,0,1,,,,,,,,,0,,,66,0
20766,note_on,6,0,3,,,,,,,,,2,,,47,0
20790,note_on,30,0,2,,,,,,,,,1,,,56,0
20790,note_on,0,0,2,,,,,,,,,1,,,59,36
20820,note_on,0,0,1,,,,,,,,,0,,,63,36
20820,note_on,0,0,1,,,,,,,,,0,,,68,36
20820,note_on,54,0,3,,,,,,,,,2,,,47,36
20820,note_on,30,0,2,,,,,,,,,1,,,59,0
20820,note_on,0,0,2,,,,,,,,,1,,,57,36
20820,note_on,60,0,1,,,,,,,,,0,,,64,0
20824,note_on,4,0,3,,,,,,,,,2,,,47,0
20850,note_on,30,0,2,,,,,,,,,1,,,57,0
20850,note_on,0,0,2,,,,,,,,,1,,,59,36
20850,note_on,0,0,1,,,,,,,,,0,,,63,0
20850,note_on,0,0,1,,,,,,,,,0,,,66,36
20850,note_on,30,0,1,,,,,,,,,0,,,68,0
20880,note_on,0,0,2,,,,,,,,,1,,,56,36
20880,note_on,0,0,1,,,,,,,,,0,,,64,36
20880,control_change,774,0,4,,,,,,,,,3,64,127,,
20880,note_on,0,0,4,,,,,,,,,3,,,52,36
20880,control_change,0,0,1,,,,,,,,,0,64,127,,
20880,note_on,56,0,3,,,,,,,,,2,,,56,36
20880,note_on,30,0,1,,,,,,,,,0,,,66,0
20880,control_change,0,0,2,,,,,,,,,1,64,127,,
20880,note_on,30,0,2,,,,,,,,,1,,,59,0
20910,note_on,30,0,2,,,,,,,,,1,,,56,0
20910,note_on,0,0,2,,,,,,,,,1,,,58,36
20940,note_on,30,0,2,,,,,,,,,1,,,58,0
20940,note_on,0,0,2,,,,,,,,,1,,,59,36
20970,note_on,0,0,4,,,,,,,,,3,,,47,36
20970,note_on,0,0,2,,,,,,,,,1,,,59,36
20970,note_on,0,0,1,,,,,,,,,0,,,66,36
20970,note_on,90,0,1,,,,,,,,,0,,,64,0
20970,note_on,90,0,4,,,,,,,,,3,,,52,0
20970,note_on,30,0,2,,,,,,,,,1,,,59,0
20985,note_on,0,0,1,,,,,,,,,0,,,68,36
20985,note_on,15,0,1,,,,,,,,,0,,,66,0
21000,note_on,15,0,1,,,,,,,,,0,,,68,0
21000,note_on,120,0,3,,,,,,,,,2,,,56,0
21000,note_on,0,0,3,,,,,,,,,2,,,56,36
21000,note_on,0,0,4,,,,,,,,,3,,,52,36
21000,control_change,0,0,4,,,,,,,,,3,64,0,,
21000,note_on,0,0,2,,,,,,,,,1,,,59,36
21000,note_on,30,0,2,,,,,,,,,1,,,59,0
21000,note_on,30,0,4,,,,,,,,,3,,,47,0
21000,note_on,0,0,1,,,,,,,,,0,,,64,36
21030,note_on,0,0,2,,,,,,,,,1,,,58,36
21030,note_on,30,0,2,,,,,,,,,1,,,59,0
21060,note_on,0,0,2,,,,,,,,,1,,,59,36
21060,note_on,30,0,2,,,,,,,,,1,,,58,0
21090,note_on,0,0,2,,,,,,,,,1,,,63,36
21090,note_on,30,0,2,,,,,,,,,1,,,59,0
21120,note_on,120,0,4,,,,,,,,,3,,,52,0
21120,note_on,120,0,3,,,,,,,,,2,,,56,0
21120,note_on,120,0,1,,,,,,,,,0,,,64,0
21120,note_on,30,0,2,,,,,,,,,1,,,63,0
21120,note_on,0,0,1,,,,,,,,,0,,,76,127
21120,control_change,0,0,1,,,,,,,,,0,64,0,,
21120,note_on,0,0,2,,,,,,,,,1,,,64,75
21150,control_change,0,0,2,,,,,,,,,1,64,0,,
21150,note_on,0,0,2,,,,,,,,,1,,,63,36
21150,note_on,30,0,2,,,,,,,,,1,,,64,0
21180,note_on,30,0,2,,,,,,,,,1,,,63,0
21180,note_on,0,0,2,,,,,,,,,1,,,64,36
21210,note_on,30,0,2,,,,,,,,,1,,,64,0
21210,note_on,90,0,1,,,,,,,,,0,,,76,0
21210,note_on,0,0,1,,,,,,,,,0,,,76,49
21210,note_on,0,0,2,,,,,,,,,1,,,64,36
21240,note_on,30,0,1,,,,,,,,,0,,,76,0
21240,control_change,0,0,1,,,,,,,,,0,64,127,,
21240,note_on,0,0,1,,,,,,,,,0,,,64,36
21240,note_on,0,0,1,,,,,,,,,0,,,76,36
21240,note_on,30,0,2,,,,,,,,,1,,,64,0
21240,note_on,0,0,3,,,,,,,,,2,,,45,49
21240,control_change,120,0,3,,,,,,,,,2,64,127,,
21244,note_on,4,0,1,,,,,,,,,0,,,76,0
21244,note_on,0,0,1,,,,,,,,,0,,,64,0
21270,note_on,30,0,3,,,,,,,,,2,,,45,0
21270,note_on,26,0,1,,,,,,,,,0,,,64,36
21270,note_on,0,0,1,,,,,,,,,0,,,76,36
21270,note_on,0,0,3,,,,,,,,,2,,,44,49
21274,note_on,4,0,1,,,,,,,,,0,,,76,0
21274,note_on,0,0,1,,,,,,,,,0,,,64,0
21300,note_on,0,0,1,,,,,,,,,0,,,69,36
21300,note_on,0,0,1,,,,,,,,,0,,,76,36
21300,note_on,26,0,1,,,,,,,,,0,,,64,36
21300,note_on,30,0,3,,,,,,,,,2,,,44,0
21300,note_on,0,0,3,,,,,,,,,2,,,45,49
21300,note_on,0,0,1,,,,,,,,,0,,,73,36
21304,note_on,4,0,1,,,,,,,,,0,,,76,0
21304,note_on,0,0,1,,,,,,,,,0,,,64,0
21304,note_on,0,0,1,,,,,,,,,0,,,69,0
21304,note_on,0,0,1,,,,,,,,,0,,,73,0
21330,note_on,0,0,1,,,,,,,,,0,,,64,36
21330,note_on,0,0,1,,,,,,,,,0,,,69,36
21330,note_on,0,0,1,,,,,,,,,0,,,73,36
21330,note_on,30,0,3,,,,,,,,,2,,,45,0
21330,control_change,0,0,3,,,,,,,,,2,64,0,,
21330,note_on,0,0,3,,,,,,,,,2,,,49,49
21330,control_change,26,0,1,,,,,,,,,0,64,0,,
21330,note_on,0,0,1,,,,,,,,,0,,,76,36
21334,note_on,0,0,1,,,,,,,,,0,,,73,0
21334,note_on,0,0,1,,,,,,,,,0,,,69,0
21334,note_on,0,0,1,,,,,,,,,0,,,64,0
21334,note_on,4,0,1,,,,,,,,,0,,,76,0
21360,note_on,0,0,1,,,,,,,,,0,,,64,36
21360,control_change,26,0,1,,,,,,,,,0,64,127,,
21360,control_change,0,0,3,,,,,,,,,2,64,127,,
21360,note_on,0,0,3,,,,,,,,,2,,,54,49
21360,note_on,0,0,1,,,,,,,,,0,,,76,36
21360,note_on,30,0,3,,,,,,,,,2,,,49,0
21364,note_on,4,0,1,,,,,,,,,0,,,76,0
21364,note_on,0,0,1,,,,,,,,,0,,,64,0
21390,note_on,0,0,1,,,,,,,,,0,,,76,36
21390,note_on,26,0,1,,,,,,,,,0,,,64,36
21390,note_on,30,0,3,,,,,,,,,2,,,54,0
21390,note_on,0,0,3,,,,,,,,,2,,,48,49
21394,note_on,4,0,1,,,,,,,,,0,,,76,0
21394,note_on,0,0,1,,,,,,,,,0,,,64,0
21420,note_on,0,0,1,,,,,,,,,0,,,73,36
21420,note_on,0,0,3,,,,,,,,,2,,,49,49
21420,note_on,30,0,3,,,,,,,,,2,,,48,0
21420,note_on,26,0,1,,,,,,,,,0,,,64,36
21420,note_on,0,0,1,,,,,,,,,0,,,69,36
21420,note_on,0,0,1,,,,,,,,,0,,,76,36
21424,note_on,4,0,1,,,,,,,,,0,,,76,0
21424,note_on,0,0,1,,,,,,,,,0,,,64,0
21424,note_on,0,0,1,,,,,,,,,0,,,73,0
21424,note_on,0,0,1,,,,,,,,,0,,,69,0
21450,note_on,30,0,3,,,,,,,,,2,,,49,0
21450,control_change,0,0,3,,,,,,,,,2,64,0,,
21450,note_on,0,0,3,,,,,,,,,2,,,52,49
21450,note_on,0,0,1,,,,,,,,,0,,,73,36
21450,note_on,0,0,1,,,,,,,,,0,,,69,36
21450,note_on,0,0,1,,,,,,,,,0,,,64,36
21450,control_change,26,0,1,,,,,,,,,0,64,0,,
21450,note_on,0,0,1,,,,,,,,,0,,,76,36
21454,note_on,4,0,1,,,,,,,,,0,,,76,0
21454,note_on,0,0,1,,,,,,,,,0,,,64,0
21454,note_on,0,0,1,,,,,,,,,0,,,69,0
21454,note_on,0,0,1,,,,,,,,,0,,,73,0
21480,control_change,0,0,3,,,,,,,,,2,64,127,,
21480,note_on,30,0,3,,,,,,,,,2,,,52,0
21480,note_on,0,0,3,,,,,,,,,2,,,59,49
21480,note_on,0,0,1,,,,,,,,,0,,,64,36
21480,note_on,0,0,1,,,,,,,,,0,,,76,36
21480,control_change,26,0,1,,,,,,,,,0,64,127,,
21484,note_on,4,0,1,,,,,,,,,0,,,76,0
21484,note_on,0,0,1,,,,,,,,,0,,,64,0
21510,note_on,0,0,1,,,,,,,,,0,,,76,36
21510,note_on,26,0,1,,,,,,,,,0,,,64,36
21510,note_on,30,0,3,,,,,,,,,2,,,59,0
21510,note_on,0,0,3,,,,,,,,,2,,,56,49
21514,note_on,0,0,1,,,,,,,,,0,,,64,0
21514,note_on,4,0,1,,,,,,,,,0,,,76,0
21540,note_on,0,0,1,,,,,,,,,0,,,73,36
21540,note_on,0,0,1,,,,,,,,,0,,,76,36
21540,note_on,30,0,3,,,,,,,,,2,,,56,0
21540,note_on,0,0,3,,,,,,,,,2,,,57,49
21540,note_on,26,0,1,,,,,,,,,0,,,64,36
21540,note_on,0,0,1,,,,,,,,,0,,,69,36
21544,note_on,0,0,1,,,,,,,,,0,,,69,0
21544,note_on,4,0,1,,,,,,,,,0,,,76,0
21544,note_on,0,0,1,,,,,,,,,0,,,64,0
21544,note_on,0,0,1,,,,,,,,,0,,,73,0
21570,note_on,30,0,3,,,,,,,,,2,,,57,0
21570,note_on,0,0,3,,,,,,,,,2,,,61,49
21570,control_change,0,0,3,,,,,,,,,2,64,0,,
21570,control_change,26,0,1,,,,,,,,,0,64,0,,
21570,note_on,0,0,1,,,,,,,,,0,,,64,36
21570,note_on,0,0,1,,,,,,,,,0,,,69,36
21570,note_on,0,0,1,,,,,,,,,0,,,73,36
21570,note_on,0,0,1,,,,,,,,,0,,,76,36
21574,note_on,0,0,1,,,,,,,,,0,,,73,0
21574,note_on,4,0,1,,,,,,,,,0,,,76,0
21574,note_on,0,0,1,,,,,,,,,0,,,64,0
21574,note_on,0,0,1,,,,,,,,,0,,,69,0
21600,note_on,0,0,1,,,,,,,,,0,,,76,36
21600,note_on,0,0,1,,,,,,,,,0,,,64,36
21600,control_change,0,0,3,,,,,,,,,2,64,127,,
21600,note_on,30,0,3,,,,,,,,,2,,,61,0
21600,control_change,26,0,1,,,,,,,,,0,64,127,,
21600,note_on,0,0,3,,,,,,,,,2,,,62,75
21604,note_on,4,0,1,,,,,,,,,0,,,76,0
21604,note_on,0,0,1,,,,,,,,,0,,,64,0
21630,note_on,26,0,1,,,,,,,,,0,,,64,36
21630,note_on,0,0,1,,,,,,,,,0,,,76,36
21634,note_on,0,0,1,,,,,,,,,0,,,64,0
21634,note_on,4,0,1,,,,,,,,,0,,,76,0
21660,note_on,0,0,1,,,,,,,,,0,,,71,36
21660,note_on,0,0,1,,,,,,,,,0,,,74,36
21660,note_on,0,0,1,,,,,,,,,0,,,76,36
21660,note_on,26,0,1,,,,,,,,,0,,,64,36
21664,note_on,0,0,1,,,,,,,,,0,,,74,0
21664,note_on,0,0,1,,,,,,,,,0,,,64,0
21664,note_on,4,0,1,,,,,,,,,0,,,76,0
21664,note_on,0,0,1,,,,,,,,,0,,,71,0
21690,note_on,26,0,1,,,,,,,,,0,,,64,36
21690,note_on,0,0,1,,,,,,,,,0,,,71,36
21690,note_on,0,0,1,,,,,,,,,0,,,76,36
21690,note_on,0,0,1,,,,,,,,,0,,,74,36
21694,note_on,0,0,1,,,,,,,,,0,,,74,0
21694,note_on,0,0,1,,,,,,,,,0,,,71,0
21694,note_on,0,0,1,,,,,,,,,0,,,64,0
21694,note_on,4,0,1,,,,,,,,,0,,,76,0
21705,note_on,105,0,3,,,,,,,,,2,,,62,0
21705,note_on,0,0,3,,,,,,,,,2,,,59,49
21720,note_on,15,0,3,,,,,,,,,2,,,59,0
21720,note_on,0,0,3,,,,,,,,,2,,,56,49
21720,note_on,26,0,1,,,,,,,,,0,,,64,36
21720,note_on,0,0,1,,,,,,,,,0,,,76,36
21724,note_on,4,0,1,,,,,,,,,0,,,76,0
21724,note_on,0,0,1,,,,,,,,,0,,,64,0
21750,note_on,26,0,1,,,,,,,,,0,,,64,36
21750,note_on,0,0,1,,,,,,,,,0,,,76,36
21754,note_on,4,0,1,,,,,,,,,0,,,76,0
21754,note_on,0,0,1,,,,,,,,,0,,,64,0
21780,note_on,0,0,1,,,,,,,,,0,,,74,36
21780,note_on,0,0,1,,,,,,,,,0,,,71,36
21780,note_on,0,0,1,,,,,,,,,0,,,76,36
21780,note_on,26,0,1,,,,,,,,,0,,,64,36
21784,note_on,4,0,1,,,,,,,,,0,,,76,0
21784,note_on,0,0,1,,,,,,,,,0,,,64,0
21784,note_on,0,0,1,,,,,,,,,0,,,71,0
21784,note_on,0,0,1,,,,,,,,,0,,,74,0
21810,note_on,0,0,1,,,,,,,,,0,,,71,36
21810,note_on,0,0,1,,,,,,,,,0,,,74,36
21810,note_on,26,0,1,,,,,,,,,0,,,64,36
21810,note_on,0,0,1,,,,,,,,,0,,,76,36
21814,note_on,4,0,1,,,,,,,,,0,,,76,0
21814,note_on,0,0,1,,,,,,,,,0,,,64,0
21814,note_on,0,0,1,,,,,,,,,0,,,74,0
21814,note_on,0,0,1,,,,,,,,,0,,,71,0
21840,note_on,120,0,3,,,,,,,,,2,,,56,0
21840,note_on,0,0,1,,,,,,,,,0,,,76,36
21840,note_on,26,0,1,,,,,,,,,0,,,64,36
21844,note_on,0,0,1,,,,,,,,,0,,,64,0
21844,note_on,4,0,1,,,,,,,,,0,,,76,0
21870,control_change,26,0,1,,,,,,,,,0,64,0,,
21870,note_on,0,0,1,,,,,,,,,0,,,64,36
21870,note_on,0,0,1,,,,,,,,,0,,,76,36
21870,control_change,30,0,3,,,,,,,,,2,64,0,,
21870,note_on,0,0,3,,,,,,,,,2,,,40,49
21874,note_on,4,0,3,,,,,,,,,2,,,40,0
21874,note_on,4,0,1,,,,,,,,,0,,,76,0
21874,note_on,0,0,1,,,,,,,,,0,,,64,0
21900,note_on,0,0,1,,,,,,,,,0,,,71,36
21900,note_on,0,0,1,,,,,,,,,0,,,74,36
21900,note_on,0,0,1,,,,,,,,,0,,,76,36
21900,note_on,26,0,3,,,,,,,,,2,,,42,49
21900,note_on,26,0,1,,,,,,,,,0,,,64,36
21904,note_on,4,0,3,,,,,,,,,2,,,42,0
21904,note_on,0,0,1,,,,,,,,,0,,,74,0
21904,note_on,0,0,1,,,,,,,,,0,,,71,0
21904,note_on,0,0,1,,,,,,,,,0,,,64,0
21904,note_on,4,0,1,,,,,,,,,0,,,76,0
21930,note_on,0,0,1,,,,,,,,,0,,,74,36
21930,note_on,0,0,1,,,,,,,,,0,,,76,36
21930,note_on,26,0,3,,,,,,,,,2,,,44,49
21930,note_on,26,0,1,,,,,,,,,0,,,64,36
21930,note_on,0,0,1,,,,,,,,,0,,,71,36
21934,note_on,4,0,3,,,,,,,,,2,,,44,0
21934,note_on,0,0,1,,,,,,,,,0,,,71,0
21934,note_on,0,0,1,,,,,,,,,0,,,64,0
21934,note_on,4,0,1,,,,,,,,,0,,,76,0
21934,note_on,0,0,1,,,,,,,,,0,,,74,0
21960,control_change,26,0,3,,,,,,,,,2,64,127,,
21960,note_on,0,0,3,,,,,,,,,2,,,45,49
21960,note_on,0,0,1,,,,,,,,,0,,,76,36
21960,note_on,0,0,1,,,,,,,,,0,,,64,36
21960,control_change,26,0,1,,,,,,,,,0,64,127,,
21964,note_on,0,0,1,,,,,,,,,0,,,64,0
21964,note_on,4,0,1,,,,,,,,,0,,,76,0
21990,note_on,26,0,1,,,,,,,,,0,,,64,36
21990,note_on,30,0,3,,,,,,,,,2,,,45,0
21990,note_on,0,0,3,,,,,,,,,2,,,44,49
21990,note_on,0,0,1,,,,,,,,,0,,,76,36
21994,note_on,4,0,1,,,,,,,,,0,,,76,0
21994,note_on,0,0,1,,,,,,,,,0,,,64,0
22020,note_on,0,0,3,,,,,,,,,2,,,45,49
22020,note_on,0,0,1,,,,,,,,,0,,,76,36
22020,note_on,0,0,1,,,,,,,,,0,,,72,36
22020,note_on,0,0,1,,,,,,,,,0,,,69,36
22020,note_on,26,0,1,,,,,,,,,0,,,64,36
22020,note_on,30,0,3,,,,,,,,,2,,,44,0
22024,note_on,0,0,1,,,,,,,,,0,,,72,0
22024,note_on,0,0,1,,,,,,,,,0,,,69,0
22024,note_on,0,0,1,,,,,,,,,0,,,64,0
22024,note_on,4,0,1,,,,,,,,,0,,,76,0
22050,control_change,26,0,1,,,,,,,,,0,64,0,,
22050,note_on,0,0,1,,,,,,,,,0,,,72,36
22050,note_on,0,0,1,,,,,,,,,0,,,76,36
22050,note_on,0,0,1,,,,,,,,,0,,,64,36
22050,note_on,0,0,1,,,,,,,,,0,,,69,36
22050,control_change,0,0,3,,,,,,,,,2,64,0,,
22050,note_on,0,0,3,,,,,,,,,2,,,48,49
22050,note_on,30,0,3,,,,,,,,,2,,,45,0
22054,note_on,0,0,1,,,,,,,,,0,,,64,0
22054,note_on,4,0,1,,,,,,,,,0,,,76,0
22054,note_on,0,0,1,,,,,,,,,0,,,69,0
22054,note_on,0,0,1,,,,,,,,,0,,,72,0
22080,note_on,0,0,3,,,,,,,,,2,,,53,49
22080,note_on,0,0,1,,,,,,,,,0,,,64,36
22080,control_change,26,0,1,,,,,,,,,0,64,127,,
22080,note_on,30,0,3,,,,,,,,,2,,,48,0
22080,control_change,0,0,3,,,,,,,,,2,64,127,,
22080,note_on,0,0,1,,,,,,,,,0,,,76,36
22084,note_on,4,0,1,,,,,,,,,0,,,76,0
22084,note_on,0,0,1,,,,,,,,,0,,,64,0
22110,note_on,26,0,1,,,,,,,,,0,,,64,36
22110,note_on,0,0,1,,,,,,,,,0,,,76,36
22110,note_on,30,0,3,,,,,,,,,2,,,53,0
22110,note_on,0,0,3,,,,,,,,,2,,,47,49
22114,note_on,0,0,1,,,,,,,,,0,,,64,0
22114,note_on,4,0,1,,,,,,,,,0,,,76,0
22140,note_on,0,0,1,,,,,,,,,0,,,76,36
22140,note_on,26,0,1,,,,,,,,,0,,,64,36
22140,note_on,30,0,3,,,,,,,,,2,,,47,0
22140,note_on,0,0,3,,,,,,,,,2,,,48,49
22140,note_on,0,0,1,,,,,,,,,0,,,69,36
22140,note_on,0,0,1,,,,,,,,,0,,,72,36
22144,note_on,0,0,1,,,,,,,,,0,,,69,0
22144,note_on,0,0,1,,,,,,,,,0,,,72,0
22144,note_on,0,0,1,,,,,,,,,0,,,64,0
22144,note_on,4,0,1,,,,,,,,,0,,,76,0
22170,control_change,26,0,1,,,,,,,,,0,64,0,,
22170,note_on,0,0,1,,,,,,,,,0,,,69,36
22170,note_on,0,0,1,,,,,,,,,0,,,72,36
22170,note_on,0,0,1,,,,,,,,,0,,,76,36
22170,note_on,0,0,1,,,,,,,,,0,,,64,36
22170,note_on,30,0,3,,,,,,,,,2,,,48,0
22170,control_change,0,0,3,,,,,,,,,2,64,0,,
22170,note_on,0,0,3,,,,,,,,,2,,,52,49
22174,note_on,4,0,1,,,,,,,,,0,,,76,0
22174,note_on,0,0,1,,,,,,,,,0,,,64,0
22174,note_on,0,0,1,,,,,,,,,0,,,69,0
22174,note_on,0,0,1,,,,,,,,,0,,,72,0
22200,note_on,30,0,3,,,,,,,,,2,,,52,0
22200,control_change,0,0,3,,,,,,,,,2,64,127,,
22200,note_on,0,0,1,,,,,,,,,0,,,64,36
22200,note_on,0,0,3,,,,,,,,,2,,,59,49
22200,control_change,26,0,1,,,,,,,,,0,64,127,,
22200,note_on,0,0,1,,,,,,,,,0,,,76,36
22204,note_on,4,0,1,,,,,,,,,0,,,76,0
22204,note_on,0,0,1,,,,,,,,,0,,,64,0
22230,note_on,26,0,1,,,,,,,,,0,,,64,36
22230,note_on,0,0,1,,,,,,,,,0,,,76,36
22230,note_on,30,0,3,,,,,,,,,2,,,59,0
22230,note_on,0,0,3,,,,,,,,,2,,,56,49
22234,note_on,4,0,1,,,,,,,,,0,,,76,0
22234,note_on,0,0,1,,,,,,,,,0,,,64,0
22260,note_on,30,0,3,,,,,,,,,2,,,56,0
22260,note_on,26,0,1,,,,,,,,,0,,,64,36
22260,note_on,0,0,1,,,,,,,,,0,,,69,36
22260,note_on,0,0,1,,,,,,,,,0,,,72,36
22260,note_on,0,0,1,,,,,,,,,0,,,76,36
22260,note_on,0,0,3,,,,,,,,,2,,,57,49
22264,note_on,4,0,1,,,,,,,,,0,,,76,0
22264,note_on,0,0,1,,,,,,,,,0,,,64,0
22264,note_on,0,0,1,,,,,,,,,0,,,72,0
22264,note_on,0,0,1,,,,,,,,,0,,,69,0
22290,note_on,30,0,3,,,,,,,,,2,,,57,0
22290,note_on,0,0,1,,,,,,,,,0,,,76,36
22290,note_on,0,0,1,,,,,,,,,0,,,69,36
22290,note_on,0,0,1,,,,,,,,,0,,,64,36
22290,control_change,26,0,1,,,,,,,,,0,64,0,,
22290,note_on,0,0,1,,,,,,,,,0,,,72,36
22290,note_on,0,0,3,,,,,,,,,2,,,60,49
22290,control_change,0,0,3,,,,,,,,,2,64,0,,
22294,note_on,4,0,1,,,,,,,,,0,,,76,0
22294,note_on,0,0,1,,,,,,,,,0,,,64,0
22294,note_on,0,0,1,,,,,,,,,0,,,69,0
22294,note_on,0,0,1,,,,,,,,,0,,,72,0
22320,control_change,0,0,3,,,,,,,,,2,64,127,,
22320,note_on,30,0,3,,,,,,,,,2,,,60,0
22320,note_on,0,0,1,,,,,,,,,0,,,77,36
22320,control_change,26,0,1,,,,,,,,,0,64,127,,
22320,note_on,0,0,3,,,,,,,,,2,,,62,75
22320,note_on,0,0,1,,,,,,,,,0,,,65,36
22350,note_on,0,0,1,,,,,,,,,0,,,77,36
22350,note_on,0,0,1,,,,,,,,,0,,,65,36
22350,note_on,0,0,1,,,,,,,,,0,,,65,0
22350,note_on,30,0,1,,,,,,,,,0,,,77,0
22380,note_on,0,0,1,,,,,,,,,0,,,67,36
22380,note_on,0,0,1,,,,,,,,,0,,,65,0
22380,note_on,30,0,1,,,,,,,,,0,,,77,0
22380,note_on,0,0,1,,,,,,,,,0,,,79,36
22380,note_on,0,0,1,,,,,,,,,0,,,71,36
22380,note_on,0,0,1,,,,,,,,,0,,,74,36
22410,note_on,30,0,1,,,,,,,,,0,,,79,0
22410,note_on,0,0,1,,,,,,,,,0,,,67,0
22410,note_on,0,0,1,,,,,,,,,0,,,71,0
22410,note_on,0,0,1,,,,,,,,,0,,,74,0
22410,note_on,0,0,1,,,,,,,,,0,,,71,36
22410,note_on,0,0,1,,,,,,,,,0,,,74,36
22410,note_on,0,0,1,,,,,,,,,0,,,79,36
22410,note_on,0,0,1,,,,,,,,,0,,,67,36
22425,note_on,0,0,3,,,,,,,,,2,,,59,62
22425,note_on,105,0,3,,,,,,,,,2,,,62,0
22440,note_on,15,0,3,,,,,,,,,2,,,59,0
22440,note_on,30,0,1,,,,,,,,,0,,,79,0
22440,note_on,0,0,1,,,,,,,,,0,,,67,0
22440,note_on,0,0,1,,,,,,,,,0,,,71,0
22440,note_on,0,0,1,,,,,,,,,0,,,74,0
22440,note_on,0,0,1,,,,,,,,,0,,,65,49
22440,note_on,0,0,1,,,,,,,,,0,,,77,49
22440,note_on,0,0,3,,,,,,,,,2,,,55,62
22470,note_on,0,0,1,,,,,,,,,0,,,65,0
22470,note_on,0,0,1,,,,,,,,,0,,,65,49
22470,note_on,0,0,1,,,,,,,,,0,,,77,49
22470,note_on,30,0,1,,,,,,,,,0,,,77,0
22500,note_on,30,0,1,,,,,,,,,0,,,77,0
22500,note_on,0,0,1,,,,,,,,,0,,,65,0
22500,note_on,0,0,1,,,,,,,,,0,,,67,49
22500,note_on,0,0,1,,,,,,,,,0,,,71,49
22500,note_on,0,0,1,,,,,,,,,0,,,74,49
22500,note_on,0,0,1,,,,,,,,,0,,,79,49
22530,note_on,30,0,1,,,,,,,,,0,,,79,0
22530,note_on,0,0,1,,,,,,,,,0,,,67,0
22530,note_on,0,0,1,,,,,,,,,0,,,74,0
22530,note_on,0,0,1,,,,,,,,,0,,,67,49
22530,note_on,0,0,1,,,,,,,,,0,,,71,49
22530,note_on,0,0,1,,,,,,,,,0,,,79,49
22530,note_on,0,0,1,,,,,,,,,0,,,74,49
22530,note_on,0,0,1,,,,,,,,,0,,,71,0
22560,note_on,0,0,1,,,,,,,,,0,,,67,0
22560,note_on,0,0,1,,,,,,,,,0,,,71,0
22560,note_on,0,0,1,,,,,,,,,0,,,74,0
22560,note_on,0,0,1,,,,,,,,,0,,,65,62
22560,note_on,0,0,1,,,,,,,,,0,,,77,62
22560,note_on,120,0,3,,,,,,,,,2,,,55,0
22560,note_on,30,0,1,,,,,,,,,0,,,79,0
22590,note_on,30,0,1,,,,,,,,,0,,,77,0
22590,note_on,0,0,1,,,,,,,,,0,,,65,0
22590,note_on,0,0,1,,,,,,,,,0,,,65,62
22590,control_change,30,0,3,,,,,,,,,2,64,0,,
22590,note_on,0,0,3,,,,,,,,,2,,,50,75
22590,control_change,0,0,1,,,,,,,,,0,64,0,,
22590,note_on,0,0,1,,,,,,,,,0,,,77,62
22620,note_on,30,0,1,,,,,,,,,0,,,77,0
22620,note_on,0,0,1,,,,,,,,,0,,,65,0
22620,note_on,0,0,1,,,,,,,,,0,,,74,62
22620,note_on,0,0,1,,,,,,,,,0,,,71,62
22620,note_on,0,0,1,,,,,,,,,0,,,79,62
22620,note_on,30,0,3,,,,,,,,,2,,,50,0
22620,note_on,0,0,3,,,,,,,,,2,,,47,75
22620,note_on,0,0,1,,,,,,,,,0,,,67,62
22650,note_on,0,0,1,,,,,,,,,0,,,67,0
22650,note_on,0,0,1,,,,,,,,,0,,,71,0
22650,note_on,0,0,1,,,,,,,,,0,,,74,0
22650,note_on,0,0,1,,,,,,,,,0,,,67,62
22650,note_on,0,0,1,,,,,,,,,0,,,71,62
22650,note_on,0,0,1,,,,,,,,,0,,,74,62
22650,note_on,0,0,1,,,,,,,,,0,,,79,62
22650,note_on,0,0,3,,,,,,,,,2,,,41,75
22650,note_on,30,0,1,,,,,,,,,0,,,79,0
22650,note_on,30,0,3,,,,,,,,,2,,,47,0
22680,control_change,0,0,1,,,,,,,,,0,64,127,,
22680,note_on,30,0,3,,,,,,,,,2,,,41,0
22680,note_on,0,0,1,,,,,,,,,0,,,79,75
22680,note_on,0,0,3,,,,,,,,,2,,,40,88
22680,control_change,0,0,3,,,,,,,,,2,64,127,,
22680,note_on,30,0,1,,,,,,,,,0,,,79,0
22680,note_on,0,0,1,,,,,,,,,0,,,67,0
22680,note_on,0,0,1,,,,,,,,,0,,,71,0
22680,note_on,0,0,1,,,,,,,,,0,,,74,0
22680,note_on,0,0,1,,,,,,,,,0,,,67,75
22710,note_on,0,0,1,,,,,,,,,0,,,79,75
22710,note_on,0,0,1,,,,,,,,,0,,,67,75
22710,note_on,30,0,1,,,,,,,,,0,,,79,0
22710,note_on,0,0,1,,,,,,,,,0,,,67,0
22740,note_on,30,0,1,,,,,,,,,0,,,79,0
22740,note_on,0,0,1,,,,,,,,,0,,,67,0
22740,note_on,0,0,1,,,,,,,,,0,,,67,75
22740,note_on,0,0,1,,,,,,,,,0,,,72,75
22740,note_on,0,0,1,,,,,,,,,0,,,76,75
22740,note_on,0,0,1,,,,,,,,,0,,,79,75
22770,note_on,0,0,1,,,,,,,,,0,,,76,0
22770,note_on,0,0,1,,,,,,,,,0,,,72,75
22770,note_on,0,0,1,,,,,,,,,0,,,76,75
22770,note_on,30,0,1,,,,,,,,,0,,,79,0
22770,note_on,0,0,1,,,,,,,,,0,,,67,0
22770,note_on,0,0,1,,,,,,,,,0,,,72,0
22770,note_on,0,0,1,,,,,,,,,0,,,79,75
22770,note_on,0,0,1,,,,,,,,,0,,,67,75
22785,note_on,105,0,3,,,,,,,,,2,,,40,0
22785,note_on,0,0,3,,,,,,,,,2,,,43,88
22800,note_on,0,0,1,,,,,,,,,0,,,72,0
22800,note_on,0,0,1,,,,,,,,,0,,,67,75
22800,note_on,0,0,1,,,,,,,,,0,,,79,75
22800,note_on,0,0,1,,,,,,,,,0,,,67,0
22800,note_on,0,0,1,,,,,,,,,0,,,76,0
22800,note_on,15,0,3,,,,,,,,,2,,,43,0
22800,note_on,0,0,3,,,,,,,,,2,,,47,88
22800,note_on,30,0,1,,,,,,,,,0,,,79,0
22830,note_on,0,0,1,,,,,,,,,0,,,67,75
22830,note_on,30,0,1,,,,,,,,,0,,,79,0
22830,note_on,0,0,1,,,,,,,,,0,,,79,75
22830,note_on,0,0,1,,,,,,,,,0,,,67,0
22860,note_on,0,0,3,,,,,,,,,2,,,48,88
22860,note_on,0,0,1,,,,,,,,,0,,,67,0
22860,note_on,60,0,3,,,,,,,,,2,,,47,0
22860,note_on,30,0,1,,,,,,,,,0,,,79,0
22860,note_on,0,0,1,,,,,,,,,0,,,79,75
22860,note_on,0,0,1,,,,,,,,,0,,,67,75
22860,note_on,0,0,1,,,,,,,,,0,,,72,75
22860,note_on,0,0,1,,,,,,,,,0,,,76,75
22890,note_on,30,0,1,,,,,,,,,0,,,79,0
22890,note_on,0,0,1,,,,,,,,,0,,,67,0
22890,note_on,0,0,1,,,,,,,,,0,,,72,0
22890,note_on,0,0,1,,,,,,,,,0,,,76,0
22890,note_on,0,0,1,,,,,,,,,0,,,67,75
22890,note_on,0,0,1,,,,,,,,,0,,,72,75
22890,note_on,0,0,1,,,,,,,,,0,,,76,75
22890,note_on,0,0,1,,,,,,,,,0,,,79,75
22920,note_on,0,0,3,,,,,,,,,2,,,52,88
22920,note_on,60,0,3,,,,,,,,,2,,,48,0
22920,note_on,0,0,1,,,,,,,,,0,,,79,75
22920,note_on,0,0,1,,,,,,,,,0,,,76,0
22920,note_on,0,0,1,,,,,,,,,0,,,72,0
22920,note_on,0,0,1,,,,,,,,,0,,,67,0
22920,note_on,30,0,1,,,,,,,,,0,,,79,0
22920,note_on,0,0,1,,,,,,,,,0,,,67,75
22950,note_on,30,0,1,,,,,,,,,0,,,79,0
22950,note_on,0,0,1,,,,,,,,,0,,,67,0
22950,note_on,0,0,1,,,,,,,,,0,,,67,75
22950,note_on,0,0,1,,,,,,,,,0,,,79,75
22980,control_change,0,0,3,,,,,,,,,2,64,0,,
22980,note_on,0,0,3,,,,,,,,,2,,,53,114
22980,control_change,0,0,1,,,,,,,,,0,64,0,,
22980,note_on,60,0,3,,,,,,,,,2,,,52,0
22980,note_on,30,0,1,,,,,,,,,0,,,79,0
22980,note_on,0,0,1,,,,,,,,,0,,,67,0
22980,note_on,0,0,1,,,,,,,,,0,,,68,89
22980,note_on,0,0,1,,,,,,,,,0,,,71,93
22980,note_on,0,0,1,,,,,,,,,0,,,74,97
22980,note_on,0,0,1,,,,,,,,,0,,,80,101
23010,note_on,30,0,1,,,,,,,,,0,,,80,0
23010,note_on,0,0,1,,,,,,,,,0,,,71,75
23010,note_on,0,0,1,,,,,,,,,0,,,68,75
23010,note_on,0,0,1,,,,,,,,,0,,,80,75
23010,note_on,0,0,1,,,,,,,,,0,,,74,0
23010,note_on,0,0,1,,,,,,,,,0,,,71,0
23010,note_on,0,0,1,,,,,,,,,0,,,74,75
23010,note_on,0,0,1,,,,,,,,,0,,,68,0
23040,control_change,0,0,3,,,,,,,,,2,64,127,,
23040,note_on,60,0,3,,,,,,,,,2,,,53,0
23040,note_on,30,0,1,,,,,,,,,0,,,80,0
23040,control_change,0,0,1,,,,,,,,,0,64,127,,
23040,note_on,0,0,1,,,,,,,,,0,,,78,36
23040,note_on,0,0,1,,,,,,,,,0,,,66,36
23040,note_on,0,0,1,,,,,,,,,0,,,74,0
23040,note_on,0,0,1,,,,,,,,,0,,,71,0
23040,note_on,0,0,1,,,,,,,,,0,,,68,0
23040,note_on,0,0,3,,,,,,,,,2,,,54,36
23044,note_on,4,0,1,,,,,,,,,0,,,78,0
23044,note_on,0,0,1,,,,,,,,,0,,,66,0
23070,note_on,0,0,1,,,,,,,,,0,,,78,36
23070,note_on,26,0,1,,,,,,,,,0,,,66,36
23074,note_on,0,0,1,,,,,,,,,0,,,66,0
23074,note_on,4,0,1,,,,,,,,,0,,,78,0
23100,note_on,0,0,1,,,,,,,,,0,,,78,36
23100,note_on,0,0,1,,,,,,,,,0,,,75,36
23100,note_on,26,0,1,,,,,,,,,0,,,66,36
23100,note_on,0,0,1,,,,,,,,,0,,,71,36
23104,note_on,0,0,1,,,,,,,,,0,,,71,0
23104,note_on,0,0,1,,,,,,,,,0,,,75,0
23104,note_on,4,0,1,,,,,,,,,0,,,78,0
23104,note_on,0,0,1,,,,,,,,,0,,,66,0
23130,note_on,0,0,1,,,,,,,,,0,,,78,36
23130,note_on,26,0,1,,,,,,,,,0,,,66,36
23130,note_on,0,0,1,,,,,,,,,0,,,71,36
23130,note_on,0,0,1,,,,,,,,,0,,,75,36
23134,note_on,0,0,1,,,,,,,,,0,,,66,0
23134,note_on,4,0,1,,,,,,,,,0,,,78,0
23134,note_on,0,0,1,,,,,,,,,0,,,71,0
23134,note_on,0,0,1,,,,,,,,,0,,,75,0
23145,note_on,0,0,3,,,,,,,,,2,,,59,36
23145,note_on,105,0,3,,,,,,,,,2,,,54,0
23160,note_on,0,0,3,,,,,,,,,2,,,63,36
23160,note_on,15,0,3,,,,,,,,,2,,,59,0
23160,note_on,0,0,1,,,,,,,,,0,,,78,36
23160,note_on,26,0,1,,,,,,,,,0,,,66,36
23164,note_on,4,0,1,,,,,,,,,0,,,78,0
23164,note_on,0,0,1,,,,,,,,,0,,,66,0
23190,note_on,26,0,1,,,,,,,,,0,,,66,36
23190,note_on,0,0,1,,,,,,,,,0,,,78,36
23194,note_on,4,0,1,,,,,,,,,0,,,78,0
23194,note_on,0,0,1,,,,,,,,,0,,,66,0
23220,note_on,0,0,1,,,,,,,,,0,,,71,36
23220,note_on,0,0,1,,,,,,,,,0,,,75,36
23220,note_on,0,0,1,,,,,,,,,0,,,78,36
23220,note_on,26,0,1,,,,,,,,,0,,,66,36
23224,note_on,0,0,1,,,,,,,,,0,,,75,0
23224,note_on,0,0,1,,,,,,,,,0,,,66,0
23224,note_on,4,0,1,,,,,,,,,0,,,78,0
23224,note_on,0,0,1,,,,,,,,,0,,,71,0
23250,note_on,26,0,1,,,,,,,,,0,,,66,36
23250,note_on,0,0,1,,,,,,,,,0,,,71,36
23250,note_on,0,0,1,,,,,,,,,0,,,75,36
23250,note_on,0,0,1,,,,,,,,,0,,,78,36
23254,note_on,0,0,1,,,,,,,,,0,,,75,0
23254,note_on,0,0,1,,,,,,,,,0,,,71,0
23254,note_on,0,0,1,,,,,,,,,0,,,66,0
23254,note_on,4,0,1,,,,,,,,,0,,,78,0
23265,note_on,0,0,3,,,,,,,,,2,,,59,36
23265,note_on,105,0,3,,,,,,,,,2,,,63,0
23280,note_on,0,0,1,,,,,,,,,0,,,66,36
23280,control_change,26,0,1,,,,,,,,,0,64,0,,
23280,note_on,0,0,3,,,,,,,,,2,,,64,62
23280,control_change,0,0,3,,,,,,,,,2,64,0,,
23280,note_on,15,0,3,,,,,,,,,2,,,59,0
23280,note_on,0,0,1,,,,,,,,,0,,,78,36
23284,note_on,0,0,1,,,,,,,,,0,,,66,0
23284,note_on,4,0,1,,,,,,,,,0,,,78,0
23310,note_on,0,0,1,,,,,,,,,0,,,78,36
23310,note_on,26,0,1,,,,,,,,,0,,,66,36
23314,note_on,0,0,1,,,,,,,,,0,,,66,0
23314,note_on,4,0,1,,,,,,,,,0,,,78,0
23340,note_on,0,0,1,,,,,,,,,0,,,76,36
23340,note_on,0,0,1,,,,,,,,,0,,,70,36
23340,note_on,26,0,1,,,,,,,,,0,,,66,36
23340,note_on,0,0,1,,,,,,,,,0,,,78,36
23344,note_on,0,0,1,,,,,,,,,0,,,66,0
23344,note_on,0,0,1,,,,,,,,,0,,,70,0
23344,note_on,0,0,1,,,,,,,,,0,,,76,0
23344,note_on,4,0,1,,,,,,,,,0,,,78,0
23370,note_on,0,0,1,,,,,,,,,0,,,70,36
23370,note_on,0,0,1,,,,,,,,,0,,,76,36
23370,note_on,0,0,1,,,,,,,,,0,,,78,36
23370,note_on,26,0,1,,,,,,,,,0,,,66,36
23374,note_on,4,0,1,,,,,,,,,0,,,78,0
23374,note_on,0,0,1,,,,,,,,,0,,,66,0
23374,note_on,0,0,1,,,,,,,,,0,,,70,0
23374,note_on,0,0,1,,,,,,,,,0,,,76,0
23385,note_on,105,0,3,,,,,,,,,2,,,64,0
23385,note_on,0,0,3,,,,,,,,,2,,,61,36
23400,note_on,15,0,3,,,,,,,,,2,,,61,0
23400,note_on,0,0,3,,,,,,,,,2,,,59,36
23400,control_change,0,0,3,,,,,,,,,2,64,127,,
23400,note_on,0,0,1,,,,,,,,,0,,,75,36
23400,note_on,0,0,1,,,,,,,,,0,,,71,36
23400,control_change,26,0,1,,,,,,,,,0,64,127,,
23404,note_on,4,0,3,,,,,,,,,2,,,59,0
23430,note_on,26,0,3,,,,,,,,,2,,,59,36
23434,note_on,4,0,3,,,,,,,,,2,,,59,0
23460,note_on,0,0,3,,,,,,,,,2,,,59,36
23460,note_on,26,0,3,,,,,,,,,2,,,47,36
23464,note_on,4,0,3,,,,,,,,,2,,,59,0
23464,note_on,0,0,3,,,,,,,,,2,,,47,0
23490,note_on,26,0,3,,,,,,,,,2,,,47,36
23490,note_on,0,0,3,,,,,,,,,2,,,59,36
23494,note_on,4,0,3,,,,,,,,,2,,,59,0
23494,note_on,0,0,3,,,,,,,,,2,,,47,0
23505,note_on,105,0,1,,,,,,,,,0,,,75,0
23505,note_on,0,0,1,,,,,,,,,0,,,71,0
23505,note_on,0,0,1,,,,,,,,,0,,,70,36
23505,note_on,0,0,1,,,,,,,,,0,,,80,36
23520,note_on,15,0,1,,,,,,,,,0,,,80,0
23520,note_on,0,0,1,,,,,,,,,0,,,70,0
23520,note_on,0,0,1,,,,,,,,,0,,,71,36
23520,note_on,0,0,1,,,,,,,,,0,,,68,36
23520,note_on,26,0,3,,,,,,,,,2,,,59,36
23524,note_on,4,0,3,,,,,,,,,2,,,59,0
23550,note_on,26,0,3,,,,,,,,,2,,,59,36
23554,note_on,4,0,3,,,,,,,,,2,,,59,0
23580,note_on,0,0,3,,,,,,,,,2,,,59,36
23580,note_on,26,0,3,,,,,,,,,2,,,47,36
23584,note_on,0,0,3,,,,,,,,,2,,,47,0
23584,note_on,4,0,3,,,,,,,,,2,,,59,0
23610,note_on,0,0,3,,,,,,,,,2,,,59,36
23610,note_on,26,0,3,,,,,,,,,2,,,47,36
23614,note_on,0,0,3,,,,,,,,,2,,,47,0
23614,note_on,4,0,3,,,,,,,,,2,,,59,0
23625,note_on,0,0,1,,,,,,,,,0,,,68,0
23625,note_on,0,0,1,,,,,,,,,0,,,73,36
23625,note_on,105,0,1,,,,,,,,,0,,,71,0
23625,note_on,0,0,1,,,,,,,,,0,,,65,36
23640,note_on,0,0,1,,,,,,,,,0,,,65,0
23640,note_on,15,0,1,,,,,,,,,0,,,73,0
23640,control_change,26,0,3,,,,,,,,,2,64,0,,
23640,note_on,0,0,3,,,,,,,,,2,,,59,36
23640,control_change,0,0,1,,,,,,,,,0,64,0,,
23640,note_on,0,0,1,,,,,,,,,0,,,70,36
23640,note_on,0,0,1,,,,,,,,,0,,,66,36
23644,note_on,4,0,3,,,,,,,,,2,,,59,0
23670,note_on,26,0,3,,,,,,,,,2,,,59,36
23674,note_on,4,0,3,,,,,,,,,2,,,59,0
23700,note_on,26,0,3,,,,,,,,,2,,,47,36
23700,note_on,0,0,3,,,,,,,,,2,,,59,36
23704,note_on,4,0,3,,,,,,,,,2,,,59,0
23704,note_on,0,0,3,,,,,,,,,2,,,47,0
23730,note_on,0,0,3,,,,,,,,,2,,,59,36
23730,note_on,26,0,3,,,,,,,,,2,,,47,36
23734,note_on,0,0,3,,,,,,,,,2,,,47,0
23734,note_on,4,0,3,,,,,,,,,2,,,59,0
23745,note_on,0,0,1,,,,,,,,,0,,,63,36
23745,note_on,0,0,1,,,,,,,,,0,,,66,0
23745,note_on,0,0,1,,,,,,,,,0,,,71,36
23745,note_on,105,0,1,,,,,,,,,0,,,70,0
23760,note_on,0,0,3,,,,,,,,,2,,,56,36
23760,note_on,15,0,1,,,,,,,,,0,,,71,0
23760,note_on,0,0,3,,,,,,,,,2,,,52,36
23760,control_change,26,0,3,,,,,,,,,2,64,127,,
23760,note_on,0,0,1,,,,,,,,,0,,,63,0
23760,note_on,0,0,1,,,,,,,,,0,,,64,36
23760,note_on,0,0,1,,,,,,,,,0,,,68,36
23760,control_change,0,0,1,,,,,,,,,0,64,127,,
23764,note_on,4,0,1,,,,,,,,,0,,,68,0
23764,note_on,0,0,1,,,,,,,,,0,,,64,0
23790,note_on,26,0,1,,,,,,,,,0,,,64,36
23794,note_on,4,0,1,,,,,,,,,0,,,64,0
23820,note_on,0,0,1,,,,,,,,,0,,,76,36
23820,note_on,26,0,1,,,,,,,,,0,,,64,36
23824,note_on,0,0,1,,,,,,,,,0,,,64,0
23824,note_on,4,0,1,,,,,,,,,0,,,76,0
23850,note_on,0,0,1,,,,,,,,,0,,,76,36
23850,note_on,26,0,1,,,,,,,,,0,,,64,36
23854,note_on,4,0,1,,,,,,,,,0,,,76,0
23854,note_on,0,0,1,,,,,,,,,0,,,64,0
23865,note_on,0,0,3,,,,,,,,,2,,,52,0
23865,note_on,0,0,3,,,,,,,,,2,,,59,36
23865,note_on,0,0,3,,,,,,,,,2,,,50,36
23865,note_on,105,0,3,,,,,,,,,2,,,56,0
23880,note_on,26,0,1,,,,,,,,,0,,,64,36
23880,note_on,15,0,3,,,,,,,,,2,,,59,0
23880,note_on,0,0,3,,,,,,,,,2,,,50,0
23880,note_on,0,0,3,,,,,,,,,2,,,49,36
23880,note_on,0,0,3,,,,,,,,,2,,,52,36
23880,control_change,0,0,3,,,,,,,,,2,64,0,,
23884,note_on,4,0,1,,,,,,,,,0,,,64,0
23910,control_change,26,0,1,,,,,,,,,0,64,0,,
23910,note_on,0,0,1,,,,,,,,,0,,,64,36
23914,note_on,4,0,1,,,,,,,,,0,,,64,0
23940,note_on,26,0,1,,,,,,,,,0,,,64,36
23940,note_on,0,0,1,,,,,,,,,0,,,76,36
23944,note_on,4,0,1,,,,,,,,,0,,,76,0
23944,note_on,0,0,1,,,,,,,,,0,,,64,0
23970,note_on,0,0,1,,,,,,,,,0,,,76,36
23970,note_on,26,0,1,,,,,,,,,0,,,64,36
23974,note_on,0,0,1,,,,,,,,,0,,,64,0
23974,note_on,4,0,1,,,,,,,,,0,,,76,0
23985,note_on,0,0,3,,,,,,,,,2,,,46,36
23985,note_on,0,0,3,,,,,,,,,2,,,54,36
23985,note_on,105,0,3,,,,,,,,,2,,,52,0
23985,note_on,0,0,3,,,,,,,,,2,,,49,0
24000,note_on,26,0,1,,,,,,,,,0,,,64,36
24000,note_on,0,0,3,,,,,,,,,2,,,46,0
24000,note_on,15,0,3,,,,,,,,,2,,,54,0
24000,note_on,0,0,3,,,,,,,,,2,,,50,36
24000,note_on,0,0,3,,,,,,,,,2,,,47,36
24004,note_on,4,0,1,,,,,,,,,0,,,64,0
24030,note_on,26,0,1,,,,,,,,,0,,,64,36
24034,note_on,4,0,1,,,,,,,,,0,,,64,0
24060,note_on,26,0,1,,,,,,,,,0,,,64,36
24060,note_on,0,0,1,,,,,,,,,0,,,76,36
24064,note_on,0,0,1,,,,,,,,,0,,,64,0
24064,note_on,4,0,1,,,,,,,,,0,,,76,0
24090,note_on,0,0,1,,,,,,,,,0,,,76,36
24090,note_on,26,0,1,,,,,,,,,0,,,64,36
24094,note_on,4,0,1,,,,,,,,,0,,,76,0
24094,note_on,0,0,1,,,,,,,,,0,,,64,0
24105,note_on,105,0,3,,,,,,,,,2,,,50,0
24105,note_on,0,0,3,,,,,,,,,2,,,47,0
24105,note_on,0,0,3,,,,,,,,,2,,,44,36
24105,note_on,0,0,3,,,,,,,,,2,,,52,36
24120,note_on,15,0,3,,,,,,,,,2,,,52,0
24120,note_on,0,0,3,,,,,,,,,2,,,44,0
24120,note_on,0,0,3,,,,,,,,,2,,,45,36
24120,note_on,0,0,1,,,,,,,,,0,,,73,36
24120,note_on,0,0,3,,,,,,,,,2,,,49,36
24120,note_on,0,0,3,,,,,,,,,2,,,57,36
24120,note_on,0,0,1,,,,,,,,,0,,,69,36
24120,control_change,0,0,3,,,,,,,,,2,64,127,,
24120,control_change,26,0,1,,,,,,,,,0,64,127,,
24124,note_on,4,0,3,,,,,,,,,2,,,57,0
24124,note_on,0,0,3,,,,,,,,,2,,,49,0
24124,note_on,0,0,3,,,,,,,,,2,,,45,0
24150,note_on,26,0,3,,,,,,,,,2,,,57,36
24154,note_on,4,0,3,,,,,,,,,2,,,57,0
24180,note_on,0,0,3,,,,,,,,,2,,,57,36
24180,note_on,26,0,3,,,,,,,,,2,,,45,36
24184,note_on,0,0,3,,,,,,,,,2,,,45,0
24184,note_on,4,0,3,,,,,,,,,2,,,57,0
24210,note_on,0,0,3,,,,,,,,,2,,,57,36
24210,note_on,26,0,3,,,,,,,,,2,,,45,36
24214,note_on,0,0,3,,,,,,,,,2,,,45,0
24214,note_on,4,0,3,,,,,,,,,2,,,57,0
24225,note_on,0,0,1,,,,,,,,,0,,,69,0
24225,note_on,105,0,1,,,,,,,,,0,,,73,0
24225,note_on,0,0,1,,,,,,,,,0,,,76,36
24225,note_on,0,0,1,,,,,,,,,0,,,67,36
24240,note_on,15,0,1,,,,,,,,,0,,,76,0
24240,note_on,0,0,1,,,,,,,,,0,,,69,36
24240,note_on,0,0,1,,,,,,,,,0,,,66,36
24240,note_on,0,0,1,,,,,,,,,0,,,67,0
24240,note_on,26,0,3,,,,,,,,,2,,,57,36
24244,note_on,4,0,3,,,,,,,,,2,,,57,0
24270,note_on,26,0,3,,,,,,,,,2,,,57,36
24274,note_on,4,0,3,,,,,,,,,2,,,57,0
24300,note_on,0,0,3,,,,,,,,,2,,,57,36
24300,note_on,26,0,3,,,,,,,,,2,,,45,36
24304,note_on,4,0,3,,,,,,,,,2,,,57,0
24304,note_on,0,0,3,,,,,,,,,2,,,45,0
24330,note_on,0,0,3,,,,,,,,,2,,,57,36
24330,note_on,26,0,3,,,,,,,,,2,,,45,36
24334,note_on,4,0,3,,,,,,,,,2,,,57,0
24334,note_on,0,0,3,,,,,,,,,2,,,45,0
24345,note_on,0,0,1,,,,,,,,,0,,,63,36
24345,note_on,0,0,1,,,,,,,,,0,,,66,0
24345,note_on,105,0,1,,,,,,,,,0,,,69,0
24345,note_on,0,0,1,,,,,,,,,0,,,71,36
24360,note_on,15,0,1,,,,,,,,,0,,,71,0
24360,note_on,0,0,1,,,,,,,,,0,,,67,36
24360,note_on,0,0,3,,,,,,,,,2,,,57,36
24360,control_change,26,0,3,,,,,,,,,2,64,0,,
24360,control_change,0,0,1,,,,,,,,,0,64,0,,
24360,note_on,0,0,1,,,,,,,,,0,,,64,36
24360,note_on,0,0,1,,,,,,,,,0,,,63,0
24364,note_on,4,0,3,,,,,,,,,2,,,57,0
24390,note_on,26,0,3,,,,,,,,,2,,,57,36
24394,note_on,4,0,3,,,,,,,,,2,,,57,0
24420,note_on,0,0,3,,,,,,,,,2,,,57,36
24420,set_tempo,6060,1,0,,,,,,1132075,,,,,,,
24420,note_on,26,0,3,,,,,,,,,2,,,45,36
24424,note_on,0,0,3,,,,,,,,,2,,,45,0
24424,note_on,4,0,3,,,,,,,,,2,,,57,0
24450,note_on,26,0,3,,,,,,,,,2,,,45,36
24450,note_on,0,0,3,,,,,,,,,2,,,57,36
24454,note_on,4,0,3,,,,,,,,,2,,,57,0
24454,note_on,0,0,3,,,,,,,,,2,,,45,0
24465,note_on,0,0,1,,,,,,,,,0,,,69,36
24465,note_on,0,0,1,,,,,,,,,0,,,64,0
24465,note_on,105,0,1,,,,,,,,,0,,,67,0
24465,note_on,0,0,1,,,,,,,,,0,,,61,36
24480,control_change,26,0,3,,,,,,,,,2,64,127,,
24480,note_on,0,0,3,,,,,,,,,2,,,50,36
24480,note_on,0,0,3,,,,,,,,,2,,,54,36
24480,set_tempo,60,1,0,,,,,,1200000,,,,,,,
24480,note_on,0,0,1,,,,,,,,,0,,,61,0
24480,note_on,0,0,1,,,,,,,,,0,,,62,36
24480,note_on,0,0,1,,,,,,,,,0,,,66,36
24480,control_change,0,0,1,,,,,,,,,0,64,127,,
24480,note_on,15,0,1,,,,,,,,,0,,,69,0
24484,note_on,4,0,1,,,,,,,,,0,,,66,0
24484,note_on,0,0,1,,,,,,,,,0,,,62,0
24510,note_on,26,0,1,,,,,,,,,0,,,62,36
24514,note_on,4,0,1,,,,,,,,,0,,,62,0
24540,note_on,26,0,1,,,,,,,,,0,,,62,36
24540,note_on,0,0,1,,,,,,,,,0,,,74,36
24540,set_tempo,60,1,0,,,,,,1276596,,,,,,,
24544,note_on,4,0,1,,,,,,,,,0,,,74,0
24544,note_on,0,0,1,,,,,,,,,0,,,62,0
24570,note_on,0,0,1,,,,,,,,,0,,,74,36
24570,note_on,26,0,1,,,,,,,,,0,,,62,36
24574,note_on,0,0,1,,,,,,,,,0,,,62,0
24574,note_on,4,0,1,,,,,,,,,0,,,74,0
24585,note_on,0,0,3,,,,,,,,,2,,,57,36
24585,note_on,0,0,3,,,,,,,,,2,,,48,36
24585,note_on,0,0,3,,,,,,,,,2,,,50,0
24585,note_on,105,0,3,,,,,,,,,2,,,54,0
24600,note_on,0,0,3,,,,,,,,,2,,,50,36
24600,note_on,0,0,3,,,,,,,,,2,,,48,0
24600,note_on,15,0,3,,,,,,,,,2,,,57,0
24600,set_tempo,60,1,0,,,,,,1395349,,,,,,,
24600,note_on,0,0,3,,,,,,,,,2,,,47,36
24600,control_change,0,0,3,,,,,,,,,2,64,0,,
24600,note_on,26,0,1,,,,,,,,,0,,,62,36
24604,note_on,4,0,1,,,,,,,,,0,,,62,0
24630,note_on,26,0,1,,,,,,,,,0,,,62,36
24634,note_on,4,0,1,,,,,,,,,0,,,62,0
24660,note_on,0,0,1,,,,,,,,,0,,,62,36
24660,control_change,26,0,1,,,,,,,,,0,64,0,,
24660,note_on,0,0,1,,,,,,,,,0,,,74,36
24660,set_tempo,60,1,0,,,,,,1500000,,,,,,,
24664,note_on,4,0,1,,,,,,,,,0,,,74,0
24664,note_on,0,0,1,,,,,,,,,0,,,62,0
24690,note_on,0,0,1,,,,,,,,,0,,,74,36
24690,note_on,26,0,1,,,,,,,,,0,,,62,36
24694,note_on,0,0,1,,,,,,,,,0,,,62,0
24694,note_on,4,0,1,,,,,,,,,0,,,74,0
24705,note_on,105,0,3,,,,,,,,,2,,,50,0
24705,note_on,0,0,3,,,,,,,,,2,,,47,0
24705,note_on,0,0,3,,,,,,,,,2,,,44,36
24705,note_on,0,0,3,,,,,,,,,2,,,52,36
24720,note_on,26,0,1,,,,,,,,,0,,,62,36
24720,note_on,15,0,3,,,,,,,,,2,,,52,0
24720,note_on,0,0,3,,,,,,,,,2,,,44,0
24720,note_on,0,0,3,,,,,,,,,2,,,45,36
24720,note_on,0,0,3,,,,,,,,,2,,,48,36
24720,set_tempo,60,1,0,,,,,,1621622,,,,,,,
24724,note_on,4,0,1,,,,,,,,,0,,,62,0
24750,note_on,26,0,1,,,,,,,,,0,,,62,36
24754,note_on,4,0,1,,,,,,,,,0,,,62,0
24780,note_on,26,0,1,,,,,,,,,0,,,62,36
24780,note_on,0,0,1,,,,,,,,,0,,,74,36
24780,set_tempo,60,1,0,,,,,,1764706,,,,,,,
24784,note_on,4,0,1,,,,,,,,,0,,,74,0
24784,note_on,0,0,1,,,,,,,,,0,,,62,0
24810,note_on,0,0,1,,,,,,,,,0,,,74,36
24810,note_on,26,0,1,,,,,,,,,0,,,62,36
24814,note_on,0,0,1,,,,,,,,,0,,,62,0
24814,note_on,4,0,1,,,,,,,,,0,,,74,0
24825,note_on,0,0,3,,,,,,,,,2,,,45,0
24825,note_on,0,0,3,,,,,,,,,2,,,42,36
24825,note_on,0,0,3,,,,,,,,,2,,,50,36
24825,note_on,105,0,3,,,,,,,,,2,,,48,0
24840,note_on,15,0,3,,,,,,,,,2,,,50,0
24840,note_on,0,0,3,,,,,,,,,2,,,42,0
24840,set_tempo,60,1,0,,,,,,1071429,,,,,,,
24840,control_change,0,0,3,,,,,,,,,2,64,127,,
24840,note_on,0,0,3,,,,,,,,,2,,,43,36
24840,note_on,0,0,1,,,,,,,,,0,,,67,36
24840,note_on,0,0,1,,,,,,,,,0,,,71,36
24840,note_on,0,0,1,,,,,,,,,0,,,62,36
24840,control_change,26,0,1,,,,,,,,,0,64,127,,
24849,note_on,0,0,1,,,,,,,,,0,,,62,0
24849,note_on,0,0,1,,,,,,,,,0,,,67,0
24849,note_on,9,0,1,,,,,,,,,0,,,71,0
24849,note_on,9,0,3,,,,,,,,,2,,,43,0
24930,note_on,0,0,1,,,,,,,,,0,,,71,36
24930,note_on,81,0,3,,,,,,,,,2,,,43,36
24930,note_on,0,0,3,,,,,,,,,2,,,55,36
24930,note_on,81,0,1,,,,,,,,,0,,,62,36
24930,note_on,0,0,1,,,,,,,,,0,,,67,36
24934,note_on,4,0,1,,,,,,,,,0,,,71,0
24934,note_on,0,0,1,,,,,,,,,0,,,67,0
24934,note_on,0,0,1,,,,,,,,,0,,,62,0
24934,note_on,0,0,3,,,,,,,,,2,,,43,0
24934,note_on,4,0,3,,,,,,,,,2,,,55,0
24960,note_on,0,0,1,,,,,,,,,0,,,67,49
24960,note_on,26,0,1,,,,,,,,,0,,,62,49
24960,note_on,0,0,1,,,,,,,,,0,,,71,49
24960,note_on,0,0,3,,,,,,,,,2,,,55,36
24960,note_on,26,0,3,,,,,,,,,2,,,43,36
24966,note_on,0,0,3,,,,,,,,,2,,,43,0
24966,note_on,6,0,1,,,,,,,,,0,,,71,0
24966,note_on,0,0,1,,,,,,,,,0,,,67,0
24966,note_on,0,0,1,,,,,,,,,0,,,62,0
24966,note_on,6,0,3,,,,,,,,,2,,,55,0
25020,control_change,54,0,1,,,,,,,,,0,64,0,,
25020,note_on,0,0,1,,,,,,,,,0,,,63,49
25020,note_on,0,0,1,,,,,,,,,0,,,67,49
25020,note_on,0,0,1,,,,,,,,,0,,,71,49
25020,note_on,0,0,3,,,,,,,,,2,,,43,36
25020,control_change,54,0,3,,,,,,,,,2,64,0,,
25020,note_on,0,0,3,,,,,,,,,2,,,55,36
25026,note_on,6,0,3,,,,,,,,,2,,,55,0
25026,note_on,0,0,3,,,,,,,,,2,,,43,0
25026,note_on,0,0,1,,,,,,,,,0,,,63,0
25026,note_on,0,0,1,,,,,,,,,0,,,67,0
25026,note_on,6,0,1,,,,,,,,,0,,,71,0
25080,note_on,54,0,1,,,,,,,,,0,,,64,62
25080,note_on,0,0,1,,,,,,,,,0,,,67,62
25080,note_on,0,0,1,,,,,,,,,0,,,72,62
25080,note_on,0,0,3,,,,,,,,,2,,,55,49
25080,note_on,54,0,3,,,,,,,,,2,,,43,49
25086,note_on,0,0,1,,,,,,,,,0,,,64,0
25086,note_on,6,0,3,,,,,,,,,2,,,55,0
25086,note_on,0,0,1,,,,,,,,,0,,,67,0
25086,note_on,6,0,1,,,,,,,,,0,,,72,0
25086,note_on,0,0,3,,,,,,,,,2,,,43,0
25140,note_on,54,0,3,,,,,,,,,2,,,47,49
25140,note_on,0,0,3,,,,,,,,,2,,,55,49
25140,note_on,54,0,1,,,,,,,,,0,,,65,62
25140,note_on,0,0,1,,,,,,,,,0,,,67,62
25140,note_on,0,0,1,,,,,,,,,0,,,74,62
25146,note_on,0,0,1,,,,,,,,,0,,,67,0
25146,note_on,0,0,3,,,,,,,,,2,,,47,0
25146,note_on,6,0,3,,,,,,,,,2,,,55,0
25146,note_on,6,0,1,,,,,,,,,0,,,74,0
25146,note_on,0,0,1,,,,,,,,,0,,,65,0
25200,note_on,0,0,3,,,,,,,,,2,,,55,36
25200,control_change,54,0,1,,,,,,,,,0,64,127,,
25200,note_on,3960,0,2,,,,,,,,,1,,,64,36
25200,note_on,0,0,2,,,,,,,,,1,,,67,36
25200,note_on,0,0,1,,,,,,,,,0,,,74,62
25200,control_change,54,0,3,,,,,,,,,2,64,127,,
25200,note_on,0,0,3,,,,,,,,,2,,,48,36
25290,note_on,90,0,1,,,,,,,,,0,,,74,0
25290,note_on,0,0,1,,,,,,,,,0,,,72,62
25320,note_on,0,0,1,,,,,,,,,0,,,71,36
25320,note_on,120,0,2,,,,,,,,,1,,,67,0
25320,note_on,0,0,2,,,,,,,,,1,,,64,0
25320,note_on,0,0,2,,,,,,,,,1,,,62,36
25320,control_change,0,0,1,,,,,,,,,0,64,0,,
25320,note_on,120,0,3,,,,,,,,,2,,,48,0
25320,note_on,0,0,3,,,,,,,,,2,,,43,36
25320,note_on,0,0,2,,,,,,,,,1,,,67,36
25320,note_on,30,0,1,,,,,,,,,0,,,72,0
25350,note_on,30,0,3,,,,,,,,,2,,,43,0
25350,note_on,0,0,3,,,,,,,,,2,,,43,36
25350,note_on,0,0,3,,,,,,,,,2,,,55,0
25350,control_change,0,0,3,,,,,,,,,2,64,0,,
25354,note_on,4,0,3,,,,,,,,,2,,,43,0
25380,note_on,0,0,2,,,,,,,,,1,,,62,0
25380,note_on,26,0,3,,,,,,,,,2,,,42,36
25380,note_on,60,0,1,,,,,,,,,0,,,71,0
25380,note_on,60,0,2,,,,,,,,,1,,,67,0
25384,note_on,4,0,3,,,,,,,,,2,,,42,0
25410,note_on,26,0,3,,,,,,,,,2,,,43,36
25414,note_on,4,0,3,,,,,,,,,2,,,43,0
25440,note_on,26,0,3,,,,,,,,,2,,,46,36
25444,note_on,4,0,3,,,,,,,,,2,,,46,0
25470,note_on,26,0,3,,,,,,,,,2,,,47,36
25474,note_on,4,0,3,,,,,,,,,2,,,47,0
25500,note_on,26,0,3,,,,,,,,,2,,,35,36
25504,note_on,4,0,3,,,,,,,,,2,,,35,0
25530,note_on,26,0,3,,,,,,,,,2,,,39,36
25534,note_on,4,0,3,,,,,,,,,2,,,39,0
25560,control_change,180,0,2,,,,,,,,,1,64,127,,
25560,note_on,0,0,2,,,,,,,,,1,,,64,54
25560,note_on,0,0,2,,,,,,,,,1,,,70,62
25560,control_change,26,0,3,,,,,,,,,2,64,127,,
25560,note_on,0,0,3,,,,,,,,,2,,,42,62
25560,note_on,0,0,1,,,,,,,,,0,,,75,88
25560,control_change,180,0,1,,,,,,,,,0,64,127,,
25650,note_on,90,0,3,,,,,,,,,2,,,42,0
25650,note_on,0,0,3,,,,,,,,,2,,,43,36
25650,note_on,90,0,1,,,,,,,,,0,,,75,0
25650,note_on,0,0,1,,,,,,,,,0,,,73,36
25680,note_on,120,0,2,,,,,,,,,1,,,70,0
25680,note_on,0,0,2,,,,,,,,,1,,,64,0
25680,note_on,30,0,1,,,,,,,,,0,,,73,0
25680,note_on,0,0,1,,,,,,,,,0,,,71,36
25680,note_on,0,0,2,,,,,,,,,1,,,63,36
25680,note_on,30,0,3,,,,,,,,,2,,,43,0
25680,note_on,0,0,3,,,,,,,,,2,,,44,36
25740,note_on,0,0,2,,,,,,,,,1,,,64,36
25740,note_on,60,0,2,,,,,,,,,1,,,63,0
25740,note_on,60,0,3,,,,,,,,,2,,,44,0
25740,control_change,0,0,3,,,,,,,,,2,64,0,,
25740,note_on,0,0,3,,,,,,,,,2,,,40,36
25740,note_on,60,0,1,,,,,,,,,0,,,71,0
25740,note_on,0,0,1,,,,,,,,,0,,,75,36
25740,control_change,0,0,2,,,,,,,,,1,64,0,,
25740,note_on,0,0,2,,,,,,,,,1,,,68,36
25740,control_change,0,0,1,,,,,,,,,0,64,0,,
25746,note_on,6,0,3,,,,,,,,,2,,,40,0
25770,note_on,30,0,1,,,,,,,,,0,,,75,0
25770,note_on,0,0,1,,,,,,,,,0,,,73,36
25800,note_on,60,0,2,,,,,,,,,1,,,68,0
25800,note_on,0,0,2,,,,,,,,,1,,,63,36
25800,note_on,54,0,3,,,,,,,,,2,,,42,36
25800,note_on,30,0,1,,,,,,,,,0,,,73,0
25800,note_on,0,0,1,,,,,,,,,0,,,71,36
25800,note_on,0,0,2,,,,,,,,,1,,,64,0
25806,note_on,6,0,3,,,,,,,,,2,,,42,0
25860,note_on,60,0,1,,,,,,,,,0,,,71,0
25860,note_on,0,0,2,,,,,,,,,1,,,70,36
25860,note_on,0,0,2,,,,,,,,,1,,,64,36
25860,note_on,60,0,2,,,,,,,,,1,,,63,0
25860,note_on,54,0,3,,,,,,,,,2,,,42,36
25860,note_on,0,0,1,,,,,,,,,0,,,75,36
25866,note_on,6,0,3,,,,,,,,,2,,,42,0
25890,note_on,30,0,1,,,,,,,,,0,,,75,0
25890,note_on,0,0,1,,,,,,,,,0,,,73,36
25920,control_change,0,0,1,,,,,,,,,0,64,127,,
25920,note_on,0,0,1,,,,,,,,,0,,,71,36
25920,note_on,0,0,2,,,,,,,,,1,,,63,36
25920,note_on,60,0,2,,,,,,,,,1,,,70,0
25920,note_on,30,0,1,,,,,,,,,0,,,73,0
25920,note_on,0,0,2,,,,,,,,,1,,,64,0
25920,note_on,0,0,3,,,,,,,,,2,,,47,36
25920,control_change,54,0,3,,,,,,,,,2,64,127,,
25929,note_on,9,0,3,,,,,,,,,2,,,47,0
26010,note_on,90,0,1,,,,,,,,,0,,,71,0
26010,note_on,81,0,3,,,,,,,,,2,,,42,36
26010,note_on,0,0,1,,,,,,,,,0,,,73,36
26014,note_on,4,0,3,,,,,,,,,2,,,42,0
26025,note_on,0,0,1,,,,,,,,,0,,,75,36
26025,note_on,15,0,1,,,,,,,,,0,,,73,0
26040,note_on,0,0,2,,,,,,,,,1,,,63,36
26040,note_on,26,0,3,,,,,,,,,2,,,47,36
26040,note_on,15,0,1,,,,,,,,,0,,,75,0
26040,control_change,0,0,1,,,,,,,,,0,64,0,,
26040,note_on,0,0,1,,,,,,,,,0,,,71,36
26040,note_on,120,0,2,,,,,,,,,1,,,63,0
26070,note_on,30,0,3,,,,,,,,,2,,,47,0
26070,control_change,0,0,3,,,,,,,,,2,64,0,,
26070,note_on,0,0,3,,,,,,,,,2,,,59,36
26074,note_on,4,0,3,,,,,,,,,2,,,59,0
26100,note_on,26,0,3,,,,,,,,,2,,,58,36
26100,note_on,60,0,2,,,,,,,,,1,,,63,0
26100,note_on,60,0,1,,,,,,,,,0,,,71,0
26104,note_on,4,0,3,,,,,,,,,2,,,58,0
26130,note_on,26,0,3,,,,,,,,,2,,,59,36
26134,note_on,4,0,3,,,,,,,,,2,,,59,0
26160,note_on,26,0,3,,,,,,,,,2,,,58,36
26164,note_on,4,0,3,,,,,,,,,2,,,58,0
26190,note_on,26,0,3,,,,,,,,,2,,,59,36
26194,note_on,4,0,3,,,,,,,,,2,,,59,0
26220,note_on,26,0,3,,,,,,,,,2,,,60,36
26224,note_on,4,0,3,,,,,,,,,2,,,60,0
26250,note_on,26,0,3,,,,,,,,,2,,,62,36
26254,note_on,4,0,3,,,,,,,,,2,,,62,0
26280,control_change,26,0,3,,,,,,,,,2,64,127,,
26280,note_on,0,0,3,,,,,,,,,2,,,65,62
26280,note_on,0,0,3,,,,,,,,,2,,,55,54
26280,note_on,0,0,1,,,,,,,,,0,,,79,62
26280,control_change,180,0,1,,,,,,,,,0,64,127,,
26280,note_on,0,0,1,,,,,,,,,0,,,67,52
26280,note_on,0,0,1,,,,,,,,,0,,,71,57
26289,note_on,0,0,3,,,,,,,,,2,,,55,0
26289,note_on,9,0,3,,,,,,,,,2,,,65,0
26370,note_on,0,0,1,,,,,,,,,0,,,67,0
26370,note_on,0,0,1,,,,,,,,,0,,,71,0
26370,note_on,90,0,1,,,,,,,,,0,,,79,0
26370,note_on,0,0,1,,,,,,,,,0,,,67,36
26370,note_on,81,0,3,,,,,,,,,2,,,55,36
26370,note_on,0,0,3,,,,,,,,,2,,,65,36
26370,note_on,0,0,1,,,,,,,,,0,,,71,36
26374,note_on,4,0,3,,,,,,,,,2,,,65,0
26374,note_on,0,0,3,,,,,,,,,2,,,55,0
26400,note_on,26,0,3,,,,,,,,,2,,,55,36
26400,note_on,0,0,1,,,,,,,,,0,,,67,0
26400,note_on,0,0,1,,,,,,,,,0,,,67,36
26400,note_on,0,0,1,,,,,,,,,0,,,71,36
26400,note_on,0,0,3,,,,,,,,,2,,,65,36
26400,note_on,30,0,1,,,,,,,,,0,,,71,0
26406,note_on,6,0,3,,,,,,,,,2,,,65,0
26406,note_on,0,0,3,,,,,,,,,2,,,55,0
26460,note_on,60,0,1,,,,,,,,,0,,,71,0
26460,note_on,0,0,1,,,,,,,,,0,,,67,0
26460,note_on,0,0,1,,,,,,,,,0,,,67,36
26460,note_on,0,0,1,,,,,,,,,0,,,71,36
26460,note_on,0,0,1,,,,,,,,,0,,,79,36
26460,note_on,54,0,3,,,,,,,,,2,,,55,36
26460,note_on,0,0,3,,,,,,,,,2,,,65,36
26466,note_on,6,0,3,,,,,,,,,2,,,65,0
26466,note_on,0,0,3,,,,,,,,,2,,,55,0
26490,note_on,30,0,1,,,,,,,,,0,,,79,0
26490,note_on,0,0,1,,,,,,,,,0,,,71,36
26490,note_on,0,0,1,,,,,,,,,0,,,67,0
26490,note_on,0,0,1,,,,,,,,,0,,,71,0
26520,control_change,54,0,3,,,,,,,,,2,64,0,,
26520,note_on,0,0,3,,,,,,,,,2,,,64,36
26520,note_on,0,0,1,,,,,,,,,0,,,72,36
26520,control_change,0,0,1,,,,,,,,,0,64,0,,
26520,note_on,30,0,1,,,,,,,,,0,,,71,0
26520,note_on,0,0,3,,,,,,,,,2,,,55,36
26520,note_on,0,0,1,,,,,,,,,0,,,67,36
26526,note_on,0,0,3,,,,,,,,,2,,,55,0
26526,note_on,6,0,3,,,,,,,,,2,,,64,0
26526,note_on,0,0,1,,,,,,,,,0,,,67,0
26526,note_on,6,0,1,,,,,,,,,0,,,72,0
26580,note_on,0,0,3,,,,,,,,,2,,,59,36
26580,note_on,54,0,3,,,,,,,,,2,,,55,36
26580,note_on,0,0,1,,,,,,,,,0,,,67,36
26580,note_on,54,0,1,,,,,,,,,0,,,65,36
26580,note_on,0,0,1,,,,,,,,,0,,,74,36
26586,note_on,0,0,1,,,,,,,,,0,,,65,0
26586,note_on,6,0,3,,,,,,,,,2,,,59,0
26586,note_on,0,0,1,,,,,,,,,0,,,67,0
26586,note_on,0,0,3,,,,,,,,,2,,,55,0
26586,note_on,6,0,1,,,,,,,,,0,,,74,0
26640,note_on,0,0,1,,,,,,,,,0,,,67,57
26640,note_on,0,0,1,,,,,,,,,0,,,74,62
26640,control_change,54,0,1,,,,,,,,,0,64,127,,
26640,control_change,54,0,3,,,,,,,,,2,64,127,,
26640,note_on,0,0,3,,,,,,,,,2,,,55,54
26640,note_on,0,0,3,,,,,,,,,2,,,59,62
26640,note_on,0,0,1,,,,,,,,,0,,,65,52
26730,note_on,0,0,3,,,,,,,,,2,,,55,0
26730,note_on,0,0,1,,,,,,,,,0,,,76,36
26730,note_on,0,0,1,,,,,,,,,0,,,67,36
26730,note_on,0,0,1,,,,,,,,,0,,,64,36
26730,note_on,0,0,1,,,,,,,,,0,,,65,0
26730,note_on,0,0,1,,,,,,,,,0,,,67,0
26730,note_on,90,0,1,,,,,,,,,0,,,74,0
26730,note_on,90,0,3,,,,,,,,,2,,,59,0
26730,note_on,0,0,3,,,,,,,,,2,,,60,36
26730,note_on,0,0,3,,,,,,,,,2,,,48,36
26760,note_on,0,0,1,,,,,,,,,0,,,67,0
26760,note_on,0,0,1,,,,,,,,,0,,,74,36
26760,note_on,0,0,1,,,,,,,,,0,,,64,0
26760,note_on,30,0,1,,,,,,,,,0,,,76,0
26760,control_change,0,0,1,,,,,,,,,0,64,0,,
26760,note_on,0,0,1,,,,,,,,,0,,,67,36
26760,note_on,30,0,3,,,,,,,,,2,,,60,0
26760,note_on,0,0,3,,,,,,,,,2,,,48,0
26760,note_on,0,0,3,,,,,,,,,2,,,55,36
26760,note_on,0,0,3,,,,,,,,,2,,,59,36
26760,note_on,0,0,1,,,,,,,,,0,,,62,36
26790,note_on,30,0,3,,,,,,,,,2,,,59,0
26790,note_on,0,0,3,,,,,,,,,2,,,55,0
26790,control_change,0,0,3,,,,,,,,,2,64,0,,
26790,note_on,0,0,3,,,,,,,,,2,,,43,36
26794,note_on,4,0,3,,,,,,,,,2,,,43,0
26820,note_on,0,0,1,,,,,,,,,0,,,67,0
26820,note_on,26,0,3,,,,,,,,,2,,,42,36
26820,note_on,0,0,1,,,,,,,,,0,,,62,0
26820,note_on,60,0,1,,,,,,,,,0,,,74,0
26824,note_on,4,0,3,,,,,,,,,2,,,42,0
26850,note_on,26,0,3,,,,,,,,,2,,,43,36
26854,note_on,4,0,3,,,,,,,,,2,,,43,0
26880,note_on,26,0,3,,,,,,,,,2,,,46,36
26884,note_on,4,0,3,,,,,,,,,2,,,46,0
26910,note_on,26,0,3,,,,,,,,,2,,,47,36
26914,note_on,4,0,3,,,,,,,,,2,,,47,0
26940,note_on,26,0,3,,,,,,,,,2,,,48,36
26944,note_on,4,0,3,,,,,,,,,2,,,48,0
26970,note_on,26,0,3,,,,,,,,,2,,,46,36
26974,note_on,4,0,3,,,,,,,,,2,,,46,0
27000,note_on,0,0,1,,,,,,,,,0,,,68,57
27000,control_change,180,0,1,,,,,,,,,0,64,127,,
27000,note_on,0,0,1,,,,,,,,,0,,,59,52
27000,note_on,0,0,1,,,,,,,,,0,,,71,62
27000,control_change,26,0,3,,,,,,,,,2,64,127,,
27000,note_on,0,0,3,,,,,,,,,2,,,47,62
27090,note_on,90,0,1,,,,,,,,,0,,,71,0
27090,note_on,0,0,1,,,,,,,,,0,,,68,0
27090,note_on,0,0,3,,,,,,,,,2,,,48,36
27090,note_on,90,0,3,,,,,,,,,2,,,47,0
27090,note_on,0,0,1,,,,,,,,,0,,,66,36
27090,note_on,0,0,1,,,,,,,,,0,,,69,36
27090,note_on,0,0,1,,,,,,,,,0,,,63,36
27090,note_on,0,0,1,,,,,,,,,0,,,59,0
27120,note_on,30,0,1,,,,,,,,,0,,,69,0
27120,note_on,0,0,1,,,,,,,,,0,,,66,0
27120,note_on,0,0,1,,,,,,,,,0,,,63,0
27120,note_on,0,0,1,,,,,,,,,0,,,64,36
27120,note_on,0,0,1,,,,,,,,,0,,,68,36
27120,note_on,30,0,3,,,,,,,,,2,,,48,0
27120,note_on,0,0,3,,,,,,,,,2,,,49,36
27180,note_on,60,0,3,,,,,,,,,2,,,49,0
27180,control_change,0,0,3,,,,,,,,,2,64,0,,
27180,note_on,0,0,3,,,,,,,,,2,,,45,36
27180,note_on,1080,0,2,,,,,,,,,1,,,57,36
27180,note_on,0,0,2,,,,,,,,,1,,,61,36
27180,control_change,0,0,1,,,,,,,,,0,64,0,,
27180,note_on,0,0,1,,,,,,,,,0,,,64,0
27180,note_on,60,0,1,,,,,,,,,0,,,68,0
27180,note_on,0,0,1,,,,,,,,,0,,,68,36
27186,note_on,6,0,3,,,,,,,,,2,,,45,0
27210,note_on,0,0,1,,,,,,,,,0,,,66,36
27210,note_on,30,0,1,,,,,,,,,0,,,68,0
27240,note_on,30,0,1,,,,,,,,,0,,,66,0
27240,note_on,60,0,2,,,,,,,,,1,,,61,0
27240,note_on,0,0,2,,,,,,,,,1,,,57,0
27240,note_on,0,0,2,,,,,,,,,1,,,56,36
27240,note_on,0,0,1,,,,,,,,,0,,,64,36
27240,note_on,54,0,3,,,,,,,,,2,,,47,36
27246,note_on,6,0,3,,,,,,,,,2,,,47,0
27300,note_on,54,0,3,,,,,,,,,2,,,47,36
27300,note_on,60,0,1,,,,,,,,,0,,,64,0
27300,note_on,0,0,1,,,,,,,,,0,,,68,36
27300,note_on,0,0,2,,,,,,,,,1,,,63,36
27300,note_on,0,0,2,,,,,,,,,1,,,57,36
27300,note_on,60,0,2,,,,,,,,,1,,,56,0
27306,note_on,6,0,3,,,,,,,,,2,,,47,0
27330,note_on,30,0,1,,,,,,,,,0,,,68,0
27330,note_on,0,0,1,,,,,,,,,0,,,66,36
27360,note_on,54,0,3,,,,,,,,,2,,,52,36
27360,note_on,30,0,1,,,,,,,,,0,,,66,0
27360,control_change,0,0,1,,,,,,,,,0,64,127,,
27360,note_on,0,0,1,,,,,,,,,0,,,56,36
27360,note_on,0,0,1,,,,,,,,,0,,,64,36
27360,control_change,6240,0,4,,,,,,,,,3,64,127,,
27360,note_on,60,0,2,,,,,,,,,1,,,63,0
27360,note_on,0,0,2,,,,,,,,,1,,,57,0
27390,note_on,30,0,4,,,,,,,,,3,,,40,36
27420,note_on,60,0,2,,,,,,,,,1,,,62,36
27420,note_on,60,0,1,,,,,,,,,0,,,64,0
27420,note_on,30,0,4,,,,,,,,,3,,,40,0
27420,note_on,0,0,1,,,,,,,,,0,,,56,0
27420,note_on,0,0,1,,,,,,,,,0,,,74,62
27420,note_on,0,0,2,,,,,,,,,1,,,64,36
27420,note_on,0,0,4,,,,,,,,,3,,,39,36
27424,note_on,4,0,4,,,,,,,,,3,,,39,0
27450,note_on,26,0,4,,,,,,,,,3,,,40,36
27454,note_on,4,0,4,,,,,,,,,3,,,40,0
27480,note_on,26,0,4,,,,,,,,,3,,,39,36
27484,note_on,4,0,4,,,,,,,,,3,,,39,0
27510,note_on,26,0,4,,,,,,,,,3,,,40,36
27514,note_on,4,0,4,,,,,,,,,3,,,40,0
27540,note_on,0,0,1,,,,,,,,,0,,,73,36
27540,control_change,0,0,1,,,,,,,,,0,64,0,,
27540,control_change,26,0,4,,,,,,,,,3,64,0,,
27540,note_on,120,0,1,,,,,,,,,0,,,74,0
27540,note_on,0,0,4,,,,,,,,,3,,,42,36
27544,note_on,4,0,4,,,,,,,,,3,,,42,0
27570,note_on,30,0,1,,,,,,,,,0,,,73,0
27570,note_on,0,0,1,,,,,,,,,0,,,71,36
27570,note_on,26,0,4,,,,,,,,,3,,,44,36
27574,note_on,4,0,4,,,,,,,,,3,,,44,0
27600,control_change,26,0,4,,,,,,,,,3,64,127,,
27600,note_on,0,0,3,,,,,,,,,2,,,52,36
27600,note_on,240,0,3,,,,,,,,,2,,,52,0
27600,note_on,0,0,2,,,,,,,,,1,,,64,36
27600,note_on,180,0,2,,,,,,,,,1,,,64,0
27600,note_on,0,0,2,,,,,,,,,1,,,62,0
27600,note_on,0,0,2,,,,,,,,,1,,,61,36
27600,note_on,0,0,1,,,,,,,,,0,,,71,36
27600,control_change,0,0,1,,,,,,,,,0,64,127,,
27600,note_on,30,0,1,,,,,,,,,0,,,71,0
27630,note_on,30,0,4,,,,,,,,,3,,,45,36
27634,note_on,4,0,4,,,,,,,,,3,,,45,0
27660,note_on,26,0,4,,,,,,,,,3,,,44,36
27660,note_on,0,0,1,,,,,,,,,0,,,69,36
27660,note_on,60,0,1,,,,,,,,,0,,,71,0
27664,note_on,4,0,4,,,,,,,,,3,,,44,0
27690,note_on,26,0,4,,,,,,,,,3,,,45,36
27694,note_on,4,0,4,,,,,,,,,3,,,45,0
27720,note_on,26,0,4,,,,,,,,,3,,,44,36
27724,note_on,4,0,4,,,,,,,,,3,,,44,0
27750,note_on,26,0,4,,,,,,,,,3,,,45,36
27754,note_on,4,0,4,,,,,,,,,3,,,45,0
27780,control_change,26,0,4,,,,,,,,,3,64,0,,
27780,note_on,0,0,4,,,,,,,,,3,,,47,36
27784,note_on,4,0,4,,,,,,,,,3,,,47,0
27810,note_on,26,0,4,,,,,,,,,3,,,49,36
27814,note_on,4,0,4,,,,,,,,,3,,,49,0
27840,control_change,26,0,4,,,,,,,,,3,64,127,,
27840,note_on,0,0,1,,,,,,,,,0,,,59,36
27840,note_on,240,0,3,,,,,,,,,2,,,52,0
27840,note_on,240,0,2,,,,,,,,,1,,,64,0
27840,note_on,0,0,2,,,,,,,,,1,,,61,0
27840,note_on,0,0,3,,,,,,,,,2,,,47,36
27840,note_on,180,0,1,,,,,,,,,0,,,69,0
27840,control_change,0,0,1,,,,,,,,,0,64,0,,
27840,note_on,0,0,1,,,,,,,,,0,,,57,36
27870,note_on,30,0,4,,,,,,,,,3,,,35,36
27874,note_on,4,0,4,,,,,,,,,3,,,35,0
27900,note_on,0,0,1,,,,,,,,,0,,,69,62
27900,note_on,0,0,1,,,,,,,,,0,,,57,0
27900,note_on,60,0,2,,,,,,,,,1,,,57,36
27900,note_on,60,0,1,,,,,,,,,0,,,59,0
27900,note_on,26,0,4,,,,,,,,,3,,,34,36
27900,note_on,0,0,2,,,,,,,,,1,,,59,36
27904,note_on,4,0,4,,,,,,,,,3,,,34,0
27930,note_on,26,0,4,,,,,,,,,3,,,35,36
27934,note_on,4,0,4,,,,,,,,,3,,,35,0
27960,note_on,26,0,4,,,,,,,,,3,,,34,36
27964,note_on,4,0,4,,,,,,,,,3,,,34,0
27990,note_on,26,0,4,,,,,,,,,3,,,35,36
27994,note_on,4,0,4,,,,,,,,,3,,,35,0
28020,note_on,120,0,1,,,,,,,,,0,,,69,0
28020,control_change,26,0,4,,,,,,,,,3,64,0,,
28020,note_on,0,0,4,,,,,,,,,3,,,37,36
28020,note_on,0,0,1,,,,,,,,,0,,,68,36
28024,note_on,4,0,4,,,,,,,,,3,,,37,0
28050,note_on,30,0,1,,,,,,,,,0,,,68,0
28050,note_on,0,0,1,,,,,,,,,0,,,66,36
28050,note_on,26,0,4,,,,,,,,,3,,,39,36
28054,note_on,4,0,4,,,,,,,,,3,,,39,0
28080,note_on,30,0,1,,,,,,,,,0,,,66,0
28080,control_change,0,0,1,,,,,,,,,0,64,127,,
28080,note_on,0,0,1,,,,,,,,,0,,,66,36
28080,note_on,240,0,3,,,,,,,,,2,,,47,0
28080,note_on,180,0,2,,,,,,,,,1,,,59,0
28080,note_on,0,0,2,,,,,,,,,1,,,57,0
28080,note_on,0,0,2,,,,,,,,,1,,,56,36
28080,note_on,0,0,2,,,,,,,,,1,,,59,36
28080,note_on,0,0,3,,,,,,,,,2,,,47,36
28080,control_change,26,0,4,,,,,,,,,3,64,127,,
28110,note_on,30,0,4,,,,,,,,,3,,,40,36
28114,note_on,4,0,4,,,,,,,,,3,,,40,0
28140,note_on,0,0,1,,,,,,,,,0,,,64,36
28140,note_on,60,0,1,,,,,,,,,0,,,66,0
28140,note_on,26,0,4,,,,,,,,,3,,,39,36
28144,note_on,4,0,4,,,,,,,,,3,,,39,0
28170,note_on,26,0,4,,,,,,,,,3,,,40,36
28174,note_on,4,0,4,,,,,,,,,3,,,40,0
28200,note_on,26,0,4,,,,,,,,,3,,,39,36
28200,note_on,60,0,1,,,,,,,,,0,,,64,0
28200,note_on,0,0,1,,,,,,,,,0,,,64,36
28204,note_on,4,0,4,,,,,,,,,3,,,39,0
28230,note_on,26,0,4,,,,,,,,,3,,,40,36
28234,note_on,4,0,4,,,,,,,,,3,,,40,0
28260,note_on,26,0,4,,,,,,,,,3,,,42,36
28264,note_on,4,0,4,,,,,,,,,3,,,42,0
28290,note_on,0,0,4,,,,,,,,,3,,,44,36
28290,control_change,26,0,4,,,,,,,,,3,64,0,,
28294,note_on,4,0,4,,,,,,,,,3,,,44,0
28320,control_change,0,0,1,,,,,,,,,0,64,0,,
28320,note_on,0,0,1,,,,,,,,,0,,,64,36
28320,note_on,0,0,3,,,,,,,,,2,,,52,36
28320,note_on,0,0,2,,,,,,,,,1,,,62,36
28320,note_on,0,0,2,,,,,,,,,1,,,56,0
28320,note_on,240,0,2,,,,,,,,,1,,,59,0
28320,note_on,120,0,1,,,,,,,,,0,,,64,0
28320,note_on,240,0,3,,,,,,,,,2,,,47,0
28350,control_change,56,0,4,,,,,,,,,3,64,127,,
28350,note_on,0,0,4,,,,,,,,,3,,,40,36
28354,note_on,4,0,4,,,,,,,,,3,,,40,0
28380,note_on,60,0,2,,,,,,,,,1,,,62,0
28380,note_on,26,0,4,,,,,,,,,3,,,39,75
28380,note_on,60,0,1,,,,,,,,,0,,,64,0
28380,note_on,0,0,2,,,,,,,,,1,,,64,75
28380,note_on,0,0,2,,,,,,,,,1,,,62,75
28380,note_on,0,0,1,,,,,,,,,0,,,74,88
28380,control_change,0,0,1,,,,,,,,,0,64,127,,
28384,note_on,4,0,4,,,,,,,,,3,,,39,0
28410,note_on,26,0,4,,,,,,,,,3,,,40,75
28414,note_on,4,0,4,,,,,,,,,3,,,40,0
28440,note_on,26,0,4,,,,,,,,,3,,,39,36
28444,note_on,4,0,4,,,,,,,,,3,,,39,0
28470,note_on,26,0,4,,,,,,,,,3,,,40,36
28474,note_on,4,0,4,,,,,,,,,3,,,40,0
28500,note_on,120,0,1,,,,,,,,,0,,,74,0
28500,control_change,0,0,1,,,,,,,,,0,64,0,,
28500,note_on,0,0,1,,,,,,,,,0,,,72,49
28500,note_on,0,0,4,,,,,,,,,3,,,42,36
28500,control_change,26,0,4,,,,,,,,,3,64,0,,
28504,note_on,4,0,4,,,,,,,,,3,,,42,0
28530,note_on,30,0,1,,,,,,,,,0,,,72,0
28530,note_on,0,0,1,,,,,,,,,0,,,71,49
28530,note_on,26,0,4,,,,,,,,,3,,,44,36
28534,note_on,4,0,4,,,,,,,,,3,,,44,0
28560,note_on,0,0,3,,,,,,,,,2,,,52,36
28560,note_on,240,0,3,,,,,,,,,2,,,52,0
28560,note_on,0,0,1,,,,,,,,,0,,,71,49
28560,note_on,180,0,2,,,,,,,,,1,,,64,0
28560,note_on,0,0,2,,,,,,,,,1,,,64,36
28560,note_on,30,0,1,,,,,,,,,0,,,71,0
28560,note_on,0,0,2,,,,,,,,,1,,,62,0
28560,note_on,0,0,2,,,,,,,,,1,,,60,36
28590,control_change,56,0,4,,,,,,,,,3,64,127,,
28590,note_on,0,0,4,,,,,,,,,3,,,45,36
28594,note_on,4,0,4,,,,,,,,,3,,,45,0
28620,note_on,0,0,1,,,,,,,,,0,,,69,49
28620,note_on,60,0,1,,,,,,,,,0,,,71,0
28620,note_on,26,0,4,,,,,,,,,3,,,44,36
28624,note_on,4,0,4,,,,,,,,,3,,,44,0
28650,note_on,26,0,4,,,,,,,,,3,,,45,36
28654,note_on,4,0,4,,,,,,,,,3,,,45,0
28680,set_tempo,3840,1,0,,,,,,1132075,,,,,,,
28680,note_on,26,0,4,,,,,,,,,3,,,44,36
28684,note_on,4,0,4,,,,,,,,,3,,,44,0
28710,control_change,26,0,4,,,,,,,,,3,64,0,,
28710,note_on,0,0,4,,,,,,,,,3,,,45,36
28714,note_on,4,0,4,,,,,,,,,3,,,45,0
28740,note_on,26,0,4,,,,,,,,,3,,,47,36
28740,set_tempo,60,1,0,,,,,,1200000,,,,,,,
28744,note_on,4,0,4,,,,,,,,,3,,,47,0
28770,note_on,26,0,4,,,,,,,,,3,,,48,36
28774,note_on,4,0,4,,,,,,,,,3,,,48,0
28800,set_tempo,60,1,0,,,,,,1276596,,,,,,,
28800,control_change,26,0,4,,,,,,,,,3,64,127,,
28800,note_on,180,0,1,,,,,,,,,0,,,69,0
28800,note_on,240,0,3,,,,,,,,,2,,,52,0
28800,note_on,0,0,3,,,,,,,,,2,,,47,36
28800,note_on,0,0,2,,,,,,,,,1,,,59,36
28800,note_on,240,0,2,,,,,,,,,1,,,64,0
28800,note_on,0,0,2,,,,,,,,,1,,,60,0
28800,note_on,0,0,2,,,,,,,,,1,,,57,36
28830,note_on,30,0,4,,,,,,,,,3,,,35,36
28834,note_on,4,0,4,,,,,,,,,3,,,35,0
28860,note_on,26,0,4,,,,,,,,,3,,,34,36
28860,set_tempo,60,1,0,,,,,,1395349,,,,,,,
28860,note_on,60,0,1,,,,,,,,,0,,,69,36
28864,note_on,4,0,4,,,,,,,,,3,,,34,0
28890,note_on,26,0,4,,,,,,,,,3,,,35,36
28894,note_on,4,0,4,,,,,,,,,3,,,35,0
28920,set_tempo,60,1,0,,,,,,1500000,,,,,,,
28920,note_on,26,0,4,,,,,,,,,3,,,34,36
28924,note_on,4,0,4,,,,,,,,,3,,,34,0
28950,note_on,26,0,4,,,,,,,,,3,,,35,36
28954,note_on,4,0,4,,,,,,,,,3,,,35,0
28980,control_change,26,0,4,,,,,,,,,3,64,0,,
28980,set_tempo,60,1,0,,,,,,1621622,,,,,,,
28980,note_on,120,0,1,,,,,,,,,0,,,69,0
28980,note_on,0,0,1,,,,,,,,,0,,,68,36
28980,note_on,0,0,4,,,,,,,,,3,,,37,36
28984,note_on,4,0,4,,,,,,,,,3,,,37,0
29010,note_on,26,0,4,,,,,,,,,3,,,39,36
29010,note_on,30,0,1,,,,,,,,,0,,,68,0
29010,note_on,0,0,1,,,,,,,,,0,,,66,36
29014,note_on,4,0,4,,,,,,,,,3,,,39,0
29040,note_on,30,0,1,,,,,,,,,0,,,66,0
29040,note_on,0,0,1,,,,,,,,,0,,,66,36
29040,note_on,240,0,2,,,,,,,,,1,,,59,0
29040,note_on,0,0,2,,,,,,,,,1,,,57,0
29040,note_on,240,0,3,,,,,,,,,2,,,47,0
29040,note_on,0,0,3,,,,,,,,,2,,,47,36
29040,note_on,0,0,2,,,,,,,,,1,,,56,36
29040,note_on,0,0,2,,,,,,,,,1,,,59,36
29040,set_tempo,60,1,0,,,,,,1764706,,,,,,,
29070,note_on,0,0,4,,,,,,,,,3,,,40,36
29070,control_change,56,0,4,,,,,,,,,3,64,127,,
29074,note_on,4,0,4,,,,,,,,,3,,,40,0
29100,note_on,26,0,4,,,,,,,,,3,,,39,36
29100,end_of_track,0,1,0,,,,,,,,,,,,,
29100,note_on,0,0,1,,,,,,,,,0,,,64,36
29100,set_tempo,60,1,0,,,,,,2000000,,,,,,,
29100,note_on,60,0,1,,,,,,,,,0,,,66,0
29104,note_on,4,0,4,,,,,,,,,3,,,39,0
29130,note_on,26,0,4,,,,,,,,,3,,,40,36
29134,note_on,4,0,4,,,,,,,,,3,,,40,0
29160,note_on,26,0,4,,,,,,,,,3,,,39,36
29164,note_on,4,0,4,,,,,,,,,3,,,39,0
29190,note_on,26,0,4,,,,,,,,,3,,,40,36
29194,note_on,4,0,4,,,,,,,,,3,,,40,0
29220,note_on,26,0,4,,,,,,,,,3,,,44,36
29224,note_on,4,0,4,,,,,,,,,3,,,44,0
29250,note_on,26,0,4,,,,,,,,,3,,,35,36
29254,note_on,4,0,4,,,,,,,,,3,,,35,0
29280,control_change,26,0,4,,,,,,,,,3,64,0,,
29280,note_on,0,0,4,,,,,,,,,3,,,40,36
29520,note_on,420,0,1,,,,,,,,,0,,,64,0
29520,note_on,480,0,2,,,,,,,,,1,,,59,0
29520,note_on,0,0,2,,,,,,,,,1,,,56,0
29520,note_on,240,0,4,,,,,,,,,3,,,40,0
29520,note_on,480,0,3,,,,,,,,,2,,,47,0
30240,control_change,720,0,4,,,,,,,,,3,64,0,,
30240,end_of_track,0,1,1,,,,,,,,,,,,,
30240,control_change,720,0,3,,,,,,,,,2,64,0,,
30240,end_of_track,0,1,3,,,,,,,,,,,,,
30240,control_change,720,0,2,,,,,,,,,1,64,0,,
30240,end_of_track,0,1,2,,,,,,,,,,,,,
30240,control_change,720,0,1,,,,,,,,,0,64,0,,
30240,end_of_track,0,1,4,,,,,,,,,,,,,
