tick,type,numerator,denominator,clocks_per_click,notated_32nd_notes_per_beat,time,meta,track,tempo,program,channel,control,value,note,velocity
0,time_signature,4,4,24,8,0,1,0,,,,,,,
0,control_change,,,,,0,0,1,,,0,7,80,,
0,note_on,,,,,0,0,1,,,0,,,61,50
0,track_name,,,,,0,1,8,,,,,,,
0,track_name,,,,,0,1,2,,,,,,,
0,program_change,,,,,0,0,2,,0,0,,,,
0,control_change,,,,,0,0,2,,,0,7,80,,
0,control_change,,,,,0,0,2,,,0,64,127,,
0,note_on,,,,,0,0,2,,,0,,,45,41
0,track_name,,,,,0,1,3,,,,,,,
0,program_change,,,,,0,0,1,,0,0,,,,
0,program_change,,,,,0,0,3,,0,0,,,,
0,end_of_track,,,,,0,1,3,,,,,,,
0,track_name,,,,,0,1,4,,,,,,,
0,end_of_track,,,,,0,1,4,,,,,,,
0,track_name,,,,,0,1,5,,,,,,,
0,end_of_track,,,,,0,1,5,,,,,,,
0,track_name,,,,,0,1,6,,,,,,,
0,end_of_track,,,,,0,1,6,,,,,,,
0,track_name,,,,,0,1,7,,,,,,,
0,end_of_track,,,,,0,1,7,,,,,,,
0,control_change,,,,,0,0,3,,,0,7,80,,
0,track_name,,,,,0,1,1,,,,,,,
0,end_of_track,,,,,0,1,8,,,,,,,
0,set_tempo,,,,,0,1,0,521739,,,,,,
0,marker,,,,,0,1,0,,,,,,,
0,marker,,,,,0,1,0,,,,,,,
40,set_tempo,,,,,40,1,0,504202,,,,,,
120,note_on,,,,,120,0,2,,,0,,,52,32
150,note_off,,,,,150,0,1,,,0,,,61,64
180,control_change,,,,,60,0,2,,,0,64,0,,
240,note_on,,,,,0,0,1,,,0,,,61,54
240,note_on,,,,,90,0,1,,,0,,,64,54
240,note_off,,,,,60,0,2,,,0,,,52,64
240,control_change,,,,,0,0,2,,,0,64,127,,
240,note_on,,,,,0,0,2,,,0,,,57,28
360,note_on,,,,,0,0,2,,,0,,,52,24
360,note_off,,,,,120,0,2,,,0,,,57,64
360,set_tempo,,,,,320,1,0,487805,,,,,,
480,note_on,,,,,0,0,2,,,0,,,49,36
480,note_off,,,,,0,0,2,,,0,,,45,64
480,note_off,,,,,120,0,2,,,0,,,52,64
600,note_on,,,,,120,0,2,,,0,,,52,29
600,set_tempo,,,,,240,1,0,480000,,,,,,
720,note_on,,,,,0,0,1,,,0,,,61,42
720,note_off,,,,,0,0,1,,,0,,,64,64
720,note_on,,,,,0,0,1,,,0,,,69,42
720,note_off,,,,,120,0,2,,,0,,,52,64
720,control_change,,,,,0,0,2,,,0,64,0,,
720,note_on,,,,,0,0,2,,,0,,,57,26
720,note_on,,,,,0,0,1,,,0,,,64,42
720,note_off,,,,,480,0,1,,,0,,,61,64
840,note_off,,,,,120,0,2,,,0,,,57,64
840,note_on,,,,,0,0,2,,,0,,,52,22
860,set_tempo,,,,,260,1,0,472441,,,,,,
930,note_off,,,,,210,0,1,,,0,,,61,64
930,note_off,,,,,0,0,1,,,0,,,64,64
930,note_off,,,,,0,0,1,,,0,,,69,64
960,control_change,,,,,0,0,2,,,0,64,127,,
960,note_off,,,,,120,0,2,,,0,,,52,64
960,note_off,,,,,0,0,2,,,0,,,49,64
960,note_on,,,,,0,0,2,,,0,,,47,41
960,note_on,,,,,30,0,1,,,0,,,69,51
960,note_on,,,,,0,0,1,,,0,,,64,51
960,note_on,,,,,0,0,1,,,0,,,62,51
1080,note_on,,,,,120,0,2,,,0,,,52,32
1200,note_off,,,,,120,0,2,,,0,,,52,64
1200,note_off,,,,,240,0,1,,,0,,,69,64
1200,note_on,,,,,0,0,1,,,0,,,68,44
1200,note_on,,,,,0,0,2,,,0,,,56,28
1320,note_off,,,,,120,0,1,,,0,,,68,64
1320,note_off,,,,,0,0,1,,,0,,,62,64
1320,note_off,,,,,0,0,1,,,0,,,64,64
1320,note_off,,,,,120,0,2,,,0,,,56,64
1320,note_on,,,,,0,0,2,,,0,,,52,24
1380,control_change,,,,,60,0,2,,,0,64,0,,
1420,set_tempo,,,,,560,1,0,454545,,,,,,
1440,note_off,,,,,60,0,2,,,0,,,52,64
1440,note_off,,,,,0,0,2,,,0,,,47,64
1440,note_on,,,,,120,0,1,,,0,,,69,36
1440,note_on,,,,,0,0,1,,,0,,,61,36
1440,note_on,,,,,0,0,1,,,0,,,64,36
1440,control_change,,,,,0,0,2,,,0,64,127,,
1440,note_on,,,,,0,0,2,,,0,,,49,36
1560,note_on,,,,,120,0,2,,,0,,,52,29
1680,note_off,,,,,120,0,2,,,0,,,52,64
1680,note_on,,,,,0,0,2,,,0,,,57,26
1800,set_tempo,,,,,380,1,0,444444,,,,,,
1800,note_on,,,,,0,0,2,,,0,,,52,22
1800,note_off,,,,,120,0,2,,,0,,,57,64
1860,control_change,,,,,60,0,2,,,0,64,0,,
1920,note_off,,,,,60,0,2,,,0,,,52,64
1920,note_off,,,,,0,0,2,,,0,,,49,64
1920,control_change,,,,,0,0,2,,,0,64,127,,
1920,note_on,,,,,0,0,2,,,0,,,50,41
1920,note_off,,,,,480,0,1,,,0,,,61,64
1920,note_off,,,,,0,0,1,,,0,,,64,64
1920,note_on,,,,,0,0,1,,,0,,,66,50
1920,note_off,,,,,0,0,1,,,0,,,69,64
1920,note_on,,,,,0,0,1,,,0,,,71,50
1920,note_on,,,,,0,0,1,,,0,,,69,50
2040,note_on,,,,,120,0,2,,,0,,,54,32
2160,note_on,,,,,0,0,2,,,0,,,59,28
2160,note_off,,,,,120,0,2,,,0,,,54,64
2280,note_off,,,,,120,0,2,,,0,,,59,64
2280,note_off,,,,,360,0,1,,,0,,,66,64
2280,note_off,,,,,0,0,1,,,0,,,69,64
2280,note_off,,,,,0,0,1,,,0,,,71,64
2280,note_on,,,,,0,0,1,,,0,,,71,42
2280,note_on,,,,,0,0,1,,,0,,,69,42
2280,note_on,,,,,0,0,1,,,0,,,66,42
2280,control_change,,,,,0,0,2,,,0,64,0,,
2280,note_on,,,,,0,0,2,,,0,,,54,24
2400,note_off,,,,,0,0,1,,,0,,,69,64
2400,note_off,,,,,0,0,2,,,0,,,50,64
2400,note_off,,,,,120,0,2,,,0,,,54,64
2400,note_off,,,,,120,0,1,,,0,,,66,64
2400,control_change,,,,,0,0,2,,,0,64,127,,
2400,note_off,,,,,0,0,1,,,0,,,71,64
2400,note_on,,,,,0,0,2,,,0,,,51,36
2400,note_on,,,,,0,0,1,,,0,,,69,46
2400,note_on,,,,,0,0,1,,,0,,,66,46
2400,note_on,,,,,0,0,1,,,0,,,73,46
2520,note_on,,,,,120,0,2,,,0,,,54,29
2640,note_off,,,,,240,0,1,,,0,,,66,64
2640,note_on,,,,,0,0,1,,,0,,,61,40
2640,note_off,,,,,0,0,1,,,0,,,69,64
2640,note_on,,,,,0,0,2,,,0,,,57,26
2640,note_off,,,,,0,0,1,,,0,,,73,64
2640,note_off,,,,,120,0,2,,,0,,,54,64
2640,note_on,,,,,0,0,1,,,0,,,69,40
2640,note_on,,,,,0,0,1,,,0,,,66,40
2760,note_on,,,,,0,0,2,,,0,,,54,22
2760,note_off,,,,,120,0,2,,,0,,,57,64
2760,control_change,,,,,0,0,2,,,0,64,0,,
2850,note_off,,,,,0,0,1,,,0,,,69,64
2850,note_off,,,,,0,0,1,,,0,,,66,64
2850,note_off,,,,,210,0,1,,,0,,,61,64
2880,note_off,,,,,120,0,2,,,0,,,54,64
2880,note_off,,,,,0,0,2,,,0,,,51,64
2880,note_on,,,,,30,0,1,,,0,,,69,47
2880,note_on,,,,,0,0,1,,,0,,,64,47
2880,control_change,,,,,0,0,2,,,0,64,127,,
2880,note_on,,,,,0,0,1,,,0,,,61,47
2880,note_on,,,,,0,0,2,,,0,,,40,40
2960,set_tempo,,,,,1160,1,0,461538,,,,,,
2970,note_off,,,,,90,0,2,,,0,,,40,64
3000,note_on,,,,,30,0,2,,,0,,,52,26
3040,control_change,,,,,40,0,2,,,0,91,96,,
3060,set_tempo,,,,,100,1,0,476190,,,,,,
3120,note_off,,,,,80,0,2,,,0,,,52,64
3120,note_on,,,,,0,0,2,,,0,,,57,33
3160,set_tempo,,,,,100,1,0,487805,,,,,,
3240,note_off,,,,,120,0,2,,,0,,,57,64
3240,note_on,,,,,0,0,2,,,0,,,61,37
3360,note_off,,,,,120,0,2,,,0,,,61,64
3360,note_on,,,,,0,0,2,,,0,,,59,41
3360,note_off,,,,,0,0,1,,,0,,,69,64
3360,note_off,,,,,0,0,1,,,0,,,64,64
3360,note_off,,,,,480,0,1,,,0,,,61,64
3360,note_on,,,,,0,0,1,,,0,,,68,43
3360,set_tempo,,,,,200,1,0,508475,,,,,,
3480,note_off,,,,,120,0,2,,,0,,,59,64
3480,note_off,,,,,120,0,1,,,0,,,68,64
3480,note_on,,,,,0,0,1,,,0,,,66,43
3480,note_on,,,,,0,0,2,,,0,,,62,38
3500,set_tempo,,,,,140,1,0,526316,,,,,,
3600,note_off,,,,,120,0,2,,,0,,,62,64
3600,note_on,,,,,0,0,2,,,0,,,61,34
3600,note_off,,,,,120,0,1,,,0,,,66,64
3600,note_on,,,,,0,0,1,,,0,,,64,40
3620,set_tempo,,,,,120,1,0,540541,,,,,,
3700,set_tempo,,,,,80,1,0,566038,,,,,,
3720,note_off,,,,,120,0,2,,,0,,,61,64
3720,note_on,,,,,0,0,2,,,0,,,59,28
3720,note_off,,,,,120,0,1,,,0,,,64,64
3720,note_on,,,,,0,0,1,,,0,,,62,36
3780,control_change,,,,,60,0,2,,,0,64,0,,
3800,set_tempo,,,,,100,1,0,594059,,,,,,
3810,note_off,,,,,30,0,2,,,0,,,59,64
3810,note_off,,,,,90,0,1,,,0,,,62,64
3840,note_on,,,,,30,0,1,,,0,,,61,43
3840,control_change,,,,,30,0,2,,,0,64,127,,
3840,note_on,,,,,0,0,2,,,0,,,45,33
3920,set_tempo,,,,,120,1,0,566038,,,,,,
3960,note_on,,,,,120,0,2,,,0,,,52,32
3990,note_off,,,,,150,0,1,,,0,,,61,64
4000,set_tempo,,,,,80,1,0,550459,,,,,,
4020,control_change,,,,,60,0,2,,,0,64,0,,
4080,note_on,,,,,90,0,1,,,0,,,64,41
4080,note_off,,,,,60,0,2,,,0,,,52,64
4080,note_on,,,,,0,0,1,,,0,,,61,41
4080,control_change,,,,,0,0,2,,,0,64,127,,
4080,note_on,,,,,0,0,2,,,0,,,57,28
4120,set_tempo,,,,,120,1,0,526316,,,,,,
4200,note_on,,,,,0,0,2,,,0,,,52,24
4200,note_off,,,,,120,0,2,,,0,,,57,64
4240,set_tempo,,,,,120,1,0,512821,,,,,,
4260,set_tempo,,,,,20,1,0,508475,,,,,,
4320,note_off,,,,,0,0,2,,,0,,,45,64
4320,note_off,,,,,120,0,2,,,0,,,52,64
4320,note_on,,,,,0,0,2,,,0,,,49,36
4440,set_tempo,,,,,180,1,0,495868,,,,,,
4440,note_on,,,,,120,0,2,,,0,,,52,29
4560,note_off,,,,,480,0,1,,,0,,,61,64
4560,note_off,,,,,0,0,1,,,0,,,64,64
4560,note_on,,,,,0,0,1,,,0,,,69,42
4560,note_on,,,,,0,0,1,,,0,,,64,42
4560,note_on,,,,,0,0,1,,,0,,,61,42
4560,note_on,,,,,0,0,2,,,0,,,57,26
4560,control_change,,,,,0,0,2,,,0,64,0,,
4560,note_off,,,,,120,0,2,,,0,,,52,64
4580,set_tempo,,,,,140,1,0,476190,,,,,,
4680,note_on,,,,,0,0,2,,,0,,,52,22
4680,note_off,,,,,120,0,2,,,0,,,57,64
4770,note_off,,,,,0,0,1,,,0,,,69,64
4770,note_off,,,,,0,0,1,,,0,,,64,64
4770,note_off,,,,,210,0,1,,,0,,,61,64
4800,note_off,,,,,0,0,2,,,0,,,49,64
4800,control_change,,,,,0,0,2,,,0,64,127,,
4800,note_on,,,,,0,0,2,,,0,,,47,41
4800,note_on,,,,,30,0,1,,,0,,,69,51
4800,note_on,,,,,0,0,1,,,0,,,64,51
4800,note_on,,,,,0,0,1,,,0,,,62,51
4800,note_off,,,,,120,0,2,,,0,,,52,64
4860,set_tempo,,,,,280,1,0,468750,,,,,,
4920,note_on,,,,,120,0,2,,,0,,,52,32
5040,note_on,,,,,0,0,2,,,0,,,56,28
5040,note_off,,,,,240,0,1,,,0,,,69,64
5040,note_on,,,,,0,0,1,,,0,,,68,44
5040,note_off,,,,,120,0,2,,,0,,,52,64
5160,note_on,,,,,0,0,2,,,0,,,52,24
5160,note_off,,,,,120,0,2,,,0,,,56,64
5160,note_off,,,,,0,0,1,,,0,,,64,64
5160,note_off,,,,,0,0,1,,,0,,,62,64
5160,note_off,,,,,120,0,1,,,0,,,68,64
5220,control_change,,,,,60,0,2,,,0,64,0,,
5280,note_on,,,,,0,0,1,,,0,,,64,36
5280,control_change,,,,,0,0,2,,,0,64,127,,
5280,note_on,,,,,120,0,1,,,0,,,69,36
5280,note_off,,,,,0,0,2,,,0,,,47,64
5280,note_on,,,,,0,0,2,,,0,,,49,36
5280,note_on,,,,,0,0,1,,,0,,,61,36
5280,note_off,,,,,60,0,2,,,0,,,52,64
5400,note_on,,,,,120,0,2,,,0,,,52,29
5460,set_tempo,,,,,600,1,0,483871,,,,,,
5520,note_off,,,,,120,0,2,,,0,,,52,64
5520,note_on,,,,,0,0,2,,,0,,,57,26
5580,set_tempo,,,,,120,1,0,508475,,,,,,
5640,note_on,,,,,0,0,2,,,0,,,52,22
5640,note_off,,,,,120,0,2,,,0,,,57,64
5700,control_change,,,,,60,0,2,,,0,64,0,,
5760,control_change,,,,,0,0,2,,,0,64,127,,
5760,note_on,,,,,0,0,2,,,0,,,50,41
5760,note_on,,,,,0,0,1,,,0,,,69,40
5760,note_off,,,,,0,0,1,,,0,,,64,64
5760,note_off,,,,,480,0,1,,,0,,,61,64
5760,note_off,,,,,60,0,2,,,0,,,52,64
5760,note_on,,,,,0,0,1,,,0,,,71,40
5760,note_off,,,,,0,0,2,,,0,,,49,64
5760,note_on,,,,,0,0,1,,,0,,,66,40
5760,note_off,,,,,0,0,1,,,0,,,69,64
5840,set_tempo,,,,,260,1,0,491803,,,,,,
5880,note_on,,,,,120,0,2,,,0,,,54,32
6000,note_off,,,,,0,0,1,,,0,,,69,64
6000,note_off,,,,,240,0,1,,,0,,,66,64
6000,note_on,,,,,0,0,1,,,0,,,73,41
6000,note_on,,,,,0,0,1,,,0,,,69,41
6000,note_on,,,,,0,0,1,,,0,,,64,41
6000,set_tempo,,,,,160,1,0,468750,,,,,,
6000,note_on,,,,,0,0,2,,,0,,,57,28
6000,note_on,,,,,0,0,2,,,0,,,49,26
6000,note_off,,,,,0,0,2,,,0,,,50,64
6000,note_off,,,,,120,0,2,,,0,,,54,64
6000,note_off,,,,,0,0,1,,,0,,,71,64
6090,note_off,,,,,90,0,2,,,0,,,57,64
6120,set_tempo,,,,,120,1,0,458015,,,,,,
6120,note_on,,,,,0,0,1,,,0,,,69,34
6120,note_off,,,,,30,0,2,,,0,,,49,64
6120,note_on,,,,,0,0,2,,,0,,,47,26
6120,note_on,,,,,0,0,2,,,0,,,57,24
6120,control_change,,,,,0,0,2,,,0,64,0,,
6120,note_off,,,,,120,0,1,,,0,,,64,64
6120,note_off,,,,,0,0,1,,,0,,,73,64
6120,note_on,,,,,0,0,1,,,0,,,74,34
6120,note_on,,,,,0,0,1,,,0,,,62,34
6120,note_off,,,,,0,0,1,,,0,,,69,64
6240,note_off,,,,,0,0,2,,,0,,,47,64
6240,note_on,,,,,0,0,2,,,0,,,49,36
6240,set_tempo,,,,,120,1,0,444444,,,,,,
6240,note_off,,,,,120,0,1,,,0,,,62,64
6240,note_off,,,,,0,0,1,,,0,,,69,64
6240,note_off,,,,,0,0,1,,,0,,,74,64
6240,note_off,,,,,120,0,2,,,0,,,57,64
6240,note_on,,,,,0,0,1,,,0,,,73,37
6240,note_on,,,,,0,0,1,,,0,,,69,37
6240,note_on,,,,,0,0,1,,,0,,,64,37
6240,control_change,,,,,0,0,2,,,0,64,127,,
6360,note_on,,,,,120,0,2,,,0,,,57,29
6440,set_tempo,,,,,200,1,0,437956,,,,,,
6450,note_off,,,,,0,0,1,,,0,,,73,64
6450,note_off,,,,,210,0,1,,,0,,,64,64
6450,note_off,,,,,0,0,1,,,0,,,69,64
6480,note_on,,,,,30,0,1,,,0,,,71,45
6480,note_on,,,,,0,0,1,,,0,,,64,45
6480,note_on,,,,,0,0,1,,,0,,,62,45
6480,note_on,,,,,0,0,2,,,0,,,52,36
6480,note_off,,,,,0,0,2,,,0,,,49,64
6480,note_off,,,,,120,0,2,,,0,,,57,64
6600,control_change,,,,,0,0,2,,,0,64,0,,
6600,note_on,,,,,120,0,2,,,0,,,56,33
6690,note_off,,,,,0,0,1,,,0,,,64,64
6690,note_off,,,,,0,0,1,,,0,,,71,64
6690,note_off,,,,,210,0,1,,,0,,,62,64
6720,note_off,,,,,0,0,2,,,0,,,52,64
6720,control_change,,,,,0,0,2,,,0,64,127,,
6720,note_on,,,,,0,0,2,,,0,,,45,45
6720,note_on,,,,,0,0,1,,,0,,,62,56
6720,note_on,,,,,0,0,1,,,0,,,64,56
6720,note_on,,,,,30,0,1,,,0,,,71,56
6720,note_off,,,,,120,0,2,,,0,,,56,64
6740,set_tempo,,,,,300,1,0,461538,,,,,,
6820,set_tempo,,,,,80,1,0,483871,,,,,,
6840,note_on,,,,,120,0,2,,,0,,,52,40
6880,control_change,,,,,40,0,2,,,0,91,96,,
6900,set_tempo,,,,,80,1,0,508475,,,,,,
6960,note_off,,,,,80,0,2,,,0,,,52,64
6960,note_on,,,,,0,0,2,,,0,,,56,38
6980,set_tempo,,,,,80,1,0,521739,,,,,,
7060,set_tempo,,,,,80,1,0,540541,,,,,,
7080,note_off,,,,,120,0,2,,,0,,,56,64
7080,note_on,,,,,0,0,2,,,0,,,52,34
7140,control_change,,,,,60,0,2,,,0,64,0,,
7140,set_tempo,,,,,80,1,0,550459,,,,,,
7200,note_off,,,,,60,0,2,,,0,,,52,64
7200,control_change,,,,,0,0,2,,,0,64,127,,
7200,note_on,,,,,0,0,2,,,0,,,57,32
7200,note_off,,,,,480,0,1,,,0,,,62,64
7200,note_off,,,,,0,0,1,,,0,,,64,64
7200,note_off,,,,,0,0,1,,,0,,,71,64
7200,note_on,,,,,0,0,1,,,0,,,69,44
7290,note_off,,,,,90,0,2,,,0,,,57,64
7290,note_off,,,,,0,0,2,,,0,,,45,64
7290,note_off,,,,,90,0,1,,,0,,,69,64
7320,note_on,,,,,30,0,2,,,0,,,59,40
7320,note_on,,,,,30,0,1,,,0,,,71,38
7360,set_tempo,,,,,220,1,0,530973,,,,,,
7410,note_off,,,,,90,0,1,,,0,,,71,64
7410,note_off,,,,,90,0,2,,,0,,,59,64
7440,note_on,,,,,30,0,2,,,0,,,61,50
7440,set_tempo,,,,,80,1,0,508475,,,,,,
7440,note_on,,,,,30,0,1,,,0,,,73,46
7500,set_tempo,,,,,60,1,0,487805,,,,,,
7530,note_off,,,,,90,0,2,,,0,,,61,64
7530,note_off,,,,,90,0,1,,,0,,,73,64
7560,note_on,,,,,30,0,2,,,0,,,62,54
7560,note_on,,,,,30,0,1,,,0,,,74,55
7580,set_tempo,,,,,80,1,0,468750,,,,,,
7620,control_change,,,,,60,0,2,,,0,64,0,,
7650,note_off,,,,,30,0,2,,,0,,,62,64
7650,note_off,,,,,90,0,1,,,0,,,74,64
7660,set_tempo,,,,,80,1,0,454545,,,,,,
7680,note_on,,,,,30,0,1,,,0,,,76,62
7680,note_on,,,,,30,0,2,,,0,,,49,49
7680,note_on,,,,,0,0,1,,,0,,,64,62
7800,note_on,,,,,120,0,2,,,0,,,52,32
7920,note_on,,,,,0,0,2,,,0,,,57,28
7920,note_off,,,,,120,0,2,,,0,,,52,64
8020,set_tempo,,,,,360,1,0,444444,,,,,,
8040,note_on,,,,,0,0,1,,,0,,,64,54
8040,note_on,,,,,0,0,1,,,0,,,76,54
8040,note_off,,,,,360,0,1,,,0,,,64,64
8040,note_off,,,,,0,0,1,,,0,,,76,64
8040,note_off,,,,,120,0,2,,,0,,,57,64
8040,note_on,,,,,0,0,2,,,0,,,52,37
8160,note_on,,,,,0,0,1,,,0,,,66,65
8160,note_on,,,,,0,0,1,,,0,,,78,65
8160,note_off,,,,,0,0,1,,,0,,,76,64
8160,note_off,,,,,120,0,1,,,0,,,64,64
8160,note_off,,,,,120,0,2,,,0,,,52,64
8160,control_change,,,,,0,0,2,,,0,64,127,,
8160,note_on,,,,,0,0,2,,,0,,,46,57
8160,note_off,,,,,0,0,2,,,0,,,49,64
8280,note_on,,,,,120,0,2,,,0,,,54,49
8320,set_tempo,,,,,300,1,0,437956,,,,,,
8400,note_on,,,,,0,0,2,,,0,,,61,41
8400,note_off,,,,,120,0,2,,,0,,,54,64
8520,note_on,,,,,0,0,2,,,0,,,54,36
8520,note_off,,,,,120,0,2,,,0,,,61,64
8580,control_change,,,,,60,0,2,,,0,64,0,,
8600,set_tempo,,,,,280,1,0,425532,,,,,,
8640,note_off,,,,,60,0,2,,,0,,,54,64
8640,note_off,,,,,0,0,2,,,0,,,46,64
8640,note_on,,,,,0,0,2,,,0,,,47,42
8640,note_off,,,,,480,0,1,,,0,,,66,64
8640,note_on,,,,,0,0,1,,,0,,,64,65
8640,note_off,,,,,0,0,1,,,0,,,78,64
8640,note_on,,,,,0,0,1,,,0,,,76,65
8760,note_on,,,,,120,0,2,,,0,,,54,36
8820,set_tempo,,,,,220,1,0,441176,,,,,,
8880,note_off,,,,,120,0,2,,,0,,,54,64
8880,note_on,,,,,0,0,2,,,0,,,59,33
8880,note_off,,,,,0,0,1,,,0,,,76,64
8880,note_off,,,,,240,0,1,,,0,,,64,64
8880,note_on,,,,,0,0,1,,,0,,,63,47
8880,note_on,,,,,0,0,1,,,0,,,75,47
9000,note_on,,,,,0,0,2,,,0,,,54,29
9000,note_off,,,,,120,0,2,,,0,,,59,64
9000,note_off,,,,,0,0,1,,,0,,,75,64
9000,note_off,,,,,120,0,1,,,0,,,63,64
9020,set_tempo,,,,,200,1,0,454545,,,,,,
9120,note_on,,,,,0,0,1,,,0,,,59,47
9120,note_on,,,,,120,0,1,,,0,,,71,47
9120,note_on,,,,,0,0,2,,,0,,,47,44
9120,note_off,,,,,0,0,2,,,0,,,47,64
9120,note_off,,,,,120,0,2,,,0,,,54,64
9240,note_on,,,,,120,0,2,,,0,,,54,39
9320,set_tempo,,,,,300,1,0,461538,,,,,,
9340,set_tempo,,,,,20,1,0,465116,,,,,,
9360,note_off,,,,,120,0,2,,,0,,,54,64
9360,note_on,,,,,0,0,2,,,0,,,59,37
9480,note_on,,,,,0,0,2,,,0,,,54,32
9480,note_off,,,,,120,0,2,,,0,,,59,64
9480,note_off,,,,,360,0,1,,,0,,,59,64
9480,note_off,,,,,0,0,1,,,0,,,71,64
9480,note_on,,,,,0,0,1,,,0,,,73,42
9480,note_on,,,,,0,0,1,,,0,,,61,42
9600,note_on,,,,,0,0,1,,,0,,,74,60
9600,note_on,,,,,0,0,1,,,0,,,62,60
9600,note_off,,,,,0,0,2,,,0,,,47,64
9600,note_on,,,,,0,0,2,,,0,,,42,42
9600,note_off,,,,,120,0,1,,,0,,,61,64
9600,note_off,,,,,120,0,2,,,0,,,54,64
9600,note_off,,,,,0,0,1,,,0,,,73,64
9720,note_on,,,,,120,0,2,,,0,,,54,36
9840,note_off,,,,,120,0,2,,,0,,,54,64
9840,note_on,,,,,0,0,2,,,0,,,57,45
9920,set_tempo,,,,,580,1,0,441176,,,,,,
9960,note_off,,,,,0,0,1,,,0,,,74,64
9960,note_off,,,,,360,0,1,,,0,,,62,64
9960,note_off,,,,,120,0,2,,,0,,,57,64
9960,note_on,,,,,0,0,1,,,0,,,74,48
9960,note_on,,,,,0,0,2,,,0,,,54,54
9960,note_on,,,,,0,0,1,,,0,,,62,48
10080,control_change,,,,,0,0,2,,,0,64,127,,
10080,note_off,,,,,0,0,2,,,0,,,42,64
10080,note_off,,,,,0,0,1,,,0,,,74,64
10080,note_on,,,,,0,0,1,,,0,,,76,71
10080,note_on,,,,,0,0,1,,,0,,,64,71
10080,note_on,,,,,0,0,2,,,0,,,44,57
10080,note_off,,,,,120,0,2,,,0,,,54,64
10080,note_off,,,,,120,0,1,,,0,,,62,64
10200,note_on,,,,,120,0,2,,,0,,,52,51
10240,set_tempo,,,,,320,1,0,428571,,,,,,
10320,note_off,,,,,120,0,2,,,0,,,52,64
10320,note_on,,,,,0,0,2,,,0,,,59,47
10440,note_off,,,,,120,0,2,,,0,,,59,64
10440,note_on,,,,,0,0,2,,,0,,,52,42
10500,control_change,,,,,60,0,2,,,0,64,0,,
10560,note_on,,,,,0,0,2,,,0,,,49,43
10560,note_off,,,,,480,0,1,,,0,,,64,64
10560,note_off,,,,,0,0,1,,,0,,,76,64
10560,note_on,,,,,0,0,1,,,0,,,69,64
10560,note_off,,,,,0,0,2,,,0,,,44,64
10560,note_off,,,,,60,0,2,,,0,,,52,64
10680,note_off,,,,,120,0,1,,,0,,,69,64
10680,note_on,,,,,0,0,1,,,0,,,71,57
10680,note_on,,,,,120,0,2,,,0,,,52,40
10720,note_off,,,,,40,0,1,,,0,,,71,64
10720,note_on,,,,,0,0,1,,,0,,,69,52
10760,set_tempo,,,,,520,1,0,441176,,,,,,
10760,note_on,,,,,0,0,1,,,0,,,68,45
10760,note_off,,,,,40,0,1,,,0,,,69,64
10800,note_off,,,,,40,0,1,,,0,,,68,64
10800,note_on,,,,,0,0,2,,,0,,,57,38
10800,note_on,,,,,0,0,1,,,0,,,69,56
10800,note_off,,,,,120,0,2,,,0,,,52,64
10900,set_tempo,,,,,140,1,0,454545,,,,,,
10920,note_off,,,,,120,0,2,,,0,,,57,64
10920,note_on,,,,,0,0,2,,,0,,,52,35
10920,set_tempo,,,,,20,1,0,458015,,,,,,
10920,note_on,,,,,0,0,1,,,0,,,71,50
10920,note_off,,,,,120,0,1,,,0,,,69,64
11040,note_on,,,,,0,0,1,,,0,,,69,42
11040,note_on,,,,,0,0,1,,,0,,,73,42
11040,note_off,,,,,120,0,1,,,0,,,71,64
11040,note_on,,,,,0,0,1,,,0,,,64,42
11040,note_on,,,,,0,0,2,,,0,,,45,42
11040,note_off,,,,,0,0,2,,,0,,,49,64
11040,note_off,,,,,120,0,2,,,0,,,52,64
11060,set_tempo,,,,,140,1,0,472441,,,,,,
11160,note_on,,,,,120,0,2,,,0,,,52,34
11200,set_tempo,,,,,140,1,0,483871,,,,,,
11280,note_off,,,,,120,0,2,,,0,,,52,64
11280,note_on,,,,,0,0,2,,,0,,,61,30
11380,set_tempo,,,,,180,1,0,504202,,,,,,
11400,note_off,,,,,120,0,2,,,0,,,61,64
11400,note_on,,,,,0,0,2,,,0,,,52,27
11520,note_off,,,,,0,0,1,,,0,,,73,64
11520,note_on,,,,,0,0,1,,,0,,,69,43
11520,note_on,,,,,0,0,1,,,0,,,66,43
11520,note_off,,,,,480,0,1,,,0,,,64,64
11520,note_on,,,,,0,0,1,,,0,,,71,43
11520,note_off,,,,,0,0,1,,,0,,,69,64
11520,note_off,,,,,120,0,2,,,0,,,52,64
11520,note_on,,,,,0,0,2,,,0,,,50,36
11520,control_change,,,,,0,0,2,,,0,64,127,,
11520,note_off,,,,,0,0,2,,,0,,,45,64
11620,set_tempo,,,,,240,1,0,476190,,,,,,
11640,note_on,,,,,120,0,2,,,0,,,54,29
11700,control_change,,,,,60,0,2,,,0,64,0,,
11722,note_off,,,,,202,0,1,,,0,,,66,64
11722,note_off,,,,,0,0,1,,,0,,,71,64
11722,note_off,,,,,0,0,1,,,0,,,69,64
11760,note_off,,,,,60,0,2,,,0,,,54,64
11760,control_change,,,,,0,0,2,,,0,64,127,,
11760,note_on,,,,,0,0,2,,,0,,,59,25
11760,set_tempo,,,,,140,1,0,465116,,,,,,
11760,note_on,,,,,0,0,1,,,0,,,66,38
11760,note_on,,,,,0,0,1,,,0,,,69,38
11760,note_on,,,,,38,0,1,,,0,,,71,38
11880,note_off,,,,,120,0,2,,,0,,,59,64
11880,note_on,,,,,0,0,2,,,0,,,54,21
11940,control_change,,,,,60,0,2,,,0,64,0,,
11940,note_off,,,,,0,0,1,,,0,,,71,64
11940,note_off,,,,,0,0,1,,,0,,,69,64
11940,note_off,,,,,180,0,1,,,0,,,66,64
11940,set_tempo,,,,,180,1,0,451128,,,,,,
12000,note_on,,,,,0,0,2,,,0,,,52,37
12000,note_on,,,,,60,0,1,,,0,,,71,43
12000,note_on,,,,,0,0,1,,,0,,,64,43
12000,note_off,,,,,0,0,2,,,0,,,50,64
12000,note_off,,,,,60,0,2,,,0,,,54,64
12000,control_change,,,,,0,0,2,,,0,64,127,,
12000,note_on,,,,,0,0,1,,,0,,,68,43
12080,set_tempo,,,,,140,1,0,441176,,,,,,
12120,note_on,,,,,120,0,2,,,0,,,56,27
12180,note_off,,,,,0,0,1,,,0,,,68,64
12180,note_off,,,,,180,0,1,,,0,,,64,64
12180,note_off,,,,,0,0,1,,,0,,,71,64
12200,set_tempo,,,,,120,1,0,428571,,,,,,
12220,set_tempo,,,,,20,1,0,425532,,,,,,
12240,note_off,,,,,120,0,2,,,0,,,56,64
12240,note_on,,,,,0,0,2,,,0,,,59,33
12240,note_on,,,,,0,0,1,,,0,,,68,35
12240,note_on,,,,,0,0,1,,,0,,,64,35
12240,note_on,,,,,60,0,1,,,0,,,74,35
12360,note_on,,,,,0,0,2,,,0,,,56,39
12360,note_off,,,,,120,0,2,,,0,,,59,64
12420,control_change,,,,,60,0,2,,,0,64,0,,
12420,note_off,,,,,180,0,1,,,0,,,74,64
12420,note_on,,,,,0,0,1,,,0,,,73,41
12460,note_off,,,,,40,0,1,,,0,,,73,64
12480,note_off,,,,,20,0,1,,,0,,,64,64
12480,note_on,,,,,0,0,2,,,0,,,45,43
12480,note_on,,,,,0,0,1,,,0,,,73,46
12480,note_off,,,,,0,0,2,,,0,,,52,64
12480,control_change,,,,,0,0,2,,,0,64,127,,
12480,note_off,,,,,0,0,1,,,0,,,68,64
12480,note_on,,,,,0,0,1,,,0,,,64,46
12480,note_on,,,,,0,0,1,,,0,,,69,46
12480,note_off,,,,,60,0,2,,,0,,,56,64
12560,set_tempo,,,,,340,1,0,431655,,,,,,
12600,note_on,,,,,120,0,2,,,0,,,52,36
12720,note_off,,,,,120,0,2,,,0,,,52,64
12720,note_on,,,,,0,0,2,,,0,,,61,31
12780,set_tempo,,,,,220,1,0,441176,,,,,,
12840,note_off,,,,,120,0,2,,,0,,,61,64
12840,note_on,,,,,0,0,2,,,0,,,52,27
12900,control_change,,,,,60,0,2,,,0,64,0,,
12900,set_tempo,,,,,120,1,0,451128,,,,,,
12960,note_on,,,,,0,0,1,,,0,,,76,52
12960,note_on,,,,,0,0,1,,,0,,,64,52
12960,note_off,,,,,0,0,1,,,0,,,73,64
12960,note_on,,,,,0,0,1,,,0,,,69,52
12960,note_off,,,,,480,0,1,,,0,,,64,64
12960,control_change,,,,,0,0,2,,,0,64,127,,
12960,note_on,,,,,0,0,2,,,0,,,49,46
12960,note_off,,,,,0,0,2,,,0,,,45,64
12960,note_off,,,,,60,0,2,,,0,,,52,64
12960,note_off,,,,,0,0,1,,,0,,,69,64
13080,note_on,,,,,120,0,2,,,0,,,52,41
13120,set_tempo,,,,,220,1,0,458015,,,,,,
13200,note_off,,,,,120,0,2,,,0,,,52,64
13200,note_on,,,,,0,0,2,,,0,,,57,36
13290,note_off,,,,,330,0,1,,,0,,,76,64
13320,note_on,,,,,30,0,1,,,0,,,74,42
13320,note_off,,,,,120,0,2,,,0,,,57,64
13320,control_change,,,,,0,0,2,,,0,64,0,,
13320,note_on,,,,,0,0,2,,,0,,,52,32
13360,set_tempo,,,,,240,1,0,465116,,,,,,
13380,note_off,,,,,60,0,1,,,0,,,74,64
13380,note_on,,,,,0,0,1,,,0,,,73,39
13440,note_off,,,,,0,0,2,,,0,,,49,64
13440,note_on,,,,,0,0,2,,,0,,,50,36
13440,note_on,,,,,0,0,1,,,0,,,66,43
13440,note_on,,,,,0,0,1,,,0,,,69,43
13440,note_on,,,,,0,0,1,,,0,,,71,43
13440,note_off,,,,,0,0,1,,,0,,,69,64
13440,note_off,,,,,0,0,1,,,0,,,64,64
13440,note_off,,,,,60,0,1,,,0,,,73,64
13440,control_change,,,,,0,0,2,,,0,64,127,,
13440,note_off,,,,,120,0,2,,,0,,,52,64
13560,note_on,,,,,120,0,2,,,0,,,54,29
13580,set_tempo,,,,,220,1,0,454545,,,,,,
13600,set_tempo,,,,,20,1,0,451128,,,,,,
13620,control_change,,,,,60,0,2,,,0,64,0,,
13642,note_off,,,,,0,0,1,,,0,,,71,64
13642,note_off,,,,,0,0,1,,,0,,,69,64
13642,note_off,,,,,202,0,1,,,0,,,66,64
13680,note_on,,,,,0,0,1,,,0,,,66,38
13680,note_on,,,,,0,0,1,,,0,,,69,38
13680,note_on,,,,,38,0,1,,,0,,,71,38
13680,note_off,,,,,60,0,2,,,0,,,54,64
13680,control_change,,,,,0,0,2,,,0,64,127,,
13680,set_tempo,,,,,80,1,0,441176,,,,,,
13680,note_on,,,,,0,0,2,,,0,,,59,25
13800,note_off,,,,,120,0,2,,,0,,,59,64
13800,note_on,,,,,0,0,2,,,0,,,54,21
13840,set_tempo,,,,,160,1,0,444444,,,,,,
13860,note_off,,,,,0,0,1,,,0,,,71,64
13860,note_off,,,,,0,0,1,,,0,,,69,64
13860,set_tempo,,,,,20,1,0,454545,,,,,,
13860,control_change,,,,,60,0,2,,,0,64,0,,
13860,note_off,,,,,180,0,1,,,0,,,66,64
13920,note_off,,,,,60,0,2,,,0,,,54,64
13920,note_off,,,,,0,0,2,,,0,,,50,64
13920,note_on,,,,,0,0,2,,,0,,,52,37
13920,note_on,,,,,0,0,1,,,0,,,64,43
13920,note_on,,,,,0,0,1,,,0,,,68,43
13920,note_on,,,,,60,0,1,,,0,,,71,43
13920,control_change,,,,,0,0,2,,,0,64,127,,
14040,note_on,,,,,120,0,2,,,0,,,56,27
14100,note_off,,,,,0,0,1,,,0,,,71,64
14100,note_off,,,,,0,0,1,,,0,,,68,64
14100,note_off,,,,,180,0,1,,,0,,,64,64
14160,note_off,,,,,120,0,2,,,0,,,56,64
14160,note_on,,,,,0,0,2,,,0,,,59,33
14160,note_on,,,,,0,0,1,,,0,,,64,35
14160,note_on,,,,,0,0,1,,,0,,,68,35
14160,note_on,,,,,60,0,1,,,0,,,74,35
14280,note_off,,,,,120,0,2,,,0,,,59,64
14280,note_on,,,,,0,0,2,,,0,,,56,39
14340,note_on,,,,,0,0,1,,,0,,,73,41
14340,note_off,,,,,180,0,1,,,0,,,74,64
14340,control_change,,,,,60,0,2,,,0,64,0,,
14380,note_off,,,,,40,0,1,,,0,,,73,64
14400,note_on,,,,,0,0,1,,,0,,,69,46
14400,note_off,,,,,20,0,1,,,0,,,64,64
14400,note_off,,,,,0,0,1,,,0,,,68,64
14400,note_on,,,,,0,0,2,,,0,,,45,43
14400,note_on,,,,,0,0,1,,,0,,,61,46
14400,control_change,,,,,0,0,2,,,0,64,127,,
14400,note_off,,,,,0,0,2,,,0,,,52,64
14400,note_off,,,,,60,0,2,,,0,,,56,64
14420,set_tempo,,,,,560,1,0,465116,,,,,,
14520,note_on,,,,,120,0,2,,,0,,,52,36
14560,set_tempo,,,,,140,1,0,483871,,,,,,
14640,note_off,,,,,120,0,2,,,0,,,52,64
14640,note_on,,,,,0,0,2,,,0,,,57,31
14700,set_tempo,,,,,140,1,0,504202,,,,,,
14760,note_on,,,,,0,0,1,,,0,,,68,34
14760,note_off,,,,,0,0,1,,,0,,,69,64
14760,note_off,,,,,360,0,1,,,0,,,61,64
14760,note_off,,,,,0,0,2,,,0,,,45,64
14760,note_off,,,,,120,0,2,,,0,,,57,64
14780,set_tempo,,,,,80,1,0,540541,,,,,,
14850,note_off,,,,,90,0,1,,,0,,,68,64
14860,set_tempo,,,,,80,1,0,576923,,,,,,
14880,note_on,,,,,30,0,1,,,0,,,69,37
14910,control_change,,,,,150,0,2,,,0,64,0,,
14970,note_off,,,,,90,0,1,,,0,,,69,64
14980,set_tempo,,,,,120,1,0,545455,,,,,,
15000,note_on,,,,,0,0,1,,,0,,,59,46
15000,note_on,,,,,30,0,1,,,0,,,71,46
15090,note_off,,,,,90,0,1,,,0,,,59,64
15090,note_off,,,,,0,0,1,,,0,,,71,64
15120,note_on,,,,,30,0,1,,,0,,,73,52
15120,note_on,,,,,0,0,1,,,0,,,61,52
15140,set_tempo,,,,,160,1,0,535714,,,,,,
15160,set_tempo,,,,,20,1,0,526316,,,,,,
15210,note_off,,,,,90,0,1,,,0,,,61,64
15210,note_off,,,,,0,0,1,,,0,,,73,64
15240,note_on,,,,,30,0,1,,,0,,,74,60
15240,note_on,,,,,0,0,1,,,0,,,62,60
15330,note_off,,,,,0,0,1,,,0,,,74,64
15330,note_off,,,,,90,0,1,,,0,,,62,64
15360,note_on,,,,,0,0,1,,,0,,,64,62
15360,note_on,,,,,30,0,1,,,0,,,76,62
15360,note_on,,,,,450,0,2,,,0,,,49,49
15360,set_tempo,,,,,200,1,0,500000,,,,,,
15480,note_on,,,,,120,0,2,,,0,,,52,32
15480,set_tempo,,,,,120,1,0,476190,,,,,,
15600,note_off,,,,,120,0,2,,,0,,,52,64
15600,note_on,,,,,0,0,2,,,0,,,57,28
15640,set_tempo,,,,,160,1,0,454545,,,,,,
15720,note_on,,,,,0,0,1,,,0,,,64,54
15720,note_off,,,,,360,0,1,,,0,,,64,64
15720,note_off,,,,,120,0,2,,,0,,,57,64
15720,note_on,,,,,0,0,2,,,0,,,52,37
15720,note_on,,,,,0,0,1,,,0,,,76,54
15720,note_off,,,,,0,0,1,,,0,,,76,64
15800,set_tempo,,,,,160,1,0,447761,,,,,,
15840,note_off,,,,,120,0,1,,,0,,,64,64
15840,note_off,,,,,0,0,2,,,0,,,49,64
15840,note_off,,,,,120,0,2,,,0,,,52,64
15840,control_change,,,,,0,0,2,,,0,64,127,,
15840,note_off,,,,,0,0,1,,,0,,,76,64
15840,note_on,,,,,0,0,1,,,0,,,78,67
15840,note_on,,,,,0,0,2,,,0,,,46,57
15840,note_on,,,,,0,0,1,,,0,,,66,67
15960,note_on,,,,,120,0,2,,,0,,,54,49
15980,set_tempo,,,,,180,1,0,444444,,,,,,
16080,note_on,,,,,0,0,2,,,0,,,61,41
16080,note_off,,,,,120,0,2,,,0,,,54,64
16080,set_tempo,,,,,100,1,0,428571,,,,,,
16180,set_tempo,,,,,100,1,0,413793,,,,,,
16200,note_on,,,,,0,0,2,,,0,,,54,36
16200,note_off,,,,,120,0,2,,,0,,,61,64
16260,control_change,,,,,60,0,2,,,0,64,0,,
16320,note_off,,,,,480,0,1,,,0,,,66,64
16320,note_off,,,,,0,0,1,,,0,,,78,64
16320,note_on,,,,,0,0,1,,,0,,,76,65
16320,note_on,,,,,0,0,1,,,0,,,64,65
16320,note_off,,,,,60,0,2,,,0,,,54,64
16320,note_off,,,,,0,0,2,,,0,,,46,64
16320,note_on,,,,,0,0,2,,,0,,,47,42
16380,set_tempo,,,,,200,1,0,428571,,,,,,
16400,set_tempo,,,,,20,1,0,431655,,,,,,
16440,note_on,,,,,120,0,2,,,0,,,54,36
16560,note_off,,,,,120,0,2,,,0,,,54,64
16560,set_tempo,,,,,160,1,0,451128,,,,,,
16560,note_on,,,,,0,0,1,,,0,,,63,47
16560,note_on,,,,,0,0,1,,,0,,,75,47
16560,note_off,,,,,0,0,1,,,0,,,76,64
16560,note_on,,,,,0,0,2,,,0,,,59,33
16560,note_off,,,,,240,0,1,,,0,,,64,64
16680,note_on,,,,,0,0,2,,,0,,,54,29
16680,note_off,,,,,120,0,2,,,0,,,59,64
16680,note_off,,,,,0,0,1,,,0,,,75,64
16680,note_off,,,,,120,0,1,,,0,,,63,64
16800,note_on,,,,,120,0,1,,,0,,,71,47
16800,note_on,,,,,0,0,1,,,0,,,59,47
16800,note_off,,,,,120,0,2,,,0,,,54,64
16800,note_off,,,,,0,0,2,,,0,,,47,64
16800,note_on,,,,,0,0,2,,,0,,,47,44
16920,note_on,,,,,120,0,2,,,0,,,54,39
16940,set_tempo,,,,,380,1,0,447761,,,,,,
17040,note_off,,,,,120,0,2,,,0,,,54,64
17040,note_on,,,,,0,0,2,,,0,,,59,37
17160,note_on,,,,,0,0,2,,,0,,,54,32
17160,note_off,,,,,120,0,2,,,0,,,59,64
17160,note_on,,,,,0,0,1,,,0,,,73,42
17160,note_off,,,,,0,0,1,,,0,,,71,64
17160,note_on,,,,,0,0,1,,,0,,,61,42
17160,note_off,,,,,360,0,1,,,0,,,59,64
17160,set_tempo,,,,,220,1,0,444444,,,,,,
17280,note_on,,,,,0,0,1,,,0,,,62,60
17280,note_off,,,,,0,0,1,,,0,,,73,64
17280,note_off,,,,,120,0,2,,,0,,,54,64
17280,note_on,,,,,0,0,1,,,0,,,74,60
17280,note_off,,,,,120,0,1,,,0,,,61,64
17280,note_off,,,,,0,0,2,,,0,,,47,64
17280,note_on,,,,,0,0,2,,,0,,,42,42
17320,set_tempo,,,,,160,1,0,441176,,,,,,
17400,note_on,,,,,120,0,2,,,0,,,54,36
17520,note_off,,,,,120,0,2,,,0,,,54,64
17520,note_on,,,,,0,0,2,,,0,,,57,45
17640,note_off,,,,,120,0,2,,,0,,,57,64
17640,note_on,,,,,0,0,2,,,0,,,54,54
17640,note_off,,,,,360,0,1,,,0,,,62,64
17640,note_on,,,,,0,0,1,,,0,,,62,48
17640,note_on,,,,,0,0,1,,,0,,,74,48
17640,note_off,,,,,0,0,1,,,0,,,74,64
17680,set_tempo,,,,,360,1,0,434783,,,,,,
17760,control_change,,,,,0,0,2,,,0,64,127,,
17760,note_on,,,,,0,0,2,,,0,,,44,57
17760,note_off,,,,,0,0,2,,,0,,,42,64
17760,note_on,,,,,0,0,1,,,0,,,64,71
17760,note_off,,,,,120,0,2,,,0,,,54,64
17760,note_on,,,,,0,0,1,,,0,,,76,71
17760,note_off,,,,,0,0,1,,,0,,,74,64
17760,note_off,,,,,120,0,1,,,0,,,62,64
17880,note_on,,,,,120,0,2,,,0,,,52,51
18000,note_on,,,,,0,0,2,,,0,,,59,47
18000,note_off,,,,,120,0,2,,,0,,,52,64
18120,note_off,,,,,120,0,2,,,0,,,59,64
18120,note_on,,,,,0,0,2,,,0,,,52,42
18180,control_change,,,,,60,0,2,,,0,64,0,,
18240,set_tempo,,,,,560,1,0,422535,,,,,,
18240,note_off,,,,,480,0,1,,,0,,,64,64
18240,note_on,,,,,0,0,1,,,0,,,69,64
18240,note_on,,,,,0,0,2,,,0,,,49,43
18240,note_off,,,,,0,0,1,,,0,,,76,64
18240,note_off,,,,,0,0,2,,,0,,,44,64
18240,note_off,,,,,60,0,2,,,0,,,52,64
18360,note_on,,,,,0,0,1,,,0,,,71,59
18360,note_off,,,,,120,0,1,,,0,,,69,64
18360,note_on,,,,,120,0,2,,,0,,,52,40
18400,note_off,,,,,40,0,1,,,0,,,71,64
18400,note_on,,,,,0,0,1,,,0,,,69,51
18420,set_tempo,,,,,180,1,0,437956,,,,,,
18440,note_on,,,,,0,0,1,,,0,,,68,44
18440,note_off,,,,,40,0,1,,,0,,,69,64
18480,note_off,,,,,40,0,1,,,0,,,68,64
18480,note_on,,,,,0,0,1,,,0,,,69,56
18480,note_off,,,,,120,0,2,,,0,,,52,64
18480,note_on,,,,,0,0,2,,,0,,,57,38
18540,set_tempo,,,,,120,1,0,461538,,,,,,
18600,note_on,,,,,0,0,1,,,0,,,71,50
18600,note_off,,,,,120,0,1,,,0,,,69,64
18600,note_on,,,,,0,0,2,,,0,,,52,35
18600,note_off,,,,,120,0,2,,,0,,,57,64
18720,note_off,,,,,0,0,2,,,0,,,49,64
18720,note_off,,,,,120,0,1,,,0,,,71,64
18720,set_tempo,,,,,180,1,0,468750,,,,,,
18720,note_off,,,,,120,0,2,,,0,,,52,64
18720,note_on,,,,,0,0,1,,,0,,,64,42
18720,note_on,,,,,0,0,1,,,0,,,73,42
18720,note_on,,,,,0,0,2,,,0,,,45,42
18720,note_on,,,,,0,0,1,,,0,,,69,42
18840,note_on,,,,,120,0,2,,,0,,,52,34
18860,set_tempo,,,,,140,1,0,480000,,,,,,
18960,note_on,,,,,0,0,2,,,0,,,61,30
18960,note_off,,,,,120,0,2,,,0,,,52,64
19040,set_tempo,,,,,180,1,0,500000,,,,,,
19080,note_on,,,,,0,0,2,,,0,,,52,27
19080,note_off,,,,,120,0,2,,,0,,,61,64
19200,note_off,,,,,0,0,1,,,0,,,69,64
19200,note_off,,,,,0,0,1,,,0,,,73,64
19200,note_on,,,,,0,0,1,,,0,,,71,43
19200,note_on,,,,,0,0,1,,,0,,,69,43
19200,note_on,,,,,0,0,1,,,0,,,66,43
19200,note_off,,,,,480,0,1,,,0,,,64,64
19200,control_change,,,,,0,0,2,,,0,64,127,,
19200,note_on,,,,,0,0,2,,,0,,,50,36
19200,note_off,,,,,0,0,2,,,0,,,45,64
19200,note_off,,,,,120,0,2,,,0,,,52,64
19320,note_on,,,,,120,0,2,,,0,,,54,29
19320,set_tempo,,,,,280,1,0,480000,,,,,,
19380,control_change,,,,,60,0,2,,,0,64,0,,
19402,note_off,,,,,0,0,1,,,0,,,71,64
19402,note_off,,,,,0,0,1,,,0,,,69,64
19402,note_off,,,,,202,0,1,,,0,,,66,64
19440,note_on,,,,,0,0,1,,,0,,,69,38
19440,note_on,,,,,38,0,1,,,0,,,71,38
19440,control_change,,,,,0,0,2,,,0,64,127,,
19440,note_off,,,,,60,0,2,,,0,,,54,64
19440,note_on,,,,,0,0,2,,,0,,,59,25
19440,note_on,,,,,0,0,1,,,0,,,66,38
19460,set_tempo,,,,,140,1,0,461538,,,,,,
19560,note_off,,,,,120,0,2,,,0,,,59,64
19560,note_on,,,,,0,0,2,,,0,,,54,21
19560,set_tempo,,,,,100,1,0,451128,,,,,,
19620,note_off,,,,,180,0,1,,,0,,,66,64
19620,control_change,,,,,60,0,2,,,0,64,0,,
19620,note_off,,,,,0,0,1,,,0,,,71,64
19620,note_off,,,,,0,0,1,,,0,,,69,64
19680,note_on,,,,,0,0,1,,,0,,,64,43
19680,note_off,,,,,60,0,2,,,0,,,54,64
19680,note_off,,,,,0,0,2,,,0,,,50,64
19680,note_on,,,,,0,0,2,,,0,,,52,37
19680,control_change,,,,,0,0,2,,,0,64,127,,
19680,note_on,,,,,0,0,1,,,0,,,68,43
19680,note_on,,,,,60,0,1,,,0,,,71,43
19720,set_tempo,,,,,160,1,0,437956,,,,,,
19800,note_on,,,,,120,0,2,,,0,,,56,27
19860,note_off,,,,,180,0,1,,,0,,,64,64
19860,note_off,,,,,0,0,1,,,0,,,68,64
19860,note_off,,,,,0,0,1,,,0,,,71,64
19880,set_tempo,,,,,160,1,0,431655,,,,,,
19920,note_on,,,,,0,0,1,,,0,,,68,35
19920,note_on,,,,,0,0,2,,,0,,,59,33
19920,note_on,,,,,0,0,1,,,0,,,64,35
19920,note_off,,,,,120,0,2,,,0,,,56,64
19920,note_on,,,,,60,0,1,,,0,,,74,35
20040,note_on,,,,,0,0,2,,,0,,,56,39
20040,note_off,,,,,120,0,2,,,0,,,59,64
20100,note_off,,,,,180,0,1,,,0,,,74,64
20100,note_on,,,,,0,0,1,,,0,,,73,41
20100,control_change,,,,,60,0,2,,,0,64,0,,
20140,note_off,,,,,40,0,1,,,0,,,73,64
20160,note_off,,,,,60,0,2,,,0,,,56,64
20160,note_off,,,,,0,0,2,,,0,,,52,64
20160,control_change,,,,,0,0,2,,,0,64,127,,
20160,note_off,,,,,20,0,1,,,0,,,64,64
20160,note_on,,,,,0,0,1,,,0,,,64,46
20160,note_off,,,,,0,0,1,,,0,,,68,64
20160,note_on,,,,,0,0,2,,,0,,,45,43
20160,note_on,,,,,0,0,1,,,0,,,73,46
20160,note_on,,,,,0,0,1,,,0,,,69,46
20280,note_on,,,,,120,0,2,,,0,,,52,36
20360,set_tempo,,,,,480,1,0,444444,,,,,,
20400,note_off,,,,,120,0,2,,,0,,,52,64
20400,note_on,,,,,0,0,2,,,0,,,61,31
20520,note_on,,,,,0,0,2,,,0,,,52,27
20520,note_off,,,,,120,0,2,,,0,,,61,64
20580,control_change,,,,,60,0,2,,,0,64,0,,
20640,note_off,,,,,0,0,1,,,0,,,73,64
20640,note_off,,,,,0,0,1,,,0,,,69,64
20640,note_on,,,,,0,0,1,,,0,,,76,52
20640,control_change,,,,,0,0,2,,,0,64,127,,
20640,note_on,,,,,0,0,1,,,0,,,69,52
20640,note_off,,,,,480,0,1,,,0,,,64,64
20640,set_tempo,,,,,280,1,0,447761,,,,,,
20640,note_on,,,,,0,0,1,,,0,,,64,52
20640,note_off,,,,,60,0,2,,,0,,,52,64
20640,note_off,,,,,0,0,2,,,0,,,45,64
20640,note_on,,,,,0,0,2,,,0,,,49,46
20760,note_on,,,,,120,0,2,,,0,,,52,41
20880,note_off,,,,,120,0,2,,,0,,,52,64
20880,note_on,,,,,0,0,2,,,0,,,57,36
20940,set_tempo,,,,,300,1,0,476190,,,,,,
20970,note_off,,,,,330,0,1,,,0,,,76,64
21000,note_on,,,,,0,0,2,,,0,,,52,32
21000,control_change,,,,,0,0,2,,,0,64,0,,
21000,note_on,,,,,30,0,1,,,0,,,74,42
21000,note_off,,,,,120,0,2,,,0,,,57,64
21040,set_tempo,,,,,100,1,0,480000,,,,,,
21060,set_tempo,,,,,20,1,0,483871,,,,,,
21060,note_off,,,,,60,0,1,,,0,,,74,64
21060,note_on,,,,,0,0,1,,,0,,,73,39
21120,note_on,,,,,0,0,1,,,0,,,69,43
21120,note_off,,,,,0,0,1,,,0,,,69,64
21120,note_off,,,,,0,0,1,,,0,,,64,64
21120,note_off,,,,,60,0,1,,,0,,,73,64
21120,note_on,,,,,0,0,1,,,0,,,66,43
21120,note_on,,,,,0,0,1,,,0,,,71,43
21120,note_off,,,,,120,0,2,,,0,,,52,64
21120,note_off,,,,,0,0,2,,,0,,,49,64
21120,control_change,,,,,0,0,2,,,0,64,127,,
21120,note_on,,,,,0,0,2,,,0,,,50,36
21180,set_tempo,,,,,120,1,0,461538,,,,,,
21240,note_on,,,,,120,0,2,,,0,,,54,29
21280,set_tempo,,,,,100,1,0,444444,,,,,,
21300,control_change,,,,,60,0,2,,,0,64,0,,
21322,note_off,,,,,0,0,1,,,0,,,71,64
21322,note_off,,,,,0,0,1,,,0,,,69,64
21322,note_off,,,,,202,0,1,,,0,,,66,64
21340,set_tempo,,,,,60,1,0,434783,,,,,,
21360,control_change,,,,,0,0,2,,,0,64,127,,
21360,note_off,,,,,60,0,2,,,0,,,54,64
21360,note_on,,,,,0,0,1,,,0,,,69,38
21360,note_on,,,,,0,0,1,,,0,,,66,38
21360,note_on,,,,,38,0,1,,,0,,,71,38
21360,note_on,,,,,0,0,2,,,0,,,59,25
21420,set_tempo,,,,,80,1,0,447761,,,,,,
21480,note_on,,,,,0,0,2,,,0,,,54,21
21480,note_off,,,,,120,0,2,,,0,,,59,64
21540,note_off,,,,,0,0,1,,,0,,,71,64
21540,note_off,,,,,180,0,1,,,0,,,66,64
21540,set_tempo,,,,,120,1,0,461538,,,,,,
21540,control_change,,,,,60,0,2,,,0,64,0,,
21540,note_off,,,,,0,0,1,,,0,,,69,64
21600,note_off,,,,,0,0,2,,,0,,,50,64
21600,note_on,,,,,60,0,1,,,0,,,71,43
21600,control_change,,,,,0,0,2,,,0,64,127,,
21600,note_on,,,,,0,0,2,,,0,,,52,37
21600,note_off,,,,,60,0,2,,,0,,,54,64
21600,note_on,,,,,0,0,1,,,0,,,68,43
21600,note_on,,,,,0,0,1,,,0,,,64,43
21720,note_on,,,,,120,0,2,,,0,,,56,27
21780,note_off,,,,,180,0,1,,,0,,,64,64
21780,note_off,,,,,0,0,1,,,0,,,71,64
21780,note_off,,,,,0,0,1,,,0,,,68,64
21840,note_on,,,,,0,0,1,,,0,,,64,35
21840,note_on,,,,,0,0,1,,,0,,,68,35
21840,note_on,,,,,60,0,1,,,0,,,74,35
21840,note_on,,,,,0,0,2,,,0,,,59,33
21840,note_off,,,,,120,0,2,,,0,,,56,64
21880,set_tempo,,,,,340,1,0,476190,,,,,,
21960,note_off,,,,,120,0,2,,,0,,,59,64
21960,note_on,,,,,0,0,2,,,0,,,56,39
22020,control_change,,,,,60,0,2,,,0,64,0,,
22020,note_off,,,,,180,0,1,,,0,,,74,64
22020,note_on,,,,,0,0,1,,,0,,,73,41
22020,set_tempo,,,,,140,1,0,500000,,,,,,
22060,note_off,,,,,40,0,1,,,0,,,73,64
22080,note_off,,,,,20,0,1,,,0,,,64,64
22080,note_off,,,,,0,0,1,,,0,,,68,64
22080,note_on,,,,,0,0,1,,,0,,,69,46
22080,note_on,,,,,0,0,1,,,0,,,61,46
22080,note_on,,,,,0,0,2,,,0,,,45,43
22080,note_off,,,,,60,0,2,,,0,,,56,64
22080,note_off,,,,,0,0,2,,,0,,,52,64
22080,control_change,,,,,0,0,2,,,0,64,127,,
22200,note_on,,,,,120,0,2,,,0,,,52,43
22260,set_tempo,,,,,240,1,0,517241,,,,,,
22320,note_on,,,,,0,0,2,,,0,,,57,36
22320,note_off,,,,,120,0,2,,,0,,,52,64
22340,set_tempo,,,,,80,1,0,540541,,,,,,
22440,set_tempo,,,,,100,1,0,545455,,,,,,
22440,note_off,,,,,120,0,2,,,0,,,57,64
22440,note_on,,,,,0,0,2,,,0,,,56,31
22560,note_on,,,,,0,0,2,,,0,,,57,38
22560,control_change,,,,,0,0,2,,,0,64,0,,
22560,note_off,,,,,120,0,2,,,0,,,56,64
22620,set_tempo,,,,,180,1,0,582524,,,,,,
22650,note_off,,,,,0,0,2,,,0,,,45,64
22650,note_off,,,,,90,0,2,,,0,,,57,64
22680,note_on,,,,,0,0,2,,,0,,,50,43
22680,note_off,,,,,600,0,1,,,0,,,61,64
22680,note_off,,,,,0,0,1,,,0,,,69,64
22680,note_on,,,,,30,0,2,,,0,,,54,43
22700,set_tempo,,,,,80,1,0,612245,,,,,,
22800,note_on,,,,,0,0,2,,,0,,,49,38
22800,note_off,,,,,0,0,2,,,0,,,54,64
22800,note_off,,,,,120,0,2,,,0,,,50,64
22800,note_on,,,,,0,0,2,,,0,,,52,38
22820,set_tempo,,,,,120,1,0,530973,,,,,,
22840,set_tempo,,,,,20,1,0,526316,,,,,,
22880,set_tempo,,,,,40,1,0,468750,,,,,,
22920,note_off,,,,,120,0,2,,,0,,,49,64
22920,note_off,,,,,0,0,2,,,0,,,52,64
22920,note_on,,,,,0,0,2,,,0,,,47,36
22920,note_on,,,,,0,0,2,,,0,,,50,36
22960,set_tempo,,,,,80,1,0,447761,,,,,,
23020,set_tempo,,,,,60,1,0,517241,,,,,,
23040,note_on,,,,,360,0,1,,,0,,,85,53
23040,note_off,,,,,120,0,2,,,0,,,50,64
23040,note_off,,,,,0,0,2,,,0,,,47,64
23040,control_change,,,,,0,0,2,,,0,64,127,,
23040,note_on,,,,,0,0,2,,,0,,,45,42
23040,note_on,,,,,0,0,2,,,0,,,49,52
23120,note_on,,,,,0,0,1,,,0,,,86,46
23120,note_off,,,,,80,0,1,,,0,,,85,64
23190,note_off,,,,,150,0,2,,,0,,,49,64
23200,set_tempo,,,,,180,1,0,495868,,,,,,
23200,note_on,,,,,0,0,1,,,0,,,88,40
23200,note_off,,,,,80,0,1,,,0,,,86,64
23220,control_change,,,,,30,0,2,,,0,64,0,,
23280,note_off,,,,,80,0,1,,,0,,,88,64
23280,control_change,,,,,60,0,2,,,0,64,127,,
23280,note_on,,,,,0,0,2,,,0,,,52,58
23280,note_on,,,,,0,0,1,,,0,,,86,38
23360,note_on,,,,,0,0,1,,,0,,,85,38
23360,note_off,,,,,80,0,1,,,0,,,86,64
23440,note_off,,,,,80,0,1,,,0,,,85,64
23440,note_on,,,,,0,0,1,,,0,,,83,40
23520,note_off,,,,,80,0,1,,,0,,,83,64
23520,note_on,,,,,0,0,1,,,0,,,81,49
23520,set_tempo,,,,,320,1,0,480000,,,,,,
23520,note_on,,,,,0,0,2,,,0,,,49,42
23520,note_off,,,,,240,0,2,,,0,,,45,64
23600,note_off,,,,,80,0,1,,,0,,,81,64
23600,note_on,,,,,0,0,1,,,0,,,83,42
23680,note_off,,,,,80,0,1,,,0,,,83,64
23680,note_on,,,,,0,0,1,,,0,,,85,37
23760,note_off,,,,,240,0,2,,,0,,,52,64
23760,control_change,,,,,0,0,2,,,0,64,0,,
23760,note_on,,,,,0,0,2,,,0,,,57,54
23760,note_off,,,,,80,0,1,,,0,,,85,64
23760,note_on,,,,,0,0,1,,,0,,,81,37
23840,note_off,,,,,80,0,1,,,0,,,81,64
23840,note_on,,,,,0,0,1,,,0,,,80,39
23920,note_on,,,,,0,0,1,,,0,,,78,43
23920,note_off,,,,,80,0,1,,,0,,,80,64
23940,set_tempo,,,,,420,1,0,461538,,,,,,
23970,note_off,,,,,210,0,2,,,0,,,57,64
24000,control_change,,,,,0,0,2,,,0,64,127,,
24000,note_on,,,,,0,0,1,,,0,,,76,47
24000,note_off,,,,,80,0,1,,,0,,,78,64
24000,note_on,,,,,0,0,2,,,0,,,47,46
24000,note_on,,,,,0,0,2,,,0,,,57,56
24000,note_off,,,,,30,0,2,,,0,,,49,64
24080,note_off,,,,,80,0,1,,,0,,,76,64
24080,note_on,,,,,0,0,1,,,0,,,74,43
24140,set_tempo,,,,,200,1,0,454545,,,,,,
24160,note_off,,,,,80,0,1,,,0,,,74,64
24160,note_on,,,,,0,0,1,,,0,,,76,41
24240,note_off,,,,,240,0,2,,,0,,,57,64
24240,note_off,,,,,80,0,1,,,0,,,76,64
24240,note_on,,,,,0,0,1,,,0,,,76,39
24240,note_on,,,,,0,0,2,,,0,,,56,50
24320,note_on,,,,,0,0,1,,,0,,,78,39
24320,note_off,,,,,80,0,1,,,0,,,76,64
24360,note_off,,,,,120,0,2,,,0,,,56,64
24400,note_off,,,,,80,0,1,,,0,,,78,64
24400,note_on,,,,,0,0,1,,,0,,,74,41
24420,control_change,,,,,60,0,2,,,0,64,0,,
24480,note_off,,,,,80,0,1,,,0,,,74,64
24480,note_on,,,,,0,0,1,,,0,,,73,48
24480,note_off,,,,,60,0,2,,,0,,,47,64
24480,note_on,,,,,0,0,2,,,0,,,49,37
24480,note_on,,,,,0,0,2,,,0,,,57,47
24480,control_change,,,,,0,0,2,,,0,64,127,,
24560,note_off,,,,,80,0,1,,,0,,,73,64
24560,note_on,,,,,0,0,1,,,0,,,71,45
24640,note_off,,,,,80,0,1,,,0,,,71,64
24640,note_on,,,,,0,0,1,,,0,,,69,42
24720,note_on,,,,,0,0,1,,,0,,,68,41
24720,note_off,,,,,80,0,1,,,0,,,69,64
24800,set_tempo,,,,,660,1,0,441176,,,,,,
24800,note_on,,,,,0,0,1,,,0,,,71,39
24800,note_off,,,,,80,0,1,,,0,,,68,64
24880,note_on,,,,,0,0,1,,,0,,,69,39
24880,note_off,,,,,80,0,1,,,0,,,71,64
24900,control_change,,,,,420,0,2,,,0,64,0,,
24940,note_off,,,,,60,0,1,,,0,,,69,64
24960,note_on,,,,,0,0,2,,,0,,,59,58
24960,note_on,,,,,0,0,2,,,0,,,50,48
24960,note_off,,,,,60,0,2,,,0,,,57,64
24960,note_on,,,,,20,0,1,,,0,,,66,56
24960,control_change,,,,,0,0,2,,,0,64,127,,
24960,note_off,,,,,0,0,2,,,0,,,49,64
25020,note_off,,,,,60,0,1,,,0,,,66,64
25040,note_on,,,,,20,0,1,,,0,,,69,51
25120,note_off,,,,,80,0,1,,,0,,,69,64
25120,note_on,,,,,0,0,1,,,0,,,81,48
25200,note_off,,,,,80,0,1,,,0,,,81,64
25200,note_on,,,,,0,0,1,,,0,,,69,45
25280,note_off,,,,,80,0,1,,,0,,,69,64
25280,note_on,,,,,0,0,1,,,0,,,81,41
25320,note_on,,,,,0,0,2,,,0,,,59,48
25320,control_change,,,,,0,0,2,,,0,64,0,,
25320,note_off,,,,,360,0,2,,,0,,,59,64
25360,note_off,,,,,80,0,1,,,0,,,81,64
25360,note_on,,,,,0,0,1,,,0,,,69,37
25420,note_off,,,,,60,0,1,,,0,,,69,64
25440,note_on,,,,,20,0,1,,,0,,,66,55
25440,note_off,,,,,0,0,2,,,0,,,50,64
25440,note_off,,,,,120,0,2,,,0,,,59,64
25440,note_on,,,,,0,0,2,,,0,,,51,45
25440,note_on,,,,,0,0,2,,,0,,,61,55
25440,control_change,,,,,0,0,2,,,0,64,127,,
25500,note_off,,,,,60,0,1,,,0,,,66,64
25520,note_on,,,,,20,0,1,,,0,,,69,49
25600,note_off,,,,,80,0,1,,,0,,,69,64
25600,note_on,,,,,0,0,1,,,0,,,81,45
25660,note_off,,,,,60,0,1,,,0,,,81,64
25680,note_off,,,,,240,0,2,,,0,,,61,64
25680,note_on,,,,,0,0,2,,,0,,,57,45
25680,note_on,,,,,20,0,1,,,0,,,69,58
25740,note_off,,,,,60,0,1,,,0,,,69,64
25760,note_on,,,,,20,0,1,,,0,,,73,53
25800,control_change,,,,,120,0,2,,,0,64,0,,
25840,note_off,,,,,80,0,1,,,0,,,73,64
25840,note_on,,,,,0,0,1,,,0,,,85,46
25890,note_off,,,,,90,0,2,,,0,,,57,64
25900,note_off,,,,,60,0,1,,,0,,,85,64
25920,control_change,,,,,0,0,2,,,0,64,127,,
25920,note_on,,,,,20,0,1,,,0,,,73,54
25920,note_on,,,,,0,0,2,,,0,,,52,48
25920,note_off,,,,,30,0,2,,,0,,,51,64
25920,note_on,,,,,0,0,2,,,0,,,57,58
25940,set_tempo,,,,,1140,1,0,458015,,,,,,
26000,note_off,,,,,80,0,1,,,0,,,73,64
26000,note_on,,,,,0,0,1,,,0,,,76,43
26080,control_change,,,,,160,0,2,,,0,91,96,,
26080,set_tempo,,,,,140,1,0,468750,,,,,,
26080,note_off,,,,,80,0,1,,,0,,,76,64
26080,note_on,,,,,0,0,1,,,0,,,80,38
26160,note_off,,,,,80,0,1,,,0,,,80,64
26160,note_on,,,,,0,0,1,,,0,,,81,34
26180,set_tempo,,,,,100,1,0,483871,,,,,,
26240,note_on,,,,,0,0,1,,,0,,,83,39
26240,note_off,,,,,80,0,1,,,0,,,81,64
26260,set_tempo,,,,,80,1,0,500000,,,,,,
26320,note_on,,,,,0,0,1,,,0,,,85,45
26320,note_off,,,,,80,0,1,,,0,,,83,64
26340,control_change,,,,,260,0,2,,,0,64,0,,
26400,note_on,,,,,0,0,1,,,0,,,83,48
26400,note_off,,,,,80,0,1,,,0,,,85,64
26400,note_on,,,,,0,0,2,,,0,,,56,47
26400,note_off,,,,,60,0,2,,,0,,,57,64
26480,note_on,,,,,0,0,1,,,0,,,85,45
26480,note_off,,,,,80,0,1,,,0,,,83,64
26520,note_on,,,,,0,0,2,,,0,,,54,46
26520,note_off,,,,,0,0,2,,,0,,,52,64
26520,note_off,,,,,120,0,2,,,0,,,56,64
26560,note_off,,,,,80,0,1,,,0,,,85,64
26560,note_on,,,,,0,0,1,,,0,,,86,39
26600,set_tempo,,,,,340,1,0,535714,,,,,,
26640,note_off,,,,,80,0,1,,,0,,,86,64
26640,note_on,,,,,0,0,1,,,0,,,85,33
26640,note_on,,,,,0,0,2,,,0,,,52,43
26640,note_off,,,,,120,0,2,,,0,,,54,64
26720,note_off,,,,,80,0,1,,,0,,,85,64
26720,note_on,,,,,0,0,1,,,0,,,86,37
26720,set_tempo,,,,,120,1,0,566038,,,,,,
26760,note_off,,,,,120,0,2,,,0,,,52,64
26760,note_on,,,,,0,0,2,,,0,,,50,38
26800,note_off,,,,,80,0,1,,,0,,,86,64
26800,note_on,,,,,0,0,1,,,0,,,83,41
26820,set_tempo,,,,,100,1,0,600000,,,,,,
26850,note_off,,,,,90,0,2,,,0,,,50,64
26860,set_tempo,,,,,40,1,0,606061,,,,,,
26880,note_off,,,,,80,0,1,,,0,,,83,64
26880,note_on,,,,,0,0,1,,,0,,,85,43
26880,set_tempo,,,,,20,1,0,571429,,,,,,
26880,control_change,,,,,30,0,2,,,0,64,127,,
26880,note_on,,,,,0,0,2,,,0,,,45,49
26880,note_on,,,,,0,0,2,,,0,,,49,54
26900,set_tempo,,,,,20,1,0,566038,,,,,,
26960,note_off,,,,,80,0,1,,,0,,,85,64
26960,note_on,,,,,0,0,1,,,0,,,86,35
27030,note_off,,,,,150,0,2,,,0,,,49,64
27040,note_off,,,,,80,0,1,,,0,,,86,64
27040,note_on,,,,,0,0,1,,,0,,,88,35
27060,control_change,,,,,30,0,2,,,0,64,0,,
27060,set_tempo,,,,,160,1,0,540541,,,,,,
27120,note_off,,,,,80,0,1,,,0,,,88,64
27120,control_change,,,,,0,0,2,,,0,64,127,,
27120,note_on,,,,,60,0,2,,,0,,,52,55
27120,note_on,,,,,0,0,1,,,0,,,86,35
27200,note_off,,,,,80,0,1,,,0,,,86,64
27200,note_on,,,,,0,0,1,,,0,,,85,37
27200,set_tempo,,,,,140,1,0,517241,,,,,,
27280,note_off,,,,,80,0,1,,,0,,,85,64
27280,note_on,,,,,0,0,1,,,0,,,83,40
27300,set_tempo,,,,,100,1,0,491803,,,,,,
27360,note_off,,,,,80,0,1,,,0,,,83,64
27360,note_on,,,,,0,0,1,,,0,,,81,49
27360,note_on,,,,,0,0,2,,,0,,,49,47
27360,note_off,,,,,240,0,2,,,0,,,45,64
27440,note_off,,,,,80,0,1,,,0,,,81,64
27440,note_on,,,,,0,0,1,,,0,,,83,47
27520,note_on,,,,,0,0,1,,,0,,,85,42
27520,note_off,,,,,80,0,1,,,0,,,83,64
27600,control_change,,,,,0,0,2,,,0,64,0,,
27600,note_off,,,,,240,0,2,,,0,,,52,64
27600,note_on,,,,,0,0,2,,,0,,,57,52
27600,note_on,,,,,0,0,1,,,0,,,81,40
27600,note_off,,,,,80,0,1,,,0,,,85,64
27640,set_tempo,,,,,340,1,0,476190,,,,,,
27680,note_off,,,,,80,0,1,,,0,,,81,64
27680,note_on,,,,,0,0,1,,,0,,,80,40
27760,note_off,,,,,80,0,1,,,0,,,80,64
27760,note_on,,,,,0,0,1,,,0,,,78,43
27810,note_off,,,,,210,0,2,,,0,,,57,64
27840,note_on,,,,,0,0,2,,,0,,,57,60
27840,note_off,,,,,80,0,1,,,0,,,78,64
27840,note_off,,,,,30,0,2,,,0,,,49,64
27840,control_change,,,,,0,0,2,,,0,64,127,,
27840,note_on,,,,,0,0,2,,,0,,,47,50
27840,note_on,,,,,0,0,1,,,0,,,76,49
27920,note_on,,,,,0,0,1,,,0,,,74,41
27920,note_off,,,,,80,0,1,,,0,,,76,64
27980,set_tempo,,,,,340,1,0,465116,,,,,,
28000,note_off,,,,,80,0,1,,,0,,,74,64
28000,note_on,,,,,0,0,1,,,0,,,76,36
28080,note_on,,,,,0,0,1,,,0,,,76,36
28080,note_off,,,,,240,0,2,,,0,,,57,64
28080,note_off,,,,,80,0,1,,,0,,,76,64
28080,note_on,,,,,0,0,2,,,0,,,56,53
28160,note_off,,,,,80,0,1,,,0,,,76,64
28160,set_tempo,,,,,180,1,0,468750,,,,,,
28160,note_on,,,,,0,0,1,,,0,,,78,36
28200,note_off,,,,,120,0,2,,,0,,,56,64
28240,note_on,,,,,0,0,1,,,0,,,74,39
28240,note_off,,,,,80,0,1,,,0,,,78,64
28260,control_change,,,,,60,0,2,,,0,64,0,,
28320,note_on,,,,,0,0,2,,,0,,,57,46
28320,note_on,,,,,0,0,1,,,0,,,73,48
28320,note_off,,,,,60,0,2,,,0,,,47,64
28320,note_off,,,,,80,0,1,,,0,,,74,64
28320,note_on,,,,,0,0,2,,,0,,,49,36
28320,control_change,,,,,0,0,2,,,0,64,127,,
28340,set_tempo,,,,,180,1,0,476190,,,,,,
28400,note_on,,,,,0,0,1,,,0,,,71,41
28400,note_off,,,,,80,0,1,,,0,,,73,64
28480,note_off,,,,,80,0,1,,,0,,,71,64
28480,note_on,,,,,0,0,1,,,0,,,69,36
28540,set_tempo,,,,,200,1,0,495868,,,,,,
28560,note_off,,,,,80,0,1,,,0,,,69,64
28560,note_on,,,,,0,0,1,,,0,,,68,35
28640,note_off,,,,,80,0,1,,,0,,,68,64
28640,note_on,,,,,0,0,1,,,0,,,71,34
28680,set_tempo,,,,,140,1,0,512821,,,,,,
28720,note_off,,,,,80,0,1,,,0,,,71,64
28720,note_on,,,,,0,0,1,,,0,,,69,33
28740,control_change,,,,,420,0,2,,,0,64,0,,
28780,note_off,,,,,60,0,1,,,0,,,69,64
28800,note_on,,,,,0,0,2,,,0,,,59,55
28800,note_off,,,,,60,0,2,,,0,,,57,64
28800,note_on,,,,,0,0,2,,,0,,,50,45
28800,control_change,,,,,0,0,2,,,0,64,127,,
28800,note_off,,,,,0,0,2,,,0,,,49,64
28800,note_on,,,,,20,0,1,,,0,,,69,46
28880,note_on,,,,,0,0,1,,,0,,,78,38
28880,note_off,,,,,80,0,1,,,0,,,69,64
28900,set_tempo,,,,,220,1,0,491803,,,,,,
28960,note_off,,,,,80,0,1,,,0,,,78,64
28960,note_on,,,,,0,0,1,,,0,,,69,31
29000,set_tempo,,,,,100,1,0,480000,,,,,,
29040,note_off,,,,,80,0,1,,,0,,,69,64
29040,note_on,,,,,0,0,1,,,0,,,76,30
29040,note_on,,,,,0,0,2,,,0,,,61,57
29040,note_off,,,,,240,0,2,,,0,,,50,64
29040,note_off,,,,,0,0,2,,,0,,,59,64
29040,note_on,,,,,0,0,2,,,0,,,52,47
29120,set_tempo,,,,,120,1,0,465116,,,,,,
29120,note_off,,,,,80,0,1,,,0,,,76,64
29120,note_on,,,,,0,0,1,,,0,,,69,32
29160,note_off,,,,,120,0,2,,,0,,,61,64
29160,control_change,,,,,0,0,2,,,0,64,0,,
29160,note_on,,,,,0,0,2,,,0,,,54,41
29160,note_on,,,,,0,0,2,,,0,,,62,51
29160,note_off,,,,,0,0,2,,,0,,,52,64
29200,note_on,,,,,0,0,1,,,0,,,74,35
29200,note_off,,,,,80,0,1,,,0,,,69,64
29240,set_tempo,,,,,120,1,0,447761,,,,,,
29280,note_off,,,,,80,0,1,,,0,,,74,64
29280,note_on,,,,,0,0,1,,,0,,,76,41
29280,note_off,,,,,120,0,2,,,0,,,62,64
29280,note_off,,,,,0,0,2,,,0,,,54,64
29280,control_change,,,,,0,0,2,,,0,64,127,,
29280,note_on,,,,,0,0,2,,,0,,,52,56
29280,note_on,,,,,0,0,2,,,0,,,61,66
29360,note_on,,,,,0,0,1,,,0,,,69,47
29360,note_off,,,,,80,0,1,,,0,,,76,64
29440,note_off,,,,,80,0,1,,,0,,,69,64
29440,note_on,,,,,0,0,1,,,0,,,81,50
29440,set_tempo,,,,,200,1,0,441176,,,,,,
29480,set_tempo,,,,,40,1,0,437956,,,,,,
29490,note_off,,,,,210,0,2,,,0,,,61,64
29520,note_on,,,,,0,0,2,,,0,,,59,57
29520,note_on,,,,,0,0,2,,,0,,,52,47
29520,note_off,,,,,30,0,2,,,0,,,52,64
29520,note_off,,,,,80,0,1,,,0,,,81,64
29520,note_on,,,,,0,0,1,,,0,,,76,52
29600,note_on,,,,,0,0,1,,,0,,,68,54
29600,note_off,,,,,80,0,1,,,0,,,76,64
29640,control_change,,,,,120,0,2,,,0,64,0,,
29680,note_on,,,,,0,0,1,,,0,,,80,55
29680,note_off,,,,,80,0,1,,,0,,,68,64
29730,note_off,,,,,90,0,2,,,0,,,59,64
29740,set_tempo,,,,,260,1,0,461538,,,,,,
29740,note_off,,,,,60,0,1,,,0,,,80,64
29760,control_change,,,,,0,0,2,,,0,64,127,,
29760,note_on,,,,,0,0,2,,,0,,,45,52
29760,note_on,,,,,0,0,2,,,0,,,59,62
29760,note_on,,,,,0,0,2,,,0,,,50,52
29760,note_on,,,,,0,0,2,,,0,,,52,52
29760,note_off,,,,,30,0,2,,,0,,,52,64
29760,note_on,,,,,20,0,1,,,0,,,80,55
29840,note_off,,,,,80,0,1,,,0,,,80,64
29840,note_on,,,,,0,0,1,,,0,,,86,50
29920,note_off,,,,,80,0,1,,,0,,,86,64
29920,note_on,,,,,0,0,1,,,0,,,85,48
29920,control_change,,,,,160,0,2,,,0,91,96,,
29920,set_tempo,,,,,180,1,0,483871,,,,,,
29940,set_tempo,,,,,20,1,0,487805,,,,,,
30000,note_off,,,,,80,0,1,,,0,,,85,64
30000,note_on,,,,,0,0,1,,,0,,,83,45
30000,set_tempo,,,,,60,1,0,517241,,,,,,
30080,note_off,,,,,80,0,1,,,0,,,83,64
30080,note_on,,,,,0,0,1,,,0,,,81,42
30140,set_tempo,,,,,140,1,0,545455,,,,,,
30160,note_on,,,,,0,0,1,,,0,,,80,39
30160,note_off,,,,,80,0,1,,,0,,,81,64
30180,control_change,,,,,260,0,2,,,0,64,0,,
30240,note_on,,,,,0,0,2,,,0,,,49,34
30240,note_on,,,,,0,0,1,,,0,,,81,37
30240,note_off,,,,,60,0,2,,,0,,,50,64
30240,note_on,,,,,0,0,2,,,0,,,57,34
30240,note_off,,,,,80,0,1,,,0,,,80,64
30240,note_off,,,,,0,0,2,,,0,,,59,64
30330,note_off,,,,,90,0,1,,,0,,,81,64
30330,note_off,,,,,0,0,2,,,0,,,45,64
30330,note_off,,,,,0,0,2,,,0,,,49,64
30330,note_off,,,,,90,0,2,,,0,,,57,64
30360,note_on,,,,,0,0,2,,,0,,,59,43
30360,note_off,,,,,30,0,2,,,0,,,52,64
30450,note_off,,,,,90,0,2,,,0,,,59,64
30460,set_tempo,,,,,320,1,0,512821,,,,,,
30480,note_on,,,,,30,0,2,,,0,,,61,50
30560,set_tempo,,,,,100,1,0,491803,,,,,,
30570,note_off,,,,,90,0,2,,,0,,,61,64
30600,note_on,,,,,30,0,2,,,0,,,62,58
30660,set_tempo,,,,,100,1,0,461538,,,,,,
30690,note_off,,,,,90,0,2,,,0,,,62,64
30720,note_on,,,,,0,0,2,,,0,,,61,49
30720,note_on,,,,,30,0,2,,,0,,,64,62
30720,note_on,,,,,390,0,1,,,0,,,69,42
30780,set_tempo,,,,,120,1,0,451128,,,,,,
30810,note_off,,,,,90,0,1,,,0,,,69,64
30840,set_tempo,,,,,60,1,0,447761,,,,,,
30840,note_on,,,,,30,0,1,,,0,,,71,31
30930,note_off,,,,,90,0,1,,,0,,,71,64
30960,note_on,,,,,30,0,1,,,0,,,73,38
31050,note_off,,,,,90,0,1,,,0,,,73,64
31080,note_off,,,,,360,0,2,,,0,,,64,64
31080,note_on,,,,,0,0,2,,,0,,,64,54
31080,note_on,,,,,30,0,1,,,0,,,74,47
31170,note_off,,,,,90,0,1,,,0,,,74,64
31200,note_on,,,,,30,0,1,,,0,,,76,54
31200,note_off,,,,,120,0,2,,,0,,,64,64
31200,note_off,,,,,0,0,2,,,0,,,61,64
31200,note_on,,,,,0,0,2,,,0,,,58,57
31200,note_on,,,,,0,0,2,,,0,,,66,77
31200,control_change,,,,,0,0,2,,,0,64,127,,
31280,note_on,,,,,0,0,1,,,0,,,75,46
31280,note_off,,,,,80,0,1,,,0,,,76,64
31300,set_tempo,,,,,460,1,0,437956,,,,,,
31360,note_off,,,,,80,0,1,,,0,,,75,64
31360,note_on,,,,,0,0,1,,,0,,,76,43
31440,note_off,,,,,80,0,1,,,0,,,76,64
31440,note_on,,,,,0,0,1,,,0,,,78,43
31520,note_on,,,,,0,0,1,,,0,,,85,47
31520,note_off,,,,,80,0,1,,,0,,,78,64
31580,set_tempo,,,,,280,1,0,428571,,,,,,
31600,note_off,,,,,80,0,1,,,0,,,85,64
31600,note_on,,,,,0,0,1,,,0,,,77,56
31620,control_change,,,,,420,0,2,,,0,64,0,,
31680,note_on,,,,,0,0,2,,,0,,,59,42
31680,note_on,,,,,0,0,2,,,0,,,64,65
31680,note_off,,,,,0,0,2,,,0,,,58,64
31680,note_off,,,,,60,0,2,,,0,,,66,64
31680,note_off,,,,,80,0,1,,,0,,,77,64
31680,note_on,,,,,0,0,1,,,0,,,78,62
31760,note_on,,,,,0,0,1,,,0,,,77,60
31760,note_off,,,,,80,0,1,,,0,,,78,64
31840,note_off,,,,,80,0,1,,,0,,,77,64
31840,note_on,,,,,0,0,1,,,0,,,78,56
31920,note_off,,,,,240,0,2,,,0,,,64,64
31920,note_on,,,,,0,0,2,,,0,,,63,47
31920,note_off,,,,,80,0,1,,,0,,,78,64
31920,note_on,,,,,0,0,1,,,0,,,79,53
32000,set_tempo,,,,,420,1,0,447761,,,,,,
32000,note_off,,,,,80,0,1,,,0,,,79,64
32000,note_on,,,,,0,0,1,,,0,,,80,46
32040,note_off,,,,,120,0,2,,,0,,,63,64
32040,note_off,,,,,0,0,2,,,0,,,59,64
32080,note_on,,,,,0,0,1,,,0,,,82,39
32080,note_off,,,,,80,0,1,,,0,,,80,64
32160,note_off,,,,,80,0,1,,,0,,,82,64
32160,note_on,,,,,0,0,1,,,0,,,83,35
32160,note_on,,,,,120,0,2,,,0,,,59,47
32240,note_off,,,,,80,0,1,,,0,,,83,64
32520,note_on,,,,,0,0,2,,,0,,,61,42
32520,note_off,,,,,360,0,2,,,0,,,59,64
32640,note_on,,,,,0,0,2,,,0,,,62,60
32640,note_off,,,,,120,0,2,,,0,,,61,64
32760,note_on,,,,,120,0,2,,,0,,,54,49
32760,note_on,,,,,520,0,1,,,0,,,74,53
32880,note_off,,,,,120,0,1,,,0,,,74,64
32880,note_on,,,,,0,0,1,,,0,,,76,46
32880,note_on,,,,,0,0,2,,,0,,,56,45
32880,note_off,,,,,120,0,2,,,0,,,54,64
33000,note_off,,,,,120,0,1,,,0,,,76,64
33000,note_on,,,,,0,0,1,,,0,,,78,43
33000,note_off,,,,,120,0,2,,,0,,,56,64
33000,note_on,,,,,0,0,2,,,0,,,57,40
33060,set_tempo,,,,,1060,1,0,441176,,,,,,
33120,note_off,,,,,120,0,1,,,0,,,78,64
33120,note_on,,,,,0,0,1,,,0,,,76,35
33120,note_off,,,,,120,0,2,,,0,,,57,64
33120,note_off,,,,,0,0,2,,,0,,,62,64
33120,note_on,,,,,0,0,2,,,0,,,64,57
33120,note_on,,,,,0,0,2,,,0,,,56,57
33120,control_change,,,,,0,0,2,,,0,64,127,,
33200,note_off,,,,,80,0,1,,,0,,,76,64
33200,note_on,,,,,0,0,1,,,0,,,80,40
33220,set_tempo,,,,,160,1,0,428571,,,,,,
33280,note_off,,,,,80,0,1,,,0,,,80,64
33280,note_on,,,,,0,0,1,,,0,,,81,42
33360,note_off,,,,,80,0,1,,,0,,,81,64
33360,note_on,,,,,0,0,1,,,0,,,83,44
33440,note_off,,,,,80,0,1,,,0,,,83,64
33440,note_on,,,,,0,0,1,,,0,,,80,47
33440,set_tempo,,,,,220,1,0,422535,,,,,,
33520,note_on,,,,,0,0,1,,,0,,,74,50
33520,note_off,,,,,80,0,1,,,0,,,80,64
33540,control_change,,,,,420,0,2,,,0,64,0,,
33600,note_off,,,,,60,0,2,,,0,,,56,64
33600,note_on,,,,,0,0,2,,,0,,,57,49
33600,note_on,,,,,0,0,1,,,0,,,73,54
33600,note_off,,,,,80,0,1,,,0,,,74,64
33600,note_off,,,,,0,0,2,,,0,,,64,64
33680,note_off,,,,,80,0,1,,,0,,,73,64
33680,note_on,,,,,0,0,1,,,0,,,71,53
33740,set_tempo,,,,,300,1,0,431655,,,,,,
33760,note_off,,,,,80,0,1,,,0,,,71,64
33760,note_on,,,,,0,0,1,,,0,,,73,51
33840,note_off,,,,,80,0,1,,,0,,,73,64
33840,note_on,,,,,0,0,1,,,0,,,74,47
33840,set_tempo,,,,,100,1,0,451128,,,,,,
33900,set_tempo,,,,,60,1,0,447761,,,,,,
33920,note_off,,,,,80,0,1,,,0,,,74,64
33920,note_on,,,,,0,0,1,,,0,,,73,44
33960,note_on,,,,,360,0,2,,,0,,,59,49
34000,note_on,,,,,0,0,1,,,0,,,74,41
34000,note_off,,,,,80,0,1,,,0,,,73,64
34080,note_off,,,,,120,0,2,,,0,,,59,64
34080,set_tempo,,,,,180,1,0,461538,,,,,,
34080,note_off,,,,,80,0,1,,,0,,,74,64
34080,note_on,,,,,0,0,2,,,0,,,61,49
34080,note_on,,,,,0,0,1,,,0,,,76,40
34100,set_tempo,,,,,20,1,0,468750,,,,,,
34160,note_on,,,,,0,0,1,,,0,,,78,40
34160,note_off,,,,,80,0,1,,,0,,,76,64
34240,note_off,,,,,80,0,1,,,0,,,78,64
34240,note_on,,,,,0,0,1,,,0,,,80,40
34240,set_tempo,,,,,140,1,0,487805,,,,,,
34320,note_off,,,,,80,0,1,,,0,,,80,64
34320,note_on,,,,,0,0,1,,,0,,,81,43
34400,note_on,,,,,0,0,1,,,0,,,76,46
34400,note_off,,,,,80,0,1,,,0,,,81,64
34400,set_tempo,,,,,160,1,0,500000,,,,,,
34480,note_off,,,,,80,0,1,,,0,,,76,64
34480,note_on,,,,,0,0,1,,,0,,,73,50
34500,note_off,,,,,420,0,2,,,0,,,61,64
34500,note_off,,,,,0,0,2,,,0,,,57,64
34540,note_off,,,,,60,0,1,,,0,,,73,64
34560,note_on,,,,,60,0,2,,,0,,,50,56
34560,note_on,,,,,20,0,1,,,0,,,78,54
34560,control_change,,,,,0,0,2,,,0,64,127,,
34560,note_on,,,,,0,0,2,,,0,,,59,56
34640,note_on,,,,,0,0,1,,,0,,,71,45
34640,note_off,,,,,80,0,1,,,0,,,78,64
34660,set_tempo,,,,,260,1,0,472441,,,,,,
34720,note_on,,,,,0,0,1,,,0,,,78,43
34720,note_off,,,,,80,0,1,,,0,,,71,64
34740,control_change,,,,,180,0,2,,,0,64,0,,
34762,note_off,,,,,22,0,2,,,0,,,59,64
34800,note_on,,,,,0,0,1,,,0,,,81,57
34800,note_off,,,,,80,0,1,,,0,,,78,64
34800,note_on,,,,,38,0,2,,,0,,,59,50
34800,control_change,,,,,0,0,2,,,0,64,127,,
34880,note_on,,,,,0,0,1,,,0,,,71,55
34880,note_off,,,,,80,0,1,,,0,,,81,64
34880,set_tempo,,,,,220,1,0,454545,,,,,,
34940,set_tempo,,,,,60,1,0,451128,,,,,,
34960,note_on,,,,,0,0,1,,,0,,,81,49
34960,note_off,,,,,80,0,1,,,0,,,71,64
34980,control_change,,,,,0,0,2,,,0,64,0,,
34980,note_off,,,,,180,0,2,,,0,,,59,64
35040,note_off,,,,,60,0,2,,,0,,,50,64
35040,note_on,,,,,0,0,2,,,0,,,52,59
35040,note_on,,,,,0,0,2,,,0,,,59,59
35040,control_change,,,,,0,0,2,,,0,64,127,,
35040,note_on,,,,,0,0,1,,,0,,,80,60
35040,note_off,,,,,80,0,1,,,0,,,81,64
35080,set_tempo,,,,,140,1,0,437956,,,,,,
35120,note_on,,,,,0,0,1,,,0,,,71,57
35120,note_off,,,,,80,0,1,,,0,,,80,64
35200,note_on,,,,,0,0,1,,,0,,,80,51
35200,note_off,,,,,80,0,1,,,0,,,71,64
35220,note_off,,,,,180,0,2,,,0,,,59,64
35280,note_on,,,,,0,0,1,,,0,,,83,66
35280,note_on,,,,,60,0,2,,,0,,,62,52
35280,note_off,,,,,80,0,1,,,0,,,80,64
35320,set_tempo,,,,,240,1,0,425532,,,,,,
35360,note_on,,,,,0,0,1,,,0,,,80,57
35360,note_off,,,,,80,0,1,,,0,,,83,64
35440,note_on,,,,,0,0,1,,,0,,,83,49
35440,note_off,,,,,80,0,1,,,0,,,80,64
35440,note_on,,,,,0,0,2,,,0,,,61,62
35440,note_off,,,,,160,0,2,,,0,,,62,64
35460,control_change,,,,,20,0,2,,,0,64,0,,
35520,note_on,,,,,0,0,1,,,0,,,81,67
35520,note_off,,,,,60,0,2,,,0,,,61,64
35520,note_off,,,,,0,0,2,,,0,,,52,64
35520,note_off,,,,,80,0,1,,,0,,,83,64
35520,note_on,,,,,0,0,2,,,0,,,57,66
35520,note_on,,,,,0,0,2,,,0,,,61,66
35520,control_change,,,,,0,0,2,,,0,64,127,,
35600,note_off,,,,,80,0,1,,,0,,,81,64
35600,note_on,,,,,0,0,1,,,0,,,83,49
35660,set_tempo,,,,,340,1,0,437956,,,,,,
35680,note_off,,,,,80,0,1,,,0,,,83,64
35680,note_on,,,,,0,0,1,,,0,,,80,55
35760,note_off,,,,,80,0,1,,,0,,,80,64
35760,note_on,,,,,0,0,1,,,0,,,81,58
35840,note_off,,,,,80,0,1,,,0,,,81,64
35840,note_on,,,,,0,0,1,,,0,,,83,61
35880,set_tempo,,,,,220,1,0,451128,,,,,,
35920,note_off,,,,,80,0,1,,,0,,,83,64
35920,note_on,,,,,0,0,1,,,0,,,84,65
35940,note_off,,,,,420,0,2,,,0,,,57,64
35940,note_off,,,,,0,0,2,,,0,,,61,64
35940,control_change,,,,,0,0,2,,,0,64,0,,
36000,note_on,,,,,0,0,1,,,0,,,85,67
36000,note_off,,,,,80,0,1,,,0,,,84,64
36000,note_on,,,,,60,0,2,,,0,,,64,80
36000,control_change,,,,,0,0,2,,,0,64,127,,
36080,note_off,,,,,80,0,1,,,0,,,85,64
36080,note_on,,,,,0,0,1,,,0,,,86,71
36100,set_tempo,,,,,220,1,0,468750,,,,,,
36160,note_off,,,,,80,0,1,,,0,,,86,64
36160,note_on,,,,,0,0,1,,,0,,,88,75
36240,note_off,,,,,80,0,1,,,0,,,88,64
36240,note_on,,,,,0,0,1,,,0,,,90,80
36320,note_off,,,,,80,0,1,,,0,,,90,64
36320,note_off,,,,,320,0,2,,,0,,,64,64
36320,note_on,,,,,0,0,2,,,0,,,62,59
36320,note_on,,,,,0,0,1,,,0,,,92,83
36360,control_change,,,,,40,0,2,,,0,64,0,,
36400,note_off,,,,,80,0,1,,,0,,,92,64
36400,note_on,,,,,0,0,1,,,0,,,93,86
36400,note_off,,,,,40,0,2,,,0,,,62,64
36400,note_on,,,,,0,0,2,,,0,,,61,55
36480,note_off,,,,,80,0,2,,,0,,,61,64
36480,note_on,,,,,0,0,2,,,0,,,59,66
36480,control_change,,,,,0,0,2,,,0,64,127,,
36480,note_on,,,,,0,0,1,,,0,,,78,64
36480,note_off,,,,,80,0,1,,,0,,,93,64
36480,note_on,,,,,0,0,2,,,0,,,50,66
36560,note_on,,,,,0,0,1,,,0,,,71,44
36560,note_off,,,,,80,0,1,,,0,,,78,64
36620,set_tempo,,,,,520,1,0,447761,,,,,,
36640,note_off,,,,,80,0,1,,,0,,,71,64
36640,note_on,,,,,0,0,1,,,0,,,78,39
36660,control_change,,,,,180,0,2,,,0,64,0,,
36682,note_off,,,,,22,0,2,,,0,,,59,64
36720,note_off,,,,,38,0,2,,,0,,,50,64
36720,note_on,,,,,0,0,1,,,0,,,81,57
36720,note_off,,,,,80,0,1,,,0,,,78,64
36720,note_on,,,,,0,0,2,,,0,,,51,53
36720,note_on,,,,,0,0,2,,,0,,,59,53
36720,control_change,,,,,0,0,2,,,0,64,127,,
36740,set_tempo,,,,,120,1,0,437956,,,,,,
36800,note_on,,,,,0,0,1,,,0,,,71,52
36800,note_off,,,,,80,0,1,,,0,,,81,64
36840,set_tempo,,,,,100,1,0,447761,,,,,,
36880,note_off,,,,,80,0,1,,,0,,,71,64
36880,note_on,,,,,0,0,1,,,0,,,81,49
36900,note_off,,,,,180,0,2,,,0,,,59,64
36900,control_change,,,,,0,0,2,,,0,64,0,,
36960,note_off,,,,,80,0,1,,,0,,,81,64
36960,note_on,,,,,0,0,2,,,0,,,52,57
36960,note_on,,,,,0,0,2,,,0,,,59,57
36960,note_on,,,,,0,0,1,,,0,,,80,60
36960,note_off,,,,,60,0,2,,,0,,,51,64
36960,control_change,,,,,0,0,2,,,0,64,127,,
37040,note_off,,,,,80,0,1,,,0,,,80,64
37040,note_on,,,,,0,0,1,,,0,,,71,55
37040,set_tempo,,,,,200,1,0,465116,,,,,,
37120,note_on,,,,,0,0,1,,,0,,,80,50
37120,note_off,,,,,80,0,1,,,0,,,71,64
37140,note_off,,,,,180,0,2,,,0,,,59,64
37200,note_on,,,,,60,0,2,,,0,,,62,49
37200,note_on,,,,,0,0,1,,,0,,,83,63
37200,note_off,,,,,80,0,1,,,0,,,80,64
37280,note_on,,,,,0,0,1,,,0,,,80,58
37280,note_off,,,,,80,0,1,,,0,,,83,64
37300,set_tempo,,,,,260,1,0,451128,,,,,,
37360,note_on,,,,,0,0,1,,,0,,,88,54
37360,note_off,,,,,80,0,1,,,0,,,80,64
37360,note_on,,,,,0,0,2,,,0,,,61,47
37360,note_off,,,,,160,0,2,,,0,,,62,64
37380,control_change,,,,,20,0,2,,,0,64,0,,
37440,note_off,,,,,60,0,2,,,0,,,61,64
37440,note_off,,,,,0,0,2,,,0,,,52,64
37440,control_change,,,,,0,0,2,,,0,64,127,,
37440,note_on,,,,,0,0,2,,,0,,,45,49
37440,note_on,,,,,0,0,2,,,0,,,57,49
37440,note_off,,,,,80,0,1,,,0,,,88,64
37440,note_on,,,,,0,0,1,,,0,,,85,68
37460,set_tempo,,,,,160,1,0,468750,,,,,,
37520,note_off,,,,,80,0,1,,,0,,,85,64
37520,note_on,,,,,0,0,1,,,0,,,81,57
37600,note_on,,,,,0,0,1,,,0,,,76,49
37600,note_off,,,,,80,0,1,,,0,,,81,64
37620,set_tempo,,,,,160,1,0,487805,,,,,,
37680,note_on,,,,,0,0,1,,,0,,,73,41
37680,note_off,,,,,80,0,1,,,0,,,76,64
37760,note_on,,,,,0,0,1,,,0,,,74,39
37760,note_off,,,,,80,0,1,,,0,,,73,64
37800,note_off,,,,,360,0,2,,,0,,,57,64
37800,note_off,,,,,0,0,2,,,0,,,45,64
37800,set_tempo,,,,,180,1,0,535714,,,,,,
37820,set_tempo,,,,,20,1,0,540541,,,,,,
37840,note_off,,,,,80,0,1,,,0,,,74,64
37840,note_on,,,,,0,0,1,,,0,,,71,35
37860,set_tempo,,,,,40,1,0,566038,,,,,,
37880,set_tempo,,,,,20,1,0,612245,,,,,,
37920,note_on,,,,,120,0,2,,,0,,,57,34
37920,note_off,,,,,80,0,1,,,0,,,71,64
37920,note_on,,,,,0,0,1,,,0,,,69,31
37920,set_tempo,,,,,40,1,0,618557,,,,,,
37950,control_change,,,,,30,0,2,,,0,64,0,,
37960,set_tempo,,,,,40,1,0,571429,,,,,,
38010,note_off,,,,,60,0,2,,,0,,,57,64
38020,set_tempo,,,,,60,1,0,545455,,,,,,
38040,note_on,,,,,30,0,2,,,0,,,59,44
38040,note_off,,,,,120,0,1,,,0,,,69,64
38100,set_tempo,,,,,80,1,0,512821,,,,,,
38130,note_off,,,,,90,0,2,,,0,,,59,64
38160,note_on,,,,,30,0,2,,,0,,,61,51
38180,set_tempo,,,,,80,1,0,495868,,,,,,
38250,note_off,,,,,90,0,2,,,0,,,61,64
38280,note_on,,,,,30,0,2,,,0,,,62,59
38280,set_tempo,,,,,100,1,0,472441,,,,,,
38320,set_tempo,,,,,40,1,0,454545,,,,,,
38370,note_off,,,,,90,0,2,,,0,,,62,64
38400,note_on,,,,,30,0,2,,,0,,,64,63
38400,note_on,,,,,0,0,2,,,0,,,61,63
38400,note_on,,,,,360,0,1,,,0,,,69,42
38490,note_off,,,,,90,0,1,,,0,,,69,64
38520,note_on,,,,,30,0,1,,,0,,,71,31
38610,note_off,,,,,90,0,1,,,0,,,71,64
38640,note_on,,,,,30,0,1,,,0,,,73,38
38720,set_tempo,,,,,400,1,0,441176,,,,,,
38730,note_off,,,,,90,0,1,,,0,,,73,64
38760,note_off,,,,,360,0,2,,,0,,,64,64
38760,note_on,,,,,30,0,1,,,0,,,74,47
38760,note_on,,,,,0,0,2,,,0,,,64,54
38780,set_tempo,,,,,60,1,0,431655,,,,,,
38850,note_off,,,,,90,0,1,,,0,,,74,64
38880,note_on,,,,,0,0,2,,,0,,,58,57
38880,note_off,,,,,120,0,2,,,0,,,64,64
38880,note_off,,,,,0,0,2,,,0,,,61,64
38880,note_on,,,,,0,0,2,,,0,,,66,77
38880,control_change,,,,,0,0,2,,,0,64,127,,
38880,note_on,,,,,30,0,1,,,0,,,76,54
38960,note_on,,,,,0,0,1,,,0,,,75,46
38960,note_off,,,,,80,0,1,,,0,,,76,64
39040,note_off,,,,,80,0,1,,,0,,,75,64
39040,note_on,,,,,0,0,1,,,0,,,76,43
39120,note_off,,,,,80,0,1,,,0,,,76,64
39120,note_on,,,,,0,0,1,,,0,,,78,43
39200,note_off,,,,,80,0,1,,,0,,,78,64
39200,note_on,,,,,0,0,1,,,0,,,85,47
39280,note_off,,,,,80,0,1,,,0,,,85,64
39280,note_on,,,,,0,0,1,,,0,,,77,56
39300,control_change,,,,,420,0,2,,,0,64,0,,
39360,note_on,,,,,0,0,1,,,0,,,78,62
39360,note_on,,,,,0,0,2,,,0,,,64,65
39360,note_off,,,,,60,0,2,,,0,,,66,64
39360,note_on,,,,,0,0,2,,,0,,,59,42
39360,note_off,,,,,0,0,2,,,0,,,58,64
39360,note_off,,,,,80,0,1,,,0,,,77,64
39440,note_on,,,,,0,0,1,,,0,,,77,60
39440,note_off,,,,,80,0,1,,,0,,,78,64
39520,note_on,,,,,0,0,1,,,0,,,78,56
39520,note_off,,,,,80,0,1,,,0,,,77,64
39600,note_off,,,,,80,0,1,,,0,,,78,64
39600,note_off,,,,,240,0,2,,,0,,,64,64
39600,note_on,,,,,0,0,2,,,0,,,63,47
39600,set_tempo,,,,,820,1,0,437956,,,,,,
39600,note_on,,,,,0,0,1,,,0,,,79,53
39620,set_tempo,,,,,20,1,0,441176,,,,,,
39680,note_on,,,,,0,0,1,,,0,,,80,46
39680,note_off,,,,,80,0,1,,,0,,,79,64
39720,note_off,,,,,120,0,2,,,0,,,63,64
39720,note_off,,,,,0,0,2,,,0,,,59,64
39760,note_on,,,,,0,0,1,,,0,,,82,39
39760,note_off,,,,,80,0,1,,,0,,,80,64
39820,set_tempo,,,,,200,1,0,451128,,,,,,
39840,note_on,,,,,0,0,1,,,0,,,83,35
39840,note_off,,,,,80,0,1,,,0,,,82,64
39840,note_on,,,,,120,0,2,,,0,,,59,47
39920,note_off,,,,,80,0,1,,,0,,,83,64
40200,note_off,,,,,360,0,2,,,0,,,59,64
40200,note_on,,,,,0,0,2,,,0,,,61,42
40320,note_off,,,,,120,0,2,,,0,,,61,64
40320,note_on,,,,,0,0,2,,,0,,,62,60
40440,note_on,,,,,120,0,2,,,0,,,54,49
40440,note_on,,,,,520,0,1,,,0,,,74,53
40560,note_off,,,,,120,0,2,,,0,,,54,64
40560,note_on,,,,,0,0,2,,,0,,,56,45
40560,note_on,,,,,0,0,1,,,0,,,76,46
40560,note_off,,,,,120,0,1,,,0,,,74,64
40680,note_on,,,,,0,0,1,,,0,,,78,43
40680,note_off,,,,,120,0,1,,,0,,,76,64
40680,note_off,,,,,120,0,2,,,0,,,56,64
40680,note_on,,,,,0,0,2,,,0,,,57,40
40720,set_tempo,,,,,900,1,0,437956,,,,,,
40800,control_change,,,,,0,0,2,,,0,64,127,,
40800,note_on,,,,,0,0,2,,,0,,,56,57
40800,note_off,,,,,120,0,1,,,0,,,78,64
40800,note_on,,,,,0,0,1,,,0,,,76,35
40800,note_off,,,,,0,0,2,,,0,,,62,64
40800,note_on,,,,,0,0,2,,,0,,,64,57
40800,note_off,,,,,120,0,2,,,0,,,57,64
40880,note_on,,,,,0,0,1,,,0,,,80,40
40880,note_off,,,,,80,0,1,,,0,,,76,64
40960,note_off,,,,,80,0,1,,,0,,,80,64
40960,note_on,,,,,0,0,1,,,0,,,81,42
40980,set_tempo,,,,,260,1,0,428571,,,,,,
41040,note_off,,,,,80,0,1,,,0,,,81,64
41040,note_on,,,,,0,0,1,,,0,,,83,44
41120,note_off,,,,,80,0,1,,,0,,,83,64
41120,note_on,,,,,0,0,1,,,0,,,80,47
41200,note_on,,,,,0,0,1,,,0,,,74,50
41200,note_off,,,,,80,0,1,,,0,,,80,64
41220,control_change,,,,,420,0,2,,,0,64,0,,
41280,note_off,,,,,80,0,1,,,0,,,74,64
41280,note_on,,,,,0,0,2,,,0,,,57,49
41280,note_off,,,,,60,0,2,,,0,,,56,64
41280,note_off,,,,,0,0,2,,,0,,,64,64
41280,note_on,,,,,0,0,1,,,0,,,73,54
41360,note_off,,,,,80,0,1,,,0,,,73,64
41360,note_on,,,,,0,0,1,,,0,,,71,53
41440,note_off,,,,,80,0,1,,,0,,,71,64
41440,note_on,,,,,0,0,1,,,0,,,73,51
41460,set_tempo,,,,,480,1,0,434783,,,,,,
41520,note_on,,,,,0,0,1,,,0,,,74,47
41520,note_off,,,,,80,0,1,,,0,,,73,64
41560,set_tempo,,,,,100,1,0,454545,,,,,,
41600,note_on,,,,,0,0,1,,,0,,,73,44
41600,note_off,,,,,80,0,1,,,0,,,74,64
41640,note_on,,,,,360,0,2,,,0,,,59,49
41680,note_off,,,,,80,0,1,,,0,,,73,64
41680,note_on,,,,,0,0,1,,,0,,,74,41
41720,set_tempo,,,,,160,1,0,468750,,,,,,
41760,note_off,,,,,120,0,2,,,0,,,59,64
41760,note_on,,,,,0,0,2,,,0,,,61,49
41760,note_off,,,,,80,0,1,,,0,,,74,64
41760,note_on,,,,,0,0,1,,,0,,,76,40
41840,note_off,,,,,80,0,1,,,0,,,76,64
41840,note_on,,,,,0,0,1,,,0,,,78,40
41860,set_tempo,,,,,140,1,0,472441,,,,,,
41920,set_tempo,,,,,60,1,0,487805,,,,,,
41920,note_off,,,,,80,0,1,,,0,,,78,64
41920,note_on,,,,,0,0,1,,,0,,,80,40
42000,note_off,,,,,80,0,1,,,0,,,80,64
42000,note_on,,,,,0,0,1,,,0,,,81,43
42080,note_on,,,,,0,0,1,,,0,,,76,46
42080,note_off,,,,,80,0,1,,,0,,,81,64
42080,set_tempo,,,,,160,1,0,495868,,,,,,
42100,set_tempo,,,,,20,1,0,500000,,,,,,
42160,note_on,,,,,0,0,1,,,0,,,73,50
42160,note_off,,,,,80,0,1,,,0,,,76,64
42180,note_off,,,,,420,0,2,,,0,,,61,64
42180,note_off,,,,,0,0,2,,,0,,,57,64
42200,set_tempo,,,,,100,1,0,495868,,,,,,
42220,note_off,,,,,60,0,1,,,0,,,73,64
42240,note_on,,,,,20,0,1,,,0,,,78,54
42240,note_on,,,,,60,0,2,,,0,,,50,56
42240,control_change,,,,,0,0,2,,,0,64,127,,
42240,note_on,,,,,0,0,2,,,0,,,59,56
42320,set_tempo,,,,,120,1,0,480000,,,,,,
42320,note_on,,,,,0,0,1,,,0,,,71,45
42320,note_off,,,,,80,0,1,,,0,,,78,64
42400,note_on,,,,,0,0,1,,,0,,,78,43
42400,note_off,,,,,80,0,1,,,0,,,71,64
42420,control_change,,,,,180,0,2,,,0,64,0,,
42442,note_off,,,,,22,0,2,,,0,,,59,64
42460,set_tempo,,,,,140,1,0,465116,,,,,,
42480,control_change,,,,,0,0,2,,,0,64,127,,
42480,note_on,,,,,38,0,2,,,0,,,59,50
42480,note_off,,,,,80,0,1,,,0,,,78,64
42480,note_on,,,,,0,0,1,,,0,,,81,57
42540,set_tempo,,,,,80,1,0,461538,,,,,,
42560,note_off,,,,,80,0,1,,,0,,,81,64
42560,note_on,,,,,0,0,1,,,0,,,71,55
42640,note_off,,,,,80,0,1,,,0,,,71,64
42640,note_on,,,,,0,0,1,,,0,,,81,49
42660,note_off,,,,,180,0,2,,,0,,,59,64
42660,control_change,,,,,0,0,2,,,0,64,0,,
42660,set_tempo,,,,,120,1,0,454545,,,,,,
42720,note_on,,,,,0,0,2,,,0,,,59,59
42720,note_off,,,,,60,0,2,,,0,,,50,64
42720,note_on,,,,,0,0,2,,,0,,,52,59
42720,note_on,,,,,0,0,1,,,0,,,80,60
42720,control_change,,,,,0,0,2,,,0,64,127,,
42720,note_off,,,,,80,0,1,,,0,,,81,64
42780,set_tempo,,,,,120,1,0,441176,,,,,,
42800,note_on,,,,,0,0,1,,,0,,,71,57
42800,note_off,,,,,80,0,1,,,0,,,80,64
42880,note_off,,,,,80,0,1,,,0,,,71,64
42880,note_on,,,,,0,0,1,,,0,,,80,51
42900,note_off,,,,,180,0,2,,,0,,,59,64
42960,set_tempo,,,,,180,1,0,425532,,,,,,
42960,note_on,,,,,0,0,1,,,0,,,83,66
42960,note_off,,,,,80,0,1,,,0,,,80,64
42960,note_on,,,,,60,0,2,,,0,,,62,52
43040,note_off,,,,,80,0,1,,,0,,,83,64
43040,note_on,,,,,0,0,1,,,0,,,80,57
43120,note_on,,,,,0,0,1,,,0,,,83,49
43120,note_off,,,,,160,0,2,,,0,,,62,64
43120,note_on,,,,,0,0,2,,,0,,,61,62
43120,note_off,,,,,80,0,1,,,0,,,80,64
43140,control_change,,,,,20,0,2,,,0,64,0,,
43200,note_off,,,,,0,0,2,,,0,,,52,64
43200,note_on,,,,,0,0,2,,,0,,,61,66
43200,control_change,,,,,0,0,2,,,0,64,127,,
43200,note_on,,,,,0,0,1,,,0,,,81,67
43200,note_off,,,,,60,0,2,,,0,,,61,64
43200,note_on,,,,,0,0,2,,,0,,,57,66
43200,note_off,,,,,80,0,1,,,0,,,83,64
43280,note_off,,,,,80,0,1,,,0,,,81,64
43280,note_on,,,,,0,0,1,,,0,,,83,49
43360,set_tempo,,,,,400,1,0,431655,,,,,,
43360,note_on,,,,,0,0,1,,,0,,,80,55
43360,note_off,,,,,80,0,1,,,0,,,83,64
43440,note_off,,,,,80,0,1,,,0,,,80,64
43440,note_on,,,,,0,0,1,,,0,,,81,58
43440,set_tempo,,,,,80,1,0,444444,,,,,,
43520,note_off,,,,,80,0,1,,,0,,,81,64
43520,note_on,,,,,0,0,1,,,0,,,83,61
43600,note_off,,,,,80,0,1,,,0,,,83,64
43600,note_on,,,,,0,0,1,,,0,,,84,65
43620,control_change,,,,,0,0,2,,,0,64,0,,
43620,note_off,,,,,0,0,2,,,0,,,61,64
43620,note_off,,,,,420,0,2,,,0,,,57,64
43680,note_off,,,,,80,0,1,,,0,,,84,64
43680,note_on,,,,,60,0,2,,,0,,,64,80
43680,note_on,,,,,0,0,1,,,0,,,85,67
43680,control_change,,,,,0,0,2,,,0,64,127,,
43760,note_off,,,,,80,0,1,,,0,,,85,64
43760,note_on,,,,,0,0,1,,,0,,,86,71
43760,set_tempo,,,,,320,1,0,454545,,,,,,
43840,note_off,,,,,80,0,1,,,0,,,86,64
43840,note_on,,,,,0,0,1,,,0,,,88,75
43920,note_off,,,,,80,0,1,,,0,,,88,64
43920,note_on,,,,,0,0,1,,,0,,,90,80
44000,set_tempo,,,,,240,1,0,468750,,,,,,
44000,note_off,,,,,80,0,1,,,0,,,90,64
44000,note_on,,,,,0,0,1,,,0,,,92,83
44000,note_on,,,,,0,0,2,,,0,,,62,59
44000,note_off,,,,,320,0,2,,,0,,,64,64
44040,control_change,,,,,40,0,2,,,0,64,0,,
44080,note_off,,,,,80,0,1,,,0,,,92,64
44080,note_on,,,,,0,0,1,,,0,,,93,86
44080,note_on,,,,,0,0,2,,,0,,,61,55
44080,note_off,,,,,40,0,2,,,0,,,62,64
44120,set_tempo,,,,,120,1,0,483871,,,,,,
44160,note_on,,,,,0,0,2,,,0,,,59,66
44160,note_on,,,,,0,0,1,,,0,,,78,72
44160,note_off,,,,,80,0,1,,,0,,,93,64
44160,note_on,,,,,0,0,2,,,0,,,50,66
44160,control_change,,,,,0,0,2,,,0,64,127,,
44160,note_off,,,,,80,0,2,,,0,,,61,64
44240,note_off,,,,,80,0,1,,,0,,,78,64
44240,note_on,,,,,0,0,1,,,0,,,71,62
44280,set_tempo,,,,,160,1,0,451128,,,,,,
44320,note_on,,,,,0,0,1,,,0,,,78,51
44320,note_off,,,,,80,0,1,,,0,,,71,64
44340,control_change,,,,,180,0,2,,,0,64,0,,
44362,note_off,,,,,22,0,2,,,0,,,59,64
44400,note_on,,,,,0,0,2,,,0,,,51,70
44400,set_tempo,,,,,120,1,0,437956,,,,,,
44400,note_on,,,,,0,0,2,,,0,,,59,70
44400,note_on,,,,,0,0,1,,,0,,,81,70
44400,note_off,,,,,38,0,2,,,0,,,50,64
44400,control_change,,,,,0,0,2,,,0,64,127,,
44400,note_off,,,,,80,0,1,,,0,,,78,64
44480,note_off,,,,,80,0,1,,,0,,,81,64
44480,note_on,,,,,0,0,1,,,0,,,71,65
44560,note_off,,,,,80,0,1,,,0,,,71,64
44560,note_on,,,,,0,0,1,,,0,,,81,59
44580,control_change,,,,,0,0,2,,,0,64,0,,
44580,note_off,,,,,180,0,2,,,0,,,59,64
44640,control_change,,,,,0,0,2,,,0,64,127,,
44640,note_on,,,,,0,0,2,,,0,,,59,82
44640,note_on,,,,,0,0,2,,,0,,,52,82
44640,note_off,,,,,60,0,2,,,0,,,51,64
44640,note_off,,,,,80,0,1,,,0,,,81,64
44640,note_on,,,,,0,0,1,,,0,,,80,95
44720,note_off,,,,,80,0,1,,,0,,,80,64
44720,set_tempo,,,,,320,1,0,428571,,,,,,
44720,note_on,,,,,0,0,1,,,0,,,71,83
44800,note_on,,,,,0,0,1,,,0,,,80,75
44800,note_off,,,,,80,0,1,,,0,,,71,64
44820,note_off,,,,,180,0,2,,,0,,,59,64
44880,note_on,,,,,60,0,2,,,0,,,62,95
44880,note_on,,,,,0,0,1,,,0,,,83,85
44880,set_tempo,,,,,160,1,0,422535,,,,,,
44880,note_off,,,,,80,0,1,,,0,,,80,64
44960,note_off,,,,,80,0,1,,,0,,,83,64
44960,note_on,,,,,0,0,1,,,0,,,80,95
45040,note_off,,,,,80,0,1,,,0,,,80,64
45040,note_on,,,,,0,0,1,,,0,,,88,105
45040,note_on,,,,,0,0,2,,,0,,,61,85
45040,note_off,,,,,160,0,2,,,0,,,62,64
45060,control_change,,,,,20,0,2,,,0,64,0,,
45060,set_tempo,,,,,180,1,0,410959,,,,,,
45120,note_on,,,,,0,0,2,,,0,,,61,106
45120,control_change,,,,,0,0,2,,,0,64,127,,
45120,note_off,,,,,60,0,2,,,0,,,61,64
45120,note_on,,,,,0,0,2,,,0,,,53,106
45120,note_off,,,,,0,0,2,,,0,,,52,64
45120,note_off,,,,,80,0,1,,,0,,,88,64
45120,note_on,,,,,0,0,1,,,0,,,85,114
45180,set_tempo,,,,,120,1,0,422535,,,,,,
45200,note_off,,,,,80,0,1,,,0,,,85,64
45200,note_on,,,,,0,0,1,,,0,,,80,103
45260,set_tempo,,,,,80,1,0,437956,,,,,,
45280,note_on,,,,,0,0,1,,,0,,,92,95
45280,note_off,,,,,80,0,1,,,0,,,80,64
45360,note_on,,,,,0,0,1,,,0,,,89,90
45360,note_off,,,,,80,0,1,,,0,,,92,64
45440,note_on,,,,,0,0,1,,,0,,,85,90
45440,set_tempo,,,,,180,1,0,444444,,,,,,
45440,note_off,,,,,80,0,1,,,0,,,89,64
45460,set_tempo,,,,,20,1,0,454545,,,,,,
45520,note_on,,,,,0,0,1,,,0,,,97,93
45520,note_off,,,,,80,0,1,,,0,,,85,64
45580,set_tempo,,,,,120,1,0,468750,,,,,,
45600,note_on,,,,,0,0,1,,,0,,,92,95
45600,note_off,,,,,80,0,1,,,0,,,97,64
45630,control_change,,,,,510,0,2,,,0,64,0,,
45680,note_off,,,,,80,0,1,,,0,,,92,64
45680,note_on,,,,,0,0,1,,,0,,,89,101
45760,note_on,,,,,0,0,1,,,0,,,85,105
45760,note_off,,,,,80,0,1,,,0,,,89,64
45840,note_on,,,,,0,0,2,,,0,,,59,80
45840,note_off,,,,,80,0,1,,,0,,,85,64
45840,note_off,,,,,210,0,2,,,0,,,61,64
45840,note_on,,,,,0,0,1,,,0,,,73,110
45920,note_on,,,,,0,0,1,,,0,,,85,98
45920,note_off,,,,,80,0,1,,,0,,,73,64
46000,note_off,,,,,160,0,2,,,0,,,59,64
46000,note_on,,,,,0,0,2,,,0,,,61,97
46000,note_off,,,,,80,0,1,,,0,,,85,64
46000,note_on,,,,,0,0,1,,,0,,,73,81
46080,note_off,,,,,80,0,2,,,0,,,61,64
46080,note_on,,,,,0,0,2,,,0,,,62,92
46080,note_off,,,,,0,0,2,,,0,,,53,64
46080,note_on,,,,,0,0,2,,,0,,,54,92
46080,note_on,,,,,0,0,1,,,0,,,81,92
46080,note_off,,,,,80,0,1,,,0,,,73,64
46160,note_off,,,,,80,0,1,,,0,,,81,64
46160,set_tempo,,,,,580,1,0,461538,,,,,,
46160,note_on,,,,,0,0,1,,,0,,,78,58
46240,note_off,,,,,80,0,1,,,0,,,78,64
46240,note_on,,,,,0,0,1,,,0,,,86,64
46290,note_off,,,,,210,0,2,,,0,,,62,64
46320,note_off,,,,,80,0,1,,,0,,,86,64
46320,note_on,,,,,0,0,1,,,0,,,81,72
46320,note_on,,,,,30,0,2,,,0,,,62,73
46320,set_tempo,,,,,160,1,0,444444,,,,,,
46400,note_on,,,,,0,0,1,,,0,,,78,76
46400,note_off,,,,,80,0,1,,,0,,,81,64
46480,note_off,,,,,80,0,1,,,0,,,78,64
46480,note_on,,,,,0,0,1,,,0,,,90,84
46480,set_tempo,,,,,160,1,0,434783,,,,,,
46530,note_off,,,,,210,0,2,,,0,,,62,64
46530,note_off,,,,,0,0,2,,,0,,,54,64
46560,note_on,,,,,0,0,2,,,0,,,62,89
46560,note_on,,,,,0,0,1,,,0,,,86,96
46560,note_off,,,,,80,0,1,,,0,,,90,64
46560,note_on,,,,,30,0,2,,,0,,,54,89
46640,note_off,,,,,80,0,1,,,0,,,86,64
46640,note_on,,,,,0,0,1,,,0,,,81,78
46660,set_tempo,,,,,180,1,0,425532,,,,,,
46720,note_off,,,,,80,0,1,,,0,,,81,64
46720,note_on,,,,,0,0,1,,,0,,,93,72
46770,note_off,,,,,210,0,2,,,0,,,62,64
46800,note_off,,,,,80,0,1,,,0,,,93,64
46800,note_on,,,,,0,0,1,,,0,,,78,70
46800,note_on,,,,,30,0,2,,,0,,,66,102
46800,set_tempo,,,,,140,1,0,422535,,,,,,
46880,note_on,,,,,0,0,1,,,0,,,80,68
46880,note_off,,,,,80,0,1,,,0,,,78,64
46960,note_on,,,,,0,0,1,,,0,,,81,90
46960,note_off,,,,,80,0,1,,,0,,,80,64
46980,note_on,,,,,0,0,2,,,0,,,64,90
46980,note_off,,,,,180,0,2,,,0,,,66,64
47010,note_off,,,,,30,0,2,,,0,,,54,64
47024,note_off,,,,,14,0,2,,,0,,,64,64
47040,note_on,,,,,0,0,2,,,0,,,64,108
47040,control_change,,,,,16,0,2,,,0,64,127,,
47040,note_on,,,,,0,0,1,,,0,,,83,104
47040,note_off,,,,,80,0,1,,,0,,,81,64
47040,note_on,,,,,0,0,2,,,0,,,56,108
47120,note_off,,,,,80,0,1,,,0,,,83,64
47120,note_on,,,,,0,0,1,,,0,,,76,92
47180,set_tempo,,,,,380,1,0,431655,,,,,,
47200,note_off,,,,,80,0,1,,,0,,,76,64
47200,note_on,,,,,0,0,1,,,0,,,88,80
47280,note_on,,,,,0,0,1,,,0,,,83,105
47280,note_off,,,,,80,0,1,,,0,,,88,64
47360,note_on,,,,,0,0,1,,,0,,,80,101
47360,note_off,,,,,80,0,1,,,0,,,83,64
47440,note_on,,,,,0,0,1,,,0,,,92,95
47440,note_off,,,,,80,0,1,,,0,,,80,64
47480,set_tempo,,,,,300,1,0,444444,,,,,,
47520,note_on,,,,,0,0,1,,,0,,,88,108
47520,note_off,,,,,80,0,1,,,0,,,92,64
47600,note_off,,,,,80,0,1,,,0,,,88,64
47600,note_on,,,,,0,0,1,,,0,,,83,103
47680,note_off,,,,,80,0,1,,,0,,,83,64
47680,note_on,,,,,0,0,1,,,0,,,95,94
47760,note_off,,,,,80,0,1,,,0,,,95,64
47760,set_tempo,,,,,280,1,0,451128,,,,,,
47760,note_on,,,,,0,0,1,,,0,,,92,119
47780,set_tempo,,,,,20,1,0,461538,,,,,,
47840,note_off,,,,,80,0,1,,,0,,,92,64
47840,note_on,,,,,0,0,1,,,0,,,88,109
47920,note_off,,,,,80,0,1,,,0,,,88,64
47920,note_on,,,,,0,0,1,,,0,,,100,99
47940,control_change,,,,,900,0,2,,,0,64,0,,
47972,note_off,,,,,32,0,2,,,0,,,56,64
47972,note_off,,,,,0,0,2,,,0,,,64,64
47980,set_tempo,,,,,200,1,0,472441,,,,,,
48000,note_on,,,,,28,0,2,,,0,,,50,75
48000,note_on,,,,,0,0,1,,,0,,,76,112
48000,note_on,,,,,0,0,2,,,0,,,52,75
48000,note_on,,,,,0,0,2,,,0,,,56,75
48000,note_off,,,,,80,0,1,,,0,,,100,64
48000,note_on,,,,,0,0,2,,,0,,,59,75
48000,control_change,,,,,0,0,2,,,0,64,127,,
48080,note_off,,,,,80,0,1,,,0,,,76,64
48080,note_on,,,,,0,0,1,,,0,,,64,80
48160,control_change,,,,,160,0,2,,,0,64,0,,
48160,note_on,,,,,0,0,1,,,0,,,76,86
48160,note_off,,,,,80,0,1,,,0,,,64,64
48180,note_off,,,,,0,0,2,,,0,,,56,64
48180,note_off,,,,,0,0,2,,,0,,,52,64
48180,note_off,,,,,20,0,2,,,0,,,59,64
48180,note_off,,,,,0,0,2,,,0,,,50,64
48240,note_on,,,,,0,0,2,,,0,,,52,75
48240,control_change,,,,,0,0,2,,,0,64,127,,
48240,note_on,,,,,0,0,2,,,0,,,59,75
48240,note_on,,,,,60,0,2,,,0,,,50,75
48240,note_on,,,,,0,0,2,,,0,,,56,75
48240,note_off,,,,,80,0,1,,,0,,,76,64
48240,note_on,,,,,0,0,1,,,0,,,80,92
48320,note_off,,,,,80,0,1,,,0,,,80,64
48320,note_on,,,,,0,0,1,,,0,,,68,98
48400,note_off,,,,,80,0,1,,,0,,,68,64
48400,note_on,,,,,0,0,1,,,0,,,80,106
48400,control_change,,,,,160,0,2,,,0,64,0,,
48420,note_off,,,,,20,0,2,,,0,,,52,64
48420,note_off,,,,,0,0,2,,,0,,,59,64
48420,note_off,,,,,0,0,2,,,0,,,56,64
48420,note_off,,,,,0,0,2,,,0,,,50,64
48480,note_on,,,,,0,0,2,,,0,,,56,87
48480,note_on,,,,,0,0,2,,,0,,,50,87
48480,note_on,,,,,0,0,2,,,0,,,59,87
48480,note_on,,,,,0,0,1,,,0,,,83,108
48480,note_off,,,,,80,0,1,,,0,,,80,64
48480,control_change,,,,,60,0,2,,,0,64,127,,
48480,note_on,,,,,0,0,2,,,0,,,52,87
48500,set_tempo,,,,,520,1,0,458015,,,,,,
48560,note_off,,,,,80,0,1,,,0,,,83,64
48560,note_on,,,,,0,0,1,,,0,,,71,112
48620,set_tempo,,,,,120,1,0,451128,,,,,,
48640,note_off,,,,,80,0,1,,,0,,,71,64
48640,note_on,,,,,0,0,1,,,0,,,83,116
48640,control_change,,,,,160,0,2,,,0,64,0,,
48660,note_off,,,,,0,0,2,,,0,,,52,64
48660,note_off,,,,,0,0,2,,,0,,,56,64
48660,note_off,,,,,0,0,2,,,0,,,50,64
48660,note_off,,,,,20,0,2,,,0,,,59,64
48720,note_on,,,,,0,0,2,,,0,,,52,98
48720,note_on,,,,,60,0,2,,,0,,,50,98
48720,note_on,,,,,0,0,2,,,0,,,59,98
48720,note_on,,,,,0,0,1,,,0,,,88,120
48720,note_off,,,,,80,0,1,,,0,,,83,64
48720,note_on,,,,,0,0,2,,,0,,,56,98
48720,control_change,,,,,0,0,2,,,0,64,127,,
48760,set_tempo,,,,,140,1,0,437956,,,,,,
48800,note_on,,,,,0,0,1,,,0,,,76,116
48800,note_off,,,,,80,0,1,,,0,,,88,64
48880,control_change,,,,,160,0,2,,,0,64,0,,
48880,note_off,,,,,80,0,1,,,0,,,76,64
48880,note_on,,,,,0,0,1,,,0,,,88,122
48900,note_off,,,,,0,0,2,,,0,,,59,64
48900,note_off,,,,,20,0,2,,,0,,,56,64
48900,note_off,,,,,0,0,2,,,0,,,50,64
48900,note_off,,,,,0,0,2,,,0,,,52,64
48960,note_on,,,,,0,0,2,,,0,,,57,114
48960,note_on,,,,,0,0,2,,,0,,,52,114
48960,note_on,,,,,0,0,2,,,0,,,61,114
48960,control_change,,,,,60,0,2,,,0,64,127,,
48960,note_off,,,,,80,0,1,,,0,,,88,64
48960,note_on,,,,,0,0,1,,,0,,,76,127
48960,note_on,,,,,0,0,2,,,0,,,49,114
49040,note_off,,,,,80,0,1,,,0,,,76,64
49040,note_on,,,,,0,0,1,,,0,,,88,124
49120,note_on,,,,,0,0,1,,,0,,,85,100
49120,note_off,,,,,80,0,1,,,0,,,88,64
49200,note_off,,,,,80,0,1,,,0,,,85,64
49200,note_on,,,,,0,0,1,,,0,,,81,92
49280,note_off,,,,,80,0,1,,,0,,,81,64
49280,note_on,,,,,0,0,1,,,0,,,76,84
49360,note_on,,,,,0,0,1,,,0,,,72,76
49360,note_off,,,,,80,0,1,,,0,,,76,64
49440,note_off,,,,,0,0,2,,,0,,,61,64
49440,control_change,,,,,0,0,2,,,0,64,0,,
49440,note_on,,,,,0,0,2,,,0,,,61,70
49440,note_on,,,,,0,0,2,,,0,,,69,70
49440,note_off,,,,,0,0,2,,,0,,,52,64
49440,note_off,,,,,80,0,1,,,0,,,72,64
49440,note_off,,,,,480,0,2,,,0,,,49,64
49440,note_on,,,,,0,0,1,,,0,,,73,70
49440,note_off,,,,,0,0,2,,,0,,,57,64
49520,note_on,,,,,0,0,1,,,0,,,75,70
49520,note_off,,,,,80,0,1,,,0,,,73,64
49600,note_on,,,,,0,0,1,,,0,,,76,80
49600,note_off,,,,,80,0,1,,,0,,,75,64
49620,note_off,,,,,180,0,2,,,0,,,69,64
49620,note_off,,,,,0,0,2,,,0,,,61,64
49680,note_on,,,,,60,0,2,,,0,,,57,88
49680,note_on,,,,,0,0,2,,,0,,,66,88
49680,note_on,,,,,0,0,1,,,0,,,78,88
49680,note_off,,,,,80,0,1,,,0,,,76,64
49760,note_on,,,,,0,0,1,,,0,,,80,96
49760,note_off,,,,,80,0,1,,,0,,,78,64
49840,note_on,,,,,0,0,1,,,0,,,81,102
49840,note_off,,,,,80,0,1,,,0,,,80,64
49860,note_off,,,,,0,0,2,,,0,,,57,64
49860,note_off,,,,,180,0,2,,,0,,,66,64
49920,note_on,,,,,0,0,1,,,0,,,83,104
49920,note_off,,,,,80,0,1,,,0,,,81,64
49920,control_change,,,,,0,0,2,,,0,64,127,,
49920,note_on,,,,,60,0,2,,,0,,,47,98
49940,note_on,,,,,20,0,2,,,0,,,56,103
49960,note_on,,,,,20,0,2,,,0,,,64,111
50000,note_on,,,,,0,0,1,,,0,,,80,98
50000,note_off,,,,,80,0,1,,,0,,,83,64
50080,note_on,,,,,0,0,1,,,0,,,76,88
50080,note_off,,,,,80,0,1,,,0,,,80,64
50160,note_on,,,,,0,0,1,,,0,,,71,88
50160,note_off,,,,,80,0,1,,,0,,,76,64
50220,note_off,,,,,260,0,2,,,0,,,47,64
50240,set_tempo,,,,,1480,1,0,454545,,,,,,
50240,note_off,,,,,80,0,1,,,0,,,71,64
50240,note_off,,,,,20,0,2,,,0,,,56,64
50240,note_on,,,,,0,0,1,,,0,,,68,72
50260,note_off,,,,,20,0,2,,,0,,,64,64
50280,note_on,,,,,0,0,2,,,0,,,64,77
50280,note_on,,,,,20,0,2,,,0,,,56,77
50320,note_on,,,,,0,0,1,,,0,,,71,58
50320,note_off,,,,,80,0,1,,,0,,,68,64
50340,control_change,,,,,60,0,2,,,0,64,0,,
50400,note_on,,,,,0,0,2,,,0,,,59,90
50400,note_on,,,,,0,0,1,,,0,,,80,84
50400,note_off,,,,,80,0,1,,,0,,,71,64
50400,control_change,,,,,0,0,2,,,0,64,127,,
50400,note_on,,,,,0,0,2,,,0,,,68,90
50400,note_on,,,,,0,0,2,,,0,,,64,90
50400,note_off,,,,,0,0,2,,,0,,,56,64
50400,note_off,,,,,60,0,2,,,0,,,64,64
50400,set_tempo,,,,,160,1,0,468750,,,,,,
50480,note_off,,,,,80,0,1,,,0,,,80,64
50480,note_on,,,,,0,0,1,,,0,,,71,70
50540,set_tempo,,,,,140,1,0,483871,,,,,,
50560,note_on,,,,,0,0,1,,,0,,,76,60
50560,note_off,,,,,80,0,1,,,0,,,71,64
50640,note_off,,,,,240,0,2,,,0,,,68,64
50640,note_off,,,,,0,0,2,,,0,,,64,64
50640,note_on,,,,,0,0,2,,,0,,,66,74
50640,note_on,,,,,0,0,2,,,0,,,63,74
50640,note_on,,,,,0,0,1,,,0,,,78,74
50640,note_off,,,,,80,0,1,,,0,,,76,64
50720,set_tempo,,,,,180,1,0,495868,,,,,,
50720,note_on,,,,,0,0,1,,,0,,,71,70
50720,note_off,,,,,80,0,1,,,0,,,78,64
50800,note_off,,,,,80,0,1,,,0,,,71,64
50800,note_on,,,,,0,0,1,,,0,,,75,56
50820,control_change,,,,,180,0,2,,,0,64,0,,
50850,note_off,,,,,0,0,2,,,0,,,59,64
50850,note_off,,,,,0,0,2,,,0,,,66,64
50850,note_off,,,,,30,0,2,,,0,,,63,64
50880,control_change,,,,,0,0,2,,,0,64,127,,
50880,note_on,,,,,0,0,2,,,0,,,50,75
50880,note_on,,,,,0,0,2,,,0,,,52,75
50880,note_on,,,,,30,0,2,,,0,,,56,75
50880,note_on,,,,,0,0,1,,,0,,,64,84
50880,note_on,,,,,0,0,2,,,0,,,59,75
50880,note_off,,,,,80,0,1,,,0,,,75,64
50900,set_tempo,,,,,180,1,0,483871,,,,,,
50960,note_off,,,,,80,0,1,,,0,,,64,64
50960,note_on,,,,,0,0,1,,,0,,,78,80
51040,note_off,,,,,80,0,1,,,0,,,78,64
51040,note_on,,,,,0,0,1,,,0,,,76,70
51040,control_change,,,,,160,0,2,,,0,64,0,,
51040,set_tempo,,,,,140,1,0,472441,,,,,,
51060,note_off,,,,,0,0,2,,,0,,,56,64
51060,note_off,,,,,0,0,2,,,0,,,52,64
51060,note_off,,,,,20,0,2,,,0,,,50,64
51060,note_off,,,,,0,0,2,,,0,,,59,64
51120,control_change,,,,,0,0,2,,,0,64,127,,
51120,note_on,,,,,0,0,2,,,0,,,59,72
51120,note_on,,,,,0,0,2,,,0,,,56,72
51120,note_on,,,,,0,0,2,,,0,,,52,72
51120,note_on,,,,,60,0,2,,,0,,,50,72
51120,note_off,,,,,80,0,1,,,0,,,76,64
51120,note_on,,,,,0,0,1,,,0,,,68,94
51180,set_tempo,,,,,140,1,0,458015,,,,,,
51200,note_on,,,,,0,0,1,,,0,,,81,84
51200,note_off,,,,,80,0,1,,,0,,,68,64
51280,control_change,,,,,160,0,2,,,0,64,0,,
51280,note_off,,,,,80,0,1,,,0,,,81,64
51280,note_on,,,,,0,0,1,,,0,,,80,76
51300,note_off,,,,,0,0,2,,,0,,,52,64
51300,note_off,,,,,0,0,2,,,0,,,56,64
51300,note_off,,,,,0,0,2,,,0,,,50,64
51300,note_off,,,,,20,0,2,,,0,,,59,64
51360,note_on,,,,,60,0,2,,,0,,,59,83
51360,note_on,,,,,0,0,2,,,0,,,56,83
51360,note_on,,,,,0,0,2,,,0,,,52,83
51360,note_on,,,,,0,0,2,,,0,,,50,83
51360,control_change,,,,,0,0,2,,,0,64,127,,
51360,note_off,,,,,80,0,1,,,0,,,80,64
51360,note_on,,,,,0,0,1,,,0,,,71,105
51420,set_tempo,,,,,240,1,0,447761,,,,,,
51440,note_off,,,,,80,0,1,,,0,,,71,64
51440,note_on,,,,,0,0,1,,,0,,,85,100
51520,note_off,,,,,80,0,1,,,0,,,85,64
51520,note_on,,,,,0,0,1,,,0,,,83,95
51520,control_change,,,,,160,0,2,,,0,64,0,,
51540,note_off,,,,,20,0,2,,,0,,,50,64
51540,note_off,,,,,0,0,2,,,0,,,52,64
51540,note_off,,,,,0,0,2,,,0,,,56,64
51540,note_off,,,,,0,0,2,,,0,,,59,64
51600,note_on,,,,,0,0,2,,,0,,,56,94
51600,note_off,,,,,80,0,1,,,0,,,83,64
51600,control_change,,,,,60,0,2,,,0,64,127,,
51600,note_on,,,,,0,0,2,,,0,,,59,94
51600,note_on,,,,,0,0,1,,,0,,,76,118
51600,note_on,,,,,0,0,2,,,0,,,52,94
51600,note_on,,,,,0,0,2,,,0,,,50,94
51640,set_tempo,,,,,220,1,0,437956,,,,,,
51680,note_on,,,,,0,0,1,,,0,,,90,114
51680,note_off,,,,,80,0,1,,,0,,,76,64
51760,note_off,,,,,80,0,1,,,0,,,90,64
51760,control_change,,,,,160,0,2,,,0,64,0,,
51760,note_on,,,,,0,0,1,,,0,,,88,108
51780,note_off,,,,,0,0,2,,,0,,,59,64
51780,note_off,,,,,20,0,2,,,0,,,50,64
51780,note_off,,,,,0,0,2,,,0,,,52,64
51780,note_off,,,,,0,0,2,,,0,,,56,64
51840,note_off,,,,,80,0,1,,,0,,,88,64
51840,note_on,,,,,60,0,2,,,0,,,61,114
51840,note_on,,,,,0,0,1,,,0,,,76,117
51840,note_on,,,,,0,0,2,,,0,,,52,114
51840,note_on,,,,,0,0,2,,,0,,,49,114
51840,note_on,,,,,0,0,2,,,0,,,57,114
51840,control_change,,,,,0,0,2,,,0,64,127,,
51920,note_on,,,,,0,0,1,,,0,,,88,110
51920,note_off,,,,,80,0,1,,,0,,,76,64
52000,note_on,,,,,0,0,1,,,0,,,85,104
52000,note_off,,,,,80,0,1,,,0,,,88,64
52080,note_off,,,,,80,0,1,,,0,,,85,64
52080,note_on,,,,,0,0,1,,,0,,,81,98
52160,note_off,,,,,80,0,1,,,0,,,81,64
52160,note_on,,,,,0,0,1,,,0,,,76,96
52240,note_off,,,,,80,0,1,,,0,,,76,64
52240,note_on,,,,,0,0,1,,,0,,,72,94
52260,control_change,,,,,420,0,2,,,0,64,0,,
52282,note_off,,,,,22,0,2,,,0,,,49,64
52282,note_off,,,,,0,0,2,,,0,,,52,64
52282,note_off,,,,,0,0,2,,,0,,,61,64
52282,note_off,,,,,0,0,2,,,0,,,57,64
52320,note_on,,,,,0,0,2,,,0,,,45,86
52320,control_change,,,,,38,0,2,,,0,64,127,,
52320,note_on,,,,,0,0,2,,,0,,,49,86
52320,note_on,,,,,0,0,2,,,0,,,54,86
52320,note_on,,,,,0,0,2,,,0,,,57,86
52320,note_off,,,,,80,0,1,,,0,,,72,64
52320,note_on,,,,,0,0,1,,,0,,,73,86
52400,note_on,,,,,0,0,1,,,0,,,75,78
52400,note_off,,,,,80,0,1,,,0,,,73,64
52480,note_on,,,,,0,0,1,,,0,,,76,74
52480,note_off,,,,,80,0,1,,,0,,,75,64
52560,note_on,,,,,0,0,1,,,0,,,78,78
52560,note_off,,,,,80,0,1,,,0,,,76,64
52600,set_tempo,,,,,960,1,0,454545,,,,,,
52640,note_off,,,,,80,0,1,,,0,,,78,64
52640,note_on,,,,,0,0,1,,,0,,,80,84
52720,note_off,,,,,80,0,1,,,0,,,80,64
52720,note_on,,,,,0,0,1,,,0,,,81,102
52740,control_change,,,,,420,0,2,,,0,64,0,,
52762,note_off,,,,,22,0,2,,,0,,,57,64
52762,note_off,,,,,0,0,2,,,0,,,54,64
52762,note_off,,,,,0,0,2,,,0,,,49,64
52762,note_off,,,,,0,0,2,,,0,,,45,64
52800,control_change,,,,,0,0,2,,,0,64,127,,
52800,note_on,,,,,38,0,2,,,0,,,52,114
52800,note_on,,,,,0,0,2,,,0,,,56,114
52800,note_off,,,,,80,0,1,,,0,,,81,64
52800,note_on,,,,,0,0,2,,,0,,,44,114
52800,note_on,,,,,0,0,1,,,0,,,71,119
52800,note_on,,,,,0,0,2,,,0,,,47,114
52880,note_off,,,,,80,0,1,,,0,,,71,64
52880,note_on,,,,,0,0,1,,,0,,,83,112
52960,note_on,,,,,0,0,1,,,0,,,80,99
52960,note_off,,,,,80,0,1,,,0,,,83,64
53040,note_off,,,,,80,0,1,,,0,,,80,64
53040,set_tempo,,,,,440,1,0,476190,,,,,,
53040,note_on,,,,,0,0,1,,,0,,,76,89
53120,note_on,,,,,0,0,1,,,0,,,71,75
53120,note_off,,,,,80,0,1,,,0,,,76,64
53200,note_off,,,,,80,0,1,,,0,,,71,64
53200,note_on,,,,,0,0,1,,,0,,,68,64
53220,set_tempo,,,,,180,1,0,495868,,,,,,
53220,control_change,,,,,420,0,2,,,0,64,0,,
53242,note_off,,,,,0,0,2,,,0,,,47,64
53242,note_off,,,,,0,0,2,,,0,,,44,64
53242,note_off,,,,,0,0,2,,,0,,,52,64
53242,note_off,,,,,22,0,2,,,0,,,56,64
53280,note_off,,,,,80,0,1,,,0,,,68,64
53280,note_on,,,,,0,0,1,,,0,,,70,119
53280,note_on,,,,,0,0,2,,,0,,,49,101
53280,control_change,,,,,38,0,2,,,0,64,127,,
53290,note_on,,,,,10,0,2,,,0,,,52,101
53300,note_on,,,,,10,0,2,,,0,,,54,101
53310,note_on,,,,,10,0,2,,,0,,,58,101
53320,note_on,,,,,10,0,2,,,0,,,61,101
53360,note_off,,,,,80,0,1,,,0,,,70,64
53360,note_on,,,,,0,0,1,,,0,,,88,110
53440,note_off,,,,,80,0,1,,,0,,,88,64
53440,note_on,,,,,0,0,1,,,0,,,85,102
53520,note_off,,,,,80,0,1,,,0,,,85,64
53520,note_on,,,,,0,0,1,,,0,,,82,96
53600,note_on,,,,,0,0,1,,,0,,,78,83
53600,note_off,,,,,80,0,1,,,0,,,82,64
53600,set_tempo,,,,,380,1,0,530973,,,,,,
53680,note_off,,,,,80,0,1,,,0,,,78,64
53680,note_on,,,,,0,0,1,,,0,,,82,73
53700,control_change,,,,,380,0,2,,,0,64,0,,
53722,note_off,,,,,22,0,2,,,0,,,49,64
53732,note_off,,,,,10,0,2,,,0,,,52,64
53742,note_off,,,,,10,0,2,,,0,,,54,64
53752,note_off,,,,,10,0,2,,,0,,,58,64
53760,set_tempo,,,,,160,1,0,480000,,,,,,
53760,note_on,,,,,8,0,2,,,0,,,59,82
53760,note_on,,,,,0,0,2,,,0,,,51,82
53760,note_on,,,,,0,0,2,,,0,,,54,82
53760,note_on,,,,,0,0,2,,,0,,,47,82
53760,note_on,,,,,0,0,1,,,0,,,83,81
53760,note_off,,,,,80,0,1,,,0,,,82,64
53762,note_off,,,,,2,0,2,,,0,,,61,64
53840,set_tempo,,,,,80,1,0,458015,,,,,,
53880,note_off,,,,,120,0,1,,,0,,,83,64
53880,note_off,,,,,0,0,2,,,0,,,51,64
53880,note_off,,,,,0,0,2,,,0,,,54,64
53880,note_off,,,,,118,0,2,,,0,,,47,64
53880,note_off,,,,,0,0,2,,,0,,,59,64
54000,note_on,,,,,0,0,2,,,0,,,61,108
54000,control_change,,,,,120,0,2,,,0,64,127,,
54000,note_on,,,,,120,0,1,,,0,,,82,106
54000,note_on,,,,,0,0,1,,,0,,,78,106
54000,note_on,,,,,0,0,1,,,0,,,76,106
54080,note_on,,,,,0,0,2,,,0,,,54,76
54080,set_tempo,,,,,240,1,0,437956,,,,,,
54080,note_off,,,,,80,0,2,,,0,,,61,64
54160,note_off,,,,,80,0,2,,,0,,,54,64
54160,note_on,,,,,0,0,2,,,0,,,47,67
54220,note_off,,,,,0,0,1,,,0,,,82,64
54220,note_off,,,,,220,0,1,,,0,,,76,64
54220,note_off,,,,,0,0,1,,,0,,,78,64
54240,note_on,,,,,0,0,2,,,0,,,59,86
54240,note_off,,,,,80,0,2,,,0,,,47,64
54240,note_on,,,,,20,0,1,,,0,,,83,76
54240,control_change,,,,,0,0,2,,,0,64,0,,
54240,note_on,,,,,0,0,1,,,0,,,78,76
54240,note_on,,,,,0,0,1,,,0,,,76,76
54280,set_tempo,,,,,200,1,0,434783,,,,,,
54320,note_off,,,,,80,0,2,,,0,,,59,64
54320,note_on,,,,,0,0,2,,,0,,,54,78
54400,note_off,,,,,80,0,2,,,0,,,54,64
54400,note_on,,,,,0,0,2,,,0,,,47,65
54420,note_off,,,,,0,0,1,,,0,,,78,64
54420,note_off,,,,,0,0,1,,,0,,,83,64
54420,note_off,,,,,180,0,1,,,0,,,76,64
54480,note_on,,,,,0,0,1,,,0,,,76,84
54480,note_off,,,,,80,0,2,,,0,,,47,64
54480,note_on,,,,,0,0,2,,,0,,,58,72
54480,note_on,,,,,0,0,1,,,0,,,78,84
54480,note_on,,,,,60,0,1,,,0,,,85,84
54560,note_off,,,,,80,0,2,,,0,,,58,64
54560,note_on,,,,,0,0,2,,,0,,,54,74
54640,note_off,,,,,80,0,2,,,0,,,54,64
54640,note_on,,,,,0,0,2,,,0,,,47,82
54642,note_off,,,,,0,0,1,,,0,,,78,64
54642,note_off,,,,,162,0,1,,,0,,,76,64
54642,note_off,,,,,0,0,1,,,0,,,85,64
54720,note_on,,,,,78,0,1,,,0,,,83,93
54720,note_on,,,,,0,0,1,,,0,,,78,93
54720,note_on,,,,,0,0,1,,,0,,,75,93
54720,note_off,,,,,80,0,2,,,0,,,47,64
54720,note_on,,,,,0,0,2,,,0,,,59,93
54800,note_on,,,,,0,0,2,,,0,,,54,84
54800,note_off,,,,,80,0,2,,,0,,,59,64
54860,set_tempo,,,,,580,1,0,451128,,,,,,
54880,note_on,,,,,0,0,2,,,0,,,47,76
54880,note_off,,,,,80,0,2,,,0,,,54,64
54900,note_off,,,,,0,0,1,,,0,,,83,64
54900,note_off,,,,,0,0,1,,,0,,,78,64
54900,note_off,,,,,180,0,1,,,0,,,75,64
54940,note_off,,,,,60,0,2,,,0,,,47,64
54960,control_change,,,,,20,0,2,,,0,64,127,,
54960,note_on,,,,,60,0,1,,,0,,,73,71
54960,note_on,,,,,0,0,2,,,0,,,52,62
54960,note_on,,,,,0,0,2,,,0,,,46,62
54960,set_tempo,,,,,100,1,0,476190,,,,,,
54960,note_on,,,,,0,0,2,,,0,,,54,62
55040,note_off,,,,,80,0,1,,,0,,,73,64
55040,note_on,,,,,0,0,1,,,0,,,66,59
55120,note_on,,,,,0,0,1,,,0,,,64,48
55120,note_off,,,,,80,0,1,,,0,,,66,64
55140,set_tempo,,,,,180,1,0,437956,,,,,,
55180,note_off,,,,,0,0,2,,,0,,,52,64
55180,note_off,,,,,0,0,2,,,0,,,46,64
55180,note_off,,,,,220,0,2,,,0,,,54,64
55200,control_change,,,,,20,0,2,,,0,64,0,,
55200,note_on,,,,,0,0,2,,,0,,,47,46
55200,note_on,,,,,0,0,1,,,0,,,71,50
55200,note_on,,,,,0,0,2,,,0,,,52,46
55200,note_off,,,,,80,0,1,,,0,,,64,64
55200,note_on,,,,,0,0,2,,,0,,,54,46
55280,note_off,,,,,80,0,1,,,0,,,71,64
55280,note_on,,,,,0,0,1,,,0,,,66,47
55360,note_off,,,,,80,0,1,,,0,,,66,64
55360,note_on,,,,,0,0,1,,,0,,,64,43
55380,note_off,,,,,0,0,2,,,0,,,54,64
55380,note_off,,,,,180,0,2,,,0,,,52,64
55380,note_off,,,,,0,0,2,,,0,,,47,64
55440,note_off,,,,,80,0,1,,,0,,,64,64
55440,note_on,,,,,0,0,2,,,0,,,54,51
55440,note_on,,,,,60,0,2,,,0,,,49,51
55440,note_on,,,,,0,0,1,,,0,,,70,48
55440,note_on,,,,,0,0,2,,,0,,,52,51
55520,note_off,,,,,80,0,1,,,0,,,70,64
55520,note_on,,,,,0,0,1,,,0,,,66,51
55600,note_off,,,,,80,0,1,,,0,,,66,64
55600,note_on,,,,,0,0,1,,,0,,,64,55
55602,note_off,,,,,0,0,2,,,0,,,54,64
55602,note_off,,,,,0,0,2,,,0,,,49,64
55602,note_off,,,,,162,0,2,,,0,,,52,64
55680,note_on,,,,,0,0,2,,,0,,,47,56
55680,note_on,,,,,0,0,1,,,0,,,71,59
55680,note_off,,,,,80,0,1,,,0,,,64,64
55680,note_on,,,,,78,0,2,,,0,,,51,56
55680,note_on,,,,,0,0,2,,,0,,,54,56
55760,note_on,,,,,0,0,1,,,0,,,66,50
55760,note_off,,,,,80,0,1,,,0,,,71,64
55780,set_tempo,,,,,640,1,0,454545,,,,,,
55840,note_on,,,,,0,0,1,,,0,,,63,41
55840,note_off,,,,,80,0,1,,,0,,,66,64
55860,note_off,,,,,180,0,2,,,0,,,47,64
55860,note_off,,,,,0,0,2,,,0,,,54,64
55860,note_off,,,,,0,0,2,,,0,,,51,64
55900,note_off,,,,,60,0,1,,,0,,,63,64
55920,note_on,,,,,20,0,1,,,0,,,85,106
55920,note_on,,,,,0,0,1,,,0,,,78,106
55920,note_on,,,,,0,0,1,,,0,,,76,106
55920,control_change,,,,,60,0,2,,,0,64,127,,
55920,note_on,,,,,0,0,2,,,0,,,58,108
55920,set_tempo,,,,,140,1,0,468750,,,,,,
56000,note_off,,,,,80,0,2,,,0,,,58,64
56000,note_on,,,,,0,0,2,,,0,,,54,76
56020,set_tempo,,,,,100,1,0,444444,,,,,,
56080,note_on,,,,,0,0,2,,,0,,,47,67
56080,note_off,,,,,80,0,2,,,0,,,54,64
56140,note_off,,,,,0,0,1,,,0,,,85,64
56140,note_off,,,,,0,0,1,,,0,,,78,64
56140,note_off,,,,,220,0,1,,,0,,,76,64
56160,note_on,,,,,20,0,1,,,0,,,83,73
56160,note_off,,,,,80,0,2,,,0,,,47,64
56160,control_change,,,,,0,0,2,,,0,64,0,,
56160,note_on,,,,,0,0,2,,,0,,,59,86
56160,note_on,,,,,0,0,1,,,0,,,76,73
56160,note_on,,,,,0,0,1,,,0,,,78,73
56200,set_tempo,,,,,180,1,0,425532,,,,,,
56240,note_on,,,,,0,0,2,,,0,,,54,78
56240,note_off,,,,,80,0,2,,,0,,,59,64
56320,note_on,,,,,0,0,2,,,0,,,47,65
56320,note_off,,,,,80,0,2,,,0,,,54,64
56340,note_off,,,,,180,0,1,,,0,,,76,64
56340,note_off,,,,,0,0,1,,,0,,,78,64
56340,note_off,,,,,0,0,1,,,0,,,83,64
56400,note_off,,,,,80,0,2,,,0,,,47,64
56400,note_on,,,,,60,0,1,,,0,,,82,83
56400,note_on,,,,,0,0,2,,,0,,,61,72
56400,note_on,,,,,0,0,1,,,0,,,76,83
56400,note_on,,,,,0,0,1,,,0,,,78,83
56480,note_off,,,,,80,0,2,,,0,,,61,64
56480,note_on,,,,,0,0,2,,,0,,,54,82
56560,note_off,,,,,80,0,2,,,0,,,54,64
56560,note_on,,,,,0,0,2,,,0,,,47,92
56562,note_off,,,,,162,0,1,,,0,,,76,64
56562,note_off,,,,,0,0,1,,,0,,,78,64
56562,note_off,,,,,0,0,1,,,0,,,82,64
56640,set_tempo,,,,,440,1,0,441176,,,,,,
56640,note_on,,,,,78,0,1,,,0,,,83,95
56640,note_on,,,,,0,0,1,,,0,,,78,95
56640,note_on,,,,,0,0,2,,,0,,,59,98
56640,note_off,,,,,80,0,2,,,0,,,47,64
56640,note_on,,,,,0,0,1,,,0,,,75,95
56720,note_off,,,,,80,0,2,,,0,,,59,64
56720,note_on,,,,,0,0,2,,,0,,,54,86
56800,note_off,,,,,80,0,2,,,0,,,54,64
56800,note_on,,,,,0,0,2,,,0,,,47,61
56820,set_tempo,,,,,180,1,0,454545,,,,,,
56820,note_off,,,,,180,0,1,,,0,,,75,64
56820,note_off,,,,,0,0,1,,,0,,,78,64
56820,note_off,,,,,0,0,1,,,0,,,83,64
56860,note_off,,,,,60,0,2,,,0,,,47,64
56880,note_on,,,,,0,0,2,,,0,,,54,62
56880,control_change,,,,,20,0,2,,,0,64,127,,
56880,note_on,,,,,60,0,1,,,0,,,70,71
56880,note_on,,,,,0,0,2,,,0,,,49,62
56880,note_on,,,,,0,0,2,,,0,,,52,62
56960,note_off,,,,,80,0,1,,,0,,,70,64
56960,note_on,,,,,0,0,1,,,0,,,66,48
56980,set_tempo,,,,,160,1,0,437956,,,,,,
57040,note_off,,,,,80,0,1,,,0,,,66,64
57040,note_on,,,,,0,0,1,,,0,,,64,54
57100,note_off,,,,,220,0,2,,,0,,,54,64
57100,note_off,,,,,0,0,2,,,0,,,52,64
57100,note_off,,,,,0,0,2,,,0,,,49,64
57100,set_tempo,,,,,120,1,0,431655,,,,,,
57120,note_off,,,,,80,0,1,,,0,,,64,64
57120,note_on,,,,,0,0,2,,,0,,,52,46
57120,note_on,,,,,0,0,2,,,0,,,54,46
57120,note_on,,,,,0,0,2,,,0,,,47,46
57120,control_change,,,,,20,0,2,,,0,64,0,,
57120,note_on,,,,,0,0,1,,,0,,,71,59
57200,note_on,,,,,0,0,1,,,0,,,66,53
57200,note_off,,,,,80,0,1,,,0,,,71,64
57280,note_on,,,,,0,0,1,,,0,,,64,49
57280,note_off,,,,,80,0,1,,,0,,,66,64
57300,note_off,,,,,0,0,2,,,0,,,47,64
57300,note_off,,,,,0,0,2,,,0,,,54,64
57300,note_off,,,,,180,0,2,,,0,,,52,64
57360,note_on,,,,,60,0,2,,,0,,,46,51
57360,note_on,,,,,0,0,2,,,0,,,52,51
57360,note_on,,,,,0,0,1,,,0,,,73,48
57360,note_off,,,,,80,0,1,,,0,,,64,64
57360,note_on,,,,,0,0,2,,,0,,,54,51
57440,note_off,,,,,80,0,1,,,0,,,73,64
57440,note_on,,,,,0,0,1,,,0,,,66,51
57520,note_on,,,,,0,0,1,,,0,,,64,55
57520,note_off,,,,,80,0,1,,,0,,,66,64
57522,note_off,,,,,0,0,2,,,0,,,46,64
57522,note_off,,,,,0,0,2,,,0,,,54,64
57522,note_off,,,,,162,0,2,,,0,,,52,64
57600,note_on,,,,,0,0,2,,,0,,,47,56
57600,note_on,,,,,0,0,2,,,0,,,54,56
57600,note_on,,,,,78,0,2,,,0,,,51,56
57600,set_tempo,,,,,500,1,0,451128,,,,,,
57600,note_on,,,,,0,0,1,,,0,,,71,59
57600,note_off,,,,,80,0,1,,,0,,,64,64
57680,note_on,,,,,0,0,1,,,0,,,66,50
57680,note_off,,,,,80,0,1,,,0,,,71,64
57760,note_on,,,,,0,0,1,,,0,,,63,41
57760,note_off,,,,,80,0,1,,,0,,,66,64
57780,note_off,,,,,0,0,2,,,0,,,54,64
57780,note_off,,,,,0,0,2,,,0,,,51,64
57780,note_off,,,,,180,0,2,,,0,,,47,64
57840,note_off,,,,,80,0,1,,,0,,,63,64
57840,note_on,,,,,0,0,1,,,0,,,59,40
57920,note_off,,,,,80,0,1,,,0,,,59,64
57920,note_on,,,,,0,0,1,,,0,,,54,46
58000,note_on,,,,,0,0,1,,,0,,,51,51
58000,note_off,,,,,80,0,1,,,0,,,54,64
58080,note_off,,,,,80,0,1,,,0,,,51,64
58080,note_on,,,,,300,0,2,,,0,,,47,53
58140,set_tempo,,,,,540,1,0,495868,,,,,,
58160,note_off,,,,,80,0,2,,,0,,,47,64
58160,note_on,,,,,0,0,2,,,0,,,45,51
58240,note_on,,,,,0,0,2,,,0,,,44,49
58240,note_off,,,,,80,0,2,,,0,,,45,64
58260,set_tempo,,,,,120,1,0,550459,,,,,,
58320,note_on,,,,,0,0,2,,,0,,,45,45
58320,note_off,,,,,80,0,2,,,0,,,44,64
58400,note_on,,,,,0,0,2,,,0,,,44,42
58400,note_off,,,,,80,0,2,,,0,,,45,64
58400,set_tempo,,,,,140,1,0,594059,,,,,,
58480,note_off,,,,,80,0,2,,,0,,,44,64
58480,note_on,,,,,0,0,2,,,0,,,42,39
58480,set_tempo,,,,,80,1,0,645161,,,,,,
58540,set_tempo,,,,,60,1,0,674157,,,,,,
58560,note_off,,,,,80,0,2,,,0,,,42,64
58560,note_on,,,,,0,0,2,,,0,,,40,45
58620,set_tempo,,,,,80,1,0,555556,,,,,,
58640,set_tempo,,,,,20,1,0,550459,,,,,,
58640,note_off,,,,,80,0,2,,,0,,,40,64
58640,note_on,,,,,0,0,2,,,0,,,44,40
58660,set_tempo,,,,,20,1,0,487805,,,,,,
58680,set_tempo,,,,,20,1,0,483871,,,,,,
58720,note_on,,,,,0,0,2,,,0,,,47,34
58720,note_off,,,,,80,0,2,,,0,,,44,64
58800,note_on,,,,,0,0,2,,,0,,,52,34
58800,set_tempo,,,,,120,1,0,458015,,,,,,
58800,note_off,,,,,80,0,2,,,0,,,47,64
58880,note_off,,,,,80,0,2,,,0,,,52,64
58880,note_on,,,,,0,0,2,,,0,,,56,38
58900,set_tempo,,,,,100,1,0,441176,,,,,,
58960,note_off,,,,,80,0,2,,,0,,,56,64
58960,note_on,,,,,0,0,2,,,0,,,59,44
59040,note_off,,,,,80,0,2,,,0,,,59,64
59040,note_on,,,,,0,0,2,,,0,,,52,50
59040,note_on,,,,,960,0,1,,,0,,,71,47
59120,note_off,,,,,80,0,2,,,0,,,52,64
59120,note_on,,,,,0,0,2,,,0,,,56,41
59180,set_tempo,,,,,280,1,0,431655,,,,,,
59200,note_off,,,,,80,0,2,,,0,,,56,64
59200,note_on,,,,,0,0,2,,,0,,,59,35
59220,note_off,,,,,180,0,1,,,0,,,71,64
59280,note_on,,,,,60,0,1,,,0,,,71,45
59280,note_on,,,,,0,0,2,,,0,,,52,40
59280,note_off,,,,,80,0,2,,,0,,,59,64
59360,note_on,,,,,0,0,2,,,0,,,56,37
59360,note_off,,,,,80,0,2,,,0,,,52,64
59380,set_tempo,,,,,200,1,0,425532,,,,,,
59440,note_off,,,,,80,0,2,,,0,,,56,64
59440,note_on,,,,,0,0,2,,,0,,,59,35
59460,note_off,,,,,180,0,1,,,0,,,71,64
59480,set_tempo,,,,,100,1,0,500000,,,,,,
59520,note_on,,,,,0,0,2,,,0,,,51,49
59520,note_off,,,,,80,0,2,,,0,,,59,64
59520,control_change,,,,,0,0,2,,,0,64,127,,
59520,note_on,,,,,60,0,1,,,0,,,71,56
59540,set_tempo,,,,,60,1,0,431655,,,,,,
59560,set_tempo,,,,,20,1,0,419580,,,,,,
59600,note_on,,,,,0,0,2,,,0,,,54,41
59600,note_off,,,,,80,0,2,,,0,,,51,64
59680,note_on,,,,,0,0,2,,,0,,,59,35
59680,note_off,,,,,80,0,2,,,0,,,54,64
59760,note_on,,,,,0,0,2,,,0,,,51,38
59760,note_off,,,,,80,0,2,,,0,,,59,64
59800,set_tempo,,,,,240,1,0,408163,,,,,,
59840,note_on,,,,,0,0,2,,,0,,,54,41
59840,note_off,,,,,80,0,2,,,0,,,51,64
59920,note_off,,,,,80,0,2,,,0,,,54,64
59920,note_on,,,,,0,0,2,,,0,,,59,45
60000,note_on,,,,,0,0,1,,,0,,,71,59
60000,note_off,,,,,480,0,1,,,0,,,71,64
60000,set_tempo,,,,,200,1,0,402685,,,,,,
60000,note_on,,,,,0,0,2,,,0,,,54,48
60000,control_change,,,,,0,0,2,,,0,64,0,,
60000,note_off,,,,,80,0,2,,,0,,,59,64
60020,set_tempo,,,,,20,1,0,400000,,,,,,
60080,note_on,,,,,0,0,2,,,0,,,57,42
60080,note_off,,,,,80,0,2,,,0,,,54,64
60090,note_off,,,,,90,0,1,,,0,,,71,64
60120,note_on,,,,,30,0,1,,,0,,,71,42
60160,note_on,,,,,0,0,2,,,0,,,59,37
60160,note_off,,,,,80,0,2,,,0,,,57,64
60210,note_off,,,,,90,0,1,,,0,,,71,64
60240,note_on,,,,,30,0,1,,,0,,,73,51
60240,note_off,,,,,80,0,2,,,0,,,59,64
60240,note_on,,,,,0,0,2,,,0,,,54,40
60320,note_off,,,,,80,0,2,,,0,,,54,64
60320,note_on,,,,,0,0,2,,,0,,,57,34
60330,note_off,,,,,90,0,1,,,0,,,73,64
60360,note_on,,,,,30,0,1,,,0,,,75,58
60400,note_off,,,,,80,0,2,,,0,,,57,64
60400,note_on,,,,,0,0,2,,,0,,,59,35
60450,note_off,,,,,90,0,1,,,0,,,75,64
60480,note_on,,,,,30,0,1,,,0,,,76,62
60480,note_off,,,,,80,0,2,,,0,,,59,64
60480,control_change,,,,,0,0,2,,,0,64,127,,
60480,note_on,,,,,0,0,2,,,0,,,52,44
60500,set_tempo,,,,,480,1,0,405405,,,,,,
60560,note_off,,,,,80,0,2,,,0,,,52,64
60560,note_on,,,,,0,0,2,,,0,,,56,41
60620,set_tempo,,,,,120,1,0,413793,,,,,,
60640,note_off,,,,,80,0,2,,,0,,,56,64
60640,note_on,,,,,0,0,2,,,0,,,59,35
60720,note_off,,,,,80,0,2,,,0,,,59,64
60720,note_on,,,,,0,0,2,,,0,,,52,46
60800,note_on,,,,,0,0,2,,,0,,,56,41
60800,note_off,,,,,80,0,2,,,0,,,52,64
60880,note_on,,,,,0,0,2,,,0,,,59,37
60880,note_off,,,,,80,0,2,,,0,,,56,64
60900,note_off,,,,,420,0,1,,,0,,,76,64
60960,note_on,,,,,0,0,1,,,0,,,64,60
60960,note_off,,,,,80,0,2,,,0,,,59,64
60960,control_change,,,,,0,0,2,,,0,64,0,,
60960,note_on,,,,,0,0,2,,,0,,,50,50
60960,note_on,,,,,60,0,1,,,0,,,76,60
61040,note_off,,,,,80,0,2,,,0,,,50,64
61040,note_on,,,,,0,0,2,,,0,,,52,41
61050,note_off,,,,,90,0,1,,,0,,,64,64
61050,note_off,,,,,0,0,1,,,0,,,76,64
61080,note_on,,,,,0,0,1,,,0,,,64,44
61080,note_on,,,,,30,0,1,,,0,,,76,44
61100,set_tempo,,,,,480,1,0,425532,,,,,,
61120,note_off,,,,,80,0,2,,,0,,,52,64
61120,note_on,,,,,0,0,2,,,0,,,59,37
61170,note_off,,,,,90,0,1,,,0,,,64,64
61170,note_off,,,,,0,0,1,,,0,,,76,64
61200,set_tempo,,,,,100,1,0,447761,,,,,,
61200,note_on,,,,,30,0,1,,,0,,,78,51
61200,note_on,,,,,0,0,1,,,0,,,66,51
61200,note_on,,,,,0,0,2,,,0,,,50,39
61200,note_off,,,,,80,0,2,,,0,,,59,64
61280,note_on,,,,,0,0,2,,,0,,,52,41
61280,note_off,,,,,80,0,2,,,0,,,50,64
61290,note_off,,,,,90,0,1,,,0,,,66,64
61290,note_off,,,,,0,0,1,,,0,,,78,64
61320,note_on,,,,,0,0,1,,,0,,,68,58
61320,note_on,,,,,30,0,1,,,0,,,80,58
61360,set_tempo,,,,,160,1,0,454545,,,,,,
61360,note_off,,,,,80,0,2,,,0,,,52,64
61360,note_on,,,,,0,0,2,,,0,,,59,45
61410,note_off,,,,,0,0,1,,,0,,,80,64
61410,note_off,,,,,90,0,1,,,0,,,68,64
61440,note_on,,,,,30,0,1,,,0,,,81,61
61440,note_off,,,,,80,0,2,,,0,,,59,64
61440,control_change,,,,,0,0,2,,,0,64,127,,
61440,note_on,,,,,0,0,2,,,0,,,49,50
61440,note_on,,,,,0,0,1,,,0,,,69,61
61520,note_on,,,,,0,0,2,,,0,,,52,41
61520,note_off,,,,,80,0,2,,,0,,,49,64
61600,note_off,,,,,80,0,2,,,0,,,52,64
61600,note_on,,,,,0,0,2,,,0,,,57,35
61600,set_tempo,,,,,240,1,0,441176,,,,,,
61680,note_on,,,,,0,0,2,,,0,,,49,43
61680,note_off,,,,,80,0,2,,,0,,,57,64
61700,set_tempo,,,,,100,1,0,428571,,,,,,
61760,note_on,,,,,0,0,2,,,0,,,52,41
61760,note_off,,,,,80,0,2,,,0,,,49,64
61840,note_off,,,,,80,0,2,,,0,,,52,64
61840,note_on,,,,,0,0,2,,,0,,,57,39
61860,note_off,,,,,0,0,1,,,0,,,81,64
61860,note_off,,,,,420,0,1,,,0,,,69,64
61920,note_on,,,,,0,0,1,,,0,,,73,59
61920,note_off,,,,,80,0,2,,,0,,,57,64
61920,control_change,,,,,0,0,2,,,0,64,0,,
61920,note_on,,,,,0,0,2,,,0,,,45,48
61920,note_on,,,,,60,0,1,,,0,,,85,59
62000,note_off,,,,,80,0,2,,,0,,,45,64
62000,note_on,,,,,0,0,2,,,0,,,49,41
62080,note_on,,,,,0,0,2,,,0,,,52,35
62080,note_off,,,,,80,0,2,,,0,,,49,64
62130,note_off,,,,,210,0,1,,,0,,,73,64
62130,note_off,,,,,0,0,1,,,0,,,85,64
62160,note_on,,,,,0,0,1,,,0,,,73,56
62160,note_on,,,,,30,0,1,,,0,,,85,56
62160,note_off,,,,,80,0,2,,,0,,,52,64
62160,note_on,,,,,0,0,2,,,0,,,45,39
62240,note_on,,,,,0,0,2,,,0,,,49,41
62240,note_off,,,,,80,0,2,,,0,,,45,64
62320,note_on,,,,,0,0,2,,,0,,,52,46
62320,note_off,,,,,80,0,2,,,0,,,49,64
62370,note_off,,,,,210,0,1,,,0,,,73,64
62370,note_off,,,,,0,0,1,,,0,,,85,64
62400,set_tempo,,,,,700,1,0,444444,,,,,,
62400,note_on,,,,,0,0,2,,,0,,,44,49
62400,control_change,,,,,0,0,2,,,0,64,127,,
62400,note_off,,,,,80,0,2,,,0,,,52,64
62400,note_on,,,,,30,0,1,,,0,,,83,57
62400,note_on,,,,,0,0,1,,,0,,,71,57
62480,note_on,,,,,0,0,2,,,0,,,47,41
62480,note_off,,,,,80,0,2,,,0,,,44,64
62560,note_on,,,,,0,0,2,,,0,,,52,35
62560,note_off,,,,,80,0,2,,,0,,,47,64
62620,control_change,,,,,60,0,2,,,0,64,0,,
62640,control_change,,,,,0,0,2,,,0,64,127,,
62640,note_off,,,,,20,0,2,,,0,,,52,64
62640,note_on,,,,,0,0,2,,,0,,,42,41
62640,note_off,,,,,0,0,1,,,0,,,83,64
62640,note_on,,,,,0,0,1,,,0,,,85,49
62640,note_off,,,,,240,0,1,,,0,,,71,64
62640,note_on,,,,,0,0,1,,,0,,,73,49
62720,note_off,,,,,80,0,2,,,0,,,42,64
62720,note_on,,,,,0,0,2,,,0,,,45,36
62800,note_on,,,,,0,0,2,,,0,,,52,35
62800,note_off,,,,,80,0,2,,,0,,,45,64
62860,control_change,,,,,0,0,2,,,0,64,0,,
62860,control_change,,,,,60,0,2,,,0,64,0,,
62880,note_on,,,,,0,0,1,,,0,,,83,54
62880,note_on,,,,,0,0,2,,,0,,,44,43
62880,control_change,,,,,0,0,2,,,0,64,127,,
62880,note_on,,,,,0,0,1,,,0,,,71,54
62880,note_off,,,,,0,0,1,,,0,,,85,64
62880,note_off,,,,,240,0,1,,,0,,,73,64
62880,note_off,,,,,20,0,2,,,0,,,52,64
62960,note_off,,,,,80,0,2,,,0,,,44,64
62960,note_on,,,,,0,0,2,,,0,,,47,41
63020,set_tempo,,,,,620,1,0,461538,,,,,,
63040,note_off,,,,,80,0,2,,,0,,,47,64
63040,note_on,,,,,0,0,2,,,0,,,52,35
63100,control_change,,,,,0,0,2,,,0,64,0,,
63100,control_change,,,,,60,0,2,,,0,64,0,,
63120,note_off,,,,,240,0,1,,,0,,,71,64
63120,note_off,,,,,20,0,2,,,0,,,52,64
63120,control_change,,,,,0,0,2,,,0,64,127,,
63120,note_on,,,,,0,0,2,,,0,,,40,34
63120,note_off,,,,,0,0,1,,,0,,,83,64
63120,note_on,,,,,0,0,1,,,0,,,80,47
63120,note_on,,,,,0,0,1,,,0,,,68,47
63200,note_off,,,,,80,0,2,,,0,,,40,64
63200,note_on,,,,,0,0,2,,,0,,,47,37
63280,note_off,,,,,80,0,2,,,0,,,47,64
63280,note_on,,,,,0,0,2,,,0,,,52,43
63340,control_change,,,,,60,0,2,,,0,64,0,,
63360,note_off,,,,,0,0,1,,,0,,,80,64
63360,note_on,,,,,0,0,1,,,0,,,78,49
63360,note_on,,,,,0,0,1,,,0,,,66,49
63360,note_off,,,,,240,0,1,,,0,,,68,64
63360,note_on,,,,,0,0,2,,,0,,,47,49
63360,note_off,,,,,20,0,2,,,0,,,52,64
63370,control_change,,,,,10,0,2,,,0,64,0,,
63390,control_change,,,,,20,0,2,,,0,64,127,,
63440,note_off,,,,,50,0,2,,,0,,,47,64
63440,note_on,,,,,0,0,2,,,0,,,51,41
63520,note_on,,,,,0,0,2,,,0,,,54,35
63520,note_off,,,,,80,0,2,,,0,,,51,64
63600,set_tempo,,,,,580,1,0,491803,,,,,,
63600,note_on,,,,,0,0,2,,,0,,,59,38
63600,note_off,,,,,80,0,2,,,0,,,54,64
63680,note_on,,,,,0,0,2,,,0,,,58,36
63680,note_off,,,,,80,0,2,,,0,,,59,64
63730,control_change,,,,,50,0,2,,,0,64,0,,
63760,note_on,,,,,0,0,2,,,0,,,57,35
63760,note_off,,,,,30,0,2,,,0,,,58,64
63780,note_off,,,,,0,0,1,,,0,,,78,64
63780,note_off,,,,,420,0,1,,,0,,,66,64
63840,note_off,,,,,80,0,2,,,0,,,57,64
63840,note_on,,,,,0,0,2,,,0,,,56,40
63840,note_on,,,,,60,0,1,,,0,,,71,42
63920,note_off,,,,,80,0,2,,,0,,,56,64
63920,note_on,,,,,0,0,2,,,0,,,59,31
64000,note_off,,,,,80,0,2,,,0,,,59,64
64000,note_on,,,,,0,0,2,,,0,,,64,25
64020,note_off,,,,,180,0,1,,,0,,,71,64
64080,note_off,,,,,80,0,2,,,0,,,64,64
64080,note_on,,,,,0,0,2,,,0,,,56,30
64080,note_on,,,,,60,0,1,,,0,,,71,36
64160,note_off,,,,,80,0,2,,,0,,,56,64
64160,note_on,,,,,0,0,2,,,0,,,59,27
64240,note_off,,,,,80,0,2,,,0,,,59,64
64240,note_on,,,,,0,0,2,,,0,,,64,25
64260,set_tempo,,,,,660,1,0,476190,,,,,,
64260,note_off,,,,,180,0,1,,,0,,,71,64
64320,note_off,,,,,80,0,2,,,0,,,64,64
64320,control_change,,,,,0,0,2,,,0,64,127,,
64320,note_on,,,,,0,0,2,,,0,,,54,39
64320,note_on,,,,,60,0,1,,,0,,,71,39
64400,note_off,,,,,80,0,2,,,0,,,54,64
64400,note_on,,,,,0,0,2,,,0,,,57,31
64480,note_on,,,,,0,0,2,,,0,,,63,25
64480,note_off,,,,,80,0,2,,,0,,,57,64
64560,note_on,,,,,0,0,2,,,0,,,54,28
64560,note_off,,,,,80,0,2,,,0,,,63,64
64600,set_tempo,,,,,340,1,0,468750,,,,,,
64640,note_on,,,,,0,0,2,,,0,,,57,31
64640,note_off,,,,,80,0,2,,,0,,,54,64
64720,note_on,,,,,0,0,2,,,0,,,63,35
64720,note_off,,,,,80,0,2,,,0,,,57,64
64800,note_on,,,,,0,0,1,,,0,,,71,43
64800,note_off,,,,,480,0,1,,,0,,,71,64
64800,note_on,,,,,0,0,2,,,0,,,54,38
64800,control_change,,,,,0,0,2,,,0,64,0,,
64800,note_off,,,,,80,0,2,,,0,,,63,64
64840,set_tempo,,,,,240,1,0,454545,,,,,,
64880,note_on,,,,,0,0,2,,,0,,,57,32
64880,note_off,,,,,80,0,2,,,0,,,54,64
64890,note_off,,,,,90,0,1,,,0,,,71,64
64920,note_on,,,,,30,0,1,,,0,,,71,32
64960,note_off,,,,,80,0,2,,,0,,,57,64
64960,note_on,,,,,0,0,2,,,0,,,62,27
65010,note_off,,,,,90,0,1,,,0,,,71,64
65040,note_on,,,,,0,0,2,,,0,,,54,30
65040,note_off,,,,,80,0,2,,,0,,,62,64
65040,note_on,,,,,30,0,1,,,0,,,73,36
65120,note_on,,,,,0,0,2,,,0,,,57,24
65120,note_off,,,,,80,0,2,,,0,,,54,64
65130,note_off,,,,,90,0,1,,,0,,,73,64
65140,set_tempo,,,,,300,1,0,441176,,,,,,
65160,note_on,,,,,30,0,1,,,0,,,74,41
65200,note_off,,,,,80,0,2,,,0,,,57,64
65200,note_on,,,,,0,0,2,,,0,,,62,25
65250,note_off,,,,,90,0,1,,,0,,,74,64
65280,control_change,,,,,0,0,2,,,0,64,127,,
65280,note_on,,,,,0,0,2,,,0,,,53,34
65280,note_on,,,,,30,0,1,,,0,,,73,43
65280,note_off,,,,,80,0,2,,,0,,,62,64
65360,note_off,,,,,80,0,2,,,0,,,53,64
65360,note_on,,,,,0,0,2,,,0,,,56,31
65440,note_off,,,,,80,0,2,,,0,,,56,64
65440,note_on,,,,,0,0,2,,,0,,,61,25
65480,set_tempo,,,,,340,1,0,458015,,,,,,
65520,note_on,,,,,0,0,2,,,0,,,53,36
65520,note_off,,,,,80,0,2,,,0,,,61,64
65600,note_off,,,,,80,0,2,,,0,,,53,64
65600,note_on,,,,,0,0,2,,,0,,,56,31
65640,set_tempo,,,,,160,1,0,472441,,,,,,
65680,note_off,,,,,80,0,2,,,0,,,56,64
65680,note_on,,,,,0,0,2,,,0,,,61,27
65700,note_off,,,,,420,0,1,,,0,,,73,64
65760,note_off,,,,,80,0,2,,,0,,,61,64
65760,control_change,,,,,0,0,2,,,0,64,0,,
65760,note_on,,,,,0,0,2,,,0,,,47,40
65760,note_on,,,,,0,0,1,,,0,,,61,45
65760,note_on,,,,,60,0,1,,,0,,,73,45
65800,set_tempo,,,,,160,1,0,487805,,,,,,
65840,note_off,,,,,80,0,2,,,0,,,47,64
65840,note_on,,,,,0,0,2,,,0,,,49,31
65850,note_off,,,,,0,0,1,,,0,,,73,64
65850,note_off,,,,,90,0,1,,,0,,,61,64
65880,note_on,,,,,0,0,1,,,0,,,61,37
65880,note_on,,,,,30,0,1,,,0,,,73,37
65920,note_on,,,,,0,0,2,,,0,,,56,27
65920,note_off,,,,,80,0,2,,,0,,,49,64
65970,note_off,,,,,90,0,1,,,0,,,61,64
65970,note_off,,,,,0,0,1,,,0,,,73,64
66000,note_on,,,,,0,0,2,,,0,,,47,29
66000,note_on,,,,,30,0,1,,,0,,,75,46
66000,note_on,,,,,0,0,1,,,0,,,63,46
66000,note_off,,,,,80,0,2,,,0,,,56,64
66080,note_off,,,,,80,0,2,,,0,,,47,64
66080,note_on,,,,,0,0,2,,,0,,,49,31
66080,set_tempo,,,,,280,1,0,472441,,,,,,
66090,note_off,,,,,90,0,1,,,0,,,63,64
66090,note_off,,,,,0,0,1,,,0,,,75,64
66120,note_on,,,,,30,0,1,,,0,,,77,50
66120,note_on,,,,,0,0,1,,,0,,,65,50
66160,note_off,,,,,80,0,2,,,0,,,49,64
66160,note_on,,,,,0,0,2,,,0,,,56,35
66180,set_tempo,,,,,100,1,0,461538,,,,,,
66210,note_off,,,,,0,0,1,,,0,,,77,64
66210,note_off,,,,,90,0,1,,,0,,,65,64
66240,note_on,,,,,0,0,2,,,0,,,45,40
66240,control_change,,,,,0,0,2,,,0,64,127,,
66240,note_off,,,,,80,0,2,,,0,,,56,64
66240,note_on,,,,,0,0,1,,,0,,,66,53
66240,note_on,,,,,30,0,1,,,0,,,78,53
66320,note_off,,,,,80,0,2,,,0,,,45,64
66320,note_on,,,,,0,0,2,,,0,,,49,31
66400,note_on,,,,,0,0,2,,,0,,,54,32
66400,note_off,,,,,80,0,2,,,0,,,49,64
66480,note_off,,,,,80,0,2,,,0,,,54,64
66480,note_on,,,,,0,0,2,,,0,,,45,38
66560,note_off,,,,,80,0,2,,,0,,,45,64
66560,note_on,,,,,0,0,2,,,0,,,49,31
66640,note_on,,,,,0,0,2,,,0,,,54,29
66640,note_off,,,,,80,0,2,,,0,,,49,64
66660,note_off,,,,,0,0,1,,,0,,,78,64
66660,note_off,,,,,420,0,1,,,0,,,66,64
66720,note_on,,,,,0,0,2,,,0,,,47,38
66720,control_change,,,,,0,0,2,,,0,64,0,,
66720,note_off,,,,,80,0,2,,,0,,,54,64
66720,note_on,,,,,0,0,1,,,0,,,68,53
66720,note_on,,,,,60,0,1,,,0,,,80,53
66800,note_on,,,,,0,0,2,,,0,,,56,31
66800,note_off,,,,,80,0,2,,,0,,,47,64
66880,note_on,,,,,0,0,2,,,0,,,59,30
66880,note_off,,,,,80,0,2,,,0,,,56,64
66930,note_off,,,,,0,0,1,,,0,,,80,64
66930,note_off,,,,,210,0,1,,,0,,,68,64
66960,note_off,,,,,80,0,2,,,0,,,59,64
66960,note_on,,,,,0,0,2,,,0,,,47,36
66960,note_on,,,,,30,0,1,,,0,,,80,48
66960,note_on,,,,,0,0,1,,,0,,,68,48
66980,set_tempo,,,,,800,1,0,451128,,,,,,
67040,note_off,,,,,80,0,2,,,0,,,47,64
67040,note_on,,,,,0,0,2,,,0,,,56,41
67120,note_off,,,,,80,0,2,,,0,,,56,64
67120,note_on,,,,,0,0,2,,,0,,,59,45
67160,set_tempo,,,,,180,1,0,441176,,,,,,
67170,note_off,,,,,0,0,1,,,0,,,80,64
67170,note_off,,,,,210,0,1,,,0,,,68,64
67200,note_off,,,,,80,0,2,,,0,,,59,64
67200,control_change,,,,,0,0,2,,,0,64,127,,
67200,note_on,,,,,0,0,2,,,0,,,49,49
67200,note_on,,,,,0,0,1,,,0,,,69,57
67200,note_on,,,,,30,0,1,,,0,,,81,57
67280,note_off,,,,,80,0,2,,,0,,,49,64
67280,note_on,,,,,0,0,2,,,0,,,57,45
67360,note_off,,,,,80,0,2,,,0,,,57,64
67360,note_on,,,,,0,0,2,,,0,,,61,42
67420,control_change,,,,,60,0,2,,,0,64,0,,
67440,note_on,,,,,0,0,2,,,0,,,49,45
67440,note_off,,,,,20,0,2,,,0,,,61,64
67440,control_change,,,,,0,0,2,,,0,64,127,,
67440,note_off,,,,,240,0,1,,,0,,,69,64
67440,note_off,,,,,0,0,1,,,0,,,81,64
67440,note_on,,,,,0,0,1,,,0,,,80,61
67440,note_on,,,,,0,0,1,,,0,,,68,61
67520,note_off,,,,,80,0,2,,,0,,,49,64
67520,note_on,,,,,0,0,2,,,0,,,59,49
67600,note_off,,,,,80,0,2,,,0,,,59,64
67600,note_on,,,,,0,0,2,,,0,,,62,54
67660,control_change,,,,,60,0,2,,,0,64,0,,
67660,control_change,,,,,0,0,2,,,0,64,0,,
67680,control_change,,,,,0,0,2,,,0,64,127,,
67680,note_on,,,,,0,0,2,,,0,,,49,54
67680,note_on,,,,,0,0,1,,,0,,,66,49
67680,note_off,,,,,240,0,1,,,0,,,68,64
67680,note_on,,,,,0,0,1,,,0,,,78,49
67680,note_off,,,,,20,0,2,,,0,,,62,64
67680,note_off,,,,,0,0,1,,,0,,,80,64
67760,note_on,,,,,0,0,2,,,0,,,57,53
67760,note_off,,,,,80,0,2,,,0,,,49,64
67840,note_off,,,,,80,0,2,,,0,,,57,64
67840,note_on,,,,,0,0,2,,,0,,,61,46
67900,control_change,,,,,60,0,2,,,0,64,0,,
67900,control_change,,,,,0,0,2,,,0,64,0,,
67920,note_off,,,,,240,0,1,,,0,,,66,64
67920,note_off,,,,,0,0,1,,,0,,,78,64
67920,note_on,,,,,0,0,1,,,0,,,77,46
67920,note_on,,,,,0,0,1,,,0,,,65,46
67920,set_tempo,,,,,760,1,0,451128,,,,,,
67920,note_on,,,,,0,0,2,,,0,,,49,41
67920,control_change,,,,,0,0,2,,,0,64,127,,
67920,note_off,,,,,20,0,2,,,0,,,61,64
67960,set_tempo,,,,,40,1,0,447761,,,,,,
68000,note_on,,,,,0,0,2,,,0,,,56,35
68000,note_off,,,,,80,0,2,,,0,,,49,64
68080,note_off,,,,,80,0,2,,,0,,,56,64
68080,note_on,,,,,0,0,2,,,0,,,59,33
68140,control_change,,,,,60,0,2,,,0,64,0,,
68160,note_off,,,,,20,0,2,,,0,,,59,64
68160,note_off,,,,,240,0,1,,,0,,,65,64
68160,note_off,,,,,0,0,1,,,0,,,77,64
68160,note_on,,,,,0,0,1,,,0,,,78,40
68160,note_on,,,,,0,0,1,,,0,,,66,40
68160,note_on,,,,,0,0,2,,,0,,,54,39
68170,control_change,,,,,10,0,2,,,0,64,0,,
68190,control_change,,,,,20,0,2,,,0,64,127,,
68240,note_on,,,,,0,0,2,,,0,,,57,35
68240,note_off,,,,,50,0,2,,,0,,,54,64
68320,note_off,,,,,80,0,2,,,0,,,57,64
68320,note_on,,,,,0,0,2,,,0,,,61,32
68340,note_off,,,,,180,0,1,,,0,,,66,64
68340,note_off,,,,,0,0,1,,,0,,,78,64
68400,note_on,,,,,60,0,1,,,0,,,66,34
68400,note_off,,,,,80,0,2,,,0,,,61,64
68480,note_off,,,,,80,0,1,,,0,,,66,64
68480,note_on,,,,,0,0,1,,,0,,,69,31
68530,control_change,,,,,130,0,2,,,0,64,0,,
68560,note_on,,,,,0,0,1,,,0,,,73,29
68560,note_off,,,,,80,0,1,,,0,,,69,64
68640,note_on,,,,,0,0,1,,,0,,,66,50
68640,note_on,,,,,110,0,2,,,0,,,61,51
68640,note_off,,,,,80,0,1,,,0,,,73,64
68680,set_tempo,,,,,720,1,0,437956,,,,,,
68720,note_off,,,,,80,0,1,,,0,,,66,64
68720,note_on,,,,,0,0,1,,,0,,,69,44
68800,note_on,,,,,0,0,1,,,0,,,73,35
68800,note_off,,,,,80,0,1,,,0,,,69,64
68820,note_off,,,,,180,0,2,,,0,,,61,64
68880,note_on,,,,,60,0,2,,,0,,,61,52
68880,note_on,,,,,0,0,1,,,0,,,66,40
68880,note_off,,,,,80,0,1,,,0,,,73,64
68940,set_tempo,,,,,260,1,0,425532,,,,,,
68960,note_on,,,,,0,0,1,,,0,,,69,41
68960,note_off,,,,,80,0,1,,,0,,,66,64
69040,note_off,,,,,80,0,1,,,0,,,69,64
69040,note_on,,,,,0,0,1,,,0,,,73,35
69060,note_off,,,,,180,0,2,,,0,,,61,64
69080,set_tempo,,,,,140,1,0,500000,,,,,,
69120,note_on,,,,,0,0,2,,,0,,,61,56
69120,note_off,,,,,80,0,1,,,0,,,73,64
69120,note_on,,,,,0,0,1,,,0,,,65,49
69120,control_change,,,,,60,0,2,,,0,64,127,,
69140,set_tempo,,,,,60,1,0,431655,,,,,,
69180,set_tempo,,,,,40,1,0,419580,,,,,,
69200,note_off,,,,,80,0,1,,,0,,,65,64
69200,note_on,,,,,0,0,1,,,0,,,68,41
69280,note_on,,,,,0,0,1,,,0,,,73,35
69280,note_off,,,,,80,0,1,,,0,,,68,64
69360,note_off,,,,,80,0,1,,,0,,,73,64
69360,note_on,,,,,0,0,1,,,0,,,65,38
69440,set_tempo,,,,,260,1,0,410959,,,,,,
69440,note_off,,,,,80,0,1,,,0,,,65,64
69440,note_on,,,,,0,0,1,,,0,,,68,41
69520,note_on,,,,,0,0,1,,,0,,,73,45
69520,note_off,,,,,80,0,1,,,0,,,68,64
69600,note_on,,,,,0,0,2,,,0,,,61,62
69600,control_change,,,,,0,0,2,,,0,64,0,,
69600,note_off,,,,,480,0,2,,,0,,,61,64
69600,note_off,,,,,80,0,1,,,0,,,73,64
69600,note_on,,,,,0,0,1,,,0,,,68,48
69660,set_tempo,,,,,220,1,0,402685,,,,,,
69680,note_on,,,,,0,0,1,,,0,,,71,42
69680,note_off,,,,,80,0,1,,,0,,,68,64
69690,note_off,,,,,90,0,2,,,0,,,61,64
69720,note_on,,,,,30,0,2,,,0,,,61,54
69760,note_on,,,,,0,0,1,,,0,,,73,37
69760,note_off,,,,,80,0,1,,,0,,,71,64
69810,note_off,,,,,90,0,2,,,0,,,61,64
69840,note_on,,,,,0,0,1,,,0,,,68,40
69840,note_on,,,,,30,0,2,,,0,,,63,58
69840,note_off,,,,,80,0,1,,,0,,,73,64
69920,note_off,,,,,80,0,1,,,0,,,68,64
69920,note_on,,,,,0,0,1,,,0,,,71,34
69930,note_off,,,,,90,0,2,,,0,,,63,64
69960,note_on,,,,,30,0,2,,,0,,,65,62
70000,note_off,,,,,80,0,1,,,0,,,71,64
70000,note_on,,,,,0,0,1,,,0,,,73,35
70050,note_off,,,,,90,0,2,,,0,,,65,64
70080,control_change,,,,,30,0,2,,,0,64,127,,
70080,note_on,,,,,0,0,2,,,0,,,66,69
70080,note_off,,,,,80,0,1,,,0,,,73,64
70080,note_on,,,,,0,0,1,,,0,,,69,44
70160,note_off,,,,,80,0,1,,,0,,,69,64
70160,note_on,,,,,0,0,1,,,0,,,73,44
70240,note_off,,,,,80,0,1,,,0,,,73,64
70240,note_on,,,,,0,0,1,,,0,,,69,35
70300,set_tempo,,,,,640,1,0,416667,,,,,,
70320,note_off,,,,,80,0,1,,,0,,,69,64
70320,note_on,,,,,0,0,1,,,0,,,66,46
70400,note_on,,,,,0,0,1,,,0,,,69,44
70400,note_off,,,,,80,0,1,,,0,,,66,64
70480,note_off,,,,,80,0,1,,,0,,,69,64
70480,note_on,,,,,0,0,1,,,0,,,73,37
70500,note_off,,,,,420,0,2,,,0,,,66,64
70560,control_change,,,,,60,0,2,,,0,64,0,,
70560,note_on,,,,,0,0,2,,,0,,,54,54
70560,note_on,,,,,0,0,1,,,0,,,73,50
70560,note_off,,,,,80,0,1,,,0,,,73,64
70600,set_tempo,,,,,300,1,0,425532,,,,,,
70640,note_off,,,,,80,0,1,,,0,,,73,64
70640,note_on,,,,,0,0,1,,,0,,,76,41
70650,note_off,,,,,90,0,2,,,0,,,54,64
70680,note_on,,,,,30,0,2,,,0,,,54,47
70720,note_off,,,,,80,0,1,,,0,,,76,64
70720,note_on,,,,,0,0,1,,,0,,,78,37
70770,note_off,,,,,90,0,2,,,0,,,54,64
70800,note_off,,,,,80,0,1,,,0,,,78,64
70800,note_on,,,,,0,0,1,,,0,,,73,39
70800,note_on,,,,,30,0,2,,,0,,,56,55
70860,set_tempo,,,,,260,1,0,454545,,,,,,
70880,note_off,,,,,80,0,1,,,0,,,73,64
70880,note_on,,,,,0,0,1,,,0,,,76,41
70890,note_off,,,,,90,0,2,,,0,,,56,64
70920,note_on,,,,,30,0,2,,,0,,,58,63
70960,note_off,,,,,80,0,1,,,0,,,76,64
70960,note_on,,,,,0,0,1,,,0,,,78,45
71010,note_off,,,,,90,0,2,,,0,,,58,64
71040,note_off,,,,,80,0,1,,,0,,,78,64
71040,note_on,,,,,0,0,1,,,0,,,71,50
71040,note_on,,,,,0,0,2,,,0,,,59,66
71040,control_change,,,,,30,0,2,,,0,64,127,,
71120,note_off,,,,,80,0,1,,,0,,,71,64
71120,note_on,,,,,0,0,1,,,0,,,74,41
71200,note_off,,,,,80,0,1,,,0,,,74,64
71200,note_on,,,,,0,0,1,,,0,,,78,35
71220,set_tempo,,,,,360,1,0,437956,,,,,,
71280,note_off,,,,,80,0,1,,,0,,,78,64
71280,note_on,,,,,0,0,1,,,0,,,71,51
71360,note_off,,,,,80,0,1,,,0,,,71,64
71360,note_on,,,,,0,0,1,,,0,,,74,46
71400,set_tempo,,,,,180,1,0,422535,,,,,,
71440,note_off,,,,,80,0,1,,,0,,,74,64
71440,note_on,,,,,0,0,1,,,0,,,78,40
71460,note_off,,,,,420,0,2,,,0,,,59,64
71500,note_off,,,,,60,0,1,,,0,,,78,64
71520,control_change,,,,,60,0,2,,,0,64,0,,
71520,note_on,,,,,20,0,1,,,0,,,78,54
71520,note_on,,,,,0,0,2,,,0,,,47,71
71600,note_off,,,,,80,0,1,,,0,,,78,64
71600,note_on,,,,,0,0,1,,,0,,,83,49
71610,note_off,,,,,90,0,2,,,0,,,47,64
71640,note_on,,,,,30,0,2,,,0,,,47,63
71680,note_on,,,,,0,0,1,,,0,,,86,46
71680,note_off,,,,,80,0,1,,,0,,,83,64
71730,note_off,,,,,90,0,2,,,0,,,47,64
71760,note_on,,,,,0,0,1,,,0,,,78,55
71760,note_off,,,,,80,0,1,,,0,,,86,64
71760,note_on,,,,,30,0,2,,,0,,,49,68
71840,note_off,,,,,80,0,1,,,0,,,78,64
71840,note_on,,,,,0,0,1,,,0,,,83,62
71850,note_off,,,,,90,0,2,,,0,,,49,64
71880,note_on,,,,,30,0,2,,,0,,,50,73
71920,note_off,,,,,80,0,1,,,0,,,83,64
71920,note_on,,,,,0,0,1,,,0,,,86,66
71970,note_off,,,,,90,0,2,,,0,,,50,64
72000,control_change,,,,,0,0,2,,,0,64,127,,
72000,note_on,,,,,30,0,2,,,0,,,49,77
72000,set_tempo,,,,,600,1,0,434783,,,,,,
72000,note_on,,,,,0,0,1,,,0,,,76,71
72000,note_off,,,,,80,0,1,,,0,,,86,64
72080,note_on,,,,,0,0,1,,,0,,,81,63
72080,note_off,,,,,80,0,1,,,0,,,76,64
72160,note_on,,,,,0,0,1,,,0,,,88,55
72160,note_off,,,,,80,0,1,,,0,,,81,64
72220,control_change,,,,,220,0,2,,,0,64,0,,
72240,set_tempo,,,,,240,1,0,447761,,,,,,
72240,note_on,,,,,0,0,2,,,0,,,50,69
72240,control_change,,,,,0,0,2,,,0,64,127,,
72240,note_off,,,,,20,0,2,,,0,,,49,64
72240,note_on,,,,,0,0,1,,,0,,,78,81
72240,note_off,,,,,80,0,1,,,0,,,88,64
72320,note_on,,,,,0,0,1,,,0,,,81,75
72320,note_off,,,,,80,0,1,,,0,,,78,64
72400,note_off,,,,,80,0,1,,,0,,,81,64
72400,note_on,,,,,0,0,1,,,0,,,86,71
72460,control_change,,,,,0,0,2,,,0,64,0,,
72460,control_change,,,,,220,0,2,,,0,64,0,,
72480,note_off,,,,,80,0,1,,,0,,,86,64
72480,note_on,,,,,0,0,1,,,0,,,76,72
72480,control_change,,,,,0,0,2,,,0,64,127,,
72480,note_off,,,,,20,0,2,,,0,,,50,64
72480,note_on,,,,,0,0,2,,,0,,,52,54
72540,set_tempo,,,,,300,1,0,461538,,,,,,
72560,note_on,,,,,0,0,1,,,0,,,81,63
72560,note_off,,,,,80,0,1,,,0,,,76,64
72640,note_off,,,,,80,0,1,,,0,,,81,64
72640,note_on,,,,,0,0,1,,,0,,,85,53
72696,note_off,,,,,216,0,2,,,0,,,52,64
72700,control_change,,,,,4,0,2,,,0,64,0,,
72700,control_change,,,,,0,0,2,,,0,64,0,,
72720,set_tempo,,,,,180,1,0,468750,,,,,,
72720,control_change,,,,,20,0,2,,,0,64,127,,
72720,note_on,,,,,0,0,2,,,0,,,52,47
72720,note_off,,,,,80,0,1,,,0,,,85,64
72720,note_on,,,,,0,0,1,,,0,,,76,59
72800,note_off,,,,,80,0,1,,,0,,,76,64
72800,note_on,,,,,0,0,1,,,0,,,80,53
72880,note_on,,,,,0,0,1,,,0,,,83,45
72880,note_off,,,,,80,0,1,,,0,,,80,64
72936,note_off,,,,,216,0,2,,,0,,,52,64
72940,control_change,,,,,4,0,2,,,0,64,0,,
72960,note_on,,,,,20,0,2,,,0,,,45,49
72960,note_off,,,,,80,0,1,,,0,,,83,64
72960,note_on,,,,,0,0,1,,,0,,,81,49
72970,control_change,,,,,10,0,2,,,0,64,0,,
72990,control_change,,,,,20,0,2,,,0,64,127,,
73000,set_tempo,,,,,280,1,0,487805,,,,,,
73040,note_off,,,,,80,0,1,,,0,,,81,64
73040,note_on,,,,,0,0,1,,,0,,,85,41
73120,note_off,,,,,80,0,1,,,0,,,85,64
73120,note_on,,,,,0,0,1,,,0,,,81,35
73180,set_tempo,,,,,180,1,0,512821,,,,,,
73200,note_on,,,,,0,0,1,,,0,,,76,38
73200,note_off,,,,,80,0,1,,,0,,,81,64
73280,note_off,,,,,80,0,1,,,0,,,76,64
73280,note_on,,,,,0,0,1,,,0,,,73,36
73320,set_tempo,,,,,140,1,0,530973,,,,,,
73330,control_change,,,,,340,0,2,,,0,64,0,,
73360,note_on,,,,,0,0,1,,,0,,,69,35
73360,note_off,,,,,80,0,1,,,0,,,73,64
73380,note_off,,,,,50,0,2,,,0,,,45,64
73380,set_tempo,,,,,60,1,0,681818,,,,,,
73420,note_off,,,,,60,0,1,,,0,,,69,64
73440,note_on,,,,,0,0,2,,,0,,,64,32
73440,note_on,,,,,60,0,2,,,0,,,57,32
73440,note_on,,,,,20,0,1,,,0,,,76,41
73440,set_tempo,,,,,60,1,0,508475,,,,,,
73440,note_on,,,,,0,0,2,,,0,,,61,32
73460,set_tempo,,,,,20,1,0,504202,,,,,,
73520,note_off,,,,,80,0,1,,,0,,,76,64
73520,note_on,,,,,0,0,1,,,0,,,73,34
73540,set_tempo,,,,,80,1,0,491803,,,,,,
73600,note_on,,,,,0,0,1,,,0,,,69,31
73600,note_off,,,,,80,0,1,,,0,,,73,64
73620,note_off,,,,,0,0,2,,,0,,,57,64
73620,note_off,,,,,0,0,2,,,0,,,61,64
73620,note_off,,,,,180,0,2,,,0,,,64,64
73640,set_tempo,,,,,100,1,0,476190,,,,,,
73680,note_on,,,,,0,0,2,,,0,,,61,36
73680,note_on,,,,,0,0,2,,,0,,,64,36
73680,note_on,,,,,0,0,1,,,0,,,76,35
73680,note_off,,,,,80,0,1,,,0,,,69,64
73680,note_on,,,,,60,0,2,,,0,,,57,36
73760,note_on,,,,,0,0,1,,,0,,,73,34
73760,set_tempo,,,,,120,1,0,465116,,,,,,
73760,note_off,,,,,80,0,1,,,0,,,76,64
73840,note_on,,,,,0,0,1,,,0,,,69,38
73840,note_off,,,,,80,0,1,,,0,,,73,64
73860,note_off,,,,,180,0,2,,,0,,,64,64
73860,note_off,,,,,0,0,2,,,0,,,61,64
73860,note_off,,,,,0,0,2,,,0,,,57,64
73920,note_on,,,,,0,0,2,,,0,,,64,48
73920,control_change,,,,,60,0,2,,,0,64,127,,
73920,note_off,,,,,80,0,1,,,0,,,69,64
73920,note_on,,,,,0,0,1,,,0,,,68,44
73920,note_on,,,,,0,0,2,,,0,,,57,48
73920,note_on,,,,,0,0,2,,,0,,,62,48
73940,set_tempo,,,,,180,1,0,555556,,,,,,
73980,set_tempo,,,,,40,1,0,491803,,,,,,
74000,note_off,,,,,80,0,1,,,0,,,68,64
74000,note_on,,,,,0,0,1,,,0,,,71,39
74060,set_tempo,,,,,80,1,0,468750,,,,,,
74080,note_off,,,,,80,0,1,,,0,,,71,64
74080,note_on,,,,,0,0,1,,,0,,,76,31
74080,set_tempo,,,,,20,1,0,465116,,,,,,
74160,note_on,,,,,0,0,1,,,0,,,68,32
74160,note_off,,,,,80,0,1,,,0,,,76,64
74180,set_tempo,,,,,100,1,0,447761,,,,,,
74240,note_on,,,,,0,0,1,,,0,,,71,35
74240,note_off,,,,,80,0,1,,,0,,,68,64
74320,note_on,,,,,0,0,1,,,0,,,76,38
74320,note_off,,,,,80,0,1,,,0,,,71,64
74352,note_off,,,,,0,0,2,,,0,,,64,64
74352,note_off,,,,,432,0,2,,,0,,,57,64
74352,note_off,,,,,0,0,2,,,0,,,62,64
74380,note_off,,,,,60,0,1,,,0,,,76,64
74400,note_on,,,,,0,0,2,,,0,,,64,40
74400,note_on,,,,,0,0,2,,,0,,,62,40
74400,note_on,,,,,0,0,2,,,0,,,57,40
74400,note_on,,,,,20,0,1,,,0,,,76,43
74400,control_change,,,,,48,0,2,,,0,64,0,,
74480,note_on,,,,,0,0,1,,,0,,,80,34
74480,note_off,,,,,80,0,1,,,0,,,76,64
74560,note_on,,,,,0,0,1,,,0,,,83,38
74560,note_off,,,,,80,0,1,,,0,,,80,64
74580,note_off,,,,,0,0,2,,,0,,,62,64
74580,note_off,,,,,0,0,2,,,0,,,57,64
74580,note_off,,,,,180,0,2,,,0,,,64,64
74640,set_tempo,,,,,460,1,0,458015,,,,,,
74640,note_on,,,,,60,0,2,,,0,,,57,38
74640,note_on,,,,,0,0,2,,,0,,,64,38
74640,note_off,,,,,80,0,1,,,0,,,83,64
74640,note_on,,,,,0,0,1,,,0,,,88,43
74640,note_on,,,,,0,0,2,,,0,,,62,38
74720,note_on,,,,,0,0,1,,,0,,,92,48
74720,note_off,,,,,80,0,1,,,0,,,88,64
74800,note_on,,,,,0,0,1,,,0,,,95,55
74800,note_off,,,,,80,0,1,,,0,,,92,64
74820,note_off,,,,,0,0,2,,,0,,,57,64
74820,note_off,,,,,180,0,2,,,0,,,64,64
74820,note_off,,,,,0,0,2,,,0,,,62,64
74860,set_tempo,,,,,220,1,0,483871,,,,,,
74880,control_change,,,,,60,0,2,,,0,64,127,,
74880,note_on,,,,,0,0,2,,,0,,,64,44
74880,note_off,,,,,80,0,1,,,0,,,95,64
74880,note_on,,,,,0,0,1,,,0,,,93,59
74880,note_on,,,,,0,0,2,,,0,,,61,44
74880,note_on,,,,,0,0,2,,,0,,,57,44
74960,note_on,,,,,0,0,1,,,0,,,88,59
74960,note_off,,,,,80,0,1,,,0,,,93,64
75040,note_off,,,,,80,0,1,,,0,,,88,64
75040,set_tempo,,,,,180,1,0,500000,,,,,,
75040,note_on,,,,,0,0,1,,,0,,,85,55
75120,note_on,,,,,0,0,1,,,0,,,81,51
75120,note_off,,,,,80,0,1,,,0,,,85,64
75200,note_off,,,,,80,0,1,,,0,,,81,64
75200,note_on,,,,,0,0,1,,,0,,,76,44
75280,note_off,,,,,80,0,1,,,0,,,76,64
75280,note_on,,,,,0,0,1,,,0,,,73,34
75312,note_off,,,,,0,0,2,,,0,,,64,64
75312,note_off,,,,,0,0,2,,,0,,,61,64
75312,note_off,,,,,432,0,2,,,0,,,57,64
75360,control_change,,,,,48,0,2,,,0,64,0,,
75360,note_on,,,,,0,0,2,,,0,,,64,39
75360,note_on,,,,,0,0,2,,,0,,,61,39
75360,note_on,,,,,0,0,1,,,0,,,76,41
75360,note_off,,,,,80,0,1,,,0,,,73,64
75360,note_on,,,,,0,0,2,,,0,,,57,39
75440,note_on,,,,,0,0,1,,,0,,,73,34
75440,note_off,,,,,80,0,1,,,0,,,76,64
75500,set_tempo,,,,,460,1,0,480000,,,,,,
75520,note_on,,,,,0,0,1,,,0,,,69,31
75520,note_off,,,,,80,0,1,,,0,,,73,64
75540,note_off,,,,,180,0,2,,,0,,,64,64
75540,note_off,,,,,0,0,2,,,0,,,61,64
75540,note_off,,,,,0,0,2,,,0,,,57,64
75600,note_on,,,,,60,0,2,,,0,,,57,34
75600,set_tempo,,,,,100,1,0,468750,,,,,,
75600,note_on,,,,,0,0,2,,,0,,,64,34
75600,note_on,,,,,0,0,1,,,0,,,76,35
75600,note_off,,,,,80,0,1,,,0,,,69,64
75600,note_on,,,,,0,0,2,,,0,,,61,34
75680,note_on,,,,,0,0,1,,,0,,,73,34
75680,note_off,,,,,80,0,1,,,0,,,76,64
75760,note_on,,,,,0,0,1,,,0,,,69,38
75760,note_off,,,,,80,0,1,,,0,,,73,64
75780,note_off,,,,,180,0,2,,,0,,,64,64
75780,note_off,,,,,0,0,2,,,0,,,61,64
75780,note_off,,,,,0,0,2,,,0,,,57,64
75840,note_off,,,,,80,0,1,,,0,,,69,64
75840,note_on,,,,,0,0,1,,,0,,,68,44
75840,control_change,,,,,60,0,2,,,0,64,127,,
75840,note_on,,,,,0,0,2,,,0,,,57,48
75840,note_on,,,,,0,0,2,,,0,,,62,48
75840,note_on,,,,,0,0,2,,,0,,,64,48
75860,set_tempo,,,,,260,1,0,555556,,,,,,
75920,note_off,,,,,80,0,1,,,0,,,68,64
75920,note_on,,,,,0,0,1,,,0,,,71,39
75920,set_tempo,,,,,60,1,0,491803,,,,,,
75980,set_tempo,,,,,60,1,0,465116,,,,,,
76000,note_on,,,,,0,0,1,,,0,,,76,31
76000,note_off,,,,,80,0,1,,,0,,,71,64
76060,set_tempo,,,,,80,1,0,454545,,,,,,
76080,note_on,,,,,0,0,1,,,0,,,68,32
76080,note_off,,,,,80,0,1,,,0,,,76,64
76160,note_on,,,,,0,0,1,,,0,,,71,35
76160,set_tempo,,,,,100,1,0,441176,,,,,,
76160,note_off,,,,,80,0,1,,,0,,,68,64
76240,note_off,,,,,80,0,1,,,0,,,71,64
76240,note_on,,,,,0,0,1,,,0,,,76,38
76272,note_off,,,,,432,0,2,,,0,,,57,64
76272,note_off,,,,,0,0,2,,,0,,,62,64
76272,note_off,,,,,0,0,2,,,0,,,64,64
76300,note_off,,,,,60,0,1,,,0,,,76,64
76320,note_on,,,,,0,0,2,,,0,,,64,50
76320,control_change,,,,,48,0,2,,,0,64,0,,
76320,note_on,,,,,0,0,2,,,0,,,57,50
76320,note_on,,,,,0,0,2,,,0,,,62,50
76320,note_on,,,,,20,0,1,,,0,,,76,43
76400,note_off,,,,,80,0,1,,,0,,,76,64
76400,note_on,,,,,0,0,1,,,0,,,80,34
76400,set_tempo,,,,,240,1,0,451128,,,,,,
76480,note_off,,,,,80,0,1,,,0,,,80,64
76480,note_on,,,,,0,0,1,,,0,,,83,35
76500,note_off,,,,,0,0,2,,,0,,,62,64
76500,note_off,,,,,0,0,2,,,0,,,57,64
76500,note_off,,,,,180,0,2,,,0,,,64,64
76560,note_on,,,,,0,0,2,,,0,,,64,45
76560,note_on,,,,,0,0,2,,,0,,,62,45
76560,note_on,,,,,60,0,2,,,0,,,57,45
76560,note_on,,,,,0,0,1,,,0,,,88,38
76560,note_off,,,,,80,0,1,,,0,,,83,64
76620,set_tempo,,,,,220,1,0,461538,,,,,,
76640,note_off,,,,,80,0,1,,,0,,,88,64
76640,note_on,,,,,0,0,1,,,0,,,92,43
76720,note_on,,,,,0,0,1,,,0,,,95,47
76720,note_off,,,,,80,0,1,,,0,,,92,64
76740,note_off,,,,,180,0,2,,,0,,,64,64
76740,note_off,,,,,0,0,2,,,0,,,62,64
76740,note_off,,,,,0,0,2,,,0,,,57,64
76780,set_tempo,,,,,160,1,0,480000,,,,,,
76800,control_change,,,,,60,0,2,,,0,64,127,,
76800,note_on,,,,,0,0,2,,,0,,,64,60
76800,note_on,,,,,0,0,2,,,0,,,57,60
76800,note_off,,,,,80,0,1,,,0,,,95,64
76800,note_on,,,,,0,0,1,,,0,,,93,53
76800,note_on,,,,,0,0,2,,,0,,,61,60
76880,note_off,,,,,80,0,1,,,0,,,93,64
76880,note_on,,,,,0,0,1,,,0,,,88,46
76960,note_on,,,,,0,0,1,,,0,,,85,55
76960,note_off,,,,,80,0,1,,,0,,,88,64
77040,set_tempo,,,,,260,1,0,495868,,,,,,
77040,note_off,,,,,80,0,1,,,0,,,85,64
77040,note_on,,,,,0,0,1,,,0,,,81,63
77120,note_off,,,,,80,0,1,,,0,,,81,64
77120,note_on,,,,,0,0,1,,,0,,,76,60
77140,set_tempo,,,,,100,1,0,480000,,,,,,
77200,note_off,,,,,80,0,1,,,0,,,76,64
77200,note_on,,,,,0,0,1,,,0,,,73,56
77232,note_off,,,,,0,0,2,,,0,,,61,64
77232,note_off,,,,,432,0,2,,,0,,,57,64
77232,note_off,,,,,0,0,2,,,0,,,64,64
77280,control_change,,,,,48,0,2,,,0,64,0,,
77280,note_on,,,,,0,0,1,,,0,,,76,69
77280,note_off,,,,,80,0,1,,,0,,,73,64
77280,note_on,,,,,0,0,2,,,0,,,64,53
77280,note_on,,,,,0,0,2,,,0,,,62,53
77280,note_on,,,,,0,0,2,,,0,,,57,53
77300,set_tempo,,,,,160,1,0,465116,,,,,,
77360,note_off,,,,,80,0,1,,,0,,,76,64
77360,note_on,,,,,0,0,1,,,0,,,80,56
77440,set_tempo,,,,,140,1,0,451128,,,,,,
77440,note_off,,,,,80,0,1,,,0,,,80,64
77440,note_on,,,,,0,0,1,,,0,,,83,63
77460,note_off,,,,,0,0,2,,,0,,,62,64
77460,note_off,,,,,0,0,2,,,0,,,57,64
77460,note_off,,,,,180,0,2,,,0,,,64,64
77520,note_on,,,,,60,0,2,,,0,,,57,50
77520,note_on,,,,,0,0,2,,,0,,,62,50
77520,note_on,,,,,0,0,2,,,0,,,64,50
77520,note_on,,,,,0,0,1,,,0,,,88,68
77520,note_off,,,,,80,0,1,,,0,,,83,64
77600,note_off,,,,,80,0,1,,,0,,,88,64
77600,note_on,,,,,0,0,1,,,0,,,92,75
77680,note_on,,,,,0,0,1,,,0,,,95,80
77680,note_off,,,,,80,0,1,,,0,,,92,64
77700,note_off,,,,,180,0,2,,,0,,,64,64
77700,note_off,,,,,0,0,2,,,0,,,62,64
77700,note_off,,,,,0,0,2,,,0,,,57,64
77760,note_off,,,,,80,0,1,,,0,,,95,64
77760,note_on,,,,,0,0,1,,,0,,,93,86
77760,note_on,,,,,0,0,2,,,0,,,64,62
77760,control_change,,,,,60,0,2,,,0,64,127,,
77760,note_on,,,,,0,0,2,,,0,,,61,62
77760,note_on,,,,,0,0,2,,,0,,,57,62
77820,set_tempo,,,,,380,1,0,437956,,,,,,
77840,note_off,,,,,80,0,1,,,0,,,93,64
77840,note_on,,,,,0,0,1,,,0,,,88,80
77920,note_off,,,,,80,0,1,,,0,,,88,64
77920,note_on,,,,,0,0,1,,,0,,,85,76
78000,note_on,,,,,0,0,1,,,0,,,81,74
78000,note_off,,,,,80,0,1,,,0,,,85,64
78080,note_off,,,,,80,0,1,,,0,,,81,64
78080,note_on,,,,,0,0,1,,,0,,,76,73
78160,note_off,,,,,80,0,1,,,0,,,76,64
78160,note_on,,,,,0,0,1,,,0,,,73,71
78192,note_off,,,,,432,0,2,,,0,,,57,64
78192,note_off,,,,,0,0,2,,,0,,,64,64
78192,note_off,,,,,0,0,2,,,0,,,61,64
78200,set_tempo,,,,,380,1,0,425532,,,,,,
78240,note_off,,,,,80,0,1,,,0,,,73,64
78240,note_on,,,,,0,0,2,,,0,,,64,69
78240,note_on,,,,,0,0,2,,,0,,,62,69
78240,note_on,,,,,0,0,2,,,0,,,57,69
78240,control_change,,,,,48,0,2,,,0,64,0,,
78240,note_on,,,,,0,0,1,,,0,,,76,86
78320,note_on,,,,,0,0,1,,,0,,,80,85
78320,set_tempo,,,,,120,1,0,437956,,,,,,
78320,note_off,,,,,80,0,1,,,0,,,76,64
78400,note_off,,,,,80,0,1,,,0,,,80,64
78400,note_on,,,,,0,0,1,,,0,,,83,89
78420,note_off,,,,,0,0,2,,,0,,,62,64
78420,note_off,,,,,180,0,2,,,0,,,64,64
78420,note_off,,,,,0,0,2,,,0,,,57,64
78480,note_off,,,,,80,0,1,,,0,,,83,64
78480,note_on,,,,,60,0,2,,,0,,,57,63
78480,note_on,,,,,0,0,2,,,0,,,62,63
78480,note_on,,,,,0,0,2,,,0,,,64,63
78480,note_on,,,,,0,0,1,,,0,,,88,92
78560,note_off,,,,,80,0,1,,,0,,,88,64
78560,note_on,,,,,0,0,1,,,0,,,92,96
78560,set_tempo,,,,,240,1,0,444444,,,,,,
78640,note_off,,,,,80,0,1,,,0,,,92,64
78640,note_on,,,,,0,0,1,,,0,,,95,101
78660,note_off,,,,,0,0,2,,,0,,,57,64
78660,note_off,,,,,0,0,2,,,0,,,62,64
78660,note_off,,,,,180,0,2,,,0,,,64,64
78680,set_tempo,,,,,120,1,0,465116,,,,,,
78720,note_on,,,,,0,0,2,,,0,,,64,79
78720,control_change,,,,,60,0,2,,,0,64,127,,
78720,note_on,,,,,0,0,1,,,0,,,93,105
78720,note_off,,,,,80,0,1,,,0,,,95,64
78720,note_on,,,,,0,0,2,,,0,,,57,79
78720,note_on,,,,,0,0,2,,,0,,,61,79
78800,note_off,,,,,80,0,1,,,0,,,93,64
78800,note_on,,,,,0,0,1,,,0,,,88,92
78820,set_tempo,,,,,140,1,0,476190,,,,,,
78840,set_tempo,,,,,20,1,0,480000,,,,,,
78880,note_off,,,,,80,0,1,,,0,,,88,64
78880,note_on,,,,,0,0,1,,,0,,,85,80
78920,set_tempo,,,,,80,1,0,504202,,,,,,
78960,note_off,,,,,80,0,1,,,0,,,85,64
78960,note_on,,,,,0,0,1,,,0,,,81,67
78980,set_tempo,,,,,60,1,0,530973,,,,,,
79040,note_off,,,,,80,0,1,,,0,,,81,64
79040,note_on,,,,,0,0,1,,,0,,,76,52
79120,set_tempo,,,,,140,1,0,550459,,,,,,
79120,note_on,,,,,0,0,1,,,0,,,73,40
79120,note_off,,,,,80,0,1,,,0,,,76,64
79152,note_off,,,,,432,0,2,,,0,,,57,64
79152,note_off,,,,,0,0,2,,,0,,,61,64
79152,note_off,,,,,0,0,2,,,0,,,64,64
79160,set_tempo,,,,,40,1,0,465116,,,,,,
79180,note_off,,,,,60,0,1,,,0,,,73,64
79200,note_on,,,,,48,0,2,,,0,,,61,38
79200,control_change,,,,,0,0,2,,,0,64,0,,
79200,note_on,,,,,20,0,1,,,0,,,76,34
79280,note_off,,,,,80,0,2,,,0,,,61,64
79280,note_on,,,,,0,0,2,,,0,,,64,35
79320,set_tempo,,,,,160,1,0,476190,,,,,,
79360,note_off,,,,,80,0,2,,,0,,,64,64
79360,note_on,,,,,0,0,2,,,0,,,69,33
79380,note_off,,,,,180,0,1,,,0,,,76,64
79440,note_off,,,,,80,0,2,,,0,,,69,64
79440,note_on,,,,,60,0,1,,,0,,,76,42
79440,note_on,,,,,0,0,2,,,0,,,61,33
79520,note_on,,,,,0,0,2,,,0,,,64,35
79520,note_off,,,,,80,0,2,,,0,,,61,64
79600,note_off,,,,,80,0,2,,,0,,,64,64
79600,note_on,,,,,0,0,2,,,0,,,69,37
79620,note_off,,,,,180,0,1,,,0,,,76,64
79680,note_off,,,,,80,0,2,,,0,,,69,64
79680,control_change,,,,,0,0,2,,,0,64,127,,
79680,note_on,,,,,0,0,2,,,0,,,59,39
79680,note_on,,,,,60,0,1,,,0,,,76,44
79720,set_tempo,,,,,400,1,0,483871,,,,,,
79760,note_off,,,,,80,0,2,,,0,,,59,64
79760,note_on,,,,,0,0,2,,,0,,,62,36
79840,note_off,,,,,80,0,2,,,0,,,62,64
79840,note_on,,,,,0,0,2,,,0,,,68,32
79920,note_on,,,,,0,0,2,,,0,,,59,33
79920,note_off,,,,,80,0,2,,,0,,,68,64
79960,set_tempo,,,,,240,1,0,500000,,,,,,
80000,note_off,,,,,80,0,2,,,0,,,59,64
80000,note_on,,,,,0,0,2,,,0,,,62,33
80080,note_on,,,,,0,0,2,,,0,,,68,36
80080,note_off,,,,,80,0,2,,,0,,,62,64
80100,note_off,,,,,420,0,1,,,0,,,76,64
80160,control_change,,,,,0,0,2,,,0,64,0,,
80160,note_on,,,,,60,0,1,,,0,,,76,34
80160,note_off,,,,,80,0,2,,,0,,,68,64
80160,note_on,,,,,0,0,2,,,0,,,58,38
80240,set_tempo,,,,,280,1,0,512821,,,,,,
80240,note_on,,,,,0,0,2,,,0,,,62,35
80240,note_off,,,,,80,0,2,,,0,,,58,64
80320,note_on,,,,,0,0,2,,,0,,,67,33
80320,note_off,,,,,80,0,2,,,0,,,62,64
80340,note_off,,,,,180,0,1,,,0,,,76,64
80400,note_off,,,,,80,0,2,,,0,,,67,64
80400,note_on,,,,,0,0,2,,,0,,,58,33
80400,note_on,,,,,60,0,1,,,0,,,76,42
80480,note_off,,,,,80,0,2,,,0,,,58,64
80480,note_on,,,,,0,0,2,,,0,,,62,35
80560,note_off,,,,,80,0,2,,,0,,,62,64
80560,note_on,,,,,0,0,2,,,0,,,67,37
80580,note_off,,,,,180,0,1,,,0,,,76,64
80580,set_tempo,,,,,340,1,0,526316,,,,,,
80640,note_on,,,,,0,0,2,,,0,,,57,39
80640,control_change,,,,,0,0,2,,,0,64,127,,
80640,note_off,,,,,80,0,2,,,0,,,67,64
80640,note_on,,,,,60,0,1,,,0,,,76,44
80720,note_on,,,,,0,0,2,,,0,,,61,36
80720,note_off,,,,,80,0,2,,,0,,,57,64
80760,set_tempo,,,,,180,1,0,545455,,,,,,
80800,note_on,,,,,0,0,2,,,0,,,67,32
80800,note_off,,,,,80,0,2,,,0,,,61,64
80880,note_on,,,,,0,0,2,,,0,,,57,33
80880,note_off,,,,,80,0,2,,,0,,,67,64
80960,note_on,,,,,0,0,2,,,0,,,61,33
80960,note_off,,,,,80,0,2,,,0,,,57,64
81040,note_on,,,,,0,0,2,,,0,,,67,36
81040,note_off,,,,,80,0,2,,,0,,,61,64
81060,note_off,,,,,420,0,1,,,0,,,76,64
81120,note_on,,,,,60,0,1,,,0,,,76,50
81120,note_on,,,,,0,0,2,,,0,,,55,40
81120,note_off,,,,,80,0,2,,,0,,,67,64
81120,control_change,,,,,0,0,2,,,0,64,0,,
81200,note_off,,,,,80,0,2,,,0,,,55,64
81200,note_on,,,,,0,0,2,,,0,,,57,39
81210,note_off,,,,,90,0,1,,,0,,,76,64
81240,note_on,,,,,30,0,1,,,0,,,76,42
81280,note_off,,,,,80,0,2,,,0,,,57,64
81280,note_on,,,,,0,0,2,,,0,,,61,44
81330,note_off,,,,,90,0,1,,,0,,,76,64
81360,note_on,,,,,30,0,1,,,0,,,78,51
81360,note_on,,,,,0,0,2,,,0,,,55,50
81360,note_off,,,,,80,0,2,,,0,,,61,64
81440,note_on,,,,,0,0,2,,,0,,,57,53
81440,note_off,,,,,80,0,2,,,0,,,55,64
81440,set_tempo,,,,,680,1,0,530973,,,,,,
81450,note_off,,,,,90,0,1,,,0,,,78,64
81480,note_on,,,,,30,0,1,,,0,,,79,65
81520,note_off,,,,,80,0,2,,,0,,,57,64
81520,note_on,,,,,0,0,2,,,0,,,61,55
81570,note_off,,,,,90,0,1,,,0,,,79,64
81600,note_off,,,,,80,0,2,,,0,,,61,64
81600,note_on,,,,,0,0,2,,,0,,,54,58
81600,note_on,,,,,30,0,1,,,0,,,81,71
81600,control_change,,,,,0,0,2,,,0,64,127,,
81640,set_tempo,,,,,200,1,0,512821,,,,,,
81680,note_off,,,,,80,0,2,,,0,,,54,64
81680,note_on,,,,,0,0,2,,,0,,,57,52
81760,control_change,,,,,0,0,2,,,0,64,0,,
81760,note_on,,,,,0,0,2,,,0,,,62,48
81760,note_off,,,,,80,0,2,,,0,,,57,64
81840,note_on,,,,,0,0,1,,,0,,,79,61
81840,note_off,,,,,80,0,2,,,0,,,62,64
81840,note_on,,,,,0,0,2,,,0,,,55,49
81840,control_change,,,,,0,0,2,,,0,64,127,,
81840,note_off,,,,,240,0,1,,,0,,,81,64
81920,note_on,,,,,0,0,2,,,0,,,59,43
81920,note_off,,,,,80,0,2,,,0,,,55,64
81920,set_tempo,,,,,280,1,0,491803,,,,,,
82000,note_on,,,,,0,0,2,,,0,,,62,40
82000,control_change,,,,,0,0,2,,,0,64,0,,
82000,note_off,,,,,80,0,2,,,0,,,59,64
82080,note_on,,,,,0,0,2,,,0,,,57,43
82080,note_off,,,,,240,0,1,,,0,,,79,64
82080,note_on,,,,,0,0,1,,,0,,,78,55
82080,control_change,,,,,0,0,2,,,0,64,127,,
82080,note_off,,,,,80,0,2,,,0,,,62,64
82160,set_tempo,,,,,240,1,0,472441,,,,,,
82160,note_off,,,,,80,0,2,,,0,,,57,64
82160,note_on,,,,,0,0,2,,,0,,,62,41
82240,control_change,,,,,0,0,2,,,0,64,0,,
82240,note_off,,,,,80,0,2,,,0,,,62,64
82240,note_on,,,,,0,0,2,,,0,,,66,38
82320,note_off,,,,,80,0,2,,,0,,,66,64
82320,note_on,,,,,0,0,1,,,0,,,76,47
82320,note_off,,,,,240,0,1,,,0,,,78,64
82320,note_on,,,,,0,0,2,,,0,,,57,38
82320,control_change,,,,,0,0,2,,,0,64,127,,
82340,set_tempo,,,,,180,1,0,454545,,,,,,
82400,note_on,,,,,0,0,2,,,0,,,64,37
82400,note_off,,,,,80,0,2,,,0,,,57,64
82480,note_off,,,,,80,0,2,,,0,,,64,64
82480,control_change,,,,,0,0,2,,,0,64,0,,
82480,note_on,,,,,0,0,2,,,0,,,67,39
82560,note_on,,,,,0,0,1,,,0,,,78,44
82560,note_off,,,,,240,0,1,,,0,,,76,64
82560,note_on,,,,,0,0,2,,,0,,,62,41
82560,note_off,,,,,80,0,2,,,0,,,67,64
82640,note_off,,,,,80,0,2,,,0,,,62,64
82640,note_on,,,,,0,0,2,,,0,,,66,36
82720,note_off,,,,,80,0,2,,,0,,,66,64
82720,note_on,,,,,0,0,2,,,0,,,69,32
82800,note_off,,,,,80,0,2,,,0,,,69,64
82800,note_on,,,,,0,0,2,,,0,,,62,34
82880,note_off,,,,,80,0,2,,,0,,,62,64
82880,note_on,,,,,0,0,2,,,0,,,66,31
82960,note_on,,,,,0,0,2,,,0,,,69,29
82960,note_off,,,,,80,0,2,,,0,,,66,64
82980,note_off,,,,,420,0,1,,,0,,,78,64
83020,note_off,,,,,60,0,2,,,0,,,69,64
83040,control_change,,,,,0,0,2,,,0,64,0,,
83040,note_on,,,,,20,0,2,,,0,,,66,38
83040,note_on,,,,,60,0,1,,,0,,,81,41
83040,set_tempo,,,,,700,1,0,468750,,,,,,
83120,note_on,,,,,0,0,2,,,0,,,69,35
83120,note_off,,,,,80,0,2,,,0,,,66,64
83200,note_off,,,,,80,0,2,,,0,,,69,64
83200,note_on,,,,,0,0,2,,,0,,,74,33
83220,note_off,,,,,180,0,1,,,0,,,81,64
83280,note_on,,,,,60,0,1,,,0,,,81,48
83280,note_off,,,,,80,0,2,,,0,,,74,64
83280,note_on,,,,,0,0,2,,,0,,,66,33
83360,note_on,,,,,0,0,2,,,0,,,69,35
83360,note_off,,,,,80,0,2,,,0,,,66,64
83440,note_on,,,,,0,0,2,,,0,,,74,37
83440,note_off,,,,,80,0,2,,,0,,,69,64
83460,note_off,,,,,180,0,1,,,0,,,81,64
83460,set_tempo,,,,,420,1,0,560748,,,,,,
83520,note_on,,,,,0,0,2,,,0,,,64,39
83520,note_off,,,,,80,0,2,,,0,,,74,64
83520,control_change,,,,,0,0,2,,,0,64,127,,
83520,note_on,,,,,60,0,1,,,0,,,81,50
83540,set_tempo,,,,,80,1,0,465116,,,,,,
83600,note_off,,,,,80,0,2,,,0,,,64,64
83600,note_on,,,,,0,0,2,,,0,,,67,36
83680,note_on,,,,,0,0,2,,,0,,,73,32
83680,note_off,,,,,80,0,2,,,0,,,67,64
83760,note_on,,,,,0,0,2,,,0,,,64,33
83760,note_off,,,,,80,0,2,,,0,,,73,64
83840,note_off,,,,,80,0,2,,,0,,,64,64
83840,note_on,,,,,0,0,2,,,0,,,67,33
83920,note_off,,,,,80,0,2,,,0,,,67,64
83920,note_on,,,,,0,0,2,,,0,,,73,36
83940,note_off,,,,,420,0,1,,,0,,,81,64
84000,note_off,,,,,80,0,2,,,0,,,73,64
84000,note_on,,,,,60,0,1,,,0,,,81,41
84000,note_on,,,,,0,0,2,,,0,,,63,38
84000,control_change,,,,,0,0,2,,,0,64,0,,
84080,note_on,,,,,0,0,2,,,0,,,67,35
84080,note_off,,,,,80,0,2,,,0,,,63,64
84140,set_tempo,,,,,600,1,0,480000,,,,,,
84160,note_off,,,,,80,0,2,,,0,,,67,64
84160,note_on,,,,,0,0,2,,,0,,,72,33
84180,note_off,,,,,180,0,1,,,0,,,81,64
84240,note_off,,,,,80,0,2,,,0,,,72,64
84240,note_on,,,,,0,0,2,,,0,,,63,33
84240,note_on,,,,,60,0,1,,,0,,,81,48
84320,note_off,,,,,80,0,2,,,0,,,63,64
84320,note_on,,,,,0,0,2,,,0,,,67,35
84380,set_tempo,,,,,240,1,0,576923,,,,,,
84400,note_off,,,,,80,0,2,,,0,,,67,64
84400,note_on,,,,,0,0,2,,,0,,,72,37
84420,note_off,,,,,180,0,1,,,0,,,81,64
84480,note_on,,,,,0,0,2,,,0,,,62,39
84480,control_change,,,,,0,0,2,,,0,64,127,,
84480,note_off,,,,,80,0,2,,,0,,,72,64
84480,note_on,,,,,60,0,1,,,0,,,81,50
84500,set_tempo,,,,,120,1,0,495868,,,,,,
84560,note_off,,,,,80,0,2,,,0,,,62,64
84560,note_on,,,,,0,0,2,,,0,,,66,36
84640,note_off,,,,,80,0,2,,,0,,,66,64
84640,note_on,,,,,0,0,2,,,0,,,72,32
84720,note_off,,,,,80,0,2,,,0,,,72,64
84720,note_on,,,,,0,0,2,,,0,,,62,33
84800,note_on,,,,,0,0,2,,,0,,,66,33
84800,note_off,,,,,80,0,2,,,0,,,62,64
84880,note_on,,,,,0,0,2,,,0,,,72,36
84880,note_off,,,,,80,0,2,,,0,,,66,64
84900,note_off,,,,,420,0,1,,,0,,,81,64
84920,set_tempo,,,,,420,1,0,487805,,,,,,
84960,control_change,,,,,0,0,2,,,0,64,0,,
84960,note_on,,,,,0,0,2,,,0,,,60,40
84960,note_on,,,,,60,0,1,,,0,,,81,50
84960,note_off,,,,,80,0,2,,,0,,,72,64
85040,note_off,,,,,80,0,2,,,0,,,60,64
85040,note_on,,,,,0,0,2,,,0,,,62,39
85050,note_off,,,,,90,0,1,,,0,,,81,64
85080,note_on,,,,,30,0,1,,,0,,,81,48
85120,note_on,,,,,0,0,2,,,0,,,66,44
85120,note_off,,,,,80,0,2,,,0,,,62,64
85170,note_off,,,,,90,0,1,,,0,,,81,64
85200,note_on,,,,,0,0,2,,,0,,,60,50
85200,set_tempo,,,,,280,1,0,476190,,,,,,
85200,note_on,,,,,30,0,1,,,0,,,83,51
85200,note_off,,,,,80,0,2,,,0,,,66,64
85280,note_on,,,,,0,0,2,,,0,,,62,53
85280,note_off,,,,,80,0,2,,,0,,,60,64
85290,note_off,,,,,90,0,1,,,0,,,83,64
85320,note_on,,,,,30,0,1,,,0,,,84,60
85360,note_on,,,,,0,0,2,,,0,,,66,55
85360,set_tempo,,,,,160,1,0,465116,,,,,,
85360,note_off,,,,,80,0,2,,,0,,,62,64
85410,note_off,,,,,90,0,1,,,0,,,84,64
85440,note_on,,,,,30,0,1,,,0,,,86,67
85440,note_off,,,,,80,0,2,,,0,,,66,64
85440,note_on,,,,,0,0,2,,,0,,,59,58
85440,control_change,,,,,0,0,2,,,0,64,127,,
85520,note_off,,,,,80,0,2,,,0,,,59,64
85520,note_on,,,,,0,0,2,,,0,,,62,52
85540,set_tempo,,,,,180,1,0,454545,,,,,,
85600,control_change,,,,,0,0,2,,,0,64,0,,
85600,note_on,,,,,0,0,2,,,0,,,67,48
85600,note_off,,,,,80,0,2,,,0,,,62,64
85680,note_off,,,,,80,0,2,,,0,,,67,64
85680,note_on,,,,,0,0,2,,,0,,,60,49
85680,control_change,,,,,0,0,2,,,0,64,127,,
85680,note_off,,,,,240,0,1,,,0,,,86,64
85680,note_on,,,,,0,0,1,,,0,,,84,61
85760,note_off,,,,,80,0,2,,,0,,,60,64
85760,note_on,,,,,0,0,2,,,0,,,64,43
85800,set_tempo,,,,,260,1,0,447761,,,,,,
85840,note_off,,,,,80,0,2,,,0,,,64,64
85840,control_change,,,,,0,0,2,,,0,64,0,,
85840,note_on,,,,,0,0,2,,,0,,,67,40
85920,note_off,,,,,240,0,1,,,0,,,84,64
85920,note_on,,,,,0,0,1,,,0,,,83,52
85920,note_on,,,,,0,0,2,,,0,,,62,43
85920,note_off,,,,,80,0,2,,,0,,,67,64
85920,control_change,,,,,0,0,2,,,0,64,127,,
86000,note_off,,,,,80,0,2,,,0,,,62,64
86000,note_on,,,,,0,0,2,,,0,,,67,41
86040,set_tempo,,,,,240,1,0,468750,,,,,,
86080,note_off,,,,,80,0,2,,,0,,,67,64
86080,control_change,,,,,0,0,2,,,0,64,0,,
86080,note_on,,,,,0,0,2,,,0,,,71,38
86160,note_off,,,,,80,0,2,,,0,,,71,64
86160,note_on,,,,,0,0,2,,,0,,,62,38
86160,set_tempo,,,,,120,1,0,495868,,,,,,
86160,control_change,,,,,0,0,2,,,0,64,127,,
86160,note_on,,,,,0,0,1,,,0,,,81,48
86160,note_off,,,,,240,0,1,,,0,,,83,64
86200,set_tempo,,,,,40,1,0,535714,,,,,,
86240,note_off,,,,,80,0,2,,,0,,,62,64
86240,note_on,,,,,0,0,2,,,0,,,69,37
86320,note_off,,,,,80,0,2,,,0,,,69,64
86320,note_on,,,,,0,0,2,,,0,,,72,39
86320,control_change,,,,,0,0,2,,,0,64,0,,
86320,set_tempo,,,,,120,1,0,566038,,,,,,
86340,set_tempo,,,,,20,1,0,740741,,,,,,
86400,note_off,,,,,80,0,2,,,0,,,72,64
86400,control_change,,,,,0,0,2,,,0,64,127,,
86400,note_on,,,,,0,0,1,,,0,,,83,50
86400,note_on,,,,,0,0,2,,,0,,,63,41
86400,note_off,,,,,240,0,1,,,0,,,81,64
86440,set_tempo,,,,,100,1,0,588235,,,,,,
86480,note_on,,,,,0,0,2,,,0,,,66,36
86480,note_off,,,,,80,0,2,,,0,,,63,64
86520,set_tempo,,,,,80,1,0,555556,,,,,,
86560,note_off,,,,,80,0,2,,,0,,,66,64
86560,note_on,,,,,0,0,2,,,0,,,71,32
86600,set_tempo,,,,,80,1,0,535714,,,,,,
86640,note_on,,,,,0,0,2,,,0,,,63,34
86640,note_off,,,,,80,0,2,,,0,,,71,64
86700,set_tempo,,,,,100,1,0,512821,,,,,,
86720,note_on,,,,,0,0,2,,,0,,,66,29
86720,note_off,,,,,80,0,2,,,0,,,63,64
86800,set_tempo,,,,,100,1,0,500000,,,,,,
86800,note_on,,,,,0,0,2,,,0,,,71,34
86800,note_off,,,,,80,0,2,,,0,,,66,64
86820,control_change,,,,,20,0,2,,,0,64,0,,
86820,note_off,,,,,420,0,1,,,0,,,83,64
86860,note_off,,,,,40,0,2,,,0,,,71,64
86880,note_on,,,,,20,0,2,,,0,,,59,40
86880,note_on,,,,,0,0,1,,,0,,,71,55
86880,note_on,,,,,60,0,1,,,0,,,83,55
86940,set_tempo,,,,,140,1,0,480000,,,,,,
86960,note_on,,,,,0,0,2,,,0,,,63,34
86960,note_off,,,,,80,0,2,,,0,,,59,64
86970,note_off,,,,,90,0,1,,,0,,,71,64
86970,note_off,,,,,0,0,1,,,0,,,83,64
87000,note_on,,,,,30,0,1,,,0,,,83,49
87000,note_on,,,,,0,0,1,,,0,,,71,49
87040,note_off,,,,,80,0,2,,,0,,,63,64
87040,note_on,,,,,0,0,2,,,0,,,66,41
87090,note_off,,,,,90,0,1,,,0,,,71,64
87090,note_off,,,,,0,0,1,,,0,,,83,64
87120,note_on,,,,,0,0,2,,,0,,,57,49
87120,note_off,,,,,80,0,2,,,0,,,66,64
87120,note_on,,,,,30,0,1,,,0,,,85,56
87120,note_on,,,,,0,0,1,,,0,,,73,56
87200,note_on,,,,,0,0,2,,,0,,,59,54
87200,note_off,,,,,80,0,2,,,0,,,57,64
87210,note_off,,,,,0,0,1,,,0,,,85,64
87210,note_off,,,,,90,0,1,,,0,,,73,64
87220,set_tempo,,,,,280,1,0,465116,,,,,,
87240,note_on,,,,,30,0,1,,,0,,,87,65
87240,note_on,,,,,0,0,1,,,0,,,75,65
87280,note_on,,,,,0,0,2,,,0,,,66,61
87280,note_off,,,,,80,0,2,,,0,,,59,64
87330,note_off,,,,,90,0,1,,,0,,,75,64
87330,note_off,,,,,0,0,1,,,0,,,87,64
87340,set_tempo,,,,,120,1,0,451128,,,,,,
87360,note_on,,,,,0,0,2,,,0,,,56,65
87360,note_off,,,,,80,0,2,,,0,,,66,64
87360,note_on,,,,,0,0,1,,,0,,,76,71
87360,control_change,,,,,0,0,2,,,0,64,127,,
87360,note_on,,,,,30,0,1,,,0,,,88,71
87440,note_on,,,,,0,0,2,,,0,,,59,58
87440,note_off,,,,,80,0,2,,,0,,,56,64
87520,note_on,,,,,0,0,2,,,0,,,64,52
87520,note_off,,,,,80,0,2,,,0,,,59,64
87600,note_off,,,,,80,0,2,,,0,,,64,64
87600,note_on,,,,,0,0,2,,,0,,,56,59
87660,set_tempo,,,,,320,1,0,437956,,,,,,
87680,note_off,,,,,80,0,2,,,0,,,56,64
87680,note_on,,,,,0,0,2,,,0,,,59,53
87760,note_off,,,,,80,0,2,,,0,,,59,64
87760,note_on,,,,,0,0,2,,,0,,,64,47
87780,note_off,,,,,0,0,1,,,0,,,88,64
87780,note_off,,,,,420,0,1,,,0,,,76,64
87840,note_on,,,,,0,0,1,,,0,,,76,65
87840,note_on,,,,,60,0,1,,,0,,,88,65
87840,note_off,,,,,80,0,2,,,0,,,64,64
87840,control_change,,,,,0,0,2,,,0,64,0,,
87840,control_change,,,,,0,0,2,,,0,64,0,,
87840,note_on,,,,,0,0,2,,,0,,,52,47
87920,note_off,,,,,80,0,2,,,0,,,52,64
87920,note_on,,,,,0,0,2,,,0,,,56,53
87930,note_off,,,,,90,0,1,,,0,,,76,64
87930,note_off,,,,,0,0,1,,,0,,,88,64
87960,note_on,,,,,0,0,1,,,0,,,76,61
87960,note_on,,,,,30,0,1,,,0,,,88,61
88000,note_off,,,,,80,0,2,,,0,,,56,64
88000,note_on,,,,,0,0,2,,,0,,,59,58
88050,note_off,,,,,0,0,1,,,0,,,88,64
88050,note_off,,,,,90,0,1,,,0,,,76,64
88080,note_on,,,,,0,0,2,,,0,,,50,64
88080,note_off,,,,,80,0,2,,,0,,,59,64
88080,note_on,,,,,0,0,1,,,0,,,78,71
88080,note_on,,,,,30,0,1,,,0,,,90,71
88160,note_on,,,,,0,0,2,,,0,,,52,68
88160,note_off,,,,,80,0,2,,,0,,,50,64
88170,note_off,,,,,90,0,1,,,0,,,78,64
88170,note_off,,,,,0,0,1,,,0,,,90,64
88200,note_on,,,,,30,0,1,,,0,,,92,79
88200,note_on,,,,,0,0,1,,,0,,,80,79
88240,note_on,,,,,0,0,2,,,0,,,59,72
88240,note_off,,,,,80,0,2,,,0,,,52,64
88290,note_off,,,,,90,0,1,,,0,,,80,64
88290,note_off,,,,,0,0,1,,,0,,,92,64
88320,note_on,,,,,30,0,1,,,0,,,93,83
88320,note_on,,,,,0,0,1,,,0,,,81,83
88320,note_off,,,,,80,0,2,,,0,,,59,64
88320,control_change,,,,,0,0,2,,,0,64,127,,
88320,note_on,,,,,0,0,2,,,0,,,49,74
88400,note_off,,,,,80,0,2,,,0,,,49,64
88400,note_on,,,,,0,0,2,,,0,,,52,67
88480,note_off,,,,,80,0,2,,,0,,,52,64
88480,note_on,,,,,0,0,2,,,0,,,57,58
88560,note_off,,,,,80,0,2,,,0,,,57,64
88560,note_on,,,,,0,0,2,,,0,,,49,62
88640,note_off,,,,,80,0,2,,,0,,,49,64
88640,note_on,,,,,0,0,2,,,0,,,52,57
88720,note_on,,,,,0,0,2,,,0,,,57,50
88720,note_off,,,,,80,0,2,,,0,,,52,64
88740,note_off,,,,,0,0,1,,,0,,,93,64
88740,note_off,,,,,420,0,1,,,0,,,81,64
88800,note_on,,,,,0,0,2,,,0,,,45,60
88800,control_change,,,,,0,0,2,,,0,64,0,,
88800,note_off,,,,,80,0,2,,,0,,,57,64
88800,note_on,,,,,60,0,1,,,0,,,85,71
88800,note_on,,,,,0,0,1,,,0,,,73,71
88880,note_off,,,,,80,0,2,,,0,,,45,64
88880,note_on,,,,,0,0,2,,,0,,,49,51
88960,note_off,,,,,80,0,2,,,0,,,49,64
88960,note_on,,,,,0,0,2,,,0,,,52,56
89010,note_off,,,,,210,0,1,,,0,,,73,64
89010,note_off,,,,,0,0,1,,,0,,,85,64
89040,note_on,,,,,30,0,1,,,0,,,85,57
89040,note_on,,,,,0,0,1,,,0,,,73,57
89040,note_off,,,,,80,0,2,,,0,,,52,64
89040,note_on,,,,,0,0,2,,,0,,,45,61
89120,note_off,,,,,80,0,2,,,0,,,45,64
89120,note_on,,,,,0,0,2,,,0,,,49,68
89200,set_tempo,,,,,1540,1,0,447761,,,,,,
89200,note_off,,,,,80,0,2,,,0,,,49,64
89200,note_on,,,,,0,0,2,,,0,,,52,77
89250,note_off,,,,,210,0,1,,,0,,,73,64
89250,note_off,,,,,0,0,1,,,0,,,85,64
89280,note_off,,,,,80,0,2,,,0,,,52,64
89280,note_on,,,,,0,0,2,,,0,,,44,81
89280,control_change,,,,,0,0,2,,,0,64,127,,
89280,note_on,,,,,0,0,1,,,0,,,71,75
89280,note_on,,,,,30,0,1,,,0,,,83,75
89360,note_off,,,,,80,0,2,,,0,,,44,64
89360,note_on,,,,,0,0,2,,,0,,,47,65
89420,set_tempo,,,,,220,1,0,451128,,,,,,
89440,note_off,,,,,80,0,2,,,0,,,47,64
89440,control_change,,,,,0,0,2,,,0,64,0,,
89440,note_on,,,,,0,0,2,,,0,,,52,55
89520,note_off,,,,,80,0,2,,,0,,,52,64
89520,note_on,,,,,0,0,2,,,0,,,45,58
89520,note_off,,,,,0,0,1,,,0,,,83,64
89520,note_off,,,,,240,0,1,,,0,,,71,64
89520,note_on,,,,,0,0,1,,,0,,,81,61
89520,note_on,,,,,0,0,1,,,0,,,69,61
89520,control_change,,,,,0,0,2,,,0,64,127,,
89580,set_tempo,,,,,160,1,0,465116,,,,,,
89600,note_on,,,,,0,0,2,,,0,,,49,50
89600,note_off,,,,,80,0,2,,,0,,,45,64
89680,control_change,,,,,0,0,2,,,0,64,0,,
89680,note_on,,,,,0,0,2,,,0,,,52,45
89680,note_off,,,,,80,0,2,,,0,,,49,64
89740,set_tempo,,,,,160,1,0,476190,,,,,,
89760,note_off,,,,,240,0,1,,,0,,,69,64
89760,note_off,,,,,80,0,2,,,0,,,52,64
89760,control_change,,,,,0,0,2,,,0,64,127,,
89760,note_on,,,,,0,0,2,,,0,,,47,49
89760,note_on,,,,,0,0,1,,,0,,,68,55
89760,note_on,,,,,0,0,1,,,0,,,80,55
89760,note_off,,,,,0,0,1,,,0,,,81,64
89840,note_off,,,,,80,0,2,,,0,,,47,64
89840,note_on,,,,,0,0,2,,,0,,,52,47
89920,control_change,,,,,0,0,2,,,0,64,0,,
89920,note_on,,,,,0,0,2,,,0,,,56,43
89920,note_off,,,,,80,0,2,,,0,,,52,64
89960,set_tempo,,,,,220,1,0,517241,,,,,,
90000,control_change,,,,,0,0,2,,,0,64,127,,
90000,note_on,,,,,0,0,2,,,0,,,47,41
90000,note_off,,,,,240,0,1,,,0,,,68,64
90000,note_off,,,,,0,0,1,,,0,,,80,64
90000,note_on,,,,,0,0,1,,,0,,,66,47
90000,note_off,,,,,80,0,2,,,0,,,56,64
90000,note_on,,,,,0,0,1,,,0,,,78,47
90080,note_off,,,,,80,0,2,,,0,,,47,64
90080,note_on,,,,,0,0,2,,,0,,,51,44
90160,note_off,,,,,80,0,2,,,0,,,51,64
90160,set_tempo,,,,,200,1,0,545455,,,,,,
90160,note_on,,,,,0,0,2,,,0,,,57,47
90160,control_change,,,,,0,0,2,,,0,64,0,,
90220,set_tempo,,,,,60,1,0,576923,,,,,,
90240,control_change,,,,,0,0,2,,,0,64,127,,
90240,note_on,,,,,0,0,1,,,0,,,76,44
90240,note_off,,,,,0,0,1,,,0,,,78,64
90240,note_off,,,,,240,0,1,,,0,,,66,64
90240,note_off,,,,,80,0,2,,,0,,,57,64
90240,note_on,,,,,0,0,2,,,0,,,52,47
90240,note_on,,,,,0,0,1,,,0,,,64,44
90280,set_tempo,,,,,60,1,0,521739,,,,,,
90320,note_off,,,,,80,0,2,,,0,,,52,64
90320,note_on,,,,,0,0,2,,,0,,,56,36
90400,note_on,,,,,0,0,2,,,0,,,59,40
90400,note_off,,,,,80,0,2,,,0,,,56,64
90440,set_tempo,,,,,160,1,0,555556,,,,,,
90480,note_on,,,,,0,0,2,,,0,,,64,45
90480,note_off,,,,,80,0,2,,,0,,,59,64
90560,note_off,,,,,80,0,2,,,0,,,64,64
90560,note_on,,,,,0,0,2,,,0,,,68,54
90580,set_tempo,,,,,140,1,0,571429,,,,,,
90630,control_change,,,,,70,0,2,,,0,64,0,,
90640,note_off,,,,,10,0,2,,,0,,,68,64
90640,note_on,,,,,0,0,2,,,0,,,71,60
90660,note_off,,,,,0,0,1,,,0,,,76,64
90660,note_off,,,,,420,0,1,,,0,,,64,64
90700,note_off,,,,,60,0,2,,,0,,,71,64
90720,note_on,,,,,60,0,1,,,0,,,64,66
90720,set_tempo,,,,,140,1,0,434783,,,,,,
90720,note_on,,,,,20,0,2,,,0,,,59,67
90800,note_on,,,,,0,0,1,,,0,,,67,60
90800,note_off,,,,,80,0,1,,,0,,,64,64
90880,note_on,,,,,0,0,1,,,0,,,71,51
90880,note_off,,,,,80,0,1,,,0,,,67,64
90900,note_off,,,,,180,0,2,,,0,,,59,64
90940,set_tempo,,,,,220,1,0,425532,,,,,,
90960,note_on,,,,,60,0,2,,,0,,,59,57
90960,note_on,,,,,0,0,1,,,0,,,64,56
90960,note_off,,,,,80,0,1,,,0,,,71,64
91040,note_on,,,,,0,0,1,,,0,,,67,57
91040,note_off,,,,,80,0,1,,,0,,,64,64
91120,note_off,,,,,80,0,1,,,0,,,67,64
91120,note_on,,,,,0,0,1,,,0,,,71,51
91140,note_off,,,,,180,0,2,,,0,,,59,64
91160,set_tempo,,,,,220,1,0,500000,,,,,,
91200,control_change,,,,,60,0,2,,,0,64,127,,
91200,note_on,,,,,0,0,2,,,0,,,59,72
91200,note_on,,,,,0,0,1,,,0,,,63,65
91200,note_off,,,,,80,0,1,,,0,,,71,64
91220,set_tempo,,,,,60,1,0,431655,,,,,,
91280,note_off,,,,,80,0,1,,,0,,,63,64
91280,set_tempo,,,,,60,1,0,419580,,,,,,
91280,note_on,,,,,0,0,1,,,0,,,66,57
91360,note_off,,,,,80,0,1,,,0,,,66,64
91360,note_on,,,,,0,0,1,,,0,,,71,51
91440,set_tempo,,,,,160,1,0,410959,,,,,,
91440,note_on,,,,,0,0,1,,,0,,,63,54
91440,note_off,,,,,80,0,1,,,0,,,71,64
91520,note_on,,,,,0,0,1,,,0,,,66,57
91520,note_off,,,,,80,0,1,,,0,,,63,64
91600,note_on,,,,,0,0,1,,,0,,,71,61
91600,note_off,,,,,80,0,1,,,0,,,66,64
91680,note_on,,,,,0,0,2,,,0,,,59,78
91680,control_change,,,,,0,0,2,,,0,64,0,,
91680,note_off,,,,,480,0,2,,,0,,,59,64
91680,note_off,,,,,80,0,1,,,0,,,71,64
91680,note_on,,,,,0,0,1,,,0,,,66,64
91700,set_tempo,,,,,260,1,0,402685,,,,,,
91760,note_off,,,,,80,0,1,,,0,,,66,64
91760,note_on,,,,,0,0,1,,,0,,,69,58
91770,note_off,,,,,90,0,2,,,0,,,59,64
91800,note_on,,,,,30,0,2,,,0,,,59,70
91840,note_off,,,,,80,0,1,,,0,,,69,64
91840,note_on,,,,,0,0,1,,,0,,,71,53
91890,note_off,,,,,90,0,2,,,0,,,59,64
91920,note_off,,,,,80,0,1,,,0,,,71,64
91920,note_on,,,,,0,0,1,,,0,,,66,56
91920,note_on,,,,,30,0,2,,,0,,,61,74
92000,note_off,,,,,80,0,1,,,0,,,66,64
92000,note_on,,,,,0,0,1,,,0,,,69,50
92010,note_off,,,,,90,0,2,,,0,,,61,64
92040,note_on,,,,,30,0,2,,,0,,,63,78
92080,note_on,,,,,0,0,1,,,0,,,71,51
92080,note_off,,,,,80,0,1,,,0,,,69,64
92130,note_off,,,,,90,0,2,,,0,,,63,64
92160,note_off,,,,,80,0,1,,,0,,,71,64
92160,note_on,,,,,0,0,1,,,0,,,67,60
92160,control_change,,,,,30,0,2,,,0,64,127,,
92160,note_on,,,,,0,0,2,,,0,,,64,85
92240,note_on,,,,,0,0,1,,,0,,,71,60
92240,note_off,,,,,80,0,1,,,0,,,67,64
92320,note_on,,,,,0,0,1,,,0,,,67,51
92320,note_off,,,,,80,0,1,,,0,,,71,64
92400,note_on,,,,,0,0,1,,,0,,,64,62
92400,note_off,,,,,80,0,1,,,0,,,67,64
92420,set_tempo,,,,,720,1,0,405405,,,,,,
92440,set_tempo,,,,,20,1,0,416667,,,,,,
92480,note_on,,,,,0,0,1,,,0,,,67,60
92480,note_off,,,,,80,0,1,,,0,,,64,64
92560,note_on,,,,,0,0,1,,,0,,,71,53
92560,note_off,,,,,80,0,1,,,0,,,67,64
92580,note_off,,,,,420,0,2,,,0,,,64,64
92640,note_off,,,,,80,0,1,,,0,,,71,64
92640,note_on,,,,,0,0,1,,,0,,,71,66
92640,note_on,,,,,0,0,2,,,0,,,52,70
92640,control_change,,,,,60,0,2,,,0,64,0,,
92720,note_on,,,,,0,0,1,,,0,,,74,57
92720,note_off,,,,,80,0,1,,,0,,,71,64
92730,note_off,,,,,90,0,2,,,0,,,52,64
92740,set_tempo,,,,,300,1,0,428571,,,,,,
92760,note_on,,,,,30,0,2,,,0,,,52,63
92800,note_on,,,,,0,0,1,,,0,,,76,53
92800,note_off,,,,,80,0,1,,,0,,,74,64
92850,note_off,,,,,90,0,2,,,0,,,52,64
92860,set_tempo,,,,,120,1,0,444444,,,,,,
92880,note_off,,,,,80,0,1,,,0,,,76,64
92880,note_on,,,,,30,0,2,,,0,,,54,71
92880,note_on,,,,,0,0,1,,,0,,,71,55
92960,note_on,,,,,0,0,1,,,0,,,74,57
92960,note_off,,,,,80,0,1,,,0,,,71,64
92970,note_off,,,,,90,0,2,,,0,,,54,64
93000,note_on,,,,,30,0,2,,,0,,,56,79
93040,note_off,,,,,80,0,1,,,0,,,74,64
93040,note_on,,,,,0,0,1,,,0,,,76,61
93080,set_tempo,,,,,220,1,0,465116,,,,,,
93090,note_off,,,,,90,0,2,,,0,,,56,64
93120,control_change,,,,,30,0,2,,,0,64,127,,
93120,note_on,,,,,0,0,2,,,0,,,57,82
93120,note_off,,,,,80,0,1,,,0,,,76,64
93120,note_on,,,,,0,0,1,,,0,,,69,66
93200,note_off,,,,,80,0,1,,,0,,,69,64
93200,note_on,,,,,0,0,1,,,0,,,72,57
93280,note_off,,,,,80,0,1,,,0,,,72,64
93280,note_on,,,,,0,0,1,,,0,,,76,51
93360,note_on,,,,,0,0,1,,,0,,,69,67
93360,note_off,,,,,80,0,1,,,0,,,76,64
93440,note_on,,,,,0,0,1,,,0,,,72,62
93440,note_off,,,,,80,0,1,,,0,,,69,64
93520,note_on,,,,,0,0,1,,,0,,,76,56
93520,note_off,,,,,80,0,1,,,0,,,72,64
93540,note_off,,,,,420,0,2,,,0,,,57,64
93580,note_off,,,,,60,0,1,,,0,,,76,64
93600,note_on,,,,,20,0,1,,,0,,,76,70
93600,note_on,,,,,0,0,2,,,0,,,45,87
93600,control_change,,,,,60,0,2,,,0,64,0,,
93640,set_tempo,,,,,560,1,0,454545,,,,,,
93680,note_on,,,,,0,0,1,,,0,,,81,65
93680,note_off,,,,,80,0,1,,,0,,,76,64
93690,note_off,,,,,90,0,2,,,0,,,45,64
93720,note_on,,,,,30,0,2,,,0,,,45,79
93760,note_off,,,,,80,0,1,,,0,,,81,64
93760,note_on,,,,,0,0,1,,,0,,,84,62
93810,note_off,,,,,90,0,2,,,0,,,45,64
93840,note_on,,,,,0,0,1,,,0,,,76,71
93840,note_off,,,,,80,0,1,,,0,,,84,64
93840,note_on,,,,,30,0,2,,,0,,,47,84
93860,set_tempo,,,,,220,1,0,441176,,,,,,
93920,note_on,,,,,0,0,1,,,0,,,81,78
93920,note_off,,,,,80,0,1,,,0,,,76,64
93930,note_off,,,,,90,0,2,,,0,,,47,64
93960,note_on,,,,,30,0,2,,,0,,,48,89
94000,note_on,,,,,0,0,1,,,0,,,84,82
94000,note_off,,,,,80,0,1,,,0,,,81,64
94020,set_tempo,,,,,160,1,0,431655,,,,,,
94050,note_off,,,,,90,0,2,,,0,,,48,64
94080,control_change,,,,,0,0,2,,,0,64,127,,
94080,note_on,,,,,30,0,2,,,0,,,47,93
94080,note_off,,,,,80,0,1,,,0,,,84,64
94080,note_on,,,,,0,0,1,,,0,,,74,87
94160,note_off,,,,,80,0,1,,,0,,,74,64
94160,note_on,,,,,0,0,1,,,0,,,79,79
94180,set_tempo,,,,,160,1,0,419580,,,,,,
94240,note_on,,,,,0,0,1,,,0,,,86,71
94240,note_off,,,,,80,0,1,,,0,,,79,64
94300,control_change,,,,,220,0,2,,,0,64,0,,
94320,note_on,,,,,0,0,1,,,0,,,76,97
94320,note_off,,,,,80,0,1,,,0,,,86,64
94320,note_off,,,,,20,0,2,,,0,,,47,64
94320,note_on,,,,,0,0,2,,,0,,,48,90
94320,control_change,,,,,0,0,2,,,0,64,127,,
94400,note_off,,,,,80,0,1,,,0,,,76,64
94400,note_on,,,,,0,0,1,,,0,,,79,91
94480,note_off,,,,,80,0,1,,,0,,,79,64
94480,note_on,,,,,0,0,1,,,0,,,84,87
94540,control_change,,,,,0,0,2,,,0,64,0,,
94540,control_change,,,,,220,0,2,,,0,64,0,,
94560,note_on,,,,,0,0,1,,,0,,,74,107
94560,note_off,,,,,80,0,1,,,0,,,84,64
94560,note_off,,,,,20,0,2,,,0,,,48,64
94560,note_on,,,,,0,0,2,,,0,,,50,101
94560,control_change,,,,,0,0,2,,,0,64,127,,
94640,note_on,,,,,0,0,1,,,0,,,79,101
94640,note_off,,,,,80,0,1,,,0,,,74,64
94700,set_tempo,,,,,520,1,0,405405,,,,,,
94720,note_on,,,,,0,0,1,,,0,,,83,93
94720,note_off,,,,,80,0,1,,,0,,,79,64
94776,note_off,,,,,216,0,2,,,0,,,50,64
94780,control_change,,,,,0,0,2,,,0,64,0,,
94780,control_change,,,,,4,0,2,,,0,64,0,,
94800,note_on,,,,,0,0,2,,,0,,,50,112
94800,control_change,,,,,20,0,2,,,0,64,127,,
94800,note_on,,,,,0,0,1,,,0,,,74,117
94800,note_off,,,,,80,0,1,,,0,,,83,64
94880,note_on,,,,,0,0,1,,,0,,,78,108
94880,note_off,,,,,80,0,1,,,0,,,74,64
94960,note_off,,,,,80,0,1,,,0,,,78,64
94960,note_on,,,,,0,0,1,,,0,,,81,103
95016,note_off,,,,,216,0,2,,,0,,,50,64
95020,control_change,,,,,4,0,2,,,0,64,0,,
95040,note_on,,,,,20,0,2,,,0,,,39,116
95040,note_on,,,,,0,0,2,,,0,,,47,116
95040,note_on,,,,,0,0,2,,,0,,,51,116
95040,note_off,,,,,80,0,1,,,0,,,81,64
95040,note_on,,,,,0,0,1,,,0,,,83,124
95050,control_change,,,,,10,0,2,,,0,64,0,,
95070,control_change,,,,,20,0,2,,,0,64,127,,
95120,note_off,,,,,80,0,1,,,0,,,83,64
95120,note_on,,,,,0,0,1,,,0,,,81,114
95200,note_off,,,,,80,0,1,,,0,,,81,64
95200,note_on,,,,,0,0,1,,,0,,,78,103
95280,note_off,,,,,80,0,1,,,0,,,78,64
95280,note_on,,,,,0,0,1,,,0,,,71,95
95340,set_tempo,,,,,640,1,0,402685,,,,,,
95360,note_off,,,,,80,0,1,,,0,,,71,64
95360,note_on,,,,,0,0,1,,,0,,,69,104
95440,note_off,,,,,80,0,1,,,0,,,69,64
95440,note_on,,,,,0,0,1,,,0,,,66,113
95460,note_off,,,,,390,0,2,,,0,,,51,64
95460,note_off,,,,,0,0,2,,,0,,,39,64
95460,note_off,,,,,0,0,2,,,0,,,47,64
95490,control_change,,,,,30,0,2,,,0,64,0,,
95500,note_off,,,,,60,0,1,,,0,,,66,64
95520,note_on,,,,,20,0,1,,,0,,,59,124
95520,note_on,,,,,0,0,2,,,0,,,47,123
95520,note_on,,,,,0,0,2,,,0,,,39,123
95520,control_change,,,,,30,0,2,,,0,64,127,,
95600,note_off,,,,,80,0,1,,,0,,,59,64
95600,note_on,,,,,0,0,1,,,0,,,71,114
95680,note_off,,,,,80,0,1,,,0,,,71,64
95680,note_on,,,,,0,0,1,,,0,,,59,107
95700,note_off,,,,,180,0,2,,,0,,,47,64
95700,note_off,,,,,0,0,2,,,0,,,39,64
95700,set_tempo,,,,,360,1,0,394737,,,,,,
95760,note_on,,,,,0,0,2,,,0,,,47,106
95760,note_on,,,,,60,0,2,,,0,,,39,106
95760,note_off,,,,,80,0,1,,,0,,,59,64
95760,note_on,,,,,0,0,1,,,0,,,71,101
95840,note_on,,,,,0,0,1,,,0,,,59,98
95840,note_off,,,,,80,0,1,,,0,,,71,64
95920,note_on,,,,,0,0,1,,,0,,,71,94
95920,note_off,,,,,80,0,1,,,0,,,59,64
95940,note_off,,,,,0,0,2,,,0,,,39,64
95940,note_off,,,,,180,0,2,,,0,,,47,64
95940,control_change,,,,,0,0,2,,,0,64,0,,
96000,note_on,,,,,0,0,1,,,0,,,66,123
96000,note_off,,,,,80,0,1,,,0,,,71,64
96000,note_on,,,,,0,0,2,,,0,,,48,116
96000,note_on,,,,,60,0,2,,,0,,,40,116
96010,control_change,,,,,10,0,2,,,0,64,0,,
96030,control_change,,,,,20,0,2,,,0,64,127,,
96080,note_on,,,,,0,0,1,,,0,,,69,97
96080,note_off,,,,,80,0,1,,,0,,,66,64
96160,note_on,,,,,0,0,1,,,0,,,72,93
96160,note_off,,,,,80,0,1,,,0,,,69,64
96240,note_on,,,,,0,0,1,,,0,,,78,100
96240,note_off,,,,,80,0,1,,,0,,,72,64
96320,note_on,,,,,0,0,1,,,0,,,81,110
96320,note_off,,,,,80,0,1,,,0,,,78,64
96400,note_on,,,,,0,0,1,,,0,,,84,117
96400,note_off,,,,,80,0,1,,,0,,,81,64
96420,note_off,,,,,390,0,2,,,0,,,48,64
96420,note_off,,,,,0,0,2,,,0,,,40,64
96450,control_change,,,,,30,0,2,,,0,64,0,,
96480,control_change,,,,,30,0,2,,,0,64,127,,
96480,note_on,,,,,0,0,2,,,0,,,48,124
96480,note_on,,,,,0,0,2,,,0,,,40,124
96480,note_on,,,,,0,0,1,,,0,,,90,122
96480,note_off,,,,,80,0,1,,,0,,,84,64
96560,note_on,,,,,0,0,1,,,0,,,78,119
96560,note_off,,,,,80,0,1,,,0,,,90,64
96640,note_off,,,,,80,0,1,,,0,,,78,64
96640,note_on,,,,,0,0,1,,,0,,,90,113
96660,note_off,,,,,180,0,2,,,0,,,48,64
96660,note_off,,,,,0,0,2,,,0,,,40,64
96720,note_on,,,,,60,0,2,,,0,,,40,90
96720,note_on,,,,,0,0,2,,,0,,,48,90
96720,note_on,,,,,0,0,1,,,0,,,78,105
96720,note_off,,,,,80,0,1,,,0,,,90,64
96800,note_on,,,,,0,0,1,,,0,,,90,96
96800,note_off,,,,,80,0,1,,,0,,,78,64
96880,note_off,,,,,80,0,1,,,0,,,90,64
96880,note_on,,,,,0,0,1,,,0,,,78,85
96900,control_change,,,,,0,0,2,,,0,64,0,,
96900,note_off,,,,,180,0,2,,,0,,,48,64
96900,note_off,,,,,0,0,2,,,0,,,40,64
96960,note_on,,,,,60,0,2,,,0,,,39,116
96960,note_on,,,,,0,0,2,,,0,,,47,116
96960,note_on,,,,,0,0,2,,,0,,,51,116
96960,note_on,,,,,0,0,1,,,0,,,83,124
96960,note_off,,,,,80,0,1,,,0,,,78,64
96970,control_change,,,,,10,0,2,,,0,64,0,,
96980,set_tempo,,,,,1280,1,0,400000,,,,,,
96990,control_change,,,,,20,0,2,,,0,64,127,,
97040,note_on,,,,,0,0,1,,,0,,,81,114
97040,note_off,,,,,80,0,1,,,0,,,83,64
97120,note_off,,,,,80,0,1,,,0,,,81,64
97120,note_on,,,,,0,0,1,,,0,,,78,103
97200,note_on,,,,,0,0,1,,,0,,,71,95
97200,note_off,,,,,80,0,1,,,0,,,78,64
97280,note_off,,,,,80,0,1,,,0,,,71,64
97280,note_on,,,,,0,0,1,,,0,,,69,104
97300,set_tempo,,,,,320,1,0,410959,,,,,,
97360,note_on,,,,,0,0,1,,,0,,,66,113
97360,note_off,,,,,80,0,1,,,0,,,69,64
97380,note_off,,,,,390,0,2,,,0,,,51,64
97380,note_off,,,,,0,0,2,,,0,,,39,64
97380,note_off,,,,,0,0,2,,,0,,,47,64
97410,control_change,,,,,30,0,2,,,0,64,0,,
97420,note_off,,,,,60,0,1,,,0,,,66,64
97440,note_on,,,,,20,0,1,,,0,,,59,124
97440,control_change,,,,,30,0,2,,,0,64,127,,
97440,note_on,,,,,0,0,2,,,0,,,39,123
97440,note_on,,,,,0,0,2,,,0,,,47,123
97520,note_on,,,,,0,0,1,,,0,,,71,114
97520,note_off,,,,,80,0,1,,,0,,,59,64
97580,set_tempo,,,,,280,1,0,425532,,,,,,
97600,note_off,,,,,80,0,1,,,0,,,71,64
97600,note_on,,,,,0,0,1,,,0,,,59,107
97620,note_off,,,,,180,0,2,,,0,,,47,64
97620,note_off,,,,,0,0,2,,,0,,,39,64
97680,note_on,,,,,60,0,2,,,0,,,39,106
97680,note_on,,,,,0,0,1,,,0,,,71,101
97680,note_off,,,,,80,0,1,,,0,,,59,64
97680,note_on,,,,,0,0,2,,,0,,,47,106
97760,note_on,,,,,0,0,1,,,0,,,59,98
97760,note_off,,,,,80,0,1,,,0,,,71,64
97840,note_on,,,,,0,0,1,,,0,,,71,94
97840,note_off,,,,,80,0,1,,,0,,,59,64
97860,control_change,,,,,0,0,2,,,0,64,0,,
97860,note_off,,,,,0,0,2,,,0,,,39,64
97860,note_off,,,,,180,0,2,,,0,,,47,64
97880,set_tempo,,,,,300,1,0,441176,,,,,,
97920,note_on,,,,,60,0,2,,,0,,,40,116
97920,note_on,,,,,0,0,2,,,0,,,48,116
97920,note_off,,,,,80,0,1,,,0,,,71,64
97920,note_on,,,,,0,0,1,,,0,,,66,123
97930,control_change,,,,,10,0,2,,,0,64,0,,
97950,control_change,,,,,20,0,2,,,0,64,127,,
98000,note_off,,,,,80,0,1,,,0,,,66,64
98000,note_on,,,,,0,0,1,,,0,,,69,97
98080,note_off,,,,,80,0,1,,,0,,,69,64
98080,note_on,,,,,0,0,1,,,0,,,72,93
98160,note_off,,,,,80,0,1,,,0,,,72,64
98160,note_on,,,,,0,0,1,,,0,,,78,100
98240,note_off,,,,,80,0,1,,,0,,,78,64
98240,note_on,,,,,0,0,1,,,0,,,81,110
98320,note_on,,,,,0,0,1,,,0,,,84,117
98320,note_off,,,,,80,0,1,,,0,,,81,64
98340,note_off,,,,,390,0,2,,,0,,,48,64
98340,note_off,,,,,0,0,2,,,0,,,40,64
98370,control_change,,,,,30,0,2,,,0,64,0,,
98400,note_on,,,,,0,0,2,,,0,,,40,124
98400,note_on,,,,,0,0,2,,,0,,,48,124
98400,control_change,,,,,30,0,2,,,0,64,127,,
98400,note_off,,,,,80,0,1,,,0,,,84,64
98400,note_on,,,,,0,0,1,,,0,,,90,122
98480,note_off,,,,,80,0,1,,,0,,,90,64
98480,note_on,,,,,0,0,1,,,0,,,78,119
98560,note_off,,,,,80,0,1,,,0,,,78,64
98560,note_on,,,,,0,0,1,,,0,,,90,113
98580,note_off,,,,,0,0,2,,,0,,,40,64
98580,note_off,,,,,180,0,2,,,0,,,48,64
98640,note_on,,,,,0,0,1,,,0,,,78,105
98640,note_on,,,,,60,0,2,,,0,,,40,90
98640,note_on,,,,,0,0,2,,,0,,,48,90
98640,note_off,,,,,80,0,1,,,0,,,90,64
98720,note_on,,,,,0,0,1,,,0,,,90,96
98720,note_off,,,,,80,0,1,,,0,,,78,64
98800,note_on,,,,,0,0,1,,,0,,,78,85
98800,note_off,,,,,80,0,1,,,0,,,90,64
98820,note_off,,,,,180,0,2,,,0,,,48,64
98820,note_off,,,,,0,0,2,,,0,,,40,64
98820,control_change,,,,,0,0,2,,,0,64,0,,
98880,note_off,,,,,80,0,1,,,0,,,78,64
98880,note_on,,,,,0,0,1,,,0,,,93,115
98880,note_on,,,,,0,0,2,,,0,,,47,94
98880,note_on,,,,,0,0,2,,,0,,,39,94
98880,control_change,,,,,60,0,2,,,0,64,127,,
98940,set_tempo,,,,,1060,1,0,431655,,,,,,
98960,note_off,,,,,80,0,1,,,0,,,93,64
98960,note_on,,,,,0,0,1,,,0,,,92,106
99040,note_off,,,,,80,0,1,,,0,,,92,64
99040,note_on,,,,,0,0,1,,,0,,,90,103
99100,set_tempo,,,,,160,1,0,419580,,,,,,
99120,note_on,,,,,0,0,1,,,0,,,88,96
99120,note_off,,,,,80,0,1,,,0,,,90,64
99200,note_off,,,,,80,0,1,,,0,,,88,64
99200,note_on,,,,,0,0,1,,,0,,,87,91
99240,set_tempo,,,,,140,1,0,410959,,,,,,
99280,note_on,,,,,0,0,1,,,0,,,85,88
99280,note_off,,,,,80,0,1,,,0,,,87,64
99360,note_on,,,,,0,0,1,,,0,,,83,83
99360,note_off,,,,,80,0,1,,,0,,,85,64
99360,note_off,,,,,0,0,2,,,0,,,47,64
99360,note_off,,,,,480,0,2,,,0,,,39,64
99440,note_off,,,,,80,0,1,,,0,,,83,64
99440,note_on,,,,,0,0,1,,,0,,,81,82
99520,note_on,,,,,0,0,1,,,0,,,80,78
99520,note_off,,,,,80,0,1,,,0,,,81,64
99600,note_off,,,,,80,0,1,,,0,,,80,64
99600,note_on,,,,,0,0,1,,,0,,,78,76
99680,note_off,,,,,80,0,1,,,0,,,78,64
99680,note_on,,,,,0,0,1,,,0,,,76,75
99760,note_off,,,,,80,0,1,,,0,,,76,64
99760,note_on,,,,,0,0,1,,,0,,,75,74
99840,note_off,,,,,80,0,1,,,0,,,75,64
99840,control_change,,,,,480,0,2,,,0,64,0,,
99840,note_on,,,,,0,0,1,,,0,,,73,69
99920,note_off,,,,,80,0,1,,,0,,,73,64
99920,note_on,,,,,0,0,1,,,0,,,71,65
100000,note_on,,,,,0,0,1,,,0,,,69,63
100000,note_off,,,,,80,0,1,,,0,,,71,64
100080,note_off,,,,,80,0,1,,,0,,,69,64
100080,note_on,,,,,0,0,1,,,0,,,68,61
100160,note_off,,,,,80,0,1,,,0,,,68,64
100160,note_on,,,,,0,0,1,,,0,,,66,61
100240,note_off,,,,,80,0,1,,,0,,,66,64
100240,note_on,,,,,0,0,1,,,0,,,64,59
100240,set_tempo,,,,,1000,1,0,425532,,,,,,
100320,note_off,,,,,80,0,1,,,0,,,64,64
100320,note_on,,,,,0,0,1,,,0,,,63,58
100400,note_off,,,,,80,0,1,,,0,,,63,64
100400,note_on,,,,,0,0,1,,,0,,,61,56
100480,note_off,,,,,80,0,1,,,0,,,61,64
100480,note_on,,,,,0,0,1,,,0,,,59,55
100560,note_off,,,,,80,0,1,,,0,,,59,64
100560,note_on,,,,,0,0,1,,,0,,,58,53
100640,note_off,,,,,80,0,1,,,0,,,58,64
100640,note_on,,,,,0,0,1,,,0,,,59,51
100680,set_tempo,,,,,440,1,0,454545,,,,,,
100720,note_off,,,,,80,0,1,,,0,,,59,64
100720,note_on,,,,,0,0,1,,,0,,,61,50
100800,note_on,,,,,0,0,1,,,0,,,63,48
100800,note_off,,,,,80,0,1,,,0,,,61,64
100880,note_off,,,,,80,0,1,,,0,,,63,64
100880,note_on,,,,,0,0,1,,,0,,,64,41
100960,note_off,,,,,80,0,1,,,0,,,64,64
100960,note_on,,,,,0,0,1,,,0,,,66,38
101020,set_tempo,,,,,340,1,0,483871,,,,,,
101040,note_on,,,,,0,0,1,,,0,,,68,34
101040,note_off,,,,,80,0,1,,,0,,,66,64
101120,note_off,,,,,80,0,1,,,0,,,68,64
101120,note_on,,,,,0,0,1,,,0,,,69,33
101200,set_tempo,,,,,180,1,0,508475,,,,,,
101200,note_off,,,,,80,0,1,,,0,,,69,64
101200,note_on,,,,,0,0,1,,,0,,,70,33
101280,note_off,,,,,80,0,1,,,0,,,70,64
101280,note_on,,,,,0,0,1,,,0,,,71,32
101280,note_on,,,,,1440,0,2,,,0,,,52,29
101360,note_off,,,,,80,0,2,,,0,,,52,64
101360,note_on,,,,,0,0,2,,,0,,,55,26
101420,set_tempo,,,,,220,1,0,480000,,,,,,
101440,note_off,,,,,80,0,2,,,0,,,55,64
101440,note_on,,,,,0,0,2,,,0,,,59,23
101460,note_off,,,,,180,0,1,,,0,,,71,64
101520,note_off,,,,,80,0,2,,,0,,,59,64
101520,note_on,,,,,0,0,2,,,0,,,52,30
101520,note_on,,,,,60,0,1,,,0,,,71,28
101600,note_on,,,,,0,0,2,,,0,,,55,27
101600,note_off,,,,,80,0,2,,,0,,,52,64
101680,note_on,,,,,0,0,2,,,0,,,59,26
101680,set_tempo,,,,,260,1,0,555556,,,,,,
101680,note_off,,,,,80,0,2,,,0,,,55,64
101700,note_off,,,,,180,0,1,,,0,,,71,64
101760,control_change,,,,,0,0,2,,,0,64,127,,
101760,note_on,,,,,0,0,2,,,0,,,51,37
101760,note_on,,,,,60,0,1,,,0,,,71,35
101760,note_off,,,,,80,0,2,,,0,,,59,64
101800,set_tempo,,,,,120,1,0,483871,,,,,,
101840,note_off,,,,,80,0,2,,,0,,,51,64
101840,note_on,,,,,0,0,2,,,0,,,54,30
101920,note_off,,,,,80,0,2,,,0,,,54,64
101920,note_on,,,,,0,0,2,,,0,,,59,26
101940,set_tempo,,,,,140,1,0,447761,,,,,,
102000,note_on,,,,,0,0,2,,,0,,,51,28
102000,note_off,,,,,80,0,2,,,0,,,59,64
102000,control_change,,,,,0,0,2,,,0,64,0,,
102080,note_off,,,,,80,0,2,,,0,,,51,64
102080,note_on,,,,,0,0,2,,,0,,,54,30
102160,note_off,,,,,80,0,2,,,0,,,54,64
102160,note_on,,,,,0,0,2,,,0,,,59,34
102240,note_on,,,,,0,0,1,,,0,,,71,40
102240,note_off,,,,,80,0,2,,,0,,,59,64
102240,note_off,,,,,480,0,1,,,0,,,71,64
102240,set_tempo,,,,,300,1,0,437956,,,,,,
102240,note_on,,,,,0,0,2,,,0,,,47,36
102320,note_off,,,,,80,0,2,,,0,,,47,64
102320,note_on,,,,,0,0,2,,,0,,,54,31
102350,note_off,,,,,110,0,1,,,0,,,71,64
102360,note_on,,,,,10,0,1,,,0,,,71,31
102400,note_off,,,,,80,0,2,,,0,,,54,64
102400,note_on,,,,,0,0,2,,,0,,,57,27
102420,set_tempo,,,,,180,1,0,425532,,,,,,
102450,note_off,,,,,90,0,1,,,0,,,71,64
102480,note_on,,,,,0,0,2,,,0,,,47,30
102480,note_off,,,,,80,0,2,,,0,,,57,64
102480,note_on,,,,,30,0,1,,,0,,,73,38
102560,note_off,,,,,80,0,2,,,0,,,47,64
102560,note_on,,,,,0,0,2,,,0,,,54,30
102570,note_off,,,,,90,0,1,,,0,,,73,64
102600,note_on,,,,,30,0,1,,,0,,,75,43
102640,note_on,,,,,0,0,2,,,0,,,57,34
102640,note_off,,,,,80,0,2,,,0,,,54,64
102680,set_tempo,,,,,260,1,0,465116,,,,,,
102690,note_off,,,,,90,0,1,,,0,,,75,64
102720,note_off,,,,,80,0,2,,,0,,,57,64
102720,note_on,,,,,0,0,2,,,0,,,48,37
102720,control_change,,,,,0,0,2,,,0,64,127,,
102720,note_on,,,,,30,0,1,,,0,,,76,46
102740,set_tempo,,,,,60,1,0,422535,,,,,,
102800,note_on,,,,,0,0,2,,,0,,,52,36
102800,note_off,,,,,80,0,2,,,0,,,48,64
102880,note_off,,,,,80,0,2,,,0,,,52,64
102880,note_on,,,,,0,0,2,,,0,,,55,30
102960,control_change,,,,,0,0,2,,,0,64,0,,
102960,note_on,,,,,0,0,2,,,0,,,48,32
102960,set_tempo,,,,,220,1,0,437956,,,,,,
102960,note_off,,,,,80,0,2,,,0,,,55,64
103040,note_off,,,,,80,0,2,,,0,,,48,64
103040,note_on,,,,,0,0,2,,,0,,,52,29
103120,note_on,,,,,0,0,2,,,0,,,55,25
103120,note_off,,,,,80,0,2,,,0,,,52,64
103140,note_off,,,,,420,0,1,,,0,,,76,64
103200,note_on,,,,,60,0,1,,,0,,,67,37
103200,note_off,,,,,80,0,2,,,0,,,55,64
103200,note_on,,,,,0,0,2,,,0,,,48,28
103280,note_off,,,,,80,0,2,,,0,,,48,64
103280,note_on,,,,,0,0,2,,,0,,,52,25
103360,note_on,,,,,0,0,2,,,0,,,55,24
103360,note_off,,,,,80,0,2,,,0,,,52,64
103380,note_off,,,,,180,0,1,,,0,,,67,64
103380,set_tempo,,,,,420,1,0,447761,,,,,,
103440,note_off,,,,,80,0,2,,,0,,,55,64
103440,note_on,,,,,60,0,1,,,0,,,67,33
103440,note_on,,,,,0,0,2,,,0,,,48,28
103520,note_off,,,,,80,0,2,,,0,,,48,64
103520,note_on,,,,,0,0,2,,,0,,,52,25
103600,note_off,,,,,80,0,2,,,0,,,52,64
103600,note_on,,,,,0,0,2,,,0,,,55,23
103620,note_off,,,,,180,0,1,,,0,,,67,64
103620,set_tempo,,,,,240,1,0,487805,,,,,,
103680,set_tempo,,,,,60,1,0,431655,,,,,,
103680,note_on,,,,,60,0,1,,,0,,,67,46
103680,note_off,,,,,80,0,2,,,0,,,55,64
103680,control_change,,,,,0,0,2,,,0,64,127,,
103680,note_on,,,,,0,0,2,,,0,,,48,34
103760,note_on,,,,,0,0,2,,,0,,,52,30
103760,note_off,,,,,80,0,2,,,0,,,48,64
103820,set_tempo,,,,,140,1,0,444444,,,,,,
103840,note_off,,,,,80,0,2,,,0,,,52,64
103840,note_on,,,,,0,0,2,,,0,,,55,27
103920,control_change,,,,,0,0,2,,,0,64,0,,
103920,note_on,,,,,0,0,2,,,0,,,48,30
103920,note_off,,,,,80,0,2,,,0,,,55,64
104000,note_on,,,,,0,0,2,,,0,,,52,28
104000,note_off,,,,,80,0,2,,,0,,,48,64
104080,set_tempo,,,,,260,1,0,461538,,,,,,
104080,note_off,,,,,80,0,2,,,0,,,52,64
104080,note_on,,,,,0,0,2,,,0,,,55,25
104100,note_off,,,,,420,0,1,,,0,,,67,64
104160,note_on,,,,,60,0,1,,,0,,,76,35
104160,note_on,,,,,0,0,1,,,0,,,64,35
104160,note_off,,,,,80,0,2,,,0,,,55,64
104160,note_on,,,,,0,0,2,,,0,,,48,30
104240,note_off,,,,,80,0,2,,,0,,,48,64
104240,note_on,,,,,0,0,2,,,0,,,52,27
104320,note_on,,,,,0,0,2,,,0,,,55,28
104320,note_off,,,,,80,0,2,,,0,,,52,64
104340,note_off,,,,,0,0,1,,,0,,,76,64
104340,note_off,,,,,180,0,1,,,0,,,64,64
104400,note_off,,,,,80,0,2,,,0,,,55,64
104400,note_on,,,,,60,0,1,,,0,,,76,32
104400,note_on,,,,,0,0,1,,,0,,,64,32
104400,note_on,,,,,0,0,2,,,0,,,48,30
104480,note_on,,,,,0,0,2,,,0,,,52,31
104480,note_off,,,,,80,0,2,,,0,,,48,64
104560,note_on,,,,,0,0,2,,,0,,,55,33
104560,note_off,,,,,80,0,2,,,0,,,52,64
104560,set_tempo,,,,,480,1,0,468750,,,,,,
104580,note_off,,,,,180,0,1,,,0,,,64,64
104580,note_off,,,,,0,0,1,,,0,,,76,64
104580,set_tempo,,,,,20,1,0,517241,,,,,,
104620,set_tempo,,,,,40,1,0,434783,,,,,,
104640,note_on,,,,,0,0,2,,,0,,,47,36
104640,note_off,,,,,80,0,2,,,0,,,55,64
104640,control_change,,,,,0,0,2,,,0,64,127,,
104640,note_on,,,,,60,0,1,,,0,,,77,44
104640,note_on,,,,,0,0,1,,,0,,,65,44
104720,note_on,,,,,0,0,2,,,0,,,50,34
104720,set_tempo,,,,,100,1,0,441176,,,,,,
104720,note_off,,,,,80,0,2,,,0,,,47,64
104800,note_off,,,,,80,0,2,,,0,,,50,64
104800,note_on,,,,,0,0,2,,,0,,,55,31
104880,note_on,,,,,0,0,2,,,0,,,47,30
104880,note_off,,,,,80,0,2,,,0,,,55,64
104960,note_on,,,,,0,0,2,,,0,,,50,27
104960,note_off,,,,,80,0,2,,,0,,,47,64
105000,control_change,,,,,40,0,2,,,0,64,0,,
105020,set_tempo,,,,,300,1,0,465116,,,,,,
105040,note_on,,,,,0,0,2,,,0,,,55,26
105040,note_off,,,,,40,0,2,,,0,,,50,64
105060,note_off,,,,,0,0,1,,,0,,,77,64
105060,note_off,,,,,420,0,1,,,0,,,65,64
105120,note_off,,,,,80,0,2,,,0,,,55,64
105120,note_on,,,,,0,0,2,,,0,,,47,33
105120,note_on,,,,,60,0,1,,,0,,,67,36
105200,note_off,,,,,80,0,2,,,0,,,47,64
105200,note_on,,,,,0,0,2,,,0,,,50,30
105280,note_on,,,,,0,0,2,,,0,,,55,27
105280,note_off,,,,,80,0,2,,,0,,,50,64
105300,note_off,,,,,180,0,1,,,0,,,67,64
105360,note_on,,,,,0,0,2,,,0,,,47,24
105360,note_on,,,,,60,0,1,,,0,,,67,33
105360,note_off,,,,,80,0,2,,,0,,,55,64
105440,note_off,,,,,80,0,2,,,0,,,47,64
105440,note_on,,,,,0,0,2,,,0,,,50,27
105520,note_on,,,,,0,0,2,,,0,,,55,30
105520,note_off,,,,,80,0,2,,,0,,,50,64
105520,set_tempo,,,,,500,1,0,535714,,,,,,
105540,note_off,,,,,180,0,1,,,0,,,67,64
105560,set_tempo,,,,,40,1,0,530973,,,,,,
105600,note_off,,,,,80,0,2,,,0,,,55,64
105600,note_on,,,,,0,0,2,,,0,,,47,35
105600,control_change,,,,,0,0,2,,,0,64,127,,
105600,note_on,,,,,60,0,1,,,0,,,67,38
105600,set_tempo,,,,,40,1,0,428571,,,,,,
105660,set_tempo,,,,,60,1,0,425532,,,,,,
105680,note_on,,,,,0,0,2,,,0,,,50,29
105680,note_off,,,,,80,0,2,,,0,,,47,64
105760,note_off,,,,,80,0,2,,,0,,,50,64
105760,note_on,,,,,0,0,2,,,0,,,55,32
105840,note_off,,,,,80,0,2,,,0,,,55,64
105840,note_on,,,,,0,0,2,,,0,,,47,35
105840,control_change,,,,,0,0,2,,,0,64,0,,
105920,note_on,,,,,0,0,2,,,0,,,50,39
105920,note_off,,,,,80,0,2,,,0,,,47,64
106000,note_on,,,,,0,0,2,,,0,,,55,41
106000,note_off,,,,,80,0,2,,,0,,,50,64
106020,note_off,,,,,420,0,1,,,0,,,67,64
106060,set_tempo,,,,,400,1,0,560748,,,,,,
106080,note_off,,,,,80,0,2,,,0,,,55,64
106080,control_change,,,,,0,0,2,,,0,64,127,,
106080,note_on,,,,,0,0,2,,,0,,,47,43
106080,note_on,,,,,60,0,1,,,0,,,89,53
106150,note_off,,,,,70,0,1,,,0,,,89,64
106150,note_on,,,,,0,0,1,,,0,,,86,46
106160,note_on,,,,,0,0,2,,,0,,,50,40
106160,note_off,,,,,80,0,2,,,0,,,47,64
106180,set_tempo,,,,,120,1,0,487805,,,,,,
106200,note_on,,,,,0,0,1,,,0,,,83,44
106200,note_off,,,,,50,0,1,,,0,,,86,64
106240,note_off,,,,,80,0,2,,,0,,,50,64
106240,note_on,,,,,0,0,2,,,0,,,55,36
106260,note_on,,,,,0,0,1,,,0,,,77,42
106260,note_off,,,,,60,0,1,,,0,,,83,64
106300,set_tempo,,,,,120,1,0,444444,,,,,,
106320,note_on,,,,,0,0,2,,,0,,,47,33
106320,note_off,,,,,60,0,1,,,0,,,77,64
106320,note_on,,,,,0,0,1,,,0,,,74,38
106320,note_off,,,,,80,0,2,,,0,,,55,64
106400,note_off,,,,,80,0,1,,,0,,,74,64
106400,note_on,,,,,0,0,1,,,0,,,71,36
106400,note_off,,,,,80,0,2,,,0,,,47,64
106400,set_tempo,,,,,100,1,0,425532,,,,,,
106400,note_on,,,,,0,0,2,,,0,,,50,30
106480,note_on,,,,,0,0,1,,,0,,,65,32
106480,note_off,,,,,80,0,1,,,0,,,71,64
106480,note_on,,,,,0,0,2,,,0,,,55,26
106480,note_off,,,,,80,0,2,,,0,,,50,64
106500,set_tempo,,,,,100,1,0,419580,,,,,,
106560,note_on,,,,,0,0,1,,,0,,,64,46
106560,control_change,,,,,0,0,2,,,0,64,0,,
106560,note_off,,,,,80,0,2,,,0,,,55,64
106560,note_off,,,,,80,0,1,,,0,,,65,64
106560,note_on,,,,,0,0,2,,,0,,,48,37
106570,set_tempo,,,,,70,1,0,600000,,,,,,
106590,set_tempo,,,,,20,1,0,422535,,,,,,
106640,note_on,,,,,0,0,2,,,0,,,52,36
106640,note_off,,,,,80,0,2,,,0,,,48,64
106720,note_off,,,,,80,0,2,,,0,,,52,64
106720,note_on,,,,,0,0,2,,,0,,,55,30
106760,set_tempo,,,,,170,1,0,434783,,,,,,
106800,note_off,,,,,80,0,2,,,0,,,55,64
106800,note_on,,,,,0,0,2,,,0,,,48,32
106880,note_off,,,,,80,0,2,,,0,,,48,64
106880,note_on,,,,,0,0,2,,,0,,,52,29
106920,set_tempo,,,,,160,1,0,444444,,,,,,
106960,note_on,,,,,0,0,2,,,0,,,55,25
106960,note_off,,,,,80,0,2,,,0,,,52,64
106980,note_off,,,,,420,0,1,,,0,,,64,64
107040,note_off,,,,,80,0,2,,,0,,,55,64
107040,note_on,,,,,60,0,1,,,0,,,67,37
107040,note_on,,,,,0,0,2,,,0,,,48,28
107120,note_off,,,,,80,0,2,,,0,,,48,64
107120,note_on,,,,,0,0,2,,,0,,,52,25
107200,note_off,,,,,80,0,2,,,0,,,52,64
107200,note_on,,,,,0,0,2,,,0,,,55,24
107220,note_off,,,,,180,0,1,,,0,,,67,64
107280,note_off,,,,,80,0,2,,,0,,,55,64
107280,note_on,,,,,0,0,2,,,0,,,48,28
107280,note_on,,,,,60,0,1,,,0,,,67,33
107360,note_on,,,,,0,0,2,,,0,,,52,25
107360,note_off,,,,,80,0,2,,,0,,,48,64
107440,note_off,,,,,80,0,2,,,0,,,52,64
107440,note_on,,,,,0,0,2,,,0,,,55,23
107460,note_off,,,,,180,0,1,,,0,,,67,64
107470,set_tempo,,,,,550,1,0,487805,,,,,,
107520,note_on,,,,,0,0,2,,,0,,,48,34
107520,control_change,,,,,0,0,2,,,0,64,127,,
107520,note_off,,,,,80,0,2,,,0,,,55,64
107520,note_on,,,,,60,0,1,,,0,,,67,46
107530,set_tempo,,,,,60,1,0,422535,,,,,,
107550,set_tempo,,,,,20,1,0,425532,,,,,,
107600,note_on,,,,,0,0,2,,,0,,,52,30
107600,note_off,,,,,80,0,2,,,0,,,48,64
107640,set_tempo,,,,,90,1,0,437956,,,,,,
107680,note_on,,,,,0,0,2,,,0,,,55,27
107680,note_off,,,,,80,0,2,,,0,,,52,64
107760,note_on,,,,,0,0,2,,,0,,,48,30
107760,note_off,,,,,80,0,2,,,0,,,55,64
107840,note_on,,,,,0,0,2,,,0,,,52,28
107840,note_off,,,,,80,0,2,,,0,,,48,64
107900,set_tempo,,,,,260,1,0,447761,,,,,,
107920,note_on,,,,,0,0,2,,,0,,,55,25
107920,note_off,,,,,80,0,2,,,0,,,52,64
107940,note_off,,,,,420,0,1,,,0,,,67,64
107960,set_tempo,,,,,60,1,0,458015,,,,,,
108000,note_on,,,,,0,0,1,,,0,,,64,34
108000,note_on,,,,,60,0,1,,,0,,,76,34
108000,note_on,,,,,0,0,2,,,0,,,48,30
108000,control_change,,,,,0,0,2,,,0,64,0,,
108000,note_off,,,,,80,0,2,,,0,,,55,64
108080,note_on,,,,,0,0,2,,,0,,,52,27
108080,note_off,,,,,80,0,2,,,0,,,48,64
108090,note_off,,,,,0,0,1,,,0,,,76,64
108090,note_off,,,,,90,0,1,,,0,,,64,64
108120,note_on,,,,,0,0,1,,,0,,,64,39
108120,note_on,,,,,30,0,1,,,0,,,76,39
108120,set_tempo,,,,,160,1,0,468750,,,,,,
108160,note_on,,,,,0,0,2,,,0,,,55,28
108160,note_off,,,,,80,0,2,,,0,,,52,64
108210,note_off,,,,,90,0,1,,,0,,,64,64
108210,note_off,,,,,0,0,1,,,0,,,76,64
108240,note_on,,,,,0,0,1,,,0,,,64,44
108240,note_on,,,,,30,0,1,,,0,,,76,44
108240,note_on,,,,,0,0,2,,,0,,,48,30
108240,set_tempo,,,,,120,1,0,483871,,,,,,
108240,note_off,,,,,80,0,2,,,0,,,55,64
108320,set_tempo,,,,,80,1,0,512821,,,,,,
108320,note_off,,,,,80,0,2,,,0,,,48,64
108320,note_on,,,,,0,0,2,,,0,,,52,31
108330,note_off,,,,,0,0,1,,,0,,,76,64
108330,note_off,,,,,90,0,1,,,0,,,64,64
108360,note_on,,,,,30,0,1,,,0,,,76,48
108360,note_on,,,,,0,0,1,,,0,,,64,48
108400,note_on,,,,,0,0,2,,,0,,,55,33
108400,note_off,,,,,80,0,2,,,0,,,52,64
108430,set_tempo,,,,,110,1,0,517241,,,,,,
108450,note_off,,,,,0,0,1,,,0,,,76,64
108450,note_off,,,,,90,0,1,,,0,,,64,64
108470,set_tempo,,,,,40,1,0,434783,,,,,,
108480,note_on,,,,,0,0,2,,,0,,,47,36
108480,control_change,,,,,0,0,2,,,0,64,127,,
108480,note_off,,,,,80,0,2,,,0,,,55,64
108480,note_on,,,,,0,0,1,,,0,,,65,50
108480,note_on,,,,,30,0,1,,,0,,,77,50
108560,note_on,,,,,0,0,2,,,0,,,50,34
108560,note_off,,,,,80,0,2,,,0,,,47,64
108580,set_tempo,,,,,110,1,0,441176,,,,,,
108640,note_off,,,,,80,0,2,,,0,,,50,64
108640,note_on,,,,,0,0,2,,,0,,,55,31
108700,set_tempo,,,,,120,1,0,451128,,,,,,
108720,note_on,,,,,0,0,2,,,0,,,47,30
108720,note_off,,,,,80,0,2,,,0,,,55,64
108800,note_on,,,,,0,0,2,,,0,,,50,27
108800,note_off,,,,,80,0,2,,,0,,,47,64
108820,set_tempo,,,,,120,1,0,461538,,,,,,
108880,note_off,,,,,80,0,2,,,0,,,50,64
108880,set_tempo,,,,,60,1,0,476190,,,,,,
108880,note_on,,,,,0,0,2,,,0,,,55,26
108900,note_off,,,,,0,0,1,,,0,,,77,64
108900,note_off,,,,,420,0,1,,,0,,,65,64
108920,note_on,,,,,20,0,1,,,0,,,69,36
108960,control_change,,,,,0,0,2,,,0,64,0,,
108960,note_on,,,,,0,0,2,,,0,,,47,33
108960,note_on,,,,,0,0,1,,,0,,,67,38
108960,note_off,,,,,40,0,1,,,0,,,69,64
108960,set_tempo,,,,,80,1,0,458015,,,,,,
108960,note_off,,,,,80,0,2,,,0,,,55,64
109020,set_tempo,,,,,60,1,0,447761,,,,,,
109040,note_off,,,,,80,0,2,,,0,,,47,64
109040,note_on,,,,,0,0,2,,,0,,,50,30
109080,note_off,,,,,120,0,1,,,0,,,67,64
109080,note_on,,,,,0,0,1,,,0,,,66,33
109120,note_off,,,,,80,0,2,,,0,,,50,64
109120,note_on,,,,,0,0,2,,,0,,,55,27
109120,set_tempo,,,,,100,1,0,434783,,,,,,
109200,note_on,,,,,0,0,2,,,0,,,47,24
109200,note_off,,,,,120,0,1,,,0,,,66,64
109200,note_on,,,,,0,0,1,,,0,,,67,36
109200,note_off,,,,,80,0,2,,,0,,,55,64
109240,set_tempo,,,,,120,1,0,428571,,,,,,
109280,note_on,,,,,0,0,2,,,0,,,50,27
109280,note_off,,,,,80,0,2,,,0,,,47,64
109320,note_on,,,,,0,0,1,,,0,,,69,42
109320,note_off,,,,,120,0,1,,,0,,,67,64
109360,note_on,,,,,0,0,2,,,0,,,55,30
109360,note_off,,,,,80,0,2,,,0,,,50,64
109380,set_tempo,,,,,140,1,0,535714,,,,,,
109420,set_tempo,,,,,40,1,0,495868,,,,,,
109440,control_change,,,,,0,0,2,,,0,64,127,,
109440,note_on,,,,,0,0,1,,,0,,,69,49
109440,note_off,,,,,120,0,1,,,0,,,69,64
109440,note_on,,,,,0,0,2,,,0,,,47,35
109440,note_off,,,,,80,0,2,,,0,,,55,64
109480,set_tempo,,,,,60,1,0,472441,,,,,,
109520,note_off,,,,,80,0,2,,,0,,,47,64
109520,note_on,,,,,0,0,2,,,0,,,50,29
109580,set_tempo,,,,,100,1,0,444444,,,,,,
109600,note_off,,,,,80,0,2,,,0,,,50,64
109600,note_on,,,,,0,0,2,,,0,,,55,32
109660,set_tempo,,,,,80,1,0,434783,,,,,,
109680,note_off,,,,,80,0,2,,,0,,,55,64
109680,control_change,,,,,0,0,2,,,0,64,0,,
109680,note_on,,,,,0,0,2,,,0,,,47,35
109680,note_on,,,,,0,0,1,,,0,,,67,39
109680,note_off,,,,,240,0,1,,,0,,,69,64
109760,note_on,,,,,0,0,2,,,0,,,50,39
109760,note_off,,,,,80,0,2,,,0,,,47,64
109800,note_off,,,,,120,0,1,,,0,,,67,64
109840,note_off,,,,,80,0,2,,,0,,,50,64
109840,note_on,,,,,0,0,2,,,0,,,55,41
109920,note_on,,,,,0,0,2,,,0,,,47,43
109920,control_change,,,,,0,0,2,,,0,64,127,,
109920,note_off,,,,,80,0,2,,,0,,,55,64
109920,note_on,,,,,120,0,1,,,0,,,89,56
109930,set_tempo,,,,,270,1,0,560748,,,,,,
109950,set_tempo,,,,,20,1,0,555556,,,,,,
109990,note_off,,,,,70,0,1,,,0,,,89,64
109990,note_on,,,,,0,0,1,,,0,,,86,54
110000,note_off,,,,,80,0,2,,,0,,,47,64
110000,note_on,,,,,0,0,2,,,0,,,50,40
110040,set_tempo,,,,,90,1,0,495868,,,,,,
110040,note_on,,,,,0,0,1,,,0,,,83,52
110040,note_off,,,,,50,0,1,,,0,,,86,64
110080,note_on,,,,,0,0,2,,,0,,,55,36
110080,note_off,,,,,80,0,2,,,0,,,50,64
110100,note_off,,,,,60,0,1,,,0,,,83,64
110100,note_on,,,,,0,0,1,,,0,,,77,50
110100,set_tempo,,,,,60,1,0,465116,,,,,,
110160,note_on,,,,,0,0,1,,,0,,,74,48
110160,note_off,,,,,60,0,1,,,0,,,77,64
110160,note_on,,,,,0,0,2,,,0,,,47,33
110160,note_off,,,,,80,0,2,,,0,,,55,64
110180,set_tempo,,,,,80,1,0,441176,,,,,,
110240,set_tempo,,,,,60,1,0,425532,,,,,,
110240,note_on,,,,,0,0,2,,,0,,,50,30
110240,note_off,,,,,80,0,2,,,0,,,47,64
110240,note_off,,,,,80,0,1,,,0,,,74,64
110240,note_on,,,,,0,0,1,,,0,,,71,44
110300,set_tempo,,,,,60,1,0,419580,,,,,,
110320,note_on,,,,,0,0,1,,,0,,,65,40
110320,note_off,,,,,80,0,1,,,0,,,71,64
110320,note_on,,,,,0,0,2,,,0,,,55,26
110320,note_off,,,,,80,0,2,,,0,,,50,64
110400,note_off,,,,,80,0,2,,,0,,,55,64
110400,note_off,,,,,80,0,1,,,0,,,65,64
110400,note_on,,,,,0,0,1,,,0,,,64,46
110400,control_change,,,,,0,0,2,,,0,64,0,,
110400,note_on,,,,,0,0,2,,,0,,,48,37
110400,set_tempo,,,,,100,1,0,600000,,,,,,
110430,set_tempo,,,,,30,1,0,422535,,,,,,
110440,set_tempo,,,,,10,1,0,428571,,,,,,
110480,note_on,,,,,0,0,2,,,0,,,52,36
110480,note_off,,,,,80,0,2,,,0,,,48,64
110560,note_on,,,,,0,0,2,,,0,,,55,30
110560,note_off,,,,,80,0,2,,,0,,,52,64
110640,note_on,,,,,0,0,2,,,0,,,48,42
110640,note_off,,,,,80,0,2,,,0,,,55,64
110680,set_tempo,,,,,240,1,0,444444,,,,,,
110700,note_off,,,,,300,0,1,,,0,,,64,64
110720,note_on,,,,,0,0,2,,,0,,,52,35
110720,note_off,,,,,80,0,2,,,0,,,48,64
110800,note_off,,,,,80,0,2,,,0,,,52,64
110800,note_on,,,,,100,0,1,,,0,,,88,60
110800,note_on,,,,,0,0,2,,,0,,,55,31
110880,note_on,,,,,0,0,1,,,0,,,89,66
110880,note_off,,,,,80,0,1,,,0,,,88,64
110880,note_off,,,,,80,0,2,,,0,,,55,64
110880,control_change,,,,,0,0,2,,,0,64,127,,
110880,note_on,,,,,0,0,2,,,0,,,47,48
110950,note_off,,,,,70,0,1,,,0,,,89,64
110950,note_on,,,,,0,0,1,,,0,,,86,55
110960,note_off,,,,,80,0,2,,,0,,,47,64
110960,note_on,,,,,0,0,2,,,0,,,50,50
111000,set_tempo,,,,,320,1,0,434783,,,,,,
111000,note_off,,,,,50,0,1,,,0,,,86,64
111000,note_on,,,,,0,0,1,,,0,,,83,53
111040,note_off,,,,,80,0,2,,,0,,,50,64
111040,note_on,,,,,0,0,2,,,0,,,55,52
111060,note_on,,,,,0,0,1,,,0,,,77,51
111060,note_off,,,,,60,0,1,,,0,,,83,64
111120,note_off,,,,,80,0,2,,,0,,,55,64
111120,note_off,,,,,60,0,1,,,0,,,77,64
111120,note_on,,,,,0,0,1,,,0,,,74,52
111120,note_on,,,,,0,0,2,,,0,,,47,53
111200,note_off,,,,,80,0,1,,,0,,,74,64
111200,note_on,,,,,0,0,1,,,0,,,71,56
111200,note_off,,,,,80,0,2,,,0,,,47,64
111200,note_on,,,,,0,0,2,,,0,,,50,55
111220,set_tempo,,,,,220,1,0,422535,,,,,,
111280,note_off,,,,,80,0,1,,,0,,,71,64
111280,note_on,,,,,0,0,1,,,0,,,65,59
111280,note_on,,,,,0,0,2,,,0,,,55,49
111280,note_off,,,,,80,0,2,,,0,,,50,64
111360,note_on,,,,,0,0,2,,,0,,,48,60
111360,note_on,,,,,0,0,1,,,0,,,64,62
111360,control_change,,,,,0,0,2,,,0,64,0,,
111360,note_off,,,,,80,0,2,,,0,,,55,64
111360,set_tempo,,,,,140,1,0,410959,,,,,,
111360,note_off,,,,,80,0,1,,,0,,,65,64
111440,note_on,,,,,0,0,2,,,0,,,52,56
111440,note_off,,,,,80,0,2,,,0,,,48,64
111520,note_on,,,,,0,0,2,,,0,,,55,52
111520,note_off,,,,,80,0,2,,,0,,,52,64
111600,note_on,,,,,0,0,2,,,0,,,48,62
111600,control_change,,,,,0,0,2,,,0,64,127,,
111600,note_off,,,,,80,0,2,,,0,,,55,64
111660,note_off,,,,,300,0,1,,,0,,,64,64
111660,set_tempo,,,,,300,1,0,400000,,,,,,
111680,note_on,,,,,0,0,2,,,0,,,52,58
111680,note_off,,,,,80,0,2,,,0,,,48,64
111760,note_on,,,,,100,0,1,,,0,,,88,75
111760,note_on,,,,,0,0,2,,,0,,,55,54
111760,note_off,,,,,80,0,2,,,0,,,52,64
111840,note_on,,,,,0,0,2,,,0,,,47,64
111840,note_off,,,,,80,0,2,,,0,,,55,64
111840,note_on,,,,,0,0,1,,,0,,,89,80
111840,note_off,,,,,80,0,1,,,0,,,88,64
111910,note_on,,,,,0,0,1,,,0,,,86,74
111910,note_off,,,,,70,0,1,,,0,,,89,64
111920,note_on,,,,,0,0,2,,,0,,,50,60
111920,note_off,,,,,80,0,2,,,0,,,47,64
111960,note_on,,,,,0,0,1,,,0,,,83,71
111960,note_off,,,,,50,0,1,,,0,,,86,64
112000,note_on,,,,,0,0,2,,,0,,,55,58
112000,note_off,,,,,80,0,2,,,0,,,50,64
112020,note_off,,,,,60,0,1,,,0,,,83,64
112020,note_on,,,,,0,0,1,,,0,,,77,68
112080,note_off,,,,,60,0,1,,,0,,,77,64
112080,note_on,,,,,0,0,1,,,0,,,74,67
112080,note_on,,,,,0,0,2,,,0,,,47,60
112080,note_off,,,,,80,0,2,,,0,,,55,64
112160,note_on,,,,,0,0,2,,,0,,,50,67
112160,note_off,,,,,80,0,2,,,0,,,47,64
112160,note_off,,,,,80,0,1,,,0,,,74,64
112160,note_on,,,,,0,0,1,,,0,,,71,72
112240,note_on,,,,,0,0,1,,,0,,,65,76
112240,note_on,,,,,0,0,2,,,0,,,55,72
112240,note_off,,,,,80,0,2,,,0,,,50,64
112240,note_off,,,,,80,0,1,,,0,,,71,64
112320,control_change,,,,,0,0,2,,,0,64,0,,
112320,control_change,,,,,0,0,2,,,0,64,0,,
112320,note_off,,,,,80,0,2,,,0,,,55,64
112320,note_on,,,,,0,0,2,,,0,,,48,60
112320,note_off,,,,,80,0,1,,,0,,,65,64
112320,note_on,,,,,0,0,1,,,0,,,64,62
112400,note_off,,,,,80,0,2,,,0,,,48,64
112400,note_on,,,,,0,0,2,,,0,,,52,56
112440,set_tempo,,,,,780,1,0,410959,,,,,,
112480,note_on,,,,,0,0,2,,,0,,,55,52
112480,note_off,,,,,80,0,2,,,0,,,52,64
112500,note_off,,,,,180,0,1,,,0,,,64,64
112560,note_on,,,,,0,0,2,,,0,,,48,72
112560,control_change,,,,,0,0,2,,,0,64,127,,
112560,note_off,,,,,80,0,2,,,0,,,55,64
112560,note_on,,,,,60,0,1,,,0,,,88,70
112620,set_tempo,,,,,180,1,0,425532,,,,,,
112640,note_off,,,,,80,0,1,,,0,,,88,64
112640,note_on,,,,,0,0,1,,,0,,,76,56
112640,note_off,,,,,80,0,2,,,0,,,48,64
112640,note_on,,,,,0,0,2,,,0,,,52,58
112720,note_on,,,,,0,0,2,,,0,,,55,54
112720,note_off,,,,,80,0,2,,,0,,,52,64
112720,note_off,,,,,80,0,1,,,0,,,76,64
112720,note_on,,,,,0,0,1,,,0,,,88,52
112780,set_tempo,,,,,160,1,0,410959,,,,,,
112786,control_change,,,,,66,0,2,,,0,64,0,,
112800,note_on,,,,,0,0,2,,,0,,,47,70
112800,control_change,,,,,0,0,2,,,0,64,127,,
112800,note_off,,,,,80,0,1,,,0,,,88,64
112800,note_off,,,,,14,0,2,,,0,,,55,64
112800,note_on,,,,,0,0,1,,,0,,,89,81
112880,note_off,,,,,80,0,1,,,0,,,89,64
112880,note_on,,,,,0,0,1,,,0,,,77,66
112880,note_on,,,,,0,0,2,,,0,,,50,56
112880,note_off,,,,,80,0,2,,,0,,,47,64
112920,set_tempo,,,,,140,1,0,402685,,,,,,
112960,note_off,,,,,80,0,1,,,0,,,77,64
112960,note_on,,,,,0,0,1,,,0,,,89,61
112960,note_on,,,,,0,0,2,,,0,,,55,52
112960,note_off,,,,,80,0,2,,,0,,,50,64
113026,control_change,,,,,66,0,2,,,0,64,0,,
113040,control_change,,,,,0,0,2,,,0,64,127,,
113040,note_off,,,,,14,0,2,,,0,,,55,64
113040,note_off,,,,,80,0,1,,,0,,,89,64
113040,note_on,,,,,0,0,1,,,0,,,90,88
113040,note_on,,,,,0,0,2,,,0,,,47,81
113120,note_off,,,,,80,0,1,,,0,,,90,64
113120,note_off,,,,,80,0,2,,,0,,,47,64
113120,note_on,,,,,0,0,1,,,0,,,78,73
113120,note_on,,,,,0,0,2,,,0,,,50,66
113200,note_on,,,,,0,0,1,,,0,,,90,71
113200,note_off,,,,,80,0,1,,,0,,,78,64
113200,note_off,,,,,80,0,2,,,0,,,50,64
113200,note_on,,,,,0,0,2,,,0,,,54,61
113266,control_change,,,,,66,0,2,,,0,64,0,,
113280,note_off,,,,,80,0,1,,,0,,,90,64
113280,note_on,,,,,0,0,1,,,0,,,91,88
113280,note_off,,,,,14,0,2,,,0,,,54,64
113280,note_on,,,,,0,0,2,,,0,,,47,88
113280,control_change,,,,,0,0,2,,,0,64,127,,
113360,note_off,,,,,80,0,2,,,0,,,47,64
113360,note_on,,,,,0,0,1,,,0,,,79,73
113360,note_off,,,,,80,0,1,,,0,,,91,64
113360,note_on,,,,,0,0,2,,,0,,,50,73
113440,note_off,,,,,80,0,1,,,0,,,79,64
113440,note_off,,,,,80,0,2,,,0,,,50,64
113440,note_on,,,,,0,0,2,,,0,,,53,71
113440,note_on,,,,,0,0,1,,,0,,,91,71
113506,control_change,,,,,66,0,2,,,0,64,0,,
113506,control_change,,,,,0,0,2,,,0,64,0,,
113520,note_on,,,,,0,0,2,,,0,,,47,100
113520,note_off,,,,,14,0,2,,,0,,,53,64
113520,note_on,,,,,0,0,1,,,0,,,92,100
113520,note_off,,,,,80,0,1,,,0,,,91,64
113520,control_change,,,,,0,0,2,,,0,64,127,,
113580,set_tempo,,,,,660,1,0,410959,,,,,,
113600,note_off,,,,,80,0,2,,,0,,,47,64
113600,note_on,,,,,0,0,1,,,0,,,80,82
113600,note_on,,,,,0,0,2,,,0,,,50,82
113600,note_off,,,,,80,0,1,,,0,,,92,64
113680,note_off,,,,,80,0,1,,,0,,,80,64
113680,note_on,,,,,0,0,2,,,0,,,52,77
113680,note_off,,,,,80,0,2,,,0,,,50,64
113680,note_on,,,,,0,0,1,,,0,,,92,77
113720,set_tempo,,,,,140,1,0,422535,,,,,,
113746,control_change,,,,,0,0,2,,,0,64,0,,
113746,control_change,,,,,0,0,2,,,0,64,0,,
113746,control_change,,,,,66,0,2,,,0,64,0,,
113760,note_on,,,,,0,0,1,,,0,,,93,106
113760,note_on,,,,,0,0,2,,,0,,,48,106
113760,control_change,,,,,0,0,2,,,0,64,127,,
113760,note_off,,,,,14,0,2,,,0,,,52,64
113760,note_off,,,,,80,0,1,,,0,,,92,64
113840,note_off,,,,,80,0,1,,,0,,,93,64
113840,note_on,,,,,0,0,1,,,0,,,81,89
113840,note_on,,,,,0,0,2,,,0,,,52,89
113840,note_off,,,,,80,0,2,,,0,,,48,64
113860,set_tempo,,,,,140,1,0,434783,,,,,,
113920,note_on,,,,,0,0,1,,,0,,,93,84
113920,note_on,,,,,0,0,2,,,0,,,57,84
113920,note_off,,,,,80,0,2,,,0,,,52,64
113920,note_off,,,,,80,0,1,,,0,,,81,64
113940,set_tempo,,,,,80,1,0,451128,,,,,,
113986,control_change,,,,,0,0,2,,,0,64,0,,
113986,control_change,,,,,0,0,2,,,0,64,0,,
113986,control_change,,,,,66,0,2,,,0,64,0,,
114000,note_on,,,,,0,0,2,,,0,,,49,108
114000,control_change,,,,,0,0,2,,,0,64,127,,
114000,note_off,,,,,14,0,2,,,0,,,57,64
114000,note_off,,,,,80,0,1,,,0,,,93,64
114000,note_on,,,,,0,0,1,,,0,,,94,108
114060,set_tempo,,,,,120,1,0,491803,,,,,,
114080,note_on,,,,,0,0,2,,,0,,,52,100
114080,note_on,,,,,0,0,1,,,0,,,82,100
114080,note_off,,,,,80,0,1,,,0,,,94,64
114080,note_off,,,,,80,0,2,,,0,,,49,64
114160,note_off,,,,,80,0,2,,,0,,,52,64
114160,note_on,,,,,0,0,2,,,0,,,55,107
114160,note_on,,,,,0,0,1,,,0,,,94,107
114160,note_off,,,,,80,0,1,,,0,,,82,64
114180,set_tempo,,,,,120,1,0,594059,,,,,,
114200,set_tempo,,,,,20,1,0,582524,,,,,,
114220,set_tempo,,,,,20,1,0,588235,,,,,,
114226,control_change,,,,,66,0,2,,,0,64,0,,
114240,set_tempo,,,,,20,1,0,530973,,,,,,
114240,note_on,,,,,0,0,2,,,0,,,52,116
114240,note_on,,,,,0,0,2,,,0,,,56,116
114240,note_off,,,,,14,0,2,,,0,,,55,64
114240,note_on,,,,,0,0,2,,,0,,,47,116
114240,note_off,,,,,80,0,1,,,0,,,94,64
114240,note_on,,,,,0,0,1,,,0,,,95,113
114320,note_on,,,,,0,0,1,,,0,,,92,105
114320,set_tempo,,,,,80,1,0,465116,,,,,,
114320,note_off,,,,,80,0,1,,,0,,,95,64
114388,note_off,,,,,68,0,1,,,0,,,92,64
114400,note_on,,,,,12,0,1,,,0,,,88,95
114468,note_off,,,,,68,0,1,,,0,,,88,64
114480,note_on,,,,,12,0,1,,,0,,,83,87
114540,set_tempo,,,,,220,1,0,441176,,,,,,
114548,note_off,,,,,68,0,1,,,0,,,83,64
114560,note_on,,,,,12,0,1,,,0,,,80,79
114628,note_off,,,,,68,0,1,,,0,,,80,64
114640,note_on,,,,,12,0,1,,,0,,,76,72
114708,note_off,,,,,68,0,1,,,0,,,76,64
114720,note_off,,,,,480,0,2,,,0,,,47,64
114720,note_on,,,,,12,0,1,,,0,,,83,83
114720,note_off,,,,,0,0,2,,,0,,,52,64
114720,note_off,,,,,0,0,2,,,0,,,56,64
114720,note_on,,,,,0,0,2,,,0,,,59,79
114788,note_off,,,,,68,0,1,,,0,,,83,64
114788,note_off,,,,,68,0,2,,,0,,,59,64
114800,note_on,,,,,12,0,1,,,0,,,80,80
114800,note_on,,,,,12,0,2,,,0,,,56,75
114868,note_off,,,,,68,0,1,,,0,,,80,64
114868,note_off,,,,,68,0,2,,,0,,,56,64
114880,note_on,,,,,12,0,1,,,0,,,76,76
114880,note_on,,,,,12,0,2,,,0,,,52,70
114900,set_tempo,,,,,360,1,0,454545,,,,,,
114948,note_off,,,,,68,0,2,,,0,,,52,64
114948,note_off,,,,,68,0,1,,,0,,,76,64
114960,note_on,,,,,12,0,2,,,0,,,47,66
114960,note_on,,,,,12,0,1,,,0,,,71,70
115020,set_tempo,,,,,120,1,0,472441,,,,,,
115028,note_off,,,,,68,0,2,,,0,,,47,64
115028,note_off,,,,,68,0,1,,,0,,,71,64
115040,note_on,,,,,12,0,2,,,0,,,44,61
115040,note_on,,,,,12,0,1,,,0,,,68,64
115108,note_off,,,,,68,0,2,,,0,,,44,64
115108,note_off,,,,,68,0,1,,,0,,,68,64
115120,note_on,,,,,12,0,1,,,0,,,64,58
115120,note_on,,,,,12,0,2,,,0,,,40,55
115188,note_off,,,,,68,0,2,,,0,,,40,64
115188,note_off,,,,,68,0,1,,,0,,,64,64
115200,note_on,,,,,12,0,2,,,0,,,35,69
115200,note_on,,,,,12,0,1,,,0,,,59,65
115300,set_tempo,,,,,280,1,0,487805,,,,,,
115320,note_off,,,,,120,0,2,,,0,,,35,64
115320,note_off,,,,,120,0,1,,,0,,,59,64
115420,set_tempo,,,,,120,1,0,504202,,,,,,
115440,note_on,,,,,0,0,2,,,0,,,52,77
115440,note_on,,,,,0,0,2,,,0,,,47,77
115440,note_on,,,,,0,0,2,,,0,,,56,77
115440,note_on,,,,,120,0,1,,,0,,,68,77
115440,control_change,,,,,120,0,2,,,0,64,127,,
115440,note_on,,,,,0,0,1,,,0,,,59,77
115440,note_on,,,,,0,0,1,,,0,,,64,77
115580,set_tempo,,,,,160,1,0,521739,,,,,,
115840,set_tempo,,,,,260,1,0,555556,,,,,,
115920,control_change,,,,,0,0,2,,,0,64,0,,
115920,note_on,,,,,0,0,2,,,0,,,47,54
115920,note_on,,,,,0,0,2,,,0,,,54,54
115920,note_on,,,,,0,0,2,,,0,,,51,54
115920,note_off,,,,,0,0,2,,,0,,,52,64
115920,note_off,,,,,480,0,1,,,0,,,59,64
115920,note_off,,,,,0,0,1,,,0,,,64,64
115920,note_off,,,,,0,0,1,,,0,,,68,64
115920,note_on,,,,,0,0,1,,,0,,,66,54
115920,note_on,,,,,0,0,1,,,0,,,59,54
115920,note_off,,,,,0,0,2,,,0,,,47,64
115920,note_on,,,,,0,0,1,,,0,,,63,54
115920,note_off,,,,,480,0,2,,,0,,,56,64
116160,note_off,,,,,240,0,1,,,0,,,59,64
116160,note_on,,,,,0,0,2,,,0,,,40,58
116160,note_on,,,,,0,0,2,,,0,,,52,58
116160,note_off,,,,,0,0,2,,,0,,,51,64
116160,note_off,,,,,0,0,2,,,0,,,54,64
116160,note_off,,,,,0,0,1,,,0,,,63,64
116160,note_off,,,,,0,0,1,,,0,,,66,64
116160,note_on,,,,,0,0,1,,,0,,,64,47
116160,note_off,,,,,240,0,2,,,0,,,47,64
116240,note_off,,,,,80,0,1,,,0,,,64,64
116240,note_on,,,,,0,0,1,,,0,,,59,44
116320,note_off,,,,,80,0,1,,,0,,,59,64
116320,note_on,,,,,0,0,1,,,0,,,56,39
116400,note_off,,,,,0,0,2,,,0,,,52,64
116400,note_off,,,,,240,0,2,,,0,,,40,64
116400,note_off,,,,,80,0,1,,,0,,,56,64
116400,note_on,,,,,0,0,1,,,0,,,59,36
116440,set_tempo,,,,,600,1,0,535714,,,,,,
116480,note_on,,,,,0,0,1,,,0,,,64,35
116480,note_off,,,,,80,0,1,,,0,,,59,64
116540,set_tempo,,,,,100,1,0,512821,,,,,,
116560,note_off,,,,,80,0,1,,,0,,,64,64
116560,note_on,,,,,0,0,1,,,0,,,68,38
116640,note_on,,,,,0,0,1,,,0,,,71,41
116640,note_on,,,,,240,0,2,,,0,,,52,32
116640,note_off,,,,,80,0,1,,,0,,,68,64
116640,note_on,,,,,0,0,2,,,0,,,56,32
116640,note_on,,,,,0,0,2,,,0,,,59,32
116680,set_tempo,,,,,140,1,0,491803,,,,,,
116720,note_off,,,,,80,0,1,,,0,,,71,64
116720,note_on,,,,,0,0,1,,,0,,,68,34
116800,note_off,,,,,80,0,1,,,0,,,68,64
116800,note_on,,,,,0,0,1,,,0,,,64,31
116820,note_off,,,,,0,0,2,,,0,,,52,64
116820,note_off,,,,,0,0,2,,,0,,,56,64
116820,note_off,,,,,180,0,2,,,0,,,59,64
116860,set_tempo,,,,,180,1,0,476190,,,,,,
116880,note_on,,,,,0,0,2,,,0,,,59,36
116880,note_on,,,,,0,0,2,,,0,,,56,36
116880,note_on,,,,,60,0,2,,,0,,,52,36
116880,note_on,,,,,0,0,1,,,0,,,71,35
116880,note_off,,,,,80,0,1,,,0,,,64,64
116960,note_on,,,,,0,0,1,,,0,,,68,34
116960,set_tempo,,,,,100,1,0,465116,,,,,,
116960,note_off,,,,,80,0,1,,,0,,,71,64
117040,note_on,,,,,0,0,1,,,0,,,64,38
117040,note_off,,,,,80,0,1,,,0,,,68,64
117060,note_off,,,,,0,0,2,,,0,,,52,64
117060,note_off,,,,,180,0,2,,,0,,,59,64
117060,note_off,,,,,0,0,2,,,0,,,56,64
117120,note_on,,,,,0,0,2,,,0,,,52,48
117120,note_off,,,,,80,0,1,,,0,,,64,64
117120,note_on,,,,,0,0,2,,,0,,,57,48
117120,note_on,,,,,0,0,2,,,0,,,59,48
117120,note_on,,,,,0,0,1,,,0,,,63,44
117120,control_change,,,,,60,0,2,,,0,64,127,,
117140,set_tempo,,,,,180,1,0,555556,,,,,,
117200,set_tempo,,,,,60,1,0,495868,,,,,,
117200,note_on,,,,,0,0,1,,,0,,,66,39
117200,note_off,,,,,80,0,1,,,0,,,63,64
117220,set_tempo,,,,,20,1,0,483871,,,,,,
117280,set_tempo,,,,,60,1,0,458015,,,,,,
117280,note_on,,,,,0,0,1,,,0,,,71,31
117280,note_off,,,,,80,0,1,,,0,,,66,64
117360,note_on,,,,,0,0,1,,,0,,,63,32
117360,note_off,,,,,80,0,1,,,0,,,71,64
117400,set_tempo,,,,,120,1,0,444444,,,,,,
117440,note_off,,,,,80,0,1,,,0,,,63,64
117440,note_on,,,,,0,0,1,,,0,,,66,35
117520,note_on,,,,,0,0,1,,,0,,,71,38
117520,note_off,,,,,80,0,1,,,0,,,66,64
117552,note_off,,,,,0,0,2,,,0,,,59,64
117552,note_off,,,,,0,0,2,,,0,,,57,64
117552,note_off,,,,,432,0,2,,,0,,,52,64
117580,note_off,,,,,60,0,1,,,0,,,71,64
117600,note_on,,,,,20,0,1,,,0,,,71,43
117600,control_change,,,,,48,0,2,,,0,64,0,,
117600,note_on,,,,,0,0,2,,,0,,,59,40
117600,note_on,,,,,0,0,2,,,0,,,57,40
117600,note_on,,,,,0,0,2,,,0,,,52,40
117680,note_off,,,,,80,0,1,,,0,,,71,64
117680,note_on,,,,,0,0,1,,,0,,,75,34
117760,note_on,,,,,0,0,1,,,0,,,78,38
117760,note_off,,,,,80,0,1,,,0,,,75,64
117780,note_off,,,,,0,0,2,,,0,,,52,64
117780,note_off,,,,,180,0,2,,,0,,,59,64
117780,note_off,,,,,0,0,2,,,0,,,57,64
117840,set_tempo,,,,,440,1,0,461538,,,,,,
117840,note_off,,,,,80,0,1,,,0,,,78,64
117840,note_on,,,,,0,0,2,,,0,,,59,38
117840,note_on,,,,,0,0,2,,,0,,,57,38
117840,note_on,,,,,0,0,1,,,0,,,83,43
117840,note_on,,,,,60,0,2,,,0,,,52,38
117920,note_off,,,,,80,0,1,,,0,,,83,64
117920,note_on,,,,,0,0,1,,,0,,,87,48
118000,note_on,,,,,0,0,1,,,0,,,90,55
118000,note_off,,,,,80,0,1,,,0,,,87,64
118020,note_off,,,,,180,0,2,,,0,,,59,64
118020,note_off,,,,,0,0,2,,,0,,,52,64
118020,note_off,,,,,0,0,2,,,0,,,57,64
118040,set_tempo,,,,,200,1,0,476190,,,,,,
118080,note_on,,,,,0,0,1,,,0,,,88,59
118080,note_off,,,,,80,0,1,,,0,,,90,64
118080,note_on,,,,,0,0,2,,,0,,,56,44
118080,note_on,,,,,0,0,2,,,0,,,52,44
118080,control_change,,,,,60,0,2,,,0,64,127,,
118080,note_on,,,,,0,0,2,,,0,,,59,44
118160,note_off,,,,,80,0,1,,,0,,,88,64
118160,note_on,,,,,0,0,1,,,0,,,83,59
118220,set_tempo,,,,,180,1,0,495868,,,,,,
118240,note_on,,,,,0,0,1,,,0,,,80,55
118240,note_off,,,,,80,0,1,,,0,,,83,64
118320,note_on,,,,,0,0,1,,,0,,,76,51
118320,note_off,,,,,80,0,1,,,0,,,80,64
118400,note_on,,,,,0,0,1,,,0,,,71,44
118400,note_off,,,,,80,0,1,,,0,,,76,64
118480,note_on,,,,,0,0,1,,,0,,,68,34
118480,note_off,,,,,80,0,1,,,0,,,71,64
118500,set_tempo,,,,,280,1,0,508475,,,,,,
118512,note_off,,,,,0,0,2,,,0,,,59,64
118512,note_off,,,,,432,0,2,,,0,,,52,64
118512,note_off,,,,,0,0,2,,,0,,,56,64
118560,note_on,,,,,0,0,2,,,0,,,56,39
118560,note_on,,,,,0,0,2,,,0,,,52,39
118560,control_change,,,,,48,0,2,,,0,64,0,,
118560,note_on,,,,,0,0,2,,,0,,,59,39
118560,note_off,,,,,80,0,1,,,0,,,68,64
118560,note_on,,,,,0,0,1,,,0,,,71,41
118640,note_on,,,,,0,0,1,,,0,,,68,34
118640,note_off,,,,,80,0,1,,,0,,,71,64
118640,set_tempo,,,,,140,1,0,491803,,,,,,
118720,note_on,,,,,0,0,1,,,0,,,64,31
118720,note_off,,,,,80,0,1,,,0,,,68,64
118740,note_off,,,,,0,0,2,,,0,,,56,64
118740,note_off,,,,,0,0,2,,,0,,,52,64
118740,note_off,,,,,180,0,2,,,0,,,59,64
118780,set_tempo,,,,,140,1,0,476190,,,,,,
118800,note_on,,,,,0,0,2,,,0,,,59,34
118800,note_on,,,,,0,0,2,,,0,,,56,34
118800,note_on,,,,,60,0,2,,,0,,,52,34
118800,note_off,,,,,80,0,1,,,0,,,64,64
118800,note_on,,,,,0,0,1,,,0,,,71,35
118880,note_off,,,,,80,0,1,,,0,,,71,64
118880,note_on,,,,,0,0,1,,,0,,,68,34
118920,set_tempo,,,,,140,1,0,465116,,,,,,
118960,note_on,,,,,0,0,1,,,0,,,64,38
118960,note_off,,,,,80,0,1,,,0,,,68,64
118980,note_off,,,,,0,0,2,,,0,,,52,64
118980,note_off,,,,,0,0,2,,,0,,,56,64
118980,note_off,,,,,180,0,2,,,0,,,59,64
119040,note_on,,,,,0,0,1,,,0,,,63,44
119040,note_off,,,,,80,0,1,,,0,,,64,64
119040,note_on,,,,,0,0,2,,,0,,,52,48
119040,note_on,,,,,0,0,2,,,0,,,57,48
119040,note_on,,,,,0,0,2,,,0,,,59,48
119040,control_change,,,,,60,0,2,,,0,64,127,,
119060,set_tempo,,,,,140,1,0,555556,,,,,,
119120,note_off,,,,,80,0,1,,,0,,,63,64
119120,set_tempo,,,,,60,1,0,495868,,,,,,
119120,note_on,,,,,0,0,1,,,0,,,66,39
119140,set_tempo,,,,,20,1,0,483871,,,,,,
119200,set_tempo,,,,,60,1,0,461538,,,,,,
119200,note_on,,,,,0,0,1,,,0,,,71,31
119200,note_off,,,,,80,0,1,,,0,,,66,64
119280,note_off,,,,,80,0,1,,,0,,,71,64
119280,note_on,,,,,0,0,1,,,0,,,63,32
119300,set_tempo,,,,,100,1,0,444444,,,,,,
119360,note_on,,,,,0,0,1,,,0,,,66,35
119360,note_off,,,,,80,0,1,,,0,,,63,64
119440,note_on,,,,,0,0,1,,,0,,,71,38
119440,note_off,,,,,80,0,1,,,0,,,66,64
119472,note_off,,,,,432,0,2,,,0,,,52,64
119472,note_off,,,,,0,0,2,,,0,,,57,64
119472,note_off,,,,,0,0,2,,,0,,,59,64
119500,note_off,,,,,60,0,1,,,0,,,71,64
119520,note_on,,,,,0,0,2,,,0,,,57,50
119520,control_change,,,,,48,0,2,,,0,64,0,,
119520,note_on,,,,,0,0,2,,,0,,,59,50
119520,note_on,,,,,20,0,1,,,0,,,71,43
119520,note_on,,,,,0,0,2,,,0,,,52,50
119600,note_on,,,,,0,0,1,,,0,,,75,34
119600,note_off,,,,,80,0,1,,,0,,,71,64
119680,note_off,,,,,80,0,1,,,0,,,75,64
119680,note_on,,,,,0,0,1,,,0,,,78,35
119700,note_off,,,,,0,0,2,,,0,,,52,64
119700,note_off,,,,,180,0,2,,,0,,,59,64
119700,note_off,,,,,0,0,2,,,0,,,57,64
119700,set_tempo,,,,,400,1,0,454545,,,,,,
119760,note_on,,,,,60,0,2,,,0,,,52,45
119760,note_on,,,,,0,0,2,,,0,,,57,45
119760,note_on,,,,,0,0,2,,,0,,,59,45
119760,note_off,,,,,80,0,1,,,0,,,78,64
119760,note_on,,,,,0,0,1,,,0,,,83,38
119840,note_on,,,,,0,0,1,,,0,,,87,43
119840,note_off,,,,,80,0,1,,,0,,,83,64
119860,set_tempo,,,,,160,1,0,465116,,,,,,
119920,note_on,,,,,0,0,1,,,0,,,90,47
119920,note_off,,,,,80,0,1,,,0,,,87,64
119940,note_off,,,,,180,0,2,,,0,,,59,64
119940,note_off,,,,,0,0,2,,,0,,,57,64
119940,note_off,,,,,0,0,2,,,0,,,52,64
120000,note_on,,,,,0,0,1,,,0,,,88,53
120000,note_off,,,,,80,0,1,,,0,,,90,64
120000,note_on,,,,,0,0,2,,,0,,,52,60
120000,note_on,,,,,0,0,2,,,0,,,56,60
120000,control_change,,,,,60,0,2,,,0,64,127,,
120000,note_on,,,,,0,0,2,,,0,,,59,60
120020,set_tempo,,,,,160,1,0,483871,,,,,,
120080,note_off,,,,,80,0,1,,,0,,,88,64
120080,note_on,,,,,0,0,1,,,0,,,83,53
120160,note_off,,,,,80,0,1,,,0,,,83,64
120160,note_on,,,,,0,0,1,,,0,,,80,49
120180,set_tempo,,,,,160,1,0,495868,,,,,,
120240,note_on,,,,,0,0,1,,,0,,,76,47
120240,note_off,,,,,80,0,1,,,0,,,80,64
120320,note_off,,,,,80,0,1,,,0,,,76,64
120320,note_on,,,,,0,0,1,,,0,,,71,51
120380,set_tempo,,,,,200,1,0,480000,,,,,,
120400,note_off,,,,,80,0,1,,,0,,,71,64
120400,note_on,,,,,0,0,1,,,0,,,68,54
120432,note_off,,,,,0,0,2,,,0,,,59,64
120432,note_off,,,,,0,0,2,,,0,,,56,64
120432,note_off,,,,,432,0,2,,,0,,,52,64
120480,note_on,,,,,0,0,1,,,0,,,71,69
120480,note_off,,,,,80,0,1,,,0,,,68,64
120480,control_change,,,,,48,0,2,,,0,64,0,,
120480,note_on,,,,,0,0,2,,,0,,,52,53
120480,note_on,,,,,0,0,2,,,0,,,57,53
120480,note_on,,,,,0,0,2,,,0,,,59,53
120560,note_off,,,,,80,0,1,,,0,,,71,64
120560,note_on,,,,,0,0,1,,,0,,,75,56
120560,set_tempo,,,,,180,1,0,465116,,,,,,
120640,note_off,,,,,80,0,1,,,0,,,75,64
120640,note_on,,,,,0,0,1,,,0,,,78,63
120660,note_off,,,,,180,0,2,,,0,,,59,64
120660,note_off,,,,,0,0,2,,,0,,,57,64
120660,note_off,,,,,0,0,2,,,0,,,52,64
120720,note_on,,,,,60,0,2,,,0,,,52,50
120720,note_on,,,,,0,0,2,,,0,,,59,50
120720,note_off,,,,,80,0,1,,,0,,,78,64
120720,set_tempo,,,,,160,1,0,451128,,,,,,
120720,note_on,,,,,0,0,2,,,0,,,57,50
120720,note_on,,,,,0,0,1,,,0,,,83,68
120800,note_off,,,,,80,0,1,,,0,,,83,64
120800,note_on,,,,,0,0,1,,,0,,,87,75
120880,note_off,,,,,80,0,1,,,0,,,87,64
120880,note_on,,,,,0,0,1,,,0,,,90,80
120900,note_off,,,,,180,0,2,,,0,,,59,64
120900,note_off,,,,,0,0,2,,,0,,,57,64
120900,note_off,,,,,0,0,2,,,0,,,52,64
120960,control_change,,,,,60,0,2,,,0,64,127,,
120960,note_on,,,,,0,0,2,,,0,,,56,62
120960,note_on,,,,,0,0,2,,,0,,,52,62
120960,note_off,,,,,80,0,1,,,0,,,90,64
120960,note_on,,,,,0,0,1,,,0,,,88,85
120960,note_on,,,,,0,0,2,,,0,,,59,62
121000,set_tempo,,,,,280,1,0,441176,,,,,,
121040,note_off,,,,,80,0,1,,,0,,,88,64
121040,note_on,,,,,0,0,1,,,0,,,83,83
121120,note_off,,,,,80,0,1,,,0,,,83,64
121120,note_on,,,,,0,0,1,,,0,,,80,79
121200,note_off,,,,,80,0,1,,,0,,,80,64
121200,note_on,,,,,0,0,1,,,0,,,76,75
121280,note_off,,,,,80,0,1,,,0,,,76,64
121280,note_on,,,,,0,0,1,,,0,,,71,73
121300,set_tempo,,,,,300,1,0,431655,,,,,,
121360,note_on,,,,,0,0,1,,,0,,,68,72
121360,note_off,,,,,80,0,1,,,0,,,71,64
121392,note_off,,,,,432,0,2,,,0,,,52,64
121392,note_off,,,,,0,0,2,,,0,,,56,64
121392,note_off,,,,,0,0,2,,,0,,,59,64
121440,note_on,,,,,0,0,2,,,0,,,59,69
121440,note_off,,,,,80,0,1,,,0,,,68,64
121440,control_change,,,,,48,0,2,,,0,64,0,,
121440,note_on,,,,,0,0,2,,,0,,,52,69
121440,note_on,,,,,0,0,2,,,0,,,57,69
121440,note_on,,,,,0,0,1,,,0,,,71,83
121520,note_off,,,,,80,0,1,,,0,,,71,64
121520,note_on,,,,,0,0,1,,,0,,,75,74
121600,note_on,,,,,0,0,1,,,0,,,78,81
121600,note_off,,,,,80,0,1,,,0,,,75,64
121620,note_off,,,,,0,0,2,,,0,,,52,64
121620,note_off,,,,,180,0,2,,,0,,,59,64
121620,note_off,,,,,0,0,2,,,0,,,57,64
121660,set_tempo,,,,,360,1,0,444444,,,,,,
121680,note_on,,,,,0,0,2,,,0,,,59,63
121680,note_on,,,,,0,0,1,,,0,,,83,88
121680,note_off,,,,,80,0,1,,,0,,,78,64
121680,note_on,,,,,0,0,2,,,0,,,57,63
121680,note_on,,,,,60,0,2,,,0,,,52,63
121760,note_on,,,,,0,0,1,,,0,,,87,94
121760,note_off,,,,,80,0,1,,,0,,,83,64
121840,note_on,,,,,0,0,1,,,0,,,90,101
121840,note_off,,,,,80,0,1,,,0,,,87,64
121860,set_tempo,,,,,200,1,0,458015,,,,,,
121860,note_off,,,,,0,0,2,,,0,,,57,64
121860,note_off,,,,,180,0,2,,,0,,,59,64
121860,note_off,,,,,0,0,2,,,0,,,52,64
121920,control_change,,,,,60,0,2,,,0,64,127,,
121920,note_on,,,,,0,0,2,,,0,,,59,79
121920,note_on,,,,,0,0,1,,,0,,,88,105
121920,note_on,,,,,0,0,2,,,0,,,56,79
121920,note_off,,,,,80,0,1,,,0,,,90,64
121920,note_on,,,,,0,0,2,,,0,,,52,79
122000,set_tempo,,,,,140,1,0,476190,,,,,,
122000,note_off,,,,,80,0,1,,,0,,,88,64
122000,note_on,,,,,0,0,1,,,0,,,83,92
122080,set_tempo,,,,,80,1,0,500000,,,,,,
122080,note_off,,,,,80,0,1,,,0,,,83,64
122080,note_on,,,,,0,0,1,,,0,,,80,80
122160,note_off,,,,,80,0,1,,,0,,,80,64
122160,note_on,,,,,0,0,1,,,0,,,76,67
122180,set_tempo,,,,,100,1,0,517241,,,,,,
122200,set_tempo,,,,,20,1,0,521739,,,,,,
122240,note_off,,,,,80,0,1,,,0,,,76,64
122240,note_on,,,,,0,0,1,,,0,,,71,52
122280,set_tempo,,,,,80,1,0,550459,,,,,,
122320,note_off,,,,,80,0,1,,,0,,,71,64
122320,note_on,,,,,0,0,1,,,0,,,68,40
122352,note_off,,,,,432,0,2,,,0,,,52,64
122352,note_off,,,,,0,0,2,,,0,,,56,64
122352,note_off,,,,,0,0,2,,,0,,,59,64
122360,set_tempo,,,,,80,1,0,447761,,,,,,
122380,note_off,,,,,60,0,1,,,0,,,68,64
122400,control_change,,,,,20,0,1,,,0,64,0,,
122400,note_on,,,,,0,0,1,,,0,,,81,75
122400,note_on,,,,,0,0,1,,,0,,,75,75
122400,note_on,,,,,48,0,2,,,0,,,47,64
122400,note_on,,,,,0,0,1,,,0,,,83,75
122480,note_off,,,,,80,0,2,,,0,,,47,64
122480,note_on,,,,,0,0,2,,,0,,,51,51
122560,note_on,,,,,0,0,2,,,0,,,54,52
122560,note_off,,,,,80,0,2,,,0,,,51,64
122580,note_off,,,,,0,0,1,,,0,,,83,64
122580,note_off,,,,,0,0,1,,,0,,,81,64
122580,note_off,,,,,180,0,1,,,0,,,75,64
122640,note_on,,,,,0,0,2,,,0,,,59,57
122640,note_off,,,,,80,0,2,,,0,,,54,64
122640,note_on,,,,,60,0,1,,,0,,,83,67
122640,note_on,,,,,0,0,1,,,0,,,81,67
122640,note_on,,,,,0,0,1,,,0,,,75,67
122720,note_on,,,,,0,0,2,,,0,,,63,64
122720,note_off,,,,,80,0,2,,,0,,,59,64
122800,note_on,,,,,0,0,2,,,0,,,66,70
122800,note_off,,,,,80,0,2,,,0,,,63,64
122820,note_off,,,,,0,0,1,,,0,,,83,64
122820,note_off,,,,,180,0,1,,,0,,,75,64
122820,note_off,,,,,0,0,1,,,0,,,81,64
122880,note_on,,,,,0,0,1,,,0,,,76,90
122880,note_off,,,,,80,0,2,,,0,,,66,64
122880,note_on,,,,,0,0,1,,,0,,,83,90
122880,note_on,,,,,0,0,1,,,0,,,80,90
122880,note_on,,,,,0,0,2,,,0,,,64,81
122880,control_change,,,,,60,0,1,,,0,64,127,,
122960,note_on,,,,,0,0,2,,,0,,,59,76
122960,note_off,,,,,80,0,2,,,0,,,64,64
123040,note_off,,,,,80,0,2,,,0,,,59,64
123040,note_on,,,,,0,0,2,,,0,,,56,69
123120,note_on,,,,,0,0,2,,,0,,,59,75
123120,note_off,,,,,80,0,2,,,0,,,56,64
123200,note_off,,,,,80,0,2,,,0,,,59,64
123200,note_on,,,,,0,0,2,,,0,,,56,70
123280,note_on,,,,,0,0,2,,,0,,,52,63
123280,note_off,,,,,80,0,2,,,0,,,56,64
123312,note_off,,,,,0,0,1,,,0,,,83,64
123312,note_off,,,,,432,0,1,,,0,,,76,64
123312,note_off,,,,,0,0,1,,,0,,,80,64
123360,note_off,,,,,80,0,2,,,0,,,52,64
123360,control_change,,,,,48,0,1,,,0,64,0,,
123360,note_on,,,,,0,0,1,,,0,,,83,66
123360,note_on,,,,,0,0,1,,,0,,,81,66
123360,note_on,,,,,0,0,1,,,0,,,75,66
123360,note_on,,,,,0,0,2,,,0,,,47,65
123440,note_on,,,,,0,0,2,,,0,,,51,52
123440,note_off,,,,,80,0,2,,,0,,,47,64
123520,note_off,,,,,80,0,2,,,0,,,51,64
123520,note_on,,,,,0,0,2,,,0,,,54,47
123540,note_off,,,,,0,0,1,,,0,,,81,64
123540,note_off,,,,,0,0,1,,,0,,,83,64
123540,note_off,,,,,180,0,1,,,0,,,75,64
123600,note_on,,,,,0,0,1,,,0,,,81,58
123600,note_on,,,,,0,0,1,,,0,,,75,58
123600,note_off,,,,,80,0,2,,,0,,,54,64
123600,note_on,,,,,0,0,2,,,0,,,59,48
123600,note_on,,,,,60,0,1,,,0,,,83,58
123680,note_off,,,,,80,0,2,,,0,,,59,64
123680,note_on,,,,,0,0,2,,,0,,,63,53
123760,note_on,,,,,0,0,2,,,0,,,66,56
123760,note_off,,,,,80,0,2,,,0,,,63,64
123780,note_off,,,,,180,0,1,,,0,,,75,64
123780,note_off,,,,,0,0,1,,,0,,,83,64
123780,note_off,,,,,0,0,1,,,0,,,81,64
123840,note_off,,,,,80,0,2,,,0,,,66,64
123840,note_on,,,,,0,0,1,,,0,,,76,71
123840,note_on,,,,,0,0,1,,,0,,,80,71
123840,note_on,,,,,0,0,1,,,0,,,83,71
123840,control_change,,,,,60,0,1,,,0,64,127,,
123840,note_on,,,,,0,0,2,,,0,,,64,59
123920,note_off,,,,,80,0,2,,,0,,,64,64
123920,note_on,,,,,0,0,2,,,0,,,59,58
124000,note_off,,,,,80,0,2,,,0,,,59,64
124000,note_on,,,,,0,0,2,,,0,,,56,53
124080,note_off,,,,,80,0,2,,,0,,,56,64
124080,note_on,,,,,0,0,2,,,0,,,59,54
124160,note_on,,,,,0,0,2,,,0,,,56,51
124160,note_off,,,,,80,0,2,,,0,,,59,64
124240,note_on,,,,,0,0,2,,,0,,,52,49
124240,note_off,,,,,80,0,2,,,0,,,56,64
124272,note_off,,,,,432,0,1,,,0,,,76,64
124272,note_off,,,,,0,0,1,,,0,,,80,64
124272,note_off,,,,,0,0,1,,,0,,,83,64
124320,note_off,,,,,80,0,2,,,0,,,52,64
124320,note_on,,,,,0,0,2,,,0,,,47,54
124320,control_change,,,,,48,0,1,,,0,64,0,,
124320,note_on,,,,,0,0,1,,,0,,,83,51
124320,note_on,,,,,0,0,1,,,0,,,81,51
124320,note_on,,,,,0,0,1,,,0,,,75,51
124400,note_off,,,,,80,0,2,,,0,,,47,64
124400,note_on,,,,,0,0,2,,,0,,,51,49
124480,note_on,,,,,0,0,2,,,0,,,54,45
124480,note_off,,,,,80,0,2,,,0,,,51,64
124500,note_off,,,,,0,0,1,,,0,,,83,64
124500,note_off,,,,,0,0,1,,,0,,,81,64
124500,note_off,,,,,180,0,1,,,0,,,75,64
124560,note_on,,,,,0,0,1,,,0,,,81,44
124560,note_on,,,,,0,0,1,,,0,,,75,44
124560,note_on,,,,,0,0,2,,,0,,,59,40
124560,note_off,,,,,80,0,2,,,0,,,54,64
124560,note_on,,,,,60,0,1,,,0,,,83,44
124640,note_off,,,,,80,0,2,,,0,,,59,64
124640,note_on,,,,,0,0,2,,,0,,,63,40
124720,note_off,,,,,80,0,2,,,0,,,63,64
124720,note_on,,,,,0,0,2,,,0,,,66,38
124720,set_tempo,,,,,2360,1,0,458015,,,,,,
124740,note_off,,,,,180,0,1,,,0,,,75,64
124740,note_off,,,,,0,0,1,,,0,,,81,64
124740,note_off,,,,,0,0,1,,,0,,,83,64
124800,control_change,,,,,0,0,1,,,0,64,127,,
124800,note_off,,,,,80,0,2,,,0,,,66,64
124800,note_on,,,,,0,0,2,,,0,,,64,40
124800,note_on,,,,,0,0,1,,,0,,,76,40
124800,note_on,,,,,60,0,1,,,0,,,83,40
124800,note_on,,,,,0,0,1,,,0,,,80,40
124880,note_off,,,,,80,0,2,,,0,,,64,64
124880,note_on,,,,,0,0,2,,,0,,,59,36
124960,set_tempo,,,,,240,1,0,480000,,,,,,
124960,note_off,,,,,80,0,2,,,0,,,59,64
124960,note_on,,,,,0,0,2,,,0,,,56,33
125040,note_off,,,,,80,0,2,,,0,,,56,64
125040,note_on,,,,,0,0,2,,,0,,,59,36
125120,set_tempo,,,,,160,1,0,495868,,,,,,
125120,note_on,,,,,0,0,2,,,0,,,56,31
125120,note_off,,,,,80,0,2,,,0,,,59,64
125200,note_off,,,,,80,0,2,,,0,,,56,64
125200,note_on,,,,,0,0,2,,,0,,,52,31
125240,set_tempo,,,,,120,1,0,512821,,,,,,
125280,note_on,,,,,0,0,2,,,0,,,56,36
125280,note_off,,,,,80,0,2,,,0,,,52,64
125360,note_off,,,,,80,0,2,,,0,,,56,64
125360,note_on,,,,,0,0,2,,,0,,,52,33
125380,set_tempo,,,,,140,1,0,545455,,,,,,
125440,note_off,,,,,80,0,2,,,0,,,52,64
125440,note_on,,,,,0,0,2,,,0,,,47,33
125500,set_tempo,,,,,120,1,0,571429,,,,,,
125520,note_off,,,,,80,0,2,,,0,,,47,64
125520,note_on,,,,,0,0,2,,,0,,,52,30
125600,note_on,,,,,0,0,2,,,0,,,47,33
125600,note_off,,,,,80,0,2,,,0,,,52,64
125600,set_tempo,,,,,100,1,0,612245,,,,,,
125680,set_tempo,,,,,80,1,0,645161,,,,,,
125680,note_on,,,,,0,0,2,,,0,,,44,37
125680,note_off,,,,,80,0,2,,,0,,,47,64
125680,control_change,,,,,880,0,1,,,0,64,0,,
125760,set_tempo,,,,,80,1,0,714286,,,,,,
125760,note_on,,,,,0,0,2,,,0,,,40,41
125760,note_off,,,,,80,0,2,,,0,,,44,64
125800,set_tempo,,,,,40,1,0,594059,,,,,,
125840,note_off,,,,,80,0,2,,,0,,,40,64
125840,note_on,,,,,0,0,2,,,0,,,44,38
125860,set_tempo,,,,,60,1,0,566038,,,,,,
125920,set_tempo,,,,,60,1,0,526316,,,,,,
125920,note_off,,,,,80,0,2,,,0,,,44,64
125920,note_on,,,,,0,0,2,,,0,,,47,34
125952,note_off,,,,,0,0,1,,,0,,,83,64
125952,note_off,,,,,272,0,1,,,0,,,76,64
125954,note_off,,,,,2,0,1,,,0,,,80,64
126000,set_tempo,,,,,80,1,0,495868,,,,,,
126000,note_on,,,,,0,0,2,,,0,,,44,37
126000,note_off,,,,,80,0,2,,,0,,,47,64
126080,note_off,,,,,80,0,2,,,0,,,44,64
126080,set_tempo,,,,,80,1,0,480000,,,,,,
126080,note_on,,,,,0,0,2,,,0,,,47,35
126160,note_off,,,,,80,0,2,,,0,,,47,64
126160,note_on,,,,,0,0,2,,,0,,,52,31
126240,note_off,,,,,80,0,2,,,0,,,52,64
126240,note_on,,,,,0,0,2,,,0,,,40,35
126240,set_tempo,,,,,160,1,0,465116,,,,,,
126320,note_off,,,,,80,0,2,,,0,,,40,64
126320,note_on,,,,,0,0,2,,,0,,,44,33
126400,note_on,,,,,0,0,2,,,0,,,47,29
126400,set_tempo,,,,,160,1,0,451128,,,,,,
126400,note_off,,,,,80,0,2,,,0,,,44,64
126480,note_on,,,,,0,0,2,,,0,,,44,34
126480,note_off,,,,,80,0,2,,,0,,,47,64
126560,note_on,,,,,0,0,2,,,0,,,47,31
126560,note_off,,,,,80,0,2,,,0,,,44,64
126580,set_tempo,,,,,180,1,0,437956,,,,,,
126640,note_off,,,,,80,0,2,,,0,,,47,64
126640,note_on,,,,,0,0,2,,,0,,,52,27
126720,note_on,,,,,0,0,2,,,0,,,40,35
126720,note_off,,,,,80,0,2,,,0,,,52,64
126720,note_on,,,,,766,0,1,,,0,,,64,37
126800,note_on,,,,,0,0,2,,,0,,,44,35
126800,note_off,,,,,80,0,2,,,0,,,40,64
126840,note_off,,,,,120,0,1,,,0,,,64,64
126880,note_off,,,,,80,0,2,,,0,,,44,64
126880,note_on,,,,,0,0,2,,,0,,,47,33
126960,note_on,,,,,120,0,1,,,0,,,64,48
126960,note_on,,,,,0,0,2,,,0,,,44,37
126960,note_off,,,,,80,0,2,,,0,,,47,64
127040,note_off,,,,,80,0,2,,,0,,,44,64
127040,note_on,,,,,0,0,2,,,0,,,47,35
127120,note_off,,,,,80,0,2,,,0,,,47,64
127120,note_on,,,,,0,0,2,,,0,,,52,31
127200,note_off,,,,,80,0,2,,,0,,,52,64
127200,note_on,,,,,0,0,2,,,0,,,40,35
127280,note_off,,,,,80,0,2,,,0,,,40,64
127280,note_on,,,,,0,0,2,,,0,,,44,33
127360,note_off,,,,,80,0,2,,,0,,,44,64
127360,note_on,,,,,0,0,2,,,0,,,47,29
127440,note_on,,,,,0,0,1,,,0,,,76,33
127440,note_off,,,,,480,0,1,,,0,,,64,64
127440,note_off,,,,,80,0,2,,,0,,,47,64
127440,note_on,,,,,0,0,2,,,0,,,44,34
127520,note_off,,,,,80,0,2,,,0,,,44,64
127520,note_on,,,,,0,0,2,,,0,,,47,31
127560,note_off,,,,,120,0,1,,,0,,,76,64
127600,note_off,,,,,80,0,2,,,0,,,47,64
127600,note_on,,,,,0,0,2,,,0,,,52,27
127680,note_on,,,,,0,0,2,,,0,,,40,41
127680,note_off,,,,,80,0,2,,,0,,,52,64
127760,note_on,,,,,0,0,2,,,0,,,41,38
127760,note_off,,,,,80,0,2,,,0,,,40,64
127840,note_on,,,,,0,0,2,,,0,,,47,34
127840,note_off,,,,,80,0,2,,,0,,,41,64
127920,note_off,,,,,80,0,2,,,0,,,47,64
127920,note_on,,,,,0,0,2,,,0,,,41,37
128000,note_off,,,,,80,0,2,,,0,,,41,64
128000,note_on,,,,,0,0,2,,,0,,,47,35
128040,set_tempo,,,,,1460,1,0,434783,,,,,,
128080,note_off,,,,,80,0,2,,,0,,,47,64
128080,note_on,,,,,0,0,2,,,0,,,52,31
128160,note_off,,,,,80,0,2,,,0,,,52,64
128160,note_on,,,,,0,0,2,,,0,,,40,35
128240,note_off,,,,,80,0,2,,,0,,,40,64
128240,note_on,,,,,0,0,2,,,0,,,41,33
128320,note_off,,,,,80,0,2,,,0,,,41,64
128320,note_on,,,,,0,0,2,,,0,,,47,29
128400,note_off,,,,,80,0,2,,,0,,,47,64
128400,note_on,,,,,0,0,2,,,0,,,41,34
128480,note_on,,,,,0,0,2,,,0,,,47,31
128480,note_off,,,,,80,0,2,,,0,,,41,64
128560,note_on,,,,,0,0,2,,,0,,,52,27
128560,note_off,,,,,80,0,2,,,0,,,47,64
128640,note_off,,,,,80,0,2,,,0,,,52,64
128640,note_on,,,,,0,0,2,,,0,,,40,35
128640,note_on,,,,,1080,0,1,,,0,,,64,35
128720,note_off,,,,,80,0,2,,,0,,,40,64
128720,note_on,,,,,0,0,2,,,0,,,41,33
128760,note_off,,,,,120,0,1,,,0,,,64,64
128800,note_off,,,,,80,0,2,,,0,,,41,64
128800,note_on,,,,,0,0,2,,,0,,,47,32
128880,note_on,,,,,120,0,1,,,0,,,64,48
128880,note_off,,,,,80,0,2,,,0,,,47,64
128880,control_change,,,,,0,0,2,,,0,64,127,,
128880,note_on,,,,,0,0,2,,,0,,,41,37
128960,note_off,,,,,80,0,2,,,0,,,41,64
128960,note_on,,,,,0,0,2,,,0,,,47,35
128960,set_tempo,,,,,920,1,0,425532,,,,,,
129040,note_off,,,,,80,0,2,,,0,,,47,64
129040,note_on,,,,,0,0,2,,,0,,,52,31
129120,note_off,,,,,80,0,2,,,0,,,52,64
129120,note_on,,,,,0,0,2,,,0,,,40,35
129200,note_off,,,,,80,0,2,,,0,,,40,64
129200,note_on,,,,,0,0,2,,,0,,,41,33
129280,note_on,,,,,0,0,2,,,0,,,47,29
129280,note_off,,,,,80,0,2,,,0,,,41,64
129360,note_off,,,,,480,0,1,,,0,,,64,64
129360,note_on,,,,,0,0,1,,,0,,,76,33
129360,note_on,,,,,0,0,2,,,0,,,41,34
129360,control_change,,,,,0,0,2,,,0,64,0,,
129360,note_off,,,,,80,0,2,,,0,,,47,64
129440,note_on,,,,,0,0,2,,,0,,,47,31
129440,note_off,,,,,80,0,2,,,0,,,41,64
129480,note_off,,,,,120,0,1,,,0,,,76,64
129520,note_on,,,,,0,0,2,,,0,,,52,27
129520,note_off,,,,,80,0,2,,,0,,,47,64
129600,note_off,,,,,80,0,2,,,0,,,52,64
129600,note_on,,,,,0,0,2,,,0,,,40,35
129680,note_off,,,,,80,0,2,,,0,,,40,64
129680,note_on,,,,,0,0,2,,,0,,,42,33
129740,set_tempo,,,,,780,1,0,419580,,,,,,
129760,note_off,,,,,80,0,2,,,0,,,42,64
129760,note_on,,,,,0,0,2,,,0,,,45,32
129840,note_off,,,,,80,0,2,,,0,,,45,64
129840,note_on,,,,,0,0,2,,,0,,,42,42
129920,note_off,,,,,80,0,2,,,0,,,42,64
129920,note_on,,,,,0,0,2,,,0,,,45,39
130000,note_off,,,,,80,0,2,,,0,,,45,64
130000,note_on,,,,,0,0,2,,,0,,,52,36
130080,note_on,,,,,0,0,2,,,0,,,40,45
130080,note_off,,,,,80,0,2,,,0,,,52,64
130160,note_on,,,,,0,0,2,,,0,,,43,39
130160,note_off,,,,,80,0,2,,,0,,,40,64
130240,note_on,,,,,0,0,2,,,0,,,46,35
130240,note_off,,,,,80,0,2,,,0,,,43,64
130320,note_on,,,,,0,0,2,,,0,,,43,49
130320,note_off,,,,,80,0,2,,,0,,,46,64
130400,note_off,,,,,80,0,2,,,0,,,43,64
130400,note_on,,,,,0,0,2,,,0,,,47,43
130480,note_off,,,,,80,0,2,,,0,,,47,64
130480,note_on,,,,,0,0,2,,,0,,,52,40
130560,note_on,,,,,1080,0,1,,,0,,,76,55
130560,note_off,,,,,80,0,2,,,0,,,52,64
130560,note_on,,,,,0,0,2,,,0,,,40,51
130640,note_off,,,,,80,0,2,,,0,,,40,64
130640,note_on,,,,,0,0,2,,,0,,,44,47
130680,note_off,,,,,120,0,1,,,0,,,76,64
130720,note_off,,,,,80,0,2,,,0,,,44,64
130720,note_on,,,,,0,0,2,,,0,,,47,43
130800,note_on,,,,,0,0,2,,,0,,,44,55
130800,note_off,,,,,80,0,2,,,0,,,47,64
130800,control_change,,,,,0,0,2,,,0,64,127,,
130800,note_on,,,,,120,0,1,,,0,,,76,80
130880,note_on,,,,,0,0,2,,,0,,,47,50
130880,note_off,,,,,80,0,2,,,0,,,44,64
130960,note_off,,,,,80,0,2,,,0,,,47,64
130960,note_on,,,,,0,0,2,,,0,,,52,46
131040,note_on,,,,,0,0,2,,,0,,,45,59
131040,note_off,,,,,80,0,2,,,0,,,52,64
131120,note_on,,,,,0,0,2,,,0,,,48,55
131120,note_off,,,,,80,0,2,,,0,,,45,64
131200,note_off,,,,,80,0,2,,,0,,,48,64
131200,note_on,,,,,0,0,2,,,0,,,52,51
131280,note_on,,,,,0,0,2,,,0,,,46,63
131280,note_off,,,,,80,0,2,,,0,,,52,64
131280,control_change,,,,,0,0,2,,,0,64,0,,
131280,note_off,,,,,480,0,1,,,0,,,76,64
131280,note_on,,,,,0,0,1,,,0,,,88,54
131360,note_off,,,,,80,0,2,,,0,,,46,64
131360,note_on,,,,,0,0,2,,,0,,,49,58
131400,note_off,,,,,120,0,1,,,0,,,88,64
131440,note_off,,,,,80,0,2,,,0,,,49,64
131440,note_on,,,,,0,0,2,,,0,,,52,55
131520,note_off,,,,,80,0,2,,,0,,,52,64
131520,note_on,,,,,0,0,2,,,0,,,40,67
131520,note_on,,,,,120,0,1,,,0,,,64,79
131600,note_off,,,,,80,0,2,,,0,,,40,64
131600,note_on,,,,,0,0,2,,,0,,,47,63
131640,note_off,,,,,120,0,1,,,0,,,64,64
131680,note_on,,,,,0,0,2,,,0,,,50,59
131680,note_off,,,,,80,0,2,,,0,,,47,64
131760,note_on,,,,,0,0,2,,,0,,,47,72
131760,control_change,,,,,0,0,2,,,0,64,127,,
131760,note_off,,,,,80,0,2,,,0,,,50,64
131760,note_on,,,,,120,0,1,,,0,,,64,95
131840,note_off,,,,,80,0,2,,,0,,,47,64
131840,note_on,,,,,0,0,2,,,0,,,50,68
131920,note_off,,,,,80,0,2,,,0,,,50,64
131920,note_on,,,,,0,0,2,,,0,,,52,64
132000,note_off,,,,,80,0,2,,,0,,,52,64
132000,note_on,,,,,0,0,2,,,0,,,50,76
132080,note_off,,,,,80,0,2,,,0,,,50,64
132080,note_on,,,,,0,0,2,,,0,,,52,73
132160,note_off,,,,,80,0,2,,,0,,,52,64
132160,note_on,,,,,0,0,2,,,0,,,56,68
132240,control_change,,,,,0,0,2,,,0,64,0,,
132240,note_off,,,,,80,0,2,,,0,,,56,64
132240,note_on,,,,,0,0,2,,,0,,,52,83
132240,note_off,,,,,480,0,1,,,0,,,64,64
132240,note_on,,,,,0,0,1,,,0,,,76,79
132320,note_off,,,,,80,0,2,,,0,,,52,64
132320,note_on,,,,,0,0,2,,,0,,,56,79
132360,note_off,,,,,120,0,1,,,0,,,76,64
132400,note_off,,,,,80,0,2,,,0,,,56,64
132400,note_on,,,,,0,0,2,,,0,,,59,76
132480,note_off,,,,,80,0,2,,,0,,,59,64
132480,note_on,,,,,0,0,2,,,0,,,56,83
132560,note_on,,,,,0,0,2,,,0,,,59,79
132560,note_off,,,,,80,0,2,,,0,,,56,64
132580,set_tempo,,,,,2840,1,0,425532,,,,,,
132640,note_off,,,,,80,0,2,,,0,,,59,64
132640,note_on,,,,,0,0,2,,,0,,,62,76
132720,note_off,,,,,80,0,2,,,0,,,62,64
132720,control_change,,,,,0,0,2,,,0,64,127,,
132720,note_on,,,,,0,0,2,,,0,,,56,83
132720,note_on,,,,,360,0,1,,,0,,,64,103
132800,note_off,,,,,80,0,2,,,0,,,56,64
132800,note_on,,,,,0,0,2,,,0,,,59,79
132880,note_off,,,,,80,0,2,,,0,,,59,64
132880,note_on,,,,,0,0,2,,,0,,,62,76
132960,note_on,,,,,0,0,2,,,0,,,52,83
132960,note_off,,,,,80,0,2,,,0,,,62,64
133020,set_tempo,,,,,440,1,0,431655,,,,,,
133040,note_on,,,,,0,0,2,,,0,,,56,79
133040,note_off,,,,,80,0,2,,,0,,,52,64
133120,note_off,,,,,80,0,2,,,0,,,56,64
133120,note_on,,,,,0,0,2,,,0,,,59,76
133200,note_off,,,,,80,0,2,,,0,,,59,64
133200,control_change,,,,,0,0,2,,,0,64,0,,
133200,note_on,,,,,0,0,2,,,0,,,50,72
133200,note_off,,,,,480,0,1,,,0,,,64,64
133200,note_on,,,,,0,0,1,,,0,,,76,60
133260,set_tempo,,,,,240,1,0,437956,,,,,,
133280,note_off,,,,,80,0,2,,,0,,,50,64
133280,note_on,,,,,0,0,2,,,0,,,52,68
133320,note_off,,,,,120,0,1,,,0,,,76,64
133360,note_on,,,,,0,0,2,,,0,,,56,64
133360,note_off,,,,,80,0,2,,,0,,,52,64
133440,note_on,,,,,0,0,2,,,0,,,47,64
133440,note_off,,,,,80,0,2,,,0,,,56,64
133440,note_on,,,,,120,0,1,,,0,,,62,66
133520,note_on,,,,,0,0,2,,,0,,,50,61
133520,note_off,,,,,80,0,2,,,0,,,47,64
133560,note_off,,,,,120,0,1,,,0,,,62,64
133600,note_on,,,,,0,0,2,,,0,,,52,57
133600,note_off,,,,,80,0,2,,,0,,,50,64
133620,set_tempo,,,,,360,1,0,444444,,,,,,
133680,note_on,,,,,0,0,2,,,0,,,50,56
133680,control_change,,,,,0,0,2,,,0,64,127,,
133680,note_off,,,,,80,0,2,,,0,,,52,64
133680,note_on,,,,,120,0,1,,,0,,,64,79
133760,set_tempo,,,,,140,1,0,454545,,,,,,
133760,note_on,,,,,0,0,2,,,0,,,52,54
133760,note_off,,,,,80,0,2,,,0,,,50,64
133840,note_on,,,,,0,0,2,,,0,,,56,51
133840,note_off,,,,,80,0,2,,,0,,,52,64
133900,set_tempo,,,,,140,1,0,476190,,,,,,
133920,set_tempo,,,,,20,1,0,472441,,,,,,
133920,note_on,,,,,0,0,2,,,0,,,47,50
133920,note_off,,,,,80,0,2,,,0,,,56,64
134000,note_on,,,,,0,0,2,,,0,,,50,48
134000,note_off,,,,,80,0,2,,,0,,,47,64
134080,note_off,,,,,80,0,2,,,0,,,50,64
134080,note_on,,,,,0,0,2,,,0,,,52,45
134140,set_tempo,,,,,220,1,0,495868,,,,,,
134160,note_off,,,,,80,0,2,,,0,,,52,64
134160,note_on,,,,,0,0,1,,,0,,,76,44
134160,note_on,,,,,0,0,2,,,0,,,50,43
134160,control_change,,,,,0,0,2,,,0,64,0,,
134160,note_off,,,,,480,0,1,,,0,,,64,64
134240,note_on,,,,,0,0,2,,,0,,,52,40
134240,note_off,,,,,80,0,2,,,0,,,50,64
134280,note_off,,,,,120,0,1,,,0,,,76,64
134320,note_off,,,,,80,0,2,,,0,,,52,64
134320,note_on,,,,,0,0,2,,,0,,,56,37
134380,set_tempo,,,,,240,1,0,517241,,,,,,
134400,note_on,,,,,120,0,1,,,0,,,62,49
134400,note_off,,,,,80,0,2,,,0,,,56,64
134400,note_on,,,,,0,0,2,,,0,,,47,44
134480,note_off,,,,,80,0,2,,,0,,,47,64
134480,note_on,,,,,0,0,2,,,0,,,50,42
134520,note_off,,,,,120,0,1,,,0,,,62,64
134560,note_on,,,,,0,0,2,,,0,,,52,39
134560,note_off,,,,,80,0,2,,,0,,,50,64
134640,note_on,,,,,0,0,2,,,0,,,50,41
134640,control_change,,,,,0,0,2,,,0,64,127,,
134640,note_off,,,,,80,0,2,,,0,,,52,64
134640,note_on,,,,,120,0,1,,,0,,,64,53
134640,set_tempo,,,,,260,1,0,560748,,,,,,
134720,note_on,,,,,0,0,2,,,0,,,52,37
134720,note_off,,,,,80,0,2,,,0,,,50,64
134780,set_tempo,,,,,140,1,0,600000,,,,,,
134800,note_off,,,,,80,0,2,,,0,,,52,64
134800,note_on,,,,,0,0,2,,,0,,,56,37
134880,set_tempo,,,,,100,1,0,631579,,,,,,
134880,note_off,,,,,80,0,2,,,0,,,56,64
134880,note_on,,,,,0,0,2,,,0,,,47,36
134900,set_tempo,,,,,20,1,0,638298,,,,,,
134940,set_tempo,,,,,40,1,0,689655,,,,,,
134960,note_off,,,,,80,0,2,,,0,,,47,64
134960,set_tempo,,,,,20,1,0,697674,,,,,,
134960,note_on,,,,,0,0,2,,,0,,,50,33
135020,set_tempo,,,,,60,1,0,750000,,,,,,
135040,note_off,,,,,80,0,2,,,0,,,50,64
135040,note_on,,,,,0,0,2,,,0,,,52,32
135120,note_off,,,,,80,0,2,,,0,,,52,64
135120,control_change,,,,,0,0,2,,,0,64,0,,
135120,note_on,,,,,0,0,2,,,0,,,50,37
135120,note_off,,,,,480,0,1,,,0,,,64,64
135120,note_on,,,,,0,0,1,,,0,,,76,37
135180,set_tempo,,,,,160,1,0,800000,,,,,,
135200,note_off,,,,,80,0,2,,,0,,,50,64
135200,note_on,,,,,0,0,2,,,0,,,52,34
135240,note_off,,,,,120,0,1,,,0,,,76,64
135280,note_on,,,,,0,0,2,,,0,,,56,32
135280,note_off,,,,,80,0,2,,,0,,,52,64
135280,set_tempo,,,,,100,1,0,952381,,,,,,
135360,set_tempo,,,,,80,1,0,521739,,,,,,
135360,note_on,,,,,120,0,1,,,0,,,73,38
135360,control_change,,,,,0,0,2,,,0,64,127,,
135360,note_off,,,,,80,0,2,,,0,,,56,64
135360,note_on,,,,,0,0,2,,,0,,,45,46
135360,note_on,,,,,0,0,1,,,0,,,61,38
135370,set_tempo,,,,,10,1,0,517241,,,,,,
135440,note_on,,,,,0,0,2,,,0,,,49,44
135440,note_off,,,,,80,0,2,,,0,,,45,64
135510,note_off,,,,,0,0,1,,,0,,,73,64
135510,note_off,,,,,150,0,1,,,0,,,61,64
135520,note_on,,,,,0,0,2,,,0,,,52,40
135520,note_off,,,,,80,0,2,,,0,,,49,64
135540,control_change,,,,,20,0,2,,,0,64,0,,
135580,set_tempo,,,,,210,1,0,491803,,,,,,
135600,note_on,,,,,0,0,1,,,0,,,64,54
135600,note_on,,,,,90,0,1,,,0,,,76,54
135600,control_change,,,,,0,0,2,,,0,64,127,,
135600,note_off,,,,,60,0,2,,,0,,,52,64
135600,note_on,,,,,0,0,2,,,0,,,49,40
135680,note_on,,,,,0,0,2,,,0,,,52,38
135680,note_off,,,,,80,0,2,,,0,,,49,64
135760,note_off,,,,,80,0,2,,,0,,,52,64
135760,note_on,,,,,0,0,2,,,0,,,57,34
135840,note_off,,,,,80,0,2,,,0,,,57,64
135840,note_on,,,,,0,0,2,,,0,,,49,41
135860,set_tempo,,,,,280,1,0,476190,,,,,,
135920,note_off,,,,,80,0,2,,,0,,,49,64
135920,note_on,,,,,0,0,2,,,0,,,52,38
136000,note_on,,,,,0,0,2,,,0,,,57,35
136000,note_off,,,,,80,0,2,,,0,,,52,64
136080,control_change,,,,,0,0,2,,,0,64,0,,
136080,note_on,,,,,0,0,2,,,0,,,52,35
136080,note_off,,,,,480,0,1,,,0,,,64,64
136080,note_off,,,,,80,0,2,,,0,,,57,64
136080,note_off,,,,,0,0,1,,,0,,,76,64
136080,note_on,,,,,0,0,1,,,0,,,69,42
136080,note_on,,,,,0,0,1,,,0,,,81,42
136160,note_off,,,,,80,0,2,,,0,,,52,64
136160,note_on,,,,,0,0,2,,,0,,,57,33
136240,note_on,,,,,0,0,2,,,0,,,61,29
136240,note_off,,,,,80,0,2,,,0,,,57,64
136290,note_off,,,,,0,0,1,,,0,,,81,64
136290,note_off,,,,,210,0,1,,,0,,,69,64
136300,set_tempo,,,,,440,1,0,465116,,,,,,
136320,control_change,,,,,0,0,2,,,0,64,127,,
136320,note_on,,,,,0,0,2,,,0,,,47,41
136320,note_on,,,,,30,0,1,,,0,,,81,51
136320,note_on,,,,,0,0,1,,,0,,,69,51
136320,note_off,,,,,80,0,2,,,0,,,61,64
136398,note_off,,,,,78,0,2,,,0,,,47,64
136400,note_on,,,,,2,0,2,,,0,,,50,39
136480,note_off,,,,,80,0,2,,,0,,,50,64
136480,note_on,,,,,0,0,2,,,0,,,52,34
136560,note_off,,,,,240,0,1,,,0,,,69,64
136560,note_off,,,,,0,0,1,,,0,,,81,64
136560,note_on,,,,,0,0,1,,,0,,,80,44
136560,note_on,,,,,0,0,2,,,0,,,50,38
136560,note_off,,,,,80,0,2,,,0,,,52,64
136560,note_on,,,,,0,0,1,,,0,,,68,44
136638,note_off,,,,,78,0,2,,,0,,,50,64
136640,note_on,,,,,2,0,2,,,0,,,52,35
136660,set_tempo,,,,,360,1,0,451128,,,,,,
136680,note_off,,,,,120,0,1,,,0,,,68,64
136680,note_off,,,,,0,0,1,,,0,,,80,64
136720,note_off,,,,,80,0,2,,,0,,,52,64
136720,note_on,,,,,0,0,2,,,0,,,59,32
136740,control_change,,,,,20,0,2,,,0,64,0,,
136800,note_off,,,,,60,0,2,,,0,,,59,64
136800,control_change,,,,,0,0,2,,,0,64,127,,
136800,note_on,,,,,0,0,1,,,0,,,69,36
136800,note_on,,,,,120,0,1,,,0,,,81,36
136800,note_on,,,,,0,0,2,,,0,,,49,41
136880,note_off,,,,,80,0,2,,,0,,,49,64
136880,note_on,,,,,0,0,2,,,0,,,52,38
136960,note_on,,,,,0,0,2,,,0,,,57,35
136960,note_off,,,,,80,0,2,,,0,,,52,64
137040,note_off,,,,,80,0,2,,,0,,,57,64
137040,note_on,,,,,0,0,2,,,0,,,52,36
137100,set_tempo,,,,,440,1,0,447761,,,,,,
137118,note_off,,,,,78,0,2,,,0,,,52,64
137120,note_on,,,,,2,0,2,,,0,,,57,34
137200,note_off,,,,,80,0,2,,,0,,,57,64
137200,note_on,,,,,0,0,2,,,0,,,61,31
137220,control_change,,,,,20,0,2,,,0,64,0,,
137278,note_off,,,,,58,0,2,,,0,,,61,64
137280,note_on,,,,,0,0,2,,,0,,,50,40
137280,control_change,,,,,2,0,2,,,0,64,127,,
137280,note_on,,,,,0,0,1,,,0,,,71,50
137280,note_on,,,,,0,0,1,,,0,,,83,50
137280,note_off,,,,,0,0,1,,,0,,,81,64
137280,note_off,,,,,480,0,1,,,0,,,69,64
137358,note_off,,,,,78,0,2,,,0,,,50,64
137360,note_on,,,,,2,0,2,,,0,,,54,38
137440,note_off,,,,,80,0,2,,,0,,,54,64
137440,note_on,,,,,0,0,2,,,0,,,57,35
137520,note_on,,,,,0,0,2,,,0,,,54,42
137520,note_off,,,,,80,0,2,,,0,,,57,64
137598,note_off,,,,,78,0,2,,,0,,,54,64
137600,note_on,,,,,2,0,2,,,0,,,57,41
137640,note_on,,,,,0,0,1,,,0,,,71,42
137640,note_off,,,,,360,0,1,,,0,,,71,64
137640,control_change,,,,,40,0,2,,,0,64,0,,
137640,note_off,,,,,0,0,1,,,0,,,83,64
137640,note_on,,,,,0,0,1,,,0,,,83,42
137680,note_on,,,,,0,0,2,,,0,,,59,38
137680,note_off,,,,,40,0,2,,,0,,,57,64
137760,control_change,,,,,0,0,2,,,0,64,127,,
137760,note_on,,,,,0,0,1,,,0,,,73,46
137760,note_on,,,,,0,0,1,,,0,,,85,46
137760,note_off,,,,,0,0,1,,,0,,,83,64
137760,note_off,,,,,120,0,1,,,0,,,71,64
137760,note_off,,,,,80,0,2,,,0,,,59,64
137760,note_on,,,,,0,0,2,,,0,,,51,45
137840,note_on,,,,,0,0,2,,,0,,,54,42
137840,note_off,,,,,80,0,2,,,0,,,51,64
137920,note_on,,,,,0,0,2,,,0,,,57,38
137920,note_off,,,,,80,0,2,,,0,,,54,64
138000,note_on,,,,,0,0,2,,,0,,,54,38
138000,note_off,,,,,80,0,2,,,0,,,57,64
138000,note_off,,,,,240,0,1,,,0,,,73,64
138000,note_off,,,,,0,0,1,,,0,,,85,64
138000,note_on,,,,,0,0,1,,,0,,,81,40
138000,note_on,,,,,0,0,1,,,0,,,69,40
138078,note_off,,,,,78,0,2,,,0,,,54,64
138080,note_on,,,,,2,0,2,,,0,,,57,32
138120,control_change,,,,,40,0,2,,,0,64,0,,
138160,note_on,,,,,0,0,2,,,0,,,61,30
138160,note_off,,,,,40,0,2,,,0,,,57,64
138210,note_off,,,,,0,0,1,,,0,,,81,64
138210,note_off,,,,,210,0,1,,,0,,,69,64
138238,note_off,,,,,78,0,2,,,0,,,61,64
138240,control_change,,,,,0,0,2,,,0,64,127,,
138240,note_on,,,,,2,0,2,,,0,,,52,41
138240,note_on,,,,,30,0,1,,,0,,,81,47
138240,note_on,,,,,0,0,1,,,0,,,69,47
138318,note_off,,,,,78,0,2,,,0,,,52,64
138320,note_on,,,,,2,0,2,,,0,,,57,37
138360,set_tempo,,,,,1260,1,0,465116,,,,,,
138400,note_off,,,,,80,0,2,,,0,,,57,64
138400,control_change,,,,,0,0,2,,,0,91,96,,
138400,note_on,,,,,0,0,2,,,0,,,61,34
138440,set_tempo,,,,,80,1,0,476190,,,,,,
138480,note_on,,,,,0,0,2,,,0,,,57,35
138480,note_off,,,,,80,0,2,,,0,,,61,64
138558,note_off,,,,,78,0,2,,,0,,,57,64
138560,set_tempo,,,,,120,1,0,495868,,,,,,
138560,note_on,,,,,2,0,2,,,0,,,61,34
138640,note_on,,,,,0,0,2,,,0,,,64,31
138640,note_off,,,,,80,0,2,,,0,,,61,64
138720,note_on,,,,,0,0,1,,,0,,,80,43
138720,note_off,,,,,0,0,1,,,0,,,81,64
138720,note_off,,,,,80,0,2,,,0,,,64,64
138720,note_off,,,,,480,0,1,,,0,,,69,64
138720,note_on,,,,,0,0,2,,,0,,,52,41
138720,note_on,,,,,0,0,1,,,0,,,68,43
138780,set_tempo,,,,,220,1,0,508475,,,,,,
138800,note_on,,,,,0,0,2,,,0,,,59,38
138800,note_off,,,,,80,0,2,,,0,,,52,64
138840,note_off,,,,,120,0,1,,,0,,,68,64
138840,note_on,,,,,0,0,1,,,0,,,66,43
138840,note_on,,,,,0,0,1,,,0,,,78,43
138840,note_off,,,,,0,0,1,,,0,,,80,64
138880,note_on,,,,,0,0,2,,,0,,,62,35
138880,note_off,,,,,80,0,2,,,0,,,59,64
138960,note_on,,,,,0,0,1,,,0,,,76,40
138960,note_on,,,,,0,0,2,,,0,,,59,35
138960,note_off,,,,,80,0,2,,,0,,,62,64
138960,note_on,,,,,0,0,1,,,0,,,64,40
138960,note_off,,,,,0,0,1,,,0,,,78,64
138960,note_off,,,,,120,0,1,,,0,,,66,64
138960,set_tempo,,,,,180,1,0,545455,,,,,,
139038,note_off,,,,,78,0,2,,,0,,,59,64
139040,set_tempo,,,,,80,1,0,566038,,,,,,
139040,note_on,,,,,2,0,2,,,0,,,62,34
139080,note_on,,,,,0,0,1,,,0,,,74,36
139080,note_off,,,,,0,0,1,,,0,,,76,64
139080,note_on,,,,,0,0,1,,,0,,,62,36
139080,note_off,,,,,120,0,1,,,0,,,64,64
139120,note_on,,,,,0,0,2,,,0,,,64,31
139120,note_off,,,,,80,0,2,,,0,,,62,64
139140,set_tempo,,,,,100,1,0,600000,,,,,,
139140,control_change,,,,,20,0,2,,,0,64,0,,
139170,note_off,,,,,0,0,1,,,0,,,74,64
139170,note_off,,,,,90,0,1,,,0,,,62,64
139198,note_off,,,,,58,0,2,,,0,,,64,64
139200,note_on,,,,,0,0,1,,,0,,,61,43
139200,note_on,,,,,30,0,1,,,0,,,73,43
139200,control_change,,,,,2,0,2,,,0,64,127,,
139200,note_on,,,,,0,0,2,,,0,,,45,41
139260,set_tempo,,,,,120,1,0,566038,,,,,,
139278,note_off,,,,,78,0,2,,,0,,,45,64
139280,note_on,,,,,2,0,2,,,0,,,49,38
139350,note_off,,,,,0,0,1,,,0,,,73,64
139350,note_off,,,,,150,0,1,,,0,,,61,64
139360,note_on,,,,,0,0,2,,,0,,,52,36
139360,note_off,,,,,80,0,2,,,0,,,49,64
139380,control_change,,,,,20,0,2,,,0,64,0,,
139400,set_tempo,,,,,140,1,0,540541,,,,,,
139440,note_on,,,,,90,0,1,,,0,,,76,41
139440,note_off,,,,,60,0,2,,,0,,,52,64
139440,control_change,,,,,0,0,2,,,0,64,127,,
139440,note_on,,,,,0,0,2,,,0,,,49,37
139440,note_on,,,,,0,0,1,,,0,,,64,41
139480,set_tempo,,,,,80,1,0,526316,,,,,,
139518,note_off,,,,,78,0,2,,,0,,,49,64
139520,note_on,,,,,2,0,2,,,0,,,52,35
139600,note_on,,,,,0,0,2,,,0,,,57,33
139600,note_off,,,,,80,0,2,,,0,,,52,64
139600,set_tempo,,,,,120,1,0,508475,,,,,,
139680,note_on,,,,,0,0,2,,,0,,,49,40
139680,note_off,,,,,80,0,2,,,0,,,57,64
139720,set_tempo,,,,,120,1,0,487805,,,,,,
139758,note_off,,,,,78,0,2,,,0,,,49,64
139760,note_on,,,,,2,0,2,,,0,,,52,37
139840,note_off,,,,,80,0,2,,,0,,,52,64
139840,note_on,,,,,0,0,2,,,0,,,57,31
139920,control_change,,,,,0,0,2,,,0,64,0,,
139920,note_on,,,,,0,0,1,,,0,,,69,42
139920,note_on,,,,,0,0,1,,,0,,,81,42
139920,note_off,,,,,0,0,1,,,0,,,76,64
139920,note_off,,,,,480,0,1,,,0,,,64,64
139920,note_off,,,,,80,0,2,,,0,,,57,64
139920,note_on,,,,,0,0,2,,,0,,,52,35
139998,note_off,,,,,78,0,2,,,0,,,52,64
140000,set_tempo,,,,,280,1,0,472441,,,,,,
140000,note_on,,,,,2,0,2,,,0,,,57,33
140080,note_off,,,,,80,0,2,,,0,,,57,64
140080,note_on,,,,,0,0,2,,,0,,,61,28
140130,note_off,,,,,210,0,1,,,0,,,69,64
140130,note_off,,,,,0,0,1,,,0,,,81,64
140158,note_off,,,,,78,0,2,,,0,,,61,64
140160,note_on,,,,,0,0,1,,,0,,,69,51
140160,note_on,,,,,0,0,2,,,0,,,47,43
140160,control_change,,,,,2,0,2,,,0,64,127,,
140160,note_on,,,,,30,0,1,,,0,,,81,51
140238,note_off,,,,,78,0,2,,,0,,,47,64
140240,note_on,,,,,2,0,2,,,0,,,50,40
140320,note_on,,,,,0,0,2,,,0,,,52,37
140320,note_off,,,,,80,0,2,,,0,,,50,64
140400,note_off,,,,,80,0,2,,,0,,,52,64
140400,note_on,,,,,0,0,2,,,0,,,50,36
140400,note_on,,,,,0,0,1,,,0,,,68,44
140400,note_on,,,,,0,0,1,,,0,,,80,44
140400,note_off,,,,,0,0,1,,,0,,,81,64
140400,note_off,,,,,240,0,1,,,0,,,69,64
140478,note_off,,,,,78,0,2,,,0,,,50,64
140480,note_on,,,,,2,0,2,,,0,,,52,40
140520,note_off,,,,,120,0,1,,,0,,,68,64
140520,note_off,,,,,0,0,1,,,0,,,80,64
140560,note_on,,,,,0,0,2,,,0,,,59,45
140560,note_off,,,,,80,0,2,,,0,,,52,64
140580,control_change,,,,,20,0,2,,,0,64,0,,
140640,note_on,,,,,0,0,2,,,0,,,49,48
140640,control_change,,,,,0,0,2,,,0,64,127,,
140640,note_off,,,,,60,0,2,,,0,,,59,64
140640,note_on,,,,,0,0,1,,,0,,,69,36
140640,note_on,,,,,120,0,1,,,0,,,81,36
140720,note_on,,,,,0,0,2,,,0,,,52,42
140720,note_off,,,,,80,0,2,,,0,,,49,64
140800,note_off,,,,,80,0,2,,,0,,,52,64
140800,note_on,,,,,0,0,2,,,0,,,57,37
140880,note_on,,,,,0,0,2,,,0,,,52,40
140880,note_off,,,,,80,0,2,,,0,,,57,64
140920,set_tempo,,,,,920,1,0,500000,,,,,,
140958,note_off,,,,,78,0,2,,,0,,,52,64
140960,note_on,,,,,2,0,2,,,0,,,57,33
141040,note_on,,,,,0,0,2,,,0,,,61,28
141040,note_off,,,,,80,0,2,,,0,,,57,64
141040,set_tempo,,,,,120,1,0,517241,,,,,,
141060,control_change,,,,,20,0,2,,,0,64,0,,
141118,note_off,,,,,58,0,2,,,0,,,61,64
141120,note_off,,,,,0,0,1,,,0,,,81,64
141120,note_on,,,,,0,0,1,,,0,,,71,40
141120,note_on,,,,,0,0,1,,,0,,,83,40
141120,note_off,,,,,480,0,1,,,0,,,69,64
141120,note_on,,,,,0,0,2,,,0,,,50,39
141120,control_change,,,,,2,0,2,,,0,64,127,,
141198,note_off,,,,,78,0,2,,,0,,,50,64
141200,note_on,,,,,2,0,2,,,0,,,54,36
141220,set_tempo,,,,,180,1,0,487805,,,,,,
141280,note_on,,,,,0,0,2,,,0,,,57,33
141280,note_off,,,,,80,0,2,,,0,,,54,64
141360,note_on,,,,,0,0,2,,,0,,,52,38
141360,note_off,,,,,80,0,2,,,0,,,57,64
141360,note_off,,,,,240,0,1,,,0,,,71,64
141360,set_tempo,,,,,140,1,0,480000,,,,,,
141360,note_on,,,,,0,0,1,,,0,,,73,41
141360,note_on,,,,,0,0,1,,,0,,,85,41
141360,note_off,,,,,0,0,1,,,0,,,83,64
141438,note_off,,,,,78,0,2,,,0,,,52,64
141440,note_on,,,,,2,0,2,,,0,,,57,34
141440,set_tempo,,,,,80,1,0,458015,,,,,,
141480,note_on,,,,,0,0,1,,,0,,,86,34
141480,note_off,,,,,0,0,1,,,0,,,85,64
141480,note_off,,,,,120,0,1,,,0,,,73,64
141480,note_on,,,,,0,0,1,,,0,,,74,34
141480,control_change,,,,,40,0,2,,,0,64,0,,
141520,note_off,,,,,40,0,2,,,0,,,57,64
141520,note_on,,,,,0,0,2,,,0,,,54,32
141600,control_change,,,,,0,0,2,,,0,64,127,,
141600,note_on,,,,,0,0,1,,,0,,,73,37
141600,note_on,,,,,0,0,1,,,0,,,85,37
141600,note_off,,,,,0,0,1,,,0,,,86,64
141600,note_off,,,,,120,0,1,,,0,,,74,64
141600,note_off,,,,,80,0,2,,,0,,,54,64
141600,note_on,,,,,0,0,2,,,0,,,52,43
141680,note_off,,,,,80,0,2,,,0,,,52,64
141680,note_on,,,,,0,0,2,,,0,,,57,30
141700,set_tempo,,,,,260,1,0,441176,,,,,,
141760,note_on,,,,,0,0,2,,,0,,,61,33
141760,note_off,,,,,80,0,2,,,0,,,57,64
141810,note_off,,,,,210,0,1,,,0,,,73,64
141810,note_off,,,,,0,0,1,,,0,,,85,64
141840,note_on,,,,,0,0,2,,,0,,,52,36
141840,note_on,,,,,30,0,1,,,0,,,83,45
141840,note_off,,,,,80,0,2,,,0,,,61,64
141840,note_on,,,,,0,0,1,,,0,,,71,45
141918,note_off,,,,,78,0,2,,,0,,,52,64
141920,note_on,,,,,2,0,2,,,0,,,59,39
141960,control_change,,,,,40,0,2,,,0,64,0,,
142000,note_on,,,,,0,0,2,,,0,,,62,42
142000,note_off,,,,,40,0,2,,,0,,,59,64
142020,set_tempo,,,,,320,1,0,447761,,,,,,
142050,note_off,,,,,0,0,1,,,0,,,83,64
142050,note_off,,,,,210,0,1,,,0,,,71,64
142078,note_off,,,,,78,0,2,,,0,,,62,64
142080,control_change,,,,,0,0,2,,,0,64,127,,
142080,note_on,,,,,0,0,1,,,0,,,71,56
142080,note_on,,,,,30,0,1,,,0,,,83,56
142080,note_on,,,,,2,0,2,,,0,,,45,45
142100,set_tempo,,,,,80,1,0,461538,,,,,,
142158,note_off,,,,,78,0,2,,,0,,,45,64
142160,set_tempo,,,,,60,1,0,491803,,,,,,
142160,note_on,,,,,2,0,2,,,0,,,52,41
142240,control_change,,,,,0,0,2,,,0,91,96,,
142240,note_on,,,,,0,0,2,,,0,,,56,37
142240,note_off,,,,,80,0,2,,,0,,,52,64
142280,set_tempo,,,,,120,1,0,521739,,,,,,
142300,set_tempo,,,,,20,1,0,508475,,,,,,
142320,note_off,,,,,80,0,2,,,0,,,56,64
142320,note_on,,,,,0,0,2,,,0,,,52,40
142398,note_off,,,,,78,0,2,,,0,,,52,64
142400,note_on,,,,,2,0,2,,,0,,,56,36
142400,set_tempo,,,,,100,1,0,530973,,,,,,
142480,note_on,,,,,0,0,2,,,0,,,62,33
142480,note_off,,,,,80,0,2,,,0,,,56,64
142500,control_change,,,,,20,0,2,,,0,64,0,,
142520,set_tempo,,,,,120,1,0,550459,,,,,,
142560,note_off,,,,,0,0,1,,,0,,,83,64
142560,note_on,,,,,0,0,1,,,0,,,81,40
142560,note_on,,,,,0,0,1,,,0,,,69,40
142560,note_off,,,,,480,0,1,,,0,,,71,64
142560,note_on,,,,,0,0,2,,,0,,,61,30
142560,note_on,,,,,0,0,2,,,0,,,57,30
142560,control_change,,,,,0,0,2,,,0,64,127,,
142560,note_off,,,,,60,0,2,,,0,,,62,64
142650,note_off,,,,,0,0,2,,,0,,,57,64
142650,note_off,,,,,90,0,2,,,0,,,61,64
142650,note_off,,,,,90,0,1,,,0,,,69,64
142650,note_off,,,,,0,0,1,,,0,,,81,64
142680,note_on,,,,,30,0,2,,,0,,,59,38
142770,note_off,,,,,90,0,2,,,0,,,59,64
142780,set_tempo,,,,,260,1,0,521739,,,,,,
142800,note_on,,,,,30,0,2,,,0,,,61,46
142840,set_tempo,,,,,60,1,0,491803,,,,,,
142890,note_off,,,,,90,0,2,,,0,,,61,64
142920,note_on,,,,,30,0,2,,,0,,,62,55
142980,control_change,,,,,60,0,2,,,0,64,0,,
142980,set_tempo,,,,,140,1,0,468750,,,,,,
143010,note_off,,,,,30,0,2,,,0,,,62,64
143040,note_on,,,,,390,0,1,,,0,,,69,42
143040,note_on,,,,,0,0,2,,,0,,,61,49
143040,note_on,,,,,30,0,2,,,0,,,64,62
143040,set_tempo,,,,,60,1,0,447761,,,,,,
143130,note_off,,,,,90,0,1,,,0,,,69,64
143160,note_on,,,,,30,0,1,,,0,,,71,31
143250,note_off,,,,,90,0,1,,,0,,,71,64
143280,note_on,,,,,30,0,1,,,0,,,73,38
143370,note_off,,,,,90,0,1,,,0,,,73,64
143400,note_on,,,,,30,0,1,,,0,,,74,47
143400,note_on,,,,,0,0,2,,,0,,,64,54
143400,note_off,,,,,360,0,2,,,0,,,64,64
143460,set_tempo,,,,,420,1,0,441176,,,,,,
143490,note_off,,,,,90,0,1,,,0,,,74,64
143520,note_on,,,,,0,0,2,,,0,,,66,77
143520,control_change,,,,,0,0,2,,,0,64,127,,
143520,note_on,,,,,0,0,2,,,0,,,58,57
143520,note_on,,,,,30,0,1,,,0,,,76,54
143520,note_off,,,,,0,0,2,,,0,,,61,64
143520,note_off,,,,,120,0,2,,,0,,,64,64
143600,note_off,,,,,80,0,1,,,0,,,76,64
143600,note_on,,,,,0,0,1,,,0,,,75,46
143680,note_on,,,,,0,0,1,,,0,,,76,43
143680,note_off,,,,,80,0,1,,,0,,,75,64
143760,note_on,,,,,0,0,1,,,0,,,78,43
143760,note_off,,,,,80,0,1,,,0,,,76,64
143800,set_tempo,,,,,340,1,0,437956,,,,,,
143840,note_on,,,,,0,0,1,,,0,,,85,47
143840,note_off,,,,,80,0,1,,,0,,,78,64
143920,note_off,,,,,80,0,1,,,0,,,85,64
143920,note_on,,,,,0,0,1,,,0,,,77,56
143940,control_change,,,,,420,0,2,,,0,64,0,,
144000,note_off,,,,,0,0,2,,,0,,,58,64
144000,note_off,,,,,80,0,1,,,0,,,77,64
144000,note_on,,,,,0,0,2,,,0,,,64,65
144000,note_off,,,,,60,0,2,,,0,,,66,64
144000,note_on,,,,,0,0,2,,,0,,,59,42
144000,note_on,,,,,0,0,1,,,0,,,78,62
144080,note_off,,,,,80,0,1,,,0,,,78,64
144080,note_on,,,,,0,0,1,,,0,,,77,60
144160,note_off,,,,,80,0,1,,,0,,,77,64
144160,note_on,,,,,0,0,1,,,0,,,78,56
144240,note_off,,,,,80,0,1,,,0,,,78,64
144240,note_on,,,,,0,0,2,,,0,,,63,47
144240,note_off,,,,,240,0,2,,,0,,,64,64
144240,note_on,,,,,0,0,1,,,0,,,79,53
144320,set_tempo,,,,,520,1,0,447761,,,,,,
144320,note_off,,,,,80,0,1,,,0,,,79,64
144320,note_on,,,,,0,0,1,,,0,,,80,46
144360,note_off,,,,,0,0,2,,,0,,,59,64
144360,note_off,,,,,120,0,2,,,0,,,63,64
144400,note_off,,,,,80,0,1,,,0,,,80,64
144400,note_on,,,,,0,0,1,,,0,,,82,39
144480,note_on,,,,,0,0,1,,,0,,,83,35
144480,note_off,,,,,80,0,1,,,0,,,82,64
144480,note_on,,,,,120,0,2,,,0,,,59,47
144560,note_off,,,,,80,0,1,,,0,,,83,64
144840,note_on,,,,,0,0,2,,,0,,,61,42
144840,note_off,,,,,360,0,2,,,0,,,59,64
144960,note_on,,,,,0,0,2,,,0,,,62,60
144960,note_off,,,,,120,0,2,,,0,,,61,64
145080,note_on,,,,,120,0,2,,,0,,,54,49
145080,note_on,,,,,520,0,1,,,0,,,74,53
145200,note_off,,,,,120,0,1,,,0,,,74,64
145200,note_on,,,,,0,0,2,,,0,,,56,45
145200,note_off,,,,,120,0,2,,,0,,,54,64
145200,note_on,,,,,0,0,1,,,0,,,76,46
145320,note_on,,,,,0,0,2,,,0,,,57,40
145320,note_off,,,,,120,0,2,,,0,,,56,64
145320,note_on,,,,,0,0,1,,,0,,,78,43
145320,note_off,,,,,120,0,1,,,0,,,76,64
145440,note_off,,,,,0,0,2,,,0,,,62,64
145440,note_off,,,,,120,0,1,,,0,,,78,64
145440,note_off,,,,,120,0,2,,,0,,,57,64
145440,control_change,,,,,0,0,2,,,0,64,127,,
145440,note_on,,,,,0,0,2,,,0,,,56,57
145440,note_on,,,,,0,0,2,,,0,,,64,57
145440,note_on,,,,,0,0,1,,,0,,,76,35
145480,set_tempo,,,,,1160,1,0,431655,,,,,,
145520,note_on,,,,,0,0,1,,,0,,,80,40
145520,note_off,,,,,80,0,1,,,0,,,76,64
145600,note_on,,,,,0,0,1,,,0,,,81,42
145600,note_off,,,,,80,0,1,,,0,,,80,64
145680,note_on,,,,,0,0,1,,,0,,,83,44
145680,note_off,,,,,80,0,1,,,0,,,81,64
145760,note_on,,,,,0,0,1,,,0,,,80,47
145760,note_off,,,,,80,0,1,,,0,,,83,64
145780,set_tempo,,,,,300,1,0,419580,,,,,,
145840,note_off,,,,,80,0,1,,,0,,,80,64
145840,note_on,,,,,0,0,1,,,0,,,74,50
145860,control_change,,,,,420,0,2,,,0,64,0,,
145920,note_off,,,,,80,0,1,,,0,,,74,64
145920,note_on,,,,,0,0,2,,,0,,,57,49
145920,note_off,,,,,0,0,2,,,0,,,64,64
145920,note_off,,,,,60,0,2,,,0,,,56,64
145920,note_on,,,,,0,0,1,,,0,,,73,54
146000,note_on,,,,,0,0,1,,,0,,,71,53
146000,note_off,,,,,80,0,1,,,0,,,73,64
146060,set_tempo,,,,,280,1,0,434783,,,,,,
146080,note_off,,,,,80,0,1,,,0,,,71,64
146080,note_on,,,,,0,0,1,,,0,,,73,51
146160,note_on,,,,,0,0,1,,,0,,,74,47
146160,note_off,,,,,80,0,1,,,0,,,73,64
146220,set_tempo,,,,,160,1,0,454545,,,,,,
146240,note_on,,,,,0,0,1,,,0,,,73,44
146240,note_off,,,,,80,0,1,,,0,,,74,64
146280,note_on,,,,,360,0,2,,,0,,,59,49
146320,note_on,,,,,0,0,1,,,0,,,74,41
146320,note_off,,,,,80,0,1,,,0,,,73,64
146400,note_off,,,,,120,0,2,,,0,,,59,64
146400,note_on,,,,,0,0,2,,,0,,,61,49
146400,note_off,,,,,80,0,1,,,0,,,74,64
146400,note_on,,,,,0,0,1,,,0,,,76,40
146420,set_tempo,,,,,200,1,0,476190,,,,,,
146480,note_off,,,,,80,0,1,,,0,,,76,64
146480,note_on,,,,,0,0,1,,,0,,,78,40
146560,note_on,,,,,0,0,1,,,0,,,80,40
146560,note_off,,,,,80,0,1,,,0,,,78,64
146640,note_on,,,,,0,0,1,,,0,,,81,43
146640,set_tempo,,,,,220,1,0,491803,,,,,,
146640,note_off,,,,,80,0,1,,,0,,,80,64
146720,note_on,,,,,0,0,1,,,0,,,76,46
146720,note_off,,,,,80,0,1,,,0,,,81,64
146800,note_on,,,,,0,0,1,,,0,,,73,50
146800,note_off,,,,,80,0,1,,,0,,,76,64
146820,note_off,,,,,0,0,2,,,0,,,57,64
146820,set_tempo,,,,,180,1,0,504202,,,,,,
146820,note_off,,,,,420,0,2,,,0,,,61,64
146860,note_off,,,,,60,0,1,,,0,,,73,64
146880,note_on,,,,,20,0,1,,,0,,,78,54
146880,control_change,,,,,0,0,2,,,0,64,127,,
146880,note_on,,,,,60,0,2,,,0,,,50,56
146880,note_on,,,,,0,0,2,,,0,,,59,56
146920,set_tempo,,,,,100,1,0,487805,,,,,,
146960,note_off,,,,,80,0,1,,,0,,,78,64
146960,note_on,,,,,0,0,1,,,0,,,71,45
147040,note_off,,,,,80,0,1,,,0,,,71,64
147040,note_on,,,,,0,0,1,,,0,,,78,43
147060,control_change,,,,,180,0,2,,,0,64,0,,
147082,note_off,,,,,22,0,2,,,0,,,59,64
147120,note_on,,,,,0,0,1,,,0,,,81,57
147120,note_off,,,,,80,0,1,,,0,,,78,64
147120,control_change,,,,,0,0,2,,,0,64,127,,
147120,set_tempo,,,,,200,1,0,461538,,,,,,
147120,note_on,,,,,38,0,2,,,0,,,59,50
147200,note_off,,,,,80,0,1,,,0,,,81,64
147200,note_on,,,,,0,0,1,,,0,,,71,55
147280,note_off,,,,,80,0,1,,,0,,,71,64
147280,note_on,,,,,0,0,1,,,0,,,81,49
147280,set_tempo,,,,,160,1,0,447761,,,,,,
147300,control_change,,,,,0,0,2,,,0,64,0,,
147300,note_off,,,,,180,0,2,,,0,,,59,64
147360,note_off,,,,,60,0,2,,,0,,,50,64
147360,note_on,,,,,0,0,2,,,0,,,52,59
147360,note_on,,,,,0,0,2,,,0,,,59,59
147360,control_change,,,,,0,0,2,,,0,64,127,,
147360,note_off,,,,,80,0,1,,,0,,,81,64
147360,note_on,,,,,0,0,1,,,0,,,80,60
147440,note_on,,,,,0,0,1,,,0,,,71,57
147440,note_off,,,,,80,0,1,,,0,,,80,64
147520,note_off,,,,,80,0,1,,,0,,,71,64
147520,set_tempo,,,,,240,1,0,431655,,,,,,
147520,note_on,,,,,0,0,1,,,0,,,80,51
147540,note_off,,,,,180,0,2,,,0,,,59,64
147600,note_on,,,,,60,0,2,,,0,,,62,52
147600,note_on,,,,,0,0,1,,,0,,,83,66
147600,note_off,,,,,80,0,1,,,0,,,80,64
147680,note_off,,,,,80,0,1,,,0,,,83,64
147680,note_on,,,,,0,0,1,,,0,,,80,57
147760,note_off,,,,,80,0,1,,,0,,,80,64
147760,note_on,,,,,0,0,2,,,0,,,61,62
147760,note_on,,,,,0,0,1,,,0,,,83,49
147760,note_off,,,,,160,0,2,,,0,,,62,64
147780,control_change,,,,,20,0,2,,,0,64,0,,
147840,note_on,,,,,0,0,1,,,0,,,81,67
147840,note_off,,,,,80,0,1,,,0,,,83,64
147840,note_off,,,,,60,0,2,,,0,,,61,64
147840,note_on,,,,,0,0,2,,,0,,,57,66
147840,note_on,,,,,0,0,2,,,0,,,61,66
147840,control_change,,,,,0,0,2,,,0,64,127,,
147840,note_off,,,,,0,0,2,,,0,,,52,64
147920,note_off,,,,,80,0,1,,,0,,,81,64
147920,note_on,,,,,0,0,1,,,0,,,83,49
148000,note_on,,,,,0,0,1,,,0,,,80,55
148000,note_off,,,,,80,0,1,,,0,,,83,64
148080,note_on,,,,,0,0,1,,,0,,,81,58
148080,note_off,,,,,80,0,1,,,0,,,80,64
148120,set_tempo,,,,,600,1,0,444444,,,,,,
148160,note_on,,,,,0,0,1,,,0,,,83,61
148160,note_off,,,,,80,0,1,,,0,,,81,64
148240,note_on,,,,,0,0,1,,,0,,,84,65
148240,note_off,,,,,80,0,1,,,0,,,83,64
148260,control_change,,,,,0,0,2,,,0,64,0,,
148260,note_off,,,,,0,0,2,,,0,,,61,64
148260,note_off,,,,,420,0,2,,,0,,,57,64
148320,note_off,,,,,80,0,1,,,0,,,84,64
148320,note_on,,,,,60,0,2,,,0,,,64,80
148320,note_on,,,,,0,0,1,,,0,,,85,67
148320,control_change,,,,,0,0,2,,,0,64,127,,
148340,set_tempo,,,,,220,1,0,458015,,,,,,
148400,note_off,,,,,80,0,1,,,0,,,85,64
148400,note_on,,,,,0,0,1,,,0,,,86,71
148480,note_on,,,,,0,0,1,,,0,,,88,75
148480,note_off,,,,,80,0,1,,,0,,,86,64
148560,note_off,,,,,80,0,1,,,0,,,88,64
148560,note_on,,,,,0,0,1,,,0,,,90,80
148640,note_on,,,,,0,0,1,,,0,,,92,83
148640,note_on,,,,,0,0,2,,,0,,,62,59
148640,note_off,,,,,320,0,2,,,0,,,64,64
148640,note_off,,,,,80,0,1,,,0,,,90,64
148680,set_tempo,,,,,340,1,0,487805,,,,,,
148680,control_change,,,,,40,0,2,,,0,64,0,,
148720,note_on,,,,,0,0,1,,,0,,,93,86
148720,note_off,,,,,80,0,1,,,0,,,92,64
148720,note_on,,,,,0,0,2,,,0,,,61,55
148720,note_off,,,,,40,0,2,,,0,,,62,64
148800,control_change,,,,,0,0,2,,,0,64,127,,
148800,note_on,,,,,0,0,2,,,0,,,59,66
148800,note_on,,,,,0,0,2,,,0,,,50,66
148800,note_on,,,,,0,0,1,,,0,,,78,64
148800,note_off,,,,,80,0,1,,,0,,,93,64
148800,note_off,,,,,80,0,2,,,0,,,61,64
148880,note_on,,,,,0,0,1,,,0,,,71,44
148880,note_off,,,,,80,0,1,,,0,,,78,64
148900,set_tempo,,,,,220,1,0,454545,,,,,,
148960,note_on,,,,,0,0,1,,,0,,,78,39
148960,note_off,,,,,80,0,1,,,0,,,71,64
148980,control_change,,,,,180,0,2,,,0,64,0,,
149002,note_off,,,,,22,0,2,,,0,,,59,64
149040,control_change,,,,,0,0,2,,,0,64,127,,
149040,note_on,,,,,0,0,2,,,0,,,59,53
149040,note_on,,,,,0,0,1,,,0,,,81,57
149040,note_off,,,,,38,0,2,,,0,,,50,64
149040,note_off,,,,,80,0,1,,,0,,,78,64
149040,note_on,,,,,0,0,2,,,0,,,51,53
149040,set_tempo,,,,,140,1,0,441176,,,,,,
149120,note_off,,,,,80,0,1,,,0,,,81,64
149120,note_on,,,,,0,0,1,,,0,,,71,52
149200,note_off,,,,,80,0,1,,,0,,,71,64
149200,note_on,,,,,0,0,1,,,0,,,81,49
149220,control_change,,,,,0,0,2,,,0,64,0,,
149220,note_off,,,,,180,0,2,,,0,,,59,64
149220,set_tempo,,,,,180,1,0,454545,,,,,,
149280,note_on,,,,,0,0,1,,,0,,,80,60
149280,control_change,,,,,0,0,2,,,0,64,127,,
149280,note_on,,,,,0,0,2,,,0,,,59,57
149280,note_on,,,,,0,0,2,,,0,,,52,57
149280,note_off,,,,,60,0,2,,,0,,,51,64
149280,note_off,,,,,80,0,1,,,0,,,81,64
149360,note_off,,,,,80,0,1,,,0,,,80,64
149360,note_on,,,,,0,0,1,,,0,,,71,55
149440,note_on,,,,,0,0,1,,,0,,,80,50
149440,note_off,,,,,80,0,1,,,0,,,71,64
149460,note_off,,,,,180,0,2,,,0,,,59,64
149520,note_on,,,,,0,0,1,,,0,,,83,63
149520,note_off,,,,,80,0,1,,,0,,,80,64
149520,note_on,,,,,60,0,2,,,0,,,62,49
149600,note_on,,,,,0,0,1,,,0,,,80,58
149600,note_off,,,,,80,0,1,,,0,,,83,64
149680,note_on,,,,,0,0,2,,,0,,,61,47
149680,note_off,,,,,80,0,1,,,0,,,80,64
149680,note_off,,,,,160,0,2,,,0,,,62,64
149680,note_on,,,,,0,0,1,,,0,,,88,54
149700,control_change,,,,,20,0,2,,,0,64,0,,
149760,note_on,,,,,0,0,1,,,0,,,85,68
149760,note_off,,,,,0,0,2,,,0,,,52,64
149760,note_off,,,,,60,0,2,,,0,,,61,64
149760,note_off,,,,,80,0,1,,,0,,,88,64
149760,note_on,,,,,0,0,2,,,0,,,57,49
149760,note_on,,,,,0,0,2,,,0,,,45,49
149760,control_change,,,,,0,0,2,,,0,64,127,,
149820,set_tempo,,,,,600,1,0,465116,,,,,,
149840,note_off,,,,,80,0,1,,,0,,,85,64
149840,note_on,,,,,0,0,1,,,0,,,81,57
149920,note_on,,,,,0,0,1,,,0,,,76,49
149920,note_off,,,,,80,0,1,,,0,,,81,64
150000,set_tempo,,,,,180,1,0,483871,,,,,,
150000,note_on,,,,,0,0,1,,,0,,,73,41
150000,note_off,,,,,80,0,1,,,0,,,76,64
150080,note_off,,,,,80,0,1,,,0,,,73,64
150080,note_on,,,,,0,0,1,,,0,,,74,39
150140,set_tempo,,,,,140,1,0,508475,,,,,,
150160,note_off,,,,,80,0,1,,,0,,,74,64
150160,note_on,,,,,0,0,1,,,0,,,71,35
150240,set_tempo,,,,,100,1,0,535714,,,,,,
150240,note_off,,,,,80,0,1,,,0,,,71,64
150240,note_on,,,,,0,0,1,,,0,,,69,31
150270,control_change,,,,,510,0,2,,,0,64,0,,
150300,note_off,,,,,30,0,2,,,0,,,57,64
150300,note_off,,,,,0,0,2,,,0,,,45,64
150360,note_on,,,,,60,0,2,,,0,,,44,44
150360,note_off,,,,,120,0,1,,,0,,,69,64
150400,set_tempo,,,,,160,1,0,560748,,,,,,
150450,note_off,,,,,90,0,2,,,0,,,44,64
150480,note_on,,,,,30,0,2,,,0,,,45,51
150560,set_tempo,,,,,160,1,0,606061,,,,,,
150570,note_off,,,,,90,0,2,,,0,,,45,64
150600,note_on,,,,,30,0,2,,,0,,,47,59
150620,set_tempo,,,,,60,1,0,666667,,,,,,
150690,note_off,,,,,90,0,2,,,0,,,47,64
150700,set_tempo,,,,,80,1,0,750000,,,,,,
150720,note_on,,,,,0,0,2,,,0,,,48,52
150720,control_change,,,,,30,0,2,,,0,64,127,,
150720,note_on,,,,,360,0,1,,,0,,,84,62
150720,note_on,,,,,0,0,2,,,0,,,45,42
150800,set_tempo,,,,,100,1,0,666667,,,,,,
150800,note_off,,,,,80,0,1,,,0,,,84,64
150800,note_on,,,,,0,0,1,,,0,,,86,55
150860,set_tempo,,,,,60,1,0,618557,,,,,,
150870,note_off,,,,,150,0,2,,,0,,,48,64
150880,note_on,,,,,0,0,1,,,0,,,88,51
150880,note_off,,,,,80,0,1,,,0,,,86,64
150900,control_change,,,,,30,0,2,,,0,64,0,,
150960,note_on,,,,,0,0,1,,,0,,,86,47
150960,control_change,,,,,60,0,2,,,0,64,127,,
150960,note_on,,,,,0,0,2,,,0,,,52,64
150960,note_off,,,,,80,0,1,,,0,,,88,64
151020,set_tempo,,,,,160,1,0,560748,,,,,,
151040,note_off,,,,,80,0,1,,,0,,,86,64
151040,note_on,,,,,0,0,1,,,0,,,84,45
151120,set_tempo,,,,,100,1,0,530973,,,,,,
151120,note_on,,,,,0,0,1,,,0,,,83,49
151120,note_off,,,,,80,0,1,,,0,,,84,64
151200,note_on,,,,,0,0,1,,,0,,,81,53
151200,note_off,,,,,80,0,1,,,0,,,83,64
151200,note_on,,,,,0,0,2,,,0,,,48,37
151200,note_off,,,,,240,0,2,,,0,,,45,64
151260,set_tempo,,,,,140,1,0,495868,,,,,,
151280,note_on,,,,,0,0,1,,,0,,,83,51
151280,note_off,,,,,80,0,1,,,0,,,81,64
151360,note_on,,,,,0,0,1,,,0,,,84,46
151360,note_off,,,,,80,0,1,,,0,,,83,64
151420,set_tempo,,,,,160,1,0,476190,,,,,,
151440,note_on,,,,,0,0,2,,,0,,,57,54
151440,control_change,,,,,0,0,2,,,0,64,0,,
151440,note_off,,,,,80,0,1,,,0,,,84,64
151440,note_on,,,,,0,0,1,,,0,,,81,45
151440,note_off,,,,,240,0,2,,,0,,,52,64
151520,set_tempo,,,,,100,1,0,465116,,,,,,
151520,note_on,,,,,0,0,1,,,0,,,79,44
151520,note_off,,,,,80,0,1,,,0,,,81,64
151600,note_on,,,,,0,0,1,,,0,,,77,44
151600,note_off,,,,,80,0,1,,,0,,,79,64
151620,set_tempo,,,,,100,1,0,447761,,,,,,
151650,note_off,,,,,210,0,2,,,0,,,57,64
151680,note_on,,,,,0,0,2,,,0,,,47,46
151680,note_on,,,,,0,0,2,,,0,,,57,56
151680,note_off,,,,,30,0,2,,,0,,,48,64
151680,control_change,,,,,0,0,2,,,0,64,127,,
151680,note_on,,,,,0,0,1,,,0,,,76,52
151680,note_off,,,,,80,0,1,,,0,,,77,64
151760,note_off,,,,,80,0,1,,,0,,,76,64
151760,note_on,,,,,0,0,1,,,0,,,75,49
151840,note_on,,,,,0,0,1,,,0,,,76,46
151840,note_off,,,,,80,0,1,,,0,,,75,64
151920,note_on,,,,,0,0,2,,,0,,,56,50
151920,note_off,,,,,240,0,2,,,0,,,57,64
151920,note_off,,,,,80,0,1,,,0,,,76,64
151920,note_on,,,,,0,0,1,,,0,,,77,43
152000,note_off,,,,,80,0,1,,,0,,,77,64
152000,note_on,,,,,0,0,1,,,0,,,76,47
152040,note_off,,,,,120,0,2,,,0,,,56,64
152080,note_off,,,,,80,0,1,,,0,,,76,64
152080,note_on,,,,,0,0,1,,,0,,,74,50
152100,control_change,,,,,60,0,2,,,0,64,0,,
152160,note_on,,,,,0,0,2,,,0,,,48,37
152160,note_off,,,,,60,0,2,,,0,,,47,64
152160,note_on,,,,,0,0,2,,,0,,,57,47
152160,note_on,,,,,0,0,1,,,0,,,72,53
152160,note_off,,,,,80,0,1,,,0,,,74,64
152160,control_change,,,,,0,0,2,,,0,64,127,,
152240,note_off,,,,,80,0,1,,,0,,,72,64
152240,note_on,,,,,0,0,1,,,0,,,71,51
152320,note_off,,,,,80,0,1,,,0,,,71,64
152320,note_on,,,,,0,0,1,,,0,,,69,48
152320,set_tempo,,,,,700,1,0,441176,,,,,,
152400,note_off,,,,,80,0,1,,,0,,,69,64
152400,note_on,,,,,0,0,1,,,0,,,68,44
152480,note_on,,,,,0,0,1,,,0,,,71,41
152480,note_off,,,,,80,0,1,,,0,,,68,64
152560,note_on,,,,,0,0,1,,,0,,,69,39
152560,note_off,,,,,80,0,1,,,0,,,71,64
152580,control_change,,,,,420,0,2,,,0,64,0,,
152620,note_off,,,,,60,0,1,,,0,,,69,64
152640,control_change,,,,,0,0,2,,,0,64,127,,
152640,note_on,,,,,0,0,2,,,0,,,59,58
152640,note_on,,,,,0,0,2,,,0,,,50,48
152640,note_off,,,,,0,0,2,,,0,,,48,64
152640,note_off,,,,,60,0,2,,,0,,,57,64
152640,note_on,,,,,20,0,1,,,0,,,65,56
152700,note_off,,,,,60,0,1,,,0,,,65,64
152720,note_on,,,,,20,0,1,,,0,,,69,51
152800,note_off,,,,,80,0,1,,,0,,,69,64
152800,note_on,,,,,0,0,1,,,0,,,81,48
152880,note_on,,,,,0,0,1,,,0,,,69,45
152880,note_off,,,,,80,0,1,,,0,,,81,64
152960,note_on,,,,,0,0,1,,,0,,,81,41
152960,note_off,,,,,80,0,1,,,0,,,69,64
152980,set_tempo,,,,,660,1,0,451128,,,,,,
153000,control_change,,,,,0,0,2,,,0,64,0,,
153000,note_on,,,,,0,0,2,,,0,,,59,48
153000,note_off,,,,,360,0,2,,,0,,,59,64
153040,note_on,,,,,0,0,1,,,0,,,69,37
153040,note_off,,,,,80,0,1,,,0,,,81,64
153100,note_off,,,,,60,0,1,,,0,,,69,64
153120,note_off,,,,,0,0,2,,,0,,,50,64
153120,note_on,,,,,0,0,2,,,0,,,51,60
153120,note_off,,,,,120,0,2,,,0,,,59,64
153120,control_change,,,,,0,0,2,,,0,64,127,,
153120,note_on,,,,,20,0,1,,,0,,,66,63
153120,note_on,,,,,0,0,2,,,0,,,60,60
153180,note_off,,,,,60,0,1,,,0,,,66,64
153200,note_on,,,,,20,0,1,,,0,,,69,59
153280,note_on,,,,,0,0,1,,,0,,,81,55
153280,note_off,,,,,80,0,1,,,0,,,69,64
153340,note_off,,,,,60,0,1,,,0,,,81,64
153360,note_off,,,,,240,0,2,,,0,,,60,64
153360,note_on,,,,,20,0,1,,,0,,,69,58
153360,note_on,,,,,0,0,2,,,0,,,57,45
153420,note_off,,,,,60,0,1,,,0,,,69,64
153440,note_on,,,,,20,0,1,,,0,,,72,53
153480,control_change,,,,,120,0,2,,,0,64,0,,
153520,note_on,,,,,0,0,1,,,0,,,84,46
153520,note_off,,,,,80,0,1,,,0,,,72,64
153540,set_tempo,,,,,560,1,0,465116,,,,,,
153570,note_off,,,,,90,0,2,,,0,,,57,64
153580,note_off,,,,,60,0,1,,,0,,,84,64
153600,note_on,,,,,0,0,2,,,0,,,52,48
153600,note_on,,,,,0,0,2,,,0,,,57,58
153600,control_change,,,,,0,0,2,,,0,64,127,,
153600,note_on,,,,,20,0,1,,,0,,,72,54
153600,note_off,,,,,30,0,2,,,0,,,51,64
153680,note_off,,,,,80,0,1,,,0,,,72,64
153680,note_on,,,,,0,0,1,,,0,,,76,43
153700,set_tempo,,,,,160,1,0,483871,,,,,,
153760,note_on,,,,,0,0,1,,,0,,,80,38
153760,note_off,,,,,80,0,1,,,0,,,76,64
153760,control_change,,,,,160,0,2,,,0,91,96,,
153840,note_on,,,,,0,0,1,,,0,,,81,34
153840,note_off,,,,,80,0,1,,,0,,,80,64
153880,set_tempo,,,,,180,1,0,504202,,,,,,
153920,note_off,,,,,80,0,1,,,0,,,81,64
153920,note_on,,,,,0,0,1,,,0,,,83,39
154000,note_on,,,,,0,0,1,,,0,,,84,44
154000,note_off,,,,,80,0,1,,,0,,,83,64
154020,control_change,,,,,260,0,2,,,0,64,0,,
154080,note_on,,,,,0,0,2,,,0,,,56,47
154080,note_off,,,,,60,0,2,,,0,,,57,64
154080,set_tempo,,,,,200,1,0,521739,,,,,,
154080,note_off,,,,,80,0,1,,,0,,,84,64
154080,note_on,,,,,0,0,1,,,0,,,83,50
154160,note_off,,,,,80,0,1,,,0,,,83,64
154160,note_on,,,,,0,0,1,,,0,,,84,51
154200,note_on,,,,,0,0,2,,,0,,,50,54
154200,note_off,,,,,120,0,2,,,0,,,56,64
154200,note_off,,,,,0,0,2,,,0,,,52,64
154240,note_off,,,,,80,0,1,,,0,,,84,64
154240,note_on,,,,,0,0,1,,,0,,,86,58
154320,note_off,,,,,80,0,1,,,0,,,86,64
154320,note_on,,,,,0,0,1,,,0,,,88,68
154320,note_on,,,,,0,0,2,,,0,,,48,74
154320,note_off,,,,,120,0,2,,,0,,,50,64
154340,set_tempo,,,,,260,1,0,545455,,,,,,
154400,note_on,,,,,0,0,1,,,0,,,90,77
154400,note_off,,,,,80,0,1,,,0,,,88,64
154420,set_tempo,,,,,80,1,0,566038,,,,,,
154440,note_on,,,,,0,0,2,,,0,,,47,76
154440,note_off,,,,,120,0,2,,,0,,,48,64
154460,set_tempo,,,,,40,1,0,606061,,,,,,
154480,note_off,,,,,80,0,1,,,0,,,90,64
154480,note_on,,,,,0,0,1,,,0,,,92,87
154510,set_tempo,,,,,50,1,0,582524,,,,,,
154530,note_off,,,,,90,0,2,,,0,,,47,64
154540,set_tempo,,,,,30,1,0,458015,,,,,,
154560,note_on,,,,,0,0,2,,,0,,,45,95
154560,note_off,,,,,80,0,1,,,0,,,92,64
154560,note_on,,,,,0,0,1,,,0,,,93,111
154560,note_on,,,,,30,0,2,,,0,,,33,95
154650,note_off,,,,,90,0,1,,,0,,,93,64
154680,note_on,,,,,30,0,1,,,0,,,72,90
154680,note_off,,,,,120,0,2,,,0,,,45,64
154680,note_off,,,,,0,0,2,,,0,,,33,64
154700,set_tempo,,,,,160,1,0,444444,,,,,,
154770,note_off,,,,,90,0,1,,,0,,,72,64
154800,note_on,,,,,0,0,2,,,0,,,48,112
154800,note_on,,,,,30,0,1,,,0,,,76,102
154800,note_on,,,,,120,0,2,,,0,,,36,112
154840,set_tempo,,,,,140,1,0,434783,,,,,,
154890,note_off,,,,,90,0,1,,,0,,,76,64
154920,note_on,,,,,30,0,1,,,0,,,69,83
155010,note_off,,,,,90,0,1,,,0,,,69,64
155040,note_on,,,,,30,0,1,,,0,,,72,110
155130,note_off,,,,,90,0,1,,,0,,,72,64
155160,note_on,,,,,30,0,1,,,0,,,64,88
155250,note_off,,,,,90,0,1,,,0,,,64,64
155280,note_on,,,,,30,0,1,,,0,,,69,95
155280,note_off,,,,,480,0,2,,,0,,,48,64
155280,note_on,,,,,0,0,2,,,0,,,53,81
155280,note_on,,,,,0,0,2,,,0,,,41,81
155280,note_off,,,,,0,0,2,,,0,,,36,64
155370,note_off,,,,,90,0,1,,,0,,,69,64
155400,note_on,,,,,30,0,1,,,0,,,60,100
155460,note_off,,,,,0,0,2,,,0,,,41,64
155460,note_off,,,,,180,0,2,,,0,,,53,64
155480,set_tempo,,,,,640,1,0,571429,,,,,,
155490,note_off,,,,,90,0,1,,,0,,,60,64
155520,note_on,,,,,60,0,2,,,0,,,40,109
155520,note_on,,,,,30,0,1,,,0,,,83,111
155520,note_on,,,,,0,0,2,,,0,,,52,109
155540,set_tempo,,,,,60,1,0,431655,,,,,,
155610,note_off,,,,,90,0,1,,,0,,,83,64
155640,note_on,,,,,30,0,1,,,0,,,78,90
155730,note_off,,,,,90,0,1,,,0,,,78,64
155760,note_off,,,,,0,0,2,,,0,,,40,64
155760,note_on,,,,,0,0,2,,,0,,,39,96
155760,note_on,,,,,0,0,2,,,0,,,51,96
155760,note_off,,,,,240,0,2,,,0,,,52,64
155760,note_on,,,,,30,0,1,,,0,,,81,102
155850,note_off,,,,,90,0,1,,,0,,,81,64
155880,note_on,,,,,30,0,1,,,0,,,71,83
155880,note_off,,,,,0,0,2,,,0,,,39,64
155880,note_off,,,,,120,0,2,,,0,,,51,64
155960,set_tempo,,,,,420,1,0,560748,,,,,,
155970,note_off,,,,,90,0,1,,,0,,,71,64
156000,note_on,,,,,0,0,2,,,0,,,52,118
156000,note_on,,,,,30,0,1,,,0,,,71,110
156000,note_on,,,,,120,0,2,,,0,,,40,118
156040,set_tempo,,,,,80,1,0,422535,,,,,,
156060,set_tempo,,,,,20,1,0,428571,,,,,,
156090,note_off,,,,,90,0,1,,,0,,,71,64
156120,note_on,,,,,30,0,1,,,0,,,64,88
156210,note_off,,,,,90,0,1,,,0,,,64,64
156240,note_on,,,,,30,0,1,,,0,,,67,95
156330,note_off,,,,,90,0,1,,,0,,,67,64
156360,note_on,,,,,30,0,1,,,0,,,59,100
156360,note_off,,,,,360,0,2,,,0,,,52,64
156360,note_off,,,,,0,0,2,,,0,,,40,64
156450,note_off,,,,,90,0,1,,,0,,,59,64
156480,note_on,,,,,0,0,2,,,0,,,52,95
156480,note_on,,,,,120,0,2,,,0,,,40,95
156480,note_on,,,,,30,0,1,,,0,,,88,111
156570,note_off,,,,,90,0,1,,,0,,,88,64
156600,set_tempo,,,,,540,1,0,441176,,,,,,
156600,note_off,,,,,120,0,2,,,0,,,52,64
156600,note_on,,,,,30,0,1,,,0,,,79,90
156600,note_off,,,,,0,0,2,,,0,,,40,64
156620,set_tempo,,,,,20,1,0,444444,,,,,,
156690,note_off,,,,,90,0,1,,,0,,,79,64
156720,note_on,,,,,120,0,2,,,0,,,43,112
156720,note_on,,,,,30,0,1,,,0,,,83,102
156720,note_on,,,,,0,0,2,,,0,,,55,112
156810,note_off,,,,,90,0,1,,,0,,,83,64
156840,note_on,,,,,30,0,1,,,0,,,76,83
156930,note_off,,,,,90,0,1,,,0,,,76,64
156960,note_on,,,,,30,0,1,,,0,,,79,110
157040,set_tempo,,,,,420,1,0,431655,,,,,,
157050,note_off,,,,,90,0,1,,,0,,,79,64
157080,note_on,,,,,30,0,1,,,0,,,71,88
157170,note_off,,,,,90,0,1,,,0,,,71,64
157200,note_on,,,,,0,0,2,,,0,,,48,81
157200,note_off,,,,,0,0,2,,,0,,,43,64
157200,note_on,,,,,0,0,2,,,0,,,60,81
157200,note_on,,,,,30,0,1,,,0,,,76,95
157200,note_off,,,,,480,0,2,,,0,,,55,64
157290,note_off,,,,,90,0,1,,,0,,,76,64
157320,note_on,,,,,30,0,1,,,0,,,67,100
157380,note_off,,,,,180,0,2,,,0,,,48,64
157380,note_off,,,,,0,0,2,,,0,,,60,64
157400,set_tempo,,,,,360,1,0,571429,,,,,,
157410,note_off,,,,,90,0,1,,,0,,,67,64
157440,note_on,,,,,0,0,2,,,0,,,47,109
157440,note_on,,,,,60,0,2,,,0,,,59,109
157440,note_on,,,,,30,0,1,,,0,,,90,111
157440,set_tempo,,,,,40,1,0,566038,,,,,,
157460,set_tempo,,,,,20,1,0,428571,,,,,,
157530,note_off,,,,,90,0,1,,,0,,,90,64
157560,note_on,,,,,30,0,1,,,0,,,85,90
157650,note_off,,,,,90,0,1,,,0,,,85,64
157680,note_on,,,,,30,0,1,,,0,,,88,102
157680,note_on,,,,,0,0,2,,,0,,,58,96
157680,note_off,,,,,240,0,2,,,0,,,47,64
157680,note_off,,,,,0,0,2,,,0,,,59,64
157680,note_on,,,,,0,0,2,,,0,,,46,96
157770,note_off,,,,,90,0,1,,,0,,,88,64
157800,note_on,,,,,30,0,1,,,0,,,78,83
157800,note_off,,,,,0,0,2,,,0,,,46,64
157800,note_off,,,,,120,0,2,,,0,,,58,64
157860,set_tempo,,,,,400,1,0,425532,,,,,,
157880,set_tempo,,,,,20,1,0,550459,,,,,,
157890,note_off,,,,,90,0,1,,,0,,,78,64
157920,note_on,,,,,30,0,1,,,0,,,78,110
157920,note_on,,,,,0,0,2,,,0,,,47,118
157920,note_on,,,,,120,0,2,,,0,,,59,118
157960,set_tempo,,,,,80,1,0,441176,,,,,,
158010,note_off,,,,,90,0,1,,,0,,,78,64
158040,note_on,,,,,30,0,1,,,0,,,71,88
158130,note_off,,,,,90,0,1,,,0,,,71,64
158160,set_tempo,,,,,200,1,0,451128,,,,,,
158160,note_on,,,,,30,0,1,,,0,,,74,95
158220,note_off,,,,,300,0,2,,,0,,,47,64
158220,note_off,,,,,0,0,2,,,0,,,59,64
158240,set_tempo,,,,,80,1,0,468750,,,,,,
158250,note_off,,,,,90,0,1,,,0,,,74,64
158280,note_on,,,,,30,0,1,,,0,,,66,100
158280,note_on,,,,,60,0,2,,,0,,,62,103
158280,note_on,,,,,0,0,2,,,0,,,50,103
158370,note_off,,,,,90,0,1,,,0,,,66,64
158380,set_tempo,,,,,140,1,0,487805,,,,,,
158400,note_on,,,,,30,0,1,,,0,,,88,111
158400,note_on,,,,,0,0,2,,,0,,,45,107
158400,note_on,,,,,0,0,2,,,0,,,57,107
158400,note_off,,,,,0,0,2,,,0,,,62,64
158400,note_off,,,,,120,0,2,,,0,,,50,64
158480,set_tempo,,,,,100,1,0,458015,,,,,,
158490,note_off,,,,,90,0,1,,,0,,,88,64
158520,note_on,,,,,30,0,1,,,0,,,83,90
158580,set_tempo,,,,,100,1,0,441176,,,,,,
158610,note_off,,,,,90,0,1,,,0,,,83,64
158640,note_off,,,,,0,0,2,,,0,,,57,64
158640,note_on,,,,,0,0,2,,,0,,,44,96
158640,note_on,,,,,30,0,1,,,0,,,86,102
158640,note_on,,,,,0,0,2,,,0,,,56,96
158640,note_off,,,,,240,0,2,,,0,,,45,64
158660,set_tempo,,,,,80,1,0,422535,,,,,,
158730,note_off,,,,,90,0,1,,,0,,,86,64
158760,note_on,,,,,30,0,1,,,0,,,76,83
158760,note_off,,,,,120,0,2,,,0,,,56,64
158760,note_off,,,,,0,0,2,,,0,,,44,64
158840,set_tempo,,,,,180,1,0,566038,,,,,,
158850,note_off,,,,,90,0,1,,,0,,,76,64
158880,note_on,,,,,120,0,2,,,0,,,57,118
158880,note_on,,,,,0,0,2,,,0,,,45,118
158880,note_on,,,,,30,0,1,,,0,,,76,110
158900,set_tempo,,,,,60,1,0,491803,,,,,,
158940,set_tempo,,,,,40,1,0,419580,,,,,,
158970,note_off,,,,,90,0,1,,,0,,,76,64
159000,note_on,,,,,30,0,1,,,0,,,69,88
159040,set_tempo,,,,,100,1,0,408163,,,,,,
159090,note_off,,,,,90,0,1,,,0,,,69,64
159120,note_on,,,,,30,0,1,,,0,,,72,95
159140,set_tempo,,,,,100,1,0,400000,,,,,,
159180,note_off,,,,,300,0,2,,,0,,,45,64
159180,note_off,,,,,0,0,2,,,0,,,57,64
159210,note_off,,,,,90,0,1,,,0,,,72,64
159240,note_on,,,,,30,0,1,,,0,,,64,100
159240,note_on,,,,,0,0,2,,,0,,,48,103
159240,note_on,,,,,60,0,2,,,0,,,60,103
159330,note_off,,,,,90,0,1,,,0,,,64,64
159360,note_on,,,,,30,0,1,,,0,,,83,111
159360,note_off,,,,,120,0,2,,,0,,,48,64
159360,note_off,,,,,0,0,2,,,0,,,60,64
159360,note_on,,,,,0,0,2,,,0,,,52,107
159360,note_on,,,,,0,0,2,,,0,,,40,107
159440,set_tempo,,,,,300,1,0,408163,,,,,,
159450,note_off,,,,,90,0,1,,,0,,,83,64
159480,note_on,,,,,30,0,1,,,0,,,78,90
159570,note_off,,,,,90,0,1,,,0,,,78,64
159580,set_tempo,,,,,140,1,0,419580,,,,,,
159600,note_on,,,,,30,0,1,,,0,,,81,102
159600,note_on,,,,,0,0,2,,,0,,,51,96
159600,note_on,,,,,0,0,2,,,0,,,39,96
159600,note_off,,,,,0,0,2,,,0,,,52,64
159600,note_off,,,,,240,0,2,,,0,,,40,64
159690,note_off,,,,,90,0,1,,,0,,,81,64
159720,note_off,,,,,120,0,2,,,0,,,51,64
159720,note_off,,,,,0,0,2,,,0,,,39,64
159720,note_on,,,,,30,0,1,,,0,,,71,83
159780,set_tempo,,,,,200,1,0,500000,,,,,,
159810,note_off,,,,,90,0,1,,,0,,,71,64
159840,note_on,,,,,30,0,1,,,0,,,71,110
159840,note_on,,,,,0,0,1,,,0,,,67,110
159840,note_on,,,,,0,0,1,,,0,,,64,110
159840,note_on,,,,,0,0,2,,,0,,,52,118
159840,note_on,,,,,0,0,2,,,0,,,40,118
159840,control_change,,,,,120,0,2,,,0,64,127,,
159860,set_tempo,,,,,80,1,0,437956,,,,,,
159960,note_off,,,,,120,0,1,,,0,,,64,64
159960,note_off,,,,,0,0,1,,,0,,,67,64
159960,note_off,,,,,0,0,1,,,0,,,71,64
159960,note_on,,,,,0,0,1,,,0,,,59,88
160050,note_off,,,,,90,0,1,,,0,,,59,64
160060,set_tempo,,,,,200,1,0,422535,,,,,,
160080,note_on,,,,,0,0,1,,,0,,,64,95
160080,note_on,,,,,30,0,1,,,0,,,70,95
160080,note_on,,,,,0,0,1,,,0,,,67,95
160140,note_off,,,,,300,0,2,,,0,,,40,64
160140,note_off,,,,,0,0,2,,,0,,,52,64
160200,note_on,,,,,0,0,1,,,0,,,58,100
160200,note_on,,,,,60,0,2,,,0,,,48,115
160200,note_on,,,,,0,0,2,,,0,,,36,115
160200,note_off,,,,,0,0,1,,,0,,,70,64
160200,note_off,,,,,0,0,1,,,0,,,67,64
160200,note_off,,,,,120,0,1,,,0,,,64,64
160260,control_change,,,,,60,0,2,,,0,64,0,,
160290,note_off,,,,,90,0,1,,,0,,,58,64
160320,note_on,,,,,0,0,1,,,0,,,63,111
160320,note_off,,,,,60,0,2,,,0,,,36,64
160320,note_off,,,,,0,0,2,,,0,,,48,64
160320,note_on,,,,,0,0,2,,,0,,,35,108
160320,note_on,,,,,0,0,2,,,0,,,47,108
160320,note_on,,,,,30,0,1,,,0,,,71,111
160340,set_tempo,,,,,280,1,0,413793,,,,,,
160410,note_off,,,,,0,0,1,,,0,,,71,64
160410,note_off,,,,,90,0,1,,,0,,,63,64
160440,note_on,,,,,30,0,1,,,0,,,59,99
160500,note_off,,,,,0,0,2,,,0,,,35,64
160500,note_off,,,,,180,0,2,,,0,,,47,64
160530,note_off,,,,,90,0,1,,,0,,,59,64
160560,note_on,,,,,60,0,2,,,0,,,45,94
160560,note_on,,,,,0,0,2,,,0,,,47,94
160560,note_on,,,,,30,0,1,,,0,,,75,115
160560,note_on,,,,,0,0,1,,,0,,,72,115
160680,note_on,,,,,0,0,1,,,0,,,71,90
160680,note_off,,,,,0,0,1,,,0,,,75,64
160680,note_off,,,,,120,0,1,,,0,,,72,64
160740,note_off,,,,,180,0,2,,,0,,,47,64
160740,note_off,,,,,0,0,2,,,0,,,45,64
160770,note_off,,,,,90,0,1,,,0,,,71,64
160800,note_on,,,,,30,0,1,,,0,,,76,119
160800,note_on,,,,,60,0,2,,,0,,,43,101
160800,note_on,,,,,0,0,2,,,0,,,47,101
160860,set_tempo,,,,,520,1,0,410959,,,,,,
160920,note_off,,,,,120,0,1,,,0,,,76,64
160920,note_on,,,,,0,0,1,,,0,,,71,97
160980,note_off,,,,,180,0,2,,,0,,,47,64
160980,note_off,,,,,0,0,2,,,0,,,43,64
161010,note_off,,,,,90,0,1,,,0,,,71,64
161040,note_on,,,,,30,0,1,,,0,,,78,120
161040,note_on,,,,,0,0,1,,,0,,,75,120
161040,note_on,,,,,60,0,2,,,0,,,42,117
161040,note_on,,,,,0,0,2,,,0,,,47,117
161160,note_on,,,,,0,0,1,,,0,,,71,97
161160,note_off,,,,,120,0,1,,,0,,,75,64
161160,note_off,,,,,0,0,1,,,0,,,78,64
161220,note_off,,,,,0,0,2,,,0,,,42,64
161220,note_off,,,,,180,0,2,,,0,,,47,64
161250,note_off,,,,,90,0,1,,,0,,,71,64
161280,note_on,,,,,60,0,2,,,0,,,40,118
161280,note_on,,,,,0,0,1,,,0,,,76,103
161280,note_on,,,,,30,0,1,,,0,,,79,103
161370,note_off,,,,,90,0,2,,,0,,,40,64
161400,note_off,,,,,120,0,1,,,0,,,76,64
161400,note_on,,,,,30,0,2,,,0,,,55,106
161400,note_off,,,,,0,0,1,,,0,,,79,64
161490,note_off,,,,,90,0,2,,,0,,,55,64
161520,note_on,,,,,0,0,1,,,0,,,67,115
161520,note_on,,,,,120,0,1,,,0,,,79,115
161520,note_on,,,,,30,0,2,,,0,,,59,113
161610,note_off,,,,,90,0,2,,,0,,,59,64
161640,note_on,,,,,30,0,2,,,0,,,52,102
161730,note_off,,,,,90,0,2,,,0,,,52,64
161760,note_on,,,,,30,0,2,,,0,,,55,117
161850,note_off,,,,,90,0,2,,,0,,,55,64
161880,note_on,,,,,30,0,2,,,0,,,47,105
161970,note_off,,,,,90,0,2,,,0,,,47,64
162000,note_off,,,,,480,0,1,,,0,,,67,64
162000,note_on,,,,,30,0,2,,,0,,,52,109
162000,note_off,,,,,0,0,1,,,0,,,79,64
162000,note_on,,,,,0,0,1,,,0,,,84,92
162000,note_on,,,,,0,0,1,,,0,,,72,92
162090,note_off,,,,,90,0,2,,,0,,,52,64
162120,note_on,,,,,30,0,2,,,0,,,43,111
162180,note_off,,,,,180,0,1,,,0,,,72,64
162180,note_off,,,,,0,0,1,,,0,,,84,64
162200,set_tempo,,,,,1340,1,0,571429,,,,,,
162210,note_off,,,,,90,0,2,,,0,,,43,64
162240,set_tempo,,,,,40,1,0,434783,,,,,,
162240,note_on,,,,,60,0,1,,,0,,,83,113
162240,note_on,,,,,0,0,1,,,0,,,71,113
162240,note_on,,,,,30,0,2,,,0,,,53,118
162330,note_off,,,,,90,0,2,,,0,,,53,64
162360,note_on,,,,,30,0,2,,,0,,,43,106
162450,note_off,,,,,90,0,2,,,0,,,43,64
162480,note_on,,,,,0,0,1,,,0,,,70,103
162480,note_off,,,,,240,0,1,,,0,,,71,64
162480,note_on,,,,,30,0,2,,,0,,,54,113
162480,note_on,,,,,0,0,1,,,0,,,82,103
162480,note_off,,,,,0,0,1,,,0,,,83,64
162570,note_off,,,,,90,0,2,,,0,,,54,64
162600,note_off,,,,,120,0,1,,,0,,,70,64
162600,note_on,,,,,30,0,2,,,0,,,42,102
162600,note_off,,,,,0,0,1,,,0,,,82,64
162680,set_tempo,,,,,440,1,0,560748,,,,,,
162690,note_off,,,,,90,0,2,,,0,,,42,64
162720,note_on,,,,,30,0,2,,,0,,,51,117
162720,note_on,,,,,120,0,1,,,0,,,83,120
162720,note_on,,,,,0,0,1,,,0,,,71,120
162760,set_tempo,,,,,80,1,0,491803,,,,,,
162810,note_off,,,,,90,0,2,,,0,,,51,64
162820,set_tempo,,,,,60,1,0,437956,,,,,,
162840,note_on,,,,,30,0,2,,,0,,,39,105
162930,note_off,,,,,90,0,2,,,0,,,39,64
162960,note_on,,,,,30,0,2,,,0,,,47,109
163050,note_off,,,,,90,0,2,,,0,,,47,64
163080,note_on,,,,,30,0,2,,,0,,,35,111
163080,note_off,,,,,360,0,1,,,0,,,71,64
163080,note_off,,,,,0,0,1,,,0,,,83,64
163170,note_off,,,,,90,0,2,,,0,,,35,64
163200,note_on,,,,,30,0,2,,,0,,,47,118
163200,note_on,,,,,0,0,1,,,0,,,59,103
163200,note_on,,,,,120,0,1,,,0,,,71,103
163290,note_off,,,,,90,0,2,,,0,,,47,64
163320,note_off,,,,,0,0,1,,,0,,,71,64
163320,note_off,,,,,120,0,1,,,0,,,59,64
163320,note_on,,,,,30,0,2,,,0,,,50,106
163410,note_off,,,,,90,0,2,,,0,,,50,64
163440,note_on,,,,,0,0,1,,,0,,,62,115
163440,note_on,,,,,120,0,1,,,0,,,74,115
163440,note_on,,,,,30,0,2,,,0,,,54,113
163530,note_off,,,,,90,0,2,,,0,,,54,64
163560,note_on,,,,,30,0,2,,,0,,,47,102
163650,note_off,,,,,90,0,2,,,0,,,47,64
163680,note_on,,,,,30,0,2,,,0,,,50,117
163740,set_tempo,,,,,920,1,0,428571,,,,,,
163770,note_off,,,,,90,0,2,,,0,,,50,64
163800,note_on,,,,,30,0,2,,,0,,,42,105
163890,note_off,,,,,90,0,2,,,0,,,42,64
163920,note_off,,,,,0,0,1,,,0,,,74,64
163920,note_on,,,,,0,0,1,,,0,,,67,92
163920,note_on,,,,,30,0,2,,,0,,,47,109
163920,note_on,,,,,0,0,1,,,0,,,79,92
163920,note_off,,,,,480,0,1,,,0,,,62,64
164010,note_off,,,,,90,0,2,,,0,,,47,64
164040,note_on,,,,,30,0,2,,,0,,,38,111
164100,note_off,,,,,0,0,1,,,0,,,79,64
164100,note_off,,,,,180,0,1,,,0,,,67,64
164120,set_tempo,,,,,380,1,0,571429,,,,,,
164130,note_off,,,,,90,0,2,,,0,,,38,64
164160,set_tempo,,,,,40,1,0,566038,,,,,,
164160,note_on,,,,,60,0,1,,,0,,,78,113
164160,note_on,,,,,0,0,1,,,0,,,66,113
164160,note_on,,,,,30,0,2,,,0,,,48,118
164180,set_tempo,,,,,20,1,0,431655,,,,,,
164250,note_off,,,,,90,0,2,,,0,,,48,64
164280,note_on,,,,,30,0,2,,,0,,,38,106
164370,note_off,,,,,90,0,2,,,0,,,38,64
164400,note_off,,,,,240,0,1,,,0,,,66,64
164400,note_off,,,,,0,0,1,,,0,,,78,64
164400,note_on,,,,,0,0,1,,,0,,,77,103
164400,note_on,,,,,0,0,1,,,0,,,65,103
164400,note_on,,,,,30,0,2,,,0,,,49,113
164490,note_off,,,,,90,0,2,,,0,,,49,64
164520,note_off,,,,,120,0,1,,,0,,,65,64
164520,note_on,,,,,30,0,2,,,0,,,37,102
164520,note_off,,,,,0,0,1,,,0,,,77,64
164610,note_off,,,,,90,0,2,,,0,,,37,64
164620,set_tempo,,,,,440,1,0,508475,,,,,,
164640,note_on,,,,,120,0,1,,,0,,,78,120
164640,note_on,,,,,30,0,2,,,0,,,45,117
164640,note_on,,,,,0,0,1,,,0,,,66,120
164680,set_tempo,,,,,60,1,0,434783,,,,,,
164730,note_off,,,,,90,0,2,,,0,,,45,64
164760,note_on,,,,,30,0,2,,,0,,,33,105
164850,note_off,,,,,90,0,2,,,0,,,33,64
164880,note_on,,,,,30,0,2,,,0,,,45,109
164880,set_tempo,,,,,200,1,0,444444,,,,,,
164970,note_off,,,,,90,0,2,,,0,,,45,64
165000,note_on,,,,,30,0,2,,,0,,,47,111
165060,note_off,,,,,420,0,1,,,0,,,66,64
165060,note_off,,,,,0,0,1,,,0,,,78,64
165060,set_tempo,,,,,180,1,0,447761,,,,,,
165080,set_tempo,,,,,20,1,0,454545,,,,,,
165090,note_off,,,,,90,0,2,,,0,,,47,64
165120,note_on,,,,,0,0,1,,,0,,,64,112
165120,note_on,,,,,60,0,1,,,0,,,76,112
165120,note_on,,,,,30,0,2,,,0,,,48,118
165160,set_tempo,,,,,80,1,0,437956,,,,,,
165210,note_off,,,,,90,0,2,,,0,,,48,64
165240,note_on,,,,,30,0,2,,,0,,,58,106
165260,set_tempo,,,,,100,1,0,431655,,,,,,
165330,note_off,,,,,90,0,2,,,0,,,58,64
165360,note_off,,,,,240,0,1,,,0,,,64,64
165360,note_on,,,,,0,0,1,,,0,,,63,103
165360,note_off,,,,,0,0,1,,,0,,,76,64
165360,note_on,,,,,0,0,1,,,0,,,75,103
165360,note_on,,,,,30,0,2,,,0,,,59,113
165450,note_off,,,,,90,0,2,,,0,,,59,64
165480,note_off,,,,,120,0,1,,,0,,,63,64
165480,note_off,,,,,0,0,1,,,0,,,75,64
165480,note_on,,,,,30,0,2,,,0,,,47,102
165560,set_tempo,,,,,300,1,0,566038,,,,,,
165570,note_off,,,,,90,0,2,,,0,,,47,64
165600,note_on,,,,,120,0,1,,,0,,,76,120
165600,note_on,,,,,30,0,2,,,0,,,43,117
165600,note_on,,,,,0,0,1,,,0,,,64,120
165620,set_tempo,,,,,60,1,0,504202,,,,,,
165640,set_tempo,,,,,20,1,0,451128,,,,,,
165690,note_off,,,,,90,0,2,,,0,,,43,64
165720,note_on,,,,,30,0,2,,,0,,,55,105
165720,set_tempo,,,,,80,1,0,437956,,,,,,
165800,set_tempo,,,,,80,1,0,422535,,,,,,
165810,note_off,,,,,90,0,2,,,0,,,55,64
165840,note_on,,,,,30,0,2,,,0,,,52,109
165900,note_off,,,,,300,0,1,,,0,,,64,64
165900,note_off,,,,,0,0,1,,,0,,,76,64
165930,note_off,,,,,90,0,2,,,0,,,52,64
165960,note_on,,,,,30,0,2,,,0,,,48,111
165960,note_on,,,,,0,0,1,,,0,,,67,109
165960,note_on,,,,,60,0,1,,,0,,,79,109
166050,note_off,,,,,90,0,2,,,0,,,48,64
166080,note_off,,,,,120,0,1,,,0,,,67,64
166080,note_off,,,,,0,0,1,,,0,,,79,64
166080,note_on,,,,,0,0,1,,,0,,,71,112
166080,note_on,,,,,0,0,1,,,0,,,59,112
166080,note_on,,,,,30,0,2,,,0,,,53,118
166170,note_off,,,,,90,0,2,,,0,,,53,64
166200,note_on,,,,,30,0,2,,,0,,,43,106
166290,note_off,,,,,90,0,2,,,0,,,43,64
166320,note_off,,,,,240,0,1,,,0,,,59,64
166320,note_off,,,,,0,0,1,,,0,,,71,64
166320,note_on,,,,,0,0,1,,,0,,,70,103
166320,note_on,,,,,0,0,1,,,0,,,58,103
166320,note_on,,,,,30,0,2,,,0,,,54,113
166360,set_tempo,,,,,560,1,0,419580,,,,,,
166410,note_off,,,,,90,0,2,,,0,,,54,64
166440,note_on,,,,,30,0,2,,,0,,,42,102
166440,note_off,,,,,0,0,1,,,0,,,70,64
166440,note_off,,,,,120,0,1,,,0,,,58,64
166460,set_tempo,,,,,100,1,0,428571,,,,,,
166530,note_off,,,,,90,0,2,,,0,,,42,64
166560,control_change,,,,,30,0,2,,,0,64,127,,
166560,note_on,,,,,0,0,2,,,0,,,51,117
166560,note_on,,,,,0,0,1,,,0,,,59,120
166560,note_on,,,,,120,0,1,,,0,,,71,120
166680,set_tempo,,,,,220,1,0,431655,,,,,,
166680,note_on,,,,,0,0,2,,,0,,,39,105
166680,note_off,,,,,120,0,2,,,0,,,51,64
166700,set_tempo,,,,,20,1,0,437956,,,,,,
166770,note_off,,,,,90,0,2,,,0,,,39,64
166800,note_on,,,,,30,0,2,,,0,,,52,109
166860,note_off,,,,,300,0,1,,,0,,,59,64
166860,note_off,,,,,0,0,1,,,0,,,71,64
166860,set_tempo,,,,,160,1,0,458015,,,,,,
166920,note_on,,,,,60,0,1,,,0,,,67,118
166920,note_on,,,,,0,0,1,,,0,,,55,118
166920,note_off,,,,,120,0,2,,,0,,,52,64
166920,note_on,,,,,0,0,2,,,0,,,40,111
167010,note_off,,,,,90,0,2,,,0,,,40,64
167040,note_off,,,,,120,0,1,,,0,,,55,64
167040,note_off,,,,,0,0,1,,,0,,,67,64
167040,note_on,,,,,0,0,1,,,0,,,66,112
167040,note_on,,,,,0,0,1,,,0,,,54,112
167040,control_change,,,,,30,0,2,,,0,64,0,,
167040,note_on,,,,,0,0,2,,,0,,,50,118
167130,note_off,,,,,90,0,2,,,0,,,50,64
167160,note_on,,,,,30,0,2,,,0,,,42,111
167180,set_tempo,,,,,320,1,0,476190,,,,,,
167220,note_off,,,,,0,0,1,,,0,,,66,64
167220,note_off,,,,,180,0,1,,,0,,,54,64
167250,note_off,,,,,90,0,2,,,0,,,42,64
167280,note_on,,,,,0,0,1,,,0,,,52,102
167280,note_on,,,,,60,0,1,,,0,,,64,102
167280,note_on,,,,,30,0,2,,,0,,,43,120
167400,note_off,,,,,120,0,2,,,0,,,43,64
167400,note_on,,,,,0,0,2,,,0,,,47,106
167440,set_tempo,,,,,260,1,0,495868,,,,,,
167460,note_off,,,,,180,0,1,,,0,,,52,64
167460,note_off,,,,,0,0,1,,,0,,,64,64
167490,note_off,,,,,90,0,2,,,0,,,47,64
167520,note_on,,,,,60,0,1,,,0,,,62,107
167520,note_on,,,,,30,0,2,,,0,,,42,122
167520,note_on,,,,,0,0,1,,,0,,,50,107
167640,note_on,,,,,0,0,2,,,0,,,47,110
167640,note_off,,,,,120,0,2,,,0,,,42,64
167700,note_off,,,,,180,0,1,,,0,,,50,64
167700,note_off,,,,,0,0,1,,,0,,,62,64
167730,note_off,,,,,90,0,2,,,0,,,47,64
167760,note_on,,,,,30,0,2,,,0,,,42,123
167760,note_on,,,,,0,0,1,,,0,,,49,119
167760,note_on,,,,,60,0,1,,,0,,,61,119
167780,set_tempo,,,,,340,1,0,512821,,,,,,
167880,note_off,,,,,120,0,2,,,0,,,42,64
167880,note_on,,,,,0,0,2,,,0,,,46,110
167940,note_off,,,,,0,0,1,,,0,,,61,64
167940,note_off,,,,,180,0,1,,,0,,,49,64
167970,note_off,,,,,90,0,2,,,0,,,46,64
167980,set_tempo,,,,,200,1,0,645161,,,,,,
168000,note_on,,,,,30,0,2,,,0,,,47,117
168000,control_change,,,,,0,0,2,,,0,64,127,,
168040,set_tempo,,,,,60,1,0,508475,,,,,,
168060,note_on,,,,,120,0,1,,,0,,,59,87
168120,note_on,,,,,0,0,1,,,0,,,61,83
168120,note_off,,,,,60,0,1,,,0,,,59,64
168180,note_on,,,,,0,0,1,,,0,,,62,81
168180,note_off,,,,,60,0,1,,,0,,,61,64
168240,note_off,,,,,240,0,2,,,0,,,47,64
168240,note_off,,,,,60,0,1,,,0,,,62,64
168240,note_on,,,,,0,0,1,,,0,,,64,79
168260,set_tempo,,,,,220,1,0,483871,,,,,,
168300,note_off,,,,,60,0,1,,,0,,,64,64
168300,note_on,,,,,0,0,1,,,0,,,66,78
168360,note_off,,,,,60,0,1,,,0,,,66,64
168360,note_on,,,,,120,0,2,,,0,,,59,108
168360,note_on,,,,,0,0,1,,,0,,,68,77
168420,note_off,,,,,60,0,1,,,0,,,68,64
168420,note_on,,,,,0,0,1,,,0,,,70,81
168450,control_change,,,,,90,0,2,,,0,64,0,,
168480,note_on,,,,,0,0,2,,,0,,,55,127
168480,note_off,,,,,30,0,2,,,0,,,59,64
168480,control_change,,,,,0,0,2,,,0,64,127,,
168480,note_on,,,,,0,0,2,,,0,,,67,127
168480,note_off,,,,,60,0,1,,,0,,,70,64
168480,note_on,,,,,0,0,1,,,0,,,71,85
168500,set_tempo,,,,,240,1,0,458015,,,,,,
168540,note_on,,,,,0,0,1,,,0,,,73,87
168540,note_off,,,,,60,0,1,,,0,,,71,64
168600,note_on,,,,,0,0,1,,,0,,,74,91
168600,note_off,,,,,60,0,1,,,0,,,73,64
168660,note_off,,,,,60,0,1,,,0,,,74,64
168660,note_on,,,,,0,0,1,,,0,,,76,97
168680,set_tempo,,,,,180,1,0,441176,,,,,,
168720,note_on,,,,,0,0,2,,,0,,,66,101
168720,note_off,,,,,60,0,1,,,0,,,76,64
168720,note_off,,,,,240,0,2,,,0,,,67,64
168720,note_on,,,,,0,0,1,,,0,,,78,101
168720,note_off,,,,,0,0,2,,,0,,,55,64
168720,note_on,,,,,0,0,2,,,0,,,54,101
168780,note_on,,,,,0,0,1,,,0,,,80,106
168780,note_off,,,,,60,0,1,,,0,,,78,64
168800,set_tempo,,,,,120,1,0,431655,,,,,,
168840,note_off,,,,,60,0,1,,,0,,,80,64
168840,note_on,,,,,0,0,1,,,0,,,82,110
168900,note_off,,,,,60,0,1,,,0,,,82,64
168900,note_on,,,,,0,0,1,,,0,,,83,116
168900,note_off,,,,,180,0,2,,,0,,,66,64
168900,note_off,,,,,0,0,2,,,0,,,54,64
168930,control_change,,,,,30,0,2,,,0,64,0,,
168960,note_on,,,,,0,0,2,,,0,,,61,123
168960,note_on,,,,,30,0,2,,,0,,,65,124
168960,note_on,,,,,0,0,2,,,0,,,56,121
168960,note_on,,,,,0,0,1,,,0,,,85,117
168960,note_off,,,,,60,0,1,,,0,,,83,64
168960,control_change,,,,,0,0,2,,,0,64,127,,
168960,note_on,,,,,0,0,2,,,0,,,53,118
169000,set_tempo,,,,,200,1,0,447761,,,,,,
169020,note_off,,,,,60,0,1,,,0,,,85,64
169080,note_on,,,,,60,0,1,,,0,,,73,107
169140,note_off,,,,,60,0,1,,,0,,,73,64
169200,note_on,,,,,60,0,1,,,0,,,97,126
169220,set_tempo,,,,,220,1,0,465116,,,,,,
169260,note_off,,,,,60,0,1,,,0,,,97,64
169320,note_on,,,,,60,0,1,,,0,,,85,103
169340,set_tempo,,,,,120,1,0,480000,,,,,,
169380,note_off,,,,,60,0,1,,,0,,,85,64
169410,control_change,,,,,450,0,2,,,0,64,0,,
169440,control_change,,,,,0,0,2,,,0,64,127,,
169440,note_on,,,,,0,0,2,,,0,,,44,127
169440,note_on,,,,,0,0,2,,,0,,,32,127
169440,note_off,,,,,0,0,2,,,0,,,65,64
169440,note_off,,,,,0,0,2,,,0,,,53,64
169440,note_off,,,,,30,0,2,,,0,,,56,64
169440,note_off,,,,,0,0,2,,,0,,,61,64
169440,note_on,,,,,60,0,1,,,0,,,71,86
169440,set_tempo,,,,,100,1,0,434783,,,,,,
169500,note_on,,,,,0,0,1,,,0,,,73,85
169500,note_off,,,,,60,0,1,,,0,,,71,64
169560,note_off,,,,,60,0,1,,,0,,,73,64
169560,note_on,,,,,0,0,1,,,0,,,74,84
169620,note_on,,,,,0,0,1,,,0,,,76,87
169620,note_off,,,,,60,0,1,,,0,,,74,64
169660,set_tempo,,,,,220,1,0,451128,,,,,,
169680,note_off,,,,,60,0,1,,,0,,,76,64
169680,note_off,,,,,240,0,2,,,0,,,44,64
169680,note_off,,,,,0,0,2,,,0,,,32,64
169680,note_on,,,,,0,0,2,,,0,,,30,116
169680,note_on,,,,,0,0,2,,,0,,,42,116
169680,note_on,,,,,0,0,1,,,0,,,78,91
169740,note_on,,,,,0,0,1,,,0,,,80,96
169740,note_off,,,,,60,0,1,,,0,,,78,64
169760,set_tempo,,,,,100,1,0,465116,,,,,,
169800,note_on,,,,,0,0,1,,,0,,,82,101
169800,note_off,,,,,60,0,1,,,0,,,80,64
169860,note_off,,,,,0,0,2,,,0,,,30,64
169860,note_off,,,,,180,0,2,,,0,,,42,64
169860,note_on,,,,,0,0,1,,,0,,,83,104
169860,note_off,,,,,60,0,1,,,0,,,82,64
169890,control_change,,,,,30,0,2,,,0,64,0,,
169920,note_on,,,,,30,0,2,,,0,,,41,124
169920,note_on,,,,,0,0,1,,,0,,,85,108
169920,note_off,,,,,60,0,1,,,0,,,83,64
169920,control_change,,,,,0,0,2,,,0,64,127,,
169920,note_on,,,,,0,0,2,,,0,,,29,121
169920,set_tempo,,,,,160,1,0,491803,,,,,,
169980,note_off,,,,,60,0,1,,,0,,,85,64
170040,note_on,,,,,60,0,1,,,0,,,73,97
170100,note_off,,,,,60,0,1,,,0,,,73,64
170160,note_on,,,,,60,0,1,,,0,,,97,116
170220,note_off,,,,,60,0,1,,,0,,,97,64
170280,note_on,,,,,60,0,1,,,0,,,85,94
170340,note_off,,,,,60,0,1,,,0,,,85,64
170370,control_change,,,,,450,0,2,,,0,64,0,,
170400,note_on,,,,,0,0,1,,,0,,,80,124
170400,note_on,,,,,0,0,1,,,0,,,73,124
170400,note_on,,,,,60,0,1,,,0,,,85,124
170400,note_off,,,,,30,0,2,,,0,,,29,64
170400,note_off,,,,,0,0,2,,,0,,,41,64
170400,control_change,,,,,0,0,2,,,0,64,127,,
170400,note_on,,,,,0,0,2,,,0,,,41,123
170480,note_on,,,,,0,0,2,,,0,,,44,101
170480,note_off,,,,,80,0,2,,,0,,,41,64
170500,set_tempo,,,,,580,1,0,483871,,,,,,
170560,note_off,,,,,80,0,2,,,0,,,44,64
170560,note_on,,,,,0,0,2,,,0,,,49,107
170620,set_tempo,,,,,120,1,0,468750,,,,,,
170640,note_on,,,,,0,0,2,,,0,,,53,113
170640,note_off,,,,,80,0,2,,,0,,,49,64
170720,note_off,,,,,80,0,2,,,0,,,53,64
170720,note_on,,,,,0,0,2,,,0,,,56,119
170720,set_tempo,,,,,100,1,0,454545,,,,,,
170760,note_on,,,,,0,0,1,,,0,,,80,115
170760,note_on,,,,,0,0,1,,,0,,,73,115
170760,note_off,,,,,360,0,1,,,0,,,73,64
170760,note_off,,,,,0,0,1,,,0,,,80,64
170760,note_off,,,,,0,0,1,,,0,,,85,64
170760,note_on,,,,,0,0,1,,,0,,,85,115
170800,note_on,,,,,0,0,2,,,0,,,61,125
170800,note_off,,,,,80,0,2,,,0,,,56,64
170850,note_off,,,,,90,0,1,,,0,,,73,64
170850,note_off,,,,,0,0,1,,,0,,,80,64
170850,note_off,,,,,0,0,1,,,0,,,85,64
170850,control_change,,,,,50,0,2,,,0,64,0,,
170880,note_on,,,,,30,0,1,,,0,,,81,126
170880,control_change,,,,,0,0,2,,,0,64,127,,
170880,note_off,,,,,30,0,2,,,0,,,61,64
170880,note_on,,,,,0,0,1,,,0,,,78,126
170880,note_on,,,,,0,0,2,,,0,,,42,126
170940,set_tempo,,,,,220,1,0,441176,,,,,,
170960,note_on,,,,,0,0,2,,,0,,,54,118
170960,note_off,,,,,80,0,2,,,0,,,42,64
170960,note_on,,,,,0,0,1,,,0,,,73,118
170960,note_off,,,,,0,0,1,,,0,,,81,64
170960,note_off,,,,,80,0,1,,,0,,,78,64
171040,note_off,,,,,80,0,2,,,0,,,54,64
171040,note_on,,,,,0,0,1,,,0,,,78,111
171040,note_on,,,,,0,0,1,,,0,,,81,111
171040,note_off,,,,,80,0,1,,,0,,,73,64
171040,note_on,,,,,0,0,2,,,0,,,42,111
171060,control_change,,,,,20,0,2,,,0,64,0,,
171112,note_off,,,,,0,0,1,,,0,,,81,64
171112,note_off,,,,,72,0,1,,,0,,,78,64
171112,note_off,,,,,52,0,2,,,0,,,42,64
171120,note_on,,,,,8,0,1,,,0,,,83,116
171120,note_on,,,,,0,0,1,,,0,,,80,116
171120,set_tempo,,,,,180,1,0,428571,,,,,,
171120,control_change,,,,,8,0,2,,,0,64,127,,
171120,note_on,,,,,0,0,2,,,0,,,35,115
171200,note_on,,,,,0,0,1,,,0,,,74,108
171200,note_off,,,,,0,0,1,,,0,,,83,64
171200,note_off,,,,,80,0,1,,,0,,,80,64
171200,note_off,,,,,80,0,2,,,0,,,35,64
171200,note_on,,,,,0,0,2,,,0,,,47,108
171280,note_on,,,,,0,0,1,,,0,,,80,109
171280,note_on,,,,,0,0,1,,,0,,,83,109
171280,note_off,,,,,80,0,1,,,0,,,74,64
171280,note_on,,,,,0,0,2,,,0,,,35,109
171280,note_off,,,,,80,0,2,,,0,,,47,64
171300,control_change,,,,,20,0,2,,,0,64,0,,
171352,note_off,,,,,52,0,2,,,0,,,35,64
171352,note_off,,,,,0,0,1,,,0,,,83,64
171352,note_off,,,,,72,0,1,,,0,,,80,64
171360,note_on,,,,,8,0,2,,,0,,,37,119
171360,control_change,,,,,0,0,2,,,0,64,127,,
171360,note_on,,,,,0,0,1,,,0,,,78,121
171360,note_on,,,,,8,0,1,,,0,,,81,121
171440,note_on,,,,,0,0,1,,,0,,,73,115
171440,note_off,,,,,80,0,1,,,0,,,78,64
171440,note_on,,,,,0,0,2,,,0,,,49,115
171440,note_off,,,,,0,0,1,,,0,,,81,64
171440,note_off,,,,,80,0,2,,,0,,,37,64
171520,note_off,,,,,80,0,1,,,0,,,73,64
171520,note_on,,,,,0,0,1,,,0,,,81,116
171520,note_off,,,,,80,0,2,,,0,,,49,64
171520,note_on,,,,,0,0,1,,,0,,,78,116
171520,note_on,,,,,0,0,2,,,0,,,37,116
171520,set_tempo,,,,,400,1,0,444444,,,,,,
171540,control_change,,,,,20,0,2,,,0,64,0,,
171592,note_off,,,,,52,0,2,,,0,,,37,64
171592,note_off,,,,,72,0,1,,,0,,,78,64
171592,note_off,,,,,0,0,1,,,0,,,81,64
171600,note_on,,,,,8,0,1,,,0,,,80,126
171600,note_on,,,,,0,0,1,,,0,,,77,126
171600,note_on,,,,,0,0,2,,,0,,,49,126
171600,control_change,,,,,8,0,2,,,0,64,127,,
171680,note_off,,,,,80,0,1,,,0,,,77,64
171680,note_off,,,,,0,0,1,,,0,,,80,64
171680,note_on,,,,,0,0,1,,,0,,,73,115
171680,note_on,,,,,0,0,2,,,0,,,37,115
171680,set_tempo,,,,,160,1,0,461538,,,,,,
171680,note_off,,,,,80,0,2,,,0,,,49,64
171760,note_on,,,,,0,0,2,,,0,,,49,120
171760,note_on,,,,,0,0,1,,,0,,,77,120
171760,note_off,,,,,80,0,2,,,0,,,37,64
171760,note_on,,,,,0,0,1,,,0,,,80,120
171760,note_off,,,,,80,0,1,,,0,,,73,64
171780,control_change,,,,,20,0,2,,,0,64,0,,
171832,note_off,,,,,72,0,1,,,0,,,77,64
171832,note_off,,,,,0,0,1,,,0,,,80,64
171832,note_off,,,,,52,0,2,,,0,,,49,64
171840,note_on,,,,,8,0,2,,,0,,,38,117
171840,control_change,,,,,0,0,2,,,0,64,127,,
171840,note_on,,,,,0,0,2,,,0,,,50,117
171900,note_on,,,,,68,0,1,,,0,,,54,96
171960,note_off,,,,,60,0,1,,,0,,,54,64
171960,note_on,,,,,0,0,1,,,0,,,56,94
172020,note_on,,,,,0,0,1,,,0,,,57,90
172020,note_off,,,,,60,0,1,,,0,,,56,64
172080,note_off,,,,,60,0,1,,,0,,,57,64
172080,note_off,,,,,0,0,2,,,0,,,38,64
172080,note_off,,,,,240,0,2,,,0,,,50,64
172080,note_on,,,,,0,0,1,,,0,,,59,86
172100,set_tempo,,,,,420,1,0,444444,,,,,,
172140,note_off,,,,,60,0,1,,,0,,,59,64
172140,note_on,,,,,0,0,1,,,0,,,61,82
172200,note_off,,,,,60,0,1,,,0,,,61,64
172200,note_on,,,,,0,0,1,,,0,,,63,79
172260,note_off,,,,,60,0,1,,,0,,,63,64
172260,note_on,,,,,0,0,1,,,0,,,65,78
172290,control_change,,,,,210,0,2,,,0,64,0,,
172320,note_on,,,,,0,0,2,,,0,,,62,127
172320,control_change,,,,,30,0,2,,,0,64,127,,
172320,note_on,,,,,0,0,2,,,0,,,50,127
172320,note_off,,,,,60,0,1,,,0,,,65,64
172320,note_on,,,,,0,0,1,,,0,,,66,82
172380,note_off,,,,,60,0,1,,,0,,,66,64
172380,note_on,,,,,0,0,1,,,0,,,68,85
172440,note_on,,,,,0,0,1,,,0,,,69,90
172440,note_off,,,,,60,0,1,,,0,,,68,64
172500,note_off,,,,,60,0,1,,,0,,,69,64
172500,note_on,,,,,0,0,1,,,0,,,71,95
172560,set_tempo,,,,,460,1,0,434783,,,,,,
172560,note_off,,,,,60,0,1,,,0,,,71,64
172560,note_on,,,,,0,0,1,,,0,,,73,99
172560,note_on,,,,,0,0,2,,,0,,,61,101
172560,note_off,,,,,0,0,2,,,0,,,50,64
172560,note_off,,,,,240,0,2,,,0,,,62,64
172560,note_on,,,,,0,0,2,,,0,,,49,101
172620,note_off,,,,,60,0,1,,,0,,,73,64
172620,note_on,,,,,0,0,1,,,0,,,75,104
172680,note_off,,,,,60,0,1,,,0,,,75,64
172680,note_on,,,,,0,0,1,,,0,,,77,110
172740,note_off,,,,,60,0,1,,,0,,,77,64
172740,note_off,,,,,0,0,2,,,0,,,49,64
172740,note_off,,,,,180,0,2,,,0,,,61,64
172740,note_on,,,,,0,0,1,,,0,,,78,116
172770,control_change,,,,,30,0,2,,,0,64,0,,
172800,note_on,,,,,0,0,2,,,0,,,48,118
172800,note_on,,,,,0,0,1,,,0,,,80,117
172800,note_off,,,,,60,0,1,,,0,,,78,64
172800,control_change,,,,,30,0,2,,,0,64,127,,
172800,note_on,,,,,0,0,2,,,0,,,51,121
172800,note_on,,,,,0,0,2,,,0,,,60,124
172800,set_tempo,,,,,240,1,0,422535,,,,,,
172800,note_on,,,,,0,0,2,,,0,,,56,123
172820,set_tempo,,,,,20,1,0,419580,,,,,,
172860,note_off,,,,,60,0,1,,,0,,,80,64
172920,note_on,,,,,60,0,1,,,0,,,68,107
172980,note_off,,,,,60,0,1,,,0,,,68,64
173040,note_on,,,,,60,0,1,,,0,,,92,126
173100,note_off,,,,,60,0,1,,,0,,,92,64
173160,note_on,,,,,60,0,1,,,0,,,80,103
173220,note_off,,,,,60,0,1,,,0,,,80,64
173250,control_change,,,,,450,0,2,,,0,64,0,,
173280,note_off,,,,,30,0,2,,,0,,,51,64
173280,note_on,,,,,0,0,2,,,0,,,50,127
173280,note_on,,,,,0,0,2,,,0,,,38,127
173280,control_change,,,,,0,0,2,,,0,64,127,,
173280,note_off,,,,,0,0,2,,,0,,,60,64
173280,note_off,,,,,0,0,2,,,0,,,56,64
173280,note_off,,,,,0,0,2,,,0,,,48,64
173280,note_on,,,,,60,0,1,,,0,,,66,82
173340,note_off,,,,,60,0,1,,,0,,,66,64
173340,note_on,,,,,0,0,1,,,0,,,68,82
173400,note_on,,,,,0,0,1,,,0,,,69,82
173400,set_tempo,,,,,580,1,0,434783,,,,,,
173400,note_off,,,,,60,0,1,,,0,,,68,64
173460,note_off,,,,,60,0,1,,,0,,,69,64
173460,note_on,,,,,0,0,1,,,0,,,71,87
173520,note_on,,,,,0,0,2,,,0,,,37,116
173520,note_on,,,,,0,0,2,,,0,,,49,116
173520,note_on,,,,,0,0,1,,,0,,,73,91
173520,note_off,,,,,240,0,2,,,0,,,50,64
173520,note_off,,,,,60,0,1,,,0,,,71,64
173520,note_off,,,,,0,0,2,,,0,,,38,64
173580,note_on,,,,,0,0,1,,,0,,,75,96
173580,note_off,,,,,60,0,1,,,0,,,73,64
173620,set_tempo,,,,,220,1,0,458015,,,,,,
173640,note_on,,,,,0,0,1,,,0,,,77,101
173640,note_off,,,,,60,0,1,,,0,,,75,64
173700,note_off,,,,,60,0,1,,,0,,,77,64
173700,note_off,,,,,180,0,2,,,0,,,49,64
173700,note_on,,,,,0,0,1,,,0,,,78,104
173700,note_off,,,,,0,0,2,,,0,,,37,64
173720,set_tempo,,,,,100,1,0,483871,,,,,,
173730,control_change,,,,,30,0,2,,,0,64,0,,
173760,note_off,,,,,60,0,1,,,0,,,78,64
173760,note_on,,,,,0,0,2,,,0,,,39,121
173760,control_change,,,,,30,0,2,,,0,64,127,,
173760,note_on,,,,,0,0,2,,,0,,,48,124
173760,note_on,,,,,0,0,2,,,0,,,36,121
173760,note_on,,,,,0,0,2,,,0,,,44,121
173760,note_on,,,,,0,0,1,,,0,,,80,108
173820,note_off,,,,,60,0,1,,,0,,,80,64
173880,note_on,,,,,60,0,1,,,0,,,68,97
173940,note_off,,,,,60,0,1,,,0,,,68,64
174000,note_on,,,,,60,0,1,,,0,,,92,116
174040,set_tempo,,,,,320,1,0,504202,,,,,,
174060,note_off,,,,,60,0,1,,,0,,,92,64
174120,note_on,,,,,60,0,1,,,0,,,80,94
174180,note_off,,,,,60,0,1,,,0,,,80,64
174210,control_change,,,,,450,0,2,,,0,64,0,,
174240,note_on,,,,,0,0,1,,,0,,,75,124
174240,note_on,,,,,60,0,1,,,0,,,80,124
174240,note_off,,,,,0,0,2,,,0,,,36,64
174240,note_on,,,,,0,0,1,,,0,,,68,124
174240,note_off,,,,,0,0,2,,,0,,,44,64
174240,note_on,,,,,0,0,2,,,0,,,36,123
174240,note_off,,,,,30,0,2,,,0,,,39,64
174240,control_change,,,,,0,0,2,,,0,64,127,,
174240,note_off,,,,,0,0,2,,,0,,,48,64
174320,note_off,,,,,80,0,2,,,0,,,36,64
174320,note_on,,,,,0,0,2,,,0,,,39,101
174320,set_tempo,,,,,280,1,0,487805,,,,,,
174400,note_off,,,,,80,0,2,,,0,,,39,64
174400,note_on,,,,,0,0,2,,,0,,,44,107
174480,note_off,,,,,80,0,2,,,0,,,44,64
174480,note_on,,,,,0,0,2,,,0,,,48,113
174520,set_tempo,,,,,200,1,0,465116,,,,,,
174560,note_off,,,,,80,0,2,,,0,,,48,64
174560,note_on,,,,,0,0,2,,,0,,,51,119
174600,note_off,,,,,0,0,1,,,0,,,75,64
174600,note_on,,,,,0,0,1,,,0,,,68,115
174600,note_on,,,,,0,0,1,,,0,,,75,115
174600,note_off,,,,,360,0,1,,,0,,,68,64
174600,note_on,,,,,0,0,1,,,0,,,80,115
174600,note_off,,,,,0,0,1,,,0,,,80,64
174640,note_on,,,,,0,0,2,,,0,,,56,125
174640,note_off,,,,,80,0,2,,,0,,,51,64
174680,set_tempo,,,,,160,1,0,451128,,,,,,
174690,control_change,,,,,50,0,2,,,0,64,0,,
174690,note_off,,,,,0,0,1,,,0,,,75,64
174690,note_off,,,,,0,0,1,,,0,,,80,64
174690,note_off,,,,,90,0,1,,,0,,,68,64
174720,control_change,,,,,0,0,2,,,0,64,127,,
174720,note_on,,,,,30,0,1,,,0,,,76,126
174720,note_on,,,,,0,0,1,,,0,,,73,126
174720,note_off,,,,,30,0,2,,,0,,,56,64
174720,note_on,,,,,0,0,2,,,0,,,37,126
174800,note_off,,,,,80,0,2,,,0,,,37,64
174800,note_off,,,,,80,0,1,,,0,,,73,64
174800,note_off,,,,,0,0,1,,,0,,,76,64
174800,note_on,,,,,0,0,1,,,0,,,68,118
174800,note_on,,,,,0,0,2,,,0,,,49,118
174860,set_tempo,,,,,180,1,0,431655,,,,,,
174880,note_off,,,,,80,0,2,,,0,,,49,64
174880,note_off,,,,,80,0,1,,,0,,,68,64
174880,note_on,,,,,0,0,1,,,0,,,76,111
174880,note_on,,,,,0,0,1,,,0,,,73,111
174880,note_on,,,,,0,0,2,,,0,,,37,111
174900,control_change,,,,,20,0,2,,,0,64,0,,
174952,note_off,,,,,72,0,1,,,0,,,73,64
174952,note_off,,,,,0,0,1,,,0,,,76,64
174952,note_off,,,,,52,0,2,,,0,,,37,64
174960,note_on,,,,,8,0,2,,,0,,,30,115
174960,control_change,,,,,0,0,2,,,0,64,127,,
174960,note_on,,,,,8,0,1,,,0,,,78,116
174960,note_on,,,,,0,0,1,,,0,,,75,116
175040,note_off,,,,,0,0,1,,,0,,,78,64
175040,note_on,,,,,0,0,2,,,0,,,42,108
175040,note_on,,,,,0,0,1,,,0,,,69,108
175040,note_off,,,,,80,0,1,,,0,,,75,64
175040,note_off,,,,,80,0,2,,,0,,,30,64
175080,set_tempo,,,,,220,1,0,425532,,,,,,
175120,note_off,,,,,80,0,1,,,0,,,69,64
175120,note_on,,,,,0,0,1,,,0,,,78,109
175120,note_on,,,,,0,0,2,,,0,,,30,109
175120,note_off,,,,,80,0,2,,,0,,,42,64
175120,note_on,,,,,0,0,1,,,0,,,75,109
175140,control_change,,,,,20,0,2,,,0,64,0,,
175192,note_off,,,,,72,0,1,,,0,,,75,64
175192,note_off,,,,,0,0,1,,,0,,,78,64
175192,note_off,,,,,52,0,2,,,0,,,30,64
175200,control_change,,,,,0,0,2,,,0,64,127,,
175200,note_on,,,,,8,0,1,,,0,,,76,121
175200,note_on,,,,,0,0,1,,,0,,,73,121
175200,note_on,,,,,8,0,2,,,0,,,32,119
175220,set_tempo,,,,,140,1,0,441176,,,,,,
175280,note_on,,,,,0,0,2,,,0,,,44,115
175280,note_off,,,,,80,0,2,,,0,,,32,64
175280,note_off,,,,,80,0,1,,,0,,,73,64
175280,note_off,,,,,0,0,1,,,0,,,76,64
175280,note_on,,,,,0,0,1,,,0,,,68,114
175320,set_tempo,,,,,100,1,0,451128,,,,,,
175360,note_off,,,,,80,0,2,,,0,,,44,64
175360,note_on,,,,,0,0,2,,,0,,,32,108
175360,note_on,,,,,0,0,1,,,0,,,76,110
175360,note_off,,,,,80,0,1,,,0,,,68,64
175360,note_on,,,,,0,0,1,,,0,,,73,110
175380,control_change,,,,,20,0,2,,,0,64,0,,
175432,note_off,,,,,0,0,1,,,0,,,76,64
175432,note_off,,,,,72,0,1,,,0,,,73,64
175432,note_off,,,,,52,0,2,,,0,,,32,64
175440,control_change,,,,,0,0,2,,,0,64,127,,
175440,note_on,,,,,8,0,2,,,0,,,44,106
175440,note_on,,,,,0,0,1,,,0,,,72,112
175440,note_on,,,,,8,0,1,,,0,,,75,112
175440,set_tempo,,,,,120,1,0,468750,,,,,,
175520,note_on,,,,,0,0,2,,,0,,,32,101
175520,note_off,,,,,80,0,1,,,0,,,72,64
175520,note_off,,,,,0,0,1,,,0,,,75,64
175520,note_on,,,,,0,0,1,,,0,,,68,105
175520,note_off,,,,,80,0,2,,,0,,,44,64
175600,note_off,,,,,80,0,2,,,0,,,32,64
175600,note_on,,,,,0,0,2,,,0,,,44,96
175600,note_off,,,,,80,0,1,,,0,,,68,64
175600,note_on,,,,,0,0,1,,,0,,,75,101
175600,set_tempo,,,,,160,1,0,487805,,,,,,
175600,note_on,,,,,0,0,1,,,0,,,72,101
175620,control_change,,,,,20,0,2,,,0,64,0,,
175672,note_off,,,,,52,0,2,,,0,,,44,64
175672,note_off,,,,,72,0,1,,,0,,,72,64
175672,note_off,,,,,0,0,1,,,0,,,75,64
175680,note_on,,,,,8,0,2,,,0,,,37,100
175680,note_on,,,,,8,0,1,,,0,,,73,107
175700,set_tempo,,,,,100,1,0,545455,,,,,,
175760,note_off,,,,,80,0,2,,,0,,,37,64
175760,note_on,,,,,0,0,2,,,0,,,36,90
175770,note_off,,,,,90,0,1,,,0,,,73,64
175800,set_tempo,,,,,100,1,0,521739,,,,,,
175840,note_off,,,,,80,0,2,,,0,,,36,64
175840,note_on,,,,,0,0,2,,,0,,,37,84
175880,set_tempo,,,,,80,1,0,491803,,,,,,
175920,note_on,,,,,0,0,2,,,0,,,40,83
175920,control_change,,,,,0,0,2,,,0,64,127,,
175920,note_off,,,,,80,0,2,,,0,,,37,64
175920,note_on,,,,,0,0,1,,,0,,,52,83
175920,note_on,,,,,150,0,1,,,0,,,64,83
176000,set_tempo,,,,,120,1,0,461538,,,,,,
176000,note_off,,,,,80,0,2,,,0,,,40,64
176000,note_on,,,,,0,0,2,,,0,,,37,79
176080,note_off,,,,,80,0,2,,,0,,,37,64
176080,note_on,,,,,0,0,2,,,0,,,40,72
176120,set_tempo,,,,,120,1,0,447761,,,,,,
176160,note_on,,,,,0,0,2,,,0,,,37,76
176160,note_off,,,,,80,0,2,,,0,,,40,64
176240,note_on,,,,,0,0,2,,,0,,,36,73
176240,note_off,,,,,80,0,2,,,0,,,37,64
176320,note_off,,,,,80,0,2,,,0,,,36,64
176320,note_on,,,,,0,0,2,,,0,,,37,70
176400,note_off,,,,,480,0,1,,,0,,,52,64
176400,note_off,,,,,80,0,2,,,0,,,37,64
176400,control_change,,,,,0,0,2,,,0,64,0,,
176400,note_on,,,,,0,0,1,,,0,,,57,63
176400,note_on,,,,,0,0,1,,,0,,,69,63
176400,note_off,,,,,0,0,1,,,0,,,64,64
176400,note_on,,,,,0,0,2,,,0,,,40,64
176480,note_on,,,,,0,0,2,,,0,,,37,69
176480,note_off,,,,,80,0,2,,,0,,,40,64
176520,note_off,,,,,0,0,1,,,0,,,69,64
176520,note_off,,,,,120,0,1,,,0,,,57,64
176560,note_off,,,,,80,0,2,,,0,,,37,64
176560,note_on,,,,,0,0,2,,,0,,,40,76
176640,note_off,,,,,80,0,2,,,0,,,40,64
176640,note_on,,,,,0,0,1,,,0,,,56,72
176640,note_on,,,,,120,0,1,,,0,,,68,72
176640,note_on,,,,,0,0,2,,,0,,,37,84
176720,note_off,,,,,80,0,2,,,0,,,37,64
176720,note_on,,,,,0,0,2,,,0,,,36,73
176800,note_off,,,,,80,0,2,,,0,,,36,64
176800,note_on,,,,,0,0,2,,,0,,,37,77
176880,note_on,,,,,0,0,1,,,0,,,67,63
176880,note_on,,,,,0,0,2,,,0,,,40,83
176880,note_on,,,,,0,0,1,,,0,,,55,63
176880,note_off,,,,,0,0,1,,,0,,,68,64
176880,note_off,,,,,240,0,1,,,0,,,56,64
176880,note_off,,,,,80,0,2,,,0,,,37,64
176920,set_tempo,,,,,800,1,0,441176,,,,,,
176960,note_off,,,,,80,0,2,,,0,,,40,64
176960,note_on,,,,,0,0,2,,,0,,,37,81
177000,note_off,,,,,0,0,1,,,0,,,67,64
177000,note_off,,,,,120,0,1,,,0,,,55,64
177040,note_on,,,,,0,0,2,,,0,,,40,88
177040,note_off,,,,,80,0,2,,,0,,,37,64
177080,set_tempo,,,,,160,1,0,606061,,,,,,
177120,note_on,,,,,120,0,1,,,0,,,68,100
177120,control_change,,,,,0,0,2,,,0,64,127,,
177120,note_off,,,,,80,0,2,,,0,,,40,64
177120,note_on,,,,,0,0,1,,,0,,,64,100
177120,note_on,,,,,0,0,1,,,0,,,61,100
177120,note_on,,,,,0,0,1,,,0,,,56,100
177120,note_on,,,,,0,0,2,,,0,,,37,119
177140,set_tempo,,,,,60,1,0,458015,,,,,,
177200,note_on,,,,,0,0,2,,,0,,,36,114
177200,note_off,,,,,80,0,2,,,0,,,37,64
177280,note_off,,,,,80,0,2,,,0,,,36,64
177280,note_on,,,,,0,0,2,,,0,,,37,105
177340,set_tempo,,,,,200,1,0,447761,,,,,,
177360,note_off,,,,,80,0,2,,,0,,,37,64
177360,control_change,,,,,0,0,2,,,0,64,0,,
177360,note_on,,,,,0,0,2,,,0,,,40,95
177440,note_off,,,,,80,0,2,,,0,,,40,64
177440,note_on,,,,,0,0,2,,,0,,,37,89
177520,note_off,,,,,80,0,2,,,0,,,37,64
177520,note_on,,,,,0,0,2,,,0,,,40,84
177540,note_off,,,,,0,0,1,,,0,,,68,64
177540,note_off,,,,,0,0,1,,,0,,,64,64
177540,note_off,,,,,0,0,1,,,0,,,61,64
177540,note_off,,,,,420,0,1,,,0,,,56,64
177600,note_on,,,,,0,0,2,,,0,,,39,77
177600,note_on,,,,,0,0,1,,,0,,,56,72
177600,note_on,,,,,60,0,1,,,0,,,68,72
177600,set_tempo,,,,,260,1,0,434783,,,,,,
177600,note_off,,,,,80,0,2,,,0,,,40,64
177620,set_tempo,,,,,20,1,0,431655,,,,,,
177680,note_on,,,,,0,0,2,,,0,,,38,71
177680,note_off,,,,,80,0,2,,,0,,,39,64
177760,note_off,,,,,80,0,2,,,0,,,38,64
177760,note_on,,,,,0,0,2,,,0,,,39,71
177840,note_off,,,,,240,0,1,,,0,,,56,64
177840,note_on,,,,,0,0,1,,,0,,,55,62
177840,note_off,,,,,0,0,1,,,0,,,68,64
177840,note_on,,,,,0,0,1,,,0,,,67,62
177840,note_off,,,,,80,0,2,,,0,,,39,64
177840,note_on,,,,,0,0,2,,,0,,,42,73
177920,note_on,,,,,0,0,2,,,0,,,39,77
177920,note_off,,,,,80,0,2,,,0,,,42,64
177960,note_off,,,,,120,0,1,,,0,,,55,64
177960,note_off,,,,,0,0,1,,,0,,,67,64
178000,note_off,,,,,80,0,2,,,0,,,39,64
178000,note_on,,,,,0,0,2,,,0,,,42,83
178020,set_tempo,,,,,400,1,0,618557,,,,,,
178080,note_on,,,,,120,0,1,,,0,,,66,105
178080,note_off,,,,,80,0,2,,,0,,,42,64
178080,control_change,,,,,0,0,2,,,0,64,127,,
178080,note_on,,,,,0,0,2,,,0,,,39,118
178080,note_on,,,,,0,0,1,,,0,,,56,105
178080,note_on,,,,,0,0,1,,,0,,,68,105
178080,note_on,,,,,0,0,1,,,0,,,60,105
178080,set_tempo,,,,,60,1,0,451128,,,,,,
178100,set_tempo,,,,,20,1,0,434783,,,,,,
178160,note_on,,,,,0,0,2,,,0,,,38,117
178160,note_off,,,,,80,0,2,,,0,,,39,64
178240,note_on,,,,,0,0,2,,,0,,,39,113
178240,note_off,,,,,80,0,2,,,0,,,38,64
178320,control_change,,,,,0,0,2,,,0,64,0,,
178320,set_tempo,,,,,220,1,0,422535,,,,,,
178320,note_on,,,,,0,0,2,,,0,,,42,108
178320,note_off,,,,,80,0,2,,,0,,,39,64
178400,note_on,,,,,0,0,2,,,0,,,39,101
178400,note_off,,,,,80,0,2,,,0,,,42,64
178460,set_tempo,,,,,140,1,0,413793,,,,,,
178480,note_on,,,,,0,0,2,,,0,,,42,91
178480,note_off,,,,,80,0,2,,,0,,,39,64
178500,note_off,,,,,0,0,1,,,0,,,60,64
178500,note_off,,,,,420,0,1,,,0,,,56,64
178500,note_off,,,,,0,0,1,,,0,,,66,64
178500,note_off,,,,,0,0,1,,,0,,,68,64
178560,note_off,,,,,80,0,2,,,0,,,42,64
178560,note_on,,,,,0,0,2,,,0,,,40,76
178560,note_on,,,,,60,0,1,,,0,,,68,74
178560,note_on,,,,,0,0,1,,,0,,,56,74
178640,note_on,,,,,0,0,2,,,0,,,39,69
178640,note_off,,,,,80,0,2,,,0,,,40,64
178720,note_on,,,,,0,0,2,,,0,,,40,67
178720,note_off,,,,,80,0,2,,,0,,,39,64
178800,note_off,,,,,0,0,1,,,0,,,68,64
178800,note_on,,,,,0,0,1,,,0,,,67,64
178800,note_on,,,,,0,0,1,,,0,,,55,64
178800,note_off,,,,,240,0,1,,,0,,,56,64
178800,note_on,,,,,0,0,2,,,0,,,44,67
178800,note_off,,,,,80,0,2,,,0,,,40,64
178880,note_on,,,,,0,0,2,,,0,,,40,69
178880,note_off,,,,,80,0,2,,,0,,,44,64
178900,set_tempo,,,,,440,1,0,425532,,,,,,
178920,note_off,,,,,120,0,1,,,0,,,55,64
178920,note_off,,,,,0,0,1,,,0,,,67,64
178960,note_off,,,,,80,0,2,,,0,,,40,64
178960,note_on,,,,,0,0,2,,,0,,,44,80
179000,set_tempo,,,,,100,1,0,631579,,,,,,
179040,note_off,,,,,80,0,2,,,0,,,44,64
179040,note_on,,,,,0,0,2,,,0,,,40,126
179040,control_change,,,,,0,0,2,,,0,64,127,,
179040,note_on,,,,,0,0,1,,,0,,,61,116
179040,note_on,,,,,0,0,1,,,0,,,68,116
179040,note_on,,,,,120,0,1,,,0,,,73,116
179060,set_tempo,,,,,60,1,0,441176,,,,,,
179120,note_on,,,,,0,0,2,,,0,,,39,127
179120,note_off,,,,,80,0,2,,,0,,,40,64
179200,note_on,,,,,0,0,2,,,0,,,40,122
179200,note_off,,,,,80,0,2,,,0,,,39,64
179280,note_off,,,,,80,0,2,,,0,,,40,64
179280,note_on,,,,,0,0,2,,,0,,,44,114
179280,control_change,,,,,0,0,2,,,0,64,0,,
179360,note_off,,,,,80,0,2,,,0,,,44,64
179360,note_on,,,,,0,0,2,,,0,,,40,107
179440,note_off,,,,,80,0,2,,,0,,,40,64
179440,note_on,,,,,0,0,2,,,0,,,44,95
179460,note_off,,,,,0,0,1,,,0,,,68,64
179460,note_off,,,,,420,0,1,,,0,,,61,64
179460,note_off,,,,,0,0,1,,,0,,,73,64
179520,note_off,,,,,80,0,2,,,0,,,44,64
179520,note_on,,,,,0,0,2,,,0,,,42,88
179520,note_on,,,,,0,0,1,,,0,,,57,94
179520,note_on,,,,,60,0,1,,,0,,,69,94
179600,note_off,,,,,80,0,2,,,0,,,42,64
179600,note_on,,,,,0,0,2,,,0,,,41,84
179680,set_tempo,,,,,620,1,0,458015,,,,,,
179680,note_off,,,,,80,0,2,,,0,,,41,64
179680,note_on,,,,,0,0,2,,,0,,,42,81
179760,note_on,,,,,0,0,2,,,0,,,45,80
179760,note_off,,,,,240,0,1,,,0,,,57,64
179760,note_off,,,,,0,0,1,,,0,,,69,64
179760,note_on,,,,,0,0,1,,,0,,,66,86
179760,note_on,,,,,0,0,1,,,0,,,54,86
179760,note_off,,,,,80,0,2,,,0,,,42,64
179840,note_off,,,,,80,0,2,,,0,,,45,64
179840,note_on,,,,,0,0,2,,,0,,,42,73
179860,set_tempo,,,,,180,1,0,472441,,,,,,
179920,note_off,,,,,80,0,2,,,0,,,42,64
179920,note_on,,,,,0,0,2,,,0,,,45,64
180000,note_off,,,,,240,0,1,,,0,,,54,64
180000,note_on,,,,,0,0,1,,,0,,,51,78
180000,note_on,,,,,0,0,1,,,0,,,63,78
180000,note_off,,,,,80,0,2,,,0,,,45,64
180000,note_on,,,,,0,0,2,,,0,,,44,75
180000,set_tempo,,,,,140,1,0,487805,,,,,,
180000,note_off,,,,,0,0,1,,,0,,,66,64
180080,note_on,,,,,0,0,2,,,0,,,43,69
180080,note_off,,,,,80,0,2,,,0,,,44,64
180160,note_on,,,,,0,0,2,,,0,,,44,67
180160,set_tempo,,,,,160,1,0,504202,,,,,,
180160,note_off,,,,,80,0,2,,,0,,,43,64
180240,note_off,,,,,80,0,2,,,0,,,44,64
180240,note_on,,,,,0,0,2,,,0,,,48,65
180240,note_on,,,,,0,0,1,,,0,,,56,60
180240,note_on,,,,,0,0,1,,,0,,,68,60
180240,note_off,,,,,0,0,1,,,0,,,63,64
180240,note_off,,,,,240,0,1,,,0,,,51,64
180320,note_off,,,,,80,0,2,,,0,,,48,64
180320,note_on,,,,,0,0,2,,,0,,,44,58
180340,set_tempo,,,,,180,1,0,560748,,,,,,
180400,note_off,,,,,80,0,2,,,0,,,44,64
180400,note_on,,,,,0,0,2,,,0,,,48,53
180480,note_off,,,,,0,0,1,,,0,,,68,64
180480,note_off,,,,,80,0,2,,,0,,,48,64
180480,note_on,,,,,0,0,2,,,0,,,49,57
180480,note_on,,,,,0,0,1,,,0,,,73,57
180480,note_off,,,,,240,0,1,,,0,,,56,64
180520,set_tempo,,,,,180,1,0,508475,,,,,,
180540,note_off,,,,,60,0,1,,,0,,,73,64
180540,note_on,,,,,0,0,1,,,0,,,72,39
180600,note_off,,,,,60,0,1,,,0,,,72,64
180600,note_off,,,,,120,0,2,,,0,,,49,64
180600,note_on,,,,,0,0,1,,,0,,,73,46
180660,note_off,,,,,60,0,1,,,0,,,73,64
180660,note_on,,,,,0,0,1,,,0,,,75,52
180680,set_tempo,,,,,160,1,0,491803,,,,,,
180720,control_change,,,,,120,0,2,,,0,64,127,,
180720,note_off,,,,,60,0,1,,,0,,,75,64
180720,note_on,,,,,0,0,1,,,0,,,76,54
180720,note_on,,,,,0,0,2,,,0,,,52,69
180780,note_on,,,,,0,0,1,,,0,,,78,54
180780,note_off,,,,,60,0,1,,,0,,,76,64
180840,note_off,,,,,60,0,1,,,0,,,78,64
180840,note_on,,,,,0,0,1,,,0,,,76,50
180840,set_tempo,,,,,160,1,0,472441,,,,,,
180900,note_off,,,,,60,0,1,,,0,,,76,64
180900,note_on,,,,,0,0,1,,,0,,,75,45
180960,note_off,,,,,60,0,1,,,0,,,75,64
180960,note_on,,,,,0,0,1,,,0,,,73,53
181020,note_off,,,,,60,0,1,,,0,,,73,64
181020,note_on,,,,,0,0,1,,,0,,,72,42
181080,note_on,,,,,0,0,1,,,0,,,73,46
181080,note_off,,,,,60,0,1,,,0,,,72,64
181080,set_tempo,,,,,240,1,0,451128,,,,,,
181140,note_off,,,,,60,0,1,,,0,,,73,64
181140,note_on,,,,,0,0,1,,,0,,,75,51
181200,note_off,,,,,480,0,2,,,0,,,52,64
181200,control_change,,,,,0,0,2,,,0,64,0,,
181200,note_on,,,,,0,0,2,,,0,,,57,63
181200,note_on,,,,,0,0,1,,,0,,,76,55
181200,note_off,,,,,60,0,1,,,0,,,75,64
181260,note_on,,,,,0,0,1,,,0,,,78,55
181260,note_off,,,,,60,0,1,,,0,,,76,64
181320,note_off,,,,,60,0,1,,,0,,,78,64
181320,note_on,,,,,0,0,1,,,0,,,76,52
181320,note_off,,,,,120,0,2,,,0,,,57,64
181380,note_on,,,,,0,0,1,,,0,,,75,48
181380,note_off,,,,,60,0,1,,,0,,,76,64
181440,note_on,,,,,0,0,1,,,0,,,73,56
181440,note_off,,,,,60,0,1,,,0,,,75,64
181440,note_on,,,,,120,0,2,,,0,,,56,72
181480,set_tempo,,,,,400,1,0,441176,,,,,,
181500,note_off,,,,,60,0,1,,,0,,,73,64
181500,note_on,,,,,0,0,1,,,0,,,72,53
181560,note_off,,,,,60,0,1,,,0,,,72,64
181560,note_on,,,,,0,0,1,,,0,,,73,56
181620,note_off,,,,,60,0,1,,,0,,,73,64
181620,note_on,,,,,0,0,1,,,0,,,75,63
181680,note_on,,,,,0,0,1,,,0,,,76,68
181680,note_off,,,,,240,0,2,,,0,,,56,64
181680,note_on,,,,,0,0,2,,,0,,,55,63
181680,note_off,,,,,60,0,1,,,0,,,75,64
181740,note_off,,,,,60,0,1,,,0,,,76,64
181740,note_on,,,,,0,0,1,,,0,,,78,74
181800,note_off,,,,,60,0,1,,,0,,,78,64
181800,note_on,,,,,0,0,1,,,0,,,76,81
181800,note_off,,,,,120,0,2,,,0,,,55,64
181860,note_off,,,,,60,0,1,,,0,,,76,64
181860,note_on,,,,,0,0,1,,,0,,,75,87
181860,set_tempo,,,,,380,1,0,526316,,,,,,
181880,set_tempo,,,,,20,1,0,540541,,,,,,
181900,set_tempo,,,,,20,1,0,560748,,,,,,
181920,note_off,,,,,60,0,1,,,0,,,75,64
181920,note_on,,,,,0,0,1,,,0,,,73,92
181920,note_on,,,,,0,0,2,,,0,,,56,100
181920,set_tempo,,,,,20,1,0,555556,,,,,,
181920,note_on,,,,,0,0,2,,,0,,,52,100
181920,note_on,,,,,0,0,2,,,0,,,49,100
181920,control_change,,,,,120,0,2,,,0,64,127,,
181940,set_tempo,,,,,20,1,0,458015,,,,,,
181980,note_on,,,,,0,0,1,,,0,,,72,86
181980,note_off,,,,,60,0,1,,,0,,,73,64
182040,note_off,,,,,60,0,1,,,0,,,72,64
182040,note_on,,,,,0,0,1,,,0,,,73,79
182100,note_off,,,,,60,0,1,,,0,,,73,64
182100,note_on,,,,,0,0,1,,,0,,,75,73
182160,note_on,,,,,0,0,1,,,0,,,76,69
182160,note_off,,,,,60,0,1,,,0,,,75,64
182220,note_on,,,,,0,0,1,,,0,,,78,61
182220,note_off,,,,,60,0,1,,,0,,,76,64
182280,control_change,,,,,360,0,2,,,0,64,0,,
182280,note_on,,,,,0,0,1,,,0,,,76,57
182280,note_off,,,,,60,0,1,,,0,,,78,64
182340,note_on,,,,,0,0,1,,,0,,,73,55
182340,note_off,,,,,0,0,2,,,0,,,49,64
182340,note_off,,,,,0,0,2,,,0,,,52,64
182340,note_off,,,,,60,0,2,,,0,,,56,64
182340,note_off,,,,,60,0,1,,,0,,,76,64
182400,note_on,,,,,60,0,2,,,0,,,56,72
182400,set_tempo,,,,,460,1,0,444444,,,,,,
182400,note_on,,,,,0,0,1,,,0,,,75,56
182400,note_off,,,,,60,0,1,,,0,,,73,64
182460,note_on,,,,,0,0,1,,,0,,,74,53
182460,note_off,,,,,60,0,1,,,0,,,75,64
182520,note_off,,,,,60,0,1,,,0,,,74,64
182520,note_on,,,,,0,0,1,,,0,,,75,56
182580,note_off,,,,,60,0,1,,,0,,,75,64
182580,note_on,,,,,0,0,1,,,0,,,76,63
182640,note_on,,,,,0,0,1,,,0,,,78,68
182640,note_off,,,,,60,0,1,,,0,,,76,64
182640,note_on,,,,,0,0,2,,,0,,,55,62
182640,note_off,,,,,240,0,2,,,0,,,56,64
182700,note_off,,,,,60,0,1,,,0,,,78,64
182700,note_on,,,,,0,0,1,,,0,,,80,74
182760,note_off,,,,,60,0,1,,,0,,,80,64
182760,note_on,,,,,0,0,1,,,0,,,78,81
182760,note_off,,,,,120,0,2,,,0,,,55,64
182820,set_tempo,,,,,420,1,0,545455,,,,,,
182820,note_on,,,,,0,0,1,,,0,,,76,87
182820,note_off,,,,,60,0,1,,,0,,,78,64
182880,note_on,,,,,0,0,1,,,0,,,75,92
182880,control_change,,,,,120,0,2,,,0,64,127,,
182880,note_on,,,,,0,0,2,,,0,,,54,105
182880,note_on,,,,,0,0,2,,,0,,,48,105
182880,note_on,,,,,0,0,2,,,0,,,56,105
182880,note_off,,,,,60,0,1,,,0,,,76,64
182880,set_tempo,,,,,60,1,0,437956,,,,,,
182900,set_tempo,,,,,20,1,0,431655,,,,,,
182940,note_off,,,,,60,0,1,,,0,,,75,64
182940,note_on,,,,,0,0,1,,,0,,,74,86
183000,note_off,,,,,60,0,1,,,0,,,74,64
183000,note_on,,,,,0,0,1,,,0,,,75,79
183060,note_off,,,,,60,0,1,,,0,,,75,64
183060,note_on,,,,,0,0,1,,,0,,,76,73
183120,note_on,,,,,0,0,1,,,0,,,78,69
183120,note_off,,,,,60,0,1,,,0,,,76,64
183180,note_off,,,,,60,0,1,,,0,,,78,64
183180,note_on,,,,,0,0,1,,,0,,,80,61
183180,set_tempo,,,,,280,1,0,416667,,,,,,
183240,note_off,,,,,60,0,1,,,0,,,80,64
183240,control_change,,,,,360,0,2,,,0,64,0,,
183240,note_on,,,,,0,0,1,,,0,,,78,57
183300,note_off,,,,,60,0,2,,,0,,,56,64
183300,note_off,,,,,0,0,2,,,0,,,48,64
183300,note_off,,,,,0,0,2,,,0,,,54,64
183300,note_off,,,,,60,0,1,,,0,,,78,64
183300,note_on,,,,,0,0,1,,,0,,,75,55
183360,note_on,,,,,60,0,2,,,0,,,56,74
183360,note_on,,,,,0,0,1,,,0,,,76,56
183360,note_off,,,,,60,0,1,,,0,,,75,64
183420,note_on,,,,,0,0,1,,,0,,,75,53
183420,note_off,,,,,60,0,1,,,0,,,76,64
183480,note_off,,,,,60,0,1,,,0,,,75,64
183480,note_on,,,,,0,0,1,,,0,,,76,56
183540,note_on,,,,,0,0,1,,,0,,,78,63
183540,note_off,,,,,60,0,1,,,0,,,76,64
183600,note_on,,,,,0,0,1,,,0,,,80,68
183600,note_off,,,,,240,0,2,,,0,,,56,64
183600,note_off,,,,,60,0,1,,,0,,,78,64
183600,note_on,,,,,0,0,2,,,0,,,55,64
183660,note_off,,,,,60,0,1,,,0,,,80,64
183660,note_on,,,,,0,0,1,,,0,,,81,74
183720,note_on,,,,,0,0,1,,,0,,,80,81
183720,note_off,,,,,60,0,1,,,0,,,81,64
183720,note_off,,,,,120,0,2,,,0,,,55,64
183780,note_off,,,,,60,0,1,,,0,,,80,64
183780,note_on,,,,,0,0,1,,,0,,,78,87
183800,set_tempo,,,,,620,1,0,483871,,,,,,
183840,note_on,,,,,0,0,1,,,0,,,76,92
183840,note_off,,,,,60,0,1,,,0,,,78,64
183840,control_change,,,,,120,0,2,,,0,64,127,,
183840,note_on,,,,,0,0,2,,,0,,,52,116
183840,note_on,,,,,0,0,2,,,0,,,56,116
183840,note_on,,,,,0,0,2,,,0,,,61,116
183900,note_on,,,,,0,0,1,,,0,,,75,86
183900,note_off,,,,,60,0,1,,,0,,,76,64
183900,set_tempo,,,,,100,1,0,431655,,,,,,
183960,note_on,,,,,0,0,1,,,0,,,76,79
183960,note_off,,,,,60,0,1,,,0,,,75,64
184020,note_off,,,,,60,0,1,,,0,,,76,64
184020,note_on,,,,,0,0,1,,,0,,,78,73
184080,note_off,,,,,60,0,1,,,0,,,78,64
184080,note_on,,,,,0,0,1,,,0,,,80,69
184140,note_off,,,,,60,0,1,,,0,,,80,64
184140,note_on,,,,,0,0,1,,,0,,,81,61
184140,set_tempo,,,,,240,1,0,408163,,,,,,
184200,note_off,,,,,60,0,1,,,0,,,81,64
184200,control_change,,,,,360,0,2,,,0,64,0,,
184200,note_on,,,,,0,0,1,,,0,,,80,57
184260,note_off,,,,,0,0,2,,,0,,,61,64
184260,note_on,,,,,0,0,1,,,0,,,76,55
184260,note_off,,,,,60,0,1,,,0,,,80,64
184260,note_off,,,,,60,0,2,,,0,,,52,64
184260,note_off,,,,,0,0,2,,,0,,,56,64
184320,control_change,,,,,60,0,2,,,0,64,127,,
184320,note_on,,,,,0,0,1,,,0,,,78,64
184320,note_off,,,,,60,0,1,,,0,,,76,64
184320,note_on,,,,,0,0,2,,,0,,,57,94
184380,note_on,,,,,0,0,1,,,0,,,77,54
184380,note_off,,,,,60,0,1,,,0,,,78,64
184440,note_on,,,,,0,0,1,,,0,,,78,58
184440,note_off,,,,,60,0,1,,,0,,,77,64
184500,note_on,,,,,0,0,1,,,0,,,80,62
184500,note_off,,,,,60,0,1,,,0,,,78,64
184560,note_off,,,,,240,0,2,,,0,,,57,64
184560,note_off,,,,,60,0,1,,,0,,,80,64
184560,note_on,,,,,0,0,1,,,0,,,81,62
184560,set_tempo,,,,,420,1,0,416667,,,,,,
184560,note_on,,,,,0,0,2,,,0,,,54,67
184620,note_off,,,,,60,0,1,,,0,,,81,64
184620,note_on,,,,,0,0,1,,,0,,,83,59
184680,note_off,,,,,60,0,1,,,0,,,83,64
184680,note_on,,,,,0,0,1,,,0,,,81,56
184720,set_tempo,,,,,160,1,0,431655,,,,,,
184740,note_off,,,,,60,0,1,,,0,,,81,64
184740,control_change,,,,,180,0,2,,,0,64,0,,
184740,set_tempo,,,,,20,1,0,434783,,,,,,
184740,note_on,,,,,0,0,1,,,0,,,80,55
184800,note_on,,,,,0,0,2,,,0,,,51,79
184800,note_off,,,,,60,0,2,,,0,,,54,64
184800,note_on,,,,,0,0,1,,,0,,,78,55
184800,note_off,,,,,60,0,1,,,0,,,80,64
184800,control_change,,,,,0,0,2,,,0,64,127,,
184860,note_on,,,,,0,0,1,,,0,,,80,55
184860,note_off,,,,,60,0,1,,,0,,,78,64
184920,note_on,,,,,0,0,1,,,0,,,78,56
184920,note_off,,,,,60,0,1,,,0,,,80,64
184980,note_on,,,,,0,0,1,,,0,,,76,56
184980,note_off,,,,,60,0,1,,,0,,,78,64
185040,note_off,,,,,60,0,1,,,0,,,76,64
185040,note_off,,,,,240,0,2,,,0,,,51,64
185040,note_on,,,,,0,0,2,,,0,,,55,90
185040,note_on,,,,,0,0,1,,,0,,,75,57
185100,note_off,,,,,60,0,1,,,0,,,75,64
185100,note_on,,,,,0,0,1,,,0,,,76,57
185160,note_on,,,,,0,0,1,,,0,,,75,62
185160,note_off,,,,,60,0,1,,,0,,,76,64
185220,note_on,,,,,0,0,1,,,0,,,73,68
185220,note_off,,,,,60,0,1,,,0,,,75,64
185220,control_change,,,,,180,0,2,,,0,64,0,,
185280,note_on,,,,,0,0,1,,,0,,,72,72
185280,note_off,,,,,60,0,1,,,0,,,73,64
185280,note_on,,,,,0,0,2,,,0,,,56,96
185280,control_change,,,,,0,0,2,,,0,64,127,,
185280,note_off,,,,,60,0,2,,,0,,,55,64
185300,set_tempo,,,,,560,1,0,454545,,,,,,
185340,note_off,,,,,60,0,1,,,0,,,72,64
185340,note_on,,,,,0,0,1,,,0,,,75,73
185400,note_on,,,,,0,0,1,,,0,,,72,79
185400,note_off,,,,,60,0,1,,,0,,,75,64
185460,control_change,,,,,0,0,2,,,0,64,0,,
185460,note_off,,,,,60,0,1,,,0,,,72,64
185460,note_on,,,,,0,0,1,,,0,,,69,80
185460,note_off,,,,,180,0,2,,,0,,,56,64
185480,set_tempo,,,,,180,1,0,461538,,,,,,
185500,set_tempo,,,,,20,1,0,468750,,,,,,
185520,note_on,,,,,0,0,1,,,0,,,68,85
185520,control_change,,,,,0,0,2,,,0,64,127,,
185520,note_on,,,,,0,0,2,,,0,,,56,85
185520,note_on,,,,,60,0,2,,,0,,,54,85
185520,note_off,,,,,60,0,1,,,0,,,69,64
185580,note_off,,,,,60,0,1,,,0,,,68,64
185580,note_on,,,,,0,0,1,,,0,,,69,87
185640,note_on,,,,,0,0,1,,,0,,,68,89
185640,note_off,,,,,60,0,1,,,0,,,69,64
185640,set_tempo,,,,,140,1,0,487805,,,,,,
185700,control_change,,,,,0,0,2,,,0,64,0,,
185700,note_off,,,,,0,0,2,,,0,,,54,64
185700,note_off,,,,,60,0,1,,,0,,,68,64
185700,note_on,,,,,0,0,1,,,0,,,66,92
185700,note_off,,,,,180,0,2,,,0,,,56,64
185760,control_change,,,,,0,0,2,,,0,64,127,,
185760,note_on,,,,,60,0,2,,,0,,,56,98
185760,note_off,,,,,60,0,1,,,0,,,66,64
185760,note_on,,,,,0,0,1,,,0,,,64,95
185760,note_on,,,,,0,0,2,,,0,,,52,98
185820,note_off,,,,,60,0,1,,,0,,,64,64
185820,note_on,,,,,0,0,1,,,0,,,68,97
185880,note_off,,,,,60,0,1,,,0,,,68,64
185880,note_on,,,,,0,0,1,,,0,,,66,102
185880,set_tempo,,,,,240,1,0,512821,,,,,,
185940,note_off,,,,,60,0,1,,,0,,,66,64
185940,note_off,,,,,0,0,2,,,0,,,56,64
185940,note_off,,,,,180,0,2,,,0,,,52,64
185940,control_change,,,,,0,0,2,,,0,64,0,,
185940,note_on,,,,,0,0,1,,,0,,,64,105
186000,note_on,,,,,0,0,2,,,0,,,56,118
186000,control_change,,,,,0,0,2,,,0,64,127,,
186000,note_on,,,,,60,0,2,,,0,,,51,118
186000,note_on,,,,,0,0,1,,,0,,,63,107
186000,note_off,,,,,60,0,1,,,0,,,64,64
186060,note_on,,,,,0,0,1,,,0,,,66,110
186060,note_off,,,,,60,0,1,,,0,,,63,64
186120,note_on,,,,,0,0,1,,,0,,,64,113
186120,note_off,,,,,60,0,1,,,0,,,66,64
186140,set_tempo,,,,,260,1,0,560748,,,,,,
186180,control_change,,,,,0,0,2,,,0,64,0,,
186180,note_off,,,,,0,0,2,,,0,,,51,64
186180,note_off,,,,,180,0,2,,,0,,,56,64
186180,note_on,,,,,0,0,1,,,0,,,63,116
186180,note_off,,,,,60,0,1,,,0,,,64,64
186240,note_on,,,,,0,0,1,,,0,,,61,123
186240,note_on,,,,,0,0,2,,,0,,,49,104
186240,control_change,,,,,60,0,2,,,0,64,127,,
186240,note_off,,,,,60,0,1,,,0,,,63,64
186280,set_tempo,,,,,140,1,0,545455,,,,,,
186320,note_off,,,,,80,0,2,,,0,,,49,64
186320,note_on,,,,,0,0,2,,,0,,,52,98
186380,set_tempo,,,,,100,1,0,495868,,,,,,
186400,note_off,,,,,80,0,2,,,0,,,52,64
186400,note_on,,,,,0,0,2,,,0,,,56,92
186480,note_off,,,,,240,0,1,,,0,,,61,64
186480,note_on,,,,,0,0,1,,,0,,,64,102
186480,control_change,,,,,0,0,2,,,0,64,0,,
186480,note_off,,,,,80,0,2,,,0,,,56,64
186480,note_on,,,,,0,0,2,,,0,,,49,92
186500,set_tempo,,,,,120,1,0,465116,,,,,,
186560,note_off,,,,,80,0,2,,,0,,,49,64
186560,note_on,,,,,0,0,2,,,0,,,52,84
186570,note_off,,,,,90,0,1,,,0,,,64,64
186600,note_on,,,,,30,0,1,,,0,,,68,88
186600,set_tempo,,,,,100,1,0,441176,,,,,,
186640,note_off,,,,,80,0,2,,,0,,,52,64
186640,note_on,,,,,0,0,2,,,0,,,56,80
186690,note_off,,,,,90,0,1,,,0,,,68,64
186700,set_tempo,,,,,100,1,0,425532,,,,,,
186720,note_off,,,,,80,0,2,,,0,,,56,64
186720,control_change,,,,,0,0,2,,,0,64,127,,
186720,note_on,,,,,0,0,2,,,0,,,49,71
186720,note_on,,,,,30,0,1,,,0,,,73,91
186800,note_off,,,,,80,0,2,,,0,,,49,64
186800,note_on,,,,,0,0,2,,,0,,,52,71
186810,note_off,,,,,90,0,1,,,0,,,73,64
186840,note_on,,,,,30,0,1,,,0,,,76,103
186840,control_change,,,,,40,0,2,,,0,64,0,,
186880,note_on,,,,,0,0,2,,,0,,,56,71
186880,note_off,,,,,40,0,2,,,0,,,52,64
186930,note_off,,,,,90,0,1,,,0,,,76,64
186960,note_off,,,,,80,0,2,,,0,,,56,64
186960,note_on,,,,,0,0,2,,,0,,,49,74
186960,note_on,,,,,30,0,1,,,0,,,80,107
187000,set_tempo,,,,,300,1,0,437956,,,,,,
187040,note_on,,,,,0,0,2,,,0,,,52,82
187040,note_off,,,,,80,0,2,,,0,,,49,64
187050,note_off,,,,,90,0,1,,,0,,,80,64
187080,note_on,,,,,30,0,1,,,0,,,85,115
187120,note_off,,,,,80,0,2,,,0,,,52,64
187120,note_on,,,,,0,0,2,,,0,,,56,88
187160,set_tempo,,,,,160,1,0,472441,,,,,,
187170,note_off,,,,,90,0,1,,,0,,,85,64
187200,note_on,,,,,0,0,2,,,0,,,52,89
187200,control_change,,,,,0,0,2,,,0,64,127,,
187200,note_off,,,,,80,0,2,,,0,,,56,64
187200,note_on,,,,,30,0,1,,,0,,,84,121
187200,note_on,,,,,0,0,1,,,0,,,72,121
187280,note_off,,,,,80,0,2,,,0,,,52,64
187280,note_on,,,,,0,0,2,,,0,,,56,88
187360,note_on,,,,,0,0,2,,,0,,,61,79
187360,note_off,,,,,80,0,2,,,0,,,56,64
187400,set_tempo,,,,,240,1,0,458015,,,,,,
187440,note_on,,,,,0,0,2,,,0,,,52,74
187440,control_change,,,,,0,0,2,,,0,64,0,,
187440,note_off,,,,,80,0,2,,,0,,,61,64
187440,note_on,,,,,0,0,1,,,0,,,73,101
187440,note_on,,,,,0,0,1,,,0,,,85,101
187440,note_off,,,,,0,0,1,,,0,,,84,64
187440,note_off,,,,,240,0,1,,,0,,,72,64
187520,note_on,,,,,0,0,2,,,0,,,56,70
187520,note_off,,,,,80,0,2,,,0,,,52,64
187560,note_off,,,,,120,0,1,,,0,,,73,64
187560,note_off,,,,,0,0,1,,,0,,,85,64
187600,note_on,,,,,0,0,2,,,0,,,61,64
187600,note_off,,,,,80,0,2,,,0,,,56,64
187680,note_on,,,,,120,0,1,,,0,,,40,127
187680,note_on,,,,,0,0,2,,,0,,,52,73
187680,control_change,,,,,0,0,2,,,0,64,127,,
187680,note_off,,,,,80,0,2,,,0,,,61,64
187760,note_off,,,,,80,0,2,,,0,,,52,64
187760,note_on,,,,,0,0,2,,,0,,,56,69
187840,note_off,,,,,80,0,2,,,0,,,56,64
187840,note_on,,,,,0,0,2,,,0,,,61,62
187920,note_on,,,,,0,0,2,,,0,,,52,54
187920,note_off,,,,,80,0,2,,,0,,,61,64
188000,note_on,,,,,0,0,2,,,0,,,56,50
188000,note_off,,,,,80,0,2,,,0,,,52,64
188040,set_tempo,,,,,640,1,0,451128,,,,,,
188080,note_off,,,,,80,0,2,,,0,,,56,64
188080,note_on,,,,,0,0,2,,,0,,,61,48
188100,note_off,,,,,420,0,1,,,0,,,40,64
188160,note_on,,,,,0,0,2,,,0,,,54,89
188160,control_change,,,,,0,0,2,,,0,64,0,,
188160,note_on,,,,,0,0,1,,,0,,,72,121
188160,note_off,,,,,80,0,2,,,0,,,61,64
188160,note_on,,,,,60,0,1,,,0,,,84,121
188240,note_on,,,,,0,0,2,,,0,,,57,88
188240,note_off,,,,,80,0,2,,,0,,,54,64
188320,note_off,,,,,80,0,2,,,0,,,57,64
188320,note_on,,,,,0,0,2,,,0,,,61,79
188400,note_off,,,,,240,0,1,,,0,,,72,64
188400,note_off,,,,,80,0,2,,,0,,,61,64
188400,note_off,,,,,0,0,1,,,0,,,84,64
188400,note_on,,,,,0,0,1,,,0,,,73,110
188400,note_on,,,,,0,0,1,,,0,,,85,110
188400,note_on,,,,,0,0,2,,,0,,,54,74
188480,note_on,,,,,0,0,2,,,0,,,57,70
188480,note_off,,,,,80,0,2,,,0,,,54,64
188500,set_tempo,,,,,460,1,0,447761,,,,,,
188520,note_off,,,,,0,0,1,,,0,,,85,64
188520,note_off,,,,,120,0,1,,,0,,,73,64
188560,note_off,,,,,80,0,2,,,0,,,57,64
188560,note_on,,,,,0,0,2,,,0,,,61,64
188640,note_on,,,,,120,0,1,,,0,,,42,127
188640,note_on,,,,,0,0,2,,,0,,,54,73
188640,control_change,,,,,0,0,2,,,0,64,127,,
188640,note_off,,,,,80,0,2,,,0,,,61,64
188720,note_on,,,,,0,0,2,,,0,,,57,69
188720,note_off,,,,,80,0,2,,,0,,,54,64
188800,note_on,,,,,0,0,2,,,0,,,61,62
188800,note_off,,,,,80,0,2,,,0,,,57,64
188880,note_off,,,,,80,0,2,,,0,,,61,64
188880,note_on,,,,,0,0,2,,,0,,,54,54
188960,note_off,,,,,80,0,2,,,0,,,54,64
188960,note_on,,,,,0,0,2,,,0,,,57,50
189040,note_on,,,,,0,0,2,,,0,,,61,48
189040,note_off,,,,,80,0,2,,,0,,,57,64
189060,note_off,,,,,420,0,1,,,0,,,42,64
189060,set_tempo,,,,,560,1,0,444444,,,,,,
189120,control_change,,,,,0,0,2,,,0,64,0,,
189120,note_on,,,,,0,0,1,,,0,,,76,121
189120,note_on,,,,,0,0,2,,,0,,,56,89
189120,note_off,,,,,80,0,2,,,0,,,61,64
189120,note_on,,,,,60,0,1,,,0,,,88,121
189200,note_off,,,,,80,0,2,,,0,,,56,64
189200,note_on,,,,,0,0,2,,,0,,,61,88
189280,note_off,,,,,80,0,2,,,0,,,61,64
189280,note_on,,,,,0,0,2,,,0,,,64,79
189360,note_off,,,,,80,0,2,,,0,,,64,64
189360,note_on,,,,,0,0,2,,,0,,,56,74
189360,note_on,,,,,0,0,1,,,0,,,73,101
189360,note_on,,,,,0,0,1,,,0,,,85,101
189360,note_off,,,,,0,0,1,,,0,,,88,64
189360,note_off,,,,,240,0,1,,,0,,,76,64
189440,note_on,,,,,0,0,2,,,0,,,61,70
189440,note_off,,,,,80,0,2,,,0,,,56,64
189480,note_off,,,,,0,0,1,,,0,,,85,64
189480,note_off,,,,,120,0,1,,,0,,,73,64
189520,note_off,,,,,80,0,2,,,0,,,61,64
189520,note_on,,,,,0,0,2,,,0,,,64,64
189600,note_on,,,,,120,0,1,,,0,,,44,124
189600,note_off,,,,,80,0,2,,,0,,,64,64
189600,note_on,,,,,0,0,2,,,0,,,56,86
189680,note_off,,,,,80,0,2,,,0,,,56,64
189680,note_on,,,,,0,0,2,,,0,,,61,82
189740,note_off,,,,,140,0,1,,,0,,,44,64
189760,note_on,,,,,0,0,2,,,0,,,64,75
189760,note_off,,,,,80,0,2,,,0,,,61,64
189780,set_tempo,,,,,720,1,0,437956,,,,,,
189840,note_off,,,,,80,0,2,,,0,,,64,64
189840,note_on,,,,,0,0,2,,,0,,,57,91
189840,note_on,,,,,100,0,1,,,0,,,45,116
189920,note_off,,,,,80,0,2,,,0,,,57,64
189920,note_on,,,,,0,0,2,,,0,,,61,86
189980,note_off,,,,,140,0,1,,,0,,,45,64
190000,note_on,,,,,0,0,2,,,0,,,64,78
190000,note_off,,,,,80,0,2,,,0,,,61,64
190080,note_on,,,,,0,0,2,,,0,,,59,99
190080,control_change,,,,,0,0,2,,,0,64,127,,
190080,note_off,,,,,80,0,2,,,0,,,64,64
190080,note_on,,,,,100,0,1,,,0,,,47,123
190160,note_on,,,,,0,0,2,,,0,,,64,96
190160,note_off,,,,,80,0,2,,,0,,,59,64
190240,note_off,,,,,80,0,2,,,0,,,64,64
190240,note_on,,,,,0,0,2,,,0,,,68,92
190320,note_on,,,,,0,0,2,,,0,,,59,84
190320,note_off,,,,,80,0,2,,,0,,,68,64
190400,note_on,,,,,0,0,2,,,0,,,64,80
190400,note_off,,,,,80,0,2,,,0,,,59,64
190480,note_off,,,,,80,0,2,,,0,,,64,64
190480,note_on,,,,,0,0,2,,,0,,,68,75
190500,note_off,,,,,420,0,1,,,0,,,47,64
190560,control_change,,,,,0,0,2,,,0,64,0,,
190560,note_on,,,,,0,0,2,,,0,,,59,85
190560,note_off,,,,,80,0,2,,,0,,,68,64
190560,note_on,,,,,0,0,1,,,0,,,71,119
190560,note_on,,,,,60,0,1,,,0,,,83,119
190640,note_on,,,,,0,0,2,,,0,,,64,82
190640,note_off,,,,,80,0,2,,,0,,,59,64
190700,note_off,,,,,0,0,1,,,0,,,83,64
190700,note_off,,,,,140,0,1,,,0,,,71,64
190720,note_on,,,,,0,0,2,,,0,,,68,78
190720,note_off,,,,,80,0,2,,,0,,,64,64
190800,note_on,,,,,100,0,1,,,0,,,85,105
190800,note_on,,,,,0,0,1,,,0,,,73,105
190800,note_on,,,,,0,0,2,,,0,,,59,93
190800,note_off,,,,,80,0,2,,,0,,,68,64
190880,note_on,,,,,0,0,2,,,0,,,64,88
190880,note_off,,,,,80,0,2,,,0,,,59,64
190940,note_off,,,,,140,0,1,,,0,,,73,64
190940,note_off,,,,,0,0,1,,,0,,,85,64
190960,note_on,,,,,0,0,2,,,0,,,68,85
190960,note_off,,,,,80,0,2,,,0,,,64,64
191040,control_change,,,,,0,0,2,,,0,64,127,,
191040,note_off,,,,,80,0,2,,,0,,,68,64
191040,note_on,,,,,0,0,1,,,0,,,75,115
191040,note_on,,,,,100,0,1,,,0,,,87,115
191040,note_on,,,,,0,0,2,,,0,,,60,99
191120,note_off,,,,,80,0,2,,,0,,,60,64
191120,note_on,,,,,0,0,2,,,0,,,66,94
191200,note_off,,,,,80,0,2,,,0,,,66,64
191200,note_on,,,,,0,0,2,,,0,,,68,89
191280,note_off,,,,,80,0,2,,,0,,,68,64
191280,note_on,,,,,0,0,2,,,0,,,60,85
191360,note_off,,,,,80,0,2,,,0,,,60,64
191360,note_on,,,,,0,0,2,,,0,,,66,80
191440,note_off,,,,,80,0,2,,,0,,,66,64
191440,note_on,,,,,0,0,2,,,0,,,68,78
191460,control_change,,,,,20,0,2,,,0,64,0,,
191520,note_off,,,,,60,0,2,,,0,,,68,64
191520,control_change,,,,,0,0,2,,,0,64,127,,
191520,note_on,,,,,0,0,2,,,0,,,61,82
191520,note_on,,,,,0,0,1,,,0,,,88,101
191520,note_off,,,,,480,0,1,,,0,,,75,64
191520,note_off,,,,,0,0,1,,,0,,,87,64
191520,note_on,,,,,0,0,1,,,0,,,76,101
191600,note_on,,,,,0,0,2,,,0,,,64,79
191600,note_off,,,,,80,0,2,,,0,,,61,64
191680,note_on,,,,,0,0,2,,,0,,,68,76
191680,note_off,,,,,80,0,2,,,0,,,64,64
191760,note_on,,,,,0,0,2,,,0,,,61,72
191760,note_off,,,,,80,0,2,,,0,,,68,64
191840,note_off,,,,,80,0,2,,,0,,,61,64
191840,note_on,,,,,0,0,2,,,0,,,64,70
191920,note_on,,,,,0,0,2,,,0,,,68,67
191920,note_off,,,,,80,0,2,,,0,,,64,64
191940,control_change,,,,,20,0,2,,,0,64,0,,
192000,note_off,,,,,60,0,2,,,0,,,68,64
192000,control_change,,,,,0,0,2,,,0,64,127,,
192000,note_on,,,,,0,0,2,,,0,,,61,89
192000,note_off,,,,,480,0,1,,,0,,,76,64
192000,note_off,,,,,0,0,1,,,0,,,88,64
192000,note_on,,,,,0,0,1,,,0,,,42,122
192080,note_on,,,,,0,0,2,,,0,,,63,88
192080,note_off,,,,,80,0,2,,,0,,,61,64
192100,set_tempo,,,,,2320,1,0,444444,,,,,,
192160,note_on,,,,,0,0,2,,,0,,,69,79
192160,note_off,,,,,80,0,2,,,0,,,63,64
192240,note_on,,,,,0,0,2,,,0,,,61,74
192240,note_off,,,,,80,0,2,,,0,,,69,64
192320,note_off,,,,,80,0,2,,,0,,,61,64
192320,note_on,,,,,0,0,2,,,0,,,63,70
192400,note_on,,,,,0,0,2,,,0,,,69,64
192400,note_off,,,,,80,0,2,,,0,,,63,64
192420,control_change,,,,,20,0,2,,,0,64,0,,
192480,note_on,,,,,0,0,2,,,0,,,60,78
192480,control_change,,,,,0,0,2,,,0,64,127,,
192480,note_off,,,,,480,0,1,,,0,,,42,64
192480,note_on,,,,,0,0,1,,,0,,,44,116
192480,note_off,,,,,60,0,2,,,0,,,69,64
192560,note_on,,,,,0,0,2,,,0,,,63,72
192560,note_off,,,,,80,0,2,,,0,,,60,64
192640,note_off,,,,,80,0,2,,,0,,,63,64
192640,note_on,,,,,0,0,2,,,0,,,68,65
192720,note_off,,,,,80,0,2,,,0,,,68,64
192720,note_on,,,,,0,0,2,,,0,,,60,61
192740,set_tempo,,,,,640,1,0,458015,,,,,,
192800,note_on,,,,,0,0,2,,,0,,,63,67
192800,note_off,,,,,80,0,2,,,0,,,60,64
192880,note_off,,,,,80,0,2,,,0,,,63,64
192880,note_on,,,,,0,0,2,,,0,,,68,76
192900,control_change,,,,,20,0,2,,,0,64,0,,
192900,set_tempo,,,,,160,1,0,483871,,,,,,
192960,note_off,,,,,60,0,2,,,0,,,68,64
192960,note_on,,,,,0,0,2,,,0,,,57,84
192960,note_on,,,,,0,0,1,,,0,,,45,105
192960,note_off,,,,,480,0,1,,,0,,,44,64
192960,control_change,,,,,0,0,2,,,0,64,127,,
193040,note_off,,,,,80,0,2,,,0,,,57,64
193040,note_on,,,,,0,0,2,,,0,,,61,86
193060,set_tempo,,,,,160,1,0,454545,,,,,,
193120,note_off,,,,,80,0,2,,,0,,,61,64
193120,note_on,,,,,0,0,2,,,0,,,64,83
193180,set_tempo,,,,,120,1,0,441176,,,,,,
193200,note_off,,,,,80,0,2,,,0,,,64,64
193200,note_on,,,,,0,0,2,,,0,,,57,80
193200,control_change,,,,,0,0,2,,,0,64,0,,
193260,note_off,,,,,300,0,1,,,0,,,45,64
193280,note_off,,,,,80,0,2,,,0,,,57,64
193280,note_on,,,,,0,0,2,,,0,,,61,78
193300,set_tempo,,,,,120,1,0,428571,,,,,,
193320,note_on,,,,,60,0,1,,,0,,,69,97
193360,note_off,,,,,80,0,2,,,0,,,61,64
193360,note_on,,,,,0,0,2,,,0,,,64,77
193410,note_off,,,,,90,0,1,,,0,,,69,64
193440,note_on,,,,,0,0,2,,,0,,,56,71
193440,control_change,,,,,0,0,2,,,0,64,127,,
193440,note_off,,,,,80,0,2,,,0,,,64,64
193440,note_on,,,,,30,0,1,,,0,,,73,95
193520,note_off,,,,,80,0,2,,,0,,,56,64
193520,note_on,,,,,0,0,2,,,0,,,61,71
193530,note_off,,,,,90,0,1,,,0,,,73,64
193560,note_on,,,,,30,0,1,,,0,,,76,103
193560,control_change,,,,,40,0,2,,,0,64,0,,
193600,note_on,,,,,0,0,2,,,0,,,64,71
193600,note_off,,,,,40,0,2,,,0,,,61,64
193650,note_off,,,,,90,0,1,,,0,,,76,64
193680,note_on,,,,,30,0,1,,,0,,,81,107
193680,note_on,,,,,0,0,2,,,0,,,54,74
193680,note_off,,,,,80,0,2,,,0,,,64,64
193760,note_on,,,,,0,0,2,,,0,,,61,82
193760,note_off,,,,,80,0,2,,,0,,,54,64
193770,note_off,,,,,90,0,1,,,0,,,81,64
193800,note_on,,,,,30,0,1,,,0,,,85,115
193840,note_off,,,,,80,0,2,,,0,,,61,64
193840,note_on,,,,,0,0,2,,,0,,,64,88
193890,note_off,,,,,90,0,1,,,0,,,85,64
193920,note_off,,,,,80,0,2,,,0,,,64,64
193920,note_on,,,,,0,0,2,,,0,,,52,89
193920,control_change,,,,,0,0,2,,,0,64,127,,
193920,note_on,,,,,30,0,1,,,0,,,84,121
193920,note_on,,,,,0,0,1,,,0,,,72,121
194000,note_on,,,,,0,0,2,,,0,,,56,88
194000,note_off,,,,,80,0,2,,,0,,,52,64
194080,note_off,,,,,80,0,2,,,0,,,56,64
194080,note_on,,,,,0,0,2,,,0,,,61,79
194160,note_on,,,,,0,0,2,,,0,,,52,74
194160,control_change,,,,,0,0,2,,,0,64,0,,
194160,note_off,,,,,80,0,2,,,0,,,61,64
194160,note_off,,,,,0,0,1,,,0,,,84,64
194160,note_on,,,,,0,0,1,,,0,,,73,101
194160,note_off,,,,,240,0,1,,,0,,,72,64
194160,note_on,,,,,0,0,1,,,0,,,85,101
194240,note_on,,,,,0,0,2,,,0,,,56,70
194240,note_off,,,,,80,0,2,,,0,,,52,64
194280,note_off,,,,,0,0,1,,,0,,,85,64
194280,note_off,,,,,120,0,1,,,0,,,73,64
194300,set_tempo,,,,,1000,1,0,437956,,,,,,
194320,note_off,,,,,80,0,2,,,0,,,56,64
194320,note_on,,,,,0,0,2,,,0,,,61,64
194400,note_on,,,,,120,0,1,,,0,,,40,127
194400,control_change,,,,,0,0,2,,,0,64,127,,
194400,note_on,,,,,0,0,2,,,0,,,52,73
194400,note_off,,,,,80,0,2,,,0,,,61,64
194460,set_tempo,,,,,160,1,0,451128,,,,,,
194480,note_on,,,,,0,0,2,,,0,,,56,69
194480,note_off,,,,,80,0,2,,,0,,,52,64
194560,note_on,,,,,0,0,2,,,0,,,61,62
194560,note_off,,,,,80,0,2,,,0,,,56,64
194640,note_on,,,,,0,0,2,,,0,,,52,54
194640,note_off,,,,,80,0,2,,,0,,,61,64
194720,note_on,,,,,0,0,2,,,0,,,56,50
194720,note_off,,,,,80,0,2,,,0,,,52,64
194800,note_on,,,,,0,0,2,,,0,,,61,48
194800,note_off,,,,,80,0,2,,,0,,,56,64
194820,note_off,,,,,420,0,1,,,0,,,40,64
194880,note_on,,,,,0,0,2,,,0,,,54,89
194880,control_change,,,,,0,0,2,,,0,64,0,,
194880,note_on,,,,,60,0,1,,,0,,,84,121
194880,note_on,,,,,0,0,1,,,0,,,72,121
194880,note_off,,,,,80,0,2,,,0,,,61,64
194960,note_off,,,,,80,0,2,,,0,,,54,64
194960,note_on,,,,,0,0,2,,,0,,,57,88
195040,note_off,,,,,80,0,2,,,0,,,57,64
195040,note_on,,,,,0,0,2,,,0,,,61,79
195120,note_off,,,,,240,0,1,,,0,,,72,64
195120,note_off,,,,,0,0,1,,,0,,,84,64
195120,note_on,,,,,0,0,1,,,0,,,85,98
195120,note_on,,,,,0,0,1,,,0,,,73,98
195120,note_on,,,,,0,0,2,,,0,,,54,74
195120,note_off,,,,,80,0,2,,,0,,,61,64
195200,note_on,,,,,0,0,2,,,0,,,57,70
195200,note_off,,,,,80,0,2,,,0,,,54,64
195240,note_off,,,,,0,0,1,,,0,,,85,64
195240,note_off,,,,,120,0,1,,,0,,,73,64
195280,note_on,,,,,0,0,2,,,0,,,61,64
195280,note_off,,,,,80,0,2,,,0,,,57,64
195360,note_on,,,,,120,0,1,,,0,,,42,127
195360,note_on,,,,,0,0,2,,,0,,,54,73
195360,note_off,,,,,80,0,2,,,0,,,61,64
195440,note_on,,,,,0,0,2,,,0,,,57,69
195440,note_off,,,,,80,0,2,,,0,,,54,64
195520,note_off,,,,,80,0,2,,,0,,,57,64
195520,note_on,,,,,0,0,2,,,0,,,61,62
195600,note_off,,,,,80,0,2,,,0,,,61,64
195600,note_on,,,,,0,0,2,,,0,,,54,54
195680,note_off,,,,,80,0,2,,,0,,,54,64
195680,note_on,,,,,0,0,2,,,0,,,57,50
195760,note_on,,,,,0,0,2,,,0,,,61,48
195760,note_off,,,,,80,0,2,,,0,,,57,64
195780,note_off,,,,,420,0,1,,,0,,,42,64
195840,note_on,,,,,0,0,1,,,0,,,76,121
195840,note_on,,,,,0,0,2,,,0,,,56,89
195840,note_off,,,,,80,0,2,,,0,,,61,64
195840,note_on,,,,,60,0,1,,,0,,,88,121
195860,set_tempo,,,,,1400,1,0,444444,,,,,,
195920,note_on,,,,,0,0,2,,,0,,,61,88
195920,note_off,,,,,80,0,2,,,0,,,56,64
196000,note_on,,,,,0,0,2,,,0,,,64,79
196000,note_off,,,,,80,0,2,,,0,,,61,64
196080,note_off,,,,,240,0,1,,,0,,,76,64
196080,note_off,,,,,0,0,1,,,0,,,88,64
196080,note_on,,,,,0,0,1,,,0,,,85,101
196080,note_on,,,,,0,0,1,,,0,,,73,101
196080,note_off,,,,,80,0,2,,,0,,,64,64
196080,note_on,,,,,0,0,2,,,0,,,56,74
196160,note_off,,,,,80,0,2,,,0,,,56,64
196160,note_on,,,,,0,0,2,,,0,,,61,70
196200,note_off,,,,,0,0,1,,,0,,,85,64
196200,note_off,,,,,120,0,1,,,0,,,73,64
196240,note_on,,,,,0,0,2,,,0,,,64,64
196240,note_off,,,,,80,0,2,,,0,,,61,64
196320,note_off,,,,,80,0,2,,,0,,,64,64
196320,note_on,,,,,0,0,2,,,0,,,56,86
196320,note_on,,,,,120,0,1,,,0,,,44,124
196400,note_off,,,,,80,0,2,,,0,,,56,64
196400,note_on,,,,,0,0,2,,,0,,,61,82
196460,note_off,,,,,140,0,1,,,0,,,44,64
196480,note_on,,,,,0,0,2,,,0,,,64,75
196480,note_off,,,,,80,0,2,,,0,,,61,64
196560,note_on,,,,,0,0,2,,,0,,,57,91
196560,note_off,,,,,80,0,2,,,0,,,64,64
196560,note_on,,,,,100,0,1,,,0,,,45,116
196640,note_off,,,,,80,0,2,,,0,,,57,64
196640,note_on,,,,,0,0,2,,,0,,,61,86
196700,note_off,,,,,140,0,1,,,0,,,45,64
196700,set_tempo,,,,,840,1,0,441176,,,,,,
196720,note_off,,,,,80,0,2,,,0,,,61,64
196720,note_on,,,,,0,0,2,,,0,,,64,78
196800,note_on,,,,,100,0,1,,,0,,,47,123
196800,note_on,,,,,0,0,2,,,0,,,59,99
196800,note_off,,,,,80,0,2,,,0,,,64,64
196880,note_on,,,,,0,0,2,,,0,,,64,96
196880,note_off,,,,,80,0,2,,,0,,,59,64
196960,note_on,,,,,0,0,2,,,0,,,68,92
196960,note_off,,,,,80,0,2,,,0,,,64,64
197040,note_off,,,,,80,0,2,,,0,,,68,64
197040,note_on,,,,,0,0,2,,,0,,,59,84
197120,note_off,,,,,80,0,2,,,0,,,59,64
197120,note_on,,,,,0,0,2,,,0,,,64,80
197140,set_tempo,,,,,440,1,0,437956,,,,,,
197200,note_off,,,,,80,0,2,,,0,,,64,64
197200,note_on,,,,,0,0,2,,,0,,,68,75
197220,note_off,,,,,420,0,1,,,0,,,47,64
197280,note_on,,,,,60,0,1,,,0,,,80,119
197280,note_on,,,,,0,0,1,,,0,,,68,119
197280,note_on,,,,,0,0,2,,,0,,,59,85
197280,note_off,,,,,80,0,2,,,0,,,68,64
197360,note_off,,,,,80,0,2,,,0,,,59,64
197360,note_on,,,,,0,0,2,,,0,,,64,82
197420,note_off,,,,,140,0,1,,,0,,,68,64
197420,note_off,,,,,0,0,1,,,0,,,80,64
197440,note_on,,,,,0,0,2,,,0,,,68,78
197440,note_off,,,,,80,0,2,,,0,,,64,64
197520,note_on,,,,,0,0,1,,,0,,,69,105
197520,note_on,,,,,0,0,2,,,0,,,59,93
197520,note_off,,,,,80,0,2,,,0,,,68,64
197520,note_on,,,,,100,0,1,,,0,,,81,105
197600,note_on,,,,,0,0,2,,,0,,,64,88
197600,note_off,,,,,80,0,2,,,0,,,59,64
197660,note_off,,,,,0,0,1,,,0,,,81,64
197660,note_off,,,,,140,0,1,,,0,,,69,64
197680,note_on,,,,,0,0,2,,,0,,,68,85
197680,note_off,,,,,80,0,2,,,0,,,64,64
197760,note_off,,,,,80,0,2,,,0,,,68,64
197760,note_on,,,,,0,0,1,,,0,,,71,115
197760,note_on,,,,,100,0,1,,,0,,,83,115
197760,note_on,,,,,0,0,2,,,0,,,59,99
197840,note_on,,,,,0,0,2,,,0,,,64,94
197840,note_off,,,,,80,0,2,,,0,,,59,64
197920,note_off,,,,,80,0,2,,,0,,,64,64
197920,note_on,,,,,0,0,2,,,0,,,68,89
198000,note_off,,,,,80,0,2,,,0,,,68,64
198000,note_on,,,,,0,0,2,,,0,,,59,85
198080,note_off,,,,,80,0,2,,,0,,,59,64
198080,note_on,,,,,0,0,2,,,0,,,64,80
198160,note_off,,,,,80,0,2,,,0,,,64,64
198160,note_on,,,,,0,0,2,,,0,,,68,78
198220,set_tempo,,,,,1080,1,0,447761,,,,,,
198240,note_off,,,,,0,0,1,,,0,,,83,64
198240,note_off,,,,,80,0,2,,,0,,,68,64
198240,note_off,,,,,480,0,1,,,0,,,71,64
198240,note_on,,,,,0,0,2,,,0,,,56,82
198240,note_on,,,,,0,0,1,,,0,,,72,101
198240,note_on,,,,,0,0,1,,,0,,,84,101
198320,note_off,,,,,80,0,2,,,0,,,56,64
198320,note_on,,,,,0,0,2,,,0,,,63,79
198400,note_off,,,,,80,0,2,,,0,,,63,64
198400,note_on,,,,,0,0,2,,,0,,,66,76
198480,note_off,,,,,80,0,2,,,0,,,66,64
198480,note_on,,,,,0,0,2,,,0,,,56,72
198560,note_on,,,,,0,0,2,,,0,,,63,70
198560,note_off,,,,,80,0,2,,,0,,,56,64
198640,note_on,,,,,0,0,2,,,0,,,66,67
198640,note_off,,,,,80,0,2,,,0,,,63,64
198700,set_tempo,,,,,480,1,0,461538,,,,,,
198720,note_on,,,,,0,0,2,,,0,,,57,89
198720,note_off,,,,,80,0,2,,,0,,,66,64
198720,note_on,,,,,0,0,1,,,0,,,73,108
198720,note_on,,,,,0,0,1,,,0,,,85,108
198720,note_off,,,,,480,0,1,,,0,,,72,64
198720,note_off,,,,,0,0,1,,,0,,,84,64
198800,note_off,,,,,80,0,2,,,0,,,57,64
198800,note_on,,,,,0,0,2,,,0,,,61,88
198880,note_off,,,,,80,0,2,,,0,,,61,64
198880,note_on,,,,,0,0,2,,,0,,,64,79
198960,note_off,,,,,80,0,2,,,0,,,64,64
198960,note_on,,,,,0,0,2,,,0,,,57,74
199040,note_off,,,,,80,0,2,,,0,,,57,64
199040,note_on,,,,,0,0,2,,,0,,,61,70
199120,note_off,,,,,80,0,2,,,0,,,61,64
199120,note_on,,,,,0,0,2,,,0,,,64,64
199180,set_tempo,,,,,480,1,0,476190,,,,,,
199200,note_on,,,,,0,0,2,,,0,,,57,78
199200,note_on,,,,,0,0,1,,,0,,,42,116
199200,note_off,,,,,480,0,1,,,0,,,73,64
199200,note_off,,,,,0,0,1,,,0,,,85,64
199200,note_off,,,,,80,0,2,,,0,,,64,64
199280,note_off,,,,,80,0,2,,,0,,,57,64
199280,note_on,,,,,0,0,2,,,0,,,61,72
199360,note_off,,,,,80,0,2,,,0,,,61,64
199360,note_on,,,,,0,0,2,,,0,,,63,65
199440,note_off,,,,,80,0,2,,,0,,,63,64
199440,note_on,,,,,0,0,2,,,0,,,57,56
199520,note_on,,,,,0,0,2,,,0,,,61,52
199520,note_off,,,,,80,0,2,,,0,,,57,64
199600,note_on,,,,,0,0,2,,,0,,,63,50
199600,note_off,,,,,80,0,2,,,0,,,61,64
199680,note_on,,,,,0,0,2,,,0,,,56,71
199680,control_change,,,,,0,0,2,,,0,64,127,,
199680,note_off,,,,,80,0,2,,,0,,,63,64
199680,note_on,,,,,0,0,1,,,0,,,44,87
199680,note_off,,,,,480,0,1,,,0,,,42,64
199760,note_on,,,,,0,0,2,,,0,,,61,68
199760,note_off,,,,,80,0,2,,,0,,,56,64
199800,set_tempo,,,,,620,1,0,508475,,,,,,
199840,note_on,,,,,0,0,2,,,0,,,64,64
199840,note_off,,,,,80,0,2,,,0,,,61,64
199920,note_on,,,,,0,0,2,,,0,,,56,71
199920,note_off,,,,,80,0,2,,,0,,,64,64
200000,note_on,,,,,0,0,2,,,0,,,61,68
200000,note_off,,,,,80,0,2,,,0,,,56,64
200080,note_off,,,,,80,0,2,,,0,,,61,64
200080,note_on,,,,,0,0,2,,,0,,,64,64
200160,control_change,,,,,0,0,2,,,0,64,0,,
200160,note_on,,,,,0,0,1,,,0,,,45,116
200160,note_off,,,,,480,0,1,,,0,,,44,64
200160,note_on,,,,,0,0,2,,,0,,,57,77
200160,note_off,,,,,80,0,2,,,0,,,64,64
200220,set_tempo,,,,,420,1,0,535714,,,,,,
200240,note_on,,,,,0,0,2,,,0,,,64,74
200240,note_off,,,,,80,0,2,,,0,,,57,64
200320,note_on,,,,,0,0,2,,,0,,,66,69
200320,note_off,,,,,80,0,2,,,0,,,64,64
200340,note_off,,,,,180,0,1,,,0,,,45,64
200400,note_on,,,,,60,0,1,,,0,,,46,100
200400,note_on,,,,,0,0,2,,,0,,,58,86
200400,note_off,,,,,80,0,2,,,0,,,66,64
200460,set_tempo,,,,,240,1,0,566038,,,,,,
200480,note_off,,,,,80,0,2,,,0,,,58,64
200480,note_on,,,,,0,0,2,,,0,,,64,79
200560,note_on,,,,,0,0,2,,,0,,,66,74
200560,note_off,,,,,80,0,2,,,0,,,64,64
200580,note_off,,,,,180,0,1,,,0,,,46,64
200640,note_on,,,,,60,0,1,,,0,,,47,122
200640,note_off,,,,,80,0,2,,,0,,,66,64
200640,control_change,,,,,0,0,2,,,0,64,127,,
200640,note_on,,,,,0,0,2,,,0,,,59,93
200700,set_tempo,,,,,240,1,0,535714,,,,,,
200720,note_off,,,,,80,0,2,,,0,,,59,64
200720,note_on,,,,,0,0,2,,,0,,,64,87
200780,set_tempo,,,,,80,1,0,500000,,,,,,
200800,note_off,,,,,80,0,2,,,0,,,64,64
200800,note_on,,,,,0,0,2,,,0,,,68,82
200880,note_on,,,,,0,0,2,,,0,,,59,71
200880,note_off,,,,,80,0,2,,,0,,,68,64
200920,set_tempo,,,,,140,1,0,476190,,,,,,
200960,note_on,,,,,0,0,2,,,0,,,64,68
200960,note_off,,,,,80,0,2,,,0,,,59,64
201040,note_off,,,,,80,0,2,,,0,,,64,64
201040,note_on,,,,,0,0,2,,,0,,,68,64
201040,set_tempo,,,,,120,1,0,451128,,,,,,
201120,note_off,,,,,80,0,2,,,0,,,68,64
201120,control_change,,,,,0,0,2,,,0,64,0,,
201120,note_on,,,,,0,0,2,,,0,,,59,77
201120,note_on,,,,,0,0,1,,,0,,,83,116
201120,note_on,,,,,0,0,1,,,0,,,95,116
201120,note_off,,,,,480,0,1,,,0,,,47,64
201200,note_off,,,,,80,0,2,,,0,,,59,64
201200,note_on,,,,,0,0,2,,,0,,,64,74
201280,note_off,,,,,80,0,2,,,0,,,64,64
201280,note_on,,,,,0,0,2,,,0,,,68,69
201300,note_off,,,,,0,0,1,,,0,,,95,64
201300,note_off,,,,,180,0,1,,,0,,,83,64
201360,note_on,,,,,60,0,1,,,0,,,96,110
201360,note_on,,,,,0,0,1,,,0,,,84,110
201360,note_on,,,,,0,0,2,,,0,,,60,86
201360,note_off,,,,,80,0,2,,,0,,,68,64
201440,note_on,,,,,0,0,2,,,0,,,64,82
201440,note_off,,,,,80,0,2,,,0,,,60,64
201520,note_off,,,,,80,0,2,,,0,,,64,64
201520,note_on,,,,,0,0,2,,,0,,,68,78
201540,note_off,,,,,0,0,1,,,0,,,96,64
201540,note_off,,,,,180,0,1,,,0,,,84,64
201600,note_on,,,,,0,0,1,,,0,,,85,121
201600,control_change,,,,,0,0,2,,,0,64,127,,
201600,note_on,,,,,0,0,2,,,0,,,61,98
201600,note_off,,,,,80,0,2,,,0,,,68,64
201600,note_on,,,,,60,0,1,,,0,,,97,121
201680,note_off,,,,,80,0,2,,,0,,,61,64
201680,note_on,,,,,0,0,2,,,0,,,64,94
201760,note_off,,,,,80,0,2,,,0,,,64,64
201760,note_on,,,,,0,0,2,,,0,,,68,87
201840,note_off,,,,,80,0,2,,,0,,,68,64
201840,note_on,,,,,0,0,2,,,0,,,61,77
201920,note_off,,,,,80,0,2,,,0,,,61,64
201920,note_on,,,,,0,0,2,,,0,,,64,74
202000,note_off,,,,,80,0,2,,,0,,,64,64
202000,note_on,,,,,0,0,2,,,0,,,68,69
202080,note_off,,,,,80,0,2,,,0,,,68,64
202080,note_on,,,,,0,0,2,,,0,,,57,65
202080,note_on,,,,,0,0,1,,,0,,,45,98
202080,note_off,,,,,0,0,1,,,0,,,97,64
202080,note_off,,,,,480,0,1,,,0,,,85,64
202080,control_change,,,,,0,0,2,,,0,64,0,,
202080,control_change,,,,,0,0,2,,,0,64,0,,
202160,note_off,,,,,80,0,2,,,0,,,57,64
202160,note_on,,,,,0,0,2,,,0,,,64,62
202240,note_off,,,,,80,0,2,,,0,,,64,64
202240,note_on,,,,,0,0,2,,,0,,,66,58
202260,note_off,,,,,180,0,1,,,0,,,45,64
202320,note_off,,,,,80,0,2,,,0,,,66,64
202320,note_on,,,,,0,0,2,,,0,,,58,73
202320,note_on,,,,,60,0,1,,,0,,,46,93
202360,set_tempo,,,,,1320,1,0,437956,,,,,,
202400,note_off,,,,,80,0,2,,,0,,,58,64
202400,note_on,,,,,0,0,2,,,0,,,64,67
202480,note_off,,,,,80,0,2,,,0,,,64,64
202480,note_on,,,,,0,0,2,,,0,,,66,62
202500,note_off,,,,,180,0,1,,,0,,,46,64
202560,control_change,,,,,0,0,2,,,0,64,127,,
202560,note_off,,,,,80,0,2,,,0,,,66,64
202560,note_on,,,,,60,0,1,,,0,,,47,103
202560,note_on,,,,,0,0,2,,,0,,,59,79
202640,note_off,,,,,80,0,2,,,0,,,59,64
202640,note_on,,,,,0,0,2,,,0,,,64,73
202720,note_off,,,,,80,0,2,,,0,,,64,64
202720,note_on,,,,,0,0,2,,,0,,,68,69
202800,note_off,,,,,80,0,2,,,0,,,68,64
202800,note_on,,,,,0,0,2,,,0,,,59,60
202880,note_off,,,,,80,0,2,,,0,,,59,64
202880,note_on,,,,,0,0,2,,,0,,,64,57
202900,set_tempo,,,,,540,1,0,422535,,,,,,
202960,note_off,,,,,80,0,2,,,0,,,64,64
202960,note_on,,,,,0,0,2,,,0,,,68,54
203040,note_on,,,,,0,0,1,,,0,,,95,98
203040,note_off,,,,,80,0,2,,,0,,,68,64
203040,control_change,,,,,0,0,2,,,0,64,0,,
203040,note_on,,,,,0,0,2,,,0,,,59,65
203040,note_off,,,,,480,0,1,,,0,,,47,64
203040,note_on,,,,,0,0,1,,,0,,,83,98
203120,note_off,,,,,80,0,2,,,0,,,59,64
203120,note_on,,,,,0,0,2,,,0,,,64,62
203200,note_on,,,,,0,0,2,,,0,,,68,58
203200,note_off,,,,,80,0,2,,,0,,,64,64
203220,note_off,,,,,0,0,1,,,0,,,95,64
203220,note_off,,,,,180,0,1,,,0,,,83,64
203280,note_on,,,,,60,0,1,,,0,,,96,93
203280,note_on,,,,,0,0,2,,,0,,,60,73
203280,note_on,,,,,0,0,1,,,0,,,84,93
203280,note_off,,,,,80,0,2,,,0,,,68,64
203360,note_off,,,,,80,0,2,,,0,,,60,64
203360,note_on,,,,,0,0,2,,,0,,,64,69
203380,set_tempo,,,,,480,1,0,413793,,,,,,
203440,note_off,,,,,80,0,2,,,0,,,64,64
203440,note_on,,,,,0,0,2,,,0,,,68,66
203460,note_off,,,,,180,0,1,,,0,,,84,64
203460,note_off,,,,,0,0,1,,,0,,,96,64
203520,note_on,,,,,60,0,1,,,0,,,97,102
203520,note_on,,,,,0,0,1,,,0,,,85,102
203520,note_off,,,,,80,0,2,,,0,,,68,64
203520,control_change,,,,,0,0,2,,,0,64,127,,
203520,note_on,,,,,0,0,2,,,0,,,61,83
203600,note_off,,,,,80,0,2,,,0,,,61,64
203600,note_on,,,,,0,0,2,,,0,,,64,79
203680,note_off,,,,,80,0,2,,,0,,,64,64
203680,note_on,,,,,0,0,2,,,0,,,68,73
203760,note_off,,,,,80,0,2,,,0,,,68,64
203760,note_on,,,,,0,0,2,,,0,,,61,65
203840,note_on,,,,,0,0,2,,,0,,,64,62
203840,note_off,,,,,80,0,2,,,0,,,61,64
203920,note_on,,,,,0,0,2,,,0,,,68,58
203920,note_off,,,,,80,0,2,,,0,,,64,64
204000,note_off,,,,,80,0,2,,,0,,,68,64
204000,note_on,,,,,0,0,1,,,0,,,42,116
204000,control_change,,,,,0,0,2,,,0,64,0,,
204000,control_change,,,,,0,0,2,,,0,64,0,,
204000,note_on,,,,,0,0,2,,,0,,,61,77
204000,note_off,,,,,0,0,1,,,0,,,97,64
204000,control_change,,,,,0,0,2,,,0,64,0,,
204000,note_off,,,,,480,0,1,,,0,,,85,64
204080,note_off,,,,,80,0,2,,,0,,,61,64
204080,note_on,,,,,0,0,2,,,0,,,63,74
204160,note_on,,,,,0,0,2,,,0,,,69,69
204160,note_off,,,,,80,0,2,,,0,,,63,64
204180,note_off,,,,,180,0,1,,,0,,,42,64
204200,set_tempo,,,,,820,1,0,419580,,,,,,
204240,note_on,,,,,0,0,2,,,0,,,61,86
204240,note_on,,,,,60,0,1,,,0,,,43,110
204240,note_off,,,,,80,0,2,,,0,,,69,64
204320,note_on,,,,,0,0,2,,,0,,,63,79
204320,note_off,,,,,80,0,2,,,0,,,61,64
204400,note_on,,,,,0,0,2,,,0,,,69,74
204400,note_off,,,,,80,0,2,,,0,,,63,64
204420,note_off,,,,,180,0,1,,,0,,,43,64
204480,note_on,,,,,60,0,1,,,0,,,44,122
204480,control_change,,,,,0,0,2,,,0,64,127,,
204480,note_on,,,,,0,0,2,,,0,,,61,93
204480,note_off,,,,,80,0,2,,,0,,,69,64
204560,note_off,,,,,80,0,2,,,0,,,61,64
204560,note_on,,,,,0,0,2,,,0,,,64,87
204640,note_off,,,,,80,0,2,,,0,,,64,64
204640,note_on,,,,,0,0,2,,,0,,,68,82
204720,note_on,,,,,0,0,2,,,0,,,61,83
204720,note_off,,,,,80,0,2,,,0,,,68,64
204780,set_tempo,,,,,580,1,0,431655,,,,,,
204800,note_off,,,,,80,0,2,,,0,,,61,64
204800,note_on,,,,,0,0,2,,,0,,,64,79
204880,note_off,,,,,80,0,2,,,0,,,64,64
204880,control_change,,,,,0,0,2,,,0,64,0,,
204880,note_on,,,,,0,0,2,,,0,,,68,73
204960,note_off,,,,,80,0,2,,,0,,,68,64
204960,note_on,,,,,0,0,2,,,0,,,61,83
204960,control_change,,,,,0,0,2,,,0,64,127,,
204960,note_off,,,,,480,0,1,,,0,,,44,64
204960,note_on,,,,,0,0,1,,,0,,,45,107
204980,set_tempo,,,,,200,1,0,444444,,,,,,
205040,note_off,,,,,80,0,2,,,0,,,61,64
205040,note_on,,,,,0,0,2,,,0,,,64,78
205120,note_on,,,,,0,0,2,,,0,,,69,75
205120,note_off,,,,,80,0,2,,,0,,,64,64
205160,set_tempo,,,,,180,1,0,461538,,,,,,
205200,note_off,,,,,80,0,2,,,0,,,69,64
205200,note_on,,,,,0,0,2,,,0,,,61,71
205280,note_off,,,,,80,0,2,,,0,,,61,64
205280,note_on,,,,,0,0,2,,,0,,,64,68
205360,note_off,,,,,80,0,2,,,0,,,64,64
205360,note_on,,,,,0,0,2,,,0,,,69,64
205360,control_change,,,,,0,0,2,,,0,64,0,,
205360,set_tempo,,,,,200,1,0,472441,,,,,,
205440,note_on,,,,,0,0,1,,,0,,,42,94
205440,note_off,,,,,480,0,1,,,0,,,45,64
205440,control_change,,,,,0,0,2,,,0,64,127,,
205440,note_on,,,,,0,0,2,,,0,,,61,76
205440,note_off,,,,,80,0,2,,,0,,,69,64
205520,note_off,,,,,80,0,2,,,0,,,61,64
205520,note_on,,,,,0,0,2,,,0,,,63,72
205600,note_off,,,,,80,0,2,,,0,,,63,64
205600,note_on,,,,,0,0,2,,,0,,,66,70
205660,set_tempo,,,,,300,1,0,491803,,,,,,
205680,note_off,,,,,80,0,2,,,0,,,66,64
205680,note_on,,,,,0,0,2,,,0,,,61,67
205760,note_off,,,,,80,0,2,,,0,,,61,64
205760,note_on,,,,,0,0,2,,,0,,,63,63
205840,control_change,,,,,0,0,2,,,0,64,0,,
205840,note_on,,,,,0,0,2,,,0,,,66,58
205840,note_off,,,,,80,0,2,,,0,,,63,64
205860,set_tempo,,,,,200,1,0,540541,,,,,,
205920,note_off,,,,,80,0,2,,,0,,,66,64
205920,note_off,,,,,480,0,1,,,0,,,42,64
205920,note_on,,,,,0,0,1,,,0,,,44,103
205920,control_change,,,,,0,0,2,,,0,64,127,,
205920,note_on,,,,,0,0,2,,,0,,,60,69
206000,note_on,,,,,0,0,2,,,0,,,63,67
206000,note_off,,,,,80,0,2,,,0,,,60,64
206040,set_tempo,,,,,180,1,0,576923,,,,,,
206080,note_on,,,,,0,0,2,,,0,,,68,66
206080,note_off,,,,,80,0,2,,,0,,,63,64
206160,note_on,,,,,0,0,2,,,0,,,60,62
206160,set_tempo,,,,,120,1,0,618557,,,,,,
206160,note_off,,,,,80,0,2,,,0,,,68,64
206240,note_off,,,,,80,0,2,,,0,,,60,64
206240,note_on,,,,,0,0,2,,,0,,,63,60
206280,set_tempo,,,,,120,1,0,681818,,,,,,
206320,note_off,,,,,80,0,2,,,0,,,63,64
206320,note_on,,,,,0,0,2,,,0,,,68,58
206320,control_change,,,,,0,0,2,,,0,64,0,,
206360,set_tempo,,,,,80,1,0,821918,,,,,,
206400,control_change,,,,,0,0,2,,,0,64,127,,
206400,note_on,,,,,0,0,2,,,0,,,61,64
206400,note_off,,,,,80,0,2,,,0,,,68,64
206400,note_on,,,,,0,0,1,,,0,,,37,87
206400,note_off,,,,,480,0,1,,,0,,,44,64
206460,set_tempo,,,,,100,1,0,606061,,,,,,
206480,note_off,,,,,80,0,2,,,0,,,61,64
206480,note_on,,,,,0,0,2,,,0,,,65,59
206540,set_tempo,,,,,80,1,0,530973,,,,,,
206560,note_off,,,,,80,0,2,,,0,,,65,64
206560,note_on,,,,,0,0,2,,,0,,,68,56
206640,note_on,,,,,0,0,2,,,0,,,61,54
206640,set_tempo,,,,,100,1,0,491803,,,,,,
206640,note_off,,,,,80,0,2,,,0,,,68,64
206720,note_off,,,,,80,0,2,,,0,,,61,64
206720,note_on,,,,,0,0,2,,,0,,,65,51
206720,set_tempo,,,,,80,1,0,472441,,,,,,
206800,note_off,,,,,80,0,2,,,0,,,65,64
206800,note_on,,,,,0,0,2,,,0,,,68,49
206860,set_tempo,,,,,140,1,0,458015,,,,,,
206880,note_off,,,,,480,0,1,,,0,,,37,64
206880,note_off,,,,,80,0,2,,,0,,,68,64
206880,control_change,,,,,0,0,2,,,0,64,0,,
206880,note_on,,,,,0,0,2,,,0,,,61,51
206880,note_on,,,,,0,0,1,,,0,,,84,57
206960,note_on,,,,,0,0,2,,,0,,,65,48
206960,note_off,,,,,80,0,2,,,0,,,61,64
207040,note_off,,,,,80,0,2,,,0,,,65,64
207040,note_on,,,,,0,0,2,,,0,,,68,44
207060,note_off,,,,,180,0,1,,,0,,,84,64
207120,note_on,,,,,60,0,1,,,0,,,85,66
207120,note_off,,,,,80,0,2,,,0,,,68,64
207120,note_on,,,,,0,0,2,,,0,,,61,44
207200,note_off,,,,,80,0,2,,,0,,,61,64
207200,note_on,,,,,0,0,2,,,0,,,65,45
207280,note_off,,,,,80,0,2,,,0,,,65,64
207280,note_on,,,,,0,0,2,,,0,,,68,53
207300,note_off,,,,,180,0,1,,,0,,,85,64
207300,set_tempo,,,,,440,1,0,588235,,,,,,
207360,control_change,,,,,0,0,2,,,0,64,127,,
207360,note_off,,,,,80,0,2,,,0,,,68,64
207360,note_on,,,,,60,0,1,,,0,,,86,74
207360,note_on,,,,,0,0,2,,,0,,,61,55
207420,set_tempo,,,,,120,1,0,468750,,,,,,
207440,note_on,,,,,0,0,2,,,0,,,66,52
207440,note_off,,,,,80,0,2,,,0,,,61,64
207520,note_off,,,,,80,0,2,,,0,,,66,64
207520,note_on,,,,,0,0,2,,,0,,,69,49
207600,note_off,,,,,80,0,2,,,0,,,69,64
207600,note_on,,,,,0,0,2,,,0,,,61,50
207680,note_off,,,,,80,0,2,,,0,,,61,64
207680,note_on,,,,,0,0,2,,,0,,,66,48
207760,note_off,,,,,80,0,2,,,0,,,66,64
207760,note_on,,,,,0,0,2,,,0,,,69,46
207840,note_on,,,,,0,0,1,,,0,,,42,57
207840,note_off,,,,,480,0,1,,,0,,,86,64
207840,note_off,,,,,80,0,2,,,0,,,69,64
207840,note_on,,,,,0,0,2,,,0,,,61,45
207840,control_change,,,,,0,0,2,,,0,64,0,,
207920,note_off,,,,,80,0,2,,,0,,,61,64
207920,note_on,,,,,0,0,2,,,0,,,66,44
207960,set_tempo,,,,,540,1,0,476190,,,,,,
208000,note_off,,,,,80,0,2,,,0,,,66,64
208000,note_on,,,,,0,0,2,,,0,,,69,43
208020,note_off,,,,,180,0,1,,,0,,,42,64
208080,note_on,,,,,60,0,1,,,0,,,45,66
208080,note_on,,,,,0,0,2,,,0,,,61,41
208080,note_off,,,,,80,0,2,,,0,,,69,64
208100,set_tempo,,,,,140,1,0,491803,,,,,,
208160,note_on,,,,,0,0,2,,,0,,,66,46
208160,note_off,,,,,80,0,2,,,0,,,61,64
208220,set_tempo,,,,,120,1,0,526316,,,,,,
208240,note_on,,,,,0,0,2,,,0,,,69,49
208240,note_off,,,,,80,0,2,,,0,,,66,64
208260,set_tempo,,,,,40,1,0,582524,,,,,,
208260,note_off,,,,,180,0,1,,,0,,,45,64
208320,note_off,,,,,80,0,2,,,0,,,69,64
208320,note_on,,,,,60,0,1,,,0,,,49,67
208320,control_change,,,,,0,0,2,,,0,64,127,,
208320,note_on,,,,,0,0,2,,,0,,,61,53
208400,note_on,,,,,0,0,2,,,0,,,65,53
208400,note_off,,,,,80,0,2,,,0,,,61,64
208400,set_tempo,,,,,140,1,0,504202,,,,,,
208480,note_on,,,,,0,0,2,,,0,,,68,48
208480,note_off,,,,,80,0,2,,,0,,,65,64
208540,set_tempo,,,,,140,1,0,476190,,,,,,
208560,note_on,,,,,0,0,2,,,0,,,61,45
208560,note_off,,,,,80,0,2,,,0,,,68,64
208640,note_off,,,,,80,0,2,,,0,,,61,64
208640,note_on,,,,,0,0,2,,,0,,,65,43
208720,note_off,,,,,80,0,2,,,0,,,65,64
208720,note_on,,,,,0,0,2,,,0,,,68,40
208800,control_change,,,,,0,0,2,,,0,64,0,,
208800,note_on,,,,,0,0,2,,,0,,,61,43
208800,note_on,,,,,0,0,1,,,0,,,84,48
208800,note_off,,,,,480,0,1,,,0,,,49,64
208800,note_off,,,,,80,0,2,,,0,,,68,64
208880,note_on,,,,,0,0,2,,,0,,,65,39
208880,note_off,,,,,80,0,2,,,0,,,61,64
208960,note_on,,,,,0,0,2,,,0,,,68,37
208960,note_off,,,,,80,0,2,,,0,,,65,64
208980,note_off,,,,,180,0,1,,,0,,,84,64
209040,note_on,,,,,0,0,2,,,0,,,61,33
209040,note_off,,,,,80,0,2,,,0,,,68,64
209040,note_on,,,,,60,0,1,,,0,,,85,51
209120,note_on,,,,,0,0,2,,,0,,,65,33
209120,note_off,,,,,80,0,2,,,0,,,61,64
209180,set_tempo,,,,,640,1,0,521739,,,,,,
209200,note_on,,,,,0,0,2,,,0,,,68,33
209200,note_off,,,,,80,0,2,,,0,,,65,64
209220,note_off,,,,,180,0,1,,,0,,,85,64
209280,note_on,,,,,0,0,2,,,0,,,61,42
209280,control_change,,,,,0,0,2,,,0,64,127,,
209280,note_off,,,,,80,0,2,,,0,,,68,64
209280,note_on,,,,,60,0,1,,,0,,,86,58
209360,set_tempo,,,,,180,1,0,483871,,,,,,
209360,note_on,,,,,0,0,2,,,0,,,66,36
209360,note_off,,,,,80,0,2,,,0,,,61,64
209380,set_tempo,,,,,20,1,0,472441,,,,,,
209440,note_off,,,,,80,0,2,,,0,,,66,64
209440,note_on,,,,,0,0,2,,,0,,,69,36
209520,note_off,,,,,80,0,2,,,0,,,69,64
209520,note_on,,,,,0,0,2,,,0,,,61,35
209520,set_tempo,,,,,140,1,0,454545,,,,,,
209600,note_off,,,,,80,0,2,,,0,,,61,64
209600,note_on,,,,,0,0,2,,,0,,,66,33
209680,note_off,,,,,80,0,2,,,0,,,66,64
209680,note_on,,,,,0,0,2,,,0,,,69,32
209760,note_on,,,,,0,0,2,,,0,,,61,37
209760,control_change,,,,,0,0,2,,,0,64,0,,
209760,note_off,,,,,80,0,2,,,0,,,69,64
209760,note_on,,,,,0,0,1,,,0,,,42,49
209760,note_off,,,,,480,0,1,,,0,,,86,64
209840,note_off,,,,,80,0,2,,,0,,,61,64
209840,note_on,,,,,0,0,2,,,0,,,66,36
209920,note_off,,,,,80,0,2,,,0,,,66,64
209920,note_on,,,,,0,0,2,,,0,,,69,34
209940,note_off,,,,,180,0,1,,,0,,,42,64
210000,note_on,,,,,60,0,1,,,0,,,45,43
210000,note_on,,,,,0,0,2,,,0,,,61,33
210000,note_off,,,,,80,0,2,,,0,,,69,64
210080,note_on,,,,,0,0,2,,,0,,,66,31
210080,note_off,,,,,80,0,2,,,0,,,61,64
210160,note_off,,,,,80,0,2,,,0,,,66,64
210160,note_on,,,,,0,0,2,,,0,,,69,30
210180,note_off,,,,,180,0,1,,,0,,,45,64
210240,note_off,,,,,80,0,2,,,0,,,69,64
210240,control_change,,,,,0,0,2,,,0,64,127,,
210240,note_on,,,,,0,0,2,,,0,,,61,35
210240,note_on,,,,,60,0,1,,,0,,,49,49
210320,note_off,,,,,80,0,2,,,0,,,61,64
210320,note_on,,,,,0,0,2,,,0,,,65,29
210400,note_off,,,,,80,0,2,,,0,,,65,64
210400,note_on,,,,,0,0,2,,,0,,,68,31
210480,note_off,,,,,80,0,2,,,0,,,68,64
210480,note_on,,,,,0,0,2,,,0,,,61,33
210540,set_tempo,,,,,1020,1,0,461538,,,,,,
210560,note_on,,,,,0,0,2,,,0,,,65,28
210560,note_off,,,,,80,0,2,,,0,,,61,64
210640,note_on,,,,,0,0,2,,,0,,,68,29
210640,note_off,,,,,80,0,2,,,0,,,65,64
210720,note_off,,,,,80,0,2,,,0,,,68,64
210720,note_on,,,,,0,0,1,,,0,,,78,41
210720,note_off,,,,,480,0,1,,,0,,,49,64
210720,control_change,,,,,0,0,2,,,0,64,0,,
210720,note_on,,,,,0,0,2,,,0,,,61,31
210800,note_off,,,,,80,0,2,,,0,,,61,64
210800,note_on,,,,,0,0,2,,,0,,,66,32
210880,note_off,,,,,80,0,2,,,0,,,66,64
210880,note_on,,,,,0,0,2,,,0,,,69,31
210900,note_off,,,,,180,0,1,,,0,,,78,64
210960,note_on,,,,,0,0,2,,,0,,,61,29
210960,note_on,,,,,60,0,1,,,0,,,81,45
210960,note_off,,,,,80,0,2,,,0,,,69,64
211040,note_off,,,,,80,0,2,,,0,,,61,64
211040,note_on,,,,,0,0,2,,,0,,,66,27
211120,note_off,,,,,80,0,2,,,0,,,66,64
211120,note_on,,,,,0,0,2,,,0,,,69,26
211140,note_off,,,,,180,0,1,,,0,,,81,64
211200,note_off,,,,,80,0,2,,,0,,,69,64
211200,control_change,,,,,0,0,2,,,0,64,127,,
211200,note_on,,,,,0,0,2,,,0,,,61,35
211200,note_on,,,,,60,0,1,,,0,,,85,51
211280,note_off,,,,,80,0,2,,,0,,,61,64
211280,note_on,,,,,0,0,2,,,0,,,65,29
211300,set_tempo,,,,,760,1,0,468750,,,,,,
211360,note_on,,,,,0,0,2,,,0,,,68,29
211360,note_off,,,,,80,0,2,,,0,,,65,64
211440,note_off,,,,,80,0,2,,,0,,,68,64
211440,note_on,,,,,0,0,2,,,0,,,61,34
211520,note_on,,,,,0,0,2,,,0,,,65,29
211520,note_off,,,,,80,0,2,,,0,,,61,64
211600,note_off,,,,,80,0,2,,,0,,,65,64
211600,note_on,,,,,0,0,2,,,0,,,68,29
211680,note_off,,,,,80,0,2,,,0,,,68,64
211680,control_change,,,,,0,0,2,,,0,64,0,,
211680,note_on,,,,,0,0,2,,,0,,,61,30
211680,note_on,,,,,0,0,1,,,0,,,42,38
211680,note_off,,,,,480,0,1,,,0,,,85,64
211760,note_off,,,,,80,0,2,,,0,,,61,64
211760,note_on,,,,,0,0,2,,,0,,,66,28
211840,set_tempo,,,,,540,1,0,487805,,,,,,
211840,note_off,,,,,80,0,2,,,0,,,66,64
211840,note_on,,,,,0,0,2,,,0,,,69,28
211860,note_off,,,,,180,0,1,,,0,,,42,64
211920,note_on,,,,,60,0,1,,,0,,,45,42
211920,note_off,,,,,80,0,2,,,0,,,69,64
211920,note_on,,,,,0,0,2,,,0,,,61,27
212000,note_on,,,,,0,0,2,,,0,,,66,27
212000,note_off,,,,,80,0,2,,,0,,,61,64
212080,note_off,,,,,80,0,2,,,0,,,66,64
212080,note_on,,,,,0,0,2,,,0,,,69,27
212100,note_off,,,,,180,0,1,,,0,,,45,64
212160,note_on,,,,,60,0,1,,,0,,,49,49
212160,note_off,,,,,80,0,2,,,0,,,69,64
212160,note_on,,,,,0,0,2,,,0,,,61,32
212160,control_change,,,,,0,0,2,,,0,64,127,,
212240,note_on,,,,,0,0,2,,,0,,,65,32
212240,note_off,,,,,80,0,2,,,0,,,61,64
212320,note_on,,,,,0,0,2,,,0,,,68,31
212320,note_off,,,,,80,0,2,,,0,,,65,64
212400,note_on,,,,,0,0,2,,,0,,,61,30
212400,note_off,,,,,80,0,2,,,0,,,68,64
212480,note_on,,,,,0,0,2,,,0,,,65,29
212480,note_off,,,,,80,0,2,,,0,,,61,64
212560,control_change,,,,,0,0,2,,,0,64,0,,
212560,note_off,,,,,80,0,2,,,0,,,65,64
212560,note_on,,,,,0,0,2,,,0,,,68,29
212640,note_on,,,,,0,0,1,,,0,,,49,39
212640,note_off,,,,,80,0,2,,,0,,,68,64
212640,control_change,,,,,0,0,2,,,0,64,127,,
212640,note_on,,,,,0,0,2,,,0,,,57,30
212640,note_off,,,,,480,0,1,,,0,,,49,64
212720,note_off,,,,,80,0,2,,,0,,,57,64
212720,note_on,,,,,0,0,2,,,0,,,62,27
212800,set_tempo,,,,,960,1,0,504202,,,,,,
212800,note_off,,,,,80,0,2,,,0,,,62,64
212800,note_on,,,,,0,0,2,,,0,,,66,26
212880,note_off,,,,,80,0,2,,,0,,,66,64
212880,note_on,,,,,0,0,2,,,0,,,57,25
212960,note_off,,,,,80,0,2,,,0,,,57,64
212960,note_on,,,,,0,0,2,,,0,,,62,24
213040,note_on,,,,,0,0,2,,,0,,,66,23
213040,control_change,,,,,0,0,2,,,0,64,0,,
213040,note_off,,,,,80,0,2,,,0,,,62,64
213120,control_change,,,,,0,0,2,,,0,64,127,,
213120,note_off,,,,,80,0,2,,,0,,,66,64
213120,note_on,,,,,0,0,2,,,0,,,56,23
213120,note_off,,,,,480,0,1,,,0,,,49,64
213120,note_on,,,,,0,0,1,,,0,,,49,36
213200,note_on,,,,,0,0,2,,,0,,,61,21
213200,note_off,,,,,80,0,2,,,0,,,56,64
213280,note_on,,,,,0,0,2,,,0,,,65,21
213280,note_off,,,,,80,0,2,,,0,,,61,64
213360,note_on,,,,,0,0,2,,,0,,,56,22
213360,note_off,,,,,80,0,2,,,0,,,65,64
213440,note_off,,,,,80,0,2,,,0,,,56,64
213440,note_on,,,,,0,0,2,,,0,,,61,19
213520,note_off,,,,,80,0,2,,,0,,,61,64
213520,note_on,,,,,0,0,2,,,0,,,65,19
213520,control_change,,,,,0,0,2,,,0,64,0,,
213600,note_off,,,,,480,0,1,,,0,,,49,64
213600,note_on,,,,,0,0,1,,,0,,,49,31
213600,note_off,,,,,80,0,2,,,0,,,65,64
213600,control_change,,,,,0,0,2,,,0,64,127,,
213600,note_on,,,,,0,0,2,,,0,,,54,21
213680,note_off,,,,,80,0,2,,,0,,,54,64
213680,note_on,,,,,0,0,2,,,0,,,57,18
213760,note_off,,,,,80,0,2,,,0,,,57,64
213760,note_on,,,,,0,0,2,,,0,,,62,18
213840,note_off,,,,,80,0,2,,,0,,,62,64
213840,note_on,,,,,0,0,2,,,0,,,54,19
213920,note_off,,,,,80,0,2,,,0,,,54,64
213920,note_on,,,,,0,0,2,,,0,,,57,18
214000,note_on,,,,,0,0,2,,,0,,,62,18
214000,control_change,,,,,0,0,2,,,0,64,0,,
214000,note_off,,,,,80,0,2,,,0,,,57,64
214080,note_on,,,,,0,0,1,,,0,,,49,25
214080,note_off,,,,,480,0,1,,,0,,,49,64
214080,note_off,,,,,80,0,2,,,0,,,62,64
214080,control_change,,,,,0,0,2,,,0,64,127,,
214080,note_on,,,,,0,0,2,,,0,,,53,21
214160,note_off,,,,,80,0,2,,,0,,,53,64
214160,note_on,,,,,0,0,2,,,0,,,56,18
214160,set_tempo,,,,,1360,1,0,521739,,,,,,
214240,note_on,,,,,0,0,2,,,0,,,61,18
214240,note_off,,,,,80,0,2,,,0,,,56,64
214320,note_off,,,,,80,0,2,,,0,,,61,64
214320,note_on,,,,,0,0,2,,,0,,,53,19
214400,note_off,,,,,80,0,2,,,0,,,53,64
214400,note_on,,,,,0,0,2,,,0,,,56,18
214480,note_off,,,,,80,0,2,,,0,,,56,64
214480,control_change,,,,,0,0,2,,,0,64,0,,
214480,note_on,,,,,0,0,2,,,0,,,61,18
214560,note_off,,,,,80,0,2,,,0,,,61,64
214560,note_on,,,,,0,0,2,,,0,,,53,21
214560,control_change,,,,,0,0,2,,,0,64,127,,
214640,note_off,,,,,80,0,2,,,0,,,53,64
214640,note_on,,,,,0,0,2,,,0,,,56,18
214660,set_tempo,,,,,500,1,0,535714,,,,,,
214720,note_off,,,,,80,0,2,,,0,,,56,64
214720,note_on,,,,,0,0,2,,,0,,,61,18
214800,note_off,,,,,80,0,2,,,0,,,61,64
214800,note_on,,,,,0,0,2,,,0,,,53,19
214880,note_off,,,,,80,0,2,,,0,,,53,64
214880,note_on,,,,,0,0,2,,,0,,,56,18
214960,note_off,,,,,80,0,2,,,0,,,56,64
214960,note_on,,,,,0,0,2,,,0,,,61,18
214960,control_change,,,,,0,0,2,,,0,64,0,,
215040,note_off,,,,,80,0,2,,,0,,,61,64
215040,control_change,,,,,0,0,2,,,0,64,127,,
215040,note_on,,,,,0,0,2,,,0,,,50,24
215120,note_on,,,,,0,0,2,,,0,,,54,18
215120,note_off,,,,,80,0,2,,,0,,,50,64
215200,note_on,,,,,0,0,2,,,0,,,61,18
215200,note_off,,,,,80,0,2,,,0,,,54,64
215280,note_off,,,,,80,0,2,,,0,,,61,64
215280,note_on,,,,,0,0,2,,,0,,,50,23
215280,note_off,,,,,1200,0,1,,,0,,,49,64
215360,note_off,,,,,80,0,2,,,0,,,50,64
215360,note_on,,,,,0,0,2,,,0,,,54,18
215440,note_off,,,,,80,0,2,,,0,,,54,64
215440,note_on,,,,,0,0,2,,,0,,,61,18
215440,control_change,,,,,0,0,2,,,0,64,0,,
215520,note_off,,,,,80,0,2,,,0,,,61,64
215520,control_change,,,,,0,0,2,,,0,64,127,,
215520,note_on,,,,,0,0,2,,,0,,,50,23
215600,set_tempo,,,,,940,1,0,555556,,,,,,
215600,note_on,,,,,0,0,2,,,0,,,54,18
215600,note_off,,,,,80,0,2,,,0,,,50,64
215680,note_on,,,,,0,0,2,,,0,,,61,18
215680,note_off,,,,,80,0,2,,,0,,,54,64
215760,note_off,,,,,80,0,2,,,0,,,61,64
215760,note_on,,,,,0,0,2,,,0,,,50,23
215840,note_off,,,,,80,0,2,,,0,,,50,64
215840,note_on,,,,,0,0,2,,,0,,,54,18
215920,note_off,,,,,80,0,2,,,0,,,54,64
215920,note_on,,,,,0,0,2,,,0,,,61,18
215920,control_change,,,,,0,0,2,,,0,64,0,,
216000,note_off,,,,,80,0,2,,,0,,,61,64
216000,control_change,,,,,0,0,2,,,0,64,127,,
216000,note_on,,,,,0,0,2,,,0,,,49,23
216080,note_off,,,,,80,0,2,,,0,,,49,64
216080,note_on,,,,,0,0,2,,,0,,,53,18
216160,note_on,,,,,0,0,2,,,0,,,61,18
216160,note_off,,,,,80,0,2,,,0,,,53,64
216240,note_off,,,,,80,0,2,,,0,,,61,64
216240,note_on,,,,,0,0,2,,,0,,,49,23
216320,note_off,,,,,80,0,2,,,0,,,49,64
216320,note_on,,,,,0,0,2,,,0,,,53,18
216400,note_off,,,,,80,0,2,,,0,,,53,64
216400,note_on,,,,,0,0,2,,,0,,,61,18
216400,control_change,,,,,0,0,2,,,0,64,0,,
216440,set_tempo,,,,,840,1,0,571429,,,,,,
216480,note_off,,,,,80,0,2,,,0,,,61,64
216480,control_change,,,,,0,0,2,,,0,64,127,,
216480,note_on,,,,,0,0,2,,,0,,,49,23
216560,note_off,,,,,80,0,2,,,0,,,49,64
216560,note_on,,,,,0,0,2,,,0,,,53,18
216640,note_on,,,,,0,0,2,,,0,,,61,18
216640,note_off,,,,,80,0,2,,,0,,,53,64
216720,note_on,,,,,0,0,2,,,0,,,49,22
216720,note_off,,,,,80,0,2,,,0,,,61,64
216800,note_on,,,,,0,0,2,,,0,,,53,18
216800,note_off,,,,,80,0,2,,,0,,,49,64
216880,control_change,,,,,0,0,2,,,0,64,0,,
216880,note_on,,,,,0,0,2,,,0,,,61,18
216880,note_off,,,,,80,0,2,,,0,,,53,64
216960,note_off,,,,,80,0,2,,,0,,,61,64
216960,note_on,,,,,0,0,2,,,0,,,49,26
216960,set_tempo,,,,,520,1,0,705882,,,,,,
217020,set_tempo,,,,,60,1,0,697674,,,,,,
217080,note_off,,,,,120,0,2,,,0,,,49,64
217080,note_on,,,,,0,0,2,,,0,,,61,23
217170,note_off,,,,,90,0,2,,,0,,,61,64
217180,set_tempo,,,,,160,1,0,606061,,,,,,
217200,control_change,,,,,30,0,2,,,0,64,127,,
217200,note_on,,,,,1920,0,1,,,0,,,73,37
217200,note_on,,,,,0,0,2,,,0,,,61,28
217290,note_off,,,,,90,0,2,,,0,,,61,64
217320,note_on,,,,,30,0,2,,,0,,,61,26
217410,note_off,,,,,90,0,2,,,0,,,61,64
217420,set_tempo,,,,,240,1,0,652174,,,,,,
217440,note_on,,,,,30,0,2,,,0,,,61,31
217530,note_off,,,,,90,0,2,,,0,,,61,64
217560,note_on,,,,,30,0,2,,,0,,,61,26
217620,set_tempo,,,,,200,1,0,731707,,,,,,
217650,note_off,,,,,90,0,2,,,0,,,61,64
217680,control_change,,,,,30,0,2,,,0,64,0,,
217680,note_off,,,,,480,0,1,,,0,,,73,64
217680,note_on,,,,,0,0,1,,,0,,,72,33
217680,note_on,,,,,0,0,2,,,0,,,61,27
217720,set_tempo,,,,,100,1,0,895522,,,,,,
217770,note_off,,,,,90,0,2,,,0,,,61,64
217780,set_tempo,,,,,60,1,0,1090909,,,,,,
217784,note_off,,,,,104,0,1,,,0,,,72,64
217800,note_on,,,,,30,0,2,,,0,,,61,21
217800,note_on,,,,,16,0,1,,,0,,,71,25
217840,set_tempo,,,,,60,1,0,1304348,,,,,,
217890,note_off,,,,,90,0,2,,,0,,,61,64
217904,note_off,,,,,104,0,1,,,0,,,71,64
217920,set_tempo,,,,,80,1,0,1538462,,,,,,
217920,note_on,,,,,30,0,2,,,0,,,54,28
217920,note_on,,,,,16,0,1,,,0,,,70,33
217960,set_tempo,,,,,40,1,0,689655,,,,,,
218040,note_on,,,,,0,0,2,,,0,,,61,25
218040,note_off,,,,,120,0,2,,,0,,,54,64
218040,set_tempo,,,,,80,1,0,600000,,,,,,
218070,note_off,,,,,150,0,1,,,0,,,70,64
218130,note_off,,,,,90,0,2,,,0,,,61,64
218160,note_on,,,,,0,0,2,,,0,,,61,25
218160,note_on,,,,,90,0,1,,,0,,,73,40
218160,note_on,,,,,0,0,1,,,0,,,70,35
218160,set_tempo,,,,,120,1,0,540541,,,,,,
218160,control_change,,,,,30,0,2,,,0,64,127,,
218250,note_off,,,,,90,0,2,,,0,,,61,64
218280,note_on,,,,,30,0,2,,,0,,,61,25
218280,set_tempo,,,,,120,1,0,495868,,,,,,
218370,note_off,,,,,90,0,2,,,0,,,61,64
218400,note_on,,,,,30,0,2,,,0,,,58,29
218520,note_off,,,,,120,0,2,,,0,,,58,64
218520,note_on,,,,,0,0,2,,,0,,,61,25
218610,note_off,,,,,90,0,2,,,0,,,61,64
218640,control_change,,,,,30,0,2,,,0,64,0,,
218640,note_off,,,,,480,0,1,,,0,,,70,64
218640,note_off,,,,,0,0,1,,,0,,,73,64
218640,note_on,,,,,0,0,1,,,0,,,78,31
218640,note_on,,,,,0,0,1,,,0,,,73,31
218640,note_on,,,,,0,0,1,,,0,,,70,27
218640,note_on,,,,,0,0,2,,,0,,,61,21
218640,set_tempo,,,,,360,1,0,476190,,,,,,
218730,note_off,,,,,90,0,2,,,0,,,61,64
218760,note_on,,,,,30,0,2,,,0,,,61,20
218850,note_off,,,,,210,0,1,,,0,,,70,64
218850,note_off,,,,,90,0,2,,,0,,,61,64
218850,note_off,,,,,0,0,1,,,0,,,78,64
218850,note_off,,,,,0,0,1,,,0,,,73,64
218880,note_on,,,,,30,0,2,,,0,,,56,27
218880,set_tempo,,,,,240,1,0,458015,,,,,,
218880,note_on,,,,,30,0,1,,,0,,,78,38
218880,note_on,,,,,0,0,1,,,0,,,71,38
218880,note_on,,,,,0,0,1,,,0,,,73,38
219000,note_on,,,,,0,0,2,,,0,,,61,21
219000,note_off,,,,,120,0,2,,,0,,,56,64
219090,note_off,,,,,90,0,2,,,0,,,61,64
219120,note_on,,,,,0,0,1,,,0,,,77,33
219120,note_off,,,,,240,0,1,,,0,,,78,64
219120,note_on,,,,,30,0,2,,,0,,,61,21
219210,note_off,,,,,90,0,2,,,0,,,61,64
219240,note_on,,,,,30,0,2,,,0,,,61,22
219240,set_tempo,,,,,360,1,0,447761,,,,,,
219240,note_off,,,,,0,0,1,,,0,,,73,64
219240,note_off,,,,,0,0,1,,,0,,,71,64
219240,note_off,,,,,120,0,1,,,0,,,77,64
219330,note_off,,,,,90,0,2,,,0,,,61,64
219360,note_on,,,,,30,0,2,,,0,,,58,20
219360,control_change,,,,,0,0,2,,,0,64,127,,
219360,note_on,,,,,0,0,1,,,0,,,70,23
219360,note_on,,,,,120,0,1,,,0,,,78,27
219360,note_on,,,,,0,0,1,,,0,,,73,27
219480,note_on,,,,,0,0,2,,,0,,,61,16
219480,note_off,,,,,120,0,2,,,0,,,58,64
219570,note_off,,,,,90,0,2,,,0,,,61,64
219600,note_on,,,,,30,0,2,,,0,,,61,21
219720,note_off,,,,,120,0,2,,,0,,,61,64
219720,note_on,,,,,0,0,2,,,0,,,66,17
219810,note_off,,,,,90,0,2,,,0,,,66,64
219840,note_on,,,,,0,0,1,,,0,,,75,37
219840,note_on,,,,,0,0,1,,,0,,,80,37
219840,note_off,,,,,480,0,1,,,0,,,70,64
219840,note_off,,,,,0,0,1,,,0,,,73,64
219840,note_on,,,,,0,0,2,,,0,,,59,27
219840,control_change,,,,,30,0,2,,,0,64,0,,
219840,note_off,,,,,0,0,1,,,0,,,78,64
219960,note_on,,,,,0,0,2,,,0,,,66,21
219960,note_off,,,,,120,0,2,,,0,,,59,64
220050,note_off,,,,,90,0,2,,,0,,,66,64
220080,note_on,,,,,30,0,2,,,0,,,66,21
220170,note_off,,,,,90,0,2,,,0,,,66,64
220180,set_tempo,,,,,940,1,0,461538,,,,,,
220200,note_off,,,,,360,0,1,,,0,,,75,64
220200,note_on,,,,,0,0,1,,,0,,,75,31
220200,note_off,,,,,0,0,1,,,0,,,80,64
220200,note_on,,,,,0,0,1,,,0,,,80,31
220200,note_on,,,,,30,0,2,,,0,,,66,22
220290,note_off,,,,,90,0,2,,,0,,,66,64
220320,note_on,,,,,0,0,2,,,0,,,60,29
220320,control_change,,,,,30,0,2,,,0,64,127,,
220320,note_off,,,,,120,0,1,,,0,,,75,64
220320,note_off,,,,,0,0,1,,,0,,,80,64
220320,note_on,,,,,0,0,1,,,0,,,82,30
220320,note_on,,,,,0,0,1,,,0,,,75,34
220440,note_off,,,,,120,0,2,,,0,,,60,64
220440,note_on,,,,,0,0,2,,,0,,,66,22
220530,note_off,,,,,90,0,2,,,0,,,66,64
220560,note_off,,,,,0,0,1,,,0,,,82,64
220560,note_on,,,,,0,0,1,,,0,,,75,26
220560,note_on,,,,,30,0,2,,,0,,,60,26
220560,note_off,,,,,240,0,1,,,0,,,75,64
220560,note_on,,,,,0,0,1,,,0,,,78,30
220660,set_tempo,,,,,480,1,0,476190,,,,,,
220680,note_on,,,,,0,0,2,,,0,,,70,22
220680,note_off,,,,,120,0,2,,,0,,,60,64
220770,note_off,,,,,210,0,1,,,0,,,75,64
220770,note_off,,,,,0,0,1,,,0,,,78,64
220770,note_off,,,,,90,0,2,,,0,,,70,64
220800,note_on,,,,,0,0,2,,,0,,,61,27
220800,control_change,,,,,30,0,2,,,0,64,0,,
220800,note_on,,,,,0,0,1,,,0,,,73,35
220800,note_on,,,,,30,0,1,,,0,,,78,35
220920,note_on,,,,,0,0,2,,,0,,,70,21
220920,note_off,,,,,120,0,2,,,0,,,61,64
221010,note_off,,,,,90,0,2,,,0,,,70,64
221040,note_on,,,,,30,0,2,,,0,,,70,21
221040,set_tempo,,,,,380,1,0,504202,,,,,,
221130,note_off,,,,,90,0,2,,,0,,,70,64
221160,note_on,,,,,30,0,2,,,0,,,70,22
221250,note_off,,,,,90,0,2,,,0,,,70,64
221280,note_on,,,,,0,0,1,,,0,,,68,32
221280,note_on,,,,,0,0,1,,,0,,,77,32
221280,note_off,,,,,480,0,1,,,0,,,78,64
221370,note_off,,,,,0,0,1,,,0,,,73,64
221370,note_off,,,,,0,0,1,,,0,,,77,64
221370,note_off,,,,,90,0,1,,,0,,,68,64
221400,set_tempo,,,,,360,1,0,526316,,,,,,
221400,note_on,,,,,30,0,1,,,0,,,75,32
221400,note_on,,,,,0,0,1,,,0,,,71,32
221520,note_on,,,,,0,0,1,,,0,,,70,30
221520,note_off,,,,,120,0,1,,,0,,,71,64
221520,note_off,,,,,0,0,1,,,0,,,75,64
221520,note_on,,,,,0,0,1,,,0,,,73,30
221580,set_tempo,,,,,180,1,0,555556,,,,,,
221640,note_off,,,,,120,0,1,,,0,,,70,64
221640,note_off,,,,,0,0,1,,,0,,,73,64
221640,note_on,,,,,0,0,1,,,0,,,68,27
221640,note_on,,,,,0,0,1,,,0,,,71,27
221730,note_off,,,,,90,0,1,,,0,,,68,64
221730,note_off,,,,,0,0,1,,,0,,,71,64
221740,set_tempo,,,,,160,1,0,582524,,,,,,
221760,note_on,,,,,30,0,1,,,0,,,70,33
221760,note_on,,,,,510,0,2,,,0,,,54,28
221760,set_tempo,,,,,20,1,0,705882,,,,,,
221840,set_tempo,,,,,80,1,0,588235,,,,,,
221880,note_off,,,,,120,0,2,,,0,,,54,64
221880,note_on,,,,,0,0,2,,,0,,,61,25
221910,note_off,,,,,150,0,1,,,0,,,70,64
221970,note_off,,,,,90,0,2,,,0,,,61,64
221980,set_tempo,,,,,140,1,0,535714,,,,,,
222000,control_change,,,,,30,0,2,,,0,64,127,,
222000,note_on,,,,,0,0,2,,,0,,,61,25
222000,note_on,,,,,90,0,1,,,0,,,73,40
222000,note_on,,,,,0,0,1,,,0,,,70,35
222090,note_off,,,,,90,0,2,,,0,,,61,64
222100,set_tempo,,,,,120,1,0,495868,,,,,,
222120,note_on,,,,,30,0,2,,,0,,,61,25
222210,note_off,,,,,90,0,2,,,0,,,61,64
222240,set_tempo,,,,,140,1,0,483871,,,,,,
222240,note_on,,,,,30,0,2,,,0,,,58,29
222360,note_on,,,,,0,0,2,,,0,,,61,25
222360,note_off,,,,,120,0,2,,,0,,,58,64
222450,note_off,,,,,90,0,2,,,0,,,61,64
222480,note_off,,,,,0,0,1,,,0,,,73,64
222480,note_off,,,,,480,0,1,,,0,,,70,64
222480,note_on,,,,,0,0,1,,,0,,,78,31
222480,note_on,,,,,0,0,1,,,0,,,70,27
222480,note_on,,,,,0,0,1,,,0,,,73,31
222480,note_on,,,,,0,0,2,,,0,,,61,21
222480,control_change,,,,,30,0,2,,,0,64,0,,
222480,set_tempo,,,,,240,1,0,476190,,,,,,
222570,note_off,,,,,90,0,2,,,0,,,61,64
222600,note_on,,,,,30,0,2,,,0,,,61,20
222620,set_tempo,,,,,140,1,0,465116,,,,,,
222690,note_off,,,,,0,0,1,,,0,,,78,64
222690,note_off,,,,,210,0,1,,,0,,,70,64
222690,note_off,,,,,90,0,2,,,0,,,61,64
222690,note_off,,,,,0,0,1,,,0,,,73,64
222720,note_on,,,,,0,0,1,,,0,,,71,31
222720,note_on,,,,,0,0,1,,,0,,,73,31
222720,note_on,,,,,30,0,1,,,0,,,78,31
222720,note_on,,,,,30,0,2,,,0,,,56,24
222840,note_on,,,,,0,0,2,,,0,,,61,21
222840,note_off,,,,,120,0,2,,,0,,,56,64
222930,note_off,,,,,90,0,2,,,0,,,61,64
222960,note_on,,,,,30,0,2,,,0,,,61,21
222960,note_off,,,,,240,0,1,,,0,,,78,64
222960,note_on,,,,,0,0,1,,,0,,,77,27
223050,note_off,,,,,90,0,2,,,0,,,61,64
223080,note_off,,,,,120,0,1,,,0,,,77,64
223080,note_off,,,,,0,0,1,,,0,,,71,64
223080,note_on,,,,,30,0,2,,,0,,,61,22
223080,note_off,,,,,0,0,1,,,0,,,73,64
223170,note_off,,,,,90,0,2,,,0,,,61,64
223200,note_on,,,,,0,0,1,,,0,,,73,27
223200,note_on,,,,,0,0,1,,,0,,,70,23
223200,note_on,,,,,120,0,1,,,0,,,78,27
223200,control_change,,,,,0,0,2,,,0,64,127,,
223200,note_on,,,,,30,0,2,,,0,,,58,29
223320,note_off,,,,,120,0,2,,,0,,,58,64
223320,note_on,,,,,0,0,2,,,0,,,61,22
223410,note_off,,,,,90,0,2,,,0,,,61,64
223440,note_on,,,,,30,0,2,,,0,,,61,26
223560,note_off,,,,,120,0,2,,,0,,,61,64
223560,note_on,,,,,0,0,2,,,0,,,66,22
223650,note_off,,,,,90,0,2,,,0,,,66,64
223680,note_off,,,,,0,0,1,,,0,,,78,64
223680,note_off,,,,,0,0,1,,,0,,,73,64
223680,control_change,,,,,30,0,2,,,0,64,0,,
223680,note_on,,,,,0,0,1,,,0,,,80,37
223680,note_on,,,,,0,0,1,,,0,,,74,37
223680,note_off,,,,,480,0,1,,,0,,,70,64
223680,note_on,,,,,0,0,2,,,0,,,59,27
223800,note_on,,,,,0,0,2,,,0,,,66,21
223800,note_off,,,,,120,0,2,,,0,,,59,64
223890,note_off,,,,,90,0,2,,,0,,,66,64
223920,note_on,,,,,30,0,2,,,0,,,66,21
224000,set_tempo,,,,,1380,1,0,487805,,,,,,
224010,note_off,,,,,90,0,2,,,0,,,66,64
224040,note_on,,,,,0,0,1,,,0,,,74,31
224040,note_on,,,,,0,0,1,,,0,,,80,31
224040,note_off,,,,,360,0,1,,,0,,,74,64
224040,note_off,,,,,0,0,1,,,0,,,80,64
224040,note_on,,,,,30,0,2,,,0,,,66,22
224130,note_off,,,,,90,0,2,,,0,,,66,64
224160,note_off,,,,,0,0,1,,,0,,,80,64
224160,note_off,,,,,120,0,1,,,0,,,74,64
224160,note_on,,,,,0,0,1,,,0,,,74,34
224160,note_on,,,,,0,0,2,,,0,,,60,29
224160,note_on,,,,,0,0,1,,,0,,,81,30
224160,control_change,,,,,30,0,2,,,0,64,127,,
224280,note_on,,,,,0,0,2,,,0,,,66,22
224280,note_off,,,,,120,0,2,,,0,,,60,64
224370,note_off,,,,,90,0,2,,,0,,,66,64
224400,note_off,,,,,240,0,1,,,0,,,74,64
224400,note_on,,,,,0,0,1,,,0,,,78,30
224400,note_on,,,,,0,0,1,,,0,,,74,26
224400,note_on,,,,,30,0,2,,,0,,,60,26
224400,note_off,,,,,0,0,1,,,0,,,81,64
224520,note_off,,,,,120,0,2,,,0,,,60,64
224520,note_on,,,,,0,0,2,,,0,,,66,22
224610,note_off,,,,,210,0,1,,,0,,,74,64
224610,note_off,,,,,0,0,1,,,0,,,78,64
224610,note_off,,,,,90,0,2,,,0,,,66,64
224640,control_change,,,,,0,0,2,,,0,64,0,,
224640,control_change,,,,,30,0,2,,,0,64,0,,
224640,set_tempo,,,,,640,1,0,512821,,,,,,
224640,note_on,,,,,0,0,1,,,0,,,73,37
224640,note_on,,,,,30,0,1,,,0,,,78,37
224640,note_on,,,,,0,0,2,,,0,,,61,27
224760,note_off,,,,,120,0,2,,,0,,,61,64
224760,note_on,,,,,0,0,2,,,0,,,69,21
224850,note_off,,,,,90,0,2,,,0,,,69,64
224880,note_on,,,,,30,0,2,,,0,,,69,21
224970,note_off,,,,,90,0,2,,,0,,,69,64
224980,set_tempo,,,,,340,1,0,540541,,,,,,
225000,note_on,,,,,0,0,1,,,0,,,73,31
225000,note_on,,,,,0,0,1,,,0,,,78,31
225000,note_on,,,,,30,0,2,,,0,,,69,22
225000,note_off,,,,,360,0,1,,,0,,,73,64
225000,note_off,,,,,0,0,1,,,0,,,78,64
225090,note_off,,,,,90,0,2,,,0,,,69,64
225120,note_off,,,,,0,0,1,,,0,,,78,64
225120,note_on,,,,,0,0,1,,,0,,,72,34
225120,control_change,,,,,30,0,2,,,0,64,127,,
225120,note_off,,,,,120,0,1,,,0,,,73,64
225120,note_on,,,,,0,0,1,,,0,,,81,30
225120,note_on,,,,,0,0,2,,,0,,,62,29
225240,note_on,,,,,0,0,2,,,0,,,66,22
225240,note_off,,,,,120,0,2,,,0,,,62,64
225280,set_tempo,,,,,300,1,0,571429,,,,,,
225330,note_off,,,,,90,0,2,,,0,,,66,64
225360,note_on,,,,,30,0,2,,,0,,,63,32
225360,note_off,,,,,240,0,1,,,0,,,72,64
225360,note_off,,,,,0,0,1,,,0,,,81,64
225360,note_on,,,,,0,0,1,,,0,,,72,38
225360,note_on,,,,,0,0,1,,,0,,,78,38
225440,set_tempo,,,,,160,1,0,600000,,,,,,
225480,note_off,,,,,120,0,2,,,0,,,63,64
225480,note_on,,,,,0,0,2,,,0,,,69,24
225570,note_off,,,,,0,0,1,,,0,,,72,64
225570,note_off,,,,,210,0,1,,,0,,,78,64
225570,note_off,,,,,90,0,2,,,0,,,69,64
225600,note_on,,,,,30,0,2,,,0,,,64,37
225600,control_change,,,,,0,0,2,,,0,64,0,,
225600,note_on,,,,,0,0,1,,,0,,,76,41
225600,note_on,,,,,30,0,1,,,0,,,81,41
225720,note_off,,,,,120,0,2,,,0,,,64,64
225720,note_on,,,,,0,0,2,,,0,,,69,33
225740,set_tempo,,,,,300,1,0,560748,,,,,,
225810,note_off,,,,,90,0,2,,,0,,,69,64
225820,set_tempo,,,,,80,1,0,517241,,,,,,
225840,note_on,,,,,30,0,2,,,0,,,69,36
225960,note_on,,,,,0,0,1,,,0,,,81,39
225960,note_off,,,,,0,0,1,,,0,,,81,64
225960,note_on,,,,,0,0,1,,,0,,,76,39
225960,note_off,,,,,360,0,1,,,0,,,76,64
225960,note_off,,,,,120,0,2,,,0,,,69,64
225960,note_on,,,,,0,0,2,,,0,,,73,40
226040,set_tempo,,,,,220,1,0,618557,,,,,,
226050,note_off,,,,,90,0,2,,,0,,,73,64
226080,note_on,,,,,0,0,1,,,0,,,85,46
226080,note_on,,,,,0,0,1,,,0,,,81,46
226080,note_off,,,,,0,0,1,,,0,,,76,64
226080,note_on,,,,,30,0,2,,,0,,,64,44
226080,note_off,,,,,120,0,1,,,0,,,81,64
226140,set_tempo,,,,,100,1,0,759494,,,,,,
226200,note_off,,,,,120,0,2,,,0,,,64,64
226200,note_on,,,,,0,0,2,,,0,,,76,38
226260,set_tempo,,,,,120,1,0,789474,,,,,,
226290,note_off,,,,,90,0,2,,,0,,,76,64
226320,note_on,,,,,0,0,1,,,0,,,83,40
226320,note_on,,,,,0,0,1,,,0,,,80,40
226320,note_off,,,,,0,0,1,,,0,,,81,64
226320,set_tempo,,,,,60,1,0,1071429,,,,,,
226320,note_off,,,,,240,0,1,,,0,,,85,64
226320,note_on,,,,,30,0,2,,,0,,,64,48
226440,note_on,,,,,0,0,2,,,0,,,74,28
226440,note_off,,,,,120,0,2,,,0,,,64,64
226460,set_tempo,,,,,140,1,0,2500000,,,,,,
226530,note_off,,,,,0,0,1,,,0,,,80,64
226530,note_off,,,,,90,0,2,,,0,,,74,64
226530,note_off,,,,,210,0,1,,,0,,,83,64
226560,note_on,,,,,30,0,1,,,0,,,73,33
226560,note_on,,,,,30,0,2,,,0,,,57,31
226580,set_tempo,,,,,120,1,0,759494,,,,,,
226680,set_tempo,,,,,100,1,0,750000,,,,,,
226680,note_off,,,,,120,0,2,,,0,,,57,64
226680,note_on,,,,,0,0,2,,,0,,,64,28
226700,set_tempo,,,,,20,1,0,625000,,,,,,
226710,note_off,,,,,150,0,1,,,0,,,73,64
226770,note_off,,,,,90,0,2,,,0,,,64,64
226800,set_tempo,,,,,100,1,0,571429,,,,,,
226800,note_on,,,,,90,0,1,,,0,,,73,39
226800,note_on,,,,,0,0,1,,,0,,,76,39
226800,control_change,,,,,30,0,2,,,0,64,127,,
226800,note_on,,,,,0,0,2,,,0,,,64,28
226880,set_tempo,,,,,80,1,0,545455,,,,,,
226890,note_off,,,,,90,0,2,,,0,,,64,64
226920,note_on,,,,,30,0,2,,,0,,,64,28
227000,set_tempo,,,,,120,1,0,508475,,,,,,
227010,note_off,,,,,90,0,2,,,0,,,64,64
227040,note_on,,,,,30,0,2,,,0,,,61,32
227160,note_off,,,,,120,0,2,,,0,,,61,64
227160,note_on,,,,,0,0,2,,,0,,,64,28
227180,set_tempo,,,,,180,1,0,483871,,,,,,
227250,note_off,,,,,90,0,2,,,0,,,64,64
227280,note_off,,,,,480,0,1,,,0,,,76,64
227280,note_off,,,,,0,0,1,,,0,,,73,64
227280,note_on,,,,,0,0,1,,,0,,,73,30
227280,note_on,,,,,0,0,2,,,0,,,64,23
227280,note_on,,,,,0,0,1,,,0,,,76,35
227280,note_on,,,,,0,0,1,,,0,,,81,35
227280,control_change,,,,,30,0,2,,,0,64,0,,
227370,note_off,,,,,90,0,2,,,0,,,64,64
227400,note_on,,,,,30,0,2,,,0,,,64,22
227490,note_off,,,,,210,0,1,,,0,,,81,64
227490,note_off,,,,,0,0,1,,,0,,,76,64
227490,note_off,,,,,0,0,1,,,0,,,73,64
227490,note_off,,,,,90,0,2,,,0,,,64,64
227500,set_tempo,,,,,320,1,0,472441,,,,,,
227520,note_on,,,,,30,0,2,,,0,,,59,30
227520,note_on,,,,,30,0,1,,,0,,,81,43
227520,note_on,,,,,0,0,1,,,0,,,76,43
227520,note_on,,,,,0,0,1,,,0,,,74,43
227620,set_tempo,,,,,120,1,0,461538,,,,,,
227640,note_off,,,,,120,0,2,,,0,,,59,64
227640,note_on,,,,,0,0,2,,,0,,,64,23
227700,set_tempo,,,,,80,1,0,447761,,,,,,
227730,note_off,,,,,90,0,2,,,0,,,64,64
227760,note_on,,,,,30,0,2,,,0,,,64,23
227760,note_on,,,,,0,0,1,,,0,,,80,37
227760,note_off,,,,,240,0,1,,,0,,,81,64
227850,note_off,,,,,90,0,2,,,0,,,64,64
227880,note_off,,,,,0,0,1,,,0,,,74,64
227880,note_off,,,,,0,0,1,,,0,,,76,64
227880,note_on,,,,,30,0,2,,,0,,,64,24
227880,note_off,,,,,120,0,1,,,0,,,80,64
227970,note_off,,,,,90,0,2,,,0,,,64,64
228000,note_on,,,,,30,0,2,,,0,,,61,22
228000,control_change,,,,,0,0,2,,,0,64,127,,
228000,note_on,,,,,120,0,1,,,0,,,81,30
228000,note_on,,,,,0,0,1,,,0,,,76,30
228000,note_on,,,,,0,0,1,,,0,,,73,26
228120,note_on,,,,,0,0,2,,,0,,,64,18
228120,note_off,,,,,120,0,2,,,0,,,61,64
228210,note_off,,,,,90,0,2,,,0,,,64,64
228240,note_on,,,,,30,0,2,,,0,,,64,23
228360,note_on,,,,,0,0,2,,,0,,,69,19
228360,note_off,,,,,120,0,2,,,0,,,64,64
228450,note_off,,,,,90,0,2,,,0,,,69,64
228480,note_off,,,,,0,0,1,,,0,,,76,64
228480,note_on,,,,,0,0,1,,,0,,,83,41
228480,note_off,,,,,0,0,1,,,0,,,81,64
228480,control_change,,,,,30,0,2,,,0,64,0,,
228480,note_on,,,,,0,0,2,,,0,,,62,30
228480,note_off,,,,,480,0,1,,,0,,,73,64
228480,note_on,,,,,0,0,1,,,0,,,78,41
228600,note_off,,,,,120,0,2,,,0,,,62,64
228600,note_on,,,,,0,0,2,,,0,,,69,23
228690,note_off,,,,,90,0,2,,,0,,,69,64
228720,note_on,,,,,30,0,2,,,0,,,69,23
228810,note_off,,,,,90,0,2,,,0,,,69,64
228840,note_on,,,,,30,0,2,,,0,,,69,24
228840,note_on,,,,,0,0,1,,,0,,,83,35
228840,note_on,,,,,0,0,1,,,0,,,78,35
228840,note_off,,,,,360,0,1,,,0,,,83,64
228840,note_off,,,,,0,0,1,,,0,,,78,64
228930,note_off,,,,,90,0,2,,,0,,,69,64
228960,note_off,,,,,0,0,1,,,0,,,78,64
228960,note_on,,,,,0,0,1,,,0,,,78,38
228960,note_on,,,,,0,0,1,,,0,,,85,34
228960,note_on,,,,,0,0,2,,,0,,,63,32
228960,note_off,,,,,120,0,1,,,0,,,83,64
228960,control_change,,,,,30,0,2,,,0,64,127,,
229080,note_on,,,,,0,0,2,,,0,,,69,24
229080,note_off,,,,,120,0,2,,,0,,,63,64
229170,note_off,,,,,90,0,2,,,0,,,69,64
229200,note_on,,,,,30,0,2,,,0,,,63,29
229200,note_off,,,,,240,0,1,,,0,,,85,64
229200,note_off,,,,,0,0,1,,,0,,,78,64
229200,note_on,,,,,0,0,1,,,0,,,73,29
229200,note_on,,,,,0,0,1,,,0,,,81,34
229320,note_on,,,,,0,0,2,,,0,,,73,24
229320,note_off,,,,,120,0,2,,,0,,,63,64
229410,note_off,,,,,90,0,2,,,0,,,73,64
229410,note_off,,,,,210,0,1,,,0,,,81,64
229410,note_off,,,,,0,0,1,,,0,,,73,64
229440,note_on,,,,,0,0,2,,,0,,,64,30
229440,note_on,,,,,0,0,1,,,0,,,81,39
229440,note_on,,,,,30,0,1,,,0,,,76,39
229440,control_change,,,,,30,0,2,,,0,64,0,,
229460,set_tempo,,,,,1760,1,0,454545,,,,,,
229560,note_off,,,,,120,0,2,,,0,,,64,64
229560,note_on,,,,,0,0,2,,,0,,,73,23
229640,set_tempo,,,,,180,1,0,465116,,,,,,
229650,note_off,,,,,90,0,2,,,0,,,73,64
229680,note_on,,,,,30,0,2,,,0,,,73,23
229740,set_tempo,,,,,100,1,0,483871,,,,,,
229770,note_off,,,,,90,0,2,,,0,,,73,64
229800,note_on,,,,,30,0,2,,,0,,,73,24
229890,note_off,,,,,90,0,2,,,0,,,73,64
229920,note_off,,,,,480,0,1,,,0,,,81,64
229920,set_tempo,,,,,180,1,0,495868,,,,,,
229920,note_on,,,,,0,0,1,,,0,,,80,36
229920,note_on,,,,,0,0,1,,,0,,,71,36
230010,note_off,,,,,0,0,1,,,0,,,76,64
230010,note_off,,,,,0,0,1,,,0,,,80,64
230010,note_off,,,,,90,0,1,,,0,,,71,64
230040,note_on,,,,,30,0,1,,,0,,,78,36
230040,note_on,,,,,0,0,1,,,0,,,74,36
230060,set_tempo,,,,,140,1,0,526316,,,,,,
230160,note_on,,,,,0,0,1,,,0,,,76,34
230160,note_on,,,,,0,0,1,,,0,,,73,34
230160,note_off,,,,,0,0,1,,,0,,,78,64
230160,note_off,,,,,120,0,1,,,0,,,74,64
230220,set_tempo,,,,,160,1,0,545455,,,,,,
230280,note_on,,,,,0,0,1,,,0,,,74,30
230280,note_off,,,,,0,0,1,,,0,,,73,64
230280,note_off,,,,,120,0,1,,,0,,,76,64
230280,note_on,,,,,0,0,1,,,0,,,71,30
230320,set_tempo,,,,,100,1,0,582524,,,,,,
230370,note_off,,,,,90,0,1,,,0,,,71,64
230370,note_off,,,,,0,0,1,,,0,,,74,64
230380,set_tempo,,,,,60,1,0,606061,,,,,,
230400,note_on,,,,,510,0,2,,,0,,,57,31
230400,note_on,,,,,30,0,1,,,0,,,73,37
230520,note_off,,,,,120,0,2,,,0,,,57,64
230520,set_tempo,,,,,140,1,0,555556,,,,,,
230520,note_on,,,,,0,0,2,,,0,,,64,28
230550,note_off,,,,,150,0,1,,,0,,,73,64
230600,set_tempo,,,,,80,1,0,530973,,,,,,
230610,note_off,,,,,90,0,2,,,0,,,64,64
230640,note_on,,,,,90,0,1,,,0,,,73,39
230640,note_on,,,,,0,0,1,,,0,,,76,45
230640,note_on,,,,,0,0,2,,,0,,,64,28
230640,control_change,,,,,30,0,2,,,0,64,127,,
230730,note_off,,,,,90,0,2,,,0,,,64,64
230760,note_on,,,,,30,0,2,,,0,,,64,28
230800,set_tempo,,,,,200,1,0,508475,,,,,,
230820,set_tempo,,,,,20,1,0,500000,,,,,,
230850,note_off,,,,,90,0,2,,,0,,,64,64
230880,note_on,,,,,30,0,2,,,0,,,61,32
231000,note_on,,,,,0,0,2,,,0,,,64,28
231000,note_off,,,,,120,0,2,,,0,,,61,64
231040,set_tempo,,,,,220,1,0,480000,,,,,,
231090,note_off,,,,,90,0,2,,,0,,,64,64
231120,note_on,,,,,0,0,1,,,0,,,76,35
231120,note_on,,,,,0,0,1,,,0,,,73,30
231120,note_off,,,,,0,0,1,,,0,,,73,64
231120,note_off,,,,,480,0,1,,,0,,,76,64
231120,note_on,,,,,0,0,1,,,0,,,81,35
231120,control_change,,,,,30,0,2,,,0,64,0,,
231120,note_on,,,,,0,0,2,,,0,,,64,23
231210,note_off,,,,,90,0,2,,,0,,,64,64
231240,note_on,,,,,30,0,2,,,0,,,64,22
231280,set_tempo,,,,,240,1,0,468750,,,,,,
231330,note_off,,,,,210,0,1,,,0,,,81,64
231330,note_off,,,,,0,0,1,,,0,,,76,64
231330,note_off,,,,,0,0,1,,,0,,,73,64
231330,note_off,,,,,90,0,2,,,0,,,64,64
231360,note_on,,,,,30,0,1,,,0,,,81,35
231360,note_on,,,,,0,0,1,,,0,,,74,35
231360,note_on,,,,,0,0,1,,,0,,,76,35
231360,note_on,,,,,30,0,2,,,0,,,59,27
231480,note_on,,,,,0,0,2,,,0,,,64,23
231480,note_off,,,,,120,0,2,,,0,,,59,64
231570,note_off,,,,,90,0,2,,,0,,,64,64
231600,note_on,,,,,30,0,2,,,0,,,64,23
231600,note_on,,,,,0,0,1,,,0,,,80,30
231600,note_off,,,,,240,0,1,,,0,,,81,64
231690,note_off,,,,,90,0,2,,,0,,,64,64
231720,note_on,,,,,30,0,2,,,0,,,64,24
231720,note_off,,,,,0,0,1,,,0,,,74,64
231720,note_off,,,,,0,0,1,,,0,,,76,64
231720,note_off,,,,,120,0,1,,,0,,,80,64
231810,note_off,,,,,90,0,2,,,0,,,64,64
231840,note_on,,,,,120,0,1,,,0,,,81,30
231840,note_on,,,,,0,0,1,,,0,,,76,30
231840,note_on,,,,,0,0,1,,,0,,,73,26
231840,note_on,,,,,30,0,2,,,0,,,61,32
231840,control_change,,,,,0,0,2,,,0,64,127,,
231960,note_off,,,,,120,0,2,,,0,,,61,64
231960,note_on,,,,,0,0,2,,,0,,,64,24
232050,note_off,,,,,90,0,2,,,0,,,64,64
232080,note_on,,,,,30,0,2,,,0,,,64,29
232120,set_tempo,,,,,840,1,0,491803,,,,,,
232200,note_on,,,,,0,0,2,,,0,,,69,24
232200,note_off,,,,,120,0,2,,,0,,,64,64
232290,note_off,,,,,90,0,2,,,0,,,69,64
232320,note_off,,,,,480,0,1,,,0,,,73,64
232320,note_off,,,,,0,0,1,,,0,,,76,64
232320,note_off,,,,,0,0,1,,,0,,,81,64
232320,note_on,,,,,0,0,1,,,0,,,83,41
232320,control_change,,,,,30,0,2,,,0,64,0,,
232320,note_on,,,,,0,0,1,,,0,,,78,41
232320,note_on,,,,,0,0,2,,,0,,,62,30
232440,note_on,,,,,0,0,2,,,0,,,69,23
232440,note_off,,,,,120,0,2,,,0,,,62,64
232530,note_off,,,,,90,0,2,,,0,,,69,64
232560,note_on,,,,,0,0,1,,,0,,,64,30
232560,note_on,,,,,0,0,1,,,0,,,76,30
232560,note_on,,,,,240,0,1,,,0,,,85,30
232560,note_on,,,,,30,0,2,,,0,,,69,23
232562,note_off,,,,,0,0,1,,,0,,,83,64
232562,note_off,,,,,2,0,1,,,0,,,78,64
232580,set_tempo,,,,,460,1,0,468750,,,,,,
232650,note_off,,,,,90,0,2,,,0,,,69,64
232680,note_off,,,,,0,0,1,,,0,,,76,64
232680,note_off,,,,,118,0,1,,,0,,,64,64
232680,note_on,,,,,30,0,2,,,0,,,69,24
232680,note_off,,,,,0,0,1,,,0,,,85,64
232680,note_on,,,,,0,0,1,,,0,,,86,25
232680,note_on,,,,,0,0,1,,,0,,,74,25
232680,note_on,,,,,0,0,1,,,0,,,66,25
232760,set_tempo,,,,,180,1,0,454545,,,,,,
232770,note_off,,,,,90,0,2,,,0,,,69,64
232800,note_on,,,,,0,0,1,,,0,,,85,34
232800,note_off,,,,,120,0,1,,,0,,,66,64
232800,note_off,,,,,0,0,1,,,0,,,74,64
232800,note_on,,,,,0,0,1,,,0,,,64,38
232800,note_on,,,,,0,0,1,,,0,,,76,38
232800,control_change,,,,,30,0,2,,,0,64,127,,
232800,note_off,,,,,0,0,1,,,0,,,86,64
232920,note_on,,,,,120,0,2,,,0,,,69,24
232940,set_tempo,,,,,180,1,0,444444,,,,,,
233010,note_off,,,,,90,0,2,,,0,,,69,64
233040,note_on,,,,,0,0,1,,,0,,,74,29
233040,note_on,,,,,0,0,1,,,0,,,76,29
233040,note_on,,,,,30,0,2,,,0,,,64,29
233040,note_on,,,,,0,0,1,,,0,,,83,34
233040,note_off,,,,,240,0,1,,,0,,,64,64
233040,note_off,,,,,0,0,1,,,0,,,76,64
233040,note_off,,,,,0,0,1,,,0,,,85,64
233160,note_on,,,,,0,0,2,,,0,,,68,24
233160,note_off,,,,,120,0,2,,,0,,,64,64
233230,set_tempo,,,,,290,1,0,454545,,,,,,
233250,note_off,,,,,90,0,2,,,0,,,68,64
233250,control_change,,,,,0,0,2,,,0,64,0,,
233250,note_off,,,,,210,0,1,,,0,,,74,64
233250,note_off,,,,,0,0,1,,,0,,,83,64
233250,note_off,,,,,0,0,1,,,0,,,76,64
233280,control_change,,,,,30,0,2,,,0,64,127,,
233280,note_on,,,,,0,0,1,,,0,,,74,36
233280,note_on,,,,,0,0,1,,,0,,,57,32
233280,set_tempo,,,,,50,1,0,600000,,,,,,
233280,note_on,,,,,30,0,1,,,0,,,83,36
233280,note_on,,,,,0,0,1,,,0,,,76,36
233300,set_tempo,,,,,20,1,0,458015,,,,,,
233380,set_tempo,,,,,80,1,0,483871,,,,,,
233400,note_on,,,,,120,0,2,,,0,,,64,33
233400,set_tempo,,,,,20,1,0,487805,,,,,,
233460,set_tempo,,,,,60,1,0,508475,,,,,,
233520,set_tempo,,,,,60,1,0,521739,,,,,,
233520,note_off,,,,,120,0,2,,,0,,,64,64
233520,note_on,,,,,0,0,2,,,0,,,68,27
233620,set_tempo,,,,,100,1,0,545455,,,,,,
233640,note_off,,,,,120,0,2,,,0,,,68,64
233640,note_on,,,,,0,0,2,,,0,,,64,23
233760,note_on,,,,,0,0,1,,,0,,,81,29
233760,note_on,,,,,0,0,1,,,0,,,73,29
233760,note_off,,,,,120,0,2,,,0,,,64,64
233760,control_change,,,,,0,0,2,,,0,64,0,,
233760,note_on,,,,,0,0,2,,,0,,,69,30
233760,note_off,,,,,480,0,1,,,0,,,74,64
233760,note_off,,,,,0,0,1,,,0,,,83,64
233850,note_off,,,,,0,0,1,,,0,,,57,64
233850,note_off,,,,,0,0,1,,,0,,,81,64
233850,note_off,,,,,0,0,1,,,0,,,76,64
233850,note_off,,,,,90,0,1,,,0,,,73,64
233880,note_off,,,,,120,0,2,,,0,,,69,64
233880,note_on,,,,,30,0,1,,,0,,,83,38
233880,note_on,,,,,0,0,1,,,0,,,71,38
233920,set_tempo,,,,,300,1,0,535714,,,,,,
233970,note_off,,,,,90,0,1,,,0,,,71,64
233970,note_off,,,,,0,0,1,,,0,,,83,64
234000,note_on,,,,,30,0,1,,,0,,,85,46
234000,note_on,,,,,0,0,1,,,0,,,73,46
234020,set_tempo,,,,,100,1,0,500000,,,,,,
234090,note_off,,,,,0,0,1,,,0,,,85,64
234090,note_off,,,,,90,0,1,,,0,,,73,64
234120,note_on,,,,,30,0,1,,,0,,,86,55
234120,note_on,,,,,0,0,1,,,0,,,74,55
234120,set_tempo,,,,,100,1,0,483871,,,,,,
234210,note_off,,,,,0,0,1,,,0,,,86,64
234210,note_off,,,,,90,0,1,,,0,,,74,64
234240,note_on,,,,,0,0,2,,,0,,,57,39
234240,note_on,,,,,0,0,1,,,0,,,76,47
234240,set_tempo,,,,,120,1,0,600000,,,,,,
234240,note_on,,,,,30,0,1,,,0,,,88,47
234240,note_on,,,,,360,0,2,,,0,,,61,39
234260,set_tempo,,,,,20,1,0,500000,,,,,,
234360,note_off,,,,,120,0,2,,,0,,,57,64
234360,note_off,,,,,0,0,2,,,0,,,61,64
234360,note_on,,,,,0,0,2,,,0,,,64,37
234400,set_tempo,,,,,140,1,0,483871,,,,,,
234480,note_off,,,,,120,0,2,,,0,,,64,64
234480,note_on,,,,,0,0,2,,,0,,,59,41
234520,set_tempo,,,,,120,1,0,468750,,,,,,
234600,note_off,,,,,120,0,2,,,0,,,59,64
234600,note_on,,,,,0,0,1,,,0,,,88,43
234600,note_off,,,,,0,0,1,,,0,,,88,64
234600,note_off,,,,,360,0,1,,,0,,,76,64
234600,note_on,,,,,0,0,2,,,0,,,64,43
234600,note_on,,,,,0,0,1,,,0,,,76,43
234700,set_tempo,,,,,180,1,0,454545,,,,,,
234720,note_off,,,,,120,0,2,,,0,,,64,64
234720,note_off,,,,,0,0,1,,,0,,,88,64
234720,note_on,,,,,0,0,2,,,0,,,54,45
234720,note_on,,,,,0,0,2,,,0,,,58,45
234720,note_off,,,,,120,0,1,,,0,,,76,64
234720,control_change,,,,,0,0,2,,,0,64,127,,
234720,note_on,,,,,0,0,1,,,0,,,90,49
234720,note_on,,,,,0,0,1,,,0,,,78,49
234840,note_off,,,,,120,0,2,,,0,,,54,64
234840,note_off,,,,,0,0,2,,,0,,,58,64
234840,note_on,,,,,0,0,2,,,0,,,66,45
234860,set_tempo,,,,,160,1,0,444444,,,,,,
234960,note_off,,,,,120,0,2,,,0,,,66,64
234960,note_on,,,,,0,0,2,,,0,,,58,43
234960,note_on,,,,,0,0,2,,,0,,,54,43
235000,set_tempo,,,,,140,1,0,428571,,,,,,
235080,note_on,,,,,0,0,2,,,0,,,56,39
235080,note_off,,,,,120,0,2,,,0,,,54,64
235080,note_off,,,,,0,0,2,,,0,,,58,64
235080,note_on,,,,,0,0,2,,,0,,,59,39
235200,note_on,,,,,0,0,1,,,0,,,88,47
235200,note_off,,,,,120,0,2,,,0,,,56,64
235200,note_off,,,,,0,0,2,,,0,,,59,64
235200,note_on,,,,,0,0,2,,,0,,,61,44
235200,note_on,,,,,0,0,2,,,0,,,58,44
235200,note_off,,,,,480,0,1,,,0,,,78,64
235200,note_on,,,,,0,0,1,,,0,,,76,47
235200,note_off,,,,,0,0,1,,,0,,,90,64
235200,control_change,,,,,0,0,2,,,0,64,0,,
235320,note_off,,,,,120,0,2,,,0,,,58,64
235320,note_on,,,,,0,0,2,,,0,,,66,42
235320,note_off,,,,,0,0,2,,,0,,,61,64
235420,set_tempo,,,,,420,1,0,437956,,,,,,
235440,note_off,,,,,0,0,1,,,0,,,88,64
235440,note_off,,,,,240,0,1,,,0,,,76,64
235440,note_on,,,,,0,0,1,,,0,,,87,40
235440,note_on,,,,,0,0,1,,,0,,,75,40
235440,note_on,,,,,0,0,2,,,0,,,63,41
235440,note_on,,,,,0,0,2,,,0,,,59,41
235440,note_off,,,,,120,0,2,,,0,,,66,64
235560,note_off,,,,,120,0,1,,,0,,,75,64
235560,note_off,,,,,0,0,1,,,0,,,87,64
235560,note_off,,,,,120,0,2,,,0,,,59,64
235560,note_on,,,,,0,0,2,,,0,,,66,38
235560,note_off,,,,,0,0,2,,,0,,,63,64
235680,note_on,,,,,0,0,2,,,0,,,63,42
235680,control_change,,,,,0,0,2,,,0,64,127,,
235680,note_off,,,,,120,0,2,,,0,,,66,64
235680,note_on,,,,,120,0,1,,,0,,,83,40
235680,note_on,,,,,0,0,1,,,0,,,71,40
235800,note_on,,,,,0,0,2,,,0,,,66,38
235800,note_off,,,,,120,0,2,,,0,,,63,64
235920,note_on,,,,,0,0,2,,,0,,,62,34
235920,note_off,,,,,120,0,2,,,0,,,66,64
236040,note_off,,,,,360,0,1,,,0,,,71,64
236040,note_off,,,,,0,0,1,,,0,,,83,64
236040,note_on,,,,,0,0,1,,,0,,,85,37
236040,note_on,,,,,0,0,1,,,0,,,73,37
236040,note_on,,,,,0,0,2,,,0,,,64,32
236040,note_on,,,,,0,0,2,,,0,,,61,32
236040,note_off,,,,,120,0,2,,,0,,,62,64
236160,note_on,,,,,0,0,1,,,0,,,86,45
236160,note_on,,,,,0,0,1,,,0,,,74,45
236160,note_off,,,,,0,0,2,,,0,,,64,64
236160,note_off,,,,,120,0,2,,,0,,,61,64
236160,control_change,,,,,0,0,2,,,0,64,0,,
236160,note_on,,,,,0,0,2,,,0,,,59,39
236160,note_on,,,,,0,0,2,,,0,,,62,39
236160,note_off,,,,,0,0,1,,,0,,,85,64
236160,note_off,,,,,120,0,1,,,0,,,73,64
236280,note_off,,,,,120,0,2,,,0,,,62,64
236280,note_off,,,,,0,0,2,,,0,,,59,64
236280,note_on,,,,,0,0,2,,,0,,,66,36
236400,note_on,,,,,0,0,2,,,0,,,61,40
236400,note_on,,,,,0,0,2,,,0,,,57,40
236400,note_off,,,,,120,0,2,,,0,,,66,64
236520,note_on,,,,,0,0,1,,,0,,,74,40
236520,note_off,,,,,120,0,2,,,0,,,57,64
236520,note_off,,,,,360,0,1,,,0,,,74,64
236520,note_off,,,,,0,0,1,,,0,,,86,64
236520,note_on,,,,,0,0,1,,,0,,,86,40
236520,note_on,,,,,0,0,2,,,0,,,66,42
236520,note_off,,,,,0,0,2,,,0,,,61,64
236640,note_on,,,,,0,0,2,,,0,,,56,44
236640,control_change,,,,,0,0,2,,,0,64,127,,
236640,note_on,,,,,0,0,1,,,0,,,88,50
236640,note_off,,,,,120,0,2,,,0,,,66,64
236640,note_off,,,,,120,0,1,,,0,,,74,64
236640,note_on,,,,,0,0,2,,,0,,,59,44
236640,note_off,,,,,0,0,1,,,0,,,86,64
236640,note_on,,,,,0,0,1,,,0,,,76,50
236720,set_tempo,,,,,1300,1,0,434783,,,,,,
236760,note_off,,,,,0,0,2,,,0,,,56,64
236760,note_on,,,,,0,0,2,,,0,,,64,44
236760,note_off,,,,,120,0,2,,,0,,,59,64
236880,note_off,,,,,120,0,2,,,0,,,64,64
236880,note_on,,,,,0,0,2,,,0,,,50,40
236880,note_on,,,,,0,0,2,,,0,,,52,40
237000,note_off,,,,,0,0,2,,,0,,,50,64
237000,set_tempo,,,,,280,1,0,425532,,,,,,
237000,note_off,,,,,120,0,2,,,0,,,52,64
237000,note_on,,,,,0,0,2,,,0,,,59,38
237120,note_on,,,,,0,0,2,,,0,,,49,45
237120,control_change,,,,,0,0,2,,,0,64,0,,
237120,note_off,,,,,120,0,2,,,0,,,59,64
237120,note_on,,,,,0,0,2,,,0,,,52,45
237120,note_off,,,,,480,0,1,,,0,,,76,64
237120,note_on,,,,,0,0,1,,,0,,,81,47
237120,note_on,,,,,0,0,1,,,0,,,69,37
237120,note_off,,,,,0,0,1,,,0,,,88,64
237240,note_off,,,,,120,0,2,,,0,,,52,64
237240,note_off,,,,,0,0,2,,,0,,,49,64
237240,note_on,,,,,0,0,2,,,0,,,57,39
237280,set_tempo,,,,,280,1,0,441176,,,,,,
237360,note_on,,,,,0,0,2,,,0,,,47,38
237360,note_off,,,,,120,0,2,,,0,,,57,64
237360,note_on,,,,,0,0,2,,,0,,,50,38
237460,set_tempo,,,,,180,1,0,458015,,,,,,
237480,note_off,,,,,360,0,1,,,0,,,69,64
237480,note_on,,,,,0,0,1,,,0,,,83,41
237480,note_on,,,,,0,0,1,,,0,,,71,41
237480,note_on,,,,,0,0,2,,,0,,,57,35
237480,note_off,,,,,0,0,2,,,0,,,47,64
237480,note_off,,,,,120,0,2,,,0,,,50,64
237480,note_off,,,,,0,0,1,,,0,,,81,64
237600,note_off,,,,,120,0,1,,,0,,,71,64
237600,note_off,,,,,0,0,1,,,0,,,83,64
237600,note_on,,,,,0,0,1,,,0,,,85,37
237600,note_on,,,,,0,0,1,,,0,,,73,37
237600,note_on,,,,,0,0,2,,,0,,,49,37
237600,note_off,,,,,120,0,2,,,0,,,57,64
237600,control_change,,,,,0,0,2,,,0,64,127,,
237600,note_on,,,,,0,0,2,,,0,,,45,37
237640,set_tempo,,,,,180,1,0,476190,,,,,,
237720,note_on,,,,,0,0,2,,,0,,,57,32
237720,note_off,,,,,0,0,2,,,0,,,45,64
237720,note_off,,,,,120,0,2,,,0,,,49,64
237750,control_change,,,,,30,0,2,,,0,64,0,,
237840,set_tempo,,,,,200,1,0,500000,,,,,,
237840,note_off,,,,,90,0,2,,,0,,,57,64
237840,note_on,,,,,0,0,2,,,0,,,50,32
237840,note_on,,,,,0,0,2,,,0,,,47,32
237960,note_on,,,,,0,0,2,,,0,,,49,29
237960,note_on,,,,,0,0,2,,,0,,,52,29
237960,note_off,,,,,0,0,2,,,0,,,47,64
237960,note_off,,,,,120,0,2,,,0,,,50,64
238080,note_off,,,,,0,0,2,,,0,,,52,64
238080,note_off,,,,,120,0,2,,,0,,,49,64
238080,note_off,,,,,480,0,1,,,0,,,73,64
238080,note_off,,,,,0,0,1,,,0,,,85,64
238080,note_on,,,,,0,0,1,,,0,,,83,38
238080,note_on,,,,,0,0,1,,,0,,,71,38
238080,note_on,,,,,0,0,2,,,0,,,54,34
238080,note_on,,,,,0,0,2,,,0,,,50,34
238160,set_tempo,,,,,320,1,0,480000,,,,,,
238200,note_off,,,,,0,0,2,,,0,,,50,64
238200,note_on,,,,,0,0,2,,,0,,,59,29
238200,note_off,,,,,120,0,2,,,0,,,54,64
238282,note_off,,,,,202,0,1,,,0,,,71,64
238282,note_off,,,,,0,0,1,,,0,,,83,64
238320,note_off,,,,,120,0,2,,,0,,,59,64
238320,note_on,,,,,0,0,2,,,0,,,51,35
238320,note_on,,,,,0,0,2,,,0,,,57,35
238320,note_on,,,,,38,0,1,,,0,,,83,36
238320,note_on,,,,,0,0,1,,,0,,,71,36
238320,set_tempo,,,,,160,1,0,468750,,,,,,
238420,set_tempo,,,,,100,1,0,447761,,,,,,
238440,note_off,,,,,120,0,2,,,0,,,57,64
238440,note_off,,,,,0,0,2,,,0,,,51,64
238440,note_on,,,,,0,0,2,,,0,,,59,28
238500,note_off,,,,,0,0,1,,,0,,,83,64
238500,note_off,,,,,180,0,1,,,0,,,71,64
238560,note_off,,,,,120,0,2,,,0,,,59,64
238560,note_on,,,,,60,0,1,,,0,,,83,38
238560,note_on,,,,,0,0,1,,,0,,,71,38
238560,note_on,,,,,0,0,2,,,0,,,52,38
238560,note_on,,,,,0,0,2,,,0,,,57,38
238680,note_off,,,,,120,0,2,,,0,,,57,64
238680,note_off,,,,,0,0,2,,,0,,,52,64
238680,note_on,,,,,0,0,2,,,0,,,59,27
238720,set_tempo,,,,,300,1,0,428571,,,,,,
238740,note_off,,,,,0,0,1,,,0,,,83,64
238740,note_off,,,,,180,0,1,,,0,,,71,64
238800,note_off,,,,,120,0,2,,,0,,,59,64
238800,note_on,,,,,0,0,2,,,0,,,53,33
238800,note_on,,,,,0,0,2,,,0,,,56,33
238800,note_on,,,,,0,0,1,,,0,,,74,35
238800,note_on,,,,,60,0,1,,,0,,,86,35
238920,note_off,,,,,120,0,2,,,0,,,56,64
238920,note_off,,,,,0,0,2,,,0,,,53,64
238920,note_on,,,,,0,0,2,,,0,,,62,37
238980,note_on,,,,,0,0,1,,,0,,,73,37
238980,note_off,,,,,0,0,1,,,0,,,86,64
238980,note_on,,,,,0,0,1,,,0,,,85,37
238980,note_off,,,,,180,0,1,,,0,,,74,64
239020,note_off,,,,,40,0,1,,,0,,,73,64
239020,note_off,,,,,0,0,1,,,0,,,85,64
239040,note_off,,,,,120,0,2,,,0,,,62,64
239040,note_on,,,,,20,0,1,,,0,,,85,39
239040,note_on,,,,,0,0,1,,,0,,,73,39
239040,note_on,,,,,0,0,2,,,0,,,57,40
239040,note_on,,,,,0,0,2,,,0,,,54,40
239160,note_off,,,,,120,0,2,,,0,,,57,64
239160,note_on,,,,,0,0,2,,,0,,,61,29
239160,note_off,,,,,0,0,2,,,0,,,54,64
239200,set_tempo,,,,,480,1,0,441176,,,,,,
239280,note_off,,,,,120,0,2,,,0,,,61,64
239280,note_on,,,,,0,0,2,,,0,,,56,36
239280,note_on,,,,,0,0,2,,,0,,,59,36
239400,note_off,,,,,120,0,2,,,0,,,59,64
239400,note_off,,,,,0,0,2,,,0,,,56,64
239400,note_on,,,,,0,0,2,,,0,,,54,39
239400,note_on,,,,,0,0,2,,,0,,,57,39
239520,note_on,,,,,0,0,1,,,0,,,88,42
239520,note_on,,,,,0,0,1,,,0,,,76,42
239520,note_off,,,,,0,0,1,,,0,,,85,64
239520,note_off,,,,,480,0,1,,,0,,,73,64
239520,note_off,,,,,0,0,2,,,0,,,54,64
239520,note_on,,,,,0,0,2,,,0,,,56,39
239520,note_on,,,,,0,0,2,,,0,,,59,39
239520,note_off,,,,,120,0,2,,,0,,,57,64
239580,set_tempo,,,,,380,1,0,454545,,,,,,
239640,note_off,,,,,0,0,2,,,0,,,56,64
239640,note_off,,,,,120,0,2,,,0,,,59,64
239640,note_on,,,,,0,0,2,,,0,,,64,37
239720,set_tempo,,,,,140,1,0,468750,,,,,,
239760,note_off,,,,,120,0,2,,,0,,,64,64
239760,note_on,,,,,0,0,2,,,0,,,61,34
239760,note_on,,,,,0,0,2,,,0,,,57,34
239850,note_off,,,,,330,0,1,,,0,,,76,64
239850,note_off,,,,,0,0,1,,,0,,,88,64
239880,note_on,,,,,0,0,2,,,0,,,52,29
239880,note_off,,,,,0,0,2,,,0,,,61,64
239880,note_on,,,,,30,0,1,,,0,,,86,37
239880,note_on,,,,,0,0,2,,,0,,,64,29
239880,note_off,,,,,120,0,2,,,0,,,57,64
239940,note_off,,,,,60,0,1,,,0,,,86,64
239940,set_tempo,,,,,220,1,0,483871,,,,,,
239940,note_on,,,,,0,0,1,,,0,,,85,37
240000,note_on,,,,,0,0,1,,,0,,,71,38
240000,note_off,,,,,120,0,2,,,0,,,64,64
240000,note_on,,,,,0,0,2,,,0,,,57,37
240000,note_on,,,,,0,0,2,,,0,,,50,37
240000,note_off,,,,,0,0,2,,,0,,,52,64
240000,note_on,,,,,0,0,1,,,0,,,83,38
240000,note_off,,,,,60,0,1,,,0,,,85,64
240060,set_tempo,,,,,120,1,0,465116,,,,,,
240120,note_on,,,,,0,0,2,,,0,,,59,36
240120,note_off,,,,,0,0,2,,,0,,,50,64
240120,note_off,,,,,120,0,2,,,0,,,57,64
240160,set_tempo,,,,,100,1,0,447761,,,,,,
240202,note_off,,,,,0,0,1,,,0,,,83,64
240202,note_off,,,,,202,0,1,,,0,,,71,64
240240,note_on,,,,,38,0,1,,,0,,,83,36
240240,note_on,,,,,0,0,1,,,0,,,71,36
240240,note_on,,,,,0,0,2,,,0,,,57,34
240240,note_on,,,,,0,0,2,,,0,,,51,34
240240,note_off,,,,,120,0,2,,,0,,,59,64
240360,note_on,,,,,0,0,2,,,0,,,59,34
240360,note_off,,,,,0,0,2,,,0,,,51,64
240360,note_off,,,,,120,0,2,,,0,,,57,64
240380,set_tempo,,,,,220,1,0,458015,,,,,,
240420,note_off,,,,,0,0,1,,,0,,,83,64
240420,note_off,,,,,180,0,1,,,0,,,71,64
240480,note_on,,,,,0,0,2,,,0,,,57,42
240480,note_on,,,,,60,0,1,,,0,,,83,38
240480,note_on,,,,,0,0,2,,,0,,,52,42
240480,note_off,,,,,120,0,2,,,0,,,59,64
240480,note_on,,,,,0,0,1,,,0,,,71,38
240600,note_off,,,,,0,0,2,,,0,,,52,64
240600,note_off,,,,,120,0,2,,,0,,,57,64
240600,note_on,,,,,0,0,2,,,0,,,59,31
240660,note_off,,,,,0,0,1,,,0,,,83,64
240660,note_off,,,,,180,0,1,,,0,,,71,64
240700,set_tempo,,,,,320,1,0,480000,,,,,,
240720,note_on,,,,,0,0,2,,,0,,,52,37
240720,note_off,,,,,120,0,2,,,0,,,59,64
240720,note_on,,,,,0,0,2,,,0,,,56,37
240720,note_on,,,,,60,0,1,,,0,,,86,35
240720,note_on,,,,,0,0,1,,,0,,,74,35
240840,note_off,,,,,120,0,2,,,0,,,56,64
240840,note_off,,,,,0,0,2,,,0,,,52,64
240840,note_on,,,,,0,0,2,,,0,,,62,41
240860,set_tempo,,,,,160,1,0,483871,,,,,,
240880,set_tempo,,,,,20,1,0,487805,,,,,,
240900,note_off,,,,,180,0,1,,,0,,,74,64
240900,note_on,,,,,0,0,1,,,0,,,73,37
240900,note_on,,,,,0,0,1,,,0,,,85,37
240900,note_off,,,,,0,0,1,,,0,,,86,64
240920,set_tempo,,,,,40,1,0,500000,,,,,,
240940,note_off,,,,,0,0,1,,,0,,,85,64
240940,note_off,,,,,40,0,1,,,0,,,73,64
240960,note_off,,,,,120,0,2,,,0,,,62,64
240960,note_on,,,,,0,0,2,,,0,,,61,44
240960,note_on,,,,,20,0,1,,,0,,,81,39
240960,note_on,,,,,0,0,2,,,0,,,57,44
241080,note_off,,,,,120,0,2,,,0,,,61,64
241080,note_on,,,,,0,0,2,,,0,,,62,36
241080,note_on,,,,,0,0,2,,,0,,,66,36
241080,note_off,,,,,0,0,2,,,0,,,57,64
241120,set_tempo,,,,,200,1,0,521739,,,,,,
241200,note_off,,,,,120,0,2,,,0,,,66,64
241200,note_off,,,,,0,0,2,,,0,,,62,64
241200,note_on,,,,,0,0,2,,,0,,,61,29
241200,note_on,,,,,0,0,2,,,0,,,64,29
241220,set_tempo,,,,,100,1,0,545455,,,,,,
241320,note_off,,,,,120,0,2,,,0,,,64,64
241320,note_on,,,,,0,0,2,,,0,,,62,24
241320,note_on,,,,,0,0,2,,,0,,,59,24
241320,note_off,,,,,0,0,2,,,0,,,61,64
241360,set_tempo,,,,,140,1,0,571429,,,,,,
241440,note_on,,,,,0,0,2,,,0,,,61,26
241440,note_on,,,,,0,0,2,,,0,,,57,26
241440,note_off,,,,,0,0,2,,,0,,,59,64
241440,note_off,,,,,120,0,2,,,0,,,62,64
241530,note_off,,,,,0,0,2,,,0,,,57,64
241530,note_off,,,,,90,0,2,,,0,,,61,64
241560,note_on,,,,,30,0,2,,,0,,,59,42
241560,note_off,,,,,600,0,1,,,0,,,81,64
241640,note_off,,,,,80,0,2,,,0,,,59,64
241680,set_tempo,,,,,320,1,0,545455,,,,,,
241680,note_on,,,,,40,0,2,,,0,,,61,34
241760,set_tempo,,,,,80,1,0,504202,,,,,,
241760,note_off,,,,,80,0,2,,,0,,,61,64
241800,note_on,,,,,40,0,2,,,0,,,62,26
241800,set_tempo,,,,,40,1,0,465116,,,,,,
241860,set_tempo,,,,,60,1,0,451128,,,,,,
241880,note_off,,,,,80,0,2,,,0,,,62,64
241900,set_tempo,,,,,40,1,0,618557,,,,,,
241920,note_on,,,,,360,0,1,,,0,,,69,43
241920,note_on,,,,,0,0,2,,,0,,,61,37
241920,note_on,,,,,40,0,2,,,0,,,64,37
241980,set_tempo,,,,,80,1,0,454545,,,,,,
242010,note_off,,,,,90,0,1,,,0,,,69,64
242040,note_on,,,,,30,0,1,,,0,,,71,41
242130,note_off,,,,,90,0,1,,,0,,,71,64
242160,note_on,,,,,30,0,1,,,0,,,73,38
242250,note_off,,,,,90,0,1,,,0,,,73,64
242280,note_on,,,,,0,0,2,,,0,,,64,43
242280,note_on,,,,,30,0,1,,,0,,,74,38
242280,note_off,,,,,360,0,2,,,0,,,64,64
242340,set_tempo,,,,,360,1,0,451128,,,,,,
242370,note_off,,,,,90,0,1,,,0,,,74,64
242400,control_change,,,,,0,0,2,,,0,64,127,,
242400,note_on,,,,,0,0,2,,,0,,,58,51
242400,note_on,,,,,30,0,1,,,0,,,76,47
242400,note_off,,,,,0,0,2,,,0,,,61,64
242400,note_off,,,,,120,0,2,,,0,,,64,64
242400,note_on,,,,,0,0,2,,,0,,,66,51
242480,note_on,,,,,0,0,1,,,0,,,75,44
242480,note_off,,,,,80,0,1,,,0,,,76,64
242560,note_on,,,,,0,0,1,,,0,,,76,42
242560,note_off,,,,,80,0,1,,,0,,,75,64
242580,set_tempo,,,,,240,1,0,434783,,,,,,
242640,note_on,,,,,0,0,1,,,0,,,78,42
242640,note_off,,,,,80,0,1,,,0,,,76,64
242720,note_on,,,,,0,0,1,,,0,,,85,47
242720,note_off,,,,,80,0,1,,,0,,,78,64
242800,note_off,,,,,80,0,1,,,0,,,85,64
242800,note_on,,,,,0,0,1,,,0,,,77,53
242820,control_change,,,,,420,0,2,,,0,64,0,,
242880,note_on,,,,,0,0,2,,,0,,,64,52
242880,note_on,,,,,0,0,1,,,0,,,78,55
242880,note_on,,,,,0,0,2,,,0,,,59,52
242880,note_off,,,,,0,0,2,,,0,,,58,64
242880,note_off,,,,,60,0,2,,,0,,,66,64
242880,note_off,,,,,80,0,1,,,0,,,77,64
242960,note_off,,,,,80,0,1,,,0,,,78,64
242960,note_on,,,,,0,0,1,,,0,,,77,51
243040,note_off,,,,,80,0,1,,,0,,,77,64
243040,note_on,,,,,0,0,1,,,0,,,78,47
243120,note_off,,,,,80,0,1,,,0,,,78,64
243120,note_on,,,,,0,0,1,,,0,,,79,45
243120,note_on,,,,,0,0,2,,,0,,,63,45
243120,note_off,,,,,240,0,2,,,0,,,64,64
243200,note_on,,,,,0,0,1,,,0,,,80,42
243200,note_off,,,,,80,0,1,,,0,,,79,64
243240,note_off,,,,,0,0,2,,,0,,,59,64
243240,note_off,,,,,120,0,2,,,0,,,63,64
243280,note_off,,,,,80,0,1,,,0,,,80,64
243280,note_on,,,,,0,0,1,,,0,,,82,38
243360,note_on,,,,,120,0,2,,,0,,,59,37
243360,note_on,,,,,0,0,1,,,0,,,83,37
243360,note_off,,,,,80,0,1,,,0,,,82,64
243400,set_tempo,,,,,820,1,0,447761,,,,,,
243440,note_off,,,,,80,0,1,,,0,,,83,64
243720,note_on,,,,,0,0,2,,,0,,,61,42
243720,note_off,,,,,360,0,2,,,0,,,59,64
243840,note_on,,,,,0,0,2,,,0,,,62,60
243840,note_off,,,,,120,0,2,,,0,,,61,64
243960,note_on,,,,,520,0,1,,,0,,,74,53
243960,note_on,,,,,120,0,2,,,0,,,54,49
244080,note_on,,,,,0,0,1,,,0,,,76,46
244080,note_off,,,,,120,0,2,,,0,,,54,64
244080,note_on,,,,,0,0,2,,,0,,,56,45
244080,note_off,,,,,120,0,1,,,0,,,74,64
244200,note_off,,,,,120,0,2,,,0,,,56,64
244200,note_on,,,,,0,0,2,,,0,,,57,40
244200,note_off,,,,,120,0,1,,,0,,,76,64
244200,note_on,,,,,0,0,1,,,0,,,78,43
244240,set_tempo,,,,,840,1,0,437956,,,,,,
244320,note_on,,,,,0,0,1,,,0,,,76,35
244320,note_off,,,,,120,0,1,,,0,,,78,64
244320,note_off,,,,,120,0,2,,,0,,,57,64
244320,note_off,,,,,0,0,2,,,0,,,62,64
244320,note_on,,,,,0,0,2,,,0,,,64,57
244320,note_on,,,,,0,0,2,,,0,,,56,57
244320,control_change,,,,,0,0,2,,,0,64,127,,
244400,note_on,,,,,0,0,1,,,0,,,80,40
244400,note_off,,,,,80,0,1,,,0,,,76,64
244480,note_on,,,,,0,0,1,,,0,,,81,42
244480,note_off,,,,,80,0,1,,,0,,,80,64
244500,set_tempo,,,,,260,1,0,425532,,,,,,
244560,note_on,,,,,0,0,1,,,0,,,83,44
244560,note_off,,,,,80,0,1,,,0,,,81,64
244640,note_off,,,,,80,0,1,,,0,,,83,64
244640,note_on,,,,,0,0,1,,,0,,,80,47
244720,note_on,,,,,0,0,1,,,0,,,74,50
244720,note_off,,,,,80,0,1,,,0,,,80,64
244740,control_change,,,,,420,0,2,,,0,64,0,,
244800,note_on,,,,,0,0,2,,,0,,,57,49
244800,note_off,,,,,0,0,2,,,0,,,64,64
244800,note_off,,,,,60,0,2,,,0,,,56,64
244800,note_off,,,,,80,0,1,,,0,,,74,64
244800,note_on,,,,,0,0,1,,,0,,,73,54
244880,note_off,,,,,80,0,1,,,0,,,73,64
244880,note_on,,,,,0,0,1,,,0,,,71,53
244960,note_off,,,,,80,0,1,,,0,,,71,64
244960,note_on,,,,,0,0,1,,,0,,,73,51
245040,note_on,,,,,0,0,1,,,0,,,74,47
245040,set_tempo,,,,,540,1,0,441176,,,,,,
245040,note_off,,,,,80,0,1,,,0,,,73,64
245120,note_on,,,,,0,0,1,,,0,,,73,44
245120,note_off,,,,,80,0,1,,,0,,,74,64
245160,note_on,,,,,360,0,2,,,0,,,59,49
245200,note_off,,,,,80,0,1,,,0,,,73,64
245200,note_on,,,,,0,0,1,,,0,,,74,41
245240,set_tempo,,,,,200,1,0,465116,,,,,,
245280,note_off,,,,,80,0,1,,,0,,,74,64
245280,note_on,,,,,0,0,1,,,0,,,76,40
245280,note_off,,,,,120,0,2,,,0,,,59,64
245280,note_on,,,,,0,0,2,,,0,,,61,49
245360,note_off,,,,,80,0,1,,,0,,,76,64
245360,note_on,,,,,0,0,1,,,0,,,78,40
245420,set_tempo,,,,,180,1,0,480000,,,,,,
245440,note_off,,,,,80,0,1,,,0,,,78,64
245440,note_on,,,,,0,0,1,,,0,,,80,40
245520,note_off,,,,,80,0,1,,,0,,,80,64
245520,note_on,,,,,0,0,1,,,0,,,81,43
245600,set_tempo,,,,,180,1,0,500000,,,,,,
245600,note_off,,,,,80,0,1,,,0,,,81,64
245600,note_on,,,,,0,0,1,,,0,,,76,46
245680,note_on,,,,,0,0,1,,,0,,,73,50
245680,note_off,,,,,80,0,1,,,0,,,76,64
245700,note_off,,,,,0,0,2,,,0,,,57,64
245700,note_off,,,,,420,0,2,,,0,,,61,64
245740,note_off,,,,,60,0,1,,,0,,,73,64
245760,note_on,,,,,0,0,2,,,0,,,59,56
245760,control_change,,,,,0,0,2,,,0,64,127,,
245760,note_on,,,,,60,0,2,,,0,,,50,56
245760,note_on,,,,,20,0,1,,,0,,,78,54
245840,note_off,,,,,80,0,1,,,0,,,78,64
245840,note_on,,,,,0,0,1,,,0,,,71,45
245860,set_tempo,,,,,260,1,0,480000,,,,,,
245920,note_off,,,,,80,0,1,,,0,,,71,64
245920,note_on,,,,,0,0,1,,,0,,,78,43
245940,control_change,,,,,180,0,2,,,0,64,0,,
245962,note_off,,,,,22,0,2,,,0,,,59,64
245980,set_tempo,,,,,120,1,0,458015,,,,,,
246000,note_off,,,,,80,0,1,,,0,,,78,64
246000,note_on,,,,,0,0,1,,,0,,,81,57
246000,control_change,,,,,0,0,2,,,0,64,127,,
246000,note_on,,,,,38,0,2,,,0,,,59,50
246080,note_on,,,,,0,0,1,,,0,,,71,55
246080,note_off,,,,,80,0,1,,,0,,,81,64
246160,note_off,,,,,80,0,1,,,0,,,71,64
246160,note_on,,,,,0,0,1,,,0,,,81,49
246180,control_change,,,,,0,0,2,,,0,64,0,,
246180,note_off,,,,,180,0,2,,,0,,,59,64
246200,set_tempo,,,,,220,1,0,437956,,,,,,
246240,note_on,,,,,0,0,1,,,0,,,80,60
246240,note_on,,,,,0,0,2,,,0,,,59,59
246240,control_change,,,,,0,0,2,,,0,64,127,,
246240,note_on,,,,,0,0,2,,,0,,,52,59
246240,note_off,,,,,60,0,2,,,0,,,50,64
246240,note_off,,,,,80,0,1,,,0,,,81,64
246320,note_on,,,,,0,0,1,,,0,,,71,57
246320,note_off,,,,,80,0,1,,,0,,,80,64
246400,note_off,,,,,80,0,1,,,0,,,71,64
246400,note_on,,,,,0,0,1,,,0,,,80,51
246420,note_off,,,,,180,0,2,,,0,,,59,64
246460,set_tempo,,,,,260,1,0,431655,,,,,,
246480,note_off,,,,,80,0,1,,,0,,,80,64
246480,note_on,,,,,0,0,1,,,0,,,83,66
246480,note_on,,,,,60,0,2,,,0,,,62,52
246560,note_on,,,,,0,0,1,,,0,,,80,57
246560,note_off,,,,,80,0,1,,,0,,,83,64
246640,note_off,,,,,80,0,1,,,0,,,80,64
246640,note_on,,,,,0,0,1,,,0,,,83,49
246640,note_off,,,,,160,0,2,,,0,,,62,64
246640,note_on,,,,,0,0,2,,,0,,,61,62
246660,control_change,,,,,20,0,2,,,0,64,0,,
246720,note_on,,,,,0,0,1,,,0,,,81,67
246720,note_off,,,,,80,0,1,,,0,,,83,64
246720,note_off,,,,,0,0,2,,,0,,,52,64
246720,control_change,,,,,0,0,2,,,0,64,127,,
246720,note_on,,,,,0,0,2,,,0,,,61,66
246720,note_off,,,,,60,0,2,,,0,,,61,64
246720,note_on,,,,,0,0,2,,,0,,,57,66
246800,note_off,,,,,80,0,1,,,0,,,81,64
246800,note_on,,,,,0,0,1,,,0,,,83,49
246880,note_off,,,,,80,0,1,,,0,,,83,64
246880,note_on,,,,,0,0,1,,,0,,,80,55
246960,note_on,,,,,0,0,1,,,0,,,81,58
246960,note_off,,,,,80,0,1,,,0,,,80,64
247000,set_tempo,,,,,540,1,0,444444,,,,,,
247040,note_on,,,,,0,0,1,,,0,,,83,61
247040,note_off,,,,,80,0,1,,,0,,,81,64
247120,note_on,,,,,0,0,1,,,0,,,84,65
247120,note_off,,,,,80,0,1,,,0,,,83,64
247140,note_off,,,,,420,0,2,,,0,,,57,64
247140,note_off,,,,,0,0,2,,,0,,,61,64
247140,control_change,,,,,0,0,2,,,0,64,0,,
247200,control_change,,,,,0,0,2,,,0,64,127,,
247200,note_on,,,,,0,0,1,,,0,,,85,67
247200,set_tempo,,,,,200,1,0,458015,,,,,,
247200,note_on,,,,,60,0,2,,,0,,,64,80
247200,note_off,,,,,80,0,1,,,0,,,84,64
247280,note_on,,,,,0,0,1,,,0,,,86,71
247280,set_tempo,,,,,80,1,0,465116,,,,,,
247280,note_off,,,,,80,0,1,,,0,,,85,64
247360,note_off,,,,,80,0,1,,,0,,,86,64
247360,note_on,,,,,0,0,1,,,0,,,88,75
247440,note_on,,,,,0,0,1,,,0,,,90,80
247440,note_off,,,,,80,0,1,,,0,,,88,64
247520,note_off,,,,,80,0,1,,,0,,,90,64
247520,note_on,,,,,0,0,1,,,0,,,92,83
247520,note_on,,,,,0,0,2,,,0,,,62,59
247520,note_off,,,,,320,0,2,,,0,,,64,64
247560,control_change,,,,,40,0,2,,,0,64,0,,
247580,set_tempo,,,,,300,1,0,480000,,,,,,
247600,note_off,,,,,80,0,1,,,0,,,92,64
247600,note_on,,,,,0,0,1,,,0,,,93,86
247600,note_on,,,,,0,0,2,,,0,,,61,55
247600,note_off,,,,,40,0,2,,,0,,,62,64
247680,note_on,,,,,0,0,1,,,0,,,78,72
247680,note_off,,,,,80,0,2,,,0,,,61,64
247680,note_on,,,,,0,0,2,,,0,,,50,66
247680,control_change,,,,,0,0,2,,,0,64,127,,
247680,note_off,,,,,80,0,1,,,0,,,93,64
247680,note_on,,,,,0,0,2,,,0,,,59,66
247760,note_off,,,,,80,0,1,,,0,,,78,64
247760,note_on,,,,,0,0,1,,,0,,,71,62
247780,set_tempo,,,,,200,1,0,454545,,,,,,
247840,note_off,,,,,80,0,1,,,0,,,71,64
247840,note_on,,,,,0,0,1,,,0,,,78,51
247860,control_change,,,,,180,0,2,,,0,64,0,,
247882,note_off,,,,,22,0,2,,,0,,,59,64
247920,note_off,,,,,80,0,1,,,0,,,78,64
247920,note_on,,,,,0,0,1,,,0,,,81,70
247920,note_off,,,,,38,0,2,,,0,,,50,64
247920,note_on,,,,,0,0,2,,,0,,,51,70
247920,note_on,,,,,0,0,2,,,0,,,59,70
247920,control_change,,,,,0,0,2,,,0,64,127,,
247960,set_tempo,,,,,180,1,0,434783,,,,,,
248000,note_off,,,,,80,0,1,,,0,,,81,64
248000,note_on,,,,,0,0,1,,,0,,,71,65
248080,note_off,,,,,80,0,1,,,0,,,71,64
248080,note_on,,,,,0,0,1,,,0,,,81,59
248100,note_off,,,,,180,0,2,,,0,,,59,64
248100,control_change,,,,,0,0,2,,,0,64,0,,
248160,note_on,,,,,0,0,2,,,0,,,52,82
248160,note_on,,,,,0,0,2,,,0,,,59,82
248160,control_change,,,,,0,0,2,,,0,64,127,,
248160,note_on,,,,,0,0,1,,,0,,,80,95
248160,note_off,,,,,80,0,1,,,0,,,81,64
248160,note_off,,,,,60,0,2,,,0,,,51,64
248240,note_off,,,,,80,0,1,,,0,,,80,64
248240,note_on,,,,,0,0,1,,,0,,,71,83
248280,set_tempo,,,,,320,1,0,419580,,,,,,
248320,note_on,,,,,0,0,1,,,0,,,80,75
248320,note_off,,,,,80,0,1,,,0,,,71,64
248340,note_off,,,,,180,0,2,,,0,,,59,64
248400,note_off,,,,,80,0,1,,,0,,,80,64
248400,note_on,,,,,0,0,1,,,0,,,83,85
248400,note_on,,,,,60,0,2,,,0,,,62,95
248480,note_off,,,,,80,0,1,,,0,,,83,64
248480,note_on,,,,,0,0,1,,,0,,,80,95
248560,note_off,,,,,80,0,1,,,0,,,80,64
248560,note_on,,,,,0,0,1,,,0,,,88,105
248560,note_on,,,,,0,0,2,,,0,,,61,85
248560,note_off,,,,,160,0,2,,,0,,,62,64
248580,control_change,,,,,20,0,2,,,0,64,0,,
248640,note_off,,,,,60,0,2,,,0,,,61,64
248640,note_off,,,,,0,0,2,,,0,,,52,64
248640,note_on,,,,,0,0,1,,,0,,,85,114
248640,note_off,,,,,80,0,1,,,0,,,88,64
248640,note_on,,,,,0,0,2,,,0,,,61,106
248640,control_change,,,,,0,0,2,,,0,64,127,,
248640,note_on,,,,,0,0,2,,,0,,,53,106
248720,note_off,,,,,80,0,1,,,0,,,85,64
248720,note_on,,,,,0,0,1,,,0,,,80,103
248800,note_off,,,,,80,0,1,,,0,,,80,64
248800,note_on,,,,,0,0,1,,,0,,,92,95
248820,set_tempo,,,,,540,1,0,434783,,,,,,
248880,note_on,,,,,0,0,1,,,0,,,89,90
248880,note_off,,,,,80,0,1,,,0,,,92,64
248900,set_tempo,,,,,80,1,0,451128,,,,,,
248960,note_off,,,,,80,0,1,,,0,,,89,64
248960,note_on,,,,,0,0,1,,,0,,,85,90
249040,note_off,,,,,80,0,1,,,0,,,85,64
249040,set_tempo,,,,,140,1,0,465116,,,,,,
249040,note_on,,,,,0,0,1,,,0,,,97,93
249120,note_off,,,,,80,0,1,,,0,,,97,64
249120,note_on,,,,,0,0,1,,,0,,,92,95
249150,control_change,,,,,510,0,2,,,0,64,0,,
249200,note_off,,,,,80,0,1,,,0,,,92,64
249200,note_on,,,,,0,0,1,,,0,,,89,101
249280,note_off,,,,,80,0,1,,,0,,,89,64
249280,note_on,,,,,0,0,1,,,0,,,85,105
249360,note_off,,,,,210,0,2,,,0,,,61,64
249360,note_on,,,,,0,0,2,,,0,,,59,80
249360,note_off,,,,,80,0,1,,,0,,,85,64
249360,note_on,,,,,0,0,1,,,0,,,73,110
249440,note_on,,,,,0,0,1,,,0,,,85,98
249440,note_off,,,,,80,0,1,,,0,,,73,64
249520,note_on,,,,,0,0,2,,,0,,,61,97
249520,note_on,,,,,0,0,1,,,0,,,73,81
249520,note_off,,,,,80,0,1,,,0,,,85,64
249520,note_off,,,,,160,0,2,,,0,,,59,64
249600,note_on,,,,,0,0,2,,,0,,,62,92
249600,note_on,,,,,0,0,1,,,0,,,81,92
249600,note_off,,,,,0,0,2,,,0,,,53,64
249600,note_off,,,,,80,0,2,,,0,,,61,64
249600,note_on,,,,,0,0,2,,,0,,,54,92
249600,note_off,,,,,80,0,1,,,0,,,73,64
249680,note_off,,,,,80,0,1,,,0,,,81,64
249680,note_on,,,,,0,0,1,,,0,,,78,58
249760,note_on,,,,,0,0,1,,,0,,,86,64
249760,note_off,,,,,80,0,1,,,0,,,78,64
249780,set_tempo,,,,,740,1,0,451128,,,,,,
249810,note_off,,,,,210,0,2,,,0,,,62,64
249840,note_on,,,,,30,0,2,,,0,,,62,73
249840,note_on,,,,,0,0,1,,,0,,,81,72
249840,note_off,,,,,80,0,1,,,0,,,86,64
249920,note_off,,,,,80,0,1,,,0,,,81,64
249920,note_on,,,,,0,0,1,,,0,,,78,76
249960,set_tempo,,,,,180,1,0,434783,,,,,,
250000,note_off,,,,,80,0,1,,,0,,,78,64
250000,note_on,,,,,0,0,1,,,0,,,90,84
250050,note_off,,,,,210,0,2,,,0,,,62,64
250050,note_off,,,,,0,0,2,,,0,,,54,64
250080,note_off,,,,,80,0,1,,,0,,,90,64
250080,note_on,,,,,0,0,1,,,0,,,86,96
250080,note_on,,,,,0,0,2,,,0,,,62,89
250080,note_on,,,,,30,0,2,,,0,,,54,89
250160,note_off,,,,,80,0,1,,,0,,,86,64
250160,note_on,,,,,0,0,1,,,0,,,81,78
250180,set_tempo,,,,,220,1,0,419580,,,,,,
250240,note_on,,,,,0,0,1,,,0,,,93,72
250240,note_off,,,,,80,0,1,,,0,,,81,64
250290,note_off,,,,,210,0,2,,,0,,,62,64
250320,note_off,,,,,80,0,1,,,0,,,93,64
250320,note_on,,,,,30,0,2,,,0,,,66,102
250320,note_on,,,,,0,0,1,,,0,,,78,70
250400,note_off,,,,,80,0,1,,,0,,,78,64
250400,note_on,,,,,0,0,1,,,0,,,80,68
250480,note_off,,,,,80,0,1,,,0,,,80,64
250480,note_on,,,,,0,0,1,,,0,,,81,90
250500,note_off,,,,,180,0,2,,,0,,,66,64
250500,note_on,,,,,0,0,2,,,0,,,64,90
250530,note_off,,,,,30,0,2,,,0,,,54,64
250544,note_off,,,,,14,0,2,,,0,,,64,64
250560,note_on,,,,,0,0,2,,,0,,,56,108
250560,note_on,,,,,0,0,2,,,0,,,64,108
250560,control_change,,,,,16,0,2,,,0,64,127,,
250560,note_off,,,,,80,0,1,,,0,,,81,64
250560,note_on,,,,,0,0,1,,,0,,,83,104
250640,note_on,,,,,0,0,1,,,0,,,76,92
250640,note_off,,,,,80,0,1,,,0,,,83,64
250720,note_off,,,,,80,0,1,,,0,,,76,64
250720,note_on,,,,,0,0,1,,,0,,,88,80
250760,set_tempo,,,,,580,1,0,431655,,,,,,
250800,note_off,,,,,80,0,1,,,0,,,88,64
250800,note_on,,,,,0,0,1,,,0,,,83,105
250880,note_on,,,,,0,0,1,,,0,,,80,101
250880,note_off,,,,,80,0,1,,,0,,,83,64
250960,set_tempo,,,,,200,1,0,444444,,,,,,
250960,note_on,,,,,0,0,1,,,0,,,92,95
250960,note_off,,,,,80,0,1,,,0,,,80,64
251040,note_off,,,,,80,0,1,,,0,,,92,64
251040,note_on,,,,,0,0,1,,,0,,,88,108
251120,note_off,,,,,80,0,1,,,0,,,88,64
251120,note_on,,,,,0,0,1,,,0,,,83,103
251200,note_off,,,,,80,0,1,,,0,,,83,64
251200,note_on,,,,,0,0,1,,,0,,,95,94
251280,note_off,,,,,80,0,1,,,0,,,95,64
251280,note_on,,,,,0,0,1,,,0,,,92,119
251360,note_off,,,,,80,0,1,,,0,,,92,64
251360,note_on,,,,,0,0,1,,,0,,,88,109
251360,set_tempo,,,,,400,1,0,461538,,,,,,
251440,note_off,,,,,80,0,1,,,0,,,88,64
251440,note_on,,,,,0,0,1,,,0,,,100,99
251460,control_change,,,,,900,0,2,,,0,64,0,,
251492,note_off,,,,,0,0,2,,,0,,,64,64
251492,note_off,,,,,32,0,2,,,0,,,56,64
251520,note_on,,,,,0,0,2,,,0,,,57,75
251520,note_on,,,,,0,0,2,,,0,,,61,75
251520,note_on,,,,,0,0,2,,,0,,,64,75
251520,control_change,,,,,0,0,2,,,0,64,127,,
251520,set_tempo,,,,,160,1,0,472441,,,,,,
251520,note_on,,,,,28,0,2,,,0,,,55,75
251520,note_off,,,,,80,0,1,,,0,,,100,64
251520,note_on,,,,,0,0,1,,,0,,,81,112
251600,note_off,,,,,80,0,1,,,0,,,81,64
251600,note_on,,,,,0,0,1,,,0,,,69,80
251680,note_off,,,,,80,0,1,,,0,,,69,64
251680,note_on,,,,,0,0,1,,,0,,,81,86
251680,control_change,,,,,160,0,2,,,0,64,0,,
251700,note_off,,,,,0,0,2,,,0,,,55,64
251700,note_off,,,,,20,0,2,,,0,,,64,64
251700,note_off,,,,,0,0,2,,,0,,,61,64
251700,note_off,,,,,0,0,2,,,0,,,57,64
251760,note_off,,,,,80,0,1,,,0,,,81,64
251760,note_on,,,,,0,0,1,,,0,,,85,92
251760,note_on,,,,,0,0,2,,,0,,,64,75
251760,note_on,,,,,0,0,2,,,0,,,61,75
251760,note_on,,,,,0,0,2,,,0,,,57,75
251760,control_change,,,,,0,0,2,,,0,64,127,,
251760,note_on,,,,,60,0,2,,,0,,,55,75
251840,note_off,,,,,80,0,1,,,0,,,85,64
251840,note_on,,,,,0,0,1,,,0,,,73,98
251920,set_tempo,,,,,400,1,0,468750,,,,,,
251920,note_off,,,,,80,0,1,,,0,,,73,64
251920,note_on,,,,,0,0,1,,,0,,,85,106
251920,control_change,,,,,160,0,2,,,0,64,0,,
251940,note_off,,,,,20,0,2,,,0,,,57,64
251940,note_off,,,,,0,0,2,,,0,,,55,64
251940,note_off,,,,,0,0,2,,,0,,,61,64
251940,set_tempo,,,,,20,1,0,454545,,,,,,
251940,note_off,,,,,0,0,2,,,0,,,64,64
252000,note_on,,,,,0,0,1,,,0,,,88,108
252000,note_off,,,,,80,0,1,,,0,,,85,64
252000,note_on,,,,,0,0,2,,,0,,,61,87
252000,note_on,,,,,0,0,2,,,0,,,55,87
252000,note_on,,,,,0,0,2,,,0,,,64,87
252000,note_on,,,,,0,0,2,,,0,,,57,87
252000,control_change,,,,,60,0,2,,,0,64,127,,
252080,note_off,,,,,80,0,1,,,0,,,88,64
252080,note_on,,,,,0,0,1,,,0,,,76,112
252160,note_off,,,,,80,0,1,,,0,,,76,64
252160,control_change,,,,,160,0,2,,,0,64,0,,
252160,note_on,,,,,0,0,1,,,0,,,88,116
252180,note_off,,,,,0,0,2,,,0,,,57,64
252180,note_off,,,,,0,0,2,,,0,,,61,64
252180,note_off,,,,,0,0,2,,,0,,,55,64
252180,note_off,,,,,20,0,2,,,0,,,64,64
252240,note_on,,,,,0,0,2,,,0,,,61,98
252240,note_on,,,,,0,0,2,,,0,,,64,98
252240,note_on,,,,,0,0,2,,,0,,,57,98
252240,control_change,,,,,0,0,2,,,0,64,127,,
252240,note_on,,,,,60,0,2,,,0,,,55,98
252240,note_on,,,,,0,0,1,,,0,,,93,120
252240,note_off,,,,,80,0,1,,,0,,,88,64
252260,set_tempo,,,,,320,1,0,437956,,,,,,
252320,note_off,,,,,80,0,1,,,0,,,93,64
252320,note_on,,,,,0,0,1,,,0,,,81,116
252400,control_change,,,,,160,0,2,,,0,64,0,,
252400,note_off,,,,,80,0,1,,,0,,,81,64
252400,note_on,,,,,0,0,1,,,0,,,93,122
252420,note_off,,,,,0,0,2,,,0,,,57,64
252420,note_off,,,,,0,0,2,,,0,,,55,64
252420,note_off,,,,,0,0,2,,,0,,,64,64
252420,note_off,,,,,20,0,2,,,0,,,61,64
252480,note_on,,,,,0,0,2,,,0,,,57,114
252480,note_on,,,,,0,0,2,,,0,,,54,114
252480,note_on,,,,,0,0,1,,,0,,,81,127
252480,note_off,,,,,80,0,1,,,0,,,93,64
252480,note_on,,,,,0,0,2,,,0,,,66,114
252480,control_change,,,,,60,0,2,,,0,64,127,,
252480,note_on,,,,,0,0,2,,,0,,,62,114
252560,note_on,,,,,0,0,1,,,0,,,93,124
252560,note_off,,,,,80,0,1,,,0,,,81,64
252640,note_on,,,,,0,0,1,,,0,,,90,100
252640,note_off,,,,,80,0,1,,,0,,,93,64
252720,note_on,,,,,0,0,1,,,0,,,86,92
252720,note_off,,,,,80,0,1,,,0,,,90,64
252800,note_on,,,,,0,0,1,,,0,,,81,84
252800,note_off,,,,,80,0,1,,,0,,,86,64
252880,note_on,,,,,0,0,1,,,0,,,77,76
252880,note_off,,,,,80,0,1,,,0,,,81,64
252960,note_on,,,,,0,0,1,,,0,,,78,70
252960,note_on,,,,,0,0,2,,,0,,,74,70
252960,note_on,,,,,0,0,2,,,0,,,66,70
252960,control_change,,,,,0,0,2,,,0,64,0,,
252960,note_off,,,,,0,0,2,,,0,,,66,64
252960,note_off,,,,,0,0,2,,,0,,,57,64
252960,note_off,,,,,0,0,2,,,0,,,62,64
252960,note_off,,,,,480,0,2,,,0,,,54,64
252960,note_off,,,,,80,0,1,,,0,,,77,64
253040,note_on,,,,,0,0,1,,,0,,,80,70
253040,note_off,,,,,80,0,1,,,0,,,78,64
253120,note_on,,,,,0,0,1,,,0,,,81,80
253120,note_off,,,,,80,0,1,,,0,,,80,64
253140,note_off,,,,,0,0,2,,,0,,,66,64
253140,note_off,,,,,180,0,2,,,0,,,74,64
253200,note_on,,,,,0,0,2,,,0,,,71,88
253200,note_off,,,,,80,0,1,,,0,,,81,64
253200,note_on,,,,,0,0,1,,,0,,,83,88
253200,note_on,,,,,60,0,2,,,0,,,62,88
253280,note_on,,,,,0,0,1,,,0,,,85,96
253280,note_off,,,,,80,0,1,,,0,,,83,64
253360,note_on,,,,,0,0,1,,,0,,,86,102
253360,note_off,,,,,80,0,1,,,0,,,85,64
253380,note_off,,,,,0,0,2,,,0,,,62,64
253380,note_off,,,,,180,0,2,,,0,,,71,64
253440,note_on,,,,,60,0,2,,,0,,,52,98
253440,control_change,,,,,0,0,2,,,0,64,127,,
253440,note_off,,,,,80,0,1,,,0,,,86,64
253440,note_on,,,,,0,0,1,,,0,,,88,104
253460,note_on,,,,,20,0,2,,,0,,,61,103
253480,note_on,,,,,20,0,2,,,0,,,69,111
253500,set_tempo,,,,,1240,1,0,451128,,,,,,
253520,note_on,,,,,0,0,1,,,0,,,85,98
253520,note_off,,,,,80,0,1,,,0,,,88,64
253600,note_off,,,,,80,0,1,,,0,,,85,64
253600,note_on,,,,,0,0,1,,,0,,,81,88
253680,note_off,,,,,80,0,1,,,0,,,81,64
253680,note_on,,,,,0,0,1,,,0,,,76,88
253740,note_off,,,,,260,0,2,,,0,,,52,64
253760,note_on,,,,,0,0,1,,,0,,,73,72
253760,note_off,,,,,20,0,2,,,0,,,61,64
253760,note_off,,,,,80,0,1,,,0,,,76,64
253780,note_off,,,,,20,0,2,,,0,,,69,64
253800,note_on,,,,,20,0,2,,,0,,,61,77
253800,note_on,,,,,0,0,2,,,0,,,69,77
253840,set_tempo,,,,,340,1,0,472441,,,,,,
253840,note_on,,,,,0,0,1,,,0,,,76,58
253840,note_off,,,,,80,0,1,,,0,,,73,64
253860,control_change,,,,,60,0,2,,,0,64,0,,
253920,note_off,,,,,0,0,2,,,0,,,61,64
253920,note_on,,,,,0,0,2,,,0,,,69,90
253920,note_on,,,,,0,0,2,,,0,,,64,90
253920,note_on,,,,,0,0,2,,,0,,,73,90
253920,note_on,,,,,0,0,1,,,0,,,85,84
253920,note_off,,,,,80,0,1,,,0,,,76,64
253920,note_off,,,,,60,0,2,,,0,,,69,64
253920,control_change,,,,,0,0,2,,,0,64,127,,
254000,note_on,,,,,0,0,1,,,0,,,76,70
254000,note_off,,,,,80,0,1,,,0,,,85,64
254080,note_on,,,,,0,0,1,,,0,,,81,60
254080,note_off,,,,,80,0,1,,,0,,,76,64
254140,set_tempo,,,,,300,1,0,487805,,,,,,
254160,note_on,,,,,0,0,1,,,0,,,83,74
254160,note_off,,,,,80,0,1,,,0,,,81,64
254160,note_off,,,,,240,0,2,,,0,,,73,64
254160,note_on,,,,,0,0,2,,,0,,,71,74
254160,note_off,,,,,0,0,2,,,0,,,69,64
254160,note_on,,,,,0,0,2,,,0,,,68,74
254240,note_on,,,,,0,0,1,,,0,,,76,70
254240,note_off,,,,,80,0,1,,,0,,,83,64
254320,set_tempo,,,,,180,1,0,508475,,,,,,
254320,note_off,,,,,80,0,1,,,0,,,76,64
254320,note_on,,,,,0,0,1,,,0,,,80,56
254340,control_change,,,,,180,0,2,,,0,64,0,,
254370,note_off,,,,,0,0,2,,,0,,,64,64
254370,note_off,,,,,0,0,2,,,0,,,71,64
254370,note_off,,,,,30,0,2,,,0,,,68,64
254400,note_on,,,,,30,0,2,,,0,,,61,75
254400,control_change,,,,,0,0,2,,,0,64,127,,
254400,note_off,,,,,80,0,1,,,0,,,80,64
254400,note_on,,,,,0,0,2,,,0,,,55,75
254400,note_on,,,,,0,0,2,,,0,,,64,75
254400,set_tempo,,,,,80,1,0,483871,,,,,,
254400,note_on,,,,,0,0,2,,,0,,,57,75
254400,note_on,,,,,0,0,1,,,0,,,69,84
254480,note_on,,,,,0,0,1,,,0,,,83,80
254480,note_off,,,,,80,0,1,,,0,,,69,64
254560,control_change,,,,,160,0,2,,,0,64,0,,
254560,note_on,,,,,0,0,1,,,0,,,81,70
254560,note_off,,,,,80,0,1,,,0,,,83,64
254580,note_off,,,,,0,0,2,,,0,,,57,64
254580,note_off,,,,,0,0,2,,,0,,,61,64
254580,note_off,,,,,0,0,2,,,0,,,64,64
254580,note_off,,,,,20,0,2,,,0,,,55,64
254640,note_off,,,,,80,0,1,,,0,,,81,64
254640,note_on,,,,,0,0,2,,,0,,,57,72
254640,note_on,,,,,0,0,2,,,0,,,61,72
254640,note_on,,,,,0,0,2,,,0,,,64,72
254640,note_on,,,,,0,0,1,,,0,,,73,94
254640,control_change,,,,,0,0,2,,,0,64,127,,
254640,note_on,,,,,60,0,2,,,0,,,55,72
254680,set_tempo,,,,,280,1,0,461538,,,,,,
254720,note_off,,,,,80,0,1,,,0,,,73,64
254720,note_on,,,,,0,0,1,,,0,,,86,84
254800,note_off,,,,,80,0,1,,,0,,,86,64
254800,note_on,,,,,0,0,1,,,0,,,85,76
254800,control_change,,,,,160,0,2,,,0,64,0,,
254820,note_off,,,,,20,0,2,,,0,,,64,64
254820,note_off,,,,,0,0,2,,,0,,,61,64
254820,note_off,,,,,0,0,2,,,0,,,57,64
254820,note_off,,,,,0,0,2,,,0,,,55,64
254880,note_off,,,,,80,0,1,,,0,,,85,64
254880,note_on,,,,,0,0,1,,,0,,,76,105
254880,control_change,,,,,0,0,2,,,0,64,127,,
254880,note_on,,,,,60,0,2,,,0,,,64,83
254880,note_on,,,,,0,0,2,,,0,,,61,83
254880,note_on,,,,,0,0,2,,,0,,,57,83
254880,note_on,,,,,0,0,2,,,0,,,55,83
254900,set_tempo,,,,,220,1,0,444444,,,,,,
254960,note_off,,,,,80,0,1,,,0,,,76,64
254960,note_on,,,,,0,0,1,,,0,,,90,100
255040,control_change,,,,,160,0,2,,,0,64,0,,
255040,note_off,,,,,80,0,1,,,0,,,90,64
255040,note_on,,,,,0,0,1,,,0,,,88,95
255060,note_off,,,,,20,0,2,,,0,,,55,64
255060,note_off,,,,,0,0,2,,,0,,,57,64
255060,note_off,,,,,0,0,2,,,0,,,61,64
255060,note_off,,,,,0,0,2,,,0,,,64,64
255120,note_on,,,,,0,0,2,,,0,,,57,94
255120,note_on,,,,,0,0,2,,,0,,,61,94
255120,note_on,,,,,0,0,2,,,0,,,64,94
255120,note_on,,,,,0,0,2,,,0,,,55,94
255120,control_change,,,,,60,0,2,,,0,64,127,,
255120,note_off,,,,,80,0,1,,,0,,,88,64
255120,note_on,,,,,0,0,1,,,0,,,81,118
255200,note_on,,,,,0,0,1,,,0,,,95,114
255200,note_off,,,,,80,0,1,,,0,,,81,64
255280,control_change,,,,,160,0,2,,,0,64,0,,
255280,note_on,,,,,0,0,1,,,0,,,93,108
255280,note_off,,,,,80,0,1,,,0,,,95,64
255300,note_off,,,,,20,0,2,,,0,,,55,64
255300,note_off,,,,,0,0,2,,,0,,,57,64
255300,note_off,,,,,0,0,2,,,0,,,61,64
255300,note_off,,,,,0,0,2,,,0,,,64,64
255360,note_on,,,,,0,0,2,,,0,,,54,114
255360,note_on,,,,,0,0,2,,,0,,,57,114
255360,note_on,,,,,0,0,2,,,0,,,62,114
255360,control_change,,,,,0,0,2,,,0,64,127,,
255360,note_on,,,,,60,0,2,,,0,,,66,114
255360,note_on,,,,,0,0,1,,,0,,,81,117
255360,note_off,,,,,80,0,1,,,0,,,93,64
255440,note_off,,,,,80,0,1,,,0,,,81,64
255440,note_on,,,,,0,0,1,,,0,,,93,110
255520,note_off,,,,,80,0,1,,,0,,,93,64
255520,note_on,,,,,0,0,1,,,0,,,90,104
255600,note_off,,,,,80,0,1,,,0,,,90,64
255600,note_on,,,,,0,0,1,,,0,,,86,98
255680,note_off,,,,,80,0,1,,,0,,,86,64
255680,note_on,,,,,0,0,1,,,0,,,81,96
255760,note_off,,,,,80,0,1,,,0,,,81,64
255760,note_on,,,,,0,0,1,,,0,,,77,94
255780,control_change,,,,,420,0,2,,,0,64,0,,
255802,note_off,,,,,0,0,2,,,0,,,66,64
255802,note_off,,,,,0,0,2,,,0,,,62,64
255802,note_off,,,,,0,0,2,,,0,,,57,64
255802,note_off,,,,,22,0,2,,,0,,,54,64
255840,note_on,,,,,0,0,2,,,0,,,62,86
255840,note_on,,,,,0,0,2,,,0,,,50,86
255840,control_change,,,,,38,0,2,,,0,64,127,,
255840,note_on,,,,,0,0,2,,,0,,,59,86
255840,note_on,,,,,0,0,2,,,0,,,54,86
255840,note_on,,,,,0,0,1,,,0,,,78,86
255840,note_off,,,,,80,0,1,,,0,,,77,64
255920,note_on,,,,,0,0,1,,,0,,,80,78
255920,note_off,,,,,80,0,1,,,0,,,78,64
256000,note_on,,,,,0,0,1,,,0,,,81,74
256000,note_off,,,,,80,0,1,,,0,,,80,64
256080,note_on,,,,,0,0,1,,,0,,,83,78
256080,note_off,,,,,80,0,1,,,0,,,81,64
256160,note_off,,,,,80,0,1,,,0,,,83,64
256160,note_on,,,,,0,0,1,,,0,,,85,84
256240,note_off,,,,,80,0,1,,,0,,,85,64
256240,note_on,,,,,0,0,1,,,0,,,86,102
256260,control_change,,,,,420,0,2,,,0,64,0,,
256282,note_off,,,,,0,0,2,,,0,,,50,64
256282,note_off,,,,,0,0,2,,,0,,,54,64
256282,note_off,,,,,0,0,2,,,0,,,59,64
256282,note_off,,,,,22,0,2,,,0,,,62,64
256320,note_on,,,,,0,0,2,,,0,,,49,114
256320,note_off,,,,,80,0,1,,,0,,,86,64
256320,note_on,,,,,0,0,2,,,0,,,52,114
256320,note_on,,,,,0,0,1,,,0,,,76,119
256320,note_on,,,,,0,0,2,,,0,,,61,114
256320,note_on,,,,,38,0,2,,,0,,,57,114
256320,control_change,,,,,0,0,2,,,0,64,127,,
256400,note_on,,,,,0,0,1,,,0,,,88,112
256400,note_off,,,,,80,0,1,,,0,,,76,64
256440,set_tempo,,,,,1540,1,0,468750,,,,,,
256480,note_on,,,,,0,0,1,,,0,,,85,99
256480,note_off,,,,,80,0,1,,,0,,,88,64
256560,note_on,,,,,0,0,1,,,0,,,81,89
256560,note_off,,,,,80,0,1,,,0,,,85,64
256640,note_off,,,,,80,0,1,,,0,,,81,64
256640,set_tempo,,,,,200,1,0,487805,,,,,,
256640,note_on,,,,,0,0,1,,,0,,,76,75
256720,note_off,,,,,80,0,1,,,0,,,76,64
256720,note_on,,,,,0,0,1,,,0,,,73,64
256740,control_change,,,,,420,0,2,,,0,64,0,,
256762,note_off,,,,,0,0,2,,,0,,,49,64
256762,note_off,,,,,0,0,2,,,0,,,52,64
256762,note_off,,,,,22,0,2,,,0,,,61,64
256762,note_off,,,,,0,0,2,,,0,,,57,64
256800,note_on,,,,,0,0,1,,,0,,,75,119
256800,note_off,,,,,80,0,1,,,0,,,73,64
256800,note_on,,,,,0,0,2,,,0,,,54,101
256800,control_change,,,,,38,0,2,,,0,64,127,,
256810,note_on,,,,,10,0,2,,,0,,,57,101
256820,note_on,,,,,10,0,2,,,0,,,59,101
256830,note_on,,,,,10,0,2,,,0,,,63,101
256840,note_on,,,,,10,0,2,,,0,,,66,101
256860,set_tempo,,,,,220,1,0,512821,,,,,,
256880,note_off,,,,,80,0,1,,,0,,,75,64
256880,note_on,,,,,0,0,1,,,0,,,93,110
256960,note_off,,,,,80,0,1,,,0,,,93,64
256960,note_on,,,,,0,0,1,,,0,,,90,102
257040,note_on,,,,,0,0,1,,,0,,,87,96
257040,note_off,,,,,80,0,1,,,0,,,90,64
257120,note_on,,,,,0,0,1,,,0,,,83,83
257120,set_tempo,,,,,260,1,0,530973,,,,,,
257120,note_off,,,,,80,0,1,,,0,,,87,64
257200,note_on,,,,,0,0,1,,,0,,,87,73
257200,note_off,,,,,80,0,1,,,0,,,83,64
257220,control_change,,,,,380,0,2,,,0,64,0,,
257242,note_off,,,,,22,0,2,,,0,,,54,64
257252,note_off,,,,,10,0,2,,,0,,,57,64
257260,set_tempo,,,,,140,1,0,468750,,,,,,
257262,note_off,,,,,10,0,2,,,0,,,59,64
257272,note_off,,,,,10,0,2,,,0,,,63,64
257280,note_on,,,,,8,0,2,,,0,,,64,82
257280,note_on,,,,,0,0,2,,,0,,,56,82
257280,note_on,,,,,0,0,2,,,0,,,59,82
257280,note_on,,,,,0,0,2,,,0,,,52,82
257280,note_off,,,,,80,0,1,,,0,,,87,64
257280,note_on,,,,,0,0,1,,,0,,,88,81
257282,note_off,,,,,2,0,2,,,0,,,66,64
257400,note_off,,,,,118,0,2,,,0,,,52,64
257400,set_tempo,,,,,140,1,0,451128,,,,,,
257400,note_off,,,,,120,0,1,,,0,,,88,64
257400,note_off,,,,,0,0,2,,,0,,,64,64
257400,note_off,,,,,0,0,2,,,0,,,56,64
257400,note_off,,,,,0,0,2,,,0,,,59,64
257520,note_on,,,,,0,0,2,,,0,,,66,92
257520,control_change,,,,,120,0,2,,,0,64,127,,
257520,note_on,,,,,120,0,1,,,0,,,87,106
257520,note_on,,,,,0,0,1,,,0,,,81,106
257520,note_on,,,,,0,0,1,,,0,,,83,106
257600,note_on,,,,,0,0,2,,,0,,,59,89
257600,note_off,,,,,80,0,2,,,0,,,66,64
257680,note_on,,,,,0,0,2,,,0,,,52,67
257680,note_off,,,,,80,0,2,,,0,,,59,64
257700,set_tempo,,,,,300,1,0,441176,,,,,,
257740,note_off,,,,,0,0,1,,,0,,,87,64
257740,note_off,,,,,0,0,1,,,0,,,83,64
257740,note_off,,,,,220,0,1,,,0,,,81,64
257760,note_off,,,,,80,0,2,,,0,,,52,64
257760,note_on,,,,,0,0,2,,,0,,,64,86
257760,note_on,,,,,0,0,1,,,0,,,83,76
257760,note_on,,,,,0,0,1,,,0,,,81,76
257760,note_on,,,,,20,0,1,,,0,,,88,76
257760,control_change,,,,,0,0,2,,,0,64,0,,
257800,set_tempo,,,,,100,1,0,428571,,,,,,
257840,note_on,,,,,0,0,2,,,0,,,59,78
257840,note_off,,,,,80,0,2,,,0,,,64,64
257920,note_on,,,,,0,0,2,,,0,,,52,65
257920,note_off,,,,,80,0,2,,,0,,,59,64
257940,note_off,,,,,0,0,1,,,0,,,83,64
257940,note_off,,,,,0,0,1,,,0,,,88,64
257940,note_off,,,,,180,0,1,,,0,,,81,64
258000,note_on,,,,,60,0,1,,,0,,,90,84
258000,note_on,,,,,0,0,1,,,0,,,83,84
258000,note_on,,,,,0,0,1,,,0,,,81,84
258000,note_on,,,,,0,0,2,,,0,,,63,64
258000,note_off,,,,,80,0,2,,,0,,,52,64
258080,note_off,,,,,80,0,2,,,0,,,63,64
258080,note_on,,,,,0,0,2,,,0,,,59,71
258160,note_on,,,,,0,0,2,,,0,,,52,75
258160,note_off,,,,,80,0,2,,,0,,,59,64
258162,note_off,,,,,0,0,1,,,0,,,90,64
258162,note_off,,,,,162,0,1,,,0,,,81,64
258162,note_off,,,,,0,0,1,,,0,,,83,64
258240,note_off,,,,,80,0,2,,,0,,,52,64
258240,note_on,,,,,0,0,2,,,0,,,64,79
258240,note_on,,,,,0,0,1,,,0,,,80,85
258240,note_on,,,,,0,0,1,,,0,,,83,85
258240,note_on,,,,,78,0,1,,,0,,,88,85
258320,note_off,,,,,80,0,2,,,0,,,64,64
258320,note_on,,,,,0,0,2,,,0,,,59,76
258400,note_on,,,,,0,0,2,,,0,,,52,65
258400,note_off,,,,,80,0,2,,,0,,,59,64
258420,note_off,,,,,0,0,1,,,0,,,88,64
258420,note_off,,,,,180,0,1,,,0,,,80,64
258420,note_off,,,,,0,0,1,,,0,,,83,64
258420,set_tempo,,,,,620,1,0,444444,,,,,,
258460,note_off,,,,,60,0,2,,,0,,,52,64
258480,control_change,,,,,20,0,2,,,0,64,127,,
258480,note_on,,,,,0,0,2,,,0,,,57,54
258480,note_on,,,,,0,0,2,,,0,,,51,54
258480,note_on,,,,,0,0,2,,,0,,,59,54
258480,note_on,,,,,60,0,1,,,0,,,78,71
258500,set_tempo,,,,,80,1,0,480000,,,,,,
258560,note_on,,,,,0,0,1,,,0,,,71,59
258560,note_off,,,,,80,0,1,,,0,,,78,64
258580,set_tempo,,,,,80,1,0,451128,,,,,,
258640,note_on,,,,,0,0,1,,,0,,,69,48
258640,note_off,,,,,80,0,1,,,0,,,71,64
258660,set_tempo,,,,,80,1,0,437956,,,,,,
258700,note_off,,,,,0,0,2,,,0,,,51,64
258700,note_off,,,,,220,0,2,,,0,,,59,64
258700,note_off,,,,,0,0,2,,,0,,,57,64
258720,note_on,,,,,0,0,2,,,0,,,57,46
258720,note_on,,,,,0,0,1,,,0,,,76,50
258720,note_off,,,,,80,0,1,,,0,,,69,64
258720,note_on,,,,,0,0,2,,,0,,,59,46
258720,note_on,,,,,0,0,2,,,0,,,52,46
258720,control_change,,,,,20,0,2,,,0,64,0,,
258800,note_on,,,,,0,0,1,,,0,,,71,47
258800,note_off,,,,,80,0,1,,,0,,,76,64
258880,note_on,,,,,0,0,1,,,0,,,69,43
258880,note_off,,,,,80,0,1,,,0,,,71,64
258900,note_off,,,,,0,0,2,,,0,,,59,64
258900,note_off,,,,,180,0,2,,,0,,,57,64
258900,note_off,,,,,0,0,2,,,0,,,52,64
258960,note_on,,,,,60,0,2,,,0,,,54,51
258960,note_off,,,,,80,0,1,,,0,,,69,64
258960,note_on,,,,,0,0,1,,,0,,,75,48
258960,note_on,,,,,0,0,2,,,0,,,57,51
258960,note_on,,,,,0,0,2,,,0,,,59,51
259040,note_off,,,,,80,0,1,,,0,,,75,64
259040,note_on,,,,,0,0,1,,,0,,,71,51
259120,note_on,,,,,0,0,1,,,0,,,69,55
259120,note_off,,,,,80,0,1,,,0,,,71,64
259122,note_off,,,,,0,0,2,,,0,,,54,64
259122,note_off,,,,,0,0,2,,,0,,,59,64
259122,note_off,,,,,162,0,2,,,0,,,57,64
259200,note_on,,,,,0,0,2,,,0,,,59,56
259200,note_on,,,,,0,0,2,,,0,,,52,56
259200,note_off,,,,,80,0,1,,,0,,,69,64
259200,note_on,,,,,0,0,1,,,0,,,76,59
259200,note_on,,,,,78,0,2,,,0,,,56,56
259280,note_on,,,,,0,0,1,,,0,,,71,50
259280,note_off,,,,,80,0,1,,,0,,,76,64
259320,set_tempo,,,,,660,1,0,451128,,,,,,
259360,note_on,,,,,0,0,1,,,0,,,68,41
259360,note_off,,,,,80,0,1,,,0,,,71,64
259380,note_off,,,,,180,0,2,,,0,,,52,64
259380,note_off,,,,,0,0,2,,,0,,,59,64
259380,note_off,,,,,0,0,2,,,0,,,56,64
259420,note_off,,,,,60,0,1,,,0,,,68,64
259440,note_on,,,,,20,0,1,,,0,,,90,86
259440,note_on,,,,,0,0,1,,,0,,,83,86
259440,note_on,,,,,0,0,1,,,0,,,81,86
259440,set_tempo,,,,,120,1,0,472441,,,,,,
259440,control_change,,,,,60,0,2,,,0,64,127,,
259440,note_on,,,,,0,0,2,,,0,,,63,108
259500,set_tempo,,,,,60,1,0,451128,,,,,,
259520,note_off,,,,,80,0,2,,,0,,,63,64
259520,note_on,,,,,0,0,2,,,0,,,59,76
259600,note_off,,,,,80,0,2,,,0,,,59,64
259600,note_on,,,,,0,0,2,,,0,,,52,67
259600,set_tempo,,,,,100,1,0,437956,,,,,,
259660,note_off,,,,,0,0,1,,,0,,,83,64
259660,note_off,,,,,220,0,1,,,0,,,81,64
259660,note_off,,,,,0,0,1,,,0,,,90,64
259680,note_on,,,,,0,0,1,,,0,,,83,70
259680,note_on,,,,,20,0,1,,,0,,,88,70
259680,note_on,,,,,0,0,1,,,0,,,81,70
259680,note_on,,,,,0,0,2,,,0,,,64,86
259680,control_change,,,,,0,0,2,,,0,64,0,,
259680,note_off,,,,,80,0,2,,,0,,,52,64
259760,note_on,,,,,0,0,2,,,0,,,59,78
259760,note_off,,,,,80,0,2,,,0,,,64,64
259760,set_tempo,,,,,160,1,0,431655,,,,,,
259840,note_off,,,,,80,0,2,,,0,,,59,64
259840,note_on,,,,,0,0,2,,,0,,,52,62
259860,note_off,,,,,180,0,1,,,0,,,81,64
259860,note_off,,,,,0,0,1,,,0,,,88,64
259860,note_off,,,,,0,0,1,,,0,,,83,64
259920,note_on,,,,,0,0,2,,,0,,,66,70
259920,note_on,,,,,0,0,1,,,0,,,81,77
259920,note_on,,,,,0,0,1,,,0,,,83,77
259920,note_on,,,,,60,0,1,,,0,,,87,77
259920,note_off,,,,,80,0,2,,,0,,,52,64
260000,note_off,,,,,80,0,2,,,0,,,66,64
260000,note_on,,,,,0,0,2,,,0,,,59,80
260080,note_off,,,,,80,0,2,,,0,,,59,64
260080,note_on,,,,,0,0,2,,,0,,,52,87
260082,note_off,,,,,0,0,1,,,0,,,87,64
260082,note_off,,,,,0,0,1,,,0,,,83,64
260082,note_off,,,,,162,0,1,,,0,,,81,64
260160,note_on,,,,,0,0,1,,,0,,,80,83
260160,set_tempo,,,,,400,1,0,441176,,,,,,
260160,note_on,,,,,78,0,1,,,0,,,88,83
260160,note_on,,,,,0,0,1,,,0,,,83,83
260160,note_on,,,,,0,0,2,,,0,,,64,89
260160,note_off,,,,,80,0,2,,,0,,,52,64
260240,note_off,,,,,80,0,2,,,0,,,64,64
260240,note_on,,,,,0,0,2,,,0,,,59,78
260320,note_off,,,,,80,0,2,,,0,,,59,64
260320,note_on,,,,,0,0,2,,,0,,,52,61
260340,note_off,,,,,0,0,1,,,0,,,83,64
260340,note_off,,,,,0,0,1,,,0,,,88,64
260340,note_off,,,,,180,0,1,,,0,,,80,64
260380,note_off,,,,,60,0,2,,,0,,,52,64
260400,control_change,,,,,20,0,2,,,0,64,127,,
260400,note_on,,,,,0,0,2,,,0,,,57,55
260400,note_on,,,,,0,0,2,,,0,,,54,55
260400,note_on,,,,,0,0,2,,,0,,,59,55
260400,note_on,,,,,60,0,1,,,0,,,75,71
260480,note_on,,,,,0,0,1,,,0,,,71,48
260480,note_off,,,,,80,0,1,,,0,,,75,64
260560,note_on,,,,,0,0,1,,,0,,,69,54
260560,note_off,,,,,80,0,1,,,0,,,71,64
260620,note_off,,,,,0,0,2,,,0,,,57,64
260620,note_off,,,,,0,0,2,,,0,,,54,64
260620,note_off,,,,,220,0,2,,,0,,,59,64
260640,note_on,,,,,0,0,2,,,0,,,57,46
260640,control_change,,,,,20,0,2,,,0,64,0,,
260640,set_tempo,,,,,480,1,0,425532,,,,,,
260640,note_on,,,,,0,0,1,,,0,,,76,59
260640,note_off,,,,,80,0,1,,,0,,,69,64
260640,note_on,,,,,0,0,2,,,0,,,52,46
260640,note_on,,,,,0,0,2,,,0,,,59,46
260720,note_on,,,,,0,0,1,,,0,,,71,53
260720,note_off,,,,,80,0,1,,,0,,,76,64
260800,note_on,,,,,0,0,1,,,0,,,69,49
260800,note_off,,,,,80,0,1,,,0,,,71,64
260820,note_off,,,,,180,0,2,,,0,,,57,64
260820,note_off,,,,,0,0,2,,,0,,,52,64
260820,note_off,,,,,0,0,2,,,0,,,59,64
260880,note_on,,,,,0,0,1,,,0,,,78,48
260880,note_off,,,,,80,0,1,,,0,,,69,64
260880,note_on,,,,,60,0,2,,,0,,,51,51
260880,note_on,,,,,0,0,2,,,0,,,59,51
260880,note_on,,,,,0,0,2,,,0,,,57,51
260960,note_off,,,,,80,0,1,,,0,,,78,64
260960,note_on,,,,,0,0,1,,,0,,,71,51
261040,note_off,,,,,80,0,1,,,0,,,71,64
261040,note_on,,,,,0,0,1,,,0,,,69,55
261042,note_off,,,,,162,0,2,,,0,,,57,64
261042,note_off,,,,,0,0,2,,,0,,,59,64
261042,note_off,,,,,0,0,2,,,0,,,51,64
261120,note_on,,,,,0,0,1,,,0,,,76,59
261120,note_off,,,,,80,0,1,,,0,,,69,64
261120,note_on,,,,,78,0,2,,,0,,,56,56
261120,note_on,,,,,0,0,2,,,0,,,59,56
261120,note_on,,,,,0,0,2,,,0,,,52,56
261200,note_off,,,,,80,0,1,,,0,,,76,64
261200,note_on,,,,,0,0,1,,,0,,,71,50
261240,set_tempo,,,,,600,1,0,434783,,,,,,
261280,note_on,,,,,0,0,1,,,0,,,68,41
261280,note_off,,,,,80,0,1,,,0,,,71,64
261300,note_off,,,,,0,0,2,,,0,,,56,64
261300,note_off,,,,,180,0,2,,,0,,,52,64
261300,note_off,,,,,0,0,2,,,0,,,59,64
261340,set_tempo,,,,,100,1,0,451128,,,,,,
261360,note_off,,,,,80,0,1,,,0,,,68,64
261360,note_on,,,,,0,0,1,,,0,,,64,40
261440,note_on,,,,,0,0,1,,,0,,,59,46
261440,note_off,,,,,80,0,1,,,0,,,64,64
261520,note_off,,,,,80,0,1,,,0,,,59,64
261520,set_tempo,,,,,180,1,0,465116,,,,,,
261520,note_on,,,,,0,0,1,,,0,,,56,51
261600,note_off,,,,,80,0,1,,,0,,,56,64
261600,note_on,,,,,300,0,2,,,0,,,52,52
261620,set_tempo,,,,,100,1,0,483871,,,,,,
261680,note_off,,,,,80,0,2,,,0,,,52,64
261680,note_on,,,,,0,0,2,,,0,,,50,51
261700,set_tempo,,,,,80,1,0,512821,,,,,,
261760,note_on,,,,,0,0,2,,,0,,,49,47
261760,note_off,,,,,80,0,2,,,0,,,50,64
261780,set_tempo,,,,,80,1,0,545455,,,,,,
261800,set_tempo,,,,,20,1,0,550459,,,,,,
261840,note_on,,,,,0,0,2,,,0,,,50,44
261840,note_off,,,,,80,0,2,,,0,,,49,64
261860,set_tempo,,,,,60,1,0,566038,,,,,,
261920,note_off,,,,,80,0,2,,,0,,,50,64
261920,note_on,,,,,0,0,2,,,0,,,49,42
261940,set_tempo,,,,,80,1,0,600000,,,,,,
262000,note_on,,,,,0,0,2,,,0,,,47,42
262000,set_tempo,,,,,60,1,0,631579,,,,,,
262000,note_off,,,,,80,0,2,,,0,,,49,64
262020,set_tempo,,,,,20,1,0,638298,,,,,,
262080,set_tempo,,,,,60,1,0,697674,,,,,,
262080,note_off,,,,,80,0,2,,,0,,,47,64
262080,note_on,,,,,0,0,2,,,0,,,45,45
262120,set_tempo,,,,,40,1,0,555556,,,,,,
262160,note_off,,,,,80,0,2,,,0,,,45,64
262160,note_on,,,,,0,0,2,,,0,,,49,40
262180,set_tempo,,,,,60,1,0,508475,,,,,,
262240,note_off,,,,,80,0,2,,,0,,,49,64
262240,note_on,,,,,0,0,2,,,0,,,52,34
262240,set_tempo,,,,,60,1,0,476190,,,,,,
262320,note_on,,,,,0,0,2,,,0,,,57,34
262320,note_off,,,,,80,0,2,,,0,,,52,64
262340,set_tempo,,,,,100,1,0,454545,,,,,,
262400,note_off,,,,,80,0,2,,,0,,,57,64
262400,note_on,,,,,0,0,2,,,0,,,61,38
262440,set_tempo,,,,,100,1,0,444444,,,,,,
262480,note_on,,,,,0,0,2,,,0,,,64,44
262480,note_off,,,,,80,0,2,,,0,,,61,64
262560,note_on,,,,,0,0,2,,,0,,,57,50
262560,note_on,,,,,960,0,1,,,0,,,76,47
262560,note_off,,,,,80,0,2,,,0,,,64,64
262580,set_tempo,,,,,140,1,0,434783,,,,,,
262640,note_on,,,,,0,0,2,,,0,,,61,41
262640,note_off,,,,,80,0,2,,,0,,,57,64
262720,note_on,,,,,0,0,2,,,0,,,64,35
262720,note_off,,,,,80,0,2,,,0,,,61,64
262740,note_off,,,,,180,0,1,,,0,,,76,64
262780,set_tempo,,,,,200,1,0,428571,,,,,,
262800,note_on,,,,,60,0,1,,,0,,,76,45
262800,note_off,,,,,80,0,2,,,0,,,64,64
262800,note_on,,,,,0,0,2,,,0,,,57,40
262880,note_off,,,,,80,0,2,,,0,,,57,64
262880,note_on,,,,,0,0,2,,,0,,,61,37
262960,note_off,,,,,80,0,2,,,0,,,61,64
262960,note_on,,,,,0,0,2,,,0,,,64,35
262980,note_off,,,,,180,0,1,,,0,,,76,64
263000,set_tempo,,,,,220,1,0,500000,,,,,,
263040,note_on,,,,,0,0,2,,,0,,,56,49
263040,note_on,,,,,60,0,1,,,0,,,76,56
263040,note_off,,,,,80,0,2,,,0,,,64,64
263040,control_change,,,,,0,0,2,,,0,64,127,,
263060,set_tempo,,,,,60,1,0,425532,,,,,,
263120,note_on,,,,,0,0,2,,,0,,,59,41
263120,note_off,,,,,80,0,2,,,0,,,56,64
263180,set_tempo,,,,,120,1,0,416667,,,,,,
263200,note_off,,,,,80,0,2,,,0,,,59,64
263200,note_on,,,,,0,0,2,,,0,,,64,35
263280,note_on,,,,,0,0,2,,,0,,,56,38
263280,note_off,,,,,80,0,2,,,0,,,64,64
263360,note_off,,,,,80,0,2,,,0,,,56,64
263360,note_on,,,,,0,0,2,,,0,,,59,41
263420,set_tempo,,,,,240,1,0,408163,,,,,,
263440,note_off,,,,,80,0,2,,,0,,,59,64
263440,note_on,,,,,0,0,2,,,0,,,64,45
263520,control_change,,,,,0,0,2,,,0,64,0,,
263520,note_on,,,,,0,0,1,,,0,,,76,59
263520,note_on,,,,,0,0,2,,,0,,,59,48
263520,note_off,,,,,480,0,1,,,0,,,76,64
263520,note_off,,,,,80,0,2,,,0,,,64,64
263600,note_off,,,,,80,0,2,,,0,,,59,64
263600,note_on,,,,,0,0,2,,,0,,,62,42
263610,note_off,,,,,90,0,1,,,0,,,76,64
263640,note_on,,,,,30,0,1,,,0,,,76,42
263680,note_off,,,,,80,0,2,,,0,,,62,64
263680,note_on,,,,,0,0,2,,,0,,,64,37
263730,note_off,,,,,90,0,1,,,0,,,76,64
263760,note_on,,,,,0,0,2,,,0,,,59,40
263760,note_on,,,,,30,0,1,,,0,,,78,51
263760,note_off,,,,,80,0,2,,,0,,,64,64
263840,note_on,,,,,0,0,2,,,0,,,62,34
263840,note_off,,,,,80,0,2,,,0,,,59,64
263850,note_off,,,,,90,0,1,,,0,,,78,64
263880,note_on,,,,,30,0,1,,,0,,,80,58
263920,note_off,,,,,80,0,2,,,0,,,62,64
263920,note_on,,,,,0,0,2,,,0,,,64,35
263970,note_off,,,,,90,0,1,,,0,,,80,64
264000,note_on,,,,,30,0,1,,,0,,,81,62
264000,control_change,,,,,0,0,2,,,0,64,127,,
264000,note_off,,,,,80,0,2,,,0,,,64,64
264000,note_on,,,,,0,0,2,,,0,,,57,44
264080,note_on,,,,,0,0,2,,,0,,,61,41
264080,note_off,,,,,80,0,2,,,0,,,57,64
264160,note_on,,,,,0,0,2,,,0,,,64,35
264160,note_off,,,,,80,0,2,,,0,,,61,64
264240,note_off,,,,,80,0,2,,,0,,,64,64
264240,note_on,,,,,0,0,2,,,0,,,57,46
264300,set_tempo,,,,,880,1,0,416667,,,,,,
264320,note_off,,,,,80,0,2,,,0,,,57,64
264320,note_on,,,,,0,0,2,,,0,,,61,41
264400,note_off,,,,,80,0,2,,,0,,,61,64
264400,note_on,,,,,0,0,2,,,0,,,64,37
264420,note_off,,,,,420,0,1,,,0,,,81,64
264480,note_off,,,,,80,0,2,,,0,,,64,64
264480,note_on,,,,,60,0,1,,,0,,,81,60
264480,control_change,,,,,0,0,2,,,0,64,0,,
264480,note_on,,,,,0,0,1,,,0,,,69,60
264480,note_on,,,,,0,0,2,,,0,,,55,50
264480,set_tempo,,,,,180,1,0,422535,,,,,,
264560,note_off,,,,,80,0,2,,,0,,,55,64
264560,note_on,,,,,0,0,2,,,0,,,57,41
264570,note_off,,,,,0,0,1,,,0,,,81,64
264570,note_off,,,,,90,0,1,,,0,,,69,64
264600,note_on,,,,,0,0,1,,,0,,,69,44
264600,note_on,,,,,30,0,1,,,0,,,81,44
264640,note_on,,,,,0,0,2,,,0,,,64,37
264640,note_off,,,,,80,0,2,,,0,,,57,64
264690,note_off,,,,,0,0,1,,,0,,,81,64
264690,note_off,,,,,90,0,1,,,0,,,69,64
264720,note_off,,,,,80,0,2,,,0,,,64,64
264720,note_on,,,,,0,0,1,,,0,,,71,51
264720,note_on,,,,,30,0,1,,,0,,,83,51
264720,note_on,,,,,0,0,2,,,0,,,55,39
264760,set_tempo,,,,,280,1,0,434783,,,,,,
264800,note_on,,,,,0,0,2,,,0,,,57,41
264800,note_off,,,,,80,0,2,,,0,,,55,64
264810,note_off,,,,,90,0,1,,,0,,,71,64
264810,note_off,,,,,0,0,1,,,0,,,83,64
264840,note_on,,,,,0,0,1,,,0,,,73,58
264840,note_on,,,,,30,0,1,,,0,,,85,58
264880,note_off,,,,,80,0,2,,,0,,,57,64
264880,note_on,,,,,0,0,2,,,0,,,64,45
264920,set_tempo,,,,,160,1,0,451128,,,,,,
264930,note_off,,,,,0,0,1,,,0,,,85,64
264930,note_off,,,,,90,0,1,,,0,,,73,64
264960,control_change,,,,,0,0,2,,,0,64,127,,
264960,note_on,,,,,30,0,1,,,0,,,86,61
264960,note_on,,,,,0,0,1,,,0,,,74,61
264960,note_off,,,,,80,0,2,,,0,,,64,64
264960,note_on,,,,,0,0,2,,,0,,,54,50
265040,note_off,,,,,80,0,2,,,0,,,54,64
265040,note_on,,,,,0,0,2,,,0,,,57,41
265120,note_off,,,,,80,0,2,,,0,,,57,64
265120,note_on,,,,,0,0,2,,,0,,,62,35
265140,set_tempo,,,,,220,1,0,434783,,,,,,
265200,note_on,,,,,0,0,2,,,0,,,54,43
265200,note_off,,,,,80,0,2,,,0,,,62,64
265280,note_off,,,,,80,0,2,,,0,,,54,64
265280,note_on,,,,,0,0,2,,,0,,,57,41
265340,set_tempo,,,,,200,1,0,425532,,,,,,
265360,note_off,,,,,80,0,2,,,0,,,57,64
265360,note_on,,,,,0,0,2,,,0,,,62,39
265380,note_off,,,,,0,0,1,,,0,,,86,64
265380,note_off,,,,,420,0,1,,,0,,,74,64
265440,note_off,,,,,80,0,2,,,0,,,62,64
265440,note_on,,,,,0,0,1,,,0,,,78,59
265440,note_on,,,,,60,0,1,,,0,,,90,59
265440,control_change,,,,,0,0,2,,,0,64,0,,
265440,note_on,,,,,0,0,2,,,0,,,50,48
265520,note_on,,,,,0,0,2,,,0,,,54,41
265520,note_off,,,,,80,0,2,,,0,,,50,64
265600,note_off,,,,,80,0,2,,,0,,,54,64
265600,note_on,,,,,0,0,2,,,0,,,57,35
265650,note_off,,,,,0,0,1,,,0,,,90,64
265650,note_off,,,,,210,0,1,,,0,,,78,64
265680,note_on,,,,,30,0,1,,,0,,,90,56
265680,note_off,,,,,80,0,2,,,0,,,57,64
265680,note_on,,,,,0,0,2,,,0,,,50,39
265680,note_on,,,,,0,0,1,,,0,,,78,56
265760,note_off,,,,,80,0,2,,,0,,,50,64
265760,note_on,,,,,0,0,2,,,0,,,54,41
265840,note_off,,,,,80,0,2,,,0,,,54,64
265840,note_on,,,,,0,0,2,,,0,,,57,46
265890,note_off,,,,,210,0,1,,,0,,,78,64
265890,note_off,,,,,0,0,1,,,0,,,90,64
265920,note_on,,,,,0,0,2,,,0,,,49,49
265920,control_change,,,,,0,0,2,,,0,64,127,,
265920,note_on,,,,,0,0,1,,,0,,,76,57
265920,note_on,,,,,30,0,1,,,0,,,88,57
265920,note_off,,,,,80,0,2,,,0,,,57,64
265960,set_tempo,,,,,620,1,0,437956,,,,,,
266000,note_off,,,,,80,0,2,,,0,,,49,64
266000,note_on,,,,,0,0,2,,,0,,,52,41
266080,note_off,,,,,80,0,2,,,0,,,52,64
266080,note_on,,,,,0,0,2,,,0,,,57,35
266140,control_change,,,,,60,0,2,,,0,64,0,,
266160,note_off,,,,,240,0,1,,,0,,,76,64
266160,note_on,,,,,0,0,1,,,0,,,78,49
266160,note_on,,,,,0,0,1,,,0,,,90,49
266160,note_off,,,,,20,0,2,,,0,,,57,64
266160,note_on,,,,,0,0,2,,,0,,,47,41
266160,control_change,,,,,0,0,2,,,0,64,127,,
266160,note_off,,,,,0,0,1,,,0,,,88,64
266240,note_off,,,,,80,0,2,,,0,,,47,64
266240,note_on,,,,,0,0,2,,,0,,,50,36
266320,note_off,,,,,80,0,2,,,0,,,50,64
266320,set_tempo,,,,,360,1,0,451128,,,,,,
266320,note_on,,,,,0,0,2,,,0,,,57,35
266380,control_change,,,,,60,0,2,,,0,64,0,,
266380,control_change,,,,,0,0,2,,,0,64,0,,
266400,control_change,,,,,0,0,2,,,0,64,127,,
266400,note_on,,,,,0,0,2,,,0,,,49,43
266400,note_off,,,,,20,0,2,,,0,,,57,64
266400,note_on,,,,,0,0,1,,,0,,,76,54
266400,note_on,,,,,0,0,1,,,0,,,88,54
266400,note_off,,,,,240,0,1,,,0,,,78,64
266400,note_off,,,,,0,0,1,,,0,,,90,64
266480,note_on,,,,,0,0,2,,,0,,,52,41
266480,note_off,,,,,80,0,2,,,0,,,49,64
266560,note_on,,,,,0,0,2,,,0,,,57,35
266560,note_off,,,,,80,0,2,,,0,,,52,64
266600,set_tempo,,,,,280,1,0,468750,,,,,,
266620,control_change,,,,,60,0,2,,,0,64,0,,
266620,control_change,,,,,0,0,2,,,0,64,0,,
266640,note_on,,,,,0,0,1,,,0,,,85,47
266640,note_off,,,,,0,0,1,,,0,,,88,64
266640,control_change,,,,,0,0,2,,,0,64,127,,
266640,note_on,,,,,0,0,2,,,0,,,45,34
266640,note_off,,,,,240,0,1,,,0,,,76,64
266640,note_on,,,,,0,0,1,,,0,,,73,47
266640,note_off,,,,,20,0,2,,,0,,,57,64
266720,note_off,,,,,80,0,2,,,0,,,45,64
266720,note_on,,,,,0,0,2,,,0,,,52,37
266800,note_off,,,,,80,0,2,,,0,,,52,64
266800,note_on,,,,,0,0,2,,,0,,,57,43
266860,control_change,,,,,60,0,2,,,0,64,0,,
266880,note_off,,,,,20,0,2,,,0,,,57,64
266880,note_on,,,,,0,0,1,,,0,,,71,49
266880,note_on,,,,,0,0,1,,,0,,,83,49
266880,note_off,,,,,0,0,1,,,0,,,85,64
266880,note_off,,,,,240,0,1,,,0,,,73,64
266880,note_on,,,,,0,0,2,,,0,,,52,49
266890,control_change,,,,,10,0,2,,,0,64,0,,
266910,control_change,,,,,20,0,2,,,0,64,127,,
266960,note_on,,,,,0,0,2,,,0,,,56,41
266960,note_off,,,,,50,0,2,,,0,,,52,64
267040,note_on,,,,,0,0,2,,,0,,,59,35
267040,note_off,,,,,80,0,2,,,0,,,56,64
267100,set_tempo,,,,,500,1,0,487805,,,,,,
267120,note_off,,,,,80,0,2,,,0,,,59,64
267120,note_on,,,,,0,0,2,,,0,,,64,38
267200,note_on,,,,,0,0,2,,,0,,,63,36
267200,note_off,,,,,80,0,2,,,0,,,64,64
267250,control_change,,,,,50,0,2,,,0,64,0,,
267280,note_off,,,,,30,0,2,,,0,,,63,64
267280,note_on,,,,,0,0,2,,,0,,,62,35
267300,note_off,,,,,0,0,1,,,0,,,83,64
267300,note_off,,,,,420,0,1,,,0,,,71,64
267360,note_on,,,,,60,0,1,,,0,,,76,42
267360,note_on,,,,,0,0,2,,,0,,,61,40
267360,note_off,,,,,80,0,2,,,0,,,62,64
267440,set_tempo,,,,,340,1,0,483871,,,,,,
267440,note_off,,,,,80,0,2,,,0,,,61,64
267440,note_on,,,,,0,0,2,,,0,,,64,31
267520,note_off,,,,,80,0,2,,,0,,,64,64
267520,note_on,,,,,0,0,2,,,0,,,69,25
267540,note_off,,,,,180,0,1,,,0,,,76,64
267600,note_off,,,,,80,0,2,,,0,,,69,64
267600,note_on,,,,,60,0,1,,,0,,,76,36
267600,note_on,,,,,0,0,2,,,0,,,61,30
267680,note_on,,,,,0,0,2,,,0,,,64,27
267680,note_off,,,,,80,0,2,,,0,,,61,64
267760,note_on,,,,,0,0,2,,,0,,,69,25
267760,note_off,,,,,80,0,2,,,0,,,64,64
267780,note_off,,,,,180,0,1,,,0,,,76,64
267840,note_on,,,,,0,0,2,,,0,,,59,39
267840,control_change,,,,,0,0,2,,,0,64,127,,
267840,note_off,,,,,80,0,2,,,0,,,69,64
267840,note_on,,,,,60,0,1,,,0,,,76,39
267920,note_on,,,,,0,0,2,,,0,,,62,31
267920,note_off,,,,,80,0,2,,,0,,,59,64
268000,note_off,,,,,80,0,2,,,0,,,62,64
268000,set_tempo,,,,,560,1,0,465116,,,,,,
268000,note_on,,,,,0,0,2,,,0,,,68,25
268080,note_on,,,,,0,0,2,,,0,,,59,28
268080,note_off,,,,,80,0,2,,,0,,,68,64
268160,note_off,,,,,80,0,2,,,0,,,59,64
268160,note_on,,,,,0,0,2,,,0,,,62,31
268240,note_off,,,,,80,0,2,,,0,,,62,64
268240,note_on,,,,,0,0,2,,,0,,,68,35
268320,note_on,,,,,0,0,1,,,0,,,76,43
268320,note_off,,,,,480,0,1,,,0,,,76,64
268320,note_on,,,,,0,0,2,,,0,,,59,38
268320,control_change,,,,,0,0,2,,,0,64,0,,
268320,note_off,,,,,80,0,2,,,0,,,68,64
268400,note_on,,,,,0,0,2,,,0,,,62,32
268400,set_tempo,,,,,400,1,0,451128,,,,,,
268400,note_off,,,,,80,0,2,,,0,,,59,64
268410,note_off,,,,,90,0,1,,,0,,,76,64
268440,note_on,,,,,30,0,1,,,0,,,76,32
268480,note_off,,,,,80,0,2,,,0,,,62,64
268480,note_on,,,,,0,0,2,,,0,,,67,27
268530,note_off,,,,,90,0,1,,,0,,,76,64
268560,note_on,,,,,0,0,2,,,0,,,59,30
268560,note_on,,,,,30,0,1,,,0,,,78,36
268560,note_off,,,,,80,0,2,,,0,,,67,64
268640,note_on,,,,,0,0,2,,,0,,,62,24
268640,note_off,,,,,80,0,2,,,0,,,59,64
268650,note_off,,,,,90,0,1,,,0,,,78,64
268680,note_on,,,,,30,0,1,,,0,,,79,41
268720,note_on,,,,,0,0,2,,,0,,,67,25
268720,note_off,,,,,80,0,2,,,0,,,62,64
268770,note_off,,,,,90,0,1,,,0,,,79,64
268800,control_change,,,,,0,0,2,,,0,64,127,,
268800,note_on,,,,,30,0,1,,,0,,,78,43
268800,note_on,,,,,0,0,2,,,0,,,58,34
268800,note_off,,,,,80,0,2,,,0,,,67,64
268880,note_off,,,,,80,0,2,,,0,,,58,64
268880,note_on,,,,,0,0,2,,,0,,,61,31
268960,note_on,,,,,0,0,2,,,0,,,66,25
268960,note_off,,,,,80,0,2,,,0,,,61,64
269040,note_off,,,,,80,0,2,,,0,,,66,64
269040,note_on,,,,,0,0,2,,,0,,,58,36
269120,set_tempo,,,,,720,1,0,468750,,,,,,
269120,note_off,,,,,80,0,2,,,0,,,58,64
269120,note_on,,,,,0,0,2,,,0,,,61,31
269200,note_on,,,,,0,0,2,,,0,,,66,27
269200,note_off,,,,,80,0,2,,,0,,,61,64
269220,note_off,,,,,420,0,1,,,0,,,78,64
269280,note_on,,,,,0,0,2,,,0,,,52,40
269280,control_change,,,,,0,0,2,,,0,64,0,,
269280,note_off,,,,,80,0,2,,,0,,,66,64
269280,note_on,,,,,0,0,1,,,0,,,66,45
269280,note_on,,,,,60,0,1,,,0,,,78,45
269300,set_tempo,,,,,180,1,0,483871,,,,,,
269360,note_off,,,,,80,0,2,,,0,,,52,64
269360,note_on,,,,,0,0,2,,,0,,,54,31
269370,note_off,,,,,90,0,1,,,0,,,66,64
269370,note_off,,,,,0,0,1,,,0,,,78,64
269400,note_on,,,,,30,0,1,,,0,,,78,37
269400,note_on,,,,,0,0,1,,,0,,,66,37
269440,note_on,,,,,0,0,2,,,0,,,61,27
269440,note_off,,,,,80,0,2,,,0,,,54,64
269490,note_off,,,,,0,0,1,,,0,,,78,64
269490,note_off,,,,,90,0,1,,,0,,,66,64
269520,note_off,,,,,80,0,2,,,0,,,61,64
269520,note_on,,,,,0,0,2,,,0,,,52,29
269520,note_on,,,,,0,0,1,,,0,,,68,46
269520,note_on,,,,,30,0,1,,,0,,,80,46
269600,set_tempo,,,,,300,1,0,465116,,,,,,
269600,note_off,,,,,80,0,2,,,0,,,52,64
269600,note_on,,,,,0,0,2,,,0,,,54,31
269610,note_off,,,,,0,0,1,,,0,,,80,64
269610,note_off,,,,,90,0,1,,,0,,,68,64
269640,note_on,,,,,30,0,1,,,0,,,82,50
269640,note_on,,,,,0,0,1,,,0,,,70,50
269680,note_off,,,,,80,0,2,,,0,,,54,64
269680,note_on,,,,,0,0,2,,,0,,,61,35
269730,note_off,,,,,90,0,1,,,0,,,70,64
269730,note_off,,,,,0,0,1,,,0,,,82,64
269760,note_on,,,,,0,0,1,,,0,,,71,53
269760,note_on,,,,,30,0,1,,,0,,,83,53
269760,note_on,,,,,0,0,2,,,0,,,50,40
269760,note_off,,,,,80,0,2,,,0,,,61,64
269760,control_change,,,,,0,0,2,,,0,64,127,,
269840,note_on,,,,,0,0,2,,,0,,,54,31
269840,note_off,,,,,80,0,2,,,0,,,50,64
269920,note_on,,,,,0,0,2,,,0,,,59,32
269920,note_off,,,,,80,0,2,,,0,,,54,64
270000,note_on,,,,,0,0,2,,,0,,,50,38
270000,note_off,,,,,80,0,2,,,0,,,59,64
270080,note_on,,,,,0,0,2,,,0,,,54,31
270080,note_off,,,,,80,0,2,,,0,,,50,64
270160,note_on,,,,,0,0,2,,,0,,,59,29
270160,note_off,,,,,80,0,2,,,0,,,54,64
270180,note_off,,,,,420,0,1,,,0,,,71,64
270180,note_off,,,,,0,0,1,,,0,,,83,64
270240,note_on,,,,,0,0,2,,,0,,,52,38
270240,note_on,,,,,60,0,1,,,0,,,85,53
270240,note_on,,,,,0,0,1,,,0,,,73,53
270240,control_change,,,,,0,0,2,,,0,64,0,,
270240,note_off,,,,,80,0,2,,,0,,,59,64
270320,note_on,,,,,0,0,2,,,0,,,61,31
270320,note_off,,,,,80,0,2,,,0,,,52,64
270400,note_on,,,,,0,0,2,,,0,,,64,30
270400,note_off,,,,,80,0,2,,,0,,,61,64
270420,set_tempo,,,,,820,1,0,454545,,,,,,
270450,note_off,,,,,0,0,1,,,0,,,85,64
270450,note_off,,,,,210,0,1,,,0,,,73,64
270480,note_off,,,,,80,0,2,,,0,,,64,64
270480,note_on,,,,,0,0,1,,,0,,,73,48
270480,note_on,,,,,30,0,1,,,0,,,85,48
270480,note_on,,,,,0,0,2,,,0,,,52,36
270560,note_off,,,,,80,0,2,,,0,,,52,64
270560,note_on,,,,,0,0,2,,,0,,,61,41
270640,note_off,,,,,80,0,2,,,0,,,61,64
270640,note_on,,,,,0,0,2,,,0,,,64,45
270690,note_off,,,,,210,0,1,,,0,,,73,64
270690,note_off,,,,,0,0,1,,,0,,,85,64
270700,set_tempo,,,,,280,1,0,441176,,,,,,
270720,control_change,,,,,0,0,2,,,0,64,127,,
270720,note_off,,,,,80,0,2,,,0,,,64,64
270720,note_on,,,,,30,0,1,,,0,,,86,57
270720,note_on,,,,,0,0,1,,,0,,,74,57
270720,note_on,,,,,0,0,2,,,0,,,54,49
270800,note_on,,,,,0,0,2,,,0,,,62,45
270800,note_off,,,,,80,0,2,,,0,,,54,64
270880,note_on,,,,,0,0,2,,,0,,,66,42
270880,note_off,,,,,80,0,2,,,0,,,62,64
270940,control_change,,,,,60,0,2,,,0,64,0,,
270960,note_off,,,,,20,0,2,,,0,,,66,64
270960,control_change,,,,,0,0,2,,,0,64,127,,
270960,note_on,,,,,0,0,1,,,0,,,73,61
270960,note_on,,,,,0,0,1,,,0,,,85,61
270960,note_off,,,,,0,0,1,,,0,,,86,64
270960,note_off,,,,,240,0,1,,,0,,,74,64
270960,note_on,,,,,0,0,2,,,0,,,54,45
271040,note_off,,,,,80,0,2,,,0,,,54,64
271040,note_on,,,,,0,0,2,,,0,,,64,49
271120,note_on,,,,,0,0,2,,,0,,,67,54
271120,note_off,,,,,80,0,2,,,0,,,64,64
271180,control_change,,,,,0,0,2,,,0,64,0,,
271180,control_change,,,,,60,0,2,,,0,64,0,,
271200,note_off,,,,,20,0,2,,,0,,,67,64
271200,control_change,,,,,0,0,2,,,0,64,127,,
271200,note_on,,,,,0,0,2,,,0,,,54,54
271200,note_off,,,,,240,0,1,,,0,,,73,64
271200,note_off,,,,,0,0,1,,,0,,,85,64
271200,note_on,,,,,0,0,1,,,0,,,83,49
271200,note_on,,,,,0,0,1,,,0,,,71,49
271280,note_off,,,,,80,0,2,,,0,,,54,64
271280,note_on,,,,,0,0,2,,,0,,,62,53
271360,note_on,,,,,0,0,2,,,0,,,66,46
271360,note_off,,,,,80,0,2,,,0,,,62,64
271420,control_change,,,,,0,0,2,,,0,64,0,,
271420,control_change,,,,,60,0,2,,,0,64,0,,
271440,note_on,,,,,0,0,1,,,0,,,70,46
271440,note_on,,,,,0,0,1,,,0,,,82,46
271440,note_on,,,,,0,0,2,,,0,,,54,41
271440,control_change,,,,,0,0,2,,,0,64,127,,
271440,note_off,,,,,240,0,1,,,0,,,71,64
271440,note_off,,,,,0,0,1,,,0,,,83,64
271440,note_off,,,,,20,0,2,,,0,,,66,64
271520,note_on,,,,,0,0,2,,,0,,,61,35
271520,note_off,,,,,80,0,2,,,0,,,54,64
271600,note_on,,,,,0,0,2,,,0,,,64,33
271600,note_off,,,,,80,0,2,,,0,,,61,64
271660,control_change,,,,,60,0,2,,,0,64,0,,
271680,note_off,,,,,20,0,2,,,0,,,64,64
271680,note_off,,,,,240,0,1,,,0,,,70,64
271680,note_off,,,,,0,0,1,,,0,,,82,64
271680,note_on,,,,,0,0,2,,,0,,,59,39
271680,note_on,,,,,0,0,1,,,0,,,83,40
271680,note_on,,,,,0,0,1,,,0,,,71,40
271690,control_change,,,,,10,0,2,,,0,64,0,,
271710,control_change,,,,,20,0,2,,,0,64,127,,
271760,note_off,,,,,50,0,2,,,0,,,59,64
271760,note_on,,,,,0,0,2,,,0,,,62,35
271840,note_off,,,,,80,0,2,,,0,,,62,64
271840,note_on,,,,,0,0,2,,,0,,,66,32
271860,note_off,,,,,180,0,1,,,0,,,71,64
271860,note_off,,,,,0,0,1,,,0,,,83,64
271920,note_on,,,,,60,0,1,,,0,,,71,34
271920,note_off,,,,,80,0,2,,,0,,,66,64
272000,note_on,,,,,0,0,1,,,0,,,74,31
272000,note_off,,,,,80,0,1,,,0,,,71,64
272050,control_change,,,,,130,0,2,,,0,64,0,,
272080,note_on,,,,,0,0,1,,,0,,,78,29
272080,note_off,,,,,80,0,1,,,0,,,74,64
272160,note_on,,,,,110,0,2,,,0,,,66,51
272160,note_on,,,,,0,0,1,,,0,,,71,50
272160,note_off,,,,,80,0,1,,,0,,,78,64
272240,note_on,,,,,0,0,1,,,0,,,74,44
272240,note_off,,,,,80,0,1,,,0,,,71,64
272280,set_tempo,,,,,1580,1,0,431655,,,,,,
272320,note_off,,,,,80,0,1,,,0,,,74,64
272320,note_on,,,,,0,0,1,,,0,,,78,35
272340,note_off,,,,,180,0,2,,,0,,,66,64
272400,note_on,,,,,60,0,2,,,0,,,66,52
272400,note_off,,,,,80,0,1,,,0,,,78,64
272400,note_on,,,,,0,0,1,,,0,,,71,40
272480,note_on,,,,,0,0,1,,,0,,,74,41
272480,note_off,,,,,80,0,1,,,0,,,71,64
272560,note_on,,,,,0,0,1,,,0,,,78,35
272560,note_off,,,,,80,0,1,,,0,,,74,64
272580,note_off,,,,,180,0,2,,,0,,,66,64
272600,set_tempo,,,,,320,1,0,500000,,,,,,
272640,note_on,,,,,0,0,2,,,0,,,66,56
272640,note_on,,,,,0,0,1,,,0,,,70,49
272640,control_change,,,,,60,0,2,,,0,64,127,,
272640,note_off,,,,,80,0,1,,,0,,,78,64
272660,set_tempo,,,,,60,1,0,419580,,,,,,
272720,note_on,,,,,0,0,1,,,0,,,73,41
272720,note_off,,,,,80,0,1,,,0,,,70,64
272800,note_off,,,,,80,0,1,,,0,,,73,64
272800,note_on,,,,,0,0,1,,,0,,,78,35
272880,note_off,,,,,80,0,1,,,0,,,78,64
272880,note_on,,,,,0,0,1,,,0,,,70,38
272900,set_tempo,,,,,240,1,0,408163,,,,,,
272960,note_off,,,,,80,0,1,,,0,,,70,64
272960,note_on,,,,,0,0,1,,,0,,,73,41
273040,note_off,,,,,80,0,1,,,0,,,73,64
273040,note_on,,,,,0,0,1,,,0,,,78,45
273120,control_change,,,,,0,0,2,,,0,64,0,,
273120,note_on,,,,,0,0,2,,,0,,,66,62
273120,note_off,,,,,480,0,2,,,0,,,66,64
273120,note_on,,,,,0,0,1,,,0,,,73,48
273120,note_off,,,,,80,0,1,,,0,,,78,64
273200,note_off,,,,,80,0,1,,,0,,,73,64
273200,note_on,,,,,0,0,1,,,0,,,76,42
273210,note_off,,,,,90,0,2,,,0,,,66,64
273240,note_on,,,,,30,0,2,,,0,,,66,54
273280,note_on,,,,,0,0,1,,,0,,,78,37
273280,note_off,,,,,80,0,1,,,0,,,76,64
273330,note_off,,,,,90,0,2,,,0,,,66,64
273360,note_on,,,,,0,0,1,,,0,,,73,40
273360,note_off,,,,,80,0,1,,,0,,,78,64
273360,note_on,,,,,30,0,2,,,0,,,68,58
273440,note_on,,,,,0,0,1,,,0,,,76,34
273440,note_off,,,,,80,0,1,,,0,,,73,64
273450,note_off,,,,,90,0,2,,,0,,,68,64
273480,note_on,,,,,30,0,2,,,0,,,70,62
273520,note_off,,,,,80,0,1,,,0,,,76,64
273520,note_on,,,,,0,0,1,,,0,,,78,35
273570,note_off,,,,,90,0,2,,,0,,,70,64
273600,control_change,,,,,30,0,2,,,0,64,127,,
273600,note_off,,,,,80,0,1,,,0,,,78,64
273600,note_on,,,,,0,0,1,,,0,,,74,44
273600,note_on,,,,,0,0,2,,,0,,,71,69
273680,note_off,,,,,80,0,1,,,0,,,74,64
273680,note_on,,,,,0,0,1,,,0,,,78,44
273760,note_on,,,,,0,0,1,,,0,,,74,35
273760,note_off,,,,,80,0,1,,,0,,,78,64
273840,note_on,,,,,0,0,1,,,0,,,71,46
273840,note_off,,,,,80,0,1,,,0,,,74,64
273920,set_tempo,,,,,1020,1,0,416667,,,,,,
273920,note_off,,,,,80,0,1,,,0,,,71,64
273920,note_on,,,,,0,0,1,,,0,,,74,44
274000,note_off,,,,,80,0,1,,,0,,,74,64
274000,note_on,,,,,0,0,1,,,0,,,78,37
274020,note_off,,,,,420,0,2,,,0,,,71,64
274080,note_on,,,,,0,0,1,,,0,,,78,50
274080,note_on,,,,,0,0,2,,,0,,,59,54
274080,control_change,,,,,60,0,2,,,0,64,0,,
274080,note_off,,,,,80,0,1,,,0,,,78,64
274120,set_tempo,,,,,200,1,0,431655,,,,,,
274160,note_on,,,,,0,0,1,,,0,,,81,41
274160,note_off,,,,,80,0,1,,,0,,,78,64
274170,note_off,,,,,90,0,2,,,0,,,59,64
274200,note_on,,,,,30,0,2,,,0,,,59,47
274240,note_on,,,,,0,0,1,,,0,,,83,37
274240,note_off,,,,,80,0,1,,,0,,,81,64
274290,note_off,,,,,90,0,2,,,0,,,59,64
274320,note_off,,,,,80,0,1,,,0,,,83,64
274320,note_on,,,,,0,0,1,,,0,,,78,39
274320,note_on,,,,,30,0,2,,,0,,,61,55
274340,set_tempo,,,,,220,1,0,441176,,,,,,
274400,note_off,,,,,80,0,1,,,0,,,78,64
274400,note_on,,,,,0,0,1,,,0,,,81,41
274410,note_off,,,,,90,0,2,,,0,,,61,64
274440,note_on,,,,,30,0,2,,,0,,,63,63
274480,note_on,,,,,0,0,1,,,0,,,83,45
274480,note_off,,,,,80,0,1,,,0,,,81,64
274530,note_off,,,,,90,0,2,,,0,,,63,64
274540,set_tempo,,,,,200,1,0,451128,,,,,,
274560,note_on,,,,,0,0,2,,,0,,,64,66
274560,note_on,,,,,0,0,1,,,0,,,76,50
274560,note_off,,,,,80,0,1,,,0,,,83,64
274560,control_change,,,,,30,0,2,,,0,64,127,,
274640,note_off,,,,,80,0,1,,,0,,,76,64
274640,note_on,,,,,0,0,1,,,0,,,79,41
274720,note_on,,,,,0,0,1,,,0,,,83,35
274720,note_off,,,,,80,0,1,,,0,,,79,64
274740,set_tempo,,,,,200,1,0,434783,,,,,,
274800,note_on,,,,,0,0,1,,,0,,,76,51
274800,note_off,,,,,80,0,1,,,0,,,83,64
274880,note_off,,,,,80,0,1,,,0,,,76,64
274880,note_on,,,,,0,0,1,,,0,,,79,46
274960,note_off,,,,,80,0,1,,,0,,,79,64
274960,note_on,,,,,0,0,1,,,0,,,83,40
274980,note_off,,,,,420,0,2,,,0,,,64,64
275000,set_tempo,,,,,260,1,0,419580,,,,,,
275020,note_off,,,,,60,0,1,,,0,,,83,64
275040,note_on,,,,,20,0,1,,,0,,,83,54
275040,control_change,,,,,60,0,2,,,0,64,0,,
275040,note_on,,,,,0,0,2,,,0,,,52,71
275120,note_on,,,,,0,0,1,,,0,,,88,49
275120,note_off,,,,,80,0,1,,,0,,,83,64
275130,note_off,,,,,90,0,2,,,0,,,52,64
275160,note_on,,,,,30,0,2,,,0,,,52,63
275200,note_on,,,,,0,0,1,,,0,,,91,46
275200,note_off,,,,,80,0,1,,,0,,,88,64
275250,note_off,,,,,90,0,2,,,0,,,52,64
275280,note_on,,,,,30,0,2,,,0,,,54,68
275280,note_on,,,,,0,0,1,,,0,,,83,55
275280,note_off,,,,,80,0,1,,,0,,,91,64
275360,note_off,,,,,80,0,1,,,0,,,83,64
275360,note_on,,,,,0,0,1,,,0,,,88,62
275370,note_off,,,,,90,0,2,,,0,,,54,64
275400,note_on,,,,,30,0,2,,,0,,,55,73
275440,note_off,,,,,80,0,1,,,0,,,88,64
275440,note_on,,,,,0,0,1,,,0,,,91,66
275460,set_tempo,,,,,460,1,0,431655,,,,,,
275490,note_off,,,,,90,0,2,,,0,,,55,64
275500,set_tempo,,,,,40,1,0,434783,,,,,,
275520,note_on,,,,,30,0,2,,,0,,,54,77
275520,note_off,,,,,80,0,1,,,0,,,91,64
275520,control_change,,,,,0,0,2,,,0,64,127,,
275520,note_on,,,,,0,0,1,,,0,,,81,71
275600,note_off,,,,,80,0,1,,,0,,,81,64
275600,note_on,,,,,0,0,1,,,0,,,86,63
275680,note_off,,,,,80,0,1,,,0,,,86,64
275680,note_on,,,,,0,0,1,,,0,,,93,55
275740,control_change,,,,,220,0,2,,,0,64,0,,
275760,note_off,,,,,20,0,2,,,0,,,54,64
275760,note_on,,,,,0,0,2,,,0,,,55,69
275760,set_tempo,,,,,260,1,0,451128,,,,,,
275760,control_change,,,,,0,0,2,,,0,64,127,,
275760,note_on,,,,,0,0,1,,,0,,,83,81
275760,note_off,,,,,80,0,1,,,0,,,93,64
275840,note_off,,,,,80,0,1,,,0,,,83,64
275840,note_on,,,,,0,0,1,,,0,,,86,75
275920,note_on,,,,,0,0,1,,,0,,,91,71
275920,note_off,,,,,80,0,1,,,0,,,86,64
275980,control_change,,,,,220,0,2,,,0,64,0,,
275980,control_change,,,,,0,0,2,,,0,64,0,,
276000,note_off,,,,,20,0,2,,,0,,,55,64
276000,note_on,,,,,0,0,2,,,0,,,57,54
276000,note_on,,,,,0,0,1,,,0,,,81,72
276000,note_off,,,,,80,0,1,,,0,,,91,64
276000,control_change,,,,,0,0,2,,,0,64,127,,
276080,note_on,,,,,0,0,1,,,0,,,86,63
276080,note_off,,,,,80,0,1,,,0,,,81,64
276160,note_on,,,,,0,0,1,,,0,,,90,53
276160,note_off,,,,,80,0,1,,,0,,,86,64
276216,note_off,,,,,216,0,2,,,0,,,57,64
276220,control_change,,,,,4,0,2,,,0,64,0,,
276220,control_change,,,,,0,0,2,,,0,64,0,,
276240,control_change,,,,,20,0,2,,,0,64,127,,
276240,note_on,,,,,0,0,2,,,0,,,57,47
276240,set_tempo,,,,,480,1,0,468750,,,,,,
276240,note_on,,,,,0,0,1,,,0,,,81,59
276240,note_off,,,,,80,0,1,,,0,,,90,64
276320,note_on,,,,,0,0,1,,,0,,,85,53
276320,note_off,,,,,80,0,1,,,0,,,81,64
276400,note_on,,,,,0,0,1,,,0,,,88,45
276400,note_off,,,,,80,0,1,,,0,,,85,64
276456,note_off,,,,,216,0,2,,,0,,,57,64
276460,control_change,,,,,4,0,2,,,0,64,0,,
276480,note_on,,,,,20,0,2,,,0,,,50,49
276480,note_off,,,,,80,0,1,,,0,,,88,64
276480,note_on,,,,,0,0,1,,,0,,,86,49
276490,control_change,,,,,10,0,2,,,0,64,0,,
276510,control_change,,,,,20,0,2,,,0,64,127,,
276560,note_off,,,,,80,0,1,,,0,,,86,64
276560,set_tempo,,,,,320,1,0,483871,,,,,,
276560,note_on,,,,,0,0,1,,,0,,,90,41
276640,note_on,,,,,0,0,1,,,0,,,86,35
276640,note_off,,,,,80,0,1,,,0,,,90,64
276700,set_tempo,,,,,140,1,0,504202,,,,,,
276720,note_off,,,,,80,0,1,,,0,,,86,64
276720,note_on,,,,,0,0,1,,,0,,,81,38
276800,set_tempo,,,,,100,1,0,526316,,,,,,
276800,note_off,,,,,80,0,1,,,0,,,81,64
276800,note_on,,,,,0,0,1,,,0,,,78,36
276850,control_change,,,,,340,0,2,,,0,64,0,,
276880,note_off,,,,,80,0,1,,,0,,,78,64
276880,note_on,,,,,0,0,1,,,0,,,74,35
276880,set_tempo,,,,,80,1,0,540541,,,,,,
276900,set_tempo,,,,,20,1,0,681818,,,,,,
276900,note_off,,,,,50,0,2,,,0,,,50,64
276940,note_off,,,,,60,0,1,,,0,,,74,64
276960,note_on,,,,,20,0,1,,,0,,,81,41
276960,set_tempo,,,,,60,1,0,504202,,,,,,
276960,note_on,,,,,60,0,2,,,0,,,62,32
276960,note_on,,,,,0,0,2,,,0,,,66,32
276960,note_on,,,,,0,0,2,,,0,,,69,32
277040,note_on,,,,,0,0,1,,,0,,,78,34
277040,note_off,,,,,80,0,1,,,0,,,81,64
277100,set_tempo,,,,,140,1,0,483871,,,,,,
277120,note_off,,,,,80,0,1,,,0,,,78,64
277120,note_on,,,,,0,0,1,,,0,,,74,31
277140,note_off,,,,,180,0,2,,,0,,,69,64
277140,note_off,,,,,0,0,2,,,0,,,62,64
277140,note_off,,,,,0,0,2,,,0,,,66,64
277200,note_on,,,,,0,0,2,,,0,,,69,36
277200,note_on,,,,,0,0,2,,,0,,,66,36
277200,note_on,,,,,60,0,2,,,0,,,62,36
277200,note_off,,,,,80,0,1,,,0,,,74,64
277200,set_tempo,,,,,100,1,0,465116,,,,,,
277200,note_on,,,,,0,0,1,,,0,,,81,35
277280,note_on,,,,,0,0,1,,,0,,,78,34
277280,note_off,,,,,80,0,1,,,0,,,81,64
277360,note_off,,,,,80,0,1,,,0,,,78,64
277360,note_on,,,,,0,0,1,,,0,,,74,38
277380,note_off,,,,,0,0,2,,,0,,,62,64
277380,note_off,,,,,0,0,2,,,0,,,66,64
277380,note_off,,,,,180,0,2,,,0,,,69,64
277440,note_on,,,,,0,0,1,,,0,,,73,44
277440,note_on,,,,,0,0,2,,,0,,,69,48
277440,note_on,,,,,0,0,2,,,0,,,67,48
277440,note_on,,,,,0,0,2,,,0,,,62,48
277440,note_off,,,,,80,0,1,,,0,,,74,64
277440,control_change,,,,,60,0,2,,,0,64,127,,
277460,set_tempo,,,,,260,1,0,555556,,,,,,
277520,set_tempo,,,,,60,1,0,480000,,,,,,
277520,note_on,,,,,0,0,1,,,0,,,76,39
277520,note_off,,,,,80,0,1,,,0,,,73,64
277580,set_tempo,,,,,60,1,0,465116,,,,,,
277600,note_off,,,,,80,0,1,,,0,,,76,64
277600,note_on,,,,,0,0,1,,,0,,,81,31
277660,set_tempo,,,,,80,1,0,451128,,,,,,
277680,note_off,,,,,80,0,1,,,0,,,81,64
277680,note_on,,,,,0,0,1,,,0,,,73,32
277760,note_on,,,,,0,0,1,,,0,,,76,35
277760,note_off,,,,,80,0,1,,,0,,,73,64
277840,note_on,,,,,0,0,1,,,0,,,81,38
277840,note_off,,,,,80,0,1,,,0,,,76,64
277872,note_off,,,,,0,0,2,,,0,,,69,64
277872,note_off,,,,,0,0,2,,,0,,,67,64
277872,note_off,,,,,432,0,2,,,0,,,62,64
277900,note_off,,,,,60,0,1,,,0,,,81,64
277920,note_on,,,,,20,0,1,,,0,,,81,43
277920,note_on,,,,,0,0,2,,,0,,,62,40
277920,note_on,,,,,0,0,2,,,0,,,67,40
277920,note_on,,,,,0,0,2,,,0,,,69,40
277920,control_change,,,,,48,0,2,,,0,64,0,,
278000,note_on,,,,,0,0,1,,,0,,,85,34
278000,note_off,,,,,80,0,1,,,0,,,81,64
278080,note_on,,,,,0,0,1,,,0,,,88,38
278080,note_off,,,,,80,0,1,,,0,,,85,64
278100,note_off,,,,,0,0,2,,,0,,,67,64
278100,note_off,,,,,180,0,2,,,0,,,69,64
278100,note_off,,,,,0,0,2,,,0,,,62,64
278140,set_tempo,,,,,480,1,0,461538,,,,,,
278160,note_on,,,,,0,0,1,,,0,,,93,43
278160,note_off,,,,,80,0,1,,,0,,,88,64
278160,note_on,,,,,60,0,2,,,0,,,62,38
278160,note_on,,,,,0,0,2,,,0,,,69,38
278160,note_on,,,,,0,0,2,,,0,,,67,38
278240,note_on,,,,,0,0,1,,,0,,,97,48
278240,note_off,,,,,80,0,1,,,0,,,93,64
278320,note_on,,,,,0,0,1,,,0,,,100,55
278320,note_off,,,,,80,0,1,,,0,,,97,64
278340,note_off,,,,,180,0,2,,,0,,,69,64
278340,note_off,,,,,0,0,2,,,0,,,67,64
278340,note_off,,,,,0,0,2,,,0,,,62,64
278340,set_tempo,,,,,200,1,0,476190,,,,,,
278400,note_on,,,,,0,0,2,,,0,,,62,44
278400,note_on,,,,,0,0,2,,,0,,,66,44
278400,note_on,,,,,0,0,2,,,0,,,69,44
278400,control_change,,,,,60,0,2,,,0,64,127,,
278400,note_off,,,,,80,0,1,,,0,,,100,64
278400,note_on,,,,,0,0,1,,,0,,,98,59
278480,note_off,,,,,80,0,1,,,0,,,98,64
278480,note_on,,,,,0,0,1,,,0,,,93,59
278560,note_off,,,,,80,0,1,,,0,,,93,64
278560,note_on,,,,,0,0,1,,,0,,,90,55
278640,note_off,,,,,80,0,1,,,0,,,90,64
278640,note_on,,,,,0,0,1,,,0,,,86,51
278720,note_off,,,,,80,0,1,,,0,,,86,64
278720,note_on,,,,,0,0,1,,,0,,,81,44
278800,note_off,,,,,80,0,1,,,0,,,81,64
278800,note_on,,,,,0,0,1,,,0,,,78,34
278832,note_off,,,,,432,0,2,,,0,,,62,64
278832,note_off,,,,,0,0,2,,,0,,,69,64
278832,note_off,,,,,0,0,2,,,0,,,66,64
278880,note_on,,,,,0,0,1,,,0,,,81,41
278880,note_off,,,,,80,0,1,,,0,,,78,64
278880,control_change,,,,,48,0,2,,,0,64,0,,
278880,note_on,,,,,0,0,2,,,0,,,62,39
278880,note_on,,,,,0,0,2,,,0,,,69,39
278880,note_on,,,,,0,0,2,,,0,,,66,39
278960,note_on,,,,,0,0,1,,,0,,,78,34
278960,note_off,,,,,80,0,1,,,0,,,81,64
279040,note_on,,,,,0,0,1,,,0,,,74,31
279040,note_off,,,,,80,0,1,,,0,,,78,64
279060,note_off,,,,,180,0,2,,,0,,,69,64
279060,note_off,,,,,0,0,2,,,0,,,66,64
279060,note_off,,,,,0,0,2,,,0,,,62,64
279120,note_on,,,,,0,0,2,,,0,,,69,34
279120,note_on,,,,,60,0,2,,,0,,,62,34
279120,note_on,,,,,0,0,1,,,0,,,81,35
279120,note_on,,,,,0,0,2,,,0,,,66,34
279120,note_off,,,,,80,0,1,,,0,,,74,64
279200,note_off,,,,,80,0,1,,,0,,,81,64
279200,note_on,,,,,0,0,1,,,0,,,78,34
279280,note_off,,,,,80,0,1,,,0,,,78,64
279280,note_on,,,,,0,0,1,,,0,,,74,38
279300,note_off,,,,,180,0,2,,,0,,,69,64
279300,note_off,,,,,0,0,2,,,0,,,66,64
279300,note_off,,,,,0,0,2,,,0,,,62,64
279360,note_on,,,,,0,0,2,,,0,,,62,48
279360,note_on,,,,,0,0,1,,,0,,,73,44
279360,note_off,,,,,80,0,1,,,0,,,74,64
279360,control_change,,,,,60,0,2,,,0,64,127,,
279360,note_on,,,,,0,0,2,,,0,,,69,48
279360,note_on,,,,,0,0,2,,,0,,,67,48
279380,set_tempo,,,,,1040,1,0,555556,,,,,,
279420,set_tempo,,,,,40,1,0,487805,,,,,,
279440,note_off,,,,,80,0,1,,,0,,,73,64
279440,note_on,,,,,0,0,1,,,0,,,76,39
279500,set_tempo,,,,,80,1,0,468750,,,,,,
279520,note_on,,,,,0,0,1,,,0,,,81,31
279520,note_off,,,,,80,0,1,,,0,,,76,64
279600,note_on,,,,,0,0,1,,,0,,,73,32
279600,note_off,,,,,80,0,1,,,0,,,81,64
279600,set_tempo,,,,,100,1,0,447761,,,,,,
279680,note_off,,,,,80,0,1,,,0,,,73,64
279680,note_on,,,,,0,0,1,,,0,,,76,35
279760,note_off,,,,,80,0,1,,,0,,,76,64
279760,note_on,,,,,0,0,1,,,0,,,81,38
279792,note_off,,,,,432,0,2,,,0,,,62,64
279792,note_off,,,,,0,0,2,,,0,,,67,64
279792,note_off,,,,,0,0,2,,,0,,,69,64
279820,note_off,,,,,60,0,1,,,0,,,81,64
279840,control_change,,,,,48,0,2,,,0,64,0,,
279840,note_on,,,,,0,0,2,,,0,,,62,50
279840,note_on,,,,,0,0,2,,,0,,,67,50
279840,note_on,,,,,0,0,2,,,0,,,69,50
279840,note_on,,,,,20,0,1,,,0,,,81,43
279920,note_on,,,,,0,0,1,,,0,,,85,34
279920,note_off,,,,,80,0,1,,,0,,,81,64
280000,set_tempo,,,,,400,1,0,458015,,,,,,
280000,note_on,,,,,0,0,1,,,0,,,88,35
280000,note_off,,,,,80,0,1,,,0,,,85,64
280020,note_off,,,,,0,0,2,,,0,,,67,64
280020,note_off,,,,,180,0,2,,,0,,,69,64
280020,note_off,,,,,0,0,2,,,0,,,62,64
280080,note_on,,,,,60,0,2,,,0,,,62,45
280080,note_on,,,,,0,0,2,,,0,,,67,45
280080,note_on,,,,,0,0,2,,,0,,,69,45
280080,note_on,,,,,0,0,1,,,0,,,93,38
280080,note_off,,,,,80,0,1,,,0,,,88,64
280160,note_on,,,,,0,0,1,,,0,,,97,43
280160,note_off,,,,,80,0,1,,,0,,,93,64
280240,set_tempo,,,,,240,1,0,476190,,,,,,
280240,note_off,,,,,80,0,1,,,0,,,97,64
280240,note_on,,,,,0,0,1,,,0,,,100,47
280260,note_off,,,,,0,0,2,,,0,,,67,64
280260,note_off,,,,,180,0,2,,,0,,,69,64
280260,note_off,,,,,0,0,2,,,0,,,62,64
280320,note_on,,,,,0,0,2,,,0,,,66,60
280320,note_on,,,,,0,0,2,,,0,,,69,60
280320,note_on,,,,,0,0,2,,,0,,,62,60
280320,note_on,,,,,0,0,1,,,0,,,98,53
280320,note_off,,,,,80,0,1,,,0,,,100,64
280320,control_change,,,,,60,0,2,,,0,64,127,,
280400,note_on,,,,,0,0,1,,,0,,,93,46
280400,note_off,,,,,80,0,1,,,0,,,98,64
280440,set_tempo,,,,,200,1,0,500000,,,,,,
280480,note_on,,,,,0,0,1,,,0,,,90,55
280480,note_off,,,,,80,0,1,,,0,,,93,64
280560,note_on,,,,,0,0,1,,,0,,,86,63
280560,note_off,,,,,80,0,1,,,0,,,90,64
280640,note_on,,,,,0,0,1,,,0,,,81,60
280640,note_off,,,,,80,0,1,,,0,,,86,64
280720,note_off,,,,,80,0,1,,,0,,,81,64
280720,note_on,,,,,0,0,1,,,0,,,78,56
280752,note_off,,,,,432,0,2,,,0,,,62,64
280752,note_off,,,,,0,0,2,,,0,,,66,64
280752,note_off,,,,,0,0,2,,,0,,,69,64
280800,note_off,,,,,80,0,1,,,0,,,78,64
280800,set_tempo,,,,,360,1,0,472441,,,,,,
280800,control_change,,,,,48,0,2,,,0,64,0,,
280800,note_on,,,,,0,0,2,,,0,,,62,53
280800,note_on,,,,,0,0,2,,,0,,,67,53
280800,note_on,,,,,0,0,2,,,0,,,69,53
280800,note_on,,,,,0,0,1,,,0,,,81,69
280880,note_on,,,,,0,0,1,,,0,,,85,56
280880,note_off,,,,,80,0,1,,,0,,,81,64
280960,set_tempo,,,,,160,1,0,454545,,,,,,
280960,note_off,,,,,80,0,1,,,0,,,85,64
280960,note_on,,,,,0,0,1,,,0,,,88,63
280980,note_off,,,,,180,0,2,,,0,,,69,64
280980,note_off,,,,,0,0,2,,,0,,,67,64
280980,note_off,,,,,0,0,2,,,0,,,62,64
281040,note_on,,,,,0,0,2,,,0,,,69,50
281040,note_on,,,,,0,0,2,,,0,,,67,50
281040,note_off,,,,,80,0,1,,,0,,,88,64
281040,note_on,,,,,0,0,1,,,0,,,93,68
281040,note_on,,,,,60,0,2,,,0,,,62,50
281120,note_on,,,,,0,0,1,,,0,,,97,75
281120,note_off,,,,,80,0,1,,,0,,,93,64
281200,note_off,,,,,80,0,1,,,0,,,97,64
281200,note_on,,,,,0,0,1,,,0,,,100,80
281220,note_off,,,,,180,0,2,,,0,,,69,64
281220,note_off,,,,,0,0,2,,,0,,,67,64
281220,note_off,,,,,0,0,2,,,0,,,62,64
281260,set_tempo,,,,,300,1,0,444444,,,,,,
281280,note_on,,,,,0,0,1,,,0,,,98,86
281280,note_off,,,,,80,0,1,,,0,,,100,64
281280,note_on,,,,,0,0,2,,,0,,,69,62
281280,note_on,,,,,0,0,2,,,0,,,66,62
281280,note_on,,,,,0,0,2,,,0,,,62,62
281280,control_change,,,,,60,0,2,,,0,64,127,,
281360,note_off,,,,,80,0,1,,,0,,,98,64
281360,note_on,,,,,0,0,1,,,0,,,93,80
281440,note_off,,,,,80,0,1,,,0,,,93,64
281440,note_on,,,,,0,0,1,,,0,,,90,76
281520,note_off,,,,,80,0,1,,,0,,,90,64
281520,note_on,,,,,0,0,1,,,0,,,86,74
281600,note_on,,,,,0,0,1,,,0,,,81,73
281600,note_off,,,,,80,0,1,,,0,,,86,64
281660,set_tempo,,,,,400,1,0,431655,,,,,,
281680,note_off,,,,,80,0,1,,,0,,,81,64
281680,note_on,,,,,0,0,1,,,0,,,78,71
281712,note_off,,,,,0,0,2,,,0,,,69,64
281712,note_off,,,,,0,0,2,,,0,,,66,64
281712,note_off,,,,,432,0,2,,,0,,,62,64
281760,note_on,,,,,0,0,2,,,0,,,62,69
281760,note_on,,,,,0,0,2,,,0,,,69,69
281760,note_on,,,,,0,0,2,,,0,,,67,69
281760,control_change,,,,,48,0,2,,,0,64,0,,
281760,note_off,,,,,80,0,1,,,0,,,78,64
281760,note_on,,,,,0,0,1,,,0,,,81,86
281840,note_off,,,,,80,0,1,,,0,,,81,64
281840,note_on,,,,,0,0,1,,,0,,,85,85
281920,note_on,,,,,0,0,1,,,0,,,88,89
281920,note_off,,,,,80,0,1,,,0,,,85,64
281940,note_off,,,,,0,0,2,,,0,,,67,64
281940,note_off,,,,,0,0,2,,,0,,,62,64
281940,note_off,,,,,180,0,2,,,0,,,69,64
282000,note_off,,,,,80,0,1,,,0,,,88,64
282000,note_on,,,,,0,0,1,,,0,,,93,92
282000,note_on,,,,,60,0,2,,,0,,,62,63
282000,note_on,,,,,0,0,2,,,0,,,67,63
282000,note_on,,,,,0,0,2,,,0,,,69,63
282060,set_tempo,,,,,400,1,0,447761,,,,,,
282080,note_off,,,,,80,0,1,,,0,,,93,64
282080,note_on,,,,,0,0,1,,,0,,,97,96
282160,note_off,,,,,80,0,1,,,0,,,97,64
282160,note_on,,,,,0,0,1,,,0,,,100,101
282180,note_off,,,,,180,0,2,,,0,,,69,64
282180,note_off,,,,,0,0,2,,,0,,,67,64
282180,note_off,,,,,0,0,2,,,0,,,62,64
282220,set_tempo,,,,,160,1,0,468750,,,,,,
282240,note_on,,,,,0,0,2,,,0,,,69,79
282240,note_off,,,,,80,0,1,,,0,,,100,64
282240,note_on,,,,,0,0,2,,,0,,,62,79
282240,control_change,,,,,60,0,2,,,0,64,127,,
282240,note_on,,,,,0,0,2,,,0,,,66,79
282240,note_on,,,,,0,0,1,,,0,,,98,105
282320,note_on,,,,,0,0,1,,,0,,,93,92
282320,note_off,,,,,80,0,1,,,0,,,98,64
282400,note_off,,,,,80,0,1,,,0,,,93,64
282400,note_on,,,,,0,0,1,,,0,,,90,80
282440,set_tempo,,,,,220,1,0,500000,,,,,,
282480,note_off,,,,,80,0,1,,,0,,,90,64
282480,note_on,,,,,0,0,1,,,0,,,86,67
282540,set_tempo,,,,,100,1,0,535714,,,,,,
282560,note_off,,,,,80,0,1,,,0,,,86,64
282560,note_on,,,,,0,0,1,,,0,,,81,52
282640,note_off,,,,,80,0,1,,,0,,,81,64
282640,note_on,,,,,0,0,1,,,0,,,78,40
282672,note_off,,,,,432,0,2,,,0,,,62,64
282672,note_off,,,,,0,0,2,,,0,,,66,64
282672,note_off,,,,,0,0,2,,,0,,,69,64
282680,set_tempo,,,,,140,1,0,465116,,,,,,
282700,note_off,,,,,60,0,1,,,0,,,78,64
282720,note_on,,,,,48,0,2,,,0,,,66,38
282720,note_on,,,,,20,0,1,,,0,,,81,34
282720,control_change,,,,,0,0,2,,,0,64,0,,
282800,note_off,,,,,80,0,2,,,0,,,66,64
282800,note_on,,,,,0,0,2,,,0,,,69,35
282880,note_off,,,,,80,0,2,,,0,,,69,64
282880,note_on,,,,,0,0,2,,,0,,,74,33
282900,set_tempo,,,,,220,1,0,476190,,,,,,
282900,note_off,,,,,180,0,1,,,0,,,81,64
282960,note_off,,,,,80,0,2,,,0,,,74,64
282960,note_on,,,,,60,0,1,,,0,,,81,42
282960,note_on,,,,,0,0,2,,,0,,,66,33
283040,note_on,,,,,0,0,2,,,0,,,69,35
283040,note_off,,,,,80,0,2,,,0,,,66,64
283120,note_off,,,,,80,0,2,,,0,,,69,64
283120,note_on,,,,,0,0,2,,,0,,,74,37
283140,note_off,,,,,180,0,1,,,0,,,81,64
283200,note_off,,,,,80,0,2,,,0,,,74,64
283200,control_change,,,,,0,0,2,,,0,64,127,,
283200,note_on,,,,,60,0,1,,,0,,,81,44
283200,note_on,,,,,0,0,2,,,0,,,64,39
283220,set_tempo,,,,,320,1,0,487805,,,,,,
283280,note_off,,,,,80,0,2,,,0,,,64,64
283280,note_on,,,,,0,0,2,,,0,,,67,36
283360,note_off,,,,,80,0,2,,,0,,,67,64
283360,note_on,,,,,0,0,2,,,0,,,73,32
283440,note_off,,,,,80,0,2,,,0,,,73,64
283440,note_on,,,,,0,0,2,,,0,,,64,33
283520,note_on,,,,,0,0,2,,,0,,,67,33
283520,note_off,,,,,80,0,2,,,0,,,64,64
283600,note_off,,,,,80,0,2,,,0,,,67,64
283600,note_on,,,,,0,0,2,,,0,,,73,36
283620,note_off,,,,,420,0,1,,,0,,,81,64
283680,note_off,,,,,80,0,2,,,0,,,73,64
283680,control_change,,,,,0,0,2,,,0,64,0,,
283680,note_on,,,,,0,0,2,,,0,,,63,38
283680,note_on,,,,,60,0,1,,,0,,,81,34
283700,set_tempo,,,,,480,1,0,512821,,,,,,
283760,note_off,,,,,80,0,2,,,0,,,63,64
283760,note_on,,,,,0,0,2,,,0,,,67,35
283840,note_off,,,,,80,0,2,,,0,,,67,64
283840,note_on,,,,,0,0,2,,,0,,,72,33
283860,note_off,,,,,180,0,1,,,0,,,81,64
283920,note_on,,,,,0,0,2,,,0,,,63,33
283920,note_off,,,,,80,0,2,,,0,,,72,64
283920,note_on,,,,,60,0,1,,,0,,,81,42
284000,note_off,,,,,80,0,2,,,0,,,63,64
284000,note_on,,,,,0,0,2,,,0,,,67,35
284080,note_off,,,,,80,0,2,,,0,,,67,64
284080,note_on,,,,,0,0,2,,,0,,,72,37
284100,note_off,,,,,180,0,1,,,0,,,81,64
284140,set_tempo,,,,,440,1,0,535714,,,,,,
284160,note_on,,,,,60,0,1,,,0,,,81,44
284160,note_on,,,,,0,0,2,,,0,,,62,39
284160,control_change,,,,,0,0,2,,,0,64,127,,
284160,note_off,,,,,80,0,2,,,0,,,72,64
284240,note_off,,,,,80,0,2,,,0,,,62,64
284240,note_on,,,,,0,0,2,,,0,,,66,36
284320,note_on,,,,,0,0,2,,,0,,,72,32
284320,note_off,,,,,80,0,2,,,0,,,66,64
284360,set_tempo,,,,,220,1,0,550459,,,,,,
284400,note_on,,,,,0,0,2,,,0,,,62,33
284400,note_off,,,,,80,0,2,,,0,,,72,64
284480,note_off,,,,,80,0,2,,,0,,,62,64
284480,note_on,,,,,0,0,2,,,0,,,66,33
284560,note_off,,,,,80,0,2,,,0,,,66,64
284560,note_on,,,,,0,0,2,,,0,,,72,36
284580,note_off,,,,,420,0,1,,,0,,,81,64
284640,note_on,,,,,0,0,2,,,0,,,60,40
284640,note_off,,,,,80,0,2,,,0,,,72,64
284640,note_on,,,,,60,0,1,,,0,,,81,50
284640,control_change,,,,,0,0,2,,,0,64,0,,
284720,note_off,,,,,80,0,2,,,0,,,60,64
284720,note_on,,,,,0,0,2,,,0,,,62,39
284730,note_off,,,,,90,0,1,,,0,,,81,64
284760,note_on,,,,,30,0,1,,,0,,,81,42
284800,note_on,,,,,0,0,2,,,0,,,66,44
284800,note_off,,,,,80,0,2,,,0,,,62,64
284850,note_off,,,,,90,0,1,,,0,,,81,64
284880,note_off,,,,,80,0,2,,,0,,,66,64
284880,note_on,,,,,30,0,1,,,0,,,83,51
284880,note_on,,,,,0,0,2,,,0,,,60,50
284920,set_tempo,,,,,560,1,0,530973,,,,,,
284960,note_off,,,,,80,0,2,,,0,,,60,64
284960,note_on,,,,,0,0,2,,,0,,,62,53
284970,note_off,,,,,90,0,1,,,0,,,83,64
285000,note_on,,,,,30,0,1,,,0,,,84,65
285040,note_on,,,,,0,0,2,,,0,,,66,55
285040,note_off,,,,,80,0,2,,,0,,,62,64
285090,note_off,,,,,90,0,1,,,0,,,84,64
285120,note_off,,,,,80,0,2,,,0,,,66,64
285120,control_change,,,,,0,0,2,,,0,64,127,,
285120,note_on,,,,,0,0,2,,,0,,,59,58
285120,note_on,,,,,30,0,1,,,0,,,86,71
285200,note_off,,,,,80,0,2,,,0,,,59,64
285200,note_on,,,,,0,0,2,,,0,,,62,52
285240,set_tempo,,,,,320,1,0,508475,,,,,,
285280,control_change,,,,,0,0,2,,,0,64,0,,
285280,note_off,,,,,80,0,2,,,0,,,62,64
285280,note_on,,,,,0,0,2,,,0,,,67,48
285360,note_off,,,,,80,0,2,,,0,,,67,64
285360,note_off,,,,,240,0,1,,,0,,,86,64
285360,control_change,,,,,0,0,2,,,0,64,127,,
285360,note_on,,,,,0,0,2,,,0,,,60,49
285360,note_on,,,,,0,0,1,,,0,,,84,61
285440,note_on,,,,,0,0,2,,,0,,,64,43
285440,note_off,,,,,80,0,2,,,0,,,60,64
285520,note_off,,,,,80,0,2,,,0,,,64,64
285520,control_change,,,,,0,0,2,,,0,64,0,,
285520,note_on,,,,,0,0,2,,,0,,,67,40
285540,set_tempo,,,,,300,1,0,480000,,,,,,
285600,note_off,,,,,80,0,2,,,0,,,67,64
285600,control_change,,,,,0,0,2,,,0,64,127,,
285600,note_on,,,,,0,0,2,,,0,,,62,43
285600,note_on,,,,,0,0,1,,,0,,,83,55
285600,note_off,,,,,240,0,1,,,0,,,84,64
285680,note_on,,,,,0,0,2,,,0,,,67,41
285680,note_off,,,,,80,0,2,,,0,,,62,64
285760,note_on,,,,,0,0,2,,,0,,,71,38
285760,control_change,,,,,0,0,2,,,0,64,0,,
285760,note_off,,,,,80,0,2,,,0,,,67,64
285840,note_off,,,,,80,0,2,,,0,,,71,64
285840,control_change,,,,,0,0,2,,,0,64,127,,
285840,note_on,,,,,0,0,1,,,0,,,81,47
285840,note_off,,,,,240,0,1,,,0,,,83,64
285840,note_on,,,,,0,0,2,,,0,,,62,38
285920,note_on,,,,,0,0,2,,,0,,,69,37
285920,note_off,,,,,80,0,2,,,0,,,62,64
285940,set_tempo,,,,,400,1,0,458015,,,,,,
286000,note_off,,,,,80,0,2,,,0,,,69,64
286000,note_on,,,,,0,0,2,,,0,,,72,39
286000,control_change,,,,,0,0,2,,,0,64,0,,
286080,note_on,,,,,0,0,1,,,0,,,83,44
286080,note_off,,,,,240,0,1,,,0,,,81,64
286080,note_off,,,,,80,0,2,,,0,,,72,64
286080,note_on,,,,,0,0,2,,,0,,,67,41
286160,note_off,,,,,80,0,2,,,0,,,67,64
286160,note_on,,,,,0,0,2,,,0,,,71,36
286240,note_off,,,,,80,0,2,,,0,,,71,64
286240,note_on,,,,,0,0,2,,,0,,,67,32
286320,note_off,,,,,80,0,2,,,0,,,67,64
286320,note_on,,,,,0,0,2,,,0,,,62,34
286380,set_tempo,,,,,440,1,0,454545,,,,,,
286400,note_on,,,,,0,0,2,,,0,,,67,31
286400,note_off,,,,,80,0,2,,,0,,,62,64
286480,note_off,,,,,80,0,2,,,0,,,67,64
286480,note_on,,,,,0,0,2,,,0,,,62,29
286500,note_off,,,,,420,0,1,,,0,,,83,64
286540,note_off,,,,,60,0,2,,,0,,,62,64
286560,note_on,,,,,20,0,2,,,0,,,59,38
286560,control_change,,,,,0,0,2,,,0,64,0,,
286560,note_on,,,,,60,0,1,,,0,,,74,41
286620,set_tempo,,,,,240,1,0,451128,,,,,,
286640,note_off,,,,,80,0,2,,,0,,,59,64
286640,note_on,,,,,0,0,2,,,0,,,62,35
286720,note_off,,,,,80,0,2,,,0,,,62,64
286720,note_on,,,,,0,0,2,,,0,,,67,33
286740,note_off,,,,,180,0,1,,,0,,,74,64
286800,note_on,,,,,60,0,1,,,0,,,74,48
286800,note_on,,,,,0,0,2,,,0,,,59,33
286800,note_off,,,,,80,0,2,,,0,,,67,64
286880,note_off,,,,,80,0,2,,,0,,,59,64
286880,note_on,,,,,0,0,2,,,0,,,62,35
286960,note_off,,,,,80,0,2,,,0,,,62,64
286960,note_on,,,,,0,0,2,,,0,,,67,37
286960,set_tempo,,,,,340,1,0,472441,,,,,,
286980,set_tempo,,,,,20,1,0,560748,,,,,,
286980,note_off,,,,,180,0,1,,,0,,,74,64
287040,note_on,,,,,60,0,1,,,0,,,74,50
287040,note_on,,,,,0,0,2,,,0,,,57,39
287040,note_off,,,,,80,0,2,,,0,,,67,64
287040,control_change,,,,,0,0,2,,,0,64,127,,
287060,set_tempo,,,,,80,1,0,465116,,,,,,
287120,note_on,,,,,0,0,2,,,0,,,60,36
287120,note_off,,,,,80,0,2,,,0,,,57,64
287200,note_off,,,,,80,0,2,,,0,,,60,64
287200,note_on,,,,,0,0,2,,,0,,,66,32
287280,note_off,,,,,80,0,2,,,0,,,66,64
287280,note_on,,,,,0,0,2,,,0,,,57,33
287360,note_on,,,,,0,0,2,,,0,,,60,33
287360,note_off,,,,,80,0,2,,,0,,,57,64
287440,note_on,,,,,0,0,2,,,0,,,66,36
287440,note_off,,,,,80,0,2,,,0,,,60,64
287460,note_off,,,,,420,0,1,,,0,,,74,64
287520,note_on,,,,,0,0,2,,,0,,,56,38
287520,control_change,,,,,0,0,2,,,0,64,0,,
287520,note_on,,,,,60,0,1,,,0,,,74,41
287520,note_off,,,,,80,0,2,,,0,,,66,64
287600,note_on,,,,,0,0,2,,,0,,,60,35
287600,note_off,,,,,80,0,2,,,0,,,56,64
287660,set_tempo,,,,,600,1,0,483871,,,,,,
287680,note_on,,,,,0,0,2,,,0,,,65,33
287680,note_off,,,,,80,0,2,,,0,,,60,64
287700,note_off,,,,,180,0,1,,,0,,,74,64
287760,note_off,,,,,80,0,2,,,0,,,65,64
287760,note_on,,,,,60,0,1,,,0,,,74,48
287760,note_on,,,,,0,0,2,,,0,,,56,33
287840,note_off,,,,,80,0,2,,,0,,,56,64
287840,note_on,,,,,0,0,2,,,0,,,60,35
287900,set_tempo,,,,,240,1,0,576923,,,,,,
287920,note_off,,,,,80,0,2,,,0,,,60,64
287920,note_on,,,,,0,0,2,,,0,,,65,37
287940,note_off,,,,,180,0,1,,,0,,,74,64
288000,note_off,,,,,80,0,2,,,0,,,65,64
288000,control_change,,,,,0,0,2,,,0,64,127,,
288000,note_on,,,,,0,0,2,,,0,,,55,39
288000,note_on,,,,,60,0,1,,,0,,,74,50
288020,set_tempo,,,,,120,1,0,495868,,,,,,
288080,note_on,,,,,0,0,2,,,0,,,59,36
288080,note_off,,,,,80,0,2,,,0,,,55,64
288160,note_off,,,,,80,0,2,,,0,,,59,64
288160,note_on,,,,,0,0,2,,,0,,,65,32
288240,note_off,,,,,80,0,2,,,0,,,65,64
288240,note_on,,,,,0,0,2,,,0,,,55,33
288320,note_off,,,,,80,0,2,,,0,,,55,64
288320,note_on,,,,,0,0,2,,,0,,,59,33
288400,note_off,,,,,80,0,2,,,0,,,59,64
288400,note_on,,,,,0,0,2,,,0,,,65,36
288420,note_off,,,,,420,0,1,,,0,,,74,64
288420,set_tempo,,,,,400,1,0,483871,,,,,,
288480,note_on,,,,,0,0,2,,,0,,,53,40
288480,note_off,,,,,80,0,2,,,0,,,65,64
288480,note_on,,,,,60,0,1,,,0,,,74,50
288480,control_change,,,,,0,0,2,,,0,64,0,,
288560,note_on,,,,,0,0,2,,,0,,,55,39
288560,note_off,,,,,80,0,2,,,0,,,53,64
288570,note_off,,,,,90,0,1,,,0,,,74,64
288600,note_on,,,,,30,0,1,,,0,,,74,48
288640,note_off,,,,,80,0,2,,,0,,,55,64
288640,note_on,,,,,0,0,2,,,0,,,59,44
288690,note_off,,,,,90,0,1,,,0,,,74,64
288720,note_off,,,,,80,0,2,,,0,,,59,64
288720,note_on,,,,,0,0,2,,,0,,,53,50
288720,note_on,,,,,30,0,1,,,0,,,76,51
288780,set_tempo,,,,,360,1,0,468750,,,,,,
288800,note_on,,,,,0,0,2,,,0,,,55,53
288800,note_off,,,,,80,0,2,,,0,,,53,64
288810,note_off,,,,,90,0,1,,,0,,,76,64
288840,note_on,,,,,30,0,1,,,0,,,77,60
288880,note_on,,,,,0,0,2,,,0,,,59,55
288880,note_off,,,,,80,0,2,,,0,,,55,64
288930,note_off,,,,,90,0,1,,,0,,,77,64
288960,note_on,,,,,30,0,1,,,0,,,79,67
288960,note_on,,,,,0,0,2,,,0,,,52,58
288960,control_change,,,,,0,0,2,,,0,64,127,,
288960,note_off,,,,,80,0,2,,,0,,,59,64
289040,note_off,,,,,80,0,2,,,0,,,52,64
289040,note_on,,,,,0,0,2,,,0,,,55,52
289120,note_on,,,,,0,0,2,,,0,,,60,48
289120,control_change,,,,,0,0,2,,,0,64,0,,
289120,note_off,,,,,80,0,2,,,0,,,55,64
289200,note_off,,,,,80,0,2,,,0,,,60,64
289200,control_change,,,,,0,0,2,,,0,64,127,,
289200,note_off,,,,,240,0,1,,,0,,,79,64
289200,note_on,,,,,0,0,1,,,0,,,77,61
289200,note_on,,,,,0,0,2,,,0,,,53,49
289240,set_tempo,,,,,460,1,0,444444,,,,,,
289280,note_on,,,,,0,0,2,,,0,,,57,43
289280,note_off,,,,,80,0,2,,,0,,,53,64
289360,note_off,,,,,80,0,2,,,0,,,57,64
289360,control_change,,,,,0,0,2,,,0,64,0,,
289360,note_on,,,,,0,0,2,,,0,,,60,40
289440,note_off,,,,,80,0,2,,,0,,,60,64
289440,note_on,,,,,0,0,2,,,0,,,55,43
289440,control_change,,,,,0,0,2,,,0,64,127,,
289440,note_off,,,,,240,0,1,,,0,,,77,64
289440,note_on,,,,,0,0,1,,,0,,,76,52
289520,note_off,,,,,80,0,2,,,0,,,55,64
289520,note_on,,,,,0,0,2,,,0,,,60,41
289520,set_tempo,,,,,280,1,0,468750,,,,,,
289600,note_off,,,,,80,0,2,,,0,,,60,64
289600,control_change,,,,,0,0,2,,,0,64,0,,
289600,note_on,,,,,0,0,2,,,0,,,64,38
289620,set_tempo,,,,,100,1,0,472441,,,,,,
289640,set_tempo,,,,,20,1,0,495868,,,,,,
289680,control_change,,,,,0,0,2,,,0,64,127,,
289680,note_on,,,,,0,0,1,,,0,,,74,48
289680,note_off,,,,,240,0,1,,,0,,,76,64
289680,note_off,,,,,80,0,2,,,0,,,64,64
289680,note_on,,,,,0,0,2,,,0,,,55,38
289740,set_tempo,,,,,100,1,0,521739,,,,,,
289760,note_off,,,,,80,0,2,,,0,,,55,64
289760,note_on,,,,,0,0,2,,,0,,,62,37
289820,set_tempo,,,,,80,1,0,560748,,,,,,
289840,set_tempo,,,,,20,1,0,750000,,,,,,
289840,note_off,,,,,80,0,2,,,0,,,62,64
289840,note_on,,,,,0,0,2,,,0,,,65,39
289840,control_change,,,,,0,0,2,,,0,64,0,,
289920,note_off,,,,,80,0,2,,,0,,,65,64
289920,note_on,,,,,0,0,1,,,0,,,76,50
289920,note_off,,,,,240,0,1,,,0,,,74,64
289920,control_change,,,,,0,0,2,,,0,64,127,,
289920,note_on,,,,,0,0,2,,,0,,,56,41
289940,set_tempo,,,,,100,1,0,731707,,,,,,
289960,set_tempo,,,,,20,1,0,606061,,,,,,
290000,note_on,,,,,0,0,2,,,0,,,59,36
290000,note_off,,,,,80,0,2,,,0,,,56,64
290020,set_tempo,,,,,60,1,0,582524,,,,,,
290080,note_off,,,,,80,0,2,,,0,,,59,64
290080,note_on,,,,,0,0,2,,,0,,,64,32
290080,set_tempo,,,,,60,1,0,550459,,,,,,
290160,note_on,,,,,0,0,2,,,0,,,56,34
290160,set_tempo,,,,,80,1,0,521739,,,,,,
290160,note_off,,,,,80,0,2,,,0,,,64,64
290240,note_off,,,,,80,0,2,,,0,,,56,64
290240,note_on,,,,,0,0,2,,,0,,,59,29
290300,set_tempo,,,,,140,1,0,495868,,,,,,
290320,note_on,,,,,0,0,2,,,0,,,64,34
290320,note_off,,,,,80,0,2,,,0,,,59,64
290340,note_off,,,,,420,0,1,,,0,,,76,64
290340,control_change,,,,,20,0,2,,,0,64,0,,
290380,set_tempo,,,,,80,1,0,476190,,,,,,
290380,note_off,,,,,40,0,2,,,0,,,64,64
290400,note_on,,,,,0,0,1,,,0,,,76,55
290400,note_on,,,,,60,0,1,,,0,,,88,55
290400,note_on,,,,,20,0,2,,,0,,,52,40
290480,note_off,,,,,80,0,2,,,0,,,52,64
290480,note_on,,,,,0,0,2,,,0,,,56,34
290490,note_off,,,,,0,0,1,,,0,,,88,64
290490,note_off,,,,,90,0,1,,,0,,,76,64
290520,note_on,,,,,30,0,1,,,0,,,88,49
290520,note_on,,,,,0,0,1,,,0,,,76,49
290560,note_on,,,,,0,0,2,,,0,,,59,41
290560,note_off,,,,,80,0,2,,,0,,,56,64
290610,note_off,,,,,90,0,1,,,0,,,76,64
290610,note_off,,,,,0,0,1,,,0,,,88,64
290640,note_off,,,,,80,0,2,,,0,,,59,64
290640,note_on,,,,,0,0,2,,,0,,,50,49
290640,note_on,,,,,30,0,1,,,0,,,78,56
290640,note_on,,,,,0,0,1,,,0,,,90,56
290720,note_on,,,,,0,0,2,,,0,,,52,54
290720,note_off,,,,,80,0,2,,,0,,,50,64
290730,note_off,,,,,90,0,1,,,0,,,90,64
290730,note_off,,,,,0,0,1,,,0,,,78,64
290760,note_on,,,,,0,0,1,,,0,,,92,65
290760,note_on,,,,,30,0,1,,,0,,,80,65
290800,note_off,,,,,80,0,2,,,0,,,52,64
290800,note_on,,,,,0,0,2,,,0,,,59,61
290850,note_off,,,,,0,0,1,,,0,,,80,64
290850,note_off,,,,,90,0,1,,,0,,,92,64
290860,set_tempo,,,,,480,1,0,461538,,,,,,
290880,control_change,,,,,0,0,2,,,0,64,127,,
290880,note_on,,,,,0,0,2,,,0,,,49,65
290880,note_on,,,,,0,0,1,,,0,,,81,71
290880,note_on,,,,,30,0,1,,,0,,,93,71
290880,note_off,,,,,80,0,2,,,0,,,59,64
290960,note_off,,,,,80,0,2,,,0,,,49,64
290960,note_on,,,,,0,0,2,,,0,,,52,58
291040,note_off,,,,,80,0,2,,,0,,,52,64
291040,note_on,,,,,0,0,2,,,0,,,57,52
291120,note_off,,,,,80,0,2,,,0,,,57,64
291120,note_on,,,,,0,0,2,,,0,,,49,59
291200,note_off,,,,,80,0,2,,,0,,,49,64
291200,note_on,,,,,0,0,2,,,0,,,52,53
291280,note_off,,,,,80,0,2,,,0,,,52,64
291280,note_on,,,,,0,0,2,,,0,,,57,47
291280,set_tempo,,,,,420,1,0,444444,,,,,,
291300,note_off,,,,,420,0,1,,,0,,,81,64
291300,note_off,,,,,0,0,1,,,0,,,93,64
291360,note_on,,,,,0,0,1,,,0,,,69,65
291360,note_on,,,,,60,0,1,,,0,,,81,65
291360,note_off,,,,,80,0,2,,,0,,,57,64
291360,note_on,,,,,0,0,2,,,0,,,57,47
291360,control_change,,,,,0,0,2,,,0,64,0,,
291360,control_change,,,,,0,0,2,,,0,64,0,,
291440,note_on,,,,,0,0,2,,,0,,,61,53
291440,note_off,,,,,80,0,2,,,0,,,57,64
291450,note_off,,,,,90,0,1,,,0,,,69,64
291450,note_off,,,,,0,0,1,,,0,,,81,64
291480,note_on,,,,,30,0,1,,,0,,,81,61
291480,note_on,,,,,0,0,1,,,0,,,69,61
291520,note_on,,,,,0,0,2,,,0,,,64,58
291520,note_off,,,,,80,0,2,,,0,,,61,64
291570,note_off,,,,,0,0,1,,,0,,,81,64
291570,note_off,,,,,90,0,1,,,0,,,69,64
291600,note_on,,,,,0,0,1,,,0,,,71,71
291600,note_on,,,,,0,0,2,,,0,,,55,64
291600,note_off,,,,,80,0,2,,,0,,,64,64
291600,note_on,,,,,30,0,1,,,0,,,83,71
291680,note_on,,,,,0,0,2,,,0,,,57,68
291680,note_off,,,,,80,0,2,,,0,,,55,64
291690,note_off,,,,,90,0,1,,,0,,,71,64
291690,note_off,,,,,0,0,1,,,0,,,83,64
291720,note_on,,,,,0,0,1,,,0,,,73,79
291720,note_on,,,,,30,0,1,,,0,,,85,79
291760,note_on,,,,,0,0,2,,,0,,,64,72
291760,note_off,,,,,80,0,2,,,0,,,57,64
291810,note_off,,,,,90,0,1,,,0,,,73,64
291810,note_off,,,,,0,0,1,,,0,,,85,64
291840,note_off,,,,,80,0,2,,,0,,,64,64
291840,control_change,,,,,0,0,2,,,0,64,127,,
291840,note_on,,,,,0,0,2,,,0,,,54,74
291840,note_on,,,,,30,0,1,,,0,,,86,83
291840,note_on,,,,,0,0,1,,,0,,,74,83
291920,note_off,,,,,80,0,2,,,0,,,54,64
291920,note_on,,,,,0,0,2,,,0,,,57,67
292000,note_off,,,,,80,0,2,,,0,,,57,64
292000,note_on,,,,,0,0,2,,,0,,,62,58
292080,note_off,,,,,80,0,2,,,0,,,62,64
292080,note_on,,,,,0,0,2,,,0,,,54,62
292160,note_off,,,,,80,0,2,,,0,,,54,64
292160,note_on,,,,,0,0,2,,,0,,,57,57
292240,note_on,,,,,0,0,2,,,0,,,62,50
292240,note_off,,,,,80,0,2,,,0,,,57,64
292260,note_off,,,,,420,0,1,,,0,,,74,64
292260,note_off,,,,,0,0,1,,,0,,,86,64
292320,control_change,,,,,0,0,2,,,0,64,0,,
292320,note_on,,,,,0,0,1,,,0,,,78,70
292320,note_on,,,,,0,0,2,,,0,,,50,60
292320,note_on,,,,,60,0,1,,,0,,,90,70
292320,note_off,,,,,80,0,2,,,0,,,62,64
292400,note_on,,,,,0,0,2,,,0,,,54,51
292400,note_off,,,,,80,0,2,,,0,,,50,64
292480,note_on,,,,,0,0,2,,,0,,,57,56
292480,note_off,,,,,80,0,2,,,0,,,54,64
292530,note_off,,,,,210,0,1,,,0,,,78,64
292530,note_off,,,,,0,0,1,,,0,,,90,64
292560,note_on,,,,,0,0,1,,,0,,,78,62
292560,note_off,,,,,80,0,2,,,0,,,57,64
292560,note_on,,,,,0,0,2,,,0,,,50,61
292560,note_on,,,,,30,0,1,,,0,,,90,62
292640,note_on,,,,,0,0,2,,,0,,,54,68
292640,note_off,,,,,80,0,2,,,0,,,50,64
292720,note_off,,,,,80,0,2,,,0,,,54,64
292720,note_on,,,,,0,0,2,,,0,,,57,77
292770,note_off,,,,,0,0,1,,,0,,,90,64
292770,note_off,,,,,210,0,1,,,0,,,78,64
292800,note_on,,,,,0,0,2,,,0,,,49,81
292800,note_off,,,,,80,0,2,,,0,,,57,64
292800,note_on,,,,,0,0,1,,,0,,,76,59
292800,note_on,,,,,30,0,1,,,0,,,88,59
292800,control_change,,,,,0,0,2,,,0,64,127,,
292880,note_off,,,,,80,0,2,,,0,,,49,64
292880,note_on,,,,,0,0,2,,,0,,,52,65
292960,note_off,,,,,80,0,2,,,0,,,52,64
292960,control_change,,,,,0,0,2,,,0,64,0,,
292960,note_on,,,,,0,0,2,,,0,,,57,55
293040,note_on,,,,,0,0,1,,,0,,,74,55
293040,note_on,,,,,0,0,1,,,0,,,86,55
293040,note_off,,,,,0,0,1,,,0,,,88,64
293040,note_off,,,,,240,0,1,,,0,,,76,64
293040,set_tempo,,,,,1760,1,0,458015,,,,,,
293040,note_off,,,,,80,0,2,,,0,,,57,64
293040,note_on,,,,,0,0,2,,,0,,,50,58
293040,control_change,,,,,0,0,2,,,0,64,127,,
293120,note_off,,,,,80,0,2,,,0,,,50,64
293120,note_on,,,,,0,0,2,,,0,,,54,50
293200,note_off,,,,,80,0,2,,,0,,,54,64
293200,control_change,,,,,0,0,2,,,0,64,0,,
293200,note_on,,,,,0,0,2,,,0,,,57,45
293280,note_on,,,,,0,0,1,,,0,,,73,52
293280,note_on,,,,,0,0,1,,,0,,,85,52
293280,note_off,,,,,0,0,1,,,0,,,86,64
293280,note_off,,,,,240,0,1,,,0,,,74,64
293280,control_change,,,,,0,0,2,,,0,64,127,,
293280,note_off,,,,,80,0,2,,,0,,,57,64
293280,note_on,,,,,0,0,2,,,0,,,52,49
293280,set_tempo,,,,,240,1,0,472441,,,,,,
293360,note_off,,,,,80,0,2,,,0,,,52,64
293360,note_on,,,,,0,0,2,,,0,,,57,47
293440,control_change,,,,,0,0,2,,,0,64,0,,
293440,note_on,,,,,0,0,2,,,0,,,61,43
293440,note_off,,,,,80,0,2,,,0,,,57,64
293460,set_tempo,,,,,180,1,0,491803,,,,,,
293520,note_off,,,,,240,0,1,,,0,,,73,64
293520,note_on,,,,,0,0,2,,,0,,,52,41
293520,control_change,,,,,0,0,2,,,0,64,127,,
293520,note_off,,,,,80,0,2,,,0,,,61,64
293520,note_on,,,,,0,0,1,,,0,,,71,46
293520,note_off,,,,,0,0,1,,,0,,,85,64
293520,note_on,,,,,0,0,1,,,0,,,83,46
293600,note_off,,,,,80,0,2,,,0,,,52,64
293600,note_on,,,,,0,0,2,,,0,,,56,44
293680,set_tempo,,,,,220,1,0,530973,,,,,,
293680,note_off,,,,,80,0,2,,,0,,,56,64
293680,control_change,,,,,0,0,2,,,0,64,0,,
293680,note_on,,,,,0,0,2,,,0,,,62,47
293760,note_off,,,,,240,0,1,,,0,,,71,64
293760,note_off,,,,,0,0,1,,,0,,,83,64
293760,note_on,,,,,0,0,1,,,0,,,81,44
293760,note_on,,,,,0,0,1,,,0,,,69,44
293760,set_tempo,,,,,80,1,0,576923,,,,,,
293760,note_off,,,,,80,0,2,,,0,,,62,64
293760,control_change,,,,,0,0,2,,,0,64,127,,
293760,note_on,,,,,0,0,2,,,0,,,57,47
293800,set_tempo,,,,,40,1,0,530973,,,,,,
293840,note_off,,,,,80,0,2,,,0,,,57,64
293840,note_on,,,,,0,0,2,,,0,,,61,36
293900,set_tempo,,,,,100,1,0,517241,,,,,,
293920,note_off,,,,,80,0,2,,,0,,,61,64
293920,note_on,,,,,0,0,2,,,0,,,64,40
293960,set_tempo,,,,,60,1,0,545455,,,,,,
294000,note_on,,,,,0,0,2,,,0,,,69,45
294000,note_off,,,,,80,0,2,,,0,,,64,64
294080,note_on,,,,,0,0,2,,,0,,,73,54
294080,note_off,,,,,80,0,2,,,0,,,69,64
294100,set_tempo,,,,,140,1,0,576923,,,,,,
294150,control_change,,,,,70,0,2,,,0,64,0,,
294160,note_on,,,,,0,0,2,,,0,,,76,60
294160,note_off,,,,,10,0,2,,,0,,,73,64
294180,note_off,,,,,420,0,1,,,0,,,69,64
294180,note_off,,,,,0,0,1,,,0,,,81,64
294220,note_off,,,,,60,0,2,,,0,,,76,64
294240,note_on,,,,,60,0,1,,,0,,,69,66
294240,note_on,,,,,20,0,2,,,0,,,64,67
294240,set_tempo,,,,,140,1,0,441176,,,,,,
294320,note_off,,,,,80,0,1,,,0,,,69,64
294320,note_on,,,,,0,0,1,,,0,,,72,60
294400,note_on,,,,,0,0,1,,,0,,,76,51
294400,set_tempo,,,,,160,1,0,428571,,,,,,
294400,note_off,,,,,80,0,1,,,0,,,72,64
294420,note_off,,,,,180,0,2,,,0,,,64,64
294480,note_on,,,,,60,0,2,,,0,,,64,57
294480,note_on,,,,,0,0,1,,,0,,,69,56
294480,note_off,,,,,80,0,1,,,0,,,76,64
294560,note_off,,,,,80,0,1,,,0,,,69,64
294560,note_on,,,,,0,0,1,,,0,,,72,57
294640,note_on,,,,,0,0,1,,,0,,,76,51
294640,note_off,,,,,80,0,1,,,0,,,72,64
294660,note_off,,,,,180,0,2,,,0,,,64,64
294680,set_tempo,,,,,280,1,0,500000,,,,,,
294720,note_on,,,,,0,0,2,,,0,,,64,72
294720,control_change,,,,,60,0,2,,,0,64,127,,
294720,note_on,,,,,0,0,1,,,0,,,68,65
294720,note_off,,,,,80,0,1,,,0,,,76,64
294740,set_tempo,,,,,60,1,0,431655,,,,,,
294760,set_tempo,,,,,20,1,0,425532,,,,,,
294800,note_off,,,,,80,0,1,,,0,,,68,64
294800,note_on,,,,,0,0,1,,,0,,,71,57
294880,note_off,,,,,80,0,1,,,0,,,71,64
294880,note_on,,,,,0,0,1,,,0,,,76,51
294960,note_off,,,,,80,0,1,,,0,,,76,64
294960,note_on,,,,,0,0,1,,,0,,,68,54
294980,set_tempo,,,,,220,1,0,413793,,,,,,
295040,note_on,,,,,0,0,1,,,0,,,71,57
295040,note_off,,,,,80,0,1,,,0,,,68,64
295100,set_tempo,,,,,120,1,0,410959,,,,,,
295120,note_on,,,,,0,0,1,,,0,,,76,61
295120,note_off,,,,,80,0,1,,,0,,,71,64
295200,note_off,,,,,480,0,2,,,0,,,64,64
295200,note_on,,,,,0,0,1,,,0,,,71,64
295200,note_on,,,,,0,0,2,,,0,,,64,78
295200,control_change,,,,,0,0,2,,,0,64,0,,
295200,note_off,,,,,80,0,1,,,0,,,76,64
295280,note_off,,,,,80,0,1,,,0,,,71,64
295280,note_on,,,,,0,0,1,,,0,,,74,58
295290,note_off,,,,,90,0,2,,,0,,,64,64
295320,note_on,,,,,30,0,2,,,0,,,64,70
295360,note_on,,,,,0,0,1,,,0,,,76,53
295360,note_off,,,,,80,0,1,,,0,,,74,64
295410,note_off,,,,,90,0,2,,,0,,,64,64
295440,note_off,,,,,80,0,1,,,0,,,76,64
295440,note_on,,,,,0,0,1,,,0,,,71,56
295440,note_on,,,,,30,0,2,,,0,,,66,74
295520,note_off,,,,,80,0,1,,,0,,,71,64
295520,note_on,,,,,0,0,1,,,0,,,74,50
295530,note_off,,,,,90,0,2,,,0,,,66,64
295560,note_on,,,,,30,0,2,,,0,,,68,78
295600,note_off,,,,,80,0,1,,,0,,,74,64
295600,note_on,,,,,0,0,1,,,0,,,76,51
295650,note_off,,,,,90,0,2,,,0,,,68,64
295680,control_change,,,,,30,0,2,,,0,64,127,,
295680,note_on,,,,,0,0,2,,,0,,,69,85
295680,note_on,,,,,0,0,1,,,0,,,72,60
295680,note_off,,,,,80,0,1,,,0,,,76,64
295760,note_off,,,,,80,0,1,,,0,,,72,64
295760,note_on,,,,,0,0,1,,,0,,,76,60
295840,note_off,,,,,80,0,1,,,0,,,76,64
295840,note_on,,,,,0,0,1,,,0,,,72,51
295920,note_on,,,,,0,0,1,,,0,,,69,62
295920,note_off,,,,,80,0,1,,,0,,,72,64
296000,note_off,,,,,80,0,1,,,0,,,69,64
296000,note_on,,,,,0,0,1,,,0,,,72,60
296080,note_off,,,,,80,0,1,,,0,,,72,64
296080,note_on,,,,,0,0,1,,,0,,,76,53
296100,note_off,,,,,420,0,2,,,0,,,69,64
296160,note_off,,,,,80,0,1,,,0,,,76,64
296160,note_on,,,,,0,0,2,,,0,,,57,70
296160,control_change,,,,,60,0,2,,,0,64,0,,
296160,note_on,,,,,0,0,1,,,0,,,76,66
296160,set_tempo,,,,,1060,1,0,422535,,,,,,
296240,note_off,,,,,80,0,1,,,0,,,76,64
296240,note_on,,,,,0,0,1,,,0,,,79,57
296250,note_off,,,,,90,0,2,,,0,,,57,64
296280,note_on,,,,,30,0,2,,,0,,,57,63
296320,note_off,,,,,80,0,1,,,0,,,79,64
296320,note_on,,,,,0,0,1,,,0,,,81,53
296370,note_off,,,,,90,0,2,,,0,,,57,64
296400,note_on,,,,,30,0,2,,,0,,,59,71
296400,note_off,,,,,80,0,1,,,0,,,81,64
296400,note_on,,,,,0,0,1,,,0,,,76,55
296480,note_off,,,,,80,0,1,,,0,,,76,64
296480,set_tempo,,,,,320,1,0,444444,,,,,,
296480,note_on,,,,,0,0,1,,,0,,,79,57
296490,note_off,,,,,90,0,2,,,0,,,59,64
296520,note_on,,,,,30,0,2,,,0,,,61,79
296560,note_on,,,,,0,0,1,,,0,,,81,61
296560,note_off,,,,,80,0,1,,,0,,,79,64
296610,note_off,,,,,90,0,2,,,0,,,61,64
296640,note_on,,,,,0,0,1,,,0,,,74,66
296640,note_on,,,,,0,0,2,,,0,,,62,82
296640,control_change,,,,,30,0,2,,,0,64,127,,
296640,note_off,,,,,80,0,1,,,0,,,81,64
296680,set_tempo,,,,,200,1,0,465116,,,,,,
296720,note_off,,,,,80,0,1,,,0,,,74,64
296720,note_on,,,,,0,0,1,,,0,,,77,57
296800,note_off,,,,,80,0,1,,,0,,,77,64
296800,note_on,,,,,0,0,1,,,0,,,81,51
296880,note_off,,,,,80,0,1,,,0,,,81,64
296880,note_on,,,,,0,0,1,,,0,,,74,67
296960,note_on,,,,,0,0,1,,,0,,,77,62
296960,note_off,,,,,80,0,1,,,0,,,74,64
297040,note_on,,,,,0,0,1,,,0,,,81,56
297040,note_off,,,,,80,0,1,,,0,,,77,64
297060,note_off,,,,,420,0,2,,,0,,,62,64
297100,note_off,,,,,60,0,1,,,0,,,81,64
297120,note_on,,,,,20,0,1,,,0,,,81,70
297120,note_on,,,,,0,0,2,,,0,,,50,87
297120,control_change,,,,,60,0,2,,,0,64,0,,
297140,set_tempo,,,,,460,1,0,461538,,,,,,
297200,note_off,,,,,80,0,1,,,0,,,81,64
297200,note_on,,,,,0,0,1,,,0,,,86,65
297210,note_off,,,,,90,0,2,,,0,,,50,64
297240,note_on,,,,,30,0,2,,,0,,,50,79
297280,note_on,,,,,0,0,1,,,0,,,89,62
297280,note_off,,,,,80,0,1,,,0,,,86,64
297330,note_off,,,,,90,0,2,,,0,,,50,64
297360,note_off,,,,,80,0,1,,,0,,,89,64
297360,note_on,,,,,0,0,1,,,0,,,81,71
297360,note_on,,,,,30,0,2,,,0,,,52,84
297380,set_tempo,,,,,240,1,0,447761,,,,,,
297440,note_off,,,,,80,0,1,,,0,,,81,64
297440,note_on,,,,,0,0,1,,,0,,,86,78
297450,note_off,,,,,90,0,2,,,0,,,52,64
297480,note_on,,,,,30,0,2,,,0,,,53,89
297520,note_off,,,,,80,0,1,,,0,,,86,64
297520,note_on,,,,,0,0,1,,,0,,,89,82
297570,note_off,,,,,90,0,2,,,0,,,53,64
297600,control_change,,,,,0,0,2,,,0,64,127,,
297600,note_on,,,,,30,0,2,,,0,,,52,93
297600,note_on,,,,,0,0,1,,,0,,,79,87
297600,note_off,,,,,80,0,1,,,0,,,89,64
297620,set_tempo,,,,,240,1,0,431655,,,,,,
297680,note_on,,,,,0,0,1,,,0,,,84,79
297680,note_off,,,,,80,0,1,,,0,,,79,64
297760,note_on,,,,,0,0,1,,,0,,,91,71
297760,note_off,,,,,80,0,1,,,0,,,84,64
297820,control_change,,,,,220,0,2,,,0,64,0,,
297840,control_change,,,,,0,0,2,,,0,64,127,,
297840,note_on,,,,,0,0,1,,,0,,,81,97
297840,note_off,,,,,80,0,1,,,0,,,91,64
297840,note_on,,,,,0,0,2,,,0,,,53,90
297840,note_off,,,,,20,0,2,,,0,,,52,64
297920,note_on,,,,,0,0,1,,,0,,,84,91
297920,note_off,,,,,80,0,1,,,0,,,81,64
298000,note_off,,,,,80,0,1,,,0,,,84,64
298000,note_on,,,,,0,0,1,,,0,,,89,87
298020,set_tempo,,,,,400,1,0,422535,,,,,,
298060,control_change,,,,,220,0,2,,,0,64,0,,
298060,control_change,,,,,0,0,2,,,0,64,0,,
298080,note_on,,,,,0,0,2,,,0,,,55,101
298080,control_change,,,,,0,0,2,,,0,64,127,,
298080,note_on,,,,,0,0,1,,,0,,,79,107
298080,note_off,,,,,80,0,1,,,0,,,89,64
298080,note_off,,,,,20,0,2,,,0,,,53,64
298160,note_on,,,,,0,0,1,,,0,,,84,101
298160,note_off,,,,,80,0,1,,,0,,,79,64
298240,note_off,,,,,80,0,1,,,0,,,84,64
298240,note_on,,,,,0,0,1,,,0,,,88,93
298296,note_off,,,,,216,0,2,,,0,,,55,64
298300,control_change,,,,,4,0,2,,,0,64,0,,
298300,control_change,,,,,0,0,2,,,0,64,0,,
298320,note_on,,,,,0,0,1,,,0,,,79,117
298320,note_off,,,,,80,0,1,,,0,,,88,64
298320,note_on,,,,,0,0,2,,,0,,,55,112
298320,control_change,,,,,20,0,2,,,0,64,127,,
298400,note_on,,,,,0,0,1,,,0,,,83,108
298400,note_off,,,,,80,0,1,,,0,,,79,64
298440,set_tempo,,,,,420,1,0,416667,,,,,,
298480,note_on,,,,,0,0,1,,,0,,,86,103
298480,note_off,,,,,80,0,1,,,0,,,83,64
298536,note_off,,,,,216,0,2,,,0,,,55,64
298540,control_change,,,,,4,0,2,,,0,64,0,,
298560,note_off,,,,,80,0,1,,,0,,,86,64
298560,note_on,,,,,0,0,2,,,0,,,56,116
298560,note_on,,,,,0,0,2,,,0,,,52,116
298560,note_on,,,,,20,0,2,,,0,,,44,116
298560,note_on,,,,,0,0,1,,,0,,,88,124
298570,control_change,,,,,10,0,2,,,0,64,0,,
298580,set_tempo,,,,,140,1,0,408163,,,,,,
298590,control_change,,,,,20,0,2,,,0,64,127,,
298640,note_off,,,,,80,0,1,,,0,,,88,64
298640,note_on,,,,,0,0,1,,,0,,,86,114
298720,note_off,,,,,80,0,1,,,0,,,86,64
298720,note_on,,,,,0,0,1,,,0,,,83,103
298800,note_off,,,,,80,0,1,,,0,,,83,64
298800,note_on,,,,,0,0,1,,,0,,,76,95
298880,note_off,,,,,80,0,1,,,0,,,76,64
298880,note_on,,,,,0,0,1,,,0,,,74,104
298960,note_off,,,,,80,0,1,,,0,,,74,64
298960,note_on,,,,,0,0,1,,,0,,,71,113
298980,note_off,,,,,390,0,2,,,0,,,56,64
298980,note_off,,,,,0,0,2,,,0,,,52,64
298980,note_off,,,,,0,0,2,,,0,,,44,64
299010,control_change,,,,,30,0,2,,,0,64,0,,
299020,note_off,,,,,60,0,1,,,0,,,71,64
299040,control_change,,,,,30,0,2,,,0,64,127,,
299040,note_on,,,,,0,0,2,,,0,,,44,123
299040,note_on,,,,,0,0,2,,,0,,,52,123
299040,note_on,,,,,20,0,1,,,0,,,64,124
299120,note_off,,,,,80,0,1,,,0,,,64,64
299120,note_on,,,,,0,0,1,,,0,,,76,114
299200,note_on,,,,,0,0,1,,,0,,,64,107
299200,note_off,,,,,80,0,1,,,0,,,76,64
299220,note_off,,,,,180,0,2,,,0,,,52,64
299220,note_off,,,,,0,0,2,,,0,,,44,64
299280,note_on,,,,,0,0,1,,,0,,,76,101
299280,note_on,,,,,0,0,2,,,0,,,52,106
299280,note_on,,,,,60,0,2,,,0,,,44,106
299280,note_off,,,,,80,0,1,,,0,,,64,64
299360,note_off,,,,,80,0,1,,,0,,,76,64
299360,note_on,,,,,0,0,1,,,0,,,64,98
299440,note_off,,,,,80,0,1,,,0,,,64,64
299440,note_on,,,,,0,0,1,,,0,,,76,94
299460,control_change,,,,,0,0,2,,,0,64,0,,
299460,note_off,,,,,0,0,2,,,0,,,44,64
299460,note_off,,,,,180,0,2,,,0,,,52,64
299520,note_on,,,,,60,0,2,,,0,,,45,116
299520,note_on,,,,,0,0,2,,,0,,,53,116
299520,note_off,,,,,80,0,1,,,0,,,76,64
299520,note_on,,,,,0,0,1,,,0,,,71,123
299530,control_change,,,,,10,0,2,,,0,64,0,,
299550,control_change,,,,,20,0,2,,,0,64,127,,
299600,note_on,,,,,0,0,1,,,0,,,74,97
299600,note_off,,,,,80,0,1,,,0,,,71,64
299680,note_off,,,,,80,0,1,,,0,,,74,64
299680,note_on,,,,,0,0,1,,,0,,,77,93
299760,note_off,,,,,80,0,1,,,0,,,77,64
299760,note_on,,,,,0,0,1,,,0,,,83,100
299800,set_tempo,,,,,1220,1,0,392157,,,,,,
299840,note_on,,,,,0,0,1,,,0,,,86,110
299840,note_off,,,,,80,0,1,,,0,,,83,64
299920,note_on,,,,,0,0,1,,,0,,,89,117
299920,note_off,,,,,80,0,1,,,0,,,86,64
299940,note_off,,,,,0,0,2,,,0,,,45,64
299940,note_off,,,,,390,0,2,,,0,,,53,64
299970,control_change,,,,,30,0,2,,,0,64,0,,
300000,note_on,,,,,0,0,1,,,0,,,95,122
300000,note_on,,,,,0,0,2,,,0,,,53,124
300000,note_on,,,,,0,0,2,,,0,,,45,124
300000,control_change,,,,,30,0,2,,,0,64,127,,
300000,note_off,,,,,80,0,1,,,0,,,89,64
300080,note_off,,,,,80,0,1,,,0,,,95,64
300080,note_on,,,,,0,0,1,,,0,,,83,119
300160,note_off,,,,,80,0,1,,,0,,,83,64
300160,note_on,,,,,0,0,1,,,0,,,95,113
300180,note_off,,,,,0,0,2,,,0,,,45,64
300180,note_off,,,,,180,0,2,,,0,,,53,64
300240,note_off,,,,,80,0,1,,,0,,,95,64
300240,note_on,,,,,0,0,1,,,0,,,83,105
300240,note_on,,,,,0,0,2,,,0,,,53,90
300240,note_on,,,,,60,0,2,,,0,,,45,90
300320,note_on,,,,,0,0,1,,,0,,,95,96
300320,note_off,,,,,80,0,1,,,0,,,83,64
300400,note_off,,,,,80,0,1,,,0,,,95,64
300400,note_on,,,,,0,0,1,,,0,,,83,85
300420,note_off,,,,,180,0,2,,,0,,,53,64
300420,note_off,,,,,0,0,2,,,0,,,45,64
300420,control_change,,,,,0,0,2,,,0,64,0,,
300440,set_tempo,,,,,640,1,0,405405,,,,,,
300480,note_on,,,,,60,0,2,,,0,,,44,116
300480,note_on,,,,,0,0,1,,,0,,,88,124
300480,note_on,,,,,0,0,2,,,0,,,52,116
300480,note_on,,,,,0,0,2,,,0,,,56,116
300480,note_off,,,,,80,0,1,,,0,,,83,64
300490,control_change,,,,,10,0,2,,,0,64,0,,
300510,control_change,,,,,20,0,2,,,0,64,127,,
300560,note_off,,,,,80,0,1,,,0,,,88,64
300560,note_on,,,,,0,0,1,,,0,,,86,114
300640,note_on,,,,,0,0,1,,,0,,,83,103
300640,note_off,,,,,80,0,1,,,0,,,86,64
300720,note_off,,,,,80,0,1,,,0,,,83,64
300720,note_on,,,,,0,0,1,,,0,,,76,95
300800,note_off,,,,,80,0,1,,,0,,,76,64
300800,note_on,,,,,0,0,1,,,0,,,74,104
300840,set_tempo,,,,,400,1,0,413793,,,,,,
300880,note_on,,,,,0,0,1,,,0,,,71,113
300880,note_off,,,,,80,0,1,,,0,,,74,64
300900,note_off,,,,,0,0,2,,,0,,,52,64
300900,note_off,,,,,0,0,2,,,0,,,44,64
300900,note_off,,,,,390,0,2,,,0,,,56,64
300930,control_change,,,,,30,0,2,,,0,64,0,,
300940,note_off,,,,,60,0,1,,,0,,,71,64
300960,note_on,,,,,20,0,1,,,0,,,64,124
300960,control_change,,,,,30,0,2,,,0,64,127,,
300960,note_on,,,,,0,0,2,,,0,,,44,123
300960,note_on,,,,,0,0,2,,,0,,,52,123
301040,note_off,,,,,80,0,1,,,0,,,64,64
301040,note_on,,,,,0,0,1,,,0,,,76,114
301120,set_tempo,,,,,280,1,0,425532,,,,,,
301120,note_on,,,,,0,0,1,,,0,,,64,107
301120,note_off,,,,,80,0,1,,,0,,,76,64
301140,note_off,,,,,180,0,2,,,0,,,52,64
301140,note_off,,,,,0,0,2,,,0,,,44,64
301200,note_on,,,,,60,0,2,,,0,,,44,106
301200,note_on,,,,,0,0,2,,,0,,,52,106
301200,note_off,,,,,80,0,1,,,0,,,64,64
301200,note_on,,,,,0,0,1,,,0,,,76,101
301280,note_on,,,,,0,0,1,,,0,,,64,98
301280,note_off,,,,,80,0,1,,,0,,,76,64
301360,note_off,,,,,80,0,1,,,0,,,64,64
301360,note_on,,,,,0,0,1,,,0,,,76,94
301380,note_off,,,,,0,0,2,,,0,,,44,64
301380,control_change,,,,,0,0,2,,,0,64,0,,
301380,note_off,,,,,180,0,2,,,0,,,52,64
301420,set_tempo,,,,,300,1,0,441176,,,,,,
301440,note_on,,,,,0,0,1,,,0,,,71,123
301440,note_off,,,,,80,0,1,,,0,,,76,64
301440,note_on,,,,,0,0,2,,,0,,,53,116
301440,note_on,,,,,60,0,2,,,0,,,45,116
301450,control_change,,,,,10,0,2,,,0,64,0,,
301470,control_change,,,,,20,0,2,,,0,64,127,,
301520,note_off,,,,,80,0,1,,,0,,,71,64
301520,note_on,,,,,0,0,1,,,0,,,74,97
301600,note_on,,,,,0,0,1,,,0,,,77,93
301600,note_off,,,,,80,0,1,,,0,,,74,64
301680,note_on,,,,,0,0,1,,,0,,,83,100
301680,note_off,,,,,80,0,1,,,0,,,77,64
301760,note_on,,,,,0,0,1,,,0,,,86,110
301760,note_off,,,,,80,0,1,,,0,,,83,64
301840,note_off,,,,,80,0,1,,,0,,,86,64
301840,note_on,,,,,0,0,1,,,0,,,89,117
301860,note_off,,,,,0,0,2,,,0,,,45,64
301860,note_off,,,,,390,0,2,,,0,,,53,64
301890,control_change,,,,,30,0,2,,,0,64,0,,
301920,control_change,,,,,30,0,2,,,0,64,127,,
301920,note_on,,,,,0,0,2,,,0,,,45,124
301920,note_on,,,,,0,0,2,,,0,,,53,124
301920,note_off,,,,,80,0,1,,,0,,,89,64
301920,note_on,,,,,0,0,1,,,0,,,95,122
302000,note_off,,,,,80,0,1,,,0,,,95,64
302000,note_on,,,,,0,0,1,,,0,,,83,119
302080,note_on,,,,,0,0,1,,,0,,,95,113
302080,note_off,,,,,80,0,1,,,0,,,83,64
302100,note_off,,,,,180,0,2,,,0,,,53,64
302100,note_off,,,,,0,0,2,,,0,,,45,64
302160,note_on,,,,,0,0,2,,,0,,,53,90
302160,note_on,,,,,60,0,2,,,0,,,45,90
302160,note_off,,,,,80,0,1,,,0,,,95,64
302160,note_on,,,,,0,0,1,,,0,,,83,105
302240,note_on,,,,,0,0,1,,,0,,,95,96
302240,note_off,,,,,80,0,1,,,0,,,83,64
302320,note_on,,,,,0,0,1,,,0,,,83,85
302320,note_off,,,,,80,0,1,,,0,,,95,64
302340,note_off,,,,,180,0,2,,,0,,,53,64
302340,control_change,,,,,0,0,2,,,0,64,0,,
302340,note_off,,,,,0,0,2,,,0,,,45,64
302400,note_on,,,,,0,0,1,,,0,,,98,115
302400,note_off,,,,,80,0,1,,,0,,,83,64
302400,note_on,,,,,0,0,2,,,0,,,44,94
302400,note_on,,,,,0,0,2,,,0,,,52,94
302400,control_change,,,,,60,0,2,,,0,64,127,,
302420,set_tempo,,,,,1000,1,0,431655,,,,,,
302480,note_on,,,,,0,0,1,,,0,,,97,106
302480,note_off,,,,,80,0,1,,,0,,,98,64
302560,note_on,,,,,0,0,1,,,0,,,95,103
302560,note_off,,,,,80,0,1,,,0,,,97,64
302580,set_tempo,,,,,160,1,0,425532,,,,,,
302640,note_on,,,,,0,0,1,,,0,,,93,96
302640,note_off,,,,,80,0,1,,,0,,,95,64
302720,set_tempo,,,,,140,1,0,419580,,,,,,
302720,note_on,,,,,0,0,1,,,0,,,92,91
302720,note_off,,,,,80,0,1,,,0,,,93,64
302800,note_on,,,,,0,0,1,,,0,,,90,88
302800,note_off,,,,,80,0,1,,,0,,,92,64
302880,note_off,,,,,80,0,1,,,0,,,90,64
302880,note_on,,,,,0,0,1,,,0,,,88,83
302880,note_off,,,,,0,0,2,,,0,,,52,64
302880,note_off,,,,,480,0,2,,,0,,,44,64
302960,note_off,,,,,80,0,1,,,0,,,88,64
302960,note_on,,,,,0,0,1,,,0,,,86,82
303040,note_off,,,,,80,0,1,,,0,,,86,64
303040,note_on,,,,,0,0,1,,,0,,,85,78
303120,note_on,,,,,0,0,1,,,0,,,83,76
303120,note_off,,,,,80,0,1,,,0,,,85,64
303200,note_off,,,,,80,0,1,,,0,,,83,64
303200,note_on,,,,,0,0,1,,,0,,,81,75
303220,set_tempo,,,,,500,1,0,413793,,,,,,
303280,note_off,,,,,80,0,1,,,0,,,81,64
303280,note_on,,,,,0,0,1,,,0,,,80,74
303360,note_on,,,,,0,0,1,,,0,,,78,69
303360,note_off,,,,,80,0,1,,,0,,,80,64
303360,control_change,,,,,480,0,2,,,0,64,0,,
303440,note_off,,,,,80,0,1,,,0,,,78,64
303440,note_on,,,,,0,0,1,,,0,,,76,65
303520,note_off,,,,,80,0,1,,,0,,,76,64
303520,note_on,,,,,0,0,1,,,0,,,74,63
303600,note_off,,,,,80,0,1,,,0,,,74,64
303600,note_on,,,,,0,0,1,,,0,,,73,61
303680,note_off,,,,,80,0,1,,,0,,,73,64
303680,note_on,,,,,0,0,1,,,0,,,71,61
303760,note_off,,,,,80,0,1,,,0,,,71,64
303760,note_on,,,,,0,0,1,,,0,,,69,59
303840,note_on,,,,,0,0,1,,,0,,,68,58
303840,note_off,,,,,80,0,1,,,0,,,69,64
303920,note_on,,,,,0,0,1,,,0,,,66,56
303920,note_off,,,,,80,0,1,,,0,,,68,64
303940,set_tempo,,,,,720,1,0,434783,,,,,,
304000,note_on,,,,,0,0,1,,,0,,,64,55
304000,note_off,,,,,80,0,1,,,0,,,66,64
304080,note_off,,,,,80,0,1,,,0,,,64,64
304080,note_on,,,,,0,0,1,,,0,,,63,53
304160,note_on,,,,,0,0,1,,,0,,,64,51
304160,note_off,,,,,80,0,1,,,0,,,63,64
304240,note_on,,,,,0,0,1,,,0,,,66,50
304240,note_off,,,,,80,0,1,,,0,,,64,64
304260,set_tempo,,,,,320,1,0,451128,,,,,,
304320,note_on,,,,,0,0,1,,,0,,,68,48
304320,note_off,,,,,80,0,1,,,0,,,66,64
304400,note_off,,,,,80,0,1,,,0,,,68,64
304400,note_on,,,,,0,0,1,,,0,,,69,41
304480,note_on,,,,,0,0,1,,,0,,,71,38
304480,note_off,,,,,80,0,1,,,0,,,69,64
304480,set_tempo,,,,,220,1,0,472441,,,,,,
304560,note_on,,,,,0,0,1,,,0,,,73,34
304560,note_off,,,,,80,0,1,,,0,,,71,64
304640,note_on,,,,,0,0,1,,,0,,,74,33
304640,note_off,,,,,80,0,1,,,0,,,73,64
304700,set_tempo,,,,,220,1,0,491803,,,,,,
304720,note_off,,,,,80,0,1,,,0,,,74,64
304720,note_on,,,,,0,0,1,,,0,,,75,33
304800,note_off,,,,,80,0,1,,,0,,,75,64
304800,note_on,,,,,0,0,1,,,0,,,76,32
304800,note_on,,,,,1440,0,2,,,0,,,57,29
304820,set_tempo,,,,,120,1,0,508475,,,,,,
304880,note_off,,,,,80,0,2,,,0,,,57,64
304880,note_on,,,,,0,0,2,,,0,,,60,26
304960,set_tempo,,,,,140,1,0,487805,,,,,,
304960,note_off,,,,,80,0,2,,,0,,,60,64
304960,note_on,,,,,0,0,2,,,0,,,64,23
304980,note_off,,,,,180,0,1,,,0,,,76,64
305040,note_on,,,,,60,0,1,,,0,,,76,28
305040,note_off,,,,,80,0,2,,,0,,,64,64
305040,note_on,,,,,0,0,2,,,0,,,57,30
305080,set_tempo,,,,,120,1,0,472441,,,,,,
305120,note_off,,,,,80,0,2,,,0,,,57,64
305120,note_on,,,,,0,0,2,,,0,,,60,27
305200,note_on,,,,,0,0,2,,,0,,,64,26
305200,set_tempo,,,,,120,1,0,555556,,,,,,
305200,note_off,,,,,80,0,2,,,0,,,60,64
305220,note_off,,,,,180,0,1,,,0,,,76,64
305280,note_on,,,,,0,0,2,,,0,,,56,37
305280,control_change,,,,,0,0,2,,,0,64,127,,
305280,note_off,,,,,80,0,2,,,0,,,64,64
305280,set_tempo,,,,,80,1,0,480000,,,,,,
305280,note_on,,,,,60,0,1,,,0,,,76,35
305360,note_off,,,,,80,0,2,,,0,,,56,64
305360,note_on,,,,,0,0,2,,,0,,,59,30
305440,set_tempo,,,,,160,1,0,458015,,,,,,
305440,note_on,,,,,0,0,2,,,0,,,64,26
305440,note_off,,,,,80,0,2,,,0,,,59,64
305520,note_on,,,,,0,0,2,,,0,,,56,28
305520,note_off,,,,,80,0,2,,,0,,,64,64
305520,control_change,,,,,0,0,2,,,0,64,0,,
305600,note_on,,,,,0,0,2,,,0,,,59,30
305600,note_off,,,,,80,0,2,,,0,,,56,64
305640,set_tempo,,,,,200,1,0,444444,,,,,,
305680,note_off,,,,,80,0,2,,,0,,,59,64
305680,note_on,,,,,0,0,2,,,0,,,64,34
305760,note_off,,,,,480,0,1,,,0,,,76,64
305760,note_on,,,,,0,0,1,,,0,,,76,40
305760,set_tempo,,,,,120,1,0,431655,,,,,,
305760,note_on,,,,,0,0,2,,,0,,,52,36
305760,note_off,,,,,80,0,2,,,0,,,64,64
305840,note_on,,,,,0,0,2,,,0,,,59,31
305840,note_off,,,,,80,0,2,,,0,,,52,64
305870,note_off,,,,,110,0,1,,,0,,,76,64
305880,note_on,,,,,10,0,1,,,0,,,76,31
305920,note_on,,,,,0,0,2,,,0,,,62,27
305920,note_off,,,,,80,0,2,,,0,,,59,64
305970,note_off,,,,,90,0,1,,,0,,,76,64
306000,note_on,,,,,30,0,1,,,0,,,78,38
306000,note_on,,,,,0,0,2,,,0,,,52,30
306000,note_off,,,,,80,0,2,,,0,,,62,64
306080,set_tempo,,,,,320,1,0,425532,,,,,,
306080,note_off,,,,,80,0,2,,,0,,,52,64
306080,note_on,,,,,0,0,2,,,0,,,59,30
306090,note_off,,,,,90,0,1,,,0,,,78,64
306120,note_on,,,,,30,0,1,,,0,,,80,43
306160,note_on,,,,,0,0,2,,,0,,,62,34
306160,note_off,,,,,80,0,2,,,0,,,59,64
306200,set_tempo,,,,,120,1,0,465116,,,,,,
306210,note_off,,,,,90,0,1,,,0,,,80,64
306240,note_on,,,,,30,0,1,,,0,,,81,46
306240,note_off,,,,,80,0,2,,,0,,,62,64
306240,control_change,,,,,0,0,2,,,0,64,127,,
306240,note_on,,,,,0,0,2,,,0,,,53,37
306260,set_tempo,,,,,60,1,0,422535,,,,,,
306280,set_tempo,,,,,20,1,0,425532,,,,,,
306320,note_on,,,,,0,0,2,,,0,,,57,36
306320,note_off,,,,,80,0,2,,,0,,,53,64
306400,note_on,,,,,0,0,2,,,0,,,60,30
306400,note_off,,,,,80,0,2,,,0,,,57,64
306480,note_on,,,,,0,0,2,,,0,,,53,32
306480,control_change,,,,,0,0,2,,,0,64,0,,
306480,note_off,,,,,80,0,2,,,0,,,60,64
306500,set_tempo,,,,,220,1,0,437956,,,,,,
306560,note_on,,,,,0,0,2,,,0,,,57,29
306560,note_off,,,,,80,0,2,,,0,,,53,64
306640,note_on,,,,,0,0,2,,,0,,,60,25
306640,note_off,,,,,80,0,2,,,0,,,57,64
306660,note_off,,,,,420,0,1,,,0,,,81,64
306720,note_off,,,,,80,0,2,,,0,,,60,64
306720,note_on,,,,,0,0,2,,,0,,,53,28
306720,note_on,,,,,60,0,1,,,0,,,72,37
306800,note_off,,,,,80,0,2,,,0,,,53,64
306800,note_on,,,,,0,0,2,,,0,,,57,25
306880,note_on,,,,,0,0,2,,,0,,,60,24
306880,note_off,,,,,80,0,2,,,0,,,57,64
306900,note_off,,,,,180,0,1,,,0,,,72,64
306960,note_on,,,,,0,0,2,,,0,,,53,28
306960,note_off,,,,,80,0,2,,,0,,,60,64
306960,note_on,,,,,60,0,1,,,0,,,72,33
307040,note_on,,,,,0,0,2,,,0,,,57,25
307040,note_off,,,,,80,0,2,,,0,,,53,64
307120,note_off,,,,,80,0,2,,,0,,,57,64
307120,note_on,,,,,0,0,2,,,0,,,60,23
307140,note_off,,,,,180,0,1,,,0,,,72,64
307140,set_tempo,,,,,640,1,0,487805,,,,,,
307200,note_on,,,,,60,0,1,,,0,,,72,46
307200,note_off,,,,,80,0,2,,,0,,,60,64
307200,control_change,,,,,0,0,2,,,0,64,127,,
307200,note_on,,,,,0,0,2,,,0,,,53,34
307280,note_on,,,,,0,0,2,,,0,,,57,30
307280,note_off,,,,,80,0,2,,,0,,,53,64
307360,note_off,,,,,80,0,2,,,0,,,57,64
307360,note_on,,,,,0,0,2,,,0,,,60,27
307440,note_off,,,,,80,0,2,,,0,,,60,64
307440,control_change,,,,,0,0,2,,,0,64,0,,
307440,note_on,,,,,0,0,2,,,0,,,53,30
307440,set_tempo,,,,,300,1,0,451128,,,,,,
307520,note_off,,,,,80,0,2,,,0,,,53,64
307520,note_on,,,,,0,0,2,,,0,,,57,28
307600,note_off,,,,,80,0,2,,,0,,,57,64
307600,note_on,,,,,0,0,2,,,0,,,60,25
307620,note_off,,,,,420,0,1,,,0,,,72,64
307680,note_on,,,,,60,0,1,,,0,,,81,35
307680,note_on,,,,,0,0,1,,,0,,,69,35
307680,note_on,,,,,0,0,2,,,0,,,53,30
307680,note_off,,,,,80,0,2,,,0,,,60,64
307760,note_off,,,,,80,0,2,,,0,,,53,64
307760,note_on,,,,,0,0,2,,,0,,,57,27
307840,note_off,,,,,80,0,2,,,0,,,57,64
307840,note_on,,,,,0,0,2,,,0,,,60,28
307860,note_off,,,,,0,0,1,,,0,,,81,64
307860,note_off,,,,,180,0,1,,,0,,,69,64
307920,note_on,,,,,0,0,2,,,0,,,53,30
307920,note_on,,,,,0,0,1,,,0,,,69,32
307920,note_on,,,,,60,0,1,,,0,,,81,32
307920,note_off,,,,,80,0,2,,,0,,,60,64
308000,note_off,,,,,80,0,2,,,0,,,53,64
308000,note_on,,,,,0,0,2,,,0,,,57,31
308080,set_tempo,,,,,640,1,0,468750,,,,,,
308080,note_on,,,,,0,0,2,,,0,,,60,33
308080,note_off,,,,,80,0,2,,,0,,,57,64
308100,set_tempo,,,,,20,1,0,517241,,,,,,
308100,note_off,,,,,180,0,1,,,0,,,69,64
308100,note_off,,,,,0,0,1,,,0,,,81,64
308140,set_tempo,,,,,40,1,0,434783,,,,,,
308160,note_on,,,,,0,0,2,,,0,,,52,36
308160,note_off,,,,,80,0,2,,,0,,,60,64
308160,note_on,,,,,60,0,1,,,0,,,82,44
308160,control_change,,,,,0,0,2,,,0,64,127,,
308160,note_on,,,,,0,0,1,,,0,,,70,44
308240,note_off,,,,,80,0,2,,,0,,,52,64
308240,note_on,,,,,0,0,2,,,0,,,55,34
308320,note_on,,,,,0,0,2,,,0,,,60,31
308320,note_off,,,,,80,0,2,,,0,,,55,64
308340,set_tempo,,,,,200,1,0,451128,,,,,,
308400,note_on,,,,,0,0,2,,,0,,,52,30
308400,note_off,,,,,80,0,2,,,0,,,60,64
308480,note_on,,,,,0,0,2,,,0,,,55,27
308480,note_off,,,,,80,0,2,,,0,,,52,64
308500,set_tempo,,,,,160,1,0,465116,,,,,,
308520,control_change,,,,,40,0,2,,,0,64,0,,
308560,note_on,,,,,0,0,2,,,0,,,60,26
308560,note_off,,,,,40,0,2,,,0,,,55,64
308580,note_off,,,,,0,0,1,,,0,,,82,64
308580,note_off,,,,,420,0,1,,,0,,,70,64
308640,note_on,,,,,0,0,2,,,0,,,52,33
308640,note_on,,,,,60,0,1,,,0,,,72,36
308640,note_off,,,,,80,0,2,,,0,,,60,64
308720,note_on,,,,,0,0,2,,,0,,,55,30
308720,note_off,,,,,80,0,2,,,0,,,52,64
308800,note_off,,,,,80,0,2,,,0,,,55,64
308800,note_on,,,,,0,0,2,,,0,,,60,27
308820,note_off,,,,,180,0,1,,,0,,,72,64
308880,note_on,,,,,0,0,2,,,0,,,52,24
308880,note_off,,,,,80,0,2,,,0,,,60,64
308880,note_on,,,,,60,0,1,,,0,,,72,33
308960,note_off,,,,,80,0,2,,,0,,,52,64
308960,note_on,,,,,0,0,2,,,0,,,55,27
309040,note_off,,,,,80,0,2,,,0,,,55,64
309040,note_on,,,,,0,0,2,,,0,,,60,30
309040,set_tempo,,,,,540,1,0,535714,,,,,,
309060,note_off,,,,,180,0,1,,,0,,,72,64
309080,set_tempo,,,,,40,1,0,530973,,,,,,
309120,note_on,,,,,0,0,2,,,0,,,52,35
309120,note_on,,,,,60,0,1,,,0,,,72,38
309120,set_tempo,,,,,40,1,0,428571,,,,,,
309120,control_change,,,,,0,0,2,,,0,64,127,,
309120,note_off,,,,,80,0,2,,,0,,,60,64
309180,set_tempo,,,,,60,1,0,425532,,,,,,
309200,note_off,,,,,80,0,2,,,0,,,52,64
309200,note_on,,,,,0,0,2,,,0,,,55,29
309280,note_off,,,,,80,0,2,,,0,,,55,64
309280,note_on,,,,,0,0,2,,,0,,,60,32
309360,note_off,,,,,80,0,2,,,0,,,60,64
309360,control_change,,,,,0,0,2,,,0,64,0,,
309360,note_on,,,,,0,0,2,,,0,,,52,35
309440,note_off,,,,,80,0,2,,,0,,,52,64
309440,note_on,,,,,0,0,2,,,0,,,55,39
309520,note_on,,,,,0,0,2,,,0,,,60,41
309520,note_off,,,,,80,0,2,,,0,,,55,64
309540,note_off,,,,,420,0,1,,,0,,,72,64
309600,control_change,,,,,0,0,2,,,0,64,127,,
309600,note_on,,,,,60,0,1,,,0,,,94,53
309600,note_off,,,,,80,0,2,,,0,,,60,64
309600,set_tempo,,,,,420,1,0,560748,,,,,,
309600,note_on,,,,,0,0,2,,,0,,,52,43
309620,set_tempo,,,,,20,1,0,555556,,,,,,
309670,note_off,,,,,70,0,1,,,0,,,94,64
309670,note_on,,,,,0,0,1,,,0,,,91,46
309680,note_off,,,,,80,0,2,,,0,,,52,64
309680,note_on,,,,,0,0,2,,,0,,,55,40
309720,note_on,,,,,0,0,1,,,0,,,88,44
309720,note_off,,,,,50,0,1,,,0,,,91,64
309720,set_tempo,,,,,100,1,0,495868,,,,,,
309740,set_tempo,,,,,20,1,0,491803,,,,,,
309760,note_off,,,,,80,0,2,,,0,,,55,64
309760,note_on,,,,,0,0,2,,,0,,,60,36
309780,note_on,,,,,0,0,1,,,0,,,82,42
309780,note_off,,,,,60,0,1,,,0,,,88,64
309800,set_tempo,,,,,60,1,0,454545,,,,,,
309840,note_on,,,,,0,0,1,,,0,,,79,38
309840,note_off,,,,,60,0,1,,,0,,,82,64
309840,note_off,,,,,80,0,2,,,0,,,60,64
309840,note_on,,,,,0,0,2,,,0,,,52,33
309860,set_tempo,,,,,60,1,0,428571,,,,,,
309920,note_on,,,,,0,0,1,,,0,,,76,36
309920,note_off,,,,,80,0,1,,,0,,,79,64
309920,note_off,,,,,80,0,2,,,0,,,52,64
309920,note_on,,,,,0,0,2,,,0,,,55,30
310000,set_tempo,,,,,140,1,0,416667,,,,,,
310000,note_on,,,,,0,0,1,,,0,,,70,32
310000,note_off,,,,,80,0,1,,,0,,,76,64
310000,note_off,,,,,80,0,2,,,0,,,55,64
310000,note_on,,,,,0,0,2,,,0,,,60,26
310060,set_tempo,,,,,60,1,0,419580,,,,,,
310080,control_change,,,,,0,0,2,,,0,64,0,,
310080,note_on,,,,,0,0,2,,,0,,,53,37
310080,note_off,,,,,80,0,2,,,0,,,60,64
310080,note_off,,,,,80,0,1,,,0,,,70,64
310080,note_on,,,,,0,0,1,,,0,,,69,46
310090,set_tempo,,,,,30,1,0,600000,,,,,,
310160,note_off,,,,,80,0,2,,,0,,,53,64
310160,note_on,,,,,0,0,2,,,0,,,57,36
310240,note_off,,,,,80,0,2,,,0,,,57,64
310240,note_on,,,,,0,0,2,,,0,,,60,30
310320,note_off,,,,,80,0,2,,,0,,,60,64
310320,note_on,,,,,0,0,2,,,0,,,53,32
310360,set_tempo,,,,,270,1,0,444444,,,,,,
310400,note_off,,,,,80,0,2,,,0,,,53,64
310400,note_on,,,,,0,0,2,,,0,,,57,29
310480,note_off,,,,,80,0,2,,,0,,,57,64
310480,note_on,,,,,0,0,2,,,0,,,60,25
310500,note_off,,,,,420,0,1,,,0,,,69,64
310560,note_on,,,,,0,0,2,,,0,,,53,28
310560,note_on,,,,,60,0,1,,,0,,,72,37
310560,note_off,,,,,80,0,2,,,0,,,60,64
310640,note_off,,,,,80,0,2,,,0,,,53,64
310640,note_on,,,,,0,0,2,,,0,,,57,25
310720,note_off,,,,,80,0,2,,,0,,,57,64
310720,note_on,,,,,0,0,2,,,0,,,60,24
310740,note_off,,,,,180,0,1,,,0,,,72,64
310800,note_on,,,,,60,0,1,,,0,,,72,33
310800,note_off,,,,,80,0,2,,,0,,,60,64
310800,note_on,,,,,0,0,2,,,0,,,53,28
310880,note_off,,,,,80,0,2,,,0,,,53,64
310880,note_on,,,,,0,0,2,,,0,,,57,25
310960,note_on,,,,,0,0,2,,,0,,,60,23
310960,note_off,,,,,80,0,2,,,0,,,57,64
310980,note_off,,,,,180,0,1,,,0,,,72,64
310990,set_tempo,,,,,630,1,0,487805,,,,,,
311040,note_off,,,,,80,0,2,,,0,,,60,64
311040,note_on,,,,,0,0,2,,,0,,,53,34
311040,control_change,,,,,0,0,2,,,0,64,127,,
311040,note_on,,,,,60,0,1,,,0,,,72,46
311050,set_tempo,,,,,60,1,0,422535,,,,,,
311120,note_on,,,,,0,0,2,,,0,,,57,30
311120,note_off,,,,,80,0,2,,,0,,,53,64
311180,set_tempo,,,,,130,1,0,444444,,,,,,
311200,note_on,,,,,0,0,2,,,0,,,60,27
311200,note_off,,,,,80,0,2,,,0,,,57,64
311280,note_off,,,,,80,0,2,,,0,,,60,64
311280,note_on,,,,,0,0,2,,,0,,,53,30
311360,note_off,,,,,80,0,2,,,0,,,53,64
311360,note_on,,,,,0,0,2,,,0,,,57,28
311440,note_off,,,,,80,0,2,,,0,,,57,64
311440,note_on,,,,,0,0,2,,,0,,,60,25
311440,set_tempo,,,,,260,1,0,465116,,,,,,
311460,note_off,,,,,420,0,1,,,0,,,72,64
311520,control_change,,,,,0,0,2,,,0,64,0,,
311520,note_off,,,,,80,0,2,,,0,,,60,64
311520,note_on,,,,,0,0,1,,,0,,,69,34
311520,note_on,,,,,60,0,1,,,0,,,81,34
311520,note_on,,,,,0,0,2,,,0,,,53,30
311600,note_on,,,,,0,0,2,,,0,,,57,27
311600,note_off,,,,,80,0,2,,,0,,,53,64
311610,note_off,,,,,0,0,1,,,0,,,81,64
311610,note_off,,,,,90,0,1,,,0,,,69,64
311640,note_on,,,,,0,0,1,,,0,,,81,39
311640,note_on,,,,,30,0,1,,,0,,,69,39
311680,note_on,,,,,0,0,2,,,0,,,60,28
311680,note_off,,,,,80,0,2,,,0,,,57,64
311730,note_off,,,,,90,0,1,,,0,,,81,64
311730,note_off,,,,,0,0,1,,,0,,,69,64
311760,note_on,,,,,30,0,1,,,0,,,69,44
311760,note_on,,,,,0,0,1,,,0,,,81,44
311760,note_on,,,,,0,0,2,,,0,,,53,30
311760,note_off,,,,,80,0,2,,,0,,,60,64
311800,set_tempo,,,,,360,1,0,483871,,,,,,
311840,note_on,,,,,0,0,2,,,0,,,57,31
311840,note_off,,,,,80,0,2,,,0,,,53,64
311850,note_off,,,,,90,0,1,,,0,,,81,64
311850,note_off,,,,,0,0,1,,,0,,,69,64
311880,note_on,,,,,30,0,1,,,0,,,81,48
311880,note_on,,,,,0,0,1,,,0,,,69,48
311920,note_on,,,,,0,0,2,,,0,,,60,33
311920,note_off,,,,,80,0,2,,,0,,,57,64
311940,set_tempo,,,,,140,1,0,517241,,,,,,
311970,note_off,,,,,90,0,1,,,0,,,69,64
311970,note_off,,,,,0,0,1,,,0,,,81,64
311990,set_tempo,,,,,50,1,0,434783,,,,,,
312000,note_on,,,,,0,0,2,,,0,,,52,36
312000,control_change,,,,,0,0,2,,,0,64,127,,
312000,note_off,,,,,80,0,2,,,0,,,60,64
312000,note_on,,,,,0,0,1,,,0,,,82,50
312000,note_on,,,,,30,0,1,,,0,,,70,50
312080,note_off,,,,,80,0,2,,,0,,,52,64
312080,note_on,,,,,0,0,2,,,0,,,55,34
312160,note_on,,,,,0,0,2,,,0,,,60,31
312160,note_off,,,,,80,0,2,,,0,,,55,64
312180,set_tempo,,,,,190,1,0,451128,,,,,,
312240,note_on,,,,,0,0,2,,,0,,,52,30
312240,note_off,,,,,80,0,2,,,0,,,60,64
312260,set_tempo,,,,,80,1,0,458015,,,,,,
312320,note_off,,,,,80,0,2,,,0,,,52,64
312320,note_on,,,,,0,0,2,,,0,,,55,27
312380,set_tempo,,,,,120,1,0,468750,,,,,,
312400,note_on,,,,,0,0,2,,,0,,,60,26
312400,note_off,,,,,80,0,2,,,0,,,55,64
312420,note_off,,,,,420,0,1,,,0,,,82,64
312420,note_off,,,,,0,0,1,,,0,,,70,64
312440,note_on,,,,,20,0,1,,,0,,,74,36
312480,note_on,,,,,0,0,1,,,0,,,72,38
312480,note_off,,,,,40,0,1,,,0,,,74,64
312480,note_off,,,,,80,0,2,,,0,,,60,64
312480,control_change,,,,,0,0,2,,,0,64,0,,
312480,note_on,,,,,0,0,2,,,0,,,52,33
312500,set_tempo,,,,,120,1,0,444444,,,,,,
312560,note_off,,,,,80,0,2,,,0,,,52,64
312560,note_on,,,,,0,0,2,,,0,,,55,30
312600,note_on,,,,,0,0,1,,,0,,,71,33
312600,note_off,,,,,120,0,1,,,0,,,72,64
312600,set_tempo,,,,,100,1,0,431655,,,,,,
312640,note_off,,,,,80,0,2,,,0,,,55,64
312640,note_on,,,,,0,0,2,,,0,,,60,27
312720,note_on,,,,,0,0,2,,,0,,,52,24
312720,note_off,,,,,120,0,1,,,0,,,71,64
312720,note_on,,,,,0,0,1,,,0,,,72,36
312720,note_off,,,,,80,0,2,,,0,,,60,64
312800,note_off,,,,,80,0,2,,,0,,,52,64
312800,note_on,,,,,0,0,2,,,0,,,55,27
312840,note_off,,,,,120,0,1,,,0,,,72,64
312840,note_on,,,,,0,0,1,,,0,,,74,42
312880,note_off,,,,,80,0,2,,,0,,,55,64
312880,note_on,,,,,0,0,2,,,0,,,60,30
312900,set_tempo,,,,,300,1,0,535714,,,,,,
312960,note_off,,,,,120,0,1,,,0,,,74,64
312960,note_on,,,,,0,0,2,,,0,,,52,35
312960,note_off,,,,,80,0,2,,,0,,,60,64
312960,note_on,,,,,0,0,1,,,0,,,74,49
312960,control_change,,,,,0,0,2,,,0,64,127,,
312980,set_tempo,,,,,80,1,0,480000,,,,,,
313040,note_on,,,,,0,0,2,,,0,,,55,29
313040,note_off,,,,,80,0,2,,,0,,,52,64
313080,set_tempo,,,,,100,1,0,447761,,,,,,
313120,note_on,,,,,0,0,2,,,0,,,60,32
313120,note_off,,,,,80,0,2,,,0,,,55,64
313120,set_tempo,,,,,40,1,0,431655,,,,,,
313200,note_off,,,,,240,0,1,,,0,,,74,64
313200,note_on,,,,,0,0,1,,,0,,,72,39
313200,control_change,,,,,0,0,2,,,0,64,0,,
313200,note_off,,,,,80,0,2,,,0,,,60,64
313200,note_on,,,,,0,0,2,,,0,,,52,35
313280,note_on,,,,,0,0,2,,,0,,,55,39
313280,note_off,,,,,80,0,2,,,0,,,52,64
313320,note_off,,,,,120,0,1,,,0,,,72,64
313360,note_on,,,,,0,0,2,,,0,,,60,41
313360,note_off,,,,,80,0,2,,,0,,,55,64
313440,note_on,,,,,120,0,1,,,0,,,94,56
313440,note_on,,,,,0,0,2,,,0,,,52,43
313440,control_change,,,,,0,0,2,,,0,64,127,,
313440,note_off,,,,,80,0,2,,,0,,,60,64
313450,set_tempo,,,,,330,1,0,560748,,,,,,
313470,set_tempo,,,,,20,1,0,555556,,,,,,
313510,note_on,,,,,0,0,1,,,0,,,91,54
313510,note_off,,,,,70,0,1,,,0,,,94,64
313520,note_off,,,,,80,0,2,,,0,,,52,64
313520,note_on,,,,,0,0,2,,,0,,,55,40
313560,note_off,,,,,50,0,1,,,0,,,91,64
313560,note_on,,,,,0,0,1,,,0,,,88,52
313570,set_tempo,,,,,100,1,0,495868,,,,,,
313600,note_on,,,,,0,0,2,,,0,,,60,36
313600,note_off,,,,,80,0,2,,,0,,,55,64
313620,note_off,,,,,60,0,1,,,0,,,88,64
313620,note_on,,,,,0,0,1,,,0,,,82,50
313680,set_tempo,,,,,110,1,0,428571,,,,,,
313680,note_off,,,,,60,0,1,,,0,,,82,64
313680,note_on,,,,,0,0,1,,,0,,,79,48
313680,note_off,,,,,80,0,2,,,0,,,60,64
313680,note_on,,,,,0,0,2,,,0,,,52,33
313760,note_on,,,,,0,0,2,,,0,,,55,30
313760,note_on,,,,,0,0,1,,,0,,,76,44
313760,note_off,,,,,80,0,1,,,0,,,79,64
313760,note_off,,,,,80,0,2,,,0,,,52,64
313840,note_off,,,,,80,0,2,,,0,,,55,64
313840,note_on,,,,,0,0,2,,,0,,,60,26
313840,note_off,,,,,80,0,1,,,0,,,76,64
313840,note_on,,,,,0,0,1,,,0,,,70,40
313910,set_tempo,,,,,230,1,0,419580,,,,,,
313920,note_on,,,,,0,0,2,,,0,,,53,37
313920,note_off,,,,,80,0,1,,,0,,,70,64
313920,note_on,,,,,0,0,1,,,0,,,69,46
313920,set_tempo,,,,,10,1,0,600000,,,,,,
313920,note_off,,,,,80,0,2,,,0,,,60,64
313920,control_change,,,,,0,0,2,,,0,64,0,,
313950,set_tempo,,,,,30,1,0,422535,,,,,,
313960,set_tempo,,,,,10,1,0,428571,,,,,,
314000,note_on,,,,,0,0,2,,,0,,,57,36
314000,note_off,,,,,80,0,2,,,0,,,53,64
314080,note_on,,,,,0,0,2,,,0,,,60,30
314080,note_off,,,,,80,0,2,,,0,,,57,64
314160,note_on,,,,,0,0,2,,,0,,,53,42
314160,note_off,,,,,80,0,2,,,0,,,60,64
314200,set_tempo,,,,,240,1,0,444444,,,,,,
314220,note_off,,,,,300,0,1,,,0,,,69,64
314240,note_on,,,,,0,0,2,,,0,,,57,35
314240,note_off,,,,,80,0,2,,,0,,,53,64
314320,note_on,,,,,100,0,1,,,0,,,93,60
314320,note_off,,,,,80,0,2,,,0,,,57,64
314320,note_on,,,,,0,0,2,,,0,,,60,31
314400,note_off,,,,,80,0,1,,,0,,,93,64
314400,note_on,,,,,0,0,1,,,0,,,94,66
314400,note_off,,,,,80,0,2,,,0,,,60,64
314400,control_change,,,,,0,0,2,,,0,64,127,,
314400,note_on,,,,,0,0,2,,,0,,,52,48
314470,note_off,,,,,70,0,1,,,0,,,94,64
314470,note_on,,,,,0,0,1,,,0,,,91,55
314480,note_off,,,,,80,0,2,,,0,,,52,64
314480,note_on,,,,,0,0,2,,,0,,,55,50
314520,note_off,,,,,50,0,1,,,0,,,91,64
314520,note_on,,,,,0,0,1,,,0,,,88,53
314560,note_off,,,,,80,0,2,,,0,,,55,64
314560,note_on,,,,,0,0,2,,,0,,,60,52
314580,note_on,,,,,0,0,1,,,0,,,82,51
314580,note_off,,,,,60,0,1,,,0,,,88,64
314600,set_tempo,,,,,400,1,0,425532,,,,,,
314640,note_off,,,,,80,0,2,,,0,,,60,64
314640,note_on,,,,,0,0,1,,,0,,,79,52
314640,note_on,,,,,0,0,2,,,0,,,52,53
314640,note_off,,,,,60,0,1,,,0,,,82,64
314720,note_on,,,,,0,0,2,,,0,,,55,55
314720,note_off,,,,,80,0,1,,,0,,,79,64
314720,note_on,,,,,0,0,1,,,0,,,76,56
314720,note_off,,,,,80,0,2,,,0,,,52,64
314800,note_off,,,,,80,0,1,,,0,,,76,64
314800,note_on,,,,,0,0,1,,,0,,,70,59
314800,note_off,,,,,80,0,2,,,0,,,55,64
314800,note_on,,,,,0,0,2,,,0,,,60,49
314880,note_off,,,,,80,0,1,,,0,,,70,64
314880,note_on,,,,,0,0,2,,,0,,,53,60
314880,control_change,,,,,0,0,2,,,0,64,0,,
314880,note_off,,,,,80,0,2,,,0,,,60,64
314880,set_tempo,,,,,280,1,0,410959,,,,,,
314880,note_on,,,,,0,0,1,,,0,,,69,62
314960,note_off,,,,,80,0,2,,,0,,,53,64
314960,note_on,,,,,0,0,2,,,0,,,57,56
315040,note_on,,,,,0,0,2,,,0,,,60,52
315040,note_off,,,,,80,0,2,,,0,,,57,64
315120,note_on,,,,,0,0,2,,,0,,,53,62
315120,control_change,,,,,0,0,2,,,0,64,127,,
315120,note_off,,,,,80,0,2,,,0,,,60,64
315180,note_off,,,,,300,0,1,,,0,,,69,64
315200,note_on,,,,,0,0,2,,,0,,,57,58
315200,note_off,,,,,80,0,2,,,0,,,53,64
315260,set_tempo,,,,,380,1,0,397351,,,,,,
315280,note_on,,,,,100,0,1,,,0,,,93,75
315280,note_on,,,,,0,0,2,,,0,,,60,54
315280,note_off,,,,,80,0,2,,,0,,,57,64
315360,note_off,,,,,80,0,2,,,0,,,60,64
315360,note_on,,,,,0,0,2,,,0,,,52,64
315360,note_off,,,,,80,0,1,,,0,,,93,64
315360,note_on,,,,,0,0,1,,,0,,,94,80
315430,note_off,,,,,70,0,1,,,0,,,94,64
315430,note_on,,,,,0,0,1,,,0,,,91,74
315440,note_on,,,,,0,0,2,,,0,,,55,60
315440,note_off,,,,,80,0,2,,,0,,,52,64
315480,note_on,,,,,0,0,1,,,0,,,88,71
315480,note_off,,,,,50,0,1,,,0,,,91,64
315520,note_on,,,,,0,0,2,,,0,,,60,58
315520,note_off,,,,,80,0,2,,,0,,,55,64
315540,note_on,,,,,0,0,1,,,0,,,82,68
315540,note_off,,,,,60,0,1,,,0,,,88,64
315600,note_on,,,,,0,0,1,,,0,,,79,67
315600,note_off,,,,,60,0,1,,,0,,,82,64
315600,note_off,,,,,80,0,2,,,0,,,60,64
315600,note_on,,,,,0,0,2,,,0,,,52,60
315680,note_on,,,,,0,0,2,,,0,,,55,67
315680,note_off,,,,,80,0,1,,,0,,,79,64
315680,note_on,,,,,0,0,1,,,0,,,76,72
315680,note_off,,,,,80,0,2,,,0,,,52,64
315760,note_on,,,,,0,0,2,,,0,,,60,72
315760,note_on,,,,,0,0,1,,,0,,,70,76
315760,note_off,,,,,80,0,1,,,0,,,76,64
315760,note_off,,,,,80,0,2,,,0,,,55,64
315840,control_change,,,,,0,0,2,,,0,64,0,,
315840,note_off,,,,,80,0,2,,,0,,,60,64
315840,note_on,,,,,0,0,2,,,0,,,53,60
315840,control_change,,,,,0,0,2,,,0,64,0,,
315840,note_off,,,,,80,0,1,,,0,,,70,64
315840,note_on,,,,,0,0,1,,,0,,,69,62
315880,set_tempo,,,,,620,1,0,410959,,,,,,
315920,note_on,,,,,0,0,2,,,0,,,57,56
315920,note_off,,,,,80,0,2,,,0,,,53,64
316000,note_off,,,,,80,0,2,,,0,,,57,64
316000,note_on,,,,,0,0,2,,,0,,,60,52
316020,note_off,,,,,180,0,1,,,0,,,69,64
316080,control_change,,,,,0,0,2,,,0,64,127,,
316080,note_on,,,,,0,0,2,,,0,,,53,72
316080,note_off,,,,,80,0,2,,,0,,,60,64
316080,note_on,,,,,60,0,1,,,0,,,81,70
316100,set_tempo,,,,,220,1,0,428571,,,,,,
316160,note_off,,,,,80,0,2,,,0,,,53,64
316160,note_on,,,,,0,0,2,,,0,,,57,58
316160,note_on,,,,,0,0,1,,,0,,,69,56
316160,note_off,,,,,80,0,1,,,0,,,81,64
316240,note_off,,,,,80,0,2,,,0,,,57,64
316240,note_on,,,,,0,0,2,,,0,,,60,54
316240,note_on,,,,,0,0,1,,,0,,,81,52
316240,note_off,,,,,80,0,1,,,0,,,69,64
316306,control_change,,,,,66,0,2,,,0,64,0,,
316320,note_on,,,,,0,0,1,,,0,,,82,81
316320,set_tempo,,,,,220,1,0,405405,,,,,,
316320,note_off,,,,,80,0,1,,,0,,,81,64
316320,note_off,,,,,14,0,2,,,0,,,60,64
316320,note_on,,,,,0,0,2,,,0,,,52,70
316320,control_change,,,,,0,0,2,,,0,64,127,,
316400,note_on,,,,,0,0,2,,,0,,,55,56
316400,note_on,,,,,0,0,1,,,0,,,70,66
316400,note_off,,,,,80,0,1,,,0,,,82,64
316400,note_off,,,,,80,0,2,,,0,,,52,64
316480,note_on,,,,,0,0,2,,,0,,,60,52
316480,note_off,,,,,80,0,2,,,0,,,55,64
316480,note_on,,,,,0,0,1,,,0,,,82,61
316480,note_off,,,,,80,0,1,,,0,,,70,64
316546,control_change,,,,,66,0,2,,,0,64,0,,
316560,note_on,,,,,0,0,1,,,0,,,83,88
316560,note_off,,,,,80,0,1,,,0,,,82,64
316560,note_off,,,,,14,0,2,,,0,,,60,64
316560,note_on,,,,,0,0,2,,,0,,,52,81
316560,control_change,,,,,0,0,2,,,0,64,127,,
316640,note_off,,,,,80,0,1,,,0,,,83,64
316640,note_off,,,,,80,0,2,,,0,,,52,64
316640,note_on,,,,,0,0,2,,,0,,,55,66
316640,note_on,,,,,0,0,1,,,0,,,71,73
316720,note_off,,,,,80,0,1,,,0,,,71,64
316720,note_on,,,,,0,0,1,,,0,,,83,71
316720,note_on,,,,,0,0,2,,,0,,,59,61
316720,note_off,,,,,80,0,2,,,0,,,55,64
316786,control_change,,,,,66,0,2,,,0,64,0,,
316800,note_off,,,,,14,0,2,,,0,,,59,64
316800,note_on,,,,,0,0,2,,,0,,,52,88
316800,control_change,,,,,0,0,2,,,0,64,127,,
316800,note_on,,,,,0,0,1,,,0,,,84,88
316800,note_off,,,,,80,0,1,,,0,,,83,64
316880,note_off,,,,,80,0,2,,,0,,,52,64
316880,note_on,,,,,0,0,2,,,0,,,55,73
316880,note_on,,,,,0,0,1,,,0,,,72,73
316880,note_off,,,,,80,0,1,,,0,,,84,64
316960,note_on,,,,,0,0,1,,,0,,,84,71
316960,note_on,,,,,0,0,2,,,0,,,58,71
316960,note_off,,,,,80,0,2,,,0,,,55,64
316960,note_off,,,,,80,0,1,,,0,,,72,64
317026,control_change,,,,,66,0,2,,,0,64,0,,
317026,control_change,,,,,0,0,2,,,0,64,0,,
317040,note_off,,,,,14,0,2,,,0,,,58,64
317040,note_on,,,,,0,0,1,,,0,,,85,100
317040,note_on,,,,,0,0,2,,,0,,,52,100
317040,control_change,,,,,0,0,2,,,0,64,127,,
317040,note_off,,,,,80,0,1,,,0,,,84,64
317120,note_off,,,,,80,0,1,,,0,,,85,64
317120,note_on,,,,,0,0,1,,,0,,,73,82
317120,note_off,,,,,80,0,2,,,0,,,52,64
317120,note_on,,,,,0,0,2,,,0,,,55,82
317140,set_tempo,,,,,820,1,0,419580,,,,,,
317200,note_on,,,,,0,0,1,,,0,,,85,77
317200,note_off,,,,,80,0,1,,,0,,,73,64
317200,note_off,,,,,80,0,2,,,0,,,55,64
317200,note_on,,,,,0,0,2,,,0,,,57,77
317266,control_change,,,,,66,0,2,,,0,64,0,,
317266,control_change,,,,,0,0,2,,,0,64,0,,
317266,control_change,,,,,0,0,2,,,0,64,0,,
317280,note_on,,,,,0,0,1,,,0,,,86,106
317280,note_off,,,,,80,0,1,,,0,,,85,64
317280,note_off,,,,,14,0,2,,,0,,,57,64
317280,control_change,,,,,0,0,2,,,0,64,127,,
317280,note_on,,,,,0,0,2,,,0,,,53,106
317320,set_tempo,,,,,180,1,0,441176,,,,,,
317360,note_off,,,,,80,0,1,,,0,,,86,64
317360,note_off,,,,,80,0,2,,,0,,,53,64
317360,note_on,,,,,0,0,2,,,0,,,57,89
317360,note_on,,,,,0,0,1,,,0,,,74,89
317440,note_on,,,,,0,0,2,,,0,,,62,84
317440,note_off,,,,,80,0,2,,,0,,,57,64
317440,note_on,,,,,0,0,1,,,0,,,86,84
317440,note_off,,,,,80,0,1,,,0,,,74,64
317480,set_tempo,,,,,160,1,0,468750,,,,,,
317506,control_change,,,,,0,0,2,,,0,64,0,,
317506,control_change,,,,,66,0,2,,,0,64,0,,
317506,control_change,,,,,0,0,2,,,0,64,0,,
317520,note_off,,,,,14,0,2,,,0,,,62,64
317520,control_change,,,,,0,0,2,,,0,64,127,,
317520,note_on,,,,,0,0,2,,,0,,,54,108
317520,note_off,,,,,80,0,1,,,0,,,86,64
317520,note_on,,,,,0,0,1,,,0,,,87,108
317540,set_tempo,,,,,60,1,0,495868,,,,,,
317600,note_on,,,,,0,0,2,,,0,,,57,100
317600,note_off,,,,,80,0,2,,,0,,,54,64
317600,note_on,,,,,0,0,1,,,0,,,75,100
317600,note_off,,,,,80,0,1,,,0,,,87,64
317620,set_tempo,,,,,80,1,0,540541,,,,,,
317680,note_on,,,,,0,0,2,,,0,,,60,107
317680,note_off,,,,,80,0,2,,,0,,,57,64
317680,note_off,,,,,80,0,1,,,0,,,75,64
317680,note_on,,,,,0,0,1,,,0,,,87,107
317680,set_tempo,,,,,60,1,0,600000,,,,,,
317746,control_change,,,,,66,0,2,,,0,64,0,,
317760,note_on,,,,,0,0,1,,,0,,,88,113
317760,note_off,,,,,80,0,1,,,0,,,87,64
317760,note_on,,,,,0,0,2,,,0,,,61,116
317760,note_on,,,,,0,0,2,,,0,,,57,116
317760,note_on,,,,,0,0,2,,,0,,,52,116
317760,note_off,,,,,14,0,2,,,0,,,60,64
317780,set_tempo,,,,,100,1,0,530973,,,,,,
317840,set_tempo,,,,,60,1,0,465116,,,,,,
317840,note_off,,,,,80,0,1,,,0,,,88,64
317840,note_on,,,,,0,0,1,,,0,,,85,105
317908,note_off,,,,,68,0,1,,,0,,,85,64
317920,note_on,,,,,12,0,1,,,0,,,81,95
317980,set_tempo,,,,,140,1,0,451128,,,,,,
317988,note_off,,,,,68,0,1,,,0,,,81,64
318000,note_on,,,,,12,0,1,,,0,,,76,87
318068,note_off,,,,,68,0,1,,,0,,,76,64
318080,note_on,,,,,12,0,1,,,0,,,73,79
318148,note_off,,,,,68,0,1,,,0,,,73,64
318160,note_on,,,,,12,0,1,,,0,,,69,72
318228,note_off,,,,,68,0,1,,,0,,,69,64
318240,note_off,,,,,0,0,2,,,0,,,61,64
318240,note_off,,,,,0,0,2,,,0,,,57,64
318240,note_on,,,,,12,0,1,,,0,,,76,83
318240,note_off,,,,,480,0,2,,,0,,,52,64
318240,note_on,,,,,0,0,2,,,0,,,64,79
318308,note_off,,,,,68,0,1,,,0,,,76,64
318308,note_off,,,,,68,0,2,,,0,,,64,64
318320,note_on,,,,,12,0,1,,,0,,,73,80
318320,set_tempo,,,,,340,1,0,444444,,,,,,
318320,note_on,,,,,12,0,2,,,0,,,61,75
318388,note_off,,,,,68,0,1,,,0,,,73,64
318388,note_off,,,,,68,0,2,,,0,,,61,64
318400,note_on,,,,,12,0,2,,,0,,,57,70
318400,note_on,,,,,12,0,1,,,0,,,69,76
318468,note_off,,,,,68,0,1,,,0,,,69,64
318468,note_off,,,,,68,0,2,,,0,,,57,64
318480,note_on,,,,,12,0,2,,,0,,,52,66
318480,note_on,,,,,12,0,1,,,0,,,64,70
318540,set_tempo,,,,,220,1,0,447761,,,,,,
318548,note_off,,,,,68,0,2,,,0,,,52,64
318548,note_off,,,,,68,0,1,,,0,,,64,64
318560,note_on,,,,,12,0,2,,,0,,,49,61
318560,note_on,,,,,12,0,1,,,0,,,61,64
318628,note_off,,,,,68,0,2,,,0,,,49,64
318628,note_off,,,,,68,0,1,,,0,,,61,64
318640,note_on,,,,,12,0,2,,,0,,,45,55
318640,note_on,,,,,12,0,1,,,0,,,57,58
318708,note_off,,,,,68,0,1,,,0,,,57,64
318708,note_off,,,,,68,0,2,,,0,,,45,64
318720,note_on,,,,,12,0,2,,,0,,,40,69
318720,note_on,,,,,12,0,1,,,0,,,52,65
318800,set_tempo,,,,,260,1,0,465116,,,,,,
318840,note_off,,,,,120,0,1,,,0,,,52,64
318840,note_off,,,,,120,0,2,,,0,,,40,64
318920,set_tempo,,,,,120,1,0,480000,,,,,,
318940,set_tempo,,,,,20,1,0,483871,,,,,,
318960,note_on,,,,,0,0,1,,,0,,,73,77
318960,note_on,,,,,0,0,2,,,0,,,57,77
318960,control_change,,,,,120,0,2,,,0,64,127,,
318960,note_on,,,,,0,0,1,,,0,,,69,77
318960,note_on,,,,,0,0,2,,,0,,,61,77
318960,note_on,,,,,0,0,2,,,0,,,52,77
318960,set_tempo,,,,,20,1,0,487805,,,,,,
318960,note_on,,,,,120,0,1,,,0,,,64,77
319060,set_tempo,,,,,100,1,0,517241,,,,,,
319300,set_tempo,,,,,240,1,0,535714,,,,,,
319440,note_off,,,,,480,0,2,,,0,,,61,64
319440,note_off,,,,,0,0,2,,,0,,,52,64
319440,note_off,,,,,0,0,2,,,0,,,57,64
319440,note_on,,,,,0,0,2,,,0,,,56,54
319440,note_on,,,,,0,0,2,,,0,,,59,54
319440,note_on,,,,,0,0,2,,,0,,,52,54
319440,control_change,,,,,0,0,2,,,0,64,0,,
319440,note_off,,,,,0,0,1,,,0,,,64,64
319440,set_tempo,,,,,140,1,0,566038,,,,,,
319440,note_off,,,,,480,0,1,,,0,,,73,64
319440,note_on,,,,,0,0,1,,,0,,,64,54
319440,note_on,,,,,0,0,1,,,0,,,68,54
319440,note_on,,,,,0,0,1,,,0,,,71,54
319440,note_off,,,,,0,0,1,,,0,,,69,64
319520,set_tempo,,,,,80,1,0,588235,,,,,,
319680,note_off,,,,,240,0,2,,,0,,,52,64
319680,note_off,,,,,0,0,2,,,0,,,59,64
319680,note_off,,,,,0,0,2,,,0,,,56,64
319680,note_on,,,,,0,0,2,,,0,,,57,58
319680,note_on,,,,,0,0,2,,,0,,,45,58
319680,note_off,,,,,240,0,1,,,0,,,64,64
319680,note_off,,,,,0,0,1,,,0,,,68,64
319680,note_off,,,,,0,0,1,,,0,,,71,64
319680,note_on,,,,,0,0,1,,,0,,,69,47
319760,note_off,,,,,80,0,1,,,0,,,69,64
319760,note_on,,,,,0,0,1,,,0,,,64,44
319840,note_on,,,,,0,0,1,,,0,,,61,39
319840,note_off,,,,,80,0,1,,,0,,,64,64
319880,set_tempo,,,,,360,1,0,555556,,,,,,
319920,note_on,,,,,0,0,1,,,0,,,64,36
319920,note_off,,,,,80,0,1,,,0,,,61,64
319920,note_off,,,,,240,0,2,,,0,,,45,64
319920,note_off,,,,,0,0,2,,,0,,,57,64
319960,set_tempo,,,,,80,1,0,600000,,,,,,
319980,set_tempo,,,,,20,1,0,555556,,,,,,
320000,note_off,,,,,80,0,1,,,0,,,64,64
320000,note_on,,,,,0,0,1,,,0,,,69,35
320040,set_tempo,,,,,60,1,0,526316,,,,,,
320080,note_on,,,,,0,0,1,,,0,,,73,38
320080,note_off,,,,,80,0,1,,,0,,,69,64
320160,note_on,,,,,0,0,1,,,0,,,76,41
320160,note_off,,,,,80,0,1,,,0,,,73,64
320160,note_on,,,,,0,0,2,,,0,,,64,32
320160,note_on,,,,,240,0,2,,,0,,,57,32
320160,note_on,,,,,0,0,2,,,0,,,61,32
320220,set_tempo,,,,,180,1,0,508475,,,,,,
320240,note_off,,,,,80,0,1,,,0,,,76,64
320240,note_on,,,,,0,0,1,,,0,,,73,34
320320,note_on,,,,,0,0,1,,,0,,,69,31
320320,note_off,,,,,80,0,1,,,0,,,73,64
320340,note_off,,,,,180,0,2,,,0,,,64,64
320340,note_off,,,,,0,0,2,,,0,,,61,64
320340,note_off,,,,,0,0,2,,,0,,,57,64
320340,set_tempo,,,,,120,1,0,480000,,,,,,
320400,note_on,,,,,0,0,2,,,0,,,64,36
320400,note_off,,,,,80,0,1,,,0,,,69,64
320400,note_on,,,,,0,0,2,,,0,,,61,36
320400,note_on,,,,,60,0,2,,,0,,,57,36
320400,note_on,,,,,0,0,1,,,0,,,76,35
320480,set_tempo,,,,,140,1,0,461538,,,,,,
320480,note_on,,,,,0,0,1,,,0,,,73,34
320480,note_off,,,,,80,0,1,,,0,,,76,64
320560,note_off,,,,,80,0,1,,,0,,,73,64
320560,note_on,,,,,0,0,1,,,0,,,69,38
320580,note_off,,,,,0,0,2,,,0,,,57,64
320580,note_off,,,,,0,0,2,,,0,,,61,64
320580,note_off,,,,,180,0,2,,,0,,,64,64
320640,note_on,,,,,0,0,2,,,0,,,62,48
320640,control_change,,,,,60,0,2,,,0,64,127,,
320640,note_on,,,,,0,0,2,,,0,,,57,48
320640,note_on,,,,,0,0,2,,,0,,,64,48
320640,note_on,,,,,0,0,1,,,0,,,68,44
320640,note_off,,,,,80,0,1,,,0,,,69,64
320660,set_tempo,,,,,180,1,0,555556,,,,,,
320720,note_on,,,,,0,0,1,,,0,,,71,39
320720,set_tempo,,,,,60,1,0,487805,,,,,,
320720,note_off,,,,,80,0,1,,,0,,,68,64
320780,set_tempo,,,,,60,1,0,465116,,,,,,
320800,note_off,,,,,80,0,1,,,0,,,71,64
320800,note_on,,,,,0,0,1,,,0,,,76,31
320880,note_off,,,,,80,0,1,,,0,,,76,64
320880,note_on,,,,,0,0,1,,,0,,,68,32
320920,set_tempo,,,,,140,1,0,447761,,,,,,
320960,note_on,,,,,0,0,1,,,0,,,71,35
320960,note_off,,,,,80,0,1,,,0,,,68,64
321040,note_on,,,,,0,0,1,,,0,,,76,38
321040,note_off,,,,,80,0,1,,,0,,,71,64
321072,note_off,,,,,0,0,2,,,0,,,62,64
321072,note_off,,,,,432,0,2,,,0,,,57,64
321072,note_off,,,,,0,0,2,,,0,,,64,64
321100,note_off,,,,,60,0,1,,,0,,,76,64
321120,note_on,,,,,0,0,2,,,0,,,57,40
321120,note_on,,,,,0,0,2,,,0,,,62,40
321120,control_change,,,,,48,0,2,,,0,64,0,,
321120,note_on,,,,,0,0,2,,,0,,,64,40
321120,note_on,,,,,20,0,1,,,0,,,76,43
321200,note_off,,,,,80,0,1,,,0,,,76,64
321200,note_on,,,,,0,0,1,,,0,,,80,34
321260,set_tempo,,,,,340,1,0,461538,,,,,,
321280,note_on,,,,,0,0,1,,,0,,,83,38
321280,set_tempo,,,,,20,1,0,465116,,,,,,
321280,note_off,,,,,80,0,1,,,0,,,80,64
321300,note_off,,,,,180,0,2,,,0,,,64,64
321300,note_off,,,,,0,0,2,,,0,,,57,64
321300,note_off,,,,,0,0,2,,,0,,,62,64
321360,note_on,,,,,0,0,2,,,0,,,64,38
321360,note_on,,,,,0,0,2,,,0,,,62,38
321360,note_on,,,,,60,0,2,,,0,,,57,38
321360,note_off,,,,,80,0,1,,,0,,,83,64
321360,note_on,,,,,0,0,1,,,0,,,88,43
321440,note_off,,,,,80,0,1,,,0,,,88,64
321440,note_on,,,,,0,0,1,,,0,,,92,48
321520,note_off,,,,,80,0,1,,,0,,,92,64
321520,note_on,,,,,0,0,1,,,0,,,95,55
321540,note_off,,,,,0,0,2,,,0,,,62,64
321540,note_off,,,,,0,0,2,,,0,,,57,64
321540,note_off,,,,,180,0,2,,,0,,,64,64
321600,note_off,,,,,80,0,1,,,0,,,95,64
321600,note_on,,,,,0,0,2,,,0,,,57,44
321600,note_on,,,,,0,0,2,,,0,,,61,44
321600,note_on,,,,,0,0,2,,,0,,,64,44
321600,control_change,,,,,60,0,2,,,0,64,127,,
321600,note_on,,,,,0,0,1,,,0,,,93,59
321640,set_tempo,,,,,360,1,0,491803,,,,,,
321680,note_off,,,,,80,0,1,,,0,,,93,64
321680,note_on,,,,,0,0,1,,,0,,,88,59
321760,note_off,,,,,80,0,1,,,0,,,88,64
321760,note_on,,,,,0,0,1,,,0,,,85,55
321840,note_off,,,,,80,0,1,,,0,,,85,64
321840,note_on,,,,,0,0,1,,,0,,,81,51
321920,note_off,,,,,80,0,1,,,0,,,81,64
321920,note_on,,,,,0,0,1,,,0,,,76,44
322000,note_on,,,,,0,0,1,,,0,,,73,34
322000,note_off,,,,,80,0,1,,,0,,,76,64
322020,set_tempo,,,,,380,1,0,512821,,,,,,
322032,note_off,,,,,0,0,2,,,0,,,61,64
322032,note_off,,,,,432,0,2,,,0,,,57,64
322032,note_off,,,,,0,0,2,,,0,,,64,64
322080,control_change,,,,,48,0,2,,,0,64,0,,
322080,note_on,,,,,0,0,2,,,0,,,57,39
322080,note_on,,,,,0,0,1,,,0,,,76,41
322080,note_off,,,,,80,0,1,,,0,,,73,64
322080,note_on,,,,,0,0,2,,,0,,,64,39
322080,note_on,,,,,0,0,2,,,0,,,61,39
322160,note_off,,,,,80,0,1,,,0,,,76,64
322160,note_on,,,,,0,0,1,,,0,,,73,34
322180,set_tempo,,,,,160,1,0,487805,,,,,,
322240,note_off,,,,,80,0,1,,,0,,,73,64
322240,note_on,,,,,0,0,1,,,0,,,69,31
322260,note_off,,,,,0,0,2,,,0,,,57,64
322260,note_off,,,,,180,0,2,,,0,,,64,64
322260,note_off,,,,,0,0,2,,,0,,,61,64
322320,note_on,,,,,0,0,2,,,0,,,61,34
322320,note_on,,,,,0,0,2,,,0,,,64,34
322320,note_off,,,,,80,0,1,,,0,,,69,64
322320,note_on,,,,,0,0,1,,,0,,,76,35
322320,note_on,,,,,60,0,2,,,0,,,57,34
322340,set_tempo,,,,,160,1,0,472441,,,,,,
322400,note_off,,,,,80,0,1,,,0,,,76,64
322400,note_on,,,,,0,0,1,,,0,,,73,34
322480,note_off,,,,,80,0,1,,,0,,,73,64
322480,note_on,,,,,0,0,1,,,0,,,69,38
322500,note_off,,,,,180,0,2,,,0,,,64,64
322500,note_off,,,,,0,0,2,,,0,,,61,64
322500,note_off,,,,,0,0,2,,,0,,,57,64
322560,control_change,,,,,60,0,2,,,0,64,127,,
322560,note_on,,,,,0,0,2,,,0,,,64,48
322560,note_on,,,,,0,0,2,,,0,,,62,48
322560,note_off,,,,,80,0,1,,,0,,,69,64
322560,note_on,,,,,0,0,1,,,0,,,68,44
322560,note_on,,,,,0,0,2,,,0,,,57,48
322580,set_tempo,,,,,240,1,0,555556,,,,,,
322640,note_off,,,,,80,0,1,,,0,,,68,64
322640,note_on,,,,,0,0,1,,,0,,,71,39
322640,set_tempo,,,,,60,1,0,480000,,,,,,
322720,note_off,,,,,80,0,1,,,0,,,71,64
322720,note_on,,,,,0,0,1,,,0,,,76,31
322760,set_tempo,,,,,120,1,0,461538,,,,,,
322800,note_off,,,,,80,0,1,,,0,,,76,64
322800,note_on,,,,,0,0,1,,,0,,,68,32
322860,set_tempo,,,,,100,1,0,447761,,,,,,
322880,note_off,,,,,80,0,1,,,0,,,68,64
322880,note_on,,,,,0,0,1,,,0,,,71,35
322900,set_tempo,,,,,40,1,0,444444,,,,,,
322960,note_on,,,,,0,0,1,,,0,,,76,38
322960,note_off,,,,,80,0,1,,,0,,,71,64
322992,note_off,,,,,0,0,2,,,0,,,64,64
322992,note_off,,,,,432,0,2,,,0,,,57,64
322992,note_off,,,,,0,0,2,,,0,,,62,64
323020,note_off,,,,,60,0,1,,,0,,,76,64
323040,note_on,,,,,0,0,2,,,0,,,62,50
323040,note_on,,,,,0,0,2,,,0,,,64,50
323040,note_on,,,,,20,0,1,,,0,,,76,43
323040,control_change,,,,,48,0,2,,,0,64,0,,
323040,note_on,,,,,0,0,2,,,0,,,57,50
323120,note_on,,,,,0,0,1,,,0,,,80,34
323120,note_off,,,,,80,0,1,,,0,,,76,64
323160,set_tempo,,,,,260,1,0,461538,,,,,,
323200,note_on,,,,,0,0,1,,,0,,,83,35
323200,note_off,,,,,80,0,1,,,0,,,80,64
323220,note_off,,,,,180,0,2,,,0,,,64,64
323220,note_off,,,,,0,0,2,,,0,,,57,64
323220,note_off,,,,,0,0,2,,,0,,,62,64
323280,note_on,,,,,0,0,1,,,0,,,88,38
323280,note_off,,,,,80,0,1,,,0,,,83,64
323280,note_on,,,,,0,0,2,,,0,,,62,45
323280,note_on,,,,,60,0,2,,,0,,,57,45
323280,note_on,,,,,0,0,2,,,0,,,64,45
323360,note_off,,,,,80,0,1,,,0,,,88,64
323360,note_on,,,,,0,0,1,,,0,,,92,43
323440,note_off,,,,,80,0,1,,,0,,,92,64
323440,note_on,,,,,0,0,1,,,0,,,95,47
323460,note_off,,,,,180,0,2,,,0,,,64,64
323460,note_off,,,,,0,0,2,,,0,,,62,64
323460,note_off,,,,,0,0,2,,,0,,,57,64
323480,set_tempo,,,,,320,1,0,476190,,,,,,
323520,note_on,,,,,0,0,2,,,0,,,57,60
323520,note_on,,,,,0,0,1,,,0,,,93,53
323520,note_off,,,,,80,0,1,,,0,,,95,64
323520,control_change,,,,,60,0,2,,,0,64,127,,
323520,note_on,,,,,0,0,2,,,0,,,64,60
323520,note_on,,,,,0,0,2,,,0,,,61,60
323600,note_on,,,,,0,0,1,,,0,,,88,53
323600,note_off,,,,,80,0,1,,,0,,,93,64
323640,set_tempo,,,,,160,1,0,491803,,,,,,
323680,note_on,,,,,0,0,1,,,0,,,85,49
323680,note_off,,,,,80,0,1,,,0,,,88,64
323760,note_off,,,,,80,0,1,,,0,,,85,64
323760,note_on,,,,,0,0,1,,,0,,,81,47
323840,note_off,,,,,80,0,1,,,0,,,81,64
323840,note_on,,,,,0,0,1,,,0,,,76,51
323920,note_off,,,,,80,0,1,,,0,,,76,64
323920,note_on,,,,,0,0,1,,,0,,,73,54
323952,note_off,,,,,0,0,2,,,0,,,64,64
323952,note_off,,,,,0,0,2,,,0,,,61,64
323952,note_off,,,,,432,0,2,,,0,,,57,64
323960,set_tempo,,,,,320,1,0,468750,,,,,,
324000,note_on,,,,,0,0,2,,,0,,,57,53
324000,note_on,,,,,0,0,2,,,0,,,62,53
324000,note_on,,,,,0,0,1,,,0,,,76,69
324000,note_off,,,,,80,0,1,,,0,,,73,64
324000,note_on,,,,,0,0,2,,,0,,,64,53
324000,control_change,,,,,48,0,2,,,0,64,0,,
324080,note_on,,,,,0,0,1,,,0,,,80,56
324080,note_off,,,,,80,0,1,,,0,,,76,64
324160,note_off,,,,,80,0,1,,,0,,,80,64
324160,set_tempo,,,,,200,1,0,458015,,,,,,
324160,note_on,,,,,0,0,1,,,0,,,83,63
324180,note_off,,,,,180,0,2,,,0,,,64,64
324180,note_off,,,,,0,0,2,,,0,,,62,64
324180,note_off,,,,,0,0,2,,,0,,,57,64
324240,note_on,,,,,0,0,1,,,0,,,88,68
324240,note_on,,,,,60,0,2,,,0,,,57,50
324240,note_on,,,,,0,0,2,,,0,,,62,50
324240,note_on,,,,,0,0,2,,,0,,,64,50
324240,note_off,,,,,80,0,1,,,0,,,83,64
324320,note_on,,,,,0,0,1,,,0,,,92,75
324320,note_off,,,,,80,0,1,,,0,,,88,64
324400,note_on,,,,,0,0,1,,,0,,,95,80
324400,note_off,,,,,80,0,1,,,0,,,92,64
324420,note_off,,,,,0,0,2,,,0,,,57,64
324420,note_off,,,,,0,0,2,,,0,,,62,64
324420,note_off,,,,,180,0,2,,,0,,,64,64
324440,set_tempo,,,,,280,1,0,441176,,,,,,
324480,note_off,,,,,80,0,1,,,0,,,95,64
324480,note_on,,,,,0,0,1,,,0,,,93,85
324480,note_on,,,,,0,0,2,,,0,,,57,62
324480,note_on,,,,,0,0,2,,,0,,,61,62
324480,note_on,,,,,0,0,2,,,0,,,64,62
324480,control_change,,,,,60,0,2,,,0,64,127,,
324560,note_on,,,,,0,0,1,,,0,,,88,83
324560,note_off,,,,,80,0,1,,,0,,,93,64
324640,note_off,,,,,80,0,1,,,0,,,88,64
324640,note_on,,,,,0,0,1,,,0,,,85,79
324720,note_off,,,,,80,0,1,,,0,,,85,64
324720,note_on,,,,,0,0,1,,,0,,,81,75
324800,note_off,,,,,80,0,1,,,0,,,81,64
324800,note_on,,,,,0,0,1,,,0,,,76,73
324840,set_tempo,,,,,400,1,0,428571,,,,,,
324880,note_off,,,,,80,0,1,,,0,,,76,64
324880,note_on,,,,,0,0,1,,,0,,,73,72
324912,note_off,,,,,0,0,2,,,0,,,64,64
324912,note_off,,,,,0,0,2,,,0,,,61,64
324912,note_off,,,,,432,0,2,,,0,,,57,64
324960,note_on,,,,,0,0,2,,,0,,,62,69
324960,note_on,,,,,0,0,1,,,0,,,76,83
324960,note_off,,,,,80,0,1,,,0,,,73,64
324960,control_change,,,,,48,0,2,,,0,64,0,,
324960,note_on,,,,,0,0,2,,,0,,,64,69
324960,note_on,,,,,0,0,2,,,0,,,57,69
325040,note_off,,,,,80,0,1,,,0,,,76,64
325040,note_on,,,,,0,0,1,,,0,,,80,74
325120,note_off,,,,,80,0,1,,,0,,,80,64
325120,note_on,,,,,0,0,1,,,0,,,83,81
325140,note_off,,,,,180,0,2,,,0,,,64,64
325140,note_off,,,,,0,0,2,,,0,,,62,64
325140,note_off,,,,,0,0,2,,,0,,,57,64
325200,note_on,,,,,0,0,2,,,0,,,64,63
325200,note_on,,,,,0,0,2,,,0,,,62,63
325200,note_on,,,,,60,0,2,,,0,,,57,63
325200,note_off,,,,,80,0,1,,,0,,,83,64
325200,note_on,,,,,0,0,1,,,0,,,88,88
325280,note_off,,,,,80,0,1,,,0,,,88,64
325280,note_on,,,,,0,0,1,,,0,,,92,94
325360,note_off,,,,,80,0,1,,,0,,,92,64
325360,note_on,,,,,0,0,1,,,0,,,95,101
325380,note_off,,,,,0,0,2,,,0,,,57,64
325380,note_off,,,,,180,0,2,,,0,,,64,64
325380,note_off,,,,,0,0,2,,,0,,,62,64
325440,note_off,,,,,80,0,1,,,0,,,95,64
325440,note_on,,,,,0,0,1,,,0,,,93,105
325440,note_on,,,,,0,0,2,,,0,,,57,79
325440,note_on,,,,,0,0,2,,,0,,,61,79
325440,control_change,,,,,60,0,2,,,0,64,127,,
325440,note_on,,,,,0,0,2,,,0,,,64,79
325520,note_off,,,,,80,0,1,,,0,,,93,64
325520,note_on,,,,,0,0,1,,,0,,,88,92
325600,note_off,,,,,80,0,1,,,0,,,88,64
325600,note_on,,,,,0,0,1,,,0,,,85,80
325680,note_on,,,,,0,0,1,,,0,,,81,67
325680,note_off,,,,,80,0,1,,,0,,,85,64
325760,note_off,,,,,80,0,1,,,0,,,81,64
325760,note_on,,,,,0,0,1,,,0,,,76,52
325840,note_off,,,,,80,0,1,,,0,,,76,64
325840,note_on,,,,,0,0,1,,,0,,,73,40
325872,note_off,,,,,432,0,2,,,0,,,57,64
325872,note_off,,,,,0,0,2,,,0,,,64,64
325872,note_off,,,,,0,0,2,,,0,,,61,64
325900,note_off,,,,,60,0,1,,,0,,,73,64
325920,note_on,,,,,48,0,2,,,0,,,52,45
325920,note_on,,,,,0,0,1,,,0,,,88,63
325920,note_on,,,,,0,0,1,,,0,,,86,63
325920,note_on,,,,,0,0,1,,,0,,,80,63
325920,control_change,,,,,20,0,1,,,0,64,0,,
326000,note_off,,,,,80,0,2,,,0,,,52,64
326000,note_on,,,,,0,0,2,,,0,,,56,33
326080,note_off,,,,,80,0,2,,,0,,,56,64
326080,note_on,,,,,0,0,2,,,0,,,59,39
326100,note_off,,,,,0,0,1,,,0,,,80,64
326100,note_off,,,,,180,0,1,,,0,,,88,64
326100,note_off,,,,,0,0,1,,,0,,,86,64
326160,note_off,,,,,80,0,2,,,0,,,59,64
326160,note_on,,,,,0,0,1,,,0,,,88,55
326160,note_on,,,,,0,0,1,,,0,,,86,55
326160,note_on,,,,,0,0,2,,,0,,,64,48
326160,note_on,,,,,60,0,1,,,0,,,80,55
326240,note_off,,,,,80,0,2,,,0,,,64,64
326240,note_on,,,,,0,0,2,,,0,,,68,51
326320,note_off,,,,,80,0,2,,,0,,,68,64
326320,note_on,,,,,0,0,2,,,0,,,71,56
326340,note_off,,,,,0,0,1,,,0,,,86,64
326340,note_off,,,,,0,0,1,,,0,,,80,64
326340,note_off,,,,,180,0,1,,,0,,,88,64
326400,note_on,,,,,0,0,1,,,0,,,88,67
326400,note_on,,,,,0,0,1,,,0,,,85,67
326400,note_on,,,,,0,0,2,,,0,,,69,63
326400,note_off,,,,,80,0,2,,,0,,,71,64
326400,note_on,,,,,0,0,1,,,0,,,81,67
326400,control_change,,,,,60,0,1,,,0,64,127,,
326480,note_on,,,,,0,0,2,,,0,,,64,57
326480,note_off,,,,,80,0,2,,,0,,,69,64
326560,note_on,,,,,0,0,2,,,0,,,61,50
326560,note_off,,,,,80,0,2,,,0,,,64,64
326640,note_off,,,,,80,0,2,,,0,,,61,64
326640,note_on,,,,,0,0,2,,,0,,,64,51
326660,set_tempo,,,,,1820,1,0,441176,,,,,,
326720,note_on,,,,,0,0,2,,,0,,,61,47
326720,note_off,,,,,80,0,2,,,0,,,64,64
326800,note_on,,,,,0,0,2,,,0,,,57,44
326800,note_off,,,,,80,0,2,,,0,,,61,64
326832,note_off,,,,,432,0,1,,,0,,,81,64
326832,note_off,,,,,0,0,1,,,0,,,88,64
326832,note_off,,,,,0,0,1,,,0,,,85,64
326880,control_change,,,,,48,0,1,,,0,64,0,,
326880,note_on,,,,,0,0,1,,,0,,,80,53
326880,note_on,,,,,0,0,2,,,0,,,52,44
326880,note_off,,,,,80,0,2,,,0,,,57,64
326880,note_on,,,,,0,0,1,,,0,,,86,53
326880,note_on,,,,,0,0,1,,,0,,,88,53
326960,note_off,,,,,80,0,2,,,0,,,52,64
326960,note_on,,,,,0,0,2,,,0,,,56,38
326980,set_tempo,,,,,320,1,0,461538,,,,,,
327040,note_off,,,,,80,0,2,,,0,,,56,64
327040,note_on,,,,,0,0,2,,,0,,,59,34
327060,note_off,,,,,0,0,1,,,0,,,86,64
327060,note_off,,,,,0,0,1,,,0,,,80,64
327060,note_off,,,,,180,0,1,,,0,,,88,64
327120,note_off,,,,,80,0,2,,,0,,,59,64
327120,note_on,,,,,0,0,2,,,0,,,64,33
327120,note_on,,,,,60,0,1,,,0,,,80,45
327120,note_on,,,,,0,0,1,,,0,,,88,45
327120,note_on,,,,,0,0,1,,,0,,,86,45
327200,note_off,,,,,80,0,2,,,0,,,64,64
327200,note_on,,,,,0,0,2,,,0,,,68,33
327280,note_off,,,,,80,0,2,,,0,,,68,64
327280,note_on,,,,,0,0,2,,,0,,,71,39
327300,note_off,,,,,0,0,1,,,0,,,80,64
327300,note_off,,,,,0,0,1,,,0,,,86,64
327300,note_off,,,,,180,0,1,,,0,,,88,64
327360,note_off,,,,,80,0,2,,,0,,,71,64
327360,note_on,,,,,0,0,1,,,0,,,88,49
327360,control_change,,,,,60,0,1,,,0,64,127,,
327360,note_on,,,,,0,0,1,,,0,,,81,49
327360,note_on,,,,,0,0,2,,,0,,,69,48
327360,note_on,,,,,0,0,1,,,0,,,85,49
327420,set_tempo,,,,,440,1,0,491803,,,,,,
327440,note_off,,,,,80,0,2,,,0,,,69,64
327440,note_on,,,,,0,0,2,,,0,,,64,46
327520,note_off,,,,,80,0,2,,,0,,,64,64
327520,note_on,,,,,0,0,2,,,0,,,61,38
327600,note_off,,,,,80,0,2,,,0,,,61,64
327600,note_on,,,,,0,0,2,,,0,,,64,34
327680,note_on,,,,,0,0,2,,,0,,,61,33
327680,set_tempo,,,,,260,1,0,535714,,,,,,
327680,note_off,,,,,80,0,2,,,0,,,64,64
327760,note_on,,,,,0,0,2,,,0,,,57,32
327760,note_off,,,,,80,0,2,,,0,,,61,64
327792,note_off,,,,,0,0,1,,,0,,,88,64
327792,note_off,,,,,0,0,1,,,0,,,85,64
327792,note_off,,,,,432,0,1,,,0,,,81,64
327820,set_tempo,,,,,140,1,0,582524,,,,,,
327840,note_on,,,,,0,0,1,,,0,,,80,33
327840,control_change,,,,,48,0,1,,,0,64,0,,
327840,note_on,,,,,0,0,1,,,0,,,88,33
327840,note_on,,,,,0,0,2,,,0,,,52,37
327840,note_off,,,,,80,0,2,,,0,,,57,64
327840,note_on,,,,,0,0,1,,,0,,,86,33
327900,set_tempo,,,,,80,1,0,652174,,,,,,
327920,note_on,,,,,0,0,2,,,0,,,56,32
327920,note_off,,,,,80,0,2,,,0,,,52,64
328000,note_on,,,,,0,0,2,,,0,,,59,30
328000,note_off,,,,,80,0,2,,,0,,,56,64
328000,set_tempo,,,,,100,1,0,697674,,,,,,
328020,note_off,,,,,0,0,1,,,0,,,80,64
328020,note_off,,,,,0,0,1,,,0,,,86,64
328020,note_off,,,,,180,0,1,,,0,,,88,64
328060,set_tempo,,,,,60,1,0,769231,,,,,,
328080,note_on,,,,,0,0,2,,,0,,,64,26
328080,note_on,,,,,0,0,1,,,0,,,88,28
328080,note_on,,,,,0,0,1,,,0,,,86,28
328080,note_on,,,,,60,0,1,,,0,,,80,28
328080,note_off,,,,,80,0,2,,,0,,,59,64
328120,set_tempo,,,,,60,1,0,983607,,,,,,
328160,set_tempo,,,,,40,1,0,1363636,,,,,,
328160,note_off,,,,,80,0,2,,,0,,,64,64
328160,note_on,,,,,0,0,2,,,0,,,68,21
328240,note_off,,,,,80,0,2,,,0,,,68,64
328240,note_on,,,,,0,0,2,,,0,,,71,14
328260,note_off,,,,,0,0,1,,,0,,,80,64
328260,note_off,,,,,0,0,1,,,0,,,86,64
328260,note_off,,,,,180,0,1,,,0,,,88,64
328280,set_tempo,,,,,120,1,0,1875000,,,,,,
328300,set_tempo,,,,,20,1,0,769231,,,,,,
328320,note_off,,,,,80,0,2,,,0,,,71,64
329260,set_tempo,,,,,960,1,0,759494,,,,,,
329280,control_change,,,,,960,0,2,,,0,64,127,,
329280,note_on,,,,,1020,0,1,,,0,,,61,37
329280,note_on,,,,,0,0,2,,,0,,,45,24
329300,set_tempo,,,,,40,1,0,681818,,,,,,
329360,set_tempo,,,,,60,1,0,582524,,,,,,
329400,note_on,,,,,120,0,2,,,0,,,52,32
329430,note_off,,,,,150,0,1,,,0,,,61,64
329460,control_change,,,,,60,0,2,,,0,64,0,,
329480,set_tempo,,,,,120,1,0,535714,,,,,,
329520,control_change,,,,,0,0,2,,,0,64,127,,
329520,note_off,,,,,60,0,2,,,0,,,52,64
329520,note_on,,,,,0,0,1,,,0,,,64,44
329520,note_on,,,,,90,0,1,,,0,,,61,44
329520,note_on,,,,,0,0,2,,,0,,,57,28
329540,set_tempo,,,,,60,1,0,508475,,,,,,
329640,note_on,,,,,0,0,2,,,0,,,52,24
329640,note_off,,,,,120,0,2,,,0,,,57,64
329700,set_tempo,,,,,160,1,0,483871,,,,,,
329760,note_off,,,,,120,0,2,,,0,,,52,64
329760,note_off,,,,,0,0,2,,,0,,,45,64
329760,note_on,,,,,0,0,2,,,0,,,49,36
329880,note_on,,,,,120,0,2,,,0,,,52,29
330000,set_tempo,,,,,300,1,0,472441,,,,,,
330000,note_on,,,,,0,0,1,,,0,,,69,42
330000,note_on,,,,,0,0,1,,,0,,,64,42
330000,note_on,,,,,0,0,1,,,0,,,61,42
330000,note_off,,,,,480,0,1,,,0,,,64,64
330000,note_off,,,,,0,0,1,,,0,,,61,64
330000,note_off,,,,,120,0,2,,,0,,,52,64
330000,note_on,,,,,0,0,2,,,0,,,57,26
330000,control_change,,,,,0,0,2,,,0,64,0,,
330120,note_on,,,,,0,0,2,,,0,,,52,22
330120,note_off,,,,,120,0,2,,,0,,,57,64
330210,note_off,,,,,210,0,1,,,0,,,69,64
330210,note_off,,,,,0,0,1,,,0,,,61,64
330210,note_off,,,,,0,0,1,,,0,,,64,64
330240,note_on,,,,,0,0,1,,,0,,,62,51
330240,note_on,,,,,0,0,1,,,0,,,64,51
330240,note_on,,,,,30,0,1,,,0,,,69,51
330240,control_change,,,,,0,0,2,,,0,64,127,,
330240,note_on,,,,,0,0,2,,,0,,,47,41
330240,note_off,,,,,120,0,2,,,0,,,52,64
330240,note_off,,,,,0,0,2,,,0,,,49,64
330360,note_on,,,,,120,0,2,,,0,,,52,32
330380,set_tempo,,,,,380,1,0,461538,,,,,,
330480,note_off,,,,,120,0,2,,,0,,,52,64
330480,note_on,,,,,0,0,2,,,0,,,56,28
330480,note_on,,,,,0,0,1,,,0,,,68,44
330480,note_off,,,,,240,0,1,,,0,,,69,64
330600,note_off,,,,,0,0,1,,,0,,,62,64
330600,note_off,,,,,0,0,1,,,0,,,64,64
330600,note_off,,,,,120,0,2,,,0,,,56,64
330600,note_off,,,,,120,0,1,,,0,,,68,64
330600,note_on,,,,,0,0,2,,,0,,,52,24
330660,control_change,,,,,60,0,2,,,0,64,0,,
330720,note_on,,,,,120,0,1,,,0,,,69,36
330720,control_change,,,,,0,0,2,,,0,64,127,,
330720,note_on,,,,,0,0,2,,,0,,,49,36
330720,note_off,,,,,0,0,2,,,0,,,47,64
330720,note_off,,,,,60,0,2,,,0,,,52,64
330720,note_on,,,,,0,0,1,,,0,,,61,36
330720,note_on,,,,,0,0,1,,,0,,,64,36
330820,set_tempo,,,,,440,1,0,444444,,,,,,
330840,note_on,,,,,120,0,2,,,0,,,52,29
330960,note_off,,,,,120,0,2,,,0,,,52,64
330960,note_on,,,,,0,0,2,,,0,,,57,26
331080,note_off,,,,,120,0,2,,,0,,,57,64
331080,note_on,,,,,0,0,2,,,0,,,52,22
331140,control_change,,,,,60,0,2,,,0,64,0,,
331200,note_off,,,,,0,0,1,,,0,,,64,64
331200,note_off,,,,,0,0,1,,,0,,,69,64
331200,note_on,,,,,0,0,1,,,0,,,66,50
331200,note_on,,,,,0,0,1,,,0,,,71,50
331200,note_on,,,,,0,0,1,,,0,,,69,50
331200,note_on,,,,,0,0,2,,,0,,,50,41
331200,control_change,,,,,0,0,2,,,0,64,127,,
331200,note_off,,,,,480,0,1,,,0,,,61,64
331200,note_off,,,,,0,0,2,,,0,,,49,64
331200,note_off,,,,,60,0,2,,,0,,,52,64
331320,note_on,,,,,120,0,2,,,0,,,54,32
331440,note_on,,,,,0,0,2,,,0,,,59,28
331440,note_off,,,,,120,0,2,,,0,,,54,64
331560,note_on,,,,,0,0,2,,,0,,,54,24
331560,control_change,,,,,0,0,2,,,0,64,0,,
331560,note_off,,,,,120,0,2,,,0,,,59,64
331560,note_off,,,,,360,0,1,,,0,,,71,64
331560,note_on,,,,,0,0,1,,,0,,,71,42
331560,note_on,,,,,0,0,1,,,0,,,69,42
331560,note_on,,,,,0,0,1,,,0,,,66,42
331560,note_off,,,,,0,0,1,,,0,,,66,64
331560,note_off,,,,,0,0,1,,,0,,,69,64
331680,note_on,,,,,0,0,2,,,0,,,51,36
331680,control_change,,,,,0,0,2,,,0,64,127,,
331680,note_off,,,,,0,0,2,,,0,,,50,64
331680,note_off,,,,,120,0,2,,,0,,,54,64
331680,note_off,,,,,120,0,1,,,0,,,71,64
331680,note_on,,,,,0,0,1,,,0,,,73,46
331680,note_on,,,,,0,0,1,,,0,,,69,46
331680,note_off,,,,,0,0,1,,,0,,,69,64
331680,note_off,,,,,0,0,1,,,0,,,66,64
331680,note_on,,,,,0,0,1,,,0,,,66,46
331740,set_tempo,,,,,920,1,0,458015,,,,,,
331800,note_on,,,,,120,0,2,,,0,,,54,29
331920,note_on,,,,,0,0,1,,,0,,,69,40
331920,note_off,,,,,0,0,1,,,0,,,66,64
331920,note_off,,,,,0,0,1,,,0,,,69,64
331920,note_off,,,,,120,0,2,,,0,,,54,64
331920,note_on,,,,,0,0,2,,,0,,,57,26
331920,note_on,,,,,0,0,1,,,0,,,66,40
331920,note_off,,,,,240,0,1,,,0,,,73,64
331920,note_on,,,,,0,0,1,,,0,,,61,40
331980,set_tempo,,,,,240,1,0,472441,,,,,,
332040,note_off,,,,,120,0,2,,,0,,,57,64
332040,note_on,,,,,0,0,2,,,0,,,54,22
332040,control_change,,,,,0,0,2,,,0,64,0,,
332080,set_tempo,,,,,100,1,0,480000,,,,,,
332130,note_off,,,,,210,0,1,,,0,,,69,64
332130,note_off,,,,,0,0,1,,,0,,,66,64
332130,note_off,,,,,0,0,1,,,0,,,61,64
332160,note_on,,,,,30,0,1,,,0,,,61,47
332160,note_on,,,,,0,0,1,,,0,,,64,47
332160,note_off,,,,,120,0,2,,,0,,,54,64
332160,control_change,,,,,0,0,2,,,0,64,127,,
332160,note_on,,,,,0,0,2,,,0,,,40,40
332160,note_on,,,,,0,0,1,,,0,,,69,47
332160,note_off,,,,,0,0,2,,,0,,,51,64
332220,set_tempo,,,,,140,1,0,491803,,,,,,
332250,note_off,,,,,90,0,2,,,0,,,40,64
332280,note_on,,,,,30,0,2,,,0,,,52,26
332320,control_change,,,,,40,0,2,,,0,91,96,,
332340,set_tempo,,,,,120,1,0,512821,,,,,,
332380,set_tempo,,,,,40,1,0,535714,,,,,,
332400,note_off,,,,,80,0,2,,,0,,,52,64
332400,note_on,,,,,0,0,2,,,0,,,57,33
332420,set_tempo,,,,,40,1,0,555556,,,,,,
332520,note_on,,,,,0,0,2,,,0,,,61,37
332520,set_tempo,,,,,100,1,0,631579,,,,,,
332520,note_off,,,,,120,0,2,,,0,,,57,64
332640,note_off,,,,,120,0,2,,,0,,,61,64
332640,note_on,,,,,0,0,1,,,0,,,68,43
332640,note_off,,,,,0,0,1,,,0,,,61,64
332640,note_off,,,,,0,0,1,,,0,,,64,64
332640,note_off,,,,,480,0,1,,,0,,,69,64
332640,note_on,,,,,0,0,2,,,0,,,59,41
332660,set_tempo,,,,,140,1,0,697674,,,,,,
332740,set_tempo,,,,,80,1,0,769231,,,,,,
332760,note_on,,,,,0,0,2,,,0,,,62,35
332760,note_off,,,,,120,0,2,,,0,,,59,64
332760,note_off,,,,,120,0,1,,,0,,,68,64
332760,note_on,,,,,0,0,1,,,0,,,66,40
332840,set_tempo,,,,,100,1,0,857143,,,,,,
332880,note_off,,,,,120,0,1,,,0,,,66,64
332880,note_on,,,,,0,0,1,,,0,,,64,33
332880,note_on,,,,,0,0,2,,,0,,,61,29
332880,note_off,,,,,120,0,2,,,0,,,62,64
332920,set_tempo,,,,,80,1,0,967742,,,,,,
332980,set_tempo,,,,,60,1,0,1132075,,,,,,
333000,note_off,,,,,120,0,2,,,0,,,61,64
333000,note_off,,,,,120,0,1,,,0,,,64,64
333000,note_on,,,,,0,0,1,,,0,,,62,25
333000,note_on,,,,,0,0,2,,,0,,,59,23
333060,control_change,,,,,60,0,2,,,0,64,0,,
333080,set_tempo,,,,,100,1,0,1333333,,,,,,
333090,note_off,,,,,90,0,1,,,0,,,62,64
333090,note_off,,,,,30,0,2,,,0,,,59,64
333140,set_tempo,,,,,60,1,0,666667,,,,,,
334060,set_tempo,,,,,920,1,0,638298,,,,,,
334080,control_change,,,,,990,0,2,,,0,64,127,,
334080,note_on,,,,,0,0,2,,,0,,,57,23
334080,note_on,,,,,990,0,1,,,0,,,72,33
334180,set_tempo,,,,,120,1,0,576923,,,,,,
334200,note_on,,,,,120,0,2,,,0,,,64,21
334230,note_off,,,,,150,0,1,,,0,,,72,64
334260,control_change,,,,,60,0,2,,,0,64,0,,
334280,set_tempo,,,,,100,1,0,545455,,,,,,
334320,note_off,,,,,60,0,2,,,0,,,64,64
334320,control_change,,,,,0,0,2,,,0,64,127,,
334320,note_on,,,,,0,0,1,,,0,,,72,29
334320,note_on,,,,,90,0,1,,,0,,,76,29
334320,note_on,,,,,0,0,2,,,0,,,69,22
334440,set_tempo,,,,,160,1,0,512821,,,,,,
334440,note_off,,,,,120,0,2,,,0,,,69,64
334440,note_on,,,,,0,0,2,,,0,,,64,26
334560,note_off,,,,,120,0,2,,,0,,,64,64
334560,note_on,,,,,0,0,2,,,0,,,60,31
334560,note_off,,,,,0,0,2,,,0,,,57,64
334580,set_tempo,,,,,140,1,0,495868,,,,,,
334680,note_on,,,,,120,0,2,,,0,,,64,29
334800,note_off,,,,,480,0,1,,,0,,,72,64
334800,note_off,,,,,120,0,2,,,0,,,64,64
334800,control_change,,,,,0,0,2,,,0,64,0,,
334800,note_on,,,,,0,0,2,,,0,,,69,26
334800,note_off,,,,,0,0,1,,,0,,,76,64
334800,note_on,,,,,0,0,1,,,0,,,81,36
334800,note_on,,,,,0,0,1,,,0,,,76,36
334800,note_on,,,,,0,0,1,,,0,,,72,36
334920,note_off,,,,,120,0,2,,,0,,,69,64
334920,note_on,,,,,0,0,2,,,0,,,64,22
335010,note_off,,,,,210,0,1,,,0,,,72,64
335010,note_off,,,,,0,0,1,,,0,,,76,64
335010,note_off,,,,,0,0,1,,,0,,,81,64
335040,note_on,,,,,0,0,1,,,0,,,76,41
335040,note_on,,,,,0,0,1,,,0,,,74,41
335040,note_off,,,,,120,0,2,,,0,,,64,64
335040,note_off,,,,,0,0,2,,,0,,,60,64
335040,control_change,,,,,0,0,2,,,0,64,127,,
335040,note_on,,,,,0,0,2,,,0,,,59,33
335040,note_on,,,,,30,0,1,,,0,,,81,41
335160,note_on,,,,,120,0,2,,,0,,,64,29
335280,note_off,,,,,120,0,2,,,0,,,64,64
335280,note_off,,,,,240,0,1,,,0,,,81,64
335280,note_on,,,,,0,0,1,,,0,,,80,33
335280,note_on,,,,,0,0,2,,,0,,,68,24
335400,note_off,,,,,120,0,1,,,0,,,80,64
335400,note_off,,,,,0,0,1,,,0,,,74,64
335400,note_off,,,,,0,0,1,,,0,,,76,64
335400,note_off,,,,,120,0,2,,,0,,,68,64
335400,note_on,,,,,0,0,2,,,0,,,64,23
335460,control_change,,,,,60,0,2,,,0,64,0,,
335520,note_on,,,,,0,0,2,,,0,,,60,29
335520,note_on,,,,,120,0,1,,,0,,,81,28
335520,control_change,,,,,0,0,2,,,0,64,127,,
335520,note_on,,,,,0,0,1,,,0,,,76,28
335520,set_tempo,,,,,940,1,0,517241,,,,,,
335520,note_on,,,,,0,0,1,,,0,,,72,28
335520,note_off,,,,,60,0,2,,,0,,,64,64
335520,note_off,,,,,0,0,2,,,0,,,59,64
335640,note_on,,,,,120,0,2,,,0,,,64,28
335760,set_tempo,,,,,240,1,0,555556,,,,,,
335760,note_off,,,,,120,0,2,,,0,,,64,64
335760,note_on,,,,,0,0,2,,,0,,,69,26
335840,set_tempo,,,,,80,1,0,612245,,,,,,
335880,note_off,,,,,120,0,2,,,0,,,69,64
335880,note_on,,,,,0,0,2,,,0,,,64,25
335920,set_tempo,,,,,80,1,0,666667,,,,,,
335940,control_change,,,,,60,0,2,,,0,64,0,,
336000,note_off,,,,,0,0,2,,,0,,,60,64
336000,control_change,,,,,0,0,2,,,0,64,127,,
336000,note_off,,,,,0,0,1,,,0,,,76,64
336000,note_off,,,,,0,0,1,,,0,,,81,64
336000,note_on,,,,,0,0,1,,,0,,,82,33
336000,note_off,,,,,480,0,1,,,0,,,72,64
336000,note_on,,,,,0,0,1,,,0,,,77,33
336000,note_off,,,,,60,0,2,,,0,,,64,64
336000,note_on,,,,,0,0,2,,,0,,,62,34
336080,set_tempo,,,,,160,1,0,618557,,,,,,
336120,note_on,,,,,120,0,2,,,0,,,65,26
336160,set_tempo,,,,,80,1,0,576923,,,,,,
336240,note_off,,,,,120,0,2,,,0,,,65,64
336240,note_off,,,,,0,0,2,,,0,,,62,64
336240,note_on,,,,,0,0,2,,,0,,,69,34
336240,note_off,,,,,240,0,1,,,0,,,77,64
336240,note_off,,,,,0,0,1,,,0,,,82,64
336240,note_on,,,,,0,0,1,,,0,,,84,40
336240,note_on,,,,,0,0,1,,,0,,,76,40
336240,note_on,,,,,0,0,2,,,0,,,60,34
336360,set_tempo,,,,,200,1,0,618557,,,,,,
336360,note_on,,,,,0,0,2,,,0,,,70,39
336360,note_on,,,,,0,0,2,,,0,,,58,39
336360,note_off,,,,,0,0,2,,,0,,,69,64
336360,note_off,,,,,0,0,1,,,0,,,84,64
336360,note_on,,,,,0,0,1,,,0,,,74,44
336360,note_on,,,,,0,0,1,,,0,,,86,44
336360,note_off,,,,,120,0,1,,,0,,,76,64
336360,note_off,,,,,120,0,2,,,0,,,60,64
336360,control_change,,,,,0,0,2,,,0,64,0,,
336480,note_on,,,,,0,0,2,,,0,,,60,41
336480,note_on,,,,,0,0,1,,,0,,,84,42
336480,note_off,,,,,0,0,1,,,0,,,86,64
336480,note_off,,,,,120,0,1,,,0,,,74,64
336480,set_tempo,,,,,120,1,0,674157,,,,,,
336480,note_on,,,,,0,0,2,,,0,,,69,41
336480,control_change,,,,,0,0,2,,,0,64,127,,
336480,note_off,,,,,0,0,2,,,0,,,58,64
336480,note_off,,,,,120,0,2,,,0,,,70,64
336480,note_on,,,,,0,0,1,,,0,,,77,42
336520,set_tempo,,,,,40,1,0,750000,,,,,,
336660,set_tempo,,,,,140,1,0,923077,,,,,,
336720,set_tempo,,,,,60,1,0,1071429,,,,,,
336720,note_on,,,,,0,0,1,,,0,,,84,30
336720,note_off,,,,,0,0,1,,,0,,,84,64
336720,note_on,,,,,0,0,2,,,0,,,60,31
336720,note_on,,,,,0,0,2,,,0,,,67,31
336720,note_off,,,,,0,0,2,,,0,,,69,64
336720,note_off,,,,,240,0,2,,,0,,,60,64
336720,note_off,,,,,240,0,1,,,0,,,77,64
336720,note_on,,,,,0,0,1,,,0,,,76,30
336740,set_tempo,,,,,20,1,0,1090909,,,,,,
336840,control_change,,,,,120,0,2,,,0,64,0,,
336930,note_off,,,,,210,0,1,,,0,,,76,64
336930,note_off,,,,,0,0,1,,,0,,,84,64
336930,note_off,,,,,0,0,2,,,0,,,67,64
336930,note_off,,,,,90,0,2,,,0,,,60,64
336940,set_tempo,,,,,200,1,0,612245,,,,,,
337120,control_change,,,,,190,0,2,,,0,91,96,,
337920,note_on,,,,,990,0,1,,,0,,,72,46
337920,note_on,,,,,0,0,1,,,0,,,60,46
337920,note_on,,,,,800,0,2,,,0,,,45,37
337940,set_tempo,,,,,1000,1,0,535714,,,,,,
338040,note_on,,,,,120,0,2,,,0,,,48,24
338080,set_tempo,,,,,140,1,0,454545,,,,,,
338160,note_on,,,,,0,0,2,,,0,,,53,21
338160,note_off,,,,,120,0,2,,,0,,,48,64
338280,note_on,,,,,0,0,2,,,0,,,48,27
338280,note_off,,,,,360,0,1,,,0,,,60,64
338280,note_off,,,,,120,0,2,,,0,,,53,64
338280,note_off,,,,,0,0,1,,,0,,,72,64
338280,note_on,,,,,0,0,1,,,0,,,72,40
338280,note_on,,,,,0,0,1,,,0,,,60,40
338300,set_tempo,,,,,220,1,0,441176,,,,,,
338400,note_on,,,,,0,0,2,,,0,,,42,43
338400,note_off,,,,,120,0,1,,,0,,,60,64
338400,note_off,,,,,0,0,2,,,0,,,45,64
338400,control_change,,,,,0,0,2,,,0,64,127,,
338400,note_off,,,,,120,0,2,,,0,,,48,64
338400,note_on,,,,,0,0,1,,,0,,,62,49
338400,note_on,,,,,0,0,1,,,0,,,74,49
338400,note_off,,,,,0,0,1,,,0,,,72,64
338520,note_on,,,,,120,0,2,,,0,,,50,37
338620,set_tempo,,,,,320,1,0,431655,,,,,,
338640,note_off,,,,,120,0,2,,,0,,,50,64
338640,note_on,,,,,0,0,2,,,0,,,57,30
338760,note_on,,,,,0,0,2,,,0,,,50,27
338760,note_off,,,,,120,0,2,,,0,,,57,64
338820,control_change,,,,,60,0,2,,,0,64,0,,
338880,note_off,,,,,0,0,1,,,0,,,74,64
338880,note_off,,,,,60,0,2,,,0,,,50,64
338880,note_off,,,,,0,0,2,,,0,,,42,64
338880,note_on,,,,,0,0,2,,,0,,,43,31
338880,note_off,,,,,480,0,1,,,0,,,62,64
338880,note_on,,,,,0,0,1,,,0,,,60,49
338880,note_on,,,,,0,0,1,,,0,,,72,49
339000,note_on,,,,,120,0,2,,,0,,,50,27
339120,note_on,,,,,0,0,1,,,0,,,59,35
339120,note_off,,,,,120,0,2,,,0,,,50,64
339120,note_on,,,,,0,0,2,,,0,,,55,24
339120,note_on,,,,,0,0,1,,,0,,,71,35
339120,note_off,,,,,0,0,1,,,0,,,72,64
339120,note_off,,,,,240,0,1,,,0,,,60,64
339200,set_tempo,,,,,580,1,0,451128,,,,,,
339240,note_on,,,,,0,0,2,,,0,,,50,21
339240,note_off,,,,,120,0,2,,,0,,,55,64
339240,note_off,,,,,0,0,1,,,0,,,71,64
339240,note_off,,,,,120,0,1,,,0,,,59,64
339360,note_off,,,,,0,0,2,,,0,,,43,64
339360,note_off,,,,,120,0,2,,,0,,,50,64
339360,note_on,,,,,0,0,2,,,0,,,43,33
339360,note_on,,,,,120,0,1,,,0,,,67,35
339360,note_on,,,,,0,0,1,,,0,,,55,35
339480,note_on,,,,,120,0,2,,,0,,,50,29
339600,note_on,,,,,0,0,2,,,0,,,55,27
339600,note_off,,,,,120,0,2,,,0,,,50,64
339720,note_on,,,,,0,0,1,,,0,,,69,31
339720,note_on,,,,,0,0,1,,,0,,,57,31
339720,note_off,,,,,360,0,1,,,0,,,55,64
339720,note_on,,,,,0,0,2,,,0,,,50,24
339720,note_off,,,,,120,0,2,,,0,,,55,64
339720,note_off,,,,,0,0,1,,,0,,,67,64
339840,note_off,,,,,120,0,1,,,0,,,57,64
339840,note_off,,,,,0,0,1,,,0,,,69,64
339840,note_on,,,,,0,0,1,,,0,,,58,45
339840,note_on,,,,,0,0,2,,,0,,,38,31
339840,note_off,,,,,0,0,2,,,0,,,43,64
339840,note_off,,,,,120,0,2,,,0,,,50,64
339840,note_on,,,,,0,0,1,,,0,,,70,45
339960,note_on,,,,,120,0,2,,,0,,,50,27
340080,note_on,,,,,0,0,2,,,0,,,53,34
340080,note_off,,,,,120,0,2,,,0,,,50,64
340200,note_on,,,,,0,0,1,,,0,,,58,36
340200,note_on,,,,,0,0,1,,,0,,,70,36
340200,note_off,,,,,0,0,1,,,0,,,70,64
340200,note_off,,,,,360,0,1,,,0,,,58,64
340200,note_on,,,,,0,0,2,,,0,,,50,40
340200,note_off,,,,,120,0,2,,,0,,,53,64
340320,note_off,,,,,120,0,1,,,0,,,58,64
340320,note_on,,,,,0,0,1,,,0,,,60,53
340320,note_off,,,,,120,0,2,,,0,,,50,64
340320,note_off,,,,,0,0,2,,,0,,,38,64
340320,note_on,,,,,0,0,2,,,0,,,40,43
340320,control_change,,,,,0,0,2,,,0,64,127,,
340320,note_off,,,,,0,0,1,,,0,,,70,64
340320,note_on,,,,,0,0,1,,,0,,,72,53
340440,note_on,,,,,120,0,2,,,0,,,48,38
340520,set_tempo,,,,,1320,1,0,472441,,,,,,
340560,note_on,,,,,0,0,2,,,0,,,55,35
340560,note_off,,,,,120,0,2,,,0,,,48,64
340680,note_on,,,,,0,0,2,,,0,,,48,31
340680,note_off,,,,,120,0,2,,,0,,,55,64
340740,control_change,,,,,60,0,2,,,0,64,0,,
340800,note_on,,,,,0,0,2,,,0,,,45,32
340800,note_off,,,,,0,0,2,,,0,,,40,64
340800,note_off,,,,,60,0,2,,,0,,,48,64
340800,note_off,,,,,0,0,1,,,0,,,72,64
340800,note_on,,,,,0,0,1,,,0,,,65,48
340800,note_off,,,,,480,0,1,,,0,,,60,64
340840,set_tempo,,,,,320,1,0,500000,,,,,,
340920,note_on,,,,,0,0,1,,,0,,,67,43
340920,note_off,,,,,120,0,1,,,0,,,65,64
340920,note_on,,,,,120,0,2,,,0,,,48,30
340960,note_on,,,,,0,0,1,,,0,,,65,39
340960,note_off,,,,,40,0,1,,,0,,,67,64
341000,note_off,,,,,40,0,1,,,0,,,65,64
341000,set_tempo,,,,,160,1,0,540541,,,,,,
341000,note_on,,,,,0,0,1,,,0,,,64,34
341040,note_off,,,,,40,0,1,,,0,,,64,64
341040,note_on,,,,,0,0,1,,,0,,,65,42
341040,note_on,,,,,0,0,2,,,0,,,53,28
341040,note_off,,,,,120,0,2,,,0,,,48,64
341100,set_tempo,,,,,100,1,0,576923,,,,,,
341160,note_off,,,,,120,0,2,,,0,,,53,64
341160,note_on,,,,,0,0,1,,,0,,,67,37
341160,note_on,,,,,0,0,2,,,0,,,48,26
341160,note_off,,,,,120,0,1,,,0,,,65,64
341260,set_tempo,,,,,160,1,0,631579,,,,,,
341280,note_on,,,,,0,0,2,,,0,,,41,31
341280,note_off,,,,,0,0,2,,,0,,,45,64
341280,note_on,,,,,0,0,1,,,0,,,65,31
341280,note_on,,,,,0,0,1,,,0,,,69,31
341280,note_off,,,,,120,0,1,,,0,,,67,64
341280,note_off,,,,,120,0,2,,,0,,,48,64
341280,note_on,,,,,0,0,1,,,0,,,60,31
341400,note_on,,,,,120,0,2,,,0,,,48,25
341400,set_tempo,,,,,140,1,0,674157,,,,,,
341480,set_tempo,,,,,80,1,0,779221,,,,,,
341520,note_on,,,,,0,0,2,,,0,,,53,22
341520,note_off,,,,,120,0,2,,,0,,,48,64
341580,set_tempo,,,,,100,1,0,923077,,,,,,
341640,note_on,,,,,0,0,2,,,0,,,48,20
341640,note_off,,,,,120,0,2,,,0,,,53,64
341680,set_tempo,,,,,100,1,0,1111111,,,,,,
341760,note_off,,,,,0,0,2,,,0,,,41,64
341760,note_off,,,,,0,0,1,,,0,,,65,64
341760,note_off,,,,,0,0,1,,,0,,,69,64
341760,note_off,,,,,480,0,1,,,0,,,60,64
341760,set_tempo,,,,,80,1,0,1176471,,,,,,
341760,note_off,,,,,120,0,2,,,0,,,48,64
341780,set_tempo,,,,,20,1,0,618557,,,,,,
342720,note_on,,,,,960,0,1,,,0,,,81,40
342720,note_on,,,,,960,0,2,,,0,,,53,27
342840,note_on,,,,,120,0,2,,,0,,,60,25
342840,note_off,,,,,120,0,1,,,0,,,81,64
342840,note_on,,,,,0,0,1,,,0,,,83,35
342880,set_tempo,,,,,1100,1,0,666667,,,,,,
342880,note_off,,,,,40,0,1,,,0,,,83,64
342880,note_on,,,,,0,0,1,,,0,,,81,34
342920,note_on,,,,,0,0,1,,,0,,,80,32
342920,note_off,,,,,40,0,1,,,0,,,81,64
342960,note_off,,,,,120,0,2,,,0,,,60,64
342960,note_off,,,,,40,0,1,,,0,,,80,64
342960,note_on,,,,,0,0,1,,,0,,,81,37
342960,note_on,,,,,0,0,2,,,0,,,65,20
343080,note_off,,,,,120,0,2,,,0,,,65,64
343080,note_on,,,,,0,0,2,,,0,,,60,19
343080,note_off,,,,,120,0,1,,,0,,,81,64
343080,note_on,,,,,0,0,1,,,0,,,83,31
343120,set_tempo,,,,,240,1,0,740741,,,,,,
343200,note_off,,,,,120,0,2,,,0,,,60,64
343200,note_off,,,,,0,0,2,,,0,,,53,64
343200,note_on,,,,,0,0,1,,,0,,,75,27
343200,note_on,,,,,0,0,1,,,0,,,84,27
343200,note_on,,,,,0,0,2,,,0,,,53,25
343200,note_on,,,,,0,0,1,,,0,,,81,27
343200,note_off,,,,,120,0,1,,,0,,,83,64
343240,set_tempo,,,,,120,1,0,869565,,,,,,
343320,note_on,,,,,120,0,2,,,0,,,60,21
343360,set_tempo,,,,,120,1,0,1000000,,,,,,
343440,note_off,,,,,120,0,2,,,0,,,60,64
343440,note_on,,,,,0,0,2,,,0,,,65,19
343540,set_tempo,,,,,180,1,0,1276596,,,,,,
343560,note_on,,,,,0,0,2,,,0,,,60,15
343560,note_off,,,,,120,0,2,,,0,,,65,64
343620,set_tempo,,,,,80,1,0,1395349,,,,,,
343626,set_tempo,,,,,6,1,0,1463415,,,,,,
343640,set_tempo,,,,,14,1,0,1500000,,,,,,
343680,note_off,,,,,120,0,2,,,0,,,60,64
343680,note_off,,,,,0,0,2,,,0,,,53,64
343680,note_off,,,,,0,0,1,,,0,,,84,64
343680,note_off,,,,,0,0,1,,,0,,,81,64
343680,note_off,,,,,480,0,1,,,0,,,75,64
343686,set_tempo,,,,,46,1,0,594059,,,,,,
344600,set_tempo,,,,,914,1,0,550459,,,,,,
344640,note_on,,,,,960,0,2,,,0,,,49,27
344640,note_on,,,,,960,0,1,,,0,,,69,39
344760,note_on,,,,,120,0,2,,,0,,,52,28
344760,note_off,,,,,120,0,1,,,0,,,69,64
344760,note_on,,,,,0,0,1,,,0,,,71,35
344800,note_on,,,,,0,0,1,,,0,,,69,38
344800,note_off,,,,,40,0,1,,,0,,,71,64
344840,note_on,,,,,0,0,1,,,0,,,68,40
344840,note_off,,,,,40,0,1,,,0,,,69,64
344880,note_on,,,,,0,0,2,,,0,,,57,23
344880,note_off,,,,,120,0,2,,,0,,,52,64
344880,note_off,,,,,40,0,1,,,0,,,68,64
344880,note_on,,,,,0,0,1,,,0,,,69,42
344940,set_tempo,,,,,340,1,0,526316,,,,,,
345000,note_on,,,,,0,0,1,,,0,,,71,37
345000,note_off,,,,,120,0,1,,,0,,,69,64
345000,note_off,,,,,120,0,2,,,0,,,57,64
345000,note_on,,,,,0,0,2,,,0,,,52,22
345120,note_off,,,,,120,0,1,,,0,,,71,64
345120,note_on,,,,,0,0,2,,,0,,,45,31
345120,note_off,,,,,0,0,2,,,0,,,49,64
345120,note_off,,,,,120,0,2,,,0,,,52,64
345120,note_on,,,,,0,0,1,,,0,,,73,31
345120,note_on,,,,,0,0,1,,,0,,,69,31
345120,note_on,,,,,0,0,1,,,0,,,64,31
345240,note_on,,,,,120,0,2,,,0,,,52,25
345360,note_on,,,,,0,0,2,,,0,,,57,22
345360,note_off,,,,,120,0,2,,,0,,,52,64
345360,set_tempo,,,,,420,1,0,571429,,,,,,
345480,note_on,,,,,0,0,2,,,0,,,52,20
345480,note_off,,,,,120,0,2,,,0,,,57,64
345500,set_tempo,,,,,140,1,0,631579,,,,,,
345560,set_tempo,,,,,60,1,0,714286,,,,,,
345600,note_on,,,,,0,0,1,,,0,,,71,35
345600,control_change,,,,,0,0,2,,,0,64,127,,
345600,note_on,,,,,0,0,1,,,0,,,66,35
345600,note_off,,,,,0,0,1,,,0,,,73,64
345600,note_off,,,,,0,0,1,,,0,,,69,64
345600,note_on,,,,,0,0,2,,,0,,,50,27
345600,note_off,,,,,120,0,2,,,0,,,52,64
345600,note_off,,,,,0,0,2,,,0,,,45,64
345600,note_on,,,,,0,0,1,,,0,,,69,35
345600,note_off,,,,,480,0,1,,,0,,,64,64
345660,set_tempo,,,,,100,1,0,576923,,,,,,
345720,note_on,,,,,120,0,2,,,0,,,54,29
345780,control_change,,,,,60,0,2,,,0,64,0,,
345800,set_tempo,,,,,140,1,0,535714,,,,,,
345802,note_off,,,,,0,0,1,,,0,,,69,64
345802,note_off,,,,,0,0,1,,,0,,,66,64
345802,note_off,,,,,202,0,1,,,0,,,71,64
345840,note_on,,,,,0,0,1,,,0,,,71,38
345840,note_on,,,,,0,0,1,,,0,,,69,38
345840,note_off,,,,,60,0,2,,,0,,,54,64
345840,control_change,,,,,0,0,2,,,0,64,127,,
345840,note_on,,,,,0,0,2,,,0,,,59,25
345840,note_on,,,,,38,0,1,,,0,,,66,38
345960,note_off,,,,,120,0,2,,,0,,,59,64
345960,note_on,,,,,0,0,2,,,0,,,54,21
345980,set_tempo,,,,,180,1,0,508475,,,,,,
346020,control_change,,,,,60,0,2,,,0,64,0,,
346020,note_off,,,,,0,0,1,,,0,,,71,64
346020,note_off,,,,,0,0,1,,,0,,,66,64
346020,note_off,,,,,180,0,1,,,0,,,69,64
346080,note_on,,,,,60,0,1,,,0,,,64,43
346080,note_on,,,,,0,0,1,,,0,,,68,43
346080,control_change,,,,,0,0,2,,,0,64,127,,
346080,note_on,,,,,0,0,2,,,0,,,52,37
346080,note_off,,,,,0,0,2,,,0,,,50,64
346080,note_off,,,,,60,0,2,,,0,,,54,64
346080,note_on,,,,,0,0,1,,,0,,,71,43
346180,set_tempo,,,,,200,1,0,487805,,,,,,
346200,note_on,,,,,120,0,2,,,0,,,56,27
346260,note_off,,,,,180,0,1,,,0,,,71,64
346260,note_off,,,,,0,0,1,,,0,,,64,64
346260,note_off,,,,,0,0,1,,,0,,,68,64
346320,note_on,,,,,0,0,1,,,0,,,64,35
346320,note_on,,,,,60,0,1,,,0,,,68,35
346320,note_off,,,,,120,0,2,,,0,,,56,64
346320,note_on,,,,,0,0,1,,,0,,,74,35
346320,note_on,,,,,0,0,2,,,0,,,59,33
346440,note_off,,,,,120,0,2,,,0,,,59,64
346440,note_on,,,,,0,0,2,,,0,,,56,39
346500,control_change,,,,,60,0,2,,,0,64,0,,
346500,note_off,,,,,180,0,1,,,0,,,74,64
346500,note_on,,,,,0,0,1,,,0,,,73,41
346540,note_off,,,,,40,0,1,,,0,,,73,64
346560,note_off,,,,,60,0,2,,,0,,,56,64
346560,note_off,,,,,0,0,2,,,0,,,52,64
346560,control_change,,,,,0,0,2,,,0,64,127,,
346560,note_on,,,,,0,0,2,,,0,,,45,43
346560,note_off,,,,,20,0,1,,,0,,,64,64
346560,note_off,,,,,0,0,1,,,0,,,68,64
346560,note_on,,,,,0,0,1,,,0,,,64,46
346560,note_on,,,,,0,0,1,,,0,,,69,46
346560,note_on,,,,,0,0,1,,,0,,,73,46
346620,set_tempo,,,,,440,1,0,472441,,,,,,
346680,note_on,,,,,120,0,2,,,0,,,52,36
346800,note_off,,,,,120,0,2,,,0,,,52,64
346800,note_on,,,,,0,0,2,,,0,,,61,31
346920,set_tempo,,,,,300,1,0,461538,,,,,,
346920,note_off,,,,,120,0,2,,,0,,,61,64
346920,note_on,,,,,0,0,2,,,0,,,52,27
346980,control_change,,,,,60,0,2,,,0,64,0,,
347040,control_change,,,,,0,0,2,,,0,64,127,,
347040,note_off,,,,,60,0,2,,,0,,,52,64
347040,note_off,,,,,480,0,1,,,0,,,73,64
347040,note_off,,,,,0,0,1,,,0,,,69,64
347040,note_off,,,,,0,0,1,,,0,,,64,64
347040,note_on,,,,,0,0,1,,,0,,,69,43
347040,note_on,,,,,0,0,1,,,0,,,64,43
347040,note_on,,,,,0,0,2,,,0,,,49,37
347040,note_off,,,,,0,0,2,,,0,,,45,64
347040,note_on,,,,,0,0,1,,,0,,,76,43
347160,note_on,,,,,120,0,2,,,0,,,52,35
347280,note_off,,,,,120,0,2,,,0,,,52,64
347280,note_on,,,,,0,0,2,,,0,,,57,30
347370,note_off,,,,,330,0,1,,,0,,,76,64
347400,note_off,,,,,120,0,2,,,0,,,57,64
347400,note_on,,,,,0,0,2,,,0,,,52,28
347400,control_change,,,,,0,0,2,,,0,64,0,,
347400,note_on,,,,,30,0,1,,,0,,,74,34
347460,note_off,,,,,60,0,1,,,0,,,74,64
347460,note_on,,,,,0,0,1,,,0,,,73,37
347520,note_off,,,,,120,0,2,,,0,,,52,64
347520,note_off,,,,,0,0,2,,,0,,,49,64
347520,control_change,,,,,0,0,2,,,0,64,127,,
347520,note_on,,,,,0,0,2,,,0,,,50,36
347520,note_on,,,,,0,0,1,,,0,,,71,39
347520,note_off,,,,,60,0,1,,,0,,,73,64
347520,note_off,,,,,0,0,1,,,0,,,64,64
347520,note_off,,,,,0,0,1,,,0,,,69,64
347520,note_on,,,,,0,0,1,,,0,,,66,39
347520,note_on,,,,,0,0,1,,,0,,,69,39
347540,set_tempo,,,,,620,1,0,495868,,,,,,
347640,note_on,,,,,120,0,2,,,0,,,54,32
347680,set_tempo,,,,,140,1,0,545455,,,,,,
347700,control_change,,,,,60,0,2,,,0,64,0,,
347722,note_off,,,,,0,0,1,,,0,,,69,64
347722,note_off,,,,,202,0,1,,,0,,,71,64
347722,note_off,,,,,0,0,1,,,0,,,66,64
347760,note_off,,,,,60,0,2,,,0,,,54,64
347760,control_change,,,,,0,0,2,,,0,64,127,,
347760,note_on,,,,,0,0,2,,,0,,,59,30
347760,note_on,,,,,0,0,1,,,0,,,69,34
347760,note_on,,,,,0,0,1,,,0,,,71,34
347760,note_on,,,,,38,0,1,,,0,,,66,34
347880,note_off,,,,,120,0,2,,,0,,,59,64
347880,note_on,,,,,0,0,2,,,0,,,54,26
347940,note_off,,,,,180,0,1,,,0,,,69,64
347940,note_off,,,,,0,0,1,,,0,,,66,64
347940,note_off,,,,,0,0,1,,,0,,,71,64
347940,control_change,,,,,60,0,2,,,0,64,0,,
347980,set_tempo,,,,,300,1,0,600000,,,,,,
348000,note_on,,,,,0,0,1,,,0,,,68,33
348000,note_off,,,,,0,0,2,,,0,,,50,64
348000,control_change,,,,,0,0,2,,,0,64,127,,
348000,note_on,,,,,60,0,1,,,0,,,64,33
348000,note_on,,,,,0,0,1,,,0,,,71,33
348000,note_on,,,,,0,0,2,,,0,,,52,35
348000,note_off,,,,,60,0,2,,,0,,,54,64
348120,note_on,,,,,120,0,2,,,0,,,56,33
348140,set_tempo,,,,,160,1,0,666667,,,,,,
348180,note_off,,,,,0,0,1,,,0,,,68,64
348180,note_off,,,,,0,0,1,,,0,,,64,64
348180,note_off,,,,,180,0,1,,,0,,,71,64
348240,note_off,,,,,120,0,2,,,0,,,56,64
348240,note_on,,,,,0,0,1,,,0,,,64,30
348240,note_on,,,,,60,0,1,,,0,,,68,30
348240,note_on,,,,,0,0,2,,,0,,,59,29
348240,note_on,,,,,0,0,1,,,0,,,74,30
348300,set_tempo,,,,,160,1,0,800000,,,,,,
348360,note_off,,,,,120,0,2,,,0,,,59,64
348360,set_tempo,,,,,60,1,0,952381,,,,,,
348360,note_on,,,,,0,0,2,,,0,,,56,21
348420,note_on,,,,,0,0,1,,,0,,,73,24
348420,control_change,,,,,60,0,2,,,0,64,0,,
348420,note_off,,,,,180,0,1,,,0,,,74,64
348440,set_tempo,,,,,80,1,0,4615385,,,,,,
348460,set_tempo,,,,,20,1,0,5454545,,,,,,
348480,note_off,,,,,0,0,1,,,0,,,64,64
348480,note_off,,,,,60,0,1,,,0,,,73,64
348480,note_off,,,,,0,0,2,,,0,,,52,64
348480,note_off,,,,,60,0,2,,,0,,,56,64
348480,set_tempo,,,,,20,1,0,517241,,,,,,
348480,note_off,,,,,0,0,1,,,0,,,68,64
349380,set_tempo,,,,,900,1,0,428571,,,,,,
349440,note_on,,,,,960,0,2,,,0,,,57,52
349440,marker,,,,,0,1,0,,,,,,,
349440,set_tempo,,,,,60,1,0,306122,,,,,,
349440,note_on,,,,,960,0,1,,,0,,,61,31
349520,note_on,,,,,0,0,1,,,0,,,64,31
349520,note_off,,,,,80,0,1,,,0,,,61,64
349600,note_off,,,,,80,0,1,,,0,,,64,64
349600,note_on,,,,,0,0,1,,,0,,,69,35
349620,note_off,,,,,180,0,2,,,0,,,57,64
349680,note_on,,,,,60,0,2,,,0,,,57,47
349680,set_tempo,,,,,240,1,0,288462,,,,,,
349680,note_off,,,,,80,0,1,,,0,,,69,64
349680,note_on,,,,,0,0,1,,,0,,,73,37
349760,note_on,,,,,0,0,1,,,0,,,76,39
349760,note_off,,,,,80,0,1,,,0,,,73,64
349840,note_on,,,,,0,0,1,,,0,,,81,41
349840,note_off,,,,,80,0,1,,,0,,,76,64
349860,note_off,,,,,180,0,2,,,0,,,57,64
349920,note_on,,,,,60,0,2,,,0,,,57,44
349920,note_on,,,,,0,0,1,,,0,,,85,43
349920,note_off,,,,,80,0,1,,,0,,,81,64
350000,note_on,,,,,0,0,1,,,0,,,81,45
350000,note_off,,,,,80,0,1,,,0,,,85,64
350020,set_tempo,,,,,340,1,0,279070,,,,,,
350080,note_off,,,,,80,0,1,,,0,,,81,64
350080,note_on,,,,,0,0,1,,,0,,,85,46
350100,note_off,,,,,180,0,2,,,0,,,57,64
350160,note_on,,,,,0,0,2,,,0,,,61,62
350160,control_change,,,,,60,0,2,,,0,64,127,,
350160,note_off,,,,,80,0,1,,,0,,,85,64
350160,note_on,,,,,0,0,1,,,0,,,88,46
350240,note_on,,,,,0,0,1,,,0,,,85,44
350240,note_off,,,,,80,0,1,,,0,,,88,64
350320,note_off,,,,,80,0,1,,,0,,,85,64
350320,note_on,,,,,0,0,1,,,0,,,88,42
350320,note_off,,,,,160,0,2,,,0,,,61,64
350320,note_on,,,,,0,0,2,,,0,,,59,56
350340,control_change,,,,,20,0,2,,,0,64,0,,
350380,note_off,,,,,40,0,2,,,0,,,59,64
350400,note_on,,,,,0,0,1,,,0,,,61,42
350400,note_off,,,,,80,0,1,,,0,,,88,64
350400,note_on,,,,,20,0,2,,,0,,,55,55
350480,note_on,,,,,0,0,1,,,0,,,64,42
350480,note_off,,,,,80,0,1,,,0,,,61,64
350560,note_off,,,,,80,0,1,,,0,,,64,64
350560,note_on,,,,,0,0,1,,,0,,,69,45
350580,note_off,,,,,180,0,2,,,0,,,55,64
350640,note_on,,,,,0,0,1,,,0,,,73,48
350640,note_on,,,,,60,0,2,,,0,,,55,50
350640,note_off,,,,,80,0,1,,,0,,,69,64
350720,note_on,,,,,0,0,1,,,0,,,76,51
350720,note_off,,,,,80,0,1,,,0,,,73,64
350800,note_on,,,,,0,0,1,,,0,,,81,53
350800,note_off,,,,,80,0,1,,,0,,,76,64
350820,note_off,,,,,180,0,2,,,0,,,55,64
350880,note_on,,,,,60,0,2,,,0,,,55,46
350880,note_on,,,,,0,0,1,,,0,,,85,54
350880,note_off,,,,,80,0,1,,,0,,,81,64
350960,set_tempo,,,,,940,1,0,271493,,,,,,
350960,note_on,,,,,0,0,1,,,0,,,81,53
350960,note_off,,,,,80,0,1,,,0,,,85,64
351040,note_off,,,,,80,0,1,,,0,,,81,64
351040,note_on,,,,,0,0,1,,,0,,,85,51
351060,note_off,,,,,180,0,2,,,0,,,55,64
351120,control_change,,,,,0,0,2,,,0,64,127,,
351120,note_off,,,,,80,0,1,,,0,,,85,64
351120,note_on,,,,,0,0,1,,,0,,,88,49
351120,note_on,,,,,60,0,2,,,0,,,59,67
351200,note_on,,,,,0,0,1,,,0,,,85,48
351200,note_off,,,,,80,0,1,,,0,,,88,64
351280,note_on,,,,,0,0,2,,,0,,,57,63
351280,note_off,,,,,80,0,1,,,0,,,85,64
351280,note_off,,,,,160,0,2,,,0,,,59,64
351280,note_on,,,,,0,0,1,,,0,,,88,49
351300,control_change,,,,,20,0,2,,,0,64,0,,
351340,note_off,,,,,40,0,2,,,0,,,57,64
351360,note_on,,,,,20,0,2,,,0,,,54,62
351360,note_on,,,,,0,0,1,,,0,,,74,51
351360,note_off,,,,,80,0,1,,,0,,,88,64
351440,note_off,,,,,80,0,1,,,0,,,74,64
351440,note_on,,,,,0,0,1,,,0,,,78,50
351520,note_off,,,,,80,0,1,,,0,,,78,64
351520,note_on,,,,,0,0,1,,,0,,,81,50
351540,note_off,,,,,180,0,2,,,0,,,54,64
351600,note_on,,,,,60,0,2,,,0,,,59,69
351600,note_on,,,,,0,0,1,,,0,,,86,54
351600,note_off,,,,,80,0,1,,,0,,,81,64
351600,control_change,,,,,0,0,2,,,0,64,127,,
351680,note_on,,,,,0,0,1,,,0,,,90,56
351680,note_off,,,,,80,0,1,,,0,,,86,64
351700,set_tempo,,,,,740,1,0,265487,,,,,,
351760,note_on,,,,,0,0,1,,,0,,,93,58
351760,note_off,,,,,80,0,1,,,0,,,90,64
351760,note_off,,,,,160,0,2,,,0,,,59,64
351760,note_on,,,,,0,0,2,,,0,,,57,61
351780,control_change,,,,,20,0,2,,,0,64,0,,
351820,note_off,,,,,40,0,2,,,0,,,57,64
351840,note_on,,,,,0,0,1,,,0,,,73,61
351840,note_on,,,,,20,0,2,,,0,,,55,57
351840,note_off,,,,,80,0,1,,,0,,,93,64
351920,note_on,,,,,0,0,1,,,0,,,76,62
351920,note_off,,,,,80,0,1,,,0,,,73,64
352000,note_off,,,,,80,0,1,,,0,,,76,64
352000,note_on,,,,,0,0,1,,,0,,,81,58
352020,note_off,,,,,180,0,2,,,0,,,55,64
352080,note_off,,,,,80,0,1,,,0,,,81,64
352080,note_on,,,,,0,0,1,,,0,,,85,56
352080,note_on,,,,,60,0,2,,,0,,,59,73
352080,control_change,,,,,0,0,2,,,0,64,127,,
352160,note_off,,,,,80,0,1,,,0,,,85,64
352160,note_on,,,,,0,0,1,,,0,,,88,55
352240,note_off,,,,,80,0,1,,,0,,,88,64
352240,note_on,,,,,0,0,1,,,0,,,93,55
352240,note_on,,,,,0,0,2,,,0,,,57,69
352240,note_off,,,,,160,0,2,,,0,,,59,64
352260,control_change,,,,,20,0,2,,,0,64,0,,
352300,note_off,,,,,40,0,2,,,0,,,57,64
352320,note_on,,,,,0,0,1,,,0,,,74,55
352320,note_on,,,,,20,0,2,,,0,,,54,66
352320,note_off,,,,,80,0,1,,,0,,,93,64
352400,note_off,,,,,80,0,1,,,0,,,74,64
352400,note_on,,,,,0,0,1,,,0,,,78,55
352480,note_on,,,,,0,0,1,,,0,,,81,57
352480,note_off,,,,,80,0,1,,,0,,,78,64
352500,note_off,,,,,180,0,2,,,0,,,54,64
352560,note_on,,,,,60,0,2,,,0,,,59,78
352560,control_change,,,,,0,0,2,,,0,64,127,,
352560,note_on,,,,,0,0,1,,,0,,,86,59
352560,note_off,,,,,80,0,1,,,0,,,81,64
352640,note_off,,,,,80,0,1,,,0,,,86,64
352640,note_on,,,,,0,0,1,,,0,,,90,62
352720,note_off,,,,,160,0,2,,,0,,,59,64
352720,note_on,,,,,0,0,2,,,0,,,57,73
352720,note_off,,,,,80,0,1,,,0,,,90,64
352720,note_on,,,,,0,0,1,,,0,,,93,64
352740,control_change,,,,,20,0,2,,,0,64,0,,
352780,note_off,,,,,40,0,2,,,0,,,57,64
352800,note_off,,,,,80,0,1,,,0,,,93,64
352800,note_on,,,,,0,0,1,,,0,,,73,67
352800,note_on,,,,,20,0,2,,,0,,,55,69
352880,note_off,,,,,80,0,1,,,0,,,73,64
352880,note_on,,,,,0,0,1,,,0,,,76,67
352960,note_off,,,,,80,0,1,,,0,,,76,64
352960,note_on,,,,,0,0,1,,,0,,,81,70
352980,note_off,,,,,180,0,2,,,0,,,55,64
353040,note_on,,,,,0,0,1,,,0,,,85,69
353040,note_on,,,,,60,0,2,,,0,,,59,83
353040,control_change,,,,,0,0,2,,,0,64,127,,
353040,note_off,,,,,80,0,1,,,0,,,81,64
353120,note_off,,,,,80,0,1,,,0,,,85,64
353120,note_on,,,,,0,0,1,,,0,,,88,68
353200,note_off,,,,,160,0,2,,,0,,,59,64
353200,note_off,,,,,80,0,1,,,0,,,88,64
353200,note_on,,,,,0,0,1,,,0,,,93,66
353200,note_on,,,,,0,0,2,,,0,,,57,76
353220,control_change,,,,,20,0,2,,,0,64,0,,
353260,note_off,,,,,40,0,2,,,0,,,57,64
353280,note_on,,,,,0,0,1,,,0,,,62,76
353280,note_on,,,,,20,0,2,,,0,,,41,104
353280,note_on,,,,,0,0,2,,,0,,,29,104
353280,control_change,,,,,0,0,2,,,0,64,127,,
353280,note_off,,,,,80,0,1,,,0,,,93,64
353360,note_off,,,,,80,0,1,,,0,,,62,64
353360,note_on,,,,,0,0,1,,,0,,,65,75
353440,note_off,,,,,80,0,1,,,0,,,65,64
353440,note_on,,,,,0,0,1,,,0,,,64,74
353460,control_change,,,,,0,0,2,,,0,64,0,,
353460,note_off,,,,,0,0,2,,,0,,,41,64
353460,note_off,,,,,180,0,2,,,0,,,29,64
353520,note_off,,,,,80,0,1,,,0,,,64,64
353520,note_on,,,,,0,0,1,,,0,,,65,74
353520,note_on,,,,,60,0,2,,,0,,,41,94
353520,control_change,,,,,0,0,2,,,0,64,127,,
353520,note_on,,,,,0,0,2,,,0,,,29,94
353600,note_on,,,,,0,0,1,,,0,,,69,74
353600,note_off,,,,,80,0,1,,,0,,,65,64
353680,note_off,,,,,80,0,1,,,0,,,69,64
353680,note_on,,,,,0,0,1,,,0,,,68,74
353700,control_change,,,,,0,0,2,,,0,64,0,,
353700,note_off,,,,,0,0,2,,,0,,,41,64
353700,note_off,,,,,180,0,2,,,0,,,29,64
353760,note_on,,,,,0,0,1,,,0,,,69,75
353760,note_off,,,,,80,0,1,,,0,,,68,64
353760,note_on,,,,,60,0,2,,,0,,,41,94
353760,note_on,,,,,0,0,2,,,0,,,29,94
353760,control_change,,,,,0,0,2,,,0,64,127,,
353840,note_off,,,,,80,0,1,,,0,,,69,64
353840,note_on,,,,,0,0,1,,,0,,,74,77
353920,note_off,,,,,80,0,1,,,0,,,74,64
353920,note_on,,,,,0,0,1,,,0,,,73,78
353940,note_off,,,,,180,0,2,,,0,,,29,64
353940,note_off,,,,,0,0,2,,,0,,,41,64
353940,control_change,,,,,0,0,2,,,0,64,0,,
354000,note_off,,,,,80,0,1,,,0,,,73,64
354000,note_on,,,,,0,0,1,,,0,,,74,80
354000,note_on,,,,,60,0,2,,,0,,,46,106
354000,note_on,,,,,0,0,2,,,0,,,34,106
354000,control_change,,,,,0,0,2,,,0,64,127,,
354080,note_off,,,,,80,0,1,,,0,,,74,64
354080,note_on,,,,,0,0,1,,,0,,,86,82
354160,note_on,,,,,0,0,1,,,0,,,85,82
354160,note_on,,,,,0,0,2,,,0,,,33,100
354160,note_on,,,,,0,0,2,,,0,,,45,100
354160,note_off,,,,,0,0,2,,,0,,,46,64
354160,note_off,,,,,160,0,2,,,0,,,34,64
354160,note_off,,,,,80,0,1,,,0,,,86,64
354180,control_change,,,,,20,0,2,,,0,64,0,,
354220,note_off,,,,,0,0,2,,,0,,,45,64
354220,note_off,,,,,40,0,2,,,0,,,33,64
354240,control_change,,,,,0,0,2,,,0,64,127,,
354240,note_on,,,,,0,0,2,,,0,,,34,96
354240,note_on,,,,,20,0,2,,,0,,,46,96
354240,note_on,,,,,0,0,1,,,0,,,86,85
354240,note_off,,,,,80,0,1,,,0,,,85,64
354320,note_off,,,,,80,0,1,,,0,,,86,64
354320,note_on,,,,,0,0,1,,,0,,,82,86
354400,note_off,,,,,80,0,1,,,0,,,82,64
354400,note_on,,,,,0,0,1,,,0,,,77,80
354480,note_off,,,,,80,0,1,,,0,,,77,64
354480,note_on,,,,,0,0,1,,,0,,,74,74
354560,note_off,,,,,80,0,1,,,0,,,74,64
354560,note_on,,,,,0,0,1,,,0,,,70,71
354640,note_off,,,,,80,0,1,,,0,,,70,64
354640,note_on,,,,,0,0,1,,,0,,,65,67
354700,set_tempo,,,,,3000,1,0,283019,,,,,,
354720,note_off,,,,,80,0,1,,,0,,,65,64
354720,note_on,,,,,0,0,1,,,0,,,62,63
354800,note_off,,,,,80,0,1,,,0,,,62,64
354800,note_on,,,,,0,0,1,,,0,,,65,61
354880,note_on,,,,,0,0,1,,,0,,,70,60
354880,note_off,,,,,80,0,1,,,0,,,65,64
354900,set_tempo,,,,,200,1,0,294118,,,,,,
354960,note_off,,,,,0,0,2,,,0,,,46,64
354960,note_on,,,,,0,0,1,,,0,,,74,59
354960,control_change,,,,,0,0,2,,,0,64,0,,
354960,note_off,,,,,720,0,2,,,0,,,34,64
354960,note_off,,,,,80,0,1,,,0,,,70,64
355040,note_off,,,,,80,0,1,,,0,,,74,64
355040,note_on,,,,,0,0,1,,,0,,,70,58
355080,set_tempo,,,,,180,1,0,288462,,,,,,
355120,note_off,,,,,80,0,1,,,0,,,70,64
355120,note_on,,,,,0,0,1,,,0,,,65,58
355200,note_on,,,,,0,0,1,,,0,,,62,58
355200,note_on,,,,,240,0,2,,,0,,,41,98
355200,note_on,,,,,0,0,2,,,0,,,29,98
355200,control_change,,,,,0,0,2,,,0,64,127,,
355200,note_off,,,,,80,0,1,,,0,,,65,64
355280,note_off,,,,,80,0,1,,,0,,,62,64
355280,note_on,,,,,0,0,1,,,0,,,65,61
355360,note_off,,,,,80,0,1,,,0,,,65,64
355360,note_on,,,,,0,0,1,,,0,,,64,64
355380,note_off,,,,,180,0,2,,,0,,,29,64
355380,note_off,,,,,0,0,2,,,0,,,41,64
355380,control_change,,,,,0,0,2,,,0,64,0,,
355440,note_on,,,,,0,0,1,,,0,,,65,68
355440,note_off,,,,,80,0,1,,,0,,,64,64
355440,control_change,,,,,60,0,2,,,0,64,127,,
355440,note_on,,,,,0,0,2,,,0,,,41,95
355440,note_on,,,,,0,0,2,,,0,,,29,95
355460,set_tempo,,,,,380,1,0,284360,,,,,,
355520,note_off,,,,,80,0,1,,,0,,,65,64
355520,note_on,,,,,0,0,1,,,0,,,69,70
355600,note_off,,,,,80,0,1,,,0,,,69,64
355600,note_on,,,,,0,0,1,,,0,,,68,72
355620,control_change,,,,,0,0,2,,,0,64,0,,
355620,note_off,,,,,0,0,2,,,0,,,41,64
355620,note_off,,,,,180,0,2,,,0,,,29,64
355680,control_change,,,,,60,0,2,,,0,64,127,,
355680,note_on,,,,,0,0,1,,,0,,,69,74
355680,note_off,,,,,80,0,1,,,0,,,68,64
355680,note_on,,,,,0,0,2,,,0,,,29,92
355680,note_on,,,,,0,0,2,,,0,,,41,92
355760,note_on,,,,,0,0,1,,,0,,,74,76
355760,note_off,,,,,80,0,1,,,0,,,69,64
355780,set_tempo,,,,,320,1,0,276498,,,,,,
355840,note_on,,,,,0,0,1,,,0,,,73,76
355840,note_off,,,,,80,0,1,,,0,,,74,64
355860,note_off,,,,,0,0,2,,,0,,,41,64
355860,note_off,,,,,180,0,2,,,0,,,29,64
355860,control_change,,,,,0,0,2,,,0,64,0,,
355920,control_change,,,,,60,0,2,,,0,64,127,,
355920,note_off,,,,,80,0,1,,,0,,,73,64
355920,note_on,,,,,0,0,1,,,0,,,74,78
355920,note_on,,,,,0,0,2,,,0,,,34,102
355920,note_on,,,,,0,0,2,,,0,,,46,102
356000,note_on,,,,,0,0,1,,,0,,,86,78
356000,note_off,,,,,80,0,1,,,0,,,74,64
356080,note_on,,,,,0,0,1,,,0,,,85,80
356080,note_off,,,,,0,0,2,,,0,,,46,64
356080,note_on,,,,,0,0,2,,,0,,,45,96
356080,note_off,,,,,80,0,1,,,0,,,86,64
356080,note_off,,,,,160,0,2,,,0,,,34,64
356080,note_on,,,,,0,0,2,,,0,,,33,96
356100,control_change,,,,,20,0,2,,,0,64,0,,
356140,note_off,,,,,40,0,2,,,0,,,33,64
356140,note_off,,,,,0,0,2,,,0,,,45,64
356140,set_tempo,,,,,360,1,0,271493,,,,,,
356160,note_off,,,,,80,0,1,,,0,,,85,64
356160,note_on,,,,,0,0,1,,,0,,,86,82
356160,note_on,,,,,0,0,2,,,0,,,34,94
356160,control_change,,,,,0,0,2,,,0,64,127,,
356160,note_on,,,,,20,0,2,,,0,,,46,94
356240,note_on,,,,,0,0,1,,,0,,,82,82
356240,note_off,,,,,80,0,1,,,0,,,86,64
356320,note_on,,,,,0,0,1,,,0,,,77,78
356320,note_off,,,,,80,0,1,,,0,,,82,64
356400,note_off,,,,,80,0,1,,,0,,,77,64
356400,note_on,,,,,0,0,1,,,0,,,74,74
356400,set_tempo,,,,,260,1,0,276498,,,,,,
356480,note_on,,,,,0,0,1,,,0,,,70,70
356480,note_off,,,,,80,0,1,,,0,,,74,64
356560,note_on,,,,,0,0,1,,,0,,,65,69
356560,note_off,,,,,80,0,1,,,0,,,70,64
356640,note_off,,,,,80,0,1,,,0,,,65,64
356640,note_on,,,,,0,0,1,,,0,,,62,67
356700,set_tempo,,,,,300,1,0,288462,,,,,,
356720,note_off,,,,,80,0,1,,,0,,,62,64
356720,note_on,,,,,0,0,1,,,0,,,65,66
356800,note_off,,,,,80,0,1,,,0,,,65,64
356800,note_on,,,,,0,0,1,,,0,,,70,66
356880,note_on,,,,,0,0,1,,,0,,,65,93
356880,note_off,,,,,80,0,1,,,0,,,70,64
356880,note_on,,,,,0,0,1,,,0,,,68,93
356880,note_off,,,,,0,0,2,,,0,,,46,64
356880,note_on,,,,,0,0,1,,,0,,,74,93
356880,control_change,,,,,0,0,2,,,0,64,0,,
356880,note_on,,,,,0,0,2,,,0,,,47,104
356880,note_on,,,,,0,0,2,,,0,,,35,104
356880,note_off,,,,,720,0,2,,,0,,,34,64
357090,note_off,,,,,210,0,2,,,0,,,35,64
357090,note_off,,,,,0,0,2,,,0,,,47,64
357100,note_off,,,,,0,0,1,,,0,,,74,64
357100,note_off,,,,,220,0,1,,,0,,,65,64
357100,note_off,,,,,0,0,1,,,0,,,68,64
357120,note_on,,,,,20,0,1,,,0,,,69,70
357120,note_on,,,,,30,0,2,,,0,,,48,102
357120,note_on,,,,,0,0,2,,,0,,,36,102
357120,control_change,,,,,0,0,2,,,0,64,127,,
357140,set_tempo,,,,,440,1,0,283019,,,,,,
357200,note_on,,,,,0,0,1,,,0,,,72,72
357200,note_off,,,,,80,0,1,,,0,,,69,64
357280,note_off,,,,,80,0,1,,,0,,,72,64
357280,note_on,,,,,0,0,1,,,0,,,71,74
357300,note_off,,,,,180,0,2,,,0,,,36,64
357300,note_off,,,,,0,0,2,,,0,,,48,64
357300,control_change,,,,,0,0,2,,,0,64,0,,
357360,note_on,,,,,60,0,2,,,0,,,36,103
357360,note_off,,,,,80,0,1,,,0,,,71,64
357360,note_on,,,,,0,0,2,,,0,,,48,103
357360,control_change,,,,,0,0,2,,,0,64,127,,
357360,note_on,,,,,0,0,1,,,0,,,72,76
357400,set_tempo,,,,,260,1,0,275229,,,,,,
357440,note_on,,,,,0,0,1,,,0,,,76,77
357440,note_off,,,,,80,0,1,,,0,,,72,64
357520,note_off,,,,,80,0,1,,,0,,,76,64
357520,note_on,,,,,0,0,1,,,0,,,75,80
357540,note_off,,,,,0,0,2,,,0,,,36,64
357540,control_change,,,,,0,0,2,,,0,64,0,,
357540,note_off,,,,,180,0,2,,,0,,,48,64
357600,note_on,,,,,0,0,1,,,0,,,76,82
357600,note_off,,,,,80,0,1,,,0,,,75,64
357600,note_on,,,,,0,0,2,,,0,,,36,97
357600,note_on,,,,,0,0,2,,,0,,,48,97
357600,control_change,,,,,60,0,2,,,0,64,127,,
357680,set_tempo,,,,,280,1,0,265487,,,,,,
357680,note_on,,,,,0,0,1,,,0,,,81,82
357680,note_off,,,,,80,0,1,,,0,,,76,64
357760,note_off,,,,,80,0,1,,,0,,,81,64
357760,note_on,,,,,0,0,1,,,0,,,80,85
357780,control_change,,,,,0,0,2,,,0,64,0,,
357780,note_off,,,,,0,0,2,,,0,,,48,64
357780,note_off,,,,,180,0,2,,,0,,,36,64
357840,note_on,,,,,60,0,2,,,0,,,53,91
357840,control_change,,,,,0,0,2,,,0,64,127,,
357840,note_on,,,,,0,0,2,,,0,,,41,91
357840,note_off,,,,,80,0,1,,,0,,,80,64
357840,note_on,,,,,0,0,1,,,0,,,81,88
357920,note_off,,,,,80,0,1,,,0,,,81,64
357920,note_on,,,,,0,0,1,,,0,,,93,90
358000,note_on,,,,,0,0,2,,,0,,,40,109
358000,note_on,,,,,0,0,2,,,0,,,52,109
358000,note_off,,,,,0,0,2,,,0,,,53,64
358000,note_off,,,,,160,0,2,,,0,,,41,64
358000,note_off,,,,,80,0,1,,,0,,,93,64
358000,note_on,,,,,0,0,1,,,0,,,92,92
358020,control_change,,,,,20,0,2,,,0,64,0,,
358060,note_off,,,,,0,0,2,,,0,,,52,64
358060,note_off,,,,,40,0,2,,,0,,,40,64
358080,note_off,,,,,80,0,1,,,0,,,92,64
358080,control_change,,,,,0,0,2,,,0,64,127,,
358080,note_on,,,,,0,0,2,,,0,,,45,112
358080,note_on,,,,,0,0,2,,,0,,,41,112
358080,note_on,,,,,0,0,2,,,0,,,48,112
358080,note_on,,,,,20,0,2,,,0,,,53,112
358080,note_on,,,,,0,0,1,,,0,,,93,95
358160,note_off,,,,,80,0,1,,,0,,,93,64
358160,note_on,,,,,0,0,1,,,0,,,89,92
358240,note_on,,,,,0,0,1,,,0,,,84,89
358240,note_off,,,,,80,0,1,,,0,,,89,64
358320,note_on,,,,,0,0,1,,,0,,,81,85
358320,note_off,,,,,80,0,1,,,0,,,84,64
358400,note_on,,,,,0,0,1,,,0,,,77,83
358400,note_off,,,,,80,0,1,,,0,,,81,64
358480,note_on,,,,,0,0,1,,,0,,,72,81
358480,note_off,,,,,80,0,1,,,0,,,77,64
358560,note_on,,,,,0,0,1,,,0,,,69,78
358560,note_off,,,,,80,0,1,,,0,,,72,64
358640,note_on,,,,,0,0,1,,,0,,,72,76
358640,note_off,,,,,80,0,1,,,0,,,69,64
358720,note_on,,,,,0,0,1,,,0,,,77,75
358720,note_off,,,,,80,0,1,,,0,,,72,64
358800,note_off,,,,,720,0,2,,,0,,,45,64
358800,note_off,,,,,0,0,2,,,0,,,41,64
358800,note_on,,,,,0,0,1,,,0,,,81,73
358800,note_off,,,,,0,0,2,,,0,,,48,64
358800,note_off,,,,,0,0,2,,,0,,,53,64
358800,control_change,,,,,0,0,2,,,0,64,0,,
358800,note_off,,,,,80,0,1,,,0,,,77,64
358880,note_on,,,,,0,0,1,,,0,,,77,73
358880,note_off,,,,,80,0,1,,,0,,,81,64
358960,note_off,,,,,80,0,1,,,0,,,77,64
358960,note_on,,,,,0,0,1,,,0,,,72,73
359040,control_change,,,,,0,0,2,,,0,64,127,,
359040,note_on,,,,,240,0,2,,,0,,,48,100
359040,note_off,,,,,80,0,1,,,0,,,72,64
359040,note_on,,,,,0,0,1,,,0,,,69,72
359040,note_on,,,,,0,0,2,,,0,,,36,100
359120,note_off,,,,,80,0,1,,,0,,,69,64
359120,note_on,,,,,0,0,1,,,0,,,72,76
359200,note_on,,,,,0,0,1,,,0,,,71,79
359200,note_off,,,,,80,0,1,,,0,,,72,64
359220,note_off,,,,,180,0,2,,,0,,,36,64
359220,note_off,,,,,0,0,2,,,0,,,48,64
359220,control_change,,,,,0,0,2,,,0,64,0,,
359280,note_on,,,,,60,0,2,,,0,,,48,95
359280,note_off,,,,,80,0,1,,,0,,,71,64
359280,note_on,,,,,0,0,1,,,0,,,72,82
359280,note_on,,,,,0,0,2,,,0,,,36,95
359280,control_change,,,,,0,0,2,,,0,64,127,,
359360,note_off,,,,,80,0,1,,,0,,,72,64
359360,note_on,,,,,0,0,1,,,0,,,76,82
359440,note_on,,,,,0,0,1,,,0,,,75,84
359440,note_off,,,,,80,0,1,,,0,,,76,64
359460,control_change,,,,,0,0,2,,,0,64,0,,
359460,note_off,,,,,0,0,2,,,0,,,48,64
359460,note_off,,,,,180,0,2,,,0,,,36,64
359520,control_change,,,,,0,0,2,,,0,64,127,,
359520,note_on,,,,,0,0,1,,,0,,,76,87
359520,note_off,,,,,80,0,1,,,0,,,75,64
359520,note_on,,,,,0,0,2,,,0,,,36,102
359520,note_on,,,,,60,0,2,,,0,,,48,102
359600,note_on,,,,,0,0,1,,,0,,,81,89
359600,note_off,,,,,80,0,1,,,0,,,76,64
359680,note_on,,,,,0,0,1,,,0,,,80,91
359680,note_off,,,,,80,0,1,,,0,,,81,64
359700,note_off,,,,,180,0,2,,,0,,,36,64
359700,note_off,,,,,0,0,2,,,0,,,48,64
359700,control_change,,,,,0,0,2,,,0,64,0,,
359760,note_on,,,,,0,0,2,,,0,,,53,106
359760,note_on,,,,,0,0,1,,,0,,,81,93
359760,note_off,,,,,80,0,1,,,0,,,80,64
359760,control_change,,,,,60,0,2,,,0,64,127,,
359760,note_on,,,,,0,0,2,,,0,,,41,106
359840,note_off,,,,,80,0,1,,,0,,,81,64
359840,note_on,,,,,0,0,1,,,0,,,93,95
359920,note_on,,,,,0,0,2,,,0,,,40,109
359920,note_on,,,,,0,0,2,,,0,,,52,109
359920,note_off,,,,,0,0,2,,,0,,,53,64
359920,note_off,,,,,80,0,1,,,0,,,93,64
359920,note_on,,,,,0,0,1,,,0,,,92,96
359920,note_off,,,,,160,0,2,,,0,,,41,64
359940,control_change,,,,,20,0,2,,,0,64,0,,
359980,note_off,,,,,40,0,2,,,0,,,40,64
359980,note_off,,,,,0,0,2,,,0,,,52,64
360000,note_on,,,,,0,0,2,,,0,,,41,111
360000,note_off,,,,,80,0,1,,,0,,,92,64
360000,note_on,,,,,20,0,2,,,0,,,53,111
360000,control_change,,,,,0,0,2,,,0,64,127,,
360000,note_on,,,,,0,0,2,,,0,,,48,111
360000,note_on,,,,,0,0,2,,,0,,,45,111
360000,note_on,,,,,0,0,1,,,0,,,93,97
360080,note_on,,,,,0,0,1,,,0,,,89,92
360080,note_off,,,,,80,0,1,,,0,,,93,64
360160,note_off,,,,,80,0,1,,,0,,,89,64
360160,note_on,,,,,0,0,1,,,0,,,84,88
360240,set_tempo,,,,,2560,1,0,263158,,,,,,
360240,note_off,,,,,80,0,1,,,0,,,84,64
360240,note_on,,,,,0,0,1,,,0,,,81,86
360280,set_tempo,,,,,40,1,0,262009,,,,,,
360320,note_off,,,,,80,0,1,,,0,,,81,64
360320,note_on,,,,,0,0,1,,,0,,,77,80
360400,note_off,,,,,80,0,1,,,0,,,77,64
360400,note_on,,,,,0,0,1,,,0,,,72,79
360480,note_off,,,,,80,0,1,,,0,,,72,64
360480,note_on,,,,,0,0,1,,,0,,,69,76
360560,note_off,,,,,80,0,1,,,0,,,69,64
360560,note_on,,,,,0,0,1,,,0,,,72,69
360640,note_off,,,,,80,0,1,,,0,,,72,64
360640,note_on,,,,,0,0,1,,,0,,,77,66
360660,control_change,,,,,660,0,2,,,0,64,0,,
360720,note_off,,,,,80,0,1,,,0,,,77,64
360720,note_on,,,,,0,0,1,,,0,,,72,64
360720,note_off,,,,,0,0,2,,,0,,,45,64
360720,note_off,,,,,60,0,2,,,0,,,41,64
360720,note_off,,,,,0,0,2,,,0,,,48,64
360720,note_off,,,,,0,0,2,,,0,,,53,64
360720,note_on,,,,,0,0,2,,,0,,,56,96
360720,note_on,,,,,0,0,2,,,0,,,44,96
360800,note_off,,,,,80,0,1,,,0,,,72,64
360800,note_on,,,,,0,0,1,,,0,,,84,61
360880,note_off,,,,,160,0,2,,,0,,,44,64
360880,note_on,,,,,0,0,2,,,0,,,55,103
360880,note_off,,,,,0,0,2,,,0,,,56,64
360880,note_on,,,,,0,0,2,,,0,,,43,103
360880,note_off,,,,,80,0,1,,,0,,,84,64
360880,note_on,,,,,0,0,1,,,0,,,83,58
360940,note_off,,,,,60,0,2,,,0,,,43,64
360940,note_off,,,,,0,0,2,,,0,,,55,64
360960,note_on,,,,,20,0,2,,,0,,,56,107
360960,note_on,,,,,0,0,2,,,0,,,44,107
360960,note_on,,,,,0,0,1,,,0,,,72,66
360960,note_off,,,,,80,0,1,,,0,,,83,64
361040,note_on,,,,,0,0,1,,,0,,,84,69
361040,note_off,,,,,80,0,1,,,0,,,72,64
361120,note_off,,,,,80,0,1,,,0,,,84,64
361120,note_on,,,,,0,0,1,,,0,,,80,72
361200,note_on,,,,,0,0,1,,,0,,,77,77
361200,note_off,,,,,80,0,1,,,0,,,80,64
361280,note_on,,,,,0,0,1,,,0,,,72,77
361280,note_off,,,,,80,0,1,,,0,,,77,64
361360,note_on,,,,,0,0,1,,,0,,,68,85
361360,set_tempo,,,,,1080,1,0,258621,,,,,,
361360,note_off,,,,,80,0,1,,,0,,,72,64
361440,note_on,,,,,0,0,1,,,0,,,65,85
361440,note_off,,,,,80,0,1,,,0,,,68,64
361520,note_on,,,,,0,0,1,,,0,,,68,82
361520,note_off,,,,,80,0,1,,,0,,,65,64
361600,note_on,,,,,0,0,1,,,0,,,72,77
361600,note_off,,,,,80,0,1,,,0,,,68,64
361680,note_off,,,,,720,0,2,,,0,,,44,64
361680,note_off,,,,,0,0,2,,,0,,,56,64
361680,control_change,,,,,0,0,2,,,0,64,127,,
361680,note_on,,,,,0,0,2,,,0,,,61,96
361680,note_on,,,,,0,0,2,,,0,,,56,96
361680,note_off,,,,,80,0,1,,,0,,,72,64
361680,note_on,,,,,0,0,1,,,0,,,73,77
361680,note_on,,,,,0,0,2,,,0,,,64,96
361760,note_on,,,,,0,0,1,,,0,,,85,74
361760,note_off,,,,,80,0,1,,,0,,,73,64
361840,note_on,,,,,0,0,1,,,0,,,84,72
361840,note_off,,,,,80,0,1,,,0,,,85,64
361840,note_off,,,,,160,0,2,,,0,,,56,64
361840,note_off,,,,,0,0,2,,,0,,,64,64
361840,note_on,,,,,0,0,2,,,0,,,63,103
361840,note_on,,,,,0,0,2,,,0,,,61,103
361840,note_on,,,,,0,0,2,,,0,,,56,103
361840,note_off,,,,,0,0,2,,,0,,,61,64
361860,control_change,,,,,20,0,2,,,0,64,0,,
361900,note_off,,,,,40,0,2,,,0,,,56,64
361900,note_off,,,,,0,0,2,,,0,,,61,64
361900,note_off,,,,,0,0,2,,,0,,,63,64
361920,note_on,,,,,0,0,1,,,0,,,73,80
361920,note_off,,,,,80,0,1,,,0,,,84,64
361920,note_on,,,,,0,0,2,,,0,,,64,125
361920,control_change,,,,,0,0,2,,,0,64,127,,
361920,note_on,,,,,0,0,2,,,0,,,61,125
361920,note_on,,,,,20,0,2,,,0,,,56,125
362000,note_off,,,,,80,0,1,,,0,,,73,64
362000,note_on,,,,,0,0,1,,,0,,,85,82
362080,note_on,,,,,0,0,1,,,0,,,80,88
362080,note_off,,,,,80,0,1,,,0,,,85,64
362120,set_tempo,,,,,760,1,0,255319,,,,,,
362160,note_on,,,,,0,0,1,,,0,,,76,90
362160,note_off,,,,,80,0,1,,,0,,,80,64
362240,note_off,,,,,80,0,1,,,0,,,76,64
362240,note_on,,,,,0,0,1,,,0,,,73,90
362320,note_off,,,,,80,0,1,,,0,,,73,64
362320,note_on,,,,,0,0,1,,,0,,,68,96
362400,note_off,,,,,80,0,1,,,0,,,68,64
362400,note_on,,,,,0,0,1,,,0,,,64,96
362480,note_off,,,,,80,0,1,,,0,,,64,64
362480,note_on,,,,,0,0,1,,,0,,,68,96
362560,note_off,,,,,80,0,1,,,0,,,68,64
362560,note_on,,,,,0,0,1,,,0,,,73,93
362580,control_change,,,,,660,0,2,,,0,64,0,,
362640,note_off,,,,,0,0,2,,,0,,,56,64
362640,note_on,,,,,0,0,2,,,0,,,64,90
362640,note_on,,,,,0,0,2,,,0,,,61,90
362640,note_on,,,,,0,0,2,,,0,,,56,90
362640,control_change,,,,,0,0,2,,,0,64,127,,
362640,note_off,,,,,60,0,2,,,0,,,61,64
362640,note_off,,,,,80,0,1,,,0,,,73,64
362640,note_off,,,,,0,0,2,,,0,,,64,64
362640,note_on,,,,,0,0,1,,,0,,,74,88
362720,note_off,,,,,80,0,1,,,0,,,74,64
362720,note_on,,,,,0,0,1,,,0,,,86,90
362800,note_on,,,,,0,0,2,,,0,,,61,102
362800,note_off,,,,,0,0,2,,,0,,,61,64
362800,note_off,,,,,0,0,2,,,0,,,64,64
362800,note_on,,,,,0,0,2,,,0,,,65,102
362800,note_off,,,,,80,0,1,,,0,,,86,64
362800,note_on,,,,,0,0,1,,,0,,,85,85
362800,note_off,,,,,160,0,2,,,0,,,56,64
362800,note_on,,,,,0,0,2,,,0,,,56,102
362820,control_change,,,,,20,0,2,,,0,64,0,,
362860,note_off,,,,,0,0,2,,,0,,,65,64
362860,note_off,,,,,0,0,2,,,0,,,61,64
362860,note_off,,,,,40,0,2,,,0,,,56,64
362880,note_on,,,,,20,0,2,,,0,,,61,108
362880,note_on,,,,,0,0,2,,,0,,,56,108
362880,note_off,,,,,80,0,1,,,0,,,85,64
362880,control_change,,,,,0,0,2,,,0,64,127,,
362880,note_on,,,,,0,0,2,,,0,,,64,108
362880,note_on,,,,,0,0,1,,,0,,,74,89
362960,note_off,,,,,80,0,1,,,0,,,74,64
362960,note_on,,,,,0,0,1,,,0,,,86,91
363040,note_off,,,,,80,0,1,,,0,,,86,64
363040,note_on,,,,,0,0,1,,,0,,,83,94
363120,note_off,,,,,80,0,1,,,0,,,83,64
363120,note_on,,,,,0,0,1,,,0,,,80,97
363160,set_tempo,,,,,1040,1,0,252101,,,,,,
363180,set_tempo,,,,,20,1,0,251046,,,,,,
363200,note_on,,,,,0,0,1,,,0,,,74,100
363200,note_off,,,,,80,0,1,,,0,,,80,64
363280,note_on,,,,,0,0,1,,,0,,,71,103
363280,note_off,,,,,80,0,1,,,0,,,74,64
363360,note_on,,,,,0,0,1,,,0,,,68,106
363360,note_off,,,,,80,0,1,,,0,,,71,64
363440,note_off,,,,,80,0,1,,,0,,,68,64
363440,note_on,,,,,0,0,1,,,0,,,71,107
363500,set_tempo,,,,,320,1,0,250000,,,,,,
363520,note_on,,,,,0,0,1,,,0,,,74,108
363520,note_off,,,,,80,0,1,,,0,,,71,64
363540,control_change,,,,,660,0,2,,,0,64,0,,
363600,control_change,,,,,0,0,2,,,0,64,127,,
363600,note_on,,,,,0,0,2,,,0,,,56,99
363600,note_on,,,,,0,0,2,,,0,,,59,99
363600,note_on,,,,,0,0,1,,,0,,,75,104
363600,note_off,,,,,80,0,1,,,0,,,74,64
363600,note_on,,,,,0,0,2,,,0,,,63,99
363600,note_off,,,,,0,0,2,,,0,,,61,64
363600,note_off,,,,,0,0,2,,,0,,,56,64
363600,note_off,,,,,60,0,2,,,0,,,64,64
363680,note_on,,,,,0,0,1,,,0,,,87,101
363680,note_off,,,,,80,0,1,,,0,,,75,64
363760,note_off,,,,,0,0,2,,,0,,,59,64
363760,note_off,,,,,160,0,2,,,0,,,56,64
363760,note_off,,,,,0,0,2,,,0,,,63,64
363760,note_on,,,,,0,0,1,,,0,,,86,99
363760,note_off,,,,,80,0,1,,,0,,,87,64
363760,note_on,,,,,0,0,2,,,0,,,64,107
363760,note_on,,,,,0,0,2,,,0,,,59,107
363760,note_on,,,,,0,0,2,,,0,,,56,107
363780,control_change,,,,,20,0,2,,,0,64,0,,
363800,set_tempo,,,,,300,1,0,247934,,,,,,
363820,note_off,,,,,40,0,2,,,0,,,56,64
363820,note_off,,,,,0,0,2,,,0,,,59,64
363820,note_off,,,,,0,0,2,,,0,,,64,64
363840,note_off,,,,,80,0,1,,,0,,,86,64
363840,note_on,,,,,0,0,1,,,0,,,75,98
363840,control_change,,,,,0,0,2,,,0,64,127,,
363840,note_on,,,,,0,0,2,,,0,,,56,112
363840,note_on,,,,,0,0,2,,,0,,,59,112
363840,note_on,,,,,20,0,2,,,0,,,63,112
363920,note_off,,,,,80,0,1,,,0,,,75,64
363920,note_on,,,,,0,0,1,,,0,,,87,100
364000,note_off,,,,,80,0,1,,,0,,,87,64
364000,note_on,,,,,0,0,1,,,0,,,83,102
364078,note_off,,,,,0,0,2,,,0,,,63,64
364078,note_off,,,,,0,0,2,,,0,,,59,64
364078,note_off,,,,,238,0,2,,,0,,,56,64
364080,note_on,,,,,0,0,2,,,0,,,56,104
364080,note_on,,,,,0,0,2,,,0,,,59,104
364080,note_on,,,,,0,0,2,,,0,,,62,104
364080,control_change,,,,,2,0,2,,,0,64,127,,
364080,note_on,,,,,0,0,1,,,0,,,76,104
364080,note_off,,,,,80,0,1,,,0,,,83,64
364120,set_tempo,,,,,320,1,0,244898,,,,,,
364160,note_on,,,,,0,0,1,,,0,,,88,104
364160,note_off,,,,,80,0,1,,,0,,,76,64
364240,note_off,,,,,80,0,1,,,0,,,88,64
364240,note_on,,,,,0,0,2,,,0,,,59,109
364240,note_on,,,,,0,0,1,,,0,,,87,107
364240,note_off,,,,,160,0,2,,,0,,,56,64
364240,note_off,,,,,0,0,2,,,0,,,59,64
364240,note_off,,,,,0,0,2,,,0,,,62,64
364240,note_on,,,,,0,0,2,,,0,,,64,109
364240,note_on,,,,,0,0,2,,,0,,,56,109
364260,control_change,,,,,20,0,2,,,0,64,0,,
364300,note_off,,,,,40,0,2,,,0,,,56,64
364300,note_off,,,,,0,0,2,,,0,,,64,64
364300,note_off,,,,,0,0,2,,,0,,,59,64
364320,control_change,,,,,20,0,2,,,0,64,127,,
364320,note_on,,,,,0,0,2,,,0,,,62,112
364320,note_on,,,,,0,0,2,,,0,,,59,112
364320,note_on,,,,,0,0,2,,,0,,,56,112
364320,note_off,,,,,80,0,1,,,0,,,87,64
364320,note_on,,,,,0,0,1,,,0,,,76,109
364400,note_off,,,,,80,0,1,,,0,,,76,64
364400,note_on,,,,,0,0,1,,,0,,,88,110
364480,note_on,,,,,0,0,1,,,0,,,83,108
364480,note_off,,,,,80,0,1,,,0,,,88,64
364510,note_off,,,,,0,0,2,,,0,,,62,64
364510,note_off,,,,,190,0,2,,,0,,,56,64
364510,note_off,,,,,0,0,2,,,0,,,59,64
364560,note_on,,,,,50,0,2,,,0,,,62,102
364560,note_off,,,,,80,0,1,,,0,,,83,64
364560,note_on,,,,,0,0,1,,,0,,,80,106
364560,note_on,,,,,0,0,2,,,0,,,53,102
364560,note_on,,,,,0,0,2,,,0,,,59,102
364640,note_on,,,,,0,0,1,,,0,,,92,103
364640,note_off,,,,,80,0,1,,,0,,,80,64
364720,note_on,,,,,0,0,1,,,0,,,86,102
364720,note_off,,,,,80,0,1,,,0,,,92,64
364740,control_change,,,,,180,0,2,,,0,64,0,,
364750,note_off,,,,,0,0,2,,,0,,,62,64
364750,note_off,,,,,0,0,2,,,0,,,59,64
364750,note_off,,,,,10,0,2,,,0,,,53,64
364800,note_on,,,,,0,0,1,,,0,,,81,111
364800,note_on,,,,,0,0,1,,,0,,,85,111
364800,note_on,,,,,0,0,2,,,0,,,57,112
364800,note_on,,,,,0,0,2,,,0,,,54,112
364800,note_off,,,,,80,0,1,,,0,,,86,64
364800,note_on,,,,,0,0,1,,,0,,,93,111
364800,note_on,,,,,50,0,2,,,0,,,61,112
364800,control_change,,,,,0,0,2,,,0,64,127,,
365040,note_off,,,,,240,0,2,,,0,,,54,64
365040,note_off,,,,,0,0,2,,,0,,,57,64
365040,note_off,,,,,0,0,1,,,0,,,93,64
365040,note_off,,,,,0,0,1,,,0,,,85,64
365040,note_off,,,,,240,0,1,,,0,,,81,64
365040,note_off,,,,,0,0,2,,,0,,,61,64
365100,control_change,,,,,60,0,2,,,0,64,0,,
365280,control_change,,,,,0,0,2,,,0,64,127,,
365280,note_on,,,,,180,0,2,,,0,,,57,98
365280,note_on,,,,,0,0,2,,,0,,,54,98
365280,note_on,,,,,240,0,1,,,0,,,78,100
365280,note_on,,,,,0,0,1,,,0,,,81,100
365280,note_on,,,,,0,0,1,,,0,,,86,100
365280,note_on,,,,,0,0,1,,,0,,,90,100
365280,note_on,,,,,0,0,2,,,0,,,50,98
365280,note_on,,,,,0,0,2,,,0,,,62,98
365520,note_off,,,,,240,0,2,,,0,,,62,64
365520,note_off,,,,,0,0,2,,,0,,,50,64
365520,note_off,,,,,0,0,2,,,0,,,54,64
365520,note_off,,,,,0,0,2,,,0,,,57,64
365520,note_off,,,,,240,0,1,,,0,,,90,64
365520,note_off,,,,,0,0,1,,,0,,,86,64
365520,note_off,,,,,0,0,1,,,0,,,81,64
365520,note_off,,,,,0,0,1,,,0,,,78,64
365580,control_change,,,,,60,0,2,,,0,64,0,,
365760,note_on,,,,,0,0,1,,,0,,,88,109
365760,note_on,,,,,180,0,2,,,0,,,61,105
365760,note_on,,,,,0,0,2,,,0,,,57,105
365760,note_on,,,,,0,0,2,,,0,,,52,105
365760,control_change,,,,,0,0,2,,,0,64,127,,
365760,note_on,,,,,240,0,1,,,0,,,76,109
365760,note_on,,,,,0,0,1,,,0,,,85,109
366000,note_off,,,,,240,0,2,,,0,,,52,64
366000,note_off,,,,,0,0,2,,,0,,,57,64
366000,note_off,,,,,0,0,2,,,0,,,61,64
366000,note_off,,,,,0,0,1,,,0,,,76,64
366000,note_off,,,,,0,0,1,,,0,,,85,64
366000,note_off,,,,,240,0,1,,,0,,,88,64
366060,control_change,,,,,60,0,2,,,0,64,0,,
366240,note_on,,,,,0,0,1,,,0,,,83,112
366240,note_on,,,,,0,0,2,,,0,,,59,112
366240,control_change,,,,,0,0,2,,,0,64,127,,
366240,note_on,,,,,180,0,2,,,0,,,64,112
366240,note_on,,,,,240,0,1,,,0,,,76,112
366240,note_on,,,,,0,0,1,,,0,,,80,112
366240,note_on,,,,,0,0,2,,,0,,,56,112
366240,note_on,,,,,0,0,2,,,0,,,52,112
366240,note_on,,,,,0,0,1,,,0,,,88,112
366480,note_off,,,,,240,0,1,,,0,,,88,64
366480,note_off,,,,,0,0,1,,,0,,,83,64
366480,note_off,,,,,0,0,1,,,0,,,80,64
366480,note_off,,,,,240,0,2,,,0,,,52,64
366480,note_off,,,,,0,0,1,,,0,,,76,64
366480,note_off,,,,,0,0,2,,,0,,,64,64
366480,note_off,,,,,0,0,2,,,0,,,56,64
366480,note_off,,,,,0,0,2,,,0,,,59,64
366540,control_change,,,,,60,0,2,,,0,64,0,,
366720,set_tempo,,,,,2600,1,0,487805,,,,,,
367680,control_change,,,,,1140,0,2,,,0,64,127,,
367680,set_tempo,,,,,960,1,0,600000,,,,,,
367680,note_on,,,,,0,0,2,,,0,,,45,32
367720,set_tempo,,,,,40,1,0,434783,,,,,,
367800,note_on,,,,,120,0,2,,,0,,,52,27
367920,note_off,,,,,120,0,2,,,0,,,52,64
367920,note_on,,,,,0,0,2,,,0,,,57,22
368040,note_on,,,,,0,0,2,,,0,,,52,20
368040,note_off,,,,,120,0,2,,,0,,,57,64
368100,control_change,,,,,60,0,2,,,0,64,0,,
368160,set_tempo,,,,,440,1,0,759494,,,,,,
368160,note_on,,,,,1680,0,1,,,0,,,61,42
368160,note_off,,,,,60,0,2,,,0,,,52,64
368160,note_off,,,,,0,0,2,,,0,,,45,64
368160,note_on,,,,,0,0,2,,,0,,,45,29
368160,control_change,,,,,0,0,2,,,0,64,127,,
368174,note_on,,,,,14,0,1,,,0,,,69,42
368188,note_on,,,,,14,0,1,,,0,,,76,42
368200,set_tempo,,,,,40,1,0,434783,,,,,,
368280,note_on,,,,,120,0,2,,,0,,,52,27
368400,note_off,,,,,120,0,2,,,0,,,52,64
368400,note_on,,,,,0,0,2,,,0,,,57,26
368518,note_off,,,,,330,0,1,,,0,,,76,64
368520,note_off,,,,,120,0,2,,,0,,,57,64
368520,note_on,,,,,0,0,2,,,0,,,52,25
368520,control_change,,,,,0,0,2,,,0,64,0,,
368520,note_on,,,,,2,0,1,,,0,,,74,35
368580,note_on,,,,,0,0,1,,,0,,,73,37
368580,note_off,,,,,60,0,1,,,0,,,74,64
368600,set_tempo,,,,,400,1,0,444444,,,,,,
368640,note_off,,,,,0,0,1,,,0,,,61,64
368640,note_off,,,,,60,0,1,,,0,,,73,64
368640,note_on,,,,,0,0,1,,,0,,,71,40
368640,note_on,,,,,0,0,1,,,0,,,63,40
368640,note_on,,,,,0,0,1,,,0,,,69,40
368640,note_off,,,,,120,0,2,,,0,,,52,64
368640,note_off,,,,,0,0,2,,,0,,,45,64
368640,control_change,,,,,0,0,2,,,0,64,127,,
368640,note_on,,,,,0,0,2,,,0,,,45,33
368654,note_off,,,,,14,0,1,,,0,,,69,64
368760,note_on,,,,,120,0,2,,,0,,,54,31
368820,control_change,,,,,60,0,2,,,0,64,0,,
368842,note_off,,,,,0,0,1,,,0,,,69,64
368842,note_off,,,,,188,0,1,,,0,,,71,64
368842,note_off,,,,,0,0,1,,,0,,,63,64
368880,note_off,,,,,60,0,2,,,0,,,54,64
368880,control_change,,,,,0,0,2,,,0,64,127,,
368880,note_on,,,,,0,0,1,,,0,,,71,33
368880,note_on,,,,,0,0,1,,,0,,,69,33
368880,note_on,,,,,0,0,2,,,0,,,59,29
368880,note_on,,,,,38,0,1,,,0,,,63,33
369000,note_on,,,,,0,0,2,,,0,,,54,26
369000,set_tempo,,,,,400,1,0,458015,,,,,,
369000,note_off,,,,,120,0,2,,,0,,,59,64
369060,note_off,,,,,180,0,1,,,0,,,69,64
369060,note_off,,,,,0,0,1,,,0,,,71,64
369060,note_off,,,,,0,0,1,,,0,,,63,64
369060,control_change,,,,,60,0,2,,,0,64,0,,
369120,note_on,,,,,0,0,1,,,0,,,68,31
369120,note_on,,,,,60,0,1,,,0,,,62,31
369120,control_change,,,,,0,0,2,,,0,64,127,,
369120,note_on,,,,,0,0,2,,,0,,,45,28
369120,note_off,,,,,0,0,2,,,0,,,45,64
369120,note_off,,,,,60,0,2,,,0,,,54,64
369120,note_on,,,,,0,0,1,,,0,,,71,31
369240,note_on,,,,,120,0,2,,,0,,,52,28
369300,note_off,,,,,180,0,1,,,0,,,71,64
369300,set_tempo,,,,,300,1,0,472441,,,,,,
369360,note_on,,,,,60,0,1,,,0,,,74,29
369360,note_on,,,,,0,0,2,,,0,,,59,25
369360,note_off,,,,,120,0,2,,,0,,,52,64
369480,note_off,,,,,120,0,2,,,0,,,59,64
369480,note_on,,,,,0,0,2,,,0,,,52,21
369540,control_change,,,,,60,0,2,,,0,64,0,,
369540,set_tempo,,,,,240,1,0,495868,,,,,,
369540,note_off,,,,,180,0,1,,,0,,,74,64
369540,note_on,,,,,0,0,1,,,0,,,73,28
369570,note_off,,,,,30,0,1,,,0,,,68,64
369570,note_off,,,,,0,0,1,,,0,,,62,64
369580,note_off,,,,,10,0,1,,,0,,,73,64
369600,note_on,,,,,20,0,1,,,0,,,61,29
369600,note_on,,,,,0,0,1,,,0,,,69,29
369600,note_off,,,,,60,0,2,,,0,,,52,64
369600,note_off,,,,,0,0,2,,,0,,,45,64
369600,note_on,,,,,0,0,2,,,0,,,45,32
369600,control_change,,,,,0,0,2,,,0,64,127,,
369700,set_tempo,,,,,160,1,0,465116,,,,,,
369720,note_on,,,,,120,0,2,,,0,,,52,27
369840,note_on,,,,,0,0,2,,,0,,,57,22
369840,note_off,,,,,240,0,1,,,0,,,69,64
369840,note_off,,,,,120,0,2,,,0,,,52,64
369840,note_off,,,,,0,0,1,,,0,,,61,64
369860,set_tempo,,,,,160,1,0,437956,,,,,,
369960,note_on,,,,,0,0,2,,,0,,,52,20
369960,note_off,,,,,120,0,2,,,0,,,57,64
370000,set_tempo,,,,,140,1,0,425532,,,,,,
370020,control_change,,,,,60,0,2,,,0,64,0,,
370080,set_tempo,,,,,80,1,0,769231,,,,,,
370080,control_change,,,,,0,0,2,,,0,64,127,,
370080,note_off,,,,,0,0,2,,,0,,,45,64
370080,note_off,,,,,60,0,2,,,0,,,52,64
370080,note_on,,,,,0,0,2,,,0,,,45,29
370080,note_on,,,,,240,0,1,,,0,,,61,42
370094,note_on,,,,,14,0,1,,,0,,,69,42
370108,note_on,,,,,14,0,1,,,0,,,76,42
370120,set_tempo,,,,,40,1,0,428571,,,,,,
370200,note_on,,,,,120,0,2,,,0,,,52,27
370320,note_on,,,,,0,0,2,,,0,,,57,26
370320,note_off,,,,,120,0,2,,,0,,,52,64
370438,note_off,,,,,330,0,1,,,0,,,76,64
370440,note_on,,,,,0,0,2,,,0,,,52,25
370440,note_off,,,,,120,0,2,,,0,,,57,64
370440,control_change,,,,,0,0,2,,,0,64,0,,
370440,note_on,,,,,2,0,1,,,0,,,74,35
370460,set_tempo,,,,,340,1,0,441176,,,,,,
370500,note_off,,,,,60,0,1,,,0,,,74,64
370500,note_on,,,,,0,0,1,,,0,,,73,37
370560,note_off,,,,,60,0,1,,,0,,,73,64
370560,note_off,,,,,0,0,1,,,0,,,61,64
370560,note_on,,,,,0,0,1,,,0,,,63,40
370560,control_change,,,,,0,0,2,,,0,64,127,,
370560,note_off,,,,,0,0,2,,,0,,,45,64
370560,note_off,,,,,120,0,2,,,0,,,52,64
370560,note_on,,,,,0,0,1,,,0,,,71,40
370560,note_on,,,,,0,0,1,,,0,,,69,40
370560,note_on,,,,,0,0,2,,,0,,,45,33
370574,note_off,,,,,14,0,1,,,0,,,69,64
370620,set_tempo,,,,,160,1,0,465116,,,,,,
370680,note_on,,,,,120,0,2,,,0,,,54,31
370740,control_change,,,,,60,0,2,,,0,64,0,,
370762,note_off,,,,,0,0,1,,,0,,,63,64
370762,note_off,,,,,0,0,1,,,0,,,69,64
370762,note_off,,,,,188,0,1,,,0,,,71,64
370800,note_on,,,,,0,0,1,,,0,,,71,33
370800,note_on,,,,,0,0,1,,,0,,,69,33
370800,note_on,,,,,38,0,1,,,0,,,63,33
370800,note_on,,,,,0,0,2,,,0,,,59,29
370800,control_change,,,,,0,0,2,,,0,64,127,,
370800,note_off,,,,,60,0,2,,,0,,,54,64
370920,note_on,,,,,0,0,2,,,0,,,54,26
370920,note_off,,,,,120,0,2,,,0,,,59,64
370960,set_tempo,,,,,340,1,0,491803,,,,,,
370980,note_off,,,,,0,0,1,,,0,,,63,64
370980,note_off,,,,,0,0,1,,,0,,,71,64
370980,note_off,,,,,180,0,1,,,0,,,69,64
370980,control_change,,,,,60,0,2,,,0,64,0,,
371040,control_change,,,,,0,0,2,,,0,64,127,,
371040,note_on,,,,,0,0,1,,,0,,,68,31
371040,note_off,,,,,0,0,2,,,0,,,45,64
371040,note_on,,,,,0,0,1,,,0,,,71,31
371040,note_on,,,,,60,0,1,,,0,,,62,31
371040,note_off,,,,,60,0,2,,,0,,,54,64
371040,note_on,,,,,0,0,2,,,0,,,45,28
371140,set_tempo,,,,,180,1,0,512821,,,,,,
371160,note_on,,,,,120,0,2,,,0,,,52,28
371220,note_off,,,,,180,0,1,,,0,,,71,64
371280,note_on,,,,,60,0,1,,,0,,,74,29
371280,note_off,,,,,120,0,2,,,0,,,52,64
371280,note_on,,,,,0,0,2,,,0,,,59,25
371400,note_off,,,,,120,0,2,,,0,,,59,64
371400,note_on,,,,,0,0,2,,,0,,,52,21
371460,set_tempo,,,,,320,1,0,530973,,,,,,
371460,control_change,,,,,60,0,2,,,0,64,0,,
371460,note_off,,,,,180,0,1,,,0,,,74,64
371460,note_on,,,,,0,0,1,,,0,,,73,24
371490,note_off,,,,,30,0,1,,,0,,,68,64
371490,note_off,,,,,0,0,1,,,0,,,62,64
371500,note_off,,,,,10,0,1,,,0,,,73,64
371520,note_on,,,,,0,0,2,,,0,,,45,32
371520,note_on,,,,,0,0,1,,,0,,,69,29
371520,note_off,,,,,60,0,2,,,0,,,52,64
371520,note_off,,,,,0,0,2,,,0,,,45,64
371520,note_on,,,,,20,0,1,,,0,,,61,29
371520,control_change,,,,,0,0,2,,,0,64,127,,
371640,note_on,,,,,120,0,2,,,0,,,52,27
371760,note_off,,,,,0,0,1,,,0,,,61,64
371760,note_off,,,,,240,0,1,,,0,,,69,64
371760,note_on,,,,,0,0,2,,,0,,,57,22
371760,note_off,,,,,120,0,2,,,0,,,52,64
371880,note_on,,,,,0,0,2,,,0,,,52,20
371880,note_off,,,,,120,0,2,,,0,,,57,64
372000,control_change,,,,,0,0,2,,,0,64,127,,
372000,note_off,,,,,0,0,2,,,0,,,45,64
372000,note_off,,,,,120,0,2,,,0,,,52,64
372000,note_on,,,,,0,0,1,,,0,,,71,31
372000,note_on,,,,,0,0,1,,,0,,,68,31
372000,note_on,,,,,240,0,1,,,0,,,62,31
372000,note_on,,,,,0,0,2,,,0,,,45,28
372120,note_on,,,,,120,0,2,,,0,,,52,28
372180,note_off,,,,,180,0,1,,,0,,,71,64
372240,note_on,,,,,0,0,2,,,0,,,59,25
372240,note_on,,,,,60,0,1,,,0,,,74,29
372240,note_off,,,,,120,0,2,,,0,,,52,64
372360,note_off,,,,,120,0,2,,,0,,,59,64
372360,note_on,,,,,0,0,2,,,0,,,52,21
372420,note_on,,,,,0,0,1,,,0,,,73,24
372420,note_off,,,,,180,0,1,,,0,,,74,64
372420,control_change,,,,,60,0,2,,,0,64,0,,
372450,note_off,,,,,30,0,1,,,0,,,68,64
372450,note_off,,,,,0,0,1,,,0,,,62,64
372460,note_off,,,,,10,0,1,,,0,,,73,64
372480,note_on,,,,,20,0,1,,,0,,,61,29
372480,note_on,,,,,0,0,1,,,0,,,69,29
372480,note_off,,,,,60,0,2,,,0,,,52,64
372480,note_off,,,,,0,0,2,,,0,,,45,64
372480,control_change,,,,,0,0,2,,,0,64,127,,
372480,note_on,,,,,0,0,2,,,0,,,45,32
372600,note_on,,,,,120,0,2,,,0,,,52,27
372720,note_off,,,,,0,0,1,,,0,,,61,64
372720,note_off,,,,,240,0,1,,,0,,,69,64
372720,note_on,,,,,0,0,2,,,0,,,57,22
372720,note_off,,,,,120,0,2,,,0,,,52,64
372840,note_on,,,,,0,0,2,,,0,,,52,20
372840,note_off,,,,,120,0,2,,,0,,,57,64
372960,note_off,,,,,0,0,2,,,0,,,45,64
372960,note_on,,,,,0,0,2,,,0,,,45,28
372960,control_change,,,,,0,0,2,,,0,64,127,,
372960,note_off,,,,,120,0,2,,,0,,,52,64
372960,note_on,,,,,0,0,1,,,0,,,71,31
372960,note_on,,,,,240,0,1,,,0,,,62,31
372960,note_on,,,,,0,0,1,,,0,,,68,31
373060,set_tempo,,,,,1600,1,0,550459,,,,,,
373080,note_on,,,,,120,0,2,,,0,,,52,28
373140,note_off,,,,,180,0,1,,,0,,,71,64
373200,note_on,,,,,60,0,1,,,0,,,74,29
373200,note_off,,,,,120,0,2,,,0,,,52,64
373200,note_on,,,,,0,0,2,,,0,,,59,25
373300,set_tempo,,,,,240,1,0,576923,,,,,,
373320,note_off,,,,,120,0,2,,,0,,,59,64
373320,note_on,,,,,0,0,2,,,0,,,52,21
373380,control_change,,,,,60,0,2,,,0,64,0,,
373380,note_on,,,,,0,0,1,,,0,,,73,24
373380,note_off,,,,,180,0,1,,,0,,,74,64
373410,note_off,,,,,0,0,1,,,0,,,62,64
373410,note_off,,,,,30,0,1,,,0,,,68,64
373420,note_off,,,,,10,0,1,,,0,,,73,64
373440,note_on,,,,,20,0,1,,,0,,,61,29
373440,note_off,,,,,60,0,2,,,0,,,52,64
373440,note_off,,,,,0,0,2,,,0,,,45,64
373440,control_change,,,,,0,0,2,,,0,64,127,,
373440,note_on,,,,,0,0,2,,,0,,,45,32
373440,note_on,,,,,0,0,1,,,0,,,69,29
373540,set_tempo,,,,,240,1,0,625000,,,,,,
373560,note_on,,,,,120,0,2,,,0,,,52,27
373680,note_off,,,,,0,0,1,,,0,,,61,64
373680,note_on,,,,,0,0,2,,,0,,,57,22
373680,note_off,,,,,120,0,2,,,0,,,52,64
373680,note_off,,,,,240,0,1,,,0,,,69,64
373720,set_tempo,,,,,180,1,0,652174,,,,,,
373800,note_off,,,,,120,0,2,,,0,,,57,64
373800,note_on,,,,,0,0,2,,,0,,,52,20
373880,set_tempo,,,,,160,1,0,689655,,,,,,
373920,note_on,,,,,0,0,2,,,0,,,45,21
373920,note_off,,,,,120,0,2,,,0,,,52,64
373920,note_on,,,,,0,0,1,,,0,,,71,27
373920,note_on,,,,,0,0,1,,,0,,,68,27
373920,note_on,,,,,240,0,1,,,0,,,62,27
373920,note_off,,,,,0,0,2,,,0,,,45,64
373920,control_change,,,,,0,0,2,,,0,64,127,,
374040,note_on,,,,,120,0,2,,,0,,,53,21
374100,note_off,,,,,180,0,1,,,0,,,71,64
374100,set_tempo,,,,,220,1,0,714286,,,,,,
374160,note_on,,,,,60,0,1,,,0,,,74,27
374160,note_on,,,,,0,0,2,,,0,,,56,19
374160,note_off,,,,,120,0,2,,,0,,,53,64
374260,set_tempo,,,,,160,1,0,789474,,,,,,
374280,note_off,,,,,120,0,2,,,0,,,56,64
374280,note_on,,,,,0,0,2,,,0,,,53,16
374340,control_change,,,,,60,0,2,,,0,64,0,,
374340,note_on,,,,,0,0,1,,,0,,,73,24
374340,note_off,,,,,180,0,1,,,0,,,74,64
374370,note_off,,,,,30,0,1,,,0,,,68,64
374370,note_off,,,,,0,0,1,,,0,,,62,64
374380,note_off,,,,,10,0,1,,,0,,,73,64
374400,note_off,,,,,60,0,2,,,0,,,53,64
374400,note_off,,,,,0,0,2,,,0,,,45,64
374400,note_on,,,,,0,0,2,,,0,,,57,19
374400,note_on,,,,,0,0,2,,,0,,,52,19
374400,note_on,,,,,0,0,2,,,0,,,45,19
374400,control_change,,,,,0,0,2,,,0,64,127,,
374400,set_tempo,,,,,140,1,0,631579,,,,,,
374400,note_on,,,,,20,0,1,,,0,,,61,29
374400,note_on,,,,,0,0,1,,,0,,,69,29
374420,set_tempo,,,,,20,1,0,689655,,,,,,
374600,set_tempo,,,,,180,1,0,750000,,,,,,
374640,note_off,,,,,240,0,1,,,0,,,69,64
374640,note_off,,,,,240,0,2,,,0,,,45,64
374640,note_off,,,,,0,0,2,,,0,,,52,64
374640,note_off,,,,,0,0,2,,,0,,,57,64
374640,note_off,,,,,0,0,1,,,0,,,61,64
374760,set_tempo,,,,,160,1,0,833333,,,,,,
374760,control_change,,,,,120,0,2,,,0,64,0,,
374840,set_tempo,,,,,80,1,0,821918,,,,,,
374880,note_on,,,,,0,0,2,,,0,,,33,107
374880,control_change,,,,,120,0,2,,,0,64,127,,
374880,set_tempo,,,,,40,1,0,352941,,,,,,
374880,note_on,,,,,240,0,1,,,0,,,45,107
374960,note_on,,,,,0,0,1,,,0,,,49,105
374960,note_off,,,,,80,0,1,,,0,,,45,64
374960,note_off,,,,,80,0,2,,,0,,,33,64
374960,note_on,,,,,0,0,2,,,0,,,37,105
375040,note_on,,,,,0,0,1,,,0,,,52,106
375040,note_off,,,,,80,0,1,,,0,,,49,64
375040,note_on,,,,,0,0,2,,,0,,,40,106
375040,note_off,,,,,80,0,2,,,0,,,37,64
375120,note_on,,,,,0,0,2,,,0,,,45,108
375120,note_on,,,,,0,0,1,,,0,,,57,108
375120,note_off,,,,,80,0,1,,,0,,,52,64
375120,note_off,,,,,80,0,2,,,0,,,40,64
375200,note_on,,,,,0,0,2,,,0,,,49,110
375200,note_off,,,,,80,0,2,,,0,,,45,64
375200,note_off,,,,,80,0,1,,,0,,,57,64
375200,note_on,,,,,0,0,1,,,0,,,61,110
375280,note_on,,,,,0,0,2,,,0,,,52,114
375280,note_off,,,,,80,0,2,,,0,,,49,64
375280,note_on,,,,,0,0,1,,,0,,,64,114
375280,note_off,,,,,80,0,1,,,0,,,61,64
375360,note_on,,,,,0,0,1,,,0,,,69,116
375360,note_off,,,,,80,0,2,,,0,,,52,64
375360,note_off,,,,,80,0,1,,,0,,,64,64
375360,note_on,,,,,0,0,2,,,0,,,57,116
375440,note_off,,,,,80,0,2,,,0,,,57,64
375440,note_off,,,,,80,0,1,,,0,,,69,64
375440,note_on,,,,,0,0,1,,,0,,,73,119
375440,note_on,,,,,0,0,2,,,0,,,61,119
375520,note_off,,,,,80,0,2,,,0,,,61,64
375520,note_on,,,,,0,0,2,,,0,,,64,122
375520,note_on,,,,,0,0,1,,,0,,,76,122
375520,note_off,,,,,80,0,1,,,0,,,73,64
375600,note_off,,,,,80,0,1,,,0,,,76,64
375600,note_on,,,,,0,0,1,,,0,,,81,124
375600,note_off,,,,,80,0,2,,,0,,,64,64
375600,note_on,,,,,0,0,2,,,0,,,69,124
375680,note_on,,,,,0,0,1,,,0,,,85,126
375680,note_on,,,,,0,0,2,,,0,,,73,126
375680,note_off,,,,,80,0,1,,,0,,,81,64
375680,note_off,,,,,80,0,2,,,0,,,69,64
375760,note_on,,,,,0,0,1,,,0,,,88,127
375760,note_on,,,,,0,0,2,,,0,,,76,127
375760,note_off,,,,,80,0,1,,,0,,,85,64
375760,note_off,,,,,80,0,2,,,0,,,73,64
375840,note_on,,,,,0,0,2,,,0,,,81,127
375840,note_off,,,,,80,0,2,,,0,,,76,64
375840,note_off,,,,,80,0,1,,,0,,,88,64
375840,note_on,,,,,0,0,1,,,0,,,93,127
376080,control_change,,,,,0,0,2,,,0,64,0,,
376080,note_off,,,,,240,0,2,,,0,,,81,64
376080,note_off,,,,,240,0,1,,,0,,,93,64
376320,note_on,,,,,0,0,1,,,0,,,66,125
376320,note_on,,,,,0,0,1,,,0,,,81,125
376320,note_on,,,,,0,0,1,,,0,,,78,125
376320,note_on,,,,,0,0,1,,,0,,,69,125
376320,note_on,,,,,0,0,1,,,0,,,62,125
376320,note_on,,,,,0,0,1,,,0,,,74,125
376320,note_on,,,,,240,0,1,,,0,,,57,125
376320,control_change,,,,,240,0,2,,,0,64,127,,
376560,note_off,,,,,240,0,1,,,0,,,78,64
376560,note_off,,,,,0,0,1,,,0,,,81,64
376560,note_off,,,,,0,0,1,,,0,,,74,64
376560,note_off,,,,,0,0,1,,,0,,,69,64
376560,note_off,,,,,0,0,1,,,0,,,66,64
376560,note_off,,,,,0,0,1,,,0,,,57,64
376560,note_off,,,,,0,0,1,,,0,,,62,64
376800,note_on,,,,,480,0,2,,,0,,,57,112
376800,note_on,,,,,0,0,2,,,0,,,45,112
376800,note_on,,,,,0,0,2,,,0,,,33,112
377100,set_tempo,,,,,2220,1,0,331492,,,,,,
377280,set_tempo,,,,,180,1,0,338983,,,,,,
377280,note_on,,,,,0,0,1,,,0,,,69,125
377280,note_on,,,,,0,0,1,,,0,,,81,125
377280,note_on,,,,,0,0,1,,,0,,,67,125
377280,note_on,,,,,0,0,1,,,0,,,76,125
377280,note_on,,,,,0,0,1,,,0,,,79,125
377280,note_on,,,,,720,0,1,,,0,,,57,125
377280,note_off,,,,,0,0,2,,,0,,,45,64
377280,note_on,,,,,0,0,1,,,0,,,64,125
377280,note_off,,,,,480,0,2,,,0,,,33,64
377280,note_off,,,,,0,0,2,,,0,,,57,64
377520,note_off,,,,,0,0,1,,,0,,,57,64
377520,note_off,,,,,0,0,1,,,0,,,69,64
377520,note_off,,,,,0,0,1,,,0,,,81,64
377520,note_off,,,,,0,0,1,,,0,,,64,64
377520,note_off,,,,,0,0,1,,,0,,,67,64
377520,note_off,,,,,0,0,1,,,0,,,76,64
377520,note_off,,,,,240,0,1,,,0,,,79,64
377760,note_on,,,,,0,0,2,,,0,,,45,112
377760,note_on,,,,,480,0,2,,,0,,,57,112
377760,note_on,,,,,0,0,2,,,0,,,33,112
378240,note_on,,,,,0,0,1,,,0,,,78,125
378240,note_on,,,,,0,0,1,,,0,,,81,125
378240,note_on,,,,,0,0,1,,,0,,,74,125
378240,note_on,,,,,0,0,1,,,0,,,69,125
378240,note_on,,,,,0,0,1,,,0,,,66,125
378240,note_on,,,,,0,0,1,,,0,,,62,125
378240,note_off,,,,,480,0,2,,,0,,,33,64
378240,note_on,,,,,720,0,1,,,0,,,57,125
378240,note_off,,,,,0,0,2,,,0,,,57,64
378240,note_off,,,,,0,0,2,,,0,,,45,64
378480,note_off,,,,,0,0,1,,,0,,,57,64
378480,note_off,,,,,0,0,1,,,0,,,62,64
378480,note_off,,,,,0,0,1,,,0,,,66,64
378480,note_off,,,,,0,0,1,,,0,,,74,64
378480,note_off,,,,,0,0,1,,,0,,,81,64
378480,note_off,,,,,240,0,1,,,0,,,78,64
378480,note_off,,,,,0,0,1,,,0,,,69,64
378520,set_tempo,,,,,1240,1,0,350877,,,,,,
378720,note_on,,,,,0,0,2,,,0,,,33,111
378720,note_on,,,,,0,0,2,,,0,,,45,111
378720,note_on,,,,,480,0,2,,,0,,,57,111
379080,set_tempo,,,,,560,1,0,363636,,,,,,
379200,note_off,,,,,480,0,2,,,0,,,33,64
379200,note_on,,,,,720,0,1,,,0,,,57,110
379200,note_on,,,,,0,0,1,,,0,,,69,110
379200,note_on,,,,,0,0,1,,,0,,,81,110
379200,note_on,,,,,0,0,1,,,0,,,61,110
379200,note_on,,,,,0,0,1,,,0,,,64,110
379200,note_on,,,,,0,0,1,,,0,,,73,110
379200,note_on,,,,,0,0,1,,,0,,,76,110
379200,note_off,,,,,0,0,2,,,0,,,57,64
379200,note_off,,,,,0,0,2,,,0,,,45,64
379392,note_off,,,,,192,0,1,,,0,,,76,64
379392,note_off,,,,,0,0,1,,,0,,,73,64
379392,note_off,,,,,0,0,1,,,0,,,64,64
379392,note_off,,,,,0,0,1,,,0,,,61,64
379392,note_off,,,,,0,0,1,,,0,,,81,64
379392,note_off,,,,,0,0,1,,,0,,,69,64
379392,note_off,,,,,0,0,1,,,0,,,57,64
379440,note_on,,,,,0,0,2,,,0,,,45,112
379440,note_on,,,,,240,0,2,,,0,,,57,112
379620,note_off,,,,,180,0,2,,,0,,,45,64
379620,note_off,,,,,0,0,2,,,0,,,57,64
379680,note_on,,,,,0,0,1,,,0,,,81,119
379680,note_on,,,,,0,0,1,,,0,,,59,119
379680,note_on,,,,,0,0,1,,,0,,,62,119
379680,note_on,,,,,0,0,1,,,0,,,71,119
379680,note_on,,,,,0,0,1,,,0,,,74,119
379680,note_on,,,,,0,0,1,,,0,,,69,119
379680,note_on,,,,,288,0,1,,,0,,,57,119
379872,note_off,,,,,0,0,1,,,0,,,71,64
379872,note_off,,,,,0,0,1,,,0,,,81,64
379872,note_off,,,,,0,0,1,,,0,,,59,64
379872,note_off,,,,,192,0,1,,,0,,,74,64
379872,note_off,,,,,0,0,1,,,0,,,69,64
379872,note_off,,,,,0,0,1,,,0,,,57,64
379872,note_off,,,,,0,0,1,,,0,,,62,64
379880,set_tempo,,,,,800,1,0,382166,,,,,,
379920,note_on,,,,,0,0,2,,,0,,,45,112
379920,note_on,,,,,300,0,2,,,0,,,57,112
380100,note_off,,,,,0,0,2,,,0,,,57,64
380100,note_off,,,,,180,0,2,,,0,,,45,64
380130,control_change,,,,,30,0,2,,,0,64,0,,
380160,control_change,,,,,30,0,2,,,0,64,127,,
380160,note_on,,,,,0,0,1,,,0,,,64,126
380160,note_on,,,,,0,0,1,,,0,,,61,126
380160,note_on,,,,,0,0,1,,,0,,,76,126
380160,note_on,,,,,0,0,1,,,0,,,73,126
380160,note_on,,,,,288,0,1,,,0,,,57,126
380160,note_on,,,,,0,0,1,,,0,,,69,126
380160,note_on,,,,,0,0,1,,,0,,,81,126
380320,set_tempo,,,,,440,1,0,405405,,,,,,
380400,note_off,,,,,0,0,1,,,0,,,81,64
380400,end_of_track,,,,,0,1,1,,,,,,,
380400,note_off,,,,,0,0,1,,,0,,,69,64
380400,note_off,,,,,0,0,1,,,0,,,64,64
380400,note_off,,,,,0,0,1,,,0,,,57,64
380400,note_off,,,,,0,0,1,,,0,,,61,64
380400,note_off,,,,,240,0,1,,,0,,,76,64
380400,note_off,,,,,0,0,1,,,0,,,73,64
380420,set_tempo,,,,,100,1,0,882353,,,,,,
380620,set_tempo,,,,,200,1,0,1250000,,,,,,
380640,note_on,,,,,0,0,2,,,0,,,33,112
380640,note_on,,,,,0,0,2,,,0,,,45,112
380640,set_tempo,,,,,20,1,0,689655,,,,,,
380640,note_on,,,,,480,0,2,,,0,,,57,112
381840,control_change,,,,,1200,0,2,,,0,64,0,,
382080,note_off,,,,,0,0,2,,,0,,,57,64
382080,end_of_track,,,,,0,1,2,,,,,,,
382080,note_off,,,,,240,0,2,,,0,,,33,64
382080,set_tempo,,,,,1440,1,0,857143,,,,,,
382080,end_of_track,,,,,0,1,0,,,,,,,
382080,note_off,,,,,0,0,2,,,0,,,45,64
