tick,type,numerator,denominator,clocks_per_click,notated_32nd_notes_per_beat,time,meta,track,tempo,program,channel,control,value,note,velocity
0,time_signature,3,4,24,8,0,1,0,,,,,,,
0,control_change,,,,,0,0,1,,,0,7,80,,
0,note_on,,,,,0,0,1,,,0,,,82,49
0,track_name,,,,,0,1,8,,,,,,,
0,track_name,,,,,0,1,2,,,,,,,
0,program_change,,,,,0,0,2,,0,0,,,,
0,control_change,,,,,0,0,2,,,0,7,80,,
0,note_on,,,,,0,0,2,,,0,,,62,49
0,note_on,,,,,0,0,2,,,0,,,58,49
0,track_name,,,,,0,1,3,,,,,,,
0,program_change,,,,,0,0,1,,0,0,,,,
0,program_change,,,,,0,0,3,,0,0,,,,
0,end_of_track,,,,,0,1,3,,,,,,,
0,track_name,,,,,0,1,4,,,,,,,
0,end_of_track,,,,,0,1,4,,,,,,,
0,track_name,,,,,0,1,5,,,,,,,
0,end_of_track,,,,,0,1,5,,,,,,,
0,track_name,,,,,0,1,6,,,,,,,
0,end_of_track,,,,,0,1,6,,,,,,,
0,track_name,,,,,0,1,7,,,,,,,
0,end_of_track,,,,,0,1,7,,,,,,,
0,control_change,,,,,0,0,3,,,0,7,80,,
0,track_name,,,,,0,1,1,,,,,,,
0,end_of_track,,,,,0,1,8,,,,,,,
0,set_tempo,,,,,0,1,0,247934,,,,,,
0,marker,,,,,0,1,0,,,,,,,
0,marker,,,,,0,1,0,,,,,,,
120,note_on,,,,,0,0,2,,,0,,,65,26
120,note_off,,,,,0,0,2,,,0,,,62,64
120,note_off,,,,,120,0,2,,,0,,,58,64
240,note_off,,,,,240,0,1,,,0,,,82,64
240,note_on,,,,,0,0,2,,,0,,,62,29
240,note_off,,,,,120,0,2,,,0,,,65,64
240,note_on,,,,,0,0,2,,,0,,,58,29
240,note_on,,,,,0,0,1,,,0,,,81,40
360,note_off,,,,,120,0,2,,,0,,,58,64
360,note_off,,,,,120,0,1,,,0,,,81,64
360,note_on,,,,,0,0,2,,,0,,,65,23
360,note_off,,,,,0,0,2,,,0,,,62,64
480,note_on,,,,,0,0,2,,,0,,,58,35
480,note_off,,,,,120,0,2,,,0,,,65,64
480,note_on,,,,,0,0,2,,,0,,,62,35
480,note_on,,,,,120,0,1,,,0,,,82,46
600,note_off,,,,,120,0,1,,,0,,,82,64
600,note_off,,,,,120,0,2,,,0,,,58,64
600,note_off,,,,,0,0,2,,,0,,,62,64
600,note_on,,,,,0,0,2,,,0,,,65,32
720,note_on,,,,,0,0,1,,,0,,,79,51
720,note_off,,,,,120,0,2,,,0,,,65,64
720,note_on,,,,,0,0,2,,,0,,,63,44
720,note_on,,,,,0,0,2,,,0,,,58,44
720,control_change,,,,,120,0,1,,,0,91,100,,
840,note_off,,,,,120,0,2,,,0,,,58,64
840,note_off,,,,,0,0,2,,,0,,,63,64
840,note_on,,,,,0,0,2,,,0,,,67,25
960,note_off,,,,,120,0,2,,,0,,,67,64
960,note_on,,,,,0,0,1,,,0,,,81,43
960,note_on,,,,,0,0,2,,,0,,,63,29
960,note_off,,,,,240,0,1,,,0,,,79,64
960,note_on,,,,,0,0,2,,,0,,,58,29
1068,note_off,,,,,108,0,1,,,0,,,81,64
1080,note_on,,,,,0,0,2,,,0,,,67,26
1080,note_off,,,,,120,0,2,,,0,,,58,64
1080,note_on,,,,,12,0,1,,,0,,,82,38
1080,note_off,,,,,0,0,2,,,0,,,63,64
1188,note_off,,,,,108,0,1,,,0,,,82,64
1200,note_off,,,,,120,0,2,,,0,,,67,64
1200,note_on,,,,,0,0,2,,,0,,,63,38
1200,note_on,,,,,0,0,2,,,0,,,58,38
1200,note_on,,,,,12,0,1,,,0,,,84,41
1308,note_off,,,,,108,0,1,,,0,,,84,64
1320,note_on,,,,,12,0,1,,,0,,,86,48
1320,note_off,,,,,0,0,2,,,0,,,63,64
1320,note_off,,,,,120,0,2,,,0,,,58,64
1320,note_on,,,,,0,0,2,,,0,,,67,36
1428,note_off,,,,,108,0,1,,,0,,,86,64
1440,note_on,,,,,12,0,1,,,0,,,82,54
1440,note_on,,,,,0,0,2,,,0,,,58,53
1440,note_on,,,,,0,0,2,,,0,,,62,53
1440,note_off,,,,,120,0,2,,,0,,,67,64
1560,note_on,,,,,0,0,2,,,0,,,65,29
1560,note_off,,,,,120,0,2,,,0,,,58,64
1560,note_off,,,,,0,0,2,,,0,,,62,64
1680,note_on,,,,,0,0,1,,,0,,,84,45
1680,note_on,,,,,0,0,2,,,0,,,58,36
1680,note_off,,,,,120,0,2,,,0,,,65,64
1680,note_off,,,,,240,0,1,,,0,,,82,64
1680,note_on,,,,,0,0,2,,,0,,,62,36
1788,note_off,,,,,108,0,1,,,0,,,84,64
1800,note_off,,,,,0,0,2,,,0,,,62,64
1800,note_on,,,,,12,0,1,,,0,,,82,38
1800,note_off,,,,,120,0,2,,,0,,,58,64
1800,note_on,,,,,0,0,2,,,0,,,65,34
1908,note_off,,,,,108,0,1,,,0,,,82,64
1920,note_off,,,,,120,0,2,,,0,,,65,64
1920,note_on,,,,,0,0,2,,,0,,,62,47
1920,note_on,,,,,0,0,2,,,0,,,58,47
1920,note_on,,,,,12,0,1,,,0,,,81,44
2028,note_off,,,,,108,0,1,,,0,,,81,64
2040,note_off,,,,,0,0,2,,,0,,,62,64
2040,note_off,,,,,120,0,2,,,0,,,58,64
2040,note_on,,,,,12,0,1,,,0,,,79,50
2040,note_on,,,,,0,0,2,,,0,,,65,43
2148,note_off,,,,,108,0,1,,,0,,,79,64
2160,note_off,,,,,120,0,2,,,0,,,65,64
2160,note_on,,,,,12,0,1,,,0,,,77,57
2160,note_on,,,,,0,0,2,,,0,,,63,55
2160,note_on,,,,,0,0,2,,,0,,,57,55
2280,note_off,,,,,120,0,1,,,0,,,77,64
2280,note_off,,,,,0,0,2,,,0,,,63,64
2280,note_off,,,,,120,0,2,,,0,,,57,64
2280,note_on,,,,,0,0,2,,,0,,,65,29
2400,note_on,,,,,120,0,1,,,0,,,77,52
2400,note_off,,,,,120,0,2,,,0,,,65,64
2400,note_on,,,,,0,0,2,,,0,,,63,33
2400,note_on,,,,,0,0,2,,,0,,,57,33
2520,note_off,,,,,120,0,1,,,0,,,77,64
2520,note_off,,,,,120,0,2,,,0,,,57,64
2520,note_off,,,,,0,0,2,,,0,,,63,64
2520,note_on,,,,,0,0,2,,,0,,,65,29
2640,note_on,,,,,0,0,2,,,0,,,57,42
2640,note_on,,,,,120,0,1,,,0,,,77,38
2640,note_on,,,,,0,0,2,,,0,,,63,42
2640,note_off,,,,,120,0,2,,,0,,,65,64
2760,note_off,,,,,120,0,1,,,0,,,77,64
2760,note_off,,,,,120,0,2,,,0,,,57,64
2760,note_off,,,,,0,0,2,,,0,,,63,64
2760,note_on,,,,,0,0,2,,,0,,,65,39
2880,note_off,,,,,120,0,2,,,0,,,65,64
2880,note_on,,,,,0,0,2,,,0,,,57,55
2880,note_on,,,,,0,0,2,,,0,,,63,55
2880,note_on,,,,,120,0,1,,,0,,,78,59
3000,note_off,,,,,120,0,2,,,0,,,57,64
3000,note_off,,,,,0,0,2,,,0,,,63,64
3000,note_on,,,,,0,0,2,,,0,,,66,43
3040,control_change,,,,,40,0,2,,,0,91,96,,
3120,note_on,,,,,0,0,1,,,0,,,90,41
3120,note_off,,,,,80,0,2,,,0,,,66,64
3120,note_on,,,,,0,0,2,,,0,,,63,46
3120,note_off,,,,,240,0,1,,,0,,,78,64
3120,note_on,,,,,0,0,2,,,0,,,57,46
3240,note_off,,,,,120,0,2,,,0,,,57,64
3240,note_off,,,,,120,0,1,,,0,,,90,64
3240,note_off,,,,,0,0,2,,,0,,,63,64
3240,note_on,,,,,0,0,2,,,0,,,66,32
3360,note_on,,,,,120,0,1,,,0,,,90,55
3360,note_off,,,,,120,0,2,,,0,,,66,64
3360,note_on,,,,,0,0,2,,,0,,,63,35
3360,note_on,,,,,0,0,2,,,0,,,57,35
3480,note_off,,,,,120,0,2,,,0,,,57,64
3480,note_on,,,,,0,0,2,,,0,,,66,25
3480,note_off,,,,,0,0,2,,,0,,,63,64
3480,note_off,,,,,120,0,1,,,0,,,90,64
3600,note_on,,,,,120,0,1,,,0,,,91,68
3600,note_on,,,,,0,0,2,,,0,,,58,63
3600,note_on,,,,,0,0,2,,,0,,,63,63
3600,note_off,,,,,120,0,2,,,0,,,66,64
3720,note_on,,,,,0,0,2,,,0,,,67,51
3720,note_off,,,,,0,0,2,,,0,,,63,64
3720,note_off,,,,,120,0,2,,,0,,,58,64
3840,note_off,,,,,240,0,1,,,0,,,91,64
3840,note_on,,,,,0,0,2,,,0,,,63,52
3840,note_on,,,,,0,0,1,,,0,,,79,58
3840,note_off,,,,,120,0,2,,,0,,,67,64
3840,note_on,,,,,0,0,2,,,0,,,58,52
3960,note_off,,,,,0,0,2,,,0,,,58,64
3960,note_on,,,,,0,0,2,,,0,,,67,40
3960,note_off,,,,,120,0,2,,,0,,,63,64
3960,note_off,,,,,120,0,1,,,0,,,79,64
4080,note_off,,,,,120,0,2,,,0,,,67,64
4080,note_on,,,,,0,0,2,,,0,,,58,42
4080,note_on,,,,,0,0,2,,,0,,,63,42
4080,note_on,,,,,120,0,1,,,0,,,79,51
4200,note_off,,,,,120,0,2,,,0,,,63,64
4200,note_off,,,,,120,0,1,,,0,,,79,64
4200,note_off,,,,,0,0,2,,,0,,,58,64
4200,note_on,,,,,0,0,2,,,0,,,67,28
4320,note_off,,,,,120,0,2,,,0,,,67,64
4320,note_on,,,,,120,0,1,,,0,,,81,58
4320,note_on,,,,,0,0,2,,,0,,,63,53
4320,note_on,,,,,0,0,2,,,0,,,60,53
4440,note_off,,,,,0,0,2,,,0,,,63,64
4440,note_off,,,,,120,0,2,,,0,,,60,64
4440,note_off,,,,,120,0,1,,,0,,,81,64
4440,note_on,,,,,0,0,2,,,0,,,65,22
4530,note_on,,,,,90,0,1,,,0,,,94,57
4560,note_on,,,,,0,0,2,,,0,,,60,34
4560,note_on,,,,,0,0,1,,,0,,,93,58
4560,note_off,,,,,120,0,2,,,0,,,65,64
4560,note_on,,,,,0,0,2,,,0,,,63,34
4560,note_off,,,,,30,0,1,,,0,,,94,64
4680,note_on,,,,,0,0,2,,,0,,,65,33
4680,note_off,,,,,0,0,2,,,0,,,63,64
4680,note_off,,,,,120,0,2,,,0,,,60,64
4680,note_on,,,,,0,0,1,,,0,,,91,60
4680,note_off,,,,,120,0,1,,,0,,,93,64
4800,note_on,,,,,0,0,1,,,0,,,93,62
4800,note_off,,,,,120,0,2,,,0,,,65,64
4800,note_on,,,,,0,0,2,,,0,,,63,45
4800,note_on,,,,,0,0,2,,,0,,,60,45
4800,note_off,,,,,120,0,1,,,0,,,91,64
4920,note_off,,,,,0,0,2,,,0,,,63,64
4920,note_on,,,,,0,0,2,,,0,,,65,43
4920,note_off,,,,,120,0,2,,,0,,,60,64
5040,note_on,,,,,0,0,2,,,0,,,62,54
5040,note_on,,,,,0,0,2,,,0,,,58,54
5040,note_off,,,,,120,0,2,,,0,,,65,64
5040,note_off,,,,,240,0,1,,,0,,,93,64
5040,note_on,,,,,0,0,1,,,0,,,94,66
5160,note_on,,,,,0,0,2,,,0,,,65,40
5160,note_off,,,,,0,0,2,,,0,,,58,64
5160,note_off,,,,,120,0,2,,,0,,,62,64
5160,note_off,,,,,120,0,1,,,0,,,94,64
5250,note_on,,,,,90,0,1,,,0,,,84,56
5280,note_off,,,,,30,0,1,,,0,,,84,64
5280,note_on,,,,,0,0,1,,,0,,,82,55
5280,note_off,,,,,120,0,2,,,0,,,65,64
5280,note_on,,,,,0,0,2,,,0,,,62,44
5280,note_on,,,,,0,0,2,,,0,,,58,44
5400,note_on,,,,,0,0,1,,,0,,,81,47
5400,note_off,,,,,120,0,1,,,0,,,82,64
5400,note_on,,,,,0,0,2,,,0,,,65,26
5400,note_off,,,,,120,0,2,,,0,,,58,64
5400,note_off,,,,,0,0,2,,,0,,,62,64
5520,note_on,,,,,0,0,1,,,0,,,82,37
5520,note_off,,,,,120,0,1,,,0,,,81,64
5520,note_on,,,,,0,0,2,,,0,,,62,28
5520,note_on,,,,,0,0,2,,,0,,,58,28
5520,note_off,,,,,120,0,2,,,0,,,65,64
5640,note_off,,,,,120,0,2,,,0,,,58,64
5640,note_on,,,,,0,0,2,,,0,,,65,15
5640,note_off,,,,,0,0,2,,,0,,,62,64
5760,note_on,,,,,0,0,1,,,0,,,70,49
5760,note_on,,,,,0,0,2,,,0,,,58,49
5760,note_off,,,,,120,0,2,,,0,,,65,64
5760,note_off,,,,,240,0,1,,,0,,,82,64
5760,note_on,,,,,0,0,1,,,0,,,74,49
5880,note_off,,,,,0,0,1,,,0,,,74,64
5880,note_off,,,,,120,0,1,,,0,,,70,64
5880,note_on,,,,,0,0,1,,,0,,,77,26
6000,note_on,,,,,0,0,2,,,0,,,57,40
6000,note_off,,,,,120,0,1,,,0,,,77,64
6000,note_on,,,,,0,0,1,,,0,,,74,29
6000,note_on,,,,,0,0,1,,,0,,,70,29
6000,note_off,,,,,240,0,2,,,0,,,58,64
6120,note_off,,,,,120,0,2,,,0,,,57,64
6120,note_off,,,,,120,0,1,,,0,,,70,64
6120,note_off,,,,,0,0,1,,,0,,,74,64
6120,note_on,,,,,0,0,1,,,0,,,77,23
6240,note_on,,,,,0,0,1,,,0,,,70,35
6240,note_off,,,,,120,0,1,,,0,,,77,64
6240,note_on,,,,,120,0,2,,,0,,,58,48
6240,note_on,,,,,0,0,1,,,0,,,74,35
6360,note_off,,,,,120,0,1,,,0,,,70,64
6360,note_off,,,,,0,0,1,,,0,,,74,64
6360,note_on,,,,,0,0,1,,,0,,,77,32
6360,note_off,,,,,120,0,2,,,0,,,58,64
6480,control_change,,,,,120,0,2,,,0,91,100,,
6480,note_on,,,,,0,0,2,,,0,,,55,54
6480,note_on,,,,,0,0,1,,,0,,,70,44
6480,note_on,,,,,0,0,1,,,0,,,74,44
6480,note_off,,,,,120,0,1,,,0,,,77,64
6600,note_off,,,,,0,0,1,,,0,,,74,64
6600,note_on,,,,,0,0,1,,,0,,,79,25
6600,note_off,,,,,120,0,1,,,0,,,70,64
6720,note_on,,,,,0,0,2,,,0,,,57,46
6720,note_off,,,,,240,0,2,,,0,,,55,64
6720,note_off,,,,,120,0,1,,,0,,,79,64
6720,note_on,,,,,0,0,1,,,0,,,74,29
6720,note_on,,,,,0,0,1,,,0,,,70,29
6828,note_off,,,,,108,0,2,,,0,,,57,64
6840,note_off,,,,,0,0,1,,,0,,,74,64
6840,note_on,,,,,12,0,2,,,0,,,58,44
6840,note_off,,,,,120,0,1,,,0,,,70,64
6840,note_on,,,,,0,0,1,,,0,,,79,26
6948,note_off,,,,,108,0,2,,,0,,,58,64
6960,note_on,,,,,0,0,1,,,0,,,70,38
6960,note_on,,,,,0,0,1,,,0,,,74,38
6960,note_off,,,,,120,0,1,,,0,,,79,64
6960,note_on,,,,,12,0,2,,,0,,,60,48
7068,note_off,,,,,108,0,2,,,0,,,60,64
7080,note_on,,,,,0,0,1,,,0,,,79,36
7080,note_off,,,,,0,0,1,,,0,,,74,64
7080,note_off,,,,,120,0,1,,,0,,,70,64
7080,note_on,,,,,12,0,2,,,0,,,62,51
7188,note_off,,,,,108,0,2,,,0,,,62,64
7200,note_on,,,,,12,0,2,,,0,,,58,52
7200,note_on,,,,,0,0,1,,,0,,,70,53
7200,note_on,,,,,0,0,1,,,0,,,74,53
7200,note_off,,,,,120,0,1,,,0,,,79,64
7320,note_on,,,,,0,0,1,,,0,,,77,29
7320,note_off,,,,,120,0,1,,,0,,,70,64
7320,note_off,,,,,0,0,1,,,0,,,74,64
7440,note_on,,,,,0,0,1,,,0,,,74,36
7440,note_on,,,,,0,0,1,,,0,,,70,36
7440,note_off,,,,,240,0,2,,,0,,,58,64
7440,note_on,,,,,0,0,2,,,0,,,60,45
7440,note_off,,,,,120,0,1,,,0,,,77,64
7548,note_off,,,,,108,0,2,,,0,,,60,64
7560,note_off,,,,,120,0,1,,,0,,,70,64
7560,note_on,,,,,0,0,1,,,0,,,77,34
7560,note_off,,,,,0,0,1,,,0,,,74,64
7560,note_on,,,,,12,0,2,,,0,,,58,40
7668,note_off,,,,,108,0,2,,,0,,,58,64
7680,note_on,,,,,0,0,1,,,0,,,70,47
7680,note_on,,,,,0,0,1,,,0,,,74,47
7680,note_off,,,,,120,0,1,,,0,,,77,64
7680,note_on,,,,,12,0,2,,,0,,,57,45
7788,note_off,,,,,108,0,2,,,0,,,57,64
7800,note_on,,,,,0,0,1,,,0,,,77,43
7800,note_off,,,,,0,0,1,,,0,,,74,64
7800,note_on,,,,,12,0,2,,,0,,,55,52
7800,note_off,,,,,120,0,1,,,0,,,70,64
7908,note_off,,,,,108,0,2,,,0,,,55,64
7920,note_on,,,,,0,0,1,,,0,,,69,55
7920,note_on,,,,,0,0,1,,,0,,,75,55
7920,note_off,,,,,120,0,1,,,0,,,77,64
7920,note_on,,,,,12,0,2,,,0,,,53,57
8040,note_off,,,,,0,0,1,,,0,,,75,64
8040,note_on,,,,,0,0,1,,,0,,,77,29
8040,note_off,,,,,120,0,2,,,0,,,53,64
8040,note_off,,,,,120,0,1,,,0,,,69,64
8160,note_on,,,,,120,0,2,,,0,,,53,51
8160,note_off,,,,,120,0,1,,,0,,,77,64
8160,note_on,,,,,0,0,1,,,0,,,75,33
8160,note_on,,,,,0,0,1,,,0,,,69,33
8280,note_on,,,,,0,0,1,,,0,,,77,29
8280,note_off,,,,,0,0,1,,,0,,,75,64
8280,note_off,,,,,120,0,2,,,0,,,53,64
8280,note_off,,,,,120,0,1,,,0,,,69,64
8400,note_on,,,,,120,0,2,,,0,,,53,41
8400,note_on,,,,,0,0,1,,,0,,,75,42
8400,note_on,,,,,0,0,1,,,0,,,69,42
8400,note_off,,,,,120,0,1,,,0,,,77,64
8520,note_off,,,,,0,0,1,,,0,,,75,64
8520,note_on,,,,,0,0,1,,,0,,,77,39
8520,note_off,,,,,120,0,2,,,0,,,53,64
8520,note_off,,,,,120,0,1,,,0,,,69,64
8640,note_on,,,,,120,0,2,,,0,,,54,59
8640,note_on,,,,,0,0,1,,,0,,,75,55
8640,note_off,,,,,120,0,1,,,0,,,77,64
8640,note_on,,,,,0,0,1,,,0,,,69,55
8760,note_off,,,,,120,0,1,,,0,,,69,64
8760,note_off,,,,,0,0,1,,,0,,,75,64
8760,note_on,,,,,0,0,1,,,0,,,81,43
8800,control_change,,,,,40,0,1,,,0,91,96,,
8880,note_on,,,,,0,0,1,,,0,,,75,46
8880,note_on,,,,,0,0,2,,,0,,,66,45
8880,note_off,,,,,240,0,2,,,0,,,54,64
8880,note_off,,,,,80,0,1,,,0,,,81,64
8880,note_on,,,,,0,0,1,,,0,,,69,46
9000,note_on,,,,,0,0,1,,,0,,,81,32
9000,note_off,,,,,120,0,2,,,0,,,66,64
9000,note_off,,,,,120,0,1,,,0,,,69,64
9000,note_off,,,,,0,0,1,,,0,,,75,64
9120,note_off,,,,,120,0,1,,,0,,,81,64
9120,note_on,,,,,0,0,1,,,0,,,75,35
9120,note_on,,,,,0,0,1,,,0,,,69,35
9120,note_on,,,,,120,0,2,,,0,,,66,60
9240,note_off,,,,,120,0,1,,,0,,,69,64
9240,note_off,,,,,0,0,1,,,0,,,75,64
9240,note_on,,,,,0,0,1,,,0,,,81,25
9240,note_off,,,,,120,0,2,,,0,,,66,64
9360,note_on,,,,,120,0,2,,,0,,,67,66
9360,note_on,,,,,0,0,1,,,0,,,70,63
9360,note_on,,,,,0,0,1,,,0,,,75,63
9360,note_off,,,,,120,0,1,,,0,,,81,64
9480,note_on,,,,,0,0,1,,,0,,,82,51
9480,note_off,,,,,0,0,1,,,0,,,75,64
9480,note_off,,,,,120,0,1,,,0,,,70,64
9600,note_on,,,,,0,0,1,,,0,,,70,52
9600,note_on,,,,,0,0,1,,,0,,,75,52
9600,note_off,,,,,120,0,1,,,0,,,82,64
9600,note_on,,,,,0,0,2,,,0,,,55,58
9600,note_off,,,,,240,0,2,,,0,,,67,64
9720,note_off,,,,,120,0,2,,,0,,,55,64
9720,note_off,,,,,120,0,1,,,0,,,70,64
9720,note_off,,,,,0,0,1,,,0,,,75,64
9720,note_on,,,,,0,0,1,,,0,,,81,40
9840,note_on,,,,,120,0,2,,,0,,,55,49
9840,note_on,,,,,0,0,1,,,0,,,75,42
9840,note_off,,,,,120,0,1,,,0,,,81,64
9840,note_on,,,,,0,0,1,,,0,,,70,42
9960,note_on,,,,,0,0,1,,,0,,,79,28
9960,note_off,,,,,0,0,1,,,0,,,75,64
9960,note_off,,,,,120,0,1,,,0,,,70,64
9960,note_off,,,,,120,0,2,,,0,,,55,64
10080,note_on,,,,,120,0,2,,,0,,,58,58
10080,set_tempo,,,,,10080,1,0,246914,,,,,,
10080,note_on,,,,,0,0,1,,,0,,,74,53
10080,note_off,,,,,120,0,1,,,0,,,79,64
10080,note_on,,,,,0,0,1,,,0,,,68,53
10200,note_off,,,,,0,0,1,,,0,,,74,64
10200,note_off,,,,,120,0,2,,,0,,,58,64
10200,note_off,,,,,120,0,1,,,0,,,68,64
10200,note_on,,,,,0,0,1,,,0,,,77,22
10290,note_on,,,,,90,0,2,,,0,,,48,57
10320,note_off,,,,,30,0,2,,,0,,,48,64
10320,note_on,,,,,0,0,1,,,0,,,74,34
10320,note_on,,,,,0,0,1,,,0,,,68,34
10320,note_off,,,,,120,0,1,,,0,,,77,64
10320,note_on,,,,,0,0,2,,,0,,,46,57
10440,note_off,,,,,120,0,2,,,0,,,46,64
10440,note_on,,,,,0,0,1,,,0,,,77,33
10440,note_off,,,,,0,0,1,,,0,,,74,64
10440,note_off,,,,,120,0,1,,,0,,,68,64
10440,note_on,,,,,0,0,2,,,0,,,45,61
10540,set_tempo,,,,,460,1,0,247934,,,,,,
10560,note_on,,,,,0,0,1,,,0,,,68,45
10560,note_on,,,,,0,0,1,,,0,,,74,45
10560,note_off,,,,,120,0,1,,,0,,,77,64
10560,note_on,,,,,0,0,2,,,0,,,46,63
10560,note_off,,,,,120,0,2,,,0,,,45,64
10560,set_tempo,,,,,20,1,0,246914,,,,,,
10680,note_on,,,,,0,0,1,,,0,,,77,43
10680,note_off,,,,,0,0,1,,,0,,,74,64
10680,note_off,,,,,120,0,1,,,0,,,68,64
10720,set_tempo,,,,,160,1,0,248963,,,,,,
10740,set_tempo,,,,,20,1,0,250000,,,,,,
10800,note_on,,,,,0,0,2,,,0,,,51,67
10800,note_on,,,,,0,0,1,,,0,,,67,54
10800,note_off,,,,,120,0,1,,,0,,,77,64
10800,note_off,,,,,240,0,2,,,0,,,46,64
10800,note_on,,,,,0,0,1,,,0,,,75,54
10900,set_tempo,,,,,160,1,0,256410,,,,,,
10920,note_off,,,,,120,0,2,,,0,,,51,64
10920,note_off,,,,,0,0,1,,,0,,,75,64
10920,set_tempo,,,,,20,1,0,257511,,,,,,
10920,note_off,,,,,120,0,1,,,0,,,67,64
10920,note_on,,,,,0,0,1,,,0,,,79,40
10980,set_tempo,,,,,60,1,0,260870,,,,,,
11000,set_tempo,,,,,20,1,0,263158,,,,,,
11010,note_on,,,,,90,0,2,,,0,,,41,56
11040,note_off,,,,,30,0,2,,,0,,,41,64
11040,note_on,,,,,0,0,2,,,0,,,39,55
11040,note_off,,,,,120,0,1,,,0,,,79,64
11040,note_on,,,,,0,0,1,,,0,,,75,36
11040,note_on,,,,,0,0,1,,,0,,,67,36
11060,set_tempo,,,,,60,1,0,266667,,,,,,
11120,set_tempo,,,,,60,1,0,269058,,,,,,
11160,note_off,,,,,120,0,1,,,0,,,67,64
11160,note_on,,,,,0,0,2,,,0,,,38,47
11160,note_off,,,,,120,0,2,,,0,,,39,64
11160,set_tempo,,,,,40,1,0,273973,,,,,,
11160,note_off,,,,,0,0,1,,,0,,,75,64
11160,note_on,,,,,0,0,1,,,0,,,79,31
11180,set_tempo,,,,,20,1,0,275229,,,,,,
11220,set_tempo,,,,,40,1,0,277778,,,,,,
11260,set_tempo,,,,,40,1,0,281690,,,,,,
11280,note_on,,,,,0,0,1,,,0,,,75,25
11280,note_off,,,,,120,0,1,,,0,,,79,64
11280,note_off,,,,,120,0,2,,,0,,,38,64
11280,note_on,,,,,0,0,2,,,0,,,39,37
11280,set_tempo,,,,,20,1,0,283019,,,,,,
11280,note_on,,,,,0,0,1,,,0,,,67,25
11300,set_tempo,,,,,20,1,0,284360,,,,,,
11320,set_tempo,,,,,20,1,0,288462,,,,,,
11360,set_tempo,,,,,40,1,0,298507,,,,,,
11380,set_tempo,,,,,20,1,0,307692,,,,,,
11400,set_tempo,,,,,20,1,0,312500,,,,,,
11400,note_off,,,,,0,0,1,,,0,,,75,64
11400,note_off,,,,,120,0,1,,,0,,,67,64
11420,set_tempo,,,,,20,1,0,368098,,,,,,
11460,set_tempo,,,,,40,1,0,370370,,,,,,
11520,note_off,,,,,240,0,2,,,0,,,39,64
11520,set_tempo,,,,,60,1,0,263158,,,,,,
11520,note_on,,,,,120,0,1,,,0,,,82,49
11520,note_on,,,,,0,0,2,,,0,,,58,49
11520,note_on,,,,,0,0,2,,,0,,,62,49
11580,set_tempo,,,,,60,1,0,256410,,,,,,
11620,set_tempo,,,,,40,1,0,255319,,,,,,
11640,note_off,,,,,0,0,2,,,0,,,62,64
11640,note_off,,,,,120,0,2,,,0,,,58,64
11640,note_on,,,,,0,0,2,,,0,,,65,26
11660,set_tempo,,,,,40,1,0,254237,,,,,,
11700,set_tempo,,,,,40,1,0,252101,,,,,,
11760,note_on,,,,,0,0,1,,,0,,,81,40
11760,note_off,,,,,240,0,1,,,0,,,82,64
11760,note_off,,,,,120,0,2,,,0,,,65,64
11760,note_on,,,,,0,0,2,,,0,,,58,29
11760,note_on,,,,,0,0,2,,,0,,,62,29
11780,set_tempo,,,,,80,1,0,251046,,,,,,
11820,set_tempo,,,,,40,1,0,250000,,,,,,
11880,note_off,,,,,0,0,2,,,0,,,62,64
11880,note_off,,,,,120,0,1,,,0,,,81,64
11880,note_on,,,,,0,0,2,,,0,,,65,23
11880,note_off,,,,,120,0,2,,,0,,,58,64
11960,set_tempo,,,,,140,1,0,248963,,,,,,
12000,note_on,,,,,0,0,2,,,0,,,58,35
12000,note_off,,,,,120,0,2,,,0,,,65,64
12000,note_on,,,,,0,0,2,,,0,,,62,35
12000,note_on,,,,,120,0,1,,,0,,,82,46
12100,set_tempo,,,,,140,1,0,247934,,,,,,
12120,note_off,,,,,0,0,2,,,0,,,62,64
12120,note_off,,,,,120,0,2,,,0,,,58,64
12120,note_off,,,,,120,0,1,,,0,,,82,64
12120,note_on,,,,,0,0,2,,,0,,,65,32
12240,note_on,,,,,0,0,1,,,0,,,79,51
12240,control_change,,,,,120,0,1,,,0,91,100,,
12240,note_off,,,,,120,0,2,,,0,,,65,64
12240,note_on,,,,,0,0,2,,,0,,,58,44
12240,note_on,,,,,0,0,2,,,0,,,63,44
12360,note_on,,,,,0,0,2,,,0,,,67,25
12360,note_off,,,,,0,0,2,,,0,,,63,64
12360,note_off,,,,,120,0,2,,,0,,,58,64
12480,note_on,,,,,0,0,2,,,0,,,58,29
12480,note_off,,,,,120,0,2,,,0,,,67,64
12480,note_on,,,,,0,0,2,,,0,,,63,29
12480,note_on,,,,,0,0,1,,,0,,,81,43
12480,note_off,,,,,240,0,1,,,0,,,79,64
12588,note_off,,,,,108,0,1,,,0,,,81,64
12600,note_off,,,,,120,0,2,,,0,,,58,64
12600,note_on,,,,,12,0,1,,,0,,,82,38
12600,note_on,,,,,0,0,2,,,0,,,67,26
12600,note_off,,,,,0,0,2,,,0,,,63,64
12708,note_off,,,,,108,0,1,,,0,,,82,64
12720,note_off,,,,,120,0,2,,,0,,,67,64
12720,note_on,,,,,0,0,2,,,0,,,63,38
12720,note_on,,,,,12,0,1,,,0,,,84,41
12720,note_on,,,,,0,0,2,,,0,,,58,38
12828,note_off,,,,,108,0,1,,,0,,,84,64
12840,note_off,,,,,120,0,2,,,0,,,58,64
12840,note_on,,,,,0,0,2,,,0,,,67,36
12840,note_on,,,,,12,0,1,,,0,,,86,48
12840,note_off,,,,,0,0,2,,,0,,,63,64
12948,note_off,,,,,108,0,1,,,0,,,86,64
12960,note_on,,,,,0,0,2,,,0,,,58,53
12960,note_on,,,,,0,0,2,,,0,,,62,53
12960,note_off,,,,,120,0,2,,,0,,,67,64
12960,note_on,,,,,12,0,1,,,0,,,82,54
13080,note_off,,,,,0,0,2,,,0,,,62,64
13080,note_on,,,,,0,0,2,,,0,,,65,29
13080,note_off,,,,,120,0,2,,,0,,,58,64
13200,note_on,,,,,0,0,2,,,0,,,58,36
13200,note_off,,,,,120,0,2,,,0,,,65,64
13200,note_off,,,,,240,0,1,,,0,,,82,64
13200,note_on,,,,,0,0,2,,,0,,,62,36
13200,note_on,,,,,0,0,1,,,0,,,84,45
13308,note_off,,,,,108,0,1,,,0,,,84,64
13320,note_off,,,,,120,0,2,,,0,,,58,64
13320,note_off,,,,,0,0,2,,,0,,,62,64
13320,note_on,,,,,0,0,2,,,0,,,65,34
13320,note_on,,,,,12,0,1,,,0,,,82,38
13428,note_off,,,,,108,0,1,,,0,,,82,64
13440,note_off,,,,,120,0,2,,,0,,,65,64
13440,note_on,,,,,0,0,2,,,0,,,62,47
13440,note_on,,,,,12,0,1,,,0,,,81,44
13440,note_on,,,,,0,0,2,,,0,,,58,47
13548,note_off,,,,,108,0,1,,,0,,,81,64
13560,note_on,,,,,12,0,1,,,0,,,79,50
13560,note_off,,,,,120,0,2,,,0,,,58,64
13560,note_off,,,,,0,0,2,,,0,,,62,64
13560,note_on,,,,,0,0,2,,,0,,,65,43
13668,note_off,,,,,108,0,1,,,0,,,79,64
13680,note_off,,,,,120,0,2,,,0,,,65,64
13680,note_on,,,,,0,0,2,,,0,,,63,55
13680,note_on,,,,,12,0,1,,,0,,,77,57
13680,note_on,,,,,0,0,2,,,0,,,57,55
13800,note_off,,,,,120,0,1,,,0,,,77,64
13800,note_on,,,,,0,0,2,,,0,,,65,29
13800,note_off,,,,,0,0,2,,,0,,,63,64
13800,note_off,,,,,120,0,2,,,0,,,57,64
13920,note_on,,,,,120,0,1,,,0,,,77,47
13920,note_off,,,,,120,0,2,,,0,,,65,64
13920,note_on,,,,,0,0,2,,,0,,,63,33
13920,note_on,,,,,0,0,2,,,0,,,57,33
14040,note_off,,,,,120,0,2,,,0,,,57,64
14040,note_on,,,,,0,0,2,,,0,,,65,29
14040,note_off,,,,,120,0,1,,,0,,,77,64
14040,note_off,,,,,0,0,2,,,0,,,63,64
14160,note_on,,,,,0,0,2,,,0,,,57,42
14160,note_on,,,,,0,0,2,,,0,,,63,42
14160,note_off,,,,,120,0,2,,,0,,,65,64
14160,note_on,,,,,120,0,1,,,0,,,77,38
14280,note_off,,,,,120,0,1,,,0,,,77,64
14280,note_on,,,,,0,0,2,,,0,,,65,39
14280,note_off,,,,,0,0,2,,,0,,,63,64
14280,note_off,,,,,120,0,2,,,0,,,57,64
14400,note_on,,,,,0,0,2,,,0,,,57,55
14400,note_on,,,,,0,0,2,,,0,,,63,55
14400,note_on,,,,,120,0,1,,,0,,,78,59
14400,note_off,,,,,120,0,2,,,0,,,65,64
14520,note_on,,,,,0,0,2,,,0,,,66,43
14520,note_off,,,,,0,0,2,,,0,,,63,64
14520,note_off,,,,,120,0,2,,,0,,,57,64
14560,control_change,,,,,40,0,2,,,0,91,96,,
14640,note_on,,,,,0,0,2,,,0,,,63,46
14640,note_off,,,,,80,0,2,,,0,,,66,64
14640,note_off,,,,,240,0,1,,,0,,,78,64
14640,note_on,,,,,0,0,1,,,0,,,90,48
14640,note_on,,,,,0,0,2,,,0,,,57,46
14760,note_off,,,,,120,0,2,,,0,,,57,64
14760,note_off,,,,,0,0,2,,,0,,,63,64
14760,note_off,,,,,120,0,1,,,0,,,90,64
14760,note_on,,,,,0,0,2,,,0,,,66,32
14880,note_off,,,,,120,0,2,,,0,,,66,64
14880,note_on,,,,,120,0,1,,,0,,,90,59
14880,note_on,,,,,0,0,2,,,0,,,57,35
14880,note_on,,,,,0,0,2,,,0,,,63,35
15000,note_off,,,,,120,0,1,,,0,,,90,64
15000,note_on,,,,,0,0,2,,,0,,,66,25
15000,note_off,,,,,0,0,2,,,0,,,63,64
15000,note_off,,,,,120,0,2,,,0,,,57,64
15120,note_on,,,,,120,0,1,,,0,,,91,68
15120,note_on,,,,,0,0,2,,,0,,,58,63
15120,note_on,,,,,0,0,2,,,0,,,63,63
15120,note_off,,,,,120,0,2,,,0,,,66,64
15240,note_off,,,,,120,0,2,,,0,,,58,64
15240,note_on,,,,,0,0,2,,,0,,,67,51
15240,note_off,,,,,0,0,2,,,0,,,63,64
15360,note_on,,,,,0,0,2,,,0,,,63,52
15360,note_on,,,,,0,0,2,,,0,,,58,52
15360,note_on,,,,,0,0,1,,,0,,,79,58
15360,note_off,,,,,240,0,1,,,0,,,91,64
15360,note_off,,,,,120,0,2,,,0,,,67,64
15480,note_off,,,,,120,0,1,,,0,,,79,64
15480,note_off,,,,,0,0,2,,,0,,,58,64
15480,note_off,,,,,120,0,2,,,0,,,63,64
15480,note_on,,,,,0,0,2,,,0,,,67,40
15600,note_on,,,,,120,0,1,,,0,,,79,51
15600,note_on,,,,,0,0,2,,,0,,,63,42
15600,note_on,,,,,0,0,2,,,0,,,58,42
15600,note_off,,,,,120,0,2,,,0,,,67,64
15720,note_off,,,,,0,0,2,,,0,,,58,64
15720,note_off,,,,,120,0,1,,,0,,,79,64
15720,note_on,,,,,0,0,2,,,0,,,67,28
15720,note_off,,,,,120,0,2,,,0,,,63,64
15840,note_on,,,,,0,0,2,,,0,,,60,53
15840,note_on,,,,,0,0,2,,,0,,,63,53
15840,note_off,,,,,120,0,2,,,0,,,67,64
15840,note_on,,,,,120,0,1,,,0,,,81,58
15960,note_on,,,,,0,0,2,,,0,,,65,22
15960,note_off,,,,,0,0,2,,,0,,,63,64
15960,note_off,,,,,120,0,2,,,0,,,60,64
15960,note_off,,,,,120,0,1,,,0,,,81,64
16050,note_on,,,,,90,0,1,,,0,,,94,57
16080,note_on,,,,,0,0,2,,,0,,,63,34
16080,note_on,,,,,0,0,2,,,0,,,60,34
16080,note_off,,,,,120,0,2,,,0,,,65,64
16080,note_off,,,,,30,0,1,,,0,,,94,64
16080,note_on,,,,,0,0,1,,,0,,,93,58
16200,note_on,,,,,0,0,1,,,0,,,91,60
16200,note_off,,,,,120,0,1,,,0,,,93,64
16200,note_off,,,,,0,0,2,,,0,,,63,64
16200,note_off,,,,,120,0,2,,,0,,,60,64
16200,note_on,,,,,0,0,2,,,0,,,65,33
16320,note_on,,,,,0,0,2,,,0,,,63,45
16320,note_off,,,,,120,0,1,,,0,,,91,64
16320,note_on,,,,,0,0,1,,,0,,,93,62
16320,note_on,,,,,0,0,2,,,0,,,60,45
16320,note_off,,,,,120,0,2,,,0,,,65,64
16440,note_off,,,,,0,0,2,,,0,,,63,64
16440,note_on,,,,,0,0,2,,,0,,,65,43
16440,note_off,,,,,120,0,2,,,0,,,60,64
16560,note_on,,,,,0,0,2,,,0,,,62,54
16560,note_on,,,,,0,0,2,,,0,,,58,54
16560,note_off,,,,,120,0,2,,,0,,,65,64
16560,note_off,,,,,240,0,1,,,0,,,93,64
16560,note_on,,,,,0,0,1,,,0,,,94,66
16680,note_on,,,,,0,0,2,,,0,,,65,40
16680,note_off,,,,,0,0,2,,,0,,,58,64
16680,note_off,,,,,120,0,2,,,0,,,62,64
16680,note_off,,,,,120,0,1,,,0,,,94,64
16770,note_on,,,,,90,0,1,,,0,,,84,56
16800,note_on,,,,,0,0,1,,,0,,,82,55
16800,note_off,,,,,30,0,1,,,0,,,84,64
16800,note_on,,,,,0,0,2,,,0,,,58,44
16800,note_off,,,,,120,0,2,,,0,,,65,64
16800,note_on,,,,,0,0,2,,,0,,,62,44
16920,note_off,,,,,120,0,1,,,0,,,82,64
16920,note_on,,,,,0,0,1,,,0,,,81,47
16920,note_off,,,,,120,0,2,,,0,,,58,64
16920,note_off,,,,,0,0,2,,,0,,,62,64
16920,note_on,,,,,0,0,2,,,0,,,65,26
17040,note_on,,,,,0,0,2,,,0,,,58,28
17040,note_on,,,,,0,0,2,,,0,,,62,28
17040,note_off,,,,,120,0,2,,,0,,,65,64
17040,note_off,,,,,120,0,1,,,0,,,81,64
17040,note_on,,,,,0,0,1,,,0,,,82,37
17160,note_on,,,,,0,0,2,,,0,,,65,15
17160,note_off,,,,,120,0,2,,,0,,,58,64
17160,note_off,,,,,0,0,2,,,0,,,62,64
17280,note_off,,,,,120,0,2,,,0,,,65,64
17280,note_on,,,,,0,0,2,,,0,,,58,49
17280,note_off,,,,,240,0,1,,,0,,,82,64
17280,note_on,,,,,0,0,1,,,0,,,74,49
17280,note_on,,,,,0,0,1,,,0,,,70,49
17400,note_off,,,,,0,0,1,,,0,,,74,64
17400,note_on,,,,,0,0,1,,,0,,,77,26
17400,note_off,,,,,120,0,1,,,0,,,70,64
17520,note_off,,,,,240,0,2,,,0,,,58,64
17520,note_on,,,,,0,0,2,,,0,,,57,40
17520,note_on,,,,,0,0,1,,,0,,,74,29
17520,note_off,,,,,120,0,1,,,0,,,77,64
17520,note_on,,,,,0,0,1,,,0,,,70,29
17640,note_off,,,,,0,0,1,,,0,,,74,64
17640,note_off,,,,,120,0,2,,,0,,,57,64
17640,note_off,,,,,120,0,1,,,0,,,70,64
17640,note_on,,,,,0,0,1,,,0,,,77,23
17760,note_on,,,,,0,0,1,,,0,,,70,35
17760,note_on,,,,,0,0,1,,,0,,,74,35
17760,note_off,,,,,120,0,1,,,0,,,77,64
17760,note_on,,,,,120,0,2,,,0,,,58,48
17880,note_off,,,,,120,0,2,,,0,,,58,64
17880,note_off,,,,,120,0,1,,,0,,,70,64
17880,note_off,,,,,0,0,1,,,0,,,74,64
17880,note_on,,,,,0,0,1,,,0,,,77,32
18000,note_on,,,,,0,0,2,,,0,,,55,54
18000,note_off,,,,,120,0,1,,,0,,,77,64
18000,note_on,,,,,0,0,1,,,0,,,74,44
18000,note_on,,,,,0,0,1,,,0,,,70,44
18000,control_change,,,,,120,0,2,,,0,91,100,,
18120,note_off,,,,,0,0,1,,,0,,,74,64
18120,note_off,,,,,120,0,1,,,0,,,70,64
18120,note_on,,,,,0,0,1,,,0,,,79,25
18240,note_off,,,,,240,0,2,,,0,,,55,64
18240,note_on,,,,,0,0,1,,,0,,,70,29
18240,note_on,,,,,0,0,1,,,0,,,74,29
18240,note_off,,,,,120,0,1,,,0,,,79,64
18240,note_on,,,,,0,0,2,,,0,,,57,46
18348,note_off,,,,,108,0,2,,,0,,,57,64
18360,note_on,,,,,12,0,2,,,0,,,58,44
18360,note_off,,,,,0,0,1,,,0,,,74,64
18360,note_off,,,,,120,0,1,,,0,,,70,64
18360,note_on,,,,,0,0,1,,,0,,,79,26
18468,note_off,,,,,108,0,2,,,0,,,58,64
18480,note_on,,,,,12,0,2,,,0,,,60,48
18480,note_off,,,,,120,0,1,,,0,,,79,64
18480,note_on,,,,,0,0,1,,,0,,,70,38
18480,note_on,,,,,0,0,1,,,0,,,74,38
18588,note_off,,,,,108,0,2,,,0,,,60,64
18600,note_off,,,,,120,0,1,,,0,,,70,64
18600,note_on,,,,,0,0,1,,,0,,,79,36
18600,note_off,,,,,0,0,1,,,0,,,74,64
18600,note_on,,,,,12,0,2,,,0,,,62,51
18708,note_off,,,,,108,0,2,,,0,,,62,64
18720,note_on,,,,,0,0,1,,,0,,,70,53
18720,note_on,,,,,0,0,1,,,0,,,74,53
18720,note_on,,,,,12,0,2,,,0,,,58,52
18720,note_off,,,,,120,0,1,,,0,,,79,64
18840,note_off,,,,,120,0,1,,,0,,,70,64
18840,note_off,,,,,0,0,1,,,0,,,74,64
18840,note_on,,,,,0,0,1,,,0,,,77,29
18960,note_off,,,,,120,0,1,,,0,,,77,64
18960,note_on,,,,,0,0,1,,,0,,,74,36
18960,note_on,,,,,0,0,1,,,0,,,70,36
18960,note_on,,,,,0,0,2,,,0,,,60,45
18960,note_off,,,,,240,0,2,,,0,,,58,64
19068,note_off,,,,,108,0,2,,,0,,,60,64
19080,note_on,,,,,12,0,2,,,0,,,58,40
19080,note_off,,,,,120,0,1,,,0,,,70,64
19080,note_off,,,,,0,0,1,,,0,,,74,64
19080,note_on,,,,,0,0,1,,,0,,,77,34
19188,note_off,,,,,108,0,2,,,0,,,58,64
19200,note_on,,,,,12,0,2,,,0,,,57,45
19200,note_off,,,,,120,0,1,,,0,,,77,64
19200,note_on,,,,,0,0,1,,,0,,,74,47
19200,note_on,,,,,0,0,1,,,0,,,70,47
19308,note_off,,,,,108,0,2,,,0,,,57,64
19320,note_on,,,,,0,0,1,,,0,,,77,43
19320,note_on,,,,,12,0,2,,,0,,,55,52
19320,note_off,,,,,120,0,1,,,0,,,70,64
19320,note_off,,,,,0,0,1,,,0,,,74,64
19428,note_off,,,,,108,0,2,,,0,,,55,64
19440,note_on,,,,,12,0,2,,,0,,,53,57
19440,note_on,,,,,0,0,1,,,0,,,69,55
19440,note_on,,,,,0,0,1,,,0,,,75,55
19440,note_off,,,,,120,0,1,,,0,,,77,64
19560,note_off,,,,,0,0,1,,,0,,,75,64
19560,note_on,,,,,0,0,1,,,0,,,77,29
19560,note_off,,,,,120,0,2,,,0,,,53,64
19560,note_off,,,,,120,0,1,,,0,,,69,64
19680,note_on,,,,,0,0,1,,,0,,,75,33
19680,note_off,,,,,120,0,1,,,0,,,77,64
19680,note_on,,,,,0,0,1,,,0,,,69,33
19680,note_on,,,,,120,0,2,,,0,,,53,51
19800,note_off,,,,,0,0,1,,,0,,,75,64
19800,note_on,,,,,0,0,1,,,0,,,77,29
19800,note_off,,,,,120,0,1,,,0,,,69,64
19800,note_off,,,,,120,0,2,,,0,,,53,64
19920,note_on,,,,,120,0,2,,,0,,,53,41
19920,note_on,,,,,0,0,1,,,0,,,69,42
19920,note_on,,,,,0,0,1,,,0,,,75,42
19920,note_off,,,,,120,0,1,,,0,,,77,64
20040,note_off,,,,,120,0,2,,,0,,,53,64
20040,note_on,,,,,0,0,1,,,0,,,77,39
20040,note_off,,,,,0,0,1,,,0,,,75,64
20040,note_off,,,,,120,0,1,,,0,,,69,64
20160,note_on,,,,,120,0,2,,,0,,,54,59
20160,note_on,,,,,0,0,1,,,0,,,69,55
20160,note_on,,,,,0,0,1,,,0,,,75,55
20160,note_off,,,,,120,0,1,,,0,,,77,64
20280,note_on,,,,,0,0,1,,,0,,,81,43
20280,note_off,,,,,120,0,1,,,0,,,69,64
20280,note_off,,,,,0,0,1,,,0,,,75,64
20320,control_change,,,,,40,0,1,,,0,91,96,,
20400,note_on,,,,,0,0,1,,,0,,,69,46
20400,note_off,,,,,80,0,1,,,0,,,81,64
20400,note_on,,,,,0,0,1,,,0,,,75,46
20400,note_off,,,,,240,0,2,,,0,,,54,64
20400,note_on,,,,,0,0,2,,,0,,,66,47
20520,note_on,,,,,0,0,1,,,0,,,81,32
20520,note_off,,,,,120,0,1,,,0,,,69,64
20520,note_off,,,,,120,0,2,,,0,,,66,64
20520,note_off,,,,,0,0,1,,,0,,,75,64
20640,note_on,,,,,0,0,1,,,0,,,75,35
20640,note_on,,,,,0,0,1,,,0,,,69,35
20640,note_on,,,,,120,0,2,,,0,,,66,61
20640,note_off,,,,,120,0,1,,,0,,,81,64
20760,note_off,,,,,120,0,1,,,0,,,69,64
20760,note_off,,,,,0,0,1,,,0,,,75,64
20760,note_off,,,,,120,0,2,,,0,,,66,64
20760,note_on,,,,,0,0,1,,,0,,,81,25
20880,note_on,,,,,0,0,1,,,0,,,75,63
20880,note_off,,,,,120,0,1,,,0,,,81,64
20880,note_on,,,,,0,0,1,,,0,,,70,63
20880,note_on,,,,,120,0,2,,,0,,,67,66
21000,note_off,,,,,0,0,1,,,0,,,75,64
21000,note_off,,,,,120,0,1,,,0,,,70,64
21000,note_on,,,,,0,0,1,,,0,,,82,51
21120,note_on,,,,,0,0,1,,,0,,,75,52
21120,note_on,,,,,0,0,2,,,0,,,55,58
21120,note_off,,,,,240,0,2,,,0,,,67,64
21120,note_off,,,,,120,0,1,,,0,,,82,64
21120,note_on,,,,,0,0,1,,,0,,,70,52
21240,note_off,,,,,120,0,2,,,0,,,55,64
21240,note_off,,,,,120,0,1,,,0,,,70,64
21240,note_off,,,,,0,0,1,,,0,,,75,64
21240,note_on,,,,,0,0,1,,,0,,,81,40
21360,note_on,,,,,0,0,1,,,0,,,70,42
21360,note_on,,,,,120,0,2,,,0,,,55,49
21360,note_on,,,,,0,0,1,,,0,,,75,42
21360,note_off,,,,,120,0,1,,,0,,,81,64
21480,note_on,,,,,0,0,1,,,0,,,79,28
21480,note_off,,,,,120,0,2,,,0,,,55,64
21480,note_off,,,,,120,0,1,,,0,,,70,64
21480,note_off,,,,,0,0,1,,,0,,,75,64
21600,note_on,,,,,120,0,2,,,0,,,58,58
21600,note_off,,,,,120,0,1,,,0,,,79,64
21600,note_on,,,,,0,0,1,,,0,,,74,53
21600,note_on,,,,,0,0,1,,,0,,,68,53
21660,set_tempo,,,,,9560,1,0,246914,,,,,,
21720,note_off,,,,,120,0,1,,,0,,,68,64
21720,note_on,,,,,0,0,1,,,0,,,77,22
21720,note_off,,,,,120,0,2,,,0,,,58,64
21720,note_off,,,,,0,0,1,,,0,,,74,64
21810,note_on,,,,,90,0,2,,,0,,,48,57
21840,set_tempo,,,,,180,1,0,247934,,,,,,
21840,note_off,,,,,120,0,1,,,0,,,77,64
21840,note_on,,,,,0,0,1,,,0,,,74,34
21840,note_on,,,,,0,0,1,,,0,,,68,34
21840,note_on,,,,,0,0,2,,,0,,,46,57
21840,note_off,,,,,30,0,2,,,0,,,48,64
21960,set_tempo,,,,,120,1,0,250000,,,,,,
21960,note_off,,,,,0,0,1,,,0,,,74,64
21960,note_on,,,,,0,0,1,,,0,,,77,33
21960,note_off,,,,,120,0,1,,,0,,,68,64
21960,note_on,,,,,0,0,2,,,0,,,45,61
21960,note_off,,,,,120,0,2,,,0,,,46,64
22080,note_on,,,,,0,0,2,,,0,,,46,63
22080,set_tempo,,,,,120,1,0,251046,,,,,,
22080,note_off,,,,,120,0,2,,,0,,,45,64
22080,note_off,,,,,120,0,1,,,0,,,77,64
22080,note_on,,,,,0,0,1,,,0,,,74,45
22080,note_on,,,,,0,0,1,,,0,,,68,45
22100,set_tempo,,,,,20,1,0,252101,,,,,,
22200,note_on,,,,,0,0,1,,,0,,,77,43
22200,note_off,,,,,120,0,1,,,0,,,68,64
22200,note_off,,,,,0,0,1,,,0,,,74,64
22280,set_tempo,,,,,180,1,0,255319,,,,,,
22320,note_off,,,,,120,0,1,,,0,,,77,64
22320,note_on,,,,,0,0,1,,,0,,,75,54
22320,note_on,,,,,0,0,1,,,0,,,67,54
22320,note_on,,,,,0,0,2,,,0,,,51,67
22320,note_off,,,,,240,0,2,,,0,,,46,64
22440,note_off,,,,,120,0,2,,,0,,,51,64
22440,note_off,,,,,120,0,1,,,0,,,67,64
22440,note_on,,,,,0,0,1,,,0,,,79,40
22440,note_off,,,,,0,0,1,,,0,,,75,64
22530,note_on,,,,,90,0,2,,,0,,,41,56
22560,note_on,,,,,0,0,1,,,0,,,67,36
22560,note_on,,,,,0,0,1,,,0,,,75,36
22560,note_off,,,,,120,0,1,,,0,,,79,64
22560,note_on,,,,,0,0,2,,,0,,,39,55
22560,note_off,,,,,30,0,2,,,0,,,41,64
22640,set_tempo,,,,,360,1,0,259740,,,,,,
22680,note_off,,,,,120,0,2,,,0,,,39,64
22680,note_on,,,,,0,0,2,,,0,,,38,47
22680,note_on,,,,,0,0,1,,,0,,,79,31
22680,note_off,,,,,0,0,1,,,0,,,75,64
22680,note_off,,,,,120,0,1,,,0,,,67,64
22700,set_tempo,,,,,60,1,0,263158,,,,,,
22740,set_tempo,,,,,40,1,0,264317,,,,,,
22760,set_tempo,,,,,20,1,0,266667,,,,,,
22800,note_on,,,,,0,0,1,,,0,,,67,25
22800,note_off,,,,,120,0,2,,,0,,,38,64
22800,note_on,,,,,0,0,1,,,0,,,75,25
22800,set_tempo,,,,,40,1,0,267857,,,,,,
22800,note_off,,,,,120,0,1,,,0,,,79,64
22800,note_on,,,,,0,0,2,,,0,,,39,37
22820,set_tempo,,,,,20,1,0,271493,,,,,,
22860,set_tempo,,,,,40,1,0,272727,,,,,,
22900,set_tempo,,,,,40,1,0,275229,,,,,,
22920,note_off,,,,,120,0,1,,,0,,,67,64
22920,note_off,,,,,0,0,1,,,0,,,75,64
22920,set_tempo,,,,,20,1,0,279070,,,,,,
22960,set_tempo,,,,,40,1,0,292683,,,,,,
22980,set_tempo,,,,,20,1,0,297030,,,,,,
23000,set_tempo,,,,,20,1,0,303030,,,,,,
23020,set_tempo,,,,,20,1,0,304569,,,,,,
23040,note_on,,,,,0,0,2,,,0,,,63,36
23040,note_on,,,,,0,0,2,,,0,,,67,36
23040,note_off,,,,,240,0,2,,,0,,,39,64
23040,note_on,,,,,120,0,1,,,0,,,82,38
23040,set_tempo,,,,,20,1,0,281690,,,,,,
23060,set_tempo,,,,,20,1,0,279070,,,,,,
23080,set_tempo,,,,,20,1,0,266667,,,,,,
23120,set_tempo,,,,,40,1,0,265487,,,,,,
23140,set_tempo,,,,,20,1,0,263158,,,,,,
23160,note_off,,,,,0,0,2,,,0,,,67,64
23160,note_on,,,,,0,0,2,,,0,,,70,24
23160,note_off,,,,,120,0,2,,,0,,,63,64
23160,set_tempo,,,,,20,1,0,260870,,,,,,
23160,note_off,,,,,120,0,1,,,0,,,82,64
23220,set_tempo,,,,,60,1,0,257511,,,,,,
23250,note_on,,,,,90,0,1,,,0,,,80,28
23260,set_tempo,,,,,40,1,0,256410,,,,,,
23280,note_off,,,,,30,0,1,,,0,,,80,64
23280,note_off,,,,,120,0,2,,,0,,,70,64
23280,note_on,,,,,0,0,2,,,0,,,67,30
23280,note_on,,,,,0,0,1,,,0,,,79,29
23280,note_on,,,,,0,0,2,,,0,,,63,30
23300,set_tempo,,,,,40,1,0,254237,,,,,,
23360,set_tempo,,,,,60,1,0,252101,,,,,,
23380,set_tempo,,,,,20,1,0,251046,,,,,,
23400,note_off,,,,,120,0,2,,,0,,,67,64
23400,note_off,,,,,0,0,2,,,0,,,63,64
23400,set_tempo,,,,,20,1,0,250000,,,,,,
23400,note_on,,,,,0,0,2,,,0,,,70,24
23400,note_off,,,,,120,0,1,,,0,,,79,64
23400,note_on,,,,,0,0,1,,,0,,,77,34
23440,set_tempo,,,,,40,1,0,248963,,,,,,
23460,set_tempo,,,,,20,1,0,247934,,,,,,
23520,note_off,,,,,120,0,1,,,0,,,77,64
23520,note_off,,,,,120,0,2,,,0,,,70,64
23520,note_on,,,,,0,0,2,,,0,,,67,31
23520,note_on,,,,,0,0,2,,,0,,,63,31
23520,note_on,,,,,0,0,1,,,0,,,79,38
23520,set_tempo,,,,,60,1,0,246914,,,,,,
23560,set_tempo,,,,,40,1,0,245902,,,,,,
23640,note_off,,,,,120,0,2,,,0,,,63,64
23640,note_off,,,,,0,0,2,,,0,,,67,64
23640,note_on,,,,,0,0,2,,,0,,,70,25
23700,set_tempo,,,,,140,1,0,243902,,,,,,
23760,note_off,,,,,120,0,2,,,0,,,70,64
23760,note_on,,,,,0,0,2,,,0,,,62,35
23760,note_on,,,,,0,0,1,,,0,,,82,47
23760,note_off,,,,,240,0,1,,,0,,,79,64
23760,note_on,,,,,0,0,2,,,0,,,65,35
23820,set_tempo,,,,,120,1,0,242915,,,,,,
23860,set_tempo,,,,,40,1,0,241935,,,,,,
23880,note_off,,,,,120,0,1,,,0,,,82,64
23880,note_on,,,,,0,0,2,,,0,,,70,26
23880,note_off,,,,,0,0,2,,,0,,,65,64
23880,note_off,,,,,120,0,2,,,0,,,62,64
23970,note_on,,,,,90,0,1,,,0,,,79,36
24000,note_on,,,,,0,0,1,,,0,,,77,38
24000,note_off,,,,,120,0,2,,,0,,,70,64
24000,note_on,,,,,0,0,2,,,0,,,65,36
24000,note_on,,,,,0,0,2,,,0,,,62,36
24000,note_off,,,,,30,0,1,,,0,,,79,64
24120,note_on,,,,,0,0,1,,,0,,,76,43
24120,note_off,,,,,120,0,1,,,0,,,77,64
24120,note_on,,,,,0,0,2,,,0,,,70,25
24120,note_off,,,,,0,0,2,,,0,,,65,64
24120,note_off,,,,,120,0,2,,,0,,,62,64
24240,note_on,,,,,0,0,2,,,0,,,65,36
24240,note_off,,,,,120,0,2,,,0,,,70,64
24240,note_on,,,,,0,0,1,,,0,,,77,48
24240,note_off,,,,,120,0,1,,,0,,,76,64
24240,note_on,,,,,0,0,2,,,0,,,61,36
24360,note_on,,,,,0,0,2,,,0,,,70,26
24360,note_off,,,,,120,0,2,,,0,,,61,64
24360,note_off,,,,,0,0,2,,,0,,,65,64
24480,note_off,,,,,120,0,2,,,0,,,70,64
24480,note_on,,,,,0,0,1,,,0,,,84,58
24480,note_off,,,,,240,0,1,,,0,,,77,64
24480,note_on,,,,,0,0,2,,,0,,,65,36
24480,note_on,,,,,0,0,2,,,0,,,60,36
24600,note_off,,,,,120,0,2,,,0,,,60,64
24600,note_off,,,,,0,0,2,,,0,,,65,64
24600,note_on,,,,,0,0,2,,,0,,,68,29
24720,note_off,,,,,240,0,1,,,0,,,84,64
24720,note_off,,,,,120,0,2,,,0,,,68,64
24720,note_on,,,,,0,0,2,,,0,,,65,35
24720,note_on,,,,,0,0,2,,,0,,,60,35
24720,note_on,,,,,0,0,1,,,0,,,82,54
24760,set_tempo,,,,,900,1,0,242915,,,,,,
24780,set_tempo,,,,,20,1,0,243902,,,,,,
24840,note_off,,,,,0,0,2,,,0,,,65,64
24840,note_off,,,,,120,0,1,,,0,,,82,64
24840,note_on,,,,,0,0,1,,,0,,,80,48
24840,note_off,,,,,120,0,2,,,0,,,60,64
24840,note_on,,,,,0,0,2,,,0,,,68,27
24840,set_tempo,,,,,60,1,0,246914,,,,,,
24860,set_tempo,,,,,20,1,0,247934,,,,,,
24920,set_tempo,,,,,60,1,0,248963,,,,,,
24940,set_tempo,,,,,20,1,0,250000,,,,,,
24960,note_off,,,,,120,0,1,,,0,,,80,64
24960,note_on,,,,,0,0,2,,,0,,,60,38
24960,note_on,,,,,0,0,2,,,0,,,65,38
24960,note_off,,,,,120,0,2,,,0,,,68,64
24960,note_on,,,,,0,0,1,,,0,,,79,55
25020,set_tempo,,,,,80,1,0,251046,,,,,,
25080,note_off,,,,,120,0,2,,,0,,,60,64
25080,note_on,,,,,0,0,1,,,0,,,77,66
25080,note_off,,,,,120,0,1,,,0,,,79,64
25080,note_on,,,,,0,0,2,,,0,,,68,34
25080,note_off,,,,,0,0,2,,,0,,,65,64
25100,set_tempo,,,,,80,1,0,254237,,,,,,
25200,note_on,,,,,0,0,2,,,0,,,60,43
25200,note_off,,,,,120,0,1,,,0,,,77,64
25200,note_on,,,,,0,0,1,,,0,,,84,74
25200,note_off,,,,,120,0,2,,,0,,,68,64
25200,note_on,,,,,0,0,2,,,0,,,65,43
25320,note_off,,,,,0,0,2,,,0,,,65,64
25320,note_on,,,,,0,0,2,,,0,,,67,32
25320,note_off,,,,,120,0,2,,,0,,,60,64
25440,note_on,,,,,0,0,2,,,0,,,60,39
25440,note_off,,,,,120,0,2,,,0,,,67,64
25440,note_on,,,,,0,0,1,,,0,,,72,58
25440,note_off,,,,,240,0,1,,,0,,,84,64
25440,note_on,,,,,0,0,2,,,0,,,64,39
25460,set_tempo,,,,,360,1,0,255319,,,,,,
25520,set_tempo,,,,,60,1,0,256410,,,,,,
25560,note_on,,,,,0,0,2,,,0,,,67,33
25560,note_off,,,,,0,0,2,,,0,,,64,64
25560,note_off,,,,,120,0,2,,,0,,,60,64
25580,set_tempo,,,,,60,1,0,257511,,,,,,
25600,set_tempo,,,,,20,1,0,258621,,,,,,
25620,note_off,,,,,180,0,1,,,0,,,72,64
25680,set_tempo,,,,,80,1,0,259740,,,,,,
25680,note_off,,,,,120,0,2,,,0,,,67,64
25680,note_on,,,,,0,0,2,,,0,,,60,33
25680,note_on,,,,,0,0,2,,,0,,,64,33
25680,note_on,,,,,60,0,1,,,0,,,72,41
25700,set_tempo,,,,,20,1,0,260870,,,,,,
25800,note_off,,,,,120,0,2,,,0,,,64,64
25800,note_on,,,,,0,0,2,,,0,,,67,38
25800,note_off,,,,,120,0,1,,,0,,,72,64
25800,note_off,,,,,0,0,2,,,0,,,60,64
25920,note_off,,,,,120,0,2,,,0,,,67,64
25920,note_on,,,,,0,0,2,,,0,,,56,51
25920,note_on,,,,,0,0,2,,,0,,,60,51
25920,note_on,,,,,120,0,1,,,0,,,72,35
25920,note_on,,,,,0,0,1,,,0,,,68,35
26040,note_off,,,,,120,0,1,,,0,,,68,64
26040,note_off,,,,,0,0,1,,,0,,,72,64
26040,note_on,,,,,0,0,1,,,0,,,75,22
26120,set_tempo,,,,,420,1,0,259740,,,,,,
26160,set_tempo,,,,,40,1,0,258621,,,,,,
26160,note_off,,,,,240,0,2,,,0,,,60,64
26160,note_off,,,,,120,0,1,,,0,,,75,64
26160,note_on,,,,,0,0,1,,,0,,,72,32
26160,note_on,,,,,0,0,1,,,0,,,68,32
26160,note_on,,,,,0,0,2,,,0,,,61,41
26220,set_tempo,,,,,60,1,0,257511,,,,,,
26240,set_tempo,,,,,20,1,0,256410,,,,,,
26280,note_off,,,,,120,0,1,,,0,,,68,64
26280,note_off,,,,,0,0,1,,,0,,,72,64
26280,note_on,,,,,0,0,1,,,0,,,75,22
26280,set_tempo,,,,,40,1,0,255319,,,,,,
26320,set_tempo,,,,,40,1,0,254237,,,,,,
26400,set_tempo,,,,,80,1,0,252101,,,,,,
26400,note_off,,,,,120,0,1,,,0,,,75,64
26400,note_on,,,,,0,0,1,,,0,,,72,29
26400,note_on,,,,,0,0,1,,,0,,,68,29
26400,note_off,,,,,240,0,2,,,0,,,61,64
26400,note_on,,,,,0,0,2,,,0,,,60,49
26420,set_tempo,,,,,20,1,0,251046,,,,,,
26500,set_tempo,,,,,80,1,0,250000,,,,,,
26520,note_off,,,,,120,0,1,,,0,,,68,64
26520,note_off,,,,,0,0,1,,,0,,,72,64
26520,note_on,,,,,0,0,1,,,0,,,75,23
26600,set_tempo,,,,,100,1,0,248963,,,,,,
26640,note_off,,,,,240,0,2,,,0,,,60,64
26640,note_off,,,,,0,0,2,,,0,,,56,64
26640,note_on,,,,,0,0,2,,,0,,,49,55
26640,note_off,,,,,120,0,1,,,0,,,75,64
26640,note_on,,,,,0,0,1,,,0,,,68,34
26640,note_on,,,,,0,0,1,,,0,,,77,34
26640,note_on,,,,,0,0,2,,,0,,,58,55
26760,note_off,,,,,0,0,1,,,0,,,77,64
26760,note_off,,,,,120,0,1,,,0,,,68,64
26760,note_on,,,,,0,0,1,,,0,,,80,27
26880,note_on,,,,,0,0,2,,,0,,,53,47
26880,note_on,,,,,0,0,1,,,0,,,68,37
26880,note_on,,,,,0,0,1,,,0,,,77,37
26880,note_off,,,,,120,0,1,,,0,,,80,64
26880,note_off,,,,,240,0,2,,,0,,,58,64
26920,set_tempo,,,,,320,1,0,245902,,,,,,
26960,set_tempo,,,,,40,1,0,243902,,,,,,
27000,note_on,,,,,0,0,1,,,0,,,80,31
27000,note_off,,,,,0,0,1,,,0,,,77,64
27000,note_off,,,,,120,0,1,,,0,,,68,64
27020,set_tempo,,,,,60,1,0,242915,,,,,,
27100,set_tempo,,,,,80,1,0,241935,,,,,,
27120,note_on,,,,,0,0,1,,,0,,,77,42
27120,note_on,,,,,0,0,2,,,0,,,55,54
27120,note_off,,,,,240,0,2,,,0,,,53,64
27120,note_off,,,,,120,0,1,,,0,,,80,64
27120,note_on,,,,,0,0,1,,,0,,,68,42
27240,note_off,,,,,120,0,1,,,0,,,68,64
27240,note_off,,,,,0,0,1,,,0,,,77,64
27240,note_on,,,,,0,0,1,,,0,,,80,40
27300,note_off,,,,,180,0,2,,,0,,,55,64
27300,note_on,,,,,0,0,2,,,0,,,58,60
27330,note_off,,,,,30,0,2,,,0,,,58,64
27340,set_tempo,,,,,240,1,0,454545,,,,,,
27360,note_on,,,,,0,0,2,,,0,,,51,59
27360,note_on,,,,,0,0,2,,,0,,,56,59
27360,note_off,,,,,120,0,1,,,0,,,80,64
27360,note_off,,,,,30,0,2,,,0,,,49,64
27360,note_on,,,,,0,0,1,,,0,,,68,50
27360,note_on,,,,,0,0,1,,,0,,,72,50
27380,set_tempo,,,,,40,1,0,241935,,,,,,
27480,note_off,,,,,120,0,1,,,0,,,68,64
27480,note_on,,,,,0,0,1,,,0,,,75,42
27480,note_off,,,,,0,0,1,,,0,,,72,64
27580,set_tempo,,,,,200,1,0,242915,,,,,,
27600,note_off,,,,,120,0,1,,,0,,,75,64
27600,note_on,,,,,0,0,1,,,0,,,72,41
27600,note_on,,,,,0,0,2,,,0,,,55,46
27600,note_on,,,,,0,0,1,,,0,,,68,41
27600,note_off,,,,,240,0,2,,,0,,,56,64
27620,set_tempo,,,,,40,1,0,243902,,,,,,
27660,set_tempo,,,,,40,1,0,246914,,,,,,
27700,set_tempo,,,,,40,1,0,247934,,,,,,
27720,note_on,,,,,0,0,1,,,0,,,75,37
27720,note_off,,,,,120,0,1,,,0,,,68,64
27720,note_off,,,,,0,0,1,,,0,,,72,64
27740,set_tempo,,,,,40,1,0,248963,,,,,,
27800,set_tempo,,,,,60,1,0,250000,,,,,,
27820,set_tempo,,,,,20,1,0,251046,,,,,,
27840,set_tempo,,,,,20,1,0,252101,,,,,,
27840,note_off,,,,,120,0,1,,,0,,,75,64
27840,note_off,,,,,240,0,2,,,0,,,55,64
27840,note_on,,,,,0,0,1,,,0,,,68,38
27840,note_on,,,,,0,0,1,,,0,,,72,38
27840,note_on,,,,,0,0,2,,,0,,,56,32
27900,set_tempo,,,,,60,1,0,254237,,,,,,
27960,note_off,,,,,0,0,1,,,0,,,72,64
27960,note_on,,,,,0,0,1,,,0,,,75,33
27960,note_off,,,,,120,0,1,,,0,,,68,64
27980,set_tempo,,,,,80,1,0,256410,,,,,,
28040,set_tempo,,,,,60,1,0,257511,,,,,,
28060,set_tempo,,,,,20,1,0,258621,,,,,,
28080,note_on,,,,,0,0,1,,,0,,,73,41
28080,note_off,,,,,120,0,1,,,0,,,75,64
28080,note_on,,,,,0,0,1,,,0,,,67,41
28080,note_on,,,,,0,0,2,,,0,,,58,46
28080,note_off,,,,,240,0,2,,,0,,,56,64
28120,set_tempo,,,,,60,1,0,259740,,,,,,
28140,set_tempo,,,,,20,1,0,263158,,,,,,
28180,set_tempo,,,,,40,1,0,264317,,,,,,
28200,note_off,,,,,120,0,1,,,0,,,67,64
28200,note_off,,,,,0,0,1,,,0,,,73,64
28200,note_on,,,,,0,0,1,,,0,,,75,30
28260,set_tempo,,,,,80,1,0,265487,,,,,,
28300,set_tempo,,,,,40,1,0,267857,,,,,,
28320,note_on,,,,,0,0,1,,,0,,,67,35
28320,note_off,,,,,120,0,1,,,0,,,75,64
28320,note_on,,,,,0,0,1,,,0,,,73,35
28340,set_tempo,,,,,40,1,0,269058,,,,,,
28400,set_tempo,,,,,60,1,0,271493,,,,,,
28440,note_off,,,,,0,0,1,,,0,,,73,64
28440,note_on,,,,,0,0,1,,,0,,,75,27
28440,note_off,,,,,120,0,1,,,0,,,67,64
28480,set_tempo,,,,,80,1,0,272727,,,,,,
28560,note_on,,,,,0,0,1,,,0,,,73,31
28560,note_on,,,,,0,0,1,,,0,,,67,31
28560,note_on,,,,,0,0,2,,,0,,,59,32
28560,note_off,,,,,120,0,1,,,0,,,75,64
28560,note_off,,,,,480,0,2,,,0,,,58,64
28680,note_off,,,,,120,0,1,,,0,,,67,64
28680,note_on,,,,,0,0,1,,,0,,,75,23
28680,note_off,,,,,0,0,1,,,0,,,73,64
28800,note_off,,,,,120,0,1,,,0,,,75,64
28800,note_on,,,,,0,0,2,,,0,,,56,36
28800,note_on,,,,,0,0,2,,,0,,,60,36
28800,set_tempo,,,,,320,1,0,281690,,,,,,
28800,note_on,,,,,0,0,1,,,0,,,72,30
28800,note_off,,,,,0,0,2,,,0,,,51,64
28800,note_on,,,,,0,0,1,,,0,,,68,30
28800,note_off,,,,,240,0,2,,,0,,,59,64
28800,note_on,,,,,0,0,1,,,0,,,75,30
28820,set_tempo,,,,,20,1,0,279070,,,,,,
28840,set_tempo,,,,,20,1,0,266667,,,,,,
28880,set_tempo,,,,,40,1,0,265487,,,,,,
28900,set_tempo,,,,,20,1,0,263158,,,,,,
28920,note_off,,,,,120,0,1,,,0,,,68,64
28920,note_off,,,,,0,0,1,,,0,,,75,64
28920,note_off,,,,,120,0,2,,,0,,,56,64
28920,note_off,,,,,0,0,2,,,0,,,60,64
28920,note_on,,,,,0,0,2,,,0,,,63,24
28920,set_tempo,,,,,20,1,0,260870,,,,,,
28920,note_off,,,,,0,0,1,,,0,,,72,64
28980,set_tempo,,,,,60,1,0,257511,,,,,,
29010,note_on,,,,,90,0,1,,,0,,,73,28
29020,set_tempo,,,,,40,1,0,256410,,,,,,
29040,note_off,,,,,120,0,2,,,0,,,63,64
29040,note_on,,,,,0,0,1,,,0,,,72,29
29040,note_on,,,,,0,0,2,,,0,,,56,30
29040,note_on,,,,,0,0,2,,,0,,,60,30
29040,note_off,,,,,30,0,1,,,0,,,73,64
29060,set_tempo,,,,,40,1,0,254237,,,,,,
29120,set_tempo,,,,,60,1,0,252101,,,,,,
29140,set_tempo,,,,,20,1,0,251046,,,,,,
29160,note_off,,,,,120,0,2,,,0,,,60,64
29160,note_off,,,,,0,0,2,,,0,,,56,64
29160,note_off,,,,,120,0,1,,,0,,,72,64
29160,set_tempo,,,,,20,1,0,250000,,,,,,
29160,note_on,,,,,0,0,1,,,0,,,70,34
29160,note_on,,,,,0,0,2,,,0,,,63,24
29200,set_tempo,,,,,40,1,0,248963,,,,,,
29220,set_tempo,,,,,20,1,0,247934,,,,,,
29280,note_on,,,,,0,0,2,,,0,,,60,31
29280,note_off,,,,,120,0,2,,,0,,,63,64
29280,note_on,,,,,0,0,2,,,0,,,56,31
29280,note_off,,,,,120,0,1,,,0,,,70,64
29280,set_tempo,,,,,60,1,0,246914,,,,,,
29280,note_on,,,,,0,0,1,,,0,,,72,38
29320,set_tempo,,,,,40,1,0,245902,,,,,,
29400,note_off,,,,,120,0,2,,,0,,,56,64
29400,note_off,,,,,0,0,2,,,0,,,60,64
29400,note_on,,,,,0,0,2,,,0,,,63,25
29460,set_tempo,,,,,140,1,0,243902,,,,,,
29520,note_off,,,,,240,0,1,,,0,,,72,64
29520,note_off,,,,,120,0,2,,,0,,,63,64
29520,note_on,,,,,0,0,2,,,0,,,58,35
29520,note_on,,,,,0,0,1,,,0,,,75,47
29520,note_on,,,,,0,0,2,,,0,,,55,35
29580,set_tempo,,,,,120,1,0,242915,,,,,,
29620,set_tempo,,,,,40,1,0,241935,,,,,,
29640,note_off,,,,,120,0,1,,,0,,,75,64
29640,note_off,,,,,120,0,2,,,0,,,55,64
29640,note_on,,,,,0,0,2,,,0,,,63,26
29640,note_off,,,,,0,0,2,,,0,,,58,64
29730,note_on,,,,,90,0,1,,,0,,,72,36
29760,note_on,,,,,0,0,1,,,0,,,70,38
29760,note_off,,,,,30,0,1,,,0,,,72,64
29760,note_off,,,,,120,0,2,,,0,,,63,64
29760,note_on,,,,,0,0,2,,,0,,,58,36
29760,note_on,,,,,0,0,2,,,0,,,55,36
29880,note_off,,,,,120,0,2,,,0,,,55,64
29880,note_on,,,,,0,0,1,,,0,,,69,43
29880,note_off,,,,,0,0,2,,,0,,,58,64
29880,note_on,,,,,0,0,2,,,0,,,63,25
29880,note_off,,,,,120,0,1,,,0,,,70,64
30000,note_off,,,,,120,0,1,,,0,,,69,64
30000,note_on,,,,,0,0,1,,,0,,,70,48
30000,note_off,,,,,120,0,2,,,0,,,63,64
30000,note_on,,,,,0,0,2,,,0,,,58,36
30000,note_on,,,,,0,0,2,,,0,,,54,36
30120,note_off,,,,,120,0,2,,,0,,,54,64
30120,note_off,,,,,0,0,2,,,0,,,58,64
30120,note_on,,,,,0,0,2,,,0,,,63,26
30240,note_off,,,,,120,0,2,,,0,,,63,64
30240,note_on,,,,,0,0,2,,,0,,,58,36
30240,note_on,,,,,0,0,2,,,0,,,53,36
30240,note_off,,,,,240,0,1,,,0,,,70,64
30240,note_on,,,,,0,0,1,,,0,,,77,58
30360,note_off,,,,,0,0,2,,,0,,,58,64
30360,note_on,,,,,0,0,2,,,0,,,61,29
30360,note_off,,,,,120,0,2,,,0,,,53,64
30480,note_off,,,,,120,0,2,,,0,,,61,64
30480,note_on,,,,,0,0,2,,,0,,,58,35
30480,note_on,,,,,0,0,2,,,0,,,53,35
30480,note_on,,,,,0,0,1,,,0,,,75,54
30480,note_off,,,,,240,0,1,,,0,,,77,64
30520,set_tempo,,,,,900,1,0,242915,,,,,,
30540,set_tempo,,,,,20,1,0,243902,,,,,,
30600,note_on,,,,,0,0,2,,,0,,,61,27
30600,note_on,,,,,0,0,1,,,0,,,73,48
30600,set_tempo,,,,,60,1,0,246914,,,,,,
30600,note_off,,,,,120,0,2,,,0,,,53,64
30600,note_off,,,,,0,0,2,,,0,,,58,64
30600,note_off,,,,,120,0,1,,,0,,,75,64
30620,set_tempo,,,,,20,1,0,247934,,,,,,
30680,set_tempo,,,,,60,1,0,248963,,,,,,
30700,set_tempo,,,,,20,1,0,250000,,,,,,
30720,note_off,,,,,120,0,2,,,0,,,61,64
30720,note_on,,,,,0,0,1,,,0,,,72,55
30720,note_on,,,,,0,0,2,,,0,,,58,38
30720,note_on,,,,,0,0,2,,,0,,,53,38
30720,note_off,,,,,120,0,1,,,0,,,73,64
30780,set_tempo,,,,,80,1,0,251046,,,,,,
30840,note_off,,,,,0,0,2,,,0,,,58,64
30840,note_off,,,,,120,0,1,,,0,,,72,64
30840,note_off,,,,,120,0,2,,,0,,,53,64
30840,note_on,,,,,0,0,2,,,0,,,61,34
30840,note_on,,,,,0,0,1,,,0,,,70,66
30860,set_tempo,,,,,80,1,0,254237,,,,,,
30960,note_on,,,,,0,0,2,,,0,,,53,43
30960,note_off,,,,,120,0,1,,,0,,,70,64
30960,note_off,,,,,120,0,2,,,0,,,61,64
30960,note_on,,,,,0,0,1,,,0,,,77,74
30960,note_on,,,,,0,0,2,,,0,,,58,43
31080,note_off,,,,,0,0,2,,,0,,,58,64
31080,note_on,,,,,0,0,2,,,0,,,60,32
31080,note_off,,,,,120,0,2,,,0,,,53,64
31200,note_on,,,,,0,0,1,,,0,,,65,58
31200,note_off,,,,,240,0,1,,,0,,,77,64
31200,note_on,,,,,0,0,2,,,0,,,53,39
31200,note_on,,,,,0,0,2,,,0,,,57,39
31200,note_off,,,,,120,0,2,,,0,,,60,64
31220,set_tempo,,,,,360,1,0,255319,,,,,,
31280,set_tempo,,,,,60,1,0,256410,,,,,,
31320,note_off,,,,,120,0,2,,,0,,,53,64
31320,note_off,,,,,0,0,2,,,0,,,57,64
31320,note_on,,,,,0,0,2,,,0,,,60,33
31340,set_tempo,,,,,60,1,0,257511,,,,,,
31360,set_tempo,,,,,20,1,0,258621,,,,,,
31380,note_off,,,,,180,0,1,,,0,,,65,64
31440,set_tempo,,,,,80,1,0,259740,,,,,,
31440,note_on,,,,,60,0,1,,,0,,,65,41
31440,note_off,,,,,120,0,2,,,0,,,60,64
31440,note_on,,,,,0,0,2,,,0,,,53,33
31440,note_on,,,,,0,0,2,,,0,,,57,33
31460,set_tempo,,,,,20,1,0,260870,,,,,,
31560,note_off,,,,,0,0,2,,,0,,,53,64
31560,note_on,,,,,0,0,2,,,0,,,60,38
31560,note_off,,,,,120,0,2,,,0,,,57,64
31560,note_off,,,,,120,0,1,,,0,,,65,64
31680,note_off,,,,,120,0,2,,,0,,,60,64
31680,note_on,,,,,0,0,2,,,0,,,61,58
31680,note_on,,,,,0,0,2,,,0,,,65,58
31680,note_on,,,,,120,0,1,,,0,,,77,43
31680,note_on,,,,,0,0,1,,,0,,,73,43
31800,note_off,,,,,120,0,1,,,0,,,73,64
31800,note_on,,,,,0,0,1,,,0,,,80,37
31800,note_off,,,,,0,0,1,,,0,,,77,64
31880,set_tempo,,,,,420,1,0,259740,,,,,,
31920,note_on,,,,,0,0,1,,,0,,,73,49
31920,set_tempo,,,,,40,1,0,258621,,,,,,
31920,note_off,,,,,240,0,2,,,0,,,65,64
31920,note_on,,,,,0,0,2,,,0,,,66,51
31920,note_off,,,,,120,0,1,,,0,,,80,64
31920,note_on,,,,,0,0,1,,,0,,,77,49
31980,set_tempo,,,,,60,1,0,257511,,,,,,
32000,set_tempo,,,,,20,1,0,256410,,,,,,
32040,note_off,,,,,0,0,1,,,0,,,77,64
32040,set_tempo,,,,,40,1,0,255319,,,,,,
32040,note_on,,,,,0,0,1,,,0,,,80,43
32040,note_off,,,,,120,0,1,,,0,,,73,64
32080,set_tempo,,,,,40,1,0,254237,,,,,,
32160,note_off,,,,,240,0,2,,,0,,,66,64
32160,note_on,,,,,0,0,2,,,0,,,65,60
32160,note_off,,,,,120,0,1,,,0,,,80,64
32160,note_on,,,,,0,0,1,,,0,,,77,59
32160,set_tempo,,,,,80,1,0,252101,,,,,,
32160,note_on,,,,,0,0,1,,,0,,,73,59
32180,set_tempo,,,,,20,1,0,251046,,,,,,
32260,set_tempo,,,,,80,1,0,250000,,,,,,
32280,note_on,,,,,0,0,1,,,0,,,80,51
32280,note_off,,,,,0,0,1,,,0,,,77,64
32280,note_off,,,,,120,0,1,,,0,,,73,64
32360,set_tempo,,,,,100,1,0,248963,,,,,,
32400,note_off,,,,,240,0,2,,,0,,,65,64
32400,note_on,,,,,0,0,1,,,0,,,82,67
32400,note_off,,,,,120,0,1,,,0,,,80,64
32400,note_on,,,,,0,0,2,,,0,,,63,69
32400,note_on,,,,,0,0,2,,,0,,,54,69
32400,note_off,,,,,0,0,2,,,0,,,61,64
32400,note_on,,,,,0,0,1,,,0,,,73,67
32520,note_off,,,,,120,0,1,,,0,,,73,64
32520,note_on,,,,,0,0,1,,,0,,,85,58
32520,note_off,,,,,0,0,1,,,0,,,82,64
32640,note_on,,,,,0,0,2,,,0,,,58,60
32640,note_on,,,,,0,0,1,,,0,,,82,65
32640,note_on,,,,,0,0,1,,,0,,,73,65
32640,note_off,,,,,240,0,2,,,0,,,63,64
32640,note_off,,,,,120,0,1,,,0,,,85,64
32680,set_tempo,,,,,320,1,0,245902,,,,,,
32720,set_tempo,,,,,40,1,0,243902,,,,,,
32760,note_off,,,,,120,0,1,,,0,,,73,64
32760,note_off,,,,,0,0,1,,,0,,,82,64
32760,note_on,,,,,0,0,1,,,0,,,85,56
32780,set_tempo,,,,,60,1,0,242915,,,,,,
32860,set_tempo,,,,,80,1,0,241935,,,,,,
32880,note_on,,,,,0,0,1,,,0,,,73,65
32880,note_on,,,,,0,0,1,,,0,,,82,65
32880,note_off,,,,,120,0,1,,,0,,,85,64
32880,note_off,,,,,240,0,2,,,0,,,58,64
32880,note_on,,,,,0,0,2,,,0,,,60,57
33000,note_on,,,,,0,0,1,,,0,,,85,53
33000,note_off,,,,,0,0,1,,,0,,,82,64
33000,note_off,,,,,120,0,1,,,0,,,73,64
33060,note_off,,,,,180,0,2,,,0,,,60,64
33060,note_on,,,,,0,0,2,,,0,,,63,66
33090,note_off,,,,,30,0,2,,,0,,,63,64
33100,set_tempo,,,,,240,1,0,454545,,,,,,
33120,note_off,,,,,120,0,1,,,0,,,85,64
33120,note_on,,,,,0,0,1,,,0,,,77,57
33120,note_on,,,,,0,0,1,,,0,,,73,57
33120,note_on,,,,,0,0,2,,,0,,,61,68
33120,note_on,,,,,0,0,2,,,0,,,56,68
33120,note_off,,,,,30,0,2,,,0,,,54,64
33140,set_tempo,,,,,40,1,0,241935,,,,,,
33240,note_off,,,,,120,0,1,,,0,,,73,64
33240,note_off,,,,,0,0,1,,,0,,,77,64
33240,note_on,,,,,0,0,1,,,0,,,80,42
33340,set_tempo,,,,,200,1,0,242915,,,,,,
33360,note_on,,,,,0,0,1,,,0,,,73,48
33360,note_off,,,,,120,0,1,,,0,,,80,64
33360,note_on,,,,,0,0,1,,,0,,,77,48
33360,note_on,,,,,0,0,2,,,0,,,60,56
33360,note_off,,,,,240,0,2,,,0,,,61,64
33380,set_tempo,,,,,40,1,0,243902,,,,,,
33420,set_tempo,,,,,40,1,0,245902,,,,,,
33480,set_tempo,,,,,60,1,0,246914,,,,,,
33480,note_off,,,,,0,0,1,,,0,,,77,64
33480,note_off,,,,,120,0,1,,,0,,,73,64
33480,note_on,,,,,0,0,1,,,0,,,80,37
33560,set_tempo,,,,,80,1,0,247934,,,,,,
33600,note_on,,,,,0,0,2,,,0,,,61,45
33600,note_off,,,,,240,0,2,,,0,,,60,64
33600,note_on,,,,,0,0,1,,,0,,,73,39
33600,note_on,,,,,0,0,1,,,0,,,77,39
33600,note_off,,,,,120,0,1,,,0,,,80,64
33640,set_tempo,,,,,80,1,0,248963,,,,,,
33660,set_tempo,,,,,20,1,0,250000,,,,,,
33720,note_off,,,,,120,0,1,,,0,,,73,64
33720,note_off,,,,,0,0,1,,,0,,,77,64
33720,note_on,,,,,0,0,1,,,0,,,80,32
33720,set_tempo,,,,,60,1,0,251046,,,,,,
33760,set_tempo,,,,,40,1,0,252101,,,,,,
33820,set_tempo,,,,,60,1,0,254237,,,,,,
33840,note_off,,,,,120,0,1,,,0,,,80,64
33840,note_on,,,,,0,0,2,,,0,,,63,52
33840,note_on,,,,,0,0,1,,,0,,,72,42
33840,note_on,,,,,0,0,1,,,0,,,78,42
33840,note_off,,,,,240,0,2,,,0,,,61,64
33860,set_tempo,,,,,40,1,0,255319,,,,,,
33880,set_tempo,,,,,20,1,0,256410,,,,,,
33920,set_tempo,,,,,40,1,0,257511,,,,,,
33960,set_tempo,,,,,40,1,0,258621,,,,,,
33960,note_on,,,,,0,0,1,,,0,,,80,31
33960,note_off,,,,,0,0,1,,,0,,,78,64
33960,note_off,,,,,120,0,1,,,0,,,72,64
34000,set_tempo,,,,,40,1,0,260870,,,,,,
34040,set_tempo,,,,,40,1,0,263158,,,,,,
34060,set_tempo,,,,,20,1,0,264317,,,,,,
34080,note_on,,,,,0,0,1,,,0,,,72,39
34080,note_on,,,,,0,0,1,,,0,,,78,39
34080,note_off,,,,,120,0,1,,,0,,,80,64
34180,set_tempo,,,,,120,1,0,265487,,,,,,
34200,set_tempo,,,,,20,1,0,266667,,,,,,
34200,note_off,,,,,120,0,1,,,0,,,72,64
34200,note_off,,,,,0,0,1,,,0,,,78,64
34200,note_on,,,,,0,0,1,,,0,,,80,31
34280,set_tempo,,,,,80,1,0,267857,,,,,,
34320,note_on,,,,,0,0,2,,,0,,,64,39
34320,note_off,,,,,120,0,1,,,0,,,80,64
34320,note_off,,,,,480,0,2,,,0,,,63,64
34320,note_on,,,,,0,0,1,,,0,,,78,39
34320,note_on,,,,,0,0,1,,,0,,,72,39
34340,set_tempo,,,,,60,1,0,271493,,,,,,
34360,set_tempo,,,,,20,1,0,272727,,,,,,
34440,note_off,,,,,0,0,1,,,0,,,78,64
34440,note_on,,,,,0,0,1,,,0,,,80,35
34440,set_tempo,,,,,80,1,0,281690,,,,,,
34440,note_off,,,,,120,0,1,,,0,,,72,64
34460,set_tempo,,,,,20,1,0,283019,,,,,,
34500,set_tempo,,,,,40,1,0,284360,,,,,,
34530,note_off,,,,,90,0,1,,,0,,,80,64
34560,set_tempo,,,,,60,1,0,285714,,,,,,
34560,note_off,,,,,240,0,2,,,0,,,64,64
34560,note_off,,,,,0,0,2,,,0,,,56,64
34560,note_on,,,,,0,0,2,,,0,,,65,33
34560,note_on,,,,,0,0,2,,,0,,,61,33
34560,note_on,,,,,30,0,1,,,0,,,80,33
34560,note_on,,,,,0,0,1,,,0,,,73,33
34560,note_on,,,,,0,0,1,,,0,,,77,33
34580,set_tempo,,,,,20,1,0,402685,,,,,,
34600,set_tempo,,,,,20,1,0,317460,,,,,,
34620,set_tempo,,,,,20,1,0,312500,,,,,,
34640,set_tempo,,,,,20,1,0,287081,,,,,,
34660,set_tempo,,,,,20,1,0,285714,,,,,,
34680,set_tempo,,,,,20,1,0,284360,,,,,,
34680,note_off,,,,,0,0,1,,,0,,,77,64
34680,note_off,,,,,120,0,1,,,0,,,73,64
34680,note_off,,,,,0,0,1,,,0,,,80,64
34700,set_tempo,,,,,20,1,0,283019,,,,,,
34720,set_tempo,,,,,20,1,0,281690,,,,,,
34740,note_off,,,,,0,0,2,,,0,,,65,64
34740,note_off,,,,,180,0,2,,,0,,,61,64
34760,set_tempo,,,,,40,1,0,279070,,,,,,
34780,set_tempo,,,,,20,1,0,277778,,,,,,
34800,note_on,,,,,60,0,2,,,0,,,49,26
34800,set_tempo,,,,,20,1,0,276498,,,,,,
34860,set_tempo,,,,,60,1,0,275229,,,,,,
34880,set_tempo,,,,,20,1,0,273973,,,,,,
34980,note_off,,,,,180,0,2,,,0,,,49,64
35000,set_tempo,,,,,120,1,0,272727,,,,,,
35020,set_tempo,,,,,20,1,0,271493,,,,,,
35040,note_on,,,,,60,0,2,,,0,,,49,20
35060,set_tempo,,,,,40,1,0,269058,,,,,,
35080,set_tempo,,,,,20,1,0,267857,,,,,,
35140,set_tempo,,,,,60,1,0,266667,,,,,,
35160,set_tempo,,,,,20,1,0,265487,,,,,,
35220,note_off,,,,,180,0,2,,,0,,,49,64
35280,set_tempo,,,,,120,1,0,264317,,,,,,
35280,note_on,,,,,0,0,2,,,0,,,61,35
35280,note_on,,,,,60,0,2,,,0,,,65,35
35320,set_tempo,,,,,40,1,0,263158,,,,,,
35340,set_tempo,,,,,20,1,0,260870,,,,,,
35380,set_tempo,,,,,40,1,0,259740,,,,,,
35440,set_tempo,,,,,60,1,0,258621,,,,,,
35460,note_off,,,,,0,0,2,,,0,,,65,64
35460,note_off,,,,,180,0,2,,,0,,,61,64
35500,set_tempo,,,,,60,1,0,257511,,,,,,
35520,note_on,,,,,60,0,2,,,0,,,49,24
35540,set_tempo,,,,,40,1,0,256410,,,,,,
35660,set_tempo,,,,,120,1,0,255319,,,,,,
35700,note_off,,,,,180,0,2,,,0,,,49,64
35760,note_on,,,,,60,0,2,,,0,,,49,19
35760,set_tempo,,,,,100,1,0,254237,,,,,,
35860,set_tempo,,,,,100,1,0,252101,,,,,,
35940,note_off,,,,,180,0,2,,,0,,,49,64
36000,note_on,,,,,0,0,2,,,0,,,61,40
36000,note_on,,,,,60,0,2,,,0,,,65,40
36000,note_on,,,,,1320,0,1,,,0,,,73,43
36020,note_on,,,,,20,0,1,,,0,,,77,43
36040,note_on,,,,,20,0,1,,,0,,,80,43
36080,set_tempo,,,,,220,1,0,251046,,,,,,
36180,note_off,,,,,0,0,2,,,0,,,65,64
36180,note_off,,,,,180,0,2,,,0,,,61,64
36180,note_off,,,,,140,0,1,,,0,,,73,64
36200,note_off,,,,,20,0,1,,,0,,,77,64
36220,note_off,,,,,20,0,1,,,0,,,80,64
36240,note_on,,,,,20,0,1,,,0,,,78,31
36240,note_on,,,,,60,0,2,,,0,,,49,31
36330,note_off,,,,,90,0,1,,,0,,,78,64
36360,note_on,,,,,30,0,1,,,0,,,77,28
36420,note_off,,,,,180,0,2,,,0,,,49,64
36450,note_off,,,,,90,0,1,,,0,,,77,64
36480,note_on,,,,,60,0,2,,,0,,,49,24
36480,note_on,,,,,30,0,1,,,0,,,75,25
36570,note_off,,,,,90,0,1,,,0,,,75,64
36600,note_on,,,,,30,0,1,,,0,,,73,22
36660,note_off,,,,,180,0,2,,,0,,,49,64
36690,note_off,,,,,90,0,1,,,0,,,73,64
36720,note_on,,,,,0,0,2,,,0,,,61,40
36720,note_on,,,,,60,0,2,,,0,,,66,40
36720,note_on,,,,,30,0,1,,,0,,,68,44
36740,note_on,,,,,20,0,1,,,0,,,72,44
36760,note_on,,,,,20,0,1,,,0,,,75,44
36900,note_off,,,,,0,0,2,,,0,,,66,64
36900,note_off,,,,,180,0,2,,,0,,,61,64
36900,note_off,,,,,140,0,1,,,0,,,68,64
36920,note_off,,,,,20,0,1,,,0,,,72,64
36940,note_off,,,,,20,0,1,,,0,,,75,64
36960,note_on,,,,,20,0,1,,,0,,,73,36
36960,note_on,,,,,60,0,2,,,0,,,49,31
37050,note_off,,,,,90,0,1,,,0,,,73,64
37080,note_on,,,,,30,0,1,,,0,,,72,32
37140,note_off,,,,,180,0,2,,,0,,,49,64
37170,note_off,,,,,90,0,1,,,0,,,72,64
37200,note_on,,,,,30,0,1,,,0,,,70,27
37200,note_on,,,,,60,0,2,,,0,,,49,24
37290,note_off,,,,,90,0,1,,,0,,,70,64
37320,note_on,,,,,30,0,1,,,0,,,68,22
37380,note_off,,,,,180,0,2,,,0,,,49,64
37410,note_off,,,,,90,0,1,,,0,,,68,64
37440,note_on,,,,,30,0,1,,,0,,,73,46
37440,note_on,,,,,60,0,2,,,0,,,65,40
37440,note_on,,,,,0,0,2,,,0,,,61,40
37460,note_on,,,,,20,0,1,,,0,,,77,46
37480,note_on,,,,,20,0,1,,,0,,,80,46
37620,note_off,,,,,180,0,2,,,0,,,61,64
37620,note_off,,,,,0,0,2,,,0,,,65,64
37620,note_off,,,,,140,0,1,,,0,,,73,64
37640,note_off,,,,,20,0,1,,,0,,,77,64
37660,note_off,,,,,20,0,1,,,0,,,80,64
37680,note_on,,,,,60,0,2,,,0,,,49,41
37680,note_on,,,,,20,0,1,,,0,,,78,31
37770,note_off,,,,,90,0,1,,,0,,,78,64
37800,note_on,,,,,30,0,1,,,0,,,77,38
37860,note_off,,,,,180,0,2,,,0,,,49,64
37890,note_off,,,,,90,0,1,,,0,,,77,64
37920,note_on,,,,,30,0,1,,,0,,,75,47
37920,note_on,,,,,60,0,2,,,0,,,49,57
38010,note_off,,,,,90,0,1,,,0,,,75,64
38040,note_on,,,,,30,0,1,,,0,,,73,53
38100,note_off,,,,,180,0,2,,,0,,,49,64
38130,note_off,,,,,90,0,1,,,0,,,73,64
38160,note_on,,,,,0,0,2,,,0,,,61,79
38160,note_on,,,,,60,0,2,,,0,,,66,79
38160,note_on,,,,,0,0,1,,,0,,,78,76
38160,note_on,,,,,0,0,1,,,0,,,82,76
38160,note_on,,,,,30,0,1,,,0,,,85,76
38340,note_off,,,,,0,0,2,,,0,,,66,64
38340,note_off,,,,,0,0,1,,,0,,,85,64
38340,note_off,,,,,0,0,1,,,0,,,82,64
38340,note_off,,,,,180,0,1,,,0,,,78,64
38340,note_off,,,,,180,0,2,,,0,,,61,64
38400,note_on,,,,,60,0,2,,,0,,,49,44
38400,note_on,,,,,0,0,1,,,0,,,82,37
38400,note_on,,,,,60,0,1,,,0,,,85,37
38400,note_on,,,,,0,0,1,,,0,,,78,37
38580,note_off,,,,,180,0,2,,,0,,,49,64
38580,note_off,,,,,180,0,1,,,0,,,78,64
38580,note_off,,,,,0,0,1,,,0,,,85,64
38580,note_off,,,,,0,0,1,,,0,,,82,64
38640,note_on,,,,,0,0,1,,,0,,,82,26
38640,note_on,,,,,60,0,2,,,0,,,49,38
38640,note_on,,,,,0,0,1,,,0,,,78,26
38640,note_on,,,,,60,0,1,,,0,,,85,26
38820,note_off,,,,,180,0,2,,,0,,,49,64
38820,set_tempo,,,,,2740,1,0,250000,,,,,,
38820,note_off,,,,,0,0,1,,,0,,,85,64
38820,note_off,,,,,0,0,1,,,0,,,82,64
38820,note_off,,,,,180,0,1,,,0,,,78,64
38880,note_on,,,,,60,0,2,,,0,,,61,44
38880,note_on,,,,,0,0,2,,,0,,,58,44
38880,note_on,,,,,0,0,2,,,0,,,66,44
39060,note_off,,,,,180,0,2,,,0,,,66,64
39060,note_off,,,,,0,0,2,,,0,,,58,64
39060,note_off,,,,,0,0,2,,,0,,,61,64
39120,note_on,,,,,60,0,2,,,0,,,49,35
39300,note_off,,,,,180,0,2,,,0,,,49,64
39360,note_on,,,,,60,0,2,,,0,,,49,30
39540,note_off,,,,,180,0,2,,,0,,,49,64
39600,note_on,,,,,0,0,2,,,0,,,61,39
39600,note_on,,,,,0,0,2,,,0,,,58,39
39600,note_on,,,,,60,0,2,,,0,,,66,39
39780,note_off,,,,,0,0,2,,,0,,,61,64
39780,note_off,,,,,180,0,2,,,0,,,58,64
39780,note_off,,,,,0,0,2,,,0,,,66,64
39840,note_on,,,,,60,0,2,,,0,,,49,30
40020,note_off,,,,,180,0,2,,,0,,,49,64
40080,note_on,,,,,60,0,2,,,0,,,49,24
40240,set_tempo,,,,,1420,1,0,251046,,,,,,
40260,note_off,,,,,180,0,2,,,0,,,49,64
40320,note_on,,,,,1500,0,1,,,0,,,65,41
40320,note_on,,,,,60,0,2,,,0,,,56,35
40320,note_on,,,,,0,0,2,,,0,,,61,35
40440,set_tempo,,,,,200,1,0,252101,,,,,,
40500,note_off,,,,,0,0,2,,,0,,,56,64
40500,note_off,,,,,180,0,2,,,0,,,61,64
40560,note_on,,,,,60,0,2,,,0,,,49,29
40560,note_off,,,,,240,0,1,,,0,,,65,64
40560,note_on,,,,,0,0,1,,,0,,,66,31
40680,set_tempo,,,,,240,1,0,254237,,,,,,
40700,set_tempo,,,,,20,1,0,255319,,,,,,
40740,note_off,,,,,180,0,2,,,0,,,49,64
40800,note_on,,,,,60,0,2,,,0,,,49,20
40800,note_off,,,,,240,0,1,,,0,,,66,64
40800,note_on,,,,,0,0,1,,,0,,,65,34
40980,set_tempo,,,,,280,1,0,256410,,,,,,
40980,note_off,,,,,180,0,2,,,0,,,49,64
41040,note_on,,,,,60,0,2,,,0,,,58,35
41040,note_on,,,,,0,0,1,,,0,,,63,41
41040,note_on,,,,,0,0,2,,,0,,,54,35
41040,note_off,,,,,240,0,1,,,0,,,65,64
41220,note_off,,,,,0,0,2,,,0,,,58,64
41220,note_off,,,,,180,0,2,,,0,,,54,64
41260,set_tempo,,,,,280,1,0,257511,,,,,,
41280,note_off,,,,,240,0,1,,,0,,,63,64
41280,note_on,,,,,0,0,1,,,0,,,65,30
41280,note_on,,,,,60,0,2,,,0,,,42,28
41400,note_on,,,,,0,0,1,,,0,,,66,32
41400,note_off,,,,,120,0,1,,,0,,,65,64
41420,set_tempo,,,,,160,1,0,258621,,,,,,
41460,note_off,,,,,180,0,2,,,0,,,42,64
41520,note_on,,,,,0,0,1,,,0,,,68,37
41520,note_off,,,,,120,0,1,,,0,,,66,64
41520,note_on,,,,,60,0,2,,,0,,,42,21
41640,note_off,,,,,120,0,1,,,0,,,68,64
41640,note_on,,,,,0,0,1,,,0,,,70,43
41700,note_off,,,,,180,0,2,,,0,,,42,64
41720,set_tempo,,,,,300,1,0,259740,,,,,,
41760,note_on,,,,,0,0,2,,,0,,,63,40
41760,note_on,,,,,60,0,2,,,0,,,66,40
41760,note_off,,,,,120,0,1,,,0,,,70,64
41760,note_on,,,,,0,0,1,,,0,,,72,47
41940,note_off,,,,,0,0,2,,,0,,,66,64
41940,note_off,,,,,180,0,2,,,0,,,63,64
42000,note_on,,,,,60,0,2,,,0,,,56,31
42000,note_off,,,,,240,0,1,,,0,,,72,64
42000,note_on,,,,,0,0,1,,,0,,,70,30
42120,note_on,,,,,0,0,1,,,0,,,72,34
42120,note_off,,,,,120,0,1,,,0,,,70,64
42120,set_tempo,,,,,400,1,0,260870,,,,,,
42180,note_off,,,,,180,0,2,,,0,,,56,64
42240,note_on,,,,,60,0,2,,,0,,,56,24
42240,note_off,,,,,120,0,1,,,0,,,72,64
42240,note_on,,,,,0,0,1,,,0,,,73,37
42320,set_tempo,,,,,200,1,0,263158,,,,,,
42360,note_on,,,,,0,0,1,,,0,,,75,45
42360,note_off,,,,,120,0,1,,,0,,,73,64
42420,note_off,,,,,180,0,2,,,0,,,56,64
42460,set_tempo,,,,,140,1,0,264317,,,,,,
42480,note_off,,,,,120,0,1,,,0,,,75,64
42480,note_on,,,,,0,0,1,,,0,,,77,53
42480,note_on,,,,,60,0,2,,,0,,,61,40
42480,note_on,,,,,0,0,2,,,0,,,65,40
42540,set_tempo,,,,,80,1,0,263158,,,,,,
42660,note_off,,,,,180,0,1,,,0,,,77,64
42660,note_off,,,,,0,0,2,,,0,,,61,64
42660,note_off,,,,,180,0,2,,,0,,,65,64
42700,set_tempo,,,,,160,1,0,260870,,,,,,
42720,note_on,,,,,60,0,2,,,0,,,49,31
42720,note_on,,,,,60,0,1,,,0,,,77,36
42900,note_off,,,,,180,0,1,,,0,,,77,64
42900,note_off,,,,,180,0,2,,,0,,,49,64
42900,set_tempo,,,,,200,1,0,259740,,,,,,
42960,note_on,,,,,60,0,2,,,0,,,49,24
42960,note_on,,,,,60,0,1,,,0,,,77,29
43120,set_tempo,,,,,220,1,0,258621,,,,,,
43140,note_off,,,,,180,0,2,,,0,,,49,64
43140,note_off,,,,,180,0,1,,,0,,,77,64
43200,note_on,,,,,0,0,2,,,0,,,65,40
43200,note_on,,,,,60,0,2,,,0,,,61,40
43240,set_tempo,,,,,120,1,0,257511,,,,,,
43380,note_off,,,,,180,0,2,,,0,,,65,64
43380,note_off,,,,,0,0,2,,,0,,,61,64
43440,note_on,,,,,60,0,2,,,0,,,49,31
43480,set_tempo,,,,,240,1,0,256410,,,,,,
43620,set_tempo,,,,,140,1,0,255319,,,,,,
43620,note_off,,,,,180,0,2,,,0,,,49,64
43680,note_on,,,,,60,0,2,,,0,,,49,24
43820,set_tempo,,,,,200,1,0,254237,,,,,,
43860,note_off,,,,,180,0,2,,,0,,,49,64
43900,set_tempo,,,,,80,1,0,252101,,,,,,
43920,note_on,,,,,0,0,2,,,0,,,61,35
43920,note_on,,,,,60,0,2,,,0,,,65,35
44100,note_off,,,,,0,0,2,,,0,,,65,64
44100,note_off,,,,,180,0,2,,,0,,,61,64
44160,note_on,,,,,60,0,2,,,0,,,49,30
44160,set_tempo,,,,,260,1,0,251046,,,,,,
44280,set_tempo,,,,,120,1,0,250000,,,,,,
44340,note_off,,,,,180,0,2,,,0,,,49,64
44400,note_on,,,,,60,0,2,,,0,,,49,21
44580,note_off,,,,,180,0,2,,,0,,,49,64
44640,set_tempo,,,,,360,1,0,248963,,,,,,
44640,note_on,,,,,60,0,2,,,0,,,61,40
44640,note_on,,,,,0,0,2,,,0,,,65,40
44640,note_on,,,,,1500,0,1,,,0,,,73,43
44660,note_on,,,,,20,0,1,,,0,,,77,43
44680,note_on,,,,,20,0,1,,,0,,,80,43
44820,note_off,,,,,0,0,2,,,0,,,61,64
44820,note_off,,,,,180,0,2,,,0,,,65,64
44820,note_off,,,,,140,0,1,,,0,,,73,64
44840,note_off,,,,,20,0,1,,,0,,,77,64
44860,note_off,,,,,20,0,1,,,0,,,80,64
44880,note_on,,,,,20,0,1,,,0,,,78,31
44880,note_on,,,,,60,0,2,,,0,,,49,31
44970,note_off,,,,,90,0,1,,,0,,,78,64
45000,note_on,,,,,30,0,1,,,0,,,77,28
45060,note_off,,,,,180,0,2,,,0,,,49,64
45090,note_off,,,,,90,0,1,,,0,,,77,64
45120,note_on,,,,,30,0,1,,,0,,,75,25
45120,note_on,,,,,60,0,2,,,0,,,49,24
45210,note_off,,,,,90,0,1,,,0,,,75,64
45240,note_on,,,,,30,0,1,,,0,,,73,22
45300,note_off,,,,,180,0,2,,,0,,,49,64
45330,note_off,,,,,90,0,1,,,0,,,73,64
45360,note_on,,,,,60,0,2,,,0,,,61,35
45360,note_on,,,,,30,0,1,,,0,,,68,44
45360,note_on,,,,,0,0,2,,,0,,,66,35
45380,note_on,,,,,20,0,1,,,0,,,72,44
45400,note_on,,,,,20,0,1,,,0,,,75,44
45540,note_off,,,,,140,0,1,,,0,,,68,64
45540,note_off,,,,,180,0,2,,,0,,,66,64
45540,note_off,,,,,0,0,2,,,0,,,61,64
45560,note_off,,,,,20,0,1,,,0,,,72,64
45580,note_off,,,,,20,0,1,,,0,,,75,64
45600,note_on,,,,,60,0,2,,,0,,,49,29
45600,note_on,,,,,20,0,1,,,0,,,73,36
45690,note_off,,,,,90,0,1,,,0,,,73,64
45720,note_on,,,,,30,0,1,,,0,,,72,32
45780,note_off,,,,,180,0,2,,,0,,,49,64
45810,note_off,,,,,90,0,1,,,0,,,72,64
45840,note_on,,,,,30,0,1,,,0,,,70,27
45840,note_on,,,,,60,0,2,,,0,,,49,20
45930,note_off,,,,,90,0,1,,,0,,,70,64
45960,note_on,,,,,30,0,1,,,0,,,68,22
46020,note_off,,,,,180,0,2,,,0,,,49,64
46050,note_off,,,,,90,0,1,,,0,,,68,64
46080,note_on,,,,,30,0,1,,,0,,,73,46
46080,note_on,,,,,0,0,2,,,0,,,61,35
46080,note_on,,,,,60,0,2,,,0,,,65,35
46100,note_on,,,,,20,0,1,,,0,,,77,46
46120,note_on,,,,,20,0,1,,,0,,,80,46
46160,set_tempo,,,,,1520,1,0,251046,,,,,,
46200,set_tempo,,,,,40,1,0,252101,,,,,,
46260,note_off,,,,,140,0,1,,,0,,,73,64
46260,note_off,,,,,0,0,2,,,0,,,65,64
46260,note_off,,,,,180,0,2,,,0,,,61,64
46280,note_off,,,,,20,0,1,,,0,,,77,64
46300,note_off,,,,,20,0,1,,,0,,,80,64
46300,set_tempo,,,,,100,1,0,254237,,,,,,
46320,set_tempo,,,,,20,1,0,255319,,,,,,
46320,note_on,,,,,60,0,2,,,0,,,49,39
46320,note_on,,,,,20,0,1,,,0,,,78,31
46360,set_tempo,,,,,40,1,0,256410,,,,,,
46380,set_tempo,,,,,20,1,0,257511,,,,,,
46400,set_tempo,,,,,20,1,0,258621,,,,,,
46410,note_off,,,,,90,0,1,,,0,,,78,64
46420,set_tempo,,,,,20,1,0,259740,,,,,,
46440,set_tempo,,,,,20,1,0,260870,,,,,,
46440,note_on,,,,,30,0,1,,,0,,,77,38
46460,set_tempo,,,,,20,1,0,263158,,,,,,
46480,set_tempo,,,,,20,1,0,264317,,,,,,
46500,note_off,,,,,180,0,2,,,0,,,49,64
46500,set_tempo,,,,,20,1,0,266667,,,,,,
46530,note_off,,,,,90,0,1,,,0,,,77,64
46540,set_tempo,,,,,40,1,0,267857,,,,,,
46560,set_tempo,,,,,20,1,0,271493,,,,,,
46560,note_on,,,,,60,0,2,,,0,,,49,51
46560,note_on,,,,,30,0,1,,,0,,,75,47
46580,set_tempo,,,,,20,1,0,279070,,,,,,
46650,note_off,,,,,90,0,1,,,0,,,75,64
46680,note_on,,,,,30,0,1,,,0,,,73,53
46700,set_tempo,,,,,120,1,0,292683,,,,,,
46720,set_tempo,,,,,20,1,0,295567,,,,,,
46740,note_off,,,,,180,0,2,,,0,,,49,64
46740,set_tempo,,,,,20,1,0,298507,,,,,,
46760,set_tempo,,,,,20,1,0,310881,,,,,,
46770,note_off,,,,,90,0,1,,,0,,,73,64
46780,set_tempo,,,,,20,1,0,320856,,,,,,
46800,note_on,,,,,30,0,1,,,0,,,85,76
46800,note_on,,,,,0,0,1,,,0,,,78,76
46800,note_on,,,,,0,0,1,,,0,,,81,76
46800,note_on,,,,,60,0,2,,,0,,,66,76
46800,note_on,,,,,0,0,2,,,0,,,61,76
46800,set_tempo,,,,,20,1,0,317460,,,,,,
46820,set_tempo,,,,,20,1,0,315789,,,,,,
46840,set_tempo,,,,,20,1,0,310881,,,,,,
46860,set_tempo,,,,,20,1,0,306122,,,,,,
46880,set_tempo,,,,,20,1,0,303030,,,,,,
46900,set_tempo,,,,,20,1,0,298507,,,,,,
46940,set_tempo,,,,,40,1,0,288462,,,,,,
46960,set_tempo,,,,,20,1,0,285714,,,,,,
46980,set_tempo,,,,,20,1,0,283019,,,,,,
46980,note_off,,,,,0,0,1,,,0,,,85,64
46980,note_off,,,,,0,0,1,,,0,,,81,64
46980,note_off,,,,,180,0,1,,,0,,,78,64
46980,note_off,,,,,0,0,2,,,0,,,66,64
46980,note_off,,,,,180,0,2,,,0,,,61,64
47000,set_tempo,,,,,20,1,0,281690,,,,,,
47020,set_tempo,,,,,20,1,0,277778,,,,,,
47040,note_on,,,,,60,0,2,,,0,,,49,53
47040,set_tempo,,,,,20,1,0,275229,,,,,,
47040,note_on,,,,,0,0,1,,,0,,,78,37
47040,note_on,,,,,0,0,1,,,0,,,81,37
47040,note_on,,,,,60,0,1,,,0,,,85,37
47060,set_tempo,,,,,20,1,0,273973,,,,,,
47080,set_tempo,,,,,20,1,0,272727,,,,,,
47100,set_tempo,,,,,20,1,0,271493,,,,,,
47120,set_tempo,,,,,20,1,0,269058,,,,,,
47140,set_tempo,,,,,20,1,0,267857,,,,,,
47180,set_tempo,,,,,40,1,0,265487,,,,,,
47200,set_tempo,,,,,20,1,0,264317,,,,,,
47220,note_off,,,,,0,0,1,,,0,,,81,64
47220,note_off,,,,,180,0,1,,,0,,,78,64
47220,note_off,,,,,180,0,2,,,0,,,49,64
47220,set_tempo,,,,,20,1,0,263158,,,,,,
47220,note_off,,,,,0,0,1,,,0,,,85,64
47280,set_tempo,,,,,60,1,0,259740,,,,,,
47280,note_on,,,,,0,0,1,,,0,,,78,26
47280,note_on,,,,,0,0,1,,,0,,,81,26
47280,note_on,,,,,60,0,1,,,0,,,85,26
47280,note_on,,,,,60,0,2,,,0,,,49,34
47460,note_off,,,,,0,0,1,,,0,,,85,64
47460,note_off,,,,,0,0,1,,,0,,,81,64
47460,note_off,,,,,180,0,1,,,0,,,78,64
47460,note_off,,,,,180,0,2,,,0,,,49,64
47520,note_on,,,,,0,0,2,,,0,,,57,36
47520,note_on,,,,,0,0,2,,,0,,,66,36
47520,note_on,,,,,60,0,2,,,0,,,61,36
47680,set_tempo,,,,,400,1,0,258621,,,,,,
47700,note_off,,,,,0,0,2,,,0,,,61,64
47700,note_off,,,,,0,0,2,,,0,,,66,64
47700,note_off,,,,,180,0,2,,,0,,,57,64
47740,set_tempo,,,,,60,1,0,257511,,,,,,
47760,note_on,,,,,60,0,2,,,0,,,54,28
47860,set_tempo,,,,,120,1,0,256410,,,,,,
47940,note_off,,,,,180,0,2,,,0,,,54,64
47980,set_tempo,,,,,120,1,0,255319,,,,,,
48000,note_on,,,,,60,0,2,,,0,,,54,20
48140,set_tempo,,,,,160,1,0,254237,,,,,,
48180,note_off,,,,,180,0,2,,,0,,,54,64
48220,set_tempo,,,,,80,1,0,252101,,,,,,
48240,note_on,,,,,60,0,2,,,0,,,61,36
48240,note_on,,,,,0,0,2,,,0,,,66,36
48240,note_on,,,,,0,0,2,,,0,,,57,36
48360,set_tempo,,,,,140,1,0,251046,,,,,,
48420,note_off,,,,,0,0,2,,,0,,,61,64
48420,note_off,,,,,0,0,2,,,0,,,66,64
48420,note_off,,,,,180,0,2,,,0,,,57,64
48480,note_on,,,,,60,0,2,,,0,,,54,30
48500,set_tempo,,,,,140,1,0,250000,,,,,,
48660,note_off,,,,,180,0,2,,,0,,,54,64
48720,note_on,,,,,60,0,2,,,0,,,54,21
48900,note_off,,,,,180,0,2,,,0,,,54,64
48960,note_on,,,,,60,0,2,,,0,,,66,35
48960,note_on,,,,,0,0,2,,,0,,,61,35
48960,note_on,,,,,0,0,2,,,0,,,57,35
48960,note_on,,,,,1500,0,1,,,0,,,73,41
49140,note_off,,,,,0,0,2,,,0,,,61,64
49140,note_off,,,,,180,0,2,,,0,,,57,64
49140,note_off,,,,,0,0,2,,,0,,,66,64
49200,note_on,,,,,60,0,2,,,0,,,54,25
49200,note_on,,,,,0,0,1,,,0,,,74,31
49200,note_off,,,,,240,0,1,,,0,,,73,64
49380,note_off,,,,,180,0,2,,,0,,,54,64
49380,set_tempo,,,,,880,1,0,248963,,,,,,
49440,note_on,,,,,60,0,2,,,0,,,54,24
49440,note_off,,,,,240,0,1,,,0,,,74,64
49440,note_on,,,,,0,0,1,,,0,,,73,34
49620,note_off,,,,,180,0,2,,,0,,,54,64
49620,set_tempo,,,,,240,1,0,247934,,,,,,
49680,note_off,,,,,240,0,1,,,0,,,73,64
49680,note_on,,,,,0,0,1,,,0,,,71,41
49680,note_on,,,,,0,0,2,,,0,,,62,40
49680,note_on,,,,,60,0,2,,,0,,,66,40
49860,note_off,,,,,0,0,2,,,0,,,66,64
49860,note_off,,,,,180,0,2,,,0,,,62,64
49920,note_on,,,,,60,0,2,,,0,,,50,31
49920,note_off,,,,,240,0,1,,,0,,,71,64
49920,note_on,,,,,0,0,1,,,0,,,73,30
50040,note_on,,,,,0,0,1,,,0,,,74,32
50040,note_off,,,,,120,0,1,,,0,,,73,64
50100,note_off,,,,,180,0,2,,,0,,,50,64
50160,note_on,,,,,0,0,1,,,0,,,76,37
50160,note_off,,,,,120,0,1,,,0,,,74,64
50160,note_on,,,,,60,0,2,,,0,,,50,24
50280,note_on,,,,,0,0,1,,,0,,,78,43
50280,note_off,,,,,120,0,1,,,0,,,76,64
50340,note_off,,,,,180,0,2,,,0,,,50,64
50400,note_on,,,,,0,0,1,,,0,,,80,47
50400,set_tempo,,,,,780,1,0,248963,,,,,,
50400,note_on,,,,,0,0,2,,,0,,,62,40
50400,note_on,,,,,60,0,2,,,0,,,64,40
50400,note_off,,,,,120,0,1,,,0,,,78,64
50440,set_tempo,,,,,40,1,0,250000,,,,,,
50520,set_tempo,,,,,80,1,0,252101,,,,,,
50540,set_tempo,,,,,20,1,0,255319,,,,,,
50580,note_off,,,,,0,0,2,,,0,,,64,64
50580,note_off,,,,,180,0,2,,,0,,,62,64
50620,set_tempo,,,,,80,1,0,256410,,,,,,
50640,note_off,,,,,240,0,1,,,0,,,80,64
50640,note_on,,,,,0,0,1,,,0,,,78,30
50640,note_on,,,,,60,0,2,,,0,,,52,31
50660,set_tempo,,,,,40,1,0,257511,,,,,,
50680,set_tempo,,,,,20,1,0,259740,,,,,,
50760,set_tempo,,,,,80,1,0,260870,,,,,,
50760,note_on,,,,,0,0,1,,,0,,,80,34
50760,note_off,,,,,120,0,1,,,0,,,78,64
50780,set_tempo,,,,,20,1,0,264317,,,,,,
50800,set_tempo,,,,,20,1,0,265487,,,,,,
50820,set_tempo,,,,,20,1,0,266667,,,,,,
50820,note_off,,,,,180,0,2,,,0,,,52,64
50840,set_tempo,,,,,20,1,0,267857,,,,,,
50860,set_tempo,,,,,20,1,0,271493,,,,,,
50880,note_off,,,,,120,0,1,,,0,,,80,64
50880,note_on,,,,,0,0,1,,,0,,,81,37
50880,set_tempo,,,,,20,1,0,272727,,,,,,
50880,note_on,,,,,60,0,2,,,0,,,52,24
50900,set_tempo,,,,,20,1,0,273973,,,,,,
50920,set_tempo,,,,,20,1,0,276498,,,,,,
50960,set_tempo,,,,,40,1,0,277778,,,,,,
51000,note_off,,,,,120,0,1,,,0,,,81,64
51000,set_tempo,,,,,40,1,0,283019,,,,,,
51000,note_on,,,,,0,0,1,,,0,,,83,45
51040,set_tempo,,,,,40,1,0,284360,,,,,,
51060,note_off,,,,,180,0,2,,,0,,,52,64
51060,set_tempo,,,,,20,1,0,285714,,,,,,
51100,set_tempo,,,,,40,1,0,287081,,,,,,
51120,note_on,,,,,60,0,2,,,0,,,61,40
51120,note_on,,,,,0,0,2,,,0,,,64,40
51120,note_on,,,,,0,0,1,,,0,,,85,53
51120,note_off,,,,,120,0,1,,,0,,,83,64
51140,set_tempo,,,,,40,1,0,288462,,,,,,
51160,set_tempo,,,,,20,1,0,289855,,,,,,
51200,set_tempo,,,,,40,1,0,288462,,,,,,
51220,set_tempo,,,,,20,1,0,287081,,,,,,
51280,set_tempo,,,,,60,1,0,285714,,,,,,
51300,note_off,,,,,0,0,2,,,0,,,61,64
51300,note_off,,,,,180,0,2,,,0,,,64,64
51300,set_tempo,,,,,20,1,0,284360,,,,,,
51300,note_off,,,,,180,0,1,,,0,,,85,64
51340,set_tempo,,,,,40,1,0,283019,,,,,,
51360,note_on,,,,,60,0,2,,,0,,,57,31
51360,note_on,,,,,60,0,1,,,0,,,85,36
51360,set_tempo,,,,,20,1,0,281690,,,,,,
51420,set_tempo,,,,,60,1,0,279070,,,,,,
51440,set_tempo,,,,,20,1,0,277778,,,,,,
51480,set_tempo,,,,,40,1,0,276498,,,,,,
51520,set_tempo,,,,,40,1,0,275229,,,,,,
51540,note_off,,,,,180,0,1,,,0,,,85,64
51540,note_off,,,,,180,0,2,,,0,,,57,64
51560,set_tempo,,,,,40,1,0,273973,,,,,,
51600,note_on,,,,,60,0,1,,,0,,,85,29
51600,note_on,,,,,60,0,2,,,0,,,57,24
51620,set_tempo,,,,,60,1,0,271493,,,,,,
51640,set_tempo,,,,,20,1,0,269058,,,,,,
51680,set_tempo,,,,,40,1,0,267857,,,,,,
51780,note_off,,,,,180,0,2,,,0,,,57,64
51780,note_off,,,,,180,0,1,,,0,,,85,64
51800,set_tempo,,,,,120,1,0,266667,,,,,,
51840,note_on,,,,,0,0,2,,,0,,,61,40
51840,set_tempo,,,,,40,1,0,265487,,,,,,
51840,note_on,,,,,60,0,2,,,0,,,64,40
52000,set_tempo,,,,,160,1,0,263158,,,,,,
52020,set_tempo,,,,,20,1,0,260870,,,,,,
52020,note_off,,,,,180,0,2,,,0,,,61,64
52020,note_off,,,,,0,0,2,,,0,,,64,64
52080,note_on,,,,,60,0,2,,,0,,,57,31
52160,set_tempo,,,,,140,1,0,259740,,,,,,
52200,set_tempo,,,,,40,1,0,258621,,,,,,
52260,note_off,,,,,180,0,2,,,0,,,57,64
52320,set_tempo,,,,,120,1,0,257511,,,,,,
52320,note_on,,,,,60,0,2,,,0,,,57,24
52380,set_tempo,,,,,60,1,0,256410,,,,,,
52500,note_off,,,,,180,0,2,,,0,,,57,64
52560,note_on,,,,,780,0,1,,,0,,,73,41
52560,note_on,,,,,60,0,2,,,0,,,61,40
52560,note_on,,,,,0,0,2,,,0,,,64,40
52740,set_tempo,,,,,360,1,0,255319,,,,,,
52740,note_off,,,,,180,0,2,,,0,,,64,64
52740,note_off,,,,,0,0,2,,,0,,,61,64
52800,note_on,,,,,60,0,2,,,0,,,57,31
52800,note_off,,,,,240,0,1,,,0,,,73,64
52800,note_on,,,,,0,0,1,,,0,,,73,31
52820,set_tempo,,,,,80,1,0,254237,,,,,,
52980,note_off,,,,,180,0,2,,,0,,,57,64
53040,note_on,,,,,0,0,1,,,0,,,73,34
53040,note_on,,,,,60,0,2,,,0,,,57,24
53040,note_off,,,,,240,0,1,,,0,,,73,64
53060,set_tempo,,,,,240,1,0,252101,,,,,,
53100,set_tempo,,,,,40,1,0,251046,,,,,,
53180,set_tempo,,,,,80,1,0,250000,,,,,,
53220,note_off,,,,,180,0,2,,,0,,,57,64
53280,note_off,,,,,240,0,1,,,0,,,73,64
53280,note_on,,,,,0,0,1,,,0,,,73,41
53280,note_on,,,,,0,0,2,,,0,,,61,40
53280,note_on,,,,,60,0,2,,,0,,,64,40
53320,set_tempo,,,,,140,1,0,248963,,,,,,
53460,note_off,,,,,180,0,2,,,0,,,61,64
53460,note_off,,,,,0,0,2,,,0,,,64,64
53520,note_on,,,,,0,0,1,,,0,,,76,37
53520,note_off,,,,,240,0,1,,,0,,,73,64
53520,note_on,,,,,60,0,2,,,0,,,58,37
53640,note_off,,,,,120,0,1,,,0,,,76,64
53640,note_on,,,,,0,0,1,,,0,,,74,40
53660,set_tempo,,,,,340,1,0,246914,,,,,,
53700,note_off,,,,,180,0,2,,,0,,,58,64
53700,set_tempo,,,,,40,1,0,247934,,,,,,
53760,note_on,,,,,0,0,1,,,0,,,73,44
53760,note_on,,,,,60,0,2,,,0,,,58,43
53760,note_off,,,,,120,0,1,,,0,,,74,64
53820,set_tempo,,,,,120,1,0,248963,,,,,,
53880,note_off,,,,,120,0,1,,,0,,,73,64
53880,note_on,,,,,0,0,1,,,0,,,76,48
53940,note_off,,,,,180,0,2,,,0,,,58,64
53980,set_tempo,,,,,160,1,0,250000,,,,,,
54000,note_on,,,,,60,0,2,,,0,,,64,52
54000,note_on,,,,,0,0,2,,,0,,,62,52
54000,note_on,,,,,0,0,1,,,0,,,74,49
54000,note_off,,,,,120,0,1,,,0,,,76,64
54040,set_tempo,,,,,60,1,0,251046,,,,,,
54080,set_tempo,,,,,40,1,0,252101,,,,,,
54180,note_off,,,,,180,0,1,,,0,,,74,64
54180,note_off,,,,,0,0,2,,,0,,,64,64
54180,note_off,,,,,180,0,2,,,0,,,62,64
54240,note_on,,,,,60,0,1,,,0,,,74,39
54240,note_on,,,,,60,0,2,,,0,,,59,42
54260,set_tempo,,,,,180,1,0,254237,,,,,,
54340,set_tempo,,,,,80,1,0,255319,,,,,,
54400,set_tempo,,,,,60,1,0,256410,,,,,,
54420,note_off,,,,,180,0,2,,,0,,,59,64
54420,note_off,,,,,180,0,1,,,0,,,74,64
54440,set_tempo,,,,,40,1,0,257511,,,,,,
54480,note_on,,,,,60,0,2,,,0,,,59,35
54480,note_on,,,,,60,0,1,,,0,,,74,42
54540,set_tempo,,,,,100,1,0,258621,,,,,,
54600,set_tempo,,,,,60,1,0,259740,,,,,,
54660,note_off,,,,,180,0,1,,,0,,,74,64
54660,note_off,,,,,180,0,2,,,0,,,59,64
54660,set_tempo,,,,,60,1,0,260870,,,,,,
54680,set_tempo,,,,,20,1,0,263158,,,,,,
54720,note_on,,,,,0,0,2,,,0,,,62,39
54720,note_on,,,,,60,0,2,,,0,,,64,39
54720,note_on,,,,,60,0,1,,,0,,,86,53
54780,set_tempo,,,,,100,1,0,264317,,,,,,
54820,set_tempo,,,,,40,1,0,265487,,,,,,
54860,set_tempo,,,,,40,1,0,266667,,,,,,
54900,note_off,,,,,180,0,2,,,0,,,62,64
54900,set_tempo,,,,,40,1,0,267857,,,,,,
54900,note_off,,,,,180,0,1,,,0,,,86,64
54900,note_off,,,,,0,0,2,,,0,,,64,64
54960,note_on,,,,,60,0,1,,,0,,,86,36
54960,note_on,,,,,60,0,2,,,0,,,59,36
55040,set_tempo,,,,,140,1,0,269058,,,,,,
55100,set_tempo,,,,,60,1,0,271493,,,,,,
55140,note_off,,,,,180,0,1,,,0,,,86,64
55140,note_off,,,,,180,0,2,,,0,,,59,64
55200,note_on,,,,,60,0,2,,,0,,,59,31
55200,note_on,,,,,60,0,1,,,0,,,86,29
55280,set_tempo,,,,,180,1,0,272727,,,,,,
55380,note_off,,,,,180,0,1,,,0,,,86,64
55380,note_off,,,,,180,0,2,,,0,,,59,64
55420,set_tempo,,,,,140,1,0,271493,,,,,,
55440,note_on,,,,,0,0,2,,,0,,,62,40
55440,note_on,,,,,60,0,2,,,0,,,64,40
55460,set_tempo,,,,,40,1,0,269058,,,,,,
55480,set_tempo,,,,,20,1,0,267857,,,,,,
55540,set_tempo,,,,,60,1,0,266667,,,,,,
55620,note_off,,,,,180,0,2,,,0,,,62,64
55620,note_off,,,,,0,0,2,,,0,,,64,64
55620,set_tempo,,,,,80,1,0,265487,,,,,,
55680,note_on,,,,,60,0,2,,,0,,,59,31
55700,set_tempo,,,,,80,1,0,264317,,,,,,
55720,set_tempo,,,,,20,1,0,263158,,,,,,
55820,set_tempo,,,,,100,1,0,260870,,,,,,
55840,set_tempo,,,,,20,1,0,259740,,,,,,
55860,note_off,,,,,180,0,2,,,0,,,59,64
55920,note_on,,,,,60,0,2,,,0,,,59,24
55940,set_tempo,,,,,100,1,0,258621,,,,,,
56020,set_tempo,,,,,80,1,0,257511,,,,,,
56080,set_tempo,,,,,60,1,0,256410,,,,,,
56100,note_off,,,,,180,0,2,,,0,,,59,64
56120,set_tempo,,,,,40,1,0,255319,,,,,,
56160,note_on,,,,,0,0,2,,,0,,,62,40
56160,note_on,,,,,780,0,1,,,0,,,74,41
56160,note_on,,,,,60,0,2,,,0,,,64,40
56320,set_tempo,,,,,200,1,0,254237,,,,,,
56340,set_tempo,,,,,20,1,0,252101,,,,,,
56340,note_off,,,,,0,0,2,,,0,,,64,64
56340,note_off,,,,,180,0,2,,,0,,,62,64
56400,note_on,,,,,0,0,1,,,0,,,74,31
56400,note_off,,,,,240,0,1,,,0,,,74,64
56400,note_on,,,,,60,0,2,,,0,,,59,31
56460,set_tempo,,,,,120,1,0,251046,,,,,,
56560,set_tempo,,,,,100,1,0,250000,,,,,,
56580,note_off,,,,,180,0,2,,,0,,,59,64
56640,note_off,,,,,240,0,1,,,0,,,74,64
56640,note_on,,,,,60,0,2,,,0,,,59,24
56640,note_on,,,,,0,0,1,,,0,,,74,34
56760,set_tempo,,,,,200,1,0,248963,,,,,,
56820,set_tempo,,,,,60,1,0,247934,,,,,,
56820,note_off,,,,,180,0,2,,,0,,,59,64
56880,note_on,,,,,60,0,2,,,0,,,65,40
56880,note_on,,,,,0,0,1,,,0,,,74,41
56880,note_on,,,,,0,0,2,,,0,,,62,40
56880,note_off,,,,,240,0,1,,,0,,,74,64
57060,note_off,,,,,180,0,2,,,0,,,62,64
57060,note_off,,,,,0,0,2,,,0,,,65,64
57120,note_on,,,,,0,0,1,,,0,,,77,37
57120,note_on,,,,,60,0,2,,,0,,,59,31
57120,note_off,,,,,240,0,1,,,0,,,74,64
57240,note_off,,,,,120,0,1,,,0,,,77,64
57240,note_on,,,,,0,0,1,,,0,,,76,40
57300,note_off,,,,,180,0,2,,,0,,,59,64
57360,note_off,,,,,120,0,1,,,0,,,76,64
57360,note_on,,,,,0,0,1,,,0,,,74,44
57360,note_on,,,,,60,0,2,,,0,,,59,24
57480,note_on,,,,,0,0,1,,,0,,,77,48
57480,note_off,,,,,120,0,1,,,0,,,74,64
57540,note_off,,,,,180,0,2,,,0,,,59,64
57600,note_on,,,,,60,0,2,,,0,,,65,40
57600,note_on,,,,,0,0,1,,,0,,,74,49
57600,note_off,,,,,120,0,1,,,0,,,77,64
57600,note_on,,,,,0,0,2,,,0,,,62,40
57700,set_tempo,,,,,880,1,0,248963,,,,,,
57760,set_tempo,,,,,60,1,0,250000,,,,,,
57780,note_off,,,,,180,0,1,,,0,,,74,64
57780,note_off,,,,,0,0,2,,,0,,,65,64
57780,note_off,,,,,180,0,2,,,0,,,62,64
57800,set_tempo,,,,,40,1,0,251046,,,,,,
57840,note_on,,,,,60,0,1,,,0,,,74,39
57840,note_on,,,,,60,0,2,,,0,,,59,31
57860,set_tempo,,,,,60,1,0,252101,,,,,,
57900,set_tempo,,,,,40,1,0,254237,,,,,,
58020,note_off,,,,,180,0,1,,,0,,,74,64
58020,note_off,,,,,180,0,2,,,0,,,59,64
58060,set_tempo,,,,,160,1,0,255319,,,,,,
58080,note_on,,,,,60,0,1,,,0,,,74,42
58080,note_on,,,,,60,0,2,,,0,,,59,24
58080,set_tempo,,,,,20,1,0,256410,,,,,,
58140,set_tempo,,,,,60,1,0,257511,,,,,,
58180,set_tempo,,,,,40,1,0,258621,,,,,,
58260,note_off,,,,,180,0,1,,,0,,,74,64
58260,note_off,,,,,180,0,2,,,0,,,59,64
58300,set_tempo,,,,,120,1,0,259740,,,,,,
58320,note_on,,,,,0,0,2,,,0,,,62,40
58320,note_on,,,,,60,0,1,,,0,,,86,53
58320,note_on,,,,,60,0,2,,,0,,,65,40
58480,set_tempo,,,,,180,1,0,260870,,,,,,
58500,note_off,,,,,180,0,2,,,0,,,62,64
58500,note_off,,,,,0,0,2,,,0,,,65,64
58500,note_off,,,,,180,0,1,,,0,,,86,64
58560,note_on,,,,,60,0,2,,,0,,,59,31
58560,set_tempo,,,,,80,1,0,263158,,,,,,
58560,note_on,,,,,60,0,1,,,0,,,86,36
58620,set_tempo,,,,,60,1,0,264317,,,,,,
58720,set_tempo,,,,,100,1,0,265487,,,,,,
58740,note_off,,,,,180,0,1,,,0,,,86,64
58740,note_off,,,,,180,0,2,,,0,,,59,64
58760,set_tempo,,,,,40,1,0,266667,,,,,,
58800,note_on,,,,,60,0,2,,,0,,,59,24
58800,note_on,,,,,60,0,1,,,0,,,86,29
58980,note_off,,,,,180,0,1,,,0,,,86,64
58980,note_off,,,,,180,0,2,,,0,,,59,64
58980,set_tempo,,,,,220,1,0,267857,,,,,,
59020,set_tempo,,,,,40,1,0,269058,,,,,,
59040,note_on,,,,,60,0,1,,,0,,,74,48
59040,note_on,,,,,60,0,2,,,0,,,59,29
59040,note_on,,,,,0,0,2,,,0,,,62,29
59100,set_tempo,,,,,80,1,0,272727,,,,,,
59160,note_off,,,,,120,0,2,,,0,,,62,64
59160,note_off,,,,,0,0,2,,,0,,,59,64
59160,note_on,,,,,0,0,2,,,0,,,65,26
59180,set_tempo,,,,,80,1,0,273973,,,,,,
59240,set_tempo,,,,,60,1,0,275229,,,,,,
59280,note_on,,,,,0,0,2,,,0,,,62,29
59280,note_on,,,,,0,0,1,,,0,,,73,41
59280,note_on,,,,,0,0,2,,,0,,,59,29
59280,note_off,,,,,120,0,2,,,0,,,65,64
59280,note_off,,,,,240,0,1,,,0,,,74,64
59300,set_tempo,,,,,60,1,0,276498,,,,,,
59340,set_tempo,,,,,40,1,0,277778,,,,,,
59400,note_on,,,,,0,0,2,,,0,,,65,23
59400,note_off,,,,,0,0,2,,,0,,,59,64
59400,note_off,,,,,120,0,2,,,0,,,62,64
59420,set_tempo,,,,,80,1,0,279070,,,,,,
59480,set_tempo,,,,,60,1,0,281690,,,,,,
59520,note_on,,,,,0,0,2,,,0,,,62,27
59520,note_off,,,,,240,0,1,,,0,,,73,64
59520,note_on,,,,,0,0,2,,,0,,,59,27
59520,note_off,,,,,120,0,2,,,0,,,65,64
59520,note_on,,,,,0,0,1,,,0,,,74,37
59560,set_tempo,,,,,80,1,0,284360,,,,,,
59640,note_off,,,,,0,0,2,,,0,,,59,64
59640,set_tempo,,,,,80,1,0,285714,,,,,,
59640,note_off,,,,,120,0,2,,,0,,,62,64
59640,note_on,,,,,0,0,2,,,0,,,65,22
59680,set_tempo,,,,,40,1,0,287081,,,,,,
59740,set_tempo,,,,,60,1,0,289855,,,,,,
59760,note_off,,,,,240,0,1,,,0,,,74,64
59760,note_on,,,,,0,0,1,,,0,,,86,44
59760,note_on,,,,,0,0,2,,,0,,,58,34
59760,note_on,,,,,0,0,2,,,0,,,62,34
59760,note_off,,,,,120,0,2,,,0,,,65,64
59800,set_tempo,,,,,60,1,0,292683,,,,,,
59820,set_tempo,,,,,20,1,0,294118,,,,,,
59880,note_off,,,,,120,0,2,,,0,,,62,64
59880,note_off,,,,,0,0,2,,,0,,,58,64
59880,note_on,,,,,0,0,2,,,0,,,65,26
59880,set_tempo,,,,,60,1,0,295567,,,,,,
59900,set_tempo,,,,,20,1,0,297030,,,,,,
60000,note_off,,,,,120,0,2,,,0,,,65,64
60000,note_on,,,,,0,0,2,,,0,,,58,29
60000,note_on,,,,,0,0,1,,,0,,,85,39
60000,note_off,,,,,240,0,1,,,0,,,86,64
60000,note_on,,,,,0,0,2,,,0,,,62,29
60040,set_tempo,,,,,140,1,0,300000,,,,,,
60080,set_tempo,,,,,40,1,0,304569,,,,,,
60120,note_off,,,,,120,0,2,,,0,,,58,64
60120,note_off,,,,,0,0,2,,,0,,,62,64
60120,note_on,,,,,0,0,2,,,0,,,65,23
60120,set_tempo,,,,,40,1,0,306122,,,,,,
60200,set_tempo,,,,,80,1,0,309278,,,,,,
60240,set_tempo,,,,,40,1,0,310881,,,,,,
60240,note_on,,,,,0,0,1,,,0,,,86,33
60240,note_off,,,,,240,0,1,,,0,,,85,64
60240,note_off,,,,,120,0,2,,,0,,,65,64
60240,note_on,,,,,0,0,2,,,0,,,62,35
60240,note_on,,,,,0,0,2,,,0,,,58,35
60300,set_tempo,,,,,60,1,0,312500,,,,,,
60360,note_on,,,,,0,0,2,,,0,,,65,32
60360,set_tempo,,,,,60,1,0,315789,,,,,,
60360,note_off,,,,,120,0,2,,,0,,,58,64
60360,note_off,,,,,0,0,2,,,0,,,62,64
60400,set_tempo,,,,,40,1,0,317460,,,,,,
60440,set_tempo,,,,,40,1,0,594059,,,,,,
60480,note_off,,,,,120,0,2,,,0,,,65,64
60480,note_on,,,,,0,0,2,,,0,,,62,31
60480,note_on,,,,,0,0,2,,,0,,,58,31
60480,set_tempo,,,,,40,1,0,434783,,,,,,
60480,note_off,,,,,240,0,1,,,0,,,86,64
60480,note_on,,,,,0,0,1,,,0,,,82,35
60520,set_tempo,,,,,40,1,0,322581,,,,,,
60540,set_tempo,,,,,20,1,0,315789,,,,,,
60560,set_tempo,,,,,20,1,0,307692,,,,,,
60580,set_tempo,,,,,20,1,0,304569,,,,,,
60600,note_on,,,,,0,0,2,,,0,,,65,26
60600,note_off,,,,,0,0,2,,,0,,,62,64
60600,note_off,,,,,120,0,2,,,0,,,58,64
60620,set_tempo,,,,,40,1,0,300000,,,,,,
60640,set_tempo,,,,,20,1,0,294118,,,,,,
60660,set_tempo,,,,,20,1,0,289855,,,,,,
60700,set_tempo,,,,,40,1,0,285714,,,,,,
60720,set_tempo,,,,,20,1,0,281690,,,,,,
60720,note_off,,,,,240,0,1,,,0,,,82,64
60720,note_on,,,,,0,0,2,,,0,,,58,29
60720,note_on,,,,,0,0,2,,,0,,,62,29
60720,note_off,,,,,120,0,2,,,0,,,65,64
60720,note_on,,,,,0,0,1,,,0,,,81,32
60740,set_tempo,,,,,20,1,0,277778,,,,,,
60780,set_tempo,,,,,40,1,0,275229,,,,,,
60800,set_tempo,,,,,20,1,0,273973,,,,,,
60820,set_tempo,,,,,20,1,0,271493,,,,,,
60840,note_off,,,,,120,0,1,,,0,,,81,64
60840,note_off,,,,,120,0,2,,,0,,,58,64
60840,note_off,,,,,0,0,2,,,0,,,62,64
60840,note_on,,,,,0,0,2,,,0,,,65,23
60860,set_tempo,,,,,40,1,0,269058,,,,,,
60880,set_tempo,,,,,20,1,0,266667,,,,,,
60900,set_tempo,,,,,20,1,0,265487,,,,,,
60920,set_tempo,,,,,20,1,0,264317,,,,,,
60940,set_tempo,,,,,20,1,0,263158,,,,,,
60960,note_on,,,,,120,0,1,,,0,,,82,35
60960,note_on,,,,,0,0,2,,,0,,,58,28
60960,note_off,,,,,120,0,2,,,0,,,65,64
60960,set_tempo,,,,,20,1,0,259740,,,,,,
60960,note_on,,,,,0,0,2,,,0,,,62,28
60980,set_tempo,,,,,20,1,0,258621,,,,,,
61040,set_tempo,,,,,60,1,0,255319,,,,,,
61080,note_off,,,,,0,0,2,,,0,,,62,64
61080,note_on,,,,,0,0,2,,,0,,,65,24
61080,note_off,,,,,120,0,2,,,0,,,58,64
61080,note_off,,,,,120,0,1,,,0,,,82,64
61100,set_tempo,,,,,60,1,0,252101,,,,,,
61120,set_tempo,,,,,20,1,0,251046,,,,,,
61200,note_on,,,,,0,0,2,,,0,,,58,32
61200,note_on,,,,,0,0,2,,,0,,,63,32
61200,note_off,,,,,120,0,2,,,0,,,65,64
61200,control_change,,,,,120,0,1,,,0,91,100,,
61200,note_on,,,,,0,0,1,,,0,,,79,40
61320,note_off,,,,,0,0,2,,,0,,,63,64
61320,note_off,,,,,120,0,2,,,0,,,58,64
61320,note_on,,,,,0,0,2,,,0,,,67,25
61360,set_tempo,,,,,240,1,0,248963,,,,,,
61400,set_tempo,,,,,40,1,0,247934,,,,,,
61440,note_on,,,,,0,0,2,,,0,,,63,35
61440,note_on,,,,,0,0,1,,,0,,,81,37
61440,note_off,,,,,240,0,1,,,0,,,79,64
61440,note_off,,,,,120,0,2,,,0,,,67,64
61440,note_on,,,,,0,0,2,,,0,,,58,35
61548,note_off,,,,,108,0,1,,,0,,,81,64
61560,note_on,,,,,12,0,1,,,0,,,82,43
61560,note_off,,,,,120,0,2,,,0,,,58,64
61560,note_on,,,,,0,0,2,,,0,,,67,28
61560,note_off,,,,,0,0,2,,,0,,,63,64
61668,note_off,,,,,108,0,1,,,0,,,82,64
61680,note_on,,,,,0,0,2,,,0,,,58,44
61680,note_on,,,,,0,0,2,,,0,,,63,44
61680,note_on,,,,,12,0,1,,,0,,,84,49
61680,note_off,,,,,120,0,2,,,0,,,67,64
61788,note_off,,,,,108,0,1,,,0,,,84,64
61800,note_off,,,,,0,0,2,,,0,,,63,64
61800,note_on,,,,,0,0,2,,,0,,,67,39
61800,note_on,,,,,12,0,1,,,0,,,86,53
61800,note_off,,,,,120,0,2,,,0,,,58,64
61908,note_off,,,,,108,0,1,,,0,,,86,64
61920,note_off,,,,,120,0,2,,,0,,,67,64
61920,note_on,,,,,0,0,2,,,0,,,62,51
61920,note_on,,,,,0,0,2,,,0,,,58,51
61920,note_on,,,,,12,0,1,,,0,,,82,53
62040,note_off,,,,,120,0,2,,,0,,,58,64
62040,note_off,,,,,0,0,2,,,0,,,62,64
62040,note_on,,,,,0,0,2,,,0,,,65,40
62160,note_on,,,,,0,0,2,,,0,,,62,52
62160,note_on,,,,,0,0,2,,,0,,,58,52
62160,note_off,,,,,120,0,2,,,0,,,65,64
62160,note_off,,,,,240,0,1,,,0,,,82,64
62160,note_on,,,,,0,0,1,,,0,,,84,43
62268,note_off,,,,,108,0,1,,,0,,,84,64
62280,note_on,,,,,0,0,2,,,0,,,65,43
62280,note_off,,,,,0,0,2,,,0,,,62,64
62280,note_off,,,,,120,0,2,,,0,,,58,64
62280,note_on,,,,,12,0,1,,,0,,,82,49
62388,note_off,,,,,108,0,1,,,0,,,82,64
62400,note_on,,,,,12,0,1,,,0,,,81,55
62400,note_on,,,,,0,0,2,,,0,,,58,53
62400,note_off,,,,,120,0,2,,,0,,,65,64
62400,note_on,,,,,0,0,2,,,0,,,62,53
62508,note_off,,,,,108,0,1,,,0,,,81,64
62520,note_on,,,,,0,0,2,,,0,,,65,47
62520,note_off,,,,,0,0,2,,,0,,,62,64
62520,note_off,,,,,120,0,2,,,0,,,58,64
62520,note_on,,,,,12,0,1,,,0,,,79,60
62628,note_off,,,,,108,0,1,,,0,,,79,64
62640,note_on,,,,,0,0,2,,,0,,,57,51
62640,note_on,,,,,12,0,1,,,0,,,77,64
62640,note_off,,,,,120,0,2,,,0,,,65,64
62640,note_on,,,,,0,0,2,,,0,,,63,51
62760,note_off,,,,,120,0,1,,,0,,,77,64
62760,note_off,,,,,0,0,2,,,0,,,63,64
62760,note_on,,,,,0,0,2,,,0,,,65,42
62760,note_off,,,,,120,0,2,,,0,,,57,64
62880,note_on,,,,,120,0,1,,,0,,,77,51
62880,note_on,,,,,0,0,2,,,0,,,57,53
62880,note_on,,,,,0,0,2,,,0,,,63,53
62880,note_off,,,,,120,0,2,,,0,,,65,64
63000,note_off,,,,,0,0,2,,,0,,,63,64
63000,note_off,,,,,120,0,2,,,0,,,57,64
63000,note_off,,,,,120,0,1,,,0,,,77,64
63000,note_on,,,,,0,0,2,,,0,,,65,50
63120,note_on,,,,,120,0,1,,,0,,,77,35
63120,note_on,,,,,0,0,2,,,0,,,57,55
63120,note_on,,,,,0,0,2,,,0,,,63,55
63120,note_off,,,,,120,0,2,,,0,,,65,64
63240,note_off,,,,,0,0,2,,,0,,,63,64
63240,note_off,,,,,120,0,2,,,0,,,57,64
63240,note_off,,,,,120,0,1,,,0,,,77,64
63240,note_on,,,,,0,0,2,,,0,,,65,43
63360,note_on,,,,,120,0,1,,,0,,,78,68
63360,note_off,,,,,120,0,2,,,0,,,65,64
63360,note_on,,,,,0,0,2,,,0,,,63,58
63360,note_on,,,,,0,0,2,,,0,,,57,58
63480,note_on,,,,,0,0,2,,,0,,,66,49
63480,note_off,,,,,120,0,2,,,0,,,57,64
63480,note_off,,,,,0,0,2,,,0,,,63,64
63520,control_change,,,,,40,0,2,,,0,91,96,,
63600,note_off,,,,,80,0,2,,,0,,,66,64
63600,note_on,,,,,0,0,2,,,0,,,63,55
63600,note_on,,,,,0,0,2,,,0,,,57,55
63600,note_off,,,,,240,0,1,,,0,,,78,64
63600,note_on,,,,,0,0,1,,,0,,,90,46
63720,note_off,,,,,120,0,2,,,0,,,57,64
63720,note_off,,,,,0,0,2,,,0,,,63,64
63720,note_on,,,,,0,0,2,,,0,,,66,49
63720,note_off,,,,,120,0,1,,,0,,,90,64
63840,note_on,,,,,0,0,2,,,0,,,57,59
63840,note_on,,,,,0,0,2,,,0,,,63,59
63840,note_on,,,,,120,0,1,,,0,,,90,60
63840,note_off,,,,,120,0,2,,,0,,,66,64
63960,note_off,,,,,120,0,1,,,0,,,90,64
63960,note_on,,,,,0,0,2,,,0,,,66,49
63960,note_off,,,,,0,0,2,,,0,,,63,64
63960,note_off,,,,,120,0,2,,,0,,,57,64
64080,note_on,,,,,0,0,2,,,0,,,58,56
64080,note_on,,,,,0,0,2,,,0,,,63,56
64080,note_off,,,,,120,0,2,,,0,,,66,64
64080,note_on,,,,,120,0,1,,,0,,,91,76
64200,note_off,,,,,120,0,2,,,0,,,58,64
64200,note_on,,,,,0,0,2,,,0,,,67,51
64200,note_off,,,,,0,0,2,,,0,,,63,64
64320,note_on,,,,,0,0,2,,,0,,,63,62
64320,note_on,,,,,0,0,2,,,0,,,58,62
64320,note_off,,,,,120,0,2,,,0,,,67,64
64320,note_on,,,,,0,0,1,,,0,,,79,64
64320,note_off,,,,,240,0,1,,,0,,,91,64
64440,note_on,,,,,0,0,2,,,0,,,67,53
64440,note_off,,,,,0,0,2,,,0,,,58,64
64440,note_off,,,,,120,0,2,,,0,,,63,64
64440,note_off,,,,,120,0,1,,,0,,,79,64
64560,note_on,,,,,0,0,2,,,0,,,63,64
64560,note_on,,,,,0,0,2,,,0,,,58,64
64560,note_off,,,,,120,0,2,,,0,,,67,64
64560,note_on,,,,,120,0,1,,,0,,,79,46
64680,note_off,,,,,120,0,1,,,0,,,79,64
64680,note_off,,,,,120,0,2,,,0,,,63,64
64680,note_off,,,,,0,0,2,,,0,,,58,64
64680,note_on,,,,,0,0,2,,,0,,,67,48
64800,note_on,,,,,120,0,1,,,0,,,81,60
64800,note_off,,,,,120,0,2,,,0,,,67,64
64800,note_on,,,,,0,0,2,,,0,,,60,67
64800,note_on,,,,,0,0,2,,,0,,,63,67
64920,note_off,,,,,120,0,1,,,0,,,81,64
64920,note_off,,,,,120,0,2,,,0,,,60,64
64920,note_off,,,,,0,0,2,,,0,,,63,64
64920,note_on,,,,,0,0,2,,,0,,,65,58
65010,note_on,,,,,90,0,1,,,0,,,94,55
65040,note_off,,,,,120,0,2,,,0,,,65,64
65040,note_off,,,,,30,0,1,,,0,,,94,64
65040,note_on,,,,,0,0,1,,,0,,,93,57
65040,note_on,,,,,0,0,2,,,0,,,63,66
65040,note_on,,,,,0,0,2,,,0,,,60,66
65160,note_off,,,,,0,0,2,,,0,,,63,64
65160,note_on,,,,,0,0,2,,,0,,,65,57
65160,note_off,,,,,120,0,1,,,0,,,93,64
65160,note_on,,,,,0,0,1,,,0,,,91,65
65160,note_off,,,,,120,0,2,,,0,,,60,64
65280,note_off,,,,,120,0,2,,,0,,,65,64
65280,note_on,,,,,0,0,2,,,0,,,63,70
65280,note_on,,,,,0,0,2,,,0,,,60,70
65280,note_on,,,,,0,0,1,,,0,,,93,73
65280,note_off,,,,,120,0,1,,,0,,,91,64
65400,note_on,,,,,0,0,2,,,0,,,65,60
65400,note_off,,,,,120,0,2,,,0,,,60,64
65400,note_off,,,,,0,0,2,,,0,,,63,64
65520,note_on,,,,,0,0,1,,,0,,,94,81
65520,note_on,,,,,0,0,2,,,0,,,58,73
65520,note_off,,,,,120,0,2,,,0,,,65,64
65520,note_on,,,,,0,0,2,,,0,,,62,73
65520,note_off,,,,,240,0,1,,,0,,,93,64
65640,note_off,,,,,120,0,1,,,0,,,94,64
65640,note_off,,,,,120,0,2,,,0,,,62,64
65640,note_off,,,,,0,0,2,,,0,,,58,64
65640,note_on,,,,,0,0,2,,,0,,,65,62
65730,note_on,,,,,90,0,1,,,0,,,84,65
65760,note_off,,,,,30,0,1,,,0,,,84,64
65760,note_off,,,,,120,0,2,,,0,,,65,64
65760,note_on,,,,,0,0,2,,,0,,,62,62
65760,note_on,,,,,0,0,2,,,0,,,58,62
65760,note_on,,,,,0,0,1,,,0,,,82,64
65880,note_off,,,,,120,0,1,,,0,,,82,64
65880,note_on,,,,,0,0,1,,,0,,,81,60
65880,note_on,,,,,0,0,2,,,0,,,65,49
65880,note_off,,,,,120,0,2,,,0,,,58,64
65880,note_off,,,,,0,0,2,,,0,,,62,64
66000,note_on,,,,,0,0,2,,,0,,,58,57
66000,note_off,,,,,120,0,1,,,0,,,81,64
66000,note_on,,,,,0,0,2,,,0,,,62,57
66000,note_off,,,,,120,0,2,,,0,,,65,64
66000,note_on,,,,,0,0,1,,,0,,,82,58
66120,note_on,,,,,0,0,2,,,0,,,65,47
66120,note_off,,,,,0,0,2,,,0,,,62,64
66120,note_off,,,,,120,0,2,,,0,,,58,64
66240,note_off,,,,,240,0,1,,,0,,,82,64
66240,note_off,,,,,120,0,2,,,0,,,65,64
66240,note_on,,,,,0,0,1,,,0,,,79,57
66240,note_on,,,,,0,0,1,,,0,,,75,57
66240,note_on,,,,,0,0,2,,,0,,,63,52
66360,note_off,,,,,120,0,1,,,0,,,75,64
66360,note_off,,,,,0,0,1,,,0,,,79,64
66360,note_on,,,,,0,0,1,,,0,,,82,36
66480,note_off,,,,,240,0,2,,,0,,,63,64
66480,note_on,,,,,0,0,2,,,0,,,62,49
66480,note_on,,,,,0,0,1,,,0,,,75,39
66480,note_on,,,,,0,0,1,,,0,,,79,39
66480,note_off,,,,,120,0,1,,,0,,,82,64
66600,note_off,,,,,120,0,1,,,0,,,75,64
66600,note_off,,,,,0,0,1,,,0,,,79,64
66600,note_on,,,,,0,0,1,,,0,,,82,33
66600,note_off,,,,,120,0,2,,,0,,,62,64
66720,note_on,,,,,120,0,2,,,0,,,63,57
66720,note_on,,,,,0,0,1,,,0,,,75,44
66720,note_on,,,,,0,0,1,,,0,,,79,44
66720,note_off,,,,,120,0,1,,,0,,,82,64
66840,note_off,,,,,120,0,1,,,0,,,75,64
66840,note_off,,,,,0,0,1,,,0,,,79,64
66840,note_on,,,,,0,0,1,,,0,,,82,42
66840,note_off,,,,,120,0,2,,,0,,,63,64
66960,note_on,,,,,0,0,1,,,0,,,79,53
66960,note_on,,,,,0,0,1,,,0,,,75,53
66960,note_off,,,,,120,0,1,,,0,,,82,64
66960,note_on,,,,,0,0,2,,,0,,,60,62
66960,control_change,,,,,120,0,2,,,0,91,100,,
67080,note_on,,,,,0,0,1,,,0,,,84,35
67080,note_off,,,,,0,0,1,,,0,,,79,64
67080,note_off,,,,,120,0,1,,,0,,,75,64
67200,note_off,,,,,120,0,1,,,0,,,84,64
67200,note_on,,,,,0,0,1,,,0,,,75,39
67200,note_on,,,,,0,0,1,,,0,,,79,39
67200,note_on,,,,,0,0,2,,,0,,,62,55
67200,note_off,,,,,240,0,2,,,0,,,60,64
67308,note_off,,,,,108,0,2,,,0,,,62,64
67320,note_off,,,,,120,0,1,,,0,,,75,64
67320,note_on,,,,,12,0,2,,,0,,,63,53
67320,note_on,,,,,0,0,1,,,0,,,84,36
67320,note_off,,,,,0,0,1,,,0,,,79,64
67428,note_off,,,,,108,0,2,,,0,,,63,64
67440,note_off,,,,,120,0,1,,,0,,,84,64
67440,note_on,,,,,12,0,2,,,0,,,65,57
67440,note_on,,,,,0,0,1,,,0,,,79,47
67440,note_on,,,,,0,0,1,,,0,,,75,47
67548,note_off,,,,,108,0,2,,,0,,,65,64
67560,note_on,,,,,0,0,1,,,0,,,84,45
67560,note_off,,,,,0,0,1,,,0,,,79,64
67560,note_on,,,,,12,0,2,,,0,,,67,59
67560,note_off,,,,,120,0,1,,,0,,,75,64
67668,note_off,,,,,108,0,2,,,0,,,67,64
67680,note_on,,,,,0,0,1,,,0,,,79,61
67680,note_off,,,,,120,0,1,,,0,,,84,64
67680,note_on,,,,,0,0,1,,,0,,,75,61
67680,note_on,,,,,12,0,2,,,0,,,63,60
67800,note_off,,,,,120,0,1,,,0,,,75,64
67800,note_off,,,,,0,0,1,,,0,,,79,64
67800,note_on,,,,,0,0,1,,,0,,,82,39
67920,note_off,,,,,120,0,1,,,0,,,82,64
67920,note_off,,,,,240,0,2,,,0,,,63,64
67920,note_on,,,,,0,0,2,,,0,,,65,54
67920,note_on,,,,,0,0,1,,,0,,,75,45
67920,note_on,,,,,0,0,1,,,0,,,79,45
68028,note_off,,,,,108,0,2,,,0,,,65,64
68040,note_off,,,,,120,0,1,,,0,,,75,64
68040,note_off,,,,,0,0,1,,,0,,,79,64
68040,note_on,,,,,0,0,1,,,0,,,82,43
68040,note_on,,,,,12,0,2,,,0,,,63,49
68148,note_off,,,,,108,0,2,,,0,,,63,64
68160,note_off,,,,,120,0,1,,,0,,,82,64
68160,note_on,,,,,0,0,1,,,0,,,75,56
68160,note_on,,,,,12,0,2,,,0,,,62,54
68160,note_on,,,,,0,0,1,,,0,,,79,56
68268,note_off,,,,,108,0,2,,,0,,,62,64
68280,note_off,,,,,0,0,1,,,0,,,79,64
68280,note_on,,,,,12,0,2,,,0,,,60,60
68280,note_off,,,,,120,0,1,,,0,,,75,64
68280,note_on,,,,,0,0,1,,,0,,,82,52
68388,note_off,,,,,108,0,2,,,0,,,60,64
68400,note_on,,,,,0,0,1,,,0,,,74,63
68400,note_on,,,,,12,0,2,,,0,,,58,65
68400,note_on,,,,,0,0,1,,,0,,,80,63
68400,note_off,,,,,120,0,1,,,0,,,82,64
68520,note_off,,,,,0,0,1,,,0,,,80,64
68520,note_off,,,,,120,0,1,,,0,,,74,64
68520,note_on,,,,,0,0,1,,,0,,,82,39
68520,note_off,,,,,120,0,2,,,0,,,58,64
68640,note_on,,,,,120,0,2,,,0,,,58,59
68640,note_off,,,,,120,0,1,,,0,,,82,64
68640,note_on,,,,,0,0,1,,,0,,,80,42
68640,note_on,,,,,0,0,1,,,0,,,74,42
68760,note_off,,,,,120,0,2,,,0,,,58,64
68760,note_off,,,,,120,0,1,,,0,,,74,64
68760,note_on,,,,,0,0,1,,,0,,,82,39
68760,note_off,,,,,0,0,1,,,0,,,80,64
68880,note_on,,,,,0,0,1,,,0,,,74,51
68880,note_on,,,,,0,0,1,,,0,,,80,51
68880,note_off,,,,,120,0,1,,,0,,,82,64
68880,note_on,,,,,120,0,2,,,0,,,58,50
69000,note_off,,,,,120,0,1,,,0,,,74,64
69000,note_off,,,,,120,0,2,,,0,,,58,64
69000,note_off,,,,,0,0,1,,,0,,,80,64
69000,note_on,,,,,0,0,1,,,0,,,82,48
69120,note_off,,,,,120,0,1,,,0,,,82,64
69120,note_on,,,,,0,0,1,,,0,,,80,63
69120,note_on,,,,,0,0,1,,,0,,,74,63
69120,note_on,,,,,120,0,2,,,0,,,59,67
69240,note_off,,,,,120,0,1,,,0,,,74,64
69240,note_off,,,,,0,0,1,,,0,,,80,64
69240,note_on,,,,,0,0,1,,,0,,,86,52
69280,control_change,,,,,40,0,1,,,0,91,96,,
69360,note_off,,,,,240,0,2,,,0,,,59,64
69360,note_on,,,,,0,0,2,,,0,,,71,54
69360,note_on,,,,,0,0,1,,,0,,,74,55
69360,note_on,,,,,0,0,1,,,0,,,80,55
69360,note_off,,,,,80,0,1,,,0,,,86,64
69480,note_off,,,,,120,0,1,,,0,,,74,64
69480,note_off,,,,,0,0,1,,,0,,,80,64
69480,note_on,,,,,0,0,1,,,0,,,86,42
69480,note_off,,,,,120,0,2,,,0,,,71,64
69600,note_off,,,,,120,0,1,,,0,,,86,64
69600,note_on,,,,,0,0,1,,,0,,,80,44
69600,note_on,,,,,0,0,1,,,0,,,74,44
69600,note_on,,,,,120,0,2,,,0,,,71,68
69720,note_off,,,,,120,0,2,,,0,,,71,64
69720,note_off,,,,,120,0,1,,,0,,,74,64
69720,note_off,,,,,0,0,1,,,0,,,80,64
69720,note_on,,,,,0,0,1,,,0,,,86,35
69840,note_on,,,,,120,0,2,,,0,,,72,66
69840,note_on,,,,,0,0,1,,,0,,,79,71
69840,note_on,,,,,0,0,1,,,0,,,75,71
69840,note_off,,,,,120,0,1,,,0,,,86,64
69960,note_on,,,,,0,0,1,,,0,,,87,59
69960,note_off,,,,,0,0,1,,,0,,,79,64
69960,note_off,,,,,120,0,1,,,0,,,75,64
70080,note_on,,,,,0,0,1,,,0,,,75,60
70080,note_on,,,,,0,0,1,,,0,,,79,60
70080,note_on,,,,,0,0,2,,,0,,,60,66
70080,note_off,,,,,240,0,2,,,0,,,72,64
70080,note_off,,,,,120,0,1,,,0,,,87,64
70200,note_off,,,,,0,0,1,,,0,,,79,64
70200,note_on,,,,,0,0,1,,,0,,,87,49
70200,note_off,,,,,120,0,1,,,0,,,75,64
70200,note_off,,,,,120,0,2,,,0,,,60,64
70320,note_on,,,,,120,0,2,,,0,,,60,57
70320,note_on,,,,,0,0,1,,,0,,,79,51
70320,note_off,,,,,120,0,1,,,0,,,87,64
70320,note_on,,,,,0,0,1,,,0,,,75,51
70440,note_off,,,,,120,0,2,,,0,,,60,64
70440,note_off,,,,,120,0,1,,,0,,,75,64
70440,note_off,,,,,0,0,1,,,0,,,79,64
70440,note_on,,,,,0,0,1,,,0,,,86,38
70560,note_on,,,,,120,0,2,,,0,,,65,66
70560,note_on,,,,,0,0,1,,,0,,,81,61
70560,note_off,,,,,120,0,1,,,0,,,86,64
70560,note_on,,,,,0,0,1,,,0,,,75,61
70680,note_off,,,,,120,0,1,,,0,,,75,64
70680,note_on,,,,,0,0,1,,,0,,,84,32
70680,note_off,,,,,120,0,2,,,0,,,65,64
70680,note_off,,,,,0,0,1,,,0,,,81,64
70770,note_on,,,,,90,0,2,,,0,,,55,72
70800,note_on,,,,,0,0,1,,,0,,,81,43
70800,note_on,,,,,0,0,1,,,0,,,75,43
70800,note_off,,,,,30,0,2,,,0,,,55,64
70800,note_on,,,,,0,0,2,,,0,,,53,70
70800,note_off,,,,,120,0,1,,,0,,,84,64
70920,note_off,,,,,120,0,1,,,0,,,75,64
70920,note_off,,,,,0,0,1,,,0,,,81,64
70920,note_on,,,,,0,0,1,,,0,,,84,42
70920,note_on,,,,,0,0,2,,,0,,,52,64
70920,note_off,,,,,120,0,2,,,0,,,53,64
71040,note_on,,,,,0,0,1,,,0,,,75,54
71040,note_on,,,,,0,0,1,,,0,,,81,54
71040,note_off,,,,,120,0,1,,,0,,,84,64
71040,note_on,,,,,0,0,2,,,0,,,53,55
71040,note_off,,,,,120,0,2,,,0,,,52,64
71160,note_off,,,,,0,0,1,,,0,,,81,64
71160,note_on,,,,,0,0,1,,,0,,,84,52
71160,note_off,,,,,120,0,1,,,0,,,75,64
71280,note_on,,,,,0,0,1,,,0,,,74,62
71280,note_on,,,,,0,0,1,,,0,,,82,62
71280,note_off,,,,,240,0,2,,,0,,,53,64
71280,note_on,,,,,0,0,2,,,0,,,58,67
71280,note_off,,,,,120,0,1,,,0,,,84,64
71400,note_on,,,,,0,0,1,,,0,,,86,49
71400,note_off,,,,,120,0,2,,,0,,,58,64
71400,note_off,,,,,0,0,1,,,0,,,82,64
71400,note_off,,,,,120,0,1,,,0,,,74,64
71490,note_on,,,,,90,0,2,,,0,,,48,64
71520,note_on,,,,,0,0,2,,,0,,,46,63
71520,note_off,,,,,30,0,2,,,0,,,48,64
71520,note_on,,,,,0,0,1,,,0,,,74,45
71520,note_on,,,,,0,0,1,,,0,,,82,45
71520,note_off,,,,,120,0,1,,,0,,,86,64
71640,note_on,,,,,0,0,1,,,0,,,86,41
71640,note_off,,,,,0,0,1,,,0,,,82,64
71640,note_off,,,,,120,0,1,,,0,,,74,64
71640,note_off,,,,,120,0,2,,,0,,,46,64
71640,note_on,,,,,0,0,2,,,0,,,45,56
71760,note_off,,,,,120,0,1,,,0,,,86,64
71760,note_on,,,,,0,0,2,,,0,,,46,46
71760,note_off,,,,,120,0,2,,,0,,,45,64
71760,note_on,,,,,0,0,1,,,0,,,82,35
71760,note_on,,,,,0,0,1,,,0,,,74,35
71880,note_on,,,,,0,0,1,,,0,,,86,31
71880,note_off,,,,,0,0,1,,,0,,,82,64
71880,note_off,,,,,120,0,1,,,0,,,74,64
72000,note_on,,,,,0,0,1,,,0,,,75,39
72000,note_on,,,,,0,0,1,,,0,,,81,39
72000,note_off,,,,,120,0,1,,,0,,,86,64
72000,note_on,,,,,0,0,2,,,0,,,41,52
72000,note_off,,,,,240,0,2,,,0,,,46,64
72120,note_on,,,,,0,0,1,,,0,,,84,35
72120,note_off,,,,,0,0,1,,,0,,,81,64
72120,note_off,,,,,120,0,1,,,0,,,75,64
72240,note_on,,,,,0,0,1,,,0,,,81,41
72240,note_off,,,,,240,0,2,,,0,,,41,64
72240,note_on,,,,,0,0,2,,,0,,,43,42
72240,note_off,,,,,120,0,1,,,0,,,84,64
72240,note_on,,,,,0,0,1,,,0,,,75,41
72360,note_off,,,,,120,0,2,,,0,,,43,64
72360,note_on,,,,,0,0,2,,,0,,,45,37
72360,note_off,,,,,0,0,1,,,0,,,81,64
72360,note_off,,,,,120,0,1,,,0,,,75,64
72360,note_on,,,,,0,0,1,,,0,,,84,36
72480,note_on,,,,,0,0,1,,,0,,,81,40
72480,note_on,,,,,0,0,2,,,0,,,46,36
72480,note_on,,,,,0,0,1,,,0,,,75,40
72480,note_off,,,,,120,0,2,,,0,,,45,64
72480,note_off,,,,,120,0,1,,,0,,,84,64
72600,note_off,,,,,120,0,1,,,0,,,75,64
72600,note_off,,,,,0,0,1,,,0,,,81,64
72600,note_on,,,,,0,0,1,,,0,,,84,34
72600,note_on,,,,,0,0,2,,,0,,,48,41
72600,note_off,,,,,120,0,2,,,0,,,46,64
72720,note_off,,,,,120,0,2,,,0,,,48,64
72720,note_off,,,,,120,0,1,,,0,,,84,64
72720,note_on,,,,,0,0,1,,,0,,,82,35
72720,note_on,,,,,0,0,1,,,0,,,74,35
72720,note_on,,,,,0,0,2,,,0,,,46,48
72740,set_tempo,,,,,11340,1,0,248963,,,,,,
72840,note_off,,,,,120,0,1,,,0,,,74,64
72840,note_off,,,,,0,0,1,,,0,,,82,64
72840,note_on,,,,,0,0,1,,,0,,,86,35
72900,note_off,,,,,180,0,2,,,0,,,46,64
72960,note_on,,,,,0,0,1,,,0,,,82,38
72960,note_on,,,,,0,0,1,,,0,,,74,38
72960,note_on,,,,,60,0,2,,,0,,,46,37
72960,note_off,,,,,120,0,1,,,0,,,86,64
73080,note_off,,,,,0,0,1,,,0,,,82,64
73080,note_off,,,,,120,0,1,,,0,,,74,64
73080,note_on,,,,,0,0,1,,,0,,,86,36
73140,note_off,,,,,180,0,2,,,0,,,46,64
73160,set_tempo,,,,,420,1,0,250000,,,,,,
73200,note_off,,,,,120,0,1,,,0,,,86,64
73200,note_on,,,,,0,0,1,,,0,,,74,38
73200,note_on,,,,,0,0,1,,,0,,,82,38
73200,note_on,,,,,60,0,2,,,0,,,46,25
73280,set_tempo,,,,,120,1,0,251046,,,,,,
73320,note_off,,,,,120,0,1,,,0,,,74,64
73320,note_off,,,,,0,0,1,,,0,,,82,64
73320,note_on,,,,,0,0,1,,,0,,,86,34
73320,note_off,,,,,120,0,2,,,0,,,46,64
73440,note_on,,,,,120,0,2,,,0,,,53,36
73440,note_on,,,,,0,0,1,,,0,,,75,34
73440,note_on,,,,,0,0,1,,,0,,,81,34
73440,note_off,,,,,120,0,1,,,0,,,86,64
73500,set_tempo,,,,,220,1,0,252101,,,,,,
73560,note_off,,,,,120,0,1,,,0,,,75,64
73560,note_on,,,,,0,0,1,,,0,,,84,28
73560,note_off,,,,,0,0,1,,,0,,,81,64
73620,set_tempo,,,,,120,1,0,254237,,,,,,
73680,note_on,,,,,0,0,2,,,0,,,55,32
73680,note_off,,,,,240,0,2,,,0,,,53,64
73680,note_off,,,,,120,0,1,,,0,,,84,64
73680,note_on,,,,,0,0,1,,,0,,,81,31
73680,note_on,,,,,0,0,1,,,0,,,75,31
73780,set_tempo,,,,,160,1,0,255319,,,,,,
73800,note_off,,,,,120,0,1,,,0,,,75,64
73800,note_off,,,,,120,0,2,,,0,,,55,64
73800,note_on,,,,,0,0,2,,,0,,,57,27
73800,note_on,,,,,0,0,1,,,0,,,84,29
73800,note_off,,,,,0,0,1,,,0,,,81,64
73840,set_tempo,,,,,60,1,0,256410,,,,,,
73920,note_on,,,,,0,0,1,,,0,,,75,32
73920,note_off,,,,,120,0,2,,,0,,,57,64
73920,note_on,,,,,0,0,2,,,0,,,58,23
73920,note_on,,,,,0,0,1,,,0,,,81,32
73920,note_off,,,,,120,0,1,,,0,,,84,64
74000,set_tempo,,,,,160,1,0,258621,,,,,,
74040,note_off,,,,,120,0,2,,,0,,,58,64
74040,note_off,,,,,0,0,1,,,0,,,81,64
74040,note_off,,,,,120,0,1,,,0,,,75,64
74040,note_on,,,,,0,0,2,,,0,,,60,27
74040,note_on,,,,,0,0,1,,,0,,,84,27
74140,set_tempo,,,,,140,1,0,259740,,,,,,
74160,note_on,,,,,0,0,1,,,0,,,82,30
74160,note_on,,,,,0,0,2,,,0,,,58,31
74160,note_off,,,,,120,0,1,,,0,,,84,64
74160,note_off,,,,,120,0,2,,,0,,,60,64
74160,set_tempo,,,,,20,1,0,260870,,,,,,
74160,note_on,,,,,0,0,1,,,0,,,74,30
74260,set_tempo,,,,,100,1,0,263158,,,,,,
74280,note_on,,,,,0,0,1,,,0,,,86,23
74280,note_off,,,,,120,0,1,,,0,,,74,64
74280,note_off,,,,,0,0,1,,,0,,,82,64
74340,note_off,,,,,180,0,2,,,0,,,58,64
74340,set_tempo,,,,,80,1,0,264317,,,,,,
74400,note_off,,,,,120,0,1,,,0,,,86,64
74400,note_on,,,,,0,0,1,,,0,,,82,30
74400,note_on,,,,,0,0,1,,,0,,,74,30
74400,set_tempo,,,,,60,1,0,265487,,,,,,
74400,note_on,,,,,60,0,2,,,0,,,58,26
74440,set_tempo,,,,,40,1,0,266667,,,,,,
74500,set_tempo,,,,,60,1,0,267857,,,,,,
74520,note_off,,,,,0,0,1,,,0,,,82,64
74520,note_on,,,,,0,0,1,,,0,,,86,25
74520,note_off,,,,,120,0,1,,,0,,,74,64
74540,set_tempo,,,,,40,1,0,269058,,,,,,
74580,note_off,,,,,180,0,2,,,0,,,58,64
74620,set_tempo,,,,,80,1,0,271493,,,,,,
74640,note_on,,,,,60,0,2,,,0,,,58,22
74640,note_off,,,,,120,0,1,,,0,,,86,64
74640,note_on,,,,,0,0,1,,,0,,,74,30
74640,note_on,,,,,0,0,1,,,0,,,82,30
74660,set_tempo,,,,,40,1,0,272727,,,,,,
74680,set_tempo,,,,,20,1,0,273973,,,,,,
74720,set_tempo,,,,,40,1,0,275229,,,,,,
74760,note_off,,,,,120,0,1,,,0,,,74,64
74760,note_off,,,,,0,0,1,,,0,,,82,64
74760,note_on,,,,,0,0,1,,,0,,,86,23
74760,note_off,,,,,120,0,2,,,0,,,58,64
74840,set_tempo,,,,,120,1,0,276498,,,,,,
74860,set_tempo,,,,,20,1,0,277778,,,,,,
74880,note_off,,,,,120,0,1,,,0,,,86,64
74880,note_on,,,,,0,0,1,,,0,,,81,25
74880,note_on,,,,,120,0,2,,,0,,,65,25
74880,note_on,,,,,0,0,1,,,0,,,75,25
75000,note_on,,,,,0,0,1,,,0,,,84,22
75000,note_off,,,,,0,0,1,,,0,,,81,64
75000,note_off,,,,,120,0,1,,,0,,,75,64
75060,set_tempo,,,,,200,1,0,281690,,,,,,
75100,set_tempo,,,,,40,1,0,283019,,,,,,
75120,note_on,,,,,0,0,1,,,0,,,75,24
75120,note_on,,,,,0,0,1,,,0,,,81,24
75120,note_off,,,,,120,0,1,,,0,,,84,64
75120,note_on,,,,,0,0,2,,,0,,,67,19
75120,note_off,,,,,240,0,2,,,0,,,65,64
75140,set_tempo,,,,,40,1,0,284360,,,,,,
75200,set_tempo,,,,,60,1,0,285714,,,,,,
75240,note_on,,,,,0,0,2,,,0,,,69,19
75240,note_off,,,,,120,0,1,,,0,,,75,64
75240,note_off,,,,,0,0,1,,,0,,,81,64
75240,note_on,,,,,0,0,1,,,0,,,84,23
75240,note_off,,,,,120,0,2,,,0,,,67,64
75260,set_tempo,,,,,60,1,0,287081,,,,,,
75300,set_tempo,,,,,40,1,0,288462,,,,,,
75320,set_tempo,,,,,20,1,0,289855,,,,,,
75360,note_on,,,,,0,0,1,,,0,,,75,22
75360,note_on,,,,,0,0,1,,,0,,,81,22
75360,note_on,,,,,0,0,2,,,0,,,70,23
75360,note_off,,,,,120,0,2,,,0,,,69,64
75360,note_off,,,,,120,0,1,,,0,,,84,64
75400,set_tempo,,,,,80,1,0,294118,,,,,,
75480,note_on,,,,,0,0,2,,,0,,,72,24
75480,note_off,,,,,120,0,1,,,0,,,75,64
75480,note_off,,,,,120,0,2,,,0,,,70,64
75480,note_off,,,,,0,0,1,,,0,,,81,64
75480,note_on,,,,,0,0,1,,,0,,,84,22
75560,set_tempo,,,,,160,1,0,295567,,,,,,
75580,set_tempo,,,,,20,1,0,297030,,,,,,
75600,note_on,,,,,0,0,1,,,0,,,82,26
75600,note_on,,,,,0,0,1,,,0,,,74,26
75600,note_off,,,,,120,0,2,,,0,,,72,64
75600,note_off,,,,,120,0,1,,,0,,,84,64
75600,note_on,,,,,0,0,2,,,0,,,70,26
75640,set_tempo,,,,,60,1,0,298507,,,,,,
75660,set_tempo,,,,,20,1,0,300000,,,,,,
75680,set_tempo,,,,,20,1,0,304569,,,,,,
75720,note_off,,,,,120,0,1,,,0,,,74,64
75720,note_off,,,,,0,0,1,,,0,,,82,64
75720,note_on,,,,,0,0,1,,,0,,,86,21
75740,set_tempo,,,,,60,1,0,307692,,,,,,
75760,set_tempo,,,,,20,1,0,309278,,,,,,
75780,set_tempo,,,,,20,1,0,310881,,,,,,
75780,note_off,,,,,180,0,2,,,0,,,70,64
75800,set_tempo,,,,,20,1,0,312500,,,,,,
75820,set_tempo,,,,,20,1,0,315789,,,,,,
75840,note_on,,,,,0,0,1,,,0,,,82,26
75840,note_off,,,,,120,0,1,,,0,,,86,64
75840,note_on,,,,,60,0,2,,,0,,,70,19
75840,note_on,,,,,0,0,1,,,0,,,74,26
75860,set_tempo,,,,,40,1,0,319149,,,,,,
75880,set_tempo,,,,,20,1,0,320856,,,,,,
75900,set_tempo,,,,,20,1,0,324324,,,,,,
75920,set_tempo,,,,,20,1,0,326087,,,,,,
75960,set_tempo,,,,,40,1,0,331492,,,,,,
75960,note_off,,,,,120,0,1,,,0,,,74,64
75960,note_off,,,,,0,0,1,,,0,,,82,64
75960,note_on,,,,,0,0,1,,,0,,,86,20
75980,set_tempo,,,,,20,1,0,335196,,,,,,
76000,set_tempo,,,,,20,1,0,337079,,,,,,
76020,set_tempo,,,,,20,1,0,342857,,,,,,
76020,note_off,,,,,180,0,2,,,0,,,70,64
76040,set_tempo,,,,,20,1,0,344828,,,,,,
76060,set_tempo,,,,,20,1,0,348837,,,,,,
76080,note_off,,,,,120,0,1,,,0,,,86,64
76080,note_on,,,,,0,0,1,,,0,,,82,22
76080,note_on,,,,,0,0,1,,,0,,,74,22
76080,set_tempo,,,,,20,1,0,355030,,,,,,
76080,note_on,,,,,60,0,2,,,0,,,70,17
76100,set_tempo,,,,,20,1,0,359281,,,,,,
76120,set_tempo,,,,,20,1,0,379747,,,,,,
76140,set_tempo,,,,,20,1,0,397351,,,,,,
76160,set_tempo,,,,,20,1,0,422535,,,,,,
76180,set_tempo,,,,,20,1,0,444444,,,,,,
76200,set_tempo,,,,,20,1,0,468750,,,,,,
76200,note_off,,,,,120,0,2,,,0,,,70,64
76220,set_tempo,,,,,20,1,0,674157,,,,,,
76260,note_off,,,,,0,0,1,,,0,,,82,64
76260,note_off,,,,,180,0,1,,,0,,,74,64
76310,note_on,,,,,50,0,1,,,0,,,82,38
76310,set_tempo,,,,,90,1,0,281690,,,,,,
76310,note_on,,,,,110,0,2,,,0,,,63,36
76310,note_on,,,,,0,0,2,,,0,,,67,36
76330,set_tempo,,,,,20,1,0,279070,,,,,,
76350,set_tempo,,,,,20,1,0,266667,,,,,,
76390,set_tempo,,,,,40,1,0,265487,,,,,,
76410,set_tempo,,,,,20,1,0,263158,,,,,,
76430,note_off,,,,,120,0,1,,,0,,,82,64
76430,note_off,,,,,120,0,2,,,0,,,67,64
76430,set_tempo,,,,,20,1,0,260870,,,,,,
76430,note_on,,,,,0,0,2,,,0,,,70,24
76430,note_off,,,,,0,0,2,,,0,,,63,64
76490,set_tempo,,,,,60,1,0,257511,,,,,,
76520,note_on,,,,,90,0,1,,,0,,,80,28
76530,set_tempo,,,,,40,1,0,256410,,,,,,
76550,note_off,,,,,120,0,2,,,0,,,70,64
76550,note_off,,,,,30,0,1,,,0,,,80,64
76550,note_on,,,,,0,0,1,,,0,,,79,29
76550,note_on,,,,,0,0,2,,,0,,,67,30
76550,note_on,,,,,0,0,2,,,0,,,63,30
76570,set_tempo,,,,,40,1,0,254237,,,,,,
76630,set_tempo,,,,,60,1,0,252101,,,,,,
76650,set_tempo,,,,,20,1,0,251046,,,,,,
76670,note_off,,,,,120,0,1,,,0,,,79,64
76670,note_off,,,,,120,0,2,,,0,,,67,64
76670,note_off,,,,,0,0,2,,,0,,,63,64
76670,note_on,,,,,0,0,2,,,0,,,70,24
76670,note_on,,,,,0,0,1,,,0,,,77,34
76670,set_tempo,,,,,20,1,0,250000,,,,,,
76710,set_tempo,,,,,40,1,0,248963,,,,,,
76730,set_tempo,,,,,20,1,0,247934,,,,,,
76790,set_tempo,,,,,60,1,0,246914,,,,,,
76790,note_on,,,,,0,0,2,,,0,,,63,31
76790,note_on,,,,,0,0,2,,,0,,,67,31
76790,note_off,,,,,120,0,2,,,0,,,70,64
76790,note_on,,,,,0,0,1,,,0,,,79,38
76790,note_off,,,,,120,0,1,,,0,,,77,64
76830,set_tempo,,,,,40,1,0,245902,,,,,,
76910,note_on,,,,,0,0,2,,,0,,,70,25
76910,note_off,,,,,0,0,2,,,0,,,67,64
76910,note_off,,,,,120,0,2,,,0,,,63,64
76970,set_tempo,,,,,140,1,0,243902,,,,,,
77030,note_on,,,,,0,0,2,,,0,,,65,35
77030,note_on,,,,,0,0,2,,,0,,,62,35
77030,note_on,,,,,0,0,1,,,0,,,82,47
77030,note_off,,,,,240,0,1,,,0,,,79,64
77030,note_off,,,,,120,0,2,,,0,,,70,64
77090,set_tempo,,,,,120,1,0,242915,,,,,,
77130,set_tempo,,,,,40,1,0,241935,,,,,,
77150,note_off,,,,,0,0,2,,,0,,,62,64
77150,note_on,,,,,0,0,2,,,0,,,70,26
77150,note_off,,,,,120,0,1,,,0,,,82,64
77150,note_off,,,,,120,0,2,,,0,,,65,64
77240,note_on,,,,,90,0,1,,,0,,,79,36
77270,note_on,,,,,0,0,2,,,0,,,62,36
77270,note_off,,,,,120,0,2,,,0,,,70,64
77270,note_on,,,,,0,0,2,,,0,,,65,36
77270,note_off,,,,,30,0,1,,,0,,,79,64
77270,note_on,,,,,0,0,1,,,0,,,77,38
77390,note_on,,,,,0,0,2,,,0,,,70,25
77390,note_off,,,,,0,0,2,,,0,,,65,64
77390,note_off,,,,,120,0,2,,,0,,,62,64
77390,note_on,,,,,0,0,1,,,0,,,76,43
77390,note_off,,,,,120,0,1,,,0,,,77,64
77510,note_off,,,,,120,0,1,,,0,,,76,64
77510,note_on,,,,,0,0,2,,,0,,,61,36
77510,note_off,,,,,120,0,2,,,0,,,70,64
77510,note_on,,,,,0,0,1,,,0,,,77,48
77510,note_on,,,,,0,0,2,,,0,,,65,36
77630,note_on,,,,,0,0,2,,,0,,,70,26
77630,note_off,,,,,0,0,2,,,0,,,65,64
77630,note_off,,,,,120,0,2,,,0,,,61,64
77750,note_on,,,,,0,0,2,,,0,,,60,36
77750,note_on,,,,,0,0,2,,,0,,,65,36
77750,note_on,,,,,0,0,1,,,0,,,84,58
77750,note_off,,,,,240,0,1,,,0,,,77,64
77750,note_off,,,,,120,0,2,,,0,,,70,64
77870,note_off,,,,,120,0,2,,,0,,,65,64
77870,note_off,,,,,0,0,2,,,0,,,60,64
77870,note_on,,,,,0,0,2,,,0,,,68,29
77990,note_off,,,,,120,0,2,,,0,,,68,64
77990,note_on,,,,,0,0,2,,,0,,,65,35
77990,note_on,,,,,0,0,2,,,0,,,60,35
77990,note_off,,,,,240,0,1,,,0,,,84,64
77990,note_on,,,,,0,0,1,,,0,,,82,54
78030,set_tempo,,,,,900,1,0,242915,,,,,,
78050,set_tempo,,,,,20,1,0,243902,,,,,,
78110,note_on,,,,,0,0,2,,,0,,,68,27
78110,set_tempo,,,,,60,1,0,246914,,,,,,
78110,note_off,,,,,0,0,2,,,0,,,65,64
78110,note_off,,,,,120,0,2,,,0,,,60,64
78110,note_on,,,,,0,0,1,,,0,,,80,48
78110,note_off,,,,,120,0,1,,,0,,,82,64
78130,set_tempo,,,,,20,1,0,247934,,,,,,
78190,set_tempo,,,,,60,1,0,248963,,,,,,
78210,set_tempo,,,,,20,1,0,250000,,,,,,
78230,note_on,,,,,0,0,2,,,0,,,60,38
78230,note_on,,,,,0,0,2,,,0,,,65,38
78230,note_off,,,,,120,0,1,,,0,,,80,64
78230,note_off,,,,,120,0,2,,,0,,,68,64
78230,note_on,,,,,0,0,1,,,0,,,79,55
78290,set_tempo,,,,,80,1,0,251046,,,,,,
78350,note_off,,,,,0,0,2,,,0,,,65,64
78350,note_off,,,,,120,0,2,,,0,,,60,64
78350,note_on,,,,,0,0,2,,,0,,,68,34
78350,note_on,,,,,0,0,1,,,0,,,77,66
78350,note_off,,,,,120,0,1,,,0,,,79,64
78370,set_tempo,,,,,80,1,0,254237,,,,,,
78470,note_on,,,,,0,0,2,,,0,,,65,43
78470,note_on,,,,,0,0,2,,,0,,,60,43
78470,note_off,,,,,120,0,2,,,0,,,68,64
78470,note_off,,,,,120,0,1,,,0,,,77,64
78470,note_on,,,,,0,0,1,,,0,,,84,74
78590,note_on,,,,,0,0,2,,,0,,,67,32
78590,note_off,,,,,0,0,2,,,0,,,60,64
78590,note_off,,,,,120,0,2,,,0,,,65,64
78710,note_off,,,,,240,0,1,,,0,,,84,64
78710,note_on,,,,,0,0,1,,,0,,,72,58
78710,note_off,,,,,120,0,2,,,0,,,67,64
78710,note_on,,,,,0,0,2,,,0,,,60,39
78710,note_on,,,,,0,0,2,,,0,,,64,39
78730,set_tempo,,,,,360,1,0,255319,,,,,,
78790,set_tempo,,,,,60,1,0,256410,,,,,,
78830,note_off,,,,,120,0,2,,,0,,,60,64
78830,note_off,,,,,0,0,2,,,0,,,64,64
78830,note_on,,,,,0,0,2,,,0,,,67,33
78850,set_tempo,,,,,60,1,0,257511,,,,,,
78870,set_tempo,,,,,20,1,0,258621,,,,,,
78890,note_off,,,,,180,0,1,,,0,,,72,64
78950,note_off,,,,,120,0,2,,,0,,,67,64
78950,note_on,,,,,0,0,2,,,0,,,60,33
78950,note_on,,,,,0,0,2,,,0,,,64,33
78950,set_tempo,,,,,80,1,0,259740,,,,,,
78950,note_on,,,,,60,0,1,,,0,,,72,41
78970,set_tempo,,,,,20,1,0,260870,,,,,,
79070,note_off,,,,,120,0,1,,,0,,,72,64
79070,note_off,,,,,120,0,2,,,0,,,64,64
79070,note_off,,,,,0,0,2,,,0,,,60,64
79070,note_on,,,,,0,0,2,,,0,,,67,38
79190,note_on,,,,,120,0,1,,,0,,,72,35
79190,note_off,,,,,120,0,2,,,0,,,67,64
79190,note_on,,,,,0,0,2,,,0,,,60,51
79190,note_on,,,,,0,0,2,,,0,,,56,51
79190,note_on,,,,,0,0,1,,,0,,,68,35
79310,note_off,,,,,0,0,1,,,0,,,72,64
79310,note_on,,,,,0,0,1,,,0,,,75,22
79310,note_off,,,,,120,0,1,,,0,,,68,64
79390,set_tempo,,,,,420,1,0,259740,,,,,,
79430,set_tempo,,,,,40,1,0,258621,,,,,,
79430,note_on,,,,,0,0,1,,,0,,,68,32
79430,note_on,,,,,0,0,1,,,0,,,72,32
79430,note_on,,,,,0,0,2,,,0,,,61,41
79430,note_off,,,,,240,0,2,,,0,,,60,64
79430,note_off,,,,,120,0,1,,,0,,,75,64
79490,set_tempo,,,,,60,1,0,257511,,,,,,
79510,set_tempo,,,,,20,1,0,256410,,,,,,
79550,set_tempo,,,,,40,1,0,255319,,,,,,
79550,note_off,,,,,120,0,1,,,0,,,68,64
79550,note_off,,,,,0,0,1,,,0,,,72,64
79550,note_on,,,,,0,0,1,,,0,,,75,22
79590,set_tempo,,,,,40,1,0,254237,,,,,,
79670,note_on,,,,,0,0,1,,,0,,,68,29
79670,note_off,,,,,120,0,1,,,0,,,75,64
79670,note_on,,,,,0,0,2,,,0,,,60,49
79670,set_tempo,,,,,80,1,0,252101,,,,,,
79670,note_off,,,,,240,0,2,,,0,,,61,64
79670,note_on,,,,,0,0,1,,,0,,,72,29
79690,set_tempo,,,,,20,1,0,251046,,,,,,
79770,set_tempo,,,,,80,1,0,250000,,,,,,
79790,note_off,,,,,0,0,1,,,0,,,72,64
79790,note_on,,,,,0,0,1,,,0,,,75,23
79790,note_off,,,,,120,0,1,,,0,,,68,64
79870,set_tempo,,,,,100,1,0,248963,,,,,,
79910,note_off,,,,,120,0,1,,,0,,,75,64
79910,note_off,,,,,0,0,2,,,0,,,56,64
79910,note_off,,,,,240,0,2,,,0,,,60,64
79910,note_on,,,,,0,0,1,,,0,,,77,34
79910,note_on,,,,,0,0,1,,,0,,,68,34
79910,note_on,,,,,0,0,2,,,0,,,58,55
79910,note_on,,,,,0,0,2,,,0,,,49,55
80030,note_on,,,,,0,0,1,,,0,,,80,27
80030,note_off,,,,,0,0,1,,,0,,,77,64
80030,note_off,,,,,120,0,1,,,0,,,68,64
80150,note_on,,,,,0,0,1,,,0,,,77,37
80150,note_off,,,,,240,0,2,,,0,,,58,64
80150,note_on,,,,,0,0,2,,,0,,,53,47
80150,note_on,,,,,0,0,1,,,0,,,68,37
80150,note_off,,,,,120,0,1,,,0,,,80,64
80190,set_tempo,,,,,320,1,0,245902,,,,,,
80230,set_tempo,,,,,40,1,0,243902,,,,,,
80270,note_off,,,,,0,0,1,,,0,,,77,64
80270,note_on,,,,,0,0,1,,,0,,,80,31
80270,note_off,,,,,120,0,1,,,0,,,68,64
80290,set_tempo,,,,,60,1,0,242915,,,,,,
80370,set_tempo,,,,,80,1,0,241935,,,,,,
80390,note_on,,,,,0,0,1,,,0,,,77,42
80390,note_off,,,,,120,0,1,,,0,,,80,64
80390,note_off,,,,,240,0,2,,,0,,,53,64
80390,note_on,,,,,0,0,2,,,0,,,55,54
80390,note_on,,,,,0,0,1,,,0,,,68,42
80510,note_off,,,,,120,0,1,,,0,,,68,64
80510,note_off,,,,,0,0,1,,,0,,,77,64
80510,note_on,,,,,0,0,1,,,0,,,80,40
80570,note_on,,,,,0,0,2,,,0,,,58,60
80570,note_off,,,,,180,0,2,,,0,,,55,64
80600,note_off,,,,,30,0,2,,,0,,,58,64
80610,set_tempo,,,,,240,1,0,454545,,,,,,
80630,note_off,,,,,30,0,2,,,0,,,49,64
80630,note_off,,,,,120,0,1,,,0,,,80,64
80630,note_on,,,,,0,0,2,,,0,,,56,59
80630,note_on,,,,,0,0,1,,,0,,,68,50
80630,note_on,,,,,0,0,1,,,0,,,72,50
80630,note_on,,,,,0,0,2,,,0,,,51,59
80650,set_tempo,,,,,40,1,0,241935,,,,,,
80750,note_off,,,,,120,0,1,,,0,,,68,64
80750,note_on,,,,,0,0,1,,,0,,,75,42
80750,note_off,,,,,0,0,1,,,0,,,72,64
80850,set_tempo,,,,,200,1,0,242915,,,,,,
80870,note_off,,,,,120,0,1,,,0,,,75,64
80870,note_on,,,,,0,0,1,,,0,,,68,41
80870,note_on,,,,,0,0,1,,,0,,,72,41
80870,note_on,,,,,0,0,2,,,0,,,55,46
80870,note_off,,,,,240,0,2,,,0,,,56,64
80890,set_tempo,,,,,40,1,0,243902,,,,,,
80930,set_tempo,,,,,40,1,0,246914,,,,,,
80970,set_tempo,,,,,40,1,0,247934,,,,,,
80990,note_on,,,,,0,0,1,,,0,,,75,37
80990,note_off,,,,,120,0,1,,,0,,,68,64
80990,note_off,,,,,0,0,1,,,0,,,72,64
81010,set_tempo,,,,,40,1,0,248963,,,,,,
81070,set_tempo,,,,,60,1,0,250000,,,,,,
81090,set_tempo,,,,,20,1,0,251046,,,,,,
81110,note_on,,,,,0,0,2,,,0,,,56,32
81110,note_off,,,,,120,0,1,,,0,,,75,64
81110,note_on,,,,,0,0,1,,,0,,,72,38
81110,note_on,,,,,0,0,1,,,0,,,68,38
81110,set_tempo,,,,,20,1,0,252101,,,,,,
81110,note_off,,,,,240,0,2,,,0,,,55,64
81170,set_tempo,,,,,60,1,0,254237,,,,,,
81230,note_off,,,,,120,0,1,,,0,,,68,64
81230,note_off,,,,,0,0,1,,,0,,,72,64
81230,note_on,,,,,0,0,1,,,0,,,75,33
81250,set_tempo,,,,,80,1,0,256410,,,,,,
81310,set_tempo,,,,,60,1,0,257511,,,,,,
81330,set_tempo,,,,,20,1,0,258621,,,,,,
81350,note_on,,,,,0,0,2,,,0,,,58,46
81350,note_off,,,,,240,0,2,,,0,,,56,64
81350,note_on,,,,,0,0,1,,,0,,,67,41
81350,note_on,,,,,0,0,1,,,0,,,73,41
81350,note_off,,,,,120,0,1,,,0,,,75,64
81390,set_tempo,,,,,60,1,0,259740,,,,,,
81410,set_tempo,,,,,20,1,0,263158,,,,,,
81450,set_tempo,,,,,40,1,0,264317,,,,,,
81470,note_off,,,,,0,0,1,,,0,,,73,64
81470,note_on,,,,,0,0,1,,,0,,,75,30
81470,note_off,,,,,120,0,1,,,0,,,67,64
81530,set_tempo,,,,,80,1,0,265487,,,,,,
81570,set_tempo,,,,,40,1,0,267857,,,,,,
81590,note_off,,,,,120,0,1,,,0,,,75,64
81590,note_on,,,,,0,0,1,,,0,,,73,35
81590,note_on,,,,,0,0,1,,,0,,,67,35
81610,set_tempo,,,,,40,1,0,269058,,,,,,
81670,set_tempo,,,,,60,1,0,271493,,,,,,
81710,note_on,,,,,0,0,1,,,0,,,75,27
81710,note_off,,,,,120,0,1,,,0,,,67,64
81710,note_off,,,,,0,0,1,,,0,,,73,64
81750,set_tempo,,,,,80,1,0,272727,,,,,,
81830,note_off,,,,,120,0,1,,,0,,,75,64
81830,note_on,,,,,0,0,1,,,0,,,67,31
81830,note_on,,,,,0,0,1,,,0,,,73,31
81830,note_off,,,,,480,0,2,,,0,,,58,64
81830,note_on,,,,,0,0,2,,,0,,,59,32
81950,note_on,,,,,0,0,1,,,0,,,75,23
81950,note_off,,,,,0,0,1,,,0,,,73,64
81950,note_off,,,,,120,0,1,,,0,,,67,64
82070,set_tempo,,,,,320,1,0,281690,,,,,,
82070,note_off,,,,,240,0,2,,,0,,,59,64
82070,note_on,,,,,0,0,2,,,0,,,60,36
82070,note_on,,,,,0,0,2,,,0,,,56,36
82070,note_off,,,,,120,0,1,,,0,,,75,64
82070,note_on,,,,,0,0,1,,,0,,,75,30
82070,note_on,,,,,0,0,1,,,0,,,72,30
82070,note_on,,,,,0,0,1,,,0,,,68,30
82070,note_off,,,,,0,0,2,,,0,,,51,64
82090,set_tempo,,,,,20,1,0,279070,,,,,,
82110,set_tempo,,,,,20,1,0,266667,,,,,,
82150,set_tempo,,,,,40,1,0,265487,,,,,,
82170,set_tempo,,,,,20,1,0,263158,,,,,,
82190,note_off,,,,,120,0,2,,,0,,,60,64
82190,note_off,,,,,0,0,2,,,0,,,56,64
82190,set_tempo,,,,,20,1,0,260870,,,,,,
82190,note_on,,,,,0,0,2,,,0,,,63,24
82190,note_off,,,,,120,0,1,,,0,,,68,64
82190,note_off,,,,,0,0,1,,,0,,,72,64
82190,note_off,,,,,0,0,1,,,0,,,75,64
82250,set_tempo,,,,,60,1,0,257511,,,,,,
82280,note_on,,,,,90,0,1,,,0,,,73,28
82290,set_tempo,,,,,40,1,0,256410,,,,,,
82310,note_off,,,,,30,0,1,,,0,,,73,64
82310,note_on,,,,,0,0,2,,,0,,,56,30
82310,note_off,,,,,120,0,2,,,0,,,63,64
82310,note_on,,,,,0,0,2,,,0,,,60,30
82310,note_on,,,,,0,0,1,,,0,,,72,29
82330,set_tempo,,,,,40,1,0,254237,,,,,,
82390,set_tempo,,,,,60,1,0,252101,,,,,,
82410,set_tempo,,,,,20,1,0,251046,,,,,,
82430,note_off,,,,,120,0,2,,,0,,,60,64
82430,note_off,,,,,120,0,1,,,0,,,72,64
82430,note_on,,,,,0,0,1,,,0,,,70,34
82430,set_tempo,,,,,20,1,0,250000,,,,,,
82430,note_off,,,,,0,0,2,,,0,,,56,64
82430,note_on,,,,,0,0,2,,,0,,,63,24
82470,set_tempo,,,,,40,1,0,248963,,,,,,
82490,set_tempo,,,,,20,1,0,247934,,,,,,
82550,note_off,,,,,120,0,1,,,0,,,70,64
82550,set_tempo,,,,,60,1,0,246914,,,,,,
82550,note_on,,,,,0,0,2,,,0,,,56,31
82550,note_on,,,,,0,0,1,,,0,,,72,38
82550,note_on,,,,,0,0,2,,,0,,,60,31
82550,note_off,,,,,120,0,2,,,0,,,63,64
82590,set_tempo,,,,,40,1,0,245902,,,,,,
82670,note_off,,,,,120,0,2,,,0,,,56,64
82670,note_on,,,,,0,0,2,,,0,,,63,25
82670,note_off,,,,,0,0,2,,,0,,,60,64
82730,set_tempo,,,,,140,1,0,243902,,,,,,
82790,note_off,,,,,120,0,2,,,0,,,63,64
82790,note_on,,,,,0,0,2,,,0,,,55,35
82790,note_off,,,,,240,0,1,,,0,,,72,64
82790,note_on,,,,,0,0,1,,,0,,,75,47
82790,note_on,,,,,0,0,2,,,0,,,58,35
82850,set_tempo,,,,,120,1,0,242915,,,,,,
82890,set_tempo,,,,,40,1,0,241935,,,,,,
82910,note_on,,,,,0,0,2,,,0,,,63,26
82910,note_off,,,,,120,0,1,,,0,,,75,64
82910,note_off,,,,,0,0,2,,,0,,,55,64
82910,note_off,,,,,120,0,2,,,0,,,58,64
83000,note_on,,,,,90,0,1,,,0,,,72,36
83030,note_off,,,,,120,0,2,,,0,,,63,64
83030,note_on,,,,,0,0,1,,,0,,,70,38
83030,note_off,,,,,30,0,1,,,0,,,72,64
83030,note_on,,,,,0,0,2,,,0,,,55,36
83030,note_on,,,,,0,0,2,,,0,,,58,36
83150,note_on,,,,,0,0,1,,,0,,,69,43
83150,note_off,,,,,120,0,1,,,0,,,70,64
83150,note_off,,,,,120,0,2,,,0,,,55,64
83150,note_on,,,,,0,0,2,,,0,,,63,25
83150,note_off,,,,,0,0,2,,,0,,,58,64
83270,note_on,,,,,0,0,2,,,0,,,54,36
83270,note_on,,,,,0,0,2,,,0,,,58,36
83270,note_off,,,,,120,0,2,,,0,,,63,64
83270,note_off,,,,,120,0,1,,,0,,,69,64
83270,note_on,,,,,0,0,1,,,0,,,70,48
83390,note_off,,,,,120,0,2,,,0,,,54,64
83390,note_on,,,,,0,0,2,,,0,,,63,26
83390,note_off,,,,,0,0,2,,,0,,,58,64
83510,note_on,,,,,0,0,2,,,0,,,53,36
83510,note_on,,,,,0,0,1,,,0,,,77,58
83510,note_off,,,,,240,0,1,,,0,,,70,64
83510,note_off,,,,,120,0,2,,,0,,,63,64
83510,note_on,,,,,0,0,2,,,0,,,58,36
83630,note_off,,,,,120,0,2,,,0,,,58,64
83630,note_off,,,,,0,0,2,,,0,,,53,64
83630,note_on,,,,,0,0,2,,,0,,,61,29
83750,note_on,,,,,0,0,1,,,0,,,75,54
83750,note_off,,,,,240,0,1,,,0,,,77,64
83750,note_off,,,,,120,0,2,,,0,,,61,64
83750,note_on,,,,,0,0,2,,,0,,,58,35
83750,note_on,,,,,0,0,2,,,0,,,53,35
83790,set_tempo,,,,,900,1,0,242915,,,,,,
83810,set_tempo,,,,,20,1,0,243902,,,,,,
83870,set_tempo,,,,,60,1,0,246914,,,,,,
83870,note_off,,,,,120,0,1,,,0,,,75,64
83870,note_off,,,,,120,0,2,,,0,,,53,64
83870,note_on,,,,,0,0,1,,,0,,,73,48
83870,note_off,,,,,0,0,2,,,0,,,58,64
83870,note_on,,,,,0,0,2,,,0,,,61,27
83890,set_tempo,,,,,20,1,0,247934,,,,,,
83950,set_tempo,,,,,60,1,0,248963,,,,,,
83970,set_tempo,,,,,20,1,0,250000,,,,,,
83990,note_on,,,,,0,0,1,,,0,,,72,55
83990,note_off,,,,,120,0,1,,,0,,,73,64
83990,note_on,,,,,0,0,2,,,0,,,53,38
83990,note_on,,,,,0,0,2,,,0,,,58,38
83990,note_off,,,,,120,0,2,,,0,,,61,64
84050,set_tempo,,,,,80,1,0,251046,,,,,,
84110,note_on,,,,,0,0,2,,,0,,,61,34
84110,note_off,,,,,0,0,2,,,0,,,58,64
84110,note_off,,,,,120,0,2,,,0,,,53,64
84110,note_off,,,,,120,0,1,,,0,,,72,64
84110,note_on,,,,,0,0,1,,,0,,,70,66
84130,set_tempo,,,,,80,1,0,254237,,,,,,
84230,note_on,,,,,0,0,2,,,0,,,58,43
84230,note_on,,,,,0,0,2,,,0,,,53,43
84230,note_on,,,,,0,0,1,,,0,,,77,74
84230,note_off,,,,,120,0,1,,,0,,,70,64
84230,note_off,,,,,120,0,2,,,0,,,61,64
84350,note_off,,,,,120,0,2,,,0,,,58,64
84350,note_on,,,,,0,0,2,,,0,,,60,32
84350,note_off,,,,,0,0,2,,,0,,,53,64
84470,note_on,,,,,0,0,1,,,0,,,65,58
84470,note_off,,,,,120,0,2,,,0,,,60,64
84470,note_on,,,,,0,0,2,,,0,,,57,39
84470,note_on,,,,,0,0,2,,,0,,,53,39
84470,note_off,,,,,240,0,1,,,0,,,77,64
84490,set_tempo,,,,,360,1,0,255319,,,,,,
84550,set_tempo,,,,,60,1,0,256410,,,,,,
84590,note_off,,,,,120,0,2,,,0,,,53,64
84590,note_off,,,,,0,0,2,,,0,,,57,64
84590,note_on,,,,,0,0,2,,,0,,,60,33
84610,set_tempo,,,,,60,1,0,257511,,,,,,
84630,set_tempo,,,,,20,1,0,258621,,,,,,
84650,note_off,,,,,180,0,1,,,0,,,65,64
84710,set_tempo,,,,,80,1,0,259740,,,,,,
84710,note_off,,,,,120,0,2,,,0,,,60,64
84710,note_on,,,,,0,0,2,,,0,,,53,33
84710,note_on,,,,,0,0,2,,,0,,,57,33
84710,note_on,,,,,60,0,1,,,0,,,65,41
84730,set_tempo,,,,,20,1,0,260870,,,,,,
84830,note_on,,,,,0,0,2,,,0,,,60,38
84830,note_off,,,,,0,0,2,,,0,,,53,64
84830,note_off,,,,,120,0,2,,,0,,,57,64
84830,note_off,,,,,120,0,1,,,0,,,65,64
84950,note_on,,,,,0,0,1,,,0,,,73,43
84950,note_on,,,,,120,0,1,,,0,,,77,43
84950,note_on,,,,,0,0,2,,,0,,,65,58
84950,note_on,,,,,0,0,2,,,0,,,61,58
84950,note_off,,,,,120,0,2,,,0,,,60,64
85070,note_on,,,,,0,0,1,,,0,,,80,37
85070,note_off,,,,,120,0,1,,,0,,,73,64
85070,note_off,,,,,0,0,1,,,0,,,77,64
85150,set_tempo,,,,,420,1,0,259740,,,,,,
85190,set_tempo,,,,,40,1,0,258621,,,,,,
85190,note_off,,,,,240,0,2,,,0,,,65,64
85190,note_on,,,,,0,0,1,,,0,,,73,49
85190,note_on,,,,,0,0,2,,,0,,,66,51
85190,note_off,,,,,120,0,1,,,0,,,80,64
85190,note_on,,,,,0,0,1,,,0,,,77,49
85250,set_tempo,,,,,60,1,0,257511,,,,,,
85270,set_tempo,,,,,20,1,0,256410,,,,,,
85310,note_on,,,,,0,0,1,,,0,,,80,43
85310,note_off,,,,,120,0,1,,,0,,,73,64
85310,set_tempo,,,,,40,1,0,255319,,,,,,
85310,note_off,,,,,0,0,1,,,0,,,77,64
85350,set_tempo,,,,,40,1,0,254237,,,,,,
85430,note_off,,,,,120,0,1,,,0,,,80,64
85430,note_on,,,,,0,0,1,,,0,,,73,59
85430,note_off,,,,,240,0,2,,,0,,,66,64
85430,note_on,,,,,0,0,2,,,0,,,65,60
85430,set_tempo,,,,,80,1,0,252101,,,,,,
85430,note_on,,,,,0,0,1,,,0,,,77,59
85450,set_tempo,,,,,20,1,0,251046,,,,,,
85530,set_tempo,,,,,80,1,0,250000,,,,,,
85550,note_on,,,,,0,0,1,,,0,,,80,51
85550,note_off,,,,,120,0,1,,,0,,,73,64
85550,note_off,,,,,0,0,1,,,0,,,77,64
85630,set_tempo,,,,,100,1,0,248963,,,,,,
85670,note_on,,,,,0,0,2,,,0,,,54,69
85670,note_on,,,,,0,0,2,,,0,,,63,69
85670,note_off,,,,,0,0,2,,,0,,,61,64
85670,note_on,,,,,0,0,1,,,0,,,73,67
85670,note_on,,,,,0,0,1,,,0,,,82,67
85670,note_off,,,,,120,0,1,,,0,,,80,64
85670,note_off,,,,,240,0,2,,,0,,,65,64
85790,note_off,,,,,0,0,1,,,0,,,82,64
85790,note_off,,,,,120,0,1,,,0,,,73,64
85790,note_on,,,,,0,0,1,,,0,,,85,58
85910,note_off,,,,,120,0,1,,,0,,,85,64
85910,note_on,,,,,0,0,2,,,0,,,58,60
85910,note_off,,,,,240,0,2,,,0,,,63,64
85910,note_on,,,,,0,0,1,,,0,,,82,65
85910,note_on,,,,,0,0,1,,,0,,,73,65
85950,set_tempo,,,,,320,1,0,245902,,,,,,
85990,set_tempo,,,,,40,1,0,243902,,,,,,
86030,note_off,,,,,120,0,1,,,0,,,73,64
86030,note_on,,,,,0,0,1,,,0,,,85,56
86030,note_off,,,,,0,0,1,,,0,,,82,64
86050,set_tempo,,,,,60,1,0,242915,,,,,,
86130,set_tempo,,,,,80,1,0,241935,,,,,,
86150,note_off,,,,,120,0,1,,,0,,,85,64
86150,note_on,,,,,0,0,1,,,0,,,82,65
86150,note_on,,,,,0,0,1,,,0,,,73,65
86150,note_on,,,,,0,0,2,,,0,,,60,57
86150,note_off,,,,,240,0,2,,,0,,,58,64
86270,note_off,,,,,120,0,1,,,0,,,73,64
86270,note_off,,,,,0,0,1,,,0,,,82,64
86270,note_on,,,,,0,0,1,,,0,,,85,53
86330,note_on,,,,,0,0,2,,,0,,,63,66
86330,note_off,,,,,180,0,2,,,0,,,60,64
86360,note_off,,,,,30,0,2,,,0,,,63,64
86370,set_tempo,,,,,240,1,0,454545,,,,,,
86390,note_on,,,,,0,0,2,,,0,,,56,68
86390,note_on,,,,,0,0,1,,,0,,,73,57
86390,note_on,,,,,0,0,1,,,0,,,77,57
86390,note_off,,,,,120,0,1,,,0,,,85,64
86390,note_off,,,,,30,0,2,,,0,,,54,64
86390,note_on,,,,,0,0,2,,,0,,,61,68
86410,set_tempo,,,,,40,1,0,241935,,,,,,
86510,note_on,,,,,0,0,1,,,0,,,80,42
86510,note_off,,,,,0,0,1,,,0,,,77,64
86510,note_off,,,,,120,0,1,,,0,,,73,64
86610,set_tempo,,,,,200,1,0,242915,,,,,,
86630,note_off,,,,,240,0,2,,,0,,,61,64
86630,note_on,,,,,0,0,2,,,0,,,60,56
86630,note_on,,,,,0,0,1,,,0,,,73,48
86630,note_on,,,,,0,0,1,,,0,,,77,48
86630,note_off,,,,,120,0,1,,,0,,,80,64
86650,set_tempo,,,,,40,1,0,243902,,,,,,
86690,set_tempo,,,,,40,1,0,245902,,,,,,
86750,note_off,,,,,120,0,1,,,0,,,73,64
86750,note_off,,,,,0,0,1,,,0,,,77,64
86750,note_on,,,,,0,0,1,,,0,,,80,37
86750,set_tempo,,,,,60,1,0,246914,,,,,,
86830,set_tempo,,,,,80,1,0,247934,,,,,,
86870,note_on,,,,,0,0,2,,,0,,,61,45
86870,note_on,,,,,0,0,1,,,0,,,77,39
86870,note_on,,,,,0,0,1,,,0,,,73,39
86870,note_off,,,,,240,0,2,,,0,,,60,64
86870,note_off,,,,,120,0,1,,,0,,,80,64
86910,set_tempo,,,,,80,1,0,248963,,,,,,
86930,set_tempo,,,,,20,1,0,250000,,,,,,
86990,note_off,,,,,0,0,1,,,0,,,77,64
86990,set_tempo,,,,,60,1,0,251046,,,,,,
86990,note_on,,,,,0,0,1,,,0,,,80,32
86990,note_off,,,,,120,0,1,,,0,,,73,64
87030,set_tempo,,,,,40,1,0,252101,,,,,,
87090,set_tempo,,,,,60,1,0,254237,,,,,,
87110,note_off,,,,,240,0,2,,,0,,,61,64
87110,note_on,,,,,0,0,1,,,0,,,72,42
87110,note_on,,,,,0,0,1,,,0,,,78,42
87110,note_off,,,,,120,0,1,,,0,,,80,64
87110,note_on,,,,,0,0,2,,,0,,,63,52
87130,set_tempo,,,,,40,1,0,255319,,,,,,
87150,set_tempo,,,,,20,1,0,256410,,,,,,
87190,set_tempo,,,,,40,1,0,257511,,,,,,
87230,note_off,,,,,120,0,1,,,0,,,72,64
87230,note_on,,,,,0,0,1,,,0,,,80,31
87230,note_off,,,,,0,0,1,,,0,,,78,64
87230,set_tempo,,,,,40,1,0,258621,,,,,,
87270,set_tempo,,,,,40,1,0,260870,,,,,,
87310,set_tempo,,,,,40,1,0,263158,,,,,,
87330,set_tempo,,,,,20,1,0,264317,,,,,,
87350,note_on,,,,,0,0,1,,,0,,,78,39
87350,note_off,,,,,120,0,1,,,0,,,80,64
87350,note_on,,,,,0,0,1,,,0,,,72,39
87450,set_tempo,,,,,120,1,0,265487,,,,,,
87470,note_on,,,,,0,0,1,,,0,,,80,31
87470,note_off,,,,,0,0,1,,,0,,,78,64
87470,set_tempo,,,,,20,1,0,266667,,,,,,
87470,note_off,,,,,120,0,1,,,0,,,72,64
87550,set_tempo,,,,,80,1,0,267857,,,,,,
87590,note_on,,,,,0,0,1,,,0,,,78,39
87590,note_on,,,,,0,0,1,,,0,,,72,39
87590,note_off,,,,,120,0,1,,,0,,,80,64
87590,note_on,,,,,0,0,2,,,0,,,64,39
87590,note_off,,,,,480,0,2,,,0,,,63,64
87610,set_tempo,,,,,60,1,0,271493,,,,,,
87630,set_tempo,,,,,20,1,0,272727,,,,,,
87710,note_off,,,,,120,0,1,,,0,,,72,64
87710,note_off,,,,,0,0,1,,,0,,,78,64
87710,note_on,,,,,0,0,1,,,0,,,80,35
87710,set_tempo,,,,,80,1,0,281690,,,,,,
87730,set_tempo,,,,,20,1,0,283019,,,,,,
87770,set_tempo,,,,,40,1,0,284360,,,,,,
87800,note_off,,,,,90,0,1,,,0,,,80,64
87830,note_on,,,,,0,0,2,,,0,,,65,33
87830,note_on,,,,,0,0,2,,,0,,,61,33
87830,note_off,,,,,0,0,2,,,0,,,56,64
87830,set_tempo,,,,,60,1,0,285714,,,,,,
87830,note_off,,,,,240,0,2,,,0,,,64,64
87830,note_on,,,,,0,0,1,,,0,,,73,33
87830,note_on,,,,,0,0,1,,,0,,,77,33
87830,note_on,,,,,30,0,1,,,0,,,80,33
87860,set_tempo,,,,,30,1,0,402685,,,,,,
87880,set_tempo,,,,,20,1,0,317460,,,,,,
87900,set_tempo,,,,,20,1,0,312500,,,,,,
87920,set_tempo,,,,,20,1,0,287081,,,,,,
87940,set_tempo,,,,,20,1,0,285714,,,,,,
87950,note_off,,,,,120,0,1,,,0,,,73,64
87950,note_off,,,,,0,0,1,,,0,,,77,64
87950,note_off,,,,,0,0,1,,,0,,,80,64
87960,set_tempo,,,,,20,1,0,284360,,,,,,
87980,set_tempo,,,,,20,1,0,283019,,,,,,
88000,set_tempo,,,,,20,1,0,281690,,,,,,
88010,note_off,,,,,0,0,2,,,0,,,61,64
88010,note_off,,,,,180,0,2,,,0,,,65,64
88040,set_tempo,,,,,40,1,0,279070,,,,,,
88060,set_tempo,,,,,20,1,0,277778,,,,,,
88070,note_on,,,,,60,0,2,,,0,,,49,26
88080,set_tempo,,,,,20,1,0,276498,,,,,,
88140,set_tempo,,,,,60,1,0,275229,,,,,,
88160,set_tempo,,,,,20,1,0,273973,,,,,,
88250,note_off,,,,,180,0,2,,,0,,,49,64
88280,set_tempo,,,,,120,1,0,272727,,,,,,
88300,set_tempo,,,,,20,1,0,271493,,,,,,
88310,note_on,,,,,60,0,2,,,0,,,49,20
88340,set_tempo,,,,,40,1,0,269058,,,,,,
88360,set_tempo,,,,,20,1,0,267857,,,,,,
88420,set_tempo,,,,,60,1,0,266667,,,,,,
88440,set_tempo,,,,,20,1,0,265487,,,,,,
88490,note_off,,,,,180,0,2,,,0,,,49,64
88550,note_on,,,,,0,0,2,,,0,,,65,35
88550,note_on,,,,,60,0,2,,,0,,,61,35
88560,set_tempo,,,,,120,1,0,264317,,,,,,
88600,set_tempo,,,,,40,1,0,263158,,,,,,
88620,set_tempo,,,,,20,1,0,260870,,,,,,
88660,set_tempo,,,,,40,1,0,259740,,,,,,
88720,set_tempo,,,,,60,1,0,258621,,,,,,
88730,note_off,,,,,180,0,2,,,0,,,65,64
88730,note_off,,,,,0,0,2,,,0,,,61,64
88780,set_tempo,,,,,60,1,0,257511,,,,,,
88790,note_on,,,,,60,0,2,,,0,,,49,24
88820,set_tempo,,,,,40,1,0,256410,,,,,,
88940,set_tempo,,,,,120,1,0,255319,,,,,,
88970,note_off,,,,,180,0,2,,,0,,,49,64
89030,note_on,,,,,60,0,2,,,0,,,49,19
89040,set_tempo,,,,,100,1,0,254237,,,,,,
89140,set_tempo,,,,,100,1,0,252101,,,,,,
89210,note_off,,,,,180,0,2,,,0,,,49,64
89270,note_on,,,,,60,0,2,,,0,,,61,40
89270,note_on,,,,,0,0,2,,,0,,,65,40
89270,note_on,,,,,1320,0,1,,,0,,,73,43
89290,note_on,,,,,20,0,1,,,0,,,77,43
89310,note_on,,,,,20,0,1,,,0,,,80,43
89360,set_tempo,,,,,220,1,0,251046,,,,,,
89450,note_off,,,,,140,0,1,,,0,,,73,64
89450,note_off,,,,,180,0,2,,,0,,,65,64
89450,note_off,,,,,0,0,2,,,0,,,61,64
89470,note_off,,,,,20,0,1,,,0,,,77,64
89490,note_off,,,,,20,0,1,,,0,,,80,64
89510,note_on,,,,,20,0,1,,,0,,,78,31
89510,note_on,,,,,60,0,2,,,0,,,49,31
89600,note_off,,,,,90,0,1,,,0,,,78,64
89630,note_on,,,,,30,0,1,,,0,,,77,28
89690,note_off,,,,,180,0,2,,,0,,,49,64
89720,note_off,,,,,90,0,1,,,0,,,77,64
89750,note_on,,,,,60,0,2,,,0,,,49,24
89750,note_on,,,,,30,0,1,,,0,,,75,25
89840,note_off,,,,,90,0,1,,,0,,,75,64
89870,note_on,,,,,30,0,1,,,0,,,73,22
89930,note_off,,,,,180,0,2,,,0,,,49,64
89960,note_off,,,,,90,0,1,,,0,,,73,64
89990,note_on,,,,,60,0,2,,,0,,,61,40
89990,note_on,,,,,0,0,2,,,0,,,66,40
89990,note_on,,,,,30,0,1,,,0,,,68,44
90010,note_on,,,,,20,0,1,,,0,,,72,44
90030,note_on,,,,,20,0,1,,,0,,,75,44
90170,note_off,,,,,140,0,1,,,0,,,68,64
90170,note_off,,,,,180,0,2,,,0,,,66,64
90170,note_off,,,,,0,0,2,,,0,,,61,64
90190,note_off,,,,,20,0,1,,,0,,,72,64
90210,note_off,,,,,20,0,1,,,0,,,75,64
90230,note_on,,,,,20,0,1,,,0,,,73,36
90230,note_on,,,,,60,0,2,,,0,,,49,31
90320,note_off,,,,,90,0,1,,,0,,,73,64
90350,note_on,,,,,30,0,1,,,0,,,72,32
90410,note_off,,,,,180,0,2,,,0,,,49,64
90440,note_off,,,,,90,0,1,,,0,,,72,64
90470,note_on,,,,,60,0,2,,,0,,,49,24
90470,note_on,,,,,30,0,1,,,0,,,70,27
90560,note_off,,,,,90,0,1,,,0,,,70,64
90590,note_on,,,,,30,0,1,,,0,,,68,22
90650,note_off,,,,,180,0,2,,,0,,,49,64
90680,note_off,,,,,90,0,1,,,0,,,68,64
90710,note_on,,,,,30,0,1,,,0,,,73,46
90710,note_on,,,,,60,0,2,,,0,,,61,40
90710,note_on,,,,,0,0,2,,,0,,,65,40
90730,note_on,,,,,20,0,1,,,0,,,77,46
90750,note_on,,,,,20,0,1,,,0,,,80,46
90890,note_off,,,,,0,0,2,,,0,,,61,64
90890,note_off,,,,,180,0,2,,,0,,,65,64
90890,note_off,,,,,140,0,1,,,0,,,73,64
90910,note_off,,,,,20,0,1,,,0,,,77,64
90930,note_off,,,,,20,0,1,,,0,,,80,64
90950,note_on,,,,,60,0,2,,,0,,,49,41
90950,note_on,,,,,20,0,1,,,0,,,78,31
91040,note_off,,,,,90,0,1,,,0,,,78,64
91070,note_on,,,,,30,0,1,,,0,,,77,38
91130,note_off,,,,,180,0,2,,,0,,,49,64
91160,note_off,,,,,90,0,1,,,0,,,77,64
91190,note_on,,,,,30,0,1,,,0,,,75,47
91190,note_on,,,,,60,0,2,,,0,,,49,57
91280,note_off,,,,,90,0,1,,,0,,,75,64
91310,note_on,,,,,30,0,1,,,0,,,73,53
91370,note_off,,,,,180,0,2,,,0,,,49,64
91400,note_off,,,,,90,0,1,,,0,,,73,64
91430,note_on,,,,,0,0,2,,,0,,,66,79
91430,note_on,,,,,60,0,2,,,0,,,61,79
91430,note_on,,,,,0,0,1,,,0,,,78,76
91430,note_on,,,,,0,0,1,,,0,,,82,76
91430,note_on,,,,,30,0,1,,,0,,,85,76
91610,note_off,,,,,0,0,1,,,0,,,85,64
91610,note_off,,,,,180,0,1,,,0,,,78,64
91610,note_off,,,,,0,0,2,,,0,,,61,64
91610,note_off,,,,,180,0,2,,,0,,,66,64
91610,note_off,,,,,0,0,1,,,0,,,82,64
91670,note_on,,,,,60,0,1,,,0,,,85,37
91670,note_on,,,,,0,0,1,,,0,,,82,37
91670,note_on,,,,,60,0,2,,,0,,,49,44
91670,note_on,,,,,0,0,1,,,0,,,78,37
91850,note_off,,,,,180,0,1,,,0,,,78,64
91850,note_off,,,,,0,0,1,,,0,,,82,64
91850,note_off,,,,,180,0,2,,,0,,,49,64
91850,note_off,,,,,0,0,1,,,0,,,85,64
91910,note_on,,,,,60,0,2,,,0,,,49,38
91910,note_on,,,,,60,0,1,,,0,,,85,26
91910,note_on,,,,,0,0,1,,,0,,,82,26
91910,note_on,,,,,0,0,1,,,0,,,78,26
92090,note_off,,,,,0,0,1,,,0,,,82,64
92090,note_off,,,,,0,0,1,,,0,,,85,64
92090,note_off,,,,,180,0,1,,,0,,,78,64
92090,note_off,,,,,180,0,2,,,0,,,49,64
92100,set_tempo,,,,,2740,1,0,250000,,,,,,
92150,note_on,,,,,0,0,2,,,0,,,61,44
92150,note_on,,,,,60,0,2,,,0,,,66,44
92150,note_on,,,,,0,0,2,,,0,,,58,44
92330,note_off,,,,,180,0,2,,,0,,,61,64
92330,note_off,,,,,0,0,2,,,0,,,58,64
92330,note_off,,,,,0,0,2,,,0,,,66,64
92390,note_on,,,,,60,0,2,,,0,,,49,35
92570,note_off,,,,,180,0,2,,,0,,,49,64
92630,note_on,,,,,60,0,2,,,0,,,49,30
92810,note_off,,,,,180,0,2,,,0,,,49,64
92870,note_on,,,,,60,0,2,,,0,,,58,39
92870,note_on,,,,,0,0,2,,,0,,,66,39
92870,note_on,,,,,0,0,2,,,0,,,61,39
93050,note_off,,,,,0,0,2,,,0,,,61,64
93050,note_off,,,,,0,0,2,,,0,,,58,64
93050,note_off,,,,,180,0,2,,,0,,,66,64
93110,note_on,,,,,60,0,2,,,0,,,49,30
93290,note_off,,,,,180,0,2,,,0,,,49,64
93350,note_on,,,,,60,0,2,,,0,,,49,24
93520,set_tempo,,,,,1420,1,0,251046,,,,,,
93530,note_off,,,,,180,0,2,,,0,,,49,64
93590,note_on,,,,,60,0,2,,,0,,,61,35
93590,note_on,,,,,0,0,2,,,0,,,56,35
93590,note_on,,,,,1500,0,1,,,0,,,65,41
93720,set_tempo,,,,,200,1,0,252101,,,,,,
93770,note_off,,,,,180,0,2,,,0,,,56,64
93770,note_off,,,,,0,0,2,,,0,,,61,64
93830,note_off,,,,,240,0,1,,,0,,,65,64
93830,note_on,,,,,60,0,2,,,0,,,49,29
93830,note_on,,,,,0,0,1,,,0,,,66,31
93960,set_tempo,,,,,240,1,0,254237,,,,,,
93980,set_tempo,,,,,20,1,0,255319,,,,,,
94010,note_off,,,,,180,0,2,,,0,,,49,64
94070,note_on,,,,,0,0,1,,,0,,,65,34
94070,note_on,,,,,60,0,2,,,0,,,49,20
94070,note_off,,,,,240,0,1,,,0,,,66,64
94250,note_off,,,,,180,0,2,,,0,,,49,64
94260,set_tempo,,,,,280,1,0,256410,,,,,,
94310,note_off,,,,,240,0,1,,,0,,,65,64
94310,note_on,,,,,0,0,1,,,0,,,63,41
94310,note_on,,,,,60,0,2,,,0,,,54,35
94310,note_on,,,,,0,0,2,,,0,,,58,35
94490,note_off,,,,,180,0,2,,,0,,,58,64
94490,note_off,,,,,0,0,2,,,0,,,54,64
94540,set_tempo,,,,,280,1,0,257511,,,,,,
94550,note_on,,,,,0,0,1,,,0,,,65,30
94550,note_on,,,,,60,0,2,,,0,,,42,28
94550,note_off,,,,,240,0,1,,,0,,,63,64
94670,note_off,,,,,120,0,1,,,0,,,65,64
94670,note_on,,,,,0,0,1,,,0,,,66,32
94700,set_tempo,,,,,160,1,0,258621,,,,,,
94730,note_off,,,,,180,0,2,,,0,,,42,64
94790,note_on,,,,,0,0,1,,,0,,,68,37
94790,note_off,,,,,120,0,1,,,0,,,66,64
94790,note_on,,,,,60,0,2,,,0,,,42,21
94910,note_off,,,,,120,0,1,,,0,,,68,64
94910,note_on,,,,,0,0,1,,,0,,,70,43
94970,note_off,,,,,180,0,2,,,0,,,42,64
95000,set_tempo,,,,,300,1,0,259740,,,,,,
95030,note_on,,,,,0,0,1,,,0,,,72,47
95030,note_off,,,,,120,0,1,,,0,,,70,64
95030,note_on,,,,,60,0,2,,,0,,,63,40
95030,note_on,,,,,0,0,2,,,0,,,66,40
95210,note_off,,,,,180,0,2,,,0,,,66,64
95210,note_off,,,,,0,0,2,,,0,,,63,64
95270,note_on,,,,,60,0,2,,,0,,,56,31
95270,note_off,,,,,240,0,1,,,0,,,72,64
95270,note_on,,,,,0,0,1,,,0,,,70,30
95390,note_on,,,,,0,0,1,,,0,,,72,34
95390,note_off,,,,,120,0,1,,,0,,,70,64
95400,set_tempo,,,,,400,1,0,260870,,,,,,
95450,note_off,,,,,180,0,2,,,0,,,56,64
95510,note_on,,,,,0,0,1,,,0,,,73,37
95510,note_off,,,,,120,0,1,,,0,,,72,64
95510,note_on,,,,,60,0,2,,,0,,,56,24
95600,set_tempo,,,,,200,1,0,263158,,,,,,
95630,note_off,,,,,120,0,1,,,0,,,73,64
95630,note_on,,,,,0,0,1,,,0,,,75,45
95690,note_off,,,,,180,0,2,,,0,,,56,64
95740,set_tempo,,,,,140,1,0,264317,,,,,,
95750,note_off,,,,,120,0,1,,,0,,,75,64
95750,note_on,,,,,0,0,1,,,0,,,77,53
95750,note_on,,,,,60,0,2,,,0,,,65,40
95750,note_on,,,,,0,0,2,,,0,,,61,40
95820,set_tempo,,,,,80,1,0,263158,,,,,,
95930,note_off,,,,,180,0,1,,,0,,,77,64
95930,note_off,,,,,180,0,2,,,0,,,61,64
95930,note_off,,,,,0,0,2,,,0,,,65,64
95980,set_tempo,,,,,160,1,0,260870,,,,,,
95990,note_on,,,,,60,0,1,,,0,,,77,36
95990,note_on,,,,,60,0,2,,,0,,,49,31
96170,note_off,,,,,180,0,1,,,0,,,77,64
96170,note_off,,,,,180,0,2,,,0,,,49,64
96180,set_tempo,,,,,200,1,0,259740,,,,,,
96230,note_on,,,,,60,0,1,,,0,,,77,29
96230,note_on,,,,,60,0,2,,,0,,,49,24
96400,set_tempo,,,,,220,1,0,258621,,,,,,
96410,note_off,,,,,180,0,2,,,0,,,49,64
96410,note_off,,,,,180,0,1,,,0,,,77,64
96470,note_on,,,,,60,0,2,,,0,,,65,40
96470,note_on,,,,,0,0,2,,,0,,,61,40
96520,set_tempo,,,,,120,1,0,257511,,,,,,
96650,note_off,,,,,180,0,2,,,0,,,61,64
96650,note_off,,,,,0,0,2,,,0,,,65,64
96710,note_on,,,,,60,0,2,,,0,,,49,31
96760,set_tempo,,,,,240,1,0,256410,,,,,,
96890,note_off,,,,,180,0,2,,,0,,,49,64
96900,set_tempo,,,,,140,1,0,255319,,,,,,
96950,note_on,,,,,60,0,2,,,0,,,49,24
97100,set_tempo,,,,,200,1,0,254237,,,,,,
97130,note_off,,,,,180,0,2,,,0,,,49,64
97180,set_tempo,,,,,80,1,0,252101,,,,,,
97190,note_on,,,,,60,0,2,,,0,,,61,35
97190,note_on,,,,,0,0,2,,,0,,,65,35
97370,note_off,,,,,180,0,2,,,0,,,65,64
97370,note_off,,,,,0,0,2,,,0,,,61,64
97430,note_on,,,,,60,0,2,,,0,,,49,30
97440,set_tempo,,,,,260,1,0,251046,,,,,,
97560,set_tempo,,,,,120,1,0,250000,,,,,,
97610,note_off,,,,,180,0,2,,,0,,,49,64
97670,note_on,,,,,60,0,2,,,0,,,49,21
97850,note_off,,,,,180,0,2,,,0,,,49,64
97910,note_on,,,,,0,0,2,,,0,,,61,40
97910,note_on,,,,,60,0,2,,,0,,,65,40
97910,note_on,,,,,1500,0,1,,,0,,,73,43
97920,set_tempo,,,,,360,1,0,248963,,,,,,
97930,note_on,,,,,20,0,1,,,0,,,77,43
97950,note_on,,,,,20,0,1,,,0,,,80,43
98090,note_off,,,,,0,0,2,,,0,,,65,64
98090,note_off,,,,,180,0,2,,,0,,,61,64
98090,note_off,,,,,140,0,1,,,0,,,73,64
98110,note_off,,,,,20,0,1,,,0,,,77,64
98130,note_off,,,,,20,0,1,,,0,,,80,64
98150,note_on,,,,,60,0,2,,,0,,,49,31
98150,note_on,,,,,20,0,1,,,0,,,78,31
98240,note_off,,,,,90,0,1,,,0,,,78,64
98270,note_on,,,,,30,0,1,,,0,,,77,28
98330,note_off,,,,,180,0,2,,,0,,,49,64
98360,note_off,,,,,90,0,1,,,0,,,77,64
98390,note_on,,,,,60,0,2,,,0,,,49,24
98390,note_on,,,,,30,0,1,,,0,,,75,25
98480,note_off,,,,,90,0,1,,,0,,,75,64
98510,note_on,,,,,30,0,1,,,0,,,73,22
98570,note_off,,,,,180,0,2,,,0,,,49,64
98600,note_off,,,,,90,0,1,,,0,,,73,64
98630,note_on,,,,,0,0,2,,,0,,,61,35
98630,note_on,,,,,30,0,1,,,0,,,68,44
98630,note_on,,,,,60,0,2,,,0,,,66,35
98650,note_on,,,,,20,0,1,,,0,,,72,44
98670,note_on,,,,,20,0,1,,,0,,,75,44
98810,note_off,,,,,0,0,2,,,0,,,66,64
98810,note_off,,,,,140,0,1,,,0,,,68,64
98810,note_off,,,,,180,0,2,,,0,,,61,64
98830,note_off,,,,,20,0,1,,,0,,,72,64
98850,note_off,,,,,20,0,1,,,0,,,75,64
98870,note_on,,,,,60,0,2,,,0,,,49,29
98870,note_on,,,,,20,0,1,,,0,,,73,36
98960,note_off,,,,,90,0,1,,,0,,,73,64
98990,note_on,,,,,30,0,1,,,0,,,72,32
99050,note_off,,,,,180,0,2,,,0,,,49,64
99080,note_off,,,,,90,0,1,,,0,,,72,64
99110,note_on,,,,,30,0,1,,,0,,,70,27
99110,note_on,,,,,60,0,2,,,0,,,49,20
99200,note_off,,,,,90,0,1,,,0,,,70,64
99230,note_on,,,,,30,0,1,,,0,,,68,22
99290,note_off,,,,,180,0,2,,,0,,,49,64
99320,note_off,,,,,90,0,1,,,0,,,68,64
99350,note_on,,,,,30,0,1,,,0,,,73,46
99350,note_on,,,,,60,0,2,,,0,,,61,35
99350,note_on,,,,,0,0,2,,,0,,,65,35
99370,note_on,,,,,20,0,1,,,0,,,77,46
99390,note_on,,,,,20,0,1,,,0,,,80,46
99440,set_tempo,,,,,1520,1,0,251046,,,,,,
99480,set_tempo,,,,,40,1,0,252101,,,,,,
99530,note_off,,,,,0,0,2,,,0,,,61,64
99530,note_off,,,,,140,0,1,,,0,,,73,64
99530,note_off,,,,,180,0,2,,,0,,,65,64
99550,note_off,,,,,20,0,1,,,0,,,77,64
99570,note_off,,,,,20,0,1,,,0,,,80,64
99580,set_tempo,,,,,100,1,0,254237,,,,,,
99590,note_on,,,,,60,0,2,,,0,,,49,39
99590,note_on,,,,,20,0,1,,,0,,,78,31
99600,set_tempo,,,,,20,1,0,255319,,,,,,
99640,set_tempo,,,,,40,1,0,256410,,,,,,
99660,set_tempo,,,,,20,1,0,257511,,,,,,
99680,set_tempo,,,,,20,1,0,258621,,,,,,
99680,note_off,,,,,90,0,1,,,0,,,78,64
99700,set_tempo,,,,,20,1,0,259740,,,,,,
99710,note_on,,,,,30,0,1,,,0,,,77,38
99720,set_tempo,,,,,20,1,0,260870,,,,,,
99740,set_tempo,,,,,20,1,0,263158,,,,,,
99760,set_tempo,,,,,20,1,0,264317,,,,,,
99770,note_off,,,,,180,0,2,,,0,,,49,64
99780,set_tempo,,,,,20,1,0,266667,,,,,,
99800,note_off,,,,,90,0,1,,,0,,,77,64
99820,set_tempo,,,,,40,1,0,267857,,,,,,
99830,note_on,,,,,30,0,1,,,0,,,75,47
99830,note_on,,,,,60,0,2,,,0,,,49,51
99840,set_tempo,,,,,20,1,0,271493,,,,,,
99860,set_tempo,,,,,20,1,0,279070,,,,,,
99920,note_off,,,,,90,0,1,,,0,,,75,64
99950,note_on,,,,,30,0,1,,,0,,,73,53
99980,set_tempo,,,,,120,1,0,292683,,,,,,
100000,set_tempo,,,,,20,1,0,295567,,,,,,
100010,note_off,,,,,180,0,2,,,0,,,49,64
100020,set_tempo,,,,,20,1,0,298507,,,,,,
100040,set_tempo,,,,,20,1,0,310881,,,,,,
100040,note_off,,,,,90,0,1,,,0,,,73,64
100060,set_tempo,,,,,20,1,0,320856,,,,,,
100070,note_on,,,,,0,0,1,,,0,,,81,76
100070,note_on,,,,,30,0,1,,,0,,,85,76
100070,note_on,,,,,0,0,2,,,0,,,66,76
100070,note_on,,,,,60,0,2,,,0,,,61,76
100070,note_on,,,,,0,0,1,,,0,,,78,76
100080,set_tempo,,,,,20,1,0,317460,,,,,,
100100,set_tempo,,,,,20,1,0,315789,,,,,,
100120,set_tempo,,,,,20,1,0,310881,,,,,,
100140,set_tempo,,,,,20,1,0,306122,,,,,,
100160,set_tempo,,,,,20,1,0,303030,,,,,,
100180,set_tempo,,,,,20,1,0,298507,,,,,,
100220,set_tempo,,,,,40,1,0,288462,,,,,,
100240,set_tempo,,,,,20,1,0,285714,,,,,,
100250,note_off,,,,,0,0,1,,,0,,,85,64
100250,note_off,,,,,0,0,1,,,0,,,81,64
100250,note_off,,,,,180,0,1,,,0,,,78,64
100250,note_off,,,,,180,0,2,,,0,,,66,64
100250,note_off,,,,,0,0,2,,,0,,,61,64
100260,set_tempo,,,,,20,1,0,283019,,,,,,
100280,set_tempo,,,,,20,1,0,281690,,,,,,
100300,set_tempo,,,,,20,1,0,277778,,,,,,
100310,note_on,,,,,60,0,2,,,0,,,49,53
100310,note_on,,,,,0,0,1,,,0,,,78,37
100310,note_on,,,,,60,0,1,,,0,,,85,37
100310,note_on,,,,,0,0,1,,,0,,,81,37
100320,set_tempo,,,,,20,1,0,275229,,,,,,
100340,set_tempo,,,,,20,1,0,273973,,,,,,
100360,set_tempo,,,,,20,1,0,272727,,,,,,
100380,set_tempo,,,,,20,1,0,271493,,,,,,
100400,set_tempo,,,,,20,1,0,269058,,,,,,
100420,set_tempo,,,,,20,1,0,267857,,,,,,
100460,set_tempo,,,,,40,1,0,265487,,,,,,
100480,set_tempo,,,,,20,1,0,264317,,,,,,
100490,note_off,,,,,180,0,2,,,0,,,49,64
100490,note_off,,,,,180,0,1,,,0,,,78,64
100490,note_off,,,,,0,0,1,,,0,,,81,64
100490,note_off,,,,,0,0,1,,,0,,,85,64
100500,set_tempo,,,,,20,1,0,263158,,,,,,
100550,note_on,,,,,60,0,2,,,0,,,49,34
100550,note_on,,,,,0,0,1,,,0,,,78,26
100550,note_on,,,,,60,0,1,,,0,,,85,26
100550,note_on,,,,,0,0,1,,,0,,,81,26
100560,set_tempo,,,,,60,1,0,259740,,,,,,
100730,note_off,,,,,180,0,2,,,0,,,49,64
100730,note_off,,,,,180,0,1,,,0,,,78,64
100730,note_off,,,,,0,0,1,,,0,,,81,64
100730,note_off,,,,,0,0,1,,,0,,,85,64
100790,note_on,,,,,60,0,2,,,0,,,57,36
100790,note_on,,,,,0,0,2,,,0,,,61,36
100790,note_on,,,,,0,0,2,,,0,,,66,36
100960,set_tempo,,,,,400,1,0,258621,,,,,,
100970,note_off,,,,,0,0,2,,,0,,,57,64
100970,note_off,,,,,0,0,2,,,0,,,66,64
100970,note_off,,,,,180,0,2,,,0,,,61,64
101020,set_tempo,,,,,60,1,0,257511,,,,,,
101030,note_on,,,,,60,0,2,,,0,,,54,28
101140,set_tempo,,,,,120,1,0,256410,,,,,,
101210,note_off,,,,,180,0,2,,,0,,,54,64
101260,set_tempo,,,,,120,1,0,255319,,,,,,
101270,note_on,,,,,60,0,2,,,0,,,54,20
101420,set_tempo,,,,,160,1,0,254237,,,,,,
101450,note_off,,,,,180,0,2,,,0,,,54,64
101500,set_tempo,,,,,80,1,0,252101,,,,,,
101510,note_on,,,,,60,0,2,,,0,,,57,36
101510,note_on,,,,,0,0,2,,,0,,,66,36
101510,note_on,,,,,0,0,2,,,0,,,61,36
101640,set_tempo,,,,,140,1,0,251046,,,,,,
101690,note_off,,,,,180,0,2,,,0,,,61,64
101690,note_off,,,,,0,0,2,,,0,,,66,64
101690,note_off,,,,,0,0,2,,,0,,,57,64
101750,note_on,,,,,60,0,2,,,0,,,54,30
101780,set_tempo,,,,,140,1,0,250000,,,,,,
101930,note_off,,,,,180,0,2,,,0,,,54,64
101990,note_on,,,,,60,0,2,,,0,,,54,21
102170,note_off,,,,,180,0,2,,,0,,,54,64
102230,note_on,,,,,60,0,2,,,0,,,57,35
102230,note_on,,,,,0,0,2,,,0,,,61,35
102230,note_on,,,,,0,0,2,,,0,,,66,35
102230,note_on,,,,,1500,0,1,,,0,,,73,41
102410,note_off,,,,,180,0,2,,,0,,,66,64
102410,note_off,,,,,0,0,2,,,0,,,61,64
102410,note_off,,,,,0,0,2,,,0,,,57,64
102470,note_off,,,,,240,0,1,,,0,,,73,64
102470,note_on,,,,,0,0,1,,,0,,,74,31
102470,note_on,,,,,60,0,2,,,0,,,54,25
102650,note_off,,,,,180,0,2,,,0,,,54,64
102660,set_tempo,,,,,880,1,0,248963,,,,,,
102710,note_on,,,,,0,0,1,,,0,,,73,34
102710,note_off,,,,,240,0,1,,,0,,,74,64
102710,note_on,,,,,60,0,2,,,0,,,54,24
102890,note_off,,,,,180,0,2,,,0,,,54,64
102900,set_tempo,,,,,240,1,0,247934,,,,,,
102950,note_off,,,,,240,0,1,,,0,,,73,64
102950,note_on,,,,,0,0,1,,,0,,,71,41
102950,note_on,,,,,0,0,2,,,0,,,66,40
102950,note_on,,,,,60,0,2,,,0,,,62,40
103130,note_off,,,,,0,0,2,,,0,,,62,64
103130,note_off,,,,,180,0,2,,,0,,,66,64
103190,note_on,,,,,0,0,1,,,0,,,73,30
103190,note_on,,,,,60,0,2,,,0,,,50,31
103190,note_off,,,,,240,0,1,,,0,,,71,64
103310,note_on,,,,,0,0,1,,,0,,,74,32
103310,note_off,,,,,120,0,1,,,0,,,73,64
103370,note_off,,,,,180,0,2,,,0,,,50,64
103430,note_off,,,,,120,0,1,,,0,,,74,64
103430,note_on,,,,,0,0,1,,,0,,,76,37
103430,note_on,,,,,60,0,2,,,0,,,50,24
103550,note_on,,,,,0,0,1,,,0,,,78,43
103550,note_off,,,,,120,0,1,,,0,,,76,64
103610,note_off,,,,,180,0,2,,,0,,,50,64
103670,note_on,,,,,60,0,2,,,0,,,62,40
103670,note_on,,,,,0,0,2,,,0,,,64,40
103670,note_on,,,,,0,0,1,,,0,,,80,47
103670,note_off,,,,,120,0,1,,,0,,,78,64
103680,set_tempo,,,,,780,1,0,248963,,,,,,
103720,set_tempo,,,,,40,1,0,250000,,,,,,
103800,set_tempo,,,,,80,1,0,252101,,,,,,
103820,set_tempo,,,,,20,1,0,255319,,,,,,
103850,note_off,,,,,180,0,2,,,0,,,64,64
103850,note_off,,,,,0,0,2,,,0,,,62,64
103900,set_tempo,,,,,80,1,0,256410,,,,,,
103910,note_on,,,,,60,0,2,,,0,,,52,31
103910,note_off,,,,,240,0,1,,,0,,,80,64
103910,note_on,,,,,0,0,1,,,0,,,78,30
103940,set_tempo,,,,,40,1,0,257511,,,,,,
103960,set_tempo,,,,,20,1,0,259740,,,,,,
104030,note_off,,,,,120,0,1,,,0,,,78,64
104030,note_on,,,,,0,0,1,,,0,,,80,34
104040,set_tempo,,,,,80,1,0,260870,,,,,,
104060,set_tempo,,,,,20,1,0,264317,,,,,,
104080,set_tempo,,,,,20,1,0,265487,,,,,,
104090,note_off,,,,,180,0,2,,,0,,,52,64
104100,set_tempo,,,,,20,1,0,266667,,,,,,
104120,set_tempo,,,,,20,1,0,267857,,,,,,
104140,set_tempo,,,,,20,1,0,271493,,,,,,
104150,note_on,,,,,60,0,2,,,0,,,52,24
104150,note_off,,,,,120,0,1,,,0,,,80,64
104150,note_on,,,,,0,0,1,,,0,,,81,37
104160,set_tempo,,,,,20,1,0,272727,,,,,,
104180,set_tempo,,,,,20,1,0,273973,,,,,,
104200,set_tempo,,,,,20,1,0,276498,,,,,,
104240,set_tempo,,,,,40,1,0,277778,,,,,,
104270,note_on,,,,,0,0,1,,,0,,,83,45
104270,note_off,,,,,120,0,1,,,0,,,81,64
104280,set_tempo,,,,,40,1,0,283019,,,,,,
104320,set_tempo,,,,,40,1,0,284360,,,,,,
104330,note_off,,,,,180,0,2,,,0,,,52,64
104340,set_tempo,,,,,20,1,0,285714,,,,,,
104380,set_tempo,,,,,40,1,0,287081,,,,,,
104390,note_on,,,,,0,0,1,,,0,,,85,53
104390,note_on,,,,,60,0,2,,,0,,,64,40
104390,note_off,,,,,120,0,1,,,0,,,83,64
104390,note_on,,,,,0,0,2,,,0,,,61,40
104420,set_tempo,,,,,40,1,0,288462,,,,,,
104440,set_tempo,,,,,20,1,0,289855,,,,,,
104480,set_tempo,,,,,40,1,0,288462,,,,,,
104500,set_tempo,,,,,20,1,0,287081,,,,,,
104560,set_tempo,,,,,60,1,0,285714,,,,,,
104570,note_off,,,,,180,0,2,,,0,,,61,64
104570,note_off,,,,,0,0,2,,,0,,,64,64
104570,note_off,,,,,180,0,1,,,0,,,85,64
104580,set_tempo,,,,,20,1,0,284360,,,,,,
104620,set_tempo,,,,,40,1,0,283019,,,,,,
104630,note_on,,,,,60,0,2,,,0,,,57,31
104630,note_on,,,,,60,0,1,,,0,,,85,36
104640,set_tempo,,,,,20,1,0,281690,,,,,,
104700,set_tempo,,,,,60,1,0,279070,,,,,,
104720,set_tempo,,,,,20,1,0,277778,,,,,,
104760,set_tempo,,,,,40,1,0,276498,,,,,,
104800,set_tempo,,,,,40,1,0,275229,,,,,,
104810,note_off,,,,,180,0,1,,,0,,,85,64
104810,note_off,,,,,180,0,2,,,0,,,57,64
104840,set_tempo,,,,,40,1,0,273973,,,,,,
104870,note_on,,,,,60,0,2,,,0,,,57,24
104870,note_on,,,,,60,0,1,,,0,,,85,29
104900,set_tempo,,,,,60,1,0,271493,,,,,,
104920,set_tempo,,,,,20,1,0,269058,,,,,,
104960,set_tempo,,,,,40,1,0,267857,,,,,,
105050,note_off,,,,,180,0,2,,,0,,,57,64
105050,note_off,,,,,180,0,1,,,0,,,85,64
105080,set_tempo,,,,,120,1,0,266667,,,,,,
105110,note_on,,,,,0,0,2,,,0,,,64,40
105110,note_on,,,,,60,0,2,,,0,,,61,40
105120,set_tempo,,,,,40,1,0,265487,,,,,,
105280,set_tempo,,,,,160,1,0,263158,,,,,,
105290,note_off,,,,,0,0,2,,,0,,,61,64
105290,note_off,,,,,180,0,2,,,0,,,64,64
105300,set_tempo,,,,,20,1,0,260870,,,,,,
105350,note_on,,,,,60,0,2,,,0,,,57,31
105440,set_tempo,,,,,140,1,0,259740,,,,,,
105480,set_tempo,,,,,40,1,0,258621,,,,,,
105530,note_off,,,,,180,0,2,,,0,,,57,64
105590,note_on,,,,,60,0,2,,,0,,,57,24
105600,set_tempo,,,,,120,1,0,257511,,,,,,
105660,set_tempo,,,,,60,1,0,256410,,,,,,
105770,note_off,,,,,180,0,2,,,0,,,57,64
105830,note_on,,,,,60,0,2,,,0,,,64,40
105830,note_on,,,,,0,0,2,,,0,,,61,40
105830,note_on,,,,,780,0,1,,,0,,,73,41
106010,note_off,,,,,180,0,2,,,0,,,61,64
106010,note_off,,,,,0,0,2,,,0,,,64,64
106020,set_tempo,,,,,360,1,0,255319,,,,,,
106070,note_on,,,,,60,0,2,,,0,,,57,31
106070,note_off,,,,,240,0,1,,,0,,,73,64
106070,note_on,,,,,0,0,1,,,0,,,73,31
106100,set_tempo,,,,,80,1,0,254237,,,,,,
106250,note_off,,,,,180,0,2,,,0,,,57,64
106310,note_on,,,,,0,0,1,,,0,,,73,34
106310,note_off,,,,,240,0,1,,,0,,,73,64
106310,note_on,,,,,60,0,2,,,0,,,57,24
106340,set_tempo,,,,,240,1,0,252101,,,,,,
106380,set_tempo,,,,,40,1,0,251046,,,,,,
106460,set_tempo,,,,,80,1,0,250000,,,,,,
106490,note_off,,,,,180,0,2,,,0,,,57,64
106550,note_on,,,,,60,0,2,,,0,,,61,40
106550,note_on,,,,,0,0,2,,,0,,,64,40
106550,note_on,,,,,0,0,1,,,0,,,73,41
106550,note_off,,,,,240,0,1,,,0,,,73,64
106600,set_tempo,,,,,140,1,0,248963,,,,,,
106730,note_off,,,,,180,0,2,,,0,,,64,64
106730,note_off,,,,,0,0,2,,,0,,,61,64
106790,note_on,,,,,60,0,2,,,0,,,58,37
106790,note_on,,,,,0,0,1,,,0,,,76,37
106790,note_off,,,,,240,0,1,,,0,,,73,64
106910,note_on,,,,,0,0,1,,,0,,,74,40
106910,note_off,,,,,120,0,1,,,0,,,76,64
106940,set_tempo,,,,,340,1,0,246914,,,,,,
106970,note_off,,,,,180,0,2,,,0,,,58,64
106980,set_tempo,,,,,40,1,0,247934,,,,,,
107030,note_on,,,,,60,0,2,,,0,,,58,43
107030,note_off,,,,,120,0,1,,,0,,,74,64
107030,note_on,,,,,0,0,1,,,0,,,73,44
107100,set_tempo,,,,,120,1,0,248963,,,,,,
107150,note_off,,,,,120,0,1,,,0,,,73,64
107150,note_on,,,,,0,0,1,,,0,,,76,48
107210,note_off,,,,,180,0,2,,,0,,,58,64
107260,set_tempo,,,,,160,1,0,250000,,,,,,
107270,note_on,,,,,0,0,2,,,0,,,64,52
107270,note_on,,,,,60,0,2,,,0,,,62,52
107270,note_off,,,,,120,0,1,,,0,,,76,64
107270,note_on,,,,,0,0,1,,,0,,,74,49
107320,set_tempo,,,,,60,1,0,251046,,,,,,
107360,set_tempo,,,,,40,1,0,252101,,,,,,
107450,note_off,,,,,180,0,1,,,0,,,74,64
107450,note_off,,,,,180,0,2,,,0,,,64,64
107450,note_off,,,,,0,0,2,,,0,,,62,64
107510,note_on,,,,,60,0,2,,,0,,,59,42
107510,note_on,,,,,60,0,1,,,0,,,74,39
107540,set_tempo,,,,,180,1,0,254237,,,,,,
107620,set_tempo,,,,,80,1,0,255319,,,,,,
107680,set_tempo,,,,,60,1,0,256410,,,,,,
107690,note_off,,,,,180,0,1,,,0,,,74,64
107690,note_off,,,,,180,0,2,,,0,,,59,64
107720,set_tempo,,,,,40,1,0,257511,,,,,,
107750,note_on,,,,,60,0,1,,,0,,,74,42
107750,note_on,,,,,60,0,2,,,0,,,59,35
107820,set_tempo,,,,,100,1,0,258621,,,,,,
107880,set_tempo,,,,,60,1,0,259740,,,,,,
107930,note_off,,,,,180,0,1,,,0,,,74,64
107930,note_off,,,,,180,0,2,,,0,,,59,64
107940,set_tempo,,,,,60,1,0,260870,,,,,,
107960,set_tempo,,,,,20,1,0,263158,,,,,,
107990,note_on,,,,,60,0,2,,,0,,,62,39
107990,note_on,,,,,0,0,2,,,0,,,64,39
107990,note_on,,,,,60,0,1,,,0,,,86,53
108060,set_tempo,,,,,100,1,0,264317,,,,,,
108100,set_tempo,,,,,40,1,0,265487,,,,,,
108140,set_tempo,,,,,40,1,0,266667,,,,,,
108170,note_off,,,,,180,0,2,,,0,,,64,64
108170,note_off,,,,,0,0,2,,,0,,,62,64
108170,note_off,,,,,180,0,1,,,0,,,86,64
108180,set_tempo,,,,,40,1,0,267857,,,,,,
108230,note_on,,,,,60,0,2,,,0,,,59,36
108230,note_on,,,,,60,0,1,,,0,,,86,36
108320,set_tempo,,,,,140,1,0,269058,,,,,,
108380,set_tempo,,,,,60,1,0,271493,,,,,,
108410,note_off,,,,,180,0,1,,,0,,,86,64
108410,note_off,,,,,180,0,2,,,0,,,59,64
108470,note_on,,,,,60,0,1,,,0,,,86,29
108470,note_on,,,,,60,0,2,,,0,,,59,31
108560,set_tempo,,,,,180,1,0,272727,,,,,,
108650,note_off,,,,,180,0,1,,,0,,,86,64
108650,note_off,,,,,180,0,2,,,0,,,59,64
108700,set_tempo,,,,,140,1,0,271493,,,,,,
108710,note_on,,,,,0,0,2,,,0,,,64,40
108710,note_on,,,,,60,0,2,,,0,,,62,40
108740,set_tempo,,,,,40,1,0,269058,,,,,,
108760,set_tempo,,,,,20,1,0,267857,,,,,,
108820,set_tempo,,,,,60,1,0,266667,,,,,,
108890,note_off,,,,,180,0,2,,,0,,,64,64
108890,note_off,,,,,0,0,2,,,0,,,62,64
108900,set_tempo,,,,,80,1,0,265487,,,,,,
108950,note_on,,,,,60,0,2,,,0,,,59,31
108980,set_tempo,,,,,80,1,0,264317,,,,,,
109000,set_tempo,,,,,20,1,0,263158,,,,,,
109100,set_tempo,,,,,100,1,0,260870,,,,,,
109120,set_tempo,,,,,20,1,0,259740,,,,,,
109130,note_off,,,,,180,0,2,,,0,,,59,64
109190,note_on,,,,,60,0,2,,,0,,,59,24
109220,set_tempo,,,,,100,1,0,258621,,,,,,
109300,set_tempo,,,,,80,1,0,257511,,,,,,
109360,set_tempo,,,,,60,1,0,256410,,,,,,
109370,note_off,,,,,180,0,2,,,0,,,59,64
109400,set_tempo,,,,,40,1,0,255319,,,,,,
109430,note_on,,,,,60,0,2,,,0,,,62,40
109430,note_on,,,,,0,0,2,,,0,,,64,40
109430,note_on,,,,,780,0,1,,,0,,,74,41
109600,set_tempo,,,,,200,1,0,254237,,,,,,
109610,note_off,,,,,180,0,2,,,0,,,64,64
109610,note_off,,,,,0,0,2,,,0,,,62,64
109620,set_tempo,,,,,20,1,0,252101,,,,,,
109670,note_on,,,,,60,0,2,,,0,,,59,31
109670,note_off,,,,,240,0,1,,,0,,,74,64
109670,note_on,,,,,0,0,1,,,0,,,74,31
109740,set_tempo,,,,,120,1,0,251046,,,,,,
109840,set_tempo,,,,,100,1,0,250000,,,,,,
109850,note_off,,,,,180,0,2,,,0,,,59,64
109910,note_off,,,,,240,0,1,,,0,,,74,64
109910,note_on,,,,,60,0,2,,,0,,,59,24
109910,note_on,,,,,0,0,1,,,0,,,74,34
110040,set_tempo,,,,,200,1,0,248963,,,,,,
110090,note_off,,,,,180,0,2,,,0,,,59,64
110100,set_tempo,,,,,60,1,0,247934,,,,,,
110150,note_off,,,,,240,0,1,,,0,,,74,64
110150,note_on,,,,,0,0,1,,,0,,,74,41
110150,note_on,,,,,60,0,2,,,0,,,62,40
110150,note_on,,,,,0,0,2,,,0,,,65,40
110330,note_off,,,,,180,0,2,,,0,,,65,64
110330,note_off,,,,,0,0,2,,,0,,,62,64
110390,note_off,,,,,240,0,1,,,0,,,74,64
110390,note_on,,,,,0,0,1,,,0,,,77,37
110390,note_on,,,,,60,0,2,,,0,,,59,31
110510,note_off,,,,,120,0,1,,,0,,,77,64
110510,note_on,,,,,0,0,1,,,0,,,76,40
110570,note_off,,,,,180,0,2,,,0,,,59,64
110630,note_on,,,,,0,0,1,,,0,,,74,44
110630,note_off,,,,,120,0,1,,,0,,,76,64
110630,note_on,,,,,60,0,2,,,0,,,59,24
110750,note_off,,,,,120,0,1,,,0,,,74,64
110750,note_on,,,,,0,0,1,,,0,,,77,48
110810,note_off,,,,,180,0,2,,,0,,,59,64
110870,note_off,,,,,120,0,1,,,0,,,77,64
110870,note_on,,,,,0,0,1,,,0,,,74,49
110870,note_on,,,,,0,0,2,,,0,,,65,40
110870,note_on,,,,,60,0,2,,,0,,,62,40
110980,set_tempo,,,,,880,1,0,248963,,,,,,
111040,set_tempo,,,,,60,1,0,250000,,,,,,
111050,note_off,,,,,180,0,2,,,0,,,65,64
111050,note_off,,,,,180,0,1,,,0,,,74,64
111050,note_off,,,,,0,0,2,,,0,,,62,64
111080,set_tempo,,,,,40,1,0,251046,,,,,,
111110,note_on,,,,,60,0,2,,,0,,,59,31
111110,note_on,,,,,60,0,1,,,0,,,74,39
111140,set_tempo,,,,,60,1,0,252101,,,,,,
111180,set_tempo,,,,,40,1,0,254237,,,,,,
111290,note_off,,,,,180,0,1,,,0,,,74,64
111290,note_off,,,,,180,0,2,,,0,,,59,64
111340,set_tempo,,,,,160,1,0,255319,,,,,,
111350,note_on,,,,,60,0,1,,,0,,,74,42
111350,note_on,,,,,60,0,2,,,0,,,59,24
111360,set_tempo,,,,,20,1,0,256410,,,,,,
111420,set_tempo,,,,,60,1,0,257511,,,,,,
111460,set_tempo,,,,,40,1,0,258621,,,,,,
111530,note_off,,,,,180,0,1,,,0,,,74,64
111530,note_off,,,,,180,0,2,,,0,,,59,64
111580,set_tempo,,,,,120,1,0,259740,,,,,,
111590,note_on,,,,,60,0,1,,,0,,,86,53
111590,note_on,,,,,0,0,2,,,0,,,65,40
111590,note_on,,,,,60,0,2,,,0,,,62,40
111760,set_tempo,,,,,180,1,0,260870,,,,,,
111770,note_off,,,,,180,0,1,,,0,,,86,64
111770,note_off,,,,,0,0,2,,,0,,,62,64
111770,note_off,,,,,180,0,2,,,0,,,65,64
111830,note_on,,,,,60,0,1,,,0,,,86,36
111830,note_on,,,,,60,0,2,,,0,,,59,31
111840,set_tempo,,,,,80,1,0,263158,,,,,,
111900,set_tempo,,,,,60,1,0,264317,,,,,,
112000,set_tempo,,,,,100,1,0,265487,,,,,,
112010,note_off,,,,,180,0,2,,,0,,,59,64
112010,note_off,,,,,180,0,1,,,0,,,86,64
112040,set_tempo,,,,,40,1,0,266667,,,,,,
112070,note_on,,,,,60,0,1,,,0,,,86,29
112070,note_on,,,,,60,0,2,,,0,,,59,24
112250,note_off,,,,,180,0,1,,,0,,,86,64
112250,note_off,,,,,180,0,2,,,0,,,59,64
112260,set_tempo,,,,,220,1,0,267857,,,,,,
112300,set_tempo,,,,,40,1,0,269058,,,,,,
112310,note_on,,,,,0,0,2,,,0,,,59,29
112310,note_on,,,,,60,0,2,,,0,,,62,29
112310,note_on,,,,,60,0,1,,,0,,,74,48
112380,set_tempo,,,,,80,1,0,272727,,,,,,
112430,note_on,,,,,0,0,2,,,0,,,65,26
112430,note_off,,,,,120,0,2,,,0,,,59,64
112430,note_off,,,,,0,0,2,,,0,,,62,64
112460,set_tempo,,,,,80,1,0,273973,,,,,,
112520,set_tempo,,,,,60,1,0,275229,,,,,,
112550,note_off,,,,,120,0,2,,,0,,,65,64
112550,note_on,,,,,0,0,1,,,0,,,73,41
112550,note_on,,,,,0,0,2,,,0,,,59,29
112550,note_on,,,,,0,0,2,,,0,,,62,29
112550,note_off,,,,,240,0,1,,,0,,,74,64
112580,set_tempo,,,,,60,1,0,276498,,,,,,
112620,set_tempo,,,,,40,1,0,277778,,,,,,
112670,note_on,,,,,0,0,2,,,0,,,65,23
112670,note_off,,,,,0,0,2,,,0,,,59,64
112670,note_off,,,,,120,0,2,,,0,,,62,64
112700,set_tempo,,,,,80,1,0,279070,,,,,,
112760,set_tempo,,,,,60,1,0,281690,,,,,,
112790,note_on,,,,,0,0,1,,,0,,,74,37
112790,note_off,,,,,240,0,1,,,0,,,73,64
112790,note_off,,,,,120,0,2,,,0,,,65,64
112790,note_on,,,,,0,0,2,,,0,,,59,27
112790,note_on,,,,,0,0,2,,,0,,,62,27
112840,set_tempo,,,,,80,1,0,284360,,,,,,
112910,note_off,,,,,120,0,2,,,0,,,62,64
112910,note_off,,,,,0,0,2,,,0,,,59,64
112910,note_on,,,,,0,0,2,,,0,,,65,22
112920,set_tempo,,,,,80,1,0,285714,,,,,,
112960,set_tempo,,,,,40,1,0,287081,,,,,,
113020,set_tempo,,,,,60,1,0,289855,,,,,,
113030,note_off,,,,,120,0,2,,,0,,,65,64
113030,note_off,,,,,240,0,1,,,0,,,74,64
113030,note_on,,,,,0,0,1,,,0,,,86,44
113030,note_on,,,,,0,0,2,,,0,,,62,34
113030,note_on,,,,,0,0,2,,,0,,,58,34
113080,set_tempo,,,,,60,1,0,292683,,,,,,
113100,set_tempo,,,,,20,1,0,294118,,,,,,
113150,note_on,,,,,0,0,2,,,0,,,65,26
113150,note_off,,,,,120,0,2,,,0,,,58,64
113150,note_off,,,,,0,0,2,,,0,,,62,64
113160,set_tempo,,,,,60,1,0,295567,,,,,,
113180,set_tempo,,,,,20,1,0,297030,,,,,,
113270,note_on,,,,,0,0,2,,,0,,,62,29
113270,note_on,,,,,0,0,2,,,0,,,58,29
113270,note_on,,,,,0,0,1,,,0,,,85,39
113270,note_off,,,,,120,0,2,,,0,,,65,64
113270,note_off,,,,,240,0,1,,,0,,,86,64
113320,set_tempo,,,,,140,1,0,300000,,,,,,
113360,set_tempo,,,,,40,1,0,304569,,,,,,
113390,note_off,,,,,120,0,2,,,0,,,58,64
113390,note_off,,,,,0,0,2,,,0,,,62,64
113390,note_on,,,,,0,0,2,,,0,,,65,23
113400,set_tempo,,,,,40,1,0,306122,,,,,,
113480,set_tempo,,,,,80,1,0,309278,,,,,,
113510,note_off,,,,,240,0,1,,,0,,,85,64
113510,note_on,,,,,0,0,1,,,0,,,86,33
113510,note_off,,,,,120,0,2,,,0,,,65,64
113510,note_on,,,,,0,0,2,,,0,,,62,35
113510,note_on,,,,,0,0,2,,,0,,,58,35
113520,set_tempo,,,,,40,1,0,310881,,,,,,
113580,set_tempo,,,,,60,1,0,312500,,,,,,
113630,note_off,,,,,0,0,2,,,0,,,62,64
113630,note_on,,,,,0,0,2,,,0,,,65,32
113630,note_off,,,,,120,0,2,,,0,,,58,64
113640,set_tempo,,,,,60,1,0,315789,,,,,,
113680,set_tempo,,,,,40,1,0,317460,,,,,,
113720,set_tempo,,,,,40,1,0,594059,,,,,,
113750,note_off,,,,,120,0,2,,,0,,,65,64
113750,note_on,,,,,0,0,2,,,0,,,58,31
113750,note_on,,,,,0,0,2,,,0,,,62,31
113750,note_on,,,,,0,0,1,,,0,,,82,35
113750,note_off,,,,,240,0,1,,,0,,,86,64
113760,set_tempo,,,,,40,1,0,434783,,,,,,
113780,set_tempo,,,,,20,1,0,294118,,,,,,
113800,set_tempo,,,,,20,1,0,287081,,,,,,
113820,set_tempo,,,,,20,1,0,285714,,,,,,
113840,set_tempo,,,,,20,1,0,283019,,,,,,
113860,set_tempo,,,,,20,1,0,279070,,,,,,
113870,note_on,,,,,0,0,2,,,0,,,65,26
113870,note_off,,,,,0,0,2,,,0,,,58,64
113870,note_off,,,,,120,0,2,,,0,,,62,64
113880,set_tempo,,,,,20,1,0,276498,,,,,,
113900,set_tempo,,,,,20,1,0,275229,,,,,,
113920,set_tempo,,,,,20,1,0,273973,,,,,,
113940,set_tempo,,,,,20,1,0,271493,,,,,,
113960,set_tempo,,,,,20,1,0,267857,,,,,,
113980,set_tempo,,,,,20,1,0,266667,,,,,,
113990,note_on,,,,,0,0,2,,,0,,,62,29
113990,note_on,,,,,0,0,2,,,0,,,58,29
113990,note_on,,,,,0,0,1,,,0,,,81,32
113990,note_off,,,,,240,0,1,,,0,,,82,64
113990,note_off,,,,,120,0,2,,,0,,,65,64
114020,set_tempo,,,,,40,1,0,265487,,,,,,
114040,set_tempo,,,,,20,1,0,260870,,,,,,
114100,set_tempo,,,,,60,1,0,259740,,,,,,
114110,note_on,,,,,0,0,2,,,0,,,65,23
114110,note_off,,,,,120,0,1,,,0,,,81,64
114110,note_off,,,,,0,0,2,,,0,,,62,64
114110,note_off,,,,,120,0,2,,,0,,,58,64
114120,set_tempo,,,,,20,1,0,258621,,,,,,
114140,set_tempo,,,,,20,1,0,257511,,,,,,
114180,set_tempo,,,,,40,1,0,256410,,,,,,
114200,set_tempo,,,,,20,1,0,255319,,,,,,
114230,note_on,,,,,0,0,2,,,0,,,58,28
114230,note_on,,,,,120,0,1,,,0,,,82,35
114230,note_off,,,,,120,0,2,,,0,,,65,64
114230,note_on,,,,,0,0,2,,,0,,,62,28
114260,set_tempo,,,,,60,1,0,254237,,,,,,
114300,set_tempo,,,,,40,1,0,252101,,,,,,
114350,note_off,,,,,120,0,2,,,0,,,58,64
114350,note_off,,,,,0,0,2,,,0,,,62,64
114350,note_on,,,,,0,0,2,,,0,,,65,24
114350,note_off,,,,,120,0,1,,,0,,,82,64
114360,set_tempo,,,,,60,1,0,251046,,,,,,
114470,note_off,,,,,120,0,2,,,0,,,65,64
114470,note_on,,,,,0,0,2,,,0,,,58,32
114470,note_on,,,,,0,0,2,,,0,,,63,32
114470,control_change,,,,,0,0,1,,,0,91,100,,
114470,note_on,,,,,120,0,1,,,0,,,79,40
114590,note_on,,,,,0,0,2,,,0,,,67,25
114590,note_off,,,,,120,0,2,,,0,,,63,64
114590,note_off,,,,,0,0,2,,,0,,,58,64
114660,set_tempo,,,,,300,1,0,250000,,,,,,
114710,note_off,,,,,120,0,2,,,0,,,67,64
114710,note_on,,,,,0,0,2,,,0,,,58,35
114710,note_off,,,,,240,0,1,,,0,,,79,64
114710,note_on,,,,,0,0,1,,,0,,,81,37
114710,note_on,,,,,0,0,2,,,0,,,63,35
114740,set_tempo,,,,,80,1,0,248963,,,,,,
114818,note_off,,,,,108,0,1,,,0,,,81,64
114830,note_on,,,,,12,0,1,,,0,,,82,43
114830,note_on,,,,,0,0,2,,,0,,,67,28
114830,note_off,,,,,0,0,2,,,0,,,63,64
114830,note_off,,,,,120,0,2,,,0,,,58,64
114938,note_off,,,,,108,0,1,,,0,,,82,64
114950,note_on,,,,,0,0,2,,,0,,,58,44
114950,note_off,,,,,120,0,2,,,0,,,67,64
114950,note_on,,,,,12,0,1,,,0,,,84,49
114950,note_on,,,,,0,0,2,,,0,,,63,44
115058,note_off,,,,,108,0,1,,,0,,,84,64
115070,note_off,,,,,120,0,2,,,0,,,58,64
115070,note_on,,,,,0,0,2,,,0,,,67,39
115070,note_off,,,,,0,0,2,,,0,,,63,64
115070,note_on,,,,,12,0,1,,,0,,,86,53
115178,note_off,,,,,108,0,1,,,0,,,86,64
115190,note_on,,,,,0,0,2,,,0,,,58,51
115190,note_on,,,,,0,0,2,,,0,,,62,51
115190,note_on,,,,,12,0,1,,,0,,,82,53
115190,note_off,,,,,120,0,2,,,0,,,67,64
115310,note_off,,,,,120,0,2,,,0,,,62,64
115310,note_on,,,,,0,0,2,,,0,,,65,40
115310,note_off,,,,,0,0,2,,,0,,,58,64
115430,note_on,,,,,0,0,1,,,0,,,84,43
115430,note_on,,,,,0,0,2,,,0,,,58,52
115430,note_off,,,,,240,0,1,,,0,,,82,64
115430,note_on,,,,,0,0,2,,,0,,,62,52
115430,note_off,,,,,120,0,2,,,0,,,65,64
115538,note_off,,,,,108,0,1,,,0,,,84,64
115550,note_off,,,,,120,0,2,,,0,,,58,64
115550,note_on,,,,,0,0,2,,,0,,,65,43
115550,note_off,,,,,0,0,2,,,0,,,62,64
115550,note_on,,,,,12,0,1,,,0,,,82,49
115658,note_off,,,,,108,0,1,,,0,,,82,64
115670,note_off,,,,,120,0,2,,,0,,,65,64
115670,note_on,,,,,12,0,1,,,0,,,81,55
115670,note_on,,,,,0,0,2,,,0,,,62,53
115670,note_on,,,,,0,0,2,,,0,,,58,53
115778,note_off,,,,,108,0,1,,,0,,,81,64
115790,note_on,,,,,12,0,1,,,0,,,79,60
115790,note_off,,,,,120,0,2,,,0,,,58,64
115790,note_off,,,,,0,0,2,,,0,,,62,64
115790,note_on,,,,,0,0,2,,,0,,,65,47
115898,note_off,,,,,108,0,1,,,0,,,79,64
115910,note_on,,,,,12,0,1,,,0,,,77,64
115910,note_on,,,,,0,0,2,,,0,,,63,51
115910,note_on,,,,,0,0,2,,,0,,,57,51
115910,note_off,,,,,120,0,2,,,0,,,65,64
116030,note_on,,,,,0,0,2,,,0,,,65,42
116030,note_off,,,,,0,0,2,,,0,,,57,64
116030,note_off,,,,,120,0,2,,,0,,,63,64
116030,note_off,,,,,120,0,1,,,0,,,77,64
116150,note_on,,,,,120,0,1,,,0,,,77,51
116150,note_off,,,,,120,0,2,,,0,,,65,64
116150,note_on,,,,,0,0,2,,,0,,,63,53
116150,note_on,,,,,0,0,2,,,0,,,57,53
116270,note_off,,,,,120,0,1,,,0,,,77,64
116270,note_off,,,,,120,0,2,,,0,,,57,64
116270,note_off,,,,,0,0,2,,,0,,,63,64
116270,note_on,,,,,0,0,2,,,0,,,65,50
116390,note_on,,,,,120,0,1,,,0,,,77,35
116390,note_off,,,,,120,0,2,,,0,,,65,64
116390,note_on,,,,,0,0,2,,,0,,,63,55
116390,note_on,,,,,0,0,2,,,0,,,57,55
116510,note_off,,,,,0,0,2,,,0,,,63,64
116510,note_off,,,,,120,0,1,,,0,,,77,64
116510,note_on,,,,,0,0,2,,,0,,,65,43
116510,note_off,,,,,120,0,2,,,0,,,57,64
116630,note_on,,,,,0,0,2,,,0,,,57,58
116630,note_off,,,,,120,0,2,,,0,,,65,64
116630,note_on,,,,,0,0,2,,,0,,,63,58
116630,note_on,,,,,120,0,1,,,0,,,78,68
116750,note_off,,,,,120,0,2,,,0,,,63,64
116750,note_off,,,,,0,0,2,,,0,,,57,64
116750,note_on,,,,,0,0,2,,,0,,,66,49
116790,control_change,,,,,40,0,2,,,0,91,96,,
116870,note_off,,,,,80,0,2,,,0,,,66,64
116870,note_on,,,,,0,0,2,,,0,,,63,55
116870,note_on,,,,,0,0,2,,,0,,,57,55
116870,note_on,,,,,0,0,1,,,0,,,90,46
116870,note_off,,,,,240,0,1,,,0,,,78,64
116990,note_off,,,,,0,0,2,,,0,,,63,64
116990,note_on,,,,,0,0,2,,,0,,,66,49
116990,note_off,,,,,120,0,1,,,0,,,90,64
116990,note_off,,,,,120,0,2,,,0,,,57,64
117110,note_on,,,,,0,0,2,,,0,,,57,59
117110,note_off,,,,,120,0,2,,,0,,,66,64
117110,note_on,,,,,0,0,2,,,0,,,63,59
117110,note_on,,,,,120,0,1,,,0,,,90,60
117230,note_off,,,,,120,0,1,,,0,,,90,64
117230,note_on,,,,,0,0,2,,,0,,,66,49
117230,note_off,,,,,0,0,2,,,0,,,63,64
117230,note_off,,,,,120,0,2,,,0,,,57,64
117350,note_on,,,,,120,0,1,,,0,,,91,76
117350,note_on,,,,,0,0,2,,,0,,,63,56
117350,note_on,,,,,0,0,2,,,0,,,58,56
117350,note_off,,,,,120,0,2,,,0,,,66,64
117470,note_off,,,,,0,0,2,,,0,,,58,64
117470,note_on,,,,,0,0,2,,,0,,,67,51
117470,note_off,,,,,120,0,2,,,0,,,63,64
117590,note_off,,,,,240,0,1,,,0,,,91,64
117590,note_off,,,,,120,0,2,,,0,,,67,64
117590,note_on,,,,,0,0,2,,,0,,,58,62
117590,note_on,,,,,0,0,2,,,0,,,63,62
117590,note_on,,,,,0,0,1,,,0,,,79,64
117710,note_off,,,,,120,0,1,,,0,,,79,64
117710,note_on,,,,,0,0,2,,,0,,,67,53
117710,note_off,,,,,120,0,2,,,0,,,63,64
117710,note_off,,,,,0,0,2,,,0,,,58,64
117830,note_off,,,,,120,0,2,,,0,,,67,64
117830,note_on,,,,,0,0,2,,,0,,,63,64
117830,note_on,,,,,120,0,1,,,0,,,79,46
117830,note_on,,,,,0,0,2,,,0,,,58,64
117950,note_off,,,,,0,0,2,,,0,,,58,64
117950,note_off,,,,,120,0,1,,,0,,,79,64
117950,note_off,,,,,120,0,2,,,0,,,63,64
117950,note_on,,,,,0,0,2,,,0,,,67,48
118070,note_on,,,,,120,0,1,,,0,,,81,60
118070,note_on,,,,,0,0,2,,,0,,,63,67
118070,note_on,,,,,0,0,2,,,0,,,60,67
118070,note_off,,,,,120,0,2,,,0,,,67,64
118190,note_off,,,,,120,0,1,,,0,,,81,64
118190,note_on,,,,,0,0,2,,,0,,,65,58
118190,note_off,,,,,0,0,2,,,0,,,60,64
118190,note_off,,,,,120,0,2,,,0,,,63,64
118280,note_on,,,,,90,0,1,,,0,,,94,55
118310,note_on,,,,,0,0,2,,,0,,,60,66
118310,note_on,,,,,0,0,1,,,0,,,93,57
118310,note_off,,,,,120,0,2,,,0,,,65,64
118310,note_on,,,,,0,0,2,,,0,,,63,66
118310,note_off,,,,,30,0,1,,,0,,,94,64
118430,note_off,,,,,0,0,2,,,0,,,63,64
118430,note_on,,,,,0,0,1,,,0,,,91,65
118430,note_off,,,,,120,0,1,,,0,,,93,64
118430,note_off,,,,,120,0,2,,,0,,,60,64
118430,note_on,,,,,0,0,2,,,0,,,65,57
118550,note_off,,,,,120,0,1,,,0,,,91,64
118550,note_off,,,,,120,0,2,,,0,,,65,64
118550,note_on,,,,,0,0,2,,,0,,,60,70
118550,note_on,,,,,0,0,2,,,0,,,63,70
118550,note_on,,,,,0,0,1,,,0,,,93,73
118670,note_on,,,,,0,0,2,,,0,,,65,60
118670,note_off,,,,,0,0,2,,,0,,,63,64
118670,note_off,,,,,120,0,2,,,0,,,60,64
118790,note_on,,,,,0,0,2,,,0,,,58,73
118790,note_on,,,,,0,0,2,,,0,,,62,73
118790,note_off,,,,,120,0,2,,,0,,,65,64
118790,note_off,,,,,240,0,1,,,0,,,93,64
118790,note_on,,,,,0,0,1,,,0,,,94,81
118910,note_on,,,,,0,0,2,,,0,,,65,62
118910,note_off,,,,,0,0,2,,,0,,,62,64
118910,note_off,,,,,120,0,2,,,0,,,58,64
118910,note_off,,,,,120,0,1,,,0,,,94,64
119000,note_on,,,,,90,0,1,,,0,,,84,65
119030,note_on,,,,,0,0,1,,,0,,,82,64
119030,note_off,,,,,30,0,1,,,0,,,84,64
119030,note_on,,,,,0,0,2,,,0,,,58,62
119030,note_on,,,,,0,0,2,,,0,,,62,62
119030,note_off,,,,,120,0,2,,,0,,,65,64
119150,note_off,,,,,120,0,1,,,0,,,82,64
119150,note_on,,,,,0,0,2,,,0,,,65,49
119150,note_off,,,,,0,0,2,,,0,,,62,64
119150,note_off,,,,,120,0,2,,,0,,,58,64
119150,note_on,,,,,0,0,1,,,0,,,81,60
119270,note_on,,,,,0,0,2,,,0,,,58,57
119270,note_on,,,,,0,0,2,,,0,,,62,57
119270,note_off,,,,,120,0,2,,,0,,,65,64
119270,note_on,,,,,0,0,1,,,0,,,82,58
119270,note_off,,,,,120,0,1,,,0,,,81,64
119390,note_off,,,,,120,0,2,,,0,,,58,64
119390,note_off,,,,,0,0,2,,,0,,,62,64
119390,note_on,,,,,0,0,2,,,0,,,65,47
119510,note_on,,,,,0,0,1,,,0,,,75,57
119510,note_off,,,,,120,0,2,,,0,,,65,64
119510,note_on,,,,,0,0,1,,,0,,,79,57
119510,note_on,,,,,0,0,2,,,0,,,63,52
119510,note_off,,,,,240,0,1,,,0,,,82,64
119630,note_off,,,,,120,0,1,,,0,,,75,64
119630,note_off,,,,,0,0,1,,,0,,,79,64
119630,note_on,,,,,0,0,1,,,0,,,82,36
119750,note_on,,,,,0,0,1,,,0,,,75,39
119750,note_on,,,,,0,0,1,,,0,,,79,39
119750,note_on,,,,,0,0,2,,,0,,,62,49
119750,note_off,,,,,120,0,1,,,0,,,82,64
119750,note_off,,,,,240,0,2,,,0,,,63,64
119870,note_off,,,,,120,0,1,,,0,,,75,64
119870,note_off,,,,,0,0,1,,,0,,,79,64
119870,note_on,,,,,0,0,1,,,0,,,82,33
119870,note_off,,,,,120,0,2,,,0,,,62,64
119990,note_off,,,,,120,0,1,,,0,,,82,64
119990,note_on,,,,,0,0,1,,,0,,,79,44
119990,note_on,,,,,0,0,1,,,0,,,75,44
119990,note_on,,,,,120,0,2,,,0,,,63,57
120110,note_off,,,,,120,0,2,,,0,,,63,64
120110,note_off,,,,,120,0,1,,,0,,,75,64
120110,note_off,,,,,0,0,1,,,0,,,79,64
120110,note_on,,,,,0,0,1,,,0,,,82,42
120230,control_change,,,,,0,0,2,,,0,91,100,,
120230,note_off,,,,,120,0,1,,,0,,,82,64
120230,note_on,,,,,0,0,1,,,0,,,79,53
120230,note_on,,,,,0,0,1,,,0,,,75,53
120230,note_on,,,,,120,0,2,,,0,,,60,62
120350,note_off,,,,,120,0,1,,,0,,,75,64
120350,note_off,,,,,0,0,1,,,0,,,79,64
120350,note_on,,,,,0,0,1,,,0,,,84,35
120470,note_on,,,,,0,0,1,,,0,,,75,39
120470,note_on,,,,,0,0,1,,,0,,,79,39
120470,note_off,,,,,120,0,1,,,0,,,84,64
120470,note_on,,,,,0,0,2,,,0,,,62,55
120470,note_off,,,,,240,0,2,,,0,,,60,64
120578,note_off,,,,,108,0,2,,,0,,,62,64
120590,note_on,,,,,12,0,2,,,0,,,63,53
120590,note_off,,,,,0,0,1,,,0,,,79,64
120590,note_off,,,,,120,0,1,,,0,,,75,64
120590,note_on,,,,,0,0,1,,,0,,,84,36
120698,note_off,,,,,108,0,2,,,0,,,63,64
120710,note_on,,,,,0,0,1,,,0,,,75,47
120710,note_on,,,,,0,0,1,,,0,,,79,47
120710,note_off,,,,,120,0,1,,,0,,,84,64
120710,note_on,,,,,12,0,2,,,0,,,65,57
120818,note_off,,,,,108,0,2,,,0,,,65,64
120830,note_off,,,,,120,0,1,,,0,,,75,64
120830,note_off,,,,,0,0,1,,,0,,,79,64
120830,note_on,,,,,0,0,1,,,0,,,84,45
120830,note_on,,,,,12,0,2,,,0,,,67,59
120938,note_off,,,,,108,0,2,,,0,,,67,64
120950,note_on,,,,,0,0,1,,,0,,,75,61
120950,note_on,,,,,0,0,1,,,0,,,79,61
120950,note_off,,,,,120,0,1,,,0,,,84,64
120950,note_on,,,,,12,0,2,,,0,,,63,60
121070,note_off,,,,,120,0,1,,,0,,,75,64
121070,note_on,,,,,0,0,1,,,0,,,82,39
121070,note_off,,,,,0,0,1,,,0,,,79,64
121190,note_on,,,,,0,0,2,,,0,,,65,54
121190,note_off,,,,,120,0,1,,,0,,,82,64
121190,note_on,,,,,0,0,1,,,0,,,79,45
121190,note_on,,,,,0,0,1,,,0,,,75,45
121190,note_off,,,,,240,0,2,,,0,,,63,64
121298,note_off,,,,,108,0,2,,,0,,,65,64
121310,note_on,,,,,12,0,2,,,0,,,63,49
121310,note_on,,,,,0,0,1,,,0,,,82,43
121310,note_off,,,,,120,0,1,,,0,,,75,64
121310,note_off,,,,,0,0,1,,,0,,,79,64
121418,note_off,,,,,108,0,2,,,0,,,63,64
121430,note_on,,,,,0,0,1,,,0,,,79,56
121430,note_on,,,,,0,0,1,,,0,,,75,56
121430,note_off,,,,,120,0,1,,,0,,,82,64
121430,note_on,,,,,12,0,2,,,0,,,62,54
121538,note_off,,,,,108,0,2,,,0,,,62,64
121550,note_on,,,,,12,0,2,,,0,,,60,60
121550,note_off,,,,,0,0,1,,,0,,,79,64
121550,note_off,,,,,120,0,1,,,0,,,75,64
121550,note_on,,,,,0,0,1,,,0,,,82,52
121658,note_off,,,,,108,0,2,,,0,,,60,64
121670,note_on,,,,,12,0,2,,,0,,,58,65
121670,note_off,,,,,120,0,1,,,0,,,82,64
121670,note_on,,,,,0,0,1,,,0,,,80,63
121670,note_on,,,,,0,0,1,,,0,,,74,63
121790,note_off,,,,,0,0,1,,,0,,,80,64
121790,note_off,,,,,120,0,2,,,0,,,58,64
121790,note_on,,,,,0,0,1,,,0,,,82,39
121790,note_off,,,,,120,0,1,,,0,,,74,64
121910,note_on,,,,,0,0,1,,,0,,,74,42
121910,note_on,,,,,0,0,1,,,0,,,80,42
121910,note_off,,,,,120,0,1,,,0,,,82,64
121910,note_on,,,,,120,0,2,,,0,,,58,59
122030,note_off,,,,,0,0,1,,,0,,,80,64
122030,note_off,,,,,120,0,1,,,0,,,74,64
122030,note_on,,,,,0,0,1,,,0,,,82,39
122030,note_off,,,,,120,0,2,,,0,,,58,64
122150,note_off,,,,,120,0,1,,,0,,,82,64
122150,note_on,,,,,0,0,1,,,0,,,74,51
122150,note_on,,,,,0,0,1,,,0,,,80,51
122150,note_on,,,,,120,0,2,,,0,,,58,50
122270,note_on,,,,,0,0,1,,,0,,,82,48
122270,note_off,,,,,0,0,1,,,0,,,80,64
122270,note_off,,,,,120,0,1,,,0,,,74,64
122270,note_off,,,,,120,0,2,,,0,,,58,64
122390,note_off,,,,,120,0,1,,,0,,,82,64
122390,note_on,,,,,0,0,1,,,0,,,80,63
122390,note_on,,,,,0,0,1,,,0,,,74,63
122390,note_on,,,,,120,0,2,,,0,,,59,67
122510,note_off,,,,,120,0,1,,,0,,,74,64
122510,note_off,,,,,0,0,1,,,0,,,80,64
122510,note_on,,,,,0,0,1,,,0,,,86,52
122550,control_change,,,,,40,0,1,,,0,91,96,,
122630,note_on,,,,,0,0,2,,,0,,,71,54
122630,note_off,,,,,80,0,1,,,0,,,86,64
122630,note_on,,,,,0,0,1,,,0,,,80,55
122630,note_on,,,,,0,0,1,,,0,,,74,55
122630,note_off,,,,,240,0,2,,,0,,,59,64
122750,note_off,,,,,0,0,1,,,0,,,80,64
122750,note_on,,,,,0,0,1,,,0,,,86,42
122750,note_off,,,,,120,0,2,,,0,,,71,64
122750,note_off,,,,,120,0,1,,,0,,,74,64
122870,note_on,,,,,0,0,1,,,0,,,80,44
122870,note_on,,,,,0,0,1,,,0,,,74,44
122870,note_on,,,,,120,0,2,,,0,,,71,68
122870,note_off,,,,,120,0,1,,,0,,,86,64
122990,note_off,,,,,120,0,1,,,0,,,74,64
122990,note_off,,,,,0,0,1,,,0,,,80,64
122990,note_on,,,,,0,0,1,,,0,,,86,35
122990,note_off,,,,,120,0,2,,,0,,,71,64
123110,note_on,,,,,0,0,1,,,0,,,79,71
123110,note_on,,,,,0,0,1,,,0,,,75,71
123110,note_off,,,,,120,0,1,,,0,,,86,64
123110,note_on,,,,,120,0,2,,,0,,,72,66
123230,note_off,,,,,120,0,1,,,0,,,75,64
123230,note_off,,,,,0,0,1,,,0,,,79,64
123230,note_on,,,,,0,0,1,,,0,,,87,59
123350,note_on,,,,,0,0,1,,,0,,,75,60
123350,note_off,,,,,240,0,2,,,0,,,72,64
123350,note_off,,,,,120,0,1,,,0,,,87,64
123350,note_on,,,,,0,0,1,,,0,,,79,60
123350,note_on,,,,,0,0,2,,,0,,,60,66
123470,note_off,,,,,120,0,2,,,0,,,60,64
123470,note_off,,,,,0,0,1,,,0,,,79,64
123470,note_on,,,,,0,0,1,,,0,,,87,49
123470,note_off,,,,,120,0,1,,,0,,,75,64
123590,note_off,,,,,120,0,1,,,0,,,87,64
123590,note_on,,,,,0,0,1,,,0,,,79,51
123590,note_on,,,,,0,0,1,,,0,,,75,51
123590,note_on,,,,,120,0,2,,,0,,,60,57
123710,note_off,,,,,120,0,1,,,0,,,75,64
123710,note_on,,,,,0,0,1,,,0,,,86,38
123710,note_off,,,,,120,0,2,,,0,,,60,64
123710,note_off,,,,,0,0,1,,,0,,,79,64
123830,note_on,,,,,120,0,2,,,0,,,65,66
123830,note_on,,,,,0,0,1,,,0,,,75,61
123830,note_on,,,,,0,0,1,,,0,,,81,61
123830,note_off,,,,,120,0,1,,,0,,,86,64
123950,note_off,,,,,120,0,2,,,0,,,65,64
123950,note_on,,,,,0,0,1,,,0,,,84,32
123950,note_off,,,,,0,0,1,,,0,,,81,64
123950,note_off,,,,,120,0,1,,,0,,,75,64
124040,note_on,,,,,90,0,2,,,0,,,55,70
124070,note_on,,,,,0,0,1,,,0,,,81,43
124070,note_off,,,,,120,0,1,,,0,,,84,64
124070,note_off,,,,,30,0,2,,,0,,,55,64
124070,note_on,,,,,0,0,2,,,0,,,53,70
124070,note_on,,,,,0,0,1,,,0,,,75,43
124190,note_off,,,,,120,0,2,,,0,,,53,64
124190,note_on,,,,,0,0,2,,,0,,,52,57
124190,note_on,,,,,0,0,1,,,0,,,84,42
124190,note_off,,,,,0,0,1,,,0,,,81,64
124190,note_off,,,,,120,0,1,,,0,,,75,64
124310,note_off,,,,,120,0,2,,,0,,,52,64
124310,note_on,,,,,0,0,2,,,0,,,53,45
124310,note_on,,,,,0,0,1,,,0,,,75,54
124310,note_on,,,,,0,0,1,,,0,,,81,54
124310,note_off,,,,,120,0,1,,,0,,,84,64
124430,note_on,,,,,0,0,1,,,0,,,84,52
124430,note_off,,,,,0,0,1,,,0,,,81,64
124430,note_off,,,,,120,0,1,,,0,,,75,64
124550,note_on,,,,,0,0,1,,,0,,,82,62
124550,note_on,,,,,0,0,1,,,0,,,74,62
124550,note_off,,,,,120,0,1,,,0,,,84,64
124550,note_off,,,,,240,0,2,,,0,,,53,64
124550,note_on,,,,,0,0,2,,,0,,,58,67
124670,note_on,,,,,0,0,1,,,0,,,86,49
124670,note_off,,,,,120,0,1,,,0,,,74,64
124670,note_off,,,,,0,0,1,,,0,,,82,64
124670,note_off,,,,,120,0,2,,,0,,,58,64
124760,note_on,,,,,90,0,2,,,0,,,48,64
124790,note_off,,,,,30,0,2,,,0,,,48,64
124790,note_on,,,,,0,0,2,,,0,,,46,63
124790,note_off,,,,,120,0,1,,,0,,,86,64
124790,note_on,,,,,0,0,1,,,0,,,82,45
124790,note_on,,,,,0,0,1,,,0,,,74,45
124910,note_on,,,,,0,0,1,,,0,,,86,41
124910,note_off,,,,,120,0,2,,,0,,,46,64
124910,note_on,,,,,0,0,2,,,0,,,45,56
124910,note_off,,,,,120,0,1,,,0,,,74,64
124910,note_off,,,,,0,0,1,,,0,,,82,64
125030,note_on,,,,,0,0,1,,,0,,,74,35
125030,note_on,,,,,0,0,1,,,0,,,82,35
125030,note_off,,,,,120,0,2,,,0,,,45,64
125030,note_off,,,,,120,0,1,,,0,,,86,64
125030,note_on,,,,,0,0,2,,,0,,,46,46
125150,note_off,,,,,0,0,1,,,0,,,82,64
125150,note_off,,,,,120,0,1,,,0,,,74,64
125150,note_on,,,,,0,0,1,,,0,,,86,31
125270,note_on,,,,,0,0,1,,,0,,,75,39
125270,note_on,,,,,0,0,2,,,0,,,41,52
125270,note_off,,,,,120,0,1,,,0,,,86,64
125270,note_on,,,,,0,0,1,,,0,,,81,39
125270,note_off,,,,,240,0,2,,,0,,,46,64
125390,note_off,,,,,120,0,1,,,0,,,75,64
125390,note_off,,,,,0,0,1,,,0,,,81,64
125390,note_on,,,,,0,0,1,,,0,,,84,35
125510,note_on,,,,,0,0,1,,,0,,,75,41
125510,note_on,,,,,0,0,1,,,0,,,81,41
125510,note_on,,,,,0,0,2,,,0,,,43,42
125510,note_off,,,,,240,0,2,,,0,,,41,64
125510,note_off,,,,,120,0,1,,,0,,,84,64
125630,note_off,,,,,120,0,1,,,0,,,75,64
125630,note_on,,,,,0,0,2,,,0,,,45,37
125630,note_off,,,,,120,0,2,,,0,,,43,64
125630,note_off,,,,,0,0,1,,,0,,,81,64
125630,note_on,,,,,0,0,1,,,0,,,84,36
125750,note_off,,,,,120,0,2,,,0,,,45,64
125750,note_off,,,,,120,0,1,,,0,,,84,64
125750,note_on,,,,,0,0,1,,,0,,,81,40
125750,note_on,,,,,0,0,1,,,0,,,75,40
125750,note_on,,,,,0,0,2,,,0,,,46,36
125870,note_off,,,,,120,0,2,,,0,,,46,64
125870,note_on,,,,,0,0,2,,,0,,,48,41
125870,note_off,,,,,120,0,1,,,0,,,75,64
125870,note_off,,,,,0,0,1,,,0,,,81,64
125870,note_on,,,,,0,0,1,,,0,,,84,34
125990,note_off,,,,,120,0,2,,,0,,,48,64
125990,note_on,,,,,0,0,2,,,0,,,46,48
125990,note_on,,,,,0,0,1,,,0,,,82,35
125990,note_on,,,,,0,0,1,,,0,,,74,35
125990,note_off,,,,,120,0,1,,,0,,,84,64
126110,note_on,,,,,0,0,1,,,0,,,86,35
126110,note_off,,,,,0,0,1,,,0,,,82,64
126110,note_off,,,,,120,0,1,,,0,,,74,64
126170,note_off,,,,,180,0,2,,,0,,,46,64
126230,note_on,,,,,0,0,1,,,0,,,74,38
126230,note_on,,,,,0,0,1,,,0,,,82,38
126230,note_off,,,,,120,0,1,,,0,,,86,64
126230,note_on,,,,,60,0,2,,,0,,,46,37
126350,note_off,,,,,120,0,1,,,0,,,74,64
126350,note_on,,,,,0,0,1,,,0,,,86,36
126350,note_off,,,,,0,0,1,,,0,,,82,64
126410,note_off,,,,,180,0,2,,,0,,,46,64
126430,set_tempo,,,,,11690,1,0,250000,,,,,,
126470,note_on,,,,,0,0,1,,,0,,,74,38
126470,note_off,,,,,120,0,1,,,0,,,86,64
126470,note_on,,,,,0,0,1,,,0,,,82,38
126470,note_on,,,,,60,0,2,,,0,,,46,25
126550,set_tempo,,,,,120,1,0,251046,,,,,,
126590,note_off,,,,,0,0,1,,,0,,,82,64
126590,note_on,,,,,0,0,1,,,0,,,86,34
126590,note_off,,,,,120,0,1,,,0,,,74,64
126590,note_off,,,,,120,0,2,,,0,,,46,64
126710,note_on,,,,,120,0,2,,,0,,,53,36
126710,note_off,,,,,120,0,1,,,0,,,86,64
126710,note_on,,,,,0,0,1,,,0,,,75,34
126710,note_on,,,,,0,0,1,,,0,,,81,34
126770,set_tempo,,,,,220,1,0,252101,,,,,,
126830,note_on,,,,,0,0,1,,,0,,,84,28
126830,note_off,,,,,120,0,1,,,0,,,75,64
126830,note_off,,,,,0,0,1,,,0,,,81,64
126890,set_tempo,,,,,120,1,0,254237,,,,,,
126950,note_on,,,,,0,0,2,,,0,,,55,32
126950,note_off,,,,,240,0,2,,,0,,,53,64
126950,note_off,,,,,120,0,1,,,0,,,84,64
126950,note_on,,,,,0,0,1,,,0,,,75,31
126950,note_on,,,,,0,0,1,,,0,,,81,31
127050,set_tempo,,,,,160,1,0,255319,,,,,,
127070,note_on,,,,,0,0,1,,,0,,,84,29
127070,note_off,,,,,0,0,1,,,0,,,81,64
127070,note_off,,,,,120,0,1,,,0,,,75,64
127070,note_off,,,,,120,0,2,,,0,,,55,64
127070,note_on,,,,,0,0,2,,,0,,,57,27
127110,set_tempo,,,,,60,1,0,256410,,,,,,
127190,note_on,,,,,0,0,1,,,0,,,75,32
127190,note_on,,,,,0,0,1,,,0,,,81,32
127190,note_off,,,,,120,0,1,,,0,,,84,64
127190,note_off,,,,,120,0,2,,,0,,,57,64
127190,note_on,,,,,0,0,2,,,0,,,58,23
127270,set_tempo,,,,,160,1,0,258621,,,,,,
127310,note_on,,,,,0,0,2,,,0,,,60,27
127310,note_off,,,,,120,0,2,,,0,,,58,64
127310,note_off,,,,,0,0,1,,,0,,,81,64
127310,note_on,,,,,0,0,1,,,0,,,84,27
127310,note_off,,,,,120,0,1,,,0,,,75,64
127410,set_tempo,,,,,140,1,0,259740,,,,,,
127430,note_off,,,,,120,0,2,,,0,,,60,64
127430,note_on,,,,,0,0,2,,,0,,,58,31
127430,note_on,,,,,0,0,1,,,0,,,74,30
127430,note_on,,,,,0,0,1,,,0,,,82,30
127430,note_off,,,,,120,0,1,,,0,,,84,64
127430,set_tempo,,,,,20,1,0,260870,,,,,,
127530,set_tempo,,,,,100,1,0,263158,,,,,,
127550,note_off,,,,,0,0,1,,,0,,,82,64
127550,note_off,,,,,120,0,1,,,0,,,74,64
127550,note_on,,,,,0,0,1,,,0,,,86,23
127610,note_off,,,,,180,0,2,,,0,,,58,64
127610,set_tempo,,,,,80,1,0,264317,,,,,,
127670,note_off,,,,,120,0,1,,,0,,,86,64
127670,note_on,,,,,60,0,2,,,0,,,58,26
127670,set_tempo,,,,,60,1,0,265487,,,,,,
127670,note_on,,,,,0,0,1,,,0,,,82,30
127670,note_on,,,,,0,0,1,,,0,,,74,30
127710,set_tempo,,,,,40,1,0,266667,,,,,,
127770,set_tempo,,,,,60,1,0,267857,,,,,,
127790,note_off,,,,,120,0,1,,,0,,,74,64
127790,note_off,,,,,0,0,1,,,0,,,82,64
127790,note_on,,,,,0,0,1,,,0,,,86,25
127810,set_tempo,,,,,40,1,0,269058,,,,,,
127850,note_off,,,,,180,0,2,,,0,,,58,64
127890,set_tempo,,,,,80,1,0,271493,,,,,,
127910,note_off,,,,,120,0,1,,,0,,,86,64
127910,note_on,,,,,0,0,1,,,0,,,82,30
127910,note_on,,,,,60,0,2,,,0,,,58,22
127910,note_on,,,,,0,0,1,,,0,,,74,30
127930,set_tempo,,,,,40,1,0,272727,,,,,,
127950,set_tempo,,,,,20,1,0,273973,,,,,,
127990,set_tempo,,,,,40,1,0,275229,,,,,,
128030,note_off,,,,,0,0,1,,,0,,,82,64
128030,note_off,,,,,120,0,1,,,0,,,74,64
128030,note_on,,,,,0,0,1,,,0,,,86,23
128030,note_off,,,,,120,0,2,,,0,,,58,64
128110,set_tempo,,,,,120,1,0,276498,,,,,,
128130,set_tempo,,,,,20,1,0,277778,,,,,,
128150,note_on,,,,,0,0,1,,,0,,,75,25
128150,note_off,,,,,120,0,1,,,0,,,86,64
128150,note_on,,,,,120,0,2,,,0,,,65,25
128150,note_on,,,,,0,0,1,,,0,,,81,25
128270,note_on,,,,,0,0,1,,,0,,,84,22
128270,note_off,,,,,0,0,1,,,0,,,81,64
128270,note_off,,,,,120,0,1,,,0,,,75,64
128330,set_tempo,,,,,200,1,0,281690,,,,,,
128370,set_tempo,,,,,40,1,0,283019,,,,,,
128390,note_on,,,,,0,0,1,,,0,,,81,24
128390,note_on,,,,,0,0,1,,,0,,,75,24
128390,note_on,,,,,0,0,2,,,0,,,67,19
128390,note_off,,,,,240,0,2,,,0,,,65,64
128390,note_off,,,,,120,0,1,,,0,,,84,64
128410,set_tempo,,,,,40,1,0,284360,,,,,,
128470,set_tempo,,,,,60,1,0,285714,,,,,,
128510,note_on,,,,,0,0,2,,,0,,,69,19
128510,note_off,,,,,0,0,1,,,0,,,81,64
128510,note_on,,,,,0,0,1,,,0,,,84,23
128510,note_off,,,,,120,0,2,,,0,,,67,64
128510,note_off,,,,,120,0,1,,,0,,,75,64
128530,set_tempo,,,,,60,1,0,287081,,,,,,
128570,set_tempo,,,,,40,1,0,288462,,,,,,
128590,set_tempo,,,,,20,1,0,289855,,,,,,
128630,note_on,,,,,0,0,1,,,0,,,75,22
128630,note_on,,,,,0,0,1,,,0,,,81,22
128630,note_off,,,,,120,0,1,,,0,,,84,64
128630,note_off,,,,,120,0,2,,,0,,,69,64
128630,note_on,,,,,0,0,2,,,0,,,70,23
128730,set_tempo,,,,,140,1,0,292683,,,,,,
128750,note_on,,,,,0,0,1,,,0,,,84,22
128750,note_off,,,,,0,0,1,,,0,,,81,64
128750,note_off,,,,,120,0,1,,,0,,,75,64
128750,note_on,,,,,0,0,2,,,0,,,72,24
128750,note_off,,,,,120,0,2,,,0,,,70,64
128770,set_tempo,,,,,40,1,0,294118,,,,,,
128870,note_off,,,,,120,0,2,,,0,,,72,64
128870,note_on,,,,,0,0,2,,,0,,,70,26
128870,note_off,,,,,120,0,1,,,0,,,84,64
128870,note_on,,,,,0,0,1,,,0,,,86,26
128870,note_on,,,,,0,0,1,,,0,,,74,26
128870,note_on,,,,,0,0,1,,,0,,,82,26
128930,set_tempo,,,,,160,1,0,297030,,,,,,
129090,set_tempo,,,,,160,1,0,298507,,,,,,
129110,note_off,,,,,0,0,1,,,0,,,82,64
129110,note_off,,,,,240,0,1,,,0,,,74,64
129110,note_off,,,,,0,0,1,,,0,,,86,64
129110,note_off,,,,,240,0,2,,,0,,,70,64
129150,set_tempo,,,,,60,1,0,300000,,,,,,
129190,set_tempo,,,,,40,1,0,303030,,,,,,
129230,set_tempo,,,,,40,1,0,304569,,,,,,
129390,set_tempo,,,,,160,1,0,307692,,,,,,
129530,set_tempo,,,,,140,1,0,309278,,,,,,
129600,marker,,,,,0,1,0,,,,,,,
129600,note_on,,,,,490,0,1,,,0,,,65,44
129600,note_on,,,,,0,0,1,,,0,,,61,44
129600,set_tempo,,,,,70,1,0,263158,,,,,,
129840,note_on,,,,,730,0,2,,,0,,,46,42
129982,note_off,,,,,0,0,1,,,0,,,65,64
129982,note_off,,,,,382,0,1,,,0,,,61,64
130020,note_off,,,,,180,0,2,,,0,,,46,64
130080,note_on,,,,,98,0,1,,,0,,,65,44
130080,note_on,,,,,0,0,1,,,0,,,61,44
130260,set_tempo,,,,,660,1,0,377358,,,,,,
130320,note_on,,,,,0,0,2,,,0,,,49,52
130320,set_tempo,,,,,60,1,0,264317,,,,,,
130320,control_change,,,,,300,0,2,,,0,64,127,,
130462,note_off,,,,,0,0,1,,,0,,,65,64
130462,note_off,,,,,382,0,1,,,0,,,61,64
130500,note_off,,,,,180,0,2,,,0,,,49,64
130560,control_change,,,,,60,0,2,,,0,64,0,,
130560,note_on,,,,,0,0,1,,,0,,,60,38
130560,note_on,,,,,0,0,1,,,0,,,63,38
130560,note_on,,,,,98,0,1,,,0,,,65,38
130750,note_off,,,,,0,0,1,,,0,,,65,64
130750,note_off,,,,,0,0,1,,,0,,,63,64
130750,note_off,,,,,190,0,1,,,0,,,60,64
130800,note_on,,,,,0,0,1,,,0,,,61,43
130800,note_on,,,,,50,0,1,,,0,,,65,43
130800,note_on,,,,,0,0,1,,,0,,,58,43
130990,note_off,,,,,190,0,1,,,0,,,58,64
130990,note_off,,,,,0,0,1,,,0,,,61,64
130990,note_off,,,,,0,0,1,,,0,,,65,64
131040,note_on,,,,,50,0,1,,,0,,,65,47
131040,note_on,,,,,0,0,1,,,0,,,60,47
131040,note_on,,,,,0,0,1,,,0,,,57,47
131280,note_on,,,,,720,0,2,,,0,,,42,40
131422,note_off,,,,,0,0,1,,,0,,,60,64
131422,note_off,,,,,0,0,1,,,0,,,65,64
131422,note_off,,,,,382,0,1,,,0,,,57,64
131460,note_off,,,,,180,0,2,,,0,,,42,64
131520,note_on,,,,,98,0,1,,,0,,,65,51
131520,note_on,,,,,0,0,1,,,0,,,60,51
131520,note_on,,,,,0,0,1,,,0,,,57,51
131700,set_tempo,,,,,1380,1,0,377358,,,,,,
131760,control_change,,,,,300,0,2,,,0,64,127,,
131760,note_on,,,,,0,0,2,,,0,,,41,65
131760,set_tempo,,,,,60,1,0,264317,,,,,,
131902,note_off,,,,,382,0,1,,,0,,,57,64
131902,note_off,,,,,0,0,1,,,0,,,60,64
131902,note_off,,,,,0,0,1,,,0,,,65,64
131940,note_off,,,,,180,0,2,,,0,,,41,64
132000,note_on,,,,,0,0,1,,,0,,,58,33
132000,note_on,,,,,0,0,1,,,0,,,61,33
132000,note_on,,,,,98,0,1,,,0,,,65,33
132000,control_change,,,,,60,0,2,,,0,64,0,,
132190,note_off,,,,,0,0,1,,,0,,,65,64
132190,note_off,,,,,190,0,1,,,0,,,58,64
132190,note_off,,,,,0,0,1,,,0,,,61,64
132240,note_on,,,,,50,0,1,,,0,,,65,37
132240,note_on,,,,,0,0,1,,,0,,,63,37
132240,note_on,,,,,0,0,1,,,0,,,60,37
132430,note_off,,,,,190,0,1,,,0,,,60,64
132430,note_off,,,,,0,0,1,,,0,,,65,64
132430,note_off,,,,,0,0,1,,,0,,,63,64
132480,note_on,,,,,50,0,1,,,0,,,65,41
132480,note_on,,,,,0,0,1,,,0,,,61,41
132720,note_on,,,,,720,0,2,,,0,,,46,41
132862,note_off,,,,,382,0,1,,,0,,,61,64
132862,note_off,,,,,0,0,1,,,0,,,65,64
132900,note_off,,,,,180,0,2,,,0,,,46,64
132960,note_on,,,,,98,0,1,,,0,,,65,44
132960,note_on,,,,,0,0,1,,,0,,,61,44
133140,set_tempo,,,,,1380,1,0,379747,,,,,,
133200,control_change,,,,,300,0,2,,,0,64,127,,
133200,set_tempo,,,,,60,1,0,264317,,,,,,
133200,note_on,,,,,0,0,2,,,0,,,49,60
133342,note_off,,,,,0,0,1,,,0,,,65,64
133342,note_off,,,,,382,0,1,,,0,,,61,64
133380,note_off,,,,,180,0,2,,,0,,,49,64
133440,control_change,,,,,60,0,2,,,0,64,0,,
133440,note_on,,,,,0,0,1,,,0,,,60,41
133440,note_on,,,,,98,0,1,,,0,,,65,41
133440,note_on,,,,,0,0,1,,,0,,,61,41
133630,note_off,,,,,0,0,1,,,0,,,61,64
133630,note_off,,,,,0,0,1,,,0,,,65,64
133630,note_off,,,,,190,0,1,,,0,,,60,64
133680,note_on,,,,,0,0,1,,,0,,,61,36
133680,note_on,,,,,50,0,1,,,0,,,65,36
133680,note_on,,,,,0,0,1,,,0,,,58,36
133870,note_off,,,,,0,0,1,,,0,,,61,64
133870,note_off,,,,,190,0,1,,,0,,,58,64
133870,note_off,,,,,0,0,1,,,0,,,65,64
133920,note_on,,,,,50,0,1,,,0,,,65,35
133920,note_on,,,,,0,0,1,,,0,,,56,35
133920,note_on,,,,,0,0,1,,,0,,,61,35
134160,note_on,,,,,720,0,2,,,0,,,41,38
134302,note_off,,,,,0,0,1,,,0,,,65,64
134302,note_off,,,,,382,0,1,,,0,,,56,64
134302,note_off,,,,,0,0,1,,,0,,,61,64
134340,note_off,,,,,180,0,2,,,0,,,41,64
134400,note_on,,,,,98,0,1,,,0,,,65,29
134400,note_on,,,,,0,0,1,,,0,,,56,29
134400,note_on,,,,,0,0,1,,,0,,,61,29
134580,set_tempo,,,,,1380,1,0,377358,,,,,,
134640,control_change,,,,,300,0,2,,,0,64,127,,
134640,note_on,,,,,0,0,2,,,0,,,29,53
134640,set_tempo,,,,,60,1,0,263158,,,,,,
134782,note_off,,,,,382,0,1,,,0,,,56,64
134782,note_off,,,,,0,0,1,,,0,,,61,64
134782,note_off,,,,,0,0,1,,,0,,,65,64
134820,note_off,,,,,180,0,2,,,0,,,29,64
134880,control_change,,,,,60,0,2,,,0,64,0,,
134880,note_on,,,,,98,0,1,,,0,,,68,32
134880,note_on,,,,,0,0,1,,,0,,,65,32
134880,note_on,,,,,0,0,1,,,0,,,61,32
134880,note_on,,,,,0,0,1,,,0,,,56,32
135070,note_off,,,,,0,0,1,,,0,,,68,64
135070,note_off,,,,,0,0,1,,,0,,,65,64
135070,note_off,,,,,190,0,1,,,0,,,56,64
135070,note_off,,,,,0,0,1,,,0,,,61,64
135120,note_on,,,,,50,0,1,,,0,,,68,36
135120,note_on,,,,,0,0,1,,,0,,,65,36
135120,note_on,,,,,0,0,1,,,0,,,61,36
135120,note_on,,,,,0,0,1,,,0,,,56,36
135310,note_off,,,,,0,0,1,,,0,,,61,64
135310,note_off,,,,,190,0,1,,,0,,,56,64
135310,note_off,,,,,0,0,1,,,0,,,65,64
135310,note_off,,,,,0,0,1,,,0,,,68,64
135360,note_on,,,,,50,0,1,,,0,,,61,41
135360,note_on,,,,,0,0,1,,,0,,,65,41
135360,note_on,,,,,0,0,1,,,0,,,56,41
135600,note_on,,,,,720,0,2,,,0,,,37,46
135742,note_off,,,,,0,0,1,,,0,,,61,64
135742,note_off,,,,,0,0,1,,,0,,,65,64
135742,note_off,,,,,382,0,1,,,0,,,56,64
135780,note_off,,,,,180,0,2,,,0,,,37,64
135840,note_on,,,,,0,0,1,,,0,,,56,28
135840,note_on,,,,,0,0,1,,,0,,,61,28
135840,note_on,,,,,98,0,1,,,0,,,65,28
136020,set_tempo,,,,,1380,1,0,377358,,,,,,
136040,set_tempo,,,,,20,1,0,372671,,,,,,
136080,control_change,,,,,300,0,2,,,0,64,127,,
136080,set_tempo,,,,,40,1,0,263158,,,,,,
136080,note_on,,,,,0,0,2,,,0,,,37,47
136260,note_off,,,,,180,0,2,,,0,,,37,64
136290,note_off,,,,,0,0,1,,,0,,,65,64
136290,note_off,,,,,450,0,1,,,0,,,56,64
136290,note_off,,,,,0,0,1,,,0,,,61,64
136320,note_on,,,,,0,0,2,,,0,,,49,43
136320,control_change,,,,,60,0,2,,,0,64,0,,
136500,note_off,,,,,180,0,2,,,0,,,49,64
136560,note_on,,,,,60,0,2,,,0,,,48,36
136740,note_off,,,,,180,0,2,,,0,,,48,64
136800,note_on,,,,,510,0,1,,,0,,,65,44
136800,note_on,,,,,0,0,1,,,0,,,61,44
137040,note_on,,,,,300,0,2,,,0,,,46,42
137182,note_off,,,,,0,0,1,,,0,,,65,64
137182,note_off,,,,,382,0,1,,,0,,,61,64
137220,note_off,,,,,180,0,2,,,0,,,46,64
137280,note_on,,,,,0,0,1,,,0,,,61,44
137280,note_on,,,,,98,0,1,,,0,,,65,44
137460,set_tempo,,,,,1380,1,0,377358,,,,,,
137520,set_tempo,,,,,60,1,0,264317,,,,,,
137520,control_change,,,,,300,0,2,,,0,64,127,,
137520,note_on,,,,,0,0,2,,,0,,,49,52
137662,note_off,,,,,382,0,1,,,0,,,61,64
137662,note_off,,,,,0,0,1,,,0,,,65,64
137700,note_off,,,,,180,0,2,,,0,,,49,64
137760,note_on,,,,,98,0,1,,,0,,,65,38
137760,note_on,,,,,0,0,1,,,0,,,63,38
137760,note_on,,,,,0,0,1,,,0,,,60,38
137760,control_change,,,,,60,0,2,,,0,64,0,,
137950,note_off,,,,,0,0,1,,,0,,,63,64
137950,note_off,,,,,190,0,1,,,0,,,60,64
137950,note_off,,,,,0,0,1,,,0,,,65,64
138000,note_on,,,,,50,0,1,,,0,,,65,43
138000,note_on,,,,,0,0,1,,,0,,,61,43
138000,note_on,,,,,0,0,1,,,0,,,58,43
138190,note_off,,,,,0,0,1,,,0,,,65,64
138190,note_off,,,,,190,0,1,,,0,,,58,64
138190,note_off,,,,,0,0,1,,,0,,,61,64
138240,note_on,,,,,0,0,1,,,0,,,65,47
138240,note_on,,,,,0,0,1,,,0,,,57,47
138240,note_on,,,,,50,0,1,,,0,,,60,47
138480,note_on,,,,,720,0,2,,,0,,,42,40
138622,note_off,,,,,0,0,1,,,0,,,60,64
138622,note_off,,,,,0,0,1,,,0,,,65,64
138622,note_off,,,,,382,0,1,,,0,,,57,64
138660,note_off,,,,,180,0,2,,,0,,,42,64
138720,note_on,,,,,0,0,1,,,0,,,57,51
138720,note_on,,,,,0,0,1,,,0,,,60,51
138720,note_on,,,,,98,0,1,,,0,,,65,51
138900,set_tempo,,,,,1380,1,0,377358,,,,,,
138960,control_change,,,,,300,0,2,,,0,64,127,,
138960,set_tempo,,,,,60,1,0,264317,,,,,,
138960,note_on,,,,,0,0,2,,,0,,,41,65
139102,note_off,,,,,382,0,1,,,0,,,57,64
139102,note_off,,,,,0,0,1,,,0,,,60,64
139102,note_off,,,,,0,0,1,,,0,,,65,64
139140,note_off,,,,,180,0,2,,,0,,,41,64
139200,control_change,,,,,60,0,2,,,0,64,0,,
139200,note_on,,,,,98,0,1,,,0,,,65,33
139200,note_on,,,,,0,0,1,,,0,,,58,33
139200,note_on,,,,,0,0,1,,,0,,,61,33
139390,note_off,,,,,0,0,1,,,0,,,61,64
139390,note_off,,,,,190,0,1,,,0,,,58,64
139390,note_off,,,,,0,0,1,,,0,,,65,64
139440,note_on,,,,,50,0,1,,,0,,,65,37
139440,note_on,,,,,0,0,1,,,0,,,63,37
139440,note_on,,,,,0,0,1,,,0,,,60,37
139630,note_off,,,,,190,0,1,,,0,,,60,64
139630,note_off,,,,,0,0,1,,,0,,,63,64
139630,note_off,,,,,0,0,1,,,0,,,65,64
139680,note_on,,,,,50,0,1,,,0,,,65,41
139680,note_on,,,,,0,0,1,,,0,,,61,41
139920,note_on,,,,,720,0,2,,,0,,,46,41
140062,note_off,,,,,0,0,1,,,0,,,65,64
140062,note_off,,,,,382,0,1,,,0,,,61,64
140100,note_off,,,,,180,0,2,,,0,,,46,64
140160,note_on,,,,,98,0,1,,,0,,,65,44
140160,note_on,,,,,0,0,1,,,0,,,61,44
140340,set_tempo,,,,,1380,1,0,379747,,,,,,
140400,set_tempo,,,,,60,1,0,264317,,,,,,
140400,note_on,,,,,0,0,2,,,0,,,49,55
140400,control_change,,,,,300,0,2,,,0,64,127,,
140542,note_off,,,,,382,0,1,,,0,,,61,64
140542,note_off,,,,,0,0,1,,,0,,,65,64
140580,note_off,,,,,180,0,2,,,0,,,49,64
140640,control_change,,,,,60,0,2,,,0,64,0,,
140640,note_on,,,,,0,0,1,,,0,,,60,41
140640,note_on,,,,,0,0,1,,,0,,,61,41
140640,note_on,,,,,98,0,1,,,0,,,65,41
140830,note_off,,,,,0,0,1,,,0,,,61,64
140830,note_off,,,,,0,0,1,,,0,,,65,64
140830,note_off,,,,,190,0,1,,,0,,,60,64
140880,note_on,,,,,0,0,1,,,0,,,58,36
140880,note_on,,,,,50,0,1,,,0,,,65,36
140880,note_on,,,,,0,0,1,,,0,,,61,36
141070,note_off,,,,,0,0,1,,,0,,,61,64
141070,note_off,,,,,0,0,1,,,0,,,65,64
141070,note_off,,,,,190,0,1,,,0,,,58,64
141120,note_on,,,,,0,0,1,,,0,,,61,35
141120,note_on,,,,,50,0,1,,,0,,,65,35
141120,note_on,,,,,0,0,1,,,0,,,56,35
141360,note_on,,,,,720,0,2,,,0,,,41,38
141502,note_off,,,,,0,0,1,,,0,,,65,64
141502,note_off,,,,,382,0,1,,,0,,,56,64
141502,note_off,,,,,0,0,1,,,0,,,61,64
141540,note_off,,,,,180,0,2,,,0,,,41,64
141600,note_on,,,,,0,0,1,,,0,,,56,29
141600,note_on,,,,,0,0,1,,,0,,,61,29
141600,note_on,,,,,98,0,1,,,0,,,65,29
141780,set_tempo,,,,,1380,1,0,377358,,,,,,
141840,note_on,,,,,0,0,2,,,0,,,29,56
141840,set_tempo,,,,,60,1,0,263158,,,,,,
141840,control_change,,,,,300,0,2,,,0,64,127,,
141982,note_off,,,,,382,0,1,,,0,,,56,64
141982,note_off,,,,,0,0,1,,,0,,,65,64
141982,note_off,,,,,0,0,1,,,0,,,61,64
142020,note_off,,,,,180,0,2,,,0,,,29,64
142080,control_change,,,,,60,0,2,,,0,64,0,,
142080,note_on,,,,,0,0,1,,,0,,,56,32
142080,note_on,,,,,98,0,1,,,0,,,68,32
142080,note_on,,,,,0,0,1,,,0,,,65,32
142080,note_on,,,,,0,0,1,,,0,,,61,32
142270,note_off,,,,,0,0,1,,,0,,,68,64
142270,note_off,,,,,0,0,1,,,0,,,65,64
142270,note_off,,,,,0,0,1,,,0,,,61,64
142270,note_off,,,,,190,0,1,,,0,,,56,64
142320,note_on,,,,,0,0,1,,,0,,,56,36
142320,note_on,,,,,0,0,1,,,0,,,61,36
142320,note_on,,,,,0,0,1,,,0,,,65,36
142320,note_on,,,,,50,0,1,,,0,,,68,36
142510,note_off,,,,,0,0,1,,,0,,,68,64
142510,note_off,,,,,0,0,1,,,0,,,65,64
142510,note_off,,,,,0,0,1,,,0,,,61,64
142510,note_off,,,,,190,0,1,,,0,,,56,64
142560,note_on,,,,,0,0,1,,,0,,,61,41
142560,note_on,,,,,0,0,1,,,0,,,56,41
142560,note_on,,,,,50,0,1,,,0,,,65,41
142800,note_on,,,,,720,0,2,,,0,,,37,46
142942,note_off,,,,,0,0,1,,,0,,,61,64
142942,note_off,,,,,0,0,1,,,0,,,65,64
142942,note_off,,,,,382,0,1,,,0,,,56,64
142980,note_off,,,,,180,0,2,,,0,,,37,64
143040,note_on,,,,,98,0,1,,,0,,,65,28
143040,note_on,,,,,0,0,1,,,0,,,61,28
143040,note_on,,,,,0,0,1,,,0,,,56,28
143220,set_tempo,,,,,1380,1,0,377358,,,,,,
143240,set_tempo,,,,,20,1,0,372671,,,,,,
143280,set_tempo,,,,,40,1,0,263158,,,,,,
143280,note_on,,,,,0,0,2,,,0,,,37,47
143280,control_change,,,,,300,0,2,,,0,64,127,,
143460,note_off,,,,,180,0,2,,,0,,,37,64
143490,note_off,,,,,450,0,1,,,0,,,56,64
143490,note_off,,,,,0,0,1,,,0,,,65,64
143490,note_off,,,,,0,0,1,,,0,,,61,64
143520,note_on,,,,,0,0,2,,,0,,,49,43
143520,control_change,,,,,60,0,2,,,0,64,0,,
143700,note_off,,,,,180,0,2,,,0,,,49,64
143760,note_on,,,,,60,0,2,,,0,,,48,39
143940,note_off,,,,,180,0,2,,,0,,,48,64
144000,note_on,,,,,0,0,1,,,0,,,58,39
144000,note_on,,,,,510,0,1,,,0,,,66,39
144000,note_on,,,,,0,0,1,,,0,,,61,39
144240,note_on,,,,,300,0,2,,,0,,,46,41
144382,note_off,,,,,382,0,1,,,0,,,58,64
144382,note_off,,,,,0,0,1,,,0,,,61,64
144382,note_off,,,,,0,0,1,,,0,,,66,64
144420,note_off,,,,,180,0,2,,,0,,,46,64
144480,note_on,,,,,98,0,1,,,0,,,66,47
144480,note_on,,,,,0,0,1,,,0,,,61,47
144480,note_on,,,,,0,0,1,,,0,,,58,47
144660,set_tempo,,,,,1380,1,0,379747,,,,,,
144720,note_on,,,,,0,0,2,,,0,,,49,56
144720,control_change,,,,,300,0,2,,,0,64,127,,
144720,set_tempo,,,,,60,1,0,263158,,,,,,
144862,note_off,,,,,382,0,1,,,0,,,58,64
144862,note_off,,,,,0,0,1,,,0,,,61,64
144862,note_off,,,,,0,0,1,,,0,,,66,64
144900,note_off,,,,,180,0,2,,,0,,,49,64
144960,note_on,,,,,0,0,1,,,0,,,58,33
144960,control_change,,,,,60,0,2,,,0,64,0,,
144960,note_on,,,,,98,0,1,,,0,,,68,33
144960,note_on,,,,,0,0,1,,,0,,,61,33
145150,note_off,,,,,0,0,1,,,0,,,68,64
145150,note_off,,,,,190,0,1,,,0,,,58,64
145150,note_off,,,,,0,0,1,,,0,,,61,64
145200,note_on,,,,,0,0,1,,,0,,,61,40
145200,note_on,,,,,50,0,1,,,0,,,70,40
145200,note_on,,,,,0,0,1,,,0,,,58,40
145390,note_off,,,,,0,0,1,,,0,,,70,64
145390,note_off,,,,,0,0,1,,,0,,,61,64
145390,note_off,,,,,190,0,1,,,0,,,58,64
145440,note_on,,,,,0,0,1,,,0,,,56,45
145440,note_on,,,,,0,0,1,,,0,,,60,45
145440,note_on,,,,,50,0,1,,,0,,,65,45
145680,note_on,,,,,720,0,2,,,0,,,48,41
145822,note_off,,,,,0,0,1,,,0,,,60,64
145822,note_off,,,,,0,0,1,,,0,,,65,64
145822,note_off,,,,,382,0,1,,,0,,,56,64
145860,note_off,,,,,180,0,2,,,0,,,48,64
145920,note_on,,,,,0,0,1,,,0,,,56,38
145920,note_on,,,,,0,0,1,,,0,,,60,38
145920,note_on,,,,,98,0,1,,,0,,,65,38
146100,set_tempo,,,,,1380,1,0,377358,,,,,,
146160,control_change,,,,,300,0,2,,,0,64,127,,
146160,note_on,,,,,0,0,2,,,0,,,36,62
146160,set_tempo,,,,,60,1,0,263158,,,,,,
146302,note_off,,,,,0,0,1,,,0,,,65,64
146302,note_off,,,,,0,0,1,,,0,,,60,64
146302,note_off,,,,,382,0,1,,,0,,,56,64
146340,note_off,,,,,180,0,2,,,0,,,36,64
146400,control_change,,,,,60,0,2,,,0,64,0,,
146400,note_on,,,,,98,0,1,,,0,,,64,38
146400,note_on,,,,,0,0,1,,,0,,,55,38
146400,note_on,,,,,0,0,1,,,0,,,60,38
146590,note_off,,,,,190,0,1,,,0,,,55,64
146590,note_off,,,,,0,0,1,,,0,,,60,64
146590,note_off,,,,,0,0,1,,,0,,,64,64
146640,note_on,,,,,50,0,1,,,0,,,64,46
146640,note_on,,,,,0,0,1,,,0,,,60,46
146640,note_on,,,,,0,0,1,,,0,,,55,46
146830,note_off,,,,,190,0,1,,,0,,,55,64
146830,note_off,,,,,0,0,1,,,0,,,60,64
146830,note_off,,,,,0,0,1,,,0,,,64,64
146880,note_on,,,,,0,0,1,,,0,,,60,53
146880,note_on,,,,,0,0,1,,,0,,,56,53
146880,note_on,,,,,50,0,1,,,0,,,63,53
147120,note_on,,,,,720,0,2,,,0,,,48,58
147262,note_off,,,,,382,0,1,,,0,,,56,64
147262,note_off,,,,,0,0,1,,,0,,,60,64
147262,note_off,,,,,0,0,1,,,0,,,63,64
147300,note_off,,,,,180,0,2,,,0,,,48,64
147360,note_on,,,,,98,0,1,,,0,,,63,60
147360,note_on,,,,,0,0,1,,,0,,,60,60
147360,note_on,,,,,0,0,1,,,0,,,56,60
147540,set_tempo,,,,,1380,1,0,379747,,,,,,
147600,note_off,,,,,0,0,1,,,0,,,60,64
147600,note_on,,,,,0,0,1,,,0,,,58,49
147600,note_on,,,,,0,0,1,,,0,,,61,49
147600,note_off,,,,,240,0,1,,,0,,,56,64
147600,control_change,,,,,300,0,2,,,0,64,127,,
147600,note_on,,,,,0,0,2,,,0,,,51,78
147660,set_tempo,,,,,120,1,0,266667,,,,,,
147720,set_tempo,,,,,60,1,0,267857,,,,,,
147740,set_tempo,,,,,20,1,0,269058,,,,,,
147742,note_off,,,,,0,0,1,,,0,,,61,64
147742,note_off,,,,,0,0,1,,,0,,,63,64
147742,note_off,,,,,142,0,1,,,0,,,58,64
147780,set_tempo,,,,,40,1,0,271493,,,,,,
147780,note_off,,,,,180,0,2,,,0,,,51,64
147820,set_tempo,,,,,40,1,0,272727,,,,,,
147840,note_on,,,,,98,0,1,,,0,,,63,57
147840,note_on,,,,,0,0,1,,,0,,,55,57
147840,note_on,,,,,0,0,1,,,0,,,58,57
147840,control_change,,,,,60,0,2,,,0,64,0,,
147900,set_tempo,,,,,80,1,0,273973,,,,,,
147920,set_tempo,,,,,20,1,0,275229,,,,,,
147980,set_tempo,,,,,60,1,0,276498,,,,,,
148020,set_tempo,,,,,40,1,0,277778,,,,,,
148030,note_off,,,,,0,0,1,,,0,,,63,64
148030,note_off,,,,,0,0,1,,,0,,,58,64
148030,note_off,,,,,190,0,1,,,0,,,55,64
148080,set_tempo,,,,,60,1,0,279070,,,,,,
148080,note_on,,,,,0,0,1,,,0,,,55,64
148080,note_on,,,,,0,0,1,,,0,,,58,64
148080,note_on,,,,,50,0,1,,,0,,,63,64
148140,set_tempo,,,,,60,1,0,281690,,,,,,
148200,set_tempo,,,,,60,1,0,283019,,,,,,
148220,set_tempo,,,,,20,1,0,284360,,,,,,
148270,note_off,,,,,0,0,1,,,0,,,63,64
148270,note_off,,,,,0,0,1,,,0,,,58,64
148270,note_off,,,,,190,0,1,,,0,,,55,64
148300,set_tempo,,,,,80,1,0,285714,,,,,,
148320,note_on,,,,,0,0,1,,,0,,,60,67
148320,note_on,,,,,0,0,1,,,0,,,63,67
148320,note_on,,,,,50,0,1,,,0,,,68,67
148340,set_tempo,,,,,40,1,0,287081,,,,,,
148400,set_tempo,,,,,60,1,0,288462,,,,,,
148440,set_tempo,,,,,40,1,0,289855,,,,,,
148560,note_on,,,,,720,0,2,,,0,,,44,59
148560,set_tempo,,,,,120,1,0,292683,,,,,,
148660,set_tempo,,,,,100,1,0,294118,,,,,,
148680,set_tempo,,,,,20,1,0,295567,,,,,,
148702,note_off,,,,,0,0,1,,,0,,,63,64
148702,note_off,,,,,382,0,1,,,0,,,60,64
148702,note_off,,,,,0,0,1,,,0,,,68,64
148740,set_tempo,,,,,60,1,0,298507,,,,,,
148740,note_off,,,,,180,0,2,,,0,,,44,64
148780,set_tempo,,,,,40,1,0,300000,,,,,,
148800,note_on,,,,,98,0,1,,,0,,,68,66
148800,note_on,,,,,0,0,1,,,0,,,60,66
148800,note_on,,,,,60,0,2,,,0,,,42,67
148800,note_on,,,,,0,0,1,,,0,,,63,66
148800,set_tempo,,,,,20,1,0,310881,,,,,,
148820,set_tempo,,,,,20,1,0,312500,,,,,,
148840,set_tempo,,,,,20,1,0,317460,,,,,,
148880,set_tempo,,,,,40,1,0,320856,,,,,,
148900,set_tempo,,,,,20,1,0,329670,,,,,,
148920,set_tempo,,,,,20,1,0,331492,,,,,,
148940,set_tempo,,,,,20,1,0,335196,,,,,,
148960,set_tempo,,,,,20,1,0,342857,,,,,,
148980,note_off,,,,,180,0,2,,,0,,,42,64
148980,set_tempo,,,,,20,1,0,348837,,,,,,
149000,set_tempo,,,,,20,1,0,350877,,,,,,
149020,set_tempo,,,,,20,1,0,355030,,,,,,
149040,set_tempo,,,,,20,1,0,337079,,,,,,
149040,control_change,,,,,60,0,2,,,0,64,127,,
149040,note_on,,,,,0,0,2,,,0,,,41,71
149040,note_on,,,,,0,0,1,,,0,,,69,69
149040,note_off,,,,,240,0,1,,,0,,,68,64
149060,set_tempo,,,,,20,1,0,322581,,,,,,
149080,set_tempo,,,,,20,1,0,310881,,,,,,
149100,set_tempo,,,,,20,1,0,309278,,,,,,
149120,set_tempo,,,,,20,1,0,304569,,,,,,
149140,set_tempo,,,,,20,1,0,295567,,,,,,
149160,set_tempo,,,,,20,1,0,292683,,,,,,
149180,set_tempo,,,,,20,1,0,289855,,,,,,
149182,note_off,,,,,142,0,1,,,0,,,60,64
149182,note_off,,,,,0,0,1,,,0,,,69,64
149182,note_off,,,,,0,0,1,,,0,,,63,64
149200,set_tempo,,,,,20,1,0,285714,,,,,,
149220,set_tempo,,,,,20,1,0,283019,,,,,,
149220,note_off,,,,,180,0,2,,,0,,,41,64
149280,note_on,,,,,0,0,1,,,0,,,63,53
149280,note_on,,,,,0,0,1,,,0,,,60,53
149280,note_on,,,,,98,0,1,,,0,,,65,53
149280,control_change,,,,,60,0,2,,,0,64,0,,
149340,set_tempo,,,,,120,1,0,277778,,,,,,
149360,set_tempo,,,,,20,1,0,275229,,,,,,
149380,set_tempo,,,,,20,1,0,273973,,,,,,
149420,set_tempo,,,,,40,1,0,271493,,,,,,
149440,set_tempo,,,,,20,1,0,266667,,,,,,
149470,note_off,,,,,0,0,1,,,0,,,63,64
149470,note_off,,,,,190,0,1,,,0,,,60,64
149470,note_off,,,,,0,0,1,,,0,,,65,64
149520,note_on,,,,,0,0,1,,,0,,,60,41
149520,note_on,,,,,0,0,1,,,0,,,63,41
149520,note_on,,,,,50,0,1,,,0,,,65,41
149560,set_tempo,,,,,120,1,0,264317,,,,,,
149710,note_off,,,,,0,0,1,,,0,,,65,64
149710,note_off,,,,,0,0,1,,,0,,,63,64
149710,note_off,,,,,190,0,1,,,0,,,60,64
149760,note_on,,,,,0,0,1,,,0,,,65,65
149760,note_on,,,,,50,0,1,,,0,,,73,65
149860,set_tempo,,,,,300,1,0,260870,,,,,,
150000,note_on,,,,,720,0,2,,,0,,,58,71
150142,note_off,,,,,0,0,1,,,0,,,73,64
150142,note_off,,,,,382,0,1,,,0,,,65,64
150180,note_off,,,,,180,0,2,,,0,,,58,64
150240,note_on,,,,,0,0,1,,,0,,,65,76
150240,note_on,,,,,98,0,1,,,0,,,73,76
150420,set_tempo,,,,,560,1,0,377358,,,,,,
150480,control_change,,,,,300,0,2,,,0,64,127,,
150480,set_tempo,,,,,60,1,0,263158,,,,,,
150480,note_on,,,,,0,0,2,,,0,,,61,90
150622,note_off,,,,,0,0,1,,,0,,,73,64
150622,note_off,,,,,382,0,1,,,0,,,65,64
150660,note_off,,,,,180,0,2,,,0,,,61,64
150720,note_on,,,,,0,0,1,,,0,,,63,61
150720,note_on,,,,,0,0,1,,,0,,,65,61
150720,note_on,,,,,98,0,1,,,0,,,72,61
150720,control_change,,,,,60,0,2,,,0,64,0,,
150910,note_off,,,,,190,0,1,,,0,,,63,64
150910,note_off,,,,,0,0,1,,,0,,,72,64
150910,note_off,,,,,0,0,1,,,0,,,65,64
150960,note_on,,,,,50,0,1,,,0,,,70,71
150960,note_on,,,,,0,0,1,,,0,,,61,71
150960,note_on,,,,,0,0,1,,,0,,,65,71
151150,note_off,,,,,0,0,1,,,0,,,65,64
151150,note_off,,,,,0,0,1,,,0,,,70,64
151150,note_off,,,,,190,0,1,,,0,,,61,64
151200,note_on,,,,,50,0,1,,,0,,,69,80
151200,note_on,,,,,0,0,1,,,0,,,65,80
151200,note_on,,,,,0,0,1,,,0,,,60,80
151440,note_on,,,,,720,0,2,,,0,,,54,68
151582,note_off,,,,,0,0,1,,,0,,,65,64
151582,note_off,,,,,0,0,1,,,0,,,69,64
151582,note_off,,,,,382,0,1,,,0,,,60,64
151620,note_off,,,,,180,0,2,,,0,,,54,64
151680,note_on,,,,,0,0,1,,,0,,,65,65
151680,note_on,,,,,98,0,1,,,0,,,69,65
151680,note_on,,,,,0,0,1,,,0,,,60,65
151860,set_tempo,,,,,1380,1,0,372671,,,,,,
151920,set_tempo,,,,,60,1,0,263158,,,,,,
151920,control_change,,,,,300,0,2,,,0,64,127,,
151920,note_on,,,,,0,0,2,,,0,,,53,90
152062,note_off,,,,,382,0,1,,,0,,,60,64
152062,note_off,,,,,0,0,1,,,0,,,65,64
152062,note_off,,,,,0,0,1,,,0,,,69,64
152100,note_off,,,,,180,0,2,,,0,,,53,64
152160,control_change,,,,,60,0,2,,,0,64,0,,
152160,note_on,,,,,98,0,1,,,0,,,70,64
152160,note_on,,,,,0,0,1,,,0,,,65,64
152160,note_on,,,,,0,0,1,,,0,,,61,64
152350,note_off,,,,,190,0,1,,,0,,,61,64
152350,note_off,,,,,0,0,1,,,0,,,70,64
152350,note_off,,,,,0,0,1,,,0,,,65,64
152400,note_on,,,,,50,0,1,,,0,,,72,59
152400,note_on,,,,,0,0,1,,,0,,,63,59
152400,note_on,,,,,0,0,1,,,0,,,65,59
152590,note_off,,,,,190,0,1,,,0,,,63,64
152590,note_off,,,,,0,0,1,,,0,,,65,64
152590,note_off,,,,,0,0,1,,,0,,,72,64
152640,note_on,,,,,0,0,1,,,0,,,61,58
152640,note_on,,,,,50,0,1,,,0,,,65,58
152880,note_on,,,,,720,0,2,,,0,,,46,60
153022,note_off,,,,,382,0,1,,,0,,,61,64
153022,note_off,,,,,0,0,1,,,0,,,65,64
153060,note_off,,,,,180,0,2,,,0,,,46,64
153120,note_on,,,,,0,0,1,,,0,,,61,51
153120,note_on,,,,,98,0,1,,,0,,,65,51
153300,set_tempo,,,,,1380,1,0,372671,,,,,,
153360,set_tempo,,,,,60,1,0,263158,,,,,,
153360,note_on,,,,,0,0,2,,,0,,,49,73
153360,control_change,,,,,300,0,2,,,0,64,127,,
153502,note_off,,,,,382,0,1,,,0,,,61,64
153502,note_off,,,,,0,0,1,,,0,,,65,64
153540,note_off,,,,,180,0,2,,,0,,,49,64
153600,note_on,,,,,98,0,1,,,0,,,65,52
153600,note_on,,,,,0,0,1,,,0,,,61,52
153600,note_on,,,,,0,0,1,,,0,,,60,52
153600,control_change,,,,,60,0,2,,,0,64,0,,
153790,note_off,,,,,190,0,1,,,0,,,60,64
153790,note_off,,,,,0,0,1,,,0,,,61,64
153790,note_off,,,,,0,0,1,,,0,,,65,64
153840,note_on,,,,,50,0,1,,,0,,,65,58
153840,note_on,,,,,0,0,1,,,0,,,61,58
153840,note_on,,,,,0,0,1,,,0,,,58,58
154030,note_off,,,,,0,0,1,,,0,,,61,64
154030,note_off,,,,,190,0,1,,,0,,,58,64
154030,note_off,,,,,0,0,1,,,0,,,65,64
154080,note_on,,,,,50,0,1,,,0,,,65,66
154080,note_on,,,,,0,0,1,,,0,,,61,66
154080,note_on,,,,,0,0,1,,,0,,,56,66
154320,note_on,,,,,720,0,2,,,0,,,41,52
154462,note_off,,,,,382,0,1,,,0,,,56,64
154462,note_off,,,,,0,0,1,,,0,,,61,64
154462,note_off,,,,,0,0,1,,,0,,,65,64
154500,note_off,,,,,180,0,2,,,0,,,41,64
154560,note_on,,,,,0,0,1,,,0,,,56,52
154560,note_on,,,,,0,0,1,,,0,,,61,52
154560,note_on,,,,,98,0,1,,,0,,,65,52
154800,control_change,,,,,300,0,2,,,0,64,127,,
154800,note_on,,,,,0,0,2,,,0,,,29,121
154800,set_tempo,,,,,1440,1,0,264317,,,,,,
154840,set_tempo,,,,,40,1,0,265487,,,,,,
154900,set_tempo,,,,,60,1,0,266667,,,,,,
154920,set_tempo,,,,,20,1,0,267857,,,,,,
154942,note_off,,,,,0,0,1,,,0,,,61,64
154942,note_off,,,,,0,0,1,,,0,,,65,64
154942,note_off,,,,,382,0,1,,,0,,,56,64
154960,set_tempo,,,,,40,1,0,269058,,,,,,
154980,note_off,,,,,180,0,2,,,0,,,29,64
155000,set_tempo,,,,,40,1,0,284360,,,,,,
155040,note_on,,,,,0,0,1,,,0,,,57,55
155040,note_on,,,,,0,0,1,,,0,,,60,55
155040,note_on,,,,,98,0,1,,,0,,,63,55
155040,control_change,,,,,60,0,2,,,0,64,0,,
155040,note_on,,,,,0,0,1,,,0,,,54,55
155080,set_tempo,,,,,80,1,0,292683,,,,,,
155100,set_tempo,,,,,20,1,0,297030,,,,,,
155120,set_tempo,,,,,20,1,0,298507,,,,,,
155140,set_tempo,,,,,20,1,0,306122,,,,,,
155160,set_tempo,,,,,20,1,0,315789,,,,,,
155180,set_tempo,,,,,20,1,0,317460,,,,,,
155200,set_tempo,,,,,20,1,0,319149,,,,,,
155220,set_tempo,,,,,20,1,0,326087,,,,,,
155230,note_off,,,,,0,0,1,,,0,,,63,64
155230,note_off,,,,,0,0,1,,,0,,,60,64
155230,note_off,,,,,0,0,1,,,0,,,57,64
155230,note_off,,,,,190,0,1,,,0,,,54,64
155240,set_tempo,,,,,20,1,0,335196,,,,,,
155260,set_tempo,,,,,20,1,0,338983,,,,,,
155280,note_on,,,,,0,0,1,,,0,,,54,44
155280,note_on,,,,,0,0,1,,,0,,,57,44
155280,note_on,,,,,50,0,1,,,0,,,63,44
155280,note_on,,,,,0,0,1,,,0,,,60,44
155300,set_tempo,,,,,40,1,0,355030,,,,,,
155506,note_off,,,,,226,0,1,,,0,,,54,64
155506,note_off,,,,,0,0,1,,,0,,,57,64
155506,note_off,,,,,0,0,1,,,0,,,60,64
155506,note_off,,,,,0,0,1,,,0,,,63,64
155520,set_tempo,,,,,220,1,0,326087,,,,,,
155520,note_on,,,,,0,0,1,,,0,,,53,39
155520,note_on,,,,,14,0,1,,,0,,,61,39
155520,note_on,,,,,0,0,1,,,0,,,58,39
155560,set_tempo,,,,,40,1,0,324324,,,,,,
155600,set_tempo,,,,,40,1,0,322581,,,,,,
155640,set_tempo,,,,,40,1,0,319149,,,,,,
155680,set_tempo,,,,,40,1,0,315789,,,,,,
155760,note_on,,,,,720,0,2,,,0,,,34,52
155800,set_tempo,,,,,120,1,0,304569,,,,,,
155820,set_tempo,,,,,20,1,0,303030,,,,,,
155860,set_tempo,,,,,40,1,0,300000,,,,,,
155880,set_tempo,,,,,20,1,0,298507,,,,,,
155902,note_off,,,,,382,0,1,,,0,,,53,64
155902,note_off,,,,,0,0,1,,,0,,,61,64
155902,note_off,,,,,0,0,1,,,0,,,58,64
155920,set_tempo,,,,,40,1,0,297030,,,,,,
155940,note_off,,,,,180,0,2,,,0,,,34,64
155960,set_tempo,,,,,40,1,0,294118,,,,,,
156000,note_on,,,,,0,0,1,,,0,,,58,35
156000,note_on,,,,,0,0,1,,,0,,,53,35
156000,note_on,,,,,98,0,1,,,0,,,61,35
156000,set_tempo,,,,,40,1,0,289855,,,,,,
156040,set_tempo,,,,,40,1,0,287081,,,,,,
156160,set_tempo,,,,,120,1,0,285714,,,,,,
156200,set_tempo,,,,,40,1,0,283019,,,,,,
156240,set_tempo,,,,,40,1,0,281690,,,,,,
156240,control_change,,,,,300,0,2,,,0,64,127,,
156240,note_on,,,,,0,0,2,,,0,,,46,50
156260,set_tempo,,,,,20,1,0,279070,,,,,,
156280,set_tempo,,,,,20,1,0,277778,,,,,,
156320,set_tempo,,,,,40,1,0,276498,,,,,,
156340,set_tempo,,,,,20,1,0,275229,,,,,,
156380,set_tempo,,,,,40,1,0,273973,,,,,,
156400,set_tempo,,,,,20,1,0,272727,,,,,,
156420,set_tempo,,,,,20,1,0,271493,,,,,,
156420,note_off,,,,,180,0,2,,,0,,,46,64
156440,set_tempo,,,,,20,1,0,269058,,,,,,
156480,note_on,,,,,0,0,2,,,0,,,49,44
156480,control_change,,,,,60,0,2,,,0,64,0,,
156480,note_off,,,,,0,0,1,,,0,,,58,64
156480,note_off,,,,,0,0,1,,,0,,,61,64
156480,set_tempo,,,,,40,1,0,267857,,,,,,
156480,note_off,,,,,480,0,1,,,0,,,53,64
156500,set_tempo,,,,,20,1,0,266667,,,,,,
156560,set_tempo,,,,,60,1,0,264317,,,,,,
156660,note_off,,,,,180,0,2,,,0,,,49,64
156720,note_on,,,,,60,0,2,,,0,,,48,35
156880,set_tempo,,,,,320,1,0,263158,,,,,,
156900,note_off,,,,,180,0,2,,,0,,,48,64
156960,note_on,,,,,0,0,1,,,0,,,58,39
156960,note_on,,,,,0,0,1,,,0,,,61,39
156960,note_on,,,,,480,0,1,,,0,,,66,39
157200,note_on,,,,,300,0,2,,,0,,,46,41
157342,note_off,,,,,0,0,1,,,0,,,61,64
157342,note_off,,,,,382,0,1,,,0,,,58,64
157342,note_off,,,,,0,0,1,,,0,,,66,64
157380,note_off,,,,,180,0,2,,,0,,,46,64
157440,note_on,,,,,0,0,1,,,0,,,58,47
157440,note_on,,,,,0,0,1,,,0,,,61,47
157440,note_on,,,,,98,0,1,,,0,,,66,47
157620,set_tempo,,,,,740,1,0,377358,,,,,,
157680,note_on,,,,,0,0,2,,,0,,,49,56
157680,control_change,,,,,300,0,2,,,0,64,127,,
157680,set_tempo,,,,,60,1,0,263158,,,,,,
157822,note_off,,,,,382,0,1,,,0,,,58,64
157822,note_off,,,,,0,0,1,,,0,,,66,64
157822,note_off,,,,,0,0,1,,,0,,,61,64
157860,note_off,,,,,180,0,2,,,0,,,49,64
157920,note_on,,,,,0,0,1,,,0,,,61,33
157920,note_on,,,,,98,0,1,,,0,,,68,33
157920,control_change,,,,,60,0,2,,,0,64,0,,
157920,note_on,,,,,0,0,1,,,0,,,58,33
158110,note_off,,,,,0,0,1,,,0,,,61,64
158110,note_off,,,,,0,0,1,,,0,,,68,64
158110,note_off,,,,,190,0,1,,,0,,,58,64
158160,note_on,,,,,0,0,1,,,0,,,58,40
158160,note_on,,,,,50,0,1,,,0,,,70,40
158160,note_on,,,,,0,0,1,,,0,,,61,40
158350,note_off,,,,,190,0,1,,,0,,,58,64
158350,note_off,,,,,0,0,1,,,0,,,61,64
158350,note_off,,,,,0,0,1,,,0,,,70,64
158400,note_on,,,,,0,0,1,,,0,,,56,45
158400,note_on,,,,,0,0,1,,,0,,,60,45
158400,note_on,,,,,50,0,1,,,0,,,65,45
158640,note_on,,,,,720,0,2,,,0,,,48,41
158782,note_off,,,,,0,0,1,,,0,,,65,64
158782,note_off,,,,,382,0,1,,,0,,,56,64
158782,note_off,,,,,0,0,1,,,0,,,60,64
158820,note_off,,,,,180,0,2,,,0,,,48,64
158880,note_on,,,,,0,0,1,,,0,,,56,38
158880,note_on,,,,,0,0,1,,,0,,,60,38
158880,note_on,,,,,98,0,1,,,0,,,65,38
159060,set_tempo,,,,,1380,1,0,377358,,,,,,
159120,set_tempo,,,,,60,1,0,263158,,,,,,
159120,control_change,,,,,300,0,2,,,0,64,127,,
159120,note_on,,,,,0,0,2,,,0,,,36,62
159262,note_off,,,,,382,0,1,,,0,,,56,64
159262,note_off,,,,,0,0,1,,,0,,,60,64
159262,note_off,,,,,0,0,1,,,0,,,65,64
159300,note_off,,,,,180,0,2,,,0,,,36,64
159360,note_on,,,,,98,0,1,,,0,,,64,38
159360,note_on,,,,,0,0,1,,,0,,,60,38
159360,note_on,,,,,0,0,1,,,0,,,55,38
159360,control_change,,,,,60,0,2,,,0,64,0,,
159550,note_off,,,,,190,0,1,,,0,,,55,64
159550,note_off,,,,,0,0,1,,,0,,,60,64
159550,note_off,,,,,0,0,1,,,0,,,64,64
159600,note_on,,,,,50,0,1,,,0,,,64,46
159600,note_on,,,,,0,0,1,,,0,,,60,46
159600,note_on,,,,,0,0,1,,,0,,,55,46
159790,note_off,,,,,0,0,1,,,0,,,64,64
159790,note_off,,,,,0,0,1,,,0,,,60,64
159790,note_off,,,,,190,0,1,,,0,,,55,64
159840,note_on,,,,,50,0,1,,,0,,,63,53
159840,note_on,,,,,0,0,1,,,0,,,60,53
159840,note_on,,,,,0,0,1,,,0,,,56,53
160080,note_on,,,,,720,0,2,,,0,,,48,58
160222,note_off,,,,,382,0,1,,,0,,,56,64
160222,note_off,,,,,0,0,1,,,0,,,60,64
160222,note_off,,,,,0,0,1,,,0,,,63,64
160260,note_off,,,,,180,0,2,,,0,,,48,64
160320,note_on,,,,,0,0,1,,,0,,,60,60
160320,note_on,,,,,0,0,1,,,0,,,56,60
160320,note_on,,,,,98,0,1,,,0,,,63,60
160500,set_tempo,,,,,1380,1,0,379747,,,,,,
160560,note_off,,,,,240,0,1,,,0,,,56,64
160560,note_off,,,,,0,0,1,,,0,,,60,64
160560,note_on,,,,,0,0,1,,,0,,,61,49
160560,note_on,,,,,0,0,1,,,0,,,58,49
160560,control_change,,,,,300,0,2,,,0,64,127,,
160560,note_on,,,,,0,0,2,,,0,,,51,78
160620,set_tempo,,,,,120,1,0,266667,,,,,,
160680,set_tempo,,,,,60,1,0,267857,,,,,,
160700,set_tempo,,,,,20,1,0,269058,,,,,,
160702,note_off,,,,,0,0,1,,,0,,,63,64
160702,note_off,,,,,0,0,1,,,0,,,61,64
160702,note_off,,,,,142,0,1,,,0,,,58,64
160740,note_off,,,,,180,0,2,,,0,,,51,64
160740,set_tempo,,,,,40,1,0,271493,,,,,,
160780,set_tempo,,,,,40,1,0,272727,,,,,,
160800,note_on,,,,,98,0,1,,,0,,,63,57
160800,control_change,,,,,60,0,2,,,0,64,0,,
160800,note_on,,,,,0,0,1,,,0,,,58,57
160800,note_on,,,,,0,0,1,,,0,,,55,57
160860,set_tempo,,,,,80,1,0,273973,,,,,,
160880,set_tempo,,,,,20,1,0,275229,,,,,,
160940,set_tempo,,,,,60,1,0,276498,,,,,,
160980,set_tempo,,,,,40,1,0,277778,,,,,,
160990,note_off,,,,,190,0,1,,,0,,,55,64
160990,note_off,,,,,0,0,1,,,0,,,63,64
160990,note_off,,,,,0,0,1,,,0,,,58,64
161040,set_tempo,,,,,60,1,0,279070,,,,,,
161040,note_on,,,,,50,0,1,,,0,,,63,64
161040,note_on,,,,,0,0,1,,,0,,,58,64
161040,note_on,,,,,0,0,1,,,0,,,55,64
161100,set_tempo,,,,,60,1,0,281690,,,,,,
161160,set_tempo,,,,,60,1,0,283019,,,,,,
161180,set_tempo,,,,,20,1,0,284360,,,,,,
161230,note_off,,,,,0,0,1,,,0,,,58,64
161230,note_off,,,,,0,0,1,,,0,,,63,64
161230,note_off,,,,,190,0,1,,,0,,,55,64
161260,set_tempo,,,,,80,1,0,285714,,,,,,
161280,note_on,,,,,0,0,1,,,0,,,60,67
161280,note_on,,,,,50,0,1,,,0,,,68,67
161280,note_on,,,,,0,0,1,,,0,,,63,67
161300,set_tempo,,,,,40,1,0,287081,,,,,,
161360,set_tempo,,,,,60,1,0,288462,,,,,,
161400,set_tempo,,,,,40,1,0,289855,,,,,,
161520,set_tempo,,,,,120,1,0,292683,,,,,,
161520,note_on,,,,,720,0,2,,,0,,,44,59
161620,set_tempo,,,,,100,1,0,294118,,,,,,
161640,set_tempo,,,,,20,1,0,295567,,,,,,
161662,note_off,,,,,0,0,1,,,0,,,63,64
161662,note_off,,,,,0,0,1,,,0,,,68,64
161662,note_off,,,,,382,0,1,,,0,,,60,64
161700,set_tempo,,,,,60,1,0,298507,,,,,,
161700,note_off,,,,,180,0,2,,,0,,,44,64
161740,set_tempo,,,,,40,1,0,300000,,,,,,
161760,note_on,,,,,60,0,2,,,0,,,42,67
161760,note_on,,,,,98,0,1,,,0,,,63,66
161760,note_on,,,,,0,0,1,,,0,,,68,66
161760,set_tempo,,,,,20,1,0,310881,,,,,,
161760,note_on,,,,,0,0,1,,,0,,,60,66
161780,set_tempo,,,,,20,1,0,312500,,,,,,
161800,set_tempo,,,,,20,1,0,317460,,,,,,
161840,set_tempo,,,,,40,1,0,320856,,,,,,
161860,set_tempo,,,,,20,1,0,329670,,,,,,
161880,set_tempo,,,,,20,1,0,331492,,,,,,
161900,set_tempo,,,,,20,1,0,335196,,,,,,
161920,set_tempo,,,,,20,1,0,342857,,,,,,
161940,set_tempo,,,,,20,1,0,348837,,,,,,
161940,note_off,,,,,180,0,2,,,0,,,42,64
161960,set_tempo,,,,,20,1,0,350877,,,,,,
161980,set_tempo,,,,,20,1,0,355030,,,,,,
162000,set_tempo,,,,,20,1,0,337079,,,,,,
162000,control_change,,,,,60,0,2,,,0,64,127,,
162000,note_on,,,,,0,0,1,,,0,,,69,69
162000,note_off,,,,,240,0,1,,,0,,,68,64
162000,note_on,,,,,0,0,2,,,0,,,41,71
162020,set_tempo,,,,,20,1,0,322581,,,,,,
162040,set_tempo,,,,,20,1,0,310881,,,,,,
162060,set_tempo,,,,,20,1,0,309278,,,,,,
162080,set_tempo,,,,,20,1,0,304569,,,,,,
162100,set_tempo,,,,,20,1,0,295567,,,,,,
162120,set_tempo,,,,,20,1,0,292683,,,,,,
162140,set_tempo,,,,,20,1,0,289855,,,,,,
162142,note_off,,,,,0,0,1,,,0,,,69,64
162142,note_off,,,,,0,0,1,,,0,,,63,64
162142,note_off,,,,,142,0,1,,,0,,,60,64
162160,set_tempo,,,,,20,1,0,285714,,,,,,
162180,note_off,,,,,180,0,2,,,0,,,41,64
162180,set_tempo,,,,,20,1,0,283019,,,,,,
162240,note_on,,,,,0,0,1,,,0,,,63,53
162240,note_on,,,,,98,0,1,,,0,,,65,53
162240,control_change,,,,,60,0,2,,,0,64,0,,
162240,note_on,,,,,0,0,1,,,0,,,60,53
162300,set_tempo,,,,,120,1,0,277778,,,,,,
162320,set_tempo,,,,,20,1,0,275229,,,,,,
162340,set_tempo,,,,,20,1,0,273973,,,,,,
162380,set_tempo,,,,,40,1,0,271493,,,,,,
162400,set_tempo,,,,,20,1,0,266667,,,,,,
162430,note_off,,,,,0,0,1,,,0,,,65,64
162430,note_off,,,,,190,0,1,,,0,,,60,64
162430,note_off,,,,,0,0,1,,,0,,,63,64
162480,note_on,,,,,0,0,1,,,0,,,60,41
162480,note_on,,,,,0,0,1,,,0,,,63,41
162480,note_on,,,,,50,0,1,,,0,,,65,41
162520,set_tempo,,,,,120,1,0,264317,,,,,,
162670,note_off,,,,,0,0,1,,,0,,,63,64
162670,note_off,,,,,190,0,1,,,0,,,60,64
162670,note_off,,,,,0,0,1,,,0,,,65,64
162720,note_on,,,,,50,0,1,,,0,,,73,65
162720,note_on,,,,,0,0,1,,,0,,,65,65
162820,set_tempo,,,,,300,1,0,260870,,,,,,
162960,note_on,,,,,720,0,2,,,0,,,58,71
163102,note_off,,,,,382,0,1,,,0,,,65,64
163102,note_off,,,,,0,0,1,,,0,,,73,64
163140,note_off,,,,,180,0,2,,,0,,,58,64
163200,note_on,,,,,98,0,1,,,0,,,73,76
163200,note_on,,,,,0,0,1,,,0,,,65,76
163380,set_tempo,,,,,560,1,0,377358,,,,,,
163440,note_on,,,,,0,0,2,,,0,,,61,90
163440,set_tempo,,,,,60,1,0,263158,,,,,,
163440,control_change,,,,,300,0,2,,,0,64,127,,
163582,note_off,,,,,382,0,1,,,0,,,65,64
163582,note_off,,,,,0,0,1,,,0,,,73,64
163620,note_off,,,,,180,0,2,,,0,,,61,64
163680,note_on,,,,,98,0,1,,,0,,,72,61
163680,note_on,,,,,0,0,1,,,0,,,65,61
163680,note_on,,,,,0,0,1,,,0,,,63,61
163680,control_change,,,,,60,0,2,,,0,64,0,,
163870,note_off,,,,,190,0,1,,,0,,,63,64
163870,note_off,,,,,0,0,1,,,0,,,65,64
163870,note_off,,,,,0,0,1,,,0,,,72,64
163920,note_on,,,,,50,0,1,,,0,,,70,71
163920,note_on,,,,,0,0,1,,,0,,,65,71
163920,note_on,,,,,0,0,1,,,0,,,61,71
164110,note_off,,,,,190,0,1,,,0,,,61,64
164110,note_off,,,,,0,0,1,,,0,,,70,64
164110,note_off,,,,,0,0,1,,,0,,,65,64
164160,note_on,,,,,0,0,1,,,0,,,60,80
164160,note_on,,,,,0,0,1,,,0,,,65,80
164160,note_on,,,,,50,0,1,,,0,,,69,80
164400,note_on,,,,,720,0,2,,,0,,,54,68
164542,note_off,,,,,382,0,1,,,0,,,60,64
164542,note_off,,,,,0,0,1,,,0,,,65,64
164542,note_off,,,,,0,0,1,,,0,,,69,64
164580,note_off,,,,,180,0,2,,,0,,,54,64
164640,note_on,,,,,98,0,1,,,0,,,69,65
164640,note_on,,,,,0,0,1,,,0,,,65,65
164640,note_on,,,,,0,0,1,,,0,,,60,65
164820,set_tempo,,,,,1380,1,0,372671,,,,,,
164880,control_change,,,,,300,0,2,,,0,64,127,,
164880,set_tempo,,,,,60,1,0,263158,,,,,,
164880,note_on,,,,,0,0,2,,,0,,,53,90
165022,note_off,,,,,0,0,1,,,0,,,69,64
165022,note_off,,,,,0,0,1,,,0,,,65,64
165022,note_off,,,,,382,0,1,,,0,,,60,64
165060,note_off,,,,,180,0,2,,,0,,,53,64
165120,note_on,,,,,0,0,1,,,0,,,65,64
165120,note_on,,,,,0,0,1,,,0,,,61,64
165120,note_on,,,,,98,0,1,,,0,,,70,64
165120,control_change,,,,,60,0,2,,,0,64,0,,
165310,note_off,,,,,0,0,1,,,0,,,70,64
165310,note_off,,,,,0,0,1,,,0,,,65,64
165310,note_off,,,,,190,0,1,,,0,,,61,64
165360,note_on,,,,,0,0,1,,,0,,,65,59
165360,note_on,,,,,50,0,1,,,0,,,72,59
165360,note_on,,,,,0,0,1,,,0,,,63,59
165550,note_off,,,,,0,0,1,,,0,,,65,64
165550,note_off,,,,,190,0,1,,,0,,,63,64
165550,note_off,,,,,0,0,1,,,0,,,72,64
165600,note_on,,,,,50,0,1,,,0,,,65,58
165600,note_on,,,,,0,0,1,,,0,,,61,58
165840,note_on,,,,,720,0,2,,,0,,,46,60
165982,note_off,,,,,382,0,1,,,0,,,61,64
165982,note_off,,,,,0,0,1,,,0,,,65,64
166020,note_off,,,,,180,0,2,,,0,,,46,64
166080,note_on,,,,,0,0,1,,,0,,,61,51
166080,note_on,,,,,98,0,1,,,0,,,65,51
166260,set_tempo,,,,,1380,1,0,372671,,,,,,
166320,note_on,,,,,0,0,2,,,0,,,49,73
166320,control_change,,,,,300,0,2,,,0,64,127,,
166320,set_tempo,,,,,60,1,0,263158,,,,,,
166462,note_off,,,,,0,0,1,,,0,,,65,64
166462,note_off,,,,,382,0,1,,,0,,,61,64
166500,note_off,,,,,180,0,2,,,0,,,49,64
166560,note_on,,,,,0,0,1,,,0,,,61,52
166560,note_on,,,,,0,0,1,,,0,,,60,52
166560,control_change,,,,,60,0,2,,,0,64,0,,
166560,note_on,,,,,98,0,1,,,0,,,65,52
166750,note_off,,,,,190,0,1,,,0,,,60,64
166750,note_off,,,,,0,0,1,,,0,,,61,64
166750,note_off,,,,,0,0,1,,,0,,,65,64
166800,note_on,,,,,50,0,1,,,0,,,65,58
166800,note_on,,,,,0,0,1,,,0,,,61,58
166800,note_on,,,,,0,0,1,,,0,,,58,58
166990,note_off,,,,,190,0,1,,,0,,,58,64
166990,note_off,,,,,0,0,1,,,0,,,61,64
166990,note_off,,,,,0,0,1,,,0,,,65,64
167040,note_on,,,,,50,0,1,,,0,,,61,66
167040,note_on,,,,,0,0,1,,,0,,,65,66
167040,note_on,,,,,0,0,1,,,0,,,56,66
167280,note_on,,,,,720,0,2,,,0,,,41,52
167422,note_off,,,,,0,0,1,,,0,,,61,64
167422,note_off,,,,,0,0,1,,,0,,,65,64
167422,note_off,,,,,382,0,1,,,0,,,56,64
167460,note_off,,,,,180,0,2,,,0,,,41,64
167520,note_on,,,,,98,0,1,,,0,,,65,52
167520,note_on,,,,,0,0,1,,,0,,,61,52
167520,note_on,,,,,0,0,1,,,0,,,56,52
167680,set_tempo,,,,,1360,1,0,264317,,,,,,
167760,note_on,,,,,0,0,2,,,0,,,29,121
167760,control_change,,,,,300,0,2,,,0,64,127,,
167902,note_off,,,,,382,0,1,,,0,,,56,64
167902,note_off,,,,,0,0,1,,,0,,,61,64
167902,note_off,,,,,0,0,1,,,0,,,65,64
167940,note_off,,,,,180,0,2,,,0,,,29,64
167960,set_tempo,,,,,280,1,0,265487,,,,,,
168000,note_on,,,,,98,0,1,,,0,,,63,55
168000,note_on,,,,,0,0,1,,,0,,,60,55
168000,note_on,,,,,0,0,1,,,0,,,54,55
168000,control_change,,,,,60,0,2,,,0,64,0,,
168000,note_on,,,,,0,0,1,,,0,,,57,55
168100,set_tempo,,,,,140,1,0,266667,,,,,,
168140,set_tempo,,,,,40,1,0,267857,,,,,,
168180,set_tempo,,,,,40,1,0,269058,,,,,,
168190,note_off,,,,,190,0,1,,,0,,,54,64
168190,note_off,,,,,0,0,1,,,0,,,57,64
168190,note_off,,,,,0,0,1,,,0,,,60,64
168190,note_off,,,,,0,0,1,,,0,,,63,64
168240,note_on,,,,,0,0,1,,,0,,,57,44
168240,note_on,,,,,50,0,1,,,0,,,63,44
168240,note_on,,,,,0,0,1,,,0,,,60,44
168240,note_on,,,,,0,0,1,,,0,,,54,44
168260,set_tempo,,,,,80,1,0,271493,,,,,,
168280,set_tempo,,,,,20,1,0,273973,,,,,,
168320,set_tempo,,,,,40,1,0,275229,,,,,,
168360,set_tempo,,,,,40,1,0,279070,,,,,,
168380,set_tempo,,,,,20,1,0,281690,,,,,,
168440,set_tempo,,,,,60,1,0,284360,,,,,,
168460,set_tempo,,,,,20,1,0,287081,,,,,,
168466,note_off,,,,,0,0,1,,,0,,,60,64
168466,note_off,,,,,0,0,1,,,0,,,57,64
168466,note_off,,,,,226,0,1,,,0,,,54,64
168466,note_off,,,,,0,0,1,,,0,,,63,64
168480,note_on,,,,,0,0,1,,,0,,,53,39
168480,note_on,,,,,0,0,1,,,0,,,58,39
168480,note_on,,,,,14,0,1,,,0,,,61,39
168500,set_tempo,,,,,40,1,0,297030,,,,,,
168520,set_tempo,,,,,20,1,0,298507,,,,,,
168660,set_tempo,,,,,140,1,0,300000,,,,,,
168720,set_tempo,,,,,60,1,0,304569,,,,,,
168720,note_on,,,,,720,0,2,,,0,,,34,52
168740,set_tempo,,,,,20,1,0,306122,,,,,,
168760,set_tempo,,,,,20,1,0,307692,,,,,,
168820,set_tempo,,,,,60,1,0,310881,,,,,,
168840,set_tempo,,,,,20,1,0,312500,,,,,,
168862,note_off,,,,,0,0,1,,,0,,,61,64
168862,note_off,,,,,0,0,1,,,0,,,58,64
168862,note_off,,,,,382,0,1,,,0,,,53,64
168880,set_tempo,,,,,40,1,0,315789,,,,,,
168900,set_tempo,,,,,20,1,0,317460,,,,,,
168900,note_off,,,,,180,0,2,,,0,,,34,64
168920,set_tempo,,,,,20,1,0,320856,,,,,,
168940,set_tempo,,,,,20,1,0,322581,,,,,,
168960,note_on,,,,,0,0,1,,,0,,,53,35
168960,note_on,,,,,98,0,1,,,0,,,61,35
168960,set_tempo,,,,,20,1,0,324324,,,,,,
168960,note_on,,,,,0,0,1,,,0,,,58,35
168980,set_tempo,,,,,20,1,0,329670,,,,,,
169060,set_tempo,,,,,80,1,0,346821,,,,,,
169080,set_tempo,,,,,20,1,0,350877,,,,,,
169100,set_tempo,,,,,20,1,0,352941,,,,,,
169120,set_tempo,,,,,20,1,0,355030,,,,,,
169140,set_tempo,,,,,20,1,0,363636,,,,,,
169160,set_tempo,,,,,20,1,0,365854,,,,,,
169200,control_change,,,,,300,0,2,,,0,64,127,,
169200,note_on,,,,,0,0,2,,,0,,,46,33
169200,set_tempo,,,,,40,1,0,368098,,,,,,
169220,set_tempo,,,,,20,1,0,389610,,,,,,
169240,set_tempo,,,,,20,1,0,512821,,,,,,
169380,note_off,,,,,180,0,2,,,0,,,46,64
169420,set_tempo,,,,,180,1,0,500000,,,,,,
169440,set_tempo,,,,,20,1,0,454545,,,,,,
169440,control_change,,,,,60,0,2,,,0,64,0,,
169440,note_off,,,,,0,0,1,,,0,,,61,64
169440,note_off,,,,,0,0,1,,,0,,,58,64
169440,note_off,,,,,480,0,1,,,0,,,53,64
169460,set_tempo,,,,,20,1,0,337079,,,,,,
169480,set_tempo,,,,,20,1,0,331492,,,,,,
169500,set_tempo,,,,,20,1,0,329670,,,,,,
169520,set_tempo,,,,,20,1,0,320856,,,,,,
169540,set_tempo,,,,,20,1,0,315789,,,,,,
169560,set_tempo,,,,,20,1,0,310881,,,,,,
169580,set_tempo,,,,,20,1,0,300000,,,,,,
169600,set_tempo,,,,,20,1,0,297030,,,,,,
169620,set_tempo,,,,,20,1,0,289855,,,,,,
169640,set_tempo,,,,,20,1,0,287081,,,,,,
169680,set_tempo,,,,,40,1,0,277778,,,,,,
169700,set_tempo,,,,,20,1,0,273973,,,,,,
169720,set_tempo,,,,,20,1,0,271493,,,,,,
169760,set_tempo,,,,,40,1,0,267857,,,,,,
169780,set_tempo,,,,,20,1,0,264317,,,,,,
169800,set_tempo,,,,,20,1,0,263158,,,,,,
169840,set_tempo,,,,,40,1,0,260870,,,,,,
169860,set_tempo,,,,,20,1,0,259740,,,,,,
169880,set_tempo,,,,,20,1,0,258621,,,,,,
169920,set_tempo,,,,,40,1,0,256410,,,,,,
169920,note_on,,,,,480,0,1,,,0,,,82,49
169920,marker,,,,,0,1,0,,,,,,,
169920,note_on,,,,,0,0,2,,,0,,,58,49
169920,note_on,,,,,480,0,2,,,0,,,62,49
169980,set_tempo,,,,,60,1,0,255319,,,,,,
170020,set_tempo,,,,,40,1,0,254237,,,,,,
170040,note_off,,,,,120,0,2,,,0,,,58,64
170040,note_off,,,,,0,0,2,,,0,,,62,64
170040,note_on,,,,,0,0,2,,,0,,,65,26
170080,set_tempo,,,,,60,1,0,252101,,,,,,
170140,set_tempo,,,,,60,1,0,251046,,,,,,
170160,note_off,,,,,120,0,2,,,0,,,65,64
170160,note_on,,,,,0,0,2,,,0,,,58,29
170160,note_off,,,,,240,0,1,,,0,,,82,64
170160,note_on,,,,,0,0,2,,,0,,,62,29
170160,note_on,,,,,0,0,1,,,0,,,81,40
170200,set_tempo,,,,,60,1,0,250000,,,,,,
170240,set_tempo,,,,,40,1,0,248963,,,,,,
170280,note_on,,,,,0,0,2,,,0,,,65,23
170280,note_off,,,,,0,0,2,,,0,,,62,64
170280,note_off,,,,,120,0,2,,,0,,,58,64
170280,note_off,,,,,120,0,1,,,0,,,81,64
170400,note_on,,,,,120,0,1,,,0,,,82,46
170400,note_on,,,,,0,0,2,,,0,,,58,35
170400,note_on,,,,,0,0,2,,,0,,,62,35
170400,note_off,,,,,120,0,2,,,0,,,65,64
170500,set_tempo,,,,,260,1,0,247934,,,,,,
170520,note_on,,,,,0,0,2,,,0,,,65,32
170520,note_off,,,,,0,0,2,,,0,,,62,64
170520,note_off,,,,,120,0,2,,,0,,,58,64
170520,note_off,,,,,120,0,1,,,0,,,82,64
170640,note_on,,,,,0,0,2,,,0,,,58,44
170640,note_on,,,,,0,0,2,,,0,,,63,44
170640,note_off,,,,,120,0,2,,,0,,,65,64
170640,note_on,,,,,0,0,1,,,0,,,79,51
170640,control_change,,,,,120,0,1,,,0,91,100,,
170760,note_on,,,,,0,0,2,,,0,,,67,25
170760,note_off,,,,,0,0,2,,,0,,,63,64
170760,note_off,,,,,120,0,2,,,0,,,58,64
170880,note_off,,,,,240,0,1,,,0,,,79,64
170880,note_on,,,,,0,0,2,,,0,,,58,29
170880,note_on,,,,,0,0,2,,,0,,,63,29
170880,note_off,,,,,120,0,2,,,0,,,67,64
170880,note_on,,,,,0,0,1,,,0,,,81,43
170988,note_off,,,,,108,0,1,,,0,,,81,64
171000,note_on,,,,,0,0,2,,,0,,,67,26
171000,note_off,,,,,0,0,2,,,0,,,63,64
171000,note_on,,,,,12,0,1,,,0,,,82,38
171000,note_off,,,,,120,0,2,,,0,,,58,64
171108,note_off,,,,,108,0,1,,,0,,,82,64
171120,note_on,,,,,0,0,2,,,0,,,63,38
171120,note_off,,,,,120,0,2,,,0,,,67,64
171120,note_on,,,,,0,0,2,,,0,,,58,38
171120,note_on,,,,,12,0,1,,,0,,,84,41
171228,note_off,,,,,108,0,1,,,0,,,84,64
171240,note_on,,,,,12,0,1,,,0,,,86,48
171240,note_on,,,,,0,0,2,,,0,,,67,36
171240,note_off,,,,,120,0,2,,,0,,,58,64
171240,note_off,,,,,0,0,2,,,0,,,63,64
171348,note_off,,,,,108,0,1,,,0,,,86,64
171360,note_on,,,,,0,0,2,,,0,,,58,53
171360,note_on,,,,,0,0,2,,,0,,,62,53
171360,note_off,,,,,120,0,2,,,0,,,67,64
171360,note_on,,,,,12,0,1,,,0,,,82,54
171480,note_off,,,,,120,0,2,,,0,,,58,64
171480,note_off,,,,,0,0,2,,,0,,,62,64
171480,note_on,,,,,0,0,2,,,0,,,65,29
171600,note_on,,,,,0,0,1,,,0,,,84,45
171600,note_off,,,,,120,0,2,,,0,,,65,64
171600,note_on,,,,,0,0,2,,,0,,,62,36
171600,note_on,,,,,0,0,2,,,0,,,58,36
171600,note_off,,,,,240,0,1,,,0,,,82,64
171708,note_off,,,,,108,0,1,,,0,,,84,64
171720,note_off,,,,,120,0,2,,,0,,,58,64
171720,note_on,,,,,12,0,1,,,0,,,82,38
171720,note_off,,,,,0,0,2,,,0,,,62,64
171720,note_on,,,,,0,0,2,,,0,,,65,34
171828,note_off,,,,,108,0,1,,,0,,,82,64
171840,note_on,,,,,12,0,1,,,0,,,81,44
171840,note_off,,,,,120,0,2,,,0,,,65,64
171840,note_on,,,,,0,0,2,,,0,,,62,47
171840,note_on,,,,,0,0,2,,,0,,,58,47
171948,note_off,,,,,108,0,1,,,0,,,81,64
171960,note_on,,,,,0,0,2,,,0,,,65,43
171960,note_on,,,,,12,0,1,,,0,,,79,50
171960,note_off,,,,,120,0,2,,,0,,,58,64
171960,note_off,,,,,0,0,2,,,0,,,62,64
172068,note_off,,,,,108,0,1,,,0,,,79,64
172080,note_on,,,,,12,0,1,,,0,,,77,57
172080,note_on,,,,,0,0,2,,,0,,,57,55
172080,note_on,,,,,0,0,2,,,0,,,63,55
172080,note_off,,,,,120,0,2,,,0,,,65,64
172200,note_off,,,,,120,0,1,,,0,,,77,64
172200,note_off,,,,,120,0,2,,,0,,,57,64
172200,note_off,,,,,0,0,2,,,0,,,63,64
172200,note_on,,,,,0,0,2,,,0,,,65,29
172320,note_off,,,,,120,0,2,,,0,,,65,64
172320,note_on,,,,,0,0,2,,,0,,,63,33
172320,note_on,,,,,0,0,2,,,0,,,57,33
172320,note_on,,,,,120,0,1,,,0,,,77,47
172440,note_off,,,,,120,0,2,,,0,,,57,64
172440,note_off,,,,,0,0,2,,,0,,,63,64
172440,note_off,,,,,120,0,1,,,0,,,77,64
172440,note_on,,,,,0,0,2,,,0,,,65,29
172560,note_on,,,,,0,0,2,,,0,,,63,42
172560,note_on,,,,,0,0,2,,,0,,,57,42
172560,note_off,,,,,120,0,2,,,0,,,65,64
172560,note_on,,,,,120,0,1,,,0,,,77,38
172680,note_off,,,,,120,0,1,,,0,,,77,64
172680,note_on,,,,,0,0,2,,,0,,,65,39
172680,note_off,,,,,0,0,2,,,0,,,63,64
172680,note_off,,,,,120,0,2,,,0,,,57,64
172800,note_on,,,,,120,0,1,,,0,,,78,59
172800,note_on,,,,,0,0,2,,,0,,,57,55
172800,note_on,,,,,0,0,2,,,0,,,63,55
172800,note_off,,,,,120,0,2,,,0,,,65,64
172920,note_on,,,,,0,0,2,,,0,,,66,43
172920,note_off,,,,,0,0,2,,,0,,,63,64
172920,note_off,,,,,120,0,2,,,0,,,57,64
172960,control_change,,,,,40,0,2,,,0,91,96,,
173040,note_off,,,,,240,0,1,,,0,,,78,64
173040,note_on,,,,,0,0,2,,,0,,,63,46
173040,note_on,,,,,0,0,2,,,0,,,57,46
173040,note_on,,,,,0,0,1,,,0,,,90,48
173040,note_off,,,,,80,0,2,,,0,,,66,64
173160,note_off,,,,,0,0,2,,,0,,,63,64
173160,note_on,,,,,0,0,2,,,0,,,66,32
173160,note_off,,,,,120,0,1,,,0,,,90,64
173160,note_off,,,,,120,0,2,,,0,,,57,64
173280,note_on,,,,,0,0,2,,,0,,,63,35
173280,note_on,,,,,0,0,2,,,0,,,57,35
173280,note_off,,,,,120,0,2,,,0,,,66,64
173280,note_on,,,,,120,0,1,,,0,,,90,59
173400,note_off,,,,,0,0,2,,,0,,,63,64
173400,note_off,,,,,120,0,1,,,0,,,90,64
173400,note_off,,,,,120,0,2,,,0,,,57,64
173400,note_on,,,,,0,0,2,,,0,,,66,25
173520,note_on,,,,,0,0,2,,,0,,,58,63
173520,note_on,,,,,120,0,1,,,0,,,91,68
173520,note_on,,,,,0,0,2,,,0,,,63,63
173520,note_off,,,,,120,0,2,,,0,,,66,64
173640,note_on,,,,,0,0,2,,,0,,,67,51
173640,note_off,,,,,120,0,2,,,0,,,58,64
173640,note_off,,,,,0,0,2,,,0,,,63,64
173760,note_off,,,,,240,0,1,,,0,,,91,64
173760,note_on,,,,,0,0,2,,,0,,,63,52
173760,note_on,,,,,0,0,1,,,0,,,79,58
173760,note_off,,,,,120,0,2,,,0,,,67,64
173760,note_on,,,,,0,0,2,,,0,,,58,52
173880,note_off,,,,,120,0,2,,,0,,,63,64
173880,note_off,,,,,0,0,2,,,0,,,58,64
173880,note_on,,,,,0,0,2,,,0,,,67,40
173880,note_off,,,,,120,0,1,,,0,,,79,64
174000,note_on,,,,,0,0,2,,,0,,,63,42
174000,note_on,,,,,0,0,2,,,0,,,58,42
174000,note_off,,,,,120,0,2,,,0,,,67,64
174000,note_on,,,,,120,0,1,,,0,,,79,51
174120,note_on,,,,,0,0,2,,,0,,,67,28
174120,note_off,,,,,0,0,2,,,0,,,58,64
174120,note_off,,,,,120,0,2,,,0,,,63,64
174120,note_off,,,,,120,0,1,,,0,,,79,64
174240,note_off,,,,,120,0,2,,,0,,,67,64
174240,note_on,,,,,0,0,2,,,0,,,60,53
174240,note_on,,,,,0,0,2,,,0,,,63,53
174240,note_on,,,,,120,0,1,,,0,,,81,58
174360,note_off,,,,,120,0,2,,,0,,,60,64
174360,note_off,,,,,0,0,2,,,0,,,63,64
174360,note_on,,,,,0,0,2,,,0,,,65,22
174360,note_off,,,,,120,0,1,,,0,,,81,64
174450,note_on,,,,,90,0,1,,,0,,,94,57
174480,note_off,,,,,30,0,1,,,0,,,94,64
174480,note_on,,,,,0,0,1,,,0,,,93,58
174480,note_on,,,,,0,0,2,,,0,,,60,34
174480,note_on,,,,,0,0,2,,,0,,,63,34
174480,note_off,,,,,120,0,2,,,0,,,65,64
174600,note_on,,,,,0,0,2,,,0,,,65,33
174600,note_off,,,,,120,0,1,,,0,,,93,64
174600,note_off,,,,,120,0,2,,,0,,,60,64
174600,note_on,,,,,0,0,1,,,0,,,91,60
174600,note_off,,,,,0,0,2,,,0,,,63,64
174720,note_on,,,,,0,0,2,,,0,,,63,45
174720,note_on,,,,,0,0,2,,,0,,,60,45
174720,note_on,,,,,0,0,1,,,0,,,93,62
174720,note_off,,,,,120,0,1,,,0,,,91,64
174720,note_off,,,,,120,0,2,,,0,,,65,64
174840,note_off,,,,,0,0,2,,,0,,,63,64
174840,note_on,,,,,0,0,2,,,0,,,65,43
174840,note_off,,,,,120,0,2,,,0,,,60,64
174960,note_on,,,,,0,0,2,,,0,,,62,54
174960,note_off,,,,,240,0,1,,,0,,,93,64
174960,note_on,,,,,0,0,1,,,0,,,94,66
174960,note_on,,,,,0,0,2,,,0,,,58,54
174960,note_off,,,,,120,0,2,,,0,,,65,64
175080,note_off,,,,,120,0,1,,,0,,,94,64
175080,note_off,,,,,120,0,2,,,0,,,62,64
175080,note_off,,,,,0,0,2,,,0,,,58,64
175080,note_on,,,,,0,0,2,,,0,,,65,40
175170,note_on,,,,,90,0,1,,,0,,,84,56
175200,note_on,,,,,0,0,1,,,0,,,82,55
175200,note_off,,,,,30,0,1,,,0,,,84,64
175200,note_off,,,,,120,0,2,,,0,,,65,64
175200,note_on,,,,,0,0,2,,,0,,,62,44
175200,note_on,,,,,0,0,2,,,0,,,58,44
175320,note_on,,,,,0,0,1,,,0,,,81,47
175320,note_off,,,,,120,0,1,,,0,,,82,64
175320,note_off,,,,,120,0,2,,,0,,,58,64
175320,note_off,,,,,0,0,2,,,0,,,62,64
175320,note_on,,,,,0,0,2,,,0,,,65,26
175440,note_on,,,,,0,0,1,,,0,,,82,37
175440,note_on,,,,,0,0,2,,,0,,,62,28
175440,note_off,,,,,120,0,2,,,0,,,65,64
175440,note_on,,,,,0,0,2,,,0,,,58,28
175440,note_off,,,,,120,0,1,,,0,,,81,64
175560,note_off,,,,,0,0,2,,,0,,,62,64
175560,note_on,,,,,0,0,2,,,0,,,65,15
175560,note_off,,,,,120,0,2,,,0,,,58,64
175680,note_on,,,,,0,0,1,,,0,,,74,49
175680,note_off,,,,,240,0,1,,,0,,,82,64
175680,note_on,,,,,0,0,2,,,0,,,58,49
175680,note_off,,,,,120,0,2,,,0,,,65,64
175680,note_on,,,,,0,0,1,,,0,,,70,49
175800,note_off,,,,,120,0,1,,,0,,,70,64
175800,note_off,,,,,0,0,1,,,0,,,74,64
175800,note_on,,,,,0,0,1,,,0,,,77,26
175920,note_off,,,,,240,0,2,,,0,,,58,64
175920,note_off,,,,,120,0,1,,,0,,,77,64
175920,note_on,,,,,0,0,1,,,0,,,74,29
175920,note_on,,,,,0,0,1,,,0,,,70,29
175920,note_on,,,,,0,0,2,,,0,,,57,40
176040,note_off,,,,,120,0,1,,,0,,,70,64
176040,note_off,,,,,120,0,2,,,0,,,57,64
176040,note_off,,,,,0,0,1,,,0,,,74,64
176040,note_on,,,,,0,0,1,,,0,,,77,23
176160,note_on,,,,,0,0,1,,,0,,,74,35
176160,note_on,,,,,120,0,2,,,0,,,58,48
176160,note_on,,,,,0,0,1,,,0,,,70,35
176160,note_off,,,,,120,0,1,,,0,,,77,64
176280,note_off,,,,,120,0,1,,,0,,,70,64
176280,note_off,,,,,0,0,1,,,0,,,74,64
176280,note_on,,,,,0,0,1,,,0,,,77,32
176280,note_off,,,,,120,0,2,,,0,,,58,64
176400,note_off,,,,,120,0,1,,,0,,,77,64
176400,note_on,,,,,0,0,1,,,0,,,74,44
176400,note_on,,,,,0,0,2,,,0,,,55,54
176400,control_change,,,,,120,0,2,,,0,91,100,,
176400,note_on,,,,,0,0,1,,,0,,,70,44
176520,note_off,,,,,120,0,1,,,0,,,70,64
176520,note_off,,,,,0,0,1,,,0,,,74,64
176520,note_on,,,,,0,0,1,,,0,,,79,25
176640,note_off,,,,,240,0,2,,,0,,,55,64
176640,note_on,,,,,0,0,2,,,0,,,57,46
176640,note_on,,,,,0,0,1,,,0,,,74,29
176640,note_on,,,,,0,0,1,,,0,,,70,29
176640,note_off,,,,,120,0,1,,,0,,,79,64
176748,note_off,,,,,108,0,2,,,0,,,57,64
176760,note_off,,,,,0,0,1,,,0,,,74,64
176760,note_off,,,,,120,0,1,,,0,,,70,64
176760,note_on,,,,,0,0,1,,,0,,,79,26
176760,note_on,,,,,12,0,2,,,0,,,58,44
176868,note_off,,,,,108,0,2,,,0,,,58,64
176880,note_on,,,,,12,0,2,,,0,,,60,48
176880,note_on,,,,,0,0,1,,,0,,,70,38
176880,note_off,,,,,120,0,1,,,0,,,79,64
176880,note_on,,,,,0,0,1,,,0,,,74,38
176988,note_off,,,,,108,0,2,,,0,,,60,64
177000,note_off,,,,,0,0,1,,,0,,,74,64
177000,note_off,,,,,120,0,1,,,0,,,70,64
177000,note_on,,,,,12,0,2,,,0,,,62,51
177000,note_on,,,,,0,0,1,,,0,,,79,36
177108,note_off,,,,,108,0,2,,,0,,,62,64
177120,note_on,,,,,12,0,2,,,0,,,58,52
177120,note_on,,,,,0,0,1,,,0,,,70,53
177120,note_on,,,,,0,0,1,,,0,,,74,53
177120,note_off,,,,,120,0,1,,,0,,,79,64
177240,note_off,,,,,120,0,1,,,0,,,70,64
177240,note_on,,,,,0,0,1,,,0,,,77,29
177240,note_off,,,,,0,0,1,,,0,,,74,64
177360,note_on,,,,,0,0,1,,,0,,,70,36
177360,note_on,,,,,0,0,2,,,0,,,60,45
177360,note_off,,,,,120,0,1,,,0,,,77,64
177360,note_off,,,,,240,0,2,,,0,,,58,64
177360,note_on,,,,,0,0,1,,,0,,,74,36
177468,note_off,,,,,108,0,2,,,0,,,60,64
177480,note_on,,,,,12,0,2,,,0,,,58,40
177480,note_off,,,,,120,0,1,,,0,,,70,64
177480,note_off,,,,,0,0,1,,,0,,,74,64
177480,note_on,,,,,0,0,1,,,0,,,77,34
177588,note_off,,,,,108,0,2,,,0,,,58,64
177600,note_on,,,,,12,0,2,,,0,,,57,45
177600,note_on,,,,,0,0,1,,,0,,,70,47
177600,note_on,,,,,0,0,1,,,0,,,74,47
177600,note_off,,,,,120,0,1,,,0,,,77,64
177708,note_off,,,,,108,0,2,,,0,,,57,64
177720,note_on,,,,,12,0,2,,,0,,,55,52
177720,note_off,,,,,120,0,1,,,0,,,70,64
177720,note_on,,,,,0,0,1,,,0,,,77,43
177720,note_off,,,,,0,0,1,,,0,,,74,64
177828,note_off,,,,,108,0,2,,,0,,,55,64
177840,note_on,,,,,12,0,2,,,0,,,53,57
177840,note_on,,,,,0,0,1,,,0,,,75,55
177840,note_off,,,,,120,0,1,,,0,,,77,64
177840,note_on,,,,,0,0,1,,,0,,,69,55
177960,note_off,,,,,120,0,2,,,0,,,53,64
177960,note_on,,,,,0,0,1,,,0,,,77,29
177960,note_off,,,,,120,0,1,,,0,,,69,64
177960,note_off,,,,,0,0,1,,,0,,,75,64
178080,note_on,,,,,120,0,2,,,0,,,53,51
178080,note_off,,,,,120,0,1,,,0,,,77,64
178080,note_on,,,,,0,0,1,,,0,,,75,33
178080,note_on,,,,,0,0,1,,,0,,,69,33
178200,note_off,,,,,120,0,2,,,0,,,53,64
178200,note_off,,,,,120,0,1,,,0,,,69,64
178200,note_off,,,,,0,0,1,,,0,,,75,64
178200,note_on,,,,,0,0,1,,,0,,,77,29
178320,note_on,,,,,120,0,2,,,0,,,53,41
178320,note_on,,,,,0,0,1,,,0,,,69,42
178320,note_off,,,,,120,0,1,,,0,,,77,64
178320,note_on,,,,,0,0,1,,,0,,,75,42
178440,note_off,,,,,0,0,1,,,0,,,75,64
178440,note_on,,,,,0,0,1,,,0,,,77,39
178440,note_off,,,,,120,0,2,,,0,,,53,64
178440,note_off,,,,,120,0,1,,,0,,,69,64
178560,note_on,,,,,0,0,1,,,0,,,69,55
178560,note_on,,,,,0,0,1,,,0,,,75,55
178560,note_off,,,,,120,0,1,,,0,,,77,64
178560,note_on,,,,,120,0,2,,,0,,,54,59
178680,note_off,,,,,120,0,1,,,0,,,69,64
178680,note_on,,,,,0,0,1,,,0,,,81,43
178680,note_off,,,,,0,0,1,,,0,,,75,64
178720,control_change,,,,,40,0,1,,,0,91,96,,
178800,note_on,,,,,0,0,1,,,0,,,69,46
178800,note_on,,,,,0,0,1,,,0,,,75,46
178800,note_off,,,,,80,0,1,,,0,,,81,64
178800,note_on,,,,,0,0,2,,,0,,,66,47
178800,note_off,,,,,240,0,2,,,0,,,54,64
178920,note_off,,,,,120,0,1,,,0,,,69,64
178920,note_on,,,,,0,0,1,,,0,,,81,32
178920,note_off,,,,,120,0,2,,,0,,,66,64
178920,note_off,,,,,0,0,1,,,0,,,75,64
179040,note_off,,,,,120,0,1,,,0,,,81,64
179040,note_on,,,,,0,0,1,,,0,,,75,35
179040,note_on,,,,,0,0,1,,,0,,,69,35
179040,note_on,,,,,120,0,2,,,0,,,66,61
179160,note_on,,,,,0,0,1,,,0,,,81,25
179160,note_off,,,,,0,0,1,,,0,,,75,64
179160,note_off,,,,,120,0,1,,,0,,,69,64
179160,note_off,,,,,120,0,2,,,0,,,66,64
179280,note_on,,,,,120,0,2,,,0,,,67,66
179280,note_off,,,,,120,0,1,,,0,,,81,64
179280,note_on,,,,,0,0,1,,,0,,,75,63
179280,note_on,,,,,0,0,1,,,0,,,70,63
179400,note_off,,,,,120,0,1,,,0,,,70,64
179400,note_off,,,,,0,0,1,,,0,,,75,64
179400,note_on,,,,,0,0,1,,,0,,,82,51
179520,note_on,,,,,0,0,2,,,0,,,55,58
179520,note_off,,,,,240,0,2,,,0,,,67,64
179520,note_off,,,,,120,0,1,,,0,,,82,64
179520,note_on,,,,,0,0,1,,,0,,,75,52
179520,note_on,,,,,0,0,1,,,0,,,70,52
179640,note_on,,,,,0,0,1,,,0,,,81,40
179640,note_off,,,,,120,0,1,,,0,,,70,64
179640,note_off,,,,,0,0,1,,,0,,,75,64
179640,note_off,,,,,120,0,2,,,0,,,55,64
179760,note_on,,,,,120,0,2,,,0,,,55,49
179760,note_off,,,,,120,0,1,,,0,,,81,64
179760,note_on,,,,,0,0,1,,,0,,,75,42
179760,note_on,,,,,0,0,1,,,0,,,70,42
179880,note_off,,,,,120,0,2,,,0,,,55,64
179880,note_off,,,,,120,0,1,,,0,,,70,64
179880,note_off,,,,,0,0,1,,,0,,,75,64
179880,note_on,,,,,0,0,1,,,0,,,79,28
180000,note_on,,,,,0,0,1,,,0,,,68,53
180000,note_on,,,,,120,0,2,,,0,,,58,58
180000,note_on,,,,,0,0,1,,,0,,,74,53
180000,note_off,,,,,120,0,1,,,0,,,79,64
180060,set_tempo,,,,,9560,1,0,246914,,,,,,
180120,note_off,,,,,120,0,1,,,0,,,68,64
180120,note_off,,,,,0,0,1,,,0,,,74,64
180120,note_on,,,,,0,0,1,,,0,,,77,22
180120,note_off,,,,,120,0,2,,,0,,,58,64
180210,note_on,,,,,90,0,2,,,0,,,48,57
180240,note_off,,,,,30,0,2,,,0,,,48,64
180240,set_tempo,,,,,180,1,0,247934,,,,,,
180240,note_on,,,,,0,0,1,,,0,,,68,34
180240,note_off,,,,,120,0,1,,,0,,,77,64
180240,note_on,,,,,0,0,1,,,0,,,74,34
180240,note_on,,,,,0,0,2,,,0,,,46,57
180360,note_off,,,,,0,0,1,,,0,,,74,64
180360,set_tempo,,,,,120,1,0,250000,,,,,,
180360,note_off,,,,,120,0,2,,,0,,,46,64
180360,note_on,,,,,0,0,2,,,0,,,45,61
180360,note_off,,,,,120,0,1,,,0,,,68,64
180360,note_on,,,,,0,0,1,,,0,,,77,33
180480,note_off,,,,,120,0,2,,,0,,,45,64
180480,note_on,,,,,0,0,1,,,0,,,68,45
180480,note_on,,,,,0,0,1,,,0,,,74,45
180480,note_off,,,,,120,0,1,,,0,,,77,64
180480,note_on,,,,,0,0,2,,,0,,,46,63
180480,set_tempo,,,,,120,1,0,251046,,,,,,
180500,set_tempo,,,,,20,1,0,252101,,,,,,
180600,note_off,,,,,120,0,1,,,0,,,68,64
180600,note_off,,,,,0,0,1,,,0,,,74,64
180600,note_on,,,,,0,0,1,,,0,,,77,43
180680,set_tempo,,,,,180,1,0,255319,,,,,,
180720,note_off,,,,,240,0,2,,,0,,,46,64
180720,note_off,,,,,120,0,1,,,0,,,77,64
180720,note_on,,,,,0,0,1,,,0,,,67,54
180720,note_on,,,,,0,0,2,,,0,,,51,67
180720,note_on,,,,,0,0,1,,,0,,,75,54
180840,note_off,,,,,120,0,2,,,0,,,51,64
180840,note_off,,,,,120,0,1,,,0,,,67,64
180840,note_on,,,,,0,0,1,,,0,,,79,40
180840,note_off,,,,,0,0,1,,,0,,,75,64
180930,note_on,,,,,90,0,2,,,0,,,41,56
180960,note_on,,,,,0,0,1,,,0,,,67,36
180960,note_off,,,,,120,0,1,,,0,,,79,64
180960,note_on,,,,,0,0,2,,,0,,,39,55
180960,note_off,,,,,30,0,2,,,0,,,41,64
180960,note_on,,,,,0,0,1,,,0,,,75,36
181040,set_tempo,,,,,360,1,0,259740,,,,,,
181080,note_off,,,,,120,0,1,,,0,,,67,64
181080,note_off,,,,,0,0,1,,,0,,,75,64
181080,note_on,,,,,0,0,1,,,0,,,79,31
181080,note_off,,,,,120,0,2,,,0,,,39,64
181080,note_on,,,,,0,0,2,,,0,,,38,47
181100,set_tempo,,,,,60,1,0,263158,,,,,,
181140,set_tempo,,,,,40,1,0,264317,,,,,,
181160,set_tempo,,,,,20,1,0,266667,,,,,,
181200,set_tempo,,,,,40,1,0,267857,,,,,,
181200,note_on,,,,,0,0,1,,,0,,,75,25
181200,note_off,,,,,120,0,1,,,0,,,79,64
181200,note_off,,,,,120,0,2,,,0,,,38,64
181200,note_on,,,,,0,0,2,,,0,,,39,37
181200,note_on,,,,,0,0,1,,,0,,,67,25
181220,set_tempo,,,,,20,1,0,271493,,,,,,
181260,set_tempo,,,,,40,1,0,272727,,,,,,
181300,set_tempo,,,,,40,1,0,275229,,,,,,
181320,note_off,,,,,0,0,1,,,0,,,75,64
181320,note_off,,,,,120,0,1,,,0,,,67,64
181320,set_tempo,,,,,20,1,0,279070,,,,,,
181360,set_tempo,,,,,40,1,0,292683,,,,,,
181380,set_tempo,,,,,20,1,0,297030,,,,,,
181400,set_tempo,,,,,20,1,0,303030,,,,,,
181420,set_tempo,,,,,20,1,0,304569,,,,,,
181440,set_tempo,,,,,20,1,0,281690,,,,,,
181440,note_on,,,,,120,0,1,,,0,,,82,38
181440,note_on,,,,,0,0,2,,,0,,,63,36
181440,note_on,,,,,0,0,2,,,0,,,67,36
181440,note_off,,,,,240,0,2,,,0,,,39,64
181460,set_tempo,,,,,20,1,0,279070,,,,,,
181480,set_tempo,,,,,20,1,0,266667,,,,,,
181520,set_tempo,,,,,40,1,0,265487,,,,,,
181540,set_tempo,,,,,20,1,0,263158,,,,,,
181560,note_off,,,,,120,0,1,,,0,,,82,64
181560,set_tempo,,,,,20,1,0,260870,,,,,,
181560,note_off,,,,,120,0,2,,,0,,,63,64
181560,note_on,,,,,0,0,2,,,0,,,70,24
181560,note_off,,,,,0,0,2,,,0,,,67,64
181620,set_tempo,,,,,60,1,0,257511,,,,,,
181650,note_on,,,,,90,0,1,,,0,,,80,28
181660,set_tempo,,,,,40,1,0,256410,,,,,,
181680,note_on,,,,,0,0,1,,,0,,,79,29
181680,note_off,,,,,30,0,1,,,0,,,80,64
181680,note_off,,,,,120,0,2,,,0,,,70,64
181680,note_on,,,,,0,0,2,,,0,,,63,30
181680,note_on,,,,,0,0,2,,,0,,,67,30
181700,set_tempo,,,,,40,1,0,254237,,,,,,
181760,set_tempo,,,,,60,1,0,252101,,,,,,
181780,set_tempo,,,,,20,1,0,251046,,,,,,
181800,note_on,,,,,0,0,1,,,0,,,77,34
181800,note_off,,,,,120,0,1,,,0,,,79,64
181800,note_on,,,,,0,0,2,,,0,,,70,24
181800,note_off,,,,,0,0,2,,,0,,,63,64
181800,set_tempo,,,,,20,1,0,250000,,,,,,
181800,note_off,,,,,120,0,2,,,0,,,67,64
181840,set_tempo,,,,,40,1,0,248963,,,,,,
181860,set_tempo,,,,,20,1,0,247934,,,,,,
181920,note_on,,,,,0,0,2,,,0,,,63,31
181920,note_on,,,,,0,0,2,,,0,,,67,31
181920,set_tempo,,,,,60,1,0,246914,,,,,,
181920,note_on,,,,,0,0,1,,,0,,,79,38
181920,note_off,,,,,120,0,1,,,0,,,77,64
181920,note_off,,,,,120,0,2,,,0,,,70,64
181960,set_tempo,,,,,40,1,0,245902,,,,,,
182040,note_on,,,,,0,0,2,,,0,,,70,25
182040,note_off,,,,,0,0,2,,,0,,,67,64
182040,note_off,,,,,120,0,2,,,0,,,63,64
182100,set_tempo,,,,,140,1,0,243902,,,,,,
182160,note_on,,,,,0,0,2,,,0,,,62,35
182160,note_on,,,,,0,0,1,,,0,,,82,47
182160,note_off,,,,,120,0,2,,,0,,,70,64
182160,note_off,,,,,240,0,1,,,0,,,79,64
182160,note_on,,,,,0,0,2,,,0,,,65,35
182220,set_tempo,,,,,120,1,0,242915,,,,,,
182260,set_tempo,,,,,40,1,0,241935,,,,,,
182280,note_off,,,,,120,0,1,,,0,,,82,64
182280,note_on,,,,,0,0,2,,,0,,,70,26
182280,note_off,,,,,0,0,2,,,0,,,65,64
182280,note_off,,,,,120,0,2,,,0,,,62,64
182370,note_on,,,,,90,0,1,,,0,,,79,36
182400,note_on,,,,,0,0,1,,,0,,,77,38
182400,note_on,,,,,0,0,2,,,0,,,62,36
182400,note_on,,,,,0,0,2,,,0,,,65,36
182400,note_off,,,,,120,0,2,,,0,,,70,64
182400,note_off,,,,,30,0,1,,,0,,,79,64
182520,note_off,,,,,120,0,1,,,0,,,77,64
182520,note_on,,,,,0,0,1,,,0,,,76,43
182520,note_off,,,,,120,0,2,,,0,,,62,64
182520,note_on,,,,,0,0,2,,,0,,,70,25
182520,note_off,,,,,0,0,2,,,0,,,65,64
182640,note_on,,,,,0,0,2,,,0,,,61,36
182640,note_on,,,,,0,0,2,,,0,,,65,36
182640,note_off,,,,,120,0,2,,,0,,,70,64
182640,note_off,,,,,120,0,1,,,0,,,76,64
182640,note_on,,,,,0,0,1,,,0,,,77,48
182760,note_on,,,,,0,0,2,,,0,,,70,26
182760,note_off,,,,,120,0,2,,,0,,,61,64
182760,note_off,,,,,0,0,2,,,0,,,65,64
182880,note_on,,,,,0,0,2,,,0,,,65,36
182880,note_off,,,,,120,0,2,,,0,,,70,64
182880,note_on,,,,,0,0,1,,,0,,,84,58
182880,note_on,,,,,0,0,2,,,0,,,60,36
182880,note_off,,,,,240,0,1,,,0,,,77,64
183000,note_on,,,,,0,0,2,,,0,,,68,29
183000,note_off,,,,,0,0,2,,,0,,,65,64
183000,note_off,,,,,120,0,2,,,0,,,60,64
183120,note_on,,,,,0,0,1,,,0,,,82,54
183120,note_on,,,,,0,0,2,,,0,,,60,35
183120,note_on,,,,,0,0,2,,,0,,,65,35
183120,note_off,,,,,120,0,2,,,0,,,68,64
183120,note_off,,,,,240,0,1,,,0,,,84,64
183160,set_tempo,,,,,900,1,0,242915,,,,,,
183180,set_tempo,,,,,20,1,0,243902,,,,,,
183240,note_on,,,,,0,0,2,,,0,,,68,27
183240,note_off,,,,,0,0,2,,,0,,,65,64
183240,set_tempo,,,,,60,1,0,246914,,,,,,
183240,note_off,,,,,120,0,1,,,0,,,82,64
183240,note_on,,,,,0,0,1,,,0,,,80,48
183240,note_off,,,,,120,0,2,,,0,,,60,64
183260,set_tempo,,,,,20,1,0,247934,,,,,,
183320,set_tempo,,,,,60,1,0,248963,,,,,,
183340,set_tempo,,,,,20,1,0,250000,,,,,,
183360,note_off,,,,,120,0,2,,,0,,,68,64
183360,note_on,,,,,0,0,2,,,0,,,65,38
183360,note_on,,,,,0,0,2,,,0,,,60,38
183360,note_on,,,,,0,0,1,,,0,,,79,55
183360,note_off,,,,,120,0,1,,,0,,,80,64
183420,set_tempo,,,,,80,1,0,251046,,,,,,
183480,note_off,,,,,0,0,2,,,0,,,65,64
183480,note_off,,,,,120,0,2,,,0,,,60,64
183480,note_on,,,,,0,0,2,,,0,,,68,34
183480,note_on,,,,,0,0,1,,,0,,,77,66
183480,note_off,,,,,120,0,1,,,0,,,79,64
183500,set_tempo,,,,,80,1,0,254237,,,,,,
183600,note_off,,,,,120,0,2,,,0,,,68,64
183600,note_on,,,,,0,0,2,,,0,,,65,43
183600,note_on,,,,,0,0,1,,,0,,,84,74
183600,note_off,,,,,120,0,1,,,0,,,77,64
183600,note_on,,,,,0,0,2,,,0,,,60,43
183720,note_on,,,,,0,0,2,,,0,,,67,32
183720,note_off,,,,,0,0,2,,,0,,,65,64
183720,note_off,,,,,120,0,2,,,0,,,60,64
183840,note_off,,,,,240,0,1,,,0,,,84,64
183840,note_on,,,,,0,0,1,,,0,,,72,58
183840,note_on,,,,,0,0,2,,,0,,,60,39
183840,note_on,,,,,0,0,2,,,0,,,64,39
183840,note_off,,,,,120,0,2,,,0,,,67,64
183860,set_tempo,,,,,360,1,0,255319,,,,,,
183920,set_tempo,,,,,60,1,0,256410,,,,,,
183960,note_off,,,,,120,0,2,,,0,,,60,64
183960,note_off,,,,,0,0,2,,,0,,,64,64
183960,note_on,,,,,0,0,2,,,0,,,67,33
183980,set_tempo,,,,,60,1,0,257511,,,,,,
184000,set_tempo,,,,,20,1,0,258621,,,,,,
184020,note_off,,,,,180,0,1,,,0,,,72,64
184080,note_on,,,,,60,0,1,,,0,,,72,41
184080,set_tempo,,,,,80,1,0,259740,,,,,,
184080,note_off,,,,,120,0,2,,,0,,,67,64
184080,note_on,,,,,0,0,2,,,0,,,60,33
184080,note_on,,,,,0,0,2,,,0,,,64,33
184100,set_tempo,,,,,20,1,0,260870,,,,,,
184200,note_on,,,,,0,0,2,,,0,,,67,38
184200,note_off,,,,,0,0,2,,,0,,,60,64
184200,note_off,,,,,120,0,2,,,0,,,64,64
184200,note_off,,,,,120,0,1,,,0,,,72,64
184320,note_off,,,,,120,0,2,,,0,,,67,64
184320,note_on,,,,,0,0,2,,,0,,,56,51
184320,note_on,,,,,0,0,2,,,0,,,60,51
184320,note_on,,,,,0,0,1,,,0,,,68,35
184320,note_on,,,,,120,0,1,,,0,,,72,35
184440,note_on,,,,,0,0,1,,,0,,,75,22
184440,note_off,,,,,0,0,1,,,0,,,72,64
184440,note_off,,,,,120,0,1,,,0,,,68,64
184520,set_tempo,,,,,420,1,0,259740,,,,,,
184560,set_tempo,,,,,40,1,0,258621,,,,,,
184560,note_on,,,,,0,0,2,,,0,,,61,41
184560,note_off,,,,,240,0,2,,,0,,,60,64
184560,note_on,,,,,0,0,1,,,0,,,72,32
184560,note_on,,,,,0,0,1,,,0,,,68,32
184560,note_off,,,,,120,0,1,,,0,,,75,64
184620,set_tempo,,,,,60,1,0,257511,,,,,,
184640,set_tempo,,,,,20,1,0,256410,,,,,,
184680,set_tempo,,,,,40,1,0,255319,,,,,,
184680,note_off,,,,,120,0,1,,,0,,,68,64
184680,note_off,,,,,0,0,1,,,0,,,72,64
184680,note_on,,,,,0,0,1,,,0,,,75,22
184720,set_tempo,,,,,40,1,0,254237,,,,,,
184800,note_on,,,,,0,0,1,,,0,,,72,29
184800,note_on,,,,,0,0,1,,,0,,,68,29
184800,note_off,,,,,240,0,2,,,0,,,61,64
184800,note_on,,,,,0,0,2,,,0,,,60,49
184800,note_off,,,,,120,0,1,,,0,,,75,64
184800,set_tempo,,,,,80,1,0,252101,,,,,,
184820,set_tempo,,,,,20,1,0,251046,,,,,,
184900,set_tempo,,,,,80,1,0,250000,,,,,,
184920,note_on,,,,,0,0,1,,,0,,,75,23
184920,note_off,,,,,120,0,1,,,0,,,68,64
184920,note_off,,,,,0,0,1,,,0,,,72,64
185000,set_tempo,,,,,100,1,0,248963,,,,,,
185040,note_on,,,,,0,0,1,,,0,,,68,34
185040,note_on,,,,,0,0,1,,,0,,,77,34
185040,note_off,,,,,120,0,1,,,0,,,75,64
185040,note_off,,,,,240,0,2,,,0,,,60,64
185040,note_off,,,,,0,0,2,,,0,,,56,64
185040,note_on,,,,,0,0,2,,,0,,,49,55
185040,note_on,,,,,0,0,2,,,0,,,58,55
185160,note_off,,,,,0,0,1,,,0,,,77,64
185160,note_off,,,,,120,0,1,,,0,,,68,64
185160,note_on,,,,,0,0,1,,,0,,,80,27
185280,note_off,,,,,120,0,1,,,0,,,80,64
185280,note_on,,,,,0,0,2,,,0,,,53,47
185280,note_on,,,,,0,0,1,,,0,,,68,37
185280,note_on,,,,,0,0,1,,,0,,,77,37
185280,note_off,,,,,240,0,2,,,0,,,58,64
185320,set_tempo,,,,,320,1,0,245902,,,,,,
185360,set_tempo,,,,,40,1,0,243902,,,,,,
185400,note_on,,,,,0,0,1,,,0,,,80,31
185400,note_off,,,,,0,0,1,,,0,,,77,64
185400,note_off,,,,,120,0,1,,,0,,,68,64
185420,set_tempo,,,,,60,1,0,242915,,,,,,
185500,set_tempo,,,,,80,1,0,241935,,,,,,
185520,note_off,,,,,240,0,2,,,0,,,53,64
185520,note_off,,,,,120,0,1,,,0,,,80,64
185520,note_on,,,,,0,0,2,,,0,,,55,54
185520,note_on,,,,,0,0,1,,,0,,,77,42
185520,note_on,,,,,0,0,1,,,0,,,68,42
185640,note_off,,,,,120,0,1,,,0,,,68,64
185640,note_on,,,,,0,0,1,,,0,,,80,40
185640,note_off,,,,,0,0,1,,,0,,,77,64
185700,note_on,,,,,0,0,2,,,0,,,58,60
185700,note_off,,,,,180,0,2,,,0,,,55,64
185730,note_off,,,,,30,0,2,,,0,,,58,64
185740,set_tempo,,,,,240,1,0,454545,,,,,,
185760,note_on,,,,,0,0,1,,,0,,,72,50
185760,note_on,,,,,0,0,1,,,0,,,68,50
185760,note_off,,,,,30,0,2,,,0,,,49,64
185760,note_on,,,,,0,0,2,,,0,,,51,59
185760,note_on,,,,,0,0,2,,,0,,,56,59
185760,note_off,,,,,120,0,1,,,0,,,80,64
185780,set_tempo,,,,,40,1,0,241935,,,,,,
185880,note_off,,,,,120,0,1,,,0,,,68,64
185880,note_off,,,,,0,0,1,,,0,,,72,64
185880,note_on,,,,,0,0,1,,,0,,,75,42
185980,set_tempo,,,,,200,1,0,242915,,,,,,
186000,note_off,,,,,240,0,2,,,0,,,56,64
186000,note_on,,,,,0,0,2,,,0,,,55,46
186000,note_off,,,,,120,0,1,,,0,,,75,64
186000,note_on,,,,,0,0,1,,,0,,,72,41
186000,note_on,,,,,0,0,1,,,0,,,68,41
186020,set_tempo,,,,,40,1,0,243902,,,,,,
186060,set_tempo,,,,,40,1,0,246914,,,,,,
186100,set_tempo,,,,,40,1,0,247934,,,,,,
186120,note_on,,,,,0,0,1,,,0,,,75,37
186120,note_off,,,,,0,0,1,,,0,,,72,64
186120,note_off,,,,,120,0,1,,,0,,,68,64
186140,set_tempo,,,,,40,1,0,248963,,,,,,
186200,set_tempo,,,,,60,1,0,250000,,,,,,
186220,set_tempo,,,,,20,1,0,251046,,,,,,
186240,set_tempo,,,,,20,1,0,252101,,,,,,
186240,note_on,,,,,0,0,1,,,0,,,68,38
186240,note_on,,,,,0,0,2,,,0,,,56,32
186240,note_on,,,,,0,0,1,,,0,,,72,38
186240,note_off,,,,,120,0,1,,,0,,,75,64
186240,note_off,,,,,240,0,2,,,0,,,55,64
186300,set_tempo,,,,,60,1,0,254237,,,,,,
186360,note_on,,,,,0,0,1,,,0,,,75,33
186360,note_off,,,,,0,0,1,,,0,,,72,64
186360,note_off,,,,,120,0,1,,,0,,,68,64
186380,set_tempo,,,,,80,1,0,256410,,,,,,
186440,set_tempo,,,,,60,1,0,257511,,,,,,
186460,set_tempo,,,,,20,1,0,258621,,,,,,
186480,note_on,,,,,0,0,1,,,0,,,67,41
186480,note_on,,,,,0,0,2,,,0,,,58,46
186480,note_on,,,,,0,0,1,,,0,,,73,41
186480,note_off,,,,,120,0,1,,,0,,,75,64
186480,note_off,,,,,240,0,2,,,0,,,56,64
186520,set_tempo,,,,,60,1,0,259740,,,,,,
186540,set_tempo,,,,,20,1,0,263158,,,,,,
186580,set_tempo,,,,,40,1,0,264317,,,,,,
186600,note_off,,,,,120,0,1,,,0,,,67,64
186600,note_off,,,,,0,0,1,,,0,,,73,64
186600,note_on,,,,,0,0,1,,,0,,,75,30
186660,set_tempo,,,,,80,1,0,265487,,,,,,
186700,set_tempo,,,,,40,1,0,267857,,,,,,
186720,note_on,,,,,0,0,1,,,0,,,67,35
186720,note_on,,,,,0,0,1,,,0,,,73,35
186720,note_off,,,,,120,0,1,,,0,,,75,64
186740,set_tempo,,,,,40,1,0,269058,,,,,,
186800,set_tempo,,,,,60,1,0,271493,,,,,,
186840,note_on,,,,,0,0,1,,,0,,,75,27
186840,note_off,,,,,0,0,1,,,0,,,73,64
186840,note_off,,,,,120,0,1,,,0,,,67,64
186880,set_tempo,,,,,80,1,0,272727,,,,,,
186960,note_off,,,,,480,0,2,,,0,,,58,64
186960,note_on,,,,,0,0,2,,,0,,,59,32
186960,note_off,,,,,120,0,1,,,0,,,75,64
186960,note_on,,,,,0,0,1,,,0,,,67,31
186960,note_on,,,,,0,0,1,,,0,,,73,31
187080,note_off,,,,,120,0,1,,,0,,,67,64
187080,note_on,,,,,0,0,1,,,0,,,75,23
187080,note_off,,,,,0,0,1,,,0,,,73,64
187200,note_off,,,,,120,0,1,,,0,,,75,64
187200,note_off,,,,,0,0,2,,,0,,,51,64
187200,set_tempo,,,,,320,1,0,281690,,,,,,
187200,note_on,,,,,0,0,1,,,0,,,75,30
187200,note_on,,,,,0,0,1,,,0,,,68,30
187200,note_on,,,,,0,0,1,,,0,,,72,30
187200,note_off,,,,,240,0,2,,,0,,,59,64
187200,note_on,,,,,0,0,2,,,0,,,56,36
187200,note_on,,,,,0,0,2,,,0,,,60,36
187220,set_tempo,,,,,20,1,0,279070,,,,,,
187240,set_tempo,,,,,20,1,0,266667,,,,,,
187280,set_tempo,,,,,40,1,0,265487,,,,,,
187300,set_tempo,,,,,20,1,0,263158,,,,,,
187320,note_off,,,,,0,0,2,,,0,,,60,64
187320,note_off,,,,,120,0,2,,,0,,,56,64
187320,note_off,,,,,120,0,1,,,0,,,68,64
187320,note_off,,,,,0,0,1,,,0,,,72,64
187320,set_tempo,,,,,20,1,0,260870,,,,,,
187320,note_on,,,,,0,0,2,,,0,,,63,24
187320,note_off,,,,,0,0,1,,,0,,,75,64
187380,set_tempo,,,,,60,1,0,257511,,,,,,
187410,note_on,,,,,90,0,1,,,0,,,73,28
187420,set_tempo,,,,,40,1,0,256410,,,,,,
187440,note_on,,,,,0,0,1,,,0,,,72,29
187440,note_off,,,,,120,0,2,,,0,,,63,64
187440,note_on,,,,,0,0,2,,,0,,,56,30
187440,note_on,,,,,0,0,2,,,0,,,60,30
187440,note_off,,,,,30,0,1,,,0,,,73,64
187460,set_tempo,,,,,40,1,0,254237,,,,,,
187520,set_tempo,,,,,60,1,0,252101,,,,,,
187540,set_tempo,,,,,20,1,0,251046,,,,,,
187560,note_on,,,,,0,0,1,,,0,,,70,34
187560,note_off,,,,,120,0,1,,,0,,,72,64
187560,note_on,,,,,0,0,2,,,0,,,63,24
187560,note_off,,,,,0,0,2,,,0,,,56,64
187560,note_off,,,,,120,0,2,,,0,,,60,64
187560,set_tempo,,,,,20,1,0,250000,,,,,,
187600,set_tempo,,,,,40,1,0,248963,,,,,,
187620,set_tempo,,,,,20,1,0,247934,,,,,,
187680,note_on,,,,,0,0,2,,,0,,,60,31
187680,set_tempo,,,,,60,1,0,246914,,,,,,
187680,note_on,,,,,0,0,2,,,0,,,56,31
187680,note_off,,,,,120,0,2,,,0,,,63,64
187680,note_off,,,,,120,0,1,,,0,,,70,64
187680,note_on,,,,,0,0,1,,,0,,,72,38
187720,set_tempo,,,,,40,1,0,245902,,,,,,
187800,note_off,,,,,0,0,2,,,0,,,60,64
187800,note_on,,,,,0,0,2,,,0,,,63,25
187800,note_off,,,,,120,0,2,,,0,,,56,64
187860,set_tempo,,,,,140,1,0,243902,,,,,,
187920,note_off,,,,,120,0,2,,,0,,,63,64
187920,note_off,,,,,240,0,1,,,0,,,72,64
187920,note_on,,,,,0,0,2,,,0,,,58,35
187920,note_on,,,,,0,0,2,,,0,,,55,35
187920,note_on,,,,,0,0,1,,,0,,,75,47
187980,set_tempo,,,,,120,1,0,242915,,,,,,
188020,set_tempo,,,,,40,1,0,241935,,,,,,
188040,note_off,,,,,0,0,2,,,0,,,58,64
188040,note_off,,,,,120,0,2,,,0,,,55,64
188040,note_off,,,,,120,0,1,,,0,,,75,64
188040,note_on,,,,,0,0,2,,,0,,,63,26
188130,note_on,,,,,90,0,1,,,0,,,72,36
188160,note_on,,,,,0,0,2,,,0,,,55,36
188160,note_on,,,,,0,0,2,,,0,,,58,36
188160,note_off,,,,,120,0,2,,,0,,,63,64
188160,note_off,,,,,30,0,1,,,0,,,72,64
188160,note_on,,,,,0,0,1,,,0,,,70,38
188280,note_off,,,,,120,0,1,,,0,,,70,64
188280,note_on,,,,,0,0,1,,,0,,,69,43
188280,note_on,,,,,0,0,2,,,0,,,63,25
188280,note_off,,,,,0,0,2,,,0,,,58,64
188280,note_off,,,,,120,0,2,,,0,,,55,64
188400,note_off,,,,,120,0,1,,,0,,,69,64
188400,note_on,,,,,0,0,1,,,0,,,70,48
188400,note_on,,,,,0,0,2,,,0,,,54,36
188400,note_off,,,,,120,0,2,,,0,,,63,64
188400,note_on,,,,,0,0,2,,,0,,,58,36
188520,note_on,,,,,0,0,2,,,0,,,63,26
188520,note_off,,,,,0,0,2,,,0,,,58,64
188520,note_off,,,,,120,0,2,,,0,,,54,64
188640,note_off,,,,,240,0,1,,,0,,,70,64
188640,note_on,,,,,0,0,2,,,0,,,53,36
188640,note_on,,,,,0,0,2,,,0,,,58,36
188640,note_off,,,,,120,0,2,,,0,,,63,64
188640,note_on,,,,,0,0,1,,,0,,,77,58
188760,note_on,,,,,0,0,2,,,0,,,61,29
188760,note_off,,,,,0,0,2,,,0,,,58,64
188760,note_off,,,,,120,0,2,,,0,,,53,64
188880,note_on,,,,,0,0,1,,,0,,,75,54
188880,note_on,,,,,0,0,2,,,0,,,53,35
188880,note_on,,,,,0,0,2,,,0,,,58,35
188880,note_off,,,,,120,0,2,,,0,,,61,64
188880,note_off,,,,,240,0,1,,,0,,,77,64
188920,set_tempo,,,,,900,1,0,242915,,,,,,
188940,set_tempo,,,,,20,1,0,243902,,,,,,
189000,set_tempo,,,,,60,1,0,246914,,,,,,
189000,note_on,,,,,0,0,2,,,0,,,61,27
189000,note_on,,,,,0,0,1,,,0,,,73,48
189000,note_off,,,,,120,0,1,,,0,,,75,64
189000,note_off,,,,,120,0,2,,,0,,,53,64
189000,note_off,,,,,0,0,2,,,0,,,58,64
189020,set_tempo,,,,,20,1,0,247934,,,,,,
189080,set_tempo,,,,,60,1,0,248963,,,,,,
189100,set_tempo,,,,,20,1,0,250000,,,,,,
189120,note_on,,,,,0,0,2,,,0,,,58,38
189120,note_off,,,,,120,0,2,,,0,,,61,64
189120,note_off,,,,,120,0,1,,,0,,,73,64
189120,note_on,,,,,0,0,2,,,0,,,53,38
189120,note_on,,,,,0,0,1,,,0,,,72,55
189180,set_tempo,,,,,80,1,0,251046,,,,,,
189240,note_on,,,,,0,0,2,,,0,,,61,34
189240,note_off,,,,,120,0,2,,,0,,,53,64
189240,note_off,,,,,120,0,1,,,0,,,72,64
189240,note_on,,,,,0,0,1,,,0,,,70,66
189240,note_off,,,,,0,0,2,,,0,,,58,64
189260,set_tempo,,,,,80,1,0,254237,,,,,,
189360,note_on,,,,,0,0,1,,,0,,,77,74
189360,note_off,,,,,120,0,1,,,0,,,70,64
189360,note_off,,,,,120,0,2,,,0,,,61,64
189360,note_on,,,,,0,0,2,,,0,,,58,43
189360,note_on,,,,,0,0,2,,,0,,,53,43
189480,note_on,,,,,0,0,2,,,0,,,60,32
189480,note_off,,,,,0,0,2,,,0,,,58,64
189480,note_off,,,,,120,0,2,,,0,,,53,64
189600,note_off,,,,,240,0,1,,,0,,,77,64
189600,note_off,,,,,120,0,2,,,0,,,60,64
189600,note_on,,,,,0,0,2,,,0,,,57,39
189600,note_on,,,,,0,0,2,,,0,,,53,39
189600,note_on,,,,,0,0,1,,,0,,,65,58
189620,set_tempo,,,,,360,1,0,255319,,,,,,
189680,set_tempo,,,,,60,1,0,256410,,,,,,
189720,note_off,,,,,0,0,2,,,0,,,57,64
189720,note_on,,,,,0,0,2,,,0,,,60,33
189720,note_off,,,,,120,0,2,,,0,,,53,64
189740,set_tempo,,,,,60,1,0,257511,,,,,,
189760,set_tempo,,,,,20,1,0,258621,,,,,,
189780,note_off,,,,,180,0,1,,,0,,,65,64
189840,set_tempo,,,,,80,1,0,259740,,,,,,
189840,note_on,,,,,60,0,1,,,0,,,65,41
189840,note_off,,,,,120,0,2,,,0,,,60,64
189840,note_on,,,,,0,0,2,,,0,,,53,33
189840,note_on,,,,,0,0,2,,,0,,,57,33
189860,set_tempo,,,,,20,1,0,260870,,,,,,
189960,note_off,,,,,0,0,2,,,0,,,53,64
189960,note_on,,,,,0,0,2,,,0,,,60,38
189960,note_off,,,,,120,0,1,,,0,,,65,64
189960,note_off,,,,,120,0,2,,,0,,,57,64
190080,note_on,,,,,0,0,2,,,0,,,61,58
190080,note_on,,,,,0,0,2,,,0,,,65,58
190080,note_off,,,,,120,0,2,,,0,,,60,64
190080,note_on,,,,,120,0,1,,,0,,,77,43
190080,note_on,,,,,0,0,1,,,0,,,73,43
190200,note_off,,,,,120,0,1,,,0,,,73,64
190200,note_off,,,,,0,0,1,,,0,,,77,64
190200,note_on,,,,,0,0,1,,,0,,,80,37
190280,set_tempo,,,,,420,1,0,259740,,,,,,
190320,set_tempo,,,,,40,1,0,258621,,,,,,
190320,note_on,,,,,0,0,1,,,0,,,77,49
190320,note_on,,,,,0,0,1,,,0,,,73,49
190320,note_off,,,,,120,0,1,,,0,,,80,64
190320,note_on,,,,,0,0,2,,,0,,,66,51
190320,note_off,,,,,240,0,2,,,0,,,65,64
190380,set_tempo,,,,,60,1,0,257511,,,,,,
190400,set_tempo,,,,,20,1,0,256410,,,,,,
190440,note_on,,,,,0,0,1,,,0,,,80,43
190440,set_tempo,,,,,40,1,0,255319,,,,,,
190440,note_off,,,,,0,0,1,,,0,,,77,64
190440,note_off,,,,,120,0,1,,,0,,,73,64
190480,set_tempo,,,,,40,1,0,254237,,,,,,
190560,note_on,,,,,0,0,2,,,0,,,65,60
190560,note_off,,,,,120,0,1,,,0,,,80,64
190560,note_on,,,,,0,0,1,,,0,,,77,59
190560,note_on,,,,,0,0,1,,,0,,,73,59
190560,note_off,,,,,240,0,2,,,0,,,66,64
190560,set_tempo,,,,,80,1,0,252101,,,,,,
190580,set_tempo,,,,,20,1,0,251046,,,,,,
190660,set_tempo,,,,,80,1,0,250000,,,,,,
190680,note_off,,,,,120,0,1,,,0,,,73,64
190680,note_off,,,,,0,0,1,,,0,,,77,64
190680,note_on,,,,,0,0,1,,,0,,,80,51
190760,set_tempo,,,,,100,1,0,248963,,,,,,
190800,note_off,,,,,0,0,2,,,0,,,61,64
190800,note_on,,,,,0,0,2,,,0,,,54,69
190800,note_on,,,,,0,0,2,,,0,,,63,69
190800,note_off,,,,,240,0,2,,,0,,,65,64
190800,note_off,,,,,120,0,1,,,0,,,80,64
190800,note_on,,,,,0,0,1,,,0,,,82,67
190800,note_on,,,,,0,0,1,,,0,,,73,67
190920,note_on,,,,,0,0,1,,,0,,,85,58
190920,note_off,,,,,0,0,1,,,0,,,82,64
190920,note_off,,,,,120,0,1,,,0,,,73,64
191040,note_on,,,,,0,0,2,,,0,,,58,60
191040,note_off,,,,,240,0,2,,,0,,,63,64
191040,note_off,,,,,120,0,1,,,0,,,85,64
191040,note_on,,,,,0,0,1,,,0,,,82,65
191040,note_on,,,,,0,0,1,,,0,,,73,65
191080,set_tempo,,,,,320,1,0,245902,,,,,,
191120,set_tempo,,,,,40,1,0,243902,,,,,,
191160,note_on,,,,,0,0,1,,,0,,,85,56
191160,note_off,,,,,0,0,1,,,0,,,82,64
191160,note_off,,,,,120,0,1,,,0,,,73,64
191180,set_tempo,,,,,60,1,0,242915,,,,,,
191260,set_tempo,,,,,80,1,0,241935,,,,,,
191280,note_on,,,,,0,0,1,,,0,,,73,65
191280,note_on,,,,,0,0,2,,,0,,,60,57
191280,note_off,,,,,240,0,2,,,0,,,58,64
191280,note_off,,,,,120,0,1,,,0,,,85,64
191280,note_on,,,,,0,0,1,,,0,,,82,65
191400,note_on,,,,,0,0,1,,,0,,,85,53
191400,note_off,,,,,0,0,1,,,0,,,82,64
191400,note_off,,,,,120,0,1,,,0,,,73,64
191460,note_on,,,,,0,0,2,,,0,,,63,66
191460,note_off,,,,,180,0,2,,,0,,,60,64
191490,note_off,,,,,30,0,2,,,0,,,63,64
191500,set_tempo,,,,,240,1,0,454545,,,,,,
191520,note_off,,,,,30,0,2,,,0,,,54,64
191520,note_off,,,,,120,0,1,,,0,,,85,64
191520,note_on,,,,,0,0,1,,,0,,,77,57
191520,note_on,,,,,0,0,1,,,0,,,73,57
191520,note_on,,,,,0,0,2,,,0,,,56,68
191520,note_on,,,,,0,0,2,,,0,,,61,68
191540,set_tempo,,,,,40,1,0,241935,,,,,,
191640,note_off,,,,,120,0,1,,,0,,,73,64
191640,note_off,,,,,0,0,1,,,0,,,77,64
191640,note_on,,,,,0,0,1,,,0,,,80,42
191740,set_tempo,,,,,200,1,0,242915,,,,,,
191760,note_on,,,,,0,0,1,,,0,,,73,48
191760,note_on,,,,,0,0,2,,,0,,,60,56
191760,note_on,,,,,0,0,1,,,0,,,77,48
191760,note_off,,,,,120,0,1,,,0,,,80,64
191760,note_off,,,,,240,0,2,,,0,,,61,64
191780,set_tempo,,,,,40,1,0,243902,,,,,,
191820,set_tempo,,,,,40,1,0,245902,,,,,,
191880,set_tempo,,,,,60,1,0,246914,,,,,,
191880,note_on,,,,,0,0,1,,,0,,,80,37
191880,note_off,,,,,120,0,1,,,0,,,73,64
191880,note_off,,,,,0,0,1,,,0,,,77,64
191960,set_tempo,,,,,80,1,0,247934,,,,,,
192000,note_off,,,,,120,0,1,,,0,,,80,64
192000,note_on,,,,,0,0,1,,,0,,,77,39
192000,note_on,,,,,0,0,1,,,0,,,73,39
192000,note_off,,,,,240,0,2,,,0,,,60,64
192000,note_on,,,,,0,0,2,,,0,,,61,45
192040,set_tempo,,,,,80,1,0,248963,,,,,,
192060,set_tempo,,,,,20,1,0,250000,,,,,,
192120,set_tempo,,,,,60,1,0,251046,,,,,,
192120,note_off,,,,,120,0,1,,,0,,,73,64
192120,note_on,,,,,0,0,1,,,0,,,80,32
192120,note_off,,,,,0,0,1,,,0,,,77,64
192160,set_tempo,,,,,40,1,0,252101,,,,,,
192220,set_tempo,,,,,60,1,0,254237,,,,,,
192240,note_on,,,,,0,0,2,,,0,,,63,52
192240,note_off,,,,,240,0,2,,,0,,,61,64
192240,note_on,,,,,0,0,1,,,0,,,78,42
192240,note_off,,,,,120,0,1,,,0,,,80,64
192240,note_on,,,,,0,0,1,,,0,,,72,42
192260,set_tempo,,,,,40,1,0,255319,,,,,,
192280,set_tempo,,,,,20,1,0,256410,,,,,,
192320,set_tempo,,,,,40,1,0,257511,,,,,,
192360,note_off,,,,,120,0,1,,,0,,,72,64
192360,note_on,,,,,0,0,1,,,0,,,80,31
192360,set_tempo,,,,,40,1,0,258621,,,,,,
192360,note_off,,,,,0,0,1,,,0,,,78,64
192400,set_tempo,,,,,40,1,0,260870,,,,,,
192440,set_tempo,,,,,40,1,0,263158,,,,,,
192460,set_tempo,,,,,20,1,0,264317,,,,,,
192480,note_off,,,,,120,0,1,,,0,,,80,64
192480,note_on,,,,,0,0,1,,,0,,,72,39
192480,note_on,,,,,0,0,1,,,0,,,78,39
192580,set_tempo,,,,,120,1,0,265487,,,,,,
192600,note_off,,,,,120,0,1,,,0,,,72,64
192600,note_off,,,,,0,0,1,,,0,,,78,64
192600,note_on,,,,,0,0,1,,,0,,,80,31
192600,set_tempo,,,,,20,1,0,266667,,,,,,
192680,set_tempo,,,,,80,1,0,267857,,,,,,
192720,note_on,,,,,0,0,1,,,0,,,78,39
192720,note_off,,,,,120,0,1,,,0,,,80,64
192720,note_off,,,,,480,0,2,,,0,,,63,64
192720,note_on,,,,,0,0,1,,,0,,,72,39
192720,note_on,,,,,0,0,2,,,0,,,64,39
192740,set_tempo,,,,,60,1,0,271493,,,,,,
192760,set_tempo,,,,,20,1,0,272727,,,,,,
192840,note_off,,,,,120,0,1,,,0,,,72,64
192840,set_tempo,,,,,80,1,0,281690,,,,,,
192840,note_on,,,,,0,0,1,,,0,,,80,35
192840,note_off,,,,,0,0,1,,,0,,,78,64
192860,set_tempo,,,,,20,1,0,283019,,,,,,
192900,set_tempo,,,,,40,1,0,284360,,,,,,
192930,note_off,,,,,90,0,1,,,0,,,80,64
192960,note_on,,,,,30,0,1,,,0,,,80,33
192960,note_off,,,,,0,0,2,,,0,,,56,64
192960,note_off,,,,,240,0,2,,,0,,,64,64
192960,note_on,,,,,0,0,1,,,0,,,77,33
192960,note_on,,,,,0,0,1,,,0,,,73,33
192960,note_on,,,,,0,0,2,,,0,,,65,33
192960,note_on,,,,,0,0,2,,,0,,,61,33
192960,set_tempo,,,,,60,1,0,285714,,,,,,
192980,set_tempo,,,,,20,1,0,402685,,,,,,
193000,set_tempo,,,,,20,1,0,317460,,,,,,
193020,set_tempo,,,,,20,1,0,312500,,,,,,
193040,set_tempo,,,,,20,1,0,287081,,,,,,
193060,set_tempo,,,,,20,1,0,285714,,,,,,
193080,set_tempo,,,,,20,1,0,284360,,,,,,
193080,note_off,,,,,0,0,1,,,0,,,77,64
193080,note_off,,,,,120,0,1,,,0,,,73,64
193080,note_off,,,,,0,0,1,,,0,,,80,64
193100,set_tempo,,,,,20,1,0,283019,,,,,,
193120,set_tempo,,,,,20,1,0,281690,,,,,,
193140,note_off,,,,,0,0,2,,,0,,,65,64
193140,note_off,,,,,180,0,2,,,0,,,61,64
193160,set_tempo,,,,,40,1,0,279070,,,,,,
193180,set_tempo,,,,,20,1,0,277778,,,,,,
193200,set_tempo,,,,,20,1,0,276498,,,,,,
193200,note_on,,,,,60,0,2,,,0,,,49,26
193260,set_tempo,,,,,60,1,0,275229,,,,,,
193280,set_tempo,,,,,20,1,0,273973,,,,,,
193380,note_off,,,,,180,0,2,,,0,,,49,64
193400,set_tempo,,,,,120,1,0,272727,,,,,,
193420,set_tempo,,,,,20,1,0,271493,,,,,,
193440,note_on,,,,,60,0,2,,,0,,,49,20
193460,set_tempo,,,,,40,1,0,269058,,,,,,
193480,set_tempo,,,,,20,1,0,267857,,,,,,
193540,set_tempo,,,,,60,1,0,266667,,,,,,
193560,set_tempo,,,,,20,1,0,265487,,,,,,
193620,note_off,,,,,180,0,2,,,0,,,49,64
193680,set_tempo,,,,,120,1,0,264317,,,,,,
193680,note_on,,,,,0,0,2,,,0,,,61,35
193680,note_on,,,,,60,0,2,,,0,,,65,35
193720,set_tempo,,,,,40,1,0,263158,,,,,,
193740,set_tempo,,,,,20,1,0,260870,,,,,,
193780,set_tempo,,,,,40,1,0,259740,,,,,,
193840,set_tempo,,,,,60,1,0,258621,,,,,,
193860,note_off,,,,,0,0,2,,,0,,,65,64
193860,note_off,,,,,180,0,2,,,0,,,61,64
193900,set_tempo,,,,,60,1,0,257511,,,,,,
193920,note_on,,,,,60,0,2,,,0,,,49,24
193940,set_tempo,,,,,40,1,0,256410,,,,,,
194060,set_tempo,,,,,120,1,0,255319,,,,,,
194100,note_off,,,,,180,0,2,,,0,,,49,64
194160,note_on,,,,,60,0,2,,,0,,,49,19
194160,set_tempo,,,,,100,1,0,254237,,,,,,
194260,set_tempo,,,,,100,1,0,252101,,,,,,
194340,note_off,,,,,180,0,2,,,0,,,49,64
194400,note_on,,,,,60,0,2,,,0,,,65,40
194400,note_on,,,,,0,0,2,,,0,,,61,40
194400,note_on,,,,,1320,0,1,,,0,,,73,43
194420,note_on,,,,,20,0,1,,,0,,,77,43
194440,note_on,,,,,20,0,1,,,0,,,80,43
194480,set_tempo,,,,,220,1,0,251046,,,,,,
194580,note_off,,,,,140,0,1,,,0,,,73,64
194580,note_off,,,,,180,0,2,,,0,,,61,64
194580,note_off,,,,,0,0,2,,,0,,,65,64
194600,note_off,,,,,20,0,1,,,0,,,77,64
194620,note_off,,,,,20,0,1,,,0,,,80,64
194640,note_on,,,,,60,0,2,,,0,,,49,31
194640,note_on,,,,,20,0,1,,,0,,,78,31
194730,note_off,,,,,90,0,1,,,0,,,78,64
194760,note_on,,,,,30,0,1,,,0,,,77,28
194820,note_off,,,,,180,0,2,,,0,,,49,64
194850,note_off,,,,,90,0,1,,,0,,,77,64
194880,note_on,,,,,60,0,2,,,0,,,49,24
194880,note_on,,,,,30,0,1,,,0,,,75,25
194970,note_off,,,,,90,0,1,,,0,,,75,64
195000,note_on,,,,,30,0,1,,,0,,,73,22
195060,note_off,,,,,180,0,2,,,0,,,49,64
195090,note_off,,,,,90,0,1,,,0,,,73,64
195120,note_on,,,,,60,0,2,,,0,,,66,40
195120,note_on,,,,,0,0,2,,,0,,,61,40
195120,note_on,,,,,30,0,1,,,0,,,68,44
195140,note_on,,,,,20,0,1,,,0,,,72,44
195160,note_on,,,,,20,0,1,,,0,,,75,44
195300,note_off,,,,,140,0,1,,,0,,,68,64
195300,note_off,,,,,0,0,2,,,0,,,66,64
195300,note_off,,,,,180,0,2,,,0,,,61,64
195320,note_off,,,,,20,0,1,,,0,,,72,64
195340,note_off,,,,,20,0,1,,,0,,,75,64
195360,note_on,,,,,60,0,2,,,0,,,49,31
195360,note_on,,,,,20,0,1,,,0,,,73,36
195450,note_off,,,,,90,0,1,,,0,,,73,64
195480,note_on,,,,,30,0,1,,,0,,,72,32
195540,note_off,,,,,180,0,2,,,0,,,49,64
195570,note_off,,,,,90,0,1,,,0,,,72,64
195600,note_on,,,,,30,0,1,,,0,,,70,27
195600,note_on,,,,,60,0,2,,,0,,,49,24
195690,note_off,,,,,90,0,1,,,0,,,70,64
195720,note_on,,,,,30,0,1,,,0,,,68,22
195780,note_off,,,,,180,0,2,,,0,,,49,64
195810,note_off,,,,,90,0,1,,,0,,,68,64
195840,note_on,,,,,60,0,2,,,0,,,65,40
195840,note_on,,,,,30,0,1,,,0,,,73,46
195840,note_on,,,,,0,0,2,,,0,,,61,40
195860,note_on,,,,,20,0,1,,,0,,,77,46
195880,note_on,,,,,20,0,1,,,0,,,80,46
196020,note_off,,,,,180,0,2,,,0,,,61,64
196020,note_off,,,,,0,0,2,,,0,,,65,64
196020,note_off,,,,,140,0,1,,,0,,,73,64
196040,note_off,,,,,20,0,1,,,0,,,77,64
196060,note_off,,,,,20,0,1,,,0,,,80,64
196080,note_on,,,,,60,0,2,,,0,,,49,41
196080,note_on,,,,,20,0,1,,,0,,,78,31
196170,note_off,,,,,90,0,1,,,0,,,78,64
196200,note_on,,,,,30,0,1,,,0,,,77,38
196260,note_off,,,,,180,0,2,,,0,,,49,64
196290,note_off,,,,,90,0,1,,,0,,,77,64
196320,note_on,,,,,60,0,2,,,0,,,49,57
196320,note_on,,,,,30,0,1,,,0,,,75,47
196410,note_off,,,,,90,0,1,,,0,,,75,64
196440,note_on,,,,,30,0,1,,,0,,,73,53
196500,note_off,,,,,180,0,2,,,0,,,49,64
196530,note_off,,,,,90,0,1,,,0,,,73,64
196560,note_on,,,,,0,0,2,,,0,,,61,79
196560,note_on,,,,,0,0,1,,,0,,,82,76
196560,note_on,,,,,30,0,1,,,0,,,85,76
196560,note_on,,,,,60,0,2,,,0,,,66,79
196560,note_on,,,,,0,0,1,,,0,,,78,76
196740,note_off,,,,,180,0,1,,,0,,,78,64
196740,note_off,,,,,0,0,1,,,0,,,85,64
196740,note_off,,,,,180,0,2,,,0,,,61,64
196740,note_off,,,,,0,0,2,,,0,,,66,64
196740,note_off,,,,,0,0,1,,,0,,,82,64
196800,note_on,,,,,60,0,1,,,0,,,85,37
196800,note_on,,,,,0,0,1,,,0,,,82,37
196800,note_on,,,,,0,0,1,,,0,,,78,37
196800,note_on,,,,,60,0,2,,,0,,,49,44
196980,note_off,,,,,0,0,1,,,0,,,82,64
196980,note_off,,,,,0,0,1,,,0,,,85,64
196980,note_off,,,,,180,0,2,,,0,,,49,64
196980,note_off,,,,,180,0,1,,,0,,,78,64
197040,note_on,,,,,60,0,1,,,0,,,85,26
197040,note_on,,,,,0,0,1,,,0,,,82,26
197040,note_on,,,,,0,0,1,,,0,,,78,26
197040,note_on,,,,,60,0,2,,,0,,,49,38
197220,note_off,,,,,180,0,2,,,0,,,49,64
197220,set_tempo,,,,,2740,1,0,250000,,,,,,
197220,note_off,,,,,180,0,1,,,0,,,78,64
197220,note_off,,,,,0,0,1,,,0,,,82,64
197220,note_off,,,,,0,0,1,,,0,,,85,64
197280,note_on,,,,,60,0,2,,,0,,,61,44
197280,note_on,,,,,0,0,2,,,0,,,58,44
197280,note_on,,,,,0,0,2,,,0,,,66,44
197460,note_off,,,,,0,0,2,,,0,,,58,64
197460,note_off,,,,,0,0,2,,,0,,,61,64
197460,note_off,,,,,180,0,2,,,0,,,66,64
197520,note_on,,,,,60,0,2,,,0,,,49,35
197700,note_off,,,,,180,0,2,,,0,,,49,64
197760,note_on,,,,,60,0,2,,,0,,,49,30
197940,note_off,,,,,180,0,2,,,0,,,49,64
198000,note_on,,,,,60,0,2,,,0,,,66,39
198000,note_on,,,,,0,0,2,,,0,,,61,39
198000,note_on,,,,,0,0,2,,,0,,,58,39
198180,note_off,,,,,0,0,2,,,0,,,66,64
198180,note_off,,,,,0,0,2,,,0,,,61,64
198180,note_off,,,,,180,0,2,,,0,,,58,64
198240,note_on,,,,,60,0,2,,,0,,,49,30
198420,note_off,,,,,180,0,2,,,0,,,49,64
198480,note_on,,,,,60,0,2,,,0,,,49,24
198640,set_tempo,,,,,1420,1,0,251046,,,,,,
198660,note_off,,,,,180,0,2,,,0,,,49,64
198720,note_on,,,,,0,0,2,,,0,,,61,35
198720,note_on,,,,,60,0,2,,,0,,,56,35
198720,note_on,,,,,1500,0,1,,,0,,,65,41
198840,set_tempo,,,,,200,1,0,252101,,,,,,
198900,note_off,,,,,0,0,2,,,0,,,56,64
198900,note_off,,,,,180,0,2,,,0,,,61,64
198960,note_on,,,,,60,0,2,,,0,,,49,29
198960,note_off,,,,,240,0,1,,,0,,,65,64
198960,note_on,,,,,0,0,1,,,0,,,66,31
199080,set_tempo,,,,,240,1,0,254237,,,,,,
199100,set_tempo,,,,,20,1,0,255319,,,,,,
199140,note_off,,,,,180,0,2,,,0,,,49,64
199200,note_on,,,,,0,0,1,,,0,,,65,34
199200,note_off,,,,,240,0,1,,,0,,,66,64
199200,note_on,,,,,60,0,2,,,0,,,49,20
199380,note_off,,,,,180,0,2,,,0,,,49,64
199380,set_tempo,,,,,280,1,0,256410,,,,,,
199440,note_on,,,,,0,0,1,,,0,,,63,41
199440,note_off,,,,,240,0,1,,,0,,,65,64
199440,note_on,,,,,60,0,2,,,0,,,58,35
199440,note_on,,,,,0,0,2,,,0,,,54,35
199620,note_off,,,,,0,0,2,,,0,,,58,64
199620,note_off,,,,,180,0,2,,,0,,,54,64
199660,set_tempo,,,,,280,1,0,257511,,,,,,
199680,note_on,,,,,0,0,1,,,0,,,65,30
199680,note_off,,,,,240,0,1,,,0,,,63,64
199680,note_on,,,,,60,0,2,,,0,,,42,28
199800,note_off,,,,,120,0,1,,,0,,,65,64
199800,note_on,,,,,0,0,1,,,0,,,66,32
199820,set_tempo,,,,,160,1,0,258621,,,,,,
199860,note_off,,,,,180,0,2,,,0,,,42,64
199920,note_off,,,,,120,0,1,,,0,,,66,64
199920,note_on,,,,,0,0,1,,,0,,,68,37
199920,note_on,,,,,60,0,2,,,0,,,42,21
200040,note_on,,,,,0,0,1,,,0,,,70,43
200040,note_off,,,,,120,0,1,,,0,,,68,64
200100,note_off,,,,,180,0,2,,,0,,,42,64
200120,set_tempo,,,,,300,1,0,259740,,,,,,
200160,note_on,,,,,0,0,1,,,0,,,72,47
200160,note_on,,,,,0,0,2,,,0,,,63,40
200160,note_off,,,,,120,0,1,,,0,,,70,64
200160,note_on,,,,,60,0,2,,,0,,,66,40
200340,note_off,,,,,180,0,2,,,0,,,63,64
200340,note_off,,,,,0,0,2,,,0,,,66,64
200400,note_on,,,,,0,0,1,,,0,,,70,30
200400,note_off,,,,,240,0,1,,,0,,,72,64
200400,note_on,,,,,60,0,2,,,0,,,56,31
200520,note_on,,,,,0,0,1,,,0,,,72,34
200520,note_off,,,,,120,0,1,,,0,,,70,64
200520,set_tempo,,,,,400,1,0,260870,,,,,,
200580,note_off,,,,,180,0,2,,,0,,,56,64
200640,note_off,,,,,120,0,1,,,0,,,72,64
200640,note_on,,,,,0,0,1,,,0,,,73,37
200640,note_on,,,,,60,0,2,,,0,,,56,24
200720,set_tempo,,,,,200,1,0,263158,,,,,,
200760,note_off,,,,,120,0,1,,,0,,,73,64
200760,note_on,,,,,0,0,1,,,0,,,75,45
200820,note_off,,,,,180,0,2,,,0,,,56,64
200860,set_tempo,,,,,140,1,0,264317,,,,,,
200880,note_on,,,,,60,0,2,,,0,,,61,40
200880,note_on,,,,,0,0,1,,,0,,,77,53
200880,note_on,,,,,0,0,2,,,0,,,65,40
200880,note_off,,,,,120,0,1,,,0,,,75,64
200940,set_tempo,,,,,80,1,0,263158,,,,,,
201060,note_off,,,,,180,0,1,,,0,,,77,64
201060,note_off,,,,,0,0,2,,,0,,,61,64
201060,note_off,,,,,180,0,2,,,0,,,65,64
201100,set_tempo,,,,,160,1,0,260870,,,,,,
201120,note_on,,,,,60,0,1,,,0,,,77,36
201120,note_on,,,,,60,0,2,,,0,,,49,31
201300,note_off,,,,,180,0,1,,,0,,,77,64
201300,set_tempo,,,,,200,1,0,259740,,,,,,
201300,note_off,,,,,180,0,2,,,0,,,49,64
201360,note_on,,,,,60,0,2,,,0,,,49,24
201360,note_on,,,,,60,0,1,,,0,,,77,29
201520,set_tempo,,,,,220,1,0,258621,,,,,,
201540,note_off,,,,,180,0,1,,,0,,,77,64
201540,note_off,,,,,180,0,2,,,0,,,49,64
201600,note_on,,,,,60,0,2,,,0,,,61,40
201600,note_on,,,,,0,0,2,,,0,,,65,40
201640,set_tempo,,,,,120,1,0,257511,,,,,,
201780,note_off,,,,,180,0,2,,,0,,,65,64
201780,note_off,,,,,0,0,2,,,0,,,61,64
201840,note_on,,,,,60,0,2,,,0,,,49,31
201880,set_tempo,,,,,240,1,0,256410,,,,,,
202020,set_tempo,,,,,140,1,0,255319,,,,,,
202020,note_off,,,,,180,0,2,,,0,,,49,64
202080,note_on,,,,,60,0,2,,,0,,,49,24
202220,set_tempo,,,,,200,1,0,254237,,,,,,
202260,note_off,,,,,180,0,2,,,0,,,49,64
202300,set_tempo,,,,,80,1,0,252101,,,,,,
202320,note_on,,,,,0,0,2,,,0,,,61,35
202320,note_on,,,,,60,0,2,,,0,,,65,35
202500,note_off,,,,,180,0,2,,,0,,,61,64
202500,note_off,,,,,0,0,2,,,0,,,65,64
202560,set_tempo,,,,,260,1,0,251046,,,,,,
202560,note_on,,,,,60,0,2,,,0,,,49,30
202680,set_tempo,,,,,120,1,0,250000,,,,,,
202740,note_off,,,,,180,0,2,,,0,,,49,64
202800,note_on,,,,,60,0,2,,,0,,,49,21
202980,note_off,,,,,180,0,2,,,0,,,49,64
203040,set_tempo,,,,,360,1,0,248963,,,,,,
203040,note_on,,,,,0,0,2,,,0,,,65,40
203040,note_on,,,,,60,0,2,,,0,,,61,40
203040,note_on,,,,,1500,0,1,,,0,,,73,43
203060,note_on,,,,,20,0,1,,,0,,,77,43
203080,note_on,,,,,20,0,1,,,0,,,80,43
203220,note_off,,,,,140,0,1,,,0,,,73,64
203220,note_off,,,,,0,0,2,,,0,,,61,64
203220,note_off,,,,,180,0,2,,,0,,,65,64
203240,note_off,,,,,20,0,1,,,0,,,77,64
203260,note_off,,,,,20,0,1,,,0,,,80,64
203280,note_on,,,,,20,0,1,,,0,,,78,31
203280,note_on,,,,,60,0,2,,,0,,,49,31
203370,note_off,,,,,90,0,1,,,0,,,78,64
203400,note_on,,,,,30,0,1,,,0,,,77,28
203460,note_off,,,,,180,0,2,,,0,,,49,64
203490,note_off,,,,,90,0,1,,,0,,,77,64
203520,note_on,,,,,60,0,2,,,0,,,49,24
203520,note_on,,,,,30,0,1,,,0,,,75,25
203610,note_off,,,,,90,0,1,,,0,,,75,64
203640,note_on,,,,,30,0,1,,,0,,,73,22
203700,note_off,,,,,180,0,2,,,0,,,49,64
203730,note_off,,,,,90,0,1,,,0,,,73,64
203760,note_on,,,,,30,0,1,,,0,,,68,44
203760,note_on,,,,,60,0,2,,,0,,,61,35
203760,note_on,,,,,0,0,2,,,0,,,66,35
203780,note_on,,,,,20,0,1,,,0,,,72,44
203800,note_on,,,,,20,0,1,,,0,,,75,44
203940,note_off,,,,,180,0,2,,,0,,,66,64
203940,note_off,,,,,0,0,2,,,0,,,61,64
203940,note_off,,,,,140,0,1,,,0,,,68,64
203960,note_off,,,,,20,0,1,,,0,,,72,64
203980,note_off,,,,,20,0,1,,,0,,,75,64
204000,note_on,,,,,60,0,2,,,0,,,49,29
204000,note_on,,,,,20,0,1,,,0,,,73,36
204090,note_off,,,,,90,0,1,,,0,,,73,64
204120,note_on,,,,,30,0,1,,,0,,,72,32
204180,note_off,,,,,180,0,2,,,0,,,49,64
204210,note_off,,,,,90,0,1,,,0,,,72,64
204240,note_on,,,,,30,0,1,,,0,,,70,27
204240,note_on,,,,,60,0,2,,,0,,,49,20
204330,note_off,,,,,90,0,1,,,0,,,70,64
204360,note_on,,,,,30,0,1,,,0,,,68,22
204420,note_off,,,,,180,0,2,,,0,,,49,64
204450,note_off,,,,,90,0,1,,,0,,,68,64
204480,note_on,,,,,60,0,2,,,0,,,65,35
204480,note_on,,,,,0,0,2,,,0,,,61,35
204480,note_on,,,,,30,0,1,,,0,,,73,46
204500,note_on,,,,,20,0,1,,,0,,,77,46
204520,note_on,,,,,20,0,1,,,0,,,80,46
204560,set_tempo,,,,,1520,1,0,251046,,,,,,
204600,set_tempo,,,,,40,1,0,252101,,,,,,
204660,note_off,,,,,140,0,1,,,0,,,73,64
204660,note_off,,,,,180,0,2,,,0,,,61,64
204660,note_off,,,,,0,0,2,,,0,,,65,64
204680,note_off,,,,,20,0,1,,,0,,,77,64
204700,set_tempo,,,,,100,1,0,254237,,,,,,
204700,note_off,,,,,20,0,1,,,0,,,80,64
204720,set_tempo,,,,,20,1,0,255319,,,,,,
204720,note_on,,,,,20,0,1,,,0,,,78,31
204720,note_on,,,,,60,0,2,,,0,,,49,39
204760,set_tempo,,,,,40,1,0,256410,,,,,,
204780,set_tempo,,,,,20,1,0,257511,,,,,,
204800,set_tempo,,,,,20,1,0,258621,,,,,,
204810,note_off,,,,,90,0,1,,,0,,,78,64
204820,set_tempo,,,,,20,1,0,259740,,,,,,
204840,set_tempo,,,,,20,1,0,260870,,,,,,
204840,note_on,,,,,30,0,1,,,0,,,77,38
204860,set_tempo,,,,,20,1,0,263158,,,,,,
204880,set_tempo,,,,,20,1,0,264317,,,,,,
204900,set_tempo,,,,,20,1,0,266667,,,,,,
204900,note_off,,,,,180,0,2,,,0,,,49,64
204930,note_off,,,,,90,0,1,,,0,,,77,64
204940,set_tempo,,,,,40,1,0,267857,,,,,,
204960,set_tempo,,,,,20,1,0,271493,,,,,,
204960,note_on,,,,,30,0,1,,,0,,,75,47
204960,note_on,,,,,60,0,2,,,0,,,49,51
204980,set_tempo,,,,,20,1,0,279070,,,,,,
205050,note_off,,,,,90,0,1,,,0,,,75,64
205080,note_on,,,,,30,0,1,,,0,,,73,53
205100,set_tempo,,,,,120,1,0,292683,,,,,,
205120,set_tempo,,,,,20,1,0,295567,,,,,,
205140,set_tempo,,,,,20,1,0,298507,,,,,,
205140,note_off,,,,,180,0,2,,,0,,,49,64
205160,set_tempo,,,,,20,1,0,310881,,,,,,
205170,note_off,,,,,90,0,1,,,0,,,73,64
205180,set_tempo,,,,,20,1,0,320856,,,,,,
205200,note_on,,,,,0,0,2,,,0,,,61,76
205200,note_on,,,,,60,0,2,,,0,,,66,76
205200,note_on,,,,,0,0,1,,,0,,,78,76
205200,note_on,,,,,30,0,1,,,0,,,85,76
205200,set_tempo,,,,,20,1,0,317460,,,,,,
205200,note_on,,,,,0,0,1,,,0,,,81,76
205220,set_tempo,,,,,20,1,0,315789,,,,,,
205240,set_tempo,,,,,20,1,0,310881,,,,,,
205260,set_tempo,,,,,20,1,0,306122,,,,,,
205280,set_tempo,,,,,20,1,0,303030,,,,,,
205300,set_tempo,,,,,20,1,0,298507,,,,,,
205340,set_tempo,,,,,40,1,0,288462,,,,,,
205360,set_tempo,,,,,20,1,0,285714,,,,,,
205380,note_off,,,,,0,0,2,,,0,,,66,64
205380,note_off,,,,,0,0,1,,,0,,,81,64
205380,note_off,,,,,0,0,1,,,0,,,85,64
205380,note_off,,,,,180,0,2,,,0,,,61,64
205380,set_tempo,,,,,20,1,0,283019,,,,,,
205380,note_off,,,,,180,0,1,,,0,,,78,64
205400,set_tempo,,,,,20,1,0,281690,,,,,,
205420,set_tempo,,,,,20,1,0,277778,,,,,,
205440,note_on,,,,,60,0,1,,,0,,,85,37
205440,note_on,,,,,0,0,1,,,0,,,81,37
205440,note_on,,,,,0,0,1,,,0,,,78,37
205440,note_on,,,,,60,0,2,,,0,,,49,53
205440,set_tempo,,,,,20,1,0,275229,,,,,,
205460,set_tempo,,,,,20,1,0,273973,,,,,,
205480,set_tempo,,,,,20,1,0,272727,,,,,,
205500,set_tempo,,,,,20,1,0,271493,,,,,,
205520,set_tempo,,,,,20,1,0,269058,,,,,,
205540,set_tempo,,,,,20,1,0,267857,,,,,,
205580,set_tempo,,,,,40,1,0,265487,,,,,,
205600,set_tempo,,,,,20,1,0,264317,,,,,,
205620,note_off,,,,,180,0,1,,,0,,,78,64
205620,note_off,,,,,180,0,2,,,0,,,49,64
205620,set_tempo,,,,,20,1,0,263158,,,,,,
205620,note_off,,,,,0,0,1,,,0,,,81,64
205620,note_off,,,,,0,0,1,,,0,,,85,64
205680,set_tempo,,,,,60,1,0,259740,,,,,,
205680,note_on,,,,,0,0,1,,,0,,,81,26
205680,note_on,,,,,60,0,2,,,0,,,49,34
205680,note_on,,,,,60,0,1,,,0,,,85,26
205680,note_on,,,,,0,0,1,,,0,,,78,26
205860,note_off,,,,,180,0,1,,,0,,,78,64
205860,note_off,,,,,180,0,2,,,0,,,49,64
205860,note_off,,,,,0,0,1,,,0,,,85,64
205860,note_off,,,,,0,0,1,,,0,,,81,64
205920,note_on,,,,,0,0,2,,,0,,,66,36
205920,note_on,,,,,60,0,2,,,0,,,61,36
205920,note_on,,,,,0,0,2,,,0,,,57,36
206080,set_tempo,,,,,400,1,0,258621,,,,,,
206100,note_off,,,,,180,0,2,,,0,,,57,64
206100,note_off,,,,,0,0,2,,,0,,,61,64
206100,note_off,,,,,0,0,2,,,0,,,66,64
206140,set_tempo,,,,,60,1,0,257511,,,,,,
206160,note_on,,,,,60,0,2,,,0,,,54,28
206260,set_tempo,,,,,120,1,0,256410,,,,,,
206340,note_off,,,,,180,0,2,,,0,,,54,64
206380,set_tempo,,,,,120,1,0,255319,,,,,,
206400,note_on,,,,,60,0,2,,,0,,,54,20
206540,set_tempo,,,,,160,1,0,254237,,,,,,
206580,note_off,,,,,180,0,2,,,0,,,54,64
206620,set_tempo,,,,,80,1,0,252101,,,,,,
206640,note_on,,,,,0,0,2,,,0,,,57,36
206640,note_on,,,,,0,0,2,,,0,,,66,36
206640,note_on,,,,,60,0,2,,,0,,,61,36
206760,set_tempo,,,,,140,1,0,251046,,,,,,
206820,note_off,,,,,0,0,2,,,0,,,61,64
206820,note_off,,,,,180,0,2,,,0,,,57,64
206820,note_off,,,,,0,0,2,,,0,,,66,64
206880,note_on,,,,,60,0,2,,,0,,,54,30
206900,set_tempo,,,,,140,1,0,250000,,,,,,
207060,note_off,,,,,180,0,2,,,0,,,54,64
207120,note_on,,,,,60,0,2,,,0,,,54,21
207300,note_off,,,,,180,0,2,,,0,,,54,64
207360,note_on,,,,,0,0,2,,,0,,,57,35
207360,note_on,,,,,0,0,2,,,0,,,61,35
207360,note_on,,,,,60,0,2,,,0,,,66,35
207360,note_on,,,,,1500,0,1,,,0,,,73,41
207540,note_off,,,,,180,0,2,,,0,,,57,64
207540,note_off,,,,,0,0,2,,,0,,,61,64
207540,note_off,,,,,0,0,2,,,0,,,66,64
207600,note_off,,,,,240,0,1,,,0,,,73,64
207600,note_on,,,,,0,0,1,,,0,,,74,31
207600,note_on,,,,,60,0,2,,,0,,,54,25
207780,set_tempo,,,,,880,1,0,248963,,,,,,
207780,note_off,,,,,180,0,2,,,0,,,54,64
207840,note_on,,,,,0,0,1,,,0,,,73,34
207840,note_off,,,,,240,0,1,,,0,,,74,64
207840,note_on,,,,,60,0,2,,,0,,,54,24
208020,set_tempo,,,,,240,1,0,247934,,,,,,
208020,note_off,,,,,180,0,2,,,0,,,54,64
208080,note_off,,,,,240,0,1,,,0,,,73,64
208080,note_on,,,,,0,0,1,,,0,,,71,41
208080,note_on,,,,,0,0,2,,,0,,,62,40
208080,note_on,,,,,60,0,2,,,0,,,66,40
208260,note_off,,,,,0,0,2,,,0,,,66,64
208260,note_off,,,,,180,0,2,,,0,,,62,64
208320,note_off,,,,,240,0,1,,,0,,,71,64
208320,note_on,,,,,0,0,1,,,0,,,73,30
208320,note_on,,,,,60,0,2,,,0,,,50,31
208440,note_off,,,,,120,0,1,,,0,,,73,64
208440,note_on,,,,,0,0,1,,,0,,,74,32
208500,note_off,,,,,180,0,2,,,0,,,50,64
208560,note_on,,,,,60,0,2,,,0,,,50,24
208560,note_off,,,,,120,0,1,,,0,,,74,64
208560,note_on,,,,,0,0,1,,,0,,,76,37
208680,note_on,,,,,0,0,1,,,0,,,78,43
208680,note_off,,,,,120,0,1,,,0,,,76,64
208740,note_off,,,,,180,0,2,,,0,,,50,64
208800,set_tempo,,,,,780,1,0,248963,,,,,,
208800,note_off,,,,,120,0,1,,,0,,,78,64
208800,note_on,,,,,60,0,2,,,0,,,64,40
208800,note_on,,,,,0,0,2,,,0,,,62,40
208800,note_on,,,,,0,0,1,,,0,,,80,47
208840,set_tempo,,,,,40,1,0,250000,,,,,,
208920,set_tempo,,,,,80,1,0,252101,,,,,,
208940,set_tempo,,,,,20,1,0,255319,,,,,,
208980,note_off,,,,,180,0,2,,,0,,,62,64
208980,note_off,,,,,0,0,2,,,0,,,64,64
209020,set_tempo,,,,,80,1,0,256410,,,,,,
209040,note_on,,,,,60,0,2,,,0,,,52,31
209040,note_on,,,,,0,0,1,,,0,,,78,30
209040,note_off,,,,,240,0,1,,,0,,,80,64
209060,set_tempo,,,,,40,1,0,257511,,,,,,
209080,set_tempo,,,,,20,1,0,259740,,,,,,
209160,note_on,,,,,0,0,1,,,0,,,80,34
209160,set_tempo,,,,,80,1,0,260870,,,,,,
209160,note_off,,,,,120,0,1,,,0,,,78,64
209180,set_tempo,,,,,20,1,0,264317,,,,,,
209200,set_tempo,,,,,20,1,0,265487,,,,,,
209220,note_off,,,,,180,0,2,,,0,,,52,64
209220,set_tempo,,,,,20,1,0,266667,,,,,,
209240,set_tempo,,,,,20,1,0,267857,,,,,,
209260,set_tempo,,,,,20,1,0,271493,,,,,,
209280,set_tempo,,,,,20,1,0,272727,,,,,,
209280,note_off,,,,,120,0,1,,,0,,,80,64
209280,note_on,,,,,0,0,1,,,0,,,81,37
209280,note_on,,,,,60,0,2,,,0,,,52,24
209300,set_tempo,,,,,20,1,0,273973,,,,,,
209320,set_tempo,,,,,20,1,0,276498,,,,,,
209360,set_tempo,,,,,40,1,0,277778,,,,,,
209400,set_tempo,,,,,40,1,0,283019,,,,,,
209400,note_off,,,,,120,0,1,,,0,,,81,64
209400,note_on,,,,,0,0,1,,,0,,,83,45
209440,set_tempo,,,,,40,1,0,284360,,,,,,
209460,note_off,,,,,180,0,2,,,0,,,52,64
209460,set_tempo,,,,,20,1,0,285714,,,,,,
209500,set_tempo,,,,,40,1,0,287081,,,,,,
209520,note_on,,,,,0,0,2,,,0,,,64,40
209520,note_on,,,,,60,0,2,,,0,,,61,40
209520,note_off,,,,,120,0,1,,,0,,,83,64
209520,note_on,,,,,0,0,1,,,0,,,85,53
209540,set_tempo,,,,,40,1,0,288462,,,,,,
209560,set_tempo,,,,,20,1,0,289855,,,,,,
209600,set_tempo,,,,,40,1,0,288462,,,,,,
209620,set_tempo,,,,,20,1,0,287081,,,,,,
209680,set_tempo,,,,,60,1,0,285714,,,,,,
209700,note_off,,,,,180,0,1,,,0,,,85,64
209700,set_tempo,,,,,20,1,0,284360,,,,,,
209700,note_off,,,,,0,0,2,,,0,,,61,64
209700,note_off,,,,,180,0,2,,,0,,,64,64
209740,set_tempo,,,,,40,1,0,283019,,,,,,
209760,set_tempo,,,,,20,1,0,281690,,,,,,
209760,note_on,,,,,60,0,2,,,0,,,57,31
209760,note_on,,,,,60,0,1,,,0,,,85,36
209820,set_tempo,,,,,60,1,0,279070,,,,,,
209840,set_tempo,,,,,20,1,0,277778,,,,,,
209880,set_tempo,,,,,40,1,0,276498,,,,,,
209920,set_tempo,,,,,40,1,0,275229,,,,,,
209940,note_off,,,,,180,0,2,,,0,,,57,64
209940,note_off,,,,,180,0,1,,,0,,,85,64
209960,set_tempo,,,,,40,1,0,273973,,,,,,
210000,note_on,,,,,60,0,1,,,0,,,85,29
210000,note_on,,,,,60,0,2,,,0,,,57,24
210020,set_tempo,,,,,60,1,0,271493,,,,,,
210040,set_tempo,,,,,20,1,0,269058,,,,,,
210080,set_tempo,,,,,40,1,0,267857,,,,,,
210180,note_off,,,,,180,0,2,,,0,,,57,64
210180,note_off,,,,,180,0,1,,,0,,,85,64
210200,set_tempo,,,,,120,1,0,266667,,,,,,
210240,set_tempo,,,,,40,1,0,265487,,,,,,
210240,note_on,,,,,0,0,2,,,0,,,61,40
210240,note_on,,,,,60,0,2,,,0,,,64,40
210400,set_tempo,,,,,160,1,0,263158,,,,,,
210420,note_off,,,,,0,0,2,,,0,,,64,64
210420,note_off,,,,,180,0,2,,,0,,,61,64
210420,set_tempo,,,,,20,1,0,260870,,,,,,
210480,note_on,,,,,60,0,2,,,0,,,57,31
210560,set_tempo,,,,,140,1,0,259740,,,,,,
210600,set_tempo,,,,,40,1,0,258621,,,,,,
210660,note_off,,,,,180,0,2,,,0,,,57,64
210720,set_tempo,,,,,120,1,0,257511,,,,,,
210720,note_on,,,,,60,0,2,,,0,,,57,24
210780,set_tempo,,,,,60,1,0,256410,,,,,,
210900,note_off,,,,,180,0,2,,,0,,,57,64
210960,note_on,,,,,780,0,1,,,0,,,73,41
210960,note_on,,,,,60,0,2,,,0,,,61,40
210960,note_on,,,,,0,0,2,,,0,,,64,40
211140,note_off,,,,,180,0,2,,,0,,,64,64
211140,note_off,,,,,0,0,2,,,0,,,61,64
211140,set_tempo,,,,,360,1,0,255319,,,,,,
211200,note_on,,,,,0,0,1,,,0,,,73,31
211200,note_off,,,,,240,0,1,,,0,,,73,64
211200,note_on,,,,,60,0,2,,,0,,,57,31
211220,set_tempo,,,,,80,1,0,254237,,,,,,
211380,note_off,,,,,180,0,2,,,0,,,57,64
211440,note_off,,,,,240,0,1,,,0,,,73,64
211440,note_on,,,,,60,0,2,,,0,,,57,24
211440,note_on,,,,,0,0,1,,,0,,,73,34
211460,set_tempo,,,,,240,1,0,252101,,,,,,
211500,set_tempo,,,,,40,1,0,251046,,,,,,
211580,set_tempo,,,,,80,1,0,250000,,,,,,
211620,note_off,,,,,180,0,2,,,0,,,57,64
211680,note_off,,,,,240,0,1,,,0,,,73,64
211680,note_on,,,,,0,0,1,,,0,,,73,41
211680,note_on,,,,,0,0,2,,,0,,,61,40
211680,note_on,,,,,60,0,2,,,0,,,64,40
211720,set_tempo,,,,,140,1,0,248963,,,,,,
211860,note_off,,,,,180,0,2,,,0,,,61,64
211860,note_off,,,,,0,0,2,,,0,,,64,64
211920,note_on,,,,,60,0,2,,,0,,,58,37
211920,note_off,,,,,240,0,1,,,0,,,73,64
211920,note_on,,,,,0,0,1,,,0,,,76,37
212040,note_on,,,,,0,0,1,,,0,,,74,40
212040,note_off,,,,,120,0,1,,,0,,,76,64
212060,set_tempo,,,,,340,1,0,246914,,,,,,
212100,note_off,,,,,180,0,2,,,0,,,58,64
212100,set_tempo,,,,,40,1,0,247934,,,,,,
212160,note_on,,,,,60,0,2,,,0,,,58,43
212160,note_off,,,,,120,0,1,,,0,,,74,64
212160,note_on,,,,,0,0,1,,,0,,,73,44
212220,set_tempo,,,,,120,1,0,248963,,,,,,
212280,note_off,,,,,120,0,1,,,0,,,73,64
212280,note_on,,,,,0,0,1,,,0,,,76,48
212340,note_off,,,,,180,0,2,,,0,,,58,64
212380,set_tempo,,,,,160,1,0,250000,,,,,,
212400,note_off,,,,,120,0,1,,,0,,,76,64
212400,note_on,,,,,0,0,1,,,0,,,74,49
212400,note_on,,,,,60,0,2,,,0,,,64,52
212400,note_on,,,,,0,0,2,,,0,,,62,52
212440,set_tempo,,,,,60,1,0,251046,,,,,,
212480,set_tempo,,,,,40,1,0,252101,,,,,,
212580,note_off,,,,,180,0,1,,,0,,,74,64
212580,note_off,,,,,0,0,2,,,0,,,64,64
212580,note_off,,,,,180,0,2,,,0,,,62,64
212640,note_on,,,,,60,0,1,,,0,,,74,39
212640,note_on,,,,,60,0,2,,,0,,,59,42
212660,set_tempo,,,,,180,1,0,254237,,,,,,
212740,set_tempo,,,,,80,1,0,255319,,,,,,
212800,set_tempo,,,,,60,1,0,256410,,,,,,
212820,note_off,,,,,180,0,2,,,0,,,59,64
212820,note_off,,,,,180,0,1,,,0,,,74,64
212840,set_tempo,,,,,40,1,0,257511,,,,,,
212880,note_on,,,,,60,0,2,,,0,,,59,35
212880,note_on,,,,,60,0,1,,,0,,,74,42
212940,set_tempo,,,,,100,1,0,258621,,,,,,
213000,set_tempo,,,,,60,1,0,259740,,,,,,
213060,set_tempo,,,,,60,1,0,260870,,,,,,
213060,note_off,,,,,180,0,1,,,0,,,74,64
213060,note_off,,,,,180,0,2,,,0,,,59,64
213080,set_tempo,,,,,20,1,0,263158,,,,,,
213120,note_on,,,,,60,0,2,,,0,,,64,39
213120,note_on,,,,,60,0,1,,,0,,,86,53
213120,note_on,,,,,0,0,2,,,0,,,62,39
213180,set_tempo,,,,,100,1,0,264317,,,,,,
213220,set_tempo,,,,,40,1,0,265487,,,,,,
213260,set_tempo,,,,,40,1,0,266667,,,,,,
213300,note_off,,,,,180,0,1,,,0,,,86,64
213300,note_off,,,,,180,0,2,,,0,,,62,64
213300,note_off,,,,,0,0,2,,,0,,,64,64
213300,set_tempo,,,,,40,1,0,267857,,,,,,
213360,note_on,,,,,60,0,2,,,0,,,59,36
213360,note_on,,,,,60,0,1,,,0,,,86,36
213440,set_tempo,,,,,140,1,0,269058,,,,,,
213500,set_tempo,,,,,60,1,0,271493,,,,,,
213540,note_off,,,,,180,0,1,,,0,,,86,64
213540,note_off,,,,,180,0,2,,,0,,,59,64
213600,note_on,,,,,60,0,1,,,0,,,86,29
213600,note_on,,,,,60,0,2,,,0,,,59,31
213680,set_tempo,,,,,180,1,0,272727,,,,,,
213780,note_off,,,,,180,0,2,,,0,,,59,64
213780,note_off,,,,,180,0,1,,,0,,,86,64
213820,set_tempo,,,,,140,1,0,271493,,,,,,
213840,note_on,,,,,60,0,2,,,0,,,64,40
213840,note_on,,,,,0,0,2,,,0,,,62,40
213860,set_tempo,,,,,40,1,0,269058,,,,,,
213880,set_tempo,,,,,20,1,0,267857,,,,,,
213940,set_tempo,,,,,60,1,0,266667,,,,,,
214020,note_off,,,,,0,0,2,,,0,,,64,64
214020,note_off,,,,,180,0,2,,,0,,,62,64
214020,set_tempo,,,,,80,1,0,265487,,,,,,
214080,note_on,,,,,60,0,2,,,0,,,59,31
214100,set_tempo,,,,,80,1,0,264317,,,,,,
214120,set_tempo,,,,,20,1,0,263158,,,,,,
214220,set_tempo,,,,,100,1,0,260870,,,,,,
214240,set_tempo,,,,,20,1,0,259740,,,,,,
214260,note_off,,,,,180,0,2,,,0,,,59,64
214320,note_on,,,,,60,0,2,,,0,,,59,24
214340,set_tempo,,,,,100,1,0,258621,,,,,,
214420,set_tempo,,,,,80,1,0,257511,,,,,,
214480,set_tempo,,,,,60,1,0,256410,,,,,,
214500,note_off,,,,,180,0,2,,,0,,,59,64
214520,set_tempo,,,,,40,1,0,255319,,,,,,
214560,note_on,,,,,780,0,1,,,0,,,74,41
214560,note_on,,,,,60,0,2,,,0,,,64,40
214560,note_on,,,,,0,0,2,,,0,,,62,40
214720,set_tempo,,,,,200,1,0,254237,,,,,,
214740,note_off,,,,,180,0,2,,,0,,,62,64
214740,set_tempo,,,,,20,1,0,252101,,,,,,
214740,note_off,,,,,0,0,2,,,0,,,64,64
214800,note_on,,,,,60,0,2,,,0,,,59,31
214800,note_off,,,,,240,0,1,,,0,,,74,64
214800,note_on,,,,,0,0,1,,,0,,,74,31
214860,set_tempo,,,,,120,1,0,251046,,,,,,
214960,set_tempo,,,,,100,1,0,250000,,,,,,
214980,note_off,,,,,180,0,2,,,0,,,59,64
215040,note_on,,,,,60,0,2,,,0,,,59,24
215040,note_off,,,,,240,0,1,,,0,,,74,64
215040,note_on,,,,,0,0,1,,,0,,,74,34
215160,set_tempo,,,,,200,1,0,248963,,,,,,
215220,set_tempo,,,,,60,1,0,247934,,,,,,
215220,note_off,,,,,180,0,2,,,0,,,59,64
215280,note_on,,,,,60,0,2,,,0,,,65,40
215280,note_on,,,,,0,0,1,,,0,,,74,41
215280,note_on,,,,,0,0,2,,,0,,,62,40
215280,note_off,,,,,240,0,1,,,0,,,74,64
215460,note_off,,,,,180,0,2,,,0,,,62,64
215460,note_off,,,,,0,0,2,,,0,,,65,64
215520,note_off,,,,,240,0,1,,,0,,,74,64
215520,note_on,,,,,0,0,1,,,0,,,77,37
215520,note_on,,,,,60,0,2,,,0,,,59,31
215640,note_off,,,,,120,0,1,,,0,,,77,64
215640,note_on,,,,,0,0,1,,,0,,,76,40
215700,note_off,,,,,180,0,2,,,0,,,59,64
215760,note_off,,,,,120,0,1,,,0,,,76,64
215760,note_on,,,,,60,0,2,,,0,,,59,24
215760,note_on,,,,,0,0,1,,,0,,,74,44
215880,note_on,,,,,0,0,1,,,0,,,77,48
215880,note_off,,,,,120,0,1,,,0,,,74,64
215940,note_off,,,,,180,0,2,,,0,,,59,64
216000,note_on,,,,,0,0,1,,,0,,,74,49
216000,note_off,,,,,120,0,1,,,0,,,77,64
216000,note_on,,,,,60,0,2,,,0,,,65,40
216000,note_on,,,,,0,0,2,,,0,,,62,40
216100,set_tempo,,,,,880,1,0,248963,,,,,,
216160,set_tempo,,,,,60,1,0,250000,,,,,,
216180,note_off,,,,,180,0,2,,,0,,,62,64
216180,note_off,,,,,0,0,2,,,0,,,65,64
216180,note_off,,,,,180,0,1,,,0,,,74,64
216200,set_tempo,,,,,40,1,0,251046,,,,,,
216240,note_on,,,,,60,0,1,,,0,,,74,39
216240,note_on,,,,,60,0,2,,,0,,,59,31
216260,set_tempo,,,,,60,1,0,252101,,,,,,
216300,set_tempo,,,,,40,1,0,254237,,,,,,
216420,note_off,,,,,180,0,2,,,0,,,59,64
216420,note_off,,,,,180,0,1,,,0,,,74,64
216460,set_tempo,,,,,160,1,0,255319,,,,,,
216480,note_on,,,,,60,0,2,,,0,,,59,24
216480,set_tempo,,,,,20,1,0,256410,,,,,,
216480,note_on,,,,,60,0,1,,,0,,,74,42
216540,set_tempo,,,,,60,1,0,257511,,,,,,
216580,set_tempo,,,,,40,1,0,258621,,,,,,
216660,note_off,,,,,180,0,1,,,0,,,74,64
216660,note_off,,,,,180,0,2,,,0,,,59,64
216700,set_tempo,,,,,120,1,0,259740,,,,,,
216720,note_on,,,,,0,0,2,,,0,,,62,40
216720,note_on,,,,,60,0,2,,,0,,,65,40
216720,note_on,,,,,60,0,1,,,0,,,86,53
216880,set_tempo,,,,,180,1,0,260870,,,,,,
216900,note_off,,,,,0,0,2,,,0,,,65,64
216900,note_off,,,,,180,0,2,,,0,,,62,64
216900,note_off,,,,,180,0,1,,,0,,,86,64
216960,set_tempo,,,,,80,1,0,263158,,,,,,
216960,note_on,,,,,60,0,1,,,0,,,86,36
216960,note_on,,,,,60,0,2,,,0,,,59,31
217020,set_tempo,,,,,60,1,0,264317,,,,,,
217120,set_tempo,,,,,100,1,0,265487,,,,,,
217140,note_off,,,,,180,0,2,,,0,,,59,64
217140,note_off,,,,,180,0,1,,,0,,,86,64
217160,set_tempo,,,,,40,1,0,266667,,,,,,
217200,note_on,,,,,60,0,2,,,0,,,59,24
217200,note_on,,,,,60,0,1,,,0,,,86,29
217380,note_off,,,,,180,0,1,,,0,,,86,64
217380,note_off,,,,,180,0,2,,,0,,,59,64
217380,set_tempo,,,,,220,1,0,267857,,,,,,
217420,set_tempo,,,,,40,1,0,269058,,,,,,
217440,note_on,,,,,60,0,2,,,0,,,59,29
217440,note_on,,,,,60,0,1,,,0,,,74,48
217440,note_on,,,,,0,0,2,,,0,,,62,29
217500,set_tempo,,,,,80,1,0,272727,,,,,,
217560,note_off,,,,,120,0,2,,,0,,,62,64
217560,note_off,,,,,0,0,2,,,0,,,59,64
217560,note_on,,,,,0,0,2,,,0,,,65,26
217580,set_tempo,,,,,80,1,0,273973,,,,,,
217640,set_tempo,,,,,60,1,0,275229,,,,,,
217680,note_on,,,,,0,0,2,,,0,,,62,29
217680,note_on,,,,,0,0,1,,,0,,,73,41
217680,note_on,,,,,0,0,2,,,0,,,59,29
217680,note_off,,,,,120,0,2,,,0,,,65,64
217680,note_off,,,,,240,0,1,,,0,,,74,64
217700,set_tempo,,,,,60,1,0,276498,,,,,,
217740,set_tempo,,,,,40,1,0,277778,,,,,,
217800,note_on,,,,,0,0,2,,,0,,,65,23
217800,note_off,,,,,120,0,2,,,0,,,62,64
217800,note_off,,,,,0,0,2,,,0,,,59,64
217820,set_tempo,,,,,80,1,0,279070,,,,,,
217880,set_tempo,,,,,60,1,0,281690,,,,,,
217920,note_off,,,,,120,0,2,,,0,,,65,64
217920,note_on,,,,,0,0,2,,,0,,,62,27
217920,note_on,,,,,0,0,2,,,0,,,59,27
217920,note_off,,,,,240,0,1,,,0,,,73,64
217920,note_on,,,,,0,0,1,,,0,,,74,37
217960,set_tempo,,,,,80,1,0,284360,,,,,,
218040,note_off,,,,,0,0,2,,,0,,,59,64
218040,note_off,,,,,120,0,2,,,0,,,62,64
218040,note_on,,,,,0,0,2,,,0,,,65,22
218040,set_tempo,,,,,80,1,0,285714,,,,,,
218080,set_tempo,,,,,40,1,0,287081,,,,,,
218140,set_tempo,,,,,60,1,0,289855,,,,,,
218160,note_off,,,,,240,0,1,,,0,,,74,64
218160,note_on,,,,,0,0,1,,,0,,,86,44
218160,note_on,,,,,0,0,2,,,0,,,62,34
218160,note_on,,,,,0,0,2,,,0,,,58,34
218160,note_off,,,,,120,0,2,,,0,,,65,64
218200,set_tempo,,,,,60,1,0,292683,,,,,,
218220,set_tempo,,,,,20,1,0,294118,,,,,,
218280,set_tempo,,,,,60,1,0,295567,,,,,,
218280,note_off,,,,,0,0,2,,,0,,,58,64
218280,note_off,,,,,120,0,2,,,0,,,62,64
218280,note_on,,,,,0,0,2,,,0,,,65,26
218300,set_tempo,,,,,20,1,0,297030,,,,,,
218400,note_off,,,,,120,0,2,,,0,,,65,64
218400,note_on,,,,,0,0,2,,,0,,,58,29
218400,note_on,,,,,0,0,1,,,0,,,85,39
218400,note_off,,,,,240,0,1,,,0,,,86,64
218400,note_on,,,,,0,0,2,,,0,,,62,29
218440,set_tempo,,,,,140,1,0,300000,,,,,,
218480,set_tempo,,,,,40,1,0,304569,,,,,,
218520,note_off,,,,,0,0,2,,,0,,,62,64
218520,note_on,,,,,0,0,2,,,0,,,65,23
218520,note_off,,,,,120,0,2,,,0,,,58,64
218520,set_tempo,,,,,40,1,0,306122,,,,,,
218600,set_tempo,,,,,80,1,0,309278,,,,,,
218640,set_tempo,,,,,40,1,0,310881,,,,,,
218640,note_on,,,,,0,0,2,,,0,,,62,35
218640,note_on,,,,,0,0,2,,,0,,,58,35
218640,note_off,,,,,120,0,2,,,0,,,65,64
218640,note_off,,,,,240,0,1,,,0,,,85,64
218640,note_on,,,,,0,0,1,,,0,,,86,33
218700,set_tempo,,,,,60,1,0,312500,,,,,,
218760,set_tempo,,,,,60,1,0,315789,,,,,,
218760,note_on,,,,,0,0,2,,,0,,,65,32
218760,note_off,,,,,0,0,2,,,0,,,62,64
218760,note_off,,,,,120,0,2,,,0,,,58,64
218800,set_tempo,,,,,40,1,0,317460,,,,,,
218840,set_tempo,,,,,40,1,0,594059,,,,,,
218880,set_tempo,,,,,40,1,0,434783,,,,,,
218880,note_off,,,,,120,0,2,,,0,,,65,64
218880,note_on,,,,,0,0,2,,,0,,,62,31
218880,note_on,,,,,0,0,2,,,0,,,58,31
218880,note_on,,,,,0,0,1,,,0,,,82,35
218880,note_off,,,,,240,0,1,,,0,,,86,64
218920,set_tempo,,,,,40,1,0,322581,,,,,,
218940,set_tempo,,,,,20,1,0,298507,,,,,,
218960,set_tempo,,,,,20,1,0,295567,,,,,,
218980,set_tempo,,,,,20,1,0,288462,,,,,,
219000,note_off,,,,,120,0,2,,,0,,,58,64
219000,note_on,,,,,0,0,2,,,0,,,65,26
219000,set_tempo,,,,,20,1,0,283019,,,,,,
219000,note_off,,,,,0,0,2,,,0,,,62,64
219020,set_tempo,,,,,20,1,0,279070,,,,,,
219060,set_tempo,,,,,40,1,0,277778,,,,,,
219080,set_tempo,,,,,20,1,0,273973,,,,,,
219100,set_tempo,,,,,20,1,0,271493,,,,,,
219120,note_off,,,,,240,0,1,,,0,,,82,64
219120,note_off,,,,,120,0,2,,,0,,,65,64
219120,note_on,,,,,0,0,2,,,0,,,62,29
219120,note_on,,,,,0,0,2,,,0,,,58,29
219120,note_on,,,,,0,0,1,,,0,,,81,32
219160,set_tempo,,,,,60,1,0,266667,,,,,,
219200,set_tempo,,,,,40,1,0,265487,,,,,,
219220,set_tempo,,,,,20,1,0,264317,,,,,,
219240,note_off,,,,,120,0,1,,,0,,,81,64
219240,set_tempo,,,,,20,1,0,263158,,,,,,
219240,note_off,,,,,0,0,2,,,0,,,62,64
219240,note_off,,,,,120,0,2,,,0,,,58,64
219240,note_on,,,,,0,0,2,,,0,,,65,23
219260,set_tempo,,,,,20,1,0,259740,,,,,,
219300,set_tempo,,,,,40,1,0,258621,,,,,,
219320,set_tempo,,,,,20,1,0,257511,,,,,,
219360,note_off,,,,,120,0,2,,,0,,,65,64
219360,note_on,,,,,0,0,2,,,0,,,62,28
219360,set_tempo,,,,,40,1,0,256410,,,,,,
219360,note_on,,,,,0,0,2,,,0,,,58,28
219360,note_on,,,,,120,0,1,,,0,,,82,35
219400,set_tempo,,,,,40,1,0,255319,,,,,,
219480,note_off,,,,,120,0,2,,,0,,,58,64
219480,note_off,,,,,0,0,2,,,0,,,62,64
219480,note_on,,,,,0,0,2,,,0,,,65,24
219480,set_tempo,,,,,80,1,0,254237,,,,,,
219480,note_off,,,,,120,0,1,,,0,,,82,64
219540,set_tempo,,,,,60,1,0,252101,,,,,,
219600,note_on,,,,,0,0,2,,,0,,,58,32
219600,note_on,,,,,0,0,1,,,0,,,79,40
219600,control_change,,,,,120,0,1,,,0,91,100,,
219600,note_off,,,,,120,0,2,,,0,,,65,64
219600,note_on,,,,,0,0,2,,,0,,,63,32
219660,set_tempo,,,,,120,1,0,251046,,,,,,
219680,set_tempo,,,,,20,1,0,250000,,,,,,
219720,set_tempo,,,,,40,1,0,248963,,,,,,
219720,note_off,,,,,120,0,2,,,0,,,58,64
219720,note_on,,,,,0,0,2,,,0,,,67,25
219720,note_off,,,,,0,0,2,,,0,,,63,64
219800,set_tempo,,,,,80,1,0,247934,,,,,,
219840,note_off,,,,,240,0,1,,,0,,,79,64
219840,note_off,,,,,120,0,2,,,0,,,67,64
219840,note_on,,,,,0,0,2,,,0,,,63,35
219840,note_on,,,,,0,0,2,,,0,,,58,35
219840,note_on,,,,,0,0,1,,,0,,,81,37
219948,note_off,,,,,108,0,1,,,0,,,81,64
219960,note_off,,,,,120,0,2,,,0,,,58,64
219960,note_off,,,,,0,0,2,,,0,,,63,64
219960,note_on,,,,,0,0,2,,,0,,,67,28
219960,note_on,,,,,12,0,1,,,0,,,82,43
220068,note_off,,,,,108,0,1,,,0,,,82,64
220080,note_on,,,,,0,0,2,,,0,,,63,44
220080,note_on,,,,,0,0,2,,,0,,,58,44
220080,note_off,,,,,120,0,2,,,0,,,67,64
220080,note_on,,,,,12,0,1,,,0,,,84,49
220188,note_off,,,,,108,0,1,,,0,,,84,64
220200,note_on,,,,,12,0,1,,,0,,,86,53
220200,note_on,,,,,0,0,2,,,0,,,67,39
220200,note_off,,,,,0,0,2,,,0,,,63,64
220200,note_off,,,,,120,0,2,,,0,,,58,64
220308,note_off,,,,,108,0,1,,,0,,,86,64
220320,note_on,,,,,12,0,1,,,0,,,82,53
220320,note_off,,,,,120,0,2,,,0,,,67,64
220320,note_on,,,,,0,0,2,,,0,,,58,51
220320,note_on,,,,,0,0,2,,,0,,,62,51
220440,note_on,,,,,0,0,2,,,0,,,65,40
220440,note_off,,,,,120,0,2,,,0,,,58,64
220440,note_off,,,,,0,0,2,,,0,,,62,64
220560,note_off,,,,,120,0,2,,,0,,,65,64
220560,note_on,,,,,0,0,2,,,0,,,62,52
220560,note_on,,,,,0,0,2,,,0,,,58,52
220560,note_off,,,,,240,0,1,,,0,,,82,64
220560,note_on,,,,,0,0,1,,,0,,,84,43
220668,note_off,,,,,108,0,1,,,0,,,84,64
220680,note_off,,,,,120,0,2,,,0,,,58,64
220680,note_off,,,,,0,0,2,,,0,,,62,64
220680,note_on,,,,,12,0,1,,,0,,,82,49
220680,note_on,,,,,0,0,2,,,0,,,65,43
220788,note_off,,,,,108,0,1,,,0,,,82,64
220800,note_on,,,,,0,0,2,,,0,,,62,53
220800,note_off,,,,,120,0,2,,,0,,,65,64
220800,note_on,,,,,12,0,1,,,0,,,81,55
220800,note_on,,,,,0,0,2,,,0,,,58,53
220908,note_off,,,,,108,0,1,,,0,,,81,64
220920,note_on,,,,,12,0,1,,,0,,,79,60
220920,note_on,,,,,0,0,2,,,0,,,65,47
220920,note_off,,,,,0,0,2,,,0,,,62,64
220920,note_off,,,,,120,0,2,,,0,,,58,64
221028,note_off,,,,,108,0,1,,,0,,,79,64
221040,note_on,,,,,0,0,2,,,0,,,57,51
221040,note_off,,,,,120,0,2,,,0,,,65,64
221040,note_on,,,,,12,0,1,,,0,,,77,64
221040,note_on,,,,,0,0,2,,,0,,,63,51
221160,note_on,,,,,0,0,2,,,0,,,65,42
221160,note_off,,,,,0,0,2,,,0,,,63,64
221160,note_off,,,,,120,0,2,,,0,,,57,64
221160,note_off,,,,,120,0,1,,,0,,,77,64
221280,note_off,,,,,120,0,2,,,0,,,65,64
221280,note_on,,,,,0,0,2,,,0,,,63,53
221280,note_on,,,,,0,0,2,,,0,,,57,53
221280,note_on,,,,,120,0,1,,,0,,,77,51
221400,note_off,,,,,0,0,2,,,0,,,63,64
221400,note_off,,,,,120,0,1,,,0,,,77,64
221400,note_on,,,,,0,0,2,,,0,,,65,50
221400,note_off,,,,,120,0,2,,,0,,,57,64
221520,note_on,,,,,120,0,1,,,0,,,77,35
221520,note_on,,,,,0,0,2,,,0,,,57,55
221520,note_on,,,,,0,0,2,,,0,,,63,55
221520,note_off,,,,,120,0,2,,,0,,,65,64
221640,note_off,,,,,120,0,1,,,0,,,77,64
221640,note_on,,,,,0,0,2,,,0,,,65,43
221640,note_off,,,,,0,0,2,,,0,,,63,64
221640,note_off,,,,,120,0,2,,,0,,,57,64
221760,note_on,,,,,0,0,2,,,0,,,57,58
221760,note_on,,,,,0,0,2,,,0,,,63,58
221760,note_off,,,,,120,0,2,,,0,,,65,64
221760,note_on,,,,,120,0,1,,,0,,,78,68
221880,note_on,,,,,0,0,2,,,0,,,66,49
221880,note_off,,,,,0,0,2,,,0,,,63,64
221880,note_off,,,,,120,0,2,,,0,,,57,64
221920,control_change,,,,,40,0,2,,,0,91,96,,
222000,note_on,,,,,0,0,2,,,0,,,63,55
222000,note_off,,,,,80,0,2,,,0,,,66,64
222000,note_off,,,,,240,0,1,,,0,,,78,64
222000,note_on,,,,,0,0,2,,,0,,,57,55
222000,note_on,,,,,0,0,1,,,0,,,90,46
222120,note_on,,,,,0,0,2,,,0,,,66,49
222120,note_off,,,,,120,0,2,,,0,,,57,64
222120,note_off,,,,,0,0,2,,,0,,,63,64
222120,note_off,,,,,120,0,1,,,0,,,90,64
222240,note_on,,,,,120,0,1,,,0,,,90,60
222240,note_off,,,,,120,0,2,,,0,,,66,64
222240,note_on,,,,,0,0,2,,,0,,,63,59
222240,note_on,,,,,0,0,2,,,0,,,57,59
222360,note_off,,,,,120,0,2,,,0,,,57,64
222360,note_off,,,,,0,0,2,,,0,,,63,64
222360,note_on,,,,,0,0,2,,,0,,,66,49
222360,note_off,,,,,120,0,1,,,0,,,90,64
222480,note_off,,,,,120,0,2,,,0,,,66,64
222480,note_on,,,,,120,0,1,,,0,,,91,76
222480,note_on,,,,,0,0,2,,,0,,,58,56
222480,note_on,,,,,0,0,2,,,0,,,63,56
222600,note_off,,,,,0,0,2,,,0,,,63,64
222600,note_off,,,,,120,0,2,,,0,,,58,64
222600,note_on,,,,,0,0,2,,,0,,,67,51
222720,note_on,,,,,0,0,2,,,0,,,63,62
222720,note_off,,,,,240,0,1,,,0,,,91,64
222720,note_on,,,,,0,0,2,,,0,,,58,62
222720,note_off,,,,,120,0,2,,,0,,,67,64
222720,note_on,,,,,0,0,1,,,0,,,79,64
222840,note_off,,,,,120,0,2,,,0,,,63,64
222840,note_off,,,,,0,0,2,,,0,,,58,64
222840,note_on,,,,,0,0,2,,,0,,,67,53
222840,note_off,,,,,120,0,1,,,0,,,79,64
222960,note_on,,,,,120,0,1,,,0,,,79,46
222960,note_on,,,,,0,0,2,,,0,,,58,64
222960,note_on,,,,,0,0,2,,,0,,,63,64
222960,note_off,,,,,120,0,2,,,0,,,67,64
223080,note_off,,,,,120,0,1,,,0,,,79,64
223080,note_off,,,,,0,0,2,,,0,,,58,64
223080,note_on,,,,,0,0,2,,,0,,,67,48
223080,note_off,,,,,120,0,2,,,0,,,63,64
223200,note_on,,,,,120,0,1,,,0,,,81,60
223200,note_off,,,,,120,0,2,,,0,,,67,64
223200,note_on,,,,,0,0,2,,,0,,,63,67
223200,note_on,,,,,0,0,2,,,0,,,60,67
223320,note_off,,,,,120,0,1,,,0,,,81,64
223320,note_off,,,,,120,0,2,,,0,,,60,64
223320,note_off,,,,,0,0,2,,,0,,,63,64
223320,note_on,,,,,0,0,2,,,0,,,65,58
223410,note_on,,,,,90,0,1,,,0,,,94,55
223440,note_on,,,,,0,0,2,,,0,,,63,66
223440,note_on,,,,,0,0,2,,,0,,,60,66
223440,note_on,,,,,0,0,1,,,0,,,93,57
223440,note_off,,,,,30,0,1,,,0,,,94,64
223440,note_off,,,,,120,0,2,,,0,,,65,64
223560,note_off,,,,,0,0,2,,,0,,,63,64
223560,note_on,,,,,0,0,1,,,0,,,91,65
223560,note_off,,,,,120,0,1,,,0,,,93,64
223560,note_on,,,,,0,0,2,,,0,,,65,57
223560,note_off,,,,,120,0,2,,,0,,,60,64
223680,note_on,,,,,0,0,1,,,0,,,93,73
223680,note_off,,,,,120,0,1,,,0,,,91,64
223680,note_off,,,,,120,0,2,,,0,,,65,64
223680,note_on,,,,,0,0,2,,,0,,,63,70
223680,note_on,,,,,0,0,2,,,0,,,60,70
223800,note_off,,,,,120,0,2,,,0,,,60,64
223800,note_off,,,,,0,0,2,,,0,,,63,64
223800,note_on,,,,,0,0,2,,,0,,,65,60
223920,note_on,,,,,0,0,2,,,0,,,58,73
223920,note_off,,,,,120,0,2,,,0,,,65,64
223920,note_off,,,,,240,0,1,,,0,,,93,64
223920,note_on,,,,,0,0,1,,,0,,,94,81
223920,note_on,,,,,0,0,2,,,0,,,62,73
224040,note_off,,,,,120,0,2,,,0,,,62,64
224040,note_off,,,,,0,0,2,,,0,,,58,64
224040,note_on,,,,,0,0,2,,,0,,,65,62
224040,note_off,,,,,120,0,1,,,0,,,94,64
224130,note_on,,,,,90,0,1,,,0,,,84,65
224160,note_on,,,,,0,0,2,,,0,,,62,62
224160,note_on,,,,,0,0,2,,,0,,,58,62
224160,note_on,,,,,0,0,1,,,0,,,82,64
224160,note_off,,,,,30,0,1,,,0,,,84,64
224160,note_off,,,,,120,0,2,,,0,,,65,64
224280,note_off,,,,,120,0,1,,,0,,,82,64
224280,note_on,,,,,0,0,1,,,0,,,81,60
224280,note_on,,,,,0,0,2,,,0,,,65,49
224280,note_off,,,,,120,0,2,,,0,,,58,64
224280,note_off,,,,,0,0,2,,,0,,,62,64
224400,note_on,,,,,0,0,2,,,0,,,58,57
224400,note_off,,,,,120,0,1,,,0,,,81,64
224400,note_on,,,,,0,0,1,,,0,,,82,58
224400,note_off,,,,,120,0,2,,,0,,,65,64
224400,note_on,,,,,0,0,2,,,0,,,62,57
224520,note_off,,,,,0,0,2,,,0,,,62,64
224520,note_on,,,,,0,0,2,,,0,,,65,47
224520,note_off,,,,,120,0,2,,,0,,,58,64
224640,note_on,,,,,0,0,1,,,0,,,75,57
224640,note_on,,,,,0,0,2,,,0,,,63,52
224640,note_off,,,,,120,0,2,,,0,,,65,64
224640,note_on,,,,,0,0,1,,,0,,,79,57
224640,note_off,,,,,240,0,1,,,0,,,82,64
224760,note_off,,,,,120,0,1,,,0,,,75,64
224760,note_on,,,,,0,0,1,,,0,,,82,36
224760,note_off,,,,,0,0,1,,,0,,,79,64
224880,note_off,,,,,240,0,2,,,0,,,63,64
224880,note_on,,,,,0,0,2,,,0,,,62,49
224880,note_off,,,,,120,0,1,,,0,,,82,64
224880,note_on,,,,,0,0,1,,,0,,,79,39
224880,note_on,,,,,0,0,1,,,0,,,75,39
225000,note_off,,,,,120,0,2,,,0,,,62,64
225000,note_off,,,,,120,0,1,,,0,,,75,64
225000,note_off,,,,,0,0,1,,,0,,,79,64
225000,note_on,,,,,0,0,1,,,0,,,82,33
225120,note_on,,,,,120,0,2,,,0,,,63,57
225120,note_off,,,,,120,0,1,,,0,,,82,64
225120,note_on,,,,,0,0,1,,,0,,,79,44
225120,note_on,,,,,0,0,1,,,0,,,75,44
225240,note_off,,,,,120,0,2,,,0,,,63,64
225240,note_off,,,,,0,0,1,,,0,,,79,64
225240,note_on,,,,,0,0,1,,,0,,,82,42
225240,note_off,,,,,120,0,1,,,0,,,75,64
225360,control_change,,,,,120,0,2,,,0,91,100,,
225360,note_on,,,,,0,0,2,,,0,,,60,62
225360,note_off,,,,,120,0,1,,,0,,,82,64
225360,note_on,,,,,0,0,1,,,0,,,79,53
225360,note_on,,,,,0,0,1,,,0,,,75,53
225480,note_off,,,,,120,0,1,,,0,,,75,64
225480,note_off,,,,,0,0,1,,,0,,,79,64
225480,note_on,,,,,0,0,1,,,0,,,84,35
225600,note_on,,,,,0,0,1,,,0,,,75,39
225600,note_on,,,,,0,0,1,,,0,,,79,39
225600,note_off,,,,,120,0,1,,,0,,,84,64
225600,note_on,,,,,0,0,2,,,0,,,62,55
225600,note_off,,,,,240,0,2,,,0,,,60,64
225708,note_off,,,,,108,0,2,,,0,,,62,64
225720,note_on,,,,,0,0,1,,,0,,,84,36
225720,note_off,,,,,0,0,1,,,0,,,79,64
225720,note_off,,,,,120,0,1,,,0,,,75,64
225720,note_on,,,,,12,0,2,,,0,,,63,53
225828,note_off,,,,,108,0,2,,,0,,,63,64
225840,note_on,,,,,12,0,2,,,0,,,65,57
225840,note_on,,,,,0,0,1,,,0,,,79,47
225840,note_off,,,,,120,0,1,,,0,,,84,64
225840,note_on,,,,,0,0,1,,,0,,,75,47
225948,note_off,,,,,108,0,2,,,0,,,65,64
225960,note_on,,,,,12,0,2,,,0,,,67,59
225960,note_off,,,,,0,0,1,,,0,,,79,64
225960,note_off,,,,,120,0,1,,,0,,,75,64
225960,note_on,,,,,0,0,1,,,0,,,84,45
226068,note_off,,,,,108,0,2,,,0,,,67,64
226080,note_on,,,,,12,0,2,,,0,,,63,60
226080,note_on,,,,,0,0,1,,,0,,,79,61
226080,note_off,,,,,120,0,1,,,0,,,84,64
226080,note_on,,,,,0,0,1,,,0,,,75,61
226200,note_off,,,,,120,0,1,,,0,,,75,64
226200,note_off,,,,,0,0,1,,,0,,,79,64
226200,note_on,,,,,0,0,1,,,0,,,82,39
226320,note_on,,,,,0,0,1,,,0,,,75,45
226320,note_on,,,,,0,0,2,,,0,,,65,54
226320,note_off,,,,,240,0,2,,,0,,,63,64
226320,note_off,,,,,120,0,1,,,0,,,82,64
226320,note_on,,,,,0,0,1,,,0,,,79,45
226428,note_off,,,,,108,0,2,,,0,,,65,64
226440,note_off,,,,,120,0,1,,,0,,,75,64
226440,note_off,,,,,0,0,1,,,0,,,79,64
226440,note_on,,,,,0,0,1,,,0,,,82,43
226440,note_on,,,,,12,0,2,,,0,,,63,49
226548,note_off,,,,,108,0,2,,,0,,,63,64
226560,note_on,,,,,12,0,2,,,0,,,62,54
226560,note_on,,,,,0,0,1,,,0,,,75,56
226560,note_on,,,,,0,0,1,,,0,,,79,56
226560,note_off,,,,,120,0,1,,,0,,,82,64
226668,note_off,,,,,108,0,2,,,0,,,62,64
226680,note_off,,,,,120,0,1,,,0,,,75,64
226680,note_off,,,,,0,0,1,,,0,,,79,64
226680,note_on,,,,,0,0,1,,,0,,,82,52
226680,note_on,,,,,12,0,2,,,0,,,60,60
226788,note_off,,,,,108,0,2,,,0,,,60,64
226800,note_on,,,,,12,0,2,,,0,,,58,65
226800,note_off,,,,,120,0,1,,,0,,,82,64
226800,note_on,,,,,0,0,1,,,0,,,74,63
226800,note_on,,,,,0,0,1,,,0,,,80,63
226920,note_off,,,,,120,0,2,,,0,,,58,64
226920,note_off,,,,,120,0,1,,,0,,,74,64
226920,note_on,,,,,0,0,1,,,0,,,82,39
226920,note_off,,,,,0,0,1,,,0,,,80,64
227040,note_on,,,,,0,0,1,,,0,,,80,42
227040,note_on,,,,,0,0,1,,,0,,,74,42
227040,note_on,,,,,120,0,2,,,0,,,58,59
227040,note_off,,,,,120,0,1,,,0,,,82,64
227160,note_off,,,,,120,0,1,,,0,,,74,64
227160,note_off,,,,,0,0,1,,,0,,,80,64
227160,note_on,,,,,0,0,1,,,0,,,82,39
227160,note_off,,,,,120,0,2,,,0,,,58,64
227280,note_off,,,,,120,0,1,,,0,,,82,64
227280,note_on,,,,,120,0,2,,,0,,,58,50
227280,note_on,,,,,0,0,1,,,0,,,74,51
227280,note_on,,,,,0,0,1,,,0,,,80,51
227400,note_off,,,,,120,0,2,,,0,,,58,64
227400,note_off,,,,,0,0,1,,,0,,,80,64
227400,note_off,,,,,120,0,1,,,0,,,74,64
227400,note_on,,,,,0,0,1,,,0,,,82,48
227520,note_on,,,,,0,0,1,,,0,,,80,63
227520,note_on,,,,,0,0,1,,,0,,,74,63
227520,note_on,,,,,120,0,2,,,0,,,59,67
227520,note_off,,,,,120,0,1,,,0,,,82,64
227640,note_on,,,,,0,0,1,,,0,,,86,52
227640,note_off,,,,,120,0,1,,,0,,,74,64
227640,note_off,,,,,0,0,1,,,0,,,80,64
227680,control_change,,,,,40,0,1,,,0,91,96,,
227760,note_on,,,,,0,0,1,,,0,,,80,55
227760,note_off,,,,,80,0,1,,,0,,,86,64
227760,note_on,,,,,0,0,1,,,0,,,74,55
227760,note_on,,,,,0,0,2,,,0,,,71,54
227760,note_off,,,,,240,0,2,,,0,,,59,64
227880,note_off,,,,,120,0,2,,,0,,,71,64
227880,note_off,,,,,120,0,1,,,0,,,74,64
227880,note_on,,,,,0,0,1,,,0,,,86,42
227880,note_off,,,,,0,0,1,,,0,,,80,64
228000,note_on,,,,,0,0,1,,,0,,,80,44
228000,note_on,,,,,120,0,2,,,0,,,71,68
228000,note_on,,,,,0,0,1,,,0,,,74,44
228000,note_off,,,,,120,0,1,,,0,,,86,64
228120,note_off,,,,,120,0,2,,,0,,,71,64
228120,note_off,,,,,120,0,1,,,0,,,74,64
228120,note_on,,,,,0,0,1,,,0,,,86,35
228120,note_off,,,,,0,0,1,,,0,,,80,64
228240,note_on,,,,,120,0,2,,,0,,,72,66
228240,note_off,,,,,120,0,1,,,0,,,86,64
228240,note_on,,,,,0,0,1,,,0,,,79,71
228240,note_on,,,,,0,0,1,,,0,,,75,71
228360,note_off,,,,,120,0,1,,,0,,,75,64
228360,note_off,,,,,0,0,1,,,0,,,79,64
228360,note_on,,,,,0,0,1,,,0,,,87,59
228480,note_on,,,,,0,0,1,,,0,,,79,60
228480,note_on,,,,,0,0,1,,,0,,,75,60
228480,note_off,,,,,120,0,1,,,0,,,87,64
228480,note_off,,,,,240,0,2,,,0,,,72,64
228480,note_on,,,,,0,0,2,,,0,,,60,66
228600,note_on,,,,,0,0,1,,,0,,,87,49
228600,note_off,,,,,0,0,1,,,0,,,79,64
228600,note_off,,,,,120,0,2,,,0,,,60,64
228600,note_off,,,,,120,0,1,,,0,,,75,64
228720,note_off,,,,,120,0,1,,,0,,,87,64
228720,note_on,,,,,120,0,2,,,0,,,60,57
228720,note_on,,,,,0,0,1,,,0,,,79,51
228720,note_on,,,,,0,0,1,,,0,,,75,51
228840,note_on,,,,,0,0,1,,,0,,,86,38
228840,note_off,,,,,120,0,2,,,0,,,60,64
228840,note_off,,,,,120,0,1,,,0,,,75,64
228840,note_off,,,,,0,0,1,,,0,,,79,64
228960,note_on,,,,,120,0,2,,,0,,,65,66
228960,note_off,,,,,120,0,1,,,0,,,86,64
228960,note_on,,,,,0,0,1,,,0,,,81,61
228960,note_on,,,,,0,0,1,,,0,,,75,61
229080,note_off,,,,,120,0,1,,,0,,,75,64
229080,note_off,,,,,0,0,1,,,0,,,81,64
229080,note_on,,,,,0,0,1,,,0,,,84,32
229080,note_off,,,,,120,0,2,,,0,,,65,64
229170,note_on,,,,,90,0,2,,,0,,,55,69
229200,note_off,,,,,120,0,1,,,0,,,84,64
229200,note_on,,,,,0,0,1,,,0,,,75,43
229200,note_on,,,,,0,0,1,,,0,,,81,43
229200,note_on,,,,,0,0,2,,,0,,,53,68
229200,note_off,,,,,30,0,2,,,0,,,55,64
229320,note_off,,,,,0,0,1,,,0,,,81,64
229320,note_off,,,,,120,0,1,,,0,,,75,64
229320,note_on,,,,,0,0,1,,,0,,,84,42
229320,note_on,,,,,0,0,2,,,0,,,52,61
229320,note_off,,,,,120,0,2,,,0,,,53,64
229440,note_on,,,,,0,0,2,,,0,,,53,48
229440,note_off,,,,,120,0,2,,,0,,,52,64
229440,note_off,,,,,120,0,1,,,0,,,84,64
229440,note_on,,,,,0,0,1,,,0,,,81,54
229440,note_on,,,,,0,0,1,,,0,,,75,54
229560,note_off,,,,,120,0,1,,,0,,,75,64
229560,note_off,,,,,0,0,1,,,0,,,81,64
229560,note_on,,,,,0,0,1,,,0,,,84,52
229680,note_on,,,,,0,0,1,,,0,,,74,62
229680,note_on,,,,,0,0,2,,,0,,,58,67
229680,note_off,,,,,240,0,2,,,0,,,53,64
229680,note_off,,,,,120,0,1,,,0,,,84,64
229680,note_on,,,,,0,0,1,,,0,,,82,62
229800,note_off,,,,,120,0,2,,,0,,,58,64
229800,note_off,,,,,0,0,1,,,0,,,82,64
229800,note_on,,,,,0,0,1,,,0,,,86,49
229800,note_off,,,,,120,0,1,,,0,,,74,64
229890,note_on,,,,,90,0,2,,,0,,,48,64
229920,note_off,,,,,30,0,2,,,0,,,48,64
229920,note_off,,,,,120,0,1,,,0,,,86,64
229920,note_on,,,,,0,0,2,,,0,,,46,63
229920,note_on,,,,,0,0,1,,,0,,,82,45
229920,note_on,,,,,0,0,1,,,0,,,74,45
230040,note_off,,,,,120,0,2,,,0,,,46,64
230040,note_on,,,,,0,0,2,,,0,,,45,56
230040,note_off,,,,,0,0,1,,,0,,,82,64
230040,note_off,,,,,120,0,1,,,0,,,74,64
230040,note_on,,,,,0,0,1,,,0,,,86,41
230160,note_on,,,,,0,0,1,,,0,,,82,35
230160,note_on,,,,,0,0,1,,,0,,,74,35
230160,note_on,,,,,0,0,2,,,0,,,46,46
230160,note_off,,,,,120,0,2,,,0,,,45,64
230160,note_off,,,,,120,0,1,,,0,,,86,64
230280,note_off,,,,,120,0,1,,,0,,,74,64
230280,note_off,,,,,0,0,1,,,0,,,82,64
230280,note_on,,,,,0,0,1,,,0,,,86,31
230400,note_on,,,,,0,0,2,,,0,,,41,52
230400,note_off,,,,,240,0,2,,,0,,,46,64
230400,note_off,,,,,120,0,1,,,0,,,86,64
230400,note_on,,,,,0,0,1,,,0,,,81,39
230400,note_on,,,,,0,0,1,,,0,,,75,39
230520,note_off,,,,,120,0,1,,,0,,,75,64
230520,note_off,,,,,0,0,1,,,0,,,81,64
230520,note_on,,,,,0,0,1,,,0,,,84,35
230640,note_on,,,,,0,0,1,,,0,,,81,41
230640,note_off,,,,,120,0,1,,,0,,,84,64
230640,note_on,,,,,0,0,1,,,0,,,75,41
230640,note_on,,,,,0,0,2,,,0,,,43,42
230640,note_off,,,,,240,0,2,,,0,,,41,64
230760,note_off,,,,,120,0,1,,,0,,,75,64
230760,note_on,,,,,0,0,1,,,0,,,84,36
230760,note_off,,,,,0,0,1,,,0,,,81,64
230760,note_on,,,,,0,0,2,,,0,,,45,37
230760,note_off,,,,,120,0,2,,,0,,,43,64
230880,note_on,,,,,0,0,2,,,0,,,46,36
230880,note_off,,,,,120,0,2,,,0,,,45,64
230880,note_on,,,,,0,0,1,,,0,,,75,40
230880,note_on,,,,,0,0,1,,,0,,,81,40
230880,note_off,,,,,120,0,1,,,0,,,84,64
231000,note_off,,,,,0,0,1,,,0,,,81,64
231000,note_off,,,,,120,0,1,,,0,,,75,64
231000,note_off,,,,,120,0,2,,,0,,,46,64
231000,note_on,,,,,0,0,2,,,0,,,48,41
231000,note_on,,,,,0,0,1,,,0,,,84,34
231120,note_on,,,,,0,0,1,,,0,,,82,35
231120,note_on,,,,,0,0,1,,,0,,,74,35
231120,note_on,,,,,0,0,2,,,0,,,46,48
231120,note_off,,,,,120,0,2,,,0,,,48,64
231120,note_off,,,,,120,0,1,,,0,,,84,64
231140,set_tempo,,,,,11340,1,0,248963,,,,,,
231240,note_off,,,,,0,0,1,,,0,,,82,64
231240,note_off,,,,,120,0,1,,,0,,,74,64
231240,note_on,,,,,0,0,1,,,0,,,86,35
231300,note_off,,,,,180,0,2,,,0,,,46,64
231360,note_on,,,,,0,0,1,,,0,,,74,38
231360,note_on,,,,,60,0,2,,,0,,,46,37
231360,note_on,,,,,0,0,1,,,0,,,82,38
231360,note_off,,,,,120,0,1,,,0,,,86,64
231480,note_on,,,,,0,0,1,,,0,,,86,36
231480,note_off,,,,,0,0,1,,,0,,,82,64
231480,note_off,,,,,120,0,1,,,0,,,74,64
231540,note_off,,,,,180,0,2,,,0,,,46,64
231560,set_tempo,,,,,420,1,0,250000,,,,,,
231600,note_on,,,,,60,0,2,,,0,,,46,25
231600,note_on,,,,,0,0,1,,,0,,,74,38
231600,note_on,,,,,0,0,1,,,0,,,82,38
231600,note_off,,,,,120,0,1,,,0,,,86,64
231680,set_tempo,,,,,120,1,0,251046,,,,,,
231720,note_on,,,,,0,0,1,,,0,,,86,34
231720,note_off,,,,,0,0,1,,,0,,,82,64
231720,note_off,,,,,120,0,1,,,0,,,74,64
231720,note_off,,,,,120,0,2,,,0,,,46,64
231840,note_on,,,,,120,0,2,,,0,,,53,36
231840,note_on,,,,,0,0,1,,,0,,,81,34
231840,note_on,,,,,0,0,1,,,0,,,75,34
231840,note_off,,,,,120,0,1,,,0,,,86,64
231900,set_tempo,,,,,220,1,0,250000,,,,,,
231940,set_tempo,,,,,40,1,0,251046,,,,,,
231960,note_off,,,,,120,0,1,,,0,,,75,64
231960,set_tempo,,,,,20,1,0,252101,,,,,,
231960,note_on,,,,,0,0,1,,,0,,,84,28
231960,note_off,,,,,0,0,1,,,0,,,81,64
232000,set_tempo,,,,,40,1,0,254237,,,,,,
232020,set_tempo,,,,,20,1,0,255319,,,,,,
232060,set_tempo,,,,,40,1,0,256410,,,,,,
232080,note_on,,,,,0,0,2,,,0,,,55,32
232080,set_tempo,,,,,20,1,0,257511,,,,,,
232080,note_off,,,,,240,0,2,,,0,,,53,64
232080,note_on,,,,,0,0,1,,,0,,,81,31
232080,note_on,,,,,0,0,1,,,0,,,75,31
232080,note_off,,,,,120,0,1,,,0,,,84,64
232120,set_tempo,,,,,40,1,0,258621,,,,,,
232140,set_tempo,,,,,20,1,0,259740,,,,,,
232180,set_tempo,,,,,40,1,0,260870,,,,,,
232200,note_off,,,,,0,0,1,,,0,,,81,64
232200,note_on,,,,,0,0,1,,,0,,,84,29
232200,note_off,,,,,120,0,2,,,0,,,55,64
232200,note_on,,,,,0,0,2,,,0,,,57,27
232200,set_tempo,,,,,20,1,0,263158,,,,,,
232200,note_off,,,,,120,0,1,,,0,,,75,64
232240,set_tempo,,,,,40,1,0,264317,,,,,,
232260,set_tempo,,,,,20,1,0,265487,,,,,,
232300,set_tempo,,,,,40,1,0,266667,,,,,,
232320,set_tempo,,,,,20,1,0,267857,,,,,,
232320,note_on,,,,,0,0,2,,,0,,,58,23
232320,note_off,,,,,120,0,2,,,0,,,57,64
232320,note_off,,,,,120,0,1,,,0,,,84,64
232320,note_on,,,,,0,0,1,,,0,,,81,32
232320,note_on,,,,,0,0,1,,,0,,,75,32
232360,set_tempo,,,,,40,1,0,269058,,,,,,
232380,set_tempo,,,,,20,1,0,271493,,,,,,
232420,set_tempo,,,,,40,1,0,272727,,,,,,
232440,note_on,,,,,0,0,1,,,0,,,84,27
232440,note_off,,,,,120,0,2,,,0,,,58,64
232440,note_on,,,,,0,0,2,,,0,,,60,27
232440,set_tempo,,,,,20,1,0,273973,,,,,,
232440,note_off,,,,,120,0,1,,,0,,,75,64
232440,note_off,,,,,0,0,1,,,0,,,81,64
232480,set_tempo,,,,,40,1,0,275229,,,,,,
232500,set_tempo,,,,,20,1,0,276498,,,,,,
232540,set_tempo,,,,,40,1,0,277778,,,,,,
232560,note_off,,,,,120,0,1,,,0,,,84,64
232560,note_on,,,,,0,0,1,,,0,,,82,30
232560,note_on,,,,,0,0,1,,,0,,,74,30
232560,note_on,,,,,0,0,2,,,0,,,58,31
232560,note_off,,,,,120,0,2,,,0,,,60,64
232560,set_tempo,,,,,20,1,0,279070,,,,,,
232600,set_tempo,,,,,40,1,0,281690,,,,,,
232620,set_tempo,,,,,20,1,0,283019,,,,,,
232640,set_tempo,,,,,20,1,0,284360,,,,,,
232680,set_tempo,,,,,40,1,0,285714,,,,,,
232680,note_off,,,,,0,0,1,,,0,,,82,64
232680,note_off,,,,,120,0,1,,,0,,,74,64
232680,note_on,,,,,0,0,1,,,0,,,86,23
232700,set_tempo,,,,,20,1,0,287081,,,,,,
232740,note_off,,,,,180,0,2,,,0,,,58,64
232740,set_tempo,,,,,40,1,0,288462,,,,,,
232760,set_tempo,,,,,20,1,0,289855,,,,,,
232800,set_tempo,,,,,40,1,0,292683,,,,,,
232800,note_off,,,,,120,0,1,,,0,,,86,64
232800,note_on,,,,,0,0,1,,,0,,,82,30
232800,note_on,,,,,0,0,1,,,0,,,74,30
232800,note_on,,,,,60,0,2,,,0,,,58,26
232820,set_tempo,,,,,20,1,0,294118,,,,,,
232860,set_tempo,,,,,40,1,0,295567,,,,,,
232880,set_tempo,,,,,20,1,0,297030,,,,,,
232920,set_tempo,,,,,40,1,0,298507,,,,,,
232920,note_on,,,,,0,0,1,,,0,,,86,25
232920,note_off,,,,,0,0,1,,,0,,,82,64
232920,note_off,,,,,120,0,1,,,0,,,74,64
232940,set_tempo,,,,,20,1,0,300000,,,,,,
232980,set_tempo,,,,,40,1,0,303030,,,,,,
232980,note_off,,,,,180,0,2,,,0,,,58,64
233000,set_tempo,,,,,20,1,0,304569,,,,,,
233040,note_on,,,,,0,0,1,,,0,,,82,30
233040,set_tempo,,,,,40,1,0,306122,,,,,,
233040,note_on,,,,,0,0,1,,,0,,,74,30
233040,note_on,,,,,60,0,2,,,0,,,58,22
233040,note_off,,,,,120,0,1,,,0,,,86,64
233060,set_tempo,,,,,20,1,0,307692,,,,,,
233100,set_tempo,,,,,40,1,0,309278,,,,,,
233120,set_tempo,,,,,20,1,0,310881,,,,,,
233160,set_tempo,,,,,40,1,0,312500,,,,,,
233160,note_off,,,,,0,0,1,,,0,,,82,64
233160,note_off,,,,,120,0,1,,,0,,,74,64
233160,note_off,,,,,120,0,2,,,0,,,58,64
233160,note_on,,,,,0,0,1,,,0,,,86,23
233180,set_tempo,,,,,20,1,0,315789,,,,,,
233220,set_tempo,,,,,40,1,0,317460,,,,,,
233240,set_tempo,,,,,20,1,0,319149,,,,,,
233280,set_tempo,,,,,40,1,0,320856,,,,,,
233280,note_off,,,,,120,0,1,,,0,,,86,64
233280,note_on,,,,,0,0,1,,,0,,,81,25
233280,note_on,,,,,0,0,1,,,0,,,75,25
233280,note_on,,,,,120,0,2,,,0,,,65,25
233300,set_tempo,,,,,20,1,0,322581,,,,,,
233340,set_tempo,,,,,40,1,0,324324,,,,,,
233360,set_tempo,,,,,20,1,0,326087,,,,,,
233380,set_tempo,,,,,20,1,0,329670,,,,,,
233400,note_off,,,,,0,0,1,,,0,,,81,64
233400,note_on,,,,,0,0,1,,,0,,,84,22
233400,note_off,,,,,120,0,1,,,0,,,75,64
233420,set_tempo,,,,,40,1,0,331492,,,,,,
233440,set_tempo,,,,,20,1,0,333333,,,,,,
233480,set_tempo,,,,,40,1,0,335196,,,,,,
233500,set_tempo,,,,,20,1,0,337079,,,,,,
233520,note_off,,,,,240,0,2,,,0,,,65,64
233520,note_on,,,,,0,0,2,,,0,,,67,19
233520,note_off,,,,,120,0,1,,,0,,,84,64
233520,note_on,,,,,0,0,1,,,0,,,81,24
233520,note_on,,,,,0,0,1,,,0,,,75,24
233540,set_tempo,,,,,40,1,0,338983,,,,,,
233560,set_tempo,,,,,20,1,0,342857,,,,,,
233600,set_tempo,,,,,40,1,0,344828,,,,,,
233620,set_tempo,,,,,20,1,0,346821,,,,,,
233640,note_off,,,,,120,0,2,,,0,,,67,64
233640,note_off,,,,,0,0,1,,,0,,,81,64
233640,note_off,,,,,120,0,1,,,0,,,75,64
233640,note_on,,,,,0,0,2,,,0,,,69,19
233640,note_on,,,,,0,0,1,,,0,,,84,23
233660,set_tempo,,,,,40,1,0,348837,,,,,,
233680,set_tempo,,,,,20,1,0,350877,,,,,,
233720,set_tempo,,,,,40,1,0,352941,,,,,,
233740,set_tempo,,,,,20,1,0,355030,,,,,,
233760,note_on,,,,,0,0,1,,,0,,,75,22
233760,note_on,,,,,0,0,1,,,0,,,81,22
233760,note_off,,,,,120,0,1,,,0,,,84,64
233760,note_on,,,,,0,0,2,,,0,,,70,23
233760,note_off,,,,,120,0,2,,,0,,,69,64
233780,set_tempo,,,,,40,1,0,359281,,,,,,
233800,set_tempo,,,,,20,1,0,361446,,,,,,
233840,set_tempo,,,,,40,1,0,363636,,,,,,
233860,set_tempo,,,,,20,1,0,365854,,,,,,
233880,note_off,,,,,120,0,1,,,0,,,75,64
233880,note_on,,,,,0,0,1,,,0,,,84,22
233880,note_off,,,,,0,0,1,,,0,,,81,64
233880,note_off,,,,,120,0,2,,,0,,,70,64
233880,note_on,,,,,0,0,2,,,0,,,72,24
233900,set_tempo,,,,,40,1,0,368098,,,,,,
233920,set_tempo,,,,,20,1,0,370370,,,,,,
233960,set_tempo,,,,,40,1,0,372671,,,,,,
233980,set_tempo,,,,,20,1,0,377358,,,,,,
234000,note_on,,,,,0,0,1,,,0,,,86,26
234000,note_on,,,,,0,0,2,,,0,,,70,26
234000,note_off,,,,,120,0,2,,,0,,,72,64
234000,note_on,,,,,0,0,1,,,0,,,74,26
234000,note_off,,,,,120,0,1,,,0,,,84,64
234000,note_on,,,,,0,0,1,,,0,,,82,26
234020,set_tempo,,,,,40,1,0,379747,,,,,,
234040,set_tempo,,,,,20,1,0,382166,,,,,,
234080,set_tempo,,,,,40,1,0,384615,,,,,,
234100,set_tempo,,,,,20,1,0,387097,,,,,,
234120,set_tempo,,,,,20,1,0,389610,,,,,,
234160,set_tempo,,,,,40,1,0,394737,,,,,,
234180,set_tempo,,,,,20,1,0,397351,,,,,,
234220,set_tempo,,,,,40,1,0,400000,,,,,,
234240,note_off,,,,,240,0,1,,,0,,,74,64
234240,note_off,,,,,0,0,1,,,0,,,82,64
234240,note_off,,,,,0,0,1,,,0,,,86,64
234240,note_off,,,,,240,0,2,,,0,,,70,64
234240,set_tempo,,,,,20,1,0,402685,,,,,,
234280,set_tempo,,,,,40,1,0,405405,,,,,,
234300,set_tempo,,,,,20,1,0,408163,,,,,,
234340,set_tempo,,,,,40,1,0,410959,,,,,,
234360,set_tempo,,,,,20,1,0,416667,,,,,,
234400,set_tempo,,,,,40,1,0,419580,,,,,,
234420,set_tempo,,,,,20,1,0,422535,,,,,,
234460,set_tempo,,,,,40,1,0,425532,,,,,,
234480,set_tempo,,,,,20,1,0,428571,,,,,,
234520,set_tempo,,,,,40,1,0,431655,,,,,,
234540,set_tempo,,,,,20,1,0,434783,,,,,,
234580,set_tempo,,,,,40,1,0,441176,,,,,,
234600,set_tempo,,,,,20,1,0,444444,,,,,,
234640,set_tempo,,,,,40,1,0,447761,,,,,,
234660,set_tempo,,,,,20,1,0,451128,,,,,,
234700,set_tempo,,,,,40,1,0,454545,,,,,,
234720,note_on,,,,,0,0,1,,,0,,,74,26
234720,note_on,,,,,0,0,1,,,0,,,82,26
234720,note_on,,,,,480,0,1,,,0,,,86,26
234720,note_on,,,,,480,0,2,,,0,,,65,22
234720,set_tempo,,,,,20,1,0,458015,,,,,,
234720,note_on,,,,,0,0,2,,,0,,,70,22
234760,set_tempo,,,,,40,1,0,465116,,,,,,
234780,set_tempo,,,,,20,1,0,468750,,,,,,
234820,set_tempo,,,,,40,1,0,472441,,,,,,
234840,set_tempo,,,,,20,1,0,476190,,,,,,
234840,end_of_track,,,,,0,1,0,,,,,,,
234960,note_off,,,,,0,0,1,,,0,,,86,64
234960,note_off,,,,,0,0,2,,,0,,,65,64
234960,note_off,,,,,240,0,1,,,0,,,74,64
234960,note_off,,,,,0,0,1,,,0,,,82,64
234960,note_off,,,,,240,0,2,,,0,,,70,64
235440,note_on,,,,,480,0,2,,,0,,,62,21
235440,note_on,,,,,0,0,2,,,0,,,65,21
235440,note_on,,,,,0,0,2,,,0,,,70,21
235440,note_on,,,,,0,0,1,,,0,,,74,26
235440,note_on,,,,,0,0,1,,,0,,,82,26
235440,note_on,,,,,480,0,1,,,0,,,86,26
235680,note_off,,,,,240,0,2,,,0,,,70,64
235680,note_off,,,,,0,0,2,,,0,,,65,64
235680,note_off,,,,,0,0,2,,,0,,,62,64
235680,note_off,,,,,0,0,1,,,0,,,82,64
235680,note_off,,,,,240,0,1,,,0,,,74,64
235680,note_off,,,,,0,0,1,,,0,,,86,64
236160,note_on,,,,,480,0,1,,,0,,,86,26
236160,note_on,,,,,0,0,1,,,0,,,74,26
236160,note_on,,,,,0,0,2,,,0,,,58,19
236160,note_on,,,,,0,0,2,,,0,,,65,19
236160,note_on,,,,,480,0,2,,,0,,,70,19
236160,note_on,,,,,0,0,1,,,0,,,82,26
237120,note_off,,,,,960,0,1,,,0,,,74,64
237120,note_off,,,,,0,0,1,,,0,,,82,64
237120,end_of_track,,,,,0,1,2,,,,,,,
237120,note_off,,,,,0,0,2,,,0,,,70,64
237120,note_off,,,,,0,0,2,,,0,,,65,64
237120,note_off,,,,,960,0,2,,,0,,,58,64
237120,end_of_track,,,,,0,1,1,,,,,,,
237120,note_off,,,,,0,0,1,,,0,,,86,64
