tick,type,time,meta,track,numerator,denominator,clocks_per_click,notated_32nd_notes_per_beat,key,tempo,port,program,channel,control,value,note,velocity
0,track_name,0,1,0,,,,,,,,,,,,,
0,program_change,0,0,4,,,,,,,,0,3,,,,
0,track_name,0,1,4,,,,,,,,,,,,,
0,midi_port,0,1,4,,,,,,,0,,,,,,
0,midi_port,0,1,1,,,,,,,0,,,,,,
0,track_name,0,1,1,,,,,,,,,,,,,
0,program_change,0,0,1,,,,,,,,0,0,,,,
0,control_change,0,0,1,,,,,,,,,0,7,127,,
0,control_change,0,0,1,,,,,,,,,0,10,97,,
0,note_on,0,0,1,,,,,,,,,0,,,59,49
0,note_on,0,0,1,,,,,,,,,0,,,71,49
0,track_name,0,1,2,,,,,,,,,,,,,
0,note_on,0,0,3,,,,,,,,,2,,,40,36
0,control_change,0,0,3,,,,,,,,,2,64,127,,
0,control_change,0,0,3,,,,,,,,,2,10,30,,
0,control_change,0,0,3,,,,,,,,,2,7,127,,
0,program_change,0,0,3,,,,,,,,0,2,,,,
0,track_name,0,1,3,,,,,,,,,,,,,
0,midi_port,0,1,3,,,,,,,0,,,,,,
0,control_change,0,0,2,,,,,,,,,1,10,97,,
0,control_change,0,0,2,,,,,,,,,1,7,127,,
0,program_change,0,0,2,,,,,,,,0,1,,,,
0,control_change,0,0,4,,,,,,,,,3,7,127,,
0,control_change,0,0,4,,,,,,,,,3,10,30,,
0,midi_port,0,1,2,,,,,,,0,,,,,,
0,time_signature,0,1,0,2,4,24,8,,,,,,,,,
0,text,0,1,0,,,,,,,,,,,,,
0,copyright,0,1,0,,,,,,,,,,,,,
0,set_tempo,0,1,0,,,,,,833333,,,,,,,
0,key_signature,0,1,0,,,,,E,,,,,,,,
6,note_on,6,0,3,,,,,,,,,2,,,40,0
60,note_on,54,0,3,,,,,,,,,2,,,56,36
60,note_on,0,0,3,,,,,,,,,2,,,59,36
66,note_on,6,0,3,,,,,,,,,2,,,59,0
66,note_on,0,0,3,,,,,,,,,2,,,56,0
120,note_on,54,0,3,,,,,,,,,2,,,44,36
126,note_on,6,0,3,,,,,,,,,2,,,44,0
180,note_on,0,0,1,,,,,,,,,0,,,64,49
180,note_on,0,0,1,,,,,,,,,0,,,76,49
180,note_on,0,0,1,,,,,,,,,0,,,59,0
180,note_on,180,0,1,,,,,,,,,0,,,71,0
180,note_on,0,0,3,,,,,,,,,2,,,59,36
180,control_change,54,0,3,,,,,,,,,2,64,0,,
180,note_on,0,0,3,,,,,,,,,2,,,56,36
186,note_on,0,0,3,,,,,,,,,2,,,56,0
186,note_on,6,0,3,,,,,,,,,2,,,59,0
240,control_change,54,0,3,,,,,,,,,2,64,127,,
240,note_on,0,0,3,,,,,,,,,2,,,47,36
246,note_on,6,0,3,,,,,,,,,2,,,47,0
300,note_on,54,0,3,,,,,,,,,2,,,54,36
300,note_on,0,0,3,,,,,,,,,2,,,57,36
300,note_on,0,0,1,,,,,,,,,0,,,75,49
300,note_on,0,0,1,,,,,,,,,0,,,63,49
300,note_on,0,0,1,,,,,,,,,0,,,64,0
300,note_on,120,0,1,,,,,,,,,0,,,76,0
306,note_on,6,0,3,,,,,,,,,2,,,57,0
306,note_on,0,0,3,,,,,,,,,2,,,54,0
360,note_on,0,0,1,,,,,,,,,0,,,64,49
360,note_on,0,0,1,,,,,,,,,0,,,76,49
360,note_on,60,0,1,,,,,,,,,0,,,75,0
360,note_on,0,0,1,,,,,,,,,0,,,63,0
360,note_on,0,0,3,,,,,,,,,2,,,49,36
360,control_change,54,0,3,,,,,,,,,2,64,0,,
366,note_on,6,0,3,,,,,,,,,2,,,49,0
420,note_on,0,0,3,,,,,,,,,2,,,56,36
420,note_on,54,0,3,,,,,,,,,2,,,52,36
426,note_on,0,0,3,,,,,,,,,2,,,52,0
426,note_on,6,0,3,,,,,,,,,2,,,56,0
480,control_change,54,0,3,,,,,,,,,2,64,127,,
480,note_on,0,0,3,,,,,,,,,2,,,45,36
480,note_on,0,0,1,,,,,,,,,0,,,78,49
480,note_on,0,0,1,,,,,,,,,0,,,66,49
480,note_on,0,0,1,,,,,,,,,0,,,64,0
480,note_on,120,0,1,,,,,,,,,0,,,76,0
486,note_on,6,0,3,,,,,,,,,2,,,45,0
540,note_on,0,0,3,,,,,,,,,2,,,57,36
540,control_change,54,0,3,,,,,,,,,2,64,0,,
540,note_on,0,0,3,,,,,,,,,2,,,61,36
546,note_on,6,0,3,,,,,,,,,2,,,61,0
546,note_on,0,0,3,,,,,,,,,2,,,57,0
600,note_on,0,0,1,,,,,,,,,0,,,80,49
600,note_on,0,0,3,,,,,,,,,2,,,46,36
600,note_on,0,0,1,,,,,,,,,0,,,68,49
600,note_on,0,0,1,,,,,,,,,0,,,66,0
600,control_change,54,0,3,,,,,,,,,2,64,127,,
600,note_on,120,0,1,,,,,,,,,0,,,78,0
606,note_on,6,0,3,,,,,,,,,2,,,46,0
660,control_change,54,0,3,,,,,,,,,2,64,0,,
660,note_on,0,0,3,,,,,,,,,2,,,58,36
660,note_on,0,0,3,,,,,,,,,2,,,61,36
666,note_on,6,0,3,,,,,,,,,2,,,61,0
666,note_on,0,0,3,,,,,,,,,2,,,58,0
690,note_on,90,0,1,,,,,,,,,0,,,80,0
690,note_on,0,0,1,,,,,,,,,0,,,76,49
690,note_on,0,0,1,,,,,,,,,0,,,64,49
690,note_on,0,0,1,,,,,,,,,0,,,68,0
720,note_on,0,0,1,,,,,,,,,0,,,64,0
720,control_change,54,0,3,,,,,,,,,2,64,127,,
720,note_on,0,0,3,,,,,,,,,2,,,47,36
720,note_on,0,0,1,,,,,,,,,0,,,80,49
720,note_on,30,0,1,,,,,,,,,0,,,76,0
720,note_on,0,0,1,,,,,,,,,0,,,68,49
726,note_on,6,0,3,,,,,,,,,2,,,47,0
780,note_on,780,0,4,,,,,,,,,3,,,59,36
780,note_on,54,0,3,,,,,,,,,2,,,64,36
840,control_change,0,0,3,,,,,,,,,2,64,0,,
840,note_on,0,0,3,,,,,,,,,2,,,63,36
840,note_on,0,0,1,,,,,,,,,0,,,78,49
840,note_on,0,0,1,,,,,,,,,0,,,66,49
840,note_on,0,0,1,,,,,,,,,0,,,68,0
840,note_on,120,0,1,,,,,,,,,0,,,80,0
840,note_on,60,0,3,,,,,,,,,2,,,64,0
900,note_on,120,0,4,,,,,,,,,3,,,59,0
900,note_on,0,0,4,,,,,,,,,3,,,57,36
960,control_change,0,0,3,,,,,,,,,2,64,127,,
960,note_on,0,0,3,,,,,,,,,2,,,44,36
960,note_on,120,0,3,,,,,,,,,2,,,63,0
960,note_on,120,0,1,,,,,,,,,0,,,78,0
960,note_on,0,0,1,,,,,,,,,0,,,71,49
960,note_on,0,0,1,,,,,,,,,0,,,59,49
960,note_on,0,0,1,,,,,,,,,0,,,66,0
960,note_on,60,0,4,,,,,,,,,3,,,57,0
966,note_on,6,0,3,,,,,,,,,2,,,44,0
1020,note_on,0,0,3,,,,,,,,,2,,,64,36
1020,note_on,54,0,3,,,,,,,,,2,,,56,36
1026,note_on,6,0,3,,,,,,,,,2,,,64,0
1026,note_on,0,0,3,,,,,,,,,2,,,56,0
1080,note_on,54,0,3,,,,,,,,,2,,,40,36
1086,note_on,6,0,3,,,,,,,,,2,,,40,0
1140,note_on,0,0,1,,,,,,,,,0,,,59,0
1140,note_on,180,0,1,,,,,,,,,0,,,71,0
1140,note_on,0,0,3,,,,,,,,,2,,,59,36
1140,note_on,0,0,1,,,,,,,,,0,,,76,49
1140,control_change,54,0,3,,,,,,,,,2,64,0,,
1140,note_on,0,0,3,,,,,,,,,2,,,56,36
1140,note_on,0,0,1,,,,,,,,,0,,,64,49
1146,note_on,0,0,3,,,,,,,,,2,,,56,0
1146,note_on,6,0,3,,,,,,,,,2,,,59,0
1200,control_change,54,0,3,,,,,,,,,2,64,127,,
1200,note_on,0,0,3,,,,,,,,,2,,,47,36
1206,note_on,6,0,3,,,,,,,,,2,,,47,0
1260,note_on,0,0,1,,,,,,,,,0,,,64,0
1260,note_on,0,0,1,,,,,,,,,0,,,63,49
1260,note_on,0,0,1,,,,,,,,,0,,,75,49
1260,note_on,0,0,3,,,,,,,,,2,,,57,36
1260,note_on,54,0,3,,,,,,,,,2,,,54,36
1260,note_on,120,0,1,,,,,,,,,0,,,76,0
1266,note_on,0,0,3,,,,,,,,,2,,,54,0
1266,note_on,6,0,3,,,,,,,,,2,,,57,0
1320,note_on,0,0,1,,,,,,,,,0,,,64,49
1320,note_on,0,0,3,,,,,,,,,2,,,49,36
1320,control_change,54,0,3,,,,,,,,,2,64,0,,
1320,note_on,0,0,1,,,,,,,,,0,,,63,0
1320,note_on,60,0,1,,,,,,,,,0,,,75,0
1320,note_on,0,0,1,,,,,,,,,0,,,76,49
1326,note_on,6,0,3,,,,,,,,,2,,,49,0
1380,note_on,0,0,3,,,,,,,,,2,,,56,36
1380,note_on,54,0,3,,,,,,,,,2,,,52,36
1386,note_on,0,0,3,,,,,,,,,2,,,52,0
1386,note_on,6,0,3,,,,,,,,,2,,,56,0
1440,control_change,54,0,3,,,,,,,,,2,64,127,,
1440,note_on,0,0,3,,,,,,,,,2,,,45,36
1440,note_on,0,0,1,,,,,,,,,0,,,64,0
1440,note_on,120,0,1,,,,,,,,,0,,,76,0
1440,note_on,0,0,1,,,,,,,,,0,,,78,49
1440,note_on,0,0,1,,,,,,,,,0,,,66,49
1446,note_on,6,0,3,,,,,,,,,2,,,45,0
1500,note_on,0,0,3,,,,,,,,,2,,,61,36
1500,note_on,0,0,3,,,,,,,,,2,,,57,36
1500,control_change,54,0,3,,,,,,,,,2,64,0,,
1506,note_on,0,0,3,,,,,,,,,2,,,57,0
1506,note_on,6,0,3,,,,,,,,,2,,,61,0
1560,note_on,0,0,3,,,,,,,,,2,,,47,36
1560,control_change,54,0,3,,,,,,,,,2,64,127,,
1566,note_on,6,0,3,,,,,,,,,2,,,47,0
1620,note_on,0,0,3,,,,,,,,,2,,,63,36
1620,note_on,0,0,3,,,,,,,,,2,,,59,36
1620,note_on,180,0,1,,,,,,,,,0,,,78,0
1620,note_on,0,0,1,,,,,,,,,0,,,66,0
1620,note_on,0,0,1,,,,,,,,,0,,,68,49
1620,note_on,0,0,1,,,,,,,,,0,,,80,49
1620,control_change,54,0,3,,,,,,,,,2,64,0,,
1626,note_on,6,0,3,,,,,,,,,2,,,63,0
1626,note_on,0,0,3,,,,,,,,,2,,,59,0
1650,note_on,30,0,1,,,,,,,,,0,,,80,0
1650,note_on,0,0,1,,,,,,,,,0,,,68,0
1650,note_on,0,0,1,,,,,,,,,0,,,69,49
1650,note_on,0,0,1,,,,,,,,,0,,,81,49
1680,control_change,54,0,3,,,,,,,,,2,64,127,,
1680,note_on,0,0,3,,,,,,,,,2,,,40,36
1680,note_on,0,0,1,,,,,,,,,0,,,69,49
1680,note_on,30,0,1,,,,,,,,,0,,,81,0
1680,note_on,0,0,1,,,,,,,,,0,,,69,0
1680,note_on,0,0,1,,,,,,,,,0,,,81,49
1686,note_on,6,0,3,,,,,,,,,2,,,40,0
1740,note_on,780,0,4,,,,,,,,,3,,,59,36
1740,note_on,54,0,3,,,,,,,,,2,,,63,36
1800,note_on,60,0,3,,,,,,,,,2,,,63,0
1800,note_on,0,0,1,,,,,,,,,0,,,80,49
1800,note_on,0,0,1,,,,,,,,,0,,,68,49
1800,note_on,0,0,1,,,,,,,,,0,,,69,0
1800,note_on,120,0,1,,,,,,,,,0,,,81,0
1800,note_on,0,0,3,,,,,,,,,2,,,64,36
1860,note_on,120,0,4,,,,,,,,,3,,,59,0
1860,note_on,60,0,3,,,,,,,,,2,,,64,0
1860,control_change,0,0,3,,,,,,,,,2,64,0,,
1860,note_on,0,0,3,,,,,,,,,2,,,52,36
1866,note_on,6,0,3,,,,,,,,,2,,,52,0
1920,note_on,0,0,1,,,,,,,,,0,,,83,62
1920,note_on,0,0,1,,,,,,,,,0,,,68,0
1920,note_on,120,0,1,,,,,,,,,0,,,80,0
1920,control_change,54,0,3,,,,,,,,,2,64,127,,
1920,note_on,0,0,3,,,,,,,,,2,,,44,49
1920,note_on,0,0,1,,,,,,,,,0,,,71,62
1926,note_on,6,0,3,,,,,,,,,2,,,44,0
1980,note_on,0,0,3,,,,,,,,,2,,,56,49
1980,note_on,0,0,3,,,,,,,,,2,,,59,49
1980,control_change,54,0,3,,,,,,,,,2,64,0,,
1986,note_on,0,0,3,,,,,,,,,2,,,56,0
1986,note_on,6,0,3,,,,,,,,,2,,,59,0
2040,control_change,54,0,3,,,,,,,,,2,64,127,,
2040,note_on,0,0,3,,,,,,,,,2,,,37,49
2040,note_on,120,0,1,,,,,,,,,0,,,83,0
2040,note_on,0,0,1,,,,,,,,,0,,,71,0
2040,note_on,0,0,1,,,,,,,,,0,,,73,80
2040,note_on,0,0,1,,,,,,,,,0,,,85,88
2046,note_on,6,0,3,,,,,,,,,2,,,37,0
2100,note_on,0,0,3,,,,,,,,,2,,,59,49
2100,control_change,54,0,3,,,,,,,,,2,64,0,,
2100,note_on,0,0,3,,,,,,,,,2,,,53,49
2100,note_on,0,0,3,,,,,,,,,2,,,61,49
2106,note_on,6,0,3,,,,,,,,,2,,,61,0
2106,note_on,0,0,3,,,,,,,,,2,,,59,0
2106,note_on,0,0,3,,,,,,,,,2,,,53,0
2160,control_change,54,0,3,,,,,,,,,2,64,127,,
2160,note_on,0,0,3,,,,,,,,,2,,,42,49
2160,control_change,0,0,1,,,,,,,,,0,64,127,,
2160,note_on,0,0,1,,,,,,,,,0,,,71,62
2160,note_on,120,0,1,,,,,,,,,0,,,85,0
2160,note_on,0,0,1,,,,,,,,,0,,,83,62
2160,note_on,0,0,1,,,,,,,,,0,,,73,0
2166,note_on,6,0,1,,,,,,,,,0,,,83,0
2166,note_on,0,0,1,,,,,,,,,0,,,71,0
2166,note_on,6,0,3,,,,,,,,,2,,,42,0
2220,note_on,360,0,4,,,,,,,,,3,,,49,49
2220,control_change,54,0,3,,,,,,,,,2,64,0,,
2220,note_on,0,0,3,,,,,,,,,2,,,57,49
2220,note_on,54,0,1,,,,,,,,,0,,,69,62
2220,note_on,0,0,1,,,,,,,,,0,,,81,62
2226,note_on,6,0,1,,,,,,,,,0,,,81,0
2226,note_on,0,0,1,,,,,,,,,0,,,69,0
2280,note_on,0,0,1,,,,,,,,,0,,,66,62
2280,note_on,0,0,4,,,,,,,,,3,,,54,49
2280,control_change,54,0,1,,,,,,,,,0,64,0,,
2280,note_on,0,0,1,,,,,,,,,0,,,78,62
2280,note_on,60,0,4,,,,,,,,,3,,,49,0
2340,note_on,0,0,4,,,,,,,,,3,,,48,49
2340,note_on,60,0,4,,,,,,,,,3,,,54,0
2400,note_on,60,0,4,,,,,,,,,3,,,48,0
2400,note_on,120,0,1,,,,,,,,,0,,,78,0
2400,note_on,180,0,3,,,,,,,,,2,,,57,0
2400,note_on,0,0,1,,,,,,,,,0,,,81,62
2400,note_on,0,0,1,,,,,,,,,0,,,69,62
2400,note_on,0,0,1,,,,,,,,,0,,,66,0
2400,note_on,0,0,3,,,,,,,,,2,,,35,49
2400,control_change,0,0,3,,,,,,,,,2,64,127,,
2406,note_on,6,0,3,,,,,,,,,2,,,35,0
2460,note_on,0,0,3,,,,,,,,,2,,,54,49
2460,note_on,54,0,3,,,,,,,,,2,,,51,49
2460,note_on,0,0,3,,,,,,,,,2,,,59,49
2466,note_on,0,0,3,,,,,,,,,2,,,54,0
2466,note_on,0,0,3,,,,,,,,,2,,,51,0
2466,note_on,6,0,3,,,,,,,,,2,,,59,0
2520,note_on,0,0,1,,,,,,,,,0,,,83,88
2520,note_on,54,0,3,,,,,,,,,2,,,39,49
2520,note_on,0,0,1,,,,,,,,,0,,,69,0
2520,note_on,120,0,1,,,,,,,,,0,,,81,0
2520,note_on,0,0,1,,,,,,,,,0,,,71,80
2526,note_on,6,0,3,,,,,,,,,2,,,39,0
2580,control_change,54,0,3,,,,,,,,,2,64,0,,
2580,note_on,0,0,3,,,,,,,,,2,,,54,49
2580,note_on,0,0,3,,,,,,,,,2,,,57,49
2580,note_on,0,0,3,,,,,,,,,2,,,59,49
2586,note_on,6,0,3,,,,,,,,,2,,,59,0
2586,note_on,0,0,3,,,,,,,,,2,,,57,0
2586,note_on,0,0,3,,,,,,,,,2,,,54,0
2640,control_change,0,0,1,,,,,,,,,0,64,127,,
2640,note_on,0,0,1,,,,,,,,,0,,,76,62
2640,note_on,0,0,1,,,,,,,,,0,,,64,62
2640,note_on,0,0,3,,,,,,,,,2,,,44,49
2640,note_on,120,0,1,,,,,,,,,0,,,83,0
2640,control_change,54,0,3,,,,,,,,,2,64,127,,
2640,note_on,0,0,1,,,,,,,,,0,,,71,0
2646,note_on,6,0,3,,,,,,,,,2,,,44,0
2646,note_on,6,0,1,,,,,,,,,0,,,76,0
2646,note_on,0,0,1,,,,,,,,,0,,,64,0
2700,note_on,0,0,3,,,,,,,,,2,,,59,49
2700,note_on,0,0,1,,,,,,,,,0,,,78,62
2700,note_on,0,0,3,,,,,,,,,2,,,56,49
2700,control_change,54,0,3,,,,,,,,,2,64,0,,
2700,note_on,54,0,1,,,,,,,,,0,,,66,62
2706,note_on,6,0,1,,,,,,,,,0,,,78,0
2706,note_on,0,0,1,,,,,,,,,0,,,66,0
2706,note_on,0,0,3,,,,,,,,,2,,,56,0
2706,note_on,6,0,3,,,,,,,,,2,,,59,0
2760,control_change,54,0,1,,,,,,,,,0,64,0,,
2760,note_on,0,0,1,,,,,,,,,0,,,80,62
2760,note_on,0,0,1,,,,,,,,,0,,,68,62
2760,control_change,54,0,3,,,,,,,,,2,64,127,,
2760,note_on,0,0,3,,,,,,,,,2,,,46,49
2766,note_on,6,0,3,,,,,,,,,2,,,46,0
2820,control_change,54,0,3,,,,,,,,,2,64,0,,
2820,note_on,0,0,3,,,,,,,,,2,,,58,49
2820,note_on,0,0,3,,,,,,,,,2,,,61,49
2826,note_on,6,0,3,,,,,,,,,2,,,61,0
2826,note_on,0,0,3,,,,,,,,,2,,,58,0
2880,note_on,0,0,1,,,,,,,,,0,,,78,62
2880,note_on,0,0,1,,,,,,,,,0,,,66,62
2880,note_on,0,0,1,,,,,,,,,0,,,68,0
2880,note_on,120,0,1,,,,,,,,,0,,,80,0
2880,note_on,0,0,3,,,,,,,,,2,,,45,49
2880,control_change,54,0,3,,,,,,,,,2,64,127,,
2940,note_on,0,0,3,,,,,,,,,2,,,61,49
2940,control_change,0,0,3,,,,,,,,,2,64,0,,
2940,note_on,0,0,3,,,,,,,,,2,,,52,49
2940,note_on,60,0,1,,,,,,,,,0,,,78,0
2940,note_on,0,0,1,,,,,,,,,0,,,66,0
2940,note_on,0,0,1,,,,,,,,,0,,,66,62
2940,note_on,0,0,1,,,,,,,,,0,,,78,62
2940,note_on,0,0,3,,,,,,,,,2,,,54,49
2940,note_on,60,0,3,,,,,,,,,2,,,45,0
2944,note_on,4,0,1,,,,,,,,,0,,,78,0
2944,note_on,0,0,1,,,,,,,,,0,,,66,0
3000,note_on,0,0,3,,,,,,,,,2,,,54,0
3000,note_on,0,0,3,,,,,,,,,2,,,35,49
3000,control_change,0,0,3,,,,,,,,,2,64,127,,
3000,note_on,0,0,3,,,,,,,,,2,,,52,0
3000,control_change,56,0,1,,,,,,,,,0,64,127,,
3000,note_on,60,0,3,,,,,,,,,2,,,61,0
3000,note_on,0,0,1,,,,,,,,,0,,,78,62
3000,note_on,0,0,1,,,,,,,,,0,,,66,62
3060,note_on,60,0,1,,,,,,,,,0,,,78,0
3060,note_on,0,0,1,,,,,,,,,0,,,66,0
3060,note_on,0,0,1,,,,,,,,,0,,,69,62
3060,note_on,0,0,1,,,,,,,,,0,,,81,62
3060,note_on,0,0,3,,,,,,,,,2,,,51,49
3060,note_on,0,0,3,,,,,,,,,2,,,54,49
3060,control_change,0,0,3,,,,,,,,,2,64,0,,
3060,note_on,60,0,3,,,,,,,,,2,,,35,0
3060,note_on,0,0,3,,,,,,,,,2,,,59,49
3105,control_change,0,0,1,,,,,,,,,0,64,0,,
3105,note_on,45,0,1,,,,,,,,,0,,,81,0
3105,note_on,0,0,1,,,,,,,,,0,,,69,0
3105,note_on,0,0,1,,,,,,,,,0,,,68,62
3105,note_on,0,0,1,,,,,,,,,0,,,80,62
3120,note_on,15,0,1,,,,,,,,,0,,,80,0
3120,note_on,0,0,1,,,,,,,,,0,,,80,62
3120,note_on,0,0,3,,,,,,,,,2,,,51,0
3120,note_on,0,0,3,,,,,,,,,2,,,40,49
3120,note_on,0,0,3,,,,,,,,,2,,,54,0
3120,note_on,60,0,3,,,,,,,,,2,,,59,0
3120,note_on,0,0,1,,,,,,,,,0,,,68,0
3120,control_change,0,0,3,,,,,,,,,2,64,127,,
3120,note_on,0,0,1,,,,,,,,,0,,,68,62
3126,note_on,6,0,3,,,,,,,,,2,,,40,0
3180,note_on,0,0,3,,,,,,,,,2,,,59,49
3180,note_on,54,0,3,,,,,,,,,2,,,56,49
3186,note_on,6,0,3,,,,,,,,,2,,,59,0
3186,note_on,0,0,3,,,,,,,,,2,,,56,0
3240,note_on,0,0,1,,,,,,,,,0,,,83,62
3240,note_on,0,0,1,,,,,,,,,0,,,71,62
3240,note_on,0,0,1,,,,,,,,,0,,,68,0
3240,note_on,120,0,1,,,,,,,,,0,,,80,0
3240,note_on,54,0,3,,,,,,,,,2,,,44,49
3246,note_on,6,0,3,,,,,,,,,2,,,44,0
3300,note_on,0,0,3,,,,,,,,,2,,,59,49
3300,note_on,0,0,3,,,,,,,,,2,,,56,49
3300,control_change,54,0,3,,,,,,,,,2,64,0,,
3306,note_on,0,0,3,,,,,,,,,2,,,56,0
3306,note_on,6,0,3,,,,,,,,,2,,,59,0
3360,note_on,0,0,3,,,,,,,,,2,,,45,49
3360,control_change,54,0,3,,,,,,,,,2,64,127,,
3360,note_on,0,0,1,,,,,,,,,0,,,71,0
3360,note_on,0,0,1,,,,,,,,,0,,,66,62
3360,note_on,120,0,1,,,,,,,,,0,,,83,0
3360,note_on,0,0,1,,,,,,,,,0,,,78,62
3360,control_change,0,0,1,,,,,,,,,0,64,127,,
3366,note_on,0,0,1,,,,,,,,,0,,,66,0
3366,note_on,6,0,3,,,,,,,,,2,,,45,0
3366,note_on,6,0,1,,,,,,,,,0,,,78,0
3420,note_on,0,0,3,,,,,,,,,2,,,61,49
3420,note_on,0,0,1,,,,,,,,,0,,,78,62
3420,note_on,0,0,1,,,,,,,,,0,,,66,62
3420,control_change,54,0,1,,,,,,,,,0,64,0,,
3420,control_change,54,0,3,,,,,,,,,2,64,0,,
3420,note_on,0,0,3,,,,,,,,,2,,,52,49
3420,note_on,0,0,3,,,,,,,,,2,,,54,49
3426,note_on,0,0,1,,,,,,,,,0,,,66,0
3426,note_on,6,0,1,,,,,,,,,0,,,78,0
3426,note_on,6,0,3,,,,,,,,,2,,,61,0
3426,note_on,0,0,3,,,,,,,,,2,,,52,0
3426,note_on,0,0,3,,,,,,,,,2,,,54,0
3480,note_on,0,0,3,,,,,,,,,2,,,47,49
3480,control_change,54,0,3,,,,,,,,,2,64,127,,
3480,control_change,54,0,1,,,,,,,,,0,64,127,,
3480,note_on,0,0,1,,,,,,,,,0,,,78,62
3480,note_on,0,0,1,,,,,,,,,0,,,66,62
3486,note_on,6,0,3,,,,,,,,,2,,,47,0
3540,note_on,0,0,1,,,,,,,,,0,,,81,62
3540,note_on,0,0,1,,,,,,,,,0,,,69,62
3540,note_on,0,0,3,,,,,,,,,2,,,51,49
3540,note_on,60,0,1,,,,,,,,,0,,,78,0
3540,control_change,54,0,3,,,,,,,,,2,64,0,,
3540,note_on,0,0,3,,,,,,,,,2,,,57,49
3540,note_on,0,0,1,,,,,,,,,0,,,66,0
3540,note_on,0,0,3,,,,,,,,,2,,,59,49
3546,note_on,0,0,3,,,,,,,,,2,,,51,0
3546,note_on,0,0,3,,,,,,,,,2,,,57,0
3546,note_on,6,0,3,,,,,,,,,2,,,59,0
3585,control_change,0,0,1,,,,,,,,,0,64,0,,
3585,note_on,0,0,1,,,,,,,,,0,,,80,62
3585,note_on,0,0,1,,,,,,,,,0,,,68,62
3585,note_on,0,0,1,,,,,,,,,0,,,69,0
3585,note_on,45,0,1,,,,,,,,,0,,,81,0
3600,note_on,0,0,3,,,,,,,,,2,,,40,49
3600,control_change,54,0,3,,,,,,,,,2,64,127,,
3600,note_on,0,0,1,,,,,,,,,0,,,76,62
3600,note_on,15,0,1,,,,,,,,,0,,,80,0
3600,note_on,0,0,1,,,,,,,,,0,,,68,0
3600,note_on,0,0,1,,,,,,,,,0,,,64,62
3660,note_on,0,0,3,,,,,,,,,2,,,59,49
3660,note_on,1260,0,4,,,,,,,,,3,,,56,49
3660,note_on,60,0,3,,,,,,,,,2,,,40,0
3720,note_on,0,0,1,,,,,,,,,0,,,64,0
3720,note_on,60,0,3,,,,,,,,,2,,,59,0
3720,control_change,0,0,3,,,,,,,,,2,64,0,,
3720,note_on,0,0,3,,,,,,,,,2,,,64,49
3720,note_on,120,0,1,,,,,,,,,0,,,76,0
3780,note_on,120,0,4,,,,,,,,,3,,,56,0
3780,note_on,60,0,3,,,,,,,,,2,,,64,0
3840,control_change,60,0,3,,,,,,,,,2,64,127,,
3840,note_on,0,0,3,,,,,,,,,2,,,44,49
3840,note_on,0,0,1,,,,,,,,,0,,,83,62
3840,note_on,120,0,1,,,,,,,,,0,,,71,62
3846,note_on,6,0,3,,,,,,,,,2,,,44,0
3900,note_on,0,0,3,,,,,,,,,2,,,59,49
3900,note_on,0,0,3,,,,,,,,,2,,,56,49
3900,control_change,54,0,3,,,,,,,,,2,64,0,,
3906,note_on,6,0,3,,,,,,,,,2,,,59,0
3906,note_on,0,0,3,,,,,,,,,2,,,56,0
3960,control_change,54,0,3,,,,,,,,,2,64,127,,
3960,note_on,120,0,1,,,,,,,,,0,,,83,0
3960,note_on,0,0,1,,,,,,,,,0,,,71,0
3960,note_on,0,0,1,,,,,,,,,0,,,73,80
3960,note_on,0,0,1,,,,,,,,,0,,,85,88
3960,note_on,0,0,3,,,,,,,,,2,,,37,49
3966,note_on,6,0,3,,,,,,,,,2,,,37,0
4020,control_change,54,0,3,,,,,,,,,2,64,0,,
4020,note_on,0,0,3,,,,,,,,,2,,,53,49
4020,note_on,0,0,3,,,,,,,,,2,,,59,49
4020,note_on,0,0,3,,,,,,,,,2,,,61,49
4026,note_on,0,0,3,,,,,,,,,2,,,59,0
4026,note_on,0,0,3,,,,,,,,,2,,,53,0
4026,note_on,6,0,3,,,,,,,,,2,,,61,0
4080,note_on,0,0,3,,,,,,,,,2,,,42,49
4080,control_change,0,0,1,,,,,,,,,0,64,127,,
4080,note_on,0,0,1,,,,,,,,,0,,,83,62
4080,note_on,0,0,1,,,,,,,,,0,,,71,62
4080,note_on,0,0,1,,,,,,,,,0,,,73,0
4080,control_change,54,0,3,,,,,,,,,2,64,127,,
4080,note_on,120,0,1,,,,,,,,,0,,,85,0
4086,note_on,6,0,3,,,,,,,,,2,,,42,0
4086,note_on,6,0,1,,,,,,,,,0,,,83,0
4086,note_on,0,0,1,,,,,,,,,0,,,71,0
4140,note_on,0,0,1,,,,,,,,,0,,,81,62
4140,note_on,54,0,1,,,,,,,,,0,,,69,62
4140,control_change,54,0,3,,,,,,,,,2,64,0,,
4140,note_on,0,0,3,,,,,,,,,2,,,57,49
4140,note_on,360,0,4,,,,,,,,,3,,,49,49
4146,note_on,6,0,1,,,,,,,,,0,,,81,0
4146,note_on,0,0,1,,,,,,,,,0,,,69,0
4200,control_change,54,0,1,,,,,,,,,0,64,0,,
4200,note_on,0,0,1,,,,,,,,,0,,,66,62
4200,note_on,0,0,1,,,,,,,,,0,,,78,62
4200,note_on,60,0,4,,,,,,,,,3,,,49,0
4200,note_on,0,0,4,,,,,,,,,3,,,54,49
4260,note_on,0,0,4,,,,,,,,,3,,,48,49
4260,note_on,60,0,4,,,,,,,,,3,,,54,0
4320,control_change,0,0,3,,,,,,,,,2,64,127,,
4320,note_on,60,0,4,,,,,,,,,3,,,48,0
4320,note_on,0,0,1,,,,,,,,,0,,,81,62
4320,note_on,0,0,1,,,,,,,,,0,,,69,62
4320,note_on,0,0,1,,,,,,,,,0,,,66,0
4320,note_on,120,0,1,,,,,,,,,0,,,78,0
4320,note_on,0,0,3,,,,,,,,,2,,,35,49
4320,note_on,180,0,3,,,,,,,,,2,,,57,0
4326,note_on,6,0,3,,,,,,,,,2,,,35,0
4380,note_on,0,0,3,,,,,,,,,2,,,59,49
4380,note_on,0,0,3,,,,,,,,,2,,,54,49
4380,note_on,54,0,3,,,,,,,,,2,,,51,49
4386,note_on,0,0,3,,,,,,,,,2,,,51,0
4386,note_on,0,0,3,,,,,,,,,2,,,54,0
4386,note_on,6,0,3,,,,,,,,,2,,,59,0
4440,note_on,0,0,1,,,,,,,,,0,,,83,88
4440,note_on,120,0,1,,,,,,,,,0,,,81,0
4440,note_on,54,0,3,,,,,,,,,2,,,39,49
4440,note_on,0,0,1,,,,,,,,,0,,,71,80
4440,note_on,0,0,1,,,,,,,,,0,,,69,0
4446,note_on,6,0,3,,,,,,,,,2,,,39,0
4500,note_on,0,0,3,,,,,,,,,2,,,57,49
4500,note_on,0,0,3,,,,,,,,,2,,,54,49
4500,note_on,0,0,3,,,,,,,,,2,,,59,49
4500,control_change,54,0,3,,,,,,,,,2,64,0,,
4506,note_on,0,0,3,,,,,,,,,2,,,54,0
4506,note_on,0,0,3,,,,,,,,,2,,,57,0
4506,note_on,6,0,3,,,,,,,,,2,,,59,0
4560,note_on,0,0,3,,,,,,,,,2,,,44,49
4560,control_change,54,0,3,,,,,,,,,2,64,127,,
4560,control_change,0,0,1,,,,,,,,,0,64,127,,
4560,note_on,120,0,1,,,,,,,,,0,,,83,0
4560,note_on,0,0,1,,,,,,,,,0,,,71,0
4560,note_on,0,0,1,,,,,,,,,0,,,64,62
4560,note_on,0,0,1,,,,,,,,,0,,,76,62
4566,note_on,0,0,1,,,,,,,,,0,,,64,0
4566,note_on,6,0,3,,,,,,,,,2,,,44,0
4566,note_on,6,0,1,,,,,,,,,0,,,76,0
4620,note_on,54,0,1,,,,,,,,,0,,,66,62
4620,note_on,0,0,3,,,,,,,,,2,,,59,49
4620,note_on,0,0,3,,,,,,,,,2,,,56,49
4620,control_change,54,0,3,,,,,,,,,2,64,0,,
4620,note_on,0,0,1,,,,,,,,,0,,,78,62
4626,note_on,0,0,1,,,,,,,,,0,,,66,0
4626,note_on,6,0,1,,,,,,,,,0,,,78,0
4626,note_on,6,0,3,,,,,,,,,2,,,59,0
4626,note_on,0,0,3,,,,,,,,,2,,,56,0
4680,note_on,0,0,1,,,,,,,,,0,,,80,62
4680,note_on,0,0,1,,,,,,,,,0,,,68,62
4680,control_change,54,0,1,,,,,,,,,0,64,0,,
4680,control_change,54,0,3,,,,,,,,,2,64,127,,
4680,note_on,0,0,3,,,,,,,,,2,,,46,49
4686,note_on,6,0,3,,,,,,,,,2,,,46,0
4740,note_on,0,0,3,,,,,,,,,2,,,61,49
4740,note_on,0,0,3,,,,,,,,,2,,,58,49
4740,control_change,54,0,3,,,,,,,,,2,64,0,,
4746,note_on,0,0,3,,,,,,,,,2,,,58,0
4746,note_on,6,0,3,,,,,,,,,2,,,61,0
4800,control_change,54,0,3,,,,,,,,,2,64,127,,
4800,note_on,120,0,1,,,,,,,,,0,,,80,0
4800,note_on,0,0,1,,,,,,,,,0,,,68,0
4800,note_on,0,0,1,,,,,,,,,0,,,66,62
4800,note_on,0,0,1,,,,,,,,,0,,,78,62
4800,note_on,0,0,3,,,,,,,,,2,,,45,49
4860,note_on,0,0,1,,,,,,,,,0,,,66,62
4860,note_on,60,0,1,,,,,,,,,0,,,78,0
4860,note_on,0,0,1,,,,,,,,,0,,,66,0
4860,note_on,0,0,3,,,,,,,,,2,,,61,49
4860,note_on,0,0,3,,,,,,,,,2,,,54,49
4860,note_on,0,0,3,,,,,,,,,2,,,52,49
4860,control_change,0,0,3,,,,,,,,,2,64,0,,
4860,note_on,60,0,3,,,,,,,,,2,,,45,0
4860,note_on,0,0,1,,,,,,,,,0,,,78,62
4864,note_on,0,0,1,,,,,,,,,0,,,66,0
4864,note_on,4,0,1,,,,,,,,,0,,,78,0
4920,note_on,0,0,3,,,,,,,,,2,,,54,0
4920,control_change,56,0,1,,,,,,,,,0,64,127,,
4920,note_on,0,0,3,,,,,,,,,2,,,35,49
4920,note_on,60,0,3,,,,,,,,,2,,,61,0
4920,note_on,0,0,3,,,,,,,,,2,,,52,0
4920,control_change,0,0,3,,,,,,,,,2,64,127,,
4920,note_on,0,0,1,,,,,,,,,0,,,78,62
4920,note_on,0,0,1,,,,,,,,,0,,,66,62
4980,note_on,0,0,3,,,,,,,,,2,,,59,49
4980,note_on,0,0,1,,,,,,,,,0,,,69,62
4980,note_on,0,0,1,,,,,,,,,0,,,66,0
4980,note_on,0,0,3,,,,,,,,,2,,,51,49
4980,control_change,0,0,3,,,,,,,,,2,64,0,,
4980,note_on,60,0,3,,,,,,,,,2,,,35,0
4980,note_on,60,0,1,,,,,,,,,0,,,78,0
4980,note_on,0,0,1,,,,,,,,,0,,,81,62
4980,note_on,0,0,3,,,,,,,,,2,,,54,49
5025,note_on,0,0,1,,,,,,,,,0,,,80,62
5025,note_on,0,0,1,,,,,,,,,0,,,68,62
5025,note_on,0,0,1,,,,,,,,,0,,,69,0
5025,note_on,45,0,1,,,,,,,,,0,,,81,0
5025,control_change,0,0,1,,,,,,,,,0,64,0,,
5040,control_change,0,0,3,,,,,,,,,2,64,127,,
5040,note_on,0,0,3,,,,,,,,,2,,,40,49
5040,note_on,0,0,3,,,,,,,,,2,,,51,0
5040,note_on,0,0,1,,,,,,,,,0,,,68,0
5040,note_on,60,0,3,,,,,,,,,2,,,59,0
5040,note_on,0,0,1,,,,,,,,,0,,,80,62
5040,note_on,0,0,3,,,,,,,,,2,,,54,0
5040,note_on,0,0,1,,,,,,,,,0,,,68,62
5040,note_on,15,0,1,,,,,,,,,0,,,80,0
5046,note_on,6,0,3,,,,,,,,,2,,,40,0
5100,note_on,0,0,3,,,,,,,,,2,,,59,49
5100,note_on,54,0,3,,,,,,,,,2,,,56,49
5106,note_on,6,0,3,,,,,,,,,2,,,59,0
5106,note_on,0,0,3,,,,,,,,,2,,,56,0
5160,note_on,120,0,1,,,,,,,,,0,,,80,0
5160,note_on,54,0,3,,,,,,,,,2,,,44,49
5160,note_on,0,0,1,,,,,,,,,0,,,83,62
5160,note_on,0,0,1,,,,,,,,,0,,,71,62
5160,note_on,0,0,1,,,,,,,,,0,,,68,0
5166,note_on,6,0,3,,,,,,,,,2,,,44,0
5220,note_on,0,0,3,,,,,,,,,2,,,59,49
5220,control_change,54,0,3,,,,,,,,,2,64,0,,
5220,note_on,0,0,3,,,,,,,,,2,,,56,49
5226,note_on,0,0,3,,,,,,,,,2,,,56,0
5226,note_on,6,0,3,,,,,,,,,2,,,59,0
5280,note_on,120,0,1,,,,,,,,,0,,,83,0
5280,note_on,0,0,1,,,,,,,,,0,,,71,0
5280,note_on,0,0,3,,,,,,,,,2,,,45,49
5280,control_change,0,0,1,,,,,,,,,0,64,127,,
5280,note_on,0,0,1,,,,,,,,,0,,,78,62
5280,note_on,0,0,1,,,,,,,,,0,,,66,62
5280,control_change,54,0,3,,,,,,,,,2,64,127,,
5286,note_on,6,0,3,,,,,,,,,2,,,45,0
5286,note_on,0,0,1,,,,,,,,,0,,,66,0
5286,note_on,6,0,1,,,,,,,,,0,,,78,0
5340,control_change,54,0,3,,,,,,,,,2,64,0,,
5340,note_on,0,0,3,,,,,,,,,2,,,61,49
5340,note_on,0,0,3,,,,,,,,,2,,,54,49
5340,note_on,0,0,3,,,,,,,,,2,,,52,49
5340,control_change,54,0,1,,,,,,,,,0,64,0,,
5340,note_on,0,0,1,,,,,,,,,0,,,78,62
5340,note_on,0,0,1,,,,,,,,,0,,,66,62
5346,note_on,0,0,3,,,,,,,,,2,,,54,0
5346,note_on,0,0,3,,,,,,,,,2,,,52,0
5346,note_on,0,0,1,,,,,,,,,0,,,66,0
5346,note_on,6,0,1,,,,,,,,,0,,,78,0
5346,note_on,6,0,3,,,,,,,,,2,,,61,0
5400,note_on,0,0,1,,,,,,,,,0,,,78,62
5400,note_on,0,0,1,,,,,,,,,0,,,66,62
5400,note_on,0,0,3,,,,,,,,,2,,,47,49
5400,control_change,54,0,1,,,,,,,,,0,64,127,,
5400,control_change,54,0,3,,,,,,,,,2,64,127,,
5406,note_on,6,0,3,,,,,,,,,2,,,47,0
5460,note_on,0,0,1,,,,,,,,,0,,,66,0
5460,note_on,0,0,1,,,,,,,,,0,,,69,62
5460,note_on,0,0,1,,,,,,,,,0,,,81,62
5460,note_on,60,0,1,,,,,,,,,0,,,78,0
5460,note_on,0,0,3,,,,,,,,,2,,,59,49
5460,control_change,54,0,3,,,,,,,,,2,64,0,,
5460,note_on,0,0,3,,,,,,,,,2,,,51,49
5460,note_on,0,0,3,,,,,,,,,2,,,57,49
5466,note_on,6,0,3,,,,,,,,,2,,,59,0
5466,note_on,0,0,3,,,,,,,,,2,,,51,0
5466,note_on,0,0,3,,,,,,,,,2,,,57,0
5505,note_on,0,0,1,,,,,,,,,0,,,69,0
5505,note_on,0,0,1,,,,,,,,,0,,,80,62
5505,control_change,0,0,1,,,,,,,,,0,64,0,,
5505,note_on,0,0,1,,,,,,,,,0,,,68,62
5505,note_on,45,0,1,,,,,,,,,0,,,81,0
5520,note_on,0,0,3,,,,,,,,,2,,,40,49
5520,note_on,15,0,1,,,,,,,,,0,,,80,0
5520,note_on,0,0,1,,,,,,,,,0,,,68,0
5520,note_on,0,0,1,,,,,,,,,0,,,64,62
5520,note_on,0,0,1,,,,,,,,,0,,,76,62
5520,control_change,54,0,3,,,,,,,,,2,64,127,,
5580,note_on,60,0,3,,,,,,,,,2,,,40,0
5580,note_on,0,0,3,,,,,,,,,2,,,59,49
5580,note_on,1260,0,4,,,,,,,,,3,,,56,49
5640,note_on,0,0,1,,,,,,,,,0,,,64,0
5640,note_on,0,0,3,,,,,,,,,2,,,64,49
5640,control_change,0,0,3,,,,,,,,,2,64,0,,
5640,note_on,120,0,1,,,,,,,,,0,,,76,0
5640,note_on,60,0,3,,,,,,,,,2,,,59,0
5700,note_on,60,0,3,,,,,,,,,2,,,64,0
5700,note_on,120,0,4,,,,,,,,,3,,,56,0
5760,note_on,60,0,4,,,,,,,,,3,,,48,62
5760,note_on,0,0,4,,,,,,,,,3,,,60,62
5760,note_on,0,0,3,,,,,,,,,2,,,55,75
5760,control_change,60,0,3,,,,,,,,,2,64,127,,
5760,key_signature,5760,1,0,,,,,C,,,,,,,,
5760,control_change,120,0,1,,,,,,,,,0,64,127,,
5760,note_on,0,0,1,,,,,,,,,0,,,64,62
5790,note_on,0,0,1,,,,,,,,,0,,,76,62
5790,note_on,30,0,1,,,,,,,,,0,,,64,0
5820,note_on,30,0,1,,,,,,,,,0,,,76,0
5820,note_on,0,0,1,,,,,,,,,0,,,72,62
5850,note_on,30,0,1,,,,,,,,,0,,,72,0
5850,note_on,0,0,1,,,,,,,,,0,,,67,62
5880,note_on,30,0,1,,,,,,,,,0,,,67,0
5880,note_on,0,0,1,,,,,,,,,0,,,64,62
5910,note_on,30,0,1,,,,,,,,,0,,,64,0
5910,note_on,0,0,1,,,,,,,,,0,,,67,62
5940,note_on,0,0,3,,,,,,,,,2,,,57,75
5940,note_on,180,0,3,,,,,,,,,2,,,55,0
5940,note_on,30,0,1,,,,,,,,,0,,,67,0
5940,note_on,0,0,1,,,,,,,,,0,,,65,62
5970,note_on,30,0,1,,,,,,,,,0,,,65,0
5970,note_on,0,0,1,,,,,,,,,0,,,69,62
6000,note_on,0,0,1,,,,,,,,,0,,,64,49
6000,note_on,0,0,3,,,,,,,,,2,,,55,62
6000,note_on,30,0,1,,,,,,,,,0,,,69,0
6000,note_on,60,0,3,,,,,,,,,2,,,57,0
6030,note_on,0,0,1,,,,,,,,,0,,,67,49
6030,note_on,30,0,1,,,,,,,,,0,,,64,0
6060,note_on,0,0,3,,,,,,,,,2,,,54,62
6060,note_on,30,0,1,,,,,,,,,0,,,67,0
6060,note_on,0,0,1,,,,,,,,,0,,,63,49
6060,note_on,60,0,3,,,,,,,,,2,,,55,0
6090,note_on,0,0,1,,,,,,,,,0,,,66,49
6090,note_on,30,0,1,,,,,,,,,0,,,63,0
6120,note_on,0,0,3,,,,,,,,,2,,,55,62
6120,control_change,0,0,3,,,,,,,,,2,64,0,,
6120,note_on,0,0,1,,,,,,,,,0,,,64,49
6120,note_on,30,0,1,,,,,,,,,0,,,66,0
6120,note_on,60,0,3,,,,,,,,,2,,,54,0
6150,note_on,0,0,1,,,,,,,,,0,,,67,49
6150,control_change,0,0,1,,,,,,,,,0,64,0,,
6150,note_on,30,0,1,,,,,,,,,0,,,64,0
6180,note_on,60,0,3,,,,,,,,,2,,,55,0
6180,note_on,6180,0,2,,,,,,,,,1,,,59,49
6180,note_on,0,0,1,,,,,,,,,0,,,62,49
6180,note_on,30,0,1,,,,,,,,,0,,,67,0
6180,note_on,420,0,4,,,,,,,,,3,,,60,0
6180,note_on,0,0,4,,,,,,,,,3,,,48,0
6180,note_on,0,0,3,,,,,,,,,2,,,53,62
6180,note_on,0,0,3,,,,,,,,,2,,,44,62
6210,note_on,30,0,1,,,,,,,,,0,,,62,0
6210,note_on,0,0,1,,,,,,,,,0,,,65,49
6240,note_on,60,0,2,,,,,,,,,1,,,59,0
6240,note_on,0,0,2,,,,,,,,,1,,,57,49
6240,note_on,60,0,4,,,,,,,,,3,,,45,49
6240,note_on,30,0,1,,,,,,,,,0,,,65,0
6240,note_on,0,0,3,,,,,,,,,2,,,52,62
6240,note_on,60,0,3,,,,,,,,,2,,,53,0
6240,note_on,0,0,3,,,,,,,,,2,,,44,0
6240,control_change,0,0,3,,,,,,,,,2,64,127,,
6240,control_change,0,0,1,,,,,,,,,0,64,127,,
6240,note_on,0,0,1,,,,,,,,,0,,,60,49
6270,note_on,30,0,1,,,,,,,,,0,,,60,0
6270,note_on,0,0,1,,,,,,,,,0,,,64,49
6300,note_on,0,0,3,,,,,,,,,2,,,51,62
6300,note_on,30,0,1,,,,,,,,,0,,,64,0
6300,note_on,0,0,1,,,,,,,,,0,,,59,49
6300,note_on,60,0,3,,,,,,,,,2,,,52,0
6330,note_on,0,0,1,,,,,,,,,0,,,63,49
6330,note_on,30,0,1,,,,,,,,,0,,,59,0
6360,note_on,60,0,3,,,,,,,,,2,,,51,0
6360,note_on,0,0,3,,,,,,,,,2,,,52,62
6360,control_change,0,0,1,,,,,,,,,0,64,0,,
6360,control_change,0,0,3,,,,,,,,,2,64,0,,
6360,note_on,30,0,1,,,,,,,,,0,,,63,0
6360,note_on,0,0,1,,,,,,,,,0,,,60,49
6390,note_on,0,0,1,,,,,,,,,0,,,64,49
6390,note_on,30,0,1,,,,,,,,,0,,,60,0
6420,note_on,0,0,3,,,,,,,,,2,,,40,62
6420,note_on,60,0,3,,,,,,,,,2,,,52,0
6420,note_on,0,0,3,,,,,,,,,2,,,50,62
6420,note_on,180,0,2,,,,,,,,,1,,,57,0
6420,note_on,0,0,2,,,,,,,,,1,,,56,49
6420,note_on,30,0,1,,,,,,,,,0,,,64,0
6420,note_on,0,0,1,,,,,,,,,0,,,59,49
6420,note_on,180,0,4,,,,,,,,,3,,,45,0
6450,note_on,30,0,1,,,,,,,,,0,,,59,0
6450,note_on,0,0,1,,,,,,,,,0,,,62,49
6480,note_on,60,0,3,,,,,,,,,2,,,50,0
6480,note_on,0,0,3,,,,,,,,,2,,,40,0
6480,note_on,0,0,3,,,,,,,,,2,,,48,62
6480,note_on,0,0,3,,,,,,,,,2,,,41,62
6480,note_on,0,0,1,,,,,,,,,0,,,57,49
6480,note_on,30,0,1,,,,,,,,,0,,,62,0
6480,note_on,60,0,2,,,,,,,,,1,,,56,0
6510,note_on,0,0,1,,,,,,,,,0,,,60,49
6510,note_on,30,0,1,,,,,,,,,0,,,57,0
6540,note_on,0,0,3,,,,,,,,,2,,,41,0
6540,note_on,0,0,1,,,,,,,,,0,,,59,49
6540,note_on,30,0,1,,,,,,,,,0,,,60,0
6540,note_on,60,0,3,,,,,,,,,2,,,48,0
6540,note_on,60,0,2,,,,,,,,,1,,,67,49
6540,control_change,0,0,1,,,,,,,,,0,64,127,,
6540,note_on,0,0,3,,,,,,,,,2,,,43,62
6540,note_on,0,0,3,,,,,,,,,2,,,53,62
6570,note_on,0,0,1,,,,,,,,,0,,,62,49
6570,note_on,30,0,1,,,,,,,,,0,,,59,0
6600,note_on,0,0,3,,,,,,,,,2,,,52,62
6600,control_change,0,0,1,,,,,,,,,0,64,0,,
6600,note_on,30,0,1,,,,,,,,,0,,,62,0
6600,note_on,0,0,3,,,,,,,,,2,,,48,62
6600,note_on,0,0,3,,,,,,,,,2,,,43,0
6600,note_on,60,0,3,,,,,,,,,2,,,53,0
6600,note_on,0,0,1,,,,,,,,,0,,,64,49
6600,note_on,0,0,2,,,,,,,,,1,,,67,49
6600,note_on,60,0,2,,,,,,,,,1,,,67,0
6630,note_on,0,0,1,,,,,,,,,0,,,55,49
6630,note_on,30,0,1,,,,,,,,,0,,,64,0
6660,note_on,60,0,2,,,,,,,,,1,,,67,0
6660,note_on,0,0,3,,,,,,,,,2,,,48,0
6660,note_on,30,0,1,,,,,,,,,0,,,55,0
6660,note_on,0,0,1,,,,,,,,,0,,,60,49
6660,note_on,60,0,3,,,,,,,,,2,,,52,0
6690,note_on,30,0,1,,,,,,,,,0,,,60,0
6690,note_on,0,0,1,,,,,,,,,0,,,63,49
6720,note_on,30,0,1,,,,,,,,,0,,,63,0
6720,control_change,0,0,1,,,,,,,,,0,64,127,,
6720,note_on,0,0,1,,,,,,,,,0,,,64,62
6720,note_on,0,0,3,,,,,,,,,2,,,55,75
6720,note_on,300,0,4,,,,,,,,,3,,,48,62
6720,note_on,0,0,4,,,,,,,,,3,,,60,62
6720,control_change,60,0,3,,,,,,,,,2,64,127,,
6750,note_on,0,0,1,,,,,,,,,0,,,76,62
6750,note_on,30,0,1,,,,,,,,,0,,,64,0
6780,note_on,0,0,1,,,,,,,,,0,,,72,62
6780,note_on,30,0,1,,,,,,,,,0,,,76,0
6810,note_on,30,0,1,,,,,,,,,0,,,72,0
6810,note_on,0,0,1,,,,,,,,,0,,,67,62
6840,note_on,0,0,1,,,,,,,,,0,,,64,62
6840,note_on,30,0,1,,,,,,,,,0,,,67,0
6870,note_on,30,0,1,,,,,,,,,0,,,64,0
6870,note_on,0,0,1,,,,,,,,,0,,,67,62
6900,note_on,30,0,1,,,,,,,,,0,,,67,0
6900,note_on,0,0,1,,,,,,,,,0,,,65,62
6900,note_on,0,0,3,,,,,,,,,2,,,57,75
6900,note_on,180,0,3,,,,,,,,,2,,,55,0
6930,note_on,30,0,1,,,,,,,,,0,,,65,0
6930,note_on,0,0,1,,,,,,,,,0,,,69,62
6960,note_on,30,0,1,,,,,,,,,0,,,69,0
6960,note_on,0,0,1,,,,,,,,,0,,,64,49
6960,note_on,60,0,3,,,,,,,,,2,,,57,0
6960,note_on,0,0,3,,,,,,,,,2,,,55,62
6990,note_on,0,0,1,,,,,,,,,0,,,67,49
6990,note_on,30,0,1,,,,,,,,,0,,,64,0
7020,note_on,30,0,1,,,,,,,,,0,,,67,0
7020,note_on,0,0,1,,,,,,,,,0,,,63,49
7020,note_on,60,0,3,,,,,,,,,2,,,55,0
7020,note_on,0,0,3,,,,,,,,,2,,,54,62
7050,note_on,30,0,1,,,,,,,,,0,,,63,0
7050,note_on,0,0,1,,,,,,,,,0,,,66,49
7080,note_on,30,0,1,,,,,,,,,0,,,66,0
7080,note_on,0,0,1,,,,,,,,,0,,,64,49
7080,note_on,0,0,3,,,,,,,,,2,,,55,62
7080,note_on,60,0,3,,,,,,,,,2,,,54,0
7080,control_change,0,0,3,,,,,,,,,2,64,0,,
7110,control_change,0,0,1,,,,,,,,,0,64,0,,
7110,note_on,0,0,1,,,,,,,,,0,,,67,49
7110,note_on,30,0,1,,,,,,,,,0,,,64,0
7140,note_on,60,0,3,,,,,,,,,2,,,55,0
7140,note_on,0,0,3,,,,,,,,,2,,,44,62
7140,note_on,0,0,3,,,,,,,,,2,,,53,62
7140,note_on,0,0,4,,,,,,,,,3,,,48,0
7140,note_on,0,0,1,,,,,,,,,0,,,62,49
7140,note_on,30,0,1,,,,,,,,,0,,,67,0
7140,note_on,420,0,4,,,,,,,,,3,,,60,0
7140,note_on,480,0,2,,,,,,,,,1,,,59,49
7170,note_on,30,0,1,,,,,,,,,0,,,62,0
7170,note_on,0,0,1,,,,,,,,,0,,,65,49
7200,note_on,30,0,1,,,,,,,,,0,,,65,0
7200,control_change,0,0,1,,,,,,,,,0,64,127,,
7200,note_on,0,0,1,,,,,,,,,0,,,60,49
7200,note_on,60,0,2,,,,,,,,,1,,,59,0
7200,note_on,0,0,2,,,,,,,,,1,,,57,49
7200,note_on,0,0,3,,,,,,,,,2,,,44,0
7200,note_on,60,0,3,,,,,,,,,2,,,53,0
7200,note_on,60,0,4,,,,,,,,,3,,,45,49
7200,note_on,0,0,3,,,,,,,,,2,,,52,62
7200,control_change,0,0,3,,,,,,,,,2,64,127,,
7230,note_on,30,0,1,,,,,,,,,0,,,60,0
7230,note_on,0,0,1,,,,,,,,,0,,,64,49
7260,note_on,0,0,1,,,,,,,,,0,,,59,49
7260,note_on,30,0,1,,,,,,,,,0,,,64,0
7260,note_on,60,0,3,,,,,,,,,2,,,52,0
7260,note_on,0,0,3,,,,,,,,,2,,,51,62
7290,note_on,30,0,1,,,,,,,,,0,,,59,0
7290,note_on,0,0,1,,,,,,,,,0,,,63,49
7320,note_on,30,0,1,,,,,,,,,0,,,63,0
7320,control_change,0,0,1,,,,,,,,,0,64,0,,
7320,note_on,0,0,1,,,,,,,,,0,,,60,49
7320,note_on,60,0,3,,,,,,,,,2,,,51,0
7320,control_change,0,0,3,,,,,,,,,2,64,0,,
7320,note_on,0,0,3,,,,,,,,,2,,,52,62
7350,note_on,0,0,1,,,,,,,,,0,,,64,49
7350,note_on,30,0,1,,,,,,,,,0,,,60,0
7380,note_on,0,0,3,,,,,,,,,2,,,40,62
7380,note_on,30,0,1,,,,,,,,,0,,,64,0
7380,note_on,180,0,4,,,,,,,,,3,,,45,0
7380,note_on,60,0,3,,,,,,,,,2,,,52,0
7380,note_on,180,0,2,,,,,,,,,1,,,57,0
7380,note_on,0,0,2,,,,,,,,,1,,,56,49
7380,note_on,0,0,3,,,,,,,,,2,,,50,62
7380,note_on,0,0,1,,,,,,,,,0,,,59,49
7410,note_on,0,0,1,,,,,,,,,0,,,62,49
7410,note_on,30,0,1,,,,,,,,,0,,,59,0
7440,note_on,30,0,1,,,,,,,,,0,,,62,0
7440,note_on,0,0,1,,,,,,,,,0,,,57,49
7440,note_on,60,0,2,,,,,,,,,1,,,56,0
7440,note_on,0,0,3,,,,,,,,,2,,,48,62
7440,note_on,0,0,3,,,,,,,,,2,,,41,62
7440,note_on,0,0,3,,,,,,,,,2,,,40,0
7440,note_on,60,0,3,,,,,,,,,2,,,50,0
7470,note_on,0,0,1,,,,,,,,,0,,,60,49
7470,note_on,30,0,1,,,,,,,,,0,,,57,0
7500,note_on,60,0,2,,,,,,,,,1,,,67,49
7500,control_change,0,0,1,,,,,,,,,0,64,127,,
7500,note_on,30,0,1,,,,,,,,,0,,,60,0
7500,note_on,0,0,3,,,,,,,,,2,,,53,62
7500,note_on,0,0,3,,,,,,,,,2,,,43,62
7500,note_on,0,0,3,,,,,,,,,2,,,41,0
7500,note_on,60,0,3,,,,,,,,,2,,,48,0
7500,note_on,0,0,1,,,,,,,,,0,,,59,49
7530,note_on,30,0,1,,,,,,,,,0,,,59,0
7530,note_on,0,0,1,,,,,,,,,0,,,62,49
7560,note_on,30,0,1,,,,,,,,,0,,,62,0
7560,control_change,0,0,1,,,,,,,,,0,64,0,,
7560,note_on,0,0,1,,,,,,,,,0,,,64,49
7560,note_on,60,0,2,,,,,,,,,1,,,67,0
7560,note_on,0,0,3,,,,,,,,,2,,,52,62
7560,note_on,60,0,3,,,,,,,,,2,,,53,0
7560,note_on,0,0,3,,,,,,,,,2,,,43,0
7560,note_on,0,0,3,,,,,,,,,2,,,48,62
7560,note_on,0,0,2,,,,,,,,,1,,,67,49
7590,note_on,30,0,1,,,,,,,,,0,,,64,0
7590,note_on,0,0,1,,,,,,,,,0,,,55,49
7620,note_on,0,0,3,,,,,,,,,2,,,48,0
7620,note_on,60,0,3,,,,,,,,,2,,,52,0
7620,note_on,60,0,2,,,,,,,,,1,,,67,0
7620,note_on,30,0,1,,,,,,,,,0,,,55,0
7620,note_on,0,0,1,,,,,,,,,0,,,60,49
7650,note_on,30,0,1,,,,,,,,,0,,,60,0
7650,note_on,0,0,1,,,,,,,,,0,,,63,49
7680,note_on,60,0,3,,,,,,,,,2,,,48,75
7680,note_on,0,0,3,,,,,,,,,2,,,60,75
7680,note_on,0,0,3,,,,,,,,,2,,,55,75
7680,note_on,0,0,1,,,,,,,,,0,,,64,88
7680,control_change,0,0,1,,,,,,,,,0,64,127,,
7680,note_on,30,0,1,,,,,,,,,0,,,63,0
7710,note_on,0,0,1,,,,,,,,,0,,,67,88
7710,note_on,30,0,1,,,,,,,,,0,,,64,0
7740,note_on,30,0,1,,,,,,,,,0,,,67,0
7740,note_on,0,0,1,,,,,,,,,0,,,72,88
7770,note_on,30,0,1,,,,,,,,,0,,,72,0
7770,note_on,0,0,1,,,,,,,,,0,,,75,88
7800,note_on,30,0,1,,,,,,,,,0,,,75,0
7800,note_on,0,0,1,,,,,,,,,0,,,76,88
7830,note_on,30,0,1,,,,,,,,,0,,,76,0
7830,note_on,0,0,1,,,,,,,,,0,,,79,88
7860,note_on,0,0,1,,,,,,,,,0,,,84,88
7860,note_on,30,0,1,,,,,,,,,0,,,79,0
7890,note_on,0,0,1,,,,,,,,,0,,,88,88
7890,control_change,0,0,1,,,,,,,,,0,64,0,,
7890,note_on,30,0,1,,,,,,,,,0,,,84,0
7920,note_on,0,0,1,,,,,,,,,0,,,86,75
7920,note_on,0,0,1,,,,,,,,,0,,,79,75
7920,note_on,0,0,1,,,,,,,,,0,,,74,75
7920,note_on,30,0,1,,,,,,,,,0,,,88,0
7920,note_on,240,0,3,,,,,,,,,2,,,60,0
7920,note_on,0,0,3,,,,,,,,,2,,,47,88
7920,note_on,0,0,3,,,,,,,,,2,,,55,0
7920,note_on,0,0,3,,,,,,,,,2,,,48,0
7920,control_change,0,0,3,,,,,,,,,2,64,127,,
7950,note_on,30,0,3,,,,,,,,,2,,,47,0
7950,note_on,0,0,3,,,,,,,,,2,,,50,88
7980,note_on,0,0,3,,,,,,,,,2,,,55,88
7980,note_on,30,0,3,,,,,,,,,2,,,50,0
8010,note_on,30,0,3,,,,,,,,,2,,,55,0
8010,note_on,0,0,3,,,,,,,,,2,,,59,88
8040,note_on,0,0,3,,,,,,,,,2,,,62,88
8040,note_on,30,0,3,,,,,,,,,2,,,59,0
8070,note_on,0,0,3,,,,,,,,,2,,,67,88
8070,note_on,30,0,3,,,,,,,,,2,,,62,0
8100,note_on,0,0,3,,,,,,,,,2,,,70,88
8100,note_on,30,0,3,,,,,,,,,2,,,67,0
8130,control_change,0,0,3,,,,,,,,,2,64,0,,
8130,note_on,0,0,3,,,,,,,,,2,,,71,88
8130,note_on,30,0,3,,,,,,,,,2,,,70,0
8160,note_on,0,0,2,,,,,,,,,1,,,78,49
8160,control_change,540,0,2,,,,,,,,,1,64,127,,
8160,note_on,780,0,4,,,,,,,,,3,,,62,36
8160,control_change,0,0,1,,,,,,,,,0,64,127,,
8160,note_on,0,0,1,,,,,,,,,0,,,86,36
8160,note_on,240,0,1,,,,,,,,,0,,,86,0
8160,note_on,0,0,1,,,,,,,,,0,,,79,0
8160,note_on,0,0,3,,,,,,,,,2,,,69,49
8160,note_on,30,0,3,,,,,,,,,2,,,71,0
8160,note_on,0,0,1,,,,,,,,,0,,,74,0
8160,control_change,0,0,3,,,,,,,,,2,64,127,,
8190,note_on,30,0,1,,,,,,,,,0,,,86,0
8190,note_on,0,0,1,,,,,,,,,0,,,84,36
8220,note_on,30,0,1,,,,,,,,,0,,,84,0
8220,note_on,0,0,1,,,,,,,,,0,,,84,36
8220,note_on,60,0,2,,,,,,,,,1,,,78,0
8220,note_on,0,0,2,,,,,,,,,1,,,79,49
8220,note_on,60,0,3,,,,,,,,,2,,,69,0
8220,note_on,0,0,3,,,,,,,,,2,,,71,49
8250,note_on,30,0,1,,,,,,,,,0,,,84,0
8250,note_on,0,0,1,,,,,,,,,0,,,83,36
8280,note_on,0,0,2,,,,,,,,,1,,,76,49
8280,control_change,0,0,2,,,,,,,,,1,64,0,,
8280,note_on,60,0,2,,,,,,,,,1,,,79,0
8280,note_on,60,0,3,,,,,,,,,2,,,71,0
8280,note_on,0,0,3,,,,,,,,,2,,,72,49
8280,note_on,0,0,1,,,,,,,,,0,,,83,36
8280,note_on,30,0,1,,,,,,,,,0,,,83,0
8310,note_on,0,0,1,,,,,,,,,0,,,81,36
8310,note_on,30,0,1,,,,,,,,,0,,,83,0
8340,note_on,0,0,3,,,,,,,,,2,,,73,49
8340,note_on,30,0,1,,,,,,,,,0,,,81,0
8340,note_on,0,0,1,,,,,,,,,0,,,81,36
8340,control_change,0,0,1,,,,,,,,,0,64,0,,
8340,control_change,0,0,3,,,,,,,,,2,64,0,,
8340,note_on,60,0,3,,,,,,,,,2,,,72,0
8370,note_on,0,0,1,,,,,,,,,0,,,79,36
8370,note_on,30,0,1,,,,,,,,,0,,,81,0
8400,note_on,60,0,3,,,,,,,,,2,,,73,0
8400,control_change,0,0,2,,,,,,,,,1,64,127,,
8400,note_on,30,0,1,,,,,,,,,0,,,79,0
8400,note_on,120,0,2,,,,,,,,,1,,,76,0
8400,note_on,0,0,1,,,,,,,,,0,,,79,36
8400,note_on,0,0,2,,,,,,,,,1,,,74,49
8400,control_change,0,0,1,,,,,,,,,0,64,127,,
8430,note_on,30,0,1,,,,,,,,,0,,,79,0
8430,note_on,0,0,1,,,,,,,,,0,,,78,36
8460,note_on,30,0,1,,,,,,,,,0,,,78,0
8460,note_on,0,0,1,,,,,,,,,0,,,78,36
8460,note_on,60,0,2,,,,,,,,,1,,,74,0
8460,note_on,0,0,2,,,,,,,,,1,,,67,49
8460,note_on,0,0,2,,,,,,,,,1,,,71,49
8490,note_on,30,0,1,,,,,,,,,0,,,78,0
8490,note_on,0,0,1,,,,,,,,,0,,,76,36
8520,note_on,60,0,2,,,,,,,,,1,,,71,0
8520,note_on,0,0,2,,,,,,,,,1,,,69,49
8520,note_on,0,0,2,,,,,,,,,1,,,67,0
8520,note_on,0,0,1,,,,,,,,,0,,,76,36
8520,note_on,30,0,1,,,,,,,,,0,,,76,0
8520,note_on,0,0,2,,,,,,,,,1,,,66,49
8550,note_on,0,0,1,,,,,,,,,0,,,74,36
8550,note_on,30,0,1,,,,,,,,,0,,,76,0
8580,note_on,60,0,2,,,,,,,,,1,,,69,0
8580,note_on,0,0,2,,,,,,,,,1,,,66,0
8580,control_change,0,0,2,,,,,,,,,1,64,0,,
8580,note_on,0,0,2,,,,,,,,,1,,,62,49
8580,note_on,0,0,2,,,,,,,,,1,,,66,49
8580,note_on,0,0,1,,,,,,,,,0,,,74,36
8580,note_on,30,0,1,,,,,,,,,0,,,74,0
8610,control_change,0,0,1,,,,,,,,,0,64,0,,
8610,note_on,0,0,1,,,,,,,,,0,,,72,36
8610,note_on,30,0,1,,,,,,,,,0,,,74,0
8640,note_on,480,0,4,,,,,,,,,3,,,62,0
8640,note_on,0,0,3,,,,,,,,,2,,,62,36
8640,note_on,0,0,1,,,,,,,,,0,,,65,36
8640,note_on,30,0,1,,,,,,,,,0,,,72,0
8640,note_on,0,0,2,,,,,,,,,1,,,62,0
8640,note_on,60,0,2,,,,,,,,,1,,,66,0
8640,control_change,0,0,1,,,,,,,,,0,64,127,,
8640,note_on,240,0,3,,,,,,,,,2,,,56,36
8670,note_on,30,0,1,,,,,,,,,0,,,65,0
8670,note_on,0,0,1,,,,,,,,,0,,,77,36
8700,note_on,30,0,1,,,,,,,,,0,,,77,0
8700,note_on,0,0,1,,,,,,,,,0,,,74,36
8730,note_on,0,0,1,,,,,,,,,0,,,71,36
8730,note_on,30,0,1,,,,,,,,,0,,,74,0
8760,note_on,120,0,3,,,,,,,,,2,,,62,0
8760,note_on,0,0,3,,,,,,,,,2,,,60,36
8760,control_change,0,0,1,,,,,,,,,0,64,0,,
8760,note_on,0,0,3,,,,,,,,,2,,,56,0
8760,note_on,0,0,3,,,,,,,,,2,,,57,36
8760,note_on,30,0,1,,,,,,,,,0,,,71,0
8760,note_on,0,0,1,,,,,,,,,0,,,64,36
8790,note_on,30,0,1,,,,,,,,,0,,,64,0
8790,note_on,0,0,1,,,,,,,,,0,,,76,36
8820,note_on,0,0,1,,,,,,,,,0,,,72,36
8820,note_on,30,0,1,,,,,,,,,0,,,76,0
8850,note_on,0,0,1,,,,,,,,,0,,,69,36
8850,note_on,30,0,1,,,,,,,,,0,,,72,0
8880,note_on,120,0,3,,,,,,,,,2,,,60,0
8880,note_on,0,0,1,,,,,,,,,0,,,63,36
8880,control_change,0,0,1,,,,,,,,,0,64,127,,
8880,note_on,0,0,3,,,,,,,,,2,,,57,0
8880,note_on,0,0,3,,,,,,,,,2,,,54,36
8880,note_on,30,0,1,,,,,,,,,0,,,69,0
8880,note_on,0,0,3,,,,,,,,,2,,,60,36
8910,note_on,0,0,1,,,,,,,,,0,,,75,36
8910,note_on,30,0,1,,,,,,,,,0,,,63,0
8940,note_on,0,0,1,,,,,,,,,0,,,72,36
8940,note_on,30,0,1,,,,,,,,,0,,,75,0
8970,note_on,30,0,1,,,,,,,,,0,,,72,0
8970,note_on,0,0,1,,,,,,,,,0,,,69,36
9000,note_on,120,0,3,,,,,,,,,2,,,60,0
9000,note_on,0,0,3,,,,,,,,,2,,,54,0
9000,note_on,0,0,3,,,,,,,,,2,,,55,36
9000,note_on,0,0,3,,,,,,,,,2,,,59,36
9000,note_on,30,0,1,,,,,,,,,0,,,69,0
9000,note_on,0,0,1,,,,,,,,,0,,,62,36
9000,control_change,0,0,1,,,,,,,,,0,64,0,,
9030,note_on,0,0,1,,,,,,,,,0,,,74,36
9030,note_on,30,0,1,,,,,,,,,0,,,62,0
9060,note_on,30,0,1,,,,,,,,,0,,,74,0
9060,note_on,0,0,1,,,,,,,,,0,,,71,36
9090,note_on,30,0,1,,,,,,,,,0,,,71,0
9090,note_on,0,0,1,,,,,,,,,0,,,67,36
9120,note_on,0,0,3,,,,,,,,,2,,,48,36
9120,note_on,0,0,1,,,,,,,,,0,,,64,36
9120,note_on,0,0,3,,,,,,,,,2,,,55,0
9120,note_on,120,0,3,,,,,,,,,2,,,59,0
9120,note_on,30,0,1,,,,,,,,,0,,,67,0
9120,note_on,0,0,3,,,,,,,,,2,,,57,36
9120,control_change,0,0,1,,,,,,,,,0,64,127,,
9150,note_on,0,0,1,,,,,,,,,0,,,72,36
9150,note_on,30,0,1,,,,,,,,,0,,,64,0
9180,note_on,0,0,1,,,,,,,,,0,,,69,36
9180,note_on,30,0,1,,,,,,,,,0,,,72,0
9210,note_on,30,0,1,,,,,,,,,0,,,69,0
9210,control_change,0,0,1,,,,,,,,,0,64,0,,
9210,note_on,0,0,1,,,,,,,,,0,,,63,36
9240,note_on,30,0,1,,,,,,,,,0,,,63,0
9240,note_on,0,0,1,,,,,,,,,0,,,60,36
9240,note_on,0,0,3,,,,,,,,,2,,,48,0
9240,note_on,120,0,3,,,,,,,,,2,,,57,0
9240,note_on,0,0,3,,,,,,,,,2,,,54,36
9240,note_on,0,0,3,,,,,,,,,2,,,50,36
9270,note_on,0,0,1,,,,,,,,,0,,,69,36
9270,note_on,30,0,1,,,,,,,,,0,,,60,0
9300,note_on,30,0,1,,,,,,,,,0,,,69,0
9300,note_on,0,0,1,,,,,,,,,0,,,66,36
9330,note_on,30,0,1,,,,,,,,,0,,,66,0
9330,note_on,0,0,1,,,,,,,,,0,,,62,36
9360,note_on,30,0,1,,,,,,,,,0,,,62,0
9360,note_on,0,0,1,,,,,,,,,0,,,59,36
9360,note_on,0,0,1,,,,,,,,,0,,,67,36
9360,note_on,120,0,3,,,,,,,,,2,,,54,0
9360,note_on,0,0,3,,,,,,,,,2,,,50,0
9360,control_change,0,0,3,,,,,,,,,2,64,127,,
9360,note_on,0,0,3,,,,,,,,,2,,,43,36
9390,note_on,30,0,3,,,,,,,,,2,,,43,0
9390,note_on,0,0,3,,,,,,,,,2,,,62,36
9420,note_on,30,0,3,,,,,,,,,2,,,62,0
9420,note_on,0,0,3,,,,,,,,,2,,,59,36
9450,note_on,0,0,3,,,,,,,,,2,,,55,36
9450,note_on,30,0,3,,,,,,,,,2,,,59,0
9480,note_on,30,0,3,,,,,,,,,2,,,55,0
9480,note_on,0,0,3,,,,,,,,,2,,,54,49
9510,note_on,0,0,3,,,,,,,,,2,,,53,49
9510,note_on,30,0,3,,,,,,,,,2,,,54,0
9540,note_on,30,0,3,,,,,,,,,2,,,53,0
9540,note_on,0,0,3,,,,,,,,,2,,,50,49
9570,note_on,30,0,3,,,,,,,,,2,,,50,0
9570,control_change,0,0,3,,,,,,,,,2,64,0,,
9570,note_on,0,0,3,,,,,,,,,2,,,47,49
9600,note_on,0,0,1,,,,,,,,,0,,,71,62
9600,control_change,0,0,3,,,,,,,,,2,64,127,,
9600,note_on,30,0,3,,,,,,,,,2,,,47,0
9600,note_on,240,0,1,,,,,,,,,0,,,67,0
9600,note_on,0,0,1,,,,,,,,,0,,,67,62
9600,note_on,0,0,1,,,,,,,,,0,,,59,0
9600,note_on,0,0,1,,,,,,,,,0,,,65,62
9600,note_on,0,0,3,,,,,,,,,2,,,43,62
9630,note_on,30,0,3,,,,,,,,,2,,,43,0
9630,note_on,0,0,3,,,,,,,,,2,,,62,62
9660,note_on,30,0,3,,,,,,,,,2,,,62,0
9660,note_on,0,0,3,,,,,,,,,2,,,59,62
9690,note_on,30,0,3,,,,,,,,,2,,,59,0
9690,note_on,0,0,3,,,,,,,,,2,,,55,62
9720,note_on,30,0,3,,,,,,,,,2,,,55,0
9720,note_on,0,0,3,,,,,,,,,2,,,54,75
9750,note_on,30,0,3,,,,,,,,,2,,,54,0
9750,note_on,0,0,3,,,,,,,,,2,,,53,75
9780,note_on,0,0,3,,,,,,,,,2,,,50,75
9780,note_on,30,0,3,,,,,,,,,2,,,53,0
9810,control_change,0,0,3,,,,,,,,,2,64,0,,
9810,note_on,30,0,3,,,,,,,,,2,,,50,0
9810,note_on,0,0,3,,,,,,,,,2,,,47,75
9840,note_on,0,0,1,,,,,,,,,0,,,74,88
9840,note_on,0,0,1,,,,,,,,,0,,,77,88
9840,control_change,0,0,1,,,,,,,,,0,64,127,,
9840,note_on,0,0,1,,,,,,,,,0,,,67,0
9840,note_on,240,0,1,,,,,,,,,0,,,71,0
9840,note_on,0,0,1,,,,,,,,,0,,,71,88
9840,control_change,0,0,3,,,,,,,,,2,64,127,,
9840,note_on,0,0,3,,,,,,,,,2,,,43,88
9840,note_on,0,0,1,,,,,,,,,0,,,67,88
9840,note_on,30,0,3,,,,,,,,,2,,,47,0
9840,note_on,0,0,1,,,,,,,,,0,,,65,0
9870,note_on,0,0,3,,,,,,,,,2,,,65,88
9870,note_on,30,0,3,,,,,,,,,2,,,43,0
9900,note_on,30,0,3,,,,,,,,,2,,,65,0
9900,note_on,0,0,3,,,,,,,,,2,,,62,88
9930,note_on,0,0,3,,,,,,,,,2,,,59,88
9930,note_on,30,0,3,,,,,,,,,2,,,62,0
9960,note_on,30,0,3,,,,,,,,,2,,,59,0
9960,note_on,0,0,3,,,,,,,,,2,,,55,75
9990,note_on,0,0,3,,,,,,,,,2,,,67,75
9990,note_on,30,0,3,,,,,,,,,2,,,55,0
10020,note_on,30,0,3,,,,,,,,,2,,,67,0
10020,note_on,0,0,3,,,,,,,,,2,,,65,75
10050,note_on,30,0,3,,,,,,,,,2,,,65,0
10050,note_on,0,0,3,,,,,,,,,2,,,62,75
10080,note_on,30,0,3,,,,,,,,,2,,,62,0
10080,note_on,0,0,3,,,,,,,,,2,,,59,49
10080,control_change,240,0,1,,,,,,,,,0,64,0,,
10110,note_on,0,0,3,,,,,,,,,2,,,65,49
10110,note_on,30,0,3,,,,,,,,,2,,,59,0
10140,note_on,30,0,3,,,,,,,,,2,,,65,0
10140,note_on,0,0,3,,,,,,,,,2,,,62,49
10170,note_on,30,0,3,,,,,,,,,2,,,62,0
10170,note_on,0,0,3,,,,,,,,,2,,,59,49
10200,note_on,0,0,3,,,,,,,,,2,,,57,49
10200,note_on,30,0,3,,,,,,,,,2,,,59,0
10230,note_on,30,0,3,,,,,,,,,2,,,57,0
10230,control_change,0,0,3,,,,,,,,,2,64,0,,
10230,note_on,0,0,3,,,,,,,,,2,,,54,49
10260,note_on,0,0,3,,,,,,,,,2,,,53,49
10260,note_on,30,0,3,,,,,,,,,2,,,54,0
10290,note_on,0,0,3,,,,,,,,,2,,,50,49
10290,note_on,30,0,3,,,,,,,,,2,,,53,0
10320,control_change,0,0,3,,,,,,,,,2,64,127,,
10320,note_on,30,0,3,,,,,,,,,2,,,50,0
10320,note_on,0,0,1,,,,,,,,,0,,,64,62
10320,note_on,240,0,1,,,,,,,,,0,,,77,0
10320,note_on,0,0,1,,,,,,,,,0,,,71,0
10320,note_on,0,0,1,,,,,,,,,0,,,74,0
10320,control_change,0,0,1,,,,,,,,,0,64,127,,
10320,note_on,0,0,3,,,,,,,,,2,,,55,75
10320,note_on,1680,0,4,,,,,,,,,3,,,48,62
10320,note_on,0,0,1,,,,,,,,,0,,,67,0
10320,note_on,0,0,4,,,,,,,,,3,,,60,62
10350,note_on,30,0,1,,,,,,,,,0,,,64,0
10350,note_on,0,0,1,,,,,,,,,0,,,76,62
10380,note_on,30,0,1,,,,,,,,,0,,,76,0
10380,note_on,0,0,1,,,,,,,,,0,,,72,62
10410,note_on,0,0,1,,,,,,,,,0,,,67,62
10410,note_on,30,0,1,,,,,,,,,0,,,72,0
10440,note_on,0,0,1,,,,,,,,,0,,,64,62
10440,note_on,30,0,1,,,,,,,,,0,,,67,0
10470,note_on,30,0,1,,,,,,,,,0,,,64,0
10470,note_on,0,0,1,,,,,,,,,0,,,67,62
10500,note_on,0,0,1,,,,,,,,,0,,,65,62
10500,note_on,30,0,1,,,,,,,,,0,,,67,0
10500,note_on,180,0,3,,,,,,,,,2,,,55,0
10500,note_on,0,0,3,,,,,,,,,2,,,57,75
10530,note_on,0,0,1,,,,,,,,,0,,,69,62
10530,note_on,30,0,1,,,,,,,,,0,,,65,0
10560,note_on,30,0,1,,,,,,,,,0,,,69,0
10560,note_on,0,0,1,,,,,,,,,0,,,64,49
10560,note_on,60,0,3,,,,,,,,,2,,,57,0
10560,note_on,0,0,3,,,,,,,,,2,,,55,62
10590,note_on,30,0,1,,,,,,,,,0,,,64,0
10590,note_on,0,0,1,,,,,,,,,0,,,67,49
10620,note_on,0,0,3,,,,,,,,,2,,,54,62
10620,note_on,30,0,1,,,,,,,,,0,,,67,0
10620,note_on,0,0,1,,,,,,,,,0,,,63,49
10620,note_on,60,0,3,,,,,,,,,2,,,55,0
10650,note_on,0,0,1,,,,,,,,,0,,,66,49
10650,note_on,30,0,1,,,,,,,,,0,,,63,0
10680,note_on,30,0,1,,,,,,,,,0,,,66,0
10680,note_on,60,0,3,,,,,,,,,2,,,54,0
10680,note_on,0,0,3,,,,,,,,,2,,,55,62
10680,control_change,0,0,3,,,,,,,,,2,64,0,,
10680,note_on,0,0,1,,,,,,,,,0,,,64,49
10710,note_on,30,0,1,,,,,,,,,0,,,64,0
10710,control_change,0,0,1,,,,,,,,,0,64,0,,
10710,note_on,0,0,1,,,,,,,,,0,,,67,49
10740,note_on,420,0,4,,,,,,,,,3,,,60,0
10740,note_on,30,0,1,,,,,,,,,0,,,67,0
10740,note_on,0,0,4,,,,,,,,,3,,,48,0
10740,note_on,60,0,3,,,,,,,,,2,,,55,0
10740,note_on,2100,0,2,,,,,,,,,1,,,59,49
10740,note_on,0,0,1,,,,,,,,,0,,,62,49
10740,note_on,0,0,3,,,,,,,,,2,,,44,62
10740,note_on,0,0,3,,,,,,,,,2,,,53,62
10770,note_on,30,0,1,,,,,,,,,0,,,62,0
10770,note_on,0,0,1,,,,,,,,,0,,,65,49
10800,note_on,0,0,3,,,,,,,,,2,,,44,0
10800,control_change,0,0,3,,,,,,,,,2,64,127,,
10800,note_on,0,0,2,,,,,,,,,1,,,57,49
10800,note_on,60,0,2,,,,,,,,,1,,,59,0
10800,note_on,60,0,4,,,,,,,,,3,,,45,49
10800,note_on,30,0,1,,,,,,,,,0,,,65,0
10800,control_change,0,0,1,,,,,,,,,0,64,127,,
10800,note_on,0,0,1,,,,,,,,,0,,,60,49
10800,note_on,60,0,3,,,,,,,,,2,,,53,0
10800,note_on,0,0,3,,,,,,,,,2,,,52,62
10830,note_on,30,0,1,,,,,,,,,0,,,60,0
10830,note_on,0,0,1,,,,,,,,,0,,,64,49
10860,note_on,0,0,1,,,,,,,,,0,,,59,49
10860,note_on,0,0,3,,,,,,,,,2,,,51,62
10860,note_on,60,0,3,,,,,,,,,2,,,52,0
10860,note_on,30,0,1,,,,,,,,,0,,,64,0
10890,note_on,0,0,1,,,,,,,,,0,,,63,49
10890,note_on,30,0,1,,,,,,,,,0,,,59,0
10920,control_change,0,0,3,,,,,,,,,2,64,0,,
10920,note_on,60,0,3,,,,,,,,,2,,,51,0
10920,note_on,0,0,3,,,,,,,,,2,,,52,62
10920,note_on,30,0,1,,,,,,,,,0,,,63,0
10920,control_change,0,0,1,,,,,,,,,0,64,0,,
10920,note_on,0,0,1,,,,,,,,,0,,,60,49
10950,note_on,30,0,1,,,,,,,,,0,,,60,0
10950,note_on,0,0,1,,,,,,,,,0,,,64,49
10980,note_on,60,0,3,,,,,,,,,2,,,52,0
10980,note_on,0,0,3,,,,,,,,,2,,,50,62
10980,note_on,0,0,2,,,,,,,,,1,,,56,49
10980,note_on,180,0,2,,,,,,,,,1,,,57,0
10980,note_on,0,0,3,,,,,,,,,2,,,40,62
10980,note_on,180,0,4,,,,,,,,,3,,,45,0
10980,note_on,0,0,1,,,,,,,,,0,,,59,49
10980,note_on,30,0,1,,,,,,,,,0,,,64,0
11010,note_on,30,0,1,,,,,,,,,0,,,59,0
11010,note_on,0,0,1,,,,,,,,,0,,,62,49
11040,note_on,0,0,3,,,,,,,,,2,,,41,62
11040,note_on,0,0,3,,,,,,,,,2,,,48,62
11040,note_on,60,0,2,,,,,,,,,1,,,56,0
11040,note_on,0,0,3,,,,,,,,,2,,,40,0
11040,note_on,30,0,1,,,,,,,,,0,,,62,0
11040,note_on,0,0,1,,,,,,,,,0,,,57,49
11040,note_on,60,0,3,,,,,,,,,2,,,50,0
11070,note_on,30,0,1,,,,,,,,,0,,,57,0
11070,note_on,0,0,1,,,,,,,,,0,,,60,49
11100,note_on,30,0,1,,,,,,,,,0,,,60,0
11100,note_on,0,0,3,,,,,,,,,2,,,41,0
11100,note_on,60,0,3,,,,,,,,,2,,,48,0
11100,note_on,0,0,3,,,,,,,,,2,,,43,62
11100,control_change,0,0,1,,,,,,,,,0,64,127,,
11100,note_on,0,0,1,,,,,,,,,0,,,59,49
11100,note_on,0,0,3,,,,,,,,,2,,,53,62
11100,note_on,60,0,2,,,,,,,,,1,,,67,49
11130,note_on,0,0,1,,,,,,,,,0,,,62,49
11130,note_on,30,0,1,,,,,,,,,0,,,59,0
11160,control_change,0,0,1,,,,,,,,,0,64,0,,
11160,note_on,30,0,1,,,,,,,,,0,,,62,0
11160,note_on,60,0,2,,,,,,,,,1,,,67,0
11160,note_on,60,0,3,,,,,,,,,2,,,53,0
11160,note_on,0,0,2,,,,,,,,,1,,,67,49
11160,note_on,0,0,3,,,,,,,,,2,,,43,0
11160,note_on,0,0,1,,,,,,,,,0,,,64,49
11160,note_on,0,0,3,,,,,,,,,2,,,48,62
11160,note_on,0,0,3,,,,,,,,,2,,,52,62
11190,note_on,30,0,1,,,,,,,,,0,,,64,0
11190,note_on,0,0,1,,,,,,,,,0,,,55,49
11220,note_on,60,0,3,,,,,,,,,2,,,52,0
11220,note_on,60,0,2,,,,,,,,,1,,,67,0
11220,note_on,0,0,1,,,,,,,,,0,,,60,49
11220,note_on,30,0,1,,,,,,,,,0,,,55,0
11220,note_on,0,0,3,,,,,,,,,2,,,48,0
11250,note_on,0,0,1,,,,,,,,,0,,,63,49
11250,note_on,30,0,1,,,,,,,,,0,,,60,0
11280,note_on,60,0,3,,,,,,,,,2,,,48,75
11280,note_on,0,0,3,,,,,,,,,2,,,55,75
11280,note_on,0,0,3,,,,,,,,,2,,,60,75
11280,note_on,0,0,1,,,,,,,,,0,,,64,88
11280,control_change,0,0,1,,,,,,,,,0,64,127,,
11280,note_on,30,0,1,,,,,,,,,0,,,63,0
11310,note_on,30,0,1,,,,,,,,,0,,,64,0
11310,note_on,0,0,1,,,,,,,,,0,,,67,88
11340,note_on,0,0,1,,,,,,,,,0,,,72,88
11340,note_on,30,0,1,,,,,,,,,0,,,67,0
11370,note_on,0,0,1,,,,,,,,,0,,,75,88
11370,note_on,30,0,1,,,,,,,,,0,,,72,0
11400,note_on,0,0,1,,,,,,,,,0,,,76,88
11400,note_on,30,0,1,,,,,,,,,0,,,75,0
11430,note_on,0,0,1,,,,,,,,,0,,,79,88
11430,note_on,30,0,1,,,,,,,,,0,,,76,0
11460,note_on,0,0,1,,,,,,,,,0,,,84,88
11460,note_on,30,0,1,,,,,,,,,0,,,79,0
11490,control_change,0,0,1,,,,,,,,,0,64,0,,
11490,note_on,0,0,1,,,,,,,,,0,,,88,88
11490,note_on,30,0,1,,,,,,,,,0,,,84,0
11520,control_change,0,0,3,,,,,,,,,2,64,127,,
11520,note_on,0,0,3,,,,,,,,,2,,,47,88
11520,note_on,0,0,1,,,,,,,,,0,,,86,75
11520,note_on,240,0,3,,,,,,,,,2,,,60,0
11520,note_on,0,0,3,,,,,,,,,2,,,48,0
11520,note_on,0,0,3,,,,,,,,,2,,,55,0
11520,note_on,0,0,1,,,,,,,,,0,,,79,75
11520,note_on,0,0,1,,,,,,,,,0,,,74,75
11520,note_on,30,0,1,,,,,,,,,0,,,88,0
11550,note_on,30,0,3,,,,,,,,,2,,,47,0
11550,note_on,0,0,3,,,,,,,,,2,,,50,88
11580,note_on,30,0,3,,,,,,,,,2,,,50,0
11580,note_on,0,0,3,,,,,,,,,2,,,55,88
11610,note_on,0,0,3,,,,,,,,,2,,,59,88
11610,note_on,30,0,3,,,,,,,,,2,,,55,0
11640,note_on,30,0,3,,,,,,,,,2,,,59,0
11640,note_on,0,0,3,,,,,,,,,2,,,62,88
11670,note_on,0,0,3,,,,,,,,,2,,,67,88
11670,note_on,30,0,3,,,,,,,,,2,,,62,0
11700,note_on,30,0,3,,,,,,,,,2,,,67,0
11700,note_on,0,0,3,,,,,,,,,2,,,70,88
11730,control_change,0,0,3,,,,,,,,,2,64,0,,
11730,note_on,30,0,3,,,,,,,,,2,,,70,0
11730,note_on,0,0,3,,,,,,,,,2,,,71,88
11760,control_change,0,0,1,,,,,,,,,0,64,127,,
11760,note_on,780,0,4,,,,,,,,,3,,,62,36
11760,note_on,0,0,1,,,,,,,,,0,,,86,36
11760,note_on,0,0,1,,,,,,,,,0,,,74,0
11760,note_on,0,0,1,,,,,,,,,0,,,79,0
11760,note_on,240,0,1,,,,,,,,,0,,,86,0
11760,control_change,0,0,3,,,,,,,,,2,64,127,,
11760,note_on,30,0,3,,,,,,,,,2,,,71,0
11760,note_on,0,0,3,,,,,,,,,2,,,69,49
11760,control_change,540,0,2,,,,,,,,,1,64,127,,
11760,note_on,0,0,2,,,,,,,,,1,,,78,49
11790,note_on,30,0,1,,,,,,,,,0,,,86,0
11790,note_on,0,0,1,,,,,,,,,0,,,84,36
11820,note_on,30,0,1,,,,,,,,,0,,,84,0
11820,note_on,0,0,2,,,,,,,,,1,,,79,49
11820,note_on,0,0,3,,,,,,,,,2,,,71,49
11820,note_on,60,0,3,,,,,,,,,2,,,69,0
11820,note_on,60,0,2,,,,,,,,,1,,,78,0
11820,note_on,0,0,1,,,,,,,,,0,,,84,36
11850,note_on,0,0,1,,,,,,,,,0,,,83,36
11850,note_on,30,0,1,,,,,,,,,0,,,84,0
11880,note_on,0,0,3,,,,,,,,,2,,,72,49
11880,control_change,0,0,2,,,,,,,,,1,64,0,,
11880,note_on,60,0,3,,,,,,,,,2,,,71,0
11880,note_on,60,0,2,,,,,,,,,1,,,79,0
11880,note_on,0,0,1,,,,,,,,,0,,,83,36
11880,note_on,30,0,1,,,,,,,,,0,,,83,0
11880,note_on,0,0,2,,,,,,,,,1,,,76,49
11910,note_on,0,0,1,,,,,,,,,0,,,81,36
11910,note_on,30,0,1,,,,,,,,,0,,,83,0
11940,control_change,0,0,3,,,,,,,,,2,64,0,,
11940,note_on,60,0,3,,,,,,,,,2,,,72,0
11940,note_on,0,0,3,,,,,,,,,2,,,73,49
11940,note_on,30,0,1,,,,,,,,,0,,,81,0
11940,control_change,0,0,1,,,,,,,,,0,64,0,,
11940,note_on,0,0,1,,,,,,,,,0,,,81,36
11970,note_on,30,0,1,,,,,,,,,0,,,81,0
11970,note_on,0,0,1,,,,,,,,,0,,,79,36
12000,control_change,0,0,1,,,,,,,,,0,64,127,,
12000,note_on,0,0,2,,,,,,,,,1,,,74,49
12000,control_change,0,0,2,,,,,,,,,1,64,127,,
12000,note_on,120,0,2,,,,,,,,,1,,,76,0
12000,note_on,30,0,1,,,,,,,,,0,,,79,0
12000,note_on,0,0,1,,,,,,,,,0,,,79,36
12000,note_on,60,0,3,,,,,,,,,2,,,73,0
12030,note_on,30,0,1,,,,,,,,,0,,,79,0
12030,note_on,0,0,1,,,,,,,,,0,,,78,36
12060,note_on,0,0,2,,,,,,,,,1,,,71,49
12060,note_on,30,0,1,,,,,,,,,0,,,78,0
12060,note_on,0,0,1,,,,,,,,,0,,,78,36
12060,note_on,0,0,2,,,,,,,,,1,,,67,49
12060,note_on,60,0,2,,,,,,,,,1,,,74,0
12090,note_on,30,0,1,,,,,,,,,0,,,78,0
12090,note_on,0,0,1,,,,,,,,,0,,,76,36
12120,note_on,0,0,1,,,,,,,,,0,,,76,36
12120,note_on,30,0,1,,,,,,,,,0,,,76,0
12120,note_on,60,0,2,,,,,,,,,1,,,71,0
12120,note_on,0,0,2,,,,,,,,,1,,,67,0
12120,note_on,0,0,2,,,,,,,,,1,,,66,49
12120,note_on,0,0,2,,,,,,,,,1,,,69,49
12150,note_on,30,0,1,,,,,,,,,0,,,76,0
12150,note_on,0,0,1,,,,,,,,,0,,,74,36
12180,note_on,60,0,2,,,,,,,,,1,,,69,0
12180,note_on,0,0,2,,,,,,,,,1,,,62,49
12180,control_change,0,0,2,,,,,,,,,1,64,0,,
12180,note_on,0,0,1,,,,,,,,,0,,,74,36
12180,note_on,30,0,1,,,,,,,,,0,,,74,0
12180,note_on,0,0,2,,,,,,,,,1,,,66,49
12180,note_on,0,0,2,,,,,,,,,1,,,66,0
12210,note_on,0,0,1,,,,,,,,,0,,,72,36
12210,control_change,0,0,1,,,,,,,,,0,64,0,,
12210,note_on,30,0,1,,,,,,,,,0,,,74,0
12240,control_change,0,0,1,,,,,,,,,0,64,127,,
12240,note_on,0,0,2,,,,,,,,,1,,,62,0
12240,note_on,60,0,2,,,,,,,,,1,,,66,0
12240,note_on,30,0,1,,,,,,,,,0,,,72,0
12240,note_on,480,0,4,,,,,,,,,3,,,62,0
12240,note_on,0,0,1,,,,,,,,,0,,,65,36
12240,note_on,0,0,3,,,,,,,,,2,,,62,36
12240,note_on,240,0,3,,,,,,,,,2,,,56,36
12270,note_on,0,0,1,,,,,,,,,0,,,77,36
12270,note_on,30,0,1,,,,,,,,,0,,,65,0
12300,note_on,30,0,1,,,,,,,,,0,,,77,0
12300,note_on,0,0,1,,,,,,,,,0,,,74,36
12330,note_on,30,0,1,,,,,,,,,0,,,74,0
12330,note_on,0,0,1,,,,,,,,,0,,,71,36
12360,note_on,0,0,3,,,,,,,,,2,,,56,0
12360,control_change,0,0,1,,,,,,,,,0,64,0,,
12360,note_on,30,0,1,,,,,,,,,0,,,71,0
12360,note_on,0,0,1,,,,,,,,,0,,,64,36
12360,note_on,0,0,3,,,,,,,,,2,,,57,36
12360,note_on,0,0,3,,,,,,,,,2,,,60,36
12360,note_on,120,0,3,,,,,,,,,2,,,62,0
12390,note_on,30,0,1,,,,,,,,,0,,,64,0
12390,note_on,0,0,1,,,,,,,,,0,,,76,36
12420,note_on,30,0,1,,,,,,,,,0,,,76,0
12420,note_on,0,0,1,,,,,,,,,0,,,72,36
12450,note_on,30,0,1,,,,,,,,,0,,,72,0
12450,note_on,0,0,1,,,,,,,,,0,,,69,36
12480,note_on,0,0,3,,,,,,,,,2,,,54,36
12480,note_on,0,0,3,,,,,,,,,2,,,57,0
12480,note_on,0,0,1,,,,,,,,,0,,,63,36
12480,control_change,0,0,1,,,,,,,,,0,64,127,,
12480,note_on,30,0,1,,,,,,,,,0,,,69,0
12480,note_on,120,0,3,,,,,,,,,2,,,60,0
12480,note_on,0,0,3,,,,,,,,,2,,,60,36
12510,note_on,0,0,1,,,,,,,,,0,,,75,36
12510,note_on,30,0,1,,,,,,,,,0,,,63,0
12540,note_on,30,0,1,,,,,,,,,0,,,75,0
12540,note_on,0,0,1,,,,,,,,,0,,,72,36
12570,note_on,0,0,1,,,,,,,,,0,,,69,36
12570,note_on,30,0,1,,,,,,,,,0,,,72,0
12600,note_on,0,0,1,,,,,,,,,0,,,62,36
12600,control_change,0,0,1,,,,,,,,,0,64,0,,
12600,note_on,30,0,1,,,,,,,,,0,,,69,0
12600,note_on,0,0,3,,,,,,,,,2,,,55,36
12600,note_on,120,0,3,,,,,,,,,2,,,60,0
12600,note_on,0,0,3,,,,,,,,,2,,,54,0
12600,note_on,0,0,3,,,,,,,,,2,,,59,36
12630,note_on,30,0,1,,,,,,,,,0,,,62,0
12630,note_on,0,0,1,,,,,,,,,0,,,74,36
12660,note_on,30,0,1,,,,,,,,,0,,,74,0
12660,note_on,0,0,1,,,,,,,,,0,,,71,36
12690,note_on,30,0,1,,,,,,,,,0,,,71,0
12690,note_on,0,0,1,,,,,,,,,0,,,67,36
12720,note_on,120,0,3,,,,,,,,,2,,,59,0
12720,note_on,0,0,3,,,,,,,,,2,,,55,0
12720,note_on,0,0,3,,,,,,,,,2,,,57,36
12720,note_on,0,0,3,,,,,,,,,2,,,48,36
12720,note_on,30,0,1,,,,,,,,,0,,,67,0
12720,control_change,0,0,1,,,,,,,,,0,64,127,,
12720,note_on,0,0,1,,,,,,,,,0,,,64,36
12750,note_on,0,0,1,,,,,,,,,0,,,72,36
12750,note_on,30,0,1,,,,,,,,,0,,,64,0
12780,note_on,0,0,1,,,,,,,,,0,,,69,36
12780,note_on,30,0,1,,,,,,,,,0,,,72,0
12810,note_on,30,0,1,,,,,,,,,0,,,69,0
12810,control_change,0,0,1,,,,,,,,,0,64,0,,
12810,note_on,0,0,1,,,,,,,,,0,,,63,36
12840,note_on,0,0,3,,,,,,,,,2,,,54,36
12840,note_on,120,0,3,,,,,,,,,2,,,57,0
12840,note_on,0,0,3,,,,,,,,,2,,,48,0
12840,note_on,0,0,3,,,,,,,,,2,,,50,36
12840,note_on,30,0,1,,,,,,,,,0,,,63,0
12840,note_on,0,0,1,,,,,,,,,0,,,60,36
12870,note_on,30,0,1,,,,,,,,,0,,,60,0
12870,note_on,0,0,1,,,,,,,,,0,,,69,36
12900,note_on,30,0,1,,,,,,,,,0,,,69,0
12900,note_on,0,0,1,,,,,,,,,0,,,66,36
12930,note_on,0,0,1,,,,,,,,,0,,,62,36
12930,note_on,30,0,1,,,,,,,,,0,,,66,0
12960,note_on,0,0,1,,,,,,,,,0,,,67,36
12960,note_on,0,0,3,,,,,,,,,2,,,50,0
12960,control_change,0,0,3,,,,,,,,,2,64,127,,
12960,note_on,0,0,3,,,,,,,,,2,,,43,36
12960,note_on,30,0,1,,,,,,,,,0,,,62,0
12960,note_on,0,0,1,,,,,,,,,0,,,59,36
12960,note_on,120,0,3,,,,,,,,,2,,,54,0
12990,note_on,30,0,3,,,,,,,,,2,,,43,0
12990,note_on,0,0,3,,,,,,,,,2,,,62,36
13020,note_on,0,0,3,,,,,,,,,2,,,59,36
13020,note_on,30,0,3,,,,,,,,,2,,,62,0
13050,note_on,30,0,3,,,,,,,,,2,,,59,0
13050,note_on,0,0,3,,,,,,,,,2,,,55,36
13080,note_on,30,0,3,,,,,,,,,2,,,55,0
13080,note_on,0,0,3,,,,,,,,,2,,,54,49
13110,note_on,30,0,3,,,,,,,,,2,,,54,0
13110,note_on,0,0,3,,,,,,,,,2,,,53,49
13140,note_on,30,0,3,,,,,,,,,2,,,53,0
13140,note_on,0,0,3,,,,,,,,,2,,,50,49
13170,note_on,0,0,3,,,,,,,,,2,,,47,49
13170,note_on,30,0,3,,,,,,,,,2,,,50,0
13170,control_change,0,0,3,,,,,,,,,2,64,0,,
13200,note_on,0,0,1,,,,,,,,,0,,,71,62
13200,note_on,0,0,3,,,,,,,,,2,,,43,62
13200,note_on,30,0,3,,,,,,,,,2,,,47,0
13200,control_change,0,0,3,,,,,,,,,2,64,127,,
13200,note_on,0,0,1,,,,,,,,,0,,,59,0
13200,note_on,0,0,1,,,,,,,,,0,,,65,62
13200,note_on,0,0,1,,,,,,,,,0,,,67,62
13200,note_on,240,0,1,,,,,,,,,0,,,67,0
13230,note_on,30,0,3,,,,,,,,,2,,,43,0
13230,note_on,0,0,3,,,,,,,,,2,,,62,62
13260,note_on,30,0,3,,,,,,,,,2,,,62,0
13260,note_on,0,0,3,,,,,,,,,2,,,59,62
13290,note_on,30,0,3,,,,,,,,,2,,,59,0
13290,note_on,0,0,3,,,,,,,,,2,,,55,62
13320,note_on,30,0,3,,,,,,,,,2,,,55,0
13320,note_on,0,0,3,,,,,,,,,2,,,54,75
13350,note_on,30,0,3,,,,,,,,,2,,,54,0
13350,note_on,0,0,3,,,,,,,,,2,,,53,75
13380,note_on,30,0,3,,,,,,,,,2,,,53,0
13380,note_on,0,0,3,,,,,,,,,2,,,50,75
13410,note_on,30,0,3,,,,,,,,,2,,,50,0
13410,control_change,0,0,3,,,,,,,,,2,64,0,,
13410,note_on,0,0,3,,,,,,,,,2,,,47,75
13440,note_on,0,0,1,,,,,,,,,0,,,67,0
13440,note_on,0,0,1,,,,,,,,,0,,,65,0
13440,note_on,0,0,1,,,,,,,,,0,,,67,88
13440,note_on,0,0,1,,,,,,,,,0,,,71,88
13440,note_on,0,0,1,,,,,,,,,0,,,74,88
13440,note_on,0,0,1,,,,,,,,,0,,,77,88
13440,control_change,0,0,1,,,,,,,,,0,64,127,,
13440,note_on,30,0,3,,,,,,,,,2,,,47,0
13440,control_change,0,0,3,,,,,,,,,2,64,127,,
13440,note_on,0,0,3,,,,,,,,,2,,,43,88
13440,note_on,240,0,1,,,,,,,,,0,,,71,0
13470,note_on,30,0,3,,,,,,,,,2,,,43,0
13470,note_on,0,0,3,,,,,,,,,2,,,65,88
13500,note_on,30,0,3,,,,,,,,,2,,,65,0
13500,note_on,0,0,3,,,,,,,,,2,,,62,88
13530,note_on,0,0,3,,,,,,,,,2,,,59,88
13530,note_on,30,0,3,,,,,,,,,2,,,62,0
13560,note_on,30,0,3,,,,,,,,,2,,,59,0
13560,note_on,0,0,3,,,,,,,,,2,,,55,75
13590,note_on,30,0,3,,,,,,,,,2,,,55,0
13590,note_on,0,0,3,,,,,,,,,2,,,67,75
13620,note_on,30,0,3,,,,,,,,,2,,,67,0
13620,note_on,0,0,3,,,,,,,,,2,,,65,75
13650,note_on,30,0,3,,,,,,,,,2,,,65,0
13650,note_on,0,0,3,,,,,,,,,2,,,62,75
13680,note_on,0,0,3,,,,,,,,,2,,,59,49
13680,control_change,240,0,1,,,,,,,,,0,64,0,,
13680,note_on,30,0,3,,,,,,,,,2,,,62,0
13710,note_on,30,0,3,,,,,,,,,2,,,59,0
13710,note_on,0,0,3,,,,,,,,,2,,,65,49
13740,note_on,30,0,3,,,,,,,,,2,,,65,0
13740,note_on,0,0,3,,,,,,,,,2,,,62,49
13770,note_on,0,0,3,,,,,,,,,2,,,59,49
13770,note_on,30,0,3,,,,,,,,,2,,,62,0
13800,note_on,30,0,3,,,,,,,,,2,,,59,0
13800,note_on,0,0,3,,,,,,,,,2,,,57,49
13830,note_on,0,0,3,,,,,,,,,2,,,54,49
13830,note_on,30,0,3,,,,,,,,,2,,,57,0
13830,control_change,0,0,3,,,,,,,,,2,64,0,,
13860,note_on,0,0,3,,,,,,,,,2,,,53,49
13860,note_on,30,0,3,,,,,,,,,2,,,54,0
13890,note_on,0,0,3,,,,,,,,,2,,,50,49
13890,note_on,30,0,3,,,,,,,,,2,,,53,0
13920,note_on,30,0,3,,,,,,,,,2,,,50,0
13920,control_change,0,0,1,,,,,,,,,0,64,127,,
13920,note_on,0,0,3,,,,,,,,,2,,,55,75
13920,control_change,0,0,3,,,,,,,,,2,64,127,,
13920,note_on,0,0,1,,,,,,,,,0,,,74,0
13920,note_on,0,0,1,,,,,,,,,0,,,71,0
13920,note_on,0,0,4,,,,,,,,,3,,,60,62
13920,note_on,240,0,1,,,,,,,,,0,,,77,0
13920,note_on,0,0,1,,,,,,,,,0,,,67,0
13920,note_on,0,0,1,,,,,,,,,0,,,64,62
13920,note_on,1680,0,4,,,,,,,,,3,,,48,62
13950,note_on,30,0,1,,,,,,,,,0,,,64,0
13950,note_on,0,0,1,,,,,,,,,0,,,76,62
13980,note_on,30,0,1,,,,,,,,,0,,,76,0
13980,note_on,0,0,1,,,,,,,,,0,,,72,62
14010,note_on,30,0,1,,,,,,,,,0,,,72,0
14010,note_on,0,0,1,,,,,,,,,0,,,67,62
14040,note_on,0,0,1,,,,,,,,,0,,,64,62
14040,note_on,30,0,1,,,,,,,,,0,,,67,0
14070,note_on,30,0,1,,,,,,,,,0,,,64,0
14070,note_on,0,0,1,,,,,,,,,0,,,67,62
14100,note_on,30,0,1,,,,,,,,,0,,,67,0
14100,note_on,0,0,1,,,,,,,,,0,,,65,62
14100,note_on,180,0,3,,,,,,,,,2,,,55,0
14100,note_on,0,0,3,,,,,,,,,2,,,57,75
14130,note_on,30,0,1,,,,,,,,,0,,,65,0
14130,note_on,0,0,1,,,,,,,,,0,,,69,62
14160,note_on,60,0,3,,,,,,,,,2,,,57,0
14160,note_on,0,0,3,,,,,,,,,2,,,55,62
14160,note_on,30,0,1,,,,,,,,,0,,,69,0
14160,note_on,0,0,1,,,,,,,,,0,,,64,49
14190,note_on,30,0,1,,,,,,,,,0,,,64,0
14190,note_on,0,0,1,,,,,,,,,0,,,67,49
14220,note_on,0,0,3,,,,,,,,,2,,,54,62
14220,note_on,60,0,3,,,,,,,,,2,,,55,0
14220,note_on,0,0,1,,,,,,,,,0,,,63,49
14220,note_on,30,0,1,,,,,,,,,0,,,67,0
14250,note_on,30,0,1,,,,,,,,,0,,,63,0
14250,note_on,0,0,1,,,,,,,,,0,,,66,49
14280,note_on,0,0,3,,,,,,,,,2,,,55,62
14280,note_on,0,0,1,,,,,,,,,0,,,64,49
14280,control_change,0,0,3,,,,,,,,,2,64,0,,
14280,note_on,60,0,3,,,,,,,,,2,,,54,0
14280,note_on,30,0,1,,,,,,,,,0,,,66,0
14310,note_on,0,0,1,,,,,,,,,0,,,67,49
14310,control_change,0,0,1,,,,,,,,,0,64,0,,
14310,note_on,30,0,1,,,,,,,,,0,,,64,0
14340,note_on,0,0,1,,,,,,,,,0,,,62,49
14340,note_on,0,0,3,,,,,,,,,2,,,44,62
14340,note_on,60,0,3,,,,,,,,,2,,,55,0
14340,note_on,420,0,4,,,,,,,,,3,,,60,0
14340,note_on,30,0,1,,,,,,,,,0,,,67,0
14340,note_on,2100,0,2,,,,,,,,,1,,,59,49
14340,note_on,0,0,3,,,,,,,,,2,,,53,62
14340,note_on,0,0,4,,,,,,,,,3,,,48,0
14370,note_on,0,0,1,,,,,,,,,0,,,65,49
14370,note_on,30,0,1,,,,,,,,,0,,,62,0
14400,note_on,0,0,3,,,,,,,,,2,,,44,0
14400,control_change,0,0,3,,,,,,,,,2,64,127,,
14400,note_on,60,0,3,,,,,,,,,2,,,53,0
14400,note_on,0,0,3,,,,,,,,,2,,,52,62
14400,note_on,60,0,4,,,,,,,,,3,,,45,49
14400,note_on,60,0,2,,,,,,,,,1,,,59,0
14400,note_on,0,0,2,,,,,,,,,1,,,57,49
14400,note_on,30,0,1,,,,,,,,,0,,,65,0
14400,control_change,0,0,1,,,,,,,,,0,64,127,,
14400,note_on,0,0,1,,,,,,,,,0,,,60,49
14430,note_on,30,0,1,,,,,,,,,0,,,60,0
14430,note_on,0,0,1,,,,,,,,,0,,,64,49
14460,note_on,30,0,1,,,,,,,,,0,,,64,0
14460,note_on,0,0,1,,,,,,,,,0,,,59,49
14460,note_on,0,0,3,,,,,,,,,2,,,51,62
14460,note_on,60,0,3,,,,,,,,,2,,,52,0
14490,note_on,30,0,1,,,,,,,,,0,,,59,0
14490,note_on,0,0,1,,,,,,,,,0,,,63,49
14520,note_on,30,0,1,,,,,,,,,0,,,63,0
14520,note_on,0,0,1,,,,,,,,,0,,,60,49
14520,control_change,0,0,1,,,,,,,,,0,64,0,,
14520,note_on,0,0,3,,,,,,,,,2,,,52,62
14520,note_on,60,0,3,,,,,,,,,2,,,51,0
14520,control_change,0,0,3,,,,,,,,,2,64,0,,
14550,note_on,0,0,1,,,,,,,,,0,,,64,49
14550,note_on,30,0,1,,,,,,,,,0,,,60,0
14580,note_on,0,0,1,,,,,,,,,0,,,59,49
14580,note_on,180,0,2,,,,,,,,,1,,,57,0
14580,note_on,0,0,2,,,,,,,,,1,,,56,49
14580,note_on,0,0,3,,,,,,,,,2,,,50,62
14580,note_on,60,0,3,,,,,,,,,2,,,52,0
14580,note_on,0,0,3,,,,,,,,,2,,,40,62
14580,note_on,30,0,1,,,,,,,,,0,,,64,0
14580,note_on,180,0,4,,,,,,,,,3,,,45,0
14610,note_on,30,0,1,,,,,,,,,0,,,59,0
14610,note_on,0,0,1,,,,,,,,,0,,,62,49
14640,note_on,0,0,1,,,,,,,,,0,,,57,49
14640,note_on,30,0,1,,,,,,,,,0,,,62,0
14640,note_on,60,0,3,,,,,,,,,2,,,50,0
14640,note_on,60,0,2,,,,,,,,,1,,,56,0
14640,note_on,0,0,3,,,,,,,,,2,,,40,0
14640,note_on,0,0,3,,,,,,,,,2,,,41,62
14640,note_on,0,0,3,,,,,,,,,2,,,48,62
14670,note_on,30,0,1,,,,,,,,,0,,,57,0
14670,note_on,0,0,1,,,,,,,,,0,,,60,49
14700,note_on,60,0,2,,,,,,,,,1,,,67,49
14700,control_change,0,0,1,,,,,,,,,0,64,127,,
14700,note_on,0,0,1,,,,,,,,,0,,,59,49
14700,note_on,30,0,1,,,,,,,,,0,,,60,0
14700,note_on,0,0,3,,,,,,,,,2,,,41,0
14700,note_on,0,0,3,,,,,,,,,2,,,53,62
14700,note_on,60,0,3,,,,,,,,,2,,,48,0
14700,note_on,0,0,3,,,,,,,,,2,,,43,62
14730,note_on,0,0,1,,,,,,,,,0,,,62,49
14730,note_on,30,0,1,,,,,,,,,0,,,59,0
14760,note_on,0,0,2,,,,,,,,,1,,,67,49
14760,note_on,60,0,3,,,,,,,,,2,,,53,0
14760,note_on,0,0,3,,,,,,,,,2,,,43,0
14760,note_on,0,0,3,,,,,,,,,2,,,48,62
14760,note_on,0,0,3,,,,,,,,,2,,,52,62
14760,note_on,60,0,2,,,,,,,,,1,,,67,0
14760,note_on,30,0,1,,,,,,,,,0,,,62,0
14760,control_change,0,0,1,,,,,,,,,0,64,0,,
14760,note_on,0,0,1,,,,,,,,,0,,,64,49
14790,note_on,30,0,1,,,,,,,,,0,,,64,0
14790,note_on,0,0,1,,,,,,,,,0,,,55,49
14820,note_on,0,0,1,,,,,,,,,0,,,60,49
14820,note_on,30,0,1,,,,,,,,,0,,,55,0
14820,note_on,60,0,2,,,,,,,,,1,,,67,0
14820,note_on,60,0,3,,,,,,,,,2,,,52,0
14820,note_on,0,0,3,,,,,,,,,2,,,48,0
14850,note_on,0,0,1,,,,,,,,,0,,,63,49
14850,note_on,30,0,1,,,,,,,,,0,,,60,0
14880,note_on,60,0,3,,,,,,,,,2,,,55,88
14880,note_on,0,0,4,,,,,,,,,3,,,60,75
14880,note_on,30,0,1,,,,,,,,,0,,,63,0
14880,note_on,300,0,4,,,,,,,,,3,,,48,75
14880,control_change,0,0,1,,,,,,,,,0,64,127,,
14880,note_on,0,0,1,,,,,,,,,0,,,64,75
14880,control_change,0,0,1,,,,,,,,,0,64,127,,
14910,note_on,30,0,1,,,,,,,,,0,,,64,0
14910,note_on,0,0,1,,,,,,,,,0,,,76,75
14940,note_on,30,0,1,,,,,,,,,0,,,76,0
14940,note_on,0,0,1,,,,,,,,,0,,,72,75
14970,note_on,30,0,1,,,,,,,,,0,,,72,0
14970,note_on,0,0,1,,,,,,,,,0,,,67,75
15000,note_on,30,0,1,,,,,,,,,0,,,67,0
15000,note_on,0,0,1,,,,,,,,,0,,,64,75
15030,note_on,30,0,1,,,,,,,,,0,,,64,0
15030,note_on,0,0,1,,,,,,,,,0,,,67,75
15060,note_on,0,0,1,,,,,,,,,0,,,65,36
15060,note_on,30,0,1,,,,,,,,,0,,,67,0
15060,note_on,0,0,3,,,,,,,,,2,,,57,49
15060,note_on,180,0,3,,,,,,,,,2,,,55,0
15090,note_on,30,0,1,,,,,,,,,0,,,65,0
15090,note_on,0,0,1,,,,,,,,,0,,,69,36
15090,control_change,0,0,1,,,,,,,,,0,64,0,,
15120,control_change,0,0,3,,,,,,,,,2,64,127,,
15120,note_on,60,0,3,,,,,,,,,2,,,57,0
15120,note_on,0,0,3,,,,,,,,,2,,,55,49
15120,control_change,0,0,1,,,,,,,,,0,64,127,,
15120,note_on,0,0,1,,,,,,,,,0,,,64,36
15120,note_on,30,0,1,,,,,,,,,0,,,69,0
15150,note_on,0,0,1,,,,,,,,,0,,,67,36
15150,note_on,30,0,1,,,,,,,,,0,,,64,0
15180,note_on,0,0,1,,,,,,,,,0,,,63,36
15180,note_on,30,0,1,,,,,,,,,0,,,67,0
15180,note_on,60,0,3,,,,,,,,,2,,,55,0
15180,note_on,0,0,3,,,,,,,,,2,,,54,49
15210,note_on,30,0,1,,,,,,,,,0,,,63,0
15210,note_on,0,0,1,,,,,,,,,0,,,66,36
15240,note_on,0,0,1,,,,,,,,,0,,,64,36
15240,note_on,60,0,3,,,,,,,,,2,,,54,0
15240,note_on,0,0,3,,,,,,,,,2,,,55,49
15240,note_on,30,0,1,,,,,,,,,0,,,66,0
15270,note_on,30,0,1,,,,,,,,,0,,,64,0
15270,note_on,0,0,1,,,,,,,,,0,,,67,36
15300,note_on,30,0,1,,,,,,,,,0,,,67,0
15300,note_on,0,0,1,,,,,,,,,0,,,72,36
15300,note_on,60,0,3,,,,,,,,,2,,,55,0
15300,note_on,0,0,3,,,,,,,,,2,,,58,49
15300,control_change,0,0,3,,,,,,,,,2,64,0,,
15330,note_on,30,0,1,,,,,,,,,0,,,72,0
15330,control_change,0,0,1,,,,,,,,,0,64,0,,
15330,note_on,0,0,1,,,,,,,,,0,,,64,36
15360,note_on,60,0,3,,,,,,,,,2,,,58,0
15360,note_on,0,0,3,,,,,,,,,2,,,57,88
15360,control_change,0,0,3,,,,,,,,,2,64,127,,
15360,note_on,30,0,1,,,,,,,,,0,,,64,0
15360,control_change,0,0,1,,,,,,,,,0,64,127,,
15360,note_on,0,0,1,,,,,,,,,0,,,69,75
15360,note_on,0,0,4,,,,,,,,,3,,,48,0
15360,note_on,0,0,4,,,,,,,,,3,,,53,75
15360,note_on,0,0,4,,,,,,,,,3,,,65,75
15360,note_on,480,0,4,,,,,,,,,3,,,60,0
15390,note_on,30,0,1,,,,,,,,,0,,,69,0
15390,note_on,0,0,1,,,,,,,,,0,,,81,75
15420,note_on,60,0,3,,,,,,,,,2,,,57,0
15420,note_on,30,0,1,,,,,,,,,0,,,81,0
15420,note_on,0,0,1,,,,,,,,,0,,,77,62
15420,note_on,0,0,3,,,,,,,,,2,,,60,75
15450,note_on,30,0,1,,,,,,,,,0,,,77,0
15450,note_on,0,0,1,,,,,,,,,0,,,72,62
15480,note_on,0,0,1,,,,,,,,,0,,,69,62
15480,note_on,30,0,1,,,,,,,,,0,,,72,0
15510,note_on,0,0,1,,,,,,,,,0,,,72,62
15510,note_on,30,0,1,,,,,,,,,0,,,69,0
15540,note_on,30,0,1,,,,,,,,,0,,,72,0
15540,note_on,0,0,1,,,,,,,,,0,,,70,36
15540,note_on,0,0,3,,,,,,,,,2,,,62,49
15540,control_change,0,0,3,,,,,,,,,2,64,0,,
15540,note_on,120,0,3,,,,,,,,,2,,,60,0
15570,control_change,0,0,1,,,,,,,,,0,64,0,,
15570,note_on,30,0,1,,,,,,,,,0,,,70,0
15570,note_on,0,0,1,,,,,,,,,0,,,74,36
15600,control_change,0,0,3,,,,,,,,,2,64,127,,
15600,note_on,60,0,3,,,,,,,,,2,,,62,0
15600,note_on,0,0,3,,,,,,,,,2,,,60,49
15600,note_on,0,0,1,,,,,,,,,0,,,69,36
15600,note_on,30,0,1,,,,,,,,,0,,,74,0
15600,control_change,0,0,1,,,,,,,,,0,64,127,,
15630,note_on,30,0,1,,,,,,,,,0,,,69,0
15630,note_on,0,0,1,,,,,,,,,0,,,72,36
15660,note_on,60,0,3,,,,,,,,,2,,,60,0
15660,note_on,30,0,1,,,,,,,,,0,,,72,0
15660,note_on,0,0,3,,,,,,,,,2,,,59,49
15660,note_on,0,0,1,,,,,,,,,0,,,68,36
15690,note_on,30,0,1,,,,,,,,,0,,,68,0
15690,note_on,0,0,1,,,,,,,,,0,,,71,36
15720,note_on,0,0,1,,,,,,,,,0,,,69,36
15720,note_on,0,0,3,,,,,,,,,2,,,60,49
15720,note_on,60,0,3,,,,,,,,,2,,,59,0
15720,note_on,30,0,1,,,,,,,,,0,,,71,0
15750,note_on,0,0,1,,,,,,,,,0,,,72,36
15750,note_on,30,0,1,,,,,,,,,0,,,69,0
15780,note_on,30,0,1,,,,,,,,,0,,,72,0
15780,note_on,0,0,3,,,,,,,,,2,,,62,49
15780,control_change,0,0,3,,,,,,,,,2,64,0,,
15780,note_on,60,0,3,,,,,,,,,2,,,60,0
15780,note_on,0,0,1,,,,,,,,,0,,,71,36
15810,note_on,0,0,1,,,,,,,,,0,,,74,36
15810,note_on,30,0,1,,,,,,,,,0,,,71,0
15810,control_change,0,0,1,,,,,,,,,0,64,0,,
15840,note_on,480,0,4,,,,,,,,,3,,,65,0
15840,note_on,0,0,4,,,,,,,,,3,,,53,0
15840,note_on,60,0,3,,,,,,,,,2,,,62,0
15840,note_on,0,0,3,,,,,,,,,2,,,54,49
15840,note_on,0,0,3,,,,,,,,,2,,,60,49
15840,note_on,30,0,1,,,,,,,,,0,,,74,0
15840,control_change,0,0,1,,,,,,,,,0,64,127,,
15840,note_on,0,0,1,,,,,,,,,0,,,63,36
15870,note_on,30,0,1,,,,,,,,,0,,,63,0
15870,note_on,0,0,1,,,,,,,,,0,,,75,36
15900,note_on,0,0,1,,,,,,,,,0,,,72,36
15900,note_on,30,0,1,,,,,,,,,0,,,75,0
15930,note_on,0,0,1,,,,,,,,,0,,,69,36
15930,note_on,30,0,1,,,,,,,,,0,,,72,0
15960,note_on,0,0,3,,,,,,,,,2,,,54,0
15960,note_on,30,0,1,,,,,,,,,0,,,69,0
15960,control_change,0,0,1,,,,,,,,,0,64,0,,
15960,note_on,0,0,1,,,,,,,,,0,,,62,36
15960,note_on,120,0,3,,,,,,,,,2,,,60,0
15960,note_on,0,0,3,,,,,,,,,2,,,58,49
15960,note_on,0,0,3,,,,,,,,,2,,,55,49
15990,note_on,30,0,1,,,,,,,,,0,,,62,0
15990,note_on,0,0,1,,,,,,,,,0,,,74,36
16020,note_on,30,0,1,,,,,,,,,0,,,74,0
16020,note_on,0,0,1,,,,,,,,,0,,,70,36
16050,note_on,30,0,1,,,,,,,,,0,,,70,0
16050,note_on,0,0,1,,,,,,,,,0,,,67,36
16080,note_on,30,0,1,,,,,,,,,0,,,67,0
16080,control_change,0,0,1,,,,,,,,,0,64,127,,
16080,note_on,0,0,1,,,,,,,,,0,,,61,36
16080,note_on,120,0,3,,,,,,,,,2,,,58,0
16080,note_on,0,0,3,,,,,,,,,2,,,55,0
16080,note_on,0,0,3,,,,,,,,,2,,,52,36
16080,note_on,0,0,3,,,,,,,,,2,,,58,36
16110,note_on,30,0,1,,,,,,,,,0,,,61,0
16110,note_on,0,0,1,,,,,,,,,0,,,73,36
16140,set_tempo,10380,1,0,,,,,,869565,,,,,,,
16140,note_on,0,0,1,,,,,,,,,0,,,70,36
16140,note_on,30,0,1,,,,,,,,,0,,,73,0
16170,note_on,30,0,1,,,,,,,,,0,,,70,0
16170,note_on,0,0,1,,,,,,,,,0,,,67,36
16200,note_on,0,0,3,,,,,,,,,2,,,53,36
16200,set_tempo,60,1,0,,,,,,909091,,,,,,,
16200,note_on,0,0,1,,,,,,,,,0,,,60,36
16200,note_on,30,0,1,,,,,,,,,0,,,67,0
16200,control_change,0,0,1,,,,,,,,,0,64,0,,
16200,note_on,120,0,3,,,,,,,,,2,,,58,0
16200,note_on,0,0,3,,,,,,,,,2,,,57,36
16200,note_on,0,0,3,,,,,,,,,2,,,52,0
16230,note_on,0,0,1,,,,,,,,,0,,,72,36
16230,note_on,30,0,1,,,,,,,,,0,,,60,0
16260,note_on,0,0,1,,,,,,,,,0,,,69,36
16260,note_on,30,0,1,,,,,,,,,0,,,72,0
16260,set_tempo,60,1,0,,,,,,952381,,,,,,,
16290,note_on,0,0,1,,,,,,,,,0,,,65,36
16290,note_on,30,0,1,,,,,,,,,0,,,69,0
16320,note_on,0,0,3,,,,,,,,,2,,,55,36
16320,note_on,0,0,3,,,,,,,,,2,,,46,36
16320,set_tempo,60,1,0,,,,,,1016949,,,,,,,
16320,note_on,0,0,3,,,,,,,,,2,,,53,0
16320,note_on,120,0,3,,,,,,,,,2,,,57,0
16320,note_on,30,0,1,,,,,,,,,0,,,65,0
16320,control_change,0,0,1,,,,,,,,,0,64,127,,
16320,note_on,0,0,1,,,,,,,,,0,,,62,36
16350,note_on,0,0,1,,,,,,,,,0,,,70,36
16350,note_on,30,0,1,,,,,,,,,0,,,62,0
16380,set_tempo,60,1,0,,,,,,1071429,,,,,,,
16380,note_on,30,0,1,,,,,,,,,0,,,70,0
16380,note_on,0,0,1,,,,,,,,,0,,,67,36
16410,note_on,30,0,1,,,,,,,,,0,,,67,0
16410,note_on,0,0,1,,,,,,,,,0,,,61,36
16440,note_on,120,0,3,,,,,,,,,2,,,55,0
16440,note_on,0,0,3,,,,,,,,,2,,,46,0
16440,note_on,0,0,3,,,,,,,,,2,,,48,36
16440,note_on,0,0,3,,,,,,,,,2,,,52,36
16440,set_tempo,60,1,0,,,,,,1132075,,,,,,,
16440,note_on,0,0,1,,,,,,,,,0,,,58,36
16440,note_on,30,0,1,,,,,,,,,0,,,61,0
16470,note_on,30,0,1,,,,,,,,,0,,,58,0
16470,note_on,0,0,1,,,,,,,,,0,,,67,36
16500,set_tempo,60,1,0,,,,,,1200000,,,,,,,
16500,note_on,30,0,1,,,,,,,,,0,,,67,0
16500,note_on,0,0,1,,,,,,,,,0,,,64,36
16530,note_on,30,0,1,,,,,,,,,0,,,64,0
16530,note_on,0,0,1,,,,,,,,,0,,,60,36
16530,control_change,0,0,1,,,,,,,,,0,64,0,,
16560,control_change,0,0,3,,,,,,,,,2,64,127,,
16560,note_on,0,0,3,,,,,,,,,2,,,48,0
16560,note_on,120,0,3,,,,,,,,,2,,,52,0
16560,key_signature,60,1,0,,,,,F,,,,,,,,
16560,set_tempo,0,1,0,,,,,,882353,,,,,,,
16560,note_on,0,0,1,,,,,,,,,0,,,72,49
16560,note_on,30,0,1,,,,,,,,,0,,,60,0
16560,note_on,0,0,3,,,,,,,,,2,,,41,36
16564,note_on,4,0,3,,,,,,,,,2,,,41,0
16590,note_on,26,0,3,,,,,,,,,2,,,57,36
16620,note_on,30,0,3,,,,,,,,,2,,,57,0
16620,note_on,0,0,3,,,,,,,,,2,,,60,36
16650,note_on,30,0,3,,,,,,,,,2,,,60,0
16650,note_on,0,0,3,,,,,,,,,2,,,57,36
16680,note_on,30,0,3,,,,,,,,,2,,,57,0
16680,note_on,0,0,3,,,,,,,,,2,,,45,36
16684,note_on,4,0,3,,,,,,,,,2,,,45,0
16710,note_on,26,0,3,,,,,,,,,2,,,57,36
16740,note_on,180,0,1,,,,,,,,,0,,,72,0
16740,note_on,0,0,1,,,,,,,,,0,,,65,49
16740,note_on,0,0,1,,,,,,,,,0,,,77,49
16740,note_on,0,0,3,,,,,,,,,2,,,60,36
16740,note_on,30,0,3,,,,,,,,,2,,,57,0
16770,note_on,0,0,3,,,,,,,,,2,,,57,36
16770,control_change,0,0,3,,,,,,,,,2,64,0,,
16770,note_on,30,0,3,,,,,,,,,2,,,60,0
16800,note_on,30,0,3,,,,,,,,,2,,,57,0
16800,note_on,0,0,3,,,,,,,,,2,,,48,36
16800,control_change,0,0,3,,,,,,,,,2,64,127,,
16804,note_on,4,0,3,,,,,,,,,2,,,48,0
16830,note_on,26,0,3,,,,,,,,,2,,,55,36
16860,note_on,0,0,1,,,,,,,,,0,,,64,49
16860,note_on,30,0,3,,,,,,,,,2,,,55,0
16860,note_on,0,0,3,,,,,,,,,2,,,58,36
16860,note_on,0,0,1,,,,,,,,,0,,,76,49
16860,note_on,0,0,1,,,,,,,,,0,,,65,0
16860,note_on,120,0,1,,,,,,,,,0,,,77,0
16890,note_on,30,0,3,,,,,,,,,2,,,58,0
16890,control_change,0,0,3,,,,,,,,,2,64,0,,
16890,note_on,0,0,3,,,,,,,,,2,,,55,36
16920,note_on,0,0,1,,,,,,,,,0,,,64,0
16920,note_on,0,0,3,,,,,,,,,2,,,50,36
16920,note_on,30,0,3,,,,,,,,,2,,,55,0
16920,note_on,0,0,1,,,,,,,,,0,,,77,49
16920,note_on,0,0,1,,,,,,,,,0,,,65,49
16920,note_on,60,0,1,,,,,,,,,0,,,76,0
16924,note_on,4,0,3,,,,,,,,,2,,,50,0
16950,note_on,26,0,3,,,,,,,,,2,,,53,36
16980,note_on,30,0,3,,,,,,,,,2,,,53,0
16980,note_on,0,0,3,,,,,,,,,2,,,57,36
17010,note_on,30,0,3,,,,,,,,,2,,,57,0
17010,note_on,0,0,3,,,,,,,,,2,,,53,36
17040,note_on,30,0,3,,,,,,,,,2,,,53,0
17040,note_on,120,0,1,,,,,,,,,0,,,77,0
17040,note_on,0,0,1,,,,,,,,,0,,,65,0
17040,note_on,0,0,1,,,,,,,,,0,,,67,49
17040,note_on,0,0,1,,,,,,,,,0,,,79,49
17040,control_change,0,0,3,,,,,,,,,2,64,127,,
17040,note_on,0,0,3,,,,,,,,,2,,,46,36
17044,note_on,4,0,3,,,,,,,,,2,,,46,0
17070,note_on,26,0,3,,,,,,,,,2,,,58,36
17100,note_on,0,0,3,,,,,,,,,2,,,62,36
17100,note_on,30,0,3,,,,,,,,,2,,,58,0
17130,note_on,30,0,3,,,,,,,,,2,,,62,0
17130,control_change,0,0,3,,,,,,,,,2,64,0,,
17130,note_on,0,0,3,,,,,,,,,2,,,58,36
17160,note_on,0,0,1,,,,,,,,,0,,,69,49
17160,note_on,0,0,1,,,,,,,,,0,,,81,49
17160,note_on,0,0,1,,,,,,,,,0,,,67,0
17160,note_on,30,0,3,,,,,,,,,2,,,58,0
17160,control_change,0,0,3,,,,,,,,,2,64,127,,
17160,note_on,0,0,3,,,,,,,,,2,,,47,36
17160,note_on,120,0,1,,,,,,,,,0,,,79,0
17164,note_on,4,0,3,,,,,,,,,2,,,47,0
17190,note_on,26,0,3,,,,,,,,,2,,,59,36
17220,note_on,30,0,3,,,,,,,,,2,,,59,0
17220,note_on,0,0,3,,,,,,,,,2,,,62,36
17250,note_on,0,0,1,,,,,,,,,0,,,65,49
17250,note_on,0,0,1,,,,,,,,,0,,,69,0
17250,note_on,90,0,1,,,,,,,,,0,,,81,0
17250,note_on,30,0,3,,,,,,,,,2,,,62,0
17250,control_change,0,0,3,,,,,,,,,2,64,0,,
17250,note_on,0,0,3,,,,,,,,,2,,,59,36
17250,note_on,0,0,1,,,,,,,,,0,,,77,49
17280,note_on,30,0,1,,,,,,,,,0,,,77,0
17280,note_on,30,0,3,,,,,,,,,2,,,59,0
17280,control_change,0,0,3,,,,,,,,,2,64,127,,
17280,note_on,0,0,1,,,,,,,,,0,,,65,0
17280,note_on,0,0,3,,,,,,,,,2,,,48,36
17280,note_on,0,0,1,,,,,,,,,0,,,81,49
17280,note_on,0,0,1,,,,,,,,,0,,,69,49
17284,note_on,4,0,3,,,,,,,,,2,,,48,0
17310,note_on,26,0,3,,,,,,,,,2,,,60,36
17340,note_on,0,0,3,,,,,,,,,2,,,65,36
17340,note_on,30,0,3,,,,,,,,,2,,,60,0
17370,note_on,30,0,3,,,,,,,,,2,,,65,0
17370,note_on,0,0,3,,,,,,,,,2,,,60,36
17400,note_on,30,0,3,,,,,,,,,2,,,60,0
17400,control_change,0,0,3,,,,,,,,,2,64,0,,
17400,note_on,0,0,3,,,,,,,,,2,,,64,36
17400,note_on,120,0,1,,,,,,,,,0,,,81,0
17400,note_on,0,0,1,,,,,,,,,0,,,69,0
17400,note_on,0,0,1,,,,,,,,,0,,,67,49
17400,note_on,0,0,1,,,,,,,,,0,,,79,49
17430,note_on,0,0,3,,,,,,,,,2,,,60,36
17430,note_on,30,0,3,,,,,,,,,2,,,64,0
17460,note_on,30,0,3,,,,,,,,,2,,,60,0
17460,note_on,0,0,3,,,,,,,,,2,,,58,36
17490,note_on,30,0,3,,,,,,,,,2,,,58,0
17490,note_on,0,0,3,,,,,,,,,2,,,55,36
17520,note_on,0,0,1,,,,,,,,,0,,,72,49
17520,set_tempo,960,1,0,,,,,,833333,,,,,,,
17520,note_on,30,0,3,,,,,,,,,2,,,55,0
17520,control_change,0,0,3,,,,,,,,,2,64,127,,
17520,note_on,0,0,3,,,,,,,,,2,,,41,36
17520,note_on,120,0,1,,,,,,,,,0,,,79,0
17520,note_on,0,0,1,,,,,,,,,0,,,67,0
17524,note_on,4,0,3,,,,,,,,,2,,,41,0
17550,note_on,26,0,3,,,,,,,,,2,,,57,36
17580,note_on,30,0,3,,,,,,,,,2,,,57,0
17580,note_on,0,0,3,,,,,,,,,2,,,60,36
17610,note_on,0,0,3,,,,,,,,,2,,,57,36
17610,note_on,30,0,3,,,,,,,,,2,,,60,0
17640,note_on,0,0,3,,,,,,,,,2,,,45,36
17640,note_on,30,0,3,,,,,,,,,2,,,57,0
17644,note_on,4,0,3,,,,,,,,,2,,,45,0
17670,note_on,26,0,3,,,,,,,,,2,,,57,36
17700,note_on,30,0,3,,,,,,,,,2,,,57,0
17700,note_on,0,0,3,,,,,,,,,2,,,60,36
17700,note_on,180,0,1,,,,,,,,,0,,,72,0
17700,note_on,0,0,1,,,,,,,,,0,,,65,49
17700,note_on,0,0,1,,,,,,,,,0,,,77,49
17730,control_change,0,0,3,,,,,,,,,2,64,0,,
17730,note_on,30,0,3,,,,,,,,,2,,,60,0
17730,note_on,0,0,3,,,,,,,,,2,,,57,36
17760,note_on,0,0,3,,,,,,,,,2,,,48,36
17760,control_change,0,0,3,,,,,,,,,2,64,127,,
17760,note_on,30,0,3,,,,,,,,,2,,,57,0
17764,note_on,4,0,3,,,,,,,,,2,,,48,0
17790,note_on,26,0,3,,,,,,,,,2,,,55,36
17820,note_on,0,0,3,,,,,,,,,2,,,58,36
17820,note_on,30,0,3,,,,,,,,,2,,,55,0
17820,note_on,0,0,1,,,,,,,,,0,,,64,49
17820,note_on,0,0,1,,,,,,,,,0,,,76,49
17820,note_on,0,0,1,,,,,,,,,0,,,65,0
17820,note_on,120,0,1,,,,,,,,,0,,,77,0
17850,note_on,30,0,3,,,,,,,,,2,,,58,0
17850,control_change,0,0,3,,,,,,,,,2,64,0,,
17850,note_on,0,0,3,,,,,,,,,2,,,55,36
17880,note_on,30,0,3,,,,,,,,,2,,,55,0
17880,note_on,0,0,3,,,,,,,,,2,,,50,36
17880,note_on,0,0,1,,,,,,,,,0,,,65,49
17880,note_on,0,0,1,,,,,,,,,0,,,77,49
17880,note_on,0,0,1,,,,,,,,,0,,,64,0
17880,note_on,60,0,1,,,,,,,,,0,,,76,0
17884,note_on,4,0,3,,,,,,,,,2,,,50,0
17910,note_on,26,0,3,,,,,,,,,2,,,53,36
17940,note_on,0,0,3,,,,,,,,,2,,,57,36
17940,note_on,30,0,3,,,,,,,,,2,,,53,0
17970,note_on,0,0,3,,,,,,,,,2,,,53,36
17970,note_on,30,0,3,,,,,,,,,2,,,57,0
18000,note_on,0,0,1,,,,,,,,,0,,,65,0
18000,note_on,0,0,1,,,,,,,,,0,,,67,49
18000,note_on,0,0,1,,,,,,,,,0,,,79,49
18000,note_on,120,0,1,,,,,,,,,0,,,77,0
18000,note_on,0,0,3,,,,,,,,,2,,,46,36
18000,control_change,0,0,3,,,,,,,,,2,64,127,,
18000,note_on,30,0,3,,,,,,,,,2,,,53,0
18004,note_on,4,0,3,,,,,,,,,2,,,46,0
18030,note_on,26,0,3,,,,,,,,,2,,,58,36
18060,note_on,0,0,3,,,,,,,,,2,,,62,36
18060,note_on,30,0,3,,,,,,,,,2,,,58,0
18090,note_on,0,0,3,,,,,,,,,2,,,58,36
18090,control_change,0,0,3,,,,,,,,,2,64,0,,
18090,note_on,30,0,3,,,,,,,,,2,,,62,0
18120,note_on,0,0,3,,,,,,,,,2,,,48,36
18120,control_change,0,0,3,,,,,,,,,2,64,127,,
18120,note_on,30,0,3,,,,,,,,,2,,,58,0
18124,note_on,4,0,3,,,,,,,,,2,,,48,0
18150,note_on,26,0,3,,,,,,,,,2,,,60,36
18180,note_on,0,0,1,,,,,,,,,0,,,81,49
18180,note_on,0,0,1,,,,,,,,,0,,,69,49
18180,note_on,0,0,1,,,,,,,,,0,,,67,0
18180,note_on,180,0,1,,,,,,,,,0,,,79,0
18180,note_on,0,0,3,,,,,,,,,2,,,64,36
18180,note_on,30,0,3,,,,,,,,,2,,,60,0
18210,note_on,0,0,3,,,,,,,,,2,,,60,36
18210,control_change,0,0,3,,,,,,,,,2,64,0,,
18210,note_on,30,0,3,,,,,,,,,2,,,64,0
18210,note_on,0,0,1,,,,,,,,,0,,,69,0
18210,note_on,30,0,1,,,,,,,,,0,,,81,0
18210,note_on,0,0,1,,,,,,,,,0,,,82,49
18210,note_on,0,0,1,,,,,,,,,0,,,70,49
18240,control_change,0,0,3,,,,,,,,,2,64,127,,
18240,note_on,0,0,1,,,,,,,,,0,,,70,49
18240,note_on,0,0,1,,,,,,,,,0,,,70,0
18240,note_on,30,0,1,,,,,,,,,0,,,82,0
18240,note_on,30,0,3,,,,,,,,,2,,,60,0
18240,note_on,0,0,1,,,,,,,,,0,,,82,49
18240,note_on,0,0,3,,,,,,,,,2,,,41,36
18244,note_on,4,0,3,,,,,,,,,2,,,41,0
18270,note_on,26,0,3,,,,,,,,,2,,,60,36
18300,note_on,30,0,3,,,,,,,,,2,,,60,0
18300,note_on,0,0,3,,,,,,,,,2,,,64,36
18330,note_on,0,0,3,,,,,,,,,2,,,60,36
18330,note_on,30,0,3,,,,,,,,,2,,,64,0
18360,note_on,0,0,1,,,,,,,,,0,,,69,49
18360,note_on,0,0,3,,,,,,,,,2,,,65,36
18360,note_on,120,0,1,,,,,,,,,0,,,82,0
18360,note_on,0,0,1,,,,,,,,,0,,,70,0
18360,note_on,30,0,3,,,,,,,,,2,,,60,0
18360,note_on,0,0,1,,,,,,,,,0,,,81,49
18390,control_change,0,0,3,,,,,,,,,2,64,0,,
18390,note_on,30,0,3,,,,,,,,,2,,,65,0
18390,note_on,0,0,3,,,,,,,,,2,,,60,36
18420,note_on,0,0,3,,,,,,,,,2,,,57,36
18420,note_on,30,0,3,,,,,,,,,2,,,60,0
18450,note_on,30,0,3,,,,,,,,,2,,,57,0
18450,note_on,0,0,3,,,,,,,,,2,,,53,36
18480,note_on,0,0,1,,,,,,,,,0,,,69,0
18480,control_change,0,0,3,,,,,,,,,2,64,127,,
18480,note_on,0,0,3,,,,,,,,,2,,,45,49
18480,note_on,30,0,3,,,,,,,,,2,,,53,0
18480,note_on,0,0,1,,,,,,,,,0,,,72,62
18480,note_on,0,0,1,,,,,,,,,0,,,84,62
18480,note_on,120,0,1,,,,,,,,,0,,,81,0
18484,note_on,4,0,3,,,,,,,,,2,,,45,0
18510,note_on,26,0,3,,,,,,,,,2,,,57,49
18510,note_on,0,0,3,,,,,,,,,2,,,60,49
18540,note_on,0,0,3,,,,,,,,,2,,,65,49
18540,note_on,30,0,3,,,,,,,,,2,,,60,0
18540,note_on,0,0,3,,,,,,,,,2,,,57,0
18570,note_on,30,0,3,,,,,,,,,2,,,65,0
18570,note_on,0,0,3,,,,,,,,,2,,,60,49
18570,note_on,0,0,3,,,,,,,,,2,,,57,49
18570,control_change,0,0,3,,,,,,,,,2,64,0,,
18600,note_on,30,0,3,,,,,,,,,2,,,60,0
18600,note_on,0,0,3,,,,,,,,,2,,,57,0
18600,control_change,0,0,3,,,,,,,,,2,64,127,,
18600,note_on,0,0,3,,,,,,,,,2,,,50,49
18600,note_on,0,0,1,,,,,,,,,0,,,86,88
18600,note_on,0,0,1,,,,,,,,,0,,,74,80
18600,note_on,0,0,1,,,,,,,,,0,,,72,0
18600,note_on,120,0,1,,,,,,,,,0,,,84,0
18604,note_on,4,0,3,,,,,,,,,2,,,50,0
18630,note_on,26,0,3,,,,,,,,,2,,,57,49
18630,note_on,0,0,3,,,,,,,,,2,,,60,49
18660,note_on,0,0,3,,,,,,,,,2,,,57,0
18660,note_on,0,0,3,,,,,,,,,2,,,66,49
18660,note_on,30,0,3,,,,,,,,,2,,,60,0
18690,note_on,0,0,3,,,,,,,,,2,,,60,49
18690,note_on,0,0,3,,,,,,,,,2,,,57,49
18690,control_change,0,0,3,,,,,,,,,2,64,0,,
18690,note_on,30,0,3,,,,,,,,,2,,,66,0
18720,note_on,0,0,1,,,,,,,,,0,,,74,0
18720,control_change,0,0,3,,,,,,,,,2,64,127,,
18720,note_on,0,0,1,,,,,,,,,0,,,72,62
18720,note_on,0,0,3,,,,,,,,,2,,,43,49
18720,note_on,0,0,1,,,,,,,,,0,,,84,62
18720,control_change,0,0,1,,,,,,,,,0,64,127,,
18720,note_on,30,0,3,,,,,,,,,2,,,60,0
18720,note_on,0,0,3,,,,,,,,,2,,,57,0
18720,note_on,120,0,1,,,,,,,,,0,,,86,0
18724,note_on,4,0,3,,,,,,,,,2,,,43,0
18726,note_on,0,0,1,,,,,,,,,0,,,72,0
18726,note_on,6,0,1,,,,,,,,,0,,,84,0
18750,note_on,26,0,3,,,,,,,,,2,,,58,49
18750,note_on,0,0,3,,,,,,,,,2,,,62,49
18780,note_on,0,0,1,,,,,,,,,0,,,82,62
18780,note_on,30,0,3,,,,,,,,,2,,,62,0
18780,note_on,0,0,3,,,,,,,,,2,,,58,0
18780,note_on,0,0,3,,,,,,,,,2,,,67,49
18780,note_on,54,0,1,,,,,,,,,0,,,70,62
18786,note_on,0,0,1,,,,,,,,,0,,,70,0
18786,note_on,6,0,1,,,,,,,,,0,,,82,0
18810,note_on,30,0,3,,,,,,,,,2,,,67,0
18810,note_on,0,0,3,,,,,,,,,2,,,62,49
18810,note_on,0,0,3,,,,,,,,,2,,,58,49
18840,control_change,54,0,1,,,,,,,,,0,64,0,,
18840,note_on,0,0,1,,,,,,,,,0,,,67,62
18840,note_on,0,0,1,,,,,,,,,0,,,79,62
18840,note_on,30,0,3,,,,,,,,,2,,,62,0
18840,note_on,0,0,3,,,,,,,,,2,,,58,0
18840,note_on,0,0,3,,,,,,,,,2,,,46,49
18844,note_on,4,0,3,,,,,,,,,2,,,46,0
18870,note_on,0,0,3,,,,,,,,,2,,,58,49
18870,note_on,26,0,3,,,,,,,,,2,,,55,49
18900,note_on,30,0,3,,,,,,,,,2,,,58,0
18900,note_on,0,0,3,,,,,,,,,2,,,55,0
18900,note_on,0,0,3,,,,,,,,,2,,,62,49
18930,note_on,0,0,3,,,,,,,,,2,,,58,49
18930,note_on,0,0,3,,,,,,,,,2,,,55,49
18930,note_on,30,0,3,,,,,,,,,2,,,62,0
18930,control_change,0,0,3,,,,,,,,,2,64,0,,
18960,note_on,120,0,1,,,,,,,,,0,,,79,0
18960,note_on,0,0,1,,,,,,,,,0,,,67,0
18960,note_on,0,0,1,,,,,,,,,0,,,70,62
18960,note_on,0,0,1,,,,,,,,,0,,,82,62
18960,note_on,30,0,3,,,,,,,,,2,,,58,0
18960,note_on,0,0,3,,,,,,,,,2,,,55,0
18960,control_change,0,0,3,,,,,,,,,2,64,127,,
18960,note_on,0,0,3,,,,,,,,,2,,,40,49
18964,note_on,4,0,3,,,,,,,,,2,,,40,0
18990,note_on,26,0,3,,,,,,,,,2,,,55,49
18990,note_on,0,0,3,,,,,,,,,2,,,58,49
19020,note_on,30,0,3,,,,,,,,,2,,,58,0
19020,note_on,0,0,3,,,,,,,,,2,,,55,0
19020,note_on,0,0,3,,,,,,,,,2,,,60,49
19050,note_on,30,0,3,,,,,,,,,2,,,60,0
19050,note_on,0,0,3,,,,,,,,,2,,,55,49
19050,note_on,0,0,3,,,,,,,,,2,,,58,49
19080,note_on,30,0,3,,,,,,,,,2,,,58,0
19080,note_on,0,0,3,,,,,,,,,2,,,55,0
19080,note_on,0,0,3,,,,,,,,,2,,,36,49
19080,note_on,120,0,1,,,,,,,,,0,,,82,0
19080,note_on,0,0,1,,,,,,,,,0,,,70,0
19080,note_on,0,0,1,,,,,,,,,0,,,84,88
19080,note_on,0,0,1,,,,,,,,,0,,,72,80
19084,note_on,4,0,3,,,,,,,,,2,,,36,0
19110,note_on,26,0,3,,,,,,,,,2,,,52,49
19110,note_on,0,0,3,,,,,,,,,2,,,55,49
19140,note_on,30,0,3,,,,,,,,,2,,,55,0
19140,note_on,0,0,3,,,,,,,,,2,,,52,0
19140,note_on,0,0,3,,,,,,,,,2,,,60,49
19170,note_on,30,0,3,,,,,,,,,2,,,60,0
19170,control_change,0,0,3,,,,,,,,,2,64,0,,
19170,note_on,0,0,3,,,,,,,,,2,,,52,49
19170,note_on,0,0,3,,,,,,,,,2,,,55,49
19200,note_on,0,0,1,,,,,,,,,0,,,72,0
19200,note_on,120,0,1,,,,,,,,,0,,,84,0
19200,note_on,0,0,1,,,,,,,,,0,,,65,62
19200,note_on,0,0,1,,,,,,,,,0,,,77,62
19200,control_change,0,0,3,,,,,,,,,2,64,127,,
19200,note_on,0,0,3,,,,,,,,,2,,,52,0
19200,note_on,30,0,3,,,,,,,,,2,,,55,0
19200,note_on,0,0,3,,,,,,,,,2,,,45,49
19204,note_on,4,0,3,,,,,,,,,2,,,45,0
19230,note_on,26,0,3,,,,,,,,,2,,,53,49
19230,note_on,0,0,3,,,,,,,,,2,,,57,49
19260,note_on,0,0,3,,,,,,,,,2,,,53,0
19260,note_on,0,0,3,,,,,,,,,2,,,60,49
19260,note_on,30,0,3,,,,,,,,,2,,,57,0
19290,note_on,0,0,1,,,,,,,,,0,,,79,62
19290,note_on,0,0,1,,,,,,,,,0,,,67,62
19290,note_on,0,0,1,,,,,,,,,0,,,65,0
19290,note_on,90,0,1,,,,,,,,,0,,,77,0
19290,control_change,0,0,3,,,,,,,,,2,64,0,,
19290,note_on,0,0,3,,,,,,,,,2,,,53,49
19290,note_on,30,0,3,,,,,,,,,2,,,60,0
19290,note_on,0,0,3,,,,,,,,,2,,,57,49
19320,note_on,0,0,1,,,,,,,,,0,,,69,80
19320,note_on,30,0,1,,,,,,,,,0,,,79,0
19320,note_on,0,0,1,,,,,,,,,0,,,67,0
19320,note_on,0,0,1,,,,,,,,,0,,,81,88
19320,note_on,0,0,3,,,,,,,,,2,,,53,0
19320,note_on,30,0,3,,,,,,,,,2,,,57,0
19320,control_change,0,0,3,,,,,,,,,2,64,127,,
19320,note_on,0,0,3,,,,,,,,,2,,,47,49
19324,note_on,4,0,3,,,,,,,,,2,,,47,0
19350,note_on,26,0,3,,,,,,,,,2,,,53,49
19350,note_on,0,0,3,,,,,,,,,2,,,57,49
19380,note_on,30,0,3,,,,,,,,,2,,,57,0
19380,note_on,0,0,3,,,,,,,,,2,,,53,0
19380,note_on,0,0,3,,,,,,,,,2,,,62,49
19410,control_change,0,0,3,,,,,,,,,2,64,0,,
19410,note_on,30,0,3,,,,,,,,,2,,,62,0
19410,note_on,0,0,3,,,,,,,,,2,,,53,49
19410,note_on,0,0,3,,,,,,,,,2,,,57,49
19440,note_on,30,0,3,,,,,,,,,2,,,57,0
19440,note_on,0,0,1,,,,,,,,,0,,,69,0
19440,note_on,0,0,1,,,,,,,,,0,,,67,62
19440,note_on,0,0,1,,,,,,,,,0,,,79,62
19440,note_on,0,0,3,,,,,,,,,2,,,46,49
19440,control_change,0,0,3,,,,,,,,,2,64,127,,
19440,note_on,0,0,3,,,,,,,,,2,,,53,0
19440,note_on,120,0,1,,,,,,,,,0,,,81,0
19444,note_on,4,0,3,,,,,,,,,2,,,46,0
19470,note_on,0,0,3,,,,,,,,,2,,,55,49
19470,note_on,26,0,3,,,,,,,,,2,,,53,49
19500,note_on,0,0,1,,,,,,,,,0,,,67,0
19500,note_on,60,0,1,,,,,,,,,0,,,79,0
19500,note_on,0,0,1,,,,,,,,,0,,,79,62
19500,note_on,0,0,1,,,,,,,,,0,,,67,62
19500,note_on,30,0,3,,,,,,,,,2,,,55,0
19500,note_on,0,0,3,,,,,,,,,2,,,53,0
19500,note_on,0,0,3,,,,,,,,,2,,,62,49
19506,note_on,0,0,1,,,,,,,,,0,,,67,0
19506,note_on,6,0,1,,,,,,,,,0,,,79,0
19530,note_on,30,0,3,,,,,,,,,2,,,62,0
19530,control_change,0,0,3,,,,,,,,,2,64,0,,
19530,note_on,0,0,3,,,,,,,,,2,,,53,49
19530,note_on,0,0,3,,,,,,,,,2,,,55,49
19560,note_on,0,0,1,,,,,,,,,0,,,67,62
19560,note_on,0,0,1,,,,,,,,,0,,,79,62
19560,note_on,0,0,3,,,,,,,,,2,,,53,0
19560,control_change,0,0,3,,,,,,,,,2,64,127,,
19560,note_on,0,0,3,,,,,,,,,2,,,48,49
19560,note_on,30,0,3,,,,,,,,,2,,,55,0
19560,control_change,54,0,1,,,,,,,,,0,64,127,,
19564,note_on,4,0,3,,,,,,,,,2,,,48,0
19590,note_on,26,0,3,,,,,,,,,2,,,52,49
19590,note_on,0,0,3,,,,,,,,,2,,,55,49
19620,note_on,0,0,3,,,,,,,,,2,,,52,0
19620,note_on,0,0,3,,,,,,,,,2,,,60,49
19620,note_on,0,0,1,,,,,,,,,0,,,82,62
19620,note_on,0,0,1,,,,,,,,,0,,,70,62
19620,note_on,0,0,1,,,,,,,,,0,,,67,0
19620,note_on,60,0,1,,,,,,,,,0,,,79,0
19620,note_on,30,0,3,,,,,,,,,2,,,55,0
19650,note_on,30,0,3,,,,,,,,,2,,,60,0
19650,control_change,0,0,3,,,,,,,,,2,64,0,,
19650,note_on,0,0,3,,,,,,,,,2,,,52,49
19650,note_on,0,0,3,,,,,,,,,2,,,55,49
19665,note_on,0,0,1,,,,,,,,,0,,,70,0
19665,note_on,0,0,1,,,,,,,,,0,,,69,62
19665,note_on,0,0,1,,,,,,,,,0,,,81,62
19665,control_change,0,0,1,,,,,,,,,0,64,0,,
19665,note_on,45,0,1,,,,,,,,,0,,,82,0
19680,note_on,30,0,3,,,,,,,,,2,,,55,0
19680,note_on,0,0,3,,,,,,,,,2,,,52,0
19680,control_change,0,0,3,,,,,,,,,2,64,127,,
19680,note_on,0,0,3,,,,,,,,,2,,,41,49
19680,note_on,15,0,1,,,,,,,,,0,,,81,0
19680,note_on,0,0,1,,,,,,,,,0,,,69,0
19680,note_on,0,0,1,,,,,,,,,0,,,69,62
19680,note_on,0,0,1,,,,,,,,,0,,,81,62
19684,note_on,4,0,3,,,,,,,,,2,,,41,0
19710,note_on,26,0,3,,,,,,,,,2,,,53,49
19710,note_on,0,0,3,,,,,,,,,2,,,57,49
19740,note_on,30,0,3,,,,,,,,,2,,,57,0
19740,note_on,0,0,3,,,,,,,,,2,,,53,0
19740,note_on,0,0,3,,,,,,,,,2,,,60,49
19770,note_on,0,0,3,,,,,,,,,2,,,53,49
19770,note_on,0,0,3,,,,,,,,,2,,,57,49
19770,note_on,30,0,3,,,,,,,,,2,,,60,0
19800,note_on,120,0,1,,,,,,,,,0,,,81,0
19800,note_on,0,0,3,,,,,,,,,2,,,53,0
19800,note_on,0,0,3,,,,,,,,,2,,,45,49
19800,note_on,0,0,1,,,,,,,,,0,,,84,88
19800,note_on,0,0,1,,,,,,,,,0,,,72,80
19800,note_on,0,0,1,,,,,,,,,0,,,69,0
19800,note_on,30,0,3,,,,,,,,,2,,,57,0
19804,note_on,4,0,3,,,,,,,,,2,,,45,0
19830,note_on,26,0,3,,,,,,,,,2,,,57,49
19830,note_on,0,0,3,,,,,,,,,2,,,60,49
19860,note_on,30,0,3,,,,,,,,,2,,,60,0
19860,note_on,0,0,3,,,,,,,,,2,,,57,0
19860,note_on,0,0,3,,,,,,,,,2,,,65,49
19890,note_on,30,0,3,,,,,,,,,2,,,65,0
19890,control_change,0,0,3,,,,,,,,,2,64,0,,
19890,note_on,0,0,3,,,,,,,,,2,,,57,49
19890,note_on,0,0,3,,,,,,,,,2,,,60,49
19920,note_on,0,0,1,,,,,,,,,0,,,67,62
19920,note_on,0,0,1,,,,,,,,,0,,,72,0
19920,note_on,120,0,1,,,,,,,,,0,,,84,0
19920,control_change,0,0,3,,,,,,,,,2,64,127,,
19920,note_on,0,0,1,,,,,,,,,0,,,79,62
19920,note_on,0,0,3,,,,,,,,,2,,,57,0
19920,note_on,30,0,3,,,,,,,,,2,,,60,0
19920,note_on,0,0,3,,,,,,,,,2,,,46,49
19920,control_change,0,0,1,,,,,,,,,0,64,127,,
19924,note_on,4,0,3,,,,,,,,,2,,,46,0
19926,note_on,0,0,1,,,,,,,,,0,,,67,0
19926,note_on,6,0,1,,,,,,,,,0,,,79,0
19950,note_on,26,0,3,,,,,,,,,2,,,53,49
19950,note_on,0,0,3,,,,,,,,,2,,,55,49
19980,note_on,0,0,1,,,,,,,,,0,,,79,62
19980,control_change,54,0,1,,,,,,,,,0,64,0,,
19980,note_on,0,0,1,,,,,,,,,0,,,67,62
19980,note_on,0,0,3,,,,,,,,,2,,,62,49
19980,note_on,30,0,3,,,,,,,,,2,,,55,0
19980,note_on,0,0,3,,,,,,,,,2,,,53,0
19986,note_on,0,0,1,,,,,,,,,0,,,67,0
19986,note_on,6,0,1,,,,,,,,,0,,,79,0
20010,control_change,0,0,3,,,,,,,,,2,64,0,,
20010,note_on,0,0,3,,,,,,,,,2,,,55,49
20010,note_on,30,0,3,,,,,,,,,2,,,62,0
20010,note_on,0,0,3,,,,,,,,,2,,,53,49
20040,note_on,30,0,3,,,,,,,,,2,,,55,0
20040,note_on,0,0,3,,,,,,,,,2,,,53,0
20040,control_change,0,0,3,,,,,,,,,2,64,127,,
20040,note_on,0,0,3,,,,,,,,,2,,,48,49
20040,control_change,54,0,1,,,,,,,,,0,64,127,,
20040,note_on,0,0,1,,,,,,,,,0,,,67,62
20040,note_on,0,0,1,,,,,,,,,0,,,79,62
20044,note_on,4,0,3,,,,,,,,,2,,,48,0
20070,note_on,26,0,3,,,,,,,,,2,,,52,49
20070,note_on,0,0,3,,,,,,,,,2,,,55,49
20100,note_on,0,0,1,,,,,,,,,0,,,82,62
20100,note_on,0,0,1,,,,,,,,,0,,,67,0
20100,note_on,0,0,3,,,,,,,,,2,,,52,0
20100,note_on,0,0,3,,,,,,,,,2,,,60,49
20100,note_on,0,0,1,,,,,,,,,0,,,70,62
20100,note_on,60,0,1,,,,,,,,,0,,,79,0
20100,note_on,30,0,3,,,,,,,,,2,,,55,0
20130,note_on,30,0,3,,,,,,,,,2,,,60,0
20130,note_on,0,0,3,,,,,,,,,2,,,55,49
20130,note_on,0,0,3,,,,,,,,,2,,,52,49
20130,control_change,0,0,3,,,,,,,,,2,64,0,,
20145,note_on,0,0,1,,,,,,,,,0,,,81,62
20145,note_on,45,0,1,,,,,,,,,0,,,82,0
20145,control_change,0,0,1,,,,,,,,,0,64,0,,
20145,note_on,0,0,1,,,,,,,,,0,,,69,62
20145,note_on,0,0,1,,,,,,,,,0,,,70,0
20160,note_on,0,0,1,,,,,,,,,0,,,69,0
20160,note_on,0,0,1,,,,,,,,,0,,,65,62
20160,note_on,0,0,1,,,,,,,,,0,,,77,62
20160,control_change,0,0,3,,,,,,,,,2,64,127,,
20160,note_on,0,0,3,,,,,,,,,2,,,52,0
20160,note_on,30,0,3,,,,,,,,,2,,,55,0
20160,note_on,15,0,1,,,,,,,,,0,,,81,0
20160,note_on,0,0,3,,,,,,,,,2,,,41,49
20164,note_on,4,0,3,,,,,,,,,2,,,41,0
20190,note_on,0,0,3,,,,,,,,,2,,,60,49
20190,note_on,26,0,3,,,,,,,,,2,,,57,49
20220,note_on,30,0,3,,,,,,,,,2,,,60,0
20220,note_on,0,0,3,,,,,,,,,2,,,65,49
20220,note_on,0,0,3,,,,,,,,,2,,,57,0
20250,note_on,0,0,3,,,,,,,,,2,,,57,49
20250,note_on,30,0,3,,,,,,,,,2,,,65,0
20250,note_on,0,0,3,,,,,,,,,2,,,60,49
20280,note_on,120,0,1,,,,,,,,,0,,,77,0
20280,note_on,0,0,1,,,,,,,,,0,,,65,0
20280,note_on,0,0,3,,,,,,,,,2,,,65,49
20280,note_on,30,0,3,,,,,,,,,2,,,60,0
20280,note_on,0,0,3,,,,,,,,,2,,,57,0
20280,control_change,0,0,3,,,,,,,,,2,64,0,,
20340,note_on,60,0,3,,,,,,,,,2,,,65,0
20400,note_on,0,0,1,,,,,,,,,0,,,84,62
20400,note_on,0,0,3,,,,,,,,,2,,,45,49
20400,control_change,60,0,3,,,,,,,,,2,64,127,,
20400,note_on,120,0,1,,,,,,,,,0,,,72,62
20404,note_on,4,0,3,,,,,,,,,2,,,45,0
20430,note_on,0,0,3,,,,,,,,,2,,,60,49
20430,note_on,26,0,3,,,,,,,,,2,,,57,49
20460,note_on,0,0,3,,,,,,,,,2,,,65,49
20460,note_on,0,0,3,,,,,,,,,2,,,57,0
20460,note_on,30,0,3,,,,,,,,,2,,,60,0
20490,note_on,30,0,3,,,,,,,,,2,,,65,0
20490,note_on,0,0,3,,,,,,,,,2,,,57,49
20490,note_on,0,0,3,,,,,,,,,2,,,60,49
20490,control_change,0,0,3,,,,,,,,,2,64,0,,
20520,note_on,120,0,1,,,,,,,,,0,,,84,0
20520,note_on,0,0,1,,,,,,,,,0,,,86,88
20520,note_on,0,0,1,,,,,,,,,0,,,74,80
20520,note_on,0,0,1,,,,,,,,,0,,,72,0
20520,note_on,0,0,3,,,,,,,,,2,,,50,49
20520,note_on,30,0,3,,,,,,,,,2,,,60,0
20520,note_on,0,0,3,,,,,,,,,2,,,57,0
20520,control_change,0,0,3,,,,,,,,,2,64,127,,
20524,note_on,4,0,3,,,,,,,,,2,,,50,0
20550,note_on,26,0,3,,,,,,,,,2,,,57,49
20550,note_on,0,0,3,,,,,,,,,2,,,60,49
20580,note_on,30,0,3,,,,,,,,,2,,,60,0
20580,note_on,0,0,3,,,,,,,,,2,,,57,0
20580,note_on,0,0,3,,,,,,,,,2,,,66,49
20610,note_on,0,0,3,,,,,,,,,2,,,60,49
20610,note_on,0,0,3,,,,,,,,,2,,,57,49
20610,control_change,0,0,3,,,,,,,,,2,64,0,,
20610,note_on,30,0,3,,,,,,,,,2,,,66,0
20640,note_on,120,0,1,,,,,,,,,0,,,86,0
20640,note_on,0,0,1,,,,,,,,,0,,,84,62
20640,note_on,30,0,3,,,,,,,,,2,,,60,0
20640,note_on,0,0,3,,,,,,,,,2,,,43,49
20640,control_change,0,0,1,,,,,,,,,0,64,127,,
20640,note_on,0,0,3,,,,,,,,,2,,,57,0
20640,note_on,0,0,1,,,,,,,,,0,,,74,0
20640,control_change,0,0,3,,,,,,,,,2,64,127,,
20640,note_on,0,0,1,,,,,,,,,0,,,72,62
20644,note_on,4,0,3,,,,,,,,,2,,,43,0
20646,note_on,0,0,1,,,,,,,,,0,,,72,0
20646,note_on,6,0,1,,,,,,,,,0,,,84,0
20670,note_on,26,0,3,,,,,,,,,2,,,58,49
20670,note_on,0,0,3,,,,,,,,,2,,,62,49
20700,note_on,0,0,3,,,,,,,,,2,,,58,0
20700,note_on,0,0,3,,,,,,,,,2,,,67,49
20700,note_on,30,0,3,,,,,,,,,2,,,62,0
20700,note_on,0,0,1,,,,,,,,,0,,,82,62
20700,note_on,54,0,1,,,,,,,,,0,,,70,62
20706,note_on,6,0,1,,,,,,,,,0,,,82,0
20706,note_on,0,0,1,,,,,,,,,0,,,70,0
20730,note_on,30,0,3,,,,,,,,,2,,,67,0
20730,note_on,0,0,3,,,,,,,,,2,,,58,49
20730,note_on,0,0,3,,,,,,,,,2,,,62,49
20760,note_on,30,0,3,,,,,,,,,2,,,62,0
20760,note_on,0,0,3,,,,,,,,,2,,,58,0
20760,note_on,0,0,3,,,,,,,,,2,,,46,49
20760,note_on,0,0,1,,,,,,,,,0,,,79,62
20760,control_change,54,0,1,,,,,,,,,0,64,0,,
20760,note_on,0,0,1,,,,,,,,,0,,,67,62
20764,note_on,4,0,3,,,,,,,,,2,,,46,0
20790,note_on,26,0,3,,,,,,,,,2,,,55,49
20790,note_on,0,0,3,,,,,,,,,2,,,58,49
20820,note_on,30,0,3,,,,,,,,,2,,,58,0
20820,note_on,0,0,3,,,,,,,,,2,,,55,0
20820,note_on,0,0,3,,,,,,,,,2,,,62,49
20850,note_on,0,0,3,,,,,,,,,2,,,55,49
20850,control_change,0,0,3,,,,,,,,,2,64,0,,
20850,note_on,30,0,3,,,,,,,,,2,,,62,0
20850,note_on,0,0,3,,,,,,,,,2,,,58,49
20880,note_on,30,0,3,,,,,,,,,2,,,58,0
20880,note_on,0,0,3,,,,,,,,,2,,,55,0
20880,control_change,0,0,3,,,,,,,,,2,64,127,,
20880,note_on,0,0,3,,,,,,,,,2,,,40,49
20880,note_on,120,0,1,,,,,,,,,0,,,79,0
20880,note_on,0,0,1,,,,,,,,,0,,,67,0
20880,note_on,0,0,1,,,,,,,,,0,,,70,62
20880,note_on,0,0,1,,,,,,,,,0,,,82,62
20884,note_on,4,0,3,,,,,,,,,2,,,40,0
20910,note_on,0,0,3,,,,,,,,,2,,,58,49
20910,note_on,26,0,3,,,,,,,,,2,,,55,49
20940,note_on,0,0,3,,,,,,,,,2,,,60,49
20940,note_on,0,0,3,,,,,,,,,2,,,55,0
20940,note_on,30,0,3,,,,,,,,,2,,,58,0
20970,note_on,0,0,3,,,,,,,,,2,,,58,49
20970,note_on,30,0,3,,,,,,,,,2,,,60,0
20970,note_on,0,0,3,,,,,,,,,2,,,55,49
21000,note_on,0,0,1,,,,,,,,,0,,,84,88
21000,note_on,120,0,1,,,,,,,,,0,,,82,0
21000,note_on,0,0,3,,,,,,,,,2,,,36,49
21000,note_on,0,0,3,,,,,,,,,2,,,55,0
21000,note_on,30,0,3,,,,,,,,,2,,,58,0
21000,note_on,0,0,1,,,,,,,,,0,,,72,80
21000,note_on,0,0,1,,,,,,,,,0,,,70,0
21004,note_on,4,0,3,,,,,,,,,2,,,36,0
21030,note_on,26,0,3,,,,,,,,,2,,,52,49
21030,note_on,0,0,3,,,,,,,,,2,,,55,49
21060,note_on,30,0,3,,,,,,,,,2,,,55,0
21060,note_on,0,0,3,,,,,,,,,2,,,52,0
21060,note_on,0,0,3,,,,,,,,,2,,,60,49
21090,note_on,30,0,3,,,,,,,,,2,,,60,0
21090,control_change,0,0,3,,,,,,,,,2,64,0,,
21090,note_on,0,0,3,,,,,,,,,2,,,52,49
21090,note_on,0,0,3,,,,,,,,,2,,,55,49
21120,note_on,0,0,3,,,,,,,,,2,,,45,49
21120,control_change,0,0,3,,,,,,,,,2,64,127,,
21120,note_on,0,0,1,,,,,,,,,0,,,77,62
21120,note_on,120,0,1,,,,,,,,,0,,,84,0
21120,note_on,0,0,3,,,,,,,,,2,,,52,0
21120,note_on,30,0,3,,,,,,,,,2,,,55,0
21120,note_on,0,0,1,,,,,,,,,0,,,72,0
21120,note_on,0,0,1,,,,,,,,,0,,,65,62
21124,note_on,4,0,3,,,,,,,,,2,,,45,0
21150,note_on,26,0,3,,,,,,,,,2,,,53,49
21150,note_on,0,0,3,,,,,,,,,2,,,57,49
21180,note_on,30,0,3,,,,,,,,,2,,,57,0
21180,note_on,0,0,3,,,,,,,,,2,,,53,0
21180,note_on,0,0,3,,,,,,,,,2,,,60,49
21210,note_on,0,0,3,,,,,,,,,2,,,53,49
21210,note_on,30,0,3,,,,,,,,,2,,,60,0
21210,control_change,0,0,3,,,,,,,,,2,64,0,,
21210,note_on,0,0,3,,,,,,,,,2,,,57,49
21210,note_on,90,0,1,,,,,,,,,0,,,77,0
21210,note_on,0,0,1,,,,,,,,,0,,,65,0
21210,note_on,0,0,1,,,,,,,,,0,,,67,62
21210,note_on,0,0,1,,,,,,,,,0,,,79,62
21240,note_on,0,0,1,,,,,,,,,0,,,67,0
21240,note_on,0,0,1,,,,,,,,,0,,,69,80
21240,note_on,30,0,1,,,,,,,,,0,,,79,0
21240,note_on,0,0,3,,,,,,,,,2,,,47,49
21240,control_change,0,0,3,,,,,,,,,2,64,127,,
21240,note_on,0,0,3,,,,,,,,,2,,,53,0
21240,note_on,30,0,3,,,,,,,,,2,,,57,0
21240,note_on,0,0,1,,,,,,,,,0,,,81,88
21244,note_on,4,0,3,,,,,,,,,2,,,47,0
21270,note_on,0,0,3,,,,,,,,,2,,,57,49
21270,note_on,26,0,3,,,,,,,,,2,,,53,49
21300,note_on,0,0,3,,,,,,,,,2,,,62,49
21300,note_on,0,0,3,,,,,,,,,2,,,53,0
21300,note_on,30,0,3,,,,,,,,,2,,,57,0
21330,note_on,0,0,3,,,,,,,,,2,,,53,49
21330,note_on,30,0,3,,,,,,,,,2,,,62,0
21330,note_on,0,0,3,,,,,,,,,2,,,57,49
21330,control_change,0,0,3,,,,,,,,,2,64,0,,
21360,note_on,0,0,3,,,,,,,,,2,,,46,49
21360,control_change,0,0,3,,,,,,,,,2,64,127,,
21360,note_on,0,0,3,,,,,,,,,2,,,53,0
21360,note_on,30,0,3,,,,,,,,,2,,,57,0
21360,note_on,0,0,1,,,,,,,,,0,,,67,62
21360,note_on,0,0,1,,,,,,,,,0,,,69,0
21360,note_on,0,0,1,,,,,,,,,0,,,79,62
21360,note_on,120,0,1,,,,,,,,,0,,,81,0
21364,note_on,4,0,3,,,,,,,,,2,,,46,0
21390,note_on,26,0,3,,,,,,,,,2,,,53,49
21390,note_on,0,0,3,,,,,,,,,2,,,55,49
21420,note_on,0,0,1,,,,,,,,,0,,,67,62
21420,note_on,0,0,1,,,,,,,,,0,,,67,0
21420,note_on,60,0,1,,,,,,,,,0,,,79,0
21420,note_on,0,0,1,,,,,,,,,0,,,79,62
21420,note_on,30,0,3,,,,,,,,,2,,,55,0
21420,note_on,0,0,3,,,,,,,,,2,,,53,0
21420,note_on,0,0,3,,,,,,,,,2,,,62,49
21426,note_on,6,0,1,,,,,,,,,0,,,79,0
21426,note_on,0,0,1,,,,,,,,,0,,,67,0
21450,note_on,0,0,3,,,,,,,,,2,,,53,49
21450,note_on,0,0,3,,,,,,,,,2,,,55,49
21450,note_on,30,0,3,,,,,,,,,2,,,62,0
21450,control_change,0,0,3,,,,,,,,,2,64,0,,
21480,note_on,30,0,3,,,,,,,,,2,,,55,0
21480,note_on,0,0,3,,,,,,,,,2,,,53,0
21480,control_change,0,0,3,,,,,,,,,2,64,127,,
21480,note_on,0,0,1,,,,,,,,,0,,,79,62
21480,note_on,0,0,1,,,,,,,,,0,,,67,62
21480,control_change,54,0,1,,,,,,,,,0,64,127,,
21480,note_on,0,0,3,,,,,,,,,2,,,48,49
21484,note_on,4,0,3,,,,,,,,,2,,,48,0
21510,note_on,26,0,3,,,,,,,,,2,,,52,49
21510,note_on,0,0,3,,,,,,,,,2,,,55,49
21540,note_on,0,0,3,,,,,,,,,2,,,60,49
21540,note_on,0,0,1,,,,,,,,,0,,,70,62
21540,note_on,0,0,1,,,,,,,,,0,,,67,0
21540,note_on,0,0,3,,,,,,,,,2,,,52,0
21540,note_on,30,0,3,,,,,,,,,2,,,55,0
21540,note_on,0,0,1,,,,,,,,,0,,,82,62
21540,note_on,60,0,1,,,,,,,,,0,,,79,0
21570,note_on,30,0,3,,,,,,,,,2,,,60,0
21570,note_on,0,0,3,,,,,,,,,2,,,55,49
21570,note_on,0,0,3,,,,,,,,,2,,,52,49
21570,control_change,0,0,3,,,,,,,,,2,64,0,,
21585,note_on,45,0,1,,,,,,,,,0,,,82,0
21585,note_on,0,0,1,,,,,,,,,0,,,70,0
21585,note_on,0,0,1,,,,,,,,,0,,,69,62
21585,note_on,0,0,1,,,,,,,,,0,,,81,62
21585,control_change,0,0,1,,,,,,,,,0,64,0,,
21600,note_on,15,0,1,,,,,,,,,0,,,81,0
21600,note_on,0,0,1,,,,,,,,,0,,,69,0
21600,note_on,0,0,1,,,,,,,,,0,,,81,62
21600,note_on,0,0,1,,,,,,,,,0,,,69,62
21600,note_on,0,0,3,,,,,,,,,2,,,52,0
21600,control_change,0,0,3,,,,,,,,,2,64,127,,
21600,note_on,0,0,3,,,,,,,,,2,,,41,49
21600,note_on,30,0,3,,,,,,,,,2,,,55,0
21604,note_on,4,0,3,,,,,,,,,2,,,41,0
21630,note_on,26,0,3,,,,,,,,,2,,,53,49
21630,note_on,0,0,3,,,,,,,,,2,,,57,49
21660,note_on,30,0,3,,,,,,,,,2,,,57,0
21660,note_on,0,0,3,,,,,,,,,2,,,53,0
21660,note_on,0,0,3,,,,,,,,,2,,,60,49
21690,note_on,30,0,3,,,,,,,,,2,,,60,0
21690,note_on,0,0,3,,,,,,,,,2,,,53,49
21690,note_on,0,0,3,,,,,,,,,2,,,57,49
21720,note_on,30,0,3,,,,,,,,,2,,,57,0
21720,note_on,0,0,3,,,,,,,,,2,,,53,0
21720,note_on,0,0,3,,,,,,,,,2,,,45,49
21720,note_on,0,0,1,,,,,,,,,0,,,69,0
21720,note_on,120,0,1,,,,,,,,,0,,,81,0
21720,note_on,0,0,1,,,,,,,,,0,,,84,88
21720,note_on,0,0,1,,,,,,,,,0,,,72,80
21724,note_on,4,0,3,,,,,,,,,2,,,45,0
21750,note_on,0,0,3,,,,,,,,,2,,,60,49
21750,note_on,26,0,3,,,,,,,,,2,,,57,49
21780,note_on,0,0,3,,,,,,,,,2,,,57,0
21780,note_on,30,0,3,,,,,,,,,2,,,60,0
21780,note_on,0,0,3,,,,,,,,,2,,,65,49
21810,note_on,30,0,3,,,,,,,,,2,,,65,0
21810,note_on,0,0,3,,,,,,,,,2,,,60,49
21810,note_on,0,0,3,,,,,,,,,2,,,57,49
21810,control_change,0,0,3,,,,,,,,,2,64,0,,
21840,note_on,0,0,3,,,,,,,,,2,,,46,49
21840,control_change,0,0,3,,,,,,,,,2,64,127,,
21840,note_on,0,0,3,,,,,,,,,2,,,57,0
21840,note_on,30,0,3,,,,,,,,,2,,,60,0
21840,note_on,0,0,1,,,,,,,,,0,,,79,62
21840,note_on,0,0,1,,,,,,,,,0,,,67,62
21840,note_on,120,0,1,,,,,,,,,0,,,84,0
21840,note_on,0,0,1,,,,,,,,,0,,,72,0
21840,control_change,0,0,1,,,,,,,,,0,64,127,,
21844,note_on,4,0,3,,,,,,,,,2,,,46,0
21846,note_on,0,0,1,,,,,,,,,0,,,67,0
21846,note_on,6,0,1,,,,,,,,,0,,,79,0
21870,note_on,26,0,3,,,,,,,,,2,,,53,49
21870,note_on,0,0,3,,,,,,,,,2,,,55,49
21900,note_on,0,0,3,,,,,,,,,2,,,62,49
21900,note_on,0,0,1,,,,,,,,,0,,,67,62
21900,note_on,30,0,3,,,,,,,,,2,,,55,0
21900,control_change,54,0,1,,,,,,,,,0,64,0,,
21900,note_on,0,0,1,,,,,,,,,0,,,79,62
21900,note_on,0,0,3,,,,,,,,,2,,,53,0
21906,note_on,6,0,1,,,,,,,,,0,,,79,0
21906,note_on,0,0,1,,,,,,,,,0,,,67,0
21930,note_on,0,0,3,,,,,,,,,2,,,53,49
21930,control_change,0,0,3,,,,,,,,,2,64,0,,
21930,note_on,0,0,3,,,,,,,,,2,,,55,49
21930,note_on,30,0,3,,,,,,,,,2,,,62,0
21960,note_on,0,0,3,,,,,,,,,2,,,53,0
21960,control_change,54,0,1,,,,,,,,,0,64,127,,
21960,note_on,0,0,1,,,,,,,,,0,,,67,62
21960,note_on,0,0,1,,,,,,,,,0,,,79,62
21960,note_on,30,0,3,,,,,,,,,2,,,55,0
21960,control_change,0,0,3,,,,,,,,,2,64,127,,
21960,note_on,0,0,3,,,,,,,,,2,,,48,49
21964,note_on,4,0,3,,,,,,,,,2,,,48,0
21990,note_on,0,0,3,,,,,,,,,2,,,55,49
21990,note_on,26,0,3,,,,,,,,,2,,,52,49
22020,note_on,0,0,3,,,,,,,,,2,,,52,0
22020,note_on,0,0,3,,,,,,,,,2,,,60,49
22020,note_on,60,0,1,,,,,,,,,0,,,79,0
22020,note_on,0,0,1,,,,,,,,,0,,,67,0
22020,note_on,0,0,1,,,,,,,,,0,,,70,62
22020,note_on,0,0,1,,,,,,,,,0,,,82,62
22020,note_on,30,0,3,,,,,,,,,2,,,55,0
22050,note_on,30,0,3,,,,,,,,,2,,,60,0
22050,control_change,0,0,3,,,,,,,,,2,64,0,,
22050,note_on,0,0,3,,,,,,,,,2,,,52,49
22050,note_on,0,0,3,,,,,,,,,2,,,55,49
22065,note_on,0,0,1,,,,,,,,,0,,,81,62
22065,control_change,0,0,1,,,,,,,,,0,64,0,,
22065,note_on,0,0,1,,,,,,,,,0,,,69,62
22065,note_on,0,0,1,,,,,,,,,0,,,70,0
22065,note_on,45,0,1,,,,,,,,,0,,,82,0
22080,note_on,0,0,1,,,,,,,,,0,,,65,62
22080,note_on,15,0,1,,,,,,,,,0,,,81,0
22080,note_on,0,0,1,,,,,,,,,0,,,69,0
22080,note_on,0,0,3,,,,,,,,,2,,,41,49
22080,note_on,0,0,1,,,,,,,,,0,,,77,62
22080,control_change,0,0,3,,,,,,,,,2,64,127,,
22080,note_on,0,0,3,,,,,,,,,2,,,52,0
22080,note_on,30,0,3,,,,,,,,,2,,,55,0
22084,note_on,4,0,3,,,,,,,,,2,,,41,0
22110,note_on,0,0,3,,,,,,,,,2,,,60,49
22110,note_on,26,0,3,,,,,,,,,2,,,57,49
22140,note_on,0,0,3,,,,,,,,,2,,,65,49
22140,note_on,30,0,3,,,,,,,,,2,,,60,0
22140,note_on,0,0,3,,,,,,,,,2,,,57,0
22170,note_on,0,0,3,,,,,,,,,2,,,60,49
22170,note_on,0,0,3,,,,,,,,,2,,,57,49
22170,note_on,30,0,3,,,,,,,,,2,,,65,0
22200,note_on,120,0,1,,,,,,,,,0,,,77,0
22200,note_on,0,0,3,,,,,,,,,2,,,57,0
22200,control_change,0,0,3,,,,,,,,,2,64,0,,
22200,note_on,0,0,3,,,,,,,,,2,,,65,49
22200,note_on,0,0,1,,,,,,,,,0,,,65,0
22200,note_on,30,0,3,,,,,,,,,2,,,60,0
22260,note_on,60,0,3,,,,,,,,,2,,,65,0
22320,note_on,60,0,3,,,,,,,,,2,,,50,36
22320,note_on,0,0,3,,,,,,,,,2,,,53,36
22320,note_on,120,0,1,,,,,,,,,0,,,69,36
22320,note_on,0,0,1,,,,,,,,,0,,,81,36
22320,note_on,0,0,3,,,,,,,,,2,,,62,36
22326,note_on,0,0,3,,,,,,,,,2,,,50,0
22326,note_on,0,0,3,,,,,,,,,2,,,53,0
22326,note_on,6,0,3,,,,,,,,,2,,,62,0
22380,note_on,54,0,3,,,,,,,,,2,,,52,36
22380,note_on,0,0,3,,,,,,,,,2,,,55,36
22380,note_on,0,0,3,,,,,,,,,2,,,62,36
22386,note_on,6,0,3,,,,,,,,,2,,,62,0
22386,note_on,0,0,3,,,,,,,,,2,,,55,0
22386,note_on,0,0,3,,,,,,,,,2,,,52,0
22440,control_change,54,0,3,,,,,,,,,2,64,127,,
22440,note_on,0,0,3,,,,,,,,,2,,,53,36
22440,note_on,0,0,3,,,,,,,,,2,,,57,36
22440,note_on,0,0,3,,,,,,,,,2,,,62,36
22440,control_change,0,0,1,,,,,,,,,0,64,127,,
22440,note_on,0,0,1,,,,,,,,,0,,,69,36
22440,note_on,0,0,1,,,,,,,,,0,,,81,36
22440,note_on,120,0,1,,,,,,,,,0,,,81,0
22440,note_on,0,0,1,,,,,,,,,0,,,69,0
22446,note_on,0,0,3,,,,,,,,,2,,,53,0
22446,note_on,0,0,3,,,,,,,,,2,,,57,0
22446,note_on,6,0,3,,,,,,,,,2,,,62,0
22500,note_on,0,0,3,,,,,,,,,2,,,62,36
22500,note_on,0,0,3,,,,,,,,,2,,,55,36
22500,note_on,54,0,3,,,,,,,,,2,,,52,36
22506,note_on,6,0,3,,,,,,,,,2,,,62,0
22506,note_on,0,0,3,,,,,,,,,2,,,55,0
22506,note_on,0,0,3,,,,,,,,,2,,,52,0
22530,note_on,0,0,1,,,,,,,,,0,,,69,0
22530,note_on,0,0,1,,,,,,,,,0,,,68,36
22530,note_on,0,0,1,,,,,,,,,0,,,80,36
22530,note_on,90,0,1,,,,,,,,,0,,,81,0
22560,note_on,54,0,3,,,,,,,,,2,,,50,36
22560,note_on,0,0,3,,,,,,,,,2,,,53,36
22560,note_on,0,0,3,,,,,,,,,2,,,62,36
22560,note_on,0,0,1,,,,,,,,,0,,,81,36
22560,note_on,0,0,1,,,,,,,,,0,,,68,0
22560,note_on,0,0,1,,,,,,,,,0,,,69,36
22560,note_on,30,0,1,,,,,,,,,0,,,80,0
22566,note_on,6,0,3,,,,,,,,,2,,,62,0
22566,note_on,0,0,3,,,,,,,,,2,,,53,0
22566,note_on,0,0,3,,,,,,,,,2,,,50,0
22620,note_on,54,0,3,,,,,,,,,2,,,52,36
22620,note_on,0,0,3,,,,,,,,,2,,,62,36
22620,note_on,0,0,3,,,,,,,,,2,,,55,36
22626,note_on,6,0,3,,,,,,,,,2,,,62,0
22626,note_on,0,0,3,,,,,,,,,2,,,55,0
22626,note_on,0,0,3,,,,,,,,,2,,,52,0
22680,note_on,0,0,3,,,,,,,,,2,,,62,36
22680,control_change,0,0,1,,,,,,,,,0,64,0,,
22680,note_on,0,0,1,,,,,,,,,0,,,86,36
22680,note_on,0,0,1,,,,,,,,,0,,,74,36
22680,note_on,0,0,1,,,,,,,,,0,,,69,0
22680,note_on,120,0,1,,,,,,,,,0,,,81,0
22680,note_on,54,0,3,,,,,,,,,2,,,53,36
22680,note_on,0,0,3,,,,,,,,,2,,,57,36
22686,note_on,0,0,3,,,,,,,,,2,,,57,0
22686,note_on,6,0,3,,,,,,,,,2,,,62,0
22686,note_on,0,0,3,,,,,,,,,2,,,53,0
22740,control_change,54,0,3,,,,,,,,,2,64,0,,
22740,note_on,0,0,3,,,,,,,,,2,,,50,36
22740,note_on,0,0,3,,,,,,,,,2,,,53,36
22740,note_on,0,0,3,,,,,,,,,2,,,62,36
22746,note_on,6,0,3,,,,,,,,,2,,,62,0
22746,note_on,0,0,3,,,,,,,,,2,,,53,0
22746,note_on,0,0,3,,,,,,,,,2,,,50,0
22800,note_on,0,0,1,,,,,,,,,0,,,82,36
22800,note_on,120,0,1,,,,,,,,,0,,,86,0
22800,note_on,54,0,3,,,,,,,,,2,,,52,36
22800,note_on,0,0,3,,,,,,,,,2,,,55,36
22800,note_on,0,0,3,,,,,,,,,2,,,61,36
22800,note_on,0,0,1,,,,,,,,,0,,,74,0
22800,note_on,0,0,1,,,,,,,,,0,,,70,36
22806,note_on,0,0,3,,,,,,,,,2,,,52,0
22806,note_on,6,0,3,,,,,,,,,2,,,61,0
22806,note_on,0,0,3,,,,,,,,,2,,,55,0
22860,note_on,0,0,3,,,,,,,,,2,,,61,36
22860,note_on,0,0,3,,,,,,,,,2,,,57,36
22860,note_on,54,0,3,,,,,,,,,2,,,53,36
22866,note_on,6,0,3,,,,,,,,,2,,,61,0
22866,note_on,0,0,3,,,,,,,,,2,,,53,0
22866,note_on,0,0,3,,,,,,,,,2,,,57,0
22920,note_on,0,0,1,,,,,,,,,0,,,82,36
22920,control_change,0,0,1,,,,,,,,,0,64,127,,
22920,note_on,0,0,3,,,,,,,,,2,,,57,36
22920,note_on,0,0,3,,,,,,,,,2,,,55,36
22920,control_change,54,0,3,,,,,,,,,2,64,127,,
22920,note_on,0,0,3,,,,,,,,,2,,,61,36
22920,note_on,0,0,1,,,,,,,,,0,,,70,0
22920,note_on,0,0,1,,,,,,,,,0,,,70,36
22920,note_on,120,0,1,,,,,,,,,0,,,82,0
22926,note_on,6,0,3,,,,,,,,,2,,,61,0
22926,note_on,0,0,3,,,,,,,,,2,,,57,0
22926,note_on,0,0,3,,,,,,,,,2,,,55,0
22980,note_on,54,0,3,,,,,,,,,2,,,53,36
22980,note_on,0,0,3,,,,,,,,,2,,,57,36
22980,note_on,0,0,3,,,,,,,,,2,,,61,36
22986,note_on,6,0,3,,,,,,,,,2,,,61,0
22986,note_on,0,0,3,,,,,,,,,2,,,53,0
22986,note_on,0,0,3,,,,,,,,,2,,,57,0
23010,note_on,90,0,1,,,,,,,,,0,,,82,0
23010,note_on,0,0,1,,,,,,,,,0,,,69,36
23010,note_on,0,0,1,,,,,,,,,0,,,81,36
23010,note_on,0,0,1,,,,,,,,,0,,,70,0
23040,note_on,30,0,1,,,,,,,,,0,,,81,0
23040,note_on,0,0,1,,,,,,,,,0,,,69,0
23040,note_on,0,0,1,,,,,,,,,0,,,70,36
23040,note_on,0,0,1,,,,,,,,,0,,,82,36
23040,note_on,54,0,3,,,,,,,,,2,,,52,36
23040,note_on,0,0,3,,,,,,,,,2,,,55,36
23040,note_on,0,0,3,,,,,,,,,2,,,61,36
23046,note_on,6,0,3,,,,,,,,,2,,,61,0
23046,note_on,0,0,3,,,,,,,,,2,,,55,0
23046,note_on,0,0,3,,,,,,,,,2,,,52,0
23100,note_on,54,0,3,,,,,,,,,2,,,53,36
23100,note_on,0,0,3,,,,,,,,,2,,,57,36
23100,note_on,0,0,3,,,,,,,,,2,,,61,36
23106,note_on,6,0,3,,,,,,,,,2,,,61,0
23106,note_on,0,0,3,,,,,,,,,2,,,53,0
23106,note_on,0,0,3,,,,,,,,,2,,,57,0
23160,control_change,0,0,1,,,,,,,,,0,64,0,,
23160,note_on,0,0,1,,,,,,,,,0,,,76,36
23160,note_on,0,0,1,,,,,,,,,0,,,70,0
23160,note_on,54,0,3,,,,,,,,,2,,,55,36
23160,note_on,0,0,3,,,,,,,,,2,,,57,36
23160,note_on,0,0,3,,,,,,,,,2,,,61,36
23160,note_on,0,0,1,,,,,,,,,0,,,88,36
23160,note_on,120,0,1,,,,,,,,,0,,,82,0
23166,note_on,6,0,3,,,,,,,,,2,,,61,0
23166,note_on,0,0,3,,,,,,,,,2,,,57,0
23166,note_on,0,0,3,,,,,,,,,2,,,55,0
23220,note_on,0,0,3,,,,,,,,,2,,,55,36
23220,note_on,0,0,3,,,,,,,,,2,,,52,36
23220,control_change,54,0,3,,,,,,,,,2,64,0,,
23220,note_on,0,0,3,,,,,,,,,2,,,61,36
23226,note_on,0,0,3,,,,,,,,,2,,,52,0
23226,note_on,0,0,3,,,,,,,,,2,,,55,0
23226,note_on,6,0,3,,,,,,,,,2,,,61,0
23280,note_on,0,0,3,,,,,,,,,2,,,62,36
23280,note_on,0,0,3,,,,,,,,,2,,,53,36
23280,note_on,54,0,3,,,,,,,,,2,,,50,36
23280,note_on,0,0,1,,,,,,,,,0,,,89,36
23280,note_on,0,0,1,,,,,,,,,0,,,77,36
23280,note_on,0,0,1,,,,,,,,,0,,,76,0
23280,note_on,120,0,1,,,,,,,,,0,,,88,0
23286,note_on,0,0,3,,,,,,,,,2,,,53,0
23286,note_on,6,0,3,,,,,,,,,2,,,62,0
23286,note_on,0,0,3,,,,,,,,,2,,,50,0
23340,note_on,54,0,3,,,,,,,,,2,,,52,36
23340,note_on,0,0,3,,,,,,,,,2,,,55,36
23340,note_on,0,0,3,,,,,,,,,2,,,62,36
23346,note_on,0,0,3,,,,,,,,,2,,,52,0
23346,note_on,0,0,3,,,,,,,,,2,,,55,0
23346,note_on,6,0,3,,,,,,,,,2,,,62,0
23400,note_on,0,0,1,,,,,,,,,0,,,77,0
23400,control_change,0,0,1,,,,,,,,,0,64,127,,
23400,note_on,120,0,1,,,,,,,,,0,,,89,0
23400,note_on,0,0,1,,,,,,,,,0,,,77,49
23400,note_on,0,0,3,,,,,,,,,2,,,62,36
23400,control_change,54,0,3,,,,,,,,,2,64,127,,
23400,note_on,0,0,3,,,,,,,,,2,,,53,36
23400,note_on,0,0,3,,,,,,,,,2,,,57,36
23400,note_on,0,0,1,,,,,,,,,0,,,89,49
23406,note_on,6,0,3,,,,,,,,,2,,,62,0
23406,note_on,0,0,3,,,,,,,,,2,,,57,0
23406,note_on,0,0,3,,,,,,,,,2,,,53,0
23460,note_on,0,0,3,,,,,,,,,2,,,55,36
23460,note_on,54,0,3,,,,,,,,,2,,,52,36
23460,note_on,0,0,3,,,,,,,,,2,,,62,36
23466,note_on,6,0,3,,,,,,,,,2,,,62,0
23466,note_on,0,0,3,,,,,,,,,2,,,55,0
23466,note_on,0,0,3,,,,,,,,,2,,,52,0
23490,note_on,0,0,1,,,,,,,,,0,,,77,0
23490,note_on,0,0,1,,,,,,,,,0,,,91,49
23490,note_on,0,0,1,,,,,,,,,0,,,79,49
23490,note_on,90,0,1,,,,,,,,,0,,,89,0
23520,note_on,30,0,1,,,,,,,,,0,,,91,0
23520,note_on,0,0,1,,,,,,,,,0,,,79,0
23520,control_change,0,0,1,,,,,,,,,0,64,0,,
23520,note_on,0,0,1,,,,,,,,,0,,,93,62
23520,note_on,54,0,3,,,,,,,,,2,,,50,49
23520,note_on,0,0,3,,,,,,,,,2,,,62,49
23520,note_on,0,0,1,,,,,,,,,0,,,81,62
23520,note_on,0,0,3,,,,,,,,,2,,,53,49
23526,note_on,0,0,3,,,,,,,,,2,,,50,0
23526,note_on,0,0,3,,,,,,,,,2,,,53,0
23526,note_on,6,0,3,,,,,,,,,2,,,62,0
23580,note_on,54,0,3,,,,,,,,,2,,,52,49
23580,note_on,0,0,3,,,,,,,,,2,,,55,49
23580,note_on,0,0,3,,,,,,,,,2,,,62,49
23586,note_on,6,0,3,,,,,,,,,2,,,62,0
23586,note_on,0,0,3,,,,,,,,,2,,,55,0
23586,note_on,0,0,3,,,,,,,,,2,,,52,0
23640,note_on,54,0,3,,,,,,,,,2,,,50,49
23640,note_on,0,0,3,,,,,,,,,2,,,53,49
23640,note_on,0,0,3,,,,,,,,,2,,,62,49
23646,note_on,6,0,3,,,,,,,,,2,,,62,0
23646,note_on,0,0,3,,,,,,,,,2,,,53,0
23646,note_on,0,0,3,,,,,,,,,2,,,50,0
23700,note_on,0,0,3,,,,,,,,,2,,,52,49
23700,note_on,0,0,3,,,,,,,,,2,,,48,49
23700,control_change,54,0,3,,,,,,,,,2,64,0,,
23700,note_on,0,0,3,,,,,,,,,2,,,60,49
23706,note_on,6,0,3,,,,,,,,,2,,,60,0
23706,note_on,0,0,3,,,,,,,,,2,,,52,0
23706,note_on,0,0,3,,,,,,,,,2,,,48,0
23760,note_on,0,0,3,,,,,,,,,2,,,58,62
23760,note_on,0,0,1,,,,,,,,,0,,,82,75
23760,note_on,0,0,1,,,,,,,,,0,,,94,75
23760,note_on,0,0,3,,,,,,,,,2,,,50,62
23760,control_change,54,0,3,,,,,,,,,2,64,127,,
23760,note_on,240,0,1,,,,,,,,,0,,,93,0
23760,control_change,0,0,1,,,,,,,,,0,64,127,,
23760,note_on,0,0,3,,,,,,,,,2,,,46,62
23760,note_on,0,0,1,,,,,,,,,0,,,81,0
23766,note_on,6,0,3,,,,,,,,,2,,,58,0
23766,note_on,0,0,3,,,,,,,,,2,,,50,0
23766,note_on,0,0,3,,,,,,,,,2,,,46,0
23820,note_on,54,0,3,,,,,,,,,2,,,48,62
23820,note_on,0,0,3,,,,,,,,,2,,,52,62
23820,note_on,0,0,3,,,,,,,,,2,,,58,62
23826,note_on,6,0,3,,,,,,,,,2,,,58,0
23826,note_on,0,0,3,,,,,,,,,2,,,52,0
23826,note_on,0,0,3,,,,,,,,,2,,,48,0
23880,note_on,0,0,1,,,,,,,,,0,,,82,75
23880,note_on,120,0,1,,,,,,,,,0,,,94,0
23880,note_on,54,0,3,,,,,,,,,2,,,46,62
23880,note_on,0,0,3,,,,,,,,,2,,,50,62
23880,note_on,0,0,3,,,,,,,,,2,,,58,62
23880,note_on,0,0,1,,,,,,,,,0,,,94,75
23880,note_on,0,0,1,,,,,,,,,0,,,82,0
23886,note_on,6,0,3,,,,,,,,,2,,,58,0
23886,note_on,0,0,3,,,,,,,,,2,,,50,0
23886,note_on,0,0,3,,,,,,,,,2,,,46,0
23940,control_change,54,0,3,,,,,,,,,2,64,0,,
23940,note_on,0,0,3,,,,,,,,,2,,,45,62
23940,note_on,0,0,3,,,,,,,,,2,,,48,62
23940,note_on,0,0,3,,,,,,,,,2,,,57,62
23946,note_on,6,0,3,,,,,,,,,2,,,57,0
23946,note_on,0,0,3,,,,,,,,,2,,,48,0
23946,note_on,0,0,3,,,,,,,,,2,,,45,0
23970,note_on,0,0,1,,,,,,,,,0,,,82,0
23970,note_on,0,0,1,,,,,,,,,0,,,84,75
23970,note_on,0,0,1,,,,,,,,,0,,,96,75
23970,note_on,90,0,1,,,,,,,,,0,,,94,0
24000,note_on,30,0,1,,,,,,,,,0,,,96,0
24000,note_on,0,0,1,,,,,,,,,0,,,84,0
24000,control_change,54,0,3,,,,,,,,,2,64,127,,
24000,note_on,0,0,3,,,,,,,,,2,,,46,62
24000,note_on,0,0,3,,,,,,,,,2,,,55,62
24000,note_on,0,0,1,,,,,,,,,0,,,86,75
24000,note_on,0,0,1,,,,,,,,,0,,,98,75
24000,control_change,0,0,1,,,,,,,,,0,64,0,,
24000,note_on,0,0,3,,,,,,,,,2,,,43,62
24006,note_on,0,0,3,,,,,,,,,2,,,46,0
24006,note_on,0,0,3,,,,,,,,,2,,,43,0
24006,note_on,6,0,3,,,,,,,,,2,,,55,0
24060,note_on,0,0,3,,,,,,,,,2,,,55,62
24060,note_on,54,0,3,,,,,,,,,2,,,45,62
24060,note_on,0,0,3,,,,,,,,,2,,,48,62
24066,note_on,6,0,3,,,,,,,,,2,,,55,0
24066,note_on,0,0,3,,,,,,,,,2,,,48,0
24066,note_on,0,0,3,,,,,,,,,2,,,45,0
24120,note_on,0,0,3,,,,,,,,,2,,,50,62
24120,note_on,54,0,3,,,,,,,,,2,,,46,62
24120,note_on,0,0,3,,,,,,,,,2,,,55,62
24126,note_on,0,0,3,,,,,,,,,2,,,46,0
24126,note_on,6,0,3,,,,,,,,,2,,,55,0
24126,note_on,0,0,3,,,,,,,,,2,,,50,0
24180,control_change,54,0,3,,,,,,,,,2,64,0,,
24180,note_on,0,0,3,,,,,,,,,2,,,46,62
24180,note_on,0,0,3,,,,,,,,,2,,,53,62
24180,note_on,0,0,3,,,,,,,,,2,,,56,62
24186,note_on,6,0,3,,,,,,,,,2,,,56,0
24186,note_on,0,0,3,,,,,,,,,2,,,53,0
24186,note_on,0,0,3,,,,,,,,,2,,,46,0
24240,note_on,240,0,1,,,,,,,,,0,,,98,0
24240,note_on,0,0,1,,,,,,,,,0,,,86,0
24240,note_on,0,0,1,,,,,,,,,0,,,84,36
24240,note_on,0,0,1,,,,,,,,,0,,,96,36
24240,note_on,0,0,3,,,,,,,,,2,,,48,36
24240,control_change,54,0,3,,,,,,,,,2,64,127,,
24246,note_on,6,0,3,,,,,,,,,2,,,48,0
24300,control_change,54,0,3,,,,,,,,,2,64,0,,
24300,note_on,0,0,3,,,,,,,,,2,,,57,36
24300,note_on,0,0,3,,,,,,,,,2,,,60,36
24300,note_on,0,0,3,,,,,,,,,2,,,65,36
24306,note_on,6,0,3,,,,,,,,,2,,,65,0
24306,note_on,0,0,3,,,,,,,,,2,,,60,0
24306,note_on,0,0,3,,,,,,,,,2,,,57,0
24360,control_change,54,0,3,,,,,,,,,2,64,127,,
24360,note_on,0,0,3,,,,,,,,,2,,,48,36
24360,note_on,0,0,1,,,,,,,,,0,,,96,36
24360,note_on,0,0,1,,,,,,,,,0,,,84,36
24360,note_on,0,0,1,,,,,,,,,0,,,84,0
24360,note_on,120,0,1,,,,,,,,,0,,,96,0
24366,note_on,6,0,3,,,,,,,,,2,,,48,0
24420,note_on,0,0,3,,,,,,,,,2,,,64,36
24420,note_on,0,0,3,,,,,,,,,2,,,60,36
24420,note_on,0,0,3,,,,,,,,,2,,,58,36
24420,control_change,54,0,3,,,,,,,,,2,64,0,,
24426,note_on,0,0,3,,,,,,,,,2,,,60,0
24426,note_on,0,0,3,,,,,,,,,2,,,58,0
24426,note_on,6,0,3,,,,,,,,,2,,,64,0
24450,note_on,90,0,1,,,,,,,,,0,,,96,0
24450,note_on,0,0,1,,,,,,,,,0,,,84,0
24450,note_on,0,0,1,,,,,,,,,0,,,84,36
24450,note_on,0,0,1,,,,,,,,,0,,,96,36
24480,note_on,0,0,1,,,,,,,,,0,,,84,0
24480,note_on,30,0,1,,,,,,,,,0,,,96,0
24480,note_on,0,0,1,,,,,,,,,0,,,84,36
24480,note_on,0,0,1,,,,,,,,,0,,,96,36
24480,control_change,54,0,3,,,,,,,,,2,64,127,,
24480,note_on,0,0,3,,,,,,,,,2,,,41,36
24486,note_on,6,0,3,,,,,,,,,2,,,41,0
24540,note_on,54,0,3,,,,,,,,,2,,,60,36
24540,note_on,0,0,3,,,,,,,,,2,,,69,36
24540,note_on,8700,0,4,,,,,,,,,3,,,60,75
24600,note_on,60,0,3,,,,,,,,,2,,,69,0
24600,note_on,0,0,3,,,,,,,,,2,,,60,0
24600,note_on,0,0,3,,,,,,,,,2,,,67,36
24600,note_on,0,0,3,,,,,,,,,2,,,58,36
24660,control_change,0,0,3,,,,,,,,,2,64,0,,
24660,note_on,60,0,3,,,,,,,,,2,,,67,0
24660,note_on,0,0,3,,,,,,,,,2,,,58,0
24660,note_on,0,0,3,,,,,,,,,2,,,65,36
24660,note_on,0,0,3,,,,,,,,,2,,,57,36
24720,note_on,0,0,1,,,,,,,,,0,,,84,0
24720,note_on,0,0,1,,,,,,,,,0,,,84,36
24720,note_on,0,0,1,,,,,,,,,0,,,96,36
24720,note_on,180,0,4,,,,,,,,,3,,,60,0
24720,note_on,240,0,1,,,,,,,,,0,,,96,0
24720,control_change,0,0,3,,,,,,,,,2,64,127,,
24720,note_on,60,0,3,,,,,,,,,2,,,65,0
24720,note_on,0,0,3,,,,,,,,,2,,,57,0
24720,note_on,0,0,3,,,,,,,,,2,,,48,36
24726,note_on,6,0,3,,,,,,,,,2,,,48,0
24780,control_change,54,0,3,,,,,,,,,2,64,0,,
24780,note_on,0,0,3,,,,,,,,,2,,,57,36
24780,note_on,0,0,3,,,,,,,,,2,,,60,36
24780,note_on,0,0,3,,,,,,,,,2,,,65,36
24786,note_on,6,0,3,,,,,,,,,2,,,65,0
24786,note_on,0,0,3,,,,,,,,,2,,,60,0
24786,note_on,0,0,3,,,,,,,,,2,,,57,0
24840,control_change,54,0,3,,,,,,,,,2,64,127,,
24840,note_on,0,0,3,,,,,,,,,2,,,48,36
24840,note_on,120,0,1,,,,,,,,,0,,,96,0
24840,note_on,0,0,1,,,,,,,,,0,,,84,0
24840,note_on,0,0,1,,,,,,,,,0,,,84,36
24840,note_on,0,0,1,,,,,,,,,0,,,96,36
24846,note_on,6,0,3,,,,,,,,,2,,,48,0
24900,note_on,0,0,3,,,,,,,,,2,,,60,36
24900,note_on,0,0,3,,,,,,,,,2,,,58,36
24900,control_change,54,0,3,,,,,,,,,2,64,0,,
24900,note_on,0,0,3,,,,,,,,,2,,,64,36
24906,note_on,0,0,3,,,,,,,,,2,,,60,0
24906,note_on,0,0,3,,,,,,,,,2,,,58,0
24906,note_on,6,0,3,,,,,,,,,2,,,64,0
24930,note_on,90,0,1,,,,,,,,,0,,,96,0
24930,note_on,0,0,1,,,,,,,,,0,,,84,36
24930,note_on,0,0,1,,,,,,,,,0,,,96,36
24930,note_on,0,0,1,,,,,,,,,0,,,84,0
24960,note_on,0,0,1,,,,,,,,,0,,,93,36
24960,note_on,0,0,1,,,,,,,,,0,,,81,36
24960,note_on,0,0,3,,,,,,,,,2,,,41,36
24960,note_on,0,0,1,,,,,,,,,0,,,84,0
24960,note_on,30,0,1,,,,,,,,,0,,,96,0
24960,control_change,54,0,3,,,,,,,,,2,64,127,,
24966,note_on,6,0,3,,,,,,,,,2,,,41,0
25020,note_on,0,0,4,,,,,,,,,3,,,60,75
25020,note_on,54,0,3,,,,,,,,,2,,,65,36
25020,note_on,300,0,4,,,,,,,,,3,,,57,75
25080,note_on,0,0,3,,,,,,,,,2,,,64,36
25080,note_on,0,0,4,,,,,,,,,3,,,61,75
25080,note_on,60,0,3,,,,,,,,,2,,,65,0
25080,note_on,60,0,4,,,,,,,,,3,,,60,0
25080,control_change,0,0,3,,,,,,,,,2,64,0,,
25140,note_on,60,0,3,,,,,,,,,2,,,64,0
25140,note_on,0,0,3,,,,,,,,,2,,,67,36
25200,note_on,60,0,3,,,,,,,,,2,,,67,0
25200,note_on,0,0,3,,,,,,,,,2,,,50,36
25200,note_on,0,0,3,,,,,,,,,2,,,53,36
25200,note_on,0,0,1,,,,,,,,,0,,,69,36
25200,note_on,0,0,3,,,,,,,,,2,,,62,36
25200,note_on,120,0,4,,,,,,,,,3,,,61,0
25200,note_on,0,0,4,,,,,,,,,3,,,57,0
25200,note_on,240,0,1,,,,,,,,,0,,,93,0
25200,note_on,0,0,1,,,,,,,,,0,,,81,0
25200,note_on,0,0,1,,,,,,,,,0,,,81,36
25206,note_on,0,0,3,,,,,,,,,2,,,50,0
25206,note_on,6,0,3,,,,,,,,,2,,,62,0
25206,note_on,0,0,3,,,,,,,,,2,,,53,0
25260,note_on,0,0,3,,,,,,,,,2,,,62,36
25260,note_on,54,0,3,,,,,,,,,2,,,52,36
25260,note_on,0,0,3,,,,,,,,,2,,,55,36
25266,note_on,6,0,3,,,,,,,,,2,,,62,0
25266,note_on,0,0,3,,,,,,,,,2,,,55,0
25266,note_on,0,0,3,,,,,,,,,2,,,52,0
25320,note_on,0,0,3,,,,,,,,,2,,,53,36
25320,control_change,54,0,3,,,,,,,,,2,64,127,,
25320,note_on,0,0,3,,,,,,,,,2,,,62,36
25320,note_on,120,0,1,,,,,,,,,0,,,81,0
25320,note_on,0,0,3,,,,,,,,,2,,,57,36
25320,note_on,0,0,1,,,,,,,,,0,,,69,36
25320,note_on,0,0,1,,,,,,,,,0,,,81,36
25320,control_change,0,0,1,,,,,,,,,0,64,127,,
25320,note_on,0,0,1,,,,,,,,,0,,,69,0
25326,note_on,0,0,3,,,,,,,,,2,,,57,0
25326,note_on,0,0,3,,,,,,,,,2,,,53,0
25326,note_on,6,0,3,,,,,,,,,2,,,62,0
25380,note_on,54,0,3,,,,,,,,,2,,,52,36
25380,note_on,0,0,3,,,,,,,,,2,,,55,36
25380,note_on,0,0,3,,,,,,,,,2,,,62,36
25386,note_on,0,0,3,,,,,,,,,2,,,52,0
25386,note_on,6,0,3,,,,,,,,,2,,,62,0
25386,note_on,0,0,3,,,,,,,,,2,,,55,0
25410,note_on,0,0,1,,,,,,,,,0,,,80,36
25410,note_on,0,0,1,,,,,,,,,0,,,68,36
25410,note_on,0,0,1,,,,,,,,,0,,,69,0
25410,note_on,90,0,1,,,,,,,,,0,,,81,0
25440,note_on,54,0,3,,,,,,,,,2,,,50,36
25440,note_on,0,0,1,,,,,,,,,0,,,81,36
25440,note_on,0,0,3,,,,,,,,,2,,,62,36
25440,note_on,0,0,3,,,,,,,,,2,,,53,36
25440,note_on,0,0,1,,,,,,,,,0,,,69,36
25440,note_on,0,0,1,,,,,,,,,0,,,68,0
25440,note_on,30,0,1,,,,,,,,,0,,,80,0
25446,note_on,0,0,3,,,,,,,,,2,,,50,0
25446,note_on,0,0,3,,,,,,,,,2,,,53,0
25446,note_on,6,0,3,,,,,,,,,2,,,62,0
25500,note_on,0,0,3,,,,,,,,,2,,,62,36
25500,note_on,0,0,3,,,,,,,,,2,,,55,36
25500,note_on,54,0,3,,,,,,,,,2,,,52,36
25506,note_on,0,0,3,,,,,,,,,2,,,52,0
25506,note_on,0,0,3,,,,,,,,,2,,,55,0
25506,note_on,6,0,3,,,,,,,,,2,,,62,0
25560,note_on,0,0,3,,,,,,,,,2,,,57,36
25560,note_on,0,0,1,,,,,,,,,0,,,69,0
25560,note_on,120,0,1,,,,,,,,,0,,,81,0
25560,note_on,0,0,1,,,,,,,,,0,,,74,36
25560,note_on,0,0,1,,,,,,,,,0,,,86,36
25560,control_change,0,0,1,,,,,,,,,0,64,0,,
25560,note_on,0,0,3,,,,,,,,,2,,,62,36
25560,note_on,54,0,3,,,,,,,,,2,,,53,36
25566,note_on,0,0,3,,,,,,,,,2,,,57,0
25566,note_on,6,0,3,,,,,,,,,2,,,62,0
25566,note_on,0,0,3,,,,,,,,,2,,,53,0
25620,control_change,54,0,3,,,,,,,,,2,64,0,,
25620,note_on,0,0,3,,,,,,,,,2,,,53,36
25620,note_on,0,0,3,,,,,,,,,2,,,62,36
25620,note_on,0,0,3,,,,,,,,,2,,,50,36
25626,note_on,6,0,3,,,,,,,,,2,,,62,0
25626,note_on,0,0,3,,,,,,,,,2,,,53,0
25626,note_on,0,0,3,,,,,,,,,2,,,50,0
25680,note_on,120,0,1,,,,,,,,,0,,,86,0
25680,note_on,0,0,1,,,,,,,,,0,,,82,36
25680,note_on,0,0,3,,,,,,,,,2,,,55,36
25680,note_on,0,0,3,,,,,,,,,2,,,61,36
25680,note_on,0,0,1,,,,,,,,,0,,,70,36
25680,note_on,54,0,3,,,,,,,,,2,,,52,36
25680,note_on,0,0,1,,,,,,,,,0,,,74,0
25686,note_on,0,0,3,,,,,,,,,2,,,55,0
25686,note_on,6,0,3,,,,,,,,,2,,,61,0
25686,note_on,0,0,3,,,,,,,,,2,,,52,0
25740,note_on,54,0,3,,,,,,,,,2,,,53,36
25740,note_on,0,0,3,,,,,,,,,2,,,61,36
25740,note_on,0,0,3,,,,,,,,,2,,,57,36
25746,note_on,0,0,3,,,,,,,,,2,,,53,0
25746,note_on,0,0,3,,,,,,,,,2,,,57,0
25746,note_on,6,0,3,,,,,,,,,2,,,61,0
25800,note_on,0,0,1,,,,,,,,,0,,,70,0
25800,note_on,120,0,1,,,,,,,,,0,,,82,0
25800,note_on,0,0,3,,,,,,,,,2,,,61,36
25800,note_on,0,0,3,,,,,,,,,2,,,57,36
25800,control_change,54,0,3,,,,,,,,,2,64,127,,
25800,note_on,0,0,3,,,,,,,,,2,,,55,36
25800,control_change,0,0,1,,,,,,,,,0,64,127,,
25800,note_on,0,0,1,,,,,,,,,0,,,70,36
25800,note_on,0,0,1,,,,,,,,,0,,,82,36
25806,note_on,0,0,3,,,,,,,,,2,,,57,0
25806,note_on,6,0,3,,,,,,,,,2,,,61,0
25806,note_on,0,0,3,,,,,,,,,2,,,55,0
25860,note_on,0,0,3,,,,,,,,,2,,,61,36
25860,note_on,54,0,3,,,,,,,,,2,,,53,36
25860,note_on,0,0,3,,,,,,,,,2,,,57,36
25866,note_on,0,0,3,,,,,,,,,2,,,57,0
25866,note_on,0,0,3,,,,,,,,,2,,,53,0
25866,note_on,6,0,3,,,,,,,,,2,,,61,0
25890,note_on,90,0,1,,,,,,,,,0,,,82,0
25890,note_on,0,0,1,,,,,,,,,0,,,69,36
25890,note_on,0,0,1,,,,,,,,,0,,,81,36
25890,note_on,0,0,1,,,,,,,,,0,,,70,0
25920,note_on,54,0,3,,,,,,,,,2,,,52,36
25920,note_on,0,0,1,,,,,,,,,0,,,82,36
25920,note_on,0,0,3,,,,,,,,,2,,,61,36
25920,note_on,30,0,1,,,,,,,,,0,,,81,0
25920,note_on,0,0,1,,,,,,,,,0,,,69,0
25920,note_on,0,0,1,,,,,,,,,0,,,70,36
25920,note_on,0,0,3,,,,,,,,,2,,,55,36
25926,note_on,0,0,3,,,,,,,,,2,,,52,0
25926,note_on,0,0,3,,,,,,,,,2,,,55,0
25926,note_on,6,0,3,,,,,,,,,2,,,61,0
25980,note_on,54,0,3,,,,,,,,,2,,,53,36
25980,note_on,0,0,3,,,,,,,,,2,,,61,36
25980,note_on,0,0,3,,,,,,,,,2,,,57,36
25986,note_on,0,0,3,,,,,,,,,2,,,57,0
25986,note_on,6,0,3,,,,,,,,,2,,,61,0
25986,note_on,0,0,3,,,,,,,,,2,,,53,0
26040,note_on,54,0,3,,,,,,,,,2,,,55,36
26040,note_on,0,0,3,,,,,,,,,2,,,57,36
26040,note_on,0,0,3,,,,,,,,,2,,,61,36
26040,note_on,120,0,1,,,,,,,,,0,,,82,0
26040,note_on,0,0,1,,,,,,,,,0,,,70,0
26040,control_change,0,0,1,,,,,,,,,0,64,0,,
26040,note_on,0,0,1,,,,,,,,,0,,,88,36
26040,note_on,0,0,1,,,,,,,,,0,,,76,36
26046,note_on,6,0,3,,,,,,,,,2,,,61,0
26046,note_on,0,0,3,,,,,,,,,2,,,57,0
26046,note_on,0,0,3,,,,,,,,,2,,,55,0
26100,note_on,0,0,3,,,,,,,,,2,,,55,36
26100,note_on,0,0,3,,,,,,,,,2,,,52,36
26100,note_on,0,0,3,,,,,,,,,2,,,61,36
26100,control_change,54,0,3,,,,,,,,,2,64,0,,
26106,note_on,6,0,3,,,,,,,,,2,,,61,0
26106,note_on,0,0,3,,,,,,,,,2,,,55,0
26106,note_on,0,0,3,,,,,,,,,2,,,52,0
26160,note_on,0,0,3,,,,,,,,,2,,,53,36
26160,note_on,54,0,3,,,,,,,,,2,,,50,36
26160,note_on,120,0,1,,,,,,,,,0,,,88,0
26160,note_on,0,0,1,,,,,,,,,0,,,76,0
26160,note_on,0,0,1,,,,,,,,,0,,,77,36
26160,note_on,0,0,3,,,,,,,,,2,,,62,36
26160,note_on,0,0,1,,,,,,,,,0,,,89,36
26166,note_on,6,0,3,,,,,,,,,2,,,62,0
26166,note_on,0,0,3,,,,,,,,,2,,,53,0
26166,note_on,0,0,3,,,,,,,,,2,,,50,0
26220,note_on,0,0,3,,,,,,,,,2,,,55,36
26220,note_on,54,0,3,,,,,,,,,2,,,52,36
26220,note_on,0,0,3,,,,,,,,,2,,,62,36
26226,note_on,0,0,3,,,,,,,,,2,,,55,0
26226,note_on,0,0,3,,,,,,,,,2,,,52,0
26226,note_on,6,0,3,,,,,,,,,2,,,62,0
26280,control_change,54,0,3,,,,,,,,,2,64,127,,
26280,note_on,0,0,3,,,,,,,,,2,,,53,36
26280,note_on,0,0,3,,,,,,,,,2,,,62,36
26280,note_on,0,0,3,,,,,,,,,2,,,57,36
26280,note_on,120,0,1,,,,,,,,,0,,,89,0
26280,note_on,0,0,1,,,,,,,,,0,,,77,0
26280,note_on,0,0,1,,,,,,,,,0,,,77,49
26280,note_on,0,0,1,,,,,,,,,0,,,89,49
26280,control_change,0,0,1,,,,,,,,,0,64,127,,
26286,note_on,6,0,3,,,,,,,,,2,,,62,0
26286,note_on,0,0,3,,,,,,,,,2,,,57,0
26286,note_on,0,0,3,,,,,,,,,2,,,53,0
26340,note_on,0,0,3,,,,,,,,,2,,,62,36
26340,note_on,0,0,3,,,,,,,,,2,,,55,36
26340,note_on,54,0,3,,,,,,,,,2,,,52,36
26346,note_on,0,0,3,,,,,,,,,2,,,52,0
26346,note_on,0,0,3,,,,,,,,,2,,,55,0
26346,note_on,6,0,3,,,,,,,,,2,,,62,0
26370,note_on,0,0,1,,,,,,,,,0,,,91,49
26370,note_on,0,0,1,,,,,,,,,0,,,79,49
26370,note_on,0,0,1,,,,,,,,,0,,,77,0
26370,note_on,90,0,1,,,,,,,,,0,,,89,0
26400,control_change,0,0,1,,,,,,,,,0,64,0,,
26400,note_on,0,0,1,,,,,,,,,0,,,81,62
26400,note_on,54,0,3,,,,,,,,,2,,,50,49
26400,note_on,0,0,1,,,,,,,,,0,,,79,0
26400,note_on,30,0,1,,,,,,,,,0,,,91,0
26400,note_on,0,0,3,,,,,,,,,2,,,53,49
26400,note_on,0,0,3,,,,,,,,,2,,,62,49
26400,note_on,0,0,1,,,,,,,,,0,,,93,62
26406,note_on,0,0,3,,,,,,,,,2,,,50,0
26406,note_on,6,0,3,,,,,,,,,2,,,62,0
26406,note_on,0,0,3,,,,,,,,,2,,,53,0
26460,note_on,0,0,3,,,,,,,,,2,,,55,49
26460,note_on,0,0,3,,,,,,,,,2,,,62,49
26460,note_on,54,0,3,,,,,,,,,2,,,52,49
26466,note_on,6,0,3,,,,,,,,,2,,,62,0
26466,note_on,0,0,3,,,,,,,,,2,,,55,0
26466,note_on,0,0,3,,,,,,,,,2,,,52,0
26520,note_on,0,0,3,,,,,,,,,2,,,62,49
26520,note_on,0,0,3,,,,,,,,,2,,,53,49
26520,note_on,54,0,3,,,,,,,,,2,,,50,49
26526,note_on,0,0,3,,,,,,,,,2,,,50,0
26526,note_on,0,0,3,,,,,,,,,2,,,53,0
26526,note_on,6,0,3,,,,,,,,,2,,,62,0
26580,control_change,54,0,3,,,,,,,,,2,64,0,,
26580,note_on,0,0,3,,,,,,,,,2,,,60,49
26580,note_on,0,0,3,,,,,,,,,2,,,48,49
26580,note_on,0,0,3,,,,,,,,,2,,,52,49
26586,note_on,6,0,3,,,,,,,,,2,,,60,0
26586,note_on,0,0,3,,,,,,,,,2,,,52,0
26586,note_on,0,0,3,,,,,,,,,2,,,48,0
26640,note_on,240,0,1,,,,,,,,,0,,,93,0
26640,note_on,0,0,1,,,,,,,,,0,,,81,0
26640,note_on,0,0,1,,,,,,,,,0,,,82,75
26640,control_change,0,0,1,,,,,,,,,0,64,127,,
26640,control_change,54,0,3,,,,,,,,,2,64,127,,
26640,note_on,0,0,3,,,,,,,,,2,,,46,62
26640,note_on,0,0,3,,,,,,,,,2,,,50,62
26640,note_on,0,0,3,,,,,,,,,2,,,58,62
26640,note_on,0,0,1,,,,,,,,,0,,,94,75
26646,note_on,0,0,3,,,,,,,,,2,,,46,0
26646,note_on,6,0,3,,,,,,,,,2,,,58,0
26646,note_on,0,0,3,,,,,,,,,2,,,50,0
26700,note_on,0,0,3,,,,,,,,,2,,,58,62
26700,note_on,0,0,3,,,,,,,,,2,,,52,62
26700,note_on,54,0,3,,,,,,,,,2,,,48,62
26706,note_on,6,0,3,,,,,,,,,2,,,58,0
26706,note_on,0,0,3,,,,,,,,,2,,,52,0
26706,note_on,0,0,3,,,,,,,,,2,,,48,0
26760,note_on,0,0,3,,,,,,,,,2,,,50,62
26760,note_on,120,0,1,,,,,,,,,0,,,94,0
26760,note_on,0,0,1,,,,,,,,,0,,,82,0
26760,note_on,0,0,1,,,,,,,,,0,,,82,75
26760,note_on,0,0,1,,,,,,,,,0,,,94,75
26760,note_on,54,0,3,,,,,,,,,2,,,46,62
26760,note_on,0,0,3,,,,,,,,,2,,,58,62
26766,note_on,0,0,3,,,,,,,,,2,,,46,0
26766,note_on,0,0,3,,,,,,,,,2,,,50,0
26766,note_on,6,0,3,,,,,,,,,2,,,58,0
26820,note_on,0,0,3,,,,,,,,,2,,,57,62
26820,note_on,0,0,3,,,,,,,,,2,,,48,62
26820,note_on,0,0,3,,,,,,,,,2,,,45,62
26820,control_change,54,0,3,,,,,,,,,2,64,0,,
26826,note_on,6,0,3,,,,,,,,,2,,,57,0
26826,note_on,0,0,3,,,,,,,,,2,,,48,0
26826,note_on,0,0,3,,,,,,,,,2,,,45,0
26850,note_on,0,0,1,,,,,,,,,0,,,82,0
26850,note_on,90,0,1,,,,,,,,,0,,,94,0
26850,note_on,0,0,1,,,,,,,,,0,,,96,75
26850,note_on,0,0,1,,,,,,,,,0,,,84,75
26880,note_on,0,0,3,,,,,,,,,2,,,55,62
26880,note_on,0,0,3,,,,,,,,,2,,,43,62
26880,note_on,0,0,3,,,,,,,,,2,,,46,62
26880,note_on,0,0,1,,,,,,,,,0,,,98,75
26880,note_on,0,0,1,,,,,,,,,0,,,84,0
26880,note_on,0,0,1,,,,,,,,,0,,,86,75
26880,control_change,0,0,1,,,,,,,,,0,64,0,,
26880,control_change,54,0,3,,,,,,,,,2,64,127,,
26880,note_on,30,0,1,,,,,,,,,0,,,96,0
26886,note_on,6,0,3,,,,,,,,,2,,,55,0
26886,note_on,0,0,3,,,,,,,,,2,,,46,0
26886,note_on,0,0,3,,,,,,,,,2,,,43,0
26940,note_on,54,0,3,,,,,,,,,2,,,45,62
26940,note_on,0,0,3,,,,,,,,,2,,,55,62
26940,note_on,0,0,3,,,,,,,,,2,,,48,62
26946,note_on,0,0,3,,,,,,,,,2,,,45,0
26946,note_on,0,0,3,,,,,,,,,2,,,48,0
26946,note_on,6,0,3,,,,,,,,,2,,,55,0
27000,note_on,0,0,3,,,,,,,,,2,,,55,62
27000,note_on,0,0,3,,,,,,,,,2,,,50,62
27000,note_on,54,0,3,,,,,,,,,2,,,46,62
27006,note_on,0,0,3,,,,,,,,,2,,,46,0
27006,note_on,0,0,3,,,,,,,,,2,,,50,0
27006,note_on,6,0,3,,,,,,,,,2,,,55,0
27060,note_on,0,0,3,,,,,,,,,2,,,56,62
27060,note_on,0,0,3,,,,,,,,,2,,,53,62
27060,note_on,0,0,3,,,,,,,,,2,,,46,62
27060,control_change,54,0,3,,,,,,,,,2,64,0,,
27066,note_on,0,0,3,,,,,,,,,2,,,53,0
27066,note_on,6,0,3,,,,,,,,,2,,,56,0
27066,note_on,0,0,3,,,,,,,,,2,,,46,0
27120,note_on,240,0,1,,,,,,,,,0,,,98,0
27120,note_on,0,0,1,,,,,,,,,0,,,86,0
27120,note_on,0,0,1,,,,,,,,,0,,,84,36
27120,note_on,0,0,3,,,,,,,,,2,,,48,36
27120,note_on,0,0,1,,,,,,,,,0,,,96,36
27120,control_change,54,0,3,,,,,,,,,2,64,127,,
27126,note_on,6,0,3,,,,,,,,,2,,,48,0
27180,note_on,0,0,3,,,,,,,,,2,,,60,36
27180,control_change,54,0,3,,,,,,,,,2,64,0,,
27180,note_on,0,0,3,,,,,,,,,2,,,57,36
27180,note_on,0,0,3,,,,,,,,,2,,,65,36
27186,note_on,0,0,3,,,,,,,,,2,,,60,0
27186,note_on,0,0,3,,,,,,,,,2,,,57,0
27186,note_on,6,0,3,,,,,,,,,2,,,65,0
27240,note_on,0,0,1,,,,,,,,,0,,,96,36
27240,note_on,0,0,1,,,,,,,,,0,,,84,36
27240,note_on,0,0,1,,,,,,,,,0,,,84,0
27240,note_on,120,0,1,,,,,,,,,0,,,96,0
27240,note_on,0,0,3,,,,,,,,,2,,,48,36
27240,control_change,54,0,3,,,,,,,,,2,64,127,,
27246,note_on,6,0,3,,,,,,,,,2,,,48,0
27300,note_on,0,0,3,,,,,,,,,2,,,64,36
27300,note_on,0,0,3,,,,,,,,,2,,,60,36
27300,control_change,54,0,3,,,,,,,,,2,64,0,,
27300,note_on,0,0,3,,,,,,,,,2,,,58,36
27306,note_on,0,0,3,,,,,,,,,2,,,58,0
27306,note_on,0,0,3,,,,,,,,,2,,,60,0
27306,note_on,6,0,3,,,,,,,,,2,,,64,0
27330,note_on,90,0,1,,,,,,,,,0,,,96,0
27330,note_on,0,0,1,,,,,,,,,0,,,84,0
27330,note_on,0,0,1,,,,,,,,,0,,,84,36
27330,note_on,0,0,1,,,,,,,,,0,,,96,36
27360,note_on,30,0,1,,,,,,,,,0,,,96,0
27360,note_on,0,0,1,,,,,,,,,0,,,84,0
27360,note_on,0,0,1,,,,,,,,,0,,,84,36
27360,note_on,0,0,1,,,,,,,,,0,,,96,36
27360,note_on,0,0,3,,,,,,,,,2,,,41,36
27360,control_change,54,0,3,,,,,,,,,2,64,127,,
27366,note_on,6,0,3,,,,,,,,,2,,,41,0
27420,note_on,2220,0,4,,,,,,,,,3,,,60,75
27420,note_on,0,0,3,,,,,,,,,2,,,69,36
27420,note_on,54,0,3,,,,,,,,,2,,,60,36
27480,note_on,0,0,3,,,,,,,,,2,,,60,0
27480,note_on,60,0,3,,,,,,,,,2,,,69,0
27480,note_on,0,0,3,,,,,,,,,2,,,67,36
27480,note_on,0,0,3,,,,,,,,,2,,,58,36
27540,note_on,0,0,3,,,,,,,,,2,,,58,0
27540,note_on,0,0,3,,,,,,,,,2,,,57,36
27540,note_on,0,0,3,,,,,,,,,2,,,65,36
27540,note_on,60,0,3,,,,,,,,,2,,,67,0
27540,control_change,0,0,3,,,,,,,,,2,64,0,,
27600,note_on,0,0,3,,,,,,,,,2,,,57,0
27600,control_change,0,0,3,,,,,,,,,2,64,127,,
27600,note_on,0,0,3,,,,,,,,,2,,,48,36
27600,note_on,60,0,3,,,,,,,,,2,,,65,0
27600,note_on,180,0,4,,,,,,,,,3,,,60,0
27600,note_on,0,0,1,,,,,,,,,0,,,96,36
27600,note_on,0,0,1,,,,,,,,,0,,,84,36
27600,note_on,0,0,1,,,,,,,,,0,,,84,0
27600,note_on,240,0,1,,,,,,,,,0,,,96,0
27606,note_on,6,0,3,,,,,,,,,2,,,48,0
27660,note_on,0,0,3,,,,,,,,,2,,,57,36
27660,control_change,54,0,3,,,,,,,,,2,64,0,,
27660,note_on,0,0,3,,,,,,,,,2,,,60,36
27660,note_on,0,0,3,,,,,,,,,2,,,65,36
27666,note_on,0,0,3,,,,,,,,,2,,,57,0
27666,note_on,0,0,3,,,,,,,,,2,,,60,0
27666,note_on,6,0,3,,,,,,,,,2,,,65,0
27720,note_on,0,0,3,,,,,,,,,2,,,48,36
27720,control_change,54,0,3,,,,,,,,,2,64,127,,
27720,note_on,0,0,1,,,,,,,,,0,,,96,36
27720,note_on,120,0,1,,,,,,,,,0,,,96,0
27720,note_on,0,0,1,,,,,,,,,0,,,84,0
27720,note_on,0,0,1,,,,,,,,,0,,,84,36
27726,note_on,6,0,3,,,,,,,,,2,,,48,0
27780,control_change,54,0,3,,,,,,,,,2,64,0,,
27780,note_on,0,0,3,,,,,,,,,2,,,60,36
27780,note_on,0,0,3,,,,,,,,,2,,,64,36
27780,note_on,0,0,3,,,,,,,,,2,,,58,36
27786,note_on,0,0,3,,,,,,,,,2,,,58,0
27786,note_on,6,0,3,,,,,,,,,2,,,64,0
27786,note_on,0,0,3,,,,,,,,,2,,,60,0
27810,note_on,0,0,1,,,,,,,,,0,,,96,36
27810,note_on,0,0,1,,,,,,,,,0,,,84,36
27810,note_on,0,0,1,,,,,,,,,0,,,84,0
27810,note_on,90,0,1,,,,,,,,,0,,,96,0
27840,note_on,0,0,3,,,,,,,,,2,,,41,36
27840,control_change,54,0,3,,,,,,,,,2,64,127,,
27840,note_on,0,0,1,,,,,,,,,0,,,93,36
27840,note_on,30,0,1,,,,,,,,,0,,,96,0
27840,note_on,0,0,1,,,,,,,,,0,,,84,0
27840,note_on,0,0,1,,,,,,,,,0,,,81,36
27846,note_on,6,0,3,,,,,,,,,2,,,41,0
27900,note_on,0,0,3,,,,,,,,,2,,,69,36
27900,note_on,54,0,3,,,,,,,,,2,,,65,36
27960,note_on,60,0,3,,,,,,,,,2,,,69,0
27960,note_on,0,0,3,,,,,,,,,2,,,65,0
27960,note_on,0,0,3,,,,,,,,,2,,,64,36
27960,note_on,0,0,3,,,,,,,,,2,,,67,36
28020,note_on,60,0,3,,,,,,,,,2,,,67,0
28020,note_on,0,0,3,,,,,,,,,2,,,64,0
28020,control_change,0,0,3,,,,,,,,,2,64,0,,
28020,note_on,0,0,3,,,,,,,,,2,,,62,36
28020,note_on,0,0,3,,,,,,,,,2,,,65,36
28080,note_on,0,0,3,,,,,,,,,2,,,64,36
28080,note_on,60,0,3,,,,,,,,,2,,,65,0
28080,note_on,0,0,3,,,,,,,,,2,,,62,0
28080,control_change,0,0,3,,,,,,,,,2,64,127,,
28080,note_on,240,0,1,,,,,,,,,0,,,93,0
28080,note_on,0,0,1,,,,,,,,,0,,,81,0
28080,note_on,0,0,1,,,,,,,,,0,,,69,36
28080,note_on,0,0,3,,,,,,,,,2,,,61,36
28080,note_on,0,0,1,,,,,,,,,0,,,81,36
28080,note_on,0,0,3,,,,,,,,,2,,,57,36
28080,control_change,0,0,1,,,,,,,,,0,64,127,,
28086,note_on,0,0,3,,,,,,,,,2,,,57,0
28086,note_on,0,0,3,,,,,,,,,2,,,61,0
28086,note_on,6,0,3,,,,,,,,,2,,,64,0
28140,note_on,0,0,3,,,,,,,,,2,,,63,36
28140,note_on,0,0,3,,,,,,,,,2,,,60,36
28140,note_on,54,0,3,,,,,,,,,2,,,57,36
28146,note_on,0,0,3,,,,,,,,,2,,,57,0
28146,note_on,0,0,3,,,,,,,,,2,,,60,0
28146,note_on,6,0,3,,,,,,,,,2,,,63,0
28200,note_on,120,0,1,,,,,,,,,0,,,81,0
28200,note_on,0,0,1,,,,,,,,,0,,,69,0
28200,note_on,0,0,1,,,,,,,,,0,,,81,36
28200,note_on,0,0,3,,,,,,,,,2,,,61,36
28200,note_on,0,0,3,,,,,,,,,2,,,64,36
28200,note_on,54,0,3,,,,,,,,,2,,,57,36
28200,note_on,0,0,1,,,,,,,,,0,,,69,36
28206,note_on,0,0,3,,,,,,,,,2,,,57,0
28206,note_on,0,0,3,,,,,,,,,2,,,61,0
28206,note_on,6,0,3,,,,,,,,,2,,,64,0
28260,note_on,0,0,3,,,,,,,,,2,,,63,36
28260,note_on,0,0,3,,,,,,,,,2,,,60,36
28260,note_on,54,0,3,,,,,,,,,2,,,57,36
28266,note_on,0,0,3,,,,,,,,,2,,,57,0
28266,note_on,0,0,3,,,,,,,,,2,,,60,0
28266,note_on,6,0,3,,,,,,,,,2,,,63,0
28290,note_on,0,0,1,,,,,,,,,0,,,81,36
28290,note_on,90,0,1,,,,,,,,,0,,,81,0
28290,note_on,0,0,1,,,,,,,,,0,,,69,36
28290,note_on,0,0,1,,,,,,,,,0,,,69,0
28320,note_on,0,0,3,,,,,,,,,2,,,61,36
28320,note_on,0,0,3,,,,,,,,,2,,,64,36
28320,note_on,54,0,3,,,,,,,,,2,,,57,36
28320,control_change,0,0,1,,,,,,,,,0,64,0,,
28320,note_on,0,0,1,,,,,,,,,0,,,81,36
28320,note_on,0,0,1,,,,,,,,,0,,,69,36
28320,note_on,0,0,1,,,,,,,,,0,,,69,0
28320,note_on,30,0,1,,,,,,,,,0,,,81,0
28326,note_on,6,0,3,,,,,,,,,2,,,64,0
28326,note_on,0,0,3,,,,,,,,,2,,,61,0
28326,note_on,0,0,3,,,,,,,,,2,,,57,0
28380,note_on,0,0,3,,,,,,,,,2,,,57,36
28380,note_on,0,0,3,,,,,,,,,2,,,60,36
28380,note_on,0,0,3,,,,,,,,,2,,,63,36
28380,control_change,54,0,3,,,,,,,,,2,64,0,,
28386,note_on,6,0,3,,,,,,,,,2,,,63,0
28386,note_on,0,0,3,,,,,,,,,2,,,60,0
28386,note_on,0,0,3,,,,,,,,,2,,,57,0
28440,control_change,54,0,3,,,,,,,,,2,64,127,,
28440,note_on,0,0,3,,,,,,,,,2,,,57,36
28440,note_on,0,0,3,,,,,,,,,2,,,61,36
28440,note_on,0,0,3,,,,,,,,,2,,,64,36
28440,note_on,120,0,1,,,,,,,,,0,,,81,0
28440,note_on,0,0,1,,,,,,,,,0,,,81,36
28440,note_on,0,0,1,,,,,,,,,0,,,69,36
28440,note_on,0,0,1,,,,,,,,,0,,,69,0
28440,control_change,0,0,1,,,,,,,,,0,64,127,,
28446,note_on,0,0,3,,,,,,,,,2,,,61,0
28446,note_on,0,0,3,,,,,,,,,2,,,57,0
28446,note_on,6,0,3,,,,,,,,,2,,,64,0
28500,note_on,54,0,3,,,,,,,,,2,,,57,36
28500,note_on,0,0,3,,,,,,,,,2,,,62,36
28500,note_on,0,0,3,,,,,,,,,2,,,65,36
28506,note_on,6,0,3,,,,,,,,,2,,,65,0
28506,note_on,0,0,3,,,,,,,,,2,,,62,0
28506,note_on,0,0,3,,,,,,,,,2,,,57,0
28530,note_on,0,0,1,,,,,,,,,0,,,69,36
28530,note_on,0,0,1,,,,,,,,,0,,,69,0
28530,note_on,0,0,1,,,,,,,,,0,,,81,36
28530,note_on,90,0,1,,,,,,,,,0,,,81,0
28560,note_on,0,0,1,,,,,,,,,0,,,73,49
28560,note_on,0,0,1,,,,,,,,,0,,,69,0
28560,note_on,54,0,3,,,,,,,,,2,,,57,36
28560,note_on,30,0,1,,,,,,,,,0,,,81,0
28560,note_on,0,0,3,,,,,,,,,2,,,64,36
28560,note_on,0,0,3,,,,,,,,,2,,,67,36
28560,note_on,0,0,1,,,,,,,,,0,,,85,49
28566,note_on,0,0,3,,,,,,,,,2,,,64,0
28566,note_on,6,0,3,,,,,,,,,2,,,67,0
28566,note_on,0,0,3,,,,,,,,,2,,,57,0
28620,note_on,54,0,3,,,,,,,,,2,,,57,36
28620,note_on,0,0,3,,,,,,,,,2,,,65,36
28620,note_on,0,0,3,,,,,,,,,2,,,69,36
28626,note_on,0,0,3,,,,,,,,,2,,,57,0
28626,note_on,6,0,3,,,,,,,,,2,,,69,0
28626,note_on,0,0,3,,,,,,,,,2,,,65,0
28680,note_on,0,0,1,,,,,,,,,0,,,73,0
28680,note_on,120,0,1,,,,,,,,,0,,,85,0
28680,note_on,0,0,1,,,,,,,,,0,,,76,62
28680,note_on,0,0,1,,,,,,,,,0,,,88,62
28680,control_change,0,0,1,,,,,,,,,0,64,0,,
28680,note_on,54,0,3,,,,,,,,,2,,,57,49
28680,note_on,0,0,3,,,,,,,,,2,,,67,49
28680,note_on,0,0,3,,,,,,,,,2,,,70,49
28686,note_on,0,0,3,,,,,,,,,2,,,57,0
28686,note_on,0,0,3,,,,,,,,,2,,,67,0
28686,note_on,6,0,3,,,,,,,,,2,,,70,0
28740,control_change,54,0,3,,,,,,,,,2,64,0,,
28740,note_on,0,0,3,,,,,,,,,2,,,61,49
28740,note_on,0,0,3,,,,,,,,,2,,,67,49
28740,note_on,0,0,3,,,,,,,,,2,,,57,49
28746,note_on,0,0,3,,,,,,,,,2,,,57,0
28746,note_on,0,0,3,,,,,,,,,2,,,61,0
28746,note_on,6,0,3,,,,,,,,,2,,,67,0
28800,note_on,0,0,3,,,,,,,,,2,,,62,62
28800,control_change,0,0,1,,,,,,,,,0,64,127,,
28800,note_on,0,0,1,,,,,,,,,0,,,74,75
28800,note_on,0,0,3,,,,,,,,,2,,,58,62
28800,note_on,0,0,1,,,,,,,,,0,,,76,0
28800,note_on,120,0,1,,,,,,,,,0,,,88,0
28800,note_on,0,0,3,,,,,,,,,2,,,65,62
28800,note_on,0,0,1,,,,,,,,,0,,,86,75
28800,control_change,54,0,3,,,,,,,,,2,64,127,,
28806,note_on,6,0,3,,,,,,,,,2,,,65,0
28806,note_on,0,0,3,,,,,,,,,2,,,62,0
28806,note_on,0,0,3,,,,,,,,,2,,,58,0
28860,note_on,54,0,3,,,,,,,,,2,,,58,62
28860,note_on,0,0,3,,,,,,,,,2,,,64,62
28860,note_on,0,0,3,,,,,,,,,2,,,67,62
28866,note_on,0,0,3,,,,,,,,,2,,,64,0
28866,note_on,6,0,3,,,,,,,,,2,,,67,0
28866,note_on,0,0,3,,,,,,,,,2,,,58,0
28890,note_on,0,0,1,,,,,,,,,0,,,73,75
28890,note_on,0,0,1,,,,,,,,,0,,,74,0
28890,note_on,0,0,1,,,,,,,,,0,,,85,75
28890,note_on,90,0,1,,,,,,,,,0,,,86,0
28920,note_on,0,0,3,,,,,,,,,2,,,62,62
28920,note_on,0,0,1,,,,,,,,,0,,,74,75
28920,note_on,0,0,1,,,,,,,,,0,,,73,0
28920,note_on,0,0,3,,,,,,,,,2,,,65,62
28920,note_on,54,0,3,,,,,,,,,2,,,58,62
28920,note_on,0,0,1,,,,,,,,,0,,,86,75
28920,note_on,30,0,1,,,,,,,,,0,,,85,0
28926,note_on,0,0,3,,,,,,,,,2,,,58,0
28926,note_on,6,0,3,,,,,,,,,2,,,65,0
28926,note_on,0,0,3,,,,,,,,,2,,,62,0
28980,note_on,54,0,3,,,,,,,,,2,,,58,62
28980,note_on,0,0,3,,,,,,,,,2,,,61,62
28980,note_on,0,0,3,,,,,,,,,2,,,67,62
28986,note_on,6,0,3,,,,,,,,,2,,,67,0
28986,note_on,0,0,3,,,,,,,,,2,,,61,0
28986,note_on,0,0,3,,,,,,,,,2,,,58,0
29010,note_on,90,0,1,,,,,,,,,0,,,86,0
29010,note_on,0,0,1,,,,,,,,,0,,,74,0
29010,note_on,0,0,1,,,,,,,,,0,,,88,75
29010,note_on,0,0,1,,,,,,,,,0,,,76,75
29040,note_on,0,0,1,,,,,,,,,0,,,76,0
29040,note_on,30,0,1,,,,,,,,,0,,,88,0
29040,note_on,0,0,3,,,,,,,,,2,,,62,75
29040,note_on,0,0,3,,,,,,,,,2,,,65,75
29040,note_on,0,0,1,,,,,,,,,0,,,77,88
29040,note_on,54,0,3,,,,,,,,,2,,,58,75
29040,note_on,0,0,1,,,,,,,,,0,,,89,88
29046,note_on,0,0,3,,,,,,,,,2,,,62,0
29046,note_on,6,0,3,,,,,,,,,2,,,65,0
29046,note_on,0,0,3,,,,,,,,,2,,,58,0
29100,note_on,0,0,3,,,,,,,,,2,,,64,75
29100,note_on,0,0,3,,,,,,,,,2,,,61,75
29100,note_on,54,0,3,,,,,,,,,2,,,58,75
29106,note_on,0,0,3,,,,,,,,,2,,,58,0
29106,note_on,0,0,3,,,,,,,,,2,,,61,0
29106,note_on,6,0,3,,,,,,,,,2,,,64,0
29130,note_on,0,0,1,,,,,,,,,0,,,88,88
29130,note_on,0,0,1,,,,,,,,,0,,,76,88
29130,note_on,0,0,1,,,,,,,,,0,,,77,0
29130,note_on,90,0,1,,,,,,,,,0,,,89,0
29160,note_on,0,0,1,,,,,,,,,0,,,86,75
29160,note_on,30,0,1,,,,,,,,,0,,,88,0
29160,note_on,0,0,1,,,,,,,,,0,,,74,75
29160,note_on,0,0,1,,,,,,,,,0,,,76,0
29160,note_on,0,0,3,,,,,,,,,2,,,65,62
29160,note_on,54,0,3,,,,,,,,,2,,,58,62
29160,note_on,0,0,3,,,,,,,,,2,,,62,62
29166,note_on,6,0,3,,,,,,,,,2,,,65,0
29166,note_on,0,0,3,,,,,,,,,2,,,62,0
29166,note_on,0,0,3,,,,,,,,,2,,,58,0
29220,control_change,54,0,3,,,,,,,,,2,64,0,,
29220,note_on,0,0,3,,,,,,,,,2,,,66,62
29220,note_on,0,0,3,,,,,,,,,2,,,62,62
29220,note_on,0,0,3,,,,,,,,,2,,,58,62
29226,note_on,0,0,3,,,,,,,,,2,,,62,0
29226,note_on,0,0,3,,,,,,,,,2,,,58,0
29226,note_on,6,0,3,,,,,,,,,2,,,66,0
29250,note_on,90,0,1,,,,,,,,,0,,,86,0
29250,note_on,0,0,1,,,,,,,,,0,,,74,0
29250,note_on,0,0,1,,,,,,,,,0,,,72,75
29250,note_on,0,0,1,,,,,,,,,0,,,84,75
29250,control_change,0,0,1,,,,,,,,,0,64,0,,
29280,note_on,0,0,1,,,,,,,,,0,,,72,0
29280,note_on,0,0,3,,,,,,,,,2,,,67,49
29280,note_on,0,0,3,,,,,,,,,2,,,62,49
29280,note_on,0,0,1,,,,,,,,,0,,,70,62
29280,note_on,0,0,1,,,,,,,,,0,,,82,62
29280,control_change,0,0,1,,,,,,,,,0,64,127,,
29280,note_on,0,0,3,,,,,,,,,2,,,58,49
29280,control_change,54,0,3,,,,,,,,,2,64,127,,
29280,note_on,30,0,1,,,,,,,,,0,,,84,0
29286,note_on,6,0,3,,,,,,,,,2,,,67,0
29286,note_on,0,0,3,,,,,,,,,2,,,62,0
29286,note_on,0,0,3,,,,,,,,,2,,,58,0
29340,note_on,54,0,3,,,,,,,,,2,,,58,49
29340,note_on,0,0,3,,,,,,,,,2,,,62,49
29340,note_on,0,0,3,,,,,,,,,2,,,69,49
29346,note_on,6,0,3,,,,,,,,,2,,,69,0
29346,note_on,0,0,3,,,,,,,,,2,,,62,0
29346,note_on,0,0,3,,,,,,,,,2,,,58,0
29370,note_on,0,0,1,,,,,,,,,0,,,70,0
29370,note_on,90,0,1,,,,,,,,,0,,,82,0
29370,note_on,0,0,1,,,,,,,,,0,,,81,62
29370,note_on,0,0,1,,,,,,,,,0,,,69,62
29400,note_on,0,0,3,,,,,,,,,2,,,62,36
29400,note_on,0,0,1,,,,,,,,,0,,,79,49
29400,note_on,0,0,1,,,,,,,,,0,,,67,49
29400,note_on,0,0,1,,,,,,,,,0,,,69,0
29400,note_on,30,0,1,,,,,,,,,0,,,81,0
29400,note_on,0,0,3,,,,,,,,,2,,,70,36
29400,note_on,54,0,3,,,,,,,,,2,,,58,36
29406,note_on,6,0,3,,,,,,,,,2,,,70,0
29406,note_on,0,0,3,,,,,,,,,2,,,58,0
29406,note_on,0,0,3,,,,,,,,,2,,,62,0
29460,note_on,0,0,3,,,,,,,,,2,,,62,36
29460,control_change,54,0,3,,,,,,,,,2,64,0,,
29460,note_on,0,0,3,,,,,,,,,2,,,69,36
29460,note_on,0,0,3,,,,,,,,,2,,,59,36
29466,note_on,0,0,3,,,,,,,,,2,,,59,0
29466,note_on,0,0,3,,,,,,,,,2,,,62,0
29466,note_on,6,0,3,,,,,,,,,2,,,69,0
29490,control_change,0,0,1,,,,,,,,,0,64,0,,
29490,note_on,0,0,1,,,,,,,,,0,,,77,49
29490,note_on,0,0,1,,,,,,,,,0,,,65,49
29490,note_on,0,0,1,,,,,,,,,0,,,67,0
29490,note_on,90,0,1,,,,,,,,,0,,,79,0
29520,note_on,0,0,1,,,,,,,,,0,,,65,0
29520,note_on,30,0,1,,,,,,,,,0,,,77,0
29520,control_change,54,0,3,,,,,,,,,2,64,127,,
29520,control_change,0,0,1,,,,,,,,,0,64,127,,
29520,note_on,0,0,3,,,,,,,,,2,,,60,36
29520,note_on,0,0,3,,,,,,,,,2,,,64,36
29520,note_on,0,0,3,,,,,,,,,2,,,67,36
29520,note_on,0,0,1,,,,,,,,,0,,,72,36
29520,note_on,0,0,1,,,,,,,,,0,,,84,36
29526,note_on,0,0,3,,,,,,,,,2,,,60,0
29526,note_on,6,0,3,,,,,,,,,2,,,67,0
29526,note_on,0,0,3,,,,,,,,,2,,,64,0
29580,note_on,0,0,3,,,,,,,,,2,,,63,36
29580,note_on,54,0,3,,,,,,,,,2,,,60,36
29580,note_on,0,0,3,,,,,,,,,2,,,66,36
29586,note_on,6,0,3,,,,,,,,,2,,,66,0
29586,note_on,0,0,3,,,,,,,,,2,,,63,0
29586,note_on,0,0,3,,,,,,,,,2,,,60,0
29640,note_on,54,0,3,,,,,,,,,2,,,60,36
29640,note_on,0,0,3,,,,,,,,,2,,,64,36
29640,note_on,0,0,3,,,,,,,,,2,,,67,36
29640,note_on,120,0,1,,,,,,,,,0,,,84,0
29640,note_on,0,0,1,,,,,,,,,0,,,72,36
29640,note_on,0,0,1,,,,,,,,,0,,,84,36
29640,note_on,0,0,1,,,,,,,,,0,,,72,0
29646,note_on,0,0,3,,,,,,,,,2,,,60,0
29646,note_on,0,0,3,,,,,,,,,2,,,64,0
29646,note_on,6,0,3,,,,,,,,,2,,,67,0
29700,note_on,0,0,3,,,,,,,,,2,,,66,36
29700,note_on,0,0,3,,,,,,,,,2,,,63,36
29700,note_on,54,0,3,,,,,,,,,2,,,60,36
29706,note_on,0,0,3,,,,,,,,,2,,,60,0
29706,note_on,0,0,3,,,,,,,,,2,,,63,0
29706,note_on,6,0,3,,,,,,,,,2,,,66,0
29730,note_on,0,0,1,,,,,,,,,0,,,84,36
29730,note_on,90,0,1,,,,,,,,,0,,,84,0
29730,note_on,0,0,1,,,,,,,,,0,,,72,36
29730,note_on,0,0,1,,,,,,,,,0,,,72,0
29760,note_on,0,0,3,,,,,,,,,2,,,64,36
29760,note_on,54,0,3,,,,,,,,,2,,,60,36
29760,note_on,0,0,3,,,,,,,,,2,,,67,36
29760,control_change,0,0,1,,,,,,,,,0,64,0,,
29760,note_on,0,0,1,,,,,,,,,0,,,84,36
29760,note_on,0,0,1,,,,,,,,,0,,,72,36
29760,note_on,0,0,1,,,,,,,,,0,,,72,0
29760,note_on,30,0,1,,,,,,,,,0,,,84,0
29766,note_on,0,0,3,,,,,,,,,2,,,60,0
29766,note_on,6,0,3,,,,,,,,,2,,,67,0
29766,note_on,0,0,3,,,,,,,,,2,,,64,0
29820,note_on,0,0,3,,,,,,,,,2,,,66,36
29820,note_on,0,0,3,,,,,,,,,2,,,63,36
29820,note_on,54,0,3,,,,,,,,,2,,,60,36
29826,note_on,0,0,3,,,,,,,,,2,,,60,0
29826,note_on,0,0,3,,,,,,,,,2,,,63,0
29826,note_on,6,0,3,,,,,,,,,2,,,66,0
29880,note_on,0,0,3,,,,,,,,,2,,,67,36
29880,note_on,120,0,1,,,,,,,,,0,,,84,0
29880,note_on,54,0,3,,,,,,,,,2,,,60,36
29880,note_on,0,0,1,,,,,,,,,0,,,72,0
29880,note_on,0,0,3,,,,,,,,,2,,,64,36
29886,note_on,0,0,3,,,,,,,,,2,,,64,0
29886,note_on,0,0,3,,,,,,,,,2,,,60,0
29886,note_on,6,0,3,,,,,,,,,2,,,67,0
29940,control_change,54,0,3,,,,,,,,,2,64,0,,
29940,note_on,0,0,3,,,,,,,,,2,,,58,36
29940,note_on,0,0,3,,,,,,,,,2,,,64,36
29940,note_on,0,0,3,,,,,,,,,2,,,67,36
29946,note_on,6,0,3,,,,,,,,,2,,,67,0
29946,note_on,0,0,3,,,,,,,,,2,,,64,0
29946,note_on,0,0,3,,,,,,,,,2,,,58,0
30000,control_change,120,0,1,,,,,,,,,0,64,127,,
30000,note_on,0,0,1,,,,,,,,,0,,,73,36
30000,note_on,0,0,1,,,,,,,,,0,,,85,36
30000,note_on,0,0,3,,,,,,,,,2,,,57,36
30000,control_change,54,0,3,,,,,,,,,2,64,127,,
30000,note_on,0,0,3,,,,,,,,,2,,,64,36
30000,note_on,0,0,3,,,,,,,,,2,,,67,36
30006,note_on,0,0,3,,,,,,,,,2,,,57,0
30006,note_on,0,0,3,,,,,,,,,2,,,64,0
30006,note_on,6,0,3,,,,,,,,,2,,,67,0
30060,note_on,54,0,3,,,,,,,,,2,,,58,36
30060,note_on,0,0,3,,,,,,,,,2,,,64,36
30060,note_on,0,0,3,,,,,,,,,2,,,67,36
30066,note_on,6,0,3,,,,,,,,,2,,,67,0
30066,note_on,0,0,3,,,,,,,,,2,,,64,0
30066,note_on,0,0,3,,,,,,,,,2,,,58,0
30120,note_on,0,0,1,,,,,,,,,0,,,73,0
30120,note_on,120,0,1,,,,,,,,,0,,,85,0
30120,note_on,0,0,3,,,,,,,,,2,,,67,36
30120,note_on,0,0,3,,,,,,,,,2,,,64,36
30120,note_on,54,0,3,,,,,,,,,2,,,57,36
30120,note_on,0,0,1,,,,,,,,,0,,,73,36
30120,note_on,0,0,1,,,,,,,,,0,,,85,36
30126,note_on,6,0,3,,,,,,,,,2,,,67,0
30126,note_on,0,0,3,,,,,,,,,2,,,57,0
30126,note_on,0,0,3,,,,,,,,,2,,,64,0
30180,note_on,0,0,3,,,,,,,,,2,,,67,36
30180,note_on,0,0,3,,,,,,,,,2,,,64,36
30180,note_on,54,0,3,,,,,,,,,2,,,58,36
30186,note_on,0,0,3,,,,,,,,,2,,,58,0
30186,note_on,0,0,3,,,,,,,,,2,,,64,0
30186,note_on,6,0,3,,,,,,,,,2,,,67,0
30210,note_on,0,0,1,,,,,,,,,0,,,85,36
30210,note_on,0,0,1,,,,,,,,,0,,,73,36
30210,note_on,0,0,1,,,,,,,,,0,,,73,0
30210,note_on,90,0,1,,,,,,,,,0,,,85,0
30240,note_on,0,0,3,,,,,,,,,2,,,67,36
30240,note_on,0,0,3,,,,,,,,,2,,,64,36
30240,note_on,54,0,3,,,,,,,,,2,,,57,36
30240,note_on,0,0,1,,,,,,,,,0,,,73,36
30240,note_on,30,0,1,,,,,,,,,0,,,85,0
30240,control_change,0,0,1,,,,,,,,,0,64,0,,
30240,note_on,0,0,1,,,,,,,,,0,,,85,36
30240,note_on,0,0,1,,,,,,,,,0,,,73,0
30246,note_on,6,0,3,,,,,,,,,2,,,67,0
30246,note_on,0,0,3,,,,,,,,,2,,,64,0
30246,note_on,0,0,3,,,,,,,,,2,,,57,0
30300,note_on,0,0,3,,,,,,,,,2,,,67,36
30300,note_on,0,0,3,,,,,,,,,2,,,64,36
30300,note_on,54,0,3,,,,,,,,,2,,,58,36
30306,note_on,0,0,3,,,,,,,,,2,,,64,0
30306,note_on,6,0,3,,,,,,,,,2,,,67,0
30306,note_on,0,0,3,,,,,,,,,2,,,58,0
30360,note_on,0,0,1,,,,,,,,,0,,,73,0
30360,note_on,120,0,1,,,,,,,,,0,,,85,0
30360,note_on,54,0,3,,,,,,,,,2,,,57,36
30360,note_on,0,0,3,,,,,,,,,2,,,64,36
30360,note_on,0,0,3,,,,,,,,,2,,,67,36
30366,note_on,6,0,3,,,,,,,,,2,,,67,0
30366,note_on,0,0,3,,,,,,,,,2,,,64,0
30366,note_on,0,0,3,,,,,,,,,2,,,57,0
30420,control_change,54,0,3,,,,,,,,,2,64,0,,
30420,note_on,0,0,3,,,,,,,,,2,,,55,36
30420,note_on,0,0,3,,,,,,,,,2,,,57,36
30420,note_on,0,0,3,,,,,,,,,2,,,64,36
30426,note_on,0,0,3,,,,,,,,,2,,,55,0
30426,note_on,6,0,3,,,,,,,,,2,,,64,0
30426,note_on,0,0,3,,,,,,,,,2,,,57,0
30480,note_on,0,0,3,,,,,,,,,2,,,53,36
30480,note_on,0,0,1,,,,,,,,,0,,,74,36
30480,note_on,0,0,3,,,,,,,,,2,,,57,36
30480,control_change,120,0,1,,,,,,,,,0,64,127,,
30480,note_on,0,0,1,,,,,,,,,0,,,86,36
30480,note_on,0,0,3,,,,,,,,,2,,,62,36
30480,control_change,54,0,3,,,,,,,,,2,64,127,,
30486,note_on,0,0,3,,,,,,,,,2,,,53,0
30486,note_on,0,0,3,,,,,,,,,2,,,57,0
30486,note_on,6,0,3,,,,,,,,,2,,,62,0
30540,note_on,0,0,3,,,,,,,,,2,,,64,36
30540,note_on,0,0,3,,,,,,,,,2,,,57,36
30540,note_on,54,0,3,,,,,,,,,2,,,55,36
30546,note_on,6,0,3,,,,,,,,,2,,,64,0
30546,note_on,0,0,3,,,,,,,,,2,,,55,0
30546,note_on,0,0,3,,,,,,,,,2,,,57,0
30600,note_on,120,0,1,,,,,,,,,0,,,86,0
30600,note_on,0,0,1,,,,,,,,,0,,,74,0
30600,note_on,0,0,1,,,,,,,,,0,,,74,36
30600,note_on,0,0,1,,,,,,,,,0,,,86,36
30600,note_on,0,0,3,,,,,,,,,2,,,57,36
30600,note_on,0,0,3,,,,,,,,,2,,,62,36
30600,note_on,54,0,3,,,,,,,,,2,,,53,36
30606,note_on,0,0,3,,,,,,,,,2,,,53,0
30606,note_on,0,0,3,,,,,,,,,2,,,57,0
30606,note_on,6,0,3,,,,,,,,,2,,,62,0
30660,note_on,54,0,3,,,,,,,,,2,,,55,36
30660,note_on,0,0,3,,,,,,,,,2,,,57,36
30660,note_on,0,0,3,,,,,,,,,2,,,64,36
30666,note_on,0,0,3,,,,,,,,,2,,,57,0
30666,note_on,6,0,3,,,,,,,,,2,,,64,0
30666,note_on,0,0,3,,,,,,,,,2,,,55,0
30690,note_on,0,0,1,,,,,,,,,0,,,74,0
30690,note_on,90,0,1,,,,,,,,,0,,,86,0
30690,note_on,0,0,1,,,,,,,,,0,,,86,36
30690,note_on,0,0,1,,,,,,,,,0,,,74,36
30720,note_on,54,0,3,,,,,,,,,2,,,53,36
30720,note_on,0,0,3,,,,,,,,,2,,,57,36
30720,control_change,0,0,1,,,,,,,,,0,64,0,,
30720,note_on,0,0,1,,,,,,,,,0,,,86,36
30720,note_on,0,0,1,,,,,,,,,0,,,74,36
30720,note_on,0,0,1,,,,,,,,,0,,,74,0
30720,note_on,30,0,1,,,,,,,,,0,,,86,0
30720,note_on,0,0,3,,,,,,,,,2,,,62,36
30726,note_on,0,0,3,,,,,,,,,2,,,53,0
30726,note_on,0,0,3,,,,,,,,,2,,,57,0
30726,note_on,6,0,3,,,,,,,,,2,,,62,0
30780,note_on,0,0,3,,,,,,,,,2,,,58,36
30780,note_on,54,0,3,,,,,,,,,2,,,55,36
30780,note_on,0,0,3,,,,,,,,,2,,,62,36
30786,note_on,6,0,3,,,,,,,,,2,,,62,0
30786,note_on,0,0,3,,,,,,,,,2,,,55,0
30786,note_on,0,0,3,,,,,,,,,2,,,58,0
30840,note_on,0,0,3,,,,,,,,,2,,,62,36
30840,note_on,0,0,3,,,,,,,,,2,,,57,36
30840,note_on,54,0,3,,,,,,,,,2,,,53,36
30840,note_on,0,0,1,,,,,,,,,0,,,74,0
30840,note_on,120,0,1,,,,,,,,,0,,,86,0
30846,note_on,6,0,3,,,,,,,,,2,,,62,0
30846,note_on,0,0,3,,,,,,,,,2,,,57,0
30846,note_on,0,0,3,,,,,,,,,2,,,53,0
30900,control_change,54,0,3,,,,,,,,,2,64,0,,
30900,note_on,0,0,3,,,,,,,,,2,,,50,36
30900,note_on,0,0,3,,,,,,,,,2,,,53,36
30900,note_on,0,0,3,,,,,,,,,2,,,62,36
30906,note_on,0,0,3,,,,,,,,,2,,,53,0
30906,note_on,0,0,3,,,,,,,,,2,,,50,0
30906,note_on,6,0,3,,,,,,,,,2,,,62,0
30960,control_change,120,0,1,,,,,,,,,0,64,127,,
30960,note_on,0,0,1,,,,,,,,,0,,,81,36
30960,note_on,0,0,1,,,,,,,,,0,,,93,36
30960,control_change,54,0,3,,,,,,,,,2,64,127,,
30960,note_on,0,0,3,,,,,,,,,2,,,49,36
30960,note_on,0,0,3,,,,,,,,,2,,,52,36
30960,note_on,0,0,3,,,,,,,,,2,,,57,36
30966,note_on,0,0,3,,,,,,,,,2,,,52,0
30966,note_on,0,0,3,,,,,,,,,2,,,49,0
30966,note_on,6,0,3,,,,,,,,,2,,,57,0
31020,note_on,54,0,3,,,,,,,,,2,,,50,36
31020,note_on,0,0,3,,,,,,,,,2,,,53,36
31020,note_on,0,0,3,,,,,,,,,2,,,57,36
31020,set_tempo,13500,1,0,,,,,,869565,,,,,,,
31026,note_on,6,0,3,,,,,,,,,2,,,57,0
31026,note_on,0,0,3,,,,,,,,,2,,,50,0
31026,note_on,0,0,3,,,,,,,,,2,,,53,0
31080,note_on,54,0,3,,,,,,,,,2,,,49,36
31080,note_on,0,0,1,,,,,,,,,0,,,93,36
31080,note_on,0,0,1,,,,,,,,,0,,,81,36
31080,note_on,0,0,3,,,,,,,,,2,,,57,36
31080,note_on,0,0,3,,,,,,,,,2,,,52,36
31080,set_tempo,60,1,0,,,,,,909091,,,,,,,
31080,note_on,120,0,1,,,,,,,,,0,,,93,0
31080,note_on,0,0,1,,,,,,,,,0,,,81,0
31086,note_on,0,0,3,,,,,,,,,2,,,49,0
31086,note_on,0,0,3,,,,,,,,,2,,,52,0
31086,note_on,6,0,3,,,,,,,,,2,,,57,0
31140,note_on,0,0,3,,,,,,,,,2,,,57,36
31140,note_on,54,0,3,,,,,,,,,2,,,50,36
31140,note_on,0,0,3,,,,,,,,,2,,,53,36
31140,set_tempo,60,1,0,,,,,,952381,,,,,,,
31146,note_on,6,0,3,,,,,,,,,2,,,57,0
31146,note_on,0,0,3,,,,,,,,,2,,,50,0
31146,note_on,0,0,3,,,,,,,,,2,,,53,0
31170,note_on,90,0,1,,,,,,,,,0,,,93,0
31170,note_on,0,0,1,,,,,,,,,0,,,81,0
31170,note_on,0,0,1,,,,,,,,,0,,,81,36
31170,note_on,0,0,1,,,,,,,,,0,,,93,36
31200,note_on,0,0,3,,,,,,,,,2,,,57,36
31200,note_on,0,0,3,,,,,,,,,2,,,52,36
31200,note_on,54,0,3,,,,,,,,,2,,,49,36
31200,control_change,0,0,1,,,,,,,,,0,64,0,,
31200,note_on,0,0,1,,,,,,,,,0,,,81,36
31200,note_on,0,0,1,,,,,,,,,0,,,93,36
31200,set_tempo,60,1,0,,,,,,1016949,,,,,,,
31200,note_on,30,0,1,,,,,,,,,0,,,93,0
31200,note_on,0,0,1,,,,,,,,,0,,,81,0
31206,note_on,6,0,3,,,,,,,,,2,,,57,0
31206,note_on,0,0,3,,,,,,,,,2,,,52,0
31206,note_on,0,0,3,,,,,,,,,2,,,49,0
31260,note_on,0,0,3,,,,,,,,,2,,,57,36
31260,set_tempo,60,1,0,,,,,,1071429,,,,,,,
31260,note_on,54,0,3,,,,,,,,,2,,,50,36
31260,note_on,0,0,3,,,,,,,,,2,,,53,36
31266,note_on,6,0,3,,,,,,,,,2,,,57,0
31266,note_on,0,0,3,,,,,,,,,2,,,50,0
31266,note_on,0,0,3,,,,,,,,,2,,,53,0
31320,note_on,54,0,3,,,,,,,,,2,,,49,36
31320,note_on,0,0,3,,,,,,,,,2,,,52,36
31320,note_on,0,0,3,,,,,,,,,2,,,57,36
31320,set_tempo,60,1,0,,,,,,1132075,,,,,,,
31320,note_on,0,0,1,,,,,,,,,0,,,81,0
31320,note_on,120,0,1,,,,,,,,,0,,,93,0
31326,note_on,6,0,3,,,,,,,,,2,,,57,0
31326,note_on,0,0,3,,,,,,,,,2,,,52,0
31326,note_on,0,0,3,,,,,,,,,2,,,49,0
31380,note_on,0,0,3,,,,,,,,,2,,,57,36
31380,note_on,0,0,3,,,,,,,,,2,,,49,36
31380,note_on,0,0,3,,,,,,,,,2,,,45,36
31380,control_change,54,0,3,,,,,,,,,2,64,0,,
31380,set_tempo,60,1,0,,,,,,1200000,,,,,,,
31386,note_on,6,0,3,,,,,,,,,2,,,57,0
31386,note_on,0,0,3,,,,,,,,,2,,,45,0
31386,note_on,0,0,3,,,,,,,,,2,,,49,0
31440,note_on,0,0,1,,,,,,,,,0,,,81,36
31440,note_on,0,0,3,,,,,,,,,2,,,62,36
31440,note_on,0,0,3,,,,,,,,,2,,,53,36
31440,note_on,120,0,1,,,,,,,,,0,,,69,36
31440,note_on,54,0,3,,,,,,,,,2,,,50,36
31440,set_tempo,60,1,0,,,,,,882353,,,,,,,
31446,note_on,0,0,3,,,,,,,,,2,,,53,0
31446,note_on,6,0,3,,,,,,,,,2,,,62,0
31446,note_on,0,0,3,,,,,,,,,2,,,50,0
31500,note_on,54,0,3,,,,,,,,,2,,,52,36
31500,note_on,0,0,3,,,,,,,,,2,,,55,36
31500,note_on,0,0,3,,,,,,,,,2,,,62,36
31506,note_on,6,0,3,,,,,,,,,2,,,62,0
31506,note_on,0,0,3,,,,,,,,,2,,,52,0
31506,note_on,0,0,3,,,,,,,,,2,,,55,0
31560,control_change,54,0,3,,,,,,,,,2,64,127,,
31560,note_on,0,0,3,,,,,,,,,2,,,53,36
31560,note_on,0,0,3,,,,,,,,,2,,,57,36
31560,note_on,0,0,3,,,,,,,,,2,,,62,36
31560,note_on,120,0,1,,,,,,,,,0,,,81,0
31560,note_on,0,0,1,,,,,,,,,0,,,69,36
31560,control_change,0,0,1,,,,,,,,,0,64,127,,
31560,note_on,0,0,1,,,,,,,,,0,,,81,36
31560,note_on,0,0,1,,,,,,,,,0,,,69,0
31566,note_on,0,0,3,,,,,,,,,2,,,53,0
31566,note_on,0,0,3,,,,,,,,,2,,,57,0
31566,note_on,6,0,3,,,,,,,,,2,,,62,0
31620,note_on,0,0,3,,,,,,,,,2,,,62,36
31620,note_on,0,0,3,,,,,,,,,2,,,55,36
31620,note_on,54,0,3,,,,,,,,,2,,,52,36
31626,note_on,0,0,3,,,,,,,,,2,,,52,0
31626,note_on,6,0,3,,,,,,,,,2,,,62,0
31626,note_on,0,0,3,,,,,,,,,2,,,55,0
31650,note_on,90,0,1,,,,,,,,,0,,,81,0
31650,note_on,0,0,1,,,,,,,,,0,,,68,36
31650,note_on,0,0,1,,,,,,,,,0,,,80,36
31650,note_on,0,0,1,,,,,,,,,0,,,69,0
31680,note_on,30,0,1,,,,,,,,,0,,,80,0
31680,note_on,0,0,1,,,,,,,,,0,,,68,0
31680,note_on,0,0,1,,,,,,,,,0,,,69,36
31680,note_on,0,0,1,,,,,,,,,0,,,81,36
31680,note_on,54,0,3,,,,,,,,,2,,,50,36
31680,note_on,0,0,3,,,,,,,,,2,,,53,36
31680,note_on,0,0,3,,,,,,,,,2,,,62,36
31686,note_on,6,0,3,,,,,,,,,2,,,62,0
31686,note_on,0,0,3,,,,,,,,,2,,,53,0
31686,note_on,0,0,3,,,,,,,,,2,,,50,0
31740,note_on,54,0,3,,,,,,,,,2,,,52,36
31740,note_on,0,0,3,,,,,,,,,2,,,62,36
31740,note_on,0,0,3,,,,,,,,,2,,,55,36
31746,note_on,0,0,3,,,,,,,,,2,,,52,0
31746,note_on,0,0,3,,,,,,,,,2,,,55,0
31746,note_on,6,0,3,,,,,,,,,2,,,62,0
31800,note_on,0,0,3,,,,,,,,,2,,,62,36
31800,note_on,0,0,3,,,,,,,,,2,,,57,36
31800,note_on,54,0,3,,,,,,,,,2,,,53,36
31800,note_on,0,0,1,,,,,,,,,0,,,86,36
31800,note_on,120,0,1,,,,,,,,,0,,,81,0
31800,note_on,0,0,1,,,,,,,,,0,,,69,0
31800,note_on,0,0,1,,,,,,,,,0,,,74,36
31800,control_change,0,0,1,,,,,,,,,0,64,0,,
31806,note_on,6,0,3,,,,,,,,,2,,,62,0
31806,note_on,0,0,3,,,,,,,,,2,,,57,0
31806,note_on,0,0,3,,,,,,,,,2,,,53,0
31860,note_on,0,0,3,,,,,,,,,2,,,53,36
31860,note_on,0,0,3,,,,,,,,,2,,,50,36
31860,control_change,54,0,3,,,,,,,,,2,64,0,,
31860,note_on,0,0,3,,,,,,,,,2,,,62,36
31866,note_on,0,0,3,,,,,,,,,2,,,50,0
31866,note_on,0,0,3,,,,,,,,,2,,,53,0
31866,note_on,6,0,3,,,,,,,,,2,,,62,0
31920,note_on,0,0,1,,,,,,,,,0,,,82,36
31920,note_on,0,0,1,,,,,,,,,0,,,70,36
31920,note_on,0,0,1,,,,,,,,,0,,,74,0
31920,note_on,0,0,3,,,,,,,,,2,,,61,36
31920,note_on,120,0,1,,,,,,,,,0,,,86,0
31920,note_on,54,0,3,,,,,,,,,2,,,52,36
31920,note_on,0,0,3,,,,,,,,,2,,,55,36
31926,note_on,6,0,3,,,,,,,,,2,,,61,0
31926,note_on,0,0,3,,,,,,,,,2,,,55,0
31926,note_on,0,0,3,,,,,,,,,2,,,52,0
31980,note_on,54,0,3,,,,,,,,,2,,,53,36
31980,note_on,0,0,3,,,,,,,,,2,,,57,36
31980,note_on,0,0,3,,,,,,,,,2,,,61,36
31986,note_on,6,0,3,,,,,,,,,2,,,61,0
31986,note_on,0,0,3,,,,,,,,,2,,,57,0
31986,note_on,0,0,3,,,,,,,,,2,,,53,0
32040,control_change,54,0,3,,,,,,,,,2,64,127,,
32040,note_on,0,0,3,,,,,,,,,2,,,55,36
32040,note_on,0,0,3,,,,,,,,,2,,,57,36
32040,note_on,0,0,3,,,,,,,,,2,,,61,36
32040,note_on,120,0,1,,,,,,,,,0,,,82,0
32040,note_on,0,0,1,,,,,,,,,0,,,82,36
32040,note_on,0,0,1,,,,,,,,,0,,,70,0
32040,note_on,0,0,1,,,,,,,,,0,,,70,36
32040,control_change,0,0,1,,,,,,,,,0,64,127,,
32046,note_on,6,0,3,,,,,,,,,2,,,61,0
32046,note_on,0,0,3,,,,,,,,,2,,,57,0
32046,note_on,0,0,3,,,,,,,,,2,,,55,0
32100,note_on,0,0,3,,,,,,,,,2,,,57,36
32100,note_on,54,0,3,,,,,,,,,2,,,53,36
32100,note_on,0,0,3,,,,,,,,,2,,,61,36
32106,note_on,0,0,3,,,,,,,,,2,,,57,0
32106,note_on,0,0,3,,,,,,,,,2,,,53,0
32106,note_on,6,0,3,,,,,,,,,2,,,61,0
32130,note_on,0,0,1,,,,,,,,,0,,,81,36
32130,note_on,0,0,1,,,,,,,,,0,,,69,36
32130,note_on,0,0,1,,,,,,,,,0,,,70,0
32130,note_on,90,0,1,,,,,,,,,0,,,82,0
32160,note_on,54,0,3,,,,,,,,,2,,,52,36
32160,note_on,0,0,3,,,,,,,,,2,,,55,36
32160,note_on,0,0,3,,,,,,,,,2,,,61,36
32160,note_on,0,0,1,,,,,,,,,0,,,69,0
32160,note_on,0,0,1,,,,,,,,,0,,,70,36
32160,note_on,0,0,1,,,,,,,,,0,,,82,36
32160,note_on,30,0,1,,,,,,,,,0,,,81,0
32166,note_on,0,0,3,,,,,,,,,2,,,52,0
32166,note_on,0,0,3,,,,,,,,,2,,,55,0
32166,note_on,6,0,3,,,,,,,,,2,,,61,0
32220,note_on,0,0,3,,,,,,,,,2,,,61,36
32220,note_on,54,0,3,,,,,,,,,2,,,53,36
32220,note_on,0,0,3,,,,,,,,,2,,,57,36
32226,note_on,0,0,3,,,,,,,,,2,,,57,0
32226,note_on,0,0,3,,,,,,,,,2,,,53,0
32226,note_on,6,0,3,,,,,,,,,2,,,61,0
32280,note_on,0,0,3,,,,,,,,,2,,,61,36
32280,note_on,0,0,3,,,,,,,,,2,,,57,36
32280,note_on,120,0,1,,,,,,,,,0,,,82,0
32280,note_on,54,0,3,,,,,,,,,2,,,55,36
32280,note_on,0,0,1,,,,,,,,,0,,,76,36
32280,note_on,0,0,1,,,,,,,,,0,,,88,36
32280,control_change,0,0,1,,,,,,,,,0,64,0,,
32280,note_on,0,0,1,,,,,,,,,0,,,70,0
32286,note_on,6,0,3,,,,,,,,,2,,,61,0
32286,note_on,0,0,3,,,,,,,,,2,,,57,0
32286,note_on,0,0,3,,,,,,,,,2,,,55,0
32340,note_on,0,0,3,,,,,,,,,2,,,61,36
32340,control_change,54,0,3,,,,,,,,,2,64,0,,
32340,note_on,0,0,3,,,,,,,,,2,,,55,36
32340,note_on,0,0,3,,,,,,,,,2,,,52,36
32346,note_on,6,0,3,,,,,,,,,2,,,61,0
32346,note_on,0,0,3,,,,,,,,,2,,,52,0
32346,note_on,0,0,3,,,,,,,,,2,,,55,0
32400,note_on,54,0,3,,,,,,,,,2,,,50,36
32400,note_on,0,0,3,,,,,,,,,2,,,53,36
32400,note_on,0,0,3,,,,,,,,,2,,,62,36
32400,note_on,0,0,1,,,,,,,,,0,,,89,36
32400,note_on,120,0,1,,,,,,,,,0,,,88,0
32400,note_on,0,0,1,,,,,,,,,0,,,76,0
32400,note_on,0,0,1,,,,,,,,,0,,,77,36
32406,note_on,6,0,3,,,,,,,,,2,,,62,0
32406,note_on,0,0,3,,,,,,,,,2,,,53,0
32406,note_on,0,0,3,,,,,,,,,2,,,50,0
32460,note_on,0,0,3,,,,,,,,,2,,,55,36
32460,note_on,0,0,3,,,,,,,,,2,,,62,36
32460,note_on,54,0,3,,,,,,,,,2,,,52,36
32466,note_on,0,0,3,,,,,,,,,2,,,55,0
32466,note_on,0,0,3,,,,,,,,,2,,,52,0
32466,note_on,6,0,3,,,,,,,,,2,,,62,0
32520,note_on,120,0,1,,,,,,,,,0,,,89,0
32520,note_on,0,0,1,,,,,,,,,0,,,77,0
32520,note_on,0,0,1,,,,,,,,,0,,,77,49
32520,note_on,0,0,1,,,,,,,,,0,,,89,49
32520,control_change,0,0,1,,,,,,,,,0,64,127,,
32520,control_change,54,0,3,,,,,,,,,2,64,127,,
32520,note_on,0,0,3,,,,,,,,,2,,,57,36
32520,note_on,0,0,3,,,,,,,,,2,,,62,36
32520,note_on,0,0,3,,,,,,,,,2,,,53,36
32526,note_on,6,0,3,,,,,,,,,2,,,62,0
32526,note_on,0,0,3,,,,,,,,,2,,,57,0
32526,note_on,0,0,3,,,,,,,,,2,,,53,0
32580,note_on,54,0,3,,,,,,,,,2,,,52,36
32580,note_on,0,0,3,,,,,,,,,2,,,62,36
32580,note_on,0,0,3,,,,,,,,,2,,,55,36
32586,note_on,0,0,3,,,,,,,,,2,,,52,0
32586,note_on,0,0,3,,,,,,,,,2,,,55,0
32586,note_on,6,0,3,,,,,,,,,2,,,62,0
32610,note_on,0,0,1,,,,,,,,,0,,,77,0
32610,note_on,0,0,1,,,,,,,,,0,,,79,49
32610,note_on,0,0,1,,,,,,,,,0,,,91,49
32610,note_on,90,0,1,,,,,,,,,0,,,89,0
32640,note_on,0,0,3,,,,,,,,,2,,,53,49
32640,note_on,54,0,3,,,,,,,,,2,,,50,49
32640,note_on,0,0,3,,,,,,,,,2,,,62,49
32640,note_on,0,0,1,,,,,,,,,0,,,93,62
32640,note_on,0,0,1,,,,,,,,,0,,,81,62
32640,note_on,0,0,1,,,,,,,,,0,,,79,0
32640,note_on,30,0,1,,,,,,,,,0,,,91,0
32640,control_change,0,0,1,,,,,,,,,0,64,0,,
32646,note_on,6,0,3,,,,,,,,,2,,,62,0
32646,note_on,0,0,3,,,,,,,,,2,,,53,0
32646,note_on,0,0,3,,,,,,,,,2,,,50,0
32700,note_on,0,0,3,,,,,,,,,2,,,55,49
32700,note_on,0,0,3,,,,,,,,,2,,,62,49
32700,note_on,54,0,3,,,,,,,,,2,,,52,49
32706,note_on,6,0,3,,,,,,,,,2,,,62,0
32706,note_on,0,0,3,,,,,,,,,2,,,55,0
32706,note_on,0,0,3,,,,,,,,,2,,,52,0
32760,note_on,54,0,3,,,,,,,,,2,,,50,49
32760,note_on,0,0,3,,,,,,,,,2,,,53,49
32760,note_on,0,0,3,,,,,,,,,2,,,62,49
32766,note_on,0,0,3,,,,,,,,,2,,,50,0
32766,note_on,6,0,3,,,,,,,,,2,,,62,0
32766,note_on,0,0,3,,,,,,,,,2,,,53,0
32820,note_on,0,0,3,,,,,,,,,2,,,60,49
32820,note_on,0,0,3,,,,,,,,,2,,,52,49
32820,control_change,54,0,3,,,,,,,,,2,64,0,,
32820,note_on,0,0,3,,,,,,,,,2,,,48,49
32826,note_on,6,0,3,,,,,,,,,2,,,60,0
32826,note_on,0,0,3,,,,,,,,,2,,,48,0
32826,note_on,0,0,3,,,,,,,,,2,,,52,0
32880,control_change,54,0,3,,,,,,,,,2,64,127,,
32880,note_on,0,0,1,,,,,,,,,0,,,82,75
32880,note_on,0,0,1,,,,,,,,,0,,,81,0
32880,note_on,0,0,3,,,,,,,,,2,,,46,62
32880,note_on,0,0,3,,,,,,,,,2,,,50,62
32880,note_on,0,0,3,,,,,,,,,2,,,58,62
32880,note_on,0,0,1,,,,,,,,,0,,,94,75
32880,control_change,0,0,1,,,,,,,,,0,64,127,,
32880,note_on,240,0,1,,,,,,,,,0,,,93,0
32886,note_on,6,0,3,,,,,,,,,2,,,58,0
32886,note_on,0,0,3,,,,,,,,,2,,,50,0
32886,note_on,0,0,3,,,,,,,,,2,,,46,0
32940,note_on,54,0,3,,,,,,,,,2,,,48,62
32940,note_on,0,0,3,,,,,,,,,2,,,52,62
32940,note_on,0,0,3,,,,,,,,,2,,,58,62
32946,note_on,6,0,3,,,,,,,,,2,,,58,0
32946,note_on,0,0,3,,,,,,,,,2,,,52,0
32946,note_on,0,0,3,,,,,,,,,2,,,48,0
33000,note_on,0,0,3,,,,,,,,,2,,,50,62
33000,note_on,0,0,1,,,,,,,,,0,,,82,75
33000,note_on,0,0,1,,,,,,,,,0,,,82,0
33000,note_on,0,0,1,,,,,,,,,0,,,94,75
33000,note_on,120,0,1,,,,,,,,,0,,,94,0
33000,note_on,0,0,3,,,,,,,,,2,,,58,62
33000,note_on,54,0,3,,,,,,,,,2,,,46,62
33006,note_on,6,0,3,,,,,,,,,2,,,58,0
33006,note_on,0,0,3,,,,,,,,,2,,,50,0
33006,note_on,0,0,3,,,,,,,,,2,,,46,0
33060,note_on,0,0,3,,,,,,,,,2,,,57,62
33060,note_on,54,0,3,,,,,,,,,2,,,45,62
33060,note_on,0,0,3,,,,,,,,,2,,,48,62
33066,note_on,0,0,3,,,,,,,,,2,,,48,0
33066,note_on,0,0,3,,,,,,,,,2,,,45,0
33066,note_on,6,0,3,,,,,,,,,2,,,57,0
33090,note_on,90,0,1,,,,,,,,,0,,,94,0
33090,note_on,0,0,1,,,,,,,,,0,,,82,0
33090,note_on,0,0,1,,,,,,,,,0,,,84,75
33090,note_on,0,0,1,,,,,,,,,0,,,96,75
33120,control_change,0,0,1,,,,,,,,,0,64,0,,
33120,note_on,30,0,1,,,,,,,,,0,,,96,0
33120,note_on,0,0,1,,,,,,,,,0,,,84,0
33120,note_on,0,0,1,,,,,,,,,0,,,86,75
33120,note_on,0,0,1,,,,,,,,,0,,,98,75
33120,set_tempo,1680,1,0,,,,,,833333,,,,,,,
33120,note_on,54,0,3,,,,,,,,,2,,,43,62
33120,note_on,0,0,3,,,,,,,,,2,,,46,62
33120,note_on,0,0,3,,,,,,,,,2,,,55,62
33126,note_on,6,0,3,,,,,,,,,2,,,55,0
33126,note_on,0,0,3,,,,,,,,,2,,,46,0
33126,note_on,0,0,3,,,,,,,,,2,,,43,0
33180,note_on,54,0,3,,,,,,,,,2,,,45,62
33180,note_on,0,0,3,,,,,,,,,2,,,48,62
33180,note_on,0,0,3,,,,,,,,,2,,,55,62
33186,note_on,0,0,3,,,,,,,,,2,,,45,0
33186,note_on,6,0,3,,,,,,,,,2,,,55,0
33186,note_on,0,0,3,,,,,,,,,2,,,48,0
33240,note_on,0,0,3,,,,,,,,,2,,,50,62
33240,note_on,54,0,3,,,,,,,,,2,,,46,62
33240,note_on,0,0,3,,,,,,,,,2,,,55,62
33246,note_on,0,0,3,,,,,,,,,2,,,46,0
33246,note_on,6,0,3,,,,,,,,,2,,,55,0
33246,note_on,0,0,3,,,,,,,,,2,,,50,0
33300,note_on,0,0,3,,,,,,,,,2,,,46,62
33300,note_on,0,0,3,,,,,,,,,2,,,53,62
33300,note_on,0,0,3,,,,,,,,,2,,,56,62
33300,control_change,54,0,3,,,,,,,,,2,64,0,,
33306,note_on,0,0,3,,,,,,,,,2,,,46,0
33306,note_on,6,0,3,,,,,,,,,2,,,56,0
33306,note_on,0,0,3,,,,,,,,,2,,,53,0
33360,note_on,0,0,1,,,,,,,,,0,,,81,36
33360,note_on,0,0,1,,,,,,,,,0,,,86,0
33360,note_on,240,0,1,,,,,,,,,0,,,98,0
33360,note_on,0,0,1,,,,,,,,,0,,,93,36
33360,control_change,54,0,3,,,,,,,,,2,64,127,,
33360,note_on,0,0,3,,,,,,,,,2,,,45,36
33366,note_on,6,0,3,,,,,,,,,2,,,45,0
33420,control_change,54,0,3,,,,,,,,,2,64,0,,
33420,note_on,0,0,3,,,,,,,,,2,,,53,36
33420,note_on,0,0,3,,,,,,,,,2,,,57,36
33420,note_on,0,0,3,,,,,,,,,2,,,62,36
33426,note_on,6,0,3,,,,,,,,,2,,,62,0
33426,note_on,0,0,3,,,,,,,,,2,,,57,0
33426,note_on,0,0,3,,,,,,,,,2,,,53,0
33480,control_change,54,0,3,,,,,,,,,2,64,127,,
33480,note_on,120,0,1,,,,,,,,,0,,,93,0
33480,note_on,0,0,1,,,,,,,,,0,,,81,0
33480,note_on,0,0,1,,,,,,,,,0,,,93,36
33480,note_on,0,0,1,,,,,,,,,0,,,81,36
33480,note_on,0,0,3,,,,,,,,,2,,,45,36
33486,note_on,6,0,3,,,,,,,,,2,,,45,0
33540,control_change,54,0,3,,,,,,,,,2,64,0,,
33540,note_on,0,0,3,,,,,,,,,2,,,55,36
33540,note_on,0,0,3,,,,,,,,,2,,,57,36
33540,note_on,0,0,3,,,,,,,,,2,,,61,36
33546,note_on,6,0,3,,,,,,,,,2,,,61,0
33546,note_on,0,0,3,,,,,,,,,2,,,57,0
33546,note_on,0,0,3,,,,,,,,,2,,,55,0
33570,note_on,0,0,1,,,,,,,,,0,,,81,0
33570,note_on,90,0,1,,,,,,,,,0,,,93,0
33570,note_on,0,0,1,,,,,,,,,0,,,93,36
33570,note_on,0,0,1,,,,,,,,,0,,,81,36
33600,note_on,0,0,1,,,,,,,,,0,,,81,0
33600,note_on,30,0,1,,,,,,,,,0,,,93,0
33600,note_on,0,0,1,,,,,,,,,0,,,93,36
33600,control_change,54,0,3,,,,,,,,,2,64,127,,
33600,note_on,0,0,3,,,,,,,,,2,,,50,36
33600,note_on,0,0,1,,,,,,,,,0,,,81,36
33606,note_on,6,0,3,,,,,,,,,2,,,50,0
33660,note_on,54,0,3,,,,,,,,,2,,,57,36
33660,note_on,0,0,3,,,,,,,,,2,,,65,36
33660,note_on,6060,0,4,,,,,,,,,3,,,57,36
33720,note_on,0,0,3,,,,,,,,,2,,,57,0
33720,note_on,0,0,3,,,,,,,,,2,,,55,36
33720,note_on,60,0,3,,,,,,,,,2,,,65,0
33720,note_on,0,0,3,,,,,,,,,2,,,64,36
33780,note_on,60,0,3,,,,,,,,,2,,,64,0
33780,note_on,0,0,3,,,,,,,,,2,,,55,0
33780,control_change,0,0,3,,,,,,,,,2,64,0,,
33780,note_on,0,0,3,,,,,,,,,2,,,53,36
33780,note_on,0,0,3,,,,,,,,,2,,,62,36
33840,note_on,0,0,1,,,,,,,,,0,,,81,0
33840,note_on,180,0,4,,,,,,,,,3,,,57,0
33840,note_on,60,0,3,,,,,,,,,2,,,62,0
33840,note_on,0,0,3,,,,,,,,,2,,,53,0
33840,control_change,0,0,3,,,,,,,,,2,64,127,,
33840,note_on,0,0,3,,,,,,,,,2,,,45,36
33840,note_on,0,0,1,,,,,,,,,0,,,93,36
33840,note_on,240,0,1,,,,,,,,,0,,,93,0
33840,note_on,0,0,1,,,,,,,,,0,,,81,36
33846,note_on,6,0,3,,,,,,,,,2,,,45,0
33900,note_on,0,0,3,,,,,,,,,2,,,57,36
33900,control_change,54,0,3,,,,,,,,,2,64,0,,
33900,note_on,0,0,3,,,,,,,,,2,,,53,36
33900,note_on,0,0,3,,,,,,,,,2,,,62,36
33906,note_on,6,0,3,,,,,,,,,2,,,62,0
33906,note_on,0,0,3,,,,,,,,,2,,,57,0
33906,note_on,0,0,3,,,,,,,,,2,,,53,0
33960,note_on,0,0,3,,,,,,,,,2,,,45,36
33960,control_change,54,0,3,,,,,,,,,2,64,127,,
33960,note_on,0,0,1,,,,,,,,,0,,,93,36
33960,note_on,0,0,1,,,,,,,,,0,,,81,36
33960,note_on,0,0,1,,,,,,,,,0,,,81,0
33960,note_on,120,0,1,,,,,,,,,0,,,93,0
33966,note_on,6,0,3,,,,,,,,,2,,,45,0
34020,note_on,0,0,3,,,,,,,,,2,,,61,36
34020,note_on,0,0,3,,,,,,,,,2,,,57,36
34020,control_change,54,0,3,,,,,,,,,2,64,0,,
34020,note_on,0,0,3,,,,,,,,,2,,,55,36
34026,note_on,6,0,3,,,,,,,,,2,,,61,0
34026,note_on,0,0,3,,,,,,,,,2,,,57,0
34026,note_on,0,0,3,,,,,,,,,2,,,55,0
34050,note_on,0,0,1,,,,,,,,,0,,,81,0
34050,note_on,0,0,1,,,,,,,,,0,,,93,36
34050,note_on,90,0,1,,,,,,,,,0,,,93,0
34050,note_on,0,0,1,,,,,,,,,0,,,81,36
34080,note_on,30,0,1,,,,,,,,,0,,,93,0
34080,note_on,0,0,1,,,,,,,,,0,,,81,0
34080,note_on,0,0,1,,,,,,,,,0,,,74,36
34080,note_on,0,0,1,,,,,,,,,0,,,86,36
34080,note_on,0,0,3,,,,,,,,,2,,,38,36
34080,control_change,54,0,3,,,,,,,,,2,64,127,,
34086,note_on,6,0,3,,,,,,,,,2,,,38,0
34140,note_on,54,0,3,,,,,,,,,2,,,65,36
34140,note_on,0,0,3,,,,,,,,,2,,,69,36
34200,note_on,60,0,3,,,,,,,,,2,,,69,0
34200,note_on,0,0,3,,,,,,,,,2,,,67,36
34200,note_on,0,0,3,,,,,,,,,2,,,64,36
34200,note_on,0,0,3,,,,,,,,,2,,,65,0
34260,note_on,60,0,3,,,,,,,,,2,,,67,0
34260,control_change,0,0,3,,,,,,,,,2,64,0,,
34260,note_on,0,0,3,,,,,,,,,2,,,62,36
34260,note_on,0,0,3,,,,,,,,,2,,,65,36
34260,note_on,0,0,3,,,,,,,,,2,,,64,0
34320,note_on,60,0,3,,,,,,,,,2,,,65,0
34320,note_on,0,0,3,,,,,,,,,2,,,62,0
34320,control_change,0,0,3,,,,,,,,,2,64,127,,
34320,note_on,0,0,3,,,,,,,,,2,,,57,36
34320,note_on,0,0,3,,,,,,,,,2,,,61,36
34320,note_on,0,0,3,,,,,,,,,2,,,64,36
34320,note_on,240,0,1,,,,,,,,,0,,,86,0
34320,note_on,0,0,1,,,,,,,,,0,,,74,0
34320,note_on,0,0,1,,,,,,,,,0,,,69,36
34320,note_on,0,0,1,,,,,,,,,0,,,81,36
34320,control_change,0,0,1,,,,,,,,,0,64,127,,
34326,note_on,0,0,3,,,,,,,,,2,,,61,0
34326,note_on,0,0,3,,,,,,,,,2,,,57,0
34326,note_on,6,0,3,,,,,,,,,2,,,64,0
34380,note_on,54,0,3,,,,,,,,,2,,,57,36
34380,note_on,0,0,3,,,,,,,,,2,,,60,36
34380,note_on,0,0,3,,,,,,,,,2,,,63,36
34386,note_on,6,0,3,,,,,,,,,2,,,63,0
34386,note_on,0,0,3,,,,,,,,,2,,,60,0
34386,note_on,0,0,3,,,,,,,,,2,,,57,0
34440,note_on,0,0,1,,,,,,,,,0,,,69,0
34440,note_on,54,0,3,,,,,,,,,2,,,57,36
34440,note_on,0,0,3,,,,,,,,,2,,,61,36
34440,note_on,0,0,3,,,,,,,,,2,,,64,36
34440,note_on,0,0,1,,,,,,,,,0,,,69,36
34440,note_on,120,0,1,,,,,,,,,0,,,81,0
34440,note_on,0,0,1,,,,,,,,,0,,,81,36
34446,note_on,6,0,3,,,,,,,,,2,,,64,0
34446,note_on,0,0,3,,,,,,,,,2,,,61,0
34446,note_on,0,0,3,,,,,,,,,2,,,57,0
34500,note_on,0,0,3,,,,,,,,,2,,,60,36
34500,note_on,54,0,3,,,,,,,,,2,,,57,36
34500,note_on,0,0,3,,,,,,,,,2,,,63,36
34506,note_on,0,0,3,,,,,,,,,2,,,57,0
34506,note_on,6,0,3,,,,,,,,,2,,,63,0
34506,note_on,0,0,3,,,,,,,,,2,,,60,0
34530,note_on,0,0,1,,,,,,,,,0,,,81,36
34530,note_on,0,0,1,,,,,,,,,0,,,69,36
34530,note_on,0,0,1,,,,,,,,,0,,,69,0
34530,note_on,90,0,1,,,,,,,,,0,,,81,0
34560,note_on,0,0,1,,,,,,,,,0,,,69,36
34560,note_on,0,0,1,,,,,,,,,0,,,69,0
34560,note_on,30,0,1,,,,,,,,,0,,,81,0
34560,control_change,0,0,1,,,,,,,,,0,64,0,,
34560,note_on,54,0,3,,,,,,,,,2,,,57,36
34560,note_on,0,0,3,,,,,,,,,2,,,61,36
34560,note_on,0,0,3,,,,,,,,,2,,,64,36
34560,note_on,0,0,1,,,,,,,,,0,,,81,36
34566,note_on,6,0,3,,,,,,,,,2,,,64,0
34566,note_on,0,0,3,,,,,,,,,2,,,61,0
34566,note_on,0,0,3,,,,,,,,,2,,,57,0
34620,control_change,54,0,3,,,,,,,,,2,64,0,,
34620,note_on,0,0,3,,,,,,,,,2,,,57,36
34620,note_on,0,0,3,,,,,,,,,2,,,60,36
34620,note_on,0,0,3,,,,,,,,,2,,,63,36
34626,note_on,0,0,3,,,,,,,,,2,,,60,0
34626,note_on,0,0,3,,,,,,,,,2,,,57,0
34626,note_on,6,0,3,,,,,,,,,2,,,63,0
34680,control_change,0,0,1,,,,,,,,,0,64,127,,
34680,note_on,0,0,3,,,,,,,,,2,,,61,36
34680,note_on,0,0,3,,,,,,,,,2,,,64,36
34680,note_on,0,0,3,,,,,,,,,2,,,57,36
34680,control_change,54,0,3,,,,,,,,,2,64,127,,
34680,note_on,0,0,1,,,,,,,,,0,,,69,0
34680,note_on,0,0,1,,,,,,,,,0,,,69,36
34680,note_on,0,0,1,,,,,,,,,0,,,81,36
34680,note_on,120,0,1,,,,,,,,,0,,,81,0
34686,note_on,0,0,3,,,,,,,,,2,,,57,0
34686,note_on,0,0,3,,,,,,,,,2,,,61,0
34686,note_on,6,0,3,,,,,,,,,2,,,64,0
34740,note_on,0,0,3,,,,,,,,,2,,,65,36
34740,note_on,54,0,3,,,,,,,,,2,,,57,36
34740,note_on,0,0,3,,,,,,,,,2,,,62,36
34746,note_on,0,0,3,,,,,,,,,2,,,57,0
34746,note_on,0,0,3,,,,,,,,,2,,,62,0
34746,note_on,6,0,3,,,,,,,,,2,,,65,0
34770,note_on,0,0,1,,,,,,,,,0,,,69,0
34770,note_on,0,0,1,,,,,,,,,0,,,69,36
34770,note_on,90,0,1,,,,,,,,,0,,,81,0
34770,note_on,0,0,1,,,,,,,,,0,,,81,36
34800,note_on,0,0,1,,,,,,,,,0,,,73,49
34800,note_on,0,0,3,,,,,,,,,2,,,67,36
34800,note_on,0,0,3,,,,,,,,,2,,,64,36
34800,note_on,54,0,3,,,,,,,,,2,,,57,36
34800,note_on,30,0,1,,,,,,,,,0,,,81,0
34800,note_on,0,0,1,,,,,,,,,0,,,69,0
34800,note_on,0,0,1,,,,,,,,,0,,,85,49
34806,note_on,0,0,3,,,,,,,,,2,,,57,0
34806,note_on,0,0,3,,,,,,,,,2,,,64,0
34806,note_on,6,0,3,,,,,,,,,2,,,67,0
34860,note_on,0,0,3,,,,,,,,,2,,,69,36
34860,note_on,0,0,3,,,,,,,,,2,,,65,36
34860,note_on,54,0,3,,,,,,,,,2,,,57,36
34866,note_on,0,0,3,,,,,,,,,2,,,57,0
34866,note_on,0,0,3,,,,,,,,,2,,,65,0
34866,note_on,6,0,3,,,,,,,,,2,,,69,0
34920,note_on,0,0,1,,,,,,,,,0,,,73,0
34920,note_on,54,0,3,,,,,,,,,2,,,57,49
34920,note_on,0,0,1,,,,,,,,,0,,,76,62
34920,note_on,0,0,3,,,,,,,,,2,,,70,49
34920,note_on,120,0,1,,,,,,,,,0,,,85,0
34920,note_on,0,0,1,,,,,,,,,0,,,88,62
34920,note_on,0,0,3,,,,,,,,,2,,,67,49
34920,control_change,0,0,1,,,,,,,,,0,64,0,,
34926,note_on,0,0,3,,,,,,,,,2,,,67,0
34926,note_on,0,0,3,,,,,,,,,2,,,57,0
34926,note_on,6,0,3,,,,,,,,,2,,,70,0
34980,control_change,54,0,3,,,,,,,,,2,64,0,,
34980,note_on,0,0,3,,,,,,,,,2,,,57,49
34980,note_on,0,0,3,,,,,,,,,2,,,61,49
34980,note_on,0,0,3,,,,,,,,,2,,,67,49
34986,note_on,0,0,3,,,,,,,,,2,,,61,0
34986,note_on,0,0,3,,,,,,,,,2,,,57,0
34986,note_on,6,0,3,,,,,,,,,2,,,67,0
35040,note_on,0,0,3,,,,,,,,,2,,,62,62
35040,control_change,54,0,3,,,,,,,,,2,64,127,,
35040,note_on,0,0,3,,,,,,,,,2,,,65,62
35040,note_on,0,0,3,,,,,,,,,2,,,58,62
35040,note_on,0,0,1,,,,,,,,,0,,,76,0
35040,note_on,0,0,1,,,,,,,,,0,,,86,75
35040,note_on,0,0,1,,,,,,,,,0,,,74,75
35040,note_on,120,0,1,,,,,,,,,0,,,88,0
35040,control_change,0,0,1,,,,,,,,,0,64,127,,
35046,note_on,6,0,3,,,,,,,,,2,,,65,0
35046,note_on,0,0,3,,,,,,,,,2,,,62,0
35046,note_on,0,0,3,,,,,,,,,2,,,58,0
35100,note_on,0,0,3,,,,,,,,,2,,,64,62
35100,note_on,0,0,3,,,,,,,,,2,,,67,62
35100,note_on,54,0,3,,,,,,,,,2,,,58,62
35106,note_on,6,0,3,,,,,,,,,2,,,67,0
35106,note_on,0,0,3,,,,,,,,,2,,,64,0
35106,note_on,0,0,3,,,,,,,,,2,,,58,0
35130,note_on,0,0,1,,,,,,,,,0,,,73,75
35130,note_on,0,0,1,,,,,,,,,0,,,74,0
35130,note_on,90,0,1,,,,,,,,,0,,,86,0
35130,note_on,0,0,1,,,,,,,,,0,,,85,75
35160,note_on,0,0,3,,,,,,,,,2,,,62,62
35160,note_on,30,0,1,,,,,,,,,0,,,85,0
35160,note_on,0,0,1,,,,,,,,,0,,,73,0
35160,note_on,0,0,1,,,,,,,,,0,,,74,75
35160,note_on,54,0,3,,,,,,,,,2,,,58,62
35160,note_on,0,0,1,,,,,,,,,0,,,86,75
35160,note_on,0,0,3,,,,,,,,,2,,,65,62
35166,note_on,0,0,3,,,,,,,,,2,,,62,0
35166,note_on,6,0,3,,,,,,,,,2,,,65,0
35166,note_on,0,0,3,,,,,,,,,2,,,58,0
35220,note_on,0,0,3,,,,,,,,,2,,,67,62
35220,note_on,0,0,3,,,,,,,,,2,,,61,62
35220,note_on,54,0,3,,,,,,,,,2,,,58,62
35226,note_on,6,0,3,,,,,,,,,2,,,67,0
35226,note_on,0,0,3,,,,,,,,,2,,,61,0
35226,note_on,0,0,3,,,,,,,,,2,,,58,0
35250,note_on,0,0,1,,,,,,,,,0,,,88,75
35250,note_on,0,0,1,,,,,,,,,0,,,74,0
35250,note_on,90,0,1,,,,,,,,,0,,,86,0
35250,note_on,0,0,1,,,,,,,,,0,,,76,75
35280,note_on,54,0,3,,,,,,,,,2,,,58,75
35280,note_on,0,0,3,,,,,,,,,2,,,62,75
35280,note_on,30,0,1,,,,,,,,,0,,,88,0
35280,note_on,0,0,1,,,,,,,,,0,,,76,0
35280,note_on,0,0,3,,,,,,,,,2,,,65,75
35280,note_on,0,0,1,,,,,,,,,0,,,77,88
35280,note_on,0,0,1,,,,,,,,,0,,,89,88
35286,note_on,6,0,3,,,,,,,,,2,,,65,0
35286,note_on,0,0,3,,,,,,,,,2,,,62,0
35286,note_on,0,0,3,,,,,,,,,2,,,58,0
35340,note_on,0,0,3,,,,,,,,,2,,,64,75
35340,note_on,0,0,3,,,,,,,,,2,,,61,75
35340,note_on,54,0,3,,,,,,,,,2,,,58,75
35346,note_on,6,0,3,,,,,,,,,2,,,64,0
35346,note_on,0,0,3,,,,,,,,,2,,,61,0
35346,note_on,0,0,3,,,,,,,,,2,,,58,0
35370,note_on,90,0,1,,,,,,,,,0,,,89,0
35370,note_on,0,0,1,,,,,,,,,0,,,77,0
35370,note_on,0,0,1,,,,,,,,,0,,,76,88
35370,note_on,0,0,1,,,,,,,,,0,,,88,88
35400,note_on,30,0,1,,,,,,,,,0,,,88,0
35400,note_on,0,0,1,,,,,,,,,0,,,76,0
35400,note_on,0,0,1,,,,,,,,,0,,,74,75
35400,note_on,0,0,3,,,,,,,,,2,,,62,62
35400,note_on,54,0,3,,,,,,,,,2,,,58,62
35400,note_on,0,0,3,,,,,,,,,2,,,65,62
35400,note_on,0,0,1,,,,,,,,,0,,,86,75
35406,note_on,6,0,3,,,,,,,,,2,,,65,0
35406,note_on,0,0,3,,,,,,,,,2,,,62,0
35406,note_on,0,0,3,,,,,,,,,2,,,58,0
35460,control_change,54,0,3,,,,,,,,,2,64,0,,
35460,note_on,0,0,3,,,,,,,,,2,,,58,62
35460,note_on,0,0,3,,,,,,,,,2,,,62,62
35460,note_on,0,0,3,,,,,,,,,2,,,66,62
35466,note_on,0,0,3,,,,,,,,,2,,,58,0
35466,note_on,6,0,3,,,,,,,,,2,,,66,0
35466,note_on,0,0,3,,,,,,,,,2,,,62,0
35490,note_on,90,0,1,,,,,,,,,0,,,86,0
35490,note_on,0,0,1,,,,,,,,,0,,,72,75
35490,note_on,0,0,1,,,,,,,,,0,,,74,0
35490,control_change,0,0,1,,,,,,,,,0,64,0,,
35490,note_on,0,0,1,,,,,,,,,0,,,84,75
35520,note_on,30,0,1,,,,,,,,,0,,,84,0
35520,note_on,0,0,1,,,,,,,,,0,,,72,0
35520,note_on,0,0,1,,,,,,,,,0,,,70,62
35520,note_on,0,0,1,,,,,,,,,0,,,82,62
35520,control_change,0,0,1,,,,,,,,,0,64,127,,
35520,note_on,0,0,3,,,,,,,,,2,,,67,49
35520,note_on,0,0,3,,,,,,,,,2,,,62,49
35520,note_on,0,0,3,,,,,,,,,2,,,58,49
35520,control_change,54,0,3,,,,,,,,,2,64,127,,
35526,note_on,6,0,3,,,,,,,,,2,,,67,0
35526,note_on,0,0,3,,,,,,,,,2,,,58,0
35526,note_on,0,0,3,,,,,,,,,2,,,62,0
35580,note_on,54,0,3,,,,,,,,,2,,,58,49
35580,note_on,0,0,3,,,,,,,,,2,,,62,49
35580,note_on,0,0,3,,,,,,,,,2,,,69,49
35586,note_on,6,0,3,,,,,,,,,2,,,69,0
35586,note_on,0,0,3,,,,,,,,,2,,,62,0
35586,note_on,0,0,3,,,,,,,,,2,,,58,0
35610,note_on,0,0,1,,,,,,,,,0,,,81,62
35610,note_on,0,0,1,,,,,,,,,0,,,69,62
35610,note_on,0,0,1,,,,,,,,,0,,,70,0
35610,note_on,90,0,1,,,,,,,,,0,,,82,0
35640,note_on,0,0,3,,,,,,,,,2,,,70,36
35640,note_on,0,0,3,,,,,,,,,2,,,62,36
35640,note_on,0,0,1,,,,,,,,,0,,,67,49
35640,note_on,30,0,1,,,,,,,,,0,,,81,0
35640,note_on,0,0,1,,,,,,,,,0,,,69,0
35640,note_on,0,0,1,,,,,,,,,0,,,79,49
35640,note_on,54,0,3,,,,,,,,,2,,,58,36
35646,note_on,6,0,3,,,,,,,,,2,,,70,0
35646,note_on,0,0,3,,,,,,,,,2,,,62,0
35646,note_on,0,0,3,,,,,,,,,2,,,58,0
35700,control_change,54,0,3,,,,,,,,,2,64,0,,
35700,note_on,0,0,3,,,,,,,,,2,,,59,36
35700,note_on,0,0,3,,,,,,,,,2,,,62,36
35700,note_on,0,0,3,,,,,,,,,2,,,69,36
35706,note_on,6,0,3,,,,,,,,,2,,,69,0
35706,note_on,0,0,3,,,,,,,,,2,,,62,0
35706,note_on,0,0,3,,,,,,,,,2,,,59,0
35730,note_on,90,0,1,,,,,,,,,0,,,79,0
35730,note_on,0,0,1,,,,,,,,,0,,,67,0
35730,note_on,0,0,1,,,,,,,,,0,,,65,49
35730,note_on,0,0,1,,,,,,,,,0,,,77,49
35730,control_change,0,0,1,,,,,,,,,0,64,0,,
35760,note_on,0,0,3,,,,,,,,,2,,,64,36
35760,note_on,0,0,3,,,,,,,,,2,,,67,36
35760,note_on,0,0,3,,,,,,,,,2,,,60,36
35760,control_change,0,0,1,,,,,,,,,0,64,127,,
35760,note_on,0,0,1,,,,,,,,,0,,,72,36
35760,note_on,0,0,1,,,,,,,,,0,,,65,0
35760,note_on,30,0,1,,,,,,,,,0,,,77,0
35760,note_on,0,0,1,,,,,,,,,0,,,84,36
35760,control_change,54,0,3,,,,,,,,,2,64,127,,
35766,note_on,0,0,3,,,,,,,,,2,,,60,0
35766,note_on,0,0,3,,,,,,,,,2,,,64,0
35766,note_on,6,0,3,,,,,,,,,2,,,67,0
35820,note_on,0,0,3,,,,,,,,,2,,,66,36
35820,note_on,0,0,3,,,,,,,,,2,,,63,36
35820,note_on,54,0,3,,,,,,,,,2,,,60,36
35826,note_on,0,0,3,,,,,,,,,2,,,60,0
35826,note_on,0,0,3,,,,,,,,,2,,,63,0
35826,note_on,6,0,3,,,,,,,,,2,,,66,0
35880,note_on,0,0,3,,,,,,,,,2,,,64,36
35880,note_on,54,0,3,,,,,,,,,2,,,60,36
35880,note_on,120,0,1,,,,,,,,,0,,,84,0
35880,note_on,0,0,1,,,,,,,,,0,,,72,0
35880,note_on,0,0,1,,,,,,,,,0,,,72,36
35880,note_on,0,0,1,,,,,,,,,0,,,84,36
35880,note_on,0,0,3,,,,,,,,,2,,,67,36
35886,note_on,0,0,3,,,,,,,,,2,,,60,0
35886,note_on,0,0,3,,,,,,,,,2,,,64,0
35886,note_on,6,0,3,,,,,,,,,2,,,67,0
35940,note_on,0,0,3,,,,,,,,,2,,,63,36
35940,note_on,54,0,3,,,,,,,,,2,,,60,36
35940,note_on,0,0,3,,,,,,,,,2,,,66,36
35946,note_on,6,0,3,,,,,,,,,2,,,66,0
35946,note_on,0,0,3,,,,,,,,,2,,,63,0
35946,note_on,0,0,3,,,,,,,,,2,,,60,0
35970,note_on,0,0,1,,,,,,,,,0,,,72,0
35970,note_on,0,0,1,,,,,,,,,0,,,72,36
35970,note_on,0,0,1,,,,,,,,,0,,,84,36
35970,note_on,90,0,1,,,,,,,,,0,,,84,0
36000,note_on,0,0,3,,,,,,,,,2,,,64,36
36000,note_on,54,0,3,,,,,,,,,2,,,60,36
36000,note_on,0,0,3,,,,,,,,,2,,,67,36
36000,note_on,0,0,1,,,,,,,,,0,,,72,36
36000,note_on,0,0,1,,,,,,,,,0,,,84,36
36000,control_change,0,0,1,,,,,,,,,0,64,0,,
36000,note_on,0,0,1,,,,,,,,,0,,,72,0
36000,note_on,30,0,1,,,,,,,,,0,,,84,0
36006,note_on,0,0,3,,,,,,,,,2,,,60,0
36006,note_on,0,0,3,,,,,,,,,2,,,64,0
36006,note_on,6,0,3,,,,,,,,,2,,,67,0
36060,note_on,54,0,3,,,,,,,,,2,,,60,36
36060,note_on,0,0,3,,,,,,,,,2,,,66,36
36060,note_on,0,0,3,,,,,,,,,2,,,63,36
36066,note_on,0,0,3,,,,,,,,,2,,,60,0
36066,note_on,0,0,3,,,,,,,,,2,,,63,0
36066,note_on,6,0,3,,,,,,,,,2,,,66,0
36120,note_on,0,0,3,,,,,,,,,2,,,64,36
36120,note_on,0,0,1,,,,,,,,,0,,,72,0
36120,note_on,120,0,1,,,,,,,,,0,,,84,0
36120,note_on,0,0,3,,,,,,,,,2,,,67,36
36120,note_on,54,0,3,,,,,,,,,2,,,60,36
36126,note_on,0,0,3,,,,,,,,,2,,,60,0
36126,note_on,0,0,3,,,,,,,,,2,,,64,0
36126,note_on,6,0,3,,,,,,,,,2,,,67,0
36180,control_change,54,0,3,,,,,,,,,2,64,0,,
36180,note_on,0,0,3,,,,,,,,,2,,,58,36
36180,note_on,0,0,3,,,,,,,,,2,,,64,36
36180,note_on,0,0,3,,,,,,,,,2,,,67,36
36186,note_on,6,0,3,,,,,,,,,2,,,67,0
36186,note_on,0,0,3,,,,,,,,,2,,,64,0
36186,note_on,0,0,3,,,,,,,,,2,,,58,0
36240,control_change,54,0,3,,,,,,,,,2,64,127,,
36240,note_on,0,0,3,,,,,,,,,2,,,57,36
36240,note_on,0,0,3,,,,,,,,,2,,,64,36
36240,note_on,0,0,3,,,,,,,,,2,,,67,36
36240,control_change,120,0,1,,,,,,,,,0,64,127,,
36240,note_on,0,0,1,,,,,,,,,0,,,73,36
36240,note_on,0,0,1,,,,,,,,,0,,,85,36
36246,note_on,0,0,3,,,,,,,,,2,,,64,0
36246,note_on,0,0,3,,,,,,,,,2,,,57,0
36246,note_on,6,0,3,,,,,,,,,2,,,67,0
36300,note_on,0,0,3,,,,,,,,,2,,,64,36
36300,note_on,0,0,3,,,,,,,,,2,,,67,36
36300,note_on,54,0,3,,,,,,,,,2,,,58,36
36306,note_on,6,0,3,,,,,,,,,2,,,67,0
36306,note_on,0,0,3,,,,,,,,,2,,,58,0
36306,note_on,0,0,3,,,,,,,,,2,,,64,0
36360,note_on,0,0,1,,,,,,,,,0,,,73,36
36360,note_on,0,0,1,,,,,,,,,0,,,73,0
36360,note_on,120,0,1,,,,,,,,,0,,,85,0
36360,note_on,0,0,1,,,,,,,,,0,,,85,36
36360,note_on,54,0,3,,,,,,,,,2,,,57,36
36360,note_on,0,0,3,,,,,,,,,2,,,67,36
36360,note_on,0,0,3,,,,,,,,,2,,,64,36
36366,note_on,0,0,3,,,,,,,,,2,,,57,0
36366,note_on,0,0,3,,,,,,,,,2,,,64,0
36366,note_on,6,0,3,,,,,,,,,2,,,67,0
36420,note_on,0,0,3,,,,,,,,,2,,,64,36
36420,note_on,54,0,3,,,,,,,,,2,,,58,36
36420,note_on,0,0,3,,,,,,,,,2,,,67,36
36426,note_on,6,0,3,,,,,,,,,2,,,67,0
36426,note_on,0,0,3,,,,,,,,,2,,,58,0
36426,note_on,0,0,3,,,,,,,,,2,,,64,0
36450,note_on,90,0,1,,,,,,,,,0,,,85,0
36450,note_on,0,0,1,,,,,,,,,0,,,73,36
36450,note_on,0,0,1,,,,,,,,,0,,,85,36
36450,note_on,0,0,1,,,,,,,,,0,,,73,0
36480,note_on,54,0,3,,,,,,,,,2,,,57,36
36480,note_on,0,0,3,,,,,,,,,2,,,64,36
36480,note_on,0,0,3,,,,,,,,,2,,,67,36
36480,note_on,0,0,1,,,,,,,,,0,,,85,36
36480,note_on,30,0,1,,,,,,,,,0,,,85,0
36480,note_on,0,0,1,,,,,,,,,0,,,73,0
36480,note_on,0,0,1,,,,,,,,,0,,,73,36
36480,control_change,0,0,1,,,,,,,,,0,64,0,,
36486,note_on,6,0,3,,,,,,,,,2,,,67,0
36486,note_on,0,0,3,,,,,,,,,2,,,64,0
36486,note_on,0,0,3,,,,,,,,,2,,,57,0
36540,note_on,54,0,3,,,,,,,,,2,,,58,36
36540,note_on,0,0,3,,,,,,,,,2,,,64,36
36540,note_on,0,0,3,,,,,,,,,2,,,67,36
36546,note_on,6,0,3,,,,,,,,,2,,,67,0
36546,note_on,0,0,3,,,,,,,,,2,,,58,0
36546,note_on,0,0,3,,,,,,,,,2,,,64,0
36600,note_on,54,0,3,,,,,,,,,2,,,57,36
36600,note_on,0,0,3,,,,,,,,,2,,,64,36
36600,note_on,0,0,3,,,,,,,,,2,,,67,36
36600,note_on,0,0,1,,,,,,,,,0,,,73,0
36600,note_on,120,0,1,,,,,,,,,0,,,85,0
36606,note_on,6,0,3,,,,,,,,,2,,,67,0
36606,note_on,0,0,3,,,,,,,,,2,,,64,0
36606,note_on,0,0,3,,,,,,,,,2,,,57,0
36660,note_on,0,0,3,,,,,,,,,2,,,64,36
36660,note_on,0,0,3,,,,,,,,,2,,,55,36
36660,control_change,54,0,3,,,,,,,,,2,64,0,,
36660,note_on,0,0,3,,,,,,,,,2,,,57,36
36666,note_on,6,0,3,,,,,,,,,2,,,64,0
36666,note_on,0,0,3,,,,,,,,,2,,,55,0
36666,note_on,0,0,3,,,,,,,,,2,,,57,0
36720,control_change,120,0,1,,,,,,,,,0,64,127,,
36720,note_on,0,0,1,,,,,,,,,0,,,86,36
36720,note_on,0,0,1,,,,,,,,,0,,,74,36
36720,note_on,0,0,3,,,,,,,,,2,,,53,36
36720,control_change,54,0,3,,,,,,,,,2,64,127,,
36720,note_on,0,0,3,,,,,,,,,2,,,57,36
36720,note_on,0,0,3,,,,,,,,,2,,,62,36
36726,note_on,6,0,3,,,,,,,,,2,,,62,0
36726,note_on,0,0,3,,,,,,,,,2,,,57,0
36726,note_on,0,0,3,,,,,,,,,2,,,53,0
36780,note_on,54,0,3,,,,,,,,,2,,,55,36
36780,note_on,0,0,3,,,,,,,,,2,,,57,36
36780,note_on,0,0,3,,,,,,,,,2,,,64,36
36786,note_on,0,0,3,,,,,,,,,2,,,57,0
36786,note_on,6,0,3,,,,,,,,,2,,,64,0
36786,note_on,0,0,3,,,,,,,,,2,,,55,0
36840,note_on,0,0,1,,,,,,,,,0,,,86,36
36840,note_on,0,0,1,,,,,,,,,0,,,74,0
36840,note_on,54,0,3,,,,,,,,,2,,,53,36
36840,note_on,0,0,3,,,,,,,,,2,,,57,36
36840,note_on,0,0,3,,,,,,,,,2,,,62,36
36840,note_on,0,0,1,,,,,,,,,0,,,74,36
36840,note_on,120,0,1,,,,,,,,,0,,,86,0
36846,note_on,6,0,3,,,,,,,,,2,,,62,0
36846,note_on,0,0,3,,,,,,,,,2,,,57,0
36846,note_on,0,0,3,,,,,,,,,2,,,53,0
36900,note_on,54,0,3,,,,,,,,,2,,,55,36
36900,note_on,0,0,3,,,,,,,,,2,,,57,36
36900,note_on,0,0,3,,,,,,,,,2,,,64,36
36906,note_on,6,0,3,,,,,,,,,2,,,64,0
36906,note_on,0,0,3,,,,,,,,,2,,,55,0
36906,note_on,0,0,3,,,,,,,,,2,,,57,0
36930,note_on,0,0,1,,,,,,,,,0,,,74,36
36930,note_on,90,0,1,,,,,,,,,0,,,86,0
36930,note_on,0,0,1,,,,,,,,,0,,,74,0
36930,note_on,0,0,1,,,,,,,,,0,,,86,36
36960,note_on,54,0,3,,,,,,,,,2,,,53,36
36960,note_on,0,0,3,,,,,,,,,2,,,62,36
36960,control_change,0,0,1,,,,,,,,,0,64,0,,
36960,note_on,0,0,1,,,,,,,,,0,,,86,36
36960,note_on,0,0,1,,,,,,,,,0,,,74,36
36960,note_on,30,0,1,,,,,,,,,0,,,86,0
36960,note_on,0,0,3,,,,,,,,,2,,,57,36
36960,note_on,0,0,1,,,,,,,,,0,,,74,0
36966,note_on,0,0,3,,,,,,,,,2,,,53,0
36966,note_on,0,0,3,,,,,,,,,2,,,57,0
36966,note_on,6,0,3,,,,,,,,,2,,,62,0
37020,note_on,0,0,3,,,,,,,,,2,,,58,36
37020,note_on,54,0,3,,,,,,,,,2,,,55,36
37020,note_on,0,0,3,,,,,,,,,2,,,62,36
37026,note_on,6,0,3,,,,,,,,,2,,,62,0
37026,note_on,0,0,3,,,,,,,,,2,,,58,0
37026,note_on,0,0,3,,,,,,,,,2,,,55,0
37080,note_on,0,0,1,,,,,,,,,0,,,74,0
37080,note_on,120,0,1,,,,,,,,,0,,,86,0
37080,note_on,54,0,3,,,,,,,,,2,,,53,36
37080,note_on,0,0,3,,,,,,,,,2,,,57,36
37080,note_on,0,0,3,,,,,,,,,2,,,62,36
37086,note_on,0,0,3,,,,,,,,,2,,,57,0
37086,note_on,6,0,3,,,,,,,,,2,,,62,0
37086,note_on,0,0,3,,,,,,,,,2,,,53,0
37140,note_on,0,0,3,,,,,,,,,2,,,62,36
37140,note_on,0,0,3,,,,,,,,,2,,,53,36
37140,note_on,0,0,3,,,,,,,,,2,,,50,36
37140,control_change,54,0,3,,,,,,,,,2,64,0,,
37146,note_on,6,0,3,,,,,,,,,2,,,62,0
37146,note_on,0,0,3,,,,,,,,,2,,,50,0
37146,note_on,0,0,3,,,,,,,,,2,,,53,0
37200,control_change,120,0,1,,,,,,,,,0,64,127,,
37200,note_on,0,0,1,,,,,,,,,0,,,81,36
37200,note_on,0,0,1,,,,,,,,,0,,,93,36
37200,note_on,0,0,3,,,,,,,,,2,,,57,36
37200,note_on,0,0,3,,,,,,,,,2,,,49,36
37200,control_change,54,0,3,,,,,,,,,2,64,127,,
37200,note_on,0,0,3,,,,,,,,,2,,,52,36
37206,note_on,0,0,3,,,,,,,,,2,,,52,0
37206,note_on,0,0,3,,,,,,,,,2,,,49,0
37206,note_on,6,0,3,,,,,,,,,2,,,57,0
37260,note_on,54,0,3,,,,,,,,,2,,,50,36
37260,set_tempo,4140,1,0,,,,,,869565,,,,,,,
37260,note_on,0,0,3,,,,,,,,,2,,,53,36
37260,note_on,0,0,3,,,,,,,,,2,,,57,36
37266,note_on,6,0,3,,,,,,,,,2,,,57,0
37266,note_on,0,0,3,,,,,,,,,2,,,50,0
37266,note_on,0,0,3,,,,,,,,,2,,,53,0
37320,note_on,0,0,1,,,,,,,,,0,,,81,0
37320,set_tempo,60,1,0,,,,,,909091,,,,,,,
37320,note_on,0,0,3,,,,,,,,,2,,,52,36
37320,note_on,0,0,3,,,,,,,,,2,,,57,36
37320,note_on,0,0,1,,,,,,,,,0,,,81,36
37320,note_on,0,0,1,,,,,,,,,0,,,93,36
37320,note_on,54,0,3,,,,,,,,,2,,,49,36
37320,note_on,120,0,1,,,,,,,,,0,,,93,0
37326,note_on,6,0,3,,,,,,,,,2,,,57,0
37326,note_on,0,0,3,,,,,,,,,2,,,52,0
37326,note_on,0,0,3,,,,,,,,,2,,,49,0
37380,note_on,0,0,3,,,,,,,,,2,,,57,36
37380,note_on,54,0,3,,,,,,,,,2,,,50,36
37380,note_on,0,0,3,,,,,,,,,2,,,53,36
37380,set_tempo,60,1,0,,,,,,952381,,,,,,,
37386,note_on,0,0,3,,,,,,,,,2,,,53,0
37386,note_on,0,0,3,,,,,,,,,2,,,50,0
37386,note_on,6,0,3,,,,,,,,,2,,,57,0
37410,note_on,0,0,1,,,,,,,,,0,,,81,36
37410,note_on,0,0,1,,,,,,,,,0,,,93,36
37410,note_on,0,0,1,,,,,,,,,0,,,81,0
37410,note_on,90,0,1,,,,,,,,,0,,,93,0
37440,note_on,0,0,3,,,,,,,,,2,,,57,36
37440,note_on,0,0,3,,,,,,,,,2,,,52,36
37440,note_on,54,0,3,,,,,,,,,2,,,49,36
37440,note_on,30,0,1,,,,,,,,,0,,,93,0
37440,note_on,0,0,1,,,,,,,,,0,,,81,0
37440,note_on,0,0,1,,,,,,,,,0,,,81,36
37440,note_on,0,0,1,,,,,,,,,0,,,93,36
37440,control_change,0,0,1,,,,,,,,,0,64,0,,
37440,set_tempo,60,1,0,,,,,,1016949,,,,,,,
37446,note_on,0,0,3,,,,,,,,,2,,,52,0
37446,note_on,6,0,3,,,,,,,,,2,,,57,0
37446,note_on,0,0,3,,,,,,,,,2,,,49,0
37500,note_on,0,0,3,,,,,,,,,2,,,57,36
37500,note_on,0,0,3,,,,,,,,,2,,,53,36
37500,note_on,54,0,3,,,,,,,,,2,,,50,36
37500,set_tempo,60,1,0,,,,,,1071429,,,,,,,
37506,note_on,6,0,3,,,,,,,,,2,,,57,0
37506,note_on,0,0,3,,,,,,,,,2,,,53,0
37506,note_on,0,0,3,,,,,,,,,2,,,50,0
37560,note_on,120,0,1,,,,,,,,,0,,,93,0
37560,note_on,0,0,1,,,,,,,,,0,,,81,0
37560,set_tempo,60,1,0,,,,,,1132075,,,,,,,
37560,note_on,0,0,3,,,,,,,,,2,,,57,36
37560,note_on,0,0,3,,,,,,,,,2,,,52,36
37560,note_on,54,0,3,,,,,,,,,2,,,49,36
37566,note_on,0,0,3,,,,,,,,,2,,,49,0
37566,note_on,6,0,3,,,,,,,,,2,,,57,0
37566,note_on,0,0,3,,,,,,,,,2,,,52,0
37620,note_on,0,0,3,,,,,,,,,2,,,45,36
37620,note_on,0,0,3,,,,,,,,,2,,,49,36
37620,note_on,0,0,3,,,,,,,,,2,,,57,36
37620,control_change,54,0,3,,,,,,,,,2,64,0,,
37620,set_tempo,60,1,0,,,,,,1200000,,,,,,,
37626,note_on,0,0,3,,,,,,,,,2,,,45,0
37626,note_on,0,0,3,,,,,,,,,2,,,49,0
37626,note_on,6,0,3,,,,,,,,,2,,,57,0
37680,note_on,0,0,1,,,,,,,,,0,,,81,36
37680,note_on,120,0,1,,,,,,,,,0,,,69,36
37680,set_tempo,60,1,0,,,,,,882353,,,,,,,
37680,note_on,0,0,3,,,,,,,,,2,,,53,36
37680,note_on,54,0,3,,,,,,,,,2,,,50,36
37680,note_on,0,0,3,,,,,,,,,2,,,62,36
37686,note_on,6,0,3,,,,,,,,,2,,,62,0
37686,note_on,0,0,3,,,,,,,,,2,,,53,0
37686,note_on,0,0,3,,,,,,,,,2,,,50,0
37740,note_on,0,0,3,,,,,,,,,2,,,55,36
37740,note_on,0,0,3,,,,,,,,,2,,,62,36
37740,note_on,54,0,3,,,,,,,,,2,,,52,36
37746,note_on,6,0,3,,,,,,,,,2,,,62,0
37746,note_on,0,0,3,,,,,,,,,2,,,55,0
37746,note_on,0,0,3,,,,,,,,,2,,,52,0
37800,note_on,0,0,1,,,,,,,,,0,,,81,36
37800,control_change,0,0,1,,,,,,,,,0,64,127,,
37800,note_on,120,0,1,,,,,,,,,0,,,81,0
37800,control_change,54,0,3,,,,,,,,,2,64,127,,
37800,note_on,0,0,3,,,,,,,,,2,,,62,36
37800,note_on,0,0,3,,,,,,,,,2,,,57,36
37800,note_on,0,0,3,,,,,,,,,2,,,53,36
37800,note_on,0,0,1,,,,,,,,,0,,,69,36
37800,note_on,0,0,1,,,,,,,,,0,,,69,0
37806,note_on,0,0,3,,,,,,,,,2,,,53,0
37806,note_on,0,0,3,,,,,,,,,2,,,57,0
37806,note_on,6,0,3,,,,,,,,,2,,,62,0
37860,note_on,0,0,3,,,,,,,,,2,,,55,36
37860,note_on,54,0,3,,,,,,,,,2,,,52,36
37860,note_on,0,0,3,,,,,,,,,2,,,62,36
37866,note_on,6,0,3,,,,,,,,,2,,,62,0
37866,note_on,0,0,3,,,,,,,,,2,,,55,0
37866,note_on,0,0,3,,,,,,,,,2,,,52,0
37890,note_on,0,0,1,,,,,,,,,0,,,69,0
37890,note_on,0,0,1,,,,,,,,,0,,,68,36
37890,note_on,0,0,1,,,,,,,,,0,,,80,36
37890,note_on,90,0,1,,,,,,,,,0,,,81,0
37920,note_on,0,0,1,,,,,,,,,0,,,68,0
37920,note_on,0,0,1,,,,,,,,,0,,,69,36
37920,note_on,0,0,1,,,,,,,,,0,,,81,36
37920,note_on,54,0,3,,,,,,,,,2,,,50,36
37920,note_on,0,0,3,,,,,,,,,2,,,53,36
37920,note_on,0,0,3,,,,,,,,,2,,,62,36
37920,note_on,30,0,1,,,,,,,,,0,,,80,0
37926,note_on,0,0,3,,,,,,,,,2,,,50,0
37926,note_on,6,0,3,,,,,,,,,2,,,62,0
37926,note_on,0,0,3,,,,,,,,,2,,,53,0
37980,note_on,54,0,3,,,,,,,,,2,,,52,36
37980,note_on,0,0,3,,,,,,,,,2,,,55,36
37980,note_on,0,0,3,,,,,,,,,2,,,62,36
37986,note_on,0,0,3,,,,,,,,,2,,,52,0
37986,note_on,6,0,3,,,,,,,,,2,,,62,0
37986,note_on,0,0,3,,,,,,,,,2,,,55,0
38040,note_on,0,0,3,,,,,,,,,2,,,62,36
38040,note_on,0,0,3,,,,,,,,,2,,,57,36
38040,note_on,54,0,3,,,,,,,,,2,,,53,36
38040,note_on,0,0,1,,,,,,,,,0,,,69,0
38040,control_change,0,0,1,,,,,,,,,0,64,0,,
38040,note_on,0,0,1,,,,,,,,,0,,,86,36
38040,note_on,0,0,1,,,,,,,,,0,,,74,36
38040,note_on,120,0,1,,,,,,,,,0,,,81,0
38046,note_on,6,0,3,,,,,,,,,2,,,62,0
38046,note_on,0,0,3,,,,,,,,,2,,,57,0
38046,note_on,0,0,3,,,,,,,,,2,,,53,0
38100,control_change,54,0,3,,,,,,,,,2,64,0,,
38100,note_on,0,0,3,,,,,,,,,2,,,50,36
38100,note_on,0,0,3,,,,,,,,,2,,,62,36
38100,note_on,0,0,3,,,,,,,,,2,,,53,36
38106,note_on,0,0,3,,,,,,,,,2,,,53,0
38106,note_on,0,0,3,,,,,,,,,2,,,50,0
38106,note_on,6,0,3,,,,,,,,,2,,,62,0
38160,note_on,54,0,3,,,,,,,,,2,,,52,36
38160,note_on,0,0,3,,,,,,,,,2,,,55,36
38160,note_on,0,0,3,,,,,,,,,2,,,61,36
38160,note_on,120,0,1,,,,,,,,,0,,,86,0
38160,note_on,0,0,1,,,,,,,,,0,,,74,0
38160,note_on,0,0,1,,,,,,,,,0,,,70,36
38160,note_on,0,0,1,,,,,,,,,0,,,82,36
38166,note_on,6,0,3,,,,,,,,,2,,,61,0
38166,note_on,0,0,3,,,,,,,,,2,,,55,0
38166,note_on,0,0,3,,,,,,,,,2,,,52,0
38220,note_on,54,0,3,,,,,,,,,2,,,53,36
38220,note_on,0,0,3,,,,,,,,,2,,,61,36
38220,note_on,0,0,3,,,,,,,,,2,,,57,36
38226,note_on,0,0,3,,,,,,,,,2,,,57,0
38226,note_on,0,0,3,,,,,,,,,2,,,53,0
38226,note_on,6,0,3,,,,,,,,,2,,,61,0
38280,control_change,54,0,3,,,,,,,,,2,64,127,,
38280,note_on,0,0,3,,,,,,,,,2,,,55,36
38280,note_on,0,0,3,,,,,,,,,2,,,61,36
38280,note_on,0,0,3,,,,,,,,,2,,,57,36
38280,note_on,120,0,1,,,,,,,,,0,,,82,0
38280,note_on,0,0,1,,,,,,,,,0,,,70,0
38280,note_on,0,0,1,,,,,,,,,0,,,70,36
38280,control_change,0,0,1,,,,,,,,,0,64,127,,
38280,note_on,0,0,1,,,,,,,,,0,,,82,36
38286,note_on,0,0,3,,,,,,,,,2,,,57,0
38286,note_on,6,0,3,,,,,,,,,2,,,61,0
38286,note_on,0,0,3,,,,,,,,,2,,,55,0
38340,note_on,54,0,3,,,,,,,,,2,,,53,36
38340,note_on,0,0,3,,,,,,,,,2,,,61,36
38340,note_on,0,0,3,,,,,,,,,2,,,57,36
38346,note_on,0,0,3,,,,,,,,,2,,,53,0
38346,note_on,0,0,3,,,,,,,,,2,,,57,0
38346,note_on,6,0,3,,,,,,,,,2,,,61,0
38370,note_on,90,0,1,,,,,,,,,0,,,82,0
38370,note_on,0,0,1,,,,,,,,,0,,,70,0
38370,note_on,0,0,1,,,,,,,,,0,,,69,36
38370,note_on,0,0,1,,,,,,,,,0,,,81,36
38400,note_on,0,0,3,,,,,,,,,2,,,55,36
38400,note_on,54,0,3,,,,,,,,,2,,,52,36
38400,note_on,0,0,3,,,,,,,,,2,,,61,36
38400,note_on,30,0,1,,,,,,,,,0,,,81,0
38400,note_on,0,0,1,,,,,,,,,0,,,82,36
38400,note_on,0,0,1,,,,,,,,,0,,,70,36
38400,note_on,0,0,1,,,,,,,,,0,,,69,0
38406,note_on,6,0,3,,,,,,,,,2,,,61,0
38406,note_on,0,0,3,,,,,,,,,2,,,55,0
38406,note_on,0,0,3,,,,,,,,,2,,,52,0
38460,note_on,54,0,3,,,,,,,,,2,,,53,36
38460,note_on,0,0,3,,,,,,,,,2,,,57,36
38460,note_on,0,0,3,,,,,,,,,2,,,61,36
38466,note_on,0,0,3,,,,,,,,,2,,,57,0
38466,note_on,6,0,3,,,,,,,,,2,,,61,0
38466,note_on,0,0,3,,,,,,,,,2,,,53,0
38520,note_on,0,0,3,,,,,,,,,2,,,61,36
38520,note_on,0,0,3,,,,,,,,,2,,,57,36
38520,note_on,54,0,3,,,,,,,,,2,,,55,36
38520,note_on,120,0,1,,,,,,,,,0,,,82,0
38520,note_on,0,0,1,,,,,,,,,0,,,88,36
38520,note_on,0,0,1,,,,,,,,,0,,,76,36
38520,note_on,0,0,1,,,,,,,,,0,,,70,0
38520,control_change,0,0,1,,,,,,,,,0,64,0,,
38526,note_on,6,0,3,,,,,,,,,2,,,61,0
38526,note_on,0,0,3,,,,,,,,,2,,,57,0
38526,note_on,0,0,3,,,,,,,,,2,,,55,0
38580,control_change,54,0,3,,,,,,,,,2,64,0,,
38580,note_on,0,0,3,,,,,,,,,2,,,52,36
38580,note_on,0,0,3,,,,,,,,,2,,,55,36
38580,note_on,0,0,3,,,,,,,,,2,,,61,36
38586,note_on,6,0,3,,,,,,,,,2,,,61,0
38586,note_on,0,0,3,,,,,,,,,2,,,55,0
38586,note_on,0,0,3,,,,,,,,,2,,,52,0
38640,note_on,0,0,3,,,,,,,,,2,,,62,36
38640,note_on,0,0,3,,,,,,,,,2,,,53,36
38640,note_on,0,0,1,,,,,,,,,0,,,89,36
38640,note_on,0,0,1,,,,,,,,,0,,,77,36
38640,note_on,0,0,1,,,,,,,,,0,,,76,0
38640,note_on,120,0,1,,,,,,,,,0,,,88,0
38640,note_on,54,0,3,,,,,,,,,2,,,50,36
38646,note_on,0,0,3,,,,,,,,,2,,,50,0
38646,note_on,0,0,3,,,,,,,,,2,,,53,0
38646,note_on,6,0,3,,,,,,,,,2,,,62,0
38700,note_on,0,0,3,,,,,,,,,2,,,62,36
38700,note_on,54,0,3,,,,,,,,,2,,,52,36
38700,note_on,0,0,3,,,,,,,,,2,,,55,36
38706,note_on,6,0,3,,,,,,,,,2,,,62,0
38706,note_on,0,0,3,,,,,,,,,2,,,55,0
38706,note_on,0,0,3,,,,,,,,,2,,,52,0
38760,control_change,0,0,1,,,,,,,,,0,64,127,,
38760,note_on,120,0,1,,,,,,,,,0,,,89,0
38760,note_on,0,0,1,,,,,,,,,0,,,77,0
38760,note_on,0,0,1,,,,,,,,,0,,,77,49
38760,note_on,0,0,1,,,,,,,,,0,,,89,49
38760,note_on,0,0,3,,,,,,,,,2,,,53,36
38760,note_on,0,0,3,,,,,,,,,2,,,62,36
38760,note_on,0,0,3,,,,,,,,,2,,,57,36
38760,control_change,54,0,3,,,,,,,,,2,64,127,,
38766,note_on,0,0,3,,,,,,,,,2,,,53,0
38766,note_on,0,0,3,,,,,,,,,2,,,57,0
38766,note_on,6,0,3,,,,,,,,,2,,,62,0
38820,note_on,0,0,3,,,,,,,,,2,,,62,36
38820,note_on,0,0,3,,,,,,,,,2,,,55,36
38820,note_on,54,0,3,,,,,,,,,2,,,52,36
38826,note_on,0,0,3,,,,,,,,,2,,,55,0
38826,note_on,6,0,3,,,,,,,,,2,,,62,0
38826,note_on,0,0,3,,,,,,,,,2,,,52,0
38850,note_on,0,0,1,,,,,,,,,0,,,91,49
38850,note_on,0,0,1,,,,,,,,,0,,,79,49
38850,note_on,0,0,1,,,,,,,,,0,,,77,0
38850,note_on,90,0,1,,,,,,,,,0,,,89,0
38880,note_on,0,0,3,,,,,,,,,2,,,53,49
38880,note_on,0,0,1,,,,,,,,,0,,,93,62
38880,control_change,0,0,1,,,,,,,,,0,64,0,,
38880,note_on,30,0,1,,,,,,,,,0,,,91,0
38880,note_on,54,0,3,,,,,,,,,2,,,50,49
38880,note_on,0,0,1,,,,,,,,,0,,,79,0
38880,note_on,0,0,1,,,,,,,,,0,,,81,62
38880,note_on,0,0,3,,,,,,,,,2,,,62,49
38886,note_on,6,0,3,,,,,,,,,2,,,62,0
38886,note_on,0,0,3,,,,,,,,,2,,,53,0
38886,note_on,0,0,3,,,,,,,,,2,,,50,0
38940,note_on,54,0,3,,,,,,,,,2,,,52,49
38940,note_on,0,0,3,,,,,,,,,2,,,55,49
38940,note_on,0,0,3,,,,,,,,,2,,,62,49
38946,note_on,0,0,3,,,,,,,,,2,,,55,0
38946,note_on,6,0,3,,,,,,,,,2,,,62,0
38946,note_on,0,0,3,,,,,,,,,2,,,52,0
39000,note_on,0,0,3,,,,,,,,,2,,,53,49
39000,note_on,0,0,3,,,,,,,,,2,,,62,49
39000,note_on,54,0,3,,,,,,,,,2,,,50,49
39006,note_on,0,0,3,,,,,,,,,2,,,50,0
39006,note_on,0,0,3,,,,,,,,,2,,,53,0
39006,note_on,6,0,3,,,,,,,,,2,,,62,0
39060,note_on,0,0,3,,,,,,,,,2,,,60,49
39060,note_on,0,0,3,,,,,,,,,2,,,52,49
39060,note_on,0,0,3,,,,,,,,,2,,,48,49
39060,control_change,54,0,3,,,,,,,,,2,64,0,,
39066,note_on,0,0,3,,,,,,,,,2,,,48,0
39066,note_on,6,0,3,,,,,,,,,2,,,60,0
39066,note_on,0,0,3,,,,,,,,,2,,,52,0
39120,note_on,240,0,1,,,,,,,,,0,,,93,0
39120,note_on,0,0,1,,,,,,,,,0,,,81,0
39120,note_on,0,0,1,,,,,,,,,0,,,82,75
39120,control_change,0,0,1,,,,,,,,,0,64,127,,
39120,note_on,0,0,1,,,,,,,,,0,,,94,75
39120,control_change,54,0,3,,,,,,,,,2,64,127,,
39120,note_on,0,0,3,,,,,,,,,2,,,46,62
39120,note_on,0,0,3,,,,,,,,,2,,,50,62
39120,note_on,0,0,3,,,,,,,,,2,,,58,62
39126,note_on,6,0,3,,,,,,,,,2,,,58,0
39126,note_on,0,0,3,,,,,,,,,2,,,50,0
39126,note_on,0,0,3,,,,,,,,,2,,,46,0
39180,note_on,54,0,3,,,,,,,,,2,,,48,62
39180,note_on,0,0,3,,,,,,,,,2,,,52,62
39180,note_on,0,0,3,,,,,,,,,2,,,58,62
39186,note_on,6,0,3,,,,,,,,,2,,,58,0
39186,note_on,0,0,3,,,,,,,,,2,,,52,0
39186,note_on,0,0,3,,,,,,,,,2,,,48,0
39240,note_on,0,0,1,,,,,,,,,0,,,82,75
39240,note_on,0,0,1,,,,,,,,,0,,,94,75
39240,note_on,0,0,1,,,,,,,,,0,,,82,0
39240,note_on,120,0,1,,,,,,,,,0,,,94,0
39240,note_on,0,0,3,,,,,,,,,2,,,58,62
39240,note_on,54,0,3,,,,,,,,,2,,,46,62
39240,note_on,0,0,3,,,,,,,,,2,,,50,62
39246,note_on,0,0,3,,,,,,,,,2,,,50,0
39246,note_on,0,0,3,,,,,,,,,2,,,46,0
39246,note_on,6,0,3,,,,,,,,,2,,,58,0
39300,note_on,54,0,3,,,,,,,,,2,,,45,62
39300,note_on,0,0,3,,,,,,,,,2,,,48,62
39300,note_on,0,0,3,,,,,,,,,2,,,57,62
39306,note_on,6,0,3,,,,,,,,,2,,,57,0
39306,note_on,0,0,3,,,,,,,,,2,,,48,0
39306,note_on,0,0,3,,,,,,,,,2,,,45,0
39330,note_on,0,0,1,,,,,,,,,0,,,82,0
39330,note_on,0,0,1,,,,,,,,,0,,,84,75
39330,note_on,0,0,1,,,,,,,,,0,,,96,75
39330,note_on,90,0,1,,,,,,,,,0,,,94,0
39360,set_tempo,1680,1,0,,,,,,833333,,,,,,,
39360,note_on,54,0,3,,,,,,,,,2,,,43,62
39360,note_on,0,0,3,,,,,,,,,2,,,46,62
39360,note_on,0,0,3,,,,,,,,,2,,,55,62
39360,note_on,30,0,1,,,,,,,,,0,,,96,0
39360,note_on,0,0,1,,,,,,,,,0,,,84,0
39360,note_on,0,0,1,,,,,,,,,0,,,86,75
39360,control_change,0,0,1,,,,,,,,,0,64,0,,
39360,note_on,0,0,1,,,,,,,,,0,,,98,75
39366,note_on,6,0,3,,,,,,,,,2,,,55,0
39366,note_on,0,0,3,,,,,,,,,2,,,46,0
39366,note_on,0,0,3,,,,,,,,,2,,,43,0
39420,note_on,0,0,3,,,,,,,,,2,,,55,62
39420,note_on,54,0,3,,,,,,,,,2,,,45,62
39420,note_on,0,0,3,,,,,,,,,2,,,48,62
39426,note_on,0,0,3,,,,,,,,,2,,,48,0
39426,note_on,6,0,3,,,,,,,,,2,,,55,0
39426,note_on,0,0,3,,,,,,,,,2,,,45,0
39480,note_on,0,0,3,,,,,,,,,2,,,55,62
39480,note_on,0,0,3,,,,,,,,,2,,,50,62
39480,note_on,54,0,3,,,,,,,,,2,,,46,62
39486,note_on,0,0,3,,,,,,,,,2,,,46,0
39486,note_on,0,0,3,,,,,,,,,2,,,50,0
39486,note_on,6,0,3,,,,,,,,,2,,,55,0
39540,control_change,54,0,3,,,,,,,,,2,64,0,,
39540,note_on,0,0,3,,,,,,,,,2,,,56,62
39540,note_on,0,0,3,,,,,,,,,2,,,53,62
39540,note_on,0,0,3,,,,,,,,,2,,,46,62
39546,note_on,0,0,3,,,,,,,,,2,,,46,0
39546,note_on,0,0,3,,,,,,,,,2,,,53,0
39546,note_on,6,0,3,,,,,,,,,2,,,56,0
39600,note_on,0,0,3,,,,,,,,,2,,,45,36
39600,control_change,54,0,3,,,,,,,,,2,64,127,,
39600,note_on,0,0,1,,,,,,,,,0,,,81,36
39600,note_on,240,0,1,,,,,,,,,0,,,98,0
39600,note_on,0,0,1,,,,,,,,,0,,,86,0
39600,note_on,0,0,1,,,,,,,,,0,,,93,36
39606,note_on,6,0,3,,,,,,,,,2,,,45,0
39660,note_on,0,0,3,,,,,,,,,2,,,53,36
39660,control_change,54,0,3,,,,,,,,,2,64,0,,
39660,note_on,0,0,3,,,,,,,,,2,,,57,36
39660,note_on,0,0,3,,,,,,,,,2,,,62,36
39666,note_on,6,0,3,,,,,,,,,2,,,62,0
39666,note_on,0,0,3,,,,,,,,,2,,,57,0
39666,note_on,0,0,3,,,,,,,,,2,,,53,0
39720,note_on,120,0,1,,,,,,,,,0,,,93,0
39720,control_change,54,0,3,,,,,,,,,2,64,127,,
39720,note_on,0,0,3,,,,,,,,,2,,,45,36
39720,note_on,0,0,1,,,,,,,,,0,,,81,0
39720,note_on,0,0,1,,,,,,,,,0,,,81,36
39720,note_on,0,0,1,,,,,,,,,0,,,93,36
39726,note_on,6,0,3,,,,,,,,,2,,,45,0
39780,note_on,0,0,3,,,,,,,,,2,,,55,36
39780,note_on,0,0,3,,,,,,,,,2,,,57,36
39780,note_on,0,0,3,,,,,,,,,2,,,61,36
39780,control_change,54,0,3,,,,,,,,,2,64,0,,
39786,note_on,0,0,3,,,,,,,,,2,,,55,0
39786,note_on,0,0,3,,,,,,,,,2,,,57,0
39786,note_on,6,0,3,,,,,,,,,2,,,61,0
39810,note_on,0,0,1,,,,,,,,,0,,,81,0
39810,note_on,0,0,1,,,,,,,,,0,,,81,36
39810,note_on,0,0,1,,,,,,,,,0,,,93,36
39810,note_on,90,0,1,,,,,,,,,0,,,93,0
39840,note_on,0,0,1,,,,,,,,,0,,,93,36
39840,note_on,0,0,1,,,,,,,,,0,,,81,36
39840,note_on,0,0,1,,,,,,,,,0,,,81,0
39840,control_change,54,0,3,,,,,,,,,2,64,127,,
39840,note_on,0,0,3,,,,,,,,,2,,,50,36
39840,note_on,30,0,1,,,,,,,,,0,,,93,0
39846,note_on,6,0,3,,,,,,,,,2,,,50,0
39900,note_on,6060,0,4,,,,,,,,,3,,,57,36
39900,note_on,0,0,3,,,,,,,,,2,,,65,36
39900,note_on,54,0,3,,,,,,,,,2,,,57,36
39960,note_on,0,0,3,,,,,,,,,2,,,64,36
39960,note_on,0,0,3,,,,,,,,,2,,,55,36
39960,note_on,0,0,3,,,,,,,,,2,,,57,0
39960,note_on,60,0,3,,,,,,,,,2,,,65,0
40020,control_change,0,0,3,,,,,,,,,2,64,0,,
40020,note_on,0,0,3,,,,,,,,,2,,,62,36
40020,note_on,0,0,3,,,,,,,,,2,,,53,36
40020,note_on,0,0,3,,,,,,,,,2,,,55,0
40020,note_on,60,0,3,,,,,,,,,2,,,64,0
40080,note_on,60,0,3,,,,,,,,,2,,,62,0
40080,note_on,0,0,3,,,,,,,,,2,,,45,36
40080,control_change,0,0,3,,,,,,,,,2,64,127,,
40080,note_on,0,0,3,,,,,,,,,2,,,53,0
40080,note_on,180,0,4,,,,,,,,,3,,,57,0
40080,note_on,0,0,1,,,,,,,,,0,,,81,0
40080,note_on,0,0,1,,,,,,,,,0,,,81,36
40080,note_on,0,0,1,,,,,,,,,0,,,93,36
40080,note_on,240,0,1,,,,,,,,,0,,,93,0
40086,note_on,6,0,3,,,,,,,,,2,,,45,0
40140,control_change,54,0,3,,,,,,,,,2,64,0,,
40140,note_on,0,0,3,,,,,,,,,2,,,53,36
40140,note_on,0,0,3,,,,,,,,,2,,,57,36
40140,note_on,0,0,3,,,,,,,,,2,,,62,36
40146,note_on,0,0,3,,,,,,,,,2,,,53,0
40146,note_on,6,0,3,,,,,,,,,2,,,62,0
40146,note_on,0,0,3,,,,,,,,,2,,,57,0
40200,note_on,0,0,1,,,,,,,,,0,,,81,36
40200,note_on,120,0,1,,,,,,,,,0,,,93,0
40200,note_on,0,0,1,,,,,,,,,0,,,81,0
40200,control_change,54,0,3,,,,,,,,,2,64,127,,
40200,note_on,0,0,1,,,,,,,,,0,,,93,36
40200,note_on,0,0,3,,,,,,,,,2,,,45,36
40206,note_on,6,0,3,,,,,,,,,2,,,45,0
40260,control_change,54,0,3,,,,,,,,,2,64,0,,
40260,note_on,0,0,3,,,,,,,,,2,,,55,36
40260,note_on,0,0,3,,,,,,,,,2,,,57,36
40260,note_on,0,0,3,,,,,,,,,2,,,61,36
40266,note_on,6,0,3,,,,,,,,,2,,,61,0
40266,note_on,0,0,3,,,,,,,,,2,,,57,0
40266,note_on,0,0,3,,,,,,,,,2,,,55,0
40290,note_on,0,0,1,,,,,,,,,0,,,93,36
40290,note_on,0,0,1,,,,,,,,,0,,,81,36
40290,note_on,0,0,1,,,,,,,,,0,,,81,0
40290,note_on,90,0,1,,,,,,,,,0,,,93,0
40320,note_on,54,0,3,,,,,,,,,2,,,38,36
40320,note_on,30,0,1,,,,,,,,,0,,,93,0
40320,note_on,0,0,1,,,,,,,,,0,,,81,0
40320,note_on,0,0,1,,,,,,,,,0,,,74,54
40320,note_on,0,0,1,,,,,,,,,0,,,86,62
40320,control_change,0,0,1,,,,,,,,,0,64,127,,
40380,note_on,60,0,1,,,,,,,,,0,,,86,0
40380,note_on,0,0,1,,,,,,,,,0,,,74,0
40380,note_on,0,0,1,,,,,,,,,0,,,69,36
40380,note_on,0,0,1,,,,,,,,,0,,,77,36
40440,note_on,0,0,1,,,,,,,,,0,,,69,0
40440,note_on,0,0,1,,,,,,,,,0,,,76,36
40440,note_on,60,0,1,,,,,,,,,0,,,77,0
40440,note_on,0,0,1,,,,,,,,,0,,,67,36
40440,note_on,120,0,3,,,,,,,,,2,,,38,0
40500,note_on,0,0,1,,,,,,,,,0,,,74,36
40500,control_change,0,0,1,,,,,,,,,0,64,0,,
40500,note_on,0,0,1,,,,,,,,,0,,,65,36
40500,note_on,0,0,1,,,,,,,,,0,,,67,0
40500,note_on,60,0,1,,,,,,,,,0,,,76,0
40560,control_change,0,0,1,,,,,,,,,0,64,127,,
40560,note_on,0,0,1,,,,,,,,,0,,,73,36
40560,note_on,0,0,1,,,,,,,,,0,,,64,36
40560,note_on,0,0,1,,,,,,,,,0,,,65,0
40560,note_on,60,0,1,,,,,,,,,0,,,74,0
40560,control_change,120,0,3,,,,,,,,,2,64,127,,
40560,note_on,0,0,3,,,,,,,,,2,,,45,36
40560,note_on,0,0,3,,,,,,,,,2,,,33,36
40566,note_on,6,0,1,,,,,,,,,0,,,73,0
40566,note_on,0,0,1,,,,,,,,,0,,,64,0
40620,note_on,0,0,1,,,,,,,,,0,,,85,36
40620,note_on,54,0,1,,,,,,,,,0,,,79,36
40680,note_on,0,0,3,,,,,,,,,2,,,33,0
40680,note_on,0,0,3,,,,,,,,,2,,,33,36
40680,note_on,0,0,3,,,,,,,,,2,,,45,36
40680,note_on,0,0,1,,,,,,,,,0,,,77,36
40680,note_on,0,0,1,,,,,,,,,0,,,79,0
40680,note_on,60,0,1,,,,,,,,,0,,,85,0
40680,note_on,0,0,1,,,,,,,,,0,,,86,36
40680,note_on,120,0,3,,,,,,,,,2,,,45,0
40740,control_change,0,0,1,,,,,,,,,0,64,0,,
40740,note_on,0,0,1,,,,,,,,,0,,,77,0
40740,note_on,60,0,1,,,,,,,,,0,,,86,0
40740,note_on,0,0,1,,,,,,,,,0,,,74,36
40740,note_on,0,0,1,,,,,,,,,0,,,65,36
40770,note_on,0,0,3,,,,,,,,,2,,,33,36
40770,control_change,0,0,3,,,,,,,,,2,64,0,,
40770,note_on,0,0,3,,,,,,,,,2,,,33,0
40770,note_on,90,0,3,,,,,,,,,2,,,45,0
40770,note_on,0,0,3,,,,,,,,,2,,,45,36
40800,note_on,0,0,1,,,,,,,,,0,,,64,36
40800,note_on,0,0,1,,,,,,,,,0,,,73,36
40800,note_on,0,0,1,,,,,,,,,0,,,65,0
40800,control_change,0,0,1,,,,,,,,,0,64,127,,
40800,note_on,0,0,3,,,,,,,,,2,,,33,36
40800,note_on,0,0,3,,,,,,,,,2,,,45,36
40800,note_on,30,0,3,,,,,,,,,2,,,45,0
40800,note_on,0,0,3,,,,,,,,,2,,,33,0
40800,note_on,60,0,1,,,,,,,,,0,,,74,0
40860,note_on,60,0,1,,,,,,,,,0,,,73,0
40860,note_on,0,0,1,,,,,,,,,0,,,64,0
40860,note_on,0,0,1,,,,,,,,,0,,,69,36
40860,note_on,0,0,1,,,,,,,,,0,,,77,36
40920,note_on,60,0,1,,,,,,,,,0,,,77,0
40920,note_on,0,0,1,,,,,,,,,0,,,69,0
40920,note_on,0,0,1,,,,,,,,,0,,,67,36
40920,note_on,0,0,1,,,,,,,,,0,,,76,36
40980,note_on,0,0,1,,,,,,,,,0,,,74,36
40980,note_on,60,0,1,,,,,,,,,0,,,76,0
40980,note_on,0,0,1,,,,,,,,,0,,,67,0
40980,control_change,0,0,1,,,,,,,,,0,64,0,,
40980,note_on,0,0,1,,,,,,,,,0,,,65,36
41040,control_change,0,0,1,,,,,,,,,0,64,127,,
41040,note_on,0,0,1,,,,,,,,,0,,,64,36
41040,note_on,0,0,1,,,,,,,,,0,,,73,36
41040,note_on,0,0,1,,,,,,,,,0,,,65,0
41040,note_on,0,0,3,,,,,,,,,2,,,45,36
41040,note_on,60,0,1,,,,,,,,,0,,,74,0
41040,control_change,0,0,3,,,,,,,,,2,64,127,,
41040,note_on,0,0,3,,,,,,,,,2,,,33,0
41040,note_on,240,0,3,,,,,,,,,2,,,45,0
41040,note_on,0,0,3,,,,,,,,,2,,,33,36
41046,note_on,0,0,1,,,,,,,,,0,,,64,0
41046,note_on,6,0,1,,,,,,,,,0,,,73,0
41100,note_on,0,0,1,,,,,,,,,0,,,85,36
41100,note_on,54,0,1,,,,,,,,,0,,,79,36
41160,note_on,0,0,1,,,,,,,,,0,,,86,36
41160,note_on,0,0,1,,,,,,,,,0,,,77,36
41160,note_on,0,0,1,,,,,,,,,0,,,79,0
41160,note_on,60,0,1,,,,,,,,,0,,,85,0
41160,note_on,120,0,3,,,,,,,,,2,,,45,0
41160,note_on,0,0,3,,,,,,,,,2,,,33,0
41160,note_on,0,0,3,,,,,,,,,2,,,33,36
41160,note_on,0,0,3,,,,,,,,,2,,,45,36
41220,note_on,0,0,1,,,,,,,,,0,,,77,0
41220,note_on,0,0,1,,,,,,,,,0,,,65,36
41220,note_on,60,0,1,,,,,,,,,0,,,86,0
41220,note_on,0,0,1,,,,,,,,,0,,,74,36
41220,control_change,0,0,1,,,,,,,,,0,64,0,,
41250,control_change,0,0,3,,,,,,,,,2,64,0,,
41250,note_on,0,0,3,,,,,,,,,2,,,33,36
41250,note_on,0,0,3,,,,,,,,,2,,,45,36
41250,note_on,0,0,3,,,,,,,,,2,,,33,0
41250,note_on,90,0,3,,,,,,,,,2,,,45,0
41280,note_on,0,0,1,,,,,,,,,0,,,65,0
41280,note_on,0,0,1,,,,,,,,,0,,,64,36
41280,note_on,60,0,1,,,,,,,,,0,,,74,0
41280,note_on,0,0,1,,,,,,,,,0,,,73,36
41280,note_on,0,0,3,,,,,,,,,2,,,45,36
41280,note_on,30,0,3,,,,,,,,,2,,,45,0
41280,note_on,0,0,3,,,,,,,,,2,,,33,0
41280,note_on,0,0,3,,,,,,,,,2,,,33,36
41340,note_on,60,0,1,,,,,,,,,0,,,73,0
41340,note_on,0,0,1,,,,,,,,,0,,,64,0
41340,note_on,0,0,1,,,,,,,,,0,,,69,54
41340,note_on,0,0,1,,,,,,,,,0,,,77,62
41400,note_on,0,0,1,,,,,,,,,0,,,67,36
41400,note_on,0,0,1,,,,,,,,,0,,,69,0
41400,note_on,0,0,1,,,,,,,,,0,,,76,36
41400,note_on,60,0,1,,,,,,,,,0,,,77,0
41460,note_on,180,0,3,,,,,,,,,2,,,45,0
41460,note_on,0,0,3,,,,,,,,,2,,,33,0
41460,note_on,0,0,3,,,,,,,,,2,,,34,49
41460,note_on,0,0,3,,,,,,,,,2,,,46,49
41520,note_on,0,0,1,,,,,,,,,0,,,67,0
41520,control_change,0,0,1,,,,,,,,,0,64,127,,
41520,note_on,0,0,1,,,,,,,,,0,,,75,75
41520,note_on,0,0,1,,,,,,,,,0,,,66,75
41520,note_on,120,0,1,,,,,,,,,0,,,76,0
41520,note_on,60,0,3,,,,,,,,,2,,,46,0
41520,note_on,0,0,3,,,,,,,,,2,,,34,0
41520,note_on,0,0,3,,,,,,,,,2,,,34,62
41520,note_on,0,0,3,,,,,,,,,2,,,46,62
41580,note_on,0,0,1,,,,,,,,,0,,,79,75
41580,note_on,0,0,1,,,,,,,,,0,,,71,75
41580,note_on,0,0,1,,,,,,,,,0,,,66,0
41580,note_on,60,0,1,,,,,,,,,0,,,75,0
41640,note_on,0,0,1,,,,,,,,,0,,,78,62
41640,note_on,0,0,1,,,,,,,,,0,,,69,62
41640,note_on,0,0,1,,,,,,,,,0,,,71,0
41640,note_on,60,0,1,,,,,,,,,0,,,79,0
41700,note_on,60,0,1,,,,,,,,,0,,,78,0
41700,control_change,0,0,1,,,,,,,,,0,64,0,,
41700,note_on,0,0,1,,,,,,,,,0,,,76,49
41700,note_on,0,0,1,,,,,,,,,0,,,67,49
41700,note_on,0,0,1,,,,,,,,,0,,,69,0
41760,control_change,0,0,1,,,,,,,,,0,64,127,,
41760,note_on,0,0,1,,,,,,,,,0,,,75,49
41760,note_on,0,0,1,,,,,,,,,0,,,66,49
41760,note_on,0,0,1,,,,,,,,,0,,,67,0
41760,note_on,60,0,1,,,,,,,,,0,,,76,0
41760,note_on,240,0,3,,,,,,,,,2,,,46,0
41760,note_on,0,0,3,,,,,,,,,2,,,34,0
41760,note_on,0,0,3,,,,,,,,,2,,,34,36
41760,control_change,0,0,3,,,,,,,,,2,64,127,,
41760,note_on,0,0,3,,,,,,,,,2,,,46,36
41766,note_on,0,0,1,,,,,,,,,0,,,66,0
41766,note_on,6,0,1,,,,,,,,,0,,,75,0
41820,note_on,54,0,1,,,,,,,,,0,,,81,49
41820,note_on,0,0,1,,,,,,,,,0,,,87,49
41880,note_on,0,0,1,,,,,,,,,0,,,88,49
41880,note_on,0,0,1,,,,,,,,,0,,,79,49
41880,note_on,60,0,1,,,,,,,,,0,,,87,0
41880,note_on,120,0,3,,,,,,,,,2,,,46,0
41880,note_on,0,0,1,,,,,,,,,0,,,81,0
41880,note_on,0,0,3,,,,,,,,,2,,,34,36
41880,note_on,0,0,3,,,,,,,,,2,,,46,36
41880,note_on,0,0,3,,,,,,,,,2,,,34,0
41940,control_change,0,0,1,,,,,,,,,0,64,0,,
41940,note_on,0,0,1,,,,,,,,,0,,,76,49
41940,note_on,0,0,1,,,,,,,,,0,,,67,49
41940,note_on,0,0,1,,,,,,,,,0,,,79,0
41940,note_on,60,0,1,,,,,,,,,0,,,88,0
41970,control_change,0,0,3,,,,,,,,,2,64,0,,
41970,note_on,0,0,3,,,,,,,,,2,,,34,36
41970,note_on,0,0,3,,,,,,,,,2,,,34,0
41970,note_on,90,0,3,,,,,,,,,2,,,46,0
41970,note_on,0,0,3,,,,,,,,,2,,,46,36
42000,note_on,0,0,3,,,,,,,,,2,,,46,36
42000,note_on,30,0,3,,,,,,,,,2,,,46,0
42000,note_on,0,0,3,,,,,,,,,2,,,34,0
42000,note_on,0,0,3,,,,,,,,,2,,,34,36
42000,note_on,0,0,1,,,,,,,,,0,,,67,0
42000,note_on,0,0,1,,,,,,,,,0,,,66,49
42000,note_on,0,0,1,,,,,,,,,0,,,75,49
42000,control_change,0,0,1,,,,,,,,,0,64,127,,
42000,note_on,60,0,1,,,,,,,,,0,,,76,0
42060,note_on,60,0,1,,,,,,,,,0,,,75,0
42060,note_on,0,0,1,,,,,,,,,0,,,66,0
42060,note_on,0,0,1,,,,,,,,,0,,,71,49
42060,note_on,0,0,1,,,,,,,,,0,,,79,49
42120,note_on,0,0,1,,,,,,,,,0,,,69,49
42120,note_on,0,0,1,,,,,,,,,0,,,78,49
42120,note_on,60,0,1,,,,,,,,,0,,,79,0
42120,note_on,0,0,1,,,,,,,,,0,,,71,0
42180,note_on,60,0,1,,,,,,,,,0,,,78,0
42180,note_on,0,0,1,,,,,,,,,0,,,69,0
42180,note_on,0,0,1,,,,,,,,,0,,,67,49
42180,note_on,0,0,1,,,,,,,,,0,,,76,49
42180,control_change,0,0,1,,,,,,,,,0,64,0,,
42240,note_on,0,0,3,,,,,,,,,2,,,34,0
42240,note_on,0,0,3,,,,,,,,,2,,,46,36
42240,note_on,0,0,3,,,,,,,,,2,,,34,36
42240,control_change,0,0,3,,,,,,,,,2,64,127,,
42240,note_on,240,0,3,,,,,,,,,2,,,46,0
42240,note_on,0,0,1,,,,,,,,,0,,,66,49
42240,control_change,0,0,1,,,,,,,,,0,64,127,,
42240,note_on,0,0,1,,,,,,,,,0,,,75,49
42240,note_on,0,0,1,,,,,,,,,0,,,67,0
42240,note_on,60,0,1,,,,,,,,,0,,,76,0
42246,note_on,6,0,1,,,,,,,,,0,,,75,0
42246,note_on,0,0,1,,,,,,,,,0,,,66,0
42300,note_on,0,0,1,,,,,,,,,0,,,87,49
42300,note_on,54,0,1,,,,,,,,,0,,,81,49
42360,note_on,120,0,3,,,,,,,,,2,,,46,0
42360,note_on,0,0,3,,,,,,,,,2,,,34,0
42360,note_on,0,0,3,,,,,,,,,2,,,34,36
42360,note_on,0,0,3,,,,,,,,,2,,,46,36
42360,note_on,0,0,1,,,,,,,,,0,,,88,49
42360,note_on,0,0,1,,,,,,,,,0,,,81,0
42360,note_on,60,0,1,,,,,,,,,0,,,87,0
42360,note_on,0,0,1,,,,,,,,,0,,,79,49
42420,control_change,0,0,1,,,,,,,,,0,64,0,,
42420,note_on,0,0,1,,,,,,,,,0,,,76,49
42420,note_on,0,0,1,,,,,,,,,0,,,67,49
42420,note_on,0,0,1,,,,,,,,,0,,,79,0
42420,note_on,60,0,1,,,,,,,,,0,,,88,0
42450,note_on,0,0,3,,,,,,,,,2,,,46,36
42450,note_on,0,0,3,,,,,,,,,2,,,34,36
42450,control_change,0,0,3,,,,,,,,,2,64,0,,
42450,note_on,0,0,3,,,,,,,,,2,,,34,0
42450,note_on,90,0,3,,,,,,,,,2,,,46,0
42480,note_on,30,0,3,,,,,,,,,2,,,46,0
42480,note_on,60,0,1,,,,,,,,,0,,,76,0
42480,note_on,0,0,1,,,,,,,,,0,,,75,49
42480,note_on,0,0,1,,,,,,,,,0,,,66,49
42480,note_on,0,0,3,,,,,,,,,2,,,34,0
42480,note_on,0,0,1,,,,,,,,,0,,,67,0
42480,note_on,2400,0,4,,,,,,,,,3,,,47,49
42480,control_change,0,0,3,,,,,,,,,2,64,127,,
42480,control_change,0,0,1,,,,,,,,,0,64,127,,
42540,note_on,0,0,1,,,,,,,,,0,,,67,80
42540,note_on,0,0,1,,,,,,,,,0,,,71,88
42540,note_on,60,0,3,,,,,,,,,2,,,55,49
42540,note_on,0,0,1,,,,,,,,,0,,,66,0
42540,note_on,60,0,1,,,,,,,,,0,,,75,0
42600,note_on,60,0,3,,,,,,,,,2,,,55,0
42600,note_on,0,0,3,,,,,,,,,2,,,57,49
42600,note_on,60,0,1,,,,,,,,,0,,,71,0
42600,note_on,0,0,1,,,,,,,,,0,,,67,0
42600,note_on,0,0,1,,,,,,,,,0,,,66,62
42600,note_on,0,0,1,,,,,,,,,0,,,69,62
42660,control_change,0,0,1,,,,,,,,,0,64,0,,
42660,note_on,0,0,1,,,,,,,,,0,,,64,62
42660,note_on,0,0,1,,,,,,,,,0,,,67,62
42660,note_on,60,0,3,,,,,,,,,2,,,57,0
42660,control_change,0,0,3,,,,,,,,,2,64,0,,
42660,note_on,0,0,3,,,,,,,,,2,,,58,49
42660,note_on,60,0,1,,,,,,,,,0,,,69,0
42660,note_on,0,0,1,,,,,,,,,0,,,66,0
42720,note_on,0,0,3,,,,,,,,,2,,,59,49
42720,control_change,0,0,3,,,,,,,,,2,64,127,,
42720,note_on,60,0,3,,,,,,,,,2,,,58,0
42720,note_on,0,0,1,,,,,,,,,0,,,64,0
42720,note_on,0,0,1,,,,,,,,,0,,,63,62
42720,note_on,0,0,1,,,,,,,,,0,,,66,62
42720,control_change,0,0,1,,,,,,,,,0,64,127,,
42720,note_on,60,0,1,,,,,,,,,0,,,67,0
42780,note_on,60,0,1,,,,,,,,,0,,,66,0
42780,note_on,0,0,3,,,,,,,,,2,,,55,62
42780,note_on,60,0,3,,,,,,,,,2,,,59,0
42780,note_on,0,0,1,,,,,,,,,0,,,71,101
42780,note_on,0,0,1,,,,,,,,,0,,,67,93
42780,note_on,0,0,1,,,,,,,,,0,,,63,0
42840,note_on,0,0,1,,,,,,,,,0,,,69,75
42840,note_on,0,0,3,,,,,,,,,2,,,57,62
42840,note_on,0,0,1,,,,,,,,,0,,,66,75
42840,note_on,60,0,1,,,,,,,,,0,,,71,0
42840,note_on,0,0,1,,,,,,,,,0,,,67,0
42840,note_on,60,0,3,,,,,,,,,2,,,55,0
42900,note_on,60,0,3,,,,,,,,,2,,,57,0
42900,control_change,0,0,3,,,,,,,,,2,64,0,,
42900,control_change,0,0,1,,,,,,,,,0,64,0,,
42900,note_on,0,0,1,,,,,,,,,0,,,67,75
42900,note_on,0,0,1,,,,,,,,,0,,,64,75
42900,note_on,0,0,1,,,,,,,,,0,,,66,0
42900,note_on,60,0,1,,,,,,,,,0,,,69,0
42900,note_on,0,0,3,,,,,,,,,2,,,58,62
42960,note_on,480,0,4,,,,,,,,,3,,,47,0
42960,control_change,28140,0,2,,,,,,,,,1,64,127,,
42960,control_change,0,0,1,,,,,,,,,0,64,127,,
42960,note_on,0,0,3,,,,,,,,,2,,,47,62
42960,note_on,0,0,3,,,,,,,,,2,,,59,62
42960,note_on,0,0,1,,,,,,,,,0,,,63,75
42960,note_on,0,0,1,,,,,,,,,0,,,66,75
42960,note_on,60,0,3,,,,,,,,,2,,,58,0
42960,note_on,60,0,1,,,,,,,,,0,,,67,0
42960,note_on,0,0,1,,,,,,,,,0,,,64,0
43020,note_on,60,0,1,,,,,,,,,0,,,66,0
43020,note_on,0,0,1,,,,,,,,,0,,,63,0
43020,note_on,0,0,2,,,,,,,,,1,,,69,49
43020,note_on,60,0,2,,,,,,,,,1,,,66,49
43020,note_on,0,0,1,,,,,,,,,0,,,75,101
43080,note_on,0,0,2,,,,,,,,,1,,,66,0
43080,note_on,0,0,2,,,,,,,,,1,,,67,49
43080,note_on,0,0,2,,,,,,,,,1,,,70,49
43080,note_on,60,0,2,,,,,,,,,1,,,69,0
43140,note_on,0,0,2,,,,,,,,,1,,,71,49
43140,note_on,0,0,1,,,,,,,,,0,,,75,75
43140,control_change,0,0,1,,,,,,,,,0,64,0,,
43140,note_on,120,0,1,,,,,,,,,0,,,75,0
43140,note_on,60,0,2,,,,,,,,,1,,,70,0
43140,note_on,0,0,2,,,,,,,,,1,,,67,0
43140,control_change,0,0,2,,,,,,,,,1,64,0,,
43140,note_on,0,0,2,,,,,,,,,1,,,68,49
43200,control_change,60,0,1,,,,,,,,,0,64,127,,
43200,note_on,60,0,2,,,,,,,,,1,,,71,0
43200,note_on,240,0,3,,,,,,,,,2,,,59,0
43200,note_on,0,0,3,,,,,,,,,2,,,47,0
43200,note_on,0,0,3,,,,,,,,,2,,,47,62
43200,note_on,0,0,3,,,,,,,,,2,,,59,62
43200,note_on,0,0,2,,,,,,,,,1,,,68,0
43200,control_change,0,0,2,,,,,,,,,1,64,127,,
43200,note_on,0,0,2,,,,,,,,,1,,,69,49
43200,note_on,0,0,2,,,,,,,,,1,,,72,49
43260,note_on,60,0,1,,,,,,,,,0,,,75,0
43260,note_on,0,0,1,,,,,,,,,0,,,75,101
43260,note_on,60,0,2,,,,,,,,,1,,,72,0
43260,note_on,0,0,2,,,,,,,,,1,,,69,0
43260,note_on,0,0,2,,,,,,,,,1,,,66,49
43260,note_on,0,0,2,,,,,,,,,1,,,69,49
43320,note_on,0,0,2,,,,,,,,,1,,,67,49
43320,note_on,60,0,2,,,,,,,,,1,,,69,0
43320,note_on,0,0,2,,,,,,,,,1,,,66,0
43320,note_on,0,0,2,,,,,,,,,1,,,70,49
43380,note_on,60,0,2,,,,,,,,,1,,,70,0
43380,note_on,0,0,2,,,,,,,,,1,,,71,49
43380,note_on,0,0,2,,,,,,,,,1,,,68,49
43380,control_change,0,0,2,,,,,,,,,1,64,0,,
43380,note_on,0,0,2,,,,,,,,,1,,,67,0
43380,note_on,0,0,1,,,,,,,,,0,,,75,101
43380,control_change,0,0,1,,,,,,,,,0,64,0,,
43380,note_on,120,0,1,,,,,,,,,0,,,75,0
43440,control_change,0,0,2,,,,,,,,,1,64,127,,
43440,note_on,0,0,2,,,,,,,,,1,,,68,0
43440,note_on,60,0,2,,,,,,,,,1,,,71,0
43440,note_on,0,0,2,,,,,,,,,1,,,72,49
43440,note_on,0,0,2,,,,,,,,,1,,,69,49
43440,note_on,0,0,3,,,,,,,,,2,,,47,0
43440,control_change,0,0,3,,,,,,,,,2,64,127,,
43440,note_on,0,0,3,,,,,,,,,2,,,47,62
43440,note_on,0,0,3,,,,,,,,,2,,,59,62
43440,note_on,240,0,3,,,,,,,,,2,,,59,0
43440,control_change,60,0,1,,,,,,,,,0,64,127,,
43500,note_on,0,0,2,,,,,,,,,1,,,72,49
43500,note_on,0,0,1,,,,,,,,,0,,,75,101
43500,note_on,0,0,1,,,,,,,,,0,,,69,93
43500,note_on,60,0,1,,,,,,,,,0,,,75,0
43500,note_on,60,0,2,,,,,,,,,1,,,72,0
43500,note_on,0,0,2,,,,,,,,,1,,,69,0
43560,note_on,0,0,2,,,,,,,,,1,,,71,49
43560,note_on,0,0,3,,,,,,,,,2,,,59,62
43560,note_on,0,0,3,,,,,,,,,2,,,47,62
43560,note_on,0,0,3,,,,,,,,,2,,,47,0
43560,note_on,60,0,2,,,,,,,,,1,,,72,0
43560,note_on,120,0,3,,,,,,,,,2,,,59,0
43620,note_on,0,0,2,,,,,,,,,1,,,69,49
43620,note_on,0,0,2,,,,,,,,,1,,,72,49
43620,note_on,60,0,2,,,,,,,,,1,,,71,0
43620,note_on,120,0,1,,,,,,,,,0,,,75,0
43620,note_on,0,0,1,,,,,,,,,0,,,75,101
43620,note_on,0,0,1,,,,,,,,,0,,,69,0
43680,note_on,0,0,3,,,,,,,,,2,,,47,62
43680,note_on,0,0,3,,,,,,,,,2,,,47,0
43680,note_on,120,0,3,,,,,,,,,2,,,59,0
43680,note_on,60,0,2,,,,,,,,,1,,,72,0
43680,note_on,0,0,2,,,,,,,,,1,,,71,49
43680,note_on,0,0,3,,,,,,,,,2,,,59,62
43740,note_on,0,0,2,,,,,,,,,1,,,69,49
43740,note_on,60,0,2,,,,,,,,,1,,,71,0
43740,note_on,0,0,2,,,,,,,,,1,,,69,0
43740,note_on,0,0,2,,,,,,,,,1,,,72,49
43740,note_on,0,0,1,,,,,,,,,0,,,75,101
43740,note_on,120,0,1,,,,,,,,,0,,,75,0
43800,control_change,0,0,3,,,,,,,,,2,64,0,,
43800,note_on,0,0,2,,,,,,,,,1,,,71,49
43800,note_on,60,0,2,,,,,,,,,1,,,72,0
43800,note_on,120,0,3,,,,,,,,,2,,,59,0
43800,note_on,0,0,3,,,,,,,,,2,,,47,0
43800,note_on,0,0,3,,,,,,,,,2,,,59,62
43800,note_on,0,0,3,,,,,,,,,2,,,47,62
43860,control_change,0,0,1,,,,,,,,,0,64,0,,
43860,note_on,0,0,2,,,,,,,,,1,,,69,49
43860,control_change,0,0,2,,,,,,,,,1,64,0,,
43860,note_on,0,0,2,,,,,,,,,1,,,69,0
43860,note_on,60,0,2,,,,,,,,,1,,,71,0
43860,note_on,120,0,1,,,,,,,,,0,,,75,0
43860,note_on,0,0,1,,,,,,,,,0,,,75,101
43860,note_on,0,0,2,,,,,,,,,1,,,72,49
43920,note_on,0,0,3,,,,,,,,,2,,,47,0
43920,note_on,0,0,3,,,,,,,,,2,,,47,62
43920,note_on,0,0,3,,,,,,,,,2,,,59,62
43920,note_on,60,0,2,,,,,,,,,1,,,72,0
43920,note_on,0,0,2,,,,,,,,,1,,,71,49
43920,note_on,120,0,3,,,,,,,,,2,,,59,0
43920,control_change,60,0,1,,,,,,,,,0,64,127,,
43980,note_on,0,0,1,,,,,,,,,0,,,72,75
43980,note_on,60,0,1,,,,,,,,,0,,,75,0
43980,note_on,0,0,2,,,,,,,,,1,,,69,0
43980,note_on,60,0,2,,,,,,,,,1,,,71,0
44040,note_on,60,0,1,,,,,,,,,0,,,72,0
44040,note_on,120,0,3,,,,,,,,,2,,,59,0
44040,note_on,0,0,3,,,,,,,,,2,,,47,0
44040,note_on,0,0,1,,,,,,,,,0,,,71,49
44100,note_on,0,0,1,,,,,,,,,0,,,72,75
44100,note_on,60,0,1,,,,,,,,,0,,,71,0
44160,note_on,60,0,1,,,,,,,,,0,,,72,0
44160,note_on,0,0,1,,,,,,,,,0,,,71,49
44220,note_on,60,0,1,,,,,,,,,0,,,71,0
44220,note_on,0,0,1,,,,,,,,,0,,,72,62
44280,note_on,60,0,1,,,,,,,,,0,,,72,0
44280,control_change,0,0,1,,,,,,,,,0,64,0,,
44280,note_on,0,0,1,,,,,,,,,0,,,71,36
44340,note_on,60,0,1,,,,,,,,,0,,,71,0
44340,note_on,0,0,1,,,,,,,,,0,,,70,62
44400,note_on,60,0,1,,,,,,,,,0,,,70,0
44400,note_on,0,0,1,,,,,,,,,0,,,71,36
44460,note_on,0,0,1,,,,,,,,,0,,,70,62
44460,note_on,60,0,1,,,,,,,,,0,,,71,0
44460,set_tempo,5100,1,0,,,,,,869565,,,,,,,
44520,set_tempo,60,1,0,,,,,,909091,,,,,,,
44520,note_on,60,0,1,,,,,,,,,0,,,70,0
44520,note_on,0,0,1,,,,,,,,,0,,,71,36
44580,set_tempo,60,1,0,,,,,,952381,,,,,,,
44580,note_on,60,0,1,,,,,,,,,0,,,71,0
44580,note_on,0,0,1,,,,,,,,,0,,,70,62
44640,set_tempo,60,1,0,,,,,,1016949,,,,,,,
44640,note_on,60,0,1,,,,,,,,,0,,,70,0
44640,note_on,0,0,1,,,,,,,,,0,,,71,36
44700,set_tempo,60,1,0,,,,,,1071429,,,,,,,
44700,note_on,60,0,1,,,,,,,,,0,,,71,0
44700,note_on,0,0,1,,,,,,,,,0,,,70,62
44760,set_tempo,60,1,0,,,,,,1132075,,,,,,,
44760,note_on,60,0,1,,,,,,,,,0,,,70,0
44760,note_on,0,0,1,,,,,,,,,0,,,71,36
44820,note_on,60,0,1,,,,,,,,,0,,,71,0
44820,note_on,0,0,1,,,,,,,,,0,,,71,49
44820,note_on,0,0,1,,,,,,,,,0,,,83,49
44820,set_tempo,60,1,0,,,,,,1200000,,,,,,,
44880,key_signature,60,1,0,,,,,E,,,,,,,,
44880,set_tempo,0,1,0,,,,,,882353,,,,,,,
44880,control_change,840,0,3,,,,,,,,,2,64,127,,
44880,note_on,0,0,3,,,,,,,,,2,,,52,36
44886,note_on,6,0,3,,,,,,,,,2,,,52,0
44940,note_on,54,0,3,,,,,,,,,2,,,64,36
44940,note_on,0,0,3,,,,,,,,,2,,,68,36
44970,note_on,0,0,3,,,,,,,,,2,,,64,0
44970,note_on,0,0,3,,,,,,,,,2,,,69,36
44970,note_on,0,0,3,,,,,,,,,2,,,66,36
44970,note_on,30,0,3,,,,,,,,,2,,,68,0
45000,note_on,0,0,3,,,,,,,,,2,,,71,36
45000,note_on,0,0,3,,,,,,,,,2,,,68,36
45000,note_on,0,0,3,,,,,,,,,2,,,66,0
45000,note_on,30,0,3,,,,,,,,,2,,,69,0
45060,note_on,0,0,3,,,,,,,,,2,,,64,36
45060,note_on,0,0,3,,,,,,,,,2,,,68,0
45060,note_on,60,0,3,,,,,,,,,2,,,71,0
45060,note_on,0,0,3,,,,,,,,,2,,,68,36
45060,note_on,0,0,1,,,,,,,,,0,,,71,0
45060,note_on,0,0,1,,,,,,,,,0,,,76,49
45060,note_on,0,0,1,,,,,,,,,0,,,88,49
45060,note_on,240,0,1,,,,,,,,,0,,,83,0
45066,note_on,0,0,3,,,,,,,,,2,,,64,0
45066,note_on,6,0,3,,,,,,,,,2,,,68,0
45120,control_change,54,0,3,,,,,,,,,2,64,0,,
45120,note_on,0,0,3,,,,,,,,,2,,,59,36
45126,note_on,6,0,3,,,,,,,,,2,,,59,0
45180,note_on,0,0,3,,,,,,,,,2,,,66,36
45180,note_on,0,0,1,,,,,,,,,0,,,87,49
45180,note_on,0,0,1,,,,,,,,,0,,,75,49
45180,note_on,0,0,1,,,,,,,,,0,,,76,0
45180,note_on,120,0,1,,,,,,,,,0,,,88,0
45180,note_on,54,0,3,,,,,,,,,2,,,60,36
45180,note_on,0,0,3,,,,,,,,,2,,,69,36
45240,note_on,0,0,3,,,,,,,,,2,,,64,36
45240,note_on,0,0,3,,,,,,,,,2,,,61,36
45240,control_change,0,0,3,,,,,,,,,2,64,127,,
45240,note_on,0,0,3,,,,,,,,,2,,,60,0
45240,note_on,0,0,1,,,,,,,,,0,,,75,0
45240,note_on,60,0,3,,,,,,,,,2,,,69,0
45240,note_on,60,0,1,,,,,,,,,0,,,87,0
45240,note_on,0,0,1,,,,,,,,,0,,,76,49
45240,note_on,0,0,3,,,,,,,,,2,,,66,0
45240,note_on,0,0,3,,,,,,,,,2,,,68,36
45240,note_on,0,0,1,,,,,,,,,0,,,88,49
45300,note_on,0,0,3,,,,,,,,,2,,,64,0
45300,note_on,0,0,3,,,,,,,,,2,,,61,0
45300,note_on,0,0,3,,,,,,,,,2,,,49,36
45300,note_on,60,0,3,,,,,,,,,2,,,68,0
45306,note_on,6,0,3,,,,,,,,,2,,,49,0
45360,note_on,0,0,1,,,,,,,,,0,,,90,49
45360,note_on,0,0,1,,,,,,,,,0,,,78,49
45360,note_on,0,0,1,,,,,,,,,0,,,76,0
45360,note_on,120,0,1,,,,,,,,,0,,,88,0
45360,note_on,54,0,3,,,,,,,,,2,,,45,36
45366,note_on,6,0,3,,,,,,,,,2,,,45,0
45420,note_on,54,0,3,,,,,,,,,2,,,69,36
45420,note_on,0,0,3,,,,,,,,,2,,,73,36
45450,note_on,0,0,3,,,,,,,,,2,,,71,36
45450,note_on,30,0,3,,,,,,,,,2,,,73,0
45450,note_on,0,0,3,,,,,,,,,2,,,68,36
45450,note_on,0,0,3,,,,,,,,,2,,,69,0
45480,control_change,0,0,3,,,,,,,,,2,64,0,,
45480,note_on,0,0,3,,,,,,,,,2,,,66,36
45480,note_on,0,0,3,,,,,,,,,2,,,68,0
45480,note_on,30,0,3,,,,,,,,,2,,,71,0
45480,note_on,0,0,3,,,,,,,,,2,,,69,36
45540,note_on,0,0,3,,,,,,,,,2,,,64,36
45540,note_on,0,0,3,,,,,,,,,2,,,68,36
45540,note_on,0,0,3,,,,,,,,,2,,,58,36
45540,note_on,0,0,3,,,,,,,,,2,,,66,0
45540,note_on,0,0,1,,,,,,,,,0,,,80,49
45540,note_on,0,0,1,,,,,,,,,0,,,92,49
45540,control_change,0,0,1,,,,,,,,,0,64,0,,
45540,note_on,180,0,1,,,,,,,,,0,,,90,0
45540,note_on,0,0,1,,,,,,,,,0,,,78,0
45540,note_on,60,0,3,,,,,,,,,2,,,69,0
45546,note_on,6,0,3,,,,,,,,,2,,,68,0
45546,note_on,0,0,3,,,,,,,,,2,,,64,0
45546,note_on,0,0,3,,,,,,,,,2,,,58,0
45600,note_on,0,0,1,,,,,,,,,0,,,80,49
45600,note_on,0,0,1,,,,,,,,,0,,,80,0
45600,note_on,60,0,1,,,,,,,,,0,,,92,0
45600,note_on,54,0,3,,,,,,,,,2,,,64,36
45600,note_on,0,0,1,,,,,,,,,0,,,92,49
45660,note_on,2700,0,4,,,,,,,,,3,,,59,36
45690,note_on,30,0,4,,,,,,,,,3,,,59,0
45690,note_on,0,0,4,,,,,,,,,3,,,58,36
45720,note_on,120,0,1,,,,,,,,,0,,,92,0
45720,note_on,0,0,1,,,,,,,,,0,,,80,0
45720,note_on,0,0,1,,,,,,,,,0,,,78,49
45720,note_on,0,0,1,,,,,,,,,0,,,90,49
45720,note_on,0,0,3,,,,,,,,,2,,,63,36
45720,note_on,120,0,3,,,,,,,,,2,,,64,0
45720,note_on,0,0,4,,,,,,,,,3,,,59,36
45720,note_on,30,0,4,,,,,,,,,3,,,58,0
45726,note_on,6,0,4,,,,,,,,,3,,,59,0
45780,note_on,60,0,3,,,,,,,,,2,,,63,0
45780,note_on,54,0,4,,,,,,,,,3,,,47,36
45786,note_on,6,0,4,,,,,,,,,3,,,47,0
45840,control_change,60,0,3,,,,,,,,,2,64,127,,
45840,set_tempo,960,1,0,,,,,,833333,,,,,,,
45840,note_on,0,0,1,,,,,,,,,0,,,78,0
45840,note_on,120,0,1,,,,,,,,,0,,,90,0
45840,note_on,0,0,1,,,,,,,,,0,,,71,49
45840,note_on,0,0,1,,,,,,,,,0,,,83,49
45840,note_on,0,0,3,,,,,,,,,2,,,40,36
45846,note_on,6,0,3,,,,,,,,,2,,,40,0
45900,note_on,0,0,3,,,,,,,,,2,,,68,36
45900,note_on,54,0,3,,,,,,,,,2,,,64,36
45930,note_on,0,0,3,,,,,,,,,2,,,66,36
45930,note_on,0,0,3,,,,,,,,,2,,,64,0
45930,note_on,30,0,3,,,,,,,,,2,,,68,0
45930,note_on,0,0,3,,,,,,,,,2,,,69,36
45960,note_on,0,0,3,,,,,,,,,2,,,66,0
45960,note_on,30,0,3,,,,,,,,,2,,,69,0
45960,note_on,0,0,3,,,,,,,,,2,,,71,36
45960,note_on,0,0,3,,,,,,,,,2,,,68,36
46020,note_on,60,0,3,,,,,,,,,2,,,71,0
46020,note_on,0,0,1,,,,,,,,,0,,,71,0
46020,note_on,0,0,3,,,,,,,,,2,,,68,0
46020,note_on,0,0,3,,,,,,,,,2,,,64,36
46020,note_on,0,0,3,,,,,,,,,2,,,68,36
46020,note_on,0,0,1,,,,,,,,,0,,,88,49
46020,note_on,180,0,1,,,,,,,,,0,,,83,0
46020,note_on,0,0,1,,,,,,,,,0,,,76,49
46026,note_on,0,0,3,,,,,,,,,2,,,64,0
46026,note_on,6,0,3,,,,,,,,,2,,,68,0
46080,control_change,54,0,3,,,,,,,,,2,64,0,,
46080,note_on,0,0,3,,,,,,,,,2,,,59,36
46086,note_on,6,0,3,,,,,,,,,2,,,59,0
46140,note_on,0,0,3,,,,,,,,,2,,,69,36
46140,note_on,0,0,3,,,,,,,,,2,,,66,36
46140,note_on,54,0,3,,,,,,,,,2,,,60,36
46140,note_on,0,0,1,,,,,,,,,0,,,76,0
46140,note_on,120,0,1,,,,,,,,,0,,,88,0
46140,note_on,0,0,1,,,,,,,,,0,,,75,49
46140,note_on,0,0,1,,,,,,,,,0,,,87,49
46200,note_on,0,0,3,,,,,,,,,2,,,68,36
46200,note_on,0,0,3,,,,,,,,,2,,,64,36
46200,control_change,0,0,3,,,,,,,,,2,64,127,,
46200,note_on,0,0,3,,,,,,,,,2,,,60,0
46200,note_on,0,0,3,,,,,,,,,2,,,66,0
46200,note_on,60,0,3,,,,,,,,,2,,,69,0
46200,note_on,0,0,1,,,,,,,,,0,,,75,0
46200,note_on,0,0,1,,,,,,,,,0,,,76,49
46200,note_on,60,0,1,,,,,,,,,0,,,87,0
46200,note_on,0,0,1,,,,,,,,,0,,,88,49
46200,note_on,0,0,3,,,,,,,,,2,,,61,36
46260,note_on,0,0,3,,,,,,,,,2,,,64,0
46260,note_on,0,0,3,,,,,,,,,2,,,61,0
46260,note_on,0,0,3,,,,,,,,,2,,,49,36
46260,note_on,60,0,3,,,,,,,,,2,,,68,0
46266,note_on,6,0,3,,,,,,,,,2,,,49,0
46320,note_on,0,0,1,,,,,,,,,0,,,78,49
46320,note_on,0,0,1,,,,,,,,,0,,,76,0
46320,note_on,0,0,1,,,,,,,,,0,,,90,49
46320,note_on,120,0,1,,,,,,,,,0,,,88,0
46320,note_on,54,0,3,,,,,,,,,2,,,45,36
46326,note_on,6,0,3,,,,,,,,,2,,,45,0
46380,note_on,54,0,3,,,,,,,,,2,,,69,36
46380,note_on,0,0,3,,,,,,,,,2,,,73,36
46410,note_on,0,0,3,,,,,,,,,2,,,71,36
46410,note_on,0,0,3,,,,,,,,,2,,,68,36
46410,note_on,30,0,3,,,,,,,,,2,,,73,0
46410,note_on,0,0,3,,,,,,,,,2,,,69,0
46440,note_on,0,0,3,,,,,,,,,2,,,68,0
46440,note_on,0,0,3,,,,,,,,,2,,,66,36
46440,note_on,0,0,3,,,,,,,,,2,,,69,36
46440,note_on,30,0,3,,,,,,,,,2,,,71,0
46500,note_on,0,0,3,,,,,,,,,2,,,66,36
46500,note_on,0,0,3,,,,,,,,,2,,,63,36
46500,note_on,0,0,3,,,,,,,,,2,,,59,36
46500,control_change,0,0,3,,,,,,,,,2,64,0,,
46500,note_on,180,0,1,,,,,,,,,0,,,90,0
46500,note_on,0,0,1,,,,,,,,,0,,,92,49
46500,note_on,0,0,1,,,,,,,,,0,,,80,49
46500,note_on,0,0,1,,,,,,,,,0,,,78,0
46500,note_on,60,0,3,,,,,,,,,2,,,69,0
46500,note_on,0,0,3,,,,,,,,,2,,,66,0
46506,note_on,0,0,3,,,,,,,,,2,,,63,0
46506,note_on,0,0,3,,,,,,,,,2,,,59,0
46506,note_on,6,0,3,,,,,,,,,2,,,66,0
46530,note_on,0,0,1,,,,,,,,,0,,,80,0
46530,note_on,0,0,1,,,,,,,,,0,,,93,49
46530,note_on,0,0,1,,,,,,,,,0,,,81,49
46530,note_on,30,0,1,,,,,,,,,0,,,92,0
46560,note_on,774,0,4,,,,,,,,,3,,,52,36
46560,note_on,0,0,1,,,,,,,,,0,,,93,49
46560,note_on,0,0,1,,,,,,,,,0,,,81,49
46560,note_on,0,0,1,,,,,,,,,0,,,81,0
46560,note_on,30,0,1,,,,,,,,,0,,,93,0
46620,note_on,0,0,3,,,,,,,,,2,,,59,36
46620,control_change,114,0,3,,,,,,,,,2,64,127,,
46650,note_on,30,0,3,,,,,,,,,2,,,63,36
46680,control_change,0,0,3,,,,,,,,,2,64,0,,
46680,note_on,0,0,1,,,,,,,,,0,,,92,49
46680,note_on,0,0,3,,,,,,,,,2,,,64,36
46680,note_on,120,0,1,,,,,,,,,0,,,93,0
46680,note_on,0,0,1,,,,,,,,,0,,,80,49
46680,note_on,30,0,3,,,,,,,,,2,,,63,0
46680,note_on,0,0,1,,,,,,,,,0,,,81,0
46800,note_on,120,0,3,,,,,,,,,2,,,64,0
46800,note_on,0,0,3,,,,,,,,,2,,,59,0
46800,note_on,240,0,4,,,,,,,,,3,,,52,0
46800,control_change,0,0,3,,,,,,,,,2,64,127,,
46800,note_on,0,0,3,,,,,,,,,2,,,56,49
46800,note_on,120,0,1,,,,,,,,,0,,,92,0
46800,note_on,0,0,1,,,,,,,,,0,,,80,0
46800,note_on,0,0,1,,,,,,,,,0,,,83,62
46800,note_on,0,0,1,,,,,,,,,0,,,95,62
46806,note_on,6,0,3,,,,,,,,,2,,,56,0
46860,note_on,0,0,3,,,,,,,,,2,,,71,49
46860,note_on,54,0,3,,,,,,,,,2,,,68,49
46890,note_on,0,0,3,,,,,,,,,2,,,69,49
46890,note_on,0,0,3,,,,,,,,,2,,,66,49
46890,note_on,0,0,3,,,,,,,,,2,,,68,0
46890,note_on,30,0,3,,,,,,,,,2,,,71,0
46920,note_on,120,0,1,,,,,,,,,0,,,95,0
46920,note_on,0,0,3,,,,,,,,,2,,,68,49
46920,note_on,0,0,1,,,,,,,,,0,,,97,88
46920,note_on,0,0,1,,,,,,,,,0,,,85,80
46920,note_on,0,0,3,,,,,,,,,2,,,66,0
46920,note_on,0,0,3,,,,,,,,,2,,,65,49
46920,note_on,0,0,1,,,,,,,,,0,,,83,0
46920,note_on,30,0,3,,,,,,,,,2,,,69,0
46980,note_on,0,0,3,,,,,,,,,2,,,61,49
46980,note_on,60,0,3,,,,,,,,,2,,,68,0
46980,note_on,0,0,3,,,,,,,,,2,,,65,0
46980,control_change,0,0,3,,,,,,,,,2,64,0,,
46986,note_on,6,0,3,,,,,,,,,2,,,61,0
47040,control_change,54,0,3,,,,,,,,,2,64,127,,
47040,note_on,0,0,3,,,,,,,,,2,,,54,49
47040,note_on,0,0,1,,,,,,,,,0,,,95,62
47040,control_change,0,0,1,,,,,,,,,0,64,127,,
47040,note_on,0,0,1,,,,,,,,,0,,,83,62
47040,note_on,0,0,1,,,,,,,,,0,,,85,0
47040,note_on,120,0,1,,,,,,,,,0,,,97,0
47046,note_on,6,0,1,,,,,,,,,0,,,95,0
47046,note_on,6,0,3,,,,,,,,,2,,,54,0
47046,note_on,0,0,1,,,,,,,,,0,,,83,0
47100,note_on,54,0,1,,,,,,,,,0,,,81,62
47100,note_on,0,0,1,,,,,,,,,0,,,93,62
47100,note_on,54,0,3,,,,,,,,,2,,,66,49
47100,note_on,0,0,3,,,,,,,,,2,,,69,49
47106,note_on,6,0,1,,,,,,,,,0,,,93,0
47106,note_on,0,0,1,,,,,,,,,0,,,81,0
47130,note_on,0,0,3,,,,,,,,,2,,,68,49
47130,note_on,0,0,3,,,,,,,,,2,,,66,0
47130,note_on,30,0,3,,,,,,,,,2,,,69,0
47130,note_on,0,0,3,,,,,,,,,2,,,71,49
47160,control_change,54,0,1,,,,,,,,,0,64,0,,
47160,note_on,0,0,1,,,,,,,,,0,,,78,62
47160,note_on,0,0,1,,,,,,,,,0,,,90,62
47160,note_on,30,0,3,,,,,,,,,2,,,71,0
47160,note_on,0,0,3,,,,,,,,,2,,,73,49
47160,note_on,0,0,3,,,,,,,,,2,,,68,0
47160,note_on,360,0,4,,,,,,,,,3,,,69,49
47220,note_on,0,0,3,,,,,,,,,2,,,72,49
47220,control_change,0,0,3,,,,,,,,,2,64,0,,
47220,note_on,60,0,3,,,,,,,,,2,,,73,0
47280,control_change,0,0,3,,,,,,,,,2,64,127,,
47280,note_on,0,0,1,,,,,,,,,0,,,78,0
47280,note_on,0,0,1,,,,,,,,,0,,,81,62
47280,note_on,0,0,1,,,,,,,,,0,,,93,62
47280,note_on,120,0,1,,,,,,,,,0,,,90,0
47280,note_on,60,0,3,,,,,,,,,2,,,72,0
47280,note_on,120,0,4,,,,,,,,,3,,,69,0
47280,note_on,0,0,3,,,,,,,,,2,,,59,49
47286,note_on,6,0,3,,,,,,,,,2,,,59,0
47340,note_on,0,0,3,,,,,,,,,2,,,78,49
47340,note_on,60,0,4,,,,,,,,,3,,,71,49
47340,note_on,54,0,3,,,,,,,,,2,,,69,49
47370,note_on,0,0,3,,,,,,,,,2,,,76,49
47370,note_on,30,0,3,,,,,,,,,2,,,78,0
47370,note_on,0,0,3,,,,,,,,,2,,,69,0
47370,note_on,0,0,3,,,,,,,,,2,,,68,49
47400,note_on,0,0,3,,,,,,,,,2,,,68,0
47400,note_on,0,0,3,,,,,,,,,2,,,66,49
47400,note_on,30,0,3,,,,,,,,,2,,,76,0
47400,note_on,0,0,3,,,,,,,,,2,,,75,49
47400,note_on,0,0,1,,,,,,,,,0,,,95,88
47400,note_on,0,0,1,,,,,,,,,0,,,83,80
47400,note_on,120,0,1,,,,,,,,,0,,,93,0
47400,note_on,0,0,1,,,,,,,,,0,,,81,0
47460,note_on,0,0,3,,,,,,,,,2,,,59,49
47460,control_change,0,0,3,,,,,,,,,2,64,0,,
47460,note_on,120,0,4,,,,,,,,,3,,,71,0
47460,note_on,0,0,3,,,,,,,,,2,,,66,0
47460,note_on,60,0,3,,,,,,,,,2,,,75,0
47466,note_on,6,0,3,,,,,,,,,2,,,59,0
47520,control_change,54,0,3,,,,,,,,,2,64,127,,
47520,note_on,0,0,1,,,,,,,,,0,,,76,62
47520,note_on,0,0,3,,,,,,,,,2,,,56,49
47520,note_on,120,0,1,,,,,,,,,0,,,95,0
47520,note_on,0,0,1,,,,,,,,,0,,,83,0
47520,note_on,0,0,1,,,,,,,,,0,,,88,62
47526,note_on,6,0,3,,,,,,,,,2,,,56,0
47580,note_on,0,0,3,,,,,,,,,2,,,68,49
47580,note_on,54,0,3,,,,,,,,,2,,,64,49
47610,note_on,0,0,1,,,,,,,,,0,,,90,62
47610,note_on,90,0,1,,,,,,,,,0,,,88,0
47610,note_on,0,0,1,,,,,,,,,0,,,76,0
47610,note_on,0,0,1,,,,,,,,,0,,,78,62
47610,note_on,0,0,3,,,,,,,,,2,,,64,0
47610,note_on,0,0,3,,,,,,,,,2,,,66,49
47610,note_on,0,0,3,,,,,,,,,2,,,63,49
47610,control_change,0,0,3,,,,,,,,,2,64,0,,
47610,note_on,30,0,3,,,,,,,,,2,,,68,0
47640,note_on,0,0,1,,,,,,,,,0,,,80,62
47640,note_on,0,0,1,,,,,,,,,0,,,78,0
47640,note_on,30,0,1,,,,,,,,,0,,,90,0
47640,note_on,180,0,4,,,,,,,,,3,,,58,49
47640,note_on,0,0,4,,,,,,,,,3,,,61,49
47640,note_on,0,0,3,,,,,,,,,2,,,64,49
47640,note_on,0,0,3,,,,,,,,,2,,,63,0
47640,note_on,30,0,3,,,,,,,,,2,,,66,0
47640,note_on,0,0,1,,,,,,,,,0,,,92,62
47700,note_on,60,0,3,,,,,,,,,2,,,64,0
47700,note_on,0,0,3,,,,,,,,,2,,,68,49
47760,control_change,0,0,1,,,,,,,,,0,64,127,,
47760,note_on,0,0,1,,,,,,,,,0,,,78,62
47760,note_on,0,0,1,,,,,,,,,0,,,80,0
47760,note_on,120,0,1,,,,,,,,,0,,,92,0
47760,note_on,0,0,4,,,,,,,,,3,,,58,0
47760,note_on,120,0,4,,,,,,,,,3,,,61,0
47760,note_on,60,0,3,,,,,,,,,2,,,68,0
47760,control_change,0,0,3,,,,,,,,,2,64,127,,
47760,note_on,0,0,3,,,,,,,,,2,,,57,49
47760,note_on,0,0,1,,,,,,,,,0,,,90,62
47766,note_on,6,0,3,,,,,,,,,2,,,57,0
47820,note_on,0,0,1,,,,,,,,,0,,,90,62
47820,note_on,0,0,1,,,,,,,,,0,,,78,62
47820,note_on,0,0,1,,,,,,,,,0,,,78,0
47820,note_on,54,0,3,,,,,,,,,2,,,64,49
47820,note_on,0,0,3,,,,,,,,,2,,,73,49
47820,note_on,0,0,3,,,,,,,,,2,,,66,49
47820,note_on,60,0,1,,,,,,,,,0,,,90,0
47826,note_on,0,0,1,,,,,,,,,0,,,78,0
47826,note_on,6,0,1,,,,,,,,,0,,,90,0
47880,control_change,54,0,1,,,,,,,,,0,64,0,,
47880,note_on,0,0,1,,,,,,,,,0,,,78,62
47880,note_on,0,0,1,,,,,,,,,0,,,90,62
47880,note_on,60,0,3,,,,,,,,,2,,,73,0
47880,note_on,0,0,3,,,,,,,,,2,,,64,0
47880,note_on,0,0,3,,,,,,,,,2,,,63,49
47880,note_on,0,0,3,,,,,,,,,2,,,71,49
47880,control_change,0,0,3,,,,,,,,,2,64,0,,
47940,note_on,0,0,3,,,,,,,,,2,,,66,0
47940,note_on,0,0,1,,,,,,,,,0,,,81,62
47940,note_on,0,0,1,,,,,,,,,0,,,78,0
47940,note_on,60,0,1,,,,,,,,,0,,,90,0
47940,note_on,60,0,3,,,,,,,,,2,,,71,0
47940,note_on,0,0,3,,,,,,,,,2,,,63,0
47940,note_on,0,0,1,,,,,,,,,0,,,93,62
47940,note_on,0,0,3,,,,,,,,,2,,,59,49
47946,note_on,6,0,3,,,,,,,,,2,,,59,0
47985,note_on,0,0,1,,,,,,,,,0,,,81,0
47985,note_on,0,0,1,,,,,,,,,0,,,80,62
47985,note_on,0,0,1,,,,,,,,,0,,,92,62
47985,note_on,45,0,1,,,,,,,,,0,,,93,0
48000,note_on,0,0,3,,,,,,,,,2,,,64,49
48000,note_on,0,0,1,,,,,,,,,0,,,80,62
48000,note_on,0,0,1,,,,,,,,,0,,,80,0
48000,note_on,15,0,1,,,,,,,,,0,,,92,0
48000,note_on,0,0,1,,,,,,,,,0,,,92,62
48000,control_change,54,0,3,,,,,,,,,2,64,127,,
48006,note_on,6,0,3,,,,,,,,,2,,,64,0
48060,note_on,54,0,3,,,,,,,,,2,,,68,49
48060,note_on,0,0,3,,,,,,,,,2,,,71,49
48090,note_on,30,0,3,,,,,,,,,2,,,71,0
48090,note_on,0,0,3,,,,,,,,,2,,,68,0
48090,note_on,0,0,3,,,,,,,,,2,,,66,49
48090,note_on,0,0,3,,,,,,,,,2,,,69,49
48120,note_on,0,0,1,,,,,,,,,0,,,83,62
48120,note_on,0,0,3,,,,,,,,,2,,,66,0
48120,note_on,0,0,1,,,,,,,,,0,,,95,62
48120,note_on,120,0,1,,,,,,,,,0,,,92,0
48120,note_on,0,0,3,,,,,,,,,2,,,68,49
48120,note_on,30,0,3,,,,,,,,,2,,,69,0
48120,note_on,0,0,3,,,,,,,,,2,,,64,49
48120,note_on,0,0,1,,,,,,,,,0,,,80,0
48180,note_on,0,0,3,,,,,,,,,2,,,56,49
48180,control_change,0,0,3,,,,,,,,,2,64,0,,
48180,note_on,0,0,3,,,,,,,,,2,,,64,0
48180,note_on,60,0,3,,,,,,,,,2,,,68,0
48186,note_on,6,0,3,,,,,,,,,2,,,56,0
48240,note_on,120,0,1,,,,,,,,,0,,,95,0
48240,note_on,0,0,3,,,,,,,,,2,,,57,49
48240,note_on,0,0,1,,,,,,,,,0,,,83,0
48240,note_on,0,0,1,,,,,,,,,0,,,78,62
48240,note_on,0,0,1,,,,,,,,,0,,,90,62
48240,control_change,0,0,1,,,,,,,,,0,64,127,,
48240,control_change,54,0,3,,,,,,,,,2,64,127,,
48246,note_on,0,0,1,,,,,,,,,0,,,78,0
48246,note_on,6,0,3,,,,,,,,,2,,,57,0
48246,note_on,6,0,1,,,,,,,,,0,,,90,0
48300,note_on,54,0,3,,,,,,,,,2,,,64,49
48300,note_on,0,0,1,,,,,,,,,0,,,90,62
48300,note_on,0,0,3,,,,,,,,,2,,,66,49
48300,note_on,54,0,1,,,,,,,,,0,,,78,62
48300,note_on,0,0,3,,,,,,,,,2,,,73,49
48306,note_on,6,0,1,,,,,,,,,0,,,90,0
48306,note_on,0,0,1,,,,,,,,,0,,,78,0
48360,note_on,0,0,3,,,,,,,,,2,,,63,49
48360,note_on,0,0,3,,,,,,,,,2,,,71,49
48360,note_on,60,0,3,,,,,,,,,2,,,73,0
48360,control_change,0,0,3,,,,,,,,,2,64,0,,
48360,note_on,0,0,3,,,,,,,,,2,,,64,0
48360,note_on,0,0,1,,,,,,,,,0,,,90,62
48360,note_on,0,0,1,,,,,,,,,0,,,78,62
48360,control_change,54,0,1,,,,,,,,,0,64,0,,
48420,note_on,0,0,1,,,,,,,,,0,,,78,0
48420,note_on,60,0,1,,,,,,,,,0,,,90,0
48420,note_on,0,0,3,,,,,,,,,2,,,66,0
48420,note_on,0,0,3,,,,,,,,,2,,,63,0
48420,note_on,60,0,3,,,,,,,,,2,,,71,0
48420,note_on,0,0,3,,,,,,,,,2,,,59,49
48420,note_on,0,0,1,,,,,,,,,0,,,81,62
48420,note_on,0,0,1,,,,,,,,,0,,,93,62
48426,note_on,6,0,3,,,,,,,,,2,,,59,0
48465,note_on,0,0,1,,,,,,,,,0,,,81,0
48465,note_on,45,0,1,,,,,,,,,0,,,93,0
48465,note_on,0,0,1,,,,,,,,,0,,,80,62
48465,note_on,0,0,1,,,,,,,,,0,,,92,62
48480,note_on,0,0,1,,,,,,,,,0,,,88,62
48480,note_on,15,0,1,,,,,,,,,0,,,92,0
48480,note_on,0,0,1,,,,,,,,,0,,,80,0
48480,note_on,0,0,1,,,,,,,,,0,,,76,62
48480,note_on,54,0,3,,,,,,,,,2,,,52,49
48486,note_on,6,0,3,,,,,,,,,2,,,52,0
48540,note_on,54,0,3,,,,,,,,,2,,,64,49
48540,note_on,0,0,3,,,,,,,,,2,,,68,49
48570,note_on,30,0,3,,,,,,,,,2,,,68,0
48570,note_on,0,0,3,,,,,,,,,2,,,64,0
48570,note_on,0,0,3,,,,,,,,,2,,,66,49
48570,note_on,0,0,3,,,,,,,,,2,,,69,49
48600,note_on,0,0,1,,,,,,,,,0,,,76,0
48600,note_on,120,0,1,,,,,,,,,0,,,88,0
48600,note_on,0,0,3,,,,,,,,,2,,,71,49
48600,note_on,0,0,3,,,,,,,,,2,,,68,49
48600,note_on,0,0,3,,,,,,,,,2,,,66,0
48600,note_on,30,0,3,,,,,,,,,2,,,69,0
48660,note_on,0,0,3,,,,,,,,,2,,,68,0
48660,note_on,0,0,3,,,,,,,,,2,,,64,49
48660,note_on,0,0,3,,,,,,,,,2,,,68,49
48660,note_on,60,0,3,,,,,,,,,2,,,71,0
48666,note_on,6,0,3,,,,,,,,,2,,,68,0
48666,note_on,0,0,3,,,,,,,,,2,,,64,0
48720,note_on,120,0,1,,,,,,,,,0,,,83,62
48720,note_on,0,0,1,,,,,,,,,0,,,95,62
48720,control_change,54,0,3,,,,,,,,,2,64,127,,
48720,note_on,0,0,3,,,,,,,,,2,,,56,49
48726,note_on,6,0,3,,,,,,,,,2,,,56,0
48780,note_on,0,0,3,,,,,,,,,2,,,71,49
48780,note_on,54,0,3,,,,,,,,,2,,,68,49
48810,note_on,0,0,3,,,,,,,,,2,,,69,49
48810,note_on,0,0,3,,,,,,,,,2,,,66,49
48810,note_on,30,0,3,,,,,,,,,2,,,71,0
48810,note_on,0,0,3,,,,,,,,,2,,,68,0
48840,note_on,0,0,3,,,,,,,,,2,,,65,49
48840,note_on,0,0,3,,,,,,,,,2,,,68,49
48840,note_on,30,0,3,,,,,,,,,2,,,69,0
48840,note_on,0,0,1,,,,,,,,,0,,,97,88
48840,note_on,120,0,1,,,,,,,,,0,,,95,0
48840,note_on,0,0,1,,,,,,,,,0,,,83,0
48840,note_on,0,0,1,,,,,,,,,0,,,85,80
48840,note_on,0,0,3,,,,,,,,,2,,,66,0
48900,note_on,60,0,3,,,,,,,,,2,,,68,0
48900,note_on,0,0,3,,,,,,,,,2,,,61,49
48900,control_change,0,0,3,,,,,,,,,2,64,0,,
48900,note_on,0,0,3,,,,,,,,,2,,,65,0
48906,note_on,6,0,3,,,,,,,,,2,,,61,0
48960,note_on,0,0,1,,,,,,,,,0,,,85,0
48960,note_on,0,0,1,,,,,,,,,0,,,83,62
48960,control_change,0,0,1,,,,,,,,,0,64,127,,
48960,note_on,120,0,1,,,,,,,,,0,,,97,0
48960,note_on,0,0,1,,,,,,,,,0,,,95,62
48960,note_on,0,0,3,,,,,,,,,2,,,54,49
48960,control_change,54,0,3,,,,,,,,,2,64,127,,
48966,note_on,6,0,3,,,,,,,,,2,,,54,0
48966,note_on,6,0,1,,,,,,,,,0,,,95,0
48966,note_on,0,0,1,,,,,,,,,0,,,83,0
49020,note_on,0,0,1,,,,,,,,,0,,,93,62
49020,note_on,0,0,3,,,,,,,,,2,,,69,49
49020,note_on,54,0,3,,,,,,,,,2,,,66,49
49020,note_on,54,0,1,,,,,,,,,0,,,81,62
49026,note_on,6,0,1,,,,,,,,,0,,,93,0
49026,note_on,0,0,1,,,,,,,,,0,,,81,0
49050,note_on,0,0,3,,,,,,,,,2,,,68,49
49050,note_on,0,0,3,,,,,,,,,2,,,71,49
49050,note_on,0,0,3,,,,,,,,,2,,,66,0
49050,note_on,30,0,3,,,,,,,,,2,,,69,0
49080,note_on,1320,0,4,,,,,,,,,3,,,69,49
49080,note_on,0,0,3,,,,,,,,,2,,,73,49
49080,note_on,30,0,3,,,,,,,,,2,,,71,0
49080,note_on,0,0,3,,,,,,,,,2,,,68,0
49080,note_on,0,0,1,,,,,,,,,0,,,90,62
49080,note_on,0,0,1,,,,,,,,,0,,,78,62
49080,control_change,54,0,1,,,,,,,,,0,64,0,,
49140,note_on,0,0,3,,,,,,,,,2,,,72,49
49140,control_change,0,0,3,,,,,,,,,2,64,0,,
49140,note_on,60,0,3,,,,,,,,,2,,,73,0
49200,control_change,0,0,3,,,,,,,,,2,64,127,,
49200,note_on,120,0,4,,,,,,,,,3,,,69,0
49200,note_on,0,0,3,,,,,,,,,2,,,59,49
49200,note_on,60,0,3,,,,,,,,,2,,,72,0
49200,note_on,0,0,1,,,,,,,,,0,,,93,62
49200,note_on,0,0,1,,,,,,,,,0,,,78,0
49200,note_on,120,0,1,,,,,,,,,0,,,90,0
49200,note_on,0,0,1,,,,,,,,,0,,,81,62
49206,note_on,6,0,3,,,,,,,,,2,,,59,0
49260,note_on,54,0,3,,,,,,,,,2,,,69,49
49260,note_on,0,0,3,,,,,,,,,2,,,78,49
49260,note_on,60,0,4,,,,,,,,,3,,,71,49
49290,note_on,0,0,3,,,,,,,,,2,,,69,0
49290,note_on,30,0,3,,,,,,,,,2,,,78,0
49290,note_on,0,0,3,,,,,,,,,2,,,76,49
49290,note_on,0,0,3,,,,,,,,,2,,,68,49
49320,note_on,120,0,1,,,,,,,,,0,,,93,0
49320,note_on,0,0,1,,,,,,,,,0,,,81,0
49320,note_on,30,0,3,,,,,,,,,2,,,76,0
49320,note_on,0,0,3,,,,,,,,,2,,,68,0
49320,note_on,0,0,3,,,,,,,,,2,,,66,49
49320,note_on,0,0,3,,,,,,,,,2,,,75,49
49320,note_on,0,0,1,,,,,,,,,0,,,83,80
49320,note_on,0,0,1,,,,,,,,,0,,,95,88
49380,note_on,120,0,4,,,,,,,,,3,,,71,0
49380,note_on,60,0,3,,,,,,,,,2,,,75,0
49380,note_on,0,0,3,,,,,,,,,2,,,66,0
49380,control_change,0,0,3,,,,,,,,,2,64,0,,
49380,note_on,0,0,3,,,,,,,,,2,,,59,49
49386,note_on,6,0,3,,,,,,,,,2,,,59,0
49440,note_on,0,0,1,,,,,,,,,0,,,88,62
49440,control_change,54,0,3,,,,,,,,,2,64,127,,
49440,note_on,120,0,1,,,,,,,,,0,,,95,0
49440,note_on,0,0,1,,,,,,,,,0,,,83,0
49440,note_on,0,0,1,,,,,,,,,0,,,76,62
49440,note_on,0,0,3,,,,,,,,,2,,,56,49
49446,note_on,6,0,3,,,,,,,,,2,,,56,0
49500,note_on,0,0,3,,,,,,,,,2,,,68,49
49500,note_on,54,0,3,,,,,,,,,2,,,64,49
49530,note_on,90,0,1,,,,,,,,,0,,,88,0
49530,control_change,0,0,3,,,,,,,,,2,64,0,,
49530,note_on,0,0,1,,,,,,,,,0,,,76,0
49530,note_on,0,0,1,,,,,,,,,0,,,78,62
49530,note_on,0,0,1,,,,,,,,,0,,,90,62
49530,note_on,30,0,3,,,,,,,,,2,,,68,0
49530,note_on,0,0,3,,,,,,,,,2,,,64,0
49530,note_on,0,0,3,,,,,,,,,2,,,63,49
49530,note_on,0,0,3,,,,,,,,,2,,,66,49
49560,note_on,0,0,1,,,,,,,,,0,,,92,62
49560,note_on,30,0,3,,,,,,,,,2,,,66,0
49560,note_on,30,0,1,,,,,,,,,0,,,90,0
49560,note_on,0,0,1,,,,,,,,,0,,,78,0
49560,note_on,0,0,1,,,,,,,,,0,,,80,62
49560,note_on,0,0,3,,,,,,,,,2,,,64,49
49560,note_on,180,0,4,,,,,,,,,3,,,58,49
49560,note_on,0,0,4,,,,,,,,,3,,,61,49
49560,note_on,0,0,3,,,,,,,,,2,,,63,0
49620,note_on,0,0,3,,,,,,,,,2,,,68,49
49620,note_on,60,0,3,,,,,,,,,2,,,64,0
49680,note_on,0,0,3,,,,,,,,,2,,,57,49
49680,control_change,0,0,3,,,,,,,,,2,64,127,,
49680,note_on,60,0,3,,,,,,,,,2,,,68,0
49680,note_on,120,0,4,,,,,,,,,3,,,61,0
49680,note_on,0,0,4,,,,,,,,,3,,,58,0
49680,note_on,120,0,1,,,,,,,,,0,,,92,0
49680,note_on,0,0,1,,,,,,,,,0,,,80,0
49680,note_on,0,0,1,,,,,,,,,0,,,78,62
49680,note_on,0,0,1,,,,,,,,,0,,,90,62
49680,control_change,0,0,1,,,,,,,,,0,64,127,,
49686,note_on,6,0,3,,,,,,,,,2,,,57,0
49740,note_on,0,0,1,,,,,,,,,0,,,78,62
49740,note_on,0,0,1,,,,,,,,,0,,,90,62
49740,note_on,0,0,3,,,,,,,,,2,,,66,49
49740,note_on,0,0,3,,,,,,,,,2,,,73,49
49740,note_on,54,0,3,,,,,,,,,2,,,64,49
49740,note_on,0,0,1,,,,,,,,,0,,,78,0
49740,note_on,60,0,1,,,,,,,,,0,,,90,0
49746,note_on,6,0,1,,,,,,,,,0,,,90,0
49746,note_on,0,0,1,,,,,,,,,0,,,78,0
49800,note_on,60,0,3,,,,,,,,,2,,,73,0
49800,control_change,0,0,3,,,,,,,,,2,64,0,,
49800,note_on,0,0,3,,,,,,,,,2,,,64,0
49800,note_on,0,0,1,,,,,,,,,0,,,78,62
49800,note_on,0,0,3,,,,,,,,,2,,,63,49
49800,note_on,0,0,1,,,,,,,,,0,,,90,62
49800,control_change,54,0,1,,,,,,,,,0,64,0,,
49800,note_on,0,0,3,,,,,,,,,2,,,71,49
49860,note_on,0,0,3,,,,,,,,,2,,,66,0
49860,note_on,0,0,3,,,,,,,,,2,,,59,49
49860,note_on,0,0,3,,,,,,,,,2,,,63,0
49860,note_on,60,0,1,,,,,,,,,0,,,90,0
49860,note_on,0,0,1,,,,,,,,,0,,,78,0
49860,note_on,0,0,1,,,,,,,,,0,,,93,62
49860,note_on,0,0,1,,,,,,,,,0,,,81,62
49860,note_on,60,0,3,,,,,,,,,2,,,71,0
49866,note_on,6,0,3,,,,,,,,,2,,,59,0
49905,note_on,0,0,1,,,,,,,,,0,,,92,62
49905,note_on,0,0,1,,,,,,,,,0,,,80,62
49905,note_on,0,0,1,,,,,,,,,0,,,81,0
49905,note_on,45,0,1,,,,,,,,,0,,,93,0
49920,note_on,0,0,1,,,,,,,,,0,,,92,62
49920,note_on,0,0,1,,,,,,,,,0,,,80,0
49920,note_on,15,0,1,,,,,,,,,0,,,92,0
49920,note_on,0,0,1,,,,,,,,,0,,,80,62
49920,note_on,0,0,3,,,,,,,,,2,,,64,49
49920,control_change,54,0,3,,,,,,,,,2,64,127,,
49926,note_on,6,0,3,,,,,,,,,2,,,64,0
49980,note_on,0,0,3,,,,,,,,,2,,,71,49
49980,note_on,54,0,3,,,,,,,,,2,,,68,49
50010,note_on,0,0,3,,,,,,,,,2,,,66,49
50010,note_on,0,0,3,,,,,,,,,2,,,68,0
50010,note_on,30,0,3,,,,,,,,,2,,,71,0
50010,note_on,0,0,3,,,,,,,,,2,,,69,49
50040,note_on,0,0,3,,,,,,,,,2,,,66,0
50040,note_on,0,0,3,,,,,,,,,2,,,64,49
50040,note_on,0,0,3,,,,,,,,,2,,,68,49
50040,note_on,30,0,3,,,,,,,,,2,,,69,0
50040,note_on,0,0,1,,,,,,,,,0,,,80,0
50040,note_on,0,0,1,,,,,,,,,0,,,83,62
50040,note_on,0,0,1,,,,,,,,,0,,,95,62
50040,note_on,120,0,1,,,,,,,,,0,,,92,0
50100,note_on,0,0,3,,,,,,,,,2,,,56,49
50100,control_change,0,0,3,,,,,,,,,2,64,0,,
50100,note_on,0,0,3,,,,,,,,,2,,,64,0
50100,note_on,60,0,3,,,,,,,,,2,,,68,0
50106,note_on,6,0,3,,,,,,,,,2,,,56,0
50160,control_change,0,0,1,,,,,,,,,0,64,127,,
50160,note_on,0,0,1,,,,,,,,,0,,,78,62
50160,note_on,0,0,3,,,,,,,,,2,,,57,49
50160,control_change,54,0,3,,,,,,,,,2,64,127,,
50160,note_on,0,0,1,,,,,,,,,0,,,83,0
50160,note_on,120,0,1,,,,,,,,,0,,,95,0
50160,note_on,0,0,1,,,,,,,,,0,,,90,62
50166,note_on,6,0,1,,,,,,,,,0,,,90,0
50166,note_on,6,0,3,,,,,,,,,2,,,57,0
50166,note_on,0,0,1,,,,,,,,,0,,,78,0
50220,note_on,54,0,3,,,,,,,,,2,,,64,49
50220,note_on,0,0,3,,,,,,,,,2,,,73,49
50220,note_on,0,0,3,,,,,,,,,2,,,66,49
50220,note_on,0,0,1,,,,,,,,,0,,,90,62
50220,note_on,54,0,1,,,,,,,,,0,,,78,62
50226,note_on,6,0,1,,,,,,,,,0,,,90,0
50226,note_on,0,0,1,,,,,,,,,0,,,78,0
50280,note_on,0,0,3,,,,,,,,,2,,,63,49
50280,control_change,0,0,3,,,,,,,,,2,64,0,,
50280,note_on,0,0,3,,,,,,,,,2,,,71,49
50280,note_on,0,0,1,,,,,,,,,0,,,90,62
50280,note_on,0,0,3,,,,,,,,,2,,,64,0
50280,note_on,0,0,1,,,,,,,,,0,,,78,62
50280,control_change,54,0,1,,,,,,,,,0,64,0,,
50280,note_on,60,0,3,,,,,,,,,2,,,73,0
50340,note_on,0,0,1,,,,,,,,,0,,,93,62
50340,note_on,60,0,3,,,,,,,,,2,,,71,0
50340,note_on,0,0,3,,,,,,,,,2,,,66,0
50340,note_on,60,0,1,,,,,,,,,0,,,90,0
50340,note_on,0,0,1,,,,,,,,,0,,,78,0
50340,note_on,0,0,3,,,,,,,,,2,,,63,0
50340,note_on,0,0,1,,,,,,,,,0,,,81,62
50340,note_on,0,0,3,,,,,,,,,2,,,59,49
50346,note_on,6,0,3,,,,,,,,,2,,,59,0
50385,note_on,0,0,1,,,,,,,,,0,,,92,62
50385,note_on,45,0,1,,,,,,,,,0,,,93,0
50385,note_on,0,0,1,,,,,,,,,0,,,81,0
50385,note_on,0,0,1,,,,,,,,,0,,,80,62
50400,note_on,0,0,1,,,,,,,,,0,,,88,62
50400,note_on,0,0,1,,,,,,,,,0,,,76,62
50400,note_on,15,0,1,,,,,,,,,0,,,92,0
50400,note_on,54,0,3,,,,,,,,,2,,,52,49
50400,note_on,0,0,1,,,,,,,,,0,,,80,0
50406,note_on,6,0,3,,,,,,,,,2,,,52,0
50460,note_on,0,0,3,,,,,,,,,2,,,68,49
50460,note_on,54,0,3,,,,,,,,,2,,,64,49
50490,note_on,0,0,3,,,,,,,,,2,,,69,49
50490,note_on,0,0,3,,,,,,,,,2,,,66,49
50490,note_on,30,0,3,,,,,,,,,2,,,68,0
50490,note_on,0,0,3,,,,,,,,,2,,,64,0
50520,note_on,0,0,1,,,,,,,,,0,,,76,0
50520,note_on,0,0,3,,,,,,,,,2,,,71,49
50520,note_on,0,0,3,,,,,,,,,2,,,68,49
50520,note_on,0,0,3,,,,,,,,,2,,,66,0
50520,note_on,30,0,3,,,,,,,,,2,,,69,0
50520,note_on,120,0,1,,,,,,,,,0,,,88,0
50580,note_on,0,0,3,,,,,,,,,2,,,64,49
50580,note_on,0,0,3,,,,,,,,,2,,,68,0
50580,note_on,60,0,3,,,,,,,,,2,,,71,0
50580,note_on,0,0,3,,,,,,,,,2,,,68,49
50586,note_on,0,0,3,,,,,,,,,2,,,64,0
50586,note_on,6,0,3,,,,,,,,,2,,,68,0
50640,note_on,0,0,1,,,,,,,,,0,,,73,62
50640,note_on,0,0,1,,,,,,,,,0,,,85,62
50640,control_change,54,0,3,,,,,,,,,2,64,127,,
50640,control_change,120,0,1,,,,,,,,,0,64,127,,
50640,note_on,0,0,3,,,,,,,,,2,,,45,49
50646,note_on,6,0,1,,,,,,,,,0,,,85,0
50646,note_on,0,0,1,,,,,,,,,0,,,73,0
50700,note_on,0,0,3,,,,,,,,,2,,,64,49
50700,note_on,0,0,3,,,,,,,,,2,,,61,49
50700,note_on,0,0,3,,,,,,,,,2,,,57,49
50700,note_on,0,0,1,,,,,,,,,0,,,85,62
50700,note_on,54,0,1,,,,,,,,,0,,,73,62
50700,note_on,60,0,3,,,,,,,,,2,,,45,0
50706,note_on,0,0,1,,,,,,,,,0,,,73,0
50706,note_on,6,0,1,,,,,,,,,0,,,85,0
50760,note_on,0,0,1,,,,,,,,,0,,,85,62
50760,note_on,0,0,3,,,,,,,,,2,,,45,49
50760,note_on,0,0,3,,,,,,,,,2,,,57,0
50760,note_on,0,0,3,,,,,,,,,2,,,61,0
50760,note_on,60,0,3,,,,,,,,,2,,,64,0
50760,note_on,54,0,1,,,,,,,,,0,,,73,62
50820,note_on,0,0,3,,,,,,,,,2,,,66,49
50820,control_change,0,0,3,,,,,,,,,2,64,0,,
50820,note_on,0,0,3,,,,,,,,,2,,,57,49
50820,note_on,0,0,3,,,,,,,,,2,,,59,49
50820,note_on,60,0,3,,,,,,,,,2,,,45,0
50820,note_on,60,0,1,,,,,,,,,0,,,85,0
50820,note_on,0,0,1,,,,,,,,,0,,,73,0
50820,note_on,0,0,1,,,,,,,,,0,,,75,62
50820,note_on,0,0,1,,,,,,,,,0,,,87,62
50865,note_on,0,0,1,,,,,,,,,0,,,75,0
50865,note_on,0,0,1,,,,,,,,,0,,,76,62
50865,note_on,0,0,1,,,,,,,,,0,,,88,62
50865,control_change,0,0,1,,,,,,,,,0,64,0,,
50865,note_on,45,0,1,,,,,,,,,0,,,87,0
50880,note_on,0,0,1,,,,,,,,,0,,,76,0
50880,note_on,15,0,1,,,,,,,,,0,,,88,0
50880,note_on,0,0,3,,,,,,,,,2,,,44,49
50880,control_change,0,0,3,,,,,,,,,2,64,127,,
50880,note_on,60,0,3,,,,,,,,,2,,,66,0
50880,note_on,0,0,3,,,,,,,,,2,,,57,0
50880,note_on,0,0,3,,,,,,,,,2,,,59,0
50880,note_on,0,0,1,,,,,,,,,0,,,88,62
50880,note_on,0,0,1,,,,,,,,,0,,,76,62
50940,note_on,60,0,3,,,,,,,,,2,,,44,0
50940,note_on,0,0,3,,,,,,,,,2,,,56,49
50940,note_on,0,0,3,,,,,,,,,2,,,59,49
50940,note_on,0,0,3,,,,,,,,,2,,,64,49
51000,note_on,0,0,1,,,,,,,,,0,,,80,80
51000,note_on,0,0,1,,,,,,,,,0,,,76,0
51000,note_on,0,0,3,,,,,,,,,2,,,56,0
51000,note_on,0,0,3,,,,,,,,,2,,,40,49
51000,note_on,120,0,1,,,,,,,,,0,,,88,0
51000,note_on,0,0,1,,,,,,,,,0,,,92,88
51000,note_on,0,0,3,,,,,,,,,2,,,59,0
51000,note_on,60,0,3,,,,,,,,,2,,,64,0
51060,note_on,60,0,3,,,,,,,,,2,,,40,0
51060,control_change,0,0,3,,,,,,,,,2,64,0,,
51060,note_on,0,0,3,,,,,,,,,2,,,56,49
51060,note_on,0,0,3,,,,,,,,,2,,,59,49
51060,note_on,0,0,3,,,,,,,,,2,,,64,49
51120,note_on,60,0,3,,,,,,,,,2,,,64,0
51120,note_on,0,0,3,,,,,,,,,2,,,59,0
51120,note_on,0,0,3,,,,,,,,,2,,,56,0
51120,control_change,0,0,3,,,,,,,,,2,64,127,,
51120,note_on,0,0,3,,,,,,,,,2,,,47,49
51120,note_on,120,0,1,,,,,,,,,0,,,92,0
51120,note_on,0,0,1,,,,,,,,,0,,,83,62
51120,note_on,7140,0,2,,,,,,,,,1,,,71,49
51120,note_on,0,0,1,,,,,,,,,0,,,80,0
51120,control_change,0,0,1,,,,,,,,,0,64,127,,
51180,note_on,0,0,3,,,,,,,,,2,,,64,49
51180,note_on,0,0,3,,,,,,,,,2,,,59,49
51180,note_on,60,0,3,,,,,,,,,2,,,47,0
51180,note_on,60,0,1,,,,,,,,,0,,,83,0
51180,note_on,0,0,1,,,,,,,,,0,,,81,62
51225,note_on,0,0,1,,,,,,,,,0,,,80,62
51225,note_on,45,0,1,,,,,,,,,0,,,81,0
51240,note_on,0,0,1,,,,,,,,,0,,,80,62
51240,control_change,0,0,1,,,,,,,,,0,64,0,,
51240,note_on,15,0,1,,,,,,,,,0,,,80,0
51240,note_on,0,0,3,,,,,,,,,2,,,59,0
51240,note_on,60,0,3,,,,,,,,,2,,,64,0
51240,note_on,0,0,3,,,,,,,,,2,,,47,49
51240,control_change,0,0,3,,,,,,,,,2,64,0,,
51300,note_on,180,0,2,,,,,,,,,1,,,71,0
51300,note_on,0,0,2,,,,,,,,,1,,,69,49
51300,note_on,60,0,3,,,,,,,,,2,,,47,0
51300,note_on,0,0,3,,,,,,,,,2,,,63,49
51300,note_on,0,0,1,,,,,,,,,0,,,78,62
51300,note_on,60,0,1,,,,,,,,,0,,,80,0
51300,note_on,0,0,3,,,,,,,,,2,,,59,49
51345,note_on,0,0,1,,,,,,,,,0,,,76,62
51345,note_on,45,0,1,,,,,,,,,0,,,78,0
51345,note_on,0,0,2,,,,,,,,,1,,,68,49
51345,note_on,45,0,2,,,,,,,,,1,,,69,0
51360,note_on,0,0,3,,,,,,,,,2,,,40,49
51360,note_on,15,0,2,,,,,,,,,1,,,68,0
51360,note_on,0,0,2,,,,,,,,,1,,,68,49
51360,note_on,0,0,3,,,,,,,,,2,,,59,0
51360,control_change,0,0,3,,,,,,,,,2,64,127,,
51360,note_on,0,0,1,,,,,,,,,0,,,76,62
51360,note_on,15,0,1,,,,,,,,,0,,,76,0
51360,note_on,60,0,3,,,,,,,,,2,,,63,0
51420,note_on,60,0,3,,,,,,,,,2,,,40,0
51420,note_on,0,0,3,,,,,,,,,2,,,59,49
51480,note_on,120,0,2,,,,,,,,,1,,,68,0
51480,note_on,120,0,1,,,,,,,,,0,,,76,0
51480,note_on,60,0,3,,,,,,,,,2,,,59,0
51480,note_on,0,0,3,,,,,,,,,2,,,56,49
51540,note_on,0,0,3,,,,,,,,,2,,,52,49
51540,note_on,60,0,3,,,,,,,,,2,,,56,0
51540,control_change,0,0,3,,,,,,,,,2,64,0,,
51600,note_on,0,0,3,,,,,,,,,2,,,33,36
51600,control_change,0,0,3,,,,,,,,,2,64,127,,
51600,control_change,120,0,1,,,,,,,,,0,64,127,,
51600,note_on,0,0,1,,,,,,,,,0,,,73,49
51600,note_on,0,0,1,,,,,,,,,0,,,61,49
51600,note_on,60,0,3,,,,,,,,,2,,,52,0
51606,note_on,0,0,1,,,,,,,,,0,,,61,0
51606,note_on,6,0,1,,,,,,,,,0,,,73,0
51660,note_on,60,0,3,,,,,,,,,2,,,33,0
51660,note_on,0,0,3,,,,,,,,,2,,,52,36
51660,note_on,0,0,3,,,,,,,,,2,,,45,36
51660,note_on,0,0,1,,,,,,,,,0,,,73,49
51660,note_on,54,0,1,,,,,,,,,0,,,61,49
51666,note_on,0,0,1,,,,,,,,,0,,,61,0
51666,note_on,6,0,1,,,,,,,,,0,,,73,0
51720,note_on,0,0,3,,,,,,,,,2,,,45,0
51720,note_on,60,0,3,,,,,,,,,2,,,52,0
51720,note_on,54,0,1,,,,,,,,,0,,,61,49
51720,note_on,0,0,1,,,,,,,,,0,,,73,49
51720,note_on,0,0,3,,,,,,,,,2,,,33,36
51780,note_on,0,0,3,,,,,,,,,2,,,54,36
51780,control_change,0,0,3,,,,,,,,,2,64,0,,
51780,note_on,60,0,3,,,,,,,,,2,,,33,0
51780,note_on,60,0,1,,,,,,,,,0,,,73,0
51780,note_on,0,0,1,,,,,,,,,0,,,61,0
51780,note_on,0,0,1,,,,,,,,,0,,,63,49
51780,note_on,0,0,1,,,,,,,,,0,,,75,49
51780,note_on,0,0,3,,,,,,,,,2,,,47,36
51780,note_on,0,0,3,,,,,,,,,2,,,45,36
51825,note_on,0,0,1,,,,,,,,,0,,,63,0
51825,control_change,0,0,1,,,,,,,,,0,64,0,,
51825,note_on,45,0,1,,,,,,,,,0,,,75,0
51825,note_on,0,0,1,,,,,,,,,0,,,64,49
51825,note_on,0,0,1,,,,,,,,,0,,,76,49
51840,note_on,0,0,1,,,,,,,,,0,,,76,49
51840,note_on,0,0,1,,,,,,,,,0,,,64,49
51840,note_on,0,0,1,,,,,,,,,0,,,64,0
51840,note_on,15,0,1,,,,,,,,,0,,,76,0
51840,note_on,0,0,3,,,,,,,,,2,,,47,0
51840,note_on,0,0,3,,,,,,,,,2,,,45,0
51840,control_change,0,0,3,,,,,,,,,2,64,127,,
51840,note_on,0,0,3,,,,,,,,,2,,,32,36
51840,note_on,60,0,3,,,,,,,,,2,,,54,0
51900,note_on,60,0,3,,,,,,,,,2,,,32,0
51900,note_on,0,0,3,,,,,,,,,2,,,56,36
51900,note_on,0,0,3,,,,,,,,,2,,,59,36
51960,note_on,0,0,1,,,,,,,,,0,,,64,0
51960,note_on,120,0,1,,,,,,,,,0,,,76,0
51960,note_on,0,0,1,,,,,,,,,0,,,68,67
51960,note_on,60,0,3,,,,,,,,,2,,,59,0
51960,note_on,0,0,1,,,,,,,,,0,,,80,75
51960,note_on,0,0,3,,,,,,,,,2,,,56,0
51960,note_on,0,0,3,,,,,,,,,2,,,40,36
52020,note_on,60,0,3,,,,,,,,,2,,,40,0
52020,note_on,0,0,3,,,,,,,,,2,,,52,36
52020,control_change,0,0,3,,,,,,,,,2,64,0,,
52020,note_on,0,0,3,,,,,,,,,2,,,56,36
52080,note_on,600,0,2,,,,,,,,,1,,,59,36
52080,note_on,120,0,1,,,,,,,,,0,,,80,0
52080,note_on,0,0,1,,,,,,,,,0,,,68,0
52080,note_on,0,0,1,,,,,,,,,0,,,71,49
52080,control_change,0,0,1,,,,,,,,,0,64,127,,
52080,note_on,60,0,3,,,,,,,,,2,,,56,0
52080,note_on,0,0,3,,,,,,,,,2,,,52,0
52080,note_on,0,0,3,,,,,,,,,2,,,35,36
52080,control_change,0,0,3,,,,,,,,,2,64,127,,
52140,note_on,60,0,1,,,,,,,,,0,,,71,0
52140,note_on,0,0,3,,,,,,,,,2,,,52,36
52140,note_on,0,0,3,,,,,,,,,2,,,47,36
52140,note_on,60,0,3,,,,,,,,,2,,,35,0
52140,note_on,0,0,1,,,,,,,,,0,,,69,49
52185,note_on,0,0,1,,,,,,,,,0,,,68,49
52185,note_on,45,0,1,,,,,,,,,0,,,69,0
52200,note_on,0,0,1,,,,,,,,,0,,,68,49
52200,note_on,60,0,3,,,,,,,,,2,,,52,0
52200,note_on,15,0,1,,,,,,,,,0,,,68,0
52200,note_on,0,0,3,,,,,,,,,2,,,47,0
52200,note_on,0,0,3,,,,,,,,,2,,,35,36
52260,note_on,60,0,3,,,,,,,,,2,,,35,0
52260,control_change,0,0,3,,,,,,,,,2,64,0,,
52260,note_on,0,0,3,,,,,,,,,2,,,47,36
52260,note_on,0,0,3,,,,,,,,,2,,,51,36
52260,note_on,180,0,2,,,,,,,,,1,,,59,0
52260,note_on,0,0,2,,,,,,,,,1,,,57,36
52260,note_on,0,0,1,,,,,,,,,0,,,66,49
52260,control_change,0,0,1,,,,,,,,,0,64,0,,
52260,note_on,60,0,1,,,,,,,,,0,,,68,0
52305,note_on,0,0,2,,,,,,,,,1,,,56,36
52305,note_on,45,0,1,,,,,,,,,0,,,66,0
52305,note_on,0,0,1,,,,,,,,,0,,,64,49
52305,note_on,45,0,2,,,,,,,,,1,,,57,0
52320,note_on,15,0,1,,,,,,,,,0,,,64,0
52320,note_on,0,0,1,,,,,,,,,0,,,64,49
52320,note_on,0,0,2,,,,,,,,,1,,,56,36
52320,note_on,60,0,3,,,,,,,,,2,,,51,0
52320,note_on,0,0,3,,,,,,,,,2,,,47,0
52320,note_on,15,0,2,,,,,,,,,1,,,56,0
52320,control_change,0,0,3,,,,,,,,,2,64,127,,
52320,note_on,0,0,3,,,,,,,,,2,,,40,36
52326,note_on,6,0,3,,,,,,,,,2,,,40,0
52380,note_on,54,0,3,,,,,,,,,2,,,47,36
52440,note_on,60,0,3,,,,,,,,,2,,,47,0
52440,note_on,0,0,3,,,,,,,,,2,,,44,36
52440,note_on,120,0,1,,,,,,,,,0,,,64,0
52440,note_on,120,0,2,,,,,,,,,1,,,56,0
52500,note_on,60,0,3,,,,,,,,,2,,,44,0
52500,note_on,0,0,3,,,,,,,,,2,,,40,36
52500,control_change,0,0,3,,,,,,,,,2,64,0,,
52560,note_on,0,0,1,,,,,,,,,0,,,71,49
52560,note_on,60,0,3,,,,,,,,,2,,,40,0
52560,control_change,0,0,3,,,,,,,,,2,64,127,,
52560,note_on,0,0,3,,,,,,,,,2,,,35,36
52560,control_change,120,0,1,,,,,,,,,0,64,127,,
52560,note_on,120,0,2,,,,,,,,,1,,,59,36
52620,note_on,0,0,3,,,,,,,,,2,,,52,36
52620,note_on,0,0,1,,,,,,,,,0,,,69,49
52620,note_on,60,0,1,,,,,,,,,0,,,71,0
52620,note_on,60,0,3,,,,,,,,,2,,,35,0
52620,note_on,0,0,3,,,,,,,,,2,,,47,36
52620,set_tempo,6780,1,0,,,,,,869565,,,,,,,
52665,note_on,45,0,1,,,,,,,,,0,,,69,0
52665,note_on,0,0,1,,,,,,,,,0,,,68,49
52680,note_on,0,0,3,,,,,,,,,2,,,47,0
52680,note_on,15,0,1,,,,,,,,,0,,,68,0
52680,note_on,60,0,3,,,,,,,,,2,,,52,0
52680,set_tempo,60,1,0,,,,,,909091,,,,,,,
52680,note_on,0,0,3,,,,,,,,,2,,,35,36
52680,note_on,0,0,1,,,,,,,,,0,,,68,49
52740,note_on,60,0,3,,,,,,,,,2,,,35,0
52740,control_change,0,0,3,,,,,,,,,2,64,0,,
52740,note_on,0,0,3,,,,,,,,,2,,,47,36
52740,note_on,0,0,3,,,,,,,,,2,,,51,36
52740,set_tempo,60,1,0,,,,,,952381,,,,,,,
52740,note_on,60,0,1,,,,,,,,,0,,,68,0
52740,control_change,0,0,1,,,,,,,,,0,64,0,,
52740,note_on,0,0,1,,,,,,,,,0,,,66,49
52740,note_on,0,0,2,,,,,,,,,1,,,57,36
52740,note_on,180,0,2,,,,,,,,,1,,,59,0
52785,note_on,0,0,2,,,,,,,,,1,,,56,36
52785,note_on,45,0,2,,,,,,,,,1,,,57,0
52785,note_on,0,0,1,,,,,,,,,0,,,64,49
52785,note_on,45,0,1,,,,,,,,,0,,,66,0
52800,set_tempo,60,1,0,,,,,,1016949,,,,,,,
52800,note_on,15,0,1,,,,,,,,,0,,,64,0
52800,note_on,0,0,2,,,,,,,,,1,,,56,36
52800,note_on,15,0,2,,,,,,,,,1,,,56,0
52800,note_on,0,0,1,,,,,,,,,0,,,64,49
52800,note_on,60,0,3,,,,,,,,,2,,,51,0
52800,note_on,0,0,3,,,,,,,,,2,,,47,0
52800,control_change,0,0,3,,,,,,,,,2,64,127,,
52800,note_on,0,0,3,,,,,,,,,2,,,40,36
52806,note_on,6,0,3,,,,,,,,,2,,,40,0
52860,set_tempo,60,1,0,,,,,,1071429,,,,,,,
52860,note_on,54,0,3,,,,,,,,,2,,,47,36
52920,note_on,120,0,2,,,,,,,,,1,,,56,0
52920,note_on,120,0,1,,,,,,,,,0,,,64,0
52920,note_on,60,0,3,,,,,,,,,2,,,47,0
52920,note_on,0,0,3,,,,,,,,,2,,,44,36
52920,set_tempo,60,1,0,,,,,,1132075,,,,,,,
52980,set_tempo,60,1,0,,,,,,1200000,,,,,,,
52980,note_on,0,0,3,,,,,,,,,2,,,40,36
52980,control_change,0,0,3,,,,,,,,,2,64,0,,
52980,note_on,60,0,3,,,,,,,,,2,,,44,0
53040,end_of_track,0,1,0,,,,,,,,,,,,,
53040,note_on,0,0,3,,,,,,,,,2,,,35,36
53040,control_change,120,0,1,,,,,,,,,0,64,127,,
53040,control_change,0,0,3,,,,,,,,,2,64,127,,
53040,note_on,0,0,1,,,,,,,,,0,,,71,36
53040,set_tempo,60,1,0,,,,,,1304348,,,,,,,
53040,note_on,120,0,2,,,,,,,,,1,,,59,36
53040,note_on,60,0,3,,,,,,,,,2,,,40,0
53100,note_on,60,0,1,,,,,,,,,0,,,71,0
53100,note_on,0,0,3,,,,,,,,,2,,,52,36
53100,note_on,0,0,3,,,,,,,,,2,,,47,36
53100,note_on,60,0,3,,,,,,,,,2,,,35,0
53100,note_on,0,0,1,,,,,,,,,0,,,69,36
53145,note_on,45,0,1,,,,,,,,,0,,,69,0
53145,note_on,0,0,1,,,,,,,,,0,,,68,36
53160,note_on,0,0,1,,,,,,,,,0,,,68,36
53160,note_on,15,0,1,,,,,,,,,0,,,68,0
53160,note_on,0,0,3,,,,,,,,,2,,,35,36
53160,note_on,0,0,3,,,,,,,,,2,,,47,0
53160,note_on,60,0,3,,,,,,,,,2,,,52,0
53220,note_on,60,0,1,,,,,,,,,0,,,68,0
53220,note_on,180,0,2,,,,,,,,,1,,,59,0
53220,control_change,0,0,1,,,,,,,,,0,64,0,,
53220,note_on,0,0,1,,,,,,,,,0,,,66,36
53220,note_on,0,0,2,,,,,,,,,1,,,57,36
53220,control_change,0,0,3,,,,,,,,,2,64,0,,
53220,note_on,0,0,3,,,,,,,,,2,,,47,36
53220,note_on,0,0,3,,,,,,,,,2,,,51,36
53220,note_on,60,0,3,,,,,,,,,2,,,35,0
53265,note_on,45,0,2,,,,,,,,,1,,,57,0
53265,note_on,0,0,2,,,,,,,,,1,,,56,36
53265,note_on,45,0,1,,,,,,,,,0,,,66,0
53265,note_on,0,0,1,,,,,,,,,0,,,64,36
53280,note_on,0,0,1,,,,,,,,,0,,,64,36
53280,control_change,0,0,1,,,,,,,,,0,64,127,,
53280,note_on,15,0,1,,,,,,,,,0,,,64,0
53280,note_on,60,0,3,,,,,,,,,2,,,51,0
53280,note_on,0,0,3,,,,,,,,,2,,,47,0
53280,control_change,0,0,3,,,,,,,,,2,64,127,,
53280,note_on,0,0,3,,,,,,,,,2,,,40,36
53280,note_on,0,0,2,,,,,,,,,1,,,56,36
53280,note_on,15,0,2,,,,,,,,,1,,,56,0
53286,note_on,6,0,3,,,,,,,,,2,,,40,0
53340,note_on,54,0,3,,,,,,,,,2,,,47,36
53400,note_on,120,0,1,,,,,,,,,0,,,64,0
53400,note_on,120,0,2,,,,,,,,,1,,,56,0
53400,note_on,0,0,3,,,,,,,,,2,,,44,36
53400,note_on,60,0,3,,,,,,,,,2,,,47,0
53460,note_on,0,0,3,,,,,,,,,2,,,40,36
53460,note_on,60,0,3,,,,,,,,,2,,,44,0
53520,note_on,60,0,3,,,,,,,,,2,,,40,0
53520,note_on,0,0,1,,,,,,,,,0,,,64,36
53520,note_on,0,0,3,,,,,,,,,2,,,40,36
53520,note_on,0,0,3,,,,,,,,,2,,,47,36
53520,note_on,0,0,3,,,,,,,,,2,,,52,36
53520,note_on,120,0,1,,,,,,,,,0,,,56,36
53532,note_on,12,0,3,,,,,,,,,2,,,52,0
53532,note_on,0,0,1,,,,,,,,,0,,,56,0
53532,note_on,0,0,3,,,,,,,,,2,,,47,0
53532,note_on,0,0,3,,,,,,,,,2,,,40,0
53532,note_on,12,0,1,,,,,,,,,0,,,64,0
53640,note_on,108,0,1,,,,,,,,,0,,,56,36
53640,note_on,0,0,1,,,,,,,,,0,,,64,36
53640,note_on,108,0,3,,,,,,,,,2,,,40,36
53640,note_on,0,0,3,,,,,,,,,2,,,47,36
53640,note_on,0,0,3,,,,,,,,,2,,,52,36
53652,note_on,12,0,3,,,,,,,,,2,,,52,0
53652,note_on,0,0,1,,,,,,,,,0,,,56,0
53652,note_on,12,0,1,,,,,,,,,0,,,64,0
53652,note_on,0,0,3,,,,,,,,,2,,,47,0
53652,note_on,0,0,3,,,,,,,,,2,,,40,0
53760,note_on,0,0,1,,,,,,,,,0,,,64,36
53760,note_on,108,0,1,,,,,,,,,0,,,56,36
53760,note_on,0,0,3,,,,,,,,,2,,,52,36
53760,note_on,0,0,3,,,,,,,,,2,,,47,36
53760,note_on,108,0,3,,,,,,,,,2,,,40,36
53772,note_on,0,0,3,,,,,,,,,2,,,40,0
53772,note_on,0,0,1,,,,,,,,,0,,,56,0
53772,note_on,12,0,1,,,,,,,,,0,,,64,0
53772,note_on,0,0,3,,,,,,,,,2,,,47,0
53772,note_on,12,0,3,,,,,,,,,2,,,52,0
53880,control_change,108,0,1,,,,,,,,,0,64,0,,
53880,control_change,108,0,3,,,,,,,,,2,64,0,,
54240,control_change,360,0,1,,,,,,,,,0,64,0,,
54240,control_change,840,0,2,,,,,,,,,1,64,0,,
54240,end_of_track,0,1,2,,,,,,,,,,,,,
54240,end_of_track,0,1,3,,,,,,,,,,,,,
54240,control_change,360,0,3,,,,,,,,,2,64,0,,
54240,control_change,4560,0,4,,,,,,,,,3,64,0,,
54240,end_of_track,0,1,1,,,,,,,,,,,,,
54240,end_of_track,0,1,4,,,,,,,,,,,,,
