tick,type,time,meta,track,frame_rate,hours,minutes,seconds,frames,sub_frames,numerator,denominator,clocks_per_click,notated_32nd_notes_per_beat,key,tempo,port,program,channel,control,value,note,velocity
0,track_name,0,1,0,,,,,,,,,,,,,,,,,,,
0,midi_port,0,1,3,,,,,,,,,,,,,0,,,,,,
0,note_on,0,0,2,,,,,,,,,,,,,,,0,,,62,45
0,note_on,0,0,2,,,,,,,,,,,,,,,0,,,58,37
0,control_change,0,0,2,,,,,,,,,,,,,,,0,64,127,,
0,control_change,0,0,2,,,,,,,,,,,,,,,0,7,100,,
0,program_change,0,0,2,,,,,,,,,,,,,,1,0,,,,
0,track_name,0,1,3,,,,,,,,,,,,,,,,,,,
0,track_name,0,1,2,,,,,,,,,,,,,,,,,,,
0,midi_port,0,1,10,,,,,,,,,,,,,0,,,,,,
0,text,0,1,1,,,,,,,,,,,,,,,,,,,
0,note_on,0,0,1,,,,,,,,,,,,,,,0,,,82,64
0,control_change,0,0,1,,,,,,,,,,,,,,,0,91,127,,
0,control_change,0,0,1,,,,,,,,,,,,,,,0,7,100,,
0,program_change,0,0,1,,,,,,,,,,,,,,1,0,,,,
0,midi_port,0,1,2,,,,,,,,,,,,,0,,,,,,
0,track_name,0,1,1,,,,,,,,,,,,,,,,,,,
0,end_of_track,0,1,3,,,,,,,,,,,,,,,,,,,
0,track_name,0,1,4,,,,,,,,,,,,,,,,,,,
0,end_of_track,0,1,9,,,,,,,,,,,,,,,,,,,
0,midi_port,0,1,9,,,,,,,,,,,,,0,,,,,,
0,end_of_track,0,1,8,,,,,,,,,,,,,,,,,,,
0,midi_port,0,1,8,,,,,,,,,,,,,0,,,,,,
0,end_of_track,0,1,7,,,,,,,,,,,,,,,,,,,
0,track_name,0,1,7,,,,,,,,,,,,,,,,,,,
0,midi_port,0,1,4,,,,,,,,,,,,,0,,,,,,
0,midi_port,0,1,7,,,,,,,,,,,,,0,,,,,,
0,track_name,0,1,6,,,,,,,,,,,,,,,,,,,
0,midi_port,0,1,6,,,,,,,,,,,,,0,,,,,,
0,end_of_track,0,1,5,,,,,,,,,,,,,,,,,,,
0,track_name,0,1,5,,,,,,,,,,,,,,,,,,,
0,midi_port,0,1,5,,,,,,,,,,,,,0,,,,,,
0,end_of_track,0,1,4,,,,,,,,,,,,,,,,,,,
0,end_of_track,0,1,6,,,,,,,,,,,,,,,,,,,
0,midi_port,0,1,1,,,,,,,,,,,,,0,,,,,,
0,end_of_track,0,1,10,,,,,,,,,,,,,,,,,,,
0,text,0,1,0,,,,,,,,,,,,,,,,,,,
0,copyright,0,1,0,,,,,,,,,,,,,,,,,,,
0,text,0,1,0,,,,,,,,,,,,,,,,,,,
0,set_tempo,0,1,0,,,,,,,,,,,,461787,,,,,,,
0,text,0,1,0,,,,,,,,,,,,,,,,,,,
0,key_signature,0,1,0,,,,,,,,,,,Bb,,,,,,,,
0,time_signature,0,1,0,,,,,,,3,8,12,8,,,,,,,,,
0,smpte_offset,0,1,0,25,32,0,3,0,0,,,,,,,,,,,,,
0,text,0,1,0,,,,,,,,,,,,,,,,,,,
0,text,0,1,0,,,,,,,,,,,,,,,,,,,
120,note_on,0,0,2,,,,,,,,,,,,,,,0,,,65,30
120,note_on,120,0,2,,,,,,,,,,,,,,,0,,,62,0
120,note_on,0,0,2,,,,,,,,,,,,,,,0,,,58,0
240,control_change,0,0,2,,,,,,,,,,,,,,,0,64,0,,
240,note_on,240,0,1,,,,,,,,,,,,,,,0,,,82,0
240,note_on,0,0,2,,,,,,,,,,,,,,,0,,,58,29
240,note_on,120,0,2,,,,,,,,,,,,,,,0,,,65,0
240,note_on,0,0,1,,,,,,,,,,,,,,,0,,,81,56
240,note_on,0,0,2,,,,,,,,,,,,,,,0,,,62,35
282,control_change,42,0,2,,,,,,,,,,,,,,,0,64,127,,
360,note_on,0,0,2,,,,,,,,,,,,,,,0,,,65,29
360,note_on,0,0,2,,,,,,,,,,,,,,,0,,,58,0
360,note_on,78,0,2,,,,,,,,,,,,,,,0,,,62,0
473,control_change,113,0,2,,,,,,,,,,,,,,,0,64,0,,
480,note_on,240,0,1,,,,,,,,,,,,,,,0,,,81,0
480,note_on,7,0,2,,,,,,,,,,,,,,,0,,,65,0
480,note_on,0,0,2,,,,,,,,,,,,,,,0,,,62,35
480,note_on,0,0,2,,,,,,,,,,,,,,,0,,,58,29
480,note_on,0,0,1,,,,,,,,,,,,,,,0,,,82,56
515,control_change,35,0,2,,,,,,,,,,,,,,,0,64,127,,
600,note_on,85,0,2,,,,,,,,,,,,,,,0,,,58,0
600,note_on,0,0,2,,,,,,,,,,,,,,,0,,,62,0
600,note_on,0,0,2,,,,,,,,,,,,,,,0,,,65,30
720,note_on,120,0,2,,,,,,,,,,,,,,,0,,,65,0
720,set_tempo,720,1,0,,,,,,,,,,,,456274,,,,,,,
720,note_on,0,0,2,,,,,,,,,,,,,,,0,,,63,40
720,note_on,0,0,2,,,,,,,,,,,,,,,0,,,58,34
720,note_on,240,0,1,,,,,,,,,,,,,,,0,,,82,0
720,note_on,0,0,1,,,,,,,,,,,,,,,0,,,79,60
727,control_change,7,0,2,,,,,,,,,,,,,,,0,64,0,,
769,control_change,42,0,2,,,,,,,,,,,,,,,0,64,127,,
840,note_on,71,0,2,,,,,,,,,,,,,,,0,,,58,0
840,note_on,0,0,2,,,,,,,,,,,,,,,0,,,63,0
840,note_on,0,0,2,,,,,,,,,,,,,,,0,,,67,30
960,note_on,0,0,2,,,,,,,,,,,,,,,0,,,63,35
960,note_on,0,0,1,,,,,,,,,,,,,,,0,,,81,55
960,note_on,240,0,1,,,,,,,,,,,,,,,0,,,79,0
960,set_tempo,240,1,0,,,,,,,,,,,,452625,,,,,,,
960,note_on,120,0,2,,,,,,,,,,,,,,,0,,,67,0
960,note_on,0,0,2,,,,,,,,,,,,,,,0,,,58,29
974,control_change,14,0,2,,,,,,,,,,,,,,,0,64,0,,
1009,control_change,35,0,2,,,,,,,,,,,,,,,0,64,127,,
1080,note_on,120,0,1,,,,,,,,,,,,,,,0,,,81,0
1080,note_on,0,0,2,,,,,,,,,,,,,,,0,,,63,0
1080,note_on,0,0,2,,,,,,,,,,,,,,,0,,,67,29
1080,note_on,71,0,2,,,,,,,,,,,,,,,0,,,58,0
1080,note_on,0,0,1,,,,,,,,,,,,,,,0,,,82,56
1200,note_on,0,0,1,,,,,,,,,,,,,,,0,,,84,58
1200,note_on,120,0,2,,,,,,,,,,,,,,,0,,,67,0
1200,note_on,0,0,2,,,,,,,,,,,,,,,0,,,58,29
1200,note_on,0,0,2,,,,,,,,,,,,,,,0,,,63,35
1200,note_on,120,0,1,,,,,,,,,,,,,,,0,,,82,0
1320,note_on,0,0,2,,,,,,,,,,,,,,,0,,,58,0
1320,note_on,0,0,2,,,,,,,,,,,,,,,0,,,67,29
1320,note_on,120,0,2,,,,,,,,,,,,,,,0,,,63,0
1320,note_on,120,0,1,,,,,,,,,,,,,,,0,,,84,0
1320,note_on,0,0,1,,,,,,,,,,,,,,,0,,,86,59
1440,note_on,120,0,2,,,,,,,,,,,,,,,0,,,67,0
1440,set_tempo,480,1,0,,,,,,,,,,,,458155,,,,,,,
1440,note_on,0,0,2,,,,,,,,,,,,,,,0,,,58,40
1440,note_on,0,0,2,,,,,,,,,,,,,,,0,,,62,48
1440,note_on,0,0,1,,,,,,,,,,,,,,,0,,,82,63
1440,note_on,120,0,1,,,,,,,,,,,,,,,0,,,86,0
1475,control_change,35,0,2,,,,,,,,,,,,,,,0,64,0,,
1489,control_change,14,0,2,,,,,,,,,,,,,,,0,64,127,,
1560,note_on,0,0,2,,,,,,,,,,,,,,,0,,,58,0
1560,note_on,71,0,2,,,,,,,,,,,,,,,0,,,62,0
1560,note_on,0,0,2,,,,,,,,,,,,,,,0,,,65,30
1680,note_on,0,0,1,,,,,,,,,,,,,,,0,,,84,64
1680,note_on,0,0,2,,,,,,,,,,,,,,,0,,,62,35
1680,note_on,120,0,2,,,,,,,,,,,,,,,0,,,65,0
1680,set_tempo,240,1,0,,,,,,,,,,,,452625,,,,,,,
1680,note_on,0,0,2,,,,,,,,,,,,,,,0,,,58,29
1680,note_on,240,0,1,,,,,,,,,,,,,,,0,,,82,0
1680,control_change,0,0,2,,,,,,,,,,,,,,,0,64,0,,
1729,control_change,49,0,2,,,,,,,,,,,,,,,0,64,127,,
1800,note_on,120,0,1,,,,,,,,,,,,,,,0,,,84,0
1800,note_on,0,0,1,,,,,,,,,,,,,,,0,,,82,56
1800,note_on,71,0,2,,,,,,,,,,,,,,,0,,,58,0
1800,note_on,0,0,2,,,,,,,,,,,,,,,0,,,62,0
1800,note_on,0,0,2,,,,,,,,,,,,,,,0,,,65,29
1920,note_on,120,0,2,,,,,,,,,,,,,,,0,,,65,0
1920,note_on,0,0,1,,,,,,,,,,,,,,,0,,,81,60
1920,note_on,0,0,2,,,,,,,,,,,,,,,0,,,62,35
1920,note_on,0,0,2,,,,,,,,,,,,,,,0,,,58,29
1920,note_on,120,0,1,,,,,,,,,,,,,,,0,,,82,0
2040,note_on,120,0,2,,,,,,,,,,,,,,,0,,,62,0
2040,note_on,120,0,1,,,,,,,,,,,,,,,0,,,81,0
2040,note_on,0,0,2,,,,,,,,,,,,,,,0,,,65,29
2040,note_on,0,0,2,,,,,,,,,,,,,,,0,,,58,0
2040,note_on,0,0,1,,,,,,,,,,,,,,,0,,,79,56
2160,note_on,120,0,1,,,,,,,,,,,,,,,0,,,79,0
2160,control_change,0,0,2,,,,,,,,,,,,,,,0,64,0,,
2160,note_on,0,0,2,,,,,,,,,,,,,,,0,,,63,41
2160,note_on,0,0,2,,,,,,,,,,,,,,,0,,,57,35
2160,note_on,0,0,1,,,,,,,,,,,,,,,0,,,77,66
2160,set_tempo,480,1,0,,,,,,,,,,,,463750,,,,,,,
2160,note_on,120,0,2,,,,,,,,,,,,,,,0,,,65,0
2220,note_on,60,0,1,,,,,,,,,,,,,,,0,,,77,0
2280,note_on,0,0,2,,,,,,,,,,,,,,,0,,,63,0
2280,note_on,0,0,2,,,,,,,,,,,,,,,0,,,65,30
2280,note_on,120,0,2,,,,,,,,,,,,,,,0,,,57,0
2400,note_on,0,0,2,,,,,,,,,,,,,,,0,,,63,35
2400,note_on,120,0,2,,,,,,,,,,,,,,,0,,,65,0
2400,note_on,180,0,1,,,,,,,,,,,,,,,0,,,77,60
2400,note_on,0,0,2,,,,,,,,,,,,,,,0,,,57,29
2460,note_on,60,0,1,,,,,,,,,,,,,,,0,,,77,0
2520,note_on,120,0,2,,,,,,,,,,,,,,,0,,,63,0
2520,note_on,0,0,2,,,,,,,,,,,,,,,0,,,57,0
2520,note_on,0,0,2,,,,,,,,,,,,,,,0,,,65,31
2640,note_on,120,0,2,,,,,,,,,,,,,,,0,,,65,0
2640,note_on,180,0,1,,,,,,,,,,,,,,,0,,,77,59
2640,set_tempo,480,1,0,,,,,,,,,,,,474608,,,,,,,
2640,note_on,0,0,2,,,,,,,,,,,,,,,0,,,63,35
2640,note_on,0,0,2,,,,,,,,,,,,,,,0,,,57,29
2700,note_on,60,0,1,,,,,,,,,,,,,,,0,,,77,0
2760,note_on,120,0,2,,,,,,,,,,,,,,,0,,,63,0
2760,note_on,0,0,2,,,,,,,,,,,,,,,0,,,57,0
2760,note_on,0,0,2,,,,,,,,,,,,,,,0,,,65,30
2880,note_on,120,0,2,,,,,,,,,,,,,,,0,,,65,0
2880,note_on,0,0,2,,,,,,,,,,,,,,,0,,,63,44
2880,note_on,0,0,2,,,,,,,,,,,,,,,0,,,57,37
2880,note_on,180,0,1,,,,,,,,,,,,,,,0,,,78,72
2880,set_tempo,240,1,0,,,,,,,,,,,,463679,,,,,,,
2949,control_change,69,0,2,,,,,,,,,,,,,,,0,64,127,,
3000,note_on,0,0,2,,,,,,,,,,,,,,,0,,,66,30
3000,note_on,51,0,2,,,,,,,,,,,,,,,0,,,57,0
3000,note_on,0,0,2,,,,,,,,,,,,,,,0,,,63,0
3120,note_on,0,0,2,,,,,,,,,,,,,,,0,,,57,29
3120,note_on,0,0,1,,,,,,,,,,,,,,,0,,,90,68
3120,note_on,240,0,1,,,,,,,,,,,,,,,0,,,78,0
3120,note_on,120,0,2,,,,,,,,,,,,,,,0,,,66,0
3120,note_on,0,0,2,,,,,,,,,,,,,,,0,,,63,35
3240,note_on,120,0,2,,,,,,,,,,,,,,,0,,,63,0
3240,note_on,0,0,2,,,,,,,,,,,,,,,0,,,57,0
3240,note_on,0,0,2,,,,,,,,,,,,,,,0,,,66,30
3356,control_change,116,0,2,,,,,,,,,,,,,,,0,64,0,,
3360,note_on,0,0,2,,,,,,,,,,,,,,,0,,,63,35
3360,note_on,240,0,1,,,,,,,,,,,,,,,0,,,90,0
3360,set_tempo,480,1,0,,,,,,,,,,,,472776,,,,,,,
3360,note_on,0,0,2,,,,,,,,,,,,,,,0,,,57,29
3360,note_on,4,0,2,,,,,,,,,,,,,,,0,,,66,0
3360,note_on,0,0,1,,,,,,,,,,,,,,,0,,,90,68
3420,note_on,60,0,1,,,,,,,,,,,,,,,0,,,90,0
3480,note_on,0,0,2,,,,,,,,,,,,,,,0,,,57,0
3480,note_on,120,0,2,,,,,,,,,,,,,,,0,,,63,0
3480,note_on,0,0,2,,,,,,,,,,,,,,,0,,,66,30
3600,note_on,120,0,2,,,,,,,,,,,,,,,0,,,66,0
3600,note_on,0,0,2,,,,,,,,,,,,,,,0,,,63,41
3600,note_on,0,0,2,,,,,,,,,,,,,,,0,,,58,35
3600,set_tempo,240,1,0,,,,,,,,,,,,463679,,,,,,,
3600,note_on,180,0,1,,,,,,,,,,,,,,,0,,,91,77
3720,note_on,120,0,2,,,,,,,,,,,,,,,0,,,63,0
3720,note_on,0,0,2,,,,,,,,,,,,,,,0,,,58,0
3720,note_on,0,0,2,,,,,,,,,,,,,,,0,,,67,30
3727,control_change,7,0,2,,,,,,,,,,,,,,,0,64,127,,
3840,note_on,113,0,2,,,,,,,,,,,,,,,0,,,67,0
3840,note_on,0,0,2,,,,,,,,,,,,,,,0,,,63,35
3840,note_on,0,0,2,,,,,,,,,,,,,,,0,,,58,29
3840,note_on,0,0,1,,,,,,,,,,,,,,,0,,,79,60
3840,note_on,240,0,1,,,,,,,,,,,,,,,0,,,91,0
3960,note_on,0,0,2,,,,,,,,,,,,,,,0,,,67,30
3960,note_on,120,0,2,,,,,,,,,,,,,,,0,,,58,0
3960,note_on,0,0,2,,,,,,,,,,,,,,,0,,,63,0
4052,control_change,92,0,2,,,,,,,,,,,,,,,0,64,0,,
4080,note_on,0,0,2,,,,,,,,,,,,,,,0,,,58,29
4080,note_on,28,0,2,,,,,,,,,,,,,,,0,,,67,0
4080,note_on,0,0,1,,,,,,,,,,,,,,,0,,,79,60
4080,note_on,240,0,1,,,,,,,,,,,,,,,0,,,79,0
4080,note_on,0,0,2,,,,,,,,,,,,,,,0,,,63,35
4140,note_on,60,0,1,,,,,,,,,,,,,,,0,,,79,0
4200,note_on,0,0,2,,,,,,,,,,,,,,,0,,,58,0
4200,note_on,120,0,2,,,,,,,,,,,,,,,0,,,63,0
4200,note_on,0,0,2,,,,,,,,,,,,,,,0,,,67,30
4320,note_on,0,0,2,,,,,,,,,,,,,,,0,,,63,41
4320,note_on,0,0,2,,,,,,,,,,,,,,,0,,,60,35
4320,note_on,180,0,1,,,,,,,,,,,,,,,0,,,81,63
4320,note_on,120,0,2,,,,,,,,,,,,,,,0,,,67,0
4380,note_on,60,0,1,,,,,,,,,,,,,,,0,,,81,0
4440,note_on,0,0,2,,,,,,,,,,,,,,,0,,,60,0
4440,note_on,120,0,2,,,,,,,,,,,,,,,0,,,63,0
4440,note_on,0,0,2,,,,,,,,,,,,,,,0,,,65,30
4530,note_on,150,0,1,,,,,,,,,,,,,,,0,,,94,55
4542,control_change,102,0,2,,,,,,,,,,,,,,,0,64,127,,
4560,note_on,0,0,1,,,,,,,,,,,,,,,0,,,93,62
4560,note_on,30,0,1,,,,,,,,,,,,,,,0,,,94,0
4560,set_tempo,960,1,0,,,,,,,,,,,,452625,,,,,,,
4560,note_on,18,0,2,,,,,,,,,,,,,,,0,,,65,0
4560,note_on,0,0,2,,,,,,,,,,,,,,,0,,,60,29
4560,note_on,0,0,2,,,,,,,,,,,,,,,0,,,63,35
4680,note_on,0,0,2,,,,,,,,,,,,,,,0,,,60,0
4680,note_on,0,0,1,,,,,,,,,,,,,,,0,,,91,60
4680,note_on,120,0,1,,,,,,,,,,,,,,,0,,,93,0
4680,note_on,120,0,2,,,,,,,,,,,,,,,0,,,63,0
4680,note_on,0,0,2,,,,,,,,,,,,,,,0,,,65,30
4800,note_on,0,0,1,,,,,,,,,,,,,,,0,,,93,62
4800,note_on,120,0,1,,,,,,,,,,,,,,,0,,,91,0
4800,note_on,120,0,2,,,,,,,,,,,,,,,0,,,65,0
4800,note_on,0,0,2,,,,,,,,,,,,,,,0,,,60,29
4800,note_on,0,0,2,,,,,,,,,,,,,,,0,,,63,35
4800,set_tempo,240,1,0,,,,,,,,,,,,458155,,,,,,,
4920,note_on,120,0,2,,,,,,,,,,,,,,,0,,,63,0
4920,note_on,0,0,2,,,,,,,,,,,,,,,0,,,60,0
4920,note_on,0,0,2,,,,,,,,,,,,,,,0,,,65,30
5040,note_on,240,0,1,,,,,,,,,,,,,,,0,,,93,0
5040,note_on,120,0,2,,,,,,,,,,,,,,,0,,,65,0
5040,note_on,0,0,2,,,,,,,,,,,,,,,0,,,58,35
5040,note_on,0,0,2,,,,,,,,,,,,,,,0,,,62,41
5040,control_change,0,0,2,,,,,,,,,,,,,,,0,64,0,,
5040,note_on,0,0,1,,,,,,,,,,,,,,,0,,,94,64
5100,note_on,60,0,1,,,,,,,,,,,,,,,0,,,94,0
5160,note_on,0,0,2,,,,,,,,,,,,,,,0,,,65,30
5160,note_on,0,0,2,,,,,,,,,,,,,,,0,,,58,0
5160,note_on,120,0,2,,,,,,,,,,,,,,,0,,,62,0
5245,control_change,85,0,2,,,,,,,,,,,,,,,0,64,127,,
5250,note_on,150,0,1,,,,,,,,,,,,,,,0,,,84,53
5280,note_on,0,0,2,,,,,,,,,,,,,,,0,,,58,29
5280,note_on,35,0,2,,,,,,,,,,,,,,,0,,,65,0
5280,note_on,30,0,1,,,,,,,,,,,,,,,0,,,84,0
5280,note_on,0,0,1,,,,,,,,,,,,,,,0,,,82,60
5280,set_tempo,480,1,0,,,,,,,,,,,,452625,,,,,,,
5280,note_on,0,0,2,,,,,,,,,,,,,,,0,,,62,35
5400,note_on,120,0,1,,,,,,,,,,,,,,,0,,,82,0
5400,note_on,0,0,1,,,,,,,,,,,,,,,0,,,81,56
5400,note_on,0,0,2,,,,,,,,,,,,,,,0,,,65,30
5400,note_on,120,0,2,,,,,,,,,,,,,,,0,,,62,0
5400,note_on,0,0,2,,,,,,,,,,,,,,,0,,,58,0
5520,note_on,120,0,1,,,,,,,,,,,,,,,0,,,81,0
5520,note_on,0,0,1,,,,,,,,,,,,,,,0,,,82,60
5520,note_on,0,0,2,,,,,,,,,,,,,,,0,,,62,35
5520,set_tempo,240,1,0,,,,,,,,,,,,484183,,,,,,,
5520,note_on,0,0,2,,,,,,,,,,,,,,,0,,,58,29
5520,note_on,120,0,2,,,,,,,,,,,,,,,0,,,65,0
5640,note_on,0,0,2,,,,,,,,,,,,,,,0,,,65,30
5640,note_on,0,0,2,,,,,,,,,,,,,,,0,,,58,0
5640,note_on,120,0,2,,,,,,,,,,,,,,,0,,,62,0
5640,note_on,120,0,1,,,,,,,,,,,,,,,0,,,82,0
5760,note_on,120,0,1,,,,,,,,,,,,,,,0,,,70,40
5760,note_on,0,0,1,,,,,,,,,,,,,,,0,,,74,48
5760,set_tempo,240,1,0,,,,,,,,,,,,465477,,,,,,,
5760,control_change,0,0,2,,,,,,,,,,,,,,,0,64,0,,
5760,note_on,120,0,2,,,,,,,,,,,,,,,0,,,65,0
5760,note_on,0,0,2,,,,,,,,,,,,,,,0,,,58,57
5880,note_on,120,0,1,,,,,,,,,,,,,,,0,,,74,0
5880,note_on,0,0,1,,,,,,,,,,,,,,,0,,,70,0
5880,note_on,0,0,1,,,,,,,,,,,,,,,0,,,77,42
6000,note_on,0,0,1,,,,,,,,,,,,,,,0,,,70,41
6000,note_on,240,0,2,,,,,,,,,,,,,,,0,,,58,0
6000,note_on,120,0,1,,,,,,,,,,,,,,,0,,,77,0
6000,note_on,0,0,2,,,,,,,,,,,,,,,0,,,57,48
6000,note_on,0,0,1,,,,,,,,,,,,,,,0,,,74,49
6120,note_on,120,0,1,,,,,,,,,,,,,,,0,,,74,0
6120,note_on,0,0,1,,,,,,,,,,,,,,,0,,,70,0
6120,note_on,0,0,1,,,,,,,,,,,,,,,0,,,77,41
6240,note_on,0,0,1,,,,,,,,,,,,,,,0,,,74,49
6240,note_on,0,0,2,,,,,,,,,,,,,,,0,,,58,48
6240,note_on,0,0,1,,,,,,,,,,,,,,,0,,,70,41
6240,note_on,120,0,1,,,,,,,,,,,,,,,0,,,77,0
6240,note_on,240,0,2,,,,,,,,,,,,,,,0,,,57,0
6360,note_on,0,0,1,,,,,,,,,,,,,,,0,,,77,42
6360,note_on,0,0,1,,,,,,,,,,,,,,,0,,,74,0
6360,note_on,120,0,1,,,,,,,,,,,,,,,0,,,70,0
6480,note_on,0,0,1,,,,,,,,,,,,,,,0,,,70,42
6480,note_on,240,0,2,,,,,,,,,,,,,,,0,,,58,0
6480,note_on,0,0,2,,,,,,,,,,,,,,,0,,,55,57
6480,set_tempo,720,1,0,,,,,,,,,,,,456274,,,,,,,
6480,note_on,0,0,1,,,,,,,,,,,,,,,0,,,74,50
6480,note_on,120,0,1,,,,,,,,,,,,,,,0,,,77,0
6600,note_on,0,0,1,,,,,,,,,,,,,,,0,,,79,42
6600,note_on,0,0,1,,,,,,,,,,,,,,,0,,,70,0
6600,note_on,120,0,1,,,,,,,,,,,,,,,0,,,74,0
6720,note_on,240,0,2,,,,,,,,,,,,,,,0,,,55,0
6720,set_tempo,240,1,0,,,,,,,,,,,,452625,,,,,,,
6720,note_on,0,0,1,,,,,,,,,,,,,,,0,,,70,41
6720,note_on,120,0,1,,,,,,,,,,,,,,,0,,,79,0
6720,note_on,0,0,1,,,,,,,,,,,,,,,0,,,74,49
6720,note_on,0,0,2,,,,,,,,,,,,,,,0,,,57,46
6840,note_on,0,0,1,,,,,,,,,,,,,,,0,,,79,41
6840,note_on,120,0,2,,,,,,,,,,,,,,,0,,,57,0
6840,note_on,0,0,2,,,,,,,,,,,,,,,0,,,58,46
6840,note_on,0,0,1,,,,,,,,,,,,,,,0,,,70,0
6840,note_on,120,0,1,,,,,,,,,,,,,,,0,,,74,0
6960,note_on,0,0,1,,,,,,,,,,,,,,,0,,,70,41
6960,note_on,0,0,1,,,,,,,,,,,,,,,0,,,74,49
6960,note_on,0,0,2,,,,,,,,,,,,,,,0,,,60,48
6960,note_on,120,0,2,,,,,,,,,,,,,,,0,,,58,0
6960,note_on,120,0,1,,,,,,,,,,,,,,,0,,,79,0
7080,note_on,120,0,1,,,,,,,,,,,,,,,0,,,74,0
7080,note_on,0,0,2,,,,,,,,,,,,,,,0,,,62,48
7080,note_on,120,0,2,,,,,,,,,,,,,,,0,,,60,0
7080,note_on,0,0,1,,,,,,,,,,,,,,,0,,,70,0
7080,note_on,0,0,1,,,,,,,,,,,,,,,0,,,79,41
7200,set_tempo,480,1,0,,,,,,,,,,,,458155,,,,,,,
7200,note_on,0,0,1,,,,,,,,,,,,,,,0,,,70,44
7200,note_on,0,0,1,,,,,,,,,,,,,,,0,,,74,52
7200,note_on,120,0,1,,,,,,,,,,,,,,,0,,,79,0
7200,note_on,120,0,2,,,,,,,,,,,,,,,0,,,62,0
7200,note_on,0,0,2,,,,,,,,,,,,,,,0,,,58,55
7320,note_on,0,0,1,,,,,,,,,,,,,,,0,,,77,42
7320,note_on,120,0,1,,,,,,,,,,,,,,,0,,,74,0
7320,note_on,0,0,1,,,,,,,,,,,,,,,0,,,70,0
7440,note_on,120,0,1,,,,,,,,,,,,,,,0,,,77,0
7440,note_on,0,0,1,,,,,,,,,,,,,,,0,,,70,41
7440,note_on,0,0,1,,,,,,,,,,,,,,,0,,,74,49
7440,note_on,0,0,2,,,,,,,,,,,,,,,0,,,60,52
7440,set_tempo,240,1,0,,,,,,,,,,,,452625,,,,,,,
7440,note_on,240,0,2,,,,,,,,,,,,,,,0,,,58,0
7560,note_on,0,0,2,,,,,,,,,,,,,,,0,,,58,48
7560,note_on,120,0,2,,,,,,,,,,,,,,,0,,,60,0
7560,note_on,0,0,1,,,,,,,,,,,,,,,0,,,77,41
7560,note_on,0,0,1,,,,,,,,,,,,,,,0,,,70,0
7560,note_on,120,0,1,,,,,,,,,,,,,,,0,,,74,0
7680,note_on,0,0,1,,,,,,,,,,,,,,,0,,,70,41
7680,note_on,0,0,1,,,,,,,,,,,,,,,0,,,74,49
7680,note_on,120,0,1,,,,,,,,,,,,,,,0,,,77,0
7680,note_on,120,0,2,,,,,,,,,,,,,,,0,,,58,0
7680,note_on,0,0,2,,,,,,,,,,,,,,,0,,,57,52
7800,note_on,120,0,2,,,,,,,,,,,,,,,0,,,57,0
7800,note_on,0,0,1,,,,,,,,,,,,,,,0,,,77,41
7800,note_on,0,0,2,,,,,,,,,,,,,,,0,,,55,48
7800,note_on,120,0,1,,,,,,,,,,,,,,,0,,,70,0
7800,note_on,0,0,1,,,,,,,,,,,,,,,0,,,74,0
7920,note_on,120,0,1,,,,,,,,,,,,,,,0,,,77,0
7920,note_on,0,0,1,,,,,,,,,,,,,,,0,,,75,56
7920,note_on,0,0,1,,,,,,,,,,,,,,,0,,,69,47
7920,note_on,0,0,2,,,,,,,,,,,,,,,0,,,53,56
7920,set_tempo,480,1,0,,,,,,,,,,,,463750,,,,,,,
7920,note_on,120,0,2,,,,,,,,,,,,,,,0,,,55,0
7980,note_on,60,0,2,,,,,,,,,,,,,,,0,,,53,0
8040,note_on,120,0,1,,,,,,,,,,,,,,,0,,,69,0
8040,note_on,0,0,1,,,,,,,,,,,,,,,0,,,75,0
8040,note_on,0,0,1,,,,,,,,,,,,,,,0,,,77,42
8160,note_on,120,0,1,,,,,,,,,,,,,,,0,,,77,0
8160,note_on,0,0,1,,,,,,,,,,,,,,,0,,,75,49
8160,note_on,0,0,1,,,,,,,,,,,,,,,0,,,69,41
8160,note_on,180,0,2,,,,,,,,,,,,,,,0,,,53,48
8220,note_on,60,0,2,,,,,,,,,,,,,,,0,,,53,0
8280,note_on,0,0,1,,,,,,,,,,,,,,,0,,,77,44
8280,note_on,0,0,1,,,,,,,,,,,,,,,0,,,75,0
8280,note_on,120,0,1,,,,,,,,,,,,,,,0,,,69,0
8400,note_on,0,0,1,,,,,,,,,,,,,,,0,,,75,49
8400,note_on,120,0,1,,,,,,,,,,,,,,,0,,,77,0
8400,set_tempo,480,1,0,,,,,,,,,,,,472776,,,,,,,
8400,note_on,0,0,1,,,,,,,,,,,,,,,0,,,69,41
8400,note_on,180,0,2,,,,,,,,,,,,,,,0,,,53,48
8460,note_on,60,0,2,,,,,,,,,,,,,,,0,,,53,0
8520,note_on,0,0,1,,,,,,,,,,,,,,,0,,,77,42
8520,note_on,120,0,1,,,,,,,,,,,,,,,0,,,69,0
8520,note_on,0,0,1,,,,,,,,,,,,,,,0,,,75,0
8640,note_on,0,0,1,,,,,,,,,,,,,,,0,,,75,53
8640,note_on,0,0,1,,,,,,,,,,,,,,,0,,,69,45
8640,note_on,120,0,1,,,,,,,,,,,,,,,0,,,77,0
8640,note_on,180,0,2,,,,,,,,,,,,,,,0,,,54,61
8640,set_tempo,240,1,0,,,,,,,,,,,,463679,,,,,,,
8760,note_on,120,0,1,,,,,,,,,,,,,,,0,,,75,0
8760,note_on,0,0,1,,,,,,,,,,,,,,,0,,,69,0
8760,note_on,0,0,1,,,,,,,,,,,,,,,0,,,81,42
8880,note_on,240,0,2,,,,,,,,,,,,,,,0,,,54,0
8880,note_on,0,0,2,,,,,,,,,,,,,,,0,,,66,46
8880,note_on,120,0,1,,,,,,,,,,,,,,,0,,,81,0
8880,note_on,0,0,1,,,,,,,,,,,,,,,0,,,69,41
8880,note_on,0,0,1,,,,,,,,,,,,,,,0,,,75,49
9000,note_on,0,0,1,,,,,,,,,,,,,,,0,,,69,0
9000,note_on,0,0,1,,,,,,,,,,,,,,,0,,,81,42
9000,note_on,120,0,1,,,,,,,,,,,,,,,0,,,75,0
9120,set_tempo,480,1,0,,,,,,,,,,,,474608,,,,,,,
9120,note_on,0,0,2,,,,,,,,,,,,,,,0,,,66,49
9120,note_on,120,0,1,,,,,,,,,,,,,,,0,,,81,0
9120,note_on,0,0,1,,,,,,,,,,,,,,,0,,,69,41
9120,note_on,0,0,1,,,,,,,,,,,,,,,0,,,75,49
9120,note_on,240,0,2,,,,,,,,,,,,,,,0,,,66,0
9180,note_on,60,0,2,,,,,,,,,,,,,,,0,,,66,0
9240,note_on,120,0,1,,,,,,,,,,,,,,,0,,,75,0
9240,note_on,0,0,1,,,,,,,,,,,,,,,0,,,69,0
9240,note_on,0,0,1,,,,,,,,,,,,,,,0,,,81,42
9360,note_on,180,0,2,,,,,,,,,,,,,,,0,,,67,61
9360,set_tempo,240,1,0,,,,,,,,,,,,463679,,,,,,,
9360,note_on,0,0,1,,,,,,,,,,,,,,,0,,,75,52
9360,note_on,120,0,1,,,,,,,,,,,,,,,0,,,81,0
9360,note_on,0,0,1,,,,,,,,,,,,,,,0,,,70,44
9480,note_on,0,0,1,,,,,,,,,,,,,,,0,,,82,42
9480,note_on,120,0,1,,,,,,,,,,,,,,,0,,,70,0
9480,note_on,0,0,1,,,,,,,,,,,,,,,0,,,75,0
9600,note_on,240,0,2,,,,,,,,,,,,,,,0,,,67,0
9600,note_on,0,0,2,,,,,,,,,,,,,,,0,,,55,53
9600,note_on,120,0,1,,,,,,,,,,,,,,,0,,,82,0
9600,note_on,0,0,1,,,,,,,,,,,,,,,0,,,75,49
9600,note_on,0,0,1,,,,,,,,,,,,,,,0,,,70,41
9720,note_on,0,0,1,,,,,,,,,,,,,,,0,,,70,0
9720,note_on,120,0,1,,,,,,,,,,,,,,,0,,,75,0
9720,note_on,0,0,1,,,,,,,,,,,,,,,0,,,81,42
9840,note_on,240,0,2,,,,,,,,,,,,,,,0,,,55,0
9840,note_on,0,0,2,,,,,,,,,,,,,,,0,,,55,55
9840,note_on,120,0,1,,,,,,,,,,,,,,,0,,,81,0
9840,note_on,0,0,1,,,,,,,,,,,,,,,0,,,70,41
9840,note_on,0,0,1,,,,,,,,,,,,,,,0,,,75,49
9900,note_on,60,0,2,,,,,,,,,,,,,,,0,,,55,0
9960,note_on,120,0,1,,,,,,,,,,,,,,,0,,,75,0
9960,note_on,0,0,1,,,,,,,,,,,,,,,0,,,70,0
9960,note_on,0,0,1,,,,,,,,,,,,,,,0,,,79,42
10080,note_on,120,0,1,,,,,,,,,,,,,,,0,,,79,0
10080,note_on,0,0,1,,,,,,,,,,,,,,,0,,,68,41
10080,note_on,0,0,1,,,,,,,,,,,,,,,0,,,74,49
10080,note_on,180,0,2,,,,,,,,,,,,,,,0,,,58,60
10140,note_on,60,0,2,,,,,,,,,,,,,,,0,,,58,0
10200,note_on,120,0,1,,,,,,,,,,,,,,,0,,,74,0
10200,note_on,0,0,1,,,,,,,,,,,,,,,0,,,68,0
10200,note_on,0,0,1,,,,,,,,,,,,,,,0,,,77,42
10260,note_on,120,0,2,,,,,,,,,,,,,,,0,,,48,47
10320,note_on,0,0,1,,,,,,,,,,,,,,,0,,,74,49
10320,note_on,60,0,2,,,,,,,,,,,,,,,0,,,46,55
10320,set_tempo,960,1,0,,,,,,,,,,,,452625,,,,,,,
10320,note_on,120,0,1,,,,,,,,,,,,,,,0,,,77,0
10320,note_on,0,0,1,,,,,,,,,,,,,,,0,,,68,41
10340,note_on,20,0,2,,,,,,,,,,,,,,,0,,,48,0
10440,note_on,100,0,2,,,,,,,,,,,,,,,0,,,45,50
10440,note_on,0,0,1,,,,,,,,,,,,,,,0,,,77,42
10440,note_on,0,0,1,,,,,,,,,,,,,,,0,,,68,0
10440,note_on,120,0,1,,,,,,,,,,,,,,,0,,,74,0
10460,note_on,20,0,2,,,,,,,,,,,,,,,0,,,46,0
10560,set_tempo,240,1,0,,,,,,,,,,,,491884,,,,,,,
10560,note_on,100,0,2,,,,,,,,,,,,,,,0,,,46,53
10560,note_on,120,0,1,,,,,,,,,,,,,,,0,,,77,0
10560,note_on,0,0,1,,,,,,,,,,,,,,,0,,,74,49
10560,note_on,0,0,1,,,,,,,,,,,,,,,0,,,68,41
10580,note_on,20,0,2,,,,,,,,,,,,,,,0,,,45,0
10680,note_on,120,0,1,,,,,,,,,,,,,,,0,,,68,0
10680,note_on,0,0,1,,,,,,,,,,,,,,,0,,,74,0
10680,note_on,0,0,1,,,,,,,,,,,,,,,0,,,77,42
10800,note_on,0,0,1,,,,,,,,,,,,,,,0,,,67,41
10800,note_on,0,0,1,,,,,,,,,,,,,,,0,,,75,49
10800,note_on,120,0,1,,,,,,,,,,,,,,,0,,,77,0
10800,set_tempo,240,1,0,,,,,,,,,,,,461787,,,,,,,
10800,note_on,220,0,2,,,,,,,,,,,,,,,0,,,46,0
10800,note_on,0,0,2,,,,,,,,,,,,,,,0,,,51,50
10860,note_on,60,0,2,,,,,,,,,,,,,,,0,,,51,0
10920,note_on,0,0,1,,,,,,,,,,,,,,,0,,,79,42
10920,note_on,0,0,1,,,,,,,,,,,,,,,0,,,75,0
10920,note_on,120,0,1,,,,,,,,,,,,,,,0,,,67,0
10980,note_on,120,0,2,,,,,,,,,,,,,,,0,,,41,44
11040,set_tempo,240,1,0,,,,,,,,,,,,452625,,,,,,,
11040,note_on,0,0,1,,,,,,,,,,,,,,,0,,,67,41
11040,note_on,0,0,1,,,,,,,,,,,,,,,0,,,75,49
11040,note_on,120,0,1,,,,,,,,,,,,,,,0,,,79,0
11040,note_on,60,0,2,,,,,,,,,,,,,,,0,,,39,50
11060,note_on,20,0,2,,,,,,,,,,,,,,,0,,,41,0
11160,note_on,120,0,1,,,,,,,,,,,,,,,0,,,67,0
11160,note_on,0,0,1,,,,,,,,,,,,,,,0,,,79,42
11160,note_on,0,0,1,,,,,,,,,,,,,,,0,,,75,0
11160,note_on,100,0,2,,,,,,,,,,,,,,,0,,,38,47
11180,note_on,20,0,2,,,,,,,,,,,,,,,0,,,39,0
11280,note_on,100,0,2,,,,,,,,,,,,,,,0,,,39,50
11280,note_on,0,0,1,,,,,,,,,,,,,,,0,,,67,41
11280,set_tempo,240,1,0,,,,,,,,,,,,487171,,,,,,,
11280,note_on,0,0,1,,,,,,,,,,,,,,,0,,,75,49
11280,note_on,120,0,1,,,,,,,,,,,,,,,0,,,79,0
11300,note_on,20,0,2,,,,,,,,,,,,,,,0,,,38,0
11400,note_on,0,0,1,,,,,,,,,,,,,,,0,,,75,0
11400,note_on,120,0,1,,,,,,,,,,,,,,,0,,,67,0
11400,note_on,100,0,2,,,,,,,,,,,,,,,0,,,39,0
11520,note_on,120,0,2,,,,,,,,,,,,,,,0,,,63,35
11520,note_on,0,0,2,,,,,,,,,,,,,,,0,,,67,41
11520,set_tempo,240,1,0,,,,,,,,,,,,492045,,,,,,,
11520,note_on,120,0,1,,,,,,,,,,,,,,,0,,,82,66
11570,control_change,50,0,2,,,,,,,,,,,,,,,0,64,127,,
11580,note_on,60,0,1,,,,,,,,,,,,,,,0,,,82,0
11640,note_on,0,0,2,,,,,,,,,,,,,,,0,,,70,33
11640,note_on,0,0,2,,,,,,,,,,,,,,,0,,,63,0
11640,note_on,70,0,2,,,,,,,,,,,,,,,0,,,67,0
11697,control_change,57,0,2,,,,,,,,,,,,,,,0,64,0,,
11700,note_on,120,0,1,,,,,,,,,,,,,,,0,,,80,59
11734,control_change,37,0,2,,,,,,,,,,,,,,,0,64,127,,
11760,note_on,0,0,1,,,,,,,,,,,,,,,0,,,79,67
11760,note_on,0,0,2,,,,,,,,,,,,,,,0,,,67,38
11760,note_on,0,0,2,,,,,,,,,,,,,,,0,,,63,31
11760,note_on,26,0,2,,,,,,,,,,,,,,,0,,,70,0
11760,note_on,60,0,1,,,,,,,,,,,,,,,0,,,80,0
11761,set_tempo,241,1,0,,,,,,,,,,,,452625,,,,,,,
11880,note_on,120,0,2,,,,,,,,,,,,,,,0,,,67,0
11880,note_on,0,0,2,,,,,,,,,,,,,,,0,,,70,33
11880,note_on,0,0,1,,,,,,,,,,,,,,,0,,,77,62
11880,note_on,120,0,1,,,,,,,,,,,,,,,0,,,79,0
11880,note_on,0,0,2,,,,,,,,,,,,,,,0,,,63,0
12000,note_on,120,0,1,,,,,,,,,,,,,,,0,,,77,0
12000,note_on,0,0,1,,,,,,,,,,,,,,,0,,,79,66
12000,note_on,0,0,2,,,,,,,,,,,,,,,0,,,67,38
12000,note_on,0,0,2,,,,,,,,,,,,,,,0,,,63,31
12000,note_on,120,0,2,,,,,,,,,,,,,,,0,,,70,0
12001,set_tempo,240,1,0,,,,,,,,,,,,458155,,,,,,,
12023,control_change,23,0,2,,,,,,,,,,,,,,,0,64,0,,
12031,control_change,8,0,2,,,,,,,,,,,,,,,0,64,127,,
12120,note_on,0,0,2,,,,,,,,,,,,,,,0,,,70,33
12120,note_on,89,0,2,,,,,,,,,,,,,,,0,,,67,0
12120,note_on,0,0,2,,,,,,,,,,,,,,,0,,,63,0
12240,note_on,120,0,2,,,,,,,,,,,,,,,0,,,70,0
12240,set_tempo,239,1,0,,,,,,,,,,,,482199,,,,,,,
12240,note_on,240,0,1,,,,,,,,,,,,,,,0,,,79,0
12240,note_on,0,0,1,,,,,,,,,,,,,,,0,,,82,66
12240,note_on,0,0,2,,,,,,,,,,,,,,,0,,,62,31
12240,note_on,0,0,2,,,,,,,,,,,,,,,0,,,65,38
12255,control_change,15,0,2,,,,,,,,,,,,,,,0,64,0,,
12290,control_change,35,0,2,,,,,,,,,,,,,,,0,64,127,,
12300,note_on,60,0,1,,,,,,,,,,,,,,,0,,,82,0
12360,note_on,0,0,2,,,,,,,,,,,,,,,0,,,70,33
12360,note_on,0,0,2,,,,,,,,,,,,,,,0,,,62,0
12360,note_on,70,0,2,,,,,,,,,,,,,,,0,,,65,0
12420,note_on,120,0,1,,,,,,,,,,,,,,,0,,,79,58
12424,control_change,64,0,2,,,,,,,,,,,,,,,0,64,0,,
12459,control_change,35,0,2,,,,,,,,,,,,,,,0,64,127,,
12480,note_on,0,0,2,,,,,,,,,,,,,,,0,,,65,38
12480,note_on,0,0,2,,,,,,,,,,,,,,,0,,,62,31
12480,note_on,21,0,2,,,,,,,,,,,,,,,0,,,70,0
12480,note_on,60,0,1,,,,,,,,,,,,,,,0,,,79,0
12480,note_on,0,0,1,,,,,,,,,,,,,,,0,,,77,67
12481,set_tempo,241,1,0,,,,,,,,,,,,452625,,,,,,,
12600,note_on,120,0,1,,,,,,,,,,,,,,,0,,,77,0
12600,note_on,120,0,2,,,,,,,,,,,,,,,0,,,65,0
12600,note_on,0,0,2,,,,,,,,,,,,,,,0,,,62,0
12600,note_on,0,0,2,,,,,,,,,,,,,,,0,,,70,33
12600,note_on,0,0,1,,,,,,,,,,,,,,,0,,,76,62
12720,note_on,120,0,1,,,,,,,,,,,,,,,0,,,76,0
12720,note_on,0,0,2,,,,,,,,,,,,,,,0,,,65,38
12720,note_on,0,0,1,,,,,,,,,,,,,,,0,,,77,66
12720,set_tempo,239,1,0,,,,,,,,,,,,467108,,,,,,,
12720,note_on,0,0,2,,,,,,,,,,,,,,,0,,,61,31
12720,note_on,120,0,2,,,,,,,,,,,,,,,0,,,70,0
12762,control_change,42,0,2,,,,,,,,,,,,,,,0,64,0,,
12769,control_change,7,0,2,,,,,,,,,,,,,,,0,64,127,,
12840,note_on,71,0,2,,,,,,,,,,,,,,,0,,,65,0
12840,note_on,0,0,2,,,,,,,,,,,,,,,0,,,61,0
12840,note_on,0,0,2,,,,,,,,,,,,,,,0,,,70,33
12960,note_on,240,0,1,,,,,,,,,,,,,,,0,,,77,0
12960,note_on,0,0,2,,,,,,,,,,,,,,,0,,,65,38
12960,note_on,0,0,2,,,,,,,,,,,,,,,0,,,60,31
12960,note_on,120,0,2,,,,,,,,,,,,,,,0,,,70,0
12960,set_tempo,240,1,0,,,,,,,,,,,,482199,,,,,,,
12960,note_on,0,0,1,,,,,,,,,,,,,,,0,,,84,69
12975,control_change,15,0,2,,,,,,,,,,,,,,,0,64,0,,
12991,control_change,16,0,2,,,,,,,,,,,,,,,0,64,0,,
13010,control_change,19,0,2,,,,,,,,,,,,,,,0,64,127,,
13080,note_on,70,0,2,,,,,,,,,,,,,,,0,,,65,0
13080,note_on,0,0,2,,,,,,,,,,,,,,,0,,,60,0
13080,note_on,0,0,2,,,,,,,,,,,,,,,0,,,68,33
13200,note_on,240,0,1,,,,,,,,,,,,,,,0,,,84,0
13200,note_on,120,0,2,,,,,,,,,,,,,,,0,,,68,0
13200,note_on,0,0,1,,,,,,,,,,,,,,,0,,,82,70
13200,note_on,0,0,2,,,,,,,,,,,,,,,0,,,65,38
13200,note_on,0,0,2,,,,,,,,,,,,,,,0,,,60,31
13201,set_tempo,241,1,0,,,,,,,,,,,,452625,,,,,,,
13240,control_change,40,0,2,,,,,,,,,,,,,,,0,64,0,,
13251,control_change,11,0,2,,,,,,,,,,,,,,,0,64,127,,
13320,note_on,120,0,1,,,,,,,,,,,,,,,0,,,82,0
13320,note_on,0,0,1,,,,,,,,,,,,,,,0,,,80,64
13320,note_on,0,0,2,,,,,,,,,,,,,,,0,,,60,0
13320,note_on,69,0,2,,,,,,,,,,,,,,,0,,,65,0
13320,note_on,0,0,2,,,,,,,,,,,,,,,0,,,68,33
13440,note_on,120,0,1,,,,,,,,,,,,,,,0,,,80,0
13440,set_tempo,239,1,0,,,,,,,,,,,,478965,,,,,,,
13440,note_on,0,0,1,,,,,,,,,,,,,,,0,,,79,69
13440,note_on,120,0,2,,,,,,,,,,,,,,,0,,,68,0
13440,note_on,0,0,2,,,,,,,,,,,,,,,0,,,65,38
13440,note_on,0,0,2,,,,,,,,,,,,,,,0,,,60,31
13560,note_on,0,0,2,,,,,,,,,,,,,,,0,,,68,33
13560,note_on,0,0,2,,,,,,,,,,,,,,,0,,,60,0
13560,note_on,120,0,2,,,,,,,,,,,,,,,0,,,65,0
13560,note_on,0,0,1,,,,,,,,,,,,,,,0,,,77,69
13560,note_on,120,0,1,,,,,,,,,,,,,,,0,,,79,0
13680,note_on,120,0,1,,,,,,,,,,,,,,,0,,,77,0
13680,note_on,0,0,1,,,,,,,,,,,,,,,0,,,84,69
13680,note_on,0,0,2,,,,,,,,,,,,,,,0,,,60,31
13680,set_tempo,240,1,0,,,,,,,,,,,,491400,,,,,,,
13680,control_change,0,0,2,,,,,,,,,,,,,,,0,64,0,,
13680,note_on,0,0,2,,,,,,,,,,,,,,,0,,,65,38
13680,note_on,120,0,2,,,,,,,,,,,,,,,0,,,68,0
13695,control_change,15,0,2,,,,,,,,,,,,,,,0,64,0,,
13730,control_change,35,0,2,,,,,,,,,,,,,,,0,64,127,,
13800,note_on,70,0,2,,,,,,,,,,,,,,,0,,,65,0
13800,note_on,0,0,2,,,,,,,,,,,,,,,0,,,60,0
13800,note_on,0,0,2,,,,,,,,,,,,,,,0,,,67,33
13920,note_on,120,0,2,,,,,,,,,,,,,,,0,,,67,0
13920,note_on,0,0,2,,,,,,,,,,,,,,,0,,,60,31
13920,note_on,0,0,2,,,,,,,,,,,,,,,0,,,64,38
13920,set_tempo,240,1,0,,,,,,,,,,,,472962,,,,,,,
13920,note_on,240,0,1,,,,,,,,,,,,,,,0,,,84,0
13920,note_on,0,0,1,,,,,,,,,,,,,,,0,,,72,67
13926,control_change,6,0,2,,,,,,,,,,,,,,,0,64,0,,
13954,control_change,28,0,2,,,,,,,,,,,,,,,0,64,127,,
14040,note_on,86,0,2,,,,,,,,,,,,,,,0,,,64,0
14040,note_on,0,0,2,,,,,,,,,,,,,,,0,,,60,0
14040,note_on,0,0,2,,,,,,,,,,,,,,,0,,,67,33
14160,note_on,0,0,1,,,,,,,,,,,,,,,0,,,72,67
14160,note_on,0,0,2,,,,,,,,,,,,,,,0,,,64,38
14160,note_on,0,0,2,,,,,,,,,,,,,,,0,,,60,31
14160,note_on,120,0,2,,,,,,,,,,,,,,,0,,,67,0
14160,note_on,240,0,1,,,,,,,,,,,,,,,0,,,72,0
14280,note_on,0,0,2,,,,,,,,,,,,,,,0,,,67,36
14280,note_on,0,0,2,,,,,,,,,,,,,,,0,,,60,0
14280,note_on,120,0,2,,,,,,,,,,,,,,,0,,,64,0
14400,note_on,0,0,2,,,,,,,,,,,,,,,0,,,56,44
14400,note_on,240,0,1,,,,,,,,,,,,,,,0,,,72,0
14400,note_on,0,0,1,,,,,,,,,,,,,,,0,,,68,44
14400,note_on,0,0,1,,,,,,,,,,,,,,,0,,,72,52
14400,control_change,0,0,2,,,,,,,,,,,,,,,0,64,0,,
14400,note_on,0,0,2,,,,,,,,,,,,,,,0,,,60,52
14400,note_on,120,0,2,,,,,,,,,,,,,,,0,,,67,0
14400,set_tempo,480,1,0,,,,,,,,,,,,480962,,,,,,,
14520,note_on,120,0,1,,,,,,,,,,,,,,,0,,,72,0
14520,note_on,0,0,1,,,,,,,,,,,,,,,0,,,68,0
14520,note_on,0,0,1,,,,,,,,,,,,,,,0,,,75,46
14640,note_on,120,0,1,,,,,,,,,,,,,,,0,,,75,0
14640,note_on,0,0,1,,,,,,,,,,,,,,,0,,,68,45
14640,note_on,0,0,1,,,,,,,,,,,,,,,0,,,72,53
14640,set_tempo,240,1,0,,,,,,,,,,,,478965,,,,,,,
14640,note_on,240,0,2,,,,,,,,,,,,,,,0,,,60,0
14640,note_on,0,0,2,,,,,,,,,,,,,,,0,,,61,48
14760,note_on,0,0,1,,,,,,,,,,,,,,,0,,,75,45
14760,note_on,0,0,1,,,,,,,,,,,,,,,0,,,68,0
14760,note_on,120,0,1,,,,,,,,,,,,,,,0,,,72,0
14880,note_on,0,0,1,,,,,,,,,,,,,,,0,,,68,45
14880,note_on,120,0,1,,,,,,,,,,,,,,,0,,,75,0
14880,note_on,240,0,2,,,,,,,,,,,,,,,0,,,61,0
14880,note_on,0,0,2,,,,,,,,,,,,,,,0,,,60,48
14880,note_on,0,0,1,,,,,,,,,,,,,,,0,,,72,53
14880,set_tempo,240,1,0,,,,,,,,,,,,485084,,,,,,,
15000,note_on,120,0,1,,,,,,,,,,,,,,,0,,,72,0
15000,note_on,0,0,1,,,,,,,,,,,,,,,0,,,75,46
15000,note_on,0,0,1,,,,,,,,,,,,,,,0,,,68,0
15080,set_tempo,200,1,0,,,,,,,,,,,,474947,,,,,,,
15120,note_on,0,0,1,,,,,,,,,,,,,,,0,,,77,52
15120,note_on,0,0,2,,,,,,,,,,,,,,,0,,,58,52
15120,note_on,0,0,2,,,,,,,,,,,,,,,0,,,49,44
15120,set_tempo,40,1,0,,,,,,,,,,,,480962,,,,,,,
15120,note_on,240,0,2,,,,,,,,,,,,,,,0,,,60,0
15120,note_on,120,0,1,,,,,,,,,,,,,,,0,,,75,0
15120,note_on,0,0,1,,,,,,,,,,,,,,,0,,,68,44
15120,note_on,0,0,2,,,,,,,,,,,,,,,0,,,56,0
15240,note_on,0,0,1,,,,,,,,,,,,,,,0,,,68,0
15240,note_on,0,0,1,,,,,,,,,,,,,,,0,,,80,46
15240,note_on,120,0,1,,,,,,,,,,,,,,,0,,,77,0
15360,note_on,120,0,1,,,,,,,,,,,,,,,0,,,80,0
15360,note_on,0,0,1,,,,,,,,,,,,,,,0,,,68,47
15360,set_tempo,240,1,0,,,,,,,,,,,,474947,,,,,,,
15360,note_on,240,0,2,,,,,,,,,,,,,,,0,,,58,0
15360,note_on,0,0,2,,,,,,,,,,,,,,,0,,,53,50
15360,note_on,0,0,1,,,,,,,,,,,,,,,0,,,77,56
15480,note_on,120,0,1,,,,,,,,,,,,,,,0,,,77,0
15480,note_on,0,0,1,,,,,,,,,,,,,,,0,,,68,0
15480,note_on,0,0,1,,,,,,,,,,,,,,,0,,,80,47
15600,note_on,0,0,1,,,,,,,,,,,,,,,0,,,77,58
15600,note_on,240,0,2,,,,,,,,,,,,,,,0,,,53,0
15600,note_on,0,0,2,,,,,,,,,,,,,,,0,,,55,52
15600,note_on,120,0,1,,,,,,,,,,,,,,,0,,,80,0
15600,note_on,0,0,1,,,,,,,,,,,,,,,0,,,68,49
15720,set_tempo,360,1,0,,,,,,,,,,,,483014,,,,,,,
15720,note_on,0,0,1,,,,,,,,,,,,,,,0,,,68,0
15720,note_on,0,0,1,,,,,,,,,,,,,,,0,,,80,51
15720,note_on,120,0,1,,,,,,,,,,,,,,,0,,,77,0
15780,note_on,180,0,2,,,,,,,,,,,,,,,0,,,58,52
15840,note_on,60,0,2,,,,,,,,,,,,,,,0,,,58,0
15840,note_on,0,0,1,,,,,,,,,,,,,,,0,,,68,44
15840,note_on,0,0,2,,,,,,,,,,,,,,,0,,,55,0
15840,note_on,0,0,1,,,,,,,,,,,,,,,0,,,72,52
15840,note_on,0,0,2,,,,,,,,,,,,,,,0,,,51,44
15840,note_on,0,0,2,,,,,,,,,,,,,,,0,,,56,52
15840,note_on,0,0,2,,,,,,,,,,,,,,,0,,,49,0
15840,note_on,120,0,1,,,,,,,,,,,,,,,0,,,80,0
15840,set_tempo,120,1,0,,,,,,,,,,,,474608,,,,,,,
15960,note_on,120,0,1,,,,,,,,,,,,,,,0,,,72,0
15960,note_on,0,0,1,,,,,,,,,,,,,,,0,,,68,0
15960,note_on,0,0,1,,,,,,,,,,,,,,,0,,,75,45
16080,note_on,240,0,2,,,,,,,,,,,,,,,0,,,56,0
16080,note_on,0,0,1,,,,,,,,,,,,,,,0,,,68,42
16080,note_on,0,0,2,,,,,,,,,,,,,,,0,,,55,45
16080,note_on,120,0,1,,,,,,,,,,,,,,,0,,,75,0
16080,note_on,0,0,1,,,,,,,,,,,,,,,0,,,72,50
16200,note_on,0,0,1,,,,,,,,,,,,,,,0,,,68,0
16200,note_on,0,0,1,,,,,,,,,,,,,,,0,,,75,41
16200,note_on,120,0,1,,,,,,,,,,,,,,,0,,,72,0
16320,note_on,120,0,1,,,,,,,,,,,,,,,0,,,75,0
16320,note_on,0,0,1,,,,,,,,,,,,,,,0,,,68,40
16320,note_on,0,0,1,,,,,,,,,,,,,,,0,,,72,48
16320,set_tempo,480,1,0,,,,,,,,,,,,487171,,,,,,,
16320,note_on,240,0,2,,,,,,,,,,,,,,,0,,,55,0
16320,note_on,0,0,2,,,,,,,,,,,,,,,0,,,56,42
16440,note_on,0,0,1,,,,,,,,,,,,,,,0,,,68,0
16440,note_on,0,0,1,,,,,,,,,,,,,,,0,,,75,39
16440,note_on,120,0,1,,,,,,,,,,,,,,,0,,,72,0
16560,note_on,240,0,2,,,,,,,,,,,,,,,0,,,56,0
16560,note_on,0,0,2,,,,,,,,,,,,,,,0,,,58,44
16560,set_tempo,240,1,0,,,,,,,,,,,,476948,,,,,,,
16560,note_on,120,0,1,,,,,,,,,,,,,,,0,,,75,0
16560,note_on,0,0,1,,,,,,,,,,,,,,,0,,,67,37
16560,note_on,0,0,1,,,,,,,,,,,,,,,0,,,73,44
16680,note_on,0,0,1,,,,,,,,,,,,,,,0,,,67,0
16680,note_on,0,0,1,,,,,,,,,,,,,,,0,,,75,38
16680,note_on,120,0,1,,,,,,,,,,,,,,,0,,,73,0
16680,set_tempo,120,1,0,,,,,,,,,,,,478965,,,,,,,
16760,set_tempo,80,1,0,,,,,,,,,,,,480962,,,,,,,
16800,note_on,0,0,1,,,,,,,,,,,,,,,0,,,73,45
16800,note_on,120,0,1,,,,,,,,,,,,,,,0,,,75,0
16800,note_on,0,0,1,,,,,,,,,,,,,,,0,,,67,37
16880,set_tempo,120,1,0,,,,,,,,,,,,483014,,,,,,,
16920,note_on,0,0,1,,,,,,,,,,,,,,,0,,,75,37
16920,note_on,0,0,1,,,,,,,,,,,,,,,0,,,67,0
16920,note_on,120,0,1,,,,,,,,,,,,,,,0,,,73,0
16960,set_tempo,80,1,0,,,,,,,,,,,,485084,,,,,,,
17040,note_on,0,0,2,,,,,,,,,,,,,,,0,,,59,40
17040,note_on,480,0,2,,,,,,,,,,,,,,,0,,,58,0
17040,note_on,120,0,1,,,,,,,,,,,,,,,0,,,75,0
17040,note_on,0,0,1,,,,,,,,,,,,,,,0,,,73,45
17040,note_on,0,0,1,,,,,,,,,,,,,,,0,,,67,37
17080,set_tempo,120,1,0,,,,,,,,,,,,487171,,,,,,,
17160,set_tempo,80,1,0,,,,,,,,,,,,489277,,,,,,,
17160,note_on,0,0,1,,,,,,,,,,,,,,,0,,,75,38
17160,note_on,0,0,1,,,,,,,,,,,,,,,0,,,67,0
17160,note_on,120,0,1,,,,,,,,,,,,,,,0,,,73,0
17240,set_tempo,80,1,0,,,,,,,,,,,,491400,,,,,,,
17280,note_on,0,0,2,,,,,,,,,,,,,,,0,,,60,41
17280,set_tempo,40,1,0,,,,,,,,,,,,492045,,,,,,,
17280,note_on,120,0,1,,,,,,,,,,,,,,,0,,,75,0
17280,note_on,0,0,1,,,,,,,,,,,,,,,0,,,68,56
17280,note_on,0,0,2,,,,,,,,,,,,,,,0,,,51,0
17280,note_on,0,0,1,,,,,,,,,,,,,,,0,,,72,56
17280,note_on,0,0,1,,,,,,,,,,,,,,,0,,,75,66
17280,note_on,240,0,2,,,,,,,,,,,,,,,0,,,59,0
17280,note_on,0,0,2,,,,,,,,,,,,,,,0,,,56,35
17330,control_change,50,0,2,,,,,,,,,,,,,,,0,64,127,,
17340,note_on,0,0,1,,,,,,,,,,,,,,,0,,,72,0
17340,note_on,0,0,1,,,,,,,,,,,,,,,0,,,68,0
17340,note_on,60,0,1,,,,,,,,,,,,,,,0,,,75,0
17400,note_on,0,0,2,,,,,,,,,,,,,,,0,,,63,33
17400,note_on,0,0,2,,,,,,,,,,,,,,,0,,,56,0
17400,note_on,70,0,2,,,,,,,,,,,,,,,0,,,60,0
17460,note_on,120,0,1,,,,,,,,,,,,,,,0,,,73,57
17471,control_change,71,0,2,,,,,,,,,,,,,,,0,64,0,,
17489,control_change,18,0,2,,,,,,,,,,,,,,,0,64,127,,
17520,note_on,31,0,2,,,,,,,,,,,,,,,0,,,63,0
17520,note_on,0,0,2,,,,,,,,,,,,,,,0,,,56,31
17520,note_on,0,0,2,,,,,,,,,,,,,,,0,,,60,38
17520,note_on,60,0,1,,,,,,,,,,,,,,,0,,,73,0
17520,note_on,0,0,1,,,,,,,,,,,,,,,0,,,72,67
17521,set_tempo,241,1,0,,,,,,,,,,,,452625,,,,,,,
17640,note_on,120,0,1,,,,,,,,,,,,,,,0,,,72,0
17640,note_on,0,0,1,,,,,,,,,,,,,,,0,,,70,62
17640,note_on,0,0,2,,,,,,,,,,,,,,,0,,,56,0
17640,note_on,0,0,2,,,,,,,,,,,,,,,0,,,63,33
17640,note_on,120,0,2,,,,,,,,,,,,,,,0,,,60,0
17760,note_on,120,0,1,,,,,,,,,,,,,,,0,,,70,0
17760,note_on,0,0,2,,,,,,,,,,,,,,,0,,,60,38
17760,note_on,0,0,1,,,,,,,,,,,,,,,0,,,72,66
17760,note_on,120,0,2,,,,,,,,,,,,,,,0,,,63,0
17760,note_on,0,0,2,,,,,,,,,,,,,,,0,,,56,31
17761,set_tempo,240,1,0,,,,,,,,,,,,458155,,,,,,,
17763,control_change,3,0,2,,,,,,,,,,,,,,,0,64,0,,
17789,control_change,26,0,2,,,,,,,,,,,,,,,0,64,127,,
17880,note_on,0,0,2,,,,,,,,,,,,,,,0,,,63,33
17880,note_on,91,0,2,,,,,,,,,,,,,,,0,,,60,0
17880,note_on,0,0,2,,,,,,,,,,,,,,,0,,,56,0
18000,note_on,240,0,1,,,,,,,,,,,,,,,0,,,72,0
18000,control_change,0,0,2,,,,,,,,,,,,,,,0,64,0,,
18000,note_on,0,0,2,,,,,,,,,,,,,,,0,,,58,38
18000,note_on,0,0,1,,,,,,,,,,,,,,,0,,,75,66
18000,note_on,120,0,2,,,,,,,,,,,,,,,0,,,63,0
18000,set_tempo,239,1,0,,,,,,,,,,,,482199,,,,,,,
18000,note_on,0,0,2,,,,,,,,,,,,,,,0,,,55,31
18015,control_change,15,0,2,,,,,,,,,,,,,,,0,64,0,,
18050,control_change,35,0,2,,,,,,,,,,,,,,,0,64,127,,
18060,note_on,60,0,1,,,,,,,,,,,,,,,0,,,75,0
18120,note_on,70,0,2,,,,,,,,,,,,,,,0,,,58,0
18120,note_on,0,0,2,,,,,,,,,,,,,,,0,,,55,0
18120,note_on,0,0,2,,,,,,,,,,,,,,,0,,,63,33
18180,note_on,120,0,1,,,,,,,,,,,,,,,0,,,72,57
18215,control_change,95,0,2,,,,,,,,,,,,,,,0,64,0,,
18226,control_change,11,0,2,,,,,,,,,,,,,,,0,64,127,,
18240,note_on,0,0,2,,,,,,,,,,,,,,,0,,,55,31
18240,note_on,60,0,1,,,,,,,,,,,,,,,0,,,72,0
18240,note_on,0,0,2,,,,,,,,,,,,,,,0,,,58,38
18240,note_on,14,0,2,,,,,,,,,,,,,,,0,,,63,0
18240,note_on,0,0,1,,,,,,,,,,,,,,,0,,,70,67
18241,set_tempo,241,1,0,,,,,,,,,,,,452625,,,,,,,
18360,note_on,0,0,1,,,,,,,,,,,,,,,0,,,69,62
18360,note_on,0,0,2,,,,,,,,,,,,,,,0,,,63,33
18360,note_on,0,0,2,,,,,,,,,,,,,,,0,,,55,0
18360,note_on,120,0,1,,,,,,,,,,,,,,,0,,,70,0
18360,note_on,120,0,2,,,,,,,,,,,,,,,0,,,58,0
18459,control_change,99,0,2,,,,,,,,,,,,,,,0,64,0,,
18480,note_on,21,0,2,,,,,,,,,,,,,,,0,,,63,0
18480,note_on,0,0,2,,,,,,,,,,,,,,,0,,,54,31
18480,note_on,0,0,2,,,,,,,,,,,,,,,0,,,58,38
18480,set_tempo,239,1,0,,,,,,,,,,,,467108,,,,,,,
18480,note_on,0,0,1,,,,,,,,,,,,,,,0,,,70,66
18480,note_on,120,0,1,,,,,,,,,,,,,,,0,,,69,0
18494,control_change,14,0,2,,,,,,,,,,,,,,,0,64,127,,
18600,note_on,106,0,2,,,,,,,,,,,,,,,0,,,58,0
18600,note_on,0,0,2,,,,,,,,,,,,,,,0,,,63,33
18600,note_on,0,0,2,,,,,,,,,,,,,,,0,,,54,0
18720,note_on,120,0,2,,,,,,,,,,,,,,,0,,,63,0
18720,note_on,0,0,2,,,,,,,,,,,,,,,0,,,53,31
18720,set_tempo,240,1,0,,,,,,,,,,,,482199,,,,,,,
18720,control_change,0,0,2,,,,,,,,,,,,,,,0,64,0,,
18720,note_on,0,0,2,,,,,,,,,,,,,,,0,,,58,38
18720,note_on,240,0,1,,,,,,,,,,,,,,,0,,,70,0
18720,note_on,0,0,1,,,,,,,,,,,,,,,0,,,77,69
18735,control_change,15,0,2,,,,,,,,,,,,,,,0,64,0,,
18770,control_change,35,0,2,,,,,,,,,,,,,,,0,64,127,,
18840,note_on,70,0,2,,,,,,,,,,,,,,,0,,,58,0
18840,note_on,0,0,2,,,,,,,,,,,,,,,0,,,53,0
18840,note_on,0,0,2,,,,,,,,,,,,,,,0,,,61,33
18960,note_on,0,0,1,,,,,,,,,,,,,,,0,,,75,70
18960,note_on,120,0,2,,,,,,,,,,,,,,,0,,,61,0
18960,note_on,0,0,2,,,,,,,,,,,,,,,0,,,53,31
18960,note_on,0,0,2,,,,,,,,,,,,,,,0,,,58,38
18960,note_on,240,0,1,,,,,,,,,,,,,,,0,,,77,0
18961,set_tempo,241,1,0,,,,,,,,,,,,452625,,,,,,,
19000,control_change,40,0,2,,,,,,,,,,,,,,,0,64,0,,
19011,control_change,11,0,2,,,,,,,,,,,,,,,0,64,127,,
19080,note_on,0,0,2,,,,,,,,,,,,,,,0,,,61,33
19080,note_on,0,0,2,,,,,,,,,,,,,,,0,,,53,0
19080,note_on,69,0,2,,,,,,,,,,,,,,,0,,,58,0
19080,note_on,120,0,1,,,,,,,,,,,,,,,0,,,75,0
19080,note_on,0,0,1,,,,,,,,,,,,,,,0,,,73,64
19200,note_on,120,0,1,,,,,,,,,,,,,,,0,,,73,0
19200,note_on,120,0,2,,,,,,,,,,,,,,,0,,,61,0
19200,note_on,0,0,2,,,,,,,,,,,,,,,0,,,53,31
19200,note_on,0,0,2,,,,,,,,,,,,,,,0,,,58,38
19200,set_tempo,239,1,0,,,,,,,,,,,,476948,,,,,,,
19200,note_on,0,0,1,,,,,,,,,,,,,,,0,,,72,69
19320,note_on,0,0,2,,,,,,,,,,,,,,,0,,,61,33
19320,note_on,120,0,1,,,,,,,,,,,,,,,0,,,72,0
19320,note_on,0,0,2,,,,,,,,,,,,,,,0,,,53,0
19320,note_on,120,0,2,,,,,,,,,,,,,,,0,,,58,0
19320,note_on,0,0,1,,,,,,,,,,,,,,,0,,,70,69
19440,set_tempo,240,1,0,,,,,,,,,,,,487171,,,,,,,
19440,note_on,0,0,2,,,,,,,,,,,,,,,0,,,53,31
19440,note_on,0,0,2,,,,,,,,,,,,,,,0,,,58,38
19440,control_change,0,0,2,,,,,,,,,,,,,,,0,64,0,,
19440,note_on,120,0,2,,,,,,,,,,,,,,,0,,,61,0
19440,note_on,120,0,1,,,,,,,,,,,,,,,0,,,70,0
19440,note_on,0,0,1,,,,,,,,,,,,,,,0,,,77,69
19455,control_change,15,0,2,,,,,,,,,,,,,,,0,64,0,,
19490,control_change,35,0,2,,,,,,,,,,,,,,,0,64,127,,
19560,note_on,0,0,2,,,,,,,,,,,,,,,0,,,60,33
19560,note_on,0,0,2,,,,,,,,,,,,,,,0,,,53,0
19560,note_on,70,0,2,,,,,,,,,,,,,,,0,,,58,0
19680,note_on,0,0,2,,,,,,,,,,,,,,,0,,,53,31
19680,note_on,120,0,2,,,,,,,,,,,,,,,0,,,60,0
19680,note_on,0,0,2,,,,,,,,,,,,,,,0,,,57,38
19680,note_on,0,0,1,,,,,,,,,,,,,,,0,,,65,67
19680,note_on,240,0,1,,,,,,,,,,,,,,,0,,,77,0
19680,set_tempo,240,1,0,,,,,,,,,,,,474947,,,,,,,
19686,control_change,6,0,2,,,,,,,,,,,,,,,0,64,0,,
19714,control_change,28,0,2,,,,,,,,,,,,,,,0,64,127,,
19800,note_on,0,0,2,,,,,,,,,,,,,,,0,,,60,33
19800,note_on,86,0,2,,,,,,,,,,,,,,,0,,,57,0
19800,note_on,0,0,2,,,,,,,,,,,,,,,0,,,53,0
19920,note_on,0,0,2,,,,,,,,,,,,,,,0,,,57,38
19920,note_on,0,0,2,,,,,,,,,,,,,,,0,,,53,31
19920,note_on,0,0,1,,,,,,,,,,,,,,,0,,,65,67
19920,note_on,240,0,1,,,,,,,,,,,,,,,0,,,65,0
19920,note_on,120,0,2,,,,,,,,,,,,,,,0,,,60,0
20040,note_on,120,0,2,,,,,,,,,,,,,,,0,,,57,0
20040,note_on,0,0,2,,,,,,,,,,,,,,,0,,,53,0
20040,note_on,0,0,2,,,,,,,,,,,,,,,0,,,60,36
20160,note_on,0,0,2,,,,,,,,,,,,,,,0,,,65,52
20160,note_on,120,0,2,,,,,,,,,,,,,,,0,,,60,0
20160,note_on,0,0,2,,,,,,,,,,,,,,,0,,,61,44
20160,control_change,0,0,2,,,,,,,,,,,,,,,0,64,0,,
20160,set_tempo,480,1,0,,,,,,,,,,,,480962,,,,,,,
20160,note_on,240,0,1,,,,,,,,,,,,,,,0,,,65,0
20160,note_on,0,0,1,,,,,,,,,,,,,,,0,,,73,44
20160,note_on,0,0,1,,,,,,,,,,,,,,,0,,,77,52
20280,note_on,120,0,1,,,,,,,,,,,,,,,0,,,77,0
20280,note_on,0,0,1,,,,,,,,,,,,,,,0,,,73,0
20280,note_on,0,0,1,,,,,,,,,,,,,,,0,,,80,46
20400,note_on,0,0,1,,,,,,,,,,,,,,,0,,,73,45
20400,note_on,120,0,1,,,,,,,,,,,,,,,0,,,80,0
20400,note_on,0,0,1,,,,,,,,,,,,,,,0,,,77,53
20400,note_on,240,0,2,,,,,,,,,,,,,,,0,,,65,0
20400,set_tempo,240,1,0,,,,,,,,,,,,478965,,,,,,,
20400,note_on,0,0,2,,,,,,,,,,,,,,,0,,,66,48
20520,note_on,120,0,1,,,,,,,,,,,,,,,0,,,77,0
20520,note_on,0,0,1,,,,,,,,,,,,,,,0,,,80,45
20520,note_on,0,0,1,,,,,,,,,,,,,,,0,,,73,0
20640,set_tempo,240,1,0,,,,,,,,,,,,476948,,,,,,,
20640,note_on,240,0,2,,,,,,,,,,,,,,,0,,,66,0
20640,note_on,0,0,2,,,,,,,,,,,,,,,0,,,65,48
20640,note_on,0,0,1,,,,,,,,,,,,,,,0,,,77,53
20640,note_on,120,0,1,,,,,,,,,,,,,,,0,,,80,0
20640,note_on,0,0,1,,,,,,,,,,,,,,,0,,,73,45
20760,note_on,0,0,1,,,,,,,,,,,,,,,0,,,73,0
20760,note_on,120,0,1,,,,,,,,,,,,,,,0,,,77,0
20760,note_on,0,0,1,,,,,,,,,,,,,,,0,,,80,46
20840,set_tempo,200,1,0,,,,,,,,,,,,474947,,,,,,,
20880,set_tempo,40,1,0,,,,,,,,,,,,485084,,,,,,,
20880,note_on,120,0,1,,,,,,,,,,,,,,,0,,,80,0
20880,note_on,0,0,2,,,,,,,,,,,,,,,0,,,61,0
20880,note_on,0,0,2,,,,,,,,,,,,,,,0,,,54,44
20880,note_on,0,0,2,,,,,,,,,,,,,,,0,,,63,52
20880,note_on,0,0,1,,,,,,,,,,,,,,,0,,,73,44
20880,note_on,240,0,2,,,,,,,,,,,,,,,0,,,65,0
20880,note_on,0,0,1,,,,,,,,,,,,,,,0,,,82,52
21000,note_on,120,0,1,,,,,,,,,,,,,,,0,,,82,0
21000,note_on,0,0,1,,,,,,,,,,,,,,,0,,,85,46
21000,note_on,0,0,1,,,,,,,,,,,,,,,0,,,73,0
21120,note_on,120,0,1,,,,,,,,,,,,,,,0,,,85,0
21120,note_on,0,0,1,,,,,,,,,,,,,,,0,,,73,47
21120,note_on,0,0,1,,,,,,,,,,,,,,,0,,,82,56
21120,note_on,0,0,2,,,,,,,,,,,,,,,0,,,58,50
21120,note_on,240,0,2,,,,,,,,,,,,,,,0,,,63,0
21120,set_tempo,240,1,0,,,,,,,,,,,,472962,,,,,,,
21240,note_on,0,0,1,,,,,,,,,,,,,,,0,,,85,47
21240,note_on,0,0,1,,,,,,,,,,,,,,,0,,,73,0
21240,note_on,120,0,1,,,,,,,,,,,,,,,0,,,82,0
21360,note_on,0,0,1,,,,,,,,,,,,,,,0,,,82,58
21360,note_on,0,0,1,,,,,,,,,,,,,,,0,,,73,49
21360,note_on,120,0,1,,,,,,,,,,,,,,,0,,,85,0
21360,note_on,240,0,2,,,,,,,,,,,,,,,0,,,58,0
21360,note_on,0,0,2,,,,,,,,,,,,,,,0,,,60,52
21480,note_on,120,0,1,,,,,,,,,,,,,,,0,,,82,0
21480,note_on,0,0,1,,,,,,,,,,,,,,,0,,,73,0
21480,note_on,0,0,1,,,,,,,,,,,,,,,0,,,85,51
21480,set_tempo,360,1,0,,,,,,,,,,,,483014,,,,,,,
21540,note_on,180,0,2,,,,,,,,,,,,,,,0,,,63,49
21600,note_on,0,0,2,,,,,,,,,,,,,,,0,,,54,0
21600,note_on,0,0,2,,,,,,,,,,,,,,,0,,,61,52
21600,note_on,60,0,2,,,,,,,,,,,,,,,0,,,63,0
21600,note_on,0,0,2,,,,,,,,,,,,,,,0,,,56,44
21600,note_on,0,0,2,,,,,,,,,,,,,,,0,,,60,0
21600,note_on,0,0,1,,,,,,,,,,,,,,,0,,,73,44
21600,note_on,120,0,1,,,,,,,,,,,,,,,0,,,85,0
21600,set_tempo,120,1,0,,,,,,,,,,,,474608,,,,,,,
21600,note_on,0,0,1,,,,,,,,,,,,,,,0,,,77,52
21720,note_on,120,0,1,,,,,,,,,,,,,,,0,,,77,0
21720,note_on,0,0,1,,,,,,,,,,,,,,,0,,,80,45
21720,note_on,0,0,1,,,,,,,,,,,,,,,0,,,73,0
21840,note_on,0,0,2,,,,,,,,,,,,,,,0,,,60,45
21840,note_on,0,0,1,,,,,,,,,,,,,,,0,,,77,50
21840,note_on,0,0,1,,,,,,,,,,,,,,,0,,,73,42
21840,note_on,120,0,1,,,,,,,,,,,,,,,0,,,80,0
21840,note_on,240,0,2,,,,,,,,,,,,,,,0,,,61,0
21960,note_on,0,0,1,,,,,,,,,,,,,,,0,,,80,41
21960,note_on,0,0,1,,,,,,,,,,,,,,,0,,,73,0
21960,note_on,120,0,1,,,,,,,,,,,,,,,0,,,77,0
22080,note_on,0,0,2,,,,,,,,,,,,,,,0,,,61,42
22080,note_on,0,0,1,,,,,,,,,,,,,,,0,,,73,40
22080,note_on,120,0,1,,,,,,,,,,,,,,,0,,,80,0
22080,note_on,240,0,2,,,,,,,,,,,,,,,0,,,60,0
22080,note_on,0,0,1,,,,,,,,,,,,,,,0,,,77,48
22200,note_on,0,0,1,,,,,,,,,,,,,,,0,,,80,39
22200,note_on,120,0,1,,,,,,,,,,,,,,,0,,,77,0
22200,note_on,0,0,1,,,,,,,,,,,,,,,0,,,73,0
22320,set_tempo,720,1,0,,,,,,,,,,,,472776,,,,,,,
22320,note_on,0,0,1,,,,,,,,,,,,,,,0,,,78,44
22320,note_on,120,0,1,,,,,,,,,,,,,,,0,,,80,0
22320,note_on,240,0,2,,,,,,,,,,,,,,,0,,,61,0
22320,note_on,0,0,2,,,,,,,,,,,,,,,0,,,63,44
22320,note_on,0,0,1,,,,,,,,,,,,,,,0,,,72,37
22430,set_tempo,110,1,0,,,,,,,,,,,,474608,,,,,,,
22440,note_on,120,0,1,,,,,,,,,,,,,,,0,,,78,0
22440,note_on,0,0,1,,,,,,,,,,,,,,,0,,,72,0
22440,note_on,0,0,1,,,,,,,,,,,,,,,0,,,80,38
22530,set_tempo,100,1,0,,,,,,,,,,,,476531,,,,,,,
22560,note_on,0,0,1,,,,,,,,,,,,,,,0,,,72,37
22560,note_on,0,0,1,,,,,,,,,,,,,,,0,,,78,45
22560,note_on,120,0,1,,,,,,,,,,,,,,,0,,,80,0
22630,set_tempo,100,1,0,,,,,,,,,,,,478354,,,,,,,
22680,note_on,0,0,1,,,,,,,,,,,,,,,0,,,80,37
22680,note_on,120,0,1,,,,,,,,,,,,,,,0,,,78,0
22680,note_on,0,0,1,,,,,,,,,,,,,,,0,,,72,0
22740,set_tempo,110,1,0,,,,,,,,,,,,480384,,,,,,,
22800,note_on,0,0,2,,,,,,,,,,,,,,,0,,,64,40
22800,note_on,480,0,2,,,,,,,,,,,,,,,0,,,63,0
22800,note_on,0,0,1,,,,,,,,,,,,,,,0,,,78,45
22800,note_on,0,0,1,,,,,,,,,,,,,,,0,,,72,37
22800,note_on,120,0,1,,,,,,,,,,,,,,,0,,,80,0
22840,set_tempo,100,1,0,,,,,,,,,,,,482199,,,,,,,
22920,note_on,0,0,1,,,,,,,,,,,,,,,0,,,72,0
22920,note_on,0,0,1,,,,,,,,,,,,,,,0,,,80,38
22920,note_on,120,0,1,,,,,,,,,,,,,,,0,,,78,0
22940,set_tempo,100,1,0,,,,,,,,,,,,484183,,,,,,,
23040,note_on,0,0,2,,,,,,,,,,,,,,,0,,,56,0
23040,note_on,0,0,2,,,,,,,,,,,,,,,0,,,61,35
23040,note_on,0,0,2,,,,,,,,,,,,,,,0,,,65,41
23040,note_on,240,0,2,,,,,,,,,,,,,,,0,,,64,0
23040,note_on,0,0,1,,,,,,,,,,,,,,,0,,,73,37
23040,note_on,0,0,1,,,,,,,,,,,,,,,0,,,77,37
23040,note_on,120,0,1,,,,,,,,,,,,,,,0,,,80,0
23040,note_on,0,0,1,,,,,,,,,,,,,,,0,,,80,44
23100,note_on,0,0,2,,,,,,,,,,,,,,,0,,,61,0
23100,note_on,60,0,2,,,,,,,,,,,,,,,0,,,65,0
23280,note_on,180,0,2,,,,,,,,,,,,,,,0,,,49,33
23280,note_on,240,0,1,,,,,,,,,,,,,,,0,,,80,0
23280,note_on,0,0,1,,,,,,,,,,,,,,,0,,,77,0
23280,note_on,0,0,1,,,,,,,,,,,,,,,0,,,73,0
23280,set_tempo,340,1,0,,,,,,,,,,,,489277,,,,,,,
23340,note_on,60,0,2,,,,,,,,,,,,,,,0,,,49,0
23520,note_on,180,0,2,,,,,,,,,,,,,,,0,,,49,33
23520,set_tempo,240,1,0,,,,,,,,,,,,504498,,,,,,,
23580,note_on,60,0,2,,,,,,,,,,,,,,,0,,,49,0
23760,set_tempo,240,1,0,,,,,,,,,,,,483014,,,,,,,
23760,note_on,180,0,2,,,,,,,,,,,,,,,0,,,61,31
23763,note_on,3,0,2,,,,,,,,,,,,,,,0,,,65,38
23820,note_on,57,0,2,,,,,,,,,,,,,,,0,,,61,0
23823,note_on,3,0,2,,,,,,,,,,,,,,,0,,,65,0
24000,note_on,177,0,2,,,,,,,,,,,,,,,0,,,49,33
24000,set_tempo,240,1,0,,,,,,,,,,,,491400,,,,,,,
24060,note_on,60,0,2,,,,,,,,,,,,,,,0,,,49,0
24240,note_on,180,0,2,,,,,,,,,,,,,,,0,,,49,33
24240,set_tempo,240,1,0,,,,,,,,,,,,502260,,,,,,,
24300,note_on,60,0,2,,,,,,,,,,,,,,,0,,,49,0
24420,note_on,1140,0,1,,,,,,,,,,,,,,,0,,,73,48
24450,note_on,30,0,1,,,,,,,,,,,,,,,0,,,77,48
24480,set_tempo,240,1,0,,,,,,,,,,,,467108,,,,,,,
24480,note_on,30,0,1,,,,,,,,,,,,,,,0,,,80,60
24480,note_on,180,0,2,,,,,,,,,,,,,,,0,,,61,33
24480,note_on,0,0,2,,,,,,,,,,,,,,,0,,,65,39
24540,note_on,0,0,2,,,,,,,,,,,,,,,0,,,61,0
24540,note_on,60,0,2,,,,,,,,,,,,,,,0,,,65,0
24600,note_on,0,0,1,,,,,,,,,,,,,,,0,,,77,0
24600,note_on,0,0,1,,,,,,,,,,,,,,,0,,,73,0
24600,note_on,120,0,1,,,,,,,,,,,,,,,0,,,80,0
24720,set_tempo,240,1,0,,,,,,,,,,,,461432,,,,,,,
24720,note_on,180,0,2,,,,,,,,,,,,,,,0,,,49,33
24720,note_on,120,0,1,,,,,,,,,,,,,,,0,,,78,48
24780,note_on,60,0,2,,,,,,,,,,,,,,,0,,,49,0
24840,note_on,120,0,1,,,,,,,,,,,,,,,0,,,78,0
24840,note_on,0,0,1,,,,,,,,,,,,,,,0,,,77,48
24960,note_on,0,0,1,,,,,,,,,,,,,,,0,,,75,48
24960,note_on,180,0,2,,,,,,,,,,,,,,,0,,,49,33
24960,set_tempo,240,1,0,,,,,,,,,,,,483014,,,,,,,
24960,note_on,120,0,1,,,,,,,,,,,,,,,0,,,77,0
25020,note_on,60,0,2,,,,,,,,,,,,,,,0,,,49,0
25080,note_on,0,0,1,,,,,,,,,,,,,,,0,,,73,48
25080,note_on,120,0,1,,,,,,,,,,,,,,,0,,,75,0
25140,note_on,60,0,1,,,,,,,,,,,,,,,0,,,68,48
25170,note_on,30,0,1,,,,,,,,,,,,,,,0,,,72,48
25200,note_on,0,0,2,,,,,,,,,,,,,,,0,,,66,40
25200,note_on,180,0,2,,,,,,,,,,,,,,,0,,,61,34
25200,note_on,0,0,1,,,,,,,,,,,,,,,0,,,75,58
25200,note_on,30,0,1,,,,,,,,,,,,,,,0,,,73,0
25200,set_tempo,240,1,0,,,,,,,,,,,,465224,,,,,,,
25260,note_on,60,0,2,,,,,,,,,,,,,,,0,,,66,0
25260,note_on,0,0,2,,,,,,,,,,,,,,,0,,,61,0
25320,note_on,0,0,1,,,,,,,,,,,,,,,0,,,68,0
25320,note_on,0,0,1,,,,,,,,,,,,,,,0,,,72,0
25320,note_on,120,0,1,,,,,,,,,,,,,,,0,,,75,0
25440,note_on,120,0,1,,,,,,,,,,,,,,,0,,,73,48
25440,set_tempo,240,1,0,,,,,,,,,,,,461432,,,,,,,
25440,note_on,180,0,2,,,,,,,,,,,,,,,0,,,49,33
25500,note_on,60,0,2,,,,,,,,,,,,,,,0,,,49,0
25560,note_on,120,0,1,,,,,,,,,,,,,,,0,,,73,0
25560,note_on,0,0,1,,,,,,,,,,,,,,,0,,,72,48
25680,note_on,180,0,2,,,,,,,,,,,,,,,0,,,49,33
25680,set_tempo,240,1,0,,,,,,,,,,,,478965,,,,,,,
25680,note_on,120,0,1,,,,,,,,,,,,,,,0,,,72,0
25680,note_on,0,0,1,,,,,,,,,,,,,,,0,,,70,48
25740,note_on,60,0,2,,,,,,,,,,,,,,,0,,,49,0
25800,note_on,120,0,1,,,,,,,,,,,,,,,0,,,70,0
25800,note_on,0,0,1,,,,,,,,,,,,,,,0,,,68,48
25860,note_on,60,0,1,,,,,,,,,,,,,,,0,,,73,48
25890,note_on,30,0,1,,,,,,,,,,,,,,,0,,,77,48
25920,set_tempo,240,1,0,,,,,,,,,,,,487171,,,,,,,
25920,note_on,0,0,1,,,,,,,,,,,,,,,0,,,80,63
25920,note_on,30,0,1,,,,,,,,,,,,,,,0,,,68,0
25920,note_on,180,0,2,,,,,,,,,,,,,,,0,,,61,33
25920,note_on,0,0,2,,,,,,,,,,,,,,,0,,,65,39
25980,note_on,0,0,2,,,,,,,,,,,,,,,0,,,61,0
25980,note_on,60,0,2,,,,,,,,,,,,,,,0,,,65,0
26040,note_on,0,0,1,,,,,,,,,,,,,,,0,,,77,0
26040,note_on,120,0,1,,,,,,,,,,,,,,,0,,,80,0
26040,note_on,0,0,1,,,,,,,,,,,,,,,0,,,73,0
26160,note_on,180,0,2,,,,,,,,,,,,,,,0,,,49,34
26160,note_on,120,0,1,,,,,,,,,,,,,,,0,,,78,50
26160,set_tempo,240,1,0,,,,,,,,,,,,461432,,,,,,,
26220,note_on,60,0,2,,,,,,,,,,,,,,,0,,,49,0
26280,note_on,120,0,1,,,,,,,,,,,,,,,0,,,78,0
26280,note_on,0,0,1,,,,,,,,,,,,,,,0,,,77,53
26400,note_on,0,0,1,,,,,,,,,,,,,,,0,,,75,56
26400,note_on,120,0,1,,,,,,,,,,,,,,,0,,,77,0
26400,note_on,180,0,2,,,,,,,,,,,,,,,0,,,49,39
26460,note_on,60,0,2,,,,,,,,,,,,,,,0,,,49,0
26520,note_on,120,0,1,,,,,,,,,,,,,,,0,,,75,0
26520,note_on,0,0,1,,,,,,,,,,,,,,,0,,,73,60
26640,note_on,180,0,2,,,,,,,,,,,,,,,0,,,61,37
26640,set_tempo,480,1,0,,,,,,,,,,,,478965,,,,,,,
26640,note_on,0,0,2,,,,,,,,,,,,,,,0,,,66,45
26640,note_on,120,0,1,,,,,,,,,,,,,,,0,,,73,0
26640,note_on,0,0,1,,,,,,,,,,,,,,,0,,,85,68
26640,note_on,0,0,1,,,,,,,,,,,,,,,0,,,78,68
26640,note_on,0,0,1,,,,,,,,,,,,,,,0,,,82,68
26700,note_on,0,0,1,,,,,,,,,,,,,,,0,,,82,0
26700,note_on,0,0,2,,,,,,,,,,,,,,,0,,,61,0
26700,note_on,60,0,2,,,,,,,,,,,,,,,0,,,66,0
26700,note_on,60,0,1,,,,,,,,,,,,,,,0,,,78,0
26700,note_on,0,0,1,,,,,,,,,,,,,,,0,,,85,0
26720,set_tempo,80,1,0,,,,,,,,,,,,480962,,,,,,,
26800,set_tempo,80,1,0,,,,,,,,,,,,483014,,,,,,,
26880,set_tempo,80,1,0,,,,,,,,,,,,485084,,,,,,,
26880,note_on,180,0,2,,,,,,,,,,,,,,,0,,,49,33
26880,note_on,0,0,1,,,,,,,,,,,,,,,0,,,85,61
26880,note_on,0,0,1,,,,,,,,,,,,,,,0,,,82,61
26880,note_on,180,0,1,,,,,,,,,,,,,,,0,,,78,61
26940,note_on,60,0,1,,,,,,,,,,,,,,,0,,,85,0
26940,note_on,60,0,2,,,,,,,,,,,,,,,0,,,49,0
26940,note_on,0,0,1,,,,,,,,,,,,,,,0,,,82,0
26940,note_on,0,0,1,,,,,,,,,,,,,,,0,,,78,0
26960,set_tempo,80,1,0,,,,,,,,,,,,487171,,,,,,,
27040,set_tempo,80,1,0,,,,,,,,,,,,489277,,,,,,,
27120,note_on,0,0,1,,,,,,,,,,,,,,,0,,,85,61
27120,set_tempo,80,1,0,,,,,,,,,,,,491400,,,,,,,
27120,note_on,180,0,1,,,,,,,,,,,,,,,0,,,78,61
27120,note_on,0,0,1,,,,,,,,,,,,,,,0,,,82,61
27120,note_on,180,0,2,,,,,,,,,,,,,,,0,,,49,33
27180,note_on,0,0,1,,,,,,,,,,,,,,,0,,,78,0
27180,note_on,0,0,1,,,,,,,,,,,,,,,0,,,82,0
27180,note_on,60,0,1,,,,,,,,,,,,,,,0,,,85,0
27180,note_on,60,0,2,,,,,,,,,,,,,,,0,,,49,0
27360,set_tempo,240,1,0,,,,,,,,,,,,467108,,,,,,,
27360,note_on,0,0,2,,,,,,,,,,,,,,,0,,,66,39
27360,note_on,0,0,2,,,,,,,,,,,,,,,0,,,61,33
27360,note_on,180,0,2,,,,,,,,,,,,,,,0,,,58,33
27394,control_change,34,0,2,,,,,,,,,,,,,,,0,64,127,,
27600,note_on,0,0,2,,,,,,,,,,,,,,,0,,,61,0
27600,note_on,0,0,2,,,,,,,,,,,,,,,0,,,58,0
27600,note_on,0,0,2,,,,,,,,,,,,,,,0,,,49,30
27600,note_on,206,0,2,,,,,,,,,,,,,,,0,,,66,0
27600,set_tempo,240,1,0,,,,,,,,,,,,478965,,,,,,,
27840,note_on,0,0,2,,,,,,,,,,,,,,,0,,,49,30
27840,note_on,240,0,2,,,,,,,,,,,,,,,0,,,49,0
27840,set_tempo,240,1,0,,,,,,,,,,,,489277,,,,,,,
28080,set_tempo,240,1,0,,,,,,,,,,,,465224,,,,,,,
28080,note_on,240,0,2,,,,,,,,,,,,,,,0,,,49,0
28080,note_on,0,0,2,,,,,,,,,,,,,,,0,,,66,36
28080,note_on,0,0,2,,,,,,,,,,,,,,,0,,,58,30
28080,note_on,0,0,2,,,,,,,,,,,,,,,0,,,61,30
28091,control_change,11,0,2,,,,,,,,,,,,,,,0,64,0,,
28137,control_change,46,0,2,,,,,,,,,,,,,,,0,64,127,,
28320,set_tempo,240,1,0,,,,,,,,,,,,478965,,,,,,,
28320,note_on,0,0,2,,,,,,,,,,,,,,,0,,,49,30
28320,note_on,0,0,2,,,,,,,,,,,,,,,0,,,58,0
28320,note_on,0,0,2,,,,,,,,,,,,,,,0,,,61,0
28320,note_on,183,0,2,,,,,,,,,,,,,,,0,,,66,0
28560,note_on,0,0,2,,,,,,,,,,,,,,,0,,,49,30
28560,note_on,240,0,2,,,,,,,,,,,,,,,0,,,49,0
28600,set_tempo,280,1,0,,,,,,,,,,,,491400,,,,,,,
28800,note_on,1620,0,1,,,,,,,,,,,,,,,0,,,65,58
28800,control_change,0,0,2,,,,,,,,,,,,,,,0,64,0,,
28800,set_tempo,200,1,0,,,,,,,,,,,,478965,,,,,,,
28800,note_on,240,0,2,,,,,,,,,,,,,,,0,,,49,0
28800,note_on,0,0,2,,,,,,,,,,,,,,,0,,,56,29
28800,note_on,0,0,2,,,,,,,,,,,,,,,0,,,61,35
28937,control_change,137,0,2,,,,,,,,,,,,,,,0,64,127,,
28980,set_tempo,180,1,0,,,,,,,,,,,,433244,,,,,,,
28980,note_on,180,0,1,,,,,,,,,,,,,,,0,,,68,38
29040,set_tempo,60,1,0,,,,,,,,,,,,472962,,,,,,,
29040,note_on,0,0,2,,,,,,,,,,,,,,,0,,,56,0
29040,note_on,0,0,2,,,,,,,,,,,,,,,0,,,49,29
29040,note_on,60,0,1,,,,,,,,,,,,,,,0,,,68,0
29040,note_on,0,0,1,,,,,,,,,,,,,,,0,,,65,0
29040,note_on,103,0,2,,,,,,,,,,,,,,,0,,,61,0
29040,note_on,0,0,1,,,,,,,,,,,,,,,0,,,66,49
29280,note_on,0,0,1,,,,,,,,,,,,,,,0,,,65,49
29280,note_on,240,0,2,,,,,,,,,,,,,,,0,,,49,0
29280,note_on,0,0,2,,,,,,,,,,,,,,,0,,,49,29
29280,note_on,240,0,1,,,,,,,,,,,,,,,0,,,66,0
29520,note_on,0,0,2,,,,,,,,,,,,,,,0,,,54,30
29520,control_change,0,0,2,,,,,,,,,,,,,,,0,64,0,,
29520,note_on,0,0,2,,,,,,,,,,,,,,,0,,,58,36
29520,note_on,240,0,1,,,,,,,,,,,,,,,0,,,65,0
29520,note_on,0,0,1,,,,,,,,,,,,,,,0,,,63,57
29520,set_tempo,480,1,0,,,,,,,,,,,,467108,,,,,,,
29520,note_on,240,0,2,,,,,,,,,,,,,,,0,,,49,0
29566,control_change,46,0,2,,,,,,,,,,,,,,,0,64,127,,
29760,note_on,0,0,1,,,,,,,,,,,,,,,0,,,65,49
29760,note_on,0,0,2,,,,,,,,,,,,,,,0,,,42,29
29760,set_tempo,240,1,0,,,,,,,,,,,,457701,,,,,,,
29760,note_on,0,0,2,,,,,,,,,,,,,,,0,,,54,0
29760,note_on,194,0,2,,,,,,,,,,,,,,,0,,,58,0
29760,note_on,240,0,1,,,,,,,,,,,,,,,0,,,63,0
29789,control_change,29,0,2,,,,,,,,,,,,,,,0,64,0,,
29846,control_change,57,0,2,,,,,,,,,,,,,,,0,64,127,,
29880,note_on,120,0,1,,,,,,,,,,,,,,,0,,,65,0
29880,note_on,0,0,1,,,,,,,,,,,,,,,0,,,66,49
29920,set_tempo,160,1,0,,,,,,,,,,,,455858,,,,,,,
30000,note_on,154,0,2,,,,,,,,,,,,,,,0,,,42,0
30000,note_on,0,0,2,,,,,,,,,,,,,,,0,,,42,29
30000,note_on,120,0,1,,,,,,,,,,,,,,,0,,,66,0
30000,note_on,0,0,1,,,,,,,,,,,,,,,0,,,68,51
30080,set_tempo,160,1,0,,,,,,,,,,,,454030,,,,,,,
30120,note_on,120,0,1,,,,,,,,,,,,,,,0,,,68,0
30120,note_on,0,0,1,,,,,,,,,,,,,,,0,,,70,52
30200,set_tempo,120,1,0,,,,,,,,,,,,452216,,,,,,,
30240,set_tempo,40,1,0,,,,,,,,,,,,465224,,,,,,,
30240,note_on,120,0,1,,,,,,,,,,,,,,,0,,,70,0
30240,note_on,240,0,2,,,,,,,,,,,,,,,0,,,42,0
30240,note_on,0,0,2,,,,,,,,,,,,,,,0,,,66,35
30240,note_on,0,0,2,,,,,,,,,,,,,,,0,,,63,29
30240,control_change,0,0,2,,,,,,,,,,,,,,,0,64,0,,
30240,note_on,0,0,1,,,,,,,,,,,,,,,0,,,72,62
30280,control_change,40,0,2,,,,,,,,,,,,,,,0,64,127,,
30480,note_on,200,0,2,,,,,,,,,,,,,,,0,,,66,0
30480,note_on,0,0,2,,,,,,,,,,,,,,,0,,,63,0
30480,note_on,0,0,2,,,,,,,,,,,,,,,0,,,56,29
30480,set_tempo,240,1,0,,,,,,,,,,,,457701,,,,,,,
30480,note_on,0,0,1,,,,,,,,,,,,,,,0,,,70,59
30480,note_on,240,0,1,,,,,,,,,,,,,,,0,,,72,0
30503,control_change,23,0,2,,,,,,,,,,,,,,,0,64,0,,
30526,control_change,23,0,2,,,,,,,,,,,,,,,0,64,127,,
30600,note_on,120,0,1,,,,,,,,,,,,,,,0,,,70,0
30600,note_on,0,0,1,,,,,,,,,,,,,,,0,,,72,55
30720,note_on,120,0,1,,,,,,,,,,,,,,,0,,,72,0
30720,note_on,0,0,1,,,,,,,,,,,,,,,0,,,73,57
30720,note_on,194,0,2,,,,,,,,,,,,,,,0,,,56,0
30720,note_on,0,0,2,,,,,,,,,,,,,,,0,,,56,29
30840,note_on,120,0,1,,,,,,,,,,,,,,,0,,,73,0
30840,note_on,0,0,1,,,,,,,,,,,,,,,0,,,75,59
30960,note_on,240,0,2,,,,,,,,,,,,,,,0,,,56,0
30960,set_tempo,480,1,0,,,,,,,,,,,,483014,,,,,,,
30960,note_on,120,0,1,,,,,,,,,,,,,,,0,,,75,0
30960,note_on,0,0,1,,,,,,,,,,,,,,,0,,,77,63
30960,control_change,0,0,2,,,,,,,,,,,,,,,0,64,0,,
30960,note_on,0,0,2,,,,,,,,,,,,,,,0,,,65,35
30960,note_on,0,0,2,,,,,,,,,,,,,,,0,,,61,29
31020,note_on,60,0,1,,,,,,,,,,,,,,,0,,,77,0
31200,note_on,180,0,1,,,,,,,,,,,,,,,0,,,77,53
31200,note_on,240,0,2,,,,,,,,,,,,,,,0,,,61,0
31200,note_on,0,0,2,,,,,,,,,,,,,,,0,,,65,0
31200,note_on,0,0,2,,,,,,,,,,,,,,,0,,,49,29
31260,note_on,60,0,1,,,,,,,,,,,,,,,0,,,77,0
31440,note_on,0,0,2,,,,,,,,,,,,,,,0,,,49,29
31440,set_tempo,480,1,0,,,,,,,,,,,,474608,,,,,,,
31440,note_on,180,0,1,,,,,,,,,,,,,,,0,,,77,52
31440,note_on,240,0,2,,,,,,,,,,,,,,,0,,,49,0
31500,note_on,60,0,1,,,,,,,,,,,,,,,0,,,77,0
31680,note_on,240,0,2,,,,,,,,,,,,,,,0,,,49,0
31680,note_on,0,0,2,,,,,,,,,,,,,,,0,,,61,30
31680,note_on,0,0,2,,,,,,,,,,,,,,,0,,,65,36
31680,set_tempo,240,1,0,,,,,,,,,,,,485084,,,,,,,
31740,note_on,60,0,2,,,,,,,,,,,,,,,0,,,65,0
31740,note_on,0,0,2,,,,,,,,,,,,,,,0,,,61,0
31920,set_tempo,240,1,0,,,,,,,,,,,,491400,,,,,,,
31920,note_on,180,0,2,,,,,,,,,,,,,,,0,,,49,30
31980,note_on,60,0,2,,,,,,,,,,,,,,,0,,,49,0
32160,set_tempo,240,1,0,,,,,,,,,,,,504498,,,,,,,
32160,note_on,180,0,2,,,,,,,,,,,,,,,0,,,49,30
32220,note_on,60,0,2,,,,,,,,,,,,,,,0,,,49,0
32400,note_on,180,0,2,,,,,,,,,,,,,,,0,,,61,30
32400,set_tempo,240,1,0,,,,,,,,,,,,483014,,,,,,,
32403,note_on,3,0,2,,,,,,,,,,,,,,,0,,,65,37
32460,note_on,57,0,2,,,,,,,,,,,,,,,0,,,61,0
32463,note_on,3,0,2,,,,,,,,,,,,,,,0,,,65,0
32640,set_tempo,240,1,0,,,,,,,,,,,,491400,,,,,,,
32640,note_on,177,0,2,,,,,,,,,,,,,,,0,,,49,33
32700,note_on,60,0,2,,,,,,,,,,,,,,,0,,,49,0
32880,note_on,180,0,2,,,,,,,,,,,,,,,0,,,49,33
32880,set_tempo,240,1,0,,,,,,,,,,,,502260,,,,,,,
32940,note_on,60,0,2,,,,,,,,,,,,,,,0,,,49,0
33060,note_on,1560,0,1,,,,,,,,,,,,,,,0,,,73,48
33090,note_on,30,0,1,,,,,,,,,,,,,,,0,,,77,48
33120,note_on,180,0,2,,,,,,,,,,,,,,,0,,,61,33
33120,set_tempo,240,1,0,,,,,,,,,,,,470995,,,,,,,
33120,note_on,30,0,1,,,,,,,,,,,,,,,0,,,80,60
33120,note_on,0,0,2,,,,,,,,,,,,,,,0,,,65,39
33180,note_on,60,0,2,,,,,,,,,,,,,,,0,,,65,0
33180,note_on,0,0,2,,,,,,,,,,,,,,,0,,,61,0
33240,note_on,0,0,1,,,,,,,,,,,,,,,0,,,73,0
33240,note_on,0,0,1,,,,,,,,,,,,,,,0,,,77,0
33240,note_on,120,0,1,,,,,,,,,,,,,,,0,,,80,0
33360,note_on,180,0,2,,,,,,,,,,,,,,,0,,,49,33
33360,set_tempo,240,1,0,,,,,,,,,,,,461432,,,,,,,
33360,note_on,120,0,1,,,,,,,,,,,,,,,0,,,78,48
33420,note_on,60,0,2,,,,,,,,,,,,,,,0,,,49,0
33480,note_on,0,0,1,,,,,,,,,,,,,,,0,,,77,48
33480,note_on,120,0,1,,,,,,,,,,,,,,,0,,,78,0
33600,note_on,0,0,1,,,,,,,,,,,,,,,0,,,75,48
33600,note_on,180,0,2,,,,,,,,,,,,,,,0,,,49,33
33600,note_on,120,0,1,,,,,,,,,,,,,,,0,,,77,0
33600,set_tempo,240,1,0,,,,,,,,,,,,476948,,,,,,,
33660,note_on,60,0,2,,,,,,,,,,,,,,,0,,,49,0
33720,note_on,120,0,1,,,,,,,,,,,,,,,0,,,75,0
33720,note_on,0,0,1,,,,,,,,,,,,,,,0,,,73,48
33780,note_on,60,0,1,,,,,,,,,,,,,,,0,,,68,48
33810,note_on,30,0,1,,,,,,,,,,,,,,,0,,,72,48
33840,set_tempo,240,1,0,,,,,,,,,,,,465224,,,,,,,
33840,note_on,0,0,1,,,,,,,,,,,,,,,0,,,75,58
33840,note_on,30,0,1,,,,,,,,,,,,,,,0,,,73,0
33840,note_on,180,0,2,,,,,,,,,,,,,,,0,,,61,34
33840,note_on,0,0,2,,,,,,,,,,,,,,,0,,,66,40
33900,note_on,60,0,2,,,,,,,,,,,,,,,0,,,66,0
33900,note_on,0,0,2,,,,,,,,,,,,,,,0,,,61,0
33960,note_on,0,0,1,,,,,,,,,,,,,,,0,,,68,0
33960,note_on,0,0,1,,,,,,,,,,,,,,,0,,,72,0
33960,note_on,120,0,1,,,,,,,,,,,,,,,0,,,75,0
34080,set_tempo,240,1,0,,,,,,,,,,,,461432,,,,,,,
34080,note_on,120,0,1,,,,,,,,,,,,,,,0,,,73,48
34080,note_on,180,0,2,,,,,,,,,,,,,,,0,,,49,33
34140,note_on,60,0,2,,,,,,,,,,,,,,,0,,,49,0
34200,note_on,0,0,1,,,,,,,,,,,,,,,0,,,72,48
34200,note_on,120,0,1,,,,,,,,,,,,,,,0,,,73,0
34320,note_on,0,0,1,,,,,,,,,,,,,,,0,,,70,48
34320,note_on,120,0,1,,,,,,,,,,,,,,,0,,,72,0
34320,note_on,180,0,2,,,,,,,,,,,,,,,0,,,49,33
34320,set_tempo,240,1,0,,,,,,,,,,,,480962,,,,,,,
34380,note_on,60,0,2,,,,,,,,,,,,,,,0,,,49,0
34440,note_on,0,0,1,,,,,,,,,,,,,,,0,,,68,48
34440,note_on,120,0,1,,,,,,,,,,,,,,,0,,,70,0
34500,note_on,60,0,1,,,,,,,,,,,,,,,0,,,73,48
34530,note_on,30,0,1,,,,,,,,,,,,,,,0,,,77,48
34560,note_on,180,0,2,,,,,,,,,,,,,,,0,,,61,33
34560,note_on,30,0,1,,,,,,,,,,,,,,,0,,,68,0
34560,note_on,0,0,1,,,,,,,,,,,,,,,0,,,80,63
34560,note_on,0,0,2,,,,,,,,,,,,,,,0,,,65,39
34560,set_tempo,240,1,0,,,,,,,,,,,,487171,,,,,,,
34620,note_on,60,0,2,,,,,,,,,,,,,,,0,,,65,0
34620,note_on,0,0,2,,,,,,,,,,,,,,,0,,,61,0
34680,note_on,120,0,1,,,,,,,,,,,,,,,0,,,80,0
34680,note_on,0,0,1,,,,,,,,,,,,,,,0,,,77,0
34680,note_on,0,0,1,,,,,,,,,,,,,,,0,,,73,0
34800,set_tempo,240,1,0,,,,,,,,,,,,461432,,,,,,,
34800,note_on,120,0,1,,,,,,,,,,,,,,,0,,,78,50
34800,note_on,180,0,2,,,,,,,,,,,,,,,0,,,49,34
34860,note_on,60,0,2,,,,,,,,,,,,,,,0,,,49,0
34920,note_on,0,0,1,,,,,,,,,,,,,,,0,,,77,53
34920,note_on,120,0,1,,,,,,,,,,,,,,,0,,,78,0
35040,note_on,0,0,1,,,,,,,,,,,,,,,0,,,75,56
35040,note_on,180,0,2,,,,,,,,,,,,,,,0,,,49,39
35040,note_on,120,0,1,,,,,,,,,,,,,,,0,,,77,0
35100,note_on,60,0,2,,,,,,,,,,,,,,,0,,,49,0
35160,note_on,120,0,1,,,,,,,,,,,,,,,0,,,75,0
35160,note_on,0,0,1,,,,,,,,,,,,,,,0,,,73,60
35280,note_on,0,0,1,,,,,,,,,,,,,,,0,,,78,68
35280,set_tempo,480,1,0,,,,,,,,,,,,485084,,,,,,,
35280,note_on,0,0,2,,,,,,,,,,,,,,,0,,,66,45
35280,note_on,180,0,2,,,,,,,,,,,,,,,0,,,61,37
35280,note_on,0,0,1,,,,,,,,,,,,,,,0,,,81,68
35280,note_on,0,0,1,,,,,,,,,,,,,,,0,,,85,68
35280,note_on,120,0,1,,,,,,,,,,,,,,,0,,,73,0
35340,note_on,60,0,1,,,,,,,,,,,,,,,0,,,78,0
35340,note_on,0,0,2,,,,,,,,,,,,,,,0,,,61,0
35340,note_on,0,0,1,,,,,,,,,,,,,,,0,,,81,0
35340,note_on,0,0,1,,,,,,,,,,,,,,,0,,,85,0
35340,note_on,60,0,2,,,,,,,,,,,,,,,0,,,66,0
35520,note_on,0,0,1,,,,,,,,,,,,,,,0,,,85,61
35520,note_on,0,0,1,,,,,,,,,,,,,,,0,,,81,61
35520,note_on,180,0,1,,,,,,,,,,,,,,,0,,,78,61
35520,note_on,180,0,2,,,,,,,,,,,,,,,0,,,49,33
35580,note_on,0,0,1,,,,,,,,,,,,,,,0,,,81,0
35580,note_on,60,0,1,,,,,,,,,,,,,,,0,,,85,0
35580,note_on,60,0,2,,,,,,,,,,,,,,,0,,,49,0
35580,note_on,0,0,1,,,,,,,,,,,,,,,0,,,78,0
35760,note_on,0,0,1,,,,,,,,,,,,,,,0,,,85,61
35760,set_tempo,480,1,0,,,,,,,,,,,,493543,,,,,,,
35760,note_on,0,0,1,,,,,,,,,,,,,,,0,,,81,61
35760,note_on,180,0,1,,,,,,,,,,,,,,,0,,,78,61
35760,note_on,180,0,2,,,,,,,,,,,,,,,0,,,49,33
35820,note_on,60,0,2,,,,,,,,,,,,,,,0,,,49,0
35820,note_on,0,0,1,,,,,,,,,,,,,,,0,,,81,0
35820,note_on,60,0,1,,,,,,,,,,,,,,,0,,,85,0
35820,note_on,0,0,1,,,,,,,,,,,,,,,0,,,78,0
36000,set_tempo,240,1,0,,,,,,,,,,,,467108,,,,,,,
36000,note_on,180,0,2,,,,,,,,,,,,,,,0,,,57,33
36000,note_on,0,0,2,,,,,,,,,,,,,,,0,,,61,33
36000,note_on,0,0,2,,,,,,,,,,,,,,,0,,,66,39
36034,control_change,34,0,2,,,,,,,,,,,,,,,0,64,127,,
36240,note_on,0,0,2,,,,,,,,,,,,,,,0,,,54,30
36240,note_on,0,0,2,,,,,,,,,,,,,,,0,,,57,0
36240,set_tempo,240,1,0,,,,,,,,,,,,485084,,,,,,,
36240,note_on,206,0,2,,,,,,,,,,,,,,,0,,,66,0
36240,note_on,0,0,2,,,,,,,,,,,,,,,0,,,61,0
36480,note_on,240,0,2,,,,,,,,,,,,,,,0,,,54,0
36480,note_on,0,0,2,,,,,,,,,,,,,,,0,,,54,30
36480,set_tempo,240,1,0,,,,,,,,,,,,493543,,,,,,,
36720,note_on,240,0,2,,,,,,,,,,,,,,,0,,,54,0
36720,note_on,0,0,2,,,,,,,,,,,,,,,0,,,57,30
36720,note_on,0,0,2,,,,,,,,,,,,,,,0,,,61,30
36720,note_on,0,0,2,,,,,,,,,,,,,,,0,,,66,36
36720,set_tempo,240,1,0,,,,,,,,,,,,465224,,,,,,,
36743,control_change,23,0,2,,,,,,,,,,,,,,,0,64,0,,
36777,control_change,34,0,2,,,,,,,,,,,,,,,0,64,127,,
36960,note_on,0,0,2,,,,,,,,,,,,,,,0,,,54,30
36960,note_on,0,0,2,,,,,,,,,,,,,,,0,,,61,0
36960,note_on,183,0,2,,,,,,,,,,,,,,,0,,,66,0
36960,set_tempo,240,1,0,,,,,,,,,,,,485084,,,,,,,
36960,note_on,0,0,2,,,,,,,,,,,,,,,0,,,57,0
37200,set_tempo,240,1,0,,,,,,,,,,,,497843,,,,,,,
37200,note_on,240,0,2,,,,,,,,,,,,,,,0,,,54,0
37200,note_on,0,0,2,,,,,,,,,,,,,,,0,,,54,30
37440,control_change,0,0,2,,,,,,,,,,,,,,,0,64,0,,
37440,set_tempo,240,1,0,,,,,,,,,,,,480962,,,,,,,
37440,note_on,0,0,2,,,,,,,,,,,,,,,0,,,57,29
37440,note_on,1620,0,1,,,,,,,,,,,,,,,0,,,73,63
37440,note_on,240,0,2,,,,,,,,,,,,,,,0,,,54,0
37440,note_on,0,0,2,,,,,,,,,,,,,,,0,,,61,29
37440,note_on,0,0,2,,,,,,,,,,,,,,,0,,,66,35
37577,control_change,137,0,2,,,,,,,,,,,,,,,0,64,127,,
37620,set_tempo,180,1,0,,,,,,,,,,,,434909,,,,,,,
37620,note_on,180,0,1,,,,,,,,,,,,,,,0,,,76,45
37680,set_tempo,60,1,0,,,,,,,,,,,,472962,,,,,,,
37680,note_on,0,0,1,,,,,,,,,,,,,,,0,,,74,53
37680,note_on,0,0,1,,,,,,,,,,,,,,,0,,,73,0
37680,note_on,60,0,1,,,,,,,,,,,,,,,0,,,76,0
37680,note_on,0,0,2,,,,,,,,,,,,,,,0,,,54,29
37680,note_on,103,0,2,,,,,,,,,,,,,,,0,,,61,0
37680,note_on,0,0,2,,,,,,,,,,,,,,,0,,,57,0
37680,note_on,0,0,2,,,,,,,,,,,,,,,0,,,66,0
37920,note_on,240,0,1,,,,,,,,,,,,,,,0,,,74,0
37920,note_on,0,0,2,,,,,,,,,,,,,,,0,,,54,29
37920,note_on,240,0,2,,,,,,,,,,,,,,,0,,,54,0
37920,note_on,0,0,1,,,,,,,,,,,,,,,0,,,73,53
38160,note_on,0,0,2,,,,,,,,,,,,,,,0,,,66,36
38160,note_on,0,0,2,,,,,,,,,,,,,,,0,,,62,30
38160,control_change,0,0,2,,,,,,,,,,,,,,,0,64,0,,
38160,note_on,240,0,2,,,,,,,,,,,,,,,0,,,54,0
38160,note_on,240,0,1,,,,,,,,,,,,,,,0,,,73,0
38160,note_on,0,0,1,,,,,,,,,,,,,,,0,,,71,62
38160,set_tempo,480,1,0,,,,,,,,,,,,461432,,,,,,,
38206,control_change,46,0,2,,,,,,,,,,,,,,,0,64,127,,
38394,control_change,188,0,2,,,,,,,,,,,,,,,0,64,0,,
38400,note_on,0,0,2,,,,,,,,,,,,,,,0,,,50,29
38400,note_on,240,0,1,,,,,,,,,,,,,,,0,,,71,0
38400,note_on,0,0,2,,,,,,,,,,,,,,,0,,,62,0
38400,note_on,6,0,2,,,,,,,,,,,,,,,0,,,66,0
38400,note_on,0,0,1,,,,,,,,,,,,,,,0,,,73,53
38400,set_tempo,240,1,0,,,,,,,,,,,,457701,,,,,,,
38429,control_change,29,0,2,,,,,,,,,,,,,,,0,64,127,,
38520,note_on,120,0,1,,,,,,,,,,,,,,,0,,,73,0
38520,note_on,0,0,1,,,,,,,,,,,,,,,0,,,74,53
38640,note_on,211,0,2,,,,,,,,,,,,,,,0,,,50,0
38640,note_on,0,0,2,,,,,,,,,,,,,,,0,,,50,29
38640,note_on,120,0,1,,,,,,,,,,,,,,,0,,,74,0
38640,note_on,0,0,1,,,,,,,,,,,,,,,0,,,76,56
38760,note_on,0,0,1,,,,,,,,,,,,,,,0,,,78,57
38760,note_on,120,0,1,,,,,,,,,,,,,,,0,,,76,0
38880,note_on,240,0,2,,,,,,,,,,,,,,,0,,,50,0
38880,note_on,120,0,1,,,,,,,,,,,,,,,0,,,78,0
38880,note_on,0,0,1,,,,,,,,,,,,,,,0,,,80,62
38880,note_on,0,0,2,,,,,,,,,,,,,,,0,,,64,35
38880,note_on,0,0,2,,,,,,,,,,,,,,,0,,,62,29
38880,control_change,0,0,2,,,,,,,,,,,,,,,0,64,0,,
38880,set_tempo,480,1,0,,,,,,,,,,,,463320,,,,,,,
38920,control_change,40,0,2,,,,,,,,,,,,,,,0,64,127,,
39120,set_tempo,240,1,0,,,,,,,,,,,,457701,,,,,,,
39120,note_on,0,0,2,,,,,,,,,,,,,,,0,,,52,29
39120,note_on,0,0,2,,,,,,,,,,,,,,,0,,,62,0
39120,note_on,200,0,2,,,,,,,,,,,,,,,0,,,64,0
39120,note_on,240,0,1,,,,,,,,,,,,,,,0,,,80,0
39120,note_on,0,0,1,,,,,,,,,,,,,,,0,,,78,63
39149,control_change,29,0,2,,,,,,,,,,,,,,,0,64,0,,
39177,control_change,28,0,2,,,,,,,,,,,,,,,0,64,127,,
39240,note_on,120,0,1,,,,,,,,,,,,,,,0,,,78,0
39240,note_on,0,0,1,,,,,,,,,,,,,,,0,,,80,51
39360,note_on,0,0,1,,,,,,,,,,,,,,,0,,,81,55
39360,note_on,183,0,2,,,,,,,,,,,,,,,0,,,52,0
39360,note_on,120,0,1,,,,,,,,,,,,,,,0,,,80,0
39360,note_on,0,0,2,,,,,,,,,,,,,,,0,,,52,29
39360,set_tempo,240,1,0,,,,,,,,,,,,469043,,,,,,,
39480,note_on,0,0,1,,,,,,,,,,,,,,,0,,,83,58
39480,note_on,120,0,1,,,,,,,,,,,,,,,0,,,81,0
39600,note_on,120,0,1,,,,,,,,,,,,,,,0,,,83,0
39600,set_tempo,240,1,0,,,,,,,,,,,,480962,,,,,,,
39600,control_change,0,0,2,,,,,,,,,,,,,,,0,64,0,,
39600,note_on,240,0,2,,,,,,,,,,,,,,,0,,,52,0
39600,note_on,0,0,2,,,,,,,,,,,,,,,0,,,61,29
39600,note_on,0,0,2,,,,,,,,,,,,,,,0,,,64,35
39600,note_on,0,0,1,,,,,,,,,,,,,,,0,,,85,62
39660,note_on,60,0,1,,,,,,,,,,,,,,,0,,,85,0
39840,note_on,240,0,2,,,,,,,,,,,,,,,0,,,61,0
39840,note_on,0,0,2,,,,,,,,,,,,,,,0,,,64,0
39840,note_on,0,0,2,,,,,,,,,,,,,,,0,,,57,29
39840,note_on,180,0,1,,,,,,,,,,,,,,,0,,,85,58
39900,note_on,60,0,1,,,,,,,,,,,,,,,0,,,85,0
40080,set_tempo,480,1,0,,,,,,,,,,,,474608,,,,,,,
40080,note_on,0,0,2,,,,,,,,,,,,,,,0,,,57,29
40080,note_on,240,0,2,,,,,,,,,,,,,,,0,,,57,0
40080,note_on,180,0,1,,,,,,,,,,,,,,,0,,,85,57
40140,note_on,60,0,1,,,,,,,,,,,,,,,0,,,85,0
40320,note_on,0,0,2,,,,,,,,,,,,,,,0,,,64,36
40320,note_on,240,0,2,,,,,,,,,,,,,,,0,,,57,0
40320,note_on,0,0,2,,,,,,,,,,,,,,,0,,,61,30
40320,set_tempo,240,1,0,,,,,,,,,,,,485084,,,,,,,
40380,note_on,60,0,2,,,,,,,,,,,,,,,0,,,64,0
40380,note_on,0,0,2,,,,,,,,,,,,,,,0,,,61,0
40560,note_on,180,0,2,,,,,,,,,,,,,,,0,,,57,30
40620,note_on,60,0,2,,,,,,,,,,,,,,,0,,,57,0
40800,set_tempo,480,1,0,,,,,,,,,,,,504498,,,,,,,
40800,note_on,180,0,2,,,,,,,,,,,,,,,0,,,57,31
40860,note_on,60,0,2,,,,,,,,,,,,,,,0,,,57,0
41040,control_change,0,0,2,,,,,,,,,,,,,,,0,64,0,,
41040,note_on,180,0,2,,,,,,,,,,,,,,,0,,,64,35
41040,set_tempo,240,1,0,,,,,,,,,,,,472962,,,,,,,
41040,note_on,0,0,2,,,,,,,,,,,,,,,0,,,61,29
41040,note_on,900,0,1,,,,,,,,,,,,,,,0,,,73,63
41177,control_change,137,0,2,,,,,,,,,,,,,,,0,64,127,,
41280,note_on,103,0,2,,,,,,,,,,,,,,,0,,,61,0
41280,note_on,0,0,2,,,,,,,,,,,,,,,0,,,64,0
41280,note_on,240,0,1,,,,,,,,,,,,,,,0,,,73,0
41280,note_on,0,0,2,,,,,,,,,,,,,,,0,,,57,29
41280,note_on,0,0,1,,,,,,,,,,,,,,,0,,,73,53
41520,note_on,240,0,1,,,,,,,,,,,,,,,0,,,73,0
41520,note_on,240,0,2,,,,,,,,,,,,,,,0,,,57,0
41520,note_on,0,0,2,,,,,,,,,,,,,,,0,,,57,29
41520,note_on,0,0,1,,,,,,,,,,,,,,,0,,,73,53
41760,note_on,0,0,2,,,,,,,,,,,,,,,0,,,64,36
41760,note_on,240,0,2,,,,,,,,,,,,,,,0,,,57,0
41760,set_tempo,720,1,0,,,,,,,,,,,,461432,,,,,,,
41760,control_change,0,0,2,,,,,,,,,,,,,,,0,64,0,,
41760,note_on,0,0,1,,,,,,,,,,,,,,,0,,,73,62
41760,note_on,240,0,1,,,,,,,,,,,,,,,0,,,73,0
41760,note_on,0,0,2,,,,,,,,,,,,,,,0,,,61,30
41806,control_change,46,0,2,,,,,,,,,,,,,,,0,64,127,,
42000,note_on,0,0,2,,,,,,,,,,,,,,,0,,,61,0
42000,note_on,0,0,2,,,,,,,,,,,,,,,0,,,58,29
42000,note_on,240,0,1,,,,,,,,,,,,,,,0,,,73,0
42000,set_tempo,240,1,0,,,,,,,,,,,,461432,,,,,,,
42000,note_on,194,0,2,,,,,,,,,,,,,,,0,,,64,0
42000,note_on,0,0,1,,,,,,,,,,,,,,,0,,,76,53
42011,control_change,11,0,2,,,,,,,,,,,,,,,0,64,0,,
42051,control_change,40,0,2,,,,,,,,,,,,,,,0,64,127,,
42120,note_on,120,0,1,,,,,,,,,,,,,,,0,,,76,0
42120,note_on,0,0,1,,,,,,,,,,,,,,,0,,,74,53
42240,note_on,189,0,2,,,,,,,,,,,,,,,0,,,58,0
42240,note_on,120,0,1,,,,,,,,,,,,,,,0,,,74,0
42240,note_on,0,0,1,,,,,,,,,,,,,,,0,,,73,56
42240,note_on,0,0,2,,,,,,,,,,,,,,,0,,,58,29
42360,note_on,0,0,1,,,,,,,,,,,,,,,0,,,76,57
42360,note_on,120,0,1,,,,,,,,,,,,,,,0,,,73,0
42480,note_on,120,0,1,,,,,,,,,,,,,,,0,,,76,0
42480,note_on,0,0,1,,,,,,,,,,,,,,,0,,,74,62
42480,note_on,240,0,2,,,,,,,,,,,,,,,0,,,58,0
42480,control_change,0,0,2,,,,,,,,,,,,,,,0,64,0,,
42480,note_on,0,0,2,,,,,,,,,,,,,,,0,,,62,29
42480,note_on,0,0,2,,,,,,,,,,,,,,,0,,,64,35
42480,set_tempo,480,1,0,,,,,,,,,,,,467108,,,,,,,
42540,note_on,60,0,1,,,,,,,,,,,,,,,0,,,74,0
42720,note_on,180,0,1,,,,,,,,,,,,,,,0,,,74,62
42720,note_on,240,0,2,,,,,,,,,,,,,,,0,,,64,0
42720,note_on,0,0,2,,,,,,,,,,,,,,,0,,,62,0
42720,note_on,0,0,2,,,,,,,,,,,,,,,0,,,59,29
42720,set_tempo,240,1,0,,,,,,,,,,,,459559,,,,,,,
42780,note_on,60,0,1,,,,,,,,,,,,,,,0,,,74,0
42960,note_on,180,0,1,,,,,,,,,,,,,,,0,,,74,60
42960,note_on,240,0,2,,,,,,,,,,,,,,,0,,,59,0
42960,note_on,0,0,2,,,,,,,,,,,,,,,0,,,59,29
42960,set_tempo,240,1,0,,,,,,,,,,,,480962,,,,,,,
43020,note_on,60,0,1,,,,,,,,,,,,,,,0,,,74,0
43200,set_tempo,240,1,0,,,,,,,,,,,,483014,,,,,,,
43200,note_on,240,0,2,,,,,,,,,,,,,,,0,,,59,0
43200,note_on,180,0,1,,,,,,,,,,,,,,,0,,,86,62
43200,note_on,0,0,2,,,,,,,,,,,,,,,0,,,64,35
43200,note_on,0,0,2,,,,,,,,,,,,,,,0,,,62,29
43260,note_on,60,0,1,,,,,,,,,,,,,,,0,,,86,0
43440,note_on,180,0,1,,,,,,,,,,,,,,,0,,,86,58
43440,note_on,240,0,2,,,,,,,,,,,,,,,0,,,62,0
43440,note_on,0,0,2,,,,,,,,,,,,,,,0,,,64,0
43440,note_on,0,0,2,,,,,,,,,,,,,,,0,,,59,29
43500,note_on,60,0,1,,,,,,,,,,,,,,,0,,,86,0
43680,note_on,180,0,1,,,,,,,,,,,,,,,0,,,86,57
43680,set_tempo,480,1,0,,,,,,,,,,,,474608,,,,,,,
43680,note_on,0,0,2,,,,,,,,,,,,,,,0,,,59,29
43680,note_on,240,0,2,,,,,,,,,,,,,,,0,,,59,0
43740,note_on,60,0,1,,,,,,,,,,,,,,,0,,,86,0
43920,note_on,240,0,2,,,,,,,,,,,,,,,0,,,59,0
43920,note_on,0,0,2,,,,,,,,,,,,,,,0,,,62,26
43920,note_on,0,0,2,,,,,,,,,,,,,,,0,,,64,30
43920,set_tempo,240,1,0,,,,,,,,,,,,485084,,,,,,,
43980,note_on,60,0,2,,,,,,,,,,,,,,,0,,,64,0
43980,note_on,0,0,2,,,,,,,,,,,,,,,0,,,62,0
44160,note_on,180,0,2,,,,,,,,,,,,,,,0,,,59,27
44220,note_on,60,0,2,,,,,,,,,,,,,,,0,,,59,0
44400,note_on,180,0,2,,,,,,,,,,,,,,,0,,,59,27
44400,set_tempo,480,1,0,,,,,,,,,,,,504498,,,,,,,
44460,note_on,60,0,2,,,,,,,,,,,,,,,0,,,59,0
44640,note_on,0,0,2,,,,,,,,,,,,,,,0,,,62,29
44640,control_change,0,0,2,,,,,,,,,,,,,,,0,64,0,,
44640,note_on,180,0,2,,,,,,,,,,,,,,,0,,,64,35
44640,set_tempo,240,1,0,,,,,,,,,,,,472962,,,,,,,
44640,note_on,900,0,1,,,,,,,,,,,,,,,0,,,74,63
44777,control_change,137,0,2,,,,,,,,,,,,,,,0,64,127,,
44880,note_on,240,0,1,,,,,,,,,,,,,,,0,,,74,0
44880,note_on,0,0,2,,,,,,,,,,,,,,,0,,,64,0
44880,note_on,103,0,2,,,,,,,,,,,,,,,0,,,62,0
44880,note_on,0,0,2,,,,,,,,,,,,,,,0,,,59,29
44880,note_on,0,0,1,,,,,,,,,,,,,,,0,,,74,53
45120,note_on,0,0,1,,,,,,,,,,,,,,,0,,,74,53
45120,note_on,240,0,1,,,,,,,,,,,,,,,0,,,74,0
45120,note_on,240,0,2,,,,,,,,,,,,,,,0,,,59,0
45120,note_on,0,0,2,,,,,,,,,,,,,,,0,,,59,29
45360,set_tempo,720,1,0,,,,,,,,,,,,461432,,,,,,,
45360,note_on,240,0,1,,,,,,,,,,,,,,,0,,,74,0
45360,note_on,240,0,2,,,,,,,,,,,,,,,0,,,59,0
45360,control_change,0,0,2,,,,,,,,,,,,,,,0,64,0,,
45360,note_on,0,0,2,,,,,,,,,,,,,,,0,,,62,30
45360,note_on,0,0,2,,,,,,,,,,,,,,,0,,,65,36
45360,note_on,0,0,1,,,,,,,,,,,,,,,0,,,74,62
45406,control_change,46,0,2,,,,,,,,,,,,,,,0,64,127,,
45600,note_on,0,0,2,,,,,,,,,,,,,,,0,,,59,29
45600,set_tempo,240,1,0,,,,,,,,,,,,457701,,,,,,,
45600,note_on,194,0,2,,,,,,,,,,,,,,,0,,,65,0
45600,note_on,240,0,1,,,,,,,,,,,,,,,0,,,74,0
45600,note_on,0,0,1,,,,,,,,,,,,,,,0,,,77,53
45600,note_on,0,0,2,,,,,,,,,,,,,,,0,,,62,0
45629,control_change,29,0,2,,,,,,,,,,,,,,,0,64,0,,
45651,control_change,22,0,2,,,,,,,,,,,,,,,0,64,127,,
45720,note_on,120,0,1,,,,,,,,,,,,,,,0,,,77,0
45720,note_on,0,0,1,,,,,,,,,,,,,,,0,,,76,53
45840,note_on,189,0,2,,,,,,,,,,,,,,,0,,,59,0
45840,note_on,0,0,2,,,,,,,,,,,,,,,0,,,59,29
45840,note_on,0,0,1,,,,,,,,,,,,,,,0,,,74,56
45840,note_on,120,0,1,,,,,,,,,,,,,,,0,,,76,0
45960,note_on,120,0,1,,,,,,,,,,,,,,,0,,,74,0
45960,note_on,0,0,1,,,,,,,,,,,,,,,0,,,77,57
46080,set_tempo,480,1,0,,,,,,,,,,,,469043,,,,,,,
46080,note_on,240,0,2,,,,,,,,,,,,,,,0,,,59,0
46080,control_change,0,0,2,,,,,,,,,,,,,,,0,64,0,,
46080,note_on,0,0,2,,,,,,,,,,,,,,,0,,,62,29
46080,note_on,0,0,2,,,,,,,,,,,,,,,0,,,65,35
46080,note_on,120,0,1,,,,,,,,,,,,,,,0,,,77,0
46080,note_on,0,0,1,,,,,,,,,,,,,,,0,,,74,62
46140,note_on,60,0,1,,,,,,,,,,,,,,,0,,,74,0
46320,note_on,240,0,2,,,,,,,,,,,,,,,0,,,65,0
46320,note_on,0,0,2,,,,,,,,,,,,,,,0,,,62,0
46320,note_on,0,0,2,,,,,,,,,,,,,,,0,,,59,29
46320,set_tempo,240,1,0,,,,,,,,,,,,455858,,,,,,,
46320,note_on,180,0,1,,,,,,,,,,,,,,,0,,,74,62
46380,note_on,60,0,1,,,,,,,,,,,,,,,0,,,74,0
46560,note_on,240,0,2,,,,,,,,,,,,,,,0,,,59,0
46560,note_on,0,0,2,,,,,,,,,,,,,,,0,,,59,29
46560,set_tempo,240,1,0,,,,,,,,,,,,502260,,,,,,,
46560,note_on,180,0,1,,,,,,,,,,,,,,,0,,,74,62
46620,note_on,60,0,1,,,,,,,,,,,,,,,0,,,74,0
46800,note_on,0,0,2,,,,,,,,,,,,,,,0,,,62,29
46800,note_on,180,0,1,,,,,,,,,,,,,,,0,,,86,62
46800,set_tempo,240,1,0,,,,,,,,,,,,483014,,,,,,,
46800,note_on,0,0,2,,,,,,,,,,,,,,,0,,,65,35
46800,note_on,240,0,2,,,,,,,,,,,,,,,0,,,59,0
46860,note_on,60,0,1,,,,,,,,,,,,,,,0,,,86,0
47040,note_on,180,0,1,,,,,,,,,,,,,,,0,,,86,58
47040,note_on,240,0,2,,,,,,,,,,,,,,,0,,,62,0
47040,note_on,0,0,2,,,,,,,,,,,,,,,0,,,59,29
47040,note_on,0,0,2,,,,,,,,,,,,,,,0,,,65,0
47040,set_tempo,240,1,0,,,,,,,,,,,,491400,,,,,,,
47100,note_on,60,0,1,,,,,,,,,,,,,,,0,,,86,0
47280,note_on,240,0,2,,,,,,,,,,,,,,,0,,,59,0
47280,set_tempo,240,1,0,,,,,,,,,,,,502260,,,,,,,
47280,note_on,0,0,2,,,,,,,,,,,,,,,0,,,59,29
47280,note_on,180,0,1,,,,,,,,,,,,,,,0,,,86,57
47340,note_on,60,0,1,,,,,,,,,,,,,,,0,,,86,0
47520,note_on,240,0,2,,,,,,,,,,,,,,,0,,,59,0
47520,note_on,0,0,2,,,,,,,,,,,,,,,0,,,59,31
47520,note_on,0,0,2,,,,,,,,,,,,,,,0,,,62,38
47520,set_tempo,240,1,0,,,,,,,,,,,,467108,,,,,,,
47520,note_on,180,0,1,,,,,,,,,,,,,,,0,,,74,66
47600,control_change,80,0,2,,,,,,,,,,,,,,,0,64,127,,
47640,note_on,0,0,2,,,,,,,,,,,,,,,0,,,59,0
47640,note_on,40,0,2,,,,,,,,,,,,,,,0,,,62,0
47640,note_on,0,0,2,,,,,,,,,,,,,,,0,,,65,31
47760,note_on,0,0,1,,,,,,,,,,,,,,,0,,,73,62
47760,note_on,240,0,1,,,,,,,,,,,,,,,0,,,74,0
47760,note_on,0,0,2,,,,,,,,,,,,,,,0,,,59,27
47760,note_on,0,0,2,,,,,,,,,,,,,,,0,,,62,33
47760,note_on,120,0,2,,,,,,,,,,,,,,,0,,,65,0
47771,control_change,11,0,2,,,,,,,,,,,,,,,0,64,0,,
47800,control_change,29,0,2,,,,,,,,,,,,,,,0,64,127,,
47880,note_on,80,0,2,,,,,,,,,,,,,,,0,,,59,0
47880,note_on,0,0,2,,,,,,,,,,,,,,,0,,,62,0
47880,note_on,0,0,2,,,,,,,,,,,,,,,0,,,65,31
47994,control_change,114,0,2,,,,,,,,,,,,,,,0,64,0,,
48000,note_on,0,0,1,,,,,,,,,,,,,,,0,,,74,62
48000,set_tempo,480,1,0,,,,,,,,,,,,478965,,,,,,,
48000,note_on,0,0,2,,,,,,,,,,,,,,,0,,,59,27
48000,note_on,0,0,2,,,,,,,,,,,,,,,0,,,62,33
48000,note_on,6,0,2,,,,,,,,,,,,,,,0,,,65,0
48000,note_on,240,0,1,,,,,,,,,,,,,,,0,,,73,0
48023,control_change,23,0,2,,,,,,,,,,,,,,,0,64,127,,
48120,note_on,0,0,2,,,,,,,,,,,,,,,0,,,62,0
48120,note_on,0,0,2,,,,,,,,,,,,,,,0,,,65,31
48120,note_on,97,0,2,,,,,,,,,,,,,,,0,,,59,0
48240,set_tempo,240,1,0,,,,,,,,,,,,465224,,,,,,,
48240,note_on,0,0,2,,,,,,,,,,,,,,,0,,,62,38
48240,note_on,240,0,1,,,,,,,,,,,,,,,0,,,74,0
48240,note_on,0,0,1,,,,,,,,,,,,,,,0,,,86,66
48240,note_on,120,0,2,,,,,,,,,,,,,,,0,,,65,0
48240,control_change,0,0,2,,,,,,,,,,,,,,,0,64,0,,
48240,note_on,0,0,2,,,,,,,,,,,,,,,0,,,58,31
48280,control_change,40,0,2,,,,,,,,,,,,,,,0,64,127,,
48360,note_on,0,0,2,,,,,,,,,,,,,,,0,,,65,31
48360,note_on,0,0,2,,,,,,,,,,,,,,,0,,,58,0
48360,note_on,80,0,2,,,,,,,,,,,,,,,0,,,62,0
48480,note_on,240,0,1,,,,,,,,,,,,,,,0,,,86,0
48480,note_on,0,0,1,,,,,,,,,,,,,,,0,,,85,62
48480,note_on,0,0,2,,,,,,,,,,,,,,,0,,,58,27
48480,note_on,0,0,2,,,,,,,,,,,,,,,0,,,62,33
48480,note_on,120,0,2,,,,,,,,,,,,,,,0,,,65,0
48508,control_change,28,0,2,,,,,,,,,,,,,,,0,64,0,,
48551,control_change,43,0,2,,,,,,,,,,,,,,,0,64,127,,
48600,note_on,49,0,2,,,,,,,,,,,,,,,0,,,58,0
48600,note_on,0,0,2,,,,,,,,,,,,,,,0,,,62,0
48600,note_on,0,0,2,,,,,,,,,,,,,,,0,,,65,31
48713,control_change,113,0,2,,,,,,,,,,,,,,,0,64,0,,
48720,note_on,0,0,2,,,,,,,,,,,,,,,0,,,62,33
48720,note_on,0,0,2,,,,,,,,,,,,,,,0,,,58,27
48720,note_on,0,0,1,,,,,,,,,,,,,,,0,,,86,62
48720,note_on,240,0,1,,,,,,,,,,,,,,,0,,,85,0
48720,note_on,7,0,2,,,,,,,,,,,,,,,0,,,65,0
48720,set_tempo,480,1,0,,,,,,,,,,,,478965,,,,,,,
48755,control_change,35,0,2,,,,,,,,,,,,,,,0,64,127,,
48840,note_on,0,0,2,,,,,,,,,,,,,,,0,,,65,31
48840,note_on,0,0,2,,,,,,,,,,,,,,,0,,,62,0
48840,note_on,85,0,2,,,,,,,,,,,,,,,0,,,58,0
48960,note_on,0,0,1,,,,,,,,,,,,,,,0,,,82,64
48960,note_on,0,0,2,,,,,,,,,,,,,,,0,,,62,45
48960,note_on,0,0,2,,,,,,,,,,,,,,,0,,,58,37
48960,control_change,0,0,2,,,,,,,,,,,,,,,0,64,0,,
48960,note_on,120,0,2,,,,,,,,,,,,,,,0,,,65,0
48960,note_on,240,0,1,,,,,,,,,,,,,,,0,,,86,0
48960,set_tempo,240,1,0,,,,,,,,,,,,461787,,,,,,,
49031,control_change,71,0,2,,,,,,,,,,,,,,,0,64,127,,
49080,note_on,0,0,2,,,,,,,,,,,,,,,0,,,65,30
49080,note_on,0,0,2,,,,,,,,,,,,,,,0,,,58,0
49080,note_on,49,0,2,,,,,,,,,,,,,,,0,,,62,0
49200,note_on,240,0,1,,,,,,,,,,,,,,,0,,,82,0
49200,note_on,0,0,1,,,,,,,,,,,,,,,0,,,81,56
49200,note_on,120,0,2,,,,,,,,,,,,,,,0,,,65,0
49200,note_on,0,0,2,,,,,,,,,,,,,,,0,,,58,29
49200,note_on,0,0,2,,,,,,,,,,,,,,,0,,,62,35
49235,control_change,35,0,2,,,,,,,,,,,,,,,0,64,0,,
49256,control_change,21,0,2,,,,,,,,,,,,,,,0,64,127,,
49320,note_on,64,0,2,,,,,,,,,,,,,,,0,,,62,0
49320,note_on,0,0,2,,,,,,,,,,,,,,,0,,,58,0
49320,note_on,0,0,2,,,,,,,,,,,,,,,0,,,65,29
49440,note_on,0,0,1,,,,,,,,,,,,,,,0,,,82,57
49440,note_on,240,0,1,,,,,,,,,,,,,,,0,,,81,0
49440,note_on,0,0,2,,,,,,,,,,,,,,,0,,,62,35
49440,note_on,120,0,2,,,,,,,,,,,,,,,0,,,65,0
49440,note_on,0,0,2,,,,,,,,,,,,,,,0,,,58,29
49468,control_change,28,0,2,,,,,,,,,,,,,,,0,64,0,,
49475,control_change,7,0,2,,,,,,,,,,,,,,,0,64,127,,
49560,note_on,85,0,2,,,,,,,,,,,,,,,0,,,62,0
49560,note_on,0,0,2,,,,,,,,,,,,,,,0,,,58,0
49560,note_on,0,0,2,,,,,,,,,,,,,,,0,,,65,30
49680,note_on,240,0,1,,,,,,,,,,,,,,,0,,,82,0
49680,note_on,0,0,2,,,,,,,,,,,,,,,0,,,58,35
49680,note_on,0,0,2,,,,,,,,,,,,,,,0,,,63,41
49680,note_on,0,0,1,,,,,,,,,,,,,,,0,,,79,61
49680,note_on,120,0,2,,,,,,,,,,,,,,,0,,,65,0
49680,control_change,0,0,2,,,,,,,,,,,,,,,0,64,0,,
49680,set_tempo,720,1,0,,,,,,,,,,,,456274,,,,,,,
49729,control_change,49,0,2,,,,,,,,,,,,,,,0,64,127,,
49800,note_on,71,0,2,,,,,,,,,,,,,,,0,,,63,0
49800,note_on,0,0,2,,,,,,,,,,,,,,,0,,,58,0
49800,note_on,0,0,2,,,,,,,,,,,,,,,0,,,67,31
49920,note_on,0,0,1,,,,,,,,,,,,,,,0,,,81,57
49920,set_tempo,240,1,0,,,,,,,,,,,,452625,,,,,,,
49920,note_on,120,0,2,,,,,,,,,,,,,,,0,,,67,0
49920,note_on,0,0,2,,,,,,,,,,,,,,,0,,,58,30
49920,note_on,0,0,2,,,,,,,,,,,,,,,0,,,63,36
49920,note_on,240,0,1,,,,,,,,,,,,,,,0,,,79,0
49984,control_change,64,0,2,,,,,,,,,,,,,,,0,64,0,,
49991,control_change,7,0,2,,,,,,,,,,,,,,,0,64,127,,
50040,note_on,0,0,2,,,,,,,,,,,,,,,0,,,58,0
50040,note_on,49,0,2,,,,,,,,,,,,,,,0,,,63,0
50040,note_on,120,0,1,,,,,,,,,,,,,,,0,,,81,0
50040,note_on,0,0,1,,,,,,,,,,,,,,,0,,,82,58
50040,note_on,0,0,2,,,,,,,,,,,,,,,0,,,67,30
50160,note_on,0,0,2,,,,,,,,,,,,,,,0,,,58,30
50160,note_on,0,0,2,,,,,,,,,,,,,,,0,,,63,36
50160,note_on,120,0,2,,,,,,,,,,,,,,,0,,,67,0
50160,note_on,120,0,1,,,,,,,,,,,,,,,0,,,82,0
50160,note_on,0,0,1,,,,,,,,,,,,,,,0,,,84,61
50280,note_on,120,0,2,,,,,,,,,,,,,,,0,,,63,0
50280,note_on,0,0,2,,,,,,,,,,,,,,,0,,,58,0
50280,note_on,0,0,2,,,,,,,,,,,,,,,0,,,67,30
50280,note_on,120,0,1,,,,,,,,,,,,,,,0,,,84,0
50280,note_on,0,0,1,,,,,,,,,,,,,,,0,,,86,62
50400,note_on,0,0,1,,,,,,,,,,,,,,,0,,,82,68
50400,set_tempo,480,1,0,,,,,,,,,,,,458155,,,,,,,
50400,note_on,0,0,2,,,,,,,,,,,,,,,0,,,62,51
50400,note_on,0,0,2,,,,,,,,,,,,,,,0,,,58,42
50400,control_change,0,0,2,,,,,,,,,,,,,,,0,64,0,,
50400,note_on,120,0,2,,,,,,,,,,,,,,,0,,,67,0
50400,note_on,120,0,1,,,,,,,,,,,,,,,0,,,86,0
50449,control_change,49,0,2,,,,,,,,,,,,,,,0,64,127,,
50520,note_on,0,0,2,,,,,,,,,,,,,,,0,,,65,33
50520,note_on,0,0,2,,,,,,,,,,,,,,,0,,,58,0
50520,note_on,71,0,2,,,,,,,,,,,,,,,0,,,62,0
50640,set_tempo,240,1,0,,,,,,,,,,,,452625,,,,,,,
50640,note_on,240,0,1,,,,,,,,,,,,,,,0,,,82,0
50640,note_on,0,0,1,,,,,,,,,,,,,,,0,,,84,69
50640,note_on,120,0,2,,,,,,,,,,,,,,,0,,,65,0
50640,note_on,0,0,2,,,,,,,,,,,,,,,0,,,62,37
50640,note_on,0,0,2,,,,,,,,,,,,,,,0,,,58,30
50696,control_change,56,0,2,,,,,,,,,,,,,,,0,64,0,,
50725,control_change,29,0,2,,,,,,,,,,,,,,,0,64,127,,
50760,note_on,120,0,1,,,,,,,,,,,,,,,0,,,84,0
50760,note_on,35,0,2,,,,,,,,,,,,,,,0,,,58,0
50760,note_on,0,0,2,,,,,,,,,,,,,,,0,,,62,0
50760,note_on,0,0,2,,,,,,,,,,,,,,,0,,,65,31
50760,note_on,0,0,1,,,,,,,,,,,,,,,0,,,82,60
50880,note_on,120,0,2,,,,,,,,,,,,,,,0,,,65,0
50880,note_on,0,0,2,,,,,,,,,,,,,,,0,,,58,31
50880,note_on,0,0,2,,,,,,,,,,,,,,,0,,,62,38
50880,note_on,120,0,1,,,,,,,,,,,,,,,0,,,82,0
50880,note_on,0,0,1,,,,,,,,,,,,,,,0,,,81,66
51000,note_on,0,0,1,,,,,,,,,,,,,,,0,,,79,61
51000,note_on,120,0,2,,,,,,,,,,,,,,,0,,,62,0
51000,note_on,0,0,2,,,,,,,,,,,,,,,0,,,65,31
51000,note_on,120,0,1,,,,,,,,,,,,,,,0,,,81,0
51000,note_on,0,0,2,,,,,,,,,,,,,,,0,,,58,0
51120,note_on,120,0,1,,,,,,,,,,,,,,,0,,,79,0
51120,note_on,0,0,1,,,,,,,,,,,,,,,0,,,77,72
51120,note_on,120,0,2,,,,,,,,,,,,,,,0,,,65,0
51120,set_tempo,480,1,0,,,,,,,,,,,,463750,,,,,,,
51120,note_on,0,0,2,,,,,,,,,,,,,,,0,,,57,38
51120,note_on,0,0,2,,,,,,,,,,,,,,,0,,,63,46
51148,control_change,28,0,2,,,,,,,,,,,,,,,0,64,0,,
51180,note_on,60,0,1,,,,,,,,,,,,,,,0,,,77,0
51240,note_on,92,0,2,,,,,,,,,,,,,,,0,,,63,0
51240,note_on,0,0,2,,,,,,,,,,,,,,,0,,,57,0
51240,note_on,0,0,2,,,,,,,,,,,,,,,0,,,65,34
51360,note_on,180,0,1,,,,,,,,,,,,,,,0,,,77,67
51360,note_on,120,0,2,,,,,,,,,,,,,,,0,,,65,0
51360,note_on,0,0,2,,,,,,,,,,,,,,,0,,,57,31
51360,note_on,0,0,2,,,,,,,,,,,,,,,0,,,63,38
51420,note_on,60,0,1,,,,,,,,,,,,,,,0,,,77,0
51480,note_on,120,0,2,,,,,,,,,,,,,,,0,,,63,0
51480,note_on,0,0,2,,,,,,,,,,,,,,,0,,,57,0
51480,note_on,0,0,2,,,,,,,,,,,,,,,0,,,65,35
51600,note_on,0,0,2,,,,,,,,,,,,,,,0,,,63,39
51600,note_on,120,0,2,,,,,,,,,,,,,,,0,,,65,0
51600,note_on,180,0,1,,,,,,,,,,,,,,,0,,,77,67
51600,set_tempo,480,1,0,,,,,,,,,,,,474608,,,,,,,
51600,note_on,0,0,2,,,,,,,,,,,,,,,0,,,57,33
51660,note_on,60,0,1,,,,,,,,,,,,,,,0,,,77,0
51720,note_on,120,0,2,,,,,,,,,,,,,,,0,,,63,0
51720,note_on,0,0,2,,,,,,,,,,,,,,,0,,,57,0
51720,note_on,0,0,2,,,,,,,,,,,,,,,0,,,65,34
51840,note_on,120,0,2,,,,,,,,,,,,,,,0,,,65,0
51840,note_on,0,0,2,,,,,,,,,,,,,,,0,,,57,42
51840,note_on,0,0,2,,,,,,,,,,,,,,,0,,,63,50
51840,set_tempo,240,1,0,,,,,,,,,,,,463679,,,,,,,
51840,note_on,180,0,1,,,,,,,,,,,,,,,0,,,78,82
51872,control_change,32,0,2,,,,,,,,,,,,,,,0,64,127,,
51960,note_on,88,0,2,,,,,,,,,,,,,,,0,,,63,0
51960,note_on,0,0,2,,,,,,,,,,,,,,,0,,,66,35
51960,note_on,0,0,2,,,,,,,,,,,,,,,0,,,57,0
52080,note_on,120,0,2,,,,,,,,,,,,,,,0,,,66,0
52080,note_on,0,0,2,,,,,,,,,,,,,,,0,,,63,40
52080,note_on,0,0,2,,,,,,,,,,,,,,,0,,,57,34
52080,note_on,0,0,1,,,,,,,,,,,,,,,0,,,90,78
52080,note_on,240,0,1,,,,,,,,,,,,,,,0,,,78,0
52200,note_on,0,0,2,,,,,,,,,,,,,,,0,,,66,35
52200,note_on,0,0,2,,,,,,,,,,,,,,,0,,,57,0
52200,note_on,120,0,2,,,,,,,,,,,,,,,0,,,63,0
52313,control_change,113,0,2,,,,,,,,,,,,,,,0,64,0,,
52320,note_on,240,0,1,,,,,,,,,,,,,,,0,,,90,0
52320,note_on,0,0,2,,,,,,,,,,,,,,,0,,,57,34
52320,set_tempo,480,1,0,,,,,,,,,,,,472776,,,,,,,
52320,note_on,0,0,2,,,,,,,,,,,,,,,0,,,63,40
52320,note_on,7,0,2,,,,,,,,,,,,,,,0,,,66,0
52320,note_on,0,0,1,,,,,,,,,,,,,,,0,,,90,79
52380,note_on,60,0,1,,,,,,,,,,,,,,,0,,,90,0
52440,note_on,0,0,2,,,,,,,,,,,,,,,0,,,57,0
52440,note_on,120,0,2,,,,,,,,,,,,,,,0,,,63,0
52440,note_on,0,0,2,,,,,,,,,,,,,,,0,,,66,36
52560,control_change,0,0,2,,,,,,,,,,,,,,,0,64,127,,
52560,note_on,0,0,2,,,,,,,,,,,,,,,0,,,58,40
52560,note_on,120,0,2,,,,,,,,,,,,,,,0,,,66,0
52560,note_on,180,0,1,,,,,,,,,,,,,,,0,,,91,90
52560,note_on,0,0,2,,,,,,,,,,,,,,,0,,,63,48
52560,set_tempo,240,1,0,,,,,,,,,,,,463679,,,,,,,
52680,note_on,0,0,2,,,,,,,,,,,,,,,0,,,67,36
52680,note_on,0,0,2,,,,,,,,,,,,,,,0,,,58,0
52680,note_on,120,0,2,,,,,,,,,,,,,,,0,,,63,0
52800,note_on,0,0,1,,,,,,,,,,,,,,,0,,,79,72
52800,note_on,0,0,2,,,,,,,,,,,,,,,0,,,63,41
52800,note_on,0,0,2,,,,,,,,,,,,,,,0,,,58,35
52800,note_on,120,0,2,,,,,,,,,,,,,,,0,,,67,0
52800,note_on,240,0,1,,,,,,,,,,,,,,,0,,,91,0
52920,note_on,120,0,2,,,,,,,,,,,,,,,0,,,63,0
52920,note_on,0,0,2,,,,,,,,,,,,,,,0,,,58,0
52920,note_on,0,0,2,,,,,,,,,,,,,,,0,,,67,36
53036,control_change,116,0,2,,,,,,,,,,,,,,,0,64,0,,
53040,note_on,240,0,1,,,,,,,,,,,,,,,0,,,79,0
53040,note_on,0,0,1,,,,,,,,,,,,,,,0,,,79,72
53040,note_on,0,0,2,,,,,,,,,,,,,,,0,,,63,41
53040,note_on,0,0,2,,,,,,,,,,,,,,,0,,,58,35
53040,note_on,4,0,2,,,,,,,,,,,,,,,0,,,67,0
53100,note_on,60,0,1,,,,,,,,,,,,,,,0,,,79,0
53160,note_on,120,0,2,,,,,,,,,,,,,,,0,,,63,0
53160,note_on,0,0,2,,,,,,,,,,,,,,,0,,,58,0
53160,note_on,0,0,2,,,,,,,,,,,,,,,0,,,67,36
53280,note_on,120,0,2,,,,,,,,,,,,,,,0,,,67,0
53280,note_on,0,0,2,,,,,,,,,,,,,,,0,,,60,42
53280,note_on,0,0,2,,,,,,,,,,,,,,,0,,,63,50
53280,note_on,180,0,1,,,,,,,,,,,,,,,0,,,81,77
53340,note_on,60,0,1,,,,,,,,,,,,,,,0,,,81,0
53400,note_on,120,0,2,,,,,,,,,,,,,,,0,,,63,0
53400,note_on,0,0,2,,,,,,,,,,,,,,,0,,,60,0
53400,note_on,0,0,2,,,,,,,,,,,,,,,0,,,67,37
53490,note_on,150,0,1,,,,,,,,,,,,,,,0,,,94,73
53492,control_change,92,0,2,,,,,,,,,,,,,,,0,64,127,,
53520,note_on,28,0,2,,,,,,,,,,,,,,,0,,,67,0
53520,note_on,0,0,2,,,,,,,,,,,,,,,0,,,60,36
53520,note_on,0,0,2,,,,,,,,,,,,,,,0,,,63,42
53520,note_on,0,0,1,,,,,,,,,,,,,,,0,,,93,77
53520,set_tempo,960,1,0,,,,,,,,,,,,452625,,,,,,,
53520,note_on,30,0,1,,,,,,,,,,,,,,,0,,,94,0
53640,note_on,0,0,2,,,,,,,,,,,,,,,0,,,60,0
53640,note_on,0,0,2,,,,,,,,,,,,,,,0,,,67,37
53640,note_on,0,0,1,,,,,,,,,,,,,,,0,,,91,74
53640,note_on,120,0,1,,,,,,,,,,,,,,,0,,,93,0
53640,note_on,120,0,2,,,,,,,,,,,,,,,0,,,63,0
53760,note_on,0,0,2,,,,,,,,,,,,,,,0,,,63,44
53760,note_on,0,0,2,,,,,,,,,,,,,,,0,,,60,37
53760,note_on,120,0,2,,,,,,,,,,,,,,,0,,,67,0
53760,note_on,0,0,1,,,,,,,,,,,,,,,0,,,93,78
53760,note_on,120,0,1,,,,,,,,,,,,,,,0,,,91,0
53760,set_tempo,240,1,0,,,,,,,,,,,,458155,,,,,,,
53880,note_on,120,0,2,,,,,,,,,,,,,,,0,,,63,0
53880,note_on,0,0,2,,,,,,,,,,,,,,,0,,,60,0
53880,note_on,0,0,2,,,,,,,,,,,,,,,0,,,67,38
54000,note_on,240,0,1,,,,,,,,,,,,,,,0,,,93,0
54000,note_on,0,0,1,,,,,,,,,,,,,,,0,,,94,81
54000,note_on,120,0,2,,,,,,,,,,,,,,,0,,,67,0
54000,control_change,0,0,2,,,,,,,,,,,,,,,0,64,0,,
54000,note_on,0,0,2,,,,,,,,,,,,,,,0,,,62,51
54000,note_on,0,0,2,,,,,,,,,,,,,,,0,,,55,42
54060,note_on,60,0,1,,,,,,,,,,,,,,,0,,,94,0
54120,note_on,120,0,2,,,,,,,,,,,,,,,0,,,62,0
54120,note_on,0,0,2,,,,,,,,,,,,,,,0,,,55,0
54120,note_on,0,0,2,,,,,,,,,,,,,,,0,,,67,38
54201,control_change,81,0,2,,,,,,,,,,,,,,,0,64,127,,
54210,note_on,150,0,1,,,,,,,,,,,,,,,0,,,84,72
54240,set_tempo,480,1,0,,,,,,,,,,,,452625,,,,,,,
54240,note_on,30,0,1,,,,,,,,,,,,,,,0,,,84,0
54240,note_on,0,0,1,,,,,,,,,,,,,,,0,,,82,75
54240,note_on,39,0,2,,,,,,,,,,,,,,,0,,,67,0
54240,note_on,0,0,2,,,,,,,,,,,,,,,0,,,55,37
54240,note_on,0,0,2,,,,,,,,,,,,,,,0,,,62,44
54360,note_on,120,0,1,,,,,,,,,,,,,,,0,,,82,0
54360,note_on,0,0,1,,,,,,,,,,,,,,,0,,,81,71
54360,note_on,0,0,2,,,,,,,,,,,,,,,0,,,55,0
54360,note_on,120,0,2,,,,,,,,,,,,,,,0,,,62,0
54360,note_on,0,0,2,,,,,,,,,,,,,,,0,,,67,38
54480,note_on,120,0,2,,,,,,,,,,,,,,,0,,,67,0
54480,note_on,120,0,1,,,,,,,,,,,,,,,0,,,81,0
54480,note_on,0,0,1,,,,,,,,,,,,,,,0,,,82,77
54480,set_tempo,240,1,0,,,,,,,,,,,,484183,,,,,,,
54480,note_on,0,0,2,,,,,,,,,,,,,,,0,,,62,44
54480,note_on,0,0,2,,,,,,,,,,,,,,,0,,,55,37
54600,note_on,0,0,2,,,,,,,,,,,,,,,0,,,67,39
54600,note_on,120,0,2,,,,,,,,,,,,,,,0,,,62,0
54600,note_on,0,0,2,,,,,,,,,,,,,,,0,,,55,0
54600,note_on,120,0,1,,,,,,,,,,,,,,,0,,,82,0
54720,note_on,120,0,2,,,,,,,,,,,,,,,0,,,67,0
54720,control_change,0,0,2,,,,,,,,,,,,,,,0,64,0,,
54720,note_on,0,0,2,,,,,,,,,,,,,,,0,,,63,73
54720,note_on,120,0,1,,,,,,,,,,,,,,,0,,,75,52
54720,note_on,0,0,1,,,,,,,,,,,,,,,0,,,79,62
54720,set_tempo,240,1,0,,,,,,,,,,,,465477,,,,,,,
54840,note_on,120,0,1,,,,,,,,,,,,,,,0,,,79,0
54840,note_on,0,0,1,,,,,,,,,,,,,,,0,,,82,55
54840,note_on,0,0,1,,,,,,,,,,,,,,,0,,,75,0
54960,note_on,0,0,2,,,,,,,,,,,,,,,0,,,62,62
54960,note_on,240,0,2,,,,,,,,,,,,,,,0,,,63,0
54960,note_on,0,0,1,,,,,,,,,,,,,,,0,,,79,63
54960,note_on,0,0,1,,,,,,,,,,,,,,,0,,,75,53
54960,note_on,120,0,1,,,,,,,,,,,,,,,0,,,82,0
55080,note_on,0,0,1,,,,,,,,,,,,,,,0,,,82,53
55080,note_on,0,0,1,,,,,,,,,,,,,,,0,,,75,0
55080,note_on,120,0,1,,,,,,,,,,,,,,,0,,,79,0
55200,note_on,0,0,1,,,,,,,,,,,,,,,0,,,75,53
55200,note_on,240,0,2,,,,,,,,,,,,,,,0,,,62,0
55200,note_on,0,0,2,,,,,,,,,,,,,,,0,,,63,62
55200,note_on,120,0,1,,,,,,,,,,,,,,,0,,,82,0
55200,note_on,0,0,1,,,,,,,,,,,,,,,0,,,79,63
55320,note_on,0,0,1,,,,,,,,,,,,,,,0,,,82,55
55320,note_on,0,0,1,,,,,,,,,,,,,,,0,,,75,0
55320,note_on,120,0,1,,,,,,,,,,,,,,,0,,,79,0
55440,note_on,240,0,2,,,,,,,,,,,,,,,0,,,63,0
55440,note_on,120,0,1,,,,,,,,,,,,,,,0,,,82,0
55440,note_on,0,0,1,,,,,,,,,,,,,,,0,,,79,64
55440,note_on,0,0,1,,,,,,,,,,,,,,,0,,,75,55
55440,set_tempo,720,1,0,,,,,,,,,,,,456274,,,,,,,
55440,note_on,0,0,2,,,,,,,,,,,,,,,0,,,60,73
55560,note_on,120,0,1,,,,,,,,,,,,,,,0,,,79,0
55560,note_on,0,0,1,,,,,,,,,,,,,,,0,,,75,0
55560,note_on,0,0,1,,,,,,,,,,,,,,,0,,,84,55
55680,note_on,0,0,1,,,,,,,,,,,,,,,0,,,79,63
55680,note_on,0,0,1,,,,,,,,,,,,,,,0,,,75,53
55680,note_on,0,0,2,,,,,,,,,,,,,,,0,,,62,59
55680,note_on,240,0,2,,,,,,,,,,,,,,,0,,,60,0
55680,set_tempo,240,1,0,,,,,,,,,,,,452625,,,,,,,
55680,note_on,120,0,1,,,,,,,,,,,,,,,0,,,84,0
55800,note_on,0,0,1,,,,,,,,,,,,,,,0,,,84,53
55800,note_on,0,0,1,,,,,,,,,,,,,,,0,,,75,0
55800,note_on,120,0,1,,,,,,,,,,,,,,,0,,,79,0
55800,note_on,0,0,2,,,,,,,,,,,,,,,0,,,63,59
55800,note_on,120,0,2,,,,,,,,,,,,,,,0,,,62,0
55920,note_on,0,0,1,,,,,,,,,,,,,,,0,,,75,53
55920,note_on,0,0,1,,,,,,,,,,,,,,,0,,,79,63
55920,note_on,120,0,1,,,,,,,,,,,,,,,0,,,84,0
55920,note_on,120,0,2,,,,,,,,,,,,,,,0,,,63,0
55920,note_on,0,0,2,,,,,,,,,,,,,,,0,,,65,62
56040,note_on,120,0,1,,,,,,,,,,,,,,,0,,,79,0
56040,note_on,120,0,2,,,,,,,,,,,,,,,0,,,65,0
56040,note_on,0,0,2,,,,,,,,,,,,,,,0,,,67,62
56040,note_on,0,0,1,,,,,,,,,,,,,,,0,,,84,53
56040,note_on,0,0,1,,,,,,,,,,,,,,,0,,,75,0
56160,note_on,0,0,1,,,,,,,,,,,,,,,0,,,79,68
56160,note_on,0,0,1,,,,,,,,,,,,,,,0,,,75,57
56160,note_on,120,0,1,,,,,,,,,,,,,,,0,,,84,0
56160,set_tempo,480,1,0,,,,,,,,,,,,458155,,,,,,,
56160,note_on,0,0,2,,,,,,,,,,,,,,,0,,,63,71
56160,note_on,120,0,2,,,,,,,,,,,,,,,0,,,67,0
56280,note_on,120,0,1,,,,,,,,,,,,,,,0,,,79,0
56280,note_on,0,0,1,,,,,,,,,,,,,,,0,,,75,0
56280,note_on,0,0,1,,,,,,,,,,,,,,,0,,,82,55
56400,note_on,0,0,2,,,,,,,,,,,,,,,0,,,65,68
56400,note_on,240,0,2,,,,,,,,,,,,,,,0,,,63,0
56400,note_on,120,0,1,,,,,,,,,,,,,,,0,,,82,0
56400,note_on,0,0,1,,,,,,,,,,,,,,,0,,,75,53
56400,set_tempo,240,1,0,,,,,,,,,,,,452625,,,,,,,
56400,note_on,0,0,1,,,,,,,,,,,,,,,0,,,79,63
56520,note_on,120,0,1,,,,,,,,,,,,,,,0,,,75,0
56520,note_on,0,0,1,,,,,,,,,,,,,,,0,,,79,0
56520,note_on,0,0,1,,,,,,,,,,,,,,,0,,,82,53
56520,note_on,0,0,2,,,,,,,,,,,,,,,0,,,63,62
56520,note_on,120,0,2,,,,,,,,,,,,,,,0,,,65,0
56640,note_on,120,0,1,,,,,,,,,,,,,,,0,,,82,0
56640,note_on,0,0,1,,,,,,,,,,,,,,,0,,,75,53
56640,note_on,0,0,1,,,,,,,,,,,,,,,0,,,79,63
56640,note_on,0,0,2,,,,,,,,,,,,,,,0,,,62,68
56640,note_on,120,0,2,,,,,,,,,,,,,,,0,,,63,0
56760,note_on,120,0,2,,,,,,,,,,,,,,,0,,,62,0
56760,note_on,0,0,2,,,,,,,,,,,,,,,0,,,60,62
56760,note_on,120,0,1,,,,,,,,,,,,,,,0,,,79,0
56760,note_on,0,0,1,,,,,,,,,,,,,,,0,,,75,0
56760,note_on,0,0,1,,,,,,,,,,,,,,,0,,,82,53
56880,note_on,0,0,1,,,,,,,,,,,,,,,0,,,74,61
56880,note_on,0,0,1,,,,,,,,,,,,,,,0,,,80,72
56880,note_on,120,0,1,,,,,,,,,,,,,,,0,,,82,0
56880,note_on,0,0,2,,,,,,,,,,,,,,,0,,,58,72
56880,set_tempo,480,1,0,,,,,,,,,,,,463750,,,,,,,
56880,note_on,120,0,2,,,,,,,,,,,,,,,0,,,60,0
56940,note_on,60,0,2,,,,,,,,,,,,,,,0,,,58,0
57000,note_on,0,0,1,,,,,,,,,,,,,,,0,,,82,55
57000,note_on,0,0,1,,,,,,,,,,,,,,,0,,,74,0
57000,note_on,120,0,1,,,,,,,,,,,,,,,0,,,80,0
57120,note_on,0,0,1,,,,,,,,,,,,,,,0,,,80,63
57120,note_on,0,0,1,,,,,,,,,,,,,,,0,,,74,53
57120,note_on,120,0,1,,,,,,,,,,,,,,,0,,,82,0
57120,note_on,180,0,2,,,,,,,,,,,,,,,0,,,58,62
57180,note_on,60,0,2,,,,,,,,,,,,,,,0,,,58,0
57240,note_on,0,0,1,,,,,,,,,,,,,,,0,,,74,0
57240,note_on,120,0,1,,,,,,,,,,,,,,,0,,,80,0
57240,note_on,0,0,1,,,,,,,,,,,,,,,0,,,82,57
57360,note_on,180,0,2,,,,,,,,,,,,,,,0,,,58,62
57360,set_tempo,480,1,0,,,,,,,,,,,,472776,,,,,,,
57360,note_on,120,0,1,,,,,,,,,,,,,,,0,,,82,0
57360,note_on,0,0,1,,,,,,,,,,,,,,,0,,,74,53
57360,note_on,0,0,1,,,,,,,,,,,,,,,0,,,80,63
57420,note_on,60,0,2,,,,,,,,,,,,,,,0,,,58,0
57480,note_on,120,0,1,,,,,,,,,,,,,,,0,,,80,0
57480,note_on,0,0,1,,,,,,,,,,,,,,,0,,,74,0
57480,note_on,0,0,1,,,,,,,,,,,,,,,0,,,82,55
57600,note_on,120,0,1,,,,,,,,,,,,,,,0,,,82,0
57600,set_tempo,240,1,0,,,,,,,,,,,,463679,,,,,,,
57600,note_on,180,0,2,,,,,,,,,,,,,,,0,,,59,71
57600,note_on,0,0,1,,,,,,,,,,,,,,,0,,,74,58
57600,note_on,0,0,1,,,,,,,,,,,,,,,0,,,80,69
57720,note_on,120,0,1,,,,,,,,,,,,,,,0,,,80,0
57720,note_on,0,0,1,,,,,,,,,,,,,,,0,,,74,0
57720,note_on,0,0,1,,,,,,,,,,,,,,,0,,,86,55
57840,note_on,0,0,1,,,,,,,,,,,,,,,0,,,80,63
57840,note_on,120,0,1,,,,,,,,,,,,,,,0,,,86,0
57840,note_on,0,0,1,,,,,,,,,,,,,,,0,,,74,53
57840,note_on,240,0,2,,,,,,,,,,,,,,,0,,,59,0
57840,note_on,0,0,2,,,,,,,,,,,,,,,0,,,71,59
57960,note_on,120,0,1,,,,,,,,,,,,,,,0,,,80,0
57960,note_on,0,0,1,,,,,,,,,,,,,,,0,,,74,0
57960,note_on,0,0,1,,,,,,,,,,,,,,,0,,,86,55
58080,note_on,240,0,2,,,,,,,,,,,,,,,0,,,71,0
58080,set_tempo,480,1,0,,,,,,,,,,,,474608,,,,,,,
58080,note_on,120,0,1,,,,,,,,,,,,,,,0,,,86,0
58080,note_on,0,0,1,,,,,,,,,,,,,,,0,,,74,53
58080,note_on,0,0,1,,,,,,,,,,,,,,,0,,,80,63
58080,note_on,0,0,2,,,,,,,,,,,,,,,0,,,71,63
58140,note_on,60,0,2,,,,,,,,,,,,,,,0,,,71,0
58200,note_on,0,0,1,,,,,,,,,,,,,,,0,,,86,55
58200,note_on,0,0,1,,,,,,,,,,,,,,,0,,,74,0
58200,note_on,120,0,1,,,,,,,,,,,,,,,0,,,80,0
58320,note_on,120,0,1,,,,,,,,,,,,,,,0,,,86,0
58320,note_on,0,0,1,,,,,,,,,,,,,,,0,,,75,57
58320,note_on,0,0,1,,,,,,,,,,,,,,,0,,,79,68
58320,set_tempo,240,1,0,,,,,,,,,,,,463679,,,,,,,
58320,note_on,180,0,2,,,,,,,,,,,,,,,0,,,72,73
58440,note_on,0,0,1,,,,,,,,,,,,,,,0,,,87,55
58440,note_on,0,0,1,,,,,,,,,,,,,,,0,,,75,0
58440,note_on,120,0,1,,,,,,,,,,,,,,,0,,,79,0
58560,note_on,0,0,2,,,,,,,,,,,,,,,0,,,60,69
58560,note_on,0,0,1,,,,,,,,,,,,,,,0,,,79,63
58560,note_on,0,0,1,,,,,,,,,,,,,,,0,,,75,53
58560,note_on,120,0,1,,,,,,,,,,,,,,,0,,,87,0
58560,note_on,240,0,2,,,,,,,,,,,,,,,0,,,72,0
58680,note_on,0,0,1,,,,,,,,,,,,,,,0,,,87,55
58680,note_on,0,0,1,,,,,,,,,,,,,,,0,,,75,0
58680,note_on,120,0,1,,,,,,,,,,,,,,,0,,,79,0
58800,note_on,0,0,2,,,,,,,,,,,,,,,0,,,60,71
58800,note_on,0,0,1,,,,,,,,,,,,,,,0,,,79,63
58800,note_on,0,0,1,,,,,,,,,,,,,,,0,,,75,53
58800,note_on,120,0,1,,,,,,,,,,,,,,,0,,,87,0
58800,note_on,240,0,2,,,,,,,,,,,,,,,0,,,60,0
58860,note_on,60,0,2,,,,,,,,,,,,,,,0,,,60,0
58920,note_on,0,0,1,,,,,,,,,,,,,,,0,,,75,0
58920,note_on,120,0,1,,,,,,,,,,,,,,,0,,,79,0
58920,note_on,0,0,1,,,,,,,,,,,,,,,0,,,86,55
59040,note_on,180,0,2,,,,,,,,,,,,,,,0,,,65,78
59040,note_on,0,0,1,,,,,,,,,,,,,,,0,,,81,63
59040,note_on,120,0,1,,,,,,,,,,,,,,,0,,,86,0
59040,note_on,0,0,1,,,,,,,,,,,,,,,0,,,75,53
59100,note_on,60,0,2,,,,,,,,,,,,,,,0,,,65,0
59160,note_on,0,0,1,,,,,,,,,,,,,,,0,,,75,0
59160,note_on,0,0,1,,,,,,,,,,,,,,,0,,,84,55
59160,note_on,120,0,1,,,,,,,,,,,,,,,0,,,81,0
59220,note_on,120,0,2,,,,,,,,,,,,,,,0,,,55,69
59280,set_tempo,960,1,0,,,,,,,,,,,,452625,,,,,,,
59280,note_on,120,0,1,,,,,,,,,,,,,,,0,,,84,0
59280,note_on,0,0,1,,,,,,,,,,,,,,,0,,,75,53
59280,note_on,0,0,1,,,,,,,,,,,,,,,0,,,81,63
59280,note_on,60,0,2,,,,,,,,,,,,,,,0,,,53,79
59300,note_on,20,0,2,,,,,,,,,,,,,,,0,,,55,0
59400,note_on,0,0,1,,,,,,,,,,,,,,,0,,,75,0
59400,note_on,0,0,1,,,,,,,,,,,,,,,0,,,84,55
59400,note_on,120,0,1,,,,,,,,,,,,,,,0,,,81,0
59400,note_on,100,0,2,,,,,,,,,,,,,,,0,,,52,73
59420,note_on,20,0,2,,,,,,,,,,,,,,,0,,,53,0
59520,note_on,100,0,2,,,,,,,,,,,,,,,0,,,53,78
59520,note_on,120,0,1,,,,,,,,,,,,,,,0,,,84,0
59520,note_on,0,0,1,,,,,,,,,,,,,,,0,,,75,53
59520,note_on,0,0,1,,,,,,,,,,,,,,,0,,,81,63
59520,set_tempo,240,1,0,,,,,,,,,,,,491884,,,,,,,
59540,note_on,20,0,2,,,,,,,,,,,,,,,0,,,52,0
59640,note_on,120,0,1,,,,,,,,,,,,,,,0,,,81,0
59640,note_on,0,0,1,,,,,,,,,,,,,,,0,,,75,0
59640,note_on,0,0,1,,,,,,,,,,,,,,,0,,,84,55
59760,note_on,0,0,2,,,,,,,,,,,,,,,0,,,58,73
59760,set_tempo,240,1,0,,,,,,,,,,,,461787,,,,,,,
59760,note_on,220,0,2,,,,,,,,,,,,,,,0,,,53,0
59760,note_on,0,0,1,,,,,,,,,,,,,,,0,,,82,63
59760,note_on,0,0,1,,,,,,,,,,,,,,,0,,,74,53
59760,note_on,120,0,1,,,,,,,,,,,,,,,0,,,84,0
59820,note_on,60,0,2,,,,,,,,,,,,,,,0,,,58,0
59880,note_on,0,0,1,,,,,,,,,,,,,,,0,,,86,55
59880,note_on,120,0,1,,,,,,,,,,,,,,,0,,,82,0
59880,note_on,0,0,1,,,,,,,,,,,,,,,0,,,74,0
59940,note_on,120,0,2,,,,,,,,,,,,,,,0,,,48,64
60000,note_on,0,0,1,,,,,,,,,,,,,,,0,,,74,53
60000,note_on,0,0,1,,,,,,,,,,,,,,,0,,,82,63
60000,set_tempo,240,1,0,,,,,,,,,,,,452625,,,,,,,
60000,note_on,60,0,2,,,,,,,,,,,,,,,0,,,46,73
60000,note_on,120,0,1,,,,,,,,,,,,,,,0,,,86,0
60020,note_on,20,0,2,,,,,,,,,,,,,,,0,,,48,0
60120,note_on,100,0,2,,,,,,,,,,,,,,,0,,,45,68
60120,note_on,120,0,1,,,,,,,,,,,,,,,0,,,82,0
60120,note_on,0,0,1,,,,,,,,,,,,,,,0,,,74,0
60120,note_on,0,0,1,,,,,,,,,,,,,,,0,,,86,55
60140,note_on,20,0,2,,,,,,,,,,,,,,,0,,,46,0
60240,note_on,120,0,1,,,,,,,,,,,,,,,0,,,86,0
60240,note_on,0,0,1,,,,,,,,,,,,,,,0,,,74,53
60240,note_on,0,0,1,,,,,,,,,,,,,,,0,,,82,63
60240,set_tempo,240,1,0,,,,,,,,,,,,504498,,,,,,,
60240,note_on,100,0,2,,,,,,,,,,,,,,,0,,,46,73
60260,note_on,20,0,2,,,,,,,,,,,,,,,0,,,45,0
60360,note_on,0,0,1,,,,,,,,,,,,,,,0,,,74,0
60360,note_on,120,0,1,,,,,,,,,,,,,,,0,,,82,0
60360,note_on,0,0,1,,,,,,,,,,,,,,,0,,,86,55
60480,note_on,0,0,2,,,,,,,,,,,,,,,0,,,41,66
60480,note_on,220,0,2,,,,,,,,,,,,,,,0,,,46,0
60480,set_tempo,240,1,0,,,,,,,,,,,,456274,,,,,,,
60480,note_on,0,0,1,,,,,,,,,,,,,,,0,,,81,64
60480,note_on,0,0,1,,,,,,,,,,,,,,,0,,,75,55
60480,note_on,120,0,1,,,,,,,,,,,,,,,0,,,86,0
60487,control_change,7,0,2,,,,,,,,,,,,,,,0,64,0,,
60572,control_change,85,0,2,,,,,,,,,,,,,,,0,64,127,,
60600,note_on,0,0,1,,,,,,,,,,,,,,,0,,,84,55
60600,note_on,0,0,1,,,,,,,,,,,,,,,0,,,75,0
60600,note_on,120,0,1,,,,,,,,,,,,,,,0,,,81,0
60720,note_on,0,0,1,,,,,,,,,,,,,,,0,,,81,63
60720,note_on,120,0,1,,,,,,,,,,,,,,,0,,,84,0
60720,set_tempo,240,1,0,,,,,,,,,,,,452625,,,,,,,
60720,note_on,0,0,1,,,,,,,,,,,,,,,0,,,75,53
60720,note_on,148,0,2,,,,,,,,,,,,,,,0,,,41,0
60720,note_on,0,0,2,,,,,,,,,,,,,,,0,,,43,52
60769,control_change,49,0,2,,,,,,,,,,,,,,,0,64,0,,
60826,control_change,57,0,2,,,,,,,,,,,,,,,0,64,127,,
60840,note_on,0,0,2,,,,,,,,,,,,,,,0,,,45,52
60840,note_on,14,0,2,,,,,,,,,,,,,,,0,,,43,0
60840,note_on,120,0,1,,,,,,,,,,,,,,,0,,,81,0
60840,note_on,0,0,1,,,,,,,,,,,,,,,0,,,75,0
60840,note_on,0,0,1,,,,,,,,,,,,,,,0,,,84,53
60960,note_on,0,0,2,,,,,,,,,,,,,,,0,,,46,56
60960,set_tempo,240,1,0,,,,,,,,,,,,469043,,,,,,,
60960,note_on,120,0,2,,,,,,,,,,,,,,,0,,,45,0
60960,note_on,120,0,1,,,,,,,,,,,,,,,0,,,84,0
60960,note_on,0,0,1,,,,,,,,,,,,,,,0,,,81,63
60960,note_on,0,0,1,,,,,,,,,,,,,,,0,,,75,53
61080,note_on,120,0,2,,,,,,,,,,,,,,,0,,,46,0
61080,note_on,0,0,1,,,,,,,,,,,,,,,0,,,75,0
61080,note_on,0,0,2,,,,,,,,,,,,,,,0,,,48,56
61080,note_on,120,0,1,,,,,,,,,,,,,,,0,,,81,0
61080,note_on,0,0,1,,,,,,,,,,,,,,,0,,,84,53
61200,note_on,120,0,1,,,,,,,,,,,,,,,0,,,84,0
61200,note_on,0,0,1,,,,,,,,,,,,,,,0,,,74,57
61200,set_tempo,240,1,0,,,,,,,,,,,,470995,,,,,,,
61200,note_on,0,0,1,,,,,,,,,,,,,,,0,,,82,68
61200,note_on,120,0,2,,,,,,,,,,,,,,,0,,,48,0
61200,control_change,0,0,2,,,,,,,,,,,,,,,0,64,0,,
61200,note_on,0,0,2,,,,,,,,,,,,,,,0,,,46,63
61240,set_tempo,40,1,0,,,,,,,,,,,,478965,,,,,,,
61320,note_on,0,0,1,,,,,,,,,,,,,,,0,,,86,55
61320,note_on,0,0,1,,,,,,,,,,,,,,,0,,,74,0
61320,set_tempo,80,1,0,,,,,,,,,,,,480962,,,,,,,
61320,note_on,120,0,1,,,,,,,,,,,,,,,0,,,82,0
61400,set_tempo,80,1,0,,,,,,,,,,,,483014,,,,,,,
61440,note_on,0,0,1,,,,,,,,,,,,,,,0,,,74,53
61440,note_on,120,0,1,,,,,,,,,,,,,,,0,,,86,0
61440,note_on,0,0,1,,,,,,,,,,,,,,,0,,,82,63
61440,note_on,0,0,2,,,,,,,,,,,,,,,0,,,46,63
61440,note_on,240,0,2,,,,,,,,,,,,,,,0,,,46,0
61480,set_tempo,80,1,0,,,,,,,,,,,,485084,,,,,,,
61560,note_on,0,0,1,,,,,,,,,,,,,,,0,,,86,53
61560,set_tempo,80,1,0,,,,,,,,,,,,487171,,,,,,,
61560,note_on,120,0,1,,,,,,,,,,,,,,,0,,,74,0
61560,note_on,0,0,1,,,,,,,,,,,,,,,0,,,82,0
61640,set_tempo,80,1,0,,,,,,,,,,,,489277,,,,,,,
61680,note_on,240,0,2,,,,,,,,,,,,,,,0,,,46,0
61680,note_on,0,0,2,,,,,,,,,,,,,,,0,,,46,63
61680,note_on,0,0,1,,,,,,,,,,,,,,,0,,,82,63
61680,set_tempo,40,1,0,,,,,,,,,,,,491400,,,,,,,
61680,note_on,120,0,1,,,,,,,,,,,,,,,0,,,86,0
61680,note_on,0,0,1,,,,,,,,,,,,,,,0,,,74,53
61800,note_on,120,0,1,,,,,,,,,,,,,,,0,,,82,0
61800,note_on,0,0,1,,,,,,,,,,,,,,,0,,,74,0
61800,note_on,0,0,1,,,,,,,,,,,,,,,0,,,86,53
61920,note_on,240,0,2,,,,,,,,,,,,,,,0,,,46,0
61920,set_tempo,240,1,0,,,,,,,,,,,,469043,,,,,,,
61920,note_on,0,0,2,,,,,,,,,,,,,,,0,,,53,59
61920,note_on,0,0,1,,,,,,,,,,,,,,,0,,,81,58
61920,note_on,0,0,1,,,,,,,,,,,,,,,0,,,75,49
61920,note_on,120,0,1,,,,,,,,,,,,,,,0,,,86,0
62012,control_change,92,0,2,,,,,,,,,,,,,,,0,64,127,,
62040,note_on,0,0,1,,,,,,,,,,,,,,,0,,,84,49
62040,note_on,120,0,1,,,,,,,,,,,,,,,0,,,81,0
62040,note_on,0,0,1,,,,,,,,,,,,,,,0,,,75,0
62160,note_on,120,0,1,,,,,,,,,,,,,,,0,,,84,0
62160,note_on,0,0,1,,,,,,,,,,,,,,,0,,,81,57
62160,note_on,148,0,2,,,,,,,,,,,,,,,0,,,53,0
62160,note_on,0,0,2,,,,,,,,,,,,,,,0,,,55,47
62160,set_tempo,240,1,0,,,,,,,,,,,,457701,,,,,,,
62160,note_on,0,0,1,,,,,,,,,,,,,,,0,,,75,48
62209,control_change,49,0,2,,,,,,,,,,,,,,,0,64,0,,
62266,control_change,57,0,2,,,,,,,,,,,,,,,0,64,127,,
62280,note_on,120,0,1,,,,,,,,,,,,,,,0,,,81,0
62280,note_on,0,0,1,,,,,,,,,,,,,,,0,,,75,0
62280,note_on,14,0,2,,,,,,,,,,,,,,,0,,,55,0
62280,note_on,0,0,1,,,,,,,,,,,,,,,0,,,84,48
62280,note_on,0,0,2,,,,,,,,,,,,,,,0,,,57,47
62400,set_tempo,240,1,0,,,,,,,,,,,,467108,,,,,,,
62400,note_on,120,0,1,,,,,,,,,,,,,,,0,,,84,0
62400,note_on,0,0,1,,,,,,,,,,,,,,,0,,,75,48
62400,note_on,0,0,1,,,,,,,,,,,,,,,0,,,81,57
62400,note_on,0,0,2,,,,,,,,,,,,,,,0,,,58,49
62400,note_on,120,0,2,,,,,,,,,,,,,,,0,,,57,0
62520,note_on,0,0,1,,,,,,,,,,,,,,,0,,,75,0
62520,note_on,0,0,1,,,,,,,,,,,,,,,0,,,84,48
62520,note_on,120,0,2,,,,,,,,,,,,,,,0,,,58,0
62520,note_on,0,0,2,,,,,,,,,,,,,,,0,,,60,49
62520,note_on,120,0,1,,,,,,,,,,,,,,,0,,,81,0
62640,set_tempo,240,1,0,,,,,,,,,,,,485084,,,,,,,
62640,note_on,120,0,2,,,,,,,,,,,,,,,0,,,60,0
62640,control_change,0,0,2,,,,,,,,,,,,,,,0,64,0,,
62640,note_on,0,0,1,,,,,,,,,,,,,,,0,,,82,60
62640,note_on,120,0,1,,,,,,,,,,,,,,,0,,,84,0
62640,note_on,0,0,1,,,,,,,,,,,,,,,0,,,74,50
62640,note_on,0,0,2,,,,,,,,,,,,,,,0,,,58,57
62720,set_tempo,80,1,0,,,,,,,,,,,,487171,,,,,,,
62760,note_on,0,0,1,,,,,,,,,,,,,,,0,,,86,49
62760,note_on,0,0,1,,,,,,,,,,,,,,,0,,,74,0
62760,note_on,120,0,1,,,,,,,,,,,,,,,0,,,82,0
62800,set_tempo,80,1,0,,,,,,,,,,,,489277,,,,,,,
62880,note_on,0,0,1,,,,,,,,,,,,,,,0,,,82,57
62880,note_on,240,0,2,,,,,,,,,,,,,,,0,,,58,0
62880,note_on,0,0,2,,,,,,,,,,,,,,,0,,,58,57
62880,note_on,0,0,1,,,,,,,,,,,,,,,0,,,74,48
62880,set_tempo,80,1,0,,,,,,,,,,,,491400,,,,,,,
62880,note_on,120,0,1,,,,,,,,,,,,,,,0,,,86,0
62960,set_tempo,80,1,0,,,,,,,,,,,,493543,,,,,,,
63000,note_on,0,0,1,,,,,,,,,,,,,,,0,,,86,48
63000,note_on,0,0,1,,,,,,,,,,,,,,,0,,,82,0
63000,note_on,120,0,1,,,,,,,,,,,,,,,0,,,74,0
63040,set_tempo,80,1,0,,,,,,,,,,,,495663,,,,,,,
63080,set_tempo,40,1,0,,,,,,,,,,,,487171,,,,,,,
63120,note_on,120,0,1,,,,,,,,,,,,,,,0,,,86,0
63120,set_tempo,40,1,0,,,,,,,,,,,,497843,,,,,,,
63120,note_on,0,0,1,,,,,,,,,,,,,,,0,,,74,48
63120,note_on,0,0,2,,,,,,,,,,,,,,,0,,,58,57
63120,note_on,240,0,2,,,,,,,,,,,,,,,0,,,58,0
63120,note_on,0,0,1,,,,,,,,,,,,,,,0,,,82,57
63240,note_on,0,0,1,,,,,,,,,,,,,,,0,,,86,48
63240,note_on,120,0,1,,,,,,,,,,,,,,,0,,,82,0
63240,note_on,0,0,1,,,,,,,,,,,,,,,0,,,74,0
63360,note_on,120,0,1,,,,,,,,,,,,,,,0,,,86,0
63360,note_on,0,0,1,,,,,,,,,,,,,,,0,,,75,42
63360,note_on,0,0,1,,,,,,,,,,,,,,,0,,,81,51
63360,set_tempo,240,1,0,,,,,,,,,,,,485084,,,,,,,
63360,note_on,0,0,2,,,,,,,,,,,,,,,0,,,65,52
63360,note_on,240,0,2,,,,,,,,,,,,,,,0,,,58,0
63452,control_change,92,0,2,,,,,,,,,,,,,,,0,64,127,,
63480,note_on,120,0,1,,,,,,,,,,,,,,,0,,,81,0
63480,note_on,0,0,1,,,,,,,,,,,,,,,0,,,75,0
63480,note_on,0,0,1,,,,,,,,,,,,,,,0,,,84,44
63600,note_on,0,0,2,,,,,,,,,,,,,,,0,,,67,41
63600,note_on,148,0,2,,,,,,,,,,,,,,,0,,,65,0
63600,note_on,120,0,1,,,,,,,,,,,,,,,0,,,84,0
63600,note_on,0,0,1,,,,,,,,,,,,,,,0,,,75,42
63600,note_on,0,0,1,,,,,,,,,,,,,,,0,,,81,50
63600,set_tempo,240,1,0,,,,,,,,,,,,457701,,,,,,,
63649,control_change,49,0,2,,,,,,,,,,,,,,,0,64,0,,
63706,control_change,57,0,2,,,,,,,,,,,,,,,0,64,127,,
63720,note_on,0,0,2,,,,,,,,,,,,,,,0,,,69,41
63720,note_on,0,0,1,,,,,,,,,,,,,,,0,,,84,42
63720,note_on,120,0,1,,,,,,,,,,,,,,,0,,,81,0
63720,note_on,14,0,2,,,,,,,,,,,,,,,0,,,67,0
63720,note_on,0,0,1,,,,,,,,,,,,,,,0,,,75,0
63840,note_on,120,0,1,,,,,,,,,,,,,,,0,,,84,0
63840,note_on,0,0,1,,,,,,,,,,,,,,,0,,,75,42
63840,set_tempo,240,1,0,,,,,,,,,,,,483014,,,,,,,
63840,note_on,0,0,2,,,,,,,,,,,,,,,0,,,70,44
63840,note_on,120,0,2,,,,,,,,,,,,,,,0,,,69,0
63840,note_on,0,0,1,,,,,,,,,,,,,,,0,,,81,50
63960,note_on,120,0,1,,,,,,,,,,,,,,,0,,,81,0
63960,note_on,0,0,1,,,,,,,,,,,,,,,0,,,84,42
63960,note_on,0,0,1,,,,,,,,,,,,,,,0,,,75,0
63960,note_on,0,0,2,,,,,,,,,,,,,,,0,,,72,44
63960,note_on,120,0,2,,,,,,,,,,,,,,,0,,,70,0
64080,note_on,0,0,1,,,,,,,,,,,,,,,0,,,82,53
64080,note_on,0,0,1,,,,,,,,,,,,,,,0,,,74,45
64080,note_on,120,0,1,,,,,,,,,,,,,,,0,,,84,0
64080,note_on,120,0,2,,,,,,,,,,,,,,,0,,,72,0
64080,control_change,0,0,2,,,,,,,,,,,,,,,0,64,0,,
64080,note_on,0,0,2,,,,,,,,,,,,,,,0,,,70,50
64080,set_tempo,240,1,0,,,,,,,,,,,,500042,,,,,,,
64200,note_on,0,0,1,,,,,,,,,,,,,,,0,,,86,44
64200,note_on,0,0,1,,,,,,,,,,,,,,,0,,,74,0
64200,note_on,120,0,1,,,,,,,,,,,,,,,0,,,82,0
64320,note_on,240,0,2,,,,,,,,,,,,,,,0,,,70,0
64320,note_on,0,0,1,,,,,,,,,,,,,,,0,,,74,42
64320,note_on,0,0,1,,,,,,,,,,,,,,,0,,,82,50
64320,note_on,120,0,1,,,,,,,,,,,,,,,0,,,86,0
64320,note_on,0,0,2,,,,,,,,,,,,,,,0,,,70,50
64440,note_on,0,0,1,,,,,,,,,,,,,,,0,,,86,42
64440,note_on,120,0,1,,,,,,,,,,,,,,,0,,,74,0
64440,note_on,0,0,1,,,,,,,,,,,,,,,0,,,82,0
64560,note_on,0,0,1,,,,,,,,,,,,,,,0,,,82,50
64560,note_on,0,0,1,,,,,,,,,,,,,,,0,,,74,42
64560,set_tempo,480,1,0,,,,,,,,,,,,644953,,,,,,,
64560,note_on,240,0,2,,,,,,,,,,,,,,,0,,,70,0
64560,note_on,0,0,2,,,,,,,,,,,,,,,0,,,70,50
64560,note_on,120,0,1,,,,,,,,,,,,,,,0,,,86,0
64800,note_on,0,0,2,,,,,,,,,,,,,,,0,,,63,35
64800,note_on,240,0,2,,,,,,,,,,,,,,,0,,,70,0
64800,set_tempo,240,1,0,,,,,,,,,,,,492045,,,,,,,
64800,note_on,0,0,1,,,,,,,,,,,,,,,0,,,74,0
64800,note_on,240,0,1,,,,,,,,,,,,,,,0,,,82,0
64800,note_on,0,0,2,,,,,,,,,,,,,,,0,,,67,41
64800,note_on,0,0,1,,,,,,,,,,,,,,,0,,,82,66
64850,control_change,50,0,2,,,,,,,,,,,,,,,0,64,127,,
64860,note_on,60,0,1,,,,,,,,,,,,,,,0,,,82,0
64920,note_on,70,0,2,,,,,,,,,,,,,,,0,,,67,0
64920,note_on,0,0,2,,,,,,,,,,,,,,,0,,,63,0
64920,note_on,0,0,2,,,,,,,,,,,,,,,0,,,70,33
64980,note_on,120,0,1,,,,,,,,,,,,,,,0,,,80,57
65017,control_change,97,0,2,,,,,,,,,,,,,,,0,64,0,,
65023,control_change,6,0,2,,,,,,,,,,,,,,,0,64,127,,
65040,note_on,0,0,2,,,,,,,,,,,,,,,0,,,63,31
65040,note_on,17,0,2,,,,,,,,,,,,,,,0,,,70,0
65040,note_on,0,0,2,,,,,,,,,,,,,,,0,,,67,38
65040,note_on,0,0,1,,,,,,,,,,,,,,,0,,,79,67
65040,note_on,60,0,1,,,,,,,,,,,,,,,0,,,80,0
65041,set_tempo,241,1,0,,,,,,,,,,,,452625,,,,,,,
65160,note_on,0,0,1,,,,,,,,,,,,,,,0,,,77,62
65160,note_on,120,0,1,,,,,,,,,,,,,,,0,,,79,0
65160,note_on,120,0,2,,,,,,,,,,,,,,,0,,,67,0
65160,note_on,0,0,2,,,,,,,,,,,,,,,0,,,63,0
65160,note_on,0,0,2,,,,,,,,,,,,,,,0,,,70,33
65280,note_on,0,0,2,,,,,,,,,,,,,,,0,,,67,38
65280,note_on,0,0,2,,,,,,,,,,,,,,,0,,,63,31
65280,note_on,120,0,1,,,,,,,,,,,,,,,0,,,77,0
65280,note_on,0,0,1,,,,,,,,,,,,,,,0,,,79,66
65280,note_on,120,0,2,,,,,,,,,,,,,,,0,,,70,0
65281,set_tempo,240,1,0,,,,,,,,,,,,458155,,,,,,,
65294,control_change,14,0,2,,,,,,,,,,,,,,,0,64,0,,
65314,control_change,20,0,2,,,,,,,,,,,,,,,0,64,127,,
65400,note_on,0,0,2,,,,,,,,,,,,,,,0,,,70,33
65400,note_on,0,0,2,,,,,,,,,,,,,,,0,,,63,0
65400,note_on,86,0,2,,,,,,,,,,,,,,,0,,,67,0
65520,note_on,0,0,2,,,,,,,,,,,,,,,0,,,65,38
65520,note_on,0,0,2,,,,,,,,,,,,,,,0,,,62,31
65520,control_change,0,0,2,,,,,,,,,,,,,,,0,64,0,,
65520,set_tempo,239,1,0,,,,,,,,,,,,482199,,,,,,,
65520,note_on,0,0,1,,,,,,,,,,,,,,,0,,,82,66
65520,note_on,240,0,1,,,,,,,,,,,,,,,0,,,79,0
65520,note_on,120,0,2,,,,,,,,,,,,,,,0,,,70,0
65535,control_change,15,0,2,,,,,,,,,,,,,,,0,64,0,,
65570,control_change,35,0,2,,,,,,,,,,,,,,,0,64,127,,
65580,note_on,60,0,1,,,,,,,,,,,,,,,0,,,82,0
65640,note_on,70,0,2,,,,,,,,,,,,,,,0,,,65,0
65640,note_on,0,0,2,,,,,,,,,,,,,,,0,,,62,0
65640,note_on,0,0,2,,,,,,,,,,,,,,,0,,,70,33
65700,note_on,120,0,1,,,,,,,,,,,,,,,0,,,79,57
65728,control_change,88,0,2,,,,,,,,,,,,,,,0,64,0,,
65735,control_change,7,0,2,,,,,,,,,,,,,,,0,64,127,,
65760,note_on,0,0,2,,,,,,,,,,,,,,,0,,,62,31
65760,note_on,25,0,2,,,,,,,,,,,,,,,0,,,70,0
65760,note_on,0,0,2,,,,,,,,,,,,,,,0,,,65,38
65760,note_on,0,0,1,,,,,,,,,,,,,,,0,,,77,67
65760,note_on,60,0,1,,,,,,,,,,,,,,,0,,,79,0
65761,set_tempo,241,1,0,,,,,,,,,,,,452625,,,,,,,
65880,note_on,120,0,2,,,,,,,,,,,,,,,0,,,65,0
65880,note_on,0,0,1,,,,,,,,,,,,,,,0,,,76,62
65880,note_on,0,0,2,,,,,,,,,,,,,,,0,,,70,33
65880,note_on,0,0,2,,,,,,,,,,,,,,,0,,,62,0
65880,note_on,120,0,1,,,,,,,,,,,,,,,0,,,77,0
66000,note_on,120,0,2,,,,,,,,,,,,,,,0,,,70,0
66000,note_on,0,0,2,,,,,,,,,,,,,,,0,,,65,38
66000,set_tempo,239,1,0,,,,,,,,,,,,467108,,,,,,,
66000,note_on,0,0,1,,,,,,,,,,,,,,,0,,,77,66
66000,note_on,120,0,1,,,,,,,,,,,,,,,0,,,76,0
66000,note_on,0,0,2,,,,,,,,,,,,,,,0,,,61,31
66025,control_change,25,0,2,,,,,,,,,,,,,,,0,64,0,,
66049,control_change,24,0,2,,,,,,,,,,,,,,,0,64,127,,
66120,note_on,71,0,2,,,,,,,,,,,,,,,0,,,65,0
66120,note_on,0,0,2,,,,,,,,,,,,,,,0,,,61,0
66120,note_on,0,0,2,,,,,,,,,,,,,,,0,,,70,33
66240,note_on,240,0,1,,,,,,,,,,,,,,,0,,,77,0
66240,note_on,0,0,1,,,,,,,,,,,,,,,0,,,84,69
66240,note_on,0,0,2,,,,,,,,,,,,,,,0,,,60,31
66240,note_on,0,0,2,,,,,,,,,,,,,,,0,,,65,38
66240,set_tempo,240,1,0,,,,,,,,,,,,482199,,,,,,,
66240,note_on,120,0,2,,,,,,,,,,,,,,,0,,,70,0
66255,control_change,15,0,2,,,,,,,,,,,,,,,0,64,0,,
66274,control_change,19,0,2,,,,,,,,,,,,,,,0,64,0,,
66290,control_change,16,0,2,,,,,,,,,,,,,,,0,64,127,,
66360,note_on,0,0,2,,,,,,,,,,,,,,,0,,,68,33
66360,note_on,70,0,2,,,,,,,,,,,,,,,0,,,65,0
66360,note_on,0,0,2,,,,,,,,,,,,,,,0,,,60,0
66480,note_on,240,0,1,,,,,,,,,,,,,,,0,,,84,0
66480,note_on,0,0,2,,,,,,,,,,,,,,,0,,,65,38
66480,note_on,0,0,2,,,,,,,,,,,,,,,0,,,60,31
66480,note_on,120,0,2,,,,,,,,,,,,,,,0,,,68,0
66480,note_on,0,0,1,,,,,,,,,,,,,,,0,,,82,70
66481,set_tempo,241,1,0,,,,,,,,,,,,452625,,,,,,,
66491,control_change,11,0,2,,,,,,,,,,,,,,,0,64,0,,
66531,control_change,40,0,2,,,,,,,,,,,,,,,0,64,127,,
66600,note_on,69,0,2,,,,,,,,,,,,,,,0,,,65,0
66600,note_on,0,0,1,,,,,,,,,,,,,,,0,,,80,64
66600,note_on,120,0,1,,,,,,,,,,,,,,,0,,,82,0
66600,note_on,0,0,2,,,,,,,,,,,,,,,0,,,60,0
66600,note_on,0,0,2,,,,,,,,,,,,,,,0,,,68,33
66720,set_tempo,239,1,0,,,,,,,,,,,,478965,,,,,,,
66720,note_on,120,0,1,,,,,,,,,,,,,,,0,,,80,0
66720,note_on,0,0,1,,,,,,,,,,,,,,,0,,,79,69
66720,note_on,120,0,2,,,,,,,,,,,,,,,0,,,68,0
66720,note_on,0,0,2,,,,,,,,,,,,,,,0,,,60,31
66720,note_on,0,0,2,,,,,,,,,,,,,,,0,,,65,38
66840,note_on,120,0,1,,,,,,,,,,,,,,,0,,,79,0
66840,note_on,0,0,1,,,,,,,,,,,,,,,0,,,77,69
66840,note_on,0,0,2,,,,,,,,,,,,,,,0,,,60,0
66840,note_on,0,0,2,,,,,,,,,,,,,,,0,,,68,33
66840,note_on,120,0,2,,,,,,,,,,,,,,,0,,,65,0
66960,note_on,120,0,2,,,,,,,,,,,,,,,0,,,68,0
66960,note_on,0,0,2,,,,,,,,,,,,,,,0,,,65,38
66960,control_change,0,0,2,,,,,,,,,,,,,,,0,64,0,,
66960,note_on,120,0,1,,,,,,,,,,,,,,,0,,,77,0
66960,note_on,0,0,1,,,,,,,,,,,,,,,0,,,84,69
66960,note_on,0,0,2,,,,,,,,,,,,,,,0,,,60,31
66960,set_tempo,240,1,0,,,,,,,,,,,,491400,,,,,,,
66975,control_change,15,0,2,,,,,,,,,,,,,,,0,64,0,,
67010,control_change,35,0,2,,,,,,,,,,,,,,,0,64,127,,
67080,note_on,0,0,2,,,,,,,,,,,,,,,0,,,67,33
67080,note_on,70,0,2,,,,,,,,,,,,,,,0,,,65,0
67080,note_on,0,0,2,,,,,,,,,,,,,,,0,,,60,0
67200,note_on,240,0,1,,,,,,,,,,,,,,,0,,,84,0
67200,note_on,0,0,1,,,,,,,,,,,,,,,0,,,72,67
67200,set_tempo,240,1,0,,,,,,,,,,,,472962,,,,,,,
67200,note_on,0,0,2,,,,,,,,,,,,,,,0,,,64,38
67200,note_on,0,0,2,,,,,,,,,,,,,,,0,,,60,31
67200,note_on,120,0,2,,,,,,,,,,,,,,,0,,,67,0
67206,control_change,6,0,2,,,,,,,,,,,,,,,0,64,0,,
67234,control_change,28,0,2,,,,,,,,,,,,,,,0,64,127,,
67320,note_on,0,0,2,,,,,,,,,,,,,,,0,,,67,33
67320,note_on,0,0,2,,,,,,,,,,,,,,,0,,,60,0
67320,note_on,86,0,2,,,,,,,,,,,,,,,0,,,64,0
67440,note_on,240,0,1,,,,,,,,,,,,,,,0,,,72,0
67440,note_on,0,0,1,,,,,,,,,,,,,,,0,,,72,67
67440,note_on,120,0,2,,,,,,,,,,,,,,,0,,,67,0
67440,note_on,0,0,2,,,,,,,,,,,,,,,0,,,60,31
67440,note_on,0,0,2,,,,,,,,,,,,,,,0,,,64,38
67560,note_on,0,0,2,,,,,,,,,,,,,,,0,,,60,0
67560,note_on,0,0,2,,,,,,,,,,,,,,,0,,,67,36
67560,note_on,120,0,2,,,,,,,,,,,,,,,0,,,64,0
67680,control_change,0,0,2,,,,,,,,,,,,,,,0,64,0,,
67680,note_on,0,0,2,,,,,,,,,,,,,,,0,,,60,52
67680,note_on,0,0,2,,,,,,,,,,,,,,,0,,,56,44
67680,set_tempo,480,1,0,,,,,,,,,,,,480962,,,,,,,
67680,note_on,120,0,2,,,,,,,,,,,,,,,0,,,67,0
67680,note_on,0,0,1,,,,,,,,,,,,,,,0,,,72,52
67680,note_on,0,0,1,,,,,,,,,,,,,,,0,,,68,44
67680,note_on,240,0,1,,,,,,,,,,,,,,,0,,,72,0
67800,note_on,120,0,1,,,,,,,,,,,,,,,0,,,72,0
67800,note_on,0,0,1,,,,,,,,,,,,,,,0,,,68,0
67800,note_on,0,0,1,,,,,,,,,,,,,,,0,,,75,46
67920,note_on,0,0,2,,,,,,,,,,,,,,,0,,,61,48
67920,note_on,240,0,2,,,,,,,,,,,,,,,0,,,60,0
67920,note_on,120,0,1,,,,,,,,,,,,,,,0,,,75,0
67920,note_on,0,0,1,,,,,,,,,,,,,,,0,,,68,45
67920,note_on,0,0,1,,,,,,,,,,,,,,,0,,,72,53
67920,set_tempo,240,1,0,,,,,,,,,,,,478965,,,,,,,
68040,note_on,120,0,1,,,,,,,,,,,,,,,0,,,72,0
68040,note_on,0,0,1,,,,,,,,,,,,,,,0,,,68,0
68040,note_on,0,0,1,,,,,,,,,,,,,,,0,,,75,45
68160,set_tempo,240,1,0,,,,,,,,,,,,485084,,,,,,,
68160,note_on,0,0,1,,,,,,,,,,,,,,,0,,,72,53
68160,note_on,240,0,2,,,,,,,,,,,,,,,0,,,61,0
68160,note_on,0,0,2,,,,,,,,,,,,,,,0,,,60,48
68160,note_on,120,0,1,,,,,,,,,,,,,,,0,,,75,0
68160,note_on,0,0,1,,,,,,,,,,,,,,,0,,,68,45
68280,note_on,120,0,1,,,,,,,,,,,,,,,0,,,72,0
68280,note_on,0,0,1,,,,,,,,,,,,,,,0,,,68,0
68280,note_on,0,0,1,,,,,,,,,,,,,,,0,,,75,46
68360,set_tempo,200,1,0,,,,,,,,,,,,474947,,,,,,,
68400,note_on,0,0,1,,,,,,,,,,,,,,,0,,,77,52
68400,note_on,0,0,1,,,,,,,,,,,,,,,0,,,68,44
68400,note_on,120,0,1,,,,,,,,,,,,,,,0,,,75,0
68400,set_tempo,40,1,0,,,,,,,,,,,,480962,,,,,,,
68400,note_on,0,0,2,,,,,,,,,,,,,,,0,,,49,44
68400,note_on,0,0,2,,,,,,,,,,,,,,,0,,,56,0
68400,note_on,0,0,2,,,,,,,,,,,,,,,0,,,58,52
68400,note_on,240,0,2,,,,,,,,,,,,,,,0,,,60,0
68520,note_on,120,0,1,,,,,,,,,,,,,,,0,,,77,0
68520,note_on,0,0,1,,,,,,,,,,,,,,,0,,,80,46
68520,note_on,0,0,1,,,,,,,,,,,,,,,0,,,68,0
68640,set_tempo,240,1,0,,,,,,,,,,,,474947,,,,,,,
68640,note_on,120,0,1,,,,,,,,,,,,,,,0,,,80,0
68640,note_on,0,0,2,,,,,,,,,,,,,,,0,,,53,50
68640,note_on,240,0,2,,,,,,,,,,,,,,,0,,,58,0
68640,note_on,0,0,1,,,,,,,,,,,,,,,0,,,68,47
68640,note_on,0,0,1,,,,,,,,,,,,,,,0,,,77,56
68760,note_on,0,0,1,,,,,,,,,,,,,,,0,,,68,0
68760,note_on,0,0,1,,,,,,,,,,,,,,,0,,,80,47
68760,note_on,120,0,1,,,,,,,,,,,,,,,0,,,77,0
68880,note_on,120,0,1,,,,,,,,,,,,,,,0,,,80,0
68880,note_on,0,0,1,,,,,,,,,,,,,,,0,,,68,49
68880,note_on,240,0,2,,,,,,,,,,,,,,,0,,,53,0
68880,note_on,0,0,2,,,,,,,,,,,,,,,0,,,55,52
68880,note_on,0,0,1,,,,,,,,,,,,,,,0,,,77,58
69000,note_on,0,0,1,,,,,,,,,,,,,,,0,,,68,0
69000,note_on,0,0,1,,,,,,,,,,,,,,,0,,,80,51
69000,note_on,120,0,1,,,,,,,,,,,,,,,0,,,77,0
69000,set_tempo,360,1,0,,,,,,,,,,,,483014,,,,,,,
69060,note_on,180,0,2,,,,,,,,,,,,,,,0,,,58,47
69120,note_on,0,0,2,,,,,,,,,,,,,,,0,,,56,52
69120,note_on,0,0,1,,,,,,,,,,,,,,,0,,,72,52
69120,note_on,0,0,1,,,,,,,,,,,,,,,0,,,68,44
69120,note_on,0,0,2,,,,,,,,,,,,,,,0,,,51,44
69120,set_tempo,120,1,0,,,,,,,,,,,,474608,,,,,,,
69120,note_on,120,0,1,,,,,,,,,,,,,,,0,,,80,0
69120,note_on,60,0,2,,,,,,,,,,,,,,,0,,,58,0
69120,note_on,0,0,2,,,,,,,,,,,,,,,0,,,55,0
69120,note_on,0,0,2,,,,,,,,,,,,,,,0,,,49,0
69240,note_on,120,0,1,,,,,,,,,,,,,,,0,,,72,0
69240,note_on,0,0,1,,,,,,,,,,,,,,,0,,,68,0
69240,note_on,0,0,1,,,,,,,,,,,,,,,0,,,75,45
69360,note_on,0,0,2,,,,,,,,,,,,,,,0,,,55,45
69360,note_on,240,0,2,,,,,,,,,,,,,,,0,,,56,0
69360,note_on,120,0,1,,,,,,,,,,,,,,,0,,,75,0
69360,note_on,0,0,1,,,,,,,,,,,,,,,0,,,68,42
69360,note_on,0,0,1,,,,,,,,,,,,,,,0,,,72,50
69480,note_on,120,0,1,,,,,,,,,,,,,,,0,,,72,0
69480,note_on,0,0,1,,,,,,,,,,,,,,,0,,,68,0
69480,note_on,0,0,1,,,,,,,,,,,,,,,0,,,75,41
69600,note_on,240,0,2,,,,,,,,,,,,,,,0,,,55,0
69600,note_on,0,0,1,,,,,,,,,,,,,,,0,,,72,48
69600,note_on,0,0,1,,,,,,,,,,,,,,,0,,,68,40
69600,note_on,0,0,2,,,,,,,,,,,,,,,0,,,56,42
69600,note_on,120,0,1,,,,,,,,,,,,,,,0,,,75,0
69600,set_tempo,480,1,0,,,,,,,,,,,,487171,,,,,,,
69720,note_on,120,0,1,,,,,,,,,,,,,,,0,,,72,0
69720,note_on,0,0,1,,,,,,,,,,,,,,,0,,,68,0
69720,note_on,0,0,1,,,,,,,,,,,,,,,0,,,75,39
69840,note_on,240,0,2,,,,,,,,,,,,,,,0,,,56,0
69840,note_on,120,0,1,,,,,,,,,,,,,,,0,,,75,0
69840,note_on,0,0,1,,,,,,,,,,,,,,,0,,,67,37
69840,note_on,0,0,1,,,,,,,,,,,,,,,0,,,73,44
69840,set_tempo,240,1,0,,,,,,,,,,,,476948,,,,,,,
69840,note_on,0,0,2,,,,,,,,,,,,,,,0,,,58,44
69960,note_on,120,0,1,,,,,,,,,,,,,,,0,,,73,0
69960,set_tempo,120,1,0,,,,,,,,,,,,478965,,,,,,,
69960,note_on,0,0,1,,,,,,,,,,,,,,,0,,,67,0
69960,note_on,0,0,1,,,,,,,,,,,,,,,0,,,75,38
70040,set_tempo,80,1,0,,,,,,,,,,,,480962,,,,,,,
70080,note_on,0,0,1,,,,,,,,,,,,,,,0,,,67,37
70080,note_on,0,0,1,,,,,,,,,,,,,,,0,,,73,45
70080,note_on,120,0,1,,,,,,,,,,,,,,,0,,,75,0
70160,set_tempo,120,1,0,,,,,,,,,,,,483014,,,,,,,
70200,note_on,120,0,1,,,,,,,,,,,,,,,0,,,73,0
70200,note_on,0,0,1,,,,,,,,,,,,,,,0,,,67,0
70200,note_on,0,0,1,,,,,,,,,,,,,,,0,,,75,37
70240,set_tempo,80,1,0,,,,,,,,,,,,485084,,,,,,,
70320,note_on,0,0,2,,,,,,,,,,,,,,,0,,,59,40
70320,note_on,120,0,1,,,,,,,,,,,,,,,0,,,75,0
70320,note_on,0,0,1,,,,,,,,,,,,,,,0,,,67,37
70320,note_on,0,0,1,,,,,,,,,,,,,,,0,,,73,45
70320,note_on,480,0,2,,,,,,,,,,,,,,,0,,,58,0
70360,set_tempo,120,1,0,,,,,,,,,,,,487171,,,,,,,
70440,set_tempo,80,1,0,,,,,,,,,,,,489277,,,,,,,
70440,note_on,0,0,1,,,,,,,,,,,,,,,0,,,75,38
70440,note_on,120,0,1,,,,,,,,,,,,,,,0,,,73,0
70440,note_on,0,0,1,,,,,,,,,,,,,,,0,,,67,0
70520,set_tempo,80,1,0,,,,,,,,,,,,491400,,,,,,,
70560,set_tempo,40,1,0,,,,,,,,,,,,492045,,,,,,,
70560,note_on,120,0,1,,,,,,,,,,,,,,,0,,,75,0
70560,note_on,0,0,1,,,,,,,,,,,,,,,0,,,68,56
70560,note_on,0,0,1,,,,,,,,,,,,,,,0,,,75,66
70560,note_on,0,0,1,,,,,,,,,,,,,,,0,,,72,56
70560,note_on,0,0,2,,,,,,,,,,,,,,,0,,,51,0
70560,note_on,0,0,2,,,,,,,,,,,,,,,0,,,56,35
70560,note_on,0,0,2,,,,,,,,,,,,,,,0,,,60,41
70560,control_change,0,0,2,,,,,,,,,,,,,,,0,64,0,,
70560,note_on,240,0,2,,,,,,,,,,,,,,,0,,,59,0
70610,control_change,50,0,2,,,,,,,,,,,,,,,0,64,127,,
70620,note_on,0,0,1,,,,,,,,,,,,,,,0,,,68,0
70620,note_on,0,0,1,,,,,,,,,,,,,,,0,,,72,0
70620,note_on,60,0,1,,,,,,,,,,,,,,,0,,,75,0
70680,note_on,0,0,2,,,,,,,,,,,,,,,0,,,56,0
70680,note_on,0,0,2,,,,,,,,,,,,,,,0,,,63,33
70680,note_on,70,0,2,,,,,,,,,,,,,,,0,,,60,0
70740,note_on,120,0,1,,,,,,,,,,,,,,,0,,,73,58
70749,control_change,69,0,2,,,,,,,,,,,,,,,0,64,0,,
70797,control_change,48,0,2,,,,,,,,,,,,,,,0,64,127,,
70800,note_on,0,0,2,,,,,,,,,,,,,,,0,,,60,38
70800,note_on,0,0,2,,,,,,,,,,,,,,,0,,,56,31
70800,note_on,0,0,1,,,,,,,,,,,,,,,0,,,72,67
70800,note_on,60,0,1,,,,,,,,,,,,,,,0,,,73,0
70800,note_on,3,0,2,,,,,,,,,,,,,,,0,,,63,0
70801,set_tempo,241,1,0,,,,,,,,,,,,452625,,,,,,,
70920,note_on,0,0,2,,,,,,,,,,,,,,,0,,,63,33
70920,note_on,120,0,1,,,,,,,,,,,,,,,0,,,72,0
70920,note_on,0,0,1,,,,,,,,,,,,,,,0,,,70,62
70920,note_on,120,0,2,,,,,,,,,,,,,,,0,,,60,0
70920,note_on,0,0,2,,,,,,,,,,,,,,,0,,,56,0
71040,note_on,120,0,2,,,,,,,,,,,,,,,0,,,63,0
71040,note_on,0,0,2,,,,,,,,,,,,,,,0,,,56,31
71040,note_on,0,0,2,,,,,,,,,,,,,,,0,,,60,38
71040,note_on,120,0,1,,,,,,,,,,,,,,,0,,,70,0
71040,note_on,0,0,1,,,,,,,,,,,,,,,0,,,72,66
71041,set_tempo,240,1,0,,,,,,,,,,,,458155,,,,,,,
71046,control_change,6,0,2,,,,,,,,,,,,,,,0,64,0,,
71069,control_change,23,0,2,,,,,,,,,,,,,,,0,64,127,,
71160,note_on,0,0,2,,,,,,,,,,,,,,,0,,,63,33
71160,note_on,0,0,2,,,,,,,,,,,,,,,0,,,56,0
71160,note_on,91,0,2,,,,,,,,,,,,,,,0,,,60,0
71280,control_change,0,0,2,,,,,,,,,,,,,,,0,64,0,,
71280,note_on,240,0,1,,,,,,,,,,,,,,,0,,,72,0
71280,note_on,0,0,2,,,,,,,,,,,,,,,0,,,58,38
71280,note_on,0,0,2,,,,,,,,,,,,,,,0,,,55,31
71280,note_on,120,0,2,,,,,,,,,,,,,,,0,,,63,0
71280,set_tempo,239,1,0,,,,,,,,,,,,482199,,,,,,,
71280,note_on,0,0,1,,,,,,,,,,,,,,,0,,,75,66
71295,control_change,15,0,2,,,,,,,,,,,,,,,0,64,0,,
71330,control_change,35,0,2,,,,,,,,,,,,,,,0,64,127,,
71340,note_on,60,0,1,,,,,,,,,,,,,,,0,,,75,0
71400,note_on,0,0,2,,,,,,,,,,,,,,,0,,,63,33
71400,note_on,0,0,2,,,,,,,,,,,,,,,0,,,55,0
71400,note_on,70,0,2,,,,,,,,,,,,,,,0,,,58,0
71460,note_on,120,0,1,,,,,,,,,,,,,,,0,,,72,58
71492,control_change,92,0,2,,,,,,,,,,,,,,,0,64,0,,
71516,control_change,24,0,2,,,,,,,,,,,,,,,0,64,127,,
71520,note_on,4,0,2,,,,,,,,,,,,,,,0,,,63,0
71520,note_on,0,0,2,,,,,,,,,,,,,,,0,,,55,31
71520,note_on,0,0,2,,,,,,,,,,,,,,,0,,,58,38
71520,note_on,0,0,1,,,,,,,,,,,,,,,0,,,70,67
71520,note_on,60,0,1,,,,,,,,,,,,,,,0,,,72,0
71521,set_tempo,241,1,0,,,,,,,,,,,,452625,,,,,,,
71640,note_on,120,0,1,,,,,,,,,,,,,,,0,,,70,0
71640,note_on,0,0,1,,,,,,,,,,,,,,,0,,,69,62
71640,note_on,0,0,2,,,,,,,,,,,,,,,0,,,63,33
71640,note_on,0,0,2,,,,,,,,,,,,,,,0,,,55,0
71640,note_on,120,0,2,,,,,,,,,,,,,,,0,,,58,0
71739,control_change,99,0,2,,,,,,,,,,,,,,,0,64,0,,
71760,note_on,0,0,2,,,,,,,,,,,,,,,0,,,58,38
71760,note_on,0,0,1,,,,,,,,,,,,,,,0,,,70,66
71760,note_on,120,0,1,,,,,,,,,,,,,,,0,,,69,0
71760,note_on,21,0,2,,,,,,,,,,,,,,,0,,,63,0
71760,set_tempo,239,1,0,,,,,,,,,,,,467108,,,,,,,
71760,note_on,0,0,2,,,,,,,,,,,,,,,0,,,54,31
71774,control_change,14,0,2,,,,,,,,,,,,,,,0,64,127,,
71880,note_on,0,0,2,,,,,,,,,,,,,,,0,,,54,0
71880,note_on,0,0,2,,,,,,,,,,,,,,,0,,,63,33
71880,note_on,106,0,2,,,,,,,,,,,,,,,0,,,58,0
72000,control_change,0,0,2,,,,,,,,,,,,,,,0,64,0,,
72000,note_on,0,0,2,,,,,,,,,,,,,,,0,,,58,38
72000,note_on,0,0,2,,,,,,,,,,,,,,,0,,,53,31
72000,note_on,120,0,2,,,,,,,,,,,,,,,0,,,63,0
72000,note_on,240,0,1,,,,,,,,,,,,,,,0,,,70,0
72000,set_tempo,240,1,0,,,,,,,,,,,,482199,,,,,,,
72000,note_on,0,0,1,,,,,,,,,,,,,,,0,,,77,69
72015,control_change,15,0,2,,,,,,,,,,,,,,,0,64,0,,
72050,control_change,35,0,2,,,,,,,,,,,,,,,0,64,127,,
72120,note_on,0,0,2,,,,,,,,,,,,,,,0,,,61,33
72120,note_on,0,0,2,,,,,,,,,,,,,,,0,,,53,0
72120,note_on,70,0,2,,,,,,,,,,,,,,,0,,,58,0
72240,note_on,0,0,1,,,,,,,,,,,,,,,0,,,75,70
72240,note_on,120,0,2,,,,,,,,,,,,,,,0,,,61,0
72240,note_on,0,0,2,,,,,,,,,,,,,,,0,,,58,38
72240,note_on,0,0,2,,,,,,,,,,,,,,,0,,,53,31
72240,note_on,240,0,1,,,,,,,,,,,,,,,0,,,77,0
72241,set_tempo,241,1,0,,,,,,,,,,,,452625,,,,,,,
72274,control_change,34,0,2,,,,,,,,,,,,,,,0,64,0,,
72286,control_change,12,0,2,,,,,,,,,,,,,,,0,64,127,,
72360,note_on,120,0,1,,,,,,,,,,,,,,,0,,,75,0
72360,note_on,0,0,2,,,,,,,,,,,,,,,0,,,61,33
72360,note_on,0,0,2,,,,,,,,,,,,,,,0,,,53,0
72360,note_on,0,0,1,,,,,,,,,,,,,,,0,,,73,64
72360,note_on,74,0,2,,,,,,,,,,,,,,,0,,,58,0
72480,set_tempo,239,1,0,,,,,,,,,,,,476948,,,,,,,
72480,note_on,120,0,1,,,,,,,,,,,,,,,0,,,73,0
72480,note_on,0,0,1,,,,,,,,,,,,,,,0,,,72,69
72480,note_on,0,0,2,,,,,,,,,,,,,,,0,,,53,31
72480,note_on,0,0,2,,,,,,,,,,,,,,,0,,,58,38
72480,note_on,120,0,2,,,,,,,,,,,,,,,0,,,61,0
72600,note_on,0,0,2,,,,,,,,,,,,,,,0,,,53,0
72600,note_on,120,0,2,,,,,,,,,,,,,,,0,,,58,0
72600,note_on,0,0,1,,,,,,,,,,,,,,,0,,,70,69
72600,note_on,120,0,1,,,,,,,,,,,,,,,0,,,72,0
72600,note_on,0,0,2,,,,,,,,,,,,,,,0,,,61,33
72720,note_on,0,0,2,,,,,,,,,,,,,,,0,,,53,31
72720,note_on,120,0,1,,,,,,,,,,,,,,,0,,,70,0
72720,control_change,0,0,2,,,,,,,,,,,,,,,0,64,0,,
72720,note_on,0,0,2,,,,,,,,,,,,,,,0,,,58,38
72720,note_on,120,0,2,,,,,,,,,,,,,,,0,,,61,0
72720,note_on,0,0,1,,,,,,,,,,,,,,,0,,,77,69
72720,set_tempo,240,1,0,,,,,,,,,,,,487171,,,,,,,
72735,control_change,15,0,2,,,,,,,,,,,,,,,0,64,0,,
72770,control_change,35,0,2,,,,,,,,,,,,,,,0,64,127,,
72840,note_on,0,0,2,,,,,,,,,,,,,,,0,,,53,0
72840,note_on,0,0,2,,,,,,,,,,,,,,,0,,,60,33
72840,note_on,70,0,2,,,,,,,,,,,,,,,0,,,58,0
72960,note_on,120,0,2,,,,,,,,,,,,,,,0,,,60,0
72960,note_on,0,0,2,,,,,,,,,,,,,,,0,,,53,31
72960,note_on,0,0,2,,,,,,,,,,,,,,,0,,,57,38
72960,note_on,240,0,1,,,,,,,,,,,,,,,0,,,77,0
72960,note_on,0,0,1,,,,,,,,,,,,,,,0,,,65,67
72960,set_tempo,240,1,0,,,,,,,,,,,,474947,,,,,,,
72966,control_change,6,0,2,,,,,,,,,,,,,,,0,64,0,,
72994,control_change,28,0,2,,,,,,,,,,,,,,,0,64,127,,
73080,note_on,86,0,2,,,,,,,,,,,,,,,0,,,57,0
73080,note_on,0,0,2,,,,,,,,,,,,,,,0,,,53,0
73080,note_on,0,0,2,,,,,,,,,,,,,,,0,,,60,33
73200,note_on,120,0,2,,,,,,,,,,,,,,,0,,,60,0
73200,note_on,0,0,1,,,,,,,,,,,,,,,0,,,65,67
73200,note_on,240,0,1,,,,,,,,,,,,,,,0,,,65,0
73200,note_on,0,0,2,,,,,,,,,,,,,,,0,,,57,38
73200,note_on,0,0,2,,,,,,,,,,,,,,,0,,,53,31
73320,note_on,0,0,2,,,,,,,,,,,,,,,0,,,60,36
73320,note_on,0,0,2,,,,,,,,,,,,,,,0,,,53,0
73320,note_on,120,0,2,,,,,,,,,,,,,,,0,,,57,0
73440,note_on,0,0,2,,,,,,,,,,,,,,,0,,,61,44
73440,note_on,120,0,2,,,,,,,,,,,,,,,0,,,60,0
73440,set_tempo,480,1,0,,,,,,,,,,,,480962,,,,,,,
73440,note_on,0,0,1,,,,,,,,,,,,,,,0,,,77,52
73440,note_on,0,0,1,,,,,,,,,,,,,,,0,,,73,44
73440,note_on,240,0,1,,,,,,,,,,,,,,,0,,,65,0
73440,control_change,0,0,2,,,,,,,,,,,,,,,0,64,0,,
73440,note_on,0,0,2,,,,,,,,,,,,,,,0,,,65,52
73560,note_on,0,0,1,,,,,,,,,,,,,,,0,,,73,0
73560,note_on,0,0,1,,,,,,,,,,,,,,,0,,,80,46
73560,note_on,120,0,1,,,,,,,,,,,,,,,0,,,77,0
73680,set_tempo,240,1,0,,,,,,,,,,,,478965,,,,,,,
73680,note_on,0,0,1,,,,,,,,,,,,,,,0,,,77,53
73680,note_on,0,0,1,,,,,,,,,,,,,,,0,,,73,45
73680,note_on,120,0,1,,,,,,,,,,,,,,,0,,,80,0
73680,note_on,0,0,2,,,,,,,,,,,,,,,0,,,66,48
73680,note_on,240,0,2,,,,,,,,,,,,,,,0,,,65,0
73800,note_on,0,0,1,,,,,,,,,,,,,,,0,,,80,45
73800,note_on,0,0,1,,,,,,,,,,,,,,,0,,,73,0
73800,note_on,120,0,1,,,,,,,,,,,,,,,0,,,77,0
73920,note_on,240,0,2,,,,,,,,,,,,,,,0,,,66,0
73920,note_on,0,0,1,,,,,,,,,,,,,,,0,,,73,45
73920,note_on,0,0,1,,,,,,,,,,,,,,,0,,,77,53
73920,note_on,120,0,1,,,,,,,,,,,,,,,0,,,80,0
73920,note_on,0,0,2,,,,,,,,,,,,,,,0,,,65,48
73920,set_tempo,240,1,0,,,,,,,,,,,,476948,,,,,,,
74040,note_on,0,0,1,,,,,,,,,,,,,,,0,,,80,46
74040,note_on,120,0,1,,,,,,,,,,,,,,,0,,,77,0
74040,note_on,0,0,1,,,,,,,,,,,,,,,0,,,73,0
74120,set_tempo,200,1,0,,,,,,,,,,,,474947,,,,,,,
74160,note_on,120,0,1,,,,,,,,,,,,,,,0,,,80,0
74160,note_on,0,0,2,,,,,,,,,,,,,,,0,,,54,44
74160,note_on,0,0,2,,,,,,,,,,,,,,,0,,,63,52
74160,set_tempo,40,1,0,,,,,,,,,,,,485084,,,,,,,
74160,note_on,0,0,2,,,,,,,,,,,,,,,0,,,61,0
74160,note_on,0,0,1,,,,,,,,,,,,,,,0,,,73,44
74160,note_on,0,0,1,,,,,,,,,,,,,,,0,,,82,52
74160,note_on,240,0,2,,,,,,,,,,,,,,,0,,,65,0
74280,note_on,0,0,1,,,,,,,,,,,,,,,0,,,73,0
74280,note_on,0,0,1,,,,,,,,,,,,,,,0,,,85,46
74280,note_on,120,0,1,,,,,,,,,,,,,,,0,,,82,0
74400,note_on,240,0,2,,,,,,,,,,,,,,,0,,,63,0
74400,note_on,0,0,2,,,,,,,,,,,,,,,0,,,58,50
74400,note_on,0,0,1,,,,,,,,,,,,,,,0,,,82,56
74400,note_on,0,0,1,,,,,,,,,,,,,,,0,,,73,47
74400,note_on,120,0,1,,,,,,,,,,,,,,,0,,,85,0
74400,set_tempo,240,1,0,,,,,,,,,,,,472962,,,,,,,
74520,note_on,0,0,1,,,,,,,,,,,,,,,0,,,85,47
74520,note_on,0,0,1,,,,,,,,,,,,,,,0,,,73,0
74520,note_on,120,0,1,,,,,,,,,,,,,,,0,,,82,0
74640,note_on,120,0,1,,,,,,,,,,,,,,,0,,,85,0
74640,note_on,0,0,1,,,,,,,,,,,,,,,0,,,82,58
74640,note_on,0,0,1,,,,,,,,,,,,,,,0,,,73,49
74640,note_on,0,0,2,,,,,,,,,,,,,,,0,,,60,52
74640,note_on,240,0,2,,,,,,,,,,,,,,,0,,,58,0
74760,note_on,0,0,1,,,,,,,,,,,,,,,0,,,85,51
74760,note_on,0,0,1,,,,,,,,,,,,,,,0,,,73,0
74760,set_tempo,360,1,0,,,,,,,,,,,,483014,,,,,,,
74760,note_on,120,0,1,,,,,,,,,,,,,,,0,,,82,0
74820,note_on,180,0,2,,,,,,,,,,,,,,,0,,,63,48
74880,note_on,0,0,2,,,,,,,,,,,,,,,0,,,56,44
74880,note_on,0,0,2,,,,,,,,,,,,,,,0,,,54,0
74880,note_on,0,0,2,,,,,,,,,,,,,,,0,,,60,0
74880,note_on,60,0,2,,,,,,,,,,,,,,,0,,,63,0
74880,set_tempo,120,1,0,,,,,,,,,,,,474608,,,,,,,
74880,note_on,0,0,1,,,,,,,,,,,,,,,0,,,77,52
74880,note_on,0,0,1,,,,,,,,,,,,,,,0,,,73,44
74880,note_on,120,0,1,,,,,,,,,,,,,,,0,,,85,0
74880,note_on,0,0,2,,,,,,,,,,,,,,,0,,,61,52
75000,note_on,0,0,1,,,,,,,,,,,,,,,0,,,80,45
75000,note_on,0,0,1,,,,,,,,,,,,,,,0,,,73,0
75000,note_on,120,0,1,,,,,,,,,,,,,,,0,,,77,0
75120,note_on,240,0,2,,,,,,,,,,,,,,,0,,,61,0
75120,note_on,0,0,1,,,,,,,,,,,,,,,0,,,77,50
75120,note_on,120,0,1,,,,,,,,,,,,,,,0,,,80,0
75120,note_on,0,0,2,,,,,,,,,,,,,,,0,,,60,45
75120,note_on,0,0,1,,,,,,,,,,,,,,,0,,,73,42
75240,note_on,0,0,1,,,,,,,,,,,,,,,0,,,73,0
75240,note_on,0,0,1,,,,,,,,,,,,,,,0,,,80,41
75240,note_on,120,0,1,,,,,,,,,,,,,,,0,,,77,0
75360,note_on,0,0,2,,,,,,,,,,,,,,,0,,,61,42
75360,note_on,120,0,1,,,,,,,,,,,,,,,0,,,80,0
75360,note_on,0,0,1,,,,,,,,,,,,,,,0,,,73,40
75360,note_on,0,0,1,,,,,,,,,,,,,,,0,,,77,48
75360,note_on,240,0,2,,,,,,,,,,,,,,,0,,,60,0
75480,note_on,0,0,1,,,,,,,,,,,,,,,0,,,80,39
75480,note_on,0,0,1,,,,,,,,,,,,,,,0,,,73,0
75480,note_on,120,0,1,,,,,,,,,,,,,,,0,,,77,0
75600,note_on,0,0,1,,,,,,,,,,,,,,,0,,,72,37
75600,note_on,0,0,2,,,,,,,,,,,,,,,0,,,63,44
75600,note_on,0,0,1,,,,,,,,,,,,,,,0,,,78,44
75600,set_tempo,720,1,0,,,,,,,,,,,,472776,,,,,,,
75600,note_on,240,0,2,,,,,,,,,,,,,,,0,,,61,0
75600,note_on,120,0,1,,,,,,,,,,,,,,,0,,,80,0
75710,set_tempo,110,1,0,,,,,,,,,,,,474608,,,,,,,
75720,note_on,120,0,1,,,,,,,,,,,,,,,0,,,78,0
75720,note_on,0,0,1,,,,,,,,,,,,,,,0,,,80,38
75720,note_on,0,0,1,,,,,,,,,,,,,,,0,,,72,0
75810,set_tempo,100,1,0,,,,,,,,,,,,476531,,,,,,,
75840,note_on,120,0,1,,,,,,,,,,,,,,,0,,,80,0
75840,note_on,0,0,1,,,,,,,,,,,,,,,0,,,78,45
75840,note_on,0,0,1,,,,,,,,,,,,,,,0,,,72,37
75910,set_tempo,100,1,0,,,,,,,,,,,,478354,,,,,,,
75960,note_on,120,0,1,,,,,,,,,,,,,,,0,,,78,0
75960,note_on,0,0,1,,,,,,,,,,,,,,,0,,,72,0
75960,note_on,0,0,1,,,,,,,,,,,,,,,0,,,80,37
76020,set_tempo,110,1,0,,,,,,,,,,,,480384,,,,,,,
76080,note_on,120,0,1,,,,,,,,,,,,,,,0,,,80,0
76080,note_on,0,0,1,,,,,,,,,,,,,,,0,,,78,45
76080,note_on,0,0,1,,,,,,,,,,,,,,,0,,,72,37
76080,note_on,0,0,2,,,,,,,,,,,,,,,0,,,64,40
76080,note_on,480,0,2,,,,,,,,,,,,,,,0,,,63,0
76120,set_tempo,100,1,0,,,,,,,,,,,,482199,,,,,,,
76200,note_on,0,0,1,,,,,,,,,,,,,,,0,,,72,0
76200,note_on,120,0,1,,,,,,,,,,,,,,,0,,,78,0
76200,note_on,0,0,1,,,,,,,,,,,,,,,0,,,80,38
76220,set_tempo,100,1,0,,,,,,,,,,,,484183,,,,,,,
76320,note_on,0,0,2,,,,,,,,,,,,,,,0,,,65,41
76320,note_on,0,0,1,,,,,,,,,,,,,,,0,,,80,44
76320,note_on,0,0,1,,,,,,,,,,,,,,,0,,,77,37
76320,set_tempo,100,1,0,,,,,,,,,,,,492045,,,,,,,
76320,note_on,240,0,2,,,,,,,,,,,,,,,0,,,64,0
76320,note_on,0,0,1,,,,,,,,,,,,,,,0,,,73,37
76320,note_on,120,0,1,,,,,,,,,,,,,,,0,,,80,0
76320,note_on,0,0,2,,,,,,,,,,,,,,,0,,,56,0
76320,note_on,0,0,2,,,,,,,,,,,,,,,0,,,61,35
76380,note_on,0,0,2,,,,,,,,,,,,,,,0,,,61,0
76380,note_on,60,0,2,,,,,,,,,,,,,,,0,,,65,0
76560,set_tempo,240,1,0,,,,,,,,,,,,489277,,,,,,,
76560,note_on,0,0,1,,,,,,,,,,,,,,,0,,,77,0
76560,note_on,0,0,1,,,,,,,,,,,,,,,0,,,73,0
76560,note_on,180,0,2,,,,,,,,,,,,,,,0,,,49,33
76560,note_on,240,0,1,,,,,,,,,,,,,,,0,,,80,0
76620,note_on,60,0,2,,,,,,,,,,,,,,,0,,,49,0
76800,set_tempo,240,1,0,,,,,,,,,,,,504498,,,,,,,
76800,note_on,180,0,2,,,,,,,,,,,,,,,0,,,49,33
76860,note_on,60,0,2,,,,,,,,,,,,,,,0,,,49,0
77040,note_on,180,0,2,,,,,,,,,,,,,,,0,,,61,31
77040,set_tempo,240,1,0,,,,,,,,,,,,483014,,,,,,,
77043,note_on,3,0,2,,,,,,,,,,,,,,,0,,,65,38
77100,note_on,57,0,2,,,,,,,,,,,,,,,0,,,61,0
77103,note_on,3,0,2,,,,,,,,,,,,,,,0,,,65,0
77280,note_on,177,0,2,,,,,,,,,,,,,,,0,,,49,33
77280,set_tempo,240,1,0,,,,,,,,,,,,491400,,,,,,,
77340,note_on,60,0,2,,,,,,,,,,,,,,,0,,,49,0
77520,set_tempo,240,1,0,,,,,,,,,,,,502260,,,,,,,
77520,note_on,180,0,2,,,,,,,,,,,,,,,0,,,49,33
77580,note_on,60,0,2,,,,,,,,,,,,,,,0,,,49,0
77700,note_on,1140,0,1,,,,,,,,,,,,,,,0,,,73,48
77730,note_on,30,0,1,,,,,,,,,,,,,,,0,,,77,48
77760,note_on,0,0,2,,,,,,,,,,,,,,,0,,,65,39
77760,set_tempo,240,1,0,,,,,,,,,,,,467108,,,,,,,
77760,note_on,180,0,2,,,,,,,,,,,,,,,0,,,61,33
77760,note_on,30,0,1,,,,,,,,,,,,,,,0,,,80,60
77820,note_on,60,0,2,,,,,,,,,,,,,,,0,,,65,0
77820,note_on,0,0,2,,,,,,,,,,,,,,,0,,,61,0
77880,note_on,120,0,1,,,,,,,,,,,,,,,0,,,80,0
77880,note_on,0,0,1,,,,,,,,,,,,,,,0,,,77,0
77880,note_on,0,0,1,,,,,,,,,,,,,,,0,,,73,0
78000,note_on,120,0,1,,,,,,,,,,,,,,,0,,,78,48
78000,note_on,180,0,2,,,,,,,,,,,,,,,0,,,49,33
78000,set_tempo,240,1,0,,,,,,,,,,,,461432,,,,,,,
78060,note_on,60,0,2,,,,,,,,,,,,,,,0,,,49,0
78120,note_on,120,0,1,,,,,,,,,,,,,,,0,,,78,0
78120,note_on,0,0,1,,,,,,,,,,,,,,,0,,,77,48
78240,note_on,180,0,2,,,,,,,,,,,,,,,0,,,49,33
78240,note_on,0,0,1,,,,,,,,,,,,,,,0,,,75,48
78240,note_on,120,0,1,,,,,,,,,,,,,,,0,,,77,0
78240,set_tempo,240,1,0,,,,,,,,,,,,483014,,,,,,,
78300,note_on,60,0,2,,,,,,,,,,,,,,,0,,,49,0
78360,note_on,0,0,1,,,,,,,,,,,,,,,0,,,73,48
78360,note_on,120,0,1,,,,,,,,,,,,,,,0,,,75,0
78420,note_on,60,0,1,,,,,,,,,,,,,,,0,,,68,48
78450,note_on,30,0,1,,,,,,,,,,,,,,,0,,,72,48
78480,note_on,30,0,1,,,,,,,,,,,,,,,0,,,73,0
78480,set_tempo,240,1,0,,,,,,,,,,,,465224,,,,,,,
78480,note_on,0,0,1,,,,,,,,,,,,,,,0,,,75,58
78480,note_on,0,0,2,,,,,,,,,,,,,,,0,,,66,40
78480,note_on,180,0,2,,,,,,,,,,,,,,,0,,,61,34
78540,note_on,60,0,2,,,,,,,,,,,,,,,0,,,66,0
78540,note_on,0,0,2,,,,,,,,,,,,,,,0,,,61,0
78600,note_on,0,0,1,,,,,,,,,,,,,,,0,,,72,0
78600,note_on,0,0,1,,,,,,,,,,,,,,,0,,,68,0
78600,note_on,120,0,1,,,,,,,,,,,,,,,0,,,75,0
78720,note_on,180,0,2,,,,,,,,,,,,,,,0,,,49,33
78720,note_on,120,0,1,,,,,,,,,,,,,,,0,,,73,48
78720,set_tempo,240,1,0,,,,,,,,,,,,461432,,,,,,,
78780,note_on,60,0,2,,,,,,,,,,,,,,,0,,,49,0
78840,note_on,120,0,1,,,,,,,,,,,,,,,0,,,73,0
78840,note_on,0,0,1,,,,,,,,,,,,,,,0,,,72,48
78960,note_on,180,0,2,,,,,,,,,,,,,,,0,,,49,33
78960,note_on,0,0,1,,,,,,,,,,,,,,,0,,,70,48
78960,set_tempo,240,1,0,,,,,,,,,,,,478965,,,,,,,
78960,note_on,120,0,1,,,,,,,,,,,,,,,0,,,72,0
79020,note_on,60,0,2,,,,,,,,,,,,,,,0,,,49,0
79080,note_on,0,0,1,,,,,,,,,,,,,,,0,,,68,48
79080,note_on,120,0,1,,,,,,,,,,,,,,,0,,,70,0
79140,note_on,60,0,1,,,,,,,,,,,,,,,0,,,73,48
79170,note_on,30,0,1,,,,,,,,,,,,,,,0,,,77,48
79200,note_on,0,0,2,,,,,,,,,,,,,,,0,,,65,39
79200,note_on,180,0,2,,,,,,,,,,,,,,,0,,,61,33
79200,set_tempo,240,1,0,,,,,,,,,,,,487171,,,,,,,
79200,note_on,0,0,1,,,,,,,,,,,,,,,0,,,80,63
79200,note_on,30,0,1,,,,,,,,,,,,,,,0,,,68,0
79260,note_on,60,0,2,,,,,,,,,,,,,,,0,,,65,0
79260,note_on,0,0,2,,,,,,,,,,,,,,,0,,,61,0
79320,note_on,120,0,1,,,,,,,,,,,,,,,0,,,80,0
79320,note_on,0,0,1,,,,,,,,,,,,,,,0,,,73,0
79320,note_on,0,0,1,,,,,,,,,,,,,,,0,,,77,0
79440,set_tempo,240,1,0,,,,,,,,,,,,461432,,,,,,,
79440,note_on,120,0,1,,,,,,,,,,,,,,,0,,,78,50
79440,note_on,180,0,2,,,,,,,,,,,,,,,0,,,49,34
79500,note_on,60,0,2,,,,,,,,,,,,,,,0,,,49,0
79560,note_on,0,0,1,,,,,,,,,,,,,,,0,,,77,53
79560,note_on,120,0,1,,,,,,,,,,,,,,,0,,,78,0
79680,note_on,180,0,2,,,,,,,,,,,,,,,0,,,49,39
79680,note_on,120,0,1,,,,,,,,,,,,,,,0,,,77,0
79680,note_on,0,0,1,,,,,,,,,,,,,,,0,,,75,56
79740,note_on,60,0,2,,,,,,,,,,,,,,,0,,,49,0
79800,note_on,0,0,1,,,,,,,,,,,,,,,0,,,73,60
79800,note_on,120,0,1,,,,,,,,,,,,,,,0,,,75,0
79920,note_on,0,0,2,,,,,,,,,,,,,,,0,,,66,45
79920,note_on,0,0,1,,,,,,,,,,,,,,,0,,,85,68
79920,note_on,120,0,1,,,,,,,,,,,,,,,0,,,73,0
79920,set_tempo,480,1,0,,,,,,,,,,,,485084,,,,,,,
79920,note_on,180,0,2,,,,,,,,,,,,,,,0,,,61,37
79920,note_on,0,0,1,,,,,,,,,,,,,,,0,,,78,68
79920,note_on,0,0,1,,,,,,,,,,,,,,,0,,,82,68
79980,note_on,0,0,1,,,,,,,,,,,,,,,0,,,82,0
79980,note_on,0,0,2,,,,,,,,,,,,,,,0,,,61,0
79980,note_on,0,0,1,,,,,,,,,,,,,,,0,,,85,0
79980,note_on,60,0,1,,,,,,,,,,,,,,,0,,,78,0
79980,note_on,60,0,2,,,,,,,,,,,,,,,0,,,66,0
80160,note_on,0,0,1,,,,,,,,,,,,,,,0,,,85,61
80160,note_on,180,0,2,,,,,,,,,,,,,,,0,,,49,33
80160,note_on,0,0,1,,,,,,,,,,,,,,,0,,,82,61
80160,note_on,180,0,1,,,,,,,,,,,,,,,0,,,78,61
80220,note_on,60,0,2,,,,,,,,,,,,,,,0,,,49,0
80220,note_on,0,0,1,,,,,,,,,,,,,,,0,,,78,0
80220,note_on,0,0,1,,,,,,,,,,,,,,,0,,,82,0
80220,note_on,60,0,1,,,,,,,,,,,,,,,0,,,85,0
80400,note_on,0,0,1,,,,,,,,,,,,,,,0,,,85,61
80400,note_on,0,0,1,,,,,,,,,,,,,,,0,,,82,61
80400,note_on,180,0,1,,,,,,,,,,,,,,,0,,,78,61
80400,note_on,180,0,2,,,,,,,,,,,,,,,0,,,49,33
80460,note_on,0,0,1,,,,,,,,,,,,,,,0,,,82,0
80460,note_on,60,0,1,,,,,,,,,,,,,,,0,,,85,0
80460,note_on,0,0,1,,,,,,,,,,,,,,,0,,,78,0
80460,note_on,60,0,2,,,,,,,,,,,,,,,0,,,49,0
80640,set_tempo,720,1,0,,,,,,,,,,,,467108,,,,,,,
80640,note_on,180,0,2,,,,,,,,,,,,,,,0,,,58,33
80640,note_on,0,0,2,,,,,,,,,,,,,,,0,,,61,33
80640,note_on,0,0,2,,,,,,,,,,,,,,,0,,,66,39
80674,control_change,34,0,2,,,,,,,,,,,,,,,0,64,127,,
80880,note_on,0,0,2,,,,,,,,,,,,,,,0,,,61,0
80880,note_on,206,0,2,,,,,,,,,,,,,,,0,,,66,0
80880,note_on,0,0,2,,,,,,,,,,,,,,,0,,,58,0
80880,set_tempo,240,1,0,,,,,,,,,,,,478965,,,,,,,
80880,note_on,0,0,2,,,,,,,,,,,,,,,0,,,49,30
81120,note_on,240,0,2,,,,,,,,,,,,,,,0,,,49,0
81120,note_on,0,0,2,,,,,,,,,,,,,,,0,,,49,30
81120,set_tempo,240,1,0,,,,,,,,,,,,489277,,,,,,,
81360,note_on,240,0,2,,,,,,,,,,,,,,,0,,,49,0
81360,control_change,0,0,2,,,,,,,,,,,,,,,0,64,0,,
81360,note_on,0,0,2,,,,,,,,,,,,,,,0,,,58,30
81360,note_on,0,0,2,,,,,,,,,,,,,,,0,,,61,30
81360,note_on,0,0,2,,,,,,,,,,,,,,,0,,,66,36
81360,set_tempo,240,1,0,,,,,,,,,,,,465224,,,,,,,
81417,control_change,57,0,2,,,,,,,,,,,,,,,0,64,127,,
81600,set_tempo,240,1,0,,,,,,,,,,,,478965,,,,,,,
81600,note_on,0,0,2,,,,,,,,,,,,,,,0,,,58,0
81600,note_on,0,0,2,,,,,,,,,,,,,,,0,,,49,30
81600,note_on,0,0,2,,,,,,,,,,,,,,,0,,,61,0
81600,note_on,183,0,2,,,,,,,,,,,,,,,0,,,66,0
81840,note_on,0,0,2,,,,,,,,,,,,,,,0,,,49,30
81840,note_on,240,0,2,,,,,,,,,,,,,,,0,,,49,0
81880,set_tempo,280,1,0,,,,,,,,,,,,491400,,,,,,,
82080,note_on,1620,0,1,,,,,,,,,,,,,,,0,,,65,58
82080,set_tempo,200,1,0,,,,,,,,,,,,478965,,,,,,,
82080,note_on,0,0,2,,,,,,,,,,,,,,,0,,,61,35
82080,note_on,0,0,2,,,,,,,,,,,,,,,0,,,56,29
82080,control_change,0,0,2,,,,,,,,,,,,,,,0,64,0,,
82080,note_on,240,0,2,,,,,,,,,,,,,,,0,,,49,0
82217,control_change,137,0,2,,,,,,,,,,,,,,,0,64,127,,
82260,set_tempo,180,1,0,,,,,,,,,,,,433244,,,,,,,
82260,note_on,180,0,1,,,,,,,,,,,,,,,0,,,68,38
82320,set_tempo,60,1,0,,,,,,,,,,,,472962,,,,,,,
82320,note_on,0,0,2,,,,,,,,,,,,,,,0,,,56,0
82320,note_on,103,0,2,,,,,,,,,,,,,,,0,,,61,0
82320,note_on,60,0,1,,,,,,,,,,,,,,,0,,,68,0
82320,note_on,0,0,1,,,,,,,,,,,,,,,0,,,66,49
82320,note_on,0,0,1,,,,,,,,,,,,,,,0,,,65,0
82320,note_on,0,0,2,,,,,,,,,,,,,,,0,,,49,29
82560,note_on,0,0,2,,,,,,,,,,,,,,,0,,,49,29
82560,note_on,0,0,1,,,,,,,,,,,,,,,0,,,65,49
82560,note_on,240,0,1,,,,,,,,,,,,,,,0,,,66,0
82560,note_on,240,0,2,,,,,,,,,,,,,,,0,,,49,0
82800,note_on,0,0,1,,,,,,,,,,,,,,,0,,,63,57
82800,set_tempo,480,1,0,,,,,,,,,,,,467108,,,,,,,
82800,note_on,240,0,2,,,,,,,,,,,,,,,0,,,49,0
82800,control_change,0,0,2,,,,,,,,,,,,,,,0,64,0,,
82800,note_on,0,0,2,,,,,,,,,,,,,,,0,,,54,30
82800,note_on,0,0,2,,,,,,,,,,,,,,,0,,,58,36
82800,note_on,240,0,1,,,,,,,,,,,,,,,0,,,65,0
82846,control_change,46,0,2,,,,,,,,,,,,,,,0,64,127,,
83040,note_on,240,0,1,,,,,,,,,,,,,,,0,,,63,0
83040,note_on,0,0,2,,,,,,,,,,,,,,,0,,,42,29
83040,note_on,0,0,2,,,,,,,,,,,,,,,0,,,54,0
83040,note_on,0,0,1,,,,,,,,,,,,,,,0,,,65,49
83040,set_tempo,240,1,0,,,,,,,,,,,,457701,,,,,,,
83040,note_on,194,0,2,,,,,,,,,,,,,,,0,,,58,0
83051,control_change,11,0,2,,,,,,,,,,,,,,,0,64,0,,
83080,control_change,29,0,2,,,,,,,,,,,,,,,0,64,127,,
83160,note_on,120,0,1,,,,,,,,,,,,,,,0,,,65,0
83160,note_on,0,0,1,,,,,,,,,,,,,,,0,,,66,49
83200,set_tempo,160,1,0,,,,,,,,,,,,455858,,,,,,,
83280,note_on,0,0,2,,,,,,,,,,,,,,,0,,,42,29
83280,note_on,200,0,2,,,,,,,,,,,,,,,0,,,42,0
83280,note_on,120,0,1,,,,,,,,,,,,,,,0,,,66,0
83280,note_on,0,0,1,,,,,,,,,,,,,,,0,,,68,51
83360,set_tempo,160,1,0,,,,,,,,,,,,454030,,,,,,,
83400,note_on,120,0,1,,,,,,,,,,,,,,,0,,,68,0
83400,note_on,0,0,1,,,,,,,,,,,,,,,0,,,70,52
83480,set_tempo,120,1,0,,,,,,,,,,,,452216,,,,,,,
83520,control_change,0,0,2,,,,,,,,,,,,,,,0,64,0,,
83520,set_tempo,40,1,0,,,,,,,,,,,,465224,,,,,,,
83520,note_on,240,0,2,,,,,,,,,,,,,,,0,,,42,0
83520,note_on,0,0,1,,,,,,,,,,,,,,,0,,,72,62
83520,note_on,120,0,1,,,,,,,,,,,,,,,0,,,70,0
83520,note_on,0,0,2,,,,,,,,,,,,,,,0,,,66,35
83520,note_on,0,0,2,,,,,,,,,,,,,,,0,,,63,29
83560,control_change,40,0,2,,,,,,,,,,,,,,,0,64,127,,
83760,note_on,0,0,2,,,,,,,,,,,,,,,0,,,56,29
83760,note_on,0,0,2,,,,,,,,,,,,,,,0,,,63,0
83760,note_on,200,0,2,,,,,,,,,,,,,,,0,,,66,0
83760,set_tempo,240,1,0,,,,,,,,,,,,457701,,,,,,,
83760,note_on,240,0,1,,,,,,,,,,,,,,,0,,,72,0
83760,note_on,0,0,1,,,,,,,,,,,,,,,0,,,70,59
83800,control_change,40,0,2,,,,,,,,,,,,,,,0,64,0,,
83811,control_change,11,0,2,,,,,,,,,,,,,,,0,64,127,,
83880,note_on,120,0,1,,,,,,,,,,,,,,,0,,,70,0
83880,note_on,0,0,1,,,,,,,,,,,,,,,0,,,72,55
84000,note_on,0,0,2,,,,,,,,,,,,,,,0,,,56,29
84000,note_on,189,0,2,,,,,,,,,,,,,,,0,,,56,0
84000,note_on,0,0,1,,,,,,,,,,,,,,,0,,,73,57
84000,note_on,120,0,1,,,,,,,,,,,,,,,0,,,72,0
84120,note_on,0,0,1,,,,,,,,,,,,,,,0,,,75,59
84120,note_on,120,0,1,,,,,,,,,,,,,,,0,,,73,0
84240,note_on,120,0,1,,,,,,,,,,,,,,,0,,,75,0
84240,control_change,0,0,2,,,,,,,,,,,,,,,0,64,0,,
84240,note_on,0,0,2,,,,,,,,,,,,,,,0,,,65,35
84240,note_on,240,0,2,,,,,,,,,,,,,,,0,,,56,0
84240,set_tempo,480,1,0,,,,,,,,,,,,472962,,,,,,,
84240,note_on,0,0,2,,,,,,,,,,,,,,,0,,,61,29
84240,note_on,0,0,1,,,,,,,,,,,,,,,0,,,77,63
84300,note_on,60,0,1,,,,,,,,,,,,,,,0,,,77,0
84360,set_tempo,120,1,0,,,,,,,,,,,,474947,,,,,,,
84440,set_tempo,80,1,0,,,,,,,,,,,,476948,,,,,,,
84480,note_on,240,0,2,,,,,,,,,,,,,,,0,,,61,0
84480,note_on,180,0,1,,,,,,,,,,,,,,,0,,,77,53
84480,note_on,0,0,2,,,,,,,,,,,,,,,0,,,65,0
84480,note_on,0,0,2,,,,,,,,,,,,,,,0,,,49,29
84540,note_on,60,0,1,,,,,,,,,,,,,,,0,,,77,0
84560,set_tempo,120,1,0,,,,,,,,,,,,478965,,,,,,,
84640,set_tempo,80,1,0,,,,,,,,,,,,480962,,,,,,,
84720,note_on,240,0,2,,,,,,,,,,,,,,,0,,,49,0
84720,note_on,0,0,2,,,,,,,,,,,,,,,0,,,49,29
84720,note_on,180,0,1,,,,,,,,,,,,,,,0,,,77,52
84720,set_tempo,80,1,0,,,,,,,,,,,,483014,,,,,,,
84780,note_on,60,0,1,,,,,,,,,,,,,,,0,,,77,0
84960,set_tempo,240,1,0,,,,,,,,,,,,485084,,,,,,,
84960,note_on,0,0,2,,,,,,,,,,,,,,,0,,,61,30
84960,note_on,240,0,2,,,,,,,,,,,,,,,0,,,49,0
84960,note_on,0,0,2,,,,,,,,,,,,,,,0,,,65,36
85020,note_on,0,0,2,,,,,,,,,,,,,,,0,,,61,0
85020,note_on,60,0,2,,,,,,,,,,,,,,,0,,,65,0
85200,note_on,180,0,2,,,,,,,,,,,,,,,0,,,49,30
85200,set_tempo,240,1,0,,,,,,,,,,,,491400,,,,,,,
85260,note_on,60,0,2,,,,,,,,,,,,,,,0,,,49,0
85440,set_tempo,240,1,0,,,,,,,,,,,,504498,,,,,,,
85440,note_on,180,0,2,,,,,,,,,,,,,,,0,,,49,30
85500,note_on,60,0,2,,,,,,,,,,,,,,,0,,,49,0
85680,set_tempo,240,1,0,,,,,,,,,,,,483014,,,,,,,
85680,note_on,180,0,2,,,,,,,,,,,,,,,0,,,61,30
85683,note_on,3,0,2,,,,,,,,,,,,,,,0,,,65,37
85740,note_on,57,0,2,,,,,,,,,,,,,,,0,,,61,0
85743,note_on,3,0,2,,,,,,,,,,,,,,,0,,,65,0
85920,set_tempo,240,1,0,,,,,,,,,,,,491400,,,,,,,
85920,note_on,177,0,2,,,,,,,,,,,,,,,0,,,49,33
85980,note_on,60,0,2,,,,,,,,,,,,,,,0,,,49,0
86160,note_on,180,0,2,,,,,,,,,,,,,,,0,,,49,33
86160,set_tempo,240,1,0,,,,,,,,,,,,502260,,,,,,,
86220,note_on,60,0,2,,,,,,,,,,,,,,,0,,,49,0
86340,note_on,1560,0,1,,,,,,,,,,,,,,,0,,,73,48
86370,note_on,30,0,1,,,,,,,,,,,,,,,0,,,77,48
86400,note_on,0,0,2,,,,,,,,,,,,,,,0,,,65,39
86400,note_on,180,0,2,,,,,,,,,,,,,,,0,,,61,33
86400,note_on,30,0,1,,,,,,,,,,,,,,,0,,,80,60
86400,set_tempo,240,1,0,,,,,,,,,,,,470995,,,,,,,
86460,note_on,0,0,2,,,,,,,,,,,,,,,0,,,61,0
86460,note_on,60,0,2,,,,,,,,,,,,,,,0,,,65,0
86520,note_on,120,0,1,,,,,,,,,,,,,,,0,,,80,0
86520,note_on,0,0,1,,,,,,,,,,,,,,,0,,,77,0
86520,note_on,0,0,1,,,,,,,,,,,,,,,0,,,73,0
86640,set_tempo,240,1,0,,,,,,,,,,,,461432,,,,,,,
86640,note_on,120,0,1,,,,,,,,,,,,,,,0,,,78,48
86640,note_on,180,0,2,,,,,,,,,,,,,,,0,,,49,33
86700,note_on,60,0,2,,,,,,,,,,,,,,,0,,,49,0
86760,note_on,120,0,1,,,,,,,,,,,,,,,0,,,78,0
86760,note_on,0,0,1,,,,,,,,,,,,,,,0,,,77,48
86880,note_on,180,0,2,,,,,,,,,,,,,,,0,,,49,33
86880,note_on,120,0,1,,,,,,,,,,,,,,,0,,,77,0
86880,note_on,0,0,1,,,,,,,,,,,,,,,0,,,75,48
86880,set_tempo,240,1,0,,,,,,,,,,,,476948,,,,,,,
86940,note_on,60,0,2,,,,,,,,,,,,,,,0,,,49,0
87000,note_on,120,0,1,,,,,,,,,,,,,,,0,,,75,0
87000,note_on,0,0,1,,,,,,,,,,,,,,,0,,,73,48
87060,note_on,60,0,1,,,,,,,,,,,,,,,0,,,68,48
87090,note_on,30,0,1,,,,,,,,,,,,,,,0,,,72,48
87120,note_on,180,0,2,,,,,,,,,,,,,,,0,,,61,34
87120,note_on,0,0,1,,,,,,,,,,,,,,,0,,,75,58
87120,set_tempo,240,1,0,,,,,,,,,,,,465224,,,,,,,
87120,note_on,30,0,1,,,,,,,,,,,,,,,0,,,73,0
87120,note_on,0,0,2,,,,,,,,,,,,,,,0,,,66,40
87180,note_on,60,0,2,,,,,,,,,,,,,,,0,,,66,0
87180,note_on,0,0,2,,,,,,,,,,,,,,,0,,,61,0
87240,note_on,120,0,1,,,,,,,,,,,,,,,0,,,75,0
87240,note_on,0,0,1,,,,,,,,,,,,,,,0,,,68,0
87240,note_on,0,0,1,,,,,,,,,,,,,,,0,,,72,0
87360,note_on,120,0,1,,,,,,,,,,,,,,,0,,,73,48
87360,note_on,180,0,2,,,,,,,,,,,,,,,0,,,49,33
87360,set_tempo,240,1,0,,,,,,,,,,,,461432,,,,,,,
87420,note_on,60,0,2,,,,,,,,,,,,,,,0,,,49,0
87480,note_on,120,0,1,,,,,,,,,,,,,,,0,,,73,0
87480,note_on,0,0,1,,,,,,,,,,,,,,,0,,,72,48
87600,set_tempo,240,1,0,,,,,,,,,,,,480962,,,,,,,
87600,note_on,180,0,2,,,,,,,,,,,,,,,0,,,49,33
87600,note_on,120,0,1,,,,,,,,,,,,,,,0,,,72,0
87600,note_on,0,0,1,,,,,,,,,,,,,,,0,,,70,48
87660,note_on,60,0,2,,,,,,,,,,,,,,,0,,,49,0
87720,note_on,0,0,1,,,,,,,,,,,,,,,0,,,68,48
87720,note_on,120,0,1,,,,,,,,,,,,,,,0,,,70,0
87780,note_on,60,0,1,,,,,,,,,,,,,,,0,,,73,48
87810,note_on,30,0,1,,,,,,,,,,,,,,,0,,,77,48
87840,note_on,0,0,1,,,,,,,,,,,,,,,0,,,80,63
87840,note_on,30,0,1,,,,,,,,,,,,,,,0,,,68,0
87840,note_on,180,0,2,,,,,,,,,,,,,,,0,,,61,33
87840,set_tempo,240,1,0,,,,,,,,,,,,487171,,,,,,,
87840,note_on,0,0,2,,,,,,,,,,,,,,,0,,,65,39
87900,note_on,0,0,2,,,,,,,,,,,,,,,0,,,61,0
87900,note_on,60,0,2,,,,,,,,,,,,,,,0,,,65,0
87960,note_on,120,0,1,,,,,,,,,,,,,,,0,,,80,0
87960,note_on,0,0,1,,,,,,,,,,,,,,,0,,,77,0
87960,note_on,0,0,1,,,,,,,,,,,,,,,0,,,73,0
88080,set_tempo,240,1,0,,,,,,,,,,,,461432,,,,,,,
88080,note_on,120,0,1,,,,,,,,,,,,,,,0,,,78,50
88080,note_on,180,0,2,,,,,,,,,,,,,,,0,,,49,34
88140,note_on,60,0,2,,,,,,,,,,,,,,,0,,,49,0
88200,note_on,0,0,1,,,,,,,,,,,,,,,0,,,77,53
88200,note_on,120,0,1,,,,,,,,,,,,,,,0,,,78,0
88320,note_on,120,0,1,,,,,,,,,,,,,,,0,,,77,0
88320,note_on,0,0,1,,,,,,,,,,,,,,,0,,,75,56
88320,note_on,180,0,2,,,,,,,,,,,,,,,0,,,49,39
88380,note_on,60,0,2,,,,,,,,,,,,,,,0,,,49,0
88440,note_on,0,0,1,,,,,,,,,,,,,,,0,,,73,60
88440,note_on,120,0,1,,,,,,,,,,,,,,,0,,,75,0
88520,set_tempo,440,1,0,,,,,,,,,,,,478965,,,,,,,
88560,note_on,0,0,1,,,,,,,,,,,,,,,0,,,85,68
88560,note_on,0,0,1,,,,,,,,,,,,,,,0,,,78,68
88560,note_on,120,0,1,,,,,,,,,,,,,,,0,,,73,0
88560,note_on,180,0,2,,,,,,,,,,,,,,,0,,,61,37
88560,note_on,0,0,2,,,,,,,,,,,,,,,0,,,66,45
88560,note_on,0,0,1,,,,,,,,,,,,,,,0,,,81,68
88600,set_tempo,80,1,0,,,,,,,,,,,,480962,,,,,,,
88620,note_on,0,0,1,,,,,,,,,,,,,,,0,,,85,0
88620,note_on,60,0,1,,,,,,,,,,,,,,,0,,,78,0
88620,note_on,60,0,2,,,,,,,,,,,,,,,0,,,66,0
88620,note_on,0,0,1,,,,,,,,,,,,,,,0,,,81,0
88620,note_on,0,0,2,,,,,,,,,,,,,,,0,,,61,0
88680,set_tempo,80,1,0,,,,,,,,,,,,483014,,,,,,,
88720,set_tempo,40,1,0,,,,,,,,,,,,485084,,,,,,,
88800,note_on,180,0,2,,,,,,,,,,,,,,,0,,,49,33
88800,set_tempo,80,1,0,,,,,,,,,,,,487171,,,,,,,
88800,note_on,0,0,1,,,,,,,,,,,,,,,0,,,85,61
88800,note_on,0,0,1,,,,,,,,,,,,,,,0,,,81,61
88800,note_on,180,0,1,,,,,,,,,,,,,,,0,,,78,61
88860,note_on,60,0,2,,,,,,,,,,,,,,,0,,,49,0
88860,note_on,0,0,1,,,,,,,,,,,,,,,0,,,81,0
88860,note_on,60,0,1,,,,,,,,,,,,,,,0,,,85,0
88860,note_on,0,0,1,,,,,,,,,,,,,,,0,,,78,0
88880,set_tempo,80,1,0,,,,,,,,,,,,489277,,,,,,,
88920,set_tempo,40,1,0,,,,,,,,,,,,491400,,,,,,,
89000,set_tempo,80,1,0,,,,,,,,,,,,493543,,,,,,,
89040,note_on,0,0,1,,,,,,,,,,,,,,,0,,,85,61
89040,note_on,0,0,1,,,,,,,,,,,,,,,0,,,81,61
89040,note_on,180,0,1,,,,,,,,,,,,,,,0,,,78,61
89040,note_on,180,0,2,,,,,,,,,,,,,,,0,,,49,33
89040,set_tempo,40,1,0,,,,,,,,,,,,495663,,,,,,,
89100,note_on,60,0,1,,,,,,,,,,,,,,,0,,,85,0
89100,note_on,0,0,1,,,,,,,,,,,,,,,0,,,78,0
89100,note_on,60,0,2,,,,,,,,,,,,,,,0,,,49,0
89100,note_on,0,0,1,,,,,,,,,,,,,,,0,,,81,0
89280,set_tempo,240,1,0,,,,,,,,,,,,467108,,,,,,,
89280,note_on,0,0,2,,,,,,,,,,,,,,,0,,,61,33
89280,note_on,180,0,2,,,,,,,,,,,,,,,0,,,57,33
89280,note_on,0,0,2,,,,,,,,,,,,,,,0,,,66,39
89314,control_change,34,0,2,,,,,,,,,,,,,,,0,64,127,,
89520,note_on,0,0,2,,,,,,,,,,,,,,,0,,,61,0
89520,note_on,0,0,2,,,,,,,,,,,,,,,0,,,57,0
89520,note_on,0,0,2,,,,,,,,,,,,,,,0,,,54,30
89520,set_tempo,240,1,0,,,,,,,,,,,,485084,,,,,,,
89520,note_on,206,0,2,,,,,,,,,,,,,,,0,,,66,0
89760,note_on,240,0,2,,,,,,,,,,,,,,,0,,,54,0
89760,note_on,0,0,2,,,,,,,,,,,,,,,0,,,54,30
89760,set_tempo,240,1,0,,,,,,,,,,,,493543,,,,,,,
90000,set_tempo,240,1,0,,,,,,,,,,,,465224,,,,,,,
90000,note_on,0,0,2,,,,,,,,,,,,,,,0,,,66,36
90000,note_on,0,0,2,,,,,,,,,,,,,,,0,,,57,30
90000,control_change,0,0,2,,,,,,,,,,,,,,,0,64,0,,
90000,note_on,240,0,2,,,,,,,,,,,,,,,0,,,54,0
90000,note_on,0,0,2,,,,,,,,,,,,,,,0,,,61,30
90057,control_change,57,0,2,,,,,,,,,,,,,,,0,64,127,,
90240,set_tempo,240,1,0,,,,,,,,,,,,485084,,,,,,,
90240,note_on,0,0,2,,,,,,,,,,,,,,,0,,,61,0
90240,note_on,0,0,2,,,,,,,,,,,,,,,0,,,57,0
90240,note_on,0,0,2,,,,,,,,,,,,,,,0,,,54,30
90240,note_on,183,0,2,,,,,,,,,,,,,,,0,,,66,0
90480,note_on,0,0,2,,,,,,,,,,,,,,,0,,,54,30
90480,note_on,240,0,2,,,,,,,,,,,,,,,0,,,54,0
90480,set_tempo,240,1,0,,,,,,,,,,,,497843,,,,,,,
90720,note_on,240,0,2,,,,,,,,,,,,,,,0,,,54,0
90720,note_on,0,0,2,,,,,,,,,,,,,,,0,,,66,35
90720,note_on,0,0,2,,,,,,,,,,,,,,,0,,,57,29
90720,note_on,0,0,2,,,,,,,,,,,,,,,0,,,61,29
90720,control_change,0,0,2,,,,,,,,,,,,,,,0,64,0,,
90720,note_on,1620,0,1,,,,,,,,,,,,,,,0,,,73,63
90720,set_tempo,240,1,0,,,,,,,,,,,,480962,,,,,,,
90857,control_change,137,0,2,,,,,,,,,,,,,,,0,64,127,,
90900,note_on,180,0,1,,,,,,,,,,,,,,,0,,,76,45
90900,set_tempo,180,1,0,,,,,,,,,,,,434909,,,,,,,
90960,note_on,60,0,1,,,,,,,,,,,,,,,0,,,76,0
90960,set_tempo,60,1,0,,,,,,,,,,,,472962,,,,,,,
90960,note_on,0,0,2,,,,,,,,,,,,,,,0,,,54,29
90960,note_on,0,0,1,,,,,,,,,,,,,,,0,,,73,0
90960,note_on,0,0,2,,,,,,,,,,,,,,,0,,,66,0
90960,note_on,0,0,2,,,,,,,,,,,,,,,0,,,57,0
90960,note_on,103,0,2,,,,,,,,,,,,,,,0,,,61,0
90960,note_on,0,0,1,,,,,,,,,,,,,,,0,,,74,53
91200,note_on,0,0,1,,,,,,,,,,,,,,,0,,,73,53
91200,note_on,240,0,1,,,,,,,,,,,,,,,0,,,74,0
91200,note_on,0,0,2,,,,,,,,,,,,,,,0,,,54,29
91200,note_on,240,0,2,,,,,,,,,,,,,,,0,,,54,0
91440,note_on,240,0,1,,,,,,,,,,,,,,,0,,,73,0
91440,note_on,0,0,1,,,,,,,,,,,,,,,0,,,71,62
91440,note_on,0,0,2,,,,,,,,,,,,,,,0,,,66,36
91440,note_on,240,0,2,,,,,,,,,,,,,,,0,,,54,0
91440,set_tempo,480,1,0,,,,,,,,,,,,461432,,,,,,,
91440,note_on,0,0,2,,,,,,,,,,,,,,,0,,,62,30
91440,control_change,0,0,2,,,,,,,,,,,,,,,0,64,0,,
91486,control_change,46,0,2,,,,,,,,,,,,,,,0,64,127,,
91680,set_tempo,240,1,0,,,,,,,,,,,,457701,,,,,,,
91680,note_on,0,0,2,,,,,,,,,,,,,,,0,,,62,0
91680,note_on,194,0,2,,,,,,,,,,,,,,,0,,,66,0
91680,note_on,240,0,1,,,,,,,,,,,,,,,0,,,71,0
91680,note_on,0,0,2,,,,,,,,,,,,,,,0,,,50,29
91680,note_on,0,0,1,,,,,,,,,,,,,,,0,,,73,53
91703,control_change,23,0,2,,,,,,,,,,,,,,,0,64,0,,
91714,control_change,11,0,2,,,,,,,,,,,,,,,0,64,127,,
91800,note_on,120,0,1,,,,,,,,,,,,,,,0,,,73,0
91800,note_on,0,0,1,,,,,,,,,,,,,,,0,,,74,53
91920,note_on,120,0,1,,,,,,,,,,,,,,,0,,,74,0
91920,note_on,0,0,1,,,,,,,,,,,,,,,0,,,76,56
91920,note_on,206,0,2,,,,,,,,,,,,,,,0,,,50,0
91920,note_on,0,0,2,,,,,,,,,,,,,,,0,,,50,29
92040,note_on,0,0,1,,,,,,,,,,,,,,,0,,,78,57
92040,note_on,120,0,1,,,,,,,,,,,,,,,0,,,76,0
92160,note_on,0,0,2,,,,,,,,,,,,,,,0,,,62,29
92160,note_on,0,0,2,,,,,,,,,,,,,,,0,,,64,35
92160,set_tempo,480,1,0,,,,,,,,,,,,463320,,,,,,,
92160,note_on,240,0,2,,,,,,,,,,,,,,,0,,,50,0
92160,note_on,120,0,1,,,,,,,,,,,,,,,0,,,78,0
92160,control_change,0,0,2,,,,,,,,,,,,,,,0,64,0,,
92160,note_on,0,0,1,,,,,,,,,,,,,,,0,,,80,62
92200,control_change,40,0,2,,,,,,,,,,,,,,,0,64,127,,
92400,note_on,200,0,2,,,,,,,,,,,,,,,0,,,64,0
92400,note_on,0,0,2,,,,,,,,,,,,,,,0,,,52,29
92400,note_on,240,0,1,,,,,,,,,,,,,,,0,,,80,0
92400,note_on,0,0,1,,,,,,,,,,,,,,,0,,,78,63
92400,set_tempo,240,1,0,,,,,,,,,,,,457701,,,,,,,
92400,note_on,0,0,2,,,,,,,,,,,,,,,0,,,62,0
92423,control_change,23,0,2,,,,,,,,,,,,,,,0,64,0,,
92440,control_change,17,0,2,,,,,,,,,,,,,,,0,64,127,,
92520,note_on,120,0,1,,,,,,,,,,,,,,,0,,,78,0
92520,note_on,0,0,1,,,,,,,,,,,,,,,0,,,80,51
92640,note_on,0,0,1,,,,,,,,,,,,,,,0,,,81,55
92640,note_on,120,0,1,,,,,,,,,,,,,,,0,,,80,0
92640,note_on,0,0,2,,,,,,,,,,,,,,,0,,,52,29
92640,note_on,200,0,2,,,,,,,,,,,,,,,0,,,52,0
92640,set_tempo,240,1,0,,,,,,,,,,,,469043,,,,,,,
92760,note_on,120,0,1,,,,,,,,,,,,,,,0,,,81,0
92760,note_on,0,0,1,,,,,,,,,,,,,,,0,,,83,58
92880,note_on,240,0,2,,,,,,,,,,,,,,,0,,,52,0
92880,note_on,120,0,1,,,,,,,,,,,,,,,0,,,83,0
92880,control_change,0,0,2,,,,,,,,,,,,,,,0,64,0,,
92880,note_on,0,0,2,,,,,,,,,,,,,,,0,,,64,35
92880,note_on,0,0,2,,,,,,,,,,,,,,,0,,,61,29
92880,note_on,0,0,1,,,,,,,,,,,,,,,0,,,85,62
92880,set_tempo,240,1,0,,,,,,,,,,,,463750,,,,,,,
92940,note_on,60,0,1,,,,,,,,,,,,,,,0,,,85,0
93120,note_on,180,0,1,,,,,,,,,,,,,,,0,,,85,58
93120,note_on,0,0,2,,,,,,,,,,,,,,,0,,,57,29
93120,note_on,0,0,2,,,,,,,,,,,,,,,0,,,64,0
93120,note_on,240,0,2,,,,,,,,,,,,,,,0,,,61,0
93180,note_on,60,0,1,,,,,,,,,,,,,,,0,,,85,0
93360,note_on,180,0,1,,,,,,,,,,,,,,,0,,,85,57
93360,note_on,0,0,2,,,,,,,,,,,,,,,0,,,57,29
93360,note_on,240,0,2,,,,,,,,,,,,,,,0,,,57,0
93360,set_tempo,480,1,0,,,,,,,,,,,,474608,,,,,,,
93420,note_on,60,0,1,,,,,,,,,,,,,,,0,,,85,0
93600,note_on,0,0,2,,,,,,,,,,,,,,,0,,,64,36
93600,note_on,240,0,2,,,,,,,,,,,,,,,0,,,57,0
93600,note_on,0,0,2,,,,,,,,,,,,,,,0,,,61,30
93600,set_tempo,240,1,0,,,,,,,,,,,,485084,,,,,,,
93660,note_on,0,0,2,,,,,,,,,,,,,,,0,,,61,0
93660,note_on,60,0,2,,,,,,,,,,,,,,,0,,,64,0
93840,note_on,180,0,2,,,,,,,,,,,,,,,0,,,57,30
93900,note_on,60,0,2,,,,,,,,,,,,,,,0,,,57,0
94080,note_on,180,0,2,,,,,,,,,,,,,,,0,,,57,31
94080,set_tempo,480,1,0,,,,,,,,,,,,504498,,,,,,,
94140,note_on,60,0,2,,,,,,,,,,,,,,,0,,,57,0
94320,note_on,180,0,2,,,,,,,,,,,,,,,0,,,64,35
94320,control_change,0,0,2,,,,,,,,,,,,,,,0,64,0,,
94320,note_on,0,0,2,,,,,,,,,,,,,,,0,,,61,29
94320,note_on,900,0,1,,,,,,,,,,,,,,,0,,,73,63
94320,set_tempo,240,1,0,,,,,,,,,,,,472962,,,,,,,
94457,control_change,137,0,2,,,,,,,,,,,,,,,0,64,127,,
94560,note_on,103,0,2,,,,,,,,,,,,,,,0,,,61,0
94560,note_on,240,0,1,,,,,,,,,,,,,,,0,,,73,0
94560,note_on,0,0,1,,,,,,,,,,,,,,,0,,,73,53
94560,note_on,0,0,2,,,,,,,,,,,,,,,0,,,57,29
94560,note_on,0,0,2,,,,,,,,,,,,,,,0,,,64,0
94800,note_on,240,0,2,,,,,,,,,,,,,,,0,,,57,0
94800,note_on,0,0,2,,,,,,,,,,,,,,,0,,,57,29
94800,note_on,240,0,1,,,,,,,,,,,,,,,0,,,73,0
94800,note_on,0,0,1,,,,,,,,,,,,,,,0,,,73,53
95040,set_tempo,720,1,0,,,,,,,,,,,,461432,,,,,,,
95040,note_on,0,0,1,,,,,,,,,,,,,,,0,,,73,62
95040,note_on,240,0,2,,,,,,,,,,,,,,,0,,,57,0
95040,control_change,0,0,2,,,,,,,,,,,,,,,0,64,0,,
95040,note_on,0,0,2,,,,,,,,,,,,,,,0,,,61,30
95040,note_on,0,0,2,,,,,,,,,,,,,,,0,,,64,36
95040,note_on,240,0,1,,,,,,,,,,,,,,,0,,,73,0
95086,control_change,46,0,2,,,,,,,,,,,,,,,0,64,127,,
95280,set_tempo,240,1,0,,,,,,,,,,,,461432,,,,,,,
95280,note_on,240,0,1,,,,,,,,,,,,,,,0,,,73,0
95280,note_on,0,0,1,,,,,,,,,,,,,,,0,,,76,53
95280,note_on,194,0,2,,,,,,,,,,,,,,,0,,,64,0
95280,note_on,0,0,2,,,,,,,,,,,,,,,0,,,61,0
95280,note_on,0,0,2,,,,,,,,,,,,,,,0,,,58,29
95291,control_change,11,0,2,,,,,,,,,,,,,,,0,64,0,,
95337,control_change,46,0,2,,,,,,,,,,,,,,,0,64,127,,
95400,note_on,0,0,1,,,,,,,,,,,,,,,0,,,74,53
95400,note_on,120,0,1,,,,,,,,,,,,,,,0,,,76,0
95520,note_on,120,0,1,,,,,,,,,,,,,,,0,,,74,0
95520,note_on,0,0,1,,,,,,,,,,,,,,,0,,,73,56
95520,note_on,183,0,2,,,,,,,,,,,,,,,0,,,58,0
95520,note_on,0,0,2,,,,,,,,,,,,,,,0,,,58,29
95640,note_on,120,0,1,,,,,,,,,,,,,,,0,,,73,0
95640,note_on,0,0,1,,,,,,,,,,,,,,,0,,,76,57
95760,set_tempo,480,1,0,,,,,,,,,,,,467108,,,,,,,
95760,note_on,0,0,2,,,,,,,,,,,,,,,0,,,64,35
95760,control_change,0,0,2,,,,,,,,,,,,,,,0,64,0,,
95760,note_on,240,0,2,,,,,,,,,,,,,,,0,,,58,0
95760,note_on,0,0,2,,,,,,,,,,,,,,,0,,,62,29
95760,note_on,0,0,1,,,,,,,,,,,,,,,0,,,74,62
95760,note_on,120,0,1,,,,,,,,,,,,,,,0,,,76,0
95820,note_on,60,0,1,,,,,,,,,,,,,,,0,,,74,0
96000,note_on,180,0,1,,,,,,,,,,,,,,,0,,,74,62
96000,note_on,240,0,2,,,,,,,,,,,,,,,0,,,64,0
96000,note_on,0,0,2,,,,,,,,,,,,,,,0,,,62,0
96000,note_on,0,0,2,,,,,,,,,,,,,,,0,,,59,29
96000,set_tempo,240,1,0,,,,,,,,,,,,459559,,,,,,,
96060,note_on,60,0,1,,,,,,,,,,,,,,,0,,,74,0
96240,note_on,0,0,2,,,,,,,,,,,,,,,0,,,59,29
96240,note_on,180,0,1,,,,,,,,,,,,,,,0,,,74,60
96240,note_on,240,0,2,,,,,,,,,,,,,,,0,,,59,0
96240,set_tempo,240,1,0,,,,,,,,,,,,480962,,,,,,,
96300,note_on,60,0,1,,,,,,,,,,,,,,,0,,,74,0
96480,note_on,0,0,2,,,,,,,,,,,,,,,0,,,64,35
96480,note_on,240,0,2,,,,,,,,,,,,,,,0,,,59,0
96480,set_tempo,240,1,0,,,,,,,,,,,,474947,,,,,,,
96480,note_on,0,0,2,,,,,,,,,,,,,,,0,,,62,29
96480,note_on,180,0,1,,,,,,,,,,,,,,,0,,,86,62
96540,note_on,60,0,1,,,,,,,,,,,,,,,0,,,86,0
96720,note_on,0,0,2,,,,,,,,,,,,,,,0,,,59,29
96720,note_on,0,0,2,,,,,,,,,,,,,,,0,,,64,0
96720,note_on,240,0,2,,,,,,,,,,,,,,,0,,,62,0
96720,note_on,180,0,1,,,,,,,,,,,,,,,0,,,86,58
96780,note_on,60,0,1,,,,,,,,,,,,,,,0,,,86,0
96960,note_on,0,0,2,,,,,,,,,,,,,,,0,,,59,29
96960,note_on,180,0,1,,,,,,,,,,,,,,,0,,,86,57
96960,set_tempo,480,1,0,,,,,,,,,,,,474608,,,,,,,
96960,note_on,240,0,2,,,,,,,,,,,,,,,0,,,59,0
97020,note_on,60,0,1,,,,,,,,,,,,,,,0,,,86,0
97200,note_on,240,0,2,,,,,,,,,,,,,,,0,,,59,0
97200,note_on,0,0,2,,,,,,,,,,,,,,,0,,,64,30
97200,set_tempo,240,1,0,,,,,,,,,,,,485084,,,,,,,
97200,note_on,0,0,2,,,,,,,,,,,,,,,0,,,62,26
97260,note_on,0,0,2,,,,,,,,,,,,,,,0,,,62,0
97260,note_on,60,0,2,,,,,,,,,,,,,,,0,,,64,0
97440,note_on,180,0,2,,,,,,,,,,,,,,,0,,,59,27
97500,note_on,60,0,2,,,,,,,,,,,,,,,0,,,59,0
97680,note_on,180,0,2,,,,,,,,,,,,,,,0,,,59,27
97680,set_tempo,480,1,0,,,,,,,,,,,,504498,,,,,,,
97740,note_on,60,0,2,,,,,,,,,,,,,,,0,,,59,0
97920,control_change,0,0,2,,,,,,,,,,,,,,,0,64,0,,
97920,note_on,900,0,1,,,,,,,,,,,,,,,0,,,74,63
97920,note_on,0,0,2,,,,,,,,,,,,,,,0,,,62,29
97920,note_on,180,0,2,,,,,,,,,,,,,,,0,,,64,35
97920,set_tempo,240,1,0,,,,,,,,,,,,472962,,,,,,,
98057,control_change,137,0,2,,,,,,,,,,,,,,,0,64,127,,
98160,note_on,103,0,2,,,,,,,,,,,,,,,0,,,62,0
98160,note_on,0,0,2,,,,,,,,,,,,,,,0,,,64,0
98160,note_on,0,0,2,,,,,,,,,,,,,,,0,,,59,29
98160,note_on,0,0,1,,,,,,,,,,,,,,,0,,,74,53
98160,note_on,240,0,1,,,,,,,,,,,,,,,0,,,74,0
98400,note_on,0,0,1,,,,,,,,,,,,,,,0,,,74,53
98400,note_on,0,0,2,,,,,,,,,,,,,,,0,,,59,29
98400,note_on,240,0,2,,,,,,,,,,,,,,,0,,,59,0
98400,note_on,240,0,1,,,,,,,,,,,,,,,0,,,74,0
98640,note_on,240,0,1,,,,,,,,,,,,,,,0,,,74,0
98640,note_on,0,0,1,,,,,,,,,,,,,,,0,,,74,62
98640,set_tempo,720,1,0,,,,,,,,,,,,461432,,,,,,,
98640,control_change,0,0,2,,,,,,,,,,,,,,,0,64,0,,
98640,note_on,0,0,2,,,,,,,,,,,,,,,0,,,62,30
98640,note_on,0,0,2,,,,,,,,,,,,,,,0,,,65,36
98640,note_on,240,0,2,,,,,,,,,,,,,,,0,,,59,0
98686,control_change,46,0,2,,,,,,,,,,,,,,,0,64,127,,
98874,control_change,188,0,2,,,,,,,,,,,,,,,0,64,0,,
98880,note_on,0,0,2,,,,,,,,,,,,,,,0,,,59,29
98880,note_on,6,0,2,,,,,,,,,,,,,,,0,,,65,0
98880,note_on,240,0,1,,,,,,,,,,,,,,,0,,,74,0
98880,note_on,0,0,1,,,,,,,,,,,,,,,0,,,77,53
98880,note_on,0,0,2,,,,,,,,,,,,,,,0,,,62,0
98880,set_tempo,240,1,0,,,,,,,,,,,,457701,,,,,,,
98914,control_change,34,0,2,,,,,,,,,,,,,,,0,64,127,,
99000,note_on,0,0,1,,,,,,,,,,,,,,,0,,,76,53
99000,note_on,120,0,1,,,,,,,,,,,,,,,0,,,77,0
99120,note_on,0,0,2,,,,,,,,,,,,,,,0,,,59,29
99120,note_on,0,0,1,,,,,,,,,,,,,,,0,,,74,56
99120,note_on,120,0,1,,,,,,,,,,,,,,,0,,,76,0
99120,note_on,206,0,2,,,,,,,,,,,,,,,0,,,59,0
99240,note_on,0,0,1,,,,,,,,,,,,,,,0,,,77,57
99240,note_on,120,0,1,,,,,,,,,,,,,,,0,,,74,0
99360,note_on,120,0,1,,,,,,,,,,,,,,,0,,,77,0
99360,note_on,0,0,1,,,,,,,,,,,,,,,0,,,74,62
99360,note_on,240,0,2,,,,,,,,,,,,,,,0,,,59,0
99360,control_change,0,0,2,,,,,,,,,,,,,,,0,64,0,,
99360,note_on,0,0,2,,,,,,,,,,,,,,,0,,,62,29
99360,note_on,0,0,2,,,,,,,,,,,,,,,0,,,65,35
99360,set_tempo,480,1,0,,,,,,,,,,,,469043,,,,,,,
99420,note_on,60,0,1,,,,,,,,,,,,,,,0,,,74,0
99600,note_on,180,0,1,,,,,,,,,,,,,,,0,,,74,62
99600,note_on,240,0,2,,,,,,,,,,,,,,,0,,,65,0
99600,note_on,0,0,2,,,,,,,,,,,,,,,0,,,62,0
99600,note_on,0,0,2,,,,,,,,,,,,,,,0,,,59,29
99600,set_tempo,240,1,0,,,,,,,,,,,,455858,,,,,,,
99660,note_on,60,0,1,,,,,,,,,,,,,,,0,,,74,0
99840,set_tempo,240,1,0,,,,,,,,,,,,502260,,,,,,,
99840,note_on,0,0,2,,,,,,,,,,,,,,,0,,,59,29
99840,note_on,240,0,2,,,,,,,,,,,,,,,0,,,59,0
99840,note_on,180,0,1,,,,,,,,,,,,,,,0,,,74,62
99900,note_on,60,0,1,,,,,,,,,,,,,,,0,,,74,0
100080,set_tempo,240,1,0,,,,,,,,,,,,483014,,,,,,,
100080,note_on,0,0,2,,,,,,,,,,,,,,,0,,,62,29
100080,note_on,0,0,2,,,,,,,,,,,,,,,0,,,65,35
100080,note_on,240,0,2,,,,,,,,,,,,,,,0,,,59,0
100080,note_on,180,0,1,,,,,,,,,,,,,,,0,,,86,62
100140,note_on,60,0,1,,,,,,,,,,,,,,,0,,,86,0
100320,note_on,180,0,1,,,,,,,,,,,,,,,0,,,86,58
100320,note_on,240,0,2,,,,,,,,,,,,,,,0,,,62,0
100320,note_on,0,0,2,,,,,,,,,,,,,,,0,,,59,29
100320,note_on,0,0,2,,,,,,,,,,,,,,,0,,,65,0
100320,set_tempo,240,1,0,,,,,,,,,,,,491400,,,,,,,
100380,note_on,60,0,1,,,,,,,,,,,,,,,0,,,86,0
100560,set_tempo,240,1,0,,,,,,,,,,,,502260,,,,,,,
100560,note_on,180,0,1,,,,,,,,,,,,,,,0,,,86,57
100560,note_on,0,0,2,,,,,,,,,,,,,,,0,,,59,29
100560,note_on,240,0,2,,,,,,,,,,,,,,,0,,,59,0
100620,note_on,60,0,1,,,,,,,,,,,,,,,0,,,86,0
100800,note_on,180,0,1,,,,,,,,,,,,,,,0,,,74,66
100800,note_on,0,0,2,,,,,,,,,,,,,,,0,,,62,38
100800,note_on,240,0,2,,,,,,,,,,,,,,,0,,,59,0
100800,set_tempo,240,1,0,,,,,,,,,,,,467108,,,,,,,
100800,note_on,0,0,2,,,,,,,,,,,,,,,0,,,59,31
100880,control_change,80,0,2,,,,,,,,,,,,,,,0,64,127,,
100920,note_on,0,0,2,,,,,,,,,,,,,,,0,,,59,0
100920,note_on,0,0,2,,,,,,,,,,,,,,,0,,,65,31
100920,note_on,40,0,2,,,,,,,,,,,,,,,0,,,62,0
101040,note_on,0,0,2,,,,,,,,,,,,,,,0,,,62,33
101040,note_on,0,0,2,,,,,,,,,,,,,,,0,,,59,27
101040,note_on,120,0,2,,,,,,,,,,,,,,,0,,,65,0
101040,note_on,0,0,1,,,,,,,,,,,,,,,0,,,73,62
101040,note_on,240,0,1,,,,,,,,,,,,,,,0,,,74,0
101057,control_change,17,0,2,,,,,,,,,,,,,,,0,64,0,,
101091,control_change,34,0,2,,,,,,,,,,,,,,,0,64,127,,
101160,note_on,0,0,2,,,,,,,,,,,,,,,0,,,65,31
101160,note_on,0,0,2,,,,,,,,,,,,,,,0,,,62,0
101160,note_on,69,0,2,,,,,,,,,,,,,,,0,,,59,0
101257,control_change,97,0,2,,,,,,,,,,,,,,,0,64,0,,
101280,note_on,23,0,2,,,,,,,,,,,,,,,0,,,65,0
101280,set_tempo,480,1,0,,,,,,,,,,,,478965,,,,,,,
101280,note_on,0,0,2,,,,,,,,,,,,,,,0,,,59,27
101280,note_on,0,0,1,,,,,,,,,,,,,,,0,,,74,62
101280,note_on,240,0,1,,,,,,,,,,,,,,,0,,,73,0
101280,note_on,0,0,2,,,,,,,,,,,,,,,0,,,62,33
101297,control_change,17,0,2,,,,,,,,,,,,,,,0,64,127,,
101400,note_on,103,0,2,,,,,,,,,,,,,,,0,,,59,0
101400,note_on,0,0,2,,,,,,,,,,,,,,,0,,,62,0
101400,note_on,0,0,2,,,,,,,,,,,,,,,0,,,65,31
101520,note_on,120,0,2,,,,,,,,,,,,,,,0,,,65,0
101520,note_on,0,0,2,,,,,,,,,,,,,,,0,,,58,31
101520,note_on,0,0,2,,,,,,,,,,,,,,,0,,,62,38
101520,control_change,0,0,2,,,,,,,,,,,,,,,0,64,0,,
101520,set_tempo,240,1,0,,,,,,,,,,,,465224,,,,,,,
101520,note_on,0,0,1,,,,,,,,,,,,,,,0,,,86,66
101520,note_on,240,0,1,,,,,,,,,,,,,,,0,,,74,0
101560,control_change,40,0,2,,,,,,,,,,,,,,,0,64,127,,
101640,note_on,80,0,2,,,,,,,,,,,,,,,0,,,62,0
101640,note_on,0,0,2,,,,,,,,,,,,,,,0,,,58,0
101640,note_on,0,0,2,,,,,,,,,,,,,,,0,,,65,31
101760,note_on,0,0,2,,,,,,,,,,,,,,,0,,,58,27
101760,note_on,0,0,1,,,,,,,,,,,,,,,0,,,85,62
101760,note_on,240,0,1,,,,,,,,,,,,,,,0,,,86,0
101760,note_on,0,0,2,,,,,,,,,,,,,,,0,,,62,33
101760,note_on,120,0,2,,,,,,,,,,,,,,,0,,,65,0
101795,control_change,35,0,2,,,,,,,,,,,,,,,0,64,0,,
101816,control_change,21,0,2,,,,,,,,,,,,,,,0,64,127,,
101880,note_on,64,0,2,,,,,,,,,,,,,,,0,,,58,0
101880,note_on,0,0,2,,,,,,,,,,,,,,,0,,,62,0
101880,note_on,0,0,2,,,,,,,,,,,,,,,0,,,65,31
102000,note_on,0,0,1,,,,,,,,,,,,,,,0,,,86,62
102000,note_on,240,0,1,,,,,,,,,,,,,,,0,,,85,0
102000,note_on,120,0,2,,,,,,,,,,,,,,,0,,,65,0
102000,control_change,0,0,2,,,,,,,,,,,,,,,0,64,0,,
102000,note_on,0,0,2,,,,,,,,,,,,,,,0,,,62,33
102000,note_on,0,0,2,,,,,,,,,,,,,,,0,,,58,27
102000,set_tempo,480,1,0,,,,,,,,,,,,478965,,,,,,,
102021,control_change,21,0,2,,,,,,,,,,,,,,,0,64,127,,
102120,note_on,0,0,2,,,,,,,,,,,,,,,0,,,65,31
102120,note_on,99,0,2,,,,,,,,,,,,,,,0,,,58,0
102120,note_on,0,0,2,,,,,,,,,,,,,,,0,,,62,0
102240,control_change,0,0,2,,,,,,,,,,,,,,,0,64,0,,
102240,note_on,0,0,2,,,,,,,,,,,,,,,0,,,58,37
102240,note_on,120,0,2,,,,,,,,,,,,,,,0,,,65,0
102240,note_on,0,0,2,,,,,,,,,,,,,,,0,,,62,45
102240,note_on,240,0,1,,,,,,,,,,,,,,,0,,,86,0
102240,note_on,0,0,1,,,,,,,,,,,,,,,0,,,82,64
102240,set_tempo,240,1,0,,,,,,,,,,,,461787,,,,,,,
102311,control_change,71,0,2,,,,,,,,,,,,,,,0,64,127,,
102360,note_on,49,0,2,,,,,,,,,,,,,,,0,,,62,0
102360,note_on,0,0,2,,,,,,,,,,,,,,,0,,,58,0
102360,note_on,0,0,2,,,,,,,,,,,,,,,0,,,65,30
102480,note_on,0,0,1,,,,,,,,,,,,,,,0,,,81,56
102480,note_on,120,0,2,,,,,,,,,,,,,,,0,,,65,0
102480,note_on,0,0,2,,,,,,,,,,,,,,,0,,,58,29
102480,note_on,0,0,2,,,,,,,,,,,,,,,0,,,62,35
102480,note_on,240,0,1,,,,,,,,,,,,,,,0,,,82,0
102536,control_change,56,0,2,,,,,,,,,,,,,,,0,64,0,,
102551,control_change,15,0,2,,,,,,,,,,,,,,,0,64,127,,
102600,note_on,49,0,2,,,,,,,,,,,,,,,0,,,62,0
102600,note_on,0,0,2,,,,,,,,,,,,,,,0,,,58,0
102600,note_on,0,0,2,,,,,,,,,,,,,,,0,,,65,29
102720,note_on,0,0,2,,,,,,,,,,,,,,,0,,,62,35
102720,note_on,0,0,2,,,,,,,,,,,,,,,0,,,58,29
102720,note_on,120,0,2,,,,,,,,,,,,,,,0,,,65,0
102720,note_on,0,0,1,,,,,,,,,,,,,,,0,,,82,57
102720,note_on,240,0,1,,,,,,,,,,,,,,,0,,,81,0
102741,control_change,21,0,2,,,,,,,,,,,,,,,0,64,0,,
102755,control_change,14,0,2,,,,,,,,,,,,,,,0,64,127,,
102840,note_on,85,0,2,,,,,,,,,,,,,,,0,,,62,0
102840,note_on,0,0,2,,,,,,,,,,,,,,,0,,,58,0
102840,note_on,0,0,2,,,,,,,,,,,,,,,0,,,65,30
102960,note_on,0,0,1,,,,,,,,,,,,,,,0,,,79,61
102960,set_tempo,720,1,0,,,,,,,,,,,,456274,,,,,,,
102960,control_change,0,0,2,,,,,,,,,,,,,,,0,64,0,,
102960,note_on,0,0,2,,,,,,,,,,,,,,,0,,,58,35
102960,note_on,120,0,2,,,,,,,,,,,,,,,0,,,65,0
102960,note_on,0,0,2,,,,,,,,,,,,,,,0,,,63,41
102960,note_on,240,0,1,,,,,,,,,,,,,,,0,,,82,0
103009,control_change,49,0,2,,,,,,,,,,,,,,,0,64,127,,
103080,note_on,0,0,2,,,,,,,,,,,,,,,0,,,58,0
103080,note_on,71,0,2,,,,,,,,,,,,,,,0,,,63,0
103080,note_on,0,0,2,,,,,,,,,,,,,,,0,,,67,31
103200,note_on,240,0,1,,,,,,,,,,,,,,,0,,,79,0
103200,note_on,0,0,1,,,,,,,,,,,,,,,0,,,81,57
103200,set_tempo,240,1,0,,,,,,,,,,,,452625,,,,,,,
103200,note_on,0,0,2,,,,,,,,,,,,,,,0,,,63,36
103200,note_on,0,0,2,,,,,,,,,,,,,,,0,,,58,30
103200,note_on,120,0,2,,,,,,,,,,,,,,,0,,,67,0
103264,control_change,64,0,2,,,,,,,,,,,,,,,0,64,0,,
103278,control_change,14,0,2,,,,,,,,,,,,,,,0,64,127,,
103320,note_on,120,0,1,,,,,,,,,,,,,,,0,,,81,0
103320,note_on,42,0,2,,,,,,,,,,,,,,,0,,,63,0
103320,note_on,0,0,2,,,,,,,,,,,,,,,0,,,58,0
103320,note_on,0,0,2,,,,,,,,,,,,,,,0,,,67,30
103320,note_on,0,0,1,,,,,,,,,,,,,,,0,,,82,58
103440,note_on,120,0,2,,,,,,,,,,,,,,,0,,,67,0
103440,note_on,120,0,1,,,,,,,,,,,,,,,0,,,82,0
103440,note_on,0,0,1,,,,,,,,,,,,,,,0,,,84,61
103440,note_on,0,0,2,,,,,,,,,,,,,,,0,,,58,30
103440,note_on,0,0,2,,,,,,,,,,,,,,,0,,,63,36
103560,note_on,0,0,1,,,,,,,,,,,,,,,0,,,86,62
103560,note_on,120,0,2,,,,,,,,,,,,,,,0,,,63,0
103560,note_on,120,0,1,,,,,,,,,,,,,,,0,,,84,0
103560,note_on,0,0,2,,,,,,,,,,,,,,,0,,,67,30
103560,note_on,0,0,2,,,,,,,,,,,,,,,0,,,58,0
103680,note_on,120,0,1,,,,,,,,,,,,,,,0,,,86,0
103680,note_on,120,0,2,,,,,,,,,,,,,,,0,,,67,0
103680,set_tempo,480,1,0,,,,,,,,,,,,462999,,,,,,,
103680,note_on,0,0,2,,,,,,,,,,,,,,,0,,,62,51
103680,note_on,0,0,2,,,,,,,,,,,,,,,0,,,58,42
103680,control_change,0,0,2,,,,,,,,,,,,,,,0,64,0,,
103680,note_on,0,0,1,,,,,,,,,,,,,,,0,,,82,68
103729,control_change,49,0,2,,,,,,,,,,,,,,,0,64,127,,
103800,note_on,0,0,2,,,,,,,,,,,,,,,0,,,65,33
103800,note_on,0,0,2,,,,,,,,,,,,,,,0,,,58,0
103800,note_on,71,0,2,,,,,,,,,,,,,,,0,,,62,0
103920,note_on,0,0,1,,,,,,,,,,,,,,,0,,,84,69
103920,set_tempo,240,1,0,,,,,,,,,,,,457457,,,,,,,
103920,note_on,0,0,2,,,,,,,,,,,,,,,0,,,58,30
103920,note_on,0,0,2,,,,,,,,,,,,,,,0,,,62,37
103920,note_on,120,0,2,,,,,,,,,,,,,,,0,,,65,0
103920,note_on,240,0,1,,,,,,,,,,,,,,,0,,,82,0
103941,control_change,21,0,2,,,,,,,,,,,,,,,0,64,0,,
103976,control_change,35,0,2,,,,,,,,,,,,,,,0,64,127,,
104040,note_on,0,0,1,,,,,,,,,,,,,,,0,,,82,60
104040,note_on,64,0,2,,,,,,,,,,,,,,,0,,,58,0
104040,note_on,0,0,2,,,,,,,,,,,,,,,0,,,62,0
104040,note_on,0,0,2,,,,,,,,,,,,,,,0,,,65,31
104040,note_on,120,0,1,,,,,,,,,,,,,,,0,,,84,0
104160,note_on,0,0,1,,,,,,,,,,,,,,,0,,,81,66
104160,note_on,0,0,2,,,,,,,,,,,,,,,0,,,62,38
104160,note_on,120,0,1,,,,,,,,,,,,,,,0,,,82,0
104160,note_on,0,0,2,,,,,,,,,,,,,,,0,,,58,31
104160,note_on,120,0,2,,,,,,,,,,,,,,,0,,,65,0
104280,note_on,0,0,2,,,,,,,,,,,,,,,0,,,58,0
104280,note_on,120,0,2,,,,,,,,,,,,,,,0,,,62,0
104280,note_on,0,0,1,,,,,,,,,,,,,,,0,,,79,61
104280,note_on,120,0,1,,,,,,,,,,,,,,,0,,,81,0
104280,note_on,0,0,2,,,,,,,,,,,,,,,0,,,65,31
104400,note_on,0,0,2,,,,,,,,,,,,,,,0,,,63,46
104400,note_on,120,0,2,,,,,,,,,,,,,,,0,,,65,0
104400,note_on,0,0,2,,,,,,,,,,,,,,,0,,,57,38
104400,note_on,120,0,1,,,,,,,,,,,,,,,0,,,79,0
104400,note_on,0,0,1,,,,,,,,,,,,,,,0,,,77,72
104400,set_tempo,480,1,0,,,,,,,,,,,,468713,,,,,,,
104428,control_change,28,0,2,,,,,,,,,,,,,,,0,64,0,,
104460,note_on,60,0,1,,,,,,,,,,,,,,,0,,,77,0
104520,note_on,92,0,2,,,,,,,,,,,,,,,0,,,63,0
104520,note_on,0,0,2,,,,,,,,,,,,,,,0,,,57,0
104520,note_on,0,0,2,,,,,,,,,,,,,,,0,,,65,34
104640,note_on,180,0,1,,,,,,,,,,,,,,,0,,,77,67
104640,note_on,0,0,2,,,,,,,,,,,,,,,0,,,63,38
104640,note_on,0,0,2,,,,,,,,,,,,,,,0,,,57,31
104640,note_on,120,0,2,,,,,,,,,,,,,,,0,,,65,0
104700,note_on,60,0,1,,,,,,,,,,,,,,,0,,,77,0
104760,note_on,0,0,2,,,,,,,,,,,,,,,0,,,65,35
104760,note_on,0,0,2,,,,,,,,,,,,,,,0,,,57,0
104760,note_on,120,0,2,,,,,,,,,,,,,,,0,,,63,0
104880,note_on,120,0,2,,,,,,,,,,,,,,,0,,,65,0
104880,note_on,0,0,2,,,,,,,,,,,,,,,0,,,57,33
104880,set_tempo,480,1,0,,,,,,,,,,,,479693,,,,,,,
104880,note_on,0,0,2,,,,,,,,,,,,,,,0,,,63,39
104880,note_on,180,0,1,,,,,,,,,,,,,,,0,,,77,67
104940,note_on,60,0,1,,,,,,,,,,,,,,,0,,,77,0
105000,note_on,0,0,2,,,,,,,,,,,,,,,0,,,65,34
105000,note_on,0,0,2,,,,,,,,,,,,,,,0,,,57,0
105000,note_on,120,0,2,,,,,,,,,,,,,,,0,,,63,0
105120,set_tempo,240,1,0,,,,,,,,,,,,468640,,,,,,,
105120,note_on,120,0,2,,,,,,,,,,,,,,,0,,,65,0
105120,note_on,0,0,2,,,,,,,,,,,,,,,0,,,57,42
105120,note_on,0,0,2,,,,,,,,,,,,,,,0,,,63,50
105120,note_on,180,0,1,,,,,,,,,,,,,,,0,,,78,82
105189,control_change,69,0,2,,,,,,,,,,,,,,,0,64,127,,
105240,note_on,0,0,2,,,,,,,,,,,,,,,0,,,57,0
105240,note_on,51,0,2,,,,,,,,,,,,,,,0,,,63,0
105240,note_on,0,0,2,,,,,,,,,,,,,,,0,,,66,35
105360,note_on,240,0,1,,,,,,,,,,,,,,,0,,,78,0
105360,note_on,0,0,1,,,,,,,,,,,,,,,0,,,90,78
105360,note_on,0,0,2,,,,,,,,,,,,,,,0,,,63,40
105360,note_on,120,0,2,,,,,,,,,,,,,,,0,,,66,0
105360,note_on,0,0,2,,,,,,,,,,,,,,,0,,,57,34
105480,note_on,0,0,2,,,,,,,,,,,,,,,0,,,66,35
105480,note_on,0,0,2,,,,,,,,,,,,,,,0,,,57,0
105480,note_on,120,0,2,,,,,,,,,,,,,,,0,,,63,0
105596,control_change,116,0,2,,,,,,,,,,,,,,,0,64,0,,
105600,set_tempo,480,1,0,,,,,,,,,,,,477783,,,,,,,
105600,note_on,4,0,2,,,,,,,,,,,,,,,0,,,66,0
105600,note_on,0,0,1,,,,,,,,,,,,,,,0,,,90,79
105600,note_on,240,0,1,,,,,,,,,,,,,,,0,,,90,0
105600,note_on,0,0,2,,,,,,,,,,,,,,,0,,,57,34
105600,note_on,0,0,2,,,,,,,,,,,,,,,0,,,63,40
105660,note_on,60,0,1,,,,,,,,,,,,,,,0,,,90,0
105720,note_on,0,0,2,,,,,,,,,,,,,,,0,,,66,36
105720,note_on,0,0,2,,,,,,,,,,,,,,,0,,,57,0
105720,note_on,120,0,2,,,,,,,,,,,,,,,0,,,63,0
105840,note_on,0,0,2,,,,,,,,,,,,,,,0,,,63,48
105840,note_on,0,0,2,,,,,,,,,,,,,,,0,,,58,40
105840,set_tempo,240,1,0,,,,,,,,,,,,468640,,,,,,,
105840,note_on,120,0,2,,,,,,,,,,,,,,,0,,,66,0
105840,note_on,180,0,1,,,,,,,,,,,,,,,0,,,91,90
105960,note_on,120,0,2,,,,,,,,,,,,,,,0,,,63,0
105960,note_on,0,0,2,,,,,,,,,,,,,,,0,,,58,0
105960,note_on,0,0,2,,,,,,,,,,,,,,,0,,,67,36
105967,control_change,7,0,2,,,,,,,,,,,,,,,0,64,127,,
106080,note_on,240,0,1,,,,,,,,,,,,,,,0,,,91,0
106080,note_on,0,0,1,,,,,,,,,,,,,,,0,,,79,72
106080,note_on,113,0,2,,,,,,,,,,,,,,,0,,,67,0
106080,note_on,0,0,2,,,,,,,,,,,,,,,0,,,58,35
106080,note_on,0,0,2,,,,,,,,,,,,,,,0,,,63,41
106200,note_on,0,0,2,,,,,,,,,,,,,,,0,,,58,0
106200,note_on,0,0,2,,,,,,,,,,,,,,,0,,,67,36
106200,note_on,120,0,2,,,,,,,,,,,,,,,0,,,63,0
106320,note_on,240,0,1,,,,,,,,,,,,,,,0,,,79,0
106320,note_on,0,0,1,,,,,,,,,,,,,,,0,,,79,72
106320,note_on,120,0,2,,,,,,,,,,,,,,,0,,,67,0
106320,note_on,0,0,2,,,,,,,,,,,,,,,0,,,58,35
106320,note_on,0,0,2,,,,,,,,,,,,,,,0,,,63,41
106338,control_change,18,0,2,,,,,,,,,,,,,,,0,64,0,,
106380,note_on,60,0,1,,,,,,,,,,,,,,,0,,,79,0
106440,note_on,0,0,2,,,,,,,,,,,,,,,0,,,67,36
106440,note_on,0,0,2,,,,,,,,,,,,,,,0,,,58,0
106440,note_on,102,0,2,,,,,,,,,,,,,,,0,,,63,0
106560,note_on,0,0,2,,,,,,,,,,,,,,,0,,,63,50
106560,note_on,0,0,2,,,,,,,,,,,,,,,0,,,60,42
106560,note_on,120,0,2,,,,,,,,,,,,,,,0,,,67,0
106560,note_on,180,0,1,,,,,,,,,,,,,,,0,,,81,77
106609,control_change,49,0,2,,,,,,,,,,,,,,,0,64,127,,
106620,note_on,60,0,1,,,,,,,,,,,,,,,0,,,81,0
106680,note_on,0,0,2,,,,,,,,,,,,,,,0,,,67,37
106680,note_on,0,0,2,,,,,,,,,,,,,,,0,,,60,0
106680,note_on,71,0,2,,,,,,,,,,,,,,,0,,,63,0
106754,control_change,74,0,2,,,,,,,,,,,,,,,0,64,0,,
106768,control_change,14,0,2,,,,,,,,,,,,,,,0,64,127,,
106770,note_on,150,0,1,,,,,,,,,,,,,,,0,,,94,73
106800,note_on,30,0,1,,,,,,,,,,,,,,,0,,,94,0
106800,set_tempo,960,1,0,,,,,,,,,,,,457457,,,,,,,
106800,note_on,0,0,1,,,,,,,,,,,,,,,0,,,93,77
106800,note_on,0,0,2,,,,,,,,,,,,,,,0,,,60,36
106800,note_on,32,0,2,,,,,,,,,,,,,,,0,,,67,0
106800,note_on,0,0,2,,,,,,,,,,,,,,,0,,,63,42
106920,note_on,0,0,1,,,,,,,,,,,,,,,0,,,91,74
106920,note_on,120,0,1,,,,,,,,,,,,,,,0,,,93,0
106920,note_on,120,0,2,,,,,,,,,,,,,,,0,,,63,0
106920,note_on,0,0,2,,,,,,,,,,,,,,,0,,,60,0
106920,note_on,0,0,2,,,,,,,,,,,,,,,0,,,67,37
107040,note_on,0,0,1,,,,,,,,,,,,,,,0,,,93,78
107040,set_tempo,240,1,0,,,,,,,,,,,,462999,,,,,,,
107040,note_on,0,0,2,,,,,,,,,,,,,,,0,,,60,37
107040,note_on,0,0,2,,,,,,,,,,,,,,,0,,,63,44
107040,note_on,120,0,1,,,,,,,,,,,,,,,0,,,91,0
107040,note_on,120,0,2,,,,,,,,,,,,,,,0,,,67,0
107160,note_on,120,0,2,,,,,,,,,,,,,,,0,,,63,0
107160,note_on,0,0,2,,,,,,,,,,,,,,,0,,,60,0
107160,note_on,0,0,2,,,,,,,,,,,,,,,0,,,67,38
107280,note_on,240,0,1,,,,,,,,,,,,,,,0,,,93,0
107280,note_on,0,0,1,,,,,,,,,,,,,,,0,,,94,81
107280,note_on,120,0,2,,,,,,,,,,,,,,,0,,,67,0
107280,note_on,0,0,2,,,,,,,,,,,,,,,0,,,62,51
107280,note_on,0,0,2,,,,,,,,,,,,,,,0,,,55,42
107280,control_change,0,0,2,,,,,,,,,,,,,,,0,64,0,,
107333,control_change,53,0,2,,,,,,,,,,,,,,,0,64,127,,
107340,note_on,60,0,1,,,,,,,,,,,,,,,0,,,94,0
107400,note_on,0,0,2,,,,,,,,,,,,,,,0,,,67,38
107400,note_on,0,0,2,,,,,,,,,,,,,,,0,,,55,0
107400,note_on,67,0,2,,,,,,,,,,,,,,,0,,,62,0
107490,note_on,150,0,1,,,,,,,,,,,,,,,0,,,84,72
107506,control_change,106,0,2,,,,,,,,,,,,,,,0,64,0,,
107520,note_on,30,0,1,,,,,,,,,,,,,,,0,,,84,0
107520,note_on,14,0,2,,,,,,,,,,,,,,,0,,,67,0
107520,note_on,0,0,2,,,,,,,,,,,,,,,0,,,55,37
107520,set_tempo,480,1,0,,,,,,,,,,,,457457,,,,,,,
107520,note_on,0,0,2,,,,,,,,,,,,,,,0,,,62,44
107520,note_on,0,0,1,,,,,,,,,,,,,,,0,,,82,75
107524,control_change,4,0,2,,,,,,,,,,,,,,,0,64,127,,
107640,note_on,120,0,1,,,,,,,,,,,,,,,0,,,82,0
107640,note_on,116,0,2,,,,,,,,,,,,,,,0,,,62,0
107640,note_on,0,0,2,,,,,,,,,,,,,,,0,,,55,0
107640,note_on,0,0,2,,,,,,,,,,,,,,,0,,,67,38
107640,note_on,0,0,1,,,,,,,,,,,,,,,0,,,81,71
107760,note_on,0,0,1,,,,,,,,,,,,,,,0,,,82,77
107760,set_tempo,240,1,0,,,,,,,,,,,,489317,,,,,,,
107760,note_on,0,0,2,,,,,,,,,,,,,,,0,,,62,44
107760,note_on,120,0,2,,,,,,,,,,,,,,,0,,,67,0
107760,note_on,0,0,2,,,,,,,,,,,,,,,0,,,55,37
107760,note_on,120,0,1,,,,,,,,,,,,,,,0,,,81,0
107880,note_on,120,0,2,,,,,,,,,,,,,,,0,,,62,0
107880,note_on,0,0,2,,,,,,,,,,,,,,,0,,,55,0
107880,note_on,0,0,2,,,,,,,,,,,,,,,0,,,67,39
107880,note_on,120,0,1,,,,,,,,,,,,,,,0,,,82,0
108000,set_tempo,240,1,0,,,,,,,,,,,,470404,,,,,,,
108000,note_on,120,0,1,,,,,,,,,,,,,,,0,,,75,52
108000,note_on,0,0,1,,,,,,,,,,,,,,,0,,,79,62
108000,control_change,0,0,2,,,,,,,,,,,,,,,0,64,0,,
108000,note_on,120,0,2,,,,,,,,,,,,,,,0,,,67,0
108000,note_on,0,0,2,,,,,,,,,,,,,,,0,,,63,73
108120,note_on,0,0,1,,,,,,,,,,,,,,,0,,,82,55
108120,note_on,0,0,1,,,,,,,,,,,,,,,0,,,75,0
108120,note_on,120,0,1,,,,,,,,,,,,,,,0,,,79,0
108240,note_on,240,0,2,,,,,,,,,,,,,,,0,,,63,0
108240,note_on,0,0,2,,,,,,,,,,,,,,,0,,,62,62
108240,note_on,0,0,1,,,,,,,,,,,,,,,0,,,79,63
108240,note_on,0,0,1,,,,,,,,,,,,,,,0,,,75,53
108240,note_on,120,0,1,,,,,,,,,,,,,,,0,,,82,0
108360,note_on,0,0,1,,,,,,,,,,,,,,,0,,,82,53
108360,note_on,120,0,1,,,,,,,,,,,,,,,0,,,79,0
108360,note_on,0,0,1,,,,,,,,,,,,,,,0,,,75,0
108480,note_on,0,0,2,,,,,,,,,,,,,,,0,,,63,62
108480,note_on,240,0,2,,,,,,,,,,,,,,,0,,,62,0
108480,note_on,0,0,1,,,,,,,,,,,,,,,0,,,79,63
108480,note_on,120,0,1,,,,,,,,,,,,,,,0,,,82,0
108480,note_on,0,0,1,,,,,,,,,,,,,,,0,,,75,53
108600,note_on,0,0,1,,,,,,,,,,,,,,,0,,,82,55
108600,note_on,0,0,1,,,,,,,,,,,,,,,0,,,75,0
108600,note_on,120,0,1,,,,,,,,,,,,,,,0,,,79,0
108720,note_on,0,0,1,,,,,,,,,,,,,,,0,,,79,64
108720,note_on,0,0,1,,,,,,,,,,,,,,,0,,,75,55
108720,note_on,120,0,1,,,,,,,,,,,,,,,0,,,82,0
108720,set_tempo,720,1,0,,,,,,,,,,,,461113,,,,,,,
108720,note_on,240,0,2,,,,,,,,,,,,,,,0,,,63,0
108720,note_on,0,0,2,,,,,,,,,,,,,,,0,,,60,73
108840,note_on,120,0,1,,,,,,,,,,,,,,,0,,,79,0
108840,note_on,0,0,1,,,,,,,,,,,,,,,0,,,84,55
108840,note_on,0,0,1,,,,,,,,,,,,,,,0,,,75,0
108960,note_on,120,0,1,,,,,,,,,,,,,,,0,,,84,0
108960,note_on,0,0,1,,,,,,,,,,,,,,,0,,,75,53
108960,note_on,0,0,1,,,,,,,,,,,,,,,0,,,79,63
108960,note_on,0,0,2,,,,,,,,,,,,,,,0,,,62,59
108960,set_tempo,240,1,0,,,,,,,,,,,,457457,,,,,,,
108960,note_on,240,0,2,,,,,,,,,,,,,,,0,,,60,0
109080,note_on,120,0,2,,,,,,,,,,,,,,,0,,,62,0
109080,note_on,0,0,2,,,,,,,,,,,,,,,0,,,63,59
109080,note_on,120,0,1,,,,,,,,,,,,,,,0,,,79,0
109080,note_on,0,0,1,,,,,,,,,,,,,,,0,,,75,0
109080,note_on,0,0,1,,,,,,,,,,,,,,,0,,,84,53
109200,note_on,0,0,1,,,,,,,,,,,,,,,0,,,79,63
109200,note_on,0,0,1,,,,,,,,,,,,,,,0,,,75,53
109200,note_on,120,0,1,,,,,,,,,,,,,,,0,,,84,0
109200,note_on,0,0,2,,,,,,,,,,,,,,,0,,,65,62
109200,note_on,120,0,2,,,,,,,,,,,,,,,0,,,63,0
109320,note_on,0,0,1,,,,,,,,,,,,,,,0,,,84,53
109320,note_on,0,0,1,,,,,,,,,,,,,,,0,,,75,0
109320,note_on,120,0,1,,,,,,,,,,,,,,,0,,,79,0
109320,note_on,0,0,2,,,,,,,,,,,,,,,0,,,67,62
109320,note_on,120,0,2,,,,,,,,,,,,,,,0,,,65,0
109440,note_on,120,0,1,,,,,,,,,,,,,,,0,,,84,0
109440,note_on,120,0,2,,,,,,,,,,,,,,,0,,,67,0
109440,note_on,0,0,1,,,,,,,,,,,,,,,0,,,79,68
109440,set_tempo,480,1,0,,,,,,,,,,,,462999,,,,,,,
109440,note_on,0,0,1,,,,,,,,,,,,,,,0,,,75,57
109440,note_on,0,0,2,,,,,,,,,,,,,,,0,,,63,71
109560,note_on,0,0,1,,,,,,,,,,,,,,,0,,,82,55
109560,note_on,0,0,1,,,,,,,,,,,,,,,0,,,75,0
109560,note_on,120,0,1,,,,,,,,,,,,,,,0,,,79,0
109680,set_tempo,240,1,0,,,,,,,,,,,,457457,,,,,,,
109680,note_on,120,0,1,,,,,,,,,,,,,,,0,,,82,0
109680,note_on,0,0,2,,,,,,,,,,,,,,,0,,,65,68
109680,note_on,240,0,2,,,,,,,,,,,,,,,0,,,63,0
109680,note_on,0,0,1,,,,,,,,,,,,,,,0,,,79,63
109680,note_on,0,0,1,,,,,,,,,,,,,,,0,,,75,53
109800,note_on,120,0,1,,,,,,,,,,,,,,,0,,,75,0
109800,note_on,0,0,1,,,,,,,,,,,,,,,0,,,79,0
109800,note_on,0,0,1,,,,,,,,,,,,,,,0,,,82,53
109800,note_on,120,0,2,,,,,,,,,,,,,,,0,,,65,0
109800,note_on,0,0,2,,,,,,,,,,,,,,,0,,,63,62
109920,note_on,120,0,1,,,,,,,,,,,,,,,0,,,82,0
109920,note_on,0,0,1,,,,,,,,,,,,,,,0,,,75,53
109920,note_on,0,0,1,,,,,,,,,,,,,,,0,,,79,63
109920,note_on,0,0,2,,,,,,,,,,,,,,,0,,,62,68
109920,note_on,120,0,2,,,,,,,,,,,,,,,0,,,63,0
110040,note_on,0,0,1,,,,,,,,,,,,,,,0,,,82,53
110040,note_on,120,0,1,,,,,,,,,,,,,,,0,,,79,0
110040,note_on,0,0,1,,,,,,,,,,,,,,,0,,,75,0
110040,note_on,0,0,2,,,,,,,,,,,,,,,0,,,60,62
110040,note_on,120,0,2,,,,,,,,,,,,,,,0,,,62,0
110160,note_on,120,0,1,,,,,,,,,,,,,,,0,,,82,0
110160,note_on,0,0,1,,,,,,,,,,,,,,,0,,,74,61
110160,note_on,0,0,1,,,,,,,,,,,,,,,0,,,80,72
110160,note_on,0,0,2,,,,,,,,,,,,,,,0,,,58,72
110160,note_on,120,0,2,,,,,,,,,,,,,,,0,,,60,0
110160,set_tempo,480,1,0,,,,,,,,,,,,468713,,,,,,,
110220,note_on,60,0,2,,,,,,,,,,,,,,,0,,,58,0
110280,note_on,120,0,1,,,,,,,,,,,,,,,0,,,80,0
110280,note_on,0,0,1,,,,,,,,,,,,,,,0,,,74,0
110280,note_on,0,0,1,,,,,,,,,,,,,,,0,,,82,55
110400,note_on,0,0,1,,,,,,,,,,,,,,,0,,,74,53
110400,note_on,0,0,1,,,,,,,,,,,,,,,0,,,80,63
110400,note_on,120,0,1,,,,,,,,,,,,,,,0,,,82,0
110400,note_on,180,0,2,,,,,,,,,,,,,,,0,,,58,62
110460,note_on,60,0,2,,,,,,,,,,,,,,,0,,,58,0
110520,note_on,0,0,1,,,,,,,,,,,,,,,0,,,74,0
110520,note_on,120,0,1,,,,,,,,,,,,,,,0,,,80,0
110520,note_on,0,0,1,,,,,,,,,,,,,,,0,,,82,57
110640,set_tempo,480,1,0,,,,,,,,,,,,477783,,,,,,,
110640,note_on,180,0,2,,,,,,,,,,,,,,,0,,,58,62
110640,note_on,120,0,1,,,,,,,,,,,,,,,0,,,82,0
110640,note_on,0,0,1,,,,,,,,,,,,,,,0,,,74,53
110640,note_on,0,0,1,,,,,,,,,,,,,,,0,,,80,63
110700,note_on,60,0,2,,,,,,,,,,,,,,,0,,,58,0
110760,note_on,0,0,1,,,,,,,,,,,,,,,0,,,74,0
110760,note_on,0,0,1,,,,,,,,,,,,,,,0,,,82,55
110760,note_on,120,0,1,,,,,,,,,,,,,,,0,,,80,0
110880,set_tempo,240,1,0,,,,,,,,,,,,468640,,,,,,,
110880,note_on,180,0,2,,,,,,,,,,,,,,,0,,,59,71
110880,note_on,0,0,1,,,,,,,,,,,,,,,0,,,80,69
110880,note_on,120,0,1,,,,,,,,,,,,,,,0,,,82,0
110880,note_on,0,0,1,,,,,,,,,,,,,,,0,,,74,58
111000,note_on,120,0,1,,,,,,,,,,,,,,,0,,,80,0
111000,note_on,0,0,1,,,,,,,,,,,,,,,0,,,74,0
111000,note_on,0,0,1,,,,,,,,,,,,,,,0,,,86,55
111120,note_on,240,0,2,,,,,,,,,,,,,,,0,,,59,0
111120,note_on,0,0,1,,,,,,,,,,,,,,,0,,,74,53
111120,note_on,0,0,1,,,,,,,,,,,,,,,0,,,80,63
111120,note_on,0,0,2,,,,,,,,,,,,,,,0,,,71,59
111120,note_on,120,0,1,,,,,,,,,,,,,,,0,,,86,0
111240,note_on,120,0,1,,,,,,,,,,,,,,,0,,,80,0
111240,note_on,0,0,1,,,,,,,,,,,,,,,0,,,74,0
111240,note_on,0,0,1,,,,,,,,,,,,,,,0,,,86,55
111360,note_on,120,0,1,,,,,,,,,,,,,,,0,,,86,0
111360,note_on,0,0,1,,,,,,,,,,,,,,,0,,,80,63
111360,note_on,240,0,2,,,,,,,,,,,,,,,0,,,71,0
111360,note_on,0,0,2,,,,,,,,,,,,,,,0,,,71,63
111360,note_on,0,0,1,,,,,,,,,,,,,,,0,,,74,53
111360,set_tempo,480,1,0,,,,,,,,,,,,479693,,,,,,,
111420,note_on,60,0,2,,,,,,,,,,,,,,,0,,,71,0
111480,note_on,0,0,1,,,,,,,,,,,,,,,0,,,86,55
111480,note_on,0,0,1,,,,,,,,,,,,,,,0,,,74,0
111480,note_on,120,0,1,,,,,,,,,,,,,,,0,,,80,0
111600,note_on,0,0,1,,,,,,,,,,,,,,,0,,,75,57
111600,note_on,0,0,1,,,,,,,,,,,,,,,0,,,79,68
111600,set_tempo,240,1,0,,,,,,,,,,,,468640,,,,,,,
111600,note_on,180,0,2,,,,,,,,,,,,,,,0,,,72,73
111600,note_on,120,0,1,,,,,,,,,,,,,,,0,,,86,0
111720,note_on,120,0,1,,,,,,,,,,,,,,,0,,,79,0
111720,note_on,0,0,1,,,,,,,,,,,,,,,0,,,75,0
111720,note_on,0,0,1,,,,,,,,,,,,,,,0,,,87,55
111840,note_on,0,0,1,,,,,,,,,,,,,,,0,,,75,53
111840,note_on,240,0,2,,,,,,,,,,,,,,,0,,,72,0
111840,note_on,0,0,1,,,,,,,,,,,,,,,0,,,79,63
111840,note_on,120,0,1,,,,,,,,,,,,,,,0,,,87,0
111840,note_on,0,0,2,,,,,,,,,,,,,,,0,,,60,69
111960,note_on,0,0,1,,,,,,,,,,,,,,,0,,,87,55
111960,note_on,0,0,1,,,,,,,,,,,,,,,0,,,75,0
111960,note_on,120,0,1,,,,,,,,,,,,,,,0,,,79,0
112080,note_on,0,0,2,,,,,,,,,,,,,,,0,,,60,71
112080,note_on,0,0,1,,,,,,,,,,,,,,,0,,,79,63
112080,note_on,0,0,1,,,,,,,,,,,,,,,0,,,75,53
112080,note_on,240,0,2,,,,,,,,,,,,,,,0,,,60,0
112080,note_on,120,0,1,,,,,,,,,,,,,,,0,,,87,0
112140,note_on,60,0,2,,,,,,,,,,,,,,,0,,,60,0
112200,note_on,0,0,1,,,,,,,,,,,,,,,0,,,86,55
112200,note_on,0,0,1,,,,,,,,,,,,,,,0,,,75,0
112200,note_on,120,0,1,,,,,,,,,,,,,,,0,,,79,0
112320,note_on,120,0,1,,,,,,,,,,,,,,,0,,,86,0
112320,note_on,0,0,1,,,,,,,,,,,,,,,0,,,81,63
112320,note_on,0,0,1,,,,,,,,,,,,,,,0,,,75,53
112320,note_on,180,0,2,,,,,,,,,,,,,,,0,,,65,78
112380,note_on,60,0,2,,,,,,,,,,,,,,,0,,,65,0
112440,note_on,0,0,1,,,,,,,,,,,,,,,0,,,84,55
112440,note_on,0,0,1,,,,,,,,,,,,,,,0,,,75,0
112440,note_on,120,0,1,,,,,,,,,,,,,,,0,,,81,0
112500,note_on,120,0,2,,,,,,,,,,,,,,,0,,,55,69
112560,set_tempo,960,1,0,,,,,,,,,,,,457457,,,,,,,
112560,note_on,120,0,1,,,,,,,,,,,,,,,0,,,84,0
112560,note_on,0,0,1,,,,,,,,,,,,,,,0,,,75,53
112560,note_on,0,0,1,,,,,,,,,,,,,,,0,,,81,63
112560,note_on,60,0,2,,,,,,,,,,,,,,,0,,,53,79
112580,note_on,20,0,2,,,,,,,,,,,,,,,0,,,55,0
112680,note_on,0,0,1,,,,,,,,,,,,,,,0,,,75,0
112680,note_on,100,0,2,,,,,,,,,,,,,,,0,,,52,73
112680,note_on,120,0,1,,,,,,,,,,,,,,,0,,,81,0
112680,note_on,0,0,1,,,,,,,,,,,,,,,0,,,84,55
112700,note_on,20,0,2,,,,,,,,,,,,,,,0,,,53,0
112800,note_on,0,0,1,,,,,,,,,,,,,,,0,,,75,53
112800,note_on,0,0,1,,,,,,,,,,,,,,,0,,,81,63
112800,note_on,120,0,1,,,,,,,,,,,,,,,0,,,84,0
112800,note_on,100,0,2,,,,,,,,,,,,,,,0,,,53,78
112800,set_tempo,240,1,0,,,,,,,,,,,,497100,,,,,,,
112820,note_on,20,0,2,,,,,,,,,,,,,,,0,,,52,0
112920,note_on,0,0,1,,,,,,,,,,,,,,,0,,,75,0
112920,note_on,0,0,1,,,,,,,,,,,,,,,0,,,84,55
112920,note_on,120,0,1,,,,,,,,,,,,,,,0,,,81,0
113040,set_tempo,240,1,0,,,,,,,,,,,,466708,,,,,,,
113040,note_on,0,0,1,,,,,,,,,,,,,,,0,,,82,63
113040,note_on,0,0,1,,,,,,,,,,,,,,,0,,,74,53
113040,note_on,120,0,1,,,,,,,,,,,,,,,0,,,84,0
113040,note_on,0,0,2,,,,,,,,,,,,,,,0,,,58,73
113040,note_on,220,0,2,,,,,,,,,,,,,,,0,,,53,0
113100,note_on,60,0,2,,,,,,,,,,,,,,,0,,,58,0
113160,note_on,120,0,1,,,,,,,,,,,,,,,0,,,82,0
113160,note_on,0,0,1,,,,,,,,,,,,,,,0,,,74,0
113160,note_on,0,0,1,,,,,,,,,,,,,,,0,,,86,55
113220,note_on,120,0,2,,,,,,,,,,,,,,,0,,,48,66
113280,note_on,60,0,2,,,,,,,,,,,,,,,0,,,46,73
113280,note_on,0,0,1,,,,,,,,,,,,,,,0,,,82,63
113280,note_on,0,0,1,,,,,,,,,,,,,,,0,,,74,53
113280,note_on,120,0,1,,,,,,,,,,,,,,,0,,,86,0
113280,set_tempo,240,1,0,,,,,,,,,,,,457457,,,,,,,
113300,note_on,20,0,2,,,,,,,,,,,,,,,0,,,48,0
113400,note_on,0,0,1,,,,,,,,,,,,,,,0,,,86,55
113400,note_on,100,0,2,,,,,,,,,,,,,,,0,,,45,68
113400,note_on,120,0,1,,,,,,,,,,,,,,,0,,,82,0
113400,note_on,0,0,1,,,,,,,,,,,,,,,0,,,74,0
113420,note_on,20,0,2,,,,,,,,,,,,,,,0,,,46,0
113520,note_on,0,0,1,,,,,,,,,,,,,,,0,,,82,63
113520,note_on,100,0,2,,,,,,,,,,,,,,,0,,,46,73
113520,note_on,0,0,1,,,,,,,,,,,,,,,0,,,74,53
113520,note_on,120,0,1,,,,,,,,,,,,,,,0,,,86,0
113520,set_tempo,240,1,0,,,,,,,,,,,,509857,,,,,,,
113540,note_on,20,0,2,,,,,,,,,,,,,,,0,,,45,0
113640,note_on,0,0,1,,,,,,,,,,,,,,,0,,,86,55
113640,note_on,0,0,1,,,,,,,,,,,,,,,0,,,74,0
113640,note_on,120,0,1,,,,,,,,,,,,,,,0,,,82,0
113760,note_on,120,0,1,,,,,,,,,,,,,,,0,,,86,0
113760,note_on,0,0,1,,,,,,,,,,,,,,,0,,,75,55
113760,note_on,0,0,1,,,,,,,,,,,,,,,0,,,81,64
113760,note_on,220,0,2,,,,,,,,,,,,,,,0,,,46,0
113760,note_on,0,0,2,,,,,,,,,,,,,,,0,,,41,66
113760,set_tempo,240,1,0,,,,,,,,,,,,461113,,,,,,,
113767,control_change,7,0,2,,,,,,,,,,,,,,,0,64,0,,
113852,control_change,85,0,2,,,,,,,,,,,,,,,0,64,127,,
113880,note_on,0,0,1,,,,,,,,,,,,,,,0,,,84,55
113880,note_on,0,0,1,,,,,,,,,,,,,,,0,,,75,0
113880,note_on,120,0,1,,,,,,,,,,,,,,,0,,,81,0
114000,note_on,0,0,1,,,,,,,,,,,,,,,0,,,81,63
114000,note_on,0,0,1,,,,,,,,,,,,,,,0,,,75,53
114000,note_on,148,0,2,,,,,,,,,,,,,,,0,,,41,0
114000,note_on,0,0,2,,,,,,,,,,,,,,,0,,,43,52
114000,note_on,120,0,1,,,,,,,,,,,,,,,0,,,84,0
114000,set_tempo,240,1,0,,,,,,,,,,,,457457,,,,,,,
114049,control_change,49,0,2,,,,,,,,,,,,,,,0,64,0,,
114106,control_change,57,0,2,,,,,,,,,,,,,,,0,64,127,,
114120,note_on,120,0,1,,,,,,,,,,,,,,,0,,,81,0
114120,note_on,0,0,1,,,,,,,,,,,,,,,0,,,75,0
114120,note_on,14,0,2,,,,,,,,,,,,,,,0,,,43,0
114120,note_on,0,0,2,,,,,,,,,,,,,,,0,,,45,52
114120,note_on,0,0,1,,,,,,,,,,,,,,,0,,,84,53
114240,note_on,120,0,2,,,,,,,,,,,,,,,0,,,45,0
114240,note_on,0,0,2,,,,,,,,,,,,,,,0,,,46,56
114240,note_on,120,0,1,,,,,,,,,,,,,,,0,,,84,0
114240,note_on,0,0,1,,,,,,,,,,,,,,,0,,,75,53
114240,note_on,0,0,1,,,,,,,,,,,,,,,0,,,81,63
114360,note_on,120,0,1,,,,,,,,,,,,,,,0,,,81,0
114360,note_on,0,0,2,,,,,,,,,,,,,,,0,,,48,56
114360,note_on,0,0,1,,,,,,,,,,,,,,,0,,,84,53
114360,note_on,120,0,2,,,,,,,,,,,,,,,0,,,46,0
114360,note_on,0,0,1,,,,,,,,,,,,,,,0,,,75,0
114480,note_on,0,0,2,,,,,,,,,,,,,,,0,,,46,63
114480,control_change,0,0,2,,,,,,,,,,,,,,,0,64,0,,
114480,set_tempo,480,1,0,,,,,,,,,,,,470995,,,,,,,
114480,note_on,120,0,2,,,,,,,,,,,,,,,0,,,48,0
114480,note_on,0,0,1,,,,,,,,,,,,,,,0,,,74,57
114480,note_on,0,0,1,,,,,,,,,,,,,,,0,,,82,68
114480,note_on,120,0,1,,,,,,,,,,,,,,,0,,,84,0
114560,set_tempo,80,1,0,,,,,,,,,,,,472962,,,,,,,
114600,note_on,120,0,1,,,,,,,,,,,,,,,0,,,82,0
114600,note_on,0,0,1,,,,,,,,,,,,,,,0,,,74,0
114600,note_on,0,0,1,,,,,,,,,,,,,,,0,,,86,55
114640,set_tempo,80,1,0,,,,,,,,,,,,474947,,,,,,,
114720,note_on,120,0,1,,,,,,,,,,,,,,,0,,,86,0
114720,note_on,0,0,1,,,,,,,,,,,,,,,0,,,82,63
114720,note_on,0,0,1,,,,,,,,,,,,,,,0,,,74,53
114720,set_tempo,80,1,0,,,,,,,,,,,,476948,,,,,,,
114720,note_on,240,0,2,,,,,,,,,,,,,,,0,,,46,0
114720,note_on,0,0,2,,,,,,,,,,,,,,,0,,,46,63
114800,set_tempo,80,1,0,,,,,,,,,,,,478965,,,,,,,
114840,note_on,0,0,1,,,,,,,,,,,,,,,0,,,86,53
114840,note_on,0,0,1,,,,,,,,,,,,,,,0,,,82,0
114840,note_on,120,0,1,,,,,,,,,,,,,,,0,,,74,0
114880,set_tempo,80,1,0,,,,,,,,,,,,480962,,,,,,,
114960,note_on,240,0,2,,,,,,,,,,,,,,,0,,,46,0
114960,note_on,0,0,2,,,,,,,,,,,,,,,0,,,46,63
114960,set_tempo,80,1,0,,,,,,,,,,,,488162,,,,,,,
114960,note_on,0,0,1,,,,,,,,,,,,,,,0,,,82,63
114960,note_on,0,0,1,,,,,,,,,,,,,,,0,,,74,53
114960,note_on,120,0,1,,,,,,,,,,,,,,,0,,,86,0
115080,note_on,0,0,1,,,,,,,,,,,,,,,0,,,74,0
115080,note_on,0,0,1,,,,,,,,,,,,,,,0,,,86,53
115080,note_on,120,0,1,,,,,,,,,,,,,,,0,,,82,0
115200,note_on,0,0,1,,,,,,,,,,,,,,,0,,,75,49
115200,note_on,0,0,1,,,,,,,,,,,,,,,0,,,81,58
115200,note_on,0,0,2,,,,,,,,,,,,,,,0,,,53,59
115200,note_on,240,0,2,,,,,,,,,,,,,,,0,,,46,0
115200,set_tempo,240,1,0,,,,,,,,,,,,474046,,,,,,,
115200,note_on,120,0,1,,,,,,,,,,,,,,,0,,,86,0
115292,control_change,92,0,2,,,,,,,,,,,,,,,0,64,127,,
115320,note_on,120,0,1,,,,,,,,,,,,,,,0,,,81,0
115320,note_on,0,0,1,,,,,,,,,,,,,,,0,,,75,0
115320,note_on,0,0,1,,,,,,,,,,,,,,,0,,,84,49
115440,note_on,120,0,1,,,,,,,,,,,,,,,0,,,84,0
115440,note_on,0,0,2,,,,,,,,,,,,,,,0,,,55,47
115440,set_tempo,240,1,0,,,,,,,,,,,,462570,,,,,,,
115440,note_on,0,0,1,,,,,,,,,,,,,,,0,,,75,48
115440,note_on,0,0,1,,,,,,,,,,,,,,,0,,,81,57
115440,note_on,148,0,2,,,,,,,,,,,,,,,0,,,53,0
115489,control_change,49,0,2,,,,,,,,,,,,,,,0,64,0,,
115546,control_change,57,0,2,,,,,,,,,,,,,,,0,64,127,,
115560,note_on,14,0,2,,,,,,,,,,,,,,,0,,,55,0
115560,note_on,0,0,2,,,,,,,,,,,,,,,0,,,57,47
115560,note_on,0,0,1,,,,,,,,,,,,,,,0,,,84,48
115560,note_on,0,0,1,,,,,,,,,,,,,,,0,,,75,0
115560,note_on,120,0,1,,,,,,,,,,,,,,,0,,,81,0
115680,set_tempo,240,1,0,,,,,,,,,,,,472106,,,,,,,
115680,note_on,120,0,1,,,,,,,,,,,,,,,0,,,84,0
115680,note_on,0,0,1,,,,,,,,,,,,,,,0,,,81,57
115680,note_on,0,0,1,,,,,,,,,,,,,,,0,,,75,48
115680,note_on,0,0,2,,,,,,,,,,,,,,,0,,,58,49
115680,note_on,120,0,2,,,,,,,,,,,,,,,0,,,57,0
115800,note_on,120,0,1,,,,,,,,,,,,,,,0,,,81,0
115800,note_on,0,0,1,,,,,,,,,,,,,,,0,,,84,48
115800,note_on,0,0,2,,,,,,,,,,,,,,,0,,,60,49
115800,note_on,120,0,2,,,,,,,,,,,,,,,0,,,58,0
115800,note_on,0,0,1,,,,,,,,,,,,,,,0,,,75,0
115920,note_on,0,0,2,,,,,,,,,,,,,,,0,,,58,57
115920,note_on,120,0,1,,,,,,,,,,,,,,,0,,,84,0
115920,note_on,120,0,2,,,,,,,,,,,,,,,0,,,60,0
115920,control_change,0,0,2,,,,,,,,,,,,,,,0,64,0,,
115920,note_on,0,0,1,,,,,,,,,,,,,,,0,,,74,50
115920,note_on,0,0,1,,,,,,,,,,,,,,,0,,,82,60
115920,set_tempo,240,1,0,,,,,,,,,,,,476948,,,,,,,
116000,set_tempo,80,1,0,,,,,,,,,,,,478965,,,,,,,
116040,note_on,0,0,1,,,,,,,,,,,,,,,0,,,86,49
116040,note_on,0,0,1,,,,,,,,,,,,,,,0,,,74,0
116040,note_on,120,0,1,,,,,,,,,,,,,,,0,,,82,0
116080,set_tempo,80,1,0,,,,,,,,,,,,480962,,,,,,,
116160,note_on,0,0,1,,,,,,,,,,,,,,,0,,,74,48
116160,note_on,0,0,2,,,,,,,,,,,,,,,0,,,58,57
116160,set_tempo,80,1,0,,,,,,,,,,,,483014,,,,,,,
116160,note_on,0,0,1,,,,,,,,,,,,,,,0,,,82,57
116160,note_on,120,0,1,,,,,,,,,,,,,,,0,,,86,0
116160,note_on,240,0,2,,,,,,,,,,,,,,,0,,,58,0
116200,set_tempo,40,1,0,,,,,,,,,,,,485084,,,,,,,
116280,note_on,0,0,1,,,,,,,,,,,,,,,0,,,86,48
116280,note_on,0,0,1,,,,,,,,,,,,,,,0,,,82,0
116280,note_on,120,0,1,,,,,,,,,,,,,,,0,,,74,0
116400,note_on,240,0,2,,,,,,,,,,,,,,,0,,,58,0
116400,note_on,0,0,2,,,,,,,,,,,,,,,0,,,58,57
116400,note_on,0,0,1,,,,,,,,,,,,,,,0,,,82,57
116400,note_on,0,0,1,,,,,,,,,,,,,,,0,,,74,48
116400,note_on,120,0,1,,,,,,,,,,,,,,,0,,,86,0
116400,set_tempo,200,1,0,,,,,,,,,,,,503145,,,,,,,
116520,note_on,0,0,1,,,,,,,,,,,,,,,0,,,74,0
116520,note_on,120,0,1,,,,,,,,,,,,,,,0,,,82,0
116520,note_on,0,0,1,,,,,,,,,,,,,,,0,,,86,48
116640,note_on,120,0,1,,,,,,,,,,,,,,,0,,,86,0
116640,note_on,240,0,2,,,,,,,,,,,,,,,0,,,58,0
116640,note_on,0,0,2,,,,,,,,,,,,,,,0,,,65,52
116640,note_on,0,0,1,,,,,,,,,,,,,,,0,,,75,42
116640,note_on,0,0,1,,,,,,,,,,,,,,,0,,,81,51
116640,set_tempo,240,1,0,,,,,,,,,,,,490236,,,,,,,
116732,control_change,92,0,2,,,,,,,,,,,,,,,0,64,127,,
116760,note_on,120,0,1,,,,,,,,,,,,,,,0,,,81,0
116760,note_on,0,0,1,,,,,,,,,,,,,,,0,,,84,44
116760,note_on,0,0,1,,,,,,,,,,,,,,,0,,,75,0
116880,note_on,0,0,1,,,,,,,,,,,,,,,0,,,75,42
116880,note_on,120,0,1,,,,,,,,,,,,,,,0,,,84,0
116880,note_on,0,0,2,,,,,,,,,,,,,,,0,,,67,41
116880,note_on,148,0,2,,,,,,,,,,,,,,,0,,,65,0
116880,set_tempo,240,1,0,,,,,,,,,,,,462570,,,,,,,
116880,note_on,0,0,1,,,,,,,,,,,,,,,0,,,81,50
116929,control_change,49,0,2,,,,,,,,,,,,,,,0,64,0,,
116986,control_change,57,0,2,,,,,,,,,,,,,,,0,64,127,,
117000,note_on,0,0,1,,,,,,,,,,,,,,,0,,,84,42
117000,note_on,0,0,1,,,,,,,,,,,,,,,0,,,75,0
117000,note_on,14,0,2,,,,,,,,,,,,,,,0,,,67,0
117000,note_on,0,0,2,,,,,,,,,,,,,,,0,,,69,41
117000,note_on,120,0,1,,,,,,,,,,,,,,,0,,,81,0
117120,note_on,120,0,1,,,,,,,,,,,,,,,0,,,84,0
117120,note_on,0,0,1,,,,,,,,,,,,,,,0,,,75,42
117120,note_on,120,0,2,,,,,,,,,,,,,,,0,,,69,0
117120,note_on,0,0,2,,,,,,,,,,,,,,,0,,,70,44
117120,set_tempo,240,1,0,,,,,,,,,,,,488162,,,,,,,
117120,note_on,0,0,1,,,,,,,,,,,,,,,0,,,81,50
117240,note_on,120,0,1,,,,,,,,,,,,,,,0,,,81,0
117240,note_on,0,0,1,,,,,,,,,,,,,,,0,,,84,42
117240,note_on,0,0,1,,,,,,,,,,,,,,,0,,,75,0
117240,note_on,120,0,2,,,,,,,,,,,,,,,0,,,70,0
117240,note_on,0,0,2,,,,,,,,,,,,,,,0,,,72,44
117360,note_on,120,0,2,,,,,,,,,,,,,,,0,,,72,0
117360,control_change,0,0,2,,,,,,,,,,,,,,,0,64,0,,
117360,note_on,0,0,1,,,,,,,,,,,,,,,0,,,82,53
117360,note_on,0,0,1,,,,,,,,,,,,,,,0,,,74,45
117360,note_on,120,0,1,,,,,,,,,,,,,,,0,,,84,0
117360,set_tempo,240,1,0,,,,,,,,,,,,505348,,,,,,,
117360,note_on,0,0,2,,,,,,,,,,,,,,,0,,,70,50
117360,note_on,0,0,1,,,,,,,,,,,,,,,0,,,86,53
117600,note_on,0,0,1,,,,,,,,,,,,,,,0,,,86,0
117600,note_on,240,0,2,,,,,,,,,,,,,,,0,,,70,0
117600,note_on,0,0,1,,,,,,,,,,,,,,,0,,,74,0
117600,note_on,240,0,1,,,,,,,,,,,,,,,0,,,82,0
117840,set_tempo,480,1,0,,,,,,,,,,,,889284,,,,,,,
118080,note_on,0,0,1,,,,,,,,,,,,,,,0,,,65,53
118080,marker,0,1,0,,,,,,,,,,,,,,,,,,,
118080,note_on,480,0,1,,,,,,,,,,,,,,,0,,,61,53
118080,set_tempo,0,1,0,,,,,,,,,,,,600000,,,,,,,
118080,key_signature,240,1,0,,,,,,,,,,,Db,,,,,,,,
118108,control_change,508,0,2,,,,,,,,,,,,,,,0,64,127,,
118320,note_on,212,0,2,,,,,,,,,,,,,,,0,,,46,53
118320,set_tempo,240,1,0,,,,,,,,,,,,583204,,,,,,,
118440,note_on,120,0,2,,,,,,,,,,,,,,,0,,,46,0
118560,set_tempo,240,1,0,,,,,,,,,,,,549551,,,,,,,
118560,note_on,480,0,1,,,,,,,,,,,,,,,0,,,65,0
118560,note_on,0,0,1,,,,,,,,,,,,,,,0,,,61,0
118560,note_on,0,0,1,,,,,,,,,,,,,,,0,,,61,53
118560,note_on,0,0,1,,,,,,,,,,,,,,,0,,,65,53
118800,note_on,0,0,2,,,,,,,,,,,,,,,0,,,49,61
118800,control_change,360,0,2,,,,,,,,,,,,,,,0,64,0,,
118800,set_tempo,240,1,0,,,,,,,,,,,,580271,,,,,,,
118920,note_on,360,0,1,,,,,,,,,,,,,,,0,,,65,0
118920,note_on,0,0,1,,,,,,,,,,,,,,,0,,,61,0
118920,note_on,120,0,2,,,,,,,,,,,,,,,0,,,49,0
119040,note_on,0,0,1,,,,,,,,,,,,,,,0,,,63,49
119040,note_on,120,0,1,,,,,,,,,,,,,,,0,,,60,41
119040,set_tempo,240,1,0,,,,,,,,,,,,560329,,,,,,,
119040,note_on,0,0,1,,,,,,,,,,,,,,,0,,,65,49
119130,note_on,0,0,1,,,,,,,,,,,,,,,0,,,60,0
119130,note_on,0,0,1,,,,,,,,,,,,,,,0,,,63,0
119130,note_on,90,0,1,,,,,,,,,,,,,,,0,,,65,0
119280,note_on,0,0,1,,,,,,,,,,,,,,,0,,,65,50
119280,set_tempo,240,1,0,,,,,,,,,,,,580271,,,,,,,
119280,note_on,0,0,1,,,,,,,,,,,,,,,0,,,61,50
119280,note_on,150,0,1,,,,,,,,,,,,,,,0,,,58,42
119370,note_on,0,0,1,,,,,,,,,,,,,,,0,,,58,0
119370,note_on,90,0,1,,,,,,,,,,,,,,,0,,,65,0
119370,note_on,0,0,1,,,,,,,,,,,,,,,0,,,61,0
119520,note_on,150,0,1,,,,,,,,,,,,,,,0,,,57,45
119520,note_on,0,0,1,,,,,,,,,,,,,,,0,,,65,53
119520,set_tempo,240,1,0,,,,,,,,,,,,554888,,,,,,,
119520,note_on,0,0,1,,,,,,,,,,,,,,,0,,,60,53
119527,control_change,607,0,2,,,,,,,,,,,,,,,0,64,127,,
119760,note_on,233,0,2,,,,,,,,,,,,,,,0,,,42,53
119760,set_tempo,240,1,0,,,,,,,,,,,,580271,,,,,,,
120000,set_tempo,240,1,0,,,,,,,,,,,,560329,,,,,,,
120000,note_on,0,0,1,,,,,,,,,,,,,,,0,,,57,45
120000,note_on,240,0,2,,,,,,,,,,,,,,,0,,,42,0
120000,note_on,0,0,1,,,,,,,,,,,,,,,0,,,65,53
120000,note_on,0,0,1,,,,,,,,,,,,,,,0,,,57,0
120000,note_on,0,0,1,,,,,,,,,,,,,,,0,,,60,0
120000,note_on,480,0,1,,,,,,,,,,,,,,,0,,,65,0
120000,note_on,0,0,1,,,,,,,,,,,,,,,0,,,60,53
120240,set_tempo,240,1,0,,,,,,,,,,,,580271,,,,,,,
120240,note_on,0,0,2,,,,,,,,,,,,,,,0,,,41,61
120240,control_change,240,0,2,,,,,,,,,,,,,,,0,64,0,,
120360,note_on,360,0,1,,,,,,,,,,,,,,,0,,,65,0
120360,note_on,0,0,1,,,,,,,,,,,,,,,0,,,60,0
120360,note_on,0,0,1,,,,,,,,,,,,,,,0,,,57,0
120360,note_on,120,0,2,,,,,,,,,,,,,,,0,,,41,0
120480,note_on,0,0,1,,,,,,,,,,,,,,,0,,,61,49
120480,note_on,120,0,1,,,,,,,,,,,,,,,0,,,58,41
120480,note_on,0,0,1,,,,,,,,,,,,,,,0,,,65,49
120480,set_tempo,240,1,0,,,,,,,,,,,,560329,,,,,,,
120570,note_on,90,0,1,,,,,,,,,,,,,,,0,,,65,0
120570,note_on,0,0,1,,,,,,,,,,,,,,,0,,,58,0
120570,note_on,0,0,1,,,,,,,,,,,,,,,0,,,61,0
120720,note_on,150,0,1,,,,,,,,,,,,,,,0,,,60,42
120720,note_on,0,0,1,,,,,,,,,,,,,,,0,,,63,50
120720,note_on,0,0,1,,,,,,,,,,,,,,,0,,,65,50
120720,set_tempo,240,1,0,,,,,,,,,,,,580271,,,,,,,
120810,note_on,90,0,1,,,,,,,,,,,,,,,0,,,65,0
120810,note_on,0,0,1,,,,,,,,,,,,,,,0,,,63,0
120810,note_on,0,0,1,,,,,,,,,,,,,,,0,,,60,0
120960,note_on,150,0,1,,,,,,,,,,,,,,,0,,,61,53
120960,note_on,0,0,1,,,,,,,,,,,,,,,0,,,65,53
120960,set_tempo,240,1,0,,,,,,,,,,,,563222,,,,,,,
120981,control_change,621,0,2,,,,,,,,,,,,,,,0,64,127,,
121200,note_on,219,0,2,,,,,,,,,,,,,,,0,,,46,53
121200,set_tempo,240,1,0,,,,,,,,,,,,583204,,,,,,,
121440,set_tempo,240,1,0,,,,,,,,,,,,549551,,,,,,,
121440,note_on,240,0,2,,,,,,,,,,,,,,,0,,,46,0
121440,note_on,0,0,1,,,,,,,,,,,,,,,0,,,65,53
121440,note_on,0,0,1,,,,,,,,,,,,,,,0,,,61,53
121440,note_on,0,0,1,,,,,,,,,,,,,,,0,,,61,0
121440,note_on,480,0,1,,,,,,,,,,,,,,,0,,,65,0
121680,note_on,240,0,2,,,,,,,,,,,,,,,0,,,49,61
121680,set_tempo,240,1,0,,,,,,,,,,,,580271,,,,,,,
121762,control_change,82,0,2,,,,,,,,,,,,,,,0,64,0,,
121920,note_on,0,0,1,,,,,,,,,,,,,,,0,,,63,49
121920,note_on,158,0,2,,,,,,,,,,,,,,,0,,,49,0
121920,note_on,480,0,1,,,,,,,,,,,,,,,0,,,65,0
121920,note_on,0,0,1,,,,,,,,,,,,,,,0,,,61,0
121920,note_on,0,0,1,,,,,,,,,,,,,,,0,,,65,49
121920,set_tempo,240,1,0,,,,,,,,,,,,560329,,,,,,,
121920,note_on,0,0,1,,,,,,,,,,,,,,,0,,,60,41
122010,note_on,0,0,1,,,,,,,,,,,,,,,0,,,60,0
122010,note_on,0,0,1,,,,,,,,,,,,,,,0,,,63,0
122010,note_on,90,0,1,,,,,,,,,,,,,,,0,,,65,0
122160,note_on,150,0,1,,,,,,,,,,,,,,,0,,,58,42
122160,note_on,0,0,1,,,,,,,,,,,,,,,0,,,61,50
122160,set_tempo,240,1,0,,,,,,,,,,,,580271,,,,,,,
122160,note_on,0,0,1,,,,,,,,,,,,,,,0,,,65,50
122250,note_on,0,0,1,,,,,,,,,,,,,,,0,,,58,0
122250,note_on,90,0,1,,,,,,,,,,,,,,,0,,,65,0
122250,note_on,0,0,1,,,,,,,,,,,,,,,0,,,61,0
122400,note_on,0,0,1,,,,,,,,,,,,,,,0,,,61,45
122400,note_on,0,0,1,,,,,,,,,,,,,,,0,,,65,45
122400,note_on,150,0,1,,,,,,,,,,,,,,,0,,,56,38
122400,control_change,480,0,2,,,,,,,,,,,,,,,0,64,127,,
122400,set_tempo,240,1,0,,,,,,,,,,,,554888,,,,,,,
122640,note_on,240,0,2,,,,,,,,,,,,,,,0,,,41,45
122640,set_tempo,240,1,0,,,,,,,,,,,,580271,,,,,,,
122880,note_on,0,0,1,,,,,,,,,,,,,,,0,,,65,45
122880,note_on,0,0,1,,,,,,,,,,,,,,,0,,,61,45
122880,note_on,0,0,1,,,,,,,,,,,,,,,0,,,56,38
122880,note_on,0,0,1,,,,,,,,,,,,,,,0,,,56,0
122880,note_on,0,0,1,,,,,,,,,,,,,,,0,,,61,0
122880,note_on,480,0,1,,,,,,,,,,,,,,,0,,,65,0
122880,note_on,240,0,2,,,,,,,,,,,,,,,0,,,41,0
122880,set_tempo,240,1,0,,,,,,,,,,,,560329,,,,,,,
123120,note_on,240,0,2,,,,,,,,,,,,,,,0,,,32,51
123120,set_tempo,240,1,0,,,,,,,,,,,,595415,,,,,,,
123169,control_change,49,0,2,,,,,,,,,,,,,,,0,64,0,,
123240,note_on,0,0,1,,,,,,,,,,,,,,,0,,,61,0
123240,note_on,360,0,1,,,,,,,,,,,,,,,0,,,65,0
123240,note_on,0,0,1,,,,,,,,,,,,,,,0,,,56,0
123240,note_on,71,0,2,,,,,,,,,,,,,,,0,,,32,0
123360,set_tempo,240,1,0,,,,,,,,,,,,560329,,,,,,,
123360,note_on,0,0,1,,,,,,,,,,,,,,,0,,,65,41
123360,note_on,120,0,1,,,,,,,,,,,,,,,0,,,56,34
123360,note_on,0,0,1,,,,,,,,,,,,,,,0,,,68,41
123450,note_on,0,0,1,,,,,,,,,,,,,,,0,,,65,0
123450,note_on,0,0,1,,,,,,,,,,,,,,,0,,,56,0
123450,note_on,90,0,1,,,,,,,,,,,,,,,0,,,68,0
123600,note_on,150,0,1,,,,,,,,,,,,,,,0,,,56,35
123600,set_tempo,240,1,0,,,,,,,,,,,,592300,,,,,,,
123600,note_on,0,0,1,,,,,,,,,,,,,,,0,,,68,42
123600,note_on,0,0,1,,,,,,,,,,,,,,,0,,,65,42
123690,note_on,90,0,1,,,,,,,,,,,,,,,0,,,68,0
123690,note_on,0,0,1,,,,,,,,,,,,,,,0,,,65,0
123690,note_on,0,0,1,,,,,,,,,,,,,,,0,,,56,0
123840,note_on,0,0,1,,,,,,,,,,,,,,,0,,,65,45
123840,set_tempo,240,1,0,,,,,,,,,,,,571537,,,,,,,
123840,note_on,0,0,1,,,,,,,,,,,,,,,0,,,61,45
123840,control_change,600,0,2,,,,,,,,,,,,,,,0,64,127,,
123840,note_on,150,0,1,,,,,,,,,,,,,,,0,,,56,38
124080,set_tempo,240,1,0,,,,,,,,,,,,589217,,,,,,,
124080,note_on,240,0,2,,,,,,,,,,,,,,,0,,,37,45
124320,set_tempo,240,1,0,,,,,,,,,,,,580271,,,,,,,
124320,note_on,0,0,1,,,,,,,,,,,,,,,0,,,61,45
124320,note_on,480,0,1,,,,,,,,,,,,,,,0,,,65,0
124320,note_on,240,0,2,,,,,,,,,,,,,,,0,,,37,0
124320,note_on,0,0,1,,,,,,,,,,,,,,,0,,,61,0
124320,note_on,0,0,1,,,,,,,,,,,,,,,0,,,56,0
124320,note_on,0,0,1,,,,,,,,,,,,,,,0,,,56,38
124320,note_on,0,0,1,,,,,,,,,,,,,,,0,,,65,45
124560,set_tempo,240,1,0,,,,,,,,,,,,592300,,,,,,,
124560,control_change,240,0,2,,,,,,,,,,,,,,,0,64,0,,
124560,note_on,0,0,2,,,,,,,,,,,,,,,0,,,37,46
124680,note_on,120,0,2,,,,,,,,,,,,,,,0,,,37,0
124800,note_on,120,0,2,,,,,,,,,,,,,,,0,,,49,38
124800,note_on,0,0,1,,,,,,,,,,,,,,,0,,,56,0
124800,note_on,480,0,1,,,,,,,,,,,,,,,0,,,65,0
124800,note_on,0,0,1,,,,,,,,,,,,,,,0,,,61,0
124920,note_on,120,0,2,,,,,,,,,,,,,,,0,,,49,0
125040,set_tempo,480,1,0,,,,,,,,,,,,621891,,,,,,,
125040,note_on,120,0,2,,,,,,,,,,,,,,,0,,,48,35
125160,note_on,120,0,2,,,,,,,,,,,,,,,0,,,48,0
125280,set_tempo,240,1,0,,,,,,,,,,,,579598,,,,,,,
125280,note_on,0,0,1,,,,,,,,,,,,,,,0,,,65,53
125280,note_on,480,0,1,,,,,,,,,,,,,,,0,,,61,53
125308,control_change,148,0,2,,,,,,,,,,,,,,,0,64,127,,
125520,set_tempo,240,1,0,,,,,,,,,,,,583204,,,,,,,
125520,note_on,212,0,2,,,,,,,,,,,,,,,0,,,46,53
125640,note_on,120,0,2,,,,,,,,,,,,,,,0,,,46,0
125760,note_on,0,0,1,,,,,,,,,,,,,,,0,,,61,53
125760,note_on,480,0,1,,,,,,,,,,,,,,,0,,,65,0
125760,note_on,0,0,1,,,,,,,,,,,,,,,0,,,61,0
125760,set_tempo,240,1,0,,,,,,,,,,,,549551,,,,,,,
125760,note_on,0,0,1,,,,,,,,,,,,,,,0,,,65,53
126000,control_change,360,0,2,,,,,,,,,,,,,,,0,64,0,,
126000,note_on,0,0,2,,,,,,,,,,,,,,,0,,,49,61
126000,set_tempo,240,1,0,,,,,,,,,,,,580271,,,,,,,
126120,note_on,120,0,2,,,,,,,,,,,,,,,0,,,49,0
126120,note_on,360,0,1,,,,,,,,,,,,,,,0,,,65,0
126120,note_on,0,0,1,,,,,,,,,,,,,,,0,,,61,0
126240,set_tempo,240,1,0,,,,,,,,,,,,560329,,,,,,,
126240,note_on,120,0,1,,,,,,,,,,,,,,,0,,,60,41
126240,note_on,0,0,1,,,,,,,,,,,,,,,0,,,63,49
126240,note_on,0,0,1,,,,,,,,,,,,,,,0,,,65,49
126330,note_on,90,0,1,,,,,,,,,,,,,,,0,,,65,0
126330,note_on,0,0,1,,,,,,,,,,,,,,,0,,,63,0
126330,note_on,0,0,1,,,,,,,,,,,,,,,0,,,60,0
126480,note_on,150,0,1,,,,,,,,,,,,,,,0,,,58,42
126480,note_on,0,0,1,,,,,,,,,,,,,,,0,,,61,50
126480,note_on,0,0,1,,,,,,,,,,,,,,,0,,,65,50
126480,set_tempo,240,1,0,,,,,,,,,,,,580271,,,,,,,
126570,note_on,90,0,1,,,,,,,,,,,,,,,0,,,65,0
126570,note_on,0,0,1,,,,,,,,,,,,,,,0,,,58,0
126570,note_on,0,0,1,,,,,,,,,,,,,,,0,,,61,0
126720,note_on,0,0,1,,,,,,,,,,,,,,,0,,,65,53
126720,note_on,150,0,1,,,,,,,,,,,,,,,0,,,57,45
126720,note_on,0,0,1,,,,,,,,,,,,,,,0,,,60,53
126720,set_tempo,240,1,0,,,,,,,,,,,,554888,,,,,,,
126727,control_change,607,0,2,,,,,,,,,,,,,,,0,64,127,,
126960,note_on,233,0,2,,,,,,,,,,,,,,,0,,,42,53
126960,set_tempo,240,1,0,,,,,,,,,,,,580271,,,,,,,
127200,note_on,240,0,2,,,,,,,,,,,,,,,0,,,42,0
127200,note_on,0,0,1,,,,,,,,,,,,,,,0,,,65,53
127200,note_on,0,0,1,,,,,,,,,,,,,,,0,,,60,53
127200,note_on,0,0,1,,,,,,,,,,,,,,,0,,,57,45
127200,note_on,0,0,1,,,,,,,,,,,,,,,0,,,57,0
127200,note_on,0,0,1,,,,,,,,,,,,,,,0,,,60,0
127200,note_on,480,0,1,,,,,,,,,,,,,,,0,,,65,0
127200,set_tempo,240,1,0,,,,,,,,,,,,560329,,,,,,,
127440,set_tempo,240,1,0,,,,,,,,,,,,580271,,,,,,,
127440,note_on,0,0,2,,,,,,,,,,,,,,,0,,,41,61
127440,control_change,240,0,2,,,,,,,,,,,,,,,0,64,0,,
127560,note_on,360,0,1,,,,,,,,,,,,,,,0,,,65,0
127560,note_on,0,0,1,,,,,,,,,,,,,,,0,,,60,0
127560,note_on,0,0,1,,,,,,,,,,,,,,,0,,,57,0
127560,note_on,120,0,2,,,,,,,,,,,,,,,0,,,41,0
127680,set_tempo,240,1,0,,,,,,,,,,,,560329,,,,,,,
127680,note_on,0,0,1,,,,,,,,,,,,,,,0,,,65,49
127680,note_on,120,0,1,,,,,,,,,,,,,,,0,,,58,41
127680,note_on,0,0,1,,,,,,,,,,,,,,,0,,,61,49
127770,note_on,90,0,1,,,,,,,,,,,,,,,0,,,65,0
127770,note_on,0,0,1,,,,,,,,,,,,,,,0,,,61,0
127770,note_on,0,0,1,,,,,,,,,,,,,,,0,,,58,0
127920,set_tempo,240,1,0,,,,,,,,,,,,580271,,,,,,,
127920,note_on,150,0,1,,,,,,,,,,,,,,,0,,,60,42
127920,note_on,0,0,1,,,,,,,,,,,,,,,0,,,63,50
127920,note_on,0,0,1,,,,,,,,,,,,,,,0,,,65,50
128010,note_on,90,0,1,,,,,,,,,,,,,,,0,,,65,0
128010,note_on,0,0,1,,,,,,,,,,,,,,,0,,,63,0
128010,note_on,0,0,1,,,,,,,,,,,,,,,0,,,60,0
128160,note_on,0,0,1,,,,,,,,,,,,,,,0,,,65,53
128160,note_on,150,0,1,,,,,,,,,,,,,,,0,,,61,53
128160,set_tempo,240,1,0,,,,,,,,,,,,563222,,,,,,,
128181,control_change,621,0,2,,,,,,,,,,,,,,,0,64,127,,
128400,note_on,219,0,2,,,,,,,,,,,,,,,0,,,46,53
128400,set_tempo,240,1,0,,,,,,,,,,,,583204,,,,,,,
128640,note_on,0,0,1,,,,,,,,,,,,,,,0,,,65,53
128640,note_on,0,0,1,,,,,,,,,,,,,,,0,,,61,0
128640,note_on,480,0,1,,,,,,,,,,,,,,,0,,,65,0
128640,set_tempo,240,1,0,,,,,,,,,,,,549551,,,,,,,
128640,note_on,0,0,1,,,,,,,,,,,,,,,0,,,61,53
128640,note_on,240,0,2,,,,,,,,,,,,,,,0,,,46,0
128880,set_tempo,240,1,0,,,,,,,,,,,,580271,,,,,,,
128880,note_on,240,0,2,,,,,,,,,,,,,,,0,,,49,61
128962,control_change,82,0,2,,,,,,,,,,,,,,,0,64,0,,
129120,note_on,0,0,1,,,,,,,,,,,,,,,0,,,63,49
129120,note_on,0,0,1,,,,,,,,,,,,,,,0,,,65,49
129120,note_on,0,0,1,,,,,,,,,,,,,,,0,,,61,0
129120,note_on,480,0,1,,,,,,,,,,,,,,,0,,,65,0
129120,note_on,158,0,2,,,,,,,,,,,,,,,0,,,49,0
129120,note_on,0,0,1,,,,,,,,,,,,,,,0,,,60,41
129120,set_tempo,240,1,0,,,,,,,,,,,,560329,,,,,,,
129210,note_on,0,0,1,,,,,,,,,,,,,,,0,,,60,0
129210,note_on,0,0,1,,,,,,,,,,,,,,,0,,,63,0
129210,note_on,90,0,1,,,,,,,,,,,,,,,0,,,65,0
129360,note_on,0,0,1,,,,,,,,,,,,,,,0,,,65,50
129360,note_on,0,0,1,,,,,,,,,,,,,,,0,,,61,50
129360,set_tempo,240,1,0,,,,,,,,,,,,580271,,,,,,,
129360,note_on,150,0,1,,,,,,,,,,,,,,,0,,,58,42
129450,note_on,90,0,1,,,,,,,,,,,,,,,0,,,65,0
129450,note_on,0,0,1,,,,,,,,,,,,,,,0,,,61,0
129450,note_on,0,0,1,,,,,,,,,,,,,,,0,,,58,0
129600,note_on,0,0,1,,,,,,,,,,,,,,,0,,,61,45
129600,note_on,150,0,1,,,,,,,,,,,,,,,0,,,56,38
129600,set_tempo,240,1,0,,,,,,,,,,,,554888,,,,,,,
129600,control_change,480,0,2,,,,,,,,,,,,,,,0,64,127,,
129600,note_on,0,0,1,,,,,,,,,,,,,,,0,,,65,45
129840,note_on,240,0,2,,,,,,,,,,,,,,,0,,,41,45
129840,set_tempo,240,1,0,,,,,,,,,,,,580271,,,,,,,
130080,note_on,0,0,1,,,,,,,,,,,,,,,0,,,61,0
130080,note_on,0,0,1,,,,,,,,,,,,,,,0,,,56,0
130080,note_on,480,0,1,,,,,,,,,,,,,,,0,,,65,0
130080,note_on,0,0,1,,,,,,,,,,,,,,,0,,,61,45
130080,note_on,0,0,1,,,,,,,,,,,,,,,0,,,56,38
130080,note_on,240,0,2,,,,,,,,,,,,,,,0,,,41,0
130080,note_on,0,0,1,,,,,,,,,,,,,,,0,,,65,45
130080,set_tempo,240,1,0,,,,,,,,,,,,560329,,,,,,,
130320,note_on,240,0,2,,,,,,,,,,,,,,,0,,,32,51
130320,set_tempo,240,1,0,,,,,,,,,,,,595415,,,,,,,
130369,control_change,49,0,2,,,,,,,,,,,,,,,0,64,0,,
130440,note_on,71,0,2,,,,,,,,,,,,,,,0,,,32,0
130440,note_on,360,0,1,,,,,,,,,,,,,,,0,,,65,0
130440,note_on,0,0,1,,,,,,,,,,,,,,,0,,,56,0
130440,note_on,0,0,1,,,,,,,,,,,,,,,0,,,61,0
130560,set_tempo,240,1,0,,,,,,,,,,,,560329,,,,,,,
130560,note_on,0,0,1,,,,,,,,,,,,,,,0,,,68,41
130560,note_on,0,0,1,,,,,,,,,,,,,,,0,,,65,41
130560,note_on,120,0,1,,,,,,,,,,,,,,,0,,,56,34
130650,note_on,0,0,1,,,,,,,,,,,,,,,0,,,56,0
130650,note_on,90,0,1,,,,,,,,,,,,,,,0,,,68,0
130650,note_on,0,0,1,,,,,,,,,,,,,,,0,,,65,0
130800,note_on,0,0,1,,,,,,,,,,,,,,,0,,,65,42
130800,note_on,0,0,1,,,,,,,,,,,,,,,0,,,68,42
130800,note_on,150,0,1,,,,,,,,,,,,,,,0,,,56,35
130800,set_tempo,240,1,0,,,,,,,,,,,,592300,,,,,,,
130890,note_on,0,0,1,,,,,,,,,,,,,,,0,,,65,0
130890,note_on,90,0,1,,,,,,,,,,,,,,,0,,,68,0
130890,note_on,0,0,1,,,,,,,,,,,,,,,0,,,56,0
131040,control_change,600,0,2,,,,,,,,,,,,,,,0,64,127,,
131040,note_on,0,0,1,,,,,,,,,,,,,,,0,,,61,45
131040,set_tempo,240,1,0,,,,,,,,,,,,571537,,,,,,,
131040,note_on,0,0,1,,,,,,,,,,,,,,,0,,,65,45
131040,note_on,150,0,1,,,,,,,,,,,,,,,0,,,56,38
131280,set_tempo,240,1,0,,,,,,,,,,,,589217,,,,,,,
131280,note_on,240,0,2,,,,,,,,,,,,,,,0,,,37,45
131520,note_on,0,0,1,,,,,,,,,,,,,,,0,,,65,45
131520,note_on,0,0,1,,,,,,,,,,,,,,,0,,,61,45
131520,note_on,480,0,1,,,,,,,,,,,,,,,0,,,65,0
131520,note_on,240,0,2,,,,,,,,,,,,,,,0,,,37,0
131520,note_on,0,0,1,,,,,,,,,,,,,,,0,,,56,38
131520,note_on,0,0,1,,,,,,,,,,,,,,,0,,,56,0
131520,note_on,0,0,1,,,,,,,,,,,,,,,0,,,61,0
131520,set_tempo,240,1,0,,,,,,,,,,,,618620,,,,,,,
131760,note_on,0,0,2,,,,,,,,,,,,,,,0,,,37,46
131760,control_change,240,0,2,,,,,,,,,,,,,,,0,64,0,,
131760,set_tempo,240,1,0,,,,,,,,,,,,592300,,,,,,,
131880,note_on,120,0,2,,,,,,,,,,,,,,,0,,,37,0
132000,note_on,480,0,1,,,,,,,,,,,,,,,0,,,65,0
132000,note_on,0,0,1,,,,,,,,,,,,,,,0,,,61,0
132000,note_on,0,0,1,,,,,,,,,,,,,,,0,,,56,0
132000,note_on,120,0,2,,,,,,,,,,,,,,,0,,,49,38
132120,note_on,120,0,2,,,,,,,,,,,,,,,0,,,49,0
132240,set_tempo,480,1,0,,,,,,,,,,,,615511,,,,,,,
132240,note_on,120,0,2,,,,,,,,,,,,,,,0,,,48,35
132360,note_on,120,0,2,,,,,,,,,,,,,,,0,,,48,0
132480,set_tempo,240,1,0,,,,,,,,,,,,588178,,,,,,,
132480,note_on,480,0,1,,,,,,,,,,,,,,,0,,,58,45
132480,note_on,0,0,1,,,,,,,,,,,,,,,0,,,61,53
132480,note_on,0,0,1,,,,,,,,,,,,,,,0,,,66,53
132487,control_change,127,0,2,,,,,,,,,,,,,,,0,64,127,,
132720,note_on,233,0,2,,,,,,,,,,,,,,,0,,,46,53
132720,set_tempo,240,1,0,,,,,,,,,,,,580271,,,,,,,
132960,set_tempo,240,1,0,,,,,,,,,,,,560329,,,,,,,
132960,note_on,240,0,2,,,,,,,,,,,,,,,0,,,46,0
132960,note_on,0,0,1,,,,,,,,,,,,,,,0,,,61,56
132960,note_on,480,0,1,,,,,,,,,,,,,,,0,,,66,0
132960,note_on,0,0,1,,,,,,,,,,,,,,,0,,,58,0
132960,note_on,0,0,1,,,,,,,,,,,,,,,0,,,58,47
132960,note_on,0,0,1,,,,,,,,,,,,,,,0,,,66,56
132960,note_on,0,0,1,,,,,,,,,,,,,,,0,,,61,0
133200,control_change,240,0,2,,,,,,,,,,,,,,,0,64,0,,
133200,note_on,0,0,2,,,,,,,,,,,,,,,0,,,49,64
133200,set_tempo,240,1,0,,,,,,,,,,,,580271,,,,,,,
133440,note_on,0,0,1,,,,,,,,,,,,,,,0,,,61,53
133440,note_on,0,0,1,,,,,,,,,,,,,,,0,,,68,53
133440,note_on,0,0,1,,,,,,,,,,,,,,,0,,,61,0
133440,note_on,480,0,1,,,,,,,,,,,,,,,0,,,66,0
133440,note_on,0,0,1,,,,,,,,,,,,,,,0,,,58,0
133440,note_on,0,0,1,,,,,,,,,,,,,,,0,,,58,45
133440,set_tempo,240,1,0,,,,,,,,,,,,560329,,,,,,,
133440,note_on,240,0,2,,,,,,,,,,,,,,,0,,,49,0
133530,note_on,90,0,1,,,,,,,,,,,,,,,0,,,68,0
133530,note_on,0,0,1,,,,,,,,,,,,,,,0,,,61,0
133530,note_on,0,0,1,,,,,,,,,,,,,,,0,,,58,0
133680,note_on,150,0,1,,,,,,,,,,,,,,,0,,,58,47
133680,note_on,0,0,1,,,,,,,,,,,,,,,0,,,61,56
133680,note_on,0,0,1,,,,,,,,,,,,,,,0,,,70,56
133680,set_tempo,240,1,0,,,,,,,,,,,,580271,,,,,,,
133770,note_on,90,0,1,,,,,,,,,,,,,,,0,,,70,0
133770,note_on,0,0,1,,,,,,,,,,,,,,,0,,,61,0
133770,note_on,0,0,1,,,,,,,,,,,,,,,0,,,58,0
133920,note_on,150,0,1,,,,,,,,,,,,,,,0,,,56,51
133920,set_tempo,240,1,0,,,,,,,,,,,,554888,,,,,,,
133920,note_on,0,0,1,,,,,,,,,,,,,,,0,,,65,60
133920,note_on,0,0,1,,,,,,,,,,,,,,,0,,,60,60
134005,control_change,565,0,2,,,,,,,,,,,,,,,0,64,127,,
134160,note_on,155,0,2,,,,,,,,,,,,,,,0,,,48,61
134160,set_tempo,240,1,0,,,,,,,,,,,,580271,,,,,,,
134400,set_tempo,240,1,0,,,,,,,,,,,,560329,,,,,,,
134400,note_on,240,0,2,,,,,,,,,,,,,,,0,,,48,0
134400,note_on,0,0,1,,,,,,,,,,,,,,,0,,,56,0
134400,note_on,0,0,1,,,,,,,,,,,,,,,0,,,60,0
134400,note_on,0,0,1,,,,,,,,,,,,,,,0,,,56,50
134400,note_on,0,0,1,,,,,,,,,,,,,,,0,,,60,59
134400,note_on,0,0,1,,,,,,,,,,,,,,,0,,,65,59
134400,note_on,480,0,1,,,,,,,,,,,,,,,0,,,65,0
134640,control_change,240,0,2,,,,,,,,,,,,,,,0,64,0,,
134640,note_on,0,0,2,,,,,,,,,,,,,,,0,,,36,70
134640,set_tempo,240,1,0,,,,,,,,,,,,580271,,,,,,,
134880,note_on,240,0,2,,,,,,,,,,,,,,,0,,,36,0
134880,set_tempo,240,1,0,,,,,,,,,,,,560329,,,,,,,
134880,note_on,480,0,1,,,,,,,,,,,,,,,0,,,65,0
134880,note_on,0,0,1,,,,,,,,,,,,,,,0,,,60,0
134880,note_on,0,0,1,,,,,,,,,,,,,,,0,,,56,0
134880,note_on,0,0,1,,,,,,,,,,,,,,,0,,,64,56
134880,note_on,0,0,1,,,,,,,,,,,,,,,0,,,60,56
134880,note_on,0,0,1,,,,,,,,,,,,,,,0,,,55,47
134970,note_on,0,0,1,,,,,,,,,,,,,,,0,,,55,0
134970,note_on,0,0,1,,,,,,,,,,,,,,,0,,,60,0
134970,note_on,90,0,1,,,,,,,,,,,,,,,0,,,64,0
135120,note_on,0,0,1,,,,,,,,,,,,,,,0,,,60,57
135120,note_on,150,0,1,,,,,,,,,,,,,,,0,,,55,48
135120,set_tempo,240,1,0,,,,,,,,,,,,580271,,,,,,,
135120,note_on,0,0,1,,,,,,,,,,,,,,,0,,,64,57
135210,note_on,0,0,1,,,,,,,,,,,,,,,0,,,60,0
135210,note_on,0,0,1,,,,,,,,,,,,,,,0,,,55,0
135210,note_on,90,0,1,,,,,,,,,,,,,,,0,,,64,0
135360,note_on,0,0,1,,,,,,,,,,,,,,,0,,,56,45
135360,note_on,150,0,1,,,,,,,,,,,,,,,0,,,63,53
135360,set_tempo,240,1,0,,,,,,,,,,,,594059,,,,,,,
135360,note_on,0,0,1,,,,,,,,,,,,,,,0,,,60,53
135473,control_change,593,0,2,,,,,,,,,,,,,,,0,64,127,,
135600,note_on,127,0,2,,,,,,,,,,,,,,,0,,,48,51
135600,set_tempo,240,1,0,,,,,,,,,,,,580271,,,,,,,
135840,note_on,480,0,1,,,,,,,,,,,,,,,0,,,60,0
135840,set_tempo,240,1,0,,,,,,,,,,,,560329,,,,,,,
135840,note_on,0,0,1,,,,,,,,,,,,,,,0,,,63,0
135840,note_on,0,0,1,,,,,,,,,,,,,,,0,,,56,0
135840,note_on,0,0,1,,,,,,,,,,,,,,,0,,,56,45
135840,note_on,0,0,1,,,,,,,,,,,,,,,0,,,60,53
135840,note_on,0,0,1,,,,,,,,,,,,,,,0,,,63,53
135840,note_on,240,0,2,,,,,,,,,,,,,,,0,,,48,0
136080,note_on,240,0,1,,,,,,,,,,,,,,,0,,,60,0
136080,set_tempo,240,1,0,,,,,,,,,,,,597015,,,,,,,
136080,control_change,240,0,2,,,,,,,,,,,,,,,0,64,0,,
136080,note_on,0,0,2,,,,,,,,,,,,,,,0,,,51,42
136080,note_on,0,0,1,,,,,,,,,,,,,,,0,,,61,44
136080,note_on,0,0,1,,,,,,,,,,,,,,,0,,,56,0
136080,note_on,0,0,1,,,,,,,,,,,,,,,0,,,58,37
136320,note_on,240,0,2,,,,,,,,,,,,,,,0,,,51,0
136320,note_on,240,0,1,,,,,,,,,,,,,,,0,,,61,0
136320,note_on,0,0,1,,,,,,,,,,,,,,,0,,,58,0
136320,note_on,0,0,1,,,,,,,,,,,,,,,0,,,63,0
136320,note_on,0,0,1,,,,,,,,,,,,,,,0,,,55,41
136320,note_on,0,0,1,,,,,,,,,,,,,,,0,,,58,49
136320,note_on,0,0,1,,,,,,,,,,,,,,,0,,,63,49
136320,set_tempo,240,1,0,,,,,,,,,,,,571320,,,,,,,
136410,note_on,0,0,1,,,,,,,,,,,,,,,0,,,55,0
136410,note_on,90,0,1,,,,,,,,,,,,,,,0,,,63,0
136410,note_on,0,0,1,,,,,,,,,,,,,,,0,,,58,0
136560,note_on,150,0,1,,,,,,,,,,,,,,,0,,,55,42
136560,set_tempo,240,1,0,,,,,,,,,,,,594059,,,,,,,
136560,note_on,0,0,1,,,,,,,,,,,,,,,0,,,63,50
136560,note_on,0,0,1,,,,,,,,,,,,,,,0,,,58,50
136650,note_on,90,0,1,,,,,,,,,,,,,,,0,,,63,0
136650,note_on,0,0,1,,,,,,,,,,,,,,,0,,,58,0
136650,note_on,0,0,1,,,,,,,,,,,,,,,0,,,55,0
136800,note_on,150,0,1,,,,,,,,,,,,,,,0,,,68,53
136800,note_on,0,0,1,,,,,,,,,,,,,,,0,,,60,45
136800,note_on,0,0,1,,,,,,,,,,,,,,,0,,,63,53
136800,set_tempo,240,1,0,,,,,,,,,,,,563222,,,,,,,
136913,control_change,593,0,2,,,,,,,,,,,,,,,0,64,127,,
137040,set_tempo,240,1,0,,,,,,,,,,,,621891,,,,,,,
137040,note_on,127,0,2,,,,,,,,,,,,,,,0,,,44,53
137160,note_on,120,0,2,,,,,,,,,,,,,,,0,,,44,0
137280,set_tempo,240,1,0,,,,,,,,,,,,597015,,,,,,,
137280,note_on,480,0,1,,,,,,,,,,,,,,,0,,,63,0
137280,note_on,0,0,1,,,,,,,,,,,,,,,0,,,60,0
137280,note_on,0,0,1,,,,,,,,,,,,,,,0,,,68,0
137280,note_on,0,0,1,,,,,,,,,,,,,,,0,,,60,50
137280,note_on,0,0,1,,,,,,,,,,,,,,,0,,,63,59
137280,note_on,0,0,1,,,,,,,,,,,,,,,0,,,68,59
137280,note_on,120,0,2,,,,,,,,,,,,,,,0,,,42,57
137400,note_on,120,0,2,,,,,,,,,,,,,,,0,,,42,0
137520,set_tempo,240,1,0,,,,,,,,,,,,606122,,,,,,,
137520,note_on,0,0,1,,,,,,,,,,,,,,,0,,,69,56
137520,note_on,240,0,1,,,,,,,,,,,,,,,0,,,68,0
137520,control_change,120,0,2,,,,,,,,,,,,,,,0,64,0,,
137520,note_on,0,0,2,,,,,,,,,,,,,,,0,,,41,50
137640,note_on,120,0,2,,,,,,,,,,,,,,,0,,,41,0
137760,note_on,0,0,1,,,,,,,,,,,,,,,0,,,60,0
137760,note_on,0,0,1,,,,,,,,,,,,,,,0,,,65,49
137760,note_on,0,0,1,,,,,,,,,,,,,,,0,,,63,49
137760,note_on,0,0,1,,,,,,,,,,,,,,,0,,,60,41
137760,set_tempo,240,1,0,,,,,,,,,,,,591133,,,,,,,
137760,note_on,240,0,1,,,,,,,,,,,,,,,0,,,69,0
137760,note_on,0,0,1,,,,,,,,,,,,,,,0,,,63,0
137850,note_on,0,0,1,,,,,,,,,,,,,,,0,,,63,0
137850,note_on,90,0,1,,,,,,,,,,,,,,,0,,,65,0
137850,note_on,0,0,1,,,,,,,,,,,,,,,0,,,60,0
138000,set_tempo,240,1,0,,,,,,,,,,,,612307,,,,,,,
138000,note_on,150,0,1,,,,,,,,,,,,,,,0,,,60,42
138000,note_on,0,0,1,,,,,,,,,,,,,,,0,,,63,50
138000,note_on,0,0,1,,,,,,,,,,,,,,,0,,,65,50
138090,note_on,0,0,1,,,,,,,,,,,,,,,0,,,60,0
138090,note_on,0,0,1,,,,,,,,,,,,,,,0,,,63,0
138090,note_on,90,0,1,,,,,,,,,,,,,,,0,,,65,0
138240,note_on,0,0,1,,,,,,,,,,,,,,,0,,,73,53
138240,set_tempo,240,1,0,,,,,,,,,,,,588178,,,,,,,
138240,note_on,150,0,1,,,,,,,,,,,,,,,0,,,65,53
138261,control_change,621,0,2,,,,,,,,,,,,,,,0,64,127,,
138480,set_tempo,240,1,0,,,,,,,,,,,,583204,,,,,,,
138480,note_on,219,0,2,,,,,,,,,,,,,,,0,,,58,53
138720,set_tempo,240,1,0,,,,,,,,,,,,560538,,,,,,,
138720,note_on,0,0,1,,,,,,,,,,,,,,,0,,,73,53
138720,note_on,0,0,1,,,,,,,,,,,,,,,0,,,65,53
138720,note_on,0,0,1,,,,,,,,,,,,,,,0,,,65,0
138720,note_on,480,0,1,,,,,,,,,,,,,,,0,,,73,0
138720,note_on,240,0,2,,,,,,,,,,,,,,,0,,,58,0
138960,note_on,240,0,2,,,,,,,,,,,,,,,0,,,61,61
138960,set_tempo,240,1,0,,,,,,,,,,,,580271,,,,,,,
139042,control_change,82,0,2,,,,,,,,,,,,,,,0,64,0,,
139200,note_on,158,0,2,,,,,,,,,,,,,,,0,,,61,0
139200,note_on,480,0,1,,,,,,,,,,,,,,,0,,,73,0
139200,note_on,0,0,1,,,,,,,,,,,,,,,0,,,63,49
139200,note_on,0,0,1,,,,,,,,,,,,,,,0,,,65,49
139200,note_on,0,0,1,,,,,,,,,,,,,,,0,,,72,49
139200,note_on,0,0,1,,,,,,,,,,,,,,,0,,,65,0
139200,set_tempo,240,1,0,,,,,,,,,,,,560329,,,,,,,
139290,note_on,90,0,1,,,,,,,,,,,,,,,0,,,72,0
139290,note_on,0,0,1,,,,,,,,,,,,,,,0,,,65,0
139290,note_on,0,0,1,,,,,,,,,,,,,,,0,,,63,0
139440,set_tempo,240,1,0,,,,,,,,,,,,580271,,,,,,,
139440,note_on,150,0,1,,,,,,,,,,,,,,,0,,,61,42
139440,note_on,0,0,1,,,,,,,,,,,,,,,0,,,65,50
139440,note_on,0,0,1,,,,,,,,,,,,,,,0,,,70,50
139530,note_on,90,0,1,,,,,,,,,,,,,,,0,,,70,0
139530,note_on,0,0,1,,,,,,,,,,,,,,,0,,,61,0
139530,note_on,0,0,1,,,,,,,,,,,,,,,0,,,65,0
139680,set_tempo,240,1,0,,,,,,,,,,,,563222,,,,,,,
139680,note_on,150,0,1,,,,,,,,,,,,,,,0,,,65,53
139680,note_on,0,0,1,,,,,,,,,,,,,,,0,,,60,45
139680,note_on,0,0,1,,,,,,,,,,,,,,,0,,,69,53
139701,control_change,501,0,2,,,,,,,,,,,,,,,0,64,127,,
139920,note_on,219,0,2,,,,,,,,,,,,,,,0,,,54,53
139920,set_tempo,240,1,0,,,,,,,,,,,,583204,,,,,,,
140160,note_on,0,0,1,,,,,,,,,,,,,,,0,,,69,53
140160,note_on,0,0,1,,,,,,,,,,,,,,,0,,,60,45
140160,note_on,0,0,1,,,,,,,,,,,,,,,0,,,65,0
140160,note_on,0,0,1,,,,,,,,,,,,,,,0,,,60,0
140160,note_on,480,0,1,,,,,,,,,,,,,,,0,,,69,0
140160,note_on,0,0,1,,,,,,,,,,,,,,,0,,,65,53
140160,note_on,240,0,2,,,,,,,,,,,,,,,0,,,54,0
140160,set_tempo,240,1,0,,,,,,,,,,,,549551,,,,,,,
140400,note_on,240,0,2,,,,,,,,,,,,,,,0,,,53,61
140400,set_tempo,240,1,0,,,,,,,,,,,,580271,,,,,,,
140482,control_change,82,0,2,,,,,,,,,,,,,,,0,64,0,,
140640,note_on,158,0,2,,,,,,,,,,,,,,,0,,,53,0
140640,set_tempo,240,1,0,,,,,,,,,,,,560329,,,,,,,
140640,note_on,480,0,1,,,,,,,,,,,,,,,0,,,69,0
140640,note_on,0,0,1,,,,,,,,,,,,,,,0,,,60,0
140640,note_on,0,0,1,,,,,,,,,,,,,,,0,,,65,0
140640,note_on,0,0,1,,,,,,,,,,,,,,,0,,,61,41
140640,note_on,0,0,1,,,,,,,,,,,,,,,0,,,65,49
140640,note_on,0,0,1,,,,,,,,,,,,,,,0,,,70,49
140730,note_on,90,0,1,,,,,,,,,,,,,,,0,,,70,0
140730,note_on,0,0,1,,,,,,,,,,,,,,,0,,,65,0
140730,note_on,0,0,1,,,,,,,,,,,,,,,0,,,61,0
140880,note_on,150,0,1,,,,,,,,,,,,,,,0,,,63,42
140880,note_on,0,0,1,,,,,,,,,,,,,,,0,,,65,50
140880,note_on,0,0,1,,,,,,,,,,,,,,,0,,,72,50
140880,set_tempo,240,1,0,,,,,,,,,,,,580271,,,,,,,
140970,note_on,90,0,1,,,,,,,,,,,,,,,0,,,72,0
140970,note_on,0,0,1,,,,,,,,,,,,,,,0,,,65,0
140970,note_on,0,0,1,,,,,,,,,,,,,,,0,,,63,0
141120,set_tempo,240,1,0,,,,,,,,,,,,563222,,,,,,,
141120,note_on,150,0,1,,,,,,,,,,,,,,,0,,,61,53
141120,note_on,0,0,1,,,,,,,,,,,,,,,0,,,65,53
141141,control_change,501,0,2,,,,,,,,,,,,,,,0,64,127,,
141360,note_on,219,0,2,,,,,,,,,,,,,,,0,,,46,53
141360,set_tempo,240,1,0,,,,,,,,,,,,583204,,,,,,,
141600,note_on,0,0,1,,,,,,,,,,,,,,,0,,,61,53
141600,note_on,0,0,1,,,,,,,,,,,,,,,0,,,65,53
141600,note_on,240,0,2,,,,,,,,,,,,,,,0,,,46,0
141600,set_tempo,240,1,0,,,,,,,,,,,,549551,,,,,,,
141600,note_on,0,0,1,,,,,,,,,,,,,,,0,,,61,0
141600,note_on,480,0,1,,,,,,,,,,,,,,,0,,,65,0
141840,note_on,240,0,2,,,,,,,,,,,,,,,0,,,49,61
141840,set_tempo,240,1,0,,,,,,,,,,,,580271,,,,,,,
141922,control_change,82,0,2,,,,,,,,,,,,,,,0,64,0,,
142080,note_on,158,0,2,,,,,,,,,,,,,,,0,,,49,0
142080,set_tempo,240,1,0,,,,,,,,,,,,560329,,,,,,,
142080,note_on,0,0,1,,,,,,,,,,,,,,,0,,,63,49
142080,note_on,0,0,1,,,,,,,,,,,,,,,0,,,60,41
142080,note_on,0,0,1,,,,,,,,,,,,,,,0,,,61,0
142080,note_on,480,0,1,,,,,,,,,,,,,,,0,,,65,0
142080,note_on,0,0,1,,,,,,,,,,,,,,,0,,,65,49
142170,note_on,90,0,1,,,,,,,,,,,,,,,0,,,65,0
142170,note_on,0,0,1,,,,,,,,,,,,,,,0,,,63,0
142170,note_on,0,0,1,,,,,,,,,,,,,,,0,,,60,0
142320,note_on,0,0,1,,,,,,,,,,,,,,,0,,,65,50
142320,note_on,0,0,1,,,,,,,,,,,,,,,0,,,61,50
142320,set_tempo,240,1,0,,,,,,,,,,,,580271,,,,,,,
142320,note_on,150,0,1,,,,,,,,,,,,,,,0,,,58,42
142410,note_on,0,0,1,,,,,,,,,,,,,,,0,,,58,0
142410,note_on,0,0,1,,,,,,,,,,,,,,,0,,,61,0
142410,note_on,90,0,1,,,,,,,,,,,,,,,0,,,65,0
142560,note_on,0,0,1,,,,,,,,,,,,,,,0,,,61,45
142560,note_on,150,0,1,,,,,,,,,,,,,,,0,,,56,38
142560,set_tempo,240,1,0,,,,,,,,,,,,554888,,,,,,,
142560,note_on,0,0,1,,,,,,,,,,,,,,,0,,,65,45
142560,control_change,480,0,2,,,,,,,,,,,,,,,0,64,127,,
142800,note_on,240,0,2,,,,,,,,,,,,,,,0,,,41,53
142800,set_tempo,240,1,0,,,,,,,,,,,,638570,,,,,,,
143040,set_tempo,240,1,0,,,,,,,,,,,,582468,,,,,,,
143040,note_on,0,0,1,,,,,,,,,,,,,,,0,,,65,45
143040,note_on,0,0,1,,,,,,,,,,,,,,,0,,,56,38
143040,note_on,240,0,2,,,,,,,,,,,,,,,0,,,41,0
143040,note_on,480,0,1,,,,,,,,,,,,,,,0,,,65,0
143040,note_on,0,0,1,,,,,,,,,,,,,,,0,,,61,0
143040,note_on,0,0,1,,,,,,,,,,,,,,,0,,,56,0
143040,note_on,0,0,1,,,,,,,,,,,,,,,0,,,61,45
143280,note_on,240,0,2,,,,,,,,,,,,,,,0,,,29,60
143280,set_tempo,240,1,0,,,,,,,,,,,,625130,,,,,,,
143329,control_change,49,0,2,,,,,,,,,,,,,,,0,64,0,,
143520,note_on,0,0,1,,,,,,,,,,,,,,,0,,,60,41
143520,note_on,0,0,1,,,,,,,,,,,,,,,0,,,63,41
143520,note_on,191,0,2,,,,,,,,,,,,,,,0,,,29,0
143520,note_on,0,0,1,,,,,,,,,,,,,,,0,,,56,0
143520,note_on,0,0,1,,,,,,,,,,,,,,,0,,,54,34
143520,note_on,0,0,1,,,,,,,,,,,,,,,0,,,57,41
143520,note_on,0,0,1,,,,,,,,,,,,,,,0,,,61,0
143520,note_on,480,0,1,,,,,,,,,,,,,,,0,,,65,0
143520,set_tempo,240,1,0,,,,,,,,,,,,573998,,,,,,,
143610,note_on,0,0,1,,,,,,,,,,,,,,,0,,,57,0
143610,note_on,0,0,1,,,,,,,,,,,,,,,0,,,60,0
143610,note_on,90,0,1,,,,,,,,,,,,,,,0,,,63,0
143610,note_on,0,0,1,,,,,,,,,,,,,,,0,,,54,0
143760,note_on,150,0,1,,,,,,,,,,,,,,,0,,,54,35
143760,note_on,0,0,1,,,,,,,,,,,,,,,0,,,57,35
143760,note_on,0,0,1,,,,,,,,,,,,,,,0,,,60,42
143760,note_on,0,0,1,,,,,,,,,,,,,,,0,,,63,42
143760,set_tempo,240,1,0,,,,,,,,,,,,592300,,,,,,,
143850,note_on,0,0,1,,,,,,,,,,,,,,,0,,,57,0
143850,note_on,0,0,1,,,,,,,,,,,,,,,0,,,54,0
143850,note_on,0,0,1,,,,,,,,,,,,,,,0,,,60,0
143850,note_on,90,0,1,,,,,,,,,,,,,,,0,,,63,0
144000,note_on,0,0,1,,,,,,,,,,,,,,,0,,,58,45
144000,note_on,0,0,1,,,,,,,,,,,,,,,0,,,61,45
144000,note_on,150,0,1,,,,,,,,,,,,,,,0,,,53,38
144000,control_change,480,0,2,,,,,,,,,,,,,,,0,64,127,,
144000,set_tempo,240,1,0,,,,,,,,,,,,571537,,,,,,,
144240,note_on,240,0,2,,,,,,,,,,,,,,,0,,,34,45
144240,set_tempo,240,1,0,,,,,,,,,,,,589217,,,,,,,
144480,note_on,480,0,1,,,,,,,,,,,,,,,0,,,61,0
144480,note_on,0,0,1,,,,,,,,,,,,,,,0,,,58,0
144480,note_on,0,0,1,,,,,,,,,,,,,,,0,,,53,0
144480,note_on,0,0,1,,,,,,,,,,,,,,,0,,,53,38
144480,note_on,0,0,1,,,,,,,,,,,,,,,0,,,58,45
144480,note_on,0,0,1,,,,,,,,,,,,,,,0,,,61,45
144480,note_on,240,0,2,,,,,,,,,,,,,,,0,,,34,0
144480,set_tempo,240,1,0,,,,,,,,,,,,580271,,,,,,,
144720,note_on,0,0,2,,,,,,,,,,,,,,,0,,,46,46
144720,set_tempo,240,1,0,,,,,,,,,,,,592300,,,,,,,
144720,control_change,240,0,2,,,,,,,,,,,,,,,0,64,0,,
144840,note_on,120,0,2,,,,,,,,,,,,,,,0,,,46,0
144960,note_on,0,0,1,,,,,,,,,,,,,,,0,,,53,0
144960,note_on,0,0,1,,,,,,,,,,,,,,,0,,,58,0
144960,note_on,120,0,2,,,,,,,,,,,,,,,0,,,49,38
144960,note_on,480,0,1,,,,,,,,,,,,,,,0,,,61,0
145080,note_on,120,0,2,,,,,,,,,,,,,,,0,,,49,0
145200,note_on,120,0,2,,,,,,,,,,,,,,,0,,,48,35
145200,set_tempo,480,1,0,,,,,,,,,,,,621891,,,,,,,
145320,note_on,120,0,2,,,,,,,,,,,,,,,0,,,48,0
145440,set_tempo,240,1,0,,,,,,,,,,,,609199,,,,,,,
145440,note_on,0,0,1,,,,,,,,,,,,,,,0,,,66,53
145440,note_on,0,0,1,,,,,,,,,,,,,,,0,,,61,53
145440,note_on,480,0,1,,,,,,,,,,,,,,,0,,,58,45
145447,control_change,127,0,2,,,,,,,,,,,,,,,0,64,127,,
145680,set_tempo,240,1,0,,,,,,,,,,,,591133,,,,,,,
145680,note_on,233,0,2,,,,,,,,,,,,,,,0,,,46,53
145920,note_on,240,0,2,,,,,,,,,,,,,,,0,,,46,0
145920,note_on,480,0,1,,,,,,,,,,,,,,,0,,,66,0
145920,note_on,0,0,1,,,,,,,,,,,,,,,0,,,61,0
145920,note_on,0,0,1,,,,,,,,,,,,,,,0,,,58,0
145920,note_on,0,0,1,,,,,,,,,,,,,,,0,,,58,47
145920,note_on,0,0,1,,,,,,,,,,,,,,,0,,,61,56
145920,note_on,0,0,1,,,,,,,,,,,,,,,0,,,66,56
145920,set_tempo,240,1,0,,,,,,,,,,,,571320,,,,,,,
146160,control_change,240,0,2,,,,,,,,,,,,,,,0,64,0,,
146160,note_on,0,0,2,,,,,,,,,,,,,,,0,,,49,64
146160,set_tempo,240,1,0,,,,,,,,,,,,580271,,,,,,,
146400,set_tempo,240,1,0,,,,,,,,,,,,568613,,,,,,,
146400,note_on,0,0,1,,,,,,,,,,,,,,,0,,,61,53
146400,note_on,0,0,1,,,,,,,,,,,,,,,0,,,58,45
146400,note_on,240,0,2,,,,,,,,,,,,,,,0,,,49,0
146400,note_on,0,0,1,,,,,,,,,,,,,,,0,,,58,0
146400,note_on,0,0,1,,,,,,,,,,,,,,,0,,,61,0
146400,note_on,480,0,1,,,,,,,,,,,,,,,0,,,66,0
146400,note_on,0,0,1,,,,,,,,,,,,,,,0,,,68,53
146490,note_on,90,0,1,,,,,,,,,,,,,,,0,,,68,0
146490,note_on,0,0,1,,,,,,,,,,,,,,,0,,,61,0
146490,note_on,0,0,1,,,,,,,,,,,,,,,0,,,58,0
146640,set_tempo,240,1,0,,,,,,,,,,,,580271,,,,,,,
146640,note_on,0,0,1,,,,,,,,,,,,,,,0,,,70,56
146640,note_on,150,0,1,,,,,,,,,,,,,,,0,,,58,47
146640,note_on,0,0,1,,,,,,,,,,,,,,,0,,,61,56
146730,note_on,90,0,1,,,,,,,,,,,,,,,0,,,70,0
146730,note_on,0,0,1,,,,,,,,,,,,,,,0,,,61,0
146730,note_on,0,0,1,,,,,,,,,,,,,,,0,,,58,0
146880,set_tempo,240,1,0,,,,,,,,,,,,563222,,,,,,,
146880,note_on,150,0,1,,,,,,,,,,,,,,,0,,,56,51
146880,note_on,0,0,1,,,,,,,,,,,,,,,0,,,60,60
146880,note_on,0,0,1,,,,,,,,,,,,,,,0,,,65,60
146965,control_change,565,0,2,,,,,,,,,,,,,,,0,64,127,,
147120,set_tempo,240,1,0,,,,,,,,,,,,580271,,,,,,,
147120,note_on,155,0,2,,,,,,,,,,,,,,,0,,,48,61
147360,note_on,0,0,1,,,,,,,,,,,,,,,0,,,65,59
147360,set_tempo,240,1,0,,,,,,,,,,,,563222,,,,,,,
147360,note_on,0,0,1,,,,,,,,,,,,,,,0,,,56,50
147360,note_on,0,0,1,,,,,,,,,,,,,,,0,,,56,0
147360,note_on,0,0,1,,,,,,,,,,,,,,,0,,,60,0
147360,note_on,240,0,2,,,,,,,,,,,,,,,0,,,48,0
147360,note_on,0,0,1,,,,,,,,,,,,,,,0,,,60,59
147360,note_on,480,0,1,,,,,,,,,,,,,,,0,,,65,0
147600,set_tempo,240,1,0,,,,,,,,,,,,580271,,,,,,,
147600,note_on,0,0,2,,,,,,,,,,,,,,,0,,,36,70
147600,control_change,240,0,2,,,,,,,,,,,,,,,0,64,0,,
147840,set_tempo,240,1,0,,,,,,,,,,,,565878,,,,,,,
147840,note_on,240,0,2,,,,,,,,,,,,,,,0,,,36,0
147840,note_on,0,0,1,,,,,,,,,,,,,,,0,,,56,0
147840,note_on,0,0,1,,,,,,,,,,,,,,,0,,,64,56
147840,note_on,0,0,1,,,,,,,,,,,,,,,0,,,60,56
147840,note_on,0,0,1,,,,,,,,,,,,,,,0,,,55,47
147840,note_on,0,0,1,,,,,,,,,,,,,,,0,,,60,0
147840,note_on,480,0,1,,,,,,,,,,,,,,,0,,,65,0
147930,note_on,0,0,1,,,,,,,,,,,,,,,0,,,55,0
147930,note_on,0,0,1,,,,,,,,,,,,,,,0,,,60,0
147930,note_on,90,0,1,,,,,,,,,,,,,,,0,,,64,0
148080,note_on,0,0,1,,,,,,,,,,,,,,,0,,,64,57
148080,note_on,0,0,1,,,,,,,,,,,,,,,0,,,60,57
148080,note_on,150,0,1,,,,,,,,,,,,,,,0,,,55,48
148080,set_tempo,240,1,0,,,,,,,,,,,,580271,,,,,,,
148170,note_on,0,0,1,,,,,,,,,,,,,,,0,,,60,0
148170,note_on,0,0,1,,,,,,,,,,,,,,,0,,,55,0
148170,note_on,90,0,1,,,,,,,,,,,,,,,0,,,64,0
148320,set_tempo,240,1,0,,,,,,,,,,,,594059,,,,,,,
148320,note_on,0,0,1,,,,,,,,,,,,,,,0,,,60,53
148320,note_on,150,0,1,,,,,,,,,,,,,,,0,,,63,53
148320,note_on,0,0,1,,,,,,,,,,,,,,,0,,,56,45
148433,control_change,593,0,2,,,,,,,,,,,,,,,0,64,127,,
148560,set_tempo,240,1,0,,,,,,,,,,,,580271,,,,,,,
148560,note_on,127,0,2,,,,,,,,,,,,,,,0,,,48,51
148800,note_on,0,0,1,,,,,,,,,,,,,,,0,,,60,53
148800,note_on,480,0,1,,,,,,,,,,,,,,,0,,,60,0
148800,note_on,0,0,1,,,,,,,,,,,,,,,0,,,56,0
148800,set_tempo,240,1,0,,,,,,,,,,,,560329,,,,,,,
148800,note_on,0,0,1,,,,,,,,,,,,,,,0,,,63,0
148800,note_on,240,0,2,,,,,,,,,,,,,,,0,,,48,0
148800,note_on,0,0,1,,,,,,,,,,,,,,,0,,,63,53
148800,note_on,0,0,1,,,,,,,,,,,,,,,0,,,56,45
149040,control_change,240,0,2,,,,,,,,,,,,,,,0,64,0,,
149040,note_on,0,0,2,,,,,,,,,,,,,,,0,,,51,42
149040,set_tempo,240,1,0,,,,,,,,,,,,597015,,,,,,,
149040,note_on,240,0,1,,,,,,,,,,,,,,,0,,,60,0
149040,note_on,0,0,1,,,,,,,,,,,,,,,0,,,56,0
149040,note_on,0,0,1,,,,,,,,,,,,,,,0,,,58,37
149040,note_on,0,0,1,,,,,,,,,,,,,,,0,,,61,44
149280,note_on,0,0,1,,,,,,,,,,,,,,,0,,,58,0
149280,note_on,240,0,1,,,,,,,,,,,,,,,0,,,61,0
149280,set_tempo,240,1,0,,,,,,,,,,,,571320,,,,,,,
149280,note_on,0,0,1,,,,,,,,,,,,,,,0,,,63,49
149280,note_on,0,0,1,,,,,,,,,,,,,,,0,,,58,49
149280,note_on,0,0,1,,,,,,,,,,,,,,,0,,,55,41
149280,note_on,240,0,2,,,,,,,,,,,,,,,0,,,51,0
149280,note_on,0,0,1,,,,,,,,,,,,,,,0,,,63,0
149370,note_on,0,0,1,,,,,,,,,,,,,,,0,,,55,0
149370,note_on,90,0,1,,,,,,,,,,,,,,,0,,,63,0
149370,note_on,0,0,1,,,,,,,,,,,,,,,0,,,58,0
149520,note_on,150,0,1,,,,,,,,,,,,,,,0,,,55,42
149520,note_on,0,0,1,,,,,,,,,,,,,,,0,,,58,50
149520,note_on,0,0,1,,,,,,,,,,,,,,,0,,,63,50
149520,set_tempo,240,1,0,,,,,,,,,,,,594059,,,,,,,
149610,note_on,90,0,1,,,,,,,,,,,,,,,0,,,63,0
149610,note_on,0,0,1,,,,,,,,,,,,,,,0,,,58,0
149610,note_on,0,0,1,,,,,,,,,,,,,,,0,,,55,0
149760,note_on,150,0,1,,,,,,,,,,,,,,,0,,,68,53
149760,note_on,0,0,1,,,,,,,,,,,,,,,0,,,60,45
149760,set_tempo,240,1,0,,,,,,,,,,,,563222,,,,,,,
149760,note_on,0,0,1,,,,,,,,,,,,,,,0,,,63,53
149873,control_change,593,0,2,,,,,,,,,,,,,,,0,64,127,,
150000,set_tempo,240,1,0,,,,,,,,,,,,621891,,,,,,,
150000,note_on,127,0,2,,,,,,,,,,,,,,,0,,,44,53
150120,note_on,120,0,2,,,,,,,,,,,,,,,0,,,44,0
150240,note_on,480,0,1,,,,,,,,,,,,,,,0,,,63,0
150240,note_on,0,0,1,,,,,,,,,,,,,,,0,,,60,0
150240,note_on,0,0,1,,,,,,,,,,,,,,,0,,,68,0
150240,note_on,0,0,1,,,,,,,,,,,,,,,0,,,60,50
150240,note_on,0,0,1,,,,,,,,,,,,,,,0,,,63,50
150240,note_on,0,0,1,,,,,,,,,,,,,,,0,,,68,59
150240,set_tempo,240,1,0,,,,,,,,,,,,648929,,,,,,,
150240,note_on,120,0,2,,,,,,,,,,,,,,,0,,,42,57
150360,note_on,120,0,2,,,,,,,,,,,,,,,0,,,42,0
150480,note_on,0,0,2,,,,,,,,,,,,,,,0,,,41,50
150480,note_on,240,0,1,,,,,,,,,,,,,,,0,,,68,0
150480,note_on,0,0,1,,,,,,,,,,,,,,,0,,,69,56
150480,set_tempo,240,1,0,,,,,,,,,,,,606122,,,,,,,
150480,control_change,120,0,2,,,,,,,,,,,,,,,0,64,0,,
150600,note_on,120,0,2,,,,,,,,,,,,,,,0,,,41,0
150720,note_on,0,0,1,,,,,,,,,,,,,,,0,,,60,0
150720,note_on,0,0,1,,,,,,,,,,,,,,,0,,,65,49
150720,note_on,240,0,1,,,,,,,,,,,,,,,0,,,69,0
150720,note_on,0,0,1,,,,,,,,,,,,,,,0,,,63,0
150720,note_on,0,0,1,,,,,,,,,,,,,,,0,,,63,41
150720,set_tempo,240,1,0,,,,,,,,,,,,591133,,,,,,,
150720,note_on,0,0,1,,,,,,,,,,,,,,,0,,,60,41
150810,note_on,90,0,1,,,,,,,,,,,,,,,0,,,65,0
150810,note_on,0,0,1,,,,,,,,,,,,,,,0,,,63,0
150810,note_on,0,0,1,,,,,,,,,,,,,,,0,,,60,0
150960,note_on,150,0,1,,,,,,,,,,,,,,,0,,,60,42
150960,note_on,0,0,1,,,,,,,,,,,,,,,0,,,63,42
150960,note_on,0,0,1,,,,,,,,,,,,,,,0,,,65,50
150960,set_tempo,240,1,0,,,,,,,,,,,,612307,,,,,,,
151050,note_on,90,0,1,,,,,,,,,,,,,,,0,,,65,0
151050,note_on,0,0,1,,,,,,,,,,,,,,,0,,,63,0
151050,note_on,0,0,1,,,,,,,,,,,,,,,0,,,60,0
151200,note_on,150,0,1,,,,,,,,,,,,,,,0,,,65,53
151200,note_on,0,0,1,,,,,,,,,,,,,,,0,,,73,53
151200,set_tempo,240,1,0,,,,,,,,,,,,588178,,,,,,,
151221,control_change,621,0,2,,,,,,,,,,,,,,,0,64,127,,
151440,set_tempo,240,1,0,,,,,,,,,,,,583204,,,,,,,
151440,note_on,219,0,2,,,,,,,,,,,,,,,0,,,58,53
151680,note_on,240,0,2,,,,,,,,,,,,,,,0,,,58,0
151680,note_on,480,0,1,,,,,,,,,,,,,,,0,,,73,0
151680,note_on,0,0,1,,,,,,,,,,,,,,,0,,,73,53
151680,note_on,0,0,1,,,,,,,,,,,,,,,0,,,65,53
151680,note_on,0,0,1,,,,,,,,,,,,,,,0,,,65,0
151680,set_tempo,240,1,0,,,,,,,,,,,,560538,,,,,,,
151920,note_on,240,0,2,,,,,,,,,,,,,,,0,,,61,61
151920,set_tempo,240,1,0,,,,,,,,,,,,580271,,,,,,,
152002,control_change,82,0,2,,,,,,,,,,,,,,,0,64,0,,
152160,note_on,0,0,1,,,,,,,,,,,,,,,0,,,72,49
152160,note_on,0,0,1,,,,,,,,,,,,,,,0,,,65,49
152160,note_on,0,0,1,,,,,,,,,,,,,,,0,,,63,41
152160,note_on,0,0,1,,,,,,,,,,,,,,,0,,,65,0
152160,note_on,480,0,1,,,,,,,,,,,,,,,0,,,73,0
152160,set_tempo,240,1,0,,,,,,,,,,,,560329,,,,,,,
152160,note_on,158,0,2,,,,,,,,,,,,,,,0,,,61,0
152250,note_on,0,0,1,,,,,,,,,,,,,,,0,,,63,0
152250,note_on,0,0,1,,,,,,,,,,,,,,,0,,,65,0
152250,note_on,90,0,1,,,,,,,,,,,,,,,0,,,72,0
152400,note_on,0,0,1,,,,,,,,,,,,,,,0,,,65,50
152400,note_on,150,0,1,,,,,,,,,,,,,,,0,,,61,42
152400,set_tempo,240,1,0,,,,,,,,,,,,580271,,,,,,,
152400,note_on,0,0,1,,,,,,,,,,,,,,,0,,,70,50
152490,note_on,90,0,1,,,,,,,,,,,,,,,0,,,70,0
152490,note_on,0,0,1,,,,,,,,,,,,,,,0,,,65,0
152490,note_on,0,0,1,,,,,,,,,,,,,,,0,,,61,0
152640,set_tempo,240,1,0,,,,,,,,,,,,563222,,,,,,,
152640,note_on,150,0,1,,,,,,,,,,,,,,,0,,,65,53
152640,note_on,0,0,1,,,,,,,,,,,,,,,0,,,60,45
152640,note_on,0,0,1,,,,,,,,,,,,,,,0,,,69,53
152661,control_change,501,0,2,,,,,,,,,,,,,,,0,64,127,,
152880,note_on,219,0,2,,,,,,,,,,,,,,,0,,,54,53
152880,set_tempo,240,1,0,,,,,,,,,,,,583204,,,,,,,
153120,note_on,240,0,2,,,,,,,,,,,,,,,0,,,54,0
153120,note_on,480,0,1,,,,,,,,,,,,,,,0,,,69,0
153120,note_on,0,0,1,,,,,,,,,,,,,,,0,,,60,0
153120,note_on,0,0,1,,,,,,,,,,,,,,,0,,,65,53
153120,set_tempo,240,1,0,,,,,,,,,,,,549551,,,,,,,
153120,note_on,0,0,1,,,,,,,,,,,,,,,0,,,65,0
153120,note_on,0,0,1,,,,,,,,,,,,,,,0,,,60,45
153120,note_on,0,0,1,,,,,,,,,,,,,,,0,,,69,53
153360,set_tempo,240,1,0,,,,,,,,,,,,580271,,,,,,,
153360,note_on,240,0,2,,,,,,,,,,,,,,,0,,,53,61
153442,control_change,82,0,2,,,,,,,,,,,,,,,0,64,0,,
153600,note_on,480,0,1,,,,,,,,,,,,,,,0,,,69,0
153600,note_on,0,0,1,,,,,,,,,,,,,,,0,,,60,0
153600,note_on,0,0,1,,,,,,,,,,,,,,,0,,,65,0
153600,note_on,158,0,2,,,,,,,,,,,,,,,0,,,53,0
153600,note_on,0,0,1,,,,,,,,,,,,,,,0,,,61,41
153600,note_on,0,0,1,,,,,,,,,,,,,,,0,,,65,49
153600,note_on,0,0,1,,,,,,,,,,,,,,,0,,,70,49
153600,set_tempo,240,1,0,,,,,,,,,,,,560329,,,,,,,
153690,note_on,0,0,1,,,,,,,,,,,,,,,0,,,61,0
153690,note_on,90,0,1,,,,,,,,,,,,,,,0,,,70,0
153690,note_on,0,0,1,,,,,,,,,,,,,,,0,,,65,0
153840,note_on,0,0,1,,,,,,,,,,,,,,,0,,,65,50
153840,note_on,150,0,1,,,,,,,,,,,,,,,0,,,63,42
153840,set_tempo,240,1,0,,,,,,,,,,,,580271,,,,,,,
153840,note_on,0,0,1,,,,,,,,,,,,,,,0,,,72,50
153930,note_on,90,0,1,,,,,,,,,,,,,,,0,,,72,0
153930,note_on,0,0,1,,,,,,,,,,,,,,,0,,,65,0
153930,note_on,0,0,1,,,,,,,,,,,,,,,0,,,63,0
154080,note_on,0,0,1,,,,,,,,,,,,,,,0,,,65,53
154080,note_on,150,0,1,,,,,,,,,,,,,,,0,,,61,53
154080,set_tempo,240,1,0,,,,,,,,,,,,563222,,,,,,,
154101,control_change,501,0,2,,,,,,,,,,,,,,,0,64,127,,
154320,set_tempo,240,1,0,,,,,,,,,,,,583204,,,,,,,
154320,note_on,219,0,2,,,,,,,,,,,,,,,0,,,46,53
154560,set_tempo,240,1,0,,,,,,,,,,,,549551,,,,,,,
154560,note_on,240,0,2,,,,,,,,,,,,,,,0,,,46,0
154560,note_on,0,0,1,,,,,,,,,,,,,,,0,,,61,53
154560,note_on,0,0,1,,,,,,,,,,,,,,,0,,,65,53
154560,note_on,0,0,1,,,,,,,,,,,,,,,0,,,61,0
154560,note_on,480,0,1,,,,,,,,,,,,,,,0,,,65,0
154800,note_on,240,0,2,,,,,,,,,,,,,,,0,,,49,61
154800,set_tempo,240,1,0,,,,,,,,,,,,580271,,,,,,,
154882,control_change,82,0,2,,,,,,,,,,,,,,,0,64,0,,
155040,note_on,158,0,2,,,,,,,,,,,,,,,0,,,49,0
155040,note_on,0,0,1,,,,,,,,,,,,,,,0,,,65,49
155040,note_on,0,0,1,,,,,,,,,,,,,,,0,,,63,49
155040,note_on,0,0,1,,,,,,,,,,,,,,,0,,,60,41
155040,note_on,0,0,1,,,,,,,,,,,,,,,0,,,61,0
155040,note_on,480,0,1,,,,,,,,,,,,,,,0,,,65,0
155040,set_tempo,240,1,0,,,,,,,,,,,,560329,,,,,,,
155130,note_on,90,0,1,,,,,,,,,,,,,,,0,,,65,0
155130,note_on,0,0,1,,,,,,,,,,,,,,,0,,,60,0
155130,note_on,0,0,1,,,,,,,,,,,,,,,0,,,63,0
155280,note_on,0,0,1,,,,,,,,,,,,,,,0,,,61,50
155280,note_on,150,0,1,,,,,,,,,,,,,,,0,,,58,42
155280,note_on,0,0,1,,,,,,,,,,,,,,,0,,,65,50
155280,set_tempo,240,1,0,,,,,,,,,,,,580271,,,,,,,
155370,note_on,90,0,1,,,,,,,,,,,,,,,0,,,65,0
155370,note_on,0,0,1,,,,,,,,,,,,,,,0,,,61,0
155370,note_on,0,0,1,,,,,,,,,,,,,,,0,,,58,0
155520,note_on,0,0,1,,,,,,,,,,,,,,,0,,,65,45
155520,note_on,0,0,1,,,,,,,,,,,,,,,0,,,61,45
155520,note_on,150,0,1,,,,,,,,,,,,,,,0,,,56,38
155520,control_change,480,0,2,,,,,,,,,,,,,,,0,64,127,,
155520,set_tempo,240,1,0,,,,,,,,,,,,554888,,,,,,,
155760,set_tempo,240,1,0,,,,,,,,,,,,638570,,,,,,,
155760,note_on,240,0,2,,,,,,,,,,,,,,,0,,,41,53
156000,note_on,240,0,2,,,,,,,,,,,,,,,0,,,41,0
156000,note_on,0,0,1,,,,,,,,,,,,,,,0,,,65,45
156000,note_on,0,0,1,,,,,,,,,,,,,,,0,,,61,45
156000,note_on,0,0,1,,,,,,,,,,,,,,,0,,,61,0
156000,note_on,0,0,1,,,,,,,,,,,,,,,0,,,56,0
156000,note_on,480,0,1,,,,,,,,,,,,,,,0,,,65,0
156000,set_tempo,240,1,0,,,,,,,,,,,,600000,,,,,,,
156000,note_on,0,0,1,,,,,,,,,,,,,,,0,,,56,38
156240,set_tempo,240,1,0,,,,,,,,,,,,625130,,,,,,,
156240,note_on,240,0,2,,,,,,,,,,,,,,,0,,,29,60
156289,control_change,49,0,2,,,,,,,,,,,,,,,0,64,0,,
156480,note_on,480,0,1,,,,,,,,,,,,,,,0,,,65,0
156480,note_on,0,0,1,,,,,,,,,,,,,,,0,,,56,0
156480,note_on,0,0,1,,,,,,,,,,,,,,,0,,,54,34
156480,note_on,0,0,1,,,,,,,,,,,,,,,0,,,57,34
156480,set_tempo,240,1,0,,,,,,,,,,,,591133,,,,,,,
156480,note_on,191,0,2,,,,,,,,,,,,,,,0,,,29,0
156480,note_on,0,0,1,,,,,,,,,,,,,,,0,,,61,0
156480,note_on,0,0,1,,,,,,,,,,,,,,,0,,,60,41
156480,note_on,0,0,1,,,,,,,,,,,,,,,0,,,63,41
156570,note_on,90,0,1,,,,,,,,,,,,,,,0,,,63,0
156570,note_on,0,0,1,,,,,,,,,,,,,,,0,,,57,0
156570,note_on,0,0,1,,,,,,,,,,,,,,,0,,,54,0
156570,note_on,0,0,1,,,,,,,,,,,,,,,0,,,60,0
156720,note_on,0,0,1,,,,,,,,,,,,,,,0,,,57,35
156720,set_tempo,240,1,0,,,,,,,,,,,,612307,,,,,,,
156720,note_on,0,0,1,,,,,,,,,,,,,,,0,,,60,42
156720,note_on,0,0,1,,,,,,,,,,,,,,,0,,,63,42
156720,note_on,150,0,1,,,,,,,,,,,,,,,0,,,54,35
156810,note_on,0,0,1,,,,,,,,,,,,,,,0,,,60,0
156810,note_on,0,0,1,,,,,,,,,,,,,,,0,,,54,0
156810,note_on,90,0,1,,,,,,,,,,,,,,,0,,,63,0
156810,note_on,0,0,1,,,,,,,,,,,,,,,0,,,57,0
156960,note_on,150,0,1,,,,,,,,,,,,,,,0,,,53,38
156960,control_change,480,0,2,,,,,,,,,,,,,,,0,64,127,,
156960,set_tempo,240,1,0,,,,,,,,,,,,628404,,,,,,,
156960,note_on,0,0,1,,,,,,,,,,,,,,,0,,,61,45
156960,note_on,0,0,1,,,,,,,,,,,,,,,0,,,58,45
157200,note_on,240,0,2,,,,,,,,,,,,,,,0,,,34,45
157200,set_tempo,240,1,0,,,,,,,,,,,,667037,,,,,,,
157440,note_on,0,0,1,,,,,,,,,,,,,,,0,,,61,45
157440,note_on,0,0,1,,,,,,,,,,,,,,,0,,,58,45
157440,note_on,0,0,1,,,,,,,,,,,,,,,0,,,53,38
157440,note_on,0,0,1,,,,,,,,,,,,,,,0,,,53,0
157440,note_on,480,0,1,,,,,,,,,,,,,,,0,,,61,0
157440,note_on,240,0,2,,,,,,,,,,,,,,,0,,,34,0
157440,note_on,0,0,1,,,,,,,,,,,,,,,0,,,58,0
157680,note_on,240,0,2,,,,,,,,,,,,,,,0,,,46,46
157920,note_on,0,0,1,,,,,,,,,,,,,,,0,,,53,0
157920,note_on,240,0,2,,,,,,,,,,,,,,,0,,,46,0
157920,note_on,480,0,1,,,,,,,,,,,,,,,0,,,61,0
157920,note_on,0,0,1,,,,,,,,,,,,,,,0,,,58,0
157947,control_change,27,0,2,,,,,,,,,,,,,,,0,64,0,,
158160,set_tempo,960,1,0,,,,,,,,,,,,621891,,,,,,,
158400,note_on,0,0,2,,,,,,,,,,,,,,,0,,,62,45
158400,note_on,0,0,2,,,,,,,,,,,,,,,0,,,58,37
158400,control_change,453,0,2,,,,,,,,,,,,,,,0,64,127,,
158400,note_on,480,0,1,,,,,,,,,,,,,,,0,,,82,64
158400,key_signature,240,1,0,,,,,,,,,,,Bb,,,,,,,,
158400,set_tempo,0,1,0,,,,,,,,,,,,461787,,,,,,,
158400,marker,0,1,0,,,,,,,,,,,,,,,,,,,
158520,note_on,0,0,2,,,,,,,,,,,,,,,0,,,58,0
158520,note_on,120,0,2,,,,,,,,,,,,,,,0,,,62,0
158520,note_on,0,0,2,,,,,,,,,,,,,,,0,,,65,30
158640,note_on,0,0,1,,,,,,,,,,,,,,,0,,,81,56
158640,note_on,240,0,1,,,,,,,,,,,,,,,0,,,82,0
158640,note_on,120,0,2,,,,,,,,,,,,,,,0,,,65,0
158640,note_on,0,0,2,,,,,,,,,,,,,,,0,,,58,29
158640,note_on,0,0,2,,,,,,,,,,,,,,,0,,,62,35
158647,control_change,7,0,2,,,,,,,,,,,,,,,0,64,0,,
158682,control_change,35,0,2,,,,,,,,,,,,,,,0,64,127,,
158760,note_on,78,0,2,,,,,,,,,,,,,,,0,,,62,0
158760,note_on,0,0,2,,,,,,,,,,,,,,,0,,,65,29
158760,note_on,0,0,2,,,,,,,,,,,,,,,0,,,58,0
158880,note_on,240,0,1,,,,,,,,,,,,,,,0,,,81,0
158880,note_on,120,0,2,,,,,,,,,,,,,,,0,,,65,0
158880,control_change,0,0,2,,,,,,,,,,,,,,,0,64,0,,
158880,note_on,0,0,2,,,,,,,,,,,,,,,0,,,58,29
158880,note_on,0,0,2,,,,,,,,,,,,,,,0,,,62,35
158880,note_on,0,0,1,,,,,,,,,,,,,,,0,,,82,56
158908,control_change,28,0,2,,,,,,,,,,,,,,,0,64,127,,
159000,note_on,0,0,2,,,,,,,,,,,,,,,0,,,65,30
159000,note_on,92,0,2,,,,,,,,,,,,,,,0,,,62,0
159000,note_on,0,0,2,,,,,,,,,,,,,,,0,,,58,0
159120,note_on,0,0,1,,,,,,,,,,,,,,,0,,,79,60
159120,note_on,240,0,1,,,,,,,,,,,,,,,0,,,82,0
159120,control_change,0,0,2,,,,,,,,,,,,,,,0,64,0,,
159120,note_on,120,0,2,,,,,,,,,,,,,,,0,,,65,0
159120,note_on,0,0,2,,,,,,,,,,,,,,,0,,,58,34
159120,note_on,0,0,2,,,,,,,,,,,,,,,0,,,63,40
159120,set_tempo,720,1,0,,,,,,,,,,,,456274,,,,,,,
159169,control_change,49,0,2,,,,,,,,,,,,,,,0,64,127,,
159240,note_on,71,0,2,,,,,,,,,,,,,,,0,,,63,0
159240,note_on,0,0,2,,,,,,,,,,,,,,,0,,,58,0
159240,note_on,0,0,2,,,,,,,,,,,,,,,0,,,67,30
159360,note_on,120,0,2,,,,,,,,,,,,,,,0,,,67,0
159360,note_on,0,0,2,,,,,,,,,,,,,,,0,,,58,29
159360,note_on,0,0,2,,,,,,,,,,,,,,,0,,,63,35
159360,note_on,0,0,1,,,,,,,,,,,,,,,0,,,81,55
159360,note_on,240,0,1,,,,,,,,,,,,,,,0,,,79,0
159360,set_tempo,240,1,0,,,,,,,,,,,,452625,,,,,,,
159381,control_change,21,0,2,,,,,,,,,,,,,,,0,64,0,,
159416,control_change,35,0,2,,,,,,,,,,,,,,,0,64,127,,
159480,note_on,120,0,1,,,,,,,,,,,,,,,0,,,81,0
159480,note_on,0,0,2,,,,,,,,,,,,,,,0,,,67,29
159480,note_on,0,0,2,,,,,,,,,,,,,,,0,,,58,0
159480,note_on,64,0,2,,,,,,,,,,,,,,,0,,,63,0
159480,note_on,0,0,1,,,,,,,,,,,,,,,0,,,82,56
159600,note_on,0,0,2,,,,,,,,,,,,,,,0,,,58,29
159600,note_on,120,0,1,,,,,,,,,,,,,,,0,,,82,0
159600,note_on,0,0,1,,,,,,,,,,,,,,,0,,,84,58
159600,note_on,0,0,2,,,,,,,,,,,,,,,0,,,63,35
159600,note_on,120,0,2,,,,,,,,,,,,,,,0,,,67,0
159720,note_on,0,0,2,,,,,,,,,,,,,,,0,,,67,29
159720,note_on,120,0,2,,,,,,,,,,,,,,,0,,,63,0
159720,note_on,0,0,1,,,,,,,,,,,,,,,0,,,86,59
159720,note_on,120,0,1,,,,,,,,,,,,,,,0,,,84,0
159720,note_on,0,0,2,,,,,,,,,,,,,,,0,,,58,0
159840,note_on,0,0,2,,,,,,,,,,,,,,,0,,,62,48
159840,set_tempo,480,1,0,,,,,,,,,,,,458155,,,,,,,
159840,control_change,0,0,2,,,,,,,,,,,,,,,0,64,0,,
159840,note_on,120,0,2,,,,,,,,,,,,,,,0,,,67,0
159840,note_on,0,0,2,,,,,,,,,,,,,,,0,,,58,40
159840,note_on,0,0,1,,,,,,,,,,,,,,,0,,,82,63
159840,note_on,120,0,1,,,,,,,,,,,,,,,0,,,86,0
159889,control_change,49,0,2,,,,,,,,,,,,,,,0,64,127,,
159960,note_on,0,0,2,,,,,,,,,,,,,,,0,,,58,0
159960,note_on,71,0,2,,,,,,,,,,,,,,,0,,,62,0
159960,note_on,0,0,2,,,,,,,,,,,,,,,0,,,65,30
160080,note_on,0,0,1,,,,,,,,,,,,,,,0,,,84,64
160080,note_on,240,0,1,,,,,,,,,,,,,,,0,,,82,0
160080,note_on,0,0,2,,,,,,,,,,,,,,,0,,,62,35
160080,set_tempo,240,1,0,,,,,,,,,,,,452625,,,,,,,
160080,note_on,120,0,2,,,,,,,,,,,,,,,0,,,65,0
160080,note_on,0,0,2,,,,,,,,,,,,,,,0,,,58,29
160129,control_change,49,0,2,,,,,,,,,,,,,,,0,64,0,,
160151,control_change,22,0,2,,,,,,,,,,,,,,,0,64,127,,
160200,note_on,120,0,1,,,,,,,,,,,,,,,0,,,84,0
160200,note_on,0,0,2,,,,,,,,,,,,,,,0,,,65,29
160200,note_on,49,0,2,,,,,,,,,,,,,,,0,,,58,0
160200,note_on,0,0,1,,,,,,,,,,,,,,,0,,,82,56
160200,note_on,0,0,2,,,,,,,,,,,,,,,0,,,62,0
160320,note_on,120,0,1,,,,,,,,,,,,,,,0,,,82,0
160320,note_on,0,0,2,,,,,,,,,,,,,,,0,,,62,35
160320,note_on,0,0,2,,,,,,,,,,,,,,,0,,,58,29
160320,note_on,0,0,1,,,,,,,,,,,,,,,0,,,81,60
160320,note_on,120,0,2,,,,,,,,,,,,,,,0,,,65,0
160440,note_on,120,0,1,,,,,,,,,,,,,,,0,,,81,0
160440,note_on,0,0,2,,,,,,,,,,,,,,,0,,,65,29
160440,note_on,120,0,2,,,,,,,,,,,,,,,0,,,62,0
160440,note_on,0,0,2,,,,,,,,,,,,,,,0,,,58,0
160440,note_on,0,0,1,,,,,,,,,,,,,,,0,,,79,56
160560,note_on,0,0,2,,,,,,,,,,,,,,,0,,,63,41
160560,note_on,0,0,2,,,,,,,,,,,,,,,0,,,57,35
160560,note_on,0,0,1,,,,,,,,,,,,,,,0,,,77,66
160560,set_tempo,480,1,0,,,,,,,,,,,,463750,,,,,,,
160560,note_on,120,0,2,,,,,,,,,,,,,,,0,,,65,0
160560,note_on,120,0,1,,,,,,,,,,,,,,,0,,,79,0
160588,control_change,28,0,2,,,,,,,,,,,,,,,0,64,0,,
160620,note_on,60,0,1,,,,,,,,,,,,,,,0,,,77,0
160680,note_on,0,0,2,,,,,,,,,,,,,,,0,,,65,30
160680,note_on,0,0,2,,,,,,,,,,,,,,,0,,,57,0
160680,note_on,92,0,2,,,,,,,,,,,,,,,0,,,63,0
160800,note_on,180,0,1,,,,,,,,,,,,,,,0,,,77,60
160800,note_on,0,0,2,,,,,,,,,,,,,,,0,,,63,35
160800,note_on,0,0,2,,,,,,,,,,,,,,,0,,,57,29
160800,note_on,120,0,2,,,,,,,,,,,,,,,0,,,65,0
160860,note_on,60,0,1,,,,,,,,,,,,,,,0,,,77,0
160920,note_on,0,0,2,,,,,,,,,,,,,,,0,,,65,31
160920,note_on,120,0,2,,,,,,,,,,,,,,,0,,,63,0
160920,note_on,0,0,2,,,,,,,,,,,,,,,0,,,57,0
161040,note_on,180,0,1,,,,,,,,,,,,,,,0,,,77,59
161040,note_on,120,0,2,,,,,,,,,,,,,,,0,,,65,0
161040,note_on,0,0,2,,,,,,,,,,,,,,,0,,,57,29
161040,note_on,0,0,2,,,,,,,,,,,,,,,0,,,63,35
161040,set_tempo,480,1,0,,,,,,,,,,,,474608,,,,,,,
161100,note_on,60,0,1,,,,,,,,,,,,,,,0,,,77,0
161160,note_on,120,0,2,,,,,,,,,,,,,,,0,,,63,0
161160,note_on,0,0,2,,,,,,,,,,,,,,,0,,,57,0
161160,note_on,0,0,2,,,,,,,,,,,,,,,0,,,65,30
161280,note_on,180,0,1,,,,,,,,,,,,,,,0,,,78,72
161280,set_tempo,240,1,0,,,,,,,,,,,,463679,,,,,,,
161280,note_on,120,0,2,,,,,,,,,,,,,,,0,,,65,0
161280,note_on,0,0,2,,,,,,,,,,,,,,,0,,,57,37
161280,note_on,0,0,2,,,,,,,,,,,,,,,0,,,63,44
161349,control_change,69,0,2,,,,,,,,,,,,,,,0,64,127,,
161400,note_on,0,0,2,,,,,,,,,,,,,,,0,,,57,0
161400,note_on,0,0,2,,,,,,,,,,,,,,,0,,,66,30
161400,note_on,51,0,2,,,,,,,,,,,,,,,0,,,63,0
161520,note_on,0,0,1,,,,,,,,,,,,,,,0,,,90,68
161520,note_on,120,0,2,,,,,,,,,,,,,,,0,,,66,0
161520,note_on,0,0,2,,,,,,,,,,,,,,,0,,,63,35
161520,note_on,0,0,2,,,,,,,,,,,,,,,0,,,57,29
161520,note_on,240,0,1,,,,,,,,,,,,,,,0,,,78,0
161640,note_on,0,0,2,,,,,,,,,,,,,,,0,,,66,30
161640,note_on,0,0,2,,,,,,,,,,,,,,,0,,,57,0
161640,note_on,120,0,2,,,,,,,,,,,,,,,0,,,63,0
161749,control_change,109,0,2,,,,,,,,,,,,,,,0,64,0,,
161760,note_on,240,0,1,,,,,,,,,,,,,,,0,,,90,0
161760,note_on,0,0,1,,,,,,,,,,,,,,,0,,,90,68
161760,set_tempo,480,1,0,,,,,,,,,,,,472776,,,,,,,
161760,note_on,11,0,2,,,,,,,,,,,,,,,0,,,66,0
161760,note_on,0,0,2,,,,,,,,,,,,,,,0,,,57,29
161760,note_on,0,0,2,,,,,,,,,,,,,,,0,,,63,35
161820,note_on,60,0,1,,,,,,,,,,,,,,,0,,,90,0
161880,note_on,120,0,2,,,,,,,,,,,,,,,0,,,63,0
161880,note_on,0,0,2,,,,,,,,,,,,,,,0,,,57,0
161880,note_on,0,0,2,,,,,,,,,,,,,,,0,,,66,30
162000,note_on,0,0,2,,,,,,,,,,,,,,,0,,,63,41
162000,note_on,0,0,2,,,,,,,,,,,,,,,0,,,58,35
162000,note_on,120,0,2,,,,,,,,,,,,,,,0,,,66,0
162000,note_on,180,0,1,,,,,,,,,,,,,,,0,,,91,77
162000,set_tempo,240,1,0,,,,,,,,,,,,463679,,,,,,,
162011,control_change,11,0,2,,,,,,,,,,,,,,,0,64,127,,
162120,note_on,109,0,2,,,,,,,,,,,,,,,0,,,63,0
162120,note_on,0,0,2,,,,,,,,,,,,,,,0,,,58,0
162120,note_on,0,0,2,,,,,,,,,,,,,,,0,,,67,30
162240,note_on,0,0,1,,,,,,,,,,,,,,,0,,,79,60
162240,note_on,240,0,1,,,,,,,,,,,,,,,0,,,91,0
162240,note_on,120,0,2,,,,,,,,,,,,,,,0,,,67,0
162240,note_on,0,0,2,,,,,,,,,,,,,,,0,,,58,29
162240,note_on,0,0,2,,,,,,,,,,,,,,,0,,,63,35
162360,note_on,0,0,2,,,,,,,,,,,,,,,0,,,67,30
162360,note_on,0,0,2,,,,,,,,,,,,,,,0,,,58,0
162360,note_on,120,0,2,,,,,,,,,,,,,,,0,,,63,0
162480,note_on,240,0,1,,,,,,,,,,,,,,,0,,,79,0
162480,note_on,120,0,2,,,,,,,,,,,,,,,0,,,67,0
162480,note_on,0,0,2,,,,,,,,,,,,,,,0,,,58,29
162480,note_on,0,0,2,,,,,,,,,,,,,,,0,,,63,35
162480,note_on,0,0,1,,,,,,,,,,,,,,,0,,,79,60
162501,control_change,21,0,2,,,,,,,,,,,,,,,0,64,0,,
162540,note_on,60,0,1,,,,,,,,,,,,,,,0,,,79,0
162600,note_on,99,0,2,,,,,,,,,,,,,,,0,,,63,0
162600,note_on,0,0,2,,,,,,,,,,,,,,,0,,,58,0
162600,note_on,0,0,2,,,,,,,,,,,,,,,0,,,67,30
162720,note_on,180,0,1,,,,,,,,,,,,,,,0,,,81,63
162720,note_on,0,0,2,,,,,,,,,,,,,,,0,,,63,41
162720,note_on,0,0,2,,,,,,,,,,,,,,,0,,,60,35
162720,note_on,120,0,2,,,,,,,,,,,,,,,0,,,67,0
162769,control_change,49,0,2,,,,,,,,,,,,,,,0,64,127,,
162780,note_on,60,0,1,,,,,,,,,,,,,,,0,,,81,0
162840,note_on,0,0,2,,,,,,,,,,,,,,,0,,,60,0
162840,note_on,71,0,2,,,,,,,,,,,,,,,0,,,63,0
162840,note_on,0,0,2,,,,,,,,,,,,,,,0,,,65,30
162918,control_change,78,0,2,,,,,,,,,,,,,,,0,64,0,,
162930,note_on,150,0,1,,,,,,,,,,,,,,,0,,,94,54
162935,control_change,17,0,2,,,,,,,,,,,,,,,0,64,127,,
162960,set_tempo,960,1,0,,,,,,,,,,,,452625,,,,,,,
162960,note_on,0,0,2,,,,,,,,,,,,,,,0,,,60,29
162960,note_on,25,0,2,,,,,,,,,,,,,,,0,,,65,0
162960,note_on,30,0,1,,,,,,,,,,,,,,,0,,,94,0
162960,note_on,0,0,2,,,,,,,,,,,,,,,0,,,63,35
162960,note_on,0,0,1,,,,,,,,,,,,,,,0,,,93,62
163080,note_on,120,0,2,,,,,,,,,,,,,,,0,,,63,0
163080,note_on,0,0,2,,,,,,,,,,,,,,,0,,,65,30
163080,note_on,0,0,1,,,,,,,,,,,,,,,0,,,91,60
163080,note_on,120,0,1,,,,,,,,,,,,,,,0,,,93,0
163080,note_on,0,0,2,,,,,,,,,,,,,,,0,,,60,0
163200,set_tempo,240,1,0,,,,,,,,,,,,458155,,,,,,,
163200,note_on,0,0,2,,,,,,,,,,,,,,,0,,,60,29
163200,note_on,120,0,2,,,,,,,,,,,,,,,0,,,65,0
163200,note_on,120,0,1,,,,,,,,,,,,,,,0,,,91,0
163200,note_on,0,0,1,,,,,,,,,,,,,,,0,,,93,62
163200,note_on,0,0,2,,,,,,,,,,,,,,,0,,,63,35
163320,note_on,120,0,2,,,,,,,,,,,,,,,0,,,63,0
163320,note_on,0,0,2,,,,,,,,,,,,,,,0,,,60,0
163320,note_on,0,0,2,,,,,,,,,,,,,,,0,,,65,30
163440,note_on,120,0,2,,,,,,,,,,,,,,,0,,,65,0
163440,note_on,0,0,2,,,,,,,,,,,,,,,0,,,58,35
163440,control_change,0,0,2,,,,,,,,,,,,,,,0,64,0,,
163440,note_on,240,0,1,,,,,,,,,,,,,,,0,,,93,0
163440,note_on,0,0,1,,,,,,,,,,,,,,,0,,,94,64
163440,note_on,0,0,2,,,,,,,,,,,,,,,0,,,62,41
163493,control_change,53,0,2,,,,,,,,,,,,,,,0,64,127,,
163500,note_on,60,0,1,,,,,,,,,,,,,,,0,,,94,0
163560,note_on,0,0,2,,,,,,,,,,,,,,,0,,,65,30
163560,note_on,0,0,2,,,,,,,,,,,,,,,0,,,58,0
163560,note_on,67,0,2,,,,,,,,,,,,,,,0,,,62,0
163650,note_on,150,0,1,,,,,,,,,,,,,,,0,,,84,53
163659,control_change,99,0,2,,,,,,,,,,,,,,,0,64,0,,
163680,note_on,30,0,1,,,,,,,,,,,,,,,0,,,84,0
163680,note_on,0,0,1,,,,,,,,,,,,,,,0,,,82,60
163680,set_tempo,480,1,0,,,,,,,,,,,,452625,,,,,,,
163680,note_on,21,0,2,,,,,,,,,,,,,,,0,,,65,0
163680,note_on,0,0,2,,,,,,,,,,,,,,,0,,,58,29
163680,note_on,0,0,2,,,,,,,,,,,,,,,0,,,62,35
163680,control_change,0,0,2,,,,,,,,,,,,,,,0,64,127,,
163800,note_on,120,0,2,,,,,,,,,,,,,,,0,,,62,0
163800,note_on,0,0,2,,,,,,,,,,,,,,,0,,,58,0
163800,note_on,0,0,2,,,,,,,,,,,,,,,0,,,65,30
163800,note_on,120,0,1,,,,,,,,,,,,,,,0,,,82,0
163800,note_on,0,0,1,,,,,,,,,,,,,,,0,,,81,56
163920,set_tempo,240,1,0,,,,,,,,,,,,484183,,,,,,,
163920,note_on,0,0,2,,,,,,,,,,,,,,,0,,,62,35
163920,note_on,0,0,2,,,,,,,,,,,,,,,0,,,58,29
163920,note_on,120,0,2,,,,,,,,,,,,,,,0,,,65,0
163920,note_on,120,0,1,,,,,,,,,,,,,,,0,,,81,0
163920,note_on,0,0,1,,,,,,,,,,,,,,,0,,,82,60
164040,note_on,120,0,2,,,,,,,,,,,,,,,0,,,62,0
164040,note_on,120,0,1,,,,,,,,,,,,,,,0,,,82,0
164040,note_on,0,0,2,,,,,,,,,,,,,,,0,,,58,0
164040,note_on,0,0,2,,,,,,,,,,,,,,,0,,,65,30
164160,note_on,120,0,1,,,,,,,,,,,,,,,0,,,70,40
164160,note_on,0,0,1,,,,,,,,,,,,,,,0,,,74,48
164160,note_on,120,0,2,,,,,,,,,,,,,,,0,,,65,0
164160,note_on,0,0,2,,,,,,,,,,,,,,,0,,,58,57
164160,control_change,0,0,2,,,,,,,,,,,,,,,0,64,0,,
164160,set_tempo,240,1,0,,,,,,,,,,,,465477,,,,,,,
164280,note_on,120,0,1,,,,,,,,,,,,,,,0,,,74,0
164280,note_on,0,0,1,,,,,,,,,,,,,,,0,,,70,0
164280,note_on,0,0,1,,,,,,,,,,,,,,,0,,,77,42
164400,note_on,0,0,1,,,,,,,,,,,,,,,0,,,70,41
164400,note_on,0,0,2,,,,,,,,,,,,,,,0,,,57,48
164400,note_on,240,0,2,,,,,,,,,,,,,,,0,,,58,0
164400,note_on,120,0,1,,,,,,,,,,,,,,,0,,,77,0
164400,note_on,0,0,1,,,,,,,,,,,,,,,0,,,74,49
164520,note_on,120,0,1,,,,,,,,,,,,,,,0,,,74,0
164520,note_on,0,0,1,,,,,,,,,,,,,,,0,,,70,0
164520,note_on,0,0,1,,,,,,,,,,,,,,,0,,,77,41
164640,note_on,0,0,1,,,,,,,,,,,,,,,0,,,74,49
164640,note_on,0,0,1,,,,,,,,,,,,,,,0,,,70,41
164640,note_on,0,0,2,,,,,,,,,,,,,,,0,,,58,48
164640,note_on,240,0,2,,,,,,,,,,,,,,,0,,,57,0
164640,note_on,120,0,1,,,,,,,,,,,,,,,0,,,77,0
164760,note_on,120,0,1,,,,,,,,,,,,,,,0,,,74,0
164760,note_on,0,0,1,,,,,,,,,,,,,,,0,,,70,0
164760,note_on,0,0,1,,,,,,,,,,,,,,,0,,,77,42
164880,note_on,240,0,2,,,,,,,,,,,,,,,0,,,58,0
164880,note_on,0,0,1,,,,,,,,,,,,,,,0,,,74,50
164880,note_on,0,0,1,,,,,,,,,,,,,,,0,,,70,42
164880,note_on,120,0,1,,,,,,,,,,,,,,,0,,,77,0
164880,note_on,0,0,2,,,,,,,,,,,,,,,0,,,55,57
164880,set_tempo,720,1,0,,,,,,,,,,,,456274,,,,,,,
165000,note_on,0,0,1,,,,,,,,,,,,,,,0,,,70,0
165000,note_on,0,0,1,,,,,,,,,,,,,,,0,,,79,42
165000,note_on,120,0,1,,,,,,,,,,,,,,,0,,,74,0
165120,note_on,0,0,1,,,,,,,,,,,,,,,0,,,74,49
165120,set_tempo,240,1,0,,,,,,,,,,,,452625,,,,,,,
165120,note_on,120,0,1,,,,,,,,,,,,,,,0,,,79,0
165120,note_on,240,0,2,,,,,,,,,,,,,,,0,,,55,0
165120,note_on,0,0,2,,,,,,,,,,,,,,,0,,,57,46
165120,note_on,0,0,1,,,,,,,,,,,,,,,0,,,70,41
165240,note_on,120,0,1,,,,,,,,,,,,,,,0,,,74,0
165240,note_on,0,0,1,,,,,,,,,,,,,,,0,,,79,41
165240,note_on,0,0,1,,,,,,,,,,,,,,,0,,,70,0
165240,note_on,120,0,2,,,,,,,,,,,,,,,0,,,57,0
165240,note_on,0,0,2,,,,,,,,,,,,,,,0,,,58,46
165360,note_on,0,0,1,,,,,,,,,,,,,,,0,,,74,49
165360,note_on,0,0,1,,,,,,,,,,,,,,,0,,,70,41
165360,note_on,120,0,1,,,,,,,,,,,,,,,0,,,79,0
165360,note_on,0,0,2,,,,,,,,,,,,,,,0,,,60,48
165360,note_on,120,0,2,,,,,,,,,,,,,,,0,,,58,0
165480,note_on,0,0,1,,,,,,,,,,,,,,,0,,,70,0
165480,note_on,120,0,2,,,,,,,,,,,,,,,0,,,60,0
165480,note_on,0,0,2,,,,,,,,,,,,,,,0,,,62,48
165480,note_on,120,0,1,,,,,,,,,,,,,,,0,,,74,0
165480,note_on,0,0,1,,,,,,,,,,,,,,,0,,,79,41
165600,note_on,0,0,1,,,,,,,,,,,,,,,0,,,74,52
165600,note_on,0,0,1,,,,,,,,,,,,,,,0,,,70,44
165600,note_on,120,0,2,,,,,,,,,,,,,,,0,,,62,0
165600,note_on,0,0,2,,,,,,,,,,,,,,,0,,,58,55
165600,note_on,120,0,1,,,,,,,,,,,,,,,0,,,79,0
165600,set_tempo,480,1,0,,,,,,,,,,,,458155,,,,,,,
165720,note_on,0,0,1,,,,,,,,,,,,,,,0,,,70,0
165720,note_on,120,0,1,,,,,,,,,,,,,,,0,,,74,0
165720,note_on,0,0,1,,,,,,,,,,,,,,,0,,,77,42
165840,note_on,240,0,2,,,,,,,,,,,,,,,0,,,58,0
165840,set_tempo,240,1,0,,,,,,,,,,,,452625,,,,,,,
165840,note_on,0,0,2,,,,,,,,,,,,,,,0,,,60,52
165840,note_on,120,0,1,,,,,,,,,,,,,,,0,,,77,0
165840,note_on,0,0,1,,,,,,,,,,,,,,,0,,,74,49
165840,note_on,0,0,1,,,,,,,,,,,,,,,0,,,70,41
165960,note_on,0,0,2,,,,,,,,,,,,,,,0,,,58,48
165960,note_on,120,0,2,,,,,,,,,,,,,,,0,,,60,0
165960,note_on,120,0,1,,,,,,,,,,,,,,,0,,,70,0
165960,note_on,0,0,1,,,,,,,,,,,,,,,0,,,74,0
165960,note_on,0,0,1,,,,,,,,,,,,,,,0,,,77,41
166080,note_on,0,0,2,,,,,,,,,,,,,,,0,,,57,52
166080,note_on,120,0,2,,,,,,,,,,,,,,,0,,,58,0
166080,note_on,0,0,1,,,,,,,,,,,,,,,0,,,70,41
166080,note_on,0,0,1,,,,,,,,,,,,,,,0,,,74,49
166080,note_on,120,0,1,,,,,,,,,,,,,,,0,,,77,0
166200,note_on,0,0,1,,,,,,,,,,,,,,,0,,,70,0
166200,note_on,120,0,1,,,,,,,,,,,,,,,0,,,74,0
166200,note_on,0,0,1,,,,,,,,,,,,,,,0,,,77,41
166200,note_on,0,0,2,,,,,,,,,,,,,,,0,,,55,48
166200,note_on,120,0,2,,,,,,,,,,,,,,,0,,,57,0
166320,note_on,120,0,1,,,,,,,,,,,,,,,0,,,77,0
166320,note_on,0,0,1,,,,,,,,,,,,,,,0,,,69,47
166320,note_on,0,0,1,,,,,,,,,,,,,,,0,,,75,56
166320,note_on,0,0,2,,,,,,,,,,,,,,,0,,,53,56
166320,note_on,120,0,2,,,,,,,,,,,,,,,0,,,55,0
166320,set_tempo,480,1,0,,,,,,,,,,,,463750,,,,,,,
166440,note_on,120,0,1,,,,,,,,,,,,,,,0,,,75,0
166440,note_on,0,0,1,,,,,,,,,,,,,,,0,,,69,0
166440,note_on,0,0,1,,,,,,,,,,,,,,,0,,,77,42
166440,note_on,120,0,2,,,,,,,,,,,,,,,0,,,53,0
166560,note_on,120,0,2,,,,,,,,,,,,,,,0,,,53,48
166560,note_on,0,0,1,,,,,,,,,,,,,,,0,,,75,49
166560,note_on,0,0,1,,,,,,,,,,,,,,,0,,,69,41
166560,note_on,120,0,1,,,,,,,,,,,,,,,0,,,77,0
166680,note_on,0,0,1,,,,,,,,,,,,,,,0,,,69,0
166680,note_on,120,0,1,,,,,,,,,,,,,,,0,,,75,0
166680,note_on,120,0,2,,,,,,,,,,,,,,,0,,,53,0
166680,note_on,0,0,1,,,,,,,,,,,,,,,0,,,77,44
166800,set_tempo,480,1,0,,,,,,,,,,,,472776,,,,,,,
166800,note_on,120,0,2,,,,,,,,,,,,,,,0,,,53,48
166800,note_on,0,0,1,,,,,,,,,,,,,,,0,,,75,49
166800,note_on,0,0,1,,,,,,,,,,,,,,,0,,,69,41
166800,note_on,120,0,1,,,,,,,,,,,,,,,0,,,77,0
166920,note_on,0,0,1,,,,,,,,,,,,,,,0,,,69,0
166920,note_on,120,0,1,,,,,,,,,,,,,,,0,,,75,0
166920,note_on,120,0,2,,,,,,,,,,,,,,,0,,,53,0
166920,note_on,0,0,1,,,,,,,,,,,,,,,0,,,77,42
167040,set_tempo,240,1,0,,,,,,,,,,,,463679,,,,,,,
167040,note_on,120,0,1,,,,,,,,,,,,,,,0,,,77,0
167040,note_on,0,0,1,,,,,,,,,,,,,,,0,,,69,45
167040,note_on,0,0,1,,,,,,,,,,,,,,,0,,,75,53
167040,note_on,120,0,2,,,,,,,,,,,,,,,0,,,54,61
167160,note_on,0,0,1,,,,,,,,,,,,,,,0,,,69,0
167160,note_on,0,0,1,,,,,,,,,,,,,,,0,,,81,42
167160,note_on,120,0,1,,,,,,,,,,,,,,,0,,,75,0
167280,note_on,0,0,2,,,,,,,,,,,,,,,0,,,66,46
167280,note_on,240,0,2,,,,,,,,,,,,,,,0,,,54,0
167280,note_on,0,0,1,,,,,,,,,,,,,,,0,,,69,41
167280,note_on,0,0,1,,,,,,,,,,,,,,,0,,,75,49
167280,note_on,120,0,1,,,,,,,,,,,,,,,0,,,81,0
167400,note_on,0,0,1,,,,,,,,,,,,,,,0,,,81,42
167400,note_on,0,0,1,,,,,,,,,,,,,,,0,,,69,0
167400,note_on,120,0,1,,,,,,,,,,,,,,,0,,,75,0
167520,set_tempo,480,1,0,,,,,,,,,,,,474608,,,,,,,
167520,note_on,120,0,1,,,,,,,,,,,,,,,0,,,81,0
167520,note_on,0,0,1,,,,,,,,,,,,,,,0,,,69,41
167520,note_on,0,0,2,,,,,,,,,,,,,,,0,,,66,49
167520,note_on,0,0,1,,,,,,,,,,,,,,,0,,,75,49
167520,note_on,240,0,2,,,,,,,,,,,,,,,0,,,66,0
167640,note_on,120,0,1,,,,,,,,,,,,,,,0,,,75,0
167640,note_on,0,0,1,,,,,,,,,,,,,,,0,,,69,0
167640,note_on,0,0,1,,,,,,,,,,,,,,,0,,,81,42
167640,note_on,120,0,2,,,,,,,,,,,,,,,0,,,66,0
167760,note_on,120,0,1,,,,,,,,,,,,,,,0,,,81,0
167760,note_on,120,0,2,,,,,,,,,,,,,,,0,,,67,61
167760,note_on,0,0,1,,,,,,,,,,,,,,,0,,,75,52
167760,note_on,0,0,1,,,,,,,,,,,,,,,0,,,70,44
167760,set_tempo,240,1,0,,,,,,,,,,,,463679,,,,,,,
167880,note_on,120,0,1,,,,,,,,,,,,,,,0,,,75,0
167880,note_on,0,0,1,,,,,,,,,,,,,,,0,,,70,0
167880,note_on,0,0,1,,,,,,,,,,,,,,,0,,,82,42
168000,note_on,0,0,1,,,,,,,,,,,,,,,0,,,75,49
168000,note_on,0,0,1,,,,,,,,,,,,,,,0,,,70,41
168000,note_on,240,0,2,,,,,,,,,,,,,,,0,,,67,0
168000,note_on,120,0,1,,,,,,,,,,,,,,,0,,,82,0
168000,note_on,0,0,2,,,,,,,,,,,,,,,0,,,55,53
168120,note_on,120,0,1,,,,,,,,,,,,,,,0,,,75,0
168120,note_on,0,0,1,,,,,,,,,,,,,,,0,,,70,0
168120,note_on,0,0,1,,,,,,,,,,,,,,,0,,,81,42
168240,note_on,120,0,1,,,,,,,,,,,,,,,0,,,81,0
168240,note_on,0,0,1,,,,,,,,,,,,,,,0,,,70,41
168240,note_on,0,0,1,,,,,,,,,,,,,,,0,,,75,49
168240,note_on,240,0,2,,,,,,,,,,,,,,,0,,,55,0
168240,note_on,0,0,2,,,,,,,,,,,,,,,0,,,55,55
168360,note_on,120,0,2,,,,,,,,,,,,,,,0,,,55,0
168360,note_on,120,0,1,,,,,,,,,,,,,,,0,,,75,0
168360,note_on,0,0,1,,,,,,,,,,,,,,,0,,,70,0
168360,note_on,0,0,1,,,,,,,,,,,,,,,0,,,79,42
168480,note_on,0,0,1,,,,,,,,,,,,,,,0,,,68,41
168480,note_on,120,0,1,,,,,,,,,,,,,,,0,,,79,0
168480,note_on,0,0,1,,,,,,,,,,,,,,,0,,,74,49
168480,note_on,120,0,2,,,,,,,,,,,,,,,0,,,58,60
168540,note_on,60,0,2,,,,,,,,,,,,,,,0,,,58,0
168600,note_on,120,0,1,,,,,,,,,,,,,,,0,,,74,0
168600,note_on,0,0,1,,,,,,,,,,,,,,,0,,,77,42
168600,note_on,0,0,1,,,,,,,,,,,,,,,0,,,68,0
168660,note_on,120,0,2,,,,,,,,,,,,,,,0,,,48,46
168720,set_tempo,960,1,0,,,,,,,,,,,,452625,,,,,,,
168720,note_on,120,0,1,,,,,,,,,,,,,,,0,,,77,0
168720,note_on,0,0,1,,,,,,,,,,,,,,,0,,,68,41
168720,note_on,0,0,1,,,,,,,,,,,,,,,0,,,74,49
168720,note_on,60,0,2,,,,,,,,,,,,,,,0,,,46,55
168740,note_on,20,0,2,,,,,,,,,,,,,,,0,,,48,0
168840,note_on,120,0,1,,,,,,,,,,,,,,,0,,,74,0
168840,note_on,0,0,1,,,,,,,,,,,,,,,0,,,77,42
168840,note_on,100,0,2,,,,,,,,,,,,,,,0,,,45,50
168840,note_on,0,0,1,,,,,,,,,,,,,,,0,,,68,0
168860,note_on,20,0,2,,,,,,,,,,,,,,,0,,,46,0
168960,set_tempo,240,1,0,,,,,,,,,,,,491884,,,,,,,
168960,note_on,0,0,1,,,,,,,,,,,,,,,0,,,74,49
168960,note_on,0,0,1,,,,,,,,,,,,,,,0,,,68,41
168960,note_on,120,0,1,,,,,,,,,,,,,,,0,,,77,0
168960,note_on,100,0,2,,,,,,,,,,,,,,,0,,,46,53
168980,note_on,20,0,2,,,,,,,,,,,,,,,0,,,45,0
169080,note_on,0,0,1,,,,,,,,,,,,,,,0,,,68,0
169080,note_on,120,0,1,,,,,,,,,,,,,,,0,,,74,0
169080,note_on,0,0,1,,,,,,,,,,,,,,,0,,,77,42
169200,note_on,120,0,1,,,,,,,,,,,,,,,0,,,77,0
169200,note_on,220,0,2,,,,,,,,,,,,,,,0,,,46,0
169200,set_tempo,240,1,0,,,,,,,,,,,,461787,,,,,,,
169200,note_on,0,0,1,,,,,,,,,,,,,,,0,,,75,49
169200,note_on,0,0,1,,,,,,,,,,,,,,,0,,,67,41
169200,note_on,0,0,2,,,,,,,,,,,,,,,0,,,51,50
169260,note_on,60,0,2,,,,,,,,,,,,,,,0,,,51,0
169320,note_on,0,0,1,,,,,,,,,,,,,,,0,,,79,42
169320,note_on,0,0,1,,,,,,,,,,,,,,,0,,,67,0
169320,note_on,120,0,1,,,,,,,,,,,,,,,0,,,75,0
169380,note_on,120,0,2,,,,,,,,,,,,,,,0,,,41,46
169440,note_on,0,0,1,,,,,,,,,,,,,,,0,,,67,41
169440,note_on,120,0,1,,,,,,,,,,,,,,,0,,,79,0
169440,note_on,60,0,2,,,,,,,,,,,,,,,0,,,39,50
169440,note_on,0,0,1,,,,,,,,,,,,,,,0,,,75,49
169440,set_tempo,240,1,0,,,,,,,,,,,,452625,,,,,,,
169460,note_on,20,0,2,,,,,,,,,,,,,,,0,,,41,0
169560,note_on,100,0,2,,,,,,,,,,,,,,,0,,,38,47
169560,note_on,0,0,1,,,,,,,,,,,,,,,0,,,79,42
169560,note_on,120,0,1,,,,,,,,,,,,,,,0,,,75,0
169560,note_on,0,0,1,,,,,,,,,,,,,,,0,,,67,0
169580,note_on,20,0,2,,,,,,,,,,,,,,,0,,,39,0
169680,note_on,0,0,1,,,,,,,,,,,,,,,0,,,67,41
169680,note_on,100,0,2,,,,,,,,,,,,,,,0,,,39,50
169680,note_on,120,0,1,,,,,,,,,,,,,,,0,,,79,0
169680,note_on,0,0,1,,,,,,,,,,,,,,,0,,,75,49
169680,set_tempo,240,1,0,,,,,,,,,,,,487171,,,,,,,
169700,note_on,20,0,2,,,,,,,,,,,,,,,0,,,38,0
169800,note_on,120,0,1,,,,,,,,,,,,,,,0,,,75,0
169800,note_on,0,0,1,,,,,,,,,,,,,,,0,,,67,0
169800,note_on,100,0,2,,,,,,,,,,,,,,,0,,,39,0
169920,note_on,120,0,1,,,,,,,,,,,,,,,0,,,82,66
169920,note_on,0,0,2,,,,,,,,,,,,,,,0,,,67,41
169920,note_on,120,0,2,,,,,,,,,,,,,,,0,,,63,35
169920,set_tempo,240,1,0,,,,,,,,,,,,492045,,,,,,,
169970,control_change,50,0,2,,,,,,,,,,,,,,,0,64,127,,
169980,note_on,60,0,1,,,,,,,,,,,,,,,0,,,82,0
170040,note_on,70,0,2,,,,,,,,,,,,,,,0,,,67,0
170040,note_on,0,0,2,,,,,,,,,,,,,,,0,,,63,0
170040,note_on,0,0,2,,,,,,,,,,,,,,,0,,,70,33
170100,note_on,120,0,1,,,,,,,,,,,,,,,0,,,80,56
170123,control_change,83,0,2,,,,,,,,,,,,,,,0,64,0,,
170134,control_change,11,0,2,,,,,,,,,,,,,,,0,64,127,,
170160,note_on,0,0,2,,,,,,,,,,,,,,,0,,,63,31
170160,note_on,0,0,2,,,,,,,,,,,,,,,0,,,67,38
170160,note_on,60,0,1,,,,,,,,,,,,,,,0,,,80,0
170160,note_on,0,0,1,,,,,,,,,,,,,,,0,,,79,67
170160,note_on,26,0,2,,,,,,,,,,,,,,,0,,,70,0
170161,set_tempo,241,1,0,,,,,,,,,,,,452625,,,,,,,
170280,note_on,120,0,1,,,,,,,,,,,,,,,0,,,79,0
170280,note_on,0,0,1,,,,,,,,,,,,,,,0,,,77,62
170280,note_on,120,0,2,,,,,,,,,,,,,,,0,,,67,0
170280,note_on,0,0,2,,,,,,,,,,,,,,,0,,,63,0
170280,note_on,0,0,2,,,,,,,,,,,,,,,0,,,70,33
170389,control_change,109,0,2,,,,,,,,,,,,,,,0,64,0,,
170400,note_on,11,0,2,,,,,,,,,,,,,,,0,,,70,0
170400,note_on,0,0,1,,,,,,,,,,,,,,,0,,,79,66
170400,note_on,0,0,2,,,,,,,,,,,,,,,0,,,67,38
170400,note_on,120,0,1,,,,,,,,,,,,,,,0,,,77,0
170400,note_on,0,0,2,,,,,,,,,,,,,,,0,,,63,31
170401,set_tempo,240,1,0,,,,,,,,,,,,458155,,,,,,,
170414,control_change,14,0,2,,,,,,,,,,,,,,,0,64,127,,
170520,note_on,106,0,2,,,,,,,,,,,,,,,0,,,67,0
170520,note_on,0,0,2,,,,,,,,,,,,,,,0,,,63,0
170520,note_on,0,0,2,,,,,,,,,,,,,,,0,,,70,33
170640,note_on,120,0,2,,,,,,,,,,,,,,,0,,,70,0
170640,note_on,0,0,2,,,,,,,,,,,,,,,0,,,65,38
170640,control_change,0,0,2,,,,,,,,,,,,,,,0,64,0,,
170640,set_tempo,239,1,0,,,,,,,,,,,,482199,,,,,,,
170640,note_on,0,0,2,,,,,,,,,,,,,,,0,,,62,31
170640,note_on,0,0,1,,,,,,,,,,,,,,,0,,,82,66
170640,note_on,240,0,1,,,,,,,,,,,,,,,0,,,79,0
170655,control_change,15,0,2,,,,,,,,,,,,,,,0,64,0,,
170690,control_change,35,0,2,,,,,,,,,,,,,,,0,64,127,,
170700,note_on,60,0,1,,,,,,,,,,,,,,,0,,,82,0
170760,note_on,0,0,2,,,,,,,,,,,,,,,0,,,70,33
170760,note_on,0,0,2,,,,,,,,,,,,,,,0,,,62,0
170760,note_on,70,0,2,,,,,,,,,,,,,,,0,,,65,0
170820,note_on,120,0,1,,,,,,,,,,,,,,,0,,,79,57
170848,control_change,88,0,2,,,,,,,,,,,,,,,0,64,0,,
170866,control_change,18,0,2,,,,,,,,,,,,,,,0,64,127,,
170880,note_on,60,0,1,,,,,,,,,,,,,,,0,,,79,0
170880,note_on,0,0,1,,,,,,,,,,,,,,,0,,,77,67
170880,note_on,0,0,2,,,,,,,,,,,,,,,0,,,62,31
170880,note_on,14,0,2,,,,,,,,,,,,,,,0,,,70,0
170880,note_on,0,0,2,,,,,,,,,,,,,,,0,,,65,38
170881,set_tempo,241,1,0,,,,,,,,,,,,452625,,,,,,,
171000,note_on,0,0,2,,,,,,,,,,,,,,,0,,,62,0
171000,note_on,0,0,1,,,,,,,,,,,,,,,0,,,76,62
171000,note_on,120,0,1,,,,,,,,,,,,,,,0,,,77,0
171000,note_on,0,0,2,,,,,,,,,,,,,,,0,,,70,33
171000,note_on,120,0,2,,,,,,,,,,,,,,,0,,,65,0
171120,note_on,120,0,2,,,,,,,,,,,,,,,0,,,70,0
171120,set_tempo,239,1,0,,,,,,,,,,,,467108,,,,,,,
171120,note_on,0,0,2,,,,,,,,,,,,,,,0,,,61,31
171120,note_on,0,0,2,,,,,,,,,,,,,,,0,,,65,38
171120,note_on,0,0,1,,,,,,,,,,,,,,,0,,,77,66
171120,note_on,120,0,1,,,,,,,,,,,,,,,0,,,76,0
171145,control_change,25,0,2,,,,,,,,,,,,,,,0,64,0,,
171169,control_change,24,0,2,,,,,,,,,,,,,,,0,64,127,,
171240,note_on,0,0,2,,,,,,,,,,,,,,,0,,,61,0
171240,note_on,0,0,2,,,,,,,,,,,,,,,0,,,70,33
171240,note_on,71,0,2,,,,,,,,,,,,,,,0,,,65,0
171360,note_on,120,0,2,,,,,,,,,,,,,,,0,,,70,0
171360,note_on,0,0,2,,,,,,,,,,,,,,,0,,,60,31
171360,set_tempo,240,1,0,,,,,,,,,,,,482199,,,,,,,
171360,note_on,0,0,2,,,,,,,,,,,,,,,0,,,65,38
171360,control_change,0,0,2,,,,,,,,,,,,,,,0,64,0,,
171360,note_on,0,0,1,,,,,,,,,,,,,,,0,,,84,69
171360,note_on,240,0,1,,,,,,,,,,,,,,,0,,,77,0
171375,control_change,15,0,2,,,,,,,,,,,,,,,0,64,0,,
171410,control_change,35,0,2,,,,,,,,,,,,,,,0,64,127,,
171480,note_on,70,0,2,,,,,,,,,,,,,,,0,,,65,0
171480,note_on,0,0,2,,,,,,,,,,,,,,,0,,,60,0
171480,note_on,0,0,2,,,,,,,,,,,,,,,0,,,68,33
171600,note_on,120,0,2,,,,,,,,,,,,,,,0,,,68,0
171600,note_on,0,0,2,,,,,,,,,,,,,,,0,,,60,31
171600,note_on,0,0,2,,,,,,,,,,,,,,,0,,,65,38
171600,note_on,0,0,1,,,,,,,,,,,,,,,0,,,82,70
171600,note_on,240,0,1,,,,,,,,,,,,,,,0,,,84,0
171601,set_tempo,241,1,0,,,,,,,,,,,,452625,,,,,,,
171623,control_change,23,0,2,,,,,,,,,,,,,,,0,64,0,,
171634,control_change,11,0,2,,,,,,,,,,,,,,,0,64,127,,
171720,note_on,0,0,2,,,,,,,,,,,,,,,0,,,68,33
171720,note_on,0,0,2,,,,,,,,,,,,,,,0,,,60,0
171720,note_on,86,0,2,,,,,,,,,,,,,,,0,,,65,0
171720,note_on,120,0,1,,,,,,,,,,,,,,,0,,,82,0
171720,note_on,0,0,1,,,,,,,,,,,,,,,0,,,80,64
171840,note_on,120,0,2,,,,,,,,,,,,,,,0,,,68,0
171840,note_on,0,0,2,,,,,,,,,,,,,,,0,,,65,38
171840,note_on,0,0,1,,,,,,,,,,,,,,,0,,,79,69
171840,note_on,120,0,1,,,,,,,,,,,,,,,0,,,80,0
171840,set_tempo,239,1,0,,,,,,,,,,,,478965,,,,,,,
171840,note_on,0,0,2,,,,,,,,,,,,,,,0,,,60,31
171960,note_on,0,0,1,,,,,,,,,,,,,,,0,,,77,69
171960,note_on,0,0,2,,,,,,,,,,,,,,,0,,,68,33
171960,note_on,0,0,2,,,,,,,,,,,,,,,0,,,60,0
171960,note_on,120,0,2,,,,,,,,,,,,,,,0,,,65,0
171960,note_on,120,0,1,,,,,,,,,,,,,,,0,,,79,0
172080,note_on,0,0,2,,,,,,,,,,,,,,,0,,,60,31
172080,note_on,0,0,2,,,,,,,,,,,,,,,0,,,65,38
172080,control_change,0,0,2,,,,,,,,,,,,,,,0,64,0,,
172080,note_on,120,0,2,,,,,,,,,,,,,,,0,,,68,0
172080,note_on,120,0,1,,,,,,,,,,,,,,,0,,,77,0
172080,set_tempo,240,1,0,,,,,,,,,,,,491400,,,,,,,
172080,note_on,0,0,1,,,,,,,,,,,,,,,0,,,84,69
172095,control_change,15,0,2,,,,,,,,,,,,,,,0,64,0,,
172130,control_change,35,0,2,,,,,,,,,,,,,,,0,64,127,,
172200,note_on,0,0,2,,,,,,,,,,,,,,,0,,,67,33
172200,note_on,0,0,2,,,,,,,,,,,,,,,0,,,60,0
172200,note_on,70,0,2,,,,,,,,,,,,,,,0,,,65,0
172320,set_tempo,240,1,0,,,,,,,,,,,,472962,,,,,,,
172320,note_on,0,0,2,,,,,,,,,,,,,,,0,,,64,38
172320,note_on,0,0,2,,,,,,,,,,,,,,,0,,,60,31
172320,note_on,120,0,2,,,,,,,,,,,,,,,0,,,67,0
172320,note_on,0,0,1,,,,,,,,,,,,,,,0,,,72,67
172320,note_on,240,0,1,,,,,,,,,,,,,,,0,,,84,0
172326,control_change,6,0,2,,,,,,,,,,,,,,,0,64,0,,
172354,control_change,28,0,2,,,,,,,,,,,,,,,0,64,127,,
172440,note_on,0,0,2,,,,,,,,,,,,,,,0,,,67,33
172440,note_on,0,0,2,,,,,,,,,,,,,,,0,,,60,0
172440,note_on,86,0,2,,,,,,,,,,,,,,,0,,,64,0
172560,note_on,240,0,1,,,,,,,,,,,,,,,0,,,72,0
172560,note_on,0,0,2,,,,,,,,,,,,,,,0,,,64,38
172560,note_on,0,0,2,,,,,,,,,,,,,,,0,,,60,31
172560,note_on,120,0,2,,,,,,,,,,,,,,,0,,,67,0
172560,note_on,0,0,1,,,,,,,,,,,,,,,0,,,72,67
172680,note_on,0,0,2,,,,,,,,,,,,,,,0,,,67,36
172680,note_on,120,0,2,,,,,,,,,,,,,,,0,,,64,0
172680,note_on,0,0,2,,,,,,,,,,,,,,,0,,,60,0
172800,control_change,0,0,2,,,,,,,,,,,,,,,0,64,0,,
172800,note_on,120,0,2,,,,,,,,,,,,,,,0,,,67,0
172800,note_on,0,0,2,,,,,,,,,,,,,,,0,,,56,44
172800,note_on,0,0,2,,,,,,,,,,,,,,,0,,,60,52
172800,note_on,240,0,1,,,,,,,,,,,,,,,0,,,72,0
172800,note_on,0,0,1,,,,,,,,,,,,,,,0,,,68,44
172800,note_on,0,0,1,,,,,,,,,,,,,,,0,,,72,52
172800,set_tempo,480,1,0,,,,,,,,,,,,480962,,,,,,,
172920,note_on,0,0,1,,,,,,,,,,,,,,,0,,,68,0
172920,note_on,0,0,1,,,,,,,,,,,,,,,0,,,75,46
172920,note_on,120,0,1,,,,,,,,,,,,,,,0,,,72,0
173040,note_on,0,0,2,,,,,,,,,,,,,,,0,,,61,48
173040,note_on,240,0,2,,,,,,,,,,,,,,,0,,,60,0
173040,set_tempo,240,1,0,,,,,,,,,,,,478965,,,,,,,
173040,note_on,120,0,1,,,,,,,,,,,,,,,0,,,75,0
173040,note_on,0,0,1,,,,,,,,,,,,,,,0,,,68,45
173040,note_on,0,0,1,,,,,,,,,,,,,,,0,,,72,53
173160,note_on,120,0,1,,,,,,,,,,,,,,,0,,,72,0
173160,note_on,0,0,1,,,,,,,,,,,,,,,0,,,68,0
173160,note_on,0,0,1,,,,,,,,,,,,,,,0,,,75,45
173280,note_on,0,0,2,,,,,,,,,,,,,,,0,,,60,48
173280,note_on,240,0,2,,,,,,,,,,,,,,,0,,,61,0
173280,set_tempo,240,1,0,,,,,,,,,,,,485084,,,,,,,
173280,note_on,0,0,1,,,,,,,,,,,,,,,0,,,68,45
173280,note_on,0,0,1,,,,,,,,,,,,,,,0,,,72,53
173280,note_on,120,0,1,,,,,,,,,,,,,,,0,,,75,0
173400,note_on,120,0,1,,,,,,,,,,,,,,,0,,,72,0
173400,note_on,0,0,1,,,,,,,,,,,,,,,0,,,68,0
173400,note_on,0,0,1,,,,,,,,,,,,,,,0,,,75,46
173480,set_tempo,200,1,0,,,,,,,,,,,,474947,,,,,,,
173520,note_on,120,0,1,,,,,,,,,,,,,,,0,,,75,0
173520,note_on,0,0,2,,,,,,,,,,,,,,,0,,,58,52
173520,note_on,0,0,2,,,,,,,,,,,,,,,0,,,49,44
173520,note_on,0,0,2,,,,,,,,,,,,,,,0,,,56,0
173520,note_on,240,0,2,,,,,,,,,,,,,,,0,,,60,0
173520,set_tempo,40,1,0,,,,,,,,,,,,480962,,,,,,,
173520,note_on,0,0,1,,,,,,,,,,,,,,,0,,,68,44
173520,note_on,0,0,1,,,,,,,,,,,,,,,0,,,77,52
173640,note_on,0,0,1,,,,,,,,,,,,,,,0,,,68,0
173640,note_on,120,0,1,,,,,,,,,,,,,,,0,,,77,0
173640,note_on,0,0,1,,,,,,,,,,,,,,,0,,,80,46
173760,note_on,120,0,1,,,,,,,,,,,,,,,0,,,80,0
173760,set_tempo,240,1,0,,,,,,,,,,,,474947,,,,,,,
173760,note_on,0,0,2,,,,,,,,,,,,,,,0,,,53,50
173760,note_on,240,0,2,,,,,,,,,,,,,,,0,,,58,0
173760,note_on,0,0,1,,,,,,,,,,,,,,,0,,,77,56
173760,note_on,0,0,1,,,,,,,,,,,,,,,0,,,68,47
173880,note_on,0,0,1,,,,,,,,,,,,,,,0,,,68,0
173880,note_on,0,0,1,,,,,,,,,,,,,,,0,,,80,47
173880,note_on,120,0,1,,,,,,,,,,,,,,,0,,,77,0
174000,note_on,240,0,2,,,,,,,,,,,,,,,0,,,53,0
174000,note_on,0,0,1,,,,,,,,,,,,,,,0,,,68,49
174000,note_on,0,0,1,,,,,,,,,,,,,,,0,,,77,58
174000,note_on,120,0,1,,,,,,,,,,,,,,,0,,,80,0
174000,note_on,0,0,2,,,,,,,,,,,,,,,0,,,55,52
174120,set_tempo,360,1,0,,,,,,,,,,,,483014,,,,,,,
174120,note_on,120,0,1,,,,,,,,,,,,,,,0,,,77,0
174120,note_on,0,0,1,,,,,,,,,,,,,,,0,,,68,0
174120,note_on,0,0,1,,,,,,,,,,,,,,,0,,,80,51
174180,note_on,180,0,2,,,,,,,,,,,,,,,0,,,58,49
174240,note_on,120,0,1,,,,,,,,,,,,,,,0,,,80,0
174240,note_on,0,0,1,,,,,,,,,,,,,,,0,,,68,44
174240,note_on,0,0,1,,,,,,,,,,,,,,,0,,,72,52
174240,note_on,0,0,2,,,,,,,,,,,,,,,0,,,49,0
174240,note_on,0,0,2,,,,,,,,,,,,,,,0,,,51,44
174240,note_on,0,0,2,,,,,,,,,,,,,,,0,,,56,52
174240,note_on,0,0,2,,,,,,,,,,,,,,,0,,,55,0
174240,note_on,60,0,2,,,,,,,,,,,,,,,0,,,58,0
174240,set_tempo,120,1,0,,,,,,,,,,,,474608,,,,,,,
174360,note_on,0,0,1,,,,,,,,,,,,,,,0,,,75,45
174360,note_on,0,0,1,,,,,,,,,,,,,,,0,,,68,0
174360,note_on,120,0,1,,,,,,,,,,,,,,,0,,,72,0
174480,note_on,0,0,1,,,,,,,,,,,,,,,0,,,68,42
174480,note_on,0,0,1,,,,,,,,,,,,,,,0,,,72,50
174480,note_on,240,0,2,,,,,,,,,,,,,,,0,,,56,0
174480,note_on,0,0,2,,,,,,,,,,,,,,,0,,,55,45
174480,note_on,120,0,1,,,,,,,,,,,,,,,0,,,75,0
174600,note_on,120,0,1,,,,,,,,,,,,,,,0,,,72,0
174600,note_on,0,0,1,,,,,,,,,,,,,,,0,,,68,0
174600,note_on,0,0,1,,,,,,,,,,,,,,,0,,,75,41
174720,note_on,0,0,1,,,,,,,,,,,,,,,0,,,72,48
174720,note_on,0,0,2,,,,,,,,,,,,,,,0,,,56,42
174720,note_on,240,0,2,,,,,,,,,,,,,,,0,,,55,0
174720,note_on,0,0,1,,,,,,,,,,,,,,,0,,,68,40
174720,set_tempo,480,1,0,,,,,,,,,,,,487171,,,,,,,
174720,note_on,120,0,1,,,,,,,,,,,,,,,0,,,75,0
174840,note_on,0,0,1,,,,,,,,,,,,,,,0,,,75,39
174840,note_on,0,0,1,,,,,,,,,,,,,,,0,,,68,0
174840,note_on,120,0,1,,,,,,,,,,,,,,,0,,,72,0
174960,note_on,0,0,1,,,,,,,,,,,,,,,0,,,73,44
174960,note_on,0,0,1,,,,,,,,,,,,,,,0,,,67,37
174960,note_on,120,0,1,,,,,,,,,,,,,,,0,,,75,0
174960,set_tempo,240,1,0,,,,,,,,,,,,476948,,,,,,,
174960,note_on,240,0,2,,,,,,,,,,,,,,,0,,,56,0
174960,note_on,0,0,2,,,,,,,,,,,,,,,0,,,58,44
175080,set_tempo,120,1,0,,,,,,,,,,,,478965,,,,,,,
175080,note_on,0,0,1,,,,,,,,,,,,,,,0,,,75,38
175080,note_on,120,0,1,,,,,,,,,,,,,,,0,,,73,0
175080,note_on,0,0,1,,,,,,,,,,,,,,,0,,,67,0
175160,set_tempo,80,1,0,,,,,,,,,,,,480962,,,,,,,
175200,note_on,120,0,1,,,,,,,,,,,,,,,0,,,75,0
175200,note_on,0,0,1,,,,,,,,,,,,,,,0,,,67,37
175200,note_on,0,0,1,,,,,,,,,,,,,,,0,,,73,45
175280,set_tempo,120,1,0,,,,,,,,,,,,483014,,,,,,,
175320,note_on,120,0,1,,,,,,,,,,,,,,,0,,,73,0
175320,note_on,0,0,1,,,,,,,,,,,,,,,0,,,67,0
175320,note_on,0,0,1,,,,,,,,,,,,,,,0,,,75,37
175360,set_tempo,80,1,0,,,,,,,,,,,,485084,,,,,,,
175440,note_on,480,0,2,,,,,,,,,,,,,,,0,,,58,0
175440,note_on,0,0,2,,,,,,,,,,,,,,,0,,,59,40
175440,note_on,0,0,1,,,,,,,,,,,,,,,0,,,73,45
175440,note_on,120,0,1,,,,,,,,,,,,,,,0,,,75,0
175440,note_on,0,0,1,,,,,,,,,,,,,,,0,,,67,37
175480,set_tempo,120,1,0,,,,,,,,,,,,487171,,,,,,,
175560,note_on,120,0,1,,,,,,,,,,,,,,,0,,,73,0
175560,note_on,0,0,1,,,,,,,,,,,,,,,0,,,67,0
175560,note_on,0,0,1,,,,,,,,,,,,,,,0,,,75,38
175560,set_tempo,80,1,0,,,,,,,,,,,,489277,,,,,,,
175640,set_tempo,80,1,0,,,,,,,,,,,,491400,,,,,,,
175680,note_on,240,0,2,,,,,,,,,,,,,,,0,,,59,0
175680,set_tempo,40,1,0,,,,,,,,,,,,492045,,,,,,,
175680,note_on,0,0,2,,,,,,,,,,,,,,,0,,,51,0
175680,note_on,0,0,2,,,,,,,,,,,,,,,0,,,60,41
175680,note_on,0,0,2,,,,,,,,,,,,,,,0,,,56,35
175680,note_on,0,0,1,,,,,,,,,,,,,,,0,,,75,66
175680,note_on,0,0,1,,,,,,,,,,,,,,,0,,,72,56
175680,note_on,0,0,1,,,,,,,,,,,,,,,0,,,68,56
175680,note_on,120,0,1,,,,,,,,,,,,,,,0,,,75,0
175697,control_change,17,0,2,,,,,,,,,,,,,,,0,64,127,,
175740,note_on,0,0,1,,,,,,,,,,,,,,,0,,,68,0
175740,note_on,0,0,1,,,,,,,,,,,,,,,0,,,72,0
175740,note_on,60,0,1,,,,,,,,,,,,,,,0,,,75,0
175800,note_on,0,0,2,,,,,,,,,,,,,,,0,,,63,33
175800,note_on,103,0,2,,,,,,,,,,,,,,,0,,,60,0
175800,note_on,0,0,2,,,,,,,,,,,,,,,0,,,56,0
175860,note_on,120,0,1,,,,,,,,,,,,,,,0,,,73,58
175877,control_change,77,0,2,,,,,,,,,,,,,,,0,64,0,,
175906,control_change,29,0,2,,,,,,,,,,,,,,,0,64,127,,
175920,note_on,60,0,1,,,,,,,,,,,,,,,0,,,73,0
175920,note_on,14,0,2,,,,,,,,,,,,,,,0,,,63,0
175920,note_on,0,0,1,,,,,,,,,,,,,,,0,,,72,67
175920,note_on,0,0,2,,,,,,,,,,,,,,,0,,,56,31
175920,note_on,0,0,2,,,,,,,,,,,,,,,0,,,60,38
175921,set_tempo,241,1,0,,,,,,,,,,,,452625,,,,,,,
176040,note_on,0,0,1,,,,,,,,,,,,,,,0,,,70,62
176040,note_on,120,0,1,,,,,,,,,,,,,,,0,,,72,0
176040,note_on,0,0,2,,,,,,,,,,,,,,,0,,,63,33
176040,note_on,120,0,2,,,,,,,,,,,,,,,0,,,60,0
176040,note_on,0,0,2,,,,,,,,,,,,,,,0,,,56,0
176154,control_change,114,0,2,,,,,,,,,,,,,,,0,64,0,,
176160,note_on,6,0,2,,,,,,,,,,,,,,,0,,,63,0
176160,note_on,0,0,2,,,,,,,,,,,,,,,0,,,60,38
176160,note_on,0,0,2,,,,,,,,,,,,,,,0,,,56,31
176160,note_on,0,0,1,,,,,,,,,,,,,,,0,,,72,66
176160,note_on,120,0,1,,,,,,,,,,,,,,,0,,,70,0
176161,set_tempo,240,1,0,,,,,,,,,,,,458155,,,,,,,
176163,control_change,3,0,2,,,,,,,,,,,,,,,0,64,127,,
176280,note_on,0,0,2,,,,,,,,,,,,,,,0,,,63,33
176280,note_on,0,0,2,,,,,,,,,,,,,,,0,,,56,0
176280,note_on,117,0,2,,,,,,,,,,,,,,,0,,,60,0
176400,note_on,240,0,1,,,,,,,,,,,,,,,0,,,72,0
176400,note_on,0,0,2,,,,,,,,,,,,,,,0,,,55,31
176400,note_on,0,0,2,,,,,,,,,,,,,,,0,,,58,38
176400,control_change,0,0,2,,,,,,,,,,,,,,,0,64,0,,
176400,set_tempo,239,1,0,,,,,,,,,,,,482199,,,,,,,
176400,note_on,120,0,2,,,,,,,,,,,,,,,0,,,63,0
176400,note_on,0,0,1,,,,,,,,,,,,,,,0,,,75,66
176415,control_change,15,0,2,,,,,,,,,,,,,,,0,64,0,,
176450,control_change,35,0,2,,,,,,,,,,,,,,,0,64,127,,
176460,note_on,60,0,1,,,,,,,,,,,,,,,0,,,75,0
176520,note_on,0,0,2,,,,,,,,,,,,,,,0,,,63,33
176520,note_on,70,0,2,,,,,,,,,,,,,,,0,,,58,0
176520,note_on,0,0,2,,,,,,,,,,,,,,,0,,,55,0
176580,note_on,120,0,1,,,,,,,,,,,,,,,0,,,72,58
176608,control_change,88,0,2,,,,,,,,,,,,,,,0,64,0,,
176622,control_change,14,0,2,,,,,,,,,,,,,,,0,64,127,,
176640,note_on,18,0,2,,,,,,,,,,,,,,,0,,,63,0
176640,note_on,0,0,2,,,,,,,,,,,,,,,0,,,58,38
176640,note_on,60,0,1,,,,,,,,,,,,,,,0,,,72,0
176640,note_on,0,0,1,,,,,,,,,,,,,,,0,,,70,67
176640,note_on,0,0,2,,,,,,,,,,,,,,,0,,,55,31
176641,set_tempo,241,1,0,,,,,,,,,,,,452625,,,,,,,
176760,note_on,120,0,2,,,,,,,,,,,,,,,0,,,58,0
176760,note_on,0,0,1,,,,,,,,,,,,,,,0,,,69,62
176760,note_on,120,0,1,,,,,,,,,,,,,,,0,,,70,0
176760,note_on,0,0,2,,,,,,,,,,,,,,,0,,,55,0
176760,note_on,0,0,2,,,,,,,,,,,,,,,0,,,63,33
176866,control_change,106,0,2,,,,,,,,,,,,,,,0,64,0,,
176880,note_on,14,0,2,,,,,,,,,,,,,,,0,,,63,0
176880,note_on,0,0,2,,,,,,,,,,,,,,,0,,,54,31
176880,note_on,0,0,2,,,,,,,,,,,,,,,0,,,58,38
176880,set_tempo,239,1,0,,,,,,,,,,,,467108,,,,,,,
176880,note_on,0,0,1,,,,,,,,,,,,,,,0,,,70,66
176880,note_on,120,0,1,,,,,,,,,,,,,,,0,,,69,0
176894,control_change,14,0,2,,,,,,,,,,,,,,,0,64,127,,
177000,note_on,0,0,2,,,,,,,,,,,,,,,0,,,54,0
177000,note_on,0,0,2,,,,,,,,,,,,,,,0,,,63,33
177000,note_on,106,0,2,,,,,,,,,,,,,,,0,,,58,0
177120,note_on,0,0,1,,,,,,,,,,,,,,,0,,,77,69
177120,note_on,240,0,1,,,,,,,,,,,,,,,0,,,70,0
177120,note_on,0,0,2,,,,,,,,,,,,,,,0,,,58,38
177120,control_change,0,0,2,,,,,,,,,,,,,,,0,64,0,,
177120,note_on,0,0,2,,,,,,,,,,,,,,,0,,,53,31
177120,note_on,120,0,2,,,,,,,,,,,,,,,0,,,63,0
177120,set_tempo,240,1,0,,,,,,,,,,,,482199,,,,,,,
177135,control_change,15,0,2,,,,,,,,,,,,,,,0,64,0,,
177170,control_change,35,0,2,,,,,,,,,,,,,,,0,64,127,,
177240,note_on,70,0,2,,,,,,,,,,,,,,,0,,,58,0
177240,note_on,0,0,2,,,,,,,,,,,,,,,0,,,53,0
177240,note_on,0,0,2,,,,,,,,,,,,,,,0,,,61,33
177360,note_on,0,0,1,,,,,,,,,,,,,,,0,,,75,70
177360,note_on,240,0,1,,,,,,,,,,,,,,,0,,,77,0
177360,note_on,0,0,2,,,,,,,,,,,,,,,0,,,53,31
177360,note_on,120,0,2,,,,,,,,,,,,,,,0,,,61,0
177360,note_on,0,0,2,,,,,,,,,,,,,,,0,,,58,38
177361,set_tempo,241,1,0,,,,,,,,,,,,452625,,,,,,,
177377,control_change,17,0,2,,,,,,,,,,,,,,,0,64,0,,
177406,control_change,29,0,2,,,,,,,,,,,,,,,0,64,127,,
177480,note_on,0,0,2,,,,,,,,,,,,,,,0,,,61,33
177480,note_on,0,0,1,,,,,,,,,,,,,,,0,,,73,64
177480,note_on,0,0,2,,,,,,,,,,,,,,,0,,,53,0
177480,note_on,120,0,1,,,,,,,,,,,,,,,0,,,75,0
177480,note_on,74,0,2,,,,,,,,,,,,,,,0,,,58,0
177600,set_tempo,239,1,0,,,,,,,,,,,,476948,,,,,,,
177600,note_on,120,0,2,,,,,,,,,,,,,,,0,,,61,0
177600,note_on,0,0,2,,,,,,,,,,,,,,,0,,,53,31
177600,note_on,0,0,2,,,,,,,,,,,,,,,0,,,58,38
177600,note_on,0,0,1,,,,,,,,,,,,,,,0,,,72,69
177600,note_on,120,0,1,,,,,,,,,,,,,,,0,,,73,0
177720,note_on,0,0,1,,,,,,,,,,,,,,,0,,,70,69
177720,note_on,120,0,1,,,,,,,,,,,,,,,0,,,72,0
177720,note_on,120,0,2,,,,,,,,,,,,,,,0,,,58,0
177720,note_on,0,0,2,,,,,,,,,,,,,,,0,,,61,33
177720,note_on,0,0,2,,,,,,,,,,,,,,,0,,,53,0
177840,set_tempo,240,1,0,,,,,,,,,,,,487171,,,,,,,
177840,note_on,0,0,2,,,,,,,,,,,,,,,0,,,58,38
177840,note_on,120,0,2,,,,,,,,,,,,,,,0,,,61,0
177840,note_on,120,0,1,,,,,,,,,,,,,,,0,,,70,0
177840,control_change,0,0,2,,,,,,,,,,,,,,,0,64,0,,
177840,note_on,0,0,1,,,,,,,,,,,,,,,0,,,77,69
177840,note_on,0,0,2,,,,,,,,,,,,,,,0,,,53,31
177855,control_change,15,0,2,,,,,,,,,,,,,,,0,64,0,,
177890,control_change,35,0,2,,,,,,,,,,,,,,,0,64,127,,
177960,note_on,0,0,2,,,,,,,,,,,,,,,0,,,53,0
177960,note_on,0,0,2,,,,,,,,,,,,,,,0,,,60,33
177960,note_on,70,0,2,,,,,,,,,,,,,,,0,,,58,0
178080,set_tempo,240,1,0,,,,,,,,,,,,474947,,,,,,,
178080,note_on,120,0,2,,,,,,,,,,,,,,,0,,,60,0
178080,note_on,0,0,2,,,,,,,,,,,,,,,0,,,53,31
178080,note_on,0,0,1,,,,,,,,,,,,,,,0,,,65,67
178080,note_on,240,0,1,,,,,,,,,,,,,,,0,,,77,0
178080,note_on,0,0,2,,,,,,,,,,,,,,,0,,,57,38
178086,control_change,6,0,2,,,,,,,,,,,,,,,0,64,0,,
178114,control_change,28,0,2,,,,,,,,,,,,,,,0,64,127,,
178200,note_on,0,0,2,,,,,,,,,,,,,,,0,,,53,0
178200,note_on,0,0,2,,,,,,,,,,,,,,,0,,,60,33
178200,note_on,86,0,2,,,,,,,,,,,,,,,0,,,57,0
178320,note_on,240,0,1,,,,,,,,,,,,,,,0,,,65,0
178320,note_on,0,0,1,,,,,,,,,,,,,,,0,,,65,67
178320,note_on,120,0,2,,,,,,,,,,,,,,,0,,,60,0
178320,note_on,0,0,2,,,,,,,,,,,,,,,0,,,53,31
178320,note_on,0,0,2,,,,,,,,,,,,,,,0,,,57,38
178440,note_on,0,0,2,,,,,,,,,,,,,,,0,,,60,36
178440,note_on,0,0,2,,,,,,,,,,,,,,,0,,,53,0
178440,note_on,120,0,2,,,,,,,,,,,,,,,0,,,57,0
178560,set_tempo,480,1,0,,,,,,,,,,,,480962,,,,,,,
178560,note_on,0,0,1,,,,,,,,,,,,,,,0,,,77,52
178560,note_on,120,0,2,,,,,,,,,,,,,,,0,,,60,0
178560,note_on,0,0,2,,,,,,,,,,,,,,,0,,,61,44
178560,note_on,0,0,2,,,,,,,,,,,,,,,0,,,65,52
178560,control_change,0,0,2,,,,,,,,,,,,,,,0,64,0,,
178560,note_on,0,0,1,,,,,,,,,,,,,,,0,,,73,44
178560,note_on,240,0,1,,,,,,,,,,,,,,,0,,,65,0
178680,note_on,0,0,1,,,,,,,,,,,,,,,0,,,80,46
178680,note_on,0,0,1,,,,,,,,,,,,,,,0,,,73,0
178680,note_on,120,0,1,,,,,,,,,,,,,,,0,,,77,0
178800,set_tempo,240,1,0,,,,,,,,,,,,478965,,,,,,,
178800,note_on,0,0,1,,,,,,,,,,,,,,,0,,,77,53
178800,note_on,0,0,1,,,,,,,,,,,,,,,0,,,73,45
178800,note_on,120,0,1,,,,,,,,,,,,,,,0,,,80,0
178800,note_on,0,0,2,,,,,,,,,,,,,,,0,,,66,48
178800,note_on,240,0,2,,,,,,,,,,,,,,,0,,,65,0
178920,note_on,0,0,1,,,,,,,,,,,,,,,0,,,80,45
178920,note_on,0,0,1,,,,,,,,,,,,,,,0,,,73,0
178920,note_on,120,0,1,,,,,,,,,,,,,,,0,,,77,0
179040,note_on,0,0,1,,,,,,,,,,,,,,,0,,,73,45
179040,note_on,120,0,1,,,,,,,,,,,,,,,0,,,80,0
179040,note_on,0,0,1,,,,,,,,,,,,,,,0,,,77,53
179040,note_on,240,0,2,,,,,,,,,,,,,,,0,,,66,0
179040,set_tempo,240,1,0,,,,,,,,,,,,476948,,,,,,,
179040,note_on,0,0,2,,,,,,,,,,,,,,,0,,,65,48
179160,note_on,0,0,1,,,,,,,,,,,,,,,0,,,73,0
179160,note_on,120,0,1,,,,,,,,,,,,,,,0,,,77,0
179160,note_on,0,0,1,,,,,,,,,,,,,,,0,,,80,46
179240,set_tempo,200,1,0,,,,,,,,,,,,474947,,,,,,,
179280,note_on,0,0,2,,,,,,,,,,,,,,,0,,,63,52
179280,note_on,0,0,2,,,,,,,,,,,,,,,0,,,61,0
179280,note_on,240,0,2,,,,,,,,,,,,,,,0,,,65,0
179280,note_on,0,0,2,,,,,,,,,,,,,,,0,,,54,44
179280,note_on,0,0,1,,,,,,,,,,,,,,,0,,,82,52
179280,note_on,0,0,1,,,,,,,,,,,,,,,0,,,73,44
179280,note_on,120,0,1,,,,,,,,,,,,,,,0,,,80,0
179280,set_tempo,40,1,0,,,,,,,,,,,,485084,,,,,,,
179400,note_on,0,0,1,,,,,,,,,,,,,,,0,,,85,46
179400,note_on,120,0,1,,,,,,,,,,,,,,,0,,,82,0
179400,note_on,0,0,1,,,,,,,,,,,,,,,0,,,73,0
179520,note_on,120,0,1,,,,,,,,,,,,,,,0,,,85,0
179520,note_on,240,0,2,,,,,,,,,,,,,,,0,,,63,0
179520,note_on,0,0,2,,,,,,,,,,,,,,,0,,,58,50
179520,note_on,0,0,1,,,,,,,,,,,,,,,0,,,73,47
179520,note_on,0,0,1,,,,,,,,,,,,,,,0,,,82,56
179520,set_tempo,240,1,0,,,,,,,,,,,,472962,,,,,,,
179640,note_on,120,0,1,,,,,,,,,,,,,,,0,,,82,0
179640,note_on,0,0,1,,,,,,,,,,,,,,,0,,,73,0
179640,note_on,0,0,1,,,,,,,,,,,,,,,0,,,85,47
179760,note_on,0,0,1,,,,,,,,,,,,,,,0,,,73,49
179760,note_on,0,0,1,,,,,,,,,,,,,,,0,,,82,58
179760,note_on,0,0,2,,,,,,,,,,,,,,,0,,,60,52
179760,note_on,240,0,2,,,,,,,,,,,,,,,0,,,58,0
179760,note_on,120,0,1,,,,,,,,,,,,,,,0,,,85,0
179880,note_on,0,0,1,,,,,,,,,,,,,,,0,,,73,0
179880,set_tempo,360,1,0,,,,,,,,,,,,483014,,,,,,,
179880,note_on,0,0,1,,,,,,,,,,,,,,,0,,,85,51
179880,note_on,120,0,1,,,,,,,,,,,,,,,0,,,82,0
179940,note_on,180,0,2,,,,,,,,,,,,,,,0,,,63,49
180000,set_tempo,120,1,0,,,,,,,,,,,,474608,,,,,,,
180000,note_on,60,0,2,,,,,,,,,,,,,,,0,,,63,0
180000,note_on,0,0,2,,,,,,,,,,,,,,,0,,,60,0
180000,note_on,0,0,2,,,,,,,,,,,,,,,0,,,54,0
180000,note_on,0,0,2,,,,,,,,,,,,,,,0,,,56,44
180000,note_on,0,0,2,,,,,,,,,,,,,,,0,,,61,52
180000,note_on,120,0,1,,,,,,,,,,,,,,,0,,,85,0
180000,note_on,0,0,1,,,,,,,,,,,,,,,0,,,73,44
180000,note_on,0,0,1,,,,,,,,,,,,,,,0,,,77,52
180120,note_on,120,0,1,,,,,,,,,,,,,,,0,,,77,0
180120,note_on,0,0,1,,,,,,,,,,,,,,,0,,,73,0
180120,note_on,0,0,1,,,,,,,,,,,,,,,0,,,80,45
180240,note_on,120,0,1,,,,,,,,,,,,,,,0,,,80,0
180240,note_on,0,0,2,,,,,,,,,,,,,,,0,,,60,45
180240,note_on,240,0,2,,,,,,,,,,,,,,,0,,,61,0
180240,note_on,0,0,1,,,,,,,,,,,,,,,0,,,77,50
180240,note_on,0,0,1,,,,,,,,,,,,,,,0,,,73,42
180360,note_on,120,0,1,,,,,,,,,,,,,,,0,,,77,0
180360,note_on,0,0,1,,,,,,,,,,,,,,,0,,,73,0
180360,note_on,0,0,1,,,,,,,,,,,,,,,0,,,80,41
180480,note_on,120,0,1,,,,,,,,,,,,,,,0,,,80,0
180480,note_on,0,0,2,,,,,,,,,,,,,,,0,,,61,42
180480,note_on,0,0,1,,,,,,,,,,,,,,,0,,,77,48
180480,note_on,0,0,1,,,,,,,,,,,,,,,0,,,73,40
180480,note_on,240,0,2,,,,,,,,,,,,,,,0,,,60,0
180600,note_on,0,0,1,,,,,,,,,,,,,,,0,,,80,39
180600,note_on,120,0,1,,,,,,,,,,,,,,,0,,,77,0
180600,note_on,0,0,1,,,,,,,,,,,,,,,0,,,73,0
180720,note_on,0,0,2,,,,,,,,,,,,,,,0,,,63,44
180720,note_on,240,0,2,,,,,,,,,,,,,,,0,,,61,0
180720,note_on,0,0,1,,,,,,,,,,,,,,,0,,,78,44
180720,note_on,0,0,1,,,,,,,,,,,,,,,0,,,72,37
180720,note_on,120,0,1,,,,,,,,,,,,,,,0,,,80,0
180720,set_tempo,720,1,0,,,,,,,,,,,,472776,,,,,,,
180830,set_tempo,110,1,0,,,,,,,,,,,,474608,,,,,,,
180840,note_on,0,0,1,,,,,,,,,,,,,,,0,,,80,38
180840,note_on,0,0,1,,,,,,,,,,,,,,,0,,,72,0
180840,note_on,120,0,1,,,,,,,,,,,,,,,0,,,78,0
180930,set_tempo,100,1,0,,,,,,,,,,,,476531,,,,,,,
180960,note_on,0,0,1,,,,,,,,,,,,,,,0,,,78,45
180960,note_on,0,0,1,,,,,,,,,,,,,,,0,,,72,37
180960,note_on,120,0,1,,,,,,,,,,,,,,,0,,,80,0
181030,set_tempo,100,1,0,,,,,,,,,,,,478354,,,,,,,
181080,note_on,0,0,1,,,,,,,,,,,,,,,0,,,80,37
181080,note_on,0,0,1,,,,,,,,,,,,,,,0,,,72,0
181080,note_on,120,0,1,,,,,,,,,,,,,,,0,,,78,0
181140,set_tempo,110,1,0,,,,,,,,,,,,480384,,,,,,,
181200,note_on,0,0,2,,,,,,,,,,,,,,,0,,,64,40
181200,note_on,480,0,2,,,,,,,,,,,,,,,0,,,63,0
181200,note_on,0,0,1,,,,,,,,,,,,,,,0,,,78,45
181200,note_on,120,0,1,,,,,,,,,,,,,,,0,,,80,0
181200,note_on,0,0,1,,,,,,,,,,,,,,,0,,,72,37
181240,set_tempo,100,1,0,,,,,,,,,,,,482199,,,,,,,
181320,note_on,120,0,1,,,,,,,,,,,,,,,0,,,78,0
181320,note_on,0,0,1,,,,,,,,,,,,,,,0,,,72,0
181320,note_on,0,0,1,,,,,,,,,,,,,,,0,,,80,38
181340,set_tempo,100,1,0,,,,,,,,,,,,484183,,,,,,,
181440,note_on,0,0,2,,,,,,,,,,,,,,,0,,,65,41
181440,note_on,0,0,2,,,,,,,,,,,,,,,0,,,61,35
181440,note_on,0,0,2,,,,,,,,,,,,,,,0,,,56,0
181440,note_on,240,0,2,,,,,,,,,,,,,,,0,,,64,0
181440,note_on,120,0,1,,,,,,,,,,,,,,,0,,,80,0
181440,note_on,0,0,1,,,,,,,,,,,,,,,0,,,80,44
181440,note_on,0,0,1,,,,,,,,,,,,,,,0,,,73,37
181440,note_on,0,0,1,,,,,,,,,,,,,,,0,,,77,37
181440,set_tempo,100,1,0,,,,,,,,,,,,492045,,,,,,,
181500,note_on,0,0,2,,,,,,,,,,,,,,,0,,,61,0
181500,note_on,60,0,2,,,,,,,,,,,,,,,0,,,65,0
181680,note_on,180,0,2,,,,,,,,,,,,,,,0,,,49,33
181680,note_on,0,0,1,,,,,,,,,,,,,,,0,,,73,0
181680,note_on,0,0,1,,,,,,,,,,,,,,,0,,,77,0
181680,set_tempo,240,1,0,,,,,,,,,,,,489277,,,,,,,
181680,note_on,240,0,1,,,,,,,,,,,,,,,0,,,80,0
181740,note_on,60,0,2,,,,,,,,,,,,,,,0,,,49,0
181920,set_tempo,240,1,0,,,,,,,,,,,,504498,,,,,,,
181920,note_on,180,0,2,,,,,,,,,,,,,,,0,,,49,33
181980,note_on,60,0,2,,,,,,,,,,,,,,,0,,,49,0
182160,note_on,180,0,2,,,,,,,,,,,,,,,0,,,61,31
182160,set_tempo,240,1,0,,,,,,,,,,,,483014,,,,,,,
182163,note_on,3,0,2,,,,,,,,,,,,,,,0,,,65,38
182220,note_on,57,0,2,,,,,,,,,,,,,,,0,,,61,0
182223,note_on,3,0,2,,,,,,,,,,,,,,,0,,,65,0
182400,set_tempo,240,1,0,,,,,,,,,,,,491400,,,,,,,
182400,note_on,177,0,2,,,,,,,,,,,,,,,0,,,49,33
182460,note_on,60,0,2,,,,,,,,,,,,,,,0,,,49,0
182640,note_on,180,0,2,,,,,,,,,,,,,,,0,,,49,33
182640,set_tempo,240,1,0,,,,,,,,,,,,502260,,,,,,,
182700,note_on,60,0,2,,,,,,,,,,,,,,,0,,,49,0
182820,note_on,1140,0,1,,,,,,,,,,,,,,,0,,,73,48
182850,note_on,30,0,1,,,,,,,,,,,,,,,0,,,77,48
182880,set_tempo,240,1,0,,,,,,,,,,,,467108,,,,,,,
182880,note_on,30,0,1,,,,,,,,,,,,,,,0,,,80,60
182880,note_on,180,0,2,,,,,,,,,,,,,,,0,,,61,33
182880,note_on,0,0,2,,,,,,,,,,,,,,,0,,,65,39
182940,note_on,0,0,2,,,,,,,,,,,,,,,0,,,61,0
182940,note_on,60,0,2,,,,,,,,,,,,,,,0,,,65,0
183000,note_on,0,0,1,,,,,,,,,,,,,,,0,,,77,0
183000,note_on,120,0,1,,,,,,,,,,,,,,,0,,,80,0
183000,note_on,0,0,1,,,,,,,,,,,,,,,0,,,73,0
183120,note_on,120,0,1,,,,,,,,,,,,,,,0,,,78,48
183120,set_tempo,240,1,0,,,,,,,,,,,,461432,,,,,,,
183120,note_on,180,0,2,,,,,,,,,,,,,,,0,,,49,33
183180,note_on,60,0,2,,,,,,,,,,,,,,,0,,,49,0
183240,note_on,0,0,1,,,,,,,,,,,,,,,0,,,77,48
183240,note_on,120,0,1,,,,,,,,,,,,,,,0,,,78,0
183360,set_tempo,240,1,0,,,,,,,,,,,,483014,,,,,,,
183360,note_on,180,0,2,,,,,,,,,,,,,,,0,,,49,33
183360,note_on,0,0,1,,,,,,,,,,,,,,,0,,,75,48
183360,note_on,120,0,1,,,,,,,,,,,,,,,0,,,77,0
183420,note_on,60,0,2,,,,,,,,,,,,,,,0,,,49,0
183480,note_on,0,0,1,,,,,,,,,,,,,,,0,,,73,48
183480,note_on,120,0,1,,,,,,,,,,,,,,,0,,,75,0
183540,note_on,60,0,1,,,,,,,,,,,,,,,0,,,68,48
183570,note_on,30,0,1,,,,,,,,,,,,,,,0,,,72,48
183600,note_on,30,0,1,,,,,,,,,,,,,,,0,,,73,0
183600,note_on,0,0,2,,,,,,,,,,,,,,,0,,,66,40
183600,note_on,0,0,1,,,,,,,,,,,,,,,0,,,75,58
183600,set_tempo,240,1,0,,,,,,,,,,,,465224,,,,,,,
183600,note_on,180,0,2,,,,,,,,,,,,,,,0,,,61,34
183660,note_on,60,0,2,,,,,,,,,,,,,,,0,,,66,0
183660,note_on,0,0,2,,,,,,,,,,,,,,,0,,,61,0
183720,note_on,120,0,1,,,,,,,,,,,,,,,0,,,75,0
183720,note_on,0,0,1,,,,,,,,,,,,,,,0,,,72,0
183720,note_on,0,0,1,,,,,,,,,,,,,,,0,,,68,0
183840,note_on,120,0,1,,,,,,,,,,,,,,,0,,,73,48
183840,set_tempo,240,1,0,,,,,,,,,,,,461432,,,,,,,
183840,note_on,180,0,2,,,,,,,,,,,,,,,0,,,49,33
183900,note_on,60,0,2,,,,,,,,,,,,,,,0,,,49,0
183960,note_on,120,0,1,,,,,,,,,,,,,,,0,,,73,0
183960,note_on,0,0,1,,,,,,,,,,,,,,,0,,,72,48
184080,set_tempo,240,1,0,,,,,,,,,,,,478965,,,,,,,
184080,note_on,0,0,1,,,,,,,,,,,,,,,0,,,70,48
184080,note_on,180,0,2,,,,,,,,,,,,,,,0,,,49,33
184080,note_on,120,0,1,,,,,,,,,,,,,,,0,,,72,0
184140,note_on,60,0,2,,,,,,,,,,,,,,,0,,,49,0
184200,note_on,120,0,1,,,,,,,,,,,,,,,0,,,70,0
184200,note_on,0,0,1,,,,,,,,,,,,,,,0,,,68,48
184260,note_on,60,0,1,,,,,,,,,,,,,,,0,,,73,48
184290,note_on,30,0,1,,,,,,,,,,,,,,,0,,,77,48
184320,note_on,0,0,1,,,,,,,,,,,,,,,0,,,80,63
184320,note_on,30,0,1,,,,,,,,,,,,,,,0,,,68,0
184320,note_on,0,0,2,,,,,,,,,,,,,,,0,,,65,39
184320,set_tempo,240,1,0,,,,,,,,,,,,487171,,,,,,,
184320,note_on,180,0,2,,,,,,,,,,,,,,,0,,,61,33
184380,note_on,0,0,2,,,,,,,,,,,,,,,0,,,61,0
184380,note_on,60,0,2,,,,,,,,,,,,,,,0,,,65,0
184440,note_on,0,0,1,,,,,,,,,,,,,,,0,,,77,0
184440,note_on,120,0,1,,,,,,,,,,,,,,,0,,,80,0
184440,note_on,0,0,1,,,,,,,,,,,,,,,0,,,73,0
184560,set_tempo,240,1,0,,,,,,,,,,,,461432,,,,,,,
184560,note_on,180,0,2,,,,,,,,,,,,,,,0,,,49,34
184560,note_on,120,0,1,,,,,,,,,,,,,,,0,,,78,50
184620,note_on,60,0,2,,,,,,,,,,,,,,,0,,,49,0
184680,note_on,0,0,1,,,,,,,,,,,,,,,0,,,77,53
184680,note_on,120,0,1,,,,,,,,,,,,,,,0,,,78,0
184800,note_on,180,0,2,,,,,,,,,,,,,,,0,,,49,39
184800,note_on,120,0,1,,,,,,,,,,,,,,,0,,,77,0
184800,note_on,0,0,1,,,,,,,,,,,,,,,0,,,75,56
184860,note_on,60,0,2,,,,,,,,,,,,,,,0,,,49,0
184920,note_on,120,0,1,,,,,,,,,,,,,,,0,,,75,0
184920,note_on,0,0,1,,,,,,,,,,,,,,,0,,,73,60
185000,set_tempo,440,1,0,,,,,,,,,,,,474947,,,,,,,
185040,note_on,180,0,2,,,,,,,,,,,,,,,0,,,61,37
185040,note_on,0,0,2,,,,,,,,,,,,,,,0,,,66,45
185040,note_on,0,0,1,,,,,,,,,,,,,,,0,,,78,68
185040,note_on,120,0,1,,,,,,,,,,,,,,,0,,,73,0
185040,note_on,0,0,1,,,,,,,,,,,,,,,0,,,85,68
185040,note_on,0,0,1,,,,,,,,,,,,,,,0,,,82,68
185100,note_on,0,0,1,,,,,,,,,,,,,,,0,,,85,0
185100,note_on,0,0,1,,,,,,,,,,,,,,,0,,,82,0
185100,note_on,60,0,1,,,,,,,,,,,,,,,0,,,78,0
185100,note_on,0,0,2,,,,,,,,,,,,,,,0,,,61,0
185100,note_on,60,0,2,,,,,,,,,,,,,,,0,,,66,0
185120,set_tempo,120,1,0,,,,,,,,,,,,476948,,,,,,,
185240,set_tempo,120,1,0,,,,,,,,,,,,478965,,,,,,,
185280,note_on,180,0,2,,,,,,,,,,,,,,,0,,,49,33
185280,note_on,180,0,1,,,,,,,,,,,,,,,0,,,78,61
185280,note_on,0,0,1,,,,,,,,,,,,,,,0,,,82,61
185280,note_on,0,0,1,,,,,,,,,,,,,,,0,,,85,61
185340,note_on,60,0,2,,,,,,,,,,,,,,,0,,,49,0
185340,note_on,0,0,1,,,,,,,,,,,,,,,0,,,82,0
185340,note_on,60,0,1,,,,,,,,,,,,,,,0,,,85,0
185340,note_on,0,0,1,,,,,,,,,,,,,,,0,,,78,0
185360,set_tempo,120,1,0,,,,,,,,,,,,480962,,,,,,,
185480,set_tempo,120,1,0,,,,,,,,,,,,483014,,,,,,,
185520,note_on,0,0,1,,,,,,,,,,,,,,,0,,,82,61
185520,note_on,0,0,1,,,,,,,,,,,,,,,0,,,85,61
185520,note_on,180,0,2,,,,,,,,,,,,,,,0,,,49,33
185520,note_on,180,0,1,,,,,,,,,,,,,,,0,,,78,61
185580,note_on,60,0,2,,,,,,,,,,,,,,,0,,,49,0
185580,note_on,0,0,1,,,,,,,,,,,,,,,0,,,82,0
185580,note_on,0,0,1,,,,,,,,,,,,,,,0,,,78,0
185580,note_on,60,0,1,,,,,,,,,,,,,,,0,,,85,0
185600,set_tempo,120,1,0,,,,,,,,,,,,485084,,,,,,,
185680,set_tempo,80,1,0,,,,,,,,,,,,487171,,,,,,,
185760,note_on,180,0,2,,,,,,,,,,,,,,,0,,,58,33
185760,note_on,0,0,2,,,,,,,,,,,,,,,0,,,61,33
185760,note_on,0,0,2,,,,,,,,,,,,,,,0,,,66,39
185760,set_tempo,80,1,0,,,,,,,,,,,,467108,,,,,,,
185794,control_change,34,0,2,,,,,,,,,,,,,,,0,64,127,,
186000,set_tempo,240,1,0,,,,,,,,,,,,478965,,,,,,,
186000,note_on,0,0,2,,,,,,,,,,,,,,,0,,,58,0
186000,note_on,206,0,2,,,,,,,,,,,,,,,0,,,66,0
186000,note_on,0,0,2,,,,,,,,,,,,,,,0,,,49,30
186000,note_on,0,0,2,,,,,,,,,,,,,,,0,,,61,0
186240,note_on,0,0,2,,,,,,,,,,,,,,,0,,,49,30
186240,note_on,240,0,2,,,,,,,,,,,,,,,0,,,49,0
186240,set_tempo,240,1,0,,,,,,,,,,,,489277,,,,,,,
186480,note_on,0,0,2,,,,,,,,,,,,,,,0,,,66,36
186480,note_on,0,0,2,,,,,,,,,,,,,,,0,,,61,30
186480,note_on,0,0,2,,,,,,,,,,,,,,,0,,,58,30
186480,control_change,0,0,2,,,,,,,,,,,,,,,0,64,0,,
186480,note_on,240,0,2,,,,,,,,,,,,,,,0,,,49,0
186480,set_tempo,240,1,0,,,,,,,,,,,,465224,,,,,,,
186571,control_change,91,0,2,,,,,,,,,,,,,,,0,64,127,,
186720,note_on,0,0,2,,,,,,,,,,,,,,,0,,,49,30
186720,note_on,0,0,2,,,,,,,,,,,,,,,0,,,58,0
186720,note_on,0,0,2,,,,,,,,,,,,,,,0,,,61,0
186720,note_on,149,0,2,,,,,,,,,,,,,,,0,,,66,0
186720,set_tempo,240,1,0,,,,,,,,,,,,478965,,,,,,,
186960,note_on,240,0,2,,,,,,,,,,,,,,,0,,,49,0
186960,note_on,0,0,2,,,,,,,,,,,,,,,0,,,49,30
187000,set_tempo,280,1,0,,,,,,,,,,,,491400,,,,,,,
187200,set_tempo,200,1,0,,,,,,,,,,,,478965,,,,,,,
187200,note_on,0,0,2,,,,,,,,,,,,,,,0,,,61,35
187200,note_on,0,0,2,,,,,,,,,,,,,,,0,,,56,29
187200,control_change,0,0,2,,,,,,,,,,,,,,,0,64,0,,
187200,note_on,240,0,2,,,,,,,,,,,,,,,0,,,49,0
187200,note_on,1620,0,1,,,,,,,,,,,,,,,0,,,65,58
187337,control_change,137,0,2,,,,,,,,,,,,,,,0,64,127,,
187380,set_tempo,180,1,0,,,,,,,,,,,,433244,,,,,,,
187380,note_on,180,0,1,,,,,,,,,,,,,,,0,,,68,40
187440,note_on,0,0,2,,,,,,,,,,,,,,,0,,,56,0
187440,note_on,0,0,2,,,,,,,,,,,,,,,0,,,49,29
187440,note_on,0,0,1,,,,,,,,,,,,,,,0,,,65,0
187440,note_on,60,0,1,,,,,,,,,,,,,,,0,,,68,0
187440,set_tempo,60,1,0,,,,,,,,,,,,472962,,,,,,,
187440,note_on,0,0,1,,,,,,,,,,,,,,,0,,,66,49
187440,note_on,103,0,2,,,,,,,,,,,,,,,0,,,61,0
187680,note_on,240,0,2,,,,,,,,,,,,,,,0,,,49,0
187680,note_on,0,0,1,,,,,,,,,,,,,,,0,,,65,49
187680,note_on,240,0,1,,,,,,,,,,,,,,,0,,,66,0
187680,note_on,0,0,2,,,,,,,,,,,,,,,0,,,49,29
187920,note_on,240,0,2,,,,,,,,,,,,,,,0,,,49,0
187920,set_tempo,480,1,0,,,,,,,,,,,,467108,,,,,,,
187920,note_on,0,0,1,,,,,,,,,,,,,,,0,,,63,57
187920,note_on,240,0,1,,,,,,,,,,,,,,,0,,,65,0
187920,note_on,0,0,2,,,,,,,,,,,,,,,0,,,54,30
187920,control_change,0,0,2,,,,,,,,,,,,,,,0,64,0,,
187920,note_on,0,0,2,,,,,,,,,,,,,,,0,,,58,36
187966,control_change,46,0,2,,,,,,,,,,,,,,,0,64,127,,
188160,note_on,240,0,1,,,,,,,,,,,,,,,0,,,63,0
188160,set_tempo,240,1,0,,,,,,,,,,,,457701,,,,,,,
188160,note_on,0,0,2,,,,,,,,,,,,,,,0,,,42,29
188160,note_on,0,0,2,,,,,,,,,,,,,,,0,,,54,0
188160,note_on,0,0,1,,,,,,,,,,,,,,,0,,,65,49
188160,note_on,194,0,2,,,,,,,,,,,,,,,0,,,58,0
188223,control_change,63,0,2,,,,,,,,,,,,,,,0,64,0,,
188263,control_change,40,0,2,,,,,,,,,,,,,,,0,64,127,,
188280,note_on,120,0,1,,,,,,,,,,,,,,,0,,,65,0
188280,note_on,0,0,1,,,,,,,,,,,,,,,0,,,66,49
188320,set_tempo,160,1,0,,,,,,,,,,,,455858,,,,,,,
188400,note_on,120,0,1,,,,,,,,,,,,,,,0,,,66,0
188400,note_on,137,0,2,,,,,,,,,,,,,,,0,,,42,0
188400,note_on,0,0,1,,,,,,,,,,,,,,,0,,,68,51
188400,note_on,0,0,2,,,,,,,,,,,,,,,0,,,42,29
188480,set_tempo,160,1,0,,,,,,,,,,,,454030,,,,,,,
188520,note_on,0,0,1,,,,,,,,,,,,,,,0,,,70,52
188520,note_on,120,0,1,,,,,,,,,,,,,,,0,,,68,0
188600,set_tempo,120,1,0,,,,,,,,,,,,452216,,,,,,,
188640,note_on,0,0,2,,,,,,,,,,,,,,,0,,,66,35
188640,note_on,0,0,1,,,,,,,,,,,,,,,0,,,72,62
188640,note_on,120,0,1,,,,,,,,,,,,,,,0,,,70,0
188640,note_on,0,0,2,,,,,,,,,,,,,,,0,,,63,29
188640,note_on,240,0,2,,,,,,,,,,,,,,,0,,,42,0
188640,control_change,0,0,2,,,,,,,,,,,,,,,0,64,0,,
188640,set_tempo,40,1,0,,,,,,,,,,,,465224,,,,,,,
188680,control_change,40,0,2,,,,,,,,,,,,,,,0,64,127,,
188880,note_on,200,0,2,,,,,,,,,,,,,,,0,,,66,0
188880,note_on,240,0,1,,,,,,,,,,,,,,,0,,,72,0
188880,note_on,0,0,2,,,,,,,,,,,,,,,0,,,56,29
188880,note_on,0,0,1,,,,,,,,,,,,,,,0,,,70,59
188880,set_tempo,240,1,0,,,,,,,,,,,,457701,,,,,,,
188880,note_on,0,0,2,,,,,,,,,,,,,,,0,,,63,0
188914,control_change,34,0,2,,,,,,,,,,,,,,,0,64,0,,
188949,control_change,35,0,2,,,,,,,,,,,,,,,0,64,127,,
189000,note_on,120,0,1,,,,,,,,,,,,,,,0,,,70,0
189000,note_on,0,0,1,,,,,,,,,,,,,,,0,,,72,55
189120,note_on,171,0,2,,,,,,,,,,,,,,,0,,,56,0
189120,note_on,0,0,2,,,,,,,,,,,,,,,0,,,56,29
189120,note_on,120,0,1,,,,,,,,,,,,,,,0,,,72,0
189120,note_on,0,0,1,,,,,,,,,,,,,,,0,,,73,57
189240,note_on,0,0,1,,,,,,,,,,,,,,,0,,,75,59
189240,note_on,120,0,1,,,,,,,,,,,,,,,0,,,73,0
189360,note_on,240,0,2,,,,,,,,,,,,,,,0,,,56,0
189360,control_change,0,0,2,,,,,,,,,,,,,,,0,64,0,,
189360,note_on,0,0,2,,,,,,,,,,,,,,,0,,,65,35
189360,note_on,0,0,2,,,,,,,,,,,,,,,0,,,61,29
189360,set_tempo,480,1,0,,,,,,,,,,,,463750,,,,,,,
189360,note_on,0,0,1,,,,,,,,,,,,,,,0,,,77,63
189360,note_on,120,0,1,,,,,,,,,,,,,,,0,,,75,0
189420,note_on,60,0,1,,,,,,,,,,,,,,,0,,,77,0
189600,note_on,240,0,2,,,,,,,,,,,,,,,0,,,61,0
189600,note_on,180,0,1,,,,,,,,,,,,,,,0,,,77,53
189600,note_on,0,0,2,,,,,,,,,,,,,,,0,,,65,0
189600,note_on,0,0,2,,,,,,,,,,,,,,,0,,,49,29
189660,note_on,60,0,1,,,,,,,,,,,,,,,0,,,77,0
189840,set_tempo,480,1,0,,,,,,,,,,,,474608,,,,,,,
189840,note_on,180,0,1,,,,,,,,,,,,,,,0,,,77,52
189840,note_on,0,0,2,,,,,,,,,,,,,,,0,,,49,29
189840,note_on,240,0,2,,,,,,,,,,,,,,,0,,,49,0
189900,note_on,60,0,1,,,,,,,,,,,,,,,0,,,77,0
190080,control_change,0,0,2,,,,,,,,,,,,,,,0,64,0,,
190080,note_on,0,0,2,,,,,,,,,,,,,,,0,,,65,36
190080,note_on,0,0,2,,,,,,,,,,,,,,,0,,,61,30
190080,note_on,240,0,2,,,,,,,,,,,,,,,0,,,49,0
190080,set_tempo,240,1,0,,,,,,,,,,,,485084,,,,,,,
190140,note_on,0,0,2,,,,,,,,,,,,,,,0,,,61,0
190140,note_on,60,0,2,,,,,,,,,,,,,,,0,,,65,0
190320,set_tempo,240,1,0,,,,,,,,,,,,491400,,,,,,,
190320,note_on,180,0,2,,,,,,,,,,,,,,,0,,,49,30
190380,note_on,60,0,2,,,,,,,,,,,,,,,0,,,49,0
190560,set_tempo,240,1,0,,,,,,,,,,,,504498,,,,,,,
190560,note_on,180,0,2,,,,,,,,,,,,,,,0,,,49,30
190620,note_on,60,0,2,,,,,,,,,,,,,,,0,,,49,0
190800,note_on,180,0,2,,,,,,,,,,,,,,,0,,,61,30
190800,set_tempo,240,1,0,,,,,,,,,,,,483014,,,,,,,
190803,note_on,3,0,2,,,,,,,,,,,,,,,0,,,65,37
190860,note_on,57,0,2,,,,,,,,,,,,,,,0,,,61,0
190863,note_on,3,0,2,,,,,,,,,,,,,,,0,,,65,0
191040,note_on,177,0,2,,,,,,,,,,,,,,,0,,,49,33
191040,set_tempo,240,1,0,,,,,,,,,,,,491400,,,,,,,
191100,note_on,60,0,2,,,,,,,,,,,,,,,0,,,49,0
191280,set_tempo,240,1,0,,,,,,,,,,,,502260,,,,,,,
191280,note_on,180,0,2,,,,,,,,,,,,,,,0,,,49,33
191340,note_on,60,0,2,,,,,,,,,,,,,,,0,,,49,0
191460,note_on,1560,0,1,,,,,,,,,,,,,,,0,,,73,48
191490,note_on,30,0,1,,,,,,,,,,,,,,,0,,,77,48
191520,note_on,180,0,2,,,,,,,,,,,,,,,0,,,61,33
191520,note_on,30,0,1,,,,,,,,,,,,,,,0,,,80,60
191520,note_on,0,0,2,,,,,,,,,,,,,,,0,,,65,39
191520,set_tempo,240,1,0,,,,,,,,,,,,470995,,,,,,,
191580,note_on,60,0,2,,,,,,,,,,,,,,,0,,,65,0
191580,note_on,0,0,2,,,,,,,,,,,,,,,0,,,61,0
191640,note_on,0,0,1,,,,,,,,,,,,,,,0,,,73,0
191640,note_on,0,0,1,,,,,,,,,,,,,,,0,,,77,0
191640,note_on,120,0,1,,,,,,,,,,,,,,,0,,,80,0
191760,set_tempo,240,1,0,,,,,,,,,,,,461432,,,,,,,
191760,note_on,120,0,1,,,,,,,,,,,,,,,0,,,78,48
191760,note_on,180,0,2,,,,,,,,,,,,,,,0,,,49,33
191820,note_on,60,0,2,,,,,,,,,,,,,,,0,,,49,0
191880,note_on,120,0,1,,,,,,,,,,,,,,,0,,,78,0
191880,note_on,0,0,1,,,,,,,,,,,,,,,0,,,77,48
192000,set_tempo,240,1,0,,,,,,,,,,,,476948,,,,,,,
192000,note_on,180,0,2,,,,,,,,,,,,,,,0,,,49,33
192000,note_on,120,0,1,,,,,,,,,,,,,,,0,,,77,0
192000,note_on,0,0,1,,,,,,,,,,,,,,,0,,,75,48
192060,note_on,60,0,2,,,,,,,,,,,,,,,0,,,49,0
192120,note_on,0,0,1,,,,,,,,,,,,,,,0,,,73,48
192120,note_on,120,0,1,,,,,,,,,,,,,,,0,,,75,0
192180,note_on,60,0,1,,,,,,,,,,,,,,,0,,,68,48
192210,note_on,30,0,1,,,,,,,,,,,,,,,0,,,72,48
192240,note_on,30,0,1,,,,,,,,,,,,,,,0,,,73,0
192240,note_on,0,0,1,,,,,,,,,,,,,,,0,,,75,58
192240,note_on,180,0,2,,,,,,,,,,,,,,,0,,,61,34
192240,note_on,0,0,2,,,,,,,,,,,,,,,0,,,66,40
192240,set_tempo,240,1,0,,,,,,,,,,,,465224,,,,,,,
192300,note_on,60,0,2,,,,,,,,,,,,,,,0,,,66,0
192300,note_on,0,0,2,,,,,,,,,,,,,,,0,,,61,0
192360,note_on,0,0,1,,,,,,,,,,,,,,,0,,,68,0
192360,note_on,120,0,1,,,,,,,,,,,,,,,0,,,75,0
192360,note_on,0,0,1,,,,,,,,,,,,,,,0,,,72,0
192480,note_on,120,0,1,,,,,,,,,,,,,,,0,,,73,48
192480,note_on,180,0,2,,,,,,,,,,,,,,,0,,,49,33
192480,set_tempo,240,1,0,,,,,,,,,,,,461432,,,,,,,
192540,note_on,60,0,2,,,,,,,,,,,,,,,0,,,49,0
192600,note_on,0,0,1,,,,,,,,,,,,,,,0,,,72,48
192600,note_on,120,0,1,,,,,,,,,,,,,,,0,,,73,0
192720,note_on,0,0,1,,,,,,,,,,,,,,,0,,,70,48
192720,note_on,120,0,1,,,,,,,,,,,,,,,0,,,72,0
192720,set_tempo,240,1,0,,,,,,,,,,,,480962,,,,,,,
192720,note_on,180,0,2,,,,,,,,,,,,,,,0,,,49,33
192780,note_on,60,0,2,,,,,,,,,,,,,,,0,,,49,0
192840,note_on,0,0,1,,,,,,,,,,,,,,,0,,,68,48
192840,note_on,120,0,1,,,,,,,,,,,,,,,0,,,70,0
192900,note_on,60,0,1,,,,,,,,,,,,,,,0,,,73,48
192930,note_on,30,0,1,,,,,,,,,,,,,,,0,,,77,48
192960,set_tempo,240,1,0,,,,,,,,,,,,487171,,,,,,,
192960,note_on,0,0,2,,,,,,,,,,,,,,,0,,,65,39
192960,note_on,180,0,2,,,,,,,,,,,,,,,0,,,61,33
192960,note_on,30,0,1,,,,,,,,,,,,,,,0,,,68,0
192960,note_on,0,0,1,,,,,,,,,,,,,,,0,,,80,63
193020,note_on,60,0,2,,,,,,,,,,,,,,,0,,,65,0
193020,note_on,0,0,2,,,,,,,,,,,,,,,0,,,61,0
193080,note_on,0,0,1,,,,,,,,,,,,,,,0,,,73,0
193080,note_on,0,0,1,,,,,,,,,,,,,,,0,,,77,0
193080,note_on,120,0,1,,,,,,,,,,,,,,,0,,,80,0
193200,note_on,120,0,1,,,,,,,,,,,,,,,0,,,78,50
193200,note_on,180,0,2,,,,,,,,,,,,,,,0,,,49,34
193200,set_tempo,240,1,0,,,,,,,,,,,,461432,,,,,,,
193260,note_on,60,0,2,,,,,,,,,,,,,,,0,,,49,0
193320,note_on,0,0,1,,,,,,,,,,,,,,,0,,,77,53
193320,note_on,120,0,1,,,,,,,,,,,,,,,0,,,78,0
193440,note_on,180,0,2,,,,,,,,,,,,,,,0,,,49,39
193440,note_on,120,0,1,,,,,,,,,,,,,,,0,,,77,0
193440,note_on,0,0,1,,,,,,,,,,,,,,,0,,,75,56
193500,note_on,60,0,2,,,,,,,,,,,,,,,0,,,49,0
193560,note_on,0,0,1,,,,,,,,,,,,,,,0,,,73,60
193560,note_on,120,0,1,,,,,,,,,,,,,,,0,,,75,0
193680,note_on,0,0,1,,,,,,,,,,,,,,,0,,,81,68
193680,set_tempo,480,1,0,,,,,,,,,,,,480962,,,,,,,
193680,note_on,180,0,2,,,,,,,,,,,,,,,0,,,61,37
193680,note_on,0,0,2,,,,,,,,,,,,,,,0,,,66,45
193680,note_on,0,0,1,,,,,,,,,,,,,,,0,,,85,68
193680,note_on,120,0,1,,,,,,,,,,,,,,,0,,,73,0
193680,note_on,0,0,1,,,,,,,,,,,,,,,0,,,78,68
193720,set_tempo,40,1,0,,,,,,,,,,,,476948,,,,,,,
193740,note_on,60,0,1,,,,,,,,,,,,,,,0,,,78,0
193740,note_on,0,0,1,,,,,,,,,,,,,,,0,,,81,0
193740,note_on,0,0,1,,,,,,,,,,,,,,,0,,,85,0
193740,note_on,0,0,2,,,,,,,,,,,,,,,0,,,61,0
193740,note_on,60,0,2,,,,,,,,,,,,,,,0,,,66,0
193840,set_tempo,120,1,0,,,,,,,,,,,,478965,,,,,,,
193920,set_tempo,80,1,0,,,,,,,,,,,,480962,,,,,,,
193920,note_on,0,0,1,,,,,,,,,,,,,,,0,,,85,61
193920,note_on,0,0,1,,,,,,,,,,,,,,,0,,,81,61
193920,note_on,180,0,1,,,,,,,,,,,,,,,0,,,78,61
193920,note_on,180,0,2,,,,,,,,,,,,,,,0,,,49,33
193980,note_on,60,0,1,,,,,,,,,,,,,,,0,,,85,0
193980,note_on,0,0,1,,,,,,,,,,,,,,,0,,,81,0
193980,note_on,0,0,1,,,,,,,,,,,,,,,0,,,78,0
193980,note_on,60,0,2,,,,,,,,,,,,,,,0,,,49,0
194000,set_tempo,80,1,0,,,,,,,,,,,,483014,,,,,,,
194080,set_tempo,80,1,0,,,,,,,,,,,,485084,,,,,,,
194160,note_on,180,0,1,,,,,,,,,,,,,,,0,,,78,61
194160,note_on,180,0,2,,,,,,,,,,,,,,,0,,,49,33
194160,note_on,0,0,1,,,,,,,,,,,,,,,0,,,85,61
194160,note_on,0,0,1,,,,,,,,,,,,,,,0,,,81,61
194220,note_on,60,0,2,,,,,,,,,,,,,,,0,,,49,0
194220,note_on,0,0,1,,,,,,,,,,,,,,,0,,,78,0
194220,note_on,0,0,1,,,,,,,,,,,,,,,0,,,81,0
194220,note_on,60,0,1,,,,,,,,,,,,,,,0,,,85,0
194400,set_tempo,320,1,0,,,,,,,,,,,,467108,,,,,,,
194400,note_on,0,0,2,,,,,,,,,,,,,,,0,,,66,39
194400,note_on,0,0,2,,,,,,,,,,,,,,,0,,,61,33
194400,note_on,180,0,2,,,,,,,,,,,,,,,0,,,57,33
194434,control_change,34,0,2,,,,,,,,,,,,,,,0,64,127,,
194640,note_on,0,0,2,,,,,,,,,,,,,,,0,,,61,0
194640,note_on,206,0,2,,,,,,,,,,,,,,,0,,,66,0
194640,note_on,0,0,2,,,,,,,,,,,,,,,0,,,54,30
194640,set_tempo,240,1,0,,,,,,,,,,,,485084,,,,,,,
194640,note_on,0,0,2,,,,,,,,,,,,,,,0,,,57,0
194880,note_on,0,0,2,,,,,,,,,,,,,,,0,,,54,30
194880,set_tempo,240,1,0,,,,,,,,,,,,493543,,,,,,,
194880,note_on,240,0,2,,,,,,,,,,,,,,,0,,,54,0
195120,note_on,240,0,2,,,,,,,,,,,,,,,0,,,54,0
195120,note_on,0,0,2,,,,,,,,,,,,,,,0,,,57,30
195120,note_on,0,0,2,,,,,,,,,,,,,,,0,,,61,30
195120,note_on,0,0,2,,,,,,,,,,,,,,,0,,,66,36
195120,set_tempo,240,1,0,,,,,,,,,,,,465224,,,,,,,
195154,control_change,34,0,2,,,,,,,,,,,,,,,0,64,0,,
195177,control_change,23,0,2,,,,,,,,,,,,,,,0,64,127,,
195360,set_tempo,240,1,0,,,,,,,,,,,,485084,,,,,,,
195360,note_on,183,0,2,,,,,,,,,,,,,,,0,,,66,0
195360,note_on,0,0,2,,,,,,,,,,,,,,,0,,,61,0
195360,note_on,0,0,2,,,,,,,,,,,,,,,0,,,57,0
195360,note_on,0,0,2,,,,,,,,,,,,,,,0,,,54,30
195600,set_tempo,240,1,0,,,,,,,,,,,,497843,,,,,,,
195600,note_on,240,0,2,,,,,,,,,,,,,,,0,,,54,0
195600,note_on,0,0,2,,,,,,,,,,,,,,,0,,,54,30
195840,note_on,1620,0,1,,,,,,,,,,,,,,,0,,,73,63
195840,note_on,0,0,2,,,,,,,,,,,,,,,0,,,66,35
195840,note_on,0,0,2,,,,,,,,,,,,,,,0,,,57,29
195840,note_on,0,0,2,,,,,,,,,,,,,,,0,,,61,29
195840,control_change,0,0,2,,,,,,,,,,,,,,,0,64,0,,
195840,note_on,240,0,2,,,,,,,,,,,,,,,0,,,54,0
195840,set_tempo,240,1,0,,,,,,,,,,,,480962,,,,,,,
195977,control_change,137,0,2,,,,,,,,,,,,,,,0,64,127,,
196020,note_on,180,0,1,,,,,,,,,,,,,,,0,,,76,45
196020,set_tempo,180,1,0,,,,,,,,,,,,434909,,,,,,,
196080,note_on,103,0,2,,,,,,,,,,,,,,,0,,,61,0
196080,set_tempo,60,1,0,,,,,,,,,,,,472962,,,,,,,
196080,note_on,0,0,1,,,,,,,,,,,,,,,0,,,74,53
196080,note_on,60,0,1,,,,,,,,,,,,,,,0,,,76,0
196080,note_on,0,0,1,,,,,,,,,,,,,,,0,,,73,0
196080,note_on,0,0,2,,,,,,,,,,,,,,,0,,,57,0
196080,note_on,0,0,2,,,,,,,,,,,,,,,0,,,66,0
196080,note_on,0,0,2,,,,,,,,,,,,,,,0,,,54,29
196320,note_on,0,0,1,,,,,,,,,,,,,,,0,,,73,53
196320,note_on,240,0,2,,,,,,,,,,,,,,,0,,,54,0
196320,note_on,0,0,2,,,,,,,,,,,,,,,0,,,54,29
196320,note_on,240,0,1,,,,,,,,,,,,,,,0,,,74,0
196560,set_tempo,480,1,0,,,,,,,,,,,,461432,,,,,,,
196560,control_change,0,0,2,,,,,,,,,,,,,,,0,64,0,,
196560,note_on,0,0,2,,,,,,,,,,,,,,,0,,,62,30
196560,note_on,0,0,1,,,,,,,,,,,,,,,0,,,71,62
196560,note_on,240,0,2,,,,,,,,,,,,,,,0,,,54,0
196560,note_on,0,0,2,,,,,,,,,,,,,,,0,,,66,36
196560,note_on,240,0,1,,,,,,,,,,,,,,,0,,,73,0
196606,control_change,46,0,2,,,,,,,,,,,,,,,0,64,127,,
196789,control_change,183,0,2,,,,,,,,,,,,,,,0,64,0,,
196800,note_on,0,0,1,,,,,,,,,,,,,,,0,,,73,53
196800,note_on,0,0,2,,,,,,,,,,,,,,,0,,,62,0
196800,set_tempo,240,1,0,,,,,,,,,,,,457701,,,,,,,
196800,note_on,11,0,2,,,,,,,,,,,,,,,0,,,66,0
196800,note_on,240,0,1,,,,,,,,,,,,,,,0,,,71,0
196800,note_on,0,0,2,,,,,,,,,,,,,,,0,,,50,29
196834,control_change,34,0,2,,,,,,,,,,,,,,,0,64,127,,
196920,note_on,120,0,1,,,,,,,,,,,,,,,0,,,73,0
196920,note_on,0,0,1,,,,,,,,,,,,,,,0,,,74,53
197040,note_on,120,0,1,,,,,,,,,,,,,,,0,,,74,0
197040,note_on,0,0,1,,,,,,,,,,,,,,,0,,,76,56
197040,note_on,0,0,2,,,,,,,,,,,,,,,0,,,50,29
197040,note_on,206,0,2,,,,,,,,,,,,,,,0,,,50,0
197160,note_on,0,0,1,,,,,,,,,,,,,,,0,,,78,57
197160,note_on,120,0,1,,,,,,,,,,,,,,,0,,,76,0
197280,note_on,0,0,2,,,,,,,,,,,,,,,0,,,64,35
197280,note_on,0,0,2,,,,,,,,,,,,,,,0,,,62,29
197280,control_change,0,0,2,,,,,,,,,,,,,,,0,64,0,,
197280,note_on,240,0,2,,,,,,,,,,,,,,,0,,,50,0
197280,set_tempo,480,1,0,,,,,,,,,,,,463320,,,,,,,
197280,note_on,0,0,1,,,,,,,,,,,,,,,0,,,80,62
197280,note_on,120,0,1,,,,,,,,,,,,,,,0,,,78,0
197320,control_change,40,0,2,,,,,,,,,,,,,,,0,64,127,,
197520,set_tempo,240,1,0,,,,,,,,,,,,457701,,,,,,,
197520,note_on,0,0,2,,,,,,,,,,,,,,,0,,,52,29
197520,note_on,0,0,2,,,,,,,,,,,,,,,0,,,62,0
197520,note_on,200,0,2,,,,,,,,,,,,,,,0,,,64,0
197520,note_on,240,0,1,,,,,,,,,,,,,,,0,,,80,0
197520,note_on,0,0,1,,,,,,,,,,,,,,,0,,,78,63
197554,control_change,34,0,2,,,,,,,,,,,,,,,0,64,0,,
197577,control_change,23,0,2,,,,,,,,,,,,,,,0,64,127,,
197640,note_on,0,0,1,,,,,,,,,,,,,,,0,,,80,51
197640,note_on,120,0,1,,,,,,,,,,,,,,,0,,,78,0
197760,note_on,0,0,1,,,,,,,,,,,,,,,0,,,81,55
197760,note_on,120,0,1,,,,,,,,,,,,,,,0,,,80,0
197760,set_tempo,240,1,0,,,,,,,,,,,,469043,,,,,,,
197760,note_on,0,0,2,,,,,,,,,,,,,,,0,,,52,29
197760,note_on,183,0,2,,,,,,,,,,,,,,,0,,,52,0
197880,note_on,0,0,1,,,,,,,,,,,,,,,0,,,83,58
197880,note_on,120,0,1,,,,,,,,,,,,,,,0,,,81,0
198000,control_change,0,0,2,,,,,,,,,,,,,,,0,64,0,,
198000,note_on,0,0,1,,,,,,,,,,,,,,,0,,,85,62
198000,note_on,120,0,1,,,,,,,,,,,,,,,0,,,83,0
198000,note_on,0,0,2,,,,,,,,,,,,,,,0,,,61,29
198000,note_on,0,0,2,,,,,,,,,,,,,,,0,,,64,35
198000,set_tempo,240,1,0,,,,,,,,,,,,463750,,,,,,,
198000,note_on,240,0,2,,,,,,,,,,,,,,,0,,,52,0
198060,note_on,60,0,1,,,,,,,,,,,,,,,0,,,85,0
198240,note_on,0,0,2,,,,,,,,,,,,,,,0,,,57,29
198240,note_on,0,0,2,,,,,,,,,,,,,,,0,,,64,0
198240,note_on,180,0,1,,,,,,,,,,,,,,,0,,,85,58
198240,note_on,240,0,2,,,,,,,,,,,,,,,0,,,61,0
198300,note_on,60,0,1,,,,,,,,,,,,,,,0,,,85,0
198480,note_on,0,0,2,,,,,,,,,,,,,,,0,,,57,29
198480,note_on,240,0,2,,,,,,,,,,,,,,,0,,,57,0
198480,set_tempo,480,1,0,,,,,,,,,,,,474608,,,,,,,
198480,note_on,180,0,1,,,,,,,,,,,,,,,0,,,85,57
198540,note_on,60,0,1,,,,,,,,,,,,,,,0,,,85,0
198720,note_on,0,0,2,,,,,,,,,,,,,,,0,,,64,36
198720,note_on,240,0,2,,,,,,,,,,,,,,,0,,,57,0
198720,note_on,0,0,2,,,,,,,,,,,,,,,0,,,61,30
198720,set_tempo,240,1,0,,,,,,,,,,,,485084,,,,,,,
198780,note_on,0,0,2,,,,,,,,,,,,,,,0,,,61,0
198780,note_on,60,0,2,,,,,,,,,,,,,,,0,,,64,0
198960,note_on,180,0,2,,,,,,,,,,,,,,,0,,,57,30
199020,note_on,60,0,2,,,,,,,,,,,,,,,0,,,57,0
199200,set_tempo,480,1,0,,,,,,,,,,,,504498,,,,,,,
199200,note_on,180,0,2,,,,,,,,,,,,,,,0,,,57,31
199260,note_on,60,0,2,,,,,,,,,,,,,,,0,,,57,0
199440,set_tempo,240,1,0,,,,,,,,,,,,472962,,,,,,,
199440,note_on,180,0,2,,,,,,,,,,,,,,,0,,,64,35
199440,control_change,0,0,2,,,,,,,,,,,,,,,0,64,0,,
199440,note_on,0,0,2,,,,,,,,,,,,,,,0,,,61,29
199440,note_on,900,0,1,,,,,,,,,,,,,,,0,,,73,63
199577,control_change,137,0,2,,,,,,,,,,,,,,,0,64,127,,
199680,note_on,240,0,1,,,,,,,,,,,,,,,0,,,73,0
199680,note_on,0,0,1,,,,,,,,,,,,,,,0,,,73,53
199680,note_on,103,0,2,,,,,,,,,,,,,,,0,,,61,0
199680,note_on,0,0,2,,,,,,,,,,,,,,,0,,,64,0
199680,note_on,0,0,2,,,,,,,,,,,,,,,0,,,57,29
199920,note_on,0,0,2,,,,,,,,,,,,,,,0,,,57,29
199920,note_on,240,0,2,,,,,,,,,,,,,,,0,,,57,0
199920,note_on,0,0,1,,,,,,,,,,,,,,,0,,,73,53
199920,note_on,240,0,1,,,,,,,,,,,,,,,0,,,73,0
200160,control_change,0,0,2,,,,,,,,,,,,,,,0,64,0,,
200160,note_on,0,0,2,,,,,,,,,,,,,,,0,,,64,36
200160,note_on,0,0,2,,,,,,,,,,,,,,,0,,,61,30
200160,set_tempo,720,1,0,,,,,,,,,,,,461432,,,,,,,
200160,note_on,240,0,2,,,,,,,,,,,,,,,0,,,57,0
200160,note_on,0,0,1,,,,,,,,,,,,,,,0,,,73,62
200160,note_on,240,0,1,,,,,,,,,,,,,,,0,,,73,0
200206,control_change,46,0,2,,,,,,,,,,,,,,,0,64,127,,
200400,note_on,0,0,1,,,,,,,,,,,,,,,0,,,76,53
200400,note_on,240,0,1,,,,,,,,,,,,,,,0,,,73,0
200400,note_on,194,0,2,,,,,,,,,,,,,,,0,,,64,0
200400,note_on,0,0,2,,,,,,,,,,,,,,,0,,,61,0
200400,note_on,0,0,2,,,,,,,,,,,,,,,0,,,58,29
200400,set_tempo,240,1,0,,,,,,,,,,,,461432,,,,,,,
200434,control_change,34,0,2,,,,,,,,,,,,,,,0,64,0,,
200469,control_change,35,0,2,,,,,,,,,,,,,,,0,64,127,,
200520,note_on,0,0,1,,,,,,,,,,,,,,,0,,,74,53
200520,note_on,120,0,1,,,,,,,,,,,,,,,0,,,76,0
200640,note_on,0,0,1,,,,,,,,,,,,,,,0,,,73,56
200640,note_on,120,0,1,,,,,,,,,,,,,,,0,,,74,0
200640,note_on,0,0,2,,,,,,,,,,,,,,,0,,,58,29
200640,note_on,171,0,2,,,,,,,,,,,,,,,0,,,58,0
200760,note_on,0,0,1,,,,,,,,,,,,,,,0,,,76,57
200760,note_on,120,0,1,,,,,,,,,,,,,,,0,,,73,0
200880,note_on,0,0,2,,,,,,,,,,,,,,,0,,,64,35
200880,note_on,0,0,1,,,,,,,,,,,,,,,0,,,74,62
200880,note_on,120,0,1,,,,,,,,,,,,,,,0,,,76,0
200880,note_on,240,0,2,,,,,,,,,,,,,,,0,,,58,0
200880,control_change,0,0,2,,,,,,,,,,,,,,,0,64,0,,
200880,note_on,0,0,2,,,,,,,,,,,,,,,0,,,62,29
200880,set_tempo,480,1,0,,,,,,,,,,,,467108,,,,,,,
200940,note_on,60,0,1,,,,,,,,,,,,,,,0,,,74,0
201120,note_on,180,0,1,,,,,,,,,,,,,,,0,,,74,62
201120,note_on,240,0,2,,,,,,,,,,,,,,,0,,,64,0
201120,note_on,0,0,2,,,,,,,,,,,,,,,0,,,62,0
201120,note_on,0,0,2,,,,,,,,,,,,,,,0,,,59,29
201120,set_tempo,240,1,0,,,,,,,,,,,,459559,,,,,,,
201180,note_on,60,0,1,,,,,,,,,,,,,,,0,,,74,0
201360,set_tempo,240,1,0,,,,,,,,,,,,480962,,,,,,,
201360,note_on,180,0,1,,,,,,,,,,,,,,,0,,,74,60
201360,note_on,240,0,2,,,,,,,,,,,,,,,0,,,59,0
201360,note_on,0,0,2,,,,,,,,,,,,,,,0,,,59,29
201420,note_on,60,0,1,,,,,,,,,,,,,,,0,,,74,0
201600,set_tempo,240,1,0,,,,,,,,,,,,474947,,,,,,,
201600,note_on,180,0,1,,,,,,,,,,,,,,,0,,,86,62
201600,note_on,240,0,2,,,,,,,,,,,,,,,0,,,59,0
201600,note_on,0,0,2,,,,,,,,,,,,,,,0,,,64,35
201600,note_on,0,0,2,,,,,,,,,,,,,,,0,,,62,29
201660,note_on,60,0,1,,,,,,,,,,,,,,,0,,,86,0
201840,note_on,0,0,2,,,,,,,,,,,,,,,0,,,59,29
201840,note_on,180,0,1,,,,,,,,,,,,,,,0,,,86,58
201840,note_on,240,0,2,,,,,,,,,,,,,,,0,,,62,0
201840,note_on,0,0,2,,,,,,,,,,,,,,,0,,,64,0
201900,note_on,60,0,1,,,,,,,,,,,,,,,0,,,86,0
202080,note_on,0,0,2,,,,,,,,,,,,,,,0,,,59,29
202080,note_on,240,0,2,,,,,,,,,,,,,,,0,,,59,0
202080,set_tempo,480,1,0,,,,,,,,,,,,474608,,,,,,,
202080,note_on,180,0,1,,,,,,,,,,,,,,,0,,,86,57
202140,note_on,60,0,1,,,,,,,,,,,,,,,0,,,86,0
202320,note_on,0,0,2,,,,,,,,,,,,,,,0,,,64,30
202320,note_on,0,0,2,,,,,,,,,,,,,,,0,,,62,26
202320,note_on,240,0,2,,,,,,,,,,,,,,,0,,,59,0
202320,set_tempo,240,1,0,,,,,,,,,,,,485084,,,,,,,
202380,note_on,0,0,2,,,,,,,,,,,,,,,0,,,62,0
202380,note_on,60,0,2,,,,,,,,,,,,,,,0,,,64,0
202560,note_on,180,0,2,,,,,,,,,,,,,,,0,,,59,27
202620,note_on,60,0,2,,,,,,,,,,,,,,,0,,,59,0
202800,note_on,180,0,2,,,,,,,,,,,,,,,0,,,59,27
202800,set_tempo,480,1,0,,,,,,,,,,,,504498,,,,,,,
202860,note_on,60,0,2,,,,,,,,,,,,,,,0,,,59,0
203040,note_on,900,0,1,,,,,,,,,,,,,,,0,,,74,63
203040,set_tempo,240,1,0,,,,,,,,,,,,472962,,,,,,,
203040,note_on,180,0,2,,,,,,,,,,,,,,,0,,,64,35
203040,control_change,0,0,2,,,,,,,,,,,,,,,0,64,0,,
203040,note_on,0,0,2,,,,,,,,,,,,,,,0,,,62,29
203177,control_change,137,0,2,,,,,,,,,,,,,,,0,64,127,,
203280,note_on,0,0,1,,,,,,,,,,,,,,,0,,,74,53
203280,note_on,240,0,1,,,,,,,,,,,,,,,0,,,74,0
203280,note_on,103,0,2,,,,,,,,,,,,,,,0,,,62,0
203280,note_on,0,0,2,,,,,,,,,,,,,,,0,,,59,29
203280,note_on,0,0,2,,,,,,,,,,,,,,,0,,,64,0
203520,note_on,240,0,2,,,,,,,,,,,,,,,0,,,59,0
203520,note_on,240,0,1,,,,,,,,,,,,,,,0,,,74,0
203520,note_on,0,0,1,,,,,,,,,,,,,,,0,,,74,53
203520,note_on,0,0,2,,,,,,,,,,,,,,,0,,,59,29
203760,note_on,0,0,2,,,,,,,,,,,,,,,0,,,62,30
203760,control_change,0,0,2,,,,,,,,,,,,,,,0,64,0,,
203760,note_on,240,0,2,,,,,,,,,,,,,,,0,,,59,0
203760,note_on,0,0,1,,,,,,,,,,,,,,,0,,,74,62
203760,note_on,240,0,1,,,,,,,,,,,,,,,0,,,74,0
203760,set_tempo,720,1,0,,,,,,,,,,,,461432,,,,,,,
203760,note_on,0,0,2,,,,,,,,,,,,,,,0,,,65,36
203806,control_change,46,0,2,,,,,,,,,,,,,,,0,64,127,,
204000,note_on,0,0,2,,,,,,,,,,,,,,,0,,,62,0
204000,note_on,240,0,1,,,,,,,,,,,,,,,0,,,74,0
204000,note_on,0,0,1,,,,,,,,,,,,,,,0,,,77,53
204000,note_on,0,0,2,,,,,,,,,,,,,,,0,,,59,29
204000,note_on,194,0,2,,,,,,,,,,,,,,,0,,,65,0
204000,set_tempo,240,1,0,,,,,,,,,,,,457701,,,,,,,
204029,control_change,29,0,2,,,,,,,,,,,,,,,0,64,0,,
204057,control_change,28,0,2,,,,,,,,,,,,,,,0,64,127,,
204120,note_on,120,0,1,,,,,,,,,,,,,,,0,,,77,0
204120,note_on,0,0,1,,,,,,,,,,,,,,,0,,,76,53
204240,note_on,120,0,1,,,,,,,,,,,,,,,0,,,76,0
204240,note_on,0,0,1,,,,,,,,,,,,,,,0,,,74,56
204240,note_on,0,0,2,,,,,,,,,,,,,,,0,,,59,29
204240,note_on,183,0,2,,,,,,,,,,,,,,,0,,,59,0
204360,note_on,0,0,1,,,,,,,,,,,,,,,0,,,77,57
204360,note_on,120,0,1,,,,,,,,,,,,,,,0,,,74,0
204480,note_on,120,0,1,,,,,,,,,,,,,,,0,,,77,0
204480,note_on,0,0,2,,,,,,,,,,,,,,,0,,,65,35
204480,set_tempo,480,1,0,,,,,,,,,,,,469043,,,,,,,
204480,note_on,240,0,2,,,,,,,,,,,,,,,0,,,59,0
204480,control_change,0,0,2,,,,,,,,,,,,,,,0,64,0,,
204480,note_on,0,0,1,,,,,,,,,,,,,,,0,,,74,62
204480,note_on,0,0,2,,,,,,,,,,,,,,,0,,,62,29
204540,note_on,60,0,1,,,,,,,,,,,,,,,0,,,74,0
204720,note_on,0,0,2,,,,,,,,,,,,,,,0,,,59,29
204720,note_on,0,0,2,,,,,,,,,,,,,,,0,,,62,0
204720,note_on,240,0,2,,,,,,,,,,,,,,,0,,,65,0
204720,set_tempo,240,1,0,,,,,,,,,,,,455858,,,,,,,
204720,note_on,180,0,1,,,,,,,,,,,,,,,0,,,74,62
204780,note_on,60,0,1,,,,,,,,,,,,,,,0,,,74,0
204960,note_on,240,0,2,,,,,,,,,,,,,,,0,,,59,0
204960,note_on,180,0,1,,,,,,,,,,,,,,,0,,,74,62
204960,set_tempo,240,1,0,,,,,,,,,,,,502260,,,,,,,
204960,note_on,0,0,2,,,,,,,,,,,,,,,0,,,59,29
205020,note_on,60,0,1,,,,,,,,,,,,,,,0,,,74,0
205200,set_tempo,240,1,0,,,,,,,,,,,,483014,,,,,,,
205200,note_on,240,0,2,,,,,,,,,,,,,,,0,,,59,0
205200,note_on,0,0,2,,,,,,,,,,,,,,,0,,,62,29
205200,note_on,0,0,2,,,,,,,,,,,,,,,0,,,65,35
205200,note_on,180,0,1,,,,,,,,,,,,,,,0,,,86,62
205260,note_on,60,0,1,,,,,,,,,,,,,,,0,,,86,0
205440,note_on,180,0,1,,,,,,,,,,,,,,,0,,,86,58
205440,note_on,240,0,2,,,,,,,,,,,,,,,0,,,62,0
205440,note_on,0,0,2,,,,,,,,,,,,,,,0,,,65,0
205440,note_on,0,0,2,,,,,,,,,,,,,,,0,,,59,29
205440,set_tempo,240,1,0,,,,,,,,,,,,491400,,,,,,,
205500,note_on,60,0,1,,,,,,,,,,,,,,,0,,,86,0
205680,set_tempo,240,1,0,,,,,,,,,,,,502260,,,,,,,
205680,note_on,240,0,2,,,,,,,,,,,,,,,0,,,59,0
205680,note_on,180,0,1,,,,,,,,,,,,,,,0,,,86,57
205680,note_on,0,0,2,,,,,,,,,,,,,,,0,,,59,29
205740,note_on,60,0,1,,,,,,,,,,,,,,,0,,,86,0
205920,note_on,0,0,2,,,,,,,,,,,,,,,0,,,59,31
205920,set_tempo,240,1,0,,,,,,,,,,,,467108,,,,,,,
205920,note_on,0,0,2,,,,,,,,,,,,,,,0,,,62,38
205920,note_on,180,0,1,,,,,,,,,,,,,,,0,,,74,66
205920,note_on,240,0,2,,,,,,,,,,,,,,,0,,,59,0
205960,control_change,40,0,2,,,,,,,,,,,,,,,0,64,127,,
206040,note_on,0,0,2,,,,,,,,,,,,,,,0,,,59,0
206040,note_on,0,0,2,,,,,,,,,,,,,,,0,,,65,31
206040,note_on,80,0,2,,,,,,,,,,,,,,,0,,,62,0
206160,note_on,0,0,2,,,,,,,,,,,,,,,0,,,59,27
206160,note_on,0,0,2,,,,,,,,,,,,,,,0,,,62,33
206160,note_on,120,0,2,,,,,,,,,,,,,,,0,,,65,0
206160,note_on,240,0,1,,,,,,,,,,,,,,,0,,,74,0
206160,note_on,0,0,1,,,,,,,,,,,,,,,0,,,73,62
206206,control_change,46,0,2,,,,,,,,,,,,,,,0,64,0,,
206223,control_change,17,0,2,,,,,,,,,,,,,,,0,64,127,,
206280,note_on,0,0,2,,,,,,,,,,,,,,,0,,,65,31
206280,note_on,0,0,2,,,,,,,,,,,,,,,0,,,62,0
206280,note_on,57,0,2,,,,,,,,,,,,,,,0,,,59,0
206400,note_on,120,0,2,,,,,,,,,,,,,,,0,,,65,0
206400,note_on,0,0,2,,,,,,,,,,,,,,,0,,,62,33
206400,note_on,0,0,2,,,,,,,,,,,,,,,0,,,59,27
206400,set_tempo,480,1,0,,,,,,,,,,,,478965,,,,,,,
206400,note_on,240,0,1,,,,,,,,,,,,,,,0,,,73,0
206400,note_on,0,0,1,,,,,,,,,,,,,,,0,,,74,62
206406,control_change,6,0,2,,,,,,,,,,,,,,,0,64,0,,
206446,control_change,40,0,2,,,,,,,,,,,,,,,0,64,127,,
206520,note_on,74,0,2,,,,,,,,,,,,,,,0,,,59,0
206520,note_on,0,0,2,,,,,,,,,,,,,,,0,,,62,0
206520,note_on,0,0,2,,,,,,,,,,,,,,,0,,,65,31
206640,note_on,0,0,1,,,,,,,,,,,,,,,0,,,86,66
206640,set_tempo,240,1,0,,,,,,,,,,,,465224,,,,,,,
206640,note_on,240,0,1,,,,,,,,,,,,,,,0,,,74,0
206640,note_on,120,0,2,,,,,,,,,,,,,,,0,,,65,0
206640,note_on,0,0,2,,,,,,,,,,,,,,,0,,,62,38
206640,control_change,0,0,2,,,,,,,,,,,,,,,0,64,0,,
206640,note_on,0,0,2,,,,,,,,,,,,,,,0,,,58,31
206680,control_change,40,0,2,,,,,,,,,,,,,,,0,64,127,,
206760,note_on,0,0,2,,,,,,,,,,,,,,,0,,,65,31
206760,note_on,0,0,2,,,,,,,,,,,,,,,0,,,58,0
206760,note_on,80,0,2,,,,,,,,,,,,,,,0,,,62,0
206880,note_on,240,0,1,,,,,,,,,,,,,,,0,,,86,0
206880,note_on,0,0,1,,,,,,,,,,,,,,,0,,,85,62
206880,note_on,120,0,2,,,,,,,,,,,,,,,0,,,65,0
206880,note_on,0,0,2,,,,,,,,,,,,,,,0,,,62,33
206880,note_on,0,0,2,,,,,,,,,,,,,,,0,,,58,27
206915,control_change,35,0,2,,,,,,,,,,,,,,,0,64,0,,
206944,control_change,29,0,2,,,,,,,,,,,,,,,0,64,127,,
207000,note_on,56,0,2,,,,,,,,,,,,,,,0,,,58,0
207000,note_on,0,0,2,,,,,,,,,,,,,,,0,,,62,0
207000,note_on,0,0,2,,,,,,,,,,,,,,,0,,,65,31
207120,note_on,120,0,2,,,,,,,,,,,,,,,0,,,65,0
207120,note_on,0,0,2,,,,,,,,,,,,,,,0,,,62,33
207120,note_on,0,0,2,,,,,,,,,,,,,,,0,,,58,27
207120,set_tempo,480,1,0,,,,,,,,,,,,478965,,,,,,,
207120,note_on,0,0,1,,,,,,,,,,,,,,,0,,,86,62
207120,note_on,240,0,1,,,,,,,,,,,,,,,0,,,85,0
207127,control_change,7,0,2,,,,,,,,,,,,,,,0,64,0,,
207148,control_change,21,0,2,,,,,,,,,,,,,,,0,64,127,,
207240,note_on,0,0,2,,,,,,,,,,,,,,,0,,,62,0
207240,note_on,92,0,2,,,,,,,,,,,,,,,0,,,58,0
207240,note_on,0,0,2,,,,,,,,,,,,,,,0,,,65,31
207360,control_change,0,0,2,,,,,,,,,,,,,,,0,64,0,,
207360,note_on,0,0,2,,,,,,,,,,,,,,,0,,,58,37
207360,note_on,0,0,2,,,,,,,,,,,,,,,0,,,62,45
207360,note_on,0,0,1,,,,,,,,,,,,,,,0,,,82,64
207360,set_tempo,240,1,0,,,,,,,,,,,,461787,,,,,,,
207360,note_on,240,0,1,,,,,,,,,,,,,,,0,,,86,0
207360,note_on,120,0,2,,,,,,,,,,,,,,,0,,,65,0
207431,control_change,71,0,2,,,,,,,,,,,,,,,0,64,127,,
207480,note_on,49,0,2,,,,,,,,,,,,,,,0,,,62,0
207480,note_on,0,0,2,,,,,,,,,,,,,,,0,,,58,0
207480,note_on,0,0,2,,,,,,,,,,,,,,,0,,,65,30
207600,note_on,0,0,2,,,,,,,,,,,,,,,0,,,58,29
207600,note_on,240,0,1,,,,,,,,,,,,,,,0,,,82,0
207600,note_on,120,0,2,,,,,,,,,,,,,,,0,,,65,0
207600,note_on,0,0,2,,,,,,,,,,,,,,,0,,,62,35
207600,note_on,0,0,1,,,,,,,,,,,,,,,0,,,81,56
207649,control_change,49,0,2,,,,,,,,,,,,,,,0,64,0,,
207671,control_change,22,0,2,,,,,,,,,,,,,,,0,64,127,,
207720,note_on,49,0,2,,,,,,,,,,,,,,,0,,,62,0
207720,note_on,0,0,2,,,,,,,,,,,,,,,0,,,58,0
207720,note_on,0,0,2,,,,,,,,,,,,,,,0,,,65,29
207840,note_on,0,0,1,,,,,,,,,,,,,,,0,,,82,57
207840,note_on,120,0,2,,,,,,,,,,,,,,,0,,,65,0
207840,note_on,0,0,2,,,,,,,,,,,,,,,0,,,58,29
207840,note_on,240,0,1,,,,,,,,,,,,,,,0,,,81,0
207840,note_on,0,0,2,,,,,,,,,,,,,,,0,,,62,35
207847,control_change,7,0,2,,,,,,,,,,,,,,,0,64,0,,
207875,control_change,28,0,2,,,,,,,,,,,,,,,0,64,127,,
207960,note_on,0,0,2,,,,,,,,,,,,,,,0,,,65,30
207960,note_on,0,0,2,,,,,,,,,,,,,,,0,,,58,0
207960,note_on,85,0,2,,,,,,,,,,,,,,,0,,,62,0
208080,note_on,0,0,2,,,,,,,,,,,,,,,0,,,63,41
208080,note_on,0,0,2,,,,,,,,,,,,,,,0,,,58,35
208080,control_change,0,0,2,,,,,,,,,,,,,,,0,64,0,,
208080,note_on,120,0,2,,,,,,,,,,,,,,,0,,,65,0
208080,set_tempo,720,1,0,,,,,,,,,,,,456274,,,,,,,
208080,note_on,0,0,1,,,,,,,,,,,,,,,0,,,79,61
208080,note_on,240,0,1,,,,,,,,,,,,,,,0,,,82,0
208129,control_change,49,0,2,,,,,,,,,,,,,,,0,64,127,,
208200,note_on,0,0,2,,,,,,,,,,,,,,,0,,,67,31
208200,note_on,0,0,2,,,,,,,,,,,,,,,0,,,58,0
208200,note_on,71,0,2,,,,,,,,,,,,,,,0,,,63,0
208320,note_on,0,0,1,,,,,,,,,,,,,,,0,,,81,57
208320,note_on,0,0,2,,,,,,,,,,,,,,,0,,,63,36
208320,note_on,0,0,2,,,,,,,,,,,,,,,0,,,58,30
208320,note_on,120,0,2,,,,,,,,,,,,,,,0,,,67,0
208320,set_tempo,240,1,0,,,,,,,,,,,,452625,,,,,,,
208320,note_on,240,0,1,,,,,,,,,,,,,,,0,,,79,0
208362,control_change,42,0,2,,,,,,,,,,,,,,,0,64,0,,
208384,control_change,22,0,2,,,,,,,,,,,,,,,0,64,127,,
208440,note_on,0,0,2,,,,,,,,,,,,,,,0,,,67,30
208440,note_on,56,0,2,,,,,,,,,,,,,,,0,,,63,0
208440,note_on,0,0,2,,,,,,,,,,,,,,,0,,,58,0
208440,note_on,120,0,1,,,,,,,,,,,,,,,0,,,81,0
208440,note_on,0,0,1,,,,,,,,,,,,,,,0,,,82,58
208560,note_on,0,0,2,,,,,,,,,,,,,,,0,,,63,36
208560,note_on,0,0,2,,,,,,,,,,,,,,,0,,,58,30
208560,note_on,120,0,2,,,,,,,,,,,,,,,0,,,67,0
208560,note_on,0,0,1,,,,,,,,,,,,,,,0,,,84,61
208560,note_on,120,0,1,,,,,,,,,,,,,,,0,,,82,0
208680,note_on,0,0,2,,,,,,,,,,,,,,,0,,,58,0
208680,note_on,0,0,2,,,,,,,,,,,,,,,0,,,67,30
208680,note_on,120,0,2,,,,,,,,,,,,,,,0,,,63,0
208680,note_on,0,0,1,,,,,,,,,,,,,,,0,,,86,62
208680,note_on,120,0,1,,,,,,,,,,,,,,,0,,,84,0
208800,note_on,0,0,2,,,,,,,,,,,,,,,0,,,62,51
208800,note_on,0,0,2,,,,,,,,,,,,,,,0,,,58,42
208800,control_change,0,0,2,,,,,,,,,,,,,,,0,64,0,,
208800,note_on,120,0,2,,,,,,,,,,,,,,,0,,,67,0
208800,note_on,120,0,1,,,,,,,,,,,,,,,0,,,86,0
208800,note_on,0,0,1,,,,,,,,,,,,,,,0,,,82,68
208800,set_tempo,480,1,0,,,,,,,,,,,,462999,,,,,,,
208849,control_change,49,0,2,,,,,,,,,,,,,,,0,64,127,,
208920,note_on,0,0,2,,,,,,,,,,,,,,,0,,,65,33
208920,note_on,71,0,2,,,,,,,,,,,,,,,0,,,62,0
208920,note_on,0,0,2,,,,,,,,,,,,,,,0,,,58,0
209040,control_change,0,0,2,,,,,,,,,,,,,,,0,64,0,,
209040,note_on,0,0,1,,,,,,,,,,,,,,,0,,,84,69
209040,set_tempo,240,1,0,,,,,,,,,,,,457457,,,,,,,
209040,note_on,240,0,1,,,,,,,,,,,,,,,0,,,82,0
209040,note_on,120,0,2,,,,,,,,,,,,,,,0,,,65,0
209040,note_on,0,0,2,,,,,,,,,,,,,,,0,,,62,37
209040,note_on,0,0,2,,,,,,,,,,,,,,,0,,,58,30
209089,control_change,49,0,2,,,,,,,,,,,,,,,0,64,127,,
209160,note_on,0,0,1,,,,,,,,,,,,,,,0,,,82,60
209160,note_on,0,0,2,,,,,,,,,,,,,,,0,,,65,31
209160,note_on,120,0,1,,,,,,,,,,,,,,,0,,,84,0
209160,note_on,71,0,2,,,,,,,,,,,,,,,0,,,58,0
209160,note_on,0,0,2,,,,,,,,,,,,,,,0,,,62,0
209280,note_on,0,0,2,,,,,,,,,,,,,,,0,,,58,31
209280,note_on,120,0,2,,,,,,,,,,,,,,,0,,,65,0
209280,note_on,0,0,1,,,,,,,,,,,,,,,0,,,81,66
209280,note_on,120,0,1,,,,,,,,,,,,,,,0,,,82,0
209280,note_on,0,0,2,,,,,,,,,,,,,,,0,,,62,38
209400,note_on,0,0,2,,,,,,,,,,,,,,,0,,,65,31
209400,note_on,0,0,2,,,,,,,,,,,,,,,0,,,58,0
209400,note_on,120,0,1,,,,,,,,,,,,,,,0,,,81,0
209400,note_on,0,0,1,,,,,,,,,,,,,,,0,,,79,61
209400,note_on,120,0,2,,,,,,,,,,,,,,,0,,,62,0
209520,set_tempo,480,1,0,,,,,,,,,,,,468713,,,,,,,
209520,note_on,0,0,2,,,,,,,,,,,,,,,0,,,63,46
209520,note_on,0,0,1,,,,,,,,,,,,,,,0,,,77,72
209520,note_on,120,0,2,,,,,,,,,,,,,,,0,,,65,0
209520,note_on,120,0,1,,,,,,,,,,,,,,,0,,,79,0
209520,note_on,0,0,2,,,,,,,,,,,,,,,0,,,57,38
209548,control_change,28,0,2,,,,,,,,,,,,,,,0,64,0,,
209580,note_on,60,0,1,,,,,,,,,,,,,,,0,,,77,0
209640,note_on,92,0,2,,,,,,,,,,,,,,,0,,,63,0
209640,note_on,0,0,2,,,,,,,,,,,,,,,0,,,65,34
209640,note_on,0,0,2,,,,,,,,,,,,,,,0,,,57,0
209760,note_on,180,0,1,,,,,,,,,,,,,,,0,,,77,67
209760,note_on,120,0,2,,,,,,,,,,,,,,,0,,,65,0
209760,note_on,0,0,2,,,,,,,,,,,,,,,0,,,57,31
209760,note_on,0,0,2,,,,,,,,,,,,,,,0,,,63,38
209820,note_on,60,0,1,,,,,,,,,,,,,,,0,,,77,0
209880,note_on,0,0,2,,,,,,,,,,,,,,,0,,,65,35
209880,note_on,0,0,2,,,,,,,,,,,,,,,0,,,57,0
209880,note_on,120,0,2,,,,,,,,,,,,,,,0,,,63,0
210000,note_on,0,0,2,,,,,,,,,,,,,,,0,,,57,33
210000,set_tempo,480,1,0,,,,,,,,,,,,479693,,,,,,,
210000,note_on,180,0,1,,,,,,,,,,,,,,,0,,,77,67
210000,note_on,0,0,2,,,,,,,,,,,,,,,0,,,63,39
210000,note_on,120,0,2,,,,,,,,,,,,,,,0,,,65,0
210060,note_on,60,0,1,,,,,,,,,,,,,,,0,,,77,0
210120,note_on,120,0,2,,,,,,,,,,,,,,,0,,,63,0
210120,note_on,0,0,2,,,,,,,,,,,,,,,0,,,57,0
210120,note_on,0,0,2,,,,,,,,,,,,,,,0,,,65,34
210240,note_on,0,0,2,,,,,,,,,,,,,,,0,,,63,50
210240,note_on,180,0,1,,,,,,,,,,,,,,,0,,,78,82
210240,note_on,0,0,2,,,,,,,,,,,,,,,0,,,57,42
210240,note_on,120,0,2,,,,,,,,,,,,,,,0,,,65,0
210240,set_tempo,240,1,0,,,,,,,,,,,,468640,,,,,,,
210309,control_change,69,0,2,,,,,,,,,,,,,,,0,64,127,,
210360,note_on,0,0,2,,,,,,,,,,,,,,,0,,,66,35
210360,note_on,0,0,2,,,,,,,,,,,,,,,0,,,57,0
210360,note_on,51,0,2,,,,,,,,,,,,,,,0,,,63,0
210480,note_on,0,0,2,,,,,,,,,,,,,,,0,,,63,40
210480,note_on,240,0,1,,,,,,,,,,,,,,,0,,,78,0
210480,note_on,0,0,1,,,,,,,,,,,,,,,0,,,90,78
210480,note_on,0,0,2,,,,,,,,,,,,,,,0,,,57,34
210480,note_on,120,0,2,,,,,,,,,,,,,,,0,,,66,0
210600,note_on,0,0,2,,,,,,,,,,,,,,,0,,,66,35
210600,note_on,0,0,2,,,,,,,,,,,,,,,0,,,57,0
210600,note_on,120,0,2,,,,,,,,,,,,,,,0,,,63,0
210720,note_on,0,0,2,,,,,,,,,,,,,,,0,,,63,40
210720,set_tempo,480,1,0,,,,,,,,,,,,477783,,,,,,,
210720,note_on,120,0,2,,,,,,,,,,,,,,,0,,,66,0
210720,note_on,0,0,1,,,,,,,,,,,,,,,0,,,90,79
210720,note_on,240,0,1,,,,,,,,,,,,,,,0,,,90,0
210720,note_on,0,0,2,,,,,,,,,,,,,,,0,,,57,34
210727,control_change,7,0,2,,,,,,,,,,,,,,,0,64,0,,
210780,note_on,60,0,1,,,,,,,,,,,,,,,0,,,90,0
210840,note_on,113,0,2,,,,,,,,,,,,,,,0,,,63,0
210840,note_on,0,0,2,,,,,,,,,,,,,,,0,,,57,0
210840,note_on,0,0,2,,,,,,,,,,,,,,,0,,,66,36
210960,set_tempo,240,1,0,,,,,,,,,,,,468640,,,,,,,
210960,note_on,0,0,2,,,,,,,,,,,,,,,0,,,58,40
210960,note_on,0,0,2,,,,,,,,,,,,,,,0,,,63,48
210960,note_on,180,0,1,,,,,,,,,,,,,,,0,,,91,90
210960,note_on,120,0,2,,,,,,,,,,,,,,,0,,,66,0
211080,note_on,120,0,2,,,,,,,,,,,,,,,0,,,63,0
211080,note_on,0,0,2,,,,,,,,,,,,,,,0,,,58,0
211080,note_on,0,0,2,,,,,,,,,,,,,,,0,,,67,36
211087,control_change,7,0,2,,,,,,,,,,,,,,,0,64,127,,
211200,note_on,0,0,1,,,,,,,,,,,,,,,0,,,79,72
211200,note_on,0,0,2,,,,,,,,,,,,,,,0,,,58,35
211200,note_on,0,0,2,,,,,,,,,,,,,,,0,,,63,41
211200,note_on,113,0,2,,,,,,,,,,,,,,,0,,,67,0
211200,note_on,240,0,1,,,,,,,,,,,,,,,0,,,91,0
211320,note_on,0,0,2,,,,,,,,,,,,,,,0,,,67,36
211320,note_on,0,0,2,,,,,,,,,,,,,,,0,,,58,0
211320,note_on,120,0,2,,,,,,,,,,,,,,,0,,,63,0
211440,note_on,0,0,2,,,,,,,,,,,,,,,0,,,63,41
211440,note_on,0,0,2,,,,,,,,,,,,,,,0,,,58,35
211440,note_on,120,0,2,,,,,,,,,,,,,,,0,,,67,0
211440,note_on,240,0,1,,,,,,,,,,,,,,,0,,,79,0
211440,note_on,0,0,1,,,,,,,,,,,,,,,0,,,79,72
211444,control_change,4,0,2,,,,,,,,,,,,,,,0,64,0,,
211500,note_on,60,0,1,,,,,,,,,,,,,,,0,,,79,0
211560,note_on,0,0,2,,,,,,,,,,,,,,,0,,,67,36
211560,note_on,0,0,2,,,,,,,,,,,,,,,0,,,58,0
211560,note_on,116,0,2,,,,,,,,,,,,,,,0,,,63,0
211680,note_on,0,0,2,,,,,,,,,,,,,,,0,,,63,50
211680,note_on,0,0,2,,,,,,,,,,,,,,,0,,,60,42
211680,note_on,180,0,1,,,,,,,,,,,,,,,0,,,81,77
211680,note_on,120,0,2,,,,,,,,,,,,,,,0,,,67,0
211740,note_on,60,0,1,,,,,,,,,,,,,,,0,,,81,0
211768,control_change,88,0,2,,,,,,,,,,,,,,,0,64,127,,
211800,note_on,0,0,2,,,,,,,,,,,,,,,0,,,67,37
211800,note_on,32,0,2,,,,,,,,,,,,,,,0,,,63,0
211800,note_on,0,0,2,,,,,,,,,,,,,,,0,,,60,0
211890,note_on,150,0,1,,,,,,,,,,,,,,,0,,,94,73
211920,set_tempo,960,1,0,,,,,,,,,,,,457457,,,,,,,
211920,note_on,30,0,1,,,,,,,,,,,,,,,0,,,94,0
211920,note_on,120,0,2,,,,,,,,,,,,,,,0,,,67,0
211920,note_on,0,0,2,,,,,,,,,,,,,,,0,,,60,36
211920,note_on,0,0,2,,,,,,,,,,,,,,,0,,,63,42
211920,note_on,0,0,1,,,,,,,,,,,,,,,0,,,93,77
212040,note_on,0,0,2,,,,,,,,,,,,,,,0,,,60,0
212040,note_on,120,0,2,,,,,,,,,,,,,,,0,,,63,0
212040,note_on,0,0,2,,,,,,,,,,,,,,,0,,,67,37
212040,note_on,0,0,1,,,,,,,,,,,,,,,0,,,91,74
212040,note_on,120,0,1,,,,,,,,,,,,,,,0,,,93,0
212160,set_tempo,240,1,0,,,,,,,,,,,,462999,,,,,,,
212160,note_on,0,0,1,,,,,,,,,,,,,,,0,,,93,78
212160,note_on,120,0,1,,,,,,,,,,,,,,,0,,,91,0
212160,note_on,0,0,2,,,,,,,,,,,,,,,0,,,63,44
212160,note_on,0,0,2,,,,,,,,,,,,,,,0,,,60,37
212160,note_on,120,0,2,,,,,,,,,,,,,,,0,,,67,0
212280,note_on,120,0,2,,,,,,,,,,,,,,,0,,,63,0
212280,note_on,0,0,2,,,,,,,,,,,,,,,0,,,67,38
212280,note_on,0,0,2,,,,,,,,,,,,,,,0,,,60,0
212400,note_on,0,0,2,,,,,,,,,,,,,,,0,,,62,51
212400,note_on,0,0,2,,,,,,,,,,,,,,,0,,,55,42
212400,note_on,240,0,1,,,,,,,,,,,,,,,0,,,93,0
212400,note_on,0,0,1,,,,,,,,,,,,,,,0,,,94,81
212400,control_change,0,0,2,,,,,,,,,,,,,,,0,64,0,,
212400,note_on,120,0,2,,,,,,,,,,,,,,,0,,,67,0
212460,note_on,60,0,1,,,,,,,,,,,,,,,0,,,94,0
212520,note_on,0,0,2,,,,,,,,,,,,,,,0,,,67,38
212520,note_on,0,0,2,,,,,,,,,,,,,,,0,,,55,0
212520,note_on,120,0,2,,,,,,,,,,,,,,,0,,,62,0
212534,control_change,14,0,2,,,,,,,,,,,,,,,0,64,127,,
212610,note_on,150,0,1,,,,,,,,,,,,,,,0,,,84,72
212640,note_on,0,0,2,,,,,,,,,,,,,,,0,,,62,44
212640,note_on,106,0,2,,,,,,,,,,,,,,,0,,,67,0
212640,note_on,0,0,1,,,,,,,,,,,,,,,0,,,82,75
212640,note_on,30,0,1,,,,,,,,,,,,,,,0,,,84,0
212640,note_on,0,0,2,,,,,,,,,,,,,,,0,,,55,37
212640,set_tempo,480,1,0,,,,,,,,,,,,457457,,,,,,,
212760,note_on,0,0,2,,,,,,,,,,,,,,,0,,,67,38
212760,note_on,0,0,2,,,,,,,,,,,,,,,0,,,55,0
212760,note_on,120,0,2,,,,,,,,,,,,,,,0,,,62,0
212760,note_on,0,0,1,,,,,,,,,,,,,,,0,,,81,71
212760,note_on,120,0,1,,,,,,,,,,,,,,,0,,,82,0
212880,note_on,0,0,2,,,,,,,,,,,,,,,0,,,55,37
212880,note_on,0,0,2,,,,,,,,,,,,,,,0,,,62,44
212880,note_on,120,0,2,,,,,,,,,,,,,,,0,,,67,0
212880,set_tempo,240,1,0,,,,,,,,,,,,489317,,,,,,,
212880,note_on,120,0,1,,,,,,,,,,,,,,,0,,,81,0
212880,note_on,0,0,1,,,,,,,,,,,,,,,0,,,82,77
213000,note_on,120,0,2,,,,,,,,,,,,,,,0,,,62,0
213000,note_on,0,0,2,,,,,,,,,,,,,,,0,,,55,0
213000,note_on,0,0,2,,,,,,,,,,,,,,,0,,,67,39
213000,note_on,120,0,1,,,,,,,,,,,,,,,0,,,82,0
213120,note_on,0,0,2,,,,,,,,,,,,,,,0,,,63,73
213120,set_tempo,240,1,0,,,,,,,,,,,,470404,,,,,,,
213120,note_on,0,0,1,,,,,,,,,,,,,,,0,,,79,62
213120,note_on,120,0,2,,,,,,,,,,,,,,,0,,,67,0
213120,control_change,0,0,2,,,,,,,,,,,,,,,0,64,0,,
213120,note_on,120,0,1,,,,,,,,,,,,,,,0,,,75,52
213240,note_on,0,0,1,,,,,,,,,,,,,,,0,,,82,55
213240,note_on,0,0,1,,,,,,,,,,,,,,,0,,,75,0
213240,note_on,120,0,1,,,,,,,,,,,,,,,0,,,79,0
213360,note_on,240,0,2,,,,,,,,,,,,,,,0,,,63,0
213360,note_on,0,0,2,,,,,,,,,,,,,,,0,,,62,62
213360,note_on,0,0,1,,,,,,,,,,,,,,,0,,,79,63
213360,note_on,0,0,1,,,,,,,,,,,,,,,0,,,75,53
213360,note_on,120,0,1,,,,,,,,,,,,,,,0,,,82,0
213480,note_on,0,0,1,,,,,,,,,,,,,,,0,,,75,0
213480,note_on,120,0,1,,,,,,,,,,,,,,,0,,,79,0
213480,note_on,0,0,1,,,,,,,,,,,,,,,0,,,82,53
213600,note_on,0,0,2,,,,,,,,,,,,,,,0,,,63,62
213600,note_on,240,0,2,,,,,,,,,,,,,,,0,,,62,0
213600,note_on,0,0,1,,,,,,,,,,,,,,,0,,,79,63
213600,note_on,0,0,1,,,,,,,,,,,,,,,0,,,75,53
213600,note_on,120,0,1,,,,,,,,,,,,,,,0,,,82,0
213720,note_on,0,0,1,,,,,,,,,,,,,,,0,,,82,55
213720,note_on,0,0,1,,,,,,,,,,,,,,,0,,,75,0
213720,note_on,120,0,1,,,,,,,,,,,,,,,0,,,79,0
213840,set_tempo,720,1,0,,,,,,,,,,,,461113,,,,,,,
213840,note_on,0,0,1,,,,,,,,,,,,,,,0,,,79,64
213840,note_on,0,0,1,,,,,,,,,,,,,,,0,,,75,55
213840,note_on,120,0,1,,,,,,,,,,,,,,,0,,,82,0
213840,note_on,0,0,2,,,,,,,,,,,,,,,0,,,60,73
213840,note_on,240,0,2,,,,,,,,,,,,,,,0,,,63,0
213960,note_on,0,0,1,,,,,,,,,,,,,,,0,,,84,55
213960,note_on,0,0,1,,,,,,,,,,,,,,,0,,,75,0
213960,note_on,120,0,1,,,,,,,,,,,,,,,0,,,79,0
214080,note_on,120,0,1,,,,,,,,,,,,,,,0,,,84,0
214080,note_on,240,0,2,,,,,,,,,,,,,,,0,,,60,0
214080,note_on,0,0,2,,,,,,,,,,,,,,,0,,,62,59
214080,note_on,0,0,1,,,,,,,,,,,,,,,0,,,75,53
214080,note_on,0,0,1,,,,,,,,,,,,,,,0,,,79,63
214080,set_tempo,240,1,0,,,,,,,,,,,,457457,,,,,,,
214200,note_on,0,0,1,,,,,,,,,,,,,,,0,,,75,0
214200,note_on,0,0,1,,,,,,,,,,,,,,,0,,,84,53
214200,note_on,120,0,2,,,,,,,,,,,,,,,0,,,62,0
214200,note_on,0,0,2,,,,,,,,,,,,,,,0,,,63,59
214200,note_on,120,0,1,,,,,,,,,,,,,,,0,,,79,0
214320,note_on,0,0,1,,,,,,,,,,,,,,,0,,,75,53
214320,note_on,120,0,1,,,,,,,,,,,,,,,0,,,84,0
214320,note_on,0,0,1,,,,,,,,,,,,,,,0,,,79,63
214320,note_on,120,0,2,,,,,,,,,,,,,,,0,,,63,0
214320,note_on,0,0,2,,,,,,,,,,,,,,,0,,,65,62
214440,note_on,120,0,1,,,,,,,,,,,,,,,0,,,79,0
214440,note_on,120,0,2,,,,,,,,,,,,,,,0,,,65,0
214440,note_on,0,0,2,,,,,,,,,,,,,,,0,,,67,62
214440,note_on,0,0,1,,,,,,,,,,,,,,,0,,,84,53
214440,note_on,0,0,1,,,,,,,,,,,,,,,0,,,75,0
214560,note_on,120,0,2,,,,,,,,,,,,,,,0,,,67,0
214560,note_on,0,0,2,,,,,,,,,,,,,,,0,,,63,71
214560,set_tempo,480,1,0,,,,,,,,,,,,462999,,,,,,,
214560,note_on,120,0,1,,,,,,,,,,,,,,,0,,,84,0
214560,note_on,0,0,1,,,,,,,,,,,,,,,0,,,75,57
214560,note_on,0,0,1,,,,,,,,,,,,,,,0,,,79,68
214680,note_on,0,0,1,,,,,,,,,,,,,,,0,,,75,0
214680,note_on,120,0,1,,,,,,,,,,,,,,,0,,,79,0
214680,note_on,0,0,1,,,,,,,,,,,,,,,0,,,82,55
214800,note_on,240,0,2,,,,,,,,,,,,,,,0,,,63,0
214800,note_on,0,0,2,,,,,,,,,,,,,,,0,,,65,68
214800,set_tempo,240,1,0,,,,,,,,,,,,457457,,,,,,,
214800,note_on,0,0,1,,,,,,,,,,,,,,,0,,,79,63
214800,note_on,0,0,1,,,,,,,,,,,,,,,0,,,75,53
214800,note_on,120,0,1,,,,,,,,,,,,,,,0,,,82,0
214920,note_on,120,0,1,,,,,,,,,,,,,,,0,,,75,0
214920,note_on,0,0,1,,,,,,,,,,,,,,,0,,,79,0
214920,note_on,0,0,1,,,,,,,,,,,,,,,0,,,82,53
214920,note_on,120,0,2,,,,,,,,,,,,,,,0,,,65,0
214920,note_on,0,0,2,,,,,,,,,,,,,,,0,,,63,62
215040,note_on,120,0,2,,,,,,,,,,,,,,,0,,,63,0
215040,note_on,0,0,1,,,,,,,,,,,,,,,0,,,79,63
215040,note_on,0,0,2,,,,,,,,,,,,,,,0,,,62,68
215040,note_on,0,0,1,,,,,,,,,,,,,,,0,,,75,53
215040,note_on,120,0,1,,,,,,,,,,,,,,,0,,,82,0
215160,note_on,120,0,2,,,,,,,,,,,,,,,0,,,62,0
215160,note_on,120,0,1,,,,,,,,,,,,,,,0,,,79,0
215160,note_on,0,0,1,,,,,,,,,,,,,,,0,,,75,0
215160,note_on,0,0,1,,,,,,,,,,,,,,,0,,,82,53
215160,note_on,0,0,2,,,,,,,,,,,,,,,0,,,60,62
215240,set_tempo,440,1,0,,,,,,,,,,,,469043,,,,,,,
215280,note_on,0,0,2,,,,,,,,,,,,,,,0,,,58,72
215280,note_on,120,0,1,,,,,,,,,,,,,,,0,,,82,0
215280,note_on,0,0,1,,,,,,,,,,,,,,,0,,,74,61
215280,note_on,0,0,1,,,,,,,,,,,,,,,0,,,80,72
215280,note_on,120,0,2,,,,,,,,,,,,,,,0,,,60,0
215340,note_on,60,0,2,,,,,,,,,,,,,,,0,,,58,0
215360,set_tempo,120,1,0,,,,,,,,,,,,470995,,,,,,,
215400,note_on,0,0,1,,,,,,,,,,,,,,,0,,,74,0
215400,note_on,0,0,1,,,,,,,,,,,,,,,0,,,82,55
215400,note_on,120,0,1,,,,,,,,,,,,,,,0,,,80,0
215440,set_tempo,80,1,0,,,,,,,,,,,,472962,,,,,,,
215520,note_on,180,0,2,,,,,,,,,,,,,,,0,,,58,62
215520,set_tempo,80,1,0,,,,,,,,,,,,474947,,,,,,,
215520,note_on,120,0,1,,,,,,,,,,,,,,,0,,,82,0
215520,note_on,0,0,1,,,,,,,,,,,,,,,0,,,74,53
215520,note_on,0,0,1,,,,,,,,,,,,,,,0,,,80,63
215580,note_on,60,0,2,,,,,,,,,,,,,,,0,,,58,0
215600,set_tempo,80,1,0,,,,,,,,,,,,476948,,,,,,,
215640,note_on,120,0,1,,,,,,,,,,,,,,,0,,,80,0
215640,note_on,0,0,1,,,,,,,,,,,,,,,0,,,74,0
215640,note_on,0,0,1,,,,,,,,,,,,,,,0,,,82,57
215680,set_tempo,80,1,0,,,,,,,,,,,,478965,,,,,,,
215760,note_on,180,0,2,,,,,,,,,,,,,,,0,,,58,62
215760,set_tempo,80,1,0,,,,,,,,,,,,480962,,,,,,,
215760,note_on,0,0,1,,,,,,,,,,,,,,,0,,,74,53
215760,note_on,0,0,1,,,,,,,,,,,,,,,0,,,80,63
215760,note_on,120,0,1,,,,,,,,,,,,,,,0,,,82,0
215820,note_on,60,0,2,,,,,,,,,,,,,,,0,,,58,0
215880,note_on,0,0,1,,,,,,,,,,,,,,,0,,,74,0
215880,note_on,120,0,1,,,,,,,,,,,,,,,0,,,80,0
215880,note_on,0,0,1,,,,,,,,,,,,,,,0,,,82,55
216000,note_on,120,0,1,,,,,,,,,,,,,,,0,,,82,0
216000,note_on,0,0,1,,,,,,,,,,,,,,,0,,,74,58
216000,set_tempo,240,1,0,,,,,,,,,,,,468640,,,,,,,
216000,note_on,0,0,1,,,,,,,,,,,,,,,0,,,80,69
216000,note_on,180,0,2,,,,,,,,,,,,,,,0,,,59,71
216120,note_on,120,0,1,,,,,,,,,,,,,,,0,,,80,0
216120,note_on,0,0,1,,,,,,,,,,,,,,,0,,,74,0
216120,note_on,0,0,1,,,,,,,,,,,,,,,0,,,86,55
216240,note_on,120,0,1,,,,,,,,,,,,,,,0,,,86,0
216240,note_on,0,0,1,,,,,,,,,,,,,,,0,,,74,53
216240,note_on,0,0,1,,,,,,,,,,,,,,,0,,,80,63
216240,note_on,0,0,2,,,,,,,,,,,,,,,0,,,71,59
216240,note_on,240,0,2,,,,,,,,,,,,,,,0,,,59,0
216360,note_on,0,0,1,,,,,,,,,,,,,,,0,,,86,55
216360,note_on,0,0,1,,,,,,,,,,,,,,,0,,,74,0
216360,note_on,120,0,1,,,,,,,,,,,,,,,0,,,80,0
216480,note_on,0,0,1,,,,,,,,,,,,,,,0,,,74,53
216480,note_on,0,0,1,,,,,,,,,,,,,,,0,,,80,63
216480,note_on,0,0,2,,,,,,,,,,,,,,,0,,,71,63
216480,note_on,240,0,2,,,,,,,,,,,,,,,0,,,71,0
216480,set_tempo,480,1,0,,,,,,,,,,,,479693,,,,,,,
216480,note_on,120,0,1,,,,,,,,,,,,,,,0,,,86,0
216600,note_on,120,0,1,,,,,,,,,,,,,,,0,,,80,0
216600,note_on,0,0,1,,,,,,,,,,,,,,,0,,,74,0
216600,note_on,120,0,2,,,,,,,,,,,,,,,0,,,71,0
216600,note_on,0,0,1,,,,,,,,,,,,,,,0,,,86,55
216720,note_on,0,0,1,,,,,,,,,,,,,,,0,,,75,57
216720,note_on,0,0,1,,,,,,,,,,,,,,,0,,,80,68
216720,note_on,120,0,2,,,,,,,,,,,,,,,0,,,72,73
216720,set_tempo,240,1,0,,,,,,,,,,,,468640,,,,,,,
216720,note_on,120,0,1,,,,,,,,,,,,,,,0,,,86,0
216840,note_on,120,0,1,,,,,,,,,,,,,,,0,,,80,0
216840,note_on,0,0,1,,,,,,,,,,,,,,,0,,,75,0
216840,note_on,0,0,1,,,,,,,,,,,,,,,0,,,87,55
216960,note_on,120,0,1,,,,,,,,,,,,,,,0,,,87,0
216960,note_on,0,0,1,,,,,,,,,,,,,,,0,,,75,53
216960,note_on,0,0,1,,,,,,,,,,,,,,,0,,,80,63
216960,note_on,240,0,2,,,,,,,,,,,,,,,0,,,72,0
216960,note_on,0,0,2,,,,,,,,,,,,,,,0,,,60,69
217080,note_on,0,0,1,,,,,,,,,,,,,,,0,,,87,55
217080,note_on,0,0,1,,,,,,,,,,,,,,,0,,,75,0
217080,note_on,120,0,1,,,,,,,,,,,,,,,0,,,80,0
217200,note_on,0,0,1,,,,,,,,,,,,,,,0,,,80,63
217200,note_on,120,0,1,,,,,,,,,,,,,,,0,,,87,0
217200,note_on,0,0,2,,,,,,,,,,,,,,,0,,,60,71
217200,note_on,240,0,2,,,,,,,,,,,,,,,0,,,60,0
217200,note_on,0,0,1,,,,,,,,,,,,,,,0,,,75,53
217320,note_on,120,0,2,,,,,,,,,,,,,,,0,,,60,0
217320,note_on,120,0,1,,,,,,,,,,,,,,,0,,,80,0
217320,note_on,0,0,1,,,,,,,,,,,,,,,0,,,75,0
217320,note_on,0,0,1,,,,,,,,,,,,,,,0,,,86,55
217440,note_on,120,0,2,,,,,,,,,,,,,,,0,,,65,78
217440,note_on,120,0,1,,,,,,,,,,,,,,,0,,,86,0
217440,note_on,0,0,1,,,,,,,,,,,,,,,0,,,75,53
217440,note_on,0,0,1,,,,,,,,,,,,,,,0,,,81,63
217500,note_on,60,0,2,,,,,,,,,,,,,,,0,,,65,0
217560,note_on,120,0,1,,,,,,,,,,,,,,,0,,,81,0
217560,note_on,0,0,1,,,,,,,,,,,,,,,0,,,75,0
217560,note_on,0,0,1,,,,,,,,,,,,,,,0,,,84,55
217620,note_on,120,0,2,,,,,,,,,,,,,,,0,,,55,69
217680,note_on,0,0,1,,,,,,,,,,,,,,,0,,,75,53
217680,set_tempo,960,1,0,,,,,,,,,,,,457457,,,,,,,
217680,note_on,0,0,1,,,,,,,,,,,,,,,0,,,81,63
217680,note_on,120,0,1,,,,,,,,,,,,,,,0,,,84,0
217680,note_on,60,0,2,,,,,,,,,,,,,,,0,,,53,79
217700,note_on,20,0,2,,,,,,,,,,,,,,,0,,,55,0
217800,note_on,0,0,1,,,,,,,,,,,,,,,0,,,84,55
217800,note_on,0,0,1,,,,,,,,,,,,,,,0,,,75,0
217800,note_on,120,0,1,,,,,,,,,,,,,,,0,,,81,0
217800,note_on,100,0,2,,,,,,,,,,,,,,,0,,,52,73
217820,note_on,20,0,2,,,,,,,,,,,,,,,0,,,53,0
217920,set_tempo,240,1,0,,,,,,,,,,,,497100,,,,,,,
217920,note_on,100,0,2,,,,,,,,,,,,,,,0,,,53,78
217920,note_on,0,0,1,,,,,,,,,,,,,,,0,,,81,63
217920,note_on,0,0,1,,,,,,,,,,,,,,,0,,,75,53
217920,note_on,120,0,1,,,,,,,,,,,,,,,0,,,84,0
217940,note_on,20,0,2,,,,,,,,,,,,,,,0,,,52,0
218040,note_on,120,0,1,,,,,,,,,,,,,,,0,,,81,0
218040,note_on,0,0,1,,,,,,,,,,,,,,,0,,,75,0
218040,note_on,0,0,1,,,,,,,,,,,,,,,0,,,84,55
218160,set_tempo,240,1,0,,,,,,,,,,,,466708,,,,,,,
218160,note_on,220,0,2,,,,,,,,,,,,,,,0,,,53,0
218160,note_on,0,0,2,,,,,,,,,,,,,,,0,,,58,73
218160,note_on,120,0,1,,,,,,,,,,,,,,,0,,,84,0
218160,note_on,0,0,1,,,,,,,,,,,,,,,0,,,82,63
218160,note_on,0,0,1,,,,,,,,,,,,,,,0,,,74,53
218220,note_on,60,0,2,,,,,,,,,,,,,,,0,,,58,0
218280,note_on,120,0,1,,,,,,,,,,,,,,,0,,,82,0
218280,note_on,0,0,1,,,,,,,,,,,,,,,0,,,74,0
218280,note_on,0,0,1,,,,,,,,,,,,,,,0,,,86,55
218340,note_on,120,0,2,,,,,,,,,,,,,,,0,,,48,65
218400,note_on,0,0,1,,,,,,,,,,,,,,,0,,,74,53
218400,note_on,60,0,2,,,,,,,,,,,,,,,0,,,46,73
218400,set_tempo,240,1,0,,,,,,,,,,,,457457,,,,,,,
218400,note_on,0,0,1,,,,,,,,,,,,,,,0,,,82,63
218400,note_on,120,0,1,,,,,,,,,,,,,,,0,,,86,0
218420,note_on,20,0,2,,,,,,,,,,,,,,,0,,,48,0
218520,note_on,0,0,1,,,,,,,,,,,,,,,0,,,74,0
218520,note_on,0,0,1,,,,,,,,,,,,,,,0,,,86,55
218520,note_on,100,0,2,,,,,,,,,,,,,,,0,,,45,68
218520,note_on,120,0,1,,,,,,,,,,,,,,,0,,,82,0
218540,note_on,20,0,2,,,,,,,,,,,,,,,0,,,46,0
218640,set_tempo,240,1,0,,,,,,,,,,,,509857,,,,,,,
218640,note_on,100,0,2,,,,,,,,,,,,,,,0,,,46,73
218640,note_on,120,0,1,,,,,,,,,,,,,,,0,,,86,0
218640,note_on,0,0,1,,,,,,,,,,,,,,,0,,,82,63
218640,note_on,0,0,1,,,,,,,,,,,,,,,0,,,74,53
218660,note_on,20,0,2,,,,,,,,,,,,,,,0,,,45,0
218760,note_on,120,0,1,,,,,,,,,,,,,,,0,,,82,0
218760,note_on,0,0,1,,,,,,,,,,,,,,,0,,,74,0
218760,note_on,0,0,1,,,,,,,,,,,,,,,0,,,86,55
218880,note_on,220,0,2,,,,,,,,,,,,,,,0,,,46,0
218880,note_on,0,0,2,,,,,,,,,,,,,,,0,,,41,66
218880,set_tempo,240,1,0,,,,,,,,,,,,461113,,,,,,,
218880,note_on,0,0,1,,,,,,,,,,,,,,,0,,,75,55
218880,note_on,0,0,1,,,,,,,,,,,,,,,0,,,81,64
218880,note_on,120,0,1,,,,,,,,,,,,,,,0,,,86,0
218887,control_change,7,0,2,,,,,,,,,,,,,,,0,64,0,,
218972,control_change,85,0,2,,,,,,,,,,,,,,,0,64,127,,
219000,note_on,120,0,1,,,,,,,,,,,,,,,0,,,81,0
219000,note_on,0,0,1,,,,,,,,,,,,,,,0,,,84,55
219000,note_on,0,0,1,,,,,,,,,,,,,,,0,,,75,0
219120,set_tempo,240,1,0,,,,,,,,,,,,457457,,,,,,,
219120,note_on,148,0,2,,,,,,,,,,,,,,,0,,,41,0
219120,note_on,0,0,2,,,,,,,,,,,,,,,0,,,43,52
219120,note_on,0,0,1,,,,,,,,,,,,,,,0,,,81,63
219120,note_on,0,0,1,,,,,,,,,,,,,,,0,,,75,53
219120,note_on,120,0,1,,,,,,,,,,,,,,,0,,,84,0
219169,control_change,49,0,2,,,,,,,,,,,,,,,0,64,0,,
219226,control_change,57,0,2,,,,,,,,,,,,,,,0,64,127,,
219240,note_on,0,0,1,,,,,,,,,,,,,,,0,,,75,0
219240,note_on,120,0,1,,,,,,,,,,,,,,,0,,,81,0
219240,note_on,14,0,2,,,,,,,,,,,,,,,0,,,43,0
219240,note_on,0,0,2,,,,,,,,,,,,,,,0,,,45,52
219240,note_on,0,0,1,,,,,,,,,,,,,,,0,,,84,53
219360,note_on,120,0,2,,,,,,,,,,,,,,,0,,,45,0
219360,note_on,0,0,2,,,,,,,,,,,,,,,0,,,46,56
219360,note_on,120,0,1,,,,,,,,,,,,,,,0,,,84,0
219360,note_on,0,0,1,,,,,,,,,,,,,,,0,,,75,53
219360,note_on,0,0,1,,,,,,,,,,,,,,,0,,,81,63
219480,note_on,120,0,2,,,,,,,,,,,,,,,0,,,46,0
219480,note_on,120,0,1,,,,,,,,,,,,,,,0,,,81,0
219480,note_on,0,0,1,,,,,,,,,,,,,,,0,,,75,0
219480,note_on,0,0,1,,,,,,,,,,,,,,,0,,,84,53
219480,note_on,0,0,2,,,,,,,,,,,,,,,0,,,48,56
219600,note_on,120,0,1,,,,,,,,,,,,,,,0,,,84,0
219600,control_change,0,0,2,,,,,,,,,,,,,,,0,64,0,,
219600,note_on,0,0,2,,,,,,,,,,,,,,,0,,,46,63
219600,note_on,0,0,1,,,,,,,,,,,,,,,0,,,74,57
219600,note_on,0,0,1,,,,,,,,,,,,,,,0,,,82,68
219600,set_tempo,480,1,0,,,,,,,,,,,,469043,,,,,,,
219600,note_on,120,0,2,,,,,,,,,,,,,,,0,,,48,0
219680,set_tempo,80,1,0,,,,,,,,,,,,470995,,,,,,,
219720,note_on,0,0,1,,,,,,,,,,,,,,,0,,,86,55
219720,note_on,0,0,1,,,,,,,,,,,,,,,0,,,74,0
219720,note_on,120,0,1,,,,,,,,,,,,,,,0,,,82,0
219760,set_tempo,80,1,0,,,,,,,,,,,,472962,,,,,,,
219800,set_tempo,40,1,0,,,,,,,,,,,,474947,,,,,,,
219840,note_on,240,0,2,,,,,,,,,,,,,,,0,,,46,0
219840,note_on,0,0,2,,,,,,,,,,,,,,,0,,,46,63
219840,note_on,0,0,1,,,,,,,,,,,,,,,0,,,74,53
219840,note_on,0,0,1,,,,,,,,,,,,,,,0,,,82,63
219840,note_on,120,0,1,,,,,,,,,,,,,,,0,,,86,0
219880,set_tempo,80,1,0,,,,,,,,,,,,476948,,,,,,,
219960,set_tempo,80,1,0,,,,,,,,,,,,478965,,,,,,,
219960,note_on,0,0,1,,,,,,,,,,,,,,,0,,,82,0
219960,note_on,120,0,1,,,,,,,,,,,,,,,0,,,74,0
219960,note_on,0,0,1,,,,,,,,,,,,,,,0,,,86,53
220000,set_tempo,40,1,0,,,,,,,,,,,,480962,,,,,,,
220040,set_tempo,40,1,0,,,,,,,,,,,,470995,,,,,,,
220080,note_on,240,0,2,,,,,,,,,,,,,,,0,,,46,0
220080,note_on,0,0,2,,,,,,,,,,,,,,,0,,,46,63
220080,note_on,0,0,1,,,,,,,,,,,,,,,0,,,74,53
220080,note_on,0,0,1,,,,,,,,,,,,,,,0,,,82,63
220080,set_tempo,40,1,0,,,,,,,,,,,,488162,,,,,,,
220080,note_on,120,0,1,,,,,,,,,,,,,,,0,,,86,0
220200,note_on,0,0,1,,,,,,,,,,,,,,,0,,,86,53
220200,note_on,0,0,1,,,,,,,,,,,,,,,0,,,74,0
220200,note_on,120,0,1,,,,,,,,,,,,,,,0,,,82,0
220320,note_on,0,0,1,,,,,,,,,,,,,,,0,,,81,58
220320,note_on,0,0,2,,,,,,,,,,,,,,,0,,,53,59
220320,note_on,240,0,2,,,,,,,,,,,,,,,0,,,46,0
220320,note_on,120,0,1,,,,,,,,,,,,,,,0,,,86,0
220320,note_on,0,0,1,,,,,,,,,,,,,,,0,,,75,49
220320,set_tempo,240,1,0,,,,,,,,,,,,474046,,,,,,,
220412,control_change,92,0,2,,,,,,,,,,,,,,,0,64,127,,
220440,note_on,120,0,1,,,,,,,,,,,,,,,0,,,81,0
220440,note_on,0,0,1,,,,,,,,,,,,,,,0,,,75,0
220440,note_on,0,0,1,,,,,,,,,,,,,,,0,,,84,49
220560,note_on,148,0,2,,,,,,,,,,,,,,,0,,,53,0
220560,set_tempo,240,1,0,,,,,,,,,,,,462570,,,,,,,
220560,note_on,0,0,1,,,,,,,,,,,,,,,0,,,81,57
220560,note_on,0,0,1,,,,,,,,,,,,,,,0,,,75,48
220560,note_on,0,0,2,,,,,,,,,,,,,,,0,,,55,47
220560,note_on,120,0,1,,,,,,,,,,,,,,,0,,,84,0
220609,control_change,49,0,2,,,,,,,,,,,,,,,0,64,0,,
220666,control_change,57,0,2,,,,,,,,,,,,,,,0,64,127,,
220680,note_on,120,0,1,,,,,,,,,,,,,,,0,,,81,0
220680,note_on,0,0,1,,,,,,,,,,,,,,,0,,,75,0
220680,note_on,0,0,1,,,,,,,,,,,,,,,0,,,84,48
220680,note_on,14,0,2,,,,,,,,,,,,,,,0,,,55,0
220680,note_on,0,0,2,,,,,,,,,,,,,,,0,,,57,47
220800,set_tempo,240,1,0,,,,,,,,,,,,472106,,,,,,,
220800,note_on,0,0,2,,,,,,,,,,,,,,,0,,,58,49
220800,note_on,0,0,1,,,,,,,,,,,,,,,0,,,81,57
220800,note_on,0,0,1,,,,,,,,,,,,,,,0,,,75,48
220800,note_on,120,0,1,,,,,,,,,,,,,,,0,,,84,0
220800,note_on,120,0,2,,,,,,,,,,,,,,,0,,,57,0
220920,note_on,0,0,1,,,,,,,,,,,,,,,0,,,84,48
220920,note_on,120,0,2,,,,,,,,,,,,,,,0,,,58,0
220920,note_on,0,0,2,,,,,,,,,,,,,,,0,,,60,49
220920,note_on,0,0,1,,,,,,,,,,,,,,,0,,,75,0
220920,note_on,120,0,1,,,,,,,,,,,,,,,0,,,81,0
221040,control_change,0,0,2,,,,,,,,,,,,,,,0,64,0,,
221040,note_on,120,0,2,,,,,,,,,,,,,,,0,,,60,0
221040,set_tempo,240,1,0,,,,,,,,,,,,468238,,,,,,,
221040,note_on,0,0,2,,,,,,,,,,,,,,,0,,,58,57
221040,note_on,0,0,1,,,,,,,,,,,,,,,0,,,74,50
221040,note_on,0,0,1,,,,,,,,,,,,,,,0,,,82,60
221040,note_on,120,0,1,,,,,,,,,,,,,,,0,,,84,0
221080,set_tempo,40,1,0,,,,,,,,,,,,476948,,,,,,,
221160,note_on,0,0,1,,,,,,,,,,,,,,,0,,,74,0
221160,note_on,120,0,1,,,,,,,,,,,,,,,0,,,82,0
221160,note_on,0,0,1,,,,,,,,,,,,,,,0,,,86,49
221200,set_tempo,120,1,0,,,,,,,,,,,,478965,,,,,,,
221280,note_on,0,0,1,,,,,,,,,,,,,,,0,,,82,57
221280,set_tempo,80,1,0,,,,,,,,,,,,480962,,,,,,,
221280,note_on,0,0,1,,,,,,,,,,,,,,,0,,,74,48
221280,note_on,0,0,2,,,,,,,,,,,,,,,0,,,58,57
221280,note_on,240,0,2,,,,,,,,,,,,,,,0,,,58,0
221280,note_on,120,0,1,,,,,,,,,,,,,,,0,,,86,0
221400,note_on,120,0,1,,,,,,,,,,,,,,,0,,,74,0
221400,note_on,0,0,1,,,,,,,,,,,,,,,0,,,86,48
221400,note_on,0,0,1,,,,,,,,,,,,,,,0,,,82,0
221520,note_on,120,0,1,,,,,,,,,,,,,,,0,,,86,0
221520,set_tempo,240,1,0,,,,,,,,,,,,503145,,,,,,,
221520,note_on,0,0,2,,,,,,,,,,,,,,,0,,,58,57
221520,note_on,0,0,1,,,,,,,,,,,,,,,0,,,74,48
221520,note_on,0,0,1,,,,,,,,,,,,,,,0,,,82,57
221520,note_on,240,0,2,,,,,,,,,,,,,,,0,,,58,0
221640,note_on,120,0,1,,,,,,,,,,,,,,,0,,,82,0
221640,note_on,0,0,1,,,,,,,,,,,,,,,0,,,86,48
221640,note_on,0,0,1,,,,,,,,,,,,,,,0,,,74,0
221760,note_on,0,0,1,,,,,,,,,,,,,,,0,,,81,51
221760,set_tempo,240,1,0,,,,,,,,,,,,490236,,,,,,,
221760,note_on,240,0,2,,,,,,,,,,,,,,,0,,,58,0
221760,note_on,0,0,2,,,,,,,,,,,,,,,0,,,65,52
221760,note_on,120,0,1,,,,,,,,,,,,,,,0,,,86,0
221760,note_on,0,0,1,,,,,,,,,,,,,,,0,,,75,42
221852,control_change,92,0,2,,,,,,,,,,,,,,,0,64,127,,
221880,note_on,120,0,1,,,,,,,,,,,,,,,0,,,81,0
221880,note_on,0,0,1,,,,,,,,,,,,,,,0,,,75,0
221880,note_on,0,0,1,,,,,,,,,,,,,,,0,,,84,44
222000,note_on,148,0,2,,,,,,,,,,,,,,,0,,,65,0
222000,note_on,0,0,2,,,,,,,,,,,,,,,0,,,67,41
222000,set_tempo,240,1,0,,,,,,,,,,,,462570,,,,,,,
222000,note_on,0,0,1,,,,,,,,,,,,,,,0,,,81,50
222000,note_on,0,0,1,,,,,,,,,,,,,,,0,,,75,42
222000,note_on,120,0,1,,,,,,,,,,,,,,,0,,,84,0
222049,control_change,49,0,2,,,,,,,,,,,,,,,0,64,0,,
222106,control_change,57,0,2,,,,,,,,,,,,,,,0,64,127,,
222120,note_on,120,0,1,,,,,,,,,,,,,,,0,,,81,0
222120,note_on,0,0,2,,,,,,,,,,,,,,,0,,,69,41
222120,note_on,14,0,2,,,,,,,,,,,,,,,0,,,67,0
222120,note_on,0,0,1,,,,,,,,,,,,,,,0,,,84,42
222120,note_on,0,0,1,,,,,,,,,,,,,,,0,,,75,0
222240,note_on,0,0,2,,,,,,,,,,,,,,,0,,,70,44
222240,note_on,120,0,2,,,,,,,,,,,,,,,0,,,69,0
222240,note_on,120,0,1,,,,,,,,,,,,,,,0,,,84,0
222240,note_on,0,0,1,,,,,,,,,,,,,,,0,,,75,42
222240,set_tempo,240,1,0,,,,,,,,,,,,488162,,,,,,,
222240,note_on,0,0,1,,,,,,,,,,,,,,,0,,,81,50
222360,note_on,0,0,1,,,,,,,,,,,,,,,0,,,75,0
222360,note_on,120,0,1,,,,,,,,,,,,,,,0,,,81,0
222360,note_on,0,0,1,,,,,,,,,,,,,,,0,,,84,42
222360,note_on,0,0,2,,,,,,,,,,,,,,,0,,,72,44
222360,note_on,120,0,2,,,,,,,,,,,,,,,0,,,70,0
222438,control_change,78,0,2,,,,,,,,,,,,,,,0,64,0,,
222480,note_on,120,0,1,,,,,,,,,,,,,,,0,,,84,0
222480,set_tempo,240,1,0,,,,,,,,,,,,505348,,,,,,,
222480,note_on,0,0,1,,,,,,,,,,,,,,,0,,,86,53
222480,note_on,0,0,1,,,,,,,,,,,,,,,0,,,74,45
222480,note_on,0,0,1,,,,,,,,,,,,,,,0,,,82,53
222480,note_on,0,0,2,,,,,,,,,,,,,,,0,,,70,50
222480,note_on,42,0,2,,,,,,,,,,,,,,,0,,,72,0
222720,note_on,240,0,2,,,,,,,,,,,,,,,0,,,70,0
222720,note_on,0,0,1,,,,,,,,,,,,,,,0,,,86,0
222720,note_on,0,0,1,,,,,,,,,,,,,,,0,,,74,0
222720,note_on,240,0,1,,,,,,,,,,,,,,,0,,,82,0
223200,note_on,480,0,1,,,,,,,,,,,,,,,0,,,74,39
223200,note_on,0,0,1,,,,,,,,,,,,,,,0,,,86,47
223200,note_on,480,0,2,,,,,,,,,,,,,,,0,,,65,33
223200,note_on,0,0,2,,,,,,,,,,,,,,,0,,,70,39
223200,note_on,0,0,1,,,,,,,,,,,,,,,0,,,82,47
223440,note_on,0,0,1,,,,,,,,,,,,,,,0,,,74,0
223440,note_on,0,0,1,,,,,,,,,,,,,,,0,,,82,0
223440,note_on,240,0,1,,,,,,,,,,,,,,,0,,,86,0
223440,note_on,240,0,2,,,,,,,,,,,,,,,0,,,70,0
223440,note_on,0,0,2,,,,,,,,,,,,,,,0,,,65,0
223920,note_on,0,0,2,,,,,,,,,,,,,,,0,,,65,31
223920,note_on,480,0,1,,,,,,,,,,,,,,,0,,,74,38
223920,set_tempo,1440,1,0,,,,,,,,,,,,513611,,,,,,,
223920,note_on,480,0,2,,,,,,,,,,,,,,,0,,,62,31
223920,note_on,0,0,1,,,,,,,,,,,,,,,0,,,82,45
223920,note_on,0,0,1,,,,,,,,,,,,,,,0,,,86,45
223920,note_on,0,0,2,,,,,,,,,,,,,,,0,,,70,37
224160,note_on,0,0,1,,,,,,,,,,,,,,,0,,,74,0
224160,note_on,0,0,2,,,,,,,,,,,,,,,0,,,62,0
224160,note_on,0,0,1,,,,,,,,,,,,,,,0,,,82,0
224160,note_on,0,0,2,,,,,,,,,,,,,,,0,,,65,0
224160,note_on,240,0,1,,,,,,,,,,,,,,,0,,,86,0
224160,note_on,240,0,2,,,,,,,,,,,,,,,0,,,70,0
224640,note_on,0,0,1,,,,,,,,,,,,,,,0,,,86,41
224640,note_on,0,0,2,,,,,,,,,,,,,,,0,,,70,37
224640,note_on,480,0,1,,,,,,,,,,,,,,,0,,,74,34
224640,note_on,0,0,2,,,,,,,,,,,,,,,0,,,65,31
224640,note_on,480,0,2,,,,,,,,,,,,,,,0,,,58,31
224640,note_on,0,0,1,,,,,,,,,,,,,,,0,,,82,41
225600,note_on,960,0,1,,,,,,,,,,,,,,,0,,,86,0
225600,note_on,0,0,1,,,,,,,,,,,,,,,0,,,82,0
225600,note_on,0,0,1,,,,,,,,,,,,,,,0,,,74,0
225600,note_on,0,0,2,,,,,,,,,,,,,,,0,,,58,0
225600,note_on,0,0,2,,,,,,,,,,,,,,,0,,,65,0
225600,note_on,960,0,2,,,,,,,,,,,,,,,0,,,70,0
225600,end_of_track,0,1,1,,,,,,,,,,,,,,,,,,,
225960,end_of_track,0,1,2,,,,,,,,,,,,,,,,,,,
225960,control_change,360,0,2,,,,,,,,,,,,,,,0,64,0,,
225962,set_tempo,2042,1,0,,,,,,,,,,,,542986,,,,,,,
226080,end_of_track,0,1,0,,,,,,,,,,,,,,,,,,,
226080,set_tempo,118,1,0,,,,,,,,,,,,600000,,,,,,,
