tick,type,time,meta,track,numerator,denominator,clocks_per_click,notated_32nd_notes_per_beat,key,tempo,control,value,channel,program,pitch,note,velocity
0,track_name,0,1,0,,,,,,,,,,,,,
0,pitchwheel,0,0,4,,,,,,,,,4,,0,,
0,control_change,0,0,4,,,,,,,1,0,4,,,,
0,control_change,0,0,4,,,,,,,93,28,4,,,,
0,control_change,0,0,4,,,,,,,91,100,4,,,,
0,control_change,0,0,4,,,,,,,7,120,4,,,,
0,control_change,0,0,4,,,,,,,10,55,4,,,,
0,track_name,0,1,5,,,,,,,,,,,,,
0,control_change,0,0,5,,,,,,,0,0,5,,,,
0,control_change,0,0,5,,,,,,,32,0,5,,,,
0,program_change,0,0,5,,,,,,,,,5,0,,,
0,control_change,0,0,5,,,,,,,64,0,5,,,,
0,control_change,0,0,5,,,,,,,64,0,5,,,,
0,control_change,0,0,5,,,,,,,64,0,5,,,,
0,control_change,0,0,5,,,,,,,64,0,5,,,,
0,control_change,0,0,5,,,,,,,64,0,5,,,,
0,pitchwheel,0,0,5,,,,,,,,,5,,0,,
0,control_change,0,0,5,,,,,,,1,0,5,,,,
0,control_change,0,0,1,,,,,,,32,0,1,,,,
0,control_change,0,0,1,,,,,,,64,0,1,,,,
0,control_change,0,0,1,,,,,,,1,0,1,,,,
0,control_change,0,0,1,,,,,,,93,1,1,,,,
0,control_change,0,0,1,,,,,,,91,64,1,,,,
0,control_change,0,0,1,,,,,,,7,127,1,,,,
0,control_change,0,0,4,,,,,,,64,0,4,,,,
0,control_change,0,0,1,,,,,,,10,73,1,,,,
0,pitchwheel,0,0,1,,,,,,,,,1,,0,,
0,control_change,0,0,2,,,,,,,0,0,2,,,,
0,control_change,0,0,5,,,,,,,10,55,5,,,,
0,control_change,0,0,5,,,,,,,7,125,5,,,,
0,control_change,0,0,5,,,,,,,91,100,5,,,,
0,control_change,0,0,5,,,,,,,93,28,5,,,,
0,program_change,0,0,1,,,,,,,,,1,0,,,
0,control_change,0,0,4,,,,,,,64,0,4,,,,
0,program_change,0,0,4,,,,,,,,,4,0,,,
0,control_change,0,0,4,,,,,,,32,0,4,,,,
0,control_change,0,0,2,,,,,,,10,73,2,,,,
0,control_change,0,0,2,,,,,,,7,122,2,,,,
0,control_change,0,0,2,,,,,,,91,100,2,,,,
0,control_change,0,0,2,,,,,,,93,28,2,,,,
0,control_change,0,0,2,,,,,,,1,0,2,,,,
0,pitchwheel,0,0,2,,,,,,,,,2,,0,,
0,track_name,0,1,3,,,,,,,,,,,,,
0,control_change,0,0,2,,,,,,,64,0,2,,,,
0,control_change,0,0,2,,,,,,,64,0,2,,,,
0,control_change,0,0,2,,,,,,,64,0,2,,,,
0,control_change,0,0,2,,,,,,,64,0,2,,,,
0,control_change,0,0,2,,,,,,,64,0,2,,,,
0,program_change,0,0,2,,,,,,,,,2,0,,,
0,control_change,0,0,2,,,,,,,32,0,2,,,,
0,control_change,0,0,2,,,,,,,64,0,2,,,,
0,control_change,0,0,1,,,,,,,0,0,1,,,,
0,control_change,0,0,3,,,,,,,0,0,3,,,,
0,program_change,0,0,3,,,,,,,,,3,0,,,
0,control_change,0,0,4,,,,,,,0,0,4,,,,
0,track_name,0,1,4,,,,,,,,,,,,,
0,control_change,0,0,3,,,,,,,10,64,3,,,,
0,control_change,0,0,3,,,,,,,7,112,3,,,,
0,control_change,0,0,3,,,,,,,91,100,3,,,,
0,control_change,0,0,3,,,,,,,93,28,3,,,,
0,control_change,0,0,3,,,,,,,32,0,3,,,,
0,control_change,0,0,3,,,,,,,1,0,3,,,,
0,control_change,0,0,3,,,,,,,64,0,3,,,,
0,control_change,0,0,3,,,,,,,64,0,3,,,,
0,control_change,0,0,3,,,,,,,64,0,3,,,,
0,control_change,0,0,3,,,,,,,64,0,3,,,,
0,control_change,0,0,3,,,,,,,64,0,3,,,,
0,control_change,0,0,3,,,,,,,64,0,3,,,,
0,pitchwheel,0,0,3,,,,,,,,,3,,0,,
0,track_name,0,1,1,,,,,,,,,,,,,
0,track_name,0,1,2,,,,,,,,,,,,,
0,time_signature,0,1,0,6,8,24,8,,,,,,,,,
0,key_signature,0,1,0,,,,,C,,,,,,,,
0,set_tempo,0,1,0,,,,,,240000,,,,,,,
0,marker,0,1,0,,,,,,,,,,,,,
1440,control_change,1440,0,5,,,,,,,64,0,5,,,,
1440,set_tempo,1440,1,0,,,,,,495867,,,,,,,
1440,marker,0,1,0,,,,,,,,,,,,,
1440,control_change,1440,0,1,,,,,,,64,0,1,,,,
1440,control_change,1440,0,3,,,,,,,64,0,3,,,,
1440,control_change,1440,0,4,,,,,,,64,0,4,,,,
1440,control_change,1440,0,2,,,,,,,64,0,2,,,,
2640,control_change,1200,0,1,,,,,,,64,0,1,,,,
2640,note_on,0,0,5,,,,,,,,,5,,,45,78
2640,note_on,0,0,5,,,,,,,,,5,,,33,78
2640,note_on,0,0,2,,,,,,,,,2,,,72,78
2640,control_change,1200,0,2,,,,,,,64,0,2,,,,
2640,control_change,1200,0,3,,,,,,,64,0,3,,,,
2640,control_change,1200,0,5,,,,,,,64,0,5,,,,
2640,note_on,0,0,1,,,,,,,,,1,,,76,78
2640,set_tempo,1200,1,0,,,,,,495867,,,,,,,
2640,control_change,1200,0,4,,,,,,,64,0,4,,,,
2640,note_on,0,0,1,,,,,,,,,1,,,64,78
2760,set_tempo,120,1,0,,,,,,500000,,,,,,,
2832,note_off,192,0,5,,,,,,,,,5,,,45,0
2832,note_off,0,0,5,,,,,,,,,5,,,33,0
2832,note_off,192,0,2,,,,,,,,,2,,,72,0
2832,note_off,0,0,1,,,,,,,,,1,,,76,0
2832,note_off,192,0,1,,,,,,,,,1,,,64,0
2880,note_on,48,0,1,,,,,,,,,1,,,64,87
2880,note_on,0,0,1,,,,,,,,,1,,,76,87
2880,note_on,48,0,2,,,,,,,,,2,,,72,87
2880,note_on,48,0,5,,,,,,,,,5,,,33,87
2880,set_tempo,120,1,0,,,,,,495867,,,,,,,
2880,note_on,0,0,5,,,,,,,,,5,,,45,87
3240,note_off,360,0,1,,,,,,,,,1,,,76,0
3240,note_off,0,0,1,,,,,,,,,1,,,64,0
3240,note_on,0,0,1,,,,,,,,,1,,,62,81
3240,note_on,0,0,1,,,,,,,,,1,,,74,81
3240,note_off,0,0,5,,,,,,,,,5,,,33,0
3240,note_off,360,0,2,,,,,,,,,2,,,72,0
3240,note_off,360,0,5,,,,,,,,,5,,,45,0
3240,note_on,0,0,2,,,,,,,,,2,,,71,81
3336,note_off,96,0,1,,,,,,,,,1,,,74,0
3336,note_off,0,0,1,,,,,,,,,1,,,62,0
3336,note_off,96,0,2,,,,,,,,,2,,,71,0
3360,note_on,24,0,1,,,,,,,,,1,,,60,82
3360,note_on,24,0,2,,,,,,,,,2,,,69,82
3360,note_on,0,0,1,,,,,,,,,1,,,72,82
3552,note_off,0,0,1,,,,,,,,,1,,,60,0
3552,note_off,192,0,1,,,,,,,,,1,,,72,0
3552,note_off,192,0,2,,,,,,,,,2,,,69,0
3600,note_on,0,0,5,,,,,,,,,5,,,45,91
3600,note_on,0,0,1,,,,,,,,,1,,,72,91
3600,note_on,48,0,2,,,,,,,,,2,,,64,91
3600,note_on,360,0,5,,,,,,,,,5,,,57,91
3600,note_on,48,0,1,,,,,,,,,1,,,60,91
3960,note_off,360,0,1,,,,,,,,,1,,,72,0
3960,note_off,0,0,1,,,,,,,,,1,,,60,0
3960,note_on,0,0,1,,,,,,,,,1,,,59,85
3960,note_off,360,0,2,,,,,,,,,2,,,64,0
3960,note_on,0,0,2,,,,,,,,,2,,,62,85
3960,note_off,360,0,5,,,,,,,,,5,,,45,0
3960,note_off,0,0,5,,,,,,,,,5,,,57,0
3960,note_on,0,0,1,,,,,,,,,1,,,71,85
4056,note_off,96,0,2,,,,,,,,,2,,,62,0
4056,note_off,96,0,1,,,,,,,,,1,,,71,0
4056,note_off,0,0,1,,,,,,,,,1,,,59,0
4080,note_on,24,0,2,,,,,,,,,2,,,60,86
4080,note_on,24,0,1,,,,,,,,,1,,,57,86
4080,note_on,0,0,1,,,,,,,,,1,,,69,86
4200,set_tempo,1320,1,0,,,,,,500000,,,,,,,
4272,note_off,192,0,1,,,,,,,,,1,,,69,0
4272,note_off,0,0,1,,,,,,,,,1,,,57,0
4272,note_off,192,0,2,,,,,,,,,2,,,60,0
4320,set_tempo,120,1,0,,,,,,495867,,,,,,,
4320,note_on,48,0,1,,,,,,,,,1,,,56,101
4320,note_on,0,0,1,,,,,,,,,1,,,68,101
4320,note_on,360,0,5,,,,,,,,,5,,,52,101
4320,note_on,48,0,2,,,,,,,,,2,,,64,101
4800,note_on,2160,0,4,,,,,,,,,4,,,54,60
4800,note_off,480,0,5,,,,,,,,,5,,,52,0
4800,note_on,0,0,5,,,,,,,,,5,,,52,60
4800,note_off,480,0,1,,,,,,,,,1,,,68,0
4800,note_off,0,0,1,,,,,,,,,1,,,56,0
4800,note_on,0,0,1,,,,,,,,,1,,,57,60
4800,note_on,0,0,1,,,,,,,,,1,,,69,60
4800,note_off,480,0,2,,,,,,,,,2,,,64,0
4800,note_on,0,0,2,,,,,,,,,2,,,66,60
4992,note_off,192,0,2,,,,,,,,,2,,,66,0
4992,note_off,0,0,1,,,,,,,,,1,,,57,0
4992,note_off,192,0,1,,,,,,,,,1,,,69,0
4992,note_off,192,0,5,,,,,,,,,5,,,52,0
4992,note_off,192,0,4,,,,,,,,,4,,,54,0
5040,note_on,0,0,1,,,,,,,,,1,,,71,70
5040,note_on,48,0,1,,,,,,,,,1,,,59,70
5040,note_on,48,0,2,,,,,,,,,2,,,68,70
5040,note_on,48,0,5,,,,,,,,,5,,,52,70
5040,note_on,48,0,4,,,,,,,,,4,,,56,70
5400,note_off,360,0,1,,,,,,,,,1,,,71,0
5400,note_off,360,0,4,,,,,,,,,4,,,56,0
5400,note_off,0,0,1,,,,,,,,,1,,,59,0
5400,note_off,360,0,5,,,,,,,,,5,,,52,0
5400,note_off,360,0,2,,,,,,,,,2,,,68,0
5520,note_on,120,0,4,,,,,,,,,4,,,57,74
5520,note_on,120,0,1,,,,,,,,,1,,,60,74
5520,note_on,120,0,2,,,,,,,,,2,,,69,74
5520,note_on,120,0,5,,,,,,,,,5,,,52,74
5520,note_on,0,0,1,,,,,,,,,1,,,72,74
5712,note_off,192,0,5,,,,,,,,,5,,,52,0
5712,note_off,0,0,1,,,,,,,,,1,,,60,0
5712,note_off,192,0,4,,,,,,,,,4,,,57,0
5712,note_off,192,0,1,,,,,,,,,1,,,72,0
5712,note_off,192,0,2,,,,,,,,,2,,,69,0
5760,note_on,48,0,5,,,,,,,,,5,,,52,84
5760,note_on,48,0,4,,,,,,,,,4,,,59,84
5760,note_on,48,0,2,,,,,,,,,2,,,71,84
5760,note_on,48,0,1,,,,,,,,,1,,,62,84
5760,note_on,0,0,1,,,,,,,,,1,,,74,84
6240,note_on,0,0,4,,,,,,,,,4,,,60,97
6240,note_off,480,0,4,,,,,,,,,4,,,59,0
6240,note_on,0,0,2,,,,,,,,,2,,,72,97
6240,note_off,480,0,2,,,,,,,,,2,,,71,0
6240,set_tempo,1920,1,0,,,,,,508474,,,,,,,
6240,note_off,480,0,1,,,,,,,,,1,,,74,0
6240,note_off,0,0,1,,,,,,,,,1,,,62,0
6240,note_on,0,0,1,,,,,,,,,1,,,64,97
6240,note_on,0,0,1,,,,,,,,,1,,,76,97
6240,note_off,480,0,5,,,,,,,,,5,,,52,0
6240,note_on,0,0,5,,,,,,,,,5,,,52,97
6432,note_off,192,0,4,,,,,,,,,4,,,60,0
6432,note_off,192,0,2,,,,,,,,,2,,,72,0
6432,note_off,192,0,5,,,,,,,,,5,,,52,0
6432,note_off,192,0,1,,,,,,,,,1,,,76,0
6432,note_off,0,0,1,,,,,,,,,1,,,64,0
6480,note_on,48,0,5,,,,,,,,,5,,,52,114
6480,note_on,48,0,1,,,,,,,,,1,,,65,114
6480,note_on,0,0,1,,,,,,,,,1,,,77,114
6480,note_on,48,0,2,,,,,,,,,2,,,74,114
6480,note_on,48,0,4,,,,,,,,,4,,,62,114
6600,set_tempo,360,1,0,,,,,,517241,,,,,,,
7200,control_change,4560,0,3,,,,,,,64,127,3,,,,
7200,control_change,720,0,5,,,,,,,64,127,5,,,,
7200,control_change,720,0,2,,,,,,,64,127,2,,,,
7200,control_change,720,0,4,,,,,,,64,127,4,,,,
7200,note_off,0,0,2,,,,,,,,,2,,,74,0
7200,note_off,0,0,4,,,,,,,,,4,,,62,0
7200,note_off,0,0,1,,,,,,,,,1,,,65,0
7200,control_change,720,0,1,,,,,,,64,127,1,,,,
7200,note_off,0,0,5,,,,,,,,,5,,,52,0
7200,set_tempo,600,1,0,,,,,,495867,,,,,,,
7200,note_on,0,0,5,,,,,,,,,5,,,52,88
7296,note_off,96,0,1,,,,,,,,,1,,,77,0
7320,note_on,24,0,1,,,,,,,,,1,,,83,87
7416,note_off,96,0,1,,,,,,,,,1,,,83,0
7440,note_on,24,0,1,,,,,,,,,1,,,80,87
7440,note_on,0,0,3,,,,,,,,,3,,,62,87
7440,note_on,240,0,3,,,,,,,,,3,,,65,87
7440,note_off,240,0,5,,,,,,,,,5,,,52,0
7536,note_off,96,0,1,,,,,,,,,1,,,80,0
7560,note_on,24,0,1,,,,,,,,,1,,,86,86
7656,note_off,96,0,1,,,,,,,,,1,,,86,0
7680,control_change,240,0,3,,,,,,,64,0,3,,,,
7680,control_change,480,0,2,,,,,,,64,0,2,,,,
7680,note_off,0,0,3,,,,,,,,,3,,,65,0
7680,note_on,0,0,3,,,,,,,,,3,,,62,86
7680,control_change,480,0,4,,,,,,,64,0,4,,,,
7680,note_on,0,0,3,,,,,,,,,3,,,65,86
7680,control_change,240,0,5,,,,,,,64,0,5,,,,
7680,control_change,24,0,1,,,,,,,64,0,1,,,,
7680,note_on,0,0,1,,,,,,,,,1,,,83,86
7680,note_off,0,0,3,,,,,,,,,3,,,62,0
7776,note_off,96,0,1,,,,,,,,,1,,,83,0
7800,note_on,24,0,1,,,,,,,,,1,,,89,85
7896,note_off,96,0,1,,,,,,,,,1,,,89,0
7920,control_change,24,0,1,,,,,,,64,127,1,,,,
7920,note_on,0,0,1,,,,,,,,,1,,,86,84
7920,note_off,0,0,3,,,,,,,,,3,,,62,0
7920,note_off,0,0,3,,,,,,,,,3,,,65,0
7920,control_change,240,0,3,,,,,,,64,127,3,,,,
7920,control_change,240,0,5,,,,,,,64,127,5,,,,
7920,control_change,240,0,4,,,,,,,64,127,4,,,,
7920,control_change,240,0,2,,,,,,,64,127,2,,,,
7920,note_on,0,0,5,,,,,,,,,5,,,52,84
8016,note_off,96,0,1,,,,,,,,,1,,,86,0
8040,note_on,24,0,1,,,,,,,,,1,,,83,84
8136,note_off,96,0,1,,,,,,,,,1,,,83,0
8160,note_off,240,0,5,,,,,,,,,5,,,52,0
8160,note_on,24,0,1,,,,,,,,,1,,,80,83
8160,note_on,0,0,3,,,,,,,,,3,,,62,83
8160,note_on,240,0,3,,,,,,,,,3,,,65,83
8256,note_off,96,0,1,,,,,,,,,1,,,80,0
8280,note_on,24,0,1,,,,,,,,,1,,,77,83
8376,note_off,96,0,1,,,,,,,,,1,,,77,0
8400,control_change,240,0,5,,,,,,,64,0,5,,,,
8400,control_change,240,0,3,,,,,,,64,0,3,,,,
8400,note_off,0,0,3,,,,,,,,,3,,,62,0
8400,note_off,0,0,3,,,,,,,,,3,,,65,0
8400,note_on,0,0,3,,,,,,,,,3,,,62,82
8400,note_on,0,0,3,,,,,,,,,3,,,65,82
8400,control_change,480,0,4,,,,,,,64,0,4,,,,
8400,control_change,480,0,2,,,,,,,64,0,2,,,,
8400,control_change,24,0,1,,,,,,,64,0,1,,,,
8400,note_on,0,0,1,,,,,,,,,1,,,83,82
8496,note_off,96,0,1,,,,,,,,,1,,,83,0
8520,note_on,24,0,1,,,,,,,,,1,,,80,82
8616,note_off,96,0,1,,,,,,,,,1,,,80,0
8640,control_change,240,0,2,,,,,,,64,127,2,,,,
8640,control_change,240,0,5,,,,,,,64,127,5,,,,
8640,note_on,0,0,5,,,,,,,,,5,,,52,81
8640,note_off,0,0,3,,,,,,,,,3,,,62,0
8640,note_off,0,0,3,,,,,,,,,3,,,65,0
8640,control_change,240,0,4,,,,,,,64,127,4,,,,
8640,control_change,24,0,1,,,,,,,64,127,1,,,,
8640,note_on,0,0,1,,,,,,,,,1,,,77,81
8640,control_change,240,0,3,,,,,,,64,127,3,,,,
8736,note_off,96,0,1,,,,,,,,,1,,,77,0
8760,note_on,24,0,1,,,,,,,,,1,,,74,80
8856,note_off,96,0,1,,,,,,,,,1,,,74,0
8880,note_off,240,0,5,,,,,,,,,5,,,52,0
8880,note_on,24,0,1,,,,,,,,,1,,,80,80
8880,note_on,0,0,3,,,,,,,,,3,,,62,80
8880,note_on,240,0,3,,,,,,,,,3,,,65,80
8976,note_off,96,0,1,,,,,,,,,1,,,80,0
9000,note_on,24,0,1,,,,,,,,,1,,,77,79
9096,note_off,96,0,1,,,,,,,,,1,,,77,0
9120,control_change,24,0,1,,,,,,,64,0,1,,,,
9120,note_on,0,0,1,,,,,,,,,1,,,74,79
9120,control_change,240,0,5,,,,,,,64,0,5,,,,
9120,note_on,0,0,3,,,,,,,,,3,,,62,79
9120,note_on,0,0,3,,,,,,,,,3,,,65,79
9120,note_off,0,0,3,,,,,,,,,3,,,65,0
9120,note_off,0,0,3,,,,,,,,,3,,,62,0
9120,control_change,240,0,3,,,,,,,64,0,3,,,,
9120,control_change,480,0,4,,,,,,,64,0,4,,,,
9120,control_change,480,0,2,,,,,,,64,0,2,,,,
9216,note_off,96,0,1,,,,,,,,,1,,,74,0
9240,note_on,24,0,1,,,,,,,,,1,,,71,78
9336,note_off,96,0,1,,,,,,,,,1,,,71,0
9360,note_on,24,0,1,,,,,,,,,1,,,77,78
9360,note_off,0,0,3,,,,,,,,,3,,,65,0
9360,note_off,240,0,3,,,,,,,,,3,,,62,0
9360,note_on,240,0,5,,,,,,,,,5,,,52,78
9456,note_off,96,0,1,,,,,,,,,1,,,77,0
9480,note_on,24,0,1,,,,,,,,,1,,,74,77
9576,note_off,96,0,1,,,,,,,,,1,,,74,0
9600,note_on,24,0,1,,,,,,,,,1,,,71,76
9600,note_off,240,0,5,,,,,,,,,5,,,52,0
9600,note_on,240,0,3,,,,,,,,,3,,,62,76
9600,note_on,0,0,3,,,,,,,,,3,,,64,76
9696,note_off,96,0,1,,,,,,,,,1,,,71,0
9720,note_on,24,0,1,,,,,,,,,1,,,68,76
9816,note_off,96,0,1,,,,,,,,,1,,,68,0
9840,note_off,240,0,3,,,,,,,,,3,,,64,0
9840,note_on,240,0,5,,,,,,,,,5,,,33,79
9840,note_on,0,0,5,,,,,,,,,5,,,45,79
9840,note_on,24,0,1,,,,,,,,,1,,,76,79
9840,note_off,0,0,3,,,,,,,,,3,,,62,0
9840,note_on,0,0,1,,,,,,,,,1,,,64,79
9840,note_on,720,0,2,,,,,,,,,2,,,72,79
9960,set_tempo,2760,1,0,,,,,,500000,,,,,,,
10032,note_off,192,0,2,,,,,,,,,2,,,72,0
10032,note_off,192,0,5,,,,,,,,,5,,,45,0
10032,note_off,0,0,5,,,,,,,,,5,,,33,0
10032,note_off,192,0,1,,,,,,,,,1,,,64,0
10032,note_off,0,0,1,,,,,,,,,1,,,76,0
10080,note_on,0,0,5,,,,,,,,,5,,,33,88
10080,note_on,48,0,5,,,,,,,,,5,,,45,88
10080,set_tempo,120,1,0,,,,,,495867,,,,,,,
10080,note_on,0,0,1,,,,,,,,,1,,,64,88
10080,note_on,48,0,2,,,,,,,,,2,,,72,88
10080,note_on,48,0,1,,,,,,,,,1,,,76,88
10440,note_off,360,0,5,,,,,,,,,5,,,33,0
10440,note_on,0,0,1,,,,,,,,,1,,,74,80
10440,note_on,0,0,2,,,,,,,,,2,,,71,80
10440,note_off,360,0,2,,,,,,,,,2,,,72,0
10440,note_off,360,0,1,,,,,,,,,1,,,64,0
10440,note_on,0,0,1,,,,,,,,,1,,,62,80
10440,note_off,0,0,1,,,,,,,,,1,,,76,0
10440,note_off,0,0,5,,,,,,,,,5,,,45,0
10536,note_off,96,0,1,,,,,,,,,1,,,74,0
10536,note_off,96,0,2,,,,,,,,,2,,,71,0
10536,note_off,0,0,1,,,,,,,,,1,,,62,0
10560,note_on,24,0,1,,,,,,,,,1,,,72,81
10560,note_on,0,0,1,,,,,,,,,1,,,60,81
10560,note_on,24,0,2,,,,,,,,,2,,,69,81
10752,note_off,192,0,1,,,,,,,,,1,,,60,0
10752,note_off,0,0,1,,,,,,,,,1,,,72,0
10752,note_off,192,0,2,,,,,,,,,2,,,69,0
10800,note_on,0,0,5,,,,,,,,,5,,,45,92
10800,note_on,48,0,2,,,,,,,,,2,,,64,92
10800,note_on,360,0,5,,,,,,,,,5,,,57,92
10800,note_on,0,0,1,,,,,,,,,1,,,60,92
10800,note_on,48,0,1,,,,,,,,,1,,,72,92
11160,note_off,360,0,5,,,,,,,,,5,,,45,0
11160,note_off,0,0,1,,,,,,,,,1,,,72,0
11160,note_on,0,0,1,,,,,,,,,1,,,59,86
11160,note_off,360,0,2,,,,,,,,,2,,,64,0
11160,note_on,0,0,2,,,,,,,,,2,,,62,86
11160,note_off,360,0,1,,,,,,,,,1,,,60,0
11160,note_off,0,0,5,,,,,,,,,5,,,57,0
11160,note_on,0,0,1,,,,,,,,,1,,,71,86
11256,note_off,0,0,1,,,,,,,,,1,,,71,0
11256,note_off,96,0,1,,,,,,,,,1,,,59,0
11256,note_off,96,0,2,,,,,,,,,2,,,62,0
11280,note_on,24,0,1,,,,,,,,,1,,,57,87
11280,note_on,24,0,2,,,,,,,,,2,,,60,87
11280,note_on,0,0,1,,,,,,,,,1,,,69,87
11400,set_tempo,1320,1,0,,,,,,500000,,,,,,,
11472,note_off,0,0,1,,,,,,,,,1,,,57,0
11472,note_off,192,0,1,,,,,,,,,1,,,69,0
11472,note_off,192,0,2,,,,,,,,,2,,,60,0
11520,note_on,48,0,1,,,,,,,,,1,,,68,105
11520,note_on,0,0,1,,,,,,,,,1,,,56,105
11520,note_on,360,0,5,,,,,,,,,5,,,52,105
11520,note_on,48,0,2,,,,,,,,,2,,,64,105
11520,set_tempo,120,1,0,,,,,,495867,,,,,,,
12000,note_off,480,0,1,,,,,,,,,1,,,56,0
12000,note_on,0,0,1,,,,,,,,,1,,,57,67
12000,note_off,480,0,2,,,,,,,,,2,,,64,0
12000,note_on,0,0,1,,,,,,,,,1,,,69,67
12000,note_on,0,0,5,,,,,,,,,5,,,52,67
12000,note_off,480,0,5,,,,,,,,,5,,,52,0
12000,note_off,0,0,1,,,,,,,,,1,,,68,0
12000,note_on,0,0,2,,,,,,,,,2,,,66,67
12000,note_on,0,0,2,,,,,,,,,2,,,54,67
12192,note_off,0,0,1,,,,,,,,,1,,,69,0
12192,note_off,192,0,2,,,,,,,,,2,,,66,0
12192,note_off,0,0,2,,,,,,,,,2,,,54,0
12192,note_off,192,0,1,,,,,,,,,1,,,57,0
12192,note_off,192,0,5,,,,,,,,,5,,,52,0
12240,note_on,48,0,5,,,,,,,,,5,,,52,76
12240,note_on,48,0,1,,,,,,,,,1,,,71,76
12240,note_on,0,0,2,,,,,,,,,2,,,68,76
12240,note_on,48,0,2,,,,,,,,,2,,,56,76
12240,note_on,0,0,1,,,,,,,,,1,,,59,76
12600,note_off,360,0,2,,,,,,,,,2,,,68,0
12600,note_off,360,0,1,,,,,,,,,1,,,59,0
12600,note_off,360,0,5,,,,,,,,,5,,,52,0
12600,note_off,0,0,1,,,,,,,,,1,,,71,0
12600,note_off,0,0,2,,,,,,,,,2,,,56,0
12720,note_on,0,0,1,,,,,,,,,1,,,60,78
12720,note_on,120,0,1,,,,,,,,,1,,,72,78
12720,note_on,120,0,5,,,,,,,,,5,,,52,78
12720,note_on,120,0,2,,,,,,,,,2,,,57,78
12720,note_on,0,0,2,,,,,,,,,2,,,69,78
12912,note_off,192,0,5,,,,,,,,,5,,,52,0
12912,note_off,0,0,2,,,,,,,,,2,,,57,0
12912,note_off,192,0,2,,,,,,,,,2,,,69,0
12912,note_off,192,0,1,,,,,,,,,1,,,60,0
12912,note_off,0,0,1,,,,,,,,,1,,,72,0
12960,note_on,0,0,2,,,,,,,,,2,,,59,86
12960,note_on,48,0,2,,,,,,,,,2,,,71,86
12960,note_on,48,0,1,,,,,,,,,1,,,62,86
12960,note_on,0,0,1,,,,,,,,,1,,,74,86
12960,note_on,48,0,5,,,,,,,,,5,,,52,86
13440,note_on,0,0,5,,,,,,,,,5,,,52,97
13440,note_on,0,0,1,,,,,,,,,1,,,76,97
13440,note_off,0,0,2,,,,,,,,,2,,,71,0
13440,note_on,0,0,2,,,,,,,,,2,,,60,97
13440,note_on,0,0,2,,,,,,,,,2,,,72,97
13440,note_off,480,0,5,,,,,,,,,5,,,52,0
13440,set_tempo,1920,1,0,,,,,,508474,,,,,,,
13440,note_off,480,0,1,,,,,,,,,1,,,74,0
13440,note_off,0,0,1,,,,,,,,,1,,,62,0
13440,note_on,0,0,1,,,,,,,,,1,,,64,97
13440,note_off,480,0,2,,,,,,,,,2,,,59,0
13632,note_off,192,0,5,,,,,,,,,5,,,52,0
13632,note_off,192,0,2,,,,,,,,,2,,,72,0
13632,note_off,0,0,2,,,,,,,,,2,,,60,0
13632,note_off,192,0,1,,,,,,,,,1,,,64,0
13632,note_off,0,0,1,,,,,,,,,1,,,76,0
13680,note_on,48,0,5,,,,,,,,,5,,,52,111
13680,note_on,48,0,2,,,,,,,,,2,,,74,111
13680,note_on,0,0,2,,,,,,,,,2,,,62,111
13680,note_on,48,0,1,,,,,,,,,1,,,65,111
13680,note_on,0,0,1,,,,,,,,,1,,,77,111
13800,set_tempo,360,1,0,,,,,,517241,,,,,,,
14160,note_on,0,0,5,,,,,,,,,5,,,54,104
14160,note_off,480,0,5,,,,,,,,,5,,,52,0
14160,note_on,5040,0,4,,,,,,,,,4,,,66,104
14400,note_off,0,0,2,,,,,,,,,2,,,62,0
14400,note_off,0,0,1,,,,,,,,,1,,,65,0
14400,set_tempo,600,1,0,,,,,,495867,,,,,,,
14400,control_change,720,0,2,,,,,,,64,127,2,,,,
14400,control_change,720,0,1,,,,,,,64,127,1,,,,
14400,control_change,4560,0,3,,,,,,,64,127,3,,,,
14400,note_on,0,0,5,,,,,,,,,5,,,55,94
14400,control_change,240,0,4,,,,,,,64,127,4,,,,
14400,note_off,0,0,5,,,,,,,,,5,,,54,0
14400,control_change,240,0,5,,,,,,,64,127,5,,,,
14400,note_off,0,0,4,,,,,,,,,4,,,66,0
14400,note_on,0,0,4,,,,,,,,,4,,,67,94
14496,note_off,96,0,1,,,,,,,,,1,,,77,0
14496,note_off,96,0,2,,,,,,,,,2,,,74,0
14520,note_on,24,0,1,,,,,,,,,1,,,83,93
14592,note_off,192,0,5,,,,,,,,,5,,,55,0
14592,note_off,192,0,4,,,,,,,,,4,,,67,0
14616,note_off,96,0,1,,,,,,,,,1,,,83,0
14640,note_on,24,0,1,,,,,,,,,1,,,80,92
14640,note_on,0,0,3,,,,,,,,,3,,,68,92
14640,note_on,0,0,3,,,,,,,,,3,,,62,92
14640,note_on,240,0,3,,,,,,,,,3,,,65,92
14736,note_off,96,0,1,,,,,,,,,1,,,80,0
14760,note_on,24,0,1,,,,,,,,,1,,,86,91
14832,note_off,192,0,3,,,,,,,,,3,,,68,0
14832,note_off,0,0,3,,,,,,,,,3,,,62,0
14832,note_off,0,0,3,,,,,,,,,3,,,65,0
14856,note_off,96,0,1,,,,,,,,,1,,,86,0
14880,note_on,0,0,3,,,,,,,,,3,,,68,91
14880,note_on,0,0,1,,,,,,,,,1,,,83,91
14880,control_change,24,0,1,,,,,,,64,0,1,,,,
14880,control_change,384,0,2,,,,,,,64,0,2,,,,
14880,note_on,0,0,3,,,,,,,,,3,,,62,91
14880,note_on,0,0,3,,,,,,,,,3,,,65,91
14880,control_change,288,0,5,,,,,,,64,0,5,,,,
14880,control_change,48,0,3,,,,,,,64,0,3,,,,
14880,control_change,288,0,4,,,,,,,64,0,4,,,,
14976,note_off,96,0,1,,,,,,,,,1,,,83,0
15000,note_on,24,0,1,,,,,,,,,1,,,89,90
15072,note_off,0,0,3,,,,,,,,,3,,,62,0
15072,note_off,0,0,3,,,,,,,,,3,,,65,0
15072,note_off,192,0,3,,,,,,,,,3,,,68,0
15096,note_off,96,0,1,,,,,,,,,1,,,89,0
15120,control_change,240,0,5,,,,,,,64,127,5,,,,
15120,note_on,0,0,5,,,,,,,,,5,,,55,89
15120,control_change,240,0,2,,,,,,,64,127,2,,,,
15120,control_change,48,0,3,,,,,,,64,127,3,,,,
15120,note_on,0,0,1,,,,,,,,,1,,,86,89
15120,control_change,24,0,1,,,,,,,64,127,1,,,,
15120,control_change,240,0,4,,,,,,,64,127,4,,,,
15216,note_off,96,0,1,,,,,,,,,1,,,86,0
15240,note_on,24,0,1,,,,,,,,,1,,,83,88
15312,note_off,192,0,5,,,,,,,,,5,,,55,0
15336,note_off,96,0,1,,,,,,,,,1,,,83,0
15360,note_on,24,0,1,,,,,,,,,1,,,80,87
15360,note_on,0,0,3,,,,,,,,,3,,,62,87
15360,note_on,240,0,3,,,,,,,,,3,,,65,87
15360,note_on,0,0,3,,,,,,,,,3,,,68,87
15456,note_off,96,0,1,,,,,,,,,1,,,80,0
15480,note_on,24,0,1,,,,,,,,,1,,,77,86
15552,note_off,192,0,3,,,,,,,,,3,,,62,0
15552,note_off,0,0,3,,,,,,,,,3,,,68,0
15552,note_off,0,0,3,,,,,,,,,3,,,65,0
15576,note_off,96,0,1,,,,,,,,,1,,,77,0
15600,note_on,0,0,1,,,,,,,,,1,,,86,85
15600,control_change,24,0,1,,,,,,,64,0,1,,,,
15600,control_change,480,0,4,,,,,,,64,0,4,,,,
15600,control_change,288,0,5,,,,,,,64,0,5,,,,
15600,control_change,48,0,3,,,,,,,64,0,3,,,,
15600,note_on,0,0,3,,,,,,,,,3,,,65,85
15600,note_on,0,0,3,,,,,,,,,3,,,68,85
15600,note_on,0,0,3,,,,,,,,,3,,,62,85
15600,control_change,480,0,2,,,,,,,64,0,2,,,,
15696,note_off,96,0,1,,,,,,,,,1,,,86,0
15720,note_on,24,0,1,,,,,,,,,1,,,83,84
15792,note_off,192,0,3,,,,,,,,,3,,,62,0
15792,note_off,0,0,3,,,,,,,,,3,,,68,0
15792,note_off,0,0,3,,,,,,,,,3,,,65,0
15816,note_off,96,0,1,,,,,,,,,1,,,83,0
15840,note_on,0,0,5,,,,,,,,,5,,,55,84
15840,control_change,48,0,3,,,,,,,64,127,3,,,,
15840,control_change,240,0,2,,,,,,,64,127,2,,,,
15840,control_change,240,0,5,,,,,,,64,127,5,,,,
15840,control_change,24,0,1,,,,,,,64,127,1,,,,
15840,note_on,0,0,1,,,,,,,,,1,,,80,84
15840,control_change,240,0,4,,,,,,,64,127,4,,,,
15936,note_off,96,0,1,,,,,,,,,1,,,80,0
15960,note_on,24,0,1,,,,,,,,,1,,,77,83
16032,note_off,192,0,5,,,,,,,,,5,,,55,0
16056,note_off,96,0,1,,,,,,,,,1,,,77,0
16080,note_on,0,0,3,,,,,,,,,3,,,68,82
16080,note_on,0,0,3,,,,,,,,,3,,,62,82
16080,note_on,240,0,3,,,,,,,,,3,,,65,82
16080,note_on,24,0,1,,,,,,,,,1,,,83,82
16176,note_off,96,0,1,,,,,,,,,1,,,83,0
16200,note_on,24,0,1,,,,,,,,,1,,,80,81
16272,note_off,192,0,3,,,,,,,,,3,,,62,0
16272,note_off,0,0,3,,,,,,,,,3,,,68,0
16272,note_off,0,0,3,,,,,,,,,3,,,65,0
16296,note_off,96,0,1,,,,,,,,,1,,,80,0
16320,note_on,0,0,3,,,,,,,,,3,,,65,80
16320,control_change,288,0,5,,,,,,,64,0,5,,,,
16320,control_change,48,0,3,,,,,,,64,0,3,,,,
16320,note_on,0,0,3,,,,,,,,,3,,,68,80
16320,note_on,0,0,3,,,,,,,,,3,,,62,80
16320,control_change,24,0,1,,,,,,,64,0,1,,,,
16320,note_on,0,0,1,,,,,,,,,1,,,77,80
16320,control_change,480,0,4,,,,,,,64,0,4,,,,
16320,control_change,480,0,2,,,,,,,64,0,2,,,,
16416,note_off,96,0,1,,,,,,,,,1,,,77,0
16440,note_on,24,0,1,,,,,,,,,1,,,74,79
16512,note_off,0,0,3,,,,,,,,,3,,,65,0
16512,note_off,0,0,3,,,,,,,,,3,,,68,0
16512,note_off,192,0,3,,,,,,,,,3,,,62,0
16536,note_off,96,0,1,,,,,,,,,1,,,74,0
16560,note_on,240,0,5,,,,,,,,,5,,,55,78
16560,note_on,24,0,1,,,,,,,,,1,,,80,78
16656,note_off,96,0,1,,,,,,,,,1,,,80,0
16680,note_on,24,0,1,,,,,,,,,1,,,77,78
16752,note_off,192,0,5,,,,,,,,,5,,,55,0
16776,note_off,96,0,1,,,,,,,,,1,,,77,0
16800,note_on,0,0,3,,,,,,,,,3,,,67,77
16800,note_on,24,0,1,,,,,,,,,1,,,74,77
16800,note_on,0,0,3,,,,,,,,,3,,,62,77
16800,note_on,288,0,3,,,,,,,,,3,,,65,77
16896,note_off,96,0,1,,,,,,,,,1,,,74,0
16920,note_on,24,0,1,,,,,,,,,1,,,71,78
16992,note_off,192,0,3,,,,,,,,,3,,,62,0
16992,note_off,0,0,3,,,,,,,,,3,,,67,0
16992,note_off,0,0,3,,,,,,,,,3,,,65,0
17016,note_off,96,0,1,,,,,,,,,1,,,71,0
17040,note_on,0,0,5,,,,,,,,,5,,,48,78
17040,note_on,0,0,1,,,,,,,,,1,,,79,78
17040,note_on,24,0,1,,,,,,,,,1,,,67,78
17040,note_on,720,0,2,,,,,,,,,2,,,76,78
17040,note_on,288,0,5,,,,,,,,,5,,,36,78
17160,set_tempo,2760,1,0,,,,,,500000,,,,,,,
17232,note_off,192,0,5,,,,,,,,,5,,,48,0
17232,note_off,0,0,1,,,,,,,,,1,,,67,0
17232,note_off,192,0,1,,,,,,,,,1,,,79,0
17232,note_off,0,0,5,,,,,,,,,5,,,36,0
17232,note_off,192,0,2,,,,,,,,,2,,,76,0
17280,set_tempo,120,1,0,,,,,,495867,,,,,,,
17280,note_on,48,0,1,,,,,,,,,1,,,67,88
17280,note_on,0,0,1,,,,,,,,,1,,,79,88
17280,note_on,48,0,2,,,,,,,,,2,,,76,88
17280,note_on,0,0,5,,,,,,,,,5,,,48,88
17280,note_on,48,0,5,,,,,,,,,5,,,36,88
17568,note_off,288,0,5,,,,,,,,,5,,,48,0
17568,note_off,0,0,5,,,,,,,,,5,,,36,0
17640,note_off,360,0,2,,,,,,,,,2,,,76,0
17640,note_on,0,0,2,,,,,,,,,2,,,74,83
17640,note_on,0,0,1,,,,,,,,,1,,,77,83
17640,note_off,360,0,1,,,,,,,,,1,,,79,0
17640,note_off,0,0,1,,,,,,,,,1,,,67,0
17640,note_on,0,0,1,,,,,,,,,1,,,65,83
17736,note_off,96,0,2,,,,,,,,,2,,,74,0
17736,note_off,96,0,1,,,,,,,,,1,,,77,0
17736,note_off,0,0,1,,,,,,,,,1,,,65,0
17760,note_on,192,0,5,,,,,,,,,5,,,48,84
17760,note_on,24,0,2,,,,,,,,,2,,,72,84
17760,note_on,0,0,1,,,,,,,,,1,,,76,84
17760,note_on,1440,0,4,,,,,,,,,4,,,60,84
17760,note_on,0,0,4,,,,,,,,,4,,,58,84
17760,note_on,24,0,1,,,,,,,,,1,,,64,84
17952,note_off,192,0,5,,,,,,,,,5,,,48,0
17952,note_off,0,0,4,,,,,,,,,4,,,60,0
17952,note_off,192,0,2,,,,,,,,,2,,,72,0
17952,note_off,192,0,1,,,,,,,,,1,,,76,0
17952,note_off,0,0,1,,,,,,,,,1,,,64,0
17952,note_off,192,0,4,,,,,,,,,4,,,58,0
18000,note_on,48,0,5,,,,,,,,,5,,,48,94
18000,note_on,48,0,2,,,,,,,,,2,,,72,94
18000,note_on,48,0,1,,,,,,,,,1,,,64,94
18000,note_on,0,0,1,,,,,,,,,1,,,76,94
18000,note_on,0,0,4,,,,,,,,,4,,,58,94
18000,note_on,48,0,4,,,,,,,,,4,,,60,94
18192,note_off,192,0,1,,,,,,,,,1,,,76,0
18192,note_off,0,0,1,,,,,,,,,1,,,64,0
18192,note_off,192,0,4,,,,,,,,,4,,,58,0
18192,note_off,0,0,4,,,,,,,,,4,,,60,0
18192,note_off,192,0,2,,,,,,,,,2,,,72,0
18192,note_off,192,0,5,,,,,,,,,5,,,48,0
18240,note_on,0,0,1,,,,,,,,,1,,,76,89
18240,note_on,48,0,1,,,,,,,,,1,,,64,89
18240,note_on,48,0,4,,,,,,,,,4,,,60,89
18240,note_on,0,0,4,,,,,,,,,4,,,58,89
18240,note_on,48,0,2,,,,,,,,,2,,,72,89
18240,note_on,48,0,5,,,,,,,,,5,,,48,89
18432,note_off,192,0,1,,,,,,,,,1,,,76,0
18432,note_off,0,0,1,,,,,,,,,1,,,64,0
18432,note_off,192,0,5,,,,,,,,,5,,,48,0
18432,note_off,192,0,4,,,,,,,,,4,,,58,0
18432,note_off,192,0,2,,,,,,,,,2,,,72,0
18432,note_off,0,0,4,,,,,,,,,4,,,60,0
18480,note_on,48,0,5,,,,,,,,,5,,,48,99
18480,note_on,0,0,4,,,,,,,,,4,,,58,99
18480,note_on,0,0,1,,,,,,,,,1,,,76,99
18480,note_on,48,0,1,,,,,,,,,1,,,64,99
18480,note_on,48,0,2,,,,,,,,,2,,,72,99
18480,note_on,48,0,4,,,,,,,,,4,,,60,99
18600,set_tempo,1320,1,0,,,,,,500000,,,,,,,
18672,note_off,0,0,4,,,,,,,,,4,,,60,0
18672,note_off,192,0,4,,,,,,,,,4,,,58,0
18672,note_off,192,0,2,,,,,,,,,2,,,72,0
18672,note_off,192,0,5,,,,,,,,,5,,,48,0
18672,note_off,0,0,1,,,,,,,,,1,,,64,0
18672,note_off,192,0,1,,,,,,,,,1,,,76,0
18720,note_on,48,0,1,,,,,,,,,1,,,65,109
18720,note_on,0,0,1,,,,,,,,,1,,,77,109
18720,set_tempo,120,1,0,,,,,,495867,,,,,,,
18720,note_on,48,0,2,,,,,,,,,2,,,72,109
18720,note_on,48,0,5,,,,,,,,,5,,,48,109
18720,note_on,48,0,4,,,,,,,,,4,,,60,109
18720,note_on,0,0,4,,,,,,,,,4,,,57,109
19200,note_off,480,0,4,,,,,,,,,4,,,57,0
19200,note_on,0,0,4,,,,,,,,,4,,,53,87
19200,note_off,480,0,1,,,,,,,,,1,,,77,0
19200,note_off,0,0,1,,,,,,,,,1,,,65,0
19200,note_on,0,0,1,,,,,,,,,1,,,69,87
19200,note_on,0,0,1,,,,,,,,,1,,,81,87
19440,note_on,0,0,4,,,,,,,,,4,,,52,76
19440,note_off,240,0,4,,,,,,,,,4,,,53,0
19440,note_on,0,0,1,,,,,,,,,1,,,67,76
19440,note_off,0,0,1,,,,,,,,,1,,,69,0
19440,note_off,240,0,1,,,,,,,,,1,,,81,0
19440,note_on,0,0,1,,,,,,,,,1,,,79,76
19800,note_off,360,0,4,,,,,,,,,4,,,52,0
19800,note_off,360,0,1,,,,,,,,,1,,,79,0
19800,note_off,1080,0,5,,,,,,,,,5,,,48,0
19800,note_off,1080,0,2,,,,,,,,,2,,,72,0
19800,note_off,0,0,1,,,,,,,,,1,,,67,0
19800,note_off,0,0,4,,,,,,,,,4,,,60,0
19920,note_on,120,0,5,,,,,,,,,5,,,60,62
19920,note_on,120,0,2,,,,,,,,,2,,,84,62
19920,note_on,0,0,4,,,,,,,,,4,,,70,62
19920,note_on,120,0,4,,,,,,,,,4,,,72,62
19920,note_on,120,0,1,,,,,,,,,1,,,76,62
19920,note_on,0,0,1,,,,,,,,,1,,,88,62
19935,set_tempo,1215,1,0,,,,,,508474,,,,,,,
20112,note_off,192,0,2,,,,,,,,,2,,,84,0
20112,note_off,192,0,4,,,,,,,,,4,,,70,0
20112,note_off,0,0,4,,,,,,,,,4,,,72,0
20112,note_off,0,0,1,,,,,,,,,1,,,76,0
20112,note_off,192,0,1,,,,,,,,,1,,,88,0
20112,note_off,192,0,5,,,,,,,,,5,,,60,0
20160,note_on,48,0,5,,,,,,,,,5,,,60,75
20160,note_on,0,0,1,,,,,,,,,1,,,89,75
20160,note_on,48,0,1,,,,,,,,,1,,,77,75
20160,note_on,0,0,4,,,,,,,,,4,,,69,75
20160,note_on,48,0,4,,,,,,,,,4,,,72,75
20160,note_on,48,0,2,,,,,,,,,2,,,84,75
20640,note_on,0,0,1,,,,,,,,,1,,,93,59
20640,note_off,480,0,1,,,,,,,,,1,,,89,0
20640,note_on,0,0,1,,,,,,,,,1,,,81,59
20640,note_on,0,0,4,,,,,,,,,4,,,65,59
20640,note_off,0,0,1,,,,,,,,,1,,,77,0
20640,note_off,480,0,4,,,,,,,,,4,,,69,0
20760,set_tempo,825,1,0,,,,,,517241,,,,,,,
20880,note_off,240,0,4,,,,,,,,,4,,,65,0
20880,note_off,0,0,1,,,,,,,,,1,,,81,0
20880,note_off,240,0,1,,,,,,,,,1,,,93,0
20880,note_on,0,0,1,,,,,,,,,1,,,79,51
20880,note_on,0,0,4,,,,,,,,,4,,,64,51
20880,note_on,0,0,1,,,,,,,,,1,,,91,51
20880,set_tempo,120,1,0,,,,,,600000,,,,,,,
21240,set_tempo,360,1,0,,,,,,1071428,,,,,,,
21240,note_off,0,0,1,,,,,,,,,1,,,79,0
21240,note_off,0,0,4,,,,,,,,,4,,,72,0
21240,note_off,360,0,4,,,,,,,,,4,,,64,0
21240,note_off,1080,0,5,,,,,,,,,5,,,60,0
21240,note_off,360,0,1,,,,,,,,,1,,,91,0
21240,note_off,1080,0,2,,,,,,,,,2,,,84,0
21360,set_tempo,120,1,0,,,,,,495867,,,,,,,
21360,note_on,120,0,4,,,,,,,,,4,,,60,46
21360,note_on,120,0,5,,,,,,,,,5,,,52,46
21360,note_on,120,0,2,,,,,,,,,2,,,67,46
21360,note_on,120,0,1,,,,,,,,,1,,,72,46
21480,note_off,120,0,1,,,,,,,,,1,,,72,0
21480,note_on,0,0,1,,,,,,,,,1,,,74,47
21552,note_off,192,0,2,,,,,,,,,2,,,67,0
21552,note_off,192,0,4,,,,,,,,,4,,,60,0
21552,note_off,192,0,5,,,,,,,,,5,,,52,0
21576,note_off,96,0,1,,,,,,,,,1,,,74,0
21600,note_on,0,0,2,,,,,,,,,2,,,72,54
21600,note_on,48,0,2,,,,,,,,,2,,,69,54
21600,note_on,48,0,5,,,,,,,,,5,,,53,54
21600,note_on,48,0,4,,,,,,,,,4,,,60,54
21600,note_on,0,0,4,,,,,,,,,4,,,62,54
21600,note_on,24,0,1,,,,,,,,,1,,,74,54
21960,note_off,360,0,4,,,,,,,,,4,,,62,0
21960,note_off,0,0,2,,,,,,,,,2,,,69,0
21960,note_off,0,0,4,,,,,,,,,4,,,60,0
21960,note_off,360,0,5,,,,,,,,,5,,,53,0
21960,note_off,360,0,1,,,,,,,,,1,,,74,0
21960,note_off,360,0,2,,,,,,,,,2,,,72,0
22080,note_on,120,0,5,,,,,,,,,5,,,53,53
22080,note_on,120,0,4,,,,,,,,,4,,,60,53
22080,note_on,120,0,2,,,,,,,,,2,,,69,53
22080,note_on,0,0,4,,,,,,,,,4,,,62,53
22080,note_on,120,0,1,,,,,,,,,1,,,74,53
22080,note_on,0,0,2,,,,,,,,,2,,,72,53
22200,note_off,120,0,1,,,,,,,,,1,,,74,0
22200,note_on,0,0,1,,,,,,,,,1,,,75,55
22272,note_off,0,0,2,,,,,,,,,2,,,69,0
22272,note_off,192,0,2,,,,,,,,,2,,,72,0
22272,note_off,192,0,5,,,,,,,,,5,,,53,0
22272,note_off,0,0,4,,,,,,,,,4,,,60,0
22272,note_off,192,0,4,,,,,,,,,4,,,62,0
22296,note_off,96,0,1,,,,,,,,,1,,,75,0
22320,note_on,0,0,2,,,,,,,,,2,,,72,63
22320,note_on,48,0,2,,,,,,,,,2,,,69,63
22320,note_on,0,0,4,,,,,,,,,4,,,63,63
22320,note_on,48,0,4,,,,,,,,,4,,,60,63
22320,note_on,48,0,5,,,,,,,,,5,,,54,63
22320,note_on,24,0,1,,,,,,,,,1,,,75,63
22680,note_off,0,0,4,,,,,,,,,4,,,60,0
22680,note_off,360,0,4,,,,,,,,,4,,,63,0
22680,note_off,360,0,5,,,,,,,,,5,,,54,0
22680,note_off,360,0,1,,,,,,,,,1,,,75,0
22680,note_off,360,0,2,,,,,,,,,2,,,72,0
22680,note_off,0,0,2,,,,,,,,,2,,,69,0
22800,note_on,0,0,2,,,,,,,,,2,,,72,61
22800,note_on,120,0,5,,,,,,,,,5,,,54,61
22800,note_on,120,0,4,,,,,,,,,4,,,60,61
22800,note_on,120,0,2,,,,,,,,,2,,,69,61
22800,note_on,120,0,1,,,,,,,,,1,,,75,61
22800,note_on,0,0,4,,,,,,,,,4,,,63,61
22920,note_off,120,0,1,,,,,,,,,1,,,75,0
22920,note_on,0,0,1,,,,,,,,,1,,,76,62
22992,note_off,192,0,2,,,,,,,,,2,,,72,0
22992,note_off,0,0,4,,,,,,,,,4,,,60,0
22992,note_off,192,0,4,,,,,,,,,4,,,63,0
22992,note_off,0,0,2,,,,,,,,,2,,,69,0
22992,note_off,192,0,5,,,,,,,,,5,,,54,0
23016,note_off,96,0,1,,,,,,,,,1,,,76,0
23040,note_on,48,0,2,,,,,,,,,2,,,67,72
23040,note_on,0,0,2,,,,,,,,,2,,,72,72
23040,note_on,48,0,5,,,,,,,,,5,,,55,72
23040,note_on,24,0,1,,,,,,,,,1,,,76,72
23040,note_on,48,0,4,,,,,,,,,4,,,64,72
23040,note_on,0,0,4,,,,,,,,,4,,,60,72
23400,note_off,360,0,4,,,,,,,,,4,,,60,0
23400,note_off,0,0,4,,,,,,,,,4,,,64,0
23400,note_off,360,0,2,,,,,,,,,2,,,72,0
23400,note_off,0,0,2,,,,,,,,,2,,,67,0
23400,note_off,360,0,5,,,,,,,,,5,,,55,0
23400,note_off,360,0,1,,,,,,,,,1,,,76,0
23520,note_on,0,0,2,,,,,,,,,2,,,72,68
23520,note_on,120,0,1,,,,,,,,,1,,,76,68
23520,note_on,120,0,2,,,,,,,,,2,,,70,68
23520,note_on,120,0,4,,,,,,,,,4,,,64,68
23520,note_on,0,0,4,,,,,,,,,4,,,60,68
23520,note_on,120,0,5,,,,,,,,,5,,,55,68
23640,note_off,120,0,1,,,,,,,,,1,,,76,0
23640,note_on,0,0,1,,,,,,,,,1,,,77,69
23712,note_off,192,0,5,,,,,,,,,5,,,55,0
23712,note_off,0,0,2,,,,,,,,,2,,,70,0
23712,note_off,192,0,4,,,,,,,,,4,,,60,0
23712,note_off,0,0,4,,,,,,,,,4,,,64,0
23712,note_off,192,0,2,,,,,,,,,2,,,72,0
23736,note_off,96,0,1,,,,,,,,,1,,,77,0
23760,note_on,0,0,4,,,,,,,,,4,,,65,80
23760,note_on,48,0,4,,,,,,,,,4,,,60,80
23760,note_on,48,0,5,,,,,,,,,5,,,56,80
23760,note_on,48,0,2,,,,,,,,,2,,,68,80
23760,note_on,0,0,2,,,,,,,,,2,,,72,80
23760,note_on,24,0,1,,,,,,,,,1,,,77,80
24120,note_off,360,0,2,,,,,,,,,2,,,72,0
24120,note_off,0,0,2,,,,,,,,,2,,,68,0
24120,note_off,360,0,4,,,,,,,,,4,,,65,0
24120,note_off,360,0,5,,,,,,,,,5,,,56,0
24120,note_off,360,0,1,,,,,,,,,1,,,77,0
24120,note_off,0,0,4,,,,,,,,,4,,,60,0
24240,note_on,0,0,2,,,,,,,,,2,,,72,97
24240,note_on,0,0,2,,,,,,,,,2,,,66,97
24240,note_on,120,0,2,,,,,,,,,2,,,75,97
24240,note_on,120,0,5,,,,,,,,,5,,,45,97
24240,note_on,120,0,1,,,,,,,,,1,,,78,97
24240,note_on,0,0,5,,,,,,,,,5,,,33,97
24360,set_tempo,3000,1,0,,,,,,500000,,,,,,,
24432,note_off,0,0,2,,,,,,,,,2,,,66,0
24432,note_off,192,0,2,,,,,,,,,2,,,72,0
24432,note_off,192,0,1,,,,,,,,,1,,,78,0
24432,note_off,0,0,2,,,,,,,,,2,,,75,0
24480,set_tempo,120,1,0,,,,,,495867,,,,,,,
24480,note_on,0,0,5,,,,,,,,,5,,,34,50
24480,note_on,0,0,5,,,,,,,,,5,,,46,50
24480,note_off,0,0,5,,,,,,,,,5,,,45,0
24480,note_on,0,0,2,,,,,,,,,2,,,67,50
24480,note_on,48,0,1,,,,,,,,,1,,,79,50
24480,note_on,48,0,2,,,,,,,,,2,,,70,50
24480,note_off,240,0,5,,,,,,,,,5,,,33,0
24672,note_off,192,0,5,,,,,,,,,5,,,34,0
24672,note_off,0,0,5,,,,,,,,,5,,,46,0
24720,note_on,0,0,3,,,,,,,,,3,,,55,41
24720,note_on,7728,0,3,,,,,,,,,3,,,58,41
24840,note_on,0,0,1,,,,,,,,,1,,,77,41
24840,note_off,360,0,1,,,,,,,,,1,,,79,0
24960,note_off,120,0,1,,,,,,,,,1,,,77,0
24960,note_on,0,0,1,,,,,,,,,1,,,75,42
24960,note_on,0,0,3,,,,,,,,,3,,,63,42
24960,note_off,240,0,3,,,,,,,,,3,,,58,0
25080,note_off,120,0,3,,,,,,,,,3,,,55,0
25140,note_off,660,0,2,,,,,,,,,2,,,67,0
25145,note_off,5,0,2,,,,,,,,,2,,,70,0
25152,note_off,72,0,3,,,,,,,,,3,,,63,0
25152,note_off,192,0,1,,,,,,,,,1,,,75,0
25200,note_on,55,0,2,,,,,,,,,2,,,70,53
25200,note_on,0,0,2,,,,,,,,,2,,,68,53
25200,note_on,528,0,5,,,,,,,,,5,,,34,53
25200,note_on,0,0,5,,,,,,,,,5,,,46,53
25200,note_on,48,0,1,,,,,,,,,1,,,75,53
25392,note_off,192,0,5,,,,,,,,,5,,,46,0
25392,note_off,0,0,5,,,,,,,,,5,,,34,0
25440,note_on,288,0,3,,,,,,,,,3,,,58,44
25440,note_on,0,0,3,,,,,,,,,3,,,56,44
25440,note_off,240,0,1,,,,,,,,,1,,,75,0
25440,note_on,0,0,1,,,,,,,,,1,,,74,44
25560,note_on,0,0,1,,,,,,,,,1,,,72,44
25560,note_off,120,0,1,,,,,,,,,1,,,74,0
25680,note_on,0,0,3,,,,,,,,,3,,,62,45
25680,note_off,240,0,3,,,,,,,,,3,,,58,0
25680,note_off,120,0,1,,,,,,,,,1,,,72,0
25680,note_on,0,0,1,,,,,,,,,1,,,70,45
25776,note_off,96,0,1,,,,,,,,,1,,,70,0
25800,note_off,120,0,3,,,,,,,,,3,,,56,0
25860,note_off,0,0,2,,,,,,,,,2,,,70,0
25860,note_off,660,0,2,,,,,,,,,2,,,68,0
25872,note_off,72,0,3,,,,,,,,,3,,,62,0
25920,note_on,528,0,5,,,,,,,,,5,,,46,60
25920,note_on,0,0,2,,,,,,,,,2,,,67,60
25920,note_on,60,0,2,,,,,,,,,2,,,70,60
25920,note_on,144,0,1,,,,,,,,,1,,,79,60
25920,note_on,0,0,5,,,,,,,,,5,,,34,60
26160,note_on,288,0,3,,,,,,,,,3,,,55,47
26160,note_off,0,0,5,,,,,,,,,5,,,46,0
26160,note_off,240,0,5,,,,,,,,,5,,,34,0
26160,note_on,0,0,3,,,,,,,,,3,,,58,47
26280,note_on,0,0,1,,,,,,,,,1,,,77,47
26280,note_off,360,0,1,,,,,,,,,1,,,79,0
26400,note_off,120,0,1,,,,,,,,,1,,,77,0
26400,note_on,0,0,1,,,,,,,,,1,,,75,48
26400,note_on,0,0,3,,,,,,,,,3,,,63,48
26400,note_off,240,0,3,,,,,,,,,3,,,58,0
26520,note_off,120,0,3,,,,,,,,,3,,,55,0
26575,note_off,655,0,2,,,,,,,,,2,,,67,0
26580,note_off,5,0,2,,,,,,,,,2,,,70,0
26592,note_off,192,0,1,,,,,,,,,1,,,75,0
26592,note_off,72,0,3,,,,,,,,,3,,,63,0
26640,note_on,48,0,1,,,,,,,,,1,,,75,49
26640,note_on,0,0,2,,,,,,,,,2,,,68,49
26640,note_on,60,0,2,,,,,,,,,2,,,70,49
26640,note_on,0,0,5,,,,,,,,,5,,,34,49
26640,note_on,480,0,5,,,,,,,,,5,,,46,49
26832,note_off,192,0,5,,,,,,,,,5,,,34,0
26832,note_off,0,0,5,,,,,,,,,5,,,46,0
26880,note_off,240,0,1,,,,,,,,,1,,,75,0
26880,note_on,0,0,1,,,,,,,,,1,,,74,50
26880,note_on,288,0,3,,,,,,,,,3,,,56,50
26880,note_on,0,0,3,,,,,,,,,3,,,58,50
27000,note_off,120,0,1,,,,,,,,,1,,,74,0
27000,note_on,0,0,1,,,,,,,,,1,,,72,50
27120,note_off,120,0,1,,,,,,,,,1,,,72,0
27120,note_on,0,0,1,,,,,,,,,1,,,70,51
27120,note_off,240,0,3,,,,,,,,,3,,,58,0
27120,note_on,0,0,3,,,,,,,,,3,,,62,51
27216,note_off,96,0,1,,,,,,,,,1,,,70,0
27240,set_tempo,2760,1,0,,,,,,500000,,,,,,,
27240,note_off,120,0,3,,,,,,,,,3,,,56,0
27292,note_off,652,0,2,,,,,,,,,2,,,70,0
27300,note_off,8,0,2,,,,,,,,,2,,,68,0
27312,note_off,72,0,3,,,,,,,,,3,,,62,0
27360,control_change,48,0,3,,,,,,,64,127,3,,,,
27360,control_change,144,0,1,,,,,,,64,127,1,,,,
27360,note_on,0,0,5,,,,,,,,,5,,,36,65
27360,control_change,3240,0,4,,,,,,,64,127,4,,,,
27360,set_tempo,120,1,0,,,,,,495867,,,,,,,
27360,control_change,60,0,2,,,,,,,64,127,2,,,,
27360,note_on,0,0,2,,,,,,,,,2,,,68,65
27360,note_on,0,0,1,,,,,,,,,1,,,80,65
27360,control_change,528,0,5,,,,,,,64,127,5,,,,
27360,note_on,0,0,5,,,,,,,,,5,,,48,65
27360,note_on,0,0,2,,,,,,,,,2,,,72,65
27600,note_on,0,0,3,,,,,,,,,3,,,60,53
27600,note_on,240,0,3,,,,,,,,,3,,,55,53
27600,note_off,240,0,5,,,,,,,,,5,,,36,0
27600,note_off,0,0,5,,,,,,,,,5,,,48,0
27720,note_off,360,0,1,,,,,,,,,1,,,80,0
27720,note_on,0,0,1,,,,,,,,,1,,,79,53
27840,control_change,120,0,1,,,,,,,64,0,1,,,,
27840,note_off,0,0,3,,,,,,,,,3,,,60,0
27840,control_change,480,0,4,,,,,,,64,0,4,,,,
27840,control_change,240,0,3,,,,,,,64,0,3,,,,
27840,control_change,480,0,2,,,,,,,64,0,2,,,,
27840,note_off,0,0,1,,,,,,,,,1,,,79,0
27840,note_on,0,0,3,,,,,,,,,3,,,65,54
27840,control_change,240,0,5,,,,,,,64,0,5,,,,
27840,note_on,0,0,1,,,,,,,,,1,,,77,54
27960,note_off,120,0,3,,,,,,,,,3,,,55,0
28020,note_off,180,0,2,,,,,,,,,2,,,68,0
28020,note_off,0,0,2,,,,,,,,,2,,,72,0
28032,note_off,192,0,1,,,,,,,,,1,,,77,0
28032,note_off,72,0,3,,,,,,,,,3,,,65,0
28080,note_on,60,0,2,,,,,,,,,2,,,72,55
28080,note_on,0,0,5,,,,,,,,,5,,,48,55
28080,note_on,0,0,2,,,,,,,,,2,,,70,55
28080,note_on,240,0,5,,,,,,,,,5,,,36,55
28080,note_on,48,0,1,,,,,,,,,1,,,77,55
28272,note_off,0,0,5,,,,,,,,,5,,,36,0
28272,note_off,192,0,5,,,,,,,,,5,,,48,0
28320,note_on,288,0,3,,,,,,,,,3,,,60,56
28320,note_on,0,0,1,,,,,,,,,1,,,76,56
28320,note_off,240,0,1,,,,,,,,,1,,,77,0
28320,note_on,0,0,3,,,,,,,,,3,,,58,56
28440,note_on,0,0,1,,,,,,,,,1,,,74,56
28440,note_off,120,0,1,,,,,,,,,1,,,76,0
28560,note_off,240,0,3,,,,,,,,,3,,,60,0
28560,note_on,0,0,3,,,,,,,,,3,,,64,57
28560,note_off,120,0,1,,,,,,,,,1,,,74,0
28560,note_on,0,0,1,,,,,,,,,1,,,72,57
28680,note_off,120,0,3,,,,,,,,,3,,,58,0
28740,note_off,660,0,2,,,,,,,,,2,,,72,0
28745,note_off,5,0,2,,,,,,,,,2,,,70,0
28752,note_off,192,0,1,,,,,,,,,1,,,72,0
28752,note_off,72,0,3,,,,,,,,,3,,,64,0
28800,note_on,0,0,2,,,,,,,,,2,,,68,74
28800,note_on,0,0,2,,,,,,,,,2,,,72,74
28800,control_change,55,0,2,,,,,,,64,127,2,,,,
28800,control_change,960,0,4,,,,,,,64,127,4,,,,
28800,note_on,0,0,1,,,,,,,,,1,,,80,74
28800,control_change,48,0,1,,,,,,,64,127,1,,,,
28800,control_change,48,0,3,,,,,,,64,127,3,,,,
28800,note_on,0,0,5,,,,,,,,,5,,,36,74
28800,note_on,0,0,5,,,,,,,,,5,,,48,74
28800,control_change,528,0,5,,,,,,,64,127,5,,,,
28992,note_off,192,0,5,,,,,,,,,5,,,36,0
28992,note_off,0,0,5,,,,,,,,,5,,,48,0
29040,note_on,240,0,3,,,,,,,,,3,,,56,59
29040,note_on,0,0,3,,,,,,,,,3,,,60,59
29160,note_off,360,0,1,,,,,,,,,1,,,80,0
29160,note_on,0,0,1,,,,,,,,,1,,,79,59
29280,note_on,0,0,1,,,,,,,,,1,,,77,60
29280,control_change,120,0,1,,,,,,,64,0,1,,,,
29280,note_on,0,0,3,,,,,,,,,3,,,65,60
29280,note_off,0,0,3,,,,,,,,,3,,,60,0
29280,note_off,0,0,1,,,,,,,,,1,,,79,0
29280,control_change,288,0,5,,,,,,,64,0,5,,,,
29280,control_change,480,0,2,,,,,,,64,0,2,,,,
29280,control_change,480,0,4,,,,,,,64,0,4,,,,
29280,control_change,240,0,3,,,,,,,64,0,3,,,,
29405,note_off,125,0,3,,,,,,,,,3,,,56,0
29455,note_off,175,0,2,,,,,,,,,2,,,72,0
29460,note_off,5,0,2,,,,,,,,,2,,,68,0
29472,note_off,67,0,3,,,,,,,,,3,,,65,0
29472,note_off,192,0,1,,,,,,,,,1,,,77,0
29520,note_on,60,0,2,,,,,,,,,2,,,72,61
29520,note_on,0,0,5,,,,,,,,,5,,,36,61
29520,note_on,240,0,5,,,,,,,,,5,,,48,61
29520,note_on,48,0,1,,,,,,,,,1,,,77,61
29520,note_on,0,0,2,,,,,,,,,2,,,70,61
29760,note_off,240,0,1,,,,,,,,,1,,,77,0
29760,note_on,0,0,1,,,,,,,,,1,,,76,62
29760,note_off,0,0,5,,,,,,,,,5,,,48,0
29760,note_off,240,0,5,,,,,,,,,5,,,36,0
29760,note_on,288,0,3,,,,,,,,,3,,,60,62
29760,note_on,0,0,3,,,,,,,,,3,,,58,62
29880,note_off,120,0,1,,,,,,,,,1,,,76,0
29880,note_on,0,0,1,,,,,,,,,1,,,74,62
30000,note_off,120,0,1,,,,,,,,,1,,,74,0
30000,note_on,0,0,1,,,,,,,,,1,,,72,62
30000,note_on,0,0,3,,,,,,,,,3,,,64,62
30000,note_off,240,0,3,,,,,,,,,3,,,60,0
30120,note_off,120,0,3,,,,,,,,,3,,,58,0
30120,set_tempo,2760,1,0,,,,,,500000,,,,,,,
30180,note_off,660,0,2,,,,,,,,,2,,,70,0
30180,note_off,0,0,2,,,,,,,,,2,,,72,0
30192,note_off,192,0,1,,,,,,,,,1,,,72,0
30192,note_off,72,0,3,,,,,,,,,3,,,64,0
30240,control_change,48,0,3,,,,,,,64,127,3,,,,
30240,control_change,480,0,5,,,,,,,64,127,5,,,,
30240,note_on,0,0,5,,,,,,,,,5,,,53,76
30240,note_on,0,0,5,,,,,,,,,5,,,41,76
30240,set_tempo,120,1,0,,,,,,495867,,,,,,,
30240,note_on,0,0,1,,,,,,,,,1,,,81,76
30240,control_change,48,0,1,,,,,,,64,127,1,,,,
30240,control_change,960,0,4,,,,,,,64,127,4,,,,
30240,control_change,60,0,2,,,,,,,64,127,2,,,,
30240,note_on,0,0,2,,,,,,,,,2,,,69,76
30240,note_on,0,0,2,,,,,,,,,2,,,72,76
30600,note_on,0,0,1,,,,,,,,,1,,,79,65
30600,note_off,360,0,1,,,,,,,,,1,,,81,0
30720,note_on,0,0,1,,,,,,,,,1,,,77,65
30720,note_off,120,0,1,,,,,,,,,1,,,79,0
30895,note_off,655,0,5,,,,,,,,,5,,,41,0
30900,note_off,5,0,5,,,,,,,,,5,,,53,0
30900,note_off,660,0,2,,,,,,,,,2,,,72,0
30905,note_off,5,0,2,,,,,,,,,2,,,69,0
30912,note_off,192,0,1,,,,,,,,,1,,,77,0
30960,note_on,0,0,2,,,,,,,,,2,,,72,78
30960,note_on,0,0,2,,,,,,,,,2,,,69,78
30960,control_change,55,0,2,,,,,,,64,0,2,,,,
30960,control_change,720,0,4,,,,,,,64,0,4,,,,
30960,note_on,0,0,4,,,,,,,,,4,,,57,78
30960,note_on,0,0,5,,,,,,,,,5,,,53,78
30960,note_on,0,0,5,,,,,,,,,5,,,65,78
30960,control_change,60,0,5,,,,,,,64,0,5,,,,
30960,control_change,720,0,3,,,,,,,64,0,3,,,,
30960,note_on,0,0,1,,,,,,,,,1,,,77,78
30960,control_change,48,0,1,,,,,,,64,0,1,,,,
31320,note_on,0,0,1,,,,,,,,,1,,,76,68
31320,note_off,360,0,1,,,,,,,,,1,,,77,0
31440,note_off,120,0,1,,,,,,,,,1,,,76,0
31440,note_on,0,0,1,,,,,,,,,1,,,75,68
31610,note_off,650,0,2,,,,,,,,,2,,,69,0
31610,note_off,0,0,5,,,,,,,,,5,,,65,0
31610,note_off,650,0,5,,,,,,,,,5,,,53,0
31615,note_off,655,0,4,,,,,,,,,4,,,57,0
31615,note_off,5,0,2,,,,,,,,,2,,,72,0
31632,note_off,192,0,1,,,,,,,,,1,,,75,0
31680,note_on,0,0,5,,,,,,,,,5,,,41,82
31680,note_on,0,0,2,,,,,,,,,2,,,72,82
31680,control_change,65,0,2,,,,,,,64,127,2,,,,
31680,note_on,0,0,5,,,,,,,,,5,,,53,82
31680,control_change,70,0,5,,,,,,,64,127,5,,,,
31680,control_change,720,0,3,,,,,,,64,127,3,,,,
31680,note_on,0,0,2,,,,,,,,,2,,,69,82
31680,note_on,0,0,1,,,,,,,,,1,,,81,82
31680,control_change,48,0,1,,,,,,,64,127,1,,,,
31680,control_change,65,0,4,,,,,,,64,127,4,,,,
32040,note_on,0,0,1,,,,,,,,,1,,,79,72
32040,note_off,360,0,1,,,,,,,,,1,,,81,0
32160,note_on,0,0,1,,,,,,,,,1,,,77,73
32160,note_off,120,0,1,,,,,,,,,1,,,79,0
32335,note_off,655,0,5,,,,,,,,,5,,,41,0
32335,note_off,655,0,2,,,,,,,,,2,,,72,0
32335,note_off,0,0,5,,,,,,,,,5,,,53,0
32340,note_off,5,0,2,,,,,,,,,2,,,69,0
32352,note_off,192,0,1,,,,,,,,,1,,,77,0
32400,note_on,0,0,2,,,,,,,,,2,,,69,87
32400,note_on,0,0,5,,,,,,,,,5,,,53,87
32400,control_change,60,0,2,,,,,,,64,0,2,,,,
32400,note_on,0,0,2,,,,,,,,,2,,,72,87
32400,note_on,0,0,4,,,,,,,,,4,,,57,87
32400,control_change,720,0,4,,,,,,,64,0,4,,,,
32400,control_change,65,0,5,,,,,,,64,0,5,,,,
32400,control_change,720,0,3,,,,,,,64,0,3,,,,
32400,note_on,0,0,5,,,,,,,,,5,,,65,87
32400,control_change,48,0,1,,,,,,,64,0,1,,,,
32400,note_on,0,0,1,,,,,,,,,1,,,77,87
32760,note_off,360,0,1,,,,,,,,,1,,,77,0
32760,note_on,0,0,1,,,,,,,,,1,,,76,77
32880,note_on,0,0,1,,,,,,,,,1,,,75,78
32880,note_off,120,0,1,,,,,,,,,1,,,76,0
33000,set_tempo,2760,1,0,,,,,,500000,,,,,,,
33060,note_off,660,0,2,,,,,,,,,2,,,72,0
33065,note_off,665,0,4,,,,,,,,,4,,,57,0
33065,note_off,0,0,5,,,,,,,,,5,,,65,0
33065,note_off,665,0,5,,,,,,,,,5,,,53,0
33065,note_off,5,0,2,,,,,,,,,2,,,69,0
33072,note_off,192,0,1,,,,,,,,,1,,,75,0
33120,control_change,55,0,2,,,,,,,64,127,2,,,,
33120,note_on,0,0,2,,,,,,,,,2,,,80,90
33120,note_on,0,0,2,,,,,,,,,2,,,77,90
33120,control_change,55,0,4,,,,,,,64,127,4,,,,
33120,control_change,48,0,1,,,,,,,64,127,1,,,,
33120,note_on,0,0,1,,,,,,,,,1,,,89,90
33120,control_change,720,0,3,,,,,,,64,127,3,,,,
33120,set_tempo,120,1,0,,,,,,495867,,,,,,,
33120,control_change,55,0,5,,,,,,,64,127,5,,,,
33120,note_on,0,0,5,,,,,,,,,5,,,49,90
33120,note_on,0,0,5,,,,,,,,,5,,,37,90
33480,note_off,360,0,1,,,,,,,,,1,,,89,0
33480,note_on,0,0,1,,,,,,,,,1,,,87,82
33600,note_off,120,0,1,,,,,,,,,1,,,87,0
33600,note_on,0,0,1,,,,,,,,,1,,,85,83
33775,note_off,655,0,5,,,,,,,,,5,,,37,0
33780,note_off,660,0,2,,,,,,,,,2,,,77,0
33780,note_off,5,0,5,,,,,,,,,5,,,49,0
33780,note_off,0,0,2,,,,,,,,,2,,,80,0
33792,note_off,192,0,1,,,,,,,,,1,,,85,0
33840,control_change,48,0,1,,,,,,,64,0,1,,,,
33840,control_change,60,0,2,,,,,,,64,0,2,,,,
33840,note_on,0,0,2,,,,,,,,,2,,,80,96
33840,note_on,0,0,2,,,,,,,,,2,,,77,96
33840,control_change,720,0,4,,,,,,,64,0,4,,,,
33840,note_on,0,0,1,,,,,,,,,1,,,85,96
33840,control_change,60,0,5,,,,,,,64,0,5,,,,
33840,control_change,720,0,3,,,,,,,64,0,3,,,,
33840,note_on,0,0,5,,,,,,,,,5,,,49,96
33840,note_on,0,0,5,,,,,,,,,5,,,61,96
33840,note_on,0,0,4,,,,,,,,,4,,,53,96
34200,note_on,0,0,1,,,,,,,,,1,,,84,88
34200,note_off,360,0,1,,,,,,,,,1,,,85,0
34320,note_on,0,0,1,,,,,,,,,1,,,83,88
34320,note_off,120,0,1,,,,,,,,,1,,,84,0
34495,note_off,655,0,5,,,,,,,,,5,,,61,0
34500,note_off,5,0,5,,,,,,,,,5,,,49,0
34505,note_off,0,0,2,,,,,,,,,2,,,80,0
34505,note_off,665,0,2,,,,,,,,,2,,,77,0
34505,note_off,665,0,4,,,,,,,,,4,,,53,0
34512,note_off,192,0,1,,,,,,,,,1,,,83,0
34560,control_change,60,0,5,,,,,,,64,127,5,,,,
34560,note_on,0,0,5,,,,,,,,,5,,,49,101
34560,note_on,0,0,5,,,,,,,,,5,,,37,101
34560,control_change,55,0,4,,,,,,,64,127,4,,,,
34560,control_change,720,0,3,,,,,,,64,127,3,,,,
34560,note_on,0,0,2,,,,,,,,,2,,,80,101
34560,note_on,0,0,1,,,,,,,,,1,,,89,101
34560,control_change,48,0,1,,,,,,,64,127,1,,,,
34560,note_on,0,0,2,,,,,,,,,2,,,77,101
34560,control_change,55,0,2,,,,,,,64,127,2,,,,
34920,note_off,360,0,1,,,,,,,,,1,,,89,0
34920,note_on,0,0,1,,,,,,,,,1,,,87,94
35040,note_off,120,0,1,,,,,,,,,1,,,87,0
35040,note_on,0,0,1,,,,,,,,,1,,,85,95
35215,note_off,655,0,5,,,,,,,,,5,,,37,0
35220,note_off,5,0,5,,,,,,,,,5,,,49,0
35220,note_off,660,0,2,,,,,,,,,2,,,77,0
35225,note_off,5,0,2,,,,,,,,,2,,,80,0
35232,note_off,192,0,1,,,,,,,,,1,,,85,0
35280,note_on,0,0,2,,,,,,,,,2,,,80,107
35280,control_change,55,0,2,,,,,,,64,0,2,,,,
35280,control_change,60,0,5,,,,,,,64,0,5,,,,
35280,control_change,720,0,4,,,,,,,64,0,4,,,,
35280,note_on,0,0,5,,,,,,,,,5,,,61,107
35280,note_on,0,0,1,,,,,,,,,1,,,85,107
35280,control_change,48,0,1,,,,,,,64,0,1,,,,
35280,note_on,0,0,4,,,,,,,,,4,,,53,107
35280,note_on,0,0,5,,,,,,,,,5,,,49,107
35280,control_change,720,0,3,,,,,,,64,0,3,,,,
35280,note_on,0,0,2,,,,,,,,,2,,,77,107
35640,note_off,360,0,1,,,,,,,,,1,,,85,0
35640,note_on,0,0,1,,,,,,,,,1,,,84,101
35760,note_off,120,0,1,,,,,,,,,1,,,84,0
35760,note_on,0,0,1,,,,,,,,,1,,,83,102
35880,set_tempo,2760,1,0,,,,,,500000,,,,,,,
35935,note_off,655,0,4,,,,,,,,,4,,,53,0
35935,note_off,655,0,5,,,,,,,,,5,,,49,0
35940,note_off,5,0,5,,,,,,,,,5,,,61,0
35940,note_off,660,0,2,,,,,,,,,2,,,77,0
35940,note_off,0,0,2,,,,,,,,,2,,,80,0
35952,note_off,192,0,1,,,,,,,,,1,,,83,0
36000,note_on,48,0,1,,,,,,,,,1,,,84,115
36000,note_on,60,0,2,,,,,,,,,2,,,81,115
36000,control_change,60,0,5,,,,,,,64,127,5,,,,
36000,note_on,0,0,5,,,,,,,,,5,,,36,120
36000,note_on,0,0,5,,,,,,,,,5,,,48,120
36000,set_tempo,120,1,0,,,,,,495867,,,,,,,
36360,note_off,360,0,1,,,,,,,,,1,,,84,0
36360,note_off,360,0,2,,,,,,,,,2,,,81,0
36360,note_on,0,0,2,,,,,,,,,2,,,79,95
36360,note_on,0,0,1,,,,,,,,,1,,,82,95
36480,note_off,120,0,2,,,,,,,,,2,,,79,0
36480,note_on,0,0,2,,,,,,,,,2,,,77,93
36480,note_on,0,0,2,,,,,,,,,2,,,72,100
36480,note_on,0,0,1,,,,,,,,,1,,,81,93
36480,note_off,120,0,1,,,,,,,,,1,,,82,0
36672,note_off,192,0,2,,,,,,,,,2,,,77,0
36672,note_off,192,0,1,,,,,,,,,1,,,81,0
36720,note_on,48,0,2,,,,,,,,,2,,,70,100
36720,note_on,48,0,1,,,,,,,,,1,,,79,100
37080,note_off,360,0,2,,,,,,,,,2,,,70,0
37080,note_off,360,0,1,,,,,,,,,1,,,79,0
37080,note_on,0,0,2,,,,,,,,,2,,,69,83
37080,note_on,0,0,1,,,,,,,,,1,,,77,83
37145,note_off,65,0,2,,,,,,,,,2,,,72,0
37200,note_on,0,0,2,,,,,,,,,2,,,67,81
37200,note_off,120,0,1,,,,,,,,,1,,,77,0
37200,note_on,0,0,1,,,,,,,,,1,,,76,81
37200,note_off,55,0,2,,,,,,,,,2,,,69,0
37392,note_off,192,0,1,,,,,,,,,1,,,76,0
37392,note_off,192,0,2,,,,,,,,,2,,,67,0
37440,note_on,48,0,1,,,,,,,,,1,,,72,90
37440,note_on,48,0,2,,,,,,,,,2,,,69,90
37800,note_off,360,0,1,,,,,,,,,1,,,72,0
37800,note_on,0,0,2,,,,,,,,,2,,,67,77
37800,note_off,360,0,2,,,,,,,,,2,,,69,0
37800,note_on,0,0,1,,,,,,,,,1,,,70,77
37920,note_on,0,0,2,,,,,,,,,2,,,60,82
37920,note_off,120,0,2,,,,,,,,,2,,,67,0
37920,note_off,120,0,1,,,,,,,,,1,,,70,0
37920,note_on,0,0,1,,,,,,,,,1,,,69,76
37920,note_on,0,0,2,,,,,,,,,2,,,65,76
38112,note_off,192,0,2,,,,,,,,,2,,,65,0
38112,note_off,192,0,1,,,,,,,,,1,,,69,0
38160,note_on,48,0,1,,,,,,,,,1,,,67,82
38160,note_on,48,0,2,,,,,,,,,2,,,58,82
38520,note_on,0,0,2,,,,,,,,,2,,,57,69
38520,note_on,0,0,1,,,,,,,,,1,,,65,69
38520,note_off,360,0,2,,,,,,,,,2,,,58,0
38520,note_off,360,0,1,,,,,,,,,1,,,67,0
38585,note_off,65,0,2,,,,,,,,,2,,,60,0
38640,note_off,55,0,2,,,,,,,,,2,,,57,0
38640,note_on,0,0,2,,,,,,,,,2,,,55,68
38640,note_off,120,0,1,,,,,,,,,1,,,65,0
38640,note_on,0,0,1,,,,,,,,,1,,,64,68
38760,set_tempo,2760,1,0,,,,,,500000,,,,,,,
38832,note_off,192,0,1,,,,,,,,,1,,,64,0
38832,note_off,192,0,2,,,,,,,,,2,,,55,0
38880,note_on,48,0,1,,,,,,,,,1,,,60,77
38880,note_on,48,0,2,,,,,,,,,2,,,57,77
38880,set_tempo,120,1,0,,,,,,495867,,,,,,,
38880,note_off,2880,0,5,,,,,,,,,5,,,48,0
39240,note_on,0,0,2,,,,,,,,,2,,,55,62
39240,note_on,0,0,1,,,,,,,,,1,,,58,62
39240,note_off,360,0,1,,,,,,,,,1,,,60,0
39240,note_off,360,0,2,,,,,,,,,2,,,57,0
39360,note_on,0,0,1,,,,,,,,,1,,,57,60
39360,note_on,0,0,2,,,,,,,,,2,,,48,70
39360,note_off,120,0,2,,,,,,,,,2,,,55,0
39360,note_on,0,0,2,,,,,,,,,2,,,53,60
39360,note_off,120,0,1,,,,,,,,,1,,,58,0
39552,note_off,192,0,2,,,,,,,,,2,,,53,0
39552,note_off,192,0,1,,,,,,,,,1,,,57,0
39600,note_on,48,0,2,,,,,,,,,2,,,46,70
39600,note_on,48,0,1,,,,,,,,,1,,,55,70
39960,note_on,0,0,1,,,,,,,,,1,,,53,54
39960,note_off,360,0,2,,,,,,,,,2,,,46,0
39960,note_off,360,0,1,,,,,,,,,1,,,55,0
39960,note_on,0,0,2,,,,,,,,,2,,,45,54
40025,note_off,65,0,2,,,,,,,,,2,,,48,0
40080,note_off,55,0,2,,,,,,,,,2,,,45,0
40080,note_on,0,0,1,,,,,,,,,1,,,52,53
40080,note_off,120,0,1,,,,,,,,,1,,,53,0
40080,note_on,0,0,2,,,,,,,,,2,,,43,53
40272,note_off,192,0,2,,,,,,,,,2,,,43,0
40272,note_off,192,0,1,,,,,,,,,1,,,52,0
40320,note_on,48,0,2,,,,,,,,,2,,,45,61
40320,note_on,48,0,1,,,,,,,,,1,,,48,61
40320,note_off,1440,0,5,,,,,,,,,5,,,36,0
40680,note_on,0,0,2,,,,,,,,,2,,,43,46
40680,note_on,0,0,1,,,,,,,,,1,,,46,46
40680,note_off,360,0,1,,,,,,,,,1,,,48,0
40680,note_off,360,0,2,,,,,,,,,2,,,45,0
40800,note_off,120,0,2,,,,,,,,,2,,,43,0
40800,note_on,0,0,1,,,,,,,,,1,,,45,45
40800,note_on,0,0,2,,,,,,,,,2,,,36,51
40800,note_off,120,0,1,,,,,,,,,1,,,46,0
40800,note_on,0,0,2,,,,,,,,,2,,,41,45
40992,note_off,192,0,1,,,,,,,,,1,,,45,0
40992,note_off,192,0,2,,,,,,,,,2,,,41,0
41040,note_on,48,0,2,,,,,,,,,2,,,34,51
41040,note_on,48,0,1,,,,,,,,,1,,,43,51
41400,note_on,0,0,2,,,,,,,,,2,,,33,39
41400,note_off,360,0,2,,,,,,,,,2,,,34,0
41400,note_off,360,0,1,,,,,,,,,1,,,43,0
41400,note_on,0,0,1,,,,,,,,,1,,,41,39
41455,note_off,55,0,2,,,,,,,,,2,,,36,0
41460,set_tempo,2580,1,0,,,,,,500000,,,,,,,
41520,note_off,120,0,1,,,,,,,,,1,,,41,0
41520,note_on,0,0,1,,,,,,,,,1,,,40,38
41520,note_off,65,0,2,,,,,,,,,2,,,33,0
41520,set_tempo,60,1,0,,,,,,517241,,,,,,,
41520,note_on,0,0,2,,,,,,,,,2,,,31,38
41712,note_off,192,0,2,,,,,,,,,2,,,31,0
41712,note_off,192,0,1,,,,,,,,,1,,,40,0
41760,control_change,1440,0,5,,,,,,,64,0,5,,,,
43200,note_on,1440,0,5,,,,,,,,,5,,,57,60
43200,note_on,7920,0,3,,,,,,,,,3,,,53,60
43200,note_on,1488,0,1,,,,,,,,,1,,,77,60
43200,note_on,1488,0,2,,,,,,,,,2,,,65,60
43200,set_tempo,1680,1,0,,,,,,495867,,,,,,,
43392,note_off,192,0,3,,,,,,,,,3,,,53,0
43440,note_on,48,0,3,,,,,,,,,3,,,53,53
43632,note_off,192,0,3,,,,,,,,,3,,,53,0
43680,note_off,480,0,5,,,,,,,,,5,,,57,0
43680,note_on,48,0,3,,,,,,,,,3,,,53,52
43680,note_on,0,0,5,,,,,,,,,5,,,60,52
43872,note_off,192,0,3,,,,,,,,,3,,,53,0
43920,note_on,48,0,3,,,,,,,,,3,,,53,51
43920,note_on,0,0,1,,,,,,,,,1,,,81,51
43920,note_off,720,0,1,,,,,,,,,1,,,77,0
43920,note_on,0,0,2,,,,,,,,,2,,,69,51
43920,note_on,0,0,5,,,,,,,,,5,,,61,51
43920,note_off,240,0,5,,,,,,,,,5,,,60,0
43920,note_off,720,0,2,,,,,,,,,2,,,65,0
44112,note_off,192,0,3,,,,,,,,,3,,,53,0
44160,note_on,48,0,3,,,,,,,,,3,,,53,50
44352,note_off,192,0,3,,,,,,,,,3,,,53,0
44400,note_on,48,0,3,,,,,,,,,3,,,53,49
44400,note_on,0,0,5,,,,,,,,,5,,,60,49
44400,note_off,480,0,5,,,,,,,,,5,,,61,0
44575,note_off,655,0,1,,,,,,,,,1,,,81,0
44585,note_off,665,0,2,,,,,,,,,2,,,69,0
44585,note_off,185,0,5,,,,,,,,,5,,,60,0
44592,note_off,192,0,3,,,,,,,,,3,,,53,0
44640,note_on,48,0,3,,,,,,,,,3,,,53,48
44640,note_on,65,0,1,,,,,,,,,1,,,79,48
44640,note_on,55,0,5,,,,,,,,,5,,,58,48
44640,note_on,8705,0,4,,,,,,,,,4,,,64,48
44640,note_on,55,0,2,,,,,,,,,2,,,67,48
44832,note_off,192,0,3,,,,,,,,,3,,,53,0
44880,note_on,48,0,3,,,,,,,,,3,,,53,47
45072,note_off,192,0,3,,,,,,,,,3,,,53,0
45120,note_on,0,0,5,,,,,,,,,5,,,61,46
45120,note_off,480,0,5,,,,,,,,,5,,,58,0
45120,note_on,48,0,3,,,,,,,,,3,,,53,46
45312,note_off,192,0,3,,,,,,,,,3,,,53,0
45360,note_off,240,0,5,,,,,,,,,5,,,61,0
45360,note_on,0,0,1,,,,,,,,,1,,,84,46
45360,note_on,0,0,5,,,,,,,,,5,,,60,46
45360,note_on,48,0,3,,,,,,,,,3,,,53,46
45360,note_on,0,0,2,,,,,,,,,2,,,72,46
45360,note_off,720,0,1,,,,,,,,,1,,,79,0
45360,note_off,720,0,2,,,,,,,,,2,,,67,0
45552,note_off,192,0,3,,,,,,,,,3,,,53,0
45600,note_on,48,0,3,,,,,,,,,3,,,53,45
45792,note_off,192,0,3,,,,,,,,,3,,,53,0
45840,note_off,480,0,5,,,,,,,,,5,,,60,0
45840,note_on,48,0,3,,,,,,,,,3,,,53,44
45840,note_on,0,0,5,,,,,,,,,5,,,58,44
45960,set_tempo,2760,1,0,,,,,,500000,,,,,,,
46015,note_off,655,0,2,,,,,,,,,2,,,72,0
46020,note_off,1380,0,4,,,,,,,,,4,,,64,0
46025,note_off,185,0,5,,,,,,,,,5,,,58,0
46030,note_off,670,0,1,,,,,,,,,1,,,84,0
46032,note_off,192,0,3,,,,,,,,,3,,,53,0
46080,note_on,50,0,1,,,,,,,,,1,,,77,52
46080,note_on,55,0,5,,,,,,,,,5,,,57,52
46080,set_tempo,120,1,0,,,,,,495867,,,,,,,
46080,note_on,65,0,2,,,,,,,,,2,,,65,52
46080,note_on,48,0,3,,,,,,,,,3,,,53,52
46272,note_off,192,0,3,,,,,,,,,3,,,53,0
46320,note_on,48,0,3,,,,,,,,,3,,,53,45
46512,note_off,192,0,3,,,,,,,,,3,,,53,0
46560,note_off,480,0,5,,,,,,,,,5,,,57,0
46560,note_on,0,0,5,,,,,,,,,5,,,60,44
46560,note_on,48,0,3,,,,,,,,,3,,,53,44
46752,note_off,192,0,3,,,,,,,,,3,,,53,0
46800,note_on,0,0,5,,,,,,,,,5,,,61,43
46800,note_on,0,0,2,,,,,,,,,2,,,69,43
46800,note_off,720,0,2,,,,,,,,,2,,,65,0
46800,note_off,720,0,1,,,,,,,,,1,,,77,0
46800,note_on,0,0,1,,,,,,,,,1,,,81,43
46800,note_off,240,0,5,,,,,,,,,5,,,60,0
46800,note_on,48,0,3,,,,,,,,,3,,,53,43
46992,note_off,192,0,3,,,,,,,,,3,,,53,0
47040,note_on,48,0,3,,,,,,,,,3,,,53,43
47232,note_off,192,0,3,,,,,,,,,3,,,53,0
47280,note_on,0,0,5,,,,,,,,,5,,,60,42
47280,note_on,48,0,3,,,,,,,,,3,,,53,42
47280,note_off,480,0,5,,,,,,,,,5,,,61,0
47450,note_off,650,0,2,,,,,,,,,2,,,69,0
47455,note_off,175,0,5,,,,,,,,,5,,,60,0
47460,note_off,660,0,1,,,,,,,,,1,,,81,0
47472,note_off,192,0,3,,,,,,,,,3,,,53,0
47520,note_on,48,0,3,,,,,,,,,3,,,53,41
47520,note_on,70,0,2,,,,,,,,,2,,,67,41
47520,note_on,60,0,1,,,,,,,,,1,,,79,41
47520,note_on,0,0,5,,,,,,,,,5,,,58,41
47520,note_on,65,0,5,,,,,,,,,5,,,64,41
47712,note_off,192,0,3,,,,,,,,,3,,,53,0
47760,note_on,48,0,3,,,,,,,,,3,,,53,40
47952,note_off,192,0,3,,,,,,,,,3,,,53,0
48000,note_on,48,0,3,,,,,,,,,3,,,53,39
48000,note_on,0,0,5,,,,,,,,,5,,,61,39
48000,note_off,480,0,5,,,,,,,,,5,,,58,0
48192,note_off,192,0,3,,,,,,,,,3,,,53,0
48240,note_on,48,0,3,,,,,,,,,3,,,53,38
48240,note_on,0,0,5,,,,,,,,,5,,,60,38
48240,note_off,240,0,5,,,,,,,,,5,,,61,0
48240,note_off,720,0,2,,,,,,,,,2,,,67,0
48240,note_on,0,0,1,,,,,,,,,1,,,84,38
48240,note_off,720,0,1,,,,,,,,,1,,,79,0
48240,note_on,0,0,2,,,,,,,,,2,,,72,38
48432,note_off,192,0,3,,,,,,,,,3,,,53,0
48480,note_on,48,0,3,,,,,,,,,3,,,53,37
48672,note_off,192,0,3,,,,,,,,,3,,,53,0
48720,note_on,48,0,3,,,,,,,,,3,,,53,37
48720,note_off,480,0,5,,,,,,,,,5,,,60,0
48720,note_on,0,0,5,,,,,,,,,5,,,58,37
48840,set_tempo,2760,1,0,,,,,,500000,,,,,,,
48895,note_off,655,0,2,,,,,,,,,2,,,72,0
48900,note_off,180,0,5,,,,,,,,,5,,,64,0
48905,note_off,5,0,5,,,,,,,,,5,,,58,0
48910,note_off,670,0,1,,,,,,,,,1,,,84,0
48912,note_off,192,0,3,,,,,,,,,3,,,53,0
48960,note_on,55,0,5,,,,,,,,,5,,,65,36
48960,note_on,50,0,1,,,,,,,,,1,,,77,36
48960,note_on,48,0,3,,,,,,,,,3,,,53,36
48960,set_tempo,120,1,0,,,,,,495867,,,,,,,
48960,note_on,0,0,5,,,,,,,,,5,,,57,36
49152,note_off,192,0,5,,,,,,,,,5,,,57,0
49152,note_off,0,0,5,,,,,,,,,5,,,65,0
49152,note_off,192,0,1,,,,,,,,,1,,,77,0
49152,note_off,192,0,3,,,,,,,,,3,,,53,0
49200,note_on,48,0,5,,,,,,,,,5,,,64,61
49200,note_on,48,0,1,,,,,,,,,1,,,76,61
49440,note_off,240,0,1,,,,,,,,,1,,,76,0
49440,note_on,0,0,5,,,,,,,,,5,,,65,47
49440,note_off,240,0,5,,,,,,,,,5,,,64,0
49440,note_on,0,0,1,,,,,,,,,1,,,77,47
49680,note_off,240,0,5,,,,,,,,,5,,,65,0
49680,note_on,0,0,5,,,,,,,,,5,,,60,44
49680,note_on,0,0,1,,,,,,,,,1,,,72,44
49680,note_off,240,0,1,,,,,,,,,1,,,77,0
49920,note_on,0,0,5,,,,,,,,,5,,,57,40
49920,note_off,240,0,5,,,,,,,,,5,,,60,0
49920,note_off,240,0,1,,,,,,,,,1,,,72,0
49920,note_on,0,0,1,,,,,,,,,1,,,69,40
50160,note_on,0,0,1,,,,,,,,,1,,,65,37
50160,note_off,240,0,1,,,,,,,,,1,,,69,0
50160,note_off,240,0,5,,,,,,,,,5,,,57,0
50160,note_on,0,0,5,,,,,,,,,5,,,53,37
50280,set_tempo,1320,1,0,,,,,,535714,,,,,,,
50352,note_off,192,0,1,,,,,,,,,1,,,65,0
50352,note_off,192,0,5,,,,,,,,,5,,,53,0
50400,set_tempo,120,1,0,,,,,,495867,,,,,,,
50400,note_on,48,0,5,,,,,,,,,5,,,46,42
50400,note_on,1505,0,2,,,,,,,,,2,,,62,42
50400,note_on,0,0,2,,,,,,,,,2,,,65,42
50400,note_on,48,0,1,,,,,,,,,1,,,68,42
50400,note_on,4380,0,4,,,,,,,,,4,,,56,42
50400,note_on,0,0,4,,,,,,,,,4,,,53,42
50520,note_off,120,0,5,,,,,,,,,5,,,46,0
50520,note_on,0,0,1,,,,,,,,,1,,,67,43
50520,note_off,120,0,4,,,,,,,,,4,,,56,0
50520,note_on,0,0,4,,,,,,,,,4,,,55,43
50520,note_on,0,0,5,,,,,,,,,5,,,47,43
50520,note_off,120,0,1,,,,,,,,,1,,,68,0
50592,note_off,192,0,2,,,,,,,,,2,,,65,0
50592,note_off,72,0,4,,,,,,,,,4,,,53,0
50592,note_off,0,0,2,,,,,,,,,2,,,62,0
50616,note_off,96,0,5,,,,,,,,,5,,,47,0
50616,note_off,24,0,4,,,,,,,,,4,,,55,0
50616,note_off,96,0,1,,,,,,,,,1,,,67,0
50640,note_on,0,0,2,,,,,,,,,2,,,65,55
50640,note_on,24,0,5,,,,,,,,,5,,,47,55
50640,note_on,0,0,4,,,,,,,,,4,,,55,55
50640,note_on,24,0,4,,,,,,,,,4,,,53,55
50640,note_on,24,0,1,,,,,,,,,1,,,67,55
50640,note_on,48,0,2,,,,,,,,,2,,,62,55
51000,note_off,360,0,5,,,,,,,,,5,,,47,0
51000,note_off,360,0,2,,,,,,,,,2,,,65,0
51000,note_off,0,0,4,,,,,,,,,4,,,53,0
51000,note_off,0,0,2,,,,,,,,,2,,,62,0
51000,note_off,360,0,1,,,,,,,,,1,,,67,0
51000,note_off,360,0,4,,,,,,,,,4,,,55,0
51120,note_on,120,0,2,,,,,,,,,2,,,65,47
51120,note_on,0,0,2,,,,,,,,,2,,,62,47
51120,note_on,0,0,4,,,,,,,,,4,,,56,47
51120,note_on,120,0,1,,,,,,,,,1,,,68,47
51120,note_on,120,0,4,,,,,,,,,4,,,53,47
51120,note_on,120,0,5,,,,,,,,,5,,,46,47
51240,note_off,120,0,1,,,,,,,,,1,,,68,0
51240,note_on,0,0,1,,,,,,,,,1,,,67,48
51240,note_off,120,0,5,,,,,,,,,5,,,46,0
51240,note_on,0,0,5,,,,,,,,,5,,,47,48
51240,note_off,120,0,4,,,,,,,,,4,,,56,0
51240,note_on,0,0,4,,,,,,,,,4,,,55,48
51312,note_off,72,0,4,,,,,,,,,4,,,53,0
51312,note_off,0,0,2,,,,,,,,,2,,,65,0
51312,note_off,192,0,2,,,,,,,,,2,,,62,0
51336,note_off,96,0,5,,,,,,,,,5,,,47,0
51336,note_off,96,0,1,,,,,,,,,1,,,67,0
51336,note_off,24,0,4,,,,,,,,,4,,,55,0
51360,note_on,24,0,4,,,,,,,,,4,,,55,60
51360,note_on,0,0,4,,,,,,,,,4,,,53,60
51360,note_on,0,0,2,,,,,,,,,2,,,62,60
51360,note_on,24,0,5,,,,,,,,,5,,,47,60
51360,note_on,24,0,1,,,,,,,,,1,,,67,60
51360,note_on,48,0,2,,,,,,,,,2,,,65,60
51720,note_off,0,0,4,,,,,,,,,4,,,55,0
51720,note_off,360,0,5,,,,,,,,,5,,,47,0
51720,note_off,360,0,2,,,,,,,,,2,,,62,0
51720,note_off,0,0,2,,,,,,,,,2,,,65,0
51720,note_off,360,0,1,,,,,,,,,1,,,67,0
51720,note_off,360,0,4,,,,,,,,,4,,,53,0
51840,note_on,120,0,1,,,,,,,,,1,,,70,53
51840,note_on,0,0,2,,,,,,,,,2,,,65,53
51840,note_on,120,0,5,,,,,,,,,5,,,48,53
51840,note_on,0,0,4,,,,,,,,,4,,,53,53
51840,note_on,120,0,4,,,,,,,,,4,,,57,53
51840,note_on,120,0,2,,,,,,,,,2,,,63,53
51960,note_off,120,0,1,,,,,,,,,1,,,70,0
51960,note_on,0,0,1,,,,,,,,,1,,,69,54
52032,note_off,192,0,5,,,,,,,,,5,,,48,0
52032,note_off,0,0,2,,,,,,,,,2,,,63,0
52032,note_off,0,0,4,,,,,,,,,4,,,57,0
52032,note_off,192,0,4,,,,,,,,,4,,,53,0
52032,note_off,192,0,2,,,,,,,,,2,,,65,0
52056,note_off,96,0,1,,,,,,,,,1,,,69,0
52080,note_on,48,0,2,,,,,,,,,2,,,63,70
52080,note_on,0,0,2,,,,,,,,,2,,,65,70
52080,note_on,48,0,5,,,,,,,,,5,,,48,70
52080,note_on,24,0,1,,,,,,,,,1,,,69,70
52080,note_on,0,0,4,,,,,,,,,4,,,53,70
52080,note_on,48,0,4,,,,,,,,,4,,,57,70
52440,note_off,360,0,1,,,,,,,,,1,,,69,0
52440,note_off,0,0,2,,,,,,,,,2,,,63,0
52440,note_off,360,0,2,,,,,,,,,2,,,65,0
52440,note_off,360,0,5,,,,,,,,,5,,,48,0
52440,note_off,0,0,4,,,,,,,,,4,,,57,0
52440,note_off,360,0,4,,,,,,,,,4,,,53,0
52560,note_on,0,0,2,,,,,,,,,2,,,65,59
52560,note_on,120,0,2,,,,,,,,,2,,,58,59
52560,note_on,120,0,1,,,,,,,,,1,,,70,59
52560,note_on,120,0,4,,,,,,,,,4,,,53,59
52560,note_on,120,0,5,,,,,,,,,5,,,50,59
52675,note_off,115,0,1,,,,,,,,,1,,,70,0
52680,note_on,5,0,1,,,,,,,,,1,,,72,62
52740,note_on,0,0,1,,,,,,,,,1,,,70,63
52740,note_off,60,0,1,,,,,,,,,1,,,72,0
52800,note_off,60,0,1,,,,,,,,,1,,,70,0
52800,note_on,0,0,1,,,,,,,,,1,,,69,64
52860,note_off,60,0,1,,,,,,,,,1,,,69,0
52860,note_on,0,0,1,,,,,,,,,1,,,70,66
52920,note_off,60,0,1,,,,,,,,,1,,,70,0
52920,note_on,0,0,5,,,,,,,,,5,,,48,67
52920,note_off,360,0,5,,,,,,,,,5,,,50,0
52920,note_on,0,0,1,,,,,,,,,1,,,72,67
53040,note_off,120,0,5,,,,,,,,,5,,,48,0
53040,note_off,120,0,1,,,,,,,,,1,,,72,0
53040,note_on,0,0,1,,,,,,,,,1,,,74,79
53040,note_on,0,0,5,,,,,,,,,5,,,46,79
53160,set_tempo,2760,1,0,,,,,,500000,,,,,,,
53220,note_off,660,0,4,,,,,,,,,4,,,53,0
53220,note_off,660,0,2,,,,,,,,,2,,,65,0
53225,note_off,5,0,2,,,,,,,,,2,,,58,0
53232,note_off,192,0,5,,,,,,,,,5,,,46,0
53232,note_off,192,0,1,,,,,,,,,1,,,74,0
53280,note_on,55,0,2,,,,,,,,,2,,,65,70
53280,set_tempo,120,1,0,,,,,,495867,,,,,,,
53280,note_on,48,0,5,,,,,,,,,5,,,48,70
53280,note_on,60,0,4,,,,,,,,,4,,,53,70
53280,note_on,0,0,4,,,,,,,,,4,,,57,70
53280,note_on,48,0,1,,,,,,,,,1,,,70,70
53280,note_on,0,0,2,,,,,,,,,2,,,63,70
53400,note_off,120,0,1,,,,,,,,,1,,,70,0
53400,note_on,0,0,1,,,,,,,,,1,,,69,72
53472,note_off,192,0,5,,,,,,,,,5,,,48,0
53472,note_off,192,0,4,,,,,,,,,4,,,57,0
53472,note_off,0,0,4,,,,,,,,,4,,,53,0
53472,note_off,192,0,2,,,,,,,,,2,,,63,0
53472,note_off,0,0,2,,,,,,,,,2,,,65,0
53496,note_off,96,0,1,,,,,,,,,1,,,69,0
53520,note_on,0,0,4,,,,,,,,,4,,,57,82
53520,note_on,48,0,4,,,,,,,,,4,,,53,82
53520,note_on,24,0,1,,,,,,,,,1,,,69,82
53520,note_on,48,0,2,,,,,,,,,2,,,65,82
53520,note_on,0,0,2,,,,,,,,,2,,,63,82
53520,note_on,48,0,5,,,,,,,,,5,,,48,82
53880,note_off,360,0,2,,,,,,,,,2,,,63,0
53880,note_off,0,0,4,,,,,,,,,4,,,53,0
53880,note_off,360,0,4,,,,,,,,,4,,,57,0
53880,note_off,360,0,1,,,,,,,,,1,,,69,0
53880,note_off,360,0,5,,,,,,,,,5,,,48,0
53880,note_off,0,0,2,,,,,,,,,2,,,65,0
54000,note_on,0,0,2,,,,,,,,,2,,,65,78
54000,note_on,120,0,4,,,,,,,,,4,,,53,78
54000,note_on,120,0,5,,,,,,,,,5,,,50,78
54000,note_on,120,0,1,,,,,,,,,1,,,70,78
54000,note_on,120,0,2,,,,,,,,,2,,,58,78
54115,note_off,115,0,1,,,,,,,,,1,,,70,0
54120,note_on,5,0,1,,,,,,,,,1,,,72,81
54180,note_off,60,0,1,,,,,,,,,1,,,72,0
54180,note_on,0,0,1,,,,,,,,,1,,,70,82
54240,note_off,60,0,1,,,,,,,,,1,,,70,0
54240,note_on,0,0,1,,,,,,,,,1,,,69,84
54300,note_off,60,0,1,,,,,,,,,1,,,69,0
54300,note_on,0,0,1,,,,,,,,,1,,,70,85
54360,note_on,0,0,5,,,,,,,,,5,,,48,87
54360,note_off,60,0,1,,,,,,,,,1,,,70,0
54360,note_on,0,0,1,,,,,,,,,1,,,72,87
54360,note_off,360,0,5,,,,,,,,,5,,,50,0
54480,set_tempo,1200,1,0,,,,,,500000,,,,,,,
54480,note_off,120,0,1,,,,,,,,,1,,,72,0
54480,note_on,0,0,1,,,,,,,,,1,,,74,93
54480,note_off,120,0,5,,,,,,,,,5,,,48,0
54480,note_on,0,0,5,,,,,,,,,5,,,46,93
54660,note_off,660,0,2,,,,,,,,,2,,,58,0
54660,note_on,0,0,1,,,,,,,,,1,,,86,105
54660,note_on,180,0,5,,,,,,,,,5,,,74,105
54660,note_off,180,0,1,,,,,,,,,1,,,74,0
54665,note_off,5,0,2,,,,,,,,,2,,,65,0
54665,note_off,665,0,4,,,,,,,,,4,,,53,0
54672,note_off,12,0,5,,,,,,,,,5,,,46,0
54720,note_off,48,0,5,,,,,,,,,5,,,74,0
54720,note_on,0,0,5,,,,,,,,,5,,,77,113
54720,set_tempo,240,1,0,,,,,,495867,,,,,,,
54720,note_off,60,0,1,,,,,,,,,1,,,86,0
54720,note_on,0,0,1,,,,,,,,,1,,,89,113
55680,note_off,960,0,1,,,,,,,,,1,,,89,0
55680,note_on,0,0,1,,,,,,,,,1,,,86,58
55680,note_on,0,0,5,,,,,,,,,5,,,74,58
55680,note_off,960,0,5,,,,,,,,,5,,,77,0
55920,note_on,0,0,1,,,,,,,,,1,,,82,56
55920,note_off,240,0,5,,,,,,,,,5,,,74,0
55920,note_on,0,0,5,,,,,,,,,5,,,70,56
55920,note_off,240,0,1,,,,,,,,,1,,,86,0
56160,note_off,240,0,5,,,,,,,,,5,,,70,0
56160,note_on,0,0,5,,,,,,,,,5,,,65,54
56160,note_off,240,0,1,,,,,,,,,1,,,82,0
56160,note_on,0,0,1,,,,,,,,,1,,,77,54
56400,note_off,240,0,1,,,,,,,,,1,,,77,0
56400,note_off,240,0,5,,,,,,,,,5,,,65,0
56400,note_on,0,0,5,,,,,,,,,5,,,62,52
56400,note_on,0,0,1,,,,,,,,,1,,,74,52
56640,note_off,240,0,5,,,,,,,,,5,,,62,0
56640,note_on,0,0,5,,,,,,,,,5,,,58,50
56640,note_on,0,0,1,,,,,,,,,1,,,70,50
56640,note_off,240,0,1,,,,,,,,,1,,,74,0
56880,note_off,240,0,1,,,,,,,,,1,,,70,0
56880,note_off,240,0,5,,,,,,,,,5,,,58,0
56880,note_on,0,0,1,,,,,,,,,1,,,67,47
56880,note_on,0,0,5,,,,,,,,,5,,,55,47
57120,note_off,240,0,5,,,,,,,,,5,,,55,0
57120,note_on,0,0,5,,,,,,,,,5,,,61,45
57120,note_off,240,0,1,,,,,,,,,1,,,67,0
57120,note_on,0,0,1,,,,,,,,,1,,,73,45
57360,note_on,0,0,1,,,,,,,,,1,,,74,43
57360,set_tempo,2640,1,0,,,,,,500000,,,,,,,
57360,note_on,0,0,5,,,,,,,,,5,,,62,43
57360,note_off,240,0,5,,,,,,,,,5,,,61,0
57360,note_off,240,0,1,,,,,,,,,1,,,73,0
57540,note_on,180,0,1,,,,,,,,,1,,,67,42
57552,note_off,12,0,1,,,,,,,,,1,,,74,0
57552,note_off,192,0,5,,,,,,,,,5,,,62,0
57600,note_off,48,0,1,,,,,,,,,1,,,67,0
57600,note_on,2935,0,2,,,,,,,,,2,,,60,43
57600,note_on,2935,0,4,,,,,,,,,4,,,57,43
57600,note_on,48,0,5,,,,,,,,,5,,,48,43
57600,note_on,0,0,1,,,,,,,,,1,,,65,43
57960,note_off,360,0,1,,,,,,,,,1,,,65,0
57960,note_on,0,0,1,,,,,,,,,1,,,64,42
58080,note_off,120,0,1,,,,,,,,,1,,,64,0
58080,note_on,0,0,1,,,,,,,,,1,,,65,41
58320,note_on,0,0,2,,,,,,,,,2,,,64,45
58320,note_on,0,0,1,,,,,,,,,1,,,69,45
58320,note_off,720,0,2,,,,,,,,,2,,,60,0
58320,note_off,240,0,1,,,,,,,,,1,,,65,0
58320,note_off,720,0,4,,,,,,,,,4,,,57,0
58320,note_on,0,0,4,,,,,,,,,4,,,58,45
58800,note_off,480,0,1,,,,,,,,,1,,,69,0
58800,set_tempo,1440,1,0,,,,,,535714,,,,,,,
58800,note_on,0,0,1,,,,,,,,,1,,,67,38
58980,note_off,660,0,4,,,,,,,,,4,,,58,0
58985,note_off,1385,0,5,,,,,,,,,5,,,48,0
58990,note_off,670,0,2,,,,,,,,,2,,,64,0
58992,note_off,192,0,1,,,,,,,,,1,,,67,0
59040,note_on,48,0,1,,,,,,,,,1,,,65,51
59040,note_on,9888,0,3,,,,,,,,,3,,,53,51
59040,set_tempo,240,1,0,,,,,,495867,,,,,,,
59040,note_on,55,0,5,,,,,,,,,5,,,57,51
59160,note_on,120,0,1,,,,,,,,,1,,,77,41
59232,note_off,192,0,3,,,,,,,,,3,,,53,0
59275,note_off,115,0,1,,,,,,,,,1,,,65,0
59280,note_on,48,0,3,,,,,,,,,3,,,53,41
59280,note_on,0,0,1,,,,,,,,,1,,,77,41
59280,note_on,290,0,2,,,,,,,,,2,,,65,41
59280,note_off,5,0,1,,,,,,,,,1,,,77,0
59472,note_off,192,0,3,,,,,,,,,3,,,53,0
59520,note_on,0,0,5,,,,,,,,,5,,,60,41
59520,note_off,480,0,5,,,,,,,,,5,,,57,0
59520,note_on,48,0,3,,,,,,,,,3,,,53,41
59700,note_off,420,0,2,,,,,,,,,2,,,65,0
59700,note_off,420,0,1,,,,,,,,,1,,,77,0
59712,note_off,192,0,3,,,,,,,,,3,,,53,0
59760,note_on,48,0,3,,,,,,,,,3,,,53,40
59760,note_on,0,0,5,,,,,,,,,5,,,61,40
59760,note_on,60,0,1,,,,,,,,,1,,,69,40
59760,note_off,240,0,5,,,,,,,,,5,,,60,0
59880,note_off,120,0,1,,,,,,,,,1,,,69,0
59880,note_on,0,0,1,,,,,,,,,1,,,81,40
59952,note_off,192,0,3,,,,,,,,,3,,,53,0
60000,note_on,300,0,2,,,,,,,,,2,,,69,40
60000,note_on,48,0,3,,,,,,,,,3,,,53,40
60000,note_on,0,0,1,,,,,,,,,1,,,81,40
60000,note_off,120,0,1,,,,,,,,,1,,,81,0
60192,note_off,192,0,3,,,,,,,,,3,,,53,0
60240,note_off,480,0,5,,,,,,,,,5,,,61,0
60240,note_on,0,0,5,,,,,,,,,5,,,60,39
60240,note_on,48,0,3,,,,,,,,,3,,,53,39
60420,note_off,420,0,1,,,,,,,,,1,,,81,0
60425,note_off,425,0,2,,,,,,,,,2,,,69,0
60430,note_off,190,0,5,,,,,,,,,5,,,60,0
60432,note_off,192,0,3,,,,,,,,,3,,,53,0
60480,note_on,1500,0,4,,,,,,,,,4,,,64,39
60480,note_on,50,0,5,,,,,,,,,5,,,58,39
60480,note_on,48,0,3,,,,,,,,,3,,,53,39
60480,note_on,60,0,1,,,,,,,,,1,,,67,39
60600,note_on,0,0,1,,,,,,,,,1,,,79,39
60600,note_off,120,0,1,,,,,,,,,1,,,67,0
60672,note_off,192,0,3,,,,,,,,,3,,,53,0
60720,note_on,48,0,3,,,,,,,,,3,,,53,38
60720,note_on,0,0,1,,,,,,,,,1,,,79,38
60720,note_off,120,0,1,,,,,,,,,1,,,79,0
60720,note_on,295,0,2,,,,,,,,,2,,,67,38
60912,note_off,192,0,3,,,,,,,,,3,,,53,0
60960,note_off,480,0,5,,,,,,,,,5,,,58,0
60960,note_on,0,0,5,,,,,,,,,5,,,61,38
60960,note_on,48,0,3,,,,,,,,,3,,,53,38
61140,note_off,420,0,2,,,,,,,,,2,,,67,0
61145,note_off,425,0,1,,,,,,,,,1,,,79,0
61152,note_off,192,0,3,,,,,,,,,3,,,53,0
61200,note_on,55,0,1,,,,,,,,,1,,,72,38
61200,note_off,240,0,5,,,,,,,,,5,,,61,0
61200,note_on,0,0,5,,,,,,,,,5,,,60,38
61200,note_on,48,0,3,,,,,,,,,3,,,53,38
61320,note_off,120,0,1,,,,,,,,,1,,,72,0
61320,note_on,0,0,1,,,,,,,,,1,,,84,37
61392,note_off,192,0,3,,,,,,,,,3,,,53,0
61440,note_off,120,0,1,,,,,,,,,1,,,84,0
61440,note_on,48,0,3,,,,,,,,,3,,,53,37
61440,note_on,0,0,1,,,,,,,,,1,,,84,37
61440,note_on,300,0,2,,,,,,,,,2,,,72,37
61632,note_off,192,0,3,,,,,,,,,3,,,53,0
61680,note_on,48,0,3,,,,,,,,,3,,,53,37
61680,note_off,480,0,5,,,,,,,,,5,,,60,0
61680,note_on,0,0,5,,,,,,,,,5,,,58,37
61800,set_tempo,2760,1,0,,,,,,500000,,,,,,,
61855,note_off,415,0,2,,,,,,,,,2,,,72,0
61860,note_off,1380,0,4,,,,,,,,,4,,,64,0
61860,note_off,420,0,1,,,,,,,,,1,,,84,0
61865,note_off,185,0,5,,,,,,,,,5,,,58,0
61872,note_off,192,0,3,,,,,,,,,3,,,53,0
61920,note_on,60,0,1,,,,,,,,,1,,,65,46
61920,note_on,55,0,5,,,,,,,,,5,,,57,46
61920,note_on,48,0,3,,,,,,,,,3,,,53,46
61920,set_tempo,120,1,0,,,,,,495867,,,,,,,
62040,note_on,120,0,1,,,,,,,,,1,,,77,46
62112,note_off,72,0,1,,,,,,,,,1,,,65,0
62112,note_off,192,0,3,,,,,,,,,3,,,53,0
62112,note_off,192,0,5,,,,,,,,,5,,,57,0
62160,note_on,0,0,1,,,,,,,,,1,,,77,36
62160,note_off,48,0,1,,,,,,,,,1,,,77,0
62160,note_on,305,0,2,,,,,,,,,2,,,65,36
62160,note_on,48,0,3,,,,,,,,,3,,,53,36
62352,note_off,192,0,3,,,,,,,,,3,,,53,0
62400,note_on,48,0,3,,,,,,,,,3,,,53,36
62400,note_on,288,0,5,,,,,,,,,5,,,60,36
62580,note_off,420,0,1,,,,,,,,,1,,,77,0
62580,note_off,420,0,2,,,,,,,,,2,,,65,0
62592,note_off,192,0,3,,,,,,,,,3,,,53,0
62640,note_on,0,0,5,,,,,,,,,5,,,61,35
62640,note_on,48,0,3,,,,,,,,,3,,,53,35
62640,note_on,60,0,1,,,,,,,,,1,,,69,35
62640,note_off,240,0,5,,,,,,,,,5,,,60,0
62760,note_off,120,0,1,,,,,,,,,1,,,69,0
62760,note_on,0,0,1,,,,,,,,,1,,,81,35
62832,note_off,192,0,3,,,,,,,,,3,,,53,0
62880,note_on,0,0,1,,,,,,,,,1,,,81,35
62880,note_off,120,0,1,,,,,,,,,1,,,81,0
62880,note_on,300,0,2,,,,,,,,,2,,,69,35
62880,note_on,48,0,3,,,,,,,,,3,,,53,35
63072,note_off,192,0,3,,,,,,,,,3,,,53,0
63120,note_off,480,0,5,,,,,,,,,5,,,61,0
63120,note_on,0,0,5,,,,,,,,,5,,,60,34
63120,note_on,48,0,3,,,,,,,,,3,,,53,34
63300,note_off,420,0,1,,,,,,,,,1,,,81,0
63310,note_off,190,0,5,,,,,,,,,5,,,60,0
63312,note_off,192,0,3,,,,,,,,,3,,,53,0
63315,note_off,435,0,2,,,,,,,,,2,,,69,0
63360,note_on,60,0,1,,,,,,,,,1,,,67,34
63360,note_on,1500,0,4,,,,,,,,,4,,,64,34
63360,note_on,48,0,3,,,,,,,,,3,,,53,34
63360,note_on,50,0,5,,,,,,,,,5,,,58,34
63480,note_off,120,0,1,,,,,,,,,1,,,67,0
63480,note_on,0,0,1,,,,,,,,,1,,,79,34
63552,note_off,192,0,3,,,,,,,,,3,,,53,0
63600,note_on,285,0,2,,,,,,,,,2,,,67,34
63600,note_on,0,0,1,,,,,,,,,1,,,79,34
63600,note_off,120,0,1,,,,,,,,,1,,,79,0
63600,note_on,48,0,3,,,,,,,,,3,,,53,34
63792,note_off,192,0,3,,,,,,,,,3,,,53,0
63840,note_on,0,0,5,,,,,,,,,5,,,61,33
63840,note_on,48,0,3,,,,,,,,,3,,,53,33
63840,note_off,480,0,5,,,,,,,,,5,,,58,0
64020,note_off,420,0,2,,,,,,,,,2,,,67,0
64025,note_off,425,0,1,,,,,,,,,1,,,79,0
64032,note_off,192,0,3,,,,,,,,,3,,,53,0
64080,note_off,240,0,5,,,,,,,,,5,,,61,0
64080,note_on,0,0,5,,,,,,,,,5,,,60,33
64080,note_on,55,0,1,,,,,,,,,1,,,72,33
64080,note_on,48,0,3,,,,,,,,,3,,,53,33
64200,note_on,0,0,1,,,,,,,,,1,,,84,33
64200,note_off,120,0,1,,,,,,,,,1,,,72,0
64272,note_off,192,0,3,,,,,,,,,3,,,53,0
64320,note_off,120,0,1,,,,,,,,,1,,,84,0
64320,note_on,48,0,3,,,,,,,,,3,,,53,32
64320,note_on,300,0,2,,,,,,,,,2,,,72,32
64320,note_on,0,0,1,,,,,,,,,1,,,84,32
64512,note_off,192,0,3,,,,,,,,,3,,,53,0
64560,note_off,480,0,5,,,,,,,,,5,,,60,0
64560,note_on,0,0,5,,,,,,,,,5,,,58,32
64560,note_on,48,0,3,,,,,,,,,3,,,53,32
64680,set_tempo,2760,1,0,,,,,,500000,,,,,,,
64735,note_off,415,0,2,,,,,,,,,2,,,72,0
64740,note_off,1380,0,4,,,,,,,,,4,,,64,0
64740,note_off,420,0,1,,,,,,,,,1,,,84,0
64745,note_off,185,0,5,,,,,,,,,5,,,58,0
64752,note_off,192,0,3,,,,,,,,,3,,,53,0
64800,note_on,55,0,5,,,,,,,,,5,,,65,32
64800,note_on,0,0,5,,,,,,,,,5,,,57,32
64800,set_tempo,120,1,0,,,,,,495867,,,,,,,
64800,note_on,48,0,3,,,,,,,,,3,,,53,32
64800,note_on,60,0,1,,,,,,,,,1,,,77,32
64992,note_off,0,0,5,,,,,,,,,5,,,65,0
64992,note_off,192,0,1,,,,,,,,,1,,,77,0
64992,note_off,192,0,3,,,,,,,,,3,,,53,0
64992,note_off,192,0,5,,,,,,,,,5,,,57,0
65040,note_on,48,0,5,,,,,,,,,5,,,64,52
65040,note_on,48,0,1,,,,,,,,,1,,,76,52
65280,note_on,0,0,5,,,,,,,,,5,,,65,40
65280,note_off,240,0,5,,,,,,,,,5,,,64,0
65280,note_off,240,0,1,,,,,,,,,1,,,76,0
65280,note_on,0,0,1,,,,,,,,,1,,,77,40
65520,note_on,0,0,1,,,,,,,,,1,,,72,36
65520,note_on,0,0,5,,,,,,,,,5,,,60,36
65520,note_off,240,0,5,,,,,,,,,5,,,65,0
65520,note_off,240,0,1,,,,,,,,,1,,,77,0
65760,note_on,0,0,1,,,,,,,,,1,,,69,33
65760,note_off,240,0,1,,,,,,,,,1,,,72,0
65760,note_on,0,0,5,,,,,,,,,5,,,57,33
65760,note_off,240,0,5,,,,,,,,,5,,,60,0
66000,note_on,0,0,1,,,,,,,,,1,,,65,30
66000,note_off,240,0,1,,,,,,,,,1,,,69,0
66000,note_on,0,0,5,,,,,,,,,5,,,53,30
66000,note_off,240,0,5,,,,,,,,,5,,,57,0
66120,set_tempo,1320,1,0,,,,,,535714,,,,,,,
66192,note_off,192,0,5,,,,,,,,,5,,,53,0
66192,note_off,192,0,1,,,,,,,,,1,,,65,0
66240,note_on,48,0,1,,,,,,,,,1,,,68,32
66240,set_tempo,120,1,0,,,,,,495867,,,,,,,
66240,note_on,1505,0,2,,,,,,,,,2,,,61,32
66240,note_on,48,0,5,,,,,,,,,5,,,46,32
66240,note_on,1500,0,4,,,,,,,,,4,,,54,32
66360,note_off,120,0,1,,,,,,,,,1,,,68,0
66360,note_on,0,0,1,,,,,,,,,1,,,67,33
66425,note_off,185,0,5,,,,,,,,,5,,,46,0
66432,note_off,192,0,2,,,,,,,,,2,,,61,0
66432,note_off,192,0,4,,,,,,,,,4,,,54,0
66456,note_off,96,0,1,,,,,,,,,1,,,67,0
66480,note_on,48,0,4,,,,,,,,,4,,,54,43
66480,note_on,48,0,2,,,,,,,,,2,,,61,43
66480,note_on,55,0,5,,,,,,,,,5,,,46,43
66480,note_on,24,0,1,,,,,,,,,1,,,67,43
66840,note_off,360,0,4,,,,,,,,,4,,,54,0
66840,note_off,360,0,5,,,,,,,,,5,,,46,0
66840,note_off,360,0,2,,,,,,,,,2,,,61,0
66840,note_off,360,0,1,,,,,,,,,1,,,67,0
66960,note_on,120,0,1,,,,,,,,,1,,,68,39
66960,note_on,120,0,5,,,,,,,,,5,,,46,39
66960,note_on,120,0,4,,,,,,,,,4,,,54,39
66960,note_on,120,0,2,,,,,,,,,2,,,61,39
67080,note_off,120,0,1,,,,,,,,,1,,,68,0
67080,note_on,0,0,1,,,,,,,,,1,,,67,41
67145,note_off,185,0,5,,,,,,,,,5,,,46,0
67152,note_off,192,0,2,,,,,,,,,2,,,61,0
67152,note_off,192,0,4,,,,,,,,,4,,,54,0
67176,note_off,96,0,1,,,,,,,,,1,,,67,0
67200,note_on,48,0,2,,,,,,,,,2,,,61,50
67200,note_on,48,0,4,,,,,,,,,4,,,54,50
67200,note_on,55,0,5,,,,,,,,,5,,,46,50
67200,note_on,24,0,1,,,,,,,,,1,,,67,50
67560,note_off,360,0,4,,,,,,,,,4,,,54,0
67560,note_off,360,0,5,,,,,,,,,5,,,46,0
67560,note_off,360,0,1,,,,,,,,,1,,,67,0
67560,note_off,360,0,2,,,,,,,,,2,,,61,0
67680,note_on,120,0,5,,,,,,,,,5,,,48,47
67680,note_on,120,0,4,,,,,,,,,4,,,57,47
67680,note_on,0,0,4,,,,,,,,,4,,,54,47
67680,note_on,120,0,1,,,,,,,,,1,,,70,47
67680,note_on,0,0,2,,,,,,,,,2,,,66,47
67680,note_on,120,0,2,,,,,,,,,2,,,63,47
67800,note_off,120,0,1,,,,,,,,,1,,,70,0
67800,note_on,0,0,1,,,,,,,,,1,,,69,48
67865,note_off,185,0,5,,,,,,,,,5,,,48,0
67872,note_off,192,0,2,,,,,,,,,2,,,66,0
67872,note_off,192,0,4,,,,,,,,,4,,,54,0
67872,note_off,0,0,4,,,,,,,,,4,,,57,0
67872,note_off,0,0,2,,,,,,,,,2,,,63,0
67896,note_off,96,0,1,,,,,,,,,1,,,69,0
67920,note_on,48,0,2,,,,,,,,,2,,,63,58
67920,note_on,24,0,1,,,,,,,,,1,,,69,58
67920,note_on,55,0,5,,,,,,,,,5,,,48,58
67920,note_on,0,0,4,,,,,,,,,4,,,54,58
67920,note_on,48,0,4,,,,,,,,,4,,,57,58
67920,note_on,0,0,2,,,,,,,,,2,,,66,58
68280,note_off,360,0,5,,,,,,,,,5,,,48,0
68280,note_off,0,0,2,,,,,,,,,2,,,63,0
68280,note_off,360,0,2,,,,,,,,,2,,,66,0
68280,note_off,360,0,4,,,,,,,,,4,,,54,0
68280,note_off,0,0,4,,,,,,,,,4,,,57,0
68280,note_off,360,0,1,,,,,,,,,1,,,69,0
68400,note_on,0,0,2,,,,,,,,,2,,,63,54
68400,note_on,120,0,2,,,,,,,,,2,,,66,54
68400,note_on,120,0,4,,,,,,,,,4,,,54,54
68400,note_on,120,0,1,,,,,,,,,1,,,70,54
68400,note_on,120,0,5,,,,,,,,,5,,,48,54
68400,note_on,0,0,4,,,,,,,,,4,,,57,54
68520,note_off,120,0,1,,,,,,,,,1,,,70,0
68520,note_on,0,0,1,,,,,,,,,1,,,69,55
68585,note_off,185,0,5,,,,,,,,,5,,,48,0
68592,note_off,192,0,2,,,,,,,,,2,,,63,0
68592,note_off,0,0,2,,,,,,,,,2,,,66,0
68592,note_off,0,0,4,,,,,,,,,4,,,54,0
68592,note_off,192,0,4,,,,,,,,,4,,,57,0
68616,note_off,96,0,1,,,,,,,,,1,,,69,0
68640,note_on,24,0,1,,,,,,,,,1,,,69,68
68640,note_on,0,0,4,,,,,,,,,4,,,57,68
68640,note_on,48,0,4,,,,,,,,,4,,,54,68
68640,note_on,48,0,2,,,,,,,,,2,,,66,68
68640,note_on,55,0,5,,,,,,,,,5,,,48,68
68640,note_on,0,0,2,,,,,,,,,2,,,63,68
69000,note_off,0,0,2,,,,,,,,,2,,,66,0
69000,note_off,360,0,5,,,,,,,,,5,,,48,0
69000,note_off,360,0,4,,,,,,,,,4,,,57,0
69000,note_off,0,0,4,,,,,,,,,4,,,54,0
69000,note_off,360,0,1,,,,,,,,,1,,,69,0
69000,note_off,360,0,2,,,,,,,,,2,,,63,0
69120,note_on,120,0,5,,,,,,,,,5,,,49,62
69120,note_on,120,0,2,,,,,,,,,2,,,61,62
69120,note_on,0,0,4,,,,,,,,,4,,,58,62
69120,note_on,0,0,2,,,,,,,,,2,,,66,62
69120,note_on,120,0,1,,,,,,,,,1,,,71,62
69120,note_on,120,0,4,,,,,,,,,4,,,54,62
69240,note_on,0,0,1,,,,,,,,,1,,,70,63
69240,note_off,120,0,1,,,,,,,,,1,,,71,0
69305,note_off,185,0,5,,,,,,,,,5,,,49,0
69312,note_off,0,0,4,,,,,,,,,4,,,54,0
69312,note_off,192,0,4,,,,,,,,,4,,,58,0
69312,note_off,192,0,2,,,,,,,,,2,,,66,0
69312,note_off,0,0,2,,,,,,,,,2,,,61,0
69336,note_off,96,0,1,,,,,,,,,1,,,70,0
69360,note_on,0,0,2,,,,,,,,,2,,,66,74
69360,note_on,48,0,2,,,,,,,,,2,,,61,74
69360,note_on,0,0,4,,,,,,,,,4,,,58,74
69360,note_on,55,0,5,,,,,,,,,5,,,49,74
69360,note_on,24,0,1,,,,,,,,,1,,,70,74
69360,note_on,48,0,4,,,,,,,,,4,,,54,74
69720,note_off,0,0,4,,,,,,,,,4,,,54,0
69720,note_off,360,0,4,,,,,,,,,4,,,58,0
69720,note_off,360,0,5,,,,,,,,,5,,,49,0
69720,note_off,0,0,2,,,,,,,,,2,,,61,0
69720,note_off,360,0,2,,,,,,,,,2,,,66,0
69720,note_off,360,0,1,,,,,,,,,1,,,70,0
69840,note_on,0,0,2,,,,,,,,,2,,,65,69
69840,note_on,120,0,4,,,,,,,,,4,,,56,69
69840,note_on,0,0,4,,,,,,,,,4,,,59,69
69840,note_on,120,0,2,,,,,,,,,2,,,68,69
69840,note_on,120,0,5,,,,,,,,,5,,,49,69
69840,note_on,120,0,1,,,,,,,,,1,,,75,69
69960,note_on,0,0,1,,,,,,,,,1,,,73,70
69960,note_off,120,0,1,,,,,,,,,1,,,75,0
70025,note_off,185,0,5,,,,,,,,,5,,,49,0
70032,note_off,192,0,4,,,,,,,,,4,,,59,0
70032,note_off,0,0,4,,,,,,,,,4,,,56,0
70032,note_off,0,0,2,,,,,,,,,2,,,68,0
70032,note_off,192,0,2,,,,,,,,,2,,,65,0
70056,note_off,96,0,1,,,,,,,,,1,,,73,0
70080,note_on,0,0,2,,,,,,,,,2,,,65,81
70080,note_on,24,0,1,,,,,,,,,1,,,73,81
70080,note_on,55,0,5,,,,,,,,,5,,,49,81
70080,note_on,0,0,4,,,,,,,,,4,,,59,81
70080,note_on,48,0,4,,,,,,,,,4,,,56,81
70080,note_on,48,0,2,,,,,,,,,2,,,68,81
70440,note_off,360,0,4,,,,,,,,,4,,,59,0
70440,note_off,0,0,4,,,,,,,,,4,,,56,0
70440,note_off,0,0,2,,,,,,,,,2,,,68,0
70440,note_off,360,0,2,,,,,,,,,2,,,65,0
70440,set_tempo,4200,1,0,,,,,,526315,,,,,,,
70440,note_off,360,0,5,,,,,,,,,5,,,49,0
70440,note_off,360,0,1,,,,,,,,,1,,,73,0
70560,set_tempo,120,1,0,,,,,,495867,,,,,,,
70560,note_on,120,0,5,,,,,,,,,5,,,61,77
70560,note_on,120,0,2,,,,,,,,,2,,,78,77
70560,note_on,120,0,1,,,,,,,,,1,,,83,77
70560,note_on,0,0,4,,,,,,,,,4,,,66,77
70560,note_on,120,0,4,,,,,,,,,4,,,70,77
70560,note_on,0,0,2,,,,,,,,,2,,,73,77
70680,note_off,120,0,1,,,,,,,,,1,,,83,0
70680,note_on,0,0,1,,,,,,,,,1,,,82,78
70745,note_off,185,0,5,,,,,,,,,5,,,61,0
70752,note_off,192,0,4,,,,,,,,,4,,,66,0
70752,note_off,0,0,4,,,,,,,,,4,,,70,0
70752,note_off,192,0,2,,,,,,,,,2,,,73,0
70752,note_off,0,0,2,,,,,,,,,2,,,78,0
70776,note_off,96,0,1,,,,,,,,,1,,,82,0
70800,note_on,0,0,2,,,,,,,,,2,,,73,88
70800,note_on,48,0,4,,,,,,,,,4,,,70,88
70800,note_on,0,0,4,,,,,,,,,4,,,66,88
70800,note_on,48,0,2,,,,,,,,,2,,,78,88
70800,note_on,24,0,1,,,,,,,,,1,,,82,88
70800,note_on,55,0,5,,,,,,,,,5,,,61,88
71160,note_off,360,0,1,,,,,,,,,1,,,82,0
71160,set_tempo,600,1,0,,,,,,500000,,,,,,,
71160,note_off,0,0,4,,,,,,,,,4,,,70,0
71160,note_off,360,0,4,,,,,,,,,4,,,66,0
71160,note_off,360,0,2,,,,,,,,,2,,,73,0
71160,note_off,0,0,2,,,,,,,,,2,,,78,0
71160,note_off,360,0,5,,,,,,,,,5,,,61,0
71280,note_on,120,0,5,,,,,,,,,5,,,61,89
71280,note_on,0,0,2,,,,,,,,,2,,,80,89
71280,note_on,120,0,2,,,,,,,,,2,,,77,89
71280,note_on,120,0,1,,,,,,,,,1,,,87,89
71280,note_on,0,0,4,,,,,,,,,4,,,68,89
71280,note_on,120,0,4,,,,,,,,,4,,,71,89
71400,note_off,120,0,1,,,,,,,,,1,,,87,0
71400,note_on,0,0,1,,,,,,,,,1,,,85,94
71465,note_off,185,0,5,,,,,,,,,5,,,61,0
71472,note_off,192,0,2,,,,,,,,,2,,,80,0
71472,note_off,0,0,2,,,,,,,,,2,,,77,0
71472,note_off,192,0,4,,,,,,,,,4,,,68,0
71472,note_off,0,0,4,,,,,,,,,4,,,71,0
71496,note_off,96,0,1,,,,,,,,,1,,,85,0
71520,note_on,0,0,2,,,,,,,,,2,,,80,102
71520,note_on,24,0,1,,,,,,,,,1,,,85,102
71520,note_on,55,0,5,,,,,,,,,5,,,61,102
71520,note_on,48,0,4,,,,,,,,,4,,,71,102
71520,note_on,0,0,4,,,,,,,,,4,,,68,102
71520,note_on,48,0,2,,,,,,,,,2,,,77,102
71760,set_tempo,600,1,0,,,,,,517241,,,,,,,
72000,set_tempo,240,1,0,,,,,,495867,,,,,,,
72192,note_off,672,0,1,,,,,,,,,1,,,85,0
72192,note_off,0,0,4,,,,,,,,,4,,,71,0
72192,note_off,672,0,2,,,,,,,,,2,,,80,0
72192,note_off,0,0,2,,,,,,,,,2,,,77,0
72192,note_off,672,0,4,,,,,,,,,4,,,68,0
72192,note_off,672,0,5,,,,,,,,,5,,,61,0
72240,note_on,0,0,4,,,,,,,,,4,,,68,79
72240,note_on,48,0,1,,,,,,,,,1,,,85,79
72240,note_on,0,0,2,,,,,,,,,2,,,77,79
72240,note_on,48,0,4,,,,,,,,,4,,,71,79
72240,note_on,48,0,5,,,,,,,,,5,,,61,79
72240,note_on,48,0,2,,,,,,,,,2,,,80,79
72432,note_off,192,0,2,,,,,,,,,2,,,77,0
72432,note_off,0,0,2,,,,,,,,,2,,,80,0
72432,note_off,0,0,4,,,,,,,,,4,,,71,0
72432,note_off,192,0,4,,,,,,,,,4,,,68,0
72432,note_off,192,0,5,,,,,,,,,5,,,61,0
72432,note_off,192,0,1,,,,,,,,,1,,,85,0
72480,note_on,48,0,2,,,,,,,,,2,,,80,82
72480,note_on,48,0,4,,,,,,,,,4,,,71,82
72480,note_on,48,0,1,,,,,,,,,1,,,85,82
72480,note_on,48,0,5,,,,,,,,,5,,,61,82
72480,note_on,0,0,4,,,,,,,,,4,,,68,82
72480,note_on,0,0,2,,,,,,,,,2,,,77,82
72672,note_off,192,0,4,,,,,,,,,4,,,68,0
72672,note_off,0,0,4,,,,,,,,,4,,,71,0
72672,note_off,192,0,5,,,,,,,,,5,,,61,0
72672,note_off,0,0,2,,,,,,,,,2,,,80,0
72672,note_off,192,0,1,,,,,,,,,1,,,85,0
72672,note_off,192,0,2,,,,,,,,,2,,,77,0
72720,note_on,48,0,4,,,,,,,,,4,,,71,85
72720,note_on,0,0,4,,,,,,,,,4,,,68,85
72720,note_on,48,0,5,,,,,,,,,5,,,61,85
72720,note_on,48,0,2,,,,,,,,,2,,,80,85
72720,note_on,48,0,1,,,,,,,,,1,,,85,85
72720,note_on,0,0,2,,,,,,,,,2,,,77,85
72912,note_off,192,0,4,,,,,,,,,4,,,68,0
72912,note_off,192,0,5,,,,,,,,,5,,,61,0
72912,note_off,192,0,1,,,,,,,,,1,,,85,0
72912,note_off,0,0,4,,,,,,,,,4,,,71,0
72912,note_off,0,0,2,,,,,,,,,2,,,80,0
72912,note_off,192,0,2,,,,,,,,,2,,,77,0
72960,note_on,0,0,4,,,,,,,,,4,,,68,89
72960,note_on,48,0,4,,,,,,,,,4,,,71,89
72960,note_on,0,0,2,,,,,,,,,2,,,77,89
72960,note_on,48,0,2,,,,,,,,,2,,,80,89
72960,note_on,48,0,5,,,,,,,,,5,,,61,89
72960,note_on,48,0,1,,,,,,,,,1,,,85,89
73152,note_off,192,0,4,,,,,,,,,4,,,68,0
73152,note_off,192,0,1,,,,,,,,,1,,,85,0
73152,note_off,0,0,4,,,,,,,,,4,,,71,0
73152,note_off,0,0,2,,,,,,,,,2,,,80,0
73152,note_off,192,0,2,,,,,,,,,2,,,77,0
73152,note_off,192,0,5,,,,,,,,,5,,,61,0
73200,note_on,48,0,2,,,,,,,,,2,,,80,92
73200,note_on,48,0,4,,,,,,,,,4,,,71,92
73200,note_on,48,0,1,,,,,,,,,1,,,85,92
73200,note_on,48,0,5,,,,,,,,,5,,,61,92
73200,note_on,0,0,2,,,,,,,,,2,,,77,92
73200,note_on,0,0,4,,,,,,,,,4,,,68,92
73392,note_off,192,0,2,,,,,,,,,2,,,77,0
73392,note_off,192,0,1,,,,,,,,,1,,,85,0
73392,note_off,0,0,2,,,,,,,,,2,,,80,0
73392,note_off,192,0,5,,,,,,,,,5,,,61,0
73392,note_off,192,0,4,,,,,,,,,4,,,68,0
73392,note_off,0,0,4,,,,,,,,,4,,,71,0
73440,note_on,48,0,2,,,,,,,,,2,,,83,105
73440,note_on,0,0,5,,,,,,,,,5,,,65,105
73440,note_on,0,0,5,,,,,,,,,5,,,61,105
73440,note_on,48,0,5,,,,,,,,,5,,,80,105
73440,note_on,48,0,1,,,,,,,,,1,,,89,105
73440,note_on,48,0,4,,,,,,,,,4,,,71,105
73680,note_off,240,0,1,,,,,,,,,1,,,89,0
73680,note_on,0,0,1,,,,,,,,,1,,,89,98
73680,note_off,0,0,5,,,,,,,,,5,,,80,0
73680,note_off,240,0,5,,,,,,,,,5,,,65,0
73680,note_off,240,0,4,,,,,,,,,4,,,71,0
73680,note_off,0,0,5,,,,,,,,,5,,,61,0
73680,note_on,0,0,2,,,,,,,,,2,,,83,98
73680,note_off,240,0,2,,,,,,,,,2,,,83,0
73680,note_on,0,0,4,,,,,,,,,4,,,71,98
73680,note_on,0,0,5,,,,,,,,,5,,,79,98
73680,note_on,0,0,5,,,,,,,,,5,,,61,98
73680,note_on,0,0,5,,,,,,,,,5,,,67,98
73872,note_off,192,0,1,,,,,,,,,1,,,89,0
73872,note_off,192,0,4,,,,,,,,,4,,,71,0
73872,note_off,192,0,2,,,,,,,,,2,,,83,0
73872,note_off,0,0,5,,,,,,,,,5,,,79,0
73872,note_off,0,0,5,,,,,,,,,5,,,67,0
73872,note_off,192,0,5,,,,,,,,,5,,,61,0
73920,note_on,48,0,1,,,,,,,,,1,,,89,101
73920,note_on,48,0,5,,,,,,,,,5,,,77,101
73920,note_on,0,0,5,,,,,,,,,5,,,68,101
73920,note_on,48,0,2,,,,,,,,,2,,,83,101
73920,note_on,0,0,5,,,,,,,,,5,,,61,101
73920,note_on,48,0,4,,,,,,,,,4,,,71,101
74112,note_off,192,0,4,,,,,,,,,4,,,71,0
74112,note_off,192,0,2,,,,,,,,,2,,,83,0
74112,note_off,192,0,1,,,,,,,,,1,,,89,0
74112,note_off,192,0,5,,,,,,,,,5,,,61,0
74112,note_off,0,0,5,,,,,,,,,5,,,68,0
74112,note_off,0,0,5,,,,,,,,,5,,,77,0
74160,note_on,48,0,2,,,,,,,,,2,,,83,114
74160,note_on,48,0,4,,,,,,,,,4,,,71,114
74160,note_on,0,0,5,,,,,,,,,5,,,65,114
74160,note_on,48,0,1,,,,,,,,,1,,,89,114
74160,note_on,48,0,5,,,,,,,,,5,,,80,114
74160,note_on,0,0,5,,,,,,,,,5,,,61,114
74400,note_off,240,0,5,,,,,,,,,5,,,65,0
74400,note_off,0,0,5,,,,,,,,,5,,,61,0
74400,note_on,0,0,1,,,,,,,,,1,,,89,108
74400,note_on,0,0,2,,,,,,,,,2,,,83,108
74400,note_off,240,0,2,,,,,,,,,2,,,83,0
74400,note_off,240,0,1,,,,,,,,,1,,,89,0
74400,note_on,0,0,5,,,,,,,,,5,,,79,108
74400,note_on,0,0,5,,,,,,,,,5,,,61,108
74400,note_on,0,0,5,,,,,,,,,5,,,67,108
74400,note_on,0,0,4,,,,,,,,,4,,,71,108
74400,note_off,240,0,4,,,,,,,,,4,,,71,0
74400,note_off,0,0,5,,,,,,,,,5,,,80,0
74592,note_off,192,0,5,,,,,,,,,5,,,67,0
74592,note_off,192,0,4,,,,,,,,,4,,,71,0
74592,note_off,0,0,5,,,,,,,,,5,,,61,0
74592,note_off,192,0,2,,,,,,,,,2,,,83,0
74592,note_off,192,0,1,,,,,,,,,1,,,89,0
74592,note_off,0,0,5,,,,,,,,,5,,,79,0
74640,note_on,48,0,1,,,,,,,,,1,,,89,115
74640,note_on,48,0,2,,,,,,,,,2,,,83,115
74640,note_on,48,0,5,,,,,,,,,5,,,77,115
74640,set_tempo,2640,1,0,,,,,,500000,,,,,,,
74640,note_on,48,0,4,,,,,,,,,4,,,71,115
74640,note_on,0,0,5,,,,,,,,,5,,,61,115
74640,note_on,0,0,5,,,,,,,,,5,,,68,115
74832,note_off,192,0,5,,,,,,,,,5,,,68,0
74832,note_off,0,0,5,,,,,,,,,5,,,61,0
74832,note_off,0,0,5,,,,,,,,,5,,,77,0
74832,note_off,192,0,4,,,,,,,,,4,,,71,0
74832,note_off,192,0,2,,,,,,,,,2,,,83,0
74832,note_off,192,0,1,,,,,,,,,1,,,89,0
74880,control_change,9888,0,3,,,,,,,64,127,3,,,,
74880,note_on,0,0,4,,,,,,,,,4,,,65,124
74880,note_on,0,0,2,,,,,,,,,2,,,84,124
74880,control_change,48,0,4,,,,,,,64,127,4,,,,
74880,note_on,0,0,4,,,,,,,,,4,,,72,124
74880,note_on,0,0,2,,,,,,,,,2,,,81,124
74880,control_change,48,0,2,,,,,,,64,127,2,,,,
74880,set_tempo,240,1,0,,,,,,495867,,,,,,,
74880,control_change,48,0,5,,,,,,,64,127,5,,,,
74880,note_on,0,0,5,,,,,,,,,5,,,77,124
74880,note_on,0,0,5,,,,,,,,,5,,,69,124
74880,note_on,0,0,5,,,,,,,,,5,,,60,124
74880,control_change,48,0,1,,,,,,,64,127,1,,,,
74880,note_on,0,0,1,,,,,,,,,1,,,89,124
75840,note_off,960,0,2,,,,,,,,,2,,,81,0
75840,note_off,960,0,4,,,,,,,,,4,,,72,0
75840,note_off,0,0,4,,,,,,,,,4,,,65,0
75840,note_off,960,0,1,,,,,,,,,1,,,89,0
75840,note_on,0,0,5,,,,,,,,,5,,,72,63
75840,note_off,0,0,5,,,,,,,,,5,,,77,0
75840,note_off,0,0,5,,,,,,,,,5,,,69,0
75840,note_off,960,0,5,,,,,,,,,5,,,60,0
75840,note_on,0,0,1,,,,,,,,,1,,,84,63
75840,note_off,0,0,2,,,,,,,,,2,,,84,0
76080,note_off,240,0,5,,,,,,,,,5,,,72,0
76080,note_on,0,0,5,,,,,,,,,5,,,69,60
76080,note_off,240,0,1,,,,,,,,,1,,,84,0
76080,note_on,0,0,1,,,,,,,,,1,,,81,60
76320,note_on,0,0,1,,,,,,,,,1,,,77,57
76320,note_off,240,0,1,,,,,,,,,1,,,81,0
76320,note_off,240,0,5,,,,,,,,,5,,,69,0
76320,note_on,0,0,5,,,,,,,,,5,,,65,57
76560,note_off,0,0,5,,,,,,,,,5,,,65,0
76560,control_change,720,0,2,,,,,,,64,0,2,,,,
76560,control_change,1680,0,3,,,,,,,64,0,3,,,,
76560,note_on,0,0,1,,,,,,,,,1,,,72,55
76560,note_off,0,0,1,,,,,,,,,1,,,77,0
76560,control_change,240,0,1,,,,,,,64,0,1,,,,
76560,note_on,0,0,5,,,,,,,,,5,,,60,55
76560,control_change,240,0,5,,,,,,,64,0,5,,,,
76560,control_change,720,0,4,,,,,,,64,0,4,,,,
76800,note_on,0,0,5,,,,,,,,,5,,,57,52
76800,note_off,240,0,5,,,,,,,,,5,,,60,0
76800,note_off,240,0,1,,,,,,,,,1,,,72,0
76800,note_on,0,0,1,,,,,,,,,1,,,69,52
77040,note_on,0,0,1,,,,,,,,,1,,,65,49
77040,note_off,240,0,1,,,,,,,,,1,,,69,0
77040,note_off,240,0,5,,,,,,,,,5,,,57,0
77040,note_on,0,0,5,,,,,,,,,5,,,53,49
77280,note_on,0,0,1,,,,,,,,,1,,,62,46
77280,note_off,240,0,1,,,,,,,,,1,,,65,0
77280,note_on,0,0,5,,,,,,,,,5,,,50,46
77280,note_off,240,0,5,,,,,,,,,5,,,53,0
77520,note_on,0,0,1,,,,,,,,,1,,,59,43
77520,note_on,0,0,5,,,,,,,,,5,,,47,43
77520,set_tempo,2640,1,0,,,,,,500000,,,,,,,
77520,note_off,240,0,1,,,,,,,,,1,,,62,0
77520,note_off,240,0,5,,,,,,,,,5,,,50,0
77700,note_on,180,0,1,,,,,,,,,1,,,67,41
77712,note_off,192,0,5,,,,,,,,,5,,,47,0
77712,note_off,12,0,1,,,,,,,,,1,,,59,0
77760,note_on,48,0,5,,,,,,,,,5,,,48,41
77760,note_on,1200,0,4,,,,,,,,,4,,,57,41
77760,note_on,0,0,1,,,,,,,,,1,,,65,41
77760,note_on,1200,0,2,,,,,,,,,2,,,60,41
77760,note_off,48,0,1,,,,,,,,,1,,,67,0
78120,note_off,360,0,1,,,,,,,,,1,,,65,0
78120,note_on,0,0,1,,,,,,,,,1,,,64,38
78240,note_off,120,0,1,,,,,,,,,1,,,64,0
78240,note_on,0,0,1,,,,,,,,,1,,,65,37
78480,note_off,240,0,1,,,,,,,,,1,,,65,0
78480,note_on,0,0,1,,,,,,,,,1,,,69,40
78480,note_off,720,0,2,,,,,,,,,2,,,60,0
78480,note_on,0,0,2,,,,,,,,,2,,,64,40
78480,note_on,0,0,4,,,,,,,,,4,,,58,40
78480,note_off,720,0,4,,,,,,,,,4,,,57,0
78840,note_off,360,0,1,,,,,,,,,1,,,69,0
78960,note_on,120,0,1,,,,,,,,,1,,,67,32
78960,set_tempo,1440,1,0,,,,,,526315,,,,,,,
79147,note_off,1387,0,5,,,,,,,,,5,,,48,0
79147,note_off,667,0,2,,,,,,,,,2,,,64,0
79147,note_off,667,0,4,,,,,,,,,4,,,58,0
79152,note_off,192,0,1,,,,,,,,,1,,,67,0
79200,control_change,53,0,5,,,,,,,64,0,5,,,,
79200,note_on,0,0,1,,,,,,,,,1,,,65,30
79200,set_tempo,240,1,0,,,,,,495867,,,,,,,
79200,control_change,48,0,1,,,,,,,64,0,1,,,,
79200,note_on,0,0,1,,,,,,,,,1,,,53,30
79200,note_on,0,0,5,,,,,,,,,5,,,45,30
79200,control_change,53,0,4,,,,,,,64,0,4,,,,
79200,control_change,53,0,2,,,,,,,64,0,2,,,,
79200,note_on,0,0,3,,,,,,,,,3,,,41,30
79200,control_change,2640,0,3,,,,,,,64,0,3,,,,
79392,note_off,192,0,3,,,,,,,,,3,,,41,0
79440,note_on,48,0,3,,,,,,,,,3,,,41,30
79632,note_off,192,0,3,,,,,,,,,3,,,41,0
79680,note_on,48,0,3,,,,,,,,,3,,,41,31
79872,note_off,192,0,3,,,,,,,,,3,,,41,0
79920,note_on,0,0,1,,,,,,,,,1,,,57,32
79920,note_off,720,0,1,,,,,,,,,1,,,65,0
79920,note_on,48,0,3,,,,,,,,,3,,,41,32
79920,note_off,720,0,5,,,,,,,,,5,,,45,0
79920,note_on,0,0,5,,,,,,,,,5,,,48,32
80112,note_off,192,0,3,,,,,,,,,3,,,41,0
80160,note_on,48,0,3,,,,,,,,,3,,,41,33
80352,note_off,192,0,3,,,,,,,,,3,,,41,0
80400,note_on,48,0,3,,,,,,,,,3,,,41,33
80580,note_off,660,0,5,,,,,,,,,5,,,48,0
80580,note_off,660,0,1,,,,,,,,,1,,,53,0
80585,note_off,5,0,1,,,,,,,,,1,,,57,0
80592,note_off,192,0,3,,,,,,,,,3,,,41,0
80640,note_on,60,0,5,,,,,,,,,5,,,49,34
80640,note_on,48,0,3,,,,,,,,,3,,,41,34
80640,note_on,1440,0,2,,,,,,,,,2,,,55,34
80640,note_on,55,0,1,,,,,,,,,1,,,60,34
80640,note_on,0,0,2,,,,,,,,,2,,,52,34
80832,note_off,192,0,3,,,,,,,,,3,,,41,0
80880,note_on,48,0,3,,,,,,,,,3,,,41,35
81072,note_off,192,0,3,,,,,,,,,3,,,41,0
81120,note_on,48,0,3,,,,,,,,,3,,,41,36
81312,note_off,192,0,3,,,,,,,,,3,,,41,0
81360,note_on,0,0,1,,,,,,,,,1,,,58,36
81360,note_on,48,0,3,,,,,,,,,3,,,41,36
81360,note_on,0,0,2,,,,,,,,,2,,,55,36
81360,note_off,720,0,1,,,,,,,,,1,,,60,0
81360,note_off,720,0,2,,,,,,,,,2,,,55,0
81552,note_off,192,0,3,,,,,,,,,3,,,41,0
81600,note_on,48,0,3,,,,,,,,,3,,,41,37
81792,note_off,192,0,3,,,,,,,,,3,,,41,0
81840,note_off,480,0,2,,,,,,,,,2,,,55,0
81840,note_on,0,0,1,,,,,,,,,1,,,57,38
81840,note_off,480,0,1,,,,,,,,,1,,,58,0
81840,note_on,48,0,3,,,,,,,,,3,,,41,38
82025,note_off,1385,0,5,,,,,,,,,5,,,49,0
82025,note_off,185,0,2,,,,,,,,,2,,,52,0
82032,note_off,192,0,1,,,,,,,,,1,,,57,0
82032,note_off,192,0,3,,,,,,,,,3,,,41,0
82080,note_on,55,0,5,,,,,,,,,5,,,48,39
82080,note_on,48,0,1,,,,,,,,,1,,,55,39
82080,note_on,55,0,2,,,,,,,,,2,,,52,39
82080,note_on,48,0,3,,,,,,,,,3,,,41,39
82272,note_off,192,0,3,,,,,,,,,3,,,41,0
82320,note_on,48,0,3,,,,,,,,,3,,,41,39
82512,note_off,192,0,3,,,,,,,,,3,,,41,0
82560,note_on,48,0,3,,,,,,,,,3,,,41,40
82752,note_off,192,0,3,,,,,,,,,3,,,41,0
82800,note_on,48,0,3,,,,,,,,,3,,,41,41
82800,note_off,720,0,5,,,,,,,,,5,,,48,0
82800,note_on,0,0,5,,,,,,,,,5,,,46,41
82992,note_off,192,0,3,,,,,,,,,3,,,41,0
83040,note_on,0,0,1,,,,,,,,,1,,,58,42
83040,note_off,960,0,1,,,,,,,,,1,,,55,0
83040,note_on,48,0,3,,,,,,,,,3,,,41,42
83232,note_off,192,0,3,,,,,,,,,3,,,41,0
83280,note_on,0,0,1,,,,,,,,,1,,,61,42
83280,note_on,48,0,3,,,,,,,,,3,,,41,42
83280,note_off,240,0,1,,,,,,,,,1,,,58,0
83470,note_off,1390,0,2,,,,,,,,,2,,,52,0
83472,note_off,192,0,3,,,,,,,,,3,,,41,0
83472,note_off,192,0,1,,,,,,,,,1,,,61,0
83475,note_off,675,0,5,,,,,,,,,5,,,46,0
83520,note_on,48,0,3,,,,,,,,,3,,,41,45
83520,note_on,45,0,5,,,,,,,,,5,,,45,45
83520,note_on,50,0,2,,,,,,,,,2,,,53,45
83520,note_on,48,0,1,,,,,,,,,1,,,61,45
83712,note_off,192,0,3,,,,,,,,,3,,,41,0
83760,note_on,48,0,3,,,,,,,,,3,,,41,43
83952,note_off,192,0,3,,,,,,,,,3,,,41,0
84000,note_on,48,0,3,,,,,,,,,3,,,41,42
84192,note_off,192,0,3,,,,,,,,,3,,,41,0
84240,note_on,0,0,1,,,,,,,,,1,,,60,41
84240,note_off,720,0,1,,,,,,,,,1,,,61,0
84240,note_on,48,0,3,,,,,,,,,3,,,41,41
84432,note_off,192,0,3,,,,,,,,,3,,,41,0
84480,note_on,48,0,3,,,,,,,,,3,,,41,40
84672,note_off,192,0,3,,,,,,,,,3,,,41,0
84720,note_on,48,0,3,,,,,,,,,3,,,41,38
84840,set_tempo,5640,1,0,,,,,,500000,,,,,,,
84895,note_off,1375,0,2,,,,,,,,,2,,,53,0
84900,note_off,660,0,1,,,,,,,,,1,,,60,0
84905,note_off,1385,0,5,,,,,,,,,5,,,45,0
84912,note_off,192,0,3,,,,,,,,,3,,,41,0
84960,note_on,48,0,3,,,,,,,,,3,,,41,40
84960,set_tempo,120,1,0,,,,,,495867,,,,,,,
84960,note_on,60,0,1,,,,,,,,,1,,,53,40
84960,note_on,55,0,5,,,,,,,,,5,,,45,40
85152,note_off,192,0,3,,,,,,,,,3,,,41,0
85200,note_on,48,0,3,,,,,,,,,3,,,41,40
85392,note_off,192,0,3,,,,,,,,,3,,,41,0
85440,note_on,48,0,3,,,,,,,,,3,,,41,41
85632,note_off,192,0,3,,,,,,,,,3,,,41,0
85680,note_on,720,0,1,,,,,,,,,1,,,57,42
85680,note_on,48,0,3,,,,,,,,,3,,,41,42
85680,note_on,0,0,5,,,,,,,,,5,,,48,42
85680,note_off,720,0,5,,,,,,,,,5,,,45,0
85872,note_off,192,0,3,,,,,,,,,3,,,41,0
85920,note_on,48,0,3,,,,,,,,,3,,,41,42
86112,note_off,192,0,3,,,,,,,,,3,,,41,0
86160,note_on,48,0,3,,,,,,,,,3,,,41,43
86340,note_off,660,0,5,,,,,,,,,5,,,48,0
86340,note_off,660,0,1,,,,,,,,,1,,,53,0
86345,note_off,5,0,1,,,,,,,,,1,,,57,0
86352,note_off,192,0,3,,,,,,,,,3,,,41,0
86400,note_on,1505,0,2,,,,,,,,,2,,,55,44
86400,note_on,0,0,2,,,,,,,,,2,,,52,44
86400,note_on,48,0,3,,,,,,,,,3,,,41,44
86400,note_on,55,0,1,,,,,,,,,1,,,60,44
86400,note_on,60,0,5,,,,,,,,,5,,,49,44
86592,note_off,192,0,3,,,,,,,,,3,,,41,0
86640,note_on,48,0,3,,,,,,,,,3,,,41,44
86832,note_off,192,0,3,,,,,,,,,3,,,41,0
86880,note_on,48,0,3,,,,,,,,,3,,,41,45
87072,note_off,192,0,3,,,,,,,,,3,,,41,0
87120,note_on,48,0,3,,,,,,,,,3,,,41,45
87120,note_on,0,0,1,,,,,,,,,1,,,58,45
87120,note_off,720,0,1,,,,,,,,,1,,,60,0
87120,note_off,720,0,2,,,,,,,,,2,,,55,0
87120,note_on,0,0,2,,,,,,,,,2,,,55,45
87312,note_off,192,0,3,,,,,,,,,3,,,41,0
87360,note_on,48,0,3,,,,,,,,,3,,,41,46
87552,note_off,192,0,3,,,,,,,,,3,,,41,0
87600,note_off,480,0,2,,,,,,,,,2,,,55,0
87600,note_on,48,0,3,,,,,,,,,3,,,41,47
87600,note_on,0,0,1,,,,,,,,,1,,,57,47
87600,note_off,480,0,1,,,,,,,,,1,,,58,0
87785,note_off,185,0,2,,,,,,,,,2,,,52,0
87785,note_off,1385,0,5,,,,,,,,,5,,,49,0
87792,note_off,192,0,3,,,,,,,,,3,,,41,0
87792,note_off,192,0,1,,,,,,,,,1,,,57,0
87840,note_on,48,0,3,,,,,,,,,3,,,41,47
87840,note_on,48,0,1,,,,,,,,,1,,,55,47
87840,note_on,55,0,2,,,,,,,,,2,,,52,47
87840,note_on,55,0,5,,,,,,,,,5,,,48,47
88032,note_off,192,0,3,,,,,,,,,3,,,41,0
88080,note_on,48,0,3,,,,,,,,,3,,,41,48
88272,note_off,192,0,3,,,,,,,,,3,,,41,0
88320,note_on,48,0,3,,,,,,,,,3,,,41,49
88512,note_off,192,0,3,,,,,,,,,3,,,41,0
88560,note_on,48,0,3,,,,,,,,,3,,,41,49
88560,note_on,0,0,5,,,,,,,,,5,,,46,49
88560,note_off,720,0,5,,,,,,,,,5,,,48,0
88752,note_off,192,0,3,,,,,,,,,3,,,41,0
88800,note_on,0,0,1,,,,,,,,,1,,,58,50
88800,note_off,960,0,1,,,,,,,,,1,,,55,0
88800,note_on,48,0,3,,,,,,,,,3,,,41,50
88992,note_off,192,0,3,,,,,,,,,3,,,41,0
89040,note_on,0,0,1,,,,,,,,,1,,,61,50
89040,note_on,48,0,3,,,,,,,,,3,,,41,50
89040,note_off,240,0,1,,,,,,,,,1,,,58,0
89230,note_off,1390,0,2,,,,,,,,,2,,,52,0
89232,note_off,192,0,3,,,,,,,,,3,,,41,0
89232,note_off,192,0,1,,,,,,,,,1,,,61,0
89235,note_off,675,0,5,,,,,,,,,5,,,46,0
89280,note_on,50,0,2,,,,,,,,,2,,,53,54
89280,note_on,48,0,1,,,,,,,,,1,,,61,54
89280,note_on,45,0,5,,,,,,,,,5,,,45,54
89280,note_on,48,0,3,,,,,,,,,3,,,41,54
89472,note_off,192,0,3,,,,,,,,,3,,,41,0
89520,note_on,48,0,3,,,,,,,,,3,,,41,51
89712,note_off,192,0,3,,,,,,,,,3,,,41,0
89760,note_on,48,0,3,,,,,,,,,3,,,41,50
89952,note_off,192,0,3,,,,,,,,,3,,,41,0
90000,note_off,720,0,1,,,,,,,,,1,,,61,0
90000,note_on,48,0,3,,,,,,,,,3,,,41,50
90000,note_on,0,0,1,,,,,,,,,1,,,60,50
90192,note_off,192,0,3,,,,,,,,,3,,,41,0
90240,note_on,48,0,3,,,,,,,,,3,,,41,49
90432,note_off,192,0,3,,,,,,,,,3,,,41,0
90480,note_on,48,0,3,,,,,,,,,3,,,41,49
90600,set_tempo,5640,1,0,,,,,,500000,,,,,,,
90655,note_off,1375,0,2,,,,,,,,,2,,,53,0
90660,note_off,660,0,1,,,,,,,,,1,,,60,0
90665,note_off,1385,0,5,,,,,,,,,5,,,45,0
90672,note_off,192,0,3,,,,,,,,,3,,,41,0
90720,note_on,55,0,5,,,,,,,,,5,,,51,54
90720,set_tempo,120,1,0,,,,,,495867,,,,,,,
90720,note_on,48,0,3,,,,,,,,,3,,,41,54
90720,note_on,60,0,1,,,,,,,,,1,,,61,54
90720,note_on,65,0,2,,,,,,,,,2,,,57,54
90912,note_off,192,0,3,,,,,,,,,3,,,41,0
90960,note_on,48,0,3,,,,,,,,,3,,,41,48
91152,note_off,192,0,3,,,,,,,,,3,,,41,0
91200,note_on,48,0,3,,,,,,,,,3,,,41,47
91392,note_off,192,0,3,,,,,,,,,3,,,41,0
91440,note_on,0,0,1,,,,,,,,,1,,,60,47
91440,note_off,720,0,1,,,,,,,,,1,,,61,0
91440,note_on,48,0,3,,,,,,,,,3,,,41,47
91632,note_off,192,0,3,,,,,,,,,3,,,41,0
91680,note_on,48,0,3,,,,,,,,,3,,,41,46
91872,note_off,192,0,3,,,,,,,,,3,,,41,0
91920,note_on,48,0,3,,,,,,,,,3,,,41,46
92100,note_off,660,0,1,,,,,,,,,1,,,60,0
92100,note_off,1380,0,5,,,,,,,,,5,,,51,0
92100,note_off,1380,0,2,,,,,,,,,2,,,57,0
92112,note_off,192,0,3,,,,,,,,,3,,,41,0
92160,note_on,60,0,2,,,,,,,,,2,,,57,45
92160,note_on,48,0,3,,,,,,,,,3,,,41,45
92160,note_on,60,0,1,,,,,,,,,1,,,61,45
92160,note_on,60,0,5,,,,,,,,,5,,,51,45
92352,note_off,192,0,3,,,,,,,,,3,,,41,0
92400,note_on,48,0,3,,,,,,,,,3,,,41,45
92592,note_off,192,0,3,,,,,,,,,3,,,41,0
92640,note_on,48,0,3,,,,,,,,,3,,,41,44
92832,note_off,192,0,3,,,,,,,,,3,,,41,0
92880,note_on,0,0,1,,,,,,,,,1,,,60,44
92880,note_off,720,0,1,,,,,,,,,1,,,61,0
92880,note_on,48,0,3,,,,,,,,,3,,,41,44
93072,note_off,192,0,3,,,,,,,,,3,,,41,0
93120,note_on,48,0,3,,,,,,,,,3,,,41,43
93312,note_off,192,0,3,,,,,,,,,3,,,41,0
93360,note_on,48,0,3,,,,,,,,,3,,,41,43
93480,set_tempo,2760,1,0,,,,,,500000,,,,,,,
93540,note_off,1380,0,5,,,,,,,,,5,,,51,0
93540,note_off,1380,0,2,,,,,,,,,2,,,57,0
93540,note_off,660,0,1,,,,,,,,,1,,,60,0
93552,note_off,192,0,3,,,,,,,,,3,,,41,0
93600,note_on,60,0,1,,,,,,,,,1,,,60,50
93600,set_tempo,120,1,0,,,,,,495867,,,,,,,
93600,note_on,60,0,2,,,,,,,,,2,,,53,50
93600,note_on,48,0,3,,,,,,,,,3,,,41,50
93600,note_on,60,0,5,,,,,,,,,5,,,49,50
93792,note_off,192,0,3,,,,,,,,,3,,,41,0
93840,note_on,48,0,3,,,,,,,,,3,,,41,42
94032,note_off,192,0,3,,,,,,,,,3,,,41,0
94080,note_on,48,0,3,,,,,,,,,3,,,41,41
94272,note_off,192,0,3,,,,,,,,,3,,,41,0
94320,note_on,0,0,1,,,,,,,,,1,,,58,41
94320,note_off,720,0,1,,,,,,,,,1,,,60,0
94320,note_on,48,0,3,,,,,,,,,3,,,41,41
94512,note_off,192,0,3,,,,,,,,,3,,,41,0
94560,note_on,48,0,3,,,,,,,,,3,,,41,40
94752,note_off,192,0,3,,,,,,,,,3,,,41,0
94800,note_on,48,0,3,,,,,,,,,3,,,41,40
94980,note_off,1380,0,5,,,,,,,,,5,,,49,0
94980,note_off,1380,0,2,,,,,,,,,2,,,53,0
94980,note_off,660,0,1,,,,,,,,,1,,,58,0
94992,note_off,192,0,3,,,,,,,,,3,,,41,0
95040,note_on,60,0,1,,,,,,,,,1,,,60,39
95040,note_on,60,0,5,,,,,,,,,5,,,49,39
95040,note_on,60,0,2,,,,,,,,,2,,,53,39
95040,note_on,48,0,3,,,,,,,,,3,,,41,39
95232,note_off,192,0,3,,,,,,,,,3,,,41,0
95280,note_on,48,0,3,,,,,,,,,3,,,41,39
95472,note_off,192,0,3,,,,,,,,,3,,,41,0
95520,note_on,48,0,3,,,,,,,,,3,,,41,38
95712,note_off,192,0,3,,,,,,,,,3,,,41,0
95760,note_on,0,0,1,,,,,,,,,1,,,58,38
95760,note_on,48,0,3,,,,,,,,,3,,,41,38
95760,note_off,720,0,1,,,,,,,,,1,,,60,0
95952,note_off,192,0,3,,,,,,,,,3,,,41,0
96000,note_on,48,0,3,,,,,,,,,3,,,41,37
96192,note_off,192,0,3,,,,,,,,,3,,,41,0
96240,note_on,48,0,3,,,,,,,,,3,,,41,37
96360,set_tempo,2760,1,0,,,,,,500000,,,,,,,
96420,note_off,1380,0,2,,,,,,,,,2,,,53,0
96420,note_off,1380,0,5,,,,,,,,,5,,,49,0
96420,note_off,660,0,1,,,,,,,,,1,,,58,0
96432,note_off,192,0,3,,,,,,,,,3,,,41,0
96480,note_on,0,0,4,,,,,,,,,4,,,59,42
96480,note_on,60,0,5,,,,,,,,,5,,,41,42
96480,set_tempo,120,1,0,,,,,,495867,,,,,,,
96480,note_on,48,0,3,,,,,,,,,3,,,61,42
96480,note_on,0,0,3,,,,,,,,,3,,,49,42
96480,note_on,17280,0,4,,,,,,,,,4,,,53,42
96480,note_on,60,0,1,,,,,,,,,1,,,70,42
96672,note_off,192,0,3,,,,,,,,,3,,,49,0
96672,note_off,0,0,3,,,,,,,,,3,,,61,0
96720,note_on,0,0,3,,,,,,,,,3,,,61,36
96720,note_on,48,0,3,,,,,,,,,3,,,49,36
96912,note_off,0,0,3,,,,,,,,,3,,,49,0
96912,note_off,192,0,3,,,,,,,,,3,,,61,0
96960,note_on,0,0,3,,,,,,,,,3,,,61,36
96960,note_on,48,0,3,,,,,,,,,3,,,49,36
97152,note_off,0,0,3,,,,,,,,,3,,,49,0
97152,note_off,192,0,3,,,,,,,,,3,,,61,0
97200,note_on,0,0,1,,,,,,,,,1,,,68,35
97200,note_on,0,0,3,,,,,,,,,3,,,61,35
97200,note_on,48,0,3,,,,,,,,,3,,,49,35
97200,note_off,720,0,1,,,,,,,,,1,,,70,0
97392,note_off,0,0,3,,,,,,,,,3,,,49,0
97392,note_off,192,0,3,,,,,,,,,3,,,61,0
97440,note_on,48,0,3,,,,,,,,,3,,,49,35
97440,note_on,0,0,3,,,,,,,,,3,,,61,35
97632,note_off,0,0,3,,,,,,,,,3,,,49,0
97632,note_off,192,0,3,,,,,,,,,3,,,61,0
97680,note_on,0,0,3,,,,,,,,,3,,,61,34
97680,note_on,48,0,3,,,,,,,,,3,,,49,34
97865,note_off,1385,0,4,,,,,,,,,4,,,59,0
97865,note_off,0,0,4,,,,,,,,,4,,,53,0
97865,note_off,665,0,1,,,,,,,,,1,,,68,0
97865,note_off,1385,0,5,,,,,,,,,5,,,41,0
97872,note_off,0,0,3,,,,,,,,,3,,,49,0
97872,note_off,192,0,3,,,,,,,,,3,,,61,0
97920,note_on,55,0,5,,,,,,,,,5,,,41,34
97920,note_on,0,0,3,,,,,,,,,3,,,61,34
97920,note_on,55,0,4,,,,,,,,,4,,,59,34
97920,note_on,0,0,4,,,,,,,,,4,,,53,34
97920,note_on,55,0,1,,,,,,,,,1,,,70,34
97920,note_on,48,0,3,,,,,,,,,3,,,49,34
98112,note_off,192,0,3,,,,,,,,,3,,,61,0
98112,note_off,0,0,3,,,,,,,,,3,,,49,0
98160,note_on,48,0,3,,,,,,,,,3,,,49,33
98160,note_on,0,0,3,,,,,,,,,3,,,61,33
98352,note_off,0,0,3,,,,,,,,,3,,,49,0
98352,note_off,192,0,3,,,,,,,,,3,,,61,0
98400,note_on,0,0,3,,,,,,,,,3,,,61,33
98400,note_on,48,0,3,,,,,,,,,3,,,49,33
98592,note_off,0,0,3,,,,,,,,,3,,,49,0
98592,note_off,192,0,3,,,,,,,,,3,,,61,0
98640,note_on,0,0,3,,,,,,,,,3,,,61,32
98640,note_on,48,0,3,,,,,,,,,3,,,49,32
98640,note_on,0,0,1,,,,,,,,,1,,,68,32
98640,note_off,720,0,1,,,,,,,,,1,,,70,0
98832,note_off,0,0,3,,,,,,,,,3,,,49,0
98832,note_off,192,0,3,,,,,,,,,3,,,61,0
98880,note_on,48,0,3,,,,,,,,,3,,,49,32
98880,note_on,0,0,3,,,,,,,,,3,,,61,32
99072,note_off,0,0,3,,,,,,,,,3,,,49,0
99072,note_off,192,0,3,,,,,,,,,3,,,61,0
99120,note_on,48,0,3,,,,,,,,,3,,,49,31
99120,note_on,0,0,3,,,,,,,,,3,,,61,31
99240,set_tempo,2760,1,0,,,,,,500000,,,,,,,
99305,note_off,0,0,4,,,,,,,,,4,,,59,0
99305,note_off,1385,0,4,,,,,,,,,4,,,53,0
99305,note_off,665,0,1,,,,,,,,,1,,,68,0
99305,note_off,1385,0,5,,,,,,,,,5,,,41,0
99312,note_off,192,0,3,,,,,,,,,3,,,61,0
99312,note_off,0,0,3,,,,,,,,,3,,,49,0
99360,note_on,0,0,4,,,,,,,,,4,,,58,36
99360,note_on,55,0,4,,,,,,,,,4,,,54,36
99360,note_on,55,0,5,,,,,,,,,5,,,42,36
99360,note_on,0,0,3,,,,,,,,,3,,,61,36
99360,note_on,48,0,3,,,,,,,,,3,,,49,36
99360,note_on,55,0,1,,,,,,,,,1,,,68,36
99360,set_tempo,120,1,0,,,,,,495867,,,,,,,
99552,note_off,0,0,3,,,,,,,,,3,,,49,0
99552,note_off,192,0,3,,,,,,,,,3,,,61,0
99600,note_on,48,0,3,,,,,,,,,3,,,49,30
99600,note_on,0,0,3,,,,,,,,,3,,,61,30
99792,note_off,0,0,3,,,,,,,,,3,,,49,0
99792,note_off,192,0,3,,,,,,,,,3,,,61,0
99840,note_on,0,0,3,,,,,,,,,3,,,61,30
99840,note_on,48,0,3,,,,,,,,,3,,,49,30
100032,note_off,0,0,3,,,,,,,,,3,,,49,0
100032,note_off,192,0,3,,,,,,,,,3,,,61,0
100080,note_off,720,0,1,,,,,,,,,1,,,68,0
100080,note_on,0,0,1,,,,,,,,,1,,,66,29
100080,note_on,0,0,3,,,,,,,,,3,,,61,29
100080,note_on,48,0,3,,,,,,,,,3,,,49,29
100272,note_off,0,0,3,,,,,,,,,3,,,49,0
100272,note_off,192,0,3,,,,,,,,,3,,,61,0
100320,note_on,48,0,3,,,,,,,,,3,,,49,29
100320,note_on,0,0,3,,,,,,,,,3,,,61,29
100512,note_off,192,0,3,,,,,,,,,3,,,61,0
100512,note_off,0,0,3,,,,,,,,,3,,,49,0
100560,note_on,48,0,3,,,,,,,,,3,,,49,28
100560,note_on,0,0,3,,,,,,,,,3,,,61,28
100740,note_off,1380,0,4,,,,,,,,,4,,,54,0
100740,note_off,1380,0,5,,,,,,,,,5,,,42,0
100745,note_off,5,0,4,,,,,,,,,4,,,58,0
100745,note_off,665,0,1,,,,,,,,,1,,,66,0
100752,note_off,192,0,3,,,,,,,,,3,,,61,0
100752,note_off,0,0,3,,,,,,,,,3,,,49,0
100800,note_on,55,0,4,,,,,,,,,4,,,58,28
100800,note_on,48,0,3,,,,,,,,,3,,,49,28
100800,note_on,0,0,3,,,,,,,,,3,,,61,28
100800,note_on,55,0,1,,,,,,,,,1,,,68,28
100800,note_on,0,0,4,,,,,,,,,4,,,54,28
100800,note_on,60,0,5,,,,,,,,,5,,,42,28
100992,note_off,0,0,3,,,,,,,,,3,,,49,0
100992,note_off,192,0,3,,,,,,,,,3,,,61,0
101040,note_on,48,0,3,,,,,,,,,3,,,49,27
101040,note_on,0,0,3,,,,,,,,,3,,,61,27
101232,note_off,192,0,3,,,,,,,,,3,,,61,0
101232,note_off,0,0,3,,,,,,,,,3,,,49,0
101280,note_on,48,0,3,,,,,,,,,3,,,49,27
101280,note_on,0,0,3,,,,,,,,,3,,,61,27
101472,note_off,192,0,3,,,,,,,,,3,,,61,0
101472,note_off,0,0,3,,,,,,,,,3,,,49,0
101520,note_off,720,0,1,,,,,,,,,1,,,68,0
101520,note_on,0,0,1,,,,,,,,,1,,,66,26
101520,note_on,0,0,3,,,,,,,,,3,,,61,26
101520,note_on,48,0,3,,,,,,,,,3,,,49,26
101712,note_off,192,0,3,,,,,,,,,3,,,61,0
101712,note_off,0,0,3,,,,,,,,,3,,,49,0
101760,note_on,48,0,3,,,,,,,,,3,,,49,26
101760,note_on,0,0,3,,,,,,,,,3,,,61,26
101952,note_off,192,0,3,,,,,,,,,3,,,61,0
101952,note_off,0,0,3,,,,,,,,,3,,,49,0
102000,note_on,48,0,3,,,,,,,,,3,,,49,25
102000,note_on,0,0,3,,,,,,,,,3,,,61,25
102120,set_tempo,2760,1,0,,,,,,500000,,,,,,,
102180,note_off,1380,0,5,,,,,,,,,5,,,42,0
102180,note_off,1380,0,4,,,,,,,,,4,,,54,0
102185,note_off,5,0,4,,,,,,,,,4,,,58,0
102185,note_off,665,0,1,,,,,,,,,1,,,66,0
102192,note_off,0,0,3,,,,,,,,,3,,,49,0
102192,note_off,192,0,3,,,,,,,,,3,,,61,0
102240,note_on,60,0,5,,,,,,,,,5,,,41,31
102240,note_on,55,0,4,,,,,,,,,4,,,59,31
102240,note_on,0,0,3,,,,,,,,,3,,,61,31
102240,note_on,48,0,3,,,,,,,,,3,,,49,31
102240,note_on,55,0,1,,,,,,,,,1,,,70,31
102240,note_on,0,0,4,,,,,,,,,4,,,53,31
102240,set_tempo,120,1,0,,,,,,495867,,,,,,,
102432,note_off,192,0,3,,,,,,,,,3,,,61,0
102432,note_off,0,0,3,,,,,,,,,3,,,49,0
102480,note_on,48,0,3,,,,,,,,,3,,,49,24
102480,note_on,0,0,3,,,,,,,,,3,,,61,24
102672,note_off,192,0,3,,,,,,,,,3,,,61,0
102672,note_off,0,0,3,,,,,,,,,3,,,49,0
102720,note_on,0,0,3,,,,,,,,,3,,,61,24
102720,note_on,48,0,3,,,,,,,,,3,,,49,24
102912,note_off,192,0,3,,,,,,,,,3,,,61,0
102912,note_off,0,0,3,,,,,,,,,3,,,49,0
102960,note_on,48,0,3,,,,,,,,,3,,,49,23
102960,note_on,0,0,3,,,,,,,,,3,,,61,23
102960,note_off,720,0,1,,,,,,,,,1,,,70,0
102960,note_on,0,0,1,,,,,,,,,1,,,68,23
103152,note_off,192,0,3,,,,,,,,,3,,,61,0
103152,note_off,0,0,3,,,,,,,,,3,,,49,0
103200,note_on,0,0,3,,,,,,,,,3,,,61,23
103200,note_on,48,0,3,,,,,,,,,3,,,49,23
103392,note_off,192,0,3,,,,,,,,,3,,,61,0
103392,note_off,0,0,3,,,,,,,,,3,,,49,0
103440,note_on,48,0,3,,,,,,,,,3,,,49,22
103440,note_on,0,0,3,,,,,,,,,3,,,61,22
103625,note_off,1385,0,5,,,,,,,,,5,,,41,0
103625,note_off,0,0,4,,,,,,,,,4,,,59,0
103625,note_off,1385,0,4,,,,,,,,,4,,,53,0
103625,note_off,665,0,1,,,,,,,,,1,,,68,0
103632,note_off,192,0,3,,,,,,,,,3,,,61,0
103632,note_off,0,0,3,,,,,,,,,3,,,49,0
103680,note_on,0,0,4,,,,,,,,,4,,,59,22
103680,note_on,55,0,4,,,,,,,,,4,,,53,22
103680,note_on,48,0,3,,,,,,,,,3,,,49,22
103680,note_on,0,0,3,,,,,,,,,3,,,61,22
103680,note_on,55,0,1,,,,,,,,,1,,,70,22
103680,note_on,55,0,5,,,,,,,,,5,,,41,22
103872,note_off,192,0,3,,,,,,,,,3,,,61,0
103872,note_off,0,0,3,,,,,,,,,3,,,49,0
103920,note_on,48,0,3,,,,,,,,,3,,,49,21
103920,note_on,0,0,3,,,,,,,,,3,,,61,21
104112,note_off,192,0,3,,,,,,,,,3,,,61,0
104112,note_off,0,0,3,,,,,,,,,3,,,49,0
104160,note_on,0,0,3,,,,,,,,,3,,,61,21
104160,note_on,48,0,3,,,,,,,,,3,,,49,21
104352,note_off,0,0,3,,,,,,,,,3,,,49,0
104352,note_off,192,0,3,,,,,,,,,3,,,61,0
104400,note_on,0,0,3,,,,,,,,,3,,,61,20
104400,note_off,720,0,1,,,,,,,,,1,,,70,0
104400,note_on,0,0,1,,,,,,,,,1,,,68,20
104400,note_on,48,0,3,,,,,,,,,3,,,49,20
104592,note_off,192,0,3,,,,,,,,,3,,,61,0
104592,note_off,0,0,3,,,,,,,,,3,,,49,0
104640,note_on,48,0,3,,,,,,,,,3,,,49,20
104640,note_on,0,0,3,,,,,,,,,3,,,61,20
104832,note_off,0,0,3,,,,,,,,,3,,,49,0
104832,note_off,192,0,3,,,,,,,,,3,,,61,0
104880,note_on,0,0,3,,,,,,,,,3,,,61,19
104880,note_on,48,0,3,,,,,,,,,3,,,49,19
105000,set_tempo,2760,1,0,,,,,,500000,,,,,,,
105065,note_off,1385,0,4,,,,,,,,,4,,,59,0
105065,note_off,665,0,1,,,,,,,,,1,,,68,0
105065,note_off,1385,0,5,,,,,,,,,5,,,41,0
105065,note_off,0,0,4,,,,,,,,,4,,,53,0
105072,note_off,192,0,3,,,,,,,,,3,,,61,0
105072,note_off,0,0,3,,,,,,,,,3,,,49,0
105120,note_on,48,0,3,,,,,,,,,3,,,49,25
105120,note_on,55,0,1,,,,,,,,,1,,,68,25
105120,note_on,0,0,3,,,,,,,,,3,,,61,25
105120,note_on,55,0,5,,,,,,,,,5,,,42,25
105120,set_tempo,120,1,0,,,,,,495867,,,,,,,
105120,note_on,0,0,4,,,,,,,,,4,,,54,25
105120,note_on,55,0,4,,,,,,,,,4,,,58,25
105312,note_off,0,0,3,,,,,,,,,3,,,49,0
105312,note_off,192,0,3,,,,,,,,,3,,,61,0
105360,note_on,48,0,3,,,,,,,,,3,,,49,18
105360,note_on,0,0,3,,,,,,,,,3,,,61,18
105552,note_off,0,0,3,,,,,,,,,3,,,49,0
105552,note_off,192,0,3,,,,,,,,,3,,,61,0
105600,note_on,0,0,3,,,,,,,,,3,,,61,18
105600,note_on,48,0,3,,,,,,,,,3,,,49,18
105792,note_off,0,0,3,,,,,,,,,3,,,49,0
105792,note_off,192,0,3,,,,,,,,,3,,,61,0
105840,note_on,0,0,3,,,,,,,,,3,,,61,17
105840,note_on,48,0,3,,,,,,,,,3,,,49,17
105840,note_off,720,0,1,,,,,,,,,1,,,68,0
105840,note_on,0,0,1,,,,,,,,,1,,,66,17
106032,note_off,192,0,3,,,,,,,,,3,,,61,0
106032,note_off,0,0,3,,,,,,,,,3,,,49,0
106080,note_on,48,0,3,,,,,,,,,3,,,49,17
106080,note_on,0,0,3,,,,,,,,,3,,,61,17
106272,note_off,192,0,3,,,,,,,,,3,,,61,0
106272,note_off,0,0,3,,,,,,,,,3,,,49,0
106320,note_on,48,0,3,,,,,,,,,3,,,49,16
106320,note_on,0,0,3,,,,,,,,,3,,,61,16
106440,set_tempo,1320,1,0,,,,,,500000,,,,,,,
106500,note_off,1380,0,4,,,,,,,,,4,,,54,0
106500,note_off,1380,0,5,,,,,,,,,5,,,42,0
106505,note_off,5,0,4,,,,,,,,,4,,,58,0
106505,note_off,665,0,1,,,,,,,,,1,,,66,0
106512,note_off,192,0,3,,,,,,,,,3,,,61,0
106512,note_off,0,0,3,,,,,,,,,3,,,49,0
106560,note_on,55,0,1,,,,,,,,,1,,,68,16
106560,note_on,48,0,3,,,,,,,,,3,,,49,16
106560,note_on,0,0,3,,,,,,,,,3,,,61,16
106560,note_on,55,0,4,,,,,,,,,4,,,54,16
106560,note_on,0,0,4,,,,,,,,,4,,,58,16
106560,note_on,60,0,5,,,,,,,,,5,,,42,16
106752,note_off,192,0,3,,,,,,,,,3,,,61,0
106752,note_off,0,0,3,,,,,,,,,3,,,49,0
106800,note_on,0,0,3,,,,,,,,,3,,,61,15
106800,note_on,48,0,3,,,,,,,,,3,,,49,15
106992,note_off,192,0,3,,,,,,,,,3,,,61,0
106992,note_off,0,0,3,,,,,,,,,3,,,49,0
107040,note_on,0,0,3,,,,,,,,,3,,,61,15
107040,note_on,48,0,3,,,,,,,,,3,,,49,15
107160,set_tempo,720,1,0,,,,,,508474,,,,,,,
107232,note_off,0,0,3,,,,,,,,,3,,,49,0
107232,note_off,192,0,3,,,,,,,,,3,,,61,0
107280,note_on,48,0,3,,,,,,,,,3,,,49,14
107280,note_on,0,0,1,,,,,,,,,1,,,66,14
107280,note_off,720,0,1,,,,,,,,,1,,,68,0
107280,note_on,0,0,3,,,,,,,,,3,,,61,14
107472,note_off,192,0,3,,,,,,,,,3,,,61,0
107472,note_off,0,0,3,,,,,,,,,3,,,49,0
107520,note_on,0,0,3,,,,,,,,,3,,,61,14
107520,note_on,48,0,3,,,,,,,,,3,,,49,14
107640,set_tempo,480,1,0,,,,,,517241,,,,,,,
107712,note_off,192,0,3,,,,,,,,,3,,,61,0
107712,note_off,0,0,3,,,,,,,,,3,,,49,0
107760,note_on,48,0,3,,,,,,,,,3,,,49,15
107760,note_on,0,0,3,,,,,,,,,3,,,61,15
107760,set_tempo,120,1,0,,,,,,550458,,,,,,,
107880,set_tempo,120,1,0,,,,,,2727272,,,,,,,
107940,note_off,1380,0,5,,,,,,,,,5,,,42,0
107940,note_off,1380,0,4,,,,,,,,,4,,,54,0
107945,note_off,665,0,1,,,,,,,,,1,,,66,0
107945,note_off,5,0,4,,,,,,,,,4,,,58,0
107952,note_off,0,0,3,,,,,,,,,3,,,49,0
107952,note_off,192,0,3,,,,,,,,,3,,,61,0
108000,note_on,0,0,4,,,,,,,,,4,,,59,123
108000,note_on,0,0,4,,,,,,,,,4,,,47,123
108000,control_change,55,0,4,,,,,,,64,0,4,,,,
108000,note_on,0,0,5,,,,,,,,,5,,,56,123
108000,note_on,0,0,5,,,,,,,,,5,,,44,123
108000,control_change,60,0,5,,,,,,,64,0,5,,,,
108000,control_change,11580,0,2,,,,,,,64,0,2,,,,
108000,note_on,0,0,1,,,,,,,,,1,,,54,123
108000,note_on,0,0,1,,,,,,,,,1,,,66,123
108000,control_change,55,0,1,,,,,,,64,0,1,,,,
108000,set_tempo,120,1,0,,,,,,495867,,,,,,,
108000,control_change,48,0,3,,,,,,,64,0,3,,,,
108480,note_off,0,0,1,,,,,,,,,1,,,66,0
108480,note_off,480,0,1,,,,,,,,,1,,,54,0
108480,note_on,0,0,1,,,,,,,,,1,,,52,113
108480,note_on,0,0,1,,,,,,,,,1,,,64,113
108660,note_off,660,0,5,,,,,,,,,5,,,44,0
108660,note_off,660,0,4,,,,,,,,,4,,,59,0
108660,note_off,0,0,4,,,,,,,,,4,,,47,0
108665,note_off,5,0,5,,,,,,,,,5,,,56,0
108672,note_off,192,0,1,,,,,,,,,1,,,52,0
108672,note_off,0,0,1,,,,,,,,,1,,,64,0
108720,note_on,0,0,1,,,,,,,,,1,,,66,124
108720,note_on,48,0,1,,,,,,,,,1,,,54,124
108720,note_on,55,0,5,,,,,,,,,5,,,44,124
108720,note_on,0,0,5,,,,,,,,,5,,,56,124
108720,note_on,60,0,4,,,,,,,,,4,,,47,124
108720,note_on,0,0,4,,,,,,,,,4,,,59,124
109200,note_on,0,0,1,,,,,,,,,1,,,52,112
109200,note_off,0,0,1,,,,,,,,,1,,,54,0
109200,note_off,480,0,1,,,,,,,,,1,,,66,0
109200,note_on,0,0,1,,,,,,,,,1,,,64,112
109380,note_off,0,0,4,,,,,,,,,4,,,47,0
109380,note_off,660,0,5,,,,,,,,,5,,,44,0
109380,note_off,660,0,4,,,,,,,,,4,,,59,0
109385,note_off,5,0,5,,,,,,,,,5,,,56,0
109392,note_off,192,0,1,,,,,,,,,1,,,64,0
109392,note_off,0,0,1,,,,,,,,,1,,,52,0
109440,note_on,48,0,1,,,,,,,,,1,,,66,124
109440,note_on,0,0,1,,,,,,,,,1,,,54,124
109440,note_on,0,0,4,,,,,,,,,4,,,59,124
109440,note_on,60,0,4,,,,,,,,,4,,,47,124
109440,note_on,55,0,5,,,,,,,,,5,,,44,124
109440,note_on,0,0,5,,,,,,,,,5,,,56,124
109920,note_off,480,0,1,,,,,,,,,1,,,54,0
109920,note_off,0,0,1,,,,,,,,,1,,,66,0
109920,note_on,0,0,1,,,,,,,,,1,,,64,111
109920,note_on,0,0,1,,,,,,,,,1,,,52,111
110100,note_off,0,0,4,,,,,,,,,4,,,47,0
110100,note_off,660,0,4,,,,,,,,,4,,,59,0
110100,note_off,660,0,5,,,,,,,,,5,,,44,0
110105,note_off,5,0,5,,,,,,,,,5,,,56,0
110112,note_off,0,0,1,,,,,,,,,1,,,64,0
110112,note_off,192,0,1,,,,,,,,,1,,,52,0
110160,note_on,0,0,4,,,,,,,,,4,,,59,122
110160,note_on,0,0,5,,,,,,,,,5,,,56,122
110160,note_on,0,0,1,,,,,,,,,1,,,54,122
110160,note_on,48,0,1,,,,,,,,,1,,,66,122
110160,note_on,60,0,4,,,,,,,,,4,,,47,122
110160,note_on,55,0,5,,,,,,,,,5,,,44,122
110640,note_off,480,0,1,,,,,,,,,1,,,54,0
110640,note_off,0,0,1,,,,,,,,,1,,,66,0
110640,note_on,0,0,1,,,,,,,,,1,,,64,110
110640,note_on,0,0,1,,,,,,,,,1,,,52,110
110820,note_off,0,0,4,,,,,,,,,4,,,47,0
110820,note_off,660,0,5,,,,,,,,,5,,,44,0
110820,note_off,660,0,4,,,,,,,,,4,,,59,0
110825,note_off,5,0,5,,,,,,,,,5,,,56,0
110832,note_off,0,0,1,,,,,,,,,1,,,64,0
110832,note_off,192,0,1,,,,,,,,,1,,,52,0
110880,note_on,55,0,5,,,,,,,,,5,,,40,122
110880,note_on,48,0,1,,,,,,,,,1,,,52,122
110880,note_on,0,0,1,,,,,,,,,1,,,64,122
111240,note_on,0,0,1,,,,,,,,,1,,,64,108
111240,note_off,0,0,1,,,,,,,,,1,,,52,0
111240,note_off,360,0,1,,,,,,,,,1,,,64,0
111240,note_on,0,0,5,,,,,,,,,5,,,52,108
111240,note_off,360,0,5,,,,,,,,,5,,,40,0
111360,note_off,120,0,1,,,,,,,,,1,,,64,0
111360,note_on,0,0,5,,,,,,,,,5,,,56,107
111360,note_on,0,0,1,,,,,,,,,1,,,68,107
111360,note_off,120,0,5,,,,,,,,,5,,,52,0
111480,note_off,120,0,5,,,,,,,,,5,,,56,0
111480,note_on,0,0,5,,,,,,,,,5,,,59,106
111480,note_off,120,0,1,,,,,,,,,1,,,68,0
111480,note_on,0,0,1,,,,,,,,,1,,,71,106
111576,note_off,96,0,5,,,,,,,,,5,,,59,0
111576,note_off,96,0,1,,,,,,,,,1,,,71,0
111600,note_on,24,0,5,,,,,,,,,5,,,64,116
111600,note_on,24,0,1,,,,,,,,,1,,,76,116
111960,note_on,0,0,5,,,,,,,,,5,,,64,102
111960,note_off,360,0,1,,,,,,,,,1,,,76,0
111960,note_on,0,0,1,,,,,,,,,1,,,76,102
111960,note_off,360,0,5,,,,,,,,,5,,,64,0
112080,note_off,120,0,1,,,,,,,,,1,,,76,0
112080,note_on,0,0,5,,,,,,,,,5,,,68,101
112080,note_off,120,0,5,,,,,,,,,5,,,64,0
112080,note_on,0,0,1,,,,,,,,,1,,,80,101
112200,note_off,120,0,5,,,,,,,,,5,,,68,0
112200,note_on,0,0,1,,,,,,,,,1,,,83,100
112200,note_on,0,0,5,,,,,,,,,5,,,71,100
112200,note_off,120,0,1,,,,,,,,,1,,,80,0
112296,note_off,96,0,1,,,,,,,,,1,,,83,0
112296,note_off,96,0,5,,,,,,,,,5,,,71,0
112320,note_on,24,0,1,,,,,,,,,1,,,88,112
112320,note_on,24,0,5,,,,,,,,,5,,,76,112
112512,note_off,192,0,1,,,,,,,,,1,,,88,0
112512,note_off,192,0,5,,,,,,,,,5,,,76,0
112560,note_on,48,0,1,,,,,,,,,1,,,92,98
112560,note_on,48,0,5,,,,,,,,,5,,,80,98
112752,note_off,192,0,1,,,,,,,,,1,,,92,0
112752,note_off,192,0,5,,,,,,,,,5,,,80,0
112800,note_on,48,0,5,,,,,,,,,5,,,83,94
112800,note_on,48,0,1,,,,,,,,,1,,,95,94
112992,note_off,192,0,5,,,,,,,,,5,,,83,0
112992,note_off,192,0,1,,,,,,,,,1,,,95,0
113040,note_on,48,0,1,,,,,,,,,1,,,100,89
113040,note_on,48,0,5,,,,,,,,,5,,,88,89
113040,set_tempo,5040,1,0,,,,,,500000,,,,,,,
113400,note_off,360,0,1,,,,,,,,,1,,,100,0
113400,note_off,360,0,5,,,,,,,,,5,,,88,0
113760,note_on,360,0,1,,,,,,,,,1,,,52,120
113760,note_on,0,0,1,,,,,,,,,1,,,64,120
113760,note_on,0,0,5,,,,,,,,,5,,,42,120
113760,note_on,360,0,5,,,,,,,,,5,,,54,120
113760,note_on,2940,0,4,,,,,,,,,4,,,57,120
113760,note_on,0,0,4,,,,,,,,,4,,,45,120
113760,set_tempo,720,1,0,,,,,,495867,,,,,,,
114240,note_off,0,0,1,,,,,,,,,1,,,52,0
114240,note_on,0,0,1,,,,,,,,,1,,,50,106
114240,note_off,480,0,1,,,,,,,,,1,,,64,0
114240,note_on,0,0,1,,,,,,,,,1,,,62,106
114420,note_off,660,0,4,,,,,,,,,4,,,45,0
114420,note_off,660,0,5,,,,,,,,,5,,,42,0
114420,note_off,0,0,4,,,,,,,,,4,,,57,0
114425,note_off,5,0,5,,,,,,,,,5,,,54,0
114432,note_off,0,0,1,,,,,,,,,1,,,50,0
114432,note_off,192,0,1,,,,,,,,,1,,,62,0
114480,note_on,0,0,1,,,,,,,,,1,,,52,119
114480,note_on,60,0,4,,,,,,,,,4,,,57,119
114480,note_on,0,0,4,,,,,,,,,4,,,45,119
114480,note_on,48,0,1,,,,,,,,,1,,,64,119
114480,note_on,0,0,5,,,,,,,,,5,,,42,119
114480,note_on,55,0,5,,,,,,,,,5,,,54,119
114960,note_off,480,0,1,,,,,,,,,1,,,52,0
114960,note_off,0,0,1,,,,,,,,,1,,,64,0
114960,note_on,0,0,1,,,,,,,,,1,,,62,106
114960,note_on,0,0,1,,,,,,,,,1,,,50,106
115140,note_off,0,0,4,,,,,,,,,4,,,57,0
115140,note_off,660,0,4,,,,,,,,,4,,,45,0
115140,note_off,660,0,5,,,,,,,,,5,,,42,0
115145,note_off,5,0,5,,,,,,,,,5,,,54,0
115152,note_off,192,0,1,,,,,,,,,1,,,50,0
115152,note_off,0,0,1,,,,,,,,,1,,,62,0
115200,note_on,55,0,5,,,,,,,,,5,,,54,116
115200,note_on,48,0,1,,,,,,,,,1,,,52,116
115200,note_on,0,0,1,,,,,,,,,1,,,64,116
115200,note_on,0,0,5,,,,,,,,,5,,,42,116
115200,note_on,0,0,4,,,,,,,,,4,,,45,116
115200,note_on,60,0,4,,,,,,,,,4,,,57,116
115680,note_off,480,0,1,,,,,,,,,1,,,64,0
115680,note_off,0,0,1,,,,,,,,,1,,,52,0
115680,note_on,0,0,1,,,,,,,,,1,,,50,105
115680,note_on,0,0,1,,,,,,,,,1,,,62,105
115860,note_off,660,0,5,,,,,,,,,5,,,42,0
115860,note_off,660,0,4,,,,,,,,,4,,,45,0
115860,note_off,0,0,4,,,,,,,,,4,,,57,0
115865,note_off,5,0,5,,,,,,,,,5,,,54,0
115872,note_off,192,0,1,,,,,,,,,1,,,62,0
115872,note_off,0,0,1,,,,,,,,,1,,,50,0
115920,note_on,60,0,4,,,,,,,,,4,,,57,118
115920,note_on,0,0,1,,,,,,,,,1,,,64,118
115920,note_on,48,0,1,,,,,,,,,1,,,52,118
115920,note_on,0,0,5,,,,,,,,,5,,,42,118
115920,note_on,0,0,4,,,,,,,,,4,,,45,118
115920,note_on,55,0,5,,,,,,,,,5,,,54,118
116400,note_off,480,0,1,,,,,,,,,1,,,64,0
116400,note_off,0,0,1,,,,,,,,,1,,,52,0
116400,note_on,0,0,1,,,,,,,,,1,,,50,104
116400,note_on,0,0,1,,,,,,,,,1,,,62,104
116580,note_off,0,0,4,,,,,,,,,4,,,57,0
116580,note_off,660,0,5,,,,,,,,,5,,,42,0
116580,note_off,660,0,4,,,,,,,,,4,,,45,0
116585,note_off,5,0,5,,,,,,,,,5,,,54,0
116592,note_off,192,0,1,,,,,,,,,1,,,62,0
116592,note_off,0,0,1,,,,,,,,,1,,,50,0
116640,note_on,48,0,1,,,,,,,,,1,,,62,118
116640,note_on,55,0,5,,,,,,,,,5,,,38,118
116640,note_on,0,0,1,,,,,,,,,1,,,50,118
117000,note_on,0,0,1,,,,,,,,,1,,,62,103
117000,note_off,0,0,1,,,,,,,,,1,,,62,0
117000,note_off,360,0,1,,,,,,,,,1,,,50,0
117000,note_off,360,0,5,,,,,,,,,5,,,38,0
117000,note_on,0,0,5,,,,,,,,,5,,,50,103
117120,note_on,0,0,1,,,,,,,,,1,,,66,102
117120,note_off,120,0,1,,,,,,,,,1,,,62,0
117120,note_off,120,0,5,,,,,,,,,5,,,50,0
117120,note_on,0,0,5,,,,,,,,,5,,,54,102
117240,note_off,120,0,5,,,,,,,,,5,,,54,0
117240,note_on,0,0,1,,,,,,,,,1,,,69,101
117240,note_off,120,0,1,,,,,,,,,1,,,66,0
117240,note_on,0,0,5,,,,,,,,,5,,,57,101
117336,note_off,96,0,5,,,,,,,,,5,,,57,0
117336,note_off,96,0,1,,,,,,,,,1,,,69,0
117360,note_on,24,0,1,,,,,,,,,1,,,74,112
117360,note_on,24,0,5,,,,,,,,,5,,,62,112
117720,note_off,360,0,1,,,,,,,,,1,,,74,0
117720,note_on,0,0,5,,,,,,,,,5,,,62,97
117720,note_off,360,0,5,,,,,,,,,5,,,62,0
117720,note_on,0,0,1,,,,,,,,,1,,,74,97
117840,note_on,0,0,5,,,,,,,,,5,,,66,96
117840,note_off,120,0,5,,,,,,,,,5,,,62,0
117840,note_on,0,0,1,,,,,,,,,1,,,78,96
117840,note_off,120,0,1,,,,,,,,,1,,,74,0
117960,note_off,120,0,1,,,,,,,,,1,,,78,0
117960,note_off,120,0,5,,,,,,,,,5,,,66,0
117960,note_on,0,0,1,,,,,,,,,1,,,81,95
117960,note_on,0,0,5,,,,,,,,,5,,,69,95
118056,note_off,96,0,5,,,,,,,,,5,,,69,0
118056,note_off,96,0,1,,,,,,,,,1,,,81,0
118080,note_on,24,0,5,,,,,,,,,5,,,74,106
118080,note_on,24,0,1,,,,,,,,,1,,,86,106
118272,note_off,192,0,5,,,,,,,,,5,,,74,0
118272,note_off,192,0,1,,,,,,,,,1,,,86,0
118320,note_on,48,0,5,,,,,,,,,5,,,78,91
118320,note_on,48,0,1,,,,,,,,,1,,,90,91
118512,note_off,192,0,1,,,,,,,,,1,,,90,0
118512,note_off,192,0,5,,,,,,,,,5,,,78,0
118560,note_on,48,0,5,,,,,,,,,5,,,81,86
118560,note_on,48,0,1,,,,,,,,,1,,,93,86
118752,note_off,192,0,1,,,,,,,,,1,,,93,0
118752,note_off,192,0,5,,,,,,,,,5,,,81,0
118800,note_on,48,0,1,,,,,,,,,1,,,98,81
118800,note_on,48,0,5,,,,,,,,,5,,,86,81
118800,set_tempo,5040,1,0,,,,,,500000,,,,,,,
119160,note_off,360,0,1,,,,,,,,,1,,,98,0
119160,note_off,360,0,5,,,,,,,,,5,,,86,0
119520,note_on,0,0,5,,,,,,,,,5,,,40,112
119520,note_on,360,0,5,,,,,,,,,5,,,52,112
119520,note_on,2940,0,4,,,,,,,,,4,,,43,112
119520,note_on,0,0,4,,,,,,,,,4,,,55,112
119520,set_tempo,720,1,0,,,,,,495867,,,,,,,
119520,note_on,360,0,1,,,,,,,,,1,,,62,112
119520,note_on,0,0,1,,,,,,,,,1,,,50,112
120000,note_off,480,0,1,,,,,,,,,1,,,50,0
120000,note_off,0,0,1,,,,,,,,,1,,,62,0
120000,note_on,0,0,1,,,,,,,,,1,,,60,100
120000,note_on,0,0,1,,,,,,,,,1,,,48,100
120180,note_off,660,0,5,,,,,,,,,5,,,40,0
120180,note_off,660,0,4,,,,,,,,,4,,,55,0
120180,note_off,0,0,4,,,,,,,,,4,,,43,0
120185,note_off,5,0,5,,,,,,,,,5,,,52,0
120192,note_off,0,0,1,,,,,,,,,1,,,60,0
120192,note_off,192,0,1,,,,,,,,,1,,,48,0
120240,note_on,0,0,4,,,,,,,,,4,,,55,111
120240,note_on,55,0,5,,,,,,,,,5,,,52,111
120240,note_on,48,0,1,,,,,,,,,1,,,50,111
120240,note_on,0,0,5,,,,,,,,,5,,,40,111
120240,note_on,0,0,1,,,,,,,,,1,,,62,111
120240,note_on,60,0,4,,,,,,,,,4,,,43,111
120720,note_on,0,0,1,,,,,,,,,1,,,60,99
120720,note_off,0,0,1,,,,,,,,,1,,,50,0
120720,note_off,480,0,1,,,,,,,,,1,,,62,0
120720,note_on,0,0,1,,,,,,,,,1,,,48,99
120900,note_off,660,0,5,,,,,,,,,5,,,40,0
120900,note_off,660,0,4,,,,,,,,,4,,,55,0
120900,note_off,0,0,4,,,,,,,,,4,,,43,0
120905,note_off,5,0,5,,,,,,,,,5,,,52,0
120912,note_off,192,0,1,,,,,,,,,1,,,60,0
120912,note_off,0,0,1,,,,,,,,,1,,,48,0
120960,note_on,0,0,5,,,,,,,,,5,,,40,109
120960,note_on,55,0,5,,,,,,,,,5,,,52,109
120960,note_on,48,0,1,,,,,,,,,1,,,62,109
120960,note_on,0,0,1,,,,,,,,,1,,,50,109
120960,note_on,60,0,4,,,,,,,,,4,,,43,109
120960,note_on,0,0,4,,,,,,,,,4,,,55,109
121440,note_on,0,0,1,,,,,,,,,1,,,48,98
121440,note_on,0,0,1,,,,,,,,,1,,,60,98
121440,note_off,0,0,1,,,,,,,,,1,,,62,0
121440,note_off,480,0,1,,,,,,,,,1,,,50,0
121620,note_off,0,0,4,,,,,,,,,4,,,43,0
121620,note_off,660,0,5,,,,,,,,,5,,,40,0
121620,note_off,660,0,4,,,,,,,,,4,,,55,0
121625,note_off,5,0,5,,,,,,,,,5,,,52,0
121632,note_off,0,0,1,,,,,,,,,1,,,60,0
121632,note_off,192,0,1,,,,,,,,,1,,,48,0
121680,note_on,60,0,4,,,,,,,,,4,,,43,108
121680,note_on,0,0,4,,,,,,,,,4,,,55,108
121680,note_on,55,0,5,,,,,,,,,5,,,52,108
121680,note_on,0,0,5,,,,,,,,,5,,,40,108
121680,note_on,0,0,1,,,,,,,,,1,,,50,108
121680,note_on,48,0,1,,,,,,,,,1,,,62,108
122160,note_off,0,0,1,,,,,,,,,1,,,62,0
122160,note_on,0,0,1,,,,,,,,,1,,,60,98
122160,note_on,0,0,1,,,,,,,,,1,,,48,98
122160,note_off,480,0,1,,,,,,,,,1,,,50,0
122340,note_off,660,0,4,,,,,,,,,4,,,55,0
122340,note_off,0,0,4,,,,,,,,,4,,,43,0
122340,note_off,660,0,5,,,,,,,,,5,,,40,0
122345,note_off,5,0,5,,,,,,,,,5,,,52,0
122352,note_off,192,0,1,,,,,,,,,1,,,48,0
122352,note_off,0,0,1,,,,,,,,,1,,,60,0
122400,note_on,48,0,1,,,,,,,,,1,,,48,110
122400,note_on,0,0,1,,,,,,,,,1,,,60,110
122400,note_on,55,0,5,,,,,,,,,5,,,36,110
122760,note_off,360,0,1,,,,,,,,,1,,,60,0
122760,note_off,0,0,1,,,,,,,,,1,,,48,0
122760,note_on,0,0,1,,,,,,,,,1,,,60,99
122760,note_on,0,0,5,,,,,,,,,5,,,48,99
122760,note_off,360,0,5,,,,,,,,,5,,,36,0
122880,note_off,120,0,5,,,,,,,,,5,,,48,0
122880,note_on,0,0,5,,,,,,,,,5,,,52,98
122880,note_on,0,0,1,,,,,,,,,1,,,64,98
122880,note_off,120,0,1,,,,,,,,,1,,,60,0
123000,note_off,120,0,5,,,,,,,,,5,,,52,0
123000,note_on,0,0,5,,,,,,,,,5,,,55,97
123000,note_on,0,0,1,,,,,,,,,1,,,67,97
123000,note_off,120,0,1,,,,,,,,,1,,,64,0
123096,note_off,96,0,5,,,,,,,,,5,,,55,0
123096,note_off,96,0,1,,,,,,,,,1,,,67,0
123120,note_on,24,0,1,,,,,,,,,1,,,72,107
123120,note_on,24,0,5,,,,,,,,,5,,,60,107
123480,note_off,360,0,1,,,,,,,,,1,,,72,0
123480,note_off,360,0,5,,,,,,,,,5,,,60,0
123480,note_on,0,0,1,,,,,,,,,1,,,72,94
123480,note_on,0,0,5,,,,,,,,,5,,,60,94
123600,note_off,120,0,5,,,,,,,,,5,,,60,0
123600,note_on,0,0,5,,,,,,,,,5,,,64,93
123600,note_off,120,0,1,,,,,,,,,1,,,72,0
123600,note_on,0,0,1,,,,,,,,,1,,,76,93
123720,note_off,120,0,5,,,,,,,,,5,,,64,0
123720,note_off,120,0,1,,,,,,,,,1,,,76,0
123720,note_on,0,0,1,,,,,,,,,1,,,79,93
123720,note_on,0,0,5,,,,,,,,,5,,,67,93
123816,note_off,96,0,5,,,,,,,,,5,,,67,0
123816,note_off,96,0,1,,,,,,,,,1,,,79,0
123840,note_on,24,0,1,,,,,,,,,1,,,84,104
123840,note_on,24,0,5,,,,,,,,,5,,,72,104
124032,note_off,192,0,5,,,,,,,,,5,,,72,0
124032,note_off,192,0,1,,,,,,,,,1,,,84,0
124080,note_on,48,0,1,,,,,,,,,1,,,88,90
124080,note_on,48,0,5,,,,,,,,,5,,,76,90
124272,note_off,192,0,1,,,,,,,,,1,,,88,0
124272,note_off,192,0,5,,,,,,,,,5,,,76,0
124320,note_on,48,0,1,,,,,,,,,1,,,91,86
124320,note_on,48,0,5,,,,,,,,,5,,,79,86
124512,note_off,192,0,1,,,,,,,,,1,,,91,0
124512,note_off,192,0,5,,,,,,,,,5,,,79,0
124560,set_tempo,5040,1,0,,,,,,500000,,,,,,,
124560,note_on,48,0,5,,,,,,,,,5,,,84,82
124560,note_on,48,0,1,,,,,,,,,1,,,96,82
124920,note_off,360,0,1,,,,,,,,,1,,,96,0
124920,note_off,360,0,5,,,,,,,,,5,,,84,0
125280,note_on,360,0,5,,,,,,,,,5,,,38,101
125280,set_tempo,720,1,0,,,,,,495867,,,,,,,
125280,note_on,17280,0,3,,,,,,,,,3,,,84,101
125280,note_on,0,0,3,,,,,,,,,3,,,81,101
125280,note_on,0,0,3,,,,,,,,,3,,,78,101
125280,note_on,0,0,3,,,,,,,,,3,,,72,101
125640,note_off,360,0,5,,,,,,,,,5,,,38,0
125640,note_on,0,0,5,,,,,,,,,5,,,38,93
125760,note_off,120,0,5,,,,,,,,,5,,,38,0
125760,note_on,0,0,5,,,,,,,,,5,,,42,93
125880,note_on,0,0,5,,,,,,,,,5,,,45,92
125880,note_off,120,0,5,,,,,,,,,5,,,42,0
125940,note_off,660,0,3,,,,,,,,,3,,,72,0
125945,note_off,0,0,3,,,,,,,,,3,,,84,0
125945,note_off,0,0,3,,,,,,,,,3,,,81,0
125945,note_off,5,0,3,,,,,,,,,3,,,78,0
125976,note_off,96,0,5,,,,,,,,,5,,,45,0
126000,note_on,24,0,5,,,,,,,,,5,,,50,98
126000,note_on,0,0,3,,,,,,,,,3,,,69,98
126000,note_on,0,0,3,,,,,,,,,3,,,72,98
126000,note_on,0,0,3,,,,,,,,,3,,,78,98
126000,note_on,55,0,3,,,,,,,,,3,,,81,98
126360,note_on,0,0,5,,,,,,,,,5,,,50,90
126360,note_off,360,0,5,,,,,,,,,5,,,50,0
126480,note_off,120,0,5,,,,,,,,,5,,,50,0
126480,note_on,0,0,5,,,,,,,,,5,,,54,89
126600,note_off,120,0,5,,,,,,,,,5,,,54,0
126600,note_on,0,0,5,,,,,,,,,5,,,57,89
126660,note_off,0,0,3,,,,,,,,,3,,,81,0
126660,note_off,660,0,3,,,,,,,,,3,,,78,0
126665,note_off,0,0,3,,,,,,,,,3,,,72,0
126665,note_off,5,0,3,,,,,,,,,3,,,69,0
126696,note_off,96,0,5,,,,,,,,,5,,,57,0
126720,note_on,0,0,3,,,,,,,,,3,,,72,96
126720,note_on,24,0,5,,,,,,,,,5,,,62,96
126720,note_on,55,0,3,,,,,,,,,3,,,78,96
126720,note_on,0,0,3,,,,,,,,,3,,,66,96
126720,note_on,0,0,3,,,,,,,,,3,,,69,96
126912,note_off,192,0,5,,,,,,,,,5,,,62,0
126960,note_on,48,0,5,,,,,,,,,5,,,66,87
127152,note_off,192,0,5,,,,,,,,,5,,,66,0
127200,note_on,48,0,5,,,,,,,,,5,,,69,86
127372,note_off,652,0,3,,,,,,,,,3,,,69,0
127372,note_off,0,0,3,,,,,,,,,3,,,66,0
127385,note_off,0,0,3,,,,,,,,,3,,,78,0
127385,note_off,13,0,3,,,,,,,,,3,,,72,0
127392,note_off,192,0,5,,,,,,,,,5,,,69,0
127440,note_on,0,0,3,,,,,,,,,3,,,66,92
127440,note_on,55,0,3,,,,,,,,,3,,,72,92
127440,note_on,0,0,3,,,,,,,,,3,,,69,92
127440,note_on,0,0,3,,,,,,,,,3,,,60,92
127440,note_on,48,0,5,,,,,,,,,5,,,75,97
127920,note_off,480,0,5,,,,,,,,,5,,,75,0
127920,note_on,0,0,5,,,,,,,,,5,,,74,82
128040,set_tempo,2760,1,0,,,,,,500000,,,,,,,
128085,note_off,645,0,3,,,,,,,,,3,,,60,0
128095,note_off,10,0,3,,,,,,,,,3,,,66,0
128100,note_off,5,0,3,,,,,,,,,3,,,69,0
128100,note_off,0,0,3,,,,,,,,,3,,,72,0
128112,note_off,192,0,5,,,,,,,,,5,,,74,0
128160,note_on,60,0,3,,,,,,,,,3,,,89,100
128160,note_on,0,0,3,,,,,,,,,3,,,86,100
128160,note_on,0,0,3,,,,,,,,,3,,,83,100
128160,note_on,0,0,3,,,,,,,,,3,,,77,100
128160,set_tempo,120,1,0,,,,,,495867,,,,,,,
128160,note_on,48,0,5,,,,,,,,,5,,,31,100
128520,note_on,0,0,5,,,,,,,,,5,,,31,91
128520,note_off,360,0,5,,,,,,,,,5,,,31,0
128640,note_off,120,0,5,,,,,,,,,5,,,31,0
128640,note_on,0,0,5,,,,,,,,,5,,,35,91
128760,note_off,120,0,5,,,,,,,,,5,,,35,0
128760,note_on,0,0,5,,,,,,,,,5,,,38,90
128815,note_off,655,0,3,,,,,,,,,3,,,83,0
128825,note_off,0,0,3,,,,,,,,,3,,,86,0
128825,note_off,10,0,3,,,,,,,,,3,,,77,0
128830,note_off,5,0,3,,,,,,,,,3,,,89,0
128856,note_off,96,0,5,,,,,,,,,5,,,38,0
128880,note_on,24,0,5,,,,,,,,,5,,,43,98
128880,note_on,50,0,3,,,,,,,,,3,,,86,98
128880,note_on,0,0,3,,,,,,,,,3,,,83,98
128880,note_on,0,0,3,,,,,,,,,3,,,77,98
128880,note_on,0,0,3,,,,,,,,,3,,,74,98
129240,note_off,360,0,5,,,,,,,,,5,,,43,0
129240,note_on,0,0,5,,,,,,,,,5,,,43,88
129360,note_off,120,0,5,,,,,,,,,5,,,43,0
129360,note_on,0,0,5,,,,,,,,,5,,,47,87
129480,note_on,0,0,5,,,,,,,,,5,,,50,87
129480,note_off,120,0,5,,,,,,,,,5,,,47,0
129535,note_off,655,0,3,,,,,,,,,3,,,74,0
129535,note_off,0,0,3,,,,,,,,,3,,,83,0
129545,note_off,10,0,3,,,,,,,,,3,,,77,0
129545,note_off,0,0,3,,,,,,,,,3,,,86,0
129576,note_off,96,0,5,,,,,,,,,5,,,50,0
129600,note_on,0,0,3,,,,,,,,,3,,,71,95
129600,note_on,0,0,3,,,,,,,,,3,,,77,95
129600,note_on,0,0,3,,,,,,,,,3,,,74,95
129600,note_on,24,0,5,,,,,,,,,5,,,55,95
129600,note_on,55,0,3,,,,,,,,,3,,,83,95
129756,note_off,156,0,5,,,,,,,,,5,,,55,0
129840,note_on,84,0,5,,,,,,,,,5,,,59,85
129996,note_off,156,0,5,,,,,,,,,5,,,59,0
130080,note_on,84,0,5,,,,,,,,,5,,,62,84
130236,note_off,156,0,5,,,,,,,,,5,,,62,0
130260,note_off,0,0,3,,,,,,,,,3,,,83,0
130260,note_off,660,0,3,,,,,,,,,3,,,74,0
130265,note_off,5,0,3,,,,,,,,,3,,,71,0
130265,note_off,0,0,3,,,,,,,,,3,,,77,0
130320,note_on,55,0,3,,,,,,,,,3,,,77,89
130320,note_on,0,0,3,,,,,,,,,3,,,74,89
130320,note_on,0,0,3,,,,,,,,,3,,,71,89
130320,note_on,84,0,5,,,,,,,,,5,,,68,94
130320,note_on,0,0,3,,,,,,,,,3,,,65,89
130800,note_on,0,0,5,,,,,,,,,5,,,67,74
130800,note_off,480,0,5,,,,,,,,,5,,,68,0
130920,set_tempo,2760,1,0,,,,,,500000,,,,,,,
130975,note_off,655,0,3,,,,,,,,,3,,,71,0
130980,note_off,0,0,3,,,,,,,,,3,,,77,0
130980,note_off,5,0,3,,,,,,,,,3,,,65,0
130980,note_off,0,0,3,,,,,,,,,3,,,74,0
130992,note_off,192,0,5,,,,,,,,,5,,,67,0
131040,note_on,0,0,3,,,,,,,,,3,,,79,98
131040,note_on,48,0,5,,,,,,,,,5,,,36,98
131040,set_tempo,120,1,0,,,,,,495867,,,,,,,
131040,note_on,60,0,3,,,,,,,,,3,,,88,98
131040,note_on,0,0,3,,,,,,,,,3,,,82,98
131040,note_on,0,0,3,,,,,,,,,3,,,76,98
131400,note_off,360,0,5,,,,,,,,,5,,,36,0
131400,note_on,0,0,5,,,,,,,,,5,,,36,89
131520,note_on,0,0,5,,,,,,,,,5,,,40,88
131520,note_off,120,0,5,,,,,,,,,5,,,36,0
131640,note_on,0,0,5,,,,,,,,,5,,,43,88
131640,note_off,120,0,5,,,,,,,,,5,,,40,0
131705,note_off,0,0,3,,,,,,,,,3,,,79,0
131705,note_off,0,0,3,,,,,,,,,3,,,82,0
131705,note_off,665,0,3,,,,,,,,,3,,,76,0
131710,note_off,5,0,3,,,,,,,,,3,,,88,0
131736,note_off,96,0,5,,,,,,,,,5,,,43,0
131760,note_on,50,0,3,,,,,,,,,3,,,82,93
131760,note_on,24,0,5,,,,,,,,,5,,,48,93
131760,note_on,0,0,3,,,,,,,,,3,,,79,93
131760,note_on,0,0,3,,,,,,,,,3,,,76,93
131760,note_on,0,0,3,,,,,,,,,3,,,70,93
132120,note_on,0,0,5,,,,,,,,,5,,,48,85
132120,note_off,360,0,5,,,,,,,,,5,,,48,0
132240,note_on,0,0,5,,,,,,,,,5,,,52,84
132240,note_off,120,0,5,,,,,,,,,5,,,48,0
132360,note_on,0,0,5,,,,,,,,,5,,,55,84
132360,note_off,120,0,5,,,,,,,,,5,,,52,0
132415,note_off,655,0,3,,,,,,,,,3,,,70,0
132420,note_off,5,0,3,,,,,,,,,3,,,79,0
132425,note_off,5,0,3,,,,,,,,,3,,,76,0
132425,note_off,0,0,3,,,,,,,,,3,,,82,0
132456,note_off,96,0,5,,,,,,,,,5,,,55,0
132480,note_on,0,0,3,,,,,,,,,3,,,67,90
132480,note_on,0,0,3,,,,,,,,,3,,,70,90
132480,note_on,0,0,3,,,,,,,,,3,,,76,90
132480,note_on,55,0,3,,,,,,,,,3,,,79,90
132480,note_on,24,0,5,,,,,,,,,5,,,60,90
132636,note_off,156,0,5,,,,,,,,,5,,,60,0
132720,note_on,84,0,5,,,,,,,,,5,,,64,82
132876,note_off,156,0,5,,,,,,,,,5,,,64,0
132960,note_on,84,0,5,,,,,,,,,5,,,67,82
133116,note_off,636,0,3,,,,,,,,,3,,,67,0
133116,note_off,156,0,5,,,,,,,,,5,,,67,0
133140,note_off,24,0,3,,,,,,,,,3,,,70,0
133140,note_off,0,0,3,,,,,,,,,3,,,79,0
133145,note_off,5,0,3,,,,,,,,,3,,,76,0
133200,note_on,0,0,3,,,,,,,,,3,,,70,86
133200,note_on,0,0,3,,,,,,,,,3,,,67,86
133200,note_on,84,0,5,,,,,,,,,5,,,73,91
133200,note_on,0,0,3,,,,,,,,,3,,,64,86
133200,note_on,55,0,3,,,,,,,,,3,,,76,86
133560,set_tempo,2520,1,0,,,,,,500000,,,,,,,
133680,note_off,480,0,5,,,,,,,,,5,,,73,0
133680,note_on,0,0,5,,,,,,,,,5,,,72,72
133855,note_off,655,0,3,,,,,,,,,3,,,67,0
133855,note_off,0,0,3,,,,,,,,,3,,,76,0
133860,note_off,5,0,3,,,,,,,,,3,,,64,0
133860,note_off,0,0,3,,,,,,,,,3,,,70,0
133872,note_off,192,0,5,,,,,,,,,5,,,72,0
135360,note_on,1488,0,5,,,,,,,,,5,,,48,50
135360,set_tempo,1800,1,0,,,,,,508474,,,,,,,
135516,note_off,156,0,5,,,,,,,,,5,,,48,0
135600,note_on,84,0,5,,,,,,,,,5,,,52,49
135756,note_off,156,0,5,,,,,,,,,5,,,52,0
135840,note_on,84,0,5,,,,,,,,,5,,,55,48
135996,note_off,156,0,5,,,,,,,,,5,,,55,0
136080,note_on,0,0,3,,,,,,,,,3,,,55,52
136080,note_on,0,0,3,,,,,,,,,3,,,58,52
136080,note_on,84,0,5,,,,,,,,,5,,,61,57
136080,note_on,2220,0,3,,,,,,,,,3,,,64,52
136560,note_off,480,0,5,,,,,,,,,5,,,61,0
136560,note_on,0,0,5,,,,,,,,,5,,,60,39
136680,set_tempo,1320,1,0,,,,,,517241,,,,,,,
136735,note_off,0,0,3,,,,,,,,,3,,,64,0
136735,note_off,655,0,3,,,,,,,,,3,,,58,0
136740,note_off,5,0,3,,,,,,,,,3,,,55,0
136752,note_off,192,0,5,,,,,,,,,5,,,60,0
138240,control_change,15900,0,4,,,,,,,64,0,4,,,,
138240,control_change,30240,0,2,,,,,,,64,0,2,,,,
138240,control_change,13320,0,1,,,,,,,64,0,1,,,,
138240,set_tempo,1560,1,0,,,,,,550458,,,,,,,
138240,note_on,0,0,5,,,,,,,,,5,,,36,44
138240,control_change,1500,0,3,,,,,,,64,0,3,,,,
138240,control_change,1488,0,5,,,,,,,64,0,5,,,,
138396,note_off,156,0,5,,,,,,,,,5,,,36,0
138480,note_on,84,0,5,,,,,,,,,5,,,40,44
138636,note_off,156,0,5,,,,,,,,,5,,,40,0
138720,note_on,84,0,5,,,,,,,,,5,,,43,43
138840,set_tempo,600,1,0,,,,,,612244,,,,,,,
138876,note_off,156,0,5,,,,,,,,,5,,,43,0
138960,note_on,720,0,3,,,,,,,,,3,,,43,48
138960,set_tempo,120,1,0,,,,,,625000,,,,,,,
138960,note_on,0,0,3,,,,,,,,,3,,,52,48
138960,note_on,84,0,5,,,,,,,,,5,,,49,53
138960,note_on,0,0,3,,,,,,,,,3,,,46,48
139440,note_on,0,0,5,,,,,,,,,5,,,48,35
139440,note_off,480,0,5,,,,,,,,,5,,,49,0
139440,set_tempo,480,1,0,,,,,,652173,,,,,,,
139615,note_off,655,0,3,,,,,,,,,3,,,52,0
139615,note_off,0,0,3,,,,,,,,,3,,,46,0
139620,note_off,5,0,3,,,,,,,,,3,,,43,0
139632,note_off,192,0,5,,,,,,,,,5,,,48,0
139680,set_tempo,240,1,0,,,,,,384615,,,,,,,
142560,control_change,2928,0,5,,,,,,,64,127,5,,,,
142560,set_tempo,2880,1,0,,,,,,495867,,,,,,,
142560,control_change,4320,0,1,,,,,,,64,127,1,,,,
142560,note_on,0,0,1,,,,,,,,,1,,,63,30
142560,control_change,4320,0,2,,,,,,,64,127,2,,,,
142560,control_change,2940,0,3,,,,,,,64,127,3,,,,
142560,control_change,4320,0,4,,,,,,,64,127,4,,,,
142560,note_on,0,0,5,,,,,,,,,5,,,51,30
142752,note_off,192,0,5,,,,,,,,,5,,,51,0
142752,note_off,192,0,1,,,,,,,,,1,,,63,0
142800,note_on,48,0,5,,,,,,,,,5,,,51,33
142800,note_on,48,0,1,,,,,,,,,1,,,63,33
142992,note_off,192,0,5,,,,,,,,,5,,,51,0
142992,note_off,192,0,1,,,,,,,,,1,,,63,0
143040,note_on,48,0,5,,,,,,,,,5,,,51,35
143040,note_on,48,0,1,,,,,,,,,1,,,63,35
143232,note_off,192,0,1,,,,,,,,,1,,,63,0
143232,note_off,192,0,5,,,,,,,,,5,,,51,0
143280,note_on,48,0,1,,,,,,,,,1,,,63,37
143280,note_on,48,0,5,,,,,,,,,5,,,51,37
143472,note_off,192,0,1,,,,,,,,,1,,,63,0
143472,note_off,192,0,5,,,,,,,,,5,,,51,0
143520,note_on,48,0,1,,,,,,,,,1,,,63,40
143520,note_on,48,0,5,,,,,,,,,5,,,51,40
143640,control_change,1080,0,3,,,,,,,64,0,3,,,,
143640,control_change,1080,0,4,,,,,,,64,0,4,,,,
143640,control_change,1080,0,2,,,,,,,64,0,2,,,,
143640,control_change,120,0,5,,,,,,,64,0,5,,,,
143640,control_change,120,0,1,,,,,,,64,0,1,,,,
143712,note_off,72,0,5,,,,,,,,,5,,,51,0
143712,note_off,72,0,1,,,,,,,,,1,,,63,0
143760,note_on,48,0,5,,,,,,,,,5,,,51,42
143760,note_on,48,0,1,,,,,,,,,1,,,63,42
143880,set_tempo,1320,1,0,,,,,,500000,,,,,,,
143952,note_off,192,0,1,,,,,,,,,1,,,63,0
143952,note_off,192,0,5,,,,,,,,,5,,,51,0
144000,control_change,48,0,5,,,,,,,64,127,5,,,,
144000,note_on,0,0,5,,,,,,,,,5,,,44,55
144000,set_tempo,120,1,0,,,,,,495867,,,,,,,
144000,note_on,0,0,2,,,,,,,,,2,,,63,55
144000,note_on,0,0,2,,,,,,,,,2,,,61,55
144000,control_change,360,0,2,,,,,,,64,127,2,,,,
144000,control_change,360,0,4,,,,,,,64,127,4,,,,
144000,note_on,0,0,1,,,,,,,,,1,,,73,55
144000,control_change,48,0,1,,,,,,,64,127,1,,,,
144000,control_change,360,0,3,,,,,,,64,127,3,,,,
144240,note_on,240,0,3,,,,,,,,,3,,,51,46
144480,note_on,0,0,1,,,,,,,,,1,,,72,46
144480,note_on,0,0,3,,,,,,,,,3,,,56,46
144480,note_off,240,0,3,,,,,,,,,3,,,51,0
144480,note_off,480,0,2,,,,,,,,,2,,,61,0
144480,note_off,480,0,1,,,,,,,,,1,,,73,0
144480,note_on,0,0,2,,,,,,,,,2,,,60,46
144660,control_change,660,0,5,,,,,,,64,0,5,,,,
144660,control_change,180,0,2,,,,,,,64,0,2,,,,
144660,control_change,660,0,4,,,,,,,64,0,4,,,,
144660,control_change,180,0,3,,,,,,,64,0,3,,,,
144660,control_change,180,0,1,,,,,,,64,0,1,,,,
144720,note_off,60,0,3,,,,,,,,,3,,,56,0
144720,note_off,60,0,5,,,,,,,,,5,,,44,0
144720,note_on,0,0,5,,,,,,,,,5,,,44,46
144960,note_off,300,0,1,,,,,,,,,1,,,72,0
144960,note_on,240,0,3,,,,,,,,,3,,,51,47
144960,note_on,0,0,1,,,,,,,,,1,,,70,47
145200,note_off,240,0,3,,,,,,,,,3,,,51,0
145200,note_on,0,0,3,,,,,,,,,3,,,56,47
145200,note_on,0,0,1,,,,,,,,,1,,,68,47
145200,note_off,240,0,1,,,,,,,,,1,,,70,0
145380,note_off,720,0,2,,,,,,,,,2,,,63,0
145385,note_off,665,0,5,,,,,,,,,5,,,44,0
145387,note_off,7,0,2,,,,,,,,,2,,,60,0
145392,note_off,192,0,3,,,,,,,,,3,,,56,0
145392,note_off,192,0,1,,,,,,,,,1,,,68,0
145440,control_change,53,0,2,,,,,,,64,127,2,,,,
145440,note_on,0,0,2,,,,,,,,,2,,,63,55
145440,note_on,0,0,2,,,,,,,,,2,,,67,55
145440,control_change,780,0,4,,,,,,,64,127,4,,,,
145440,control_change,55,0,5,,,,,,,64,127,5,,,,
145440,note_on,0,0,5,,,,,,,,,5,,,46,55
145440,control_change,48,0,1,,,,,,,64,127,1,,,,
145440,note_on,0,0,1,,,,,,,,,1,,,75,55
145440,control_change,48,0,3,,,,,,,64,127,3,,,,
145680,note_on,240,0,3,,,,,,,,,3,,,51,47
145920,note_off,480,0,1,,,,,,,,,1,,,75,0
145920,note_on,480,0,2,,,,,,,,,2,,,61,48
145920,note_off,240,0,3,,,,,,,,,3,,,51,0
145920,note_on,0,0,1,,,,,,,,,1,,,73,48
145920,note_on,0,0,3,,,,,,,,,3,,,58,48
145927,note_off,7,0,2,,,,,,,,,2,,,63,0
146100,control_change,660,0,4,,,,,,,64,0,4,,,,
146100,control_change,173,0,2,,,,,,,64,0,2,,,,
146100,control_change,180,0,3,,,,,,,64,0,3,,,,
146100,control_change,660,0,5,,,,,,,64,0,5,,,,
146100,control_change,180,0,1,,,,,,,64,0,1,,,,
146160,note_on,0,0,5,,,,,,,,,5,,,46,48
146160,note_off,60,0,5,,,,,,,,,5,,,46,0
146160,note_off,60,0,3,,,,,,,,,3,,,58,0
146400,note_off,300,0,1,,,,,,,,,1,,,73,0
146400,note_on,0,0,1,,,,,,,,,1,,,72,48
146400,note_on,240,0,3,,,,,,,,,3,,,51,48
146640,note_on,0,0,1,,,,,,,,,1,,,70,49
146640,note_on,0,0,3,,,,,,,,,3,,,58,49
146640,note_off,240,0,3,,,,,,,,,3,,,51,0
146640,note_off,240,0,1,,,,,,,,,1,,,72,0
146760,set_tempo,2760,1,0,,,,,,500000,,,,,,,
146820,note_off,660,0,5,,,,,,,,,5,,,46,0
146827,note_off,727,0,2,,,,,,,,,2,,,67,0
146832,note_off,192,0,1,,,,,,,,,1,,,70,0
146832,note_off,192,0,3,,,,,,,,,3,,,58,0
146842,note_off,15,0,2,,,,,,,,,2,,,61,0
146880,control_change,780,0,4,,,,,,,64,127,4,,,,
146880,control_change,60,0,5,,,,,,,64,127,5,,,,
146880,set_tempo,120,1,0,,,,,,495867,,,,,,,
146880,note_on,0,0,5,,,,,,,,,5,,,44,56
146880,control_change,48,0,1,,,,,,,64,127,1,,,,
146880,note_on,0,0,2,,,,,,,,,2,,,61,56
146880,note_on,0,0,2,,,,,,,,,2,,,63,56
146880,control_change,38,0,2,,,,,,,64,127,2,,,,
146880,note_on,0,0,1,,,,,,,,,1,,,73,56
146880,control_change,48,0,3,,,,,,,64,127,3,,,,
147120,note_on,240,0,3,,,,,,,,,3,,,51,49
147360,note_off,480,0,1,,,,,,,,,1,,,73,0
147360,note_on,0,0,1,,,,,,,,,1,,,72,49
147360,note_on,0,0,3,,,,,,,,,3,,,56,49
147360,note_off,240,0,3,,,,,,,,,3,,,51,0
147360,note_on,480,0,2,,,,,,,,,2,,,60,49
147367,note_off,7,0,2,,,,,,,,,2,,,61,0
147540,control_change,173,0,2,,,,,,,64,0,2,,,,
147540,control_change,660,0,4,,,,,,,64,0,4,,,,
147540,control_change,180,0,1,,,,,,,64,0,1,,,,
147540,control_change,660,0,5,,,,,,,64,0,5,,,,
147540,control_change,180,0,3,,,,,,,64,0,3,,,,
147600,note_off,60,0,3,,,,,,,,,3,,,56,0
147600,note_on,0,0,5,,,,,,,,,5,,,44,50
147600,note_off,60,0,5,,,,,,,,,5,,,44,0
147840,note_on,0,0,1,,,,,,,,,1,,,70,50
147840,note_off,300,0,1,,,,,,,,,1,,,72,0
147840,note_on,240,0,3,,,,,,,,,3,,,51,50
148080,note_on,0,0,3,,,,,,,,,3,,,56,50
148080,note_off,240,0,3,,,,,,,,,3,,,51,0
148080,note_on,0,0,1,,,,,,,,,1,,,68,50
148080,note_off,240,0,1,,,,,,,,,1,,,70,0
148265,note_off,665,0,5,,,,,,,,,5,,,44,0
148267,note_off,0,0,2,,,,,,,,,2,,,63,0
148267,note_off,727,0,2,,,,,,,,,2,,,60,0
148272,note_off,192,0,3,,,,,,,,,3,,,56,0
148272,note_off,192,0,1,,,,,,,,,1,,,68,0
148320,control_change,55,0,5,,,,,,,64,127,5,,,,
148320,note_on,0,0,5,,,,,,,,,5,,,46,58
148320,control_change,48,0,3,,,,,,,64,127,3,,,,
148320,note_on,0,0,2,,,,,,,,,2,,,67,58
148320,control_change,53,0,2,,,,,,,64,127,2,,,,
148320,note_on,0,0,2,,,,,,,,,2,,,63,58
148320,control_change,48,0,1,,,,,,,64,127,1,,,,
148320,note_on,0,0,1,,,,,,,,,1,,,75,58
148320,control_change,780,0,4,,,,,,,64,127,4,,,,
148560,note_on,240,0,3,,,,,,,,,3,,,51,51
148800,note_off,240,0,3,,,,,,,,,3,,,51,0
148800,note_on,0,0,3,,,,,,,,,3,,,58,51
148800,note_off,480,0,1,,,,,,,,,1,,,75,0
148800,note_on,0,0,1,,,,,,,,,1,,,73,51
148800,note_on,480,0,2,,,,,,,,,2,,,61,51
148807,note_off,7,0,2,,,,,,,,,2,,,63,0
148980,control_change,660,0,5,,,,,,,64,0,5,,,,
148980,control_change,180,0,3,,,,,,,64,0,3,,,,
148980,control_change,173,0,2,,,,,,,64,0,2,,,,
148980,control_change,660,0,4,,,,,,,64,0,4,,,,
148980,control_change,180,0,1,,,,,,,64,0,1,,,,
149040,note_off,60,0,3,,,,,,,,,3,,,58,0
149040,note_off,60,0,5,,,,,,,,,5,,,46,0
149040,note_on,0,0,5,,,,,,,,,5,,,46,51
149280,note_on,240,0,3,,,,,,,,,3,,,51,52
149280,note_off,300,0,1,,,,,,,,,1,,,73,0
149280,note_on,0,0,1,,,,,,,,,1,,,72,52
149520,note_on,0,0,3,,,,,,,,,3,,,58,52
149520,note_on,0,0,1,,,,,,,,,1,,,70,52
149520,note_off,240,0,1,,,,,,,,,1,,,72,0
149520,note_off,240,0,3,,,,,,,,,3,,,51,0
149640,set_tempo,2760,1,0,,,,,,500000,,,,,,,
149700,note_off,660,0,5,,,,,,,,,5,,,46,0
149712,note_off,192,0,3,,,,,,,,,3,,,58,0
149712,note_off,192,0,1,,,,,,,,,1,,,70,0
149715,note_off,735,0,2,,,,,,,,,2,,,67,0
149722,note_off,7,0,2,,,,,,,,,2,,,61,0
149760,control_change,38,0,2,,,,,,,64,127,2,,,,
149760,note_on,0,0,5,,,,,,,,,5,,,48,61
149760,control_change,60,0,5,,,,,,,64,127,5,,,,
149760,control_change,48,0,1,,,,,,,64,127,1,,,,
149760,note_on,0,0,1,,,,,,,,,1,,,77,61
149760,set_tempo,120,1,0,,,,,,495867,,,,,,,
149760,control_change,780,0,4,,,,,,,64,127,4,,,,
149760,control_change,48,0,3,,,,,,,64,127,3,,,,
149760,note_on,0,0,2,,,,,,,,,2,,,65,61
149760,note_on,0,0,2,,,,,,,,,2,,,68,61
150000,note_on,240,0,3,,,,,,,,,3,,,56,52
150240,note_on,0,0,1,,,,,,,,,1,,,75,53
150240,note_off,480,0,1,,,,,,,,,1,,,77,0
150240,note_off,240,0,3,,,,,,,,,3,,,56,0
150240,note_on,0,0,3,,,,,,,,,3,,,60,53
150240,note_on,480,0,2,,,,,,,,,2,,,63,53
150247,note_off,7,0,2,,,,,,,,,2,,,65,0
150420,control_change,180,0,1,,,,,,,64,0,1,,,,
150420,control_change,660,0,4,,,,,,,64,0,4,,,,
150420,control_change,180,0,3,,,,,,,64,0,3,,,,
150420,control_change,660,0,5,,,,,,,64,0,5,,,,
150420,control_change,173,0,2,,,,,,,64,0,2,,,,
150480,note_on,0,0,5,,,,,,,,,5,,,48,53
150480,note_off,60,0,3,,,,,,,,,3,,,60,0
150480,note_off,60,0,5,,,,,,,,,5,,,48,0
150720,note_on,240,0,3,,,,,,,,,3,,,56,53
150720,note_on,0,0,1,,,,,,,,,1,,,73,53
150720,note_off,300,0,1,,,,,,,,,1,,,75,0
150960,note_on,0,0,1,,,,,,,,,1,,,72,53
150960,note_off,240,0,1,,,,,,,,,1,,,73,0
150960,note_off,240,0,3,,,,,,,,,3,,,56,0
150960,note_on,0,0,3,,,,,,,,,3,,,60,53
151140,note_off,660,0,5,,,,,,,,,5,,,48,0
151147,note_off,727,0,2,,,,,,,,,2,,,63,0
151152,note_off,192,0,1,,,,,,,,,1,,,72,0
151152,note_off,192,0,3,,,,,,,,,3,,,60,0
151155,note_off,8,0,2,,,,,,,,,2,,,68,0
151200,note_on,60,0,5,,,,,,,,,5,,,48,62
151200,note_on,48,0,1,,,,,,,,,1,,,72,62
151200,note_on,0,0,2,,,,,,,,,2,,,63,62
151200,note_on,45,0,2,,,,,,,,,2,,,66,62
151440,note_on,288,0,3,,,,,,,,,3,,,54,54
151440,note_off,240,0,1,,,,,,,,,1,,,72,0
151440,note_on,0,0,1,,,,,,,,,1,,,70,54
151680,note_off,240,0,1,,,,,,,,,1,,,70,0
151680,note_off,240,0,3,,,,,,,,,3,,,54,0
151680,note_on,0,0,3,,,,,,,,,3,,,57,54
151680,note_on,0,0,1,,,,,,,,,1,,,69,54
151920,note_on,0,0,5,,,,,,,,,5,,,48,65
151920,note_off,240,0,1,,,,,,,,,1,,,69,0
151920,note_off,720,0,5,,,,,,,,,5,,,48,0
151920,note_off,240,0,3,,,,,,,,,3,,,57,0
151920,note_on,0,0,1,,,,,,,,,1,,,69,65
152160,note_off,240,0,1,,,,,,,,,1,,,69,0
152160,note_on,240,0,3,,,,,,,,,3,,,54,55
152160,note_on,0,0,1,,,,,,,,,1,,,70,55
152400,note_off,240,0,1,,,,,,,,,1,,,70,0
152400,note_on,0,0,1,,,,,,,,,1,,,72,55
152400,note_on,0,0,3,,,,,,,,,3,,,57,55
152400,note_off,240,0,3,,,,,,,,,3,,,54,0
152580,note_off,660,0,5,,,,,,,,,5,,,48,0
152587,note_off,1387,0,2,,,,,,,,,2,,,66,0
152592,note_off,192,0,3,,,,,,,,,3,,,57,0
152592,note_off,192,0,1,,,,,,,,,1,,,72,0
152595,note_off,8,0,2,,,,,,,,,2,,,63,0
152640,note_on,0,0,5,,,,,,,,,5,,,49,62
152640,note_on,0,0,2,,,,,,,,,2,,,65,62
152640,note_on,0,0,1,,,,,,,,,1,,,75,62
152640,control_change,48,0,1,,,,,,,64,127,1,,,,
152640,control_change,45,0,2,,,,,,,64,127,2,,,,
152640,control_change,60,0,5,,,,,,,64,127,5,,,,
152640,control_change,48,0,3,,,,,,,64,127,3,,,,
152640,control_change,2220,0,4,,,,,,,64,127,4,,,,
152880,note_on,240,0,3,,,,,,,,,3,,,53,54
152880,note_off,240,0,1,,,,,,,,,1,,,75,0
152880,note_on,0,0,1,,,,,,,,,1,,,73,54
153060,control_change,420,0,4,,,,,,,64,0,4,,,,
153060,control_change,180,0,3,,,,,,,64,0,3,,,,
153060,control_change,180,0,1,,,,,,,64,0,1,,,,
153060,control_change,420,0,5,,,,,,,64,0,5,,,,
153060,control_change,420,0,2,,,,,,,64,0,2,,,,
153120,note_on,0,0,3,,,,,,,,,3,,,57,54
153120,note_off,60,0,3,,,,,,,,,3,,,53,0
153120,note_on,0,0,1,,,,,,,,,1,,,72,54
153120,note_off,60,0,1,,,,,,,,,1,,,73,0
153360,note_on,0,0,1,,,,,,,,,1,,,75,55
153360,note_off,240,0,1,,,,,,,,,1,,,72,0
153360,note_off,240,0,3,,,,,,,,,3,,,57,0
153360,note_on,0,0,5,,,,,,,,,5,,,49,65
153360,note_off,300,0,5,,,,,,,,,5,,,49,0
153600,note_on,240,0,3,,,,,,,,,3,,,58,55
153600,note_on,0,0,1,,,,,,,,,1,,,73,55
153600,note_off,240,0,1,,,,,,,,,1,,,75,0
153840,note_off,240,0,3,,,,,,,,,3,,,58,0
153840,note_on,0,0,3,,,,,,,,,3,,,61,55
153840,note_on,0,0,1,,,,,,,,,1,,,70,55
153840,note_off,240,0,1,,,,,,,,,1,,,73,0
153960,set_tempo,4200,1,0,,,,,,500000,,,,,,,
154020,note_off,660,0,5,,,,,,,,,5,,,49,0
154027,note_off,967,0,2,,,,,,,,,2,,,65,0
154032,note_off,192,0,3,,,,,,,,,3,,,61,0
154032,note_off,192,0,1,,,,,,,,,1,,,70,0
154080,note_on,48,0,1,,,,,,,,,1,,,68,68
154080,note_on,60,0,5,,,,,,,,,5,,,51,68
154320,note_on,288,0,3,,,,,,,,,3,,,60,55
154560,note_off,240,0,3,,,,,,,,,3,,,60,0
154560,note_on,0,0,3,,,,,,,,,3,,,63,53
154800,note_on,0,0,5,,,,,,,,,5,,,51,56
154800,note_off,720,0,5,,,,,,,,,5,,,51,0
154800,note_off,240,0,3,,,,,,,,,3,,,63,0
154800,note_on,773,0,2,,,,,,,,,2,,,67,56
154800,note_off,720,0,1,,,,,,,,,1,,,68,0
154800,note_on,0,0,1,,,,,,,,,1,,,72,56
155040,note_on,240,0,3,,,,,,,,,3,,,61,50
155280,set_tempo,1320,1,0,,,,,,535714,,,,,,,
155280,note_on,0,0,1,,,,,,,,,1,,,70,48
155280,note_off,240,0,3,,,,,,,,,3,,,61,0
155280,note_on,0,0,3,,,,,,,,,3,,,63,48
155280,note_off,480,0,1,,,,,,,,,1,,,72,0
155465,note_off,665,0,2,,,,,,,,,2,,,67,0
155472,note_off,192,0,1,,,,,,,,,1,,,70,0
155472,note_off,192,0,3,,,,,,,,,3,,,63,0
155475,note_off,675,0,5,,,,,,,,,5,,,51,0
155520,set_tempo,240,1,0,,,,,,495867,,,,,,,
155520,control_change,48,0,3,,,,,,,64,127,3,,,,
155520,control_change,2460,0,4,,,,,,,64,127,4,,,,
155520,note_on,0,0,2,,,,,,,,,2,,,68,63
155520,note_on,0,0,2,,,,,,,,,2,,,75,63
155520,control_change,48,0,1,,,,,,,64,127,1,,,,
155520,note_on,0,0,1,,,,,,,,,1,,,73,63
155520,control_change,45,0,5,,,,,,,64,127,5,,,,
155520,note_on,0,0,5,,,,,,,,,5,,,32,63
155520,note_on,0,0,5,,,,,,,,,5,,,44,63
155520,control_change,55,0,2,,,,,,,64,127,2,,,,
155760,note_on,240,0,3,,,,,,,,,3,,,56,56
155760,note_off,0,0,5,,,,,,,,,5,,,32,0
155760,note_off,240,0,5,,,,,,,,,5,,,44,0
155760,note_on,0,0,3,,,,,,,,,3,,,63,56
155940,control_change,420,0,2,,,,,,,64,0,2,,,,
155940,control_change,420,0,1,,,,,,,64,0,1,,,,
155940,control_change,420,0,4,,,,,,,64,0,4,,,,
155940,control_change,180,0,3,,,,,,,64,0,3,,,,
155940,control_change,180,0,5,,,,,,,64,0,5,,,,
155952,note_off,12,0,3,,,,,,,,,3,,,63,0
155952,note_off,0,0,3,,,,,,,,,3,,,56,0
156000,note_on,0,0,3,,,,,,,,,3,,,63,58
156000,note_on,0,0,1,,,,,,,,,1,,,72,58
156000,note_off,60,0,1,,,,,,,,,1,,,73,0
156000,note_on,48,0,3,,,,,,,,,3,,,56,58
156192,note_off,192,0,3,,,,,,,,,3,,,63,0
156192,note_off,0,0,3,,,,,,,,,3,,,56,0
156240,note_on,48,0,3,,,,,,,,,3,,,63,60
156240,note_on,0,0,3,,,,,,,,,3,,,56,60
156432,note_off,0,0,3,,,,,,,,,3,,,63,0
156432,note_off,192,0,3,,,,,,,,,3,,,56,0
156480,note_off,540,0,2,,,,,,,,,2,,,68,0
156480,note_on,540,0,5,,,,,,,,,5,,,58,62
156480,note_on,0,0,1,,,,,,,,,1,,,70,62
156480,note_on,0,0,2,,,,,,,,,2,,,67,62
156480,note_off,480,0,1,,,,,,,,,1,,,72,0
156480,note_on,48,0,3,,,,,,,,,3,,,63,62
156480,note_on,0,0,3,,,,,,,,,3,,,56,62
156672,note_off,0,0,3,,,,,,,,,3,,,63,0
156672,note_off,192,0,3,,,,,,,,,3,,,56,0
156672,note_off,192,0,2,,,,,,,,,2,,,67,0
156672,note_off,192,0,1,,,,,,,,,1,,,70,0
156672,note_off,192,0,5,,,,,,,,,5,,,58,0
156720,note_on,48,0,3,,,,,,,,,3,,,63,64
156720,note_on,0,0,3,,,,,,,,,3,,,56,64
156720,note_on,48,0,1,,,,,,,,,1,,,68,64
156720,note_on,48,0,5,,,,,,,,,5,,,60,64
156910,note_off,238,0,2,,,,,,,,,2,,,75,0
156912,note_off,192,0,3,,,,,,,,,3,,,56,0
156912,note_off,192,0,1,,,,,,,,,1,,,68,0
156912,note_off,0,0,3,,,,,,,,,3,,,63,0
156912,note_off,192,0,5,,,,,,,,,5,,,60,0
156960,note_on,48,0,1,,,,,,,,,1,,,67,66
156960,note_on,48,0,5,,,,,,,,,5,,,51,66
157080,note_on,0,0,1,,,,,,,,,1,,,70,67
157080,note_off,120,0,1,,,,,,,,,1,,,67,0
157152,note_off,192,0,5,,,,,,,,,5,,,51,0
157200,note_on,0,0,1,,,,,,,,,1,,,73,68
157200,note_on,0,0,3,,,,,,,,,3,,,67,68
157200,note_on,0,0,3,,,,,,,,,3,,,64,68
157200,note_on,288,0,3,,,,,,,,,3,,,61,68
157200,note_off,120,0,1,,,,,,,,,1,,,70,0
157320,note_on,0,0,1,,,,,,,,,1,,,76,69
157320,note_off,120,0,1,,,,,,,,,1,,,73,0
157392,note_off,0,0,3,,,,,,,,,3,,,61,0
157392,note_off,0,0,3,,,,,,,,,3,,,64,0
157392,note_off,192,0,3,,,,,,,,,3,,,67,0
157440,note_on,0,0,3,,,,,,,,,3,,,64,70
157440,note_on,0,0,3,,,,,,,,,3,,,67,70
157440,note_off,120,0,1,,,,,,,,,1,,,76,0
157440,note_on,0,0,1,,,,,,,,,1,,,79,70
157440,note_on,48,0,3,,,,,,,,,3,,,61,70
157520,note_off,80,0,1,,,,,,,,,1,,,79,0
157520,note_on,0,0,1,,,,,,,,,1,,,82,71
157600,note_off,80,0,1,,,,,,,,,1,,,82,0
157600,note_on,0,0,1,,,,,,,,,1,,,85,72
157632,note_off,192,0,3,,,,,,,,,3,,,67,0
157632,note_off,0,0,3,,,,,,,,,3,,,64,0
157632,note_off,0,0,3,,,,,,,,,3,,,61,0
157680,note_off,80,0,1,,,,,,,,,1,,,85,0
157680,note_on,528,0,5,,,,,,,,,5,,,51,81
157680,note_on,0,0,1,,,,,,,,,1,,,88,81
157872,note_off,192,0,5,,,,,,,,,5,,,51,0
157920,note_on,0,0,3,,,,,,,,,3,,,67,68
157920,note_on,0,0,3,,,,,,,,,3,,,64,68
157920,note_on,288,0,3,,,,,,,,,3,,,61,68
158112,note_off,0,0,3,,,,,,,,,3,,,64,0
158112,note_off,192,0,3,,,,,,,,,3,,,67,0
158112,note_off,0,0,3,,,,,,,,,3,,,61,0
158160,note_off,480,0,1,,,,,,,,,1,,,88,0
158160,note_on,0,0,1,,,,,,,,,1,,,87,64
158160,note_on,0,0,3,,,,,,,,,3,,,67,64
158160,note_on,48,0,3,,,,,,,,,3,,,63,64
158160,note_on,0,0,3,,,,,,,,,3,,,61,64
158280,set_tempo,2760,1,0,,,,,,500000,,,,,,,
158352,note_off,192,0,3,,,,,,,,,3,,,67,0
158352,note_off,0,0,3,,,,,,,,,3,,,61,0
158352,note_off,0,0,3,,,,,,,,,3,,,63,0
158352,note_off,192,0,1,,,,,,,,,1,,,87,0
158400,note_on,0,0,5,,,,,,,,,5,,,32,77
158400,control_change,2460,0,4,,,,,,,64,127,4,,,,
158400,control_change,48,0,3,,,,,,,64,127,3,,,,
158400,control_change,528,0,5,,,,,,,64,127,5,,,,
158400,note_on,0,0,5,,,,,,,,,5,,,44,77
158400,note_on,0,0,2,,,,,,,,,2,,,68,77
158400,set_tempo,120,1,0,,,,,,495867,,,,,,,
158400,control_change,48,0,1,,,,,,,64,127,1,,,,
158400,note_on,0,0,1,,,,,,,,,1,,,73,77
158400,control_change,1490,0,2,,,,,,,64,127,2,,,,
158400,note_on,0,0,2,,,,,,,,,2,,,75,77
158640,note_on,0,0,3,,,,,,,,,3,,,56,69
158640,note_on,240,0,3,,,,,,,,,3,,,63,69
158640,note_off,240,0,5,,,,,,,,,5,,,32,0
158640,note_off,0,0,5,,,,,,,,,5,,,44,0
158820,control_change,420,0,4,,,,,,,64,0,4,,,,
158820,control_change,420,0,2,,,,,,,64,0,2,,,,
158820,control_change,180,0,3,,,,,,,64,0,3,,,,
158820,control_change,420,0,1,,,,,,,64,0,1,,,,
158820,control_change,180,0,5,,,,,,,64,0,5,,,,
158832,note_off,0,0,3,,,,,,,,,3,,,63,0
158832,note_off,12,0,3,,,,,,,,,3,,,56,0
158880,note_on,48,0,3,,,,,,,,,3,,,63,70
158880,note_on,0,0,3,,,,,,,,,3,,,56,70
158880,note_on,0,0,1,,,,,,,,,1,,,72,70
158880,note_off,60,0,1,,,,,,,,,1,,,73,0
159072,note_off,192,0,3,,,,,,,,,3,,,56,0
159072,note_off,0,0,3,,,,,,,,,3,,,63,0
159120,note_on,48,0,3,,,,,,,,,3,,,56,71
159120,note_on,0,0,3,,,,,,,,,3,,,63,71
159312,note_off,0,0,3,,,,,,,,,3,,,56,0
159312,note_off,192,0,3,,,,,,,,,3,,,63,0
159360,note_on,0,0,3,,,,,,,,,3,,,63,71
159360,note_on,48,0,3,,,,,,,,,3,,,56,71
159360,note_on,0,0,2,,,,,,,,,2,,,67,71
159360,note_off,540,0,2,,,,,,,,,2,,,68,0
159360,note_on,540,0,5,,,,,,,,,5,,,58,71
159360,note_off,480,0,1,,,,,,,,,1,,,72,0
159360,note_on,0,0,1,,,,,,,,,1,,,70,71
159552,note_off,192,0,3,,,,,,,,,3,,,63,0
159552,note_off,192,0,2,,,,,,,,,2,,,67,0
159552,note_off,192,0,5,,,,,,,,,5,,,58,0
159552,note_off,0,0,3,,,,,,,,,3,,,56,0
159552,note_off,192,0,1,,,,,,,,,1,,,70,0
159600,note_on,0,0,3,,,,,,,,,3,,,63,72
159600,note_on,48,0,3,,,,,,,,,3,,,56,72
159600,note_on,48,0,5,,,,,,,,,5,,,60,72
159600,note_on,48,0,1,,,,,,,,,1,,,68,72
159790,note_off,238,0,2,,,,,,,,,2,,,75,0
159792,note_off,192,0,5,,,,,,,,,5,,,60,0
159792,note_off,192,0,3,,,,,,,,,3,,,63,0
159792,note_off,192,0,1,,,,,,,,,1,,,68,0
159792,note_off,0,0,3,,,,,,,,,3,,,56,0
159840,note_on,48,0,5,,,,,,,,,5,,,51,72
159840,note_on,48,0,1,,,,,,,,,1,,,67,72
159960,note_off,120,0,1,,,,,,,,,1,,,67,0
159960,note_on,0,0,1,,,,,,,,,1,,,70,73
160080,note_off,240,0,5,,,,,,,,,5,,,51,0
160080,note_on,0,0,3,,,,,,,,,3,,,64,75
160080,note_off,120,0,1,,,,,,,,,1,,,70,0
160080,note_on,288,0,3,,,,,,,,,3,,,61,75
160080,note_on,0,0,3,,,,,,,,,3,,,67,75
160080,note_on,0,0,1,,,,,,,,,1,,,73,75
160200,note_off,120,0,1,,,,,,,,,1,,,73,0
160200,note_on,0,0,1,,,,,,,,,1,,,76,77
160272,note_off,192,0,3,,,,,,,,,3,,,67,0
160272,note_off,0,0,3,,,,,,,,,3,,,64,0
160272,note_off,0,0,3,,,,,,,,,3,,,61,0
160320,note_on,0,0,3,,,,,,,,,3,,,67,79
160320,note_off,120,0,1,,,,,,,,,1,,,76,0
160320,note_on,0,0,1,,,,,,,,,1,,,79,79
160320,note_on,48,0,3,,,,,,,,,3,,,61,79
160320,note_on,0,0,3,,,,,,,,,3,,,64,79
160400,note_on,0,0,1,,,,,,,,,1,,,82,80
160400,note_off,80,0,1,,,,,,,,,1,,,79,0
160480,note_on,0,0,1,,,,,,,,,1,,,85,81
160480,note_off,80,0,1,,,,,,,,,1,,,82,0
160512,note_off,0,0,3,,,,,,,,,3,,,61,0
160512,note_off,0,0,3,,,,,,,,,3,,,64,0
160512,note_off,192,0,3,,,,,,,,,3,,,67,0
160560,note_off,80,0,1,,,,,,,,,1,,,85,0
160560,note_on,0,0,1,,,,,,,,,1,,,88,90
160560,note_on,480,0,5,,,,,,,,,5,,,51,90
160800,note_off,240,0,5,,,,,,,,,5,,,51,0
160800,note_on,288,0,3,,,,,,,,,3,,,61,80
160800,note_on,0,0,3,,,,,,,,,3,,,64,80
160800,note_on,0,0,3,,,,,,,,,3,,,67,80
160992,note_off,192,0,3,,,,,,,,,3,,,67,0
160992,note_off,0,0,3,,,,,,,,,3,,,64,0
160992,note_off,0,0,3,,,,,,,,,3,,,61,0
161040,note_on,0,0,3,,,,,,,,,3,,,67,77
161040,note_on,48,0,3,,,,,,,,,3,,,61,77
161040,note_on,0,0,3,,,,,,,,,3,,,64,77
161160,set_tempo,2760,1,0,,,,,,500000,,,,,,,
161220,note_off,660,0,1,,,,,,,,,1,,,88,0
161232,note_off,192,0,3,,,,,,,,,3,,,67,0
161232,note_off,0,0,3,,,,,,,,,3,,,64,0
161232,note_off,0,0,3,,,,,,,,,3,,,61,0
161280,note_on,1490,0,2,,,,,,,,,2,,,76,86
161280,note_on,60,0,1,,,,,,,,,1,,,88,86
161280,note_on,480,0,5,,,,,,,,,5,,,52,86
161520,note_on,0,0,3,,,,,,,,,3,,,64,78
161520,note_off,240,0,5,,,,,,,,,5,,,52,0
161520,note_on,288,0,3,,,,,,,,,3,,,61,78
161712,note_off,0,0,3,,,,,,,,,3,,,61,0
161712,note_off,192,0,3,,,,,,,,,3,,,64,0
161760,note_on,48,0,3,,,,,,,,,3,,,61,77
161760,note_on,0,0,3,,,,,,,,,3,,,64,77
161952,note_off,0,0,3,,,,,,,,,3,,,61,0
161952,note_off,192,0,3,,,,,,,,,3,,,64,0
162000,note_on,720,0,1,,,,,,,,,1,,,86,75
162000,note_on,480,0,5,,,,,,,,,5,,,52,75
162000,note_on,720,0,2,,,,,,,,,2,,,80,75
162240,note_on,0,0,1,,,,,,,,,1,,,85,74
162240,note_off,240,0,5,,,,,,,,,5,,,52,0
162240,note_on,0,0,3,,,,,,,,,3,,,64,74
162240,note_on,288,0,3,,,,,,,,,3,,,62,74
162240,note_off,240,0,1,,,,,,,,,1,,,86,0
162432,note_off,192,0,3,,,,,,,,,3,,,64,0
162432,note_off,0,0,3,,,,,,,,,3,,,62,0
162465,set_tempo,1305,1,0,,,,,,508474,,,,,,,
162480,note_on,48,0,3,,,,,,,,,3,,,62,73
162480,note_on,0,0,3,,,,,,,,,3,,,64,73
162480,note_on,0,0,1,,,,,,,,,1,,,83,73
162480,note_off,240,0,1,,,,,,,,,1,,,85,0
162665,note_off,665,0,2,,,,,,,,,2,,,76,0
162670,note_off,5,0,2,,,,,,,,,2,,,80,0
162672,note_off,0,0,3,,,,,,,,,3,,,62,0
162672,note_off,192,0,3,,,,,,,,,3,,,64,0
162672,note_off,192,0,1,,,,,,,,,1,,,83,0
162680,note_off,8,0,1,,,,,,,,,1,,,88,0
162720,control_change,40,0,1,,,,,,,64,127,1,,,,
162720,note_on,0,0,1,,,,,,,,,1,,,74,81
162720,control_change,3900,0,4,,,,,,,64,127,4,,,,
162720,control_change,48,0,3,,,,,,,64,127,3,,,,
162720,note_on,0,0,5,,,,,,,,,5,,,33,81
162720,note_on,0,0,2,,,,,,,,,2,,,69,81
162720,note_on,0,0,5,,,,,,,,,5,,,45,81
162720,control_change,480,0,5,,,,,,,64,127,5,,,,
162720,control_change,50,0,2,,,,,,,64,127,2,,,,
162720,note_on,0,0,2,,,,,,,,,2,,,76,81
162720,set_tempo,255,1,0,,,,,,495867,,,,,,,
162960,note_on,0,0,3,,,,,,,,,3,,,64,70
162960,note_off,240,0,5,,,,,,,,,5,,,33,0
162960,note_off,0,0,5,,,,,,,,,5,,,45,0
162960,note_on,240,0,3,,,,,,,,,3,,,57,70
163140,control_change,420,0,1,,,,,,,64,0,1,,,,
163140,control_change,420,0,2,,,,,,,64,0,2,,,,
163140,control_change,420,0,4,,,,,,,64,0,4,,,,
163140,control_change,180,0,5,,,,,,,64,0,5,,,,
163140,control_change,180,0,3,,,,,,,64,0,3,,,,
163152,note_off,12,0,3,,,,,,,,,3,,,64,0
163152,note_off,0,0,3,,,,,,,,,3,,,57,0
163200,note_on,0,0,1,,,,,,,,,1,,,73,69
163200,note_on,48,0,3,,,,,,,,,3,,,57,69
163200,note_off,60,0,1,,,,,,,,,1,,,74,0
163200,note_on,0,0,3,,,,,,,,,3,,,64,69
163392,note_off,0,0,3,,,,,,,,,3,,,57,0
163392,note_off,192,0,3,,,,,,,,,3,,,64,0
163440,note_on,0,0,3,,,,,,,,,3,,,64,68
163440,note_on,48,0,3,,,,,,,,,3,,,57,68
163632,note_off,0,0,3,,,,,,,,,3,,,57,0
163632,note_off,192,0,3,,,,,,,,,3,,,64,0
163680,note_off,540,0,2,,,,,,,,,2,,,69,0
163680,note_on,0,0,2,,,,,,,,,2,,,68,67
163680,note_on,540,0,5,,,,,,,,,5,,,59,67
163680,note_off,480,0,1,,,,,,,,,1,,,73,0
163680,note_on,0,0,3,,,,,,,,,3,,,64,67
163680,note_on,48,0,3,,,,,,,,,3,,,57,67
163680,note_on,0,0,1,,,,,,,,,1,,,71,67
163872,note_off,0,0,3,,,,,,,,,3,,,57,0
163872,note_off,192,0,1,,,,,,,,,1,,,71,0
163872,note_off,192,0,3,,,,,,,,,3,,,64,0
163872,note_off,192,0,2,,,,,,,,,2,,,68,0
163872,note_off,192,0,5,,,,,,,,,5,,,59,0
163920,note_on,0,0,3,,,,,,,,,3,,,64,65
163920,note_on,48,0,5,,,,,,,,,5,,,61,65
163920,note_on,48,0,1,,,,,,,,,1,,,69,65
163920,note_on,48,0,3,,,,,,,,,3,,,57,65
164110,note_off,238,0,2,,,,,,,,,2,,,76,0
164112,note_off,192,0,1,,,,,,,,,1,,,69,0
164112,note_off,192,0,3,,,,,,,,,3,,,64,0
164112,note_off,0,0,3,,,,,,,,,3,,,57,0
164112,note_off,192,0,5,,,,,,,,,5,,,61,0
164160,note_on,48,0,5,,,,,,,,,5,,,52,73
164160,note_on,48,0,1,,,,,,,,,1,,,68,73
164280,note_off,120,0,1,,,,,,,,,1,,,68,0
164280,note_on,0,0,1,,,,,,,,,1,,,71,60
164352,note_off,192,0,5,,,,,,,,,5,,,52,0
164400,note_on,288,0,3,,,,,,,,,3,,,62,63
164400,note_on,0,0,1,,,,,,,,,1,,,74,63
164400,note_off,120,0,1,,,,,,,,,1,,,71,0
164400,note_on,48,0,5,,,,,,,,,5,,,65,63
164400,note_on,0,0,3,,,,,,,,,3,,,68,63
164520,note_off,120,0,1,,,,,,,,,1,,,74,0
164520,note_on,0,0,1,,,,,,,,,1,,,77,65
164592,note_off,192,0,5,,,,,,,,,5,,,65,0
164592,note_off,0,0,3,,,,,,,,,3,,,62,0
164592,note_off,192,0,3,,,,,,,,,3,,,68,0
164640,note_on,0,0,3,,,,,,,,,3,,,68,67
164640,note_on,48,0,3,,,,,,,,,3,,,62,67
164640,note_on,48,0,5,,,,,,,,,5,,,65,67
164640,note_off,120,0,1,,,,,,,,,1,,,77,0
164640,note_on,0,0,1,,,,,,,,,1,,,80,67
164720,note_off,80,0,1,,,,,,,,,1,,,80,0
164720,note_on,0,0,1,,,,,,,,,1,,,83,69
164800,note_on,0,0,1,,,,,,,,,1,,,86,71
164800,note_off,80,0,1,,,,,,,,,1,,,83,0
164832,note_off,0,0,3,,,,,,,,,3,,,62,0
164832,note_off,192,0,3,,,,,,,,,3,,,68,0
164832,note_off,192,0,5,,,,,,,,,5,,,65,0
164880,note_on,0,0,1,,,,,,,,,1,,,89,76
164880,note_on,48,0,5,,,,,,,,,5,,,52,76
164880,note_off,80,0,1,,,,,,,,,1,,,86,0
165072,note_off,192,0,5,,,,,,,,,5,,,52,0
165120,note_on,288,0,3,,,,,,,,,3,,,62,63
165120,note_on,0,0,3,,,,,,,,,3,,,68,63
165120,note_on,48,0,5,,,,,,,,,5,,,65,63
165312,note_off,192,0,3,,,,,,,,,3,,,68,0
165312,note_off,192,0,5,,,,,,,,,5,,,65,0
165312,note_off,0,0,3,,,,,,,,,3,,,62,0
165360,note_off,480,0,1,,,,,,,,,1,,,89,0
165360,note_on,48,0,5,,,,,,,,,5,,,64,57
165360,note_on,0,0,1,,,,,,,,,1,,,88,57
165360,note_on,48,0,3,,,,,,,,,3,,,62,57
165360,note_on,0,0,3,,,,,,,,,3,,,68,57
165480,set_tempo,2760,1,0,,,,,,500000,,,,,,,
165552,note_off,192,0,5,,,,,,,,,5,,,64,0
165552,note_off,192,0,3,,,,,,,,,3,,,68,0
165552,note_off,0,0,3,,,,,,,,,3,,,62,0
165552,note_off,192,0,1,,,,,,,,,1,,,88,0
165600,set_tempo,120,1,0,,,,,,495867,,,,,,,
165600,note_on,0,0,2,,,,,,,,,2,,,76,66
165600,note_on,0,0,2,,,,,,,,,2,,,69,66
165600,control_change,1490,0,2,,,,,,,64,127,2,,,,
165600,note_on,0,0,1,,,,,,,,,1,,,74,66
165600,control_change,48,0,1,,,,,,,64,127,1,,,,
165600,control_change,2460,0,4,,,,,,,64,127,4,,,,
165600,note_on,0,0,5,,,,,,,,,5,,,33,66
165600,control_change,48,0,3,,,,,,,64,127,3,,,,
165600,control_change,48,0,5,,,,,,,64,127,5,,,,
165600,note_on,0,0,5,,,,,,,,,5,,,45,66
165840,note_on,240,0,3,,,,,,,,,3,,,64,55
165840,note_on,0,0,3,,,,,,,,,3,,,57,55
165840,note_off,240,0,5,,,,,,,,,5,,,33,0
165840,note_off,0,0,5,,,,,,,,,5,,,45,0
166020,control_change,420,0,1,,,,,,,64,0,1,,,,
166020,control_change,420,0,4,,,,,,,64,0,4,,,,
166020,control_change,180,0,3,,,,,,,64,0,3,,,,
166020,control_change,180,0,5,,,,,,,64,0,5,,,,
166020,control_change,420,0,2,,,,,,,64,0,2,,,,
166032,note_off,12,0,3,,,,,,,,,3,,,57,0
166032,note_off,0,0,3,,,,,,,,,3,,,64,0
166080,note_on,48,0,3,,,,,,,,,3,,,64,54
166080,note_on,0,0,3,,,,,,,,,3,,,57,54
166080,note_on,0,0,1,,,,,,,,,1,,,73,54
166080,note_off,60,0,1,,,,,,,,,1,,,74,0
166272,note_off,0,0,3,,,,,,,,,3,,,64,0
166272,note_off,192,0,3,,,,,,,,,3,,,57,0
166320,note_on,48,0,3,,,,,,,,,3,,,57,53
166320,note_on,0,0,3,,,,,,,,,3,,,64,53
166512,note_off,192,0,3,,,,,,,,,3,,,64,0
166512,note_off,0,0,3,,,,,,,,,3,,,57,0
166560,note_off,480,0,1,,,,,,,,,1,,,73,0
166560,note_on,48,0,3,,,,,,,,,3,,,57,51
166560,note_on,0,0,3,,,,,,,,,3,,,64,51
166560,note_on,540,0,5,,,,,,,,,5,,,59,51
166560,note_off,540,0,2,,,,,,,,,2,,,69,0
166560,note_on,0,0,2,,,,,,,,,2,,,68,51
166560,note_on,0,0,1,,,,,,,,,1,,,71,51
166752,note_off,192,0,3,,,,,,,,,3,,,64,0
166752,note_off,0,0,3,,,,,,,,,3,,,57,0
166752,note_off,192,0,2,,,,,,,,,2,,,68,0
166752,note_off,192,0,5,,,,,,,,,5,,,59,0
166752,note_off,192,0,1,,,,,,,,,1,,,71,0
166800,note_on,48,0,1,,,,,,,,,1,,,69,50
166800,note_on,48,0,5,,,,,,,,,5,,,61,50
166800,note_on,48,0,3,,,,,,,,,3,,,57,50
166800,note_on,0,0,3,,,,,,,,,3,,,64,50
166990,note_off,238,0,2,,,,,,,,,2,,,76,0
166992,note_off,192,0,1,,,,,,,,,1,,,69,0
166992,note_off,0,0,3,,,,,,,,,3,,,57,0
166992,note_off,192,0,3,,,,,,,,,3,,,64,0
166992,note_off,192,0,5,,,,,,,,,5,,,61,0
167040,note_on,48,0,1,,,,,,,,,1,,,68,58
167040,note_on,48,0,5,,,,,,,,,5,,,52,58
167160,note_on,0,0,1,,,,,,,,,1,,,71,50
167160,note_off,120,0,1,,,,,,,,,1,,,68,0
167232,note_off,192,0,5,,,,,,,,,5,,,52,0
167280,note_on,48,0,5,,,,,,,,,5,,,65,52
167280,note_on,0,0,1,,,,,,,,,1,,,74,52
167280,note_on,0,0,3,,,,,,,,,3,,,68,52
167280,note_on,288,0,3,,,,,,,,,3,,,62,52
167280,note_off,120,0,1,,,,,,,,,1,,,71,0
167400,note_off,120,0,1,,,,,,,,,1,,,74,0
167400,note_on,0,0,1,,,,,,,,,1,,,77,53
167472,note_off,0,0,3,,,,,,,,,3,,,62,0
167472,note_off,192,0,3,,,,,,,,,3,,,68,0
167472,note_off,192,0,5,,,,,,,,,5,,,65,0
167520,note_on,0,0,3,,,,,,,,,3,,,68,55
167520,note_on,48,0,5,,,,,,,,,5,,,65,55
167520,note_on,48,0,3,,,,,,,,,3,,,62,55
167520,note_off,120,0,1,,,,,,,,,1,,,77,0
167520,note_on,0,0,1,,,,,,,,,1,,,80,55
167600,note_on,0,0,1,,,,,,,,,1,,,83,56
167600,note_off,80,0,1,,,,,,,,,1,,,80,0
167680,note_on,0,0,1,,,,,,,,,1,,,86,57
167680,note_off,80,0,1,,,,,,,,,1,,,83,0
167712,note_off,0,0,3,,,,,,,,,3,,,62,0
167712,note_off,192,0,3,,,,,,,,,3,,,68,0
167712,note_off,192,0,5,,,,,,,,,5,,,65,0
167760,note_on,48,0,5,,,,,,,,,5,,,52,64
167760,note_on,0,0,1,,,,,,,,,1,,,89,64
167760,note_off,80,0,1,,,,,,,,,1,,,86,0
167952,note_off,192,0,5,,,,,,,,,5,,,52,0
168000,note_on,48,0,5,,,,,,,,,5,,,65,49
168000,note_on,288,0,3,,,,,,,,,3,,,62,49
168000,note_on,0,0,3,,,,,,,,,3,,,68,49
168192,note_off,192,0,3,,,,,,,,,3,,,68,0
168192,note_off,0,0,3,,,,,,,,,3,,,62,0
168192,note_off,192,0,5,,,,,,,,,5,,,65,0
168240,note_off,480,0,1,,,,,,,,,1,,,89,0
168240,note_on,48,0,3,,,,,,,,,3,,,62,43
168240,note_on,0,0,3,,,,,,,,,3,,,68,43
168240,note_on,0,0,1,,,,,,,,,1,,,88,43
168240,note_on,48,0,5,,,,,,,,,5,,,64,43
168360,set_tempo,2760,1,0,,,,,,500000,,,,,,,
168432,note_off,192,0,5,,,,,,,,,5,,,64,0
168432,note_off,0,0,3,,,,,,,,,3,,,62,0
168432,note_off,192,0,3,,,,,,,,,3,,,68,0
168432,note_off,192,0,1,,,,,,,,,1,,,88,0
168480,set_tempo,120,1,0,,,,,,495867,,,,,,,
168480,note_on,0,0,2,,,,,,,,,2,,,74,50
168480,control_change,48,0,3,,,,,,,64,127,3,,,,
168480,control_change,48,0,5,,,,,,,64,127,5,,,,
168480,note_on,0,0,5,,,,,,,,,5,,,33,50
168480,note_on,0,0,5,,,,,,,,,5,,,45,50
168480,control_change,1490,0,2,,,,,,,64,127,2,,,,
168480,note_on,0,0,2,,,,,,,,,2,,,69,50
168480,control_change,2460,0,4,,,,,,,64,127,4,,,,
168480,control_change,48,0,1,,,,,,,64,127,1,,,,
168480,note_on,0,0,1,,,,,,,,,1,,,76,50
168720,note_on,240,0,3,,,,,,,,,3,,,57,43
168720,note_on,0,0,3,,,,,,,,,3,,,64,43
168720,note_off,0,0,5,,,,,,,,,5,,,33,0
168720,note_off,240,0,5,,,,,,,,,5,,,45,0
168900,control_change,420,0,2,,,,,,,64,0,2,,,,
168900,control_change,180,0,5,,,,,,,64,0,5,,,,
168900,control_change,420,0,1,,,,,,,64,0,1,,,,
168900,control_change,180,0,3,,,,,,,64,0,3,,,,
168900,control_change,420,0,4,,,,,,,64,0,4,,,,
168912,note_off,0,0,3,,,,,,,,,3,,,57,0
168912,note_off,12,0,3,,,,,,,,,3,,,64,0
168960,note_off,60,0,2,,,,,,,,,2,,,74,0
168960,note_on,48,0,3,,,,,,,,,3,,,57,44
168960,note_on,0,0,3,,,,,,,,,3,,,64,44
168960,note_on,0,0,2,,,,,,,,,2,,,73,44
169152,note_off,0,0,3,,,,,,,,,3,,,57,0
169152,note_off,192,0,3,,,,,,,,,3,,,64,0
169200,note_on,0,0,3,,,,,,,,,3,,,57,45
169200,note_on,48,0,3,,,,,,,,,3,,,64,45
169392,note_off,0,0,3,,,,,,,,,3,,,64,0
169392,note_off,192,0,3,,,,,,,,,3,,,57,0
169440,note_on,48,0,3,,,,,,,,,3,,,64,47
169440,note_on,0,0,3,,,,,,,,,3,,,57,47
169440,note_on,0,0,2,,,,,,,,,2,,,68,47
169440,note_off,480,0,2,,,,,,,,,2,,,73,0
169440,note_on,540,0,5,,,,,,,,,5,,,59,47
169440,note_on,0,0,2,,,,,,,,,2,,,71,47
169440,note_off,0,0,2,,,,,,,,,2,,,69,0
169632,note_off,192,0,5,,,,,,,,,5,,,59,0
169632,note_off,192,0,3,,,,,,,,,3,,,57,0
169632,note_off,192,0,2,,,,,,,,,2,,,68,0
169632,note_off,0,0,2,,,,,,,,,2,,,71,0
169632,note_off,0,0,3,,,,,,,,,3,,,64,0
169680,note_on,0,0,3,,,,,,,,,3,,,57,48
169680,note_on,48,0,5,,,,,,,,,5,,,61,48
169680,note_on,48,0,2,,,,,,,,,2,,,69,48
169680,note_on,48,0,3,,,,,,,,,3,,,64,48
169870,note_off,970,0,1,,,,,,,,,1,,,76,0
169872,note_off,192,0,5,,,,,,,,,5,,,61,0
169872,note_off,192,0,3,,,,,,,,,3,,,57,0
169872,note_off,192,0,2,,,,,,,,,2,,,69,0
169872,note_off,0,0,3,,,,,,,,,3,,,64,0
169920,note_on,0,0,2,,,,,,,,,2,,,72,56
169920,control_change,48,0,2,,,,,,,64,127,2,,,,
169920,note_on,0,0,5,,,,,,,,,5,,,57,56
169920,control_change,48,0,5,,,,,,,64,127,5,,,,
169920,note_on,0,0,3,,,,,,,,,3,,,65,56
169920,control_change,48,0,3,,,,,,,64,127,3,,,,
169920,control_change,50,0,1,,,,,,,64,127,1,,,,
169920,note_on,0,0,1,,,,,,,,,1,,,77,56
169920,control_change,1020,0,4,,,,,,,64,127,4,,,,
169920,note_on,0,0,5,,,,,,,,,5,,,60,56
170112,note_off,0,0,5,,,,,,,,,5,,,60,0
170112,note_off,192,0,5,,,,,,,,,5,,,57,0
170112,note_off,192,0,3,,,,,,,,,3,,,65,0
170160,note_on,48,0,5,,,,,,,,,5,,,60,50
170160,note_on,0,0,5,,,,,,,,,5,,,57,50
170160,note_on,48,0,3,,,,,,,,,3,,,65,50
170352,note_off,192,0,3,,,,,,,,,3,,,65,0
170352,note_off,0,0,5,,,,,,,,,5,,,60,0
170352,note_off,192,0,5,,,,,,,,,5,,,57,0
170400,note_on,0,0,2,,,,,,,,,2,,,75,51
170400,note_on,48,0,5,,,,,,,,,5,,,57,51
170400,note_on,0,0,5,,,,,,,,,5,,,60,51
170400,note_off,480,0,2,,,,,,,,,2,,,72,0
170400,note_on,48,0,3,,,,,,,,,3,,,65,51
170520,control_change,600,0,4,,,,,,,64,0,4,,,,
170520,control_change,120,0,2,,,,,,,64,0,2,,,,
170520,control_change,120,0,5,,,,,,,64,0,5,,,,
170520,control_change,120,0,3,,,,,,,64,0,3,,,,
170520,control_change,600,0,1,,,,,,,64,0,1,,,,
170592,note_off,72,0,3,,,,,,,,,3,,,65,0
170592,note_off,0,0,5,,,,,,,,,5,,,57,0
170592,note_off,72,0,5,,,,,,,,,5,,,60,0
170640,control_change,48,0,5,,,,,,,64,127,5,,,,
170640,control_change,120,0,4,,,,,,,64,127,4,,,,
170640,note_on,0,0,5,,,,,,,,,5,,,57,52
170640,note_on,0,0,5,,,,,,,,,5,,,60,52
170640,control_change,120,0,1,,,,,,,64,127,1,,,,
170640,control_change,120,0,2,,,,,,,64,127,2,,,,
170640,control_change,48,0,3,,,,,,,64,127,3,,,,
170640,note_on,0,0,3,,,,,,,,,3,,,65,52
170832,note_off,192,0,3,,,,,,,,,3,,,65,0
170832,note_off,192,0,5,,,,,,,,,5,,,57,0
170832,note_off,0,0,5,,,,,,,,,5,,,60,0
170880,note_on,48,0,3,,,,,,,,,3,,,65,53
170880,note_on,48,0,5,,,,,,,,,5,,,62,53
170880,note_off,240,0,2,,,,,,,,,2,,,75,0
170880,note_on,0,0,5,,,,,,,,,5,,,57,53
170880,note_on,0,0,2,,,,,,,,,2,,,74,53
171072,note_off,0,0,5,,,,,,,,,5,,,62,0
171072,note_off,192,0,5,,,,,,,,,5,,,57,0
171072,note_off,192,0,3,,,,,,,,,3,,,65,0
171120,note_on,48,0,3,,,,,,,,,3,,,65,54
171120,note_on,0,0,5,,,,,,,,,5,,,57,54
171120,note_off,240,0,2,,,,,,,,,2,,,74,0
171120,note_on,0,0,2,,,,,,,,,2,,,72,54
171120,note_on,48,0,5,,,,,,,,,5,,,63,54
171240,control_change,120,0,5,,,,,,,64,0,5,,,,
171240,control_change,600,0,4,,,,,,,64,0,4,,,,
171240,control_change,120,0,2,,,,,,,64,0,2,,,,
171240,control_change,120,0,3,,,,,,,64,0,3,,,,
171240,control_change,600,0,1,,,,,,,64,0,1,,,,
171310,note_off,70,0,1,,,,,,,,,1,,,77,0
171312,note_off,72,0,5,,,,,,,,,5,,,57,0
171312,note_off,0,0,5,,,,,,,,,5,,,63,0
171312,note_off,72,0,2,,,,,,,,,2,,,72,0
171312,note_off,72,0,3,,,,,,,,,3,,,65,0
171360,control_change,48,0,3,,,,,,,64,127,3,,,,
171360,note_on,0,0,5,,,,,,,,,5,,,60,62
171360,note_on,0,0,1,,,,,,,,,1,,,78,62
171360,control_change,50,0,1,,,,,,,64,127,1,,,,
171360,control_change,120,0,4,,,,,,,64,127,4,,,,
171360,note_on,0,0,5,,,,,,,,,5,,,57,62
171360,control_change,48,0,2,,,,,,,64,127,2,,,,
171360,note_on,0,0,3,,,,,,,,,3,,,66,62
171360,note_on,0,0,2,,,,,,,,,2,,,72,62
171360,control_change,48,0,5,,,,,,,64,127,5,,,,
171552,note_off,0,0,5,,,,,,,,,5,,,57,0
171552,note_off,192,0,3,,,,,,,,,3,,,66,0
171552,note_off,192,0,5,,,,,,,,,5,,,60,0
171600,note_on,48,0,3,,,,,,,,,3,,,66,56
171600,note_on,0,0,5,,,,,,,,,5,,,60,56
171600,note_on,48,0,5,,,,,,,,,5,,,57,56
171792,note_off,0,0,5,,,,,,,,,5,,,57,0
171792,note_off,192,0,5,,,,,,,,,5,,,60,0
171792,note_off,192,0,3,,,,,,,,,3,,,66,0
171840,note_off,480,0,2,,,,,,,,,2,,,72,0
171840,note_on,0,0,2,,,,,,,,,2,,,75,57
171840,note_on,48,0,5,,,,,,,,,5,,,60,57
171840,note_on,48,0,3,,,,,,,,,3,,,66,57
171840,note_on,0,0,5,,,,,,,,,5,,,57,57
171960,control_change,120,0,3,,,,,,,64,0,3,,,,
171960,control_change,600,0,1,,,,,,,64,0,1,,,,
171960,control_change,600,0,4,,,,,,,64,0,4,,,,
171960,control_change,120,0,2,,,,,,,64,0,2,,,,
171960,control_change,120,0,5,,,,,,,64,0,5,,,,
172032,note_off,72,0,3,,,,,,,,,3,,,66,0
172032,note_off,72,0,5,,,,,,,,,5,,,57,0
172032,note_off,0,0,5,,,,,,,,,5,,,60,0
172080,note_on,0,0,3,,,,,,,,,3,,,66,58
172080,control_change,48,0,3,,,,,,,64,127,3,,,,
172080,control_change,120,0,2,,,,,,,64,127,2,,,,
172080,control_change,120,0,1,,,,,,,64,127,1,,,,
172080,note_on,0,0,5,,,,,,,,,5,,,57,58
172080,note_on,0,0,5,,,,,,,,,5,,,60,58
172080,control_change,48,0,5,,,,,,,64,127,5,,,,
172080,control_change,120,0,4,,,,,,,64,127,4,,,,
172272,note_off,0,0,5,,,,,,,,,5,,,60,0
172272,note_off,192,0,3,,,,,,,,,3,,,66,0
172272,note_off,192,0,5,,,,,,,,,5,,,57,0
172320,note_on,48,0,3,,,,,,,,,3,,,66,59
172320,note_off,240,0,2,,,,,,,,,2,,,75,0
172320,note_on,0,0,5,,,,,,,,,5,,,57,59
172320,note_on,48,0,5,,,,,,,,,5,,,62,59
172320,note_on,0,0,2,,,,,,,,,2,,,74,59
172512,note_off,192,0,5,,,,,,,,,5,,,57,0
172512,note_off,192,0,3,,,,,,,,,3,,,66,0
172512,note_off,0,0,5,,,,,,,,,5,,,62,0
172560,note_off,240,0,2,,,,,,,,,2,,,74,0
172560,note_on,48,0,3,,,,,,,,,3,,,66,60
172560,note_on,0,0,2,,,,,,,,,2,,,72,60
172560,note_on,0,0,5,,,,,,,,,5,,,57,60
172560,note_on,48,0,5,,,,,,,,,5,,,63,60
172680,control_change,120,0,2,,,,,,,64,0,2,,,,
172680,control_change,120,0,5,,,,,,,64,0,5,,,,
172680,control_change,120,0,3,,,,,,,64,0,3,,,,
172680,control_change,600,0,1,,,,,,,64,0,1,,,,
172680,control_change,600,0,4,,,,,,,64,0,4,,,,
172745,note_off,65,0,1,,,,,,,,,1,,,78,0
172752,note_off,72,0,2,,,,,,,,,2,,,72,0
172752,note_off,0,0,5,,,,,,,,,5,,,63,0
172752,note_off,72,0,5,,,,,,,,,5,,,57,0
172752,note_off,72,0,3,,,,,,,,,3,,,66,0
172800,note_on,0,0,2,,,,,,,,,2,,,75,69
172800,control_change,48,0,2,,,,,,,64,127,2,,,,
172800,note_on,0,0,2,,,,,,,,,2,,,70,69
172800,control_change,48,0,3,,,,,,,64,127,3,,,,
172800,note_on,0,0,5,,,,,,,,,5,,,58,69
172800,note_on,0,0,5,,,,,,,,,5,,,63,69
172800,note_on,0,0,3,,,,,,,,,3,,,67,69
172800,note_on,0,0,1,,,,,,,,,1,,,79,69
172800,control_change,55,0,1,,,,,,,64,127,1,,,,
172800,control_change,120,0,4,,,,,,,64,127,4,,,,
172800,control_change,48,0,5,,,,,,,64,127,5,,,,
172992,note_off,192,0,5,,,,,,,,,5,,,63,0
172992,note_off,0,0,5,,,,,,,,,5,,,58,0
172992,note_off,192,0,3,,,,,,,,,3,,,67,0
173040,note_on,48,0,3,,,,,,,,,3,,,67,62
173040,note_on,48,0,5,,,,,,,,,5,,,58,62
173040,note_on,0,0,5,,,,,,,,,5,,,63,62
173232,note_off,0,0,5,,,,,,,,,5,,,58,0
173232,note_off,192,0,3,,,,,,,,,3,,,67,0
173232,note_off,192,0,5,,,,,,,,,5,,,63,0
173280,note_on,0,0,1,,,,,,,,,1,,,79,64
173280,note_on,48,0,3,,,,,,,,,3,,,67,64
173280,note_off,480,0,1,,,,,,,,,1,,,79,0
173280,note_on,48,0,5,,,,,,,,,5,,,58,64
173280,note_on,0,0,5,,,,,,,,,5,,,63,64
173400,control_change,120,0,5,,,,,,,64,0,5,,,,
173400,control_change,120,0,3,,,,,,,64,0,3,,,,
173400,control_change,120,0,1,,,,,,,64,0,1,,,,
173400,control_change,600,0,4,,,,,,,64,0,4,,,,
173400,control_change,600,0,2,,,,,,,64,0,2,,,,
173472,note_off,72,0,5,,,,,,,,,5,,,63,0
173472,note_off,0,0,5,,,,,,,,,5,,,58,0
173472,note_off,72,0,3,,,,,,,,,3,,,67,0
173520,control_change,120,0,1,,,,,,,64,127,1,,,,
173520,control_change,48,0,5,,,,,,,64,127,5,,,,
173520,note_on,0,0,5,,,,,,,,,5,,,58,65
173520,note_on,0,0,5,,,,,,,,,5,,,63,65
173520,control_change,120,0,4,,,,,,,64,127,4,,,,
173520,control_change,48,0,3,,,,,,,64,127,3,,,,
173520,control_change,120,0,2,,,,,,,64,127,2,,,,
173712,note_off,192,0,5,,,,,,,,,5,,,63,0
173712,note_off,0,0,5,,,,,,,,,5,,,58,0
173760,note_on,0,0,5,,,,,,,,,5,,,65,66
173760,note_on,0,0,1,,,,,,,,,1,,,77,66
173760,note_off,240,0,1,,,,,,,,,1,,,79,0
173760,note_on,48,0,5,,,,,,,,,5,,,58,66
173952,note_off,0,0,5,,,,,,,,,5,,,58,0
173952,note_off,192,0,5,,,,,,,,,5,,,65,0
174000,note_off,480,0,2,,,,,,,,,2,,,75,0
174000,note_off,240,0,1,,,,,,,,,1,,,77,0
174000,note_on,48,0,5,,,,,,,,,5,,,58,67
174000,note_on,0,0,5,,,,,,,,,5,,,67,67
174000,note_on,0,0,1,,,,,,,,,1,,,75,67
174120,control_change,600,0,3,,,,,,,64,0,3,,,,
174120,control_change,120,0,5,,,,,,,64,0,5,,,,
174120,control_change,120,0,2,,,,,,,64,0,2,,,,
174120,control_change,600,0,4,,,,,,,64,0,4,,,,
174120,control_change,120,0,1,,,,,,,64,0,1,,,,
174190,note_off,70,0,2,,,,,,,,,2,,,70,0
174192,note_off,72,0,5,,,,,,,,,5,,,67,0
174192,note_off,0,0,5,,,,,,,,,5,,,58,0
174192,note_off,72,0,1,,,,,,,,,1,,,75,0
174240,control_change,120,0,4,,,,,,,64,127,4,,,,
174240,control_change,48,0,1,,,,,,,64,127,1,,,,
174240,note_on,0,0,1,,,,,,,,,1,,,80,76
174240,note_on,0,0,2,,,,,,,,,2,,,70,76
174240,note_on,0,0,2,,,,,,,,,2,,,77,76
174240,note_on,0,0,2,,,,,,,,,2,,,74,76
174240,note_on,0,0,5,,,,,,,,,5,,,62,76
174240,note_on,0,0,5,,,,,,,,,5,,,58,76
174240,control_change,48,0,5,,,,,,,64,127,5,,,,
174240,control_change,120,0,3,,,,,,,64,127,3,,,,
174240,note_on,0,0,3,,,,,,,,,3,,,68,76
174240,control_change,50,0,2,,,,,,,64,127,2,,,,
174432,note_off,0,0,5,,,,,,,,,5,,,58,0
174432,note_off,192,0,5,,,,,,,,,5,,,62,0
174432,note_off,192,0,3,,,,,,,,,3,,,68,0
174480,note_on,48,0,3,,,,,,,,,3,,,68,69
174480,note_on,48,0,5,,,,,,,,,5,,,58,69
174480,note_on,0,0,5,,,,,,,,,5,,,62,69
174672,note_off,192,0,5,,,,,,,,,5,,,62,0
174672,note_off,192,0,3,,,,,,,,,3,,,68,0
174672,note_off,0,0,5,,,,,,,,,5,,,58,0
174720,note_on,48,0,3,,,,,,,,,3,,,68,70
174720,note_off,0,0,2,,,,,,,,,2,,,74,0
174720,note_off,0,0,2,,,,,,,,,2,,,77,0
174720,note_on,0,0,1,,,,,,,,,1,,,80,70
174720,note_off,480,0,1,,,,,,,,,1,,,80,0
174720,note_on,0,0,2,,,,,,,,,2,,,74,70
174720,note_on,0,0,5,,,,,,,,,5,,,62,70
174720,note_on,0,0,2,,,,,,,,,2,,,70,70
174720,note_on,48,0,5,,,,,,,,,5,,,58,70
174720,note_on,0,0,2,,,,,,,,,2,,,77,70
174720,note_off,480,0,2,,,,,,,,,2,,,70,0
174840,control_change,120,0,2,,,,,,,64,0,2,,,,
174840,control_change,120,0,3,,,,,,,64,0,3,,,,
174840,control_change,600,0,4,,,,,,,64,0,4,,,,
174840,control_change,120,0,1,,,,,,,64,0,1,,,,
174840,control_change,120,0,5,,,,,,,64,0,5,,,,
174912,note_off,0,0,5,,,,,,,,,5,,,58,0
174912,note_off,72,0,5,,,,,,,,,5,,,62,0
174912,note_off,72,0,3,,,,,,,,,3,,,68,0
174960,control_change,120,0,1,,,,,,,64,127,1,,,,
174960,note_on,0,0,5,,,,,,,,,5,,,58,71
174960,control_change,120,0,4,,,,,,,64,127,4,,,,
174960,note_on,0,0,5,,,,,,,,,5,,,62,71
174960,control_change,48,0,3,,,,,,,64,127,3,,,,
174960,control_change,48,0,5,,,,,,,64,127,5,,,,
174960,note_on,0,0,3,,,,,,,,,3,,,68,71
174960,control_change,120,0,2,,,,,,,64,127,2,,,,
175152,note_off,192,0,3,,,,,,,,,3,,,68,0
175152,note_off,192,0,5,,,,,,,,,5,,,62,0
175152,note_off,0,0,5,,,,,,,,,5,,,58,0
175200,note_on,0,0,5,,,,,,,,,5,,,64,72
175200,note_off,240,0,2,,,,,,,,,2,,,77,0
175200,note_on,0,0,2,,,,,,,,,2,,,76,72
175200,note_on,48,0,5,,,,,,,,,5,,,58,72
175200,note_on,48,0,3,,,,,,,,,3,,,68,72
175392,note_off,192,0,3,,,,,,,,,3,,,68,0
175392,note_off,0,0,5,,,,,,,,,5,,,58,0
175392,note_off,192,0,5,,,,,,,,,5,,,64,0
175440,note_on,48,0,3,,,,,,,,,3,,,68,73
175440,note_off,240,0,2,,,,,,,,,2,,,76,0
175440,note_off,0,0,2,,,,,,,,,2,,,74,0
175440,note_on,0,0,2,,,,,,,,,2,,,74,73
175440,note_on,48,0,5,,,,,,,,,5,,,58,73
175440,note_on,0,0,5,,,,,,,,,5,,,65,73
175560,control_change,120,0,3,,,,,,,64,0,3,,,,
175560,control_change,120,0,5,,,,,,,64,0,5,,,,
175560,control_change,600,0,4,,,,,,,64,0,4,,,,
175560,control_change,600,0,1,,,,,,,64,0,1,,,,
175560,control_change,120,0,2,,,,,,,64,0,2,,,,
175625,note_off,65,0,2,,,,,,,,,2,,,70,0
175630,note_off,70,0,1,,,,,,,,,1,,,80,0
175632,note_off,0,0,5,,,,,,,,,5,,,58,0
175632,note_off,72,0,5,,,,,,,,,5,,,65,0
175632,note_off,7,0,2,,,,,,,,,2,,,74,0
175632,note_off,72,0,3,,,,,,,,,3,,,68,0
175680,control_change,50,0,1,,,,,,,64,127,1,,,,
175680,note_on,0,0,1,,,,,,,,,1,,,80,89
175680,control_change,48,0,2,,,,,,,64,127,2,,,,
175680,note_on,0,0,2,,,,,,,,,2,,,77,89
175680,note_on,0,0,3,,,,,,,,,3,,,70,89
175680,note_on,0,0,3,,,,,,,,,3,,,68,89
175680,control_change,48,0,3,,,,,,,64,127,3,,,,
175680,control_change,48,0,5,,,,,,,64,127,5,,,,
175680,note_on,0,0,5,,,,,,,,,5,,,58,89
175680,note_on,0,0,5,,,,,,,,,5,,,62,89
175680,control_change,120,0,4,,,,,,,64,127,4,,,,
175872,note_off,192,0,3,,,,,,,,,3,,,70,0
175872,note_off,0,0,3,,,,,,,,,3,,,68,0
175872,note_off,192,0,1,,,,,,,,,1,,,80,0
175872,note_off,192,0,5,,,,,,,,,5,,,62,0
175872,note_off,0,0,5,,,,,,,,,5,,,58,0
175872,note_off,192,0,2,,,,,,,,,2,,,77,0
175920,note_on,48,0,1,,,,,,,,,1,,,80,82
175920,note_on,0,0,5,,,,,,,,,5,,,64,82
175920,note_on,48,0,5,,,,,,,,,5,,,58,82
175920,note_on,48,0,3,,,,,,,,,3,,,68,82
175920,note_on,0,0,3,,,,,,,,,3,,,70,82
175920,note_on,48,0,2,,,,,,,,,2,,,76,82
176112,note_off,0,0,3,,,,,,,,,3,,,68,0
176112,note_off,192,0,2,,,,,,,,,2,,,76,0
176112,note_off,192,0,3,,,,,,,,,3,,,70,0
176112,note_off,192,0,1,,,,,,,,,1,,,80,0
176112,note_off,192,0,5,,,,,,,,,5,,,64,0
176112,note_off,0,0,5,,,,,,,,,5,,,58,0
176160,note_on,48,0,5,,,,,,,,,5,,,58,86
176160,note_on,48,0,1,,,,,,,,,1,,,80,86
176160,note_on,0,0,3,,,,,,,,,3,,,70,86
176160,note_on,0,0,5,,,,,,,,,5,,,65,86
176160,note_on,48,0,3,,,,,,,,,3,,,68,86
176160,note_on,48,0,2,,,,,,,,,2,,,74,86
176280,control_change,120,0,1,,,,,,,64,0,1,,,,
176280,control_change,120,0,2,,,,,,,64,0,2,,,,
176280,control_change,600,0,4,,,,,,,64,0,4,,,,
176280,control_change,120,0,3,,,,,,,64,0,3,,,,
176280,control_change,120,0,5,,,,,,,64,0,5,,,,
176352,note_off,72,0,5,,,,,,,,,5,,,65,0
176352,note_off,0,0,5,,,,,,,,,5,,,58,0
176352,note_off,72,0,1,,,,,,,,,1,,,80,0
176352,note_off,72,0,2,,,,,,,,,2,,,74,0
176352,note_off,0,0,3,,,,,,,,,3,,,68,0
176352,note_off,72,0,3,,,,,,,,,3,,,70,0
176400,control_change,48,0,1,,,,,,,64,127,1,,,,
176400,note_on,0,0,1,,,,,,,,,1,,,80,100
176400,note_on,0,0,3,,,,,,,,,3,,,70,100
176400,control_change,48,0,2,,,,,,,64,127,2,,,,
176400,note_on,0,0,2,,,,,,,,,2,,,77,100
176400,control_change,48,0,5,,,,,,,64,127,5,,,,
176400,note_on,0,0,5,,,,,,,,,5,,,58,100
176400,note_on,0,0,5,,,,,,,,,5,,,62,100
176400,note_on,0,0,3,,,,,,,,,3,,,68,100
176400,control_change,48,0,3,,,,,,,64,127,3,,,,
176400,control_change,120,0,4,,,,,,,64,127,4,,,,
176592,note_off,192,0,2,,,,,,,,,2,,,77,0
176592,note_off,192,0,1,,,,,,,,,1,,,80,0
176592,note_off,192,0,5,,,,,,,,,5,,,62,0
176592,note_off,0,0,5,,,,,,,,,5,,,58,0
176592,note_off,0,0,3,,,,,,,,,3,,,68,0
176592,note_off,192,0,3,,,,,,,,,3,,,70,0
176640,note_on,48,0,2,,,,,,,,,2,,,76,97
176640,note_on,48,0,5,,,,,,,,,5,,,58,97
176640,note_on,0,0,5,,,,,,,,,5,,,64,97
176640,note_on,0,0,3,,,,,,,,,3,,,70,97
176640,note_on,48,0,1,,,,,,,,,1,,,80,97
176640,note_on,48,0,3,,,,,,,,,3,,,68,97
176832,note_off,192,0,1,,,,,,,,,1,,,80,0
176832,note_off,192,0,2,,,,,,,,,2,,,76,0
176832,note_off,0,0,3,,,,,,,,,3,,,68,0
176832,note_off,192,0,3,,,,,,,,,3,,,70,0
176832,note_off,192,0,5,,,,,,,,,5,,,64,0
176832,note_off,0,0,5,,,,,,,,,5,,,58,0
176880,note_on,48,0,1,,,,,,,,,1,,,80,108
176880,note_on,48,0,2,,,,,,,,,2,,,74,108
176880,note_on,0,0,5,,,,,,,,,5,,,65,108
176880,note_on,48,0,5,,,,,,,,,5,,,58,108
176880,note_on,48,0,3,,,,,,,,,3,,,68,108
176880,note_on,0,0,3,,,,,,,,,3,,,70,108
176880,set_tempo,8400,1,0,,,,,,500000,,,,,,,
177000,control_change,120,0,5,,,,,,,64,0,5,,,,
177000,control_change,120,0,3,,,,,,,64,0,3,,,,
177000,control_change,120,0,1,,,,,,,64,0,1,,,,
177000,control_change,600,0,4,,,,,,,64,0,4,,,,
177000,control_change,120,0,2,,,,,,,64,0,2,,,,
177072,note_off,72,0,2,,,,,,,,,2,,,74,0
177072,note_off,72,0,3,,,,,,,,,3,,,70,0
177072,note_off,0,0,3,,,,,,,,,3,,,68,0
177072,note_off,72,0,1,,,,,,,,,1,,,80,0
177072,note_off,72,0,5,,,,,,,,,5,,,65,0
177072,note_off,0,0,5,,,,,,,,,5,,,58,0
177120,note_on,0,0,5,,,,,,,,,5,,,62,126
177120,control_change,48,0,1,,,,,,,64,127,1,,,,
177120,control_change,48,0,2,,,,,,,64,127,2,,,,
177120,note_on,0,0,2,,,,,,,,,2,,,81,126
177120,note_on,0,0,2,,,,,,,,,2,,,77,126
177120,note_on,0,0,3,,,,,,,,,3,,,69,126
177120,note_on,0,0,3,,,,,,,,,3,,,65,126
177120,control_change,48,0,3,,,,,,,64,127,3,,,,
177120,set_tempo,240,1,0,,,,,,495867,,,,,,,
177120,control_change,120,0,4,,,,,,,64,127,4,,,,
177120,note_on,0,0,1,,,,,,,,,1,,,84,126
177120,note_on,0,0,5,,,,,,,,,5,,,57,126
177120,control_change,48,0,5,,,,,,,64,127,5,,,,
177600,note_off,480,0,3,,,,,,,,,3,,,69,0
177600,note_off,0,0,3,,,,,,,,,3,,,65,0
177600,note_off,480,0,1,,,,,,,,,1,,,84,0
177600,note_off,480,0,2,,,,,,,,,2,,,77,0
177600,note_off,0,0,2,,,,,,,,,2,,,81,0
177600,note_off,0,0,5,,,,,,,,,5,,,62,0
177600,note_off,480,0,5,,,,,,,,,5,,,57,0
177720,note_on,120,0,1,,,,,,,,,1,,,77,116
177760,note_on,0,0,1,,,,,,,,,1,,,81,116
177760,note_off,40,0,1,,,,,,,,,1,,,77,0
177800,note_on,0,0,1,,,,,,,,,1,,,86,115
177800,note_off,40,0,1,,,,,,,,,1,,,81,0
177840,note_off,40,0,1,,,,,,,,,1,,,86,0
177840,note_on,0,0,1,,,,,,,,,1,,,89,115
178080,note_on,240,0,1,,,,,,,,,1,,,86,113
178160,note_off,80,0,1,,,,,,,,,1,,,86,0
178160,note_on,0,0,1,,,,,,,,,1,,,81,112
178240,note_on,0,0,1,,,,,,,,,1,,,77,111
178240,note_off,80,0,1,,,,,,,,,1,,,81,0
178320,note_off,80,0,1,,,,,,,,,1,,,77,0
178320,note_on,0,0,1,,,,,,,,,1,,,74,110
178380,note_on,0,0,1,,,,,,,,,1,,,69,110
178380,note_off,60,0,1,,,,,,,,,1,,,74,0
178440,note_on,0,0,1,,,,,,,,,1,,,65,109
178440,note_off,60,0,1,,,,,,,,,1,,,69,0
178500,note_off,60,0,1,,,,,,,,,1,,,65,0
178500,set_tempo,1380,1,0,,,,,,500000,,,,,,,
178500,note_on,0,0,1,,,,,,,,,1,,,62,108
178560,set_tempo,60,1,0,,,,,,508474,,,,,,,
178560,note_off,0,0,1,,,,,,,,,1,,,89,0
178560,note_on,0,0,1,,,,,,,,,1,,,57,108
178560,note_on,0,0,5,,,,,,,,,5,,,45,108
178560,note_off,60,0,1,,,,,,,,,1,,,62,0
178560,note_on,960,0,5,,,,,,,,,5,,,33,108
179040,note_off,480,0,1,,,,,,,,,1,,,57,0
179040,note_off,480,0,5,,,,,,,,,5,,,45,0
179040,note_off,0,0,5,,,,,,,,,5,,,33,0
179280,note_on,0,0,2,,,,,,,,,2,,,76,101
179280,note_on,240,0,5,,,,,,,,,5,,,57,101
179280,note_on,0,0,2,,,,,,,,,2,,,73,101
179280,note_on,1680,0,2,,,,,,,,,2,,,69,101
179280,note_on,240,0,1,,,,,,,,,1,,,81,101
179280,note_on,0,0,5,,,,,,,,,5,,,45,101
179760,note_off,480,0,1,,,,,,,,,1,,,81,0
179760,note_off,480,0,5,,,,,,,,,5,,,45,0
179760,note_off,0,0,5,,,,,,,,,5,,,57,0
179760,note_off,480,0,2,,,,,,,,,2,,,76,0
179760,note_off,0,0,2,,,,,,,,,2,,,73,0
179760,note_off,0,0,2,,,,,,,,,2,,,69,0
180000,set_tempo,1440,1,0,,,,,,340909,,,,,,,
180000,control_change,240,0,1,,,,,,,64,0,1,,,,
180000,control_change,2400,0,3,,,,,,,64,0,3,,,,
180000,control_change,240,0,2,,,,,,,64,0,2,,,,
180000,control_change,240,0,5,,,,,,,64,0,5,,,,
180000,control_change,2880,0,4,,,,,,,64,0,4,,,,
181440,control_change,1440,0,3,,,,,,,64,0,3,,,,
181440,control_change,1440,0,4,,,,,,,64,0,4,,,,
181440,control_change,1440,0,2,,,,,,,64,0,2,,,,
181440,control_change,1440,0,5,,,,,,,64,0,5,,,,
181440,control_change,1440,0,1,,,,,,,64,0,1,,,,
182640,note_on,0,0,1,,,,,,,,,1,,,69,78
182640,note_on,0,0,5,,,,,,,,,5,,,50,78
182640,control_change,1200,0,4,,,,,,,64,0,4,,,,
182640,control_change,1200,0,1,,,,,,,64,0,1,,,,
182640,control_change,1200,0,2,,,,,,,64,0,2,,,,
182640,note_on,0,0,1,,,,,,,,,1,,,81,78
182640,note_on,0,0,2,,,,,,,,,2,,,77,78
182640,set_tempo,2640,1,0,,,,,,495867,,,,,,,
182640,control_change,1200,0,3,,,,,,,64,0,3,,,,
182640,note_on,0,0,5,,,,,,,,,5,,,38,78
182640,control_change,1200,0,5,,,,,,,64,0,5,,,,
182760,set_tempo,120,1,0,,,,,,500000,,,,,,,
182832,note_off,0,0,1,,,,,,,,,1,,,69,0
182832,note_off,0,0,5,,,,,,,,,5,,,50,0
182832,note_off,192,0,5,,,,,,,,,5,,,38,0
182832,note_off,192,0,2,,,,,,,,,2,,,77,0
182832,note_off,192,0,1,,,,,,,,,1,,,81,0
182880,set_tempo,120,1,0,,,,,,495867,,,,,,,
182880,note_on,0,0,5,,,,,,,,,5,,,38,87
182880,note_on,48,0,5,,,,,,,,,5,,,50,87
182880,note_on,48,0,1,,,,,,,,,1,,,81,87
182880,note_on,0,0,1,,,,,,,,,1,,,69,87
182880,note_on,48,0,2,,,,,,,,,2,,,77,87
183240,note_off,360,0,5,,,,,,,,,5,,,38,0
183240,note_off,0,0,5,,,,,,,,,5,,,50,0
183240,note_on,0,0,1,,,,,,,,,1,,,79,81
183240,note_on,0,0,2,,,,,,,,,2,,,76,81
183240,note_off,360,0,2,,,,,,,,,2,,,77,0
183240,note_off,360,0,1,,,,,,,,,1,,,69,0
183240,note_off,0,0,1,,,,,,,,,1,,,81,0
183240,note_on,0,0,1,,,,,,,,,1,,,67,81
183336,note_off,96,0,1,,,,,,,,,1,,,67,0
183336,note_off,0,0,1,,,,,,,,,1,,,79,0
183336,note_off,96,0,2,,,,,,,,,2,,,76,0
183360,note_on,0,0,1,,,,,,,,,1,,,65,82
183360,note_on,24,0,1,,,,,,,,,1,,,77,82
183360,note_on,24,0,2,,,,,,,,,2,,,74,82
183552,note_off,192,0,2,,,,,,,,,2,,,74,0
183552,note_off,192,0,1,,,,,,,,,1,,,65,0
183552,note_off,0,0,1,,,,,,,,,1,,,77,0
183600,note_on,360,0,5,,,,,,,,,5,,,50,91
183600,note_on,48,0,1,,,,,,,,,1,,,77,91
183600,note_on,0,0,1,,,,,,,,,1,,,65,91
183600,note_on,48,0,2,,,,,,,,,2,,,69,91
183600,note_on,0,0,5,,,,,,,,,5,,,62,91
183960,note_on,0,0,1,,,,,,,,,1,,,76,85
183960,note_off,0,0,5,,,,,,,,,5,,,50,0
183960,note_off,360,0,1,,,,,,,,,1,,,65,0
183960,note_off,0,0,1,,,,,,,,,1,,,77,0
183960,note_on,0,0,1,,,,,,,,,1,,,64,85
183960,note_off,360,0,5,,,,,,,,,5,,,62,0
183960,note_on,0,0,2,,,,,,,,,2,,,67,85
183960,note_off,360,0,2,,,,,,,,,2,,,69,0
184056,note_off,96,0,2,,,,,,,,,2,,,67,0
184056,note_off,96,0,1,,,,,,,,,1,,,64,0
184056,note_off,0,0,1,,,,,,,,,1,,,76,0
184080,note_on,24,0,2,,,,,,,,,2,,,65,86
184080,note_on,24,0,1,,,,,,,,,1,,,74,86
184080,note_on,0,0,1,,,,,,,,,1,,,62,86
184200,set_tempo,1320,1,0,,,,,,500000,,,,,,,
184272,note_off,192,0,2,,,,,,,,,2,,,65,0
184272,note_off,0,0,1,,,,,,,,,1,,,74,0
184272,note_off,192,0,1,,,,,,,,,1,,,62,0
184320,note_on,48,0,2,,,,,,,,,2,,,69,101
184320,note_on,0,0,1,,,,,,,,,1,,,61,101
184320,set_tempo,120,1,0,,,,,,495867,,,,,,,
184320,note_on,48,0,1,,,,,,,,,1,,,73,101
184320,note_on,360,0,5,,,,,,,,,5,,,57,101
184800,note_on,0,0,1,,,,,,,,,1,,,62,60
184800,note_on,0,0,5,,,,,,,,,5,,,57,60
184800,note_off,480,0,5,,,,,,,,,5,,,57,0
184800,note_off,480,0,2,,,,,,,,,2,,,69,0
184800,note_on,0,0,2,,,,,,,,,2,,,71,60
184800,note_on,2160,0,4,,,,,,,,,4,,,59,60
184800,note_off,480,0,1,,,,,,,,,1,,,61,0
184800,note_off,0,0,1,,,,,,,,,1,,,73,0
184800,note_on,0,0,1,,,,,,,,,1,,,74,60
184992,note_off,192,0,1,,,,,,,,,1,,,62,0
184992,note_off,192,0,5,,,,,,,,,5,,,57,0
184992,note_off,192,0,4,,,,,,,,,4,,,59,0
184992,note_off,0,0,1,,,,,,,,,1,,,74,0
184992,note_off,192,0,2,,,,,,,,,2,,,71,0
185040,note_on,48,0,2,,,,,,,,,2,,,73,70
185040,note_on,0,0,1,,,,,,,,,1,,,64,70
185040,note_on,48,0,1,,,,,,,,,1,,,76,70
185040,note_on,48,0,4,,,,,,,,,4,,,61,70
185040,note_on,48,0,5,,,,,,,,,5,,,57,70
185400,note_off,360,0,4,,,,,,,,,4,,,61,0
185400,note_off,360,0,2,,,,,,,,,2,,,73,0
185400,note_off,360,0,5,,,,,,,,,5,,,57,0
185400,note_off,0,0,1,,,,,,,,,1,,,76,0
185400,note_off,360,0,1,,,,,,,,,1,,,64,0
185520,note_on,120,0,4,,,,,,,,,4,,,62,74
185520,note_on,120,0,2,,,,,,,,,2,,,74,74
185520,note_on,120,0,5,,,,,,,,,5,,,57,74
185520,note_on,0,0,1,,,,,,,,,1,,,65,74
185520,note_on,120,0,1,,,,,,,,,1,,,77,74
185712,note_off,192,0,4,,,,,,,,,4,,,62,0
185712,note_off,192,0,2,,,,,,,,,2,,,74,0
185712,note_off,192,0,1,,,,,,,,,1,,,65,0
185712,note_off,192,0,5,,,,,,,,,5,,,57,0
185712,note_off,0,0,1,,,,,,,,,1,,,77,0
185760,note_on,48,0,4,,,,,,,,,4,,,64,84
185760,note_on,48,0,1,,,,,,,,,1,,,79,84
185760,note_on,0,0,1,,,,,,,,,1,,,67,84
185760,note_on,48,0,2,,,,,,,,,2,,,76,84
185760,note_on,48,0,5,,,,,,,,,5,,,57,84
186240,note_off,480,0,4,,,,,,,,,4,,,64,0
186240,note_on,0,0,4,,,,,,,,,4,,,65,97
186240,set_tempo,1920,1,0,,,,,,508474,,,,,,,
186240,note_on,0,0,1,,,,,,,,,1,,,69,97
186240,note_on,0,0,1,,,,,,,,,1,,,81,97
186240,note_off,480,0,1,,,,,,,,,1,,,67,0
186240,note_on,0,0,2,,,,,,,,,2,,,77,97
186240,note_off,480,0,2,,,,,,,,,2,,,76,0
186240,note_off,0,0,1,,,,,,,,,1,,,79,0
186240,note_off,480,0,5,,,,,,,,,5,,,57,0
186240,note_on,0,0,5,,,,,,,,,5,,,57,97
186432,note_off,192,0,2,,,,,,,,,2,,,77,0
186432,note_off,192,0,1,,,,,,,,,1,,,69,0
186432,note_off,192,0,4,,,,,,,,,4,,,65,0
186432,note_off,0,0,1,,,,,,,,,1,,,81,0
186432,note_off,192,0,5,,,,,,,,,5,,,57,0
186480,note_on,48,0,2,,,,,,,,,2,,,79,114
186480,note_on,48,0,1,,,,,,,,,1,,,82,114
186480,note_on,0,0,1,,,,,,,,,1,,,70,114
186480,set_tempo,240,1,0,,,,,,517241,,,,,,,
186480,note_on,48,0,5,,,,,,,,,5,,,57,114
186480,note_on,48,0,4,,,,,,,,,4,,,67,114
187200,note_off,0,0,2,,,,,,,,,2,,,79,0
187200,control_change,720,0,2,,,,,,,64,127,2,,,,
187200,set_tempo,720,1,0,,,,,,495867,,,,,,,
187200,note_on,0,0,5,,,,,,,,,5,,,57,88
187200,control_change,4560,0,3,,,,,,,64,127,3,,,,
187200,note_off,0,0,5,,,,,,,,,5,,,57,0
187200,control_change,720,0,4,,,,,,,64,127,4,,,,
187200,control_change,720,0,5,,,,,,,64,127,5,,,,
187200,note_off,0,0,1,,,,,,,,,1,,,70,0
187200,control_change,720,0,1,,,,,,,64,127,1,,,,
187200,note_off,0,0,4,,,,,,,,,4,,,67,0
187296,note_off,96,0,1,,,,,,,,,1,,,82,0
187320,note_on,24,0,1,,,,,,,,,1,,,88,87
187416,note_off,96,0,1,,,,,,,,,1,,,88,0
187440,note_on,24,0,1,,,,,,,,,1,,,85,87
187440,note_on,240,0,3,,,,,,,,,3,,,67,87
187440,note_off,240,0,5,,,,,,,,,5,,,57,0
187440,note_on,0,0,3,,,,,,,,,3,,,70,87
187536,note_off,96,0,1,,,,,,,,,1,,,85,0
187560,note_on,24,0,1,,,,,,,,,1,,,91,86
187656,note_off,96,0,1,,,,,,,,,1,,,91,0
187680,note_on,0,0,3,,,,,,,,,3,,,70,86
187680,control_change,480,0,2,,,,,,,64,0,2,,,,
187680,note_off,0,0,3,,,,,,,,,3,,,67,0
187680,control_change,240,0,5,,,,,,,64,0,5,,,,
187680,note_on,0,0,3,,,,,,,,,3,,,67,86
187680,control_change,240,0,3,,,,,,,64,0,3,,,,
187680,control_change,480,0,4,,,,,,,64,0,4,,,,
187680,note_on,0,0,1,,,,,,,,,1,,,88,86
187680,note_off,0,0,3,,,,,,,,,3,,,70,0
187680,control_change,24,0,1,,,,,,,64,0,1,,,,
187776,note_off,96,0,1,,,,,,,,,1,,,88,0
187800,note_on,24,0,1,,,,,,,,,1,,,94,85
187896,note_off,96,0,1,,,,,,,,,1,,,94,0
187920,control_change,240,0,4,,,,,,,64,127,4,,,,
187920,control_change,240,0,5,,,,,,,64,127,5,,,,
187920,control_change,240,0,3,,,,,,,64,127,3,,,,
187920,control_change,24,0,1,,,,,,,64,127,1,,,,
187920,note_on,0,0,1,,,,,,,,,1,,,91,84
187920,control_change,240,0,2,,,,,,,64,127,2,,,,
187920,note_off,0,0,3,,,,,,,,,3,,,70,0
187920,note_off,0,0,3,,,,,,,,,3,,,67,0
187920,note_on,0,0,5,,,,,,,,,5,,,57,84
188016,note_off,96,0,1,,,,,,,,,1,,,91,0
188040,note_on,24,0,1,,,,,,,,,1,,,88,84
188136,note_off,96,0,1,,,,,,,,,1,,,88,0
188160,note_on,0,0,3,,,,,,,,,3,,,70,83
188160,note_on,24,0,1,,,,,,,,,1,,,85,83
188160,note_off,240,0,5,,,,,,,,,5,,,57,0
188160,note_on,240,0,3,,,,,,,,,3,,,67,83
188256,note_off,96,0,1,,,,,,,,,1,,,85,0
188280,note_on,24,0,1,,,,,,,,,1,,,82,83
188376,note_off,96,0,1,,,,,,,,,1,,,82,0
188400,control_change,24,0,1,,,,,,,64,0,1,,,,
188400,control_change,480,0,4,,,,,,,64,0,4,,,,
188400,note_on,0,0,1,,,,,,,,,1,,,88,82
188400,control_change,240,0,3,,,,,,,64,0,3,,,,
188400,note_off,0,0,3,,,,,,,,,3,,,70,0
188400,note_off,0,0,3,,,,,,,,,3,,,67,0
188400,note_on,0,0,3,,,,,,,,,3,,,70,82
188400,note_on,0,0,3,,,,,,,,,3,,,67,82
188400,control_change,480,0,2,,,,,,,64,0,2,,,,
188400,control_change,240,0,5,,,,,,,64,0,5,,,,
188496,note_off,96,0,1,,,,,,,,,1,,,88,0
188520,note_on,24,0,1,,,,,,,,,1,,,85,82
188616,note_off,96,0,1,,,,,,,,,1,,,85,0
188640,control_change,24,0,1,,,,,,,64,127,1,,,,
188640,control_change,240,0,2,,,,,,,64,127,2,,,,
188640,note_on,0,0,1,,,,,,,,,1,,,82,81
188640,control_change,240,0,5,,,,,,,64,127,5,,,,
188640,note_on,0,0,5,,,,,,,,,5,,,57,81
188640,note_off,0,0,3,,,,,,,,,3,,,70,0
188640,control_change,240,0,3,,,,,,,64,127,3,,,,
188640,control_change,240,0,4,,,,,,,64,127,4,,,,
188640,note_off,0,0,3,,,,,,,,,3,,,67,0
188736,note_off,96,0,1,,,,,,,,,1,,,82,0
188760,note_on,24,0,1,,,,,,,,,1,,,79,80
188856,note_off,96,0,1,,,,,,,,,1,,,79,0
188880,note_on,24,0,1,,,,,,,,,1,,,85,80
188880,note_on,0,0,3,,,,,,,,,3,,,70,80
188880,note_on,240,0,3,,,,,,,,,3,,,67,80
188880,note_off,240,0,5,,,,,,,,,5,,,57,0
188976,note_off,96,0,1,,,,,,,,,1,,,85,0
189000,note_on,24,0,1,,,,,,,,,1,,,82,79
189096,note_off,96,0,1,,,,,,,,,1,,,82,0
189120,control_change,480,0,4,,,,,,,64,0,4,,,,
189120,note_on,0,0,3,,,,,,,,,3,,,67,79
189120,note_on,0,0,3,,,,,,,,,3,,,70,79
189120,note_on,0,0,1,,,,,,,,,1,,,79,79
189120,control_change,24,0,1,,,,,,,64,0,1,,,,
189120,note_off,0,0,3,,,,,,,,,3,,,70,0
189120,control_change,480,0,2,,,,,,,64,0,2,,,,
189120,control_change,240,0,5,,,,,,,64,0,5,,,,
189120,note_off,0,0,3,,,,,,,,,3,,,67,0
189120,control_change,240,0,3,,,,,,,64,0,3,,,,
189216,note_off,96,0,1,,,,,,,,,1,,,79,0
189240,note_on,24,0,1,,,,,,,,,1,,,76,78
189336,note_off,96,0,1,,,,,,,,,1,,,76,0
189360,note_on,240,0,5,,,,,,,,,5,,,57,78
189360,note_off,240,0,3,,,,,,,,,3,,,70,0
189360,note_on,24,0,1,,,,,,,,,1,,,82,78
189360,note_off,0,0,3,,,,,,,,,3,,,67,0
189456,note_off,96,0,1,,,,,,,,,1,,,82,0
189480,note_on,24,0,1,,,,,,,,,1,,,79,77
189576,note_off,96,0,1,,,,,,,,,1,,,79,0
189600,note_off,240,0,5,,,,,,,,,5,,,57,0
189600,note_on,0,0,3,,,,,,,,,3,,,67,76
189600,note_on,24,0,1,,,,,,,,,1,,,76,76
189600,note_on,240,0,3,,,,,,,,,3,,,69,76
189696,note_off,96,0,1,,,,,,,,,1,,,76,0
189720,note_on,24,0,1,,,,,,,,,1,,,73,76
189816,note_off,96,0,1,,,,,,,,,1,,,73,0
189840,note_on,240,0,5,,,,,,,,,5,,,50,79
189840,note_on,0,0,1,,,,,,,,,1,,,81,79
189840,note_on,0,0,5,,,,,,,,,5,,,38,79
189840,note_off,240,0,3,,,,,,,,,3,,,67,0
189840,note_off,0,0,3,,,,,,,,,3,,,69,0
189840,note_on,720,0,2,,,,,,,,,2,,,77,79
189840,note_on,24,0,1,,,,,,,,,1,,,69,79
189960,set_tempo,2760,1,0,,,,,,500000,,,,,,,
190032,note_off,192,0,1,,,,,,,,,1,,,81,0
190032,note_off,0,0,5,,,,,,,,,5,,,50,0
190032,note_off,0,0,1,,,,,,,,,1,,,69,0
190032,note_off,192,0,2,,,,,,,,,2,,,77,0
190032,note_off,192,0,5,,,,,,,,,5,,,38,0
190080,note_on,48,0,5,,,,,,,,,5,,,38,88
190080,note_on,0,0,1,,,,,,,,,1,,,81,88
190080,note_on,48,0,1,,,,,,,,,1,,,69,88
190080,note_on,48,0,2,,,,,,,,,2,,,77,88
190080,set_tempo,120,1,0,,,,,,495867,,,,,,,
190080,note_on,0,0,5,,,,,,,,,5,,,50,88
190440,note_off,0,0,1,,,,,,,,,1,,,69,0
190440,note_on,0,0,1,,,,,,,,,1,,,79,80
190440,note_off,360,0,5,,,,,,,,,5,,,50,0
190440,note_off,360,0,2,,,,,,,,,2,,,77,0
190440,note_on,0,0,1,,,,,,,,,1,,,67,80
190440,note_off,360,0,1,,,,,,,,,1,,,81,0
190440,note_off,0,0,5,,,,,,,,,5,,,38,0
190440,note_on,0,0,2,,,,,,,,,2,,,76,80
190536,note_off,96,0,1,,,,,,,,,1,,,67,0
190536,note_off,0,0,1,,,,,,,,,1,,,79,0
190536,note_off,96,0,2,,,,,,,,,2,,,76,0
190560,note_on,0,0,1,,,,,,,,,1,,,77,81
190560,note_on,24,0,2,,,,,,,,,2,,,74,81
190560,note_on,24,0,1,,,,,,,,,1,,,65,81
190752,note_off,0,0,1,,,,,,,,,1,,,65,0
190752,note_off,192,0,1,,,,,,,,,1,,,77,0
190752,note_off,192,0,2,,,,,,,,,2,,,74,0
190800,note_on,48,0,2,,,,,,,,,2,,,69,92
190800,note_on,360,0,5,,,,,,,,,5,,,50,92
190800,note_on,0,0,5,,,,,,,,,5,,,62,92
190800,note_on,48,0,1,,,,,,,,,1,,,65,92
190800,note_on,0,0,1,,,,,,,,,1,,,77,92
191160,note_on,0,0,2,,,,,,,,,2,,,67,86
191160,note_off,360,0,2,,,,,,,,,2,,,69,0
191160,note_on,0,0,1,,,,,,,,,1,,,76,86
191160,note_off,360,0,5,,,,,,,,,5,,,62,0
191160,note_off,0,0,5,,,,,,,,,5,,,50,0
191160,note_off,360,0,1,,,,,,,,,1,,,77,0
191160,note_off,0,0,1,,,,,,,,,1,,,65,0
191160,note_on,0,0,1,,,,,,,,,1,,,64,86
191256,note_off,96,0,2,,,,,,,,,2,,,67,0
191256,note_off,0,0,1,,,,,,,,,1,,,64,0
191256,note_off,96,0,1,,,,,,,,,1,,,76,0
191280,note_on,24,0,1,,,,,,,,,1,,,74,87
191280,note_on,24,0,2,,,,,,,,,2,,,65,87
191280,note_on,0,0,1,,,,,,,,,1,,,62,87
191400,set_tempo,1320,1,0,,,,,,500000,,,,,,,
191472,note_off,0,0,1,,,,,,,,,1,,,74,0
191472,note_off,192,0,1,,,,,,,,,1,,,62,0
191472,note_off,192,0,2,,,,,,,,,2,,,65,0
191520,note_on,48,0,2,,,,,,,,,2,,,69,105
191520,note_on,360,0,5,,,,,,,,,5,,,57,105
191520,note_on,0,0,1,,,,,,,,,1,,,73,105
191520,note_on,48,0,1,,,,,,,,,1,,,61,105
191520,set_tempo,120,1,0,,,,,,495867,,,,,,,
192000,note_off,480,0,5,,,,,,,,,5,,,57,0
192000,note_on,0,0,5,,,,,,,,,5,,,57,67
192000,note_on,0,0,1,,,,,,,,,1,,,62,67
192000,note_off,480,0,2,,,,,,,,,2,,,69,0
192000,note_on,0,0,2,,,,,,,,,2,,,59,67
192000,note_off,0,0,1,,,,,,,,,1,,,61,0
192000,note_on,0,0,2,,,,,,,,,2,,,71,67
192000,note_off,480,0,1,,,,,,,,,1,,,73,0
192000,note_on,0,0,1,,,,,,,,,1,,,74,67
192192,note_off,0,0,2,,,,,,,,,2,,,71,0
192192,note_off,192,0,1,,,,,,,,,1,,,74,0
192192,note_off,192,0,5,,,,,,,,,5,,,57,0
192192,note_off,192,0,2,,,,,,,,,2,,,59,0
192192,note_off,0,0,1,,,,,,,,,1,,,62,0
192240,note_on,48,0,1,,,,,,,,,1,,,64,76
192240,note_on,0,0,1,,,,,,,,,1,,,76,76
192240,note_on,0,0,2,,,,,,,,,2,,,61,76
192240,note_on,48,0,2,,,,,,,,,2,,,73,76
192240,note_on,48,0,5,,,,,,,,,5,,,57,76
192600,note_off,360,0,2,,,,,,,,,2,,,61,0
192600,note_off,0,0,1,,,,,,,,,1,,,64,0
192600,note_off,360,0,1,,,,,,,,,1,,,76,0
192600,note_off,360,0,5,,,,,,,,,5,,,57,0
192600,note_off,0,0,2,,,,,,,,,2,,,73,0
192720,note_on,120,0,1,,,,,,,,,1,,,65,78
192720,note_on,120,0,5,,,,,,,,,5,,,57,78
192720,note_on,120,0,2,,,,,,,,,2,,,74,78
192720,note_on,0,0,1,,,,,,,,,1,,,77,78
192720,note_on,0,0,2,,,,,,,,,2,,,62,78
192912,note_off,192,0,1,,,,,,,,,1,,,77,0
192912,note_off,0,0,1,,,,,,,,,1,,,65,0
192912,note_off,192,0,2,,,,,,,,,2,,,62,0
192912,note_off,0,0,2,,,,,,,,,2,,,74,0
192912,note_off,192,0,5,,,,,,,,,5,,,57,0
192960,note_on,48,0,1,,,,,,,,,1,,,79,86
192960,note_on,48,0,2,,,,,,,,,2,,,64,86
192960,note_on,0,0,2,,,,,,,,,2,,,76,86
192960,note_on,0,0,1,,,,,,,,,1,,,67,86
192960,note_on,48,0,5,,,,,,,,,5,,,57,86
193440,note_off,480,0,1,,,,,,,,,1,,,67,0
193440,note_off,0,0,1,,,,,,,,,1,,,79,0
193440,note_on,0,0,1,,,,,,,,,1,,,69,97
193440,note_on,0,0,1,,,,,,,,,1,,,81,97
193440,note_off,480,0,5,,,,,,,,,5,,,57,0
193440,set_tempo,1920,1,0,,,,,,508474,,,,,,,
193440,note_on,0,0,2,,,,,,,,,2,,,65,97
193440,note_on,0,0,2,,,,,,,,,2,,,77,97
193440,note_off,0,0,2,,,,,,,,,2,,,64,0
193440,note_off,480,0,2,,,,,,,,,2,,,76,0
193440,note_on,0,0,5,,,,,,,,,5,,,57,97
193632,note_off,192,0,2,,,,,,,,,2,,,65,0
193632,note_off,192,0,1,,,,,,,,,1,,,81,0
193632,note_off,0,0,1,,,,,,,,,1,,,69,0
193632,note_off,0,0,2,,,,,,,,,2,,,77,0
193632,note_off,192,0,5,,,,,,,,,5,,,57,0
193680,note_on,48,0,2,,,,,,,,,2,,,67,111
193680,note_on,48,0,5,,,,,,,,,5,,,57,111
193680,set_tempo,240,1,0,,,,,,517241,,,,,,,
193680,note_on,0,0,2,,,,,,,,,2,,,79,111
193680,note_on,0,0,1,,,,,,,,,1,,,70,111
193680,note_on,48,0,1,,,,,,,,,1,,,82,111
194160,note_on,0,0,5,,,,,,,,,5,,,59,104
194160,note_off,480,0,5,,,,,,,,,5,,,57,0
194160,note_on,5040,0,4,,,,,,,,,4,,,71,104
194400,note_on,0,0,5,,,,,,,,,5,,,60,94
194400,note_off,0,0,4,,,,,,,,,4,,,71,0
194400,note_on,0,0,4,,,,,,,,,4,,,72,94
194400,note_off,0,0,2,,,,,,,,,2,,,67,0
194400,control_change,720,0,2,,,,,,,64,127,2,,,,
194400,note_off,0,0,5,,,,,,,,,5,,,59,0
194400,control_change,240,0,4,,,,,,,64,127,4,,,,
194400,control_change,240,0,5,,,,,,,64,127,5,,,,
194400,control_change,720,0,1,,,,,,,64,127,1,,,,
194400,set_tempo,720,1,0,,,,,,495867,,,,,,,
194400,note_off,0,0,1,,,,,,,,,1,,,70,0
194400,control_change,4560,0,3,,,,,,,64,127,3,,,,
194496,note_off,96,0,2,,,,,,,,,2,,,79,0
194496,note_off,96,0,1,,,,,,,,,1,,,82,0
194520,note_on,24,0,1,,,,,,,,,1,,,88,93
194592,note_off,192,0,5,,,,,,,,,5,,,60,0
194592,note_off,192,0,4,,,,,,,,,4,,,72,0
194616,note_off,96,0,1,,,,,,,,,1,,,88,0
194640,note_on,0,0,3,,,,,,,,,3,,,67,92
194640,note_on,24,0,1,,,,,,,,,1,,,85,92
194640,note_on,0,0,3,,,,,,,,,3,,,70,92
194640,note_on,240,0,3,,,,,,,,,3,,,73,92
194736,note_off,96,0,1,,,,,,,,,1,,,85,0
194760,note_on,24,0,1,,,,,,,,,1,,,91,91
194832,note_off,192,0,3,,,,,,,,,3,,,70,0
194832,note_off,0,0,3,,,,,,,,,3,,,73,0
194832,note_off,0,0,3,,,,,,,,,3,,,67,0
194856,note_off,96,0,1,,,,,,,,,1,,,91,0
194880,control_change,384,0,2,,,,,,,64,0,2,,,,
194880,note_on,0,0,3,,,,,,,,,3,,,67,91
194880,note_on,0,0,3,,,,,,,,,3,,,73,91
194880,control_change,288,0,4,,,,,,,64,0,4,,,,
194880,control_change,288,0,5,,,,,,,64,0,5,,,,
194880,control_change,24,0,1,,,,,,,64,0,1,,,,
194880,note_on,0,0,3,,,,,,,,,3,,,70,91
194880,note_on,0,0,1,,,,,,,,,1,,,88,91
194880,control_change,48,0,3,,,,,,,64,0,3,,,,
194976,note_off,96,0,1,,,,,,,,,1,,,88,0
195000,note_on,24,0,1,,,,,,,,,1,,,94,90
195072,note_off,192,0,3,,,,,,,,,3,,,70,0
195072,note_off,0,0,3,,,,,,,,,3,,,67,0
195072,note_off,0,0,3,,,,,,,,,3,,,73,0
195096,note_off,96,0,1,,,,,,,,,1,,,94,0
195120,note_on,0,0,5,,,,,,,,,5,,,60,89
195120,control_change,240,0,4,,,,,,,64,127,4,,,,
195120,control_change,240,0,5,,,,,,,64,127,5,,,,
195120,control_change,24,0,1,,,,,,,64,127,1,,,,
195120,control_change,240,0,2,,,,,,,64,127,2,,,,
195120,control_change,48,0,3,,,,,,,64,127,3,,,,
195120,note_on,0,0,1,,,,,,,,,1,,,91,89
195216,note_off,96,0,1,,,,,,,,,1,,,91,0
195240,note_on,24,0,1,,,,,,,,,1,,,88,88
195312,note_off,192,0,5,,,,,,,,,5,,,60,0
195336,note_off,96,0,1,,,,,,,,,1,,,88,0
195360,note_on,0,0,3,,,,,,,,,3,,,70,87
195360,note_on,0,0,3,,,,,,,,,3,,,73,87
195360,note_on,240,0,3,,,,,,,,,3,,,67,87
195360,note_on,24,0,1,,,,,,,,,1,,,85,87
195456,note_off,96,0,1,,,,,,,,,1,,,85,0
195480,note_on,24,0,1,,,,,,,,,1,,,82,86
195552,note_off,0,0,3,,,,,,,,,3,,,73,0
195552,note_off,192,0,3,,,,,,,,,3,,,70,0
195552,note_off,0,0,3,,,,,,,,,3,,,67,0
195576,note_off,96,0,1,,,,,,,,,1,,,82,0
195600,control_change,480,0,4,,,,,,,64,0,4,,,,
195600,note_on,0,0,1,,,,,,,,,1,,,91,85
195600,control_change,48,0,3,,,,,,,64,0,3,,,,
195600,note_on,0,0,3,,,,,,,,,3,,,67,85
195600,note_on,0,0,3,,,,,,,,,3,,,73,85
195600,note_on,0,0,3,,,,,,,,,3,,,70,85
195600,control_change,288,0,5,,,,,,,64,0,5,,,,
195600,control_change,24,0,1,,,,,,,64,0,1,,,,
195600,control_change,480,0,2,,,,,,,64,0,2,,,,
195696,note_off,96,0,1,,,,,,,,,1,,,91,0
195720,note_on,24,0,1,,,,,,,,,1,,,88,84
195792,note_off,0,0,3,,,,,,,,,3,,,73,0
195792,note_off,0,0,3,,,,,,,,,3,,,67,0
195792,note_off,192,0,3,,,,,,,,,3,,,70,0
195816,note_off,96,0,1,,,,,,,,,1,,,88,0
195840,control_change,240,0,2,,,,,,,64,127,2,,,,
195840,control_change,48,0,3,,,,,,,64,127,3,,,,
195840,control_change,240,0,4,,,,,,,64,127,4,,,,
195840,note_on,0,0,5,,,,,,,,,5,,,60,84
195840,control_change,240,0,5,,,,,,,64,127,5,,,,
195840,note_on,0,0,1,,,,,,,,,1,,,85,84
195840,control_change,24,0,1,,,,,,,64,127,1,,,,
195936,note_off,96,0,1,,,,,,,,,1,,,85,0
195960,note_on,24,0,1,,,,,,,,,1,,,82,83
196032,note_off,192,0,5,,,,,,,,,5,,,60,0
196056,note_off,96,0,1,,,,,,,,,1,,,82,0
196080,note_on,24,0,1,,,,,,,,,1,,,88,82
196080,note_on,0,0,3,,,,,,,,,3,,,70,82
196080,note_on,0,0,3,,,,,,,,,3,,,73,82
196080,note_on,240,0,3,,,,,,,,,3,,,67,82
196176,note_off,96,0,1,,,,,,,,,1,,,88,0
196200,note_on,24,0,1,,,,,,,,,1,,,85,81
196272,note_off,0,0,3,,,,,,,,,3,,,73,0
196272,note_off,0,0,3,,,,,,,,,3,,,67,0
196272,note_off,192,0,3,,,,,,,,,3,,,70,0
196296,note_off,96,0,1,,,,,,,,,1,,,85,0
196320,note_on,0,0,3,,,,,,,,,3,,,73,80
196320,note_on,0,0,1,,,,,,,,,1,,,82,80
196320,control_change,48,0,3,,,,,,,64,0,3,,,,
196320,control_change,480,0,4,,,,,,,64,0,4,,,,
196320,note_on,0,0,3,,,,,,,,,3,,,67,80
196320,control_change,288,0,5,,,,,,,64,0,5,,,,
196320,control_change,24,0,1,,,,,,,64,0,1,,,,
196320,note_on,0,0,3,,,,,,,,,3,,,70,80
196320,control_change,480,0,2,,,,,,,64,0,2,,,,
196416,note_off,96,0,1,,,,,,,,,1,,,82,0
196440,note_on,24,0,1,,,,,,,,,1,,,79,79
196512,note_off,0,0,3,,,,,,,,,3,,,67,0
196512,note_off,192,0,3,,,,,,,,,3,,,70,0
196512,note_off,0,0,3,,,,,,,,,3,,,73,0
196536,note_off,96,0,1,,,,,,,,,1,,,79,0
196560,note_on,24,0,1,,,,,,,,,1,,,85,78
196560,note_on,240,0,5,,,,,,,,,5,,,60,78
196656,note_off,96,0,1,,,,,,,,,1,,,85,0
196680,note_on,24,0,1,,,,,,,,,1,,,82,78
196752,note_off,192,0,5,,,,,,,,,5,,,60,0
196776,note_off,96,0,1,,,,,,,,,1,,,82,0
196800,note_on,24,0,1,,,,,,,,,1,,,79,77
196800,note_on,288,0,3,,,,,,,,,3,,,67,77
196800,note_on,0,0,3,,,,,,,,,3,,,72,77
196800,note_on,0,0,3,,,,,,,,,3,,,70,77
196896,note_off,96,0,1,,,,,,,,,1,,,79,0
196920,note_on,24,0,1,,,,,,,,,1,,,76,78
196992,note_off,0,0,3,,,,,,,,,3,,,72,0
196992,note_off,192,0,3,,,,,,,,,3,,,70,0
196992,note_off,0,0,3,,,,,,,,,3,,,67,0
197016,note_off,96,0,1,,,,,,,,,1,,,76,0
197040,note_on,288,0,5,,,,,,,,,5,,,53,78
197040,note_on,720,0,2,,,,,,,,,2,,,81,78
197040,note_on,0,0,1,,,,,,,,,1,,,72,78
197040,note_on,24,0,1,,,,,,,,,1,,,84,78
197040,note_on,0,0,5,,,,,,,,,5,,,41,78
197160,set_tempo,2760,1,0,,,,,,500000,,,,,,,
197232,note_off,0,0,5,,,,,,,,,5,,,53,0
197232,note_off,192,0,2,,,,,,,,,2,,,81,0
197232,note_off,192,0,5,,,,,,,,,5,,,41,0
197232,note_off,0,0,1,,,,,,,,,1,,,84,0
197232,note_off,192,0,1,,,,,,,,,1,,,72,0
197280,note_on,0,0,5,,,,,,,,,5,,,41,88
197280,note_on,48,0,5,,,,,,,,,5,,,53,88
197280,note_on,0,0,1,,,,,,,,,1,,,72,88
197280,note_on,48,0,1,,,,,,,,,1,,,84,88
197280,note_on,48,0,2,,,,,,,,,2,,,81,88
197280,set_tempo,120,1,0,,,,,,495867,,,,,,,
197568,note_off,0,0,5,,,,,,,,,5,,,53,0
197568,note_off,288,0,5,,,,,,,,,5,,,41,0
197640,note_on,0,0,2,,,,,,,,,2,,,79,83
197640,note_off,360,0,2,,,,,,,,,2,,,81,0
197640,note_off,360,0,1,,,,,,,,,1,,,72,0
197640,note_off,0,0,1,,,,,,,,,1,,,84,0
197640,note_on,0,0,1,,,,,,,,,1,,,82,83
197640,note_on,0,0,1,,,,,,,,,1,,,70,83
197736,note_off,96,0,2,,,,,,,,,2,,,79,0
197736,note_off,0,0,1,,,,,,,,,1,,,82,0
197736,note_off,96,0,1,,,,,,,,,1,,,70,0
197760,note_on,192,0,5,,,,,,,,,5,,,53,84
197760,note_on,0,0,1,,,,,,,,,1,,,69,84
197760,note_on,24,0,1,,,,,,,,,1,,,81,84
197760,note_on,24,0,2,,,,,,,,,2,,,77,84
197760,note_on,0,0,4,,,,,,,,,4,,,65,84
197760,note_on,1440,0,4,,,,,,,,,4,,,63,84
197952,note_off,0,0,4,,,,,,,,,4,,,63,0
197952,note_off,192,0,5,,,,,,,,,5,,,53,0
197952,note_off,192,0,2,,,,,,,,,2,,,77,0
197952,note_off,192,0,4,,,,,,,,,4,,,65,0
197952,note_off,192,0,1,,,,,,,,,1,,,69,0
197952,note_off,0,0,1,,,,,,,,,1,,,81,0
198000,note_on,0,0,1,,,,,,,,,1,,,69,94
198000,note_on,0,0,4,,,,,,,,,4,,,65,94
198000,note_on,48,0,4,,,,,,,,,4,,,63,94
198000,note_on,48,0,5,,,,,,,,,5,,,53,94
198000,note_on,48,0,2,,,,,,,,,2,,,77,94
198000,note_on,48,0,1,,,,,,,,,1,,,81,94
198192,note_off,0,0,4,,,,,,,,,4,,,63,0
198192,note_off,192,0,2,,,,,,,,,2,,,77,0
198192,note_off,192,0,4,,,,,,,,,4,,,65,0
198192,note_off,192,0,1,,,,,,,,,1,,,69,0
198192,note_off,0,0,1,,,,,,,,,1,,,81,0
198192,note_off,192,0,5,,,,,,,,,5,,,53,0
198240,note_on,48,0,2,,,,,,,,,2,,,77,89
198240,note_on,0,0,1,,,,,,,,,1,,,69,89
198240,note_on,48,0,5,,,,,,,,,5,,,53,89
198240,note_on,48,0,4,,,,,,,,,4,,,63,89
198240,note_on,48,0,1,,,,,,,,,1,,,81,89
198240,note_on,0,0,4,,,,,,,,,4,,,65,89
198432,note_off,192,0,5,,,,,,,,,5,,,53,0
198432,note_off,192,0,4,,,,,,,,,4,,,65,0
198432,note_off,0,0,4,,,,,,,,,4,,,63,0
198432,note_off,192,0,2,,,,,,,,,2,,,77,0
198432,note_off,0,0,1,,,,,,,,,1,,,81,0
198432,note_off,192,0,1,,,,,,,,,1,,,69,0
198480,note_on,48,0,4,,,,,,,,,4,,,63,99
198480,note_on,0,0,4,,,,,,,,,4,,,65,99
198480,note_on,0,0,1,,,,,,,,,1,,,69,99
198480,note_on,48,0,5,,,,,,,,,5,,,53,99
198480,note_on,48,0,2,,,,,,,,,2,,,77,99
198480,note_on,48,0,1,,,,,,,,,1,,,81,99
198600,set_tempo,1320,1,0,,,,,,500000,,,,,,,
198672,note_off,0,0,4,,,,,,,,,4,,,63,0
198672,note_off,192,0,2,,,,,,,,,2,,,77,0
198672,note_off,192,0,1,,,,,,,,,1,,,69,0
198672,note_off,0,0,1,,,,,,,,,1,,,81,0
198672,note_off,192,0,4,,,,,,,,,4,,,65,0
198672,note_off,192,0,5,,,,,,,,,5,,,53,0
198720,note_on,48,0,2,,,,,,,,,2,,,77,109
198720,note_on,48,0,5,,,,,,,,,5,,,53,109
198720,note_on,48,0,1,,,,,,,,,1,,,82,109
198720,set_tempo,120,1,0,,,,,,495867,,,,,,,
198720,note_on,0,0,1,,,,,,,,,1,,,70,109
198720,note_on,48,0,4,,,,,,,,,4,,,62,109
198720,note_on,0,0,4,,,,,,,,,4,,,65,109
199200,note_on,0,0,1,,,,,,,,,1,,,74,87
199200,note_on,0,0,4,,,,,,,,,4,,,58,87
199200,note_on,0,0,1,,,,,,,,,1,,,86,87
199200,note_off,0,0,1,,,,,,,,,1,,,82,0
199200,note_off,480,0,4,,,,,,,,,4,,,62,0
199200,note_off,480,0,1,,,,,,,,,1,,,70,0
199440,note_on,0,0,1,,,,,,,,,1,,,84,76
199440,note_off,0,0,1,,,,,,,,,1,,,86,0
199440,note_off,240,0,1,,,,,,,,,1,,,74,0
199440,note_on,0,0,4,,,,,,,,,4,,,57,76
199440,note_on,0,0,1,,,,,,,,,1,,,72,76
199440,note_off,240,0,4,,,,,,,,,4,,,58,0
199800,note_off,0,0,1,,,,,,,,,1,,,84,0
199800,note_off,0,0,4,,,,,,,,,4,,,65,0
199800,note_off,1080,0,5,,,,,,,,,5,,,53,0
199800,note_off,360,0,1,,,,,,,,,1,,,72,0
199800,note_off,1080,0,2,,,,,,,,,2,,,77,0
199800,note_off,360,0,4,,,,,,,,,4,,,57,0
199920,note_on,120,0,4,,,,,,,,,4,,,75,62
199920,note_on,0,0,4,,,,,,,,,4,,,77,62
199920,note_on,0,0,1,,,,,,,,,1,,,81,62
199920,note_on,120,0,1,,,,,,,,,1,,,93,62
199920,note_on,120,0,2,,,,,,,,,2,,,89,62
199920,note_on,120,0,5,,,,,,,,,5,,,65,62
199935,set_tempo,1215,1,0,,,,,,508474,,,,,,,
200112,note_off,192,0,2,,,,,,,,,2,,,89,0
200112,note_off,192,0,5,,,,,,,,,5,,,65,0
200112,note_off,0,0,1,,,,,,,,,1,,,93,0
200112,note_off,192,0,1,,,,,,,,,1,,,81,0
200112,note_off,192,0,4,,,,,,,,,4,,,77,0
200112,note_off,0,0,4,,,,,,,,,4,,,75,0
200160,note_on,48,0,5,,,,,,,,,5,,,65,75
200160,note_on,48,0,4,,,,,,,,,4,,,74,75
200160,note_on,48,0,2,,,,,,,,,2,,,89,75
200160,note_on,48,0,1,,,,,,,,,1,,,94,75
200160,note_on,0,0,4,,,,,,,,,4,,,77,75
200160,note_on,0,0,1,,,,,,,,,1,,,82,75
200640,note_off,480,0,4,,,,,,,,,4,,,74,0
200640,note_on,0,0,1,,,,,,,,,1,,,86,59
200640,note_on,0,0,1,,,,,,,,,1,,,98,59
200640,note_off,0,0,1,,,,,,,,,1,,,94,0
200640,note_off,480,0,1,,,,,,,,,1,,,82,0
200640,note_on,0,0,4,,,,,,,,,4,,,70,59
200760,set_tempo,825,1,0,,,,,,517241,,,,,,,
200880,set_tempo,120,1,0,,,,,,526315,,,,,,,
200880,note_off,240,0,4,,,,,,,,,4,,,70,0
200880,note_on,0,0,1,,,,,,,,,1,,,96,51
200880,note_off,0,0,1,,,,,,,,,1,,,98,0
200880,note_on,0,0,1,,,,,,,,,1,,,84,51
200880,note_off,240,0,1,,,,,,,,,1,,,86,0
200880,note_on,0,0,4,,,,,,,,,4,,,69,51
201240,note_off,0,0,1,,,,,,,,,1,,,96,0
201240,note_off,360,0,1,,,,,,,,,1,,,84,0
201240,note_off,1080,0,2,,,,,,,,,2,,,89,0
201240,note_off,1080,0,5,,,,,,,,,5,,,65,0
201240,note_off,0,0,4,,,,,,,,,4,,,77,0
201240,note_off,360,0,4,,,,,,,,,4,,,69,0
201240,set_tempo,360,1,0,,,,,,845070,,,,,,,
201360,note_on,120,0,5,,,,,,,,,5,,,57,46
201360,set_tempo,120,1,0,,,,,,495867,,,,,,,
201360,note_on,120,0,2,,,,,,,,,2,,,72,46
201360,note_on,120,0,4,,,,,,,,,4,,,65,46
201360,note_on,120,0,1,,,,,,,,,1,,,77,46
201480,note_off,120,0,1,,,,,,,,,1,,,77,0
201480,note_on,0,0,1,,,,,,,,,1,,,79,47
201552,note_off,192,0,5,,,,,,,,,5,,,57,0
201552,note_off,192,0,4,,,,,,,,,4,,,65,0
201552,note_off,192,0,2,,,,,,,,,2,,,72,0
201576,note_off,96,0,1,,,,,,,,,1,,,79,0
201600,note_on,48,0,5,,,,,,,,,5,,,58,54
201600,note_on,48,0,2,,,,,,,,,2,,,77,54
201600,note_on,0,0,4,,,,,,,,,4,,,65,54
201600,note_on,24,0,1,,,,,,,,,1,,,79,54
201600,note_on,0,0,2,,,,,,,,,2,,,74,54
201600,note_on,48,0,4,,,,,,,,,4,,,67,54
201960,note_off,360,0,2,,,,,,,,,2,,,74,0
201960,note_off,0,0,4,,,,,,,,,4,,,67,0
201960,note_off,360,0,5,,,,,,,,,5,,,58,0
201960,note_off,0,0,2,,,,,,,,,2,,,77,0
201960,note_off,360,0,1,,,,,,,,,1,,,79,0
201960,note_off,360,0,4,,,,,,,,,4,,,65,0
202080,note_on,120,0,4,,,,,,,,,4,,,67,53
202080,note_on,0,0,4,,,,,,,,,4,,,65,53
202080,note_on,120,0,5,,,,,,,,,5,,,58,53
202080,note_on,0,0,2,,,,,,,,,2,,,74,53
202080,note_on,120,0,2,,,,,,,,,2,,,77,53
202080,note_on,120,0,1,,,,,,,,,1,,,79,53
202200,note_on,0,0,1,,,,,,,,,1,,,80,55
202200,note_off,120,0,1,,,,,,,,,1,,,79,0
202272,note_off,192,0,4,,,,,,,,,4,,,65,0
202272,note_off,192,0,2,,,,,,,,,2,,,74,0
202272,note_off,0,0,2,,,,,,,,,2,,,77,0
202272,note_off,192,0,5,,,,,,,,,5,,,58,0
202272,note_off,0,0,4,,,,,,,,,4,,,67,0
202296,note_off,96,0,1,,,,,,,,,1,,,80,0
202320,note_on,48,0,5,,,,,,,,,5,,,59,63
202320,note_on,48,0,2,,,,,,,,,2,,,77,63
202320,note_on,0,0,2,,,,,,,,,2,,,74,63
202320,note_on,24,0,1,,,,,,,,,1,,,80,63
202320,note_on,48,0,4,,,,,,,,,4,,,68,63
202320,note_on,0,0,4,,,,,,,,,4,,,65,63
202680,note_off,360,0,2,,,,,,,,,2,,,74,0
202680,note_off,0,0,2,,,,,,,,,2,,,77,0
202680,note_off,360,0,1,,,,,,,,,1,,,80,0
202680,note_off,360,0,4,,,,,,,,,4,,,65,0
202680,note_off,0,0,4,,,,,,,,,4,,,68,0
202680,note_off,360,0,5,,,,,,,,,5,,,59,0
202800,note_on,120,0,1,,,,,,,,,1,,,80,61
202800,note_on,120,0,5,,,,,,,,,5,,,59,61
202800,note_on,120,0,4,,,,,,,,,4,,,68,61
202800,note_on,120,0,2,,,,,,,,,2,,,77,61
202800,note_on,0,0,2,,,,,,,,,2,,,74,61
202800,note_on,0,0,4,,,,,,,,,4,,,65,61
202920,note_off,120,0,1,,,,,,,,,1,,,80,0
202920,note_on,0,0,1,,,,,,,,,1,,,81,62
202992,note_off,0,0,2,,,,,,,,,2,,,77,0
202992,note_off,192,0,4,,,,,,,,,4,,,65,0
202992,note_off,0,0,4,,,,,,,,,4,,,68,0
202992,note_off,192,0,5,,,,,,,,,5,,,59,0
202992,note_off,192,0,2,,,,,,,,,2,,,74,0
203016,note_off,96,0,1,,,,,,,,,1,,,81,0
203040,note_on,48,0,2,,,,,,,,,2,,,77,72
203040,note_on,0,0,4,,,,,,,,,4,,,69,72
203040,note_on,24,0,1,,,,,,,,,1,,,81,72
203040,note_on,48,0,4,,,,,,,,,4,,,65,72
203040,note_on,48,0,5,,,,,,,,,5,,,60,72
203040,note_on,0,0,2,,,,,,,,,2,,,72,72
203400,note_off,360,0,1,,,,,,,,,1,,,81,0
203400,note_off,0,0,2,,,,,,,,,2,,,77,0
203400,note_off,360,0,2,,,,,,,,,2,,,72,0
203400,note_off,0,0,4,,,,,,,,,4,,,65,0
203400,note_off,360,0,4,,,,,,,,,4,,,69,0
203400,note_off,360,0,5,,,,,,,,,5,,,60,0
203520,note_on,0,0,2,,,,,,,,,2,,,75,68
203520,note_on,120,0,5,,,,,,,,,5,,,60,68
203520,note_on,0,0,4,,,,,,,,,4,,,69,68
203520,note_on,120,0,4,,,,,,,,,4,,,65,68
203520,note_on,120,0,1,,,,,,,,,1,,,81,68
203520,note_on,120,0,2,,,,,,,,,2,,,77,68
203640,note_on,0,0,1,,,,,,,,,1,,,82,69
203640,note_off,120,0,1,,,,,,,,,1,,,81,0
203712,note_off,192,0,5,,,,,,,,,5,,,60,0
203712,note_off,0,0,4,,,,,,,,,4,,,65,0
203712,note_off,0,0,2,,,,,,,,,2,,,77,0
203712,note_off,192,0,2,,,,,,,,,2,,,75,0
203712,note_off,192,0,4,,,,,,,,,4,,,69,0
203736,note_off,96,0,1,,,,,,,,,1,,,82,0
203760,note_on,48,0,2,,,,,,,,,2,,,77,80
203760,note_on,0,0,2,,,,,,,,,2,,,73,80
203760,note_on,24,0,1,,,,,,,,,1,,,82,80
203760,note_on,0,0,4,,,,,,,,,4,,,65,80
203760,note_on,48,0,4,,,,,,,,,4,,,70,80
203760,note_on,48,0,5,,,,,,,,,5,,,61,80
204120,note_off,0,0,4,,,,,,,,,4,,,70,0
204120,note_off,360,0,1,,,,,,,,,1,,,82,0
204120,note_off,360,0,4,,,,,,,,,4,,,65,0
204120,note_off,360,0,5,,,,,,,,,5,,,61,0
204120,note_off,0,0,2,,,,,,,,,2,,,77,0
204120,note_off,360,0,2,,,,,,,,,2,,,73,0
204240,note_on,120,0,1,,,,,,,,,1,,,83,97
204240,note_on,120,0,2,,,,,,,,,2,,,77,97
204240,note_on,0,0,5,,,,,,,,,5,,,50,97
204240,note_on,0,0,2,,,,,,,,,2,,,71,97
204240,note_on,120,0,5,,,,,,,,,5,,,38,97
204240,note_on,0,0,2,,,,,,,,,2,,,80,97
204360,set_tempo,3000,1,0,,,,,,500000,,,,,,,
204432,note_off,192,0,2,,,,,,,,,2,,,80,0
204432,note_off,192,0,1,,,,,,,,,1,,,83,0
204432,note_off,0,0,2,,,,,,,,,2,,,77,0
204432,note_off,0,0,2,,,,,,,,,2,,,71,0
204480,note_off,240,0,5,,,,,,,,,5,,,50,0
204480,note_off,0,0,5,,,,,,,,,5,,,38,0
204480,note_on,0,0,5,,,,,,,,,5,,,39,50
204480,note_on,0,0,5,,,,,,,,,5,,,51,50
204480,note_on,48,0,1,,,,,,,,,1,,,84,50
204480,note_on,48,0,2,,,,,,,,,2,,,72,50
204480,note_on,0,0,2,,,,,,,,,2,,,75,50
204480,set_tempo,120,1,0,,,,,,495867,,,,,,,
204672,note_off,192,0,5,,,,,,,,,5,,,51,0
204672,note_off,0,0,5,,,,,,,,,5,,,39,0
204720,note_on,0,0,3,,,,,,,,,3,,,63,41
204720,note_on,7728,0,3,,,,,,,,,3,,,60,41
204840,note_on,0,0,1,,,,,,,,,1,,,82,41
204840,note_off,360,0,1,,,,,,,,,1,,,84,0
204960,note_on,0,0,3,,,,,,,,,3,,,68,42
204960,note_off,240,0,3,,,,,,,,,3,,,63,0
204960,note_on,0,0,1,,,,,,,,,1,,,80,42
204960,note_off,120,0,1,,,,,,,,,1,,,82,0
205080,note_off,120,0,3,,,,,,,,,3,,,60,0
205140,note_off,660,0,2,,,,,,,,,2,,,72,0
205145,note_off,5,0,2,,,,,,,,,2,,,75,0
205152,note_off,72,0,3,,,,,,,,,3,,,68,0
205152,note_off,192,0,1,,,,,,,,,1,,,80,0
205200,note_on,528,0,5,,,,,,,,,5,,,51,53
205200,note_on,0,0,5,,,,,,,,,5,,,39,53
205200,note_on,55,0,2,,,,,,,,,2,,,73,53
205200,note_on,0,0,2,,,,,,,,,2,,,75,53
205200,note_on,48,0,1,,,,,,,,,1,,,80,53
205392,note_off,192,0,5,,,,,,,,,5,,,39,0
205392,note_off,0,0,5,,,,,,,,,5,,,51,0
205440,note_on,0,0,1,,,,,,,,,1,,,79,44
205440,note_on,288,0,3,,,,,,,,,3,,,61,44
205440,note_off,240,0,1,,,,,,,,,1,,,80,0
205440,note_on,0,0,3,,,,,,,,,3,,,63,44
205560,note_off,120,0,1,,,,,,,,,1,,,79,0
205560,note_on,0,0,1,,,,,,,,,1,,,77,44
205680,note_off,240,0,3,,,,,,,,,3,,,63,0
205680,note_on,0,0,3,,,,,,,,,3,,,67,45
205680,note_off,120,0,1,,,,,,,,,1,,,77,0
205680,note_on,0,0,1,,,,,,,,,1,,,75,45
205776,note_off,96,0,1,,,,,,,,,1,,,75,0
205800,note_off,120,0,3,,,,,,,,,3,,,61,0
205860,note_off,0,0,2,,,,,,,,,2,,,73,0
205860,note_off,660,0,2,,,,,,,,,2,,,75,0
205872,note_off,72,0,3,,,,,,,,,3,,,67,0
205920,note_on,0,0,2,,,,,,,,,2,,,75,60
205920,note_on,60,0,2,,,,,,,,,2,,,72,60
205920,note_on,528,0,5,,,,,,,,,5,,,39,60
205920,note_on,0,0,5,,,,,,,,,5,,,51,60
205920,note_on,144,0,1,,,,,,,,,1,,,84,60
206160,note_off,0,0,5,,,,,,,,,5,,,39,0
206160,note_off,240,0,5,,,,,,,,,5,,,51,0
206160,note_on,0,0,3,,,,,,,,,3,,,60,47
206160,note_on,288,0,3,,,,,,,,,3,,,63,47
206280,note_off,360,0,1,,,,,,,,,1,,,84,0
206280,note_on,0,0,1,,,,,,,,,1,,,82,47
206400,note_off,120,0,1,,,,,,,,,1,,,82,0
206400,note_on,0,0,1,,,,,,,,,1,,,80,48
206400,note_off,240,0,3,,,,,,,,,3,,,63,0
206400,note_on,0,0,3,,,,,,,,,3,,,68,48
206520,note_off,120,0,3,,,,,,,,,3,,,60,0
206575,note_off,655,0,2,,,,,,,,,2,,,72,0
206580,note_off,5,0,2,,,,,,,,,2,,,75,0
206592,note_off,192,0,1,,,,,,,,,1,,,80,0
206592,note_off,72,0,3,,,,,,,,,3,,,68,0
206640,note_on,0,0,5,,,,,,,,,5,,,51,49
206640,note_on,60,0,2,,,,,,,,,2,,,73,49
206640,note_on,48,0,1,,,,,,,,,1,,,80,49
206640,note_on,480,0,5,,,,,,,,,5,,,39,49
206640,note_on,0,0,2,,,,,,,,,2,,,75,49
206832,note_off,0,0,5,,,,,,,,,5,,,39,0
206832,note_off,192,0,5,,,,,,,,,5,,,51,0
206880,note_on,0,0,3,,,,,,,,,3,,,61,50
206880,note_on,288,0,3,,,,,,,,,3,,,63,50
206880,note_on,0,0,1,,,,,,,,,1,,,79,50
206880,note_off,240,0,1,,,,,,,,,1,,,80,0
207000,note_off,120,0,1,,,,,,,,,1,,,79,0
207000,note_on,0,0,1,,,,,,,,,1,,,77,50
207120,note_on,0,0,3,,,,,,,,,3,,,67,51
207120,note_off,120,0,1,,,,,,,,,1,,,77,0
207120,note_on,0,0,1,,,,,,,,,1,,,75,51
207120,note_off,240,0,3,,,,,,,,,3,,,63,0
207216,note_off,96,0,1,,,,,,,,,1,,,75,0
207240,set_tempo,2760,1,0,,,,,,500000,,,,,,,
207240,note_off,120,0,3,,,,,,,,,3,,,61,0
207292,note_off,652,0,2,,,,,,,,,2,,,75,0
207300,note_off,8,0,2,,,,,,,,,2,,,73,0
207312,note_off,72,0,3,,,,,,,,,3,,,67,0
207360,note_on,0,0,2,,,,,,,,,2,,,77,65
207360,note_on,0,0,2,,,,,,,,,2,,,73,65
207360,control_change,60,0,2,,,,,,,64,127,2,,,,
207360,note_on,0,0,1,,,,,,,,,1,,,85,65
207360,note_on,0,0,5,,,,,,,,,5,,,41,65
207360,control_change,528,0,5,,,,,,,64,127,5,,,,
207360,note_on,0,0,5,,,,,,,,,5,,,53,65
207360,control_change,48,0,3,,,,,,,64,127,3,,,,
207360,control_change,3240,0,4,,,,,,,64,127,4,,,,
207360,set_tempo,120,1,0,,,,,,495867,,,,,,,
207360,control_change,144,0,1,,,,,,,64,127,1,,,,
207600,note_off,0,0,5,,,,,,,,,5,,,41,0
207600,note_on,240,0,3,,,,,,,,,3,,,65,53
207600,note_on,0,0,3,,,,,,,,,3,,,60,53
207600,note_off,240,0,5,,,,,,,,,5,,,53,0
207720,note_off,360,0,1,,,,,,,,,1,,,85,0
207720,note_on,0,0,1,,,,,,,,,1,,,84,53
207840,note_on,0,0,3,,,,,,,,,3,,,70,54
207840,control_change,240,0,5,,,,,,,64,0,5,,,,
207840,control_change,480,0,4,,,,,,,64,0,4,,,,
207840,control_change,240,0,3,,,,,,,64,0,3,,,,
207840,note_off,0,0,3,,,,,,,,,3,,,65,0
207840,control_change,120,0,1,,,,,,,64,0,1,,,,
207840,note_off,0,0,1,,,,,,,,,1,,,84,0
207840,note_on,0,0,1,,,,,,,,,1,,,82,54
207840,control_change,480,0,2,,,,,,,64,0,2,,,,
207960,note_off,120,0,3,,,,,,,,,3,,,60,0
208020,note_off,180,0,2,,,,,,,,,2,,,77,0
208020,note_off,0,0,2,,,,,,,,,2,,,73,0
208032,note_off,72,0,3,,,,,,,,,3,,,70,0
208032,note_off,192,0,1,,,,,,,,,1,,,82,0
208080,note_on,0,0,5,,,,,,,,,5,,,41,55
208080,note_on,60,0,2,,,,,,,,,2,,,75,55
208080,note_on,0,0,2,,,,,,,,,2,,,77,55
208080,note_on,240,0,5,,,,,,,,,5,,,53,55
208080,note_on,48,0,1,,,,,,,,,1,,,82,55
208272,note_off,0,0,5,,,,,,,,,5,,,53,0
208272,note_off,192,0,5,,,,,,,,,5,,,41,0
208320,note_on,288,0,3,,,,,,,,,3,,,63,56
208320,note_off,240,0,1,,,,,,,,,1,,,82,0
208320,note_on,0,0,1,,,,,,,,,1,,,81,56
208320,note_on,0,0,3,,,,,,,,,3,,,65,56
208440,note_on,0,0,1,,,,,,,,,1,,,79,56
208440,note_off,120,0,1,,,,,,,,,1,,,81,0
208560,note_off,120,0,1,,,,,,,,,1,,,79,0
208560,note_on,0,0,1,,,,,,,,,1,,,77,57
208560,note_on,0,0,3,,,,,,,,,3,,,69,57
208560,note_off,240,0,3,,,,,,,,,3,,,65,0
208680,note_off,120,0,3,,,,,,,,,3,,,63,0
208740,note_off,660,0,2,,,,,,,,,2,,,77,0
208745,note_off,5,0,2,,,,,,,,,2,,,75,0
208752,note_off,72,0,3,,,,,,,,,3,,,69,0
208752,note_off,192,0,1,,,,,,,,,1,,,77,0
208800,note_on,0,0,5,,,,,,,,,5,,,41,74
208800,control_change,48,0,1,,,,,,,64,127,1,,,,
208800,control_change,960,0,4,,,,,,,64,127,4,,,,
208800,note_on,0,0,1,,,,,,,,,1,,,85,74
208800,control_change,48,0,3,,,,,,,64,127,3,,,,
208800,control_change,528,0,5,,,,,,,64,127,5,,,,
208800,note_on,0,0,5,,,,,,,,,5,,,53,74
208800,note_on,0,0,2,,,,,,,,,2,,,77,74
208800,note_on,0,0,2,,,,,,,,,2,,,73,74
208800,control_change,55,0,2,,,,,,,64,127,2,,,,
208992,note_off,0,0,5,,,,,,,,,5,,,41,0
208992,note_off,192,0,5,,,,,,,,,5,,,53,0
209040,note_on,0,0,3,,,,,,,,,3,,,61,59
209040,note_on,240,0,3,,,,,,,,,3,,,65,59
209160,note_off,360,0,1,,,,,,,,,1,,,85,0
209160,note_on,0,0,1,,,,,,,,,1,,,84,59
209280,control_change,480,0,2,,,,,,,64,0,2,,,,
209280,note_off,0,0,3,,,,,,,,,3,,,65,0
209280,control_change,240,0,3,,,,,,,64,0,3,,,,
209280,note_on,0,0,3,,,,,,,,,3,,,70,60
209280,control_change,480,0,4,,,,,,,64,0,4,,,,
209280,control_change,120,0,1,,,,,,,64,0,1,,,,
209280,note_off,0,0,1,,,,,,,,,1,,,84,0
209280,note_on,0,0,1,,,,,,,,,1,,,82,60
209280,control_change,288,0,5,,,,,,,64,0,5,,,,
209405,note_off,125,0,3,,,,,,,,,3,,,61,0
209455,note_off,175,0,2,,,,,,,,,2,,,77,0
209460,note_off,5,0,2,,,,,,,,,2,,,73,0
209472,note_off,192,0,1,,,,,,,,,1,,,82,0
209472,note_off,67,0,3,,,,,,,,,3,,,70,0
209520,note_on,0,0,2,,,,,,,,,2,,,77,61
209520,note_on,60,0,2,,,,,,,,,2,,,75,61
209520,note_on,240,0,5,,,,,,,,,5,,,41,61
209520,note_on,0,0,5,,,,,,,,,5,,,53,61
209520,note_on,48,0,1,,,,,,,,,1,,,82,61
209760,note_on,288,0,3,,,,,,,,,3,,,63,62
209760,note_on,0,0,3,,,,,,,,,3,,,65,62
209760,note_off,240,0,5,,,,,,,,,5,,,53,0
209760,note_off,240,0,1,,,,,,,,,1,,,82,0
209760,note_on,0,0,1,,,,,,,,,1,,,81,62
209760,note_off,0,0,5,,,,,,,,,5,,,41,0
209880,note_off,120,0,1,,,,,,,,,1,,,81,0
209880,note_on,0,0,1,,,,,,,,,1,,,79,62
210000,note_off,120,0,1,,,,,,,,,1,,,79,0
210000,note_on,0,0,1,,,,,,,,,1,,,77,62
210000,note_off,240,0,3,,,,,,,,,3,,,65,0
210000,note_on,0,0,3,,,,,,,,,3,,,69,62
210120,note_off,120,0,3,,,,,,,,,3,,,63,0
210120,set_tempo,2760,1,0,,,,,,500000,,,,,,,
210180,note_off,0,0,2,,,,,,,,,2,,,75,0
210180,note_off,660,0,2,,,,,,,,,2,,,77,0
210192,note_off,72,0,3,,,,,,,,,3,,,69,0
210192,note_off,192,0,1,,,,,,,,,1,,,77,0
210240,control_change,480,0,5,,,,,,,64,127,5,,,,
210240,note_on,0,0,5,,,,,,,,,5,,,46,76
210240,note_on,0,0,5,,,,,,,,,5,,,58,76
210240,set_tempo,120,1,0,,,,,,495867,,,,,,,
210240,control_change,960,0,4,,,,,,,64,127,4,,,,
210240,control_change,48,0,3,,,,,,,64,127,3,,,,
210240,control_change,48,0,1,,,,,,,64,127,1,,,,
210240,control_change,60,0,2,,,,,,,64,127,2,,,,
210240,note_on,0,0,2,,,,,,,,,2,,,77,76
210240,note_on,0,0,2,,,,,,,,,2,,,74,76
210240,note_on,0,0,1,,,,,,,,,1,,,86,76
210600,note_on,0,0,1,,,,,,,,,1,,,84,65
210600,note_off,360,0,1,,,,,,,,,1,,,86,0
210720,note_on,0,0,1,,,,,,,,,1,,,82,65
210720,note_off,120,0,1,,,,,,,,,1,,,84,0
210895,note_off,655,0,5,,,,,,,,,5,,,46,0
210900,note_off,5,0,5,,,,,,,,,5,,,58,0
210900,note_off,660,0,2,,,,,,,,,2,,,77,0
210905,note_off,5,0,2,,,,,,,,,2,,,74,0
210912,note_off,192,0,1,,,,,,,,,1,,,82,0
210960,note_on,0,0,5,,,,,,,,,5,,,58,78
210960,note_on,0,0,5,,,,,,,,,5,,,70,78
210960,control_change,720,0,4,,,,,,,64,0,4,,,,
210960,note_on,0,0,1,,,,,,,,,1,,,82,78
210960,note_on,0,0,4,,,,,,,,,4,,,50,78
210960,note_on,0,0,2,,,,,,,,,2,,,74,78
210960,note_on,0,0,2,,,,,,,,,2,,,77,78
210960,control_change,55,0,2,,,,,,,64,0,2,,,,
210960,control_change,720,0,3,,,,,,,64,0,3,,,,
210960,control_change,48,0,1,,,,,,,64,0,1,,,,
210960,control_change,60,0,5,,,,,,,64,0,5,,,,
211320,note_off,360,0,1,,,,,,,,,1,,,82,0
211320,note_on,0,0,1,,,,,,,,,1,,,81,68
211440,note_on,0,0,1,,,,,,,,,1,,,80,68
211440,note_off,120,0,1,,,,,,,,,1,,,81,0
211610,note_off,650,0,2,,,,,,,,,2,,,74,0
211610,note_off,650,0,5,,,,,,,,,5,,,70,0
211610,note_off,0,0,5,,,,,,,,,5,,,58,0
211615,note_off,5,0,2,,,,,,,,,2,,,77,0
211615,note_off,655,0,4,,,,,,,,,4,,,50,0
211632,note_off,192,0,1,,,,,,,,,1,,,80,0
211680,note_on,0,0,5,,,,,,,,,5,,,46,82
211680,note_on,0,0,5,,,,,,,,,5,,,58,82
211680,control_change,65,0,4,,,,,,,64,127,4,,,,
211680,control_change,720,0,3,,,,,,,64,127,3,,,,
211680,control_change,48,0,1,,,,,,,64,127,1,,,,
211680,note_on,0,0,1,,,,,,,,,1,,,86,82
211680,control_change,65,0,2,,,,,,,64,127,2,,,,
211680,note_on,0,0,2,,,,,,,,,2,,,74,82
211680,note_on,0,0,2,,,,,,,,,2,,,77,82
211680,control_change,70,0,5,,,,,,,64,127,5,,,,
212040,note_off,360,0,1,,,,,,,,,1,,,86,0
212040,note_on,0,0,1,,,,,,,,,1,,,84,72
212160,note_off,120,0,1,,,,,,,,,1,,,84,0
212160,note_on,0,0,1,,,,,,,,,1,,,82,73
212335,note_off,655,0,5,,,,,,,,,5,,,58,0
212335,note_off,0,0,5,,,,,,,,,5,,,46,0
212335,note_off,655,0,2,,,,,,,,,2,,,77,0
212340,note_off,5,0,2,,,,,,,,,2,,,74,0
212352,note_off,192,0,1,,,,,,,,,1,,,82,0
212400,control_change,65,0,5,,,,,,,64,0,5,,,,
212400,note_on,0,0,5,,,,,,,,,5,,,58,87
212400,note_on,0,0,5,,,,,,,,,5,,,70,87
212400,control_change,720,0,4,,,,,,,64,0,4,,,,
212400,note_on,0,0,4,,,,,,,,,4,,,50,87
212400,control_change,60,0,2,,,,,,,64,0,2,,,,
212400,note_on,0,0,1,,,,,,,,,1,,,82,87
212400,note_on,0,0,2,,,,,,,,,2,,,77,87
212400,note_on,0,0,2,,,,,,,,,2,,,74,87
212400,control_change,48,0,1,,,,,,,64,0,1,,,,
212400,control_change,720,0,3,,,,,,,64,0,3,,,,
212760,note_off,360,0,1,,,,,,,,,1,,,82,0
212760,note_on,0,0,1,,,,,,,,,1,,,81,77
212880,note_off,120,0,1,,,,,,,,,1,,,81,0
212880,note_on,0,0,1,,,,,,,,,1,,,80,78
213000,set_tempo,2760,1,0,,,,,,500000,,,,,,,
213060,note_off,660,0,2,,,,,,,,,2,,,77,0
213065,note_off,5,0,2,,,,,,,,,2,,,74,0
213065,note_off,0,0,5,,,,,,,,,5,,,58,0
213065,note_off,665,0,4,,,,,,,,,4,,,50,0
213065,note_off,665,0,5,,,,,,,,,5,,,70,0
213072,note_off,192,0,1,,,,,,,,,1,,,80,0
213120,note_on,0,0,5,,,,,,,,,5,,,53,90
213120,note_on,0,0,5,,,,,,,,,5,,,41,90
213120,control_change,55,0,5,,,,,,,64,127,5,,,,
213120,control_change,55,0,4,,,,,,,64,127,4,,,,
213120,set_tempo,120,1,0,,,,,,495867,,,,,,,
213120,note_on,0,0,1,,,,,,,,,1,,,93,90
213120,control_change,55,0,2,,,,,,,64,127,2,,,,
213120,note_on,0,0,2,,,,,,,,,2,,,81,90
213120,note_on,0,0,2,,,,,,,,,2,,,84,90
213120,control_change,48,0,1,,,,,,,64,127,1,,,,
213120,control_change,720,0,3,,,,,,,64,127,3,,,,
213480,note_off,360,0,1,,,,,,,,,1,,,93,0
213480,note_on,0,0,1,,,,,,,,,1,,,91,82
213600,note_off,120,0,1,,,,,,,,,1,,,91,0
213600,note_on,0,0,1,,,,,,,,,1,,,89,83
213775,note_off,655,0,5,,,,,,,,,5,,,41,0
213780,note_off,5,0,5,,,,,,,,,5,,,53,0
213780,note_off,660,0,2,,,,,,,,,2,,,84,0
213780,note_off,0,0,2,,,,,,,,,2,,,81,0
213792,note_off,192,0,1,,,,,,,,,1,,,89,0
213840,control_change,60,0,2,,,,,,,64,0,2,,,,
213840,note_on,0,0,2,,,,,,,,,2,,,81,96
213840,note_on,0,0,2,,,,,,,,,2,,,84,96
213840,note_on,0,0,4,,,,,,,,,4,,,57,96
213840,control_change,720,0,4,,,,,,,64,0,4,,,,
213840,control_change,720,0,3,,,,,,,64,0,3,,,,
213840,control_change,60,0,5,,,,,,,64,0,5,,,,
213840,note_on,0,0,5,,,,,,,,,5,,,65,96
213840,note_on,0,0,5,,,,,,,,,5,,,53,96
213840,control_change,48,0,1,,,,,,,64,0,1,,,,
213840,note_on,0,0,1,,,,,,,,,1,,,89,96
214200,note_on,0,0,1,,,,,,,,,1,,,88,88
214200,note_off,360,0,1,,,,,,,,,1,,,89,0
214320,note_off,120,0,1,,,,,,,,,1,,,88,0
214320,note_on,0,0,1,,,,,,,,,1,,,87,88
214495,note_off,655,0,5,,,,,,,,,5,,,65,0
214500,note_off,5,0,5,,,,,,,,,5,,,53,0
214505,note_off,665,0,2,,,,,,,,,2,,,84,0
214505,note_off,0,0,2,,,,,,,,,2,,,81,0
214505,note_off,665,0,4,,,,,,,,,4,,,57,0
214512,note_off,192,0,1,,,,,,,,,1,,,87,0
214560,note_on,0,0,2,,,,,,,,,2,,,84,101
214560,control_change,48,0,1,,,,,,,64,127,1,,,,
214560,note_on,0,0,1,,,,,,,,,1,,,93,101
214560,note_on,0,0,5,,,,,,,,,5,,,41,101
214560,control_change,60,0,5,,,,,,,64,127,5,,,,
214560,control_change,55,0,2,,,,,,,64,127,2,,,,
214560,note_on,0,0,2,,,,,,,,,2,,,81,101
214560,note_on,0,0,5,,,,,,,,,5,,,53,101
214560,control_change,55,0,4,,,,,,,64,127,4,,,,
214560,control_change,720,0,3,,,,,,,64,127,3,,,,
214920,note_off,360,0,1,,,,,,,,,1,,,93,0
214920,note_on,0,0,1,,,,,,,,,1,,,91,94
215040,note_on,0,0,1,,,,,,,,,1,,,89,95
215040,note_off,120,0,1,,,,,,,,,1,,,91,0
215215,note_off,655,0,5,,,,,,,,,5,,,41,0
215220,note_off,660,0,2,,,,,,,,,2,,,81,0
215220,note_off,5,0,5,,,,,,,,,5,,,53,0
215225,note_off,5,0,2,,,,,,,,,2,,,84,0
215232,note_off,192,0,1,,,,,,,,,1,,,89,0
215280,control_change,60,0,5,,,,,,,64,0,5,,,,
215280,note_on,0,0,2,,,,,,,,,2,,,81,107
215280,note_on,0,0,2,,,,,,,,,2,,,84,107
215280,control_change,55,0,2,,,,,,,64,0,2,,,,
215280,note_on,0,0,5,,,,,,,,,5,,,53,107
215280,note_on,0,0,5,,,,,,,,,5,,,65,107
215280,note_on,0,0,1,,,,,,,,,1,,,89,107
215280,control_change,720,0,4,,,,,,,64,0,4,,,,
215280,note_on,0,0,4,,,,,,,,,4,,,57,107
215280,control_change,720,0,3,,,,,,,64,0,3,,,,
215280,control_change,48,0,1,,,,,,,64,0,1,,,,
215640,note_off,360,0,1,,,,,,,,,1,,,89,0
215640,note_on,0,0,1,,,,,,,,,1,,,88,101
215760,note_on,0,0,1,,,,,,,,,1,,,87,102
215760,note_off,120,0,1,,,,,,,,,1,,,88,0
215880,set_tempo,2760,1,0,,,,,,500000,,,,,,,
215935,note_off,655,0,4,,,,,,,,,4,,,57,0
215935,note_off,655,0,5,,,,,,,,,5,,,53,0
215940,note_off,5,0,5,,,,,,,,,5,,,65,0
215940,note_off,0,0,2,,,,,,,,,2,,,81,0
215940,note_off,660,0,2,,,,,,,,,2,,,84,0
215952,note_off,192,0,1,,,,,,,,,1,,,87,0
216000,note_on,0,0,5,,,,,,,,,5,,,40,120
216000,note_on,0,0,5,,,,,,,,,5,,,52,120
216000,note_on,60,0,2,,,,,,,,,2,,,85,115
216000,control_change,60,0,5,,,,,,,64,127,5,,,,
216000,note_on,48,0,1,,,,,,,,,1,,,88,115
216000,set_tempo,120,1,0,,,,,,495867,,,,,,,
216360,note_off,360,0,1,,,,,,,,,1,,,88,0
216360,note_on,0,0,1,,,,,,,,,1,,,86,95
216360,note_on,0,0,2,,,,,,,,,2,,,83,95
216360,note_off,360,0,2,,,,,,,,,2,,,85,0
216480,note_on,0,0,2,,,,,,,,,2,,,81,93
216480,note_on,0,0,1,,,,,,,,,1,,,85,93
216480,note_off,120,0,1,,,,,,,,,1,,,86,0
216480,note_off,120,0,2,,,,,,,,,2,,,83,0
216480,note_on,0,0,2,,,,,,,,,2,,,76,100
216672,note_off,192,0,1,,,,,,,,,1,,,85,0
216672,note_off,192,0,2,,,,,,,,,2,,,81,0
216720,note_on,48,0,2,,,,,,,,,2,,,74,100
216720,note_on,48,0,1,,,,,,,,,1,,,83,100
217080,note_off,360,0,2,,,,,,,,,2,,,74,0
217080,note_on,0,0,2,,,,,,,,,2,,,73,83
217080,note_off,360,0,1,,,,,,,,,1,,,83,0
217080,note_on,0,0,1,,,,,,,,,1,,,81,83
217145,note_off,65,0,2,,,,,,,,,2,,,76,0
217200,note_on,0,0,2,,,,,,,,,2,,,71,81
217200,note_on,0,0,1,,,,,,,,,1,,,80,81
217200,note_off,120,0,1,,,,,,,,,1,,,81,0
217200,note_off,55,0,2,,,,,,,,,2,,,73,0
217392,note_off,192,0,1,,,,,,,,,1,,,80,0
217392,note_off,192,0,2,,,,,,,,,2,,,71,0
217440,note_on,48,0,2,,,,,,,,,2,,,73,90
217440,note_on,48,0,1,,,,,,,,,1,,,76,90
217800,note_off,360,0,2,,,,,,,,,2,,,73,0
217800,note_on,0,0,2,,,,,,,,,2,,,71,77
217800,note_on,0,0,1,,,,,,,,,1,,,74,77
217800,note_off,360,0,1,,,,,,,,,1,,,76,0
217920,note_on,0,0,2,,,,,,,,,2,,,69,76
217920,note_on,0,0,2,,,,,,,,,2,,,64,82
217920,note_off,120,0,2,,,,,,,,,2,,,71,0
217920,note_on,0,0,1,,,,,,,,,1,,,73,76
217920,note_off,120,0,1,,,,,,,,,1,,,74,0
218112,note_off,192,0,1,,,,,,,,,1,,,73,0
218112,note_off,192,0,2,,,,,,,,,2,,,69,0
218160,note_on,48,0,1,,,,,,,,,1,,,71,82
218160,note_on,48,0,2,,,,,,,,,2,,,62,82
218520,note_on,0,0,1,,,,,,,,,1,,,69,69
218520,note_on,0,0,2,,,,,,,,,2,,,61,69
218520,note_off,360,0,2,,,,,,,,,2,,,62,0
218520,note_off,360,0,1,,,,,,,,,1,,,71,0
218585,note_off,65,0,2,,,,,,,,,2,,,64,0
218640,note_off,120,0,1,,,,,,,,,1,,,69,0
218640,note_on,0,0,1,,,,,,,,,1,,,68,68
218640,note_off,55,0,2,,,,,,,,,2,,,61,0
218640,note_on,0,0,2,,,,,,,,,2,,,59,68
218760,set_tempo,2760,1,0,,,,,,500000,,,,,,,
218832,note_off,192,0,1,,,,,,,,,1,,,68,0
218832,note_off,192,0,2,,,,,,,,,2,,,59,0
218880,note_on,48,0,2,,,,,,,,,2,,,61,77
218880,set_tempo,120,1,0,,,,,,495867,,,,,,,
218880,note_on,48,0,1,,,,,,,,,1,,,64,77
218880,note_off,2880,0,5,,,,,,,,,5,,,52,0
219240,note_off,360,0,1,,,,,,,,,1,,,64,0
219240,note_on,0,0,1,,,,,,,,,1,,,62,62
219240,note_off,360,0,2,,,,,,,,,2,,,61,0
219240,note_on,0,0,2,,,,,,,,,2,,,59,62
219360,note_off,120,0,1,,,,,,,,,1,,,62,0
219360,note_off,120,0,2,,,,,,,,,2,,,59,0
219360,note_on,0,0,2,,,,,,,,,2,,,52,70
219360,note_on,0,0,2,,,,,,,,,2,,,57,60
219360,note_on,0,0,1,,,,,,,,,1,,,61,60
219552,note_off,192,0,2,,,,,,,,,2,,,57,0
219552,note_off,192,0,1,,,,,,,,,1,,,61,0
219600,note_on,48,0,1,,,,,,,,,1,,,59,70
219600,note_on,48,0,2,,,,,,,,,2,,,50,70
219960,note_on,0,0,2,,,,,,,,,2,,,49,54
219960,note_off,360,0,1,,,,,,,,,1,,,59,0
219960,note_on,0,0,1,,,,,,,,,1,,,57,54
219960,note_off,360,0,2,,,,,,,,,2,,,50,0
220025,note_off,65,0,2,,,,,,,,,2,,,52,0
220080,note_on,0,0,2,,,,,,,,,2,,,47,53
220080,note_off,120,0,1,,,,,,,,,1,,,57,0
220080,note_off,55,0,2,,,,,,,,,2,,,49,0
220080,note_on,0,0,1,,,,,,,,,1,,,56,53
220272,note_off,192,0,2,,,,,,,,,2,,,47,0
220272,note_off,192,0,1,,,,,,,,,1,,,56,0
220320,note_on,48,0,2,,,,,,,,,2,,,49,61
220320,note_on,48,0,1,,,,,,,,,1,,,52,61
220320,note_off,1440,0,5,,,,,,,,,5,,,40,0
220680,note_on,0,0,1,,,,,,,,,1,,,50,46
220680,note_off,360,0,1,,,,,,,,,1,,,52,0
220680,note_on,0,0,2,,,,,,,,,2,,,47,46
220680,note_off,360,0,2,,,,,,,,,2,,,49,0
220800,note_off,120,0,2,,,,,,,,,2,,,47,0
220800,note_on,0,0,2,,,,,,,,,2,,,40,51
220800,note_off,120,0,1,,,,,,,,,1,,,50,0
220800,note_on,0,0,1,,,,,,,,,1,,,49,45
220800,note_on,0,0,2,,,,,,,,,2,,,45,45
220992,note_off,192,0,2,,,,,,,,,2,,,45,0
220992,note_off,192,0,1,,,,,,,,,1,,,49,0
221040,note_on,48,0,2,,,,,,,,,2,,,38,51
221040,note_on,48,0,1,,,,,,,,,1,,,47,51
221400,note_off,360,0,1,,,,,,,,,1,,,47,0
221400,note_on,0,0,1,,,,,,,,,1,,,45,39
221400,note_off,360,0,2,,,,,,,,,2,,,38,0
221400,note_on,0,0,2,,,,,,,,,2,,,37,39
221455,note_off,55,0,2,,,,,,,,,2,,,40,0
221460,set_tempo,2580,1,0,,,,,,500000,,,,,,,
221520,note_off,120,0,1,,,,,,,,,1,,,45,0
221520,note_off,65,0,2,,,,,,,,,2,,,37,0
221520,note_on,0,0,2,,,,,,,,,2,,,35,38
221520,set_tempo,60,1,0,,,,,,517241,,,,,,,
221520,note_on,0,0,1,,,,,,,,,1,,,44,38
221712,note_off,192,0,1,,,,,,,,,1,,,44,0
221712,note_off,192,0,2,,,,,,,,,2,,,35,0
221760,control_change,1440,0,5,,,,,,,64,0,5,,,,
223200,note_on,1488,0,1,,,,,,,,,1,,,81,60
223200,note_on,7920,0,3,,,,,,,,,3,,,57,60
223200,set_tempo,1680,1,0,,,,,,495867,,,,,,,
223200,note_on,1440,0,5,,,,,,,,,5,,,61,60
223200,note_on,1488,0,2,,,,,,,,,2,,,69,60
223392,note_off,192,0,3,,,,,,,,,3,,,57,0
223440,note_on,48,0,3,,,,,,,,,3,,,57,53
223632,note_off,192,0,3,,,,,,,,,3,,,57,0
223680,note_off,480,0,5,,,,,,,,,5,,,61,0
223680,note_on,0,0,5,,,,,,,,,5,,,64,52
223680,note_on,48,0,3,,,,,,,,,3,,,57,52
223872,note_off,192,0,3,,,,,,,,,3,,,57,0
223920,note_on,0,0,2,,,,,,,,,2,,,73,51
223920,note_off,720,0,2,,,,,,,,,2,,,69,0
223920,note_on,0,0,1,,,,,,,,,1,,,85,51
223920,note_off,240,0,5,,,,,,,,,5,,,64,0
223920,note_on,0,0,5,,,,,,,,,5,,,65,51
223920,note_on,48,0,3,,,,,,,,,3,,,57,51
223920,note_off,720,0,1,,,,,,,,,1,,,81,0
224112,note_off,192,0,3,,,,,,,,,3,,,57,0
224160,note_on,48,0,3,,,,,,,,,3,,,57,50
224352,note_off,192,0,3,,,,,,,,,3,,,57,0
224400,note_on,0,0,5,,,,,,,,,5,,,64,49
224400,note_off,480,0,5,,,,,,,,,5,,,65,0
224400,note_on,48,0,3,,,,,,,,,3,,,57,49
224575,note_off,655,0,1,,,,,,,,,1,,,85,0
224585,note_off,185,0,5,,,,,,,,,5,,,64,0
224585,note_off,665,0,2,,,,,,,,,2,,,73,0
224592,note_off,192,0,3,,,,,,,,,3,,,57,0
224640,note_on,55,0,2,,,,,,,,,2,,,71,48
224640,note_on,48,0,3,,,,,,,,,3,,,57,48
224640,note_on,55,0,5,,,,,,,,,5,,,62,48
224640,note_on,65,0,1,,,,,,,,,1,,,83,48
224640,note_on,8705,0,4,,,,,,,,,4,,,68,48
224832,note_off,192,0,3,,,,,,,,,3,,,57,0
224880,note_on,48,0,3,,,,,,,,,3,,,57,47
225072,note_off,192,0,3,,,,,,,,,3,,,57,0
225120,note_on,48,0,3,,,,,,,,,3,,,57,46
225120,note_on,0,0,5,,,,,,,,,5,,,65,46
225120,note_off,480,0,5,,,,,,,,,5,,,62,0
225312,note_off,192,0,3,,,,,,,,,3,,,57,0
225360,note_on,48,0,3,,,,,,,,,3,,,57,46
225360,note_on,0,0,2,,,,,,,,,2,,,76,46
225360,note_off,720,0,2,,,,,,,,,2,,,71,0
225360,note_on,0,0,5,,,,,,,,,5,,,64,46
225360,note_off,240,0,5,,,,,,,,,5,,,65,0
225360,note_on,0,0,1,,,,,,,,,1,,,88,46
225360,note_off,720,0,1,,,,,,,,,1,,,83,0
225552,note_off,192,0,3,,,,,,,,,3,,,57,0
225600,note_on,48,0,3,,,,,,,,,3,,,57,45
225792,note_off,192,0,3,,,,,,,,,3,,,57,0
225840,note_off,480,0,5,,,,,,,,,5,,,64,0
225840,note_on,0,0,5,,,,,,,,,5,,,62,44
225840,note_on,48,0,3,,,,,,,,,3,,,57,44
225960,set_tempo,2760,1,0,,,,,,500000,,,,,,,
226015,note_off,655,0,2,,,,,,,,,2,,,76,0
226020,note_off,1380,0,4,,,,,,,,,4,,,68,0
226025,note_off,185,0,5,,,,,,,,,5,,,62,0
226030,note_off,670,0,1,,,,,,,,,1,,,88,0
226032,note_off,192,0,3,,,,,,,,,3,,,57,0
226080,note_on,65,0,2,,,,,,,,,2,,,69,52
226080,note_on,50,0,1,,,,,,,,,1,,,81,52
226080,set_tempo,120,1,0,,,,,,495867,,,,,,,
226080,note_on,55,0,5,,,,,,,,,5,,,61,52
226080,note_on,48,0,3,,,,,,,,,3,,,57,52
226272,note_off,192,0,3,,,,,,,,,3,,,57,0
226320,note_on,48,0,3,,,,,,,,,3,,,57,45
226512,note_off,192,0,3,,,,,,,,,3,,,57,0
226560,note_off,480,0,5,,,,,,,,,5,,,61,0
226560,note_on,0,0,5,,,,,,,,,5,,,64,44
226560,note_on,48,0,3,,,,,,,,,3,,,57,44
226752,note_off,192,0,3,,,,,,,,,3,,,57,0
226800,note_on,48,0,3,,,,,,,,,3,,,57,43
226800,note_off,240,0,5,,,,,,,,,5,,,64,0
226800,note_on,0,0,5,,,,,,,,,5,,,65,43
226800,note_off,720,0,2,,,,,,,,,2,,,69,0
226800,note_on,0,0,1,,,,,,,,,1,,,85,43
226800,note_on,0,0,2,,,,,,,,,2,,,73,43
226800,note_off,720,0,1,,,,,,,,,1,,,81,0
226992,note_off,192,0,3,,,,,,,,,3,,,57,0
227040,note_on,48,0,3,,,,,,,,,3,,,57,43
227232,note_off,192,0,3,,,,,,,,,3,,,57,0
227280,note_off,480,0,5,,,,,,,,,5,,,65,0
227280,note_on,0,0,5,,,,,,,,,5,,,64,42
227280,note_on,48,0,3,,,,,,,,,3,,,57,42
227450,note_off,650,0,2,,,,,,,,,2,,,73,0
227455,note_off,175,0,5,,,,,,,,,5,,,64,0
227460,note_off,660,0,1,,,,,,,,,1,,,85,0
227472,note_off,192,0,3,,,,,,,,,3,,,57,0
227520,note_on,70,0,2,,,,,,,,,2,,,71,41
227520,note_on,65,0,5,,,,,,,,,5,,,62,41
227520,note_on,0,0,5,,,,,,,,,5,,,68,41
227520,note_on,60,0,1,,,,,,,,,1,,,83,41
227520,note_on,48,0,3,,,,,,,,,3,,,57,41
227712,note_off,192,0,3,,,,,,,,,3,,,57,0
227760,note_on,48,0,3,,,,,,,,,3,,,57,40
227952,note_off,192,0,3,,,,,,,,,3,,,57,0
228000,note_off,480,0,5,,,,,,,,,5,,,62,0
228000,note_on,48,0,3,,,,,,,,,3,,,57,39
228000,note_on,0,0,5,,,,,,,,,5,,,65,39
228192,note_off,192,0,3,,,,,,,,,3,,,57,0
228240,note_on,48,0,3,,,,,,,,,3,,,57,38
228240,note_on,0,0,1,,,,,,,,,1,,,88,38
228240,note_off,720,0,1,,,,,,,,,1,,,83,0
228240,note_off,720,0,2,,,,,,,,,2,,,71,0
228240,note_on,0,0,2,,,,,,,,,2,,,76,38
228240,note_off,240,0,5,,,,,,,,,5,,,65,0
228240,note_on,0,0,5,,,,,,,,,5,,,64,38
228432,note_off,192,0,3,,,,,,,,,3,,,57,0
228480,note_on,48,0,3,,,,,,,,,3,,,57,37
228672,note_off,192,0,3,,,,,,,,,3,,,57,0
228720,note_on,48,0,3,,,,,,,,,3,,,57,37
228720,note_on,0,0,5,,,,,,,,,5,,,62,37
228720,note_off,480,0,5,,,,,,,,,5,,,64,0
228840,set_tempo,2760,1,0,,,,,,500000,,,,,,,
228895,note_off,655,0,2,,,,,,,,,2,,,76,0
228900,note_off,180,0,5,,,,,,,,,5,,,68,0
228905,note_off,5,0,5,,,,,,,,,5,,,62,0
228910,note_off,670,0,1,,,,,,,,,1,,,88,0
228912,note_off,192,0,3,,,,,,,,,3,,,57,0
228960,set_tempo,120,1,0,,,,,,495867,,,,,,,
228960,note_on,55,0,5,,,,,,,,,5,,,61,36
228960,note_on,48,0,3,,,,,,,,,3,,,57,36
228960,note_on,50,0,1,,,,,,,,,1,,,81,36
228960,note_on,0,0,5,,,,,,,,,5,,,69,36
229152,note_off,192,0,1,,,,,,,,,1,,,81,0
229152,note_off,0,0,5,,,,,,,,,5,,,61,0
229152,note_off,192,0,5,,,,,,,,,5,,,69,0
229152,note_off,192,0,3,,,,,,,,,3,,,57,0
229200,note_on,48,0,1,,,,,,,,,1,,,80,61
229200,note_on,48,0,5,,,,,,,,,5,,,68,61
229440,note_off,240,0,5,,,,,,,,,5,,,68,0
229440,note_on,0,0,1,,,,,,,,,1,,,81,47
229440,note_off,240,0,1,,,,,,,,,1,,,80,0
229440,note_on,0,0,5,,,,,,,,,5,,,69,47
229680,note_off,240,0,1,,,,,,,,,1,,,81,0
229680,note_on,0,0,1,,,,,,,,,1,,,76,44
229680,note_off,240,0,5,,,,,,,,,5,,,69,0
229680,note_on,0,0,5,,,,,,,,,5,,,64,44
229920,note_on,0,0,1,,,,,,,,,1,,,73,40
229920,note_off,240,0,5,,,,,,,,,5,,,64,0
229920,note_on,0,0,5,,,,,,,,,5,,,61,40
229920,note_off,240,0,1,,,,,,,,,1,,,76,0
230160,note_on,0,0,5,,,,,,,,,5,,,57,37
230160,note_on,0,0,1,,,,,,,,,1,,,69,37
230160,note_off,240,0,1,,,,,,,,,1,,,73,0
230160,note_off,240,0,5,,,,,,,,,5,,,61,0
230280,set_tempo,1320,1,0,,,,,,535714,,,,,,,
230352,note_off,192,0,5,,,,,,,,,5,,,57,0
230352,note_off,192,0,1,,,,,,,,,1,,,69,0
230400,set_tempo,120,1,0,,,,,,495867,,,,,,,
230400,note_on,0,0,2,,,,,,,,,2,,,66,42
230400,note_on,48,0,1,,,,,,,,,1,,,72,42
230400,note_on,48,0,5,,,,,,,,,5,,,50,42
230400,note_on,1505,0,2,,,,,,,,,2,,,69,42
230400,note_on,0,0,4,,,,,,,,,4,,,60,42
230400,note_on,4380,0,4,,,,,,,,,4,,,57,42
230520,note_off,120,0,4,,,,,,,,,4,,,60,0
230520,note_off,120,0,1,,,,,,,,,1,,,72,0
230520,note_on,0,0,1,,,,,,,,,1,,,71,43
230520,note_on,0,0,5,,,,,,,,,5,,,51,43
230520,note_off,120,0,5,,,,,,,,,5,,,50,0
230520,note_on,0,0,4,,,,,,,,,4,,,59,43
230592,note_off,0,0,2,,,,,,,,,2,,,69,0
230592,note_off,192,0,2,,,,,,,,,2,,,66,0
230592,note_off,72,0,4,,,,,,,,,4,,,57,0
230616,note_off,24,0,4,,,,,,,,,4,,,59,0
230616,note_off,96,0,1,,,,,,,,,1,,,71,0
230616,note_off,96,0,5,,,,,,,,,5,,,51,0
230640,note_on,24,0,4,,,,,,,,,4,,,59,55
230640,note_on,0,0,4,,,,,,,,,4,,,57,55
230640,note_on,24,0,1,,,,,,,,,1,,,71,55
230640,note_on,24,0,5,,,,,,,,,5,,,51,55
230640,note_on,0,0,2,,,,,,,,,2,,,66,55
230640,note_on,48,0,2,,,,,,,,,2,,,69,55
231000,note_off,0,0,2,,,,,,,,,2,,,69,0
231000,note_off,360,0,5,,,,,,,,,5,,,51,0
231000,note_off,360,0,4,,,,,,,,,4,,,57,0
231000,note_off,0,0,4,,,,,,,,,4,,,59,0
231000,note_off,360,0,2,,,,,,,,,2,,,66,0
231000,note_off,360,0,1,,,,,,,,,1,,,71,0
231120,note_on,120,0,4,,,,,,,,,4,,,60,47
231120,note_on,120,0,5,,,,,,,,,5,,,50,47
231120,note_on,0,0,4,,,,,,,,,4,,,57,47
231120,note_on,120,0,1,,,,,,,,,1,,,72,47
231120,note_on,120,0,2,,,,,,,,,2,,,66,47
231120,note_on,0,0,2,,,,,,,,,2,,,69,47
231240,note_on,0,0,5,,,,,,,,,5,,,51,48
231240,note_off,120,0,1,,,,,,,,,1,,,72,0
231240,note_off,120,0,4,,,,,,,,,4,,,60,0
231240,note_on,0,0,1,,,,,,,,,1,,,71,48
231240,note_off,120,0,5,,,,,,,,,5,,,50,0
231240,note_on,0,0,4,,,,,,,,,4,,,59,48
231312,note_off,192,0,2,,,,,,,,,2,,,69,0
231312,note_off,0,0,2,,,,,,,,,2,,,66,0
231312,note_off,72,0,4,,,,,,,,,4,,,57,0
231336,note_off,24,0,4,,,,,,,,,4,,,59,0
231336,note_off,96,0,1,,,,,,,,,1,,,71,0
231336,note_off,96,0,5,,,,,,,,,5,,,51,0
231360,note_on,24,0,1,,,,,,,,,1,,,71,60
231360,note_on,0,0,2,,,,,,,,,2,,,69,60
231360,note_on,48,0,2,,,,,,,,,2,,,66,60
231360,note_on,24,0,5,,,,,,,,,5,,,51,60
231360,note_on,0,0,4,,,,,,,,,4,,,59,60
231360,note_on,24,0,4,,,,,,,,,4,,,57,60
231720,note_off,360,0,1,,,,,,,,,1,,,71,0
231720,note_off,0,0,4,,,,,,,,,4,,,57,0
231720,note_off,360,0,5,,,,,,,,,5,,,51,0
231720,note_off,360,0,4,,,,,,,,,4,,,59,0
231720,note_off,360,0,2,,,,,,,,,2,,,69,0
231720,note_off,0,0,2,,,,,,,,,2,,,66,0
231840,note_on,0,0,4,,,,,,,,,4,,,61,53
231840,note_on,120,0,4,,,,,,,,,4,,,57,53
231840,note_on,120,0,5,,,,,,,,,5,,,52,53
231840,note_on,120,0,1,,,,,,,,,1,,,74,53
231840,note_on,0,0,2,,,,,,,,,2,,,67,53
231840,note_on,120,0,2,,,,,,,,,2,,,69,53
231960,note_on,0,0,1,,,,,,,,,1,,,73,54
231960,note_off,120,0,1,,,,,,,,,1,,,74,0
232032,note_off,0,0,4,,,,,,,,,4,,,57,0
232032,note_off,0,0,2,,,,,,,,,2,,,69,0
232032,note_off,192,0,4,,,,,,,,,4,,,61,0
232032,note_off,192,0,5,,,,,,,,,5,,,52,0
232032,note_off,192,0,2,,,,,,,,,2,,,67,0
232056,note_off,96,0,1,,,,,,,,,1,,,73,0
232080,note_on,24,0,1,,,,,,,,,1,,,73,70
232080,note_on,0,0,4,,,,,,,,,4,,,61,70
232080,note_on,0,0,2,,,,,,,,,2,,,67,70
232080,note_on,48,0,2,,,,,,,,,2,,,69,70
232080,note_on,48,0,5,,,,,,,,,5,,,52,70
232080,note_on,48,0,4,,,,,,,,,4,,,57,70
232440,note_off,360,0,2,,,,,,,,,2,,,67,0
232440,note_off,0,0,4,,,,,,,,,4,,,57,0
232440,note_off,360,0,4,,,,,,,,,4,,,61,0
232440,note_off,0,0,2,,,,,,,,,2,,,69,0
232440,note_off,360,0,5,,,,,,,,,5,,,52,0
232440,note_off,360,0,1,,,,,,,,,1,,,73,0
232560,note_on,120,0,1,,,,,,,,,1,,,74,59
232560,note_on,120,0,5,,,,,,,,,5,,,54,59
232560,note_on,120,0,4,,,,,,,,,4,,,57,59
232560,note_on,0,0,2,,,,,,,,,2,,,62,59
232560,note_on,120,0,2,,,,,,,,,2,,,69,59
232675,note_off,115,0,1,,,,,,,,,1,,,74,0
232680,note_on,5,0,1,,,,,,,,,1,,,76,62
232740,note_off,60,0,1,,,,,,,,,1,,,76,0
232740,note_on,0,0,1,,,,,,,,,1,,,74,63
232800,note_off,60,0,1,,,,,,,,,1,,,74,0
232800,note_on,0,0,1,,,,,,,,,1,,,73,64
232860,note_off,60,0,1,,,,,,,,,1,,,73,0
232860,note_on,0,0,1,,,,,,,,,1,,,74,66
232920,note_off,360,0,5,,,,,,,,,5,,,54,0
232920,note_on,0,0,1,,,,,,,,,1,,,76,67
232920,note_off,60,0,1,,,,,,,,,1,,,74,0
232920,note_on,0,0,5,,,,,,,,,5,,,52,67
233040,note_off,120,0,1,,,,,,,,,1,,,76,0
233040,note_off,120,0,5,,,,,,,,,5,,,52,0
233040,note_on,0,0,5,,,,,,,,,5,,,50,79
233040,note_on,0,0,1,,,,,,,,,1,,,78,79
233160,set_tempo,2760,1,0,,,,,,500000,,,,,,,
233220,note_off,660,0,2,,,,,,,,,2,,,69,0
233220,note_off,660,0,4,,,,,,,,,4,,,57,0
233225,note_off,5,0,2,,,,,,,,,2,,,62,0
233232,note_off,192,0,1,,,,,,,,,1,,,78,0
233232,note_off,192,0,5,,,,,,,,,5,,,50,0
233280,note_on,48,0,5,,,,,,,,,5,,,52,70
233280,note_on,0,0,2,,,,,,,,,2,,,69,70
233280,note_on,55,0,2,,,,,,,,,2,,,67,70
233280,note_on,60,0,4,,,,,,,,,4,,,61,70
233280,set_tempo,120,1,0,,,,,,495867,,,,,,,
233280,note_on,0,0,4,,,,,,,,,4,,,57,70
233280,note_on,48,0,1,,,,,,,,,1,,,74,70
233400,note_on,0,0,1,,,,,,,,,1,,,73,72
233400,note_off,120,0,1,,,,,,,,,1,,,74,0
233472,note_off,192,0,4,,,,,,,,,4,,,57,0
233472,note_off,192,0,5,,,,,,,,,5,,,52,0
233472,note_off,0,0,2,,,,,,,,,2,,,67,0
233472,note_off,0,0,4,,,,,,,,,4,,,61,0
233472,note_off,192,0,2,,,,,,,,,2,,,69,0
233496,note_off,96,0,1,,,,,,,,,1,,,73,0
233520,note_on,0,0,4,,,,,,,,,4,,,57,82
233520,note_on,0,0,2,,,,,,,,,2,,,69,82
233520,note_on,48,0,5,,,,,,,,,5,,,52,82
233520,note_on,48,0,2,,,,,,,,,2,,,67,82
233520,note_on,24,0,1,,,,,,,,,1,,,73,82
233520,note_on,48,0,4,,,,,,,,,4,,,61,82
233880,note_off,360,0,2,,,,,,,,,2,,,69,0
233880,note_off,360,0,5,,,,,,,,,5,,,52,0
233880,note_off,360,0,1,,,,,,,,,1,,,73,0
233880,note_off,0,0,2,,,,,,,,,2,,,67,0
233880,note_off,0,0,4,,,,,,,,,4,,,61,0
233880,note_off,360,0,4,,,,,,,,,4,,,57,0
234000,note_on,120,0,1,,,,,,,,,1,,,74,78
234000,note_on,120,0,4,,,,,,,,,4,,,57,78
234000,note_on,120,0,5,,,,,,,,,5,,,54,78
234000,note_on,120,0,2,,,,,,,,,2,,,69,78
234000,note_on,0,0,2,,,,,,,,,2,,,62,78
234115,note_off,115,0,1,,,,,,,,,1,,,74,0
234120,note_on,5,0,1,,,,,,,,,1,,,76,81
234180,note_off,60,0,1,,,,,,,,,1,,,76,0
234180,note_on,0,0,1,,,,,,,,,1,,,74,82
234240,note_off,60,0,1,,,,,,,,,1,,,74,0
234240,note_on,0,0,1,,,,,,,,,1,,,73,84
234300,note_on,0,0,1,,,,,,,,,1,,,74,85
234300,note_off,60,0,1,,,,,,,,,1,,,73,0
234360,note_on,0,0,5,,,,,,,,,5,,,52,87
234360,note_off,360,0,5,,,,,,,,,5,,,54,0
234360,note_off,60,0,1,,,,,,,,,1,,,74,0
234360,note_on,0,0,1,,,,,,,,,1,,,76,87
234480,note_on,0,0,1,,,,,,,,,1,,,78,93
234480,note_off,120,0,5,,,,,,,,,5,,,52,0
234480,note_on,0,0,5,,,,,,,,,5,,,50,93
234480,set_tempo,1200,1,0,,,,,,500000,,,,,,,
234480,note_off,120,0,1,,,,,,,,,1,,,76,0
234660,note_on,180,0,5,,,,,,,,,5,,,78,105
234660,note_on,0,0,1,,,,,,,,,1,,,90,105
234660,note_off,180,0,1,,,,,,,,,1,,,78,0
234660,note_off,660,0,2,,,,,,,,,2,,,62,0
234665,note_off,5,0,2,,,,,,,,,2,,,69,0
234665,note_off,665,0,4,,,,,,,,,4,,,57,0
234672,note_off,12,0,5,,,,,,,,,5,,,50,0
234720,set_tempo,240,1,0,,,,,,495867,,,,,,,
234720,note_on,0,0,5,,,,,,,,,5,,,81,113
234720,note_off,48,0,5,,,,,,,,,5,,,78,0
234720,note_off,60,0,1,,,,,,,,,1,,,90,0
234720,note_on,0,0,1,,,,,,,,,1,,,93,113
235680,note_on,0,0,5,,,,,,,,,5,,,78,58
235680,note_off,960,0,5,,,,,,,,,5,,,81,0
235680,note_off,960,0,1,,,,,,,,,1,,,93,0
235680,note_on,0,0,1,,,,,,,,,1,,,90,58
235920,note_on,0,0,5,,,,,,,,,5,,,74,56
235920,note_off,240,0,5,,,,,,,,,5,,,78,0
235920,note_off,240,0,1,,,,,,,,,1,,,90,0
235920,note_on,0,0,1,,,,,,,,,1,,,86,56
236160,note_on,0,0,1,,,,,,,,,1,,,81,54
236160,note_off,240,0,1,,,,,,,,,1,,,86,0
236160,note_on,0,0,5,,,,,,,,,5,,,69,54
236160,note_off,240,0,5,,,,,,,,,5,,,74,0
236400,note_off,240,0,1,,,,,,,,,1,,,81,0
236400,note_on,0,0,5,,,,,,,,,5,,,66,52
236400,note_off,240,0,5,,,,,,,,,5,,,69,0
236400,note_on,0,0,1,,,,,,,,,1,,,78,52
236640,note_on,0,0,5,,,,,,,,,5,,,62,50
236640,note_on,0,0,1,,,,,,,,,1,,,74,50
236640,note_off,240,0,1,,,,,,,,,1,,,78,0
236640,note_off,240,0,5,,,,,,,,,5,,,66,0
236880,note_off,240,0,5,,,,,,,,,5,,,62,0
236880,note_on,0,0,5,,,,,,,,,5,,,59,47
236880,note_off,240,0,1,,,,,,,,,1,,,74,0
236880,note_on,0,0,1,,,,,,,,,1,,,71,47
237120,note_off,240,0,1,,,,,,,,,1,,,71,0
237120,note_on,0,0,1,,,,,,,,,1,,,77,45
237120,note_off,240,0,5,,,,,,,,,5,,,59,0
237120,note_on,0,0,5,,,,,,,,,5,,,65,45
237360,set_tempo,2640,1,0,,,,,,500000,,,,,,,
237360,note_off,240,0,1,,,,,,,,,1,,,77,0
237360,note_on,0,0,1,,,,,,,,,1,,,78,43
237360,note_on,0,0,5,,,,,,,,,5,,,66,43
237360,note_off,240,0,5,,,,,,,,,5,,,65,0
237540,note_on,180,0,1,,,,,,,,,1,,,71,42
237552,note_off,192,0,5,,,,,,,,,5,,,66,0
237552,note_off,12,0,1,,,,,,,,,1,,,78,0
237600,note_on,2935,0,2,,,,,,,,,2,,,64,43
237600,note_on,2935,0,4,,,,,,,,,4,,,61,43
237600,note_off,48,0,1,,,,,,,,,1,,,71,0
237600,note_on,48,0,5,,,,,,,,,5,,,52,43
237600,note_on,0,0,1,,,,,,,,,1,,,69,43
237960,note_off,360,0,1,,,,,,,,,1,,,69,0
237960,note_on,0,0,1,,,,,,,,,1,,,68,42
238080,note_on,0,0,1,,,,,,,,,1,,,69,41
238080,note_off,120,0,1,,,,,,,,,1,,,68,0
238320,note_on,0,0,4,,,,,,,,,4,,,62,45
238320,note_off,720,0,4,,,,,,,,,4,,,61,0
238320,note_on,0,0,1,,,,,,,,,1,,,73,45
238320,note_off,240,0,1,,,,,,,,,1,,,69,0
238320,note_on,0,0,2,,,,,,,,,2,,,68,45
238320,note_off,720,0,2,,,,,,,,,2,,,64,0
238800,note_off,480,0,1,,,,,,,,,1,,,73,0
238800,set_tempo,1440,1,0,,,,,,535714,,,,,,,
238800,note_on,0,0,1,,,,,,,,,1,,,71,38
238980,note_off,660,0,4,,,,,,,,,4,,,62,0
238985,note_off,1385,0,5,,,,,,,,,5,,,52,0
238990,note_off,670,0,2,,,,,,,,,2,,,68,0
238992,note_off,192,0,1,,,,,,,,,1,,,71,0
239040,note_on,55,0,5,,,,,,,,,5,,,61,51
239040,note_on,48,0,1,,,,,,,,,1,,,69,51
239040,set_tempo,240,1,0,,,,,,495867,,,,,,,
239040,note_on,9888,0,3,,,,,,,,,3,,,57,51
239160,note_on,120,0,1,,,,,,,,,1,,,81,41
239232,note_off,192,0,3,,,,,,,,,3,,,57,0
239275,note_off,115,0,1,,,,,,,,,1,,,69,0
239280,note_off,5,0,1,,,,,,,,,1,,,81,0
239280,note_on,0,0,1,,,,,,,,,1,,,81,41
239280,note_on,48,0,3,,,,,,,,,3,,,57,41
239280,note_on,290,0,2,,,,,,,,,2,,,69,41
239472,note_off,192,0,3,,,,,,,,,3,,,57,0
239520,note_off,480,0,5,,,,,,,,,5,,,61,0
239520,note_on,0,0,5,,,,,,,,,5,,,64,41
239520,note_on,48,0,3,,,,,,,,,3,,,57,41
239700,note_off,420,0,1,,,,,,,,,1,,,81,0
239700,note_off,420,0,2,,,,,,,,,2,,,69,0
239712,note_off,192,0,3,,,,,,,,,3,,,57,0
239760,note_off,240,0,5,,,,,,,,,5,,,64,0
239760,note_on,0,0,5,,,,,,,,,5,,,65,40
239760,note_on,60,0,1,,,,,,,,,1,,,73,40
239760,note_on,48,0,3,,,,,,,,,3,,,57,40
239880,note_on,0,0,1,,,,,,,,,1,,,85,40
239880,note_off,120,0,1,,,,,,,,,1,,,73,0
239952,note_off,192,0,3,,,,,,,,,3,,,57,0
240000,note_on,300,0,2,,,,,,,,,2,,,73,40
240000,note_on,0,0,1,,,,,,,,,1,,,85,40
240000,note_off,120,0,1,,,,,,,,,1,,,85,0
240000,note_on,48,0,3,,,,,,,,,3,,,57,40
240192,note_off,192,0,3,,,,,,,,,3,,,57,0
240240,note_off,480,0,5,,,,,,,,,5,,,65,0
240240,note_on,0,0,5,,,,,,,,,5,,,64,39
240240,note_on,48,0,3,,,,,,,,,3,,,57,39
240420,note_off,420,0,1,,,,,,,,,1,,,85,0
240425,note_off,425,0,2,,,,,,,,,2,,,73,0
240430,note_off,190,0,5,,,,,,,,,5,,,64,0
240432,note_off,192,0,3,,,,,,,,,3,,,57,0
240480,note_on,60,0,1,,,,,,,,,1,,,71,39
240480,note_on,48,0,3,,,,,,,,,3,,,57,39
240480,note_on,50,0,5,,,,,,,,,5,,,62,39
240480,note_on,1500,0,4,,,,,,,,,4,,,68,39
240600,note_off,120,0,1,,,,,,,,,1,,,71,0
240600,note_on,0,0,1,,,,,,,,,1,,,83,39
240672,note_off,192,0,3,,,,,,,,,3,,,57,0
240720,note_off,120,0,1,,,,,,,,,1,,,83,0
240720,note_on,0,0,1,,,,,,,,,1,,,83,38
240720,note_on,295,0,2,,,,,,,,,2,,,71,38
240720,note_on,48,0,3,,,,,,,,,3,,,57,38
240912,note_off,192,0,3,,,,,,,,,3,,,57,0
240960,note_on,48,0,3,,,,,,,,,3,,,57,38
240960,note_off,480,0,5,,,,,,,,,5,,,62,0
240960,note_on,0,0,5,,,,,,,,,5,,,65,38
241140,note_off,420,0,2,,,,,,,,,2,,,71,0
241145,note_off,425,0,1,,,,,,,,,1,,,83,0
241152,note_off,192,0,3,,,,,,,,,3,,,57,0
241200,note_on,55,0,1,,,,,,,,,1,,,76,38
241200,note_on,0,0,5,,,,,,,,,5,,,64,38
241200,note_on,48,0,3,,,,,,,,,3,,,57,38
241200,note_off,240,0,5,,,,,,,,,5,,,65,0
241320,note_off,120,0,1,,,,,,,,,1,,,76,0
241320,note_on,0,0,1,,,,,,,,,1,,,88,37
241392,note_off,192,0,3,,,,,,,,,3,,,57,0
241440,note_on,48,0,3,,,,,,,,,3,,,57,37
241440,note_on,300,0,2,,,,,,,,,2,,,76,37
241440,note_on,0,0,1,,,,,,,,,1,,,88,37
241440,note_off,120,0,1,,,,,,,,,1,,,88,0
241632,note_off,192,0,3,,,,,,,,,3,,,57,0
241680,note_on,0,0,5,,,,,,,,,5,,,62,37
241680,note_on,48,0,3,,,,,,,,,3,,,57,37
241680,note_off,480,0,5,,,,,,,,,5,,,64,0
241800,set_tempo,2760,1,0,,,,,,500000,,,,,,,
241855,note_off,415,0,2,,,,,,,,,2,,,76,0
241860,note_off,420,0,1,,,,,,,,,1,,,88,0
241860,note_off,1380,0,4,,,,,,,,,4,,,68,0
241865,note_off,185,0,5,,,,,,,,,5,,,62,0
241872,note_off,192,0,3,,,,,,,,,3,,,57,0
241920,note_on,48,0,3,,,,,,,,,3,,,57,46
241920,note_on,55,0,5,,,,,,,,,5,,,61,46
241920,set_tempo,120,1,0,,,,,,495867,,,,,,,
241920,note_on,60,0,1,,,,,,,,,1,,,69,46
242040,note_on,120,0,1,,,,,,,,,1,,,81,46
242112,note_off,192,0,3,,,,,,,,,3,,,57,0
242112,note_off,192,0,5,,,,,,,,,5,,,61,0
242112,note_off,72,0,1,,,,,,,,,1,,,69,0
242160,note_off,48,0,1,,,,,,,,,1,,,81,0
242160,note_on,0,0,1,,,,,,,,,1,,,81,36
242160,note_on,305,0,2,,,,,,,,,2,,,69,36
242160,note_on,48,0,3,,,,,,,,,3,,,57,36
242352,note_off,192,0,3,,,,,,,,,3,,,57,0
242400,note_on,288,0,5,,,,,,,,,5,,,64,36
242400,note_on,48,0,3,,,,,,,,,3,,,57,36
242580,note_off,420,0,1,,,,,,,,,1,,,81,0
242580,note_off,420,0,2,,,,,,,,,2,,,69,0
242592,note_off,192,0,3,,,,,,,,,3,,,57,0
242640,note_on,60,0,1,,,,,,,,,1,,,73,35
242640,note_on,0,0,5,,,,,,,,,5,,,65,35
242640,note_on,48,0,3,,,,,,,,,3,,,57,35
242640,note_off,240,0,5,,,,,,,,,5,,,64,0
242760,note_off,120,0,1,,,,,,,,,1,,,73,0
242760,note_on,0,0,1,,,,,,,,,1,,,85,35
242832,note_off,192,0,3,,,,,,,,,3,,,57,0
242880,note_on,300,0,2,,,,,,,,,2,,,73,35
242880,note_off,120,0,1,,,,,,,,,1,,,85,0
242880,note_on,48,0,3,,,,,,,,,3,,,57,35
242880,note_on,0,0,1,,,,,,,,,1,,,85,35
243072,note_off,192,0,3,,,,,,,,,3,,,57,0
243120,note_off,480,0,5,,,,,,,,,5,,,65,0
243120,note_on,48,0,3,,,,,,,,,3,,,57,34
243120,note_on,0,0,5,,,,,,,,,5,,,64,34
243300,note_off,420,0,1,,,,,,,,,1,,,85,0
243310,note_off,190,0,5,,,,,,,,,5,,,64,0
243312,note_off,192,0,3,,,,,,,,,3,,,57,0
243315,note_off,435,0,2,,,,,,,,,2,,,73,0
243360,note_on,50,0,5,,,,,,,,,5,,,62,34
243360,note_on,1500,0,4,,,,,,,,,4,,,68,34
243360,note_on,60,0,1,,,,,,,,,1,,,71,34
243360,note_on,48,0,3,,,,,,,,,3,,,57,34
243480,note_on,0,0,1,,,,,,,,,1,,,83,34
243480,note_off,120,0,1,,,,,,,,,1,,,71,0
243552,note_off,192,0,3,,,,,,,,,3,,,57,0
243600,note_on,0,0,1,,,,,,,,,1,,,83,34
243600,note_on,48,0,3,,,,,,,,,3,,,57,34
243600,note_off,120,0,1,,,,,,,,,1,,,83,0
243600,note_on,285,0,2,,,,,,,,,2,,,71,34
243792,note_off,192,0,3,,,,,,,,,3,,,57,0
243840,note_on,48,0,3,,,,,,,,,3,,,57,33
243840,note_off,480,0,5,,,,,,,,,5,,,62,0
243840,note_on,0,0,5,,,,,,,,,5,,,65,33
244020,note_off,420,0,2,,,,,,,,,2,,,71,0
244025,note_off,425,0,1,,,,,,,,,1,,,83,0
244032,note_off,192,0,3,,,,,,,,,3,,,57,0
244080,note_on,48,0,3,,,,,,,,,3,,,57,33
244080,note_off,240,0,5,,,,,,,,,5,,,65,0
244080,note_on,55,0,1,,,,,,,,,1,,,76,33
244080,note_on,0,0,5,,,,,,,,,5,,,64,33
244200,note_off,120,0,1,,,,,,,,,1,,,76,0
244200,note_on,0,0,1,,,,,,,,,1,,,88,33
244272,note_off,192,0,3,,,,,,,,,3,,,57,0
244320,note_on,300,0,2,,,,,,,,,2,,,76,32
244320,note_off,120,0,1,,,,,,,,,1,,,88,0
244320,note_on,0,0,1,,,,,,,,,1,,,88,32
244320,note_on,48,0,3,,,,,,,,,3,,,57,32
244512,note_off,192,0,3,,,,,,,,,3,,,57,0
244560,note_on,0,0,5,,,,,,,,,5,,,62,32
244560,note_off,480,0,5,,,,,,,,,5,,,64,0
244560,note_on,48,0,3,,,,,,,,,3,,,57,32
244680,set_tempo,2760,1,0,,,,,,500000,,,,,,,
244735,note_off,415,0,2,,,,,,,,,2,,,76,0
244740,note_off,420,0,1,,,,,,,,,1,,,88,0
244740,note_off,1380,0,4,,,,,,,,,4,,,68,0
244745,note_off,185,0,5,,,,,,,,,5,,,62,0
244752,note_off,192,0,3,,,,,,,,,3,,,57,0
244800,note_on,48,0,3,,,,,,,,,3,,,57,32
244800,note_on,60,0,1,,,,,,,,,1,,,81,32
244800,set_tempo,120,1,0,,,,,,495867,,,,,,,
244800,note_on,0,0,5,,,,,,,,,5,,,69,32
244800,note_on,55,0,5,,,,,,,,,5,,,61,32
244992,note_off,192,0,1,,,,,,,,,1,,,81,0
244992,note_off,0,0,5,,,,,,,,,5,,,61,0
244992,note_off,192,0,5,,,,,,,,,5,,,69,0
244992,note_off,192,0,3,,,,,,,,,3,,,57,0
245040,note_on,48,0,5,,,,,,,,,5,,,68,52
245040,note_on,48,0,1,,,,,,,,,1,,,80,52
245280,note_on,0,0,1,,,,,,,,,1,,,81,40
245280,note_off,240,0,1,,,,,,,,,1,,,80,0
245280,note_on,0,0,5,,,,,,,,,5,,,69,40
245280,note_off,240,0,5,,,,,,,,,5,,,68,0
245520,note_off,240,0,5,,,,,,,,,5,,,69,0
245520,note_on,0,0,5,,,,,,,,,5,,,64,36
245520,note_on,0,0,1,,,,,,,,,1,,,76,36
245520,note_off,240,0,1,,,,,,,,,1,,,81,0
245760,note_off,240,0,5,,,,,,,,,5,,,64,0
245760,note_on,0,0,1,,,,,,,,,1,,,73,33
245760,note_off,240,0,1,,,,,,,,,1,,,76,0
245760,note_on,0,0,5,,,,,,,,,5,,,61,33
246000,note_on,0,0,5,,,,,,,,,5,,,57,30
246000,note_off,240,0,5,,,,,,,,,5,,,61,0
246000,note_off,240,0,1,,,,,,,,,1,,,73,0
246000,note_on,0,0,1,,,,,,,,,1,,,69,30
246120,set_tempo,1320,1,0,,,,,,535714,,,,,,,
246192,note_off,192,0,5,,,,,,,,,5,,,57,0
246192,note_off,192,0,1,,,,,,,,,1,,,69,0
246240,note_on,48,0,5,,,,,,,,,5,,,50,32
246240,set_tempo,120,1,0,,,,,,495867,,,,,,,
246240,note_on,0,0,4,,,,,,,,,4,,,58,32
246240,note_on,1505,0,2,,,,,,,,,2,,,65,32
246240,note_on,1500,0,4,,,,,,,,,4,,,53,32
246240,note_on,48,0,1,,,,,,,,,1,,,72,32
246360,note_off,120,0,1,,,,,,,,,1,,,72,0
246360,note_on,0,0,1,,,,,,,,,1,,,71,33
246425,note_off,185,0,5,,,,,,,,,5,,,50,0
246432,note_off,192,0,2,,,,,,,,,2,,,65,0
246432,note_off,0,0,4,,,,,,,,,4,,,53,0
246432,note_off,192,0,4,,,,,,,,,4,,,58,0
246456,note_off,96,0,1,,,,,,,,,1,,,71,0
246480,note_on,55,0,5,,,,,,,,,5,,,50,43
246480,note_on,48,0,2,,,,,,,,,2,,,65,43
246480,note_on,0,0,4,,,,,,,,,4,,,58,43
246480,note_on,48,0,4,,,,,,,,,4,,,53,43
246480,note_on,24,0,1,,,,,,,,,1,,,71,43
246840,note_off,0,0,4,,,,,,,,,4,,,53,0
246840,note_off,360,0,4,,,,,,,,,4,,,58,0
246840,note_off,360,0,1,,,,,,,,,1,,,71,0
246840,note_off,360,0,5,,,,,,,,,5,,,50,0
246840,note_off,360,0,2,,,,,,,,,2,,,65,0
246960,note_on,120,0,2,,,,,,,,,2,,,65,39
246960,note_on,120,0,5,,,,,,,,,5,,,50,39
246960,note_on,0,0,4,,,,,,,,,4,,,58,39
246960,note_on,120,0,1,,,,,,,,,1,,,72,39
246960,note_on,120,0,4,,,,,,,,,4,,,53,39
247080,note_off,120,0,1,,,,,,,,,1,,,72,0
247080,note_on,0,0,1,,,,,,,,,1,,,71,41
247145,note_off,185,0,5,,,,,,,,,5,,,50,0
247152,note_off,0,0,4,,,,,,,,,4,,,53,0
247152,note_off,192,0,2,,,,,,,,,2,,,65,0
247152,note_off,192,0,4,,,,,,,,,4,,,58,0
247176,note_off,96,0,1,,,,,,,,,1,,,71,0
247200,note_on,0,0,4,,,,,,,,,4,,,58,50
247200,note_on,48,0,2,,,,,,,,,2,,,65,50
247200,note_on,48,0,4,,,,,,,,,4,,,53,50
247200,note_on,55,0,5,,,,,,,,,5,,,50,50
247200,note_on,24,0,1,,,,,,,,,1,,,71,50
247560,note_off,360,0,2,,,,,,,,,2,,,65,0
247560,note_off,0,0,4,,,,,,,,,4,,,53,0
247560,note_off,360,0,4,,,,,,,,,4,,,58,0
247560,note_off,360,0,1,,,,,,,,,1,,,71,0
247560,note_off,360,0,5,,,,,,,,,5,,,50,0
247680,note_on,120,0,5,,,,,,,,,5,,,52,47
247680,note_on,120,0,4,,,,,,,,,4,,,58,47
247680,note_on,0,0,4,,,,,,,,,4,,,61,47
247680,note_on,0,0,2,,,,,,,,,2,,,67,47
247680,note_on,120,0,2,,,,,,,,,2,,,70,47
247680,note_on,120,0,1,,,,,,,,,1,,,74,47
247800,note_on,0,0,1,,,,,,,,,1,,,73,48
247800,note_off,120,0,1,,,,,,,,,1,,,74,0
247865,note_off,185,0,5,,,,,,,,,5,,,52,0
247872,note_off,0,0,4,,,,,,,,,4,,,58,0
247872,note_off,192,0,2,,,,,,,,,2,,,67,0
247872,note_off,192,0,4,,,,,,,,,4,,,61,0
247872,note_off,0,0,2,,,,,,,,,2,,,70,0
247896,note_off,96,0,1,,,,,,,,,1,,,73,0
247920,note_on,48,0,2,,,,,,,,,2,,,70,58
247920,note_on,0,0,2,,,,,,,,,2,,,67,58
247920,note_on,0,0,4,,,,,,,,,4,,,61,58
247920,note_on,48,0,4,,,,,,,,,4,,,58,58
247920,note_on,24,0,1,,,,,,,,,1,,,73,58
247920,note_on,55,0,5,,,,,,,,,5,,,52,58
248280,note_off,360,0,5,,,,,,,,,5,,,52,0
248280,note_off,0,0,4,,,,,,,,,4,,,58,0
248280,note_off,360,0,4,,,,,,,,,4,,,61,0
248280,note_off,360,0,2,,,,,,,,,2,,,67,0
248280,note_off,360,0,1,,,,,,,,,1,,,73,0
248280,note_off,0,0,2,,,,,,,,,2,,,70,0
248400,note_on,120,0,5,,,,,,,,,5,,,52,54
248400,note_on,0,0,2,,,,,,,,,2,,,70,54
248400,note_on,120,0,4,,,,,,,,,4,,,61,54
248400,note_on,120,0,2,,,,,,,,,2,,,67,54
248400,note_on,0,0,4,,,,,,,,,4,,,58,54
248400,note_on,120,0,1,,,,,,,,,1,,,74,54
248520,note_off,120,0,1,,,,,,,,,1,,,74,0
248520,note_on,0,0,1,,,,,,,,,1,,,73,55
248585,note_off,185,0,5,,,,,,,,,5,,,52,0
248592,note_off,192,0,4,,,,,,,,,4,,,58,0
248592,note_off,192,0,2,,,,,,,,,2,,,70,0
248592,note_off,0,0,2,,,,,,,,,2,,,67,0
248592,note_off,0,0,4,,,,,,,,,4,,,61,0
248616,note_off,96,0,1,,,,,,,,,1,,,73,0
248640,note_on,48,0,2,,,,,,,,,2,,,67,68
248640,note_on,0,0,2,,,,,,,,,2,,,70,68
248640,note_on,48,0,4,,,,,,,,,4,,,61,68
248640,note_on,0,0,4,,,,,,,,,4,,,58,68
248640,note_on,24,0,1,,,,,,,,,1,,,73,68
248640,note_on,55,0,5,,,,,,,,,5,,,52,68
249000,note_off,0,0,4,,,,,,,,,4,,,61,0
249000,note_off,360,0,1,,,,,,,,,1,,,73,0
249000,note_off,360,0,4,,,,,,,,,4,,,58,0
249000,note_off,360,0,5,,,,,,,,,5,,,52,0
249000,note_off,360,0,2,,,,,,,,,2,,,70,0
249000,note_off,0,0,2,,,,,,,,,2,,,67,0
249120,note_on,120,0,5,,,,,,,,,5,,,53,62
249120,note_on,120,0,1,,,,,,,,,1,,,75,62
249120,note_on,0,0,2,,,,,,,,,2,,,65,62
249120,note_on,0,0,4,,,,,,,,,4,,,58,62
249120,note_on,120,0,4,,,,,,,,,4,,,62,62
249120,note_on,120,0,2,,,,,,,,,2,,,70,62
249240,note_on,0,0,1,,,,,,,,,1,,,74,63
249240,note_off,120,0,1,,,,,,,,,1,,,75,0
249305,note_off,185,0,5,,,,,,,,,5,,,53,0
249312,note_off,0,0,2,,,,,,,,,2,,,70,0
249312,note_off,192,0,2,,,,,,,,,2,,,65,0
249312,note_off,192,0,4,,,,,,,,,4,,,58,0
249312,note_off,0,0,4,,,,,,,,,4,,,62,0
249336,note_off,96,0,1,,,,,,,,,1,,,74,0
249360,note_on,48,0,2,,,,,,,,,2,,,70,74
249360,note_on,0,0,2,,,,,,,,,2,,,65,74
249360,note_on,0,0,4,,,,,,,,,4,,,58,74
249360,note_on,55,0,5,,,,,,,,,5,,,53,74
249360,note_on,48,0,4,,,,,,,,,4,,,62,74
249360,note_on,24,0,1,,,,,,,,,1,,,74,74
249720,note_off,0,0,2,,,,,,,,,2,,,70,0
249720,note_off,360,0,4,,,,,,,,,4,,,58,0
249720,note_off,360,0,2,,,,,,,,,2,,,65,0
249720,note_off,0,0,4,,,,,,,,,4,,,62,0
249720,note_off,360,0,5,,,,,,,,,5,,,53,0
249720,note_off,360,0,1,,,,,,,,,1,,,74,0
249840,note_on,120,0,4,,,,,,,,,4,,,63,69
249840,note_on,0,0,2,,,,,,,,,2,,,72,69
249840,note_on,120,0,2,,,,,,,,,2,,,69,69
249840,note_on,120,0,5,,,,,,,,,5,,,53,69
249840,note_on,0,0,4,,,,,,,,,4,,,60,69
249840,note_on,120,0,1,,,,,,,,,1,,,79,69
249960,note_off,120,0,1,,,,,,,,,1,,,79,0
249960,note_on,0,0,1,,,,,,,,,1,,,77,70
250025,note_off,185,0,5,,,,,,,,,5,,,53,0
250032,note_off,0,0,4,,,,,,,,,4,,,63,0
250032,note_off,192,0,4,,,,,,,,,4,,,60,0
250032,note_off,0,0,2,,,,,,,,,2,,,69,0
250032,note_off,192,0,2,,,,,,,,,2,,,72,0
250056,note_off,96,0,1,,,,,,,,,1,,,77,0
250080,note_on,0,0,4,,,,,,,,,4,,,60,81
250080,note_on,48,0,4,,,,,,,,,4,,,63,81
250080,note_on,0,0,2,,,,,,,,,2,,,72,81
250080,note_on,55,0,5,,,,,,,,,5,,,53,81
250080,note_on,24,0,1,,,,,,,,,1,,,77,81
250080,note_on,48,0,2,,,,,,,,,2,,,69,81
250440,note_off,360,0,2,,,,,,,,,2,,,72,0
250440,set_tempo,4200,1,0,,,,,,526315,,,,,,,
250440,note_off,0,0,2,,,,,,,,,2,,,69,0
250440,note_off,360,0,1,,,,,,,,,1,,,77,0
250440,note_off,0,0,4,,,,,,,,,4,,,63,0
250440,note_off,360,0,4,,,,,,,,,4,,,60,0
250440,note_off,360,0,5,,,,,,,,,5,,,53,0
250560,note_on,120,0,4,,,,,,,,,4,,,70,77
250560,note_on,120,0,1,,,,,,,,,1,,,87,77
250560,set_tempo,120,1,0,,,,,,495867,,,,,,,
250560,note_on,120,0,5,,,,,,,,,5,,,65,77
250560,note_on,120,0,2,,,,,,,,,2,,,77,77
250560,note_on,0,0,2,,,,,,,,,2,,,82,77
250560,note_on,0,0,4,,,,,,,,,4,,,74,77
250680,note_on,0,0,1,,,,,,,,,1,,,86,78
250680,note_off,120,0,1,,,,,,,,,1,,,87,0
250745,note_off,185,0,5,,,,,,,,,5,,,65,0
250752,note_off,192,0,4,,,,,,,,,4,,,74,0
250752,note_off,0,0,2,,,,,,,,,2,,,77,0
250752,note_off,192,0,2,,,,,,,,,2,,,82,0
250752,note_off,0,0,4,,,,,,,,,4,,,70,0
250776,note_off,96,0,1,,,,,,,,,1,,,86,0
250800,note_on,48,0,4,,,,,,,,,4,,,70,88
250800,note_on,0,0,4,,,,,,,,,4,,,74,88
250800,note_on,0,0,2,,,,,,,,,2,,,82,88
250800,note_on,48,0,2,,,,,,,,,2,,,77,88
250800,note_on,24,0,1,,,,,,,,,1,,,86,88
250800,note_on,55,0,5,,,,,,,,,5,,,65,88
251160,set_tempo,600,1,0,,,,,,500000,,,,,,,
251160,note_off,360,0,1,,,,,,,,,1,,,86,0
251160,note_off,0,0,4,,,,,,,,,4,,,70,0
251160,note_off,360,0,4,,,,,,,,,4,,,74,0
251160,note_off,360,0,5,,,,,,,,,5,,,65,0
251160,note_off,0,0,2,,,,,,,,,2,,,77,0
251160,note_off,360,0,2,,,,,,,,,2,,,82,0
251280,note_on,120,0,2,,,,,,,,,2,,,84,89
251280,note_on,120,0,4,,,,,,,,,4,,,72,89
251280,note_on,0,0,4,,,,,,,,,4,,,75,89
251280,note_on,120,0,5,,,,,,,,,5,,,65,89
251280,note_on,120,0,1,,,,,,,,,1,,,91,89
251280,note_on,0,0,2,,,,,,,,,2,,,81,89
251400,note_off,120,0,1,,,,,,,,,1,,,91,0
251400,note_on,0,0,1,,,,,,,,,1,,,89,94
251465,note_off,185,0,5,,,,,,,,,5,,,65,0
251472,note_off,192,0,4,,,,,,,,,4,,,75,0
251472,note_off,192,0,2,,,,,,,,,2,,,81,0
251472,note_off,0,0,4,,,,,,,,,4,,,72,0
251472,note_off,0,0,2,,,,,,,,,2,,,84,0
251496,note_off,96,0,1,,,,,,,,,1,,,89,0
251520,note_on,24,0,1,,,,,,,,,1,,,89,102
251520,note_on,0,0,2,,,,,,,,,2,,,81,102
251520,note_on,48,0,2,,,,,,,,,2,,,84,102
251520,note_on,48,0,4,,,,,,,,,4,,,72,102
251520,note_on,55,0,5,,,,,,,,,5,,,65,102
251520,note_on,0,0,4,,,,,,,,,4,,,75,102
251760,set_tempo,600,1,0,,,,,,517241,,,,,,,
252000,set_tempo,240,1,0,,,,,,495867,,,,,,,
252192,note_off,672,0,2,,,,,,,,,2,,,81,0
252192,note_off,672,0,1,,,,,,,,,1,,,89,0
252192,note_off,672,0,5,,,,,,,,,5,,,65,0
252192,note_off,0,0,2,,,,,,,,,2,,,84,0
252192,note_off,672,0,4,,,,,,,,,4,,,75,0
252192,note_off,0,0,4,,,,,,,,,4,,,72,0
252240,note_on,48,0,2,,,,,,,,,2,,,81,79
252240,note_on,0,0,2,,,,,,,,,2,,,84,79
252240,note_on,48,0,5,,,,,,,,,5,,,65,79
252240,note_on,48,0,1,,,,,,,,,1,,,89,79
252240,note_on,0,0,4,,,,,,,,,4,,,75,79
252240,note_on,48,0,4,,,,,,,,,4,,,72,79
252432,note_off,192,0,4,,,,,,,,,4,,,75,0
252432,note_off,0,0,4,,,,,,,,,4,,,72,0
252432,note_off,192,0,1,,,,,,,,,1,,,89,0
252432,note_off,192,0,5,,,,,,,,,5,,,65,0
252432,note_off,192,0,2,,,,,,,,,2,,,84,0
252432,note_off,0,0,2,,,,,,,,,2,,,81,0
252480,note_on,48,0,1,,,,,,,,,1,,,89,82
252480,note_on,48,0,2,,,,,,,,,2,,,81,82
252480,note_on,48,0,5,,,,,,,,,5,,,65,82
252480,note_on,0,0,4,,,,,,,,,4,,,75,82
252480,note_on,48,0,4,,,,,,,,,4,,,72,82
252480,note_on,0,0,2,,,,,,,,,2,,,84,82
252672,note_off,0,0,2,,,,,,,,,2,,,81,0
252672,note_off,192,0,4,,,,,,,,,4,,,75,0
252672,note_off,0,0,4,,,,,,,,,4,,,72,0
252672,note_off,192,0,2,,,,,,,,,2,,,84,0
252672,note_off,192,0,1,,,,,,,,,1,,,89,0
252672,note_off,192,0,5,,,,,,,,,5,,,65,0
252720,note_on,0,0,4,,,,,,,,,4,,,75,85
252720,note_on,48,0,4,,,,,,,,,4,,,72,85
252720,note_on,0,0,2,,,,,,,,,2,,,84,85
252720,note_on,48,0,2,,,,,,,,,2,,,81,85
252720,note_on,48,0,1,,,,,,,,,1,,,89,85
252720,note_on,48,0,5,,,,,,,,,5,,,65,85
252912,note_off,192,0,5,,,,,,,,,5,,,65,0
252912,note_off,192,0,2,,,,,,,,,2,,,84,0
252912,note_off,0,0,4,,,,,,,,,4,,,72,0
252912,note_off,192,0,4,,,,,,,,,4,,,75,0
252912,note_off,192,0,1,,,,,,,,,1,,,89,0
252912,note_off,0,0,2,,,,,,,,,2,,,81,0
252960,note_on,48,0,1,,,,,,,,,1,,,89,89
252960,note_on,48,0,4,,,,,,,,,4,,,72,89
252960,note_on,0,0,2,,,,,,,,,2,,,84,89
252960,note_on,48,0,2,,,,,,,,,2,,,81,89
252960,note_on,48,0,5,,,,,,,,,5,,,65,89
252960,note_on,0,0,4,,,,,,,,,4,,,75,89
253152,note_off,0,0,4,,,,,,,,,4,,,72,0
253152,note_off,0,0,2,,,,,,,,,2,,,81,0
253152,note_off,192,0,2,,,,,,,,,2,,,84,0
253152,note_off,192,0,5,,,,,,,,,5,,,65,0
253152,note_off,192,0,4,,,,,,,,,4,,,75,0
253152,note_off,192,0,1,,,,,,,,,1,,,89,0
253200,note_on,0,0,4,,,,,,,,,4,,,75,92
253200,note_on,48,0,4,,,,,,,,,4,,,72,92
253200,note_on,0,0,2,,,,,,,,,2,,,84,92
253200,note_on,48,0,1,,,,,,,,,1,,,89,92
253200,note_on,48,0,2,,,,,,,,,2,,,81,92
253200,note_on,48,0,5,,,,,,,,,5,,,65,92
253392,note_off,192,0,5,,,,,,,,,5,,,65,0
253392,note_off,192,0,4,,,,,,,,,4,,,75,0
253392,note_off,0,0,4,,,,,,,,,4,,,72,0
253392,note_off,0,0,2,,,,,,,,,2,,,81,0
253392,note_off,192,0,2,,,,,,,,,2,,,84,0
253392,note_off,192,0,1,,,,,,,,,1,,,89,0
253440,note_on,48,0,4,,,,,,,,,4,,,75,105
253440,note_on,48,0,2,,,,,,,,,2,,,87,105
253440,note_on,48,0,1,,,,,,,,,1,,,93,105
253440,note_on,0,0,5,,,,,,,,,5,,,69,105
253440,note_on,48,0,5,,,,,,,,,5,,,84,105
253440,note_on,0,0,5,,,,,,,,,5,,,65,105
253680,note_off,0,0,5,,,,,,,,,5,,,84,0
253680,note_on,0,0,5,,,,,,,,,5,,,83,98
253680,note_off,0,0,5,,,,,,,,,5,,,69,0
253680,note_off,240,0,4,,,,,,,,,4,,,75,0
253680,note_on,0,0,4,,,,,,,,,4,,,75,98
253680,note_on,0,0,1,,,,,,,,,1,,,93,98
253680,note_off,240,0,2,,,,,,,,,2,,,87,0
253680,note_on,0,0,2,,,,,,,,,2,,,87,98
253680,note_on,0,0,5,,,,,,,,,5,,,71,98
253680,note_on,0,0,5,,,,,,,,,5,,,65,98
253680,note_off,240,0,1,,,,,,,,,1,,,93,0
253680,note_off,240,0,5,,,,,,,,,5,,,65,0
253872,note_off,0,0,5,,,,,,,,,5,,,65,0
253872,note_off,0,0,5,,,,,,,,,5,,,83,0
253872,note_off,192,0,5,,,,,,,,,5,,,71,0
253872,note_off,192,0,4,,,,,,,,,4,,,75,0
253872,note_off,192,0,1,,,,,,,,,1,,,93,0
253872,note_off,192,0,2,,,,,,,,,2,,,87,0
253920,note_on,0,0,5,,,,,,,,,5,,,65,101
253920,note_on,48,0,5,,,,,,,,,5,,,81,101
253920,note_on,48,0,1,,,,,,,,,1,,,93,101
253920,note_on,48,0,2,,,,,,,,,2,,,87,101
253920,note_on,48,0,4,,,,,,,,,4,,,75,101
253920,note_on,0,0,5,,,,,,,,,5,,,72,101
254112,note_off,192,0,4,,,,,,,,,4,,,75,0
254112,note_off,192,0,2,,,,,,,,,2,,,87,0
254112,note_off,192,0,5,,,,,,,,,5,,,72,0
254112,note_off,0,0,5,,,,,,,,,5,,,65,0
254112,note_off,0,0,5,,,,,,,,,5,,,81,0
254112,note_off,192,0,1,,,,,,,,,1,,,93,0
254160,note_on,48,0,5,,,,,,,,,5,,,84,114
254160,note_on,0,0,5,,,,,,,,,5,,,69,114
254160,note_on,0,0,5,,,,,,,,,5,,,65,114
254160,note_on,48,0,4,,,,,,,,,4,,,75,114
254160,note_on,48,0,2,,,,,,,,,2,,,87,114
254160,note_on,48,0,1,,,,,,,,,1,,,93,114
254400,note_off,240,0,2,,,,,,,,,2,,,87,0
254400,note_on,0,0,4,,,,,,,,,4,,,75,108
254400,note_off,240,0,1,,,,,,,,,1,,,93,0
254400,note_off,240,0,4,,,,,,,,,4,,,75,0
254400,note_on,0,0,2,,,,,,,,,2,,,87,108
254400,note_on,0,0,1,,,,,,,,,1,,,93,108
254400,note_off,240,0,5,,,,,,,,,5,,,65,0
254400,note_on,0,0,5,,,,,,,,,5,,,65,108
254400,note_on,0,0,5,,,,,,,,,5,,,83,108
254400,note_off,0,0,5,,,,,,,,,5,,,84,0
254400,note_off,0,0,5,,,,,,,,,5,,,69,0
254400,note_on,0,0,5,,,,,,,,,5,,,71,108
254592,note_off,0,0,5,,,,,,,,,5,,,83,0
254592,note_off,192,0,1,,,,,,,,,1,,,93,0
254592,note_off,192,0,5,,,,,,,,,5,,,65,0
254592,note_off,0,0,5,,,,,,,,,5,,,71,0
254592,note_off,192,0,2,,,,,,,,,2,,,87,0
254592,note_off,192,0,4,,,,,,,,,4,,,75,0
254640,set_tempo,2640,1,0,,,,,,500000,,,,,,,
254640,note_on,48,0,1,,,,,,,,,1,,,93,115
254640,note_on,0,0,5,,,,,,,,,5,,,65,115
254640,note_on,0,0,5,,,,,,,,,5,,,72,115
254640,note_on,48,0,5,,,,,,,,,5,,,81,115
254640,note_on,48,0,2,,,,,,,,,2,,,87,115
254640,note_on,48,0,4,,,,,,,,,4,,,75,115
254832,note_off,192,0,4,,,,,,,,,4,,,75,0
254832,note_off,0,0,5,,,,,,,,,5,,,81,0
254832,note_off,0,0,5,,,,,,,,,5,,,72,0
254832,note_off,192,0,5,,,,,,,,,5,,,65,0
254832,note_off,192,0,1,,,,,,,,,1,,,93,0
254832,note_off,192,0,2,,,,,,,,,2,,,87,0
254880,set_tempo,240,1,0,,,,,,495867,,,,,,,
254880,control_change,48,0,4,,,,,,,64,127,4,,,,
254880,note_on,0,0,5,,,,,,,,,5,,,73,124
254880,note_on,0,0,2,,,,,,,,,2,,,85,124
254880,note_on,0,0,4,,,,,,,,,4,,,76,124
254880,note_on,0,0,5,,,,,,,,,5,,,64,124
254880,note_on,0,0,5,,,,,,,,,5,,,81,124
254880,control_change,48,0,5,,,,,,,64,127,5,,,,
254880,control_change,48,0,2,,,,,,,64,127,2,,,,
254880,note_on,0,0,2,,,,,,,,,2,,,88,124
254880,note_on,0,0,4,,,,,,,,,4,,,69,124
254880,control_change,9888,0,3,,,,,,,64,127,3,,,,
254880,note_on,0,0,1,,,,,,,,,1,,,93,124
254880,control_change,48,0,1,,,,,,,64,127,1,,,,
255840,note_off,0,0,5,,,,,,,,,5,,,81,0
255840,note_off,0,0,4,,,,,,,,,4,,,76,0
255840,note_off,960,0,4,,,,,,,,,4,,,69,0
255840,note_on,0,0,5,,,,,,,,,5,,,76,63
255840,note_off,0,0,5,,,,,,,,,5,,,64,0
255840,note_off,960,0,5,,,,,,,,,5,,,73,0
255840,note_off,960,0,1,,,,,,,,,1,,,93,0
255840,note_on,0,0,1,,,,,,,,,1,,,88,63
255840,note_off,0,0,2,,,,,,,,,2,,,85,0
255840,note_off,960,0,2,,,,,,,,,2,,,88,0
256080,note_off,240,0,5,,,,,,,,,5,,,76,0
256080,note_on,0,0,5,,,,,,,,,5,,,73,60
256080,note_off,240,0,1,,,,,,,,,1,,,88,0
256080,note_on,0,0,1,,,,,,,,,1,,,85,60
256320,note_off,240,0,5,,,,,,,,,5,,,73,0
256320,note_on,0,0,5,,,,,,,,,5,,,69,57
256320,note_off,240,0,1,,,,,,,,,1,,,85,0
256320,note_on,0,0,1,,,,,,,,,1,,,81,57
256560,control_change,720,0,4,,,,,,,64,0,4,,,,
256560,control_change,1680,0,3,,,,,,,64,0,3,,,,
256560,control_change,240,0,1,,,,,,,64,0,1,,,,
256560,note_on,0,0,5,,,,,,,,,5,,,64,55
256560,note_off,0,0,1,,,,,,,,,1,,,81,0
256560,control_change,720,0,2,,,,,,,64,0,2,,,,
256560,note_off,0,0,5,,,,,,,,,5,,,69,0
256560,control_change,240,0,5,,,,,,,64,0,5,,,,
256560,note_on,0,0,1,,,,,,,,,1,,,76,55
256800,note_off,240,0,5,,,,,,,,,5,,,64,0
256800,note_off,240,0,1,,,,,,,,,1,,,76,0
256800,note_on,0,0,1,,,,,,,,,1,,,73,52
256800,note_on,0,0,5,,,,,,,,,5,,,61,52
257040,note_off,240,0,1,,,,,,,,,1,,,73,0
257040,note_on,0,0,5,,,,,,,,,5,,,57,49
257040,note_on,0,0,1,,,,,,,,,1,,,69,49
257040,note_off,240,0,5,,,,,,,,,5,,,61,0
257280,note_on,0,0,5,,,,,,,,,5,,,54,46
257280,note_off,240,0,5,,,,,,,,,5,,,57,0
257280,note_on,0,0,1,,,,,,,,,1,,,66,46
257280,note_off,240,0,1,,,,,,,,,1,,,69,0
257520,set_tempo,2640,1,0,,,,,,500000,,,,,,,
257520,note_off,240,0,1,,,,,,,,,1,,,66,0
257520,note_on,0,0,5,,,,,,,,,5,,,51,43
257520,note_off,240,0,5,,,,,,,,,5,,,54,0
257520,note_on,0,0,1,,,,,,,,,1,,,63,43
257700,note_on,180,0,1,,,,,,,,,1,,,71,41
257712,note_off,192,0,5,,,,,,,,,5,,,51,0
257712,note_off,12,0,1,,,,,,,,,1,,,63,0
257760,note_on,48,0,5,,,,,,,,,5,,,52,41
257760,note_on,1200,0,2,,,,,,,,,2,,,64,41
257760,note_on,1200,0,4,,,,,,,,,4,,,61,41
257760,note_off,48,0,1,,,,,,,,,1,,,71,0
257760,note_on,0,0,1,,,,,,,,,1,,,69,41
258120,note_on,0,0,1,,,,,,,,,1,,,68,38
258120,note_off,360,0,1,,,,,,,,,1,,,69,0
258240,note_off,120,0,1,,,,,,,,,1,,,68,0
258240,note_on,0,0,1,,,,,,,,,1,,,69,37
258480,note_off,240,0,1,,,,,,,,,1,,,69,0
258480,note_on,0,0,4,,,,,,,,,4,,,62,40
258480,note_off,720,0,4,,,,,,,,,4,,,61,0
258480,note_on,0,0,2,,,,,,,,,2,,,68,40
258480,note_off,720,0,2,,,,,,,,,2,,,64,0
258480,note_on,0,0,1,,,,,,,,,1,,,73,40
258840,note_off,360,0,1,,,,,,,,,1,,,73,0
258960,note_on,120,0,1,,,,,,,,,1,,,71,32
258960,set_tempo,1440,1,0,,,,,,535714,,,,,,,
259147,note_off,667,0,4,,,,,,,,,4,,,62,0
259147,note_off,667,0,2,,,,,,,,,2,,,68,0
259147,note_off,1387,0,5,,,,,,,,,5,,,52,0
259152,note_off,192,0,1,,,,,,,,,1,,,71,0
259200,note_on,0,0,3,,,,,,,,,3,,,45,30
259200,control_change,2640,0,3,,,,,,,64,0,3,,,,
259200,control_change,48,0,1,,,,,,,64,0,1,,,,
259200,note_on,0,0,1,,,,,,,,,1,,,57,30
259200,control_change,53,0,2,,,,,,,64,0,2,,,,
259200,note_on,0,0,1,,,,,,,,,1,,,69,30
259200,note_on,0,0,5,,,,,,,,,5,,,49,30
259200,control_change,53,0,4,,,,,,,64,0,4,,,,
259200,set_tempo,240,1,0,,,,,,495867,,,,,,,
259200,control_change,53,0,5,,,,,,,64,0,5,,,,
259392,note_off,192,0,3,,,,,,,,,3,,,45,0
259440,note_on,48,0,3,,,,,,,,,3,,,45,30
259632,note_off,192,0,3,,,,,,,,,3,,,45,0
259680,note_on,48,0,3,,,,,,,,,3,,,45,31
259872,note_off,192,0,3,,,,,,,,,3,,,45,0
259920,note_on,48,0,3,,,,,,,,,3,,,45,32
259920,note_on,0,0,1,,,,,,,,,1,,,61,32
259920,note_off,720,0,1,,,,,,,,,1,,,69,0
259920,note_on,0,0,5,,,,,,,,,5,,,52,32
259920,note_off,720,0,5,,,,,,,,,5,,,49,0
260112,note_off,192,0,3,,,,,,,,,3,,,45,0
260160,note_on,48,0,3,,,,,,,,,3,,,45,33
260352,note_off,192,0,3,,,,,,,,,3,,,45,0
260400,note_on,48,0,3,,,,,,,,,3,,,45,33
260580,note_off,660,0,1,,,,,,,,,1,,,57,0
260580,note_off,660,0,5,,,,,,,,,5,,,52,0
260585,note_off,5,0,1,,,,,,,,,1,,,61,0
260592,note_off,192,0,3,,,,,,,,,3,,,45,0
260640,note_on,0,0,2,,,,,,,,,2,,,59,34
260640,note_on,60,0,5,,,,,,,,,5,,,53,34
260640,note_on,55,0,1,,,,,,,,,1,,,64,34
260640,note_on,48,0,3,,,,,,,,,3,,,45,34
260640,note_on,1440,0,2,,,,,,,,,2,,,56,34
260832,note_off,192,0,3,,,,,,,,,3,,,45,0
260880,note_on,48,0,3,,,,,,,,,3,,,45,35
261072,note_off,192,0,3,,,,,,,,,3,,,45,0
261120,note_on,48,0,3,,,,,,,,,3,,,45,36
261312,note_off,192,0,3,,,,,,,,,3,,,45,0
261360,note_on,48,0,3,,,,,,,,,3,,,45,36
261360,note_off,720,0,2,,,,,,,,,2,,,59,0
261360,note_off,720,0,1,,,,,,,,,1,,,64,0
261360,note_on,0,0,1,,,,,,,,,1,,,62,36
261360,note_on,0,0,2,,,,,,,,,2,,,59,36
261552,note_off,192,0,3,,,,,,,,,3,,,45,0
261600,note_on,48,0,3,,,,,,,,,3,,,45,37
261792,note_off,192,0,3,,,,,,,,,3,,,45,0
261840,note_on,48,0,3,,,,,,,,,3,,,45,38
261840,note_off,480,0,2,,,,,,,,,2,,,59,0
261840,note_on,0,0,1,,,,,,,,,1,,,61,38
261840,note_off,480,0,1,,,,,,,,,1,,,62,0
262025,note_off,185,0,2,,,,,,,,,2,,,56,0
262025,note_off,1385,0,5,,,,,,,,,5,,,53,0
262032,note_off,192,0,1,,,,,,,,,1,,,61,0
262032,note_off,192,0,3,,,,,,,,,3,,,45,0
262080,note_on,48,0,3,,,,,,,,,3,,,45,39
262080,note_on,48,0,1,,,,,,,,,1,,,59,39
262080,note_on,55,0,5,,,,,,,,,5,,,52,39
262080,note_on,55,0,2,,,,,,,,,2,,,56,39
262272,note_off,192,0,3,,,,,,,,,3,,,45,0
262320,note_on,48,0,3,,,,,,,,,3,,,45,39
262512,note_off,192,0,3,,,,,,,,,3,,,45,0
262560,note_on,48,0,3,,,,,,,,,3,,,45,40
262752,note_off,192,0,3,,,,,,,,,3,,,45,0
262800,note_on,0,0,5,,,,,,,,,5,,,50,41
262800,note_on,48,0,3,,,,,,,,,3,,,45,41
262800,note_off,720,0,5,,,,,,,,,5,,,52,0
262992,note_off,192,0,3,,,,,,,,,3,,,45,0
263040,note_on,48,0,3,,,,,,,,,3,,,45,42
263040,note_on,0,0,1,,,,,,,,,1,,,62,42
263040,note_off,960,0,1,,,,,,,,,1,,,59,0
263232,note_off,192,0,3,,,,,,,,,3,,,45,0
263280,note_off,240,0,1,,,,,,,,,1,,,62,0
263280,note_on,48,0,3,,,,,,,,,3,,,45,42
263280,note_on,0,0,1,,,,,,,,,1,,,65,42
263470,note_off,1390,0,2,,,,,,,,,2,,,56,0
263472,note_off,192,0,1,,,,,,,,,1,,,65,0
263472,note_off,192,0,3,,,,,,,,,3,,,45,0
263475,note_off,675,0,5,,,,,,,,,5,,,50,0
263520,note_on,45,0,5,,,,,,,,,5,,,49,45
263520,note_on,48,0,3,,,,,,,,,3,,,45,45
263520,note_on,48,0,1,,,,,,,,,1,,,65,45
263520,note_on,50,0,2,,,,,,,,,2,,,57,45
263712,note_off,192,0,3,,,,,,,,,3,,,45,0
263760,note_on,48,0,3,,,,,,,,,3,,,45,43
263952,note_off,192,0,3,,,,,,,,,3,,,45,0
264000,note_on,48,0,3,,,,,,,,,3,,,45,42
264192,note_off,192,0,3,,,,,,,,,3,,,45,0
264240,note_on,48,0,3,,,,,,,,,3,,,45,41
264240,note_off,720,0,1,,,,,,,,,1,,,65,0
264240,note_on,0,0,1,,,,,,,,,1,,,64,41
264432,note_off,192,0,3,,,,,,,,,3,,,45,0
264480,note_on,48,0,3,,,,,,,,,3,,,45,40
264672,note_off,192,0,3,,,,,,,,,3,,,45,0
264720,note_on,48,0,3,,,,,,,,,3,,,45,38
264840,set_tempo,5640,1,0,,,,,,500000,,,,,,,
264895,note_off,1375,0,2,,,,,,,,,2,,,57,0
264900,note_off,660,0,1,,,,,,,,,1,,,64,0
264905,note_off,1385,0,5,,,,,,,,,5,,,49,0
264912,note_off,192,0,3,,,,,,,,,3,,,45,0
264960,note_on,55,0,5,,,,,,,,,5,,,49,40
264960,set_tempo,120,1,0,,,,,,495867,,,,,,,
264960,note_on,48,0,3,,,,,,,,,3,,,45,40
264960,note_on,60,0,1,,,,,,,,,1,,,57,40
265152,note_off,192,0,3,,,,,,,,,3,,,45,0
265200,note_on,48,0,3,,,,,,,,,3,,,45,40
265392,note_off,192,0,3,,,,,,,,,3,,,45,0
265440,note_on,48,0,3,,,,,,,,,3,,,45,41
265632,note_off,192,0,3,,,,,,,,,3,,,45,0
265680,note_on,720,0,1,,,,,,,,,1,,,61,42
265680,note_on,0,0,5,,,,,,,,,5,,,52,42
265680,note_off,720,0,5,,,,,,,,,5,,,49,0
265680,note_on,48,0,3,,,,,,,,,3,,,45,42
265872,note_off,192,0,3,,,,,,,,,3,,,45,0
265920,note_on,48,0,3,,,,,,,,,3,,,45,42
266112,note_off,192,0,3,,,,,,,,,3,,,45,0
266160,note_on,48,0,3,,,,,,,,,3,,,45,43
266340,note_off,660,0,1,,,,,,,,,1,,,57,0
266340,note_off,660,0,5,,,,,,,,,5,,,52,0
266345,note_off,5,0,1,,,,,,,,,1,,,61,0
266352,note_off,192,0,3,,,,,,,,,3,,,45,0
266400,note_on,55,0,1,,,,,,,,,1,,,64,44
266400,note_on,1505,0,2,,,,,,,,,2,,,56,44
266400,note_on,0,0,2,,,,,,,,,2,,,59,44
266400,note_on,60,0,5,,,,,,,,,5,,,53,44
266400,note_on,48,0,3,,,,,,,,,3,,,45,44
266592,note_off,192,0,3,,,,,,,,,3,,,45,0
266640,note_on,48,0,3,,,,,,,,,3,,,45,44
266832,note_off,192,0,3,,,,,,,,,3,,,45,0
266880,note_on,48,0,3,,,,,,,,,3,,,45,45
267072,note_off,192,0,3,,,,,,,,,3,,,45,0
267120,note_on,0,0,1,,,,,,,,,1,,,62,45
267120,note_on,48,0,3,,,,,,,,,3,,,45,45
267120,note_off,720,0,1,,,,,,,,,1,,,64,0
267120,note_on,0,0,2,,,,,,,,,2,,,59,45
267120,note_off,720,0,2,,,,,,,,,2,,,59,0
267312,note_off,192,0,3,,,,,,,,,3,,,45,0
267360,note_on,48,0,3,,,,,,,,,3,,,45,46
267552,note_off,192,0,3,,,,,,,,,3,,,45,0
267600,note_on,0,0,1,,,,,,,,,1,,,61,47
267600,note_off,480,0,1,,,,,,,,,1,,,62,0
267600,note_on,48,0,3,,,,,,,,,3,,,45,47
267600,note_off,480,0,2,,,,,,,,,2,,,59,0
267785,note_off,1385,0,5,,,,,,,,,5,,,53,0
267785,note_off,185,0,2,,,,,,,,,2,,,56,0
267792,note_off,192,0,1,,,,,,,,,1,,,61,0
267792,note_off,192,0,3,,,,,,,,,3,,,45,0
267840,note_on,48,0,3,,,,,,,,,3,,,45,47
267840,note_on,55,0,2,,,,,,,,,2,,,56,47
267840,note_on,55,0,5,,,,,,,,,5,,,52,47
267840,note_on,48,0,1,,,,,,,,,1,,,59,47
268032,note_off,192,0,3,,,,,,,,,3,,,45,0
268080,note_on,48,0,3,,,,,,,,,3,,,45,48
268272,note_off,192,0,3,,,,,,,,,3,,,45,0
268320,note_on,48,0,3,,,,,,,,,3,,,45,49
268512,note_off,192,0,3,,,,,,,,,3,,,45,0
268560,note_on,48,0,3,,,,,,,,,3,,,45,49
268560,note_off,720,0,5,,,,,,,,,5,,,52,0
268560,note_on,0,0,5,,,,,,,,,5,,,50,49
268752,note_off,192,0,3,,,,,,,,,3,,,45,0
268800,note_on,48,0,3,,,,,,,,,3,,,45,50
268800,note_off,960,0,1,,,,,,,,,1,,,59,0
268800,note_on,0,0,1,,,,,,,,,1,,,62,50
268992,note_off,192,0,3,,,,,,,,,3,,,45,0
269040,note_off,240,0,1,,,,,,,,,1,,,62,0
269040,note_on,48,0,3,,,,,,,,,3,,,45,50
269040,note_on,0,0,1,,,,,,,,,1,,,65,50
269230,note_off,1390,0,2,,,,,,,,,2,,,56,0
269232,note_off,192,0,1,,,,,,,,,1,,,65,0
269232,note_off,192,0,3,,,,,,,,,3,,,45,0
269235,note_off,675,0,5,,,,,,,,,5,,,50,0
269280,note_on,45,0,5,,,,,,,,,5,,,49,54
269280,note_on,48,0,3,,,,,,,,,3,,,45,54
269280,note_on,48,0,1,,,,,,,,,1,,,65,54
269280,note_on,50,0,2,,,,,,,,,2,,,57,54
269472,note_off,192,0,3,,,,,,,,,3,,,45,0
269520,note_on,48,0,3,,,,,,,,,3,,,45,51
269712,note_off,192,0,3,,,,,,,,,3,,,45,0
269760,note_on,48,0,3,,,,,,,,,3,,,45,50
269952,note_off,192,0,3,,,,,,,,,3,,,45,0
270000,note_on,0,0,1,,,,,,,,,1,,,64,50
270000,note_on,48,0,3,,,,,,,,,3,,,45,50
270000,note_off,720,0,1,,,,,,,,,1,,,65,0
270192,note_off,192,0,3,,,,,,,,,3,,,45,0
270240,note_on,48,0,3,,,,,,,,,3,,,45,49
270432,note_off,192,0,3,,,,,,,,,3,,,45,0
270480,note_on,48,0,3,,,,,,,,,3,,,45,49
270600,set_tempo,5640,1,0,,,,,,500000,,,,,,,
270655,note_off,1375,0,2,,,,,,,,,2,,,57,0
270660,note_off,660,0,1,,,,,,,,,1,,,64,0
270665,note_off,1385,0,5,,,,,,,,,5,,,49,0
270672,note_off,192,0,3,,,,,,,,,3,,,45,0
270720,note_on,55,0,5,,,,,,,,,5,,,48,54
270720,note_on,60,0,1,,,,,,,,,1,,,65,54
270720,note_on,65,0,2,,,,,,,,,2,,,55,54
270720,set_tempo,120,1,0,,,,,,495867,,,,,,,
270720,note_on,48,0,3,,,,,,,,,3,,,45,54
270912,note_off,192,0,3,,,,,,,,,3,,,45,0
270960,note_on,48,0,3,,,,,,,,,3,,,45,48
271152,note_off,192,0,3,,,,,,,,,3,,,45,0
271200,note_on,48,0,3,,,,,,,,,3,,,45,47
271392,note_off,192,0,3,,,,,,,,,3,,,45,0
271440,note_off,720,0,1,,,,,,,,,1,,,65,0
271440,note_on,0,0,1,,,,,,,,,1,,,64,47
271440,note_on,48,0,3,,,,,,,,,3,,,45,47
271632,note_off,192,0,3,,,,,,,,,3,,,45,0
271680,note_on,48,0,3,,,,,,,,,3,,,45,46
271872,note_off,192,0,3,,,,,,,,,3,,,45,0
271920,note_on,48,0,3,,,,,,,,,3,,,45,46
272100,note_off,660,0,1,,,,,,,,,1,,,64,0
272100,note_off,1380,0,5,,,,,,,,,5,,,48,0
272100,note_off,1380,0,2,,,,,,,,,2,,,55,0
272112,note_off,192,0,3,,,,,,,,,3,,,45,0
272160,set_tempo,1440,1,0,,,,,,495867,,,,,,,
272160,note_on,60,0,1,,,,,,,,,1,,,64,50
272160,note_on,48,0,3,,,,,,,,,3,,,38,50
272160,note_on,60,0,5,,,,,,,,,5,,,53,50
272160,note_on,60,0,2,,,,,,,,,2,,,57,50
272352,note_off,192,0,3,,,,,,,,,3,,,38,0
272400,note_on,48,0,3,,,,,,,,,3,,,38,45
272592,note_off,192,0,3,,,,,,,,,3,,,38,0
272640,note_on,48,0,3,,,,,,,,,3,,,38,44
272832,note_off,192,0,3,,,,,,,,,3,,,38,0
272880,note_off,720,0,1,,,,,,,,,1,,,64,0
272880,note_on,0,0,1,,,,,,,,,1,,,62,43
272880,note_on,48,0,3,,,,,,,,,3,,,38,43
273072,note_off,192,0,3,,,,,,,,,3,,,38,0
273120,note_on,48,0,3,,,,,,,,,3,,,38,43
273312,note_off,192,0,3,,,,,,,,,3,,,38,0
273360,note_on,48,0,3,,,,,,,,,3,,,38,42
273540,note_off,1380,0,5,,,,,,,,,5,,,53,0
273540,note_off,1380,0,2,,,,,,,,,2,,,57,0
273540,note_off,660,0,1,,,,,,,,,1,,,62,0
273552,note_off,192,0,3,,,,,,,,,3,,,38,0
273600,note_on,60,0,1,,,,,,,,,1,,,62,46
273600,note_on,60,0,5,,,,,,,,,5,,,52,46
273600,note_on,60,0,2,,,,,,,,,2,,,57,46
273600,note_on,48,0,3,,,,,,,,,3,,,40,46
273792,note_off,192,0,3,,,,,,,,,3,,,40,0
273840,note_on,48,0,3,,,,,,,,,3,,,40,40
274032,note_off,192,0,3,,,,,,,,,3,,,40,0
274080,note_on,48,0,3,,,,,,,,,3,,,40,39
274272,note_off,192,0,3,,,,,,,,,3,,,40,0
274320,note_on,48,0,3,,,,,,,,,3,,,40,39
274320,note_on,0,0,1,,,,,,,,,1,,,60,39
274320,note_off,720,0,1,,,,,,,,,1,,,62,0
274512,note_off,192,0,3,,,,,,,,,3,,,40,0
274560,note_on,48,0,3,,,,,,,,,3,,,40,38
274752,note_off,192,0,3,,,,,,,,,3,,,40,0
274800,note_on,48,0,3,,,,,,,,,3,,,40,37
274920,set_tempo,2760,1,0,,,,,,500000,,,,,,,
274980,note_off,660,0,1,,,,,,,,,1,,,60,0
274980,note_off,1380,0,2,,,,,,,,,2,,,57,0
274980,note_off,1380,0,5,,,,,,,,,5,,,52,0
274992,note_off,192,0,3,,,,,,,,,3,,,40,0
275040,note_on,48,0,3,,,,,,,,,3,,,40,44
275040,note_on,60,0,5,,,,,,,,,5,,,50,44
275040,note_on,60,0,1,,,,,,,,,1,,,60,44
275040,note_on,60,0,2,,,,,,,,,2,,,56,44
275232,note_off,192,0,3,,,,,,,,,3,,,40,0
275280,note_on,48,0,3,,,,,,,,,3,,,40,36
275472,note_off,192,0,3,,,,,,,,,3,,,40,0
275520,note_on,48,0,3,,,,,,,,,3,,,40,35
275712,note_off,192,0,3,,,,,,,,,3,,,40,0
275760,note_off,720,0,1,,,,,,,,,1,,,60,0
275760,note_on,0,0,1,,,,,,,,,1,,,59,33
275760,note_on,48,0,3,,,,,,,,,3,,,40,33
275952,note_off,192,0,3,,,,,,,,,3,,,40,0
276000,note_on,48,0,3,,,,,,,,,3,,,40,31
276192,note_off,192,0,3,,,,,,,,,3,,,40,0
276240,set_tempo,1320,1,0,,,,,,571428,,,,,,,
276240,note_on,48,0,3,,,,,,,,,3,,,40,29
276420,note_off,660,0,1,,,,,,,,,1,,,59,0
276420,note_off,1380,0,5,,,,,,,,,5,,,50,0
276420,note_off,1380,0,2,,,,,,,,,2,,,56,0
276432,note_off,192,0,3,,,,,,,,,3,,,40,0
277680,control_change,1248,0,3,,,,,,,64,0,3,,,,
277680,note_on,0,0,2,,,,,,,,,2,,,72,78
277680,note_on,0,0,5,,,,,,,,,5,,,33,78
277680,note_on,0,0,1,,,,,,,,,1,,,64,78
277680,note_on,0,0,1,,,,,,,,,1,,,76,78
277680,control_change,1260,0,1,,,,,,,64,0,1,,,,
277680,control_change,1260,0,2,,,,,,,64,0,2,,,,
277680,note_on,0,0,5,,,,,,,,,5,,,45,78
277680,set_tempo,1440,1,0,,,,,,495867,,,,,,,
277680,control_change,18480,0,4,,,,,,,64,0,4,,,,
277680,control_change,1260,0,5,,,,,,,64,0,5,,,,
277800,set_tempo,120,1,0,,,,,,500000,,,,,,,
277872,note_off,192,0,2,,,,,,,,,2,,,72,0
277872,note_off,192,0,1,,,,,,,,,1,,,64,0
277872,note_off,0,0,1,,,,,,,,,1,,,76,0
277872,note_off,192,0,5,,,,,,,,,5,,,33,0
277872,note_off,0,0,5,,,,,,,,,5,,,45,0
277920,control_change,48,0,5,,,,,,,64,0,5,,,,
277920,note_on,0,0,1,,,,,,,,,1,,,76,88
277920,set_tempo,120,1,0,,,,,,495867,,,,,,,
277920,note_on,0,0,1,,,,,,,,,1,,,64,88
277920,note_on,0,0,5,,,,,,,,,5,,,33,88
277920,control_change,48,0,2,,,,,,,64,0,2,,,,
277920,note_on,0,0,2,,,,,,,,,2,,,72,88
277920,note_on,0,0,5,,,,,,,,,5,,,45,88
277920,control_change,240,0,3,,,,,,,64,0,3,,,,
277920,control_change,240,0,4,,,,,,,64,0,4,,,,
277920,control_change,48,0,1,,,,,,,64,0,1,,,,
278280,note_on,0,0,2,,,,,,,,,2,,,71,81
278280,note_on,0,0,1,,,,,,,,,1,,,74,81
278280,note_off,0,0,5,,,,,,,,,5,,,45,0
278280,note_on,0,0,1,,,,,,,,,1,,,62,81
278280,note_off,0,0,1,,,,,,,,,1,,,64,0
278280,note_off,360,0,1,,,,,,,,,1,,,76,0
278280,note_off,360,0,5,,,,,,,,,5,,,33,0
278280,note_off,360,0,2,,,,,,,,,2,,,72,0
278376,note_off,96,0,2,,,,,,,,,2,,,71,0
278376,note_off,96,0,1,,,,,,,,,1,,,74,0
278376,note_off,0,0,1,,,,,,,,,1,,,62,0
278400,note_on,24,0,2,,,,,,,,,2,,,69,82
278400,note_on,0,0,1,,,,,,,,,1,,,72,82
278400,note_on,24,0,1,,,,,,,,,1,,,60,82
278592,note_off,192,0,1,,,,,,,,,1,,,72,0
278592,note_off,192,0,2,,,,,,,,,2,,,69,0
278592,note_off,0,0,1,,,,,,,,,1,,,60,0
278640,note_on,48,0,1,,,,,,,,,1,,,60,91
278640,note_on,0,0,1,,,,,,,,,1,,,72,91
278640,note_on,48,0,2,,,,,,,,,2,,,64,91
278640,note_on,0,0,5,,,,,,,,,5,,,57,91
278640,note_on,360,0,5,,,,,,,,,5,,,45,91
279000,note_off,0,0,5,,,,,,,,,5,,,45,0
279000,note_off,360,0,5,,,,,,,,,5,,,57,0
279000,note_off,360,0,2,,,,,,,,,2,,,64,0
279000,note_on,0,0,2,,,,,,,,,2,,,62,85
279000,note_on,0,0,1,,,,,,,,,1,,,71,85
279000,note_on,0,0,1,,,,,,,,,1,,,59,85
279000,note_off,0,0,1,,,,,,,,,1,,,60,0
279000,note_off,360,0,1,,,,,,,,,1,,,72,0
279096,note_off,96,0,2,,,,,,,,,2,,,62,0
279096,note_off,0,0,1,,,,,,,,,1,,,59,0
279096,note_off,96,0,1,,,,,,,,,1,,,71,0
279120,note_on,0,0,1,,,,,,,,,1,,,69,86
279120,note_on,24,0,1,,,,,,,,,1,,,57,86
279120,note_on,24,0,2,,,,,,,,,2,,,60,86
279240,set_tempo,1320,1,0,,,,,,500000,,,,,,,
279312,note_off,0,0,1,,,,,,,,,1,,,57,0
279312,note_off,192,0,1,,,,,,,,,1,,,69,0
279312,note_off,192,0,2,,,,,,,,,2,,,60,0
279360,set_tempo,120,1,0,,,,,,495867,,,,,,,
279360,note_on,48,0,2,,,,,,,,,2,,,64,101
279360,note_on,360,0,5,,,,,,,,,5,,,52,101
279360,note_on,0,0,1,,,,,,,,,1,,,68,101
279360,note_on,48,0,1,,,,,,,,,1,,,56,101
279840,note_off,480,0,1,,,,,,,,,1,,,68,0
279840,note_off,0,0,1,,,,,,,,,1,,,56,0
279840,note_on,0,0,1,,,,,,,,,1,,,57,92
279840,note_on,0,0,2,,,,,,,,,2,,,66,92
279840,note_off,480,0,2,,,,,,,,,2,,,64,0
279840,note_on,0,0,5,,,,,,,,,5,,,52,92
279840,note_on,1920,0,4,,,,,,,,,4,,,54,92
279840,note_off,480,0,5,,,,,,,,,5,,,52,0
279840,note_on,0,0,1,,,,,,,,,1,,,69,92
280032,note_off,192,0,4,,,,,,,,,4,,,54,0
280032,note_off,192,0,1,,,,,,,,,1,,,69,0
280032,note_off,192,0,5,,,,,,,,,5,,,52,0
280032,note_off,0,0,1,,,,,,,,,1,,,57,0
280032,note_off,192,0,2,,,,,,,,,2,,,66,0
280080,note_on,0,0,1,,,,,,,,,1,,,71,98
280080,note_on,48,0,1,,,,,,,,,1,,,59,98
280080,note_on,48,0,4,,,,,,,,,4,,,56,98
280080,note_on,48,0,5,,,,,,,,,5,,,52,98
280080,note_on,48,0,2,,,,,,,,,2,,,68,98
280095,set_tempo,735,1,0,,,,,,500000,,,,,,,
280440,note_off,360,0,2,,,,,,,,,2,,,68,0
280440,note_off,360,0,5,,,,,,,,,5,,,52,0
280440,note_off,360,0,4,,,,,,,,,4,,,56,0
280440,note_off,360,0,1,,,,,,,,,1,,,71,0
280440,note_off,0,0,1,,,,,,,,,1,,,59,0
280800,note_on,360,0,5,,,,,,,,,5,,,57,112
280800,note_on,360,0,1,,,,,,,,,1,,,61,112
280800,note_on,0,0,1,,,,,,,,,1,,,73,112
280800,note_on,360,0,2,,,,,,,,,2,,,69,112
281280,note_off,480,0,5,,,,,,,,,5,,,57,0
281280,note_off,0,0,1,,,,,,,,,1,,,61,0
281280,note_on,0,0,5,,,,,,,,,5,,,57,102
281280,note_on,840,0,4,,,,,,,,,4,,,59,102
281280,note_on,0,0,4,,,,,,,,,4,,,68,102
281280,note_off,480,0,1,,,,,,,,,1,,,73,0
281280,note_on,0,0,1,,,,,,,,,1,,,74,102
281280,note_on,0,0,1,,,,,,,,,1,,,62,102
281280,note_off,480,0,2,,,,,,,,,2,,,69,0
281280,note_on,0,0,2,,,,,,,,,2,,,71,102
281472,note_off,192,0,5,,,,,,,,,5,,,57,0
281472,note_off,192,0,2,,,,,,,,,2,,,71,0
281472,note_off,192,0,1,,,,,,,,,1,,,74,0
281472,note_off,192,0,4,,,,,,,,,4,,,68,0
281472,note_off,0,0,1,,,,,,,,,1,,,62,0
281472,note_off,0,0,4,,,,,,,,,4,,,59,0
281520,note_on,48,0,5,,,,,,,,,5,,,57,108
281520,set_tempo,1425,1,0,,,,,,508474,,,,,,,
281520,note_on,0,0,4,,,,,,,,,4,,,67,108
281520,note_on,48,0,2,,,,,,,,,2,,,73,108
281520,note_on,48,0,4,,,,,,,,,4,,,61,108
281520,note_on,0,0,1,,,,,,,,,1,,,76,108
281520,note_on,48,0,1,,,,,,,,,1,,,64,108
281520,note_on,0,0,4,,,,,,,,,4,,,69,108
281880,note_off,360,0,2,,,,,,,,,2,,,73,0
281880,note_off,360,0,5,,,,,,,,,5,,,57,0
281880,note_off,0,0,4,,,,,,,,,4,,,61,0
281880,note_off,0,0,1,,,,,,,,,1,,,64,0
281880,note_off,360,0,1,,,,,,,,,1,,,76,0
281880,note_off,0,0,4,,,,,,,,,4,,,69,0
281880,note_off,360,0,4,,,,,,,,,4,,,67,0
282000,set_tempo,480,1,0,,,,,,526315,,,,,,,
282240,note_on,0,0,4,,,,,,,,,4,,,57,122
282240,note_on,0,0,4,,,,,,,,,4,,,62,122
282240,note_on,360,0,4,,,,,,,,,4,,,69,122
282240,set_tempo,240,1,0,,,,,,517241,,,,,,,
282240,note_on,360,0,5,,,,,,,,,5,,,50,122
282240,note_on,360,0,1,,,,,,,,,1,,,65,122
282240,note_on,360,0,2,,,,,,,,,2,,,74,122
282240,note_on,0,0,1,,,,,,,,,1,,,77,122
282600,note_off,360,0,2,,,,,,,,,2,,,74,0
282600,note_off,0,0,4,,,,,,,,,4,,,69,0
282600,note_off,360,0,4,,,,,,,,,4,,,57,0
282600,note_off,0,0,4,,,,,,,,,4,,,62,0
282600,note_off,0,0,1,,,,,,,,,1,,,65,0
282600,note_off,360,0,1,,,,,,,,,1,,,77,0
282615,note_off,375,0,5,,,,,,,,,5,,,50,0
282720,note_on,120,0,4,,,,,,,,,4,,,69,112
282720,note_on,0,0,4,,,,,,,,,4,,,64,112
282720,note_on,0,0,4,,,,,,,,,4,,,57,112
282720,note_on,105,0,5,,,,,,,,,5,,,52,112
282720,note_on,0,0,1,,,,,,,,,1,,,79,112
282720,note_on,120,0,1,,,,,,,,,1,,,67,112
282720,note_on,120,0,2,,,,,,,,,2,,,73,112
282735,set_tempo,495,1,0,,,,,,535714,,,,,,,
282912,note_off,192,0,2,,,,,,,,,2,,,73,0
282912,note_off,192,0,4,,,,,,,,,4,,,57,0
282912,note_off,0,0,4,,,,,,,,,4,,,69,0
282912,note_off,0,0,4,,,,,,,,,4,,,64,0
282912,note_off,192,0,5,,,,,,,,,5,,,52,0
282912,note_off,192,0,1,,,,,,,,,1,,,79,0
282912,note_off,0,0,1,,,,,,,,,1,,,67,0
282960,note_on,48,0,5,,,,,,,,,5,,,53,118
282960,note_on,48,0,1,,,,,,,,,1,,,69,118
282960,note_on,0,0,1,,,,,,,,,1,,,81,118
282960,note_on,48,0,4,,,,,,,,,4,,,69,118
282960,note_on,48,0,2,,,,,,,,,2,,,74,118
282960,note_on,0,0,4,,,,,,,,,4,,,57,118
282960,note_on,0,0,4,,,,,,,,,4,,,65,118
282960,set_tempo,225,1,0,,,,,,705882,,,,,,,
283320,note_off,0,0,1,,,,,,,,,1,,,69,0
283320,note_off,360,0,2,,,,,,,,,2,,,74,0
283320,note_off,0,0,4,,,,,,,,,4,,,65,0
283320,note_off,360,0,4,,,,,,,,,4,,,57,0
283320,note_off,0,0,4,,,,,,,,,4,,,69,0
283320,note_off,360,0,1,,,,,,,,,1,,,81,0
283320,note_off,360,0,5,,,,,,,,,5,,,53,0
283680,set_tempo,720,1,0,,,,,,540540,,,,,,,
285120,note_on,1800,0,5,,,,,,,,,5,,,52,50
285120,set_tempo,1440,1,0,,,,,,500000,,,,,,,
285120,note_on,1800,0,4,,,,,,,,,4,,,60,50
285120,note_on,1800,0,1,,,,,,,,,1,,,76,50
285840,note_on,0,0,4,,,,,,,,,4,,,59,45
285840,note_off,720,0,4,,,,,,,,,4,,,60,0
285840,note_on,0,0,1,,,,,,,,,1,,,77,45
285840,note_off,720,0,1,,,,,,,,,1,,,76,0
286320,note_off,480,0,1,,,,,,,,,1,,,77,0
286320,note_on,0,0,4,,,,,,,,,4,,,62,42
286320,note_off,480,0,4,,,,,,,,,4,,,59,0
286320,note_on,0,0,1,,,,,,,,,1,,,68,42
286440,set_tempo,1320,1,0,,,,,,508474,,,,,,,
286500,note_off,1380,0,5,,,,,,,,,5,,,52,0
286512,note_off,192,0,1,,,,,,,,,1,,,68,0
286512,note_off,192,0,4,,,,,,,,,4,,,62,0
286560,note_on,48,0,1,,,,,,,,,1,,,69,41
286560,note_on,60,0,5,,,,,,,,,5,,,57,41
286560,note_on,48,0,4,,,,,,,,,4,,,60,41
286790,note_off,230,0,1,,,,,,,,,1,,,69,0
286800,note_on,10,0,1,,,,,,,,,1,,,72,40
287030,note_off,230,0,1,,,,,,,,,1,,,72,0
287040,note_off,480,0,4,,,,,,,,,4,,,60,0
287040,note_on,10,0,1,,,,,,,,,1,,,76,38
287040,note_off,480,0,5,,,,,,,,,5,,,57,0
287270,note_off,230,0,1,,,,,,,,,1,,,76,0
287280,note_on,10,0,1,,,,,,,,,1,,,81,37
287510,note_off,230,0,1,,,,,,,,,1,,,81,0
287520,note_on,10,0,1,,,,,,,,,1,,,84,35
287745,set_tempo,1305,1,0,,,,,,517241,,,,,,,
287750,note_off,230,0,1,,,,,,,,,1,,,84,0
287760,note_on,10,0,1,,,,,,,,,1,,,87,34
287952,note_off,192,0,1,,,,,,,,,1,,,87,0
288000,note_on,48,0,1,,,,,,,,,1,,,88,44
288000,note_on,960,0,4,,,,,,,,,4,,,72,44
288000,note_on,960,0,5,,,,,,,,,5,,,64,44
288720,note_on,0,0,1,,,,,,,,,1,,,89,37
288720,note_off,720,0,1,,,,,,,,,1,,,88,0
288720,note_on,0,0,4,,,,,,,,,4,,,71,37
288720,note_off,720,0,4,,,,,,,,,4,,,72,0
289200,note_on,0,0,1,,,,,,,,,1,,,80,33
289200,note_off,480,0,1,,,,,,,,,1,,,89,0
289200,note_on,0,0,4,,,,,,,,,4,,,74,33
289200,note_off,480,0,4,,,,,,,,,4,,,71,0
289200,set_tempo,1455,1,0,,,,,,526315,,,,,,,
289380,note_off,1380,0,5,,,,,,,,,5,,,64,0
289392,note_off,192,0,1,,,,,,,,,1,,,80,0
289392,note_off,192,0,4,,,,,,,,,4,,,74,0
289440,set_tempo,240,1,0,,,,,,625000,,,,,,,
289440,note_on,60,0,5,,,,,,,,,5,,,69,30
289440,note_on,48,0,4,,,,,,,,,4,,,72,30
289440,note_on,48,0,1,,,,,,,,,1,,,81,30
289920,note_off,480,0,5,,,,,,,,,5,,,69,0
289920,note_off,480,0,1,,,,,,,,,1,,,81,0
289920,note_off,480,0,4,,,,,,,,,4,,,72,0
290160,note_on,6840,0,2,,,,,,,,,2,,,88,126
290160,note_on,0,0,2,,,,,,,,,2,,,84,126
290160,note_on,0,0,2,,,,,,,,,2,,,81,126
290160,note_on,240,0,5,,,,,,,,,5,,,57,126
290160,note_on,240,0,4,,,,,,,,,4,,,64,126
290160,set_tempo,720,1,0,,,,,,659340,,,,,,,
290160,note_on,240,0,1,,,,,,,,,1,,,93,126
290160,note_on,0,0,5,,,,,,,,,5,,,69,126
290160,note_on,0,0,4,,,,,,,,,4,,,60,126
290640,note_off,480,0,4,,,,,,,,,4,,,60,0
290640,note_off,480,0,5,,,,,,,,,5,,,69,0
290640,note_off,480,0,1,,,,,,,,,1,,,93,0
290640,note_off,0,0,5,,,,,,,,,5,,,57,0
290640,note_off,0,0,4,,,,,,,,,4,,,64,0
290640,note_off,480,0,2,,,,,,,,,2,,,81,0
290640,note_off,0,0,2,,,,,,,,,2,,,84,0
290640,note_off,0,0,2,,,,,,,,,2,,,88,0
290880,note_on,240,0,5,,,,,,,,,5,,,33,126
290880,note_on,0,0,2,,,,,,,,,2,,,60,126
290880,note_on,0,0,2,,,,,,,,,2,,,57,126
290880,note_on,0,0,5,,,,,,,,,5,,,45,126
290880,set_tempo,720,1,0,,,,,,705882,,,,,,,
290880,note_on,240,0,1,,,,,,,,,1,,,69,126
290880,note_on,240,0,2,,,,,,,,,2,,,64,126
291360,note_off,480,0,5,,,,,,,,,5,,,45,0
291360,note_off,0,0,5,,,,,,,,,5,,,33,0
291360,note_off,480,0,1,,,,,,,,,1,,,69,0
291360,note_off,0,0,2,,,,,,,,,2,,,64,0
291360,note_off,480,0,2,,,,,,,,,2,,,57,0
291360,note_off,0,0,2,,,,,,,,,2,,,60,0
292320,control_change,0,0,4,,,,,,,64,0,4,,,,
292320,control_change,0,0,4,,,,,,,91,100,4,,,,
292320,control_change,0,0,4,,,,,,,93,28,4,,,,
292320,control_change,0,0,4,,,,,,,1,0,4,,,,
292320,pitchwheel,0,0,4,,,,,,,,,4,,0,,
292320,control_change,0,0,1,,,,,,,32,0,1,,,,
292320,control_change,0,0,1,,,,,,,0,0,1,,,,
292320,control_change,0,0,1,,,,,,,64,0,1,,,,
292320,control_change,0,0,1,,,,,,,1,0,1,,,,
292320,control_change,0,0,1,,,,,,,93,1,1,,,,
292320,control_change,0,0,1,,,,,,,91,64,1,,,,
292320,control_change,0,0,1,,,,,,,7,127,1,,,,
292320,control_change,960,0,1,,,,,,,10,73,1,,,,
292320,marker,0,1,0,,,,,,,,,,,,,
292320,time_signature,1440,1,0,2,4,24,8,,,,,,,,,
292320,control_change,0,0,4,,,,,,,64,0,4,,,,
292320,program_change,0,0,1,,,,,,,,,1,0,,,
292320,control_change,0,0,3,,,,,,,64,0,3,,,,
292320,control_change,0,0,3,,,,,,,0,0,3,,,,
292320,control_change,0,0,3,,,,,,,32,0,3,,,,
292320,program_change,0,0,3,,,,,,,,,3,0,,,
292320,control_change,0,0,3,,,,,,,64,0,3,,,,
292320,control_change,0,0,3,,,,,,,64,0,3,,,,
292320,program_change,0,0,4,,,,,,,,,4,0,,,
292320,control_change,0,0,4,,,,,,,32,0,4,,,,
292320,control_change,0,0,4,,,,,,,0,0,4,,,,
292320,control_change,0,0,4,,,,,,,64,0,4,,,,
292320,pitchwheel,0,0,1,,,,,,,,,1,,0,,
292320,set_tempo,0,1,0,,,,,,1578947,,,,,,,
292320,control_change,0,0,4,,,,,,,7,120,4,,,,
292320,control_change,0,0,3,,,,,,,64,0,3,,,,
292320,control_change,0,0,3,,,,,,,7,112,3,,,,
292320,control_change,0,0,5,,,,,,,91,100,5,,,,
292320,control_change,0,0,5,,,,,,,93,28,5,,,,
292320,control_change,0,0,5,,,,,,,1,0,5,,,,
292320,pitchwheel,0,0,5,,,,,,,,,5,,0,,
292320,control_change,0,0,5,,,,,,,64,0,5,,,,
292320,control_change,0,0,5,,,,,,,64,0,5,,,,
292320,control_change,0,0,5,,,,,,,64,0,5,,,,
292320,control_change,0,0,5,,,,,,,64,0,5,,,,
292320,control_change,0,0,5,,,,,,,64,0,5,,,,
292320,control_change,0,0,5,,,,,,,64,0,5,,,,
292320,control_change,0,0,5,,,,,,,0,0,5,,,,
292320,control_change,0,0,2,,,,,,,64,0,2,,,,
292320,control_change,0,0,5,,,,,,,32,0,5,,,,
292320,control_change,14400,0,3,,,,,,,10,64,3,,,,
292320,control_change,0,0,2,,,,,,,64,0,2,,,,
292320,control_change,0,0,2,,,,,,,64,0,2,,,,
292320,control_change,0,0,2,,,,,,,64,0,2,,,,
292320,control_change,0,0,2,,,,,,,64,0,2,,,,
292320,control_change,0,0,2,,,,,,,64,0,2,,,,
292320,control_change,0,0,2,,,,,,,1,0,2,,,,
292320,pitchwheel,0,0,2,,,,,,,,,2,,0,,
292320,control_change,0,0,2,,,,,,,0,0,2,,,,
292320,control_change,0,0,2,,,,,,,32,0,2,,,,
292320,program_change,0,0,2,,,,,,,,,2,0,,,
292320,program_change,0,0,5,,,,,,,,,5,0,,,
292320,control_change,0,0,2,,,,,,,64,0,2,,,,
292320,control_change,1680,0,4,,,,,,,10,55,4,,,,
292320,control_change,0,0,2,,,,,,,91,100,2,,,,
292320,control_change,0,0,3,,,,,,,91,100,3,,,,
292320,control_change,0,0,3,,,,,,,1,0,3,,,,
292320,pitchwheel,0,0,3,,,,,,,,,3,,0,,
292320,control_change,0,0,3,,,,,,,64,0,3,,,,
292320,control_change,0,0,3,,,,,,,64,0,3,,,,
292320,control_change,0,0,3,,,,,,,93,28,3,,,,
292320,control_change,0,0,2,,,,,,,93,28,2,,,,
292320,control_change,960,0,5,,,,,,,10,55,5,,,,
292320,control_change,0,0,5,,,,,,,7,125,5,,,,
292320,control_change,960,0,2,,,,,,,10,73,2,,,,
292320,control_change,0,0,2,,,,,,,7,122,2,,,,
292320,control_change,0,0,3,,,,,,,64,0,3,,,,
293280,control_change,0,0,3,,,,,,,7,102,3,,,,
293280,control_change,960,0,2,,,,,,,64,0,2,,,,
293280,control_change,0,0,2,,,,,,,64,0,2,,,,
293280,set_tempo,960,1,0,,,,,,612244,,,,,,,
293280,control_change,960,0,1,,,,,,,64,0,1,,,,
293280,note_on,0,0,1,,,,,,,,,1,,,59,44
293280,note_on,0,0,1,,,,,,,,,1,,,71,44
293280,control_change,960,0,3,,,,,,,64,0,3,,,,
293280,control_change,0,0,3,,,,,,,64,0,3,,,,
293280,control_change,960,0,4,,,,,,,64,0,4,,,,
293280,control_change,0,0,4,,,,,,,64,0,4,,,,
293280,control_change,960,0,5,,,,,,,64,0,5,,,,
293280,control_change,0,0,5,,,,,,,64,0,5,,,,
293280,note_on,0,0,5,,,,,,,,,5,,,40,44
293436,note_off,156,0,5,,,,,,,,,5,,,40,0
293520,note_on,240,0,3,,,,,,,,,3,,,56,45
293520,note_on,0,0,3,,,,,,,,,3,,,59,45
293676,note_off,156,0,3,,,,,,,,,3,,,59,0
293676,note_off,0,0,3,,,,,,,,,3,,,56,0
293760,note_on,324,0,5,,,,,,,,,5,,,44,46
293916,note_off,156,0,5,,,,,,,,,5,,,44,0
294000,note_on,324,0,3,,,,,,,,,3,,,56,47
294000,note_on,0,0,1,,,,,,,,,1,,,76,52
294000,note_off,720,0,1,,,,,,,,,1,,,71,0
294000,note_on,0,0,3,,,,,,,,,3,,,59,47
294000,note_on,0,0,1,,,,,,,,,1,,,64,52
294007,note_off,7,0,1,,,,,,,,,1,,,59,0
294156,note_off,156,0,3,,,,,,,,,3,,,59,0
294156,note_off,0,0,3,,,,,,,,,3,,,56,0
294240,note_on,324,0,5,,,,,,,,,5,,,51,47
294396,note_off,156,0,5,,,,,,,,,5,,,51,0
294480,note_off,473,0,1,,,,,,,,,1,,,64,0
294480,note_off,0,0,1,,,,,,,,,1,,,76,0
294480,note_on,0,0,1,,,,,,,,,1,,,63,48
294480,note_on,324,0,3,,,,,,,,,3,,,54,48
294480,note_on,0,0,3,,,,,,,,,3,,,57,48
294480,note_on,0,0,1,,,,,,,,,1,,,75,48
294636,note_off,156,0,3,,,,,,,,,3,,,57,0
294636,note_off,0,0,3,,,,,,,,,3,,,54,0
294672,note_off,0,0,1,,,,,,,,,1,,,75,0
294672,note_off,192,0,1,,,,,,,,,1,,,63,0
294720,note_on,0,0,1,,,,,,,,,1,,,76,49
294720,note_on,48,0,1,,,,,,,,,1,,,64,49
294720,note_on,324,0,5,,,,,,,,,5,,,49,49
294876,note_off,156,0,5,,,,,,,,,5,,,49,0
294960,note_on,0,0,3,,,,,,,,,3,,,56,50
294960,note_on,324,0,3,,,,,,,,,3,,,52,50
295080,note_off,360,0,1,,,,,,,,,1,,,76,0
295080,note_off,0,0,1,,,,,,,,,1,,,64,0
295116,note_off,156,0,3,,,,,,,,,3,,,56,0
295116,note_off,0,0,3,,,,,,,,,3,,,52,0
295147,set_tempo,1867,1,0,,,,,,638297,,,,,,,
295200,note_on,324,0,5,,,,,,,,,5,,,45,54
295200,note_on,120,0,1,,,,,,,,,1,,,66,54
295200,note_on,0,0,1,,,,,,,,,1,,,78,54
295200,set_tempo,53,1,0,,,,,,625000,,,,,,,
295356,note_off,156,0,5,,,,,,,,,5,,,45,0
295440,note_on,0,0,3,,,,,,,,,3,,,57,51
295440,note_on,324,0,3,,,,,,,,,3,,,61,51
295560,note_off,0,0,1,,,,,,,,,1,,,66,0
295560,note_off,360,0,1,,,,,,,,,1,,,78,0
295596,note_off,156,0,3,,,,,,,,,3,,,57,0
295596,note_off,0,0,3,,,,,,,,,3,,,61,0
295680,note_on,324,0,5,,,,,,,,,5,,,46,49
295680,note_on,120,0,1,,,,,,,,,1,,,68,49
295680,note_on,0,0,1,,,,,,,,,1,,,80,49
295836,note_off,156,0,5,,,,,,,,,5,,,46,0
295920,note_on,0,0,3,,,,,,,,,3,,,58,47
295920,note_on,324,0,3,,,,,,,,,3,,,61,47
295968,note_off,288,0,1,,,,,,,,,1,,,80,0
295968,note_off,0,0,1,,,,,,,,,1,,,68,0
296040,note_on,72,0,1,,,,,,,,,1,,,76,46
296040,note_on,0,0,1,,,,,,,,,1,,,64,46
296076,note_off,0,0,3,,,,,,,,,3,,,61,0
296076,note_off,156,0,3,,,,,,,,,3,,,58,0
296136,note_off,96,0,1,,,,,,,,,1,,,64,0
296136,note_off,0,0,1,,,,,,,,,1,,,76,0
296160,note_on,324,0,5,,,,,,,,,5,,,47,50
296160,note_on,24,0,1,,,,,,,,,1,,,80,50
296160,note_on,0,0,1,,,,,,,,,1,,,68,50
296316,note_off,156,0,5,,,,,,,,,5,,,47,0
296400,note_on,84,0,5,,,,,,,,,5,,,59,51
296400,note_on,324,0,3,,,,,,,,,3,,,64,51
296640,note_on,0,0,3,,,,,,,,,3,,,63,42
296640,note_off,240,0,3,,,,,,,,,3,,,64,0
296640,note_off,480,0,1,,,,,,,,,1,,,68,0
296640,note_on,0,0,1,,,,,,,,,1,,,78,42
296640,note_on,0,0,1,,,,,,,,,1,,,66,42
296640,note_off,0,0,1,,,,,,,,,1,,,80,0
296880,note_off,480,0,5,,,,,,,,,5,,,59,0
296880,note_on,0,0,5,,,,,,,,,5,,,57,38
296880,set_tempo,1680,1,0,,,,,,638297,,,,,,,
297000,note_off,0,0,1,,,,,,,,,1,,,66,0
297000,note_off,360,0,1,,,,,,,,,1,,,78,0
297000,set_tempo,120,1,0,,,,,,659340,,,,,,,
297030,note_off,390,0,3,,,,,,,,,3,,,63,0
297036,note_off,156,0,5,,,,,,,,,5,,,57,0
297120,note_on,84,0,5,,,,,,,,,5,,,44,38
297120,set_tempo,120,1,0,,,,,,625000,,,,,,,
297120,note_on,0,0,1,,,,,,,,,1,,,59,38
297120,note_on,120,0,1,,,,,,,,,1,,,71,38
297276,note_off,156,0,5,,,,,,,,,5,,,44,0
297360,note_on,0,0,3,,,,,,,,,3,,,56,39
297360,note_on,330,0,3,,,,,,,,,3,,,64,39
297516,note_off,0,0,3,,,,,,,,,3,,,64,0
297516,note_off,156,0,3,,,,,,,,,3,,,56,0
297600,note_on,324,0,5,,,,,,,,,5,,,40,41
297756,note_off,156,0,5,,,,,,,,,5,,,40,0
297840,note_on,0,0,1,,,,,,,,,1,,,64,42
297840,note_on,0,0,1,,,,,,,,,1,,,76,42
297840,note_off,0,0,1,,,,,,,,,1,,,71,0
297840,note_off,720,0,1,,,,,,,,,1,,,59,0
297840,note_on,0,0,3,,,,,,,,,3,,,59,42
297840,note_on,324,0,3,,,,,,,,,3,,,56,42
297996,note_off,156,0,3,,,,,,,,,3,,,59,0
297996,note_off,0,0,3,,,,,,,,,3,,,56,0
298080,note_on,324,0,5,,,,,,,,,5,,,47,44
298236,note_off,156,0,5,,,,,,,,,5,,,47,0
298320,note_off,0,0,1,,,,,,,,,1,,,64,0
298320,note_on,0,0,1,,,,,,,,,1,,,75,45
298320,note_on,0,0,3,,,,,,,,,3,,,54,45
298320,note_on,0,0,1,,,,,,,,,1,,,63,45
298320,note_off,480,0,1,,,,,,,,,1,,,76,0
298320,note_on,324,0,3,,,,,,,,,3,,,57,45
298476,note_off,0,0,3,,,,,,,,,3,,,57,0
298476,note_off,156,0,3,,,,,,,,,3,,,54,0
298512,note_off,192,0,1,,,,,,,,,1,,,63,0
298512,note_off,0,0,1,,,,,,,,,1,,,75,0
298560,note_on,48,0,1,,,,,,,,,1,,,76,47
298560,note_on,0,0,1,,,,,,,,,1,,,64,47
298560,note_on,324,0,5,,,,,,,,,5,,,49,47
298716,note_off,156,0,5,,,,,,,,,5,,,49,0
298800,note_on,0,0,3,,,,,,,,,3,,,56,48
298800,note_on,324,0,3,,,,,,,,,3,,,52,48
298920,note_off,0,0,1,,,,,,,,,1,,,76,0
298920,note_off,360,0,1,,,,,,,,,1,,,64,0
298956,note_off,0,0,3,,,,,,,,,3,,,52,0
298956,note_off,156,0,3,,,,,,,,,3,,,56,0
298995,set_tempo,1875,1,0,,,,,,638297,,,,,,,
299040,note_on,324,0,5,,,,,,,,,5,,,45,53
299040,set_tempo,45,1,0,,,,,,625000,,,,,,,
299040,note_on,120,0,1,,,,,,,,,1,,,78,53
299040,note_on,0,0,1,,,,,,,,,1,,,66,53
299196,note_off,156,0,5,,,,,,,,,5,,,45,0
299280,note_on,324,0,3,,,,,,,,,3,,,57,48
299280,note_on,0,0,3,,,,,,,,,3,,,61,48
299436,note_off,156,0,3,,,,,,,,,3,,,61,0
299436,note_off,0,0,3,,,,,,,,,3,,,57,0
299520,note_on,324,0,5,,,,,,,,,5,,,47,46
299676,note_off,156,0,5,,,,,,,,,5,,,47,0
299760,note_on,0,0,1,,,,,,,,,1,,,80,45
299760,note_on,0,0,1,,,,,,,,,1,,,68,45
299760,note_off,0,0,1,,,,,,,,,1,,,78,0
299760,note_on,0,0,3,,,,,,,,,3,,,59,45
299760,note_on,324,0,3,,,,,,,,,3,,,63,45
299760,note_off,720,0,1,,,,,,,,,1,,,66,0
299856,note_off,96,0,1,,,,,,,,,1,,,80,0
299856,note_off,0,0,1,,,,,,,,,1,,,68,0
299880,note_on,24,0,1,,,,,,,,,1,,,69,44
299880,note_on,0,0,1,,,,,,,,,1,,,81,44
299916,note_off,0,0,3,,,,,,,,,3,,,63,0
299916,note_off,156,0,3,,,,,,,,,3,,,59,0
299960,set_tempo,920,1,0,,,,,,631578,,,,,,,
299976,note_off,96,0,1,,,,,,,,,1,,,81,0
299976,note_off,0,0,1,,,,,,,,,1,,,69,0
300000,note_on,24,0,1,,,,,,,,,1,,,69,47
300000,note_on,0,0,1,,,,,,,,,1,,,81,47
300000,note_on,324,0,5,,,,,,,,,5,,,40,47
300156,note_off,156,0,5,,,,,,,,,5,,,40,0
300240,note_on,324,0,3,,,,,,,,,3,,,63,51
300240,note_on,84,0,5,,,,,,,,,5,,,59,51
300480,note_on,0,0,3,,,,,,,,,3,,,64,42
300480,note_off,240,0,3,,,,,,,,,3,,,63,0
300480,note_off,480,0,1,,,,,,,,,1,,,81,0
300480,note_off,0,0,1,,,,,,,,,1,,,69,0
300480,note_on,0,0,1,,,,,,,,,1,,,80,42
300480,note_on,0,0,1,,,,,,,,,1,,,68,42
300636,note_off,156,0,3,,,,,,,,,3,,,64,0
300720,set_tempo,760,1,0,,,,,,638297,,,,,,,
300720,note_off,480,0,5,,,,,,,,,5,,,59,0
300720,note_on,0,0,5,,,,,,,,,5,,,52,38
300840,set_tempo,120,1,0,,,,,,722891,,,,,,,
300840,note_off,360,0,1,,,,,,,,,1,,,68,0
300840,note_off,0,0,1,,,,,,,,,1,,,80,0
300876,note_off,156,0,5,,,,,,,,,5,,,52,0
300960,note_on,0,0,1,,,,,,,,,1,,,71,47
300960,control_change,324,0,3,,,,,,,64,0,3,,,,
300960,set_tempo,120,1,0,,,,,,625000,,,,,,,
300960,note_on,0,0,1,,,,,,,,,1,,,83,47
300960,note_on,0,0,5,,,,,,,,,5,,,44,47
300960,control_change,84,0,5,,,,,,,64,0,5,,,,
300960,control_change,7680,0,4,,,,,,,64,0,4,,,,
300960,control_change,120,0,1,,,,,,,64,0,1,,,,
300960,control_change,7680,0,2,,,,,,,64,0,2,,,,
301116,note_off,156,0,5,,,,,,,,,5,,,44,0
301200,note_on,240,0,3,,,,,,,,,3,,,56,49
301200,note_on,0,0,3,,,,,,,,,3,,,59,49
301320,note_off,0,0,1,,,,,,,,,1,,,83,0
301320,note_off,360,0,1,,,,,,,,,1,,,71,0
301356,note_off,156,0,3,,,,,,,,,3,,,59,0
301356,note_off,0,0,3,,,,,,,,,3,,,56,0
301440,note_on,120,0,1,,,,,,,,,1,,,73,55
301440,note_on,0,0,1,,,,,,,,,1,,,85,55
301440,note_on,324,0,5,,,,,,,,,5,,,40,55
301596,note_off,156,0,5,,,,,,,,,5,,,40,0
301680,note_on,0,0,3,,,,,,,,,3,,,61,49
301680,note_on,0,0,3,,,,,,,,,3,,,59,49
301680,note_on,324,0,3,,,,,,,,,3,,,53,49
301800,note_off,360,0,1,,,,,,,,,1,,,85,0
301800,note_off,0,0,1,,,,,,,,,1,,,73,0
301836,note_off,156,0,3,,,,,,,,,3,,,59,0
301836,note_off,0,0,3,,,,,,,,,3,,,61,0
301836,note_off,0,0,3,,,,,,,,,3,,,53,0
301920,note_on,120,0,1,,,,,,,,,1,,,83,48
301920,note_on,0,0,1,,,,,,,,,1,,,71,48
301920,note_on,324,0,5,,,,,,,,,5,,,42,48
302076,note_off,156,0,5,,,,,,,,,5,,,42,0
302112,note_off,0,0,1,,,,,,,,,1,,,83,0
302112,note_off,192,0,1,,,,,,,,,1,,,71,0
302160,note_on,324,0,3,,,,,,,,,3,,,57,51
302160,note_on,84,0,5,,,,,,,,,5,,,49,51
302160,note_on,0,0,1,,,,,,,,,1,,,81,46
302160,note_on,48,0,1,,,,,,,,,1,,,69,46
302352,note_off,192,0,1,,,,,,,,,1,,,81,0
302352,note_off,0,0,1,,,,,,,,,1,,,69,0
302400,note_on,240,0,5,,,,,,,,,5,,,54,43
302400,note_on,48,0,1,,,,,,,,,1,,,68,43
302400,note_on,0,0,1,,,,,,,,,1,,,80,43
302407,note_off,7,0,5,,,,,,,,,5,,,49,0
302640,note_on,233,0,5,,,,,,,,,5,,,48,40
302647,note_off,7,0,5,,,,,,,,,5,,,54,0
302760,note_off,360,0,1,,,,,,,,,1,,,80,0
302760,note_off,0,0,1,,,,,,,,,1,,,68,0
302760,set_tempo,1800,1,0,,,,,,638297,,,,,,,
302782,note_off,622,0,3,,,,,,,,,3,,,57,0
302796,note_off,149,0,5,,,,,,,,,5,,,48,0
302880,note_on,120,0,1,,,,,,,,,1,,,81,41
302880,note_on,0,0,1,,,,,,,,,1,,,69,41
302880,note_on,84,0,5,,,,,,,,,5,,,35,41
302880,set_tempo,120,1,0,,,,,,625000,,,,,,,
303036,note_off,156,0,5,,,,,,,,,5,,,35,0
303120,note_on,0,0,3,,,,,,,,,3,,,54,43
303120,note_on,0,0,3,,,,,,,,,3,,,59,43
303120,note_on,338,0,3,,,,,,,,,3,,,51,43
303240,note_off,0,0,1,,,,,,,,,1,,,81,0
303240,note_off,360,0,1,,,,,,,,,1,,,69,0
303276,note_off,0,0,3,,,,,,,,,3,,,59,0
303276,note_off,156,0,3,,,,,,,,,3,,,54,0
303276,note_off,0,0,3,,,,,,,,,3,,,51,0
303360,note_on,0,0,1,,,,,,,,,1,,,71,50
303360,note_on,120,0,1,,,,,,,,,1,,,83,50
303360,note_on,324,0,5,,,,,,,,,5,,,39,50
303516,note_off,156,0,5,,,,,,,,,5,,,39,0
303600,note_on,324,0,3,,,,,,,,,3,,,59,47
303600,note_on,0,0,3,,,,,,,,,3,,,54,47
303600,note_on,0,0,3,,,,,,,,,3,,,57,47
303720,note_off,360,0,1,,,,,,,,,1,,,71,0
303720,note_off,0,0,1,,,,,,,,,1,,,83,0
303756,note_off,156,0,3,,,,,,,,,3,,,57,0
303756,note_off,0,0,3,,,,,,,,,3,,,59,0
303756,note_off,0,0,3,,,,,,,,,3,,,54,0
303840,note_on,324,0,5,,,,,,,,,5,,,44,49
303840,note_on,120,0,1,,,,,,,,,1,,,76,49
303840,note_on,0,0,1,,,,,,,,,1,,,64,49
303996,note_off,156,0,5,,,,,,,,,5,,,44,0
304032,note_off,0,0,1,,,,,,,,,1,,,76,0
304032,note_off,192,0,1,,,,,,,,,1,,,64,0
304080,note_on,0,0,1,,,,,,,,,1,,,78,52
304080,note_on,48,0,1,,,,,,,,,1,,,66,52
304080,note_on,0,0,3,,,,,,,,,3,,,56,52
304080,note_on,324,0,3,,,,,,,,,3,,,59,52
304236,note_off,0,0,3,,,,,,,,,3,,,59,0
304236,note_off,156,0,3,,,,,,,,,3,,,56,0
304272,note_off,192,0,1,,,,,,,,,1,,,78,0
304272,note_off,0,0,1,,,,,,,,,1,,,66,0
304320,note_on,324,0,5,,,,,,,,,5,,,46,56
304320,note_on,48,0,1,,,,,,,,,1,,,80,56
304320,note_on,0,0,1,,,,,,,,,1,,,68,56
304476,note_off,156,0,5,,,,,,,,,5,,,46,0
304560,note_on,0,0,3,,,,,,,,,3,,,58,52
304560,note_on,324,0,3,,,,,,,,,3,,,61,52
304680,set_tempo,1800,1,0,,,,,,659340,,,,,,,
304716,note_off,156,0,3,,,,,,,,,3,,,58,0
304716,note_off,0,0,3,,,,,,,,,3,,,61,0
304800,set_tempo,120,1,0,,,,,,625000,,,,,,,
304800,note_on,0,0,1,,,,,,,,,1,,,66,50
304800,note_on,0,0,1,,,,,,,,,1,,,78,50
304800,note_on,324,0,5,,,,,,,,,5,,,45,50
304800,note_off,0,0,1,,,,,,,,,1,,,80,0
304800,note_off,480,0,1,,,,,,,,,1,,,68,0
304956,note_off,156,0,5,,,,,,,,,5,,,45,0
304992,note_off,0,0,1,,,,,,,,,1,,,78,0
304992,note_off,192,0,1,,,,,,,,,1,,,66,0
305040,note_on,48,0,1,,,,,,,,,1,,,66,52
305040,note_on,324,0,3,,,,,,,,,3,,,61,52
305040,note_on,0,0,3,,,,,,,,,3,,,52,52
305040,note_on,0,0,3,,,,,,,,,3,,,54,52
305040,note_on,0,0,1,,,,,,,,,1,,,78,52
305196,note_off,0,0,3,,,,,,,,,3,,,61,0
305196,note_off,0,0,3,,,,,,,,,3,,,54,0
305196,note_off,156,0,3,,,,,,,,,3,,,52,0
305232,note_off,192,0,1,,,,,,,,,1,,,78,0
305232,note_off,0,0,1,,,,,,,,,1,,,66,0
305280,note_on,0,0,1,,,,,,,,,1,,,78,54
305280,note_on,48,0,1,,,,,,,,,1,,,66,54
305280,note_on,324,0,5,,,,,,,,,5,,,35,54
305436,note_off,156,0,5,,,,,,,,,5,,,35,0
305472,note_off,0,0,1,,,,,,,,,1,,,66,0
305472,note_off,192,0,1,,,,,,,,,1,,,78,0
305520,note_on,324,0,3,,,,,,,,,3,,,51,56
305520,note_on,0,0,3,,,,,,,,,3,,,54,56
305520,note_on,48,0,1,,,,,,,,,1,,,81,56
305520,note_on,0,0,3,,,,,,,,,3,,,59,56
305520,note_on,0,0,1,,,,,,,,,1,,,69,56
305676,note_off,0,0,3,,,,,,,,,3,,,51,0
305676,note_off,0,0,3,,,,,,,,,3,,,54,0
305676,note_off,156,0,3,,,,,,,,,3,,,59,0
305700,note_on,0,0,1,,,,,,,,,1,,,68,57
305700,note_off,0,0,1,,,,,,,,,1,,,81,0
305700,note_on,0,0,1,,,,,,,,,1,,,80,57
305700,note_off,180,0,1,,,,,,,,,1,,,69,0
305748,note_off,48,0,1,,,,,,,,,1,,,80,0
305748,note_off,0,0,1,,,,,,,,,1,,,68,0
305760,note_on,324,0,5,,,,,,,,,5,,,40,58
305760,note_on,12,0,1,,,,,,,,,1,,,80,58
305760,note_on,0,0,1,,,,,,,,,1,,,68,58
305916,note_off,156,0,5,,,,,,,,,5,,,40,0
306000,note_on,324,0,3,,,,,,,,,3,,,59,60
306000,note_on,0,0,3,,,,,,,,,3,,,56,60
306120,note_off,0,0,1,,,,,,,,,1,,,80,0
306120,note_off,360,0,1,,,,,,,,,1,,,68,0
306156,note_off,0,0,3,,,,,,,,,3,,,59,0
306156,note_off,156,0,3,,,,,,,,,3,,,56,0
306240,note_on,0,0,1,,,,,,,,,1,,,71,66
306240,note_on,324,0,5,,,,,,,,,5,,,44,66
306240,note_on,120,0,1,,,,,,,,,1,,,83,66
306396,note_off,156,0,5,,,,,,,,,5,,,44,0
306480,note_on,324,0,3,,,,,,,,,3,,,59,61
306480,note_on,0,0,3,,,,,,,,,3,,,56,61
306600,note_off,0,0,1,,,,,,,,,1,,,83,0
306600,note_off,360,0,1,,,,,,,,,1,,,71,0
306600,set_tempo,1800,1,0,,,,,,652173,,,,,,,
306636,note_off,0,0,3,,,,,,,,,3,,,59,0
306636,note_off,156,0,3,,,,,,,,,3,,,56,0
306720,note_on,120,0,1,,,,,,,,,1,,,66,58
306720,note_on,0,0,1,,,,,,,,,1,,,78,58
306720,note_on,324,0,5,,,,,,,,,5,,,45,58
306720,set_tempo,120,1,0,,,,,,625000,,,,,,,
306876,note_off,156,0,5,,,,,,,,,5,,,45,0
306912,note_off,192,0,1,,,,,,,,,1,,,78,0
306912,note_off,0,0,1,,,,,,,,,1,,,66,0
306960,note_on,324,0,3,,,,,,,,,3,,,61,55
306960,note_on,0,0,3,,,,,,,,,3,,,54,55
306960,note_on,0,0,3,,,,,,,,,3,,,52,55
306960,note_on,48,0,1,,,,,,,,,1,,,78,55
306960,note_on,0,0,1,,,,,,,,,1,,,66,55
307116,note_off,156,0,3,,,,,,,,,3,,,52,0
307116,note_off,0,0,3,,,,,,,,,3,,,54,0
307116,note_off,0,0,3,,,,,,,,,3,,,61,0
307152,note_off,192,0,1,,,,,,,,,1,,,66,0
307152,note_off,0,0,1,,,,,,,,,1,,,78,0
307200,note_on,0,0,1,,,,,,,,,1,,,66,53
307200,note_on,324,0,5,,,,,,,,,5,,,47,53
307200,note_on,48,0,1,,,,,,,,,1,,,78,53
307356,note_off,156,0,5,,,,,,,,,5,,,47,0
307392,note_off,192,0,1,,,,,,,,,1,,,66,0
307392,note_off,0,0,1,,,,,,,,,1,,,78,0
307440,note_on,0,0,3,,,,,,,,,3,,,57,50
307440,note_on,0,0,3,,,,,,,,,3,,,59,50
307440,note_on,324,0,3,,,,,,,,,3,,,51,50
307440,note_on,0,0,1,,,,,,,,,1,,,81,50
307440,note_on,48,0,1,,,,,,,,,1,,,69,50
307596,note_off,0,0,3,,,,,,,,,3,,,59,0
307596,note_off,0,0,3,,,,,,,,,3,,,51,0
307596,note_off,156,0,3,,,,,,,,,3,,,57,0
307620,note_on,0,0,1,,,,,,,,,1,,,68,48
307620,note_off,0,0,1,,,,,,,,,1,,,69,0
307620,note_off,180,0,1,,,,,,,,,1,,,81,0
307620,note_on,0,0,1,,,,,,,,,1,,,80,48
307640,set_tempo,920,1,0,,,,,,631578,,,,,,,
307668,note_off,0,0,1,,,,,,,,,1,,,80,0
307668,note_off,48,0,1,,,,,,,,,1,,,68,0
307680,note_on,12,0,1,,,,,,,,,1,,,76,47
307680,note_on,324,0,5,,,,,,,,,5,,,40,47
307680,note_on,0,0,1,,,,,,,,,1,,,64,47
307836,note_off,156,0,5,,,,,,,,,5,,,40,0
307920,note_on,324,0,3,,,,,,,,,3,,,59,51
307920,note_on,84,0,5,,,,,,,,,5,,,56,51
308040,note_off,360,0,1,,,,,,,,,1,,,64,0
308040,note_off,0,0,1,,,,,,,,,1,,,76,0
308160,note_off,240,0,3,,,,,,,,,3,,,59,0
308160,note_on,0,0,3,,,,,,,,,3,,,64,37
308287,note_off,367,0,5,,,,,,,,,5,,,56,0
308316,note_off,156,0,3,,,,,,,,,3,,,64,0
308400,set_tempo,760,1,0,,,,,,638297,,,,,,,
308520,set_tempo,120,1,0,,,,,,689655,,,,,,,
308640,note_on,0,0,1,,,,,,,,,1,,,71,47
308640,note_on,0,0,1,,,,,,,,,1,,,83,47
308640,control_change,7680,0,2,,,,,,,64,0,2,,,,
308640,control_change,7680,0,4,,,,,,,64,0,4,,,,
308640,control_change,353,0,5,,,,,,,64,0,5,,,,
308640,note_on,0,0,5,,,,,,,,,5,,,44,47
308640,set_tempo,120,1,0,,,,,,625000,,,,,,,
308640,control_change,600,0,1,,,,,,,64,0,1,,,,
308640,control_change,324,0,3,,,,,,,64,0,3,,,,
308796,note_off,156,0,5,,,,,,,,,5,,,44,0
308880,note_on,240,0,3,,,,,,,,,3,,,59,49
308880,note_on,0,0,3,,,,,,,,,3,,,56,49
309000,note_off,0,0,1,,,,,,,,,1,,,71,0
309000,note_off,360,0,1,,,,,,,,,1,,,83,0
309036,note_off,156,0,3,,,,,,,,,3,,,56,0
309036,note_off,0,0,3,,,,,,,,,3,,,59,0
309120,note_on,120,0,1,,,,,,,,,1,,,85,55
309120,note_on,324,0,5,,,,,,,,,5,,,40,55
309120,note_on,0,0,1,,,,,,,,,1,,,73,55
309276,note_off,156,0,5,,,,,,,,,5,,,40,0
309360,note_on,324,0,3,,,,,,,,,3,,,59,49
309360,note_on,0,0,3,,,,,,,,,3,,,53,49
309360,note_on,0,0,3,,,,,,,,,3,,,61,49
309480,note_off,360,0,1,,,,,,,,,1,,,73,0
309480,note_off,0,0,1,,,,,,,,,1,,,85,0
309516,note_off,0,0,3,,,,,,,,,3,,,61,0
309516,note_off,156,0,3,,,,,,,,,3,,,53,0
309516,note_off,0,0,3,,,,,,,,,3,,,59,0
309600,note_on,0,0,1,,,,,,,,,1,,,83,48
309600,note_on,120,0,1,,,,,,,,,1,,,71,48
309600,note_on,324,0,5,,,,,,,,,5,,,42,48
309756,note_off,156,0,5,,,,,,,,,5,,,42,0
309792,note_off,0,0,1,,,,,,,,,1,,,71,0
309792,note_off,192,0,1,,,,,,,,,1,,,83,0
309840,note_on,324,0,3,,,,,,,,,3,,,57,51
309840,note_on,0,0,1,,,,,,,,,1,,,69,46
309840,note_on,48,0,1,,,,,,,,,1,,,81,46
309840,note_on,84,0,5,,,,,,,,,5,,,49,51
310032,note_off,192,0,1,,,,,,,,,1,,,69,0
310032,note_off,0,0,1,,,,,,,,,1,,,81,0
310080,note_on,240,0,5,,,,,,,,,5,,,54,43
310080,note_on,48,0,1,,,,,,,,,1,,,80,43
310080,note_on,0,0,1,,,,,,,,,1,,,68,43
310087,note_off,7,0,5,,,,,,,,,5,,,49,0
310320,note_on,233,0,5,,,,,,,,,5,,,48,40
310327,note_off,7,0,5,,,,,,,,,5,,,54,0
310440,note_off,360,0,1,,,,,,,,,1,,,68,0
310440,note_off,0,0,1,,,,,,,,,1,,,80,0
310440,set_tempo,1800,1,0,,,,,,638297,,,,,,,
310462,note_off,622,0,3,,,,,,,,,3,,,57,0
310476,note_off,149,0,5,,,,,,,,,5,,,48,0
310560,note_on,0,0,1,,,,,,,,,1,,,81,41
310560,note_on,84,0,5,,,,,,,,,5,,,35,41
310560,set_tempo,120,1,0,,,,,,625000,,,,,,,
310560,note_on,120,0,1,,,,,,,,,1,,,69,41
310716,note_off,156,0,5,,,,,,,,,5,,,35,0
310800,note_on,0,0,3,,,,,,,,,3,,,51,43
310800,note_on,0,0,3,,,,,,,,,3,,,59,43
310800,note_on,338,0,3,,,,,,,,,3,,,54,43
310920,note_off,360,0,1,,,,,,,,,1,,,81,0
310920,note_off,0,0,1,,,,,,,,,1,,,69,0
310956,note_off,0,0,3,,,,,,,,,3,,,54,0
310956,note_off,0,0,3,,,,,,,,,3,,,59,0
310956,note_off,156,0,3,,,,,,,,,3,,,51,0
311040,note_on,120,0,1,,,,,,,,,1,,,71,50
311040,note_on,0,0,1,,,,,,,,,1,,,83,50
311040,note_on,324,0,5,,,,,,,,,5,,,39,50
311196,note_off,156,0,5,,,,,,,,,5,,,39,0
311280,note_on,0,0,3,,,,,,,,,3,,,59,47
311280,note_on,0,0,3,,,,,,,,,3,,,54,47
311280,note_on,324,0,3,,,,,,,,,3,,,57,47
311400,note_off,0,0,1,,,,,,,,,1,,,71,0
311400,note_off,360,0,1,,,,,,,,,1,,,83,0
311436,note_off,156,0,3,,,,,,,,,3,,,59,0
311436,note_off,0,0,3,,,,,,,,,3,,,54,0
311436,note_off,0,0,3,,,,,,,,,3,,,57,0
311520,note_on,0,0,1,,,,,,,,,1,,,76,49
311520,note_on,120,0,1,,,,,,,,,1,,,64,49
311520,note_on,324,0,5,,,,,,,,,5,,,44,49
311676,note_off,156,0,5,,,,,,,,,5,,,44,0
311712,note_off,0,0,1,,,,,,,,,1,,,64,0
311712,note_off,192,0,1,,,,,,,,,1,,,76,0
311760,note_on,0,0,3,,,,,,,,,3,,,59,52
311760,note_on,0,0,1,,,,,,,,,1,,,66,52
311760,note_on,48,0,1,,,,,,,,,1,,,78,52
311760,note_on,324,0,3,,,,,,,,,3,,,56,52
311916,note_off,0,0,3,,,,,,,,,3,,,56,0
311916,note_off,156,0,3,,,,,,,,,3,,,59,0
311952,note_off,0,0,1,,,,,,,,,1,,,78,0
311952,note_off,192,0,1,,,,,,,,,1,,,66,0
312000,note_on,48,0,1,,,,,,,,,1,,,68,56
312000,note_on,0,0,1,,,,,,,,,1,,,80,56
312000,note_on,324,0,5,,,,,,,,,5,,,46,56
312156,note_off,156,0,5,,,,,,,,,5,,,46,0
312240,note_on,324,0,3,,,,,,,,,3,,,58,52
312240,note_on,0,0,3,,,,,,,,,3,,,61,52
312360,set_tempo,1800,1,0,,,,,,659340,,,,,,,
312396,note_off,156,0,3,,,,,,,,,3,,,61,0
312396,note_off,0,0,3,,,,,,,,,3,,,58,0
312480,note_on,324,0,5,,,,,,,,,5,,,45,50
312480,set_tempo,120,1,0,,,,,,625000,,,,,,,
312480,note_off,480,0,1,,,,,,,,,1,,,80,0
312480,note_off,0,0,1,,,,,,,,,1,,,68,0
312480,note_on,0,0,1,,,,,,,,,1,,,66,50
312480,note_on,0,0,1,,,,,,,,,1,,,78,50
312636,note_off,156,0,5,,,,,,,,,5,,,45,0
312672,note_off,192,0,1,,,,,,,,,1,,,78,0
312672,note_off,0,0,1,,,,,,,,,1,,,66,0
312720,note_on,0,0,3,,,,,,,,,3,,,61,52
312720,note_on,324,0,3,,,,,,,,,3,,,52,52
312720,note_on,0,0,3,,,,,,,,,3,,,54,52
312720,note_on,0,0,1,,,,,,,,,1,,,66,52
312720,note_on,48,0,1,,,,,,,,,1,,,78,52
312876,note_off,156,0,3,,,,,,,,,3,,,61,0
312876,note_off,0,0,3,,,,,,,,,3,,,54,0
312876,note_off,0,0,3,,,,,,,,,3,,,52,0
312912,note_off,192,0,1,,,,,,,,,1,,,66,0
312912,note_off,0,0,1,,,,,,,,,1,,,78,0
312960,note_on,324,0,5,,,,,,,,,5,,,35,54
312960,note_on,0,0,1,,,,,,,,,1,,,66,54
312960,note_on,48,0,1,,,,,,,,,1,,,78,54
313116,note_off,156,0,5,,,,,,,,,5,,,35,0
313152,note_off,0,0,1,,,,,,,,,1,,,78,0
313152,note_off,192,0,1,,,,,,,,,1,,,66,0
313200,note_on,48,0,1,,,,,,,,,1,,,69,56
313200,note_on,0,0,3,,,,,,,,,3,,,54,56
313200,note_on,0,0,3,,,,,,,,,3,,,51,56
313200,note_on,324,0,3,,,,,,,,,3,,,59,56
313200,note_on,0,0,1,,,,,,,,,1,,,81,56
313356,note_off,0,0,3,,,,,,,,,3,,,59,0
313356,note_off,156,0,3,,,,,,,,,3,,,51,0
313356,note_off,0,0,3,,,,,,,,,3,,,54,0
313380,note_off,0,0,1,,,,,,,,,1,,,69,0
313380,note_off,180,0,1,,,,,,,,,1,,,81,0
313380,note_on,0,0,1,,,,,,,,,1,,,68,57
313380,note_on,0,0,1,,,,,,,,,1,,,80,57
313428,note_off,48,0,1,,,,,,,,,1,,,68,0
313428,note_off,0,0,1,,,,,,,,,1,,,80,0
313440,note_on,12,0,1,,,,,,,,,1,,,68,58
313440,note_on,0,0,1,,,,,,,,,1,,,80,58
313440,note_on,324,0,5,,,,,,,,,5,,,40,58
313596,note_off,156,0,5,,,,,,,,,5,,,40,0
313680,note_on,324,0,3,,,,,,,,,3,,,56,60
313680,note_on,0,0,3,,,,,,,,,3,,,59,60
313800,note_off,360,0,1,,,,,,,,,1,,,80,0
313800,note_off,0,0,1,,,,,,,,,1,,,68,0
313836,note_off,0,0,3,,,,,,,,,3,,,56,0
313836,note_off,156,0,3,,,,,,,,,3,,,59,0
313920,note_on,324,0,5,,,,,,,,,5,,,44,66
313920,note_on,0,0,1,,,,,,,,,1,,,83,66
313920,note_on,120,0,1,,,,,,,,,1,,,71,66
314076,note_off,156,0,5,,,,,,,,,5,,,44,0
314160,note_on,324,0,3,,,,,,,,,3,,,56,61
314160,note_on,0,0,3,,,,,,,,,3,,,59,61
314280,set_tempo,1800,1,0,,,,,,652173,,,,,,,
314280,note_off,0,0,1,,,,,,,,,1,,,71,0
314280,note_off,360,0,1,,,,,,,,,1,,,83,0
314316,note_off,156,0,3,,,,,,,,,3,,,59,0
314316,note_off,0,0,3,,,,,,,,,3,,,56,0
314400,note_on,324,0,5,,,,,,,,,5,,,45,58
314400,set_tempo,120,1,0,,,,,,625000,,,,,,,
314400,note_on,0,0,1,,,,,,,,,1,,,66,58
314400,note_on,120,0,1,,,,,,,,,1,,,78,58
314556,note_off,156,0,5,,,,,,,,,5,,,45,0
314592,note_off,0,0,1,,,,,,,,,1,,,78,0
314592,note_off,192,0,1,,,,,,,,,1,,,66,0
314640,note_on,48,0,1,,,,,,,,,1,,,66,55
314640,note_on,0,0,3,,,,,,,,,3,,,54,55
314640,note_on,324,0,3,,,,,,,,,3,,,52,55
314640,note_on,0,0,1,,,,,,,,,1,,,78,55
314640,note_on,0,0,3,,,,,,,,,3,,,61,55
314796,note_off,0,0,3,,,,,,,,,3,,,52,0
314796,note_off,0,0,3,,,,,,,,,3,,,54,0
314796,note_off,156,0,3,,,,,,,,,3,,,61,0
314832,note_off,192,0,1,,,,,,,,,1,,,78,0
314832,note_off,0,0,1,,,,,,,,,1,,,66,0
314880,note_on,0,0,1,,,,,,,,,1,,,78,53
314880,note_on,324,0,5,,,,,,,,,5,,,47,53
314880,note_on,48,0,1,,,,,,,,,1,,,66,53
315036,note_off,156,0,5,,,,,,,,,5,,,47,0
315072,note_off,192,0,1,,,,,,,,,1,,,78,0
315072,note_off,0,0,1,,,,,,,,,1,,,66,0
315120,note_on,0,0,3,,,,,,,,,3,,,51,50
315120,note_on,0,0,3,,,,,,,,,3,,,59,50
315120,note_on,324,0,3,,,,,,,,,3,,,57,50
315120,note_on,48,0,1,,,,,,,,,1,,,81,50
315120,note_on,0,0,1,,,,,,,,,1,,,69,50
315276,note_off,0,0,3,,,,,,,,,3,,,59,0
315276,note_off,156,0,3,,,,,,,,,3,,,51,0
315276,note_off,0,0,3,,,,,,,,,3,,,57,0
315300,note_off,180,0,1,,,,,,,,,1,,,69,0
315300,note_off,0,0,1,,,,,,,,,1,,,81,0
315300,note_on,0,0,1,,,,,,,,,1,,,68,48
315300,note_on,0,0,1,,,,,,,,,1,,,80,48
315320,set_tempo,920,1,0,,,,,,631578,,,,,,,
315348,note_off,0,0,1,,,,,,,,,1,,,68,0
315348,note_off,48,0,1,,,,,,,,,1,,,80,0
315360,note_on,324,0,5,,,,,,,,,5,,,40,47
315360,note_on,0,0,1,,,,,,,,,1,,,76,47
315360,note_on,12,0,1,,,,,,,,,1,,,64,47
315516,note_off,156,0,5,,,,,,,,,5,,,40,0
315600,note_on,84,0,5,,,,,,,,,5,,,56,51
315600,note_on,324,0,3,,,,,,,,,3,,,59,51
315720,note_off,0,0,1,,,,,,,,,1,,,64,0
315720,note_off,360,0,1,,,,,,,,,1,,,76,0
315840,note_off,240,0,3,,,,,,,,,3,,,59,0
315840,note_on,0,0,3,,,,,,,,,3,,,64,37
315967,note_off,367,0,5,,,,,,,,,5,,,56,0
315996,note_off,156,0,3,,,,,,,,,3,,,64,0
316080,set_tempo,760,1,0,,,,,,638297,,,,,,,
316200,set_tempo,120,1,0,,,,,,895522,,,,,,,
316320,control_change,324,0,3,,,,,,,64,0,3,,,,
316320,control_change,7680,0,4,,,,,,,64,0,4,,,,
316320,control_change,600,0,1,,,,,,,64,0,1,,,,
316320,control_change,7680,0,2,,,,,,,64,0,2,,,,
316320,note_on,0,0,5,,,,,,,,,5,,,48,97
316320,control_change,353,0,5,,,,,,,64,0,5,,,,
316320,note_on,0,0,4,,,,,,,,,4,,,60,97
316320,note_on,0,0,4,,,,,,,,,4,,,55,97
316320,set_tempo,120,1,0,,,,,,625000,,,,,,,
316320,note_on,0,0,1,,,,,,,,,1,,,64,97
316440,note_on,0,0,1,,,,,,,,,1,,,76,85
316440,note_off,120,0,1,,,,,,,,,1,,,64,0
316560,note_on,0,0,1,,,,,,,,,1,,,72,79
316560,note_off,120,0,1,,,,,,,,,1,,,76,0
316680,note_off,120,0,1,,,,,,,,,1,,,72,0
316680,note_on,0,0,1,,,,,,,,,1,,,67,72
316800,note_off,120,0,1,,,,,,,,,1,,,67,0
316800,note_on,0,0,1,,,,,,,,,1,,,64,71
316920,note_off,120,0,1,,,,,,,,,1,,,64,0
316920,note_on,0,0,1,,,,,,,,,1,,,67,67
317040,note_off,120,0,1,,,,,,,,,1,,,67,0
317040,note_on,0,0,1,,,,,,,,,1,,,65,65
317040,note_off,720,0,4,,,,,,,,,4,,,55,0
317040,note_on,0,0,4,,,,,,,,,4,,,57,65
317160,note_on,0,0,1,,,,,,,,,1,,,69,64
317160,note_off,120,0,1,,,,,,,,,1,,,65,0
317232,note_off,192,0,4,,,,,,,,,4,,,57,0
317280,note_on,0,0,1,,,,,,,,,1,,,64,63
317280,note_off,120,0,1,,,,,,,,,1,,,69,0
317280,note_on,48,0,4,,,,,,,,,4,,,55,63
317400,note_off,120,0,1,,,,,,,,,1,,,64,0
317400,note_on,0,0,1,,,,,,,,,1,,,67,62
317520,note_off,120,0,1,,,,,,,,,1,,,67,0
317520,note_on,0,0,1,,,,,,,,,1,,,63,61
317520,note_off,240,0,4,,,,,,,,,4,,,55,0
317520,note_on,0,0,4,,,,,,,,,4,,,54,61
317640,note_off,120,0,1,,,,,,,,,1,,,63,0
317640,note_on,0,0,1,,,,,,,,,1,,,66,60
317760,note_on,0,0,4,,,,,,,,,4,,,55,59
317760,note_off,240,0,4,,,,,,,,,4,,,54,0
317760,note_on,0,0,1,,,,,,,,,1,,,64,59
317760,note_off,120,0,1,,,,,,,,,1,,,66,0
317880,note_off,120,0,1,,,,,,,,,1,,,64,0
317880,note_on,0,0,1,,,,,,,,,1,,,67,58
317935,note_off,175,0,4,,,,,,,,,4,,,60,0
317940,note_off,1620,0,5,,,,,,,,,5,,,48,0
317952,note_off,17,0,4,,,,,,,,,4,,,55,0
318000,note_on,1680,0,2,,,,,,,,,2,,,59,70
318000,note_on,0,0,1,,,,,,,,,1,,,62,70
318000,note_off,120,0,1,,,,,,,,,1,,,67,0
318000,note_on,48,0,4,,,,,,,,,4,,,53,70
318000,note_on,60,0,5,,,,,,,,,5,,,44,70
318120,note_on,0,0,1,,,,,,,,,1,,,65,59
318120,note_off,120,0,1,,,,,,,,,1,,,62,0
318180,note_off,180,0,2,,,,,,,,,2,,,59,0
318192,note_off,192,0,4,,,,,,,,,4,,,53,0
318192,note_off,192,0,5,,,,,,,,,5,,,44,0
318240,note_on,48,0,4,,,,,,,,,4,,,52,56
318240,note_on,60,0,2,,,,,,,,,2,,,57,56
318240,note_off,120,0,1,,,,,,,,,1,,,65,0
318240,note_on,48,0,5,,,,,,,,,5,,,45,56
318240,note_on,0,0,1,,,,,,,,,1,,,60,56
318360,note_off,120,0,1,,,,,,,,,1,,,60,0
318360,note_on,0,0,1,,,,,,,,,1,,,64,55
318480,note_off,240,0,4,,,,,,,,,4,,,52,0
318480,note_on,0,0,4,,,,,,,,,4,,,51,54
318480,note_on,0,0,1,,,,,,,,,1,,,59,54
318480,note_off,120,0,1,,,,,,,,,1,,,64,0
318600,note_off,120,0,1,,,,,,,,,1,,,59,0
318600,note_on,0,0,1,,,,,,,,,1,,,63,53
318720,note_on,0,0,4,,,,,,,,,4,,,52,52
318720,note_off,240,0,4,,,,,,,,,4,,,51,0
318720,note_off,120,0,1,,,,,,,,,1,,,63,0
318720,note_on,0,0,1,,,,,,,,,1,,,60,52
318840,note_on,0,0,1,,,,,,,,,1,,,64,51
318840,note_off,120,0,1,,,,,,,,,1,,,60,0
318900,note_off,660,0,2,,,,,,,,,2,,,57,0
318905,note_off,665,0,5,,,,,,,,,5,,,45,0
318912,note_off,192,0,4,,,,,,,,,4,,,52,0
318960,note_on,55,0,5,,,,,,,,,5,,,40,61
318960,note_on,48,0,4,,,,,,,,,4,,,50,61
318960,note_on,0,0,1,,,,,,,,,1,,,59,61
318960,note_off,120,0,1,,,,,,,,,1,,,64,0
318960,note_on,60,0,2,,,,,,,,,2,,,56,61
319080,note_off,120,0,1,,,,,,,,,1,,,59,0
319080,note_on,0,0,1,,,,,,,,,1,,,62,50
319176,note_off,96,0,1,,,,,,,,,1,,,62,0
319200,note_off,240,0,4,,,,,,,,,4,,,50,0
319200,note_on,0,0,5,,,,,,,,,5,,,41,48
319200,note_off,240,0,5,,,,,,,,,5,,,40,0
319200,note_off,240,0,2,,,,,,,,,2,,,56,0
319200,note_on,0,0,4,,,,,,,,,4,,,48,48
319200,note_on,24,0,1,,,,,,,,,1,,,57,48
319320,note_on,120,0,1,,,,,,,,,1,,,60,47
319392,note_off,192,0,5,,,,,,,,,5,,,41,0
319392,note_off,192,0,4,,,,,,,,,4,,,48,0
319440,note_on,0,0,1,,,,,,,,,1,,,59,56
319440,note_on,0,0,1,,,,,,,,,1,,,67,56
319440,note_off,120,0,1,,,,,,,,,1,,,60,0
319440,note_on,48,0,5,,,,,,,,,5,,,43,56
319440,note_on,48,0,4,,,,,,,,,4,,,53,56
319445,note_off,5,0,1,,,,,,,,,1,,,57,0
319560,note_on,0,0,1,,,,,,,,,1,,,62,47
319560,note_off,115,0,1,,,,,,,,,1,,,59,0
319680,note_on,0,0,1,,,,,,,,,1,,,64,45
319680,note_off,120,0,1,,,,,,,,,1,,,62,0
319680,note_off,240,0,4,,,,,,,,,4,,,53,0
319680,note_off,240,0,5,,,,,,,,,5,,,43,0
319680,note_on,0,0,4,,,,,,,,,4,,,52,45
319680,note_on,0,0,5,,,,,,,,,5,,,48,45
319795,note_off,115,0,1,,,,,,,,,1,,,67,0
319800,note_off,5,0,1,,,,,,,,,1,,,64,0
319800,note_on,0,0,1,,,,,,,,,1,,,55,44
319872,note_off,192,0,5,,,,,,,,,5,,,48,0
319872,note_off,192,0,4,,,,,,,,,4,,,52,0
319920,note_off,120,0,1,,,,,,,,,1,,,55,0
319920,note_on,0,0,1,,,,,,,,,1,,,60,43
320040,note_on,0,0,1,,,,,,,,,1,,,63,42
320040,note_off,120,0,1,,,,,,,,,1,,,60,0
320040,set_tempo,3720,1,0,,,,,,652173,,,,,,,
320136,note_off,96,0,1,,,,,,,,,1,,,63,0
320160,note_on,0,0,1,,,,,,,,,1,,,64,97
320160,control_change,24,0,1,,,,,,,64,0,1,,,,
320160,control_change,960,0,2,,,,,,,64,0,2,,,,
320160,note_on,0,0,4,,,,,,,,,4,,,60,97
320160,set_tempo,120,1,0,,,,,,625000,,,,,,,
320160,note_on,0,0,5,,,,,,,,,5,,,48,97
320160,control_change,288,0,5,,,,,,,64,0,5,,,,
320160,control_change,288,0,4,,,,,,,64,0,4,,,,
320160,control_change,3840,0,3,,,,,,,64,0,3,,,,
320160,note_on,0,0,4,,,,,,,,,4,,,55,97
320280,note_on,0,0,1,,,,,,,,,1,,,76,85
320280,note_off,120,0,1,,,,,,,,,1,,,64,0
320400,note_off,120,0,1,,,,,,,,,1,,,76,0
320400,note_on,0,0,1,,,,,,,,,1,,,72,79
320520,note_on,0,0,1,,,,,,,,,1,,,67,72
320520,note_off,120,0,1,,,,,,,,,1,,,72,0
320640,note_on,0,0,1,,,,,,,,,1,,,64,71
320640,note_off,120,0,1,,,,,,,,,1,,,67,0
320760,note_off,120,0,1,,,,,,,,,1,,,64,0
320760,note_on,0,0,1,,,,,,,,,1,,,67,67
320880,note_on,0,0,4,,,,,,,,,4,,,57,65
320880,note_off,720,0,4,,,,,,,,,4,,,55,0
320880,note_on,0,0,1,,,,,,,,,1,,,65,65
320880,note_off,120,0,1,,,,,,,,,1,,,67,0
321000,note_on,0,0,1,,,,,,,,,1,,,69,64
321000,note_off,120,0,1,,,,,,,,,1,,,65,0
321072,note_off,192,0,4,,,,,,,,,4,,,57,0
321120,note_on,0,0,1,,,,,,,,,1,,,64,63
321120,note_on,48,0,4,,,,,,,,,4,,,55,63
321120,note_off,120,0,1,,,,,,,,,1,,,69,0
321240,note_off,120,0,1,,,,,,,,,1,,,64,0
321240,note_on,0,0,1,,,,,,,,,1,,,67,62
321360,note_on,0,0,1,,,,,,,,,1,,,63,61
321360,note_off,120,0,1,,,,,,,,,1,,,67,0
321360,note_on,0,0,4,,,,,,,,,4,,,54,61
321360,note_off,240,0,4,,,,,,,,,4,,,55,0
321480,note_on,0,0,1,,,,,,,,,1,,,66,60
321480,note_off,120,0,1,,,,,,,,,1,,,63,0
321600,note_on,0,0,1,,,,,,,,,1,,,64,59
321600,note_off,120,0,1,,,,,,,,,1,,,66,0
321600,note_on,0,0,4,,,,,,,,,4,,,55,59
321600,note_off,240,0,4,,,,,,,,,4,,,54,0
321720,note_on,0,0,1,,,,,,,,,1,,,67,58
321720,note_off,120,0,1,,,,,,,,,1,,,64,0
321775,note_off,175,0,4,,,,,,,,,4,,,60,0
321780,note_off,1620,0,5,,,,,,,,,5,,,48,0
321792,note_off,17,0,4,,,,,,,,,4,,,55,0
321840,note_on,1680,0,2,,,,,,,,,2,,,59,70
321840,note_on,48,0,4,,,,,,,,,4,,,53,70
321840,note_on,60,0,5,,,,,,,,,5,,,44,70
321840,note_off,120,0,1,,,,,,,,,1,,,67,0
321840,note_on,0,0,1,,,,,,,,,1,,,62,70
321960,note_on,0,0,1,,,,,,,,,1,,,65,59
321960,note_off,120,0,1,,,,,,,,,1,,,62,0
322020,note_off,180,0,2,,,,,,,,,2,,,59,0
322032,note_off,192,0,5,,,,,,,,,5,,,44,0
322032,note_off,192,0,4,,,,,,,,,4,,,53,0
322080,note_on,60,0,2,,,,,,,,,2,,,57,56
322080,note_on,0,0,1,,,,,,,,,1,,,60,56
322080,note_off,120,0,1,,,,,,,,,1,,,65,0
322080,note_on,48,0,4,,,,,,,,,4,,,52,56
322080,note_on,48,0,5,,,,,,,,,5,,,45,56
322200,note_off,120,0,1,,,,,,,,,1,,,60,0
322200,note_on,0,0,1,,,,,,,,,1,,,64,55
322320,note_on,0,0,4,,,,,,,,,4,,,51,54
322320,note_off,120,0,1,,,,,,,,,1,,,64,0
322320,note_on,0,0,1,,,,,,,,,1,,,59,54
322320,note_off,240,0,4,,,,,,,,,4,,,52,0
322440,note_off,120,0,1,,,,,,,,,1,,,59,0
322440,note_on,0,0,1,,,,,,,,,1,,,63,53
322560,note_off,240,0,4,,,,,,,,,4,,,51,0
322560,note_off,120,0,1,,,,,,,,,1,,,63,0
322560,note_on,0,0,1,,,,,,,,,1,,,60,52
322560,note_on,0,0,4,,,,,,,,,4,,,52,52
322680,note_off,120,0,1,,,,,,,,,1,,,60,0
322680,note_on,0,0,1,,,,,,,,,1,,,64,51
322740,note_off,660,0,2,,,,,,,,,2,,,57,0
322745,note_off,665,0,5,,,,,,,,,5,,,45,0
322752,note_off,192,0,4,,,,,,,,,4,,,52,0
322800,note_on,48,0,4,,,,,,,,,4,,,50,61
322800,note_on,55,0,5,,,,,,,,,5,,,40,61
322800,note_off,120,0,1,,,,,,,,,1,,,64,0
322800,note_on,60,0,2,,,,,,,,,2,,,56,61
322800,note_on,0,0,1,,,,,,,,,1,,,59,61
322920,note_on,0,0,1,,,,,,,,,1,,,62,50
322920,note_off,120,0,1,,,,,,,,,1,,,59,0
323016,note_off,96,0,1,,,,,,,,,1,,,62,0
323040,note_off,240,0,2,,,,,,,,,2,,,56,0
323040,note_on,24,0,1,,,,,,,,,1,,,57,48
323040,note_off,240,0,4,,,,,,,,,4,,,50,0
323040,note_on,0,0,5,,,,,,,,,5,,,41,48
323040,note_off,240,0,5,,,,,,,,,5,,,40,0
323040,note_on,0,0,4,,,,,,,,,4,,,48,48
323160,note_on,120,0,1,,,,,,,,,1,,,60,47
323232,note_off,192,0,4,,,,,,,,,4,,,48,0
323232,note_off,192,0,5,,,,,,,,,5,,,41,0
323280,note_off,120,0,1,,,,,,,,,1,,,60,0
323280,note_on,48,0,4,,,,,,,,,4,,,53,56
323280,note_on,0,0,1,,,,,,,,,1,,,67,56
323280,note_on,48,0,5,,,,,,,,,5,,,43,56
323280,note_on,0,0,1,,,,,,,,,1,,,59,56
323285,note_off,5,0,1,,,,,,,,,1,,,57,0
323400,note_off,115,0,1,,,,,,,,,1,,,59,0
323400,note_on,0,0,1,,,,,,,,,1,,,62,47
323520,note_off,120,0,1,,,,,,,,,1,,,62,0
323520,note_on,0,0,1,,,,,,,,,1,,,64,45
323520,note_on,0,0,4,,,,,,,,,4,,,52,45
323520,note_off,240,0,4,,,,,,,,,4,,,53,0
323520,note_on,0,0,5,,,,,,,,,5,,,48,45
323520,note_off,240,0,5,,,,,,,,,5,,,43,0
323635,note_off,115,0,1,,,,,,,,,1,,,67,0
323640,note_on,0,0,1,,,,,,,,,1,,,55,44
323640,note_off,5,0,1,,,,,,,,,1,,,64,0
323712,note_off,192,0,5,,,,,,,,,5,,,48,0
323712,note_off,192,0,4,,,,,,,,,4,,,52,0
323760,note_off,120,0,1,,,,,,,,,1,,,55,0
323760,note_on,0,0,1,,,,,,,,,1,,,60,43
323880,note_off,120,0,1,,,,,,,,,1,,,60,0
323880,note_on,0,0,1,,,,,,,,,1,,,63,42
323880,set_tempo,3720,1,0,,,,,,652173,,,,,,,
323976,note_off,96,0,1,,,,,,,,,1,,,63,0
324000,control_change,3840,0,3,,,,,,,64,0,3,,,,
324000,control_change,960,0,2,,,,,,,64,0,2,,,,
324000,control_change,288,0,5,,,,,,,64,0,5,,,,
324000,note_on,0,0,5,,,,,,,,,5,,,48,110
324000,note_on,0,0,4,,,,,,,,,4,,,55,110
324000,note_on,0,0,4,,,,,,,,,4,,,60,110
324000,note_on,0,0,1,,,,,,,,,1,,,64,110
324000,set_tempo,120,1,0,,,,,,625000,,,,,,,
324000,control_change,288,0,4,,,,,,,64,0,4,,,,
324000,control_change,24,0,1,,,,,,,64,0,1,,,,
324120,note_on,0,0,1,,,,,,,,,1,,,67,99
324120,note_off,120,0,1,,,,,,,,,1,,,64,0
324240,note_on,0,0,1,,,,,,,,,1,,,72,91
324240,note_off,120,0,1,,,,,,,,,1,,,67,0
324360,note_on,0,0,1,,,,,,,,,1,,,75,88
324360,note_off,120,0,1,,,,,,,,,1,,,72,0
324480,note_off,120,0,1,,,,,,,,,1,,,75,0
324480,note_on,0,0,1,,,,,,,,,1,,,76,86
324600,note_off,120,0,1,,,,,,,,,1,,,76,0
324600,note_on,0,0,1,,,,,,,,,1,,,79,83
324720,note_on,0,0,1,,,,,,,,,1,,,84,80
324720,note_off,120,0,1,,,,,,,,,1,,,79,0
324840,note_on,0,0,1,,,,,,,,,1,,,88,77
324840,set_tempo,840,1,0,,,,,,638297,,,,,,,
324840,note_off,120,0,1,,,,,,,,,1,,,84,0
324935,note_off,935,0,5,,,,,,,,,5,,,48,0
324935,note_off,935,0,4,,,,,,,,,4,,,55,0
324935,note_off,0,0,4,,,,,,,,,4,,,60,0
324936,note_off,96,0,1,,,,,,,,,1,,,88,0
324960,note_on,24,0,1,,,,,,,,,1,,,86,74
324960,note_on,960,0,2,,,,,,,,,2,,,74,74
324960,set_tempo,120,1,0,,,,,,625000,,,,,,,
324960,note_on,0,0,2,,,,,,,,,2,,,79,74
324960,note_on,25,0,5,,,,,,,,,5,,,47,74
325080,note_off,120,0,5,,,,,,,,,5,,,47,0
325080,note_on,0,0,5,,,,,,,,,5,,,50,72
325200,note_off,120,0,5,,,,,,,,,5,,,50,0
325200,note_on,0,0,5,,,,,,,,,5,,,55,69
325320,note_on,0,0,5,,,,,,,,,5,,,59,66
325320,note_off,120,0,5,,,,,,,,,5,,,55,0
325440,note_off,120,0,5,,,,,,,,,5,,,59,0
325440,note_on,0,0,5,,,,,,,,,5,,,62,63
325560,note_on,0,0,5,,,,,,,,,5,,,67,60
325560,note_off,120,0,5,,,,,,,,,5,,,62,0
325680,note_off,120,0,5,,,,,,,,,5,,,67,0
325680,note_on,0,0,5,,,,,,,,,5,,,70,58
325800,note_off,120,0,5,,,,,,,,,5,,,70,0
325800,note_on,0,0,5,,,,,,,,,5,,,71,55
325800,set_tempo,840,1,0,,,,,,638297,,,,,,,
325895,note_off,935,0,1,,,,,,,,,1,,,86,0
325896,note_off,96,0,5,,,,,,,,,5,,,71,0
325900,note_off,940,0,2,,,,,,,,,2,,,79,0
325900,note_off,0,0,2,,,,,,,,,2,,,74,0
325920,note_on,25,0,1,,,,,,,,,1,,,86,53
325920,note_on,985,0,4,,,,,,,,,4,,,78,53
325920,note_on,0,0,4,,,,,,,,,4,,,69,53
325920,set_tempo,120,1,0,,,,,,625000,,,,,,,
325920,note_on,24,0,5,,,,,,,,,5,,,62,53
326040,note_off,120,0,1,,,,,,,,,1,,,86,0
326040,note_on,0,0,1,,,,,,,,,1,,,84,52
326118,note_off,78,0,1,,,,,,,,,1,,,84,0
326160,note_on,42,0,1,,,,,,,,,1,,,84,52
326160,note_on,0,0,4,,,,,,,,,4,,,71,52
326160,note_on,0,0,4,,,,,,,,,4,,,79,52
326160,note_off,0,0,4,,,,,,,,,4,,,78,0
326160,note_off,240,0,4,,,,,,,,,4,,,69,0
326280,note_on,0,0,1,,,,,,,,,1,,,83,51
326280,note_off,120,0,1,,,,,,,,,1,,,84,0
326358,note_off,78,0,1,,,,,,,,,1,,,83,0
326400,note_on,0,0,4,,,,,,,,,4,,,72,50
326400,note_off,0,0,4,,,,,,,,,4,,,79,0
326400,note_on,0,0,4,,,,,,,,,4,,,76,50
326400,note_off,240,0,4,,,,,,,,,4,,,71,0
326400,note_on,42,0,1,,,,,,,,,1,,,83,50
326520,note_on,0,0,1,,,,,,,,,1,,,81,49
326520,note_off,120,0,1,,,,,,,,,1,,,83,0
326598,note_off,78,0,1,,,,,,,,,1,,,81,0
326640,note_on,42,0,1,,,,,,,,,1,,,81,49
326640,note_on,0,0,4,,,,,,,,,4,,,73,49
326640,note_off,240,0,4,,,,,,,,,4,,,72,0
326760,note_off,120,0,1,,,,,,,,,1,,,81,0
326760,note_on,0,0,1,,,,,,,,,1,,,79,48
326760,note_off,120,0,4,,,,,,,,,4,,,76,0
326832,note_off,72,0,4,,,,,,,,,4,,,73,0
326838,note_off,78,0,1,,,,,,,,,1,,,79,0
326880,note_on,42,0,1,,,,,,,,,1,,,79,47
326880,note_on,48,0,4,,,,,,,,,4,,,74,47
327000,note_off,120,0,1,,,,,,,,,1,,,79,0
327000,note_on,0,0,1,,,,,,,,,1,,,78,46
327078,note_off,78,0,1,,,,,,,,,1,,,78,0
327120,note_on,0,0,4,,,,,,,,,4,,,67,46
327120,note_on,42,0,1,,,,,,,,,1,,,78,46
327120,note_off,240,0,4,,,,,,,,,4,,,74,0
327120,note_on,0,0,4,,,,,,,,,4,,,71,46
327240,note_on,0,0,1,,,,,,,,,1,,,76,45
327240,note_off,120,0,1,,,,,,,,,1,,,78,0
327318,note_off,78,0,1,,,,,,,,,1,,,76,0
327360,note_on,0,0,4,,,,,,,,,4,,,69,44
327360,note_on,0,0,4,,,,,,,,,4,,,66,44
327360,note_on,42,0,1,,,,,,,,,1,,,76,44
327360,note_off,240,0,4,,,,,,,,,4,,,71,0
327360,note_off,0,0,4,,,,,,,,,4,,,67,0
327480,note_off,120,0,1,,,,,,,,,1,,,76,0
327480,note_on,0,0,1,,,,,,,,,1,,,74,43
327558,note_off,78,0,1,,,,,,,,,1,,,74,0
327600,note_on,42,0,1,,,,,,,,,1,,,74,43
327600,note_off,240,0,4,,,,,,,,,4,,,69,0
327600,note_off,0,0,4,,,,,,,,,4,,,66,0
327600,note_on,0,0,4,,,,,,,,,4,,,64,43
327600,note_on,0,0,4,,,,,,,,,4,,,67,43
327720,note_on,0,0,1,,,,,,,,,1,,,72,42
327720,set_tempo,1800,1,0,,,,,,638297,,,,,,,
327720,note_off,120,0,1,,,,,,,,,1,,,74,0
327792,note_off,192,0,4,,,,,,,,,4,,,67,0
327792,note_off,0,0,4,,,,,,,,,4,,,64,0
327795,note_off,1875,0,5,,,,,,,,,5,,,62,0
327798,note_off,78,0,1,,,,,,,,,1,,,72,0
327840,set_tempo,120,1,0,,,,,,625000,,,,,,,
327840,note_on,45,0,5,,,,,,,,,5,,,56,41
327840,note_on,42,0,1,,,,,,,,,1,,,65,41
327840,note_on,48,0,4,,,,,,,,,4,,,62,41
327960,note_off,120,0,1,,,,,,,,,1,,,65,0
327960,note_on,0,0,1,,,,,,,,,1,,,77,41
328080,note_on,0,0,1,,,,,,,,,1,,,74,40
328080,note_off,120,0,1,,,,,,,,,1,,,77,0
328200,note_off,120,0,1,,,,,,,,,1,,,74,0
328200,note_on,0,0,1,,,,,,,,,1,,,71,39
328320,note_off,480,0,5,,,,,,,,,5,,,56,0
328320,note_on,0,0,5,,,,,,,,,5,,,57,38
328320,note_off,120,0,1,,,,,,,,,1,,,71,0
328320,note_off,480,0,4,,,,,,,,,4,,,62,0
328320,note_on,0,0,4,,,,,,,,,4,,,60,38
328320,note_on,0,0,1,,,,,,,,,1,,,64,38
328440,note_off,120,0,1,,,,,,,,,1,,,64,0
328440,note_on,0,0,1,,,,,,,,,1,,,76,38
328560,note_on,0,0,1,,,,,,,,,1,,,72,37
328560,note_off,120,0,1,,,,,,,,,1,,,76,0
328680,note_off,360,0,5,,,,,,,,,5,,,57,0
328680,note_off,120,0,1,,,,,,,,,1,,,72,0
328680,note_on,0,0,1,,,,,,,,,1,,,67,36
328680,note_off,360,0,4,,,,,,,,,4,,,60,0
328680,set_tempo,840,1,0,,,,,,638297,,,,,,,
328800,note_on,0,0,1,,,,,,,,,1,,,63,35
328800,note_on,120,0,5,,,,,,,,,5,,,54,35
328800,note_off,120,0,1,,,,,,,,,1,,,67,0
328800,note_on,120,0,4,,,,,,,,,4,,,60,35
328800,set_tempo,120,1,0,,,,,,625000,,,,,,,
328920,note_off,120,0,1,,,,,,,,,1,,,63,0
328920,note_on,0,0,1,,,,,,,,,1,,,75,35
329040,note_on,0,0,1,,,,,,,,,1,,,72,34
329040,note_off,120,0,1,,,,,,,,,1,,,75,0
329160,note_off,120,0,1,,,,,,,,,1,,,72,0
329160,note_on,0,0,1,,,,,,,,,1,,,69,33
329280,note_off,120,0,1,,,,,,,,,1,,,69,0
329280,note_on,0,0,1,,,,,,,,,1,,,62,32
329280,note_on,0,0,4,,,,,,,,,4,,,59,32
329280,note_off,480,0,4,,,,,,,,,4,,,60,0
329280,note_off,480,0,5,,,,,,,,,5,,,54,0
329280,note_on,0,0,5,,,,,,,,,5,,,55,32
329400,note_off,120,0,1,,,,,,,,,1,,,62,0
329400,note_on,0,0,1,,,,,,,,,1,,,74,32
329520,note_off,120,0,1,,,,,,,,,1,,,74,0
329520,note_on,0,0,1,,,,,,,,,1,,,71,31
329640,set_tempo,840,1,0,,,,,,638297,,,,,,,
329640,note_off,360,0,4,,,,,,,,,4,,,59,0
329640,note_off,360,0,5,,,,,,,,,5,,,55,0
329640,note_off,120,0,1,,,,,,,,,1,,,71,0
329640,note_on,0,0,1,,,,,,,,,1,,,67,30
329760,set_tempo,120,1,0,,,,,,625000,,,,,,,
329760,note_on,120,0,5,,,,,,,,,5,,,48,30
329760,note_off,120,0,1,,,,,,,,,1,,,67,0
329760,note_on,0,0,1,,,,,,,,,1,,,64,30
329760,note_on,120,0,4,,,,,,,,,4,,,57,30
329880,note_off,120,0,1,,,,,,,,,1,,,64,0
329880,note_on,0,0,1,,,,,,,,,1,,,72,29
330000,note_off,120,0,1,,,,,,,,,1,,,72,0
330000,note_on,0,0,1,,,,,,,,,1,,,69,28
330120,note_off,120,0,1,,,,,,,,,1,,,69,0
330120,note_on,0,0,1,,,,,,,,,1,,,63,27
330120,set_tempo,360,1,0,,,,,,638297,,,,,,,
330240,note_off,480,0,4,,,,,,,,,4,,,57,0
330240,note_on,0,0,5,,,,,,,,,5,,,50,27
330240,note_off,120,0,1,,,,,,,,,1,,,63,0
330240,note_off,480,0,5,,,,,,,,,5,,,48,0
330240,note_on,0,0,4,,,,,,,,,4,,,54,27
330240,note_on,0,0,1,,,,,,,,,1,,,60,27
330360,note_on,0,0,1,,,,,,,,,1,,,69,26
330360,note_off,120,0,1,,,,,,,,,1,,,60,0
330480,note_on,0,0,1,,,,,,,,,1,,,66,25
330480,note_off,120,0,1,,,,,,,,,1,,,69,0
330600,note_off,360,0,5,,,,,,,,,5,,,50,0
330600,note_on,0,0,1,,,,,,,,,1,,,62,24
330600,note_off,360,0,4,,,,,,,,,4,,,54,0
330600,set_tempo,480,1,0,,,,,,659340,,,,,,,
330600,note_off,120,0,1,,,,,,,,,1,,,66,0
330696,note_off,96,0,1,,,,,,,,,1,,,62,0
330720,set_tempo,120,1,0,,,,,,625000,,,,,,,
330720,note_on,120,0,5,,,,,,,,,5,,,43,24
330720,note_on,24,0,1,,,,,,,,,1,,,67,24
330720,note_on,4820,0,2,,,,,,,,,2,,,59,24
330816,note_off,96,0,5,,,,,,,,,5,,,43,0
330840,note_on,24,0,5,,,,,,,,,5,,,62,25
330960,note_on,0,0,5,,,,,,,,,5,,,59,26
330960,note_off,120,0,5,,,,,,,,,5,,,62,0
331080,note_on,0,0,5,,,,,,,,,5,,,55,27
331080,note_off,120,0,5,,,,,,,,,5,,,59,0
331200,note_off,120,0,5,,,,,,,,,5,,,55,0
331200,note_on,0,0,5,,,,,,,,,5,,,54,28
331320,note_on,0,0,5,,,,,,,,,5,,,53,29
331320,note_off,120,0,5,,,,,,,,,5,,,54,0
331440,note_off,120,0,5,,,,,,,,,5,,,53,0
331440,note_on,0,0,5,,,,,,,,,5,,,50,29
331560,note_off,120,0,5,,,,,,,,,5,,,50,0
331560,set_tempo,840,1,0,,,,,,638297,,,,,,,
331560,note_on,0,0,5,,,,,,,,,5,,,47,32
331650,note_off,930,0,2,,,,,,,,,2,,,59,0
331656,note_off,96,0,5,,,,,,,,,5,,,47,0
331660,note_off,940,0,1,,,,,,,,,1,,,67,0
331680,note_on,20,0,1,,,,,,,,,1,,,71,34
331680,set_tempo,120,1,0,,,,,,625000,,,,,,,
331680,note_on,30,0,2,,,,,,,,,2,,,65,34
331680,note_on,0,0,2,,,,,,,,,2,,,67,34
331680,note_on,24,0,5,,,,,,,,,5,,,43,34
331776,note_off,96,0,5,,,,,,,,,5,,,43,0
331800,note_on,24,0,5,,,,,,,,,5,,,62,39
331920,note_off,120,0,5,,,,,,,,,5,,,62,0
331920,note_on,0,0,5,,,,,,,,,5,,,59,43
332040,note_on,0,0,5,,,,,,,,,5,,,55,47
332040,note_off,120,0,5,,,,,,,,,5,,,59,0
332160,note_on,0,0,5,,,,,,,,,5,,,54,51
332160,note_off,120,0,5,,,,,,,,,5,,,55,0
332280,note_off,120,0,5,,,,,,,,,5,,,54,0
332280,note_on,0,0,5,,,,,,,,,5,,,53,57
332400,note_off,120,0,5,,,,,,,,,5,,,53,0
332400,note_on,0,0,5,,,,,,,,,5,,,50,65
332520,set_tempo,840,1,0,,,,,,638297,,,,,,,
332520,note_off,120,0,5,,,,,,,,,5,,,50,0
332520,note_on,0,0,5,,,,,,,,,5,,,47,78
332616,note_off,96,0,5,,,,,,,,,5,,,47,0
332620,note_off,940,0,2,,,,,,,,,2,,,65,0
332620,note_off,940,0,1,,,,,,,,,1,,,71,0
332625,note_off,5,0,2,,,,,,,,,2,,,67,0
332640,note_on,15,0,2,,,,,,,,,2,,,71,101
332640,note_on,0,0,2,,,,,,,,,2,,,74,101
332640,note_on,0,0,2,,,,,,,,,2,,,67,101
332640,set_tempo,120,1,0,,,,,,625000,,,,,,,
332640,note_on,24,0,5,,,,,,,,,5,,,43,101
332640,note_on,20,0,1,,,,,,,,,1,,,77,101
332736,note_off,96,0,5,,,,,,,,,5,,,43,0
332760,note_on,24,0,5,,,,,,,,,5,,,65,87
332880,note_on,0,0,5,,,,,,,,,5,,,62,79
332880,note_off,120,0,5,,,,,,,,,5,,,65,0
333000,note_on,0,0,5,,,,,,,,,5,,,59,71
333000,note_off,120,0,5,,,,,,,,,5,,,62,0
333120,note_off,120,0,5,,,,,,,,,5,,,59,0
333120,note_on,0,0,5,,,,,,,,,5,,,55,64
333216,note_off,96,0,5,,,,,,,,,5,,,55,0
333240,note_on,24,0,5,,,,,,,,,5,,,67,61
333360,note_off,120,0,5,,,,,,,,,5,,,67,0
333360,note_on,0,0,5,,,,,,,,,5,,,65,58
333480,note_on,0,0,5,,,,,,,,,5,,,62,55
333480,note_off,120,0,5,,,,,,,,,5,,,65,0
333600,note_off,120,0,5,,,,,,,,,5,,,62,0
333600,note_on,0,0,5,,,,,,,,,5,,,59,51
333696,note_off,96,0,5,,,,,,,,,5,,,59,0
333720,note_on,24,0,5,,,,,,,,,5,,,65,48
333840,note_off,120,0,5,,,,,,,,,5,,,65,0
333840,note_on,0,0,5,,,,,,,,,5,,,62,45
333960,note_off,120,0,5,,,,,,,,,5,,,62,0
333960,note_on,0,0,5,,,,,,,,,5,,,59,42
334080,note_off,120,0,5,,,,,,,,,5,,,59,0
334080,note_on,0,0,5,,,,,,,,,5,,,55,38
334200,note_on,0,0,5,,,,,,,,,5,,,54,35
334200,note_off,120,0,5,,,,,,,,,5,,,55,0
334320,note_on,0,0,5,,,,,,,,,5,,,53,32
334320,note_off,120,0,5,,,,,,,,,5,,,54,0
334320,set_tempo,1680,1,0,,,,,,638297,,,,,,,
334440,note_on,0,0,5,,,,,,,,,5,,,50,29
334440,note_off,120,0,5,,,,,,,,,5,,,53,0
334440,set_tempo,120,1,0,,,,,,952380,,,,,,,
334535,note_off,1895,0,2,,,,,,,,,2,,,74,0
334535,note_off,0,0,2,,,,,,,,,2,,,71,0
334535,note_off,1895,0,1,,,,,,,,,1,,,77,0
334536,note_off,96,0,5,,,,,,,,,5,,,50,0
334537,note_off,2,0,2,,,,,,,,,2,,,67,0
334560,note_on,0,0,1,,,,,,,,,1,,,64,104
334560,note_on,0,0,4,,,,,,,,,4,,,55,104
334560,set_tempo,120,1,0,,,,,,625000,,,,,,,
334560,control_change,23,0,2,,,,,,,64,0,2,,,,
334560,control_change,24,0,5,,,,,,,64,0,5,,,,
334560,note_on,0,0,5,,,,,,,,,5,,,48,104
334560,control_change,25,0,1,,,,,,,64,0,1,,,,
334560,note_on,0,0,4,,,,,,,,,4,,,60,104
334560,control_change,10560,0,3,,,,,,,64,0,3,,,,
334560,control_change,3960,0,4,,,,,,,64,0,4,,,,
334680,note_on,0,0,1,,,,,,,,,1,,,76,91
334680,note_off,120,0,1,,,,,,,,,1,,,64,0
334800,note_off,120,0,1,,,,,,,,,1,,,76,0
334800,note_on,0,0,1,,,,,,,,,1,,,72,80
334920,note_off,120,0,1,,,,,,,,,1,,,72,0
334920,note_on,0,0,1,,,,,,,,,1,,,67,73
335040,note_off,120,0,1,,,,,,,,,1,,,67,0
335040,note_on,0,0,1,,,,,,,,,1,,,64,69
335160,note_off,120,0,1,,,,,,,,,1,,,64,0
335160,note_on,0,0,1,,,,,,,,,1,,,67,65
335280,note_off,120,0,1,,,,,,,,,1,,,67,0
335280,note_off,720,0,4,,,,,,,,,4,,,55,0
335280,note_on,0,0,4,,,,,,,,,4,,,57,63
335280,note_on,0,0,1,,,,,,,,,1,,,65,63
335400,note_off,120,0,1,,,,,,,,,1,,,65,0
335400,note_on,0,0,1,,,,,,,,,1,,,69,62
335472,note_off,192,0,4,,,,,,,,,4,,,57,0
335520,note_on,48,0,4,,,,,,,,,4,,,55,61
335520,note_on,0,0,1,,,,,,,,,1,,,64,61
335520,note_off,120,0,1,,,,,,,,,1,,,69,0
335640,note_on,0,0,1,,,,,,,,,1,,,67,60
335640,note_off,120,0,1,,,,,,,,,1,,,64,0
335760,note_off,120,0,1,,,,,,,,,1,,,67,0
335760,note_on,0,0,4,,,,,,,,,4,,,54,59
335760,note_off,240,0,4,,,,,,,,,4,,,55,0
335760,note_on,0,0,1,,,,,,,,,1,,,63,59
335880,note_on,0,0,1,,,,,,,,,1,,,66,59
335880,note_off,120,0,1,,,,,,,,,1,,,63,0
336000,note_off,240,0,4,,,,,,,,,4,,,54,0
336000,note_on,0,0,1,,,,,,,,,1,,,64,58
336000,note_off,120,0,1,,,,,,,,,1,,,66,0
336000,note_on,0,0,4,,,,,,,,,4,,,55,58
336120,note_off,120,0,1,,,,,,,,,1,,,64,0
336120,note_on,0,0,1,,,,,,,,,1,,,67,57
336175,note_off,175,0,4,,,,,,,,,4,,,60,0
336180,note_off,1620,0,5,,,,,,,,,5,,,48,0
336192,note_off,17,0,4,,,,,,,,,4,,,55,0
336240,note_off,120,0,1,,,,,,,,,1,,,67,0
336240,note_on,60,0,5,,,,,,,,,5,,,44,70
336240,note_on,0,0,1,,,,,,,,,1,,,62,70
336240,note_on,48,0,4,,,,,,,,,4,,,53,70
336240,note_on,1680,0,2,,,,,,,,,2,,,59,70
336360,note_on,0,0,1,,,,,,,,,1,,,65,58
336360,note_off,120,0,1,,,,,,,,,1,,,62,0
336420,note_off,180,0,2,,,,,,,,,2,,,59,0
336432,note_off,192,0,4,,,,,,,,,4,,,53,0
336432,note_off,192,0,5,,,,,,,,,5,,,44,0
336480,note_on,0,0,1,,,,,,,,,1,,,60,54
336480,note_off,120,0,1,,,,,,,,,1,,,65,0
336480,note_on,60,0,2,,,,,,,,,2,,,57,54
336480,note_on,48,0,4,,,,,,,,,4,,,52,54
336480,note_on,48,0,5,,,,,,,,,5,,,45,54
336600,note_off,120,0,1,,,,,,,,,1,,,60,0
336600,note_on,0,0,1,,,,,,,,,1,,,64,54
336720,note_off,120,0,1,,,,,,,,,1,,,64,0
336720,note_on,0,0,1,,,,,,,,,1,,,59,53
336720,note_on,0,0,4,,,,,,,,,4,,,51,53
336720,note_off,240,0,4,,,,,,,,,4,,,52,0
336840,note_on,0,0,1,,,,,,,,,1,,,63,52
336840,note_off,120,0,1,,,,,,,,,1,,,59,0
336960,note_on,0,0,1,,,,,,,,,1,,,60,51
336960,note_off,120,0,1,,,,,,,,,1,,,63,0
336960,note_off,240,0,4,,,,,,,,,4,,,51,0
336960,note_on,0,0,4,,,,,,,,,4,,,52,51
337080,note_off,120,0,1,,,,,,,,,1,,,60,0
337080,note_on,0,0,1,,,,,,,,,1,,,64,50
337140,note_off,660,0,2,,,,,,,,,2,,,57,0
337145,note_off,665,0,5,,,,,,,,,5,,,45,0
337152,note_off,192,0,4,,,,,,,,,4,,,52,0
337200,note_on,55,0,5,,,,,,,,,5,,,40,63
337200,note_on,60,0,2,,,,,,,,,2,,,56,63
337200,note_off,120,0,1,,,,,,,,,1,,,64,0
337200,note_on,0,0,1,,,,,,,,,1,,,59,63
337200,note_on,48,0,4,,,,,,,,,4,,,50,63
337320,note_off,120,0,1,,,,,,,,,1,,,59,0
337320,note_on,0,0,1,,,,,,,,,1,,,62,51
337416,note_off,96,0,1,,,,,,,,,1,,,62,0
337440,note_on,0,0,5,,,,,,,,,5,,,41,48
337440,note_off,240,0,4,,,,,,,,,4,,,50,0
337440,note_on,24,0,1,,,,,,,,,1,,,57,48
337440,note_on,0,0,4,,,,,,,,,4,,,48,48
337440,note_off,240,0,2,,,,,,,,,2,,,56,0
337440,note_off,240,0,5,,,,,,,,,5,,,40,0
337560,note_on,120,0,1,,,,,,,,,1,,,60,47
337632,note_off,192,0,5,,,,,,,,,5,,,41,0
337632,note_off,192,0,4,,,,,,,,,4,,,48,0
337680,note_on,48,0,5,,,,,,,,,5,,,43,58
337680,note_on,48,0,4,,,,,,,,,4,,,53,58
337680,note_off,120,0,1,,,,,,,,,1,,,60,0
337680,note_on,0,0,1,,,,,,,,,1,,,67,58
337680,note_on,0,0,1,,,,,,,,,1,,,59,58
337685,note_off,5,0,1,,,,,,,,,1,,,57,0
337800,note_off,115,0,1,,,,,,,,,1,,,59,0
337800,note_on,0,0,1,,,,,,,,,1,,,62,48
337920,note_off,240,0,4,,,,,,,,,4,,,53,0
337920,note_off,120,0,1,,,,,,,,,1,,,62,0
337920,note_off,240,0,5,,,,,,,,,5,,,43,0
337920,note_on,0,0,5,,,,,,,,,5,,,48,44
337920,note_on,0,0,4,,,,,,,,,4,,,52,44
337920,note_on,0,0,1,,,,,,,,,1,,,64,44
338035,note_off,115,0,1,,,,,,,,,1,,,67,0
338040,note_on,0,0,1,,,,,,,,,1,,,55,44
338040,note_off,5,0,1,,,,,,,,,1,,,64,0
338112,note_off,192,0,4,,,,,,,,,4,,,52,0
338112,note_off,192,0,5,,,,,,,,,5,,,48,0
338160,note_on,0,0,1,,,,,,,,,1,,,60,43
338160,note_off,120,0,1,,,,,,,,,1,,,55,0
338280,note_on,0,0,1,,,,,,,,,1,,,63,42
338280,set_tempo,3720,1,0,,,,,,652173,,,,,,,
338280,note_off,120,0,1,,,,,,,,,1,,,60,0
338376,note_off,96,0,1,,,,,,,,,1,,,63,0
338400,control_change,24,0,1,,,,,,,64,0,1,,,,
338400,note_on,0,0,1,,,,,,,,,1,,,64,96
338400,note_on,0,0,4,,,,,,,,,4,,,55,96
338400,control_change,288,0,4,,,,,,,64,0,4,,,,
338400,set_tempo,120,1,0,,,,,,625000,,,,,,,
338400,note_on,0,0,4,,,,,,,,,4,,,60,96
338400,control_change,960,0,2,,,,,,,64,0,2,,,,
338400,control_change,3840,0,3,,,,,,,64,0,3,,,,
338400,note_on,0,0,5,,,,,,,,,5,,,48,96
338400,control_change,288,0,5,,,,,,,64,0,5,,,,
338520,note_off,120,0,1,,,,,,,,,1,,,64,0
338520,note_on,0,0,1,,,,,,,,,1,,,76,84
338640,note_off,120,0,1,,,,,,,,,1,,,76,0
338640,note_on,0,0,1,,,,,,,,,1,,,72,77
338760,note_on,0,0,1,,,,,,,,,1,,,67,70
338760,note_off,120,0,1,,,,,,,,,1,,,72,0
338880,note_off,120,0,1,,,,,,,,,1,,,67,0
338880,note_on,0,0,1,,,,,,,,,1,,,64,69
339000,note_off,120,0,1,,,,,,,,,1,,,64,0
339000,note_on,0,0,1,,,,,,,,,1,,,67,67
339120,note_on,0,0,1,,,,,,,,,1,,,65,66
339120,note_off,720,0,4,,,,,,,,,4,,,55,0
339120,note_on,0,0,4,,,,,,,,,4,,,57,66
339120,note_off,120,0,1,,,,,,,,,1,,,67,0
339240,note_on,0,0,1,,,,,,,,,1,,,69,65
339240,note_off,120,0,1,,,,,,,,,1,,,65,0
339312,note_off,192,0,4,,,,,,,,,4,,,57,0
339360,note_on,48,0,4,,,,,,,,,4,,,55,63
339360,note_on,0,0,1,,,,,,,,,1,,,64,63
339360,note_off,120,0,1,,,,,,,,,1,,,69,0
339480,note_on,0,0,1,,,,,,,,,1,,,67,62
339480,note_off,120,0,1,,,,,,,,,1,,,64,0
339600,note_on,0,0,1,,,,,,,,,1,,,63,61
339600,note_off,120,0,1,,,,,,,,,1,,,67,0
339600,note_off,240,0,4,,,,,,,,,4,,,55,0
339600,note_on,0,0,4,,,,,,,,,4,,,54,61
339720,note_off,120,0,1,,,,,,,,,1,,,63,0
339720,note_on,0,0,1,,,,,,,,,1,,,66,60
339840,note_off,240,0,4,,,,,,,,,4,,,54,0
339840,note_on,0,0,4,,,,,,,,,4,,,55,58
339840,note_off,120,0,1,,,,,,,,,1,,,66,0
339840,note_on,0,0,1,,,,,,,,,1,,,64,58
339960,note_on,0,0,1,,,,,,,,,1,,,67,57
339960,note_off,120,0,1,,,,,,,,,1,,,64,0
340032,note_off,192,0,4,,,,,,,,,4,,,55,0
340080,note_off,120,0,1,,,,,,,,,1,,,67,0
340080,note_on,0,0,1,,,,,,,,,1,,,72,60
340080,note_on,48,0,4,,,,,,,,,4,,,58,60
340200,note_off,120,0,1,,,,,,,,,1,,,72,0
340200,note_on,0,0,1,,,,,,,,,1,,,64,55
340200,set_tempo,1800,1,0,,,,,,638297,,,,,,,
340260,note_off,180,0,4,,,,,,,,,4,,,58,0
340267,note_off,1867,0,5,,,,,,,,,5,,,48,0
340296,note_off,96,0,1,,,,,,,,,1,,,64,0
340297,note_off,37,0,4,,,,,,,,,4,,,60,0
340320,note_on,24,0,1,,,,,,,,,1,,,69,105
340320,note_on,53,0,5,,,,,,,,,5,,,53,105
340320,note_on,0,0,4,,,,,,,,,4,,,65,105
340320,set_tempo,120,1,0,,,,,,625000,,,,,,,
340320,note_on,23,0,4,,,,,,,,,4,,,57,105
340440,note_on,0,0,1,,,,,,,,,1,,,81,96
340440,note_off,120,0,1,,,,,,,,,1,,,69,0
340560,note_on,0,0,4,,,,,,,,,4,,,60,87
340560,note_off,120,0,1,,,,,,,,,1,,,81,0
340560,note_on,0,0,1,,,,,,,,,1,,,77,87
340560,note_off,240,0,4,,,,,,,,,4,,,57,0
340680,note_off,120,0,1,,,,,,,,,1,,,77,0
340680,note_on,0,0,1,,,,,,,,,1,,,72,82
340800,note_on,0,0,1,,,,,,,,,1,,,69,80
340800,note_off,120,0,1,,,,,,,,,1,,,72,0
340920,note_off,120,0,1,,,,,,,,,1,,,69,0
340920,note_on,0,0,1,,,,,,,,,1,,,72,78
341040,note_on,0,0,4,,,,,,,,,4,,,62,75
341040,note_on,0,0,1,,,,,,,,,1,,,70,75
341040,note_off,480,0,4,,,,,,,,,4,,,60,0
341040,note_off,120,0,1,,,,,,,,,1,,,72,0
341160,note_off,120,0,1,,,,,,,,,1,,,70,0
341160,note_on,0,0,1,,,,,,,,,1,,,74,73
341232,note_off,192,0,4,,,,,,,,,4,,,62,0
341280,note_off,120,0,1,,,,,,,,,1,,,74,0
341280,note_on,0,0,1,,,,,,,,,1,,,69,71
341280,note_on,48,0,4,,,,,,,,,4,,,60,71
341400,note_on,0,0,1,,,,,,,,,1,,,72,68
341400,note_off,120,0,1,,,,,,,,,1,,,69,0
341520,note_off,240,0,4,,,,,,,,,4,,,60,0
341520,note_on,0,0,1,,,,,,,,,1,,,68,66
341520,note_off,120,0,1,,,,,,,,,1,,,72,0
341520,note_on,0,0,4,,,,,,,,,4,,,59,66
341640,note_on,0,0,1,,,,,,,,,1,,,71,64
341640,note_off,120,0,1,,,,,,,,,1,,,68,0
341760,note_on,0,0,4,,,,,,,,,4,,,60,63
341760,note_off,120,0,1,,,,,,,,,1,,,71,0
341760,note_off,240,0,4,,,,,,,,,4,,,59,0
341760,note_on,0,0,1,,,,,,,,,1,,,69,63
341880,note_on,0,0,1,,,,,,,,,1,,,72,66
341880,note_off,120,0,1,,,,,,,,,1,,,69,0
341952,note_off,192,0,4,,,,,,,,,4,,,60,0
342000,note_on,48,0,4,,,,,,,,,4,,,62,73
342000,note_off,120,0,1,,,,,,,,,1,,,72,0
342000,note_on,0,0,1,,,,,,,,,1,,,70,73
342120,note_off,120,0,1,,,,,,,,,1,,,70,0
342120,set_tempo,1800,1,0,,,,,,638297,,,,,,,
342120,note_on,0,0,1,,,,,,,,,1,,,74,70
342180,note_off,180,0,4,,,,,,,,,4,,,62,0
342195,note_off,15,0,4,,,,,,,,,4,,,65,0
342202,note_off,1882,0,5,,,,,,,,,5,,,53,0
342216,note_off,96,0,1,,,,,,,,,1,,,74,0
342240,note_on,24,0,1,,,,,,,,,1,,,63,82
342240,note_on,38,0,5,,,,,,,,,5,,,54,82
342240,note_on,45,0,4,,,,,,,,,4,,,60,82
342240,set_tempo,120,1,0,,,,,,625000,,,,,,,
342360,note_off,120,0,1,,,,,,,,,1,,,63,0
342360,note_on,0,0,1,,,,,,,,,1,,,75,67
342480,note_off,120,0,1,,,,,,,,,1,,,75,0
342480,note_on,0,0,1,,,,,,,,,1,,,72,59
342600,note_off,120,0,1,,,,,,,,,1,,,72,0
342600,note_on,0,0,1,,,,,,,,,1,,,69,53
342720,note_off,480,0,4,,,,,,,,,4,,,60,0
342720,note_on,0,0,4,,,,,,,,,4,,,58,49
342720,note_off,480,0,5,,,,,,,,,5,,,54,0
342720,note_off,120,0,1,,,,,,,,,1,,,69,0
342720,note_on,0,0,5,,,,,,,,,5,,,55,49
342720,note_on,0,0,1,,,,,,,,,1,,,62,49
342840,note_on,0,0,1,,,,,,,,,1,,,74,47
342840,note_off,120,0,1,,,,,,,,,1,,,62,0
342960,note_off,120,0,1,,,,,,,,,1,,,74,0
342960,note_on,0,0,1,,,,,,,,,1,,,70,46
343080,note_off,360,0,5,,,,,,,,,5,,,55,0
343080,set_tempo,840,1,0,,,,,,638297,,,,,,,
343080,note_off,360,0,4,,,,,,,,,4,,,58,0
343080,note_off,120,0,1,,,,,,,,,1,,,70,0
343080,note_on,0,0,1,,,,,,,,,1,,,67,45
343200,set_tempo,120,1,0,,,,,,625000,,,,,,,
343200,note_on,120,0,4,,,,,,,,,4,,,58,44
343200,note_on,120,0,5,,,,,,,,,5,,,52,44
343200,note_on,0,0,1,,,,,,,,,1,,,61,44
343200,note_off,120,0,1,,,,,,,,,1,,,67,0
343320,note_on,0,0,1,,,,,,,,,1,,,73,43
343320,note_off,120,0,1,,,,,,,,,1,,,61,0
343440,note_on,0,0,1,,,,,,,,,1,,,70,41
343440,note_off,120,0,1,,,,,,,,,1,,,73,0
343560,note_on,0,0,1,,,,,,,,,1,,,67,40
343560,note_off,120,0,1,,,,,,,,,1,,,70,0
343680,note_on,0,0,5,,,,,,,,,5,,,53,39
343680,note_on,0,0,1,,,,,,,,,1,,,60,39
343680,note_off,480,0,5,,,,,,,,,5,,,52,0
343680,note_off,480,0,4,,,,,,,,,4,,,58,0
343680,note_on,0,0,4,,,,,,,,,4,,,57,39
343680,note_off,120,0,1,,,,,,,,,1,,,67,0
343800,note_on,0,0,1,,,,,,,,,1,,,72,38
343800,note_off,120,0,1,,,,,,,,,1,,,60,0
343920,note_off,120,0,1,,,,,,,,,1,,,72,0
343920,note_on,0,0,1,,,,,,,,,1,,,69,37
344040,note_off,360,0,4,,,,,,,,,4,,,57,0
344040,note_off,360,0,5,,,,,,,,,5,,,53,0
344040,set_tempo,840,1,0,,,,,,638297,,,,,,,
344040,note_on,0,0,1,,,,,,,,,1,,,65,36
344040,note_off,120,0,1,,,,,,,,,1,,,69,0
344160,note_on,120,0,5,,,,,,,,,5,,,46,35
344160,set_tempo,120,1,0,,,,,,625000,,,,,,,
344160,note_on,0,0,1,,,,,,,,,1,,,62,35
344160,note_off,120,0,1,,,,,,,,,1,,,65,0
344160,note_on,120,0,4,,,,,,,,,4,,,55,35
344280,note_on,0,0,1,,,,,,,,,1,,,70,34
344280,note_off,120,0,1,,,,,,,,,1,,,62,0
344400,note_on,0,0,1,,,,,,,,,1,,,67,33
344400,note_off,120,0,1,,,,,,,,,1,,,70,0
344520,set_tempo,360,1,0,,,,,,638297,,,,,,,
344520,note_on,0,0,1,,,,,,,,,1,,,61,32
344520,note_off,120,0,1,,,,,,,,,1,,,67,0
344640,note_on,0,0,5,,,,,,,,,5,,,48,31
344640,note_on,0,0,1,,,,,,,,,1,,,58,31
344640,note_off,120,0,1,,,,,,,,,1,,,61,0
344640,note_on,0,0,4,,,,,,,,,4,,,52,31
344640,note_off,480,0,4,,,,,,,,,4,,,55,0
344640,note_off,480,0,5,,,,,,,,,5,,,46,0
344760,note_on,0,0,1,,,,,,,,,1,,,67,30
344760,note_off,120,0,1,,,,,,,,,1,,,58,0
344880,note_on,0,0,1,,,,,,,,,1,,,64,28
344880,note_off,120,0,1,,,,,,,,,1,,,67,0
344880,set_tempo,360,1,0,,,,,,659340,,,,,,,
344952,note_off,312,0,4,,,,,,,,,4,,,52,0
345000,set_tempo,120,1,0,,,,,,821917,,,,,,,
345000,note_off,360,0,5,,,,,,,,,5,,,48,0
345000,note_on,0,0,1,,,,,,,,,1,,,60,28
345000,note_off,120,0,1,,,,,,,,,1,,,64,0
345060,set_tempo,60,1,0,,,,,,1132075,,,,,,,
345096,note_off,96,0,1,,,,,,,,,1,,,60,0
345120,control_change,6720,0,3,,,,,,,64,0,3,,,,
345120,note_on,0,0,1,,,,,,,,,1,,,60,38
345120,note_on,0,0,1,,,,,,,,,1,,,72,38
345120,control_change,24,0,1,,,,,,,64,0,1,,,,
345120,control_change,6720,0,2,,,,,,,64,0,2,,,,
345120,control_change,120,0,5,,,,,,,64,0,5,,,,
345120,control_change,168,0,4,,,,,,,64,0,4,,,,
345120,note_on,0,0,5,,,,,,,,,5,,,41,38
345120,set_tempo,60,1,0,,,,,,625000,,,,,,,
345240,note_on,120,0,3,,,,,,,,,3,,,57,38
345300,note_off,180,0,5,,,,,,,,,5,,,41,0
345360,note_on,0,0,3,,,,,,,,,3,,,60,39
345360,note_off,120,0,3,,,,,,,,,3,,,57,0
345480,note_on,0,0,3,,,,,,,,,3,,,57,40
345480,note_off,120,0,3,,,,,,,,,3,,,60,0
345576,note_off,96,0,3,,,,,,,,,3,,,57,0
345600,note_on,300,0,5,,,,,,,,,5,,,45,40
345720,note_on,144,0,3,,,,,,,,,3,,,57,41
345780,note_off,180,0,5,,,,,,,,,5,,,45,0
345816,note_off,96,0,3,,,,,,,,,3,,,57,0
345840,note_on,0,0,1,,,,,,,,,1,,,77,42
345840,note_off,0,0,1,,,,,,,,,1,,,72,0
345840,note_on,24,0,3,,,,,,,,,3,,,60,42
345840,note_off,720,0,1,,,,,,,,,1,,,60,0
345840,note_on,0,0,1,,,,,,,,,1,,,65,42
345960,note_off,120,0,3,,,,,,,,,3,,,60,0
345960,note_on,0,0,3,,,,,,,,,3,,,57,43
346056,note_off,96,0,3,,,,,,,,,3,,,57,0
346080,note_on,300,0,5,,,,,,,,,5,,,48,43
346200,note_on,144,0,3,,,,,,,,,3,,,55,44
346260,note_off,180,0,5,,,,,,,,,5,,,48,0
346320,note_off,480,0,1,,,,,,,,,1,,,77,0
346320,note_off,0,0,1,,,,,,,,,1,,,65,0
346320,note_on,0,0,1,,,,,,,,,1,,,64,45
346320,note_on,0,0,1,,,,,,,,,1,,,76,45
346320,note_on,0,0,3,,,,,,,,,3,,,58,45
346320,note_off,120,0,3,,,,,,,,,3,,,55,0
346440,note_off,120,0,3,,,,,,,,,3,,,58,0
346440,note_on,0,0,3,,,,,,,,,3,,,55,45
346512,note_off,192,0,1,,,,,,,,,1,,,76,0
346512,note_off,0,0,1,,,,,,,,,1,,,64,0
346536,note_off,96,0,3,,,,,,,,,3,,,55,0
346560,note_on,300,0,5,,,,,,,,,5,,,50,46
346560,note_on,48,0,1,,,,,,,,,1,,,77,46
346560,note_on,0,0,1,,,,,,,,,1,,,65,46
346680,note_on,144,0,3,,,,,,,,,3,,,53,47
346740,note_off,180,0,5,,,,,,,,,5,,,50,0
346800,note_on,0,0,3,,,,,,,,,3,,,57,48
346800,note_off,120,0,3,,,,,,,,,3,,,53,0
346920,note_on,0,0,3,,,,,,,,,3,,,53,48
346920,note_off,120,0,3,,,,,,,,,3,,,57,0
346920,note_off,360,0,1,,,,,,,,,1,,,65,0
346920,note_off,0,0,1,,,,,,,,,1,,,77,0
346980,set_tempo,1860,1,0,,,,,,638297,,,,,,,
347016,note_off,96,0,3,,,,,,,,,3,,,53,0
347040,note_on,120,0,1,,,,,,,,,1,,,79,50
347040,note_on,0,0,1,,,,,,,,,1,,,67,50
347040,note_on,300,0,5,,,,,,,,,5,,,46,50
347040,set_tempo,60,1,0,,,,,,625000,,,,,,,
347160,note_on,144,0,3,,,,,,,,,3,,,58,49
347220,note_off,180,0,5,,,,,,,,,5,,,46,0
347280,note_off,120,0,3,,,,,,,,,3,,,58,0
347280,note_on,0,0,3,,,,,,,,,3,,,62,49
347400,note_off,360,0,1,,,,,,,,,1,,,67,0
347400,note_off,0,0,1,,,,,,,,,1,,,79,0
347400,note_off,120,0,3,,,,,,,,,3,,,62,0
347400,note_on,0,0,3,,,,,,,,,3,,,58,48
347496,note_off,96,0,3,,,,,,,,,3,,,58,0
347520,note_on,300,0,5,,,,,,,,,5,,,47,48
347520,note_on,0,0,1,,,,,,,,,1,,,69,48
347520,note_on,120,0,1,,,,,,,,,1,,,81,48
347640,note_on,144,0,3,,,,,,,,,3,,,59,47
347700,note_off,180,0,5,,,,,,,,,5,,,47,0
347760,note_off,120,0,3,,,,,,,,,3,,,59,0
347760,note_on,0,0,3,,,,,,,,,3,,,62,46
347808,note_off,0,0,1,,,,,,,,,1,,,81,0
347808,note_off,288,0,1,,,,,,,,,1,,,69,0
347880,note_on,0,0,1,,,,,,,,,1,,,65,46
347880,note_on,72,0,1,,,,,,,,,1,,,77,46
347880,note_off,120,0,3,,,,,,,,,3,,,62,0
347880,note_on,0,0,3,,,,,,,,,3,,,59,46
347976,note_off,96,0,3,,,,,,,,,3,,,59,0
347976,note_off,96,0,1,,,,,,,,,1,,,65,0
347976,note_off,0,0,1,,,,,,,,,1,,,77,0
348000,note_on,24,0,1,,,,,,,,,1,,,69,49
348000,note_on,300,0,5,,,,,,,,,5,,,48,49
348000,note_on,0,0,1,,,,,,,,,1,,,81,49
348120,note_on,144,0,3,,,,,,,,,3,,,60,48
348180,note_off,180,0,5,,,,,,,,,5,,,48,0
348240,note_on,0,0,3,,,,,,,,,3,,,65,46
348240,note_off,120,0,3,,,,,,,,,3,,,60,0
348360,note_off,120,0,3,,,,,,,,,3,,,65,0
348360,note_on,0,0,3,,,,,,,,,3,,,60,45
348480,note_off,480,0,1,,,,,,,,,1,,,81,0
348480,note_off,0,0,1,,,,,,,,,1,,,69,0
348480,note_on,0,0,1,,,,,,,,,1,,,79,46
348480,note_on,0,0,1,,,,,,,,,1,,,67,46
348480,note_off,120,0,3,,,,,,,,,3,,,60,0
348480,note_on,0,0,3,,,,,,,,,3,,,64,46
348600,note_off,120,0,3,,,,,,,,,3,,,64,0
348600,note_on,0,0,3,,,,,,,,,3,,,60,44
348720,set_tempo,1680,1,0,,,,,,638297,,,,,,,
348720,note_off,120,0,3,,,,,,,,,3,,,60,0
348720,note_on,0,0,3,,,,,,,,,3,,,58,41
348840,note_off,120,0,3,,,,,,,,,3,,,58,0
348840,set_tempo,120,1,0,,,,,,659340,,,,,,,
348840,note_off,0,0,1,,,,,,,,,1,,,79,0
348840,note_off,360,0,1,,,,,,,,,1,,,67,0
348840,note_on,0,0,3,,,,,,,,,3,,,55,39
348936,note_off,96,0,3,,,,,,,,,3,,,55,0
348960,set_tempo,120,1,0,,,,,,625000,,,,,,,
348960,note_on,120,0,1,,,,,,,,,1,,,72,46
348960,note_on,780,0,5,,,,,,,,,5,,,41,46
348960,note_on,0,0,1,,,,,,,,,1,,,60,46
349080,note_on,144,0,3,,,,,,,,,3,,,57,47
349140,note_off,180,0,5,,,,,,,,,5,,,41,0
349200,note_off,120,0,3,,,,,,,,,3,,,57,0
349200,note_on,0,0,3,,,,,,,,,3,,,60,48
349320,note_off,120,0,3,,,,,,,,,3,,,60,0
349320,note_on,0,0,3,,,,,,,,,3,,,57,48
349416,note_off,96,0,3,,,,,,,,,3,,,57,0
349440,note_on,300,0,5,,,,,,,,,5,,,45,49
349560,note_on,144,0,3,,,,,,,,,3,,,57,50
349620,note_off,180,0,5,,,,,,,,,5,,,45,0
349680,note_off,120,0,3,,,,,,,,,3,,,57,0
349680,note_on,0,0,3,,,,,,,,,3,,,60,51
349680,note_on,0,0,1,,,,,,,,,1,,,65,51
349680,note_on,0,0,1,,,,,,,,,1,,,77,51
349680,note_off,0,0,1,,,,,,,,,1,,,72,0
349680,note_off,720,0,1,,,,,,,,,1,,,60,0
349800,note_off,120,0,3,,,,,,,,,3,,,60,0
349800,note_on,0,0,3,,,,,,,,,3,,,57,52
349896,note_off,96,0,3,,,,,,,,,3,,,57,0
349920,note_on,300,0,5,,,,,,,,,5,,,48,53
350040,note_on,144,0,3,,,,,,,,,3,,,55,53
350100,note_off,180,0,5,,,,,,,,,5,,,48,0
350160,note_on,0,0,1,,,,,,,,,1,,,76,54
350160,note_on,0,0,3,,,,,,,,,3,,,58,54
350160,note_off,120,0,3,,,,,,,,,3,,,55,0
350160,note_off,480,0,1,,,,,,,,,1,,,65,0
350160,note_off,0,0,1,,,,,,,,,1,,,77,0
350160,note_on,0,0,1,,,,,,,,,1,,,64,54
350280,note_on,0,0,3,,,,,,,,,3,,,55,55
350280,note_off,120,0,3,,,,,,,,,3,,,58,0
350352,note_off,192,0,1,,,,,,,,,1,,,64,0
350352,note_off,0,0,1,,,,,,,,,1,,,76,0
350376,note_off,96,0,3,,,,,,,,,3,,,55,0
350400,note_on,0,0,1,,,,,,,,,1,,,77,56
350400,note_on,48,0,1,,,,,,,,,1,,,65,56
350400,note_on,300,0,5,,,,,,,,,5,,,50,56
350520,note_on,144,0,3,,,,,,,,,3,,,53,57
350580,note_off,180,0,5,,,,,,,,,5,,,50,0
350640,note_off,120,0,3,,,,,,,,,3,,,53,0
350640,note_on,0,0,3,,,,,,,,,3,,,57,57
350760,note_off,0,0,1,,,,,,,,,1,,,65,0
350760,note_off,120,0,3,,,,,,,,,3,,,57,0
350760,note_on,0,0,3,,,,,,,,,3,,,53,58
350760,note_off,360,0,1,,,,,,,,,1,,,77,0
350760,set_tempo,1800,1,0,,,,,,638297,,,,,,,
350856,note_off,96,0,3,,,,,,,,,3,,,53,0
350880,set_tempo,120,1,0,,,,,,625000,,,,,,,
350880,note_on,120,0,1,,,,,,,,,1,,,67,63
350880,note_on,0,0,1,,,,,,,,,1,,,79,63
350880,note_on,300,0,5,,,,,,,,,5,,,46,63
351000,note_on,144,0,3,,,,,,,,,3,,,58,61
351060,note_off,180,0,5,,,,,,,,,5,,,46,0
351120,note_on,0,0,3,,,,,,,,,3,,,62,60
351120,note_off,120,0,3,,,,,,,,,3,,,58,0
351240,note_on,0,0,3,,,,,,,,,3,,,58,60
351240,note_off,120,0,3,,,,,,,,,3,,,62,0
351336,note_off,96,0,3,,,,,,,,,3,,,58,0
351360,note_on,300,0,5,,,,,,,,,5,,,48,59
351480,note_on,144,0,3,,,,,,,,,3,,,60,58
351540,note_off,180,0,5,,,,,,,,,5,,,48,0
351600,note_on,0,0,1,,,,,,,,,1,,,69,58
351600,note_on,0,0,1,,,,,,,,,1,,,81,58
351600,note_off,0,0,1,,,,,,,,,1,,,67,0
351600,note_off,720,0,1,,,,,,,,,1,,,79,0
351600,note_off,120,0,3,,,,,,,,,3,,,60,0
351600,note_on,0,0,3,,,,,,,,,3,,,64,58
351696,note_off,96,0,1,,,,,,,,,1,,,69,0
351696,note_off,0,0,1,,,,,,,,,1,,,81,0
351720,note_on,0,0,1,,,,,,,,,1,,,70,57
351720,note_on,24,0,1,,,,,,,,,1,,,82,57
351720,note_off,120,0,3,,,,,,,,,3,,,64,0
351720,note_on,0,0,3,,,,,,,,,3,,,60,57
351800,set_tempo,920,1,0,,,,,,631578,,,,,,,
351816,note_off,0,0,1,,,,,,,,,1,,,82,0
351816,note_off,96,0,1,,,,,,,,,1,,,70,0
351816,note_off,96,0,3,,,,,,,,,3,,,60,0
351840,note_on,24,0,1,,,,,,,,,1,,,82,61
351840,set_tempo,40,1,0,,,,,,625000,,,,,,,
351840,note_on,300,0,5,,,,,,,,,5,,,41,61
351840,note_on,0,0,1,,,,,,,,,1,,,70,61
351960,note_on,144,0,3,,,,,,,,,3,,,60,58
352020,note_off,180,0,5,,,,,,,,,5,,,41,0
352080,note_off,120,0,3,,,,,,,,,3,,,60,0
352080,note_on,0,0,3,,,,,,,,,3,,,64,57
352200,note_off,120,0,3,,,,,,,,,3,,,64,0
352200,note_on,0,0,3,,,,,,,,,3,,,60,56
352320,note_off,480,0,1,,,,,,,,,1,,,70,0
352320,note_off,0,0,1,,,,,,,,,1,,,82,0
352320,note_on,0,0,1,,,,,,,,,1,,,69,57
352320,note_on,0,0,1,,,,,,,,,1,,,81,57
352320,note_off,120,0,3,,,,,,,,,3,,,60,0
352320,note_on,0,0,3,,,,,,,,,3,,,65,57
352440,note_off,120,0,3,,,,,,,,,3,,,65,0
352440,note_on,0,0,3,,,,,,,,,3,,,60,55
352560,note_off,120,0,3,,,,,,,,,3,,,60,0
352560,set_tempo,720,1,0,,,,,,638297,,,,,,,
352560,note_on,0,0,3,,,,,,,,,3,,,57,53
352680,note_off,360,0,1,,,,,,,,,1,,,81,0
352680,note_off,0,0,1,,,,,,,,,1,,,69,0
352680,set_tempo,120,1,0,,,,,,750000,,,,,,,
352680,note_off,120,0,3,,,,,,,,,3,,,57,0
352680,note_on,0,0,3,,,,,,,,,3,,,53,51
352776,note_off,96,0,3,,,,,,,,,3,,,53,0
352800,control_change,24,0,3,,,,,,,64,0,3,,,,
352800,control_change,7680,0,2,,,,,,,64,0,2,,,,
352800,control_change,120,0,1,,,,,,,64,0,1,,,,
352800,note_on,0,0,1,,,,,,,,,1,,,72,56
352800,note_on,0,0,1,,,,,,,,,1,,,84,56
352800,set_tempo,120,1,0,,,,,,625000,,,,,,,
352800,control_change,7680,0,4,,,,,,,64,0,4,,,,
352800,control_change,780,0,5,,,,,,,64,0,5,,,,
352800,note_on,0,0,5,,,,,,,,,5,,,45,56
352920,note_on,120,0,3,,,,,,,,,3,,,60,57
352920,note_on,0,0,3,,,,,,,,,3,,,57,57
352980,note_off,180,0,5,,,,,,,,,5,,,45,0
353040,note_off,120,0,3,,,,,,,,,3,,,57,0
353040,note_off,0,0,3,,,,,,,,,3,,,60,0
353040,note_on,0,0,3,,,,,,,,,3,,,65,58
353160,note_off,0,0,1,,,,,,,,,1,,,72,0
353160,note_off,360,0,1,,,,,,,,,1,,,84,0
353160,note_off,120,0,3,,,,,,,,,3,,,65,0
353160,note_on,0,0,3,,,,,,,,,3,,,57,58
353160,note_on,0,0,3,,,,,,,,,3,,,60,58
353256,note_off,0,0,3,,,,,,,,,3,,,60,0
353256,note_off,96,0,3,,,,,,,,,3,,,57,0
353280,note_on,120,0,1,,,,,,,,,1,,,86,59
353280,note_on,0,0,1,,,,,,,,,1,,,74,59
353280,note_on,300,0,5,,,,,,,,,5,,,50,59
353400,note_on,0,0,3,,,,,,,,,3,,,60,60
353400,note_on,144,0,3,,,,,,,,,3,,,57,60
353460,note_off,180,0,5,,,,,,,,,5,,,50,0
353520,note_off,0,0,3,,,,,,,,,3,,,57,0
353520,note_off,120,0,3,,,,,,,,,3,,,60,0
353520,note_on,0,0,3,,,,,,,,,3,,,66,61
353640,note_off,120,0,3,,,,,,,,,3,,,66,0
353640,note_on,0,0,3,,,,,,,,,3,,,60,62
353640,note_on,0,0,3,,,,,,,,,3,,,57,62
353640,note_off,360,0,1,,,,,,,,,1,,,74,0
353640,note_off,0,0,1,,,,,,,,,1,,,86,0
353736,note_off,0,0,3,,,,,,,,,3,,,60,0
353736,note_off,96,0,3,,,,,,,,,3,,,57,0
353760,note_on,120,0,1,,,,,,,,,1,,,72,63
353760,note_on,0,0,1,,,,,,,,,1,,,84,63
353760,note_on,300,0,5,,,,,,,,,5,,,43,63
353880,note_on,0,0,3,,,,,,,,,3,,,62,63
353880,note_on,144,0,3,,,,,,,,,3,,,58,63
353940,note_off,180,0,5,,,,,,,,,5,,,43,0
353952,note_off,192,0,1,,,,,,,,,1,,,84,0
353952,note_off,0,0,1,,,,,,,,,1,,,72,0
354000,note_off,120,0,3,,,,,,,,,3,,,62,0
354000,note_on,0,0,1,,,,,,,,,1,,,70,64
354000,note_off,0,0,3,,,,,,,,,3,,,58,0
354000,note_on,0,0,3,,,,,,,,,3,,,67,64
354000,note_on,48,0,1,,,,,,,,,1,,,82,64
354120,note_off,120,0,3,,,,,,,,,3,,,67,0
354120,note_on,0,0,3,,,,,,,,,3,,,58,65
354120,note_on,0,0,3,,,,,,,,,3,,,62,65
354192,note_off,0,0,1,,,,,,,,,1,,,82,0
354192,note_off,192,0,1,,,,,,,,,1,,,70,0
354216,note_off,96,0,3,,,,,,,,,3,,,62,0
354216,note_off,0,0,3,,,,,,,,,3,,,58,0
354240,note_on,300,0,5,,,,,,,,,5,,,46,66
354240,note_on,48,0,1,,,,,,,,,1,,,81,66
354240,note_on,0,0,1,,,,,,,,,1,,,69,66
354360,note_on,0,0,3,,,,,,,,,3,,,55,67
354360,note_on,144,0,3,,,,,,,,,3,,,58,67
354420,note_off,180,0,5,,,,,,,,,5,,,46,0
354480,note_off,0,0,3,,,,,,,,,3,,,58,0
354480,note_off,120,0,3,,,,,,,,,3,,,55,0
354480,note_on,0,0,3,,,,,,,,,3,,,62,68
354600,note_off,0,0,1,,,,,,,,,1,,,81,0
354600,note_off,360,0,1,,,,,,,,,1,,,69,0
354600,note_off,120,0,3,,,,,,,,,3,,,62,0
354600,note_on,0,0,3,,,,,,,,,3,,,58,68
354600,note_on,0,0,3,,,,,,,,,3,,,55,68
354600,set_tempo,1800,1,0,,,,,,638297,,,,,,,
354720,note_off,120,0,3,,,,,,,,,3,,,55,0
354720,note_off,0,0,3,,,,,,,,,3,,,58,0
354720,set_tempo,120,1,0,,,,,,625000,,,,,,,
354720,note_on,120,0,1,,,,,,,,,1,,,70,71
354720,note_on,0,0,1,,,,,,,,,1,,,82,71
354720,note_on,300,0,5,,,,,,,,,5,,,40,71
354840,note_on,120,0,3,,,,,,,,,3,,,58,69
354840,note_on,0,0,3,,,,,,,,,3,,,55,69
354900,note_off,180,0,5,,,,,,,,,5,,,40,0
354960,note_off,0,0,3,,,,,,,,,3,,,58,0
354960,note_on,0,0,3,,,,,,,,,3,,,60,68
354960,note_off,120,0,3,,,,,,,,,3,,,55,0
355080,note_on,0,0,3,,,,,,,,,3,,,55,67
355080,note_off,0,0,1,,,,,,,,,1,,,70,0
355080,note_off,360,0,1,,,,,,,,,1,,,82,0
355080,note_off,120,0,3,,,,,,,,,3,,,60,0
355080,note_on,0,0,3,,,,,,,,,3,,,58,67
355176,note_off,96,0,3,,,,,,,,,3,,,55,0
355176,note_off,0,0,3,,,,,,,,,3,,,58,0
355200,note_on,300,0,5,,,,,,,,,5,,,36,67
355200,note_on,120,0,1,,,,,,,,,1,,,72,67
355200,note_on,0,0,1,,,,,,,,,1,,,84,67
355320,note_on,0,0,3,,,,,,,,,3,,,52,66
355320,note_on,144,0,3,,,,,,,,,3,,,55,66
355380,note_off,180,0,5,,,,,,,,,5,,,36,0
355440,note_off,0,0,3,,,,,,,,,3,,,55,0
355440,note_off,120,0,3,,,,,,,,,3,,,52,0
355440,note_on,0,0,3,,,,,,,,,3,,,60,65
355560,note_off,120,0,3,,,,,,,,,3,,,60,0
355560,note_off,360,0,1,,,,,,,,,1,,,84,0
355560,note_off,0,0,1,,,,,,,,,1,,,72,0
355560,note_on,0,0,3,,,,,,,,,3,,,55,64
355560,note_on,0,0,3,,,,,,,,,3,,,52,64
355656,note_off,96,0,3,,,,,,,,,3,,,52,0
355656,note_off,0,0,3,,,,,,,,,3,,,55,0
355680,note_on,300,0,5,,,,,,,,,5,,,45,67
355680,note_on,0,0,1,,,,,,,,,1,,,65,67
355680,note_on,120,0,1,,,,,,,,,1,,,77,67
355800,note_on,0,0,3,,,,,,,,,3,,,53,66
355800,note_on,144,0,3,,,,,,,,,3,,,57,66
355860,note_off,180,0,5,,,,,,,,,5,,,45,0
355920,note_off,120,0,3,,,,,,,,,3,,,53,0
355920,note_on,0,0,3,,,,,,,,,3,,,60,64
355920,note_off,0,0,3,,,,,,,,,3,,,57,0
355968,note_off,288,0,1,,,,,,,,,1,,,65,0
355968,note_off,0,0,1,,,,,,,,,1,,,77,0
356040,note_off,120,0,3,,,,,,,,,3,,,60,0
356040,note_on,0,0,3,,,,,,,,,3,,,57,63
356040,note_on,0,0,3,,,,,,,,,3,,,53,63
356040,note_on,72,0,1,,,,,,,,,1,,,67,63
356040,note_on,0,0,1,,,,,,,,,1,,,79,63
356136,note_off,96,0,3,,,,,,,,,3,,,53,0
356136,note_off,0,0,1,,,,,,,,,1,,,67,0
356136,note_off,0,0,3,,,,,,,,,3,,,57,0
356136,note_off,96,0,1,,,,,,,,,1,,,79,0
356160,note_on,0,0,1,,,,,,,,,1,,,81,62
356160,note_on,24,0,1,,,,,,,,,1,,,69,62
356160,note_on,300,0,5,,,,,,,,,5,,,47,62
356280,note_on,144,0,3,,,,,,,,,3,,,57,60
356280,note_on,0,0,3,,,,,,,,,3,,,53,60
356340,note_off,180,0,5,,,,,,,,,5,,,47,0
356400,note_off,120,0,3,,,,,,,,,3,,,53,0
356400,note_off,0,0,3,,,,,,,,,3,,,57,0
356400,note_on,0,0,3,,,,,,,,,3,,,62,59
356520,note_off,120,0,3,,,,,,,,,3,,,62,0
356520,note_on,0,0,3,,,,,,,,,3,,,57,58
356520,note_on,0,0,3,,,,,,,,,3,,,53,58
356520,set_tempo,1800,1,0,,,,,,652173,,,,,,,
356616,note_off,0,0,3,,,,,,,,,3,,,57,0
356616,note_off,96,0,3,,,,,,,,,3,,,53,0
356640,set_tempo,120,1,0,,,,,,625000,,,,,,,
356640,note_off,0,0,1,,,,,,,,,1,,,69,0
356640,note_on,0,0,1,,,,,,,,,1,,,79,60
356640,note_on,300,0,5,,,,,,,,,5,,,46,60
356640,note_on,0,0,1,,,,,,,,,1,,,67,60
356640,note_off,480,0,1,,,,,,,,,1,,,81,0
356760,note_on,0,0,3,,,,,,,,,3,,,53,61
356760,note_on,144,0,3,,,,,,,,,3,,,55,61
356820,note_off,180,0,5,,,,,,,,,5,,,46,0
356832,note_off,192,0,1,,,,,,,,,1,,,79,0
356832,note_off,0,0,1,,,,,,,,,1,,,67,0
356880,note_off,120,0,3,,,,,,,,,3,,,53,0
356880,note_on,48,0,1,,,,,,,,,1,,,79,62
356880,note_on,0,0,3,,,,,,,,,3,,,62,62
356880,note_on,0,0,1,,,,,,,,,1,,,67,62
356880,note_off,0,0,3,,,,,,,,,3,,,55,0
357000,note_off,120,0,3,,,,,,,,,3,,,62,0
357000,note_on,0,0,3,,,,,,,,,3,,,55,64
357000,note_on,0,0,3,,,,,,,,,3,,,53,64
357072,note_off,0,0,1,,,,,,,,,1,,,79,0
357072,note_off,192,0,1,,,,,,,,,1,,,67,0
357096,note_off,0,0,3,,,,,,,,,3,,,55,0
357096,note_off,96,0,3,,,,,,,,,3,,,53,0
357120,note_on,300,0,5,,,,,,,,,5,,,48,65
357120,note_on,48,0,1,,,,,,,,,1,,,79,65
357120,note_on,0,0,1,,,,,,,,,1,,,67,65
357240,note_on,0,0,3,,,,,,,,,3,,,52,66
357240,note_on,144,0,3,,,,,,,,,3,,,55,66
357300,note_off,180,0,5,,,,,,,,,5,,,48,0
357312,note_off,192,0,1,,,,,,,,,1,,,67,0
357312,note_off,0,0,1,,,,,,,,,1,,,79,0
357360,note_on,0,0,1,,,,,,,,,1,,,82,67
357360,note_on,0,0,3,,,,,,,,,3,,,60,67
357360,note_off,0,0,3,,,,,,,,,3,,,55,0
357360,note_off,120,0,3,,,,,,,,,3,,,52,0
357360,note_on,48,0,1,,,,,,,,,1,,,70,67
357480,note_on,0,0,3,,,,,,,,,3,,,52,69
357480,note_on,0,0,3,,,,,,,,,3,,,55,69
357480,note_off,120,0,3,,,,,,,,,3,,,60,0
357540,note_off,180,0,1,,,,,,,,,1,,,82,0
357540,note_on,0,0,1,,,,,,,,,1,,,81,69
357540,note_on,0,0,1,,,,,,,,,1,,,69,69
357540,note_off,0,0,1,,,,,,,,,1,,,70,0
357576,note_off,0,0,3,,,,,,,,,3,,,55,0
357576,note_off,96,0,3,,,,,,,,,3,,,52,0
357588,note_off,48,0,1,,,,,,,,,1,,,69,0
357588,note_off,0,0,1,,,,,,,,,1,,,81,0
357600,note_on,12,0,1,,,,,,,,,1,,,69,70
357600,note_on,0,0,1,,,,,,,,,1,,,81,70
357600,note_on,300,0,5,,,,,,,,,5,,,41,70
357720,note_on,144,0,3,,,,,,,,,3,,,57,71
357720,note_on,0,0,3,,,,,,,,,3,,,53,71
357780,note_off,180,0,5,,,,,,,,,5,,,41,0
357840,note_on,0,0,3,,,,,,,,,3,,,60,73
357840,note_off,0,0,3,,,,,,,,,3,,,57,0
357840,note_off,120,0,3,,,,,,,,,3,,,53,0
357960,note_off,0,0,1,,,,,,,,,1,,,69,0
357960,note_off,360,0,1,,,,,,,,,1,,,81,0
357960,note_on,0,0,3,,,,,,,,,3,,,57,74
357960,note_off,120,0,3,,,,,,,,,3,,,60,0
357960,note_on,0,0,3,,,,,,,,,3,,,53,74
358056,note_off,0,0,3,,,,,,,,,3,,,57,0
358056,note_off,96,0,3,,,,,,,,,3,,,53,0
358080,note_on,120,0,1,,,,,,,,,1,,,72,77
358080,note_on,0,0,1,,,,,,,,,1,,,84,77
358080,note_on,300,0,5,,,,,,,,,5,,,45,77
358200,note_on,0,0,3,,,,,,,,,3,,,57,72
358200,note_on,144,0,3,,,,,,,,,3,,,60,72
358260,note_off,180,0,5,,,,,,,,,5,,,45,0
358320,note_on,0,0,3,,,,,,,,,3,,,65,71
358320,note_off,120,0,3,,,,,,,,,3,,,57,0
358320,note_off,0,0,3,,,,,,,,,3,,,60,0
358440,set_tempo,1800,1,0,,,,,,652173,,,,,,,
358440,note_off,0,0,1,,,,,,,,,1,,,72,0
358440,note_on,0,0,3,,,,,,,,,3,,,60,70
358440,note_on,0,0,3,,,,,,,,,3,,,57,70
358440,note_off,120,0,3,,,,,,,,,3,,,65,0
358440,note_off,360,0,1,,,,,,,,,1,,,84,0
358536,note_off,0,0,3,,,,,,,,,3,,,57,0
358536,note_off,96,0,3,,,,,,,,,3,,,60,0
358560,note_on,120,0,1,,,,,,,,,1,,,79,72
358560,note_on,0,0,1,,,,,,,,,1,,,67,72
358560,set_tempo,120,1,0,,,,,,625000,,,,,,,
358560,note_on,300,0,5,,,,,,,,,5,,,46,72
358680,note_on,0,0,3,,,,,,,,,3,,,55,70
358680,note_on,144,0,3,,,,,,,,,3,,,53,70
358740,note_off,180,0,5,,,,,,,,,5,,,46,0
358752,note_off,0,0,1,,,,,,,,,1,,,79,0
358752,note_off,192,0,1,,,,,,,,,1,,,67,0
358800,note_on,0,0,1,,,,,,,,,1,,,79,68
358800,note_on,0,0,3,,,,,,,,,3,,,62,68
358800,note_off,0,0,3,,,,,,,,,3,,,53,0
358800,note_off,120,0,3,,,,,,,,,3,,,55,0
358800,note_on,48,0,1,,,,,,,,,1,,,67,68
358920,note_on,0,0,3,,,,,,,,,3,,,55,66
358920,note_off,120,0,3,,,,,,,,,3,,,62,0
358920,note_on,0,0,3,,,,,,,,,3,,,53,66
358992,note_off,192,0,1,,,,,,,,,1,,,79,0
358992,note_off,0,0,1,,,,,,,,,1,,,67,0
359016,note_off,0,0,3,,,,,,,,,3,,,55,0
359016,note_off,96,0,3,,,,,,,,,3,,,53,0
359040,note_on,48,0,1,,,,,,,,,1,,,67,64
359040,note_on,300,0,5,,,,,,,,,5,,,48,64
359040,note_on,0,0,1,,,,,,,,,1,,,79,64
359160,note_on,0,0,3,,,,,,,,,3,,,52,63
359160,note_on,144,0,3,,,,,,,,,3,,,55,63
359220,note_off,180,0,5,,,,,,,,,5,,,48,0
359232,note_off,192,0,1,,,,,,,,,1,,,79,0
359232,note_off,0,0,1,,,,,,,,,1,,,67,0
359280,note_off,0,0,3,,,,,,,,,3,,,55,0
359280,note_off,120,0,3,,,,,,,,,3,,,52,0
359280,note_on,0,0,3,,,,,,,,,3,,,60,61
359280,note_on,0,0,1,,,,,,,,,1,,,70,61
359280,note_on,48,0,1,,,,,,,,,1,,,82,61
359400,note_off,120,0,3,,,,,,,,,3,,,60,0
359400,note_on,0,0,3,,,,,,,,,3,,,55,59
359400,note_on,0,0,3,,,,,,,,,3,,,52,59
359460,note_off,0,0,1,,,,,,,,,1,,,82,0
359460,note_on,0,0,1,,,,,,,,,1,,,69,58
359460,note_on,0,0,1,,,,,,,,,1,,,81,58
359460,note_off,180,0,1,,,,,,,,,1,,,70,0
359480,set_tempo,920,1,0,,,,,,631578,,,,,,,
359496,note_off,0,0,3,,,,,,,,,3,,,52,0
359496,note_off,96,0,3,,,,,,,,,3,,,55,0
359508,note_off,48,0,1,,,,,,,,,1,,,81,0
359508,note_off,0,0,1,,,,,,,,,1,,,69,0
359520,note_on,0,0,1,,,,,,,,,1,,,65,58
359520,note_on,12,0,1,,,,,,,,,1,,,77,58
359520,note_on,300,0,5,,,,,,,,,5,,,41,58
359640,note_on,0,0,3,,,,,,,,,3,,,57,55
359640,note_on,144,0,3,,,,,,,,,3,,,60,55
359700,note_off,180,0,5,,,,,,,,,5,,,41,0
359760,note_off,120,0,3,,,,,,,,,3,,,57,0
359760,note_off,0,0,3,,,,,,,,,3,,,60,0
359760,note_on,0,0,3,,,,,,,,,3,,,65,52
359880,note_off,360,0,1,,,,,,,,,1,,,65,0
359880,note_on,0,0,3,,,,,,,,,3,,,60,49
359880,note_off,0,0,1,,,,,,,,,1,,,77,0
359880,note_off,120,0,3,,,,,,,,,3,,,65,0
359880,note_on,0,0,3,,,,,,,,,3,,,57,49
359940,set_tempo,460,1,0,,,,,,638297,,,,,,,
359976,note_off,96,0,3,,,,,,,,,3,,,60,0
359976,note_off,0,0,3,,,,,,,,,3,,,57,0
360000,note_on,24,0,3,,,,,,,,,3,,,65,46
360156,note_off,156,0,3,,,,,,,,,3,,,65,0
360240,set_tempo,300,1,0,,,,,,638297,,,,,,,
360360,set_tempo,120,1,0,,,,,,1000000,,,,,,,
360480,control_change,7680,0,4,,,,,,,64,0,4,,,,
360480,note_on,0,0,1,,,,,,,,,1,,,84,56
360480,note_on,0,0,1,,,,,,,,,1,,,72,56
360480,control_change,7680,0,2,,,,,,,64,0,2,,,,
360480,control_change,600,0,1,,,,,,,64,0,1,,,,
360480,control_change,780,0,5,,,,,,,64,0,5,,,,
360480,note_on,0,0,5,,,,,,,,,5,,,45,56
360480,control_change,324,0,3,,,,,,,64,0,3,,,,
360480,set_tempo,120,1,0,,,,,,625000,,,,,,,
360600,note_on,120,0,3,,,,,,,,,3,,,57,57
360600,note_on,0,0,3,,,,,,,,,3,,,60,57
360660,note_off,180,0,5,,,,,,,,,5,,,45,0
360720,note_off,0,0,3,,,,,,,,,3,,,57,0
360720,note_on,0,0,3,,,,,,,,,3,,,65,58
360720,note_off,120,0,3,,,,,,,,,3,,,60,0
360840,note_off,360,0,1,,,,,,,,,1,,,72,0
360840,note_off,0,0,1,,,,,,,,,1,,,84,0
360840,note_off,120,0,3,,,,,,,,,3,,,65,0
360840,note_on,0,0,3,,,,,,,,,3,,,57,58
360840,note_on,0,0,3,,,,,,,,,3,,,60,58
360936,note_off,0,0,3,,,,,,,,,3,,,57,0
360936,note_off,96,0,3,,,,,,,,,3,,,60,0
360960,note_on,120,0,1,,,,,,,,,1,,,74,59
360960,note_on,300,0,5,,,,,,,,,5,,,50,59
360960,note_on,0,0,1,,,,,,,,,1,,,86,59
361080,note_on,144,0,3,,,,,,,,,3,,,60,60
361080,note_on,0,0,3,,,,,,,,,3,,,57,60
361140,note_off,180,0,5,,,,,,,,,5,,,50,0
361200,note_off,120,0,3,,,,,,,,,3,,,57,0
361200,note_off,0,0,3,,,,,,,,,3,,,60,0
361200,note_on,0,0,3,,,,,,,,,3,,,66,61
361320,note_off,360,0,1,,,,,,,,,1,,,86,0
361320,note_off,0,0,1,,,,,,,,,1,,,74,0
361320,note_on,0,0,3,,,,,,,,,3,,,57,62
361320,note_on,0,0,3,,,,,,,,,3,,,60,62
361320,note_off,120,0,3,,,,,,,,,3,,,66,0
361416,note_off,0,0,3,,,,,,,,,3,,,57,0
361416,note_off,96,0,3,,,,,,,,,3,,,60,0
361440,note_on,0,0,1,,,,,,,,,1,,,72,63
361440,note_on,300,0,5,,,,,,,,,5,,,43,63
361440,note_on,120,0,1,,,,,,,,,1,,,84,63
361560,note_on,144,0,3,,,,,,,,,3,,,62,63
361560,note_on,0,0,3,,,,,,,,,3,,,58,63
361620,note_off,180,0,5,,,,,,,,,5,,,43,0
361632,note_off,0,0,1,,,,,,,,,1,,,84,0
361632,note_off,192,0,1,,,,,,,,,1,,,72,0
361680,note_on,0,0,3,,,,,,,,,3,,,67,64
361680,note_off,0,0,3,,,,,,,,,3,,,62,0
361680,note_off,120,0,3,,,,,,,,,3,,,58,0
361680,note_on,48,0,1,,,,,,,,,1,,,70,64
361680,note_on,0,0,1,,,,,,,,,1,,,82,64
361800,note_on,0,0,3,,,,,,,,,3,,,58,65
361800,note_on,0,0,3,,,,,,,,,3,,,62,65
361800,note_off,120,0,3,,,,,,,,,3,,,67,0
361872,note_off,192,0,1,,,,,,,,,1,,,82,0
361872,note_off,0,0,1,,,,,,,,,1,,,70,0
361896,note_off,96,0,3,,,,,,,,,3,,,58,0
361896,note_off,0,0,3,,,,,,,,,3,,,62,0
361920,note_on,48,0,1,,,,,,,,,1,,,69,66
361920,note_on,300,0,5,,,,,,,,,5,,,46,66
361920,note_on,0,0,1,,,,,,,,,1,,,81,66
362040,note_on,144,0,3,,,,,,,,,3,,,55,67
362040,note_on,0,0,3,,,,,,,,,3,,,58,67
362100,note_off,180,0,5,,,,,,,,,5,,,46,0
362160,note_off,0,0,3,,,,,,,,,3,,,55,0
362160,note_off,120,0,3,,,,,,,,,3,,,58,0
362160,note_on,0,0,3,,,,,,,,,3,,,62,68
362280,note_off,360,0,1,,,,,,,,,1,,,81,0
362280,note_off,0,0,1,,,,,,,,,1,,,69,0
362280,note_off,120,0,3,,,,,,,,,3,,,62,0
362280,note_on,0,0,3,,,,,,,,,3,,,55,68
362280,note_on,0,0,3,,,,,,,,,3,,,58,68
362280,set_tempo,1800,1,0,,,,,,638297,,,,,,,
362400,note_off,120,0,3,,,,,,,,,3,,,58,0
362400,note_off,0,0,3,,,,,,,,,3,,,55,0
362400,note_on,0,0,1,,,,,,,,,1,,,70,71
362400,set_tempo,120,1,0,,,,,,625000,,,,,,,
362400,note_on,120,0,1,,,,,,,,,1,,,82,71
362400,note_on,300,0,5,,,,,,,,,5,,,40,71
362520,note_on,120,0,3,,,,,,,,,3,,,55,69
362520,note_on,0,0,3,,,,,,,,,3,,,58,69
362580,note_off,180,0,5,,,,,,,,,5,,,40,0
362640,note_off,120,0,3,,,,,,,,,3,,,58,0
362640,note_off,0,0,3,,,,,,,,,3,,,55,0
362640,note_on,0,0,3,,,,,,,,,3,,,60,68
362760,note_on,0,0,3,,,,,,,,,3,,,55,67
362760,note_off,120,0,3,,,,,,,,,3,,,60,0
362760,note_on,0,0,3,,,,,,,,,3,,,58,67
362760,note_off,0,0,1,,,,,,,,,1,,,82,0
362760,note_off,360,0,1,,,,,,,,,1,,,70,0
362856,note_off,96,0,3,,,,,,,,,3,,,58,0
362856,note_off,0,0,3,,,,,,,,,3,,,55,0
362880,note_on,120,0,1,,,,,,,,,1,,,84,67
362880,note_on,300,0,5,,,,,,,,,5,,,36,67
362880,note_on,0,0,1,,,,,,,,,1,,,72,67
363000,note_on,0,0,3,,,,,,,,,3,,,55,66
363000,note_on,144,0,3,,,,,,,,,3,,,52,66
363060,note_off,180,0,5,,,,,,,,,5,,,36,0
363120,note_off,0,0,3,,,,,,,,,3,,,52,0
363120,note_on,0,0,3,,,,,,,,,3,,,60,65
363120,note_off,120,0,3,,,,,,,,,3,,,55,0
363240,note_on,0,0,3,,,,,,,,,3,,,55,64
363240,note_on,0,0,3,,,,,,,,,3,,,52,64
363240,note_off,120,0,3,,,,,,,,,3,,,60,0
363240,note_off,360,0,1,,,,,,,,,1,,,72,0
363240,note_off,0,0,1,,,,,,,,,1,,,84,0
363336,note_off,96,0,3,,,,,,,,,3,,,55,0
363336,note_off,0,0,3,,,,,,,,,3,,,52,0
363360,note_on,120,0,1,,,,,,,,,1,,,65,67
363360,note_on,300,0,5,,,,,,,,,5,,,45,67
363360,note_on,0,0,1,,,,,,,,,1,,,77,67
363480,note_on,0,0,3,,,,,,,,,3,,,57,66
363480,note_on,144,0,3,,,,,,,,,3,,,53,66
363540,note_off,180,0,5,,,,,,,,,5,,,45,0
363600,note_on,0,0,3,,,,,,,,,3,,,60,64
363600,note_off,0,0,3,,,,,,,,,3,,,53,0
363600,note_off,120,0,3,,,,,,,,,3,,,57,0
363648,note_off,0,0,1,,,,,,,,,1,,,65,0
363648,note_off,288,0,1,,,,,,,,,1,,,77,0
363720,note_on,0,0,3,,,,,,,,,3,,,53,63
363720,note_on,0,0,1,,,,,,,,,1,,,67,63
363720,note_on,72,0,1,,,,,,,,,1,,,79,63
363720,note_off,120,0,3,,,,,,,,,3,,,60,0
363720,note_on,0,0,3,,,,,,,,,3,,,57,63
363816,note_off,96,0,3,,,,,,,,,3,,,57,0
363816,note_off,0,0,3,,,,,,,,,3,,,53,0
363816,note_off,0,0,1,,,,,,,,,1,,,79,0
363816,note_off,96,0,1,,,,,,,,,1,,,67,0
363840,note_on,0,0,1,,,,,,,,,1,,,69,62
363840,note_on,24,0,1,,,,,,,,,1,,,81,62
363840,note_on,300,0,5,,,,,,,,,5,,,47,62
363960,note_on,144,0,3,,,,,,,,,3,,,53,60
363960,note_on,0,0,3,,,,,,,,,3,,,57,60
364020,note_off,180,0,5,,,,,,,,,5,,,47,0
364080,note_on,0,0,3,,,,,,,,,3,,,62,59
364080,note_off,0,0,3,,,,,,,,,3,,,53,0
364080,note_off,120,0,3,,,,,,,,,3,,,57,0
364200,note_on,0,0,3,,,,,,,,,3,,,57,58
364200,note_off,120,0,3,,,,,,,,,3,,,62,0
364200,note_on,0,0,3,,,,,,,,,3,,,53,58
364200,set_tempo,1800,1,0,,,,,,652173,,,,,,,
364296,note_off,96,0,3,,,,,,,,,3,,,57,0
364296,note_off,0,0,3,,,,,,,,,3,,,53,0
364320,set_tempo,120,1,0,,,,,,625000,,,,,,,
364320,note_on,300,0,5,,,,,,,,,5,,,46,60
364320,note_off,480,0,1,,,,,,,,,1,,,69,0
364320,note_off,0,0,1,,,,,,,,,1,,,81,0
364320,note_on,0,0,1,,,,,,,,,1,,,79,60
364320,note_on,0,0,1,,,,,,,,,1,,,67,60
364440,note_on,144,0,3,,,,,,,,,3,,,53,61
364440,note_on,0,0,3,,,,,,,,,3,,,55,61
364500,note_off,180,0,5,,,,,,,,,5,,,46,0
364512,note_off,192,0,1,,,,,,,,,1,,,67,0
364512,note_off,0,0,1,,,,,,,,,1,,,79,0
364560,note_off,120,0,3,,,,,,,,,3,,,55,0
364560,note_off,0,0,3,,,,,,,,,3,,,53,0
364560,note_on,0,0,3,,,,,,,,,3,,,62,62
364560,note_on,48,0,1,,,,,,,,,1,,,67,62
364560,note_on,0,0,1,,,,,,,,,1,,,79,62
364680,note_on,0,0,3,,,,,,,,,3,,,55,64
364680,note_on,0,0,3,,,,,,,,,3,,,53,64
364680,note_off,120,0,3,,,,,,,,,3,,,62,0
364752,note_off,192,0,1,,,,,,,,,1,,,79,0
364752,note_off,0,0,1,,,,,,,,,1,,,67,0
364776,note_off,96,0,3,,,,,,,,,3,,,55,0
364776,note_off,0,0,3,,,,,,,,,3,,,53,0
364800,note_on,300,0,5,,,,,,,,,5,,,48,65
364800,note_on,48,0,1,,,,,,,,,1,,,67,65
364800,note_on,0,0,1,,,,,,,,,1,,,79,65
364920,note_on,0,0,3,,,,,,,,,3,,,55,66
364920,note_on,144,0,3,,,,,,,,,3,,,52,66
364980,note_off,180,0,5,,,,,,,,,5,,,48,0
364992,note_off,0,0,1,,,,,,,,,1,,,67,0
364992,note_off,192,0,1,,,,,,,,,1,,,79,0
365040,note_off,120,0,3,,,,,,,,,3,,,55,0
365040,note_off,0,0,3,,,,,,,,,3,,,52,0
365040,note_on,48,0,1,,,,,,,,,1,,,82,67
365040,note_on,0,0,1,,,,,,,,,1,,,70,67
365040,note_on,0,0,3,,,,,,,,,3,,,60,67
365160,note_on,0,0,3,,,,,,,,,3,,,55,69
365160,note_on,0,0,3,,,,,,,,,3,,,52,69
365160,note_off,120,0,3,,,,,,,,,3,,,60,0
365220,note_off,180,0,1,,,,,,,,,1,,,70,0
365220,note_off,0,0,1,,,,,,,,,1,,,82,0
365220,note_on,0,0,1,,,,,,,,,1,,,81,69
365220,note_on,0,0,1,,,,,,,,,1,,,69,69
365256,note_off,96,0,3,,,,,,,,,3,,,55,0
365256,note_off,0,0,3,,,,,,,,,3,,,52,0
365268,note_off,48,0,1,,,,,,,,,1,,,81,0
365268,note_off,0,0,1,,,,,,,,,1,,,69,0
365280,note_on,0,0,1,,,,,,,,,1,,,69,70
365280,note_on,300,0,5,,,,,,,,,5,,,41,70
365280,note_on,12,0,1,,,,,,,,,1,,,81,70
365400,note_on,144,0,3,,,,,,,,,3,,,53,71
365400,note_on,0,0,3,,,,,,,,,3,,,57,71
365460,note_off,180,0,5,,,,,,,,,5,,,41,0
365520,note_off,120,0,3,,,,,,,,,3,,,57,0
365520,note_off,0,0,3,,,,,,,,,3,,,53,0
365520,note_on,0,0,3,,,,,,,,,3,,,60,73
365640,note_off,0,0,1,,,,,,,,,1,,,81,0
365640,note_off,120,0,3,,,,,,,,,3,,,60,0
365640,note_on,0,0,3,,,,,,,,,3,,,53,74
365640,note_on,0,0,3,,,,,,,,,3,,,57,74
365640,note_off,360,0,1,,,,,,,,,1,,,69,0
365736,note_off,0,0,3,,,,,,,,,3,,,53,0
365736,note_off,96,0,3,,,,,,,,,3,,,57,0
365760,note_on,120,0,1,,,,,,,,,1,,,84,77
365760,note_on,0,0,1,,,,,,,,,1,,,72,77
365760,note_on,300,0,5,,,,,,,,,5,,,45,77
365880,note_on,144,0,3,,,,,,,,,3,,,57,72
365880,note_on,0,0,3,,,,,,,,,3,,,60,72
365940,note_off,180,0,5,,,,,,,,,5,,,45,0
366000,note_off,0,0,3,,,,,,,,,3,,,57,0
366000,note_on,0,0,3,,,,,,,,,3,,,65,71
366000,note_off,120,0,3,,,,,,,,,3,,,60,0
366120,note_on,0,0,3,,,,,,,,,3,,,57,70
366120,note_off,120,0,3,,,,,,,,,3,,,65,0
366120,note_on,0,0,3,,,,,,,,,3,,,60,70
366120,set_tempo,1800,1,0,,,,,,652173,,,,,,,
366120,note_off,0,0,1,,,,,,,,,1,,,84,0
366120,note_off,360,0,1,,,,,,,,,1,,,72,0
366216,note_off,96,0,3,,,,,,,,,3,,,57,0
366216,note_off,0,0,3,,,,,,,,,3,,,60,0
366240,note_on,120,0,1,,,,,,,,,1,,,67,72
366240,note_on,300,0,5,,,,,,,,,5,,,46,72
366240,set_tempo,120,1,0,,,,,,625000,,,,,,,
366240,note_on,0,0,1,,,,,,,,,1,,,79,72
366360,note_on,144,0,3,,,,,,,,,3,,,55,70
366360,note_on,0,0,3,,,,,,,,,3,,,53,70
366420,note_off,180,0,5,,,,,,,,,5,,,46,0
366432,note_off,192,0,1,,,,,,,,,1,,,79,0
366432,note_off,0,0,1,,,,,,,,,1,,,67,0
366480,note_off,0,0,3,,,,,,,,,3,,,55,0
366480,note_on,48,0,1,,,,,,,,,1,,,79,68
366480,note_on,0,0,1,,,,,,,,,1,,,67,68
366480,note_off,120,0,3,,,,,,,,,3,,,53,0
366480,note_on,0,0,3,,,,,,,,,3,,,62,68
366600,note_off,120,0,3,,,,,,,,,3,,,62,0
366600,note_on,0,0,3,,,,,,,,,3,,,53,66
366600,note_on,0,0,3,,,,,,,,,3,,,55,66
366672,note_off,192,0,1,,,,,,,,,1,,,67,0
366672,note_off,0,0,1,,,,,,,,,1,,,79,0
366696,note_off,0,0,3,,,,,,,,,3,,,53,0
366696,note_off,96,0,3,,,,,,,,,3,,,55,0
366720,note_on,300,0,5,,,,,,,,,5,,,48,64
366720,note_on,0,0,1,,,,,,,,,1,,,67,64
366720,note_on,48,0,1,,,,,,,,,1,,,79,64
366840,note_on,144,0,3,,,,,,,,,3,,,52,63
366840,note_on,0,0,3,,,,,,,,,3,,,55,63
366900,note_off,180,0,5,,,,,,,,,5,,,48,0
366912,note_off,0,0,1,,,,,,,,,1,,,79,0
366912,note_off,192,0,1,,,,,,,,,1,,,67,0
366960,note_on,48,0,1,,,,,,,,,1,,,70,61
366960,note_on,0,0,3,,,,,,,,,3,,,60,61
366960,note_off,0,0,3,,,,,,,,,3,,,52,0
366960,note_off,120,0,3,,,,,,,,,3,,,55,0
366960,note_on,0,0,1,,,,,,,,,1,,,82,61
367080,note_off,120,0,3,,,,,,,,,3,,,60,0
367080,note_on,0,0,3,,,,,,,,,3,,,55,59
367080,note_on,0,0,3,,,,,,,,,3,,,52,59
367140,note_off,180,0,1,,,,,,,,,1,,,82,0
367140,note_off,0,0,1,,,,,,,,,1,,,70,0
367140,note_on,0,0,1,,,,,,,,,1,,,81,58
367140,note_on,0,0,1,,,,,,,,,1,,,69,58
367160,set_tempo,920,1,0,,,,,,631578,,,,,,,
367176,note_off,0,0,3,,,,,,,,,3,,,55,0
367176,note_off,96,0,3,,,,,,,,,3,,,52,0
367188,note_off,0,0,1,,,,,,,,,1,,,81,0
367188,note_off,48,0,1,,,,,,,,,1,,,69,0
367200,note_on,0,0,1,,,,,,,,,1,,,77,58
367200,note_on,300,0,5,,,,,,,,,5,,,41,58
367200,note_on,12,0,1,,,,,,,,,1,,,65,58
367320,note_on,144,0,3,,,,,,,,,3,,,57,55
367320,note_on,0,0,3,,,,,,,,,3,,,60,55
367380,note_off,180,0,5,,,,,,,,,5,,,41,0
367440,note_off,120,0,3,,,,,,,,,3,,,60,0
367440,note_off,0,0,3,,,,,,,,,3,,,57,0
367440,note_on,0,0,3,,,,,,,,,3,,,65,52
367560,note_on,0,0,3,,,,,,,,,3,,,57,49
367560,note_off,120,0,3,,,,,,,,,3,,,65,0
367560,note_off,0,0,1,,,,,,,,,1,,,65,0
367560,note_off,360,0,1,,,,,,,,,1,,,77,0
367560,note_on,0,0,3,,,,,,,,,3,,,60,49
367620,set_tempo,460,1,0,,,,,,638297,,,,,,,
367656,note_off,96,0,3,,,,,,,,,3,,,57,0
367656,note_off,0,0,3,,,,,,,,,3,,,60,0
367680,note_on,24,0,3,,,,,,,,,3,,,65,46
367836,note_off,156,0,3,,,,,,,,,3,,,65,0
367920,set_tempo,300,1,0,,,,,,638297,,,,,,,
368040,set_tempo,120,1,0,,,,,,1176470,,,,,,,
368160,set_tempo,120,1,0,,,,,,625000,,,,,,,
368160,control_change,324,0,3,,,,,,,64,0,3,,,,
368160,control_change,7680,0,4,,,,,,,64,0,4,,,,
368160,control_change,600,0,1,,,,,,,64,0,1,,,,
368160,note_on,0,0,1,,,,,,,,,1,,,81,28
368160,note_on,0,0,1,,,,,,,,,1,,,69,28
368160,note_on,0,0,3,,,,,,,,,3,,,62,28
368160,control_change,7680,0,2,,,,,,,64,0,2,,,,
368160,note_on,0,0,3,,,,,,,,,3,,,53,28
368160,control_change,780,0,5,,,,,,,64,0,5,,,,
368160,note_on,0,0,3,,,,,,,,,3,,,50,28
368316,note_off,156,0,3,,,,,,,,,3,,,50,0
368316,note_off,0,0,3,,,,,,,,,3,,,53,0
368316,note_off,0,0,3,,,,,,,,,3,,,62,0
368400,note_on,84,0,3,,,,,,,,,3,,,55,28
368400,note_on,0,0,3,,,,,,,,,3,,,52,28
368400,note_on,0,0,3,,,,,,,,,3,,,62,28
368520,note_off,0,0,1,,,,,,,,,1,,,81,0
368520,note_off,360,0,1,,,,,,,,,1,,,69,0
368556,note_off,0,0,3,,,,,,,,,3,,,62,0
368556,note_off,156,0,3,,,,,,,,,3,,,52,0
368556,note_off,0,0,3,,,,,,,,,3,,,55,0
368640,note_on,120,0,1,,,,,,,,,1,,,69,29
368640,note_on,0,0,1,,,,,,,,,1,,,81,29
368640,note_on,84,0,3,,,,,,,,,3,,,62,29
368640,note_on,0,0,3,,,,,,,,,3,,,57,29
368640,note_on,0,0,3,,,,,,,,,3,,,53,29
368796,note_off,156,0,3,,,,,,,,,3,,,53,0
368796,note_off,0,0,3,,,,,,,,,3,,,57,0
368796,note_off,0,0,3,,,,,,,,,3,,,62,0
368880,note_on,84,0,3,,,,,,,,,3,,,62,29
368880,note_on,0,0,3,,,,,,,,,3,,,55,29
368880,note_on,0,0,3,,,,,,,,,3,,,52,29
368928,note_off,288,0,1,,,,,,,,,1,,,81,0
368928,note_off,0,0,1,,,,,,,,,1,,,69,0
369000,note_on,72,0,1,,,,,,,,,1,,,68,29
369000,note_on,0,0,1,,,,,,,,,1,,,80,29
369036,note_off,0,0,3,,,,,,,,,3,,,55,0
369036,note_off,156,0,3,,,,,,,,,3,,,52,0
369036,note_off,0,0,3,,,,,,,,,3,,,62,0
369096,note_off,0,0,1,,,,,,,,,1,,,68,0
369096,note_off,96,0,1,,,,,,,,,1,,,80,0
369120,note_on,0,0,3,,,,,,,,,3,,,53,30
369120,note_on,0,0,3,,,,,,,,,3,,,50,30
369120,note_on,0,0,1,,,,,,,,,1,,,69,30
369120,note_on,24,0,1,,,,,,,,,1,,,81,30
369120,note_on,84,0,3,,,,,,,,,3,,,62,30
369276,note_off,156,0,3,,,,,,,,,3,,,50,0
369276,note_off,0,0,3,,,,,,,,,3,,,53,0
369276,note_off,0,0,3,,,,,,,,,3,,,62,0
369360,note_on,0,0,3,,,,,,,,,3,,,55,30
369360,note_on,84,0,3,,,,,,,,,3,,,62,30
369360,note_on,0,0,3,,,,,,,,,3,,,52,30
369480,note_off,360,0,1,,,,,,,,,1,,,69,0
369480,note_off,0,0,1,,,,,,,,,1,,,81,0
369516,note_off,156,0,3,,,,,,,,,3,,,52,0
369516,note_off,0,0,3,,,,,,,,,3,,,55,0
369516,note_off,0,0,3,,,,,,,,,3,,,62,0
369600,note_on,120,0,1,,,,,,,,,1,,,86,30
369600,note_on,0,0,1,,,,,,,,,1,,,74,30
369600,note_on,84,0,3,,,,,,,,,3,,,62,30
369600,note_on,0,0,3,,,,,,,,,3,,,57,30
369600,note_on,0,0,3,,,,,,,,,3,,,53,30
369756,note_off,0,0,3,,,,,,,,,3,,,57,0
369756,note_off,0,0,3,,,,,,,,,3,,,62,0
369756,note_off,156,0,3,,,,,,,,,3,,,53,0
369840,note_on,84,0,3,,,,,,,,,3,,,53,31
369840,note_on,0,0,3,,,,,,,,,3,,,62,31
369840,note_on,0,0,3,,,,,,,,,3,,,50,31
369960,note_off,0,0,1,,,,,,,,,1,,,86,0
369960,note_off,360,0,1,,,,,,,,,1,,,74,0
369996,note_off,0,0,3,,,,,,,,,3,,,53,0
369996,note_off,0,0,3,,,,,,,,,3,,,62,0
369996,note_off,156,0,3,,,,,,,,,3,,,50,0
370027,set_tempo,1867,1,0,,,,,,638297,,,,,,,
370080,note_on,84,0,3,,,,,,,,,3,,,55,31
370080,note_on,0,0,3,,,,,,,,,3,,,61,31
370080,note_on,0,0,3,,,,,,,,,3,,,52,31
370080,note_on,0,0,1,,,,,,,,,1,,,70,31
370080,note_on,120,0,1,,,,,,,,,1,,,82,31
370080,set_tempo,53,1,0,,,,,,625000,,,,,,,
370236,note_off,156,0,3,,,,,,,,,3,,,52,0
370236,note_off,0,0,3,,,,,,,,,3,,,61,0
370236,note_off,0,0,3,,,,,,,,,3,,,55,0
370320,note_on,84,0,3,,,,,,,,,3,,,57,32
370320,note_on,0,0,3,,,,,,,,,3,,,61,32
370320,note_on,0,0,3,,,,,,,,,3,,,53,32
370440,note_off,0,0,1,,,,,,,,,1,,,82,0
370440,note_off,360,0,1,,,,,,,,,1,,,70,0
370476,note_off,0,0,3,,,,,,,,,3,,,61,0
370476,note_off,0,0,3,,,,,,,,,3,,,57,0
370476,note_off,156,0,3,,,,,,,,,3,,,53,0
370560,note_on,0,0,3,,,,,,,,,3,,,61,32
370560,note_on,0,0,3,,,,,,,,,3,,,55,32
370560,note_on,120,0,1,,,,,,,,,1,,,82,32
370560,note_on,84,0,3,,,,,,,,,3,,,58,32
370560,note_on,0,0,1,,,,,,,,,1,,,70,32
370716,note_off,156,0,3,,,,,,,,,3,,,55,0
370716,note_off,0,0,3,,,,,,,,,3,,,61,0
370716,note_off,0,0,3,,,,,,,,,3,,,58,0
370800,note_on,84,0,3,,,,,,,,,3,,,57,33
370800,note_on,0,0,3,,,,,,,,,3,,,61,33
370800,note_on,0,0,3,,,,,,,,,3,,,53,33
370848,note_off,0,0,1,,,,,,,,,1,,,82,0
370848,note_off,288,0,1,,,,,,,,,1,,,70,0
370920,note_on,72,0,1,,,,,,,,,1,,,69,33
370920,note_on,0,0,1,,,,,,,,,1,,,81,33
370956,note_off,156,0,3,,,,,,,,,3,,,53,0
370956,note_off,0,0,3,,,,,,,,,3,,,61,0
370956,note_off,0,0,3,,,,,,,,,3,,,57,0
371016,note_off,0,0,1,,,,,,,,,1,,,69,0
371016,note_off,96,0,1,,,,,,,,,1,,,81,0
371040,note_on,84,0,3,,,,,,,,,3,,,61,33
371040,note_on,0,0,3,,,,,,,,,3,,,55,33
371040,note_on,0,0,3,,,,,,,,,3,,,52,33
371040,note_on,24,0,1,,,,,,,,,1,,,70,33
371040,note_on,0,0,1,,,,,,,,,1,,,82,33
371196,note_off,0,0,3,,,,,,,,,3,,,61,0
371196,note_off,0,0,3,,,,,,,,,3,,,55,0
371196,note_off,156,0,3,,,,,,,,,3,,,52,0
371280,note_on,0,0,3,,,,,,,,,3,,,61,34
371280,note_on,84,0,3,,,,,,,,,3,,,57,34
371280,note_on,0,0,3,,,,,,,,,3,,,53,34
371400,note_off,360,0,1,,,,,,,,,1,,,82,0
371400,note_off,0,0,1,,,,,,,,,1,,,70,0
371436,note_off,156,0,3,,,,,,,,,3,,,53,0
371436,note_off,0,0,3,,,,,,,,,3,,,61,0
371436,note_off,0,0,3,,,,,,,,,3,,,57,0
371520,note_on,120,0,1,,,,,,,,,1,,,88,34
371520,note_on,0,0,1,,,,,,,,,1,,,76,34
371520,note_on,84,0,3,,,,,,,,,3,,,58,34
371520,note_on,0,0,3,,,,,,,,,3,,,61,34
371520,note_on,0,0,3,,,,,,,,,3,,,55,34
371676,note_off,0,0,3,,,,,,,,,3,,,61,0
371676,note_off,0,0,3,,,,,,,,,3,,,58,0
371676,note_off,156,0,3,,,,,,,,,3,,,55,0
371760,note_on,84,0,3,,,,,,,,,3,,,61,34
371760,note_on,0,0,3,,,,,,,,,3,,,55,34
371760,note_on,0,0,3,,,,,,,,,3,,,52,34
371880,note_off,360,0,1,,,,,,,,,1,,,76,0
371880,note_off,0,0,1,,,,,,,,,1,,,88,0
371916,note_off,0,0,3,,,,,,,,,3,,,61,0
371916,note_off,0,0,3,,,,,,,,,3,,,55,0
371916,note_off,156,0,3,,,,,,,,,3,,,52,0
371955,set_tempo,1875,1,0,,,,,,638297,,,,,,,
372000,note_on,120,0,1,,,,,,,,,1,,,89,34
372000,note_on,0,0,1,,,,,,,,,1,,,77,34
372000,note_on,84,0,3,,,,,,,,,3,,,62,34
372000,set_tempo,45,1,0,,,,,,625000,,,,,,,
372000,note_on,0,0,3,,,,,,,,,3,,,50,34
372000,note_on,0,0,3,,,,,,,,,3,,,53,34
372156,note_off,0,0,3,,,,,,,,,3,,,62,0
372156,note_off,0,0,3,,,,,,,,,3,,,53,0
372156,note_off,156,0,3,,,,,,,,,3,,,50,0
372240,note_on,0,0,3,,,,,,,,,3,,,52,35
372240,note_on,0,0,3,,,,,,,,,3,,,55,35
372240,note_on,84,0,3,,,,,,,,,3,,,62,35
372360,note_off,0,0,1,,,,,,,,,1,,,89,0
372360,note_off,360,0,1,,,,,,,,,1,,,77,0
372396,note_off,0,0,3,,,,,,,,,3,,,55,0
372396,note_off,156,0,3,,,,,,,,,3,,,52,0
372396,note_off,0,0,3,,,,,,,,,3,,,62,0
372480,note_on,120,0,1,,,,,,,,,1,,,77,37
372480,note_on,0,0,3,,,,,,,,,3,,,53,37
372480,note_on,0,0,3,,,,,,,,,3,,,62,37
372480,note_on,84,0,3,,,,,,,,,3,,,57,37
372480,note_on,0,0,1,,,,,,,,,1,,,89,37
372636,note_off,0,0,3,,,,,,,,,3,,,57,0
372636,note_off,0,0,3,,,,,,,,,3,,,62,0
372636,note_off,156,0,3,,,,,,,,,3,,,53,0
372720,note_on,0,0,3,,,,,,,,,3,,,55,39
372720,note_on,84,0,3,,,,,,,,,3,,,62,39
372720,note_on,0,0,3,,,,,,,,,3,,,52,39
372768,note_off,0,0,1,,,,,,,,,1,,,77,0
372768,note_off,288,0,1,,,,,,,,,1,,,89,0
372840,note_on,0,0,1,,,,,,,,,1,,,91,40
372840,note_on,72,0,1,,,,,,,,,1,,,79,40
372876,note_off,156,0,3,,,,,,,,,3,,,52,0
372876,note_off,0,0,3,,,,,,,,,3,,,55,0
372876,note_off,0,0,3,,,,,,,,,3,,,62,0
372936,note_off,96,0,1,,,,,,,,,1,,,91,0
372936,note_off,0,0,1,,,,,,,,,1,,,79,0
372960,note_on,24,0,1,,,,,,,,,1,,,93,41
372960,note_on,0,0,1,,,,,,,,,1,,,81,41
372960,note_on,0,0,3,,,,,,,,,3,,,50,41
372960,note_on,0,0,3,,,,,,,,,3,,,53,41
372960,note_on,84,0,3,,,,,,,,,3,,,62,41
373116,note_off,0,0,3,,,,,,,,,3,,,62,0
373116,note_off,156,0,3,,,,,,,,,3,,,50,0
373116,note_off,0,0,3,,,,,,,,,3,,,53,0
373200,note_on,84,0,3,,,,,,,,,3,,,55,43
373200,note_on,0,0,3,,,,,,,,,3,,,52,43
373200,note_on,0,0,3,,,,,,,,,3,,,62,43
373356,note_off,156,0,3,,,,,,,,,3,,,52,0
373356,note_off,0,0,3,,,,,,,,,3,,,62,0
373356,note_off,0,0,3,,,,,,,,,3,,,55,0
373440,note_on,84,0,3,,,,,,,,,3,,,53,45
373440,note_on,0,0,3,,,,,,,,,3,,,62,45
373440,note_on,0,0,3,,,,,,,,,3,,,50,45
373596,note_off,0,0,3,,,,,,,,,3,,,53,0
373596,note_off,0,0,3,,,,,,,,,3,,,62,0
373596,note_off,156,0,3,,,,,,,,,3,,,50,0
373680,note_on,0,0,3,,,,,,,,,3,,,52,47
373680,note_on,0,0,3,,,,,,,,,3,,,48,47
373680,note_on,84,0,3,,,,,,,,,3,,,60,47
373800,note_off,0,0,1,,,,,,,,,1,,,93,0
373800,note_off,840,0,1,,,,,,,,,1,,,81,0
373836,note_off,156,0,3,,,,,,,,,3,,,48,0
373836,note_off,0,0,3,,,,,,,,,3,,,52,0
373836,note_off,0,0,3,,,,,,,,,3,,,60,0
373860,set_tempo,1860,1,0,,,,,,638297,,,,,,,
373920,set_tempo,60,1,0,,,,,,625000,,,,,,,
373920,note_on,84,0,3,,,,,,,,,3,,,58,51
373920,note_on,0,0,3,,,,,,,,,3,,,50,51
373920,note_on,0,0,3,,,,,,,,,3,,,46,51
373920,note_on,120,0,1,,,,,,,,,1,,,82,51
373920,note_on,0,0,1,,,,,,,,,1,,,94,51
374076,note_off,0,0,3,,,,,,,,,3,,,58,0
374076,note_off,0,0,3,,,,,,,,,3,,,50,0
374076,note_off,156,0,3,,,,,,,,,3,,,46,0
374160,note_on,0,0,3,,,,,,,,,3,,,48,56
374160,note_on,0,0,3,,,,,,,,,3,,,52,56
374160,note_on,84,0,3,,,,,,,,,3,,,58,56
374280,note_off,360,0,1,,,,,,,,,1,,,94,0
374280,note_off,0,0,1,,,,,,,,,1,,,82,0
374316,note_off,0,0,3,,,,,,,,,3,,,52,0
374316,note_off,0,0,3,,,,,,,,,3,,,58,0
374316,note_off,156,0,3,,,,,,,,,3,,,48,0
374400,note_on,0,0,3,,,,,,,,,3,,,46,60
374400,note_on,84,0,3,,,,,,,,,3,,,58,60
374400,note_on,120,0,1,,,,,,,,,1,,,94,60
374400,note_on,0,0,3,,,,,,,,,3,,,50,60
374400,note_on,0,0,1,,,,,,,,,1,,,82,60
374556,note_off,156,0,3,,,,,,,,,3,,,46,0
374556,note_off,0,0,3,,,,,,,,,3,,,50,0
374556,note_off,0,0,3,,,,,,,,,3,,,58,0
374640,note_on,0,0,3,,,,,,,,,3,,,48,66
374640,note_on,84,0,3,,,,,,,,,3,,,57,66
374640,note_on,0,0,3,,,,,,,,,3,,,45,66
374688,note_off,288,0,1,,,,,,,,,1,,,82,0
374688,note_off,0,0,1,,,,,,,,,1,,,94,0
374760,note_on,72,0,1,,,,,,,,,1,,,96,70
374760,note_on,0,0,1,,,,,,,,,1,,,84,70
374796,note_off,156,0,3,,,,,,,,,3,,,45,0
374796,note_off,0,0,3,,,,,,,,,3,,,57,0
374796,note_off,0,0,3,,,,,,,,,3,,,48,0
374856,note_off,96,0,1,,,,,,,,,1,,,84,0
374856,note_off,0,0,1,,,,,,,,,1,,,96,0
374880,note_on,84,0,3,,,,,,,,,3,,,55,75
374880,note_on,0,0,3,,,,,,,,,3,,,43,75
374880,note_on,0,0,1,,,,,,,,,1,,,98,75
374880,note_on,24,0,1,,,,,,,,,1,,,86,75
374880,note_on,0,0,3,,,,,,,,,3,,,46,75
375036,note_off,156,0,3,,,,,,,,,3,,,43,0
375036,note_off,0,0,3,,,,,,,,,3,,,46,0
375036,note_off,0,0,3,,,,,,,,,3,,,55,0
375120,note_on,84,0,3,,,,,,,,,3,,,55,59
375120,note_on,0,0,3,,,,,,,,,3,,,48,59
375120,note_on,0,0,3,,,,,,,,,3,,,45,59
375276,note_off,0,0,3,,,,,,,,,3,,,55,0
375276,note_off,156,0,3,,,,,,,,,3,,,45,0
375276,note_off,0,0,3,,,,,,,,,3,,,48,0
375360,note_on,84,0,3,,,,,,,,,3,,,50,48
375360,note_on,0,0,3,,,,,,,,,3,,,55,48
375360,note_on,0,0,3,,,,,,,,,3,,,46,48
375516,note_off,156,0,3,,,,,,,,,3,,,46,0
375516,note_off,0,0,3,,,,,,,,,3,,,55,0
375516,note_off,0,0,3,,,,,,,,,3,,,50,0
375600,note_on,84,0,3,,,,,,,,,3,,,56,43
375600,note_on,0,0,3,,,,,,,,,3,,,53,43
375600,note_on,0,0,3,,,,,,,,,3,,,47,43
375720,note_off,0,0,1,,,,,,,,,1,,,86,0
375720,note_off,840,0,1,,,,,,,,,1,,,98,0
375720,set_tempo,1800,1,0,,,,,,652173,,,,,,,
375756,note_off,156,0,3,,,,,,,,,3,,,47,0
375756,note_off,0,0,3,,,,,,,,,3,,,56,0
375756,note_off,0,0,3,,,,,,,,,3,,,53,0
375840,set_tempo,120,1,0,,,,,,625000,,,,,,,
375840,note_on,120,0,1,,,,,,,,,1,,,96,41
375840,note_on,0,0,1,,,,,,,,,1,,,84,41
375840,note_on,7680,0,4,,,,,,,,,4,,,48,41
375996,note_off,156,0,4,,,,,,,,,4,,,48,0
376080,note_on,324,0,3,,,,,,,,,3,,,57,40
376080,note_on,0,0,3,,,,,,,,,3,,,60,40
376080,note_on,0,0,3,,,,,,,,,3,,,65,40
376200,note_off,360,0,1,,,,,,,,,1,,,84,0
376200,note_off,0,0,1,,,,,,,,,1,,,96,0
376236,note_off,156,0,3,,,,,,,,,3,,,65,0
376236,note_off,0,0,3,,,,,,,,,3,,,60,0
376236,note_off,0,0,3,,,,,,,,,3,,,57,0
376320,note_on,120,0,1,,,,,,,,,1,,,84,39
376320,note_on,0,0,1,,,,,,,,,1,,,96,39
376320,note_on,324,0,4,,,,,,,,,4,,,48,39
376476,note_off,156,0,4,,,,,,,,,4,,,48,0
376560,note_on,324,0,3,,,,,,,,,3,,,58,38
376560,note_on,0,0,3,,,,,,,,,3,,,60,38
376560,note_on,0,0,3,,,,,,,,,3,,,64,38
376608,note_off,288,0,1,,,,,,,,,1,,,96,0
376608,note_off,0,0,1,,,,,,,,,1,,,84,0
376680,note_on,72,0,1,,,,,,,,,1,,,84,37
376680,note_on,0,0,1,,,,,,,,,1,,,96,37
376716,note_off,0,0,3,,,,,,,,,3,,,58,0
376716,note_off,0,0,3,,,,,,,,,3,,,64,0
376716,note_off,156,0,3,,,,,,,,,3,,,60,0
376776,note_off,96,0,1,,,,,,,,,1,,,96,0
376776,note_off,0,0,1,,,,,,,,,1,,,84,0
376800,note_on,0,0,1,,,,,,,,,1,,,84,36
376800,note_on,324,0,4,,,,,,,,,4,,,50,36
376800,note_on,24,0,1,,,,,,,,,1,,,96,36
376956,note_off,156,0,4,,,,,,,,,4,,,50,0
377040,note_on,0,0,4,,,,,,,,,4,,,60,40
377040,note_on,84,0,4,,,,,,,,,4,,,69,40
377280,note_off,240,0,4,,,,,,,,,4,,,69,0
377280,note_on,0,0,4,,,,,,,,,4,,,67,35
377280,note_on,0,0,4,,,,,,,,,4,,,58,35
377520,note_on,0,0,4,,,,,,,,,4,,,65,30
377520,note_off,240,0,4,,,,,,,,,4,,,58,0
377520,note_on,0,0,4,,,,,,,,,4,,,57,30
377520,note_off,0,0,4,,,,,,,,,4,,,67,0
377640,set_tempo,1800,1,0,,,,,,638297,,,,,,,
377640,note_off,840,0,1,,,,,,,,,1,,,84,0
377645,note_off,5,0,1,,,,,,,,,1,,,96,0
377676,note_off,156,0,4,,,,,,,,,4,,,57,0
377676,note_off,0,0,4,,,,,,,,,4,,,65,0
377680,note_off,4,0,4,,,,,,,,,4,,,60,0
377760,note_on,115,0,1,,,,,,,,,1,,,84,32
377760,note_on,0,0,1,,,,,,,,,1,,,96,32
377760,note_on,80,0,4,,,,,,,,,4,,,48,32
377916,note_off,156,0,4,,,,,,,,,4,,,48,0
378000,note_on,0,0,3,,,,,,,,,3,,,57,31
378000,note_on,0,0,3,,,,,,,,,3,,,60,31
378000,note_on,1284,0,3,,,,,,,,,3,,,65,31
378120,note_off,360,0,1,,,,,,,,,1,,,96,0
378120,note_off,0,0,1,,,,,,,,,1,,,84,0
378156,note_off,156,0,3,,,,,,,,,3,,,60,0
378156,note_off,0,0,3,,,,,,,,,3,,,57,0
378156,note_off,0,0,3,,,,,,,,,3,,,65,0
378240,note_on,120,0,1,,,,,,,,,1,,,96,30
378240,note_on,0,0,1,,,,,,,,,1,,,84,30
378240,note_on,324,0,4,,,,,,,,,4,,,48,30
378396,note_off,156,0,4,,,,,,,,,4,,,48,0
378480,note_on,324,0,3,,,,,,,,,3,,,60,28
378480,note_on,0,0,3,,,,,,,,,3,,,64,28
378480,note_on,0,0,3,,,,,,,,,3,,,58,28
378528,note_off,288,0,1,,,,,,,,,1,,,84,0
378528,note_off,0,0,1,,,,,,,,,1,,,96,0
378600,note_on,72,0,1,,,,,,,,,1,,,96,28
378600,note_on,0,0,1,,,,,,,,,1,,,84,28
378636,note_off,0,0,3,,,,,,,,,3,,,60,0
378636,note_off,156,0,3,,,,,,,,,3,,,58,0
378636,note_off,0,0,3,,,,,,,,,3,,,64,0
378680,set_tempo,1040,1,0,,,,,,652173,,,,,,,
378696,note_off,96,0,1,,,,,,,,,1,,,84,0
378696,note_off,0,0,1,,,,,,,,,1,,,96,0
378720,note_on,24,0,1,,,,,,,,,1,,,81,27
378720,note_on,0,0,1,,,,,,,,,1,,,93,27
378720,note_on,324,0,4,,,,,,,,,4,,,50,27
378876,note_off,156,0,4,,,,,,,,,4,,,50,0
378960,note_on,0,0,4,,,,,,,,,4,,,57,24
378960,note_on,84,0,4,,,,,,,,,4,,,65,33
378960,note_on,0,0,4,,,,,,,,,4,,,60,33
379200,note_on,0,0,4,,,,,,,,,4,,,64,29
379200,note_on,0,0,4,,,,,,,,,4,,,61,29
379200,note_off,240,0,4,,,,,,,,,4,,,60,0
379200,note_off,0,0,4,,,,,,,,,4,,,65,0
379440,note_off,240,0,4,,,,,,,,,4,,,64,0
379440,note_on,0,0,4,,,,,,,,,4,,,67,24
379440,set_tempo,760,1,0,,,,,,659340,,,,,,,
379560,note_off,840,0,1,,,,,,,,,1,,,81,0
379560,set_tempo,120,1,0,,,,,,845070,,,,,,,
379565,note_off,5,0,1,,,,,,,,,1,,,93,0
379567,note_off,127,0,4,,,,,,,,,4,,,61,0
379575,note_off,8,0,4,,,,,,,,,4,,,57,0
379596,note_off,21,0,4,,,,,,,,,4,,,67,0
379680,control_change,11520,0,2,,,,,,,64,0,2,,,,
379680,note_on,0,0,1,,,,,,,,,1,,,69,28
379680,note_on,0,0,1,,,,,,,,,1,,,81,28
379680,control_change,84,0,4,,,,,,,64,0,4,,,,
379680,control_change,115,0,1,,,,,,,64,0,1,,,,
379680,control_change,1044,0,3,,,,,,,64,0,3,,,,
379680,note_on,0,0,3,,,,,,,,,3,,,50,28
379680,control_change,11520,0,5,,,,,,,64,0,5,,,,
379680,note_on,0,0,3,,,,,,,,,3,,,53,28
379680,note_on,0,0,3,,,,,,,,,3,,,62,28
379680,set_tempo,120,1,0,,,,,,625000,,,,,,,
379836,note_off,156,0,3,,,,,,,,,3,,,62,0
379836,note_off,0,0,3,,,,,,,,,3,,,53,0
379836,note_off,0,0,3,,,,,,,,,3,,,50,0
379920,note_on,0,0,3,,,,,,,,,3,,,55,28
379920,note_on,0,0,3,,,,,,,,,3,,,62,28
379920,note_on,84,0,3,,,,,,,,,3,,,52,28
380040,note_off,360,0,1,,,,,,,,,1,,,81,0
380040,note_off,0,0,1,,,,,,,,,1,,,69,0
380076,note_off,156,0,3,,,,,,,,,3,,,55,0
380076,note_off,0,0,3,,,,,,,,,3,,,52,0
380076,note_off,0,0,3,,,,,,,,,3,,,62,0
380160,note_on,84,0,3,,,,,,,,,3,,,53,29
380160,note_on,0,0,3,,,,,,,,,3,,,57,29
380160,note_on,120,0,1,,,,,,,,,1,,,81,29
380160,note_on,0,0,1,,,,,,,,,1,,,69,29
380160,note_on,0,0,3,,,,,,,,,3,,,62,29
380316,note_off,0,0,3,,,,,,,,,3,,,53,0
380316,note_off,0,0,3,,,,,,,,,3,,,57,0
380316,note_off,156,0,3,,,,,,,,,3,,,62,0
380400,note_on,84,0,3,,,,,,,,,3,,,52,29
380400,note_on,0,0,3,,,,,,,,,3,,,55,29
380400,note_on,0,0,3,,,,,,,,,3,,,62,29
380448,note_off,0,0,1,,,,,,,,,1,,,81,0
380448,note_off,288,0,1,,,,,,,,,1,,,69,0
380520,note_on,72,0,1,,,,,,,,,1,,,80,29
380520,note_on,0,0,1,,,,,,,,,1,,,68,29
380556,note_off,156,0,3,,,,,,,,,3,,,62,0
380556,note_off,0,0,3,,,,,,,,,3,,,55,0
380556,note_off,0,0,3,,,,,,,,,3,,,52,0
380616,note_off,96,0,1,,,,,,,,,1,,,68,0
380616,note_off,0,0,1,,,,,,,,,1,,,80,0
380640,note_on,24,0,1,,,,,,,,,1,,,69,30
380640,note_on,0,0,1,,,,,,,,,1,,,81,30
380640,note_on,0,0,3,,,,,,,,,3,,,53,30
380640,note_on,84,0,3,,,,,,,,,3,,,50,30
380640,note_on,0,0,3,,,,,,,,,3,,,62,30
380796,note_off,156,0,3,,,,,,,,,3,,,62,0
380796,note_off,0,0,3,,,,,,,,,3,,,50,0
380796,note_off,0,0,3,,,,,,,,,3,,,53,0
380880,note_on,84,0,3,,,,,,,,,3,,,52,30
380880,note_on,0,0,3,,,,,,,,,3,,,55,30
380880,note_on,0,0,3,,,,,,,,,3,,,62,30
381000,note_off,0,0,1,,,,,,,,,1,,,69,0
381000,note_off,360,0,1,,,,,,,,,1,,,81,0
381036,note_off,0,0,3,,,,,,,,,3,,,55,0
381036,note_off,0,0,3,,,,,,,,,3,,,52,0
381036,note_off,156,0,3,,,,,,,,,3,,,62,0
381120,note_on,0,0,3,,,,,,,,,3,,,57,30
381120,note_on,84,0,3,,,,,,,,,3,,,53,30
381120,note_on,120,0,1,,,,,,,,,1,,,74,30
381120,note_on,0,0,3,,,,,,,,,3,,,62,30
381120,note_on,0,0,1,,,,,,,,,1,,,86,30
381276,note_off,156,0,3,,,,,,,,,3,,,62,0
381276,note_off,0,0,3,,,,,,,,,3,,,57,0
381276,note_off,0,0,3,,,,,,,,,3,,,53,0
381360,note_on,0,0,3,,,,,,,,,3,,,53,31
381360,note_on,84,0,3,,,,,,,,,3,,,50,31
381360,note_on,0,0,3,,,,,,,,,3,,,62,31
381480,note_off,0,0,1,,,,,,,,,1,,,74,0
381480,note_off,360,0,1,,,,,,,,,1,,,86,0
381516,note_off,156,0,3,,,,,,,,,3,,,53,0
381516,note_off,0,0,3,,,,,,,,,3,,,62,0
381516,note_off,0,0,3,,,,,,,,,3,,,50,0
381547,set_tempo,1867,1,0,,,,,,638297,,,,,,,
381600,note_on,0,0,3,,,,,,,,,3,,,55,31
381600,note_on,84,0,3,,,,,,,,,3,,,52,31
381600,set_tempo,53,1,0,,,,,,625000,,,,,,,
381600,note_on,120,0,1,,,,,,,,,1,,,70,31
381600,note_on,0,0,1,,,,,,,,,1,,,82,31
381600,note_on,0,0,3,,,,,,,,,3,,,61,31
381756,note_off,0,0,3,,,,,,,,,3,,,52,0
381756,note_off,0,0,3,,,,,,,,,3,,,61,0
381756,note_off,156,0,3,,,,,,,,,3,,,55,0
381840,note_on,84,0,3,,,,,,,,,3,,,53,32
381840,note_on,0,0,3,,,,,,,,,3,,,61,32
381840,note_on,0,0,3,,,,,,,,,3,,,57,32
381960,note_off,360,0,1,,,,,,,,,1,,,82,0
381960,note_off,0,0,1,,,,,,,,,1,,,70,0
381996,note_off,156,0,3,,,,,,,,,3,,,57,0
381996,note_off,0,0,3,,,,,,,,,3,,,61,0
381996,note_off,0,0,3,,,,,,,,,3,,,53,0
382080,note_on,120,0,1,,,,,,,,,1,,,70,32
382080,note_on,0,0,1,,,,,,,,,1,,,82,32
382080,note_on,0,0,3,,,,,,,,,3,,,61,32
382080,note_on,0,0,3,,,,,,,,,3,,,58,32
382080,note_on,84,0,3,,,,,,,,,3,,,55,32
382236,note_off,0,0,3,,,,,,,,,3,,,55,0
382236,note_off,0,0,3,,,,,,,,,3,,,61,0
382236,note_off,156,0,3,,,,,,,,,3,,,58,0
382320,note_on,0,0,3,,,,,,,,,3,,,61,33
382320,note_on,84,0,3,,,,,,,,,3,,,53,33
382320,note_on,0,0,3,,,,,,,,,3,,,57,33
382368,note_off,0,0,1,,,,,,,,,1,,,70,0
382368,note_off,288,0,1,,,,,,,,,1,,,82,0
382440,note_on,0,0,1,,,,,,,,,1,,,69,33
382440,note_on,72,0,1,,,,,,,,,1,,,81,33
382476,note_off,0,0,3,,,,,,,,,3,,,61,0
382476,note_off,156,0,3,,,,,,,,,3,,,57,0
382476,note_off,0,0,3,,,,,,,,,3,,,53,0
382536,note_off,0,0,1,,,,,,,,,1,,,81,0
382536,note_off,96,0,1,,,,,,,,,1,,,69,0
382560,note_on,84,0,3,,,,,,,,,3,,,52,33
382560,note_on,0,0,3,,,,,,,,,3,,,55,33
382560,note_on,0,0,1,,,,,,,,,1,,,70,33
382560,note_on,24,0,1,,,,,,,,,1,,,82,33
382560,note_on,0,0,3,,,,,,,,,3,,,61,33
382716,note_off,156,0,3,,,,,,,,,3,,,61,0
382716,note_off,0,0,3,,,,,,,,,3,,,55,0
382716,note_off,0,0,3,,,,,,,,,3,,,52,0
382800,note_on,0,0,3,,,,,,,,,3,,,61,34
382800,note_on,84,0,3,,,,,,,,,3,,,53,34
382800,note_on,0,0,3,,,,,,,,,3,,,57,34
382920,note_off,0,0,1,,,,,,,,,1,,,82,0
382920,note_off,360,0,1,,,,,,,,,1,,,70,0
382956,note_off,0,0,3,,,,,,,,,3,,,53,0
382956,note_off,0,0,3,,,,,,,,,3,,,61,0
382956,note_off,156,0,3,,,,,,,,,3,,,57,0
383040,note_on,0,0,3,,,,,,,,,3,,,58,34
383040,note_on,120,0,1,,,,,,,,,1,,,76,34
383040,note_on,0,0,1,,,,,,,,,1,,,88,34
383040,note_on,0,0,3,,,,,,,,,3,,,61,34
383040,note_on,84,0,3,,,,,,,,,3,,,55,34
383196,note_off,0,0,3,,,,,,,,,3,,,61,0
383196,note_off,0,0,3,,,,,,,,,3,,,55,0
383196,note_off,156,0,3,,,,,,,,,3,,,58,0
383280,note_on,84,0,3,,,,,,,,,3,,,52,34
383280,note_on,0,0,3,,,,,,,,,3,,,55,34
383280,note_on,0,0,3,,,,,,,,,3,,,61,34
383400,note_off,0,0,1,,,,,,,,,1,,,76,0
383400,note_off,360,0,1,,,,,,,,,1,,,88,0
383436,note_off,0,0,3,,,,,,,,,3,,,52,0
383436,note_off,0,0,3,,,,,,,,,3,,,55,0
383436,note_off,156,0,3,,,,,,,,,3,,,61,0
383475,set_tempo,1875,1,0,,,,,,638297,,,,,,,
383520,set_tempo,45,1,0,,,,,,625000,,,,,,,
383520,note_on,0,0,3,,,,,,,,,3,,,53,34
383520,note_on,0,0,3,,,,,,,,,3,,,62,34
383520,note_on,120,0,1,,,,,,,,,1,,,77,34
383520,note_on,0,0,1,,,,,,,,,1,,,89,34
383520,note_on,84,0,3,,,,,,,,,3,,,50,34
383676,note_off,0,0,3,,,,,,,,,3,,,53,0
383676,note_off,0,0,3,,,,,,,,,3,,,50,0
383676,note_off,156,0,3,,,,,,,,,3,,,62,0
383760,note_on,0,0,3,,,,,,,,,3,,,55,35
383760,note_on,0,0,3,,,,,,,,,3,,,62,35
383760,note_on,84,0,3,,,,,,,,,3,,,52,35
383880,note_off,360,0,1,,,,,,,,,1,,,89,0
383880,note_off,0,0,1,,,,,,,,,1,,,77,0
383916,note_off,0,0,3,,,,,,,,,3,,,52,0
383916,note_off,0,0,3,,,,,,,,,3,,,55,0
383916,note_off,156,0,3,,,,,,,,,3,,,62,0
384000,note_on,0,0,3,,,,,,,,,3,,,62,37
384000,note_on,84,0,3,,,,,,,,,3,,,53,37
384000,note_on,120,0,1,,,,,,,,,1,,,89,37
384000,note_on,0,0,3,,,,,,,,,3,,,57,37
384000,note_on,0,0,1,,,,,,,,,1,,,77,37
384156,note_off,0,0,3,,,,,,,,,3,,,62,0
384156,note_off,156,0,3,,,,,,,,,3,,,57,0
384156,note_off,0,0,3,,,,,,,,,3,,,53,0
384240,note_on,84,0,3,,,,,,,,,3,,,52,39
384240,note_on,0,0,3,,,,,,,,,3,,,55,39
384240,note_on,0,0,3,,,,,,,,,3,,,62,39
384288,note_off,288,0,1,,,,,,,,,1,,,77,0
384288,note_off,0,0,1,,,,,,,,,1,,,89,0
384360,note_on,72,0,1,,,,,,,,,1,,,91,40
384360,note_on,0,0,1,,,,,,,,,1,,,79,40
384396,note_off,156,0,3,,,,,,,,,3,,,62,0
384396,note_off,0,0,3,,,,,,,,,3,,,55,0
384396,note_off,0,0,3,,,,,,,,,3,,,52,0
384456,note_off,96,0,1,,,,,,,,,1,,,79,0
384456,note_off,0,0,1,,,,,,,,,1,,,91,0
384480,note_on,0,0,1,,,,,,,,,1,,,93,41
384480,note_on,24,0,1,,,,,,,,,1,,,81,41
384480,note_on,84,0,3,,,,,,,,,3,,,50,41
384480,note_on,0,0,3,,,,,,,,,3,,,53,41
384480,note_on,0,0,3,,,,,,,,,3,,,62,41
384636,note_off,156,0,3,,,,,,,,,3,,,62,0
384636,note_off,0,0,3,,,,,,,,,3,,,53,0
384636,note_off,0,0,3,,,,,,,,,3,,,50,0
384720,note_on,0,0,3,,,,,,,,,3,,,62,43
384720,note_on,84,0,3,,,,,,,,,3,,,52,43
384720,note_on,0,0,3,,,,,,,,,3,,,55,43
384876,note_off,156,0,3,,,,,,,,,3,,,55,0
384876,note_off,0,0,3,,,,,,,,,3,,,62,0
384876,note_off,0,0,3,,,,,,,,,3,,,52,0
384960,note_on,84,0,3,,,,,,,,,3,,,50,45
384960,note_on,0,0,3,,,,,,,,,3,,,62,45
384960,note_on,0,0,3,,,,,,,,,3,,,53,45
385116,note_off,0,0,3,,,,,,,,,3,,,62,0
385116,note_off,0,0,3,,,,,,,,,3,,,50,0
385116,note_off,156,0,3,,,,,,,,,3,,,53,0
385200,note_on,0,0,3,,,,,,,,,3,,,52,47
385200,note_on,0,0,3,,,,,,,,,3,,,60,47
385200,note_on,84,0,3,,,,,,,,,3,,,48,47
385320,note_off,840,0,1,,,,,,,,,1,,,93,0
385320,note_off,0,0,1,,,,,,,,,1,,,81,0
385356,note_off,0,0,3,,,,,,,,,3,,,48,0
385356,note_off,0,0,3,,,,,,,,,3,,,52,0
385356,note_off,156,0,3,,,,,,,,,3,,,60,0
385380,set_tempo,1860,1,0,,,,,,638297,,,,,,,
385440,note_on,0,0,3,,,,,,,,,3,,,58,51
385440,note_on,0,0,3,,,,,,,,,3,,,50,51
385440,note_on,84,0,3,,,,,,,,,3,,,46,51
385440,set_tempo,60,1,0,,,,,,625000,,,,,,,
385440,note_on,0,0,1,,,,,,,,,1,,,82,51
385440,note_on,120,0,1,,,,,,,,,1,,,94,51
385596,note_off,0,0,3,,,,,,,,,3,,,46,0
385596,note_off,0,0,3,,,,,,,,,3,,,50,0
385596,note_off,156,0,3,,,,,,,,,3,,,58,0
385680,note_on,84,0,3,,,,,,,,,3,,,48,56
385680,note_on,0,0,3,,,,,,,,,3,,,58,56
385680,note_on,0,0,3,,,,,,,,,3,,,52,56
385800,note_off,0,0,1,,,,,,,,,1,,,94,0
385800,note_off,360,0,1,,,,,,,,,1,,,82,0
385836,note_off,0,0,3,,,,,,,,,3,,,52,0
385836,note_off,0,0,3,,,,,,,,,3,,,48,0
385836,note_off,156,0,3,,,,,,,,,3,,,58,0
385920,note_on,0,0,3,,,,,,,,,3,,,50,60
385920,note_on,84,0,3,,,,,,,,,3,,,46,60
385920,note_on,0,0,3,,,,,,,,,3,,,58,60
385920,note_on,120,0,1,,,,,,,,,1,,,82,60
385920,note_on,0,0,1,,,,,,,,,1,,,94,60
386076,note_off,0,0,3,,,,,,,,,3,,,46,0
386076,note_off,0,0,3,,,,,,,,,3,,,50,0
386076,note_off,156,0,3,,,,,,,,,3,,,58,0
386160,note_on,0,0,3,,,,,,,,,3,,,57,66
386160,note_on,0,0,3,,,,,,,,,3,,,48,66
386160,note_on,84,0,3,,,,,,,,,3,,,45,66
386208,note_off,288,0,1,,,,,,,,,1,,,94,0
386208,note_off,0,0,1,,,,,,,,,1,,,82,0
386280,note_on,72,0,1,,,,,,,,,1,,,84,70
386280,note_on,0,0,1,,,,,,,,,1,,,96,70
386316,note_off,0,0,3,,,,,,,,,3,,,48,0
386316,note_off,156,0,3,,,,,,,,,3,,,57,0
386316,note_off,0,0,3,,,,,,,,,3,,,45,0
386376,note_off,0,0,1,,,,,,,,,1,,,84,0
386376,note_off,96,0,1,,,,,,,,,1,,,96,0
386400,note_on,0,0,1,,,,,,,,,1,,,86,75
386400,note_on,24,0,1,,,,,,,,,1,,,98,75
386400,note_on,84,0,3,,,,,,,,,3,,,43,75
386400,note_on,0,0,3,,,,,,,,,3,,,46,75
386400,note_on,0,0,3,,,,,,,,,3,,,55,75
386556,note_off,156,0,3,,,,,,,,,3,,,55,0
386556,note_off,0,0,3,,,,,,,,,3,,,46,0
386556,note_off,0,0,3,,,,,,,,,3,,,43,0
386640,note_on,0,0,3,,,,,,,,,3,,,48,59
386640,note_on,0,0,3,,,,,,,,,3,,,55,59
386640,note_on,84,0,3,,,,,,,,,3,,,45,59
386796,note_off,0,0,3,,,,,,,,,3,,,48,0
386796,note_off,0,0,3,,,,,,,,,3,,,45,0
386796,note_off,156,0,3,,,,,,,,,3,,,55,0
386880,note_on,84,0,3,,,,,,,,,3,,,46,48
386880,note_on,0,0,3,,,,,,,,,3,,,55,48
386880,note_on,0,0,3,,,,,,,,,3,,,50,48
387036,note_off,0,0,3,,,,,,,,,3,,,55,0
387036,note_off,156,0,3,,,,,,,,,3,,,50,0
387036,note_off,0,0,3,,,,,,,,,3,,,46,0
387120,note_on,84,0,3,,,,,,,,,3,,,47,43
387120,note_on,0,0,3,,,,,,,,,3,,,53,43
387120,note_on,0,0,3,,,,,,,,,3,,,56,43
387240,note_off,0,0,1,,,,,,,,,1,,,98,0
387240,note_off,840,0,1,,,,,,,,,1,,,86,0
387240,set_tempo,1800,1,0,,,,,,652173,,,,,,,
387276,note_off,0,0,3,,,,,,,,,3,,,47,0
387276,note_off,0,0,3,,,,,,,,,3,,,53,0
387276,note_off,156,0,3,,,,,,,,,3,,,56,0
387360,note_on,0,0,1,,,,,,,,,1,,,96,41
387360,note_on,120,0,1,,,,,,,,,1,,,84,41
387360,note_on,7680,0,4,,,,,,,,,4,,,48,41
387360,set_tempo,120,1,0,,,,,,625000,,,,,,,
387516,note_off,156,0,4,,,,,,,,,4,,,48,0
387600,note_on,0,0,3,,,,,,,,,3,,,57,40
387600,note_on,0,0,3,,,,,,,,,3,,,60,40
387600,note_on,324,0,3,,,,,,,,,3,,,65,40
387720,note_off,360,0,1,,,,,,,,,1,,,96,0
387720,note_off,0,0,1,,,,,,,,,1,,,84,0
387756,note_off,156,0,3,,,,,,,,,3,,,57,0
387756,note_off,0,0,3,,,,,,,,,3,,,60,0
387756,note_off,0,0,3,,,,,,,,,3,,,65,0
387840,note_on,324,0,4,,,,,,,,,4,,,48,39
387840,note_on,120,0,1,,,,,,,,,1,,,96,39
387840,note_on,0,0,1,,,,,,,,,1,,,84,39
387996,note_off,156,0,4,,,,,,,,,4,,,48,0
388080,note_on,0,0,3,,,,,,,,,3,,,58,38
388080,note_on,0,0,3,,,,,,,,,3,,,64,38
388080,note_on,324,0,3,,,,,,,,,3,,,60,38
388128,note_off,0,0,1,,,,,,,,,1,,,96,0
388128,note_off,288,0,1,,,,,,,,,1,,,84,0
388200,note_on,0,0,1,,,,,,,,,1,,,84,37
388200,note_on,72,0,1,,,,,,,,,1,,,96,37
388236,note_off,0,0,3,,,,,,,,,3,,,60,0
388236,note_off,0,0,3,,,,,,,,,3,,,64,0
388236,note_off,156,0,3,,,,,,,,,3,,,58,0
388296,note_off,96,0,1,,,,,,,,,1,,,84,0
388296,note_off,0,0,1,,,,,,,,,1,,,96,0
388320,note_on,24,0,1,,,,,,,,,1,,,84,36
388320,note_on,324,0,4,,,,,,,,,4,,,50,36
388320,note_on,0,0,1,,,,,,,,,1,,,96,36
388476,note_off,156,0,4,,,,,,,,,4,,,50,0
388560,note_on,0,0,4,,,,,,,,,4,,,69,40
388560,note_on,84,0,4,,,,,,,,,4,,,60,40
388800,note_off,240,0,4,,,,,,,,,4,,,69,0
388800,note_on,0,0,4,,,,,,,,,4,,,58,35
388800,note_on,0,0,4,,,,,,,,,4,,,67,35
389040,note_off,240,0,4,,,,,,,,,4,,,67,0
389040,note_off,0,0,4,,,,,,,,,4,,,58,0
389040,note_on,0,0,4,,,,,,,,,4,,,57,30
389040,note_on,0,0,4,,,,,,,,,4,,,65,30
389160,note_off,840,0,1,,,,,,,,,1,,,84,0
389160,set_tempo,1800,1,0,,,,,,638297,,,,,,,
389165,note_off,5,0,1,,,,,,,,,1,,,96,0
389196,note_off,0,0,4,,,,,,,,,4,,,57,0
389196,note_off,156,0,4,,,,,,,,,4,,,65,0
389200,note_off,4,0,4,,,,,,,,,4,,,60,0
389280,note_on,80,0,4,,,,,,,,,4,,,48,32
389280,note_on,115,0,1,,,,,,,,,1,,,96,32
389280,note_on,0,0,1,,,,,,,,,1,,,84,32
389436,note_off,156,0,4,,,,,,,,,4,,,48,0
389520,note_on,0,0,3,,,,,,,,,3,,,65,31
389520,note_on,0,0,3,,,,,,,,,3,,,57,31
389520,note_on,1284,0,3,,,,,,,,,3,,,60,31
389640,note_off,0,0,1,,,,,,,,,1,,,96,0
389640,note_off,360,0,1,,,,,,,,,1,,,84,0
389676,note_off,156,0,3,,,,,,,,,3,,,65,0
389676,note_off,0,0,3,,,,,,,,,3,,,60,0
389676,note_off,0,0,3,,,,,,,,,3,,,57,0
389760,note_on,120,0,1,,,,,,,,,1,,,84,30
389760,note_on,324,0,4,,,,,,,,,4,,,48,30
389760,note_on,0,0,1,,,,,,,,,1,,,96,30
389916,note_off,156,0,4,,,,,,,,,4,,,48,0
390000,note_on,0,0,3,,,,,,,,,3,,,60,28
390000,note_on,0,0,3,,,,,,,,,3,,,64,28
390000,note_on,324,0,3,,,,,,,,,3,,,58,28
390048,note_off,288,0,1,,,,,,,,,1,,,96,0
390048,note_off,0,0,1,,,,,,,,,1,,,84,0
390120,note_on,72,0,1,,,,,,,,,1,,,84,28
390120,note_on,0,0,1,,,,,,,,,1,,,96,28
390156,note_off,0,0,3,,,,,,,,,3,,,58,0
390156,note_off,156,0,3,,,,,,,,,3,,,60,0
390156,note_off,0,0,3,,,,,,,,,3,,,64,0
390200,set_tempo,1040,1,0,,,,,,652173,,,,,,,
390216,note_off,0,0,1,,,,,,,,,1,,,84,0
390216,note_off,96,0,1,,,,,,,,,1,,,96,0
390240,note_on,24,0,1,,,,,,,,,1,,,93,27
390240,note_on,0,0,1,,,,,,,,,1,,,81,27
390240,note_on,324,0,4,,,,,,,,,4,,,50,27
390396,note_off,156,0,4,,,,,,,,,4,,,50,0
390480,note_on,84,0,4,,,,,,,,,4,,,69,33
390480,note_on,0,0,4,,,,,,,,,4,,,65,33
390720,note_off,240,0,4,,,,,,,,,4,,,65,0
390720,note_off,0,0,4,,,,,,,,,4,,,69,0
390720,note_on,0,0,4,,,,,,,,,4,,,67,29
390720,note_on,0,0,4,,,,,,,,,4,,,64,29
390960,note_off,0,0,4,,,,,,,,,4,,,64,0
390960,note_off,240,0,4,,,,,,,,,4,,,67,0
390960,note_on,0,0,4,,,,,,,,,4,,,62,24
390960,set_tempo,760,1,0,,,,,,659340,,,,,,,
390960,note_on,0,0,4,,,,,,,,,4,,,65,24
391080,set_tempo,120,1,0,,,,,,869565,,,,,,,
391080,note_off,840,0,1,,,,,,,,,1,,,81,0
391085,note_off,5,0,1,,,,,,,,,1,,,93,0
391116,note_off,156,0,4,,,,,,,,,4,,,65,0
391116,note_off,0,0,4,,,,,,,,,4,,,62,0
391200,control_change,11520,0,5,,,,,,,64,0,5,,,,
391200,note_on,0,0,3,,,,,,,,,3,,,61,28
391200,control_change,11520,0,2,,,,,,,64,0,2,,,,
391200,note_on,0,0,1,,,,,,,,,1,,,69,28
391200,note_on,0,0,3,,,,,,,,,3,,,57,28
391200,control_change,1044,0,3,,,,,,,64,0,3,,,,
391200,control_change,84,0,4,,,,,,,64,0,4,,,,
391200,set_tempo,120,1,0,,,,,,625000,,,,,,,
391200,control_change,115,0,1,,,,,,,64,0,1,,,,
391200,note_on,0,0,1,,,,,,,,,1,,,81,28
391200,note_on,0,0,3,,,,,,,,,3,,,64,28
391356,note_off,156,0,3,,,,,,,,,3,,,61,0
391356,note_off,0,0,3,,,,,,,,,3,,,57,0
391356,note_off,0,0,3,,,,,,,,,3,,,64,0
391440,note_on,84,0,3,,,,,,,,,3,,,57,28
391440,note_on,0,0,3,,,,,,,,,3,,,60,28
391440,note_on,0,0,3,,,,,,,,,3,,,63,28
391560,note_off,0,0,1,,,,,,,,,1,,,69,0
391560,note_off,360,0,1,,,,,,,,,1,,,81,0
391596,note_off,0,0,3,,,,,,,,,3,,,57,0
391596,note_off,156,0,3,,,,,,,,,3,,,63,0
391596,note_off,0,0,3,,,,,,,,,3,,,60,0
391680,note_on,120,0,1,,,,,,,,,1,,,69,29
391680,note_on,0,0,3,,,,,,,,,3,,,64,29
391680,note_on,0,0,3,,,,,,,,,3,,,61,29
391680,note_on,84,0,3,,,,,,,,,3,,,57,29
391680,note_on,0,0,1,,,,,,,,,1,,,81,29
391836,note_off,0,0,3,,,,,,,,,3,,,61,0
391836,note_off,156,0,3,,,,,,,,,3,,,64,0
391836,note_off,0,0,3,,,,,,,,,3,,,57,0
391920,note_on,84,0,3,,,,,,,,,3,,,57,30
391920,note_on,0,0,3,,,,,,,,,3,,,60,30
391920,note_on,0,0,3,,,,,,,,,3,,,63,30
391968,note_off,0,0,1,,,,,,,,,1,,,69,0
391968,note_off,288,0,1,,,,,,,,,1,,,81,0
392040,note_on,0,0,1,,,,,,,,,1,,,81,30
392040,note_on,72,0,1,,,,,,,,,1,,,69,30
392076,note_off,156,0,3,,,,,,,,,3,,,63,0
392076,note_off,0,0,3,,,,,,,,,3,,,60,0
392076,note_off,0,0,3,,,,,,,,,3,,,57,0
392136,note_off,96,0,1,,,,,,,,,1,,,81,0
392136,note_off,0,0,1,,,,,,,,,1,,,69,0
392160,note_on,24,0,1,,,,,,,,,1,,,81,31
392160,note_on,0,0,1,,,,,,,,,1,,,69,31
392160,note_on,84,0,3,,,,,,,,,3,,,64,31
392160,note_on,0,0,3,,,,,,,,,3,,,57,31
392160,note_on,0,0,3,,,,,,,,,3,,,61,31
392316,note_off,156,0,3,,,,,,,,,3,,,61,0
392316,note_off,0,0,3,,,,,,,,,3,,,57,0
392316,note_off,0,0,3,,,,,,,,,3,,,64,0
392400,note_on,84,0,3,,,,,,,,,3,,,60,31
392400,note_on,0,0,3,,,,,,,,,3,,,57,31
392400,note_on,0,0,3,,,,,,,,,3,,,63,31
392520,note_off,360,0,1,,,,,,,,,1,,,69,0
392520,note_off,0,0,1,,,,,,,,,1,,,81,0
392556,note_off,0,0,3,,,,,,,,,3,,,60,0
392556,note_off,156,0,3,,,,,,,,,3,,,63,0
392556,note_off,0,0,3,,,,,,,,,3,,,57,0
392640,note_on,0,0,1,,,,,,,,,1,,,69,32
392640,note_on,84,0,3,,,,,,,,,3,,,57,32
392640,note_on,0,0,3,,,,,,,,,3,,,64,32
392640,note_on,120,0,1,,,,,,,,,1,,,81,32
392640,note_on,0,0,3,,,,,,,,,3,,,61,32
392796,note_off,156,0,3,,,,,,,,,3,,,61,0
392796,note_off,0,0,3,,,,,,,,,3,,,64,0
392796,note_off,0,0,3,,,,,,,,,3,,,57,0
392880,note_on,84,0,3,,,,,,,,,3,,,57,33
392880,note_on,0,0,3,,,,,,,,,3,,,65,33
392880,note_on,0,0,3,,,,,,,,,3,,,62,33
392928,note_off,0,0,1,,,,,,,,,1,,,81,0
392928,note_off,288,0,1,,,,,,,,,1,,,69,0
393000,note_on,72,0,1,,,,,,,,,1,,,81,33
393000,note_on,0,0,1,,,,,,,,,1,,,69,33
393036,note_off,156,0,3,,,,,,,,,3,,,62,0
393036,note_off,0,0,3,,,,,,,,,3,,,65,0
393036,note_off,0,0,3,,,,,,,,,3,,,57,0
393096,note_off,96,0,1,,,,,,,,,1,,,69,0
393096,note_off,0,0,1,,,,,,,,,1,,,81,0
393120,note_on,0,0,3,,,,,,,,,3,,,67,35
393120,note_on,0,0,3,,,,,,,,,3,,,64,35
393120,note_on,0,0,1,,,,,,,,,1,,,73,35
393120,note_on,24,0,1,,,,,,,,,1,,,85,35
393120,note_on,84,0,3,,,,,,,,,3,,,57,35
393276,note_off,156,0,3,,,,,,,,,3,,,67,0
393276,note_off,0,0,3,,,,,,,,,3,,,64,0
393276,note_off,0,0,3,,,,,,,,,3,,,57,0
393360,note_on,84,0,3,,,,,,,,,3,,,57,37
393360,note_on,0,0,3,,,,,,,,,3,,,65,37
393360,note_on,0,0,3,,,,,,,,,3,,,69,37
393480,note_off,0,0,1,,,,,,,,,1,,,85,0
393480,note_off,360,0,1,,,,,,,,,1,,,73,0
393516,note_off,0,0,3,,,,,,,,,3,,,57,0
393516,note_off,0,0,3,,,,,,,,,3,,,65,0
393516,note_off,156,0,3,,,,,,,,,3,,,69,0
393600,note_on,0,0,3,,,,,,,,,3,,,67,41
393600,note_on,84,0,3,,,,,,,,,3,,,57,41
393600,note_on,120,0,1,,,,,,,,,1,,,76,41
393600,note_on,0,0,3,,,,,,,,,3,,,70,41
393600,note_on,0,0,1,,,,,,,,,1,,,88,41
393756,note_off,156,0,3,,,,,,,,,3,,,70,0
393756,note_off,0,0,3,,,,,,,,,3,,,57,0
393756,note_off,0,0,3,,,,,,,,,3,,,67,0
393840,note_on,0,0,3,,,,,,,,,3,,,61,46
393840,note_on,0,0,3,,,,,,,,,3,,,67,46
393840,note_on,84,0,3,,,,,,,,,3,,,57,46
393960,note_off,0,0,1,,,,,,,,,1,,,76,0
393960,note_off,360,0,1,,,,,,,,,1,,,88,0
393996,note_off,156,0,3,,,,,,,,,3,,,61,0
393996,note_off,0,0,3,,,,,,,,,3,,,57,0
393996,note_off,0,0,3,,,,,,,,,3,,,67,0
394080,note_on,0,0,3,,,,,,,,,3,,,65,54
394080,note_on,0,0,3,,,,,,,,,3,,,62,54
394080,note_on,120,0,1,,,,,,,,,1,,,74,54
394080,note_on,0,0,1,,,,,,,,,1,,,86,54
394080,note_on,84,0,3,,,,,,,,,3,,,58,54
394236,note_off,156,0,3,,,,,,,,,3,,,62,0
394236,note_off,0,0,3,,,,,,,,,3,,,65,0
394236,note_off,0,0,3,,,,,,,,,3,,,58,0
394320,note_on,84,0,3,,,,,,,,,3,,,64,62
394320,note_on,0,0,3,,,,,,,,,3,,,58,62
394320,note_on,0,0,3,,,,,,,,,3,,,67,62
394368,note_off,288,0,1,,,,,,,,,1,,,86,0
394368,note_off,0,0,1,,,,,,,,,1,,,74,0
394440,note_on,72,0,1,,,,,,,,,1,,,85,67
394440,note_on,0,0,1,,,,,,,,,1,,,73,67
394476,note_off,0,0,3,,,,,,,,,3,,,58,0
394476,note_off,156,0,3,,,,,,,,,3,,,67,0
394476,note_off,0,0,3,,,,,,,,,3,,,64,0
394536,note_off,96,0,1,,,,,,,,,1,,,73,0
394536,note_off,0,0,1,,,,,,,,,1,,,85,0
394560,note_on,0,0,1,,,,,,,,,1,,,74,71
394560,note_on,24,0,1,,,,,,,,,1,,,86,71
394560,note_on,0,0,3,,,,,,,,,3,,,62,71
394560,note_on,84,0,3,,,,,,,,,3,,,58,71
394560,note_on,0,0,3,,,,,,,,,3,,,65,71
394716,note_off,156,0,3,,,,,,,,,3,,,65,0
394716,note_off,0,0,3,,,,,,,,,3,,,62,0
394716,note_off,0,0,3,,,,,,,,,3,,,58,0
394800,note_on,84,0,3,,,,,,,,,3,,,58,81
394800,note_on,0,0,3,,,,,,,,,3,,,61,81
394800,note_on,0,0,3,,,,,,,,,3,,,67,81
394848,note_off,0,0,1,,,,,,,,,1,,,86,0
394848,note_off,288,0,1,,,,,,,,,1,,,74,0
394920,note_on,0,0,1,,,,,,,,,1,,,88,88
394920,note_on,72,0,1,,,,,,,,,1,,,76,88
394956,note_off,0,0,3,,,,,,,,,3,,,58,0
394956,note_off,156,0,3,,,,,,,,,3,,,67,0
394956,note_off,0,0,3,,,,,,,,,3,,,61,0
394980,set_tempo,3780,1,0,,,,,,638297,,,,,,,
395016,note_off,96,0,1,,,,,,,,,1,,,88,0
395016,note_off,0,0,1,,,,,,,,,1,,,76,0
395040,note_on,84,0,3,,,,,,,,,3,,,58,96
395040,note_on,0,0,3,,,,,,,,,3,,,65,96
395040,set_tempo,60,1,0,,,,,,625000,,,,,,,
395040,note_on,0,0,3,,,,,,,,,3,,,62,96
395040,note_on,0,0,1,,,,,,,,,1,,,89,96
395040,note_on,24,0,1,,,,,,,,,1,,,77,96
395196,note_off,0,0,3,,,,,,,,,3,,,65,0
395196,note_off,0,0,3,,,,,,,,,3,,,58,0
395196,note_off,156,0,3,,,,,,,,,3,,,62,0
395280,note_on,84,0,3,,,,,,,,,3,,,61,79
395280,note_on,0,0,3,,,,,,,,,3,,,58,79
395280,note_on,0,0,3,,,,,,,,,3,,,64,79
395328,note_off,0,0,1,,,,,,,,,1,,,77,0
395328,note_off,288,0,1,,,,,,,,,1,,,89,0
395400,note_on,0,0,1,,,,,,,,,1,,,88,70
395400,note_on,72,0,1,,,,,,,,,1,,,76,70
395436,note_off,0,0,3,,,,,,,,,3,,,58,0
395436,note_off,0,0,3,,,,,,,,,3,,,61,0
395436,note_off,156,0,3,,,,,,,,,3,,,64,0
395496,note_off,0,0,1,,,,,,,,,1,,,76,0
395496,note_off,96,0,1,,,,,,,,,1,,,88,0
395520,note_on,0,0,1,,,,,,,,,1,,,86,67
395520,note_on,0,0,3,,,,,,,,,3,,,58,67
395520,note_on,0,0,3,,,,,,,,,3,,,65,67
395520,note_on,84,0,3,,,,,,,,,3,,,62,67
395520,note_on,24,0,1,,,,,,,,,1,,,74,67
395676,note_off,0,0,3,,,,,,,,,3,,,65,0
395676,note_off,0,0,3,,,,,,,,,3,,,62,0
395676,note_off,156,0,3,,,,,,,,,3,,,58,0
395760,note_on,0,0,3,,,,,,,,,3,,,66,57
395760,note_on,0,0,3,,,,,,,,,3,,,58,57
395760,note_on,84,0,3,,,,,,,,,3,,,62,57
395808,note_off,0,0,1,,,,,,,,,1,,,74,0
395808,note_off,288,0,1,,,,,,,,,1,,,86,0
395880,note_on,0,0,1,,,,,,,,,1,,,84,52
395880,note_on,72,0,1,,,,,,,,,1,,,72,52
395916,note_off,0,0,3,,,,,,,,,3,,,62,0
395916,note_off,0,0,3,,,,,,,,,3,,,58,0
395916,note_off,156,0,3,,,,,,,,,3,,,66,0
395976,note_off,0,0,1,,,,,,,,,1,,,72,0
395976,note_off,96,0,1,,,,,,,,,1,,,84,0
396000,note_on,24,0,1,,,,,,,,,1,,,82,46
396000,note_on,0,0,1,,,,,,,,,1,,,70,46
396000,note_on,0,0,3,,,,,,,,,3,,,58,46
396000,note_on,84,0,3,,,,,,,,,3,,,62,46
396000,note_on,0,0,3,,,,,,,,,3,,,67,46
396156,note_off,0,0,3,,,,,,,,,3,,,62,0
396156,note_off,0,0,3,,,,,,,,,3,,,67,0
396156,note_off,156,0,3,,,,,,,,,3,,,58,0
396240,note_on,0,0,3,,,,,,,,,3,,,69,42
396240,note_on,84,0,3,,,,,,,,,3,,,62,42
396240,note_on,0,0,3,,,,,,,,,3,,,58,42
396288,note_off,288,0,1,,,,,,,,,1,,,70,0
396288,note_off,0,0,1,,,,,,,,,1,,,82,0
396360,note_on,72,0,1,,,,,,,,,1,,,81,40
396360,note_on,0,0,1,,,,,,,,,1,,,69,40
396396,note_off,156,0,3,,,,,,,,,3,,,58,0
396396,note_off,0,0,3,,,,,,,,,3,,,62,0
396456,note_off,0,0,1,,,,,,,,,1,,,81,0
396456,note_off,96,0,1,,,,,,,,,1,,,69,0
396456,note_off,60,0,3,,,,,,,,,3,,,69,0
396480,note_on,24,0,3,,,,,,,,,3,,,70,38
396480,note_on,0,0,1,,,,,,,,,1,,,67,38
396480,note_on,24,0,1,,,,,,,,,1,,,79,38
396480,note_on,0,0,3,,,,,,,,,3,,,58,38
396480,note_on,0,0,3,,,,,,,,,3,,,62,38
396636,note_off,0,0,3,,,,,,,,,3,,,62,0
396636,note_off,156,0,3,,,,,,,,,3,,,58,0
396636,note_off,0,0,3,,,,,,,,,3,,,70,0
396720,note_on,84,0,3,,,,,,,,,3,,,62,34
396720,note_on,0,0,3,,,,,,,,,3,,,59,34
396720,note_on,0,0,3,,,,,,,,,3,,,69,34
396768,note_off,288,0,1,,,,,,,,,1,,,67,0
396768,note_off,0,0,1,,,,,,,,,1,,,79,0
396840,note_on,0,0,1,,,,,,,,,1,,,65,32
396840,note_on,72,0,1,,,,,,,,,1,,,77,32
396876,note_off,0,0,3,,,,,,,,,3,,,62,0
396876,note_off,156,0,3,,,,,,,,,3,,,69,0
396876,note_off,0,0,3,,,,,,,,,3,,,59,0
396936,note_off,0,0,1,,,,,,,,,1,,,77,0
396936,note_off,96,0,1,,,,,,,,,1,,,65,0
396960,control_change,84,0,3,,,,,,,64,0,3,,,,
396960,note_on,0,0,3,,,,,,,,,3,,,60,30
396960,note_on,0,0,3,,,,,,,,,3,,,67,30
396960,note_on,0,0,3,,,,,,,,,3,,,64,30
396960,control_change,5760,0,5,,,,,,,64,0,5,,,,
396960,control_change,5760,0,4,,,,,,,64,0,4,,,,
396960,control_change,5760,0,2,,,,,,,64,0,2,,,,
396960,control_change,24,0,1,,,,,,,64,0,1,,,,
396960,note_on,0,0,1,,,,,,,,,1,,,84,30
396960,note_on,0,0,1,,,,,,,,,1,,,72,30
397116,note_off,156,0,3,,,,,,,,,3,,,64,0
397116,note_off,0,0,3,,,,,,,,,3,,,67,0
397116,note_off,0,0,3,,,,,,,,,3,,,60,0
397200,note_on,84,0,3,,,,,,,,,3,,,60,31
397200,note_on,0,0,3,,,,,,,,,3,,,66,31
397200,note_on,0,0,3,,,,,,,,,3,,,63,31
397320,note_off,0,0,1,,,,,,,,,1,,,84,0
397320,note_off,360,0,1,,,,,,,,,1,,,72,0
397356,note_off,156,0,3,,,,,,,,,3,,,63,0
397356,note_off,0,0,3,,,,,,,,,3,,,66,0
397356,note_off,0,0,3,,,,,,,,,3,,,60,0
397440,note_on,0,0,3,,,,,,,,,3,,,67,32
397440,note_on,0,0,1,,,,,,,,,1,,,84,32
397440,note_on,0,0,3,,,,,,,,,3,,,64,32
397440,note_on,84,0,3,,,,,,,,,3,,,60,32
397440,note_on,120,0,1,,,,,,,,,1,,,72,32
397596,note_off,0,0,3,,,,,,,,,3,,,67,0
397596,note_off,0,0,3,,,,,,,,,3,,,60,0
397596,note_off,156,0,3,,,,,,,,,3,,,64,0
397680,note_on,0,0,3,,,,,,,,,3,,,66,34
397680,note_on,84,0,3,,,,,,,,,3,,,60,34
397680,note_on,0,0,3,,,,,,,,,3,,,63,34
397728,note_off,0,0,1,,,,,,,,,1,,,72,0
397728,note_off,288,0,1,,,,,,,,,1,,,84,0
397800,note_on,0,0,1,,,,,,,,,1,,,84,34
397800,note_on,72,0,1,,,,,,,,,1,,,72,34
397836,note_off,156,0,3,,,,,,,,,3,,,66,0
397836,note_off,0,0,3,,,,,,,,,3,,,63,0
397836,note_off,0,0,3,,,,,,,,,3,,,60,0
397896,note_off,0,0,1,,,,,,,,,1,,,72,0
397896,note_off,96,0,1,,,,,,,,,1,,,84,0
397920,note_on,84,0,3,,,,,,,,,3,,,60,35
397920,note_on,0,0,3,,,,,,,,,3,,,67,35
397920,note_on,0,0,3,,,,,,,,,3,,,64,35
397920,note_on,0,0,1,,,,,,,,,1,,,84,35
397920,note_on,24,0,1,,,,,,,,,1,,,72,35
398076,note_off,156,0,3,,,,,,,,,3,,,64,0
398076,note_off,0,0,3,,,,,,,,,3,,,60,0
398076,note_off,0,0,3,,,,,,,,,3,,,67,0
398160,note_on,84,0,3,,,,,,,,,3,,,60,36
398160,note_on,0,0,3,,,,,,,,,3,,,63,36
398160,note_on,0,0,3,,,,,,,,,3,,,66,36
398280,note_off,360,0,1,,,,,,,,,1,,,84,0
398280,note_off,0,0,1,,,,,,,,,1,,,72,0
398316,note_off,156,0,3,,,,,,,,,3,,,66,0
398316,note_off,0,0,3,,,,,,,,,3,,,63,0
398316,note_off,0,0,3,,,,,,,,,3,,,60,0
398400,note_on,84,0,3,,,,,,,,,3,,,60,38
398400,note_on,0,0,3,,,,,,,,,3,,,67,38
398400,note_on,0,0,3,,,,,,,,,3,,,64,38
398556,note_off,156,0,3,,,,,,,,,3,,,64,0
398556,note_off,0,0,3,,,,,,,,,3,,,67,0
398556,note_off,0,0,3,,,,,,,,,3,,,60,0
398640,note_on,0,0,3,,,,,,,,,3,,,67,39
398640,note_on,0,0,3,,,,,,,,,3,,,58,39
398640,note_on,84,0,3,,,,,,,,,3,,,64,39
398760,set_tempo,3720,1,0,,,,,,638297,,,,,,,
398796,note_off,0,0,3,,,,,,,,,3,,,64,0
398796,note_off,156,0,3,,,,,,,,,3,,,58,0
398796,note_off,0,0,3,,,,,,,,,3,,,67,0
398880,note_on,0,0,3,,,,,,,,,3,,,67,40
398880,note_on,0,0,3,,,,,,,,,3,,,57,40
398880,note_on,84,0,3,,,,,,,,,3,,,64,40
398880,note_on,600,0,1,,,,,,,,,1,,,73,40
398880,note_on,0,0,1,,,,,,,,,1,,,85,40
398880,set_tempo,120,1,0,,,,,,625000,,,,,,,
399036,note_off,0,0,3,,,,,,,,,3,,,64,0
399036,note_off,156,0,3,,,,,,,,,3,,,67,0
399036,note_off,0,0,3,,,,,,,,,3,,,57,0
399120,note_on,84,0,3,,,,,,,,,3,,,67,42
399120,note_on,0,0,3,,,,,,,,,3,,,64,42
399120,note_on,0,0,3,,,,,,,,,3,,,58,42
399240,note_off,360,0,1,,,,,,,,,1,,,85,0
399240,note_off,0,0,1,,,,,,,,,1,,,73,0
399276,note_off,0,0,3,,,,,,,,,3,,,67,0
399276,note_off,156,0,3,,,,,,,,,3,,,58,0
399276,note_off,0,0,3,,,,,,,,,3,,,64,0
399360,note_on,84,0,3,,,,,,,,,3,,,67,43
399360,note_on,0,0,3,,,,,,,,,3,,,64,43
399360,note_on,0,0,3,,,,,,,,,3,,,57,43
399360,note_on,120,0,1,,,,,,,,,1,,,73,43
399360,note_on,0,0,1,,,,,,,,,1,,,85,43
399516,note_off,0,0,3,,,,,,,,,3,,,67,0
399516,note_off,0,0,3,,,,,,,,,3,,,64,0
399516,note_off,156,0,3,,,,,,,,,3,,,57,0
399600,note_on,84,0,3,,,,,,,,,3,,,67,44
399600,note_on,0,0,3,,,,,,,,,3,,,58,44
399600,note_on,0,0,3,,,,,,,,,3,,,64,44
399648,note_off,288,0,1,,,,,,,,,1,,,85,0
399648,note_off,0,0,1,,,,,,,,,1,,,73,0
399720,note_on,72,0,1,,,,,,,,,1,,,73,45
399720,note_on,0,0,1,,,,,,,,,1,,,85,45
399756,note_off,0,0,3,,,,,,,,,3,,,67,0
399756,note_off,0,0,3,,,,,,,,,3,,,64,0
399756,note_off,156,0,3,,,,,,,,,3,,,58,0
399816,note_off,96,0,1,,,,,,,,,1,,,85,0
399816,note_off,0,0,1,,,,,,,,,1,,,73,0
399840,note_on,0,0,1,,,,,,,,,1,,,85,46
399840,note_on,0,0,3,,,,,,,,,3,,,57,46
399840,note_on,24,0,1,,,,,,,,,1,,,73,46
399840,note_on,84,0,3,,,,,,,,,3,,,67,46
399840,note_on,0,0,3,,,,,,,,,3,,,64,46
399996,note_off,156,0,3,,,,,,,,,3,,,64,0
399996,note_off,0,0,3,,,,,,,,,3,,,57,0
399996,note_off,0,0,3,,,,,,,,,3,,,67,0
400080,note_on,0,0,3,,,,,,,,,3,,,64,47
400080,note_on,0,0,3,,,,,,,,,3,,,58,47
400080,note_on,84,0,3,,,,,,,,,3,,,67,47
400200,note_off,0,0,1,,,,,,,,,1,,,73,0
400200,note_off,360,0,1,,,,,,,,,1,,,85,0
400236,note_off,0,0,3,,,,,,,,,3,,,58,0
400236,note_off,0,0,3,,,,,,,,,3,,,67,0
400236,note_off,156,0,3,,,,,,,,,3,,,64,0
400320,note_on,84,0,3,,,,,,,,,3,,,67,48
400320,note_on,0,0,3,,,,,,,,,3,,,57,48
400320,note_on,0,0,3,,,,,,,,,3,,,64,48
400476,note_off,156,0,3,,,,,,,,,3,,,64,0
400476,note_off,0,0,3,,,,,,,,,3,,,57,0
400476,note_off,0,0,3,,,,,,,,,3,,,67,0
400560,note_on,84,0,3,,,,,,,,,3,,,64,50
400560,note_on,0,0,3,,,,,,,,,3,,,57,50
400560,note_on,0,0,3,,,,,,,,,3,,,55,50
400680,set_tempo,1800,1,0,,,,,,638297,,,,,,,
400716,note_off,0,0,3,,,,,,,,,3,,,55,0
400716,note_off,156,0,3,,,,,,,,,3,,,57,0
400716,note_off,0,0,3,,,,,,,,,3,,,64,0
400800,note_on,84,0,3,,,,,,,,,3,,,62,56
400800,note_on,0,0,3,,,,,,,,,3,,,57,56
400800,note_on,0,0,3,,,,,,,,,3,,,53,56
400800,note_on,600,0,1,,,,,,,,,1,,,74,56
400800,set_tempo,120,1,0,,,,,,625000,,,,,,,
400800,note_on,0,0,1,,,,,,,,,1,,,86,56
400956,note_off,156,0,3,,,,,,,,,3,,,53,0
400956,note_off,0,0,3,,,,,,,,,3,,,57,0
400956,note_off,0,0,3,,,,,,,,,3,,,62,0
401040,note_on,0,0,3,,,,,,,,,3,,,55,51
401040,note_on,0,0,3,,,,,,,,,3,,,64,51
401040,note_on,84,0,3,,,,,,,,,3,,,57,51
401160,note_off,0,0,1,,,,,,,,,1,,,74,0
401160,note_off,360,0,1,,,,,,,,,1,,,86,0
401196,note_off,156,0,3,,,,,,,,,3,,,55,0
401196,note_off,0,0,3,,,,,,,,,3,,,64,0
401196,note_off,0,0,3,,,,,,,,,3,,,57,0
401280,note_on,0,0,3,,,,,,,,,3,,,57,49
401280,note_on,0,0,1,,,,,,,,,1,,,86,49
401280,note_on,120,0,1,,,,,,,,,1,,,74,49
401280,note_on,84,0,3,,,,,,,,,3,,,62,49
401280,note_on,0,0,3,,,,,,,,,3,,,53,49
401436,note_off,0,0,3,,,,,,,,,3,,,62,0
401436,note_off,0,0,3,,,,,,,,,3,,,57,0
401436,note_off,156,0,3,,,,,,,,,3,,,53,0
401520,note_on,84,0,3,,,,,,,,,3,,,64,48
401520,note_on,0,0,3,,,,,,,,,3,,,57,48
401520,note_on,0,0,3,,,,,,,,,3,,,55,48
401568,note_off,288,0,1,,,,,,,,,1,,,86,0
401568,note_off,0,0,1,,,,,,,,,1,,,74,0
401640,note_on,72,0,1,,,,,,,,,1,,,74,47
401640,note_on,0,0,1,,,,,,,,,1,,,86,47
401676,note_off,0,0,3,,,,,,,,,3,,,64,0
401676,note_off,156,0,3,,,,,,,,,3,,,55,0
401676,note_off,0,0,3,,,,,,,,,3,,,57,0
401736,note_off,96,0,1,,,,,,,,,1,,,86,0
401736,note_off,0,0,1,,,,,,,,,1,,,74,0
401760,note_on,0,0,3,,,,,,,,,3,,,53,46
401760,note_on,0,0,3,,,,,,,,,3,,,57,46
401760,note_on,24,0,1,,,,,,,,,1,,,74,46
401760,note_on,0,0,1,,,,,,,,,1,,,86,46
401760,note_on,84,0,3,,,,,,,,,3,,,62,46
401916,note_off,0,0,3,,,,,,,,,3,,,57,0
401916,note_off,0,0,3,,,,,,,,,3,,,62,0
401916,note_off,156,0,3,,,,,,,,,3,,,53,0
402000,note_on,84,0,3,,,,,,,,,3,,,58,44
402000,note_on,0,0,3,,,,,,,,,3,,,55,44
402000,note_on,0,0,3,,,,,,,,,3,,,62,44
402120,note_off,0,0,1,,,,,,,,,1,,,74,0
402120,note_off,360,0,1,,,,,,,,,1,,,86,0
402156,note_off,0,0,3,,,,,,,,,3,,,58,0
402156,note_off,156,0,3,,,,,,,,,3,,,62,0
402156,note_off,0,0,3,,,,,,,,,3,,,55,0
402240,note_on,0,0,3,,,,,,,,,3,,,53,42
402240,note_on,0,0,3,,,,,,,,,3,,,57,42
402240,note_on,84,0,3,,,,,,,,,3,,,62,42
402396,note_off,156,0,3,,,,,,,,,3,,,53,0
402396,note_off,0,0,3,,,,,,,,,3,,,57,0
402396,note_off,0,0,3,,,,,,,,,3,,,62,0
402480,note_on,84,0,3,,,,,,,,,3,,,53,40
402480,note_on,0,0,3,,,,,,,,,3,,,50,40
402480,note_on,0,0,3,,,,,,,,,3,,,62,40
402600,set_tempo,1800,1,0,,,,,,638297,,,,,,,
402636,note_off,156,0,3,,,,,,,,,3,,,62,0
402636,note_off,0,0,3,,,,,,,,,3,,,50,0
402636,note_off,0,0,3,,,,,,,,,3,,,53,0
402720,note_on,84,0,3,,,,,,,,,3,,,52,39
402720,note_on,0,0,3,,,,,,,,,3,,,57,39
402720,note_on,600,0,1,,,,,,,,,1,,,81,39
402720,note_on,0,0,1,,,,,,,,,1,,,93,39
402720,note_on,0,0,3,,,,,,,,,3,,,49,39
402876,note_off,156,0,3,,,,,,,,,3,,,57,0
402876,note_off,0,0,3,,,,,,,,,3,,,49,0
402876,note_off,0,0,3,,,,,,,,,3,,,52,0
402960,note_on,0,0,3,,,,,,,,,3,,,50,37
402960,note_on,0,0,3,,,,,,,,,3,,,53,37
402960,note_on,84,0,3,,,,,,,,,3,,,57,37
403080,note_off,360,0,1,,,,,,,,,1,,,93,0
403080,note_off,0,0,1,,,,,,,,,1,,,81,0
403116,note_off,0,0,3,,,,,,,,,3,,,57,0
403116,note_off,156,0,3,,,,,,,,,3,,,50,0
403116,note_off,0,0,3,,,,,,,,,3,,,53,0
403200,note_on,120,0,1,,,,,,,,,1,,,81,35
403200,note_on,0,0,1,,,,,,,,,1,,,93,35
403200,note_on,84,0,3,,,,,,,,,3,,,49,35
403200,note_on,0,0,3,,,,,,,,,3,,,57,35
403200,note_on,0,0,3,,,,,,,,,3,,,52,35
403356,note_off,156,0,3,,,,,,,,,3,,,52,0
403356,note_off,0,0,3,,,,,,,,,3,,,49,0
403356,note_off,0,0,3,,,,,,,,,3,,,57,0
403440,note_on,0,0,3,,,,,,,,,3,,,53,33
403440,note_on,84,0,3,,,,,,,,,3,,,57,33
403440,note_on,0,0,3,,,,,,,,,3,,,50,33
403488,note_off,0,0,1,,,,,,,,,1,,,81,0
403488,note_off,288,0,1,,,,,,,,,1,,,93,0
403560,note_on,72,0,1,,,,,,,,,1,,,81,32
403560,note_on,0,0,1,,,,,,,,,1,,,93,32
403596,note_off,156,0,3,,,,,,,,,3,,,53,0
403596,note_off,0,0,3,,,,,,,,,3,,,50,0
403596,note_off,0,0,3,,,,,,,,,3,,,57,0
403640,set_tempo,1040,1,0,,,,,,631578,,,,,,,
403656,note_off,96,0,1,,,,,,,,,1,,,93,0
403656,note_off,0,0,1,,,,,,,,,1,,,81,0
403680,note_on,0,0,1,,,,,,,,,1,,,93,31
403680,note_on,0,0,3,,,,,,,,,3,,,52,31
403680,note_on,84,0,3,,,,,,,,,3,,,49,31
403680,note_on,24,0,1,,,,,,,,,1,,,81,31
403680,note_on,0,0,3,,,,,,,,,3,,,57,31
403680,set_tempo,40,1,0,,,,,,625000,,,,,,,
403836,note_off,156,0,3,,,,,,,,,3,,,57,0
403836,note_off,0,0,3,,,,,,,,,3,,,52,0
403836,note_off,0,0,3,,,,,,,,,3,,,49,0
403920,note_on,84,0,3,,,,,,,,,3,,,50,35
403920,note_on,0,0,3,,,,,,,,,3,,,53,35
403920,note_on,0,0,3,,,,,,,,,3,,,57,35
404040,note_off,0,0,1,,,,,,,,,1,,,81,0
404040,note_off,360,0,1,,,,,,,,,1,,,93,0
404076,note_off,156,0,3,,,,,,,,,3,,,57,0
404076,note_off,0,0,3,,,,,,,,,3,,,53,0
404076,note_off,0,0,3,,,,,,,,,3,,,50,0
404160,note_on,84,0,3,,,,,,,,,3,,,52,29
404160,note_on,0,0,3,,,,,,,,,3,,,49,29
404160,note_on,0,0,3,,,,,,,,,3,,,57,29
404316,note_off,0,0,3,,,,,,,,,3,,,52,0
404316,note_off,0,0,3,,,,,,,,,3,,,49,0
404316,note_off,156,0,3,,,,,,,,,3,,,57,0
404400,note_on,84,0,3,,,,,,,,,3,,,49,24
404400,note_on,0,0,3,,,,,,,,,3,,,45,24
404400,set_tempo,720,1,0,,,,,,652173,,,,,,,
404400,note_on,0,0,3,,,,,,,,,3,,,57,24
404520,set_tempo,120,1,0,,,,,,1071428,,,,,,,
404556,note_off,156,0,3,,,,,,,,,3,,,57,0
404556,note_off,0,0,3,,,,,,,,,3,,,45,0
404556,note_off,0,0,3,,,,,,,,,3,,,49,0
404600,set_tempo,80,1,0,,,,,,1176470,,,,,,,
404640,note_on,0,0,3,,,,,,,,,3,,,53,28
404640,note_on,0,0,1,,,,,,,,,1,,,81,28
404640,note_on,0,0,1,,,,,,,,,1,,,69,28
404640,control_change,84,0,3,,,,,,,64,0,3,,,,
404640,note_on,0,0,3,,,,,,,,,3,,,50,28
404640,control_change,7680,0,2,,,,,,,64,0,2,,,,
404640,note_on,0,0,3,,,,,,,,,3,,,62,28
404640,control_change,600,0,1,,,,,,,64,0,1,,,,
404640,control_change,7680,0,4,,,,,,,64,0,4,,,,
404640,control_change,7680,0,5,,,,,,,64,0,5,,,,
404640,set_tempo,40,1,0,,,,,,625000,,,,,,,
404796,note_off,0,0,3,,,,,,,,,3,,,50,0
404796,note_off,0,0,3,,,,,,,,,3,,,53,0
404796,note_off,156,0,3,,,,,,,,,3,,,62,0
404880,note_on,0,0,3,,,,,,,,,3,,,62,28
404880,note_on,0,0,3,,,,,,,,,3,,,55,28
404880,note_on,84,0,3,,,,,,,,,3,,,52,28
405000,note_off,0,0,1,,,,,,,,,1,,,69,0
405000,note_off,360,0,1,,,,,,,,,1,,,81,0
405036,note_off,156,0,3,,,,,,,,,3,,,62,0
405036,note_off,0,0,3,,,,,,,,,3,,,55,0
405036,note_off,0,0,3,,,,,,,,,3,,,52,0
405120,note_on,120,0,1,,,,,,,,,1,,,81,28
405120,note_on,0,0,3,,,,,,,,,3,,,57,28
405120,note_on,0,0,1,,,,,,,,,1,,,69,28
405120,note_on,84,0,3,,,,,,,,,3,,,62,28
405120,note_on,0,0,3,,,,,,,,,3,,,53,28
405276,note_off,0,0,3,,,,,,,,,3,,,57,0
405276,note_off,156,0,3,,,,,,,,,3,,,53,0
405276,note_off,0,0,3,,,,,,,,,3,,,62,0
405360,note_on,0,0,3,,,,,,,,,3,,,55,29
405360,note_on,0,0,3,,,,,,,,,3,,,52,29
405360,note_on,84,0,3,,,,,,,,,3,,,62,29
405408,note_off,288,0,1,,,,,,,,,1,,,69,0
405408,note_off,0,0,1,,,,,,,,,1,,,81,0
405480,note_on,72,0,1,,,,,,,,,1,,,80,29
405480,note_on,0,0,1,,,,,,,,,1,,,68,29
405516,note_off,156,0,3,,,,,,,,,3,,,55,0
405516,note_off,0,0,3,,,,,,,,,3,,,52,0
405516,note_off,0,0,3,,,,,,,,,3,,,62,0
405576,note_off,96,0,1,,,,,,,,,1,,,68,0
405576,note_off,0,0,1,,,,,,,,,1,,,80,0
405600,note_on,0,0,1,,,,,,,,,1,,,81,29
405600,note_on,24,0,1,,,,,,,,,1,,,69,29
405600,note_on,84,0,3,,,,,,,,,3,,,62,29
405600,note_on,0,0,3,,,,,,,,,3,,,53,29
405600,note_on,0,0,3,,,,,,,,,3,,,50,29
405756,note_off,0,0,3,,,,,,,,,3,,,62,0
405756,note_off,0,0,3,,,,,,,,,3,,,50,0
405756,note_off,156,0,3,,,,,,,,,3,,,53,0
405840,note_on,84,0,3,,,,,,,,,3,,,62,29
405840,note_on,0,0,3,,,,,,,,,3,,,52,29
405840,note_on,0,0,3,,,,,,,,,3,,,55,29
405960,note_off,360,0,1,,,,,,,,,1,,,81,0
405960,note_off,0,0,1,,,,,,,,,1,,,69,0
405996,note_off,156,0,3,,,,,,,,,3,,,55,0
405996,note_off,0,0,3,,,,,,,,,3,,,52,0
405996,note_off,0,0,3,,,,,,,,,3,,,62,0
406080,note_on,84,0,3,,,,,,,,,3,,,62,30
406080,note_on,120,0,1,,,,,,,,,1,,,74,30
406080,note_on,0,0,3,,,,,,,,,3,,,57,30
406080,note_on,0,0,1,,,,,,,,,1,,,86,30
406080,note_on,0,0,3,,,,,,,,,3,,,53,30
406236,note_off,156,0,3,,,,,,,,,3,,,53,0
406236,note_off,0,0,3,,,,,,,,,3,,,57,0
406236,note_off,0,0,3,,,,,,,,,3,,,62,0
406320,note_on,84,0,3,,,,,,,,,3,,,50,30
406320,note_on,0,0,3,,,,,,,,,3,,,53,30
406320,note_on,0,0,3,,,,,,,,,3,,,62,30
406440,note_off,0,0,1,,,,,,,,,1,,,74,0
406440,note_off,360,0,1,,,,,,,,,1,,,86,0
406476,note_off,0,0,3,,,,,,,,,3,,,50,0
406476,note_off,0,0,3,,,,,,,,,3,,,53,0
406476,note_off,156,0,3,,,,,,,,,3,,,62,0
406500,set_tempo,1860,1,0,,,,,,638297,,,,,,,
406560,note_on,120,0,1,,,,,,,,,1,,,70,31
406560,note_on,0,0,3,,,,,,,,,3,,,55,31
406560,note_on,0,0,1,,,,,,,,,1,,,82,31
406560,set_tempo,60,1,0,,,,,,625000,,,,,,,
406560,note_on,0,0,3,,,,,,,,,3,,,61,31
406560,note_on,84,0,3,,,,,,,,,3,,,52,31
406716,note_off,156,0,3,,,,,,,,,3,,,61,0
406716,note_off,0,0,3,,,,,,,,,3,,,55,0
406716,note_off,0,0,3,,,,,,,,,3,,,52,0
406800,note_on,0,0,3,,,,,,,,,3,,,61,31
406800,note_on,0,0,3,,,,,,,,,3,,,53,31
406800,note_on,84,0,3,,,,,,,,,3,,,57,31
406920,note_off,0,0,1,,,,,,,,,1,,,70,0
406920,note_off,360,0,1,,,,,,,,,1,,,82,0
406956,note_off,0,0,3,,,,,,,,,3,,,57,0
406956,note_off,0,0,3,,,,,,,,,3,,,53,0
406956,note_off,156,0,3,,,,,,,,,3,,,61,0
407040,note_on,0,0,3,,,,,,,,,3,,,58,31
407040,note_on,0,0,3,,,,,,,,,3,,,61,31
407040,note_on,84,0,3,,,,,,,,,3,,,55,31
407040,note_on,0,0,1,,,,,,,,,1,,,82,31
407040,note_on,120,0,1,,,,,,,,,1,,,70,31
407196,note_off,0,0,3,,,,,,,,,3,,,61,0
407196,note_off,0,0,3,,,,,,,,,3,,,55,0
407196,note_off,156,0,3,,,,,,,,,3,,,58,0
407280,note_on,84,0,3,,,,,,,,,3,,,53,32
407280,note_on,0,0,3,,,,,,,,,3,,,61,32
407280,note_on,0,0,3,,,,,,,,,3,,,57,32
407328,note_off,288,0,1,,,,,,,,,1,,,82,0
407328,note_off,0,0,1,,,,,,,,,1,,,70,0
407400,note_on,0,0,1,,,,,,,,,1,,,69,32
407400,note_on,72,0,1,,,,,,,,,1,,,81,32
407436,note_off,0,0,3,,,,,,,,,3,,,53,0
407436,note_off,0,0,3,,,,,,,,,3,,,61,0
407436,note_off,156,0,3,,,,,,,,,3,,,57,0
407496,note_off,0,0,1,,,,,,,,,1,,,81,0
407496,note_off,96,0,1,,,,,,,,,1,,,69,0
407520,note_on,0,0,1,,,,,,,,,1,,,70,32
407520,note_on,0,0,3,,,,,,,,,3,,,61,32
407520,note_on,84,0,3,,,,,,,,,3,,,52,32
407520,note_on,24,0,1,,,,,,,,,1,,,82,32
407520,note_on,0,0,3,,,,,,,,,3,,,55,32
407676,note_off,0,0,3,,,,,,,,,3,,,55,0
407676,note_off,156,0,3,,,,,,,,,3,,,61,0
407676,note_off,0,0,3,,,,,,,,,3,,,52,0
407760,note_on,84,0,3,,,,,,,,,3,,,61,32
407760,note_on,0,0,3,,,,,,,,,3,,,53,32
407760,note_on,0,0,3,,,,,,,,,3,,,57,32
407880,note_off,0,0,1,,,,,,,,,1,,,82,0
407880,note_off,360,0,1,,,,,,,,,1,,,70,0
407916,note_off,156,0,3,,,,,,,,,3,,,57,0
407916,note_off,0,0,3,,,,,,,,,3,,,53,0
407916,note_off,0,0,3,,,,,,,,,3,,,61,0
408000,note_on,120,0,1,,,,,,,,,1,,,76,33
408000,note_on,84,0,3,,,,,,,,,3,,,61,33
408000,note_on,0,0,1,,,,,,,,,1,,,88,33
408000,note_on,0,0,3,,,,,,,,,3,,,58,33
408000,note_on,0,0,3,,,,,,,,,3,,,55,33
408156,note_off,156,0,3,,,,,,,,,3,,,58,0
408156,note_off,0,0,3,,,,,,,,,3,,,61,0
408156,note_off,0,0,3,,,,,,,,,3,,,55,0
408240,note_on,84,0,3,,,,,,,,,3,,,55,33
408240,note_on,0,0,3,,,,,,,,,3,,,52,33
408240,note_on,0,0,3,,,,,,,,,3,,,61,33
408360,note_off,360,0,1,,,,,,,,,1,,,88,0
408360,note_off,0,0,1,,,,,,,,,1,,,76,0
408396,note_off,156,0,3,,,,,,,,,3,,,61,0
408396,note_off,0,0,3,,,,,,,,,3,,,52,0
408396,note_off,0,0,3,,,,,,,,,3,,,55,0
408435,set_tempo,1875,1,0,,,,,,638297,,,,,,,
408480,note_on,0,0,3,,,,,,,,,3,,,53,32
408480,note_on,0,0,3,,,,,,,,,3,,,62,32
408480,note_on,120,0,1,,,,,,,,,1,,,77,32
408480,note_on,84,0,3,,,,,,,,,3,,,50,32
408480,set_tempo,45,1,0,,,,,,625000,,,,,,,
408480,note_on,0,0,1,,,,,,,,,1,,,89,32
408636,note_off,0,0,3,,,,,,,,,3,,,53,0
408636,note_off,156,0,3,,,,,,,,,3,,,62,0
408636,note_off,0,0,3,,,,,,,,,3,,,50,0
408720,note_on,0,0,3,,,,,,,,,3,,,62,33
408720,note_on,0,0,3,,,,,,,,,3,,,55,33
408720,note_on,84,0,3,,,,,,,,,3,,,52,33
408840,note_off,0,0,1,,,,,,,,,1,,,77,0
408840,note_off,360,0,1,,,,,,,,,1,,,89,0
408876,note_off,0,0,3,,,,,,,,,3,,,55,0
408876,note_off,156,0,3,,,,,,,,,3,,,62,0
408876,note_off,0,0,3,,,,,,,,,3,,,52,0
408960,note_on,0,0,1,,,,,,,,,1,,,77,35
408960,note_on,84,0,3,,,,,,,,,3,,,62,35
408960,note_on,0,0,3,,,,,,,,,3,,,53,35
408960,note_on,0,0,3,,,,,,,,,3,,,57,35
408960,note_on,120,0,1,,,,,,,,,1,,,89,35
409116,note_off,156,0,3,,,,,,,,,3,,,57,0
409116,note_off,0,0,3,,,,,,,,,3,,,53,0
409116,note_off,0,0,3,,,,,,,,,3,,,62,0
409200,note_on,0,0,3,,,,,,,,,3,,,62,37
409200,note_on,84,0,3,,,,,,,,,3,,,55,37
409200,note_on,0,0,3,,,,,,,,,3,,,52,37
409248,note_off,288,0,1,,,,,,,,,1,,,77,0
409248,note_off,0,0,1,,,,,,,,,1,,,89,0
409320,note_on,0,0,1,,,,,,,,,1,,,79,38
409320,note_on,72,0,1,,,,,,,,,1,,,91,38
409356,note_off,0,0,3,,,,,,,,,3,,,55,0
409356,note_off,0,0,3,,,,,,,,,3,,,62,0
409356,note_off,156,0,3,,,,,,,,,3,,,52,0
409416,note_off,0,0,1,,,,,,,,,1,,,91,0
409416,note_off,96,0,1,,,,,,,,,1,,,79,0
409440,note_on,0,0,1,,,,,,,,,1,,,93,38
409440,note_on,0,0,3,,,,,,,,,3,,,62,38
409440,note_on,0,0,3,,,,,,,,,3,,,53,38
409440,note_on,84,0,3,,,,,,,,,3,,,50,38
409440,note_on,24,0,1,,,,,,,,,1,,,81,38
409596,note_off,0,0,3,,,,,,,,,3,,,50,0
409596,note_off,0,0,3,,,,,,,,,3,,,53,0
409596,note_off,156,0,3,,,,,,,,,3,,,62,0
409680,note_on,0,0,3,,,,,,,,,3,,,52,40
409680,note_on,84,0,3,,,,,,,,,3,,,62,40
409680,note_on,0,0,3,,,,,,,,,3,,,55,40
409836,note_off,0,0,3,,,,,,,,,3,,,52,0
409836,note_off,0,0,3,,,,,,,,,3,,,62,0
409836,note_off,156,0,3,,,,,,,,,3,,,55,0
409920,note_on,0,0,3,,,,,,,,,3,,,53,42
409920,note_on,84,0,3,,,,,,,,,3,,,62,42
409920,note_on,0,0,3,,,,,,,,,3,,,50,42
410076,note_off,156,0,3,,,,,,,,,3,,,50,0
410076,note_off,0,0,3,,,,,,,,,3,,,53,0
410076,note_off,0,0,3,,,,,,,,,3,,,62,0
410160,note_on,0,0,3,,,,,,,,,3,,,60,46
410160,note_on,84,0,3,,,,,,,,,3,,,48,46
410160,note_on,0,0,3,,,,,,,,,3,,,52,46
410280,note_off,0,0,1,,,,,,,,,1,,,81,0
410280,note_off,840,0,1,,,,,,,,,1,,,93,0
410280,set_tempo,1800,1,0,,,,,,638297,,,,,,,
410316,note_off,0,0,3,,,,,,,,,3,,,48,0
410316,note_off,0,0,3,,,,,,,,,3,,,52,0
410316,note_off,156,0,3,,,,,,,,,3,,,60,0
410400,note_on,0,0,3,,,,,,,,,3,,,58,51
410400,note_on,84,0,3,,,,,,,,,3,,,50,51
410400,note_on,0,0,3,,,,,,,,,3,,,46,51
410400,set_tempo,120,1,0,,,,,,625000,,,,,,,
410400,note_on,0,0,1,,,,,,,,,1,,,82,51
410400,note_on,120,0,1,,,,,,,,,1,,,94,51
410556,note_off,156,0,3,,,,,,,,,3,,,58,0
410556,note_off,0,0,3,,,,,,,,,3,,,46,0
410556,note_off,0,0,3,,,,,,,,,3,,,50,0
410640,note_on,0,0,3,,,,,,,,,3,,,58,55
410640,note_on,84,0,3,,,,,,,,,3,,,48,55
410640,note_on,0,0,3,,,,,,,,,3,,,52,55
410760,note_off,0,0,1,,,,,,,,,1,,,94,0
410760,note_off,360,0,1,,,,,,,,,1,,,82,0
410796,note_off,156,0,3,,,,,,,,,3,,,58,0
410796,note_off,0,0,3,,,,,,,,,3,,,52,0
410796,note_off,0,0,3,,,,,,,,,3,,,48,0
410880,note_on,0,0,3,,,,,,,,,3,,,58,60
410880,note_on,0,0,3,,,,,,,,,3,,,46,60
410880,note_on,120,0,1,,,,,,,,,1,,,82,60
410880,note_on,0,0,1,,,,,,,,,1,,,94,60
410880,note_on,84,0,3,,,,,,,,,3,,,50,60
411036,note_off,156,0,3,,,,,,,,,3,,,58,0
411036,note_off,0,0,3,,,,,,,,,3,,,46,0
411036,note_off,0,0,3,,,,,,,,,3,,,50,0
411120,note_on,84,0,3,,,,,,,,,3,,,45,67
411120,note_on,0,0,3,,,,,,,,,3,,,57,67
411120,note_on,0,0,3,,,,,,,,,3,,,48,67
411168,note_off,0,0,1,,,,,,,,,1,,,82,0
411168,note_off,288,0,1,,,,,,,,,1,,,94,0
411240,note_on,0,0,1,,,,,,,,,1,,,96,75
411240,note_on,72,0,1,,,,,,,,,1,,,84,75
411276,note_off,156,0,3,,,,,,,,,3,,,57,0
411276,note_off,0,0,3,,,,,,,,,3,,,48,0
411276,note_off,0,0,3,,,,,,,,,3,,,45,0
411336,note_off,96,0,1,,,,,,,,,1,,,96,0
411336,note_off,0,0,1,,,,,,,,,1,,,84,0
411360,note_on,24,0,1,,,,,,,,,1,,,98,84
411360,note_on,0,0,1,,,,,,,,,1,,,86,84
411360,note_on,0,0,3,,,,,,,,,3,,,55,84
411360,note_on,0,0,3,,,,,,,,,3,,,46,84
411360,note_on,84,0,3,,,,,,,,,3,,,43,84
411516,note_off,0,0,3,,,,,,,,,3,,,43,0
411516,note_off,0,0,3,,,,,,,,,3,,,46,0
411516,note_off,156,0,3,,,,,,,,,3,,,55,0
411600,note_on,0,0,3,,,,,,,,,3,,,45,65
411600,note_on,0,0,3,,,,,,,,,3,,,55,65
411600,note_on,84,0,3,,,,,,,,,3,,,48,65
411756,note_off,0,0,3,,,,,,,,,3,,,45,0
411756,note_off,0,0,3,,,,,,,,,3,,,48,0
411756,note_off,156,0,3,,,,,,,,,3,,,55,0
411840,note_on,0,0,3,,,,,,,,,3,,,46,52
411840,note_on,0,0,3,,,,,,,,,3,,,50,52
411840,note_on,84,0,3,,,,,,,,,3,,,55,52
411996,note_off,156,0,3,,,,,,,,,3,,,46,0
411996,note_off,0,0,3,,,,,,,,,3,,,55,0
411996,note_off,0,0,3,,,,,,,,,3,,,50,0
412080,note_on,84,0,3,,,,,,,,,3,,,47,42
412080,note_on,0,0,3,,,,,,,,,3,,,53,42
412080,note_on,0,0,3,,,,,,,,,3,,,56,42
412200,note_off,840,0,1,,,,,,,,,1,,,86,0
412200,note_off,0,0,1,,,,,,,,,1,,,98,0
412236,note_off,156,0,3,,,,,,,,,3,,,56,0
412236,note_off,0,0,3,,,,,,,,,3,,,47,0
412236,note_off,0,0,3,,,,,,,,,3,,,53,0
412260,set_tempo,1860,1,0,,,,,,652173,,,,,,,
412320,note_on,120,0,1,,,,,,,,,1,,,81,37
412320,note_on,0,0,1,,,,,,,,,1,,,93,37
412320,note_on,7680,0,4,,,,,,,,,4,,,48,37
412320,set_tempo,60,1,0,,,,,,625000,,,,,,,
412476,note_off,156,0,4,,,,,,,,,4,,,48,0
412560,note_on,0,0,3,,,,,,,,,3,,,57,36
412560,note_on,0,0,3,,,,,,,,,3,,,60,36
412560,note_on,324,0,3,,,,,,,,,3,,,65,36
412680,note_off,360,0,1,,,,,,,,,1,,,93,0
412680,note_off,0,0,1,,,,,,,,,1,,,81,0
412716,note_off,0,0,3,,,,,,,,,3,,,65,0
412716,note_off,0,0,3,,,,,,,,,3,,,60,0
412716,note_off,156,0,3,,,,,,,,,3,,,57,0
412800,note_on,120,0,1,,,,,,,,,1,,,93,35
412800,note_on,0,0,1,,,,,,,,,1,,,81,35
412800,note_on,324,0,4,,,,,,,,,4,,,48,35
412956,note_off,156,0,4,,,,,,,,,4,,,48,0
413040,note_on,0,0,3,,,,,,,,,3,,,58,35
413040,note_on,0,0,3,,,,,,,,,3,,,64,35
413040,note_on,324,0,3,,,,,,,,,3,,,60,35
413088,note_off,0,0,1,,,,,,,,,1,,,93,0
413088,note_off,288,0,1,,,,,,,,,1,,,81,0
413160,note_on,0,0,1,,,,,,,,,1,,,81,34
413160,note_on,72,0,1,,,,,,,,,1,,,93,34
413196,note_off,0,0,3,,,,,,,,,3,,,60,0
413196,note_off,0,0,3,,,,,,,,,3,,,64,0
413196,note_off,156,0,3,,,,,,,,,3,,,58,0
413256,note_off,0,0,1,,,,,,,,,1,,,93,0
413256,note_off,96,0,1,,,,,,,,,1,,,81,0
413280,note_on,24,0,1,,,,,,,,,1,,,81,34
413280,note_on,0,0,1,,,,,,,,,1,,,93,34
413280,note_on,324,0,4,,,,,,,,,4,,,50,34
413436,note_off,156,0,4,,,,,,,,,4,,,50,0
413520,note_on,84,0,4,,,,,,,,,4,,,69,39
413520,note_on,0,0,4,,,,,,,,,4,,,60,39
413760,note_off,240,0,4,,,,,,,,,4,,,69,0
413760,note_on,0,0,4,,,,,,,,,4,,,58,33
413760,note_on,0,0,4,,,,,,,,,4,,,67,33
414000,note_on,0,0,4,,,,,,,,,4,,,65,27
414000,note_off,0,0,4,,,,,,,,,4,,,58,0
414000,note_off,240,0,4,,,,,,,,,4,,,67,0
414000,note_on,0,0,4,,,,,,,,,4,,,57,27
414120,note_off,840,0,1,,,,,,,,,1,,,81,0
414120,set_tempo,1800,1,0,,,,,,638297,,,,,,,
414125,note_off,5,0,1,,,,,,,,,1,,,93,0
414156,note_off,156,0,4,,,,,,,,,4,,,57,0
414156,note_off,0,0,4,,,,,,,,,4,,,65,0
414160,note_off,4,0,4,,,,,,,,,4,,,60,0
414240,note_on,80,0,4,,,,,,,,,4,,,48,31
414240,note_on,115,0,1,,,,,,,,,1,,,93,31
414240,note_on,0,0,1,,,,,,,,,1,,,81,31
414396,note_off,156,0,4,,,,,,,,,4,,,48,0
414480,note_on,0,0,3,,,,,,,,,3,,,57,30
414480,note_on,1284,0,3,,,,,,,,,3,,,65,30
414480,note_on,0,0,3,,,,,,,,,3,,,60,30
414600,note_off,0,0,1,,,,,,,,,1,,,93,0
414600,note_off,360,0,1,,,,,,,,,1,,,81,0
414636,note_off,156,0,3,,,,,,,,,3,,,60,0
414636,note_off,0,0,3,,,,,,,,,3,,,65,0
414636,note_off,0,0,3,,,,,,,,,3,,,57,0
414720,note_on,120,0,1,,,,,,,,,1,,,81,29
414720,note_on,0,0,1,,,,,,,,,1,,,93,29
414720,note_on,324,0,4,,,,,,,,,4,,,48,29
414876,note_off,156,0,4,,,,,,,,,4,,,48,0
414960,note_on,0,0,3,,,,,,,,,3,,,64,29
414960,note_on,324,0,3,,,,,,,,,3,,,60,29
414960,note_on,0,0,3,,,,,,,,,3,,,58,29
415008,note_off,288,0,1,,,,,,,,,1,,,93,0
415008,note_off,0,0,1,,,,,,,,,1,,,81,0
415080,note_on,0,0,1,,,,,,,,,1,,,93,28
415080,note_on,72,0,1,,,,,,,,,1,,,81,28
415116,note_off,156,0,3,,,,,,,,,3,,,58,0
415116,note_off,0,0,3,,,,,,,,,3,,,64,0
415116,note_off,0,0,3,,,,,,,,,3,,,60,0
415160,set_tempo,1040,1,0,,,,,,652173,,,,,,,
415176,note_off,0,0,1,,,,,,,,,1,,,81,0
415176,note_off,96,0,1,,,,,,,,,1,,,93,0
415200,note_on,24,0,1,,,,,,,,,1,,,86,29
415200,note_on,324,0,4,,,,,,,,,4,,,50,29
415200,note_on,0,0,1,,,,,,,,,1,,,74,29
415356,note_off,156,0,4,,,,,,,,,4,,,50,0
415440,note_on,0,0,4,,,,,,,,,4,,,65,35
415440,note_on,84,0,4,,,,,,,,,4,,,69,35
415680,note_on,0,0,4,,,,,,,,,4,,,67,28
415680,note_on,0,0,4,,,,,,,,,4,,,64,28
415680,note_off,240,0,4,,,,,,,,,4,,,65,0
415680,note_off,0,0,4,,,,,,,,,4,,,69,0
415920,note_off,0,0,4,,,,,,,,,4,,,67,0
415920,note_off,720,0,1,,,,,,,,,1,,,74,0
415920,note_off,0,0,1,,,,,,,,,1,,,86,0
415920,note_on,0,0,4,,,,,,,,,4,,,65,24
415920,note_on,0,0,4,,,,,,,,,4,,,62,24
415920,note_off,240,0,4,,,,,,,,,4,,,64,0
415920,set_tempo,760,1,0,,,,,,659340,,,,,,,
416040,set_tempo,120,1,0,,,,,,810810,,,,,,,
416076,note_off,156,0,4,,,,,,,,,4,,,62,0
416076,note_off,0,0,4,,,,,,,,,4,,,65,0
416160,control_change,84,0,4,,,,,,,64,0,4,,,,
416160,set_tempo,120,1,0,,,,,,625000,,,,,,,
416160,control_change,11520,0,2,,,,,,,64,0,2,,,,
416160,control_change,11520,0,5,,,,,,,64,0,5,,,,
416160,control_change,1044,0,3,,,,,,,64,0,3,,,,
416160,control_change,240,0,1,,,,,,,64,0,1,,,,
416160,note_on,0,0,1,,,,,,,,,1,,,81,28
416160,note_on,0,0,1,,,,,,,,,1,,,69,28
416160,note_on,0,0,3,,,,,,,,,3,,,57,28
416160,note_on,0,0,3,,,,,,,,,3,,,61,28
416160,note_on,0,0,3,,,,,,,,,3,,,64,28
416316,note_off,0,0,3,,,,,,,,,3,,,61,0
416316,note_off,0,0,3,,,,,,,,,3,,,64,0
416316,note_off,156,0,3,,,,,,,,,3,,,57,0
416400,note_on,0,0,3,,,,,,,,,3,,,57,28
416400,note_on,84,0,3,,,,,,,,,3,,,63,28
416400,note_on,0,0,3,,,,,,,,,3,,,60,28
416520,note_off,360,0,1,,,,,,,,,1,,,69,0
416520,note_off,0,0,1,,,,,,,,,1,,,81,0
416556,note_off,0,0,3,,,,,,,,,3,,,60,0
416556,note_off,0,0,3,,,,,,,,,3,,,63,0
416556,note_off,156,0,3,,,,,,,,,3,,,57,0
416640,note_on,120,0,1,,,,,,,,,1,,,81,29
416640,note_on,0,0,3,,,,,,,,,3,,,57,29
416640,note_on,0,0,1,,,,,,,,,1,,,69,29
416640,note_on,0,0,3,,,,,,,,,3,,,61,29
416640,note_on,84,0,3,,,,,,,,,3,,,64,29
416796,note_off,156,0,3,,,,,,,,,3,,,57,0
416796,note_off,0,0,3,,,,,,,,,3,,,64,0
416796,note_off,0,0,3,,,,,,,,,3,,,61,0
416880,note_on,0,0,3,,,,,,,,,3,,,60,30
416880,note_on,84,0,3,,,,,,,,,3,,,63,30
416880,note_on,0,0,3,,,,,,,,,3,,,57,30
416928,note_off,288,0,1,,,,,,,,,1,,,69,0
416928,note_off,0,0,1,,,,,,,,,1,,,81,0
417000,note_on,72,0,1,,,,,,,,,1,,,81,30
417000,note_on,0,0,1,,,,,,,,,1,,,69,30
417036,note_off,0,0,3,,,,,,,,,3,,,63,0
417036,note_off,156,0,3,,,,,,,,,3,,,57,0
417036,note_off,0,0,3,,,,,,,,,3,,,60,0
417096,note_off,96,0,1,,,,,,,,,1,,,69,0
417096,note_off,0,0,1,,,,,,,,,1,,,81,0
417120,note_on,0,0,3,,,,,,,,,3,,,64,31
417120,note_on,24,0,1,,,,,,,,,1,,,69,31
417120,note_on,0,0,1,,,,,,,,,1,,,81,31
417120,note_on,0,0,3,,,,,,,,,3,,,57,31
417120,note_on,84,0,3,,,,,,,,,3,,,61,31
417276,note_off,0,0,3,,,,,,,,,3,,,57,0
417276,note_off,0,0,3,,,,,,,,,3,,,61,0
417276,note_off,156,0,3,,,,,,,,,3,,,64,0
417360,note_on,84,0,3,,,,,,,,,3,,,63,31
417360,note_on,0,0,3,,,,,,,,,3,,,57,31
417360,note_on,0,0,3,,,,,,,,,3,,,60,31
417480,note_off,0,0,1,,,,,,,,,1,,,69,0
417480,note_off,360,0,1,,,,,,,,,1,,,81,0
417516,note_off,0,0,3,,,,,,,,,3,,,63,0
417516,note_off,156,0,3,,,,,,,,,3,,,60,0
417516,note_off,0,0,3,,,,,,,,,3,,,57,0
417600,note_on,0,0,3,,,,,,,,,3,,,57,32
417600,note_on,0,0,1,,,,,,,,,1,,,81,32
417600,note_on,120,0,1,,,,,,,,,1,,,69,32
417600,note_on,0,0,3,,,,,,,,,3,,,64,32
417600,note_on,84,0,3,,,,,,,,,3,,,61,32
417756,note_off,156,0,3,,,,,,,,,3,,,57,0
417756,note_off,0,0,3,,,,,,,,,3,,,61,0
417756,note_off,0,0,3,,,,,,,,,3,,,64,0
417840,note_on,84,0,3,,,,,,,,,3,,,62,33
417840,note_on,0,0,3,,,,,,,,,3,,,65,33
417840,note_on,0,0,3,,,,,,,,,3,,,57,33
417888,note_off,0,0,1,,,,,,,,,1,,,69,0
417888,note_off,288,0,1,,,,,,,,,1,,,81,0
417960,note_on,0,0,1,,,,,,,,,1,,,81,33
417960,note_on,72,0,1,,,,,,,,,1,,,69,33
417996,note_off,156,0,3,,,,,,,,,3,,,57,0
417996,note_off,0,0,3,,,,,,,,,3,,,65,0
417996,note_off,0,0,3,,,,,,,,,3,,,62,0
418056,note_off,0,0,1,,,,,,,,,1,,,69,0
418056,note_off,96,0,1,,,,,,,,,1,,,81,0
418080,note_on,0,0,3,,,,,,,,,3,,,57,35
418080,note_on,0,0,3,,,,,,,,,3,,,64,35
418080,note_on,24,0,1,,,,,,,,,1,,,73,35
418080,note_on,0,0,1,,,,,,,,,1,,,85,35
418080,note_on,84,0,3,,,,,,,,,3,,,67,35
418236,note_off,0,0,3,,,,,,,,,3,,,64,0
418236,note_off,0,0,3,,,,,,,,,3,,,67,0
418236,note_off,156,0,3,,,,,,,,,3,,,57,0
418320,note_on,84,0,3,,,,,,,,,3,,,69,37
418320,note_on,0,0,3,,,,,,,,,3,,,65,37
418320,note_on,0,0,3,,,,,,,,,3,,,57,37
418440,note_off,360,0,1,,,,,,,,,1,,,85,0
418440,note_off,0,0,1,,,,,,,,,1,,,73,0
418476,note_off,0,0,3,,,,,,,,,3,,,69,0
418476,note_off,156,0,3,,,,,,,,,3,,,57,0
418476,note_off,0,0,3,,,,,,,,,3,,,65,0
418560,note_on,0,0,1,,,,,,,,,1,,,76,41
418560,note_on,84,0,3,,,,,,,,,3,,,70,41
418560,note_on,120,0,1,,,,,,,,,1,,,88,41
418560,note_on,0,0,3,,,,,,,,,3,,,67,41
418560,note_on,0,0,3,,,,,,,,,3,,,57,41
418716,note_off,156,0,3,,,,,,,,,3,,,57,0
418716,note_off,0,0,3,,,,,,,,,3,,,70,0
418716,note_off,0,0,3,,,,,,,,,3,,,67,0
418800,note_on,0,0,3,,,,,,,,,3,,,67,46
418800,note_on,0,0,3,,,,,,,,,3,,,57,46
418800,note_on,84,0,3,,,,,,,,,3,,,61,46
418920,note_off,360,0,1,,,,,,,,,1,,,76,0
418920,note_off,0,0,1,,,,,,,,,1,,,88,0
418956,note_off,156,0,3,,,,,,,,,3,,,57,0
418956,note_off,0,0,3,,,,,,,,,3,,,67,0
418956,note_off,0,0,3,,,,,,,,,3,,,61,0
419040,note_on,120,0,1,,,,,,,,,1,,,86,54
419040,note_on,84,0,3,,,,,,,,,3,,,62,54
419040,note_on,0,0,3,,,,,,,,,3,,,65,54
419040,note_on,0,0,3,,,,,,,,,3,,,58,54
419040,note_on,0,0,1,,,,,,,,,1,,,74,54
419196,note_off,156,0,3,,,,,,,,,3,,,58,0
419196,note_off,0,0,3,,,,,,,,,3,,,65,0
419196,note_off,0,0,3,,,,,,,,,3,,,62,0
419280,note_on,84,0,3,,,,,,,,,3,,,67,62
419280,note_on,0,0,3,,,,,,,,,3,,,64,62
419280,note_on,0,0,3,,,,,,,,,3,,,58,62
419328,note_off,288,0,1,,,,,,,,,1,,,74,0
419328,note_off,0,0,1,,,,,,,,,1,,,86,0
419400,note_on,0,0,1,,,,,,,,,1,,,85,67
419400,note_on,72,0,1,,,,,,,,,1,,,73,67
419436,note_off,156,0,3,,,,,,,,,3,,,64,0
419436,note_off,0,0,3,,,,,,,,,3,,,58,0
419436,note_off,0,0,3,,,,,,,,,3,,,67,0
419496,note_off,0,0,1,,,,,,,,,1,,,73,0
419496,note_off,96,0,1,,,,,,,,,1,,,85,0
419520,note_on,24,0,1,,,,,,,,,1,,,74,71
419520,note_on,0,0,1,,,,,,,,,1,,,86,71
419520,note_on,0,0,3,,,,,,,,,3,,,62,71
419520,note_on,0,0,3,,,,,,,,,3,,,58,71
419520,note_on,84,0,3,,,,,,,,,3,,,65,71
419676,note_off,0,0,3,,,,,,,,,3,,,65,0
419676,note_off,0,0,3,,,,,,,,,3,,,62,0
419676,note_off,156,0,3,,,,,,,,,3,,,58,0
419760,note_on,0,0,3,,,,,,,,,3,,,61,81
419760,note_on,0,0,3,,,,,,,,,3,,,58,81
419760,note_on,84,0,3,,,,,,,,,3,,,67,81
419808,note_off,0,0,1,,,,,,,,,1,,,74,0
419808,note_off,288,0,1,,,,,,,,,1,,,86,0
419880,note_on,72,0,1,,,,,,,,,1,,,88,88
419880,note_on,0,0,1,,,,,,,,,1,,,76,88
419916,note_off,0,0,3,,,,,,,,,3,,,61,0
419916,note_off,0,0,3,,,,,,,,,3,,,67,0
419916,note_off,156,0,3,,,,,,,,,3,,,58,0
419940,set_tempo,3780,1,0,,,,,,638297,,,,,,,
419976,note_off,96,0,1,,,,,,,,,1,,,76,0
419976,note_off,0,0,1,,,,,,,,,1,,,88,0
420000,set_tempo,60,1,0,,,,,,625000,,,,,,,
420000,note_on,0,0,3,,,,,,,,,3,,,58,96
420000,note_on,0,0,1,,,,,,,,,1,,,77,96
420000,note_on,24,0,1,,,,,,,,,1,,,89,96
420000,note_on,0,0,3,,,,,,,,,3,,,65,96
420000,note_on,84,0,3,,,,,,,,,3,,,62,96
420156,note_off,0,0,3,,,,,,,,,3,,,62,0
420156,note_off,0,0,3,,,,,,,,,3,,,65,0
420156,note_off,156,0,3,,,,,,,,,3,,,58,0
420240,note_on,84,0,3,,,,,,,,,3,,,64,79
420240,note_on,0,0,3,,,,,,,,,3,,,58,79
420240,note_on,0,0,3,,,,,,,,,3,,,61,79
420288,note_off,0,0,1,,,,,,,,,1,,,89,0
420288,note_off,288,0,1,,,,,,,,,1,,,77,0
420360,note_on,0,0,1,,,,,,,,,1,,,76,70
420360,note_on,72,0,1,,,,,,,,,1,,,88,70
420396,note_off,156,0,3,,,,,,,,,3,,,61,0
420396,note_off,0,0,3,,,,,,,,,3,,,64,0
420396,note_off,0,0,3,,,,,,,,,3,,,58,0
420456,note_off,96,0,1,,,,,,,,,1,,,76,0
420456,note_off,0,0,1,,,,,,,,,1,,,88,0
420480,note_on,0,0,3,,,,,,,,,3,,,62,67
420480,note_on,84,0,3,,,,,,,,,3,,,58,67
420480,note_on,0,0,1,,,,,,,,,1,,,74,67
420480,note_on,24,0,1,,,,,,,,,1,,,86,67
420480,note_on,0,0,3,,,,,,,,,3,,,65,67
420636,note_off,0,0,3,,,,,,,,,3,,,58,0
420636,note_off,0,0,3,,,,,,,,,3,,,65,0
420636,note_off,156,0,3,,,,,,,,,3,,,62,0
420720,note_on,0,0,3,,,,,,,,,3,,,58,57
420720,note_on,0,0,3,,,,,,,,,3,,,62,57
420720,note_on,84,0,3,,,,,,,,,3,,,66,57
420768,note_off,288,0,1,,,,,,,,,1,,,74,0
420768,note_off,0,0,1,,,,,,,,,1,,,86,0
420840,note_on,72,0,1,,,,,,,,,1,,,84,52
420840,note_on,0,0,1,,,,,,,,,1,,,72,52
420876,note_off,156,0,3,,,,,,,,,3,,,62,0
420876,note_off,0,0,3,,,,,,,,,3,,,58,0
420876,note_off,0,0,3,,,,,,,,,3,,,66,0
420936,note_off,96,0,1,,,,,,,,,1,,,72,0
420936,note_off,0,0,1,,,,,,,,,1,,,84,0
420960,note_on,84,0,3,,,,,,,,,3,,,58,46
420960,note_on,0,0,3,,,,,,,,,3,,,67,46
420960,note_on,0,0,3,,,,,,,,,3,,,62,46
420960,note_on,0,0,1,,,,,,,,,1,,,82,46
420960,note_on,24,0,1,,,,,,,,,1,,,70,46
421116,note_off,156,0,3,,,,,,,,,3,,,62,0
421116,note_off,0,0,3,,,,,,,,,3,,,67,0
421116,note_off,0,0,3,,,,,,,,,3,,,58,0
421200,note_on,0,0,3,,,,,,,,,3,,,62,42
421200,note_on,84,0,3,,,,,,,,,3,,,69,42
421200,note_on,0,0,3,,,,,,,,,3,,,58,42
421248,note_off,288,0,1,,,,,,,,,1,,,82,0
421248,note_off,0,0,1,,,,,,,,,1,,,70,0
421320,note_on,72,0,1,,,,,,,,,1,,,69,40
421320,note_on,0,0,1,,,,,,,,,1,,,81,40
421356,note_off,0,0,3,,,,,,,,,3,,,58,0
421356,note_off,156,0,3,,,,,,,,,3,,,62,0
421416,note_off,60,0,3,,,,,,,,,3,,,69,0
421416,note_off,0,0,1,,,,,,,,,1,,,69,0
421416,note_off,96,0,1,,,,,,,,,1,,,81,0
421440,note_on,24,0,1,,,,,,,,,1,,,67,38
421440,note_on,0,0,1,,,,,,,,,1,,,79,38
421440,note_on,0,0,3,,,,,,,,,3,,,62,38
421440,note_on,24,0,3,,,,,,,,,3,,,58,38
421440,note_on,0,0,3,,,,,,,,,3,,,70,38
421596,note_off,0,0,3,,,,,,,,,3,,,58,0
421596,note_off,0,0,3,,,,,,,,,3,,,62,0
421596,note_off,156,0,3,,,,,,,,,3,,,70,0
421680,note_on,84,0,3,,,,,,,,,3,,,69,34
421680,note_on,0,0,3,,,,,,,,,3,,,62,34
421680,note_on,0,0,3,,,,,,,,,3,,,59,34
421728,note_off,0,0,1,,,,,,,,,1,,,67,0
421728,note_off,288,0,1,,,,,,,,,1,,,79,0
421800,note_on,0,0,1,,,,,,,,,1,,,77,32
421800,note_on,72,0,1,,,,,,,,,1,,,65,32
421836,note_off,0,0,3,,,,,,,,,3,,,69,0
421836,note_off,0,0,3,,,,,,,,,3,,,59,0
421836,note_off,156,0,3,,,,,,,,,3,,,62,0
421896,note_off,0,0,1,,,,,,,,,1,,,65,0
421896,note_off,96,0,1,,,,,,,,,1,,,77,0
421920,note_on,0,0,1,,,,,,,,,1,,,72,30
421920,note_on,0,0,1,,,,,,,,,1,,,84,30
421920,control_change,5760,0,2,,,,,,,64,0,2,,,,
421920,note_on,0,0,3,,,,,,,,,3,,,64,30
421920,note_on,0,0,3,,,,,,,,,3,,,67,30
421920,note_on,0,0,3,,,,,,,,,3,,,60,30
421920,control_change,24,0,1,,,,,,,64,0,1,,,,
421920,control_change,5760,0,5,,,,,,,64,0,5,,,,
421920,control_change,84,0,3,,,,,,,64,0,3,,,,
421920,control_change,5760,0,4,,,,,,,64,0,4,,,,
422076,note_off,156,0,3,,,,,,,,,3,,,60,0
422076,note_off,0,0,3,,,,,,,,,3,,,64,0
422076,note_off,0,0,3,,,,,,,,,3,,,67,0
422160,note_on,84,0,3,,,,,,,,,3,,,63,31
422160,note_on,0,0,3,,,,,,,,,3,,,66,31
422160,note_on,0,0,3,,,,,,,,,3,,,60,31
422280,note_off,0,0,1,,,,,,,,,1,,,72,0
422280,note_off,360,0,1,,,,,,,,,1,,,84,0
422316,note_off,0,0,3,,,,,,,,,3,,,66,0
422316,note_off,0,0,3,,,,,,,,,3,,,63,0
422316,note_off,156,0,3,,,,,,,,,3,,,60,0
422400,note_on,120,0,1,,,,,,,,,1,,,84,32
422400,note_on,0,0,1,,,,,,,,,1,,,72,32
422400,note_on,84,0,3,,,,,,,,,3,,,64,32
422400,note_on,0,0,3,,,,,,,,,3,,,67,32
422400,note_on,0,0,3,,,,,,,,,3,,,60,32
422556,note_off,0,0,3,,,,,,,,,3,,,64,0
422556,note_off,156,0,3,,,,,,,,,3,,,60,0
422556,note_off,0,0,3,,,,,,,,,3,,,67,0
422640,note_on,84,0,3,,,,,,,,,3,,,66,34
422640,note_on,0,0,3,,,,,,,,,3,,,63,34
422640,note_on,0,0,3,,,,,,,,,3,,,60,34
422688,note_off,288,0,1,,,,,,,,,1,,,72,0
422688,note_off,0,0,1,,,,,,,,,1,,,84,0
422760,note_on,72,0,1,,,,,,,,,1,,,84,34
422760,note_on,0,0,1,,,,,,,,,1,,,72,34
422796,note_off,156,0,3,,,,,,,,,3,,,60,0
422796,note_off,0,0,3,,,,,,,,,3,,,63,0
422796,note_off,0,0,3,,,,,,,,,3,,,66,0
422856,note_off,0,0,1,,,,,,,,,1,,,84,0
422856,note_off,96,0,1,,,,,,,,,1,,,72,0
422880,note_on,0,0,1,,,,,,,,,1,,,72,35
422880,note_on,24,0,1,,,,,,,,,1,,,84,35
422880,note_on,0,0,3,,,,,,,,,3,,,60,35
422880,note_on,0,0,3,,,,,,,,,3,,,67,35
422880,note_on,84,0,3,,,,,,,,,3,,,64,35
423036,note_off,0,0,3,,,,,,,,,3,,,64,0
423036,note_off,0,0,3,,,,,,,,,3,,,67,0
423036,note_off,156,0,3,,,,,,,,,3,,,60,0
423120,note_on,84,0,3,,,,,,,,,3,,,66,36
423120,note_on,0,0,3,,,,,,,,,3,,,63,36
423120,note_on,0,0,3,,,,,,,,,3,,,60,36
423240,note_off,360,0,1,,,,,,,,,1,,,72,0
423240,note_off,0,0,1,,,,,,,,,1,,,84,0
423276,note_off,0,0,3,,,,,,,,,3,,,63,0
423276,note_off,0,0,3,,,,,,,,,3,,,66,0
423276,note_off,156,0,3,,,,,,,,,3,,,60,0
423360,note_on,84,0,3,,,,,,,,,3,,,64,38
423360,note_on,0,0,3,,,,,,,,,3,,,67,38
423360,note_on,0,0,3,,,,,,,,,3,,,60,38
423516,note_off,0,0,3,,,,,,,,,3,,,64,0
423516,note_off,0,0,3,,,,,,,,,3,,,67,0
423516,note_off,156,0,3,,,,,,,,,3,,,60,0
423600,note_on,0,0,3,,,,,,,,,3,,,64,39
423600,note_on,84,0,3,,,,,,,,,3,,,58,39
423600,note_on,0,0,3,,,,,,,,,3,,,67,39
423720,set_tempo,3720,1,0,,,,,,638297,,,,,,,
423756,note_off,0,0,3,,,,,,,,,3,,,58,0
423756,note_off,0,0,3,,,,,,,,,3,,,67,0
423756,note_off,156,0,3,,,,,,,,,3,,,64,0
423840,note_on,0,0,3,,,,,,,,,3,,,64,40
423840,note_on,0,0,3,,,,,,,,,3,,,57,40
423840,note_on,84,0,3,,,,,,,,,3,,,67,40
423840,note_on,600,0,1,,,,,,,,,1,,,85,40
423840,note_on,0,0,1,,,,,,,,,1,,,73,40
423840,set_tempo,120,1,0,,,,,,625000,,,,,,,
423996,note_off,0,0,3,,,,,,,,,3,,,67,0
423996,note_off,156,0,3,,,,,,,,,3,,,64,0
423996,note_off,0,0,3,,,,,,,,,3,,,57,0
424080,note_on,84,0,3,,,,,,,,,3,,,58,42
424080,note_on,0,0,3,,,,,,,,,3,,,64,42
424080,note_on,0,0,3,,,,,,,,,3,,,67,42
424200,note_off,360,0,1,,,,,,,,,1,,,73,0
424200,note_off,0,0,1,,,,,,,,,1,,,85,0
424236,note_off,156,0,3,,,,,,,,,3,,,67,0
424236,note_off,0,0,3,,,,,,,,,3,,,64,0
424236,note_off,0,0,3,,,,,,,,,3,,,58,0
424320,note_on,120,0,1,,,,,,,,,1,,,85,43
424320,note_on,0,0,1,,,,,,,,,1,,,73,43
424320,note_on,84,0,3,,,,,,,,,3,,,57,43
424320,note_on,0,0,3,,,,,,,,,3,,,64,43
424320,note_on,0,0,3,,,,,,,,,3,,,67,43
424476,note_off,156,0,3,,,,,,,,,3,,,67,0
424476,note_off,0,0,3,,,,,,,,,3,,,64,0
424476,note_off,0,0,3,,,,,,,,,3,,,57,0
424560,note_on,0,0,3,,,,,,,,,3,,,67,44
424560,note_on,0,0,3,,,,,,,,,3,,,64,44
424560,note_on,84,0,3,,,,,,,,,3,,,58,44
424608,note_off,288,0,1,,,,,,,,,1,,,73,0
424608,note_off,0,0,1,,,,,,,,,1,,,85,0
424680,note_on,0,0,1,,,,,,,,,1,,,73,45
424680,note_on,72,0,1,,,,,,,,,1,,,85,45
424716,note_off,0,0,3,,,,,,,,,3,,,64,0
424716,note_off,0,0,3,,,,,,,,,3,,,58,0
424716,note_off,156,0,3,,,,,,,,,3,,,67,0
424776,note_off,96,0,1,,,,,,,,,1,,,73,0
424776,note_off,0,0,1,,,,,,,,,1,,,85,0
424800,note_on,84,0,3,,,,,,,,,3,,,64,46
424800,note_on,0,0,3,,,,,,,,,3,,,57,46
424800,note_on,0,0,3,,,,,,,,,3,,,67,46
424800,note_on,24,0,1,,,,,,,,,1,,,85,46
424800,note_on,0,0,1,,,,,,,,,1,,,73,46
424956,note_off,156,0,3,,,,,,,,,3,,,67,0
424956,note_off,0,0,3,,,,,,,,,3,,,57,0
424956,note_off,0,0,3,,,,,,,,,3,,,64,0
425040,note_on,0,0,3,,,,,,,,,3,,,67,47
425040,note_on,84,0,3,,,,,,,,,3,,,64,47
425040,note_on,0,0,3,,,,,,,,,3,,,58,47
425160,note_off,360,0,1,,,,,,,,,1,,,73,0
425160,note_off,0,0,1,,,,,,,,,1,,,85,0
425196,note_off,0,0,3,,,,,,,,,3,,,64,0
425196,note_off,0,0,3,,,,,,,,,3,,,58,0
425196,note_off,156,0,3,,,,,,,,,3,,,67,0
425280,note_on,0,0,3,,,,,,,,,3,,,67,48
425280,note_on,0,0,3,,,,,,,,,3,,,57,48
425280,note_on,84,0,3,,,,,,,,,3,,,64,48
425436,note_off,0,0,3,,,,,,,,,3,,,64,0
425436,note_off,0,0,3,,,,,,,,,3,,,57,0
425436,note_off,156,0,3,,,,,,,,,3,,,67,0
425520,note_on,0,0,3,,,,,,,,,3,,,64,50
425520,note_on,0,0,3,,,,,,,,,3,,,55,50
425520,note_on,84,0,3,,,,,,,,,3,,,57,50
425640,set_tempo,1800,1,0,,,,,,638297,,,,,,,
425676,note_off,0,0,3,,,,,,,,,3,,,57,0
425676,note_off,0,0,3,,,,,,,,,3,,,55,0
425676,note_off,156,0,3,,,,,,,,,3,,,64,0
425760,note_on,0,0,3,,,,,,,,,3,,,62,56
425760,note_on,600,0,1,,,,,,,,,1,,,86,56
425760,note_on,0,0,1,,,,,,,,,1,,,74,56
425760,note_on,84,0,3,,,,,,,,,3,,,53,56
425760,set_tempo,120,1,0,,,,,,625000,,,,,,,
425760,note_on,0,0,3,,,,,,,,,3,,,57,56
425916,note_off,156,0,3,,,,,,,,,3,,,62,0
425916,note_off,0,0,3,,,,,,,,,3,,,57,0
425916,note_off,0,0,3,,,,,,,,,3,,,53,0
426000,note_on,0,0,3,,,,,,,,,3,,,57,51
426000,note_on,0,0,3,,,,,,,,,3,,,64,51
426000,note_on,84,0,3,,,,,,,,,3,,,55,51
426120,note_off,0,0,1,,,,,,,,,1,,,86,0
426120,note_off,360,0,1,,,,,,,,,1,,,74,0
426156,note_off,0,0,3,,,,,,,,,3,,,55,0
426156,note_off,0,0,3,,,,,,,,,3,,,64,0
426156,note_off,156,0,3,,,,,,,,,3,,,57,0
426240,note_on,84,0,3,,,,,,,,,3,,,53,49
426240,note_on,0,0,3,,,,,,,,,3,,,62,49
426240,note_on,0,0,3,,,,,,,,,3,,,57,49
426240,note_on,0,0,1,,,,,,,,,1,,,74,49
426240,note_on,120,0,1,,,,,,,,,1,,,86,49
426396,note_off,0,0,3,,,,,,,,,3,,,53,0
426396,note_off,0,0,3,,,,,,,,,3,,,57,0
426396,note_off,156,0,3,,,,,,,,,3,,,62,0
426480,note_on,0,0,3,,,,,,,,,3,,,64,48
426480,note_on,0,0,3,,,,,,,,,3,,,57,48
426480,note_on,84,0,3,,,,,,,,,3,,,55,48
426528,note_off,288,0,1,,,,,,,,,1,,,74,0
426528,note_off,0,0,1,,,,,,,,,1,,,86,0
426600,note_on,0,0,1,,,,,,,,,1,,,74,47
426600,note_on,72,0,1,,,,,,,,,1,,,86,47
426636,note_off,156,0,3,,,,,,,,,3,,,64,0
426636,note_off,0,0,3,,,,,,,,,3,,,57,0
426636,note_off,0,0,3,,,,,,,,,3,,,55,0
426696,note_off,0,0,1,,,,,,,,,1,,,86,0
426696,note_off,96,0,1,,,,,,,,,1,,,74,0
426720,note_on,0,0,1,,,,,,,,,1,,,74,46
426720,note_on,84,0,3,,,,,,,,,3,,,53,46
426720,note_on,0,0,3,,,,,,,,,3,,,57,46
426720,note_on,0,0,3,,,,,,,,,3,,,62,46
426720,note_on,24,0,1,,,,,,,,,1,,,86,46
426876,note_off,0,0,3,,,,,,,,,3,,,53,0
426876,note_off,156,0,3,,,,,,,,,3,,,62,0
426876,note_off,0,0,3,,,,,,,,,3,,,57,0
426960,note_on,84,0,3,,,,,,,,,3,,,62,44
426960,note_on,0,0,3,,,,,,,,,3,,,55,44
426960,note_on,0,0,3,,,,,,,,,3,,,58,44
427080,note_off,0,0,1,,,,,,,,,1,,,86,0
427080,note_off,360,0,1,,,,,,,,,1,,,74,0
427116,note_off,156,0,3,,,,,,,,,3,,,58,0
427116,note_off,0,0,3,,,,,,,,,3,,,55,0
427116,note_off,0,0,3,,,,,,,,,3,,,62,0
427200,note_on,84,0,3,,,,,,,,,3,,,53,42
427200,note_on,0,0,3,,,,,,,,,3,,,57,42
427200,note_on,0,0,3,,,,,,,,,3,,,62,42
427356,note_off,0,0,3,,,,,,,,,3,,,57,0
427356,note_off,0,0,3,,,,,,,,,3,,,53,0
427356,note_off,156,0,3,,,,,,,,,3,,,62,0
427440,note_on,0,0,3,,,,,,,,,3,,,53,40
427440,note_on,0,0,3,,,,,,,,,3,,,50,40
427440,note_on,84,0,3,,,,,,,,,3,,,62,40
427560,set_tempo,1800,1,0,,,,,,638297,,,,,,,
427596,note_off,0,0,3,,,,,,,,,3,,,50,0
427596,note_off,0,0,3,,,,,,,,,3,,,62,0
427596,note_off,156,0,3,,,,,,,,,3,,,53,0
427680,note_on,0,0,1,,,,,,,,,1,,,81,39
427680,note_on,84,0,3,,,,,,,,,3,,,57,39
427680,note_on,600,0,1,,,,,,,,,1,,,93,39
427680,note_on,0,0,3,,,,,,,,,3,,,52,39
427680,note_on,0,0,3,,,,,,,,,3,,,49,39
427836,note_off,0,0,3,,,,,,,,,3,,,57,0
427836,note_off,0,0,3,,,,,,,,,3,,,49,0
427836,note_off,156,0,3,,,,,,,,,3,,,52,0
427920,note_on,0,0,3,,,,,,,,,3,,,57,37
427920,note_on,84,0,3,,,,,,,,,3,,,50,37
427920,note_on,0,0,3,,,,,,,,,3,,,53,37
428040,note_off,360,0,1,,,,,,,,,1,,,81,0
428040,note_off,0,0,1,,,,,,,,,1,,,93,0
428076,note_off,0,0,3,,,,,,,,,3,,,53,0
428076,note_off,0,0,3,,,,,,,,,3,,,50,0
428076,note_off,156,0,3,,,,,,,,,3,,,57,0
428160,note_on,0,0,3,,,,,,,,,3,,,49,35
428160,note_on,84,0,3,,,,,,,,,3,,,52,35
428160,note_on,0,0,3,,,,,,,,,3,,,57,35
428160,note_on,0,0,1,,,,,,,,,1,,,81,35
428160,note_on,120,0,1,,,,,,,,,1,,,93,35
428316,note_off,156,0,3,,,,,,,,,3,,,49,0
428316,note_off,0,0,3,,,,,,,,,3,,,57,0
428316,note_off,0,0,3,,,,,,,,,3,,,52,0
428400,note_on,84,0,3,,,,,,,,,3,,,53,33
428400,note_on,0,0,3,,,,,,,,,3,,,57,33
428400,note_on,0,0,3,,,,,,,,,3,,,50,33
428448,note_off,288,0,1,,,,,,,,,1,,,81,0
428448,note_off,0,0,1,,,,,,,,,1,,,93,0
428520,note_on,72,0,1,,,,,,,,,1,,,93,32
428520,note_on,0,0,1,,,,,,,,,1,,,81,32
428556,note_off,156,0,3,,,,,,,,,3,,,57,0
428556,note_off,0,0,3,,,,,,,,,3,,,50,0
428556,note_off,0,0,3,,,,,,,,,3,,,53,0
428600,set_tempo,1040,1,0,,,,,,631578,,,,,,,
428616,note_off,96,0,1,,,,,,,,,1,,,81,0
428616,note_off,0,0,1,,,,,,,,,1,,,93,0
428640,note_on,0,0,3,,,,,,,,,3,,,49,31
428640,note_on,0,0,3,,,,,,,,,3,,,52,31
428640,note_on,84,0,3,,,,,,,,,3,,,57,31
428640,set_tempo,40,1,0,,,,,,625000,,,,,,,
428640,note_on,0,0,1,,,,,,,,,1,,,81,31
428640,note_on,24,0,1,,,,,,,,,1,,,93,31
428796,note_off,0,0,3,,,,,,,,,3,,,52,0
428796,note_off,0,0,3,,,,,,,,,3,,,57,0
428796,note_off,156,0,3,,,,,,,,,3,,,49,0
428880,note_on,0,0,3,,,,,,,,,3,,,50,35
428880,note_on,0,0,3,,,,,,,,,3,,,53,35
428880,note_on,84,0,3,,,,,,,,,3,,,57,35
429000,note_off,360,0,1,,,,,,,,,1,,,81,0
429000,note_off,0,0,1,,,,,,,,,1,,,93,0
429036,note_off,0,0,3,,,,,,,,,3,,,57,0
429036,note_off,156,0,3,,,,,,,,,3,,,50,0
429036,note_off,0,0,3,,,,,,,,,3,,,53,0
429120,note_on,84,0,3,,,,,,,,,3,,,57,29
429120,note_on,0,0,3,,,,,,,,,3,,,52,29
429120,note_on,0,0,3,,,,,,,,,3,,,49,29
429276,note_off,0,0,3,,,,,,,,,3,,,57,0
429276,note_off,0,0,3,,,,,,,,,3,,,49,0
429276,note_off,156,0,3,,,,,,,,,3,,,52,0
429360,set_tempo,720,1,0,,,,,,652173,,,,,,,
429360,note_on,84,0,3,,,,,,,,,3,,,57,24
429360,note_on,0,0,3,,,,,,,,,3,,,49,24
429360,note_on,0,0,3,,,,,,,,,3,,,45,24
429480,set_tempo,120,1,0,,,,,,1071428,,,,,,,
429516,note_off,0,0,3,,,,,,,,,3,,,57,0
429516,note_off,0,0,3,,,,,,,,,3,,,45,0
429516,note_off,156,0,3,,,,,,,,,3,,,49,0
429560,set_tempo,80,1,0,,,,,,1276595,,,,,,,
429600,control_change,7680,0,2,,,,,,,64,0,2,,,,
429600,note_on,0,0,3,,,,,,,,,3,,,62,28
429600,control_change,84,0,3,,,,,,,64,0,3,,,,
429600,control_change,7680,0,4,,,,,,,64,0,4,,,,
429600,note_on,0,0,1,,,,,,,,,1,,,69,28
429600,note_on,0,0,1,,,,,,,,,1,,,81,28
429600,note_on,0,0,3,,,,,,,,,3,,,50,28
429600,control_change,7680,0,5,,,,,,,64,0,5,,,,
429600,note_on,0,0,3,,,,,,,,,3,,,53,28
429600,control_change,600,0,1,,,,,,,64,0,1,,,,
429600,set_tempo,40,1,0,,,,,,625000,,,,,,,
429756,note_off,156,0,3,,,,,,,,,3,,,50,0
429756,note_off,0,0,3,,,,,,,,,3,,,53,0
429756,note_off,0,0,3,,,,,,,,,3,,,62,0
429840,note_on,0,0,3,,,,,,,,,3,,,52,28
429840,note_on,0,0,3,,,,,,,,,3,,,55,28
429840,note_on,84,0,3,,,,,,,,,3,,,62,28
429960,note_off,0,0,1,,,,,,,,,1,,,81,0
429960,note_off,360,0,1,,,,,,,,,1,,,69,0
429996,note_off,0,0,3,,,,,,,,,3,,,62,0
429996,note_off,0,0,3,,,,,,,,,3,,,55,0
429996,note_off,156,0,3,,,,,,,,,3,,,52,0
430080,note_on,0,0,1,,,,,,,,,1,,,81,28
430080,note_on,120,0,1,,,,,,,,,1,,,69,28
430080,note_on,84,0,3,,,,,,,,,3,,,53,28
430080,note_on,0,0,3,,,,,,,,,3,,,62,28
430080,note_on,0,0,3,,,,,,,,,3,,,57,28
430236,note_off,0,0,3,,,,,,,,,3,,,53,0
430236,note_off,0,0,3,,,,,,,,,3,,,57,0
430236,note_off,156,0,3,,,,,,,,,3,,,62,0
430320,note_on,84,0,3,,,,,,,,,3,,,55,29
430320,note_on,0,0,3,,,,,,,,,3,,,52,29
430320,note_on,0,0,3,,,,,,,,,3,,,62,29
430368,note_off,288,0,1,,,,,,,,,1,,,81,0
430368,note_off,0,0,1,,,,,,,,,1,,,69,0
430440,note_on,72,0,1,,,,,,,,,1,,,68,29
430440,note_on,0,0,1,,,,,,,,,1,,,80,29
430476,note_off,156,0,3,,,,,,,,,3,,,62,0
430476,note_off,0,0,3,,,,,,,,,3,,,55,0
430476,note_off,0,0,3,,,,,,,,,3,,,52,0
430536,note_off,0,0,1,,,,,,,,,1,,,68,0
430536,note_off,96,0,1,,,,,,,,,1,,,80,0
430560,note_on,24,0,1,,,,,,,,,1,,,81,29
430560,note_on,0,0,1,,,,,,,,,1,,,69,29
430560,note_on,84,0,3,,,,,,,,,3,,,53,29
430560,note_on,0,0,3,,,,,,,,,3,,,50,29
430560,note_on,0,0,3,,,,,,,,,3,,,62,29
430716,note_off,0,0,3,,,,,,,,,3,,,53,0
430716,note_off,156,0,3,,,,,,,,,3,,,62,0
430716,note_off,0,0,3,,,,,,,,,3,,,50,0
430800,note_on,84,0,3,,,,,,,,,3,,,55,29
430800,note_on,0,0,3,,,,,,,,,3,,,52,29
430800,note_on,0,0,3,,,,,,,,,3,,,62,29
430920,note_off,360,0,1,,,,,,,,,1,,,69,0
430920,note_off,0,0,1,,,,,,,,,1,,,81,0
430956,note_off,156,0,3,,,,,,,,,3,,,62,0
430956,note_off,0,0,3,,,,,,,,,3,,,52,0
430956,note_off,0,0,3,,,,,,,,,3,,,55,0
431040,note_on,120,0,1,,,,,,,,,1,,,86,30
431040,note_on,0,0,1,,,,,,,,,1,,,74,30
431040,note_on,0,0,3,,,,,,,,,3,,,57,30
431040,note_on,0,0,3,,,,,,,,,3,,,62,30
431040,note_on,84,0,3,,,,,,,,,3,,,53,30
431196,note_off,0,0,3,,,,,,,,,3,,,57,0
431196,note_off,0,0,3,,,,,,,,,3,,,53,0
431196,note_off,156,0,3,,,,,,,,,3,,,62,0
431280,note_on,84,0,3,,,,,,,,,3,,,62,30
431280,note_on,0,0,3,,,,,,,,,3,,,53,30
431280,note_on,0,0,3,,,,,,,,,3,,,50,30
431400,note_off,0,0,1,,,,,,,,,1,,,86,0
431400,note_off,360,0,1,,,,,,,,,1,,,74,0
431436,note_off,156,0,3,,,,,,,,,3,,,50,0
431436,note_off,0,0,3,,,,,,,,,3,,,53,0
431436,note_off,0,0,3,,,,,,,,,3,,,62,0
431460,set_tempo,1860,1,0,,,,,,638297,,,,,,,
431520,set_tempo,60,1,0,,,,,,625000,,,,,,,
431520,note_on,120,0,1,,,,,,,,,1,,,82,31
431520,note_on,0,0,1,,,,,,,,,1,,,70,31
431520,note_on,0,0,3,,,,,,,,,3,,,52,31
431520,note_on,0,0,3,,,,,,,,,3,,,55,31
431520,note_on,84,0,3,,,,,,,,,3,,,61,31
431676,note_off,0,0,3,,,,,,,,,3,,,61,0
431676,note_off,0,0,3,,,,,,,,,3,,,55,0
431676,note_off,156,0,3,,,,,,,,,3,,,52,0
431760,note_on,0,0,3,,,,,,,,,3,,,57,31
431760,note_on,0,0,3,,,,,,,,,3,,,53,31
431760,note_on,84,0,3,,,,,,,,,3,,,61,31
431880,note_off,360,0,1,,,,,,,,,1,,,70,0
431880,note_off,0,0,1,,,,,,,,,1,,,82,0
431916,note_off,156,0,3,,,,,,,,,3,,,57,0
431916,note_off,0,0,3,,,,,,,,,3,,,53,0
431916,note_off,0,0,3,,,,,,,,,3,,,61,0
432000,note_on,0,0,3,,,,,,,,,3,,,61,31
432000,note_on,0,0,3,,,,,,,,,3,,,55,31
432000,note_on,84,0,3,,,,,,,,,3,,,58,31
432000,note_on,120,0,1,,,,,,,,,1,,,82,31
432000,note_on,0,0,1,,,,,,,,,1,,,70,31
432156,note_off,0,0,3,,,,,,,,,3,,,61,0
432156,note_off,0,0,3,,,,,,,,,3,,,58,0
432156,note_off,156,0,3,,,,,,,,,3,,,55,0
432240,note_on,84,0,3,,,,,,,,,3,,,57,32
432240,note_on,0,0,3,,,,,,,,,3,,,61,32
432240,note_on,0,0,3,,,,,,,,,3,,,53,32
432288,note_off,0,0,1,,,,,,,,,1,,,82,0
432288,note_off,288,0,1,,,,,,,,,1,,,70,0
432360,note_on,72,0,1,,,,,,,,,1,,,69,32
432360,note_on,0,0,1,,,,,,,,,1,,,81,32
432396,note_off,156,0,3,,,,,,,,,3,,,53,0
432396,note_off,0,0,3,,,,,,,,,3,,,61,0
432396,note_off,0,0,3,,,,,,,,,3,,,57,0
432456,note_off,0,0,1,,,,,,,,,1,,,69,0
432456,note_off,96,0,1,,,,,,,,,1,,,81,0
432480,note_on,0,0,1,,,,,,,,,1,,,82,32
432480,note_on,24,0,1,,,,,,,,,1,,,70,32
432480,note_on,0,0,3,,,,,,,,,3,,,52,32
432480,note_on,0,0,3,,,,,,,,,3,,,55,32
432480,note_on,84,0,3,,,,,,,,,3,,,61,32
432636,note_off,0,0,3,,,,,,,,,3,,,61,0
432636,note_off,156,0,3,,,,,,,,,3,,,52,0
432636,note_off,0,0,3,,,,,,,,,3,,,55,0
432720,note_on,0,0,3,,,,,,,,,3,,,53,32
432720,note_on,84,0,3,,,,,,,,,3,,,57,32
432720,note_on,0,0,3,,,,,,,,,3,,,61,32
432840,note_off,0,0,1,,,,,,,,,1,,,70,0
432840,note_off,360,0,1,,,,,,,,,1,,,82,0
432876,note_off,156,0,3,,,,,,,,,3,,,61,0
432876,note_off,0,0,3,,,,,,,,,3,,,53,0
432876,note_off,0,0,3,,,,,,,,,3,,,57,0
432960,note_on,84,0,3,,,,,,,,,3,,,58,33
432960,note_on,120,0,1,,,,,,,,,1,,,88,33
432960,note_on,0,0,1,,,,,,,,,1,,,76,33
432960,note_on,0,0,3,,,,,,,,,3,,,55,33
432960,note_on,0,0,3,,,,,,,,,3,,,61,33
433116,note_off,0,0,3,,,,,,,,,3,,,58,0
433116,note_off,0,0,3,,,,,,,,,3,,,55,0
433116,note_off,156,0,3,,,,,,,,,3,,,61,0
433200,note_on,0,0,3,,,,,,,,,3,,,55,33
433200,note_on,84,0,3,,,,,,,,,3,,,61,33
433200,note_on,0,0,3,,,,,,,,,3,,,52,33
433320,note_off,0,0,1,,,,,,,,,1,,,88,0
433320,note_off,360,0,1,,,,,,,,,1,,,76,0
433356,note_off,0,0,3,,,,,,,,,3,,,61,0
433356,note_off,0,0,3,,,,,,,,,3,,,52,0
433356,note_off,156,0,3,,,,,,,,,3,,,55,0
433395,set_tempo,1875,1,0,,,,,,638297,,,,,,,
433440,note_on,0,0,1,,,,,,,,,1,,,77,32
433440,note_on,120,0,1,,,,,,,,,1,,,89,32
433440,note_on,0,0,3,,,,,,,,,3,,,53,32
433440,note_on,0,0,3,,,,,,,,,3,,,50,32
433440,set_tempo,45,1,0,,,,,,625000,,,,,,,
433440,note_on,84,0,3,,,,,,,,,3,,,62,32
433596,note_off,156,0,3,,,,,,,,,3,,,50,0
433596,note_off,0,0,3,,,,,,,,,3,,,53,0
433596,note_off,0,0,3,,,,,,,,,3,,,62,0
433680,note_on,0,0,3,,,,,,,,,3,,,52,33
433680,note_on,84,0,3,,,,,,,,,3,,,62,33
433680,note_on,0,0,3,,,,,,,,,3,,,55,33
433800,note_off,360,0,1,,,,,,,,,1,,,77,0
433800,note_off,0,0,1,,,,,,,,,1,,,89,0
433836,note_off,0,0,3,,,,,,,,,3,,,55,0
433836,note_off,156,0,3,,,,,,,,,3,,,52,0
433836,note_off,0,0,3,,,,,,,,,3,,,62,0
433920,note_on,0,0,3,,,,,,,,,3,,,53,35
433920,note_on,0,0,3,,,,,,,,,3,,,62,35
433920,note_on,120,0,1,,,,,,,,,1,,,77,35
433920,note_on,0,0,1,,,,,,,,,1,,,89,35
433920,note_on,84,0,3,,,,,,,,,3,,,57,35
434076,note_off,156,0,3,,,,,,,,,3,,,62,0
434076,note_off,0,0,3,,,,,,,,,3,,,53,0
434076,note_off,0,0,3,,,,,,,,,3,,,57,0
434160,note_on,0,0,3,,,,,,,,,3,,,55,37
434160,note_on,84,0,3,,,,,,,,,3,,,52,37
434160,note_on,0,0,3,,,,,,,,,3,,,62,37
434208,note_off,288,0,1,,,,,,,,,1,,,89,0
434208,note_off,0,0,1,,,,,,,,,1,,,77,0
434280,note_on,0,0,1,,,,,,,,,1,,,91,38
434280,note_on,72,0,1,,,,,,,,,1,,,79,38
434316,note_off,156,0,3,,,,,,,,,3,,,55,0
434316,note_off,0,0,3,,,,,,,,,3,,,52,0
434316,note_off,0,0,3,,,,,,,,,3,,,62,0
434376,note_off,96,0,1,,,,,,,,,1,,,91,0
434376,note_off,0,0,1,,,,,,,,,1,,,79,0
434400,note_on,0,0,3,,,,,,,,,3,,,53,38
434400,note_on,0,0,3,,,,,,,,,3,,,50,38
434400,note_on,24,0,1,,,,,,,,,1,,,93,38
434400,note_on,0,0,1,,,,,,,,,1,,,81,38
434400,note_on,84,0,3,,,,,,,,,3,,,62,38
434556,note_off,0,0,3,,,,,,,,,3,,,53,0
434556,note_off,156,0,3,,,,,,,,,3,,,50,0
434556,note_off,0,0,3,,,,,,,,,3,,,62,0
434640,note_on,0,0,3,,,,,,,,,3,,,52,40
434640,note_on,0,0,3,,,,,,,,,3,,,62,40
434640,note_on,84,0,3,,,,,,,,,3,,,55,40
434796,note_off,0,0,3,,,,,,,,,3,,,55,0
434796,note_off,0,0,3,,,,,,,,,3,,,52,0
434796,note_off,156,0,3,,,,,,,,,3,,,62,0
434880,note_on,0,0,3,,,,,,,,,3,,,53,42
434880,note_on,84,0,3,,,,,,,,,3,,,50,42
434880,note_on,0,0,3,,,,,,,,,3,,,62,42
435036,note_off,156,0,3,,,,,,,,,3,,,62,0
435036,note_off,0,0,3,,,,,,,,,3,,,53,0
435036,note_off,0,0,3,,,,,,,,,3,,,50,0
435120,note_on,0,0,3,,,,,,,,,3,,,48,46
435120,note_on,0,0,3,,,,,,,,,3,,,52,46
435120,note_on,84,0,3,,,,,,,,,3,,,60,46
435240,note_off,840,0,1,,,,,,,,,1,,,81,0
435240,note_off,0,0,1,,,,,,,,,1,,,93,0
435240,set_tempo,1800,1,0,,,,,,638297,,,,,,,
435276,note_off,0,0,3,,,,,,,,,3,,,60,0
435276,note_off,0,0,3,,,,,,,,,3,,,52,0
435276,note_off,156,0,3,,,,,,,,,3,,,48,0
435360,note_on,0,0,3,,,,,,,,,3,,,50,51
435360,note_on,0,0,3,,,,,,,,,3,,,46,51
435360,note_on,84,0,3,,,,,,,,,3,,,58,51
435360,note_on,0,0,1,,,,,,,,,1,,,94,51
435360,note_on,120,0,1,,,,,,,,,1,,,82,51
435360,set_tempo,120,1,0,,,,,,625000,,,,,,,
435516,note_off,0,0,3,,,,,,,,,3,,,46,0
435516,note_off,0,0,3,,,,,,,,,3,,,58,0
435516,note_off,156,0,3,,,,,,,,,3,,,50,0
435600,note_on,0,0,3,,,,,,,,,3,,,52,55
435600,note_on,0,0,3,,,,,,,,,3,,,48,55
435600,note_on,84,0,3,,,,,,,,,3,,,58,55
435720,note_off,0,0,1,,,,,,,,,1,,,82,0
435720,note_off,360,0,1,,,,,,,,,1,,,94,0
435756,note_off,156,0,3,,,,,,,,,3,,,48,0
435756,note_off,0,0,3,,,,,,,,,3,,,52,0
435756,note_off,0,0,3,,,,,,,,,3,,,58,0
435840,note_on,120,0,1,,,,,,,,,1,,,94,60
435840,note_on,0,0,1,,,,,,,,,1,,,82,60
435840,note_on,84,0,3,,,,,,,,,3,,,58,60
435840,note_on,0,0,3,,,,,,,,,3,,,46,60
435840,note_on,0,0,3,,,,,,,,,3,,,50,60
435996,note_off,0,0,3,,,,,,,,,3,,,58,0
435996,note_off,156,0,3,,,,,,,,,3,,,50,0
435996,note_off,0,0,3,,,,,,,,,3,,,46,0
436080,note_on,0,0,3,,,,,,,,,3,,,45,67
436080,note_on,84,0,3,,,,,,,,,3,,,57,67
436080,note_on,0,0,3,,,,,,,,,3,,,48,67
436128,note_off,288,0,1,,,,,,,,,1,,,82,0
436128,note_off,0,0,1,,,,,,,,,1,,,94,0
436200,note_on,0,0,1,,,,,,,,,1,,,84,75
436200,note_on,72,0,1,,,,,,,,,1,,,96,75
436236,note_off,0,0,3,,,,,,,,,3,,,57,0
436236,note_off,156,0,3,,,,,,,,,3,,,45,0
436236,note_off,0,0,3,,,,,,,,,3,,,48,0
436296,note_off,96,0,1,,,,,,,,,1,,,84,0
436296,note_off,0,0,1,,,,,,,,,1,,,96,0
436320,note_on,24,0,1,,,,,,,,,1,,,86,84
436320,note_on,0,0,3,,,,,,,,,3,,,46,84
436320,note_on,0,0,3,,,,,,,,,3,,,43,84
436320,note_on,0,0,1,,,,,,,,,1,,,98,84
436320,note_on,84,0,3,,,,,,,,,3,,,55,84
436476,note_off,0,0,3,,,,,,,,,3,,,55,0
436476,note_off,0,0,3,,,,,,,,,3,,,46,0
436476,note_off,156,0,3,,,,,,,,,3,,,43,0
436560,note_on,0,0,3,,,,,,,,,3,,,45,65
436560,note_on,84,0,3,,,,,,,,,3,,,55,65
436560,note_on,0,0,3,,,,,,,,,3,,,48,65
436716,note_off,0,0,3,,,,,,,,,3,,,45,0
436716,note_off,156,0,3,,,,,,,,,3,,,48,0
436716,note_off,0,0,3,,,,,,,,,3,,,55,0
436800,note_on,84,0,3,,,,,,,,,3,,,46,52
436800,note_on,0,0,3,,,,,,,,,3,,,50,52
436800,note_on,0,0,3,,,,,,,,,3,,,55,52
436956,note_off,0,0,3,,,,,,,,,3,,,46,0
436956,note_off,156,0,3,,,,,,,,,3,,,55,0
436956,note_off,0,0,3,,,,,,,,,3,,,50,0
437040,note_on,0,0,3,,,,,,,,,3,,,47,42
437040,note_on,0,0,3,,,,,,,,,3,,,53,42
437040,note_on,84,0,3,,,,,,,,,3,,,56,42
437160,note_off,840,0,1,,,,,,,,,1,,,98,0
437160,note_off,0,0,1,,,,,,,,,1,,,86,0
437196,note_off,0,0,3,,,,,,,,,3,,,53,0
437196,note_off,0,0,3,,,,,,,,,3,,,56,0
437196,note_off,156,0,3,,,,,,,,,3,,,47,0
437220,set_tempo,1860,1,0,,,,,,652173,,,,,,,
437280,note_on,0,0,1,,,,,,,,,1,,,81,37
437280,set_tempo,60,1,0,,,,,,625000,,,,,,,
437280,note_on,7680,0,4,,,,,,,,,4,,,48,37
437280,note_on,120,0,1,,,,,,,,,1,,,93,37
437436,note_off,156,0,4,,,,,,,,,4,,,48,0
437520,note_on,324,0,3,,,,,,,,,3,,,57,36
437520,note_on,0,0,3,,,,,,,,,3,,,60,36
437520,note_on,0,0,3,,,,,,,,,3,,,65,36
437640,note_off,360,0,1,,,,,,,,,1,,,81,0
437640,note_off,0,0,1,,,,,,,,,1,,,93,0
437676,note_off,0,0,3,,,,,,,,,3,,,57,0
437676,note_off,0,0,3,,,,,,,,,3,,,60,0
437676,note_off,156,0,3,,,,,,,,,3,,,65,0
437760,note_on,120,0,1,,,,,,,,,1,,,81,35
437760,note_on,0,0,1,,,,,,,,,1,,,93,35
437760,note_on,324,0,4,,,,,,,,,4,,,48,35
437916,note_off,156,0,4,,,,,,,,,4,,,48,0
438000,note_on,0,0,3,,,,,,,,,3,,,60,35
438000,note_on,0,0,3,,,,,,,,,3,,,64,35
438000,note_on,324,0,3,,,,,,,,,3,,,58,35
438048,note_off,288,0,1,,,,,,,,,1,,,93,0
438048,note_off,0,0,1,,,,,,,,,1,,,81,0
438120,note_on,72,0,1,,,,,,,,,1,,,81,34
438120,note_on,0,0,1,,,,,,,,,1,,,93,34
438156,note_off,0,0,3,,,,,,,,,3,,,64,0
438156,note_off,0,0,3,,,,,,,,,3,,,58,0
438156,note_off,156,0,3,,,,,,,,,3,,,60,0
438216,note_off,96,0,1,,,,,,,,,1,,,93,0
438216,note_off,0,0,1,,,,,,,,,1,,,81,0
438240,note_on,324,0,4,,,,,,,,,4,,,50,34
438240,note_on,24,0,1,,,,,,,,,1,,,93,34
438240,note_on,0,0,1,,,,,,,,,1,,,81,34
438396,note_off,156,0,4,,,,,,,,,4,,,50,0
438480,note_on,84,0,4,,,,,,,,,4,,,60,39
438480,note_on,0,0,4,,,,,,,,,4,,,69,39
438720,note_off,240,0,4,,,,,,,,,4,,,69,0
438720,note_on,0,0,4,,,,,,,,,4,,,58,33
438720,note_on,0,0,4,,,,,,,,,4,,,67,33
438960,note_off,0,0,4,,,,,,,,,4,,,67,0
438960,note_on,0,0,4,,,,,,,,,4,,,65,27
438960,note_on,0,0,4,,,,,,,,,4,,,57,27
438960,note_off,240,0,4,,,,,,,,,4,,,58,0
439080,note_off,840,0,1,,,,,,,,,1,,,81,0
439080,set_tempo,1800,1,0,,,,,,638297,,,,,,,
439085,note_off,5,0,1,,,,,,,,,1,,,93,0
439116,note_off,156,0,4,,,,,,,,,4,,,65,0
439116,note_off,0,0,4,,,,,,,,,4,,,57,0
439120,note_off,4,0,4,,,,,,,,,4,,,60,0
439200,note_on,115,0,1,,,,,,,,,1,,,81,31
439200,note_on,0,0,1,,,,,,,,,1,,,93,31
439200,note_on,80,0,4,,,,,,,,,4,,,48,31
439356,note_off,156,0,4,,,,,,,,,4,,,48,0
439440,note_on,1284,0,3,,,,,,,,,3,,,60,30
439440,note_on,0,0,3,,,,,,,,,3,,,57,30
439440,note_on,0,0,3,,,,,,,,,3,,,65,30
439560,note_off,0,0,1,,,,,,,,,1,,,81,0
439560,note_off,360,0,1,,,,,,,,,1,,,93,0
439596,note_off,156,0,3,,,,,,,,,3,,,65,0
439596,note_off,0,0,3,,,,,,,,,3,,,57,0
439596,note_off,0,0,3,,,,,,,,,3,,,60,0
439680,note_on,324,0,4,,,,,,,,,4,,,48,29
439680,note_on,120,0,1,,,,,,,,,1,,,93,29
439680,note_on,0,0,1,,,,,,,,,1,,,81,29
439836,note_off,156,0,4,,,,,,,,,4,,,48,0
439920,note_on,0,0,3,,,,,,,,,3,,,64,29
439920,note_on,324,0,3,,,,,,,,,3,,,58,29
439920,note_on,0,0,3,,,,,,,,,3,,,60,29
439968,note_off,0,0,1,,,,,,,,,1,,,93,0
439968,note_off,288,0,1,,,,,,,,,1,,,81,0
440040,note_on,0,0,1,,,,,,,,,1,,,81,28
440040,note_on,72,0,1,,,,,,,,,1,,,93,28
440076,note_off,156,0,3,,,,,,,,,3,,,60,0
440076,note_off,0,0,3,,,,,,,,,3,,,58,0
440076,note_off,0,0,3,,,,,,,,,3,,,64,0
440120,set_tempo,1040,1,0,,,,,,652173,,,,,,,
440136,note_off,96,0,1,,,,,,,,,1,,,81,0
440136,note_off,0,0,1,,,,,,,,,1,,,93,0
440160,note_on,24,0,1,,,,,,,,,1,,,74,29
440160,note_on,0,0,1,,,,,,,,,1,,,86,29
440160,note_on,324,0,4,,,,,,,,,4,,,50,29
440316,note_off,156,0,4,,,,,,,,,4,,,50,0
440400,note_on,84,0,4,,,,,,,,,4,,,77,35
440400,note_on,0,0,4,,,,,,,,,4,,,69,35
440640,note_off,240,0,4,,,,,,,,,4,,,69,0
440640,note_off,0,0,4,,,,,,,,,4,,,77,0
440640,note_on,0,0,4,,,,,,,,,4,,,76,28
440640,note_on,0,0,4,,,,,,,,,4,,,67,28
440640,note_off,0,0,1,,,,,,,,,1,,,74,0
440640,note_off,480,0,1,,,,,,,,,1,,,86,0
440880,note_off,0,0,4,,,,,,,,,4,,,76,0
440880,note_on,0,0,4,,,,,,,,,4,,,74,24
440880,note_on,0,0,4,,,,,,,,,4,,,65,24
440880,set_tempo,760,1,0,,,,,,659340,,,,,,,
440880,note_off,240,0,4,,,,,,,,,4,,,67,0
441000,set_tempo,120,1,0,,,,,,810810,,,,,,,
441036,note_off,0,0,4,,,,,,,,,4,,,74,0
441036,note_off,156,0,4,,,,,,,,,4,,,65,0
441120,note_on,0,0,4,,,,,,,,,4,,,64,28
441120,note_on,0,0,2,,,,,,,,,2,,,73,28
441120,control_change,1044,0,3,,,,,,,64,0,3,,,,
441120,control_change,480,0,1,,,,,,,64,0,1,,,,
441120,control_change,11520,0,2,,,,,,,64,0,2,,,,
441120,control_change,84,0,4,,,,,,,64,0,4,,,,
441120,note_on,0,0,5,,,,,,,,,5,,,45,28
441120,note_on,0,0,5,,,,,,,,,5,,,33,28
441120,set_tempo,120,1,0,,,,,,625000,,,,,,,
441120,control_change,11520,0,5,,,,,,,64,0,5,,,,
441276,note_off,156,0,4,,,,,,,,,4,,,64,0
441276,note_off,156,0,2,,,,,,,,,2,,,73,0
441360,note_on,84,0,2,,,,,,,,,2,,,85,34
441360,note_on,84,0,4,,,,,,,,,4,,,79,34
441480,note_off,360,0,5,,,,,,,,,5,,,45,0
441480,note_off,0,0,5,,,,,,,,,5,,,33,0
441600,note_on,120,0,5,,,,,,,,,5,,,33,30
441600,note_on,0,0,5,,,,,,,,,5,,,45,30
441600,note_off,240,0,2,,,,,,,,,2,,,85,0
441600,note_on,0,0,2,,,,,,,,,2,,,86,30
441600,note_off,240,0,4,,,,,,,,,4,,,79,0
441600,note_on,0,0,4,,,,,,,,,4,,,77,30
441756,note_off,156,0,2,,,,,,,,,2,,,86,0
441756,note_off,156,0,4,,,,,,,,,4,,,77,0
441840,note_on,84,0,4,,,,,,,,,4,,,65,30
441840,note_on,84,0,2,,,,,,,,,2,,,74,30
441888,note_off,288,0,5,,,,,,,,,5,,,45,0
441888,note_off,0,0,5,,,,,,,,,5,,,33,0
441960,note_on,0,0,5,,,,,,,,,5,,,45,31
441960,note_on,72,0,5,,,,,,,,,5,,,33,31
442056,note_off,0,0,5,,,,,,,,,5,,,33,0
442056,note_off,96,0,5,,,,,,,,,5,,,45,0
442080,note_on,0,0,4,,,,,,,,,4,,,64,31
442080,note_off,240,0,2,,,,,,,,,2,,,74,0
442080,note_on,0,0,5,,,,,,,,,5,,,33,31
442080,note_on,0,0,2,,,,,,,,,2,,,73,31
442080,note_on,24,0,5,,,,,,,,,5,,,45,31
442080,note_off,240,0,4,,,,,,,,,4,,,65,0
442236,note_off,156,0,2,,,,,,,,,2,,,73,0
442236,note_off,156,0,4,,,,,,,,,4,,,64,0
442320,note_on,84,0,2,,,,,,,,,2,,,77,38
442320,note_on,84,0,4,,,,,,,,,4,,,69,38
442560,note_on,0,0,4,,,,,,,,,4,,,67,34
442560,note_off,240,0,4,,,,,,,,,4,,,69,0
442560,note_off,240,0,2,,,,,,,,,2,,,77,0
442560,note_on,0,0,2,,,,,,,,,2,,,76,34
442800,note_on,0,0,4,,,,,,,,,4,,,65,31
442800,note_off,240,0,4,,,,,,,,,4,,,67,0
442800,note_off,240,0,2,,,,,,,,,2,,,76,0
442800,note_on,0,0,2,,,,,,,,,2,,,74,31
442920,note_off,840,0,5,,,,,,,,,5,,,33,0
442920,set_tempo,1800,1,0,,,,,,638297,,,,,,,
442920,note_off,0,0,5,,,,,,,,,5,,,45,0
443040,note_on,0,0,5,,,,,,,,,5,,,33,34
443040,note_on,0,0,4,,,,,,,,,4,,,64,34
443040,set_tempo,120,1,0,,,,,,625000,,,,,,,
443040,note_on,0,0,2,,,,,,,,,2,,,73,34
443040,note_off,240,0,2,,,,,,,,,2,,,74,0
443040,note_on,120,0,5,,,,,,,,,5,,,45,34
443040,note_off,240,0,4,,,,,,,,,4,,,65,0
443196,note_off,156,0,4,,,,,,,,,4,,,64,0
443196,note_off,156,0,2,,,,,,,,,2,,,73,0
443280,note_on,84,0,4,,,,,,,,,4,,,79,40
443280,note_on,84,0,2,,,,,,,,,2,,,85,40
443400,note_off,0,0,5,,,,,,,,,5,,,45,0
443400,note_off,360,0,5,,,,,,,,,5,,,33,0
443520,note_off,240,0,4,,,,,,,,,4,,,79,0
443520,note_on,120,0,5,,,,,,,,,5,,,45,36
443520,note_off,240,0,2,,,,,,,,,2,,,85,0
443520,note_on,0,0,2,,,,,,,,,2,,,86,36
443520,note_on,0,0,4,,,,,,,,,4,,,77,36
443520,note_on,0,0,5,,,,,,,,,5,,,33,36
443676,note_off,156,0,2,,,,,,,,,2,,,86,0
443676,note_off,156,0,4,,,,,,,,,4,,,77,0
443760,note_on,84,0,4,,,,,,,,,4,,,65,39
443760,note_on,84,0,2,,,,,,,,,2,,,74,39
443808,note_off,288,0,5,,,,,,,,,5,,,33,0
443808,note_off,0,0,5,,,,,,,,,5,,,45,0
443880,note_on,72,0,5,,,,,,,,,5,,,45,37
443880,note_on,0,0,5,,,,,,,,,5,,,33,37
443976,note_off,96,0,5,,,,,,,,,5,,,33,0
443976,note_off,0,0,5,,,,,,,,,5,,,45,0
444000,note_on,0,0,4,,,,,,,,,4,,,64,37
444000,note_off,240,0,2,,,,,,,,,2,,,74,0
444000,note_on,0,0,5,,,,,,,,,5,,,45,37
444000,note_off,240,0,4,,,,,,,,,4,,,65,0
444000,note_on,24,0,5,,,,,,,,,5,,,33,37
444000,note_on,0,0,2,,,,,,,,,2,,,73,37
444156,note_off,156,0,2,,,,,,,,,2,,,73,0
444156,note_off,156,0,4,,,,,,,,,4,,,64,0
444240,note_on,84,0,4,,,,,,,,,4,,,69,46
444240,note_on,84,0,2,,,,,,,,,2,,,77,46
444480,note_on,0,0,4,,,,,,,,,4,,,67,41
444480,note_on,0,0,2,,,,,,,,,2,,,76,41
444480,note_off,240,0,2,,,,,,,,,2,,,77,0
444480,note_off,240,0,4,,,,,,,,,4,,,69,0
444720,note_on,0,0,5,,,,,,,,,5,,,34,39
444720,note_off,0,0,5,,,,,,,,,5,,,33,0
444720,note_off,720,0,5,,,,,,,,,5,,,45,0
444720,note_on,0,0,5,,,,,,,,,5,,,46,39
444912,note_off,0,0,5,,,,,,,,,5,,,34,0
444912,note_off,192,0,5,,,,,,,,,5,,,46,0
444960,note_on,0,0,2,,,,,,,,,2,,,75,40
444960,note_on,48,0,5,,,,,,,,,5,,,35,40
444960,note_on,0,0,5,,,,,,,,,5,,,47,40
444960,note_on,0,0,4,,,,,,,,,4,,,66,40
444960,note_off,480,0,4,,,,,,,,,4,,,67,0
444960,note_off,480,0,2,,,,,,,,,2,,,76,0
445116,note_off,156,0,2,,,,,,,,,2,,,75,0
445116,note_off,156,0,4,,,,,,,,,4,,,66,0
445200,note_on,84,0,2,,,,,,,,,2,,,79,48
445200,note_on,84,0,4,,,,,,,,,4,,,71,48
445440,note_on,0,0,4,,,,,,,,,4,,,69,43
445440,note_off,240,0,4,,,,,,,,,4,,,71,0
445440,note_off,240,0,2,,,,,,,,,2,,,79,0
445440,note_on,0,0,2,,,,,,,,,2,,,78,43
445680,note_on,0,0,2,,,,,,,,,2,,,76,40
445680,note_on,0,0,4,,,,,,,,,4,,,67,40
445680,note_off,240,0,4,,,,,,,,,4,,,69,0
445680,note_off,240,0,2,,,,,,,,,2,,,78,0
445800,set_tempo,2760,1,0,,,,,,652173,,,,,,,
445807,note_off,847,0,5,,,,,,,,,5,,,47,0
445807,note_off,0,0,5,,,,,,,,,5,,,35,0
445920,note_off,240,0,4,,,,,,,,,4,,,67,0
445920,note_on,0,0,4,,,,,,,,,4,,,66,44
445920,note_off,240,0,2,,,,,,,,,2,,,76,0
445920,note_on,113,0,5,,,,,,,,,5,,,35,44
445920,set_tempo,120,1,0,,,,,,625000,,,,,,,
445920,note_on,0,0,2,,,,,,,,,2,,,75,44
445920,note_on,0,0,5,,,,,,,,,5,,,47,44
446076,note_off,156,0,2,,,,,,,,,2,,,75,0
446076,note_off,156,0,4,,,,,,,,,4,,,66,0
446160,note_on,84,0,4,,,,,,,,,4,,,81,52
446160,note_on,84,0,2,,,,,,,,,2,,,87,52
446280,note_off,0,0,5,,,,,,,,,5,,,35,0
446280,note_off,360,0,5,,,,,,,,,5,,,47,0
446400,note_on,0,0,4,,,,,,,,,4,,,79,45
446400,note_on,0,0,5,,,,,,,,,5,,,47,45
446400,note_on,120,0,5,,,,,,,,,5,,,35,45
446400,note_off,240,0,2,,,,,,,,,2,,,87,0
446400,note_on,0,0,2,,,,,,,,,2,,,88,45
446400,note_off,240,0,4,,,,,,,,,4,,,81,0
446556,note_off,156,0,4,,,,,,,,,4,,,79,0
446556,note_off,156,0,2,,,,,,,,,2,,,88,0
446640,note_on,84,0,2,,,,,,,,,2,,,76,52
446640,note_on,84,0,4,,,,,,,,,4,,,67,52
446688,note_off,0,0,5,,,,,,,,,5,,,35,0
446688,note_off,288,0,5,,,,,,,,,5,,,47,0
446760,note_on,0,0,5,,,,,,,,,5,,,47,46
446760,note_on,72,0,5,,,,,,,,,5,,,35,46
446856,note_off,0,0,5,,,,,,,,,5,,,35,0
446856,note_off,96,0,5,,,,,,,,,5,,,47,0
446880,note_on,24,0,5,,,,,,,,,5,,,47,47
446880,note_off,240,0,4,,,,,,,,,4,,,67,0
446880,note_on,0,0,4,,,,,,,,,4,,,66,47
446880,note_on,0,0,5,,,,,,,,,5,,,35,47
446880,note_on,0,0,2,,,,,,,,,2,,,75,47
446880,note_off,240,0,2,,,,,,,,,2,,,76,0
447036,note_off,156,0,4,,,,,,,,,4,,,66,0
447036,note_off,156,0,2,,,,,,,,,2,,,75,0
447120,note_on,84,0,4,,,,,,,,,4,,,71,56
447120,note_on,84,0,2,,,,,,,,,2,,,79,56
447360,note_on,0,0,2,,,,,,,,,2,,,78,50
447360,note_off,240,0,2,,,,,,,,,2,,,79,0
447360,note_off,240,0,4,,,,,,,,,4,,,71,0
447360,note_on,0,0,4,,,,,,,,,4,,,69,50
447600,note_off,240,0,4,,,,,,,,,4,,,69,0
447600,note_on,0,0,2,,,,,,,,,2,,,76,47
447600,note_off,240,0,2,,,,,,,,,2,,,78,0
447600,note_on,0,0,4,,,,,,,,,4,,,67,47
447720,set_tempo,1800,1,0,,,,,,638297,,,,,,,
447727,note_off,847,0,5,,,,,,,,,5,,,35,0
447727,note_off,0,0,5,,,,,,,,,5,,,47,0
447840,note_on,113,0,5,,,,,,,,,5,,,47,50
447840,set_tempo,120,1,0,,,,,,625000,,,,,,,
447840,note_on,0,0,2,,,,,,,,,2,,,75,50
447840,note_off,240,0,2,,,,,,,,,2,,,76,0
447840,note_off,240,0,4,,,,,,,,,4,,,67,0
447840,note_on,0,0,5,,,,,,,,,5,,,35,50
447840,note_on,0,0,4,,,,,,,,,4,,,66,50
447996,note_off,156,0,2,,,,,,,,,2,,,75,0
447996,note_off,156,0,4,,,,,,,,,4,,,66,0
448080,note_on,84,0,2,,,,,,,,,2,,,87,58
448080,note_on,84,0,4,,,,,,,,,4,,,81,58
448200,note_off,360,0,5,,,,,,,,,5,,,35,0
448200,note_off,0,0,5,,,,,,,,,5,,,47,0
448320,note_off,240,0,4,,,,,,,,,4,,,81,0
448320,note_on,120,0,5,,,,,,,,,5,,,47,51
448320,note_on,0,0,2,,,,,,,,,2,,,88,51
448320,note_on,0,0,5,,,,,,,,,5,,,35,51
448320,note_on,0,0,4,,,,,,,,,4,,,79,51
448320,note_off,240,0,2,,,,,,,,,2,,,87,0
448476,note_off,156,0,2,,,,,,,,,2,,,88,0
448476,note_off,156,0,4,,,,,,,,,4,,,79,0
448560,note_on,84,0,2,,,,,,,,,2,,,76,60
448560,note_on,84,0,4,,,,,,,,,4,,,67,60
448608,note_off,288,0,5,,,,,,,,,5,,,35,0
448608,note_off,0,0,5,,,,,,,,,5,,,47,0
448680,note_on,72,0,5,,,,,,,,,5,,,47,52
448680,note_on,0,0,5,,,,,,,,,5,,,35,52
448776,note_off,96,0,5,,,,,,,,,5,,,35,0
448776,note_off,0,0,5,,,,,,,,,5,,,47,0
448800,note_on,0,0,5,,,,,,,,,5,,,47,52
448800,note_off,240,0,2,,,,,,,,,2,,,76,0
448800,note_on,24,0,5,,,,,,,,,5,,,35,52
448800,note_on,0,0,2,,,,,,,,,2,,,75,52
448800,note_on,0,0,4,,,,,,,,,4,,,66,52
448800,note_off,240,0,4,,,,,,,,,4,,,67,0
448956,note_off,156,0,4,,,,,,,,,4,,,66,0
448956,note_off,156,0,2,,,,,,,,,2,,,75,0
449040,note_on,0,0,4,,,,,,,,,4,,,55,68
449040,note_on,84,0,2,,,,,,,,,2,,,71,68
449040,note_on,84,0,4,,,,,,,,,4,,,67,68
449280,note_off,240,0,2,,,,,,,,,2,,,71,0
449280,note_on,0,0,2,,,,,,,,,2,,,69,62
449280,note_on,0,0,4,,,,,,,,,4,,,57,62
449280,note_on,0,0,4,,,,,,,,,4,,,66,62
449280,note_off,0,0,4,,,,,,,,,4,,,67,0
449280,note_off,240,0,4,,,,,,,,,4,,,55,0
449520,note_on,0,0,4,,,,,,,,,4,,,64,59
449520,note_on,0,0,2,,,,,,,,,2,,,67,59
449520,note_off,240,0,2,,,,,,,,,2,,,69,0
449520,note_on,0,0,4,,,,,,,,,4,,,58,59
449520,note_off,240,0,4,,,,,,,,,4,,,57,0
449520,note_off,0,0,4,,,,,,,,,4,,,66,0
449640,set_tempo,1800,1,0,,,,,,638297,,,,,,,
449647,note_off,847,0,5,,,,,,,,,5,,,47,0
449647,note_off,0,0,5,,,,,,,,,5,,,35,0
449760,set_tempo,120,1,0,,,,,,625000,,,,,,,
449760,note_off,240,0,2,,,,,,,,,2,,,67,0
449760,note_on,0,0,2,,,,,,,,,2,,,66,56
449760,note_on,113,0,5,,,,,,,,,5,,,47,56
449760,note_on,0,0,4,,,,,,,,,4,,,63,56
449760,note_off,240,0,4,,,,,,,,,4,,,58,0
449760,note_on,0,0,4,,,,,,,,,4,,,59,56
449760,note_off,0,0,4,,,,,,,,,4,,,64,0
449916,note_off,156,0,2,,,,,,,,,2,,,66,0
449916,note_off,0,0,4,,,,,,,,,4,,,63,0
449916,note_off,156,0,4,,,,,,,,,4,,,59,0
450000,note_on,0,0,4,,,,,,,,,4,,,55,72
450000,note_on,84,0,2,,,,,,,,,2,,,71,72
450000,note_on,84,0,4,,,,,,,,,4,,,67,72
450240,note_off,240,0,2,,,,,,,,,2,,,71,0
450240,note_on,0,0,2,,,,,,,,,2,,,69,66
450240,note_off,240,0,4,,,,,,,,,4,,,55,0
450240,note_on,0,0,4,,,,,,,,,4,,,66,66
450240,note_on,0,0,4,,,,,,,,,4,,,57,66
450240,note_off,0,0,4,,,,,,,,,4,,,67,0
450480,note_on,0,0,2,,,,,,,,,2,,,67,64
450480,note_off,240,0,2,,,,,,,,,2,,,69,0
450480,note_off,240,0,4,,,,,,,,,4,,,57,0
450480,note_on,0,0,4,,,,,,,,,4,,,64,64
450480,note_on,0,0,4,,,,,,,,,4,,,58,64
450480,note_off,0,0,4,,,,,,,,,4,,,66,0
450600,set_tempo,840,1,0,,,,,,638297,,,,,,,
450720,note_off,240,0,2,,,,,,,,,2,,,67,0
450720,note_off,240,0,4,,,,,,,,,4,,,58,0
450720,note_off,0,0,4,,,,,,,,,4,,,64,0
450720,note_on,0,0,4,,,,,,,,,4,,,63,62
450720,note_on,0,0,4,,,,,,,,,4,,,59,62
450720,set_tempo,120,1,0,,,,,,625000,,,,,,,
450720,note_on,0,0,2,,,,,,,,,2,,,66,62
450876,note_off,156,0,2,,,,,,,,,2,,,66,0
450876,note_off,156,0,4,,,,,,,,,4,,,63,0
450960,note_on,0,0,4,,,,,,,,,4,,,69,78
450960,note_on,84,0,4,,,,,,,,,4,,,66,78
450960,note_on,84,0,2,,,,,,,,,2,,,75,78
451200,note_off,240,0,4,,,,,,,,,4,,,69,0
451200,note_off,0,0,4,,,,,,,,,4,,,66,0
451200,note_on,0,0,4,,,,,,,,,4,,,67,73
451200,note_on,0,0,4,,,,,,,,,4,,,70,73
451440,note_off,240,0,4,,,,,,,,,4,,,70,0
451440,note_off,0,0,4,,,,,,,,,4,,,67,0
451440,note_on,0,0,4,,,,,,,,,4,,,68,72
451440,note_on,0,0,4,,,,,,,,,4,,,71,72
451440,note_off,480,0,2,,,,,,,,,2,,,75,0
451440,note_on,0,0,2,,,,,,,,,2,,,75,72
451575,note_off,1815,0,5,,,,,,,,,5,,,47,0
451680,note_off,0,0,4,,,,,,,,,4,,,68,0
451680,set_tempo,960,1,0,,,,,,618556,,,,,,,
451680,note_on,0,0,4,,,,,,,,,4,,,59,70
451680,note_on,0,0,4,,,,,,,,,4,,,72,70
451680,note_on,0,0,4,,,,,,,,,4,,,69,70
451680,note_off,0,0,4,,,,,,,,,4,,,59,0
451680,note_on,105,0,5,,,,,,,,,5,,,47,70
451680,note_off,240,0,4,,,,,,,,,4,,,71,0
451830,note_off,390,0,2,,,,,,,,,2,,,75,0
451836,note_off,156,0,4,,,,,,,,,4,,,72,0
451836,note_off,0,0,4,,,,,,,,,4,,,69,0
451920,note_on,90,0,2,,,,,,,,,2,,,75,84
451920,note_on,84,0,4,,,,,,,,,4,,,66,84
451920,note_on,0,0,4,,,,,,,,,4,,,69,84
452160,note_on,0,0,4,,,,,,,,,4,,,70,79
452160,note_off,0,0,4,,,,,,,,,4,,,66,0
452160,note_on,0,0,4,,,,,,,,,4,,,67,79
452160,note_off,240,0,4,,,,,,,,,4,,,69,0
452400,note_on,0,0,4,,,,,,,,,4,,,68,78
452400,note_off,480,0,2,,,,,,,,,2,,,75,0
452400,note_on,0,0,2,,,,,,,,,2,,,75,78
452400,note_on,0,0,4,,,,,,,,,4,,,71,78
452400,note_off,0,0,4,,,,,,,,,4,,,67,0
452400,note_off,240,0,4,,,,,,,,,4,,,70,0
452520,note_off,840,0,5,,,,,,,,,5,,,47,0
452527,note_off,127,0,4,,,,,,,,,4,,,59,0
452640,note_off,113,0,4,,,,,,,,,4,,,71,0
452640,set_tempo,960,1,0,,,,,,612244,,,,,,,
452640,note_on,0,0,4,,,,,,,,,4,,,72,76
452640,note_on,0,0,4,,,,,,,,,4,,,69,76
452640,note_off,0,0,4,,,,,,,,,4,,,68,0
452640,note_on,0,0,4,,,,,,,,,4,,,59,76
452640,note_on,120,0,5,,,,,,,,,5,,,47,76
452796,note_off,156,0,4,,,,,,,,,4,,,72,0
452796,note_off,0,0,4,,,,,,,,,4,,,69,0
452797,note_off,397,0,2,,,,,,,,,2,,,75,0
452880,note_on,83,0,2,,,,,,,,,2,,,75,88
452880,note_on,84,0,4,,,,,,,,,4,,,69,88
452880,note_on,0,0,4,,,,,,,,,4,,,72,88
453120,note_off,240,0,4,,,,,,,,,4,,,72,0
453120,note_on,0,0,4,,,,,,,,,4,,,71,82
453270,note_off,390,0,2,,,,,,,,,2,,,75,0
453270,note_off,150,0,4,,,,,,,,,4,,,69,0
453276,note_off,6,0,4,,,,,,,,,4,,,71,0
453360,note_on,90,0,2,,,,,,,,,2,,,75,93
453360,note_on,0,0,4,,,,,,,,,4,,,72,93
453360,note_on,84,0,4,,,,,,,,,4,,,69,93
453487,note_off,127,0,4,,,,,,,,,4,,,59,0
453487,note_off,847,0,5,,,,,,,,,5,,,47,0
453600,note_on,113,0,5,,,,,,,,,5,,,47,86
453600,set_tempo,960,1,0,,,,,,606060,,,,,,,
453600,note_on,0,0,4,,,,,,,,,4,,,71,86
453600,note_on,0,0,4,,,,,,,,,4,,,59,86
453600,note_off,113,0,4,,,,,,,,,4,,,72,0
453756,note_off,156,0,4,,,,,,,,,4,,,71,0
453757,note_off,1,0,4,,,,,,,,,4,,,69,0
453757,note_off,397,0,2,,,,,,,,,2,,,75,0
453840,note_on,83,0,4,,,,,,,,,4,,,69,97
453840,note_on,0,0,4,,,,,,,,,4,,,72,97
453840,note_on,83,0,2,,,,,,,,,2,,,75,97
453960,note_off,120,0,4,,,,,,,,,4,,,59,0
453960,note_off,360,0,5,,,,,,,,,5,,,47,0
454080,note_off,120,0,4,,,,,,,,,4,,,72,0
454080,note_on,0,0,4,,,,,,,,,4,,,59,93
454080,set_tempo,480,1,0,,,,,,600000,,,,,,,
454080,note_on,120,0,5,,,,,,,,,5,,,47,93
454080,note_on,0,0,4,,,,,,,,,4,,,71,93
454236,note_off,156,0,4,,,,,,,,,4,,,71,0
454237,note_off,397,0,2,,,,,,,,,2,,,75,0
454252,note_off,16,0,4,,,,,,,,,4,,,69,0
454320,note_on,0,0,4,,,,,,,,,4,,,72,102
454320,note_on,68,0,4,,,,,,,,,4,,,69,102
454320,note_on,83,0,2,,,,,,,,,2,,,75,102
454440,set_tempo,360,1,0,,,,,,625000,,,,,,,
454440,note_off,360,0,5,,,,,,,,,5,,,47,0
454440,note_off,120,0,4,,,,,,,,,4,,,59,0
454560,note_off,120,0,4,,,,,,,,,4,,,72,0
454560,set_tempo,120,1,0,,,,,,659340,,,,,,,
454560,note_on,120,0,5,,,,,,,,,5,,,47,97
454560,note_on,0,0,4,,,,,,,,,4,,,59,97
454560,note_on,0,0,4,,,,,,,,,4,,,71,97
454680,set_tempo,120,1,0,,,,,,638297,,,,,,,
454710,note_off,390,0,2,,,,,,,,,2,,,75,0
454716,note_off,156,0,4,,,,,,,,,4,,,71,0
454725,note_off,9,0,4,,,,,,,,,4,,,69,0
454800,note_on,90,0,2,,,,,,,,,2,,,72,79
454920,note_off,195,0,4,,,,,,,,,4,,,59,0
454920,note_off,360,0,5,,,,,,,,,5,,,47,0
455040,note_on,0,0,2,,,,,,,,,2,,,71,65
455040,note_off,240,0,2,,,,,,,,,2,,,72,0
455196,note_off,156,0,2,,,,,,,,,2,,,71,0
455280,note_on,84,0,2,,,,,,,,,2,,,72,65
455520,note_on,0,0,2,,,,,,,,,2,,,71,54
455520,note_off,240,0,2,,,,,,,,,2,,,72,0
455676,note_off,156,0,2,,,,,,,,,2,,,71,0
455760,note_on,84,0,2,,,,,,,,,2,,,72,56
456000,note_off,240,0,2,,,,,,,,,2,,,72,0
456000,note_on,0,0,2,,,,,,,,,2,,,71,49
456156,note_off,156,0,2,,,,,,,,,2,,,71,0
456240,note_on,84,0,2,,,,,,,,,2,,,70,54
456360,set_tempo,1680,1,0,,,,,,645161,,,,,,,
456480,note_on,0,0,2,,,,,,,,,2,,,71,43
456480,note_off,240,0,2,,,,,,,,,2,,,70,0
456636,note_off,156,0,2,,,,,,,,,2,,,71,0
456720,note_on,84,0,2,,,,,,,,,2,,,70,48
456960,note_off,240,0,2,,,,,,,,,2,,,70,0
456960,note_on,0,0,2,,,,,,,,,2,,,71,38
457116,note_off,156,0,2,,,,,,,,,2,,,71,0
457200,note_on,84,0,2,,,,,,,,,2,,,70,44
457305,set_tempo,945,1,0,,,,,,652173,,,,,,,
457440,note_off,240,0,2,,,,,,,,,2,,,70,0
457440,note_on,0,0,2,,,,,,,,,2,,,71,33
457596,note_off,156,0,2,,,,,,,,,2,,,71,0
457680,set_tempo,375,1,0,,,,,,674157,,,,,,,
457680,note_on,84,0,2,,,,,,,,,2,,,70,39
457920,note_on,0,0,2,,,,,,,,,2,,,71,28
457920,note_off,240,0,2,,,,,,,,,2,,,70,0
457920,set_tempo,240,1,0,,,,,,967741,,,,,,,
458076,note_off,156,0,2,,,,,,,,,2,,,71,0
458160,note_on,17040,0,1,,,,,,,,,1,,,83,44
458160,note_on,0,0,1,,,,,,,,,1,,,71,44
458170,set_tempo,250,1,0,,,,,,638297,,,,,,,
458400,control_change,17280,0,3,,,,,,,64,0,3,,,,
458400,control_change,3480,0,5,,,,,,,64,0,5,,,,
458400,note_on,0,0,5,,,,,,,,,5,,,52,44
458400,set_tempo,230,1,0,,,,,,625000,,,,,,,
458400,control_change,3480,0,4,,,,,,,64,0,4,,,,
458400,control_change,240,0,1,,,,,,,64,0,1,,,,
458400,control_change,324,0,2,,,,,,,64,0,2,,,,
458640,note_on,240,0,3,,,,,,,,,3,,,68,45
458640,note_on,0,0,3,,,,,,,,,3,,,64,45
458760,note_off,360,0,5,,,,,,,,,5,,,52,0
458760,note_off,120,0,3,,,,,,,,,3,,,64,0
458760,note_off,0,0,3,,,,,,,,,3,,,68,0
458760,note_on,0,0,3,,,,,,,,,3,,,66,45
458760,note_on,0,0,3,,,,,,,,,3,,,69,45
458880,note_on,0,0,3,,,,,,,,,3,,,71,46
458880,note_off,120,0,3,,,,,,,,,3,,,69,0
458880,note_off,0,0,3,,,,,,,,,3,,,66,0
458880,note_on,0,0,3,,,,,,,,,3,,,68,46
458880,note_off,480,0,1,,,,,,,,,1,,,71,0
459036,note_off,0,0,3,,,,,,,,,3,,,71,0
459036,note_off,156,0,3,,,,,,,,,3,,,68,0
459120,note_on,0,0,1,,,,,,,,,1,,,76,47
459120,note_off,240,0,1,,,,,,,,,1,,,83,0
459120,note_on,0,0,3,,,,,,,,,3,,,64,47
459120,note_on,84,0,3,,,,,,,,,3,,,68,47
459120,note_on,0,0,1,,,,,,,,,1,,,88,47
459276,note_off,0,0,3,,,,,,,,,3,,,68,0
459276,note_off,156,0,3,,,,,,,,,3,,,64,0
459360,note_on,600,0,5,,,,,,,,,5,,,59,47
459480,note_off,360,0,1,,,,,,,,,1,,,76,0
459480,note_off,0,0,1,,,,,,,,,1,,,88,0
459594,note_off,234,0,5,,,,,,,,,5,,,59,0
459600,note_on,0,0,3,,,,,,,,,3,,,66,48
459600,note_on,324,0,3,,,,,,,,,3,,,60,48
459600,note_on,120,0,1,,,,,,,,,1,,,87,48
459600,note_on,0,0,1,,,,,,,,,1,,,75,48
459600,note_on,0,0,3,,,,,,,,,3,,,69,48
459792,note_off,0,0,1,,,,,,,,,1,,,87,0
459792,note_off,192,0,1,,,,,,,,,1,,,75,0
459840,note_off,240,0,3,,,,,,,,,3,,,69,0
459840,note_on,0,0,1,,,,,,,,,1,,,76,49
459840,note_on,0,0,3,,,,,,,,,3,,,64,49
459840,note_on,0,0,3,,,,,,,,,3,,,61,49
459840,note_on,0,0,3,,,,,,,,,3,,,68,49
459840,note_off,0,0,3,,,,,,,,,3,,,60,0
459840,note_off,0,0,3,,,,,,,,,3,,,66,0
459840,note_on,48,0,1,,,,,,,,,1,,,88,49
459996,note_off,0,0,3,,,,,,,,,3,,,61,0
459996,note_off,156,0,3,,,,,,,,,3,,,64,0
459996,note_off,0,0,3,,,,,,,,,3,,,68,0
460080,note_on,486,0,5,,,,,,,,,5,,,49,50
460200,note_off,360,0,1,,,,,,,,,1,,,76,0
460200,note_off,0,0,1,,,,,,,,,1,,,88,0
460236,note_off,156,0,5,,,,,,,,,5,,,49,0
460267,set_tempo,1867,1,0,,,,,,638297,,,,,,,
460320,note_on,120,0,1,,,,,,,,,1,,,90,52
460320,set_tempo,53,1,0,,,,,,625000,,,,,,,
460320,note_on,84,0,5,,,,,,,,,5,,,45,52
460320,note_on,0,0,1,,,,,,,,,1,,,78,52
460560,note_on,0,0,3,,,,,,,,,3,,,69,51
460560,note_on,564,0,3,,,,,,,,,3,,,73,51
460680,note_off,0,0,3,,,,,,,,,3,,,73,0
460680,note_off,120,0,3,,,,,,,,,3,,,69,0
460680,note_on,0,0,3,,,,,,,,,3,,,68,50
460680,note_off,360,0,5,,,,,,,,,5,,,45,0
460680,note_on,0,0,3,,,,,,,,,3,,,71,50
460800,note_off,120,0,3,,,,,,,,,3,,,68,0
460800,note_on,0,0,3,,,,,,,,,3,,,66,49
460800,note_off,0,0,3,,,,,,,,,3,,,71,0
460800,note_on,0,0,3,,,,,,,,,3,,,69,49
460956,note_off,0,0,3,,,,,,,,,3,,,66,0
460956,note_off,156,0,3,,,,,,,,,3,,,69,0
461040,note_on,84,0,3,,,,,,,,,3,,,66,48
461040,note_on,0,0,3,,,,,,,,,3,,,64,48
461040,note_on,360,0,5,,,,,,,,,5,,,58,48
461040,note_off,720,0,1,,,,,,,,,1,,,78,0
461040,note_off,0,0,1,,,,,,,,,1,,,90,0
461040,note_on,0,0,1,,,,,,,,,1,,,80,48
461040,note_on,0,0,1,,,,,,,,,1,,,92,48
461196,note_off,156,0,3,,,,,,,,,3,,,64,0
461196,note_off,0,0,3,,,,,,,,,3,,,66,0
461196,note_off,156,0,5,,,,,,,,,5,,,58,0
461232,note_off,192,0,1,,,,,,,,,1,,,92,0
461232,note_off,0,0,1,,,,,,,,,1,,,80,0
461280,note_on,0,0,1,,,,,,,,,1,,,92,51
461280,note_on,48,0,1,,,,,,,,,1,,,80,51
461280,note_on,84,0,5,,,,,,,,,5,,,64,51
461520,note_on,324,0,3,,,,,,,,,3,,,59,49
461640,note_on,0,0,3,,,,,,,,,3,,,58,48
461640,note_off,120,0,3,,,,,,,,,3,,,59,0
461760,note_off,480,0,5,,,,,,,,,5,,,64,0
461760,note_off,480,0,1,,,,,,,,,1,,,92,0
461760,note_off,0,0,1,,,,,,,,,1,,,80,0
461760,note_on,0,0,1,,,,,,,,,1,,,90,46
461760,note_on,0,0,1,,,,,,,,,1,,,78,46
461760,note_on,0,0,3,,,,,,,,,3,,,59,46
461760,note_on,0,0,3,,,,,,,,,3,,,63,46
461760,note_off,120,0,3,,,,,,,,,3,,,58,0
461916,note_off,0,0,3,,,,,,,,,3,,,63,0
461916,note_off,156,0,3,,,,,,,,,3,,,59,0
462000,note_on,240,0,5,,,,,,,,,5,,,47,44
462000,set_tempo,1680,1,0,,,,,,638297,,,,,,,
462120,note_off,360,0,1,,,,,,,,,1,,,90,0
462120,set_tempo,120,1,0,,,,,,659340,,,,,,,
462120,note_off,0,0,1,,,,,,,,,1,,,78,0
462156,note_off,156,0,5,,,,,,,,,5,,,47,0
462240,note_on,84,0,5,,,,,,,,,5,,,40,44
462240,note_on,0,0,1,,,,,,,,,1,,,71,44
462240,note_on,120,0,1,,,,,,,,,1,,,83,44
462240,set_tempo,120,1,0,,,,,,625000,,,,,,,
462480,note_on,564,0,3,,,,,,,,,3,,,64,45
462480,note_on,0,0,3,,,,,,,,,3,,,68,45
462600,note_on,0,0,3,,,,,,,,,3,,,66,45
462600,note_off,0,0,3,,,,,,,,,3,,,64,0
462600,note_off,120,0,3,,,,,,,,,3,,,68,0
462600,note_off,360,0,5,,,,,,,,,5,,,40,0
462600,note_on,0,0,3,,,,,,,,,3,,,69,45
462720,note_off,0,0,3,,,,,,,,,3,,,66,0
462720,note_on,0,0,3,,,,,,,,,3,,,71,46
462720,note_on,0,0,3,,,,,,,,,3,,,68,46
462720,note_off,120,0,3,,,,,,,,,3,,,69,0
462876,note_off,156,0,3,,,,,,,,,3,,,68,0
462876,note_off,0,0,3,,,,,,,,,3,,,71,0
462960,note_on,84,0,3,,,,,,,,,3,,,68,47
462960,note_off,720,0,1,,,,,,,,,1,,,71,0
462960,note_off,0,0,1,,,,,,,,,1,,,83,0
462960,note_on,0,0,1,,,,,,,,,1,,,76,47
462960,note_on,0,0,1,,,,,,,,,1,,,88,47
462960,note_on,0,0,3,,,,,,,,,3,,,64,47
463116,note_off,156,0,3,,,,,,,,,3,,,64,0
463116,note_off,0,0,3,,,,,,,,,3,,,68,0
463200,note_on,600,0,5,,,,,,,,,5,,,59,48
463320,note_off,0,0,1,,,,,,,,,1,,,76,0
463320,note_off,360,0,1,,,,,,,,,1,,,88,0
463434,note_off,234,0,5,,,,,,,,,5,,,59,0
463440,note_on,0,0,1,,,,,,,,,1,,,87,49
463440,note_on,120,0,1,,,,,,,,,1,,,75,49
463440,note_on,324,0,3,,,,,,,,,3,,,66,49
463440,note_on,0,0,3,,,,,,,,,3,,,60,49
463440,note_on,0,0,3,,,,,,,,,3,,,69,49
463632,note_off,192,0,1,,,,,,,,,1,,,87,0
463632,note_off,0,0,1,,,,,,,,,1,,,75,0
463680,note_on,0,0,3,,,,,,,,,3,,,61,50
463680,note_off,240,0,3,,,,,,,,,3,,,69,0
463680,note_off,0,0,3,,,,,,,,,3,,,60,0
463680,note_off,0,0,3,,,,,,,,,3,,,66,0
463680,note_on,0,0,3,,,,,,,,,3,,,64,50
463680,note_on,48,0,1,,,,,,,,,1,,,76,50
463680,note_on,0,0,1,,,,,,,,,1,,,88,50
463680,note_on,0,0,3,,,,,,,,,3,,,68,50
463836,note_off,0,0,3,,,,,,,,,3,,,68,0
463836,note_off,0,0,3,,,,,,,,,3,,,64,0
463836,note_off,156,0,3,,,,,,,,,3,,,61,0
463920,note_on,486,0,5,,,,,,,,,5,,,49,50
464040,note_off,360,0,1,,,,,,,,,1,,,88,0
464040,note_off,0,0,1,,,,,,,,,1,,,76,0
464076,note_off,156,0,5,,,,,,,,,5,,,49,0
464092,set_tempo,1852,1,0,,,,,,638297,,,,,,,
464160,note_on,84,0,5,,,,,,,,,5,,,45,52
464160,set_tempo,68,1,0,,,,,,625000,,,,,,,
464160,note_on,120,0,1,,,,,,,,,1,,,90,52
464160,note_on,0,0,1,,,,,,,,,1,,,78,52
464400,note_on,0,0,3,,,,,,,,,3,,,69,50
464400,note_on,564,0,3,,,,,,,,,3,,,73,50
464520,note_off,360,0,5,,,,,,,,,5,,,45,0
464520,note_off,120,0,3,,,,,,,,,3,,,69,0
464520,note_on,0,0,3,,,,,,,,,3,,,68,49
464520,note_on,0,0,3,,,,,,,,,3,,,71,49
464520,note_off,0,0,3,,,,,,,,,3,,,73,0
464640,note_on,0,0,3,,,,,,,,,3,,,66,49
464640,note_on,0,0,3,,,,,,,,,3,,,69,49
464640,note_off,0,0,3,,,,,,,,,3,,,71,0
464640,note_off,120,0,3,,,,,,,,,3,,,68,0
464796,note_off,156,0,3,,,,,,,,,3,,,69,0
464796,note_off,0,0,3,,,,,,,,,3,,,66,0
464880,note_on,0,0,1,,,,,,,,,1,,,80,48
464880,note_on,0,0,1,,,,,,,,,1,,,92,48
464880,note_off,0,0,1,,,,,,,,,1,,,90,0
464880,note_on,0,0,3,,,,,,,,,3,,,63,48
464880,note_off,720,0,1,,,,,,,,,1,,,78,0
464880,note_on,84,0,3,,,,,,,,,3,,,66,48
464880,note_on,360,0,5,,,,,,,,,5,,,59,48
464976,note_off,96,0,1,,,,,,,,,1,,,80,0
464976,note_off,0,0,1,,,,,,,,,1,,,92,0
465000,note_on,24,0,1,,,,,,,,,1,,,81,47
465000,note_on,0,0,1,,,,,,,,,1,,,93,47
465036,note_off,156,0,5,,,,,,,,,5,,,59,0
465036,note_off,156,0,3,,,,,,,,,3,,,63,0
465036,note_off,0,0,3,,,,,,,,,3,,,66,0
465080,set_tempo,920,1,0,,,,,,631578,,,,,,,
465096,note_off,0,0,1,,,,,,,,,1,,,81,0
465096,note_off,96,0,1,,,,,,,,,1,,,93,0
465120,note_on,84,0,5,,,,,,,,,5,,,52,51
465120,note_on,0,0,1,,,,,,,,,1,,,81,51
465120,note_on,24,0,1,,,,,,,,,1,,,93,51
465120,set_tempo,40,1,0,,,,,,625000,,,,,,,
465360,note_on,324,0,3,,,,,,,,,3,,,59,48
465480,note_on,120,0,3,,,,,,,,,3,,,63,47
465600,note_on,0,0,1,,,,,,,,,1,,,80,45
465600,note_off,0,0,1,,,,,,,,,1,,,93,0
465600,note_off,120,0,3,,,,,,,,,3,,,63,0
465600,note_on,0,0,3,,,,,,,,,3,,,64,45
465600,note_on,0,0,1,,,,,,,,,1,,,92,45
465600,note_off,480,0,1,,,,,,,,,1,,,81,0
465840,set_tempo,720,1,0,,,,,,638297,,,,,,,
465960,note_off,360,0,1,,,,,,,,,1,,,92,0
465960,note_off,0,0,1,,,,,,,,,1,,,80,0
465960,set_tempo,120,1,0,,,,,,659340,,,,,,,
465960,note_off,360,0,3,,,,,,,,,3,,,64,0
465960,note_off,0,0,3,,,,,,,,,3,,,59,0
465982,note_off,862,0,5,,,,,,,,,5,,,52,0
466080,control_change,120,0,3,,,,,,,64,0,3,,,,
466080,note_on,0,0,5,,,,,,,,,5,,,56,50
466080,control_change,7680,0,4,,,,,,,64,0,4,,,,
466080,control_change,120,0,1,,,,,,,64,0,1,,,,
466080,note_on,0,0,1,,,,,,,,,1,,,83,50
466080,control_change,7680,0,2,,,,,,,64,0,2,,,,
466080,set_tempo,120,1,0,,,,,,625000,,,,,,,
466080,note_on,0,0,1,,,,,,,,,1,,,71,50
466080,control_change,98,0,5,,,,,,,64,0,5,,,,
466320,note_on,240,0,3,,,,,,,,,3,,,68,53
466320,note_on,0,0,3,,,,,,,,,3,,,71,53
466440,note_on,0,0,3,,,,,,,,,3,,,66,54
466440,note_on,0,0,3,,,,,,,,,3,,,69,54
466440,note_off,0,0,3,,,,,,,,,3,,,68,0
466440,note_off,120,0,3,,,,,,,,,3,,,71,0
466440,note_off,360,0,5,,,,,,,,,5,,,56,0
466560,note_on,0,0,1,,,,,,,,,1,,,85,58
466560,note_on,0,0,1,,,,,,,,,1,,,73,58
466560,note_off,0,0,1,,,,,,,,,1,,,83,0
466560,note_off,480,0,1,,,,,,,,,1,,,71,0
466560,note_off,120,0,3,,,,,,,,,3,,,66,0
466560,note_off,0,0,3,,,,,,,,,3,,,69,0
466560,note_on,0,0,3,,,,,,,,,3,,,68,58
466560,note_on,0,0,3,,,,,,,,,3,,,65,58
466716,note_off,156,0,3,,,,,,,,,3,,,65,0
466716,note_off,0,0,3,,,,,,,,,3,,,68,0
466800,note_on,84,0,3,,,,,,,,,3,,,61,53
466920,note_off,360,0,1,,,,,,,,,1,,,85,0
466920,note_off,0,0,1,,,,,,,,,1,,,73,0
466956,note_off,156,0,3,,,,,,,,,3,,,61,0
467040,note_on,600,0,5,,,,,,,,,5,,,54,51
467040,note_on,120,0,1,,,,,,,,,1,,,83,51
467040,note_on,0,0,1,,,,,,,,,1,,,71,51
467232,note_off,192,0,1,,,,,,,,,1,,,71,0
467232,note_off,0,0,1,,,,,,,,,1,,,83,0
467280,note_on,48,0,1,,,,,,,,,1,,,81,48
467280,note_on,0,0,1,,,,,,,,,1,,,69,48
467280,note_on,324,0,3,,,,,,,,,3,,,66,48
467400,note_off,360,0,5,,,,,,,,,5,,,54,0
467400,note_off,120,0,1,,,,,,,,,1,,,69,0
467400,note_on,0,0,3,,,,,,,,,3,,,71,47
467400,note_on,0,0,3,,,,,,,,,3,,,68,47
467400,note_off,120,0,3,,,,,,,,,3,,,66,0
467472,note_off,72,0,1,,,,,,,,,1,,,81,0
467520,note_on,0,0,1,,,,,,,,,1,,,66,46
467520,note_on,48,0,1,,,,,,,,,1,,,78,46
467520,note_on,0,0,3,,,,,,,,,3,,,73,46
467520,note_off,0,0,3,,,,,,,,,3,,,68,0
467520,note_on,0,0,3,,,,,,,,,3,,,69,46
467520,note_off,120,0,3,,,,,,,,,3,,,71,0
467676,note_off,156,0,3,,,,,,,,,3,,,69,0
467676,note_off,0,0,3,,,,,,,,,3,,,73,0
467760,note_on,84,0,3,,,,,,,,,3,,,72,44
467880,note_off,360,0,1,,,,,,,,,1,,,66,0
467880,note_off,0,0,1,,,,,,,,,1,,,78,0
467880,set_tempo,1800,1,0,,,,,,638297,,,,,,,
467916,note_off,156,0,3,,,,,,,,,3,,,72,0
468000,note_on,600,0,5,,,,,,,,,5,,,59,45
468000,note_on,120,0,1,,,,,,,,,1,,,81,45
468000,note_on,0,0,1,,,,,,,,,1,,,69,45
468000,set_tempo,120,1,0,,,,,,625000,,,,,,,
468240,note_on,324,0,3,,,,,,,,,3,,,78,47
468240,note_on,0,0,3,,,,,,,,,3,,,69,47
468240,note_on,0,0,3,,,,,,,,,3,,,71,47
468360,note_on,0,0,3,,,,,,,,,3,,,76,48
468360,note_off,360,0,5,,,,,,,,,5,,,59,0
468360,note_on,0,0,3,,,,,,,,,3,,,68,48
468360,note_off,0,0,3,,,,,,,,,3,,,78,0
468360,note_off,120,0,3,,,,,,,,,3,,,69,0
468480,note_off,0,0,3,,,,,,,,,3,,,71,0
468480,note_on,0,0,3,,,,,,,,,3,,,75,53
468480,note_on,0,0,3,,,,,,,,,3,,,66,53
468480,note_off,0,0,3,,,,,,,,,3,,,68,0
468480,note_off,480,0,1,,,,,,,,,1,,,69,0
468480,note_off,0,0,1,,,,,,,,,1,,,81,0
468480,note_off,120,0,3,,,,,,,,,3,,,76,0
468480,note_on,0,0,1,,,,,,,,,1,,,71,53
468480,note_on,0,0,1,,,,,,,,,1,,,83,53
468636,note_off,0,0,3,,,,,,,,,3,,,75,0
468636,note_off,156,0,3,,,,,,,,,3,,,66,0
468720,note_on,360,0,5,,,,,,,,,5,,,59,50
468840,note_off,360,0,1,,,,,,,,,1,,,71,0
468840,note_off,0,0,1,,,,,,,,,1,,,83,0
468876,note_off,156,0,5,,,,,,,,,5,,,59,0
468960,note_on,84,0,5,,,,,,,,,5,,,56,48
468960,note_on,120,0,1,,,,,,,,,1,,,76,48
468960,note_on,0,0,1,,,,,,,,,1,,,88,48
469200,note_on,0,0,3,,,,,,,,,3,,,64,46
469200,note_on,564,0,3,,,,,,,,,3,,,68,46
469248,note_off,288,0,1,,,,,,,,,1,,,88,0
469248,note_off,0,0,1,,,,,,,,,1,,,76,0
469320,note_off,120,0,3,,,,,,,,,3,,,64,0
469320,note_on,0,0,3,,,,,,,,,3,,,66,45
469320,note_off,0,0,3,,,,,,,,,3,,,68,0
469320,note_on,0,0,3,,,,,,,,,3,,,63,45
469320,note_on,0,0,1,,,,,,,,,1,,,78,45
469320,note_on,72,0,1,,,,,,,,,1,,,90,45
469320,note_off,360,0,5,,,,,,,,,5,,,56,0
469416,note_off,96,0,1,,,,,,,,,1,,,78,0
469416,note_off,0,0,1,,,,,,,,,1,,,90,0
469440,note_on,24,0,1,,,,,,,,,1,,,80,44
469440,note_on,0,0,1,,,,,,,,,1,,,92,44
469440,note_off,120,0,3,,,,,,,,,3,,,63,0
469440,note_on,0,0,3,,,,,,,,,3,,,64,44
469440,note_on,0,0,3,,,,,,,,,3,,,68,44
469440,note_off,0,0,3,,,,,,,,,3,,,66,0
469440,note_on,0,0,3,,,,,,,,,3,,,61,44
469596,note_off,0,0,3,,,,,,,,,3,,,68,0
469596,note_off,0,0,3,,,,,,,,,3,,,64,0
469596,note_off,156,0,3,,,,,,,,,3,,,61,0
469680,note_on,84,0,3,,,,,,,,,3,,,68,42
469800,set_tempo,1800,1,0,,,,,,652173,,,,,,,
469836,note_off,156,0,3,,,,,,,,,3,,,68,0
469920,note_on,0,0,1,,,,,,,,,1,,,90,46
469920,note_on,600,0,5,,,,,,,,,5,,,57,46
469920,set_tempo,120,1,0,,,,,,625000,,,,,,,
469920,note_on,0,0,1,,,,,,,,,1,,,78,46
469920,note_off,0,0,1,,,,,,,,,1,,,80,0
469920,note_off,480,0,1,,,,,,,,,1,,,92,0
470112,note_off,192,0,1,,,,,,,,,1,,,90,0
470112,note_off,0,0,1,,,,,,,,,1,,,78,0
470160,note_on,48,0,1,,,,,,,,,1,,,78,48
470160,note_on,0,0,1,,,,,,,,,1,,,90,48
470160,note_on,324,0,3,,,,,,,,,3,,,73,48
470160,note_on,0,0,3,,,,,,,,,3,,,64,48
470160,note_on,0,0,3,,,,,,,,,3,,,66,48
470280,note_off,360,0,5,,,,,,,,,5,,,57,0
470352,note_off,192,0,1,,,,,,,,,1,,,90,0
470352,note_off,0,0,1,,,,,,,,,1,,,78,0
470400,note_off,240,0,3,,,,,,,,,3,,,64,0
470400,note_on,0,0,1,,,,,,,,,1,,,90,50
470400,note_off,0,0,3,,,,,,,,,3,,,66,0
470400,note_off,0,0,3,,,,,,,,,3,,,73,0
470400,note_on,0,0,3,,,,,,,,,3,,,71,50
470400,note_on,0,0,3,,,,,,,,,3,,,66,50
470400,note_on,0,0,3,,,,,,,,,3,,,63,50
470400,note_on,48,0,1,,,,,,,,,1,,,78,50
470556,note_off,156,0,3,,,,,,,,,3,,,63,0
470556,note_off,0,0,3,,,,,,,,,3,,,66,0
470556,note_off,0,0,3,,,,,,,,,3,,,71,0
470592,note_off,192,0,1,,,,,,,,,1,,,90,0
470592,note_off,0,0,1,,,,,,,,,1,,,78,0
470640,note_on,48,0,1,,,,,,,,,1,,,81,52
470640,note_on,0,0,1,,,,,,,,,1,,,93,52
470640,note_on,360,0,5,,,,,,,,,5,,,59,52
470796,note_off,156,0,5,,,,,,,,,5,,,59,0
470820,note_off,180,0,1,,,,,,,,,1,,,93,0
470820,note_off,0,0,1,,,,,,,,,1,,,81,0
470820,note_on,0,0,1,,,,,,,,,1,,,92,54
470820,note_on,0,0,1,,,,,,,,,1,,,80,54
470868,note_off,48,0,1,,,,,,,,,1,,,80,0
470868,note_off,0,0,1,,,,,,,,,1,,,92,0
470880,note_on,84,0,5,,,,,,,,,5,,,64,54
470880,note_on,12,0,1,,,,,,,,,1,,,92,54
470880,note_on,0,0,1,,,,,,,,,1,,,80,54
471120,note_on,0,0,3,,,,,,,,,3,,,71,57
471120,note_on,564,0,3,,,,,,,,,3,,,68,57
471240,note_off,0,0,3,,,,,,,,,3,,,68,0
471240,note_off,120,0,3,,,,,,,,,3,,,71,0
471240,note_off,360,0,5,,,,,,,,,5,,,64,0
471240,note_on,0,0,3,,,,,,,,,3,,,66,58
471240,note_on,0,0,3,,,,,,,,,3,,,69,58
471360,note_on,0,0,3,,,,,,,,,3,,,64,60
471360,note_on,0,0,3,,,,,,,,,3,,,68,60
471360,note_off,0,0,3,,,,,,,,,3,,,69,0
471360,note_off,120,0,3,,,,,,,,,3,,,66,0
471360,note_on,0,0,1,,,,,,,,,1,,,83,60
471360,note_off,480,0,1,,,,,,,,,1,,,80,0
471360,note_off,0,0,1,,,,,,,,,1,,,92,0
471360,note_on,0,0,1,,,,,,,,,1,,,95,60
471516,note_off,156,0,3,,,,,,,,,3,,,64,0
471516,note_off,0,0,3,,,,,,,,,3,,,68,0
471600,note_on,360,0,5,,,,,,,,,5,,,56,57
471720,set_tempo,1800,1,0,,,,,,652173,,,,,,,
471720,note_off,360,0,1,,,,,,,,,1,,,95,0
471720,note_off,0,0,1,,,,,,,,,1,,,83,0
471756,note_off,156,0,5,,,,,,,,,5,,,56,0
471840,note_on,84,0,5,,,,,,,,,5,,,57,55
471840,note_on,0,0,1,,,,,,,,,1,,,78,55
471840,note_on,120,0,1,,,,,,,,,1,,,90,55
471840,set_tempo,120,1,0,,,,,,625000,,,,,,,
472032,note_off,0,0,1,,,,,,,,,1,,,90,0
472032,note_off,192,0,1,,,,,,,,,1,,,78,0
472080,note_on,0,0,3,,,,,,,,,3,,,66,53
472080,note_on,0,0,1,,,,,,,,,1,,,78,53
472080,note_on,48,0,1,,,,,,,,,1,,,90,53
472080,note_on,0,0,3,,,,,,,,,3,,,64,53
472080,note_on,564,0,3,,,,,,,,,3,,,73,53
472200,note_off,360,0,5,,,,,,,,,5,,,57,0
472272,note_off,0,0,1,,,,,,,,,1,,,90,0
472272,note_off,192,0,1,,,,,,,,,1,,,78,0
472320,note_off,0,0,3,,,,,,,,,3,,,73,0
472320,note_on,0,0,1,,,,,,,,,1,,,78,51
472320,note_off,240,0,3,,,,,,,,,3,,,64,0
472320,note_off,0,0,3,,,,,,,,,3,,,66,0
472320,note_on,0,0,3,,,,,,,,,3,,,71,51
472320,note_on,0,0,3,,,,,,,,,3,,,66,51
472320,note_on,0,0,3,,,,,,,,,3,,,63,51
472320,note_on,48,0,1,,,,,,,,,1,,,90,51
472476,note_off,156,0,3,,,,,,,,,3,,,63,0
472476,note_off,0,0,3,,,,,,,,,3,,,71,0
472476,note_off,0,0,3,,,,,,,,,3,,,66,0
472512,note_off,0,0,1,,,,,,,,,1,,,90,0
472512,note_off,192,0,1,,,,,,,,,1,,,78,0
472560,note_on,48,0,1,,,,,,,,,1,,,93,49
472560,note_on,360,0,5,,,,,,,,,5,,,59,49
472560,note_on,0,0,1,,,,,,,,,1,,,81,49
472716,note_off,156,0,5,,,,,,,,,5,,,59,0
472740,note_on,0,0,1,,,,,,,,,1,,,92,48
472740,note_on,0,0,1,,,,,,,,,1,,,80,48
472740,note_off,0,0,1,,,,,,,,,1,,,93,0
472740,note_off,180,0,1,,,,,,,,,1,,,81,0
472760,set_tempo,920,1,0,,,,,,631578,,,,,,,
472788,note_off,48,0,1,,,,,,,,,1,,,92,0
472788,note_off,0,0,1,,,,,,,,,1,,,80,0
472800,note_on,84,0,5,,,,,,,,,5,,,52,48
472800,set_tempo,40,1,0,,,,,,625000,,,,,,,
472800,note_on,0,0,1,,,,,,,,,1,,,76,48
472800,note_on,12,0,1,,,,,,,,,1,,,88,48
473040,note_on,564,0,3,,,,,,,,,3,,,68,46
473040,note_on,0,0,3,,,,,,,,,3,,,64,46
473160,note_off,0,0,1,,,,,,,,,1,,,88,0
473160,note_off,360,0,5,,,,,,,,,5,,,52,0
473160,note_on,0,0,3,,,,,,,,,3,,,66,45
473160,note_off,360,0,1,,,,,,,,,1,,,76,0
473160,note_on,0,0,3,,,,,,,,,3,,,69,45
473160,note_off,0,0,3,,,,,,,,,3,,,68,0
473160,note_off,120,0,3,,,,,,,,,3,,,64,0
473280,note_on,0,0,3,,,,,,,,,3,,,71,44
473280,note_on,0,0,3,,,,,,,,,3,,,68,44
473280,note_off,0,0,3,,,,,,,,,3,,,69,0
473280,note_off,120,0,3,,,,,,,,,3,,,66,0
473520,note_off,240,0,3,,,,,,,,,3,,,71,0
473520,note_on,0,0,3,,,,,,,,,3,,,68,42
473520,note_off,0,0,3,,,,,,,,,3,,,68,0
473520,note_on,0,0,3,,,,,,,,,3,,,64,42
473520,set_tempo,720,1,0,,,,,,638297,,,,,,,
473640,set_tempo,120,1,0,,,,,,750000,,,,,,,
473676,note_off,0,0,3,,,,,,,,,3,,,64,0
473676,note_off,156,0,3,,,,,,,,,3,,,68,0
473760,control_change,600,0,1,,,,,,,64,0,1,,,,
473760,control_change,84,0,3,,,,,,,64,0,3,,,,
473760,control_change,7680,0,2,,,,,,,64,0,2,,,,
473760,control_change,7680,0,4,,,,,,,64,0,4,,,,
473760,note_on,0,0,1,,,,,,,,,1,,,71,50
473760,set_tempo,120,1,0,,,,,,625000,,,,,,,
473760,note_on,0,0,1,,,,,,,,,1,,,83,50
473760,control_change,600,0,5,,,,,,,64,0,5,,,,
473760,note_on,0,0,5,,,,,,,,,5,,,56,50
474000,note_on,0,0,3,,,,,,,,,3,,,68,53
474000,note_on,240,0,3,,,,,,,,,3,,,71,53
474120,note_on,0,0,3,,,,,,,,,3,,,69,54
474120,note_off,0,0,3,,,,,,,,,3,,,71,0
474120,note_off,360,0,5,,,,,,,,,5,,,56,0
474120,note_on,0,0,3,,,,,,,,,3,,,66,54
474120,note_off,120,0,3,,,,,,,,,3,,,68,0
474240,note_off,480,0,1,,,,,,,,,1,,,83,0
474240,note_on,0,0,3,,,,,,,,,3,,,65,58
474240,note_on,0,0,3,,,,,,,,,3,,,68,58
474240,note_off,0,0,1,,,,,,,,,1,,,71,0
474240,note_off,0,0,3,,,,,,,,,3,,,66,0
474240,note_on,0,0,1,,,,,,,,,1,,,73,58
474240,note_on,0,0,1,,,,,,,,,1,,,85,58
474240,note_off,120,0,3,,,,,,,,,3,,,69,0
474396,note_off,0,0,3,,,,,,,,,3,,,65,0
474396,note_off,156,0,3,,,,,,,,,3,,,68,0
474480,note_on,84,0,3,,,,,,,,,3,,,61,53
474600,note_off,360,0,1,,,,,,,,,1,,,73,0
474600,note_off,0,0,1,,,,,,,,,1,,,85,0
474636,note_off,156,0,3,,,,,,,,,3,,,61,0
474720,note_on,120,0,1,,,,,,,,,1,,,71,51
474720,note_on,0,0,1,,,,,,,,,1,,,83,51
474720,note_on,600,0,5,,,,,,,,,5,,,54,51
474912,note_off,192,0,1,,,,,,,,,1,,,83,0
474912,note_off,0,0,1,,,,,,,,,1,,,71,0
474960,note_on,324,0,3,,,,,,,,,3,,,66,48
474960,note_on,0,0,1,,,,,,,,,1,,,81,48
474960,note_on,48,0,1,,,,,,,,,1,,,69,48
475080,note_off,120,0,3,,,,,,,,,3,,,66,0
475080,note_on,0,0,3,,,,,,,,,3,,,71,47
475080,note_on,0,0,3,,,,,,,,,3,,,68,47
475080,note_off,360,0,5,,,,,,,,,5,,,54,0
475080,note_off,120,0,1,,,,,,,,,1,,,69,0
475152,note_off,72,0,1,,,,,,,,,1,,,81,0
475200,note_on,0,0,3,,,,,,,,,3,,,69,46
475200,note_on,0,0,1,,,,,,,,,1,,,78,46
475200,note_on,48,0,1,,,,,,,,,1,,,66,46
475200,note_off,120,0,3,,,,,,,,,3,,,68,0
475200,note_off,0,0,3,,,,,,,,,3,,,71,0
475200,note_on,0,0,3,,,,,,,,,3,,,73,46
475356,note_off,156,0,3,,,,,,,,,3,,,73,0
475356,note_off,0,0,3,,,,,,,,,3,,,69,0
475440,note_on,84,0,3,,,,,,,,,3,,,72,44
475560,note_off,0,0,1,,,,,,,,,1,,,66,0
475560,set_tempo,1800,1,0,,,,,,638297,,,,,,,
475560,note_off,360,0,1,,,,,,,,,1,,,78,0
475596,note_off,156,0,3,,,,,,,,,3,,,72,0
475680,set_tempo,120,1,0,,,,,,625000,,,,,,,
475680,note_on,0,0,1,,,,,,,,,1,,,81,45
475680,note_on,600,0,5,,,,,,,,,5,,,59,45
475680,note_on,120,0,1,,,,,,,,,1,,,69,45
475920,note_on,0,0,3,,,,,,,,,3,,,78,47
475920,note_on,0,0,3,,,,,,,,,3,,,69,47
475920,note_on,324,0,3,,,,,,,,,3,,,71,47
476040,note_off,0,0,3,,,,,,,,,3,,,69,0
476040,note_off,120,0,3,,,,,,,,,3,,,78,0
476040,note_on,0,0,3,,,,,,,,,3,,,76,48
476040,note_on,0,0,3,,,,,,,,,3,,,68,48
476040,note_off,360,0,5,,,,,,,,,5,,,59,0
476160,note_on,0,0,1,,,,,,,,,1,,,83,53
476160,note_off,0,0,1,,,,,,,,,1,,,69,0
476160,note_on,0,0,3,,,,,,,,,3,,,75,53
476160,note_on,0,0,1,,,,,,,,,1,,,71,53
476160,note_off,480,0,1,,,,,,,,,1,,,81,0
476160,note_off,120,0,3,,,,,,,,,3,,,68,0
476160,note_off,0,0,3,,,,,,,,,3,,,76,0
476160,note_on,0,0,3,,,,,,,,,3,,,66,53
476160,note_off,0,0,3,,,,,,,,,3,,,71,0
476316,note_off,156,0,3,,,,,,,,,3,,,75,0
476316,note_off,0,0,3,,,,,,,,,3,,,66,0
476400,note_on,360,0,5,,,,,,,,,5,,,59,50
476520,note_off,360,0,1,,,,,,,,,1,,,83,0
476520,note_off,0,0,1,,,,,,,,,1,,,71,0
476556,note_off,156,0,5,,,,,,,,,5,,,59,0
476640,note_on,84,0,5,,,,,,,,,5,,,56,48
476640,note_on,120,0,1,,,,,,,,,1,,,88,48
476640,note_on,0,0,1,,,,,,,,,1,,,76,48
476880,note_on,564,0,3,,,,,,,,,3,,,64,46
476880,note_on,0,0,3,,,,,,,,,3,,,68,46
476928,note_off,288,0,1,,,,,,,,,1,,,76,0
476928,note_off,0,0,1,,,,,,,,,1,,,88,0
477000,note_off,120,0,3,,,,,,,,,3,,,68,0
477000,note_on,0,0,3,,,,,,,,,3,,,66,45
477000,note_on,0,0,3,,,,,,,,,3,,,63,45
477000,note_off,0,0,3,,,,,,,,,3,,,64,0
477000,note_on,0,0,1,,,,,,,,,1,,,90,45
477000,note_on,72,0,1,,,,,,,,,1,,,78,45
477000,note_off,360,0,5,,,,,,,,,5,,,56,0
477096,note_off,0,0,1,,,,,,,,,1,,,78,0
477096,note_off,96,0,1,,,,,,,,,1,,,90,0
477120,note_on,24,0,1,,,,,,,,,1,,,92,44
477120,note_on,0,0,3,,,,,,,,,3,,,64,44
477120,note_on,0,0,3,,,,,,,,,3,,,68,44
477120,note_off,0,0,3,,,,,,,,,3,,,63,0
477120,note_off,120,0,3,,,,,,,,,3,,,66,0
477120,note_on,0,0,3,,,,,,,,,3,,,61,44
477120,note_on,0,0,1,,,,,,,,,1,,,80,44
477276,note_off,156,0,3,,,,,,,,,3,,,68,0
477276,note_off,0,0,3,,,,,,,,,3,,,64,0
477276,note_off,0,0,3,,,,,,,,,3,,,61,0
477360,note_on,84,0,3,,,,,,,,,3,,,68,42
477480,set_tempo,1800,1,0,,,,,,652173,,,,,,,
477516,note_off,156,0,3,,,,,,,,,3,,,68,0
477600,note_on,600,0,5,,,,,,,,,5,,,57,46
477600,note_off,480,0,1,,,,,,,,,1,,,80,0
477600,note_off,0,0,1,,,,,,,,,1,,,92,0
477600,note_on,0,0,1,,,,,,,,,1,,,90,46
477600,note_on,0,0,1,,,,,,,,,1,,,78,46
477600,set_tempo,120,1,0,,,,,,625000,,,,,,,
477792,note_off,192,0,1,,,,,,,,,1,,,78,0
477792,note_off,0,0,1,,,,,,,,,1,,,90,0
477840,note_on,324,0,3,,,,,,,,,3,,,64,48
477840,note_on,0,0,3,,,,,,,,,3,,,66,48
477840,note_on,0,0,3,,,,,,,,,3,,,73,48
477840,note_on,48,0,1,,,,,,,,,1,,,90,48
477840,note_on,0,0,1,,,,,,,,,1,,,78,48
477960,note_off,360,0,5,,,,,,,,,5,,,57,0
478032,note_off,192,0,1,,,,,,,,,1,,,78,0
478032,note_off,0,0,1,,,,,,,,,1,,,90,0
478080,note_on,0,0,1,,,,,,,,,1,,,78,50
478080,note_off,0,0,3,,,,,,,,,3,,,66,0
478080,note_off,0,0,3,,,,,,,,,3,,,64,0
478080,note_on,0,0,3,,,,,,,,,3,,,63,50
478080,note_on,0,0,3,,,,,,,,,3,,,66,50
478080,note_on,0,0,3,,,,,,,,,3,,,71,50
478080,note_off,240,0,3,,,,,,,,,3,,,73,0
478080,note_on,48,0,1,,,,,,,,,1,,,90,50
478236,note_off,156,0,3,,,,,,,,,3,,,71,0
478236,note_off,0,0,3,,,,,,,,,3,,,66,0
478236,note_off,0,0,3,,,,,,,,,3,,,63,0
478272,note_off,192,0,1,,,,,,,,,1,,,78,0
478272,note_off,0,0,1,,,,,,,,,1,,,90,0
478320,note_on,360,0,5,,,,,,,,,5,,,59,52
478320,note_on,48,0,1,,,,,,,,,1,,,93,52
478320,note_on,0,0,1,,,,,,,,,1,,,81,52
478476,note_off,156,0,5,,,,,,,,,5,,,59,0
478500,note_on,0,0,1,,,,,,,,,1,,,80,54
478500,note_on,0,0,1,,,,,,,,,1,,,92,54
478500,note_off,180,0,1,,,,,,,,,1,,,81,0
478500,note_off,0,0,1,,,,,,,,,1,,,93,0
478548,note_off,0,0,1,,,,,,,,,1,,,80,0
478548,note_off,48,0,1,,,,,,,,,1,,,92,0
478560,note_on,12,0,1,,,,,,,,,1,,,80,54
478560,note_on,84,0,5,,,,,,,,,5,,,64,54
478560,note_on,0,0,1,,,,,,,,,1,,,92,54
478800,note_on,564,0,3,,,,,,,,,3,,,71,57
478800,note_on,0,0,3,,,,,,,,,3,,,68,57
478920,note_off,120,0,3,,,,,,,,,3,,,68,0
478920,note_off,0,0,3,,,,,,,,,3,,,71,0
478920,note_on,0,0,3,,,,,,,,,3,,,66,58
478920,note_on,0,0,3,,,,,,,,,3,,,69,58
478920,note_off,360,0,5,,,,,,,,,5,,,64,0
479040,note_off,120,0,3,,,,,,,,,3,,,69,0
479040,note_on,0,0,3,,,,,,,,,3,,,64,60
479040,note_on,0,0,3,,,,,,,,,3,,,68,60
479040,note_off,0,0,3,,,,,,,,,3,,,66,0
479040,note_on,0,0,1,,,,,,,,,1,,,83,60
479040,note_on,0,0,1,,,,,,,,,1,,,95,60
479040,note_off,0,0,1,,,,,,,,,1,,,80,0
479040,note_off,480,0,1,,,,,,,,,1,,,92,0
479196,note_off,156,0,3,,,,,,,,,3,,,68,0
479196,note_off,0,0,3,,,,,,,,,3,,,64,0
479280,note_on,360,0,5,,,,,,,,,5,,,56,57
479400,set_tempo,1800,1,0,,,,,,652173,,,,,,,
479400,note_off,360,0,1,,,,,,,,,1,,,83,0
479400,note_off,0,0,1,,,,,,,,,1,,,95,0
479436,note_off,156,0,5,,,,,,,,,5,,,56,0
479520,note_on,120,0,1,,,,,,,,,1,,,78,55
479520,note_on,84,0,5,,,,,,,,,5,,,57,55
479520,note_on,0,0,1,,,,,,,,,1,,,90,55
479520,set_tempo,120,1,0,,,,,,625000,,,,,,,
479712,note_off,192,0,1,,,,,,,,,1,,,90,0
479712,note_off,0,0,1,,,,,,,,,1,,,78,0
479760,note_on,48,0,1,,,,,,,,,1,,,78,53
479760,note_on,0,0,1,,,,,,,,,1,,,90,53
479760,note_on,0,0,3,,,,,,,,,3,,,73,53
479760,note_on,0,0,3,,,,,,,,,3,,,66,53
479760,note_on,564,0,3,,,,,,,,,3,,,64,53
479880,note_off,360,0,5,,,,,,,,,5,,,57,0
479952,note_off,0,0,1,,,,,,,,,1,,,78,0
479952,note_off,192,0,1,,,,,,,,,1,,,90,0
480000,note_off,0,0,3,,,,,,,,,3,,,64,0
480000,note_on,0,0,3,,,,,,,,,3,,,63,51
480000,note_on,0,0,3,,,,,,,,,3,,,66,51
480000,note_on,0,0,3,,,,,,,,,3,,,71,51
480000,note_on,48,0,1,,,,,,,,,1,,,78,51
480000,note_on,0,0,1,,,,,,,,,1,,,90,51
480000,note_off,240,0,3,,,,,,,,,3,,,73,0
480000,note_off,0,0,3,,,,,,,,,3,,,66,0
480156,note_off,156,0,3,,,,,,,,,3,,,71,0
480156,note_off,0,0,3,,,,,,,,,3,,,66,0
480156,note_off,0,0,3,,,,,,,,,3,,,63,0
480192,note_off,0,0,1,,,,,,,,,1,,,78,0
480192,note_off,192,0,1,,,,,,,,,1,,,90,0
480240,note_on,0,0,1,,,,,,,,,1,,,93,49
480240,note_on,48,0,1,,,,,,,,,1,,,81,49
480240,note_on,360,0,5,,,,,,,,,5,,,59,49
480396,note_off,156,0,5,,,,,,,,,5,,,59,0
480420,note_on,0,0,1,,,,,,,,,1,,,80,48
480420,note_off,180,0,1,,,,,,,,,1,,,93,0
480420,note_on,0,0,1,,,,,,,,,1,,,92,48
480420,note_off,0,0,1,,,,,,,,,1,,,81,0
480440,set_tempo,920,1,0,,,,,,631578,,,,,,,
480468,note_off,0,0,1,,,,,,,,,1,,,92,0
480468,note_off,48,0,1,,,,,,,,,1,,,80,0
480480,set_tempo,40,1,0,,,,,,625000,,,,,,,
480480,note_on,0,0,1,,,,,,,,,1,,,88,48
480480,note_on,84,0,5,,,,,,,,,5,,,52,48
480480,note_on,12,0,1,,,,,,,,,1,,,76,48
480720,note_on,0,0,3,,,,,,,,,3,,,68,46
480720,note_on,564,0,3,,,,,,,,,3,,,64,46
480840,note_off,360,0,5,,,,,,,,,5,,,52,0
480840,note_on,0,0,3,,,,,,,,,3,,,69,45
480840,note_on,0,0,3,,,,,,,,,3,,,66,45
480840,note_off,0,0,3,,,,,,,,,3,,,64,0
480840,note_off,120,0,3,,,,,,,,,3,,,68,0
480840,note_off,0,0,1,,,,,,,,,1,,,76,0
480840,note_off,360,0,1,,,,,,,,,1,,,88,0
480960,note_off,0,0,3,,,,,,,,,3,,,66,0
480960,note_on,0,0,3,,,,,,,,,3,,,71,44
480960,note_on,0,0,3,,,,,,,,,3,,,68,44
480960,note_off,120,0,3,,,,,,,,,3,,,69,0
481200,note_on,0,0,3,,,,,,,,,3,,,64,42
481200,note_off,240,0,3,,,,,,,,,3,,,68,0
481200,note_off,0,0,3,,,,,,,,,3,,,71,0
481200,set_tempo,720,1,0,,,,,,638297,,,,,,,
481200,note_on,0,0,3,,,,,,,,,3,,,68,42
481320,set_tempo,120,1,0,,,,,,789473,,,,,,,
481356,note_off,0,0,3,,,,,,,,,3,,,68,0
481356,note_off,156,0,3,,,,,,,,,3,,,64,0
481440,set_tempo,120,1,0,,,,,,625000,,,,,,,
481440,control_change,7680,0,4,,,,,,,64,0,4,,,,
481440,note_on,0,0,5,,,,,,,,,5,,,45,44
481440,control_change,600,0,5,,,,,,,64,0,5,,,,
481440,control_change,600,0,1,,,,,,,64,0,1,,,,
481440,note_on,0,0,1,,,,,,,,,1,,,85,44
481440,control_change,7680,0,2,,,,,,,64,0,2,,,,
481440,control_change,84,0,3,,,,,,,64,0,3,,,,
481440,note_on,0,0,1,,,,,,,,,1,,,73,44
481596,note_off,156,0,5,,,,,,,,,5,,,45,0
481632,note_off,0,0,1,,,,,,,,,1,,,73,0
481632,note_off,192,0,1,,,,,,,,,1,,,85,0
481680,note_on,0,0,1,,,,,,,,,1,,,85,45
481680,note_on,0,0,3,,,,,,,,,3,,,64,45
481680,note_on,48,0,1,,,,,,,,,1,,,73,45
481680,note_on,240,0,3,,,,,,,,,3,,,57,45
481836,note_off,156,0,3,,,,,,,,,3,,,64,0
481836,note_off,0,0,3,,,,,,,,,3,,,57,0
481872,note_off,192,0,1,,,,,,,,,1,,,85,0
481872,note_off,0,0,1,,,,,,,,,1,,,73,0
481920,note_on,48,0,1,,,,,,,,,1,,,73,46
481920,note_on,0,0,1,,,,,,,,,1,,,85,46
481920,note_on,324,0,5,,,,,,,,,5,,,45,46
482076,note_off,156,0,5,,,,,,,,,5,,,45,0
482112,note_off,0,0,1,,,,,,,,,1,,,73,0
482112,note_off,192,0,1,,,,,,,,,1,,,85,0
482160,note_on,0,0,3,,,,,,,,,3,,,59,48
482160,note_on,324,0,3,,,,,,,,,3,,,57,48
482160,note_on,48,0,1,,,,,,,,,1,,,75,48
482160,note_on,0,0,1,,,,,,,,,1,,,87,48
482160,note_on,0,0,3,,,,,,,,,3,,,66,48
482316,note_off,156,0,3,,,,,,,,,3,,,59,0
482316,note_off,0,0,3,,,,,,,,,3,,,66,0
482316,note_off,0,0,3,,,,,,,,,3,,,57,0
482340,note_off,180,0,1,,,,,,,,,1,,,87,0
482340,note_on,0,0,1,,,,,,,,,1,,,88,49
482340,note_off,0,0,1,,,,,,,,,1,,,75,0
482340,note_on,0,0,1,,,,,,,,,1,,,76,49
482388,note_off,0,0,1,,,,,,,,,1,,,76,0
482388,note_off,48,0,1,,,,,,,,,1,,,88,0
482400,note_on,324,0,5,,,,,,,,,5,,,44,49
482400,note_on,0,0,1,,,,,,,,,1,,,88,49
482400,note_on,12,0,1,,,,,,,,,1,,,76,49
482556,note_off,156,0,5,,,,,,,,,5,,,44,0
482640,note_on,0,0,3,,,,,,,,,3,,,59,50
482640,note_on,324,0,3,,,,,,,,,3,,,64,50
482640,note_on,0,0,3,,,,,,,,,3,,,56,50
482796,note_off,0,0,3,,,,,,,,,3,,,56,0
482796,note_off,156,0,3,,,,,,,,,3,,,59,0
482796,note_off,0,0,3,,,,,,,,,3,,,64,0
482880,note_off,480,0,1,,,,,,,,,1,,,88,0
482880,note_off,0,0,1,,,,,,,,,1,,,76,0
482880,note_on,0,0,1,,,,,,,,,1,,,80,54
482880,note_on,324,0,5,,,,,,,,,5,,,40,54
482880,note_on,0,0,1,,,,,,,,,1,,,92,54
483036,note_off,156,0,5,,,,,,,,,5,,,40,0
483120,note_on,324,0,3,,,,,,,,,3,,,56,51
483120,note_on,0,0,3,,,,,,,,,3,,,64,51
483120,note_on,0,0,3,,,,,,,,,3,,,59,51
483240,note_off,0,0,1,,,,,,,,,1,,,80,0
483240,note_off,360,0,1,,,,,,,,,1,,,92,0
483240,set_tempo,1800,1,0,,,,,,638297,,,,,,,
483276,note_off,156,0,3,,,,,,,,,3,,,59,0
483276,note_off,0,0,3,,,,,,,,,3,,,64,0
483276,note_off,0,0,3,,,,,,,,,3,,,56,0
483360,note_on,120,0,1,,,,,,,,,1,,,83,49
483360,set_tempo,120,1,0,,,,,,625000,,,,,,,
483360,note_on,0,0,1,,,,,,,,,1,,,71,49
483360,note_on,324,0,5,,,,,,,,,5,,,47,49
483516,note_off,156,0,5,,,,,,,,,5,,,47,0
483600,note_on,324,0,3,,,,,,,,,3,,,59,48
483600,note_on,0,0,1,,,,,,,,,1,,,81,48
483600,note_off,240,0,1,,,,,,,,,1,,,83,0
483600,note_on,0,0,3,,,,,,,,,3,,,64,48
483756,note_off,156,0,3,,,,,,,,,3,,,64,0
483756,note_off,0,0,3,,,,,,,,,3,,,59,0
483780,note_on,0,0,1,,,,,,,,,1,,,80,46
483780,note_off,180,0,1,,,,,,,,,1,,,81,0
483840,note_on,324,0,5,,,,,,,,,5,,,47,46
483996,note_off,156,0,5,,,,,,,,,5,,,47,0
484080,note_on,0,0,1,,,,,,,,,1,,,69,44
484080,note_off,0,0,1,,,,,,,,,1,,,71,0
484080,note_off,300,0,1,,,,,,,,,1,,,80,0
484080,note_on,0,0,1,,,,,,,,,1,,,78,44
484080,note_on,0,0,3,,,,,,,,,3,,,59,44
484080,note_on,324,0,3,,,,,,,,,3,,,63,44
484236,note_off,156,0,3,,,,,,,,,3,,,59,0
484236,note_off,0,0,3,,,,,,,,,3,,,63,0
484260,note_off,180,0,1,,,,,,,,,1,,,69,0
484260,note_off,0,0,1,,,,,,,,,1,,,78,0
484260,note_on,0,0,1,,,,,,,,,1,,,76,42
484260,note_on,0,0,1,,,,,,,,,1,,,68,42
484308,note_off,0,0,1,,,,,,,,,1,,,76,0
484308,note_off,48,0,1,,,,,,,,,1,,,68,0
484320,note_on,0,0,1,,,,,,,,,1,,,68,42
484320,note_on,12,0,1,,,,,,,,,1,,,76,42
484320,note_on,324,0,5,,,,,,,,,5,,,40,42
484476,note_off,156,0,5,,,,,,,,,5,,,40,0
484560,note_on,84,0,5,,,,,,,,,5,,,59,46
484680,note_off,0,0,1,,,,,,,,,1,,,76,0
484680,note_off,360,0,1,,,,,,,,,1,,,68,0
484800,note_off,240,0,5,,,,,,,,,5,,,59,0
484800,note_on,0,0,5,,,,,,,,,5,,,56,41
485040,note_off,240,0,5,,,,,,,,,5,,,56,0
485040,note_on,0,0,5,,,,,,,,,5,,,52,36
485160,set_tempo,1800,1,0,,,,,,652173,,,,,,,
485280,note_on,0,0,1,,,,,,,,,1,,,73,36
485280,note_on,600,0,1,,,,,,,,,1,,,61,36
485280,note_off,240,0,5,,,,,,,,,5,,,52,0
485280,note_on,0,0,5,,,,,,,,,5,,,33,36
485280,set_tempo,120,1,0,,,,,,625000,,,,,,,
485436,note_off,156,0,5,,,,,,,,,5,,,33,0
485472,note_off,192,0,1,,,,,,,,,1,,,73,0
485472,note_off,0,0,1,,,,,,,,,1,,,61,0
485520,note_on,0,0,3,,,,,,,,,3,,,45,37
485520,note_on,0,0,1,,,,,,,,,1,,,73,37
485520,note_on,1284,0,3,,,,,,,,,3,,,52,37
485520,note_on,48,0,1,,,,,,,,,1,,,61,37
485676,note_off,0,0,3,,,,,,,,,3,,,52,0
485676,note_off,156,0,3,,,,,,,,,3,,,45,0
485712,note_off,0,0,1,,,,,,,,,1,,,61,0
485712,note_off,192,0,1,,,,,,,,,1,,,73,0
485760,note_on,0,0,1,,,,,,,,,1,,,73,38
485760,note_on,324,0,5,,,,,,,,,5,,,33,38
485760,note_on,48,0,1,,,,,,,,,1,,,61,38
485916,note_off,156,0,5,,,,,,,,,5,,,33,0
485952,note_off,0,0,1,,,,,,,,,1,,,61,0
485952,note_off,192,0,1,,,,,,,,,1,,,73,0
486000,note_on,0,0,3,,,,,,,,,3,,,45,39
486000,note_on,0,0,3,,,,,,,,,3,,,54,39
486000,note_on,324,0,3,,,,,,,,,3,,,47,39
486000,note_on,0,0,1,,,,,,,,,1,,,75,39
486000,note_on,48,0,1,,,,,,,,,1,,,63,39
486156,note_off,156,0,3,,,,,,,,,3,,,45,0
486156,note_off,0,0,3,,,,,,,,,3,,,47,0
486156,note_off,0,0,3,,,,,,,,,3,,,54,0
486180,note_on,0,0,1,,,,,,,,,1,,,76,39
486180,note_off,180,0,1,,,,,,,,,1,,,75,0
486180,note_off,0,0,1,,,,,,,,,1,,,63,0
486180,note_on,0,0,1,,,,,,,,,1,,,64,39
486228,note_off,0,0,1,,,,,,,,,1,,,64,0
486228,note_off,48,0,1,,,,,,,,,1,,,76,0
486240,note_on,0,0,1,,,,,,,,,1,,,76,39
486240,note_on,12,0,1,,,,,,,,,1,,,64,39
486240,note_on,324,0,5,,,,,,,,,5,,,32,39
486396,note_off,156,0,5,,,,,,,,,5,,,32,0
486480,note_on,0,0,3,,,,,,,,,3,,,56,40
486480,note_on,324,0,3,,,,,,,,,3,,,59,40
486636,note_off,156,0,3,,,,,,,,,3,,,56,0
486636,note_off,0,0,3,,,,,,,,,3,,,59,0
486720,note_on,0,0,1,,,,,,,,,1,,,68,44
486720,note_on,324,0,5,,,,,,,,,5,,,40,44
486720,note_off,0,0,1,,,,,,,,,1,,,64,0
486720,note_off,480,0,1,,,,,,,,,1,,,76,0
486720,note_on,0,0,1,,,,,,,,,1,,,80,44
486876,note_off,156,0,5,,,,,,,,,5,,,40,0
486960,note_on,324,0,3,,,,,,,,,3,,,56,41
486960,note_on,0,0,3,,,,,,,,,3,,,52,41
487080,set_tempo,1800,1,0,,,,,,652173,,,,,,,
487080,note_off,0,0,1,,,,,,,,,1,,,68,0
487080,note_off,360,0,1,,,,,,,,,1,,,80,0
487116,note_off,0,0,3,,,,,,,,,3,,,56,0
487116,note_off,156,0,3,,,,,,,,,3,,,52,0
487200,set_tempo,120,1,0,,,,,,625000,,,,,,,
487200,note_on,120,0,1,,,,,,,,,1,,,59,39
487200,note_on,0,0,1,,,,,,,,,1,,,71,39
487200,note_on,324,0,5,,,,,,,,,5,,,35,39
487356,note_off,156,0,5,,,,,,,,,5,,,35,0
487440,note_on,0,0,3,,,,,,,,,3,,,47,38
487440,note_on,324,0,3,,,,,,,,,3,,,52,38
487440,note_off,240,0,1,,,,,,,,,1,,,71,0
487440,note_on,0,0,1,,,,,,,,,1,,,69,38
487596,note_off,0,0,3,,,,,,,,,3,,,52,0
487596,note_off,156,0,3,,,,,,,,,3,,,47,0
487620,note_off,180,0,1,,,,,,,,,1,,,69,0
487620,note_on,0,0,1,,,,,,,,,1,,,68,37
487680,note_on,324,0,5,,,,,,,,,5,,,35,36
487680,note_on,0,0,1,,,,,,,,,1,,,68,36
487680,note_off,60,0,1,,,,,,,,,1,,,68,0
487836,note_off,156,0,5,,,,,,,,,5,,,35,0
487920,note_on,0,0,1,,,,,,,,,1,,,57,35
487920,note_on,0,0,3,,,,,,,,,3,,,51,35
487920,note_on,324,0,3,,,,,,,,,3,,,47,35
487920,note_off,240,0,1,,,,,,,,,1,,,68,0
487920,note_on,0,0,1,,,,,,,,,1,,,66,35
487927,note_off,7,0,1,,,,,,,,,1,,,59,0
488076,note_off,156,0,3,,,,,,,,,3,,,51,0
488076,note_off,0,0,3,,,,,,,,,3,,,47,0
488100,note_off,173,0,1,,,,,,,,,1,,,57,0
488100,note_on,0,0,1,,,,,,,,,1,,,64,33
488100,note_on,0,0,1,,,,,,,,,1,,,56,33
488100,note_off,0,0,1,,,,,,,,,1,,,66,0
488120,set_tempo,920,1,0,,,,,,631578,,,,,,,
488148,note_off,48,0,1,,,,,,,,,1,,,56,0
488148,note_off,0,0,1,,,,,,,,,1,,,64,0
488160,set_tempo,40,1,0,,,,,,625000,,,,,,,
488160,note_on,324,0,5,,,,,,,,,5,,,40,33
488160,note_on,12,0,1,,,,,,,,,1,,,64,33
488160,note_on,0,0,1,,,,,,,,,1,,,56,33
488316,note_off,156,0,5,,,,,,,,,5,,,40,0
488400,note_on,84,0,5,,,,,,,,,5,,,47,34
488520,note_off,360,0,1,,,,,,,,,1,,,56,0
488520,note_off,0,0,1,,,,,,,,,1,,,64,0
488640,note_off,240,0,5,,,,,,,,,5,,,47,0
488640,note_on,0,0,5,,,,,,,,,5,,,44,30
488880,set_tempo,720,1,0,,,,,,638297,,,,,,,
488880,note_on,0,0,5,,,,,,,,,5,,,40,26
488880,note_off,240,0,5,,,,,,,,,5,,,44,0
489000,set_tempo,120,1,0,,,,,,750000,,,,,,,
489120,note_off,240,0,5,,,,,,,,,5,,,40,0
489120,set_tempo,120,1,0,,,,,,638297,,,,,,,
489120,note_on,600,0,1,,,,,,,,,1,,,59,37
489120,note_on,0,0,1,,,,,,,,,1,,,71,37
489120,note_on,0,0,5,,,,,,,,,5,,,35,37
489276,note_off,156,0,5,,,,,,,,,5,,,35,0
489360,note_off,240,0,1,,,,,,,,,1,,,71,0
489360,note_on,0,0,3,,,,,,,,,3,,,52,36
489360,note_on,1284,0,3,,,,,,,,,3,,,47,36
489360,note_on,0,0,1,,,,,,,,,1,,,69,36
489516,note_off,0,0,3,,,,,,,,,3,,,47,0
489516,note_off,156,0,3,,,,,,,,,3,,,52,0
489540,note_off,180,0,1,,,,,,,,,1,,,69,0
489540,note_on,0,0,1,,,,,,,,,1,,,68,34
489600,note_on,0,0,1,,,,,,,,,1,,,68,34
489600,note_off,60,0,1,,,,,,,,,1,,,68,0
489600,note_on,324,0,5,,,,,,,,,5,,,35,34
489756,note_off,156,0,5,,,,,,,,,5,,,35,0
489840,note_on,0,0,3,,,,,,,,,3,,,47,32
489840,note_on,324,0,3,,,,,,,,,3,,,51,32
489840,note_off,240,0,1,,,,,,,,,1,,,68,0
489840,note_on,0,0,1,,,,,,,,,1,,,66,32
489840,note_on,0,0,1,,,,,,,,,1,,,57,32
489847,note_off,7,0,1,,,,,,,,,1,,,59,0
489996,note_off,156,0,3,,,,,,,,,3,,,47,0
489996,note_off,0,0,3,,,,,,,,,3,,,51,0
490020,note_on,0,0,1,,,,,,,,,1,,,64,31
490020,note_on,0,0,1,,,,,,,,,1,,,56,31
490020,note_off,0,0,1,,,,,,,,,1,,,66,0
490020,note_off,173,0,1,,,,,,,,,1,,,57,0
490068,note_off,0,0,1,,,,,,,,,1,,,56,0
490068,note_off,48,0,1,,,,,,,,,1,,,64,0
490080,note_on,0,0,1,,,,,,,,,1,,,64,31
490080,note_on,12,0,1,,,,,,,,,1,,,56,31
490080,note_on,324,0,5,,,,,,,,,5,,,40,31
490236,note_off,156,0,5,,,,,,,,,5,,,40,0
490320,note_on,84,0,5,,,,,,,,,5,,,47,33
490440,note_off,0,0,1,,,,,,,,,1,,,56,0
490440,note_off,360,0,1,,,,,,,,,1,,,64,0
490560,note_off,240,0,5,,,,,,,,,5,,,47,0
490560,note_on,0,0,5,,,,,,,,,5,,,44,29
490800,note_on,0,0,5,,,,,,,,,5,,,40,25
490800,note_off,240,0,5,,,,,,,,,5,,,44,0
490920,set_tempo,1800,1,0,,,,,,769230,,,,,,,
491040,note_on,600,0,1,,,,,,,,,1,,,59,31
491040,set_tempo,120,1,0,,,,,,659340,,,,,,,
491040,note_on,0,0,1,,,,,,,,,1,,,71,31
491040,note_on,0,0,5,,,,,,,,,5,,,35,31
491040,note_off,240,0,5,,,,,,,,,5,,,40,0
491196,note_off,156,0,5,,,,,,,,,5,,,35,0
491280,note_on,0,0,1,,,,,,,,,1,,,69,30
491280,note_off,240,0,1,,,,,,,,,1,,,71,0
491280,note_on,0,0,3,,,,,,,,,3,,,52,30
491280,note_on,1284,0,3,,,,,,,,,3,,,47,30
491436,note_off,0,0,3,,,,,,,,,3,,,47,0
491436,note_off,156,0,3,,,,,,,,,3,,,52,0
491460,note_on,0,0,1,,,,,,,,,1,,,68,29
491460,note_off,180,0,1,,,,,,,,,1,,,69,0
491520,note_on,0,0,1,,,,,,,,,1,,,68,28
491520,note_off,60,0,1,,,,,,,,,1,,,68,0
491520,note_on,324,0,5,,,,,,,,,5,,,35,28
491676,note_off,156,0,5,,,,,,,,,5,,,35,0
491760,note_on,0,0,3,,,,,,,,,3,,,47,27
491760,note_on,0,0,1,,,,,,,,,1,,,57,27
491760,note_on,0,0,1,,,,,,,,,1,,,66,27
491760,note_off,240,0,1,,,,,,,,,1,,,68,0
491760,note_on,324,0,3,,,,,,,,,3,,,51,27
491767,note_off,7,0,1,,,,,,,,,1,,,59,0
491916,note_off,156,0,3,,,,,,,,,3,,,47,0
491916,note_off,0,0,3,,,,,,,,,3,,,51,0
491940,note_on,0,0,1,,,,,,,,,1,,,64,25
491940,note_on,0,0,1,,,,,,,,,1,,,56,25
491940,note_off,173,0,1,,,,,,,,,1,,,57,0
491940,note_off,0,0,1,,,,,,,,,1,,,66,0
491988,note_off,0,0,1,,,,,,,,,1,,,56,0
491988,note_off,48,0,1,,,,,,,,,1,,,64,0
492000,note_on,324,0,5,,,,,,,,,5,,,40,25
492000,note_on,0,0,1,,,,,,,,,1,,,64,25
492000,note_on,12,0,1,,,,,,,,,1,,,56,25
492156,note_off,156,0,5,,,,,,,,,5,,,40,0
492240,note_on,84,0,5,,,,,,,,,5,,,52,29
492360,note_off,360,0,1,,,,,,,,,1,,,64,0
492360,note_off,0,0,1,,,,,,,,,1,,,56,0
492480,note_off,240,0,5,,,,,,,,,5,,,52,0
492480,note_on,0,0,5,,,,,,,,,5,,,47,27
492660,set_tempo,1620,1,0,,,,,,674157,,,,,,,
492720,note_off,240,0,5,,,,,,,,,5,,,47,0
492720,note_on,0,0,5,,,,,,,,,5,,,44,25
492840,set_tempo,180,1,0,,,,,,845070,,,,,,,
492960,note_off,240,0,5,,,,,,,,,5,,,44,0
492960,note_on,0,0,5,,,,,,,,,5,,,40,23
492960,note_on,0,0,4,,,,,,,,,4,,,52,23
492960,set_tempo,120,1,0,,,,,,705882,,,,,,,
492960,note_on,600,0,1,,,,,,,,,1,,,56,23
492960,note_on,0,0,1,,,,,,,,,1,,,64,23
492960,note_on,11520,0,4,,,,,,,,,4,,,47,23
493320,note_off,0,0,4,,,,,,,,,4,,,47,0
493320,note_off,360,0,5,,,,,,,,,5,,,40,0
493320,note_off,360,0,1,,,,,,,,,1,,,64,0
493320,note_off,0,0,1,,,,,,,,,1,,,56,0
493320,note_off,360,0,4,,,,,,,,,4,,,52,0
493320,set_tempo,360,1,0,,,,,,722891,,,,,,,
493440,note_on,120,0,1,,,,,,,,,1,,,56,20
493440,note_on,0,0,1,,,,,,,,,1,,,64,20
493440,note_on,120,0,5,,,,,,,,,5,,,40,20
493440,note_on,0,0,4,,,,,,,,,4,,,52,20
493440,note_on,120,0,4,,,,,,,,,4,,,47,20
493455,set_tempo,135,1,0,,,,,,821917,,,,,,,
493600,set_tempo,145,1,0,,,,,,1071428,,,,,,,
493800,note_off,360,0,1,,,,,,,,,1,,,64,0
493800,note_off,360,0,5,,,,,,,,,5,,,40,0
493800,note_off,0,0,1,,,,,,,,,1,,,56,0
493800,note_off,0,0,4,,,,,,,,,4,,,47,0
493800,note_off,360,0,4,,,,,,,,,4,,,52,0
493920,note_on,120,0,5,,,,,,,,,5,,,40,16
493920,note_on,0,0,4,,,,,,,,,4,,,52,16
493920,note_on,120,0,4,,,,,,,,,4,,,47,16
493920,note_on,0,0,1,,,,,,,,,1,,,64,16
493920,note_on,120,0,1,,,,,,,,,1,,,56,16
494400,note_off,0,0,4,,,,,,,,,4,,,47,0
494400,note_off,0,0,1,,,,,,,,,1,,,56,0
494400,note_off,480,0,1,,,,,,,,,1,,,64,0
494400,note_off,480,0,5,,,,,,,,,5,,,40,0
494400,note_off,480,0,4,,,,,,,,,4,,,52,0
494880,control_change,480,0,5,,,,,,,0,0,5,,,,
494880,control_change,0,0,5,,,,,,,93,28,5,,,,
494880,control_change,0,0,5,,,,,,,91,100,5,,,,
494880,pitchwheel,0,0,5,,,,,,,,,5,,0,,
494880,control_change,0,0,5,,,,,,,64,0,5,,,,
494880,control_change,0,0,5,,,,,,,64,0,5,,,,
494880,control_change,0,0,5,,,,,,,64,0,5,,,,
494880,control_change,0,0,5,,,,,,,64,0,5,,,,
494880,control_change,0,0,5,,,,,,,64,0,5,,,,
494880,program_change,0,0,5,,,,,,,,,5,0,,,
494880,control_change,0,0,5,,,,,,,1,0,5,,,,
494880,control_change,0,0,5,,,,,,,64,0,5,,,,
494880,control_change,0,0,1,,,,,,,1,0,1,,,,
494880,control_change,0,0,5,,,,,,,7,125,5,,,,
494880,control_change,0,0,1,,,,,,,64,0,1,,,,
494880,control_change,0,0,1,,,,,,,32,0,1,,,,
494880,control_change,480,0,1,,,,,,,0,0,1,,,,
494880,control_change,0,0,1,,,,,,,91,64,1,,,,
494880,control_change,0,0,4,,,,,,,10,55,4,,,,
494880,control_change,0,0,4,,,,,,,7,120,4,,,,
494880,control_change,0,0,4,,,,,,,91,100,4,,,,
494880,control_change,0,0,4,,,,,,,93,28,4,,,,
494880,control_change,0,0,4,,,,,,,1,0,4,,,,
494880,pitchwheel,0,0,4,,,,,,,,,4,,0,,
494880,control_change,0,0,4,,,,,,,64,0,4,,,,
494880,control_change,0,0,4,,,,,,,64,0,4,,,,
494880,control_change,0,0,4,,,,,,,64,0,4,,,,
494880,program_change,0,0,4,,,,,,,,,4,0,,,
494880,control_change,0,0,4,,,,,,,32,0,4,,,,
494880,control_change,480,0,4,,,,,,,0,0,4,,,,
494880,control_change,0,0,1,,,,,,,7,127,1,,,,
494880,control_change,0,0,1,,,,,,,10,73,1,,,,
494880,program_change,0,0,1,,,,,,,,,1,0,,,
494880,pitchwheel,0,0,1,,,,,,,,,1,,0,,
494880,marker,0,1,0,,,,,,,,,,,,,
494880,set_tempo,0,1,0,,,,,,1363636,,,,,,,
494880,time_signature,1280,1,0,3,8,24,8,,,,,,,,,
494880,control_change,0,0,1,,,,,,,93,1,1,,,,
494880,control_change,0,0,5,,,,,,,10,55,5,,,,
494880,control_change,0,0,5,,,,,,,32,0,5,,,,
494880,control_change,13440,0,2,,,,,,,0,0,2,,,,
494880,control_change,0,0,2,,,,,,,10,73,2,,,,
494880,control_change,0,0,2,,,,,,,7,122,2,,,,
494880,control_change,0,0,2,,,,,,,91,100,2,,,,
494880,control_change,0,0,2,,,,,,,93,28,2,,,,
494880,control_change,0,0,2,,,,,,,1,0,2,,,,
494880,control_change,0,0,2,,,,,,,32,0,2,,,,
494880,pitchwheel,0,0,2,,,,,,,,,2,,0,,
494880,control_change,2964,0,3,,,,,,,7,112,3,,,,
494880,control_change,0,0,3,,,,,,,0,0,3,,,,
494880,control_change,0,0,3,,,,,,,32,0,3,,,,
494880,program_change,0,0,3,,,,,,,,,3,0,,,
494880,control_change,0,0,3,,,,,,,64,0,3,,,,
494880,control_change,0,0,3,,,,,,,64,0,3,,,,
494880,control_change,0,0,3,,,,,,,64,0,3,,,,
494880,control_change,0,0,3,,,,,,,64,0,3,,,,
494880,control_change,0,0,3,,,,,,,64,0,3,,,,
494880,control_change,0,0,2,,,,,,,64,0,2,,,,
494880,control_change,0,0,3,,,,,,,64,0,3,,,,
494880,pitchwheel,0,0,3,,,,,,,,,3,,0,,
494880,control_change,0,0,3,,,,,,,1,0,3,,,,
494880,control_change,0,0,3,,,,,,,93,28,3,,,,
494880,control_change,0,0,3,,,,,,,91,100,3,,,,
494880,control_change,0,0,3,,,,,,,7,112,3,,,,
494880,control_change,0,0,2,,,,,,,64,0,2,,,,
494880,control_change,0,0,2,,,,,,,64,0,2,,,,
494880,control_change,0,0,3,,,,,,,64,0,3,,,,
494880,control_change,0,0,2,,,,,,,64,0,2,,,,
494880,control_change,0,0,2,,,,,,,64,0,2,,,,
494880,control_change,0,0,2,,,,,,,64,0,2,,,,
494880,control_change,0,0,2,,,,,,,64,0,2,,,,
494880,program_change,0,0,2,,,,,,,,,2,0,,,
494880,control_change,0,0,3,,,,,,,10,64,3,,,,
495600,control_change,720,0,3,,,,,,,64,0,3,,,,
495600,control_change,720,0,2,,,,,,,64,0,2,,,,
495600,control_change,720,0,4,,,,,,,64,0,4,,,,
495600,set_tempo,720,1,0,,,,,,389610,,,,,,,
495600,note_on,0,0,1,,,,,,,,,1,,,57,98
495600,control_change,720,0,5,,,,,,,64,0,5,,,,
495600,note_on,0,0,5,,,,,,,,,5,,,45,98
495600,control_change,720,0,1,,,,,,,64,0,1,,,,
495960,note_off,360,0,5,,,,,,,,,5,,,45,0
495960,note_on,0,0,1,,,,,,,,,1,,,59,99
495960,note_off,360,0,1,,,,,,,,,1,,,57,0
495960,note_on,0,0,5,,,,,,,,,5,,,47,99
496080,note_on,0,0,1,,,,,,,,,1,,,60,99
496080,note_off,120,0,1,,,,,,,,,1,,,59,0
496080,note_off,120,0,5,,,,,,,,,5,,,47,0
496080,note_on,0,0,5,,,,,,,,,5,,,48,99
496200,note_on,0,0,5,,,,,,,,,5,,,50,100
496200,note_off,120,0,1,,,,,,,,,1,,,60,0
496200,note_on,0,0,1,,,,,,,,,1,,,62,100
496200,note_off,120,0,5,,,,,,,,,5,,,48,0
496320,note_on,0,0,1,,,,,,,,,1,,,64,100
496320,note_off,120,0,1,,,,,,,,,1,,,62,0
496320,control_change,720,0,4,,,,,,,64,0,4,,,,
496320,control_change,720,0,3,,,,,,,64,0,3,,,,
496320,control_change,720,0,2,,,,,,,64,0,2,,,,
496320,control_change,120,0,5,,,,,,,64,0,5,,,,
496320,note_off,0,0,5,,,,,,,,,5,,,50,0
496320,note_on,0,0,5,,,,,,,,,5,,,52,100
496680,note_off,360,0,5,,,,,,,,,5,,,52,0
496680,note_off,360,0,1,,,,,,,,,1,,,64,0
496800,note_on,120,0,1,,,,,,,,,1,,,66,102
496800,note_on,120,0,5,,,,,,,,,5,,,54,102
496920,note_on,0,0,5,,,,,,,,,5,,,56,102
496920,note_off,120,0,1,,,,,,,,,1,,,66,0
496920,note_on,0,0,1,,,,,,,,,1,,,68,102
496920,note_off,120,0,5,,,,,,,,,5,,,54,0
497040,note_off,120,0,1,,,,,,,,,1,,,68,0
497040,note_on,0,0,5,,,,,,,,,5,,,57,103
497040,note_off,120,0,5,,,,,,,,,5,,,56,0
497040,note_on,0,0,1,,,,,,,,,1,,,69,103
497280,note_on,0,0,5,,,,,,,,,5,,,59,104
497280,note_off,240,0,5,,,,,,,,,5,,,57,0
497280,note_off,240,0,1,,,,,,,,,1,,,69,0
497280,note_on,0,0,1,,,,,,,,,1,,,71,104
497400,note_off,120,0,5,,,,,,,,,5,,,59,0
497400,note_off,120,0,1,,,,,,,,,1,,,71,0
497400,note_on,0,0,1,,,,,,,,,1,,,72,104
497400,note_on,0,0,5,,,,,,,,,5,,,60,104
497520,note_off,120,0,1,,,,,,,,,1,,,72,0
497520,note_on,0,0,1,,,,,,,,,1,,,74,104
497520,note_off,120,0,5,,,,,,,,,5,,,60,0
497520,note_on,0,0,5,,,,,,,,,5,,,62,104
497640,note_off,120,0,1,,,,,,,,,1,,,74,0
497640,note_on,0,0,1,,,,,,,,,1,,,76,105
497640,note_off,120,0,5,,,,,,,,,5,,,62,0
497640,note_on,0,0,5,,,,,,,,,5,,,64,105
497700,set_tempo,2100,1,0,,,,,,394736,,,,,,,
497760,note_off,120,0,1,,,,,,,,,1,,,76,0
497760,note_on,0,0,1,,,,,,,,,1,,,77,120
497760,note_on,0,0,5,,,,,,,,,5,,,65,120
497760,note_off,120,0,5,,,,,,,,,5,,,64,0
499140,note_off,1380,0,1,,,,,,,,,1,,,77,0
499140,note_off,1380,0,5,,,,,,,,,5,,,65,0
499200,note_on,60,0,1,,,,,,,,,1,,,76,63
499200,note_on,2880,0,2,,,,,,,,,2,,,64,63
499200,note_on,2880,0,4,,,,,,,,,4,,,57,63
499200,note_on,60,0,5,,,,,,,,,5,,,48,63
499920,note_off,720,0,5,,,,,,,,,5,,,48,0
499920,note_on,0,0,5,,,,,,,,,5,,,53,62
499920,note_off,720,0,2,,,,,,,,,2,,,64,0
499920,note_off,720,0,1,,,,,,,,,1,,,76,0
499920,note_on,0,0,2,,,,,,,,,2,,,63,62
499920,note_off,720,0,4,,,,,,,,,4,,,57,0
499920,note_on,0,0,1,,,,,,,,,1,,,69,62
499920,note_on,0,0,4,,,,,,,,,4,,,60,62
500580,note_off,660,0,5,,,,,,,,,5,,,53,0
500580,note_on,660,0,1,,,,,,,,,1,,,71,61
500580,note_off,660,0,4,,,,,,,,,4,,,60,0
500587,note_off,7,0,1,,,,,,,,,1,,,69,0
500587,note_off,667,0,2,,,,,,,,,2,,,63,0
500640,note_on,60,0,4,,,,,,,,,4,,,60,60
500640,note_off,53,0,1,,,,,,,,,1,,,71,0
500640,note_on,53,0,2,,,,,,,,,2,,,64,60
500640,note_on,0,0,1,,,,,,,,,1,,,69,60
500640,note_on,60,0,5,,,,,,,,,5,,,52,60
500880,note_off,240,0,1,,,,,,,,,1,,,69,0
500880,note_on,0,0,1,,,,,,,,,1,,,68,60
501120,note_off,240,0,1,,,,,,,,,1,,,68,0
501120,note_on,0,0,1,,,,,,,,,1,,,69,59
501240,set_tempo,3540,1,0,,,,,,400000,,,,,,,
501360,note_off,720,0,2,,,,,,,,,2,,,64,0
501360,note_off,720,0,4,,,,,,,,,4,,,60,0
501360,note_on,0,0,4,,,,,,,,,4,,,62,58
501360,note_on,0,0,1,,,,,,,,,1,,,72,62
501360,note_off,240,0,1,,,,,,,,,1,,,69,0
501360,note_on,0,0,2,,,,,,,,,2,,,68,62
501840,note_off,480,0,1,,,,,,,,,1,,,72,0
501840,note_on,0,0,1,,,,,,,,,1,,,71,52
501840,set_tempo,600,1,0,,,,,,408163,,,,,,,
502080,note_off,240,0,1,,,,,,,,,1,,,71,0
502080,note_off,720,0,2,,,,,,,,,2,,,68,0
502080,note_off,1440,0,5,,,,,,,,,5,,,52,0
502080,note_off,720,0,4,,,,,,,,,4,,,62,0
503520,note_on,1440,0,5,,,,,,,,,5,,,45,90
503520,note_on,1440,0,1,,,,,,,,,1,,,57,90
503520,set_tempo,1680,1,0,,,,,,389610,,,,,,,
503880,note_on,0,0,1,,,,,,,,,1,,,59,91
503880,note_off,360,0,5,,,,,,,,,5,,,45,0
503880,note_on,0,0,5,,,,,,,,,5,,,47,91
503880,note_off,360,0,1,,,,,,,,,1,,,57,0
504000,note_off,120,0,1,,,,,,,,,1,,,59,0
504000,note_on,0,0,1,,,,,,,,,1,,,60,92
504000,note_off,120,0,5,,,,,,,,,5,,,47,0
504000,note_on,0,0,5,,,,,,,,,5,,,48,92
504120,note_on,0,0,1,,,,,,,,,1,,,62,92
504120,note_off,120,0,1,,,,,,,,,1,,,60,0
504120,note_on,0,0,5,,,,,,,,,5,,,50,92
504120,note_off,120,0,5,,,,,,,,,5,,,48,0
504240,note_off,120,0,1,,,,,,,,,1,,,62,0
504240,note_on,0,0,1,,,,,,,,,1,,,64,93
504240,note_on,0,0,5,,,,,,,,,5,,,52,93
504240,note_off,120,0,5,,,,,,,,,5,,,50,0
504600,note_off,360,0,5,,,,,,,,,5,,,52,0
504600,note_off,360,0,1,,,,,,,,,1,,,64,0
504720,note_on,120,0,1,,,,,,,,,1,,,66,95
504720,note_on,120,0,5,,,,,,,,,5,,,54,95
504840,note_off,120,0,1,,,,,,,,,1,,,66,0
504840,note_off,120,0,5,,,,,,,,,5,,,54,0
504840,note_on,0,0,5,,,,,,,,,5,,,56,96
504840,note_on,0,0,1,,,,,,,,,1,,,68,96
504960,note_on,0,0,1,,,,,,,,,1,,,69,96
504960,note_on,0,0,5,,,,,,,,,5,,,57,96
504960,note_off,120,0,5,,,,,,,,,5,,,56,0
504960,note_off,120,0,1,,,,,,,,,1,,,68,0
505200,note_on,0,0,1,,,,,,,,,1,,,71,97
505200,note_on,0,0,5,,,,,,,,,5,,,59,97
505200,note_off,240,0,5,,,,,,,,,5,,,57,0
505200,note_off,240,0,1,,,,,,,,,1,,,69,0
505320,note_off,120,0,5,,,,,,,,,5,,,59,0
505320,note_off,120,0,1,,,,,,,,,1,,,71,0
505320,note_on,0,0,1,,,,,,,,,1,,,72,98
505320,note_on,0,0,5,,,,,,,,,5,,,60,98
505440,note_off,120,0,1,,,,,,,,,1,,,72,0
505440,note_on,0,0,1,,,,,,,,,1,,,74,98
505440,note_off,120,0,5,,,,,,,,,5,,,60,0
505440,note_on,0,0,5,,,,,,,,,5,,,62,98
505560,note_off,120,0,5,,,,,,,,,5,,,62,0
505560,note_on,0,0,1,,,,,,,,,1,,,76,99
505560,note_off,120,0,1,,,,,,,,,1,,,74,0
505560,note_on,0,0,5,,,,,,,,,5,,,64,99
505620,set_tempo,2100,1,0,,,,,,394736,,,,,,,
505680,note_on,0,0,1,,,,,,,,,1,,,77,115
505680,note_off,120,0,1,,,,,,,,,1,,,76,0
505680,note_off,120,0,5,,,,,,,,,5,,,64,0
505680,note_on,0,0,5,,,,,,,,,5,,,65,115
507120,note_on,1440,0,5,,,,,,,,,5,,,50,57
507120,note_on,5040,0,4,,,,,,,,,4,,,58,57
507835,note_off,2155,0,1,,,,,,,,,1,,,77,0
507840,note_off,720,0,4,,,,,,,,,4,,,58,0
507840,note_on,0,0,4,,,,,,,,,4,,,60,56
507840,note_on,0,0,5,,,,,,,,,5,,,55,56
507840,note_off,720,0,5,,,,,,,,,5,,,50,0
507840,note_on,5,0,1,,,,,,,,,1,,,70,56
507840,note_on,5760,0,2,,,,,,,,,2,,,64,56
507845,note_off,5,0,5,,,,,,,,,5,,,65,0
508500,note_on,660,0,1,,,,,,,,,1,,,72,54
508500,note_off,660,0,4,,,,,,,,,4,,,60,0
508500,note_off,655,0,5,,,,,,,,,5,,,55,0
508507,note_off,667,0,2,,,,,,,,,2,,,64,0
508507,note_off,7,0,1,,,,,,,,,1,,,70,0
508560,note_on,0,0,1,,,,,,,,,1,,,70,55
508560,note_on,60,0,5,,,,,,,,,5,,,53,55
508560,note_on,53,0,2,,,,,,,,,2,,,65,55
508560,note_on,60,0,4,,,,,,,,,4,,,62,55
508560,note_off,53,0,1,,,,,,,,,1,,,72,0
508800,note_on,0,0,1,,,,,,,,,1,,,69,54
508800,note_off,240,0,1,,,,,,,,,1,,,70,0
509040,note_off,240,0,1,,,,,,,,,1,,,69,0
509040,note_on,0,0,1,,,,,,,,,1,,,70,52
509160,set_tempo,3540,1,0,,,,,,400000,,,,,,,
509280,note_off,720,0,2,,,,,,,,,2,,,65,0
509280,note_on,0,0,2,,,,,,,,,2,,,69,54
509280,note_off,720,0,4,,,,,,,,,4,,,62,0
509280,note_on,0,0,1,,,,,,,,,1,,,74,54
509280,note_off,240,0,1,,,,,,,,,1,,,70,0
509280,note_on,0,0,4,,,,,,,,,4,,,63,51
509760,note_on,0,0,1,,,,,,,,,1,,,72,45
509760,set_tempo,600,1,0,,,,,,408163,,,,,,,
509760,note_off,480,0,1,,,,,,,,,1,,,74,0
510000,note_off,1440,0,5,,,,,,,,,5,,,53,0
510000,note_off,720,0,2,,,,,,,,,2,,,69,0
510000,note_off,720,0,4,,,,,,,,,4,,,63,0
510000,note_off,240,0,1,,,,,,,,,1,,,72,0
510660,note_on,660,0,1,,,,,,,,,1,,,71,51
510720,note_on,720,0,2,,,,,,,,,2,,,64,51
510720,note_off,60,0,1,,,,,,,,,1,,,71,0
510720,note_on,0,0,1,,,,,,,,,1,,,69,51
510720,note_on,720,0,4,,,,,,,,,4,,,60,51
510720,note_on,720,0,5,,,,,,,,,5,,,52,51
510960,note_off,240,0,1,,,,,,,,,1,,,69,0
510960,note_on,0,0,1,,,,,,,,,1,,,68,50
511200,note_off,240,0,1,,,,,,,,,1,,,68,0
511200,note_on,0,0,1,,,,,,,,,1,,,69,49
511320,set_tempo,1560,1,0,,,,,,413793,,,,,,,
511440,note_on,720,0,2,,,,,,,,,2,,,68,51
511440,note_on,0,0,4,,,,,,,,,4,,,62,48
511440,note_off,720,0,4,,,,,,,,,4,,,60,0
511440,note_on,0,0,1,,,,,,,,,1,,,72,51
511440,note_off,240,0,1,,,,,,,,,1,,,69,0
511920,note_off,480,0,1,,,,,,,,,1,,,72,0
511920,note_on,0,0,1,,,,,,,,,1,,,71,43
511920,set_tempo,600,1,0,,,,,,425531,,,,,,,
512160,note_off,240,0,1,,,,,,,,,1,,,71,0
512160,note_off,0,0,2,,,,,,,,,2,,,64,0
512160,note_off,1440,0,5,,,,,,,,,5,,,52,0
512160,note_off,720,0,4,,,,,,,,,4,,,62,0
512160,note_off,720,0,2,,,,,,,,,2,,,68,0
512160,set_tempo,240,1,0,,,,,,845070,,,,,,,
512880,note_on,720,0,5,,,,,,,,,5,,,45,80
512880,set_tempo,720,1,0,,,,,,389610,,,,,,,
512880,note_on,720,0,1,,,,,,,,,1,,,57,80
513240,note_off,360,0,1,,,,,,,,,1,,,57,0
513240,note_on,0,0,1,,,,,,,,,1,,,59,82
513240,note_on,0,0,5,,,,,,,,,5,,,47,82
513240,note_off,360,0,5,,,,,,,,,5,,,45,0
513360,note_on,0,0,5,,,,,,,,,5,,,48,83
513360,note_off,120,0,5,,,,,,,,,5,,,47,0
513360,note_off,120,0,1,,,,,,,,,1,,,59,0
513360,note_on,0,0,1,,,,,,,,,1,,,60,83
513480,note_on,0,0,1,,,,,,,,,1,,,62,83
513480,note_off,120,0,5,,,,,,,,,5,,,48,0
513480,note_on,0,0,5,,,,,,,,,5,,,50,83
513480,note_off,120,0,1,,,,,,,,,1,,,60,0
513600,note_off,120,0,5,,,,,,,,,5,,,50,0
513600,note_on,0,0,5,,,,,,,,,5,,,52,84
513600,note_on,0,0,1,,,,,,,,,1,,,64,84
513600,note_off,120,0,1,,,,,,,,,1,,,62,0
513960,note_off,360,0,5,,,,,,,,,5,,,52,0
513960,note_off,360,0,1,,,,,,,,,1,,,64,0
514080,note_on,120,0,5,,,,,,,,,5,,,54,87
514080,note_on,120,0,1,,,,,,,,,1,,,66,87
514200,note_off,120,0,5,,,,,,,,,5,,,54,0
514200,note_on,0,0,5,,,,,,,,,5,,,56,88
514200,note_on,0,0,1,,,,,,,,,1,,,68,88
514200,note_off,120,0,1,,,,,,,,,1,,,66,0
514320,note_on,0,0,5,,,,,,,,,5,,,57,88
514320,note_off,120,0,5,,,,,,,,,5,,,56,0
514320,note_off,120,0,1,,,,,,,,,1,,,68,0
514320,note_on,0,0,1,,,,,,,,,1,,,69,88
514560,note_off,240,0,5,,,,,,,,,5,,,57,0
514560,note_off,240,0,1,,,,,,,,,1,,,69,0
514560,note_on,0,0,1,,,,,,,,,1,,,71,90
514560,note_on,0,0,5,,,,,,,,,5,,,59,90
514680,note_off,120,0,1,,,,,,,,,1,,,71,0
514680,note_on,0,0,1,,,,,,,,,1,,,72,91
514680,note_off,120,0,5,,,,,,,,,5,,,59,0
514680,note_on,0,0,5,,,,,,,,,5,,,60,91
514800,note_off,120,0,5,,,,,,,,,5,,,60,0
514800,note_on,0,0,1,,,,,,,,,1,,,74,91
514800,note_off,120,0,1,,,,,,,,,1,,,72,0
514800,note_on,0,0,5,,,,,,,,,5,,,62,91
514920,note_on,0,0,5,,,,,,,,,5,,,64,92
514920,note_off,120,0,5,,,,,,,,,5,,,62,0
514920,note_off,120,0,1,,,,,,,,,1,,,74,0
514920,note_on,0,0,1,,,,,,,,,1,,,76,92
514980,set_tempo,2100,1,0,,,,,,394736,,,,,,,
515040,note_on,0,0,5,,,,,,,,,5,,,65,110
515040,note_on,0,0,1,,,,,,,,,1,,,77,110
515040,note_off,120,0,1,,,,,,,,,1,,,76,0
515040,note_off,120,0,5,,,,,,,,,5,,,64,0
516420,note_off,1380,0,5,,,,,,,,,5,,,65,0
516420,note_off,1380,0,1,,,,,,,,,1,,,77,0
516480,note_on,4320,0,2,,,,,,,,,2,,,64,55
516480,note_on,60,0,5,,,,,,,,,5,,,49,55
516480,note_on,60,0,1,,,,,,,,,1,,,76,55
516480,note_on,4320,0,4,,,,,,,,,4,,,57,55
517200,note_on,0,0,2,,,,,,,,,2,,,63,53
517200,note_on,0,0,5,,,,,,,,,5,,,54,53
517200,note_off,720,0,2,,,,,,,,,2,,,64,0
517200,note_off,720,0,4,,,,,,,,,4,,,57,0
517200,note_on,0,0,4,,,,,,,,,4,,,59,53
517200,note_off,720,0,5,,,,,,,,,5,,,49,0
517200,note_on,0,0,1,,,,,,,,,1,,,69,53
517200,note_off,720,0,1,,,,,,,,,1,,,76,0
517860,note_off,660,0,5,,,,,,,,,5,,,54,0
517860,note_off,660,0,4,,,,,,,,,4,,,59,0
517860,note_on,660,0,1,,,,,,,,,1,,,71,51
517867,note_off,667,0,2,,,,,,,,,2,,,63,0
517867,note_off,7,0,1,,,,,,,,,1,,,69,0
517920,note_on,0,0,1,,,,,,,,,1,,,69,51
517920,note_on,53,0,2,,,,,,,,,2,,,64,51
517920,note_on,60,0,5,,,,,,,,,5,,,52,51
517920,note_off,53,0,1,,,,,,,,,1,,,71,0
517920,note_on,60,0,4,,,,,,,,,4,,,61,51
518160,note_on,0,0,1,,,,,,,,,1,,,68,50
518160,note_off,240,0,1,,,,,,,,,1,,,69,0
518400,note_off,240,0,1,,,,,,,,,1,,,68,0
518400,note_on,0,0,1,,,,,,,,,1,,,69,48
518520,set_tempo,3540,1,0,,,,,,400000,,,,,,,
518640,note_off,720,0,4,,,,,,,,,4,,,61,0
518640,note_off,240,0,1,,,,,,,,,1,,,69,0
518640,note_on,0,0,1,,,,,,,,,1,,,73,49
518640,note_on,0,0,4,,,,,,,,,4,,,62,47
518640,note_on,720,0,2,,,,,,,,,2,,,68,49
519120,note_off,480,0,1,,,,,,,,,1,,,73,0
519120,note_on,0,0,1,,,,,,,,,1,,,71,40
519120,set_tempo,600,1,0,,,,,,408163,,,,,,,
519360,note_off,720,0,4,,,,,,,,,4,,,62,0
519360,note_off,1440,0,5,,,,,,,,,5,,,52,0
519360,note_off,720,0,2,,,,,,,,,2,,,68,0
519360,note_off,0,0,2,,,,,,,,,2,,,64,0
519360,note_off,240,0,1,,,,,,,,,1,,,71,0
520800,note_on,0,0,1,,,,,,,,,1,,,76,46
520800,control_change,1440,0,1,,,,,,,64,0,1,,,,
520800,set_tempo,1680,1,0,,,,,,389610,,,,,,,
520800,control_change,24480,0,3,,,,,,,64,0,3,,,,
520800,note_on,0,0,5,,,,,,,,,5,,,57,46
520800,control_change,1440,0,5,,,,,,,64,0,5,,,,
520800,control_change,1440,0,4,,,,,,,64,0,4,,,,
520800,control_change,1440,0,2,,,,,,,64,0,2,,,,
520800,note_on,0,0,4,,,,,,,,,4,,,61,46
520800,note_on,0,0,2,,,,,,,,,2,,,69,46
520920,note_off,120,0,1,,,,,,,,,1,,,76,0
520920,note_on,0,0,1,,,,,,,,,1,,,78,47
521040,note_off,120,0,1,,,,,,,,,1,,,78,0
521040,note_on,0,0,1,,,,,,,,,1,,,75,48
521040,note_off,240,0,4,,,,,,,,,4,,,61,0
521040,note_on,0,0,4,,,,,,,,,4,,,60,48
521160,note_off,120,0,1,,,,,,,,,1,,,75,0
521160,note_on,0,0,1,,,,,,,,,1,,,78,50
521280,note_on,0,0,4,,,,,,,,,4,,,61,51
521280,note_on,0,0,1,,,,,,,,,1,,,76,51
521280,note_off,120,0,1,,,,,,,,,1,,,78,0
521280,note_off,240,0,4,,,,,,,,,4,,,60,0
521400,note_on,0,0,1,,,,,,,,,1,,,78,52
521400,note_off,120,0,1,,,,,,,,,1,,,76,0
521520,note_on,0,0,1,,,,,,,,,1,,,75,55
521520,note_off,120,0,1,,,,,,,,,1,,,78,0
521520,note_on,0,0,4,,,,,,,,,4,,,60,55
521520,note_off,240,0,4,,,,,,,,,4,,,61,0
521640,note_off,120,0,1,,,,,,,,,1,,,75,0
521640,note_on,0,0,1,,,,,,,,,1,,,78,57
521760,note_off,240,0,4,,,,,,,,,4,,,60,0
521760,note_on,0,0,1,,,,,,,,,1,,,76,60
521760,note_on,0,0,4,,,,,,,,,4,,,61,60
521760,note_off,120,0,1,,,,,,,,,1,,,78,0
521880,note_off,120,0,1,,,,,,,,,1,,,76,0
521880,note_on,0,0,1,,,,,,,,,1,,,78,63
522000,note_off,120,0,1,,,,,,,,,1,,,78,0
522000,note_on,0,0,1,,,,,,,,,1,,,75,65
522000,note_off,240,0,4,,,,,,,,,4,,,61,0
522000,note_on,0,0,4,,,,,,,,,4,,,60,65
522120,note_off,120,0,1,,,,,,,,,1,,,75,0
522120,note_on,0,0,1,,,,,,,,,1,,,78,68
522240,control_change,1440,0,5,,,,,,,64,127,5,,,,
522240,control_change,0,0,2,,,,,,,64,127,2,,,,
522240,control_change,1440,0,2,,,,,,,64,127,2,,,,
522240,control_change,120,0,1,,,,,,,64,127,1,,,,
522240,note_off,0,0,1,,,,,,,,,1,,,78,0
522240,note_on,0,0,1,,,,,,,,,1,,,76,73
522240,control_change,1440,0,3,,,,,,,64,127,3,,,,
522240,control_change,240,0,4,,,,,,,64,127,4,,,,
522240,note_off,0,0,4,,,,,,,,,4,,,60,0
522240,note_on,0,0,4,,,,,,,,,4,,,61,73
522480,note_off,240,0,5,,,,,,,,,5,,,57,0
522480,note_off,240,0,2,,,,,,,,,2,,,69,0
522600,note_off,360,0,1,,,,,,,,,1,,,76,0
522600,note_on,0,0,1,,,,,,,,,1,,,76,85
522720,note_on,0,0,1,,,,,,,,,1,,,81,91
522720,note_off,480,0,4,,,,,,,,,4,,,61,0
522720,note_off,120,0,1,,,,,,,,,1,,,76,0
522840,note_off,120,0,1,,,,,,,,,1,,,81,0
522840,set_tempo,2040,1,0,,,,,,394736,,,,,,,
522840,note_on,0,0,1,,,,,,,,,1,,,85,100
522936,note_off,96,0,1,,,,,,,,,1,,,85,0
522960,note_on,24,0,1,,,,,,,,,1,,,88,119
522960,set_tempo,120,1,0,,,,,,400000,,,,,,,
522960,note_on,0,0,5,,,,,,,,,5,,,64,119
522960,note_on,480,0,5,,,,,,,,,5,,,76,119
522960,note_on,240,0,4,,,,,,,,,4,,,73,119
523615,note_off,655,0,5,,,,,,,,,5,,,64,0
523620,control_change,660,0,1,,,,,,,64,0,1,,,,
523620,control_change,1140,0,2,,,,,,,64,0,2,,,,
523620,note_off,0,0,1,,,,,,,,,1,,,88,0
523620,control_change,1380,0,3,,,,,,,64,0,3,,,,
523620,note_off,0,0,5,,,,,,,,,5,,,76,0
523620,control_change,5,0,5,,,,,,,64,0,5,,,,
523620,control_change,0,0,2,,,,,,,64,0,2,,,,
523620,control_change,660,0,4,,,,,,,64,0,4,,,,
523620,note_off,0,0,4,,,,,,,,,4,,,73,0
523680,set_tempo,720,1,0,,,,,,389610,,,,,,,
523680,note_on,60,0,1,,,,,,,,,1,,,88,56
523680,note_on,60,0,4,,,,,,,,,4,,,74,56
523680,note_on,60,0,5,,,,,,,,,5,,,71,56
523800,note_off,120,0,1,,,,,,,,,1,,,88,0
523800,note_on,180,0,2,,,,,,,,,2,,,86,54
523836,note_off,156,0,4,,,,,,,,,4,,,74,0
523836,note_off,156,0,5,,,,,,,,,5,,,71,0
523878,note_off,78,0,2,,,,,,,,,2,,,86,0
523920,note_on,84,0,4,,,,,,,,,4,,,73,53
523920,note_on,84,0,5,,,,,,,,,5,,,69,53
523920,note_on,120,0,1,,,,,,,,,1,,,86,53
524040,note_on,162,0,2,,,,,,,,,2,,,85,52
524040,note_off,120,0,1,,,,,,,,,1,,,86,0
524076,note_off,156,0,4,,,,,,,,,4,,,73,0
524076,note_off,156,0,5,,,,,,,,,5,,,69,0
524118,note_off,78,0,2,,,,,,,,,2,,,85,0
524160,note_on,120,0,1,,,,,,,,,1,,,85,51
524160,note_on,84,0,5,,,,,,,,,5,,,68,51
524160,note_on,84,0,4,,,,,,,,,4,,,71,51
524280,note_on,162,0,2,,,,,,,,,2,,,83,49
524280,note_off,120,0,1,,,,,,,,,1,,,85,0
524316,note_off,156,0,4,,,,,,,,,4,,,71,0
524316,note_off,156,0,5,,,,,,,,,5,,,68,0
524358,note_off,78,0,2,,,,,,,,,2,,,83,0
524400,note_on,120,0,1,,,,,,,,,1,,,83,48
524400,note_on,84,0,4,,,,,,,,,4,,,69,48
524400,note_on,84,0,5,,,,,,,,,5,,,66,48
524520,note_off,120,0,1,,,,,,,,,1,,,83,0
524520,note_on,162,0,2,,,,,,,,,2,,,81,47
524556,note_off,156,0,4,,,,,,,,,4,,,69,0
524556,note_off,156,0,5,,,,,,,,,5,,,66,0
524598,note_off,78,0,2,,,,,,,,,2,,,81,0
524640,note_on,84,0,5,,,,,,,,,5,,,64,45
524640,note_on,84,0,4,,,,,,,,,4,,,68,45
524640,note_on,120,0,1,,,,,,,,,1,,,81,45
524760,note_on,162,0,2,,,,,,,,,2,,,80,44
524760,note_off,120,0,1,,,,,,,,,1,,,81,0
524796,note_off,156,0,4,,,,,,,,,4,,,68,0
524796,note_off,156,0,5,,,,,,,,,5,,,64,0
524838,note_off,78,0,2,,,,,,,,,2,,,80,0
524880,note_on,84,0,4,,,,,,,,,4,,,66,43
524880,note_on,120,0,1,,,,,,,,,1,,,80,43
524880,note_on,84,0,5,,,,,,,,,5,,,62,43
525000,note_on,162,0,2,,,,,,,,,2,,,78,42
525000,note_off,120,0,1,,,,,,,,,1,,,80,0
525036,note_off,156,0,5,,,,,,,,,5,,,62,0
525036,note_off,156,0,4,,,,,,,,,4,,,66,0
525078,note_off,78,0,2,,,,,,,,,2,,,78,0
525120,note_on,120,0,1,,,,,,,,,1,,,78,44
525120,note_on,84,0,5,,,,,,,,,5,,,61,44
525120,note_on,84,0,4,,,,,,,,,4,,,64,44
525240,note_on,162,0,2,,,,,,,,,2,,,76,46
525240,note_off,120,0,1,,,,,,,,,1,,,78,0
525276,note_off,156,0,4,,,,,,,,,4,,,64,0
525276,note_off,156,0,5,,,,,,,,,5,,,61,0
525318,note_off,78,0,2,,,,,,,,,2,,,76,0
525360,note_on,84,0,4,,,,,,,,,4,,,62,48
525360,note_on,84,0,5,,,,,,,,,5,,,59,48
525360,note_on,120,0,1,,,,,,,,,1,,,76,48
525480,note_off,120,0,1,,,,,,,,,1,,,76,0
525480,note_on,162,0,2,,,,,,,,,2,,,74,50
525516,note_off,156,0,4,,,,,,,,,4,,,62,0
525516,note_off,156,0,5,,,,,,,,,5,,,59,0
525558,note_off,78,0,2,,,,,,,,,2,,,74,0
525600,note_on,84,0,5,,,,,,,,,5,,,57,52
525600,note_on,120,0,1,,,,,,,,,1,,,74,52
525600,note_on,84,0,4,,,,,,,,,4,,,61,52
525720,note_on,162,0,2,,,,,,,,,2,,,73,54
525720,note_off,120,0,1,,,,,,,,,1,,,74,0
525756,note_off,156,0,4,,,,,,,,,4,,,61,0
525756,note_off,156,0,5,,,,,,,,,5,,,57,0
525798,note_off,78,0,2,,,,,,,,,2,,,73,0
525840,note_on,84,0,4,,,,,,,,,4,,,59,56
525840,note_on,120,0,1,,,,,,,,,1,,,73,56
525840,note_on,84,0,5,,,,,,,,,5,,,56,56
525960,note_on,162,0,2,,,,,,,,,2,,,71,57
525960,note_off,120,0,1,,,,,,,,,1,,,73,0
525996,note_off,156,0,4,,,,,,,,,4,,,59,0
525996,note_off,156,0,5,,,,,,,,,5,,,56,0
526038,note_off,78,0,2,,,,,,,,,2,,,71,0
526080,note_on,84,0,5,,,,,,,,,5,,,54,59
526080,note_on,120,0,1,,,,,,,,,1,,,71,59
526080,note_on,84,0,4,,,,,,,,,4,,,57,59
526200,note_on,162,0,2,,,,,,,,,2,,,69,61
526200,note_off,120,0,1,,,,,,,,,1,,,71,0
526236,note_off,156,0,4,,,,,,,,,4,,,57,0
526236,note_off,156,0,5,,,,,,,,,5,,,54,0
526278,note_off,78,0,2,,,,,,,,,2,,,69,0
526320,note_on,120,0,1,,,,,,,,,1,,,69,63
526320,note_on,84,0,4,,,,,,,,,4,,,56,63
526320,note_on,84,0,5,,,,,,,,,5,,,52,63
526440,note_off,120,0,1,,,,,,,,,1,,,69,0
526440,set_tempo,2760,1,0,,,,,,394736,,,,,,,
526440,note_on,162,0,2,,,,,,,,,2,,,68,65
526476,note_off,156,0,4,,,,,,,,,4,,,56,0
526476,note_off,156,0,5,,,,,,,,,5,,,52,0
526518,note_off,78,0,2,,,,,,,,,2,,,68,0
526560,note_on,0,0,3,,,,,,,,,3,,,59,46
526560,control_change,2940,0,3,,,,,,,64,127,3,,,,
526560,set_tempo,120,1,0,,,,,,389610,,,,,,,
526560,note_on,0,0,3,,,,,,,,,3,,,62,46
526560,control_change,42,0,2,,,,,,,64,127,2,,,,
526560,control_change,84,0,5,,,,,,,64,127,5,,,,
526560,note_on,0,0,5,,,,,,,,,5,,,52,46
526560,control_change,84,0,4,,,,,,,64,127,4,,,,
526560,note_on,0,0,4,,,,,,,,,4,,,56,46
526560,control_change,120,0,1,,,,,,,64,127,1,,,,
526716,note_off,156,0,5,,,,,,,,,5,,,52,0
526716,note_off,156,0,4,,,,,,,,,4,,,56,0
526716,note_off,0,0,3,,,,,,,,,3,,,62,0
526716,note_off,156,0,3,,,,,,,,,3,,,59,0
526800,note_on,84,0,5,,,,,,,,,5,,,52,48
526800,note_on,0,0,3,,,,,,,,,3,,,62,48
526800,note_on,84,0,3,,,,,,,,,3,,,59,48
526800,note_on,84,0,4,,,,,,,,,4,,,56,48
526956,note_off,156,0,4,,,,,,,,,4,,,56,0
526956,note_off,156,0,3,,,,,,,,,3,,,62,0
526956,note_off,0,0,3,,,,,,,,,3,,,59,0
526956,note_off,156,0,5,,,,,,,,,5,,,52,0
527040,note_on,84,0,4,,,,,,,,,4,,,56,49
527040,note_on,84,0,3,,,,,,,,,3,,,62,49
527040,note_on,0,0,3,,,,,,,,,3,,,59,49
527040,note_on,84,0,5,,,,,,,,,5,,,52,49
527040,note_on,480,0,1,,,,,,,,,1,,,71,49
527196,note_off,156,0,3,,,,,,,,,3,,,59,0
527196,note_off,156,0,5,,,,,,,,,5,,,52,0
527196,note_off,0,0,3,,,,,,,,,3,,,62,0
527196,note_off,156,0,4,,,,,,,,,4,,,56,0
527220,control_change,180,0,1,,,,,,,64,0,1,,,,
527220,control_change,24,0,3,,,,,,,64,0,3,,,,
527220,control_change,660,0,2,,,,,,,64,0,2,,,,
527220,control_change,24,0,5,,,,,,,64,0,5,,,,
527220,control_change,24,0,4,,,,,,,64,0,4,,,,
527280,note_off,60,0,1,,,,,,,,,1,,,71,0
527280,note_on,60,0,3,,,,,,,,,3,,,59,58
527280,note_on,60,0,5,,,,,,,,,5,,,53,58
527280,note_on,0,0,1,,,,,,,,,1,,,74,58
527280,note_on,0,0,3,,,,,,,,,3,,,62,58
527280,note_on,60,0,4,,,,,,,,,4,,,57,58
527436,note_off,0,0,3,,,,,,,,,3,,,59,0
527436,note_off,156,0,4,,,,,,,,,4,,,57,0
527436,note_off,156,0,3,,,,,,,,,3,,,62,0
527436,note_off,156,0,5,,,,,,,,,5,,,53,0
527520,note_on,84,0,3,,,,,,,,,3,,,59,53
527520,note_on,0,0,3,,,,,,,,,3,,,62,53
527520,note_on,84,0,4,,,,,,,,,4,,,57,53
527520,note_on,84,0,5,,,,,,,,,5,,,53,53
527676,note_off,156,0,5,,,,,,,,,5,,,53,0
527676,note_off,156,0,3,,,,,,,,,3,,,62,0
527676,note_off,0,0,3,,,,,,,,,3,,,59,0
527676,note_off,156,0,4,,,,,,,,,4,,,57,0
527760,note_on,0,0,1,,,,,,,,,1,,,71,54
527760,note_off,480,0,1,,,,,,,,,1,,,74,0
527760,note_on,84,0,5,,,,,,,,,5,,,53,54
527760,note_on,0,0,3,,,,,,,,,3,,,62,54
527760,note_on,84,0,3,,,,,,,,,3,,,59,54
527760,note_on,84,0,4,,,,,,,,,4,,,57,54
527916,note_off,156,0,4,,,,,,,,,4,,,57,0
527916,note_off,156,0,5,,,,,,,,,5,,,53,0
527916,note_off,0,0,3,,,,,,,,,3,,,59,0
527916,note_off,156,0,3,,,,,,,,,3,,,62,0
527952,note_off,192,0,1,,,,,,,,,1,,,71,0
528000,control_change,84,0,5,,,,,,,64,127,5,,,,
528000,control_change,780,0,2,,,,,,,64,127,2,,,,
528000,note_on,0,0,4,,,,,,,,,4,,,56,56
528000,control_change,48,0,1,,,,,,,64,127,1,,,,
528000,note_on,0,0,3,,,,,,,,,3,,,62,56
528000,note_on,0,0,3,,,,,,,,,3,,,59,56
528000,control_change,84,0,3,,,,,,,64,127,3,,,,
528000,control_change,84,0,4,,,,,,,64,127,4,,,,
528000,note_on,0,0,5,,,,,,,,,5,,,52,56
528156,note_off,156,0,4,,,,,,,,,4,,,56,0
528156,note_off,156,0,5,,,,,,,,,5,,,52,0
528156,note_off,156,0,3,,,,,,,,,3,,,62,0
528156,note_off,0,0,3,,,,,,,,,3,,,59,0
528240,note_on,84,0,3,,,,,,,,,3,,,62,58
528240,note_on,0,0,3,,,,,,,,,3,,,59,58
528240,note_on,84,0,5,,,,,,,,,5,,,52,58
528240,note_on,84,0,4,,,,,,,,,4,,,56,58
528396,note_off,0,0,3,,,,,,,,,3,,,62,0
528396,note_off,156,0,5,,,,,,,,,5,,,52,0
528396,note_off,156,0,3,,,,,,,,,3,,,59,0
528396,note_off,156,0,4,,,,,,,,,4,,,56,0
528480,note_on,84,0,4,,,,,,,,,4,,,56,59
528480,note_on,84,0,3,,,,,,,,,3,,,62,59
528480,note_on,0,0,3,,,,,,,,,3,,,59,59
528480,note_on,0,0,1,,,,,,,,,1,,,71,59
528480,note_on,480,0,1,,,,,,,,,1,,,83,59
528480,note_on,84,0,5,,,,,,,,,5,,,52,59
528636,note_off,156,0,4,,,,,,,,,4,,,56,0
528636,note_off,0,0,3,,,,,,,,,3,,,62,0
528636,note_off,156,0,3,,,,,,,,,3,,,59,0
528636,note_off,156,0,5,,,,,,,,,5,,,52,0
528660,control_change,24,0,5,,,,,,,64,0,5,,,,
528660,control_change,180,0,1,,,,,,,64,0,1,,,,
528660,control_change,24,0,4,,,,,,,64,0,4,,,,
528660,control_change,24,0,3,,,,,,,64,0,3,,,,
528660,control_change,660,0,2,,,,,,,64,0,2,,,,
528720,note_off,0,0,1,,,,,,,,,1,,,83,0
528720,note_off,60,0,1,,,,,,,,,1,,,71,0
528720,note_on,60,0,5,,,,,,,,,5,,,53,71
528720,note_on,0,0,1,,,,,,,,,1,,,74,71
528720,note_on,60,0,4,,,,,,,,,4,,,57,71
528720,note_on,0,0,3,,,,,,,,,3,,,59,71
528720,note_on,60,0,3,,,,,,,,,3,,,62,71
528720,note_on,0,0,1,,,,,,,,,1,,,86,71
528876,note_off,156,0,4,,,,,,,,,4,,,57,0
528876,note_off,156,0,3,,,,,,,,,3,,,59,0
528876,note_off,0,0,3,,,,,,,,,3,,,62,0
528876,note_off,156,0,5,,,,,,,,,5,,,53,0
528960,note_on,84,0,4,,,,,,,,,4,,,57,63
528960,note_on,84,0,5,,,,,,,,,5,,,53,63
528960,note_on,84,0,3,,,,,,,,,3,,,62,63
528960,note_on,0,0,3,,,,,,,,,3,,,59,63
529116,note_off,156,0,5,,,,,,,,,5,,,53,0
529116,note_off,156,0,4,,,,,,,,,4,,,57,0
529116,note_off,156,0,3,,,,,,,,,3,,,59,0
529116,note_off,0,0,3,,,,,,,,,3,,,62,0
529200,note_on,84,0,4,,,,,,,,,4,,,57,64
529200,note_on,84,0,3,,,,,,,,,3,,,62,64
529200,note_off,0,0,1,,,,,,,,,1,,,74,0
529200,note_on,0,0,1,,,,,,,,,1,,,83,64
529200,note_on,0,0,1,,,,,,,,,1,,,71,64
529200,note_on,84,0,5,,,,,,,,,5,,,53,64
529200,note_on,0,0,3,,,,,,,,,3,,,59,64
529200,note_off,480,0,1,,,,,,,,,1,,,86,0
529356,note_off,156,0,4,,,,,,,,,4,,,57,0
529356,note_off,156,0,5,,,,,,,,,5,,,53,0
529356,note_off,156,0,3,,,,,,,,,3,,,59,0
529356,note_off,0,0,3,,,,,,,,,3,,,62,0
529392,note_off,192,0,1,,,,,,,,,1,,,71,0
529392,note_off,0,0,1,,,,,,,,,1,,,83,0
529440,control_change,48,0,1,,,,,,,64,127,1,,,,
529440,control_change,84,0,5,,,,,,,64,127,5,,,,
529440,control_change,780,0,2,,,,,,,64,127,2,,,,
529440,note_on,0,0,5,,,,,,,,,5,,,52,66
529440,control_change,84,0,4,,,,,,,64,127,4,,,,
529440,control_change,84,0,3,,,,,,,64,127,3,,,,
529440,note_on,0,0,3,,,,,,,,,3,,,62,66
529440,note_on,0,0,3,,,,,,,,,3,,,59,66
529440,note_on,0,0,4,,,,,,,,,4,,,56,66
529596,note_off,156,0,3,,,,,,,,,3,,,59,0
529596,note_off,0,0,3,,,,,,,,,3,,,62,0
529596,note_off,156,0,5,,,,,,,,,5,,,52,0
529596,note_off,156,0,4,,,,,,,,,4,,,56,0
529680,note_on,84,0,5,,,,,,,,,5,,,52,68
529680,note_on,84,0,3,,,,,,,,,3,,,59,68
529680,note_on,0,0,3,,,,,,,,,3,,,62,68
529680,note_on,84,0,4,,,,,,,,,4,,,56,68
529836,note_off,0,0,3,,,,,,,,,3,,,59,0
529836,note_off,156,0,5,,,,,,,,,5,,,52,0
529836,note_off,156,0,4,,,,,,,,,4,,,56,0
529836,note_off,156,0,3,,,,,,,,,3,,,62,0
529920,note_on,84,0,5,,,,,,,,,5,,,52,69
529920,note_on,84,0,4,,,,,,,,,4,,,56,69
529920,note_on,480,0,1,,,,,,,,,1,,,71,69
529920,note_on,84,0,3,,,,,,,,,3,,,59,69
529920,note_on,0,0,3,,,,,,,,,3,,,62,69
530076,note_off,156,0,4,,,,,,,,,4,,,56,0
530076,note_off,156,0,5,,,,,,,,,5,,,52,0
530076,note_off,156,0,3,,,,,,,,,3,,,62,0
530076,note_off,0,0,3,,,,,,,,,3,,,59,0
530100,control_change,660,0,2,,,,,,,64,0,2,,,,
530100,control_change,180,0,1,,,,,,,64,0,1,,,,
530100,control_change,24,0,4,,,,,,,64,0,4,,,,
530100,control_change,24,0,3,,,,,,,64,0,3,,,,
530100,control_change,24,0,5,,,,,,,64,0,5,,,,
530160,note_on,60,0,3,,,,,,,,,3,,,59,71
530160,note_on,60,0,5,,,,,,,,,5,,,53,71
530160,note_on,0,0,3,,,,,,,,,3,,,62,71
530160,note_on,0,0,1,,,,,,,,,1,,,74,79
530160,note_off,60,0,1,,,,,,,,,1,,,71,0
530160,note_on,60,0,4,,,,,,,,,4,,,57,71
530316,note_off,156,0,5,,,,,,,,,5,,,53,0
530316,note_off,156,0,4,,,,,,,,,4,,,57,0
530316,note_off,0,0,3,,,,,,,,,3,,,59,0
530316,note_off,156,0,3,,,,,,,,,3,,,62,0
530400,note_on,84,0,5,,,,,,,,,5,,,53,72
530400,note_on,0,0,3,,,,,,,,,3,,,62,72
530400,note_on,84,0,3,,,,,,,,,3,,,59,72
530400,note_on,84,0,4,,,,,,,,,4,,,57,72
530556,note_off,156,0,5,,,,,,,,,5,,,53,0
530556,note_off,156,0,4,,,,,,,,,4,,,57,0
530556,note_off,156,0,3,,,,,,,,,3,,,62,0
530556,note_off,0,0,3,,,,,,,,,3,,,59,0
530640,note_on,84,0,5,,,,,,,,,5,,,53,74
530640,note_on,84,0,4,,,,,,,,,4,,,57,74
530640,note_on,84,0,3,,,,,,,,,3,,,62,74
530640,note_on,0,0,3,,,,,,,,,3,,,59,74
530640,note_off,480,0,1,,,,,,,,,1,,,74,0
530640,note_on,0,0,1,,,,,,,,,1,,,71,72
530796,note_off,156,0,5,,,,,,,,,5,,,53,0
530796,note_off,156,0,3,,,,,,,,,3,,,59,0
530796,note_off,0,0,3,,,,,,,,,3,,,62,0
530796,note_off,156,0,4,,,,,,,,,4,,,57,0
530832,note_off,192,0,1,,,,,,,,,1,,,71,0
530880,control_change,48,0,1,,,,,,,64,127,1,,,,
530880,control_change,84,0,4,,,,,,,64,127,4,,,,
530880,note_on,0,0,4,,,,,,,,,4,,,56,76
530880,control_change,84,0,5,,,,,,,64,127,5,,,,
530880,note_on,0,0,5,,,,,,,,,5,,,52,76
530880,note_on,0,0,3,,,,,,,,,3,,,62,76
530880,control_change,780,0,2,,,,,,,64,127,2,,,,
530880,note_on,0,0,3,,,,,,,,,3,,,59,76
530880,control_change,84,0,3,,,,,,,64,127,3,,,,
531036,note_off,0,0,3,,,,,,,,,3,,,59,0
531036,note_off,156,0,5,,,,,,,,,5,,,52,0
531036,note_off,156,0,4,,,,,,,,,4,,,56,0
531036,note_off,156,0,3,,,,,,,,,3,,,62,0
531120,note_on,84,0,4,,,,,,,,,4,,,56,77
531120,note_on,84,0,5,,,,,,,,,5,,,52,77
531120,note_on,0,0,3,,,,,,,,,3,,,62,77
531120,note_on,84,0,3,,,,,,,,,3,,,59,77
531276,note_off,156,0,5,,,,,,,,,5,,,52,0
531276,note_off,0,0,3,,,,,,,,,3,,,59,0
531276,note_off,156,0,3,,,,,,,,,3,,,62,0
531276,note_off,156,0,4,,,,,,,,,4,,,56,0
531360,note_on,0,0,3,,,,,,,,,3,,,62,79
531360,note_on,84,0,3,,,,,,,,,3,,,59,79
531360,note_on,0,0,1,,,,,,,,,1,,,83,79
531360,note_on,84,0,4,,,,,,,,,4,,,56,79
531360,note_on,84,0,5,,,,,,,,,5,,,52,79
531360,note_on,480,0,1,,,,,,,,,1,,,71,79
531516,note_off,156,0,4,,,,,,,,,4,,,56,0
531516,note_off,156,0,5,,,,,,,,,5,,,52,0
531516,note_off,156,0,3,,,,,,,,,3,,,62,0
531516,note_off,0,0,3,,,,,,,,,3,,,59,0
531540,control_change,24,0,3,,,,,,,64,0,3,,,,
531540,control_change,180,0,1,,,,,,,64,0,1,,,,
531540,control_change,24,0,4,,,,,,,64,0,4,,,,
531540,control_change,660,0,2,,,,,,,64,0,2,,,,
531540,control_change,24,0,5,,,,,,,64,0,5,,,,
531600,note_on,60,0,4,,,,,,,,,4,,,56,89
531600,note_on,0,0,1,,,,,,,,,1,,,74,89
531600,note_on,0,0,1,,,,,,,,,1,,,86,89
531600,note_off,0,0,1,,,,,,,,,1,,,71,0
531600,note_off,60,0,1,,,,,,,,,1,,,83,0
531600,note_on,60,0,3,,,,,,,,,3,,,59,89
531600,note_on,0,0,3,,,,,,,,,3,,,62,89
531600,note_on,60,0,5,,,,,,,,,5,,,53,89
531756,note_off,156,0,3,,,,,,,,,3,,,62,0
531756,note_off,156,0,4,,,,,,,,,4,,,56,0
531756,note_off,156,0,5,,,,,,,,,5,,,53,0
531756,note_off,0,0,3,,,,,,,,,3,,,59,0
531840,note_on,84,0,5,,,,,,,,,5,,,53,82
531840,note_on,84,0,4,,,,,,,,,4,,,56,82
531840,note_on,84,0,3,,,,,,,,,3,,,59,82
531840,note_on,0,0,3,,,,,,,,,3,,,62,82
531996,note_off,156,0,4,,,,,,,,,4,,,56,0
531996,note_off,156,0,3,,,,,,,,,3,,,62,0
531996,note_off,0,0,3,,,,,,,,,3,,,59,0
531996,note_off,156,0,5,,,,,,,,,5,,,53,0
532080,note_on,0,0,1,,,,,,,,,1,,,71,84
532080,note_on,84,0,3,,,,,,,,,3,,,59,84
532080,note_on,0,0,3,,,,,,,,,3,,,62,84
532080,note_off,480,0,1,,,,,,,,,1,,,74,0
532080,note_on,0,0,1,,,,,,,,,1,,,83,84
532080,note_off,0,0,1,,,,,,,,,1,,,86,0
532080,note_on,84,0,4,,,,,,,,,4,,,56,84
532080,note_on,84,0,5,,,,,,,,,5,,,53,84
532200,set_tempo,5640,1,0,,,,,,394736,,,,,,,
532236,note_off,0,0,3,,,,,,,,,3,,,59,0
532236,note_off,156,0,3,,,,,,,,,3,,,62,0
532236,note_off,156,0,4,,,,,,,,,4,,,56,0
532236,note_off,156,0,5,,,,,,,,,5,,,53,0
532272,note_off,0,0,1,,,,,,,,,1,,,71,0
532272,note_off,192,0,1,,,,,,,,,1,,,83,0
532320,control_change,84,0,3,,,,,,,64,127,3,,,,
532320,note_on,0,0,4,,,,,,,,,4,,,66,98
532320,note_on,0,0,4,,,,,,,,,4,,,71,98
532320,control_change,84,0,4,,,,,,,64,127,4,,,,
532320,control_change,84,0,5,,,,,,,64,127,5,,,,
532320,note_on,0,0,5,,,,,,,,,5,,,54,98
532320,set_tempo,120,1,0,,,,,,389610,,,,,,,
532320,control_change,48,0,1,,,,,,,64,127,1,,,,
532320,control_change,780,0,2,,,,,,,64,127,2,,,,
532320,note_on,0,0,4,,,,,,,,,4,,,62,98
532320,note_on,0,0,1,,,,,,,,,1,,,78,98
532476,note_off,156,0,5,,,,,,,,,5,,,54,0
532560,note_on,84,0,5,,,,,,,,,5,,,54,87
532716,note_off,156,0,5,,,,,,,,,5,,,54,0
532800,note_on,84,0,5,,,,,,,,,5,,,54,89
532800,note_off,480,0,1,,,,,,,,,1,,,78,0
532800,note_on,0,0,1,,,,,,,,,1,,,76,89
532920,note_on,0,0,1,,,,,,,,,1,,,74,90
532920,note_off,120,0,1,,,,,,,,,1,,,76,0
532956,note_off,156,0,5,,,,,,,,,5,,,54,0
532980,control_change,60,0,1,,,,,,,64,0,1,,,,
532980,control_change,660,0,4,,,,,,,64,0,4,,,,
532980,control_change,660,0,3,,,,,,,64,0,3,,,,
532980,control_change,24,0,5,,,,,,,64,0,5,,,,
532980,control_change,660,0,2,,,,,,,64,0,2,,,,
533005,note_off,25,0,4,,,,,,,,,4,,,62,0
533010,note_off,0,0,4,,,,,,,,,4,,,71,0
533010,note_off,5,0,4,,,,,,,,,4,,,66,0
533016,note_off,36,0,1,,,,,,,,,1,,,74,0
533040,note_on,0,0,1,,,,,,,,,1,,,73,102
533040,control_change,60,0,3,,,,,,,64,127,3,,,,
533040,control_change,24,0,1,,,,,,,64,127,1,,,,
533040,note_on,0,0,4,,,,,,,,,4,,,64,102
533040,note_on,0,0,4,,,,,,,,,4,,,67,102
533040,note_on,0,0,4,,,,,,,,,4,,,70,102
533040,control_change,30,0,4,,,,,,,64,127,4,,,,
533040,control_change,60,0,2,,,,,,,64,127,2,,,,
533040,control_change,60,0,5,,,,,,,64,127,5,,,,
533040,note_on,0,0,5,,,,,,,,,5,,,54,102
533196,note_off,156,0,5,,,,,,,,,5,,,54,0
533280,note_on,84,0,5,,,,,,,,,5,,,54,92
533436,note_off,156,0,5,,,,,,,,,5,,,54,0
533520,note_on,84,0,5,,,,,,,,,5,,,54,94
533520,note_off,480,0,1,,,,,,,,,1,,,73,0
533520,note_on,0,0,1,,,,,,,,,1,,,74,94
533640,set_tempo,1320,1,0,,,,,,394736,,,,,,,
533640,note_off,120,0,1,,,,,,,,,1,,,74,0
533640,note_on,0,0,1,,,,,,,,,1,,,76,95
533676,note_off,156,0,5,,,,,,,,,5,,,54,0
533700,control_change,24,0,5,,,,,,,64,0,5,,,,
533700,control_change,660,0,2,,,,,,,64,0,2,,,,
533700,control_change,660,0,4,,,,,,,64,0,4,,,,
533700,control_change,660,0,3,,,,,,,64,0,3,,,,
533700,control_change,60,0,1,,,,,,,64,0,1,,,,
533730,note_off,30,0,4,,,,,,,,,4,,,64,0
533736,note_off,36,0,1,,,,,,,,,1,,,76,0
533740,note_off,0,0,4,,,,,,,,,4,,,70,0
533740,note_off,10,0,4,,,,,,,,,4,,,67,0
533760,note_on,0,0,1,,,,,,,,,1,,,78,109
533760,note_on,0,0,4,,,,,,,,,4,,,66,109
533760,control_change,20,0,4,,,,,,,64,127,4,,,,
533760,control_change,60,0,3,,,,,,,64,127,3,,,,
533760,set_tempo,120,1,0,,,,,,389610,,,,,,,
533760,control_change,24,0,1,,,,,,,64,127,1,,,,
533760,note_on,0,0,5,,,,,,,,,5,,,54,109
533760,control_change,60,0,5,,,,,,,64,127,5,,,,
533760,note_on,0,0,4,,,,,,,,,4,,,71,109
533760,note_on,0,0,4,,,,,,,,,4,,,62,109
533760,control_change,60,0,2,,,,,,,64,127,2,,,,
533916,note_off,156,0,5,,,,,,,,,5,,,54,0
534000,note_on,84,0,5,,,,,,,,,5,,,54,97
534156,note_off,156,0,5,,,,,,,,,5,,,54,0
534240,note_on,84,0,5,,,,,,,,,5,,,54,99
534240,note_off,480,0,1,,,,,,,,,1,,,78,0
534240,note_on,0,0,1,,,,,,,,,1,,,76,99
534360,note_off,120,0,1,,,,,,,,,1,,,76,0
534360,note_on,0,0,1,,,,,,,,,1,,,74,100
534396,note_off,156,0,5,,,,,,,,,5,,,54,0
534420,control_change,660,0,4,,,,,,,64,0,4,,,,
534420,control_change,660,0,2,,,,,,,64,0,2,,,,
534420,control_change,24,0,5,,,,,,,64,0,5,,,,
534420,control_change,60,0,1,,,,,,,64,0,1,,,,
534420,control_change,660,0,3,,,,,,,64,0,3,,,,
534445,note_off,25,0,4,,,,,,,,,4,,,62,0
534450,note_off,0,0,4,,,,,,,,,4,,,66,0
534450,note_off,5,0,4,,,,,,,,,4,,,71,0
534456,note_off,36,0,1,,,,,,,,,1,,,74,0
534480,control_change,60,0,5,,,,,,,64,127,5,,,,
534480,note_on,0,0,5,,,,,,,,,5,,,54,112
534480,control_change,60,0,2,,,,,,,64,127,2,,,,
534480,note_on,0,0,4,,,,,,,,,4,,,67,112
534480,note_on,0,0,4,,,,,,,,,4,,,70,112
534480,control_change,30,0,4,,,,,,,64,127,4,,,,
534480,control_change,24,0,1,,,,,,,64,127,1,,,,
534480,control_change,60,0,3,,,,,,,64,127,3,,,,
534480,note_on,0,0,1,,,,,,,,,1,,,73,112
534480,note_on,0,0,4,,,,,,,,,4,,,64,112
534636,note_off,156,0,5,,,,,,,,,5,,,54,0
534720,note_on,84,0,5,,,,,,,,,5,,,54,102
534876,note_off,156,0,5,,,,,,,,,5,,,54,0
534960,note_on,84,0,5,,,,,,,,,5,,,54,104
534960,note_off,480,0,1,,,,,,,,,1,,,73,0
534960,note_on,0,0,1,,,,,,,,,1,,,74,104
535080,set_tempo,1320,1,0,,,,,,394736,,,,,,,
535080,note_on,0,0,1,,,,,,,,,1,,,76,105
535080,note_off,120,0,1,,,,,,,,,1,,,74,0
535116,note_off,156,0,5,,,,,,,,,5,,,54,0
535140,control_change,60,0,1,,,,,,,64,0,1,,,,
535140,control_change,660,0,3,,,,,,,64,0,3,,,,
535140,control_change,660,0,4,,,,,,,64,0,4,,,,
535140,control_change,24,0,5,,,,,,,64,0,5,,,,
535140,control_change,660,0,2,,,,,,,64,0,2,,,,
535170,note_off,30,0,4,,,,,,,,,4,,,64,0
535176,note_off,36,0,1,,,,,,,,,1,,,76,0
535180,note_off,10,0,4,,,,,,,,,4,,,70,0
535180,note_off,0,0,4,,,,,,,,,4,,,67,0
535200,note_on,0,0,2,,,,,,,,,2,,,71,106
535200,set_tempo,120,1,0,,,,,,389610,,,,,,,
535200,note_on,0,0,2,,,,,,,,,2,,,65,106
535200,control_change,60,0,2,,,,,,,64,127,2,,,,
535200,note_on,0,0,5,,,,,,,,,5,,,54,106
535200,control_change,60,0,5,,,,,,,64,127,5,,,,
535200,note_on,0,0,2,,,,,,,,,2,,,68,106
535200,control_change,24,0,1,,,,,,,64,127,1,,,,
535200,note_on,0,0,2,,,,,,,,,2,,,74,106
535200,note_on,0,0,4,,,,,,,,,4,,,62,106
535200,control_change,20,0,4,,,,,,,64,127,4,,,,
535200,note_on,0,0,1,,,,,,,,,1,,,77,106
535200,control_change,60,0,3,,,,,,,64,127,3,,,,
535356,note_off,156,0,2,,,,,,,,,2,,,71,0
535356,note_off,0,0,2,,,,,,,,,2,,,65,0
535356,note_off,156,0,1,,,,,,,,,1,,,77,0
535356,note_off,0,0,2,,,,,,,,,2,,,68,0
535356,note_off,0,0,2,,,,,,,,,2,,,74,0
535356,note_off,156,0,4,,,,,,,,,4,,,62,0
535356,note_off,156,0,5,,,,,,,,,5,,,54,0
535440,note_on,0,0,2,,,,,,,,,2,,,65,108
535440,note_on,0,0,2,,,,,,,,,2,,,74,108
535440,note_on,84,0,5,,,,,,,,,5,,,54,108
535440,note_on,0,0,2,,,,,,,,,2,,,71,108
535440,note_on,84,0,2,,,,,,,,,2,,,68,108
535440,note_on,84,0,1,,,,,,,,,1,,,77,108
535440,note_on,84,0,4,,,,,,,,,4,,,62,108
535596,note_off,156,0,5,,,,,,,,,5,,,54,0
535596,note_off,156,0,4,,,,,,,,,4,,,62,0
535596,note_off,0,0,2,,,,,,,,,2,,,74,0
535596,note_off,156,0,2,,,,,,,,,2,,,71,0
535596,note_off,156,0,1,,,,,,,,,1,,,77,0
535596,note_off,0,0,2,,,,,,,,,2,,,68,0
535596,note_off,0,0,2,,,,,,,,,2,,,65,0
535680,note_on,0,0,2,,,,,,,,,2,,,71,111
535680,note_on,84,0,2,,,,,,,,,2,,,68,111
535680,note_on,84,0,4,,,,,,,,,4,,,62,111
535680,note_on,84,0,1,,,,,,,,,1,,,77,111
535680,note_on,84,0,5,,,,,,,,,5,,,54,111
535680,note_on,0,0,2,,,,,,,,,2,,,74,111
535680,note_on,0,0,2,,,,,,,,,2,,,65,111
535800,control_change,600,0,3,,,,,,,64,0,3,,,,
535800,control_change,120,0,2,,,,,,,64,0,2,,,,
535800,control_change,120,0,1,,,,,,,64,0,1,,,,
535800,control_change,120,0,4,,,,,,,64,0,4,,,,
535800,control_change,120,0,5,,,,,,,64,0,5,,,,
535836,note_off,36,0,4,,,,,,,,,4,,,62,0
535836,note_off,36,0,5,,,,,,,,,5,,,54,0
535836,note_off,36,0,1,,,,,,,,,1,,,77,0
535836,note_off,36,0,2,,,,,,,,,2,,,71,0
535836,note_off,0,0,2,,,,,,,,,2,,,65,0
535836,note_off,0,0,2,,,,,,,,,2,,,68,0
535836,note_off,0,0,2,,,,,,,,,2,,,74,0
535920,note_on,0,0,2,,,,,,,,,2,,,65,114
535920,note_on,0,0,2,,,,,,,,,2,,,71,114
535920,control_change,84,0,2,,,,,,,64,127,2,,,,
535920,note_on,0,0,1,,,,,,,,,1,,,77,114
535920,note_on,0,0,2,,,,,,,,,2,,,74,114
535920,note_on,0,0,2,,,,,,,,,2,,,68,114
535920,control_change,84,0,5,,,,,,,64,127,5,,,,
535920,control_change,84,0,1,,,,,,,64,127,1,,,,
535920,control_change,84,0,4,,,,,,,64,127,4,,,,
535920,note_on,0,0,5,,,,,,,,,5,,,54,114
535920,note_on,0,0,4,,,,,,,,,4,,,62,114
535920,control_change,120,0,3,,,,,,,64,127,3,,,,
536076,note_off,0,0,2,,,,,,,,,2,,,74,0
536076,note_off,156,0,4,,,,,,,,,4,,,62,0
536076,note_off,156,0,2,,,,,,,,,2,,,71,0
536076,note_off,156,0,1,,,,,,,,,1,,,77,0
536076,note_off,156,0,5,,,,,,,,,5,,,54,0
536076,note_off,0,0,2,,,,,,,,,2,,,65,0
536076,note_off,0,0,2,,,,,,,,,2,,,68,0
536160,note_on,0,0,2,,,,,,,,,2,,,71,117
536160,note_on,0,0,2,,,,,,,,,2,,,65,117
536160,note_on,84,0,2,,,,,,,,,2,,,68,117
536160,note_on,84,0,1,,,,,,,,,1,,,77,117
536160,note_on,84,0,4,,,,,,,,,4,,,62,117
536160,note_on,84,0,5,,,,,,,,,5,,,54,117
536160,note_on,0,0,2,,,,,,,,,2,,,74,117
536316,note_off,156,0,1,,,,,,,,,1,,,77,0
536316,note_off,156,0,2,,,,,,,,,2,,,71,0
536316,note_off,0,0,2,,,,,,,,,2,,,65,0
536316,note_off,156,0,5,,,,,,,,,5,,,54,0
536316,note_off,156,0,4,,,,,,,,,4,,,62,0
536316,note_off,0,0,2,,,,,,,,,2,,,74,0
536316,note_off,0,0,2,,,,,,,,,2,,,68,0
536400,note_on,84,0,4,,,,,,,,,4,,,62,120
536400,note_on,84,0,1,,,,,,,,,1,,,77,120
536400,note_on,84,0,2,,,,,,,,,2,,,68,120
536400,note_on,0,0,2,,,,,,,,,2,,,65,120
536400,note_on,0,0,2,,,,,,,,,2,,,74,120
536400,note_on,0,0,2,,,,,,,,,2,,,71,120
536400,note_on,84,0,5,,,,,,,,,5,,,54,120
536520,control_change,120,0,5,,,,,,,64,0,5,,,,
536520,control_change,600,0,3,,,,,,,64,0,3,,,,
536520,control_change,120,0,2,,,,,,,64,0,2,,,,
536520,set_tempo,1320,1,0,,,,,,394736,,,,,,,
536520,control_change,120,0,1,,,,,,,64,0,1,,,,
536520,control_change,120,0,4,,,,,,,64,0,4,,,,
536556,note_off,0,0,2,,,,,,,,,2,,,65,0
536556,note_off,0,0,2,,,,,,,,,2,,,68,0
536556,note_off,36,0,4,,,,,,,,,4,,,62,0
536556,note_off,36,0,1,,,,,,,,,1,,,77,0
536556,note_off,36,0,5,,,,,,,,,5,,,54,0
536556,note_off,36,0,2,,,,,,,,,2,,,71,0
536556,note_off,0,0,2,,,,,,,,,2,,,74,0
536640,note_on,84,0,1,,,,,,,,,1,,,78,126
536640,note_on,84,0,4,,,,,,,,,4,,,61,126
536640,note_on,84,0,5,,,,,,,,,5,,,54,126
536640,note_on,84,0,2,,,,,,,,,2,,,73,126
536640,note_on,0,0,2,,,,,,,,,2,,,70,126
536640,note_on,0,0,2,,,,,,,,,2,,,66,126
536880,note_off,240,0,5,,,,,,,,,5,,,54,0
536880,note_off,0,0,2,,,,,,,,,2,,,73,0
536880,note_off,240,0,4,,,,,,,,,4,,,61,0
536880,note_off,0,0,2,,,,,,,,,2,,,66,0
536880,note_off,240,0,2,,,,,,,,,2,,,70,0
536880,note_off,240,0,1,,,,,,,,,1,,,78,0
538080,note_on,0,0,2,,,,,,,,,2,,,62,53
538080,note_on,0,0,2,,,,,,,,,2,,,56,53
538080,control_change,1200,0,2,,,,,,,64,127,2,,,,
538080,control_change,1200,0,1,,,,,,,64,127,1,,,,
538080,note_on,0,0,1,,,,,,,,,1,,,65,53
538080,note_on,0,0,5,,,,,,,,,5,,,42,53
538080,control_change,1200,0,5,,,,,,,64,127,5,,,,
538080,control_change,1560,0,3,,,,,,,64,127,3,,,,
538080,control_change,1200,0,4,,,,,,,64,127,4,,,,
538080,note_on,0,0,4,,,,,,,,,4,,,50,53
538080,note_on,0,0,2,,,,,,,,,2,,,59,53
538080,note_on,0,0,2,,,,,,,,,2,,,53,53
538236,note_off,156,0,1,,,,,,,,,1,,,65,0
538236,note_off,0,0,2,,,,,,,,,2,,,59,0
538236,note_off,0,0,2,,,,,,,,,2,,,62,0
538236,note_off,156,0,4,,,,,,,,,4,,,50,0
538236,note_off,0,0,2,,,,,,,,,2,,,53,0
538236,note_off,156,0,5,,,,,,,,,5,,,42,0
538236,note_off,156,0,2,,,,,,,,,2,,,56,0
538320,note_on,84,0,5,,,,,,,,,5,,,42,51
538320,note_on,84,0,4,,,,,,,,,4,,,50,51
538320,note_on,84,0,2,,,,,,,,,2,,,59,51
538320,note_on,0,0,2,,,,,,,,,2,,,62,51
538320,note_on,0,0,2,,,,,,,,,2,,,53,51
538320,note_on,84,0,1,,,,,,,,,1,,,65,51
538320,note_on,0,0,2,,,,,,,,,2,,,56,51
538476,note_off,156,0,5,,,,,,,,,5,,,42,0
538476,note_off,0,0,2,,,,,,,,,2,,,53,0
538476,note_off,0,0,2,,,,,,,,,2,,,62,0
538476,note_off,0,0,2,,,,,,,,,2,,,59,0
538476,note_off,156,0,4,,,,,,,,,4,,,50,0
538476,note_off,156,0,2,,,,,,,,,2,,,56,0
538476,note_off,156,0,1,,,,,,,,,1,,,65,0
538560,note_on,84,0,2,,,,,,,,,2,,,59,48
538560,note_on,0,0,2,,,,,,,,,2,,,53,48
538560,note_on,0,0,2,,,,,,,,,2,,,56,48
538560,note_on,0,0,2,,,,,,,,,2,,,62,48
538560,note_on,84,0,4,,,,,,,,,4,,,50,48
538560,note_on,84,0,1,,,,,,,,,1,,,65,48
538560,note_on,84,0,5,,,,,,,,,5,,,42,48
538680,control_change,120,0,2,,,,,,,64,0,2,,,,
538680,control_change,120,0,1,,,,,,,64,0,1,,,,
538680,control_change,600,0,3,,,,,,,64,0,3,,,,
538680,control_change,120,0,4,,,,,,,64,0,4,,,,
538680,control_change,120,0,5,,,,,,,64,0,5,,,,
538716,note_off,0,0,2,,,,,,,,,2,,,59,0
538716,note_off,36,0,2,,,,,,,,,2,,,56,0
538716,note_off,36,0,5,,,,,,,,,5,,,42,0
538716,note_off,0,0,2,,,,,,,,,2,,,62,0
538716,note_off,36,0,1,,,,,,,,,1,,,65,0
538716,note_off,36,0,4,,,,,,,,,4,,,50,0
538716,note_off,0,0,2,,,,,,,,,2,,,53,0
538800,control_change,84,0,4,,,,,,,64,127,4,,,,
538800,note_on,0,0,4,,,,,,,,,4,,,50,46
538800,note_on,0,0,5,,,,,,,,,5,,,42,46
538800,note_on,0,0,2,,,,,,,,,2,,,59,46
538800,note_on,0,0,2,,,,,,,,,2,,,62,46
538800,note_on,0,0,2,,,,,,,,,2,,,56,46
538800,note_on,0,0,2,,,,,,,,,2,,,53,46
538800,control_change,84,0,5,,,,,,,64,127,5,,,,
538800,control_change,120,0,3,,,,,,,64,127,3,,,,
538800,control_change,84,0,1,,,,,,,64,127,1,,,,
538800,note_on,0,0,1,,,,,,,,,1,,,65,46
538800,control_change,84,0,2,,,,,,,64,127,2,,,,
538956,note_off,156,0,1,,,,,,,,,1,,,65,0
538956,note_off,156,0,4,,,,,,,,,4,,,50,0
538956,note_off,156,0,5,,,,,,,,,5,,,42,0
538956,note_off,156,0,2,,,,,,,,,2,,,53,0
538956,note_off,0,0,2,,,,,,,,,2,,,59,0
538956,note_off,0,0,2,,,,,,,,,2,,,62,0
538956,note_off,0,0,2,,,,,,,,,2,,,56,0
539040,note_on,84,0,5,,,,,,,,,5,,,42,44
539040,note_on,84,0,2,,,,,,,,,2,,,59,44
539040,note_on,84,0,1,,,,,,,,,1,,,65,44
539040,note_on,84,0,4,,,,,,,,,4,,,50,44
539040,note_on,0,0,2,,,,,,,,,2,,,62,44
539040,note_on,0,0,2,,,,,,,,,2,,,53,44
539040,note_on,0,0,2,,,,,,,,,2,,,56,44
539196,note_off,156,0,5,,,,,,,,,5,,,42,0
539196,note_off,0,0,2,,,,,,,,,2,,,53,0
539196,note_off,156,0,2,,,,,,,,,2,,,56,0
539196,note_off,0,0,2,,,,,,,,,2,,,62,0
539196,note_off,156,0,1,,,,,,,,,1,,,65,0
539196,note_off,0,0,2,,,,,,,,,2,,,59,0
539196,note_off,156,0,4,,,,,,,,,4,,,50,0
539280,note_on,84,0,5,,,,,,,,,5,,,42,41
539280,note_on,84,0,1,,,,,,,,,1,,,65,41
539280,note_on,0,0,2,,,,,,,,,2,,,56,41
539280,note_on,84,0,4,,,,,,,,,4,,,50,41
539280,note_on,0,0,2,,,,,,,,,2,,,62,41
539280,note_on,0,0,2,,,,,,,,,2,,,53,41
539280,note_on,84,0,2,,,,,,,,,2,,,59,41
539400,control_change,120,0,1,,,,,,,64,0,1,,,,
539400,control_change,600,0,3,,,,,,,64,0,3,,,,
539400,set_tempo,2880,1,0,,,,,,400000,,,,,,,
539400,control_change,120,0,4,,,,,,,64,0,4,,,,
539400,control_change,120,0,5,,,,,,,64,0,5,,,,
539400,control_change,120,0,2,,,,,,,64,0,2,,,,
539436,note_off,36,0,1,,,,,,,,,1,,,65,0
539436,note_off,0,0,2,,,,,,,,,2,,,59,0
539436,note_off,0,0,2,,,,,,,,,2,,,62,0
539436,note_off,0,0,2,,,,,,,,,2,,,53,0
539436,note_off,36,0,2,,,,,,,,,2,,,56,0
539436,note_off,36,0,5,,,,,,,,,5,,,42,0
539436,note_off,36,0,4,,,,,,,,,4,,,50,0
539520,note_on,84,0,4,,,,,,,,,4,,,49,39
539520,set_tempo,120,1,0,,,,,,408163,,,,,,,
539520,note_on,0,0,2,,,,,,,,,2,,,61,39
539520,note_on,84,0,5,,,,,,,,,5,,,42,39
539520,note_on,84,0,1,,,,,,,,,1,,,66,39
539520,note_on,0,0,2,,,,,,,,,2,,,54,39
539520,note_on,84,0,2,,,,,,,,,2,,,58,39
539760,note_off,240,0,2,,,,,,,,,2,,,61,0
539760,note_off,240,0,5,,,,,,,,,5,,,42,0
539760,note_off,240,0,1,,,,,,,,,1,,,66,0
539760,note_off,0,0,2,,,,,,,,,2,,,58,0
539760,note_off,0,0,2,,,,,,,,,2,,,54,0
539760,note_off,240,0,4,,,,,,,,,4,,,49,0
540240,set_tempo,720,1,0,,,,,,500000,,,,,,,
540960,note_on,1200,0,1,,,,,,,,,1,,,78,63
540960,control_change,1560,0,3,,,,,,,64,127,3,,,,
540960,control_change,1200,0,4,,,,,,,64,127,4,,,,
540960,set_tempo,720,1,0,,,,,,389610,,,,,,,
540960,control_change,1200,0,5,,,,,,,64,127,5,,,,
540960,note_on,0,0,5,,,,,,,,,5,,,50,63
541200,note_on,240,0,3,,,,,,,,,3,,,57,63
541440,note_on,0,0,1,,,,,,,,,1,,,76,63
541440,note_off,480,0,1,,,,,,,,,1,,,78,0
541440,note_on,0,0,3,,,,,,,,,3,,,62,63
541440,note_off,240,0,3,,,,,,,,,3,,,57,0
541620,control_change,180,0,3,,,,,,,64,0,3,,,,
541620,note_off,0,0,5,,,,,,,,,5,,,50,0
541620,control_change,660,0,5,,,,,,,64,0,5,,,,
541620,control_change,660,0,4,,,,,,,64,0,4,,,,
541620,note_off,180,0,1,,,,,,,,,1,,,76,0
541620,note_on,0,0,1,,,,,,,,,1,,,76,62
541632,note_off,12,0,3,,,,,,,,,3,,,62,0
541680,note_on,0,0,1,,,,,,,,,1,,,74,62
541680,control_change,60,0,4,,,,,,,64,127,4,,,,
541680,control_change,48,0,3,,,,,,,64,127,3,,,,
541680,note_on,0,0,5,,,,,,,,,5,,,54,62
541680,note_off,60,0,1,,,,,,,,,1,,,76,0
541680,control_change,60,0,5,,,,,,,64,127,5,,,,
541920,note_on,240,0,3,,,,,,,,,3,,,57,62
541920,note_off,240,0,1,,,,,,,,,1,,,74,0
541920,note_on,0,0,1,,,,,,,,,1,,,73,62
542160,note_on,0,0,1,,,,,,,,,1,,,74,62
542160,note_on,0,0,3,,,,,,,,,3,,,62,62
542160,note_off,240,0,3,,,,,,,,,3,,,57,0
542160,note_off,240,0,1,,,,,,,,,1,,,73,0
542340,note_off,0,0,5,,,,,,,,,5,,,54,0
542340,control_change,660,0,5,,,,,,,64,0,5,,,,
542340,control_change,660,0,4,,,,,,,64,0,4,,,,
542340,control_change,180,0,3,,,,,,,64,0,3,,,,
542352,note_off,192,0,1,,,,,,,,,1,,,74,0
542352,note_off,12,0,3,,,,,,,,,3,,,62,0
542400,control_change,60,0,4,,,,,,,64,127,4,,,,
542400,note_on,2640,0,2,,,,,,,,,2,,,72,61
542400,control_change,48,0,3,,,,,,,64,127,3,,,,
542400,control_change,60,0,5,,,,,,,64,127,5,,,,
542400,note_on,0,0,5,,,,,,,,,5,,,55,61
542400,note_on,48,0,1,,,,,,,,,1,,,75,61
542400,note_on,0,0,2,,,,,,,,,2,,,69,61
542640,note_on,240,0,3,,,,,,,,,3,,,60,61
542880,note_off,480,0,1,,,,,,,,,1,,,75,0
542880,note_on,0,0,3,,,,,,,,,3,,,63,61
542880,note_on,0,0,1,,,,,,,,,1,,,78,61
542880,note_off,240,0,3,,,,,,,,,3,,,60,0
543060,control_change,660,0,5,,,,,,,64,0,5,,,,
543060,control_change,180,0,3,,,,,,,64,0,3,,,,
543060,control_change,660,0,4,,,,,,,64,0,4,,,,
543060,note_off,0,0,5,,,,,,,,,5,,,55,0
543072,note_off,12,0,3,,,,,,,,,3,,,63,0
543120,note_on,0,0,5,,,,,,,,,5,,,55,60
543120,control_change,60,0,5,,,,,,,64,127,5,,,,
543120,control_change,48,0,3,,,,,,,64,127,3,,,,
543120,note_off,720,0,2,,,,,,,,,2,,,69,0
543120,note_on,0,0,1,,,,,,,,,1,,,76,60
543120,note_off,240,0,1,,,,,,,,,1,,,78,0
543120,control_change,60,0,4,,,,,,,64,127,4,,,,
543120,note_on,0,0,2,,,,,,,,,2,,,71,60
543120,note_off,0,0,2,,,,,,,,,2,,,72,0
543360,note_on,240,0,3,,,,,,,,,3,,,59,60
543600,note_on,0,0,3,,,,,,,,,3,,,64,59
543600,note_off,240,0,3,,,,,,,,,3,,,59,0
543720,set_tempo,2760,1,0,,,,,,394736,,,,,,,
543775,note_off,655,0,2,,,,,,,,,2,,,71,0
543780,control_change,660,0,4,,,,,,,64,0,4,,,,
543780,control_change,660,0,5,,,,,,,64,0,5,,,,
543780,note_off,660,0,1,,,,,,,,,1,,,76,0
543780,control_change,180,0,3,,,,,,,64,0,3,,,,
543785,note_off,5,0,5,,,,,,,,,5,,,55,0
543792,note_off,12,0,3,,,,,,,,,3,,,64,0
543840,note_on,65,0,2,,,,,,,,,2,,,71,63
543840,control_change,48,0,3,,,,,,,64,127,3,,,,
543840,note_on,0,0,5,,,,,,,,,5,,,56,59
543840,set_tempo,120,1,0,,,,,,389610,,,,,,,
543840,control_change,55,0,5,,,,,,,64,127,5,,,,
543840,control_change,60,0,4,,,,,,,64,127,4,,,,
543840,note_on,60,0,1,,,,,,,,,1,,,83,63
544080,note_on,240,0,3,,,,,,,,,3,,,62,59
544320,note_on,0,0,3,,,,,,,,,3,,,64,58
544320,note_off,240,0,3,,,,,,,,,3,,,62,0
544500,control_change,180,0,3,,,,,,,64,0,3,,,,
544500,control_change,660,0,5,,,,,,,64,0,5,,,,
544500,control_change,660,0,4,,,,,,,64,0,4,,,,
544500,note_on,660,0,1,,,,,,,,,1,,,76,58
544505,note_off,5,0,3,,,,,,,,,3,,,64,0
544505,note_off,5,0,1,,,,,,,,,1,,,83,0
544560,note_off,55,0,1,,,,,,,,,1,,,76,0
544560,control_change,60,0,5,,,,,,,64,127,5,,,,
544560,note_on,0,0,1,,,,,,,,,1,,,74,58
544560,note_off,720,0,2,,,,,,,,,2,,,71,0
544560,note_on,0,0,2,,,,,,,,,2,,,68,58
544560,control_change,55,0,3,,,,,,,64,127,3,,,,
544560,control_change,60,0,4,,,,,,,64,127,4,,,,
544560,note_on,0,0,5,,,,,,,,,5,,,59,58
544565,note_off,5,0,5,,,,,,,,,5,,,56,0
544800,note_on,240,0,3,,,,,,,,,3,,,62,58
544800,note_on,0,0,1,,,,,,,,,1,,,73,58
544800,note_off,240,0,1,,,,,,,,,1,,,74,0
545040,note_off,240,0,1,,,,,,,,,1,,,73,0
545040,note_on,0,0,1,,,,,,,,,1,,,74,57
545040,note_on,0,0,3,,,,,,,,,3,,,64,57
545040,note_off,240,0,3,,,,,,,,,3,,,62,0
545220,control_change,180,0,3,,,,,,,64,0,3,,,,
545220,control_change,660,0,4,,,,,,,64,0,4,,,,
545220,note_off,0,0,5,,,,,,,,,5,,,59,0
545220,note_off,660,0,2,,,,,,,,,2,,,68,0
545220,control_change,655,0,5,,,,,,,64,0,5,,,,
545232,note_off,12,0,3,,,,,,,,,3,,,64,0
545245,note_off,205,0,1,,,,,,,,,1,,,74,0
545280,note_on,35,0,1,,,,,,,,,1,,,78,59
545280,control_change,48,0,3,,,,,,,64,127,3,,,,
545280,control_change,60,0,4,,,,,,,64,127,4,,,,
545280,note_on,60,0,2,,,,,,,,,2,,,69,59
545280,note_on,0,0,5,,,,,,,,,5,,,57,57
545280,control_change,60,0,5,,,,,,,64,127,5,,,,
545520,note_on,240,0,3,,,,,,,,,3,,,62,57
545760,note_off,240,0,3,,,,,,,,,3,,,62,0
545760,note_on,0,0,3,,,,,,,,,3,,,66,56
545940,control_change,180,0,3,,,,,,,64,0,3,,,,
545940,control_change,660,0,4,,,,,,,64,0,4,,,,
545940,control_change,660,0,5,,,,,,,64,0,5,,,,
545945,note_off,5,0,5,,,,,,,,,5,,,57,0
545952,note_off,12,0,3,,,,,,,,,3,,,66,0
546000,note_off,720,0,1,,,,,,,,,1,,,78,0
546000,control_change,48,0,3,,,,,,,64,127,3,,,,
546000,note_on,0,0,1,,,,,,,,,1,,,76,52
546000,control_change,55,0,5,,,,,,,64,127,5,,,,
546000,note_on,0,0,5,,,,,,,,,5,,,57,56
546000,control_change,60,0,4,,,,,,,64,127,4,,,,
546240,note_on,240,0,3,,,,,,,,,3,,,61,56
546480,note_on,0,0,3,,,,,,,,,3,,,64,55
546480,set_tempo,2640,1,0,,,,,,394736,,,,,,,
546480,note_off,240,0,3,,,,,,,,,3,,,61,0
546600,set_tempo,120,1,0,,,,,,425531,,,,,,,
546640,note_off,640,0,1,,,,,,,,,1,,,76,0
546645,note_off,1365,0,2,,,,,,,,,2,,,69,0
546645,note_off,645,0,5,,,,,,,,,5,,,57,0
546655,note_off,175,0,3,,,,,,,,,3,,,64,0
546660,control_change,5,0,3,,,,,,,64,0,3,,,,
546660,control_change,660,0,4,,,,,,,64,0,4,,,,
546660,note_on,20,0,1,,,,,,,,,1,,,69,55
546660,control_change,15,0,5,,,,,,,64,0,5,,,,
546720,control_change,60,0,3,,,,,,,64,127,3,,,,
546720,note_on,0,0,5,,,,,,,,,5,,,50,55
546720,set_tempo,120,1,0,,,,,,389610,,,,,,,
546720,control_change,60,0,4,,,,,,,64,127,4,,,,
546720,note_off,60,0,1,,,,,,,,,1,,,69,0
546720,note_on,0,0,1,,,,,,,,,1,,,78,58
546720,control_change,60,0,5,,,,,,,64,127,5,,,,
546960,note_on,240,0,3,,,,,,,,,3,,,57,55
547200,note_on,0,0,1,,,,,,,,,1,,,76,54
547200,note_off,240,0,3,,,,,,,,,3,,,57,0
547200,note_on,0,0,3,,,,,,,,,3,,,62,54
547200,note_off,480,0,1,,,,,,,,,1,,,78,0
547380,control_change,660,0,5,,,,,,,64,0,5,,,,
547380,note_off,0,0,5,,,,,,,,,5,,,50,0
547380,control_change,660,0,4,,,,,,,64,0,4,,,,
547380,note_on,0,0,1,,,,,,,,,1,,,76,54
547380,note_off,180,0,1,,,,,,,,,1,,,76,0
547380,control_change,180,0,3,,,,,,,64,0,3,,,,
547392,note_off,12,0,3,,,,,,,,,3,,,62,0
547440,control_change,60,0,5,,,,,,,64,127,5,,,,
547440,note_on,0,0,5,,,,,,,,,5,,,54,54
547440,control_change,48,0,3,,,,,,,64,127,3,,,,
547440,control_change,60,0,4,,,,,,,64,127,4,,,,
547440,note_on,0,0,1,,,,,,,,,1,,,74,54
547440,note_off,60,0,1,,,,,,,,,1,,,76,0
547680,note_on,240,0,3,,,,,,,,,3,,,57,54
547680,note_on,0,0,1,,,,,,,,,1,,,73,54
547680,note_off,240,0,1,,,,,,,,,1,,,74,0
547920,note_on,0,0,3,,,,,,,,,3,,,62,53
547920,note_off,240,0,3,,,,,,,,,3,,,57,0
547920,note_on,0,0,1,,,,,,,,,1,,,74,53
547920,note_off,240,0,1,,,,,,,,,1,,,73,0
548100,control_change,180,0,3,,,,,,,64,0,3,,,,
548100,control_change,660,0,4,,,,,,,64,0,4,,,,
548100,note_off,0,0,5,,,,,,,,,5,,,54,0
548100,control_change,660,0,5,,,,,,,64,0,5,,,,
548112,note_off,12,0,3,,,,,,,,,3,,,62,0
548112,note_off,192,0,1,,,,,,,,,1,,,74,0
548160,note_on,0,0,5,,,,,,,,,5,,,55,53
548160,note_on,1515,0,2,,,,,,,,,2,,,69,53
548160,note_on,0,0,2,,,,,,,,,2,,,72,53
548160,control_change,60,0,4,,,,,,,64,127,4,,,,
548160,control_change,48,0,3,,,,,,,64,127,3,,,,
548160,note_on,48,0,1,,,,,,,,,1,,,75,53
548160,control_change,60,0,5,,,,,,,64,127,5,,,,
548400,note_on,240,0,3,,,,,,,,,3,,,60,52
548640,note_on,0,0,1,,,,,,,,,1,,,78,52
548640,note_off,480,0,1,,,,,,,,,1,,,75,0
548640,note_off,240,0,3,,,,,,,,,3,,,60,0
548640,note_on,0,0,3,,,,,,,,,3,,,63,52
548820,note_off,0,0,5,,,,,,,,,5,,,55,0
548820,control_change,180,0,3,,,,,,,64,0,3,,,,
548820,control_change,660,0,5,,,,,,,64,0,5,,,,
548820,control_change,660,0,4,,,,,,,64,0,4,,,,
548832,note_off,12,0,3,,,,,,,,,3,,,63,0
548880,note_off,240,0,1,,,,,,,,,1,,,78,0
548880,control_change,60,0,5,,,,,,,64,127,5,,,,
548880,note_on,0,0,2,,,,,,,,,2,,,71,52
548880,note_off,720,0,2,,,,,,,,,2,,,72,0
548880,control_change,48,0,3,,,,,,,64,127,3,,,,
548880,note_on,0,0,5,,,,,,,,,5,,,55,52
548880,note_on,0,0,1,,,,,,,,,1,,,76,52
548880,note_off,0,0,2,,,,,,,,,2,,,69,0
548880,control_change,60,0,4,,,,,,,64,127,4,,,,
549120,note_on,240,0,3,,,,,,,,,3,,,59,51
549360,note_off,240,0,3,,,,,,,,,3,,,59,0
549360,note_on,0,0,3,,,,,,,,,3,,,64,51
549480,set_tempo,2760,1,0,,,,,,394736,,,,,,,
549535,note_off,655,0,2,,,,,,,,,2,,,71,0
549540,control_change,660,0,5,,,,,,,64,0,5,,,,
549540,control_change,180,0,3,,,,,,,64,0,3,,,,
549540,control_change,660,0,4,,,,,,,64,0,4,,,,
549540,note_off,660,0,1,,,,,,,,,1,,,76,0
549545,note_off,5,0,5,,,,,,,,,5,,,55,0
549552,note_off,12,0,3,,,,,,,,,3,,,64,0
549600,set_tempo,120,1,0,,,,,,389610,,,,,,,
549600,note_on,65,0,2,,,,,,,,,2,,,71,55
549600,note_on,60,0,1,,,,,,,,,1,,,83,55
549600,note_on,0,0,5,,,,,,,,,5,,,56,51
549600,control_change,55,0,5,,,,,,,64,127,5,,,,
549600,control_change,60,0,4,,,,,,,64,127,4,,,,
549600,control_change,48,0,3,,,,,,,64,127,3,,,,
549840,note_on,240,0,3,,,,,,,,,3,,,62,50
550080,note_off,240,0,3,,,,,,,,,3,,,62,0
550080,note_on,0,0,3,,,,,,,,,3,,,64,50
550260,control_change,180,0,3,,,,,,,64,0,3,,,,
550260,control_change,660,0,5,,,,,,,64,0,5,,,,
550260,note_on,660,0,1,,,,,,,,,1,,,76,50
550260,control_change,660,0,4,,,,,,,64,0,4,,,,
550265,note_off,5,0,1,,,,,,,,,1,,,83,0
550265,note_off,5,0,3,,,,,,,,,3,,,64,0
550320,note_on,0,0,5,,,,,,,,,5,,,59,50
550320,control_change,60,0,5,,,,,,,64,127,5,,,,
550320,note_off,720,0,2,,,,,,,,,2,,,71,0
550320,control_change,55,0,3,,,,,,,64,127,3,,,,
550320,note_off,55,0,1,,,,,,,,,1,,,76,0
550320,note_on,0,0,1,,,,,,,,,1,,,74,50
550320,note_on,0,0,2,,,,,,,,,2,,,68,50
550320,control_change,60,0,4,,,,,,,64,127,4,,,,
550325,note_off,5,0,5,,,,,,,,,5,,,56,0
550560,note_off,240,0,1,,,,,,,,,1,,,74,0
550560,note_on,240,0,3,,,,,,,,,3,,,62,49
550560,note_on,0,0,1,,,,,,,,,1,,,73,49
550800,note_on,0,0,3,,,,,,,,,3,,,64,49
550800,note_on,0,0,1,,,,,,,,,1,,,74,49
550800,note_off,240,0,1,,,,,,,,,1,,,73,0
550800,note_off,240,0,3,,,,,,,,,3,,,62,0
550980,control_change,180,0,3,,,,,,,64,0,3,,,,
550980,control_change,660,0,4,,,,,,,64,0,4,,,,
550980,control_change,655,0,5,,,,,,,64,0,5,,,,
550980,note_off,0,0,5,,,,,,,,,5,,,59,0
550980,note_off,660,0,2,,,,,,,,,2,,,68,0
550992,note_off,12,0,3,,,,,,,,,3,,,64,0
551005,note_off,205,0,1,,,,,,,,,1,,,74,0
551040,note_on,60,0,2,,,,,,,,,2,,,71,52
551040,note_on,35,0,1,,,,,,,,,1,,,83,52
551040,control_change,60,0,4,,,,,,,64,127,4,,,,
551040,note_on,0,0,5,,,,,,,,,5,,,56,49
551040,control_change,60,0,5,,,,,,,64,127,5,,,,
551040,control_change,48,0,3,,,,,,,64,127,3,,,,
551280,note_on,240,0,3,,,,,,,,,3,,,62,48
551520,note_off,240,0,3,,,,,,,,,3,,,62,0
551520,note_on,0,0,3,,,,,,,,,3,,,64,48
551700,control_change,660,0,4,,,,,,,64,0,4,,,,
551700,control_change,180,0,3,,,,,,,64,0,3,,,,
551700,control_change,660,0,5,,,,,,,64,0,5,,,,
551700,note_on,660,0,1,,,,,,,,,1,,,76,48
551705,note_off,5,0,1,,,,,,,,,1,,,83,0
551705,note_off,5,0,3,,,,,,,,,3,,,64,0
551760,note_on,0,0,1,,,,,,,,,1,,,74,48
551760,note_off,55,0,1,,,,,,,,,1,,,76,0
551760,note_on,0,0,5,,,,,,,,,5,,,59,48
551760,note_on,0,0,2,,,,,,,,,2,,,68,48
551760,control_change,60,0,5,,,,,,,64,127,5,,,,
551760,control_change,60,0,4,,,,,,,64,127,4,,,,
551760,control_change,55,0,3,,,,,,,64,127,3,,,,
551760,note_off,720,0,2,,,,,,,,,2,,,71,0
551765,note_off,5,0,5,,,,,,,,,5,,,56,0
552000,note_on,0,0,1,,,,,,,,,1,,,73,47
552000,note_off,240,0,1,,,,,,,,,1,,,74,0
552000,note_on,240,0,3,,,,,,,,,3,,,62,47
552240,note_on,0,0,1,,,,,,,,,1,,,74,47
552240,note_off,240,0,3,,,,,,,,,3,,,62,0
552240,note_on,0,0,3,,,,,,,,,3,,,64,47
552240,note_off,240,0,1,,,,,,,,,1,,,73,0
552420,note_off,660,0,2,,,,,,,,,2,,,68,0
552420,control_change,180,0,3,,,,,,,64,0,3,,,,
552420,control_change,660,0,4,,,,,,,64,0,4,,,,
552420,control_change,655,0,5,,,,,,,64,0,5,,,,
552420,note_off,0,0,5,,,,,,,,,5,,,59,0
552432,note_off,12,0,3,,,,,,,,,3,,,64,0
552445,note_off,205,0,1,,,,,,,,,1,,,74,0
552480,control_change,48,0,3,,,,,,,64,127,3,,,,
552480,note_on,60,0,2,,,,,,,,,2,,,71,50
552480,control_change,60,0,4,,,,,,,64,127,4,,,,
552480,note_on,0,0,5,,,,,,,,,5,,,56,47
552480,control_change,60,0,5,,,,,,,64,127,5,,,,
552480,note_on,35,0,1,,,,,,,,,1,,,83,50
552720,note_on,240,0,3,,,,,,,,,3,,,62,46
552960,note_on,0,0,3,,,,,,,,,3,,,64,46
552960,note_off,240,0,3,,,,,,,,,3,,,62,0
553140,control_change,180,0,3,,,,,,,64,0,3,,,,
553140,note_on,660,0,1,,,,,,,,,1,,,76,46
553140,control_change,660,0,5,,,,,,,64,0,5,,,,
553140,control_change,660,0,4,,,,,,,64,0,4,,,,
553145,note_off,5,0,1,,,,,,,,,1,,,83,0
553145,note_off,5,0,3,,,,,,,,,3,,,64,0
553200,note_on,0,0,1,,,,,,,,,1,,,74,45
553200,note_on,0,0,2,,,,,,,,,2,,,68,45
553200,note_off,720,0,2,,,,,,,,,2,,,71,0
553200,note_off,55,0,1,,,,,,,,,1,,,76,0
553200,note_on,0,0,5,,,,,,,,,5,,,59,45
553200,control_change,55,0,3,,,,,,,64,127,3,,,,
553200,control_change,60,0,5,,,,,,,64,127,5,,,,
553200,control_change,60,0,4,,,,,,,64,127,4,,,,
553205,note_off,5,0,5,,,,,,,,,5,,,56,0
553440,note_on,0,0,1,,,,,,,,,1,,,73,45
553440,note_off,240,0,1,,,,,,,,,1,,,74,0
553440,note_on,240,0,3,,,,,,,,,3,,,62,45
553680,note_off,240,0,3,,,,,,,,,3,,,62,0
553680,note_on,0,0,3,,,,,,,,,3,,,64,45
553680,note_on,0,0,1,,,,,,,,,1,,,74,45
553680,note_off,240,0,1,,,,,,,,,1,,,73,0
553860,note_off,660,0,2,,,,,,,,,2,,,68,0
553860,note_off,0,0,5,,,,,,,,,5,,,59,0
553860,control_change,660,0,4,,,,,,,64,0,4,,,,
553860,control_change,180,0,3,,,,,,,64,0,3,,,,
553860,control_change,655,0,5,,,,,,,64,0,5,,,,
553872,note_off,12,0,3,,,,,,,,,3,,,64,0
553885,note_off,205,0,1,,,,,,,,,1,,,74,0
553920,control_change,60,0,4,,,,,,,64,127,4,,,,
553920,note_on,35,0,1,,,,,,,,,1,,,83,47
553920,control_change,60,0,5,,,,,,,64,127,5,,,,
553920,note_on,0,0,5,,,,,,,,,5,,,56,44
553920,control_change,48,0,3,,,,,,,64,127,3,,,,
553920,note_on,60,0,2,,,,,,,,,2,,,71,47
554160,note_on,240,0,3,,,,,,,,,3,,,62,44
554400,note_on,0,0,3,,,,,,,,,3,,,64,44
554400,note_off,240,0,3,,,,,,,,,3,,,62,0
554580,control_change,660,0,5,,,,,,,64,0,5,,,,
554580,control_change,180,0,3,,,,,,,64,0,3,,,,
554580,control_change,660,0,4,,,,,,,64,0,4,,,,
554580,note_on,660,0,1,,,,,,,,,1,,,76,43
554585,note_off,5,0,3,,,,,,,,,3,,,64,0
554585,note_off,5,0,1,,,,,,,,,1,,,83,0
554640,note_on,0,0,2,,,,,,,,,2,,,68,43
554640,note_off,720,0,2,,,,,,,,,2,,,71,0
554640,control_change,60,0,4,,,,,,,64,127,4,,,,
554640,control_change,60,0,5,,,,,,,64,127,5,,,,
554640,note_on,0,0,5,,,,,,,,,5,,,59,43
554640,note_off,55,0,1,,,,,,,,,1,,,76,0
554640,note_on,0,0,1,,,,,,,,,1,,,74,43
554640,control_change,55,0,3,,,,,,,64,127,3,,,,
554645,note_off,5,0,5,,,,,,,,,5,,,56,0
554880,note_on,0,0,1,,,,,,,,,1,,,73,43
554880,note_off,240,0,1,,,,,,,,,1,,,74,0
554880,note_on,240,0,3,,,,,,,,,3,,,62,43
555120,note_off,240,0,1,,,,,,,,,1,,,73,0
555120,note_off,240,0,3,,,,,,,,,3,,,62,0
555120,note_on,0,0,3,,,,,,,,,3,,,64,43
555120,note_on,0,0,1,,,,,,,,,1,,,74,43
555240,set_tempo,5640,1,0,,,,,,394736,,,,,,,
555300,control_change,655,0,5,,,,,,,64,0,5,,,,
555300,control_change,660,0,4,,,,,,,64,0,4,,,,
555300,note_off,0,0,5,,,,,,,,,5,,,59,0
555300,note_off,660,0,2,,,,,,,,,2,,,68,0
555300,control_change,180,0,3,,,,,,,64,0,3,,,,
555312,note_off,12,0,3,,,,,,,,,3,,,64,0
555325,note_off,205,0,1,,,,,,,,,1,,,74,0
555360,note_on,0,0,5,,,,,,,,,5,,,57,42
555360,control_change,60,0,4,,,,,,,64,127,4,,,,
555360,note_on,35,0,1,,,,,,,,,1,,,84,46
555360,set_tempo,120,1,0,,,,,,389610,,,,,,,
555360,note_on,60,0,2,,,,,,,,,2,,,72,46
555360,control_change,60,0,5,,,,,,,64,127,5,,,,
555360,control_change,48,0,3,,,,,,,64,127,3,,,,
555600,note_on,240,0,3,,,,,,,,,3,,,64,42
555840,note_off,240,0,3,,,,,,,,,3,,,64,0
555840,note_on,0,0,3,,,,,,,,,3,,,65,42
556020,control_change,660,0,5,,,,,,,64,0,5,,,,
556020,note_on,660,0,1,,,,,,,,,1,,,79,41
556020,control_change,660,0,4,,,,,,,64,0,4,,,,
556020,control_change,180,0,3,,,,,,,64,0,3,,,,
556025,note_off,5,0,1,,,,,,,,,1,,,84,0
556025,note_off,5,0,3,,,,,,,,,3,,,65,0
556080,note_off,55,0,1,,,,,,,,,1,,,79,0
556080,control_change,55,0,3,,,,,,,64,127,3,,,,
556080,note_on,720,0,2,,,,,,,,,2,,,69,41
556080,control_change,60,0,4,,,,,,,64,127,4,,,,
556080,note_on,0,0,5,,,,,,,,,5,,,60,41
556080,control_change,60,0,5,,,,,,,64,127,5,,,,
556080,note_on,0,0,1,,,,,,,,,1,,,77,41
556085,note_off,5,0,2,,,,,,,,,2,,,72,0
556085,note_off,5,0,5,,,,,,,,,5,,,57,0
556320,note_on,240,0,3,,,,,,,,,3,,,67,41
556320,note_off,240,0,1,,,,,,,,,1,,,77,0
556320,note_on,0,0,1,,,,,,,,,1,,,76,41
556560,note_on,0,0,3,,,,,,,,,3,,,65,41
556560,note_off,240,0,1,,,,,,,,,1,,,76,0
556560,note_on,0,0,1,,,,,,,,,1,,,77,41
556560,note_off,240,0,3,,,,,,,,,3,,,67,0
556740,note_off,655,0,2,,,,,,,,,2,,,69,0
556740,control_change,660,0,4,,,,,,,64,0,4,,,,
556740,control_change,180,0,3,,,,,,,64,0,3,,,,
556740,control_change,655,0,5,,,,,,,64,0,5,,,,
556740,note_off,0,0,5,,,,,,,,,5,,,60,0
556752,note_off,12,0,3,,,,,,,,,3,,,65,0
556765,note_off,205,0,1,,,,,,,,,1,,,77,0
556800,control_change,60,0,4,,,,,,,64,127,4,,,,
556800,note_on,35,0,1,,,,,,,,,1,,,84,44
556800,control_change,60,0,5,,,,,,,64,127,5,,,,
556800,note_on,0,0,5,,,,,,,,,5,,,57,40
556800,control_change,48,0,3,,,,,,,64,127,3,,,,
556800,note_on,60,0,2,,,,,,,,,2,,,72,44
557040,note_on,240,0,3,,,,,,,,,3,,,64,40
557280,note_on,0,0,3,,,,,,,,,3,,,65,39
557280,note_off,240,0,3,,,,,,,,,3,,,64,0
557460,control_change,180,0,3,,,,,,,64,0,3,,,,
557460,control_change,660,0,4,,,,,,,64,0,4,,,,
557460,note_on,660,0,1,,,,,,,,,1,,,79,39
557460,control_change,660,0,5,,,,,,,64,0,5,,,,
557465,note_off,5,0,1,,,,,,,,,1,,,84,0
557465,note_off,5,0,3,,,,,,,,,3,,,65,0
557520,control_change,60,0,4,,,,,,,64,127,4,,,,
557520,note_on,720,0,2,,,,,,,,,2,,,69,39
557520,note_on,0,0,1,,,,,,,,,1,,,77,39
557520,control_change,60,0,5,,,,,,,64,127,5,,,,
557520,note_on,0,0,5,,,,,,,,,5,,,60,39
557520,control_change,55,0,3,,,,,,,64,127,3,,,,
557520,note_off,55,0,1,,,,,,,,,1,,,79,0
557525,note_off,5,0,5,,,,,,,,,5,,,57,0
557525,note_off,5,0,2,,,,,,,,,2,,,72,0
557760,note_on,0,0,1,,,,,,,,,1,,,76,39
557760,note_off,240,0,1,,,,,,,,,1,,,77,0
557760,note_on,240,0,3,,,,,,,,,3,,,67,39
558000,note_off,240,0,3,,,,,,,,,3,,,67,0
558000,note_on,0,0,3,,,,,,,,,3,,,65,38
558000,note_off,240,0,1,,,,,,,,,1,,,76,0
558000,note_on,0,0,1,,,,,,,,,1,,,77,38
558120,set_tempo,2760,1,0,,,,,,394736,,,,,,,
558180,control_change,660,0,4,,,,,,,64,0,4,,,,
558180,control_change,180,0,3,,,,,,,64,0,3,,,,
558180,note_off,655,0,2,,,,,,,,,2,,,69,0
558180,control_change,655,0,5,,,,,,,64,0,5,,,,
558180,note_off,0,0,5,,,,,,,,,5,,,60,0
558192,note_off,12,0,3,,,,,,,,,3,,,65,0
558205,note_off,205,0,1,,,,,,,,,1,,,77,0
558240,control_change,60,0,5,,,,,,,64,127,5,,,,
558240,note_on,35,0,1,,,,,,,,,1,,,84,42
558240,set_tempo,120,1,0,,,,,,389610,,,,,,,
558240,note_on,60,0,2,,,,,,,,,2,,,72,42
558240,control_change,48,0,3,,,,,,,64,127,3,,,,
558240,note_on,0,0,5,,,,,,,,,5,,,58,38
558240,control_change,60,0,4,,,,,,,64,127,4,,,,
558480,note_on,240,0,3,,,,,,,,,3,,,65,38
558720,note_on,0,0,3,,,,,,,,,3,,,64,37
558720,note_off,240,0,3,,,,,,,,,3,,,65,0
558900,note_on,660,0,1,,,,,,,,,1,,,81,37
558900,control_change,660,0,4,,,,,,,64,0,4,,,,
558900,control_change,660,0,5,,,,,,,64,0,5,,,,
558900,control_change,180,0,3,,,,,,,64,0,3,,,,
558905,note_off,5,0,1,,,,,,,,,1,,,84,0
558905,note_off,5,0,3,,,,,,,,,3,,,64,0
558960,note_on,720,0,2,,,,,,,,,2,,,70,37
558960,control_change,60,0,4,,,,,,,64,127,4,,,,
558960,note_off,55,0,1,,,,,,,,,1,,,81,0
558960,note_on,0,0,1,,,,,,,,,1,,,79,37
558960,control_change,60,0,5,,,,,,,64,127,5,,,,
558960,note_on,0,0,5,,,,,,,,,5,,,60,37
558960,control_change,55,0,3,,,,,,,64,127,3,,,,
558965,note_off,5,0,5,,,,,,,,,5,,,58,0
558965,note_off,5,0,2,,,,,,,,,2,,,72,0
559200,note_on,240,0,3,,,,,,,,,3,,,63,37
559200,note_off,240,0,1,,,,,,,,,1,,,79,0
559200,note_on,0,0,1,,,,,,,,,1,,,78,37
559440,note_off,240,0,3,,,,,,,,,3,,,63,0
559440,note_on,0,0,3,,,,,,,,,3,,,64,36
559440,note_off,240,0,1,,,,,,,,,1,,,78,0
559440,note_on,0,0,1,,,,,,,,,1,,,79,36
559620,note_off,655,0,2,,,,,,,,,2,,,70,0
559620,control_change,660,0,4,,,,,,,64,0,4,,,,
559620,control_change,655,0,5,,,,,,,64,0,5,,,,
559620,note_off,0,0,5,,,,,,,,,5,,,60,0
559620,control_change,180,0,3,,,,,,,64,0,3,,,,
559632,note_off,12,0,3,,,,,,,,,3,,,64,0
559645,note_off,205,0,1,,,,,,,,,1,,,79,0
559680,control_change,48,0,3,,,,,,,64,127,3,,,,
559680,note_on,35,0,1,,,,,,,,,1,,,84,40
559680,note_on,0,0,5,,,,,,,,,5,,,58,36
559680,control_change,60,0,5,,,,,,,64,127,5,,,,
559680,note_on,60,0,2,,,,,,,,,2,,,72,40
559680,control_change,60,0,4,,,,,,,64,127,4,,,,
559920,note_on,240,0,3,,,,,,,,,3,,,65,36
560160,note_on,0,0,3,,,,,,,,,3,,,64,35
560160,note_off,240,0,3,,,,,,,,,3,,,65,0
560340,control_change,660,0,5,,,,,,,64,0,5,,,,
560340,control_change,180,0,3,,,,,,,64,0,3,,,,
560340,control_change,660,0,4,,,,,,,64,0,4,,,,
560340,note_on,660,0,1,,,,,,,,,1,,,81,35
560345,note_off,5,0,3,,,,,,,,,3,,,64,0
560345,note_off,5,0,1,,,,,,,,,1,,,84,0
560400,note_on,0,0,5,,,,,,,,,5,,,60,35
560400,note_on,0,0,1,,,,,,,,,1,,,79,35
560400,note_off,55,0,1,,,,,,,,,1,,,81,0
560400,control_change,60,0,4,,,,,,,64,127,4,,,,
560400,note_on,720,0,2,,,,,,,,,2,,,70,35
560400,control_change,0,0,4,,,,,,,64,127,4,,,,
560400,control_change,60,0,5,,,,,,,64,127,5,,,,
560400,control_change,0,0,3,,,,,,,64,127,3,,,,
560400,control_change,55,0,3,,,,,,,64,127,3,,,,
560405,note_off,5,0,2,,,,,,,,,2,,,72,0
560405,note_off,5,0,5,,,,,,,,,5,,,58,0
560640,note_off,240,0,1,,,,,,,,,1,,,79,0
560640,note_on,0,0,1,,,,,,,,,1,,,78,35
560640,note_on,240,0,3,,,,,,,,,3,,,63,35
560880,note_on,0,0,1,,,,,,,,,1,,,79,34
560880,note_off,240,0,1,,,,,,,,,1,,,78,0
560880,note_off,240,0,3,,,,,,,,,3,,,63,0
560880,note_on,0,0,3,,,,,,,,,3,,,64,34
561000,set_tempo,2760,1,0,,,,,,394736,,,,,,,
561060,control_change,0,0,3,,,,,,,64,0,3,,,,
561060,note_off,655,0,2,,,,,,,,,2,,,70,0
561060,control_change,660,0,4,,,,,,,64,0,4,,,,
561060,control_change,0,0,4,,,,,,,64,0,4,,,,
561060,note_off,0,0,5,,,,,,,,,5,,,60,0
561060,control_change,655,0,5,,,,,,,64,0,5,,,,
561060,control_change,180,0,3,,,,,,,64,0,3,,,,
561072,note_off,12,0,3,,,,,,,,,3,,,64,0
561085,note_off,205,0,1,,,,,,,,,1,,,79,0
561120,note_on,60,0,2,,,,,,,,,2,,,72,38
561120,control_change,60,0,4,,,,,,,64,127,4,,,,
561120,note_on,0,0,5,,,,,,,,,5,,,57,34
561120,set_tempo,120,1,0,,,,,,389610,,,,,,,
561120,control_change,60,0,5,,,,,,,64,127,5,,,,
561120,note_on,35,0,1,,,,,,,,,1,,,84,38
561120,control_change,48,0,3,,,,,,,64,127,3,,,,
561360,note_on,240,0,3,,,,,,,,,3,,,64,34
561600,note_off,240,0,3,,,,,,,,,3,,,64,0
561600,note_on,0,0,3,,,,,,,,,3,,,65,33
561780,control_change,660,0,4,,,,,,,64,0,4,,,,
561780,control_change,660,0,5,,,,,,,64,0,5,,,,
561780,note_on,660,0,1,,,,,,,,,1,,,79,33
561780,control_change,180,0,3,,,,,,,64,0,3,,,,
561785,note_off,5,0,1,,,,,,,,,1,,,84,0
561785,note_off,5,0,3,,,,,,,,,3,,,65,0
561840,control_change,60,0,4,,,,,,,64,127,4,,,,
561840,note_on,720,0,2,,,,,,,,,2,,,69,33
561840,note_off,55,0,1,,,,,,,,,1,,,79,0
561840,note_on,0,0,5,,,,,,,,,5,,,60,33
561840,control_change,60,0,5,,,,,,,64,127,5,,,,
561840,control_change,55,0,3,,,,,,,64,127,3,,,,
561840,note_on,0,0,1,,,,,,,,,1,,,77,33
561845,note_off,5,0,5,,,,,,,,,5,,,57,0
561845,note_off,5,0,2,,,,,,,,,2,,,72,0
562080,note_off,240,0,1,,,,,,,,,1,,,77,0
562080,note_on,0,0,1,,,,,,,,,1,,,76,32
562080,note_on,240,0,3,,,,,,,,,3,,,67,32
562320,note_off,240,0,1,,,,,,,,,1,,,76,0
562320,note_off,240,0,3,,,,,,,,,3,,,67,0
562320,note_on,0,0,1,,,,,,,,,1,,,77,32
562320,note_on,0,0,3,,,,,,,,,3,,,65,32
562500,control_change,180,0,3,,,,,,,64,0,3,,,,
562500,control_change,660,0,4,,,,,,,64,0,4,,,,
562500,control_change,655,0,5,,,,,,,64,0,5,,,,
562500,note_off,0,0,5,,,,,,,,,5,,,60,0
562500,note_off,655,0,2,,,,,,,,,2,,,69,0
562512,note_off,12,0,3,,,,,,,,,3,,,65,0
562525,note_off,205,0,1,,,,,,,,,1,,,77,0
562560,note_on,35,0,1,,,,,,,,,1,,,84,37
562560,control_change,60,0,5,,,,,,,64,127,5,,,,
562560,note_on,0,0,5,,,,,,,,,5,,,57,32
562560,note_on,60,0,2,,,,,,,,,2,,,72,37
562560,control_change,60,0,4,,,,,,,64,127,4,,,,
562560,control_change,48,0,3,,,,,,,64,127,3,,,,
562800,note_on,240,0,3,,,,,,,,,3,,,64,31
563040,note_on,0,0,3,,,,,,,,,3,,,65,31
563040,note_off,240,0,3,,,,,,,,,3,,,64,0
563220,control_change,660,0,5,,,,,,,64,0,5,,,,
563220,control_change,180,0,3,,,,,,,64,0,3,,,,
563220,control_change,660,0,4,,,,,,,64,0,4,,,,
563220,note_on,660,0,1,,,,,,,,,1,,,79,31
563225,note_off,5,0,1,,,,,,,,,1,,,84,0
563225,note_off,5,0,3,,,,,,,,,3,,,65,0
563280,note_on,0,0,1,,,,,,,,,1,,,77,31
563280,control_change,60,0,5,,,,,,,64,127,5,,,,
563280,note_on,0,0,5,,,,,,,,,5,,,60,31
563280,note_on,720,0,2,,,,,,,,,2,,,69,31
563280,note_off,55,0,1,,,,,,,,,1,,,79,0
563280,control_change,55,0,3,,,,,,,64,127,3,,,,
563280,control_change,60,0,4,,,,,,,64,127,4,,,,
563285,note_off,5,0,5,,,,,,,,,5,,,57,0
563285,note_off,5,0,2,,,,,,,,,2,,,72,0
563520,note_on,240,0,3,,,,,,,,,3,,,67,30
563520,note_on,0,0,1,,,,,,,,,1,,,76,30
563520,note_off,240,0,1,,,,,,,,,1,,,77,0
563760,note_off,240,0,3,,,,,,,,,3,,,67,0
563760,note_on,0,0,3,,,,,,,,,3,,,65,30
563760,note_off,240,0,1,,,,,,,,,1,,,76,0
563760,note_on,0,0,1,,,,,,,,,1,,,77,30
563880,set_tempo,2760,1,0,,,,,,394736,,,,,,,
563940,control_change,180,0,3,,,,,,,64,0,3,,,,
563940,control_change,655,0,5,,,,,,,64,0,5,,,,
563940,note_off,0,0,5,,,,,,,,,5,,,60,0
563940,note_off,655,0,2,,,,,,,,,2,,,69,0
563940,control_change,660,0,4,,,,,,,64,0,4,,,,
563952,note_off,12,0,3,,,,,,,,,3,,,65,0
563965,note_off,205,0,1,,,,,,,,,1,,,77,0
564000,control_change,60,0,4,,,,,,,64,127,4,,,,
564000,control_change,60,0,5,,,,,,,64,127,5,,,,
564000,note_on,0,0,5,,,,,,,,,5,,,58,30
564000,note_on,35,0,1,,,,,,,,,1,,,84,35
564000,note_on,60,0,2,,,,,,,,,2,,,72,35
564000,control_change,48,0,3,,,,,,,64,127,3,,,,
564000,set_tempo,120,1,0,,,,,,389610,,,,,,,
564240,note_on,240,0,3,,,,,,,,,3,,,65,29
564480,note_on,0,0,3,,,,,,,,,3,,,64,29
564480,note_off,240,0,3,,,,,,,,,3,,,65,0
564660,control_change,660,0,5,,,,,,,64,0,5,,,,
564660,control_change,180,0,3,,,,,,,64,0,3,,,,
564660,note_on,660,0,1,,,,,,,,,1,,,81,29
564660,control_change,660,0,4,,,,,,,64,0,4,,,,
564665,note_off,5,0,3,,,,,,,,,3,,,64,0
564665,note_off,5,0,1,,,,,,,,,1,,,84,0
564720,control_change,60,0,5,,,,,,,64,127,5,,,,
564720,note_on,720,0,2,,,,,,,,,2,,,70,29
564720,note_on,0,0,5,,,,,,,,,5,,,60,29
564720,control_change,60,0,4,,,,,,,64,127,4,,,,
564720,note_on,0,0,1,,,,,,,,,1,,,79,29
564720,note_off,55,0,1,,,,,,,,,1,,,81,0
564720,control_change,55,0,3,,,,,,,64,127,3,,,,
564725,note_off,5,0,5,,,,,,,,,5,,,58,0
564725,note_off,5,0,2,,,,,,,,,2,,,72,0
564960,note_off,240,0,1,,,,,,,,,1,,,79,0
564960,note_on,240,0,3,,,,,,,,,3,,,63,28
564960,note_on,0,0,1,,,,,,,,,1,,,78,28
565200,note_on,0,0,1,,,,,,,,,1,,,79,28
565200,note_off,240,0,1,,,,,,,,,1,,,78,0
565200,note_on,0,0,3,,,,,,,,,3,,,64,28
565200,note_off,240,0,3,,,,,,,,,3,,,63,0
565320,set_tempo,1320,1,0,,,,,,394736,,,,,,,
565380,note_off,0,0,5,,,,,,,,,5,,,60,0
565380,control_change,655,0,5,,,,,,,64,0,5,,,,
565380,note_off,655,0,2,,,,,,,,,2,,,70,0
565380,control_change,660,0,4,,,,,,,64,0,4,,,,
565380,control_change,180,0,3,,,,,,,64,0,3,,,,
565392,note_off,12,0,3,,,,,,,,,3,,,64,0
565405,note_off,205,0,1,,,,,,,,,1,,,79,0
565440,note_on,35,0,1,,,,,,,,,1,,,84,32
565440,control_change,60,0,4,,,,,,,64,127,4,,,,
565440,control_change,60,0,5,,,,,,,64,127,5,,,,
565440,note_on,0,0,5,,,,,,,,,5,,,58,28
565440,control_change,48,0,3,,,,,,,64,127,3,,,,
565440,note_on,60,0,2,,,,,,,,,2,,,72,32
565680,note_on,240,0,3,,,,,,,,,3,,,65,27
565920,note_off,240,0,3,,,,,,,,,3,,,65,0
565920,note_on,0,0,3,,,,,,,,,3,,,64,27
566100,control_change,660,0,5,,,,,,,64,0,5,,,,
566100,control_change,180,0,3,,,,,,,64,0,3,,,,
566100,note_on,660,0,1,,,,,,,,,1,,,81,27
566100,control_change,660,0,4,,,,,,,64,0,4,,,,
566105,note_off,5,0,1,,,,,,,,,1,,,84,0
566105,note_off,5,0,3,,,,,,,,,3,,,64,0
566160,note_on,0,0,5,,,,,,,,,5,,,60,27
566160,note_off,55,0,1,,,,,,,,,1,,,81,0
566160,note_on,0,0,1,,,,,,,,,1,,,79,27
566160,note_on,720,0,2,,,,,,,,,2,,,70,27
566160,control_change,60,0,5,,,,,,,64,127,5,,,,
566165,note_off,5,0,2,,,,,,,,,2,,,72,0
566165,note_off,5,0,5,,,,,,,,,5,,,58,0
566400,note_on,295,0,3,,,,,,,,,3,,,63,26
566400,note_off,240,0,1,,,,,,,,,1,,,79,0
566400,note_on,0,0,1,,,,,,,,,1,,,78,26
566520,set_tempo,1200,1,0,,,,,,400000,,,,,,,
566640,note_off,240,0,1,,,,,,,,,1,,,78,0
566640,set_tempo,120,1,0,,,,,,408163,,,,,,,
566640,note_off,240,0,3,,,,,,,,,3,,,63,0
566640,note_on,0,0,3,,,,,,,,,3,,,64,26
566640,note_on,0,0,1,,,,,,,,,1,,,79,26
566760,set_tempo,120,1,0,,,,,,600000,,,,,,,
566820,control_change,655,0,5,,,,,,,64,0,5,,,,
566820,note_off,0,0,5,,,,,,,,,5,,,60,0
566820,note_off,655,0,2,,,,,,,,,2,,,70,0
566832,note_off,192,0,3,,,,,,,,,3,,,64,0
566845,note_off,205,0,1,,,,,,,,,1,,,79,0
566880,control_change,60,0,5,,,,,,,64,127,5,,,,
566880,control_change,0,0,3,,,,,,,64,0,3,,,,
566880,set_tempo,120,1,0,,,,,,389610,,,,,,,
566880,note_on,0,0,5,,,,,,,,,5,,,59,64
566880,control_change,0,0,3,,,,,,,64,0,3,,,,
566880,note_on,0,0,3,,,,,,,,,3,,,68,64
566880,control_change,35,0,1,,,,,,,64,127,1,,,,
566880,control_change,0,0,1,,,,,,,64,0,1,,,,
566880,note_on,0,0,1,,,,,,,,,1,,,80,64
566880,note_on,0,0,2,,,,,,,,,2,,,76,64
566880,control_change,0,0,2,,,,,,,64,0,2,,,,
566880,control_change,60,0,2,,,,,,,64,127,2,,,,
566880,control_change,48,0,3,,,,,,,64,127,3,,,,
566880,control_change,0,0,4,,,,,,,64,0,4,,,,
566880,note_on,0,0,3,,,,,,,,,3,,,64,64
566880,control_change,0,0,4,,,,,,,64,0,4,,,,
566880,control_change,780,0,4,,,,,,,64,127,4,,,,
566880,note_on,0,0,2,,,,,,,,,2,,,71,64
567072,note_off,0,0,3,,,,,,,,,3,,,64,0
567072,note_off,192,0,3,,,,,,,,,3,,,68,0
567120,note_on,0,0,3,,,,,,,,,3,,,68,44
567120,note_on,48,0,3,,,,,,,,,3,,,64,44
567312,note_off,0,0,3,,,,,,,,,3,,,64,0
567312,note_off,192,0,3,,,,,,,,,3,,,68,0
567360,note_on,48,0,3,,,,,,,,,3,,,64,35
567360,note_on,0,0,3,,,,,,,,,3,,,68,35
567552,note_off,0,0,3,,,,,,,,,3,,,64,0
567552,note_off,192,0,3,,,,,,,,,3,,,68,0
567600,note_on,48,0,3,,,,,,,,,3,,,64,33
567600,note_on,0,0,3,,,,,,,,,3,,,68,33
567770,note_off,890,0,1,,,,,,,,,1,,,80,0
567775,note_off,895,0,2,,,,,,,,,2,,,76,0
567780,note_off,5,0,2,,,,,,,,,2,,,71,0
567792,note_off,192,0,3,,,,,,,,,3,,,68,0
567792,note_off,0,0,3,,,,,,,,,3,,,64,0
567840,note_on,0,0,3,,,,,,,,,3,,,64,33
567840,control_change,48,0,3,,,,,,,64,0,3,,,,
567840,control_change,960,0,5,,,,,,,64,0,5,,,,
567840,control_change,960,0,4,,,,,,,64,0,4,,,,
567840,control_change,60,0,2,,,,,,,64,0,2,,,,
567840,note_on,0,0,1,,,,,,,,,1,,,81,33
567840,control_change,70,0,1,,,,,,,64,0,1,,,,
567840,note_on,0,0,3,,,,,,,,,3,,,68,33
567960,note_on,0,0,1,,,,,,,,,1,,,80,33
567960,note_off,120,0,1,,,,,,,,,1,,,81,0
568032,note_off,192,0,3,,,,,,,,,3,,,68,0
568032,note_off,0,0,3,,,,,,,,,3,,,64,0
568080,note_off,120,0,1,,,,,,,,,1,,,80,0
568080,note_on,0,0,1,,,,,,,,,1,,,78,34
568080,note_on,0,0,3,,,,,,,,,3,,,68,34
568080,note_on,48,0,3,,,,,,,,,3,,,64,34
568200,note_on,0,0,1,,,,,,,,,1,,,76,34
568200,note_off,120,0,1,,,,,,,,,1,,,78,0
568260,note_off,420,0,5,,,,,,,,,5,,,59,0
568272,note_off,192,0,3,,,,,,,,,3,,,68,0
568272,note_off,0,0,3,,,,,,,,,3,,,64,0
568296,note_off,96,0,1,,,,,,,,,1,,,76,0
568320,control_change,24,0,1,,,,,,,64,127,1,,,,
568320,note_on,0,0,3,,,,,,,,,3,,,69,34
568320,note_on,0,0,3,,,,,,,,,3,,,66,34
568320,control_change,480,0,4,,,,,,,64,127,4,,,,
568320,note_on,0,0,1,,,,,,,,,1,,,75,34
568320,control_change,60,0,5,,,,,,,64,127,5,,,,
568320,note_on,0,0,5,,,,,,,,,5,,,59,34
568320,control_change,480,0,2,,,,,,,64,127,2,,,,
568320,control_change,48,0,3,,,,,,,64,127,3,,,,
568512,note_off,0,0,3,,,,,,,,,3,,,69,0
568512,note_off,192,0,3,,,,,,,,,3,,,66,0
568560,note_on,0,0,3,,,,,,,,,3,,,66,35
568560,note_on,240,0,1,,,,,,,,,1,,,82,35
568560,note_on,48,0,3,,,,,,,,,3,,,69,35
568752,note_off,192,0,3,,,,,,,,,3,,,66,0
568752,note_off,0,0,3,,,,,,,,,3,,,69,0
568800,control_change,48,0,3,,,,,,,64,0,3,,,,
568800,note_on,0,0,3,,,,,,,,,3,,,66,36
568800,note_on,0,0,3,,,,,,,,,3,,,69,36
568800,control_change,480,0,2,,,,,,,64,0,2,,,,
568800,note_on,0,0,1,,,,,,,,,1,,,83,36
568800,note_off,0,0,1,,,,,,,,,1,,,82,0
568800,control_change,240,0,1,,,,,,,64,0,1,,,,
568800,control_change,480,0,5,,,,,,,64,0,5,,,,
568800,control_change,480,0,4,,,,,,,64,0,4,,,,
568992,note_off,192,0,3,,,,,,,,,3,,,66,0
568992,note_off,0,0,3,,,,,,,,,3,,,69,0
568992,note_off,192,0,1,,,,,,,,,1,,,83,0
569040,note_on,0,0,3,,,,,,,,,3,,,69,37
569040,control_change,48,0,3,,,,,,,64,127,3,,,,
569040,note_on,0,0,3,,,,,,,,,3,,,66,37
569040,control_change,240,0,2,,,,,,,64,127,2,,,,
569040,control_change,48,0,1,,,,,,,64,127,1,,,,
569040,control_change,240,0,5,,,,,,,64,127,5,,,,
569040,control_change,240,0,4,,,,,,,64,127,4,,,,
569040,note_on,0,0,1,,,,,,,,,1,,,83,37
569232,note_off,0,0,3,,,,,,,,,3,,,69,0
569232,note_off,192,0,3,,,,,,,,,3,,,66,0
569280,note_on,48,0,3,,,,,,,,,3,,,69,38
569280,note_on,0,0,3,,,,,,,,,3,,,66,38
569472,note_off,192,0,3,,,,,,,,,3,,,66,0
569472,note_off,0,0,3,,,,,,,,,3,,,69,0
569520,control_change,480,0,2,,,,,,,64,0,2,,,,
569520,control_change,480,0,4,,,,,,,64,0,4,,,,
569520,control_change,48,0,3,,,,,,,64,0,3,,,,
569520,note_on,0,0,3,,,,,,,,,3,,,69,38
569520,control_change,480,0,5,,,,,,,64,0,5,,,,
569520,note_on,0,0,3,,,,,,,,,3,,,66,38
569520,control_change,480,0,1,,,,,,,64,0,1,,,,
569640,set_tempo,2760,1,0,,,,,,394736,,,,,,,
569695,note_off,175,0,1,,,,,,,,,1,,,75,0
569700,note_off,180,0,5,,,,,,,,,5,,,59,0
569705,note_off,10,0,1,,,,,,,,,1,,,83,0
569712,note_off,0,0,3,,,,,,,,,3,,,69,0
569712,note_off,192,0,3,,,,,,,,,3,,,66,0
569760,note_on,0,0,2,,,,,,,,,2,,,64,74
569760,note_on,0,0,2,,,,,,,,,2,,,59,74
569760,note_on,0,0,5,,,,,,,,,5,,,47,74
569760,control_change,55,0,1,,,,,,,64,127,1,,,,
569760,note_on,0,0,1,,,,,,,,,1,,,68,74
569760,control_change,240,0,2,,,,,,,64,127,2,,,,
569760,set_tempo,120,1,0,,,,,,389610,,,,,,,
569760,control_change,60,0,5,,,,,,,64,127,5,,,,
569760,control_change,240,0,4,,,,,,,64,127,4,,,,
569760,control_change,48,0,3,,,,,,,64,127,3,,,,
569760,note_on,0,0,3,,,,,,,,,3,,,56,74
569760,note_on,0,0,3,,,,,,,,,3,,,52,74
569952,note_off,192,0,3,,,,,,,,,3,,,52,0
569952,note_off,0,0,3,,,,,,,,,3,,,56,0
570000,note_on,48,0,3,,,,,,,,,3,,,56,54
570000,note_on,0,0,3,,,,,,,,,3,,,52,54
570192,note_off,192,0,3,,,,,,,,,3,,,52,0
570192,note_off,0,0,3,,,,,,,,,3,,,56,0
570240,note_on,48,0,3,,,,,,,,,3,,,56,45
570240,note_on,0,0,3,,,,,,,,,3,,,52,45
570432,note_off,192,0,3,,,,,,,,,3,,,52,0
570432,note_off,0,0,3,,,,,,,,,3,,,56,0
570480,note_on,0,0,3,,,,,,,,,3,,,52,41
570480,note_on,48,0,3,,,,,,,,,3,,,56,41
570650,note_off,890,0,1,,,,,,,,,1,,,68,0
570655,note_off,895,0,2,,,,,,,,,2,,,64,0
570660,note_off,5,0,2,,,,,,,,,2,,,59,0
570672,note_off,192,0,3,,,,,,,,,3,,,52,0
570672,note_off,0,0,3,,,,,,,,,3,,,56,0
570720,control_change,48,0,3,,,,,,,64,0,3,,,,
570720,note_on,0,0,3,,,,,,,,,3,,,52,42
570720,control_change,70,0,1,,,,,,,64,0,1,,,,
570720,control_change,60,0,2,,,,,,,64,0,2,,,,
570720,control_change,960,0,4,,,,,,,64,0,4,,,,
570720,control_change,960,0,5,,,,,,,64,0,5,,,,
570720,note_on,0,0,3,,,,,,,,,3,,,56,42
570720,note_on,0,0,1,,,,,,,,,1,,,69,42
570840,note_on,0,0,1,,,,,,,,,1,,,68,43
570840,note_off,120,0,1,,,,,,,,,1,,,69,0
570912,note_off,192,0,3,,,,,,,,,3,,,52,0
570912,note_off,0,0,3,,,,,,,,,3,,,56,0
570960,note_on,0,0,3,,,,,,,,,3,,,52,43
570960,note_on,48,0,3,,,,,,,,,3,,,56,43
570960,note_on,0,0,1,,,,,,,,,1,,,66,43
570960,note_off,120,0,1,,,,,,,,,1,,,68,0
571080,note_off,120,0,1,,,,,,,,,1,,,66,0
571080,note_on,0,0,1,,,,,,,,,1,,,64,43
571140,note_off,420,0,5,,,,,,,,,5,,,47,0
571152,note_off,192,0,3,,,,,,,,,3,,,52,0
571152,note_off,0,0,3,,,,,,,,,3,,,56,0
571176,note_off,96,0,1,,,,,,,,,1,,,64,0
571200,control_change,24,0,1,,,,,,,64,127,1,,,,
571200,note_on,0,0,3,,,,,,,,,3,,,54,44
571200,note_on,0,0,5,,,,,,,,,5,,,47,44
571200,control_change,60,0,5,,,,,,,64,127,5,,,,
571200,control_change,480,0,4,,,,,,,64,127,4,,,,
571200,control_change,48,0,3,,,,,,,64,127,3,,,,
571200,note_on,0,0,1,,,,,,,,,1,,,63,44
571200,note_on,0,0,3,,,,,,,,,3,,,57,44
571200,control_change,480,0,2,,,,,,,64,127,2,,,,
571392,note_off,192,0,3,,,,,,,,,3,,,57,0
571392,note_off,0,0,3,,,,,,,,,3,,,54,0
571440,note_on,0,0,3,,,,,,,,,3,,,57,45
571440,note_on,48,0,3,,,,,,,,,3,,,54,45
571440,note_on,240,0,1,,,,,,,,,1,,,73,45
571632,note_off,192,0,3,,,,,,,,,3,,,57,0
571632,note_off,0,0,3,,,,,,,,,3,,,54,0
571680,control_change,240,0,1,,,,,,,64,0,1,,,,
571680,note_off,0,0,1,,,,,,,,,1,,,73,0
571680,note_on,0,0,1,,,,,,,,,1,,,71,45
571680,control_change,48,0,3,,,,,,,64,0,3,,,,
571680,control_change,480,0,5,,,,,,,64,0,5,,,,
571680,note_on,0,0,3,,,,,,,,,3,,,54,45
571680,control_change,480,0,2,,,,,,,64,0,2,,,,
571680,note_on,0,0,3,,,,,,,,,3,,,57,45
571680,control_change,480,0,4,,,,,,,64,0,4,,,,
571872,note_off,192,0,3,,,,,,,,,3,,,57,0
571872,note_off,0,0,3,,,,,,,,,3,,,54,0
571872,note_off,192,0,1,,,,,,,,,1,,,71,0
571920,control_change,240,0,4,,,,,,,64,127,4,,,,
571920,control_change,240,0,2,,,,,,,64,127,2,,,,
571920,control_change,240,0,5,,,,,,,64,127,5,,,,
571920,control_change,48,0,1,,,,,,,64,127,1,,,,
571920,note_on,0,0,1,,,,,,,,,1,,,71,46
571920,control_change,48,0,3,,,,,,,64,127,3,,,,
571920,note_on,0,0,3,,,,,,,,,3,,,54,46
571920,note_on,0,0,3,,,,,,,,,3,,,57,46
572112,note_off,192,0,3,,,,,,,,,3,,,57,0
572112,note_off,0,0,3,,,,,,,,,3,,,54,0
572160,note_on,0,0,3,,,,,,,,,3,,,57,47
572160,note_on,48,0,3,,,,,,,,,3,,,54,47
572352,note_off,0,0,3,,,,,,,,,3,,,54,0
572352,note_off,192,0,3,,,,,,,,,3,,,57,0
572400,control_change,480,0,5,,,,,,,64,0,5,,,,
572400,control_change,480,0,2,,,,,,,64,0,2,,,,
572400,control_change,48,0,3,,,,,,,64,0,3,,,,
572400,control_change,480,0,4,,,,,,,64,0,4,,,,
572400,control_change,480,0,1,,,,,,,64,0,1,,,,
572400,note_on,0,0,3,,,,,,,,,3,,,54,48
572400,note_on,0,0,3,,,,,,,,,3,,,57,48
572520,set_tempo,2760,1,0,,,,,,394736,,,,,,,
572575,note_off,175,0,1,,,,,,,,,1,,,63,0
572580,note_off,180,0,5,,,,,,,,,5,,,47,0
572585,note_off,10,0,1,,,,,,,,,1,,,71,0
572592,note_off,0,0,3,,,,,,,,,3,,,54,0
572592,note_off,192,0,3,,,,,,,,,3,,,57,0
572640,set_tempo,120,1,0,,,,,,389610,,,,,,,
572640,note_on,0,0,5,,,,,,,,,5,,,59,86
572640,control_change,60,0,5,,,,,,,64,127,5,,,,
572640,note_on,0,0,2,,,,,,,,,2,,,76,86
572640,note_on,0,0,2,,,,,,,,,2,,,71,86
572640,control_change,240,0,2,,,,,,,64,127,2,,,,
572640,control_change,55,0,1,,,,,,,64,127,1,,,,
572640,note_on,0,0,1,,,,,,,,,1,,,79,86
572640,control_change,240,0,4,,,,,,,64,127,4,,,,
572640,control_change,48,0,3,,,,,,,64,127,3,,,,
572640,note_on,0,0,3,,,,,,,,,3,,,67,86
572640,note_on,0,0,3,,,,,,,,,3,,,64,86
572832,note_off,192,0,3,,,,,,,,,3,,,64,0
572832,note_off,0,0,3,,,,,,,,,3,,,67,0
572880,note_on,48,0,3,,,,,,,,,3,,,67,62
572880,note_on,0,0,3,,,,,,,,,3,,,64,62
573072,note_off,0,0,3,,,,,,,,,3,,,67,0
573072,note_off,192,0,3,,,,,,,,,3,,,64,0
573120,note_on,0,0,3,,,,,,,,,3,,,64,53
573120,note_on,48,0,3,,,,,,,,,3,,,67,53
573312,note_off,192,0,3,,,,,,,,,3,,,64,0
573312,note_off,0,0,3,,,,,,,,,3,,,67,0
573360,note_on,0,0,3,,,,,,,,,3,,,64,51
573360,note_on,48,0,3,,,,,,,,,3,,,67,51
573530,note_off,890,0,1,,,,,,,,,1,,,79,0
573535,note_off,895,0,2,,,,,,,,,2,,,76,0
573540,note_off,5,0,2,,,,,,,,,2,,,71,0
573552,note_off,192,0,3,,,,,,,,,3,,,64,0
573552,note_off,0,0,3,,,,,,,,,3,,,67,0
573600,note_on,0,0,1,,,,,,,,,1,,,81,52
573600,control_change,70,0,1,,,,,,,64,0,1,,,,
573600,control_change,960,0,4,,,,,,,64,0,4,,,,
573600,control_change,960,0,5,,,,,,,64,0,5,,,,
573600,control_change,60,0,2,,,,,,,64,0,2,,,,
573600,control_change,48,0,3,,,,,,,64,0,3,,,,
573600,note_on,0,0,3,,,,,,,,,3,,,67,52
573600,note_on,0,0,3,,,,,,,,,3,,,64,52
573720,note_on,0,0,1,,,,,,,,,1,,,79,52
573720,note_off,120,0,1,,,,,,,,,1,,,81,0
573792,note_off,0,0,3,,,,,,,,,3,,,67,0
573792,note_off,192,0,3,,,,,,,,,3,,,64,0
573840,note_off,120,0,1,,,,,,,,,1,,,79,0
573840,note_on,48,0,3,,,,,,,,,3,,,67,52
573840,note_on,0,0,1,,,,,,,,,1,,,78,52
573840,note_on,0,0,3,,,,,,,,,3,,,64,52
573960,note_on,0,0,1,,,,,,,,,1,,,76,53
573960,note_off,120,0,1,,,,,,,,,1,,,78,0
574020,note_off,420,0,5,,,,,,,,,5,,,59,0
574032,note_off,0,0,3,,,,,,,,,3,,,67,0
574032,note_off,192,0,3,,,,,,,,,3,,,64,0
574056,note_off,96,0,1,,,,,,,,,1,,,76,0
574080,note_on,0,0,5,,,,,,,,,5,,,59,53
574080,control_change,480,0,4,,,,,,,64,127,4,,,,
574080,control_change,60,0,5,,,,,,,64,127,5,,,,
574080,note_on,0,0,1,,,,,,,,,1,,,75,53
574080,note_on,0,0,3,,,,,,,,,3,,,69,53
574080,control_change,24,0,1,,,,,,,64,127,1,,,,
574080,control_change,480,0,2,,,,,,,64,127,2,,,,
574080,note_on,0,0,3,,,,,,,,,3,,,66,53
574080,control_change,48,0,3,,,,,,,64,127,3,,,,
574272,note_off,0,0,3,,,,,,,,,3,,,66,0
574272,note_off,192,0,3,,,,,,,,,3,,,69,0
574320,note_on,48,0,3,,,,,,,,,3,,,66,54
574320,note_on,0,0,3,,,,,,,,,3,,,69,54
574320,note_on,240,0,1,,,,,,,,,1,,,82,54
574512,note_off,0,0,3,,,,,,,,,3,,,66,0
574512,note_off,192,0,3,,,,,,,,,3,,,69,0
574560,note_on,0,0,3,,,,,,,,,3,,,66,55
574560,note_on,0,0,3,,,,,,,,,3,,,69,55
574560,control_change,480,0,2,,,,,,,64,0,2,,,,
574560,control_change,480,0,5,,,,,,,64,0,5,,,,
574560,control_change,48,0,3,,,,,,,64,0,3,,,,
574560,note_on,0,0,1,,,,,,,,,1,,,83,55
574560,note_off,0,0,1,,,,,,,,,1,,,82,0
574560,control_change,240,0,1,,,,,,,64,0,1,,,,
574560,control_change,480,0,4,,,,,,,64,0,4,,,,
574752,note_off,0,0,3,,,,,,,,,3,,,66,0
574752,note_off,192,0,1,,,,,,,,,1,,,83,0
574752,note_off,192,0,3,,,,,,,,,3,,,69,0
574800,control_change,240,0,2,,,,,,,64,127,2,,,,
574800,control_change,240,0,4,,,,,,,64,127,4,,,,
574800,control_change,240,0,5,,,,,,,64,127,5,,,,
574800,note_on,0,0,3,,,,,,,,,3,,,69,56
574800,note_on,0,0,3,,,,,,,,,3,,,66,56
574800,control_change,48,0,3,,,,,,,64,127,3,,,,
574800,note_on,0,0,1,,,,,,,,,1,,,83,56
574800,control_change,48,0,1,,,,,,,64,127,1,,,,
574992,note_off,0,0,3,,,,,,,,,3,,,66,0
574992,note_off,192,0,3,,,,,,,,,3,,,69,0
575040,note_on,0,0,3,,,,,,,,,3,,,69,56
575040,note_on,48,0,3,,,,,,,,,3,,,66,56
575232,note_off,192,0,3,,,,,,,,,3,,,69,0
575232,note_off,0,0,3,,,,,,,,,3,,,66,0
575280,control_change,480,0,2,,,,,,,64,0,2,,,,
575280,control_change,480,0,4,,,,,,,64,0,4,,,,
575280,control_change,480,0,1,,,,,,,64,0,1,,,,
575280,note_on,0,0,3,,,,,,,,,3,,,69,57
575280,note_on,0,0,3,,,,,,,,,3,,,66,57
575280,control_change,48,0,3,,,,,,,64,0,3,,,,
575280,control_change,480,0,5,,,,,,,64,0,5,,,,
575400,set_tempo,2760,1,0,,,,,,394736,,,,,,,
575455,note_off,175,0,1,,,,,,,,,1,,,75,0
575460,note_off,180,0,5,,,,,,,,,5,,,59,0
575465,note_off,10,0,1,,,,,,,,,1,,,83,0
575472,note_off,0,0,3,,,,,,,,,3,,,66,0
575472,note_off,192,0,3,,,,,,,,,3,,,69,0
575520,control_change,240,0,4,,,,,,,64,127,4,,,,
575520,control_change,55,0,1,,,,,,,64,127,1,,,,
575520,note_on,0,0,2,,,,,,,,,2,,,59,90
575520,set_tempo,120,1,0,,,,,,389610,,,,,,,
575520,note_on,0,0,1,,,,,,,,,1,,,67,90
575520,control_change,60,0,5,,,,,,,64,127,5,,,,
575520,note_on,0,0,2,,,,,,,,,2,,,64,90
575520,control_change,240,0,2,,,,,,,64,127,2,,,,
575520,note_on,0,0,5,,,,,,,,,5,,,47,90
575520,note_on,0,0,3,,,,,,,,,3,,,55,90
575520,note_on,0,0,3,,,,,,,,,3,,,52,90
575520,control_change,48,0,3,,,,,,,64,127,3,,,,
575712,note_off,0,0,3,,,,,,,,,3,,,52,0
575712,note_off,192,0,3,,,,,,,,,3,,,55,0
575760,note_on,0,0,3,,,,,,,,,3,,,55,74
575760,note_on,48,0,3,,,,,,,,,3,,,52,74
575952,note_off,192,0,3,,,,,,,,,3,,,55,0
575952,note_off,0,0,3,,,,,,,,,3,,,52,0
576000,note_on,0,0,3,,,,,,,,,3,,,55,63
576000,note_on,48,0,3,,,,,,,,,3,,,52,63
576192,note_off,0,0,3,,,,,,,,,3,,,52,0
576192,note_off,192,0,3,,,,,,,,,3,,,55,0
576240,note_on,0,0,3,,,,,,,,,3,,,55,60
576240,note_on,48,0,3,,,,,,,,,3,,,52,60
576410,note_off,890,0,1,,,,,,,,,1,,,67,0
576415,note_off,895,0,2,,,,,,,,,2,,,64,0
576420,note_off,5,0,2,,,,,,,,,2,,,59,0
576432,note_off,0,0,3,,,,,,,,,3,,,52,0
576432,note_off,192,0,3,,,,,,,,,3,,,55,0
576480,control_change,960,0,5,,,,,,,64,0,5,,,,
576480,control_change,48,0,3,,,,,,,64,0,3,,,,
576480,note_on,0,0,3,,,,,,,,,3,,,52,61
576480,note_on,0,0,3,,,,,,,,,3,,,55,61
576480,control_change,960,0,4,,,,,,,64,0,4,,,,
576480,control_change,60,0,2,,,,,,,64,0,2,,,,
576480,note_on,0,0,1,,,,,,,,,1,,,69,61
576480,control_change,70,0,1,,,,,,,64,0,1,,,,
576600,note_off,120,0,1,,,,,,,,,1,,,69,0
576600,note_on,0,0,1,,,,,,,,,1,,,67,61
576672,note_off,0,0,3,,,,,,,,,3,,,52,0
576672,note_off,192,0,3,,,,,,,,,3,,,55,0
576720,note_on,48,0,3,,,,,,,,,3,,,52,62
576720,note_on,0,0,3,,,,,,,,,3,,,55,62
576720,note_on,0,0,1,,,,,,,,,1,,,66,62
576720,note_off,120,0,1,,,,,,,,,1,,,67,0
576840,note_on,0,0,1,,,,,,,,,1,,,64,62
576840,note_off,120,0,1,,,,,,,,,1,,,66,0
576900,note_off,420,0,5,,,,,,,,,5,,,47,0
576912,note_off,192,0,3,,,,,,,,,3,,,55,0
576912,note_off,0,0,3,,,,,,,,,3,,,52,0
576936,note_off,96,0,1,,,,,,,,,1,,,64,0
576960,control_change,60,0,5,,,,,,,64,127,5,,,,
576960,note_on,0,0,3,,,,,,,,,3,,,57,63
576960,note_on,0,0,3,,,,,,,,,3,,,54,63
576960,control_change,480,0,2,,,,,,,64,127,2,,,,
576960,control_change,24,0,1,,,,,,,64,127,1,,,,
576960,note_on,0,0,1,,,,,,,,,1,,,63,63
576960,control_change,48,0,3,,,,,,,64,127,3,,,,
576960,control_change,480,0,4,,,,,,,64,127,4,,,,
576960,note_on,0,0,5,,,,,,,,,5,,,47,63
577152,note_off,192,0,3,,,,,,,,,3,,,54,0
577152,note_off,0,0,3,,,,,,,,,3,,,57,0
577200,note_on,240,0,1,,,,,,,,,1,,,72,63
577200,note_on,0,0,3,,,,,,,,,3,,,54,63
577200,note_on,48,0,3,,,,,,,,,3,,,57,63
577392,note_off,192,0,3,,,,,,,,,3,,,54,0
577392,note_off,0,0,3,,,,,,,,,3,,,57,0
577440,note_on,0,0,3,,,,,,,,,3,,,54,64
577440,control_change,480,0,4,,,,,,,64,0,4,,,,
577440,control_change,480,0,2,,,,,,,64,0,2,,,,
577440,note_on,0,0,3,,,,,,,,,3,,,57,64
577440,control_change,480,0,5,,,,,,,64,0,5,,,,
577440,note_on,0,0,1,,,,,,,,,1,,,71,64
577440,note_off,0,0,1,,,,,,,,,1,,,72,0
577440,control_change,240,0,1,,,,,,,64,0,1,,,,
577440,control_change,48,0,3,,,,,,,64,0,3,,,,
577632,note_off,192,0,1,,,,,,,,,1,,,71,0
577632,note_off,0,0,3,,,,,,,,,3,,,57,0
577632,note_off,192,0,3,,,,,,,,,3,,,54,0
577680,control_change,240,0,5,,,,,,,64,127,5,,,,
577680,control_change,240,0,2,,,,,,,64,127,2,,,,
577680,control_change,240,0,4,,,,,,,64,127,4,,,,
577680,note_on,0,0,3,,,,,,,,,3,,,57,65
577680,note_on,0,0,3,,,,,,,,,3,,,54,65
577680,control_change,48,0,1,,,,,,,64,127,1,,,,
577680,note_on,0,0,1,,,,,,,,,1,,,71,65
577680,control_change,48,0,3,,,,,,,64,127,3,,,,
577872,note_off,192,0,3,,,,,,,,,3,,,54,0
577872,note_off,0,0,3,,,,,,,,,3,,,57,0
577920,note_on,48,0,3,,,,,,,,,3,,,57,66
577920,note_on,0,0,3,,,,,,,,,3,,,54,66
578112,note_off,192,0,3,,,,,,,,,3,,,54,0
578112,note_off,0,0,3,,,,,,,,,3,,,57,0
578160,control_change,480,0,5,,,,,,,64,0,5,,,,
578160,control_change,480,0,1,,,,,,,64,0,1,,,,
578160,control_change,480,0,4,,,,,,,64,0,4,,,,
578160,note_on,0,0,3,,,,,,,,,3,,,54,66
578160,control_change,480,0,2,,,,,,,64,0,2,,,,
578160,set_tempo,2640,1,0,,,,,,394736,,,,,,,
578160,note_on,0,0,3,,,,,,,,,3,,,57,66
578160,control_change,48,0,3,,,,,,,64,0,3,,,,
578335,note_off,175,0,1,,,,,,,,,1,,,63,0
578340,note_off,180,0,5,,,,,,,,,5,,,47,0
578345,note_off,10,0,1,,,,,,,,,1,,,71,0
578352,note_off,192,0,3,,,,,,,,,3,,,54,0
578352,note_off,0,0,3,,,,,,,,,3,,,57,0
578400,note_on,0,0,4,,,,,,,,,4,,,47,92
578400,control_change,55,0,1,,,,,,,64,127,1,,,,
578400,control_change,60,0,5,,,,,,,64,127,5,,,,
578400,note_on,0,0,5,,,,,,,,,5,,,40,92
578400,control_change,240,0,4,,,,,,,64,127,4,,,,
578400,note_on,0,0,1,,,,,,,,,1,,,64,92
578400,note_on,0,0,5,,,,,,,,,5,,,52,92
578400,note_on,0,0,1,,,,,,,,,1,,,76,92
578400,control_change,240,0,2,,,,,,,64,127,2,,,,
578400,note_on,0,0,2,,,,,,,,,2,,,71,92
578400,note_on,0,0,2,,,,,,,,,2,,,68,92
578400,set_tempo,240,1,0,,,,,,389610,,,,,,,
578400,control_change,48,0,3,,,,,,,64,127,3,,,,
578760,note_off,360,0,1,,,,,,,,,1,,,64,0
578760,note_off,360,0,4,,,,,,,,,4,,,47,0
578760,note_off,360,0,5,,,,,,,,,5,,,52,0
578760,note_off,360,0,2,,,,,,,,,2,,,68,0
578760,note_off,0,0,2,,,,,,,,,2,,,71,0
578760,note_off,0,0,5,,,,,,,,,5,,,40,0
578760,note_off,0,0,1,,,,,,,,,1,,,76,0
578880,note_on,120,0,4,,,,,,,,,4,,,56,69
578880,note_on,120,0,1,,,,,,,,,1,,,64,69
578880,note_on,120,0,5,,,,,,,,,5,,,52,69
579000,note_off,120,0,1,,,,,,,,,1,,,64,0
579000,note_on,240,0,2,,,,,,,,,2,,,68,69
579036,note_off,156,0,5,,,,,,,,,5,,,52,0
579036,note_off,156,0,4,,,,,,,,,4,,,56,0
579060,control_change,60,0,2,,,,,,,64,0,2,,,,
579060,control_change,660,0,3,,,,,,,64,0,3,,,,
579060,control_change,24,0,4,,,,,,,64,0,4,,,,
579060,control_change,24,0,5,,,,,,,64,0,5,,,,
579060,control_change,60,0,1,,,,,,,64,0,1,,,,
579096,note_off,36,0,2,,,,,,,,,2,,,68,0
579120,note_on,60,0,1,,,,,,,,,1,,,66,70
579120,note_on,60,0,4,,,,,,,,,4,,,57,70
579120,note_on,60,0,5,,,,,,,,,5,,,54,70
579240,note_on,144,0,2,,,,,,,,,2,,,69,70
579240,note_off,120,0,1,,,,,,,,,1,,,66,0
579276,note_off,156,0,5,,,,,,,,,5,,,54,0
579276,note_off,156,0,4,,,,,,,,,4,,,57,0
579336,note_off,96,0,2,,,,,,,,,2,,,69,0
579360,note_on,84,0,5,,,,,,,,,5,,,56,70
579360,note_on,120,0,1,,,,,,,,,1,,,68,70
579360,note_on,84,0,4,,,,,,,,,4,,,59,70
579480,note_on,144,0,2,,,,,,,,,2,,,71,71
579480,note_off,120,0,1,,,,,,,,,1,,,68,0
579516,note_off,156,0,4,,,,,,,,,4,,,59,0
579516,note_off,156,0,5,,,,,,,,,5,,,56,0
579576,note_off,96,0,2,,,,,,,,,2,,,71,0
579600,note_on,84,0,5,,,,,,,,,5,,,57,71
579600,note_on,120,0,1,,,,,,,,,1,,,69,71
579600,note_on,84,0,4,,,,,,,,,4,,,61,71
579720,note_on,144,0,2,,,,,,,,,2,,,73,72
579720,set_tempo,1320,1,0,,,,,,394736,,,,,,,
579720,note_off,120,0,1,,,,,,,,,1,,,69,0
579756,note_off,156,0,4,,,,,,,,,4,,,61,0
579756,note_off,156,0,5,,,,,,,,,5,,,57,0
579816,note_off,96,0,2,,,,,,,,,2,,,73,0
579840,note_on,0,0,5,,,,,,,,,5,,,47,98
579840,control_change,780,0,3,,,,,,,64,127,3,,,,
579840,note_on,0,0,2,,,,,,,,,2,,,66,98
579840,note_on,0,0,1,,,,,,,,,1,,,59,98
579840,control_change,120,0,1,,,,,,,64,127,1,,,,
579840,note_on,0,0,4,,,,,,,,,4,,,54,98
579840,control_change,84,0,4,,,,,,,64,127,4,,,,
579840,set_tempo,120,1,0,,,,,,389610,,,,,,,
579840,control_change,84,0,5,,,,,,,64,127,5,,,,
579840,control_change,24,0,2,,,,,,,64,127,2,,,,
579840,note_on,0,0,1,,,,,,,,,1,,,71,98
579840,note_on,0,0,2,,,,,,,,,2,,,69,98
579840,note_on,0,0,2,,,,,,,,,2,,,63,98
580200,note_off,0,0,1,,,,,,,,,1,,,59,0
580200,note_off,0,0,2,,,,,,,,,2,,,66,0
580200,note_off,0,0,2,,,,,,,,,2,,,69,0
580200,note_off,360,0,2,,,,,,,,,2,,,63,0
580200,note_off,360,0,4,,,,,,,,,4,,,54,0
580200,note_off,360,0,5,,,,,,,,,5,,,47,0
580200,note_off,360,0,1,,,,,,,,,1,,,71,0
580320,note_on,120,0,1,,,,,,,,,1,,,81,73
580320,note_on,120,0,4,,,,,,,,,4,,,63,73
580320,note_on,120,0,5,,,,,,,,,5,,,59,73
580440,note_off,120,0,1,,,,,,,,,1,,,81,0
580440,note_on,240,0,2,,,,,,,,,2,,,71,74
580500,control_change,60,0,1,,,,,,,64,0,1,,,,
580500,control_change,180,0,4,,,,,,,64,0,4,,,,
580500,control_change,60,0,2,,,,,,,64,0,2,,,,
580500,control_change,660,0,3,,,,,,,64,0,3,,,,
580500,control_change,180,0,5,,,,,,,64,0,5,,,,
580536,note_off,36,0,2,,,,,,,,,2,,,71,0
580560,note_on,60,0,1,,,,,,,,,1,,,78,74
580560,note_off,60,0,4,,,,,,,,,4,,,63,0
580560,note_on,0,0,4,,,,,,,,,4,,,66,74
580680,note_off,120,0,1,,,,,,,,,1,,,78,0
580680,note_on,144,0,2,,,,,,,,,2,,,71,75
580776,note_off,96,0,2,,,,,,,,,2,,,71,0
580800,note_on,120,0,1,,,,,,,,,1,,,76,75
580800,note_on,240,0,4,,,,,,,,,4,,,68,75
580805,note_off,5,0,4,,,,,,,,,4,,,66,0
580920,note_off,120,0,1,,,,,,,,,1,,,76,0
580920,note_on,144,0,2,,,,,,,,,2,,,71,75
581016,note_off,96,0,2,,,,,,,,,2,,,71,0
581040,note_on,120,0,1,,,,,,,,,1,,,75,76
581040,note_on,235,0,4,,,,,,,,,4,,,69,76
581045,note_off,5,0,4,,,,,,,,,4,,,68,0
581160,set_tempo,1320,1,0,,,,,,394736,,,,,,,
581160,note_off,120,0,1,,,,,,,,,1,,,75,0
581160,note_on,144,0,2,,,,,,,,,2,,,71,76
581196,note_off,151,0,4,,,,,,,,,4,,,69,0
581200,note_off,700,0,5,,,,,,,,,5,,,59,0
581256,note_off,96,0,2,,,,,,,,,2,,,71,0
581280,note_on,0,0,2,,,,,,,,,2,,,71,104
581280,note_on,0,0,5,,,,,,,,,5,,,52,104
581280,control_change,80,0,5,,,,,,,64,127,5,,,,
581280,note_on,0,0,2,,,,,,,,,2,,,68,104
581280,control_change,24,0,2,,,,,,,64,127,2,,,,
581280,set_tempo,120,1,0,,,,,,389610,,,,,,,
581280,note_on,0,0,5,,,,,,,,,5,,,40,104
581280,note_on,0,0,4,,,,,,,,,4,,,47,104
581280,control_change,84,0,4,,,,,,,64,127,4,,,,
581280,control_change,120,0,1,,,,,,,64,127,1,,,,
581280,note_on,0,0,1,,,,,,,,,1,,,76,104
581280,note_on,0,0,1,,,,,,,,,1,,,64,104
581280,control_change,780,0,3,,,,,,,64,127,3,,,,
581640,note_off,360,0,2,,,,,,,,,2,,,71,0
581640,note_off,0,0,1,,,,,,,,,1,,,64,0
581640,note_off,360,0,1,,,,,,,,,1,,,76,0
581640,note_off,360,0,5,,,,,,,,,5,,,40,0
581640,note_off,0,0,5,,,,,,,,,5,,,52,0
581640,note_off,0,0,2,,,,,,,,,2,,,68,0
581640,note_off,360,0,4,,,,,,,,,4,,,47,0
581760,note_on,120,0,5,,,,,,,,,5,,,52,78
581760,note_on,120,0,1,,,,,,,,,1,,,64,78
581760,note_on,120,0,4,,,,,,,,,4,,,56,78
581880,note_off,120,0,1,,,,,,,,,1,,,64,0
581880,note_on,240,0,2,,,,,,,,,2,,,68,79
581916,note_off,156,0,5,,,,,,,,,5,,,52,0
581916,note_off,156,0,4,,,,,,,,,4,,,56,0
581940,control_change,24,0,5,,,,,,,64,0,5,,,,
581940,control_change,60,0,1,,,,,,,64,0,1,,,,
581940,control_change,60,0,2,,,,,,,64,0,2,,,,
581940,control_change,660,0,3,,,,,,,64,0,3,,,,
581940,control_change,24,0,4,,,,,,,64,0,4,,,,
581976,note_off,36,0,2,,,,,,,,,2,,,68,0
582000,note_on,60,0,5,,,,,,,,,5,,,54,79
582000,note_on,60,0,4,,,,,,,,,4,,,57,79
582000,note_on,60,0,1,,,,,,,,,1,,,66,79
582120,note_on,144,0,2,,,,,,,,,2,,,69,79
582120,note_off,120,0,1,,,,,,,,,1,,,66,0
582156,note_off,156,0,4,,,,,,,,,4,,,57,0
582156,note_off,156,0,5,,,,,,,,,5,,,54,0
582216,note_off,96,0,2,,,,,,,,,2,,,69,0
582240,note_on,84,0,4,,,,,,,,,4,,,59,80
582240,note_on,84,0,5,,,,,,,,,5,,,56,80
582240,note_on,120,0,1,,,,,,,,,1,,,68,80
582360,note_off,120,0,1,,,,,,,,,1,,,68,0
582360,note_on,144,0,2,,,,,,,,,2,,,71,80
582396,note_off,156,0,4,,,,,,,,,4,,,59,0
582396,note_off,156,0,5,,,,,,,,,5,,,56,0
582456,note_off,96,0,2,,,,,,,,,2,,,71,0
582480,note_on,120,0,1,,,,,,,,,1,,,69,80
582480,note_on,84,0,5,,,,,,,,,5,,,57,80
582480,note_on,84,0,4,,,,,,,,,4,,,61,80
582600,note_off,120,0,1,,,,,,,,,1,,,69,0
582600,set_tempo,1320,1,0,,,,,,394736,,,,,,,
582600,note_on,144,0,2,,,,,,,,,2,,,73,81
582636,note_off,156,0,4,,,,,,,,,4,,,61,0
582636,note_off,156,0,5,,,,,,,,,5,,,57,0
582696,note_off,96,0,2,,,,,,,,,2,,,73,0
582720,control_change,84,0,5,,,,,,,64,127,5,,,,
582720,control_change,780,0,3,,,,,,,64,127,3,,,,
582720,note_on,0,0,4,,,,,,,,,4,,,54,110
582720,note_on,0,0,1,,,,,,,,,1,,,71,110
582720,note_on,0,0,1,,,,,,,,,1,,,59,110
582720,control_change,120,0,1,,,,,,,64,127,1,,,,
582720,note_on,0,0,5,,,,,,,,,5,,,47,110
582720,set_tempo,120,1,0,,,,,,389610,,,,,,,
582720,note_on,0,0,2,,,,,,,,,2,,,69,110
582720,note_on,0,0,2,,,,,,,,,2,,,66,110
582720,note_on,0,0,2,,,,,,,,,2,,,63,110
582720,control_change,84,0,4,,,,,,,64,127,4,,,,
582720,control_change,24,0,2,,,,,,,64,127,2,,,,
583080,note_off,360,0,5,,,,,,,,,5,,,47,0
583080,note_off,360,0,2,,,,,,,,,2,,,63,0
583080,note_off,360,0,1,,,,,,,,,1,,,71,0
583080,note_off,0,0,1,,,,,,,,,1,,,59,0
583080,note_off,0,0,2,,,,,,,,,2,,,66,0
583080,note_off,360,0,4,,,,,,,,,4,,,54,0
583080,note_off,0,0,2,,,,,,,,,2,,,69,0
583200,note_on,120,0,4,,,,,,,,,4,,,63,83
583200,note_on,120,0,5,,,,,,,,,5,,,59,83
583200,note_on,120,0,1,,,,,,,,,1,,,81,83
583320,note_on,240,0,2,,,,,,,,,2,,,71,83
583320,note_off,120,0,1,,,,,,,,,1,,,81,0
583380,control_change,660,0,3,,,,,,,64,0,3,,,,
583380,control_change,60,0,2,,,,,,,64,0,2,,,,
583380,control_change,180,0,5,,,,,,,64,0,5,,,,
583380,control_change,60,0,1,,,,,,,64,0,1,,,,
583380,control_change,180,0,4,,,,,,,64,0,4,,,,
583416,note_off,36,0,2,,,,,,,,,2,,,71,0
583440,note_off,60,0,4,,,,,,,,,4,,,63,0
583440,note_on,60,0,1,,,,,,,,,1,,,78,84
583440,note_on,0,0,4,,,,,,,,,4,,,66,84
583560,note_on,144,0,2,,,,,,,,,2,,,71,84
583560,note_off,120,0,1,,,,,,,,,1,,,78,0
583656,note_off,96,0,2,,,,,,,,,2,,,71,0
583680,note_on,240,0,4,,,,,,,,,4,,,68,84
583680,note_on,120,0,1,,,,,,,,,1,,,76,84
583685,note_off,5,0,4,,,,,,,,,4,,,66,0
583800,note_on,144,0,2,,,,,,,,,2,,,71,85
583800,note_off,120,0,1,,,,,,,,,1,,,76,0
583896,note_off,96,0,2,,,,,,,,,2,,,71,0
583920,note_on,120,0,1,,,,,,,,,1,,,75,85
583920,note_on,235,0,4,,,,,,,,,4,,,69,85
583925,note_off,5,0,4,,,,,,,,,4,,,68,0
584040,set_tempo,1320,1,0,,,,,,394736,,,,,,,
584040,note_on,144,0,2,,,,,,,,,2,,,71,86
584040,note_off,120,0,1,,,,,,,,,1,,,75,0
584076,note_off,151,0,4,,,,,,,,,4,,,69,0
584080,note_off,700,0,5,,,,,,,,,5,,,59,0
584136,note_off,96,0,2,,,,,,,,,2,,,71,0
584160,note_on,80,0,5,,,,,,,,,5,,,52,86
584160,set_tempo,120,1,0,,,,,,389610,,,,,,,
584160,note_on,84,0,4,,,,,,,,,4,,,64,86
584160,note_on,120,0,1,,,,,,,,,1,,,80,86
584280,note_on,144,0,2,,,,,,,,,2,,,71,86
584280,note_off,120,0,1,,,,,,,,,1,,,80,0
584316,note_off,156,0,4,,,,,,,,,4,,,64,0
584316,note_off,156,0,5,,,,,,,,,5,,,52,0
584376,note_off,96,0,2,,,,,,,,,2,,,71,0
584400,note_on,84,0,5,,,,,,,,,5,,,56,92
584400,note_on,24,0,2,,,,,,,,,2,,,72,87
584400,note_on,84,0,4,,,,,,,,,4,,,63,92
584496,note_off,96,0,2,,,,,,,,,2,,,72,0
584520,note_on,240,0,1,,,,,,,,,1,,,78,87
584640,note_on,144,0,2,,,,,,,,,2,,,75,88
584640,note_off,120,0,1,,,,,,,,,1,,,78,0
584736,note_off,96,0,2,,,,,,,,,2,,,75,0
584760,note_off,360,0,4,,,,,,,,,4,,,63,0
584760,note_off,360,0,5,,,,,,,,,5,,,56,0
584760,note_on,24,0,2,,,,,,,,,2,,,72,88
584856,note_off,96,0,2,,,,,,,,,2,,,72,0
584880,note_on,120,0,4,,,,,,,,,4,,,61,88
584880,note_on,120,0,5,,,,,,,,,5,,,49,88
584880,note_on,240,0,1,,,,,,,,,1,,,76,88
585000,note_on,144,0,2,,,,,,,,,2,,,64,89
585000,note_off,120,0,1,,,,,,,,,1,,,76,0
585036,note_off,156,0,5,,,,,,,,,5,,,49,0
585036,note_off,156,0,4,,,,,,,,,4,,,61,0
585096,note_off,96,0,2,,,,,,,,,2,,,64,0
585120,note_on,84,0,4,,,,,,,,,4,,,59,94
585120,note_on,24,0,2,,,,,,,,,2,,,68,89
585120,note_on,84,0,5,,,,,,,,,5,,,52,94
585216,note_off,96,0,2,,,,,,,,,2,,,68,0
585240,note_on,240,0,1,,,,,,,,,1,,,74,89
585360,note_on,144,0,2,,,,,,,,,2,,,71,90
585360,note_off,120,0,1,,,,,,,,,1,,,74,0
585456,note_off,96,0,2,,,,,,,,,2,,,71,0
585480,note_on,24,0,2,,,,,,,,,2,,,68,90
585480,note_off,360,0,5,,,,,,,,,5,,,52,0
585480,note_off,360,0,4,,,,,,,,,4,,,59,0
585576,note_off,96,0,2,,,,,,,,,2,,,68,0
585600,note_on,240,0,1,,,,,,,,,1,,,73,91
585600,note_on,120,0,4,,,,,,,,,4,,,57,91
585600,note_on,120,0,5,,,,,,,,,5,,,45,91
585720,note_on,144,0,2,,,,,,,,,2,,,64,91
585720,note_off,120,0,1,,,,,,,,,1,,,73,0
585756,note_off,156,0,5,,,,,,,,,5,,,45,0
585756,note_off,156,0,4,,,,,,,,,4,,,57,0
585816,note_off,96,0,2,,,,,,,,,2,,,64,0
585840,note_on,24,0,2,,,,,,,,,2,,,65,91
585840,note_on,84,0,4,,,,,,,,,4,,,56,96
585840,note_on,84,0,5,,,,,,,,,5,,,49,96
585936,note_off,96,0,2,,,,,,,,,2,,,65,0
585960,note_on,240,0,1,,,,,,,,,1,,,71,92
586080,note_off,120,0,1,,,,,,,,,1,,,71,0
586080,note_on,144,0,2,,,,,,,,,2,,,68,92
586176,note_off,96,0,2,,,,,,,,,2,,,68,0
586200,note_off,360,0,4,,,,,,,,,4,,,56,0
586200,note_on,24,0,2,,,,,,,,,2,,,65,93
586200,note_off,360,0,5,,,,,,,,,5,,,49,0
586296,note_off,96,0,2,,,,,,,,,2,,,65,0
586320,control_change,24,0,2,,,,,,,64,127,2,,,,
586320,control_change,2940,0,3,,,,,,,64,127,3,,,,
586320,note_on,0,0,1,,,,,,,,,1,,,69,93
586320,note_on,0,0,5,,,,,,,,,5,,,42,93
586320,control_change,240,0,1,,,,,,,64,127,1,,,,
586320,control_change,120,0,4,,,,,,,64,127,4,,,,
586320,control_change,120,0,5,,,,,,,64,127,5,,,,
586440,note_on,120,0,2,,,,,,,,,2,,,61,93
586440,note_off,120,0,1,,,,,,,,,1,,,69,0
586512,note_off,192,0,5,,,,,,,,,5,,,42,0
586536,note_off,96,0,2,,,,,,,,,2,,,61,0
586560,note_on,240,0,4,,,,,,,,,4,,,57,94
586560,note_on,48,0,5,,,,,,,,,5,,,54,94
586560,note_on,24,0,2,,,,,,,,,2,,,66,94
586656,note_off,96,0,2,,,,,,,,,2,,,66,0
586680,note_on,240,0,1,,,,,,,,,1,,,69,94
586752,note_off,192,0,4,,,,,,,,,4,,,57,0
586752,note_off,192,0,5,,,,,,,,,5,,,54,0
586800,note_off,120,0,1,,,,,,,,,1,,,69,0
586800,note_on,48,0,5,,,,,,,,,5,,,42,95
586800,note_on,144,0,2,,,,,,,,,2,,,61,95
586896,note_off,96,0,2,,,,,,,,,2,,,61,0
586920,note_on,24,0,2,,,,,,,,,2,,,66,95
586980,control_change,180,0,5,,,,,,,64,0,5,,,,
586980,control_change,60,0,2,,,,,,,64,0,2,,,,
586980,control_change,180,0,1,,,,,,,64,0,1,,,,
586980,control_change,660,0,3,,,,,,,64,0,3,,,,
586980,control_change,228,0,4,,,,,,,64,0,4,,,,
586992,note_off,12,0,5,,,,,,,,,5,,,42,0
587016,note_off,36,0,2,,,,,,,,,2,,,66,0
587040,control_change,24,0,2,,,,,,,64,127,2,,,,
587040,control_change,60,0,3,,,,,,,64,127,3,,,,
587040,note_on,0,0,4,,,,,,,,,4,,,57,95
587040,note_on,0,0,1,,,,,,,,,1,,,69,95
587040,control_change,48,0,5,,,,,,,64,127,5,,,,
587040,note_on,0,0,5,,,,,,,,,5,,,54,95
587040,control_change,60,0,1,,,,,,,64,127,1,,,,
587040,control_change,60,0,4,,,,,,,64,127,4,,,,
587160,note_on,120,0,2,,,,,,,,,2,,,61,94
587160,note_off,120,0,1,,,,,,,,,1,,,69,0
587232,note_off,192,0,4,,,,,,,,,4,,,57,0
587232,note_off,192,0,5,,,,,,,,,5,,,54,0
587256,note_off,96,0,2,,,,,,,,,2,,,61,0
587280,note_on,48,0,5,,,,,,,,,5,,,42,95
587280,note_on,24,0,2,,,,,,,,,2,,,66,95
587376,note_off,96,0,2,,,,,,,,,2,,,66,0
587400,note_on,240,0,1,,,,,,,,,1,,,69,96
587472,note_off,192,0,5,,,,,,,,,5,,,42,0
587520,note_on,144,0,2,,,,,,,,,2,,,61,97
587520,note_on,48,0,5,,,,,,,,,5,,,54,97
587520,note_on,288,0,4,,,,,,,,,4,,,57,97
587520,note_off,120,0,1,,,,,,,,,1,,,69,0
587616,note_off,96,0,2,,,,,,,,,2,,,61,0
587640,note_on,24,0,2,,,,,,,,,2,,,66,97
587700,control_change,60,0,2,,,,,,,64,0,2,,,,
587700,control_change,180,0,5,,,,,,,64,0,5,,,,
587700,control_change,660,0,3,,,,,,,64,0,3,,,,
587700,control_change,180,0,4,,,,,,,64,0,4,,,,
587700,control_change,180,0,1,,,,,,,64,0,1,,,,
587712,note_off,12,0,5,,,,,,,,,5,,,54,0
587712,note_off,12,0,4,,,,,,,,,4,,,57,0
587736,note_off,36,0,2,,,,,,,,,2,,,66,0
587760,note_on,0,0,1,,,,,,,,,1,,,69,98
587760,control_change,60,0,3,,,,,,,64,127,3,,,,
587760,control_change,48,0,5,,,,,,,64,127,5,,,,
587760,note_on,0,0,5,,,,,,,,,5,,,40,98
587760,control_change,60,0,1,,,,,,,64,127,1,,,,
587760,control_change,48,0,4,,,,,,,64,127,4,,,,
587760,control_change,24,0,2,,,,,,,64,127,2,,,,
587880,note_off,120,0,1,,,,,,,,,1,,,69,0
587880,note_on,120,0,2,,,,,,,,,2,,,60,99
587952,note_off,192,0,5,,,,,,,,,5,,,40,0
587976,note_off,96,0,2,,,,,,,,,2,,,60,0
588000,note_on,24,0,2,,,,,,,,,2,,,66,100
588000,note_on,48,0,5,,,,,,,,,5,,,52,100
588000,note_on,240,0,4,,,,,,,,,4,,,54,100
588000,note_on,0,0,4,,,,,,,,,4,,,57,100
588096,note_off,96,0,2,,,,,,,,,2,,,66,0
588120,note_on,240,0,1,,,,,,,,,1,,,69,101
588192,note_off,192,0,5,,,,,,,,,5,,,52,0
588192,note_off,192,0,4,,,,,,,,,4,,,57,0
588192,note_off,0,0,4,,,,,,,,,4,,,54,0
588240,note_on,48,0,5,,,,,,,,,5,,,40,102
588240,note_on,144,0,2,,,,,,,,,2,,,60,102
588240,note_off,120,0,1,,,,,,,,,1,,,69,0
588336,note_off,96,0,2,,,,,,,,,2,,,60,0
588360,note_on,24,0,2,,,,,,,,,2,,,66,102
588420,control_change,228,0,4,,,,,,,64,0,4,,,,
588420,control_change,60,0,2,,,,,,,64,0,2,,,,
588420,control_change,660,0,3,,,,,,,64,0,3,,,,
588420,control_change,180,0,1,,,,,,,64,0,1,,,,
588420,control_change,180,0,5,,,,,,,64,0,5,,,,
588432,note_off,12,0,5,,,,,,,,,5,,,40,0
588456,note_off,36,0,2,,,,,,,,,2,,,66,0
588480,note_on,0,0,4,,,,,,,,,4,,,57,103
588480,control_change,60,0,3,,,,,,,64,127,3,,,,
588480,control_change,60,0,1,,,,,,,64,127,1,,,,
588480,note_on,0,0,5,,,,,,,,,5,,,52,103
588480,control_change,60,0,4,,,,,,,64,127,4,,,,
588480,note_on,0,0,4,,,,,,,,,4,,,54,103
588480,control_change,24,0,2,,,,,,,64,127,2,,,,
588480,note_on,0,0,1,,,,,,,,,1,,,69,103
588480,control_change,48,0,5,,,,,,,64,127,5,,,,
588600,note_off,120,0,1,,,,,,,,,1,,,69,0
588600,note_on,120,0,2,,,,,,,,,2,,,60,104
588672,note_off,192,0,4,,,,,,,,,4,,,57,0
588672,note_off,192,0,5,,,,,,,,,5,,,52,0
588672,note_off,0,0,4,,,,,,,,,4,,,54,0
588696,note_off,96,0,2,,,,,,,,,2,,,60,0
588720,note_on,24,0,2,,,,,,,,,2,,,66,105
588720,note_on,48,0,5,,,,,,,,,5,,,40,105
588816,note_off,96,0,2,,,,,,,,,2,,,66,0
588840,note_on,240,0,1,,,,,,,,,1,,,69,106
588912,note_off,192,0,5,,,,,,,,,5,,,40,0
588960,note_on,144,0,2,,,,,,,,,2,,,60,106
588960,note_on,288,0,4,,,,,,,,,4,,,54,106
588960,note_off,120,0,1,,,,,,,,,1,,,69,0
588960,note_on,48,0,5,,,,,,,,,5,,,52,106
588960,note_on,0,0,4,,,,,,,,,4,,,57,106
589056,note_off,96,0,2,,,,,,,,,2,,,60,0
589080,set_tempo,4920,1,0,,,,,,402684,,,,,,,
589080,note_on,24,0,2,,,,,,,,,2,,,66,107
589140,control_change,60,0,2,,,,,,,64,0,2,,,,
589140,control_change,180,0,5,,,,,,,64,0,5,,,,
589140,control_change,180,0,1,,,,,,,64,0,1,,,,
589140,control_change,180,0,4,,,,,,,64,0,4,,,,
589140,control_change,660,0,3,,,,,,,64,0,3,,,,
589152,note_off,12,0,5,,,,,,,,,5,,,52,0
589152,note_off,12,0,4,,,,,,,,,4,,,57,0
589152,note_off,0,0,4,,,,,,,,,4,,,54,0
589176,note_off,36,0,2,,,,,,,,,2,,,66,0
589200,control_change,60,0,1,,,,,,,64,127,1,,,,
589200,control_change,24,0,2,,,,,,,64,127,2,,,,
589200,note_on,0,0,1,,,,,,,,,1,,,59,107
589200,note_on,0,0,5,,,,,,,,,5,,,51,107
589200,control_change,48,0,5,,,,,,,64,127,5,,,,
589200,note_on,0,0,4,,,,,,,,,4,,,57,107
589200,note_on,0,0,4,,,,,,,,,4,,,54,107
589200,control_change,48,0,4,,,,,,,64,127,4,,,,
589200,set_tempo,120,1,0,,,,,,389610,,,,,,,
589200,control_change,60,0,3,,,,,,,64,127,3,,,,
589320,note_off,120,0,1,,,,,,,,,1,,,59,0
589320,note_on,0,0,1,,,,,,,,,1,,,63,108
589440,note_off,120,0,1,,,,,,,,,1,,,63,0
589440,note_on,0,0,1,,,,,,,,,1,,,66,110
589560,note_on,0,0,1,,,,,,,,,1,,,71,111
589560,note_off,120,0,1,,,,,,,,,1,,,66,0
589560,note_off,360,0,5,,,,,,,,,5,,,51,0
589560,note_off,0,0,4,,,,,,,,,4,,,54,0
589560,note_off,360,0,4,,,,,,,,,4,,,57,0
589680,note_on,0,0,1,,,,,,,,,1,,,75,113
589680,note_off,120,0,1,,,,,,,,,1,,,71,0
589800,note_on,0,0,1,,,,,,,,,1,,,78,114
589800,note_off,120,0,1,,,,,,,,,1,,,75,0
589860,set_tempo,660,1,0,,,,,,394736,,,,,,,
589896,note_off,96,0,1,,,,,,,,,1,,,78,0
589920,note_on,24,0,1,,,,,,,,,1,,,81,126
591960,control_change,2400,0,5,,,,,,,64,0,5,,,,
591960,control_change,2760,0,3,,,,,,,64,0,3,,,,
591960,control_change,2400,0,4,,,,,,,64,0,4,,,,
591960,control_change,2040,0,1,,,,,,,64,0,1,,,,
591960,control_change,2760,0,2,,,,,,,64,0,2,,,,
592010,note_off,50,0,1,,,,,,,,,1,,,81,0
592080,set_tempo,2220,1,0,,,,,,389610,,,,,,,
592080,note_on,120,0,5,,,,,,,,,5,,,52,58
592080,note_on,70,0,1,,,,,,,,,1,,,80,58
592320,note_on,360,0,3,,,,,,,,,3,,,59,57
592560,note_on,0,0,3,,,,,,,,,3,,,64,56
592560,note_off,480,0,1,,,,,,,,,1,,,80,0
592560,note_on,0,0,1,,,,,,,,,1,,,78,56
592560,note_off,240,0,3,,,,,,,,,3,,,59,0
592740,note_off,180,0,1,,,,,,,,,1,,,78,0
592740,note_on,0,0,1,,,,,,,,,1,,,78,56
592740,note_off,660,0,5,,,,,,,,,5,,,52,0
592752,note_off,192,0,3,,,,,,,,,3,,,64,0
592800,note_off,60,0,1,,,,,,,,,1,,,78,0
592800,note_on,0,0,1,,,,,,,,,1,,,76,56
592800,note_on,60,0,5,,,,,,,,,5,,,56,56
593040,note_on,288,0,3,,,,,,,,,3,,,59,55
593040,note_on,0,0,1,,,,,,,,,1,,,75,55
593040,note_off,240,0,1,,,,,,,,,1,,,76,0
593280,note_on,0,0,1,,,,,,,,,1,,,76,54
593280,note_off,240,0,1,,,,,,,,,1,,,75,0
593280,note_off,240,0,3,,,,,,,,,3,,,59,0
593280,note_on,0,0,3,,,,,,,,,3,,,64,54
593460,note_off,660,0,5,,,,,,,,,5,,,56,0
593472,note_off,192,0,3,,,,,,,,,3,,,64,0
593472,note_off,192,0,1,,,,,,,,,1,,,76,0
593520,note_on,60,0,5,,,,,,,,,5,,,57,54
593520,note_on,48,0,1,,,,,,,,,1,,,77,61
593520,note_on,1560,0,2,,,,,,,,,2,,,74,61
593520,note_on,0,0,2,,,,,,,,,2,,,71,61
593760,note_on,288,0,3,,,,,,,,,3,,,62,53
594000,note_on,0,0,1,,,,,,,,,1,,,80,52
594000,note_off,480,0,1,,,,,,,,,1,,,77,0
594000,note_off,240,0,3,,,,,,,,,3,,,62,0
594000,note_on,0,0,3,,,,,,,,,3,,,65,52
594180,note_off,660,0,5,,,,,,,,,5,,,57,0
594192,note_off,192,0,3,,,,,,,,,3,,,65,0
594240,note_on,0,0,2,,,,,,,,,2,,,73,51
594240,note_on,60,0,5,,,,,,,,,5,,,57,51
594240,note_off,0,0,2,,,,,,,,,2,,,74,0
594240,note_off,720,0,2,,,,,,,,,2,,,71,0
594240,note_off,240,0,1,,,,,,,,,1,,,80,0
594240,note_on,0,0,1,,,,,,,,,1,,,78,51
594480,note_on,288,0,3,,,,,,,,,3,,,61,51
594720,note_on,0,0,3,,,,,,,,,3,,,66,50
594720,note_off,240,0,3,,,,,,,,,3,,,61,0
594720,note_on,480,0,1,,,,,,,,,1,,,85,50
594895,note_off,655,0,2,,,,,,,,,2,,,73,0
594900,note_on,0,0,1,,,,,,,,,1,,,78,50
594900,note_off,180,0,1,,,,,,,,,1,,,78,0
594905,note_off,665,0,5,,,,,,,,,5,,,57,0
594912,note_off,192,0,3,,,,,,,,,3,,,66,0
594912,note_off,12,0,1,,,,,,,,,1,,,85,0
594960,note_on,55,0,5,,,,,,,,,5,,,59,49
594960,note_on,0,0,1,,,,,,,,,1,,,76,49
594960,note_off,48,0,1,,,,,,,,,1,,,78,0
595200,note_off,240,0,1,,,,,,,,,1,,,76,0
595200,note_on,0,0,1,,,,,,,,,1,,,75,49
595200,note_on,288,0,3,,,,,,,,,3,,,68,49
595440,note_off,240,0,1,,,,,,,,,1,,,75,0
595440,note_on,0,0,1,,,,,,,,,1,,,76,48
595440,note_on,0,0,3,,,,,,,,,3,,,71,48
595440,note_off,240,0,3,,,,,,,,,3,,,68,0
595620,note_off,660,0,5,,,,,,,,,5,,,59,0
595632,note_off,192,0,3,,,,,,,,,3,,,71,0
595645,note_off,205,0,1,,,,,,,,,1,,,76,0
595680,note_on,785,0,2,,,,,,,,,2,,,75,49
595680,note_on,60,0,5,,,,,,,,,5,,,59,49
595680,note_on,35,0,1,,,,,,,,,1,,,80,49
595920,note_on,288,0,3,,,,,,,,,3,,,69,46
596160,set_tempo,4080,1,0,,,,,,394736,,,,,,,
596160,note_off,240,0,3,,,,,,,,,3,,,69,0
596160,note_on,0,0,3,,,,,,,,,3,,,71,42
596160,note_on,0,0,1,,,,,,,,,1,,,78,42
596160,note_off,480,0,1,,,,,,,,,1,,,80,0
596280,set_tempo,120,1,0,,,,,,500000,,,,,,,
596340,note_off,660,0,2,,,,,,,,,2,,,75,0
596345,note_off,665,0,5,,,,,,,,,5,,,59,0
596352,note_off,192,0,3,,,,,,,,,3,,,71,0
596355,note_off,195,0,1,,,,,,,,,1,,,78,0
596400,set_tempo,120,1,0,,,,,,389610,,,,,,,
596400,note_on,0,0,1,,,,,,,,,1,,,76,116
596400,note_on,0,0,1,,,,,,,,,1,,,64,116
596400,control_change,0,0,1,,,,,,,64,0,1,,,,
596400,control_change,4440,0,4,,,,,,,64,127,4,,,,
596400,control_change,45,0,1,,,,,,,64,127,1,,,,
596400,note_on,0,0,2,,,,,,,,,2,,,68,116
596400,note_on,0,0,4,,,,,,,,,4,,,47,116
596400,note_on,0,0,2,,,,,,,,,2,,,71,116
596400,control_change,0,0,4,,,,,,,64,0,4,,,,
596400,control_change,0,0,2,,,,,,,64,0,2,,,,
596400,control_change,60,0,2,,,,,,,64,127,2,,,,
596400,control_change,55,0,5,,,,,,,64,127,5,,,,
596400,control_change,0,0,3,,,,,,,64,0,3,,,,
596400,control_change,48,0,3,,,,,,,64,127,3,,,,
596400,control_change,0,0,5,,,,,,,64,0,5,,,,
596400,note_on,0,0,5,,,,,,,,,5,,,40,116
596400,note_on,0,0,5,,,,,,,,,5,,,52,116
596760,note_off,0,0,1,,,,,,,,,1,,,64,0
596760,note_off,360,0,1,,,,,,,,,1,,,76,0
596760,note_off,360,0,2,,,,,,,,,2,,,71,0
596760,note_off,0,0,2,,,,,,,,,2,,,68,0
596760,note_off,360,0,4,,,,,,,,,4,,,47,0
596760,note_off,360,0,5,,,,,,,,,5,,,40,0
596760,note_off,0,0,5,,,,,,,,,5,,,52,0
596880,note_on,120,0,5,,,,,,,,,5,,,52,96
596880,note_on,120,0,1,,,,,,,,,1,,,64,96
596880,note_on,120,0,4,,,,,,,,,4,,,56,96
597000,note_off,120,0,1,,,,,,,,,1,,,64,0
597000,note_on,240,0,2,,,,,,,,,2,,,68,96
597036,note_off,156,0,4,,,,,,,,,4,,,56,0
597036,note_off,156,0,5,,,,,,,,,5,,,52,0
597060,control_change,60,0,2,,,,,,,64,0,2,,,,
597060,control_change,24,0,4,,,,,,,64,0,4,,,,
597060,control_change,660,0,3,,,,,,,64,0,3,,,,
597060,control_change,24,0,5,,,,,,,64,0,5,,,,
597060,control_change,60,0,1,,,,,,,64,0,1,,,,
597096,note_off,36,0,2,,,,,,,,,2,,,68,0
597120,note_on,60,0,1,,,,,,,,,1,,,66,96
597120,note_on,60,0,5,,,,,,,,,5,,,54,96
597120,note_on,60,0,4,,,,,,,,,4,,,57,96
597240,note_on,144,0,2,,,,,,,,,2,,,69,97
597240,note_off,120,0,1,,,,,,,,,1,,,66,0
597276,note_off,156,0,4,,,,,,,,,4,,,57,0
597276,note_off,156,0,5,,,,,,,,,5,,,54,0
597336,note_off,96,0,2,,,,,,,,,2,,,69,0
597360,note_on,84,0,4,,,,,,,,,4,,,59,97
597360,note_on,84,0,5,,,,,,,,,5,,,56,97
597360,note_on,120,0,1,,,,,,,,,1,,,68,97
597480,note_off,120,0,1,,,,,,,,,1,,,68,0
597480,note_on,144,0,2,,,,,,,,,2,,,71,97
597516,note_off,156,0,5,,,,,,,,,5,,,56,0
597516,note_off,156,0,4,,,,,,,,,4,,,59,0
597576,note_off,96,0,2,,,,,,,,,2,,,71,0
597600,note_on,120,0,1,,,,,,,,,1,,,69,97
597600,note_on,84,0,5,,,,,,,,,5,,,57,97
597600,note_on,84,0,4,,,,,,,,,4,,,61,97
597720,set_tempo,1320,1,0,,,,,,394736,,,,,,,
597720,note_on,144,0,2,,,,,,,,,2,,,73,98
597720,note_off,120,0,1,,,,,,,,,1,,,69,0
597756,note_off,156,0,5,,,,,,,,,5,,,57,0
597756,note_off,156,0,4,,,,,,,,,4,,,61,0
597816,note_off,96,0,2,,,,,,,,,2,,,73,0
597840,control_change,780,0,3,,,,,,,64,127,3,,,,
597840,control_change,120,0,1,,,,,,,64,127,1,,,,
597840,note_on,0,0,2,,,,,,,,,2,,,66,119
597840,note_on,0,0,2,,,,,,,,,2,,,63,119
597840,note_on,0,0,2,,,,,,,,,2,,,69,119
597840,control_change,24,0,2,,,,,,,64,127,2,,,,
597840,set_tempo,120,1,0,,,,,,389610,,,,,,,
597840,note_on,0,0,1,,,,,,,,,1,,,59,119
597840,note_on,0,0,1,,,,,,,,,1,,,71,119
597840,control_change,84,0,5,,,,,,,64,127,5,,,,
597840,note_on,0,0,5,,,,,,,,,5,,,47,119
597840,note_on,0,0,4,,,,,,,,,4,,,54,119
597840,control_change,84,0,4,,,,,,,64,127,4,,,,
598200,note_off,360,0,1,,,,,,,,,1,,,71,0
598200,note_off,360,0,5,,,,,,,,,5,,,47,0
598200,note_off,360,0,2,,,,,,,,,2,,,66,0
598200,note_off,0,0,2,,,,,,,,,2,,,63,0
598200,note_off,0,0,2,,,,,,,,,2,,,69,0
598200,note_off,0,0,1,,,,,,,,,1,,,59,0
598200,note_off,360,0,4,,,,,,,,,4,,,54,0
598320,note_on,120,0,5,,,,,,,,,5,,,59,99
598320,note_on,120,0,1,,,,,,,,,1,,,81,99
598320,note_on,120,0,4,,,,,,,,,4,,,63,99
598440,note_off,120,0,1,,,,,,,,,1,,,81,0
598440,note_on,240,0,2,,,,,,,,,2,,,71,99
598500,control_change,180,0,4,,,,,,,64,0,4,,,,
598500,control_change,60,0,2,,,,,,,64,0,2,,,,
598500,control_change,180,0,5,,,,,,,64,0,5,,,,
598500,control_change,660,0,3,,,,,,,64,0,3,,,,
598500,control_change,60,0,1,,,,,,,64,0,1,,,,
598536,note_off,36,0,2,,,,,,,,,2,,,71,0
598560,note_on,60,0,1,,,,,,,,,1,,,78,99
598560,note_off,60,0,4,,,,,,,,,4,,,63,0
598560,note_on,0,0,4,,,,,,,,,4,,,66,99
598680,note_on,144,0,2,,,,,,,,,2,,,71,99
598680,note_off,120,0,1,,,,,,,,,1,,,78,0
598776,note_off,96,0,2,,,,,,,,,2,,,71,0
598800,note_on,120,0,1,,,,,,,,,1,,,76,100
598800,note_on,240,0,4,,,,,,,,,4,,,68,100
598805,note_off,5,0,4,,,,,,,,,4,,,66,0
598920,note_on,144,0,2,,,,,,,,,2,,,71,100
598920,note_off,120,0,1,,,,,,,,,1,,,76,0
599016,note_off,96,0,2,,,,,,,,,2,,,71,0
599040,note_on,120,0,1,,,,,,,,,1,,,75,100
599040,note_on,235,0,4,,,,,,,,,4,,,69,100
599045,note_off,5,0,4,,,,,,,,,4,,,68,0
599160,set_tempo,1320,1,0,,,,,,394736,,,,,,,
599160,note_on,144,0,2,,,,,,,,,2,,,71,100
599160,note_off,120,0,1,,,,,,,,,1,,,75,0
599196,note_off,151,0,4,,,,,,,,,4,,,69,0
599200,note_off,700,0,5,,,,,,,,,5,,,59,0
599256,note_off,96,0,2,,,,,,,,,2,,,71,0
599280,note_on,0,0,2,,,,,,,,,2,,,68,120
599280,note_on,0,0,2,,,,,,,,,2,,,71,120
599280,control_change,780,0,3,,,,,,,64,127,3,,,,
599280,control_change,24,0,2,,,,,,,64,127,2,,,,
599280,note_on,0,0,5,,,,,,,,,5,,,40,120
599280,note_on,0,0,5,,,,,,,,,5,,,52,120
599280,note_on,0,0,1,,,,,,,,,1,,,64,120
599280,note_on,0,0,1,,,,,,,,,1,,,76,120
599280,control_change,120,0,1,,,,,,,64,127,1,,,,
599280,control_change,84,0,4,,,,,,,64,127,4,,,,
599280,set_tempo,120,1,0,,,,,,389610,,,,,,,
599280,control_change,80,0,5,,,,,,,64,127,5,,,,
599280,note_on,0,0,4,,,,,,,,,4,,,47,120
599640,note_off,360,0,4,,,,,,,,,4,,,47,0
599640,note_off,0,0,2,,,,,,,,,2,,,71,0
599640,note_off,360,0,5,,,,,,,,,5,,,52,0
599640,note_off,0,0,5,,,,,,,,,5,,,40,0
599640,note_off,0,0,1,,,,,,,,,1,,,76,0
599640,note_off,360,0,1,,,,,,,,,1,,,64,0
599640,note_off,360,0,2,,,,,,,,,2,,,68,0
599760,note_on,120,0,5,,,,,,,,,5,,,52,101
599760,note_on,120,0,1,,,,,,,,,1,,,64,101
599760,note_on,120,0,4,,,,,,,,,4,,,56,101
599880,note_on,240,0,2,,,,,,,,,2,,,68,102
599880,note_off,120,0,1,,,,,,,,,1,,,64,0
599916,note_off,156,0,4,,,,,,,,,4,,,56,0
599916,note_off,156,0,5,,,,,,,,,5,,,52,0
599940,control_change,24,0,5,,,,,,,64,0,5,,,,
599940,control_change,24,0,4,,,,,,,64,0,4,,,,
599940,control_change,60,0,1,,,,,,,64,0,1,,,,
599940,control_change,60,0,2,,,,,,,64,0,2,,,,
599940,control_change,660,0,3,,,,,,,64,0,3,,,,
599976,note_off,36,0,2,,,,,,,,,2,,,68,0
600000,note_on,60,0,4,,,,,,,,,4,,,57,102
600000,note_on,60,0,1,,,,,,,,,1,,,66,102
600000,note_on,60,0,5,,,,,,,,,5,,,54,102
600120,note_off,120,0,1,,,,,,,,,1,,,66,0
600120,note_on,144,0,2,,,,,,,,,2,,,69,102
600156,note_off,156,0,4,,,,,,,,,4,,,57,0
600156,note_off,156,0,5,,,,,,,,,5,,,54,0
600216,note_off,96,0,2,,,,,,,,,2,,,69,0
600240,note_on,84,0,5,,,,,,,,,5,,,56,102
600240,note_on,84,0,4,,,,,,,,,4,,,59,102
600240,note_on,120,0,1,,,,,,,,,1,,,68,102
600360,note_on,144,0,2,,,,,,,,,2,,,71,103
600360,note_off,120,0,1,,,,,,,,,1,,,68,0
600396,note_off,156,0,4,,,,,,,,,4,,,59,0
600396,note_off,156,0,5,,,,,,,,,5,,,56,0
600456,note_off,96,0,2,,,,,,,,,2,,,71,0
600480,note_on,84,0,4,,,,,,,,,4,,,61,103
600480,note_on,84,0,5,,,,,,,,,5,,,57,103
600480,note_on,120,0,1,,,,,,,,,1,,,69,103
600600,note_off,120,0,1,,,,,,,,,1,,,69,0
600600,set_tempo,1320,1,0,,,,,,394736,,,,,,,
600600,note_on,144,0,2,,,,,,,,,2,,,73,103
600636,note_off,156,0,5,,,,,,,,,5,,,57,0
600636,note_off,156,0,4,,,,,,,,,4,,,61,0
600696,note_off,96,0,2,,,,,,,,,2,,,73,0
600720,control_change,24,0,2,,,,,,,64,127,2,,,,
600720,control_change,84,0,5,,,,,,,64,127,5,,,,
600720,note_on,0,0,5,,,,,,,,,5,,,47,125
600720,note_on,0,0,2,,,,,,,,,2,,,66,125
600720,note_on,0,0,2,,,,,,,,,2,,,63,125
600720,note_on,0,0,2,,,,,,,,,2,,,69,125
600720,control_change,780,0,3,,,,,,,64,127,3,,,,
600720,set_tempo,120,1,0,,,,,,389610,,,,,,,
600720,control_change,84,0,4,,,,,,,64,127,4,,,,
600720,note_on,0,0,4,,,,,,,,,4,,,54,125
600720,control_change,120,0,1,,,,,,,64,127,1,,,,
600720,note_on,0,0,1,,,,,,,,,1,,,59,125
600720,note_on,0,0,1,,,,,,,,,1,,,71,125
601080,note_off,360,0,2,,,,,,,,,2,,,69,0
601080,note_off,360,0,4,,,,,,,,,4,,,54,0
601080,note_off,360,0,5,,,,,,,,,5,,,47,0
601080,note_off,0,0,1,,,,,,,,,1,,,59,0
601080,note_off,360,0,1,,,,,,,,,1,,,71,0
601080,note_off,0,0,2,,,,,,,,,2,,,63,0
601080,note_off,0,0,2,,,,,,,,,2,,,66,0
601200,note_on,120,0,4,,,,,,,,,4,,,63,104
601200,note_on,120,0,5,,,,,,,,,5,,,59,104
601200,note_on,120,0,1,,,,,,,,,1,,,81,104
601320,note_on,240,0,2,,,,,,,,,2,,,71,104
601320,note_off,120,0,1,,,,,,,,,1,,,81,0
601380,control_change,660,0,3,,,,,,,64,0,3,,,,
601380,control_change,180,0,5,,,,,,,64,0,5,,,,
601380,control_change,180,0,4,,,,,,,64,0,4,,,,
601380,control_change,60,0,2,,,,,,,64,0,2,,,,
601380,control_change,60,0,1,,,,,,,64,0,1,,,,
601416,note_off,36,0,2,,,,,,,,,2,,,71,0
601440,note_on,0,0,4,,,,,,,,,4,,,66,105
601440,note_off,60,0,4,,,,,,,,,4,,,63,0
601440,note_on,60,0,1,,,,,,,,,1,,,78,105
601560,note_on,144,0,2,,,,,,,,,2,,,71,105
601560,note_off,120,0,1,,,,,,,,,1,,,78,0
601656,note_off,96,0,2,,,,,,,,,2,,,71,0
601680,note_on,240,0,4,,,,,,,,,4,,,68,105
601680,note_on,120,0,1,,,,,,,,,1,,,76,105
601685,note_off,5,0,4,,,,,,,,,4,,,66,0
601800,note_on,144,0,2,,,,,,,,,2,,,71,105
601800,note_off,120,0,1,,,,,,,,,1,,,76,0
601896,note_off,96,0,2,,,,,,,,,2,,,71,0
601920,note_on,235,0,4,,,,,,,,,4,,,69,106
601920,note_on,120,0,1,,,,,,,,,1,,,75,106
601925,note_off,5,0,4,,,,,,,,,4,,,68,0
602040,set_tempo,1320,1,0,,,,,,394736,,,,,,,
602040,note_off,120,0,1,,,,,,,,,1,,,75,0
602040,note_on,144,0,2,,,,,,,,,2,,,71,106
602076,note_off,151,0,4,,,,,,,,,4,,,69,0
602080,note_off,700,0,5,,,,,,,,,5,,,59,0
602136,note_off,96,0,2,,,,,,,,,2,,,71,0
602160,note_on,80,0,5,,,,,,,,,5,,,52,106
602160,set_tempo,120,1,0,,,,,,389610,,,,,,,
602160,note_on,120,0,1,,,,,,,,,1,,,80,106
602160,note_on,84,0,4,,,,,,,,,4,,,64,106
602280,note_on,144,0,2,,,,,,,,,2,,,71,106
602280,note_off,120,0,1,,,,,,,,,1,,,80,0
602316,note_off,156,0,4,,,,,,,,,4,,,64,0
602316,note_off,156,0,5,,,,,,,,,5,,,52,0
602376,note_off,96,0,2,,,,,,,,,2,,,71,0
602400,note_on,84,0,4,,,,,,,,,4,,,63,112
602400,note_on,84,0,5,,,,,,,,,5,,,56,112
602400,note_on,24,0,2,,,,,,,,,2,,,72,107
602496,note_off,96,0,2,,,,,,,,,2,,,72,0
602520,note_on,240,0,1,,,,,,,,,1,,,78,107
602640,note_on,144,0,2,,,,,,,,,2,,,75,107
602640,note_off,120,0,1,,,,,,,,,1,,,78,0
602736,note_off,96,0,2,,,,,,,,,2,,,75,0
602760,note_off,360,0,4,,,,,,,,,4,,,63,0
602760,note_on,24,0,2,,,,,,,,,2,,,72,107
602760,note_off,360,0,5,,,,,,,,,5,,,56,0
602856,note_off,96,0,2,,,,,,,,,2,,,72,0
602880,note_on,240,0,1,,,,,,,,,1,,,76,107
602880,note_on,120,0,4,,,,,,,,,4,,,61,107
602880,note_on,120,0,5,,,,,,,,,5,,,49,107
603000,note_off,120,0,1,,,,,,,,,1,,,76,0
603000,note_on,144,0,2,,,,,,,,,2,,,64,108
603036,note_off,156,0,5,,,,,,,,,5,,,49,0
603036,note_off,156,0,4,,,,,,,,,4,,,61,0
603096,note_off,96,0,2,,,,,,,,,2,,,64,0
603120,note_on,84,0,4,,,,,,,,,4,,,59,113
603120,note_on,24,0,2,,,,,,,,,2,,,68,108
603120,note_on,84,0,5,,,,,,,,,5,,,52,113
603216,note_off,96,0,2,,,,,,,,,2,,,68,0
603240,note_on,240,0,1,,,,,,,,,1,,,74,108
603360,note_on,144,0,2,,,,,,,,,2,,,71,108
603360,note_off,120,0,1,,,,,,,,,1,,,74,0
603456,note_off,96,0,2,,,,,,,,,2,,,71,0
603480,note_off,360,0,5,,,,,,,,,5,,,52,0
603480,note_off,360,0,4,,,,,,,,,4,,,59,0
603480,note_on,24,0,2,,,,,,,,,2,,,68,109
603576,note_off,96,0,2,,,,,,,,,2,,,68,0
603600,note_on,120,0,5,,,,,,,,,5,,,45,109
603600,note_on,120,0,4,,,,,,,,,4,,,57,109
603600,note_on,240,0,1,,,,,,,,,1,,,73,109
603720,note_off,120,0,1,,,,,,,,,1,,,73,0
603720,note_on,144,0,2,,,,,,,,,2,,,64,109
603756,note_off,156,0,4,,,,,,,,,4,,,57,0
603756,note_off,156,0,5,,,,,,,,,5,,,45,0
603816,note_off,96,0,2,,,,,,,,,2,,,64,0
603840,note_on,84,0,5,,,,,,,,,5,,,49,114
603840,note_on,24,0,2,,,,,,,,,2,,,65,109
603840,note_on,84,0,4,,,,,,,,,4,,,56,114
603936,note_off,96,0,2,,,,,,,,,2,,,65,0
603960,note_on,240,0,1,,,,,,,,,1,,,71,109
604080,note_on,144,0,2,,,,,,,,,2,,,68,110
604080,note_off,120,0,1,,,,,,,,,1,,,71,0
604176,note_off,96,0,2,,,,,,,,,2,,,68,0
604200,note_off,360,0,4,,,,,,,,,4,,,56,0
604200,note_on,24,0,2,,,,,,,,,2,,,65,110
604200,note_off,360,0,5,,,,,,,,,5,,,49,0
604296,note_off,96,0,2,,,,,,,,,2,,,65,0
604320,control_change,120,0,4,,,,,,,64,127,4,,,,
604320,note_on,0,0,5,,,,,,,,,5,,,42,110
604320,control_change,120,0,5,,,,,,,64,127,5,,,,
604320,control_change,240,0,1,,,,,,,64,127,1,,,,
604320,note_on,0,0,1,,,,,,,,,1,,,69,110
604320,control_change,24,0,2,,,,,,,64,127,2,,,,
604320,control_change,2940,0,3,,,,,,,64,127,3,,,,
604440,note_off,120,0,1,,,,,,,,,1,,,69,0
604440,note_on,120,0,2,,,,,,,,,2,,,61,110
604512,note_off,192,0,5,,,,,,,,,5,,,42,0
604536,note_off,96,0,2,,,,,,,,,2,,,61,0
604560,note_on,24,0,2,,,,,,,,,2,,,66,111
604560,note_on,48,0,5,,,,,,,,,5,,,54,111
604560,note_on,240,0,4,,,,,,,,,4,,,57,111
604656,note_off,96,0,2,,,,,,,,,2,,,66,0
604680,note_on,240,0,1,,,,,,,,,1,,,69,111
604752,note_off,192,0,4,,,,,,,,,4,,,57,0
604752,note_off,192,0,5,,,,,,,,,5,,,54,0
604800,note_on,144,0,2,,,,,,,,,2,,,61,112
604800,note_on,48,0,5,,,,,,,,,5,,,42,112
604800,note_off,120,0,1,,,,,,,,,1,,,69,0
604896,note_off,96,0,2,,,,,,,,,2,,,61,0
604920,note_on,24,0,2,,,,,,,,,2,,,66,112
604980,control_change,228,0,4,,,,,,,64,0,4,,,,
604980,control_change,180,0,5,,,,,,,64,0,5,,,,
604980,control_change,60,0,2,,,,,,,64,0,2,,,,
604980,control_change,660,0,3,,,,,,,64,0,3,,,,
604980,control_change,180,0,1,,,,,,,64,0,1,,,,
604992,note_off,12,0,5,,,,,,,,,5,,,42,0
605016,note_off,36,0,2,,,,,,,,,2,,,66,0
605040,control_change,60,0,4,,,,,,,64,127,4,,,,
605040,note_on,0,0,4,,,,,,,,,4,,,57,112
605040,control_change,60,0,3,,,,,,,64,127,3,,,,
605040,note_on,0,0,5,,,,,,,,,5,,,54,112
605040,control_change,60,0,1,,,,,,,64,127,1,,,,
605040,control_change,24,0,2,,,,,,,64,127,2,,,,
605040,note_on,0,0,1,,,,,,,,,1,,,69,112
605040,control_change,48,0,5,,,,,,,64,127,5,,,,
605160,note_off,120,0,1,,,,,,,,,1,,,69,0
605160,note_on,120,0,2,,,,,,,,,2,,,61,113
605232,note_off,192,0,5,,,,,,,,,5,,,54,0
605232,note_off,192,0,4,,,,,,,,,4,,,57,0
605256,note_off,96,0,2,,,,,,,,,2,,,61,0
605280,note_on,48,0,5,,,,,,,,,5,,,42,113
605280,note_on,24,0,2,,,,,,,,,2,,,66,113
605376,note_off,96,0,2,,,,,,,,,2,,,66,0
605400,note_on,240,0,1,,,,,,,,,1,,,69,114
605472,note_off,192,0,5,,,,,,,,,5,,,42,0
605520,note_on,144,0,2,,,,,,,,,2,,,61,114
605520,note_on,48,0,5,,,,,,,,,5,,,54,114
605520,note_on,288,0,4,,,,,,,,,4,,,57,114
605520,note_off,120,0,1,,,,,,,,,1,,,69,0
605616,note_off,96,0,2,,,,,,,,,2,,,61,0
605640,note_on,24,0,2,,,,,,,,,2,,,66,115
605700,control_change,660,0,3,,,,,,,64,0,3,,,,
605700,control_change,180,0,1,,,,,,,64,0,1,,,,
605700,control_change,60,0,2,,,,,,,64,0,2,,,,
605700,control_change,180,0,4,,,,,,,64,0,4,,,,
605700,control_change,180,0,5,,,,,,,64,0,5,,,,
605712,note_off,12,0,4,,,,,,,,,4,,,57,0
605712,note_off,12,0,5,,,,,,,,,5,,,54,0
605736,note_off,36,0,2,,,,,,,,,2,,,66,0
605760,note_on,0,0,5,,,,,,,,,5,,,40,115
605760,control_change,48,0,5,,,,,,,64,127,5,,,,
605760,control_change,24,0,2,,,,,,,64,127,2,,,,
605760,control_change,48,0,4,,,,,,,64,127,4,,,,
605760,note_on,0,0,1,,,,,,,,,1,,,69,115
605760,control_change,60,0,1,,,,,,,64,127,1,,,,
605760,control_change,60,0,3,,,,,,,64,127,3,,,,
605880,note_on,120,0,2,,,,,,,,,2,,,60,116
605880,note_off,120,0,1,,,,,,,,,1,,,69,0
605952,note_off,192,0,5,,,,,,,,,5,,,40,0
605976,note_off,96,0,2,,,,,,,,,2,,,60,0
606000,note_on,24,0,2,,,,,,,,,2,,,66,116
606000,note_on,0,0,4,,,,,,,,,4,,,57,116
606000,note_on,240,0,4,,,,,,,,,4,,,54,116
606000,note_on,48,0,5,,,,,,,,,5,,,52,116
606096,note_off,96,0,2,,,,,,,,,2,,,66,0
606120,note_on,240,0,1,,,,,,,,,1,,,69,117
606192,note_off,0,0,4,,,,,,,,,4,,,54,0
606192,note_off,192,0,4,,,,,,,,,4,,,57,0
606192,note_off,192,0,5,,,,,,,,,5,,,52,0
606240,note_off,120,0,1,,,,,,,,,1,,,69,0
606240,note_on,144,0,2,,,,,,,,,2,,,60,117
606240,note_on,48,0,5,,,,,,,,,5,,,40,117
606336,note_off,96,0,2,,,,,,,,,2,,,60,0
606360,note_on,24,0,2,,,,,,,,,2,,,66,118
606420,control_change,180,0,5,,,,,,,64,0,5,,,,
606420,control_change,60,0,2,,,,,,,64,0,2,,,,
606420,control_change,228,0,4,,,,,,,64,0,4,,,,
606420,control_change,660,0,3,,,,,,,64,0,3,,,,
606420,control_change,180,0,1,,,,,,,64,0,1,,,,
606432,note_off,12,0,5,,,,,,,,,5,,,40,0
606456,note_off,36,0,2,,,,,,,,,2,,,66,0
606480,control_change,24,0,2,,,,,,,64,127,2,,,,
606480,control_change,60,0,3,,,,,,,64,127,3,,,,
606480,note_on,0,0,5,,,,,,,,,5,,,52,118
606480,note_on,0,0,1,,,,,,,,,1,,,69,118
606480,control_change,60,0,1,,,,,,,64,127,1,,,,
606480,control_change,48,0,5,,,,,,,64,127,5,,,,
606480,note_on,0,0,4,,,,,,,,,4,,,57,118
606480,control_change,60,0,4,,,,,,,64,127,4,,,,
606480,note_on,0,0,4,,,,,,,,,4,,,54,118
606600,note_on,120,0,2,,,,,,,,,2,,,60,119
606600,note_off,120,0,1,,,,,,,,,1,,,69,0
606672,note_off,0,0,4,,,,,,,,,4,,,54,0
606672,note_off,192,0,4,,,,,,,,,4,,,57,0
606672,note_off,192,0,5,,,,,,,,,5,,,52,0
606696,note_off,96,0,2,,,,,,,,,2,,,60,0
606720,note_on,48,0,5,,,,,,,,,5,,,40,119
606720,note_on,24,0,2,,,,,,,,,2,,,66,119
606816,note_off,96,0,2,,,,,,,,,2,,,66,0
606840,note_on,240,0,1,,,,,,,,,1,,,69,119
606912,note_off,192,0,5,,,,,,,,,5,,,40,0
606960,note_on,0,0,4,,,,,,,,,4,,,57,120
606960,note_on,288,0,4,,,,,,,,,4,,,54,120
606960,note_on,144,0,2,,,,,,,,,2,,,60,120
606960,note_off,120,0,1,,,,,,,,,1,,,69,0
606960,note_on,48,0,5,,,,,,,,,5,,,52,120
607056,note_off,96,0,2,,,,,,,,,2,,,60,0
607080,note_on,24,0,2,,,,,,,,,2,,,66,120
607080,set_tempo,4920,1,0,,,,,,402684,,,,,,,
607140,control_change,660,0,3,,,,,,,64,0,3,,,,
607140,control_change,180,0,4,,,,,,,64,0,4,,,,
607140,control_change,180,0,5,,,,,,,64,0,5,,,,
607140,control_change,180,0,1,,,,,,,64,0,1,,,,
607140,control_change,60,0,2,,,,,,,64,0,2,,,,
607152,note_off,12,0,4,,,,,,,,,4,,,57,0
607152,note_off,0,0,4,,,,,,,,,4,,,54,0
607152,note_off,12,0,5,,,,,,,,,5,,,52,0
607176,note_off,36,0,2,,,,,,,,,2,,,66,0
607200,control_change,48,0,4,,,,,,,64,127,4,,,,
607200,note_on,0,0,4,,,,,,,,,4,,,54,121
607200,note_on,0,0,4,,,,,,,,,4,,,57,121
607200,control_change,48,0,5,,,,,,,64,127,5,,,,
607200,note_on,0,0,5,,,,,,,,,5,,,51,121
607200,set_tempo,120,1,0,,,,,,389610,,,,,,,
607200,control_change,24,0,2,,,,,,,64,127,2,,,,
607200,control_change,60,0,3,,,,,,,64,127,3,,,,
607200,note_on,0,0,1,,,,,,,,,1,,,59,121
607200,control_change,60,0,1,,,,,,,64,127,1,,,,
607320,note_on,0,0,1,,,,,,,,,1,,,63,121
607320,note_off,120,0,1,,,,,,,,,1,,,59,0
607440,note_off,120,0,1,,,,,,,,,1,,,63,0
607440,note_on,0,0,1,,,,,,,,,1,,,66,122
607560,note_off,120,0,1,,,,,,,,,1,,,66,0
607560,note_off,360,0,4,,,,,,,,,4,,,57,0
607560,note_off,360,0,5,,,,,,,,,5,,,51,0
607560,note_off,0,0,4,,,,,,,,,4,,,54,0
607560,note_on,0,0,1,,,,,,,,,1,,,71,122
607680,note_off,120,0,1,,,,,,,,,1,,,71,0
607680,note_on,0,0,1,,,,,,,,,1,,,75,123
607800,note_off,120,0,1,,,,,,,,,1,,,75,0
607800,note_on,0,0,1,,,,,,,,,1,,,78,123
607860,set_tempo,660,1,0,,,,,,394736,,,,,,,
607896,note_off,96,0,1,,,,,,,,,1,,,78,0
607920,note_on,24,0,1,,,,,,,,,1,,,81,124
609960,control_change,2760,0,2,,,,,,,64,0,2,,,,
609960,control_change,0,0,4,,,,,,,64,0,4,,,,
609960,control_change,2400,0,4,,,,,,,64,0,4,,,,
609960,control_change,2400,0,5,,,,,,,64,0,5,,,,
609960,control_change,2760,0,3,,,,,,,64,0,3,,,,
609960,control_change,2040,0,1,,,,,,,64,0,1,,,,
609960,control_change,0,0,2,,,,,,,64,0,2,,,,
609960,control_change,0,0,3,,,,,,,64,0,3,,,,
610010,note_off,50,0,1,,,,,,,,,1,,,81,0
610080,control_change,120,0,5,,,,,,,64,127,5,,,,
610080,note_on,0,0,5,,,,,,,,,5,,,52,61
610080,note_on,70,0,1,,,,,,,,,1,,,80,61
610080,control_change,120,0,3,,,,,,,64,127,3,,,,
610080,control_change,120,0,2,,,,,,,64,127,2,,,,
610080,set_tempo,2220,1,0,,,,,,389610,,,,,,,
610080,control_change,120,0,4,,,,,,,64,127,4,,,,
610320,note_on,240,0,3,,,,,,,,,3,,,59,61
610560,note_on,0,0,1,,,,,,,,,1,,,78,60
610560,note_off,480,0,1,,,,,,,,,1,,,80,0
610560,note_off,240,0,3,,,,,,,,,3,,,59,0
610560,note_on,0,0,3,,,,,,,,,3,,,64,60
610740,note_off,180,0,1,,,,,,,,,1,,,78,0
610740,control_change,660,0,5,,,,,,,64,0,5,,,,
610740,note_on,0,0,1,,,,,,,,,1,,,78,60
610740,control_change,660,0,2,,,,,,,64,0,2,,,,
610740,control_change,180,0,3,,,,,,,64,0,3,,,,
610740,control_change,660,0,4,,,,,,,64,0,4,,,,
610740,note_off,0,0,5,,,,,,,,,5,,,52,0
610752,note_off,12,0,3,,,,,,,,,3,,,64,0
610800,control_change,60,0,2,,,,,,,64,127,2,,,,
610800,note_on,0,0,1,,,,,,,,,1,,,76,60
610800,control_change,48,0,3,,,,,,,64,127,3,,,,
610800,note_on,0,0,5,,,,,,,,,5,,,56,60
610800,note_off,60,0,1,,,,,,,,,1,,,78,0
610800,control_change,60,0,4,,,,,,,64,127,4,,,,
610800,control_change,60,0,5,,,,,,,64,127,5,,,,
611040,note_on,0,0,1,,,,,,,,,1,,,75,59
611040,note_off,240,0,1,,,,,,,,,1,,,76,0
611040,note_on,240,0,3,,,,,,,,,3,,,59,59
611280,note_off,240,0,3,,,,,,,,,3,,,59,0
611280,note_off,240,0,1,,,,,,,,,1,,,75,0
611280,note_on,0,0,1,,,,,,,,,1,,,76,59
611280,note_on,0,0,3,,,,,,,,,3,,,64,59
611460,control_change,660,0,5,,,,,,,64,0,5,,,,
611460,note_off,0,0,5,,,,,,,,,5,,,56,0
611460,control_change,180,0,3,,,,,,,64,0,3,,,,
611460,control_change,660,0,4,,,,,,,64,0,4,,,,
611460,control_change,660,0,2,,,,,,,64,0,2,,,,
611472,note_off,192,0,1,,,,,,,,,1,,,76,0
611472,note_off,12,0,3,,,,,,,,,3,,,64,0
611520,control_change,48,0,3,,,,,,,64,127,3,,,,
611520,control_change,60,0,2,,,,,,,64,127,2,,,,
611520,note_on,0,0,2,,,,,,,,,2,,,74,62
611520,note_on,0,0,2,,,,,,,,,2,,,71,62
611520,control_change,60,0,4,,,,,,,64,127,4,,,,
611520,note_on,48,0,1,,,,,,,,,1,,,77,62
611520,note_on,0,0,5,,,,,,,,,5,,,57,58
611520,control_change,60,0,5,,,,,,,64,127,5,,,,
611760,note_on,240,0,3,,,,,,,,,3,,,62,58
612000,note_off,240,0,3,,,,,,,,,3,,,62,0
612000,note_on,0,0,3,,,,,,,,,3,,,65,57
612000,note_off,480,0,1,,,,,,,,,1,,,77,0
612000,note_on,0,0,1,,,,,,,,,1,,,80,57
612180,control_change,660,0,4,,,,,,,64,0,4,,,,
612180,note_off,0,0,5,,,,,,,,,5,,,57,0
612180,control_change,180,0,3,,,,,,,64,0,3,,,,
612180,control_change,660,0,5,,,,,,,64,0,5,,,,
612180,control_change,660,0,2,,,,,,,64,0,2,,,,
612192,note_off,12,0,3,,,,,,,,,3,,,65,0
612240,control_change,60,0,4,,,,,,,64,127,4,,,,
612240,note_off,240,0,1,,,,,,,,,1,,,80,0
612240,note_on,0,0,1,,,,,,,,,1,,,78,57
612240,note_on,0,0,5,,,,,,,,,5,,,57,57
612240,note_off,0,0,2,,,,,,,,,2,,,71,0
612240,control_change,60,0,2,,,,,,,64,127,2,,,,
612240,note_off,0,0,2,,,,,,,,,2,,,74,0
612240,note_on,0,0,2,,,,,,,,,2,,,73,57
612240,control_change,48,0,3,,,,,,,64,127,3,,,,
612240,control_change,60,0,5,,,,,,,64,127,5,,,,
612480,note_on,240,0,3,,,,,,,,,3,,,61,56
612720,note_on,0,0,3,,,,,,,,,3,,,66,56
612720,note_off,240,0,3,,,,,,,,,3,,,61,0
612720,note_on,480,0,1,,,,,,,,,1,,,85,56
612895,note_off,655,0,2,,,,,,,,,2,,,73,0
612900,control_change,5,0,2,,,,,,,64,0,2,,,,
612900,control_change,660,0,5,,,,,,,64,0,5,,,,
612900,note_off,180,0,1,,,,,,,,,1,,,78,0
612900,control_change,180,0,3,,,,,,,64,0,3,,,,
612900,note_on,0,0,1,,,,,,,,,1,,,78,55
612900,control_change,660,0,4,,,,,,,64,0,4,,,,
612905,note_off,5,0,5,,,,,,,,,5,,,57,0
612912,note_off,12,0,3,,,,,,,,,3,,,66,0
612912,note_off,12,0,1,,,,,,,,,1,,,85,0
612960,note_off,48,0,1,,,,,,,,,1,,,78,0
612960,note_on,0,0,1,,,,,,,,,1,,,76,55
612960,control_change,60,0,4,,,,,,,64,127,4,,,,
612960,control_change,55,0,5,,,,,,,64,127,5,,,,
612960,control_change,48,0,3,,,,,,,64,127,3,,,,
612960,note_on,0,0,5,,,,,,,,,5,,,59,55
612960,control_change,60,0,2,,,,,,,64,127,2,,,,
613200,note_off,240,0,1,,,,,,,,,1,,,76,0
613200,note_on,240,0,3,,,,,,,,,3,,,68,55
613200,note_on,0,0,1,,,,,,,,,1,,,75,55
613440,note_on,0,0,1,,,,,,,,,1,,,76,54
613440,note_on,0,0,3,,,,,,,,,3,,,71,54
613440,note_off,240,0,3,,,,,,,,,3,,,68,0
613440,note_off,240,0,1,,,,,,,,,1,,,75,0
613560,set_tempo,3480,1,0,,,,,,394736,,,,,,,
613620,control_change,180,0,3,,,,,,,64,0,3,,,,
613620,control_change,660,0,4,,,,,,,64,0,4,,,,
613620,control_change,660,0,2,,,,,,,64,0,2,,,,
613620,control_change,660,0,5,,,,,,,64,0,5,,,,
613620,note_off,0,0,5,,,,,,,,,5,,,59,0
613632,note_off,12,0,3,,,,,,,,,3,,,71,0
613645,note_off,205,0,1,,,,,,,,,1,,,76,0
613680,note_on,0,0,2,,,,,,,,,2,,,75,55
613680,control_change,60,0,5,,,,,,,64,127,5,,,,
613680,note_on,0,0,5,,,,,,,,,5,,,59,55
613680,control_change,60,0,2,,,,,,,64,127,2,,,,
613680,control_change,60,0,4,,,,,,,64,127,4,,,,
613680,note_on,35,0,1,,,,,,,,,1,,,80,55
613680,control_change,48,0,3,,,,,,,64,127,3,,,,
613920,note_on,240,0,3,,,,,,,,,3,,,69,53
614160,note_on,0,0,3,,,,,,,,,3,,,71,52
614160,note_off,240,0,3,,,,,,,,,3,,,69,0
614160,note_on,0,0,1,,,,,,,,,1,,,78,50
614160,note_off,480,0,1,,,,,,,,,1,,,80,0
614280,set_tempo,720,1,0,,,,,,402684,,,,,,,
614340,control_change,660,0,4,,,,,,,64,0,4,,,,
614340,control_change,660,0,2,,,,,,,64,0,2,,,,
614340,note_off,0,0,2,,,,,,,,,2,,,75,0
614340,control_change,660,0,5,,,,,,,64,0,5,,,,
614340,control_change,180,0,3,,,,,,,64,0,3,,,,
614345,note_off,5,0,5,,,,,,,,,5,,,59,0
614352,note_off,12,0,3,,,,,,,,,3,,,71,0
614355,note_off,195,0,1,,,,,,,,,1,,,78,0
614400,control_change,48,0,3,,,,,,,64,127,3,,,,
614400,note_on,0,0,2,,,,,,,,,2,,,75,50
614400,control_change,55,0,5,,,,,,,64,127,5,,,,
614400,note_on,0,0,5,,,,,,,,,5,,,59,50
614400,control_change,60,0,2,,,,,,,64,127,2,,,,
614400,control_change,60,0,4,,,,,,,64,127,4,,,,
614400,note_on,45,0,1,,,,,,,,,1,,,80,50
614640,note_on,240,0,3,,,,,,,,,3,,,69,49
614880,note_off,240,0,3,,,,,,,,,3,,,69,0
614880,note_on,0,0,3,,,,,,,,,3,,,71,47
614880,note_on,0,0,1,,,,,,,,,1,,,78,44
614880,note_off,480,0,1,,,,,,,,,1,,,80,0
615000,set_tempo,720,1,0,,,,,,425531,,,,,,,
615060,note_off,0,0,2,,,,,,,,,2,,,75,0
615060,control_change,660,0,2,,,,,,,64,0,2,,,,
615060,control_change,660,0,5,,,,,,,64,0,5,,,,
615060,control_change,180,0,3,,,,,,,64,0,3,,,,
615060,control_change,660,0,4,,,,,,,64,0,4,,,,
615065,note_off,5,0,5,,,,,,,,,5,,,59,0
615072,note_off,12,0,3,,,,,,,,,3,,,71,0
615075,note_off,195,0,1,,,,,,,,,1,,,78,0
615120,control_change,60,0,4,,,,,,,64,127,4,,,,
615120,control_change,48,0,3,,,,,,,64,127,3,,,,
615120,control_change,55,0,5,,,,,,,64,127,5,,,,
615120,note_on,0,0,5,,,,,,,,,5,,,59,46
615120,note_on,45,0,1,,,,,,,,,1,,,80,46
615120,control_change,60,0,2,,,,,,,64,127,2,,,,
615120,note_on,0,0,2,,,,,,,,,2,,,75,46
615360,note_on,240,0,3,,,,,,,,,3,,,69,43
615490,set_tempo,490,1,0,,,,,,428571,,,,,,,
615600,note_off,480,0,1,,,,,,,,,1,,,80,0
615600,note_on,0,0,1,,,,,,,,,1,,,78,39
615600,note_off,240,0,3,,,,,,,,,3,,,69,0
615600,set_tempo,110,1,0,,,,,,500000,,,,,,,
615600,note_on,0,0,3,,,,,,,,,3,,,71,39
615780,control_change,660,0,2,,,,,,,64,0,2,,,,
615780,control_change,660,0,4,,,,,,,64,0,4,,,,
615780,control_change,660,0,5,,,,,,,64,0,5,,,,
615780,control_change,180,0,3,,,,,,,64,0,3,,,,
615780,note_off,0,0,2,,,,,,,,,2,,,75,0
615785,note_off,5,0,5,,,,,,,,,5,,,59,0
615792,note_off,12,0,3,,,,,,,,,3,,,71,0
615795,note_off,195,0,1,,,,,,,,,1,,,78,0
617280,control_change,1500,0,2,,,,,,,64,0,2,,,,
617280,note_on,0,0,1,,,,,,,,,1,,,52,98
617280,note_on,0,0,5,,,,,,,,,5,,,40,98
617280,control_change,1495,0,5,,,,,,,64,0,5,,,,
617280,control_change,1485,0,1,,,,,,,64,0,1,,,,
617280,control_change,1488,0,3,,,,,,,64,0,3,,,,
617280,set_tempo,1680,1,0,,,,,,389610,,,,,,,
617280,control_change,1500,0,4,,,,,,,64,0,4,,,,
617640,note_on,0,0,1,,,,,,,,,1,,,54,99
617640,note_off,360,0,1,,,,,,,,,1,,,52,0
617640,note_off,360,0,5,,,,,,,,,5,,,40,0
617640,note_on,0,0,5,,,,,,,,,5,,,42,99
617760,note_on,0,0,5,,,,,,,,,5,,,43,99
617760,note_off,120,0,5,,,,,,,,,5,,,42,0
617760,note_off,120,0,1,,,,,,,,,1,,,54,0
617760,note_on,0,0,1,,,,,,,,,1,,,55,99
617880,note_on,0,0,5,,,,,,,,,5,,,45,100
617880,note_off,120,0,1,,,,,,,,,1,,,55,0
617880,note_on,0,0,1,,,,,,,,,1,,,57,100
617880,note_off,120,0,5,,,,,,,,,5,,,43,0
618000,control_change,720,0,3,,,,,,,64,0,3,,,,
618000,control_change,120,0,5,,,,,,,64,0,5,,,,
618000,note_off,0,0,5,,,,,,,,,5,,,45,0
618000,note_on,0,0,5,,,,,,,,,5,,,47,100
618000,note_off,120,0,1,,,,,,,,,1,,,57,0
618000,note_on,0,0,1,,,,,,,,,1,,,59,100
618000,control_change,720,0,4,,,,,,,64,0,4,,,,
618000,control_change,720,0,2,,,,,,,64,0,2,,,,
618360,note_off,360,0,5,,,,,,,,,5,,,47,0
618360,note_off,360,0,1,,,,,,,,,1,,,59,0
618480,note_on,120,0,5,,,,,,,,,5,,,49,102
618480,note_on,120,0,1,,,,,,,,,1,,,61,102
618600,note_off,120,0,1,,,,,,,,,1,,,61,0
618600,note_on,0,0,5,,,,,,,,,5,,,51,102
618600,note_off,120,0,5,,,,,,,,,5,,,49,0
618600,note_on,0,0,1,,,,,,,,,1,,,63,102
618720,note_on,0,0,5,,,,,,,,,5,,,52,103
618720,note_off,120,0,5,,,,,,,,,5,,,51,0
618720,note_on,0,0,1,,,,,,,,,1,,,64,103
618720,note_off,120,0,1,,,,,,,,,1,,,63,0
618960,note_on,0,0,1,,,,,,,,,1,,,66,104
618960,note_on,0,0,5,,,,,,,,,5,,,54,104
618960,note_off,240,0,5,,,,,,,,,5,,,52,0
618960,note_off,240,0,1,,,,,,,,,1,,,64,0
619080,note_off,120,0,5,,,,,,,,,5,,,54,0
619080,note_on,0,0,5,,,,,,,,,5,,,55,104
619080,note_off,120,0,1,,,,,,,,,1,,,66,0
619080,note_on,0,0,1,,,,,,,,,1,,,67,104
619200,note_off,120,0,5,,,,,,,,,5,,,55,0
619200,note_off,120,0,1,,,,,,,,,1,,,67,0
619200,note_on,0,0,1,,,,,,,,,1,,,69,104
619200,note_on,0,0,5,,,,,,,,,5,,,57,104
619320,note_on,0,0,1,,,,,,,,,1,,,71,105
619320,note_off,120,0,1,,,,,,,,,1,,,69,0
619320,note_off,120,0,5,,,,,,,,,5,,,57,0
619320,note_on,0,0,5,,,,,,,,,5,,,59,105
619380,set_tempo,2100,1,0,,,,,,394736,,,,,,,
619440,note_off,120,0,1,,,,,,,,,1,,,71,0
619440,note_on,0,0,1,,,,,,,,,1,,,72,120
619440,note_on,0,0,5,,,,,,,,,5,,,60,120
619440,note_off,120,0,5,,,,,,,,,5,,,59,0
620820,note_off,1380,0,5,,,,,,,,,5,,,60,0
620820,note_off,1380,0,1,,,,,,,,,1,,,72,0
620880,note_on,60,0,1,,,,,,,,,1,,,71,63
620880,note_on,2880,0,4,,,,,,,,,4,,,52,63
620880,note_on,60,0,5,,,,,,,,,5,,,43,63
620880,note_on,2880,0,2,,,,,,,,,2,,,59,63
621600,note_on,0,0,1,,,,,,,,,1,,,64,62
621600,note_off,720,0,1,,,,,,,,,1,,,71,0
621600,note_off,720,0,4,,,,,,,,,4,,,52,0
621600,note_off,720,0,5,,,,,,,,,5,,,43,0
621600,note_on,0,0,4,,,,,,,,,4,,,55,62
621600,note_on,0,0,2,,,,,,,,,2,,,58,62
621600,note_on,0,0,5,,,,,,,,,5,,,48,62
621600,note_off,720,0,2,,,,,,,,,2,,,59,0
622260,note_off,660,0,5,,,,,,,,,5,,,48,0
622260,note_off,660,0,4,,,,,,,,,4,,,55,0
622260,note_on,660,0,1,,,,,,,,,1,,,66,61
622267,note_off,667,0,2,,,,,,,,,2,,,58,0
622267,note_off,7,0,1,,,,,,,,,1,,,64,0
622320,note_on,53,0,2,,,,,,,,,2,,,59,60
622320,note_on,60,0,5,,,,,,,,,5,,,47,60
622320,note_off,53,0,1,,,,,,,,,1,,,66,0
622320,note_on,0,0,1,,,,,,,,,1,,,64,60
622320,note_on,60,0,4,,,,,,,,,4,,,55,60
622560,note_on,0,0,1,,,,,,,,,1,,,63,60
622560,note_off,240,0,1,,,,,,,,,1,,,64,0
622800,note_on,0,0,1,,,,,,,,,1,,,64,59
622800,note_off,240,0,1,,,,,,,,,1,,,63,0
622920,set_tempo,3540,1,0,,,,,,400000,,,,,,,
623040,note_off,720,0,4,,,,,,,,,4,,,55,0
623040,note_on,0,0,1,,,,,,,,,1,,,67,62
623040,note_off,240,0,1,,,,,,,,,1,,,64,0
623040,note_on,0,0,4,,,,,,,,,4,,,57,58
623040,note_on,0,0,2,,,,,,,,,2,,,63,62
623040,note_off,720,0,2,,,,,,,,,2,,,59,0
623520,note_off,480,0,1,,,,,,,,,1,,,67,0
623520,note_on,0,0,1,,,,,,,,,1,,,66,52
623520,set_tempo,600,1,0,,,,,,408163,,,,,,,
623760,note_off,240,0,1,,,,,,,,,1,,,66,0
623760,note_off,1440,0,5,,,,,,,,,5,,,47,0
623760,note_off,720,0,2,,,,,,,,,2,,,63,0
623760,note_off,720,0,4,,,,,,,,,4,,,57,0
625200,set_tempo,1680,1,0,,,,,,389610,,,,,,,
625200,note_on,1440,0,1,,,,,,,,,1,,,52,90
625200,note_on,1440,0,5,,,,,,,,,5,,,40,90
625560,note_off,360,0,5,,,,,,,,,5,,,40,0
625560,note_on,0,0,5,,,,,,,,,5,,,42,91
625560,note_off,360,0,1,,,,,,,,,1,,,52,0
625560,note_on,0,0,1,,,,,,,,,1,,,54,91
625680,note_off,120,0,1,,,,,,,,,1,,,54,0
625680,note_on,0,0,1,,,,,,,,,1,,,55,92
625680,note_on,0,0,5,,,,,,,,,5,,,43,92
625680,note_off,120,0,5,,,,,,,,,5,,,42,0
625800,note_off,120,0,5,,,,,,,,,5,,,43,0
625800,note_on,0,0,1,,,,,,,,,1,,,57,92
625800,note_off,120,0,1,,,,,,,,,1,,,55,0
625800,note_on,0,0,5,,,,,,,,,5,,,45,92
625920,note_off,120,0,5,,,,,,,,,5,,,45,0
625920,note_on,0,0,5,,,,,,,,,5,,,47,93
625920,note_off,120,0,1,,,,,,,,,1,,,57,0
625920,note_on,0,0,1,,,,,,,,,1,,,59,93
626280,note_off,360,0,5,,,,,,,,,5,,,47,0
626280,note_off,360,0,1,,,,,,,,,1,,,59,0
626400,note_on,120,0,1,,,,,,,,,1,,,61,95
626400,note_on,120,0,5,,,,,,,,,5,,,49,95
626520,note_on,0,0,1,,,,,,,,,1,,,63,96
626520,note_off,120,0,1,,,,,,,,,1,,,61,0
626520,note_off,120,0,5,,,,,,,,,5,,,49,0
626520,note_on,0,0,5,,,,,,,,,5,,,51,96
626640,note_on,0,0,1,,,,,,,,,1,,,64,96
626640,note_off,120,0,5,,,,,,,,,5,,,51,0
626640,note_on,0,0,5,,,,,,,,,5,,,52,96
626640,note_off,120,0,1,,,,,,,,,1,,,63,0
626880,note_on,0,0,5,,,,,,,,,5,,,54,97
626880,note_off,240,0,5,,,,,,,,,5,,,52,0
626880,note_on,0,0,1,,,,,,,,,1,,,66,97
626880,note_off,240,0,1,,,,,,,,,1,,,64,0
627000,note_off,120,0,1,,,,,,,,,1,,,66,0
627000,note_on,0,0,1,,,,,,,,,1,,,67,98
627000,note_off,120,0,5,,,,,,,,,5,,,54,0
627000,note_on,0,0,5,,,,,,,,,5,,,55,98
627120,note_off,120,0,1,,,,,,,,,1,,,67,0
627120,note_on,0,0,1,,,,,,,,,1,,,69,98
627120,note_off,120,0,5,,,,,,,,,5,,,55,0
627120,note_on,0,0,5,,,,,,,,,5,,,57,98
627240,note_off,120,0,5,,,,,,,,,5,,,57,0
627240,note_on,0,0,5,,,,,,,,,5,,,59,99
627240,note_on,0,0,1,,,,,,,,,1,,,71,99
627240,note_off,120,0,1,,,,,,,,,1,,,69,0
627300,set_tempo,2100,1,0,,,,,,394736,,,,,,,
627360,note_on,0,0,5,,,,,,,,,5,,,60,115
627360,note_on,0,0,1,,,,,,,,,1,,,72,115
627360,note_off,120,0,5,,,,,,,,,5,,,59,0
627360,note_off,120,0,1,,,,,,,,,1,,,71,0
628800,note_on,1440,0,5,,,,,,,,,5,,,45,57
628800,note_on,5040,0,4,,,,,,,,,4,,,53,57
629515,note_off,2155,0,1,,,,,,,,,1,,,72,0
629520,note_on,0,0,5,,,,,,,,,5,,,50,56
629520,note_off,720,0,5,,,,,,,,,5,,,45,0
629520,note_on,0,0,4,,,,,,,,,4,,,55,56
629520,note_on,5,0,1,,,,,,,,,1,,,65,56
629520,note_on,5760,0,2,,,,,,,,,2,,,59,56
629520,note_off,720,0,4,,,,,,,,,4,,,53,0
629525,note_off,5,0,5,,,,,,,,,5,,,60,0
630180,note_off,660,0,4,,,,,,,,,4,,,55,0
630180,note_on,660,0,1,,,,,,,,,1,,,67,54
630180,note_off,655,0,5,,,,,,,,,5,,,50,0
630187,note_off,7,0,1,,,,,,,,,1,,,65,0
630187,note_off,667,0,2,,,,,,,,,2,,,59,0
630240,note_on,60,0,5,,,,,,,,,5,,,48,55
630240,note_on,0,0,1,,,,,,,,,1,,,65,55
630240,note_on,53,0,2,,,,,,,,,2,,,60,55
630240,note_off,53,0,1,,,,,,,,,1,,,67,0
630240,note_on,60,0,4,,,,,,,,,4,,,57,55
630480,note_on,0,0,1,,,,,,,,,1,,,64,54
630480,note_off,240,0,1,,,,,,,,,1,,,65,0
630720,note_on,0,0,1,,,,,,,,,1,,,65,52
630720,note_off,240,0,1,,,,,,,,,1,,,64,0
630840,set_tempo,3540,1,0,,,,,,400000,,,,,,,
630960,note_on,0,0,2,,,,,,,,,2,,,64,54
630960,note_on,0,0,1,,,,,,,,,1,,,69,54
630960,note_off,720,0,2,,,,,,,,,2,,,60,0
630960,note_off,240,0,1,,,,,,,,,1,,,65,0
630960,note_off,720,0,4,,,,,,,,,4,,,57,0
630960,note_on,0,0,4,,,,,,,,,4,,,58,51
631440,note_on,0,0,1,,,,,,,,,1,,,67,45
631440,set_tempo,600,1,0,,,,,,408163,,,,,,,
631440,note_off,480,0,1,,,,,,,,,1,,,69,0
631680,note_off,1440,0,5,,,,,,,,,5,,,48,0
631680,note_off,720,0,2,,,,,,,,,2,,,64,0
631680,note_off,240,0,1,,,,,,,,,1,,,67,0
631680,note_off,720,0,4,,,,,,,,,4,,,58,0
632340,note_on,660,0,1,,,,,,,,,1,,,66,51
632400,note_off,60,0,1,,,,,,,,,1,,,66,0
632400,note_on,720,0,4,,,,,,,,,4,,,55,51
632400,note_on,720,0,5,,,,,,,,,5,,,47,51
632400,note_on,0,0,1,,,,,,,,,1,,,64,51
632400,note_on,720,0,2,,,,,,,,,2,,,59,51
632640,note_on,0,0,1,,,,,,,,,1,,,63,50
632640,note_off,240,0,1,,,,,,,,,1,,,64,0
632880,note_on,0,0,1,,,,,,,,,1,,,64,49
632880,note_off,240,0,1,,,,,,,,,1,,,63,0
633000,set_tempo,1560,1,0,,,,,,413793,,,,,,,
633120,note_on,0,0,1,,,,,,,,,1,,,67,51
633120,note_on,0,0,4,,,,,,,,,4,,,57,48
633120,note_on,720,0,2,,,,,,,,,2,,,63,51
633120,note_off,240,0,1,,,,,,,,,1,,,64,0
633120,note_off,720,0,4,,,,,,,,,4,,,55,0
633600,note_on,0,0,1,,,,,,,,,1,,,66,43
633600,note_off,480,0,1,,,,,,,,,1,,,67,0
633600,set_tempo,600,1,0,,,,,,425531,,,,,,,
633840,note_off,720,0,4,,,,,,,,,4,,,57,0
633840,note_off,1440,0,5,,,,,,,,,5,,,47,0
633840,note_off,0,0,2,,,,,,,,,2,,,59,0
633840,note_off,240,0,1,,,,,,,,,1,,,66,0
633840,note_off,720,0,2,,,,,,,,,2,,,63,0
633840,set_tempo,240,1,0,,,,,,845070,,,,,,,
634560,set_tempo,720,1,0,,,,,,389610,,,,,,,
634560,note_on,720,0,5,,,,,,,,,5,,,40,80
634560,note_on,720,0,1,,,,,,,,,1,,,52,80
634920,note_off,360,0,5,,,,,,,,,5,,,40,0
634920,note_on,0,0,5,,,,,,,,,5,,,42,82
634920,note_on,0,0,1,,,,,,,,,1,,,54,82
634920,note_off,360,0,1,,,,,,,,,1,,,52,0
635040,note_off,120,0,1,,,,,,,,,1,,,54,0
635040,note_on,0,0,1,,,,,,,,,1,,,55,83
635040,note_off,120,0,5,,,,,,,,,5,,,42,0
635040,note_on,0,0,5,,,,,,,,,5,,,43,83
635160,note_off,120,0,1,,,,,,,,,1,,,55,0
635160,note_off,120,0,5,,,,,,,,,5,,,43,0
635160,note_on,0,0,5,,,,,,,,,5,,,45,83
635160,note_on,0,0,1,,,,,,,,,1,,,57,83
635280,note_off,120,0,1,,,,,,,,,1,,,57,0
635280,note_on,0,0,1,,,,,,,,,1,,,59,84
635280,note_off,120,0,5,,,,,,,,,5,,,45,0
635280,note_on,0,0,5,,,,,,,,,5,,,47,84
635640,note_off,360,0,1,,,,,,,,,1,,,59,0
635640,note_off,360,0,5,,,,,,,,,5,,,47,0
635760,note_on,120,0,5,,,,,,,,,5,,,49,87
635760,note_on,120,0,1,,,,,,,,,1,,,61,87
635880,note_off,120,0,5,,,,,,,,,5,,,49,0
635880,note_on,0,0,5,,,,,,,,,5,,,51,88
635880,note_off,120,0,1,,,,,,,,,1,,,61,0
635880,note_on,0,0,1,,,,,,,,,1,,,63,88
636000,note_off,120,0,5,,,,,,,,,5,,,51,0
636000,note_on,0,0,5,,,,,,,,,5,,,52,88
636000,note_on,0,0,1,,,,,,,,,1,,,64,88
636000,note_off,120,0,1,,,,,,,,,1,,,63,0
636240,note_on,0,0,1,,,,,,,,,1,,,66,90
636240,note_on,0,0,5,,,,,,,,,5,,,54,90
636240,note_off,240,0,5,,,,,,,,,5,,,52,0
636240,note_off,240,0,1,,,,,,,,,1,,,64,0
636360,note_off,120,0,1,,,,,,,,,1,,,66,0
636360,note_off,120,0,5,,,,,,,,,5,,,54,0
636360,note_on,0,0,1,,,,,,,,,1,,,67,91
636360,note_on,0,0,5,,,,,,,,,5,,,55,91
636480,note_off,120,0,5,,,,,,,,,5,,,55,0
636480,note_on,0,0,5,,,,,,,,,5,,,57,91
636480,note_off,120,0,1,,,,,,,,,1,,,67,0
636480,note_on,0,0,1,,,,,,,,,1,,,69,91
636600,note_on,0,0,1,,,,,,,,,1,,,71,92
636600,note_on,0,0,5,,,,,,,,,5,,,59,92
636600,note_off,120,0,5,,,,,,,,,5,,,57,0
636600,note_off,120,0,1,,,,,,,,,1,,,69,0
636660,set_tempo,2100,1,0,,,,,,394736,,,,,,,
636720,note_off,120,0,5,,,,,,,,,5,,,59,0
636720,note_on,0,0,1,,,,,,,,,1,,,72,110
636720,note_on,0,0,5,,,,,,,,,5,,,60,110
636720,note_off,120,0,1,,,,,,,,,1,,,71,0
638100,note_off,1380,0,5,,,,,,,,,5,,,60,0
638100,note_off,1380,0,1,,,,,,,,,1,,,72,0
638160,note_on,4320,0,4,,,,,,,,,4,,,52,55
638160,note_on,60,0,1,,,,,,,,,1,,,71,55
638160,note_on,4320,0,2,,,,,,,,,2,,,59,55
638160,note_on,60,0,5,,,,,,,,,5,,,44,55
638880,note_off,720,0,5,,,,,,,,,5,,,44,0
638880,note_off,720,0,4,,,,,,,,,4,,,52,0
638880,note_on,0,0,4,,,,,,,,,4,,,54,53
638880,note_on,0,0,5,,,,,,,,,5,,,49,53
638880,note_off,720,0,2,,,,,,,,,2,,,59,0
638880,note_on,0,0,2,,,,,,,,,2,,,58,53
638880,note_off,720,0,1,,,,,,,,,1,,,71,0
638880,note_on,0,0,1,,,,,,,,,1,,,64,53
639540,note_off,660,0,5,,,,,,,,,5,,,49,0
639540,note_off,660,0,4,,,,,,,,,4,,,54,0
639540,note_on,660,0,1,,,,,,,,,1,,,66,51
639547,note_off,667,0,2,,,,,,,,,2,,,58,0
639547,note_off,7,0,1,,,,,,,,,1,,,64,0
639600,note_on,60,0,5,,,,,,,,,5,,,47,51
639600,note_on,60,0,4,,,,,,,,,4,,,56,51
639600,note_on,53,0,2,,,,,,,,,2,,,59,51
639600,note_off,53,0,1,,,,,,,,,1,,,66,0
639600,note_on,0,0,1,,,,,,,,,1,,,64,51
639840,note_off,240,0,1,,,,,,,,,1,,,64,0
639840,note_on,0,0,1,,,,,,,,,1,,,63,50
640080,note_on,0,0,1,,,,,,,,,1,,,64,48
640080,note_off,240,0,1,,,,,,,,,1,,,63,0
640200,set_tempo,3540,1,0,,,,,,400000,,,,,,,
640320,note_off,240,0,1,,,,,,,,,1,,,64,0
640320,note_off,720,0,4,,,,,,,,,4,,,56,0
640320,note_on,0,0,1,,,,,,,,,1,,,68,49
640320,note_on,0,0,4,,,,,,,,,4,,,57,47
640320,note_on,720,0,2,,,,,,,,,2,,,63,49
640800,set_tempo,600,1,0,,,,,,408163,,,,,,,
640800,note_off,480,0,1,,,,,,,,,1,,,68,0
640800,note_on,0,0,1,,,,,,,,,1,,,66,40
641040,note_off,240,0,1,,,,,,,,,1,,,66,0
641040,note_off,1440,0,5,,,,,,,,,5,,,47,0
641040,note_off,0,0,2,,,,,,,,,2,,,59,0
641040,note_off,720,0,2,,,,,,,,,2,,,63,0
641040,note_off,720,0,4,,,,,,,,,4,,,57,0
642480,set_tempo,1680,1,0,,,,,,389610,,,,,,,
642480,control_change,1440,0,5,,,,,,,64,0,5,,,,
642480,control_change,1440,0,4,,,,,,,64,0,4,,,,
642480,note_on,0,0,4,,,,,,,,,4,,,56,46
642480,note_on,0,0,1,,,,,,,,,1,,,71,46
642480,control_change,1440,0,1,,,,,,,64,0,1,,,,
642480,control_change,1440,0,2,,,,,,,64,0,2,,,,
642480,note_on,0,0,2,,,,,,,,,2,,,64,46
642480,control_change,24480,0,3,,,,,,,64,0,3,,,,
642480,note_on,0,0,5,,,,,,,,,5,,,52,46
642600,note_off,120,0,1,,,,,,,,,1,,,71,0
642600,note_on,0,0,1,,,,,,,,,1,,,73,47
642720,note_off,240,0,4,,,,,,,,,4,,,56,0
642720,note_on,0,0,4,,,,,,,,,4,,,55,48
642720,note_on,0,0,1,,,,,,,,,1,,,70,48
642720,note_off,120,0,1,,,,,,,,,1,,,73,0
642840,note_on,0,0,1,,,,,,,,,1,,,73,50
642840,note_off,120,0,1,,,,,,,,,1,,,70,0
642960,note_off,240,0,4,,,,,,,,,4,,,55,0
642960,note_on,0,0,1,,,,,,,,,1,,,71,51
642960,note_off,120,0,1,,,,,,,,,1,,,73,0
642960,note_on,0,0,4,,,,,,,,,4,,,56,51
643080,note_on,0,0,1,,,,,,,,,1,,,73,52
643080,note_off,120,0,1,,,,,,,,,1,,,71,0
643200,note_off,240,0,4,,,,,,,,,4,,,56,0
643200,note_off,120,0,1,,,,,,,,,1,,,73,0
643200,note_on,0,0,1,,,,,,,,,1,,,70,55
643200,note_on,0,0,4,,,,,,,,,4,,,55,55
643320,note_off,120,0,1,,,,,,,,,1,,,70,0
643320,note_on,0,0,1,,,,,,,,,1,,,73,57
643440,note_off,240,0,4,,,,,,,,,4,,,55,0
643440,note_on,0,0,4,,,,,,,,,4,,,56,60
643440,note_off,120,0,1,,,,,,,,,1,,,73,0
643440,note_on,0,0,1,,,,,,,,,1,,,71,60
643560,note_off,120,0,1,,,,,,,,,1,,,71,0
643560,note_on,0,0,1,,,,,,,,,1,,,73,63
643680,note_off,120,0,1,,,,,,,,,1,,,73,0
643680,note_on,0,0,4,,,,,,,,,4,,,55,65
643680,note_off,240,0,4,,,,,,,,,4,,,56,0
643680,note_on,0,0,1,,,,,,,,,1,,,70,65
643800,note_on,0,0,1,,,,,,,,,1,,,73,68
643800,note_off,120,0,1,,,,,,,,,1,,,70,0
643920,note_on,0,0,4,,,,,,,,,4,,,56,73
643920,note_off,0,0,4,,,,,,,,,4,,,55,0
643920,control_change,240,0,4,,,,,,,64,127,4,,,,
643920,control_change,0,0,2,,,,,,,64,127,2,,,,
643920,note_off,0,0,1,,,,,,,,,1,,,73,0
643920,control_change,1440,0,2,,,,,,,64,127,2,,,,
643920,control_change,1440,0,5,,,,,,,64,127,5,,,,
643920,note_on,0,0,1,,,,,,,,,1,,,71,73
643920,control_change,120,0,1,,,,,,,64,127,1,,,,
643920,control_change,1440,0,3,,,,,,,64,127,3,,,,
644160,note_off,240,0,2,,,,,,,,,2,,,64,0
644160,note_off,240,0,5,,,,,,,,,5,,,52,0
644280,note_off,360,0,1,,,,,,,,,1,,,71,0
644280,note_on,0,0,1,,,,,,,,,1,,,71,85
644400,note_off,480,0,4,,,,,,,,,4,,,56,0
644400,note_on,0,0,1,,,,,,,,,1,,,76,91
644400,note_off,120,0,1,,,,,,,,,1,,,71,0
644520,note_off,120,0,1,,,,,,,,,1,,,76,0
644520,note_on,0,0,1,,,,,,,,,1,,,80,100
644520,set_tempo,2040,1,0,,,,,,394736,,,,,,,
644616,note_off,96,0,1,,,,,,,,,1,,,80,0
644640,note_on,24,0,1,,,,,,,,,1,,,83,119
644640,note_on,240,0,4,,,,,,,,,4,,,68,119
644640,set_tempo,120,1,0,,,,,,400000,,,,,,,
644640,note_on,480,0,5,,,,,,,,,5,,,59,119
644640,note_on,0,0,5,,,,,,,,,5,,,71,119
645295,note_off,655,0,5,,,,,,,,,5,,,59,0
645300,control_change,0,0,2,,,,,,,64,0,2,,,,
645300,note_off,0,0,1,,,,,,,,,1,,,83,0
645300,control_change,1380,0,3,,,,,,,64,0,3,,,,
645300,control_change,660,0,1,,,,,,,64,0,1,,,,
645300,note_off,0,0,4,,,,,,,,,4,,,68,0
645300,control_change,660,0,4,,,,,,,64,0,4,,,,
645300,note_off,0,0,5,,,,,,,,,5,,,71,0
645300,control_change,5,0,5,,,,,,,64,0,5,,,,
645300,control_change,1140,0,2,,,,,,,64,0,2,,,,
645360,note_on,60,0,5,,,,,,,,,5,,,66,56
645360,note_on,60,0,1,,,,,,,,,1,,,83,56
645360,set_tempo,720,1,0,,,,,,389610,,,,,,,
645360,note_on,60,0,4,,,,,,,,,4,,,69,56
645480,note_on,180,0,2,,,,,,,,,2,,,81,54
645480,note_off,120,0,1,,,,,,,,,1,,,83,0
645516,note_off,156,0,5,,,,,,,,,5,,,66,0
645516,note_off,156,0,4,,,,,,,,,4,,,69,0
645558,note_off,78,0,2,,,,,,,,,2,,,81,0
645600,note_on,84,0,4,,,,,,,,,4,,,68,53
645600,note_on,120,0,1,,,,,,,,,1,,,81,53
645600,note_on,84,0,5,,,,,,,,,5,,,64,53
645720,note_off,120,0,1,,,,,,,,,1,,,81,0
645720,note_on,162,0,2,,,,,,,,,2,,,80,52
645756,note_off,156,0,5,,,,,,,,,5,,,64,0
645756,note_off,156,0,4,,,,,,,,,4,,,68,0
645798,note_off,78,0,2,,,,,,,,,2,,,80,0
645840,note_on,84,0,5,,,,,,,,,5,,,63,51
645840,note_on,84,0,4,,,,,,,,,4,,,66,51
645840,note_on,120,0,1,,,,,,,,,1,,,80,51
645960,note_off,120,0,1,,,,,,,,,1,,,80,0
645960,note_on,162,0,2,,,,,,,,,2,,,78,49
645996,note_off,156,0,5,,,,,,,,,5,,,63,0
645996,note_off,156,0,4,,,,,,,,,4,,,66,0
646038,note_off,78,0,2,,,,,,,,,2,,,78,0
646080,note_on,120,0,1,,,,,,,,,1,,,78,48
646080,note_on,84,0,5,,,,,,,,,5,,,61,48
646080,note_on,84,0,4,,,,,,,,,4,,,64,48
646200,note_off,120,0,1,,,,,,,,,1,,,78,0
646200,note_on,162,0,2,,,,,,,,,2,,,76,47
646236,note_off,156,0,4,,,,,,,,,4,,,64,0
646236,note_off,156,0,5,,,,,,,,,5,,,61,0
646278,note_off,78,0,2,,,,,,,,,2,,,76,0
646320,note_on,84,0,4,,,,,,,,,4,,,63,45
646320,note_on,84,0,5,,,,,,,,,5,,,59,45
646320,note_on,120,0,1,,,,,,,,,1,,,76,45
646440,note_off,120,0,1,,,,,,,,,1,,,76,0
646440,note_on,162,0,2,,,,,,,,,2,,,75,44
646476,note_off,156,0,4,,,,,,,,,4,,,63,0
646476,note_off,156,0,5,,,,,,,,,5,,,59,0
646518,note_off,78,0,2,,,,,,,,,2,,,75,0
646560,note_on,84,0,5,,,,,,,,,5,,,57,43
646560,note_on,84,0,4,,,,,,,,,4,,,61,43
646560,note_on,120,0,1,,,,,,,,,1,,,75,43
646680,note_on,162,0,2,,,,,,,,,2,,,73,42
646680,note_off,120,0,1,,,,,,,,,1,,,75,0
646716,note_off,156,0,5,,,,,,,,,5,,,57,0
646716,note_off,156,0,4,,,,,,,,,4,,,61,0
646758,note_off,78,0,2,,,,,,,,,2,,,73,0
646800,note_on,84,0,5,,,,,,,,,5,,,56,44
646800,note_on,120,0,1,,,,,,,,,1,,,73,44
646800,note_on,84,0,4,,,,,,,,,4,,,59,44
646920,note_on,162,0,2,,,,,,,,,2,,,71,46
646920,note_off,120,0,1,,,,,,,,,1,,,73,0
646956,note_off,156,0,4,,,,,,,,,4,,,59,0
646956,note_off,156,0,5,,,,,,,,,5,,,56,0
646998,note_off,78,0,2,,,,,,,,,2,,,71,0
647040,note_on,120,0,1,,,,,,,,,1,,,71,48
647040,note_on,84,0,4,,,,,,,,,4,,,57,48
647040,note_on,84,0,5,,,,,,,,,5,,,54,48
647160,note_on,162,0,2,,,,,,,,,2,,,69,50
647160,note_off,120,0,1,,,,,,,,,1,,,71,0
647196,note_off,156,0,5,,,,,,,,,5,,,54,0
647196,note_off,156,0,4,,,,,,,,,4,,,57,0
647238,note_off,78,0,2,,,,,,,,,2,,,69,0
647280,note_on,84,0,4,,,,,,,,,4,,,56,52
647280,note_on,120,0,1,,,,,,,,,1,,,69,52
647280,note_on,84,0,5,,,,,,,,,5,,,52,52
647400,note_off,120,0,1,,,,,,,,,1,,,69,0
647400,note_on,162,0,2,,,,,,,,,2,,,68,54
647436,note_off,156,0,5,,,,,,,,,5,,,52,0
647436,note_off,156,0,4,,,,,,,,,4,,,56,0
647478,note_off,78,0,2,,,,,,,,,2,,,68,0
647520,note_on,84,0,5,,,,,,,,,5,,,51,56
647520,note_on,84,0,4,,,,,,,,,4,,,54,56
647520,note_on,120,0,1,,,,,,,,,1,,,68,56
647640,note_off,120,0,1,,,,,,,,,1,,,68,0
647640,note_on,162,0,2,,,,,,,,,2,,,66,57
647676,note_off,156,0,5,,,,,,,,,5,,,51,0
647676,note_off,156,0,4,,,,,,,,,4,,,54,0
647718,note_off,78,0,2,,,,,,,,,2,,,66,0
647760,note_on,84,0,4,,,,,,,,,4,,,52,59
647760,note_on,84,0,5,,,,,,,,,5,,,49,59
647760,note_on,120,0,1,,,,,,,,,1,,,66,59
647880,note_on,162,0,2,,,,,,,,,2,,,64,61
647880,note_off,120,0,1,,,,,,,,,1,,,66,0
647916,note_off,156,0,5,,,,,,,,,5,,,49,0
647916,note_off,156,0,4,,,,,,,,,4,,,52,0
647958,note_off,78,0,2,,,,,,,,,2,,,64,0
648000,note_on,84,0,5,,,,,,,,,5,,,47,63
648000,note_on,120,0,1,,,,,,,,,1,,,64,63
648000,note_on,84,0,4,,,,,,,,,4,,,51,63
648120,set_tempo,2760,1,0,,,,,,394736,,,,,,,
648120,note_on,162,0,2,,,,,,,,,2,,,63,65
648120,note_off,120,0,1,,,,,,,,,1,,,64,0
648156,note_off,156,0,5,,,,,,,,,5,,,47,0
648156,note_off,156,0,4,,,,,,,,,4,,,51,0
648198,note_off,78,0,2,,,,,,,,,2,,,63,0
648240,control_change,84,0,5,,,,,,,64,127,5,,,,
648240,note_on,0,0,5,,,,,,,,,5,,,59,46
648240,control_change,2940,0,3,,,,,,,64,127,3,,,,
648240,set_tempo,120,1,0,,,,,,389610,,,,,,,
648240,note_on,0,0,3,,,,,,,,,3,,,69,46
648240,note_on,0,0,4,,,,,,,,,4,,,63,46
648240,control_change,84,0,4,,,,,,,64,127,4,,,,
648240,control_change,120,0,1,,,,,,,64,127,1,,,,
648240,control_change,42,0,2,,,,,,,64,127,2,,,,
648240,note_on,0,0,3,,,,,,,,,3,,,66,46
648396,note_off,156,0,4,,,,,,,,,4,,,63,0
648396,note_off,156,0,5,,,,,,,,,5,,,59,0
648396,note_off,156,0,3,,,,,,,,,3,,,69,0
648396,note_off,0,0,3,,,,,,,,,3,,,66,0
648480,note_on,84,0,3,,,,,,,,,3,,,69,48
648480,note_on,0,0,3,,,,,,,,,3,,,66,48
648480,note_on,84,0,4,,,,,,,,,4,,,63,48
648480,note_on,84,0,5,,,,,,,,,5,,,59,48
648636,note_off,156,0,5,,,,,,,,,5,,,59,0
648636,note_off,0,0,3,,,,,,,,,3,,,69,0
648636,note_off,156,0,3,,,,,,,,,3,,,66,0
648636,note_off,156,0,4,,,,,,,,,4,,,63,0
648720,note_on,84,0,3,,,,,,,,,3,,,66,49
648720,note_on,84,0,4,,,,,,,,,4,,,63,49
648720,note_on,84,0,5,,,,,,,,,5,,,59,49
648720,note_on,0,0,3,,,,,,,,,3,,,69,49
648720,note_on,480,0,1,,,,,,,,,1,,,78,49
648876,note_off,156,0,3,,,,,,,,,3,,,69,0
648876,note_off,0,0,3,,,,,,,,,3,,,66,0
648876,note_off,156,0,5,,,,,,,,,5,,,59,0
648876,note_off,156,0,4,,,,,,,,,4,,,63,0
648900,control_change,24,0,4,,,,,,,64,0,4,,,,
648900,control_change,180,0,1,,,,,,,64,0,1,,,,
648900,control_change,24,0,3,,,,,,,64,0,3,,,,
648900,control_change,660,0,2,,,,,,,64,0,2,,,,
648900,control_change,24,0,5,,,,,,,64,0,5,,,,
648960,note_on,60,0,3,,,,,,,,,3,,,69,58
648960,note_on,0,0,1,,,,,,,,,1,,,81,58
648960,note_off,60,0,1,,,,,,,,,1,,,78,0
648960,note_on,0,0,3,,,,,,,,,3,,,66,58
648960,note_on,60,0,5,,,,,,,,,5,,,60,58
648960,note_on,60,0,4,,,,,,,,,4,,,64,58
649116,note_off,156,0,3,,,,,,,,,3,,,66,0
649116,note_off,156,0,4,,,,,,,,,4,,,64,0
649116,note_off,156,0,5,,,,,,,,,5,,,60,0
649116,note_off,0,0,3,,,,,,,,,3,,,69,0
649200,note_on,84,0,4,,,,,,,,,4,,,64,53
649200,note_on,0,0,3,,,,,,,,,3,,,66,53
649200,note_on,84,0,3,,,,,,,,,3,,,69,53
649200,note_on,84,0,5,,,,,,,,,5,,,60,53
649356,note_off,156,0,4,,,,,,,,,4,,,64,0
649356,note_off,156,0,5,,,,,,,,,5,,,60,0
649356,note_off,156,0,3,,,,,,,,,3,,,66,0
649356,note_off,0,0,3,,,,,,,,,3,,,69,0
649440,note_on,84,0,5,,,,,,,,,5,,,60,54
649440,note_on,0,0,1,,,,,,,,,1,,,78,54
649440,note_off,480,0,1,,,,,,,,,1,,,81,0
649440,note_on,84,0,4,,,,,,,,,4,,,64,54
649440,note_on,84,0,3,,,,,,,,,3,,,69,54
649440,note_on,0,0,3,,,,,,,,,3,,,66,54
649596,note_off,0,0,3,,,,,,,,,3,,,69,0
649596,note_off,156,0,4,,,,,,,,,4,,,64,0
649596,note_off,156,0,3,,,,,,,,,3,,,66,0
649596,note_off,156,0,5,,,,,,,,,5,,,60,0
649632,note_off,192,0,1,,,,,,,,,1,,,78,0
649680,note_on,0,0,4,,,,,,,,,4,,,63,56
649680,control_change,84,0,4,,,,,,,64,127,4,,,,
649680,control_change,84,0,3,,,,,,,64,127,3,,,,
649680,control_change,84,0,5,,,,,,,64,127,5,,,,
649680,note_on,0,0,5,,,,,,,,,5,,,59,56
649680,control_change,48,0,1,,,,,,,64,127,1,,,,
649680,control_change,780,0,2,,,,,,,64,127,2,,,,
649680,note_on,0,0,3,,,,,,,,,3,,,69,56
649680,note_on,0,0,3,,,,,,,,,3,,,66,56
649836,note_off,156,0,3,,,,,,,,,3,,,66,0
649836,note_off,156,0,5,,,,,,,,,5,,,59,0
649836,note_off,0,0,3,,,,,,,,,3,,,69,0
649836,note_off,156,0,4,,,,,,,,,4,,,63,0
649920,note_on,84,0,5,,,,,,,,,5,,,59,58
649920,note_on,84,0,3,,,,,,,,,3,,,66,58
649920,note_on,0,0,3,,,,,,,,,3,,,69,58
649920,note_on,84,0,4,,,,,,,,,4,,,63,58
650076,note_off,156,0,5,,,,,,,,,5,,,59,0
650076,note_off,156,0,4,,,,,,,,,4,,,63,0
650076,note_off,156,0,3,,,,,,,,,3,,,69,0
650076,note_off,0,0,3,,,,,,,,,3,,,66,0
650160,note_on,84,0,3,,,,,,,,,3,,,66,59
650160,note_on,0,0,3,,,,,,,,,3,,,69,59
650160,note_on,480,0,1,,,,,,,,,1,,,78,59
650160,note_on,84,0,4,,,,,,,,,4,,,63,59
650160,note_on,84,0,5,,,,,,,,,5,,,59,59
650160,note_on,0,0,1,,,,,,,,,1,,,90,59
650316,note_off,156,0,5,,,,,,,,,5,,,59,0
650316,note_off,0,0,3,,,,,,,,,3,,,66,0
650316,note_off,156,0,4,,,,,,,,,4,,,63,0
650316,note_off,156,0,3,,,,,,,,,3,,,69,0
650340,control_change,24,0,5,,,,,,,64,0,5,,,,
650340,control_change,180,0,1,,,,,,,64,0,1,,,,
650340,control_change,24,0,4,,,,,,,64,0,4,,,,
650340,control_change,24,0,3,,,,,,,64,0,3,,,,
650340,control_change,660,0,2,,,,,,,64,0,2,,,,
650400,note_on,60,0,4,,,,,,,,,4,,,64,71
650400,note_off,60,0,1,,,,,,,,,1,,,90,0
650400,note_off,0,0,1,,,,,,,,,1,,,78,0
650400,note_on,0,0,1,,,,,,,,,1,,,93,71
650400,note_on,60,0,3,,,,,,,,,3,,,66,71
650400,note_on,0,0,3,,,,,,,,,3,,,69,71
650400,note_on,60,0,5,,,,,,,,,5,,,60,71
650400,note_on,0,0,1,,,,,,,,,1,,,81,71
650556,note_off,156,0,4,,,,,,,,,4,,,64,0
650556,note_off,0,0,3,,,,,,,,,3,,,66,0
650556,note_off,156,0,5,,,,,,,,,5,,,60,0
650556,note_off,156,0,3,,,,,,,,,3,,,69,0
650640,note_on,84,0,4,,,,,,,,,4,,,64,63
650640,note_on,84,0,3,,,,,,,,,3,,,66,63
650640,note_on,84,0,5,,,,,,,,,5,,,60,63
650640,note_on,0,0,3,,,,,,,,,3,,,69,63
650796,note_off,156,0,3,,,,,,,,,3,,,69,0
650796,note_off,156,0,4,,,,,,,,,4,,,64,0
650796,note_off,0,0,3,,,,,,,,,3,,,66,0
650796,note_off,156,0,5,,,,,,,,,5,,,60,0
650880,note_on,84,0,3,,,,,,,,,3,,,66,64
650880,note_on,0,0,3,,,,,,,,,3,,,69,64
650880,note_on,84,0,4,,,,,,,,,4,,,64,64
650880,note_off,480,0,1,,,,,,,,,1,,,81,0
650880,note_on,84,0,5,,,,,,,,,5,,,60,64
650880,note_off,0,0,1,,,,,,,,,1,,,93,0
650880,note_on,0,0,1,,,,,,,,,1,,,78,64
650880,note_on,0,0,1,,,,,,,,,1,,,90,64
651036,note_off,156,0,3,,,,,,,,,3,,,69,0
651036,note_off,0,0,3,,,,,,,,,3,,,66,0
651036,note_off,156,0,4,,,,,,,,,4,,,64,0
651036,note_off,156,0,5,,,,,,,,,5,,,60,0
651072,note_off,0,0,1,,,,,,,,,1,,,78,0
651072,note_off,192,0,1,,,,,,,,,1,,,90,0
651120,control_change,84,0,5,,,,,,,64,127,5,,,,
651120,control_change,84,0,3,,,,,,,64,127,3,,,,
651120,note_on,0,0,3,,,,,,,,,3,,,66,66
651120,control_change,48,0,1,,,,,,,64,127,1,,,,
651120,note_on,0,0,3,,,,,,,,,3,,,69,66
651120,note_on,0,0,4,,,,,,,,,4,,,63,66
651120,note_on,0,0,5,,,,,,,,,5,,,59,66
651120,control_change,780,0,2,,,,,,,64,127,2,,,,
651120,control_change,84,0,4,,,,,,,64,127,4,,,,
651276,note_off,156,0,4,,,,,,,,,4,,,63,0
651276,note_off,156,0,5,,,,,,,,,5,,,59,0
651276,note_off,156,0,3,,,,,,,,,3,,,69,0
651276,note_off,0,0,3,,,,,,,,,3,,,66,0
651360,note_on,0,0,3,,,,,,,,,3,,,66,68
651360,note_on,84,0,5,,,,,,,,,5,,,59,68
651360,note_on,84,0,3,,,,,,,,,3,,,69,68
651360,note_on,84,0,4,,,,,,,,,4,,,63,68
651516,note_off,156,0,5,,,,,,,,,5,,,59,0
651516,note_off,0,0,3,,,,,,,,,3,,,69,0
651516,note_off,156,0,3,,,,,,,,,3,,,66,0
651516,note_off,156,0,4,,,,,,,,,4,,,63,0
651600,note_on,84,0,4,,,,,,,,,4,,,63,69
651600,note_on,84,0,5,,,,,,,,,5,,,59,69
651600,note_on,0,0,3,,,,,,,,,3,,,66,69
651600,note_on,84,0,3,,,,,,,,,3,,,69,69
651600,note_on,480,0,1,,,,,,,,,1,,,78,69
651756,note_off,0,0,3,,,,,,,,,3,,,69,0
651756,note_off,156,0,3,,,,,,,,,3,,,66,0
651756,note_off,156,0,5,,,,,,,,,5,,,59,0
651756,note_off,156,0,4,,,,,,,,,4,,,63,0
651780,control_change,24,0,3,,,,,,,64,0,3,,,,
651780,control_change,24,0,4,,,,,,,64,0,4,,,,
651780,control_change,180,0,1,,,,,,,64,0,1,,,,
651780,control_change,660,0,2,,,,,,,64,0,2,,,,
651780,control_change,24,0,5,,,,,,,64,0,5,,,,
651840,note_off,60,0,1,,,,,,,,,1,,,78,0
651840,note_on,0,0,1,,,,,,,,,1,,,81,79
651840,note_on,60,0,4,,,,,,,,,4,,,64,71
651840,note_on,60,0,5,,,,,,,,,5,,,60,71
651840,note_on,60,0,3,,,,,,,,,3,,,69,71
651840,note_on,0,0,3,,,,,,,,,3,,,66,71
651996,note_off,156,0,3,,,,,,,,,3,,,66,0
651996,note_off,156,0,4,,,,,,,,,4,,,64,0
651996,note_off,0,0,3,,,,,,,,,3,,,69,0
651996,note_off,156,0,5,,,,,,,,,5,,,60,0
652080,note_on,84,0,3,,,,,,,,,3,,,69,72
652080,note_on,0,0,3,,,,,,,,,3,,,66,72
652080,note_on,84,0,5,,,,,,,,,5,,,60,72
652080,note_on,84,0,4,,,,,,,,,4,,,64,72
652236,note_off,156,0,4,,,,,,,,,4,,,64,0
652236,note_off,156,0,3,,,,,,,,,3,,,66,0
652236,note_off,0,0,3,,,,,,,,,3,,,69,0
652236,note_off,156,0,5,,,,,,,,,5,,,60,0
652320,note_on,84,0,4,,,,,,,,,4,,,64,74
652320,note_on,84,0,5,,,,,,,,,5,,,60,74
652320,note_on,84,0,3,,,,,,,,,3,,,66,74
652320,note_on,0,0,1,,,,,,,,,1,,,78,72
652320,note_off,480,0,1,,,,,,,,,1,,,81,0
652320,note_on,0,0,3,,,,,,,,,3,,,69,74
652476,note_off,156,0,4,,,,,,,,,4,,,64,0
652476,note_off,156,0,3,,,,,,,,,3,,,69,0
652476,note_off,156,0,5,,,,,,,,,5,,,60,0
652476,note_off,0,0,3,,,,,,,,,3,,,66,0
652512,note_off,192,0,1,,,,,,,,,1,,,78,0
652560,control_change,780,0,2,,,,,,,64,127,2,,,,
652560,note_on,0,0,5,,,,,,,,,5,,,59,76
652560,note_on,0,0,4,,,,,,,,,4,,,63,76
652560,control_change,84,0,4,,,,,,,64,127,4,,,,
652560,note_on,0,0,3,,,,,,,,,3,,,66,76
652560,note_on,0,0,3,,,,,,,,,3,,,69,76
652560,control_change,84,0,3,,,,,,,64,127,3,,,,
652560,control_change,48,0,1,,,,,,,64,127,1,,,,
652560,control_change,84,0,5,,,,,,,64,127,5,,,,
652716,note_off,0,0,3,,,,,,,,,3,,,69,0
652716,note_off,156,0,3,,,,,,,,,3,,,66,0
652716,note_off,156,0,4,,,,,,,,,4,,,63,0
652716,note_off,156,0,5,,,,,,,,,5,,,59,0
652800,note_on,84,0,5,,,,,,,,,5,,,59,77
652800,note_on,84,0,4,,,,,,,,,4,,,63,77
652800,note_on,0,0,3,,,,,,,,,3,,,66,77
652800,note_on,84,0,3,,,,,,,,,3,,,69,77
652956,note_off,156,0,4,,,,,,,,,4,,,63,0
652956,note_off,0,0,3,,,,,,,,,3,,,69,0
652956,note_off,156,0,3,,,,,,,,,3,,,66,0
652956,note_off,156,0,5,,,,,,,,,5,,,59,0
653040,note_on,84,0,4,,,,,,,,,4,,,63,79
653040,note_on,84,0,5,,,,,,,,,5,,,59,79
653040,note_on,480,0,1,,,,,,,,,1,,,90,79
653040,note_on,0,0,3,,,,,,,,,3,,,66,79
653040,note_on,84,0,3,,,,,,,,,3,,,69,79
653040,note_on,0,0,1,,,,,,,,,1,,,78,79
653196,note_off,156,0,5,,,,,,,,,5,,,59,0
653196,note_off,0,0,3,,,,,,,,,3,,,69,0
653196,note_off,156,0,3,,,,,,,,,3,,,66,0
653196,note_off,156,0,4,,,,,,,,,4,,,63,0
653220,control_change,24,0,5,,,,,,,64,0,5,,,,
653220,control_change,180,0,1,,,,,,,64,0,1,,,,
653220,control_change,660,0,2,,,,,,,64,0,2,,,,
653220,control_change,24,0,3,,,,,,,64,0,3,,,,
653220,control_change,24,0,4,,,,,,,64,0,4,,,,
653280,note_on,60,0,5,,,,,,,,,5,,,60,89
653280,note_on,0,0,1,,,,,,,,,1,,,93,89
653280,note_on,0,0,1,,,,,,,,,1,,,81,89
653280,note_off,0,0,1,,,,,,,,,1,,,90,0
653280,note_off,60,0,1,,,,,,,,,1,,,78,0
653280,note_on,0,0,3,,,,,,,,,3,,,66,89
653280,note_on,60,0,3,,,,,,,,,3,,,69,89
653280,note_on,60,0,4,,,,,,,,,4,,,63,89
653436,note_off,156,0,4,,,,,,,,,4,,,63,0
653436,note_off,156,0,5,,,,,,,,,5,,,60,0
653436,note_off,0,0,3,,,,,,,,,3,,,69,0
653436,note_off,156,0,3,,,,,,,,,3,,,66,0
653520,note_on,84,0,5,,,,,,,,,5,,,60,82
653520,note_on,84,0,3,,,,,,,,,3,,,69,82
653520,note_on,84,0,4,,,,,,,,,4,,,63,82
653520,note_on,0,0,3,,,,,,,,,3,,,66,82
653676,note_off,156,0,4,,,,,,,,,4,,,63,0
653676,note_off,156,0,3,,,,,,,,,3,,,66,0
653676,note_off,0,0,3,,,,,,,,,3,,,69,0
653676,note_off,156,0,5,,,,,,,,,5,,,60,0
653760,note_on,0,0,3,,,,,,,,,3,,,66,84
653760,note_on,84,0,3,,,,,,,,,3,,,69,84
653760,note_on,84,0,5,,,,,,,,,5,,,60,84
653760,note_off,480,0,1,,,,,,,,,1,,,93,0
653760,note_off,0,0,1,,,,,,,,,1,,,81,0
653760,note_on,0,0,1,,,,,,,,,1,,,90,84
653760,note_on,0,0,1,,,,,,,,,1,,,78,84
653760,note_on,84,0,4,,,,,,,,,4,,,63,84
653880,set_tempo,5640,1,0,,,,,,394736,,,,,,,
653916,note_off,0,0,3,,,,,,,,,3,,,69,0
653916,note_off,156,0,3,,,,,,,,,3,,,66,0
653916,note_off,156,0,5,,,,,,,,,5,,,60,0
653916,note_off,156,0,4,,,,,,,,,4,,,63,0
653952,note_off,192,0,1,,,,,,,,,1,,,78,0
653952,note_off,0,0,1,,,,,,,,,1,,,90,0
654000,set_tempo,120,1,0,,,,,,389610,,,,,,,
654000,control_change,84,0,3,,,,,,,64,127,3,,,,
654000,control_change,48,0,1,,,,,,,64,127,1,,,,
654000,control_change,780,0,2,,,,,,,64,127,2,,,,
654000,note_on,0,0,5,,,,,,,,,5,,,61,98
654000,control_change,84,0,4,,,,,,,64,127,4,,,,
654000,note_on,0,0,4,,,,,,,,,4,,,69,98
654000,note_on,0,0,1,,,,,,,,,1,,,85,98
654000,note_on,0,0,4,,,,,,,,,4,,,78,98
654000,control_change,84,0,5,,,,,,,64,127,5,,,,
654000,note_on,0,0,4,,,,,,,,,4,,,73,98
654156,note_off,156,0,5,,,,,,,,,5,,,61,0
654240,note_on,84,0,5,,,,,,,,,5,,,61,87
654396,note_off,156,0,5,,,,,,,,,5,,,61,0
654480,note_on,84,0,5,,,,,,,,,5,,,61,89
654480,note_on,0,0,1,,,,,,,,,1,,,83,89
654480,note_off,480,0,1,,,,,,,,,1,,,85,0
654600,note_on,0,0,1,,,,,,,,,1,,,81,90
654600,note_off,120,0,1,,,,,,,,,1,,,83,0
654636,note_off,156,0,5,,,,,,,,,5,,,61,0
654660,control_change,660,0,2,,,,,,,64,0,2,,,,
654660,control_change,660,0,3,,,,,,,64,0,3,,,,
654660,control_change,60,0,1,,,,,,,64,0,1,,,,
654660,control_change,24,0,5,,,,,,,64,0,5,,,,
654660,control_change,660,0,4,,,,,,,64,0,4,,,,
654685,note_off,25,0,4,,,,,,,,,4,,,69,0
654690,note_off,5,0,4,,,,,,,,,4,,,78,0
654690,note_off,0,0,4,,,,,,,,,4,,,73,0
654696,note_off,36,0,1,,,,,,,,,1,,,81,0
654720,note_on,0,0,5,,,,,,,,,5,,,61,102
654720,control_change,60,0,5,,,,,,,64,127,5,,,,
654720,control_change,60,0,3,,,,,,,64,127,3,,,,
654720,control_change,24,0,1,,,,,,,64,127,1,,,,
654720,note_on,0,0,1,,,,,,,,,1,,,80,102
654720,note_on,0,0,4,,,,,,,,,4,,,77,102
654720,control_change,30,0,4,,,,,,,64,127,4,,,,
654720,note_on,0,0,4,,,,,,,,,4,,,71,102
654720,note_on,0,0,4,,,,,,,,,4,,,74,102
654720,control_change,60,0,2,,,,,,,64,127,2,,,,
654876,note_off,156,0,5,,,,,,,,,5,,,61,0
654960,note_on,84,0,5,,,,,,,,,5,,,61,92
655116,note_off,156,0,5,,,,,,,,,5,,,61,0
655200,note_off,480,0,1,,,,,,,,,1,,,80,0
655200,note_on,0,0,1,,,,,,,,,1,,,81,94
655200,note_on,84,0,5,,,,,,,,,5,,,61,94
655320,note_on,0,0,1,,,,,,,,,1,,,83,95
655320,note_off,120,0,1,,,,,,,,,1,,,81,0
655320,set_tempo,1320,1,0,,,,,,394736,,,,,,,
655356,note_off,156,0,5,,,,,,,,,5,,,61,0
655380,control_change,60,0,1,,,,,,,64,0,1,,,,
655380,control_change,660,0,4,,,,,,,64,0,4,,,,
655380,control_change,660,0,3,,,,,,,64,0,3,,,,
655380,control_change,660,0,2,,,,,,,64,0,2,,,,
655380,control_change,24,0,5,,,,,,,64,0,5,,,,
655410,note_off,30,0,4,,,,,,,,,4,,,71,0
655416,note_off,36,0,1,,,,,,,,,1,,,83,0
655420,note_off,10,0,4,,,,,,,,,4,,,77,0
655420,note_off,0,0,4,,,,,,,,,4,,,74,0
655440,note_on,0,0,4,,,,,,,,,4,,,73,109
655440,note_on,0,0,1,,,,,,,,,1,,,85,109
655440,control_change,24,0,1,,,,,,,64,127,1,,,,
655440,control_change,60,0,2,,,,,,,64,127,2,,,,
655440,note_on,0,0,4,,,,,,,,,4,,,78,109
655440,note_on,0,0,4,,,,,,,,,4,,,69,109
655440,control_change,60,0,3,,,,,,,64,127,3,,,,
655440,control_change,20,0,4,,,,,,,64,127,4,,,,
655440,note_on,0,0,5,,,,,,,,,5,,,61,109
655440,control_change,60,0,5,,,,,,,64,127,5,,,,
655440,set_tempo,120,1,0,,,,,,389610,,,,,,,
655596,note_off,156,0,5,,,,,,,,,5,,,61,0
655680,note_on,84,0,5,,,,,,,,,5,,,61,97
655836,note_off,156,0,5,,,,,,,,,5,,,61,0
655920,note_on,0,0,1,,,,,,,,,1,,,83,99
655920,note_on,84,0,5,,,,,,,,,5,,,61,99
655920,note_off,480,0,1,,,,,,,,,1,,,85,0
656040,note_off,120,0,1,,,,,,,,,1,,,83,0
656040,note_on,0,0,1,,,,,,,,,1,,,81,100
656076,note_off,156,0,5,,,,,,,,,5,,,61,0
656100,control_change,660,0,2,,,,,,,64,0,2,,,,
656100,control_change,24,0,5,,,,,,,64,0,5,,,,
656100,control_change,660,0,3,,,,,,,64,0,3,,,,
656100,control_change,60,0,1,,,,,,,64,0,1,,,,
656100,control_change,660,0,4,,,,,,,64,0,4,,,,
656125,note_off,25,0,4,,,,,,,,,4,,,69,0
656130,note_off,0,0,4,,,,,,,,,4,,,78,0
656130,note_off,5,0,4,,,,,,,,,4,,,73,0
656136,note_off,36,0,1,,,,,,,,,1,,,81,0
656160,control_change,60,0,3,,,,,,,64,127,3,,,,
656160,control_change,30,0,4,,,,,,,64,127,4,,,,
656160,note_on,0,0,4,,,,,,,,,4,,,71,112
656160,note_on,0,0,4,,,,,,,,,4,,,77,112
656160,note_on,0,0,4,,,,,,,,,4,,,74,112
656160,control_change,60,0,5,,,,,,,64,127,5,,,,
656160,control_change,60,0,2,,,,,,,64,127,2,,,,
656160,note_on,0,0,5,,,,,,,,,5,,,61,112
656160,control_change,24,0,1,,,,,,,64,127,1,,,,
656160,note_on,0,0,1,,,,,,,,,1,,,80,112
656316,note_off,156,0,5,,,,,,,,,5,,,61,0
656400,note_on,84,0,5,,,,,,,,,5,,,61,102
656556,note_off,156,0,5,,,,,,,,,5,,,61,0
656640,note_off,480,0,1,,,,,,,,,1,,,80,0
656640,note_on,84,0,5,,,,,,,,,5,,,61,104
656640,note_on,0,0,1,,,,,,,,,1,,,81,104
656760,note_on,0,0,1,,,,,,,,,1,,,83,105
656760,note_off,120,0,1,,,,,,,,,1,,,81,0
656760,set_tempo,1320,1,0,,,,,,394736,,,,,,,
656796,note_off,156,0,5,,,,,,,,,5,,,61,0
656820,control_change,660,0,3,,,,,,,64,0,3,,,,
656820,control_change,660,0,2,,,,,,,64,0,2,,,,
656820,control_change,660,0,4,,,,,,,64,0,4,,,,
656820,control_change,60,0,1,,,,,,,64,0,1,,,,
656820,control_change,24,0,5,,,,,,,64,0,5,,,,
656850,note_off,30,0,4,,,,,,,,,4,,,71,0
656856,note_off,36,0,1,,,,,,,,,1,,,83,0
656860,note_off,10,0,4,,,,,,,,,4,,,74,0
656860,note_off,0,0,4,,,,,,,,,4,,,77,0
656880,note_on,0,0,2,,,,,,,,,2,,,78,106
656880,note_on,0,0,2,,,,,,,,,2,,,72,106
656880,note_on,0,0,2,,,,,,,,,2,,,81,106
656880,note_on,0,0,2,,,,,,,,,2,,,75,106
656880,control_change,60,0,5,,,,,,,64,127,5,,,,
656880,control_change,20,0,4,,,,,,,64,127,4,,,,
656880,note_on,0,0,4,,,,,,,,,4,,,69,106
656880,note_on,0,0,1,,,,,,,,,1,,,84,106
656880,control_change,24,0,1,,,,,,,64,127,1,,,,
656880,set_tempo,120,1,0,,,,,,389610,,,,,,,
656880,control_change,60,0,2,,,,,,,64,127,2,,,,
656880,note_on,0,0,5,,,,,,,,,5,,,61,106
656880,control_change,60,0,3,,,,,,,64,127,3,,,,
657036,note_off,156,0,1,,,,,,,,,1,,,84,0
657036,note_off,156,0,4,,,,,,,,,4,,,69,0
657036,note_off,0,0,2,,,,,,,,,2,,,81,0
657036,note_off,156,0,2,,,,,,,,,2,,,75,0
657036,note_off,156,0,5,,,,,,,,,5,,,61,0
657036,note_off,0,0,2,,,,,,,,,2,,,72,0
657036,note_off,0,0,2,,,,,,,,,2,,,78,0
657120,note_on,84,0,2,,,,,,,,,2,,,78,108
657120,note_on,0,0,2,,,,,,,,,2,,,81,108
657120,note_on,0,0,2,,,,,,,,,2,,,72,108
657120,note_on,0,0,2,,,,,,,,,2,,,75,108
657120,note_on,84,0,5,,,,,,,,,5,,,61,108
657120,note_on,84,0,1,,,,,,,,,1,,,84,108
657120,note_on,84,0,4,,,,,,,,,4,,,69,108
657276,note_off,156,0,1,,,,,,,,,1,,,84,0
657276,note_off,156,0,4,,,,,,,,,4,,,69,0
657276,note_off,156,0,5,,,,,,,,,5,,,61,0
657276,note_off,0,0,2,,,,,,,,,2,,,78,0
657276,note_off,0,0,2,,,,,,,,,2,,,81,0
657276,note_off,0,0,2,,,,,,,,,2,,,72,0
657276,note_off,156,0,2,,,,,,,,,2,,,75,0
657360,note_on,84,0,5,,,,,,,,,5,,,61,111
657360,note_on,84,0,4,,,,,,,,,4,,,69,111
657360,note_on,84,0,1,,,,,,,,,1,,,84,111
657360,note_on,0,0,2,,,,,,,,,2,,,75,111
657360,note_on,0,0,2,,,,,,,,,2,,,81,111
657360,note_on,0,0,2,,,,,,,,,2,,,72,111
657360,note_on,84,0,2,,,,,,,,,2,,,78,111
657480,control_change,120,0,1,,,,,,,64,0,1,,,,
657480,control_change,600,0,3,,,,,,,64,0,3,,,,
657480,control_change,120,0,5,,,,,,,64,0,5,,,,
657480,control_change,120,0,4,,,,,,,64,0,4,,,,
657480,control_change,120,0,2,,,,,,,64,0,2,,,,
657516,note_off,0,0,2,,,,,,,,,2,,,78,0
657516,note_off,36,0,4,,,,,,,,,4,,,69,0
657516,note_off,0,0,2,,,,,,,,,2,,,72,0
657516,note_off,0,0,2,,,,,,,,,2,,,81,0
657516,note_off,36,0,5,,,,,,,,,5,,,61,0
657516,note_off,36,0,1,,,,,,,,,1,,,84,0
657516,note_off,36,0,2,,,,,,,,,2,,,75,0
657600,control_change,84,0,4,,,,,,,64,127,4,,,,
657600,control_change,84,0,5,,,,,,,64,127,5,,,,
657600,control_change,120,0,3,,,,,,,64,127,3,,,,
657600,note_on,0,0,4,,,,,,,,,4,,,69,114
657600,note_on,0,0,5,,,,,,,,,5,,,61,114
657600,note_on,0,0,2,,,,,,,,,2,,,75,114
657600,note_on,0,0,2,,,,,,,,,2,,,81,114
657600,note_on,0,0,2,,,,,,,,,2,,,72,114
657600,note_on,0,0,1,,,,,,,,,1,,,84,114
657600,note_on,0,0,2,,,,,,,,,2,,,78,114
657600,control_change,84,0,2,,,,,,,64,127,2,,,,
657600,control_change,84,0,1,,,,,,,64,127,1,,,,
657756,note_off,156,0,1,,,,,,,,,1,,,84,0
657756,note_off,156,0,2,,,,,,,,,2,,,72,0
657756,note_off,0,0,2,,,,,,,,,2,,,75,0
657756,note_off,0,0,2,,,,,,,,,2,,,81,0
657756,note_off,0,0,2,,,,,,,,,2,,,78,0
657756,note_off,156,0,4,,,,,,,,,4,,,69,0
657756,note_off,156,0,5,,,,,,,,,5,,,61,0
657840,note_on,84,0,4,,,,,,,,,4,,,69,117
657840,note_on,0,0,2,,,,,,,,,2,,,81,117
657840,note_on,84,0,2,,,,,,,,,2,,,78,117
657840,note_on,0,0,2,,,,,,,,,2,,,72,117
657840,note_on,0,0,2,,,,,,,,,2,,,75,117
657840,note_on,84,0,1,,,,,,,,,1,,,84,117
657840,note_on,84,0,5,,,,,,,,,5,,,61,117
657996,note_off,156,0,4,,,,,,,,,4,,,69,0
657996,note_off,156,0,1,,,,,,,,,1,,,84,0
657996,note_off,156,0,2,,,,,,,,,2,,,75,0
657996,note_off,0,0,2,,,,,,,,,2,,,78,0
657996,note_off,156,0,5,,,,,,,,,5,,,61,0
657996,note_off,0,0,2,,,,,,,,,2,,,72,0
657996,note_off,0,0,2,,,,,,,,,2,,,81,0
658080,note_on,0,0,2,,,,,,,,,2,,,81,120
658080,note_on,0,0,2,,,,,,,,,2,,,72,120
658080,note_on,0,0,2,,,,,,,,,2,,,75,120
658080,note_on,84,0,5,,,,,,,,,5,,,61,120
658080,note_on,84,0,4,,,,,,,,,4,,,69,120
658080,note_on,84,0,1,,,,,,,,,1,,,84,120
658080,note_on,84,0,2,,,,,,,,,2,,,78,120
658200,control_change,120,0,4,,,,,,,64,0,4,,,,
658200,control_change,120,0,1,,,,,,,64,0,1,,,,
658200,set_tempo,1320,1,0,,,,,,394736,,,,,,,
658200,control_change,120,0,2,,,,,,,64,0,2,,,,
658200,control_change,120,0,5,,,,,,,64,0,5,,,,
658200,control_change,600,0,3,,,,,,,64,0,3,,,,
658236,note_off,0,0,2,,,,,,,,,2,,,72,0
658236,note_off,0,0,2,,,,,,,,,2,,,81,0
658236,note_off,0,0,2,,,,,,,,,2,,,78,0
658236,note_off,36,0,4,,,,,,,,,4,,,69,0
658236,note_off,36,0,2,,,,,,,,,2,,,75,0
658236,note_off,36,0,1,,,,,,,,,1,,,84,0
658236,note_off,36,0,5,,,,,,,,,5,,,61,0
658320,note_on,0,0,2,,,,,,,,,2,,,73,126
658320,note_on,0,0,2,,,,,,,,,2,,,80,126
658320,note_on,84,0,2,,,,,,,,,2,,,77,126
658320,note_on,84,0,5,,,,,,,,,5,,,61,126
658320,note_on,84,0,4,,,,,,,,,4,,,68,126
658320,note_on,84,0,1,,,,,,,,,1,,,85,126
658560,note_off,240,0,5,,,,,,,,,5,,,61,0
658560,note_off,240,0,4,,,,,,,,,4,,,68,0
658560,note_off,0,0,2,,,,,,,,,2,,,77,0
658560,note_off,0,0,2,,,,,,,,,2,,,73,0
658560,note_off,240,0,2,,,,,,,,,2,,,80,0
658560,note_off,240,0,1,,,,,,,,,1,,,85,0
659760,note_on,0,0,1,,,,,,,,,1,,,72,51
659760,note_on,0,0,5,,,,,,,,,5,,,49,53
659760,control_change,1200,0,1,,,,,,,64,127,1,,,,
659760,control_change,1560,0,3,,,,,,,64,127,3,,,,
659760,control_change,1200,0,5,,,,,,,64,127,5,,,,
659760,control_change,1200,0,4,,,,,,,64,127,4,,,,
659760,note_on,0,0,2,,,,,,,,,2,,,60,53
659760,control_change,1200,0,2,,,,,,,64,127,2,,,,
659760,note_on,0,0,4,,,,,,,,,4,,,57,53
659760,note_on,0,0,2,,,,,,,,,2,,,63,53
659760,note_on,0,0,2,,,,,,,,,2,,,69,53
659760,note_on,0,0,2,,,,,,,,,2,,,66,53
659916,note_off,156,0,4,,,,,,,,,4,,,57,0
659916,note_off,0,0,2,,,,,,,,,2,,,63,0
659916,note_off,156,0,1,,,,,,,,,1,,,72,0
659916,note_off,156,0,5,,,,,,,,,5,,,49,0
659916,note_off,0,0,2,,,,,,,,,2,,,69,0
659916,note_off,156,0,2,,,,,,,,,2,,,66,0
659916,note_off,0,0,2,,,,,,,,,2,,,60,0
660000,note_on,84,0,4,,,,,,,,,4,,,57,51
660000,note_on,84,0,1,,,,,,,,,1,,,72,48
660000,note_on,0,0,2,,,,,,,,,2,,,60,51
660000,note_on,84,0,5,,,,,,,,,5,,,49,51
660000,note_on,0,0,2,,,,,,,,,2,,,66,51
660000,note_on,84,0,2,,,,,,,,,2,,,63,51
660000,note_on,0,0,2,,,,,,,,,2,,,69,51
660156,note_off,156,0,5,,,,,,,,,5,,,49,0
660156,note_off,0,0,2,,,,,,,,,2,,,63,0
660156,note_off,0,0,2,,,,,,,,,2,,,60,0
660156,note_off,156,0,2,,,,,,,,,2,,,66,0
660156,note_off,0,0,2,,,,,,,,,2,,,69,0
660156,note_off,156,0,1,,,,,,,,,1,,,72,0
660156,note_off,156,0,4,,,,,,,,,4,,,57,0
660240,note_on,84,0,2,,,,,,,,,2,,,63,48
660240,note_on,84,0,4,,,,,,,,,4,,,57,48
660240,note_on,84,0,5,,,,,,,,,5,,,49,48
660240,note_on,84,0,1,,,,,,,,,1,,,72,45
660240,note_on,0,0,2,,,,,,,,,2,,,69,48
660240,note_on,0,0,2,,,,,,,,,2,,,60,48
660240,note_on,0,0,2,,,,,,,,,2,,,66,48
660360,control_change,120,0,4,,,,,,,64,0,4,,,,
660360,control_change,120,0,1,,,,,,,64,0,1,,,,
660360,control_change,600,0,3,,,,,,,64,0,3,,,,
660360,control_change,120,0,5,,,,,,,64,0,5,,,,
660360,control_change,120,0,2,,,,,,,64,0,2,,,,
660396,note_off,36,0,2,,,,,,,,,2,,,66,0
660396,note_off,0,0,2,,,,,,,,,2,,,69,0
660396,note_off,0,0,2,,,,,,,,,2,,,63,0
660396,note_off,0,0,2,,,,,,,,,2,,,60,0
660396,note_off,36,0,1,,,,,,,,,1,,,72,0
660396,note_off,36,0,5,,,,,,,,,5,,,49,0
660396,note_off,36,0,4,,,,,,,,,4,,,57,0
660480,note_on,0,0,2,,,,,,,,,2,,,69,46
660480,control_change,84,0,5,,,,,,,64,127,5,,,,
660480,note_on,0,0,5,,,,,,,,,5,,,49,46
660480,control_change,120,0,3,,,,,,,64,127,3,,,,
660480,note_on,0,0,2,,,,,,,,,2,,,66,46
660480,note_on,0,0,2,,,,,,,,,2,,,60,46
660480,control_change,84,0,2,,,,,,,64,127,2,,,,
660480,note_on,0,0,1,,,,,,,,,1,,,72,43
660480,note_on,0,0,2,,,,,,,,,2,,,63,46
660480,note_on,0,0,4,,,,,,,,,4,,,57,46
660480,control_change,84,0,4,,,,,,,64,127,4,,,,
660480,control_change,84,0,1,,,,,,,64,127,1,,,,
660636,note_off,156,0,1,,,,,,,,,1,,,72,0
660636,note_off,156,0,5,,,,,,,,,5,,,49,0
660636,note_off,0,0,2,,,,,,,,,2,,,69,0
660636,note_off,0,0,2,,,,,,,,,2,,,63,0
660636,note_off,156,0,2,,,,,,,,,2,,,66,0
660636,note_off,0,0,2,,,,,,,,,2,,,60,0
660636,note_off,156,0,4,,,,,,,,,4,,,57,0
660720,note_on,84,0,4,,,,,,,,,4,,,57,44
660720,note_on,84,0,1,,,,,,,,,1,,,72,40
660720,note_on,0,0,2,,,,,,,,,2,,,60,44
660720,note_on,0,0,2,,,,,,,,,2,,,69,44
660720,note_on,0,0,2,,,,,,,,,2,,,66,44
660720,note_on,84,0,2,,,,,,,,,2,,,63,44
660720,note_on,84,0,5,,,,,,,,,5,,,49,44
660876,note_off,156,0,5,,,,,,,,,5,,,49,0
660876,note_off,156,0,4,,,,,,,,,4,,,57,0
660876,note_off,156,0,2,,,,,,,,,2,,,66,0
660876,note_off,156,0,1,,,,,,,,,1,,,72,0
660876,note_off,0,0,2,,,,,,,,,2,,,69,0
660876,note_off,0,0,2,,,,,,,,,2,,,60,0
660876,note_off,0,0,2,,,,,,,,,2,,,63,0
660960,note_on,0,0,2,,,,,,,,,2,,,66,41
660960,note_on,84,0,1,,,,,,,,,1,,,72,38
660960,note_on,84,0,2,,,,,,,,,2,,,63,41
660960,note_on,0,0,2,,,,,,,,,2,,,69,41
660960,note_on,84,0,4,,,,,,,,,4,,,57,41
660960,note_on,84,0,5,,,,,,,,,5,,,49,41
660960,note_on,0,0,2,,,,,,,,,2,,,60,41
661080,control_change,120,0,2,,,,,,,64,0,2,,,,
661080,control_change,120,0,4,,,,,,,64,0,4,,,,
661080,control_change,120,0,5,,,,,,,64,0,5,,,,
661080,control_change,600,0,3,,,,,,,64,0,3,,,,
661080,control_change,120,0,1,,,,,,,64,0,1,,,,
661080,set_tempo,2880,1,0,,,,,,400000,,,,,,,
661116,note_off,36,0,4,,,,,,,,,4,,,57,0
661116,note_off,36,0,1,,,,,,,,,1,,,72,0
661116,note_off,0,0,2,,,,,,,,,2,,,63,0
661116,note_off,0,0,2,,,,,,,,,2,,,60,0
661116,note_off,0,0,2,,,,,,,,,2,,,69,0
661116,note_off,36,0,2,,,,,,,,,2,,,66,0
661116,note_off,36,0,5,,,,,,,,,5,,,49,0
661200,note_on,84,0,1,,,,,,,,,1,,,73,35
661200,note_on,84,0,5,,,,,,,,,5,,,49,39
661200,note_on,0,0,2,,,,,,,,,2,,,61,39
661200,note_on,0,0,2,,,,,,,,,2,,,65,39
661200,set_tempo,120,1,0,,,,,,408163,,,,,,,
661200,note_on,84,0,4,,,,,,,,,4,,,56,39
661200,note_on,84,0,2,,,,,,,,,2,,,68,39
661440,note_off,240,0,2,,,,,,,,,2,,,65,0
661440,note_off,240,0,4,,,,,,,,,4,,,56,0
661440,note_off,0,0,2,,,,,,,,,2,,,61,0
661440,note_off,0,0,2,,,,,,,,,2,,,68,0
661440,note_off,240,0,1,,,,,,,,,1,,,73,0
661440,note_off,240,0,5,,,,,,,,,5,,,49,0
662640,note_on,1200,0,5,,,,,,,,,5,,,62,110
662640,note_on,1200,0,1,,,,,,,,,1,,,74,110
662640,set_tempo,1440,1,0,,,,,,394736,,,,,,,
663360,note_off,720,0,5,,,,,,,,,5,,,62,0
663360,note_on,0,0,5,,,,,,,,,5,,,62,78
663360,note_off,720,0,1,,,,,,,,,1,,,74,0
663360,note_on,1920,0,2,,,,,,,,,2,,,76,78
663360,note_on,0,0,2,,,,,,,,,2,,,79,78
663360,note_on,0,0,2,,,,,,,,,2,,,82,78
663360,set_tempo,720,1,0,,,,,,389610,,,,,,,
663360,note_on,1920,0,4,,,,,,,,,4,,,70,78
663360,note_on,0,0,4,,,,,,,,,4,,,67,78
663360,note_on,0,0,5,,,,,,,,,5,,,73,78
663360,note_on,0,0,1,,,,,,,,,1,,,85,78
663516,note_off,156,0,2,,,,,,,,,2,,,82,0
663516,note_off,0,0,2,,,,,,,,,2,,,79,0
663516,note_off,0,0,2,,,,,,,,,2,,,76,0
663516,note_off,156,0,4,,,,,,,,,4,,,67,0
663516,note_off,0,0,4,,,,,,,,,4,,,70,0
663516,note_off,156,0,5,,,,,,,,,5,,,62,0
663516,note_off,0,0,5,,,,,,,,,5,,,73,0
663516,note_off,156,0,1,,,,,,,,,1,,,85,0
663600,note_on,0,0,2,,,,,,,,,2,,,76,75
663600,note_on,84,0,1,,,,,,,,,1,,,85,75
663600,note_on,0,0,2,,,,,,,,,2,,,79,75
663600,note_on,0,0,4,,,,,,,,,4,,,70,75
663600,note_on,84,0,2,,,,,,,,,2,,,82,75
663600,note_on,84,0,4,,,,,,,,,4,,,67,75
663600,note_on,0,0,5,,,,,,,,,5,,,62,75
663600,note_on,84,0,5,,,,,,,,,5,,,73,75
663756,note_off,156,0,4,,,,,,,,,4,,,70,0
663756,note_off,0,0,4,,,,,,,,,4,,,67,0
663756,note_off,0,0,5,,,,,,,,,5,,,73,0
663756,note_off,156,0,5,,,,,,,,,5,,,62,0
663756,note_off,0,0,2,,,,,,,,,2,,,82,0
663756,note_off,0,0,2,,,,,,,,,2,,,79,0
663756,note_off,156,0,2,,,,,,,,,2,,,76,0
663756,note_off,156,0,1,,,,,,,,,1,,,85,0
663840,note_on,0,0,4,,,,,,,,,4,,,70,72
663840,note_on,0,0,2,,,,,,,,,2,,,76,72
663840,note_on,0,0,2,,,,,,,,,2,,,79,72
663840,note_on,84,0,2,,,,,,,,,2,,,82,72
663840,note_on,84,0,1,,,,,,,,,1,,,85,72
663840,note_on,84,0,4,,,,,,,,,4,,,67,72
663840,note_on,84,0,5,,,,,,,,,5,,,73,72
663840,note_on,0,0,5,,,,,,,,,5,,,62,72
663996,note_off,156,0,2,,,,,,,,,2,,,76,0
663996,note_off,156,0,4,,,,,,,,,4,,,70,0
663996,note_off,0,0,4,,,,,,,,,4,,,67,0
663996,note_off,0,0,5,,,,,,,,,5,,,73,0
663996,note_off,156,0,1,,,,,,,,,1,,,85,0
663996,note_off,156,0,5,,,,,,,,,5,,,62,0
663996,note_off,0,0,2,,,,,,,,,2,,,82,0
663996,note_off,0,0,2,,,,,,,,,2,,,79,0
664080,note_on,84,0,4,,,,,,,,,4,,,67,69
664080,note_on,0,0,4,,,,,,,,,4,,,70,69
664080,note_on,84,0,5,,,,,,,,,5,,,73,69
664080,note_on,0,0,2,,,,,,,,,2,,,76,69
664080,note_on,84,0,2,,,,,,,,,2,,,82,69
664080,note_on,0,0,2,,,,,,,,,2,,,79,69
664080,note_on,84,0,1,,,,,,,,,1,,,85,69
664080,note_on,0,0,5,,,,,,,,,5,,,62,69
664236,note_off,156,0,1,,,,,,,,,1,,,85,0
664236,note_off,156,0,2,,,,,,,,,2,,,76,0
664236,note_off,0,0,2,,,,,,,,,2,,,79,0
664236,note_off,0,0,2,,,,,,,,,2,,,82,0
664236,note_off,156,0,4,,,,,,,,,4,,,70,0
664236,note_off,0,0,5,,,,,,,,,5,,,73,0
664236,note_off,156,0,5,,,,,,,,,5,,,62,0
664236,note_off,0,0,4,,,,,,,,,4,,,67,0
664320,note_on,0,0,4,,,,,,,,,4,,,67,66
664320,note_on,84,0,1,,,,,,,,,1,,,85,66
664320,note_on,0,0,5,,,,,,,,,5,,,62,66
664320,note_on,0,0,2,,,,,,,,,2,,,82,66
664320,note_on,0,0,2,,,,,,,,,2,,,79,66
664320,note_on,84,0,2,,,,,,,,,2,,,76,66
664320,note_on,84,0,4,,,,,,,,,4,,,70,66
664320,note_on,84,0,5,,,,,,,,,5,,,73,66
664476,note_off,156,0,1,,,,,,,,,1,,,85,0
664476,note_off,0,0,2,,,,,,,,,2,,,76,0
664476,note_off,0,0,2,,,,,,,,,2,,,79,0
664476,note_off,156,0,2,,,,,,,,,2,,,82,0
664476,note_off,156,0,5,,,,,,,,,5,,,62,0
664476,note_off,0,0,5,,,,,,,,,5,,,73,0
664476,note_off,156,0,4,,,,,,,,,4,,,67,0
664476,note_off,0,0,4,,,,,,,,,4,,,70,0
664560,note_on,84,0,5,,,,,,,,,5,,,73,63
664560,note_on,0,0,5,,,,,,,,,5,,,62,63
664560,note_on,84,0,1,,,,,,,,,1,,,85,63
664560,note_on,84,0,2,,,,,,,,,2,,,76,63
664560,note_on,0,0,2,,,,,,,,,2,,,79,63
664560,note_on,0,0,2,,,,,,,,,2,,,82,63
664560,note_on,0,0,4,,,,,,,,,4,,,67,63
664560,note_on,84,0,4,,,,,,,,,4,,,70,63
664680,set_tempo,1320,1,0,,,,,,394736,,,,,,,
664716,note_off,0,0,4,,,,,,,,,4,,,70,0
664716,note_off,156,0,4,,,,,,,,,4,,,67,0
664716,note_off,156,0,2,,,,,,,,,2,,,82,0
664716,note_off,0,0,5,,,,,,,,,5,,,73,0
664716,note_off,156,0,1,,,,,,,,,1,,,85,0
664716,note_off,156,0,5,,,,,,,,,5,,,62,0
664716,note_off,0,0,2,,,,,,,,,2,,,79,0
664716,note_off,0,0,2,,,,,,,,,2,,,76,0
664800,note_on,0,0,2,,,,,,,,,2,,,81,60
664800,note_on,84,0,1,,,,,,,,,1,,,86,60
664800,note_on,84,0,5,,,,,,,,,5,,,74,60
664800,note_on,0,0,5,,,,,,,,,5,,,62,60
664800,note_on,84,0,2,,,,,,,,,2,,,78,60
664800,note_on,84,0,4,,,,,,,,,4,,,69,60
665040,note_off,240,0,1,,,,,,,,,1,,,86,0
665040,note_off,240,0,2,,,,,,,,,2,,,81,0
665040,note_off,0,0,2,,,,,,,,,2,,,78,0
665040,note_off,240,0,5,,,,,,,,,5,,,62,0
665040,note_off,0,0,5,,,,,,,,,5,,,74,0
665040,note_off,240,0,4,,,,,,,,,4,,,69,0
665520,note_on,480,0,5,,,,,,,,,5,,,50,94
665520,set_tempo,840,1,0,,,,,,400000,,,,,,,
665520,note_on,480,0,1,,,,,,,,,1,,,62,94
666240,set_tempo,720,1,0,,,,,,394736,,,,,,,
666240,note_on,1200,0,4,,,,,,,,,4,,,55,53
666240,note_on,0,0,4,,,,,,,,,4,,,58,53
666240,note_on,0,0,2,,,,,,,,,2,,,64,53
666240,note_on,0,0,2,,,,,,,,,2,,,67,53
666240,note_on,1200,0,2,,,,,,,,,2,,,70,53
666240,note_on,0,0,1,,,,,,,,,1,,,73,53
666240,note_on,0,0,5,,,,,,,,,5,,,61,53
666240,note_on,0,0,5,,,,,,,,,5,,,50,53
666240,note_off,720,0,5,,,,,,,,,5,,,50,0
666240,note_off,720,0,1,,,,,,,,,1,,,62,0
666396,note_off,0,0,4,,,,,,,,,4,,,55,0
666396,note_off,0,0,2,,,,,,,,,2,,,70,0
666396,note_off,156,0,4,,,,,,,,,4,,,58,0
666396,note_off,0,0,2,,,,,,,,,2,,,67,0
666396,note_off,156,0,2,,,,,,,,,2,,,64,0
666396,note_off,156,0,5,,,,,,,,,5,,,61,0
666396,note_off,156,0,1,,,,,,,,,1,,,73,0
666396,note_off,0,0,5,,,,,,,,,5,,,50,0
666480,note_on,0,0,2,,,,,,,,,2,,,70,50
666480,note_on,0,0,5,,,,,,,,,5,,,61,50
666480,note_on,84,0,1,,,,,,,,,1,,,73,50
666480,note_on,0,0,2,,,,,,,,,2,,,67,50
666480,note_on,84,0,2,,,,,,,,,2,,,64,50
666480,note_on,0,0,4,,,,,,,,,4,,,55,50
666480,note_on,84,0,4,,,,,,,,,4,,,58,50
666480,note_on,84,0,5,,,,,,,,,5,,,50,50
666636,note_off,0,0,2,,,,,,,,,2,,,64,0
666636,note_off,0,0,2,,,,,,,,,2,,,67,0
666636,note_off,156,0,2,,,,,,,,,2,,,70,0
666636,note_off,156,0,5,,,,,,,,,5,,,61,0
666636,note_off,156,0,4,,,,,,,,,4,,,55,0
666636,note_off,0,0,4,,,,,,,,,4,,,58,0
666636,note_off,156,0,1,,,,,,,,,1,,,73,0
666636,note_off,0,0,5,,,,,,,,,5,,,50,0
666720,note_on,0,0,5,,,,,,,,,5,,,61,46
666720,note_on,84,0,4,,,,,,,,,4,,,58,46
666720,note_on,0,0,4,,,,,,,,,4,,,55,46
666720,note_on,84,0,5,,,,,,,,,5,,,50,46
666720,note_on,84,0,2,,,,,,,,,2,,,64,46
666720,note_on,0,0,2,,,,,,,,,2,,,67,46
666720,note_on,0,0,2,,,,,,,,,2,,,70,46
666720,note_on,84,0,1,,,,,,,,,1,,,73,46
666876,note_off,156,0,1,,,,,,,,,1,,,73,0
666876,note_off,0,0,2,,,,,,,,,2,,,67,0
666876,note_off,156,0,2,,,,,,,,,2,,,70,0
666876,note_off,0,0,5,,,,,,,,,5,,,50,0
666876,note_off,156,0,4,,,,,,,,,4,,,55,0
666876,note_off,0,0,4,,,,,,,,,4,,,58,0
666876,note_off,0,0,2,,,,,,,,,2,,,64,0
666876,note_off,156,0,5,,,,,,,,,5,,,61,0
666960,note_on,84,0,4,,,,,,,,,4,,,58,43
666960,note_on,0,0,4,,,,,,,,,4,,,55,43
666960,note_on,84,0,1,,,,,,,,,1,,,73,43
666960,note_on,0,0,5,,,,,,,,,5,,,61,43
666960,note_on,0,0,2,,,,,,,,,2,,,70,43
666960,note_on,0,0,2,,,,,,,,,2,,,67,43
666960,note_on,84,0,2,,,,,,,,,2,,,64,43
666960,note_on,84,0,5,,,,,,,,,5,,,50,43
667116,note_off,156,0,5,,,,,,,,,5,,,61,0
667116,note_off,0,0,4,,,,,,,,,4,,,58,0
667116,note_off,156,0,1,,,,,,,,,1,,,73,0
667116,note_off,156,0,4,,,,,,,,,4,,,55,0
667116,note_off,0,0,5,,,,,,,,,5,,,50,0
667116,note_off,156,0,2,,,,,,,,,2,,,70,0
667116,note_off,0,0,2,,,,,,,,,2,,,64,0
667116,note_off,0,0,2,,,,,,,,,2,,,67,0
667200,note_on,84,0,5,,,,,,,,,5,,,50,40
667200,note_on,0,0,5,,,,,,,,,5,,,61,40
667200,note_on,84,0,2,,,,,,,,,2,,,70,40
667200,note_on,84,0,1,,,,,,,,,1,,,73,40
667200,note_on,0,0,2,,,,,,,,,2,,,67,40
667200,note_on,0,0,2,,,,,,,,,2,,,64,40
667200,note_on,0,0,4,,,,,,,,,4,,,58,40
667200,note_on,84,0,4,,,,,,,,,4,,,55,40
667356,note_off,156,0,2,,,,,,,,,2,,,64,0
667356,note_off,0,0,2,,,,,,,,,2,,,70,0
667356,note_off,0,0,2,,,,,,,,,2,,,67,0
667356,note_off,156,0,1,,,,,,,,,1,,,73,0
667356,note_off,0,0,4,,,,,,,,,4,,,55,0
667356,note_off,0,0,5,,,,,,,,,5,,,50,0
667356,note_off,156,0,5,,,,,,,,,5,,,61,0
667356,note_off,156,0,4,,,,,,,,,4,,,58,0
667440,note_on,0,0,5,,,,,,,,,5,,,61,36
667440,note_on,84,0,5,,,,,,,,,5,,,50,36
667440,note_on,84,0,2,,,,,,,,,2,,,70,36
667440,note_on,0,0,2,,,,,,,,,2,,,67,36
667440,note_on,0,0,2,,,,,,,,,2,,,64,36
667440,note_on,84,0,1,,,,,,,,,1,,,73,36
667440,note_on,0,0,4,,,,,,,,,4,,,58,36
667440,note_on,84,0,4,,,,,,,,,4,,,55,36
667560,set_tempo,1320,1,0,,,,,,400000,,,,,,,
667596,note_off,156,0,1,,,,,,,,,1,,,73,0
667596,note_off,0,0,2,,,,,,,,,2,,,67,0
667596,note_off,0,0,4,,,,,,,,,4,,,55,0
667596,note_off,156,0,4,,,,,,,,,4,,,58,0
667596,note_off,156,0,5,,,,,,,,,5,,,61,0
667596,note_off,0,0,2,,,,,,,,,2,,,70,0
667596,note_off,156,0,2,,,,,,,,,2,,,64,0
667596,note_off,0,0,5,,,,,,,,,5,,,50,0
667680,note_on,84,0,4,,,,,,,,,4,,,57,33
667680,note_on,84,0,2,,,,,,,,,2,,,69,33
667680,note_on,0,0,5,,,,,,,,,5,,,62,33
667680,note_on,84,0,5,,,,,,,,,5,,,50,33
667680,note_on,0,0,2,,,,,,,,,2,,,66,33
667680,note_on,84,0,1,,,,,,,,,1,,,74,33
667920,note_off,240,0,2,,,,,,,,,2,,,66,0
667920,note_off,240,0,1,,,,,,,,,1,,,74,0
667920,note_off,0,0,2,,,,,,,,,2,,,69,0
667920,note_off,240,0,5,,,,,,,,,5,,,62,0
667920,note_off,0,0,5,,,,,,,,,5,,,50,0
667920,note_off,240,0,4,,,,,,,,,4,,,57,0
668400,set_tempo,840,1,0,,,,,,500000,,,,,,,
669120,control_change,8040,0,3,,,,,,,64,127,3,,,,
669120,control_change,1200,0,2,,,,,,,64,0,2,,,,
669120,note_on,0,0,5,,,,,,,,,5,,,55,63
669120,control_change,1200,0,5,,,,,,,64,127,5,,,,
669120,set_tempo,720,1,0,,,,,,389610,,,,,,,
669120,note_on,0,0,1,,,,,,,,,1,,,83,63
669120,control_change,1200,0,4,,,,,,,64,127,4,,,,
669120,control_change,1200,0,1,,,,,,,64,0,1,,,,
669360,note_on,240,0,3,,,,,,,,,3,,,62,63
669600,note_on,0,0,3,,,,,,,,,3,,,67,63
669600,note_off,240,0,3,,,,,,,,,3,,,62,0
669600,note_on,0,0,1,,,,,,,,,1,,,81,63
669600,note_off,480,0,1,,,,,,,,,1,,,83,0
669780,control_change,180,0,3,,,,,,,64,0,3,,,,
669780,note_off,0,0,5,,,,,,,,,5,,,55,0
669780,control_change,660,0,4,,,,,,,64,0,4,,,,
669780,control_change,660,0,5,,,,,,,64,0,5,,,,
669780,note_off,180,0,1,,,,,,,,,1,,,81,0
669780,note_on,0,0,1,,,,,,,,,1,,,81,62
669792,note_off,12,0,3,,,,,,,,,3,,,67,0
669840,note_on,0,0,5,,,,,,,,,5,,,59,62
669840,note_off,60,0,1,,,,,,,,,1,,,81,0
669840,note_on,0,0,1,,,,,,,,,1,,,79,62
669840,control_change,48,0,3,,,,,,,64,127,3,,,,
669840,control_change,60,0,5,,,,,,,64,127,5,,,,
669840,control_change,60,0,4,,,,,,,64,127,4,,,,
670080,note_off,240,0,1,,,,,,,,,1,,,79,0
670080,note_on,240,0,3,,,,,,,,,3,,,62,62
670080,note_on,0,0,1,,,,,,,,,1,,,78,62
670320,note_on,0,0,1,,,,,,,,,1,,,79,62
670320,note_off,240,0,3,,,,,,,,,3,,,62,0
670320,note_on,0,0,3,,,,,,,,,3,,,67,62
670320,note_off,240,0,1,,,,,,,,,1,,,78,0
670500,control_change,660,0,4,,,,,,,64,0,4,,,,
670500,control_change,180,0,3,,,,,,,64,0,3,,,,
670500,note_off,0,0,5,,,,,,,,,5,,,59,0
670500,control_change,660,0,5,,,,,,,64,0,5,,,,
670512,note_off,12,0,3,,,,,,,,,3,,,67,0
670512,note_off,192,0,1,,,,,,,,,1,,,79,0
670560,note_on,1440,0,2,,,,,,,,,2,,,74,61
670560,note_on,48,0,1,,,,,,,,,1,,,80,61
670560,note_on,0,0,2,,,,,,,,,2,,,77,61
670560,control_change,48,0,3,,,,,,,64,127,3,,,,
670560,control_change,60,0,4,,,,,,,64,127,4,,,,
670560,note_on,0,0,5,,,,,,,,,5,,,60,61
670560,control_change,60,0,5,,,,,,,64,127,5,,,,
670800,note_on,240,0,3,,,,,,,,,3,,,65,61
671040,note_off,480,0,1,,,,,,,,,1,,,80,0
671040,note_on,0,0,1,,,,,,,,,1,,,83,61
671040,note_off,240,0,3,,,,,,,,,3,,,65,0
671040,note_on,0,0,3,,,,,,,,,3,,,68,61
671220,control_change,660,0,5,,,,,,,64,0,5,,,,
671220,control_change,180,0,3,,,,,,,64,0,3,,,,
671220,control_change,660,0,4,,,,,,,64,0,4,,,,
671220,note_off,0,0,5,,,,,,,,,5,,,60,0
671232,note_off,12,0,3,,,,,,,,,3,,,68,0
671280,control_change,60,0,4,,,,,,,64,127,4,,,,
671280,note_off,720,0,2,,,,,,,,,2,,,77,0
671280,control_change,48,0,3,,,,,,,64,127,3,,,,
671280,note_on,0,0,5,,,,,,,,,5,,,60,60
671280,note_off,0,0,2,,,,,,,,,2,,,74,0
671280,note_on,0,0,2,,,,,,,,,2,,,76,60
671280,note_off,240,0,1,,,,,,,,,1,,,83,0
671280,note_on,0,0,1,,,,,,,,,1,,,81,60
671280,control_change,60,0,5,,,,,,,64,127,5,,,,
671520,note_on,240,0,3,,,,,,,,,3,,,64,60
671760,note_on,0,0,3,,,,,,,,,3,,,69,59
671760,note_off,240,0,3,,,,,,,,,3,,,64,0
671880,set_tempo,2760,1,0,,,,,,394736,,,,,,,
671935,note_off,655,0,2,,,,,,,,,2,,,76,0
671940,note_off,660,0,1,,,,,,,,,1,,,81,0
671940,control_change,660,0,5,,,,,,,64,0,5,,,,
671940,control_change,660,0,4,,,,,,,64,0,4,,,,
671940,control_change,180,0,3,,,,,,,64,0,3,,,,
671945,note_off,5,0,5,,,,,,,,,5,,,60,0
671952,note_off,12,0,3,,,,,,,,,3,,,69,0
672000,control_change,60,0,4,,,,,,,64,127,4,,,,
672000,note_on,65,0,2,,,,,,,,,2,,,76,63
672000,set_tempo,120,1,0,,,,,,389610,,,,,,,
672000,control_change,55,0,5,,,,,,,64,127,5,,,,
672000,control_change,48,0,3,,,,,,,64,127,3,,,,
672000,note_on,60,0,1,,,,,,,,,1,,,88,63
672000,note_on,0,0,5,,,,,,,,,5,,,61,59
672240,note_on,240,0,3,,,,,,,,,3,,,67,59
672480,note_off,240,0,3,,,,,,,,,3,,,67,0
672480,note_on,0,0,3,,,,,,,,,3,,,69,58
672660,control_change,660,0,5,,,,,,,64,0,5,,,,
672660,control_change,660,0,4,,,,,,,64,0,4,,,,
672660,control_change,180,0,3,,,,,,,64,0,3,,,,
672660,note_on,660,0,1,,,,,,,,,1,,,81,58
672665,note_off,5,0,3,,,,,,,,,3,,,69,0
672665,note_off,5,0,1,,,,,,,,,1,,,88,0
672720,control_change,60,0,5,,,,,,,64,127,5,,,,
672720,note_on,0,0,5,,,,,,,,,5,,,64,58
672720,note_off,55,0,1,,,,,,,,,1,,,81,0
672720,control_change,60,0,4,,,,,,,64,127,4,,,,
672720,note_on,0,0,1,,,,,,,,,1,,,79,58
672720,control_change,55,0,3,,,,,,,64,127,3,,,,
672720,note_on,0,0,2,,,,,,,,,2,,,73,58
672720,note_off,720,0,2,,,,,,,,,2,,,76,0
672725,note_off,5,0,5,,,,,,,,,5,,,61,0
672960,note_on,240,0,3,,,,,,,,,3,,,67,58
672960,note_off,240,0,1,,,,,,,,,1,,,79,0
672960,note_on,0,0,1,,,,,,,,,1,,,78,58
673200,note_on,0,0,1,,,,,,,,,1,,,79,57
673200,note_off,240,0,3,,,,,,,,,3,,,67,0
673200,note_on,0,0,3,,,,,,,,,3,,,69,57
673200,note_off,240,0,1,,,,,,,,,1,,,78,0
673380,control_change,660,0,4,,,,,,,64,0,4,,,,
673380,note_off,0,0,5,,,,,,,,,5,,,64,0
673380,control_change,655,0,5,,,,,,,64,0,5,,,,
673380,note_off,660,0,2,,,,,,,,,2,,,73,0
673380,control_change,180,0,3,,,,,,,64,0,3,,,,
673392,note_off,12,0,3,,,,,,,,,3,,,69,0
673405,note_off,205,0,1,,,,,,,,,1,,,79,0
673440,note_on,60,0,2,,,,,,,,,2,,,74,59
673440,note_on,35,0,1,,,,,,,,,1,,,83,59
673440,control_change,60,0,4,,,,,,,64,127,4,,,,
673440,control_change,48,0,3,,,,,,,64,127,3,,,,
673440,note_on,0,0,5,,,,,,,,,5,,,62,57
673440,control_change,60,0,5,,,,,,,64,127,5,,,,
673680,note_on,240,0,3,,,,,,,,,3,,,67,57
673920,note_off,240,0,3,,,,,,,,,3,,,67,0
673920,note_on,0,0,3,,,,,,,,,3,,,71,56
674100,control_change,180,0,3,,,,,,,64,0,3,,,,
674100,control_change,660,0,4,,,,,,,64,0,4,,,,
674100,control_change,660,0,5,,,,,,,64,0,5,,,,
674105,note_off,5,0,5,,,,,,,,,5,,,62,0
674112,note_off,12,0,3,,,,,,,,,3,,,71,0
674160,control_change,48,0,3,,,,,,,64,127,3,,,,
674160,note_off,720,0,1,,,,,,,,,1,,,83,0
674160,note_on,0,0,1,,,,,,,,,1,,,81,52
674160,control_change,55,0,5,,,,,,,64,127,5,,,,
674160,note_on,0,0,5,,,,,,,,,5,,,62,56
674160,control_change,60,0,4,,,,,,,64,127,4,,,,
674400,note_on,240,0,3,,,,,,,,,3,,,66,56
674640,set_tempo,2640,1,0,,,,,,394736,,,,,,,
674640,note_off,240,0,3,,,,,,,,,3,,,66,0
674640,note_on,0,0,3,,,,,,,,,3,,,69,55
674760,set_tempo,120,1,0,,,,,,425531,,,,,,,
674800,note_off,640,0,1,,,,,,,,,1,,,81,0
674805,note_off,1365,0,2,,,,,,,,,2,,,74,0
674805,note_off,645,0,5,,,,,,,,,5,,,62,0
674815,note_off,175,0,3,,,,,,,,,3,,,69,0
674820,control_change,660,0,4,,,,,,,64,0,4,,,,
674820,control_change,15,0,5,,,,,,,64,0,5,,,,
674820,control_change,5,0,3,,,,,,,64,0,3,,,,
674820,note_on,20,0,1,,,,,,,,,1,,,74,55
674880,control_change,60,0,4,,,,,,,64,127,4,,,,
674880,control_change,60,0,3,,,,,,,64,127,3,,,,
674880,set_tempo,120,1,0,,,,,,389610,,,,,,,
674880,note_on,0,0,5,,,,,,,,,5,,,55,55
674880,control_change,60,0,5,,,,,,,64,127,5,,,,
674880,note_off,60,0,1,,,,,,,,,1,,,74,0
674880,note_on,0,0,1,,,,,,,,,1,,,83,58
675120,note_on,240,0,3,,,,,,,,,3,,,62,55
675360,note_on,0,0,3,,,,,,,,,3,,,67,54
675360,note_off,240,0,3,,,,,,,,,3,,,62,0
675360,note_off,480,0,1,,,,,,,,,1,,,83,0
675360,note_on,0,0,1,,,,,,,,,1,,,81,54
675540,note_on,0,0,1,,,,,,,,,1,,,81,54
675540,control_change,660,0,4,,,,,,,64,0,4,,,,
675540,note_off,180,0,1,,,,,,,,,1,,,81,0
675540,control_change,660,0,5,,,,,,,64,0,5,,,,
675540,note_off,0,0,5,,,,,,,,,5,,,55,0
675540,control_change,180,0,3,,,,,,,64,0,3,,,,
675552,note_off,12,0,3,,,,,,,,,3,,,67,0
675600,control_change,60,0,5,,,,,,,64,127,5,,,,
675600,note_on,0,0,5,,,,,,,,,5,,,59,54
675600,note_off,60,0,1,,,,,,,,,1,,,81,0
675600,control_change,60,0,4,,,,,,,64,127,4,,,,
675600,note_on,0,0,1,,,,,,,,,1,,,79,54
675600,control_change,48,0,3,,,,,,,64,127,3,,,,
675840,note_on,240,0,3,,,,,,,,,3,,,62,54
675840,note_on,0,0,1,,,,,,,,,1,,,78,54
675840,note_off,240,0,1,,,,,,,,,1,,,79,0
676080,note_off,240,0,3,,,,,,,,,3,,,62,0
676080,note_on,0,0,3,,,,,,,,,3,,,67,53
676080,note_off,240,0,1,,,,,,,,,1,,,78,0
676080,note_on,0,0,1,,,,,,,,,1,,,79,53
676260,control_change,660,0,4,,,,,,,64,0,4,,,,
676260,note_off,0,0,5,,,,,,,,,5,,,59,0
676260,control_change,180,0,3,,,,,,,64,0,3,,,,
676260,control_change,660,0,5,,,,,,,64,0,5,,,,
676272,note_off,12,0,3,,,,,,,,,3,,,67,0
676272,note_off,192,0,1,,,,,,,,,1,,,79,0
676320,note_on,0,0,2,,,,,,,,,2,,,74,53
676320,control_change,60,0,5,,,,,,,64,127,5,,,,
676320,note_on,48,0,1,,,,,,,,,1,,,80,53
676320,note_on,1515,0,2,,,,,,,,,2,,,77,53
676320,note_on,0,0,5,,,,,,,,,5,,,60,53
676320,control_change,60,0,4,,,,,,,64,127,4,,,,
676320,control_change,48,0,3,,,,,,,64,127,3,,,,
676560,note_on,240,0,3,,,,,,,,,3,,,65,52
676800,note_on,0,0,1,,,,,,,,,1,,,83,52
676800,note_off,480,0,1,,,,,,,,,1,,,80,0
676800,note_on,0,0,3,,,,,,,,,3,,,68,52
676800,note_off,240,0,3,,,,,,,,,3,,,65,0
676980,control_change,660,0,5,,,,,,,64,0,5,,,,
676980,note_off,0,0,5,,,,,,,,,5,,,60,0
676980,control_change,180,0,3,,,,,,,64,0,3,,,,
676980,control_change,660,0,4,,,,,,,64,0,4,,,,
676992,note_off,12,0,3,,,,,,,,,3,,,68,0
677040,note_on,0,0,1,,,,,,,,,1,,,81,52
677040,control_change,48,0,3,,,,,,,64,127,3,,,,
677040,note_off,240,0,1,,,,,,,,,1,,,83,0
677040,note_off,0,0,2,,,,,,,,,2,,,77,0
677040,note_on,0,0,2,,,,,,,,,2,,,76,52
677040,control_change,60,0,4,,,,,,,64,127,4,,,,
677040,control_change,60,0,5,,,,,,,64,127,5,,,,
677040,note_on,0,0,5,,,,,,,,,5,,,60,52
677040,note_off,720,0,2,,,,,,,,,2,,,74,0
677280,note_on,240,0,3,,,,,,,,,3,,,64,51
677520,note_off,240,0,3,,,,,,,,,3,,,64,0
677520,note_on,0,0,3,,,,,,,,,3,,,69,51
677640,set_tempo,2760,1,0,,,,,,394736,,,,,,,
677695,note_off,655,0,2,,,,,,,,,2,,,76,0
677700,control_change,660,0,5,,,,,,,64,0,5,,,,
677700,note_off,660,0,1,,,,,,,,,1,,,81,0
677700,control_change,660,0,4,,,,,,,64,0,4,,,,
677700,control_change,180,0,3,,,,,,,64,0,3,,,,
677705,note_off,5,0,5,,,,,,,,,5,,,60,0
677712,note_off,12,0,3,,,,,,,,,3,,,69,0
677760,control_change,48,0,3,,,,,,,64,127,3,,,,
677760,note_on,0,0,5,,,,,,,,,5,,,61,51
677760,control_change,55,0,5,,,,,,,64,127,5,,,,
677760,control_change,60,0,4,,,,,,,64,127,4,,,,
677760,note_on,65,0,2,,,,,,,,,2,,,76,55
677760,set_tempo,120,1,0,,,,,,389610,,,,,,,
677760,note_on,60,0,1,,,,,,,,,1,,,88,55
678000,note_on,240,0,3,,,,,,,,,3,,,67,50
678240,note_off,240,0,3,,,,,,,,,3,,,67,0
678240,note_on,0,0,3,,,,,,,,,3,,,69,50
678420,note_on,660,0,1,,,,,,,,,1,,,81,50
678420,control_change,660,0,5,,,,,,,64,0,5,,,,
678420,control_change,180,0,3,,,,,,,64,0,3,,,,
678420,control_change,660,0,4,,,,,,,64,0,4,,,,
678425,note_off,5,0,3,,,,,,,,,3,,,69,0
678425,note_off,5,0,1,,,,,,,,,1,,,88,0
678480,control_change,60,0,4,,,,,,,64,127,4,,,,
678480,note_on,0,0,2,,,,,,,,,2,,,73,50
678480,note_off,720,0,2,,,,,,,,,2,,,76,0
678480,note_off,55,0,1,,,,,,,,,1,,,81,0
678480,note_on,0,0,5,,,,,,,,,5,,,64,50
678480,control_change,60,0,5,,,,,,,64,127,5,,,,
678480,control_change,55,0,3,,,,,,,64,127,3,,,,
678480,note_on,0,0,1,,,,,,,,,1,,,79,50
678485,note_off,5,0,5,,,,,,,,,5,,,61,0
678720,note_on,0,0,1,,,,,,,,,1,,,78,49
678720,note_on,240,0,3,,,,,,,,,3,,,67,49
678720,note_off,240,0,1,,,,,,,,,1,,,79,0
678960,note_off,240,0,1,,,,,,,,,1,,,78,0
678960,note_on,0,0,3,,,,,,,,,3,,,69,49
678960,note_on,0,0,1,,,,,,,,,1,,,79,49
678960,note_off,240,0,3,,,,,,,,,3,,,67,0
679140,note_off,660,0,2,,,,,,,,,2,,,73,0
679140,control_change,180,0,3,,,,,,,64,0,3,,,,
679140,note_off,0,0,5,,,,,,,,,5,,,64,0
679140,control_change,655,0,5,,,,,,,64,0,5,,,,
679140,control_change,660,0,4,,,,,,,64,0,4,,,,
679152,note_off,12,0,3,,,,,,,,,3,,,69,0
679165,note_off,205,0,1,,,,,,,,,1,,,79,0
679200,note_on,35,0,1,,,,,,,,,1,,,88,52
679200,note_on,60,0,2,,,,,,,,,2,,,76,52
679200,control_change,48,0,3,,,,,,,64,127,3,,,,
679200,control_change,60,0,4,,,,,,,64,127,4,,,,
679200,note_on,0,0,5,,,,,,,,,5,,,61,49
679200,control_change,60,0,5,,,,,,,64,127,5,,,,
679440,note_on,240,0,3,,,,,,,,,3,,,67,48
679680,note_off,240,0,3,,,,,,,,,3,,,67,0
679680,note_on,0,0,3,,,,,,,,,3,,,69,48
679860,control_change,660,0,5,,,,,,,64,0,5,,,,
679860,note_on,660,0,1,,,,,,,,,1,,,81,48
679860,control_change,180,0,3,,,,,,,64,0,3,,,,
679860,control_change,660,0,4,,,,,,,64,0,4,,,,
679865,note_off,5,0,3,,,,,,,,,3,,,69,0
679865,note_off,5,0,1,,,,,,,,,1,,,88,0
679920,note_on,0,0,5,,,,,,,,,5,,,64,48
679920,note_off,55,0,1,,,,,,,,,1,,,81,0
679920,note_off,720,0,2,,,,,,,,,2,,,76,0
679920,control_change,55,0,3,,,,,,,64,127,3,,,,
679920,control_change,60,0,5,,,,,,,64,127,5,,,,
679920,note_on,0,0,2,,,,,,,,,2,,,73,48
679920,note_on,0,0,1,,,,,,,,,1,,,79,48
679920,control_change,60,0,4,,,,,,,64,127,4,,,,
679925,note_off,5,0,5,,,,,,,,,5,,,61,0
680160,note_on,240,0,3,,,,,,,,,3,,,67,47
680160,note_on,0,0,1,,,,,,,,,1,,,78,47
680160,note_off,240,0,1,,,,,,,,,1,,,79,0
680400,note_off,240,0,3,,,,,,,,,3,,,67,0
680400,note_off,240,0,1,,,,,,,,,1,,,78,0
680400,note_on,0,0,3,,,,,,,,,3,,,69,47
680400,note_on,0,0,1,,,,,,,,,1,,,79,47
680580,control_change,180,0,3,,,,,,,64,0,3,,,,
680580,control_change,660,0,4,,,,,,,64,0,4,,,,
680580,note_off,0,0,5,,,,,,,,,5,,,64,0
680580,control_change,655,0,5,,,,,,,64,0,5,,,,
680580,note_off,660,0,2,,,,,,,,,2,,,73,0
680592,note_off,12,0,3,,,,,,,,,3,,,69,0
680605,note_off,205,0,1,,,,,,,,,1,,,79,0
680640,note_on,35,0,1,,,,,,,,,1,,,88,50
680640,control_change,60,0,4,,,,,,,64,127,4,,,,
680640,control_change,48,0,3,,,,,,,64,127,3,,,,
680640,note_on,60,0,2,,,,,,,,,2,,,76,50
680640,control_change,60,0,5,,,,,,,64,127,5,,,,
680640,note_on,0,0,5,,,,,,,,,5,,,61,47
680880,note_on,240,0,3,,,,,,,,,3,,,67,46
681120,note_on,0,0,3,,,,,,,,,3,,,69,46
681120,note_off,240,0,3,,,,,,,,,3,,,67,0
681300,control_change,660,0,5,,,,,,,64,0,5,,,,
681300,note_on,660,0,1,,,,,,,,,1,,,81,46
681300,control_change,180,0,3,,,,,,,64,0,3,,,,
681300,control_change,660,0,4,,,,,,,64,0,4,,,,
681305,note_off,5,0,1,,,,,,,,,1,,,88,0
681305,note_off,5,0,3,,,,,,,,,3,,,69,0
681360,control_change,55,0,3,,,,,,,64,127,3,,,,
681360,note_off,55,0,1,,,,,,,,,1,,,81,0
681360,note_on,0,0,1,,,,,,,,,1,,,79,45
681360,control_change,60,0,4,,,,,,,64,127,4,,,,
681360,note_on,0,0,5,,,,,,,,,5,,,64,45
681360,control_change,60,0,5,,,,,,,64,127,5,,,,
681360,note_off,720,0,2,,,,,,,,,2,,,76,0
681360,note_on,0,0,2,,,,,,,,,2,,,73,45
681365,note_off,5,0,5,,,,,,,,,5,,,61,0
681600,note_on,0,0,1,,,,,,,,,1,,,78,45
681600,note_off,240,0,1,,,,,,,,,1,,,79,0
681600,note_on,240,0,3,,,,,,,,,3,,,67,45
681840,note_on,0,0,1,,,,,,,,,1,,,79,45
681840,note_off,240,0,1,,,,,,,,,1,,,78,0
681840,note_on,0,0,3,,,,,,,,,3,,,69,45
681840,note_off,240,0,3,,,,,,,,,3,,,67,0
682020,control_change,180,0,3,,,,,,,64,0,3,,,,
682020,note_off,0,0,5,,,,,,,,,5,,,64,0
682020,control_change,655,0,5,,,,,,,64,0,5,,,,
682020,note_off,660,0,2,,,,,,,,,2,,,73,0
682020,control_change,660,0,4,,,,,,,64,0,4,,,,
682032,note_off,12,0,3,,,,,,,,,3,,,69,0
682045,note_off,205,0,1,,,,,,,,,1,,,79,0
682080,control_change,60,0,4,,,,,,,64,127,4,,,,
682080,note_on,0,0,5,,,,,,,,,5,,,61,44
682080,control_change,60,0,5,,,,,,,64,127,5,,,,
682080,control_change,48,0,3,,,,,,,64,127,3,,,,
682080,note_on,35,0,1,,,,,,,,,1,,,88,47
682080,note_on,60,0,2,,,,,,,,,2,,,76,47
682320,note_on,240,0,3,,,,,,,,,3,,,67,44
682560,note_on,0,0,3,,,,,,,,,3,,,69,44
682560,note_off,240,0,3,,,,,,,,,3,,,67,0
682740,control_change,660,0,4,,,,,,,64,0,4,,,,
682740,note_on,660,0,1,,,,,,,,,1,,,81,43
682740,control_change,660,0,5,,,,,,,64,0,5,,,,
682740,control_change,180,0,3,,,,,,,64,0,3,,,,
682745,note_off,5,0,3,,,,,,,,,3,,,69,0
682745,note_off,5,0,1,,,,,,,,,1,,,88,0
682800,note_on,0,0,1,,,,,,,,,1,,,79,43
682800,note_off,55,0,1,,,,,,,,,1,,,81,0
682800,control_change,60,0,4,,,,,,,64,127,4,,,,
682800,note_off,720,0,2,,,,,,,,,2,,,76,0
682800,note_on,0,0,2,,,,,,,,,2,,,73,43
682800,control_change,60,0,5,,,,,,,64,127,5,,,,
682800,note_on,0,0,5,,,,,,,,,5,,,64,43
682800,control_change,55,0,3,,,,,,,64,127,3,,,,
682805,note_off,5,0,5,,,,,,,,,5,,,61,0
683040,note_on,240,0,3,,,,,,,,,3,,,67,43
683040,note_on,0,0,1,,,,,,,,,1,,,78,43
683040,note_off,240,0,1,,,,,,,,,1,,,79,0
683280,note_on,0,0,1,,,,,,,,,1,,,79,43
683280,note_off,240,0,3,,,,,,,,,3,,,67,0
683280,note_on,0,0,3,,,,,,,,,3,,,69,43
683280,note_off,240,0,1,,,,,,,,,1,,,78,0
683400,set_tempo,5640,1,0,,,,,,394736,,,,,,,
683460,control_change,180,0,3,,,,,,,64,0,3,,,,
683460,control_change,655,0,5,,,,,,,64,0,5,,,,
683460,control_change,660,0,4,,,,,,,64,0,4,,,,
683460,note_off,660,0,2,,,,,,,,,2,,,73,0
683460,note_off,0,0,5,,,,,,,,,5,,,64,0
683472,note_off,12,0,3,,,,,,,,,3,,,69,0
683485,note_off,205,0,1,,,,,,,,,1,,,79,0
683520,note_on,35,0,1,,,,,,,,,1,,,89,46
683520,set_tempo,120,1,0,,,,,,389610,,,,,,,
683520,control_change,60,0,4,,,,,,,64,127,4,,,,
683520,note_on,0,0,5,,,,,,,,,5,,,62,42
683520,note_on,60,0,2,,,,,,,,,2,,,77,46
683520,control_change,48,0,3,,,,,,,64,127,3,,,,
683520,control_change,60,0,5,,,,,,,64,127,5,,,,
683760,note_on,240,0,3,,,,,,,,,3,,,69,42
684000,note_off,240,0,3,,,,,,,,,3,,,69,0
684000,note_on,0,0,3,,,,,,,,,3,,,70,42
684180,control_change,180,0,3,,,,,,,64,0,3,,,,
684180,control_change,660,0,5,,,,,,,64,0,5,,,,
684180,note_on,660,0,1,,,,,,,,,1,,,84,41
684180,control_change,660,0,4,,,,,,,64,0,4,,,,
684185,note_off,5,0,3,,,,,,,,,3,,,70,0
684185,note_off,5,0,1,,,,,,,,,1,,,89,0
684240,note_off,55,0,1,,,,,,,,,1,,,84,0
684240,note_on,0,0,1,,,,,,,,,1,,,82,41
684240,control_change,60,0,4,,,,,,,64,127,4,,,,
684240,control_change,60,0,5,,,,,,,64,127,5,,,,
684240,note_on,0,0,5,,,,,,,,,5,,,65,41
684240,note_on,720,0,2,,,,,,,,,2,,,74,41
684240,control_change,55,0,3,,,,,,,64,127,3,,,,
684245,note_off,5,0,5,,,,,,,,,5,,,62,0
684245,note_off,5,0,2,,,,,,,,,2,,,77,0
684480,note_on,240,0,3,,,,,,,,,3,,,72,41
684480,note_off,240,0,1,,,,,,,,,1,,,82,0
684480,note_on,0,0,1,,,,,,,,,1,,,81,41
684720,note_off,240,0,1,,,,,,,,,1,,,81,0
684720,note_on,0,0,1,,,,,,,,,1,,,82,41
684720,note_off,240,0,3,,,,,,,,,3,,,72,0
684720,note_on,0,0,3,,,,,,,,,3,,,70,41
684900,control_change,655,0,5,,,,,,,64,0,5,,,,
684900,note_off,0,0,5,,,,,,,,,5,,,65,0
684900,control_change,180,0,3,,,,,,,64,0,3,,,,
684900,note_off,655,0,2,,,,,,,,,2,,,74,0
684900,control_change,660,0,4,,,,,,,64,0,4,,,,
684912,note_off,12,0,3,,,,,,,,,3,,,70,0
684925,note_off,205,0,1,,,,,,,,,1,,,82,0
684960,control_change,48,0,3,,,,,,,64,127,3,,,,
684960,note_on,35,0,1,,,,,,,,,1,,,89,44
684960,note_on,0,0,5,,,,,,,,,5,,,62,40
684960,note_on,60,0,2,,,,,,,,,2,,,77,44
684960,control_change,60,0,5,,,,,,,64,127,5,,,,
684960,control_change,60,0,4,,,,,,,64,127,4,,,,
685200,note_on,240,0,3,,,,,,,,,3,,,69,40
685440,note_off,240,0,3,,,,,,,,,3,,,69,0
685440,note_on,0,0,3,,,,,,,,,3,,,70,39
685620,control_change,660,0,5,,,,,,,64,0,5,,,,
685620,control_change,180,0,3,,,,,,,64,0,3,,,,
685620,control_change,660,0,4,,,,,,,64,0,4,,,,
685620,note_on,660,0,1,,,,,,,,,1,,,84,39
685625,note_off,5,0,3,,,,,,,,,3,,,70,0
685625,note_off,5,0,1,,,,,,,,,1,,,89,0
685680,control_change,55,0,3,,,,,,,64,127,3,,,,
685680,control_change,60,0,5,,,,,,,64,127,5,,,,
685680,control_change,60,0,4,,,,,,,64,127,4,,,,
685680,note_off,55,0,1,,,,,,,,,1,,,84,0
685680,note_on,0,0,1,,,,,,,,,1,,,82,39
685680,note_on,0,0,5,,,,,,,,,5,,,65,39
685680,note_on,720,0,2,,,,,,,,,2,,,74,39
685685,note_off,5,0,2,,,,,,,,,2,,,77,0
685685,note_off,5,0,5,,,,,,,,,5,,,62,0
685920,note_on,0,0,1,,,,,,,,,1,,,81,39
685920,note_on,240,0,3,,,,,,,,,3,,,72,39
685920,note_off,240,0,1,,,,,,,,,1,,,82,0
686160,note_off,240,0,1,,,,,,,,,1,,,81,0
686160,note_on,0,0,3,,,,,,,,,3,,,70,38
686160,note_off,240,0,3,,,,,,,,,3,,,72,0
686160,note_on,0,0,1,,,,,,,,,1,,,82,38
686280,set_tempo,2760,1,0,,,,,,394736,,,,,,,
686340,note_off,0,0,5,,,,,,,,,5,,,65,0
686340,control_change,180,0,3,,,,,,,64,0,3,,,,
686340,control_change,660,0,4,,,,,,,64,0,4,,,,
686340,control_change,655,0,5,,,,,,,64,0,5,,,,
686340,note_off,655,0,2,,,,,,,,,2,,,74,0
686352,note_off,12,0,3,,,,,,,,,3,,,70,0
686365,note_off,205,0,1,,,,,,,,,1,,,82,0
686400,control_change,48,0,3,,,,,,,64,127,3,,,,
686400,note_on,60,0,2,,,,,,,,,2,,,77,42
686400,set_tempo,120,1,0,,,,,,389610,,,,,,,
686400,control_change,60,0,4,,,,,,,64,127,4,,,,
686400,note_on,0,0,5,,,,,,,,,5,,,63,38
686400,control_change,60,0,5,,,,,,,64,127,5,,,,
686400,note_on,35,0,1,,,,,,,,,1,,,89,42
686640,note_on,240,0,3,,,,,,,,,3,,,70,38
686880,note_off,240,0,3,,,,,,,,,3,,,70,0
686880,note_on,0,0,3,,,,,,,,,3,,,69,37
687060,control_change,660,0,4,,,,,,,64,0,4,,,,
687060,control_change,180,0,3,,,,,,,64,0,3,,,,
687060,note_on,660,0,1,,,,,,,,,1,,,86,37
687060,control_change,660,0,5,,,,,,,64,0,5,,,,
687065,note_off,5,0,1,,,,,,,,,1,,,89,0
687065,note_off,5,0,3,,,,,,,,,3,,,69,0
687120,control_change,60,0,4,,,,,,,64,127,4,,,,
687120,control_change,60,0,5,,,,,,,64,127,5,,,,
687120,note_on,0,0,5,,,,,,,,,5,,,65,37
687120,note_off,55,0,1,,,,,,,,,1,,,86,0
687120,note_on,0,0,1,,,,,,,,,1,,,84,37
687120,control_change,55,0,3,,,,,,,64,127,3,,,,
687120,note_on,720,0,2,,,,,,,,,2,,,75,37
687125,note_off,5,0,2,,,,,,,,,2,,,77,0
687125,note_off,5,0,5,,,,,,,,,5,,,63,0
687360,note_on,0,0,1,,,,,,,,,1,,,83,37
687360,note_on,240,0,3,,,,,,,,,3,,,68,37
687360,note_off,240,0,1,,,,,,,,,1,,,84,0
687600,note_off,240,0,3,,,,,,,,,3,,,68,0
687600,note_on,0,0,1,,,,,,,,,1,,,84,36
687600,note_on,0,0,3,,,,,,,,,3,,,69,36
687600,note_off,240,0,1,,,,,,,,,1,,,83,0
687780,note_off,0,0,5,,,,,,,,,5,,,65,0
687780,control_change,655,0,5,,,,,,,64,0,5,,,,
687780,note_off,655,0,2,,,,,,,,,2,,,75,0
687780,control_change,660,0,4,,,,,,,64,0,4,,,,
687780,control_change,180,0,3,,,,,,,64,0,3,,,,
687792,note_off,12,0,3,,,,,,,,,3,,,69,0
687805,note_off,205,0,1,,,,,,,,,1,,,84,0
687840,control_change,48,0,3,,,,,,,64,127,3,,,,
687840,control_change,60,0,4,,,,,,,64,127,4,,,,
687840,note_on,35,0,1,,,,,,,,,1,,,89,40
687840,control_change,60,0,5,,,,,,,64,127,5,,,,
687840,note_on,0,0,5,,,,,,,,,5,,,63,36
687840,note_on,60,0,2,,,,,,,,,2,,,77,40
688080,note_on,240,0,3,,,,,,,,,3,,,70,36
688320,note_off,240,0,3,,,,,,,,,3,,,70,0
688320,note_on,0,0,3,,,,,,,,,3,,,69,35
688500,note_on,660,0,1,,,,,,,,,1,,,86,35
688500,control_change,660,0,5,,,,,,,64,0,5,,,,
688500,control_change,180,0,3,,,,,,,64,0,3,,,,
688500,control_change,660,0,4,,,,,,,64,0,4,,,,
688505,note_off,5,0,3,,,,,,,,,3,,,69,0
688505,note_off,5,0,1,,,,,,,,,1,,,89,0
688560,control_change,60,0,5,,,,,,,64,127,5,,,,
688560,note_on,0,0,1,,,,,,,,,1,,,84,35
688560,control_change,0,0,3,,,,,,,64,127,3,,,,
688560,control_change,55,0,3,,,,,,,64,127,3,,,,
688560,note_off,55,0,1,,,,,,,,,1,,,86,0
688560,control_change,0,0,4,,,,,,,64,127,4,,,,
688560,note_on,720,0,2,,,,,,,,,2,,,75,35
688560,control_change,60,0,4,,,,,,,64,127,4,,,,
688560,note_on,0,0,5,,,,,,,,,5,,,65,35
688565,note_off,5,0,5,,,,,,,,,5,,,63,0
688565,note_off,5,0,2,,,,,,,,,2,,,77,0
688800,note_off,240,0,1,,,,,,,,,1,,,84,0
688800,note_on,240,0,3,,,,,,,,,3,,,68,35
688800,note_on,0,0,1,,,,,,,,,1,,,83,35
689040,note_off,240,0,3,,,,,,,,,3,,,68,0
689040,note_off,240,0,1,,,,,,,,,1,,,83,0
689040,note_on,0,0,1,,,,,,,,,1,,,84,34
689040,note_on,0,0,3,,,,,,,,,3,,,69,34
689160,set_tempo,2760,1,0,,,,,,394736,,,,,,,
689220,control_change,0,0,3,,,,,,,64,0,3,,,,
689220,control_change,0,0,4,,,,,,,64,0,4,,,,
689220,control_change,180,0,3,,,,,,,64,0,3,,,,
689220,control_change,660,0,4,,,,,,,64,0,4,,,,
689220,note_off,0,0,5,,,,,,,,,5,,,65,0
689220,control_change,655,0,5,,,,,,,64,0,5,,,,
689220,note_off,655,0,2,,,,,,,,,2,,,75,0
689232,note_off,12,0,3,,,,,,,,,3,,,69,0
689245,note_off,205,0,1,,,,,,,,,1,,,84,0
689280,control_change,60,0,4,,,,,,,64,127,4,,,,
689280,note_on,35,0,1,,,,,,,,,1,,,89,38
689280,control_change,48,0,3,,,,,,,64,127,3,,,,
689280,note_on,60,0,2,,,,,,,,,2,,,77,38
689280,control_change,60,0,5,,,,,,,64,127,5,,,,
689280,note_on,0,0,5,,,,,,,,,5,,,62,34
689280,set_tempo,120,1,0,,,,,,389610,,,,,,,
689520,note_on,240,0,3,,,,,,,,,3,,,69,34
689760,note_off,240,0,3,,,,,,,,,3,,,69,0
689760,note_on,0,0,3,,,,,,,,,3,,,70,33
689940,control_change,660,0,5,,,,,,,64,0,5,,,,
689940,control_change,180,0,3,,,,,,,64,0,3,,,,
689940,note_on,660,0,1,,,,,,,,,1,,,84,33
689940,control_change,660,0,4,,,,,,,64,0,4,,,,
689945,note_off,5,0,1,,,,,,,,,1,,,89,0
689945,note_off,5,0,3,,,,,,,,,3,,,70,0
690000,control_change,60,0,5,,,,,,,64,127,5,,,,
690000,control_change,60,0,4,,,,,,,64,127,4,,,,
690000,note_on,0,0,5,,,,,,,,,5,,,65,33
690000,note_on,0,0,1,,,,,,,,,1,,,82,33
690000,note_off,55,0,1,,,,,,,,,1,,,84,0
690000,control_change,55,0,3,,,,,,,64,127,3,,,,
690000,note_on,720,0,2,,,,,,,,,2,,,74,33
690005,note_off,5,0,2,,,,,,,,,2,,,77,0
690005,note_off,5,0,5,,,,,,,,,5,,,62,0
690240,note_on,240,0,3,,,,,,,,,3,,,72,32
690240,note_on,0,0,1,,,,,,,,,1,,,81,32
690240,note_off,240,0,1,,,,,,,,,1,,,82,0
690480,note_on,0,0,1,,,,,,,,,1,,,82,32
690480,note_off,240,0,1,,,,,,,,,1,,,81,0
690480,note_off,240,0,3,,,,,,,,,3,,,72,0
690480,note_on,0,0,3,,,,,,,,,3,,,70,32
690660,control_change,180,0,3,,,,,,,64,0,3,,,,
690660,control_change,655,0,5,,,,,,,64,0,5,,,,
690660,note_off,0,0,5,,,,,,,,,5,,,65,0
690660,note_off,655,0,2,,,,,,,,,2,,,74,0
690660,control_change,660,0,4,,,,,,,64,0,4,,,,
690672,note_off,12,0,3,,,,,,,,,3,,,70,0
690685,note_off,205,0,1,,,,,,,,,1,,,82,0
690720,control_change,60,0,4,,,,,,,64,127,4,,,,
690720,note_on,0,0,5,,,,,,,,,5,,,62,32
690720,note_on,35,0,1,,,,,,,,,1,,,89,37
690720,control_change,60,0,5,,,,,,,64,127,5,,,,
690720,note_on,60,0,2,,,,,,,,,2,,,77,37
690720,control_change,48,0,3,,,,,,,64,127,3,,,,
690960,note_on,240,0,3,,,,,,,,,3,,,69,31
691200,note_off,240,0,3,,,,,,,,,3,,,69,0
691200,note_on,0,0,3,,,,,,,,,3,,,70,31
691380,note_on,660,0,1,,,,,,,,,1,,,84,31
691380,control_change,660,0,4,,,,,,,64,0,4,,,,
691380,control_change,180,0,3,,,,,,,64,0,3,,,,
691380,control_change,660,0,5,,,,,,,64,0,5,,,,
691385,note_off,5,0,1,,,,,,,,,1,,,89,0
691385,note_off,5,0,3,,,,,,,,,3,,,70,0
691440,control_change,60,0,4,,,,,,,64,127,4,,,,
691440,control_change,60,0,5,,,,,,,64,127,5,,,,
691440,note_on,720,0,2,,,,,,,,,2,,,74,31
691440,note_on,0,0,5,,,,,,,,,5,,,65,31
691440,note_off,55,0,1,,,,,,,,,1,,,84,0
691440,note_on,0,0,1,,,,,,,,,1,,,82,31
691440,control_change,55,0,3,,,,,,,64,127,3,,,,
691445,note_off,5,0,2,,,,,,,,,2,,,77,0
691445,note_off,5,0,5,,,,,,,,,5,,,62,0
691680,note_on,240,0,3,,,,,,,,,3,,,72,30
691680,note_off,240,0,1,,,,,,,,,1,,,82,0
691680,note_on,0,0,1,,,,,,,,,1,,,81,30
691920,note_on,0,0,3,,,,,,,,,3,,,70,30
691920,note_on,0,0,1,,,,,,,,,1,,,82,30
691920,note_off,240,0,1,,,,,,,,,1,,,81,0
691920,note_off,240,0,3,,,,,,,,,3,,,72,0
692040,set_tempo,2760,1,0,,,,,,394736,,,,,,,
692100,note_off,655,0,2,,,,,,,,,2,,,74,0
692100,control_change,180,0,3,,,,,,,64,0,3,,,,
692100,control_change,655,0,5,,,,,,,64,0,5,,,,
692100,note_off,0,0,5,,,,,,,,,5,,,65,0
692100,control_change,660,0,4,,,,,,,64,0,4,,,,
692112,note_off,12,0,3,,,,,,,,,3,,,70,0
692125,note_off,205,0,1,,,,,,,,,1,,,82,0
692160,control_change,60,0,5,,,,,,,64,127,5,,,,
692160,note_on,0,0,5,,,,,,,,,5,,,63,30
692160,note_on,60,0,2,,,,,,,,,2,,,77,35
692160,control_change,60,0,4,,,,,,,64,127,4,,,,
692160,set_tempo,120,1,0,,,,,,389610,,,,,,,
692160,note_on,35,0,1,,,,,,,,,1,,,89,35
692160,control_change,48,0,3,,,,,,,64,127,3,,,,
692400,note_on,240,0,3,,,,,,,,,3,,,70,29
692640,note_off,240,0,3,,,,,,,,,3,,,70,0
692640,note_on,0,0,3,,,,,,,,,3,,,69,29
692820,control_change,660,0,4,,,,,,,64,0,4,,,,
692820,control_change,180,0,3,,,,,,,64,0,3,,,,
692820,control_change,660,0,5,,,,,,,64,0,5,,,,
692820,note_on,660,0,1,,,,,,,,,1,,,86,29
692825,note_off,5,0,3,,,,,,,,,3,,,69,0
692825,note_off,5,0,1,,,,,,,,,1,,,89,0
692880,control_change,60,0,5,,,,,,,64,127,5,,,,
692880,note_off,55,0,1,,,,,,,,,1,,,86,0
692880,control_change,60,0,4,,,,,,,64,127,4,,,,
692880,note_on,0,0,5,,,,,,,,,5,,,65,29
692880,control_change,55,0,3,,,,,,,64,127,3,,,,
692880,note_on,720,0,2,,,,,,,,,2,,,75,29
692880,note_on,0,0,1,,,,,,,,,1,,,84,29
692885,note_off,5,0,2,,,,,,,,,2,,,77,0
692885,note_off,5,0,5,,,,,,,,,5,,,63,0
693120,note_on,240,0,3,,,,,,,,,3,,,68,28
693120,note_on,0,0,1,,,,,,,,,1,,,83,28
693120,note_off,240,0,1,,,,,,,,,1,,,84,0
693360,note_on,0,0,1,,,,,,,,,1,,,84,28
693360,note_off,240,0,1,,,,,,,,,1,,,83,0
693360,note_off,240,0,3,,,,,,,,,3,,,68,0
693360,note_on,0,0,3,,,,,,,,,3,,,69,28
693480,set_tempo,1320,1,0,,,,,,394736,,,,,,,
693540,control_change,660,0,4,,,,,,,64,0,4,,,,
693540,control_change,180,0,3,,,,,,,64,0,3,,,,
693540,note_off,0,0,5,,,,,,,,,5,,,65,0
693540,control_change,655,0,5,,,,,,,64,0,5,,,,
693540,note_off,655,0,2,,,,,,,,,2,,,75,0
693552,note_off,12,0,3,,,,,,,,,3,,,69,0
693565,note_off,205,0,1,,,,,,,,,1,,,84,0
693600,control_change,60,0,4,,,,,,,64,127,4,,,,
693600,control_change,48,0,3,,,,,,,64,127,3,,,,
693600,note_on,60,0,2,,,,,,,,,2,,,77,32
693600,note_on,35,0,1,,,,,,,,,1,,,89,32
693600,control_change,60,0,5,,,,,,,64,127,5,,,,
693600,note_on,0,0,5,,,,,,,,,5,,,63,28
693840,note_on,240,0,3,,,,,,,,,3,,,70,27
694080,note_on,0,0,3,,,,,,,,,3,,,69,27
694080,note_off,240,0,3,,,,,,,,,3,,,70,0
694260,control_change,660,0,4,,,,,,,64,0,4,,,,
694260,note_on,660,0,1,,,,,,,,,1,,,86,27
694260,control_change,660,0,5,,,,,,,64,0,5,,,,
694260,control_change,180,0,3,,,,,,,64,0,3,,,,
694265,note_off,5,0,1,,,,,,,,,1,,,89,0
694265,note_off,5,0,3,,,,,,,,,3,,,69,0
694320,note_off,55,0,1,,,,,,,,,1,,,86,0
694320,note_on,0,0,1,,,,,,,,,1,,,84,27
694320,note_on,0,0,5,,,,,,,,,5,,,65,27
694320,control_change,60,0,5,,,,,,,64,127,5,,,,
694320,note_on,720,0,2,,,,,,,,,2,,,75,27
694325,note_off,5,0,5,,,,,,,,,5,,,63,0
694325,note_off,5,0,2,,,,,,,,,2,,,77,0
694560,note_off,240,0,1,,,,,,,,,1,,,84,0
694560,note_on,0,0,1,,,,,,,,,1,,,83,26
694560,note_on,295,0,3,,,,,,,,,3,,,68,26
694680,set_tempo,1200,1,0,,,,,,400000,,,,,,,
694800,set_tempo,120,1,0,,,,,,408163,,,,,,,
694800,note_off,240,0,3,,,,,,,,,3,,,68,0
694800,note_on,0,0,3,,,,,,,,,3,,,69,26
694800,note_on,0,0,1,,,,,,,,,1,,,84,26
694800,note_off,240,0,1,,,,,,,,,1,,,83,0
694920,set_tempo,120,1,0,,,,,,600000,,,,,,,
694980,control_change,655,0,5,,,,,,,64,0,5,,,,
694980,note_off,0,0,5,,,,,,,,,5,,,65,0
694980,note_off,655,0,2,,,,,,,,,2,,,75,0
694992,note_off,192,0,3,,,,,,,,,3,,,69,0
695005,note_off,205,0,1,,,,,,,,,1,,,84,0
695040,note_on,0,0,3,,,,,,,,,3,,,73,64
695040,note_on,0,0,5,,,,,,,,,5,,,64,64
695040,control_change,0,0,3,,,,,,,64,127,3,,,,
695040,control_change,0,0,3,,,,,,,64,0,3,,,,
695040,control_change,48,0,3,,,,,,,64,0,3,,,,
695040,control_change,0,0,4,,,,,,,64,0,4,,,,
695040,control_change,0,0,4,,,,,,,64,127,4,,,,
695040,control_change,60,0,5,,,,,,,64,127,5,,,,
695040,control_change,780,0,4,,,,,,,64,0,4,,,,
695040,control_change,0,0,1,,,,,,,64,127,1,,,,
695040,control_change,35,0,1,,,,,,,64,0,1,,,,
695040,note_on,0,0,2,,,,,,,,,2,,,81,64
695040,note_on,0,0,2,,,,,,,,,2,,,76,64
695040,control_change,0,0,2,,,,,,,64,127,2,,,,
695040,note_on,0,0,3,,,,,,,,,3,,,69,64
695040,set_tempo,120,1,0,,,,,,389610,,,,,,,
695040,control_change,60,0,2,,,,,,,64,0,2,,,,
695040,note_on,0,0,1,,,,,,,,,1,,,85,64
695232,note_off,192,0,3,,,,,,,,,3,,,69,0
695232,note_off,0,0,3,,,,,,,,,3,,,73,0
695280,note_on,48,0,3,,,,,,,,,3,,,73,44
695280,note_on,0,0,3,,,,,,,,,3,,,69,44
695472,note_off,192,0,3,,,,,,,,,3,,,69,0
695472,note_off,0,0,3,,,,,,,,,3,,,73,0
695520,note_on,48,0,3,,,,,,,,,3,,,73,35
695520,note_on,0,0,3,,,,,,,,,3,,,69,35
695712,note_off,192,0,3,,,,,,,,,3,,,69,0
695712,note_off,0,0,3,,,,,,,,,3,,,73,0
695760,note_on,0,0,3,,,,,,,,,3,,,69,33
695760,note_on,48,0,3,,,,,,,,,3,,,73,33
695930,note_off,890,0,1,,,,,,,,,1,,,85,0
695935,note_off,895,0,2,,,,,,,,,2,,,81,0
695940,note_off,5,0,2,,,,,,,,,2,,,76,0
695952,note_off,192,0,3,,,,,,,,,3,,,69,0
695952,note_off,0,0,3,,,,,,,,,3,,,73,0
696000,control_change,960,0,5,,,,,,,64,0,5,,,,
696000,note_on,0,0,3,,,,,,,,,3,,,69,33
696000,control_change,60,0,2,,,,,,,64,0,2,,,,
696000,control_change,70,0,1,,,,,,,64,0,1,,,,
696000,note_on,0,0,3,,,,,,,,,3,,,73,33
696000,note_on,0,0,1,,,,,,,,,1,,,86,33
696000,control_change,960,0,4,,,,,,,64,0,4,,,,
696000,control_change,48,0,3,,,,,,,64,0,3,,,,
696120,note_on,0,0,1,,,,,,,,,1,,,85,33
696120,note_off,120,0,1,,,,,,,,,1,,,86,0
696192,note_off,192,0,3,,,,,,,,,3,,,69,0
696192,note_off,0,0,3,,,,,,,,,3,,,73,0
696240,note_on,0,0,1,,,,,,,,,1,,,83,34
696240,note_on,0,0,3,,,,,,,,,3,,,69,34
696240,note_on,48,0,3,,,,,,,,,3,,,73,34
696240,note_off,120,0,1,,,,,,,,,1,,,85,0
696360,note_on,0,0,1,,,,,,,,,1,,,81,34
696360,note_off,120,0,1,,,,,,,,,1,,,83,0
696420,note_off,420,0,5,,,,,,,,,5,,,64,0
696432,note_off,0,0,3,,,,,,,,,3,,,73,0
696432,note_off,192,0,3,,,,,,,,,3,,,69,0
696456,note_off,96,0,1,,,,,,,,,1,,,81,0
696480,note_on,0,0,3,,,,,,,,,3,,,71,34
696480,control_change,24,0,1,,,,,,,64,127,1,,,,
696480,control_change,480,0,2,,,,,,,64,127,2,,,,
696480,control_change,60,0,5,,,,,,,64,127,5,,,,
696480,note_on,0,0,5,,,,,,,,,5,,,64,34
696480,note_on,0,0,1,,,,,,,,,1,,,80,34
696480,note_on,0,0,3,,,,,,,,,3,,,74,34
696480,control_change,480,0,4,,,,,,,64,127,4,,,,
696480,control_change,48,0,3,,,,,,,64,127,3,,,,
696672,note_off,192,0,3,,,,,,,,,3,,,74,0
696672,note_off,0,0,3,,,,,,,,,3,,,71,0
696720,note_on,48,0,3,,,,,,,,,3,,,71,35
696720,note_on,0,0,3,,,,,,,,,3,,,74,35
696720,note_on,240,0,1,,,,,,,,,1,,,87,35
696912,note_off,192,0,3,,,,,,,,,3,,,74,0
696912,note_off,0,0,3,,,,,,,,,3,,,71,0
696960,control_change,480,0,4,,,,,,,64,0,4,,,,
696960,note_on,0,0,1,,,,,,,,,1,,,88,36
696960,control_change,240,0,1,,,,,,,64,0,1,,,,
696960,control_change,480,0,2,,,,,,,64,0,2,,,,
696960,note_on,0,0,3,,,,,,,,,3,,,71,36
696960,note_on,0,0,3,,,,,,,,,3,,,74,36
696960,control_change,480,0,5,,,,,,,64,0,5,,,,
696960,control_change,48,0,3,,,,,,,64,0,3,,,,
696960,note_off,0,0,1,,,,,,,,,1,,,87,0
697152,note_off,192,0,1,,,,,,,,,1,,,88,0
697152,note_off,192,0,3,,,,,,,,,3,,,74,0
697152,note_off,0,0,3,,,,,,,,,3,,,71,0
697200,control_change,48,0,1,,,,,,,64,127,1,,,,
697200,note_on,0,0,1,,,,,,,,,1,,,88,37
697200,control_change,240,0,4,,,,,,,64,127,4,,,,
697200,control_change,240,0,2,,,,,,,64,127,2,,,,
697200,control_change,48,0,3,,,,,,,64,127,3,,,,
697200,note_on,0,0,3,,,,,,,,,3,,,71,37
697200,note_on,0,0,3,,,,,,,,,3,,,74,37
697200,control_change,240,0,5,,,,,,,64,127,5,,,,
697392,note_off,192,0,3,,,,,,,,,3,,,74,0
697392,note_off,0,0,3,,,,,,,,,3,,,71,0
697440,note_on,0,0,3,,,,,,,,,3,,,74,38
697440,note_on,48,0,3,,,,,,,,,3,,,71,38
697632,note_off,0,0,3,,,,,,,,,3,,,71,0
697632,note_off,192,0,3,,,,,,,,,3,,,74,0
697680,control_change,48,0,3,,,,,,,64,0,3,,,,
697680,control_change,480,0,5,,,,,,,64,0,5,,,,
697680,control_change,480,0,2,,,,,,,64,0,2,,,,
697680,control_change,480,0,1,,,,,,,64,0,1,,,,
697680,note_on,0,0,3,,,,,,,,,3,,,74,38
697680,note_on,0,0,3,,,,,,,,,3,,,71,38
697680,control_change,480,0,4,,,,,,,64,0,4,,,,
697800,set_tempo,2760,1,0,,,,,,394736,,,,,,,
697855,note_off,175,0,1,,,,,,,,,1,,,80,0
697860,note_off,180,0,5,,,,,,,,,5,,,64,0
697865,note_off,10,0,1,,,,,,,,,1,,,88,0
697872,note_off,192,0,3,,,,,,,,,3,,,74,0
697872,note_off,0,0,3,,,,,,,,,3,,,71,0
697920,control_change,240,0,4,,,,,,,64,127,4,,,,
697920,note_on,0,0,2,,,,,,,,,2,,,64,74
697920,control_change,60,0,5,,,,,,,64,127,5,,,,
697920,set_tempo,120,1,0,,,,,,389610,,,,,,,
697920,note_on,0,0,1,,,,,,,,,1,,,73,74
697920,control_change,240,0,2,,,,,,,64,127,2,,,,
697920,note_on,0,0,2,,,,,,,,,2,,,69,74
697920,control_change,55,0,1,,,,,,,64,127,1,,,,
697920,note_on,0,0,5,,,,,,,,,5,,,52,74
697920,control_change,48,0,3,,,,,,,64,127,3,,,,
697920,note_on,0,0,3,,,,,,,,,3,,,57,74
697920,note_on,0,0,3,,,,,,,,,3,,,61,74
698112,note_off,192,0,3,,,,,,,,,3,,,61,0
698112,note_off,0,0,3,,,,,,,,,3,,,57,0
698160,note_on,48,0,3,,,,,,,,,3,,,57,54
698160,note_on,0,0,3,,,,,,,,,3,,,61,54
698352,note_off,0,0,3,,,,,,,,,3,,,57,0
698352,note_off,192,0,3,,,,,,,,,3,,,61,0
698400,note_on,0,0,3,,,,,,,,,3,,,61,45
698400,note_on,48,0,3,,,,,,,,,3,,,57,45
698592,note_off,0,0,3,,,,,,,,,3,,,57,0
698592,note_off,192,0,3,,,,,,,,,3,,,61,0
698640,note_on,48,0,3,,,,,,,,,3,,,57,41
698640,note_on,0,0,3,,,,,,,,,3,,,61,41
698810,note_off,890,0,1,,,,,,,,,1,,,73,0
698815,note_off,895,0,2,,,,,,,,,2,,,69,0
698820,note_off,5,0,2,,,,,,,,,2,,,64,0
698832,note_off,192,0,3,,,,,,,,,3,,,61,0
698832,note_off,0,0,3,,,,,,,,,3,,,57,0
698880,note_on,0,0,3,,,,,,,,,3,,,61,42
698880,note_on,0,0,3,,,,,,,,,3,,,57,42
698880,control_change,60,0,2,,,,,,,64,0,2,,,,
698880,note_on,0,0,1,,,,,,,,,1,,,74,42
698880,control_change,70,0,1,,,,,,,64,0,1,,,,
698880,control_change,48,0,3,,,,,,,64,0,3,,,,
698880,control_change,960,0,5,,,,,,,64,0,5,,,,
698880,control_change,960,0,4,,,,,,,64,0,4,,,,
699000,note_on,0,0,1,,,,,,,,,1,,,73,43
699000,note_off,120,0,1,,,,,,,,,1,,,74,0
699072,note_off,192,0,3,,,,,,,,,3,,,61,0
699072,note_off,0,0,3,,,,,,,,,3,,,57,0
699120,note_on,0,0,3,,,,,,,,,3,,,61,43
699120,note_on,48,0,3,,,,,,,,,3,,,57,43
699120,note_off,120,0,1,,,,,,,,,1,,,73,0
699120,note_on,0,0,1,,,,,,,,,1,,,71,43
699240,note_off,120,0,1,,,,,,,,,1,,,71,0
699240,note_on,0,0,1,,,,,,,,,1,,,69,43
699300,note_off,420,0,5,,,,,,,,,5,,,52,0
699312,note_off,0,0,3,,,,,,,,,3,,,57,0
699312,note_off,192,0,3,,,,,,,,,3,,,61,0
699336,note_off,96,0,1,,,,,,,,,1,,,69,0
699360,note_on,0,0,3,,,,,,,,,3,,,59,44
699360,note_on,0,0,1,,,,,,,,,1,,,68,44
699360,control_change,24,0,1,,,,,,,64,127,1,,,,
699360,control_change,48,0,3,,,,,,,64,127,3,,,,
699360,control_change,480,0,4,,,,,,,64,127,4,,,,
699360,control_change,480,0,2,,,,,,,64,127,2,,,,
699360,note_on,0,0,5,,,,,,,,,5,,,52,44
699360,note_on,0,0,3,,,,,,,,,3,,,62,44
699360,control_change,60,0,5,,,,,,,64,127,5,,,,
699552,note_off,192,0,3,,,,,,,,,3,,,59,0
699552,note_off,0,0,3,,,,,,,,,3,,,62,0
699600,note_on,240,0,1,,,,,,,,,1,,,78,45
699600,note_on,48,0,3,,,,,,,,,3,,,62,45
699600,note_on,0,0,3,,,,,,,,,3,,,59,45
699792,note_off,192,0,3,,,,,,,,,3,,,59,0
699792,note_off,0,0,3,,,,,,,,,3,,,62,0
699840,control_change,48,0,3,,,,,,,64,0,3,,,,
699840,note_on,0,0,3,,,,,,,,,3,,,62,45
699840,note_on,0,0,3,,,,,,,,,3,,,59,45
699840,control_change,240,0,1,,,,,,,64,0,1,,,,
699840,control_change,480,0,2,,,,,,,64,0,2,,,,
699840,control_change,480,0,5,,,,,,,64,0,5,,,,
699840,control_change,480,0,4,,,,,,,64,0,4,,,,
699840,note_off,0,0,1,,,,,,,,,1,,,78,0
699840,note_on,0,0,1,,,,,,,,,1,,,76,45
700032,note_off,192,0,3,,,,,,,,,3,,,59,0
700032,note_off,0,0,3,,,,,,,,,3,,,62,0
700032,note_off,192,0,1,,,,,,,,,1,,,76,0
700080,control_change,240,0,5,,,,,,,64,127,5,,,,
700080,control_change,240,0,2,,,,,,,64,127,2,,,,
700080,control_change,240,0,4,,,,,,,64,127,4,,,,
700080,control_change,48,0,1,,,,,,,64,127,1,,,,
700080,note_on,0,0,1,,,,,,,,,1,,,76,46
700080,note_on,0,0,3,,,,,,,,,3,,,62,46
700080,note_on,0,0,3,,,,,,,,,3,,,59,46
700080,control_change,48,0,3,,,,,,,64,127,3,,,,
700272,note_off,192,0,3,,,,,,,,,3,,,59,0
700272,note_off,0,0,3,,,,,,,,,3,,,62,0
700320,note_on,48,0,3,,,,,,,,,3,,,62,47
700320,note_on,0,0,3,,,,,,,,,3,,,59,47
700512,note_off,192,0,3,,,,,,,,,3,,,59,0
700512,note_off,0,0,3,,,,,,,,,3,,,62,0
700560,control_change,480,0,2,,,,,,,64,0,2,,,,
700560,control_change,480,0,1,,,,,,,64,0,1,,,,
700560,control_change,480,0,5,,,,,,,64,0,5,,,,
700560,control_change,480,0,4,,,,,,,64,0,4,,,,
700560,note_on,0,0,3,,,,,,,,,3,,,62,48
700560,note_on,0,0,3,,,,,,,,,3,,,59,48
700560,control_change,48,0,3,,,,,,,64,0,3,,,,
700680,set_tempo,2760,1,0,,,,,,394736,,,,,,,
700735,note_off,175,0,1,,,,,,,,,1,,,68,0
700740,note_off,180,0,5,,,,,,,,,5,,,52,0
700745,note_off,10,0,1,,,,,,,,,1,,,76,0
700752,note_off,192,0,3,,,,,,,,,3,,,59,0
700752,note_off,0,0,3,,,,,,,,,3,,,62,0
700800,note_on,0,0,2,,,,,,,,,2,,,76,86
700800,note_on,0,0,2,,,,,,,,,2,,,81,86
700800,control_change,240,0,2,,,,,,,64,127,2,,,,
700800,note_on,0,0,5,,,,,,,,,5,,,64,86
700800,note_on,0,0,3,,,,,,,,,3,,,72,86
700800,note_on,0,0,1,,,,,,,,,1,,,84,86
700800,note_on,0,0,3,,,,,,,,,3,,,69,86
700800,control_change,60,0,5,,,,,,,64,127,5,,,,
700800,control_change,240,0,4,,,,,,,64,127,4,,,,
700800,control_change,48,0,3,,,,,,,64,127,3,,,,
700800,control_change,55,0,1,,,,,,,64,127,1,,,,
700800,set_tempo,120,1,0,,,,,,389610,,,,,,,
700992,note_off,0,0,3,,,,,,,,,3,,,69,0
700992,note_off,192,0,3,,,,,,,,,3,,,72,0
701040,note_on,0,0,3,,,,,,,,,3,,,72,62
701040,note_on,48,0,3,,,,,,,,,3,,,69,62
701232,note_off,0,0,3,,,,,,,,,3,,,69,0
701232,note_off,192,0,3,,,,,,,,,3,,,72,0
701280,note_on,0,0,3,,,,,,,,,3,,,72,53
701280,note_on,48,0,3,,,,,,,,,3,,,69,53
701472,note_off,192,0,3,,,,,,,,,3,,,72,0
701472,note_off,0,0,3,,,,,,,,,3,,,69,0
701520,note_on,0,0,3,,,,,,,,,3,,,72,51
701520,note_on,48,0,3,,,,,,,,,3,,,69,51
701690,note_off,890,0,1,,,,,,,,,1,,,84,0
701695,note_off,895,0,2,,,,,,,,,2,,,81,0
701700,note_off,5,0,2,,,,,,,,,2,,,76,0
701712,note_off,0,0,3,,,,,,,,,3,,,69,0
701712,note_off,192,0,3,,,,,,,,,3,,,72,0
701760,control_change,60,0,2,,,,,,,64,0,2,,,,
701760,control_change,48,0,3,,,,,,,64,0,3,,,,
701760,note_on,0,0,3,,,,,,,,,3,,,69,52
701760,note_on,0,0,3,,,,,,,,,3,,,72,52
701760,control_change,70,0,1,,,,,,,64,0,1,,,,
701760,note_on,0,0,1,,,,,,,,,1,,,86,52
701760,control_change,960,0,4,,,,,,,64,0,4,,,,
701760,control_change,960,0,5,,,,,,,64,0,5,,,,
701880,note_off,120,0,1,,,,,,,,,1,,,86,0
701880,note_on,0,0,1,,,,,,,,,1,,,84,52
701952,note_off,0,0,3,,,,,,,,,3,,,69,0
701952,note_off,192,0,3,,,,,,,,,3,,,72,0
702000,note_off,120,0,1,,,,,,,,,1,,,84,0
702000,note_on,0,0,3,,,,,,,,,3,,,72,52
702000,note_on,48,0,3,,,,,,,,,3,,,69,52
702000,note_on,0,0,1,,,,,,,,,1,,,83,52
702120,note_off,120,0,1,,,,,,,,,1,,,83,0
702120,note_on,0,0,1,,,,,,,,,1,,,81,53
702180,note_off,420,0,5,,,,,,,,,5,,,64,0
702192,note_off,192,0,3,,,,,,,,,3,,,72,0
702192,note_off,0,0,3,,,,,,,,,3,,,69,0
702216,note_off,96,0,1,,,,,,,,,1,,,81,0
702240,control_change,480,0,2,,,,,,,64,127,2,,,,
702240,control_change,480,0,4,,,,,,,64,127,4,,,,
702240,note_on,0,0,3,,,,,,,,,3,,,71,53
702240,note_on,0,0,5,,,,,,,,,5,,,64,53
702240,note_on,0,0,3,,,,,,,,,3,,,74,53
702240,control_change,60,0,5,,,,,,,64,127,5,,,,
702240,control_change,24,0,1,,,,,,,64,127,1,,,,
702240,note_on,0,0,1,,,,,,,,,1,,,80,53
702240,control_change,48,0,3,,,,,,,64,127,3,,,,
702432,note_off,192,0,3,,,,,,,,,3,,,71,0
702432,note_off,0,0,3,,,,,,,,,3,,,74,0
702480,note_on,48,0,3,,,,,,,,,3,,,74,54
702480,note_on,0,0,3,,,,,,,,,3,,,71,54
702480,note_on,240,0,1,,,,,,,,,1,,,87,54
702672,note_off,192,0,3,,,,,,,,,3,,,71,0
702672,note_off,0,0,3,,,,,,,,,3,,,74,0
702720,control_change,48,0,3,,,,,,,64,0,3,,,,
702720,control_change,240,0,1,,,,,,,64,0,1,,,,
702720,note_off,0,0,1,,,,,,,,,1,,,87,0
702720,note_on,0,0,1,,,,,,,,,1,,,88,55
702720,note_on,0,0,3,,,,,,,,,3,,,74,55
702720,control_change,480,0,4,,,,,,,64,0,4,,,,
702720,control_change,480,0,5,,,,,,,64,0,5,,,,
702720,note_on,0,0,3,,,,,,,,,3,,,71,55
702720,control_change,480,0,2,,,,,,,64,0,2,,,,
702912,note_off,0,0,3,,,,,,,,,3,,,74,0
702912,note_off,192,0,3,,,,,,,,,3,,,71,0
702912,note_off,192,0,1,,,,,,,,,1,,,88,0
702960,control_change,240,0,2,,,,,,,64,127,2,,,,
702960,control_change,240,0,4,,,,,,,64,127,4,,,,
702960,control_change,240,0,5,,,,,,,64,127,5,,,,
702960,control_change,48,0,3,,,,,,,64,127,3,,,,
702960,note_on,0,0,3,,,,,,,,,3,,,74,56
702960,note_on,0,0,3,,,,,,,,,3,,,71,56
702960,control_change,48,0,1,,,,,,,64,127,1,,,,
702960,note_on,0,0,1,,,,,,,,,1,,,88,56
703152,note_off,192,0,3,,,,,,,,,3,,,71,0
703152,note_off,0,0,3,,,,,,,,,3,,,74,0
703200,note_on,48,0,3,,,,,,,,,3,,,74,56
703200,note_on,0,0,3,,,,,,,,,3,,,71,56
703392,note_off,192,0,3,,,,,,,,,3,,,71,0
703392,note_off,0,0,3,,,,,,,,,3,,,74,0
703440,control_change,480,0,2,,,,,,,64,0,2,,,,
703440,note_on,0,0,3,,,,,,,,,3,,,71,57
703440,control_change,48,0,3,,,,,,,64,0,3,,,,
703440,note_on,0,0,3,,,,,,,,,3,,,74,57
703440,control_change,480,0,5,,,,,,,64,0,5,,,,
703440,control_change,480,0,4,,,,,,,64,0,4,,,,
703440,control_change,480,0,1,,,,,,,64,0,1,,,,
703560,set_tempo,2760,1,0,,,,,,394736,,,,,,,
703615,note_off,175,0,1,,,,,,,,,1,,,80,0
703620,note_off,180,0,5,,,,,,,,,5,,,64,0
703625,note_off,10,0,1,,,,,,,,,1,,,88,0
703632,note_off,192,0,3,,,,,,,,,3,,,71,0
703632,note_off,0,0,3,,,,,,,,,3,,,74,0
703680,control_change,60,0,5,,,,,,,64,127,5,,,,
703680,note_on,0,0,5,,,,,,,,,5,,,52,90
703680,set_tempo,120,1,0,,,,,,389610,,,,,,,
703680,control_change,240,0,4,,,,,,,64,127,4,,,,
703680,control_change,240,0,2,,,,,,,64,127,2,,,,
703680,note_on,0,0,2,,,,,,,,,2,,,64,90
703680,note_on,0,0,2,,,,,,,,,2,,,69,90
703680,control_change,55,0,1,,,,,,,64,127,1,,,,
703680,control_change,48,0,3,,,,,,,64,127,3,,,,
703680,note_on,0,0,1,,,,,,,,,1,,,72,90
703680,note_on,0,0,3,,,,,,,,,3,,,57,90
703680,note_on,0,0,3,,,,,,,,,3,,,60,90
703872,note_off,192,0,3,,,,,,,,,3,,,57,0
703872,note_off,0,0,3,,,,,,,,,3,,,60,0
703920,note_on,48,0,3,,,,,,,,,3,,,60,74
703920,note_on,0,0,3,,,,,,,,,3,,,57,74
704112,note_off,192,0,3,,,,,,,,,3,,,57,0
704112,note_off,0,0,3,,,,,,,,,3,,,60,0
704160,note_on,48,0,3,,,,,,,,,3,,,60,63
704160,note_on,0,0,3,,,,,,,,,3,,,57,63
704352,note_off,192,0,3,,,,,,,,,3,,,57,0
704352,note_off,0,0,3,,,,,,,,,3,,,60,0
704400,note_on,0,0,3,,,,,,,,,3,,,57,60
704400,note_on,48,0,3,,,,,,,,,3,,,60,60
704570,note_off,890,0,1,,,,,,,,,1,,,72,0
704575,note_off,895,0,2,,,,,,,,,2,,,69,0
704580,note_off,5,0,2,,,,,,,,,2,,,64,0
704592,note_off,0,0,3,,,,,,,,,3,,,60,0
704592,note_off,192,0,3,,,,,,,,,3,,,57,0
704640,control_change,48,0,3,,,,,,,64,0,3,,,,
704640,note_on,0,0,3,,,,,,,,,3,,,57,61
704640,note_on,0,0,3,,,,,,,,,3,,,60,61
704640,control_change,60,0,2,,,,,,,64,0,2,,,,
704640,control_change,70,0,1,,,,,,,64,0,1,,,,
704640,control_change,960,0,5,,,,,,,64,0,5,,,,
704640,control_change,960,0,4,,,,,,,64,0,4,,,,
704640,note_on,0,0,1,,,,,,,,,1,,,74,61
704760,note_off,120,0,1,,,,,,,,,1,,,74,0
704760,note_on,0,0,1,,,,,,,,,1,,,72,61
704832,note_off,192,0,3,,,,,,,,,3,,,57,0
704832,note_off,0,0,3,,,,,,,,,3,,,60,0
704880,note_on,0,0,1,,,,,,,,,1,,,71,62
704880,note_on,0,0,3,,,,,,,,,3,,,57,62
704880,note_on,48,0,3,,,,,,,,,3,,,60,62
704880,note_off,120,0,1,,,,,,,,,1,,,72,0
705000,note_off,120,0,1,,,,,,,,,1,,,71,0
705000,note_on,0,0,1,,,,,,,,,1,,,69,62
705060,note_off,420,0,5,,,,,,,,,5,,,52,0
705072,note_off,0,0,3,,,,,,,,,3,,,60,0
705072,note_off,192,0,3,,,,,,,,,3,,,57,0
705096,note_off,96,0,1,,,,,,,,,1,,,69,0
705120,note_on,0,0,3,,,,,,,,,3,,,59,63
705120,control_change,48,0,3,,,,,,,64,127,3,,,,
705120,note_on,0,0,3,,,,,,,,,3,,,62,63
705120,note_on,0,0,1,,,,,,,,,1,,,68,63
705120,note_on,0,0,5,,,,,,,,,5,,,52,63
705120,control_change,60,0,5,,,,,,,64,127,5,,,,
705120,control_change,480,0,4,,,,,,,64,127,4,,,,
705120,control_change,480,0,2,,,,,,,64,127,2,,,,
705120,control_change,24,0,1,,,,,,,64,127,1,,,,
705312,note_off,192,0,3,,,,,,,,,3,,,62,0
705312,note_off,0,0,3,,,,,,,,,3,,,59,0
705360,note_on,240,0,1,,,,,,,,,1,,,77,63
705360,note_on,48,0,3,,,,,,,,,3,,,59,63
705360,note_on,0,0,3,,,,,,,,,3,,,62,63
705552,note_off,192,0,3,,,,,,,,,3,,,62,0
705552,note_off,0,0,3,,,,,,,,,3,,,59,0
705600,note_on,0,0,3,,,,,,,,,3,,,59,64
705600,control_change,48,0,3,,,,,,,64,0,3,,,,
705600,control_change,480,0,5,,,,,,,64,0,5,,,,
705600,note_on,0,0,3,,,,,,,,,3,,,62,64
705600,control_change,240,0,1,,,,,,,64,0,1,,,,
705600,note_off,0,0,1,,,,,,,,,1,,,77,0
705600,note_on,0,0,1,,,,,,,,,1,,,76,64
705600,control_change,480,0,4,,,,,,,64,0,4,,,,
705600,control_change,480,0,2,,,,,,,64,0,2,,,,
705792,note_off,192,0,1,,,,,,,,,1,,,76,0
705792,note_off,0,0,3,,,,,,,,,3,,,59,0
705792,note_off,192,0,3,,,,,,,,,3,,,62,0
705840,control_change,240,0,2,,,,,,,64,127,2,,,,
705840,control_change,240,0,5,,,,,,,64,127,5,,,,
705840,note_on,0,0,1,,,,,,,,,1,,,76,65
705840,control_change,48,0,1,,,,,,,64,127,1,,,,
705840,control_change,48,0,3,,,,,,,64,127,3,,,,
705840,note_on,0,0,3,,,,,,,,,3,,,59,65
705840,note_on,0,0,3,,,,,,,,,3,,,62,65
705840,control_change,240,0,4,,,,,,,64,127,4,,,,
706032,note_off,0,0,3,,,,,,,,,3,,,59,0
706032,note_off,192,0,3,,,,,,,,,3,,,62,0
706080,note_on,0,0,3,,,,,,,,,3,,,62,66
706080,note_on,48,0,3,,,,,,,,,3,,,59,66
706272,note_off,0,0,3,,,,,,,,,3,,,59,0
706272,note_off,192,0,3,,,,,,,,,3,,,62,0
706320,control_change,480,0,4,,,,,,,64,0,4,,,,
706320,control_change,480,0,1,,,,,,,64,0,1,,,,
706320,set_tempo,2640,1,0,,,,,,394736,,,,,,,
706320,note_on,0,0,3,,,,,,,,,3,,,59,66
706320,note_on,0,0,3,,,,,,,,,3,,,62,66
706320,control_change,480,0,2,,,,,,,64,0,2,,,,
706320,control_change,480,0,5,,,,,,,64,0,5,,,,
706320,control_change,48,0,3,,,,,,,64,0,3,,,,
706495,note_off,175,0,1,,,,,,,,,1,,,68,0
706500,note_off,180,0,5,,,,,,,,,5,,,52,0
706505,note_off,10,0,1,,,,,,,,,1,,,76,0
706512,note_off,192,0,3,,,,,,,,,3,,,62,0
706512,note_off,0,0,3,,,,,,,,,3,,,59,0
706560,control_change,240,0,2,,,,,,,64,127,2,,,,
706560,note_on,0,0,2,,,,,,,,,2,,,61,92
706560,note_on,0,0,2,,,,,,,,,2,,,64,92
706560,control_change,240,0,4,,,,,,,64,127,4,,,,
706560,note_on,0,0,5,,,,,,,,,5,,,57,92
706560,note_on,0,0,1,,,,,,,,,1,,,69,92
706560,control_change,55,0,1,,,,,,,64,127,1,,,,
706560,set_tempo,240,1,0,,,,,,389610,,,,,,,
706560,control_change,48,0,3,,,,,,,64,127,3,,,,
706560,control_change,60,0,5,,,,,,,64,127,5,,,,
706560,note_on,0,0,4,,,,,,,,,4,,,52,92
706560,note_on,0,0,5,,,,,,,,,5,,,45,92
706920,note_off,360,0,4,,,,,,,,,4,,,52,0
706920,note_off,360,0,1,,,,,,,,,1,,,69,0
706920,note_off,360,0,2,,,,,,,,,2,,,64,0
706920,note_off,0,0,5,,,,,,,,,5,,,57,0
706920,note_off,360,0,5,,,,,,,,,5,,,45,0
706920,note_off,0,0,2,,,,,,,,,2,,,61,0
707040,note_on,120,0,1,,,,,,,,,1,,,69,69
707040,note_on,120,0,5,,,,,,,,,5,,,57,69
707040,note_on,120,0,4,,,,,,,,,4,,,61,69
707160,note_off,120,0,1,,,,,,,,,1,,,69,0
707160,note_on,240,0,2,,,,,,,,,2,,,73,69
707196,note_off,156,0,5,,,,,,,,,5,,,57,0
707196,note_off,156,0,4,,,,,,,,,4,,,61,0
707220,control_change,660,0,3,,,,,,,64,0,3,,,,
707220,control_change,24,0,4,,,,,,,64,0,4,,,,
707220,control_change,24,0,5,,,,,,,64,0,5,,,,
707220,control_change,60,0,1,,,,,,,64,0,1,,,,
707220,control_change,60,0,2,,,,,,,64,0,2,,,,
707256,note_off,36,0,2,,,,,,,,,2,,,73,0
707280,note_on,60,0,5,,,,,,,,,5,,,59,70
707280,note_on,60,0,4,,,,,,,,,4,,,62,70
707280,note_on,60,0,1,,,,,,,,,1,,,71,70
707400,note_off,120,0,1,,,,,,,,,1,,,71,0
707400,note_on,144,0,2,,,,,,,,,2,,,74,70
707436,note_off,156,0,5,,,,,,,,,5,,,59,0
707436,note_off,156,0,4,,,,,,,,,4,,,62,0
707496,note_off,96,0,2,,,,,,,,,2,,,74,0
707520,note_on,84,0,5,,,,,,,,,5,,,61,70
707520,note_on,84,0,4,,,,,,,,,4,,,64,70
707520,note_on,120,0,1,,,,,,,,,1,,,73,70
707640,note_on,144,0,2,,,,,,,,,2,,,76,71
707640,note_off,120,0,1,,,,,,,,,1,,,73,0
707676,note_off,156,0,5,,,,,,,,,5,,,61,0
707676,note_off,156,0,4,,,,,,,,,4,,,64,0
707736,note_off,96,0,2,,,,,,,,,2,,,76,0
707760,note_on,120,0,1,,,,,,,,,1,,,74,71
707760,note_on,84,0,5,,,,,,,,,5,,,62,71
707760,note_on,84,0,4,,,,,,,,,4,,,66,71
707880,note_off,120,0,1,,,,,,,,,1,,,74,0
707880,set_tempo,1320,1,0,,,,,,394736,,,,,,,
707880,note_on,144,0,2,,,,,,,,,2,,,78,72
707916,note_off,156,0,5,,,,,,,,,5,,,62,0
707916,note_off,156,0,4,,,,,,,,,4,,,66,0
707976,note_off,96,0,2,,,,,,,,,2,,,78,0
708000,control_change,84,0,4,,,,,,,64,127,4,,,,
708000,control_change,84,0,5,,,,,,,64,127,5,,,,
708000,note_on,0,0,5,,,,,,,,,5,,,52,98
708000,control_change,780,0,3,,,,,,,64,127,3,,,,
708000,set_tempo,120,1,0,,,,,,389610,,,,,,,
708000,note_on,0,0,4,,,,,,,,,4,,,59,98
708000,note_on,0,0,2,,,,,,,,,2,,,74,98
708000,note_on,0,0,2,,,,,,,,,2,,,68,98
708000,control_change,24,0,2,,,,,,,64,127,2,,,,
708000,note_on,0,0,2,,,,,,,,,2,,,71,98
708000,control_change,120,0,1,,,,,,,64,127,1,,,,
708000,note_on,0,0,1,,,,,,,,,1,,,64,98
708000,note_on,0,0,1,,,,,,,,,1,,,76,98
708360,note_off,360,0,5,,,,,,,,,5,,,52,0
708360,note_off,360,0,4,,,,,,,,,4,,,59,0
708360,note_off,0,0,2,,,,,,,,,2,,,68,0
708360,note_off,0,0,1,,,,,,,,,1,,,76,0
708360,note_off,360,0,1,,,,,,,,,1,,,64,0
708360,note_off,360,0,2,,,,,,,,,2,,,71,0
708360,note_off,0,0,2,,,,,,,,,2,,,74,0
708480,note_on,120,0,5,,,,,,,,,5,,,64,73
708480,note_on,120,0,4,,,,,,,,,4,,,68,73
708480,note_on,120,0,1,,,,,,,,,1,,,86,73
708600,note_on,240,0,2,,,,,,,,,2,,,76,74
708600,note_off,120,0,1,,,,,,,,,1,,,86,0
708660,control_change,60,0,2,,,,,,,64,0,2,,,,
708660,control_change,660,0,3,,,,,,,64,0,3,,,,
708660,control_change,180,0,5,,,,,,,64,0,5,,,,
708660,control_change,180,0,4,,,,,,,64,0,4,,,,
708660,control_change,60,0,1,,,,,,,64,0,1,,,,
708696,note_off,36,0,2,,,,,,,,,2,,,76,0
708720,note_off,60,0,4,,,,,,,,,4,,,68,0
708720,note_on,60,0,1,,,,,,,,,1,,,83,74
708720,note_on,0,0,4,,,,,,,,,4,,,71,74
708840,note_off,120,0,1,,,,,,,,,1,,,83,0
708840,note_on,144,0,2,,,,,,,,,2,,,76,75
708936,note_off,96,0,2,,,,,,,,,2,,,76,0
708960,note_on,240,0,4,,,,,,,,,4,,,73,75
708960,note_on,120,0,1,,,,,,,,,1,,,81,75
708965,note_off,5,0,4,,,,,,,,,4,,,71,0
709080,note_off,120,0,1,,,,,,,,,1,,,81,0
709080,note_on,144,0,2,,,,,,,,,2,,,76,75
709176,note_off,96,0,2,,,,,,,,,2,,,76,0
709200,note_on,120,0,1,,,,,,,,,1,,,80,76
709200,note_on,235,0,4,,,,,,,,,4,,,74,76
709205,note_off,5,0,4,,,,,,,,,4,,,73,0
709320,note_off,120,0,1,,,,,,,,,1,,,80,0
709320,note_on,144,0,2,,,,,,,,,2,,,76,76
709320,set_tempo,1320,1,0,,,,,,394736,,,,,,,
709356,note_off,151,0,4,,,,,,,,,4,,,74,0
709360,note_off,700,0,5,,,,,,,,,5,,,64,0
709416,note_off,96,0,2,,,,,,,,,2,,,76,0
709440,note_on,0,0,1,,,,,,,,,1,,,69,104
709440,set_tempo,120,1,0,,,,,,389610,,,,,,,
709440,control_change,24,0,2,,,,,,,64,127,2,,,,
709440,note_on,0,0,4,,,,,,,,,4,,,52,104
709440,control_change,84,0,4,,,,,,,64,127,4,,,,
709440,note_on,0,0,5,,,,,,,,,5,,,45,104
709440,note_on,0,0,1,,,,,,,,,1,,,81,104
709440,control_change,120,0,1,,,,,,,64,127,1,,,,
709440,note_on,0,0,2,,,,,,,,,2,,,73,104
709440,control_change,780,0,3,,,,,,,64,127,3,,,,
709440,note_on,0,0,5,,,,,,,,,5,,,57,104
709440,control_change,80,0,5,,,,,,,64,127,5,,,,
709440,note_on,0,0,2,,,,,,,,,2,,,76,104
709800,note_off,360,0,2,,,,,,,,,2,,,73,0
709800,note_off,0,0,2,,,,,,,,,2,,,76,0
709800,note_off,0,0,1,,,,,,,,,1,,,81,0
709800,note_off,0,0,5,,,,,,,,,5,,,45,0
709800,note_off,360,0,4,,,,,,,,,4,,,52,0
709800,note_off,360,0,1,,,,,,,,,1,,,69,0
709800,note_off,360,0,5,,,,,,,,,5,,,57,0
709920,note_on,120,0,5,,,,,,,,,5,,,57,78
709920,note_on,120,0,4,,,,,,,,,4,,,61,78
709920,note_on,120,0,1,,,,,,,,,1,,,69,78
710040,note_off,120,0,1,,,,,,,,,1,,,69,0
710040,note_on,240,0,2,,,,,,,,,2,,,73,79
710076,note_off,156,0,5,,,,,,,,,5,,,57,0
710076,note_off,156,0,4,,,,,,,,,4,,,61,0
710100,control_change,60,0,1,,,,,,,64,0,1,,,,
710100,control_change,660,0,3,,,,,,,64,0,3,,,,
710100,control_change,60,0,2,,,,,,,64,0,2,,,,
710100,control_change,24,0,5,,,,,,,64,0,5,,,,
710100,control_change,24,0,4,,,,,,,64,0,4,,,,
710136,note_off,36,0,2,,,,,,,,,2,,,73,0
710160,note_on,60,0,4,,,,,,,,,4,,,62,79
710160,note_on,60,0,1,,,,,,,,,1,,,71,79
710160,note_on,60,0,5,,,,,,,,,5,,,59,79
710280,note_off,120,0,1,,,,,,,,,1,,,71,0
710280,note_on,144,0,2,,,,,,,,,2,,,74,79
710316,note_off,156,0,4,,,,,,,,,4,,,62,0
710316,note_off,156,0,5,,,,,,,,,5,,,59,0
710376,note_off,96,0,2,,,,,,,,,2,,,74,0
710400,note_on,84,0,4,,,,,,,,,4,,,64,80
710400,note_on,120,0,1,,,,,,,,,1,,,73,80
710400,note_on,84,0,5,,,,,,,,,5,,,61,80
710520,note_off,120,0,1,,,,,,,,,1,,,73,0
710520,note_on,144,0,2,,,,,,,,,2,,,76,80
710556,note_off,156,0,5,,,,,,,,,5,,,61,0
710556,note_off,156,0,4,,,,,,,,,4,,,64,0
710616,note_off,96,0,2,,,,,,,,,2,,,76,0
710640,note_on,84,0,4,,,,,,,,,4,,,66,80
710640,note_on,84,0,5,,,,,,,,,5,,,62,80
710640,note_on,120,0,1,,,,,,,,,1,,,74,80
710760,note_off,120,0,1,,,,,,,,,1,,,74,0
710760,set_tempo,1320,1,0,,,,,,394736,,,,,,,
710760,note_on,144,0,2,,,,,,,,,2,,,78,81
710796,note_off,156,0,4,,,,,,,,,4,,,66,0
710796,note_off,156,0,5,,,,,,,,,5,,,62,0
710856,note_off,96,0,2,,,,,,,,,2,,,78,0
710880,control_change,84,0,5,,,,,,,64,127,5,,,,
710880,note_on,0,0,5,,,,,,,,,5,,,52,110
710880,control_change,780,0,3,,,,,,,64,127,3,,,,
710880,control_change,24,0,2,,,,,,,64,127,2,,,,
710880,set_tempo,120,1,0,,,,,,389610,,,,,,,
710880,control_change,120,0,1,,,,,,,64,127,1,,,,
710880,control_change,84,0,4,,,,,,,64,127,4,,,,
710880,note_on,0,0,4,,,,,,,,,4,,,59,110
710880,note_on,0,0,1,,,,,,,,,1,,,76,110
710880,note_on,0,0,1,,,,,,,,,1,,,64,110
710880,note_on,0,0,2,,,,,,,,,2,,,68,110
710880,note_on,0,0,2,,,,,,,,,2,,,71,110
710880,note_on,0,0,2,,,,,,,,,2,,,74,110
711240,note_off,360,0,1,,,,,,,,,1,,,64,0
711240,note_off,0,0,1,,,,,,,,,1,,,76,0
711240,note_off,0,0,2,,,,,,,,,2,,,68,0
711240,note_off,0,0,2,,,,,,,,,2,,,71,0
711240,note_off,360,0,2,,,,,,,,,2,,,74,0
711240,note_off,360,0,4,,,,,,,,,4,,,59,0
711240,note_off,360,0,5,,,,,,,,,5,,,52,0
711360,note_on,120,0,4,,,,,,,,,4,,,68,83
711360,note_on,120,0,1,,,,,,,,,1,,,86,83
711360,note_on,120,0,5,,,,,,,,,5,,,64,83
711480,note_on,240,0,2,,,,,,,,,2,,,76,83
711480,note_off,120,0,1,,,,,,,,,1,,,86,0
711540,control_change,60,0,1,,,,,,,64,0,1,,,,
711540,control_change,660,0,3,,,,,,,64,0,3,,,,
711540,control_change,60,0,2,,,,,,,64,0,2,,,,
711540,control_change,180,0,4,,,,,,,64,0,4,,,,
711540,control_change,180,0,5,,,,,,,64,0,5,,,,
711576,note_off,36,0,2,,,,,,,,,2,,,76,0
711600,note_on,60,0,1,,,,,,,,,1,,,83,84
711600,note_off,60,0,4,,,,,,,,,4,,,68,0
711600,note_on,0,0,4,,,,,,,,,4,,,71,84
711720,note_on,144,0,2,,,,,,,,,2,,,76,84
711720,note_off,120,0,1,,,,,,,,,1,,,83,0
711816,note_off,96,0,2,,,,,,,,,2,,,76,0
711840,note_on,120,0,1,,,,,,,,,1,,,81,84
711840,note_on,240,0,4,,,,,,,,,4,,,73,84
711845,note_off,5,0,4,,,,,,,,,4,,,71,0
711960,note_on,144,0,2,,,,,,,,,2,,,76,85
711960,note_off,120,0,1,,,,,,,,,1,,,81,0
712056,note_off,96,0,2,,,,,,,,,2,,,76,0
712080,note_on,235,0,4,,,,,,,,,4,,,74,85
712080,note_on,120,0,1,,,,,,,,,1,,,80,85
712085,note_off,5,0,4,,,,,,,,,4,,,73,0
712200,note_on,144,0,2,,,,,,,,,2,,,76,86
712200,note_off,120,0,1,,,,,,,,,1,,,80,0
712200,set_tempo,1320,1,0,,,,,,394736,,,,,,,
712236,note_off,151,0,4,,,,,,,,,4,,,74,0
712240,note_off,700,0,5,,,,,,,,,5,,,64,0
712296,note_off,96,0,2,,,,,,,,,2,,,76,0
712320,note_on,120,0,1,,,,,,,,,1,,,85,86
712320,note_on,84,0,4,,,,,,,,,4,,,69,86
712320,note_on,80,0,5,,,,,,,,,5,,,57,86
712320,set_tempo,120,1,0,,,,,,389610,,,,,,,
712440,note_off,120,0,1,,,,,,,,,1,,,85,0
712440,note_on,144,0,2,,,,,,,,,2,,,76,86
712476,note_off,156,0,4,,,,,,,,,4,,,69,0
712476,note_off,156,0,5,,,,,,,,,5,,,57,0
712536,note_off,96,0,2,,,,,,,,,2,,,76,0
712560,note_on,84,0,4,,,,,,,,,4,,,68,92
712560,note_on,84,0,5,,,,,,,,,5,,,61,92
712560,note_on,24,0,2,,,,,,,,,2,,,77,87
712656,note_off,96,0,2,,,,,,,,,2,,,77,0
712680,note_on,240,0,1,,,,,,,,,1,,,83,87
712800,note_on,144,0,2,,,,,,,,,2,,,80,88
712800,note_off,120,0,1,,,,,,,,,1,,,83,0
712896,note_off,96,0,2,,,,,,,,,2,,,80,0
712920,note_off,360,0,4,,,,,,,,,4,,,68,0
712920,note_off,360,0,5,,,,,,,,,5,,,61,0
712920,note_on,24,0,2,,,,,,,,,2,,,77,88
713016,note_off,96,0,2,,,,,,,,,2,,,77,0
713040,note_on,120,0,4,,,,,,,,,4,,,66,88
713040,note_on,120,0,5,,,,,,,,,5,,,54,88
713040,note_on,240,0,1,,,,,,,,,1,,,81,88
713160,note_off,120,0,1,,,,,,,,,1,,,81,0
713160,note_on,144,0,2,,,,,,,,,2,,,69,89
713196,note_off,156,0,4,,,,,,,,,4,,,66,0
713196,note_off,156,0,5,,,,,,,,,5,,,54,0
713256,note_off,96,0,2,,,,,,,,,2,,,69,0
713280,note_on,84,0,4,,,,,,,,,4,,,64,94
713280,note_on,84,0,5,,,,,,,,,5,,,57,94
713280,note_on,24,0,2,,,,,,,,,2,,,73,89
713376,note_off,96,0,2,,,,,,,,,2,,,73,0
713400,note_on,240,0,1,,,,,,,,,1,,,79,89
713520,note_on,144,0,2,,,,,,,,,2,,,76,90
713520,note_off,120,0,1,,,,,,,,,1,,,79,0
713616,note_off,96,0,2,,,,,,,,,2,,,76,0
713640,note_off,360,0,4,,,,,,,,,4,,,64,0
713640,note_on,24,0,2,,,,,,,,,2,,,73,90
713640,note_off,360,0,5,,,,,,,,,5,,,57,0
713736,note_off,96,0,2,,,,,,,,,2,,,73,0
713760,note_on,120,0,5,,,,,,,,,5,,,50,91
713760,note_on,120,0,4,,,,,,,,,4,,,62,91
713760,note_on,240,0,1,,,,,,,,,1,,,78,91
713880,note_off,120,0,1,,,,,,,,,1,,,78,0
713880,note_on,144,0,2,,,,,,,,,2,,,69,91
713916,note_off,156,0,4,,,,,,,,,4,,,62,0
713916,note_off,156,0,5,,,,,,,,,5,,,50,0
713976,note_off,96,0,2,,,,,,,,,2,,,69,0
714000,note_on,24,0,2,,,,,,,,,2,,,70,91
714000,note_on,84,0,5,,,,,,,,,5,,,54,96
714000,note_on,84,0,4,,,,,,,,,4,,,61,96
714096,note_off,96,0,2,,,,,,,,,2,,,70,0
714120,note_on,240,0,1,,,,,,,,,1,,,76,92
714240,note_on,144,0,2,,,,,,,,,2,,,73,92
714240,note_off,120,0,1,,,,,,,,,1,,,76,0
714336,note_off,96,0,2,,,,,,,,,2,,,73,0
714360,note_off,360,0,5,,,,,,,,,5,,,54,0
714360,note_off,360,0,4,,,,,,,,,4,,,61,0
714360,note_on,24,0,2,,,,,,,,,2,,,70,93
714456,note_off,96,0,2,,,,,,,,,2,,,70,0
714480,control_change,2940,0,3,,,,,,,64,127,3,,,,
714480,control_change,120,0,5,,,,,,,64,127,5,,,,
714480,note_on,0,0,5,,,,,,,,,5,,,47,93
714480,control_change,120,0,4,,,,,,,64,127,4,,,,
714480,control_change,240,0,1,,,,,,,64,127,1,,,,
714480,control_change,24,0,2,,,,,,,64,127,2,,,,
714480,note_on,0,0,1,,,,,,,,,1,,,74,93
714600,note_on,120,0,2,,,,,,,,,2,,,66,93
714600,note_off,120,0,1,,,,,,,,,1,,,74,0
714672,note_off,192,0,5,,,,,,,,,5,,,47,0
714696,note_off,96,0,2,,,,,,,,,2,,,66,0
714720,note_on,240,0,4,,,,,,,,,4,,,62,94
714720,note_on,48,0,5,,,,,,,,,5,,,59,94
714720,note_on,24,0,2,,,,,,,,,2,,,71,94
714816,note_off,96,0,2,,,,,,,,,2,,,71,0
714840,note_on,240,0,1,,,,,,,,,1,,,74,94
714912,note_off,192,0,5,,,,,,,,,5,,,59,0
714912,note_off,192,0,4,,,,,,,,,4,,,62,0
714960,note_off,120,0,1,,,,,,,,,1,,,74,0
714960,note_on,48,0,5,,,,,,,,,5,,,47,95
714960,note_on,144,0,2,,,,,,,,,2,,,66,95
715056,note_off,96,0,2,,,,,,,,,2,,,66,0
715080,note_on,24,0,2,,,,,,,,,2,,,71,95
715140,control_change,180,0,5,,,,,,,64,0,5,,,,
715140,control_change,228,0,4,,,,,,,64,0,4,,,,
715140,control_change,180,0,1,,,,,,,64,0,1,,,,
715140,control_change,660,0,3,,,,,,,64,0,3,,,,
715140,control_change,60,0,2,,,,,,,64,0,2,,,,
715152,note_off,12,0,5,,,,,,,,,5,,,47,0
715176,note_off,36,0,2,,,,,,,,,2,,,71,0
715200,note_on,0,0,5,,,,,,,,,5,,,59,95
715200,control_change,60,0,4,,,,,,,64,127,4,,,,
715200,note_on,0,0,1,,,,,,,,,1,,,74,95
715200,control_change,60,0,1,,,,,,,64,127,1,,,,
715200,note_on,0,0,4,,,,,,,,,4,,,62,95
715200,control_change,48,0,5,,,,,,,64,127,5,,,,
715200,control_change,24,0,2,,,,,,,64,127,2,,,,
715200,control_change,60,0,3,,,,,,,64,127,3,,,,
715320,note_on,120,0,2,,,,,,,,,2,,,66,94
715320,note_off,120,0,1,,,,,,,,,1,,,74,0
715392,note_off,192,0,5,,,,,,,,,5,,,59,0
715392,note_off,192,0,4,,,,,,,,,4,,,62,0
715416,note_off,96,0,2,,,,,,,,,2,,,66,0
715440,note_on,24,0,2,,,,,,,,,2,,,71,95
715440,note_on,48,0,5,,,,,,,,,5,,,47,95
715536,note_off,96,0,2,,,,,,,,,2,,,71,0
715560,note_on,240,0,1,,,,,,,,,1,,,74,96
715632,note_off,192,0,5,,,,,,,,,5,,,47,0
715680,note_on,144,0,2,,,,,,,,,2,,,66,97
715680,note_off,120,0,1,,,,,,,,,1,,,74,0
715680,note_on,288,0,4,,,,,,,,,4,,,62,97
715680,note_on,48,0,5,,,,,,,,,5,,,59,97
715776,note_off,96,0,2,,,,,,,,,2,,,66,0
715800,note_on,24,0,2,,,,,,,,,2,,,71,97
715860,control_change,660,0,3,,,,,,,64,0,3,,,,
715860,control_change,180,0,1,,,,,,,64,0,1,,,,
715860,control_change,180,0,5,,,,,,,64,0,5,,,,
715860,control_change,180,0,4,,,,,,,64,0,4,,,,
715860,control_change,60,0,2,,,,,,,64,0,2,,,,
715872,note_off,12,0,5,,,,,,,,,5,,,59,0
715872,note_off,12,0,4,,,,,,,,,4,,,62,0
715896,note_off,36,0,2,,,,,,,,,2,,,71,0
715920,control_change,60,0,1,,,,,,,64,127,1,,,,
715920,control_change,24,0,2,,,,,,,64,127,2,,,,
715920,note_on,0,0,1,,,,,,,,,1,,,74,98
715920,control_change,48,0,5,,,,,,,64,127,5,,,,
715920,note_on,0,0,5,,,,,,,,,5,,,45,98
715920,control_change,60,0,3,,,,,,,64,127,3,,,,
715920,control_change,48,0,4,,,,,,,64,127,4,,,,
716040,note_on,120,0,2,,,,,,,,,2,,,65,99
716040,note_off,120,0,1,,,,,,,,,1,,,74,0
716112,note_off,192,0,5,,,,,,,,,5,,,45,0
716136,note_off,96,0,2,,,,,,,,,2,,,65,0
716160,note_on,48,0,5,,,,,,,,,5,,,57,100
716160,note_on,0,0,4,,,,,,,,,4,,,59,100
716160,note_on,24,0,2,,,,,,,,,2,,,71,100
716160,note_on,240,0,4,,,,,,,,,4,,,62,100
716256,note_off,96,0,2,,,,,,,,,2,,,71,0
716280,note_on,240,0,1,,,,,,,,,1,,,74,101
716352,note_off,0,0,4,,,,,,,,,4,,,62,0
716352,note_off,192,0,4,,,,,,,,,4,,,59,0
716352,note_off,192,0,5,,,,,,,,,5,,,57,0
716400,note_on,48,0,5,,,,,,,,,5,,,45,102
716400,note_on,144,0,2,,,,,,,,,2,,,65,102
716400,note_off,120,0,1,,,,,,,,,1,,,74,0
716496,note_off,96,0,2,,,,,,,,,2,,,65,0
716520,note_on,24,0,2,,,,,,,,,2,,,71,102
716580,control_change,180,0,1,,,,,,,64,0,1,,,,
716580,control_change,660,0,3,,,,,,,64,0,3,,,,
716580,control_change,60,0,2,,,,,,,64,0,2,,,,
716580,control_change,180,0,5,,,,,,,64,0,5,,,,
716580,control_change,228,0,4,,,,,,,64,0,4,,,,
716592,note_off,12,0,5,,,,,,,,,5,,,45,0
716616,note_off,36,0,2,,,,,,,,,2,,,71,0
716640,control_change,60,0,3,,,,,,,64,127,3,,,,
716640,note_on,0,0,4,,,,,,,,,4,,,59,103
716640,note_on,0,0,4,,,,,,,,,4,,,62,103
716640,control_change,60,0,1,,,,,,,64,127,1,,,,
716640,note_on,0,0,1,,,,,,,,,1,,,74,103
716640,control_change,24,0,2,,,,,,,64,127,2,,,,
716640,control_change,48,0,5,,,,,,,64,127,5,,,,
716640,note_on,0,0,5,,,,,,,,,5,,,57,103
716640,control_change,60,0,4,,,,,,,64,127,4,,,,
716760,note_on,120,0,2,,,,,,,,,2,,,65,104
716760,note_off,120,0,1,,,,,,,,,1,,,74,0
716832,note_off,0,0,4,,,,,,,,,4,,,62,0
716832,note_off,192,0,5,,,,,,,,,5,,,57,0
716832,note_off,192,0,4,,,,,,,,,4,,,59,0
716856,note_off,96,0,2,,,,,,,,,2,,,65,0
716880,note_on,48,0,5,,,,,,,,,5,,,45,105
716880,note_on,24,0,2,,,,,,,,,2,,,71,105
716976,note_off,96,0,2,,,,,,,,,2,,,71,0
717000,note_on,240,0,1,,,,,,,,,1,,,74,106
717072,note_off,192,0,5,,,,,,,,,5,,,45,0
717120,note_on,48,0,5,,,,,,,,,5,,,57,106
717120,note_on,144,0,2,,,,,,,,,2,,,65,106
717120,note_on,288,0,4,,,,,,,,,4,,,62,106
717120,note_off,120,0,1,,,,,,,,,1,,,74,0
717120,note_on,0,0,4,,,,,,,,,4,,,59,106
717216,note_off,96,0,2,,,,,,,,,2,,,65,0
717240,set_tempo,4920,1,0,,,,,,402684,,,,,,,
717240,note_on,24,0,2,,,,,,,,,2,,,71,107
717300,control_change,660,0,3,,,,,,,64,0,3,,,,
717300,control_change,60,0,2,,,,,,,64,0,2,,,,
717300,control_change,180,0,5,,,,,,,64,0,5,,,,
717300,control_change,180,0,1,,,,,,,64,0,1,,,,
717300,control_change,180,0,4,,,,,,,64,0,4,,,,
717312,note_off,0,0,4,,,,,,,,,4,,,62,0
717312,note_off,12,0,4,,,,,,,,,4,,,59,0
717312,note_off,12,0,5,,,,,,,,,5,,,57,0
717336,note_off,36,0,2,,,,,,,,,2,,,71,0
717360,note_on,0,0,4,,,,,,,,,4,,,59,107
717360,control_change,48,0,5,,,,,,,64,127,5,,,,
717360,note_on,0,0,4,,,,,,,,,4,,,62,107
717360,control_change,48,0,4,,,,,,,64,127,4,,,,
717360,note_on,0,0,5,,,,,,,,,5,,,56,107
717360,control_change,60,0,3,,,,,,,64,127,3,,,,
717360,control_change,24,0,2,,,,,,,64,127,2,,,,
717360,set_tempo,120,1,0,,,,,,389610,,,,,,,
717360,control_change,60,0,1,,,,,,,64,127,1,,,,
717360,note_on,0,0,1,,,,,,,,,1,,,64,107
717480,note_off,120,0,1,,,,,,,,,1,,,64,0
717480,note_on,0,0,1,,,,,,,,,1,,,68,108
717600,note_on,0,0,1,,,,,,,,,1,,,71,110
717600,note_off,120,0,1,,,,,,,,,1,,,68,0
717720,note_off,360,0,4,,,,,,,,,4,,,59,0
717720,note_off,360,0,5,,,,,,,,,5,,,56,0
717720,note_on,0,0,1,,,,,,,,,1,,,76,111
717720,note_off,0,0,4,,,,,,,,,4,,,62,0
717720,note_off,120,0,1,,,,,,,,,1,,,71,0
717840,note_on,0,0,1,,,,,,,,,1,,,80,113
717840,note_off,120,0,1,,,,,,,,,1,,,76,0
717960,note_on,0,0,1,,,,,,,,,1,,,83,114
717960,note_off,120,0,1,,,,,,,,,1,,,80,0
718020,set_tempo,660,1,0,,,,,,394736,,,,,,,
718056,note_off,96,0,1,,,,,,,,,1,,,83,0
718080,note_on,24,0,1,,,,,,,,,1,,,86,126
720120,control_change,2400,0,5,,,,,,,64,0,5,,,,
720120,control_change,2040,0,1,,,,,,,64,0,1,,,,
720120,control_change,2400,0,4,,,,,,,64,0,4,,,,
720120,control_change,2760,0,3,,,,,,,64,0,3,,,,
720120,control_change,2760,0,2,,,,,,,64,0,2,,,,
720170,note_off,50,0,1,,,,,,,,,1,,,86,0
720240,note_on,120,0,5,,,,,,,,,5,,,57,58
720240,set_tempo,2220,1,0,,,,,,389610,,,,,,,
720240,note_on,70,0,1,,,,,,,,,1,,,85,58
720480,note_on,360,0,3,,,,,,,,,3,,,64,57
720720,note_on,0,0,3,,,,,,,,,3,,,69,56
720720,note_off,480,0,1,,,,,,,,,1,,,85,0
720720,note_off,240,0,3,,,,,,,,,3,,,64,0
720720,note_on,0,0,1,,,,,,,,,1,,,83,56
720900,note_off,180,0,1,,,,,,,,,1,,,83,0
720900,note_on,0,0,1,,,,,,,,,1,,,83,56
720900,note_off,660,0,5,,,,,,,,,5,,,57,0
720912,note_off,192,0,3,,,,,,,,,3,,,69,0
720960,note_on,60,0,5,,,,,,,,,5,,,61,56
720960,note_off,60,0,1,,,,,,,,,1,,,83,0
720960,note_on,0,0,1,,,,,,,,,1,,,81,56
721200,note_off,240,0,1,,,,,,,,,1,,,81,0
721200,note_on,0,0,1,,,,,,,,,1,,,80,55
721200,note_on,288,0,3,,,,,,,,,3,,,64,55
721440,note_off,240,0,1,,,,,,,,,1,,,80,0
721440,note_on,0,0,1,,,,,,,,,1,,,81,54
721440,note_off,240,0,3,,,,,,,,,3,,,64,0
721440,note_on,0,0,3,,,,,,,,,3,,,69,54
721620,note_off,660,0,5,,,,,,,,,5,,,61,0
721632,note_off,192,0,1,,,,,,,,,1,,,81,0
721632,note_off,192,0,3,,,,,,,,,3,,,69,0
721680,note_on,1560,0,2,,,,,,,,,2,,,76,61
721680,note_on,0,0,2,,,,,,,,,2,,,79,61
721680,note_on,60,0,5,,,,,,,,,5,,,62,54
721680,note_on,48,0,1,,,,,,,,,1,,,82,61
721920,note_on,288,0,3,,,,,,,,,3,,,67,53
722160,note_on,0,0,3,,,,,,,,,3,,,70,52
722160,note_off,480,0,1,,,,,,,,,1,,,82,0
722160,note_on,0,0,1,,,,,,,,,1,,,85,52
722160,note_off,240,0,3,,,,,,,,,3,,,67,0
722340,note_off,660,0,5,,,,,,,,,5,,,62,0
722352,note_off,192,0,3,,,,,,,,,3,,,70,0
722400,note_off,0,0,2,,,,,,,,,2,,,76,0
722400,note_off,720,0,2,,,,,,,,,2,,,79,0
722400,note_on,60,0,5,,,,,,,,,5,,,62,51
722400,note_on,0,0,1,,,,,,,,,1,,,83,51
722400,note_off,240,0,1,,,,,,,,,1,,,85,0
722400,note_on,0,0,2,,,,,,,,,2,,,78,51
722640,note_on,288,0,3,,,,,,,,,3,,,66,51
722880,note_off,240,0,3,,,,,,,,,3,,,66,0
722880,note_on,480,0,1,,,,,,,,,1,,,90,50
722880,note_on,0,0,3,,,,,,,,,3,,,71,50
723055,note_off,655,0,2,,,,,,,,,2,,,78,0
723060,note_off,180,0,1,,,,,,,,,1,,,83,0
723060,note_on,0,0,1,,,,,,,,,1,,,83,50
723065,note_off,665,0,5,,,,,,,,,5,,,62,0
723072,note_off,12,0,1,,,,,,,,,1,,,90,0
723072,note_off,192,0,3,,,,,,,,,3,,,71,0
723120,note_on,55,0,5,,,,,,,,,5,,,64,49
723120,note_on,0,0,1,,,,,,,,,1,,,81,49
723120,note_off,48,0,1,,,,,,,,,1,,,83,0
723360,note_off,240,0,1,,,,,,,,,1,,,81,0
723360,note_on,0,0,1,,,,,,,,,1,,,80,49
723360,note_on,288,0,3,,,,,,,,,3,,,73,49
723600,note_on,0,0,3,,,,,,,,,3,,,76,48
723600,note_off,240,0,1,,,,,,,,,1,,,80,0
723600,note_on,0,0,1,,,,,,,,,1,,,81,48
723600,note_off,240,0,3,,,,,,,,,3,,,73,0
723780,note_off,660,0,5,,,,,,,,,5,,,64,0
723792,note_off,192,0,3,,,,,,,,,3,,,76,0
723805,note_off,205,0,1,,,,,,,,,1,,,81,0
723840,note_on,785,0,2,,,,,,,,,2,,,80,49
723840,note_on,60,0,5,,,,,,,,,5,,,64,49
723840,note_on,35,0,1,,,,,,,,,1,,,85,49
724080,note_on,288,0,3,,,,,,,,,3,,,74,46
724320,note_off,240,0,3,,,,,,,,,3,,,74,0
724320,note_off,480,0,1,,,,,,,,,1,,,85,0
724320,note_on,0,0,1,,,,,,,,,1,,,83,42
724320,note_on,0,0,3,,,,,,,,,3,,,76,42
724440,set_tempo,4200,1,0,,,,,,394736,,,,,,,
724500,note_off,660,0,2,,,,,,,,,2,,,80,0
724505,note_off,665,0,5,,,,,,,,,5,,,64,0
724512,note_off,192,0,3,,,,,,,,,3,,,76,0
724515,note_off,195,0,1,,,,,,,,,1,,,83,0
724560,note_on,45,0,1,,,,,,,,,1,,,85,49
724560,note_on,55,0,5,,,,,,,,,5,,,64,49
724560,note_on,60,0,2,,,,,,,,,2,,,80,49
724800,note_on,288,0,3,,,,,,,,,3,,,74,46
725040,note_off,240,0,3,,,,,,,,,3,,,74,0
725040,note_off,480,0,1,,,,,,,,,1,,,85,0
725040,note_on,0,0,1,,,,,,,,,1,,,83,42
725040,note_on,0,0,3,,,,,,,,,3,,,76,42
725160,set_tempo,720,1,0,,,,,,408163,,,,,,,
725220,note_off,660,0,2,,,,,,,,,2,,,80,0
725225,note_off,665,0,5,,,,,,,,,5,,,64,0
725232,note_off,192,0,3,,,,,,,,,3,,,76,0
725235,note_off,195,0,1,,,,,,,,,1,,,83,0
725280,note_on,55,0,5,,,,,,,,,5,,,64,49
725280,note_on,45,0,1,,,,,,,,,1,,,85,49
725280,note_on,60,0,2,,,,,,,,,2,,,80,49
725520,note_on,288,0,3,,,,,,,,,3,,,74,46
725640,set_tempo,480,1,0,,,,,,413793,,,,,,,
725760,note_off,480,0,1,,,,,,,,,1,,,85,0
725760,set_tempo,120,1,0,,,,,,508474,,,,,,,
725760,note_on,0,0,1,,,,,,,,,1,,,83,42
725760,note_on,0,0,3,,,,,,,,,3,,,76,42
725760,note_off,240,0,3,,,,,,,,,3,,,74,0
725940,note_off,660,0,2,,,,,,,,,2,,,80,0
725945,note_off,665,0,5,,,,,,,,,5,,,64,0
725952,note_off,192,0,3,,,,,,,,,3,,,76,0
725955,note_off,195,0,1,,,,,,,,,1,,,83,0
727440,note_on,0,0,1,,,,,,,,,1,,,57,98
727440,control_change,1495,0,5,,,,,,,64,0,5,,,,
727440,control_change,1485,0,1,,,,,,,64,0,1,,,,
727440,control_change,1500,0,2,,,,,,,64,0,2,,,,
727440,set_tempo,1680,1,0,,,,,,389610,,,,,,,
727440,control_change,7320,0,4,,,,,,,64,0,4,,,,
727440,control_change,1488,0,3,,,,,,,64,0,3,,,,
727440,note_on,0,0,5,,,,,,,,,5,,,45,98
727800,note_off,360,0,5,,,,,,,,,5,,,45,0
727800,note_on,0,0,5,,,,,,,,,5,,,47,99
727800,note_off,360,0,1,,,,,,,,,1,,,57,0
727800,note_on,0,0,1,,,,,,,,,1,,,59,99
727920,note_off,120,0,5,,,,,,,,,5,,,47,0
727920,note_on,0,0,5,,,,,,,,,5,,,48,99
727920,note_on,0,0,1,,,,,,,,,1,,,60,99
727920,note_off,120,0,1,,,,,,,,,1,,,59,0
728040,note_off,120,0,1,,,,,,,,,1,,,60,0
728040,note_on,0,0,1,,,,,,,,,1,,,62,100
728040,note_off,120,0,5,,,,,,,,,5,,,48,0
728040,note_on,0,0,5,,,,,,,,,5,,,50,100
728160,control_change,120,0,5,,,,,,,64,0,5,,,,
728160,note_off,0,0,5,,,,,,,,,5,,,50,0
728160,note_on,0,0,5,,,,,,,,,5,,,52,100
728160,note_off,120,0,1,,,,,,,,,1,,,62,0
728160,note_on,0,0,1,,,,,,,,,1,,,64,100
728160,control_change,720,0,3,,,,,,,64,0,3,,,,
728160,end_of_track,0,1,3,,,,,,,,,,,,,
728160,control_change,720,0,4,,,,,,,64,0,4,,,,
728160,control_change,720,0,2,,,,,,,64,0,2,,,,
728520,note_off,360,0,1,,,,,,,,,1,,,64,0
728520,note_off,360,0,5,,,,,,,,,5,,,52,0
728640,note_on,120,0,1,,,,,,,,,1,,,66,102
728640,note_on,120,0,5,,,,,,,,,5,,,54,102
728760,note_on,0,0,5,,,,,,,,,5,,,56,102
728760,note_off,120,0,5,,,,,,,,,5,,,54,0
728760,note_off,120,0,1,,,,,,,,,1,,,66,0
728760,note_on,0,0,1,,,,,,,,,1,,,68,102
728880,note_off,120,0,5,,,,,,,,,5,,,56,0
728880,note_on,0,0,1,,,,,,,,,1,,,69,103
728880,note_on,0,0,5,,,,,,,,,5,,,57,103
728880,note_off,120,0,1,,,,,,,,,1,,,68,0
729120,note_on,0,0,1,,,,,,,,,1,,,71,104
729120,note_off,240,0,1,,,,,,,,,1,,,69,0
729120,note_on,0,0,5,,,,,,,,,5,,,59,104
729120,note_off,240,0,5,,,,,,,,,5,,,57,0
729240,note_off,120,0,1,,,,,,,,,1,,,71,0
729240,note_on,0,0,1,,,,,,,,,1,,,72,104
729240,note_on,0,0,5,,,,,,,,,5,,,60,104
729240,note_off,120,0,5,,,,,,,,,5,,,59,0
729360,note_off,120,0,1,,,,,,,,,1,,,72,0
729360,note_off,120,0,5,,,,,,,,,5,,,60,0
729360,note_on,0,0,5,,,,,,,,,5,,,62,104
729360,note_on,0,0,1,,,,,,,,,1,,,74,104
729480,note_off,120,0,5,,,,,,,,,5,,,62,0
729480,note_on,0,0,5,,,,,,,,,5,,,64,105
729480,note_off,120,0,1,,,,,,,,,1,,,74,0
729480,note_on,0,0,1,,,,,,,,,1,,,76,105
729540,set_tempo,2100,1,0,,,,,,394736,,,,,,,
729600,note_off,120,0,1,,,,,,,,,1,,,76,0
729600,note_on,0,0,5,,,,,,,,,5,,,65,120
729600,note_off,120,0,5,,,,,,,,,5,,,64,0
729600,note_on,0,0,1,,,,,,,,,1,,,77,120
730980,note_off,1380,0,5,,,,,,,,,5,,,65,0
730980,note_off,1380,0,1,,,,,,,,,1,,,77,0
731040,note_on,2880,0,2,,,,,,,,,2,,,64,63
731040,note_on,60,0,5,,,,,,,,,5,,,48,63
731040,note_on,60,0,1,,,,,,,,,1,,,76,63
731040,note_on,2880,0,4,,,,,,,,,4,,,57,63
731760,note_on,0,0,1,,,,,,,,,1,,,69,62
731760,note_on,0,0,4,,,,,,,,,4,,,60,62
731760,note_on,0,0,2,,,,,,,,,2,,,63,62
731760,note_off,720,0,1,,,,,,,,,1,,,76,0
731760,note_off,720,0,5,,,,,,,,,5,,,48,0
731760,note_on,0,0,5,,,,,,,,,5,,,53,62
731760,note_off,720,0,4,,,,,,,,,4,,,57,0
731760,note_off,720,0,2,,,,,,,,,2,,,64,0
732420,note_off,660,0,5,,,,,,,,,5,,,53,0
732420,note_off,660,0,4,,,,,,,,,4,,,60,0
732420,note_on,660,0,1,,,,,,,,,1,,,71,61
732427,note_off,667,0,2,,,,,,,,,2,,,63,0
732427,note_off,7,0,1,,,,,,,,,1,,,69,0
732480,note_on,53,0,2,,,,,,,,,2,,,64,60
732480,note_off,53,0,1,,,,,,,,,1,,,71,0
732480,note_on,60,0,5,,,,,,,,,5,,,52,60
732480,note_on,60,0,4,,,,,,,,,4,,,60,60
732480,note_on,0,0,1,,,,,,,,,1,,,69,60
732720,note_on,0,0,1,,,,,,,,,1,,,68,60
732720,note_off,240,0,1,,,,,,,,,1,,,69,0
732960,note_off,240,0,1,,,,,,,,,1,,,68,0
732960,note_on,0,0,1,,,,,,,,,1,,,69,59
733080,set_tempo,3540,1,0,,,,,,400000,,,,,,,
733200,note_off,240,0,1,,,,,,,,,1,,,69,0
733200,note_on,0,0,1,,,,,,,,,1,,,72,62
733200,note_on,0,0,4,,,,,,,,,4,,,62,58
733200,note_off,720,0,4,,,,,,,,,4,,,60,0
733200,note_off,720,0,2,,,,,,,,,2,,,64,0
733200,note_on,0,0,2,,,,,,,,,2,,,68,62
733680,note_off,480,0,1,,,,,,,,,1,,,72,0
733680,note_on,0,0,1,,,,,,,,,1,,,71,52
733680,set_tempo,600,1,0,,,,,,408163,,,,,,,
733920,note_off,240,0,1,,,,,,,,,1,,,71,0
733920,note_off,720,0,2,,,,,,,,,2,,,68,0
733920,note_off,1440,0,5,,,,,,,,,5,,,52,0
733920,note_off,720,0,4,,,,,,,,,4,,,62,0
735360,set_tempo,1680,1,0,,,,,,389610,,,,,,,
735360,note_on,1440,0,1,,,,,,,,,1,,,57,90
735360,note_on,1440,0,5,,,,,,,,,5,,,45,90
735720,note_on,0,0,1,,,,,,,,,1,,,59,91
735720,note_off,360,0,1,,,,,,,,,1,,,57,0
735720,note_off,360,0,5,,,,,,,,,5,,,45,0
735720,note_on,0,0,5,,,,,,,,,5,,,47,91
735840,note_off,120,0,1,,,,,,,,,1,,,59,0
735840,note_off,120,0,5,,,,,,,,,5,,,47,0
735840,note_on,0,0,5,,,,,,,,,5,,,48,92
735840,note_on,0,0,1,,,,,,,,,1,,,60,92
735960,note_on,0,0,1,,,,,,,,,1,,,62,92
735960,note_off,120,0,1,,,,,,,,,1,,,60,0
735960,note_off,120,0,5,,,,,,,,,5,,,48,0
735960,note_on,0,0,5,,,,,,,,,5,,,50,92
736080,note_on,0,0,1,,,,,,,,,1,,,64,93
736080,note_off,120,0,1,,,,,,,,,1,,,62,0
736080,note_off,120,0,5,,,,,,,,,5,,,50,0
736080,note_on,0,0,5,,,,,,,,,5,,,52,93
736440,note_off,360,0,1,,,,,,,,,1,,,64,0
736440,note_off,360,0,5,,,,,,,,,5,,,52,0
736560,note_on,120,0,1,,,,,,,,,1,,,66,95
736560,note_on,120,0,5,,,,,,,,,5,,,54,95
736680,note_on,0,0,1,,,,,,,,,1,,,68,96
736680,note_on,0,0,5,,,,,,,,,5,,,56,96
736680,note_off,120,0,5,,,,,,,,,5,,,54,0
736680,note_off,120,0,1,,,,,,,,,1,,,66,0
736800,note_on,0,0,5,,,,,,,,,5,,,57,96
736800,note_on,0,0,1,,,,,,,,,1,,,69,96
736800,note_off,120,0,1,,,,,,,,,1,,,68,0
736800,note_off,120,0,5,,,,,,,,,5,,,56,0
737040,note_on,0,0,1,,,,,,,,,1,,,71,97
737040,note_off,240,0,5,,,,,,,,,5,,,57,0
737040,note_off,240,0,1,,,,,,,,,1,,,69,0
737040,note_on,0,0,5,,,,,,,,,5,,,59,97
737160,note_off,120,0,1,,,,,,,,,1,,,71,0
737160,note_off,120,0,5,,,,,,,,,5,,,59,0
737160,note_on,0,0,5,,,,,,,,,5,,,60,98
737160,note_on,0,0,1,,,,,,,,,1,,,72,98
737280,note_on,0,0,1,,,,,,,,,1,,,74,98
737280,note_off,120,0,1,,,,,,,,,1,,,72,0
737280,note_off,120,0,5,,,,,,,,,5,,,60,0
737280,note_on,0,0,5,,,,,,,,,5,,,62,98
737400,note_on,0,0,5,,,,,,,,,5,,,64,99
737400,note_off,120,0,1,,,,,,,,,1,,,74,0
737400,note_on,0,0,1,,,,,,,,,1,,,76,99
737400,note_off,120,0,5,,,,,,,,,5,,,62,0
737460,set_tempo,2100,1,0,,,,,,394736,,,,,,,
737520,note_on,0,0,1,,,,,,,,,1,,,77,115
737520,note_on,0,0,5,,,,,,,,,5,,,65,115
737520,note_off,120,0,5,,,,,,,,,5,,,64,0
737520,note_off,120,0,1,,,,,,,,,1,,,76,0
738960,note_on,5040,0,4,,,,,,,,,4,,,58,57
738960,note_on,1440,0,5,,,,,,,,,5,,,50,57
739675,note_off,2155,0,1,,,,,,,,,1,,,77,0
739680,note_off,720,0,5,,,,,,,,,5,,,50,0
739680,note_off,720,0,4,,,,,,,,,4,,,58,0
739680,note_on,0,0,4,,,,,,,,,4,,,60,56
739680,note_on,0,0,5,,,,,,,,,5,,,55,56
739680,note_on,5,0,1,,,,,,,,,1,,,70,56
739680,note_on,5760,0,2,,,,,,,,,2,,,64,56
739685,note_off,5,0,5,,,,,,,,,5,,,65,0
740340,note_off,655,0,5,,,,,,,,,5,,,55,0
740340,note_off,660,0,4,,,,,,,,,4,,,60,0
740340,note_on,660,0,1,,,,,,,,,1,,,72,54
740347,note_off,667,0,2,,,,,,,,,2,,,64,0
740347,note_off,7,0,1,,,,,,,,,1,,,70,0
740400,note_off,53,0,1,,,,,,,,,1,,,72,0
740400,note_on,53,0,2,,,,,,,,,2,,,65,55
740400,note_on,0,0,1,,,,,,,,,1,,,70,55
740400,note_on,60,0,4,,,,,,,,,4,,,62,55
740400,note_on,60,0,5,,,,,,,,,5,,,53,55
740640,note_off,240,0,1,,,,,,,,,1,,,70,0
740640,note_on,0,0,1,,,,,,,,,1,,,69,54
740880,note_off,240,0,1,,,,,,,,,1,,,69,0
740880,note_on,0,0,1,,,,,,,,,1,,,70,52
741000,set_tempo,3540,1,0,,,,,,400000,,,,,,,
741120,note_off,720,0,4,,,,,,,,,4,,,62,0
741120,note_on,0,0,4,,,,,,,,,4,,,63,51
741120,note_on,0,0,2,,,,,,,,,2,,,69,54
741120,note_off,240,0,1,,,,,,,,,1,,,70,0
741120,note_on,0,0,1,,,,,,,,,1,,,74,54
741120,note_off,720,0,2,,,,,,,,,2,,,65,0
741600,note_off,480,0,1,,,,,,,,,1,,,74,0
741600,note_on,0,0,1,,,,,,,,,1,,,72,45
741600,set_tempo,600,1,0,,,,,,408163,,,,,,,
741840,note_off,1440,0,5,,,,,,,,,5,,,53,0
741840,note_off,720,0,2,,,,,,,,,2,,,69,0
741840,note_off,720,0,4,,,,,,,,,4,,,63,0
741840,note_off,240,0,1,,,,,,,,,1,,,72,0
742500,note_on,660,0,1,,,,,,,,,1,,,71,54
742560,note_on,0,0,1,,,,,,,,,1,,,69,55
742560,note_on,720,0,4,,,,,,,,,4,,,60,55
742560,note_on,720,0,5,,,,,,,,,5,,,52,55
742560,note_off,60,0,1,,,,,,,,,1,,,71,0
742560,note_on,720,0,2,,,,,,,,,2,,,64,55
742800,note_on,0,0,1,,,,,,,,,1,,,68,54
742800,note_off,240,0,1,,,,,,,,,1,,,69,0
743040,note_on,0,0,1,,,,,,,,,1,,,69,52
743040,note_off,240,0,1,,,,,,,,,1,,,68,0
743160,set_tempo,1560,1,0,,,,,,413793,,,,,,,
743280,note_off,720,0,4,,,,,,,,,4,,,60,0
743280,note_on,0,0,4,,,,,,,,,4,,,62,51
743280,note_on,0,0,1,,,,,,,,,1,,,72,54
743280,note_off,240,0,1,,,,,,,,,1,,,69,0
743280,note_off,720,0,2,,,,,,,,,2,,,64,0
743280,note_on,0,0,2,,,,,,,,,2,,,68,54
743760,note_off,480,0,1,,,,,,,,,1,,,72,0
743760,note_on,0,0,1,,,,,,,,,1,,,71,45
743760,set_tempo,600,1,0,,,,,,400000,,,,,,,
743880,set_tempo,120,1,0,,,,,,952380,,,,,,,
743940,set_tempo,60,1,0,,,,,,2727272,,,,,,,
744000,note_on,0,0,2,,,,,,,,,2,,,65,117
744000,set_tempo,60,1,0,,,,,,389610,,,,,,,
744000,note_off,720,0,2,,,,,,,,,2,,,68,0
744000,note_on,0,0,5,,,,,,,,,5,,,53,117
744000,note_on,0,0,1,,,,,,,,,1,,,69,117
744000,note_off,1440,0,5,,,,,,,,,5,,,52,0
744000,note_off,720,0,4,,,,,,,,,4,,,62,0
744000,note_on,0,0,4,,,,,,,,,4,,,60,117
744000,note_off,240,0,1,,,,,,,,,1,,,71,0
744960,note_off,960,0,5,,,,,,,,,5,,,53,0
744960,note_off,960,0,4,,,,,,,,,4,,,60,0
744960,note_off,960,0,2,,,,,,,,,2,,,65,0
744960,note_off,960,0,1,,,,,,,,,1,,,69,0
745080,note_on,120,0,1,,,,,,,,,1,,,69,103
745200,note_off,120,0,1,,,,,,,,,1,,,69,0
745200,note_on,0,0,1,,,,,,,,,1,,,72,105
745320,note_on,0,0,1,,,,,,,,,1,,,77,107
745320,note_off,120,0,1,,,,,,,,,1,,,72,0
745416,note_off,96,0,1,,,,,,,,,1,,,77,0
745440,note_on,24,0,1,,,,,,,,,1,,,81,108
745440,note_on,480,0,5,,,,,,,,,5,,,65,108
745440,note_on,480,0,4,,,,,,,,,4,,,72,108
745440,note_on,480,0,2,,,,,,,,,2,,,77,108
745596,note_off,156,0,5,,,,,,,,,5,,,65,0
745596,note_off,156,0,4,,,,,,,,,4,,,72,0
745596,note_off,156,0,1,,,,,,,,,1,,,81,0
745596,note_off,156,0,2,,,,,,,,,2,,,77,0
745680,note_on,84,0,2,,,,,,,,,2,,,77,107
745680,note_on,84,0,1,,,,,,,,,1,,,81,107
745680,note_on,84,0,5,,,,,,,,,5,,,65,107
745680,note_on,84,0,4,,,,,,,,,4,,,72,107
745836,note_off,156,0,5,,,,,,,,,5,,,65,0
745836,note_off,156,0,2,,,,,,,,,2,,,77,0
745836,note_off,156,0,4,,,,,,,,,4,,,72,0
745836,note_off,156,0,1,,,,,,,,,1,,,81,0
745920,note_on,84,0,1,,,,,,,,,1,,,81,105
745920,note_on,84,0,4,,,,,,,,,4,,,72,105
745920,note_on,84,0,5,,,,,,,,,5,,,65,105
745920,note_on,84,0,2,,,,,,,,,2,,,77,105
746076,note_off,156,0,1,,,,,,,,,1,,,81,0
746076,note_off,156,0,4,,,,,,,,,4,,,72,0
746076,note_off,156,0,5,,,,,,,,,5,,,65,0
746076,note_off,156,0,2,,,,,,,,,2,,,77,0
746160,note_on,84,0,4,,,,,,,,,4,,,72,104
746160,note_on,84,0,5,,,,,,,,,5,,,65,104
746160,note_on,84,0,2,,,,,,,,,2,,,77,104
746160,note_on,84,0,1,,,,,,,,,1,,,81,104
746316,note_off,156,0,1,,,,,,,,,1,,,81,0
746316,note_off,156,0,2,,,,,,,,,2,,,77,0
746316,note_off,156,0,5,,,,,,,,,5,,,65,0
746316,note_off,156,0,4,,,,,,,,,4,,,72,0
746400,note_on,84,0,4,,,,,,,,,4,,,72,102
746400,note_on,84,0,5,,,,,,,,,5,,,65,102
746400,note_on,84,0,1,,,,,,,,,1,,,81,102
746400,note_on,84,0,2,,,,,,,,,2,,,77,102
746556,note_off,156,0,5,,,,,,,,,5,,,65,0
746556,note_off,156,0,4,,,,,,,,,4,,,72,0
746556,note_off,156,0,2,,,,,,,,,2,,,77,0
746556,note_off,156,0,1,,,,,,,,,1,,,81,0
746640,note_on,84,0,2,,,,,,,,,2,,,77,100
746640,note_on,84,0,1,,,,,,,,,1,,,81,100
746640,note_on,84,0,5,,,,,,,,,5,,,65,100
746640,note_on,84,0,4,,,,,,,,,4,,,72,100
746796,note_off,156,0,5,,,,,,,,,5,,,65,0
746796,note_off,156,0,1,,,,,,,,,1,,,81,0
746796,note_off,156,0,2,,,,,,,,,2,,,77,0
746796,note_off,156,0,4,,,,,,,,,4,,,72,0
746880,note_on,84,0,1,,,,,,,,,1,,,82,96
746880,note_on,84,0,2,,,,,,,,,2,,,79,96
746880,note_on,0,0,2,,,,,,,,,2,,,76,96
746880,note_on,84,0,4,,,,,,,,,4,,,73,96
746880,note_on,84,0,5,,,,,,,,,5,,,65,96
747960,note_on,1080,0,1,,,,,,,,,1,,,61,54
748080,note_on,0,0,1,,,,,,,,,1,,,64,56
748080,note_off,120,0,1,,,,,,,,,1,,,61,0
748200,note_on,0,0,1,,,,,,,,,1,,,67,58
748200,note_off,120,0,1,,,,,,,,,1,,,64,0
748296,note_off,96,0,1,,,,,,,,,1,,,67,0
748320,note_on,0,0,5,,,,,,,,,5,,,53,60
748320,note_off,1440,0,5,,,,,,,,,5,,,65,0
748320,note_off,1440,0,4,,,,,,,,,4,,,73,0
748320,note_on,0,0,4,,,,,,,,,4,,,61,60
748320,note_off,1440,0,2,,,,,,,,,2,,,76,0
748320,note_off,0,0,2,,,,,,,,,2,,,79,0
748320,note_on,0,0,1,,,,,,,,,1,,,70,60
748320,note_off,24,0,1,,,,,,,,,1,,,82,0
748320,note_on,0,0,4,,,,,,,,,4,,,64,60
748320,note_on,0,0,2,,,,,,,,,2,,,67,60
748476,note_off,156,0,4,,,,,,,,,4,,,61,0
748476,note_off,156,0,2,,,,,,,,,2,,,67,0
748476,note_off,156,0,5,,,,,,,,,5,,,53,0
748476,note_off,0,0,4,,,,,,,,,4,,,64,0
748476,note_off,156,0,1,,,,,,,,,1,,,70,0
748560,note_on,84,0,1,,,,,,,,,1,,,70,58
748560,note_on,84,0,2,,,,,,,,,2,,,67,58
748560,note_on,84,0,5,,,,,,,,,5,,,53,58
748560,note_on,0,0,4,,,,,,,,,4,,,64,58
748560,note_on,84,0,4,,,,,,,,,4,,,61,58
748716,note_off,156,0,2,,,,,,,,,2,,,67,0
748716,note_off,156,0,5,,,,,,,,,5,,,53,0
748716,note_off,0,0,4,,,,,,,,,4,,,61,0
748716,note_off,156,0,4,,,,,,,,,4,,,64,0
748716,note_off,156,0,1,,,,,,,,,1,,,70,0
748800,note_on,84,0,1,,,,,,,,,1,,,70,57
748800,note_on,0,0,4,,,,,,,,,4,,,64,57
748800,note_on,84,0,2,,,,,,,,,2,,,67,57
748800,note_on,84,0,4,,,,,,,,,4,,,61,57
748800,note_on,84,0,5,,,,,,,,,5,,,53,57
748956,note_off,156,0,5,,,,,,,,,5,,,53,0
748956,note_off,156,0,2,,,,,,,,,2,,,67,0
748956,note_off,156,0,1,,,,,,,,,1,,,70,0
748956,note_off,156,0,4,,,,,,,,,4,,,64,0
748956,note_off,0,0,4,,,,,,,,,4,,,61,0
749040,note_on,0,0,4,,,,,,,,,4,,,64,55
749040,note_on,84,0,4,,,,,,,,,4,,,61,55
749040,note_on,84,0,2,,,,,,,,,2,,,67,55
749040,note_on,84,0,5,,,,,,,,,5,,,53,55
749040,note_on,84,0,1,,,,,,,,,1,,,70,55
749196,note_off,156,0,1,,,,,,,,,1,,,70,0
749196,note_off,156,0,2,,,,,,,,,2,,,67,0
749196,note_off,156,0,5,,,,,,,,,5,,,53,0
749196,note_off,156,0,4,,,,,,,,,4,,,64,0
749196,note_off,0,0,4,,,,,,,,,4,,,61,0
749280,note_on,84,0,1,,,,,,,,,1,,,70,54
749280,note_on,84,0,4,,,,,,,,,4,,,61,54
749280,note_on,0,0,4,,,,,,,,,4,,,64,54
749280,note_on,84,0,2,,,,,,,,,2,,,67,54
749280,note_on,84,0,5,,,,,,,,,5,,,53,54
749436,note_off,156,0,5,,,,,,,,,5,,,53,0
749436,note_off,156,0,2,,,,,,,,,2,,,67,0
749436,note_off,156,0,1,,,,,,,,,1,,,70,0
749436,note_off,0,0,4,,,,,,,,,4,,,61,0
749436,note_off,156,0,4,,,,,,,,,4,,,64,0
749520,note_on,0,0,4,,,,,,,,,4,,,64,52
749520,note_on,84,0,4,,,,,,,,,4,,,61,52
749520,note_on,84,0,2,,,,,,,,,2,,,67,52
749520,note_on,84,0,1,,,,,,,,,1,,,70,52
749520,note_on,84,0,5,,,,,,,,,5,,,53,52
749676,note_off,156,0,2,,,,,,,,,2,,,67,0
749676,note_off,156,0,1,,,,,,,,,1,,,70,0
749676,note_off,156,0,5,,,,,,,,,5,,,53,0
749676,note_off,156,0,4,,,,,,,,,4,,,64,0
749676,note_off,0,0,4,,,,,,,,,4,,,61,0
749760,note_on,84,0,2,,,,,,,,,2,,,65,48
749760,note_on,84,0,4,,,,,,,,,4,,,60,48
749760,note_on,84,0,5,,,,,,,,,5,,,53,48
749760,note_on,84,0,1,,,,,,,,,1,,,69,48
750720,note_off,960,0,4,,,,,,,,,4,,,60,0
750720,note_off,960,0,2,,,,,,,,,2,,,65,0
750720,note_off,960,0,1,,,,,,,,,1,,,69,0
750720,note_off,960,0,5,,,,,,,,,5,,,53,0
750840,note_on,120,0,1,,,,,,,,,1,,,69,93
750960,note_on,0,0,1,,,,,,,,,1,,,72,95
750960,note_off,120,0,1,,,,,,,,,1,,,69,0
751080,note_off,120,0,1,,,,,,,,,1,,,72,0
751080,note_on,0,0,1,,,,,,,,,1,,,77,97
751176,note_off,96,0,1,,,,,,,,,1,,,77,0
751200,note_on,480,0,5,,,,,,,,,5,,,65,99
751200,note_on,24,0,1,,,,,,,,,1,,,81,99
751200,note_on,480,0,2,,,,,,,,,2,,,77,99
751200,note_on,480,0,4,,,,,,,,,4,,,72,99
751356,note_off,156,0,1,,,,,,,,,1,,,81,0
751356,note_off,156,0,2,,,,,,,,,2,,,77,0
751356,note_off,156,0,5,,,,,,,,,5,,,65,0
751356,note_off,156,0,4,,,,,,,,,4,,,72,0
751440,note_on,84,0,5,,,,,,,,,5,,,65,95
751440,note_on,84,0,1,,,,,,,,,1,,,81,95
751440,note_on,84,0,2,,,,,,,,,2,,,77,95
751440,note_on,84,0,4,,,,,,,,,4,,,72,95
751596,note_off,156,0,1,,,,,,,,,1,,,81,0
751596,note_off,156,0,5,,,,,,,,,5,,,65,0
751596,note_off,156,0,2,,,,,,,,,2,,,77,0
751596,note_off,156,0,4,,,,,,,,,4,,,72,0
751680,note_on,84,0,2,,,,,,,,,2,,,77,93
751680,note_on,84,0,4,,,,,,,,,4,,,72,93
751680,note_on,84,0,5,,,,,,,,,5,,,65,93
751680,note_on,84,0,1,,,,,,,,,1,,,81,93
751836,note_off,156,0,4,,,,,,,,,4,,,72,0
751836,note_off,156,0,2,,,,,,,,,2,,,77,0
751836,note_off,156,0,1,,,,,,,,,1,,,81,0
751836,note_off,156,0,5,,,,,,,,,5,,,65,0
751920,note_on,84,0,2,,,,,,,,,2,,,77,91
751920,note_on,84,0,5,,,,,,,,,5,,,65,91
751920,note_on,84,0,1,,,,,,,,,1,,,81,91
751920,note_on,84,0,4,,,,,,,,,4,,,72,91
752076,note_off,156,0,2,,,,,,,,,2,,,77,0
752076,note_off,156,0,4,,,,,,,,,4,,,72,0
752076,note_off,156,0,1,,,,,,,,,1,,,81,0
752076,note_off,156,0,5,,,,,,,,,5,,,65,0
752160,note_on,84,0,2,,,,,,,,,2,,,77,90
752160,note_on,84,0,4,,,,,,,,,4,,,72,90
752160,note_on,84,0,5,,,,,,,,,5,,,65,90
752160,note_on,84,0,1,,,,,,,,,1,,,81,90
752316,note_off,156,0,1,,,,,,,,,1,,,81,0
752316,note_off,156,0,5,,,,,,,,,5,,,65,0
752316,note_off,156,0,2,,,,,,,,,2,,,77,0
752316,note_off,156,0,4,,,,,,,,,4,,,72,0
752400,note_on,84,0,1,,,,,,,,,1,,,81,88
752400,note_on,84,0,2,,,,,,,,,2,,,77,88
752400,note_on,84,0,4,,,,,,,,,4,,,72,88
752400,note_on,84,0,5,,,,,,,,,5,,,65,88
752556,note_off,156,0,5,,,,,,,,,5,,,65,0
752556,note_off,156,0,2,,,,,,,,,2,,,77,0
752556,note_off,156,0,4,,,,,,,,,4,,,72,0
752556,note_off,156,0,1,,,,,,,,,1,,,81,0
752640,note_on,84,0,1,,,,,,,,,1,,,82,84
752640,note_on,0,0,2,,,,,,,,,2,,,79,84
752640,note_on,84,0,2,,,,,,,,,2,,,76,84
752640,note_on,84,0,4,,,,,,,,,4,,,73,84
752640,note_on,84,0,5,,,,,,,,,5,,,65,84
753720,note_on,1080,0,1,,,,,,,,,1,,,61,43
753840,note_off,120,0,1,,,,,,,,,1,,,61,0
753840,note_on,0,0,1,,,,,,,,,1,,,64,45
753960,note_off,120,0,1,,,,,,,,,1,,,64,0
753960,note_on,0,0,1,,,,,,,,,1,,,67,47
754056,note_off,96,0,1,,,,,,,,,1,,,67,0
754080,note_on,0,0,5,,,,,,,,,5,,,53,49
754080,note_off,1440,0,5,,,,,,,,,5,,,65,0
754080,note_on,0,0,1,,,,,,,,,1,,,70,49
754080,note_off,0,0,2,,,,,,,,,2,,,76,0
754080,note_off,1440,0,4,,,,,,,,,4,,,73,0
754080,note_on,0,0,4,,,,,,,,,4,,,61,49
754080,note_on,0,0,4,,,,,,,,,4,,,64,49
754080,note_on,0,0,4,,,,,,,,,4,,,67,49
754080,note_off,1440,0,2,,,,,,,,,2,,,79,0
754080,note_off,24,0,1,,,,,,,,,1,,,82,0
754236,note_off,156,0,1,,,,,,,,,1,,,70,0
754236,note_off,0,0,4,,,,,,,,,4,,,64,0
754236,note_off,0,0,4,,,,,,,,,4,,,61,0
754236,note_off,156,0,4,,,,,,,,,4,,,67,0
754236,note_off,156,0,5,,,,,,,,,5,,,53,0
754320,note_on,84,0,1,,,,,,,,,1,,,70,48
754320,note_on,0,0,4,,,,,,,,,4,,,61,48
754320,note_on,84,0,4,,,,,,,,,4,,,64,48
754320,note_on,84,0,5,,,,,,,,,5,,,53,48
754320,note_on,0,0,4,,,,,,,,,4,,,67,48
754476,note_off,156,0,4,,,,,,,,,4,,,67,0
754476,note_off,156,0,1,,,,,,,,,1,,,70,0
754476,note_off,0,0,4,,,,,,,,,4,,,64,0
754476,note_off,156,0,5,,,,,,,,,5,,,53,0
754476,note_off,0,0,4,,,,,,,,,4,,,61,0
754560,note_on,0,0,4,,,,,,,,,4,,,67,46
754560,note_on,0,0,4,,,,,,,,,4,,,61,46
754560,note_on,84,0,4,,,,,,,,,4,,,64,46
754560,note_on,84,0,1,,,,,,,,,1,,,70,46
754560,note_on,84,0,5,,,,,,,,,5,,,53,46
754716,note_off,156,0,1,,,,,,,,,1,,,70,0
754716,note_off,0,0,4,,,,,,,,,4,,,64,0
754716,note_off,0,0,4,,,,,,,,,4,,,61,0
754716,note_off,156,0,5,,,,,,,,,5,,,53,0
754716,note_off,156,0,4,,,,,,,,,4,,,67,0
754800,note_on,0,0,4,,,,,,,,,4,,,61,45
754800,note_on,0,0,4,,,,,,,,,4,,,67,45
754800,note_on,84,0,5,,,,,,,,,5,,,53,45
754800,note_on,84,0,1,,,,,,,,,1,,,70,45
754800,note_on,84,0,4,,,,,,,,,4,,,64,45
754956,note_off,0,0,4,,,,,,,,,4,,,64,0
754956,note_off,0,0,4,,,,,,,,,4,,,61,0
754956,note_off,156,0,4,,,,,,,,,4,,,67,0
754956,note_off,156,0,5,,,,,,,,,5,,,53,0
754956,note_off,156,0,1,,,,,,,,,1,,,70,0
755040,note_on,84,0,1,,,,,,,,,1,,,70,44
755040,note_on,84,0,5,,,,,,,,,5,,,53,44
755040,note_on,84,0,4,,,,,,,,,4,,,64,44
755040,note_on,0,0,4,,,,,,,,,4,,,61,44
755040,note_on,0,0,4,,,,,,,,,4,,,67,44
755196,note_off,156,0,4,,,,,,,,,4,,,67,0
755196,note_off,156,0,5,,,,,,,,,5,,,53,0
755196,note_off,0,0,4,,,,,,,,,4,,,61,0
755196,note_off,0,0,4,,,,,,,,,4,,,64,0
755196,note_off,156,0,1,,,,,,,,,1,,,70,0
755280,note_on,0,0,4,,,,,,,,,4,,,67,42
755280,note_on,0,0,4,,,,,,,,,4,,,61,42
755280,note_on,84,0,4,,,,,,,,,4,,,64,42
755280,note_on,84,0,5,,,,,,,,,5,,,53,42
755280,note_on,84,0,1,,,,,,,,,1,,,70,42
755436,note_off,156,0,5,,,,,,,,,5,,,53,0
755436,note_off,0,0,4,,,,,,,,,4,,,64,0
755436,note_off,0,0,4,,,,,,,,,4,,,61,0
755436,note_off,156,0,4,,,,,,,,,4,,,67,0
755436,note_off,156,0,1,,,,,,,,,1,,,70,0
755520,note_on,84,0,5,,,,,,,,,5,,,53,38
755520,note_on,84,0,1,,,,,,,,,1,,,69,38
755520,note_on,84,0,4,,,,,,,,,4,,,60,38
755520,note_on,0,0,4,,,,,,,,,4,,,65,38
756480,note_off,960,0,1,,,,,,,,,1,,,69,0
756480,note_off,960,0,5,,,,,,,,,5,,,53,0
756480,note_off,0,0,4,,,,,,,,,4,,,60,0
756480,note_off,960,0,4,,,,,,,,,4,,,65,0
756600,note_on,120,0,5,,,,,,,,,5,,,57,80
756600,note_on,120,0,1,,,,,,,,,1,,,69,80
756720,note_on,0,0,5,,,,,,,,,5,,,53,84
756720,note_on,0,0,1,,,,,,,,,1,,,65,84
756720,note_off,120,0,1,,,,,,,,,1,,,69,0
756720,note_off,120,0,5,,,,,,,,,5,,,57,0
756840,note_off,120,0,5,,,,,,,,,5,,,53,0
756840,note_off,120,0,1,,,,,,,,,1,,,65,0
756840,note_on,0,0,5,,,,,,,,,5,,,48,87
756840,note_on,0,0,1,,,,,,,,,1,,,60,87
756936,note_off,96,0,1,,,,,,,,,1,,,60,0
756936,note_off,96,0,5,,,,,,,,,5,,,48,0
756960,note_on,24,0,1,,,,,,,,,1,,,57,93
756960,note_on,24,0,5,,,,,,,,,5,,,45,93
757116,note_off,156,0,5,,,,,,,,,5,,,45,0
757116,note_off,156,0,1,,,,,,,,,1,,,57,0
757200,note_on,84,0,1,,,,,,,,,1,,,57,91
757200,note_on,84,0,5,,,,,,,,,5,,,45,91
757356,note_off,156,0,5,,,,,,,,,5,,,45,0
757356,note_off,156,0,1,,,,,,,,,1,,,57,0
757440,note_on,84,0,5,,,,,,,,,5,,,45,89
757440,note_on,84,0,1,,,,,,,,,1,,,57,89
757596,note_off,156,0,5,,,,,,,,,5,,,45,0
757596,note_off,156,0,1,,,,,,,,,1,,,57,0
757680,note_on,84,0,5,,,,,,,,,5,,,45,88
757680,note_on,84,0,1,,,,,,,,,1,,,57,88
757836,note_off,156,0,1,,,,,,,,,1,,,57,0
757836,note_off,156,0,5,,,,,,,,,5,,,45,0
757920,note_on,84,0,1,,,,,,,,,1,,,57,86
757920,note_on,84,0,5,,,,,,,,,5,,,45,86
758076,note_off,156,0,1,,,,,,,,,1,,,57,0
758076,note_off,156,0,5,,,,,,,,,5,,,45,0
758160,note_on,84,0,5,,,,,,,,,5,,,45,84
758160,note_on,84,0,1,,,,,,,,,1,,,57,84
758316,note_off,156,0,1,,,,,,,,,1,,,57,0
758316,note_off,156,0,5,,,,,,,,,5,,,45,0
758400,note_on,1920,0,4,,,,,,,,,4,,,45,92
758400,note_on,0,0,4,,,,,,,,,4,,,49,92
758400,note_on,84,0,1,,,,,,,,,1,,,64,92
758400,note_on,0,0,2,,,,,,,,,2,,,61,92
758400,note_on,4320,0,2,,,,,,,,,2,,,57,92
758400,note_on,84,0,5,,,,,,,,,5,,,40,92
758400,note_on,0,0,4,,,,,,,,,4,,,52,92
759000,set_tempo,15000,1,0,,,,,,394736,,,,,,,
759120,set_tempo,120,1,0,,,,,,389610,,,,,,,
759840,note_off,1440,0,1,,,,,,,,,1,,,64,0
759840,note_on,0,0,4,,,,,,,,,4,,,52,41
759840,note_off,1440,0,4,,,,,,,,,4,,,52,0
759840,note_on,0,0,1,,,,,,,,,1,,,64,41
760032,note_off,192,0,1,,,,,,,,,1,,,64,0
760032,note_off,192,0,4,,,,,,,,,4,,,52,0
760080,note_on,48,0,1,,,,,,,,,1,,,64,39
760080,note_on,48,0,4,,,,,,,,,4,,,52,39
760272,note_off,192,0,1,,,,,,,,,1,,,64,0
760272,note_off,192,0,4,,,,,,,,,4,,,52,0
760320,note_on,48,0,1,,,,,,,,,1,,,64,38
760320,note_on,48,0,4,,,,,,,,,4,,,52,38
760512,note_off,192,0,1,,,,,,,,,1,,,64,0
760512,note_off,192,0,4,,,,,,,,,4,,,52,0
760560,note_on,48,0,4,,,,,,,,,4,,,52,36
760560,note_on,48,0,1,,,,,,,,,1,,,64,36
760752,note_off,192,0,4,,,,,,,,,4,,,52,0
760752,note_off,192,0,1,,,,,,,,,1,,,64,0
760800,note_on,48,0,4,,,,,,,,,4,,,52,35
760800,note_on,48,0,1,,,,,,,,,1,,,64,35
760992,note_off,192,0,4,,,,,,,,,4,,,52,0
760992,note_off,192,0,1,,,,,,,,,1,,,64,0
761040,note_on,48,0,1,,,,,,,,,1,,,64,33
761040,note_on,48,0,4,,,,,,,,,4,,,52,33
761160,set_tempo,2040,1,0,,,,,,394736,,,,,,,
761227,note_off,187,0,4,,,,,,,,,4,,,45,0
761232,note_off,192,0,1,,,,,,,,,1,,,64,0
761232,note_off,5,0,4,,,,,,,,,4,,,52,0
761235,note_off,2835,0,5,,,,,,,,,5,,,40,0
761235,note_off,2835,0,2,,,,,,,,,2,,,61,0
761235,note_off,0,0,2,,,,,,,,,2,,,57,0
761235,note_off,3,0,4,,,,,,,,,4,,,49,0
761280,note_on,45,0,2,,,,,,,,,2,,,59,44
761280,note_on,0,0,2,,,,,,,,,2,,,56,44
761280,note_on,45,0,5,,,,,,,,,5,,,40,44
761280,note_on,0,0,4,,,,,,,,,4,,,52,44
761280,note_on,45,0,4,,,,,,,,,4,,,50,44
761280,note_on,48,0,1,,,,,,,,,1,,,64,44
762720,note_on,0,0,4,,,,,,,,,4,,,52,33
762720,note_on,0,0,1,,,,,,,,,1,,,64,33
762720,note_off,1440,0,4,,,,,,,,,4,,,52,0
762720,note_off,1440,0,1,,,,,,,,,1,,,64,0
762912,note_off,192,0,4,,,,,,,,,4,,,52,0
762912,note_off,192,0,1,,,,,,,,,1,,,64,0
762960,note_on,48,0,1,,,,,,,,,1,,,64,32
762960,note_on,48,0,4,,,,,,,,,4,,,52,32
763152,note_off,192,0,1,,,,,,,,,1,,,64,0
763152,note_off,192,0,4,,,,,,,,,4,,,52,0
763200,note_on,48,0,1,,,,,,,,,1,,,64,31
763200,note_on,48,0,4,,,,,,,,,4,,,52,31
763392,note_off,192,0,1,,,,,,,,,1,,,64,0
763392,note_off,192,0,4,,,,,,,,,4,,,52,0
763440,note_on,48,0,1,,,,,,,,,1,,,64,30
763440,note_on,48,0,4,,,,,,,,,4,,,52,30
763632,note_off,192,0,1,,,,,,,,,1,,,64,0
763632,note_off,192,0,4,,,,,,,,,4,,,52,0
763680,note_on,48,0,1,,,,,,,,,1,,,64,28
763680,note_on,48,0,4,,,,,,,,,4,,,52,28
763872,note_off,192,0,1,,,,,,,,,1,,,64,0
763872,note_off,192,0,4,,,,,,,,,4,,,52,0
763920,note_on,48,0,4,,,,,,,,,4,,,52,27
763920,note_on,48,0,1,,,,,,,,,1,,,64,27
764040,set_tempo,2880,1,0,,,,,,400000,,,,,,,
764100,note_off,2820,0,2,,,,,,,,,2,,,59,0
764100,note_off,180,0,4,,,,,,,,,4,,,50,0
764107,note_off,7,0,2,,,,,,,,,2,,,56,0
764112,note_off,192,0,1,,,,,,,,,1,,,64,0
764112,note_off,12,0,4,,,,,,,,,4,,,52,0
764122,note_off,2842,0,5,,,,,,,,,5,,,40,0
764160,note_on,0,0,4,,,,,,,,,4,,,45,35
764160,note_on,48,0,4,,,,,,,,,4,,,40,35
764160,note_on,53,0,2,,,,,,,,,2,,,52,35
764160,note_on,0,0,2,,,,,,,,,2,,,49,35
764160,note_on,48,0,1,,,,,,,,,1,,,57,35
764160,note_on,38,0,5,,,,,,,,,5,,,33,35
765592,note_off,1432,0,1,,,,,,,,,1,,,57,0
765600,note_on,0,0,4,,,,,,,,,4,,,45,27
765600,note_off,1440,0,4,,,,,,,,,4,,,45,0
765600,note_on,8,0,1,,,,,,,,,1,,,57,27
765792,note_off,192,0,4,,,,,,,,,4,,,45,0
765792,note_off,192,0,1,,,,,,,,,1,,,57,0
765840,note_on,48,0,1,,,,,,,,,1,,,57,26
765840,note_on,48,0,4,,,,,,,,,4,,,45,26
766032,note_off,192,0,4,,,,,,,,,4,,,45,0
766032,note_off,192,0,1,,,,,,,,,1,,,57,0
766080,note_on,48,0,4,,,,,,,,,4,,,45,25
766080,note_on,48,0,1,,,,,,,,,1,,,57,25
766272,note_off,192,0,4,,,,,,,,,4,,,45,0
766272,note_off,192,0,1,,,,,,,,,1,,,57,0
766320,note_on,48,0,4,,,,,,,,,4,,,45,24
766320,note_on,48,0,1,,,,,,,,,1,,,57,24
766512,note_off,192,0,4,,,,,,,,,4,,,45,0
766512,note_off,192,0,1,,,,,,,,,1,,,57,0
766560,note_on,48,0,4,,,,,,,,,4,,,45,22
766560,note_on,48,0,1,,,,,,,,,1,,,57,22
766752,note_off,192,0,4,,,,,,,,,4,,,45,0
766752,note_off,192,0,1,,,,,,,,,1,,,57,0
766800,note_on,48,0,4,,,,,,,,,4,,,45,21
766800,note_on,48,0,1,,,,,,,,,1,,,57,21
766920,set_tempo,2880,1,0,,,,,,408163,,,,,,,
766992,note_off,192,0,4,,,,,,,,,4,,,45,0
766992,note_off,192,0,1,,,,,,,,,1,,,57,0
766995,note_off,2835,0,2,,,,,,,,,2,,,49,0
766995,note_off,3,0,4,,,,,,,,,4,,,40,0
767002,note_off,2842,0,5,,,,,,,,,5,,,33,0
767002,note_off,7,0,2,,,,,,,,,2,,,52,0
767040,note_on,38,0,2,,,,,,,,,2,,,52,28
767040,note_on,0,0,2,,,,,,,,,2,,,49,28
767040,note_on,38,0,5,,,,,,,,,5,,,33,28
767040,note_on,48,0,1,,,,,,,,,1,,,57,28
767040,note_on,0,0,4,,,,,,,,,4,,,45,28
767040,note_on,45,0,4,,,,,,,,,4,,,40,28
768472,note_off,1432,0,1,,,,,,,,,1,,,57,0
768480,note_on,0,0,4,,,,,,,,,4,,,45,21
768480,note_on,8,0,1,,,,,,,,,1,,,57,21
768480,note_off,1440,0,4,,,,,,,,,4,,,45,0
768672,note_off,192,0,1,,,,,,,,,1,,,57,0
768672,note_off,192,0,4,,,,,,,,,4,,,45,0
768720,note_on,48,0,4,,,,,,,,,4,,,45,20
768720,note_on,48,0,1,,,,,,,,,1,,,57,20
768912,note_off,192,0,4,,,,,,,,,4,,,45,0
768912,note_off,192,0,1,,,,,,,,,1,,,57,0
768960,note_on,48,0,4,,,,,,,,,4,,,45,18
768960,note_on,48,0,1,,,,,,,,,1,,,57,18
769152,note_off,192,0,4,,,,,,,,,4,,,45,0
769152,note_off,192,0,1,,,,,,,,,1,,,57,0
769200,note_on,48,0,1,,,,,,,,,1,,,57,17
769200,note_on,48,0,4,,,,,,,,,4,,,45,17
769392,note_off,192,0,1,,,,,,,,,1,,,57,0
769392,note_off,192,0,4,,,,,,,,,4,,,45,0
769440,note_on,48,0,1,,,,,,,,,1,,,57,15
769440,note_on,48,0,4,,,,,,,,,4,,,45,15
769560,set_tempo,2640,1,0,,,,,,413793,,,,,,,
769632,note_off,192,0,1,,,,,,,,,1,,,57,0
769632,note_off,192,0,4,,,,,,,,,4,,,45,0
769680,note_on,48,0,4,,,,,,,,,4,,,45,14
769680,note_on,48,0,1,,,,,,,,,1,,,57,14
769800,set_tempo,240,1,0,,,,,,461538,,,,,,,
769872,note_off,192,0,4,,,,,,,,,4,,,45,0
769872,note_off,192,0,1,,,,,,,,,1,,,57,0
769920,note_on,48,0,1,,,,,,,,,1,,,57,12
769920,note_on,48,0,4,,,,,,,,,4,,,45,12
769920,set_tempo,120,1,0,,,,,,612244,,,,,,,
769920,end_of_track,0,1,0,,,,,,,,,,,,,
770400,note_off,3360,0,2,,,,,,,,,2,,,49,0
770400,note_off,480,0,1,,,,,,,,,1,,,57,0
770400,note_off,480,0,4,,,,,,,,,4,,,45,0
770400,note_off,0,0,4,,,,,,,,,4,,,40,0
770415,note_off,15,0,2,,,,,,,,,2,,,52,0
770415,note_off,3375,0,5,,,,,,,,,5,,,33,0
770640,note_on,0,0,4,,,,,,,,,4,,,40,121
770640,note_on,225,0,5,,,,,,,,,5,,,45,121
770640,note_on,240,0,1,,,,,,,,,1,,,69,121
770640,note_on,0,0,1,,,,,,,,,1,,,81,121
770640,note_on,0,0,2,,,,,,,,,2,,,73,121
770640,note_on,0,0,5,,,,,,,,,5,,,33,121
770640,note_on,240,0,4,,,,,,,,,4,,,37,121
770640,note_on,225,0,2,,,,,,,,,2,,,76,121
771120,note_off,480,0,5,,,,,,,,,5,,,33,0
771120,end_of_track,0,1,2,,,,,,,,,,,,,
771120,note_off,0,0,4,,,,,,,,,4,,,37,0
771120,note_off,480,0,4,,,,,,,,,4,,,40,0
771120,note_off,0,0,5,,,,,,,,,5,,,45,0
771120,note_off,480,0,1,,,,,,,,,1,,,81,0
771120,note_off,0,0,1,,,,,,,,,1,,,69,0
771120,end_of_track,0,1,1,,,,,,,,,,,,,
771120,note_off,480,0,2,,,,,,,,,2,,,73,0
771120,note_off,0,0,2,,,,,,,,,2,,,76,0
771120,end_of_track,0,1,4,,,,,,,,,,,,,
771120,end_of_track,0,1,5,,,,,,,,,,,,,
