tick,type,time,meta,track,numerator,denominator,clocks_per_click,notated_32nd_notes_per_beat,key,tempo,port,program,channel,control,value,note,velocity
0,track_name,0,1,0,,,,,,,,,,,,,
0,program_change,0,0,4,,,,,,,,0,3,,,,
0,track_name,0,1,4,,,,,,,,,,,,,
0,midi_port,0,1,2,,,,,,,0,,,,,,
0,track_name,0,1,2,,,,,,,,,,,,,
0,program_change,0,0,2,,,,,,,,0,1,,,,
0,control_change,0,0,2,,,,,,,,,1,7,127,,
0,control_change,0,0,4,,,,,,,,,3,7,127,,
0,control_change,0,0,2,,,,,,,,,1,10,97,,
0,track_name,0,1,1,,,,,,,,,,,,,
0,program_change,0,0,1,,,,,,,,0,0,,,,
0,control_change,0,0,1,,,,,,,,,0,7,127,,
0,control_change,0,0,1,,,,,,,,,0,10,97,,
0,note_on,0,0,1,,,,,,,,,0,,,64,49
0,note_on,0,0,1,,,,,,,,,0,,,67,49
0,midi_port,0,1,1,,,,,,,0,,,,,,
0,control_change,0,0,4,,,,,,,,,3,10,30,,
0,midi_port,0,1,4,,,,,,,0,,,,,,
0,key_signature,0,1,0,,,,,C,,,,,,,,
0,note_on,0,0,3,,,,,,,,,2,,,60,36
0,control_change,0,0,3,,,,,,,,,2,10,30,,
0,control_change,0,0,3,,,,,,,,,2,7,127,,
0,program_change,0,0,3,,,,,,,,0,2,,,,
0,track_name,0,1,3,,,,,,,,,,,,,
0,midi_port,0,1,3,,,,,,,0,,,,,,
0,copyright,0,1,0,,,,,,,,,,,,,
0,set_tempo,0,1,0,,,,,,1250000,,,,,,,
0,text,0,1,0,,,,,,,,,,,,,
0,time_signature,0,1,0,1,8,12,8,,,,,,,,,
6,note_on,0,0,1,,,,,,,,,0,,,64,0
6,note_on,6,0,3,,,,,,,,,2,,,60,0
6,note_on,6,0,1,,,,,,,,,0,,,67,0
60,note_on,54,0,1,,,,,,,,,0,,,65,49
60,time_signature,60,1,0,3,8,12,8,,,,,,,,,
60,note_on,0,0,1,,,,,,,,,0,,,67,49
60,note_on,54,0,3,,,,,,,,,2,,,62,62
180,note_on,0,0,1,,,,,,,,,0,,,67,49
180,note_on,0,0,1,,,,,,,,,0,,,62,49
180,note_on,0,0,1,,,,,,,,,0,,,65,0
180,note_on,120,0,1,,,,,,,,,0,,,67,0
180,note_on,0,0,3,,,,,,,,,2,,,59,36
180,note_on,120,0,3,,,,,,,,,2,,,62,0
186,note_on,0,0,1,,,,,,,,,0,,,62,0
186,note_on,6,0,1,,,,,,,,,0,,,67,0
240,note_on,0,0,1,,,,,,,,,0,,,67,49
240,note_on,60,0,3,,,,,,,,,2,,,59,0
240,note_on,0,0,3,,,,,,,,,2,,,60,62
240,note_on,54,0,1,,,,,,,,,0,,,64,49
360,note_on,360,0,2,,,,,,,,,1,,,67,36
360,note_on,120,0,1,,,,,,,,,0,,,67,0
360,note_on,0,0,1,,,,,,,,,0,,,64,0
360,note_on,0,0,1,,,,,,,,,0,,,60,49
360,note_on,120,0,3,,,,,,,,,2,,,60,0
360,note_on,0,0,3,,,,,,,,,2,,,52,36
405,note_on,45,0,1,,,,,,,,,0,,,60,0
405,note_on,0,0,1,,,,,,,,,0,,,64,49
420,note_on,60,0,3,,,,,,,,,2,,,52,0
420,control_change,0,0,3,,,,,,,,,2,64,127,,
420,note_on,0,0,3,,,,,,,,,2,,,43,36
420,note_on,0,0,3,,,,,,,,,2,,,53,36
420,note_on,0,0,1,,,,,,,,,0,,,64,49
420,note_on,60,0,2,,,,,,,,,1,,,67,0
420,control_change,0,0,2,,,,,,,,,1,64,127,,
420,note_on,0,0,2,,,,,,,,,1,,,67,36
420,control_change,0,0,1,,,,,,,,,0,64,127,,
420,note_on,15,0,1,,,,,,,,,0,,,64,0
424,note_on,0,0,3,,,,,,,,,2,,,43,0
424,note_on,4,0,3,,,,,,,,,2,,,53,0
426,note_on,6,0,2,,,,,,,,,1,,,67,0
450,note_on,0,0,1,,,,,,,,,0,,,62,49
450,note_on,30,0,1,,,,,,,,,0,,,64,0
480,note_on,54,0,2,,,,,,,,,1,,,67,36
480,note_on,0,0,1,,,,,,,,,0,,,60,49
480,note_on,30,0,1,,,,,,,,,0,,,62,0
480,note_on,56,0,3,,,,,,,,,2,,,43,36
480,note_on,0,0,3,,,,,,,,,2,,,52,36
486,note_on,6,0,2,,,,,,,,,1,,,67,0
486,note_on,6,0,3,,,,,,,,,2,,,52,0
486,note_on,0,0,3,,,,,,,,,2,,,43,0
540,control_change,54,0,2,,,,,,,,,1,64,0,,
540,note_on,0,0,2,,,,,,,,,1,,,67,36
540,note_on,0,0,3,,,,,,,,,2,,,50,36
540,note_on,0,0,3,,,,,,,,,2,,,43,36
540,control_change,54,0,3,,,,,,,,,2,64,0,,
540,control_change,0,0,1,,,,,,,,,0,64,0,,
540,note_on,0,0,1,,,,,,,,,0,,,59,49
540,note_on,60,0,1,,,,,,,,,0,,,60,0
546,note_on,6,0,3,,,,,,,,,2,,,50,0
546,note_on,6,0,2,,,,,,,,,1,,,67,0
546,note_on,0,0,3,,,,,,,,,2,,,43,0
600,note_on,54,0,3,,,,,,,,,2,,,48,36
600,note_on,0,0,3,,,,,,,,,2,,,52,36
600,note_on,54,0,2,,,,,,,,,1,,,67,36
600,note_on,60,0,1,,,,,,,,,0,,,59,0
600,note_on,0,0,1,,,,,,,,,0,,,60,49
720,note_on,0,0,2,,,,,,,,,1,,,67,36
720,note_on,120,0,2,,,,,,,,,1,,,67,0
720,note_on,120,0,1,,,,,,,,,0,,,60,0
720,note_on,0,0,3,,,,,,,,,2,,,60,36
720,note_on,0,0,3,,,,,,,,,2,,,48,0
720,note_on,120,0,3,,,,,,,,,2,,,52,0
720,note_on,0,0,1,,,,,,,,,0,,,64,49
726,note_on,6,0,3,,,,,,,,,2,,,60,0
726,note_on,6,0,2,,,,,,,,,1,,,67,0
780,note_on,54,0,3,,,,,,,,,2,,,62,36
780,note_on,60,0,1,,,,,,,,,0,,,64,0
780,note_on,0,0,1,,,,,,,,,0,,,67,75
870,note_on,90,0,1,,,,,,,,,0,,,67,0
870,note_on,0,0,1,,,,,,,,,0,,,65,49
900,note_on,174,0,2,,,,,,,,,1,,,67,36
900,note_on,30,0,1,,,,,,,,,0,,,65,0
900,note_on,0,0,1,,,,,,,,,0,,,64,49
900,note_on,120,0,3,,,,,,,,,2,,,62,0
900,note_on,0,0,3,,,,,,,,,2,,,59,36
906,note_on,6,0,3,,,,,,,,,2,,,59,0
930,note_on,30,0,1,,,,,,,,,0,,,64,0
930,note_on,0,0,1,,,,,,,,,0,,,62,49
960,note_on,30,0,1,,,,,,,,,0,,,62,0
960,note_on,0,0,1,,,,,,,,,0,,,65,75
960,note_on,60,0,2,,,,,,,,,1,,,67,0
960,note_on,0,0,2,,,,,,,,,1,,,67,36
960,note_on,54,0,3,,,,,,,,,2,,,60,36
1050,note_on,0,0,1,,,,,,,,,0,,,64,49
1050,note_on,90,0,1,,,,,,,,,0,,,65,0
1080,note_on,120,0,3,,,,,,,,,2,,,60,0
1080,note_on,0,0,1,,,,,,,,,0,,,62,49
1080,note_on,30,0,1,,,,,,,,,0,,,64,0
1080,note_on,0,0,3,,,,,,,,,2,,,52,36
1080,note_on,120,0,2,,,,,,,,,1,,,67,0
1080,note_on,0,0,2,,,,,,,,,1,,,67,36
1110,note_on,0,0,1,,,,,,,,,0,,,60,49
1110,note_on,30,0,1,,,,,,,,,0,,,62,0
1140,note_on,60,0,2,,,,,,,,,1,,,67,0
1140,note_on,30,0,1,,,,,,,,,0,,,60,0
1140,note_on,0,0,1,,,,,,,,,0,,,64,49
1140,note_on,0,0,3,,,,,,,,,2,,,47,36
1140,note_on,0,0,2,,,,,,,,,1,,,67,36
1140,note_on,60,0,3,,,,,,,,,2,,,52,0
1146,note_on,6,0,3,,,,,,,,,2,,,47,0
1146,note_on,6,0,2,,,,,,,,,1,,,67,0
1185,note_on,0,0,1,,,,,,,,,0,,,62,49
1185,note_on,45,0,1,,,,,,,,,0,,,64,0
1200,note_on,0,0,1,,,,,,,,,0,,,59,49
1200,note_on,15,0,1,,,,,,,,,0,,,62,0
1200,note_on,54,0,2,,,,,,,,,1,,,67,36
1200,note_on,54,0,3,,,,,,,,,2,,,50,36
1206,note_on,6,0,3,,,,,,,,,2,,,50,0
1206,note_on,6,0,2,,,,,,,,,1,,,67,0
1260,note_on,0,0,1,,,,,,,,,0,,,60,49
1260,note_on,60,0,1,,,,,,,,,0,,,59,0
1260,note_on,54,0,3,,,,,,,,,2,,,50,36
1260,note_on,0,0,3,,,,,,,,,2,,,57,36
1260,note_on,54,0,2,,,,,,,,,1,,,66,36
1266,note_on,6,0,3,,,,,,,,,2,,,57,0
1266,note_on,0,0,3,,,,,,,,,2,,,50,0
1266,note_on,6,0,2,,,,,,,,,1,,,66,0
1320,note_on,54,0,3,,,,,,,,,2,,,43,36
1320,note_on,54,0,2,,,,,,,,,1,,,59,36
1320,note_on,0,0,1,,,,,,,,,0,,,67,49
1320,note_on,60,0,1,,,,,,,,,0,,,60,0
1320,note_on,0,0,3,,,,,,,,,2,,,50,36
1320,note_on,0,0,3,,,,,,,,,2,,,55,36
1440,note_on,0,0,1,,,,,,,,,0,,,76,49
1440,note_on,120,0,1,,,,,,,,,0,,,67,0
1440,note_on,120,0,3,,,,,,,,,2,,,55,0
1440,note_on,0,0,3,,,,,,,,,2,,,50,0
1440,note_on,120,0,2,,,,,,,,,1,,,59,0
1440,note_on,0,0,1,,,,,,,,,0,,,67,49
1440,note_on,0,0,3,,,,,,,,,2,,,64,36
1440,note_on,0,0,3,,,,,,,,,2,,,43,0
1440,note_on,0,0,3,,,,,,,,,2,,,60,36
1446,note_on,0,0,3,,,,,,,,,2,,,60,0
1446,note_on,6,0,3,,,,,,,,,2,,,64,0
1446,note_on,6,0,1,,,,,,,,,0,,,76,0
1446,note_on,0,0,1,,,,,,,,,0,,,67,0
1500,note_on,0,0,3,,,,,,,,,2,,,65,36
1500,note_on,54,0,1,,,,,,,,,0,,,67,67
1500,note_on,0,0,1,,,,,,,,,0,,,79,75
1500,note_on,54,0,3,,,,,,,,,2,,,62,36
1620,note_on,120,0,3,,,,,,,,,2,,,65,0
1620,note_on,0,0,3,,,,,,,,,2,,,62,0
1620,note_on,0,0,1,,,,,,,,,0,,,74,49
1620,note_on,0,0,3,,,,,,,,,2,,,59,36
1620,note_on,0,0,1,,,,,,,,,0,,,67,49
1620,note_on,120,0,1,,,,,,,,,0,,,79,0
1620,note_on,0,0,3,,,,,,,,,2,,,62,36
1620,note_on,0,0,1,,,,,,,,,0,,,67,0
1626,note_on,6,0,1,,,,,,,,,0,,,74,0
1626,note_on,0,0,1,,,,,,,,,0,,,67,0
1626,note_on,0,0,3,,,,,,,,,2,,,59,0
1626,note_on,6,0,3,,,,,,,,,2,,,62,0
1680,note_on,54,0,1,,,,,,,,,0,,,67,67
1680,note_on,0,0,1,,,,,,,,,0,,,76,75
1680,note_on,0,0,3,,,,,,,,,2,,,64,36
1680,note_on,54,0,3,,,,,,,,,2,,,60,36
1800,note_on,120,0,3,,,,,,,,,2,,,64,0
1800,note_on,0,0,3,,,,,,,,,2,,,60,0
1800,note_on,0,0,3,,,,,,,,,2,,,52,36
1800,note_on,0,0,3,,,,,,,,,2,,,60,36
1800,note_on,0,0,1,,,,,,,,,0,,,72,49
1800,note_on,0,0,2,,,,,,,,,1,,,79,36
1800,note_on,360,0,2,,,,,,,,,1,,,67,36
1800,note_on,0,0,1,,,,,,,,,0,,,67,0
1800,note_on,120,0,1,,,,,,,,,0,,,76,0
1845,note_on,0,0,1,,,,,,,,,0,,,76,49
1845,note_on,45,0,1,,,,,,,,,0,,,72,0
1860,note_on,15,0,1,,,,,,,,,0,,,76,0
1860,control_change,0,0,1,,,,,,,,,0,64,127,,
1860,note_on,0,0,1,,,,,,,,,0,,,76,49
1860,note_on,0,0,2,,,,,,,,,1,,,67,0
1860,note_on,0,0,2,,,,,,,,,1,,,67,36
1860,note_on,60,0,2,,,,,,,,,1,,,79,0
1860,note_on,0,0,3,,,,,,,,,2,,,65,36
1860,note_on,60,0,3,,,,,,,,,2,,,60,0
1860,note_on,0,0,3,,,,,,,,,2,,,55,36
1860,control_change,0,0,3,,,,,,,,,2,64,127,,
1860,note_on,0,0,3,,,,,,,,,2,,,52,0
1860,note_on,0,0,2,,,,,,,,,1,,,79,36
1860,control_change,0,0,2,,,,,,,,,1,64,127,,
1866,note_on,0,0,3,,,,,,,,,2,,,55,0
1866,note_on,6,0,3,,,,,,,,,2,,,65,0
1866,note_on,6,0,2,,,,,,,,,1,,,79,0
1866,note_on,0,0,2,,,,,,,,,1,,,67,0
1890,note_on,0,0,1,,,,,,,,,0,,,74,49
1890,note_on,30,0,1,,,,,,,,,0,,,76,0
1920,note_on,0,0,2,,,,,,,,,1,,,79,36
1920,note_on,54,0,2,,,,,,,,,1,,,67,36
1920,note_on,0,0,3,,,,,,,,,2,,,64,36
1920,note_on,54,0,3,,,,,,,,,2,,,55,36
1920,note_on,0,0,1,,,,,,,,,0,,,72,49
1920,note_on,30,0,1,,,,,,,,,0,,,74,0
1926,note_on,6,0,3,,,,,,,,,2,,,64,0
1926,note_on,0,0,3,,,,,,,,,2,,,55,0
1926,note_on,6,0,2,,,,,,,,,1,,,79,0
1926,note_on,0,0,2,,,,,,,,,1,,,67,0
1980,note_on,0,0,3,,,,,,,,,2,,,62,36
1980,note_on,0,0,3,,,,,,,,,2,,,55,36
1980,control_change,54,0,3,,,,,,,,,2,64,0,,
1980,note_on,0,0,1,,,,,,,,,0,,,71,49
1980,control_change,54,0,2,,,,,,,,,1,64,0,,
1980,note_on,60,0,1,,,,,,,,,0,,,72,0
1980,note_on,0,0,2,,,,,,,,,1,,,79,36
1980,note_on,0,0,2,,,,,,,,,1,,,67,36
1980,control_change,0,0,1,,,,,,,,,0,64,0,,
1986,note_on,6,0,2,,,,,,,,,1,,,79,0
1986,note_on,6,0,3,,,,,,,,,2,,,62,0
1986,note_on,0,0,3,,,,,,,,,2,,,55,0
1986,note_on,0,0,2,,,,,,,,,1,,,67,0
2040,note_on,0,0,1,,,,,,,,,0,,,67,49
2040,note_on,54,0,3,,,,,,,,,2,,,60,36
2040,note_on,0,0,1,,,,,,,,,0,,,72,49
2040,note_on,0,0,1,,,,,,,,,0,,,79,49
2040,note_on,0,0,3,,,,,,,,,2,,,64,36
2040,note_on,60,0,1,,,,,,,,,0,,,71,0
2160,note_on,0,0,1,,,,,,,,,0,,,76,49
2160,note_on,120,0,1,,,,,,,,,0,,,79,0
2160,note_on,120,0,3,,,,,,,,,2,,,64,0
2160,note_on,0,0,1,,,,,,,,,0,,,67,0
2160,note_on,0,0,1,,,,,,,,,0,,,67,49
2160,note_on,0,0,3,,,,,,,,,2,,,60,0
2160,note_on,0,0,3,,,,,,,,,2,,,64,36
2160,note_on,0,0,3,,,,,,,,,2,,,60,36
2160,note_on,0,0,1,,,,,,,,,0,,,72,0
2166,note_on,0,0,3,,,,,,,,,2,,,60,0
2166,note_on,6,0,3,,,,,,,,,2,,,64,0
2166,note_on,6,0,1,,,,,,,,,0,,,76,0
2166,note_on,0,0,1,,,,,,,,,0,,,67,0
2220,note_on,0,0,3,,,,,,,,,2,,,65,36
2220,note_on,234,0,2,,,,,,,,,1,,,67,36
2220,note_on,54,0,1,,,,,,,,,0,,,79,75
2220,note_on,54,0,3,,,,,,,,,2,,,62,36
2310,note_on,90,0,1,,,,,,,,,0,,,79,0
2310,note_on,0,0,1,,,,,,,,,0,,,77,49
2325,note_on,0,0,1,,,,,,,,,0,,,76,49
2325,note_on,15,0,1,,,,,,,,,0,,,77,0
2332,note_on,7,0,1,,,,,,,,,0,,,77,49
2333,note_on,1,0,1,,,,,,,,,0,,,76,0
2340,note_on,0,0,2,,,,,,,,,1,,,67,36
2340,note_on,120,0,2,,,,,,,,,1,,,67,0
2340,note_on,120,0,3,,,,,,,,,2,,,65,0
2340,note_on,0,0,3,,,,,,,,,2,,,62,0
2340,note_on,0,0,3,,,,,,,,,2,,,62,36
2340,note_on,0,0,3,,,,,,,,,2,,,59,36
2343,note_on,0,0,1,,,,,,,,,0,,,76,49
2343,note_on,10,0,1,,,,,,,,,0,,,77,0
2346,note_on,6,0,3,,,,,,,,,2,,,62,0
2346,note_on,0,0,3,,,,,,,,,2,,,59,0
2373,note_on,30,0,1,,,,,,,,,0,,,76,0
2373,note_on,0,0,1,,,,,,,,,0,,,74,49
2388,note_on,15,0,1,,,,,,,,,0,,,74,0
2400,note_on,12,0,1,,,,,,,,,0,,,77,75
2400,note_on,54,0,3,,,,,,,,,2,,,60,36
2400,note_on,60,0,2,,,,,,,,,1,,,67,0
2400,note_on,0,0,2,,,,,,,,,1,,,67,36
2400,note_on,0,0,3,,,,,,,,,2,,,64,36
2490,note_on,90,0,1,,,,,,,,,0,,,77,0
2490,note_on,0,0,1,,,,,,,,,0,,,76,49
2520,note_on,120,0,3,,,,,,,,,2,,,64,0
2520,note_on,0,0,1,,,,,,,,,0,,,72,49
2520,note_on,30,0,1,,,,,,,,,0,,,76,0
2520,note_on,0,0,2,,,,,,,,,1,,,67,36
2520,note_on,120,0,2,,,,,,,,,1,,,67,0
2520,note_on,0,0,3,,,,,,,,,2,,,60,0
2520,note_on,0,0,3,,,,,,,,,2,,,64,36
2565,note_on,0,0,1,,,,,,,,,0,,,74,49
2565,note_on,45,0,1,,,,,,,,,0,,,72,0
2580,note_on,0,0,2,,,,,,,,,1,,,67,36
2580,control_change,0,0,2,,,,,,,,,1,64,127,,
2580,note_on,60,0,2,,,,,,,,,1,,,67,0
2580,note_on,0,0,3,,,,,,,,,2,,,59,36
2580,control_change,0,0,3,,,,,,,,,2,64,127,,
2580,note_on,15,0,1,,,,,,,,,0,,,74,0
2580,control_change,0,0,1,,,,,,,,,0,64,127,,
2580,note_on,0,0,1,,,,,,,,,0,,,76,49
2580,note_on,60,0,3,,,,,,,,,2,,,64,0
2586,note_on,6,0,3,,,,,,,,,2,,,59,0
2610,note_on,0,0,1,,,,,,,,,0,,,74,49
2610,note_on,30,0,1,,,,,,,,,0,,,76,0
2640,note_on,54,0,3,,,,,,,,,2,,,62,36
2640,note_on,0,0,2,,,,,,,,,1,,,67,36
2640,note_on,0,0,1,,,,,,,,,0,,,71,49
2640,note_on,60,0,2,,,,,,,,,1,,,67,0
2640,note_on,30,0,1,,,,,,,,,0,,,74,0
2646,note_on,6,0,1,,,,,,,,,0,,,71,0
2646,note_on,6,0,3,,,,,,,,,2,,,62,0
2700,control_change,54,0,1,,,,,,,,,0,64,0,,
2700,note_on,0,0,1,,,,,,,,,0,,,78,49
2700,note_on,60,0,2,,,,,,,,,1,,,67,0
2700,control_change,0,0,2,,,,,,,,,1,64,0,,
2700,note_on,0,0,3,,,,,,,,,2,,,62,36
2700,note_on,0,0,3,,,,,,,,,2,,,60,36
2700,note_on,0,0,3,,,,,,,,,2,,,50,36
2700,control_change,54,0,3,,,,,,,,,2,64,0,,
2700,note_on,0,0,2,,,,,,,,,1,,,69,36
2706,note_on,0,0,3,,,,,,,,,2,,,50,0
2706,note_on,6,0,1,,,,,,,,,0,,,78,0
2706,note_on,6,0,3,,,,,,,,,2,,,62,0
2706,note_on,0,0,3,,,,,,,,,2,,,60,0
2760,note_on,0,0,1,,,,,,,,,0,,,79,49
2760,note_on,54,0,1,,,,,,,,,0,,,67,49
2760,time_signature,2700,1,0,2,8,12,8,,,,,,,,,
2760,note_on,0,0,3,,,,,,,,,2,,,62,36
2760,note_on,0,0,3,,,,,,,,,2,,,59,36
2760,note_on,54,0,3,,,,,,,,,2,,,55,36
2760,note_on,60,0,2,,,,,,,,,1,,,69,0
2880,note_on,0,0,3,,,,,,,,,2,,,55,0
2880,note_on,0,0,3,,,,,,,,,2,,,59,0
2880,note_on,120,0,3,,,,,,,,,2,,,62,0
2880,note_on,120,0,1,,,,,,,,,0,,,79,0
2880,note_on,0,0,1,,,,,,,,,0,,,67,0
2880,note_on,0,0,1,,,,,,,,,0,,,67,49
2880,time_signature,120,1,0,1,8,12,8,,,,,,,,,
2886,note_on,6,0,1,,,,,,,,,0,,,67,0
2940,time_signature,60,1,0,3,8,12,8,,,,,,,,,
2940,note_on,2940,0,4,,,,,,,,,3,,,55,64
2940,note_on,54,0,1,,,,,,,,,0,,,69,49
2940,note_on,0,0,2,,,,,,,,,1,,,67,49
2940,control_change,180,0,2,,,,,,,,,1,64,127,,
3000,note_on,0,0,2,,,,,,,,,1,,,65,49
3000,note_on,60,0,2,,,,,,,,,1,,,67,0
3030,note_on,0,0,2,,,,,,,,,1,,,64,49
3030,note_on,30,0,2,,,,,,,,,1,,,65,0
3060,note_on,30,0,2,,,,,,,,,1,,,64,0
3060,control_change,0,0,2,,,,,,,,,1,64,0,,
3060,note_on,0,0,2,,,,,,,,,1,,,65,49
3060,note_on,180,0,3,,,,,,,,,2,,,62,36
3060,note_on,120,0,1,,,,,,,,,0,,,69,0
3060,note_on,0,0,1,,,,,,,,,0,,,71,49
3066,note_on,6,0,1,,,,,,,,,0,,,71,0
3120,note_on,54,0,1,,,,,,,,,0,,,72,49
3120,note_on,180,0,4,,,,,,,,,3,,,55,0
3120,note_on,0,0,4,,,,,,,,,3,,,55,64
3180,note_on,0,0,3,,,,,,,,,2,,,60,36
3180,note_on,120,0,2,,,,,,,,,1,,,65,0
3180,note_on,0,0,2,,,,,,,,,1,,,64,49
3180,note_on,120,0,3,,,,,,,,,2,,,62,0
3240,note_on,0,0,1,,,,,,,,,0,,,67,49
3240,note_on,120,0,1,,,,,,,,,0,,,72,0
3240,note_on,0,0,3,,,,,,,,,2,,,65,36
3240,note_on,60,0,3,,,,,,,,,2,,,60,0
3240,note_on,0,0,1,,,,,,,,,0,,,74,49
3240,note_on,0,0,3,,,,,,,,,2,,,59,36
3240,note_on,60,0,2,,,,,,,,,1,,,64,0
3240,note_on,120,0,4,,,,,,,,,3,,,55,0
3300,note_on,0,0,1,,,,,,,,,0,,,67,0
3300,note_on,0,0,1,,,,,,,,,0,,,76,49
3300,note_on,0,0,1,,,,,,,,,0,,,67,49
3300,note_on,60,0,3,,,,,,,,,2,,,65,0
3300,note_on,0,0,3,,,,,,,,,2,,,59,0
3300,note_on,0,0,3,,,,,,,,,2,,,60,36
3300,note_on,0,0,3,,,,,,,,,2,,,64,36
3300,note_on,60,0,1,,,,,,,,,0,,,74,0
3360,note_on,0,0,1,,,,,,,,,0,,,67,0
3360,note_on,0,0,3,,,,,,,,,2,,,60,0
3360,note_on,60,0,3,,,,,,,,,2,,,64,0
3360,note_on,60,0,1,,,,,,,,,0,,,76,0
3360,note_on,0,0,3,,,,,,,,,2,,,63,36
3360,note_on,0,0,1,,,,,,,,,0,,,72,49
3360,note_on,0,0,3,,,,,,,,,2,,,57,36
3360,note_on,120,0,2,,,,,,,,,1,,,69,49
3420,note_on,60,0,1,,,,,,,,,0,,,72,0
3420,note_on,0,0,1,,,,,,,,,0,,,74,49
3420,note_on,0,0,3,,,,,,,,,2,,,57,0
3420,note_on,0,0,3,,,,,,,,,2,,,54,36
3420,note_on,60,0,3,,,,,,,,,2,,,63,0
3420,note_on,0,0,3,,,,,,,,,2,,,62,36
3480,note_on,60,0,3,,,,,,,,,2,,,62,0
3480,note_on,0,0,3,,,,,,,,,2,,,54,0
3480,note_on,0,0,3,,,,,,,,,2,,,60,36
3480,note_on,0,0,2,,,,,,,,,1,,,72,49
3480,note_on,60,0,1,,,,,,,,,0,,,74,0
3480,note_on,0,0,1,,,,,,,,,0,,,76,49
3480,note_on,240,0,4,,,,,,,,,3,,,55,64
3480,note_on,120,0,2,,,,,,,,,1,,,69,0
3540,note_on,60,0,1,,,,,,,,,0,,,76,0
3540,note_on,0,0,1,,,,,,,,,0,,,74,49
3540,note_on,60,0,3,,,,,,,,,2,,,60,0
3540,note_on,0,0,3,,,,,,,,,2,,,59,36
3540,note_on,0,0,2,,,,,,,,,1,,,67,49
3540,note_on,60,0,2,,,,,,,,,1,,,72,0
3570,note_on,30,0,3,,,,,,,,,2,,,59,0
3570,note_on,90,0,4,,,,,,,,,3,,,55,0
3570,note_on,30,0,1,,,,,,,,,0,,,74,0
3570,note_on,30,0,2,,,,,,,,,1,,,67,0
3600,note_on,30,0,1,,,,,,,,,0,,,67,49
3600,note_on,30,0,3,,,,,,,,,2,,,52,36
3606,note_on,6,0,1,,,,,,,,,0,,,67,0
3606,note_on,6,0,3,,,,,,,,,2,,,52,0
3660,note_on,0,0,2,,,,,,,,,1,,,67,49
3660,note_on,90,0,4,,,,,,,,,3,,,43,64
3660,control_change,90,0,2,,,,,,,,,1,64,127,,
3660,control_change,54,0,3,,,,,,,,,2,64,127,,
3660,note_on,0,0,3,,,,,,,,,2,,,49,36
3660,note_on,54,0,1,,,,,,,,,0,,,69,49
3720,note_on,0,0,2,,,,,,,,,1,,,65,49
3720,note_on,60,0,2,,,,,,,,,1,,,67,0
3720,note_on,0,0,3,,,,,,,,,2,,,50,36
3720,note_on,60,0,3,,,,,,,,,2,,,49,0
3750,note_on,0,0,2,,,,,,,,,1,,,64,49
3750,note_on,0,0,3,,,,,,,,,2,,,52,36
3750,note_on,30,0,3,,,,,,,,,2,,,50,0
3750,note_on,30,0,2,,,,,,,,,1,,,65,0
3780,note_on,120,0,1,,,,,,,,,0,,,69,0
3780,note_on,0,0,3,,,,,,,,,2,,,53,36
3780,control_change,0,0,3,,,,,,,,,2,64,0,,
3780,note_on,30,0,3,,,,,,,,,2,,,52,0
3780,note_on,0,0,1,,,,,,,,,0,,,71,49
3780,note_on,30,0,2,,,,,,,,,1,,,64,0
3780,control_change,0,0,2,,,,,,,,,1,64,0,,
3780,note_on,0,0,2,,,,,,,,,1,,,62,49
3786,note_on,6,0,1,,,,,,,,,0,,,71,0
3840,note_on,54,0,1,,,,,,,,,0,,,72,49
3840,note_on,0,0,4,,,,,,,,,3,,,43,64
3840,note_on,180,0,4,,,,,,,,,3,,,43,0
3900,note_on,120,0,2,,,,,,,,,1,,,62,0
3900,note_on,0,0,3,,,,,,,,,2,,,52,36
3900,note_on,0,0,2,,,,,,,,,1,,,60,49
3900,note_on,120,0,3,,,,,,,,,2,,,53,0
3960,note_on,0,0,1,,,,,,,,,0,,,62,49
3960,note_on,60,0,2,,,,,,,,,1,,,60,0
3960,note_on,120,0,1,,,,,,,,,0,,,72,0
3960,note_on,0,0,1,,,,,,,,,0,,,74,49
3960,note_on,0,0,1,,,,,,,,,0,,,67,49
3960,note_on,0,0,3,,,,,,,,,2,,,55,36
3960,note_on,120,0,4,,,,,,,,,3,,,43,0
3960,note_on,0,0,4,,,,,,,,,3,,,47,64
3960,note_on,60,0,3,,,,,,,,,2,,,52,0
4020,note_on,0,0,1,,,,,,,,,0,,,62,0
4020,note_on,0,0,1,,,,,,,,,0,,,67,0
4020,note_on,60,0,1,,,,,,,,,0,,,74,0
4020,note_on,0,0,1,,,,,,,,,0,,,64,49
4020,note_on,60,0,4,,,,,,,,,3,,,47,0
4020,note_on,60,0,3,,,,,,,,,2,,,55,0
4020,note_on,0,0,3,,,,,,,,,2,,,48,36
4020,note_on,0,0,3,,,,,,,,,2,,,55,36
4020,note_on,0,0,1,,,,,,,,,0,,,76,49
4020,note_on,0,0,1,,,,,,,,,0,,,67,49
4080,note_on,0,0,1,,,,,,,,,0,,,67,0
4080,note_on,0,0,1,,,,,,,,,0,,,64,0
4080,note_on,0,0,1,,,,,,,,,0,,,60,49
4080,note_on,0,0,1,,,,,,,,,0,,,69,49
4080,note_on,60,0,3,,,,,,,,,2,,,55,0
4080,note_on,0,0,3,,,,,,,,,2,,,48,0
4080,note_on,0,0,3,,,,,,,,,2,,,51,36
4080,note_on,0,0,3,,,,,,,,,2,,,54,36
4080,note_on,60,0,1,,,,,,,,,0,,,76,0
4140,note_on,0,0,3,,,,,,,,,2,,,50,36
4140,note_on,0,0,3,,,,,,,,,2,,,51,0
4140,note_on,0,0,3,,,,,,,,,2,,,57,36
4140,note_on,60,0,1,,,,,,,,,0,,,69,0
4140,note_on,0,0,1,,,,,,,,,0,,,60,0
4140,note_on,0,0,1,,,,,,,,,0,,,66,49
4140,note_on,0,0,1,,,,,,,,,0,,,74,49
4140,note_on,180,0,2,,,,,,,,,1,,,62,49
4140,note_on,60,0,3,,,,,,,,,2,,,54,0
4170,note_on,30,0,2,,,,,,,,,1,,,62,0
4170,note_on,0,0,2,,,,,,,,,1,,,60,49
4200,note_on,30,0,2,,,,,,,,,1,,,60,0
4200,note_on,0,0,3,,,,,,,,,2,,,50,36
4200,note_on,0,0,3,,,,,,,,,2,,,50,0
4200,note_on,0,0,1,,,,,,,,,0,,,59,49
4200,note_on,0,0,1,,,,,,,,,0,,,67,49
4200,note_on,0,0,1,,,,,,,,,0,,,66,0
4200,note_on,60,0,3,,,,,,,,,2,,,57,0
4200,note_on,60,0,1,,,,,,,,,0,,,74,0
4200,note_on,0,0,3,,,,,,,,,2,,,43,36
4200,note_on,0,0,3,,,,,,,,,2,,,55,36
4320,note_on,0,0,3,,,,,,,,,2,,,60,36
4320,note_on,0,0,3,,,,,,,,,2,,,43,0
4320,note_on,0,0,1,,,,,,,,,0,,,64,36
4320,note_on,0,0,1,,,,,,,,,0,,,59,0
4320,note_on,120,0,3,,,,,,,,,2,,,55,0
4320,note_on,120,0,1,,,,,,,,,0,,,67,0
4320,note_on,0,0,3,,,,,,,,,2,,,50,0
4320,note_on,0,0,1,,,,,,,,,0,,,67,36
4326,note_on,6,0,1,,,,,,,,,0,,,67,0
4326,note_on,0,0,1,,,,,,,,,0,,,64,0
4350,note_on,0,0,3,,,,,,,,,2,,,61,36
4350,note_on,30,0,3,,,,,,,,,2,,,60,0
4380,note_on,0,0,3,,,,,,,,,2,,,62,62
4380,note_on,30,0,3,,,,,,,,,2,,,61,0
4380,note_on,0,0,1,,,,,,,,,0,,,67,36
4380,note_on,54,0,1,,,,,,,,,0,,,65,36
4500,note_on,120,0,1,,,,,,,,,0,,,67,0
4500,note_on,0,0,1,,,,,,,,,0,,,62,36
4500,note_on,0,0,3,,,,,,,,,2,,,59,36
4500,note_on,120,0,3,,,,,,,,,2,,,62,0
4500,note_on,0,0,1,,,,,,,,,0,,,65,0
4500,note_on,0,0,1,,,,,,,,,0,,,67,36
4506,note_on,6,0,1,,,,,,,,,0,,,67,0
4506,note_on,0,0,1,,,,,,,,,0,,,62,0
4507,note_on,7,0,3,,,,,,,,,2,,,60,36
4508,note_on,1,0,3,,,,,,,,,2,,,59,0
4515,note_on,7,0,3,,,,,,,,,2,,,60,0
4515,note_on,0,0,3,,,,,,,,,2,,,59,36
4522,note_on,7,0,3,,,,,,,,,2,,,60,36
4523,note_on,1,0,3,,,,,,,,,2,,,59,0
4530,note_on,7,0,3,,,,,,,,,2,,,60,0
4530,note_on,0,0,3,,,,,,,,,2,,,59,36
4537,note_on,7,0,3,,,,,,,,,2,,,60,36
4538,note_on,1,0,3,,,,,,,,,2,,,59,0
4545,note_on,7,0,3,,,,,,,,,2,,,60,0
4545,note_on,0,0,3,,,,,,,,,2,,,59,36
4552,note_on,7,0,3,,,,,,,,,2,,,60,36
4553,note_on,1,0,3,,,,,,,,,2,,,59,0
4560,note_on,54,0,1,,,,,,,,,0,,,64,36
4560,note_on,0,0,1,,,,,,,,,0,,,67,36
4560,note_on,0,0,3,,,,,,,,,2,,,60,62
4560,note_on,7,0,3,,,,,,,,,2,,,60,0
4680,note_on,120,0,1,,,,,,,,,0,,,67,0
4680,note_on,120,0,3,,,,,,,,,2,,,60,0
4680,note_on,0,0,3,,,,,,,,,2,,,52,36
4680,note_on,0,0,1,,,,,,,,,0,,,64,0
4680,note_on,0,0,1,,,,,,,,,0,,,60,36
4680,note_on,480,0,2,,,,,,,,,1,,,67,49
4686,note_on,6,0,2,,,,,,,,,1,,,67,0
4686,note_on,6,0,3,,,,,,,,,2,,,52,0
4725,note_on,0,0,1,,,,,,,,,0,,,64,36
4725,note_on,45,0,1,,,,,,,,,0,,,60,0
4740,note_on,15,0,1,,,,,,,,,0,,,64,0
4740,control_change,54,0,2,,,,,,,,,1,64,127,,
4740,note_on,0,0,2,,,,,,,,,1,,,69,49
4740,control_change,0,0,1,,,,,,,,,0,64,127,,
4740,note_on,0,0,1,,,,,,,,,0,,,64,36
4740,control_change,54,0,3,,,,,,,,,2,64,127,,
4740,note_on,0,0,3,,,,,,,,,2,,,41,36
4740,note_on,0,0,3,,,,,,,,,2,,,53,36
4746,note_on,6,0,2,,,,,,,,,1,,,69,0
4746,note_on,6,0,3,,,,,,,,,2,,,53,0
4746,note_on,0,0,3,,,,,,,,,2,,,41,0
4755,note_on,0,0,1,,,,,,,,,0,,,65,36
4755,note_on,15,0,1,,,,,,,,,0,,,64,0
4770,note_on,15,0,1,,,,,,,,,0,,,65,0
4770,note_on,0,0,1,,,,,,,,,0,,,67,36
4785,note_on,15,0,1,,,,,,,,,0,,,67,0
4785,note_on,0,0,1,,,,,,,,,0,,,65,36
4800,note_on,0,0,3,,,,,,,,,2,,,45,36
4800,note_on,0,0,3,,,,,,,,,2,,,53,36
4800,note_on,0,0,1,,,,,,,,,0,,,62,36
4800,control_change,0,0,1,,,,,,,,,0,64,0,,
4800,control_change,54,0,3,,,,,,,,,2,64,0,,
4800,control_change,54,0,2,,,,,,,,,1,64,0,,
4800,note_on,0,0,2,,,,,,,,,1,,,69,49
4800,note_on,15,0,1,,,,,,,,,0,,,65,0
4806,note_on,0,0,3,,,,,,,,,2,,,45,0
4806,note_on,6,0,3,,,,,,,,,2,,,53,0
4806,note_on,6,0,2,,,,,,,,,1,,,69,0
4860,note_on,0,0,1,,,,,,,,,0,,,61,36
4860,note_on,60,0,1,,,,,,,,,0,,,62,0
4860,note_on,54,0,2,,,,,,,,,1,,,69,49
4860,note_on,0,0,3,,,,,,,,,2,,,55,36
4860,note_on,54,0,3,,,,,,,,,2,,,45,36
4866,note_on,6,0,2,,,,,,,,,1,,,69,0
4866,note_on,6,0,3,,,,,,,,,2,,,55,0
4866,note_on,0,0,3,,,,,,,,,2,,,45,0
4920,note_on,0,0,1,,,,,,,,,0,,,69,36
4920,note_on,0,0,3,,,,,,,,,2,,,53,36
4920,note_on,60,0,1,,,,,,,,,0,,,61,0
4920,note_on,54,0,3,,,,,,,,,2,,,50,36
4920,note_on,0,0,1,,,,,,,,,0,,,62,36
5040,note_on,120,0,1,,,,,,,,,0,,,69,0
5040,note_on,0,0,1,,,,,,,,,0,,,62,0
5040,note_on,0,0,1,,,,,,,,,0,,,69,36
5040,note_on,120,0,3,,,,,,,,,2,,,53,0
5040,note_on,0,0,1,,,,,,,,,0,,,76,36
5040,note_on,0,0,3,,,,,,,,,2,,,50,0
5040,note_on,0,0,3,,,,,,,,,2,,,60,36
5040,note_on,0,0,3,,,,,,,,,2,,,64,36
5046,note_on,6,0,1,,,,,,,,,0,,,76,0
5046,note_on,0,0,1,,,,,,,,,0,,,69,0
5046,note_on,6,0,3,,,,,,,,,2,,,64,0
5046,note_on,0,0,3,,,,,,,,,2,,,60,0
5100,note_on,54,0,1,,,,,,,,,0,,,68,88
5100,note_on,0,0,3,,,,,,,,,2,,,62,75
5100,note_on,0,0,1,,,,,,,,,0,,,77,88
5100,note_on,0,0,3,,,,,,,,,2,,,65,75
5100,note_on,54,0,3,,,,,,,,,2,,,59,75
5220,note_on,0,0,1,,,,,,,,,0,,,74,49
5220,note_on,0,0,1,,,,,,,,,0,,,71,49
5220,note_on,120,0,1,,,,,,,,,0,,,77,0
5220,note_on,0,0,1,,,,,,,,,0,,,67,49
5220,note_on,0,0,1,,,,,,,,,0,,,68,0
5220,note_on,0,0,3,,,,,,,,,2,,,65,36
5220,note_on,0,0,3,,,,,,,,,2,,,55,36
5220,note_on,0,0,3,,,,,,,,,2,,,59,0
5220,note_on,0,0,3,,,,,,,,,2,,,62,0
5220,note_on,120,0,3,,,,,,,,,2,,,65,0
5226,note_on,6,0,3,,,,,,,,,2,,,65,0
5226,note_on,0,0,1,,,,,,,,,0,,,71,0
5226,note_on,6,0,1,,,,,,,,,0,,,74,0
5226,note_on,0,0,1,,,,,,,,,0,,,67,0
5226,note_on,0,0,3,,,,,,,,,2,,,55,0
5280,note_on,0,0,3,,,,,,,,,2,,,64,36
5280,note_on,0,0,1,,,,,,,,,0,,,76,75
5280,note_on,54,0,3,,,,,,,,,2,,,60,36
5280,note_on,54,0,1,,,,,,,,,0,,,67,65
5280,note_on,0,0,1,,,,,,,,,0,,,72,70
5400,note_on,120,0,3,,,,,,,,,2,,,64,0
5400,note_on,0,0,3,,,,,,,,,2,,,60,0
5400,note_on,0,0,3,,,,,,,,,2,,,52,36
5400,note_on,0,0,3,,,,,,,,,2,,,60,36
5400,note_on,534,0,2,,,,,,,,,1,,,67,36
5400,note_on,120,0,1,,,,,,,,,0,,,76,0
5400,note_on,0,0,1,,,,,,,,,0,,,72,0
5400,note_on,0,0,1,,,,,,,,,0,,,67,0
5400,note_on,0,0,1,,,,,,,,,0,,,72,49
5406,note_on,6,0,1,,,,,,,,,0,,,72,0
5406,note_on,6,0,3,,,,,,,,,2,,,60,0
5406,note_on,0,0,3,,,,,,,,,2,,,52,0
5430,note_on,30,0,2,,,,,,,,,1,,,67,0
5430,note_on,0,0,2,,,,,,,,,1,,,68,36
5460,note_on,54,0,3,,,,,,,,,2,,,60,36
5460,note_on,1440,0,4,,,,,,,,,3,,,53,36
5460,note_on,54,0,1,,,,,,,,,0,,,76,49
5460,note_on,30,0,2,,,,,,,,,1,,,68,0
5460,note_on,0,0,2,,,,,,,,,1,,,69,36
5490,note_on,30,0,3,,,,,,,,,2,,,60,0
5490,note_on,0,0,3,,,,,,,,,2,,,62,36
5505,note_on,0,0,1,,,,,,,,,0,,,74,49
5505,note_on,45,0,1,,,,,,,,,0,,,76,0
5520,note_on,60,0,4,,,,,,,,,3,,,53,0
5520,note_on,0,0,4,,,,,,,,,3,,,55,36
5520,note_on,0,0,4,,,,,,,,,3,,,64,36
5520,note_on,15,0,1,,,,,,,,,0,,,74,0
5520,note_on,60,0,2,,,,,,,,,1,,,69,0
5520,note_on,0,0,2,,,,,,,,,1,,,67,36
5520,note_on,0,0,1,,,,,,,,,0,,,72,49
5520,note_on,30,0,3,,,,,,,,,2,,,62,0
5526,note_on,6,0,1,,,,,,,,,0,,,72,0
5526,note_on,6,0,2,,,,,,,,,1,,,67,0
5526,note_on,6,0,4,,,,,,,,,3,,,64,0
5526,note_on,0,0,4,,,,,,,,,3,,,55,0
5580,note_on,0,0,4,,,,,,,,,3,,,62,36
5580,note_on,0,0,1,,,,,,,,,0,,,71,49
5580,note_on,54,0,1,,,,,,,,,0,,,67,49
5580,note_on,54,0,4,,,,,,,,,3,,,55,36
5580,note_on,54,0,2,,,,,,,,,1,,,65,36
5586,note_on,6,0,4,,,,,,,,,3,,,62,0
5586,note_on,6,0,1,,,,,,,,,0,,,71,0
5586,note_on,0,0,1,,,,,,,,,0,,,67,0
5586,note_on,6,0,2,,,,,,,,,1,,,65,0
5586,note_on,0,0,4,,,,,,,,,3,,,55,0
5640,time_signature,2700,1,0,2,8,12,8,,,,,,,,,
5640,note_on,0,0,3,,,,,,,,,2,,,55,36
5640,note_on,54,0,1,,,,,,,,,0,,,64,49
5640,note_on,0,0,1,,,,,,,,,0,,,67,49
5640,note_on,0,0,1,,,,,,,,,0,,,72,49
5640,note_on,120,0,3,,,,,,,,,2,,,48,36
5640,note_on,0,0,3,,,,,,,,,2,,,60,36
5760,note_on,120,0,1,,,,,,,,,0,,,72,0
5760,note_on,0,0,1,,,,,,,,,0,,,67,49
5760,note_on,0,0,1,,,,,,,,,0,,,64,0
5760,note_on,0,0,1,,,,,,,,,0,,,67,0
5760,note_on,120,0,3,,,,,,,,,2,,,60,0
5760,note_on,0,0,3,,,,,,,,,2,,,55,0
5760,note_on,0,0,3,,,,,,,,,2,,,48,0
5760,time_signature,120,1,0,1,8,12,8,,,,,,,,,
5766,note_on,6,0,1,,,,,,,,,0,,,67,0
5820,note_on,54,0,1,,,,,,,,,0,,,69,49
5820,note_on,234,0,4,,,,,,,,,3,,,55,36
5820,time_signature,60,1,0,3,8,12,8,,,,,,,,,
5820,note_on,0,0,2,,,,,,,,,1,,,67,49
5820,control_change,234,0,2,,,,,,,,,1,64,127,,
5880,note_on,0,0,2,,,,,,,,,1,,,65,49
5880,note_on,60,0,2,,,,,,,,,1,,,67,0
5910,note_on,30,0,2,,,,,,,,,1,,,65,0
5910,note_on,0,0,2,,,,,,,,,1,,,64,49
5940,note_on,30,0,2,,,,,,,,,1,,,64,0
5940,control_change,0,0,2,,,,,,,,,1,64,0,,
5940,note_on,0,0,2,,,,,,,,,1,,,65,49
5940,note_on,180,0,3,,,,,,,,,2,,,62,36
5940,note_on,120,0,1,,,,,,,,,0,,,69,0
5940,note_on,0,0,1,,,,,,,,,0,,,71,49
5946,note_on,6,0,1,,,,,,,,,0,,,71,0
6000,note_on,0,0,4,,,,,,,,,3,,,55,36
6000,note_on,180,0,4,,,,,,,,,3,,,55,0
6000,note_on,54,0,1,,,,,,,,,0,,,72,49
6060,note_on,0,0,3,,,,,,,,,2,,,60,36
6060,note_on,120,0,3,,,,,,,,,2,,,62,0
6060,note_on,120,0,2,,,,,,,,,1,,,65,0
6060,note_on,0,0,2,,,,,,,,,1,,,64,49
6120,note_on,60,0,2,,,,,,,,,1,,,64,0
6120,note_on,60,0,3,,,,,,,,,2,,,60,0
6120,note_on,120,0,1,,,,,,,,,0,,,72,0
6120,note_on,0,0,3,,,,,,,,,2,,,65,36
6120,note_on,120,0,4,,,,,,,,,3,,,55,0
6120,note_on,0,0,1,,,,,,,,,0,,,67,49
6120,note_on,0,0,1,,,,,,,,,0,,,74,49
6120,note_on,0,0,3,,,,,,,,,2,,,59,36
6180,note_on,0,0,3,,,,,,,,,2,,,59,0
6180,note_on,60,0,3,,,,,,,,,2,,,65,0
6180,note_on,0,0,1,,,,,,,,,0,,,76,49
6180,note_on,0,0,3,,,,,,,,,2,,,60,36
6180,note_on,60,0,1,,,,,,,,,0,,,74,0
6180,note_on,0,0,1,,,,,,,,,0,,,67,49
6180,note_on,0,0,3,,,,,,,,,2,,,64,36
6180,note_on,0,0,1,,,,,,,,,0,,,67,0
6240,note_on,0,0,1,,,,,,,,,0,,,72,49
6240,note_on,0,0,3,,,,,,,,,2,,,57,36
6240,note_on,0,0,3,,,,,,,,,2,,,63,36
6240,note_on,60,0,1,,,,,,,,,0,,,76,0
6240,note_on,0,0,1,,,,,,,,,0,,,67,0
6240,note_on,0,0,3,,,,,,,,,2,,,60,0
6240,note_on,60,0,3,,,,,,,,,2,,,64,0
6240,note_on,120,0,2,,,,,,,,,1,,,69,49
6300,note_on,0,0,1,,,,,,,,,0,,,74,49
6300,note_on,60,0,3,,,,,,,,,2,,,63,0
6300,note_on,0,0,3,,,,,,,,,2,,,57,0
6300,note_on,0,0,3,,,,,,,,,2,,,54,36
6300,note_on,0,0,3,,,,,,,,,2,,,62,36
6300,note_on,60,0,1,,,,,,,,,0,,,72,0
6360,note_on,240,0,4,,,,,,,,,3,,,55,36
6360,note_on,0,0,2,,,,,,,,,1,,,72,49
6360,note_on,0,0,3,,,,,,,,,2,,,54,0
6360,note_on,0,0,1,,,,,,,,,0,,,76,49
6360,note_on,60,0,3,,,,,,,,,2,,,62,0
6360,note_on,120,0,2,,,,,,,,,1,,,69,0
6360,note_on,0,0,3,,,,,,,,,2,,,60,36
6360,note_on,60,0,1,,,,,,,,,0,,,74,0
6420,note_on,60,0,2,,,,,,,,,1,,,72,0
6420,note_on,0,0,2,,,,,,,,,1,,,67,49
6420,note_on,0,0,3,,,,,,,,,2,,,59,36
6420,note_on,0,0,1,,,,,,,,,0,,,74,49
6420,note_on,60,0,3,,,,,,,,,2,,,60,0
6420,note_on,60,0,1,,,,,,,,,0,,,76,0
6450,note_on,30,0,2,,,,,,,,,1,,,67,0
6450,note_on,90,0,4,,,,,,,,,3,,,55,0
6450,note_on,30,0,1,,,,,,,,,0,,,74,0
6450,note_on,30,0,3,,,,,,,,,2,,,59,0
6480,note_on,30,0,3,,,,,,,,,2,,,52,36
6480,note_on,30,0,1,,,,,,,,,0,,,67,49
6486,note_on,6,0,3,,,,,,,,,2,,,52,0
6486,note_on,6,0,1,,,,,,,,,0,,,67,0
6540,control_change,90,0,2,,,,,,,,,1,64,127,,
6540,note_on,0,0,2,,,,,,,,,1,,,67,49
6540,note_on,0,0,3,,,,,,,,,2,,,49,36
6540,control_change,54,0,3,,,,,,,,,2,64,127,,
6540,note_on,90,0,4,,,,,,,,,3,,,43,36
6540,note_on,54,0,1,,,,,,,,,0,,,69,49
6600,note_on,60,0,2,,,,,,,,,1,,,67,0
6600,note_on,0,0,2,,,,,,,,,1,,,65,49
6600,note_on,0,0,3,,,,,,,,,2,,,50,36
6600,note_on,60,0,3,,,,,,,,,2,,,49,0
6630,note_on,0,0,2,,,,,,,,,1,,,64,49
6630,note_on,30,0,2,,,,,,,,,1,,,65,0
6630,note_on,30,0,3,,,,,,,,,2,,,50,0
6630,note_on,0,0,3,,,,,,,,,2,,,52,36
6660,control_change,0,0,2,,,,,,,,,1,64,0,,
6660,note_on,30,0,2,,,,,,,,,1,,,64,0
6660,note_on,0,0,2,,,,,,,,,1,,,62,49
6660,note_on,120,0,1,,,,,,,,,0,,,69,0
6660,note_on,0,0,1,,,,,,,,,0,,,71,49
6660,note_on,0,0,3,,,,,,,,,2,,,53,36
6660,control_change,0,0,3,,,,,,,,,2,64,0,,
6660,note_on,30,0,3,,,,,,,,,2,,,52,0
6666,note_on,6,0,1,,,,,,,,,0,,,71,0
6720,note_on,54,0,1,,,,,,,,,0,,,72,49
6720,note_on,180,0,4,,,,,,,,,3,,,43,0
6720,note_on,0,0,4,,,,,,,,,3,,,43,36
6780,note_on,0,0,3,,,,,,,,,2,,,52,36
6780,note_on,120,0,3,,,,,,,,,2,,,53,0
6780,note_on,0,0,2,,,,,,,,,1,,,60,49
6780,note_on,120,0,2,,,,,,,,,1,,,62,0
6840,note_on,0,0,1,,,,,,,,,0,,,67,49
6840,note_on,0,0,3,,,,,,,,,2,,,55,36
6840,note_on,0,0,1,,,,,,,,,0,,,74,49
6840,note_on,0,0,4,,,,,,,,,3,,,47,36
6840,note_on,0,0,1,,,,,,,,,0,,,62,49
6840,note_on,60,0,2,,,,,,,,,1,,,60,0
6840,note_on,60,0,3,,,,,,,,,2,,,52,0
6840,note_on,120,0,4,,,,,,,,,3,,,43,0
6840,note_on,120,0,1,,,,,,,,,0,,,72,0
6900,note_on,0,0,3,,,,,,,,,2,,,55,36
6900,note_on,0,0,3,,,,,,,,,2,,,48,36
6900,note_on,60,0,3,,,,,,,,,2,,,55,0
6900,note_on,60,0,1,,,,,,,,,0,,,74,0
6900,note_on,0,0,1,,,,,,,,,0,,,67,0
6900,note_on,0,0,1,,,,,,,,,0,,,62,0
6900,note_on,0,0,1,,,,,,,,,0,,,64,49
6900,note_on,0,0,1,,,,,,,,,0,,,67,49
6900,note_on,0,0,1,,,,,,,,,0,,,76,49
6900,note_on,60,0,4,,,,,,,,,3,,,47,0
6960,note_on,0,0,3,,,,,,,,,2,,,54,36
6960,note_on,0,0,3,,,,,,,,,2,,,51,36
6960,note_on,0,0,3,,,,,,,,,2,,,48,0
6960,note_on,60,0,1,,,,,,,,,0,,,76,0
6960,note_on,0,0,1,,,,,,,,,0,,,67,0
6960,note_on,0,0,1,,,,,,,,,0,,,64,0
6960,note_on,60,0,3,,,,,,,,,2,,,55,0
6960,note_on,0,0,1,,,,,,,,,0,,,69,49
6960,note_on,0,0,1,,,,,,,,,0,,,60,49
7020,note_on,0,0,1,,,,,,,,,0,,,66,49
7020,note_on,0,0,1,,,,,,,,,0,,,60,0
7020,note_on,180,0,2,,,,,,,,,1,,,62,49
7020,note_on,60,0,3,,,,,,,,,2,,,54,0
7020,note_on,0,0,3,,,,,,,,,2,,,51,0
7020,note_on,60,0,1,,,,,,,,,0,,,69,0
7020,note_on,0,0,3,,,,,,,,,2,,,50,36
7020,note_on,0,0,3,,,,,,,,,2,,,57,36
7020,note_on,0,0,1,,,,,,,,,0,,,74,49
7050,note_on,0,0,2,,,,,,,,,1,,,60,49
7050,note_on,30,0,2,,,,,,,,,1,,,62,0
7080,note_on,0,0,1,,,,,,,,,0,,,67,49
7080,note_on,0,0,1,,,,,,,,,0,,,59,49
7080,note_on,0,0,1,,,,,,,,,0,,,66,0
7080,note_on,60,0,1,,,,,,,,,0,,,74,0
7080,note_on,30,0,2,,,,,,,,,1,,,60,0
7080,note_on,0,0,3,,,,,,,,,2,,,50,36
7080,note_on,0,0,3,,,,,,,,,2,,,50,0
7080,note_on,60,0,3,,,,,,,,,2,,,57,0
7080,note_on,0,0,3,,,,,,,,,2,,,55,36
7080,note_on,0,0,3,,,,,,,,,2,,,43,36
7200,note_on,120,0,1,,,,,,,,,0,,,67,0
7200,note_on,0,0,1,,,,,,,,,0,,,59,0
7200,note_on,0,0,1,,,,,,,,,0,,,67,36
7200,note_on,0,0,1,,,,,,,,,0,,,64,36
7200,note_on,120,0,3,,,,,,,,,2,,,55,0
7200,note_on,0,0,3,,,,,,,,,2,,,50,0
7200,note_on,0,0,3,,,,,,,,,2,,,43,0
7200,note_on,0,0,3,,,,,,,,,2,,,60,36
7206,note_on,6,0,1,,,,,,,,,0,,,67,0
7206,note_on,0,0,1,,,,,,,,,0,,,64,0
7230,note_on,30,0,3,,,,,,,,,2,,,60,0
7230,note_on,0,0,3,,,,,,,,,2,,,61,36
7260,note_on,54,0,1,,,,,,,,,0,,,65,36
7260,note_on,30,0,3,,,,,,,,,2,,,61,0
7260,note_on,0,0,3,,,,,,,,,2,,,62,62
7260,note_on,0,0,1,,,,,,,,,0,,,67,36
7380,note_on,0,0,1,,,,,,,,,0,,,67,36
7380,note_on,0,0,1,,,,,,,,,0,,,65,0
7380,note_on,0,0,1,,,,,,,,,0,,,62,36
7380,note_on,120,0,3,,,,,,,,,2,,,62,0
7380,note_on,0,0,3,,,,,,,,,2,,,59,36
7380,note_on,120,0,1,,,,,,,,,0,,,67,0
7386,note_on,6,0,1,,,,,,,,,0,,,67,0
7386,note_on,0,0,1,,,,,,,,,0,,,62,0
7387,note_on,7,0,3,,,,,,,,,2,,,60,36
7388,note_on,1,0,3,,,,,,,,,2,,,59,0
7395,note_on,7,0,3,,,,,,,,,2,,,60,0
7395,note_on,0,0,3,,,,,,,,,2,,,59,36
7402,note_on,7,0,3,,,,,,,,,2,,,60,36
7403,note_on,1,0,3,,,,,,,,,2,,,59,0
7410,note_on,7,0,3,,,,,,,,,2,,,60,0
7410,note_on,0,0,3,,,,,,,,,2,,,59,36
7417,note_on,7,0,3,,,,,,,,,2,,,60,36
7418,note_on,1,0,3,,,,,,,,,2,,,59,0
7425,note_on,7,0,3,,,,,,,,,2,,,60,0
7425,note_on,0,0,3,,,,,,,,,2,,,59,36
7432,note_on,7,0,3,,,,,,,,,2,,,60,36
7433,note_on,1,0,3,,,,,,,,,2,,,59,0
7440,note_on,0,0,3,,,,,,,,,2,,,60,62
7440,note_on,0,0,1,,,,,,,,,0,,,67,36
7440,note_on,7,0,3,,,,,,,,,2,,,60,0
7440,note_on,54,0,1,,,,,,,,,0,,,64,36
7560,note_on,0,0,3,,,,,,,,,2,,,52,36
7560,note_on,120,0,3,,,,,,,,,2,,,60,0
7560,note_on,480,0,2,,,,,,,,,1,,,67,49
7560,note_on,120,0,1,,,,,,,,,0,,,67,0
7560,note_on,0,0,1,,,,,,,,,0,,,64,0
7560,note_on,0,0,1,,,,,,,,,0,,,60,36
7566,note_on,6,0,2,,,,,,,,,1,,,67,0
7566,note_on,6,0,3,,,,,,,,,2,,,52,0
7605,note_on,45,0,1,,,,,,,,,0,,,60,0
7605,note_on,0,0,1,,,,,,,,,0,,,64,36
7620,note_on,0,0,1,,,,,,,,,0,,,64,36
7620,control_change,54,0,3,,,,,,,,,2,64,127,,
7620,note_on,0,0,3,,,,,,,,,2,,,41,36
7620,note_on,0,0,3,,,,,,,,,2,,,53,36
7620,note_on,0,0,2,,,,,,,,,1,,,69,49
7620,control_change,54,0,2,,,,,,,,,1,64,127,,
7620,note_on,15,0,1,,,,,,,,,0,,,64,0
7620,control_change,0,0,1,,,,,,,,,0,64,127,,
7626,note_on,6,0,3,,,,,,,,,2,,,53,0
7626,note_on,0,0,3,,,,,,,,,2,,,41,0
7626,note_on,6,0,2,,,,,,,,,1,,,69,0
7635,note_on,15,0,1,,,,,,,,,0,,,64,0
7635,note_on,0,0,1,,,,,,,,,0,,,65,36
7650,note_on,15,0,1,,,,,,,,,0,,,65,0
7650,note_on,0,0,1,,,,,,,,,0,,,67,36
7665,note_on,15,0,1,,,,,,,,,0,,,67,0
7665,note_on,0,0,1,,,,,,,,,0,,,65,36
7680,note_on,15,0,1,,,,,,,,,0,,,65,0
7680,control_change,0,0,1,,,,,,,,,0,64,0,,
7680,note_on,0,0,1,,,,,,,,,0,,,62,36
7680,control_change,54,0,2,,,,,,,,,1,64,0,,
7680,note_on,0,0,2,,,,,,,,,1,,,69,49
7680,note_on,0,0,3,,,,,,,,,2,,,53,36
7680,control_change,54,0,3,,,,,,,,,2,64,0,,
7680,note_on,0,0,3,,,,,,,,,2,,,45,36
7686,note_on,6,0,2,,,,,,,,,1,,,69,0
7686,note_on,0,0,3,,,,,,,,,2,,,45,0
7686,note_on,6,0,3,,,,,,,,,2,,,53,0
7740,note_on,54,0,3,,,,,,,,,2,,,45,36
7740,note_on,0,0,1,,,,,,,,,0,,,61,36
7740,note_on,60,0,1,,,,,,,,,0,,,62,0
7740,note_on,54,0,2,,,,,,,,,1,,,69,49
7740,note_on,0,0,3,,,,,,,,,2,,,55,36
7746,note_on,0,0,3,,,,,,,,,2,,,45,0
7746,note_on,6,0,2,,,,,,,,,1,,,69,0
7746,note_on,6,0,3,,,,,,,,,2,,,55,0
7800,note_on,60,0,1,,,,,,,,,0,,,61,0
7800,note_on,0,0,1,,,,,,,,,0,,,69,36
7800,note_on,0,0,3,,,,,,,,,2,,,53,36
7800,note_on,0,0,1,,,,,,,,,0,,,62,36
7800,note_on,54,0,3,,,,,,,,,2,,,50,36
7920,note_on,120,0,3,,,,,,,,,2,,,53,0
7920,note_on,0,0,3,,,,,,,,,2,,,50,0
7920,note_on,0,0,3,,,,,,,,,2,,,60,36
7920,note_on,0,0,3,,,,,,,,,2,,,64,36
7920,note_on,120,0,1,,,,,,,,,0,,,69,0
7920,note_on,0,0,1,,,,,,,,,0,,,62,0
7920,note_on,0,0,1,,,,,,,,,0,,,69,36
7920,note_on,0,0,1,,,,,,,,,0,,,76,36
7926,note_on,6,0,3,,,,,,,,,2,,,64,0
7926,note_on,0,0,3,,,,,,,,,2,,,60,0
7926,note_on,0,0,1,,,,,,,,,0,,,69,0
7926,note_on,6,0,1,,,,,,,,,0,,,76,0
7980,note_on,0,0,3,,,,,,,,,2,,,65,75
7980,note_on,0,0,1,,,,,,,,,0,,,77,88
7980,note_on,0,0,3,,,,,,,,,2,,,62,75
7980,note_on,54,0,3,,,,,,,,,2,,,59,75
7980,note_on,54,0,1,,,,,,,,,0,,,68,88
8100,note_on,120,0,1,,,,,,,,,0,,,77,0
8100,note_on,0,0,1,,,,,,,,,0,,,67,49
8100,note_on,0,0,1,,,,,,,,,0,,,68,0
8100,note_on,0,0,3,,,,,,,,,2,,,65,36
8100,note_on,0,0,3,,,,,,,,,2,,,59,0
8100,note_on,0,0,3,,,,,,,,,2,,,55,36
8100,note_on,0,0,1,,,,,,,,,0,,,71,49
8100,note_on,0,0,3,,,,,,,,,2,,,62,0
8100,note_on,120,0,3,,,,,,,,,2,,,65,0
8100,note_on,0,0,1,,,,,,,,,0,,,74,49
8106,note_on,6,0,3,,,,,,,,,2,,,65,0
8106,note_on,0,0,3,,,,,,,,,2,,,55,0
8106,note_on,0,0,1,,,,,,,,,0,,,71,0
8106,note_on,0,0,1,,,,,,,,,0,,,67,0
8106,note_on,6,0,1,,,,,,,,,0,,,74,0
8160,note_on,54,0,1,,,,,,,,,0,,,67,65
8160,note_on,0,0,1,,,,,,,,,0,,,76,75
8160,note_on,0,0,1,,,,,,,,,0,,,72,70
8160,note_on,54,0,3,,,,,,,,,2,,,60,36
8160,note_on,0,0,3,,,,,,,,,2,,,64,36
8280,note_on,120,0,3,,,,,,,,,2,,,64,0
8280,note_on,0,0,3,,,,,,,,,2,,,60,0
8280,note_on,0,0,3,,,,,,,,,2,,,52,36
8280,note_on,0,0,3,,,,,,,,,2,,,60,36
8280,note_on,534,0,2,,,,,,,,,1,,,67,36
8280,note_on,0,0,1,,,,,,,,,0,,,72,49
8280,note_on,0,0,1,,,,,,,,,0,,,72,0
8280,note_on,120,0,1,,,,,,,,,0,,,76,0
8280,note_on,0,0,1,,,,,,,,,0,,,67,0
8286,note_on,6,0,1,,,,,,,,,0,,,72,0
8286,note_on,6,0,3,,,,,,,,,2,,,60,0
8286,note_on,0,0,3,,,,,,,,,2,,,52,0
8310,note_on,30,0,2,,,,,,,,,1,,,67,0
8310,note_on,0,0,2,,,,,,,,,1,,,68,36
8340,note_on,30,0,2,,,,,,,,,1,,,68,0
8340,note_on,0,0,2,,,,,,,,,1,,,69,36
8340,note_on,1440,0,4,,,,,,,,,3,,,53,36
8340,note_on,54,0,1,,,,,,,,,0,,,76,49
8340,note_on,54,0,3,,,,,,,,,2,,,60,36
8370,note_on,0,0,3,,,,,,,,,2,,,62,36
8370,note_on,30,0,3,,,,,,,,,2,,,60,0
8385,note_on,0,0,1,,,,,,,,,0,,,74,49
8385,note_on,45,0,1,,,,,,,,,0,,,76,0
8400,note_on,60,0,2,,,,,,,,,1,,,69,0
8400,note_on,0,0,1,,,,,,,,,0,,,72,49
8400,note_on,30,0,3,,,,,,,,,2,,,62,0
8400,note_on,15,0,1,,,,,,,,,0,,,74,0
8400,note_on,0,0,2,,,,,,,,,1,,,67,36
8400,note_on,60,0,4,,,,,,,,,3,,,53,0
8400,note_on,0,0,4,,,,,,,,,3,,,55,36
8400,note_on,0,0,4,,,,,,,,,3,,,64,36
8406,note_on,6,0,1,,,,,,,,,0,,,72,0
8406,note_on,6,0,2,,,,,,,,,1,,,67,0
8406,note_on,0,0,4,,,,,,,,,3,,,55,0
8406,note_on,6,0,4,,,,,,,,,3,,,64,0
8460,note_on,0,0,4,,,,,,,,,3,,,62,36
8460,note_on,54,0,4,,,,,,,,,3,,,55,36
8460,note_on,0,0,1,,,,,,,,,0,,,71,49
8460,note_on,54,0,1,,,,,,,,,0,,,67,49
8460,note_on,54,0,2,,,,,,,,,1,,,65,36
8466,note_on,0,0,1,,,,,,,,,0,,,67,0
8466,note_on,6,0,1,,,,,,,,,0,,,71,0
8466,note_on,6,0,4,,,,,,,,,3,,,62,0
8466,note_on,0,0,4,,,,,,,,,3,,,55,0
8466,note_on,6,0,2,,,,,,,,,1,,,65,0
8520,note_on,54,0,1,,,,,,,,,0,,,64,49
8520,note_on,0,0,1,,,,,,,,,0,,,67,49
8520,note_on,0,0,3,,,,,,,,,2,,,55,36
8520,time_signature,2700,1,0,2,8,12,8,,,,,,,,,
8520,note_on,0,0,1,,,,,,,,,0,,,72,49
8520,note_on,0,0,3,,,,,,,,,2,,,60,36
8520,note_on,120,0,3,,,,,,,,,2,,,48,36
8640,time_signature,120,1,0,1,8,12,8,,,,,,,,,
8640,note_on,0,0,1,,,,,,,,,0,,,76,49
8640,note_on,0,0,1,,,,,,,,,0,,,67,49
8640,note_on,0,0,1,,,,,,,,,0,,,64,0
8640,note_on,0,0,1,,,,,,,,,0,,,67,0
8640,note_on,120,0,1,,,,,,,,,0,,,72,0
8640,note_on,120,0,3,,,,,,,,,2,,,60,0
8640,note_on,0,0,3,,,,,,,,,2,,,55,0
8640,note_on,0,0,3,,,,,,,,,2,,,48,0
8640,note_on,0,0,3,,,,,,,,,2,,,60,36
8646,note_on,0,0,1,,,,,,,,,0,,,67,0
8646,note_on,6,0,1,,,,,,,,,0,,,76,0
8670,note_on,0,0,3,,,,,,,,,2,,,61,36
8670,note_on,30,0,3,,,,,,,,,2,,,60,0
8700,control_change,0,0,3,,,,,,,,,2,64,127,,
8700,note_on,30,0,3,,,,,,,,,2,,,61,0
8700,time_signature,60,1,0,3,8,12,8,,,,,,,,,
8700,note_on,54,0,1,,,,,,,,,0,,,67,49
8700,note_on,0,0,1,,,,,,,,,0,,,77,49
8700,note_on,0,0,3,,,,,,,,,2,,,61,62
8730,note_on,0,0,3,,,,,,,,,2,,,62,36
8730,note_on,30,0,3,,,,,,,,,2,,,61,0
8760,note_on,30,0,3,,,,,,,,,2,,,62,0
8760,note_on,0,0,3,,,,,,,,,2,,,59,36
8790,note_on,30,0,3,,,,,,,,,2,,,59,0
8790,control_change,0,0,3,,,,,,,,,2,64,0,,
8790,note_on,0,0,3,,,,,,,,,2,,,55,36
8820,note_on,0,0,3,,,,,,,,,2,,,57,36
8820,note_on,30,0,3,,,,,,,,,2,,,55,0
8820,note_on,0,0,1,,,,,,,,,0,,,74,49
8820,note_on,0,0,1,,,,,,,,,0,,,67,49
8820,note_on,0,0,1,,,,,,,,,0,,,67,0
8820,note_on,120,0,1,,,,,,,,,0,,,77,0
8826,note_on,0,0,1,,,,,,,,,0,,,67,0
8826,note_on,6,0,1,,,,,,,,,0,,,74,0
8850,note_on,0,0,3,,,,,,,,,2,,,59,36
8850,note_on,30,0,3,,,,,,,,,2,,,57,0
8880,note_on,0,0,3,,,,,,,,,2,,,59,62
8880,note_on,54,0,1,,,,,,,,,0,,,67,49
8880,note_on,0,0,1,,,,,,,,,0,,,76,49
8880,note_on,30,0,3,,,,,,,,,2,,,59,0
8880,control_change,0,0,3,,,,,,,,,2,64,127,,
8910,note_on,30,0,3,,,,,,,,,2,,,59,0
8910,note_on,0,0,3,,,,,,,,,2,,,60,36
8940,note_on,0,0,3,,,,,,,,,2,,,55,36
8940,note_on,30,0,3,,,,,,,,,2,,,60,0
8970,control_change,0,0,3,,,,,,,,,2,64,0,,
8970,note_on,30,0,3,,,,,,,,,2,,,55,0
8970,note_on,0,0,1,,,,,,,,,0,,,67,0
8970,note_on,0,0,1,,,,,,,,,0,,,67,49
8970,note_on,0,0,1,,,,,,,,,0,,,72,49
8970,note_on,0,0,3,,,,,,,,,2,,,52,36
8970,note_on,90,0,1,,,,,,,,,0,,,76,0
9000,note_on,30,0,1,,,,,,,,,0,,,72,0
9000,note_on,0,0,1,,,,,,,,,0,,,74,49
9000,note_on,0,0,1,,,,,,,,,0,,,67,49
9000,note_on,0,0,1,,,,,,,,,0,,,67,0
9000,note_on,30,0,3,,,,,,,,,2,,,52,0
9000,note_on,0,0,3,,,,,,,,,2,,,53,36
9030,note_on,0,0,1,,,,,,,,,0,,,67,0
9030,note_on,30,0,3,,,,,,,,,2,,,53,0
9030,note_on,0,0,3,,,,,,,,,2,,,55,36
9030,note_on,30,0,1,,,,,,,,,0,,,74,0
9030,note_on,0,0,1,,,,,,,,,0,,,67,49
9030,note_on,0,0,1,,,,,,,,,0,,,76,49
9060,note_on,594,0,2,,,,,,,,,1,,,67,36
9060,note_on,0,0,3,,,,,,,,,2,,,65,36
9060,note_on,0,0,3,,,,,,,,,2,,,55,36
9060,control_change,0,0,3,,,,,,,,,2,64,127,,
9060,note_on,30,0,3,,,,,,,,,2,,,55,0
9060,control_change,0,0,1,,,,,,,,,0,64,127,,
9060,note_on,0,0,1,,,,,,,,,0,,,73,49
9060,note_on,0,0,1,,,,,,,,,0,,,67,0
9060,note_on,30,0,1,,,,,,,,,0,,,76,0
9066,note_on,6,0,3,,,,,,,,,2,,,65,0
9066,note_on,0,0,3,,,,,,,,,2,,,55,0
9090,note_on,0,0,1,,,,,,,,,0,,,74,49
9090,note_on,30,0,1,,,,,,,,,0,,,73,0
9120,note_on,0,0,1,,,,,,,,,0,,,79,49
9120,note_on,30,0,1,,,,,,,,,0,,,74,0
9120,control_change,0,0,1,,,,,,,,,0,64,0,,
9120,note_on,60,0,2,,,,,,,,,1,,,67,0
9120,note_on,0,0,2,,,,,,,,,1,,,67,36
9120,control_change,54,0,3,,,,,,,,,2,64,0,,
9120,note_on,0,0,3,,,,,,,,,2,,,55,36
9120,note_on,0,0,3,,,,,,,,,2,,,64,36
9126,note_on,6,0,3,,,,,,,,,2,,,64,0
9126,note_on,0,0,3,,,,,,,,,2,,,55,0
9150,note_on,0,0,1,,,,,,,,,0,,,72,49
9150,note_on,30,0,1,,,,,,,,,0,,,79,0
9180,note_on,60,0,2,,,,,,,,,1,,,67,0
9180,note_on,0,0,1,,,,,,,,,0,,,79,49
9180,note_on,30,0,1,,,,,,,,,0,,,72,0
9180,note_on,0,0,3,,,,,,,,,2,,,62,36
9180,note_on,0,0,2,,,,,,,,,1,,,67,36
9180,note_on,54,0,3,,,,,,,,,2,,,55,36
9186,note_on,0,0,3,,,,,,,,,2,,,55,0
9186,note_on,6,0,3,,,,,,,,,2,,,62,0
9210,note_on,30,0,1,,,,,,,,,0,,,79,0
9210,note_on,0,0,1,,,,,,,,,0,,,71,49
9225,control_change,15,0,1,,,,,,,,,0,64,127,,
9225,note_on,0,0,1,,,,,,,,,0,,,67,49
9240,note_on,0,0,1,,,,,,,,,0,,,71,0
9240,note_on,60,0,2,,,,,,,,,1,,,67,0
9240,note_on,0,0,1,,,,,,,,,0,,,81,49
9240,note_on,15,0,1,,,,,,,,,0,,,67,0
9240,note_on,0,0,3,,,,,,,,,2,,,64,36
9240,note_on,54,0,3,,,,,,,,,2,,,60,36
9270,note_on,0,0,1,,,,,,,,,0,,,79,49
9270,note_on,30,0,1,,,,,,,,,0,,,81,0
9300,note_on,0,0,1,,,,,,,,,0,,,76,49
9300,note_on,30,0,1,,,,,,,,,0,,,79,0
9330,note_on,0,0,1,,,,,,,,,0,,,72,49
9330,control_change,0,0,1,,,,,,,,,0,64,0,,
9330,note_on,30,0,1,,,,,,,,,0,,,76,0
9360,note_on,120,0,3,,,,,,,,,2,,,64,0
9360,note_on,0,0,3,,,,,,,,,2,,,60,0
9360,note_on,0,0,3,,,,,,,,,2,,,60,36
9360,note_on,0,0,1,,,,,,,,,0,,,79,49
9360,note_on,0,0,1,,,,,,,,,0,,,76,49
9360,note_on,30,0,1,,,,,,,,,0,,,72,0
9360,note_on,0,0,1,,,,,,,,,0,,,67,49
9366,note_on,0,0,1,,,,,,,,,0,,,67,0
9366,note_on,0,0,1,,,,,,,,,0,,,76,0
9366,note_on,6,0,1,,,,,,,,,0,,,79,0
9390,note_on,30,0,3,,,,,,,,,2,,,60,0
9390,note_on,0,0,3,,,,,,,,,2,,,61,36
9420,note_on,0,0,3,,,,,,,,,2,,,64,62
9420,control_change,0,0,3,,,,,,,,,2,64,127,,
9420,note_on,30,0,3,,,,,,,,,2,,,61,0
9420,note_on,54,0,1,,,,,,,,,0,,,67,49
9420,note_on,0,0,1,,,,,,,,,0,,,79,49
9420,note_on,0,0,1,,,,,,,,,0,,,77,49
9450,note_on,0,0,3,,,,,,,,,2,,,62,36
9450,note_on,30,0,3,,,,,,,,,2,,,64,0
9480,note_on,30,0,3,,,,,,,,,2,,,62,0
9480,note_on,0,0,3,,,,,,,,,2,,,59,36
9510,note_on,30,0,3,,,,,,,,,2,,,59,0
9510,note_on,0,0,3,,,,,,,,,2,,,55,36
9525,note_on,15,0,3,,,,,,,,,2,,,59,36
9540,note_on,15,0,3,,,,,,,,,2,,,59,0
9540,note_on,0,0,3,,,,,,,,,2,,,55,0
9540,control_change,0,0,3,,,,,,,,,2,64,0,,
9540,note_on,0,0,3,,,,,,,,,2,,,57,36
9540,note_on,0,0,1,,,,,,,,,0,,,67,0
9540,note_on,0,0,1,,,,,,,,,0,,,77,0
9540,note_on,0,0,1,,,,,,,,,0,,,74,49
9540,note_on,0,0,1,,,,,,,,,0,,,79,49
9540,note_on,120,0,1,,,,,,,,,0,,,79,0
9540,note_on,0,0,1,,,,,,,,,0,,,67,49
9546,note_on,6,0,1,,,,,,,,,0,,,79,0
9546,note_on,0,0,1,,,,,,,,,0,,,74,0
9546,note_on,0,0,1,,,,,,,,,0,,,67,0
9555,note_on,0,0,3,,,,,,,,,2,,,55,36
9555,note_on,15,0,3,,,,,,,,,2,,,57,0
9570,note_on,0,0,3,,,,,,,,,2,,,57,36
9570,note_on,15,0,3,,,,,,,,,2,,,55,0
9585,note_on,0,0,3,,,,,,,,,2,,,59,36
9585,note_on,15,0,3,,,,,,,,,2,,,57,0
9600,note_on,54,0,1,,,,,,,,,0,,,67,49
9600,note_on,0,0,1,,,,,,,,,0,,,76,49
9600,control_change,0,0,3,,,,,,,,,2,64,127,,
9600,note_on,0,0,3,,,,,,,,,2,,,62,62
9600,note_on,15,0,3,,,,,,,,,2,,,59,0
9600,note_on,0,0,1,,,,,,,,,0,,,79,49
9630,note_on,0,0,3,,,,,,,,,2,,,60,36
9630,note_on,30,0,3,,,,,,,,,2,,,62,0
9660,note_on,0,0,3,,,,,,,,,2,,,55,36
9660,note_on,30,0,3,,,,,,,,,2,,,60,0
9690,note_on,0,0,1,,,,,,,,,0,,,67,0
9690,note_on,0,0,3,,,,,,,,,2,,,52,36
9690,control_change,0,0,3,,,,,,,,,2,64,0,,
9690,note_on,30,0,3,,,,,,,,,2,,,55,0
9690,note_on,0,0,1,,,,,,,,,0,,,76,0
9690,note_on,90,0,1,,,,,,,,,0,,,79,0
9690,note_on,0,0,1,,,,,,,,,0,,,72,49
9690,note_on,0,0,1,,,,,,,,,0,,,67,49
9720,note_on,0,0,3,,,,,,,,,2,,,50,36
9720,note_on,0,0,1,,,,,,,,,0,,,74,49
9720,note_on,0,0,1,,,,,,,,,0,,,67,49
9720,note_on,0,0,1,,,,,,,,,0,,,67,0
9720,note_on,30,0,1,,,,,,,,,0,,,72,0
9720,note_on,30,0,3,,,,,,,,,2,,,52,0
9750,note_on,0,0,1,,,,,,,,,0,,,76,49
9750,note_on,0,0,1,,,,,,,,,0,,,67,0
9750,note_on,30,0,1,,,,,,,,,0,,,74,0
9750,note_on,0,0,1,,,,,,,,,0,,,67,49
9750,note_on,30,0,3,,,,,,,,,2,,,50,0
9750,note_on,0,0,3,,,,,,,,,2,,,48,36
9780,note_on,0,0,3,,,,,,,,,2,,,47,36
9780,note_on,0,0,2,,,,,,,,,1,,,67,36
9780,control_change,540,0,2,,,,,,,,,1,64,127,,
9780,note_on,30,0,1,,,,,,,,,0,,,76,0
9780,note_on,0,0,1,,,,,,,,,0,,,67,0
9780,note_on,0,0,1,,,,,,,,,0,,,73,49
9780,control_change,0,0,1,,,,,,,,,0,64,127,,
9780,control_change,0,0,3,,,,,,,,,2,64,127,,
9780,note_on,30,0,3,,,,,,,,,2,,,48,0
9786,note_on,6,0,3,,,,,,,,,2,,,47,0
9810,note_on,30,0,1,,,,,,,,,0,,,73,0
9810,note_on,0,0,1,,,,,,,,,0,,,74,49
9840,note_on,0,0,2,,,,,,,,,1,,,71,36
9840,note_on,0,0,1,,,,,,,,,0,,,83,49
9840,note_on,60,0,2,,,,,,,,,1,,,67,0
9840,note_on,0,0,3,,,,,,,,,2,,,62,36
9840,note_on,54,0,3,,,,,,,,,2,,,50,36
9840,note_on,30,0,1,,,,,,,,,0,,,74,0
9846,note_on,0,0,3,,,,,,,,,2,,,50,0
9846,note_on,6,0,3,,,,,,,,,2,,,62,0
9870,note_on,30,0,1,,,,,,,,,0,,,83,0
9870,note_on,0,0,1,,,,,,,,,0,,,79,49
9900,control_change,0,0,2,,,,,,,,,1,64,0,,
9900,note_on,0,0,1,,,,,,,,,0,,,78,49
9900,note_on,1434,0,4,,,,,,,,,3,,,62,36
9900,note_on,60,0,2,,,,,,,,,1,,,71,0
9900,note_on,0,0,3,,,,,,,,,2,,,50,36
9900,control_change,54,0,3,,,,,,,,,2,64,0,,
9900,control_change,0,0,1,,,,,,,,,0,64,0,,
9900,note_on,0,0,2,,,,,,,,,1,,,69,36
9900,note_on,30,0,1,,,,,,,,,0,,,79,0
9930,note_on,30,0,4,,,,,,,,,3,,,62,0
9930,note_on,0,0,1,,,,,,,,,0,,,74,49
9930,note_on,30,0,1,,,,,,,,,0,,,78,0
9930,note_on,0,0,2,,,,,,,,,1,,,66,36
9930,note_on,30,0,2,,,,,,,,,1,,,69,0
9930,note_on,0,0,4,,,,,,,,,3,,,61,36
9960,control_change,0,0,3,,,,,,,,,2,64,127,,
9960,note_on,30,0,1,,,,,,,,,0,,,74,0
9960,time_signature,1260,1,0,2,8,12,8,,,,,,,,,
9960,note_on,0,0,3,,,,,,,,,2,,,59,36
9960,note_on,30,0,4,,,,,,,,,3,,,61,0
9960,note_on,0,0,4,,,,,,,,,3,,,55,36
9960,note_on,60,0,3,,,,,,,,,2,,,50,0
9960,note_on,0,0,1,,,,,,,,,0,,,79,49
9960,note_on,30,0,2,,,,,,,,,1,,,66,0
9960,note_on,0,0,2,,,,,,,,,1,,,67,36
9960,control_change,0,0,2,,,,,,,,,1,64,127,,
9990,note_on,30,0,2,,,,,,,,,1,,,67,0
9990,note_on,0,0,3,,,,,,,,,2,,,60,36
9990,note_on,30,0,3,,,,,,,,,2,,,59,0
9990,note_on,0,0,2,,,,,,,,,1,,,69,36
10020,note_on,0,0,2,,,,,,,,,1,,,67,36
10020,note_on,30,0,2,,,,,,,,,1,,,69,0
10020,note_on,0,0,3,,,,,,,,,2,,,59,36
10020,note_on,30,0,3,,,,,,,,,2,,,60,0
10050,control_change,0,0,2,,,,,,,,,1,64,0,,
10050,note_on,0,0,3,,,,,,,,,2,,,62,36
10050,control_change,0,0,3,,,,,,,,,2,64,0,,
10050,note_on,30,0,3,,,,,,,,,2,,,59,0
10050,note_on,30,0,2,,,,,,,,,1,,,67,0
10050,note_on,0,0,2,,,,,,,,,1,,,77,36
10080,note_on,120,0,1,,,,,,,,,0,,,79,0
10080,note_on,0,0,1,,,,,,,,,0,,,67,49
10080,note_on,0,0,1,,,,,,,,,0,,,76,49
10080,note_on,120,0,4,,,,,,,,,3,,,55,0
10080,note_on,30,0,2,,,,,,,,,1,,,77,0
10080,time_signature,120,1,0,1,8,12,8,,,,,,,,,
10080,note_on,30,0,3,,,,,,,,,2,,,62,0
10080,note_on,0,0,3,,,,,,,,,2,,,60,36
10086,note_on,0,0,1,,,,,,,,,0,,,67,0
10086,note_on,6,0,1,,,,,,,,,0,,,76,0
10110,note_on,30,0,3,,,,,,,,,2,,,60,0
10110,note_on,0,0,3,,,,,,,,,2,,,61,36
10140,time_signature,60,1,0,3,8,12,8,,,,,,,,,
10140,note_on,54,0,1,,,,,,,,,0,,,67,49
10140,note_on,0,0,3,,,,,,,,,2,,,61,62
10140,note_on,0,0,1,,,,,,,,,0,,,77,49
10140,control_change,0,0,3,,,,,,,,,2,64,127,,
10140,note_on,30,0,3,,,,,,,,,2,,,61,0
10170,note_on,0,0,3,,,,,,,,,2,,,62,36
10170,note_on,30,0,3,,,,,,,,,2,,,61,0
10200,note_on,30,0,3,,,,,,,,,2,,,62,0
10200,note_on,0,0,3,,,,,,,,,2,,,59,36
10230,note_on,0,0,3,,,,,,,,,2,,,55,36
10230,control_change,0,0,3,,,,,,,,,2,64,0,,
10230,note_on,30,0,3,,,,,,,,,2,,,59,0
10260,note_on,0,0,1,,,,,,,,,0,,,67,49
10260,note_on,120,0,1,,,,,,,,,0,,,77,0
10260,note_on,0,0,3,,,,,,,,,2,,,57,36
10260,note_on,30,0,3,,,,,,,,,2,,,55,0
10260,note_on,0,0,1,,,,,,,,,0,,,67,0
10260,note_on,0,0,1,,,,,,,,,0,,,74,49
10266,note_on,0,0,1,,,,,,,,,0,,,67,0
10266,note_on,6,0,1,,,,,,,,,0,,,74,0
10290,note_on,0,0,3,,,,,,,,,2,,,59,36
10290,note_on,30,0,3,,,,,,,,,2,,,57,0
10320,note_on,54,0,1,,,,,,,,,0,,,67,49
10320,control_change,0,0,3,,,,,,,,,2,64,127,,
10320,note_on,30,0,3,,,,,,,,,2,,,59,0
10320,note_on,0,0,1,,,,,,,,,0,,,76,49
10320,note_on,0,0,3,,,,,,,,,2,,,59,62
10350,note_on,30,0,3,,,,,,,,,2,,,59,0
10350,note_on,0,0,3,,,,,,,,,2,,,60,36
10380,note_on,30,0,3,,,,,,,,,2,,,60,0
10380,note_on,0,0,3,,,,,,,,,2,,,55,36
10410,note_on,0,0,1,,,,,,,,,0,,,67,49
10410,note_on,0,0,1,,,,,,,,,0,,,67,0
10410,note_on,90,0,1,,,,,,,,,0,,,76,0
10410,note_on,30,0,3,,,,,,,,,2,,,55,0
10410,control_change,0,0,3,,,,,,,,,2,64,0,,
10410,note_on,0,0,3,,,,,,,,,2,,,52,36
10410,note_on,0,0,1,,,,,,,,,0,,,72,49
10440,note_on,30,0,3,,,,,,,,,2,,,52,0
10440,note_on,0,0,3,,,,,,,,,2,,,53,36
10440,note_on,0,0,1,,,,,,,,,0,,,67,0
10440,note_on,0,0,1,,,,,,,,,0,,,74,49
10440,note_on,30,0,1,,,,,,,,,0,,,72,0
10440,note_on,0,0,1,,,,,,,,,0,,,67,49
10470,note_on,0,0,1,,,,,,,,,0,,,67,0
10470,note_on,0,0,1,,,,,,,,,0,,,67,49
10470,note_on,0,0,1,,,,,,,,,0,,,76,49
10470,note_on,0,0,3,,,,,,,,,2,,,55,36
10470,note_on,30,0,3,,,,,,,,,2,,,53,0
10470,note_on,30,0,1,,,,,,,,,0,,,74,0
10500,note_on,30,0,1,,,,,,,,,0,,,76,0
10500,note_on,0,0,1,,,,,,,,,0,,,67,0
10500,note_on,420,0,2,,,,,,,,,1,,,67,36
10500,control_change,0,0,1,,,,,,,,,0,64,127,,
10500,note_on,0,0,1,,,,,,,,,0,,,73,49
10500,note_on,30,0,3,,,,,,,,,2,,,55,0
10500,control_change,0,0,3,,,,,,,,,2,64,127,,
10500,note_on,0,0,3,,,,,,,,,2,,,55,36
10500,note_on,0,0,3,,,,,,,,,2,,,65,36
10506,note_on,0,0,3,,,,,,,,,2,,,55,0
10506,note_on,6,0,3,,,,,,,,,2,,,65,0
10530,note_on,0,0,1,,,,,,,,,0,,,74,49
10530,note_on,30,0,1,,,,,,,,,0,,,73,0
10560,note_on,0,0,2,,,,,,,,,1,,,67,36
10560,note_on,0,0,3,,,,,,,,,2,,,55,36
10560,note_on,60,0,2,,,,,,,,,1,,,67,0
10560,note_on,0,0,1,,,,,,,,,0,,,79,49
10560,note_on,30,0,1,,,,,,,,,0,,,74,0
10560,control_change,0,0,1,,,,,,,,,0,64,0,,
10560,note_on,0,0,3,,,,,,,,,2,,,64,36
10560,control_change,54,0,3,,,,,,,,,2,64,0,,
10566,note_on,0,0,3,,,,,,,,,2,,,55,0
10566,note_on,6,0,3,,,,,,,,,2,,,64,0
10590,note_on,0,0,1,,,,,,,,,0,,,72,49
10590,note_on,30,0,1,,,,,,,,,0,,,79,0
10620,note_on,54,0,3,,,,,,,,,2,,,55,36
10620,note_on,0,0,3,,,,,,,,,2,,,62,36
10620,note_on,0,0,2,,,,,,,,,1,,,67,36
10620,note_on,60,0,2,,,,,,,,,1,,,67,0
10620,note_on,30,0,1,,,,,,,,,0,,,72,0
10620,note_on,0,0,1,,,,,,,,,0,,,79,49
10626,note_on,0,0,3,,,,,,,,,2,,,55,0
10626,note_on,6,0,3,,,,,,,,,2,,,62,0
10650,note_on,0,0,1,,,,,,,,,0,,,71,49
10650,note_on,30,0,1,,,,,,,,,0,,,79,0
10665,control_change,15,0,1,,,,,,,,,0,64,127,,
10665,note_on,0,0,1,,,,,,,,,0,,,67,49
10680,note_on,54,0,3,,,,,,,,,2,,,60,36
10680,note_on,15,0,1,,,,,,,,,0,,,67,0
10680,note_on,0,0,1,,,,,,,,,0,,,71,0
10680,note_on,0,0,1,,,,,,,,,0,,,81,49
10680,note_on,0,0,3,,,,,,,,,2,,,64,36
10680,note_on,60,0,2,,,,,,,,,1,,,67,0
10710,note_on,30,0,1,,,,,,,,,0,,,81,0
10710,note_on,0,0,1,,,,,,,,,0,,,79,49
10740,note_on,30,0,1,,,,,,,,,0,,,79,0
10740,note_on,0,0,1,,,,,,,,,0,,,76,49
10770,control_change,0,0,1,,,,,,,,,0,64,0,,
10770,note_on,0,0,1,,,,,,,,,0,,,72,49
10770,note_on,30,0,1,,,,,,,,,0,,,76,0
10800,note_on,0,0,1,,,,,,,,,0,,,79,49
10800,note_on,0,0,1,,,,,,,,,0,,,76,49
10800,note_on,0,0,1,,,,,,,,,0,,,67,49
10800,note_on,30,0,1,,,,,,,,,0,,,72,0
10800,note_on,0,0,3,,,,,,,,,2,,,60,36
10800,note_on,0,0,3,,,,,,,,,2,,,60,0
10800,note_on,120,0,3,,,,,,,,,2,,,64,0
10806,note_on,0,0,1,,,,,,,,,0,,,67,0
10806,note_on,0,0,1,,,,,,,,,0,,,76,0
10806,note_on,6,0,1,,,,,,,,,0,,,79,0
10830,note_on,0,0,3,,,,,,,,,2,,,61,36
10830,note_on,30,0,3,,,,,,,,,2,,,60,0
10860,note_on,54,0,1,,,,,,,,,0,,,67,49
10860,note_on,0,0,3,,,,,,,,,2,,,64,62
10860,control_change,0,0,3,,,,,,,,,2,64,127,,
10860,note_on,0,0,1,,,,,,,,,0,,,77,49
10860,note_on,30,0,3,,,,,,,,,2,,,61,0
10860,note_on,0,0,1,,,,,,,,,0,,,79,49
10890,note_on,30,0,3,,,,,,,,,2,,,64,0
10890,note_on,0,0,3,,,,,,,,,2,,,62,36
10920,note_on,30,0,3,,,,,,,,,2,,,62,0
10920,note_on,0,0,3,,,,,,,,,2,,,59,36
10950,note_on,30,0,3,,,,,,,,,2,,,59,0
10950,note_on,0,0,3,,,,,,,,,2,,,55,36
10965,note_on,15,0,3,,,,,,,,,2,,,59,36
10980,note_on,15,0,3,,,,,,,,,2,,,59,0
10980,note_on,0,0,1,,,,,,,,,0,,,77,0
10980,note_on,0,0,3,,,,,,,,,2,,,55,0
10980,control_change,0,0,3,,,,,,,,,2,64,0,,
10980,note_on,0,0,3,,,,,,,,,2,,,57,36
10980,note_on,0,0,1,,,,,,,,,0,,,79,49
10980,note_on,0,0,1,,,,,,,,,0,,,74,49
10980,note_on,0,0,1,,,,,,,,,0,,,67,49
10980,note_on,0,0,1,,,,,,,,,0,,,67,0
10980,note_on,120,0,1,,,,,,,,,0,,,79,0
10986,note_on,0,0,1,,,,,,,,,0,,,74,0
10986,note_on,0,0,1,,,,,,,,,0,,,67,0
10986,note_on,6,0,1,,,,,,,,,0,,,79,0
10995,note_on,0,0,3,,,,,,,,,2,,,55,36
10995,note_on,15,0,3,,,,,,,,,2,,,57,0
11010,note_on,15,0,3,,,,,,,,,2,,,55,0
11010,note_on,0,0,3,,,,,,,,,2,,,57,36
11025,note_on,15,0,3,,,,,,,,,2,,,57,0
11025,note_on,0,0,3,,,,,,,,,2,,,59,36
11040,note_on,0,0,1,,,,,,,,,0,,,79,49
11040,note_on,0,0,1,,,,,,,,,0,,,76,49
11040,note_on,54,0,1,,,,,,,,,0,,,67,49
11040,note_on,0,0,3,,,,,,,,,2,,,62,62
11040,note_on,15,0,3,,,,,,,,,2,,,59,0
11040,control_change,0,0,3,,,,,,,,,2,64,127,,
11070,note_on,0,0,3,,,,,,,,,2,,,60,36
11070,note_on,30,0,3,,,,,,,,,2,,,62,0
11100,note_on,0,0,3,,,,,,,,,2,,,55,36
11100,note_on,30,0,3,,,,,,,,,2,,,60,0
11130,note_on,90,0,1,,,,,,,,,0,,,79,0
11130,note_on,30,0,3,,,,,,,,,2,,,55,0
11130,note_on,0,0,3,,,,,,,,,2,,,52,36
11130,note_on,0,0,1,,,,,,,,,0,,,72,49
11130,note_on,0,0,1,,,,,,,,,0,,,67,49
11130,control_change,0,0,3,,,,,,,,,2,64,0,,
11130,note_on,0,0,1,,,,,,,,,0,,,67,0
11130,note_on,0,0,1,,,,,,,,,0,,,76,0
11160,note_on,30,0,3,,,,,,,,,2,,,52,0
11160,note_on,0,0,3,,,,,,,,,2,,,50,36
11160,note_on,0,0,1,,,,,,,,,0,,,67,0
11160,note_on,30,0,1,,,,,,,,,0,,,72,0
11160,note_on,0,0,1,,,,,,,,,0,,,74,49
11160,note_on,0,0,1,,,,,,,,,0,,,67,49
11190,note_on,30,0,3,,,,,,,,,2,,,50,0
11190,note_on,0,0,3,,,,,,,,,2,,,48,36
11190,note_on,0,0,1,,,,,,,,,0,,,67,0
11190,note_on,0,0,1,,,,,,,,,0,,,67,49
11190,note_on,0,0,1,,,,,,,,,0,,,76,49
11190,note_on,30,0,1,,,,,,,,,0,,,74,0
11220,note_on,0,0,1,,,,,,,,,0,,,67,0
11220,note_on,0,0,3,,,,,,,,,2,,,47,36
11220,control_change,0,0,3,,,,,,,,,2,64,127,,
11220,note_on,0,0,2,,,,,,,,,1,,,67,36
11220,control_change,540,0,2,,,,,,,,,1,64,127,,
11220,note_on,30,0,3,,,,,,,,,2,,,48,0
11220,note_on,30,0,1,,,,,,,,,0,,,76,0
11220,note_on,0,0,1,,,,,,,,,0,,,73,49
11220,control_change,0,0,1,,,,,,,,,0,64,127,,
11226,note_on,6,0,3,,,,,,,,,2,,,47,0
11250,note_on,30,0,1,,,,,,,,,0,,,73,0
11250,note_on,0,0,1,,,,,,,,,0,,,74,49
11280,note_on,30,0,1,,,,,,,,,0,,,74,0
11280,note_on,0,0,1,,,,,,,,,0,,,83,49
11280,note_on,60,0,2,,,,,,,,,1,,,67,0
11280,note_on,0,0,2,,,,,,,,,1,,,71,36
11280,note_on,54,0,3,,,,,,,,,2,,,50,36
11280,note_on,0,0,3,,,,,,,,,2,,,62,36
11286,note_on,0,0,3,,,,,,,,,2,,,50,0
11286,note_on,6,0,3,,,,,,,,,2,,,62,0
11310,note_on,30,0,1,,,,,,,,,0,,,83,0
11310,note_on,0,0,1,,,,,,,,,0,,,79,49
11340,control_change,0,0,2,,,,,,,,,1,64,0,,
11340,control_change,0,0,1,,,,,,,,,0,64,0,,
11340,note_on,0,0,1,,,,,,,,,0,,,78,49
11340,note_on,0,0,2,,,,,,,,,1,,,69,36
11340,note_on,30,0,1,,,,,,,,,0,,,79,0
11340,note_on,0,0,3,,,,,,,,,2,,,50,36
11340,control_change,54,0,3,,,,,,,,,2,64,0,,
11340,note_on,1260,0,4,,,,,,,,,3,,,62,36
11340,note_on,60,0,2,,,,,,,,,1,,,71,0
11370,note_on,0,0,2,,,,,,,,,1,,,66,36
11370,note_on,30,0,1,,,,,,,,,0,,,78,0
11370,note_on,0,0,4,,,,,,,,,3,,,61,36
11370,note_on,30,0,4,,,,,,,,,3,,,62,0
11370,note_on,30,0,2,,,,,,,,,1,,,69,0
11370,note_on,0,0,1,,,,,,,,,0,,,74,49
11400,note_on,0,0,1,,,,,,,,,0,,,79,49
11400,control_change,0,0,3,,,,,,,,,2,64,127,,
11400,control_change,0,0,2,,,,,,,,,1,64,127,,
11400,note_on,30,0,4,,,,,,,,,3,,,61,0
11400,note_on,60,0,3,,,,,,,,,2,,,50,0
11400,note_on,0,0,2,,,,,,,,,1,,,67,36
11400,note_on,0,0,3,,,,,,,,,2,,,59,36
11400,note_on,0,0,4,,,,,,,,,3,,,55,36
11400,note_on,30,0,2,,,,,,,,,1,,,66,0
11400,note_on,30,0,1,,,,,,,,,0,,,74,0
11430,note_on,30,0,2,,,,,,,,,1,,,67,0
11430,note_on,0,0,2,,,,,,,,,1,,,69,36
11430,note_on,30,0,3,,,,,,,,,2,,,59,0
11430,note_on,0,0,3,,,,,,,,,2,,,60,36
11460,note_on,0,0,3,,,,,,,,,2,,,62,36
11460,note_on,30,0,3,,,,,,,,,2,,,60,0
11460,note_on,30,0,2,,,,,,,,,1,,,69,0
11460,note_on,0,0,2,,,,,,,,,1,,,71,36
11490,note_on,0,0,3,,,,,,,,,2,,,60,36
11490,control_change,0,0,3,,,,,,,,,2,64,0,,
11490,note_on,30,0,3,,,,,,,,,2,,,62,0
11490,note_on,30,0,2,,,,,,,,,1,,,71,0
11490,note_on,0,0,2,,,,,,,,,1,,,69,36
11490,control_change,0,0,2,,,,,,,,,1,64,0,,
11520,note_on,120,0,1,,,,,,,,,0,,,79,0
11520,note_on,0,0,4,,,,,,,,,3,,,55,36
11520,note_on,120,0,4,,,,,,,,,3,,,55,0
11520,note_on,0,0,1,,,,,,,,,0,,,67,49
11520,note_on,0,0,3,,,,,,,,,2,,,59,36
11520,note_on,30,0,3,,,,,,,,,2,,,60,0
11520,note_on,30,0,2,,,,,,,,,1,,,69,0
11550,note_on,30,0,4,,,,,,,,,3,,,55,0
11550,note_on,0,0,4,,,,,,,,,3,,,52,36
11580,note_on,0,0,1,,,,,,,,,0,,,69,49
11580,note_on,0,0,3,,,,,,,,,2,,,49,36
11580,note_on,60,0,3,,,,,,,,,2,,,59,0
11580,note_on,60,0,1,,,,,,,,,0,,,67,0
11580,note_on,30,0,4,,,,,,,,,3,,,52,0
11580,note_on,60,0,2,,,,,,,,,1,,,67,36
11610,note_on,0,0,3,,,,,,,,,2,,,50,36
11610,note_on,30,0,3,,,,,,,,,2,,,49,0
11640,note_on,60,0,2,,,,,,,,,1,,,67,0
11640,note_on,0,0,3,,,,,,,,,2,,,53,36
11640,note_on,30,0,3,,,,,,,,,2,,,50,0
11640,note_on,0,0,2,,,,,,,,,1,,,65,36
11670,note_on,0,0,2,,,,,,,,,1,,,64,36
11670,note_on,30,0,2,,,,,,,,,1,,,65,0
11670,note_on,30,0,3,,,,,,,,,2,,,53,0
11670,note_on,0,0,3,,,,,,,,,2,,,57,36
11700,note_on,30,0,3,,,,,,,,,2,,,57,0
11700,note_on,30,0,2,,,,,,,,,1,,,64,0
11700,note_on,120,0,1,,,,,,,,,0,,,69,0
11700,note_on,0,0,1,,,,,,,,,0,,,69,49
11700,note_on,0,0,3,,,,,,,,,2,,,62,36
11700,note_on,0,0,2,,,,,,,,,1,,,65,36
11730,note_on,30,0,3,,,,,,,,,2,,,62,0
11730,note_on,0,0,3,,,,,,,,,2,,,60,36
11730,note_on,30,0,1,,,,,,,,,0,,,69,0
11730,note_on,0,0,1,,,,,,,,,0,,,74,49
11760,note_on,0,0,3,,,,,,,,,2,,,59,36
11760,note_on,30,0,3,,,,,,,,,2,,,60,0
11760,note_on,0,0,2,,,,,,,,,1,,,65,36
11760,note_on,60,0,2,,,,,,,,,1,,,65,0
11760,note_on,0,0,1,,,,,,,,,0,,,67,49
11760,note_on,30,0,1,,,,,,,,,0,,,74,0
11790,note_on,0,0,3,,,,,,,,,2,,,60,36
11790,note_on,30,0,3,,,,,,,,,2,,,59,0
11805,note_on,0,0,3,,,,,,,,,2,,,62,36
11805,note_on,15,0,3,,,,,,,,,2,,,60,0
11820,note_on,15,0,3,,,,,,,,,2,,,62,0
11820,note_on,60,0,2,,,,,,,,,1,,,65,0
11820,note_on,0,0,2,,,,,,,,,1,,,64,36
11820,note_on,60,0,1,,,,,,,,,0,,,67,0
11820,note_on,0,0,3,,,,,,,,,2,,,60,36
11820,note_on,0,0,1,,,,,,,,,0,,,72,49
11850,note_on,0,0,3,,,,,,,,,2,,,55,36
11850,note_on,30,0,3,,,,,,,,,2,,,60,0
11880,note_on,60,0,1,,,,,,,,,0,,,72,0
11880,note_on,30,0,3,,,,,,,,,2,,,55,0
11880,note_on,0,0,3,,,,,,,,,2,,,53,36
11880,note_on,0,0,2,,,,,,,,,1,,,67,36
11880,note_on,60,0,2,,,,,,,,,1,,,64,0
11880,note_on,0,0,1,,,,,,,,,0,,,74,49
11910,note_on,30,0,3,,,,,,,,,2,,,53,0
11910,note_on,0,0,3,,,,,,,,,2,,,50,36
11940,note_on,0,0,2,,,,,,,,,1,,,72,36
11940,note_on,60,0,1,,,,,,,,,0,,,74,0
11940,note_on,0,0,3,,,,,,,,,2,,,48,36
11940,note_on,30,0,3,,,,,,,,,2,,,50,0
11940,note_on,60,0,2,,,,,,,,,1,,,67,0
11940,note_on,0,0,1,,,,,,,,,0,,,76,49
11970,note_on,0,0,1,,,,,,,,,0,,,74,49
11970,note_on,30,0,1,,,,,,,,,0,,,76,0
11970,note_on,0,0,2,,,,,,,,,1,,,67,36
11970,note_on,30,0,3,,,,,,,,,2,,,48,0
11970,note_on,30,0,2,,,,,,,,,1,,,72,0
11970,note_on,0,0,3,,,,,,,,,2,,,47,36
12000,note_on,0,0,1,,,,,,,,,0,,,72,49
12000,note_on,30,0,2,,,,,,,,,1,,,67,0
12000,note_on,0,0,2,,,,,,,,,1,,,64,36
12000,note_on,0,0,3,,,,,,,,,2,,,45,36
12000,note_on,30,0,1,,,,,,,,,0,,,74,0
12000,note_on,30,0,3,,,,,,,,,2,,,47,0
12030,note_on,30,0,2,,,,,,,,,1,,,64,0
12030,note_on,30,0,1,,,,,,,,,0,,,72,0
12030,note_on,0,0,1,,,,,,,,,0,,,74,49
12030,note_on,0,0,2,,,,,,,,,1,,,71,36
12030,note_on,0,0,3,,,,,,,,,2,,,43,36
12030,note_on,30,0,3,,,,,,,,,2,,,45,0
12060,note_on,0,0,3,,,,,,,,,2,,,42,36
12060,note_on,30,0,2,,,,,,,,,1,,,71,0
12060,note_on,0,0,1,,,,,,,,,0,,,75,49
12060,note_on,30,0,1,,,,,,,,,0,,,74,0
12060,note_on,0,0,2,,,,,,,,,1,,,72,36
12060,note_on,30,0,3,,,,,,,,,2,,,43,0
12090,note_on,30,0,1,,,,,,,,,0,,,75,0
12090,note_on,0,0,1,,,,,,,,,0,,,81,49
12120,note_on,60,0,2,,,,,,,,,1,,,72,0
12120,note_on,0,0,1,,,,,,,,,0,,,72,49
12120,note_on,30,0,1,,,,,,,,,0,,,81,0
12120,note_on,0,0,1,,,,,,,,,0,,,76,49
12120,note_on,60,0,3,,,,,,,,,2,,,42,0
12120,note_on,0,0,3,,,,,,,,,2,,,43,36
12120,control_change,0,0,3,,,,,,,,,2,64,127,,
12150,note_on,30,0,3,,,,,,,,,2,,,43,0
12150,note_on,0,0,3,,,,,,,,,2,,,54,36
12180,note_on,0,0,1,,,,,,,,,0,,,74,49
12180,note_on,0,0,1,,,,,,,,,0,,,71,49
12180,note_on,0,0,1,,,,,,,,,0,,,72,0
12180,note_on,60,0,1,,,,,,,,,0,,,76,0
12180,note_on,0,0,3,,,,,,,,,2,,,55,36
12180,note_on,30,0,3,,,,,,,,,2,,,54,0
12210,note_on,30,0,1,,,,,,,,,0,,,74,0
12210,note_on,30,0,3,,,,,,,,,2,,,55,0
12210,control_change,0,0,3,,,,,,,,,2,64,0,,
12210,note_on,0,0,3,,,,,,,,,2,,,57,36
12210,note_on,0,0,1,,,,,,,,,0,,,71,0
12225,note_on,15,0,3,,,,,,,,,2,,,57,0
12225,note_on,0,0,3,,,,,,,,,2,,,59,36
12240,note_on,30,0,1,,,,,,,,,0,,,67,49
12240,note_on,0,0,1,,,,,,,,,0,,,76,49
12240,note_on,15,0,3,,,,,,,,,2,,,59,0
12240,note_on,0,0,3,,,,,,,,,2,,,60,36
12246,note_on,0,0,1,,,,,,,,,0,,,67,0
12246,note_on,6,0,1,,,,,,,,,0,,,76,0
12270,note_on,30,0,3,,,,,,,,,2,,,60,0
12270,note_on,0,0,3,,,,,,,,,2,,,61,36
12300,note_on,54,0,1,,,,,,,,,0,,,67,67
12300,note_on,0,0,3,,,,,,,,,2,,,61,62
12300,note_on,30,0,3,,,,,,,,,2,,,61,0
12300,control_change,0,0,3,,,,,,,,,2,64,127,,
12300,note_on,0,0,1,,,,,,,,,0,,,77,75
12330,note_on,0,0,3,,,,,,,,,2,,,62,36
12330,note_on,30,0,3,,,,,,,,,2,,,61,0
12360,note_on,0,0,3,,,,,,,,,2,,,59,36
12360,note_on,30,0,3,,,,,,,,,2,,,62,0
12390,note_on,0,0,3,,,,,,,,,2,,,55,36
12390,note_on,30,0,3,,,,,,,,,2,,,59,0
12405,note_on,15,0,3,,,,,,,,,2,,,59,36
12420,note_on,0,0,3,,,,,,,,,2,,,55,0
12420,note_on,15,0,3,,,,,,,,,2,,,59,0
12420,control_change,0,0,3,,,,,,,,,2,64,0,,
12420,note_on,0,0,3,,,,,,,,,2,,,57,36
12420,note_on,120,0,1,,,,,,,,,0,,,77,0
12420,note_on,0,0,1,,,,,,,,,0,,,67,0
12420,note_on,0,0,1,,,,,,,,,0,,,67,49
12420,note_on,0,0,1,,,,,,,,,0,,,74,49
12426,note_on,0,0,1,,,,,,,,,0,,,67,0
12426,note_on,6,0,1,,,,,,,,,0,,,74,0
12435,note_on,0,0,3,,,,,,,,,2,,,55,36
12435,note_on,15,0,3,,,,,,,,,2,,,57,0
12450,note_on,15,0,3,,,,,,,,,2,,,55,0
12450,note_on,0,0,3,,,,,,,,,2,,,57,36
12465,note_on,15,0,3,,,,,,,,,2,,,57,0
12465,note_on,0,0,3,,,,,,,,,2,,,59,36
12480,control_change,54,0,1,,,,,,,,,0,64,127,,
12480,note_on,0,0,1,,,,,,,,,0,,,67,49
12480,note_on,0,0,1,,,,,,,,,0,,,76,49
12480,note_on,0,0,3,,,,,,,,,2,,,62,36
12480,note_on,15,0,3,,,,,,,,,2,,,59,0
12480,control_change,0,0,3,,,,,,,,,2,64,127,,
12510,note_on,0,0,3,,,,,,,,,2,,,60,36
12510,note_on,30,0,3,,,,,,,,,2,,,62,0
12540,note_on,30,0,3,,,,,,,,,2,,,60,0
12540,note_on,0,0,3,,,,,,,,,2,,,55,36
12570,note_on,0,0,1,,,,,,,,,0,,,72,49
12570,note_on,0,0,1,,,,,,,,,0,,,67,49
12570,note_on,0,0,1,,,,,,,,,0,,,67,0
12570,note_on,0,0,3,,,,,,,,,2,,,52,36
12570,note_on,90,0,1,,,,,,,,,0,,,76,0
12570,note_on,30,0,3,,,,,,,,,2,,,55,0
12574,note_on,0,0,1,,,,,,,,,0,,,67,0
12574,note_on,4,0,3,,,,,,,,,2,,,52,0
12574,note_on,4,0,1,,,,,,,,,0,,,72,0
12600,control_change,26,0,1,,,,,,,,,0,64,0,,
12600,note_on,0,0,1,,,,,,,,,0,,,67,49
12600,note_on,0,0,1,,,,,,,,,0,,,74,49
12600,control_change,26,0,3,,,,,,,,,2,64,0,,
12600,note_on,0,0,3,,,,,,,,,2,,,53,36
12604,note_on,4,0,3,,,,,,,,,2,,,53,0
12604,note_on,0,0,1,,,,,,,,,0,,,67,0
12604,note_on,4,0,1,,,,,,,,,0,,,74,0
12630,note_on,0,0,1,,,,,,,,,0,,,76,49
12630,note_on,26,0,3,,,,,,,,,2,,,55,36
12630,note_on,26,0,1,,,,,,,,,0,,,67,49
12634,note_on,0,0,1,,,,,,,,,0,,,67,0
12634,note_on,4,0,1,,,,,,,,,0,,,76,0
12634,note_on,4,0,3,,,,,,,,,2,,,55,0
12660,control_change,26,0,3,,,,,,,,,2,64,127,,
12660,note_on,0,0,3,,,,,,,,,2,,,53,36
12660,control_change,540,0,2,,,,,,,,,1,64,127,,
12660,note_on,0,0,2,,,,,,,,,1,,,69,36
12660,note_on,0,0,1,,,,,,,,,0,,,76,49
12660,control_change,26,0,1,,,,,,,,,0,64,127,,
12690,note_on,30,0,1,,,,,,,,,0,,,76,0
12690,note_on,0,0,1,,,,,,,,,0,,,74,49
12720,note_on,0,0,2,,,,,,,,,1,,,69,36
12720,control_change,0,0,2,,,,,,,,,1,64,0,,
12720,note_on,60,0,2,,,,,,,,,1,,,69,0
12720,note_on,0,0,1,,,,,,,,,0,,,81,49
12720,note_on,0,0,3,,,,,,,,,2,,,65,36
12720,note_on,0,0,3,,,,,,,,,2,,,57,36
12720,note_on,30,0,1,,,,,,,,,0,,,74,0
12720,control_change,0,0,3,,,,,,,,,2,64,0,,
12720,note_on,60,0,3,,,,,,,,,2,,,53,0
12726,note_on,0,0,3,,,,,,,,,2,,,57,0
12726,note_on,6,0,3,,,,,,,,,2,,,65,0
12750,note_on,30,0,1,,,,,,,,,0,,,81,0
12750,control_change,0,0,1,,,,,,,,,0,64,0,,
12750,note_on,0,0,1,,,,,,,,,0,,,74,49
12780,note_on,0,0,2,,,,,,,,,1,,,69,36
12780,note_on,0,0,1,,,,,,,,,0,,,81,49
12780,note_on,54,0,3,,,,,,,,,2,,,57,36
12780,note_on,30,0,1,,,,,,,,,0,,,74,0
12780,note_on,60,0,2,,,,,,,,,1,,,69,0
12780,note_on,0,0,3,,,,,,,,,2,,,67,36
12786,note_on,0,0,3,,,,,,,,,2,,,57,0
12786,note_on,6,0,3,,,,,,,,,2,,,67,0
12810,note_on,0,0,1,,,,,,,,,0,,,73,49
12810,note_on,30,0,1,,,,,,,,,0,,,81,0
12825,note_on,0,0,1,,,,,,,,,0,,,69,49
12825,control_change,15,0,1,,,,,,,,,0,64,127,,
12840,note_on,54,0,3,,,,,,,,,2,,,62,36
12840,note_on,0,0,3,,,,,,,,,2,,,65,36
12840,note_on,60,0,2,,,,,,,,,1,,,69,0
12840,note_on,0,0,1,,,,,,,,,0,,,82,49
12840,note_on,0,0,1,,,,,,,,,0,,,73,0
12840,note_on,15,0,1,,,,,,,,,0,,,69,0
12870,note_on,0,0,1,,,,,,,,,0,,,81,49
12870,note_on,30,0,1,,,,,,,,,0,,,82,0
12900,note_on,0,0,1,,,,,,,,,0,,,77,49
12900,note_on,30,0,1,,,,,,,,,0,,,81,0
12930,note_on,0,0,1,,,,,,,,,0,,,74,49
12930,note_on,30,0,1,,,,,,,,,0,,,77,0
12960,note_on,30,0,1,,,,,,,,,0,,,74,0
12960,note_on,0,0,3,,,,,,,,,2,,,48,75
12960,note_on,0,0,3,,,,,,,,,2,,,60,75
12960,note_on,0,0,1,,,,,,,,,0,,,76,88
12960,note_on,0,0,1,,,,,,,,,0,,,69,88
12960,control_change,0,0,1,,,,,,,,,0,64,0,,
12960,note_on,0,0,3,,,,,,,,,2,,,62,0
12960,note_on,120,0,3,,,,,,,,,2,,,65,0
12966,note_on,0,0,1,,,,,,,,,0,,,69,0
12966,note_on,6,0,1,,,,,,,,,0,,,76,0
12990,note_on,0,0,3,,,,,,,,,2,,,48,0
12990,note_on,0,0,3,,,,,,,,,2,,,64,75
12990,note_on,0,0,3,,,,,,,,,2,,,52,75
12990,note_on,30,0,3,,,,,,,,,2,,,60,0
13020,note_on,30,0,3,,,,,,,,,2,,,64,0
13020,note_on,0,0,3,,,,,,,,,2,,,52,0
13020,control_change,0,0,3,,,,,,,,,2,64,127,,
13020,note_on,0,0,3,,,,,,,,,2,,,52,93
13020,note_on,0,0,3,,,,,,,,,2,,,64,101
13020,note_on,0,0,1,,,,,,,,,0,,,77,88
13020,note_on,0,0,1,,,,,,,,,0,,,68,88
13020,note_on,0,0,1,,,,,,,,,0,,,71,88
13020,note_on,54,0,1,,,,,,,,,0,,,65,88
13050,note_on,0,0,3,,,,,,,,,2,,,62,75
13050,note_on,30,0,3,,,,,,,,,2,,,64,0
13050,note_on,0,0,3,,,,,,,,,2,,,52,0
13050,note_on,0,0,3,,,,,,,,,2,,,50,75
13080,note_on,30,0,3,,,,,,,,,2,,,62,0
13080,note_on,0,0,3,,,,,,,,,2,,,59,75
13080,note_on,0,0,3,,,,,,,,,2,,,50,0
13080,note_on,0,0,3,,,,,,,,,2,,,47,75
13110,note_on,0,0,3,,,,,,,,,2,,,56,75
13110,note_on,0,0,3,,,,,,,,,2,,,44,75
13110,control_change,0,0,3,,,,,,,,,2,64,0,,
13110,note_on,0,0,3,,,,,,,,,2,,,47,0
13110,note_on,30,0,3,,,,,,,,,2,,,59,0
13140,note_on,300,0,2,,,,,,,,,1,,,71,36
13140,note_on,0,0,3,,,,,,,,,2,,,44,0
13140,note_on,0,0,1,,,,,,,,,0,,,65,88
13140,note_on,30,0,3,,,,,,,,,2,,,56,0
13140,note_on,0,0,1,,,,,,,,,0,,,68,0
13140,note_on,0,0,1,,,,,,,,,0,,,65,0
13140,note_on,120,0,1,,,,,,,,,0,,,77,0
13140,note_on,0,0,3,,,,,,,,,2,,,55,75
13140,note_on,0,0,3,,,,,,,,,2,,,43,75
13140,note_on,0,0,1,,,,,,,,,0,,,74,88
13140,note_on,0,0,1,,,,,,,,,0,,,71,0
13170,note_on,0,0,3,,,,,,,,,2,,,43,0
13170,note_on,0,0,3,,,,,,,,,2,,,47,75
13170,note_on,0,0,2,,,,,,,,,1,,,67,36
13170,note_on,0,0,3,,,,,,,,,2,,,59,75
13170,note_on,30,0,2,,,,,,,,,1,,,71,0
13170,note_on,30,0,3,,,,,,,,,2,,,55,0
13200,control_change,0,0,3,,,,,,,,,2,64,127,,
13200,note_on,0,0,1,,,,,,,,,0,,,76,88
13200,note_on,0,0,1,,,,,,,,,0,,,65,0
13200,note_on,0,0,3,,,,,,,,,2,,,50,93
13200,note_on,0,0,3,,,,,,,,,2,,,62,101
13200,note_on,30,0,2,,,,,,,,,1,,,67,0
13200,note_on,60,0,1,,,,,,,,,0,,,74,0
13200,note_on,0,0,1,,,,,,,,,0,,,64,88
13200,note_on,0,0,1,,,,,,,,,0,,,67,88
13200,note_on,0,0,3,,,,,,,,,2,,,47,0
13200,note_on,30,0,3,,,,,,,,,2,,,59,0
13230,note_on,30,0,3,,,,,,,,,2,,,62,0
13230,note_on,0,0,3,,,,,,,,,2,,,50,0
13230,note_on,0,0,3,,,,,,,,,2,,,48,75
13230,note_on,0,0,3,,,,,,,,,2,,,60,75
13260,note_on,30,0,3,,,,,,,,,2,,,60,0
13260,note_on,0,0,3,,,,,,,,,2,,,48,0
13260,note_on,0,0,3,,,,,,,,,2,,,43,75
13260,note_on,0,0,3,,,,,,,,,2,,,55,75
13290,note_on,0,0,3,,,,,,,,,2,,,52,75
13290,note_on,30,0,3,,,,,,,,,2,,,55,0
13290,note_on,0,0,3,,,,,,,,,2,,,43,0
13290,note_on,0,0,3,,,,,,,,,2,,,40,75
13320,control_change,0,0,3,,,,,,,,,2,64,0,,
13320,note_on,120,0,2,,,,,,,,,1,,,64,62
13320,note_on,0,0,3,,,,,,,,,2,,,40,0
13320,note_on,30,0,3,,,,,,,,,2,,,52,0
13320,note_on,0,0,3,,,,,,,,,2,,,48,62
13320,note_on,0,0,3,,,,,,,,,2,,,36,62
13320,note_on,120,0,1,,,,,,,,,0,,,76,0
13320,note_on,0,0,1,,,,,,,,,0,,,67,0
13320,note_on,0,0,1,,,,,,,,,0,,,64,0
13320,note_on,0,0,1,,,,,,,,,0,,,72,75
13350,note_on,0,0,3,,,,,,,,,2,,,36,0
13350,note_on,30,0,3,,,,,,,,,2,,,48,0
13350,note_on,0,0,3,,,,,,,,,2,,,47,62
13350,note_on,0,0,3,,,,,,,,,2,,,35,62
13365,note_on,45,0,1,,,,,,,,,0,,,72,0
13365,note_on,0,0,1,,,,,,,,,0,,,74,75
13380,control_change,0,0,3,,,,,,,,,2,64,127,,
13380,note_on,30,0,3,,,,,,,,,2,,,47,0
13380,note_on,0,0,3,,,,,,,,,2,,,35,0
13380,note_on,0,0,3,,,,,,,,,2,,,45,62
13380,note_on,60,0,2,,,,,,,,,1,,,64,0
13380,note_on,0,0,1,,,,,,,,,0,,,76,75
13380,control_change,0,0,1,,,,,,,,,0,64,127,,
13380,note_on,15,0,1,,,,,,,,,0,,,74,0
13380,note_on,0,0,3,,,,,,,,,2,,,33,62
13380,control_change,0,0,2,,,,,,,,,1,64,127,,
13380,note_on,0,0,2,,,,,,,,,1,,,65,62
13410,note_on,30,0,3,,,,,,,,,2,,,45,0
13410,note_on,0,0,3,,,,,,,,,2,,,33,0
13410,note_on,0,0,3,,,,,,,,,2,,,32,62
13410,note_on,0,0,3,,,,,,,,,2,,,44,62
13425,note_on,0,0,1,,,,,,,,,0,,,74,75
13425,note_on,45,0,1,,,,,,,,,0,,,76,0
13440,note_on,0,0,1,,,,,,,,,0,,,72,49
13440,control_change,0,0,1,,,,,,,,,0,64,0,,
13440,note_on,15,0,1,,,,,,,,,0,,,74,0
13440,note_on,0,0,2,,,,,,,,,1,,,64,36
13440,note_on,0,0,3,,,,,,,,,2,,,32,0
13440,note_on,0,0,3,,,,,,,,,2,,,31,36
13440,note_on,0,0,3,,,,,,,,,2,,,43,36
13440,note_on,60,0,2,,,,,,,,,1,,,65,0
13440,control_change,0,0,2,,,,,,,,,1,64,0,,
13440,note_on,30,0,3,,,,,,,,,2,,,44,0
13440,control_change,0,0,3,,,,,,,,,2,64,0,,
13470,note_on,30,0,1,,,,,,,,,0,,,72,0
13470,note_on,0,0,1,,,,,,,,,0,,,67,49
13500,note_on,0,0,3,,,,,,,,,2,,,31,0
13500,note_on,60,0,3,,,,,,,,,2,,,43,0
13500,note_on,0,0,3,,,,,,,,,2,,,50,36
13500,note_on,0,0,1,,,,,,,,,0,,,69,49
13500,note_on,60,0,2,,,,,,,,,1,,,64,0
13500,note_on,0,0,2,,,,,,,,,1,,,65,36
13500,note_on,1920,0,4,,,,,,,,,3,,,43,36
13500,note_on,30,0,1,,,,,,,,,0,,,67,0
13530,note_on,0,0,1,,,,,,,,,0,,,71,49
13530,note_on,0,0,3,,,,,,,,,2,,,53,36
13530,note_on,0,0,2,,,,,,,,,1,,,62,36
13530,note_on,30,0,2,,,,,,,,,1,,,65,0
13530,note_on,30,0,1,,,,,,,,,0,,,69,0
13530,note_on,30,0,3,,,,,,,,,2,,,50,0
13560,control_change,0,0,3,,,,,,,,,2,64,127,,
13560,note_on,30,0,3,,,,,,,,,2,,,53,0
13560,note_on,0,0,3,,,,,,,,,2,,,52,36
13560,control_change,0,0,2,,,,,,,,,1,64,127,,
13560,note_on,0,0,2,,,,,,,,,1,,,60,36
13560,note_on,30,0,2,,,,,,,,,1,,,62,0
13560,note_on,0,0,4,,,,,,,,,3,,,48,36
13560,note_on,60,0,4,,,,,,,,,3,,,43,0
13560,note_on,0,0,1,,,,,,,,,0,,,72,49
13560,note_on,30,0,1,,,,,,,,,0,,,71,0
13590,note_on,30,0,2,,,,,,,,,1,,,60,0
13590,note_on,0,0,2,,,,,,,,,1,,,62,36
13590,note_on,30,0,3,,,,,,,,,2,,,52,0
13590,note_on,0,0,3,,,,,,,,,2,,,53,36
13620,note_on,30,0,3,,,,,,,,,2,,,53,0
13620,note_on,0,0,2,,,,,,,,,1,,,64,36
13620,note_on,30,0,2,,,,,,,,,1,,,62,0
13620,note_on,0,0,3,,,,,,,,,2,,,55,36
13650,note_on,0,0,2,,,,,,,,,1,,,65,36
13650,control_change,0,0,2,,,,,,,,,1,64,0,,
13650,note_on,30,0,3,,,,,,,,,2,,,55,0
13650,note_on,0,0,3,,,,,,,,,2,,,53,36
13650,note_on,30,0,2,,,,,,,,,1,,,64,0
13680,note_on,30,0,2,,,,,,,,,1,,,65,0
13680,note_on,0,0,3,,,,,,,,,2,,,52,36
13680,control_change,0,0,3,,,,,,,,,2,64,0,,
13680,note_on,30,0,3,,,,,,,,,2,,,53,0
13680,note_on,120,0,4,,,,,,,,,3,,,48,0
13680,note_on,120,0,1,,,,,,,,,0,,,72,0
13680,note_on,0,0,1,,,,,,,,,0,,,67,49
13710,note_on,30,0,3,,,,,,,,,2,,,52,0
13710,note_on,0,0,3,,,,,,,,,2,,,55,36
13740,note_on,60,0,2,,,,,,,,,1,,,67,36
13740,note_on,0,0,1,,,,,,,,,0,,,69,49
13740,note_on,60,0,1,,,,,,,,,0,,,67,0
13740,note_on,0,0,3,,,,,,,,,2,,,49,36
13740,note_on,30,0,3,,,,,,,,,2,,,55,0
13770,note_on,0,0,3,,,,,,,,,2,,,50,36
13770,note_on,30,0,3,,,,,,,,,2,,,49,0
13800,note_on,0,0,2,,,,,,,,,1,,,65,36
13800,note_on,30,0,3,,,,,,,,,2,,,50,0
13800,note_on,0,0,3,,,,,,,,,2,,,53,36
13800,note_on,60,0,2,,,,,,,,,1,,,67,0
13830,note_on,30,0,3,,,,,,,,,2,,,53,0
13830,note_on,0,0,3,,,,,,,,,2,,,57,36
13830,note_on,0,0,2,,,,,,,,,1,,,64,36
13830,note_on,30,0,2,,,,,,,,,1,,,65,0
13860,note_on,0,0,3,,,,,,,,,2,,,62,36
13860,note_on,30,0,2,,,,,,,,,1,,,64,0
13860,note_on,120,0,1,,,,,,,,,0,,,69,0
13860,note_on,0,0,2,,,,,,,,,1,,,65,36
13860,note_on,30,0,3,,,,,,,,,2,,,57,0
13860,note_on,0,0,1,,,,,,,,,0,,,69,49
13890,note_on,30,0,1,,,,,,,,,0,,,69,0
13890,note_on,0,0,3,,,,,,,,,2,,,60,36
13890,note_on,30,0,3,,,,,,,,,2,,,62,0
13890,note_on,0,0,1,,,,,,,,,0,,,74,49
13920,note_on,0,0,1,,,,,,,,,0,,,67,49
13920,note_on,30,0,1,,,,,,,,,0,,,74,0
13920,note_on,60,0,2,,,,,,,,,1,,,65,0
13920,note_on,0,0,2,,,,,,,,,1,,,65,36
13920,note_on,30,0,3,,,,,,,,,2,,,60,0
13920,note_on,0,0,3,,,,,,,,,2,,,59,36
13950,note_on,0,0,3,,,,,,,,,2,,,60,36
13950,note_on,30,0,3,,,,,,,,,2,,,59,0
13965,note_on,0,0,3,,,,,,,,,2,,,62,36
13965,note_on,15,0,3,,,,,,,,,2,,,60,0
13980,note_on,60,0,1,,,,,,,,,0,,,67,0
13980,note_on,15,0,3,,,,,,,,,2,,,62,0
13980,note_on,0,0,3,,,,,,,,,2,,,60,36
13980,note_on,0,0,1,,,,,,,,,0,,,72,49
13980,note_on,0,0,2,,,,,,,,,1,,,64,36
13980,note_on,60,0,2,,,,,,,,,1,,,65,0
14010,note_on,30,0,3,,,,,,,,,2,,,60,0
14010,note_on,0,0,3,,,,,,,,,2,,,55,36
14040,note_on,0,0,2,,,,,,,,,1,,,67,36
14040,note_on,30,0,3,,,,,,,,,2,,,55,0
14040,note_on,0,0,1,,,,,,,,,0,,,74,49
14040,note_on,60,0,1,,,,,,,,,0,,,72,0
14040,note_on,0,0,3,,,,,,,,,2,,,53,36
14040,note_on,60,0,2,,,,,,,,,1,,,64,0
14070,note_on,30,0,3,,,,,,,,,2,,,53,0
14070,note_on,0,0,3,,,,,,,,,2,,,50,36
14100,note_on,30,0,3,,,,,,,,,2,,,50,0
14100,note_on,0,0,2,,,,,,,,,1,,,72,36
14100,note_on,60,0,2,,,,,,,,,1,,,67,0
14100,note_on,0,0,1,,,,,,,,,0,,,76,49
14100,note_on,0,0,3,,,,,,,,,2,,,48,36
14100,note_on,60,0,1,,,,,,,,,0,,,74,0
14130,note_on,0,0,1,,,,,,,,,0,,,74,49
14130,note_on,30,0,2,,,,,,,,,1,,,72,0
14130,note_on,0,0,2,,,,,,,,,1,,,67,36
14130,note_on,30,0,3,,,,,,,,,2,,,48,0
14130,note_on,0,0,3,,,,,,,,,2,,,47,36
14130,note_on,30,0,1,,,,,,,,,0,,,76,0
14160,note_on,0,0,3,,,,,,,,,2,,,45,36
14160,note_on,30,0,3,,,,,,,,,2,,,47,0
14160,note_on,0,0,1,,,,,,,,,0,,,72,49
14160,note_on,30,0,2,,,,,,,,,1,,,67,0
14160,note_on,0,0,2,,,,,,,,,1,,,64,36
14160,note_on,30,0,1,,,,,,,,,0,,,74,0
14190,note_on,0,0,2,,,,,,,,,1,,,71,36
14190,note_on,30,0,2,,,,,,,,,1,,,64,0
14190,note_on,30,0,1,,,,,,,,,0,,,72,0
14190,note_on,0,0,1,,,,,,,,,0,,,74,49
14190,note_on,30,0,3,,,,,,,,,2,,,45,0
14190,note_on,0,0,3,,,,,,,,,2,,,43,36
14220,note_on,30,0,1,,,,,,,,,0,,,74,0
14220,note_on,30,0,3,,,,,,,,,2,,,43,0
14220,note_on,0,0,1,,,,,,,,,0,,,75,49
14220,note_on,30,0,2,,,,,,,,,1,,,71,0
14220,note_on,0,0,2,,,,,,,,,1,,,72,36
14220,note_on,0,0,3,,,,,,,,,2,,,42,36
14250,note_on,30,0,1,,,,,,,,,0,,,75,0
14250,note_on,0,0,1,,,,,,,,,0,,,81,49
14280,note_on,0,0,3,,,,,,,,,2,,,43,36
14280,control_change,0,0,3,,,,,,,,,2,64,127,,
14280,note_on,60,0,3,,,,,,,,,2,,,42,0
14280,note_on,60,0,2,,,,,,,,,1,,,72,0
14280,note_on,30,0,1,,,,,,,,,0,,,81,0
14280,note_on,0,0,1,,,,,,,,,0,,,72,49
14280,note_on,0,0,1,,,,,,,,,0,,,76,49
14310,note_on,0,0,3,,,,,,,,,2,,,54,36
14310,note_on,30,0,3,,,,,,,,,2,,,43,0
14340,note_on,60,0,1,,,,,,,,,0,,,76,0
14340,note_on,0,0,1,,,,,,,,,0,,,72,0
14340,note_on,0,0,1,,,,,,,,,0,,,71,49
14340,note_on,0,0,1,,,,,,,,,0,,,74,49
14340,note_on,0,0,3,,,,,,,,,2,,,55,36
14340,note_on,30,0,3,,,,,,,,,2,,,54,0
14370,note_on,0,0,1,,,,,,,,,0,,,71,0
14370,note_on,30,0,1,,,,,,,,,0,,,74,0
14370,note_on,30,0,3,,,,,,,,,2,,,55,0
14370,control_change,0,0,3,,,,,,,,,2,64,0,,
14370,note_on,0,0,3,,,,,,,,,2,,,57,36
14385,note_on,0,0,3,,,,,,,,,2,,,59,36
14385,note_on,15,0,3,,,,,,,,,2,,,57,0
14400,note_on,30,0,1,,,,,,,,,0,,,67,49
14400,note_on,15,0,3,,,,,,,,,2,,,59,0
14400,note_on,0,0,3,,,,,,,,,2,,,60,36
14400,note_on,0,0,1,,,,,,,,,0,,,76,49
14406,note_on,0,0,1,,,,,,,,,0,,,67,0
14406,note_on,6,0,1,,,,,,,,,0,,,76,0
14430,note_on,30,0,3,,,,,,,,,2,,,60,0
14430,note_on,0,0,3,,,,,,,,,2,,,61,36
14460,note_on,0,0,1,,,,,,,,,0,,,77,75
14460,note_on,54,0,1,,,,,,,,,0,,,67,67
14460,note_on,30,0,3,,,,,,,,,2,,,61,0
14460,control_change,0,0,3,,,,,,,,,2,64,127,,
14460,note_on,0,0,3,,,,,,,,,2,,,61,62
14490,note_on,0,0,3,,,,,,,,,2,,,62,36
14490,note_on,30,0,3,,,,,,,,,2,,,61,0
14520,note_on,30,0,3,,,,,,,,,2,,,62,0
14520,note_on,0,0,3,,,,,,,,,2,,,59,36
14550,note_on,0,0,3,,,,,,,,,2,,,55,36
14550,note_on,30,0,3,,,,,,,,,2,,,59,0
14565,note_on,15,0,3,,,,,,,,,2,,,59,36
14580,note_on,15,0,3,,,,,,,,,2,,,59,0
14580,note_on,0,0,3,,,,,,,,,2,,,57,36
14580,control_change,0,0,3,,,,,,,,,2,64,0,,
14580,note_on,0,0,3,,,,,,,,,2,,,55,0
14580,note_on,0,0,1,,,,,,,,,0,,,74,49
14580,note_on,0,0,1,,,,,,,,,0,,,67,49
14580,note_on,0,0,1,,,,,,,,,0,,,67,0
14580,note_on,120,0,1,,,,,,,,,0,,,77,0
14586,note_on,0,0,1,,,,,,,,,0,,,67,0
14586,note_on,6,0,1,,,,,,,,,0,,,74,0
14595,note_on,15,0,3,,,,,,,,,2,,,57,0
14595,note_on,0,0,3,,,,,,,,,2,,,55,36
14610,note_on,15,0,3,,,,,,,,,2,,,55,0
14610,note_on,0,0,3,,,,,,,,,2,,,57,36
14625,note_on,15,0,3,,,,,,,,,2,,,57,0
14625,note_on,0,0,3,,,,,,,,,2,,,59,36
14640,note_on,0,0,3,,,,,,,,,2,,,62,36
14640,control_change,54,0,1,,,,,,,,,0,64,127,,
14640,note_on,0,0,1,,,,,,,,,0,,,67,49
14640,control_change,0,0,3,,,,,,,,,2,64,127,,
14640,note_on,15,0,3,,,,,,,,,2,,,59,0
14640,note_on,0,0,1,,,,,,,,,0,,,76,49
14670,note_on,30,0,3,,,,,,,,,2,,,62,0
14670,note_on,0,0,3,,,,,,,,,2,,,60,36
14700,note_on,30,0,3,,,,,,,,,2,,,60,0
14700,note_on,0,0,3,,,,,,,,,2,,,55,36
14730,note_on,0,0,1,,,,,,,,,0,,,72,49
14730,note_on,0,0,1,,,,,,,,,0,,,67,49
14730,note_on,0,0,1,,,,,,,,,0,,,67,0
14730,note_on,90,0,1,,,,,,,,,0,,,76,0
14730,note_on,30,0,3,,,,,,,,,2,,,55,0
14730,note_on,0,0,3,,,,,,,,,2,,,52,36
14734,note_on,4,0,1,,,,,,,,,0,,,72,0
14734,note_on,4,0,3,,,,,,,,,2,,,52,0
14734,note_on,0,0,1,,,,,,,,,0,,,67,0
14760,note_on,0,0,1,,,,,,,,,0,,,67,49
14760,control_change,26,0,3,,,,,,,,,2,64,0,,
14760,note_on,0,0,3,,,,,,,,,2,,,53,36
14760,control_change,26,0,1,,,,,,,,,0,64,0,,
14760,note_on,0,0,1,,,,,,,,,0,,,74,49
14764,note_on,4,0,3,,,,,,,,,2,,,53,0
14764,note_on,4,0,1,,,,,,,,,0,,,74,0
14764,note_on,0,0,1,,,,,,,,,0,,,67,0
14790,note_on,26,0,1,,,,,,,,,0,,,67,49
14790,note_on,0,0,1,,,,,,,,,0,,,76,49
14790,note_on,26,0,3,,,,,,,,,2,,,55,36
14794,note_on,4,0,1,,,,,,,,,0,,,76,0
14794,note_on,0,0,1,,,,,,,,,0,,,67,0
14794,note_on,4,0,3,,,,,,,,,2,,,55,0
14820,control_change,540,0,2,,,,,,,,,1,64,127,,
14820,control_change,26,0,1,,,,,,,,,0,64,127,,
14820,note_on,0,0,1,,,,,,,,,0,,,76,49
14820,note_on,0,0,2,,,,,,,,,1,,,69,36
14820,control_change,26,0,3,,,,,,,,,2,64,127,,
14820,note_on,0,0,3,,,,,,,,,2,,,53,36
14850,note_on,0,0,1,,,,,,,,,0,,,74,49
14850,note_on,30,0,1,,,,,,,,,0,,,76,0
14880,note_on,0,0,3,,,,,,,,,2,,,65,36
14880,note_on,30,0,1,,,,,,,,,0,,,74,0
14880,control_change,0,0,3,,,,,,,,,2,64,0,,
14880,note_on,0,0,3,,,,,,,,,2,,,57,36
14880,note_on,0,0,2,,,,,,,,,1,,,69,36
14880,control_change,0,0,2,,,,,,,,,1,64,0,,
14880,note_on,60,0,2,,,,,,,,,1,,,69,0
14880,note_on,60,0,3,,,,,,,,,2,,,53,0
14880,note_on,0,0,1,,,,,,,,,0,,,81,49
14886,note_on,6,0,3,,,,,,,,,2,,,65,0
14886,note_on,0,0,3,,,,,,,,,2,,,57,0
14910,note_on,30,0,1,,,,,,,,,0,,,81,0
14910,note_on,0,0,1,,,,,,,,,0,,,74,49
14910,control_change,0,0,1,,,,,,,,,0,64,0,,
14940,note_on,0,0,2,,,,,,,,,1,,,69,36
14940,note_on,30,0,1,,,,,,,,,0,,,74,0
14940,note_on,54,0,3,,,,,,,,,2,,,57,36
14940,note_on,0,0,3,,,,,,,,,2,,,67,36
14940,note_on,0,0,1,,,,,,,,,0,,,81,49
14940,note_on,60,0,2,,,,,,,,,1,,,69,0
14946,note_on,0,0,3,,,,,,,,,2,,,57,0
14946,note_on,6,0,3,,,,,,,,,2,,,67,0
14970,note_on,30,0,1,,,,,,,,,0,,,81,0
14970,note_on,0,0,1,,,,,,,,,0,,,73,49
14985,control_change,15,0,1,,,,,,,,,0,64,127,,
14985,note_on,0,0,1,,,,,,,,,0,,,69,49
15000,note_on,0,0,1,,,,,,,,,0,,,82,49
15000,note_on,0,0,3,,,,,,,,,2,,,65,36
15000,note_on,54,0,3,,,,,,,,,2,,,62,36
15000,note_on,15,0,1,,,,,,,,,0,,,69,0
15000,note_on,0,0,1,,,,,,,,,0,,,73,0
15000,note_on,60,0,2,,,,,,,,,1,,,69,0
15030,note_on,0,0,1,,,,,,,,,0,,,81,49
15030,note_on,30,0,1,,,,,,,,,0,,,82,0
15060,note_on,30,0,1,,,,,,,,,0,,,81,0
15060,note_on,0,0,1,,,,,,,,,0,,,77,49
15090,note_on,0,0,1,,,,,,,,,0,,,74,49
15090,note_on,30,0,1,,,,,,,,,0,,,77,0
15120,note_on,0,0,3,,,,,,,,,2,,,60,75
15120,note_on,0,0,1,,,,,,,,,0,,,76,88
15120,note_on,0,0,1,,,,,,,,,0,,,69,88
15120,control_change,0,0,1,,,,,,,,,0,64,0,,
15120,note_on,30,0,1,,,,,,,,,0,,,74,0
15120,note_on,0,0,3,,,,,,,,,2,,,48,75
15120,note_on,120,0,3,,,,,,,,,2,,,65,0
15120,note_on,0,0,3,,,,,,,,,2,,,62,0
15126,note_on,0,0,1,,,,,,,,,0,,,69,0
15126,note_on,6,0,1,,,,,,,,,0,,,76,0
15150,note_on,0,0,3,,,,,,,,,2,,,52,75
15150,note_on,0,0,3,,,,,,,,,2,,,64,75
15150,note_on,30,0,3,,,,,,,,,2,,,60,0
15150,note_on,0,0,3,,,,,,,,,2,,,48,0
15180,note_on,54,0,1,,,,,,,,,0,,,65,88
15180,note_on,0,0,3,,,,,,,,,2,,,64,101
15180,note_on,0,0,3,,,,,,,,,2,,,52,93
15180,control_change,0,0,3,,,,,,,,,2,64,127,,
15180,note_on,0,0,3,,,,,,,,,2,,,52,0
15180,note_on,30,0,3,,,,,,,,,2,,,64,0
15180,note_on,0,0,1,,,,,,,,,0,,,68,88
15180,note_on,0,0,1,,,,,,,,,0,,,71,88
15180,note_on,0,0,1,,,,,,,,,0,,,77,88
15210,note_on,0,0,3,,,,,,,,,2,,,52,0
15210,note_on,0,0,3,,,,,,,,,2,,,50,75
15210,note_on,0,0,3,,,,,,,,,2,,,62,75
15210,note_on,30,0,3,,,,,,,,,2,,,64,0
15240,note_on,0,0,3,,,,,,,,,2,,,59,75
15240,note_on,0,0,3,,,,,,,,,2,,,47,75
15240,note_on,30,0,3,,,,,,,,,2,,,62,0
15240,note_on,0,0,3,,,,,,,,,2,,,50,0
15270,note_on,0,0,3,,,,,,,,,2,,,47,0
15270,control_change,0,0,3,,,,,,,,,2,64,0,,
15270,note_on,0,0,3,,,,,,,,,2,,,44,75
15270,note_on,0,0,3,,,,,,,,,2,,,56,75
15270,note_on,30,0,3,,,,,,,,,2,,,59,0
15300,note_on,30,0,3,,,,,,,,,2,,,56,0
15300,note_on,0,0,3,,,,,,,,,2,,,44,0
15300,note_on,0,0,3,,,,,,,,,2,,,43,75
15300,note_on,300,0,2,,,,,,,,,1,,,71,36
15300,note_on,0,0,1,,,,,,,,,0,,,74,88
15300,note_on,0,0,1,,,,,,,,,0,,,65,88
15300,note_on,0,0,3,,,,,,,,,2,,,55,75
15300,note_on,0,0,1,,,,,,,,,0,,,71,0
15300,note_on,0,0,1,,,,,,,,,0,,,68,0
15300,note_on,0,0,1,,,,,,,,,0,,,65,0
15300,note_on,120,0,1,,,,,,,,,0,,,77,0
15330,note_on,0,0,3,,,,,,,,,2,,,59,75
15330,note_on,0,0,3,,,,,,,,,2,,,47,75
15330,note_on,0,0,3,,,,,,,,,2,,,43,0
15330,note_on,30,0,3,,,,,,,,,2,,,55,0
15330,note_on,0,0,2,,,,,,,,,1,,,67,36
15330,note_on,30,0,2,,,,,,,,,1,,,71,0
15360,control_change,0,0,3,,,,,,,,,2,64,127,,
15360,note_on,0,0,3,,,,,,,,,2,,,47,0
15360,note_on,30,0,2,,,,,,,,,1,,,67,0
15360,note_on,0,0,1,,,,,,,,,0,,,65,0
15360,note_on,60,0,1,,,,,,,,,0,,,74,0
15360,note_on,0,0,1,,,,,,,,,0,,,67,88
15360,note_on,0,0,1,,,,,,,,,0,,,76,88
15360,note_on,0,0,3,,,,,,,,,2,,,62,101
15360,note_on,30,0,3,,,,,,,,,2,,,59,0
15360,note_on,0,0,1,,,,,,,,,0,,,64,88
15360,note_on,0,0,3,,,,,,,,,2,,,50,93
15390,note_on,0,0,3,,,,,,,,,2,,,48,75
15390,note_on,0,0,3,,,,,,,,,2,,,50,0
15390,note_on,30,0,3,,,,,,,,,2,,,62,0
15390,note_on,0,0,3,,,,,,,,,2,,,60,75
15420,note_on,30,0,3,,,,,,,,,2,,,60,0
15420,note_on,0,0,3,,,,,,,,,2,,,48,0
15420,note_on,0,0,3,,,,,,,,,2,,,43,75
15420,note_on,0,0,3,,,,,,,,,2,,,55,75
15450,note_on,0,0,3,,,,,,,,,2,,,43,0
15450,note_on,0,0,3,,,,,,,,,2,,,40,75
15450,note_on,0,0,3,,,,,,,,,2,,,52,75
15450,note_on,30,0,3,,,,,,,,,2,,,55,0
15480,note_on,120,0,1,,,,,,,,,0,,,76,0
15480,note_on,0,0,1,,,,,,,,,0,,,67,0
15480,note_on,0,0,1,,,,,,,,,0,,,64,0
15480,note_on,0,0,1,,,,,,,,,0,,,72,75
15480,note_on,30,0,3,,,,,,,,,2,,,52,0
15480,note_on,0,0,3,,,,,,,,,2,,,48,62
15480,note_on,0,0,3,,,,,,,,,2,,,40,0
15480,note_on,120,0,2,,,,,,,,,1,,,64,62
15480,note_on,0,0,3,,,,,,,,,2,,,36,62
15480,control_change,0,0,3,,,,,,,,,2,64,0,,
15510,note_on,0,0,3,,,,,,,,,2,,,36,0
15510,note_on,0,0,3,,,,,,,,,2,,,35,62
15510,note_on,30,0,3,,,,,,,,,2,,,48,0
15510,note_on,0,0,3,,,,,,,,,2,,,47,62
15525,note_on,0,0,1,,,,,,,,,0,,,74,75
15525,note_on,45,0,1,,,,,,,,,0,,,72,0
15540,note_on,60,0,2,,,,,,,,,1,,,64,0
15540,control_change,0,0,1,,,,,,,,,0,64,127,,
15540,note_on,0,0,2,,,,,,,,,1,,,65,62
15540,control_change,0,0,2,,,,,,,,,1,64,127,,
15540,note_on,15,0,1,,,,,,,,,0,,,74,0
15540,note_on,0,0,1,,,,,,,,,0,,,76,75
15540,note_on,0,0,3,,,,,,,,,2,,,35,0
15540,note_on,30,0,3,,,,,,,,,2,,,47,0
15540,note_on,0,0,3,,,,,,,,,2,,,33,62
15540,note_on,0,0,3,,,,,,,,,2,,,45,62
15540,control_change,0,0,3,,,,,,,,,2,64,127,,
15570,note_on,30,0,3,,,,,,,,,2,,,45,0
15570,note_on,0,0,3,,,,,,,,,2,,,44,62
15570,note_on,0,0,3,,,,,,,,,2,,,32,62
15570,note_on,0,0,3,,,,,,,,,2,,,33,0
15585,note_on,45,0,1,,,,,,,,,0,,,76,0
15585,note_on,0,0,1,,,,,,,,,0,,,74,75
15600,note_on,15,0,1,,,,,,,,,0,,,74,0
15600,control_change,0,0,1,,,,,,,,,0,64,0,,
15600,note_on,0,0,1,,,,,,,,,0,,,72,49
15600,note_on,0,0,2,,,,,,,,,1,,,64,36
15600,note_on,0,0,3,,,,,,,,,2,,,43,36
15600,note_on,60,0,2,,,,,,,,,1,,,65,0
15600,note_on,30,0,3,,,,,,,,,2,,,44,0
15600,note_on,0,0,3,,,,,,,,,2,,,32,0
15600,control_change,0,0,3,,,,,,,,,2,64,0,,
15600,note_on,0,0,3,,,,,,,,,2,,,31,36
15600,control_change,0,0,2,,,,,,,,,1,64,0,,
15630,note_on,0,0,1,,,,,,,,,0,,,67,49
15630,note_on,30,0,1,,,,,,,,,0,,,72,0
15660,note_on,0,0,3,,,,,,,,,2,,,31,0
15660,note_on,1980,0,4,,,,,,,,,3,,,43,36
15660,note_on,30,0,1,,,,,,,,,0,,,67,0
15660,note_on,0,0,1,,,,,,,,,0,,,69,49
15660,note_on,0,0,3,,,,,,,,,2,,,50,36
15660,note_on,60,0,3,,,,,,,,,2,,,43,0
15660,note_on,0,0,2,,,,,,,,,1,,,65,36
15660,note_on,60,0,2,,,,,,,,,1,,,64,0
15690,note_on,0,0,1,,,,,,,,,0,,,71,49
15690,note_on,0,0,3,,,,,,,,,2,,,53,36
15690,note_on,30,0,3,,,,,,,,,2,,,50,0
15690,note_on,30,0,1,,,,,,,,,0,,,69,0
15690,note_on,0,0,2,,,,,,,,,1,,,62,36
15690,note_on,30,0,2,,,,,,,,,1,,,65,0
15720,note_on,60,0,4,,,,,,,,,3,,,43,0
15720,note_on,30,0,2,,,,,,,,,1,,,62,0
15720,note_on,30,0,3,,,,,,,,,2,,,53,0
15720,note_on,0,0,3,,,,,,,,,2,,,52,36
15720,note_on,0,0,2,,,,,,,,,1,,,60,36
15720,time_signature,5580,1,0,2,8,12,8,,,,,,,,,
15720,note_on,30,0,1,,,,,,,,,0,,,71,0
15720,note_on,0,0,1,,,,,,,,,0,,,72,49
15720,note_on,0,0,3,,,,,,,,,2,,,48,36
15840,note_on,120,0,3,,,,,,,,,2,,,52,0
15840,note_on,0,0,3,,,,,,,,,2,,,48,0
15840,note_on,0,0,3,,,,,,,,,2,,,48,36
15840,note_on,120,0,1,,,,,,,,,0,,,72,0
15840,note_on,0,0,1,,,,,,,,,0,,,67,49
15840,time_signature,120,1,0,1,8,12,8,,,,,,,,,
15840,set_tempo,0,1,0,,,,,,1250000,,,,,,,
15840,note_on,120,0,2,,,,,,,,,1,,,60,0
15855,note_on,0,0,1,,,,,,,,,0,,,72,49
15855,note_on,15,0,1,,,,,,,,,0,,,67,0
15870,note_on,15,0,1,,,,,,,,,0,,,72,0
15870,note_on,0,0,1,,,,,,,,,0,,,74,49
15870,note_on,30,0,3,,,,,,,,,2,,,48,0
15870,note_on,0,0,3,,,,,,,,,2,,,64,36
15870,note_on,0,0,3,,,,,,,,,2,,,55,36
15885,note_on,0,0,1,,,,,,,,,0,,,76,49
15885,note_on,15,0,1,,,,,,,,,0,,,74,0
15900,note_on,0,0,1,,,,,,,,,0,,,76,49
15900,control_change,0,0,1,,,,,,,,,0,64,127,,
15900,note_on,15,0,1,,,,,,,,,0,,,76,0
15900,time_signature,60,1,0,3,8,12,8,,,,,,,,,
15900,set_tempo,0,1,0,,,,,,1250000,,,,,,,
15900,note_on,0,0,3,,,,,,,,,2,,,47,36
15900,control_change,0,0,3,,,,,,,,,2,64,127,,
15900,note_on,0,0,3,,,,,,,,,2,,,55,0
15900,note_on,30,0,3,,,,,,,,,2,,,64,0
15915,note_on,15,0,1,,,,,,,,,0,,,76,0
15915,note_on,0,0,1,,,,,,,,,0,,,74,49
15930,note_on,15,0,1,,,,,,,,,0,,,74,0
15930,note_on,0,0,3,,,,,,,,,2,,,55,36
15930,note_on,0,0,1,,,,,,,,,0,,,74,49
15930,note_on,30,0,3,,,,,,,,,2,,,47,0
15930,note_on,0,0,3,,,,,,,,,2,,,65,36
15945,note_on,0,0,1,,,,,,,,,0,,,72,49
15945,note_on,15,0,1,,,,,,,,,0,,,74,0
15960,note_on,0,0,1,,,,,,,,,0,,,72,49
15960,note_on,15,0,1,,,,,,,,,0,,,72,0
15960,note_on,0,0,3,,,,,,,,,2,,,55,36
15960,note_on,0,0,3,,,,,,,,,2,,,55,0
15960,note_on,30,0,3,,,,,,,,,2,,,65,0
15960,note_on,0,0,3,,,,,,,,,2,,,65,36
15975,note_on,15,0,1,,,,,,,,,0,,,72,0
15975,note_on,0,0,1,,,,,,,,,0,,,71,49
15990,control_change,0,0,1,,,,,,,,,0,64,0,,
15990,note_on,15,0,1,,,,,,,,,0,,,71,0
15990,control_change,0,0,3,,,,,,,,,2,64,0,,
15990,note_on,0,0,1,,,,,,,,,0,,,71,49
15990,note_on,30,0,3,,,,,,,,,2,,,65,0
15990,note_on,0,0,3,,,,,,,,,2,,,55,36
15990,note_on,0,0,3,,,,,,,,,2,,,55,0
15990,note_on,0,0,3,,,,,,,,,2,,,65,36
16005,note_on,15,0,1,,,,,,,,,0,,,71,0
16005,note_on,0,0,1,,,,,,,,,0,,,69,49
16012,note_on,7,0,1,,,,,,,,,0,,,69,49
16013,note_on,1,0,1,,,,,,,,,0,,,69,0
16016,note_on,3,0,1,,,,,,,,,0,,,69,0
16016,note_on,0,0,1,,,,,,,,,0,,,71,49
16020,note_on,0,0,3,,,,,,,,,2,,,50,36
16020,note_on,30,0,3,,,,,,,,,2,,,65,0
16020,note_on,0,0,3,,,,,,,,,2,,,55,0
16020,note_on,4,0,1,,,,,,,,,0,,,71,0
16020,note_on,0,0,1,,,,,,,,,0,,,69,49
16035,note_on,15,0,1,,,,,,,,,0,,,69,0
16035,note_on,0,0,1,,,,,,,,,0,,,67,49
16050,note_on,15,0,1,,,,,,,,,0,,,67,0
16050,note_on,0,0,1,,,,,,,,,0,,,69,49
16050,note_on,30,0,3,,,,,,,,,2,,,50,0
16050,note_on,0,0,3,,,,,,,,,2,,,55,36
16050,note_on,0,0,3,,,,,,,,,2,,,65,36
16065,note_on,0,0,1,,,,,,,,,0,,,71,49
16065,note_on,15,0,1,,,,,,,,,0,,,69,0
16080,note_on,15,0,1,,,,,,,,,0,,,71,0
16080,control_change,0,0,1,,,,,,,,,0,64,127,,
16080,note_on,0,0,3,,,,,,,,,2,,,48,36
16080,control_change,0,0,3,,,,,,,,,2,64,127,,
16080,note_on,0,0,3,,,,,,,,,2,,,55,0
16080,note_on,30,0,3,,,,,,,,,2,,,65,0
16080,set_tempo,180,1,0,,,,,,1250000,,,,,,,
16080,note_on,0,0,1,,,,,,,,,0,,,74,49
16095,note_on,0,0,1,,,,,,,,,0,,,72,49
16095,note_on,15,0,1,,,,,,,,,0,,,74,0
16110,note_on,0,0,1,,,,,,,,,0,,,72,49
16110,note_on,30,0,3,,,,,,,,,2,,,48,0
16110,note_on,0,0,3,,,,,,,,,2,,,55,36
16110,note_on,0,0,3,,,,,,,,,2,,,64,36
16110,note_on,15,0,1,,,,,,,,,0,,,72,0
16125,note_on,15,0,1,,,,,,,,,0,,,72,0
16125,note_on,0,0,1,,,,,,,,,0,,,67,49
16140,note_on,0,0,3,,,,,,,,,2,,,55,36
16140,note_on,15,0,1,,,,,,,,,0,,,67,0
16140,note_on,0,0,3,,,,,,,,,2,,,55,0
16140,note_on,30,0,3,,,,,,,,,2,,,64,0
16140,note_on,0,0,3,,,,,,,,,2,,,64,36
16140,note_on,0,0,1,,,,,,,,,0,,,67,49
16155,note_on,15,0,1,,,,,,,,,0,,,67,0
16155,note_on,0,0,1,,,,,,,,,0,,,64,49
16170,note_on,0,0,3,,,,,,,,,2,,,55,0
16170,control_change,0,0,3,,,,,,,,,2,64,0,,
16170,note_on,0,0,3,,,,,,,,,2,,,55,36
16170,note_on,0,0,3,,,,,,,,,2,,,64,36
16170,note_on,15,0,1,,,,,,,,,0,,,64,0
16170,note_on,30,0,3,,,,,,,,,2,,,64,0
16170,note_on,0,0,1,,,,,,,,,0,,,64,49
16170,control_change,0,0,1,,,,,,,,,0,64,0,,
16185,note_on,15,0,1,,,,,,,,,0,,,64,0
16185,note_on,0,0,1,,,,,,,,,0,,,67,49
16200,note_on,0,0,1,,,,,,,,,0,,,67,49
16200,note_on,30,0,3,,,,,,,,,2,,,64,0
16200,note_on,0,0,3,,,,,,,,,2,,,55,0
16200,note_on,0,0,3,,,,,,,,,2,,,52,36
16200,note_on,15,0,1,,,,,,,,,0,,,67,0
16215,note_on,15,0,1,,,,,,,,,0,,,67,0
16215,note_on,0,0,1,,,,,,,,,0,,,72,49
16230,note_on,0,0,3,,,,,,,,,2,,,55,36
16230,note_on,30,0,3,,,,,,,,,2,,,52,0
16230,note_on,15,0,1,,,,,,,,,0,,,72,0
16230,note_on,0,0,1,,,,,,,,,0,,,76,49
16230,note_on,0,0,3,,,,,,,,,2,,,64,36
16245,note_on,15,0,1,,,,,,,,,0,,,76,0
16245,note_on,0,0,1,,,,,,,,,0,,,79,49
16260,note_on,30,0,3,,,,,,,,,2,,,64,0
16260,note_on,0,0,3,,,,,,,,,2,,,55,0
16260,note_on,0,0,3,,,,,,,,,2,,,55,36
16260,note_on,15,0,1,,,,,,,,,0,,,79,0
16260,set_tempo,180,1,0,,,,,,1250000,,,,,,,
16260,note_on,0,0,1,,,,,,,,,0,,,79,49
16264,note_on,4,0,3,,,,,,,,,2,,,55,0
16275,note_on,15,0,1,,,,,,,,,0,,,79,0
16275,note_on,0,0,1,,,,,,,,,0,,,77,49
16290,note_on,0,0,3,,,,,,,,,2,,,69,36
16290,note_on,15,0,1,,,,,,,,,0,,,77,0
16290,note_on,0,0,1,,,,,,,,,0,,,81,49
16290,note_on,26,0,3,,,,,,,,,2,,,65,36
16294,note_on,4,0,3,,,,,,,,,2,,,69,0
16294,note_on,0,0,3,,,,,,,,,2,,,65,0
16305,note_on,15,0,1,,,,,,,,,0,,,81,0
16305,note_on,0,0,1,,,,,,,,,0,,,77,49
16320,note_on,26,0,3,,,,,,,,,2,,,55,36
16320,note_on,15,0,1,,,,,,,,,0,,,77,0
16320,note_on,0,0,1,,,,,,,,,0,,,77,49
16324,note_on,4,0,3,,,,,,,,,2,,,55,0
16335,note_on,15,0,1,,,,,,,,,0,,,77,0
16335,note_on,0,0,1,,,,,,,,,0,,,76,49
16350,note_on,0,0,3,,,,,,,,,2,,,67,36
16350,note_on,26,0,3,,,,,,,,,2,,,64,36
16350,note_on,15,0,1,,,,,,,,,0,,,76,0
16350,note_on,0,0,1,,,,,,,,,0,,,79,49
16354,note_on,4,0,3,,,,,,,,,2,,,67,0
16354,note_on,0,0,3,,,,,,,,,2,,,64,0
16365,note_on,15,0,1,,,,,,,,,0,,,79,0
16365,note_on,0,0,1,,,,,,,,,0,,,76,49
16380,note_on,0,0,1,,,,,,,,,0,,,76,49
16380,note_on,26,0,3,,,,,,,,,2,,,55,36
16380,note_on,15,0,1,,,,,,,,,0,,,76,0
16384,note_on,4,0,3,,,,,,,,,2,,,55,0
16395,note_on,0,0,1,,,,,,,,,0,,,74,49
16395,note_on,15,0,1,,,,,,,,,0,,,76,0
16410,note_on,0,0,1,,,,,,,,,0,,,79,49
16410,note_on,15,0,1,,,,,,,,,0,,,74,0
16410,note_on,0,0,3,,,,,,,,,2,,,67,36
16410,note_on,26,0,3,,,,,,,,,2,,,59,36
16414,note_on,0,0,3,,,,,,,,,2,,,59,0
16414,note_on,4,0,3,,,,,,,,,2,,,67,0
16425,note_on,0,0,1,,,,,,,,,0,,,77,49
16425,note_on,15,0,1,,,,,,,,,0,,,79,0
16440,note_on,15,0,1,,,,,,,,,0,,,77,0
16440,note_on,0,0,1,,,,,,,,,0,,,75,49
16440,control_change,0,0,1,,,,,,,,,0,64,127,,
16440,control_change,26,0,3,,,,,,,,,2,64,127,,
16440,note_on,0,0,3,,,,,,,,,2,,,48,36
16470,note_on,0,0,3,,,,,,,,,2,,,67,36
16470,note_on,0,0,3,,,,,,,,,2,,,60,36
16470,note_on,30,0,3,,,,,,,,,2,,,48,0
16485,note_on,0,0,1,,,,,,,,,0,,,76,49
16485,note_on,45,0,1,,,,,,,,,0,,,75,0
16492,note_on,7,0,1,,,,,,,,,0,,,77,49
16493,note_on,1,0,1,,,,,,,,,0,,,76,0
16500,note_on,7,0,1,,,,,,,,,0,,,77,0
16500,note_on,0,0,1,,,,,,,,,0,,,76,75
16500,control_change,0,0,1,,,,,,,,,0,64,0,,
16515,note_on,0,0,1,,,,,,,,,0,,,79,75
16515,note_on,15,0,1,,,,,,,,,0,,,76,0
16519,note_on,4,0,1,,,,,,,,,0,,,79,0
16530,note_on,0,0,3,,,,,,,,,2,,,60,0
16530,note_on,11,0,1,,,,,,,,,0,,,81,75
16530,note_on,60,0,3,,,,,,,,,2,,,67,0
16534,note_on,4,0,1,,,,,,,,,0,,,81,0
16545,note_on,11,0,1,,,,,,,,,0,,,83,75
16549,note_on,4,0,1,,,,,,,,,0,,,83,0
16560,note_on,0,0,3,,,,,,,,,2,,,48,62
16560,control_change,30,0,3,,,,,,,,,2,64,0,,
16560,note_on,11,0,1,,,,,,,,,0,,,84,75
16564,note_on,4,0,1,,,,,,,,,0,,,84,0
16575,note_on,11,0,1,,,,,,,,,0,,,86,75
16579,note_on,4,0,1,,,,,,,,,0,,,86,0
16590,note_on,11,0,1,,,,,,,,,0,,,86,75
16590,note_on,0,0,3,,,,,,,,,2,,,64,62
16590,note_on,30,0,3,,,,,,,,,2,,,48,0
16590,note_on,0,0,3,,,,,,,,,2,,,55,62
16594,note_on,4,0,1,,,,,,,,,0,,,86,0
16605,note_on,11,0,1,,,,,,,,,0,,,88,75
16609,note_on,4,0,1,,,,,,,,,0,,,88,0
16620,note_on,30,0,3,,,,,,,,,2,,,64,0
16620,note_on,0,0,3,,,,,,,,,2,,,47,62
16620,control_change,0,0,3,,,,,,,,,2,64,127,,
16620,note_on,0,0,3,,,,,,,,,2,,,55,0
16620,control_change,11,0,1,,,,,,,,,0,64,127,,
16620,note_on,0,0,1,,,,,,,,,0,,,88,75
16635,note_on,0,0,1,,,,,,,,,0,,,86,75
16635,note_on,15,0,1,,,,,,,,,0,,,88,0
16650,note_on,0,0,3,,,,,,,,,2,,,65,62
16650,note_on,0,0,3,,,,,,,,,2,,,55,62
16650,note_on,30,0,3,,,,,,,,,2,,,47,0
16650,note_on,15,0,1,,,,,,,,,0,,,86,0
16650,note_on,0,0,1,,,,,,,,,0,,,86,75
16665,note_on,15,0,1,,,,,,,,,0,,,86,0
16665,note_on,0,0,1,,,,,,,,,0,,,84,75
16680,note_on,15,0,1,,,,,,,,,0,,,84,0
16680,note_on,0,0,1,,,,,,,,,0,,,84,75
16680,note_on,30,0,3,,,,,,,,,2,,,65,0
16680,note_on,0,0,3,,,,,,,,,2,,,55,0
16680,note_on,0,0,3,,,,,,,,,2,,,55,62
16680,note_on,0,0,3,,,,,,,,,2,,,65,62
16695,note_on,15,0,1,,,,,,,,,0,,,84,0
16695,note_on,0,0,1,,,,,,,,,0,,,83,75
16710,note_on,0,0,3,,,,,,,,,2,,,55,62
16710,control_change,0,0,3,,,,,,,,,2,64,0,,
16710,note_on,0,0,3,,,,,,,,,2,,,55,0
16710,note_on,30,0,3,,,,,,,,,2,,,65,0
16710,note_on,0,0,1,,,,,,,,,0,,,83,75
16710,note_on,0,0,3,,,,,,,,,2,,,65,62
16710,control_change,0,0,1,,,,,,,,,0,64,0,,
16710,note_on,15,0,1,,,,,,,,,0,,,83,0
16725,note_on,15,0,1,,,,,,,,,0,,,83,0
16725,note_on,0,0,1,,,,,,,,,0,,,81,75
16732,note_on,7,0,1,,,,,,,,,0,,,81,75
16733,note_on,1,0,1,,,,,,,,,0,,,81,0
16736,note_on,0,0,1,,,,,,,,,0,,,83,75
16736,note_on,3,0,1,,,,,,,,,0,,,81,0
16740,note_on,30,0,3,,,,,,,,,2,,,65,0
16740,note_on,0,0,3,,,,,,,,,2,,,55,0
16740,note_on,0,0,3,,,,,,,,,2,,,50,62
16740,note_on,0,0,1,,,,,,,,,0,,,81,75
16740,note_on,4,0,1,,,,,,,,,0,,,83,0
16755,note_on,15,0,1,,,,,,,,,0,,,81,0
16755,note_on,0,0,1,,,,,,,,,0,,,79,75
16770,note_on,0,0,1,,,,,,,,,0,,,81,75
16770,note_on,15,0,1,,,,,,,,,0,,,79,0
16770,note_on,0,0,3,,,,,,,,,2,,,65,62
16770,note_on,0,0,3,,,,,,,,,2,,,55,62
16770,note_on,30,0,3,,,,,,,,,2,,,50,0
16785,note_on,15,0,1,,,,,,,,,0,,,81,0
16785,note_on,0,0,1,,,,,,,,,0,,,83,75
16800,note_on,15,0,1,,,,,,,,,0,,,83,0
16800,control_change,0,0,1,,,,,,,,,0,64,127,,
16800,note_on,0,0,1,,,,,,,,,0,,,86,75
16800,note_on,0,0,3,,,,,,,,,2,,,48,62
16800,note_on,0,0,3,,,,,,,,,2,,,55,0
16800,note_on,30,0,3,,,,,,,,,2,,,65,0
16800,control_change,0,0,3,,,,,,,,,2,64,127,,
16815,note_on,15,0,1,,,,,,,,,0,,,86,0
16815,note_on,0,0,1,,,,,,,,,0,,,84,75
16830,note_on,30,0,3,,,,,,,,,2,,,48,0
16830,note_on,15,0,1,,,,,,,,,0,,,84,0
16830,note_on,0,0,1,,,,,,,,,0,,,84,75
16830,note_on,0,0,3,,,,,,,,,2,,,55,62
16830,note_on,0,0,3,,,,,,,,,2,,,64,62
16845,note_on,15,0,1,,,,,,,,,0,,,84,0
16845,note_on,0,0,1,,,,,,,,,0,,,79,75
16860,note_on,0,0,3,,,,,,,,,2,,,55,62
16860,note_on,15,0,1,,,,,,,,,0,,,79,0
16860,control_change,0,0,1,,,,,,,,,0,64,0,,
16860,note_on,0,0,1,,,,,,,,,0,,,79,75
16860,control_change,0,0,3,,,,,,,,,2,64,0,,
16860,note_on,0,0,3,,,,,,,,,2,,,55,0
16860,note_on,0,0,3,,,,,,,,,2,,,64,62
16860,note_on,30,0,3,,,,,,,,,2,,,64,0
16875,note_on,15,0,1,,,,,,,,,0,,,79,0
16875,note_on,0,0,1,,,,,,,,,0,,,76,75
16890,note_on,30,0,3,,,,,,,,,2,,,64,0
16890,note_on,0,0,3,,,,,,,,,2,,,55,0
16890,note_on,0,0,1,,,,,,,,,0,,,76,75
16890,note_on,0,0,3,,,,,,,,,2,,,64,62
16890,note_on,0,0,3,,,,,,,,,2,,,55,62
16890,note_on,15,0,1,,,,,,,,,0,,,76,0
16905,note_on,0,0,1,,,,,,,,,0,,,79,75
16905,note_on,15,0,1,,,,,,,,,0,,,76,0
16920,note_on,15,0,1,,,,,,,,,0,,,79,0
16920,note_on,0,0,3,,,,,,,,,2,,,55,62
16920,note_on,30,0,3,,,,,,,,,2,,,64,0
16920,note_on,0,0,1,,,,,,,,,0,,,79,75
16920,note_on,0,0,3,,,,,,,,,2,,,55,0
16935,note_on,15,0,3,,,,,,,,,2,,,55,0
16935,note_on,0,0,1,,,,,,,,,0,,,84,75
16935,note_on,0,0,3,,,,,,,,,2,,,60,62
16935,note_on,15,0,1,,,,,,,,,0,,,79,0
16950,note_on,15,0,1,,,,,,,,,0,,,84,0
16950,note_on,15,0,3,,,,,,,,,2,,,60,0
16950,note_on,0,0,3,,,,,,,,,2,,,62,62
16950,note_on,0,0,1,,,,,,,,,0,,,86,75
16965,note_on,0,0,1,,,,,,,,,0,,,87,75
16965,note_on,15,0,1,,,,,,,,,0,,,86,0
16965,note_on,0,0,3,,,,,,,,,2,,,63,62
16965,note_on,15,0,3,,,,,,,,,2,,,62,0
16980,note_on,0,0,3,,,,,,,,,2,,,63,62
16980,control_change,0,0,3,,,,,,,,,2,64,127,,
16980,note_on,15,0,3,,,,,,,,,2,,,63,0
16980,note_on,15,0,1,,,,,,,,,0,,,87,0
16980,note_on,0,0,1,,,,,,,,,0,,,87,75
16980,control_change,0,0,1,,,,,,,,,0,64,127,,
16995,note_on,0,0,1,,,,,,,,,0,,,86,75
16995,note_on,0,0,3,,,,,,,,,2,,,62,62
16995,note_on,15,0,3,,,,,,,,,2,,,63,0
16995,note_on,15,0,1,,,,,,,,,0,,,87,0
17010,note_on,0,0,3,,,,,,,,,2,,,62,62
17010,note_on,15,0,1,,,,,,,,,0,,,86,0
17010,note_on,0,0,1,,,,,,,,,0,,,86,75
17010,note_on,15,0,3,,,,,,,,,2,,,62,0
17025,note_on,15,0,3,,,,,,,,,2,,,62,0
17025,note_on,0,0,3,,,,,,,,,2,,,63,62
17025,note_on,0,0,3,,,,,,,,,2,,,67,62
17025,note_on,0,0,1,,,,,,,,,0,,,91,75
17025,note_on,15,0,1,,,,,,,,,0,,,86,0
17040,set_tempo,780,1,0,,,,,,1363636,,,,,,,
17040,note_on,15,0,1,,,,,,,,,0,,,91,0
17040,note_on,0,0,1,,,,,,,,,0,,,91,75
17040,note_on,0,0,3,,,,,,,,,2,,,67,62
17040,note_on,0,0,3,,,,,,,,,2,,,63,62
17040,note_on,0,0,3,,,,,,,,,2,,,63,0
17040,note_on,15,0,3,,,,,,,,,2,,,67,0
17055,note_on,15,0,1,,,,,,,,,0,,,91,0
17055,control_change,0,0,1,,,,,,,,,0,64,0,,
17055,note_on,0,0,1,,,,,,,,,0,,,79,75
17055,control_change,0,0,3,,,,,,,,,2,64,0,,
17055,note_on,0,0,3,,,,,,,,,2,,,55,62
17055,note_on,15,0,3,,,,,,,,,2,,,67,0
17055,note_on,0,0,3,,,,,,,,,2,,,63,0
17070,note_on,0,0,1,,,,,,,,,0,,,81,75
17070,note_on,15,0,1,,,,,,,,,0,,,79,0
17070,note_on,15,0,3,,,,,,,,,2,,,55,0
17070,note_on,0,0,3,,,,,,,,,2,,,57,62
17085,note_on,0,0,1,,,,,,,,,0,,,82,75
17085,note_on,15,0,1,,,,,,,,,0,,,81,0
17085,note_on,0,0,3,,,,,,,,,2,,,58,62
17085,note_on,15,0,3,,,,,,,,,2,,,57,0
17100,set_tempo,60,1,0,,,,,,1363636,,,,,,,
17100,note_on,15,0,1,,,,,,,,,0,,,82,0
17100,note_on,15,0,3,,,,,,,,,2,,,58,0
17100,note_on,0,0,3,,,,,,,,,2,,,50,36
17100,note_on,0,0,1,,,,,,,,,0,,,66,75
17100,note_on,0,0,1,,,,,,,,,0,,,70,75
17104,note_on,4,0,3,,,,,,,,,2,,,50,0
17115,note_on,0,0,1,,,,,,,,,0,,,66,0
17115,note_on,0,0,1,,,,,,,,,0,,,60,75
17115,note_on,15,0,1,,,,,,,,,0,,,70,0
17130,note_on,15,0,1,,,,,,,,,0,,,60,0
17130,note_on,0,0,1,,,,,,,,,0,,,69,75
17130,note_on,26,0,3,,,,,,,,,2,,,50,36
17130,note_on,0,0,1,,,,,,,,,0,,,66,75
17134,note_on,4,0,3,,,,,,,,,2,,,50,0
17145,note_on,15,0,1,,,,,,,,,0,,,69,0
17145,note_on,0,0,1,,,,,,,,,0,,,66,0
17145,note_on,0,0,1,,,,,,,,,0,,,60,75
17160,note_on,26,0,3,,,,,,,,,2,,,43,36
17160,note_on,15,0,1,,,,,,,,,0,,,60,0
17160,control_change,0,0,1,,,,,,,,,0,64,127,,
17160,note_on,0,0,1,,,,,,,,,0,,,59,75
17160,set_tempo,0,1,0,,,,,,1363636,,,,,,,
17160,time_signature,60,1,0,2,8,12,8,,,,,,,,,
17160,note_on,0,0,1,,,,,,,,,0,,,67,75
17190,note_on,30,0,3,,,,,,,,,2,,,43,0
17190,note_on,0,0,1,,,,,,,,,0,,,67,75
17190,note_on,0,0,1,,,,,,,,,0,,,59,0
17190,note_on,30,0,1,,,,,,,,,0,,,67,0
17205,note_on,0,0,1,,,,,,,,,0,,,69,75
17205,note_on,15,0,1,,,,,,,,,0,,,67,0
17212,note_on,7,0,1,,,,,,,,,0,,,69,75
17213,note_on,1,0,1,,,,,,,,,0,,,69,0
17216,note_on,0,0,1,,,,,,,,,0,,,71,75
17216,note_on,3,0,1,,,,,,,,,0,,,69,0
17220,note_on,4,0,1,,,,,,,,,0,,,71,0
17220,note_on,0,0,1,,,,,,,,,0,,,69,75
17220,set_tempo,60,1,0,,,,,,1500000,,,,,,,
17235,note_on,15,0,1,,,,,,,,,0,,,69,0
17235,control_change,0,0,1,,,,,,,,,0,64,0,,
17235,note_on,0,0,1,,,,,,,,,0,,,67,75
17242,note_on,7,0,1,,,,,,,,,0,,,69,75
17243,note_on,1,0,1,,,,,,,,,0,,,67,0
17246,note_on,0,0,1,,,,,,,,,0,,,71,75
17246,note_on,3,0,1,,,,,,,,,0,,,69,0
17250,note_on,0,0,1,,,,,,,,,0,,,69,75
17250,note_on,4,0,1,,,,,,,,,0,,,71,0
17265,note_on,0,0,1,,,,,,,,,0,,,67,75
17265,note_on,15,0,1,,,,,,,,,0,,,69,0
17280,note_on,0,0,1,,,,,,,,,0,,,67,49
17280,note_on,15,0,1,,,,,,,,,0,,,67,0
17280,set_tempo,0,1,0,,,,,,1363636,,,,,,,
17280,time_signature,60,1,0,1,8,12,8,,,,,,,,,
17280,note_on,90,0,3,,,,,,,,,2,,,48,36
17295,note_on,0,0,1,,,,,,,,,0,,,72,49
17295,note_on,15,0,1,,,,,,,,,0,,,67,0
17310,note_on,30,0,3,,,,,,,,,2,,,48,0
17310,note_on,0,0,3,,,,,,,,,2,,,55,36
17310,note_on,0,0,3,,,,,,,,,2,,,64,36
17310,note_on,0,0,1,,,,,,,,,0,,,74,49
17310,note_on,15,0,1,,,,,,,,,0,,,72,0
17325,note_on,15,0,1,,,,,,,,,0,,,74,0
17325,note_on,0,0,1,,,,,,,,,0,,,76,49
17340,set_tempo,0,1,0,,,,,,1363636,,,,,,,
17340,control_change,0,0,3,,,,,,,,,2,64,127,,
17340,note_on,0,0,3,,,,,,,,,2,,,47,36
17340,note_on,0,0,3,,,,,,,,,2,,,55,0
17340,control_change,0,0,1,,,,,,,,,0,64,127,,
17340,note_on,30,0,3,,,,,,,,,2,,,64,0
17340,time_signature,60,1,0,3,8,12,8,,,,,,,,,
17340,note_on,0,0,1,,,,,,,,,0,,,76,49
17340,note_on,15,0,1,,,,,,,,,0,,,76,0
17355,note_on,15,0,1,,,,,,,,,0,,,76,0
17355,note_on,0,0,1,,,,,,,,,0,,,74,49
17370,note_on,30,0,3,,,,,,,,,2,,,47,0
17370,note_on,0,0,3,,,,,,,,,2,,,65,36
17370,note_on,0,0,1,,,,,,,,,0,,,74,49
17370,note_on,15,0,1,,,,,,,,,0,,,74,0
17370,note_on,0,0,3,,,,,,,,,2,,,55,36
17385,note_on,0,0,1,,,,,,,,,0,,,72,49
17385,note_on,15,0,1,,,,,,,,,0,,,74,0
17400,note_on,15,0,1,,,,,,,,,0,,,72,0
17400,note_on,0,0,3,,,,,,,,,2,,,65,36
17400,set_tempo,60,1,0,,,,,,1500000,,,,,,,
17400,note_on,30,0,3,,,,,,,,,2,,,65,0
17400,note_on,0,0,3,,,,,,,,,2,,,55,0
17400,note_on,0,0,3,,,,,,,,,2,,,55,36
17400,note_on,0,0,1,,,,,,,,,0,,,72,49
17415,note_on,15,0,1,,,,,,,,,0,,,72,0
17415,note_on,0,0,1,,,,,,,,,0,,,71,49
17430,note_on,0,0,3,,,,,,,,,2,,,65,36
17430,note_on,0,0,3,,,,,,,,,2,,,55,36
17430,control_change,0,0,3,,,,,,,,,2,64,0,,
17430,note_on,30,0,3,,,,,,,,,2,,,65,0
17430,note_on,0,0,3,,,,,,,,,2,,,55,0
17430,note_on,0,0,1,,,,,,,,,0,,,71,49
17430,control_change,0,0,1,,,,,,,,,0,64,0,,
17430,note_on,15,0,1,,,,,,,,,0,,,71,0
17445,note_on,15,0,1,,,,,,,,,0,,,71,0
17445,note_on,0,0,1,,,,,,,,,0,,,69,49
17452,note_on,7,0,1,,,,,,,,,0,,,69,49
17453,note_on,1,0,1,,,,,,,,,0,,,69,0
17456,note_on,0,0,1,,,,,,,,,0,,,71,49
17456,note_on,3,0,1,,,,,,,,,0,,,69,0
17460,set_tempo,60,1,0,,,,,,1666667,,,,,,,
17460,note_on,30,0,3,,,,,,,,,2,,,65,0
17460,note_on,0,0,3,,,,,,,,,2,,,55,0
17460,note_on,0,0,3,,,,,,,,,2,,,50,36
17460,note_on,0,0,1,,,,,,,,,0,,,69,49
17460,note_on,4,0,1,,,,,,,,,0,,,71,0
17475,note_on,15,0,1,,,,,,,,,0,,,69,0
17475,note_on,0,0,1,,,,,,,,,0,,,67,49
17490,note_on,0,0,3,,,,,,,,,2,,,65,36
17490,note_on,0,0,3,,,,,,,,,2,,,55,36
17490,note_on,30,0,3,,,,,,,,,2,,,50,0
17490,note_on,15,0,1,,,,,,,,,0,,,67,0
17490,note_on,0,0,1,,,,,,,,,0,,,69,49
17505,note_on,15,0,1,,,,,,,,,0,,,69,0
17505,note_on,0,0,1,,,,,,,,,0,,,71,49
17520,note_on,0,0,3,,,,,,,,,2,,,48,36
17520,control_change,0,0,3,,,,,,,,,2,64,127,,
17520,note_on,0,0,3,,,,,,,,,2,,,55,0
17520,note_on,30,0,3,,,,,,,,,2,,,65,0
17520,control_change,0,0,1,,,,,,,,,0,64,127,,
17520,note_on,0,0,1,,,,,,,,,0,,,74,49
17520,note_on,15,0,1,,,,,,,,,0,,,71,0
17520,set_tempo,60,1,0,,,,,,1250000,,,,,,,
17535,note_on,0,0,1,,,,,,,,,0,,,72,49
17535,note_on,15,0,1,,,,,,,,,0,,,74,0
17550,note_on,0,0,3,,,,,,,,,2,,,64,36
17550,note_on,0,0,3,,,,,,,,,2,,,55,36
17550,note_on,30,0,3,,,,,,,,,2,,,48,0
17550,note_on,0,0,1,,,,,,,,,0,,,72,49
17550,note_on,15,0,1,,,,,,,,,0,,,72,0
17565,note_on,0,0,1,,,,,,,,,0,,,67,49
17565,note_on,15,0,1,,,,,,,,,0,,,72,0
17580,note_on,30,0,3,,,,,,,,,2,,,64,0
17580,note_on,0,0,3,,,,,,,,,2,,,64,36
17580,note_on,0,0,3,,,,,,,,,2,,,55,0
17580,note_on,0,0,3,,,,,,,,,2,,,55,36
17580,note_on,0,0,1,,,,,,,,,0,,,67,49
17580,note_on,15,0,1,,,,,,,,,0,,,67,0
17595,note_on,0,0,1,,,,,,,,,0,,,64,49
17595,note_on,15,0,1,,,,,,,,,0,,,67,0
17610,control_change,0,0,3,,,,,,,,,2,64,0,,
17610,note_on,0,0,1,,,,,,,,,0,,,64,49
17610,note_on,30,0,3,,,,,,,,,2,,,64,0
17610,note_on,0,0,3,,,,,,,,,2,,,55,0
17610,note_on,15,0,1,,,,,,,,,0,,,64,0
17610,control_change,0,0,1,,,,,,,,,0,64,0,,
17610,note_on,0,0,3,,,,,,,,,2,,,64,36
17610,note_on,0,0,3,,,,,,,,,2,,,55,36
17625,note_on,0,0,1,,,,,,,,,0,,,67,49
17625,note_on,15,0,1,,,,,,,,,0,,,64,0
17640,note_on,0,0,3,,,,,,,,,2,,,52,36
17640,note_on,0,0,1,,,,,,,,,0,,,67,49
17640,note_on,15,0,1,,,,,,,,,0,,,67,0
17640,note_on,30,0,3,,,,,,,,,2,,,64,0
17640,note_on,0,0,3,,,,,,,,,2,,,55,0
17655,note_on,0,0,1,,,,,,,,,0,,,72,49
17655,note_on,15,0,1,,,,,,,,,0,,,67,0
17670,note_on,0,0,1,,,,,,,,,0,,,76,49
17670,note_on,15,0,1,,,,,,,,,0,,,72,0
17670,note_on,0,0,3,,,,,,,,,2,,,64,36
17670,note_on,30,0,3,,,,,,,,,2,,,52,0
17670,note_on,0,0,3,,,,,,,,,2,,,55,36
17685,note_on,0,0,1,,,,,,,,,0,,,79,49
17685,note_on,15,0,1,,,,,,,,,0,,,76,0
17700,note_on,30,0,3,,,,,,,,,2,,,64,0
17700,note_on,0,0,3,,,,,,,,,2,,,55,0
17700,note_on,0,0,1,,,,,,,,,0,,,79,49
17700,set_tempo,180,1,0,,,,,,1250000,,,,,,,
17700,note_on,15,0,1,,,,,,,,,0,,,79,0
17700,note_on,0,0,3,,,,,,,,,2,,,55,36
17704,note_on,4,0,3,,,,,,,,,2,,,55,0
17715,note_on,0,0,1,,,,,,,,,0,,,77,49
17715,note_on,15,0,1,,,,,,,,,0,,,79,0
17730,note_on,0,0,1,,,,,,,,,0,,,81,49
17730,note_on,26,0,3,,,,,,,,,2,,,65,36
17730,note_on,0,0,3,,,,,,,,,2,,,69,36
17730,note_on,15,0,1,,,,,,,,,0,,,77,0
17734,note_on,4,0,3,,,,,,,,,2,,,69,0
17734,note_on,0,0,3,,,,,,,,,2,,,65,0
17745,note_on,15,0,1,,,,,,,,,0,,,81,0
17745,note_on,0,0,1,,,,,,,,,0,,,77,49
17760,note_on,26,0,3,,,,,,,,,2,,,55,36
17760,note_on,15,0,1,,,,,,,,,0,,,77,0
17760,note_on,0,0,1,,,,,,,,,0,,,77,49
17764,note_on,4,0,3,,,,,,,,,2,,,55,0
17775,note_on,15,0,1,,,,,,,,,0,,,77,0
17775,note_on,0,0,1,,,,,,,,,0,,,76,49
17790,note_on,26,0,3,,,,,,,,,2,,,64,36
17790,note_on,0,0,3,,,,,,,,,2,,,67,36
17790,note_on,0,0,1,,,,,,,,,0,,,79,49
17790,note_on,15,0,1,,,,,,,,,0,,,76,0
17794,note_on,4,0,3,,,,,,,,,2,,,67,0
17794,note_on,0,0,3,,,,,,,,,2,,,64,0
17805,note_on,15,0,1,,,,,,,,,0,,,79,0
17805,note_on,0,0,1,,,,,,,,,0,,,76,49
17820,note_on,15,0,1,,,,,,,,,0,,,76,0
17820,note_on,0,0,1,,,,,,,,,0,,,76,49
17820,note_on,26,0,3,,,,,,,,,2,,,55,36
17824,note_on,4,0,3,,,,,,,,,2,,,55,0
17835,note_on,15,0,1,,,,,,,,,0,,,76,0
17835,note_on,0,0,1,,,,,,,,,0,,,74,49
17850,note_on,0,0,1,,,,,,,,,0,,,79,49
17850,note_on,0,0,3,,,,,,,,,2,,,67,36
17850,note_on,26,0,3,,,,,,,,,2,,,59,36
17850,note_on,15,0,1,,,,,,,,,0,,,74,0
17854,note_on,4,0,3,,,,,,,,,2,,,67,0
17854,note_on,0,0,3,,,,,,,,,2,,,59,0
17865,note_on,15,0,1,,,,,,,,,0,,,79,0
17865,note_on,0,0,1,,,,,,,,,0,,,77,49
17880,control_change,26,0,3,,,,,,,,,2,64,127,,
17880,note_on,15,0,1,,,,,,,,,0,,,77,0
17880,control_change,0,0,1,,,,,,,,,0,64,127,,
17880,note_on,0,0,1,,,,,,,,,0,,,75,49
17880,note_on,0,0,3,,,,,,,,,2,,,48,36
17910,note_on,30,0,3,,,,,,,,,2,,,48,0
17910,note_on,0,0,3,,,,,,,,,2,,,60,36
17910,note_on,0,0,3,,,,,,,,,2,,,67,36
17925,note_on,0,0,1,,,,,,,,,0,,,76,49
17925,note_on,45,0,1,,,,,,,,,0,,,75,0
17932,note_on,7,0,1,,,,,,,,,0,,,77,49
17933,note_on,1,0,1,,,,,,,,,0,,,76,0
17940,note_on,7,0,1,,,,,,,,,0,,,77,0
17940,control_change,0,0,1,,,,,,,,,0,64,0,,
17940,note_on,0,0,1,,,,,,,,,0,,,76,75
17955,note_on,15,0,1,,,,,,,,,0,,,76,0
17955,note_on,0,0,1,,,,,,,,,0,,,79,75
17959,note_on,4,0,1,,,,,,,,,0,,,79,0
17970,note_on,60,0,3,,,,,,,,,2,,,67,0
17970,note_on,11,0,1,,,,,,,,,0,,,81,75
17970,note_on,0,0,3,,,,,,,,,2,,,60,0
17974,note_on,4,0,1,,,,,,,,,0,,,81,0
17985,note_on,11,0,1,,,,,,,,,0,,,83,75
17989,note_on,4,0,1,,,,,,,,,0,,,83,0
18000,note_on,0,0,3,,,,,,,,,2,,,48,62
18000,note_on,11,0,1,,,,,,,,,0,,,84,75
18000,control_change,30,0,3,,,,,,,,,2,64,0,,
18004,note_on,4,0,1,,,,,,,,,0,,,84,0
18015,note_on,11,0,1,,,,,,,,,0,,,86,75
18019,note_on,4,0,1,,,,,,,,,0,,,86,0
18030,note_on,0,0,3,,,,,,,,,2,,,55,62
18030,note_on,30,0,3,,,,,,,,,2,,,48,0
18030,note_on,11,0,1,,,,,,,,,0,,,86,75
18030,note_on,0,0,3,,,,,,,,,2,,,64,62
18034,note_on,4,0,1,,,,,,,,,0,,,86,0
18045,note_on,11,0,1,,,,,,,,,0,,,88,75
18049,note_on,4,0,1,,,,,,,,,0,,,88,0
18060,note_on,0,0,1,,,,,,,,,0,,,88,75
18060,note_on,0,0,3,,,,,,,,,2,,,47,62
18060,control_change,11,0,1,,,,,,,,,0,64,127,,
18060,control_change,0,0,3,,,,,,,,,2,64,127,,
18060,note_on,0,0,3,,,,,,,,,2,,,55,0
18060,note_on,30,0,3,,,,,,,,,2,,,64,0
18075,note_on,15,0,1,,,,,,,,,0,,,88,0
18075,note_on,0,0,1,,,,,,,,,0,,,86,75
18090,note_on,15,0,1,,,,,,,,,0,,,86,0
18090,note_on,30,0,3,,,,,,,,,2,,,47,0
18090,note_on,0,0,3,,,,,,,,,2,,,55,62
18090,note_on,0,0,3,,,,,,,,,2,,,65,62
18090,note_on,0,0,1,,,,,,,,,0,,,86,75
18105,note_on,0,0,1,,,,,,,,,0,,,84,75
18105,note_on,15,0,1,,,,,,,,,0,,,86,0
18120,note_on,30,0,3,,,,,,,,,2,,,65,0
18120,note_on,0,0,3,,,,,,,,,2,,,55,0
18120,note_on,0,0,3,,,,,,,,,2,,,55,62
18120,note_on,0,0,3,,,,,,,,,2,,,65,62
18120,note_on,15,0,1,,,,,,,,,0,,,84,0
18120,note_on,0,0,1,,,,,,,,,0,,,84,75
18135,note_on,15,0,1,,,,,,,,,0,,,84,0
18135,note_on,0,0,1,,,,,,,,,0,,,83,75
18150,note_on,0,0,3,,,,,,,,,2,,,65,62
18150,note_on,0,0,3,,,,,,,,,2,,,55,62
18150,control_change,0,0,3,,,,,,,,,2,64,0,,
18150,note_on,0,0,3,,,,,,,,,2,,,55,0
18150,note_on,30,0,3,,,,,,,,,2,,,65,0
18150,note_on,15,0,1,,,,,,,,,0,,,83,0
18150,control_change,0,0,1,,,,,,,,,0,64,0,,
18150,note_on,0,0,1,,,,,,,,,0,,,83,75
18165,note_on,0,0,1,,,,,,,,,0,,,81,75
18165,note_on,15,0,1,,,,,,,,,0,,,83,0
18172,note_on,7,0,1,,,,,,,,,0,,,81,75
18173,note_on,1,0,1,,,,,,,,,0,,,81,0
18176,note_on,3,0,1,,,,,,,,,0,,,81,0
18176,note_on,0,0,1,,,,,,,,,0,,,83,75
18180,note_on,4,0,1,,,,,,,,,0,,,83,0
18180,note_on,0,0,1,,,,,,,,,0,,,81,75
18180,note_on,0,0,3,,,,,,,,,2,,,50,62
18180,note_on,0,0,3,,,,,,,,,2,,,55,0
18180,note_on,30,0,3,,,,,,,,,2,,,65,0
18195,note_on,15,0,1,,,,,,,,,0,,,81,0
18195,note_on,0,0,1,,,,,,,,,0,,,79,75
18210,note_on,0,0,3,,,,,,,,,2,,,55,62
18210,note_on,0,0,3,,,,,,,,,2,,,65,62
18210,note_on,30,0,3,,,,,,,,,2,,,50,0
18210,note_on,15,0,1,,,,,,,,,0,,,79,0
18210,note_on,0,0,1,,,,,,,,,0,,,81,75
18225,note_on,15,0,1,,,,,,,,,0,,,81,0
18225,note_on,0,0,1,,,,,,,,,0,,,83,75
18240,note_on,15,0,1,,,,,,,,,0,,,83,0
18240,control_change,0,0,1,,,,,,,,,0,64,127,,
18240,note_on,0,0,3,,,,,,,,,2,,,48,62
18240,note_on,30,0,3,,,,,,,,,2,,,65,0
18240,note_on,0,0,3,,,,,,,,,2,,,55,0
18240,control_change,0,0,3,,,,,,,,,2,64,127,,
18240,note_on,0,0,1,,,,,,,,,0,,,86,75
18255,note_on,15,0,1,,,,,,,,,0,,,86,0
18255,note_on,0,0,1,,,,,,,,,0,,,84,75
18270,note_on,0,0,3,,,,,,,,,2,,,64,62
18270,note_on,0,0,3,,,,,,,,,2,,,55,62
18270,note_on,30,0,3,,,,,,,,,2,,,48,0
18270,note_on,15,0,1,,,,,,,,,0,,,84,0
18270,note_on,0,0,1,,,,,,,,,0,,,84,75
18285,note_on,15,0,1,,,,,,,,,0,,,84,0
18285,note_on,0,0,1,,,,,,,,,0,,,79,75
18300,note_on,0,0,1,,,,,,,,,0,,,79,75
18300,note_on,15,0,1,,,,,,,,,0,,,79,0
18300,note_on,30,0,3,,,,,,,,,2,,,64,0
18300,control_change,0,0,1,,,,,,,,,0,64,0,,
18300,note_on,0,0,3,,,,,,,,,2,,,64,62
18300,note_on,0,0,3,,,,,,,,,2,,,55,62
18300,control_change,0,0,3,,,,,,,,,2,64,0,,
18300,note_on,0,0,3,,,,,,,,,2,,,55,0
18315,note_on,0,0,1,,,,,,,,,0,,,76,75
18315,note_on,15,0,1,,,,,,,,,0,,,79,0
18330,note_on,15,0,1,,,,,,,,,0,,,76,0
18330,note_on,0,0,3,,,,,,,,,2,,,55,62
18330,note_on,0,0,3,,,,,,,,,2,,,55,0
18330,note_on,30,0,3,,,,,,,,,2,,,64,0
18330,note_on,0,0,3,,,,,,,,,2,,,64,62
18330,note_on,0,0,1,,,,,,,,,0,,,76,75
18345,note_on,15,0,1,,,,,,,,,0,,,76,0
18345,note_on,0,0,1,,,,,,,,,0,,,79,75
18360,note_on,0,0,1,,,,,,,,,0,,,79,75
18360,note_on,0,0,3,,,,,,,,,2,,,55,62
18360,note_on,15,0,1,,,,,,,,,0,,,79,0
18360,note_on,0,0,3,,,,,,,,,2,,,55,0
18360,note_on,30,0,3,,,,,,,,,2,,,64,0
18375,note_on,15,0,3,,,,,,,,,2,,,55,0
18375,note_on,0,0,3,,,,,,,,,2,,,60,62
18375,note_on,15,0,1,,,,,,,,,0,,,79,0
18375,note_on,0,0,1,,,,,,,,,0,,,84,75
18390,note_on,0,0,3,,,,,,,,,2,,,62,62
18390,note_on,15,0,3,,,,,,,,,2,,,60,0
18390,note_on,0,0,1,,,,,,,,,0,,,86,75
18390,note_on,15,0,1,,,,,,,,,0,,,84,0
18405,note_on,0,0,1,,,,,,,,,0,,,87,75
18405,note_on,15,0,3,,,,,,,,,2,,,62,0
18405,note_on,0,0,3,,,,,,,,,2,,,63,62
18405,note_on,15,0,1,,,,,,,,,0,,,86,0
18420,control_change,0,0,3,,,,,,,,,2,64,127,,
18420,note_on,0,0,3,,,,,,,,,2,,,63,62
18420,note_on,15,0,3,,,,,,,,,2,,,63,0
18420,note_on,15,0,1,,,,,,,,,0,,,87,0
18420,control_change,0,0,1,,,,,,,,,0,64,127,,
18420,note_on,0,0,1,,,,,,,,,0,,,87,75
18435,note_on,15,0,1,,,,,,,,,0,,,87,0
18435,note_on,0,0,1,,,,,,,,,0,,,86,75
18435,note_on,15,0,3,,,,,,,,,2,,,63,0
18435,note_on,0,0,3,,,,,,,,,2,,,62,62
18450,note_on,0,0,3,,,,,,,,,2,,,62,62
18450,note_on,0,0,1,,,,,,,,,0,,,86,75
18450,note_on,15,0,1,,,,,,,,,0,,,86,0
18450,note_on,15,0,3,,,,,,,,,2,,,62,0
18465,note_on,15,0,3,,,,,,,,,2,,,62,0
18465,note_on,0,0,3,,,,,,,,,2,,,63,62
18465,note_on,0,0,3,,,,,,,,,2,,,67,62
18465,note_on,15,0,1,,,,,,,,,0,,,86,0
18465,note_on,0,0,1,,,,,,,,,0,,,91,75
18480,note_on,15,0,1,,,,,,,,,0,,,91,0
18480,set_tempo,780,1,0,,,,,,1363636,,,,,,,
18480,note_on,0,0,1,,,,,,,,,0,,,91,75
18480,note_on,0,0,3,,,,,,,,,2,,,67,62
18480,note_on,0,0,3,,,,,,,,,2,,,63,62
18480,note_on,0,0,3,,,,,,,,,2,,,63,0
18480,note_on,15,0,3,,,,,,,,,2,,,67,0
18495,note_on,0,0,3,,,,,,,,,2,,,55,62
18495,note_on,15,0,3,,,,,,,,,2,,,67,0
18495,note_on,15,0,1,,,,,,,,,0,,,91,0
18495,note_on,0,0,3,,,,,,,,,2,,,63,0
18495,control_change,0,0,3,,,,,,,,,2,64,0,,
18495,control_change,0,0,1,,,,,,,,,0,64,0,,
18495,note_on,0,0,1,,,,,,,,,0,,,79,75
18510,note_on,15,0,1,,,,,,,,,0,,,79,0
18510,note_on,15,0,3,,,,,,,,,2,,,55,0
18510,note_on,0,0,3,,,,,,,,,2,,,57,62
18510,note_on,0,0,1,,,,,,,,,0,,,81,75
18525,note_on,15,0,3,,,,,,,,,2,,,57,0
18525,note_on,0,0,3,,,,,,,,,2,,,58,62
18525,note_on,15,0,1,,,,,,,,,0,,,81,0
18525,note_on,0,0,1,,,,,,,,,0,,,82,75
18540,set_tempo,60,1,0,,,,,,1363636,,,,,,,
18540,note_on,15,0,3,,,,,,,,,2,,,58,0
18540,note_on,0,0,3,,,,,,,,,2,,,50,36
18540,note_on,0,0,1,,,,,,,,,0,,,66,75
18540,note_on,15,0,1,,,,,,,,,0,,,82,0
18540,note_on,0,0,1,,,,,,,,,0,,,70,75
18544,note_on,4,0,3,,,,,,,,,2,,,50,0
18555,note_on,0,0,1,,,,,,,,,0,,,66,0
18555,note_on,0,0,1,,,,,,,,,0,,,60,75
18555,note_on,15,0,1,,,,,,,,,0,,,70,0
18570,note_on,15,0,1,,,,,,,,,0,,,60,0
18570,note_on,26,0,3,,,,,,,,,2,,,50,36
18570,note_on,0,0,1,,,,,,,,,0,,,66,75
18570,note_on,0,0,1,,,,,,,,,0,,,69,75
18574,note_on,4,0,3,,,,,,,,,2,,,50,0
18585,note_on,15,0,1,,,,,,,,,0,,,69,0
18585,note_on,0,0,1,,,,,,,,,0,,,66,0
18585,note_on,0,0,1,,,,,,,,,0,,,60,75
18600,note_on,15,0,1,,,,,,,,,0,,,60,0
18600,note_on,0,0,1,,,,,,,,,0,,,59,75
18600,note_on,0,0,1,,,,,,,,,0,,,67,75
18600,control_change,0,0,1,,,,,,,,,0,64,127,,
18600,set_tempo,0,1,0,,,,,,1363636,,,,,,,
18600,time_signature,60,1,0,2,8,12,8,,,,,,,,,
18600,note_on,26,0,3,,,,,,,,,2,,,43,36
18630,note_on,0,0,1,,,,,,,,,0,,,59,0
18630,note_on,30,0,3,,,,,,,,,2,,,43,0
18630,note_on,0,0,1,,,,,,,,,0,,,67,75
18630,note_on,30,0,1,,,,,,,,,0,,,67,0
18645,note_on,15,0,1,,,,,,,,,0,,,67,0
18645,note_on,0,0,1,,,,,,,,,0,,,69,75
18652,note_on,7,0,1,,,,,,,,,0,,,69,75
18653,note_on,1,0,1,,,,,,,,,0,,,69,0
18656,note_on,3,0,1,,,,,,,,,0,,,69,0
18656,note_on,0,0,1,,,,,,,,,0,,,71,75
18660,note_on,4,0,1,,,,,,,,,0,,,71,0
18660,note_on,0,0,1,,,,,,,,,0,,,69,75
18660,set_tempo,60,1,0,,,,,,1500000,,,,,,,
18675,note_on,0,0,1,,,,,,,,,0,,,67,75
18675,note_on,15,0,1,,,,,,,,,0,,,69,0
18675,control_change,0,0,1,,,,,,,,,0,64,0,,
18682,note_on,7,0,1,,,,,,,,,0,,,69,75
18683,note_on,1,0,1,,,,,,,,,0,,,67,0
18686,note_on,3,0,1,,,,,,,,,0,,,69,0
18686,note_on,0,0,1,,,,,,,,,0,,,71,75
18690,note_on,4,0,1,,,,,,,,,0,,,71,0
18690,note_on,0,0,1,,,,,,,,,0,,,69,75
18705,note_on,0,0,1,,,,,,,,,0,,,67,75
18705,note_on,15,0,1,,,,,,,,,0,,,69,0
18720,note_on,15,0,1,,,,,,,,,0,,,67,0
18720,time_signature,60,1,0,1,8,12,8,,,,,,,,,
18720,set_tempo,0,1,0,,,,,,1363636,,,,,,,
18720,note_on,0,0,1,,,,,,,,,0,,,76,49
18720,note_on,90,0,3,,,,,,,,,2,,,49,36
18735,note_on,15,0,1,,,,,,,,,0,,,76,0
18735,note_on,0,0,1,,,,,,,,,0,,,72,49
18750,note_on,15,0,1,,,,,,,,,0,,,72,0
18750,note_on,30,0,3,,,,,,,,,2,,,49,0
18750,note_on,0,0,1,,,,,,,,,0,,,71,49
18750,note_on,0,0,3,,,,,,,,,2,,,67,36
18750,note_on,0,0,3,,,,,,,,,2,,,57,36
18755,note_on,5,0,1,,,,,,,,,0,,,71,0
18755,note_on,0,0,1,,,,,,,,,0,,,73,49
18759,note_on,4,0,1,,,,,,,,,0,,,71,49
18760,note_on,1,0,1,,,,,,,,,0,,,73,0
18764,note_on,4,0,1,,,,,,,,,0,,,71,0
18765,note_on,1,0,1,,,,,,,,,0,,,69,49
18780,set_tempo,0,1,0,,,,,,1363636,,,,,,,
18780,time_signature,60,1,0,3,8,12,8,,,,,,,,,
18780,note_on,15,0,1,,,,,,,,,0,,,69,0
18780,note_on,0,0,3,,,,,,,,,2,,,57,0
18780,control_change,0,0,3,,,,,,,,,2,64,127,,
18780,note_on,0,0,1,,,,,,,,,0,,,81,49
18780,control_change,0,0,1,,,,,,,,,0,64,127,,
18780,note_on,30,0,3,,,,,,,,,2,,,67,0
18780,note_on,0,0,3,,,,,,,,,2,,,50,36
18795,note_on,0,0,1,,,,,,,,,0,,,77,49
18795,note_on,15,0,1,,,,,,,,,0,,,81,0
18802,note_on,7,0,1,,,,,,,,,0,,,76,49
18803,note_on,1,0,1,,,,,,,,,0,,,77,0
18806,note_on,3,0,1,,,,,,,,,0,,,76,0
18806,note_on,0,0,1,,,,,,,,,0,,,77,49
18810,note_on,4,0,1,,,,,,,,,0,,,77,0
18810,note_on,0,0,1,,,,,,,,,0,,,76,49
18810,note_on,0,0,3,,,,,,,,,2,,,65,36
18810,note_on,0,0,3,,,,,,,,,2,,,57,36
18810,note_on,30,0,3,,,,,,,,,2,,,50,0
18825,note_on,0,0,1,,,,,,,,,0,,,74,49
18825,note_on,15,0,1,,,,,,,,,0,,,76,0
18840,note_on,0,0,3,,,,,,,,,2,,,65,36
18840,set_tempo,60,1,0,,,,,,1500000,,,,,,,
18840,note_on,0,0,1,,,,,,,,,0,,,86,36
18840,note_on,15,0,1,,,,,,,,,0,,,74,0
18840,note_on,30,0,3,,,,,,,,,2,,,65,0
18840,note_on,0,0,3,,,,,,,,,2,,,57,0
18840,note_on,0,0,3,,,,,,,,,2,,,57,36
18855,note_on,0,0,1,,,,,,,,,0,,,89,36
18855,note_on,15,0,1,,,,,,,,,0,,,86,0
18870,note_on,15,0,1,,,,,,,,,0,,,89,0
18870,note_on,0,0,1,,,,,,,,,0,,,91,36
18870,note_on,30,0,3,,,,,,,,,2,,,65,0
18870,note_on,0,0,3,,,,,,,,,2,,,65,36
18870,note_on,0,0,3,,,,,,,,,2,,,57,36
18870,control_change,0,0,3,,,,,,,,,2,64,0,,
18870,note_on,0,0,3,,,,,,,,,2,,,57,0
18885,note_on,15,0,1,,,,,,,,,0,,,91,0
18885,control_change,0,0,1,,,,,,,,,0,64,0,,
18885,note_on,0,0,1,,,,,,,,,0,,,93,36
18900,set_tempo,60,1,0,,,,,,1666667,,,,,,,
18900,note_on,0,0,3,,,,,,,,,2,,,47,36
18900,note_on,0,0,3,,,,,,,,,2,,,57,0
18900,note_on,30,0,3,,,,,,,,,2,,,65,0
18900,note_on,15,0,1,,,,,,,,,0,,,93,0
18900,note_on,0,0,1,,,,,,,,,0,,,74,49
18915,note_on,0,0,1,,,,,,,,,0,,,71,49
18915,note_on,15,0,1,,,,,,,,,0,,,74,0
18930,note_on,0,0,3,,,,,,,,,2,,,55,36
18930,note_on,30,0,3,,,,,,,,,2,,,47,0
18930,note_on,0,0,3,,,,,,,,,2,,,65,36
18930,note_on,0,0,1,,,,,,,,,0,,,69,49
18930,note_on,15,0,1,,,,,,,,,0,,,71,0
18935,note_on,5,0,1,,,,,,,,,0,,,69,0
18935,note_on,0,0,1,,,,,,,,,0,,,71,49
18939,note_on,4,0,1,,,,,,,,,0,,,69,49
18940,note_on,1,0,1,,,,,,,,,0,,,71,0
18944,note_on,4,0,1,,,,,,,,,0,,,69,0
18945,note_on,1,0,1,,,,,,,,,0,,,67,49
18960,control_change,0,0,3,,,,,,,,,2,64,127,,
18960,note_on,0,0,3,,,,,,,,,2,,,55,0
18960,note_on,30,0,3,,,,,,,,,2,,,65,0
18960,set_tempo,60,1,0,,,,,,1250000,,,,,,,
18960,control_change,0,0,1,,,,,,,,,0,64,127,,
18960,note_on,15,0,1,,,,,,,,,0,,,67,0
18960,note_on,0,0,1,,,,,,,,,0,,,79,49
18960,note_on,0,0,3,,,,,,,,,2,,,48,36
18975,note_on,15,0,1,,,,,,,,,0,,,79,0
18975,note_on,0,0,1,,,,,,,,,0,,,76,49
18982,note_on,7,0,1,,,,,,,,,0,,,74,49
18983,note_on,1,0,1,,,,,,,,,0,,,76,0
18986,note_on,3,0,1,,,,,,,,,0,,,74,0
18986,note_on,0,0,1,,,,,,,,,0,,,76,49
18990,note_on,30,0,3,,,,,,,,,2,,,48,0
18990,note_on,4,0,1,,,,,,,,,0,,,76,0
18990,note_on,0,0,1,,,,,,,,,0,,,74,49
18990,note_on,0,0,3,,,,,,,,,2,,,64,36
18990,note_on,0,0,3,,,,,,,,,2,,,55,36
19005,note_on,15,0,1,,,,,,,,,0,,,74,0
19005,note_on,0,0,1,,,,,,,,,0,,,72,49
19020,note_on,15,0,1,,,,,,,,,0,,,72,0
19020,note_on,0,0,3,,,,,,,,,2,,,55,0
19020,note_on,0,0,1,,,,,,,,,0,,,84,36
19020,note_on,30,0,3,,,,,,,,,2,,,64,0
19020,note_on,0,0,3,,,,,,,,,2,,,64,36
19020,note_on,0,0,3,,,,,,,,,2,,,55,36
19035,note_on,15,0,1,,,,,,,,,0,,,84,0
19035,note_on,0,0,1,,,,,,,,,0,,,88,36
19050,note_on,15,0,1,,,,,,,,,0,,,88,0
19050,note_on,0,0,3,,,,,,,,,2,,,64,36
19050,note_on,0,0,1,,,,,,,,,0,,,89,36
19050,control_change,0,0,3,,,,,,,,,2,64,0,,
19050,note_on,0,0,3,,,,,,,,,2,,,55,0
19050,note_on,30,0,3,,,,,,,,,2,,,64,0
19050,note_on,0,0,3,,,,,,,,,2,,,55,36
19065,note_on,0,0,1,,,,,,,,,0,,,91,36
19065,control_change,0,0,1,,,,,,,,,0,64,0,,
19065,note_on,15,0,1,,,,,,,,,0,,,89,0
19080,note_on,3360,0,4,,,,,,,,,3,,,47,36
19080,note_on,30,0,3,,,,,,,,,2,,,64,0
19080,note_on,0,0,3,,,,,,,,,2,,,55,0
19080,note_on,0,0,1,,,,,,,,,0,,,74,49
19080,note_on,15,0,1,,,,,,,,,0,,,91,0
19095,note_on,15,0,1,,,,,,,,,0,,,74,0
19095,note_on,0,0,1,,,,,,,,,0,,,76,49
19110,note_on,30,0,3,,,,,,,,,2,,,55,36
19110,note_on,0,0,1,,,,,,,,,0,,,76,49
19110,note_on,15,0,1,,,,,,,,,0,,,76,0
19125,note_on,0,0,1,,,,,,,,,0,,,77,49
19125,note_on,15,0,1,,,,,,,,,0,,,76,0
19140,note_on,0,0,3,,,,,,,,,2,,,55,36
19140,note_on,30,0,3,,,,,,,,,2,,,55,0
19140,note_on,0,0,4,,,,,,,,,3,,,48,36
19140,note_on,60,0,4,,,,,,,,,3,,,47,0
19140,note_on,0,0,1,,,,,,,,,0,,,77,49
19140,note_on,15,0,1,,,,,,,,,0,,,77,0
19155,note_on,0,0,1,,,,,,,,,0,,,76,49
19155,note_on,15,0,1,,,,,,,,,0,,,77,0
19170,note_on,0,0,3,,,,,,,,,2,,,57,36
19170,note_on,30,0,3,,,,,,,,,2,,,55,0
19170,note_on,15,0,1,,,,,,,,,0,,,76,0
19170,note_on,0,0,1,,,,,,,,,0,,,76,49
19185,note_on,15,0,1,,,,,,,,,0,,,76,0
19185,note_on,0,0,1,,,,,,,,,0,,,74,49
19200,note_on,0,0,1,,,,,,,,,0,,,74,49
19200,note_on,15,0,1,,,,,,,,,0,,,74,0
19200,note_on,0,0,3,,,,,,,,,2,,,59,36
19200,note_on,30,0,3,,,,,,,,,2,,,57,0
19215,note_on,15,0,1,,,,,,,,,0,,,74,0
19215,note_on,0,0,1,,,,,,,,,0,,,72,49
19230,note_on,30,0,3,,,,,,,,,2,,,59,0
19230,note_on,15,0,1,,,,,,,,,0,,,72,0
19230,note_on,0,0,1,,,,,,,,,0,,,72,49
19230,note_on,0,0,3,,,,,,,,,2,,,60,36
19245,note_on,0,0,1,,,,,,,,,0,,,71,49
19245,note_on,15,0,1,,,,,,,,,0,,,72,0
19260,note_on,0,0,1,,,,,,,,,0,,,71,49
19260,note_on,0,0,4,,,,,,,,,3,,,54,36
19260,note_on,120,0,4,,,,,,,,,3,,,48,0
19260,note_on,0,0,3,,,,,,,,,2,,,62,36
19260,note_on,30,0,3,,,,,,,,,2,,,60,0
19260,note_on,15,0,1,,,,,,,,,0,,,71,0
19275,note_on,0,0,1,,,,,,,,,0,,,69,49
19275,note_on,15,0,1,,,,,,,,,0,,,71,0
19290,note_on,0,0,3,,,,,,,,,2,,,63,36
19290,note_on,0,0,3,,,,,,,,,2,,,60,36
19290,note_on,0,0,1,,,,,,,,,0,,,69,49
19290,note_on,15,0,1,,,,,,,,,0,,,69,0
19290,note_on,30,0,3,,,,,,,,,2,,,62,0
19305,note_on,15,0,1,,,,,,,,,0,,,69,0
19305,note_on,0,0,1,,,,,,,,,0,,,67,49
19320,note_on,30,0,3,,,,,,,,,2,,,63,0
19320,note_on,0,0,3,,,,,,,,,2,,,60,0
19320,note_on,0,0,3,,,,,,,,,2,,,60,36
19320,note_on,60,0,4,,,,,,,,,3,,,54,0
19320,control_change,0,0,3,,,,,,,,,2,64,127,,
19320,note_on,15,0,1,,,,,,,,,0,,,67,0
19320,note_on,0,0,1,,,,,,,,,0,,,67,49
19320,note_on,0,0,3,,,,,,,,,2,,,63,36
19320,note_on,0,0,4,,,,,,,,,3,,,55,36
19335,note_on,15,0,3,,,,,,,,,2,,,63,0
19335,note_on,0,0,3,,,,,,,,,2,,,60,0
19335,note_on,0,0,3,,,,,,,,,2,,,59,36
19335,note_on,0,0,3,,,,,,,,,2,,,62,36
19350,note_on,0,0,3,,,,,,,,,2,,,60,36
19350,note_on,0,0,3,,,,,,,,,2,,,57,36
19350,note_on,0,0,3,,,,,,,,,2,,,59,0
19350,note_on,15,0,3,,,,,,,,,2,,,62,0
19365,note_on,0,0,3,,,,,,,,,2,,,63,36
19365,note_on,0,0,3,,,,,,,,,2,,,57,0
19365,note_on,15,0,3,,,,,,,,,2,,,60,0
19365,note_on,0,0,3,,,,,,,,,2,,,60,36
19380,note_on,0,0,3,,,,,,,,,2,,,59,36
19380,note_on,0,0,3,,,,,,,,,2,,,62,36
19380,note_on,15,0,3,,,,,,,,,2,,,63,0
19380,note_on,0,0,3,,,,,,,,,2,,,60,0
19380,control_change,0,0,3,,,,,,,,,2,64,0,,
19395,note_on,0,0,1,,,,,,,,,0,,,69,49
19395,note_on,75,0,1,,,,,,,,,0,,,67,0
19410,note_on,15,0,1,,,,,,,,,0,,,69,0
19410,note_on,0,0,1,,,,,,,,,0,,,69,49
19425,note_on,15,0,1,,,,,,,,,0,,,69,0
19425,note_on,0,0,1,,,,,,,,,0,,,67,49
19440,note_on,3600,0,2,,,,,,,,,1,,,79,75
19440,note_on,120,0,4,,,,,,,,,3,,,55,0
19440,note_on,15,0,1,,,,,,,,,0,,,67,0
19440,note_on,0,0,3,,,,,,,,,2,,,62,75
19440,note_on,0,0,3,,,,,,,,,2,,,59,0
19440,note_on,0,0,1,,,,,,,,,0,,,81,88
19440,note_on,60,0,3,,,,,,,,,2,,,62,0
19455,note_on,15,0,3,,,,,,,,,2,,,62,0
19455,note_on,0,0,3,,,,,,,,,2,,,61,75
19470,note_on,15,0,3,,,,,,,,,2,,,61,0
19470,note_on,0,0,3,,,,,,,,,2,,,61,75
19485,note_on,15,0,3,,,,,,,,,2,,,61,0
19485,note_on,0,0,3,,,,,,,,,2,,,57,75
19500,control_change,60,0,1,,,,,,,,,0,64,127,,
19500,note_on,0,0,3,,,,,,,,,2,,,62,75
19500,control_change,0,0,3,,,,,,,,,2,64,127,,
19500,note_on,15,0,3,,,,,,,,,2,,,57,0
19500,control_change,60,0,2,,,,,,,,,1,64,127,,
19515,note_on,15,0,3,,,,,,,,,2,,,62,0
19515,note_on,0,0,3,,,,,,,,,2,,,65,75
19530,note_on,15,0,3,,,,,,,,,2,,,65,0
19530,note_on,0,0,3,,,,,,,,,2,,,65,75
19530,note_on,0,0,2,,,,,,,,,1,,,77,75
19530,note_on,30,0,2,,,,,,,,,1,,,79,0
19545,note_on,15,0,3,,,,,,,,,2,,,65,0
19545,note_on,0,0,3,,,,,,,,,2,,,69,75
19560,note_on,15,0,3,,,,,,,,,2,,,69,0
19560,note_on,0,0,3,,,,,,,,,2,,,69,75
19560,note_on,60,0,1,,,,,,,,,0,,,81,0
19560,control_change,30,0,2,,,,,,,,,1,64,0,,
19560,note_on,0,0,1,,,,,,,,,0,,,86,88
19575,note_on,15,0,3,,,,,,,,,2,,,69,0
19575,note_on,0,0,3,,,,,,,,,2,,,65,75
19590,note_on,30,0,1,,,,,,,,,0,,,86,0
19590,control_change,0,0,1,,,,,,,,,0,64,0,,
19590,note_on,0,0,1,,,,,,,,,0,,,80,88
19590,note_on,15,0,3,,,,,,,,,2,,,65,0
19590,control_change,0,0,3,,,,,,,,,2,64,0,,
19590,note_on,0,0,3,,,,,,,,,2,,,64,75
19605,note_on,15,0,3,,,,,,,,,2,,,64,0
19605,note_on,0,0,3,,,,,,,,,2,,,62,75
19620,note_on,15,0,3,,,,,,,,,2,,,62,0
19620,note_on,0,0,3,,,,,,,,,2,,,60,75
19620,note_on,60,0,2,,,,,,,,,1,,,77,0
19620,note_on,0,0,2,,,,,,,,,1,,,77,75
19620,note_on,0,0,1,,,,,,,,,0,,,79,88
19620,note_on,30,0,1,,,,,,,,,0,,,80,0
19635,note_on,15,0,3,,,,,,,,,2,,,60,0
19635,note_on,0,0,3,,,,,,,,,2,,,59,75
19650,note_on,15,0,3,,,,,,,,,2,,,59,0
19650,note_on,0,0,3,,,,,,,,,2,,,59,75
19665,note_on,15,0,3,,,,,,,,,2,,,59,0
19665,note_on,0,0,3,,,,,,,,,2,,,55,75
19680,control_change,60,0,1,,,,,,,,,0,64,127,,
19680,note_on,15,0,3,,,,,,,,,2,,,55,0
19680,control_change,0,0,3,,,,,,,,,2,64,127,,
19680,note_on,0,0,3,,,,,,,,,2,,,60,75
19695,note_on,15,0,3,,,,,,,,,2,,,60,0
19695,note_on,0,0,3,,,,,,,,,2,,,64,75
19710,note_on,15,0,3,,,,,,,,,2,,,64,0
19710,note_on,0,0,3,,,,,,,,,2,,,64,75
19710,note_on,0,0,2,,,,,,,,,1,,,76,75
19710,note_on,90,0,2,,,,,,,,,1,,,77,0
19725,note_on,0,0,3,,,,,,,,,2,,,67,75
19725,note_on,15,0,3,,,,,,,,,2,,,64,0
19740,note_on,15,0,3,,,,,,,,,2,,,67,0
19740,note_on,60,0,1,,,,,,,,,0,,,79,0
19740,note_on,0,0,1,,,,,,,,,0,,,84,88
19740,note_on,0,0,3,,,,,,,,,2,,,65,75
19755,note_on,0,0,3,,,,,,,,,2,,,64,75
19755,note_on,15,0,3,,,,,,,,,2,,,65,0
19770,note_on,15,0,3,,,,,,,,,2,,,64,0
19770,control_change,0,0,1,,,,,,,,,0,64,0,,
19770,note_on,0,0,1,,,,,,,,,0,,,79,88
19770,note_on,30,0,1,,,,,,,,,0,,,84,0
19770,note_on,0,0,3,,,,,,,,,2,,,62,75
19785,note_on,15,0,3,,,,,,,,,2,,,62,0
19785,control_change,0,0,3,,,,,,,,,2,64,0,,
19785,note_on,0,0,3,,,,,,,,,2,,,60,75
19800,note_on,0,0,1,,,,,,,,,0,,,79,88
19800,note_on,30,0,1,,,,,,,,,0,,,79,0
19800,note_on,15,0,3,,,,,,,,,2,,,60,0
19800,note_on,0,0,3,,,,,,,,,2,,,59,75
19800,note_on,90,0,2,,,,,,,,,1,,,76,0
19800,note_on,0,0,2,,,,,,,,,1,,,74,75
19815,note_on,0,0,3,,,,,,,,,2,,,57,75
19815,note_on,15,0,3,,,,,,,,,2,,,59,0
19830,note_on,0,0,2,,,,,,,,,1,,,71,75
19830,note_on,30,0,2,,,,,,,,,1,,,74,0
19830,note_on,15,0,3,,,,,,,,,2,,,57,0
19830,note_on,0,0,3,,,,,,,,,2,,,55,75
19845,note_on,15,0,3,,,,,,,,,2,,,55,0
19845,note_on,0,0,3,,,,,,,,,2,,,53,75
19860,note_on,15,0,3,,,,,,,,,2,,,53,0
19860,note_on,0,0,3,,,,,,,,,2,,,52,75
19860,note_on,30,0,2,,,,,,,,,1,,,71,0
19860,note_on,0,0,2,,,,,,,,,1,,,72,75
19860,note_on,60,0,1,,,,,,,,,0,,,79,0
19860,note_on,0,0,1,,,,,,,,,0,,,79,88
19875,note_on,15,0,3,,,,,,,,,2,,,52,0
19875,note_on,0,0,3,,,,,,,,,2,,,50,75
19890,note_on,0,0,3,,,,,,,,,2,,,48,75
19890,note_on,15,0,3,,,,,,,,,2,,,50,0
19890,note_on,0,0,1,,,,,,,,,0,,,76,88
19890,note_on,30,0,1,,,,,,,,,0,,,79,0
19905,note_on,15,0,3,,,,,,,,,2,,,48,0
19905,note_on,0,0,3,,,,,,,,,2,,,47,75
19920,note_on,15,0,3,,,,,,,,,2,,,47,0
19920,note_on,0,0,3,,,,,,,,,2,,,45,75
19920,note_on,0,0,1,,,,,,,,,0,,,72,88
19920,note_on,30,0,1,,,,,,,,,0,,,76,0
19935,note_on,15,0,3,,,,,,,,,2,,,45,0
19935,note_on,0,0,3,,,,,,,,,2,,,47,75
19950,note_on,0,0,3,,,,,,,,,2,,,48,75
19950,note_on,30,0,1,,,,,,,,,0,,,72,0
19950,note_on,0,0,1,,,,,,,,,0,,,75,88
19950,note_on,0,0,2,,,,,,,,,1,,,67,75
19950,note_on,90,0,2,,,,,,,,,1,,,72,0
19950,note_on,15,0,3,,,,,,,,,2,,,47,0
19965,note_on,15,0,3,,,,,,,,,2,,,48,0
19965,note_on,0,0,3,,,,,,,,,2,,,49,75
19980,note_on,15,0,3,,,,,,,,,2,,,49,0
19980,note_on,0,0,3,,,,,,,,,2,,,50,75
19980,note_on,0,0,1,,,,,,,,,0,,,74,88
19980,note_on,30,0,1,,,,,,,,,0,,,75,0
19980,note_on,30,0,2,,,,,,,,,1,,,67,0
19980,note_on,0,0,2,,,,,,,,,1,,,66,75
19995,note_on,15,0,3,,,,,,,,,2,,,50,0
19995,note_on,0,0,3,,,,,,,,,2,,,48,75
20010,note_on,0,0,1,,,,,,,,,0,,,78,88
20010,note_on,30,0,1,,,,,,,,,0,,,74,0
20010,note_on,30,0,2,,,,,,,,,1,,,66,0
20010,note_on,0,0,2,,,,,,,,,1,,,74,75
20010,note_on,0,0,3,,,,,,,,,2,,,47,75
20010,note_on,15,0,3,,,,,,,,,2,,,48,0
20025,note_on,15,0,2,,,,,,,,,1,,,74,0
20025,note_on,0,0,2,,,,,,,,,1,,,72,75
20025,note_on,0,0,3,,,,,,,,,2,,,45,75
20025,note_on,15,0,3,,,,,,,,,2,,,47,0
20040,note_on,15,0,3,,,,,,,,,2,,,45,0
20040,note_on,15,0,2,,,,,,,,,1,,,72,0
20040,note_on,30,0,1,,,,,,,,,0,,,78,0
20040,note_on,0,0,1,,,,,,,,,0,,,71,88
20040,note_on,0,0,1,,,,,,,,,0,,,79,88
20040,note_on,0,0,3,,,,,,,,,2,,,43,75
20070,note_on,30,0,1,,,,,,,,,0,,,79,0
20070,note_on,0,0,1,,,,,,,,,0,,,71,0
20070,note_on,0,0,1,,,,,,,,,0,,,67,49
20070,note_on,30,0,3,,,,,,,,,2,,,43,0
20085,note_on,15,0,1,,,,,,,,,0,,,67,0
20085,note_on,0,0,1,,,,,,,,,0,,,69,49
20092,note_on,7,0,1,,,,,,,,,0,,,69,49
20093,note_on,1,0,1,,,,,,,,,0,,,69,0
20096,note_on,0,0,1,,,,,,,,,0,,,71,49
20096,note_on,3,0,1,,,,,,,,,0,,,69,0
20100,note_on,0,0,1,,,,,,,,,0,,,69,49
20100,note_on,4,0,1,,,,,,,,,0,,,71,0
20115,note_on,0,0,1,,,,,,,,,0,,,67,49
20115,note_on,15,0,1,,,,,,,,,0,,,69,0
20122,note_on,7,0,1,,,,,,,,,0,,,69,49
20123,note_on,1,0,1,,,,,,,,,0,,,67,0
20126,note_on,0,0,1,,,,,,,,,0,,,71,49
20126,note_on,3,0,1,,,,,,,,,0,,,69,0
20130,note_on,0,0,1,,,,,,,,,0,,,69,49
20130,note_on,4,0,1,,,,,,,,,0,,,71,0
20145,note_on,0,0,1,,,,,,,,,0,,,67,49
20145,note_on,15,0,1,,,,,,,,,0,,,69,0
20160,note_on,0,0,1,,,,,,,,,0,,,67,49
20160,note_on,90,0,3,,,,,,,,,2,,,48,36
20160,note_on,15,0,1,,,,,,,,,0,,,67,0
20175,note_on,15,0,1,,,,,,,,,0,,,67,0
20175,note_on,0,0,1,,,,,,,,,0,,,72,49
20190,note_on,15,0,1,,,,,,,,,0,,,72,0
20190,note_on,0,0,1,,,,,,,,,0,,,74,49
20190,note_on,0,0,3,,,,,,,,,2,,,64,36
20190,note_on,0,0,3,,,,,,,,,2,,,55,36
20190,note_on,30,0,3,,,,,,,,,2,,,48,0
20205,note_on,15,0,1,,,,,,,,,0,,,74,0
20205,note_on,0,0,1,,,,,,,,,0,,,76,49
20220,note_on,0,0,3,,,,,,,,,2,,,47,36
20220,control_change,0,0,3,,,,,,,,,2,64,127,,
20220,note_on,0,0,3,,,,,,,,,2,,,55,0
20220,note_on,30,0,3,,,,,,,,,2,,,64,0
20220,note_on,15,0,1,,,,,,,,,0,,,76,0
20220,control_change,0,0,1,,,,,,,,,0,64,127,,
20220,note_on,0,0,1,,,,,,,,,0,,,76,49
20235,note_on,15,0,1,,,,,,,,,0,,,76,0
20235,note_on,0,0,1,,,,,,,,,0,,,74,49
20250,note_on,0,0,3,,,,,,,,,2,,,65,36
20250,note_on,0,0,3,,,,,,,,,2,,,55,36
20250,note_on,30,0,3,,,,,,,,,2,,,47,0
20250,note_on,0,0,1,,,,,,,,,0,,,74,49
20250,note_on,15,0,1,,,,,,,,,0,,,74,0
20265,note_on,0,0,1,,,,,,,,,0,,,72,49
20265,note_on,15,0,1,,,,,,,,,0,,,74,0
20280,note_on,0,0,3,,,,,,,,,2,,,65,36
20280,note_on,0,0,3,,,,,,,,,2,,,55,36
20280,note_on,0,0,3,,,,,,,,,2,,,55,0
20280,note_on,30,0,3,,,,,,,,,2,,,65,0
20280,note_on,15,0,1,,,,,,,,,0,,,72,0
20280,note_on,0,0,1,,,,,,,,,0,,,72,49
20295,note_on,15,0,1,,,,,,,,,0,,,72,0
20295,note_on,0,0,1,,,,,,,,,0,,,71,49
20310,note_on,0,0,1,,,,,,,,,0,,,71,49
20310,note_on,15,0,1,,,,,,,,,0,,,71,0
20310,note_on,0,0,3,,,,,,,,,2,,,65,36
20310,note_on,30,0,3,,,,,,,,,2,,,65,0
20310,note_on,0,0,3,,,,,,,,,2,,,55,0
20310,control_change,0,0,3,,,,,,,,,2,64,0,,
20310,note_on,0,0,3,,,,,,,,,2,,,55,36
20325,note_on,0,0,1,,,,,,,,,0,,,69,49
20325,control_change,0,0,1,,,,,,,,,0,64,0,,
20325,note_on,15,0,1,,,,,,,,,0,,,71,0
20332,note_on,7,0,1,,,,,,,,,0,,,69,49
20333,note_on,1,0,1,,,,,,,,,0,,,69,0
20336,note_on,0,0,1,,,,,,,,,0,,,71,49
20336,note_on,3,0,1,,,,,,,,,0,,,69,0
20340,note_on,30,0,3,,,,,,,,,2,,,65,0
20340,note_on,0,0,3,,,,,,,,,2,,,50,36
20340,note_on,0,0,3,,,,,,,,,2,,,55,0
20340,note_on,4,0,1,,,,,,,,,0,,,71,0
20340,note_on,0,0,1,,,,,,,,,0,,,69,49
20355,note_on,15,0,1,,,,,,,,,0,,,69,0
20355,note_on,0,0,1,,,,,,,,,0,,,67,49
20370,note_on,0,0,3,,,,,,,,,2,,,55,36
20370,note_on,15,0,1,,,,,,,,,0,,,67,0
20370,note_on,0,0,3,,,,,,,,,2,,,65,36
20370,note_on,0,0,1,,,,,,,,,0,,,69,49
20370,note_on,30,0,3,,,,,,,,,2,,,50,0
20385,note_on,0,0,1,,,,,,,,,0,,,71,49
20385,note_on,15,0,1,,,,,,,,,0,,,69,0
20400,note_on,15,0,1,,,,,,,,,0,,,71,0
20400,control_change,0,0,1,,,,,,,,,0,64,127,,
20400,note_on,0,0,3,,,,,,,,,2,,,55,0
20400,note_on,0,0,1,,,,,,,,,0,,,74,49
20400,control_change,0,0,3,,,,,,,,,2,64,127,,
20400,note_on,0,0,3,,,,,,,,,2,,,48,36
20400,note_on,30,0,3,,,,,,,,,2,,,65,0
20415,note_on,15,0,1,,,,,,,,,0,,,74,0
20415,note_on,0,0,1,,,,,,,,,0,,,72,49
20430,note_on,0,0,1,,,,,,,,,0,,,72,49
20430,note_on,30,0,3,,,,,,,,,2,,,48,0
20430,note_on,0,0,3,,,,,,,,,2,,,55,36
20430,note_on,0,0,3,,,,,,,,,2,,,64,36
20430,note_on,15,0,1,,,,,,,,,0,,,72,0
20445,note_on,15,0,1,,,,,,,,,0,,,72,0
20445,note_on,0,0,1,,,,,,,,,0,,,67,49
20460,note_on,15,0,1,,,,,,,,,0,,,67,0
20460,note_on,0,0,1,,,,,,,,,0,,,67,49
20460,note_on,30,0,3,,,,,,,,,2,,,64,0
20460,note_on,0,0,3,,,,,,,,,2,,,55,0
20460,note_on,0,0,3,,,,,,,,,2,,,55,36
20460,note_on,0,0,3,,,,,,,,,2,,,64,36
20475,note_on,15,0,1,,,,,,,,,0,,,67,0
20475,note_on,0,0,1,,,,,,,,,0,,,64,49
20490,note_on,0,0,1,,,,,,,,,0,,,64,49
20490,note_on,15,0,1,,,,,,,,,0,,,64,0
20490,note_on,0,0,3,,,,,,,,,2,,,55,0
20490,note_on,0,0,3,,,,,,,,,2,,,55,36
20490,control_change,0,0,3,,,,,,,,,2,64,0,,
20490,note_on,30,0,3,,,,,,,,,2,,,64,0
20490,note_on,0,0,3,,,,,,,,,2,,,64,36
20505,note_on,15,0,1,,,,,,,,,0,,,64,0
20505,control_change,0,0,1,,,,,,,,,0,64,0,,
20505,note_on,0,0,1,,,,,,,,,0,,,67,49
20520,note_on,30,0,3,,,,,,,,,2,,,64,0
20520,note_on,0,0,3,,,,,,,,,2,,,52,36
20520,note_on,0,0,3,,,,,,,,,2,,,55,0
20520,note_on,15,0,1,,,,,,,,,0,,,67,0
20520,note_on,0,0,1,,,,,,,,,0,,,67,49
20535,note_on,15,0,1,,,,,,,,,0,,,67,0
20535,note_on,0,0,1,,,,,,,,,0,,,72,49
20550,note_on,15,0,1,,,,,,,,,0,,,72,0
20550,note_on,0,0,1,,,,,,,,,0,,,74,49
20550,note_on,0,0,3,,,,,,,,,2,,,55,36
20550,note_on,0,0,3,,,,,,,,,2,,,64,36
20550,note_on,30,0,3,,,,,,,,,2,,,52,0
20565,note_on,0,0,1,,,,,,,,,0,,,76,49
20565,note_on,15,0,1,,,,,,,,,0,,,74,0
20580,note_on,15,0,1,,,,,,,,,0,,,76,0
20580,note_on,0,0,1,,,,,,,,,0,,,73,36
20580,note_on,0,0,3,,,,,,,,,2,,,53,36
20580,note_on,0,0,3,,,,,,,,,2,,,55,0
20580,note_on,30,0,3,,,,,,,,,2,,,64,0
20584,note_on,4,0,3,,,,,,,,,2,,,53,0
20595,note_on,0,0,1,,,,,,,,,0,,,74,36
20595,note_on,15,0,1,,,,,,,,,0,,,73,0
20610,note_on,0,0,3,,,,,,,,,2,,,69,36
20610,note_on,15,0,1,,,,,,,,,0,,,74,0
20610,note_on,0,0,1,,,,,,,,,0,,,81,36
20610,note_on,26,0,3,,,,,,,,,2,,,65,36
20614,note_on,0,0,3,,,,,,,,,2,,,65,0
20614,note_on,4,0,3,,,,,,,,,2,,,69,0
20625,note_on,15,0,1,,,,,,,,,0,,,81,0
20625,note_on,0,0,1,,,,,,,,,0,,,74,36
20640,note_on,26,0,3,,,,,,,,,2,,,57,36
20640,note_on,15,0,1,,,,,,,,,0,,,74,0
20640,note_on,0,0,1,,,,,,,,,0,,,76,36
20644,note_on,4,0,3,,,,,,,,,2,,,57,0
20655,note_on,0,0,1,,,,,,,,,0,,,74,36
20655,note_on,15,0,1,,,,,,,,,0,,,76,0
20670,note_on,0,0,1,,,,,,,,,0,,,81,36
20670,note_on,15,0,1,,,,,,,,,0,,,74,0
20670,note_on,0,0,3,,,,,,,,,2,,,69,36
20670,note_on,26,0,3,,,,,,,,,2,,,65,36
20674,note_on,4,0,3,,,,,,,,,2,,,69,0
20674,note_on,0,0,3,,,,,,,,,2,,,65,0
20685,note_on,15,0,1,,,,,,,,,0,,,81,0
20685,note_on,0,0,1,,,,,,,,,0,,,74,36
20692,note_on,7,0,1,,,,,,,,,0,,,77,36
20693,note_on,1,0,1,,,,,,,,,0,,,74,0
20696,note_on,0,0,1,,,,,,,,,0,,,79,36
20696,note_on,3,0,1,,,,,,,,,0,,,77,0
20700,note_on,4,0,1,,,,,,,,,0,,,79,0
20700,note_on,26,0,3,,,,,,,,,2,,,57,36
20700,note_on,0,0,1,,,,,,,,,0,,,77,36
20704,note_on,4,0,3,,,,,,,,,2,,,57,0
20715,note_on,15,0,1,,,,,,,,,0,,,77,0
20715,note_on,0,0,1,,,,,,,,,0,,,76,36
20730,note_on,15,0,1,,,,,,,,,0,,,76,0
20730,note_on,0,0,1,,,,,,,,,0,,,81,36
20730,note_on,0,0,3,,,,,,,,,2,,,69,36
20730,note_on,26,0,3,,,,,,,,,2,,,61,36
20734,note_on,0,0,3,,,,,,,,,2,,,61,0
20734,note_on,4,0,3,,,,,,,,,2,,,69,0
20745,note_on,0,0,1,,,,,,,,,0,,,79,36
20745,note_on,15,0,1,,,,,,,,,0,,,81,0
20760,control_change,26,0,3,,,,,,,,,2,64,127,,
20760,note_on,0,0,3,,,,,,,,,2,,,50,36
20760,note_on,0,0,1,,,,,,,,,0,,,76,36
20760,note_on,15,0,1,,,,,,,,,0,,,79,0
20760,control_change,0,0,1,,,,,,,,,0,64,127,,
20790,note_on,0,0,3,,,,,,,,,2,,,69,36
20790,note_on,30,0,3,,,,,,,,,2,,,50,0
20790,control_change,0,0,3,,,,,,,,,2,64,0,,
20790,note_on,0,0,3,,,,,,,,,2,,,62,36
20805,note_on,45,0,1,,,,,,,,,0,,,76,0
20805,note_on,0,0,1,,,,,,,,,0,,,77,36
20812,note_on,7,0,1,,,,,,,,,0,,,79,36
20813,note_on,1,0,1,,,,,,,,,0,,,77,0
20820,note_on,0,0,1,,,,,,,,,0,,,77,36
20820,control_change,0,0,1,,,,,,,,,0,64,0,,
20820,note_on,7,0,1,,,,,,,,,0,,,79,0
20835,note_on,15,0,1,,,,,,,,,0,,,77,0
20835,note_on,0,0,1,,,,,,,,,0,,,80,75
20839,note_on,4,0,1,,,,,,,,,0,,,80,0
20850,note_on,60,0,3,,,,,,,,,2,,,69,0
20850,note_on,0,0,3,,,,,,,,,2,,,62,0
20850,note_on,11,0,1,,,,,,,,,0,,,81,75
20854,note_on,4,0,1,,,,,,,,,0,,,81,0
20865,note_on,11,0,1,,,,,,,,,0,,,83,75
20869,note_on,4,0,1,,,,,,,,,0,,,83,0
20880,note_on,11,0,1,,,,,,,,,0,,,84,75
20880,note_on,30,0,3,,,,,,,,,2,,,48,62
20884,note_on,4,0,1,,,,,,,,,0,,,84,0
20895,note_on,11,0,1,,,,,,,,,0,,,86,75
20899,note_on,4,0,1,,,,,,,,,0,,,86,0
20910,note_on,11,0,1,,,,,,,,,0,,,87,75
20910,note_on,0,0,3,,,,,,,,,2,,,64,62
20910,note_on,0,0,3,,,,,,,,,2,,,57,62
20910,note_on,30,0,3,,,,,,,,,2,,,48,0
20914,note_on,4,0,1,,,,,,,,,0,,,87,0
20925,note_on,11,0,1,,,,,,,,,0,,,88,75
20929,note_on,4,0,1,,,,,,,,,0,,,88,0
20940,control_change,11,0,1,,,,,,,,,0,64,127,,
20940,note_on,0,0,1,,,,,,,,,0,,,88,75
20940,control_change,0,0,3,,,,,,,,,2,64,127,,
20940,note_on,0,0,3,,,,,,,,,2,,,57,0
20940,note_on,0,0,3,,,,,,,,,2,,,47,62
20940,note_on,30,0,3,,,,,,,,,2,,,64,0
20955,note_on,15,0,1,,,,,,,,,0,,,88,0
20955,note_on,0,0,1,,,,,,,,,0,,,89,75
20970,note_on,15,0,1,,,,,,,,,0,,,89,0
20970,note_on,0,0,1,,,,,,,,,0,,,89,75
20970,note_on,0,0,3,,,,,,,,,2,,,65,62
20970,note_on,0,0,3,,,,,,,,,2,,,62,62
20970,note_on,0,0,3,,,,,,,,,2,,,56,62
20970,note_on,30,0,3,,,,,,,,,2,,,47,0
20985,note_on,15,0,1,,,,,,,,,0,,,89,0
20985,note_on,0,0,1,,,,,,,,,0,,,86,75
21000,note_on,15,0,1,,,,,,,,,0,,,86,0
21000,note_on,0,0,1,,,,,,,,,0,,,86,75
21000,note_on,0,0,3,,,,,,,,,2,,,65,62
21000,note_on,0,0,3,,,,,,,,,2,,,62,62
21000,note_on,0,0,3,,,,,,,,,2,,,56,62
21000,note_on,0,0,3,,,,,,,,,2,,,56,0
21000,note_on,0,0,3,,,,,,,,,2,,,62,0
21000,note_on,30,0,3,,,,,,,,,2,,,65,0
21015,note_on,0,0,1,,,,,,,,,0,,,83,75
21015,note_on,15,0,1,,,,,,,,,0,,,86,0
21030,note_on,30,0,3,,,,,,,,,2,,,65,0
21030,note_on,0,0,3,,,,,,,,,2,,,62,0
21030,note_on,0,0,3,,,,,,,,,2,,,56,0
21030,note_on,0,0,3,,,,,,,,,2,,,56,62
21030,note_on,15,0,1,,,,,,,,,0,,,83,0
21030,note_on,0,0,3,,,,,,,,,2,,,65,62
21030,note_on,0,0,3,,,,,,,,,2,,,62,62
21030,note_on,0,0,1,,,,,,,,,0,,,83,75
21045,note_on,15,0,1,,,,,,,,,0,,,83,0
21045,note_on,0,0,1,,,,,,,,,0,,,80,75
21060,note_on,30,0,3,,,,,,,,,2,,,65,0
21060,note_on,15,0,1,,,,,,,,,0,,,80,0
21060,control_change,0,0,1,,,,,,,,,0,64,0,,
21060,note_on,0,0,3,,,,,,,,,2,,,56,0
21060,note_on,0,0,3,,,,,,,,,2,,,62,0
21060,control_change,0,0,3,,,,,,,,,2,64,0,,
21060,note_on,0,0,3,,,,,,,,,2,,,50,62
21060,note_on,0,0,1,,,,,,,,,0,,,80,75
21075,note_on,15,0,1,,,,,,,,,0,,,80,0
21075,note_on,0,0,1,,,,,,,,,0,,,79,75
21090,note_on,0,0,3,,,,,,,,,2,,,59,62
21090,note_on,0,0,1,,,,,,,,,0,,,79,75
21090,note_on,30,0,3,,,,,,,,,2,,,50,0
21090,note_on,0,0,3,,,,,,,,,2,,,55,62
21090,note_on,15,0,1,,,,,,,,,0,,,79,0
21090,note_on,0,0,3,,,,,,,,,2,,,65,62
21105,note_on,15,0,1,,,,,,,,,0,,,79,0
21105,note_on,0,0,1,,,,,,,,,0,,,83,75
21120,note_on,15,0,1,,,,,,,,,0,,,83,0
21120,note_on,0,0,3,,,,,,,,,2,,,48,62
21120,control_change,0,0,3,,,,,,,,,2,64,127,,
21120,note_on,0,0,3,,,,,,,,,2,,,59,0
21120,note_on,30,0,3,,,,,,,,,2,,,65,0
21120,note_on,0,0,3,,,,,,,,,2,,,55,0
21120,control_change,0,0,1,,,,,,,,,0,64,127,,
21120,note_on,0,0,1,,,,,,,,,0,,,86,75
21135,note_on,15,0,1,,,,,,,,,0,,,86,0
21135,note_on,0,0,1,,,,,,,,,0,,,84,75
21150,note_on,30,0,3,,,,,,,,,2,,,48,0
21150,note_on,0,0,3,,,,,,,,,2,,,64,62
21150,note_on,0,0,3,,,,,,,,,2,,,60,62
21150,note_on,0,0,3,,,,,,,,,2,,,55,62
21150,note_on,0,0,1,,,,,,,,,0,,,84,75
21150,note_on,15,0,1,,,,,,,,,0,,,84,0
21165,note_on,15,0,1,,,,,,,,,0,,,84,0
21165,note_on,0,0,1,,,,,,,,,0,,,79,75
21180,note_on,0,0,3,,,,,,,,,2,,,60,0
21180,note_on,0,0,3,,,,,,,,,2,,,64,62
21180,note_on,0,0,3,,,,,,,,,2,,,60,62
21180,note_on,30,0,3,,,,,,,,,2,,,64,0
21180,note_on,0,0,1,,,,,,,,,0,,,79,75
21180,note_on,15,0,1,,,,,,,,,0,,,79,0
21180,note_on,0,0,3,,,,,,,,,2,,,55,0
21180,note_on,0,0,3,,,,,,,,,2,,,55,62
21195,note_on,0,0,1,,,,,,,,,0,,,76,75
21195,note_on,15,0,1,,,,,,,,,0,,,79,0
21210,note_on,0,0,3,,,,,,,,,2,,,60,62
21210,note_on,0,0,1,,,,,,,,,0,,,76,75
21210,note_on,30,0,3,,,,,,,,,2,,,64,0
21210,note_on,0,0,3,,,,,,,,,2,,,60,0
21210,note_on,0,0,3,,,,,,,,,2,,,55,0
21210,note_on,0,0,3,,,,,,,,,2,,,64,62
21210,note_on,15,0,1,,,,,,,,,0,,,76,0
21210,note_on,0,0,3,,,,,,,,,2,,,55,62
21225,note_on,15,0,1,,,,,,,,,0,,,76,0
21225,note_on,0,0,1,,,,,,,,,0,,,72,75
21240,control_change,0,0,1,,,,,,,,,0,64,0,,
21240,note_on,0,0,3,,,,,,,,,2,,,60,0
21240,note_on,0,0,3,,,,,,,,,2,,,55,0
21240,note_on,15,0,1,,,,,,,,,0,,,72,0
21240,note_on,0,0,3,,,,,,,,,2,,,48,75
21240,note_on,0,0,1,,,,,,,,,0,,,72,88
21240,note_on,30,0,3,,,,,,,,,2,,,64,0
21240,control_change,0,0,3,,,,,,,,,2,64,0,,
21255,note_on,15,0,3,,,,,,,,,2,,,48,0
21255,note_on,0,0,3,,,,,,,,,2,,,43,75
21255,note_on,0,0,1,,,,,,,,,0,,,67,88
21255,note_on,15,0,1,,,,,,,,,0,,,72,0
21270,note_on,15,0,3,,,,,,,,,2,,,43,0
21270,note_on,0,0,3,,,,,,,,,2,,,43,75
21270,note_on,0,0,1,,,,,,,,,0,,,67,88
21270,note_on,15,0,1,,,,,,,,,0,,,67,0
21285,note_on,15,0,3,,,,,,,,,2,,,43,0
21285,note_on,0,0,1,,,,,,,,,0,,,63,88
21285,note_on,15,0,1,,,,,,,,,0,,,67,0
21285,note_on,0,0,3,,,,,,,,,2,,,39,75
21300,note_on,0,0,3,,,,,,,,,2,,,39,75
21300,time_signature,2340,1,0,2,8,12,8,,,,,,,,,
21300,note_on,15,0,3,,,,,,,,,2,,,39,0
21300,note_on,15,0,1,,,,,,,,,0,,,63,0
21300,note_on,0,0,1,,,,,,,,,0,,,63,88
21315,note_on,15,0,3,,,,,,,,,2,,,39,0
21315,note_on,0,0,1,,,,,,,,,0,,,62,88
21315,note_on,15,0,1,,,,,,,,,0,,,63,0
21315,note_on,0,0,3,,,,,,,,,2,,,38,75
21330,note_on,0,0,3,,,,,,,,,2,,,38,75
21330,note_on,0,0,1,,,,,,,,,0,,,62,88
21330,note_on,15,0,1,,,,,,,,,0,,,62,0
21330,note_on,15,0,3,,,,,,,,,2,,,38,0
21345,note_on,15,0,3,,,,,,,,,2,,,38,0
21345,note_on,0,0,3,,,,,,,,,2,,,36,75
21345,note_on,0,0,1,,,,,,,,,0,,,60,88
21345,note_on,15,0,1,,,,,,,,,0,,,62,0
21360,note_on,0,0,1,,,,,,,,,0,,,60,88
21360,note_on,15,0,3,,,,,,,,,2,,,36,0
21360,note_on,15,0,1,,,,,,,,,0,,,60,0
21360,note_on,1320,0,2,,,,,,,,,1,,,56,75
21360,set_tempo,60,1,0,,,,,,1363636,,,,,,,
21360,note_on,0,0,3,,,,,,,,,2,,,36,75
21360,note_on,1920,0,4,,,,,,,,,3,,,32,75
21375,note_on,0,0,3,,,,,,,,,2,,,38,75
21375,note_on,15,0,3,,,,,,,,,2,,,36,0
21375,note_on,0,0,1,,,,,,,,,0,,,62,88
21375,note_on,15,0,1,,,,,,,,,0,,,60,0
21390,note_on,15,0,1,,,,,,,,,0,,,62,0
21390,note_on,0,0,3,,,,,,,,,2,,,38,75
21390,note_on,15,0,3,,,,,,,,,2,,,38,0
21390,note_on,0,0,1,,,,,,,,,0,,,62,88
21405,note_on,15,0,1,,,,,,,,,0,,,62,0
21405,note_on,0,0,1,,,,,,,,,0,,,63,88
21405,note_on,15,0,3,,,,,,,,,2,,,38,0
21405,note_on,0,0,3,,,,,,,,,2,,,39,75
21420,note_on,60,0,2,,,,,,,,,1,,,56,0
21420,set_tempo,0,1,0,,,,,,1363636,,,,,,,
21420,time_signature,60,1,0,1,8,12,8,,,,,,,,,
21420,note_on,0,0,4,,,,,,,,,3,,,31,36
21420,note_on,0,0,1,,,,,,,,,0,,,64,49
21420,note_on,15,0,1,,,,,,,,,0,,,63,0
21420,note_on,0,0,2,,,,,,,,,1,,,55,36
21420,note_on,60,0,4,,,,,,,,,3,,,32,0
21420,note_on,15,0,3,,,,,,,,,2,,,39,0
21420,note_on,0,0,2,,,,,,,,,1,,,60,36
21424,note_on,4,0,4,,,,,,,,,3,,,31,0
21435,note_on,0,0,1,,,,,,,,,0,,,67,49
21435,note_on,15,0,1,,,,,,,,,0,,,64,0
21450,note_on,0,0,2,,,,,,,,,1,,,55,0
21450,note_on,30,0,2,,,,,,,,,1,,,60,0
21450,note_on,0,0,2,,,,,,,,,1,,,59,36
21450,note_on,26,0,4,,,,,,,,,3,,,31,36
21450,note_on,15,0,1,,,,,,,,,0,,,67,0
21450,note_on,0,0,1,,,,,,,,,0,,,62,49
21450,note_on,0,0,2,,,,,,,,,1,,,53,36
21454,note_on,4,0,4,,,,,,,,,3,,,31,0
21465,note_on,15,0,1,,,,,,,,,0,,,62,0
21465,note_on,0,0,1,,,,,,,,,0,,,67,49
21480,time_signature,60,1,0,2,8,12,8,,,,,,,,,
21480,note_on,26,0,4,,,,,,,,,3,,,36,36
21480,note_on,0,0,1,,,,,,,,,0,,,60,49
21480,note_on,0,0,1,,,,,,,,,0,,,52,49
21480,control_change,0,0,1,,,,,,,,,0,64,127,,
21480,note_on,0,0,2,,,,,,,,,1,,,53,0
21480,note_on,30,0,2,,,,,,,,,1,,,59,0
21480,set_tempo,0,1,0,,,,,,1363636,,,,,,,
21480,note_on,15,0,1,,,,,,,,,0,,,67,0
21484,note_on,4,0,4,,,,,,,,,3,,,36,0
21510,note_on,0,0,1,,,,,,,,,0,,,52,0
21510,note_on,30,0,1,,,,,,,,,0,,,60,0
21510,note_on,0,0,1,,,,,,,,,0,,,67,49
21525,note_on,15,0,1,,,,,,,,,0,,,67,0
21525,note_on,0,0,1,,,,,,,,,0,,,69,49
21532,note_on,7,0,1,,,,,,,,,0,,,69,49
21533,note_on,1,0,1,,,,,,,,,0,,,69,0
21536,note_on,3,0,1,,,,,,,,,0,,,69,0
21536,note_on,0,0,1,,,,,,,,,0,,,71,49
21540,note_on,4,0,1,,,,,,,,,0,,,71,0
21540,control_change,0,0,1,,,,,,,,,0,64,0,,
21540,note_on,0,0,1,,,,,,,,,0,,,69,49
21540,set_tempo,60,1,0,,,,,,1500000,,,,,,,
21555,note_on,0,0,1,,,,,,,,,0,,,67,49
21555,note_on,15,0,1,,,,,,,,,0,,,69,0
21562,note_on,7,0,1,,,,,,,,,0,,,69,49
21563,note_on,1,0,1,,,,,,,,,0,,,67,0
21566,note_on,0,0,1,,,,,,,,,0,,,71,49
21566,note_on,3,0,1,,,,,,,,,0,,,69,0
21570,note_on,4,0,1,,,,,,,,,0,,,71,0
21570,note_on,0,0,1,,,,,,,,,0,,,69,49
21585,note_on,15,0,1,,,,,,,,,0,,,69,0
21585,note_on,0,0,1,,,,,,,,,0,,,67,49
21600,note_on,0,0,3,,,,,,,,,2,,,50,75
21600,control_change,180,0,3,,,,,,,,,2,64,127,,
21600,set_tempo,0,1,0,,,,,,1363636,,,,,,,
21600,note_on,15,0,1,,,,,,,,,0,,,67,0
21600,control_change,0,0,1,,,,,,,,,0,64,127,,
21600,note_on,0,0,1,,,,,,,,,0,,,81,49
21600,time_signature,60,1,0,3,8,12,8,,,,,,,,,
21615,note_on,15,0,1,,,,,,,,,0,,,81,0
21615,note_on,0,0,1,,,,,,,,,0,,,77,49
21622,note_on,7,0,1,,,,,,,,,0,,,76,49
21623,note_on,1,0,1,,,,,,,,,0,,,77,0
21626,note_on,3,0,1,,,,,,,,,0,,,76,0
21626,note_on,0,0,1,,,,,,,,,0,,,77,49
21630,note_on,0,0,3,,,,,,,,,2,,,57,75
21630,note_on,0,0,3,,,,,,,,,2,,,65,75
21630,note_on,30,0,3,,,,,,,,,2,,,50,0
21630,note_on,0,0,1,,,,,,,,,0,,,76,49
21630,note_on,4,0,1,,,,,,,,,0,,,77,0
21645,note_on,0,0,1,,,,,,,,,0,,,74,49
21645,note_on,15,0,1,,,,,,,,,0,,,76,0
21660,note_on,0,0,3,,,,,,,,,2,,,57,36
21660,note_on,30,0,3,,,,,,,,,2,,,65,0
21660,note_on,0,0,3,,,,,,,,,2,,,57,0
21660,note_on,0,0,3,,,,,,,,,2,,,65,36
21660,note_on,15,0,1,,,,,,,,,0,,,74,0
21660,note_on,0,0,1,,,,,,,,,0,,,86,36
21660,set_tempo,60,1,0,,,,,,1500000,,,,,,,
21675,note_on,0,0,1,,,,,,,,,0,,,89,36
21675,note_on,15,0,1,,,,,,,,,0,,,86,0
21690,note_on,0,0,3,,,,,,,,,2,,,57,0
21690,control_change,0,0,3,,,,,,,,,2,64,0,,
21690,note_on,0,0,3,,,,,,,,,2,,,57,36
21690,note_on,15,0,1,,,,,,,,,0,,,89,0
21690,note_on,0,0,1,,,,,,,,,0,,,91,36
21690,note_on,30,0,3,,,,,,,,,2,,,65,0
21690,note_on,0,0,3,,,,,,,,,2,,,65,36
21705,note_on,15,0,1,,,,,,,,,0,,,91,0
21705,control_change,0,0,1,,,,,,,,,0,64,0,,
21705,note_on,0,0,1,,,,,,,,,0,,,93,36
21720,note_on,0,0,3,,,,,,,,,2,,,47,36
21720,note_on,0,0,1,,,,,,,,,0,,,74,49
21720,note_on,15,0,1,,,,,,,,,0,,,93,0
21720,note_on,30,0,3,,,,,,,,,2,,,65,0
21720,note_on,0,0,3,,,,,,,,,2,,,57,0
21720,set_tempo,60,1,0,,,,,,1666667,,,,,,,
21735,note_on,15,0,1,,,,,,,,,0,,,74,0
21735,note_on,0,0,1,,,,,,,,,0,,,71,49
21750,note_on,0,0,1,,,,,,,,,0,,,69,49
21750,note_on,15,0,1,,,,,,,,,0,,,71,0
21750,note_on,0,0,3,,,,,,,,,2,,,65,36
21750,note_on,30,0,3,,,,,,,,,2,,,47,0
21750,note_on,0,0,3,,,,,,,,,2,,,55,36
21755,note_on,5,0,1,,,,,,,,,0,,,69,0
21755,note_on,0,0,1,,,,,,,,,0,,,71,49
21759,note_on,4,0,1,,,,,,,,,0,,,69,49
21760,note_on,1,0,1,,,,,,,,,0,,,71,0
21764,note_on,4,0,1,,,,,,,,,0,,,69,0
21765,note_on,1,0,1,,,,,,,,,0,,,67,49
21780,control_change,0,0,3,,,,,,,,,2,64,127,,
21780,note_on,0,0,3,,,,,,,,,2,,,55,0
21780,set_tempo,60,1,0,,,,,,1363636,,,,,,,
21780,note_on,30,0,3,,,,,,,,,2,,,65,0
21780,note_on,0,0,1,,,,,,,,,0,,,79,49
21780,note_on,0,0,3,,,,,,,,,2,,,48,36
21780,note_on,15,0,1,,,,,,,,,0,,,67,0
21780,control_change,0,0,1,,,,,,,,,0,64,127,,
21795,note_on,15,0,1,,,,,,,,,0,,,79,0
21795,note_on,0,0,1,,,,,,,,,0,,,76,49
21802,note_on,7,0,1,,,,,,,,,0,,,74,49
21803,note_on,1,0,1,,,,,,,,,0,,,76,0
21806,note_on,0,0,1,,,,,,,,,0,,,76,49
21806,note_on,3,0,1,,,,,,,,,0,,,74,0
21810,note_on,0,0,3,,,,,,,,,2,,,55,36
21810,note_on,0,0,3,,,,,,,,,2,,,64,36
21810,note_on,0,0,1,,,,,,,,,0,,,74,49
21810,note_on,4,0,1,,,,,,,,,0,,,76,0
21810,note_on,30,0,3,,,,,,,,,2,,,48,0
21825,note_on,0,0,1,,,,,,,,,0,,,72,49
21825,note_on,15,0,1,,,,,,,,,0,,,74,0
21840,note_on,30,0,3,,,,,,,,,2,,,64,0
21840,note_on,0,0,3,,,,,,,,,2,,,64,36
21840,note_on,0,0,3,,,,,,,,,2,,,55,36
21840,note_on,0,0,3,,,,,,,,,2,,,55,0
21840,note_on,0,0,1,,,,,,,,,0,,,84,36
21840,note_on,15,0,1,,,,,,,,,0,,,72,0
21855,note_on,15,0,1,,,,,,,,,0,,,84,0
21855,note_on,0,0,1,,,,,,,,,0,,,88,36
21870,note_on,0,0,3,,,,,,,,,2,,,64,36
21870,control_change,0,0,3,,,,,,,,,2,64,0,,
21870,note_on,0,0,3,,,,,,,,,2,,,55,0
21870,note_on,30,0,3,,,,,,,,,2,,,64,0
21870,note_on,15,0,1,,,,,,,,,0,,,88,0
21870,note_on,0,0,1,,,,,,,,,0,,,89,36
21870,note_on,0,0,3,,,,,,,,,2,,,55,36
21885,control_change,0,0,1,,,,,,,,,0,64,0,,
21885,note_on,0,0,1,,,,,,,,,0,,,91,36
21885,note_on,15,0,1,,,,,,,,,0,,,89,0
21900,note_on,416,0,4,,,,,,,,,3,,,47,36
21900,note_on,30,0,3,,,,,,,,,2,,,64,0
21900,note_on,0,0,3,,,,,,,,,2,,,55,0
21900,note_on,15,0,1,,,,,,,,,0,,,91,0
21900,note_on,0,0,1,,,,,,,,,0,,,74,49
21915,note_on,15,0,1,,,,,,,,,0,,,74,0
21915,note_on,0,0,1,,,,,,,,,0,,,76,49
21930,note_on,15,0,1,,,,,,,,,0,,,76,0
21930,note_on,30,0,3,,,,,,,,,2,,,55,36
21930,note_on,0,0,1,,,,,,,,,0,,,76,49
21945,note_on,0,0,1,,,,,,,,,0,,,77,49
21945,note_on,15,0,1,,,,,,,,,0,,,76,0
21960,note_on,15,0,1,,,,,,,,,0,,,77,0
21960,note_on,60,0,4,,,,,,,,,3,,,47,0
21960,note_on,30,0,3,,,,,,,,,2,,,55,0
21960,note_on,0,0,3,,,,,,,,,2,,,55,36
21960,note_on,0,0,4,,,,,,,,,3,,,48,36
21960,note_on,0,0,1,,,,,,,,,0,,,77,49
21975,note_on,15,0,1,,,,,,,,,0,,,77,0
21975,note_on,0,0,1,,,,,,,,,0,,,76,49
21990,note_on,30,0,3,,,,,,,,,2,,,55,0
21990,note_on,0,0,3,,,,,,,,,2,,,57,36
21990,note_on,15,0,1,,,,,,,,,0,,,76,0
21990,note_on,0,0,1,,,,,,,,,0,,,76,49
22005,note_on,15,0,1,,,,,,,,,0,,,76,0
22005,note_on,0,0,1,,,,,,,,,0,,,74,49
22020,note_on,30,0,3,,,,,,,,,2,,,57,0
22020,note_on,15,0,1,,,,,,,,,0,,,74,0
22020,note_on,0,0,1,,,,,,,,,0,,,74,49
22020,note_on,0,0,3,,,,,,,,,2,,,59,36
22035,note_on,0,0,1,,,,,,,,,0,,,72,49
22035,note_on,15,0,1,,,,,,,,,0,,,74,0
22050,note_on,0,0,1,,,,,,,,,0,,,72,49
22050,note_on,15,0,1,,,,,,,,,0,,,72,0
22050,note_on,30,0,3,,,,,,,,,2,,,59,0
22050,note_on,0,0,3,,,,,,,,,2,,,60,36
22065,note_on,0,0,1,,,,,,,,,0,,,71,49
22065,note_on,15,0,1,,,,,,,,,0,,,72,0
22080,note_on,0,0,3,,,,,,,,,2,,,62,36
22080,note_on,0,0,4,,,,,,,,,3,,,54,36
22080,note_on,120,0,4,,,,,,,,,3,,,48,0
22080,note_on,30,0,3,,,,,,,,,2,,,60,0
22080,note_on,15,0,1,,,,,,,,,0,,,71,0
22080,note_on,0,0,1,,,,,,,,,0,,,71,49
22095,note_on,15,0,1,,,,,,,,,0,,,71,0
22095,note_on,0,0,1,,,,,,,,,0,,,69,49
22110,note_on,30,0,3,,,,,,,,,2,,,62,0
22110,note_on,0,0,3,,,,,,,,,2,,,60,36
22110,note_on,0,0,3,,,,,,,,,2,,,63,36
22110,note_on,0,0,1,,,,,,,,,0,,,69,49
22110,note_on,15,0,1,,,,,,,,,0,,,69,0
22125,note_on,15,0,1,,,,,,,,,0,,,69,0
22125,note_on,0,0,1,,,,,,,,,0,,,67,49
22140,note_on,0,0,4,,,,,,,,,3,,,55,36
22140,note_on,0,0,1,,,,,,,,,0,,,67,49
22140,note_on,0,0,3,,,,,,,,,2,,,63,36
22140,note_on,0,0,3,,,,,,,,,2,,,60,36
22140,note_on,15,0,1,,,,,,,,,0,,,67,0
22140,note_on,0,0,3,,,,,,,,,2,,,60,0
22140,note_on,60,0,4,,,,,,,,,3,,,54,0
22140,control_change,0,0,3,,,,,,,,,2,64,127,,
22140,note_on,30,0,3,,,,,,,,,2,,,63,0
22155,note_on,15,0,3,,,,,,,,,2,,,63,0
22155,note_on,0,0,3,,,,,,,,,2,,,60,0
22155,note_on,0,0,3,,,,,,,,,2,,,59,36
22155,note_on,0,0,3,,,,,,,,,2,,,62,36
22170,note_on,0,0,3,,,,,,,,,2,,,57,36
22170,note_on,0,0,3,,,,,,,,,2,,,59,0
22170,note_on,15,0,3,,,,,,,,,2,,,62,0
22170,note_on,0,0,3,,,,,,,,,2,,,60,36
22185,note_on,15,0,3,,,,,,,,,2,,,60,0
22185,note_on,0,0,3,,,,,,,,,2,,,60,36
22185,note_on,0,0,3,,,,,,,,,2,,,63,36
22185,note_on,0,0,3,,,,,,,,,2,,,57,0
22200,note_on,15,0,3,,,,,,,,,2,,,63,0
22200,note_on,0,0,3,,,,,,,,,2,,,60,0
22200,control_change,0,0,3,,,,,,,,,2,64,0,,
22200,note_on,0,0,3,,,,,,,,,2,,,59,36
22200,note_on,0,0,3,,,,,,,,,2,,,62,36
22215,note_on,75,0,1,,,,,,,,,0,,,67,0
22215,note_on,0,0,1,,,,,,,,,0,,,69,49
22230,note_on,15,0,1,,,,,,,,,0,,,69,0
22230,note_on,0,0,1,,,,,,,,,0,,,69,49
22245,note_on,15,0,1,,,,,,,,,0,,,69,0
22245,note_on,0,0,1,,,,,,,,,0,,,67,49
22260,note_on,780,0,2,,,,,,,,,1,,,79,75
22260,note_on,15,0,1,,,,,,,,,0,,,67,0
22260,note_on,0,0,1,,,,,,,,,0,,,81,88
22260,note_on,120,0,4,,,,,,,,,3,,,55,0
22260,note_on,0,0,3,,,,,,,,,2,,,62,75
22260,note_on,60,0,3,,,,,,,,,2,,,62,0
22260,note_on,0,0,3,,,,,,,,,2,,,59,0
22275,note_on,15,0,3,,,,,,,,,2,,,62,0
22275,note_on,0,0,3,,,,,,,,,2,,,61,75
22290,note_on,15,0,3,,,,,,,,,2,,,61,0
22290,note_on,0,0,3,,,,,,,,,2,,,61,75
22305,note_on,0,0,3,,,,,,,,,2,,,57,75
22305,note_on,15,0,3,,,,,,,,,2,,,61,0
22320,note_on,0,0,3,,,,,,,,,2,,,62,75
22320,note_on,15,0,3,,,,,,,,,2,,,57,0
22320,control_change,60,0,2,,,,,,,,,1,64,127,,
22320,control_change,60,0,1,,,,,,,,,0,64,127,,
22320,control_change,0,0,3,,,,,,,,,2,64,127,,
22335,note_on,15,0,3,,,,,,,,,2,,,62,0
22335,note_on,0,0,3,,,,,,,,,2,,,65,75
22350,note_on,0,0,2,,,,,,,,,1,,,77,75
22350,note_on,30,0,2,,,,,,,,,1,,,79,0
22350,note_on,0,0,3,,,,,,,,,2,,,65,75
22350,note_on,15,0,3,,,,,,,,,2,,,65,0
22365,note_on,0,0,3,,,,,,,,,2,,,69,75
22365,note_on,15,0,3,,,,,,,,,2,,,65,0
22380,note_on,0,0,3,,,,,,,,,2,,,69,75
22380,note_on,60,0,1,,,,,,,,,0,,,81,0
22380,control_change,30,0,2,,,,,,,,,1,64,0,,
22380,note_on,15,0,3,,,,,,,,,2,,,69,0
22380,note_on,0,0,1,,,,,,,,,0,,,86,88
22395,note_on,0,0,3,,,,,,,,,2,,,65,75
22395,note_on,15,0,3,,,,,,,,,2,,,69,0
22410,note_on,0,0,3,,,,,,,,,2,,,64,75
22410,note_on,0,0,1,,,,,,,,,0,,,80,88
22410,control_change,0,0,1,,,,,,,,,0,64,0,,
22410,note_on,30,0,1,,,,,,,,,0,,,86,0
22410,note_on,15,0,3,,,,,,,,,2,,,65,0
22410,control_change,0,0,3,,,,,,,,,2,64,0,,
22425,note_on,15,0,3,,,,,,,,,2,,,64,0
22425,note_on,0,0,3,,,,,,,,,2,,,62,75
22440,note_on,15,0,3,,,,,,,,,2,,,62,0
22440,note_on,0,0,3,,,,,,,,,2,,,60,75
22440,note_on,0,0,1,,,,,,,,,0,,,79,88
22440,note_on,60,0,2,,,,,,,,,1,,,77,0
22440,note_on,0,0,2,,,,,,,,,1,,,77,75
22440,note_on,30,0,1,,,,,,,,,0,,,80,0
22455,note_on,15,0,3,,,,,,,,,2,,,60,0
22455,note_on,0,0,3,,,,,,,,,2,,,59,75
22470,note_on,15,0,3,,,,,,,,,2,,,59,0
22470,note_on,0,0,3,,,,,,,,,2,,,59,75
22485,note_on,15,0,3,,,,,,,,,2,,,59,0
22485,note_on,0,0,3,,,,,,,,,2,,,55,75
22500,control_change,60,0,1,,,,,,,,,0,64,127,,
22500,note_on,15,0,3,,,,,,,,,2,,,55,0
22500,control_change,0,0,3,,,,,,,,,2,64,127,,
22500,note_on,0,0,3,,,,,,,,,2,,,60,75
22515,note_on,0,0,3,,,,,,,,,2,,,64,75
22515,note_on,15,0,3,,,,,,,,,2,,,60,0
22530,note_on,0,0,3,,,,,,,,,2,,,64,75
22530,note_on,15,0,3,,,,,,,,,2,,,64,0
22530,note_on,0,0,2,,,,,,,,,1,,,76,75
22530,note_on,90,0,2,,,,,,,,,1,,,77,0
22545,note_on,0,0,3,,,,,,,,,2,,,67,75
22545,note_on,15,0,3,,,,,,,,,2,,,64,0
22560,note_on,0,0,3,,,,,,,,,2,,,65,75
22560,note_on,15,0,3,,,,,,,,,2,,,67,0
22560,note_on,60,0,1,,,,,,,,,0,,,79,0
22560,note_on,0,0,1,,,,,,,,,0,,,84,88
22575,note_on,0,0,3,,,,,,,,,2,,,64,75
22575,note_on,15,0,3,,,,,,,,,2,,,65,0
22590,note_on,15,0,3,,,,,,,,,2,,,64,0
22590,note_on,30,0,1,,,,,,,,,0,,,84,0
22590,control_change,0,0,1,,,,,,,,,0,64,0,,
22590,note_on,0,0,1,,,,,,,,,0,,,79,88
22590,note_on,0,0,3,,,,,,,,,2,,,62,75
22605,note_on,15,0,3,,,,,,,,,2,,,62,0
22605,note_on,0,0,3,,,,,,,,,2,,,60,75
22605,control_change,0,0,3,,,,,,,,,2,64,0,,
22620,note_on,0,0,1,,,,,,,,,0,,,79,88
22620,note_on,90,0,2,,,,,,,,,1,,,76,0
22620,note_on,0,0,2,,,,,,,,,1,,,74,75
22620,note_on,30,0,1,,,,,,,,,0,,,79,0
22620,note_on,0,0,3,,,,,,,,,2,,,59,75
22620,note_on,15,0,3,,,,,,,,,2,,,60,0
22635,note_on,15,0,3,,,,,,,,,2,,,59,0
22635,note_on,0,0,3,,,,,,,,,2,,,57,75
22650,note_on,0,0,2,,,,,,,,,1,,,71,75
22650,note_on,30,0,2,,,,,,,,,1,,,74,0
22650,note_on,0,0,3,,,,,,,,,2,,,55,75
22650,note_on,15,0,3,,,,,,,,,2,,,57,0
22665,note_on,0,0,3,,,,,,,,,2,,,53,75
22665,note_on,15,0,3,,,,,,,,,2,,,55,0
22680,note_on,0,0,2,,,,,,,,,1,,,72,75
22680,note_on,30,0,2,,,,,,,,,1,,,71,0
22680,note_on,0,0,1,,,,,,,,,0,,,79,88
22680,note_on,15,0,3,,,,,,,,,2,,,53,0
22680,note_on,0,0,3,,,,,,,,,2,,,52,75
22680,note_on,60,0,1,,,,,,,,,0,,,79,0
22695,note_on,15,0,3,,,,,,,,,2,,,52,0
22695,note_on,0,0,3,,,,,,,,,2,,,50,75
22710,note_on,15,0,3,,,,,,,,,2,,,50,0
22710,note_on,0,0,3,,,,,,,,,2,,,48,75
22710,note_on,0,0,1,,,,,,,,,0,,,76,88
22710,note_on,30,0,1,,,,,,,,,0,,,79,0
22725,note_on,15,0,3,,,,,,,,,2,,,48,0
22725,note_on,0,0,3,,,,,,,,,2,,,47,75
22740,note_on,15,0,3,,,,,,,,,2,,,47,0
22740,note_on,0,0,3,,,,,,,,,2,,,45,75
22740,note_on,0,0,1,,,,,,,,,0,,,72,88
22740,note_on,30,0,1,,,,,,,,,0,,,76,0
22755,note_on,0,0,3,,,,,,,,,2,,,47,75
22755,note_on,15,0,3,,,,,,,,,2,,,45,0
22770,note_on,0,0,3,,,,,,,,,2,,,48,75
22770,note_on,30,0,1,,,,,,,,,0,,,72,0
22770,note_on,90,0,2,,,,,,,,,1,,,72,0
22770,note_on,0,0,2,,,,,,,,,1,,,67,75
22770,note_on,0,0,1,,,,,,,,,0,,,75,88
22770,note_on,15,0,3,,,,,,,,,2,,,47,0
22785,note_on,15,0,3,,,,,,,,,2,,,48,0
22785,note_on,0,0,3,,,,,,,,,2,,,49,75
22800,note_on,30,0,2,,,,,,,,,1,,,67,0
22800,note_on,30,0,1,,,,,,,,,0,,,75,0
22800,note_on,0,0,1,,,,,,,,,0,,,74,88
22800,note_on,0,0,3,,,,,,,,,2,,,50,75
22800,note_on,0,0,2,,,,,,,,,1,,,66,75
22800,note_on,15,0,3,,,,,,,,,2,,,49,0
22815,note_on,0,0,3,,,,,,,,,2,,,48,75
22815,note_on,15,0,3,,,,,,,,,2,,,50,0
22830,note_on,30,0,1,,,,,,,,,0,,,74,0
22830,note_on,0,0,1,,,,,,,,,0,,,78,88
22830,note_on,0,0,3,,,,,,,,,2,,,47,75
22830,note_on,0,0,2,,,,,,,,,1,,,74,75
22830,note_on,30,0,2,,,,,,,,,1,,,66,0
22830,note_on,15,0,3,,,,,,,,,2,,,48,0
22845,note_on,15,0,2,,,,,,,,,1,,,74,0
22845,note_on,0,0,3,,,,,,,,,2,,,45,75
22845,note_on,15,0,3,,,,,,,,,2,,,47,0
22845,note_on,0,0,2,,,,,,,,,1,,,72,75
22860,note_on,0,0,3,,,,,,,,,2,,,43,75
22860,note_on,15,0,3,,,,,,,,,2,,,45,0
22860,note_on,0,0,1,,,,,,,,,0,,,71,88
22860,note_on,30,0,1,,,,,,,,,0,,,78,0
22860,note_on,0,0,1,,,,,,,,,0,,,79,88
22860,note_on,15,0,2,,,,,,,,,1,,,72,0
22890,note_on,30,0,3,,,,,,,,,2,,,43,0
22890,note_on,0,0,1,,,,,,,,,0,,,67,49
22890,note_on,0,0,1,,,,,,,,,0,,,71,0
22890,note_on,30,0,1,,,,,,,,,0,,,79,0
22905,note_on,15,0,1,,,,,,,,,0,,,67,0
22905,note_on,0,0,1,,,,,,,,,0,,,69,49
22912,note_on,7,0,1,,,,,,,,,0,,,69,49
22913,note_on,1,0,1,,,,,,,,,0,,,69,0
22916,note_on,3,0,1,,,,,,,,,0,,,69,0
22916,note_on,0,0,1,,,,,,,,,0,,,71,49
22920,note_on,4,0,1,,,,,,,,,0,,,71,0
22920,note_on,0,0,1,,,,,,,,,0,,,69,49
22935,note_on,15,0,1,,,,,,,,,0,,,69,0
22935,note_on,0,0,1,,,,,,,,,0,,,67,49
22942,note_on,7,0,1,,,,,,,,,0,,,69,49
22943,note_on,1,0,1,,,,,,,,,0,,,67,0
22946,note_on,3,0,1,,,,,,,,,0,,,69,0
22946,note_on,0,0,1,,,,,,,,,0,,,71,49
22950,note_on,0,0,1,,,,,,,,,0,,,69,49
22950,note_on,4,0,1,,,,,,,,,0,,,71,0
22965,note_on,0,0,1,,,,,,,,,0,,,67,49
22965,note_on,15,0,1,,,,,,,,,0,,,69,0
22980,note_on,0,0,1,,,,,,,,,0,,,67,49
22980,note_on,15,0,1,,,,,,,,,0,,,67,0
22980,note_on,90,0,3,,,,,,,,,2,,,48,36
22995,note_on,15,0,1,,,,,,,,,0,,,67,0
22995,note_on,0,0,1,,,,,,,,,0,,,72,49
23010,note_on,15,0,1,,,,,,,,,0,,,72,0
23010,note_on,0,0,1,,,,,,,,,0,,,74,49
23010,note_on,30,0,3,,,,,,,,,2,,,48,0
23010,note_on,0,0,3,,,,,,,,,2,,,64,36
23010,note_on,0,0,3,,,,,,,,,2,,,55,36
23025,note_on,15,0,1,,,,,,,,,0,,,74,0
23025,note_on,0,0,1,,,,,,,,,0,,,76,49
23040,note_on,0,0,3,,,,,,,,,2,,,47,36
23040,note_on,30,0,3,,,,,,,,,2,,,64,0
23040,control_change,0,0,3,,,,,,,,,2,64,127,,
23040,note_on,0,0,3,,,,,,,,,2,,,55,0
23040,note_on,15,0,1,,,,,,,,,0,,,76,0
23040,control_change,0,0,1,,,,,,,,,0,64,127,,
23040,note_on,0,0,1,,,,,,,,,0,,,76,49
23055,note_on,0,0,1,,,,,,,,,0,,,74,49
23055,note_on,15,0,1,,,,,,,,,0,,,76,0
23070,note_on,0,0,1,,,,,,,,,0,,,74,49
23070,note_on,15,0,1,,,,,,,,,0,,,74,0
23070,note_on,30,0,3,,,,,,,,,2,,,47,0
23070,note_on,0,0,3,,,,,,,,,2,,,55,36
23070,note_on,0,0,3,,,,,,,,,2,,,65,36
23085,note_on,0,0,1,,,,,,,,,0,,,72,49
23085,note_on,15,0,1,,,,,,,,,0,,,74,0
23100,note_on,0,0,3,,,,,,,,,2,,,55,0
23100,note_on,15,0,1,,,,,,,,,0,,,72,0
23100,note_on,0,0,3,,,,,,,,,2,,,55,36
23100,note_on,0,0,3,,,,,,,,,2,,,65,36
23100,note_on,30,0,3,,,,,,,,,2,,,65,0
23100,note_on,0,0,1,,,,,,,,,0,,,72,49
23115,note_on,0,0,1,,,,,,,,,0,,,71,49
23115,note_on,15,0,1,,,,,,,,,0,,,72,0
23130,note_on,0,0,3,,,,,,,,,2,,,55,0
23130,note_on,30,0,3,,,,,,,,,2,,,65,0
23130,note_on,0,0,3,,,,,,,,,2,,,65,36
23130,note_on,0,0,3,,,,,,,,,2,,,55,36
23130,note_on,15,0,1,,,,,,,,,0,,,71,0
23130,note_on,0,0,1,,,,,,,,,0,,,71,49
23130,control_change,0,0,3,,,,,,,,,2,64,0,,
23145,note_on,15,0,1,,,,,,,,,0,,,71,0
23145,control_change,0,0,1,,,,,,,,,0,64,0,,
23145,note_on,0,0,1,,,,,,,,,0,,,69,49
23152,note_on,7,0,1,,,,,,,,,0,,,69,49
23153,note_on,1,0,1,,,,,,,,,0,,,69,0
23156,note_on,0,0,1,,,,,,,,,0,,,71,49
23156,note_on,3,0,1,,,,,,,,,0,,,69,0
23160,note_on,0,0,3,,,,,,,,,2,,,55,0
23160,note_on,0,0,1,,,,,,,,,0,,,69,49
23160,note_on,0,0,3,,,,,,,,,2,,,50,36
23160,note_on,30,0,3,,,,,,,,,2,,,65,0
23160,note_on,4,0,1,,,,,,,,,0,,,71,0
23175,note_on,15,0,1,,,,,,,,,0,,,69,0
23175,note_on,0,0,1,,,,,,,,,0,,,67,49
23190,note_on,0,0,3,,,,,,,,,2,,,65,36
23190,note_on,0,0,3,,,,,,,,,2,,,55,36
23190,note_on,30,0,3,,,,,,,,,2,,,50,0
23190,note_on,0,0,1,,,,,,,,,0,,,69,49
23190,note_on,15,0,1,,,,,,,,,0,,,67,0
23205,note_on,0,0,1,,,,,,,,,0,,,71,49
23205,note_on,15,0,1,,,,,,,,,0,,,69,0
23220,control_change,0,0,1,,,,,,,,,0,64,127,,
23220,note_on,15,0,1,,,,,,,,,0,,,71,0
23220,control_change,0,0,3,,,,,,,,,2,64,127,,
23220,note_on,30,0,3,,,,,,,,,2,,,65,0
23220,note_on,0,0,3,,,,,,,,,2,,,55,0
23220,note_on,0,0,1,,,,,,,,,0,,,74,49
23220,note_on,0,0,3,,,,,,,,,2,,,48,36
23235,note_on,0,0,1,,,,,,,,,0,,,72,49
23235,note_on,15,0,1,,,,,,,,,0,,,74,0
23250,note_on,0,0,3,,,,,,,,,2,,,64,36
23250,note_on,0,0,1,,,,,,,,,0,,,72,49
23250,note_on,15,0,1,,,,,,,,,0,,,72,0
23250,note_on,0,0,3,,,,,,,,,2,,,55,36
23250,note_on,30,0,3,,,,,,,,,2,,,48,0
23265,note_on,0,0,1,,,,,,,,,0,,,67,49
23265,note_on,15,0,1,,,,,,,,,0,,,72,0
23280,note_on,0,0,3,,,,,,,,,2,,,64,36
23280,note_on,0,0,1,,,,,,,,,0,,,67,49
23280,note_on,15,0,1,,,,,,,,,0,,,67,0
23280,note_on,0,0,3,,,,,,,,,2,,,55,36
23280,note_on,30,0,3,,,,,,,,,2,,,64,0
23280,note_on,0,0,3,,,,,,,,,2,,,55,0
23295,note_on,15,0,1,,,,,,,,,0,,,67,0
23295,note_on,0,0,1,,,,,,,,,0,,,64,49
23310,note_on,15,0,1,,,,,,,,,0,,,64,0
23310,note_on,0,0,3,,,,,,,,,2,,,64,36
23310,note_on,0,0,3,,,,,,,,,2,,,55,36
23310,control_change,0,0,3,,,,,,,,,2,64,0,,
23310,note_on,0,0,3,,,,,,,,,2,,,55,0
23310,note_on,30,0,3,,,,,,,,,2,,,64,0
23310,note_on,0,0,1,,,,,,,,,0,,,64,49
23325,note_on,15,0,1,,,,,,,,,0,,,64,0
23325,note_on,0,0,1,,,,,,,,,0,,,67,49
23325,control_change,0,0,1,,,,,,,,,0,64,0,,
23340,note_on,15,0,1,,,,,,,,,0,,,67,0
23340,note_on,0,0,3,,,,,,,,,2,,,52,36
23340,note_on,0,0,3,,,,,,,,,2,,,55,0
23340,note_on,30,0,3,,,,,,,,,2,,,64,0
23340,note_on,0,0,1,,,,,,,,,0,,,67,49
23355,note_on,15,0,1,,,,,,,,,0,,,67,0
23355,note_on,0,0,1,,,,,,,,,0,,,72,49
23370,note_on,30,0,3,,,,,,,,,2,,,52,0
23370,note_on,0,0,3,,,,,,,,,2,,,64,36
23370,note_on,0,0,3,,,,,,,,,2,,,55,36
23370,note_on,0,0,1,,,,,,,,,0,,,74,49
23370,note_on,15,0,1,,,,,,,,,0,,,72,0
23385,note_on,0,0,1,,,,,,,,,0,,,76,49
23385,note_on,15,0,1,,,,,,,,,0,,,74,0
23400,note_on,15,0,1,,,,,,,,,0,,,76,0
23400,note_on,0,0,1,,,,,,,,,0,,,73,36
23400,note_on,30,0,3,,,,,,,,,2,,,64,0
23400,note_on,0,0,3,,,,,,,,,2,,,55,0
23400,note_on,0,0,3,,,,,,,,,2,,,53,36
23404,note_on,4,0,3,,,,,,,,,2,,,53,0
23415,note_on,15,0,1,,,,,,,,,0,,,73,0
23415,note_on,0,0,1,,,,,,,,,0,,,74,36
23430,note_on,26,0,3,,,,,,,,,2,,,65,36
23430,note_on,15,0,1,,,,,,,,,0,,,74,0
23430,note_on,0,0,3,,,,,,,,,2,,,69,36
23430,note_on,0,0,1,,,,,,,,,0,,,81,36
23434,note_on,4,0,3,,,,,,,,,2,,,69,0
23434,note_on,0,0,3,,,,,,,,,2,,,65,0
23445,note_on,0,0,1,,,,,,,,,0,,,74,36
23445,note_on,15,0,1,,,,,,,,,0,,,81,0
23460,note_on,26,0,3,,,,,,,,,2,,,57,36
23460,note_on,15,0,1,,,,,,,,,0,,,74,0
23460,note_on,0,0,1,,,,,,,,,0,,,76,36
23464,note_on,4,0,3,,,,,,,,,2,,,57,0
23475,note_on,15,0,1,,,,,,,,,0,,,76,0
23475,note_on,0,0,1,,,,,,,,,0,,,74,36
23490,note_on,26,0,3,,,,,,,,,2,,,65,36
23490,note_on,0,0,3,,,,,,,,,2,,,69,36
23490,note_on,15,0,1,,,,,,,,,0,,,74,0
23490,note_on,0,0,1,,,,,,,,,0,,,81,36
23494,note_on,4,0,3,,,,,,,,,2,,,69,0
23494,note_on,0,0,3,,,,,,,,,2,,,65,0
23505,note_on,15,0,1,,,,,,,,,0,,,81,0
23505,note_on,0,0,1,,,,,,,,,0,,,74,36
23512,note_on,7,0,1,,,,,,,,,0,,,77,36
23513,note_on,1,0,1,,,,,,,,,0,,,74,0
23516,note_on,0,0,1,,,,,,,,,0,,,79,36
23516,note_on,3,0,1,,,,,,,,,0,,,77,0
23520,note_on,26,0,3,,,,,,,,,2,,,57,36
23520,note_on,0,0,1,,,,,,,,,0,,,77,36
23520,note_on,4,0,1,,,,,,,,,0,,,79,0
23524,note_on,4,0,3,,,,,,,,,2,,,57,0
23535,note_on,0,0,1,,,,,,,,,0,,,76,36
23535,note_on,15,0,1,,,,,,,,,0,,,77,0
23550,note_on,0,0,3,,,,,,,,,2,,,69,36
23550,note_on,0,0,1,,,,,,,,,0,,,81,36
23550,note_on,15,0,1,,,,,,,,,0,,,76,0
23550,note_on,26,0,3,,,,,,,,,2,,,61,36
23554,note_on,4,0,3,,,,,,,,,2,,,69,0
23554,note_on,0,0,3,,,,,,,,,2,,,61,0
23565,note_on,0,0,1,,,,,,,,,0,,,79,36
23565,note_on,15,0,1,,,,,,,,,0,,,81,0
23580,note_on,15,0,1,,,,,,,,,0,,,79,0
23580,control_change,0,0,1,,,,,,,,,0,64,127,,
23580,note_on,0,0,1,,,,,,,,,0,,,76,36
23580,note_on,0,0,3,,,,,,,,,2,,,50,36
23580,control_change,26,0,3,,,,,,,,,2,64,127,,
23610,note_on,0,0,3,,,,,,,,,2,,,69,36
23610,control_change,0,0,3,,,,,,,,,2,64,0,,
23610,note_on,0,0,3,,,,,,,,,2,,,62,36
23610,note_on,30,0,3,,,,,,,,,2,,,50,0
23625,note_on,0,0,1,,,,,,,,,0,,,77,36
23625,note_on,45,0,1,,,,,,,,,0,,,76,0
23632,note_on,7,0,1,,,,,,,,,0,,,79,36
23633,note_on,1,0,1,,,,,,,,,0,,,77,0
23640,control_change,0,0,1,,,,,,,,,0,64,0,,
23640,note_on,7,0,1,,,,,,,,,0,,,79,0
23640,note_on,0,0,1,,,,,,,,,0,,,77,36
23655,note_on,15,0,1,,,,,,,,,0,,,77,0
23655,note_on,0,0,1,,,,,,,,,0,,,80,75
23659,note_on,4,0,1,,,,,,,,,0,,,80,0
23670,note_on,0,0,3,,,,,,,,,2,,,62,0
23670,note_on,60,0,3,,,,,,,,,2,,,69,0
23670,note_on,11,0,1,,,,,,,,,0,,,81,75
23674,note_on,4,0,1,,,,,,,,,0,,,81,0
23685,note_on,11,0,1,,,,,,,,,0,,,83,75
23689,note_on,4,0,1,,,,,,,,,0,,,83,0
23700,note_on,30,0,3,,,,,,,,,2,,,48,62
23700,note_on,11,0,1,,,,,,,,,0,,,84,75
23704,note_on,4,0,1,,,,,,,,,0,,,84,0
23715,note_on,11,0,1,,,,,,,,,0,,,86,75
23719,note_on,4,0,1,,,,,,,,,0,,,86,0
23730,note_on,0,0,3,,,,,,,,,2,,,57,62
23730,note_on,0,0,3,,,,,,,,,2,,,64,62
23730,note_on,11,0,1,,,,,,,,,0,,,87,75
23730,note_on,30,0,3,,,,,,,,,2,,,48,0
23734,note_on,4,0,1,,,,,,,,,0,,,87,0
23745,note_on,11,0,1,,,,,,,,,0,,,88,75
23749,note_on,4,0,1,,,,,,,,,0,,,88,0
23760,note_on,30,0,3,,,,,,,,,2,,,64,0
23760,note_on,0,0,3,,,,,,,,,2,,,57,0
23760,note_on,0,0,1,,,,,,,,,0,,,88,75
23760,control_change,11,0,1,,,,,,,,,0,64,127,,
23760,control_change,0,0,3,,,,,,,,,2,64,127,,
23760,note_on,0,0,3,,,,,,,,,2,,,47,62
23775,note_on,0,0,1,,,,,,,,,0,,,89,75
23775,note_on,15,0,1,,,,,,,,,0,,,88,0
23790,note_on,0,0,3,,,,,,,,,2,,,56,62
23790,note_on,0,0,3,,,,,,,,,2,,,62,62
23790,note_on,0,0,3,,,,,,,,,2,,,65,62
23790,note_on,0,0,1,,,,,,,,,0,,,89,75
23790,note_on,15,0,1,,,,,,,,,0,,,89,0
23790,note_on,30,0,3,,,,,,,,,2,,,47,0
23805,note_on,15,0,1,,,,,,,,,0,,,89,0
23805,note_on,0,0,1,,,,,,,,,0,,,86,75
23820,note_on,0,0,3,,,,,,,,,2,,,62,62
23820,note_on,30,0,3,,,,,,,,,2,,,65,0
23820,note_on,0,0,3,,,,,,,,,2,,,62,0
23820,note_on,0,0,3,,,,,,,,,2,,,56,0
23820,note_on,0,0,3,,,,,,,,,2,,,65,62
23820,note_on,0,0,3,,,,,,,,,2,,,56,62
23820,note_on,15,0,1,,,,,,,,,0,,,86,0
23820,note_on,0,0,1,,,,,,,,,0,,,86,75
23835,note_on,15,0,1,,,,,,,,,0,,,86,0
23835,note_on,0,0,1,,,,,,,,,0,,,83,75
23850,note_on,0,0,3,,,,,,,,,2,,,65,62
23850,note_on,0,0,3,,,,,,,,,2,,,62,62
23850,note_on,0,0,3,,,,,,,,,2,,,56,62
23850,note_on,0,0,3,,,,,,,,,2,,,56,0
23850,note_on,30,0,3,,,,,,,,,2,,,65,0
23850,note_on,0,0,3,,,,,,,,,2,,,62,0
23850,note_on,15,0,1,,,,,,,,,0,,,83,0
23850,note_on,0,0,1,,,,,,,,,0,,,83,75
23865,note_on,15,0,1,,,,,,,,,0,,,83,0
23865,note_on,0,0,1,,,,,,,,,0,,,80,75
23880,note_on,0,0,3,,,,,,,,,2,,,50,62
23880,control_change,0,0,3,,,,,,,,,2,64,0,,
23880,note_on,0,0,3,,,,,,,,,2,,,56,0
23880,note_on,0,0,3,,,,,,,,,2,,,62,0
23880,note_on,15,0,1,,,,,,,,,0,,,80,0
23880,control_change,0,0,1,,,,,,,,,0,64,0,,
23880,note_on,0,0,1,,,,,,,,,0,,,80,75
23880,note_on,30,0,3,,,,,,,,,2,,,65,0
23895,note_on,0,0,1,,,,,,,,,0,,,79,75
23895,note_on,15,0,1,,,,,,,,,0,,,80,0
23910,note_on,30,0,3,,,,,,,,,2,,,50,0
23910,note_on,0,0,3,,,,,,,,,2,,,55,62
23910,note_on,0,0,1,,,,,,,,,0,,,79,75
23910,note_on,15,0,1,,,,,,,,,0,,,79,0
23910,note_on,0,0,3,,,,,,,,,2,,,59,62
23910,note_on,0,0,3,,,,,,,,,2,,,65,62
23925,note_on,0,0,1,,,,,,,,,0,,,83,75
23925,note_on,15,0,1,,,,,,,,,0,,,79,0
23940,note_on,0,0,1,,,,,,,,,0,,,86,75
23940,note_on,0,0,3,,,,,,,,,2,,,48,62
23940,note_on,30,0,3,,,,,,,,,2,,,65,0
23940,control_change,0,0,3,,,,,,,,,2,64,127,,
23940,note_on,0,0,3,,,,,,,,,2,,,55,0
23940,note_on,15,0,1,,,,,,,,,0,,,83,0
23940,control_change,0,0,1,,,,,,,,,0,64,127,,
23940,note_on,0,0,3,,,,,,,,,2,,,59,0
23955,note_on,0,0,1,,,,,,,,,0,,,84,75
23955,note_on,15,0,1,,,,,,,,,0,,,86,0
23970,note_on,0,0,3,,,,,,,,,2,,,55,62
23970,note_on,30,0,3,,,,,,,,,2,,,48,0
23970,note_on,0,0,3,,,,,,,,,2,,,64,62
23970,note_on,0,0,1,,,,,,,,,0,,,84,75
23970,note_on,15,0,1,,,,,,,,,0,,,84,0
23970,note_on,0,0,3,,,,,,,,,2,,,60,62
23985,note_on,15,0,1,,,,,,,,,0,,,84,0
23985,note_on,0,0,1,,,,,,,,,0,,,79,75
24000,note_on,30,0,3,,,,,,,,,2,,,64,0
24000,note_on,0,0,3,,,,,,,,,2,,,60,0
24000,note_on,0,0,3,,,,,,,,,2,,,55,0
24000,note_on,0,0,3,,,,,,,,,2,,,55,62
24000,note_on,0,0,3,,,,,,,,,2,,,64,62
24000,note_on,0,0,1,,,,,,,,,0,,,79,75
24000,note_on,15,0,1,,,,,,,,,0,,,79,0
24000,note_on,0,0,3,,,,,,,,,2,,,60,62
24015,note_on,0,0,1,,,,,,,,,0,,,76,75
24015,note_on,15,0,1,,,,,,,,,0,,,79,0
24030,note_on,0,0,3,,,,,,,,,2,,,55,62
24030,note_on,0,0,3,,,,,,,,,2,,,60,0
24030,note_on,0,0,3,,,,,,,,,2,,,55,0
24030,note_on,15,0,1,,,,,,,,,0,,,76,0
24030,note_on,0,0,1,,,,,,,,,0,,,76,75
24030,note_on,0,0,3,,,,,,,,,2,,,60,62
24030,note_on,30,0,3,,,,,,,,,2,,,64,0
24030,note_on,0,0,3,,,,,,,,,2,,,64,62
24045,note_on,15,0,1,,,,,,,,,0,,,76,0
24045,note_on,0,0,1,,,,,,,,,0,,,72,75
24060,note_on,0,0,3,,,,,,,,,2,,,48,75
24060,control_change,0,0,1,,,,,,,,,0,64,0,,
24060,control_change,0,0,3,,,,,,,,,2,64,0,,
24060,note_on,0,0,3,,,,,,,,,2,,,55,0
24060,note_on,0,0,3,,,,,,,,,2,,,60,0
24060,note_on,30,0,3,,,,,,,,,2,,,64,0
24060,note_on,0,0,1,,,,,,,,,0,,,72,88
24060,note_on,15,0,1,,,,,,,,,0,,,72,0
24075,note_on,0,0,3,,,,,,,,,2,,,43,75
24075,note_on,15,0,1,,,,,,,,,0,,,72,0
24075,note_on,15,0,3,,,,,,,,,2,,,48,0
24075,note_on,0,0,1,,,,,,,,,0,,,67,88
24090,note_on,0,0,1,,,,,,,,,0,,,67,88
24090,note_on,0,0,3,,,,,,,,,2,,,43,75
24090,note_on,15,0,1,,,,,,,,,0,,,67,0
24090,note_on,15,0,3,,,,,,,,,2,,,43,0
24105,note_on,0,0,3,,,,,,,,,2,,,39,75
24105,note_on,15,0,3,,,,,,,,,2,,,43,0
24105,note_on,15,0,1,,,,,,,,,0,,,67,0
24105,note_on,0,0,1,,,,,,,,,0,,,63,88
24120,note_on,0,0,3,,,,,,,,,2,,,39,75
24120,note_on,15,0,3,,,,,,,,,2,,,39,0
24120,time_signature,2340,1,0,2,8,12,8,,,,,,,,,
24120,note_on,15,0,1,,,,,,,,,0,,,63,0
24120,note_on,0,0,1,,,,,,,,,0,,,63,88
24135,note_on,15,0,1,,,,,,,,,0,,,63,0
24135,note_on,0,0,1,,,,,,,,,0,,,62,88
24135,note_on,15,0,3,,,,,,,,,2,,,39,0
24135,note_on,0,0,3,,,,,,,,,2,,,38,75
24150,note_on,15,0,3,,,,,,,,,2,,,38,0
24150,note_on,15,0,1,,,,,,,,,0,,,62,0
24150,note_on,0,0,1,,,,,,,,,0,,,62,88
24150,note_on,0,0,3,,,,,,,,,2,,,38,75
24165,note_on,0,0,3,,,,,,,,,2,,,36,75
24165,note_on,15,0,3,,,,,,,,,2,,,38,0
24165,note_on,15,0,1,,,,,,,,,0,,,62,0
24165,note_on,0,0,1,,,,,,,,,0,,,60,88
24180,note_on,15,0,3,,,,,,,,,2,,,36,0
24180,note_on,0,0,3,,,,,,,,,2,,,36,75
24180,note_on,15,0,1,,,,,,,,,0,,,60,0
24180,note_on,0,0,1,,,,,,,,,0,,,60,88
24180,note_on,1920,0,4,,,,,,,,,3,,,32,75
24180,note_on,1320,0,2,,,,,,,,,1,,,56,75
24180,set_tempo,60,1,0,,,,,,1500000,,,,,,,
24195,note_on,0,0,3,,,,,,,,,2,,,38,75
24195,note_on,0,0,1,,,,,,,,,0,,,62,88
24195,note_on,15,0,1,,,,,,,,,0,,,60,0
24195,note_on,15,0,3,,,,,,,,,2,,,36,0
24210,note_on,15,0,3,,,,,,,,,2,,,38,0
24210,note_on,0,0,3,,,,,,,,,2,,,38,75
24210,note_on,0,0,1,,,,,,,,,0,,,62,88
24210,note_on,15,0,1,,,,,,,,,0,,,62,0
24225,note_on,15,0,1,,,,,,,,,0,,,62,0
24225,note_on,15,0,3,,,,,,,,,2,,,38,0
24225,note_on,0,0,1,,,,,,,,,0,,,63,88
24225,note_on,0,0,3,,,,,,,,,2,,,39,75
24240,note_on,0,0,2,,,,,,,,,1,,,60,36
24240,note_on,15,0,3,,,,,,,,,2,,,39,0
24240,note_on,0,0,4,,,,,,,,,3,,,31,36
24240,note_on,60,0,4,,,,,,,,,3,,,32,0
24240,note_on,60,0,2,,,,,,,,,1,,,56,0
24240,note_on,0,0,2,,,,,,,,,1,,,55,36
24240,note_on,15,0,1,,,,,,,,,0,,,63,0
24240,set_tempo,0,1,0,,,,,,1363636,,,,,,,
24240,time_signature,60,1,0,1,8,12,8,,,,,,,,,
24240,note_on,0,0,1,,,,,,,,,0,,,64,49
24244,note_on,4,0,4,,,,,,,,,3,,,31,0
24255,note_on,15,0,1,,,,,,,,,0,,,64,0
24255,note_on,0,0,1,,,,,,,,,0,,,67,49
24270,note_on,0,0,2,,,,,,,,,1,,,55,0
24270,note_on,26,0,4,,,,,,,,,3,,,31,36
24270,note_on,0,0,2,,,,,,,,,1,,,59,36
24270,note_on,0,0,2,,,,,,,,,1,,,53,36
24270,note_on,30,0,2,,,,,,,,,1,,,60,0
24270,note_on,0,0,1,,,,,,,,,0,,,62,49
24270,note_on,15,0,1,,,,,,,,,0,,,67,0
24274,note_on,4,0,4,,,,,,,,,3,,,31,0
24285,note_on,0,0,1,,,,,,,,,0,,,67,49
24285,note_on,15,0,1,,,,,,,,,0,,,62,0
24300,note_on,0,0,1,,,,,,,,,0,,,60,49
24300,note_on,30,0,2,,,,,,,,,1,,,59,0
24300,note_on,0,0,2,,,,,,,,,1,,,53,0
24300,time_signature,60,1,0,3,8,12,8,,,,,,,,,
24300,note_on,0,0,1,,,,,,,,,0,,,52,49
24300,set_tempo,0,1,0,,,,,,1363636,,,,,,,
24300,note_on,15,0,1,,,,,,,,,0,,,67,0
24300,note_on,26,0,4,,,,,,,,,3,,,36,36
24304,note_on,4,0,4,,,,,,,,,3,,,36,0
24330,note_on,30,0,2,,,,,,,,,1,,,67,36
24330,note_on,30,0,1,,,,,,,,,0,,,60,0
24330,note_on,0,0,1,,,,,,,,,0,,,52,0
24360,set_tempo,60,1,0,,,,,,1500000,,,,,,,
24360,note_on,30,0,2,,,,,,,,,1,,,67,0
24360,note_on,0,0,2,,,,,,,,,1,,,67,36
24390,note_on,30,0,2,,,,,,,,,1,,,67,0
24390,note_on,0,0,2,,,,,,,,,1,,,67,36
24420,note_on,116,0,4,,,,,,,,,3,,,60,36
24420,set_tempo,60,1,0,,,,,,1666667,,,,,,,
24420,note_on,0,0,2,,,,,,,,,1,,,67,36
24420,note_on,90,0,1,,,,,,,,,0,,,75,49
24420,note_on,30,0,2,,,,,,,,,1,,,67,0
24426,note_on,6,0,4,,,,,,,,,3,,,60,0
24450,note_on,30,0,2,,,,,,,,,1,,,67,0
24450,note_on,0,0,2,,,,,,,,,1,,,67,36
24480,note_on,60,0,1,,,,,,,,,0,,,75,0
24480,note_on,30,0,2,,,,,,,,,1,,,67,0
24480,control_change,0,0,2,,,,,,,,,1,64,127,,
24480,note_on,0,0,2,,,,,,,,,1,,,67,36
24480,control_change,240,0,3,,,,,,,,,2,64,127,,
24480,control_change,0,0,1,,,,,,,,,0,64,127,,
24480,note_on,0,0,1,,,,,,,,,0,,,77,49
24480,note_on,0,0,3,,,,,,,,,2,,,62,49
24480,set_tempo,0,1,0,,,,,,1363636,,,,,,,
24480,key_signature,60,1,0,,,,,Eb,,,,,,,,
24510,note_on,0,0,2,,,,,,,,,1,,,67,36
24510,note_on,30,0,2,,,,,,,,,1,,,67,0
24525,note_on,0,0,1,,,,,,,,,0,,,79,49
24525,note_on,45,0,1,,,,,,,,,0,,,77,0
24525,note_on,45,0,3,,,,,,,,,2,,,62,0
24525,note_on,0,0,3,,,,,,,,,2,,,63,49
24540,set_tempo,60,1,0,,,,,,1500000,,,,,,,
24540,note_on,0,0,2,,,,,,,,,1,,,67,36
24540,control_change,0,0,2,,,,,,,,,1,64,0,,
24540,note_on,0,0,3,,,,,,,,,2,,,65,49
24540,note_on,30,0,2,,,,,,,,,1,,,67,0
24540,note_on,15,0,3,,,,,,,,,2,,,63,0
24540,note_on,15,0,1,,,,,,,,,0,,,79,0
24540,control_change,0,0,1,,,,,,,,,0,64,0,,
24540,note_on,0,0,1,,,,,,,,,0,,,80,49
24540,control_change,0,0,3,,,,,,,,,2,64,0,,
24570,note_on,30,0,3,,,,,,,,,2,,,65,0
24570,note_on,30,0,2,,,,,,,,,1,,,67,0
24570,note_on,0,0,2,,,,,,,,,1,,,67,36
24570,note_on,30,0,1,,,,,,,,,0,,,80,0
24600,note_on,30,0,2,,,,,,,,,1,,,67,0
24600,note_on,0,0,2,,,,,,,,,1,,,67,36
24600,set_tempo,60,1,0,,,,,,1666667,,,,,,,
24600,note_on,30,0,1,,,,,,,,,0,,,74,49
24600,note_on,30,0,3,,,,,,,,,2,,,59,49
24606,note_on,6,0,1,,,,,,,,,0,,,74,0
24606,note_on,6,0,3,,,,,,,,,2,,,59,0
24630,note_on,30,0,2,,,,,,,,,1,,,67,0
24630,note_on,0,0,2,,,,,,,,,1,,,67,36
24660,note_on,0,0,3,,,,,,,,,2,,,60,49
24660,control_change,54,0,3,,,,,,,,,2,64,127,,
24660,note_on,0,0,1,,,,,,,,,0,,,75,49
24660,note_on,0,0,2,,,,,,,,,1,,,67,36
24660,control_change,54,0,1,,,,,,,,,0,64,127,,
24660,set_tempo,60,1,0,,,,,,1250000,,,,,,,
24660,note_on,30,0,2,,,,,,,,,1,,,67,0
24660,control_change,0,0,2,,,,,,,,,1,64,127,,
24690,note_on,30,0,2,,,,,,,,,1,,,67,0
24690,note_on,0,0,2,,,,,,,,,1,,,67,36
24705,note_on,0,0,3,,,,,,,,,2,,,62,49
24705,note_on,45,0,3,,,,,,,,,2,,,60,0
24705,note_on,0,0,1,,,,,,,,,0,,,77,49
24705,note_on,45,0,1,,,,,,,,,0,,,75,0
24720,note_on,30,0,2,,,,,,,,,1,,,67,0
24720,control_change,0,0,2,,,,,,,,,1,64,0,,
24720,note_on,0,0,2,,,,,,,,,1,,,67,36
24720,note_on,15,0,1,,,,,,,,,0,,,77,0
24720,control_change,0,0,3,,,,,,,,,2,64,0,,
24720,note_on,0,0,3,,,,,,,,,2,,,63,49
24720,note_on,0,0,1,,,,,,,,,0,,,79,49
24720,control_change,0,0,1,,,,,,,,,0,64,0,,
24720,note_on,15,0,3,,,,,,,,,2,,,62,0
24750,note_on,30,0,1,,,,,,,,,0,,,79,0
24750,note_on,30,0,3,,,,,,,,,2,,,63,0
24750,note_on,0,0,2,,,,,,,,,1,,,67,36
24750,note_on,30,0,2,,,,,,,,,1,,,67,0
24780,note_on,30,0,3,,,,,,,,,2,,,51,49
24780,note_on,0,0,2,,,,,,,,,1,,,67,36
24780,note_on,30,0,2,,,,,,,,,1,,,67,0
24780,note_on,30,0,1,,,,,,,,,0,,,72,49
24786,note_on,6,0,1,,,,,,,,,0,,,72,0
24810,note_on,30,0,2,,,,,,,,,1,,,67,0
24810,note_on,0,0,2,,,,,,,,,1,,,67,36
24825,note_on,0,0,3,,,,,,,,,2,,,53,49
24825,note_on,45,0,3,,,,,,,,,2,,,51,0
24832,note_on,7,0,3,,,,,,,,,2,,,55,49
24833,note_on,1,0,3,,,,,,,,,2,,,53,0
24840,control_change,54,0,1,,,,,,,,,0,64,127,,
24840,note_on,0,0,1,,,,,,,,,0,,,73,49
24840,set_tempo,180,1,0,,,,,,1250000,,,,,,,
24840,note_on,0,0,2,,,,,,,,,1,,,67,36
24840,note_on,30,0,2,,,,,,,,,1,,,67,0
24840,note_on,0,0,3,,,,,,,,,2,,,56,49
24840,note_on,7,0,3,,,,,,,,,2,,,55,0
24855,note_on,0,0,1,,,,,,,,,0,,,75,49
24855,note_on,15,0,1,,,,,,,,,0,,,73,0
24870,note_on,15,0,1,,,,,,,,,0,,,75,0
24870,note_on,0,0,1,,,,,,,,,0,,,77,49
24870,note_on,0,0,2,,,,,,,,,1,,,65,36
24870,note_on,30,0,2,,,,,,,,,1,,,67,0
24885,control_change,0,0,1,,,,,,,,,0,64,0,,
24885,note_on,15,0,1,,,,,,,,,0,,,77,0
24885,note_on,0,0,1,,,,,,,,,0,,,73,49
24900,note_on,0,0,1,,,,,,,,,0,,,72,49
24900,note_on,15,0,1,,,,,,,,,0,,,73,0
24900,note_on,0,0,2,,,,,,,,,1,,,65,36
24900,note_on,60,0,3,,,,,,,,,2,,,56,0
24900,note_on,0,0,3,,,,,,,,,2,,,55,49
24900,note_on,30,0,2,,,,,,,,,1,,,65,0
24930,note_on,0,0,2,,,,,,,,,1,,,63,36
24930,note_on,30,0,2,,,,,,,,,1,,,65,0
24960,note_on,60,0,1,,,,,,,,,0,,,72,0
24960,note_on,0,0,1,,,,,,,,,0,,,71,49
24960,note_on,60,0,3,,,,,,,,,2,,,55,0
24960,note_on,0,0,3,,,,,,,,,2,,,43,49
24960,note_on,0,0,2,,,,,,,,,1,,,63,36
24960,note_on,30,0,2,,,,,,,,,1,,,63,0
24960,note_on,0,0,3,,,,,,,,,2,,,53,49
24990,note_on,0,0,2,,,,,,,,,1,,,62,36
24990,note_on,30,0,2,,,,,,,,,1,,,63,0
25020,control_change,0,0,1,,,,,,,,,0,64,127,,
25020,note_on,60,0,1,,,,,,,,,0,,,71,0
25020,note_on,0,0,1,,,,,,,,,0,,,72,49
25020,note_on,0,0,3,,,,,,,,,2,,,43,0
25020,note_on,60,0,3,,,,,,,,,2,,,53,0
25020,note_on,0,0,3,,,,,,,,,2,,,51,49
25020,note_on,0,0,2,,,,,,,,,1,,,60,36
25020,note_on,30,0,2,,,,,,,,,1,,,62,0
25020,note_on,0,0,3,,,,,,,,,2,,,48,49
25024,note_on,4,0,1,,,,,,,,,0,,,72,0
25050,note_on,30,0,2,,,,,,,,,1,,,60,0
25050,note_on,26,0,1,,,,,,,,,0,,,67,62
25080,note_on,0,0,1,,,,,,,,,0,,,67,62
25080,control_change,0,0,1,,,,,,,,,0,64,0,,
25080,note_on,30,0,1,,,,,,,,,0,,,67,0
25080,note_on,0,0,3,,,,,,,,,2,,,48,0
25080,note_on,60,0,3,,,,,,,,,2,,,51,0
25110,note_on,0,0,1,,,,,,,,,0,,,67,75
25110,note_on,30,0,1,,,,,,,,,0,,,67,0
25140,note_on,0,0,1,,,,,,,,,0,,,67,75
25140,note_on,30,0,1,,,,,,,,,0,,,67,0
25170,note_on,30,0,1,,,,,,,,,0,,,67,0
25170,note_on,0,0,3,,,,,,,,,2,,,51,88
25170,note_on,0,0,1,,,,,,,,,0,,,67,88
25170,note_on,90,0,3,,,,,,,,,2,,,39,88
25174,note_on,0,0,3,,,,,,,,,2,,,39,0
25174,note_on,4,0,3,,,,,,,,,2,,,51,0
25200,note_on,30,0,1,,,,,,,,,0,,,67,0
25200,note_on,0,0,3,,,,,,,,,2,,,53,88
25200,note_on,0,0,3,,,,,,,,,2,,,41,88
25200,control_change,26,0,3,,,,,,,,,2,64,127,,
25200,control_change,0,0,1,,,,,,,,,0,64,127,,
25200,note_on,0,0,1,,,,,,,,,0,,,68,114
25200,note_on,0,0,1,,,,,,,,,0,,,67,109
25200,note_on,0,0,1,,,,,,,,,0,,,60,104
25230,note_on,0,0,1,,,,,,,,,0,,,68,88
25230,note_on,0,0,1,,,,,,,,,0,,,60,0
25230,note_on,30,0,1,,,,,,,,,0,,,68,0
25230,note_on,0,0,1,,,,,,,,,0,,,67,0
25230,note_on,0,0,1,,,,,,,,,0,,,65,88
25230,note_on,0,0,1,,,,,,,,,0,,,60,88
25245,note_on,0,0,3,,,,,,,,,2,,,43,88
25245,note_on,0,0,3,,,,,,,,,2,,,55,88
25245,note_on,45,0,3,,,,,,,,,2,,,53,0
25245,note_on,0,0,3,,,,,,,,,2,,,41,0
25260,note_on,0,0,1,,,,,,,,,0,,,65,0
25260,note_on,30,0,1,,,,,,,,,0,,,68,0
25260,note_on,0,0,1,,,,,,,,,0,,,67,104
25260,note_on,0,0,3,,,,,,,,,2,,,44,88
25260,note_on,0,0,1,,,,,,,,,0,,,68,109
25260,note_on,15,0,3,,,,,,,,,2,,,55,0
25260,note_on,0,0,3,,,,,,,,,2,,,43,0
25260,control_change,0,0,3,,,,,,,,,2,64,0,,
25260,note_on,0,0,3,,,,,,,,,2,,,56,88
25260,note_on,0,0,1,,,,,,,,,0,,,72,114
25260,note_on,0,0,1,,,,,,,,,0,,,60,0
25290,note_on,0,0,1,,,,,,,,,0,,,65,88
25290,note_on,30,0,1,,,,,,,,,0,,,72,0
25290,note_on,0,0,1,,,,,,,,,0,,,68,0
25290,control_change,0,0,1,,,,,,,,,0,64,0,,
25290,note_on,0,0,1,,,,,,,,,0,,,72,88
25290,note_on,0,0,1,,,,,,,,,0,,,68,88
25290,note_on,0,0,1,,,,,,,,,0,,,67,0
25320,note_on,0,0,1,,,,,,,,,0,,,80,114
25320,note_on,60,0,3,,,,,,,,,2,,,56,0
25320,note_on,0,0,1,,,,,,,,,0,,,79,109
25320,note_on,30,0,1,,,,,,,,,0,,,72,0
25320,note_on,0,0,1,,,,,,,,,0,,,68,0
25320,note_on,0,0,1,,,,,,,,,0,,,65,0
25320,note_on,0,0,1,,,,,,,,,0,,,71,104
25320,note_on,0,0,3,,,,,,,,,2,,,44,0
25350,note_on,0,0,3,,,,,,,,,2,,,50,88
25350,note_on,0,0,1,,,,,,,,,0,,,80,88
25350,note_on,30,0,3,,,,,,,,,2,,,38,88
25350,note_on,0,0,1,,,,,,,,,0,,,79,0
25350,note_on,0,0,1,,,,,,,,,0,,,70,88
25350,note_on,0,0,1,,,,,,,,,0,,,71,0
25350,note_on,30,0,1,,,,,,,,,0,,,80,0
25350,note_on,0,0,1,,,,,,,,,0,,,77,88
25354,note_on,4,0,3,,,,,,,,,2,,,50,0
25354,note_on,0,0,3,,,,,,,,,2,,,38,0
25380,note_on,0,0,1,,,,,,,,,0,,,67,114
25380,control_change,0,0,1,,,,,,,,,0,64,127,,
25380,note_on,0,0,1,,,,,,,,,0,,,58,104
25380,note_on,0,0,1,,,,,,,,,0,,,70,0
25380,note_on,0,0,1,,,,,,,,,0,,,77,0
25380,control_change,26,0,3,,,,,,,,,2,64,127,,
25380,note_on,0,0,3,,,,,,,,,2,,,39,88
25380,note_on,0,0,3,,,,,,,,,2,,,51,88
25380,note_on,0,0,1,,,,,,,,,0,,,65,109
25380,note_on,30,0,1,,,,,,,,,0,,,80,0
25410,note_on,0,0,1,,,,,,,,,0,,,58,0
25410,note_on,30,0,1,,,,,,,,,0,,,67,0
25410,note_on,0,0,1,,,,,,,,,0,,,65,0
25410,note_on,0,0,1,,,,,,,,,0,,,58,88
25410,note_on,0,0,1,,,,,,,,,0,,,63,88
25410,note_on,0,0,1,,,,,,,,,0,,,67,88
25425,note_on,0,0,3,,,,,,,,,2,,,39,0
25425,note_on,0,0,3,,,,,,,,,2,,,53,88
25425,note_on,0,0,3,,,,,,,,,2,,,41,88
25425,note_on,45,0,3,,,,,,,,,2,,,51,0
25440,note_on,30,0,1,,,,,,,,,0,,,67,0
25440,note_on,0,0,1,,,,,,,,,0,,,63,0
25440,note_on,0,0,1,,,,,,,,,0,,,65,104
25440,note_on,15,0,3,,,,,,,,,2,,,53,0
25440,note_on,0,0,1,,,,,,,,,0,,,58,0
25440,note_on,0,0,3,,,,,,,,,2,,,41,0
25440,control_change,0,0,3,,,,,,,,,2,64,0,,
25440,note_on,0,0,3,,,,,,,,,2,,,43,88
25440,note_on,0,0,3,,,,,,,,,2,,,55,88
25440,note_on,0,0,1,,,,,,,,,0,,,67,109
25440,note_on,0,0,1,,,,,,,,,0,,,70,114
25470,note_on,0,0,1,,,,,,,,,0,,,67,88
25470,note_on,0,0,1,,,,,,,,,0,,,65,0
25470,note_on,30,0,1,,,,,,,,,0,,,70,0
25470,note_on,0,0,1,,,,,,,,,0,,,67,0
25470,note_on,0,0,1,,,,,,,,,0,,,63,88
25470,note_on,0,0,1,,,,,,,,,0,,,70,88
25470,control_change,0,0,1,,,,,,,,,0,64,0,,
25500,note_on,60,0,3,,,,,,,,,2,,,55,0
25500,note_on,30,0,1,,,,,,,,,0,,,70,0
25500,note_on,0,0,1,,,,,,,,,0,,,63,0
25500,note_on,0,0,1,,,,,,,,,0,,,70,104
25500,note_on,0,0,1,,,,,,,,,0,,,77,109
25500,note_on,0,0,1,,,,,,,,,0,,,79,114
25500,note_on,0,0,1,,,,,,,,,0,,,67,0
25500,note_on,0,0,3,,,,,,,,,2,,,43,0
25530,note_on,0,0,3,,,,,,,,,2,,,43,88
25530,note_on,0,0,1,,,,,,,,,0,,,75,88
25530,note_on,0,0,1,,,,,,,,,0,,,79,88
25530,note_on,0,0,1,,,,,,,,,0,,,70,0
25530,note_on,0,0,1,,,,,,,,,0,,,70,88
25530,note_on,30,0,1,,,,,,,,,0,,,79,0
25530,note_on,0,0,1,,,,,,,,,0,,,77,0
25530,note_on,30,0,3,,,,,,,,,2,,,31,88
25534,note_on,4,0,3,,,,,,,,,2,,,43,0
25534,note_on,0,0,3,,,,,,,,,2,,,31,0
25560,control_change,26,0,3,,,,,,,,,2,64,127,,
25560,note_on,0,0,3,,,,,,,,,2,,,39,88
25560,control_change,0,0,1,,,,,,,,,0,64,127,,
25560,note_on,0,0,1,,,,,,,,,0,,,75,0
25560,note_on,0,0,1,,,,,,,,,0,,,67,114
25560,note_on,0,0,3,,,,,,,,,2,,,51,88
25560,note_on,30,0,1,,,,,,,,,0,,,79,0
25560,note_on,0,0,1,,,,,,,,,0,,,70,0
25560,note_on,0,0,1,,,,,,,,,0,,,58,104
25560,note_on,0,0,1,,,,,,,,,0,,,61,109
25590,note_on,0,0,1,,,,,,,,,0,,,67,88
25590,note_on,0,0,1,,,,,,,,,0,,,62,88
25590,note_on,0,0,1,,,,,,,,,0,,,58,88
25590,note_on,0,0,1,,,,,,,,,0,,,58,0
25590,note_on,0,0,1,,,,,,,,,0,,,61,0
25590,note_on,30,0,1,,,,,,,,,0,,,67,0
25605,note_on,45,0,3,,,,,,,,,2,,,51,0
25605,note_on,0,0,3,,,,,,,,,2,,,38,88
25605,note_on,0,0,3,,,,,,,,,2,,,39,0
25605,note_on,0,0,3,,,,,,,,,2,,,50,88
25620,note_on,0,0,1,,,,,,,,,0,,,73,114
25620,control_change,0,0,1,,,,,,,,,0,64,0,,
25620,note_on,0,0,1,,,,,,,,,0,,,58,0
25620,note_on,0,0,1,,,,,,,,,0,,,62,0
25620,note_on,30,0,1,,,,,,,,,0,,,67,0
25620,note_on,0,0,1,,,,,,,,,0,,,67,104
25620,note_on,15,0,3,,,,,,,,,2,,,50,0
25620,note_on,0,0,3,,,,,,,,,2,,,38,0
25620,control_change,0,0,3,,,,,,,,,2,64,0,,
25620,note_on,0,0,3,,,,,,,,,2,,,34,88
25620,note_on,0,0,3,,,,,,,,,2,,,46,88
25620,note_on,0,0,1,,,,,,,,,0,,,70,109
25626,note_on,0,0,3,,,,,,,,,2,,,34,0
25626,note_on,6,0,3,,,,,,,,,2,,,46,0
25650,note_on,0,0,1,,,,,,,,,0,,,67,88
25650,note_on,0,0,1,,,,,,,,,0,,,70,0
25650,note_on,0,0,1,,,,,,,,,0,,,67,0
25650,note_on,0,0,1,,,,,,,,,0,,,74,88
25650,note_on,30,0,1,,,,,,,,,0,,,73,0
25650,note_on,0,0,1,,,,,,,,,0,,,70,88
25680,note_on,30,0,1,,,,,,,,,0,,,74,0
25680,note_on,0,0,1,,,,,,,,,0,,,70,0
25680,note_on,0,0,1,,,,,,,,,0,,,67,0
25680,note_on,0,0,1,,,,,,,,,0,,,67,102
25680,note_on,0,0,1,,,,,,,,,0,,,72,106
25680,note_on,0,0,1,,,,,,,,,0,,,75,110
25680,note_on,0,0,1,,,,,,,,,0,,,79,114
25680,note_on,0,0,3,,,,,,,,,2,,,50,88
25680,note_on,54,0,3,,,,,,,,,2,,,38,88
25686,note_on,6,0,3,,,,,,,,,2,,,50,0
25686,note_on,0,0,3,,,,,,,,,2,,,38,0
25710,note_on,0,0,1,,,,,,,,,0,,,68,88
25710,note_on,30,0,1,,,,,,,,,0,,,79,0
25710,note_on,0,0,1,,,,,,,,,0,,,67,0
25710,note_on,0,0,1,,,,,,,,,0,,,72,0
25710,note_on,0,0,1,,,,,,,,,0,,,75,0
25710,note_on,0,0,1,,,,,,,,,0,,,72,88
25710,note_on,0,0,1,,,,,,,,,0,,,74,88
25710,note_on,0,0,1,,,,,,,,,0,,,78,88
25740,note_on,0,0,3,,,,,,,,,2,,,43,88
25740,note_on,0,0,1,,,,,,,,,0,,,74,88
25740,note_on,0,0,1,,,,,,,,,0,,,71,88
25740,note_on,0,0,1,,,,,,,,,0,,,67,88
25740,note_on,0,0,1,,,,,,,,,0,,,79,88
25740,note_on,0,0,1,,,,,,,,,0,,,72,0
25740,note_on,0,0,1,,,,,,,,,0,,,74,0
25740,note_on,54,0,3,,,,,,,,,2,,,31,88
25740,note_on,0,0,1,,,,,,,,,0,,,68,0
25740,note_on,30,0,1,,,,,,,,,0,,,78,0
25770,note_on,30,0,1,,,,,,,,,0,,,79,0
25770,note_on,0,0,1,,,,,,,,,0,,,67,0
25770,note_on,0,0,1,,,,,,,,,0,,,71,0
25770,note_on,0,0,1,,,,,,,,,0,,,74,0
25770,note_on,720,0,2,,,,,,,,,1,,,67,36
25800,note_on,60,0,3,,,,,,,,,2,,,43,0
25800,note_on,30,0,2,,,,,,,,,1,,,67,0
25800,note_on,0,0,2,,,,,,,,,1,,,67,36
25800,note_on,0,0,3,,,,,,,,,2,,,31,0
25830,note_on,30,0,2,,,,,,,,,1,,,67,0
25830,note_on,0,0,2,,,,,,,,,1,,,67,36
25860,note_on,60,0,3,,,,,,,,,2,,,60,49
25860,note_on,90,0,1,,,,,,,,,0,,,75,49
25860,note_on,0,0,2,,,,,,,,,1,,,67,36
25860,note_on,30,0,2,,,,,,,,,1,,,67,0
25866,note_on,6,0,1,,,,,,,,,0,,,75,0
25866,note_on,6,0,3,,,,,,,,,2,,,60,0
25890,note_on,0,0,2,,,,,,,,,1,,,67,36
25890,note_on,30,0,2,,,,,,,,,1,,,67,0
25920,note_on,30,0,2,,,,,,,,,1,,,67,0
25920,control_change,0,0,2,,,,,,,,,1,64,127,,
25920,note_on,0,0,1,,,,,,,,,0,,,77,49
25920,set_tempo,1080,1,0,,,,,,1250000,,,,,,,
25920,note_on,0,0,2,,,,,,,,,1,,,67,36
25920,control_change,54,0,1,,,,,,,,,0,64,127,,
25920,note_on,0,0,3,,,,,,,,,2,,,62,49
25920,control_change,54,0,3,,,,,,,,,2,64,127,,
25950,note_on,30,0,2,,,,,,,,,1,,,67,0
25950,note_on,0,0,2,,,,,,,,,1,,,67,36
25965,note_on,0,0,1,,,,,,,,,0,,,79,49
25965,note_on,0,0,3,,,,,,,,,2,,,63,49
25965,note_on,45,0,1,,,,,,,,,0,,,77,0
25965,note_on,45,0,3,,,,,,,,,2,,,62,0
25980,control_change,0,0,3,,,,,,,,,2,64,0,,
25980,note_on,0,0,3,,,,,,,,,2,,,65,49
25980,note_on,30,0,2,,,,,,,,,1,,,67,0
25980,note_on,0,0,2,,,,,,,,,1,,,67,36
25980,note_on,0,0,1,,,,,,,,,0,,,80,49
25980,control_change,0,0,1,,,,,,,,,0,64,0,,
25980,note_on,15,0,1,,,,,,,,,0,,,79,0
25980,note_on,15,0,3,,,,,,,,,2,,,63,0
25980,control_change,0,0,2,,,,,,,,,1,64,0,,
26010,note_on,30,0,2,,,,,,,,,1,,,67,0
26010,note_on,0,0,2,,,,,,,,,1,,,67,36
26010,note_on,30,0,1,,,,,,,,,0,,,80,0
26010,note_on,30,0,3,,,,,,,,,2,,,65,0
26040,note_on,0,0,2,,,,,,,,,1,,,67,36
26040,note_on,30,0,2,,,,,,,,,1,,,67,0
26040,note_on,30,0,3,,,,,,,,,2,,,59,49
26040,note_on,30,0,1,,,,,,,,,0,,,74,49
26046,note_on,6,0,3,,,,,,,,,2,,,59,0
26046,note_on,6,0,1,,,,,,,,,0,,,74,0
26070,note_on,30,0,2,,,,,,,,,1,,,67,0
26070,note_on,0,0,2,,,,,,,,,1,,,67,36
26100,note_on,30,0,2,,,,,,,,,1,,,67,0
26100,note_on,0,0,2,,,,,,,,,1,,,67,36
26100,control_change,0,0,2,,,,,,,,,1,64,127,,
26100,note_on,0,0,3,,,,,,,,,2,,,60,49
26100,control_change,54,0,3,,,,,,,,,2,64,127,,
26100,control_change,54,0,1,,,,,,,,,0,64,127,,
26100,note_on,0,0,1,,,,,,,,,0,,,75,49
26100,set_tempo,180,1,0,,,,,,1250000,,,,,,,
26130,note_on,0,0,2,,,,,,,,,1,,,67,36
26130,note_on,30,0,2,,,,,,,,,1,,,67,0
26145,note_on,45,0,1,,,,,,,,,0,,,75,0
26145,note_on,0,0,1,,,,,,,,,0,,,77,49
26145,note_on,45,0,3,,,,,,,,,2,,,60,0
26145,note_on,0,0,3,,,,,,,,,2,,,62,49
26160,note_on,15,0,3,,,,,,,,,2,,,62,0
26160,control_change,0,0,3,,,,,,,,,2,64,0,,
26160,note_on,0,0,3,,,,,,,,,2,,,63,49
26160,note_on,30,0,2,,,,,,,,,1,,,67,0
26160,control_change,0,0,2,,,,,,,,,1,64,0,,
26160,note_on,0,0,2,,,,,,,,,1,,,67,36
26160,note_on,15,0,1,,,,,,,,,0,,,77,0
26160,control_change,0,0,1,,,,,,,,,0,64,0,,
26160,note_on,0,0,1,,,,,,,,,0,,,79,49
26190,note_on,30,0,3,,,,,,,,,2,,,63,0
26190,note_on,30,0,2,,,,,,,,,1,,,67,0
26190,note_on,0,0,2,,,,,,,,,1,,,67,36
26190,note_on,30,0,1,,,,,,,,,0,,,79,0
26220,note_on,0,0,2,,,,,,,,,1,,,67,36
26220,note_on,30,0,3,,,,,,,,,2,,,51,49
26220,note_on,30,0,2,,,,,,,,,1,,,67,0
26220,note_on,30,0,1,,,,,,,,,0,,,72,49
26226,note_on,6,0,1,,,,,,,,,0,,,72,0
26250,note_on,0,0,2,,,,,,,,,1,,,67,36
26250,note_on,30,0,2,,,,,,,,,1,,,67,0
26265,note_on,45,0,3,,,,,,,,,2,,,51,0
26265,note_on,0,0,3,,,,,,,,,2,,,53,49
26272,note_on,7,0,3,,,,,,,,,2,,,55,49
26273,note_on,1,0,3,,,,,,,,,2,,,53,0
26280,note_on,0,0,2,,,,,,,,,1,,,67,36
26280,note_on,30,0,2,,,,,,,,,1,,,67,0
26280,note_on,7,0,3,,,,,,,,,2,,,55,0
26280,note_on,0,0,3,,,,,,,,,2,,,56,49
26280,set_tempo,180,1,0,,,,,,1250000,,,,,,,
26280,control_change,54,0,1,,,,,,,,,0,64,127,,
26280,note_on,0,0,1,,,,,,,,,0,,,73,49
26295,note_on,15,0,1,,,,,,,,,0,,,73,0
26295,note_on,0,0,1,,,,,,,,,0,,,75,49
26310,note_on,0,0,2,,,,,,,,,1,,,65,36
26310,note_on,30,0,2,,,,,,,,,1,,,67,0
26310,note_on,15,0,1,,,,,,,,,0,,,75,0
26310,note_on,0,0,1,,,,,,,,,0,,,77,49
26325,note_on,15,0,1,,,,,,,,,0,,,77,0
26325,control_change,0,0,1,,,,,,,,,0,64,0,,
26325,note_on,0,0,1,,,,,,,,,0,,,73,49
26340,note_on,0,0,2,,,,,,,,,1,,,65,36
26340,note_on,60,0,3,,,,,,,,,2,,,56,0
26340,note_on,0,0,3,,,,,,,,,2,,,55,49
26340,note_on,30,0,2,,,,,,,,,1,,,65,0
26340,note_on,0,0,1,,,,,,,,,0,,,72,49
26340,note_on,15,0,1,,,,,,,,,0,,,73,0
26370,note_on,0,0,2,,,,,,,,,1,,,63,36
26370,note_on,30,0,2,,,,,,,,,1,,,65,0
26400,note_on,30,0,2,,,,,,,,,1,,,63,0
26400,note_on,0,0,1,,,,,,,,,0,,,71,49
26400,note_on,60,0,1,,,,,,,,,0,,,72,0
26400,note_on,60,0,3,,,,,,,,,2,,,55,0
26400,note_on,0,0,3,,,,,,,,,2,,,43,49
26400,note_on,0,0,3,,,,,,,,,2,,,53,49
26400,note_on,0,0,2,,,,,,,,,1,,,63,36
26430,note_on,30,0,2,,,,,,,,,1,,,63,0
26430,note_on,0,0,2,,,,,,,,,1,,,62,36
26460,note_on,30,0,2,,,,,,,,,1,,,62,0
26460,note_on,60,0,3,,,,,,,,,2,,,53,0
26460,note_on,0,0,3,,,,,,,,,2,,,48,49
26460,note_on,0,0,3,,,,,,,,,2,,,51,49
26460,note_on,0,0,2,,,,,,,,,1,,,60,36
26460,note_on,0,0,3,,,,,,,,,2,,,43,0
26460,note_on,0,0,1,,,,,,,,,0,,,72,49
26460,control_change,0,0,1,,,,,,,,,0,64,127,,
26460,note_on,60,0,1,,,,,,,,,0,,,71,0
26464,note_on,4,0,1,,,,,,,,,0,,,72,0
26490,note_on,30,0,2,,,,,,,,,1,,,60,0
26490,note_on,26,0,1,,,,,,,,,0,,,67,62
26520,note_on,0,0,1,,,,,,,,,0,,,67,62
26520,control_change,0,0,1,,,,,,,,,0,64,0,,
26520,note_on,30,0,1,,,,,,,,,0,,,67,0
26520,note_on,0,0,3,,,,,,,,,2,,,48,0
26520,note_on,60,0,3,,,,,,,,,2,,,51,0
26550,note_on,0,0,1,,,,,,,,,0,,,67,75
26550,note_on,30,0,1,,,,,,,,,0,,,67,0
26580,note_on,0,0,1,,,,,,,,,0,,,67,75
26580,note_on,30,0,1,,,,,,,,,0,,,67,0
26610,note_on,0,0,3,,,,,,,,,2,,,51,88
26610,note_on,90,0,3,,,,,,,,,2,,,39,88
26610,note_on,30,0,1,,,,,,,,,0,,,67,0
26610,note_on,0,0,1,,,,,,,,,0,,,67,88
26614,note_on,4,0,3,,,,,,,,,2,,,51,0
26614,note_on,0,0,3,,,,,,,,,2,,,39,0
26640,control_change,26,0,3,,,,,,,,,2,64,127,,
26640,note_on,0,0,1,,,,,,,,,0,,,67,109
26640,note_on,30,0,1,,,,,,,,,0,,,67,0
26640,note_on,0,0,3,,,,,,,,,2,,,41,88
26640,control_change,0,0,1,,,,,,,,,0,64,127,,
26640,note_on,0,0,1,,,,,,,,,0,,,60,104
26640,note_on,0,0,1,,,,,,,,,0,,,68,114
26640,note_on,0,0,3,,,,,,,,,2,,,53,88
26670,note_on,0,0,1,,,,,,,,,0,,,67,0
26670,note_on,0,0,1,,,,,,,,,0,,,60,0
26670,note_on,0,0,1,,,,,,,,,0,,,60,88
26670,note_on,0,0,1,,,,,,,,,0,,,65,88
26670,note_on,0,0,1,,,,,,,,,0,,,68,88
26670,note_on,30,0,1,,,,,,,,,0,,,68,0
26685,note_on,45,0,3,,,,,,,,,2,,,53,0
26685,note_on,0,0,3,,,,,,,,,2,,,41,0
26685,note_on,0,0,3,,,,,,,,,2,,,43,88
26685,note_on,0,0,3,,,,,,,,,2,,,55,88
26700,note_on,30,0,1,,,,,,,,,0,,,68,0
26700,note_on,0,0,1,,,,,,,,,0,,,67,104
26700,note_on,0,0,1,,,,,,,,,0,,,60,0
26700,note_on,0,0,1,,,,,,,,,0,,,65,0
26700,note_on,15,0,3,,,,,,,,,2,,,55,0
26700,note_on,0,0,3,,,,,,,,,2,,,43,0
26700,control_change,0,0,3,,,,,,,,,2,64,0,,
26700,note_on,0,0,3,,,,,,,,,2,,,44,88
26700,note_on,0,0,3,,,,,,,,,2,,,56,88
26700,note_on,0,0,1,,,,,,,,,0,,,68,109
26700,note_on,0,0,1,,,,,,,,,0,,,72,114
26730,note_on,0,0,1,,,,,,,,,0,,,72,88
26730,control_change,0,0,1,,,,,,,,,0,64,0,,
26730,note_on,30,0,1,,,,,,,,,0,,,72,0
26730,note_on,0,0,1,,,,,,,,,0,,,68,88
26730,note_on,0,0,1,,,,,,,,,0,,,65,88
26730,note_on,0,0,1,,,,,,,,,0,,,67,0
26730,note_on,0,0,1,,,,,,,,,0,,,68,0
26760,note_on,0,0,1,,,,,,,,,0,,,80,114
26760,note_on,0,0,1,,,,,,,,,0,,,79,109
26760,note_on,0,0,1,,,,,,,,,0,,,71,104
26760,note_on,0,0,1,,,,,,,,,0,,,65,0
26760,note_on,0,0,1,,,,,,,,,0,,,68,0
26760,note_on,30,0,1,,,,,,,,,0,,,72,0
26760,note_on,60,0,3,,,,,,,,,2,,,56,0
26760,note_on,0,0,3,,,,,,,,,2,,,44,0
26790,note_on,0,0,1,,,,,,,,,0,,,77,88
26790,note_on,0,0,1,,,,,,,,,0,,,80,88
26790,note_on,0,0,1,,,,,,,,,0,,,71,0
26790,note_on,0,0,1,,,,,,,,,0,,,70,88
26790,note_on,30,0,3,,,,,,,,,2,,,38,88
26790,note_on,0,0,3,,,,,,,,,2,,,50,88
26790,note_on,30,0,1,,,,,,,,,0,,,80,0
26790,note_on,0,0,1,,,,,,,,,0,,,79,0
26794,note_on,4,0,3,,,,,,,,,2,,,50,0
26794,note_on,0,0,3,,,,,,,,,2,,,38,0
26820,control_change,0,0,1,,,,,,,,,0,64,127,,
26820,note_on,0,0,1,,,,,,,,,0,,,67,114
26820,note_on,0,0,1,,,,,,,,,0,,,65,109
26820,note_on,0,0,1,,,,,,,,,0,,,58,104
26820,note_on,0,0,1,,,,,,,,,0,,,70,0
26820,note_on,0,0,1,,,,,,,,,0,,,77,0
26820,note_on,30,0,1,,,,,,,,,0,,,80,0
26820,note_on,0,0,3,,,,,,,,,2,,,51,88
26820,note_on,0,0,3,,,,,,,,,2,,,39,88
26820,control_change,26,0,3,,,,,,,,,2,64,127,,
26850,note_on,0,0,1,,,,,,,,,0,,,58,88
26850,note_on,0,0,1,,,,,,,,,0,,,58,0
26850,note_on,0,0,1,,,,,,,,,0,,,67,88
26850,note_on,0,0,1,,,,,,,,,0,,,63,88
26850,note_on,0,0,1,,,,,,,,,0,,,65,0
26850,note_on,30,0,1,,,,,,,,,0,,,67,0
26865,note_on,0,0,3,,,,,,,,,2,,,53,88
26865,note_on,0,0,3,,,,,,,,,2,,,39,0
26865,note_on,0,0,3,,,,,,,,,2,,,41,88
26865,note_on,45,0,3,,,,,,,,,2,,,51,0
26880,note_on,0,0,1,,,,,,,,,0,,,70,114
26880,note_on,0,0,1,,,,,,,,,0,,,67,109
26880,note_on,0,0,1,,,,,,,,,0,,,65,104
26880,note_on,30,0,1,,,,,,,,,0,,,67,0
26880,note_on,15,0,3,,,,,,,,,2,,,53,0
26880,note_on,0,0,1,,,,,,,,,0,,,58,0
26880,note_on,0,0,3,,,,,,,,,2,,,55,88
26880,note_on,0,0,3,,,,,,,,,2,,,43,88
26880,control_change,0,0,3,,,,,,,,,2,64,0,,
26880,note_on,0,0,3,,,,,,,,,2,,,41,0
26880,note_on,0,0,1,,,,,,,,,0,,,63,0
26910,note_on,30,0,1,,,,,,,,,0,,,70,0
26910,note_on,0,0,1,,,,,,,,,0,,,67,0
26910,note_on,0,0,1,,,,,,,,,0,,,65,0
26910,note_on,0,0,1,,,,,,,,,0,,,63,88
26910,note_on,0,0,1,,,,,,,,,0,,,67,88
26910,note_on,0,0,1,,,,,,,,,0,,,70,88
26910,control_change,0,0,1,,,,,,,,,0,64,0,,
26940,note_on,30,0,1,,,,,,,,,0,,,70,0
26940,note_on,0,0,1,,,,,,,,,0,,,70,104
26940,note_on,0,0,1,,,,,,,,,0,,,79,114
26940,note_on,0,0,1,,,,,,,,,0,,,67,0
26940,note_on,0,0,1,,,,,,,,,0,,,77,109
26940,note_on,60,0,3,,,,,,,,,2,,,55,0
26940,note_on,0,0,3,,,,,,,,,2,,,43,0
26940,note_on,0,0,1,,,,,,,,,0,,,63,0
26970,note_on,0,0,3,,,,,,,,,2,,,43,88
26970,note_on,30,0,1,,,,,,,,,0,,,79,0
26970,note_on,0,0,1,,,,,,,,,0,,,77,0
26970,note_on,0,0,1,,,,,,,,,0,,,70,88
26970,note_on,0,0,1,,,,,,,,,0,,,75,88
26970,note_on,0,0,1,,,,,,,,,0,,,79,88
26970,note_on,30,0,3,,,,,,,,,2,,,31,88
26970,note_on,0,0,1,,,,,,,,,0,,,70,0
26974,note_on,4,0,3,,,,,,,,,2,,,43,0
26974,note_on,0,0,3,,,,,,,,,2,,,31,0
27000,note_on,30,0,1,,,,,,,,,0,,,79,0
27000,note_on,0,0,1,,,,,,,,,0,,,75,0
27000,note_on,0,0,1,,,,,,,,,0,,,70,0
27000,note_on,0,0,1,,,,,,,,,0,,,58,104
27000,note_on,0,0,1,,,,,,,,,0,,,61,109
27000,note_on,0,0,1,,,,,,,,,0,,,67,114
27000,control_change,26,0,3,,,,,,,,,2,64,127,,
27000,note_on,0,0,3,,,,,,,,,2,,,39,88
27000,note_on,0,0,3,,,,,,,,,2,,,51,88
27000,control_change,0,0,1,,,,,,,,,0,64,127,,
27030,note_on,0,0,1,,,,,,,,,0,,,67,88
27030,note_on,0,0,1,,,,,,,,,0,,,62,88
27030,note_on,0,0,1,,,,,,,,,0,,,58,88
27030,note_on,0,0,1,,,,,,,,,0,,,58,0
27030,note_on,0,0,1,,,,,,,,,0,,,61,0
27030,note_on,30,0,1,,,,,,,,,0,,,67,0
27045,note_on,0,0,3,,,,,,,,,2,,,50,88
27045,note_on,0,0,3,,,,,,,,,2,,,38,88
27045,note_on,0,0,3,,,,,,,,,2,,,39,0
27045,note_on,45,0,3,,,,,,,,,2,,,51,0
27060,note_on,30,0,1,,,,,,,,,0,,,67,0
27060,note_on,0,0,1,,,,,,,,,0,,,62,0
27060,note_on,0,0,1,,,,,,,,,0,,,58,0
27060,control_change,0,0,1,,,,,,,,,0,64,0,,
27060,note_on,0,0,1,,,,,,,,,0,,,70,109
27060,note_on,0,0,1,,,,,,,,,0,,,73,114
27060,note_on,0,0,3,,,,,,,,,2,,,46,88
27060,note_on,0,0,3,,,,,,,,,2,,,34,88
27060,control_change,0,0,3,,,,,,,,,2,64,0,,
27060,note_on,0,0,3,,,,,,,,,2,,,38,0
27060,note_on,15,0,3,,,,,,,,,2,,,50,0
27060,note_on,0,0,1,,,,,,,,,0,,,67,104
27066,note_on,0,0,3,,,,,,,,,2,,,34,0
27066,note_on,6,0,3,,,,,,,,,2,,,46,0
27090,note_on,0,0,1,,,,,,,,,0,,,70,88
27090,note_on,0,0,1,,,,,,,,,0,,,70,0
27090,note_on,0,0,1,,,,,,,,,0,,,74,88
27090,note_on,30,0,1,,,,,,,,,0,,,73,0
27090,note_on,0,0,1,,,,,,,,,0,,,67,88
27090,note_on,0,0,1,,,,,,,,,0,,,67,0
27120,note_on,0,0,3,,,,,,,,,2,,,50,88
27120,note_on,0,0,1,,,,,,,,,0,,,79,114
27120,note_on,0,0,1,,,,,,,,,0,,,75,110
27120,note_on,0,0,1,,,,,,,,,0,,,72,106
27120,note_on,54,0,3,,,,,,,,,2,,,38,88
27120,note_on,0,0,1,,,,,,,,,0,,,67,0
27120,note_on,0,0,1,,,,,,,,,0,,,70,0
27120,note_on,30,0,1,,,,,,,,,0,,,74,0
27120,note_on,0,0,1,,,,,,,,,0,,,67,102
27126,note_on,6,0,3,,,,,,,,,2,,,50,0
27126,note_on,0,0,3,,,,,,,,,2,,,38,0
27150,note_on,0,0,1,,,,,,,,,0,,,78,88
27150,note_on,0,0,1,,,,,,,,,0,,,74,88
27150,note_on,0,0,1,,,,,,,,,0,,,68,88
27150,note_on,0,0,1,,,,,,,,,0,,,75,0
27150,note_on,0,0,1,,,,,,,,,0,,,67,0
27150,note_on,30,0,1,,,,,,,,,0,,,79,0
27150,note_on,0,0,1,,,,,,,,,0,,,72,88
27150,note_on,0,0,1,,,,,,,,,0,,,72,0
27180,note_on,0,0,3,,,,,,,,,2,,,43,88
27180,note_on,54,0,3,,,,,,,,,2,,,31,88
27180,control_change,0,0,1,,,,,,,,,0,64,127,,
27180,note_on,0,0,1,,,,,,,,,0,,,74,88
27180,note_on,0,0,1,,,,,,,,,0,,,71,88
27180,note_on,0,0,1,,,,,,,,,0,,,72,0
27180,note_on,0,0,1,,,,,,,,,0,,,74,0
27180,note_on,0,0,1,,,,,,,,,0,,,67,88
27180,note_on,0,0,1,,,,,,,,,0,,,79,88
27180,note_on,0,0,1,,,,,,,,,0,,,68,0
27180,note_on,30,0,1,,,,,,,,,0,,,78,0
27210,note_on,0,0,1,,,,,,,,,0,,,67,88
27210,note_on,0,0,1,,,,,,,,,0,,,74,0
27210,note_on,0,0,1,,,,,,,,,0,,,71,0
27210,note_on,0,0,1,,,,,,,,,0,,,67,0
27210,note_on,30,0,1,,,,,,,,,0,,,79,0
27240,note_on,0,0,1,,,,,,,,,0,,,67,88
27240,note_on,0,0,3,,,,,,,,,2,,,31,0
27240,note_on,60,0,3,,,,,,,,,2,,,43,0
27240,note_on,30,0,1,,,,,,,,,0,,,67,0
27270,note_on,0,0,1,,,,,,,,,0,,,67,88
27270,note_on,30,0,1,,,,,,,,,0,,,67,0
27300,control_change,0,0,1,,,,,,,,,0,64,0,,
27300,note_on,30,0,1,,,,,,,,,0,,,67,0
27300,note_on,0,0,1,,,,,,,,,0,,,67,88
27330,note_on,90,0,3,,,,,,,,,2,,,35,88
27330,note_on,0,0,3,,,,,,,,,2,,,47,88
27330,note_on,30,0,1,,,,,,,,,0,,,67,0
27330,note_on,0,0,1,,,,,,,,,0,,,67,88
27360,note_on,0,0,1,,,,,,,,,0,,,67,119
27360,note_on,0,0,1,,,,,,,,,0,,,68,127
27360,note_on,30,0,1,,,,,,,,,0,,,67,0
27360,note_on,30,0,3,,,,,,,,,2,,,47,0
27360,control_change,0,0,1,,,,,,,,,0,64,127,,
27360,note_on,0,0,3,,,,,,,,,2,,,48,101
27360,note_on,0,0,3,,,,,,,,,2,,,36,101
27360,control_change,0,0,3,,,,,,,,,2,64,127,,
27360,note_on,0,0,3,,,,,,,,,2,,,35,0
27390,note_on,0,0,1,,,,,,,,,0,,,68,101
27390,note_on,0,0,1,,,,,,,,,0,,,65,101
27390,note_on,0,0,1,,,,,,,,,0,,,67,0
27390,note_on,30,0,1,,,,,,,,,0,,,68,0
27405,note_on,45,0,3,,,,,,,,,2,,,48,0
27405,note_on,0,0,3,,,,,,,,,2,,,39,101
27405,note_on,0,0,3,,,,,,,,,2,,,51,101
27405,note_on,0,0,3,,,,,,,,,2,,,36,0
27420,note_on,30,0,1,,,,,,,,,0,,,68,0
27420,note_on,0,0,1,,,,,,,,,0,,,68,119
27420,control_change,0,0,1,,,,,,,,,0,64,0,,
27420,note_on,0,0,1,,,,,,,,,0,,,79,127
27420,note_on,15,0,3,,,,,,,,,2,,,51,0
27420,note_on,0,0,3,,,,,,,,,2,,,39,0
27420,control_change,0,0,3,,,,,,,,,2,64,0,,
27420,note_on,0,0,3,,,,,,,,,2,,,38,101
27420,note_on,0,0,3,,,,,,,,,2,,,50,101
27420,note_on,0,0,1,,,,,,,,,0,,,65,0
27450,note_on,0,0,1,,,,,,,,,0,,,68,0
27450,note_on,30,0,1,,,,,,,,,0,,,79,0
27450,note_on,0,0,1,,,,,,,,,0,,,77,101
27450,note_on,0,0,1,,,,,,,,,0,,,68,101
27465,note_on,0,0,3,,,,,,,,,2,,,48,101
27465,note_on,0,0,3,,,,,,,,,2,,,38,0
27465,note_on,0,0,3,,,,,,,,,2,,,60,101
27465,note_on,45,0,3,,,,,,,,,2,,,50,0
27480,note_on,0,0,1,,,,,,,,,0,,,86,127
27480,note_on,0,0,1,,,,,,,,,0,,,80,122
27480,note_on,0,0,1,,,,,,,,,0,,,68,0
27480,note_on,0,0,1,,,,,,,,,0,,,79,117
27480,note_on,0,0,3,,,,,,,,,2,,,59,101
27480,note_on,0,0,3,,,,,,,,,2,,,47,101
27480,note_on,0,0,3,,,,,,,,,2,,,48,0
27480,note_on,15,0,3,,,,,,,,,2,,,60,0
27480,note_on,30,0,1,,,,,,,,,0,,,77,0
27510,note_on,30,0,1,,,,,,,,,0,,,86,0
27510,note_on,0,0,1,,,,,,,,,0,,,80,0
27510,note_on,0,0,1,,,,,,,,,0,,,79,0
27510,note_on,0,0,1,,,,,,,,,0,,,77,101
27510,note_on,0,0,1,,,,,,,,,0,,,86,101
27510,note_on,0,0,1,,,,,,,,,0,,,80,101
27525,note_on,45,0,3,,,,,,,,,2,,,59,0
27525,note_on,0,0,3,,,,,,,,,2,,,62,101
27525,note_on,0,0,3,,,,,,,,,2,,,50,101
27525,note_on,0,0,3,,,,,,,,,2,,,47,0
27540,control_change,0,0,3,,,,,,,,,2,64,127,,
27540,note_on,0,0,3,,,,,,,,,2,,,50,0
27540,note_on,15,0,3,,,,,,,,,2,,,62,0
27540,note_on,30,0,1,,,,,,,,,0,,,86,0
27540,note_on,0,0,3,,,,,,,,,2,,,39,101
27540,note_on,0,0,1,,,,,,,,,0,,,80,0
27540,note_on,0,0,1,,,,,,,,,0,,,65,119
27540,note_on,0,0,1,,,,,,,,,0,,,67,127
27540,control_change,0,0,1,,,,,,,,,0,64,127,,
27540,note_on,0,0,1,,,,,,,,,0,,,77,0
27540,note_on,0,0,3,,,,,,,,,2,,,51,101
27570,note_on,30,0,1,,,,,,,,,0,,,67,0
27570,note_on,0,0,1,,,,,,,,,0,,,65,0
27570,note_on,0,0,1,,,,,,,,,0,,,63,101
27570,note_on,0,0,1,,,,,,,,,0,,,67,101
27585,note_on,0,0,3,,,,,,,,,2,,,39,0
27585,note_on,0,0,3,,,,,,,,,2,,,55,101
27585,note_on,0,0,3,,,,,,,,,2,,,43,101
27585,note_on,45,0,3,,,,,,,,,2,,,51,0
27600,note_on,30,0,1,,,,,,,,,0,,,67,0
27600,note_on,0,0,1,,,,,,,,,0,,,63,0
27600,note_on,0,0,3,,,,,,,,,2,,,43,0
27600,note_on,0,0,3,,,,,,,,,2,,,48,101
27600,note_on,0,0,3,,,,,,,,,2,,,60,101
27600,note_on,0,0,1,,,,,,,,,0,,,77,127
27600,note_on,0,0,1,,,,,,,,,0,,,67,119
27600,note_on,15,0,3,,,,,,,,,2,,,55,0
27630,control_change,0,0,1,,,,,,,,,0,64,0,,
27630,note_on,0,0,1,,,,,,,,,0,,,75,101
27630,note_on,0,0,1,,,,,,,,,0,,,67,101
27630,note_on,0,0,1,,,,,,,,,0,,,67,0
27630,note_on,30,0,1,,,,,,,,,0,,,77,0
27645,note_on,45,0,3,,,,,,,,,2,,,60,0
27645,note_on,0,0,3,,,,,,,,,2,,,62,101
27645,control_change,0,0,3,,,,,,,,,2,64,0,,
27645,note_on,0,0,3,,,,,,,,,2,,,48,0
27645,note_on,0,0,3,,,,,,,,,2,,,50,101
27660,note_on,0,0,1,,,,,,,,,0,,,86,127
27660,note_on,0,0,1,,,,,,,,,0,,,67,0
27660,note_on,30,0,1,,,,,,,,,0,,,75,0
27660,note_on,0,0,3,,,,,,,,,2,,,63,101
27660,note_on,0,0,1,,,,,,,,,0,,,79,119
27660,note_on,0,0,3,,,,,,,,,2,,,50,0
27660,note_on,15,0,3,,,,,,,,,2,,,62,0
27660,note_on,0,0,3,,,,,,,,,2,,,51,101
27690,note_on,0,0,1,,,,,,,,,0,,,79,0
27690,note_on,0,0,1,,,,,,,,,0,,,79,101
27690,note_on,0,0,1,,,,,,,,,0,,,84,101
27690,note_on,30,0,1,,,,,,,,,0,,,86,0
27705,note_on,45,0,3,,,,,,,,,2,,,63,0
27705,note_on,0,0,3,,,,,,,,,2,,,51,0
27705,note_on,0,0,3,,,,,,,,,2,,,38,101
27705,note_on,0,0,3,,,,,,,,,2,,,50,101
27720,note_on,0,0,3,,,,,,,,,2,,,51,101
27720,control_change,0,0,1,,,,,,,,,0,64,127,,
27720,note_on,0,0,3,,,,,,,,,2,,,39,101
27720,note_on,0,0,1,,,,,,,,,0,,,72,101
27720,note_on,0,0,1,,,,,,,,,0,,,67,101
27720,note_on,15,0,3,,,,,,,,,2,,,50,0
27720,note_on,0,0,3,,,,,,,,,2,,,38,0
27720,note_on,0,0,1,,,,,,,,,0,,,79,0
27720,note_on,30,0,1,,,,,,,,,0,,,84,0
27720,control_change,0,0,3,,,,,,,,,2,64,127,,
27750,note_on,0,0,1,,,,,,,,,0,,,74,101
27750,note_on,0,0,1,,,,,,,,,0,,,67,101
27750,note_on,0,0,1,,,,,,,,,0,,,67,0
27750,note_on,30,0,1,,,,,,,,,0,,,72,0
27765,note_on,0,0,3,,,,,,,,,2,,,50,101
27765,note_on,0,0,3,,,,,,,,,2,,,38,101
27765,note_on,0,0,3,,,,,,,,,2,,,39,0
27765,note_on,45,0,3,,,,,,,,,2,,,51,0
27780,note_on,0,0,1,,,,,,,,,0,,,67,0
27780,note_on,0,0,1,,,,,,,,,0,,,67,101
27780,note_on,0,0,1,,,,,,,,,0,,,75,101
27780,note_on,0,0,3,,,,,,,,,2,,,48,101
27780,control_change,0,0,1,,,,,,,,,0,64,0,,
27780,control_change,0,0,3,,,,,,,,,2,64,0,,
27780,note_on,0,0,3,,,,,,,,,2,,,38,0
27780,note_on,15,0,3,,,,,,,,,2,,,50,0
27780,note_on,30,0,1,,,,,,,,,0,,,74,0
27780,note_on,0,0,3,,,,,,,,,2,,,36,101
27810,note_on,0,0,1,,,,,,,,,0,,,67,0
27810,note_on,0,0,1,,,,,,,,,0,,,67,101
27810,note_on,30,0,1,,,,,,,,,0,,,75,0
27810,note_on,0,0,1,,,,,,,,,0,,,77,101
27825,note_on,45,0,3,,,,,,,,,2,,,48,0
27825,note_on,0,0,3,,,,,,,,,2,,,36,0
27825,note_on,0,0,3,,,,,,,,,2,,,35,101
27825,note_on,0,0,3,,,,,,,,,2,,,47,101
27840,note_on,0,0,1,,,,,,,,,0,,,67,0
27840,note_on,30,0,1,,,,,,,,,0,,,77,0
27840,note_on,0,0,1,,,,,,,,,0,,,75,101
27840,note_on,15,0,3,,,,,,,,,2,,,47,0
27840,note_on,0,0,3,,,,,,,,,2,,,35,0
27840,note_on,0,0,1,,,,,,,,,0,,,67,101
27840,note_on,0,0,3,,,,,,,,,2,,,48,101
27840,note_on,0,0,3,,,,,,,,,2,,,36,101
27870,note_on,30,0,1,,,,,,,,,0,,,75,0
27870,note_on,0,0,1,,,,,,,,,0,,,67,0
27870,note_on,0,0,1,,,,,,,,,0,,,66,101
27870,note_on,0,0,1,,,,,,,,,0,,,69,101
27870,note_on,0,0,1,,,,,,,,,0,,,74,101
27885,note_on,45,0,3,,,,,,,,,2,,,48,0
27885,note_on,0,0,3,,,,,,,,,2,,,36,0
27885,note_on,0,0,3,,,,,,,,,2,,,38,101
27885,note_on,0,0,3,,,,,,,,,2,,,50,101
27900,note_on,30,0,1,,,,,,,,,0,,,74,0
27900,note_on,0,0,1,,,,,,,,,0,,,69,0
27900,note_on,0,0,1,,,,,,,,,0,,,66,114
27900,note_on,0,0,1,,,,,,,,,0,,,63,114
27900,note_on,0,0,1,,,,,,,,,0,,,69,114
27900,note_on,0,0,1,,,,,,,,,0,,,72,114
27900,note_on,0,0,3,,,,,,,,,2,,,43,101
27900,note_on,0,0,3,,,,,,,,,2,,,31,101
27900,note_on,0,0,3,,,,,,,,,2,,,38,0
27900,note_on,15,0,3,,,,,,,,,2,,,50,0
27900,note_on,0,0,1,,,,,,,,,0,,,66,0
27960,note_on,0,0,1,,,,,,,,,0,,,71,114
27960,note_on,0,0,1,,,,,,,,,0,,,63,0
27960,note_on,0,0,1,,,,,,,,,0,,,66,0
27960,note_on,0,0,1,,,,,,,,,0,,,62,114
27960,note_on,0,0,1,,,,,,,,,0,,,67,114
27960,note_on,60,0,1,,,,,,,,,0,,,72,0
27960,note_on,0,0,1,,,,,,,,,0,,,69,0
27990,note_on,0,0,3,,,,,,,,,2,,,31,0
27990,note_on,0,0,3,,,,,,,,,2,,,55,101
27990,note_on,0,0,1,,,,,,,,,0,,,67,0
27990,note_on,0,0,1,,,,,,,,,0,,,62,0
27990,note_on,30,0,1,,,,,,,,,0,,,71,0
27990,note_on,90,0,3,,,,,,,,,2,,,43,0
28020,note_on,30,0,3,,,,,,,,,2,,,55,0
28020,note_on,0,0,3,,,,,,,,,2,,,55,101
28050,note_on,30,0,3,,,,,,,,,2,,,55,0
28050,note_on,0,0,3,,,,,,,,,2,,,55,101
28050,note_on,60,0,1,,,,,,,,,0,,,59,114
28050,note_on,0,0,1,,,,,,,,,0,,,71,114
28080,note_on,0,0,1,,,,,,,,,0,,,60,127
28080,note_on,30,0,1,,,,,,,,,0,,,71,0
28080,control_change,0,0,1,,,,,,,,,0,64,127,,
28080,note_on,0,0,1,,,,,,,,,0,,,59,0
28080,note_on,0,0,3,,,,,,,,,2,,,56,101
28080,note_on,0,0,3,,,,,,,,,2,,,55,101
28080,control_change,0,0,3,,,,,,,,,2,64,127,,
28080,note_on,30,0,3,,,,,,,,,2,,,55,0
28080,note_on,0,0,1,,,,,,,,,0,,,72,127
28110,note_on,0,0,3,,,,,,,,,2,,,53,101
28110,note_on,0,0,3,,,,,,,,,2,,,55,0
28110,note_on,30,0,3,,,,,,,,,2,,,56,0
28110,note_on,0,0,3,,,,,,,,,2,,,56,101
28125,note_on,0,0,1,,,,,,,,,0,,,63,114
28125,note_on,45,0,1,,,,,,,,,0,,,72,0
28125,note_on,0,0,1,,,,,,,,,0,,,60,0
28125,note_on,0,0,1,,,,,,,,,0,,,75,114
28140,note_on,15,0,1,,,,,,,,,0,,,75,0
28140,note_on,0,0,1,,,,,,,,,0,,,74,127
28140,note_on,0,0,1,,,,,,,,,0,,,62,127
28140,note_on,0,0,1,,,,,,,,,0,,,63,0
28140,note_on,0,0,3,,,,,,,,,2,,,55,101
28140,note_on,30,0,3,,,,,,,,,2,,,56,0
28140,note_on,0,0,3,,,,,,,,,2,,,53,0
28140,note_on,0,0,3,,,,,,,,,2,,,44,101
28170,note_on,0,0,3,,,,,,,,,2,,,53,101
28170,note_on,0,0,3,,,,,,,,,2,,,44,101
28170,control_change,0,0,3,,,,,,,,,2,64,0,,
28170,note_on,30,0,3,,,,,,,,,2,,,55,0
28170,note_on,0,0,3,,,,,,,,,2,,,44,0
28185,note_on,0,0,1,,,,,,,,,0,,,62,0
28185,control_change,0,0,1,,,,,,,,,0,64,0,,
28185,note_on,0,0,1,,,,,,,,,0,,,84,114
28185,note_on,0,0,1,,,,,,,,,0,,,72,114
28185,note_on,45,0,1,,,,,,,,,0,,,74,0
28200,note_on,0,0,1,,,,,,,,,0,,,71,127
28200,note_on,0,0,1,,,,,,,,,0,,,72,0
28200,note_on,15,0,1,,,,,,,,,0,,,84,0
28200,note_on,30,0,3,,,,,,,,,2,,,53,0
28200,note_on,0,0,3,,,,,,,,,2,,,44,0
28200,note_on,0,0,3,,,,,,,,,2,,,43,101
28200,note_on,0,0,3,,,,,,,,,2,,,44,101
28200,note_on,0,0,1,,,,,,,,,0,,,83,127
28230,note_on,30,0,3,,,,,,,,,2,,,44,0
28230,note_on,0,0,3,,,,,,,,,2,,,43,0
28230,note_on,0,0,3,,,,,,,,,2,,,41,101
28230,note_on,0,0,3,,,,,,,,,2,,,44,101
28245,note_on,0,0,1,,,,,,,,,0,,,71,0
28245,note_on,0,0,1,,,,,,,,,0,,,86,114
28245,note_on,45,0,1,,,,,,,,,0,,,83,0
28245,note_on,0,0,1,,,,,,,,,0,,,74,114
28260,note_on,15,0,1,,,,,,,,,0,,,86,0
28260,note_on,0,0,1,,,,,,,,,0,,,74,0
28260,note_on,0,0,1,,,,,,,,,0,,,63,127
28260,note_on,0,0,1,,,,,,,,,0,,,75,127
28260,control_change,0,0,1,,,,,,,,,0,64,127,,
28260,note_on,0,0,3,,,,,,,,,2,,,53,101
28260,control_change,0,0,3,,,,,,,,,2,64,127,,
28260,note_on,0,0,3,,,,,,,,,2,,,55,101
28260,note_on,30,0,3,,,,,,,,,2,,,44,0
28260,note_on,0,0,3,,,,,,,,,2,,,41,0
28290,note_on,30,0,3,,,,,,,,,2,,,55,0
28290,note_on,0,0,3,,,,,,,,,2,,,55,101
28290,note_on,0,0,3,,,,,,,,,2,,,51,101
28290,note_on,0,0,3,,,,,,,,,2,,,53,0
28305,note_on,45,0,1,,,,,,,,,0,,,75,0
28305,note_on,0,0,1,,,,,,,,,0,,,63,0
28305,note_on,0,0,1,,,,,,,,,0,,,67,114
28305,note_on,0,0,1,,,,,,,,,0,,,79,114
28320,note_on,15,0,1,,,,,,,,,0,,,79,0
28320,note_on,0,0,1,,,,,,,,,0,,,67,0
28320,note_on,0,0,1,,,,,,,,,0,,,72,127
28320,note_on,0,0,1,,,,,,,,,0,,,84,127
28320,note_on,30,0,3,,,,,,,,,2,,,55,0
28320,note_on,0,0,3,,,,,,,,,2,,,51,0
28320,note_on,0,0,3,,,,,,,,,2,,,43,101
28320,note_on,0,0,3,,,,,,,,,2,,,53,101
28350,control_change,0,0,3,,,,,,,,,2,64,0,,
28350,note_on,30,0,3,,,,,,,,,2,,,53,0
28350,note_on,0,0,3,,,,,,,,,2,,,43,0
28350,note_on,0,0,3,,,,,,,,,2,,,43,101
28350,note_on,0,0,3,,,,,,,,,2,,,51,101
28365,note_on,45,0,1,,,,,,,,,0,,,84,0
28365,note_on,0,0,1,,,,,,,,,0,,,72,0
28365,note_on,0,0,1,,,,,,,,,0,,,74,114
28365,note_on,0,0,1,,,,,,,,,0,,,86,114
28365,control_change,0,0,1,,,,,,,,,0,64,0,,
28380,note_on,0,0,1,,,,,,,,,0,,,87,127
28380,note_on,0,0,1,,,,,,,,,0,,,74,0
28380,note_on,0,0,1,,,,,,,,,0,,,75,127
28380,note_on,0,0,3,,,,,,,,,2,,,43,101
28380,note_on,0,0,3,,,,,,,,,2,,,38,101
28380,note_on,0,0,3,,,,,,,,,2,,,43,0
28380,note_on,30,0,3,,,,,,,,,2,,,51,0
28380,note_on,15,0,1,,,,,,,,,0,,,86,0
28410,note_on,0,0,3,,,,,,,,,2,,,43,101
28410,note_on,0,0,3,,,,,,,,,2,,,36,101
28410,note_on,30,0,3,,,,,,,,,2,,,43,0
28410,note_on,0,0,3,,,,,,,,,2,,,38,0
28425,note_on,45,0,1,,,,,,,,,0,,,87,0
28425,note_on,0,0,1,,,,,,,,,0,,,74,114
28425,note_on,0,0,1,,,,,,,,,0,,,62,114
28425,note_on,0,0,1,,,,,,,,,0,,,75,0
28440,note_on,0,0,1,,,,,,,,,0,,,75,101
28440,note_on,0,0,1,,,,,,,,,0,,,63,101
28440,note_on,0,0,1,,,,,,,,,0,,,62,0
28440,note_on,15,0,1,,,,,,,,,0,,,74,0
28440,note_on,0,0,3,,,,,,,,,2,,,39,88
28440,control_change,0,0,3,,,,,,,,,2,64,127,,
28440,note_on,0,0,3,,,,,,,,,2,,,36,0
28440,note_on,30,0,3,,,,,,,,,2,,,43,0
28440,control_change,0,0,1,,,,,,,,,0,64,127,,
28440,note_on,0,0,3,,,,,,,,,2,,,51,88
28485,note_on,0,0,1,,,,,,,,,0,,,74,101
28485,note_on,45,0,3,,,,,,,,,2,,,51,0
28485,note_on,0,0,3,,,,,,,,,2,,,39,0
28485,note_on,0,0,3,,,,,,,,,2,,,38,88
28485,note_on,0,0,3,,,,,,,,,2,,,50,88
28485,note_on,0,0,1,,,,,,,,,0,,,62,101
28485,note_on,0,0,1,,,,,,,,,0,,,63,0
28485,note_on,45,0,1,,,,,,,,,0,,,75,0
28500,note_on,0,0,1,,,,,,,,,0,,,72,101
28500,note_on,15,0,1,,,,,,,,,0,,,74,0
28500,note_on,0,0,1,,,,,,,,,0,,,62,0
28500,note_on,0,0,1,,,,,,,,,0,,,60,101
28500,note_on,0,0,3,,,,,,,,,2,,,48,88
28500,note_on,15,0,3,,,,,,,,,2,,,50,0
28500,note_on,0,0,3,,,,,,,,,2,,,38,0
28500,note_on,0,0,3,,,,,,,,,2,,,36,88
28545,note_on,45,0,1,,,,,,,,,0,,,72,0
28545,note_on,0,0,1,,,,,,,,,0,,,60,0
28545,note_on,0,0,1,,,,,,,,,0,,,59,101
28545,note_on,0,0,1,,,,,,,,,0,,,71,101
28545,control_change,0,0,1,,,,,,,,,0,64,0,,
28545,note_on,0,0,3,,,,,,,,,2,,,36,0
28545,note_on,45,0,3,,,,,,,,,2,,,48,0
28545,control_change,0,0,3,,,,,,,,,2,64,0,,
28545,note_on,0,0,3,,,,,,,,,2,,,35,88
28545,note_on,0,0,3,,,,,,,,,2,,,47,88
28560,note_on,15,0,3,,,,,,,,,2,,,47,0
28560,note_on,0,0,3,,,,,,,,,2,,,35,0
28560,note_on,0,0,3,,,,,,,,,2,,,36,88
28560,note_on,15,0,1,,,,,,,,,0,,,71,0
28560,note_on,0,0,3,,,,,,,,,2,,,48,88
28560,note_on,0,0,1,,,,,,,,,0,,,59,0
28560,note_on,0,0,1,,,,,,,,,0,,,60,101
28560,note_on,0,0,1,,,,,,,,,0,,,72,101
28605,note_on,45,0,1,,,,,,,,,0,,,72,0
28605,note_on,0,0,3,,,,,,,,,2,,,50,88
28605,note_on,0,0,1,,,,,,,,,0,,,60,0
28605,note_on,0,0,1,,,,,,,,,0,,,62,101
28605,note_on,45,0,3,,,,,,,,,2,,,48,0
28605,note_on,0,0,1,,,,,,,,,0,,,74,101
28605,note_on,0,0,3,,,,,,,,,2,,,36,0
28605,note_on,0,0,3,,,,,,,,,2,,,38,88
28620,note_on,0,0,3,,,,,,,,,2,,,43,88
28620,note_on,0,0,3,,,,,,,,,2,,,31,88
28620,note_on,0,0,3,,,,,,,,,2,,,38,0
28620,note_on,15,0,3,,,,,,,,,2,,,50,0
28620,note_on,0,0,1,,,,,,,,,0,,,62,0
28620,note_on,0,0,1,,,,,,,,,0,,,69,101
28620,note_on,15,0,1,,,,,,,,,0,,,74,0
28620,note_on,0,0,1,,,,,,,,,0,,,72,101
28620,note_on,0,0,1,,,,,,,,,0,,,75,101
28620,note_on,0,0,1,,,,,,,,,0,,,78,101
28680,note_on,0,0,1,,,,,,,,,0,,,79,101
28680,note_on,60,0,1,,,,,,,,,0,,,78,0
28680,note_on,0,0,1,,,,,,,,,0,,,74,101
28680,note_on,0,0,1,,,,,,,,,0,,,71,101
28680,note_on,0,0,1,,,,,,,,,0,,,75,0
28680,note_on,0,0,1,,,,,,,,,0,,,72,0
28680,note_on,0,0,1,,,,,,,,,0,,,69,0
28710,note_on,2220,0,2,,,,,,,,,1,,,67,36
28710,note_on,30,0,1,,,,,,,,,0,,,79,0
28710,note_on,90,0,3,,,,,,,,,2,,,43,0
28710,note_on,0,0,1,,,,,,,,,0,,,71,0
28710,note_on,0,0,3,,,,,,,,,2,,,31,0
28710,note_on,0,0,1,,,,,,,,,0,,,74,0
28740,note_on,30,0,3,,,,,,,,,2,,,60,49
28740,note_on,0,0,2,,,,,,,,,1,,,67,36
28740,note_on,30,0,2,,,,,,,,,1,,,67,0
28740,note_on,30,0,1,,,,,,,,,0,,,75,49
28746,note_on,6,0,3,,,,,,,,,2,,,60,0
28746,note_on,6,0,1,,,,,,,,,0,,,75,0
28770,note_on,30,0,2,,,,,,,,,1,,,67,0
28770,note_on,0,0,2,,,,,,,,,1,,,67,36
28800,note_on,0,0,1,,,,,,,,,0,,,77,49
28800,note_on,0,0,2,,,,,,,,,1,,,67,36
28800,control_change,0,0,2,,,,,,,,,1,64,127,,
28800,note_on,30,0,2,,,,,,,,,1,,,67,0
28800,control_change,54,0,3,,,,,,,,,2,64,127,,
28800,note_on,0,0,3,,,,,,,,,2,,,62,49
28800,control_change,54,0,1,,,,,,,,,0,64,127,,
28830,note_on,0,0,2,,,,,,,,,1,,,67,36
28830,note_on,30,0,2,,,,,,,,,1,,,67,0
28845,note_on,45,0,1,,,,,,,,,0,,,77,0
28845,note_on,45,0,3,,,,,,,,,2,,,62,0
28845,note_on,0,0,3,,,,,,,,,2,,,63,49
28845,note_on,0,0,1,,,,,,,,,0,,,79,49
28860,control_change,0,0,1,,,,,,,,,0,64,0,,
28860,note_on,15,0,1,,,,,,,,,0,,,79,0
28860,note_on,0,0,1,,,,,,,,,0,,,80,49
28860,note_on,0,0,2,,,,,,,,,1,,,67,36
28860,note_on,30,0,2,,,,,,,,,1,,,67,0
28860,note_on,0,0,3,,,,,,,,,2,,,65,49
28860,control_change,0,0,3,,,,,,,,,2,64,0,,
28860,note_on,15,0,3,,,,,,,,,2,,,63,0
28890,note_on,30,0,1,,,,,,,,,0,,,80,0
28890,note_on,0,0,2,,,,,,,,,1,,,67,36
28890,control_change,0,0,2,,,,,,,,,1,64,0,,
28890,note_on,30,0,2,,,,,,,,,1,,,67,0
28890,note_on,30,0,3,,,,,,,,,2,,,65,0
28920,note_on,30,0,2,,,,,,,,,1,,,67,0
28920,note_on,30,0,3,,,,,,,,,2,,,59,49
28920,note_on,30,0,1,,,,,,,,,0,,,74,49
28920,note_on,0,0,2,,,,,,,,,1,,,67,36
28926,note_on,6,0,3,,,,,,,,,2,,,59,0
28926,note_on,6,0,1,,,,,,,,,0,,,74,0
28950,note_on,0,0,2,,,,,,,,,1,,,67,36
28950,note_on,30,0,2,,,,,,,,,1,,,67,0
28965,note_on,39,0,1,,,,,,,,,0,,,77,49
28980,note_on,0,0,2,,,,,,,,,1,,,67,36
28980,control_change,0,0,2,,,,,,,,,1,64,127,,
28980,note_on,30,0,2,,,,,,,,,1,,,67,0
28980,control_change,54,0,3,,,,,,,,,2,64,127,,
28980,note_on,0,0,3,,,,,,,,,2,,,60,49
28980,note_on,0,0,1,,,,,,,,,0,,,75,49
28980,note_on,15,0,1,,,,,,,,,0,,,77,0
28980,control_change,0,0,1,,,,,,,,,0,64,127,,
28995,note_on,15,0,1,,,,,,,,,0,,,75,0
28995,note_on,0,0,1,,,,,,,,,0,,,74,49
29010,note_on,0,0,1,,,,,,,,,0,,,75,49
29010,note_on,15,0,1,,,,,,,,,0,,,74,0
29010,note_on,30,0,2,,,,,,,,,1,,,67,0
29010,note_on,0,0,2,,,,,,,,,1,,,67,36
29025,note_on,45,0,3,,,,,,,,,2,,,60,0
29025,note_on,15,0,1,,,,,,,,,0,,,75,0
29025,note_on,0,0,1,,,,,,,,,0,,,77,49
29025,note_on,0,0,3,,,,,,,,,2,,,62,49
29040,note_on,15,0,3,,,,,,,,,2,,,62,0
29040,control_change,0,0,3,,,,,,,,,2,64,0,,
29040,note_on,0,0,3,,,,,,,,,2,,,63,49
29040,note_on,30,0,2,,,,,,,,,1,,,67,0
29040,control_change,0,0,1,,,,,,,,,0,64,0,,
29040,note_on,0,0,1,,,,,,,,,0,,,79,49
29040,note_on,15,0,1,,,,,,,,,0,,,77,0
29040,note_on,0,0,2,,,,,,,,,1,,,67,36
29070,note_on,30,0,1,,,,,,,,,0,,,79,0
29070,note_on,30,0,2,,,,,,,,,1,,,67,0
29070,control_change,0,0,2,,,,,,,,,1,64,0,,
29070,note_on,0,0,2,,,,,,,,,1,,,67,36
29070,note_on,30,0,3,,,,,,,,,2,,,63,0
29100,note_on,30,0,3,,,,,,,,,2,,,51,49
29100,note_on,0,0,2,,,,,,,,,1,,,67,36
29100,note_on,30,0,2,,,,,,,,,1,,,67,0
29100,note_on,30,0,1,,,,,,,,,0,,,72,49
29106,note_on,6,0,1,,,,,,,,,0,,,72,0
29130,note_on,30,0,2,,,,,,,,,1,,,67,0
29130,note_on,0,0,2,,,,,,,,,1,,,67,36
29145,note_on,0,0,3,,,,,,,,,2,,,53,49
29145,note_on,45,0,3,,,,,,,,,2,,,51,0
29152,note_on,7,0,3,,,,,,,,,2,,,55,49
29153,note_on,1,0,3,,,,,,,,,2,,,53,0
29160,control_change,54,0,1,,,,,,,,,0,64,127,,
29160,control_change,0,0,3,,,,,,,,,2,64,127,,
29160,note_on,0,0,3,,,,,,,,,2,,,56,49
29160,note_on,0,0,2,,,,,,,,,1,,,67,36
29160,control_change,0,0,2,,,,,,,,,1,64,127,,
29160,note_on,30,0,2,,,,,,,,,1,,,67,0
29160,note_on,0,0,1,,,,,,,,,0,,,73,49
29160,note_on,7,0,3,,,,,,,,,2,,,55,0
29166,note_on,6,0,3,,,,,,,,,2,,,56,0
29171,note_on,11,0,1,,,,,,,,,0,,,75,49
29172,note_on,1,0,1,,,,,,,,,0,,,73,0
29183,note_on,11,0,1,,,,,,,,,0,,,75,0
29184,note_on,1,0,1,,,,,,,,,0,,,77,49
29190,note_on,30,0,2,,,,,,,,,1,,,67,0
29190,note_on,0,0,2,,,,,,,,,1,,,65,36
29195,note_on,11,0,1,,,,,,,,,0,,,75,49
29196,note_on,1,0,1,,,,,,,,,0,,,77,0
29207,note_on,11,0,1,,,,,,,,,0,,,75,0
29208,note_on,1,0,1,,,,,,,,,0,,,73,49
29220,note_on,12,0,1,,,,,,,,,0,,,73,0
29220,control_change,0,0,1,,,,,,,,,0,64,0,,
29220,note_on,0,0,1,,,,,,,,,0,,,73,49
29220,note_on,0,0,3,,,,,,,,,2,,,56,49
29220,control_change,54,0,3,,,,,,,,,2,64,0,,
29220,note_on,30,0,2,,,,,,,,,1,,,65,0
29220,control_change,0,0,2,,,,,,,,,1,64,0,,
29220,note_on,0,0,2,,,,,,,,,1,,,65,36
29226,note_on,6,0,3,,,,,,,,,2,,,56,0
29250,note_on,0,0,2,,,,,,,,,1,,,65,36
29250,note_on,30,0,2,,,,,,,,,1,,,65,0
29280,note_on,0,0,3,,,,,,,,,2,,,56,49
29280,note_on,54,0,3,,,,,,,,,2,,,44,49
29280,note_on,0,0,2,,,,,,,,,1,,,63,36
29280,note_on,60,0,1,,,,,,,,,0,,,73,0
29280,note_on,0,0,1,,,,,,,,,0,,,72,49
29280,note_on,30,0,2,,,,,,,,,1,,,65,0
29280,note_on,0,0,2,,,,,,,,,1,,,66,36
29286,note_on,6,0,3,,,,,,,,,2,,,56,0
29286,note_on,0,0,3,,,,,,,,,2,,,44,0
29310,note_on,0,0,2,,,,,,,,,1,,,66,36
29310,note_on,0,0,2,,,,,,,,,1,,,63,36
29310,note_on,0,0,2,,,,,,,,,1,,,63,0
29310,note_on,30,0,2,,,,,,,,,1,,,66,0
29340,note_on,54,0,3,,,,,,,,,2,,,44,49
29340,note_on,0,0,2,,,,,,,,,1,,,61,36
29340,control_change,0,0,2,,,,,,,,,1,64,127,,
29340,note_on,0,0,2,,,,,,,,,1,,,63,0
29340,note_on,30,0,2,,,,,,,,,1,,,66,0
29340,note_on,0,0,3,,,,,,,,,2,,,56,49
29340,note_on,0,0,2,,,,,,,,,1,,,65,36
29340,note_on,60,0,1,,,,,,,,,0,,,72,0
29340,note_on,0,0,1,,,,,,,,,0,,,73,49
29370,note_on,30,0,2,,,,,,,,,1,,,65,0
29370,note_on,0,0,2,,,,,,,,,1,,,68,36
29370,note_on,0,0,2,,,,,,,,,1,,,61,0
29400,note_on,30,0,2,,,,,,,,,1,,,68,0
29400,note_on,0,0,3,,,,,,,,,2,,,44,0
29400,note_on,60,0,3,,,,,,,,,2,,,56,0
29400,note_on,0,0,2,,,,,,,,,1,,,68,36
29400,note_on,60,0,1,,,,,,,,,0,,,73,0
29430,control_change,0,0,2,,,,,,,,,1,64,0,,
29430,note_on,0,0,2,,,,,,,,,1,,,68,36
29430,note_on,30,0,2,,,,,,,,,1,,,68,0
29445,note_on,45,0,3,,,,,,,,,2,,,54,49
29445,note_on,0,0,3,,,,,,,,,2,,,66,49
29460,note_on,30,0,2,,,,,,,,,1,,,68,0
29460,note_on,0,0,2,,,,,,,,,1,,,68,36
29460,note_on,15,0,3,,,,,,,,,2,,,66,0
29460,note_on,0,0,3,,,,,,,,,2,,,54,0
29460,note_on,0,0,3,,,,,,,,,2,,,53,49
29460,note_on,0,0,3,,,,,,,,,2,,,65,49
29490,note_on,30,0,2,,,,,,,,,1,,,68,0
29490,note_on,0,0,2,,,,,,,,,1,,,68,36
29505,note_on,0,0,3,,,,,,,,,2,,,61,49
29505,note_on,0,0,3,,,,,,,,,2,,,49,49
29505,note_on,0,0,3,,,,,,,,,2,,,53,0
29505,note_on,45,0,3,,,,,,,,,2,,,65,0
29520,note_on,0,0,3,,,,,,,,,2,,,49,0
29520,control_change,0,0,3,,,,,,,,,2,64,127,,
29520,note_on,0,0,3,,,,,,,,,2,,,47,49
29520,note_on,0,0,3,,,,,,,,,2,,,59,49
29520,control_change,120,0,1,,,,,,,,,0,64,127,,
29520,note_on,30,0,2,,,,,,,,,1,,,68,0
29520,note_on,0,0,1,,,,,,,,,0,,,67,54
29520,note_on,15,0,3,,,,,,,,,2,,,61,0
29520,note_on,0,0,1,,,,,,,,,0,,,68,62
29550,note_on,30,0,1,,,,,,,,,0,,,68,0
29550,note_on,0,0,1,,,,,,,,,0,,,68,36
29550,note_on,0,0,1,,,,,,,,,0,,,65,36
29550,note_on,0,0,1,,,,,,,,,0,,,67,0
29565,note_on,0,0,3,,,,,,,,,2,,,47,0
29565,note_on,45,0,3,,,,,,,,,2,,,59,0
29565,note_on,0,0,3,,,,,,,,,2,,,51,49
29565,note_on,0,0,3,,,,,,,,,2,,,63,49
29580,note_on,15,0,3,,,,,,,,,2,,,63,0
29580,note_on,0,0,3,,,,,,,,,2,,,51,0
29580,note_on,0,0,3,,,,,,,,,2,,,53,49
29580,note_on,0,0,1,,,,,,,,,0,,,74,62
29580,note_on,30,0,1,,,,,,,,,0,,,68,0
29580,note_on,0,0,1,,,,,,,,,0,,,65,0
29580,note_on,0,0,3,,,,,,,,,2,,,41,49
29580,note_on,0,0,1,,,,,,,,,0,,,72,54
29610,control_change,0,0,1,,,,,,,,,0,64,0,,
29610,note_on,0,0,1,,,,,,,,,0,,,74,36
29610,note_on,30,0,1,,,,,,,,,0,,,74,0
29610,note_on,0,0,1,,,,,,,,,0,,,72,0
29610,note_on,0,0,1,,,,,,,,,0,,,71,36
29625,control_change,0,0,3,,,,,,,,,2,64,0,,
29625,note_on,0,0,3,,,,,,,,,2,,,41,0
29625,note_on,0,0,3,,,,,,,,,2,,,43,49
29625,note_on,0,0,3,,,,,,,,,2,,,56,49
29625,note_on,45,0,3,,,,,,,,,2,,,53,0
29640,note_on,30,0,1,,,,,,,,,0,,,74,0
29640,note_on,0,0,1,,,,,,,,,0,,,71,0
29640,note_on,0,0,1,,,,,,,,,0,,,80,57
29640,note_on,0,0,1,,,,,,,,,0,,,86,62
29640,note_on,15,0,3,,,,,,,,,2,,,56,0
29640,note_on,0,0,3,,,,,,,,,2,,,43,0
29640,note_on,0,0,3,,,,,,,,,2,,,35,49
29640,note_on,0,0,3,,,,,,,,,2,,,47,49
29640,note_on,0,0,1,,,,,,,,,0,,,79,52
29670,note_on,0,0,1,,,,,,,,,0,,,80,0
29670,note_on,0,0,1,,,,,,,,,0,,,79,0
29670,note_on,30,0,1,,,,,,,,,0,,,86,0
29670,note_on,0,0,1,,,,,,,,,0,,,77,36
29670,note_on,0,0,1,,,,,,,,,0,,,86,36
29670,note_on,0,0,1,,,,,,,,,0,,,80,36
29685,note_on,45,0,3,,,,,,,,,2,,,47,0
29685,note_on,0,0,3,,,,,,,,,2,,,35,0
29685,note_on,0,0,3,,,,,,,,,2,,,51,49
29685,note_on,0,0,3,,,,,,,,,2,,,63,49
29700,control_change,0,0,1,,,,,,,,,0,64,127,,
29700,note_on,0,0,1,,,,,,,,,0,,,67,62
29700,note_on,0,0,1,,,,,,,,,0,,,65,54
29700,note_on,0,0,1,,,,,,,,,0,,,77,0
29700,control_change,0,0,3,,,,,,,,,2,64,127,,
29700,note_on,0,0,3,,,,,,,,,2,,,51,0
29700,note_on,30,0,1,,,,,,,,,0,,,86,0
29700,note_on,15,0,3,,,,,,,,,2,,,63,0
29700,note_on,0,0,1,,,,,,,,,0,,,80,0
29700,note_on,0,0,3,,,,,,,,,2,,,48,49
29730,note_on,0,0,1,,,,,,,,,0,,,65,0
29730,note_on,0,0,1,,,,,,,,,0,,,63,36
29730,note_on,30,0,1,,,,,,,,,0,,,67,0
29730,note_on,0,0,1,,,,,,,,,0,,,67,36
29745,note_on,0,0,3,,,,,,,,,2,,,55,49
29745,note_on,45,0,3,,,,,,,,,2,,,48,0
29760,note_on,0,0,1,,,,,,,,,0,,,63,0
29760,note_on,0,0,1,,,,,,,,,0,,,75,62
29760,note_on,0,0,1,,,,,,,,,0,,,74,54
29760,note_on,0,0,3,,,,,,,,,2,,,43,49
29760,note_on,30,0,1,,,,,,,,,0,,,67,0
29760,note_on,15,0,3,,,,,,,,,2,,,55,0
29790,control_change,0,0,1,,,,,,,,,0,64,0,,
29790,note_on,30,0,1,,,,,,,,,0,,,75,0
29790,note_on,0,0,1,,,,,,,,,0,,,74,0
29790,note_on,0,0,1,,,,,,,,,0,,,75,36
29790,note_on,0,0,1,,,,,,,,,0,,,72,36
29805,note_on,0,0,3,,,,,,,,,2,,,48,49
29805,control_change,0,0,3,,,,,,,,,2,64,0,,
29805,note_on,45,0,3,,,,,,,,,2,,,43,0
29820,note_on,0,0,1,,,,,,,,,0,,,84,62
29820,note_on,0,0,3,,,,,,,,,2,,,36,49
29820,note_on,0,0,1,,,,,,,,,0,,,79,57
29820,note_on,0,0,1,,,,,,,,,0,,,77,52
29820,note_on,0,0,1,,,,,,,,,0,,,72,0
29820,note_on,15,0,3,,,,,,,,,2,,,48,0
29820,note_on,30,0,1,,,,,,,,,0,,,75,0
29850,note_on,0,0,1,,,,,,,,,0,,,79,0
29850,note_on,0,0,1,,,,,,,,,0,,,77,0
29850,note_on,30,0,1,,,,,,,,,0,,,84,0
29850,note_on,0,0,1,,,,,,,,,0,,,75,36
29850,note_on,0,0,1,,,,,,,,,0,,,79,36
29850,note_on,0,0,1,,,,,,,,,0,,,84,36
29865,note_on,45,0,3,,,,,,,,,2,,,36,0
29865,note_on,0,0,3,,,,,,,,,2,,,39,49
29880,note_on,15,0,3,,,,,,,,,2,,,39,0
29880,control_change,0,0,1,,,,,,,,,0,64,127,,
29880,note_on,0,0,1,,,,,,,,,0,,,75,0
29880,note_on,0,0,1,,,,,,,,,0,,,79,0
29880,note_on,30,0,1,,,,,,,,,0,,,84,0
29880,note_on,0,0,1,,,,,,,,,0,,,87,36
29880,note_on,0,0,1,,,,,,,,,0,,,77,36
29880,control_change,0,0,3,,,,,,,,,2,64,127,,
29880,note_on,0,0,3,,,,,,,,,2,,,29,49
29910,note_on,0,0,1,,,,,,,,,0,,,77,36
29910,note_on,0,0,1,,,,,,,,,0,,,77,0
29910,note_on,30,0,1,,,,,,,,,0,,,87,0
29910,note_on,0,0,1,,,,,,,,,0,,,85,36
29925,note_on,0,0,3,,,,,,,,,2,,,32,49
29925,note_on,45,0,3,,,,,,,,,2,,,29,0
29940,note_on,15,0,3,,,,,,,,,2,,,32,0
29940,note_on,0,0,3,,,,,,,,,2,,,31,49
29940,note_on,0,0,1,,,,,,,,,0,,,73,36
29940,note_on,0,0,1,,,,,,,,,0,,,63,36
29940,note_on,0,0,1,,,,,,,,,0,,,77,0
29940,note_on,30,0,1,,,,,,,,,0,,,85,0
29970,note_on,0,0,1,,,,,,,,,0,,,63,36
29970,control_change,0,0,1,,,,,,,,,0,64,0,,
29970,note_on,0,0,1,,,,,,,,,0,,,63,0
29970,note_on,30,0,1,,,,,,,,,0,,,73,0
29970,note_on,0,0,1,,,,,,,,,0,,,72,36
29985,note_on,0,0,3,,,,,,,,,2,,,31,49
29985,note_on,45,0,3,,,,,,,,,2,,,31,0
29985,control_change,0,0,3,,,,,,,,,2,64,0,,
30000,note_on,30,0,1,,,,,,,,,0,,,72,0
30000,note_on,0,0,1,,,,,,,,,0,,,63,0
30000,note_on,0,0,2,,,,,,,,,1,,,53,49
30000,note_on,15,0,3,,,,,,,,,2,,,31,0
30000,note_on,0,0,2,,,,,,,,,1,,,60,49
30000,note_on,480,0,2,,,,,,,,,1,,,50,49
30000,note_on,0,0,2,,,,,,,,,1,,,56,49
30000,note_on,0,0,3,,,,,,,,,2,,,31,49
30030,note_on,0,0,2,,,,,,,,,1,,,53,49
30030,note_on,30,0,2,,,,,,,,,1,,,60,0
30030,note_on,0,0,2,,,,,,,,,1,,,50,0
30030,note_on,0,0,2,,,,,,,,,1,,,53,0
30030,note_on,0,0,2,,,,,,,,,1,,,56,0
30030,note_on,0,0,2,,,,,,,,,1,,,50,49
30030,note_on,0,0,2,,,,,,,,,1,,,55,49
30030,note_on,0,0,2,,,,,,,,,1,,,59,49
30045,note_on,0,0,3,,,,,,,,,2,,,31,49
30045,note_on,45,0,3,,,,,,,,,2,,,31,0
30060,note_on,0,0,1,,,,,,,,,0,,,55,36
30060,note_on,0,0,2,,,,,,,,,1,,,55,0
30060,note_on,0,0,2,,,,,,,,,1,,,53,0
30060,note_on,0,0,2,,,,,,,,,1,,,50,0
30060,note_on,30,0,2,,,,,,,,,1,,,59,0
30060,control_change,60,0,1,,,,,,,,,0,64,127,,
30060,note_on,0,0,1,,,,,,,,,0,,,51,36
30060,note_on,0,0,1,,,,,,,,,0,,,60,36
30060,note_on,15,0,3,,,,,,,,,2,,,31,0
30060,note_on,0,0,3,,,,,,,,,2,,,48,49
30090,note_on,30,0,1,,,,,,,,,0,,,60,0
30090,note_on,0,0,1,,,,,,,,,0,,,55,0
30090,note_on,0,0,1,,,,,,,,,0,,,51,0
30090,note_on,0,0,1,,,,,,,,,0,,,67,62
30120,note_on,30,0,1,,,,,,,,,0,,,67,0
30120,note_on,0,0,1,,,,,,,,,0,,,67,62
30120,note_on,60,0,3,,,,,,,,,2,,,48,0
30150,note_on,0,0,1,,,,,,,,,0,,,67,75
30150,control_change,0,0,1,,,,,,,,,0,64,0,,
30150,note_on,30,0,1,,,,,,,,,0,,,67,0
30180,note_on,0,0,1,,,,,,,,,0,,,67,88
30180,note_on,30,0,1,,,,,,,,,0,,,67,0
30210,note_on,0,0,1,,,,,,,,,0,,,67,88
30210,note_on,0,0,3,,,,,,,,,2,,,51,88
30210,note_on,90,0,3,,,,,,,,,2,,,39,88
30210,note_on,30,0,1,,,,,,,,,0,,,67,0
30240,note_on,30,0,1,,,,,,,,,0,,,67,0
30240,note_on,0,0,3,,,,,,,,,2,,,48,101
30240,note_on,0,0,1,,,,,,,,,0,,,68,127
30240,control_change,0,0,1,,,,,,,,,0,64,127,,
30240,note_on,0,0,1,,,,,,,,,0,,,67,119
30240,note_on,0,0,3,,,,,,,,,2,,,36,101
30240,control_change,0,0,3,,,,,,,,,2,64,127,,
30240,note_on,0,0,3,,,,,,,,,2,,,39,0
30240,note_on,30,0,3,,,,,,,,,2,,,51,0
30270,note_on,30,0,1,,,,,,,,,0,,,68,0
30270,note_on,0,0,1,,,,,,,,,0,,,67,0
30270,note_on,0,0,1,,,,,,,,,0,,,65,101
30270,note_on,0,0,1,,,,,,,,,0,,,68,101
30285,note_on,0,0,3,,,,,,,,,2,,,51,101
30285,note_on,45,0,3,,,,,,,,,2,,,48,0
30285,note_on,0,0,3,,,,,,,,,2,,,36,0
30285,note_on,0,0,3,,,,,,,,,2,,,39,101
30300,control_change,0,0,1,,,,,,,,,0,64,0,,
30300,note_on,0,0,3,,,,,,,,,2,,,38,101
30300,note_on,0,0,1,,,,,,,,,0,,,68,119
30300,note_on,0,0,1,,,,,,,,,0,,,65,0
30300,note_on,30,0,1,,,,,,,,,0,,,68,0
30300,note_on,15,0,3,,,,,,,,,2,,,51,0
30300,note_on,0,0,3,,,,,,,,,2,,,50,101
30300,note_on,0,0,3,,,,,,,,,2,,,39,0
30300,control_change,0,0,3,,,,,,,,,2,64,0,,
30300,note_on,0,0,1,,,,,,,,,0,,,79,127
30330,note_on,30,0,1,,,,,,,,,0,,,79,0
30330,note_on,0,0,1,,,,,,,,,0,,,68,0
30330,note_on,0,0,1,,,,,,,,,0,,,68,101
30330,note_on,0,0,1,,,,,,,,,0,,,77,101
30345,note_on,0,0,3,,,,,,,,,2,,,48,101
30345,note_on,45,0,3,,,,,,,,,2,,,50,0
30345,note_on,0,0,3,,,,,,,,,2,,,38,0
30345,note_on,0,0,3,,,,,,,,,2,,,60,101
30360,note_on,0,0,1,,,,,,,,,0,,,68,0
30360,note_on,0,0,1,,,,,,,,,0,,,86,127
30360,note_on,0,0,1,,,,,,,,,0,,,80,122
30360,note_on,0,0,1,,,,,,,,,0,,,79,117
30360,note_on,30,0,1,,,,,,,,,0,,,77,0
30360,note_on,15,0,3,,,,,,,,,2,,,60,0
30360,note_on,0,0,3,,,,,,,,,2,,,47,101
30360,note_on,0,0,3,,,,,,,,,2,,,59,101
30360,note_on,0,0,3,,,,,,,,,2,,,48,0
30390,note_on,0,0,1,,,,,,,,,0,,,80,101
30390,note_on,30,0,1,,,,,,,,,0,,,86,0
30390,note_on,0,0,1,,,,,,,,,0,,,80,0
30390,note_on,0,0,1,,,,,,,,,0,,,79,0
30390,note_on,0,0,1,,,,,,,,,0,,,77,101
30390,note_on,0,0,1,,,,,,,,,0,,,86,101
30405,note_on,0,0,3,,,,,,,,,2,,,47,0
30405,note_on,0,0,3,,,,,,,,,2,,,50,101
30405,note_on,0,0,3,,,,,,,,,2,,,62,101
30405,note_on,45,0,3,,,,,,,,,2,,,59,0
30420,note_on,0,0,1,,,,,,,,,0,,,80,0
30420,note_on,0,0,1,,,,,,,,,0,,,77,0
30420,note_on,0,0,1,,,,,,,,,0,,,65,119
30420,note_on,0,0,1,,,,,,,,,0,,,67,127
30420,control_change,0,0,1,,,,,,,,,0,64,127,,
30420,note_on,0,0,3,,,,,,,,,2,,,51,101
30420,note_on,15,0,3,,,,,,,,,2,,,62,0
30420,note_on,0,0,3,,,,,,,,,2,,,50,0
30420,control_change,0,0,3,,,,,,,,,2,64,127,,
30420,note_on,0,0,3,,,,,,,,,2,,,39,101
30420,note_on,30,0,1,,,,,,,,,0,,,86,0
30450,note_on,0,0,1,,,,,,,,,0,,,65,0
30450,note_on,30,0,1,,,,,,,,,0,,,67,0
30450,note_on,0,0,1,,,,,,,,,0,,,63,101
30450,note_on,0,0,1,,,,,,,,,0,,,67,101
30465,note_on,45,0,3,,,,,,,,,2,,,51,0
30465,note_on,0,0,3,,,,,,,,,2,,,39,0
30465,note_on,0,0,3,,,,,,,,,2,,,43,101
30465,note_on,0,0,3,,,,,,,,,2,,,55,101
30480,note_on,0,0,1,,,,,,,,,0,,,77,127
30480,note_on,0,0,1,,,,,,,,,0,,,67,119
30480,note_on,0,0,1,,,,,,,,,0,,,63,0
30480,note_on,30,0,1,,,,,,,,,0,,,67,0
30480,note_on,0,0,3,,,,,,,,,2,,,60,101
30480,note_on,0,0,3,,,,,,,,,2,,,48,101
30480,note_on,0,0,3,,,,,,,,,2,,,43,0
30480,note_on,15,0,3,,,,,,,,,2,,,55,0
30510,note_on,0,0,1,,,,,,,,,0,,,75,101
30510,note_on,30,0,1,,,,,,,,,0,,,77,0
30510,note_on,0,0,1,,,,,,,,,0,,,67,0
30510,note_on,0,0,1,,,,,,,,,0,,,67,101
30510,control_change,0,0,1,,,,,,,,,0,64,0,,
30525,note_on,0,0,3,,,,,,,,,2,,,62,101
30525,note_on,45,0,3,,,,,,,,,2,,,60,0
30525,note_on,0,0,3,,,,,,,,,2,,,48,0
30525,note_on,0,0,3,,,,,,,,,2,,,50,101
30525,control_change,0,0,3,,,,,,,,,2,64,0,,
30540,note_on,30,0,1,,,,,,,,,0,,,75,0
30540,note_on,0,0,1,,,,,,,,,0,,,86,127
30540,note_on,0,0,1,,,,,,,,,0,,,79,119
30540,note_on,0,0,3,,,,,,,,,2,,,63,101
30540,note_on,0,0,3,,,,,,,,,2,,,51,101
30540,note_on,0,0,3,,,,,,,,,2,,,50,0
30540,note_on,15,0,3,,,,,,,,,2,,,62,0
30540,note_on,0,0,1,,,,,,,,,0,,,67,0
30570,note_on,0,0,1,,,,,,,,,0,,,84,101
30570,note_on,0,0,1,,,,,,,,,0,,,79,101
30570,note_on,30,0,1,,,,,,,,,0,,,86,0
30570,note_on,0,0,1,,,,,,,,,0,,,79,0
30585,note_on,45,0,3,,,,,,,,,2,,,63,0
30585,note_on,0,0,3,,,,,,,,,2,,,51,0
30585,note_on,0,0,3,,,,,,,,,2,,,38,101
30585,note_on,0,0,3,,,,,,,,,2,,,50,101
30600,note_on,0,0,1,,,,,,,,,0,,,72,101
30600,note_on,0,0,3,,,,,,,,,2,,,39,101
30600,note_on,15,0,3,,,,,,,,,2,,,50,0
30600,control_change,0,0,3,,,,,,,,,2,64,127,,
30600,note_on,30,0,1,,,,,,,,,0,,,84,0
30600,note_on,0,0,1,,,,,,,,,0,,,79,0
30600,note_on,0,0,1,,,,,,,,,0,,,67,101
30600,note_on,0,0,3,,,,,,,,,2,,,51,101
30600,control_change,0,0,1,,,,,,,,,0,64,127,,
30600,note_on,0,0,3,,,,,,,,,2,,,38,0
30630,note_on,0,0,1,,,,,,,,,0,,,67,101
30630,note_on,30,0,1,,,,,,,,,0,,,72,0
30630,note_on,0,0,1,,,,,,,,,0,,,74,101
30630,note_on,0,0,1,,,,,,,,,0,,,67,0
30645,note_on,45,0,3,,,,,,,,,2,,,51,0
30645,note_on,0,0,3,,,,,,,,,2,,,50,101
30645,note_on,0,0,3,,,,,,,,,2,,,38,101
30645,note_on,0,0,3,,,,,,,,,2,,,39,0
30660,note_on,0,0,3,,,,,,,,,2,,,48,101
30660,note_on,0,0,3,,,,,,,,,2,,,36,101
30660,control_change,0,0,3,,,,,,,,,2,64,0,,
30660,note_on,0,0,3,,,,,,,,,2,,,38,0
30660,note_on,15,0,3,,,,,,,,,2,,,50,0
30660,note_on,30,0,1,,,,,,,,,0,,,74,0
30660,control_change,0,0,1,,,,,,,,,0,64,0,,
30660,note_on,0,0,1,,,,,,,,,0,,,75,101
30660,note_on,0,0,1,,,,,,,,,0,,,67,101
30660,note_on,0,0,1,,,,,,,,,0,,,67,0
30690,note_on,0,0,1,,,,,,,,,0,,,67,101
30690,note_on,0,0,1,,,,,,,,,0,,,67,0
30690,note_on,30,0,1,,,,,,,,,0,,,75,0
30690,note_on,0,0,1,,,,,,,,,0,,,77,101
30705,note_on,45,0,3,,,,,,,,,2,,,48,0
30705,note_on,0,0,3,,,,,,,,,2,,,36,0
30705,note_on,0,0,3,,,,,,,,,2,,,47,101
30705,note_on,0,0,3,,,,,,,,,2,,,35,101
30720,note_on,15,0,3,,,,,,,,,2,,,47,0
30720,note_on,0,0,3,,,,,,,,,2,,,35,0
30720,note_on,0,0,3,,,,,,,,,2,,,36,101
30720,note_on,0,0,3,,,,,,,,,2,,,48,101
30720,note_on,0,0,1,,,,,,,,,0,,,75,101
30720,note_on,0,0,1,,,,,,,,,0,,,67,101
30720,note_on,0,0,1,,,,,,,,,0,,,67,0
30720,note_on,30,0,1,,,,,,,,,0,,,77,0
30750,note_on,0,0,1,,,,,,,,,0,,,67,0
30750,note_on,30,0,1,,,,,,,,,0,,,75,0
30750,note_on,0,0,1,,,,,,,,,0,,,66,101
30750,note_on,0,0,1,,,,,,,,,0,,,69,101
30750,note_on,0,0,1,,,,,,,,,0,,,74,101
30765,note_on,0,0,3,,,,,,,,,2,,,50,101
30765,note_on,0,0,3,,,,,,,,,2,,,38,101
30765,note_on,45,0,3,,,,,,,,,2,,,48,0
30765,note_on,0,0,3,,,,,,,,,2,,,36,0
30780,note_on,0,0,3,,,,,,,,,2,,,31,101
30780,note_on,0,0,3,,,,,,,,,2,,,38,0
30780,note_on,15,0,3,,,,,,,,,2,,,50,0
30780,note_on,0,0,3,,,,,,,,,2,,,43,101
30780,note_on,0,0,1,,,,,,,,,0,,,72,114
30780,note_on,0,0,1,,,,,,,,,0,,,69,114
30780,note_on,0,0,1,,,,,,,,,0,,,66,114
30780,note_on,0,0,1,,,,,,,,,0,,,63,114
30780,note_on,0,0,1,,,,,,,,,0,,,69,0
30780,note_on,0,0,1,,,,,,,,,0,,,66,0
30780,note_on,30,0,1,,,,,,,,,0,,,74,0
30840,note_on,0,0,1,,,,,,,,,0,,,62,114
30840,note_on,60,0,1,,,,,,,,,0,,,72,0
30840,note_on,0,0,1,,,,,,,,,0,,,63,0
30840,note_on,0,0,1,,,,,,,,,0,,,66,0
30840,note_on,0,0,1,,,,,,,,,0,,,69,0
30840,note_on,0,0,1,,,,,,,,,0,,,67,114
30840,note_on,0,0,1,,,,,,,,,0,,,71,114
30870,note_on,0,0,3,,,,,,,,,2,,,31,0
30870,note_on,90,0,3,,,,,,,,,2,,,43,0
30870,note_on,0,0,3,,,,,,,,,2,,,55,101
30870,note_on,0,0,1,,,,,,,,,0,,,67,0
30870,note_on,0,0,1,,,,,,,,,0,,,62,0
30870,note_on,30,0,1,,,,,,,,,0,,,71,0
30900,note_on,30,0,3,,,,,,,,,2,,,55,0
30900,note_on,0,0,3,,,,,,,,,2,,,55,101
30930,note_on,60,0,1,,,,,,,,,0,,,59,114
30930,note_on,0,0,1,,,,,,,,,0,,,71,114
30930,note_on,30,0,3,,,,,,,,,2,,,55,0
30930,note_on,0,0,3,,,,,,,,,2,,,55,101
30960,note_on,30,0,3,,,,,,,,,2,,,55,0
30960,control_change,0,0,3,,,,,,,,,2,64,127,,
30960,note_on,0,0,1,,,,,,,,,0,,,72,127
30960,note_on,0,0,3,,,,,,,,,2,,,56,101
30960,note_on,0,0,1,,,,,,,,,0,,,60,127
30960,note_on,0,0,1,,,,,,,,,0,,,59,0
30960,note_on,30,0,1,,,,,,,,,0,,,71,0
30960,note_on,0,0,3,,,,,,,,,2,,,55,101
30960,control_change,0,0,1,,,,,,,,,0,64,127,,
30990,note_on,0,0,3,,,,,,,,,2,,,56,101
30990,note_on,0,0,3,,,,,,,,,2,,,55,0
30990,note_on,0,0,3,,,,,,,,,2,,,53,101
30990,note_on,30,0,3,,,,,,,,,2,,,56,0
31005,note_on,0,0,1,,,,,,,,,0,,,75,114
31005,note_on,45,0,1,,,,,,,,,0,,,72,0
31005,note_on,0,0,1,,,,,,,,,0,,,60,0
31005,note_on,0,0,1,,,,,,,,,0,,,63,114
31020,note_on,0,0,1,,,,,,,,,0,,,63,0
31020,note_on,15,0,1,,,,,,,,,0,,,75,0
31020,note_on,0,0,3,,,,,,,,,2,,,53,0
31020,note_on,30,0,3,,,,,,,,,2,,,56,0
31020,note_on,0,0,1,,,,,,,,,0,,,62,127
31020,note_on,0,0,1,,,,,,,,,0,,,74,127
31020,note_on,0,0,3,,,,,,,,,2,,,55,101
31020,note_on,0,0,3,,,,,,,,,2,,,44,101
31050,note_on,0,0,3,,,,,,,,,2,,,44,0
31050,control_change,0,0,3,,,,,,,,,2,64,0,,
31050,note_on,0,0,3,,,,,,,,,2,,,44,101
31050,note_on,0,0,3,,,,,,,,,2,,,53,101
31050,note_on,30,0,3,,,,,,,,,2,,,55,0
31065,control_change,0,0,1,,,,,,,,,0,64,0,,
31065,note_on,0,0,1,,,,,,,,,0,,,84,114
31065,note_on,0,0,1,,,,,,,,,0,,,72,114
31065,note_on,0,0,1,,,,,,,,,0,,,62,0
31065,note_on,45,0,1,,,,,,,,,0,,,74,0
31080,note_on,15,0,1,,,,,,,,,0,,,84,0
31080,note_on,0,0,1,,,,,,,,,0,,,72,0
31080,note_on,0,0,1,,,,,,,,,0,,,71,127
31080,note_on,0,0,3,,,,,,,,,2,,,44,101
31080,note_on,0,0,3,,,,,,,,,2,,,43,101
31080,note_on,0,0,3,,,,,,,,,2,,,44,0
31080,note_on,30,0,3,,,,,,,,,2,,,53,0
31080,note_on,0,0,1,,,,,,,,,0,,,83,127
31110,note_on,0,0,3,,,,,,,,,2,,,41,101
31110,note_on,0,0,3,,,,,,,,,2,,,43,0
31110,note_on,30,0,3,,,,,,,,,2,,,44,0
31110,note_on,0,0,3,,,,,,,,,2,,,44,101
31125,note_on,0,0,1,,,,,,,,,0,,,86,114
31125,note_on,0,0,1,,,,,,,,,0,,,74,114
31125,note_on,0,0,1,,,,,,,,,0,,,71,0
31125,note_on,45,0,1,,,,,,,,,0,,,83,0
31140,note_on,0,0,1,,,,,,,,,0,,,63,127
31140,note_on,0,0,1,,,,,,,,,0,,,74,0
31140,note_on,0,0,1,,,,,,,,,0,,,75,127
31140,control_change,0,0,1,,,,,,,,,0,64,127,,
31140,note_on,0,0,3,,,,,,,,,2,,,55,101
31140,note_on,0,0,3,,,,,,,,,2,,,53,101
31140,control_change,0,0,3,,,,,,,,,2,64,127,,
31140,note_on,0,0,3,,,,,,,,,2,,,41,0
31140,note_on,30,0,3,,,,,,,,,2,,,44,0
31140,note_on,15,0,1,,,,,,,,,0,,,86,0
31170,note_on,0,0,3,,,,,,,,,2,,,55,101
31170,note_on,30,0,3,,,,,,,,,2,,,55,0
31170,note_on,0,0,3,,,,,,,,,2,,,53,0
31170,note_on,0,0,3,,,,,,,,,2,,,51,101
31185,note_on,45,0,1,,,,,,,,,0,,,75,0
31185,note_on,0,0,1,,,,,,,,,0,,,67,114
31185,note_on,0,0,1,,,,,,,,,0,,,79,114
31185,note_on,0,0,1,,,,,,,,,0,,,63,0
31200,note_on,0,0,1,,,,,,,,,0,,,72,127
31200,note_on,15,0,1,,,,,,,,,0,,,79,0
31200,note_on,0,0,1,,,,,,,,,0,,,67,0
31200,note_on,0,0,1,,,,,,,,,0,,,84,127
31200,note_on,0,0,3,,,,,,,,,2,,,53,101
31200,note_on,0,0,3,,,,,,,,,2,,,43,101
31200,note_on,0,0,3,,,,,,,,,2,,,51,0
31200,note_on,30,0,3,,,,,,,,,2,,,55,0
31230,note_on,0,0,3,,,,,,,,,2,,,43,101
31230,note_on,0,0,3,,,,,,,,,2,,,51,101
31230,note_on,30,0,3,,,,,,,,,2,,,53,0
31230,note_on,0,0,3,,,,,,,,,2,,,43,0
31230,control_change,0,0,3,,,,,,,,,2,64,0,,
31245,note_on,0,0,1,,,,,,,,,0,,,72,0
31245,note_on,0,0,1,,,,,,,,,0,,,74,114
31245,note_on,0,0,1,,,,,,,,,0,,,86,114
31245,control_change,0,0,1,,,,,,,,,0,64,0,,
31245,note_on,45,0,1,,,,,,,,,0,,,84,0
31260,note_on,15,0,1,,,,,,,,,0,,,86,0
31260,note_on,0,0,1,,,,,,,,,0,,,75,127
31260,note_on,0,0,1,,,,,,,,,0,,,87,127
31260,note_on,0,0,1,,,,,,,,,0,,,74,0
31260,note_on,0,0,3,,,,,,,,,2,,,43,101
31260,note_on,0,0,3,,,,,,,,,2,,,38,101
31260,note_on,0,0,3,,,,,,,,,2,,,43,0
31260,note_on,30,0,3,,,,,,,,,2,,,51,0
31290,note_on,30,0,3,,,,,,,,,2,,,43,0
31290,note_on,0,0,3,,,,,,,,,2,,,38,0
31290,note_on,0,0,3,,,,,,,,,2,,,36,101
31290,note_on,0,0,3,,,,,,,,,2,,,43,101
31305,note_on,45,0,1,,,,,,,,,0,,,87,0
31305,note_on,0,0,1,,,,,,,,,0,,,75,0
31305,note_on,0,0,1,,,,,,,,,0,,,62,114
31305,note_on,0,0,1,,,,,,,,,0,,,74,114
31320,note_on,0,0,3,,,,,,,,,2,,,36,0
31320,control_change,0,0,3,,,,,,,,,2,64,127,,
31320,note_on,15,0,1,,,,,,,,,0,,,74,0
31320,note_on,30,0,3,,,,,,,,,2,,,43,0
31320,note_on,0,0,1,,,,,,,,,0,,,63,101
31320,note_on,0,0,1,,,,,,,,,0,,,75,101
31320,control_change,0,0,1,,,,,,,,,0,64,127,,
31320,note_on,0,0,1,,,,,,,,,0,,,62,0
31320,note_on,0,0,3,,,,,,,,,2,,,39,88
31320,note_on,0,0,3,,,,,,,,,2,,,51,88
31365,note_on,0,0,1,,,,,,,,,0,,,74,101
31365,note_on,0,0,3,,,,,,,,,2,,,50,88
31365,note_on,0,0,3,,,,,,,,,2,,,39,0
31365,note_on,45,0,3,,,,,,,,,2,,,51,0
31365,note_on,0,0,3,,,,,,,,,2,,,38,88
31365,note_on,45,0,1,,,,,,,,,0,,,75,0
31365,note_on,0,0,1,,,,,,,,,0,,,63,0
31365,note_on,0,0,1,,,,,,,,,0,,,62,101
31380,note_on,0,0,1,,,,,,,,,0,,,60,101
31380,note_on,0,0,3,,,,,,,,,2,,,48,88
31380,note_on,0,0,1,,,,,,,,,0,,,72,101
31380,note_on,0,0,3,,,,,,,,,2,,,38,0
31380,note_on,0,0,3,,,,,,,,,2,,,36,88
31380,note_on,15,0,1,,,,,,,,,0,,,74,0
31380,note_on,0,0,1,,,,,,,,,0,,,62,0
31380,note_on,15,0,3,,,,,,,,,2,,,50,0
31425,note_on,45,0,3,,,,,,,,,2,,,48,0
31425,note_on,0,0,3,,,,,,,,,2,,,36,0
31425,control_change,0,0,3,,,,,,,,,2,64,0,,
31425,note_on,0,0,3,,,,,,,,,2,,,35,88
31425,note_on,0,0,3,,,,,,,,,2,,,47,88
31425,control_change,0,0,1,,,,,,,,,0,64,0,,
31425,note_on,0,0,1,,,,,,,,,0,,,71,101
31425,note_on,0,0,1,,,,,,,,,0,,,59,101
31425,note_on,0,0,1,,,,,,,,,0,,,60,0
31425,note_on,45,0,1,,,,,,,,,0,,,72,0
31440,note_on,15,0,1,,,,,,,,,0,,,71,0
31440,note_on,0,0,1,,,,,,,,,0,,,59,0
31440,note_on,0,0,1,,,,,,,,,0,,,60,101
31440,note_on,0,0,1,,,,,,,,,0,,,72,101
31440,note_on,0,0,3,,,,,,,,,2,,,48,88
31440,note_on,0,0,3,,,,,,,,,2,,,36,88
31440,note_on,0,0,3,,,,,,,,,2,,,35,0
31440,note_on,15,0,3,,,,,,,,,2,,,47,0
31485,note_on,45,0,3,,,,,,,,,2,,,48,0
31485,note_on,0,0,3,,,,,,,,,2,,,50,88
31485,note_on,45,0,1,,,,,,,,,0,,,72,0
31485,note_on,0,0,1,,,,,,,,,0,,,60,0
31485,note_on,0,0,3,,,,,,,,,2,,,38,88
31485,note_on,0,0,1,,,,,,,,,0,,,74,101
31485,note_on,0,0,1,,,,,,,,,0,,,62,101
31485,note_on,0,0,3,,,,,,,,,2,,,36,0
31500,note_on,0,0,1,,,,,,,,,0,,,69,101
31500,note_on,0,0,3,,,,,,,,,2,,,31,88
31500,note_on,15,0,3,,,,,,,,,2,,,50,0
31500,note_on,0,0,3,,,,,,,,,2,,,38,0
31500,note_on,0,0,1,,,,,,,,,0,,,62,0
31500,note_on,0,0,3,,,,,,,,,2,,,43,88
31500,note_on,0,0,1,,,,,,,,,0,,,72,101
31500,note_on,0,0,1,,,,,,,,,0,,,75,101
31500,note_on,0,0,1,,,,,,,,,0,,,78,101
31500,note_on,15,0,1,,,,,,,,,0,,,74,0
31560,note_on,60,0,1,,,,,,,,,0,,,78,0
31560,note_on,0,0,1,,,,,,,,,0,,,79,101
31560,note_on,0,0,1,,,,,,,,,0,,,74,101
31560,note_on,0,0,1,,,,,,,,,0,,,75,0
31560,note_on,0,0,1,,,,,,,,,0,,,72,0
31560,note_on,0,0,1,,,,,,,,,0,,,69,0
31560,note_on,0,0,1,,,,,,,,,0,,,71,101
31590,note_on,90,0,3,,,,,,,,,2,,,43,0
31590,note_on,0,0,3,,,,,,,,,2,,,31,0
31590,note_on,0,0,1,,,,,,,,,0,,,71,0
31590,note_on,0,0,1,,,,,,,,,0,,,74,0
31590,note_on,30,0,1,,,,,,,,,0,,,79,0
31590,note_on,1530,0,2,,,,,,,,,1,,,67,36
31620,note_on,30,0,2,,,,,,,,,1,,,67,0
31620,note_on,0,0,2,,,,,,,,,1,,,67,36
31620,note_on,30,0,1,,,,,,,,,0,,,75,49
31620,note_on,30,0,3,,,,,,,,,2,,,60,49
31626,note_on,6,0,3,,,,,,,,,2,,,60,0
31626,note_on,6,0,1,,,,,,,,,0,,,75,0
31650,note_on,30,0,2,,,,,,,,,1,,,67,0
31650,note_on,0,0,2,,,,,,,,,1,,,67,36
31680,note_on,30,0,2,,,,,,,,,1,,,67,0
31680,control_change,0,0,2,,,,,,,,,1,64,127,,
31680,note_on,0,0,2,,,,,,,,,1,,,67,36
31680,control_change,54,0,1,,,,,,,,,0,64,127,,
31680,note_on,0,0,1,,,,,,,,,0,,,77,49
31680,note_on,0,0,3,,,,,,,,,2,,,62,49
31680,control_change,54,0,3,,,,,,,,,2,64,127,,
31710,note_on,0,0,2,,,,,,,,,1,,,67,36
31710,note_on,30,0,2,,,,,,,,,1,,,67,0
31725,note_on,45,0,1,,,,,,,,,0,,,77,0
31725,note_on,0,0,3,,,,,,,,,2,,,63,49
31725,note_on,45,0,3,,,,,,,,,2,,,62,0
31725,note_on,0,0,1,,,,,,,,,0,,,79,49
31740,note_on,0,0,2,,,,,,,,,1,,,67,36
31740,control_change,0,0,3,,,,,,,,,2,64,0,,
31740,note_on,30,0,2,,,,,,,,,1,,,67,0
31740,note_on,15,0,1,,,,,,,,,0,,,79,0
31740,control_change,0,0,1,,,,,,,,,0,64,0,,
31740,note_on,15,0,3,,,,,,,,,2,,,63,0
31740,note_on,0,0,1,,,,,,,,,0,,,80,49
31740,note_on,0,0,3,,,,,,,,,2,,,65,49
31770,note_on,30,0,1,,,,,,,,,0,,,80,0
31770,note_on,30,0,3,,,,,,,,,2,,,65,0
31770,note_on,30,0,2,,,,,,,,,1,,,67,0
31770,control_change,0,0,2,,,,,,,,,1,64,0,,
31770,note_on,0,0,2,,,,,,,,,1,,,67,36
31800,note_on,30,0,1,,,,,,,,,0,,,74,49
31800,note_on,30,0,3,,,,,,,,,2,,,59,49
31800,note_on,30,0,2,,,,,,,,,1,,,67,0
31800,note_on,0,0,2,,,,,,,,,1,,,67,36
31806,note_on,6,0,3,,,,,,,,,2,,,59,0
31806,note_on,6,0,1,,,,,,,,,0,,,74,0
31830,note_on,0,0,2,,,,,,,,,1,,,67,36
31830,note_on,30,0,2,,,,,,,,,1,,,67,0
31845,note_on,39,0,1,,,,,,,,,0,,,77,49
31860,note_on,30,0,2,,,,,,,,,1,,,67,0
31860,control_change,0,0,1,,,,,,,,,0,64,127,,
31860,control_change,0,0,2,,,,,,,,,1,64,127,,
31860,note_on,0,0,1,,,,,,,,,0,,,75,49
31860,note_on,0,0,2,,,,,,,,,1,,,67,36
31860,note_on,15,0,1,,,,,,,,,0,,,77,0
31860,control_change,54,0,3,,,,,,,,,2,64,127,,
31860,note_on,0,0,3,,,,,,,,,2,,,60,49
31875,note_on,15,0,1,,,,,,,,,0,,,75,0
31875,note_on,0,0,1,,,,,,,,,0,,,74,49
31890,note_on,0,0,2,,,,,,,,,1,,,67,36
31890,note_on,30,0,2,,,,,,,,,1,,,67,0
31890,note_on,15,0,1,,,,,,,,,0,,,74,0
31890,note_on,0,0,1,,,,,,,,,0,,,75,49
31905,note_on,0,0,3,,,,,,,,,2,,,62,49
31905,note_on,45,0,3,,,,,,,,,2,,,60,0
31905,note_on,0,0,1,,,,,,,,,0,,,77,49
31905,note_on,15,0,1,,,,,,,,,0,,,75,0
31920,note_on,15,0,1,,,,,,,,,0,,,77,0
31920,note_on,30,0,2,,,,,,,,,1,,,67,0
31920,control_change,0,0,1,,,,,,,,,0,64,0,,
31920,note_on,0,0,1,,,,,,,,,0,,,79,49
31920,note_on,15,0,3,,,,,,,,,2,,,62,0
31920,control_change,0,0,3,,,,,,,,,2,64,0,,
31920,note_on,0,0,3,,,,,,,,,2,,,63,49
31920,note_on,0,0,2,,,,,,,,,1,,,67,36
31950,note_on,0,0,2,,,,,,,,,1,,,67,36
31950,note_on,30,0,3,,,,,,,,,2,,,63,0
31950,note_on,30,0,2,,,,,,,,,1,,,67,0
31950,note_on,30,0,1,,,,,,,,,0,,,79,0
31950,control_change,0,0,2,,,,,,,,,1,64,0,,
31980,note_on,0,0,2,,,,,,,,,1,,,67,36
31980,note_on,30,0,1,,,,,,,,,0,,,72,49
31980,note_on,30,0,3,,,,,,,,,2,,,51,49
31980,note_on,30,0,2,,,,,,,,,1,,,67,0
31986,note_on,6,0,1,,,,,,,,,0,,,72,0
32010,note_on,0,0,2,,,,,,,,,1,,,67,36
32010,note_on,30,0,2,,,,,,,,,1,,,67,0
32025,note_on,45,0,3,,,,,,,,,2,,,51,0
32025,note_on,0,0,3,,,,,,,,,2,,,53,49
32032,note_on,7,0,3,,,,,,,,,2,,,55,49
32033,note_on,1,0,3,,,,,,,,,2,,,53,0
32040,control_change,54,0,1,,,,,,,,,0,64,127,,
32040,note_on,30,0,2,,,,,,,,,1,,,67,0
32040,control_change,0,0,2,,,,,,,,,1,64,127,,
32040,note_on,0,0,2,,,,,,,,,1,,,67,36
32040,control_change,0,0,3,,,,,,,,,2,64,127,,
32040,note_on,7,0,3,,,,,,,,,2,,,55,0
32040,note_on,0,0,3,,,,,,,,,2,,,56,49
32040,note_on,0,0,1,,,,,,,,,0,,,73,49
32046,note_on,6,0,3,,,,,,,,,2,,,56,0
32051,note_on,11,0,1,,,,,,,,,0,,,75,49
32052,note_on,1,0,1,,,,,,,,,0,,,73,0
32063,note_on,11,0,1,,,,,,,,,0,,,75,0
32064,note_on,1,0,1,,,,,,,,,0,,,77,49
32070,note_on,0,0,2,,,,,,,,,1,,,65,36
32070,note_on,30,0,2,,,,,,,,,1,,,67,0
32075,note_on,11,0,1,,,,,,,,,0,,,75,49
32076,note_on,1,0,1,,,,,,,,,0,,,77,0
32087,note_on,11,0,1,,,,,,,,,0,,,75,0
32088,note_on,1,0,1,,,,,,,,,0,,,73,49
32100,control_change,0,0,1,,,,,,,,,0,64,0,,
32100,note_on,0,0,3,,,,,,,,,2,,,56,49
32100,note_on,12,0,1,,,,,,,,,0,,,73,0
32100,note_on,0,0,1,,,,,,,,,0,,,73,49
32100,note_on,0,0,2,,,,,,,,,1,,,65,36
32100,control_change,0,0,2,,,,,,,,,1,64,0,,
32100,note_on,30,0,2,,,,,,,,,1,,,65,0
32100,control_change,54,0,3,,,,,,,,,2,64,0,,
32106,note_on,6,0,3,,,,,,,,,2,,,56,0
32130,note_on,0,0,2,,,,,,,,,1,,,65,36
32130,note_on,30,0,2,,,,,,,,,1,,,65,0
32160,note_on,0,0,1,,,,,,,,,0,,,72,49
32160,note_on,54,0,3,,,,,,,,,2,,,44,49
32160,note_on,60,0,1,,,,,,,,,0,,,73,0
32160,note_on,0,0,2,,,,,,,,,1,,,66,36
32160,note_on,0,0,2,,,,,,,,,1,,,63,36
32160,note_on,30,0,2,,,,,,,,,1,,,65,0
32160,note_on,0,0,3,,,,,,,,,2,,,56,49
32166,note_on,0,0,3,,,,,,,,,2,,,44,0
32166,note_on,6,0,3,,,,,,,,,2,,,56,0
32190,note_on,30,0,2,,,,,,,,,1,,,66,0
32190,note_on,0,0,2,,,,,,,,,1,,,63,0
32190,note_on,0,0,2,,,,,,,,,1,,,63,36
32190,note_on,0,0,2,,,,,,,,,1,,,66,36
32220,note_on,0,0,2,,,,,,,,,1,,,63,0
32220,note_on,0,0,1,,,,,,,,,0,,,73,49
32220,note_on,60,0,1,,,,,,,,,0,,,72,0
32220,note_on,30,0,2,,,,,,,,,1,,,66,0
32220,control_change,0,0,2,,,,,,,,,1,64,127,,
32220,note_on,0,0,3,,,,,,,,,2,,,56,49
32220,note_on,0,0,2,,,,,,,,,1,,,65,36
32220,note_on,0,0,2,,,,,,,,,1,,,61,36
32220,note_on,54,0,3,,,,,,,,,2,,,44,49
32250,note_on,30,0,2,,,,,,,,,1,,,65,0
32250,note_on,0,0,2,,,,,,,,,1,,,61,0
32250,note_on,0,0,2,,,,,,,,,1,,,68,36
32280,note_on,30,0,2,,,,,,,,,1,,,68,0
32280,note_on,0,0,2,,,,,,,,,1,,,68,36
32280,note_on,60,0,1,,,,,,,,,0,,,73,0
32280,note_on,0,0,3,,,,,,,,,2,,,44,0
32280,note_on,60,0,3,,,,,,,,,2,,,56,0
32310,note_on,30,0,2,,,,,,,,,1,,,68,0
32310,note_on,0,0,2,,,,,,,,,1,,,68,36
32310,control_change,0,0,2,,,,,,,,,1,64,0,,
32325,note_on,45,0,3,,,,,,,,,2,,,54,49
32325,note_on,0,0,3,,,,,,,,,2,,,66,49
32340,note_on,0,0,3,,,,,,,,,2,,,54,0
32340,note_on,30,0,2,,,,,,,,,1,,,68,0
32340,note_on,0,0,2,,,,,,,,,1,,,68,36
32340,note_on,15,0,3,,,,,,,,,2,,,66,0
32340,note_on,0,0,3,,,,,,,,,2,,,53,49
32340,note_on,0,0,3,,,,,,,,,2,,,65,49
32370,note_on,0,0,2,,,,,,,,,1,,,68,36
32370,note_on,30,0,2,,,,,,,,,1,,,68,0
32385,note_on,45,0,3,,,,,,,,,2,,,65,0
32385,note_on,0,0,3,,,,,,,,,2,,,53,0
32385,note_on,0,0,3,,,,,,,,,2,,,49,49
32385,note_on,0,0,3,,,,,,,,,2,,,61,49
32400,note_on,0,0,3,,,,,,,,,2,,,49,0
32400,note_on,0,0,1,,,,,,,,,0,,,68,62
32400,note_on,0,0,3,,,,,,,,,2,,,59,49
32400,control_change,120,0,1,,,,,,,,,0,64,127,,
32400,note_on,0,0,3,,,,,,,,,2,,,47,49
32400,note_on,30,0,2,,,,,,,,,1,,,68,0
32400,note_on,15,0,3,,,,,,,,,2,,,61,0
32400,note_on,0,0,1,,,,,,,,,0,,,67,54
32400,control_change,0,0,3,,,,,,,,,2,64,127,,
32430,note_on,0,0,1,,,,,,,,,0,,,68,36
32430,note_on,0,0,1,,,,,,,,,0,,,65,36
32430,note_on,0,0,1,,,,,,,,,0,,,67,0
32430,note_on,30,0,1,,,,,,,,,0,,,68,0
32445,note_on,0,0,3,,,,,,,,,2,,,47,0
32445,note_on,45,0,3,,,,,,,,,2,,,59,0
32445,note_on,0,0,3,,,,,,,,,2,,,63,49
32445,note_on,0,0,3,,,,,,,,,2,,,51,49
32460,note_on,15,0,3,,,,,,,,,2,,,63,0
32460,note_on,0,0,3,,,,,,,,,2,,,51,0
32460,note_on,0,0,3,,,,,,,,,2,,,41,49
32460,note_on,0,0,3,,,,,,,,,2,,,53,49
32460,note_on,0,0,1,,,,,,,,,0,,,74,62
32460,note_on,0,0,1,,,,,,,,,0,,,72,54
32460,note_on,30,0,1,,,,,,,,,0,,,68,0
32460,note_on,0,0,1,,,,,,,,,0,,,65,0
32490,control_change,0,0,1,,,,,,,,,0,64,0,,
32490,note_on,0,0,1,,,,,,,,,0,,,74,36
32490,note_on,0,0,1,,,,,,,,,0,,,71,36
32490,note_on,0,0,1,,,,,,,,,0,,,72,0
32490,note_on,30,0,1,,,,,,,,,0,,,74,0
32505,note_on,0,0,3,,,,,,,,,2,,,56,49
32505,note_on,0,0,3,,,,,,,,,2,,,43,49
32505,control_change,0,0,3,,,,,,,,,2,64,0,,
32505,note_on,0,0,3,,,,,,,,,2,,,41,0
32505,note_on,45,0,3,,,,,,,,,2,,,53,0
32520,note_on,0,0,1,,,,,,,,,0,,,79,52
32520,note_on,30,0,1,,,,,,,,,0,,,74,0
32520,note_on,0,0,1,,,,,,,,,0,,,71,0
32520,note_on,15,0,3,,,,,,,,,2,,,56,0
32520,note_on,0,0,1,,,,,,,,,0,,,86,62
32520,note_on,0,0,1,,,,,,,,,0,,,80,57
32520,note_on,0,0,3,,,,,,,,,2,,,43,0
32520,note_on,0,0,3,,,,,,,,,2,,,35,49
32520,note_on,0,0,3,,,,,,,,,2,,,47,49
32550,note_on,0,0,1,,,,,,,,,0,,,80,36
32550,note_on,0,0,1,,,,,,,,,0,,,86,36
32550,note_on,30,0,1,,,,,,,,,0,,,86,0
32550,note_on,0,0,1,,,,,,,,,0,,,80,0
32550,note_on,0,0,1,,,,,,,,,0,,,79,0
32550,note_on,0,0,1,,,,,,,,,0,,,77,36
32565,note_on,0,0,3,,,,,,,,,2,,,51,49
32565,note_on,0,0,3,,,,,,,,,2,,,63,49
32565,note_on,45,0,3,,,,,,,,,2,,,47,0
32565,note_on,0,0,3,,,,,,,,,2,,,35,0
32580,control_change,0,0,3,,,,,,,,,2,64,127,,
32580,note_on,0,0,3,,,,,,,,,2,,,51,0
32580,note_on,0,0,1,,,,,,,,,0,,,77,0
32580,note_on,15,0,3,,,,,,,,,2,,,63,0
32580,note_on,0,0,1,,,,,,,,,0,,,65,54
32580,note_on,0,0,1,,,,,,,,,0,,,67,62
32580,control_change,0,0,1,,,,,,,,,0,64,127,,
32580,note_on,0,0,1,,,,,,,,,0,,,80,0
32580,note_on,30,0,1,,,,,,,,,0,,,86,0
32580,note_on,0,0,3,,,,,,,,,2,,,48,49
32610,note_on,0,0,1,,,,,,,,,0,,,63,36
32610,note_on,0,0,1,,,,,,,,,0,,,65,0
32610,note_on,30,0,1,,,,,,,,,0,,,67,0
32610,note_on,0,0,1,,,,,,,,,0,,,67,36
32625,note_on,0,0,3,,,,,,,,,2,,,55,49
32625,note_on,45,0,3,,,,,,,,,2,,,48,0
32640,note_on,0,0,1,,,,,,,,,0,,,63,0
32640,note_on,30,0,1,,,,,,,,,0,,,67,0
32640,note_on,0,0,3,,,,,,,,,2,,,43,49
32640,note_on,15,0,3,,,,,,,,,2,,,55,0
32640,note_on,0,0,1,,,,,,,,,0,,,75,62
32640,note_on,0,0,1,,,,,,,,,0,,,74,54
32670,control_change,0,0,1,,,,,,,,,0,64,0,,
32670,note_on,0,0,1,,,,,,,,,0,,,75,36
32670,note_on,0,0,1,,,,,,,,,0,,,74,0
32670,note_on,0,0,1,,,,,,,,,0,,,72,36
32670,note_on,30,0,1,,,,,,,,,0,,,75,0
32685,note_on,0,0,3,,,,,,,,,2,,,48,49
32685,control_change,0,0,3,,,,,,,,,2,64,0,,
32685,note_on,45,0,3,,,,,,,,,2,,,43,0
32700,note_on,30,0,1,,,,,,,,,0,,,75,0
32700,note_on,0,0,1,,,,,,,,,0,,,72,0
32700,note_on,0,0,1,,,,,,,,,0,,,77,52
32700,note_on,0,0,1,,,,,,,,,0,,,79,57
32700,note_on,0,0,1,,,,,,,,,0,,,84,62
32700,note_on,0,0,3,,,,,,,,,2,,,36,49
32700,note_on,15,0,3,,,,,,,,,2,,,48,0
32730,note_on,0,0,1,,,,,,,,,0,,,79,36
32730,note_on,0,0,1,,,,,,,,,0,,,84,36
32730,note_on,0,0,1,,,,,,,,,0,,,75,36
32730,note_on,0,0,1,,,,,,,,,0,,,77,0
32730,note_on,0,0,1,,,,,,,,,0,,,79,0
32730,note_on,30,0,1,,,,,,,,,0,,,84,0
32745,note_on,0,0,3,,,,,,,,,2,,,39,49
32745,note_on,45,0,3,,,,,,,,,2,,,36,0
32760,note_on,0,0,1,,,,,,,,,0,,,79,0
32760,note_on,30,0,1,,,,,,,,,0,,,84,0
32760,note_on,0,0,1,,,,,,,,,0,,,87,36
32760,control_change,0,0,1,,,,,,,,,0,64,127,,
32760,note_on,0,0,1,,,,,,,,,0,,,75,0
32760,note_on,15,0,3,,,,,,,,,2,,,39,0
32760,note_on,0,0,1,,,,,,,,,0,,,77,36
32760,control_change,0,0,3,,,,,,,,,2,64,127,,
32760,note_on,0,0,3,,,,,,,,,2,,,29,49
32790,note_on,0,0,1,,,,,,,,,0,,,77,0
32790,note_on,0,0,1,,,,,,,,,0,,,85,36
32790,note_on,0,0,1,,,,,,,,,0,,,77,36
32790,note_on,30,0,1,,,,,,,,,0,,,87,0
32805,note_on,45,0,3,,,,,,,,,2,,,29,0
32805,note_on,0,0,3,,,,,,,,,2,,,32,49
32820,note_on,15,0,3,,,,,,,,,2,,,32,0
32820,note_on,0,0,3,,,,,,,,,2,,,31,49
32820,note_on,0,0,1,,,,,,,,,0,,,73,36
32820,note_on,0,0,1,,,,,,,,,0,,,63,36
32820,note_on,0,0,1,,,,,,,,,0,,,77,0
32820,note_on,30,0,1,,,,,,,,,0,,,85,0
32850,note_on,30,0,1,,,,,,,,,0,,,73,0
32850,note_on,0,0,1,,,,,,,,,0,,,63,0
32850,note_on,0,0,1,,,,,,,,,0,,,63,36
32850,note_on,0,0,1,,,,,,,,,0,,,72,36
32850,control_change,0,0,1,,,,,,,,,0,64,0,,
32865,note_on,0,0,3,,,,,,,,,2,,,31,49
32865,control_change,0,0,3,,,,,,,,,2,64,0,,
32865,note_on,45,0,3,,,,,,,,,2,,,31,0
32880,note_on,15,0,3,,,,,,,,,2,,,31,0
32880,note_on,480,0,2,,,,,,,,,1,,,50,49
32880,note_on,30,0,1,,,,,,,,,0,,,72,0
32880,note_on,0,0,3,,,,,,,,,2,,,31,49
32880,note_on,0,0,1,,,,,,,,,0,,,63,0
32880,note_on,0,0,2,,,,,,,,,1,,,53,49
32880,note_on,0,0,2,,,,,,,,,1,,,56,49
32880,note_on,0,0,2,,,,,,,,,1,,,60,49
32910,note_on,0,0,2,,,,,,,,,1,,,50,0
32910,note_on,0,0,2,,,,,,,,,1,,,59,49
32910,note_on,0,0,2,,,,,,,,,1,,,55,49
32910,note_on,0,0,2,,,,,,,,,1,,,53,49
32910,note_on,0,0,2,,,,,,,,,1,,,50,49
32910,note_on,0,0,2,,,,,,,,,1,,,56,0
32910,note_on,0,0,2,,,,,,,,,1,,,53,0
32910,note_on,30,0,2,,,,,,,,,1,,,60,0
32925,note_on,45,0,3,,,,,,,,,2,,,31,0
32925,note_on,0,0,3,,,,,,,,,2,,,31,49
32940,note_on,30,0,2,,,,,,,,,1,,,59,0
32940,note_on,15,0,3,,,,,,,,,2,,,31,0
32940,control_change,0,0,3,,,,,,,,,2,64,127,,
32940,note_on,0,0,3,,,,,,,,,2,,,32,36
32940,note_on,0,0,2,,,,,,,,,1,,,53,0
32940,note_on,0,0,3,,,,,,,,,2,,,44,36
32940,note_on,0,0,2,,,,,,,,,1,,,55,0
32940,control_change,0,0,2,,,,,,,,,1,64,127,,
32940,note_on,0,0,2,,,,,,,,,1,,,48,49
32940,note_on,0,0,2,,,,,,,,,1,,,51,49
32940,note_on,0,0,2,,,,,,,,,1,,,56,49
32940,note_on,0,0,2,,,,,,,,,1,,,60,49
32940,note_on,0,0,2,,,,,,,,,1,,,50,0
33030,note_on,0,0,3,,,,,,,,,2,,,32,0
33030,note_on,90,0,2,,,,,,,,,1,,,60,0
33030,note_on,90,0,3,,,,,,,,,2,,,44,0
33030,note_on,0,0,2,,,,,,,,,1,,,48,0
33030,note_on,0,0,2,,,,,,,,,1,,,60,49
33030,note_on,0,0,2,,,,,,,,,1,,,56,0
33030,note_on,0,0,2,,,,,,,,,1,,,51,0
33034,note_on,4,0,2,,,,,,,,,1,,,60,0
33060,note_on,26,0,2,,,,,,,,,1,,,60,49
33064,note_on,4,0,2,,,,,,,,,1,,,60,0
33090,note_on,0,0,2,,,,,,,,,1,,,60,49
33090,control_change,26,0,2,,,,,,,,,1,64,0,,
33094,note_on,4,0,2,,,,,,,,,1,,,60,0
33120,control_change,90,0,3,,,,,,,,,2,64,0,,
33120,note_on,0,0,3,,,,,,,,,2,,,44,36
33120,note_on,0,0,3,,,,,,,,,2,,,51,36
33120,note_on,0,0,3,,,,,,,,,2,,,56,36
33120,control_change,240,0,1,,,,,,,,,0,64,127,,
33120,note_on,0,0,1,,,,,,,,,0,,,60,49
33120,note_on,0,0,1,,,,,,,,,0,,,63,49
33120,note_on,0,0,1,,,,,,,,,0,,,68,49
33120,note_on,0,0,1,,,,,,,,,0,,,72,49
33210,note_on,0,0,1,,,,,,,,,0,,,60,0
33210,note_on,0,0,1,,,,,,,,,0,,,63,0
33210,note_on,0,0,1,,,,,,,,,0,,,68,0
33210,note_on,0,0,1,,,,,,,,,0,,,72,49
33210,note_on,90,0,1,,,,,,,,,0,,,72,0
33214,note_on,4,0,1,,,,,,,,,0,,,72,0
33240,note_on,120,0,3,,,,,,,,,2,,,56,0
33240,note_on,0,0,3,,,,,,,,,2,,,44,0
33240,control_change,26,0,1,,,,,,,,,0,64,0,,
33240,note_on,0,0,1,,,,,,,,,0,,,72,49
33240,note_on,0,0,3,,,,,,,,,2,,,51,0
33244,note_on,4,0,1,,,,,,,,,0,,,72,0
33270,note_on,26,0,1,,,,,,,,,0,,,72,49
33274,note_on,4,0,1,,,,,,,,,0,,,72,0
33285,note_on,45,0,3,,,,,,,,,2,,,57,36
33289,note_on,4,0,3,,,,,,,,,2,,,57,0
33300,note_on,11,0,3,,,,,,,,,2,,,58,36
33300,note_on,26,0,1,,,,,,,,,0,,,73,49
33300,key_signature,7020,1,0,,,,,Ab,,,,,,,,
33304,note_on,4,0,3,,,,,,,,,2,,,58,0
33309,note_on,9,0,1,,,,,,,,,0,,,75,49
33310,note_on,1,0,1,,,,,,,,,0,,,73,0
33319,note_on,9,0,1,,,,,,,,,0,,,75,0
33320,note_on,1,0,1,,,,,,,,,0,,,77,49
33330,note_on,10,0,1,,,,,,,,,0,,,77,0
33330,note_on,0,0,1,,,,,,,,,0,,,75,49
33339,note_on,9,0,1,,,,,,,,,0,,,73,49
33340,note_on,1,0,1,,,,,,,,,0,,,75,0
33345,note_on,41,0,3,,,,,,,,,2,,,60,36
33349,note_on,9,0,1,,,,,,,,,0,,,73,0
33349,note_on,4,0,3,,,,,,,,,2,,,60,0
33350,note_on,1,0,1,,,,,,,,,0,,,72,49
33360,note_on,0,0,1,,,,,,,,,0,,,70,49
33360,note_on,10,0,1,,,,,,,,,0,,,72,0
33360,note_on,11,0,3,,,,,,,,,2,,,61,36
33364,note_on,4,0,3,,,,,,,,,2,,,61,0
33369,note_on,9,0,1,,,,,,,,,0,,,72,49
33370,note_on,1,0,1,,,,,,,,,0,,,70,0
33379,note_on,9,0,1,,,,,,,,,0,,,72,0
33380,note_on,1,0,1,,,,,,,,,0,,,73,49
33390,note_on,10,0,1,,,,,,,,,0,,,73,0
33390,note_on,0,0,1,,,,,,,,,0,,,72,49
33399,note_on,9,0,1,,,,,,,,,0,,,70,49
33400,note_on,1,0,1,,,,,,,,,0,,,72,0
33405,note_on,41,0,3,,,,,,,,,2,,,62,36
33409,note_on,9,0,1,,,,,,,,,0,,,70,0
33409,note_on,4,0,3,,,,,,,,,2,,,62,0
33410,note_on,1,0,1,,,,,,,,,0,,,68,49
33420,note_on,10,0,1,,,,,,,,,0,,,68,0
33420,note_on,0,0,1,,,,,,,,,0,,,67,49
33420,note_on,11,0,3,,,,,,,,,2,,,63,36
33424,note_on,4,0,3,,,,,,,,,2,,,63,0
33429,note_on,9,0,1,,,,,,,,,0,,,70,49
33430,note_on,1,0,1,,,,,,,,,0,,,67,0
33439,note_on,9,0,1,,,,,,,,,0,,,70,0
33440,note_on,1,0,1,,,,,,,,,0,,,72,49
33450,note_on,0,0,1,,,,,,,,,0,,,73,49
33450,note_on,10,0,1,,,,,,,,,0,,,72,0
33459,note_on,9,0,1,,,,,,,,,0,,,75,49
33460,note_on,1,0,1,,,,,,,,,0,,,73,0
33465,note_on,41,0,3,,,,,,,,,2,,,61,36
33469,note_on,4,0,3,,,,,,,,,2,,,61,0
33469,note_on,9,0,1,,,,,,,,,0,,,75,0
33470,note_on,1,0,1,,,,,,,,,0,,,77,49
33480,note_on,10,0,1,,,,,,,,,0,,,77,0
33480,note_on,11,0,3,,,,,,,,,2,,,60,36
33480,note_on,0,0,1,,,,,,,,,0,,,75,49
33484,note_on,4,0,3,,,,,,,,,2,,,60,0
33489,note_on,9,0,1,,,,,,,,,0,,,84,49
33490,note_on,1,0,1,,,,,,,,,0,,,75,0
33499,note_on,9,0,1,,,,,,,,,0,,,84,0
33500,note_on,1,0,1,,,,,,,,,0,,,82,49
33510,note_on,0,0,1,,,,,,,,,0,,,80,49
33510,note_on,10,0,1,,,,,,,,,0,,,82,0
33519,note_on,9,0,1,,,,,,,,,0,,,79,49
33520,note_on,1,0,1,,,,,,,,,0,,,80,0
33525,note_on,0,0,3,,,,,,,,,2,,,68,36
33525,note_on,41,0,3,,,,,,,,,2,,,61,36
33529,note_on,9,0,1,,,,,,,,,0,,,79,0
33529,note_on,0,0,3,,,,,,,,,2,,,61,0
33529,note_on,4,0,3,,,,,,,,,2,,,68,0
33530,note_on,1,0,1,,,,,,,,,0,,,77,49
33540,note_on,0,0,3,,,,,,,,,2,,,68,36
33540,note_on,10,0,1,,,,,,,,,0,,,77,0
33540,note_on,0,0,1,,,,,,,,,0,,,75,49
33540,note_on,11,0,3,,,,,,,,,2,,,60,36
33544,note_on,4,0,3,,,,,,,,,2,,,68,0
33544,note_on,0,0,3,,,,,,,,,2,,,60,0
33549,note_on,9,0,1,,,,,,,,,0,,,77,49
33550,note_on,1,0,1,,,,,,,,,0,,,75,0
33559,note_on,9,0,1,,,,,,,,,0,,,77,0
33560,note_on,1,0,1,,,,,,,,,0,,,73,49
33570,note_on,0,0,1,,,,,,,,,0,,,75,49
33570,note_on,10,0,1,,,,,,,,,0,,,73,0
33579,note_on,9,0,1,,,,,,,,,0,,,72,49
33580,note_on,1,0,1,,,,,,,,,0,,,75,0
33585,note_on,0,0,3,,,,,,,,,2,,,51,36
33585,note_on,41,0,3,,,,,,,,,2,,,49,36
33585,note_on,0,0,3,,,,,,,,,2,,,58,36
33589,note_on,9,0,1,,,,,,,,,0,,,72,0
33589,note_on,4,0,3,,,,,,,,,2,,,58,0
33589,note_on,0,0,3,,,,,,,,,2,,,51,0
33589,note_on,0,0,3,,,,,,,,,2,,,49,0
33590,note_on,1,0,1,,,,,,,,,0,,,70,49
33600,note_on,0,0,1,,,,,,,,,0,,,68,49
33600,note_on,11,0,3,,,,,,,,,2,,,48,36
33600,note_on,0,0,3,,,,,,,,,2,,,51,36
33600,note_on,0,0,3,,,,,,,,,2,,,56,36
33600,note_on,10,0,1,,,,,,,,,0,,,70,0
33604,note_on,0,0,3,,,,,,,,,2,,,51,0
33604,note_on,0,0,3,,,,,,,,,2,,,48,0
33604,note_on,4,0,3,,,,,,,,,2,,,56,0
33609,note_on,9,0,1,,,,,,,,,0,,,70,49
33610,note_on,1,0,1,,,,,,,,,0,,,68,0
33619,note_on,9,0,1,,,,,,,,,0,,,70,0
33620,note_on,1,0,1,,,,,,,,,0,,,67,49
33630,note_on,0,0,1,,,,,,,,,0,,,68,49
33630,note_on,10,0,1,,,,,,,,,0,,,67,0
33639,note_on,9,0,1,,,,,,,,,0,,,70,49
33640,note_on,1,0,1,,,,,,,,,0,,,68,0
33645,note_on,41,0,3,,,,,,,,,2,,,44,36
33649,note_on,4,0,3,,,,,,,,,2,,,44,0
33649,note_on,9,0,1,,,,,,,,,0,,,70,0
33650,note_on,1,0,1,,,,,,,,,0,,,72,49
33660,note_on,11,0,3,,,,,,,,,2,,,41,36
33660,note_on,10,0,1,,,,,,,,,0,,,72,0
33660,note_on,0,0,1,,,,,,,,,0,,,75,75
33669,note_on,9,0,1,,,,,,,,,0,,,73,49
33670,note_on,1,0,1,,,,,,,,,0,,,75,0
33679,note_on,9,0,1,,,,,,,,,0,,,73,0
33680,note_on,1,0,1,,,,,,,,,0,,,75,49
33690,note_on,0,0,1,,,,,,,,,0,,,77,49
33690,note_on,10,0,1,,,,,,,,,0,,,75,0
33699,note_on,9,0,1,,,,,,,,,0,,,79,49
33700,note_on,1,0,1,,,,,,,,,0,,,77,0
33705,note_on,45,0,3,,,,,,,,,2,,,41,0
33705,note_on,0,0,3,,,,,,,,,2,,,53,36
33705,note_on,0,0,3,,,,,,,,,2,,,56,36
33705,note_on,0,0,3,,,,,,,,,2,,,61,36
33709,note_on,9,0,1,,,,,,,,,0,,,79,0
33710,note_on,1,0,1,,,,,,,,,0,,,80,49
33720,note_on,0,0,3,,,,,,,,,2,,,56,0
33720,note_on,0,0,1,,,,,,,,,0,,,82,75
33720,note_on,15,0,3,,,,,,,,,2,,,61,0
33720,note_on,0,0,3,,,,,,,,,2,,,39,36
33720,note_on,0,0,3,,,,,,,,,2,,,53,0
33720,note_on,10,0,1,,,,,,,,,0,,,80,0
33729,note_on,9,0,1,,,,,,,,,0,,,80,49
33730,note_on,1,0,1,,,,,,,,,0,,,82,0
33739,note_on,9,0,1,,,,,,,,,0,,,80,0
33740,note_on,1,0,1,,,,,,,,,0,,,82,49
33750,note_on,10,0,1,,,,,,,,,0,,,82,0
33750,note_on,0,0,1,,,,,,,,,0,,,84,49
33759,note_on,9,0,1,,,,,,,,,0,,,85,49
33760,note_on,1,0,1,,,,,,,,,0,,,84,0
33765,note_on,0,0,3,,,,,,,,,2,,,56,36
33765,note_on,0,0,3,,,,,,,,,2,,,60,36
33765,note_on,0,0,3,,,,,,,,,2,,,51,36
33765,note_on,45,0,3,,,,,,,,,2,,,39,0
33769,note_on,9,0,1,,,,,,,,,0,,,85,0
33770,note_on,1,0,1,,,,,,,,,0,,,87,49
33780,note_on,10,0,1,,,,,,,,,0,,,87,0
33780,note_on,0,0,3,,,,,,,,,2,,,39,36
33780,note_on,0,0,3,,,,,,,,,2,,,51,0
33780,note_on,0,0,3,,,,,,,,,2,,,56,0
33780,note_on,15,0,3,,,,,,,,,2,,,60,0
33780,note_on,0,0,1,,,,,,,,,0,,,89,75
33789,note_on,9,0,1,,,,,,,,,0,,,87,49
33790,note_on,1,0,1,,,,,,,,,0,,,89,0
33799,note_on,9,0,1,,,,,,,,,0,,,87,0
33800,note_on,1,0,1,,,,,,,,,0,,,89,49
33810,note_on,0,0,1,,,,,,,,,0,,,91,49
33810,note_on,10,0,1,,,,,,,,,0,,,89,0
33819,note_on,9,0,1,,,,,,,,,0,,,92,49
33820,note_on,1,0,1,,,,,,,,,0,,,91,0
33825,note_on,45,0,3,,,,,,,,,2,,,39,0
33825,note_on,0,0,3,,,,,,,,,2,,,51,36
33825,note_on,0,0,3,,,,,,,,,2,,,55,36
33825,note_on,0,0,3,,,,,,,,,2,,,61,36
33829,note_on,9,0,1,,,,,,,,,0,,,92,0
33830,note_on,1,0,1,,,,,,,,,0,,,94,49
33840,note_on,0,0,3,,,,,,,,,2,,,55,0
33840,note_on,0,0,3,,,,,,,,,2,,,56,49
33840,note_on,0,0,3,,,,,,,,,2,,,60,49
33840,note_on,0,0,1,,,,,,,,,0,,,92,49
33840,note_on,10,0,1,,,,,,,,,0,,,94,0
33840,note_on,0,0,3,,,,,,,,,2,,,51,0
33840,note_on,15,0,3,,,,,,,,,2,,,61,0
33844,note_on,4,0,3,,,,,,,,,2,,,60,0
33844,note_on,0,0,3,,,,,,,,,2,,,56,0
33849,note_on,5,0,3,,,,,,,,,2,,,44,49
33859,note_on,10,0,3,,,,,,,,,2,,,44,0
33860,note_on,1,0,3,,,,,,,,,2,,,46,49
33870,note_on,10,0,3,,,,,,,,,2,,,46,0
33870,note_on,0,0,3,,,,,,,,,2,,,48,49
33870,note_on,30,0,1,,,,,,,,,0,,,92,0
33879,note_on,9,0,3,,,,,,,,,2,,,49,49
33880,note_on,1,0,3,,,,,,,,,2,,,48,0
33889,note_on,9,0,3,,,,,,,,,2,,,49,0
33890,note_on,1,0,3,,,,,,,,,2,,,50,49
33900,note_on,10,0,3,,,,,,,,,2,,,50,0
33900,note_on,0,0,3,,,,,,,,,2,,,51,62
33909,note_on,9,0,3,,,,,,,,,2,,,53,62
33910,note_on,1,0,3,,,,,,,,,2,,,51,0
33919,note_on,9,0,3,,,,,,,,,2,,,53,0
33920,note_on,1,0,3,,,,,,,,,2,,,55,62
33930,note_on,0,0,3,,,,,,,,,2,,,56,62
33930,note_on,10,0,3,,,,,,,,,2,,,55,0
33939,note_on,9,0,3,,,,,,,,,2,,,58,62
33940,note_on,1,0,3,,,,,,,,,2,,,56,0
33949,note_on,9,0,3,,,,,,,,,2,,,58,0
33950,note_on,1,0,3,,,,,,,,,2,,,60,62
33960,note_on,10,0,3,,,,,,,,,2,,,60,0
33960,note_on,0,0,3,,,,,,,,,2,,,57,75
33969,note_on,9,0,3,,,,,,,,,2,,,58,75
33970,note_on,1,0,3,,,,,,,,,2,,,57,0
33979,note_on,9,0,3,,,,,,,,,2,,,58,0
33980,note_on,1,0,3,,,,,,,,,2,,,60,75
33990,note_on,10,0,3,,,,,,,,,2,,,60,0
33990,note_on,0,0,3,,,,,,,,,2,,,57,75
33990,note_on,120,0,1,,,,,,,,,0,,,69,75
33999,note_on,9,0,3,,,,,,,,,2,,,58,75
33999,note_on,9,0,1,,,,,,,,,0,,,70,75
34000,note_on,1,0,1,,,,,,,,,0,,,69,0
34000,note_on,1,0,3,,,,,,,,,2,,,57,0
34009,note_on,9,0,3,,,,,,,,,2,,,58,0
34009,note_on,9,0,1,,,,,,,,,0,,,70,0
34010,note_on,1,0,3,,,,,,,,,2,,,60,75
34010,note_on,1,0,1,,,,,,,,,0,,,72,75
34020,note_on,0,0,1,,,,,,,,,0,,,73,114
34020,control_change,0,0,1,,,,,,,,,0,64,127,,
34020,note_on,10,0,1,,,,,,,,,0,,,72,0
34020,note_on,0,0,3,,,,,,,,,2,,,61,75
34020,control_change,0,0,3,,,,,,,,,2,64,127,,
34020,note_on,10,0,3,,,,,,,,,2,,,60,0
34029,note_on,9,0,1,,,,,,,,,0,,,75,88
34029,note_on,9,0,3,,,,,,,,,2,,,63,75
34030,note_on,1,0,1,,,,,,,,,0,,,73,0
34030,note_on,1,0,3,,,,,,,,,2,,,61,0
34039,note_on,9,0,1,,,,,,,,,0,,,75,0
34039,note_on,9,0,3,,,,,,,,,2,,,63,0
34040,note_on,1,0,3,,,,,,,,,2,,,65,75
34040,note_on,1,0,1,,,,,,,,,0,,,77,88
34050,note_on,10,0,3,,,,,,,,,2,,,65,0
34050,note_on,0,0,1,,,,,,,,,0,,,75,88
34050,note_on,0,0,3,,,,,,,,,2,,,63,75
34050,note_on,10,0,1,,,,,,,,,0,,,77,0
34059,note_on,9,0,3,,,,,,,,,2,,,61,75
34059,note_on,9,0,1,,,,,,,,,0,,,73,88
34060,note_on,1,0,1,,,,,,,,,0,,,75,0
34060,note_on,1,0,3,,,,,,,,,2,,,63,0
34069,note_on,9,0,3,,,,,,,,,2,,,61,0
34069,note_on,9,0,1,,,,,,,,,0,,,73,0
34070,note_on,1,0,3,,,,,,,,,2,,,60,75
34070,note_on,1,0,1,,,,,,,,,0,,,72,88
34080,note_on,10,0,1,,,,,,,,,0,,,72,0
34080,note_on,0,0,1,,,,,,,,,0,,,70,114
34080,note_on,10,0,3,,,,,,,,,2,,,60,0
34080,note_on,0,0,3,,,,,,,,,2,,,58,75
34089,note_on,9,0,3,,,,,,,,,2,,,60,75
34089,note_on,9,0,1,,,,,,,,,0,,,72,88
34090,note_on,1,0,1,,,,,,,,,0,,,70,0
34090,note_on,1,0,3,,,,,,,,,2,,,58,0
34099,note_on,9,0,1,,,,,,,,,0,,,72,0
34099,note_on,9,0,3,,,,,,,,,2,,,60,0
34100,note_on,1,0,1,,,,,,,,,0,,,73,88
34100,note_on,1,0,3,,,,,,,,,2,,,61,75
34110,note_on,0,0,3,,,,,,,,,2,,,60,75
34110,note_on,10,0,1,,,,,,,,,0,,,73,0
34110,note_on,0,0,1,,,,,,,,,0,,,72,88
34110,note_on,10,0,3,,,,,,,,,2,,,61,0
34119,note_on,9,0,1,,,,,,,,,0,,,70,88
34119,note_on,9,0,3,,,,,,,,,2,,,58,75
34120,note_on,1,0,3,,,,,,,,,2,,,60,0
34120,note_on,1,0,1,,,,,,,,,0,,,72,0
34129,note_on,9,0,1,,,,,,,,,0,,,70,0
34129,note_on,9,0,3,,,,,,,,,2,,,58,0
34130,note_on,1,0,1,,,,,,,,,0,,,68,88
34130,note_on,1,0,3,,,,,,,,,2,,,56,75
34140,note_on,0,0,3,,,,,,,,,2,,,55,75
34140,control_change,0,0,1,,,,,,,,,0,64,0,,
34140,note_on,10,0,1,,,,,,,,,0,,,68,0
34140,note_on,10,0,3,,,,,,,,,2,,,56,0
34140,note_on,0,0,1,,,,,,,,,0,,,67,114
34140,control_change,0,0,3,,,,,,,,,2,64,0,,
34149,note_on,9,0,1,,,,,,,,,0,,,70,88
34149,note_on,9,0,3,,,,,,,,,2,,,58,75
34150,note_on,1,0,3,,,,,,,,,2,,,55,0
34150,note_on,1,0,1,,,,,,,,,0,,,67,0
34159,note_on,9,0,3,,,,,,,,,2,,,58,0
34159,note_on,9,0,1,,,,,,,,,0,,,70,0
34160,note_on,1,0,3,,,,,,,,,2,,,55,75
34160,note_on,1,0,1,,,,,,,,,0,,,67,88
34170,note_on,10,0,3,,,,,,,,,2,,,55,0
34170,note_on,0,0,3,,,,,,,,,2,,,52,75
34170,note_on,10,0,1,,,,,,,,,0,,,67,0
34170,note_on,0,0,1,,,,,,,,,0,,,64,88
34179,note_on,9,0,1,,,,,,,,,0,,,63,88
34179,note_on,9,0,3,,,,,,,,,2,,,51,75
34180,note_on,1,0,1,,,,,,,,,0,,,64,0
34180,note_on,1,0,3,,,,,,,,,2,,,52,0
34189,note_on,9,0,1,,,,,,,,,0,,,63,0
34189,note_on,9,0,3,,,,,,,,,2,,,51,0
34190,note_on,1,0,1,,,,,,,,,0,,,61,88
34190,note_on,1,0,3,,,,,,,,,2,,,49,75
34200,control_change,0,0,1,,,,,,,,,0,64,127,,
34200,note_on,0,0,1,,,,,,,,,0,,,60,88
34200,note_on,0,0,3,,,,,,,,,2,,,48,75
34200,control_change,0,0,3,,,,,,,,,2,64,127,,
34200,note_on,10,0,3,,,,,,,,,2,,,49,0
34200,note_on,10,0,1,,,,,,,,,0,,,61,0
34209,note_on,9,0,3,,,,,,,,,2,,,51,75
34209,note_on,9,0,1,,,,,,,,,0,,,63,88
34210,note_on,1,0,1,,,,,,,,,0,,,60,0
34210,note_on,1,0,3,,,,,,,,,2,,,48,0
34219,note_on,9,0,3,,,,,,,,,2,,,51,0
34219,note_on,9,0,1,,,,,,,,,0,,,63,0
34220,note_on,1,0,1,,,,,,,,,0,,,68,88
34220,note_on,1,0,3,,,,,,,,,2,,,56,75
34230,note_on,10,0,3,,,,,,,,,2,,,56,0
34230,note_on,0,0,3,,,,,,,,,2,,,47,75
34230,note_on,0,0,1,,,,,,,,,0,,,59,88
34230,note_on,10,0,1,,,,,,,,,0,,,68,0
34239,note_on,9,0,3,,,,,,,,,2,,,50,75
34239,note_on,9,0,1,,,,,,,,,0,,,62,88
34240,note_on,1,0,3,,,,,,,,,2,,,47,0
34240,note_on,1,0,1,,,,,,,,,0,,,59,0
34249,note_on,9,0,3,,,,,,,,,2,,,50,0
34249,note_on,9,0,1,,,,,,,,,0,,,62,0
34250,note_on,1,0,3,,,,,,,,,2,,,56,75
34250,note_on,1,0,1,,,,,,,,,0,,,68,88
34260,note_on,10,0,3,,,,,,,,,2,,,56,0
34260,note_on,0,0,3,,,,,,,,,2,,,48,75
34260,note_on,10,0,1,,,,,,,,,0,,,68,0
34260,note_on,0,0,1,,,,,,,,,0,,,60,88
34269,note_on,9,0,1,,,,,,,,,0,,,63,88
34269,note_on,9,0,3,,,,,,,,,2,,,51,75
34270,note_on,1,0,1,,,,,,,,,0,,,60,0
34270,note_on,1,0,3,,,,,,,,,2,,,48,0
34279,note_on,9,0,3,,,,,,,,,2,,,51,0
34279,note_on,9,0,1,,,,,,,,,0,,,63,0
34280,note_on,1,0,3,,,,,,,,,2,,,56,75
34280,note_on,1,0,1,,,,,,,,,0,,,68,88
34290,note_on,0,0,1,,,,,,,,,0,,,74,88
34290,note_on,0,0,1,,,,,,,,,0,,,68,88
34290,control_change,0,0,1,,,,,,,,,0,64,0,,
34290,note_on,0,0,3,,,,,,,,,2,,,47,75
34290,control_change,0,0,3,,,,,,,,,2,64,0,,
34290,note_on,10,0,3,,,,,,,,,2,,,56,0
34290,note_on,10,0,1,,,,,,,,,0,,,68,0
34290,note_on,0,0,1,,,,,,,,,0,,,62,88
34299,note_on,9,0,3,,,,,,,,,2,,,50,75
34300,note_on,1,0,3,,,,,,,,,2,,,47,0
34309,note_on,9,0,3,,,,,,,,,2,,,50,0
34310,note_on,1,0,3,,,,,,,,,2,,,56,75
34320,note_on,10,0,3,,,,,,,,,2,,,56,0
34320,note_on,0,0,3,,,,,,,,,2,,,48,75
34320,note_on,0,0,1,,,,,,,,,0,,,75,88
34320,note_on,0,0,1,,,,,,,,,0,,,68,88
34320,note_on,0,0,1,,,,,,,,,0,,,63,88
34320,note_on,0,0,1,,,,,,,,,0,,,62,0
34320,note_on,0,0,1,,,,,,,,,0,,,68,0
34320,note_on,30,0,1,,,,,,,,,0,,,74,0
34329,note_on,9,0,3,,,,,,,,,2,,,51,75
34330,note_on,1,0,3,,,,,,,,,2,,,48,0
34339,note_on,9,0,3,,,,,,,,,2,,,51,0
34340,note_on,1,0,3,,,,,,,,,2,,,56,75
34350,note_on,10,0,3,,,,,,,,,2,,,56,0
34350,note_on,0,0,1,,,,,,,,,0,,,65,88
34350,note_on,0,0,1,,,,,,,,,0,,,63,0
34350,note_on,30,0,1,,,,,,,,,0,,,75,0
34350,note_on,0,0,1,,,,,,,,,0,,,77,88
34350,note_on,0,0,1,,,,,,,,,0,,,68,0
34350,note_on,0,0,1,,,,,,,,,0,,,75,88
34350,note_on,0,0,1,,,,,,,,,0,,,69,88
34350,note_on,0,0,3,,,,,,,,,2,,,47,75
34359,note_on,9,0,3,,,,,,,,,2,,,51,75
34360,note_on,1,0,3,,,,,,,,,2,,,47,0
34369,note_on,9,0,3,,,,,,,,,2,,,51,0
34370,note_on,1,0,3,,,,,,,,,2,,,53,75
34380,note_on,0,0,1,,,,,,,,,0,,,79,88
34380,note_on,0,0,1,,,,,,,,,0,,,69,0
34380,note_on,0,0,1,,,,,,,,,0,,,65,0
34380,note_on,30,0,1,,,,,,,,,0,,,77,0
34380,note_on,0,0,1,,,,,,,,,0,,,70,88
34380,note_on,0,0,1,,,,,,,,,0,,,75,88
34380,note_on,0,0,1,,,,,,,,,0,,,75,0
34380,note_on,0,0,1,,,,,,,,,0,,,67,88
34380,control_change,0,0,3,,,,,,,,,2,64,127,,
34380,note_on,0,0,3,,,,,,,,,2,,,46,75
34380,note_on,10,0,3,,,,,,,,,2,,,53,0
34389,note_on,9,0,3,,,,,,,,,2,,,51,75
34390,note_on,1,0,3,,,,,,,,,2,,,46,0
34399,note_on,9,0,3,,,,,,,,,2,,,51,0
34400,note_on,1,0,3,,,,,,,,,2,,,55,75
34410,note_on,0,0,1,,,,,,,,,0,,,80,88
34410,note_on,0,0,1,,,,,,,,,0,,,75,88
34410,note_on,0,0,1,,,,,,,,,0,,,71,88
34410,note_on,0,0,1,,,,,,,,,0,,,68,88
34410,note_on,0,0,1,,,,,,,,,0,,,75,0
34410,note_on,0,0,1,,,,,,,,,0,,,70,0
34410,note_on,30,0,1,,,,,,,,,0,,,79,0
34410,note_on,0,0,1,,,,,,,,,0,,,67,0
34410,control_change,0,0,3,,,,,,,,,2,64,0,,
34410,note_on,10,0,3,,,,,,,,,2,,,55,0
34410,note_on,0,0,3,,,,,,,,,2,,,44,75
34419,note_on,9,0,3,,,,,,,,,2,,,47,75
34420,note_on,1,0,3,,,,,,,,,2,,,44,0
34429,note_on,9,0,3,,,,,,,,,2,,,47,0
34430,note_on,1,0,3,,,,,,,,,2,,,51,75
34440,note_on,0,0,1,,,,,,,,,0,,,82,88
34440,note_on,0,0,1,,,,,,,,,0,,,75,88
34440,note_on,0,0,1,,,,,,,,,0,,,70,88
34440,note_on,0,0,1,,,,,,,,,0,,,75,0
34440,note_on,0,0,1,,,,,,,,,0,,,71,0
34440,note_on,0,0,1,,,,,,,,,0,,,68,0
34440,note_on,30,0,1,,,,,,,,,0,,,80,0
34440,note_on,0,0,3,,,,,,,,,2,,,43,75
34440,note_on,10,0,3,,,,,,,,,2,,,51,0
34449,note_on,9,0,3,,,,,,,,,2,,,46,75
34450,note_on,1,0,3,,,,,,,,,2,,,43,0
34459,note_on,9,0,3,,,,,,,,,2,,,46,0
34460,note_on,1,0,3,,,,,,,,,2,,,51,75
34470,note_on,0,0,1,,,,,,,,,0,,,75,0
34470,note_on,0,0,1,,,,,,,,,0,,,78,101
34470,note_on,0,0,1,,,,,,,,,0,,,70,0
34470,note_on,30,0,1,,,,,,,,,0,,,82,0
34470,note_on,10,0,3,,,,,,,,,2,,,51,0
34470,note_on,0,0,3,,,,,,,,,2,,,42,88
34470,note_on,0,0,1,,,,,,,,,0,,,90,101
34479,note_on,9,0,3,,,,,,,,,2,,,54,88
34480,note_on,1,0,3,,,,,,,,,2,,,42,0
34489,note_on,9,0,3,,,,,,,,,2,,,54,0
34490,note_on,1,0,3,,,,,,,,,2,,,42,88
34500,note_on,0,0,1,,,,,,,,,0,,,78,0
34500,note_on,10,0,3,,,,,,,,,2,,,42,0
34500,note_on,0,0,1,,,,,,,,,0,,,77,101
34500,note_on,0,0,1,,,,,,,,,0,,,89,101
34500,note_on,0,0,3,,,,,,,,,2,,,41,88
34500,note_on,30,0,1,,,,,,,,,0,,,90,0
34509,note_on,9,0,3,,,,,,,,,2,,,53,88
34510,note_on,1,0,3,,,,,,,,,2,,,41,0
34519,note_on,9,0,3,,,,,,,,,2,,,53,0
34520,note_on,1,0,3,,,,,,,,,2,,,41,88
34530,note_on,30,0,1,,,,,,,,,0,,,89,0
34530,note_on,0,0,1,,,,,,,,,0,,,77,0
34530,note_on,0,0,1,,,,,,,,,0,,,80,101
34530,note_on,0,0,1,,,,,,,,,0,,,86,101
34530,note_on,0,0,1,,,,,,,,,0,,,94,101
34530,note_on,0,0,3,,,,,,,,,2,,,34,88
34530,note_on,0,0,3,,,,,,,,,2,,,46,88
34530,note_on,10,0,3,,,,,,,,,2,,,41,0
34560,note_on,0,0,1,,,,,,,,,0,,,86,0
34560,note_on,0,0,3,,,,,,,,,2,,,39,88
34560,control_change,0,0,3,,,,,,,,,2,64,127,,
34560,note_on,0,0,3,,,,,,,,,2,,,34,0
34560,note_on,30,0,3,,,,,,,,,2,,,46,0
34560,note_on,30,0,1,,,,,,,,,0,,,94,0
34560,note_on,0,0,1,,,,,,,,,0,,,80,0
34560,note_on,0,0,1,,,,,,,,,0,,,75,101
34560,note_on,0,0,1,,,,,,,,,0,,,79,101
34560,control_change,0,0,1,,,,,,,,,0,64,127,,
34560,note_on,0,0,1,,,,,,,,,0,,,87,101
34569,note_on,9,0,3,,,,,,,,,2,,,43,88
34570,note_on,1,0,3,,,,,,,,,2,,,39,0
34579,note_on,9,0,3,,,,,,,,,2,,,43,0
34580,note_on,1,0,3,,,,,,,,,2,,,44,88
34590,note_on,10,0,3,,,,,,,,,2,,,44,0
34590,note_on,0,0,3,,,,,,,,,2,,,46,88
34590,note_on,0,0,1,,,,,,,,,0,,,75,0
34590,note_on,30,0,1,,,,,,,,,0,,,87,0
34590,note_on,0,0,1,,,,,,,,,0,,,79,0
34599,note_on,9,0,3,,,,,,,,,2,,,48,88
34600,note_on,1,0,3,,,,,,,,,2,,,46,0
34609,note_on,9,0,3,,,,,,,,,2,,,48,0
34610,note_on,1,0,3,,,,,,,,,2,,,50,88
34620,note_on,30,0,1,,,,,,,,,0,,,63,101
34620,note_on,0,0,3,,,,,,,,,2,,,51,88
34620,note_on,10,0,3,,,,,,,,,2,,,50,0
34629,note_on,9,0,3,,,,,,,,,2,,,55,88
34629,note_on,9,0,1,,,,,,,,,0,,,67,101
34630,note_on,1,0,3,,,,,,,,,2,,,51,0
34630,note_on,1,0,1,,,,,,,,,0,,,63,0
34639,note_on,9,0,1,,,,,,,,,0,,,67,0
34639,note_on,9,0,3,,,,,,,,,2,,,55,0
34640,note_on,1,0,1,,,,,,,,,0,,,68,101
34640,note_on,1,0,3,,,,,,,,,2,,,56,88
34650,note_on,0,0,3,,,,,,,,,2,,,58,88
34650,note_on,10,0,1,,,,,,,,,0,,,68,0
34650,note_on,0,0,1,,,,,,,,,0,,,70,101
34650,note_on,10,0,3,,,,,,,,,2,,,56,0
34659,note_on,9,0,3,,,,,,,,,2,,,60,88
34659,note_on,9,0,1,,,,,,,,,0,,,72,101
34660,note_on,1,0,3,,,,,,,,,2,,,58,0
34660,note_on,1,0,1,,,,,,,,,0,,,70,0
34669,note_on,9,0,3,,,,,,,,,2,,,60,0
34669,note_on,9,0,1,,,,,,,,,0,,,72,0
34670,note_on,1,0,3,,,,,,,,,2,,,62,88
34670,note_on,1,0,1,,,,,,,,,0,,,74,101
34680,note_on,10,0,3,,,,,,,,,2,,,62,0
34680,control_change,0,0,3,,,,,,,,,2,64,0,,
34680,control_change,0,0,1,,,,,,,,,0,64,0,,
34680,note_on,10,0,1,,,,,,,,,0,,,74,0
34680,note_on,0,0,1,,,,,,,,,0,,,75,127
34680,note_on,0,0,3,,,,,,,,,2,,,63,114
34710,note_on,30,0,1,,,,,,,,,0,,,75,0
34710,note_on,30,0,3,,,,,,,,,2,,,63,0
34725,note_on,15,0,3,,,,,,,,,2,,,57,36
34725,note_on,15,0,1,,,,,,,,,0,,,72,49
34729,note_on,4,0,3,,,,,,,,,2,,,57,0
34740,note_on,15,0,1,,,,,,,,,0,,,72,0
34740,note_on,0,0,1,,,,,,,,,0,,,73,49
34740,note_on,11,0,3,,,,,,,,,2,,,58,36
34744,note_on,4,0,3,,,,,,,,,2,,,58,0
34749,note_on,9,0,1,,,,,,,,,0,,,75,49
34750,note_on,1,0,1,,,,,,,,,0,,,73,0
34759,note_on,9,0,1,,,,,,,,,0,,,75,0
34760,note_on,1,0,1,,,,,,,,,0,,,77,49
34770,note_on,10,0,1,,,,,,,,,0,,,77,0
34770,note_on,0,0,1,,,,,,,,,0,,,75,49
34779,note_on,9,0,1,,,,,,,,,0,,,73,49
34780,note_on,1,0,1,,,,,,,,,0,,,75,0
34785,note_on,41,0,3,,,,,,,,,2,,,60,36
34789,note_on,4,0,3,,,,,,,,,2,,,60,0
34789,note_on,9,0,1,,,,,,,,,0,,,73,0
34790,note_on,1,0,1,,,,,,,,,0,,,72,49
34800,note_on,11,0,3,,,,,,,,,2,,,61,36
34800,note_on,10,0,1,,,,,,,,,0,,,72,0
34800,note_on,0,0,1,,,,,,,,,0,,,70,49
34804,note_on,4,0,3,,,,,,,,,2,,,61,0
34809,note_on,9,0,1,,,,,,,,,0,,,72,49
34810,note_on,1,0,1,,,,,,,,,0,,,70,0
34819,note_on,9,0,1,,,,,,,,,0,,,72,0
34820,note_on,1,0,1,,,,,,,,,0,,,73,49
34830,note_on,0,0,1,,,,,,,,,0,,,72,49
34830,note_on,10,0,1,,,,,,,,,0,,,73,0
34839,note_on,9,0,1,,,,,,,,,0,,,70,49
34840,note_on,1,0,1,,,,,,,,,0,,,72,0
34845,note_on,41,0,3,,,,,,,,,2,,,62,36
34849,note_on,4,0,3,,,,,,,,,2,,,62,0
34849,note_on,9,0,1,,,,,,,,,0,,,70,0
34850,note_on,1,0,1,,,,,,,,,0,,,68,49
34860,note_on,11,0,3,,,,,,,,,2,,,63,36
34860,note_on,10,0,1,,,,,,,,,0,,,68,0
34860,note_on,0,0,1,,,,,,,,,0,,,67,49
34864,note_on,4,0,3,,,,,,,,,2,,,63,0
34869,note_on,9,0,1,,,,,,,,,0,,,70,49
34870,note_on,1,0,1,,,,,,,,,0,,,67,0
34879,note_on,9,0,1,,,,,,,,,0,,,70,0
34880,note_on,1,0,1,,,,,,,,,0,,,72,49
34890,note_on,10,0,1,,,,,,,,,0,,,72,0
34890,note_on,0,0,1,,,,,,,,,0,,,73,49
34899,note_on,9,0,1,,,,,,,,,0,,,75,49
34900,note_on,1,0,1,,,,,,,,,0,,,73,0
34905,note_on,41,0,3,,,,,,,,,2,,,61,36
34909,note_on,9,0,1,,,,,,,,,0,,,75,0
34909,note_on,4,0,3,,,,,,,,,2,,,61,0
34910,note_on,1,0,1,,,,,,,,,0,,,77,49
34920,note_on,0,0,1,,,,,,,,,0,,,75,49
34920,note_on,11,0,3,,,,,,,,,2,,,60,36
34920,note_on,10,0,1,,,,,,,,,0,,,77,0
34924,note_on,4,0,3,,,,,,,,,2,,,60,0
34929,note_on,9,0,1,,,,,,,,,0,,,84,49
34930,note_on,1,0,1,,,,,,,,,0,,,75,0
34939,note_on,9,0,1,,,,,,,,,0,,,84,0
34940,note_on,1,0,1,,,,,,,,,0,,,82,49
34950,note_on,10,0,1,,,,,,,,,0,,,82,0
34950,note_on,0,0,1,,,,,,,,,0,,,80,49
34959,note_on,9,0,1,,,,,,,,,0,,,79,49
34960,note_on,1,0,1,,,,,,,,,0,,,80,0
34965,note_on,0,0,3,,,,,,,,,2,,,68,36
34965,note_on,41,0,3,,,,,,,,,2,,,61,36
34969,note_on,0,0,3,,,,,,,,,2,,,61,0
34969,note_on,4,0,3,,,,,,,,,2,,,68,0
34969,note_on,9,0,1,,,,,,,,,0,,,79,0
34970,note_on,1,0,1,,,,,,,,,0,,,77,49
34980,note_on,10,0,1,,,,,,,,,0,,,77,0
34980,note_on,11,0,3,,,,,,,,,2,,,60,36
34980,note_on,0,0,1,,,,,,,,,0,,,75,49
34980,note_on,0,0,3,,,,,,,,,2,,,68,36
34984,note_on,0,0,3,,,,,,,,,2,,,60,0
34984,note_on,4,0,3,,,,,,,,,2,,,68,0
34989,note_on,9,0,1,,,,,,,,,0,,,77,49
34990,note_on,1,0,1,,,,,,,,,0,,,75,0
34999,note_on,9,0,1,,,,,,,,,0,,,77,0
35000,note_on,1,0,1,,,,,,,,,0,,,73,49
35010,note_on,10,0,1,,,,,,,,,0,,,73,0
35010,note_on,0,0,1,,,,,,,,,0,,,75,49
35019,note_on,9,0,1,,,,,,,,,0,,,72,49
35020,note_on,1,0,1,,,,,,,,,0,,,75,0
35025,note_on,41,0,3,,,,,,,,,2,,,49,36
35025,note_on,0,0,3,,,,,,,,,2,,,51,36
35025,note_on,0,0,3,,,,,,,,,2,,,58,36
35029,note_on,9,0,1,,,,,,,,,0,,,72,0
35029,note_on,4,0,3,,,,,,,,,2,,,58,0
35029,note_on,0,0,3,,,,,,,,,2,,,49,0
35029,note_on,0,0,3,,,,,,,,,2,,,51,0
35030,note_on,1,0,1,,,,,,,,,0,,,70,49
35040,note_on,0,0,3,,,,,,,,,2,,,56,36
35040,note_on,0,0,3,,,,,,,,,2,,,51,36
35040,note_on,0,0,1,,,,,,,,,0,,,68,49
35040,note_on,10,0,1,,,,,,,,,0,,,70,0
35040,note_on,11,0,3,,,,,,,,,2,,,48,36
35044,note_on,4,0,3,,,,,,,,,2,,,56,0
35044,note_on,0,0,3,,,,,,,,,2,,,51,0
35044,note_on,0,0,3,,,,,,,,,2,,,48,0
35049,note_on,9,0,1,,,,,,,,,0,,,70,49
35050,note_on,1,0,1,,,,,,,,,0,,,68,0
35059,note_on,9,0,1,,,,,,,,,0,,,70,0
35060,note_on,1,0,1,,,,,,,,,0,,,67,49
35070,note_on,0,0,1,,,,,,,,,0,,,68,49
35070,note_on,10,0,1,,,,,,,,,0,,,67,0
35079,note_on,9,0,1,,,,,,,,,0,,,70,49
35080,note_on,1,0,1,,,,,,,,,0,,,68,0
35085,note_on,41,0,3,,,,,,,,,2,,,44,36
35089,note_on,4,0,3,,,,,,,,,2,,,44,0
35089,note_on,9,0,1,,,,,,,,,0,,,70,0
35090,note_on,1,0,1,,,,,,,,,0,,,72,49
35100,note_on,0,0,1,,,,,,,,,0,,,75,75
35100,note_on,10,0,1,,,,,,,,,0,,,72,0
35100,note_on,11,0,3,,,,,,,,,2,,,41,36
35109,note_on,9,0,1,,,,,,,,,0,,,73,49
35110,note_on,1,0,1,,,,,,,,,0,,,75,0
35119,note_on,9,0,1,,,,,,,,,0,,,73,0
35120,note_on,1,0,1,,,,,,,,,0,,,75,49
35130,note_on,0,0,1,,,,,,,,,0,,,77,49
35130,note_on,10,0,1,,,,,,,,,0,,,75,0
35139,note_on,9,0,1,,,,,,,,,0,,,79,49
35140,note_on,1,0,1,,,,,,,,,0,,,77,0
35145,note_on,45,0,3,,,,,,,,,2,,,41,0
35145,note_on,0,0,3,,,,,,,,,2,,,53,36
35145,note_on,0,0,3,,,,,,,,,2,,,56,36
35145,note_on,0,0,3,,,,,,,,,2,,,61,36
35149,note_on,9,0,1,,,,,,,,,0,,,79,0
35150,note_on,1,0,1,,,,,,,,,0,,,80,49
35160,note_on,10,0,1,,,,,,,,,0,,,80,0
35160,note_on,0,0,3,,,,,,,,,2,,,56,0
35160,note_on,15,0,3,,,,,,,,,2,,,61,0
35160,note_on,0,0,1,,,,,,,,,0,,,82,75
35160,note_on,0,0,3,,,,,,,,,2,,,39,36
35160,note_on,0,0,3,,,,,,,,,2,,,53,0
35169,note_on,9,0,1,,,,,,,,,0,,,80,49
35170,note_on,1,0,1,,,,,,,,,0,,,82,0
35179,note_on,9,0,1,,,,,,,,,0,,,80,0
35180,note_on,1,0,1,,,,,,,,,0,,,82,49
35190,note_on,10,0,1,,,,,,,,,0,,,82,0
35190,note_on,0,0,1,,,,,,,,,0,,,84,49
35199,note_on,9,0,1,,,,,,,,,0,,,85,49
35200,note_on,1,0,1,,,,,,,,,0,,,84,0
35205,note_on,0,0,3,,,,,,,,,2,,,56,36
35205,note_on,45,0,3,,,,,,,,,2,,,39,0
35205,note_on,0,0,3,,,,,,,,,2,,,60,36
35205,note_on,0,0,3,,,,,,,,,2,,,51,36
35209,note_on,9,0,1,,,,,,,,,0,,,85,0
35210,note_on,1,0,1,,,,,,,,,0,,,87,49
35220,note_on,10,0,1,,,,,,,,,0,,,87,0
35220,note_on,0,0,3,,,,,,,,,2,,,39,36
35220,note_on,0,0,3,,,,,,,,,2,,,51,0
35220,note_on,0,0,3,,,,,,,,,2,,,56,0
35220,note_on,15,0,3,,,,,,,,,2,,,60,0
35220,note_on,0,0,1,,,,,,,,,0,,,89,75
35229,note_on,9,0,1,,,,,,,,,0,,,87,49
35230,note_on,1,0,1,,,,,,,,,0,,,89,0
35239,note_on,9,0,1,,,,,,,,,0,,,87,0
35240,note_on,1,0,1,,,,,,,,,0,,,89,49
35250,note_on,0,0,1,,,,,,,,,0,,,91,49
35250,note_on,10,0,1,,,,,,,,,0,,,89,0
35259,note_on,9,0,1,,,,,,,,,0,,,92,49
35260,note_on,1,0,1,,,,,,,,,0,,,91,0
35265,note_on,45,0,3,,,,,,,,,2,,,39,0
35265,note_on,0,0,3,,,,,,,,,2,,,51,36
35265,note_on,0,0,3,,,,,,,,,2,,,55,36
35265,note_on,0,0,3,,,,,,,,,2,,,61,36
35269,note_on,9,0,1,,,,,,,,,0,,,92,0
35270,note_on,1,0,1,,,,,,,,,0,,,94,49
35280,note_on,0,0,3,,,,,,,,,2,,,60,49
35280,note_on,0,0,3,,,,,,,,,2,,,56,49
35280,note_on,0,0,3,,,,,,,,,2,,,51,0
35280,note_on,0,0,3,,,,,,,,,2,,,55,0
35280,note_on,0,0,1,,,,,,,,,0,,,92,49
35280,note_on,10,0,1,,,,,,,,,0,,,94,0
35280,note_on,15,0,3,,,,,,,,,2,,,61,0
35284,note_on,4,0,3,,,,,,,,,2,,,60,0
35284,note_on,0,0,3,,,,,,,,,2,,,56,0
35289,note_on,5,0,3,,,,,,,,,2,,,44,49
35299,note_on,10,0,3,,,,,,,,,2,,,44,0
35300,note_on,1,0,3,,,,,,,,,2,,,46,49
35310,note_on,30,0,1,,,,,,,,,0,,,92,0
35310,note_on,10,0,3,,,,,,,,,2,,,46,0
35310,note_on,0,0,3,,,,,,,,,2,,,48,49
35319,note_on,9,0,3,,,,,,,,,2,,,49,49
35320,note_on,1,0,3,,,,,,,,,2,,,48,0
35329,note_on,9,0,3,,,,,,,,,2,,,49,0
35330,note_on,1,0,3,,,,,,,,,2,,,50,49
35340,note_on,10,0,3,,,,,,,,,2,,,50,0
35340,note_on,0,0,3,,,,,,,,,2,,,51,62
35349,note_on,9,0,3,,,,,,,,,2,,,53,62
35350,note_on,1,0,3,,,,,,,,,2,,,51,0
35359,note_on,9,0,3,,,,,,,,,2,,,53,0
35360,note_on,1,0,3,,,,,,,,,2,,,55,62
35370,note_on,10,0,3,,,,,,,,,2,,,55,0
35370,note_on,0,0,3,,,,,,,,,2,,,56,62
35379,note_on,9,0,3,,,,,,,,,2,,,58,62
35380,note_on,1,0,3,,,,,,,,,2,,,56,0
35389,note_on,9,0,3,,,,,,,,,2,,,58,0
35390,note_on,1,0,3,,,,,,,,,2,,,60,62
35400,note_on,10,0,3,,,,,,,,,2,,,60,0
35400,note_on,0,0,3,,,,,,,,,2,,,57,75
35409,note_on,9,0,3,,,,,,,,,2,,,58,75
35410,note_on,1,0,3,,,,,,,,,2,,,57,0
35419,note_on,9,0,3,,,,,,,,,2,,,58,0
35420,note_on,1,0,3,,,,,,,,,2,,,60,75
35430,note_on,0,0,3,,,,,,,,,2,,,57,75
35430,note_on,120,0,1,,,,,,,,,0,,,69,75
35430,note_on,10,0,3,,,,,,,,,2,,,60,0
35439,note_on,9,0,1,,,,,,,,,0,,,70,75
35439,note_on,9,0,3,,,,,,,,,2,,,58,75
35440,note_on,1,0,1,,,,,,,,,0,,,69,0
35440,note_on,1,0,3,,,,,,,,,2,,,57,0
35449,note_on,9,0,3,,,,,,,,,2,,,58,0
35449,note_on,9,0,1,,,,,,,,,0,,,70,0
35450,note_on,1,0,1,,,,,,,,,0,,,72,75
35450,note_on,1,0,3,,,,,,,,,2,,,60,75
35460,note_on,0,0,1,,,,,,,,,0,,,73,114
35460,note_on,10,0,1,,,,,,,,,0,,,72,0
35460,control_change,0,0,1,,,,,,,,,0,64,127,,
35460,note_on,0,0,3,,,,,,,,,2,,,61,75
35460,control_change,0,0,3,,,,,,,,,2,64,127,,
35460,note_on,10,0,3,,,,,,,,,2,,,60,0
35469,note_on,9,0,3,,,,,,,,,2,,,63,75
35469,note_on,9,0,1,,,,,,,,,0,,,75,88
35470,note_on,1,0,1,,,,,,,,,0,,,73,0
35470,note_on,1,0,3,,,,,,,,,2,,,61,0
35479,note_on,9,0,1,,,,,,,,,0,,,75,0
35479,note_on,9,0,3,,,,,,,,,2,,,63,0
35480,note_on,1,0,1,,,,,,,,,0,,,77,88
35480,note_on,1,0,3,,,,,,,,,2,,,65,75
35490,note_on,0,0,1,,,,,,,,,0,,,75,88
35490,note_on,10,0,3,,,,,,,,,2,,,65,0
35490,note_on,0,0,3,,,,,,,,,2,,,63,75
35490,note_on,10,0,1,,,,,,,,,0,,,77,0
35499,note_on,9,0,3,,,,,,,,,2,,,61,75
35499,note_on,9,0,1,,,,,,,,,0,,,73,88
35500,note_on,1,0,1,,,,,,,,,0,,,75,0
35500,note_on,1,0,3,,,,,,,,,2,,,63,0
35509,note_on,9,0,3,,,,,,,,,2,,,61,0
35509,note_on,9,0,1,,,,,,,,,0,,,73,0
35510,note_on,1,0,3,,,,,,,,,2,,,60,75
35510,note_on,1,0,1,,,,,,,,,0,,,72,88
35520,note_on,10,0,3,,,,,,,,,2,,,60,0
35520,note_on,0,0,1,,,,,,,,,0,,,70,114
35520,note_on,10,0,1,,,,,,,,,0,,,72,0
35520,note_on,0,0,3,,,,,,,,,2,,,58,75
35529,note_on,9,0,3,,,,,,,,,2,,,60,75
35529,note_on,9,0,1,,,,,,,,,0,,,72,88
35530,note_on,1,0,3,,,,,,,,,2,,,58,0
35530,note_on,1,0,1,,,,,,,,,0,,,70,0
35539,note_on,9,0,3,,,,,,,,,2,,,60,0
35539,note_on,9,0,1,,,,,,,,,0,,,72,0
35540,note_on,1,0,1,,,,,,,,,0,,,73,88
35540,note_on,1,0,3,,,,,,,,,2,,,61,75
35550,note_on,10,0,3,,,,,,,,,2,,,61,0
35550,note_on,0,0,3,,,,,,,,,2,,,60,75
35550,note_on,10,0,1,,,,,,,,,0,,,73,0
35550,note_on,0,0,1,,,,,,,,,0,,,72,88
35559,note_on,9,0,3,,,,,,,,,2,,,58,75
35559,note_on,9,0,1,,,,,,,,,0,,,70,88
35560,note_on,1,0,1,,,,,,,,,0,,,72,0
35560,note_on,1,0,3,,,,,,,,,2,,,60,0
35569,note_on,9,0,1,,,,,,,,,0,,,70,0
35569,note_on,9,0,3,,,,,,,,,2,,,58,0
35570,note_on,1,0,3,,,,,,,,,2,,,56,75
35570,note_on,1,0,1,,,,,,,,,0,,,68,88
35580,note_on,0,0,1,,,,,,,,,0,,,67,114
35580,note_on,0,0,3,,,,,,,,,2,,,55,75
35580,control_change,0,0,3,,,,,,,,,2,64,0,,
35580,note_on,10,0,3,,,,,,,,,2,,,56,0
35580,note_on,10,0,1,,,,,,,,,0,,,68,0
35580,control_change,0,0,1,,,,,,,,,0,64,0,,
35589,note_on,9,0,1,,,,,,,,,0,,,70,88
35589,note_on,9,0,3,,,,,,,,,2,,,58,75
35590,note_on,1,0,1,,,,,,,,,0,,,67,0
35590,note_on,1,0,3,,,,,,,,,2,,,55,0
35599,note_on,9,0,1,,,,,,,,,0,,,70,0
35599,note_on,9,0,3,,,,,,,,,2,,,58,0
35600,note_on,1,0,3,,,,,,,,,2,,,55,75
35600,note_on,1,0,1,,,,,,,,,0,,,67,88
35610,note_on,0,0,3,,,,,,,,,2,,,52,75
35610,note_on,10,0,3,,,,,,,,,2,,,55,0
35610,note_on,10,0,1,,,,,,,,,0,,,67,0
35610,note_on,0,0,1,,,,,,,,,0,,,64,88
35619,note_on,9,0,3,,,,,,,,,2,,,51,75
35619,note_on,9,0,1,,,,,,,,,0,,,63,88
35620,note_on,1,0,3,,,,,,,,,2,,,52,0
35620,note_on,1,0,1,,,,,,,,,0,,,64,0
35629,note_on,9,0,3,,,,,,,,,2,,,51,0
35629,note_on,9,0,1,,,,,,,,,0,,,63,0
35630,note_on,1,0,3,,,,,,,,,2,,,49,75
35630,note_on,1,0,1,,,,,,,,,0,,,61,88
35640,note_on,0,0,3,,,,,,,,,2,,,48,75
35640,control_change,0,0,3,,,,,,,,,2,64,127,,
35640,note_on,10,0,3,,,,,,,,,2,,,49,0
35640,note_on,10,0,1,,,,,,,,,0,,,61,0
35640,control_change,0,0,1,,,,,,,,,0,64,127,,
35640,note_on,0,0,1,,,,,,,,,0,,,60,88
35649,note_on,9,0,1,,,,,,,,,0,,,63,88
35649,note_on,9,0,3,,,,,,,,,2,,,51,75
35650,note_on,1,0,3,,,,,,,,,2,,,48,0
35650,note_on,1,0,1,,,,,,,,,0,,,60,0
35659,note_on,9,0,3,,,,,,,,,2,,,51,0
35659,note_on,9,0,1,,,,,,,,,0,,,63,0
35660,note_on,1,0,3,,,,,,,,,2,,,56,75
35660,note_on,1,0,1,,,,,,,,,0,,,68,88
35670,note_on,0,0,3,,,,,,,,,2,,,47,75
35670,note_on,10,0,3,,,,,,,,,2,,,56,0
35670,note_on,10,0,1,,,,,,,,,0,,,68,0
35670,note_on,0,0,1,,,,,,,,,0,,,59,88
35679,note_on,9,0,3,,,,,,,,,2,,,50,75
35679,note_on,9,0,1,,,,,,,,,0,,,62,88
35680,note_on,1,0,1,,,,,,,,,0,,,59,0
35680,note_on,1,0,3,,,,,,,,,2,,,47,0
35689,note_on,9,0,1,,,,,,,,,0,,,62,0
35689,note_on,9,0,3,,,,,,,,,2,,,50,0
35690,note_on,1,0,1,,,,,,,,,0,,,68,88
35690,note_on,1,0,3,,,,,,,,,2,,,56,75
35700,note_on,10,0,3,,,,,,,,,2,,,56,0
35700,note_on,0,0,3,,,,,,,,,2,,,48,75
35700,note_on,10,0,1,,,,,,,,,0,,,68,0
35700,note_on,0,0,1,,,,,,,,,0,,,60,88
35709,note_on,9,0,3,,,,,,,,,2,,,51,75
35709,note_on,9,0,1,,,,,,,,,0,,,63,88
35710,note_on,1,0,1,,,,,,,,,0,,,60,0
35710,note_on,1,0,3,,,,,,,,,2,,,48,0
35719,note_on,9,0,1,,,,,,,,,0,,,63,0
35719,note_on,9,0,3,,,,,,,,,2,,,51,0
35720,note_on,1,0,3,,,,,,,,,2,,,56,75
35720,note_on,1,0,1,,,,,,,,,0,,,68,88
35730,note_on,0,0,3,,,,,,,,,2,,,47,75
35730,control_change,0,0,3,,,,,,,,,2,64,0,,
35730,note_on,10,0,3,,,,,,,,,2,,,56,0
35730,note_on,0,0,1,,,,,,,,,0,,,68,88
35730,note_on,10,0,1,,,,,,,,,0,,,68,0
35730,control_change,0,0,1,,,,,,,,,0,64,0,,
35730,note_on,0,0,1,,,,,,,,,0,,,62,88
35730,note_on,0,0,1,,,,,,,,,0,,,74,88
35739,note_on,9,0,3,,,,,,,,,2,,,50,75
35740,note_on,1,0,3,,,,,,,,,2,,,47,0
35749,note_on,9,0,3,,,,,,,,,2,,,50,0
35750,note_on,1,0,3,,,,,,,,,2,,,56,75
35760,note_on,0,0,1,,,,,,,,,0,,,68,0
35760,note_on,0,0,3,,,,,,,,,2,,,48,75
35760,note_on,0,0,1,,,,,,,,,0,,,63,88
35760,note_on,0,0,1,,,,,,,,,0,,,68,88
35760,note_on,0,0,1,,,,,,,,,0,,,75,88
35760,note_on,10,0,3,,,,,,,,,2,,,56,0
35760,note_on,0,0,1,,,,,,,,,0,,,62,0
35760,note_on,30,0,1,,,,,,,,,0,,,74,0
35769,note_on,9,0,3,,,,,,,,,2,,,51,75
35770,note_on,1,0,3,,,,,,,,,2,,,48,0
35779,note_on,9,0,3,,,,,,,,,2,,,51,0
35780,note_on,1,0,3,,,,,,,,,2,,,56,75
35790,note_on,0,0,1,,,,,,,,,0,,,69,88
35790,note_on,0,0,1,,,,,,,,,0,,,77,88
35790,note_on,0,0,1,,,,,,,,,0,,,63,0
35790,note_on,30,0,1,,,,,,,,,0,,,75,0
35790,note_on,0,0,1,,,,,,,,,0,,,75,88
35790,note_on,0,0,1,,,,,,,,,0,,,65,88
35790,note_on,0,0,1,,,,,,,,,0,,,68,0
35790,note_on,10,0,3,,,,,,,,,2,,,56,0
35790,note_on,0,0,3,,,,,,,,,2,,,47,75
35799,note_on,9,0,3,,,,,,,,,2,,,51,75
35800,note_on,1,0,3,,,,,,,,,2,,,47,0
35809,note_on,9,0,3,,,,,,,,,2,,,51,0
35810,note_on,1,0,3,,,,,,,,,2,,,53,75
35820,note_on,0,0,1,,,,,,,,,0,,,79,88
35820,note_on,0,0,1,,,,,,,,,0,,,75,88
35820,note_on,0,0,1,,,,,,,,,0,,,70,88
35820,note_on,0,0,1,,,,,,,,,0,,,67,88
35820,note_on,0,0,1,,,,,,,,,0,,,69,0
35820,note_on,0,0,1,,,,,,,,,0,,,65,0
35820,note_on,30,0,1,,,,,,,,,0,,,77,0
35820,note_on,10,0,3,,,,,,,,,2,,,53,0
35820,control_change,0,0,3,,,,,,,,,2,64,127,,
35820,note_on,0,0,3,,,,,,,,,2,,,46,75
35820,note_on,0,0,1,,,,,,,,,0,,,75,0
35829,note_on,9,0,3,,,,,,,,,2,,,51,75
35830,note_on,1,0,3,,,,,,,,,2,,,46,0
35839,note_on,9,0,3,,,,,,,,,2,,,51,0
35840,note_on,1,0,3,,,,,,,,,2,,,55,75
35850,note_on,0,0,1,,,,,,,,,0,,,68,88
35850,note_on,0,0,1,,,,,,,,,0,,,80,88
35850,note_on,0,0,1,,,,,,,,,0,,,75,88
35850,note_on,0,0,1,,,,,,,,,0,,,71,88
35850,note_on,0,0,1,,,,,,,,,0,,,75,0
35850,note_on,0,0,1,,,,,,,,,0,,,70,0
35850,note_on,0,0,1,,,,,,,,,0,,,67,0
35850,note_on,30,0,1,,,,,,,,,0,,,79,0
35850,note_on,0,0,3,,,,,,,,,2,,,44,75
35850,note_on,10,0,3,,,,,,,,,2,,,55,0
35850,control_change,0,0,3,,,,,,,,,2,64,0,,
35859,note_on,9,0,3,,,,,,,,,2,,,47,75
35860,note_on,1,0,3,,,,,,,,,2,,,44,0
35869,note_on,9,0,3,,,,,,,,,2,,,47,0
35870,note_on,1,0,3,,,,,,,,,2,,,51,75
35880,note_on,0,0,3,,,,,,,,,2,,,43,75
35880,note_on,10,0,3,,,,,,,,,2,,,51,0
35880,note_on,30,0,1,,,,,,,,,0,,,80,0
35880,note_on,0,0,1,,,,,,,,,0,,,68,0
35880,note_on,0,0,1,,,,,,,,,0,,,71,0
35880,note_on,0,0,1,,,,,,,,,0,,,75,0
35880,note_on,0,0,1,,,,,,,,,0,,,75,88
35880,note_on,0,0,1,,,,,,,,,0,,,82,88
35880,note_on,0,0,1,,,,,,,,,0,,,70,88
35889,note_on,9,0,3,,,,,,,,,2,,,46,75
35890,note_on,1,0,3,,,,,,,,,2,,,43,0
35899,note_on,9,0,3,,,,,,,,,2,,,46,0
35900,note_on,1,0,3,,,,,,,,,2,,,51,75
35910,note_on,0,0,3,,,,,,,,,2,,,42,88
35910,note_on,10,0,3,,,,,,,,,2,,,51,0
35910,note_on,0,0,1,,,,,,,,,0,,,90,101
35910,note_on,0,0,1,,,,,,,,,0,,,70,0
35910,note_on,0,0,1,,,,,,,,,0,,,75,0
35910,note_on,30,0,1,,,,,,,,,0,,,82,0
35910,note_on,0,0,1,,,,,,,,,0,,,78,101
35919,note_on,9,0,3,,,,,,,,,2,,,54,88
35920,note_on,1,0,3,,,,,,,,,2,,,42,0
35929,note_on,9,0,3,,,,,,,,,2,,,54,0
35930,note_on,1,0,3,,,,,,,,,2,,,42,88
35940,note_on,0,0,3,,,,,,,,,2,,,41,88
35940,note_on,30,0,1,,,,,,,,,0,,,90,0
35940,note_on,0,0,1,,,,,,,,,0,,,78,0
35940,note_on,0,0,1,,,,,,,,,0,,,77,101
35940,note_on,0,0,1,,,,,,,,,0,,,89,101
35940,note_on,10,0,3,,,,,,,,,2,,,42,0
35949,note_on,9,0,3,,,,,,,,,2,,,53,88
35950,note_on,1,0,3,,,,,,,,,2,,,41,0
35959,note_on,9,0,3,,,,,,,,,2,,,53,0
35960,note_on,1,0,3,,,,,,,,,2,,,41,88
35970,note_on,0,0,1,,,,,,,,,0,,,77,0
35970,note_on,10,0,3,,,,,,,,,2,,,41,0
35970,note_on,0,0,3,,,,,,,,,2,,,34,88
35970,note_on,0,0,3,,,,,,,,,2,,,46,88
35970,note_on,30,0,1,,,,,,,,,0,,,89,0
35970,note_on,0,0,1,,,,,,,,,0,,,80,101
35970,note_on,0,0,1,,,,,,,,,0,,,94,101
35970,note_on,0,0,1,,,,,,,,,0,,,86,101
36000,note_on,30,0,1,,,,,,,,,0,,,94,0
36000,note_on,0,0,1,,,,,,,,,0,,,86,0
36000,note_on,0,0,1,,,,,,,,,0,,,80,0
36000,note_on,0,0,1,,,,,,,,,0,,,75,101
36000,note_on,0,0,1,,,,,,,,,0,,,79,101
36000,note_on,0,0,1,,,,,,,,,0,,,87,101
36000,control_change,0,0,1,,,,,,,,,0,64,127,,
36000,note_on,30,0,3,,,,,,,,,2,,,46,0
36000,note_on,0,0,3,,,,,,,,,2,,,34,0
36000,control_change,0,0,3,,,,,,,,,2,64,127,,
36000,note_on,0,0,3,,,,,,,,,2,,,39,88
36009,note_on,9,0,3,,,,,,,,,2,,,43,88
36010,note_on,1,0,3,,,,,,,,,2,,,39,0
36019,note_on,9,0,3,,,,,,,,,2,,,43,0
36020,note_on,1,0,3,,,,,,,,,2,,,44,88
36030,note_on,0,0,3,,,,,,,,,2,,,46,88
36030,note_on,10,0,3,,,,,,,,,2,,,44,0
36030,note_on,0,0,1,,,,,,,,,0,,,75,0
36030,note_on,0,0,1,,,,,,,,,0,,,79,0
36030,note_on,30,0,1,,,,,,,,,0,,,87,0
36039,note_on,9,0,3,,,,,,,,,2,,,48,88
36040,note_on,1,0,3,,,,,,,,,2,,,46,0
36049,note_on,9,0,3,,,,,,,,,2,,,48,0
36050,note_on,1,0,3,,,,,,,,,2,,,50,88
36060,note_on,10,0,3,,,,,,,,,2,,,50,0
36060,note_on,0,0,3,,,,,,,,,2,,,51,88
36060,note_on,30,0,1,,,,,,,,,0,,,63,101
36069,note_on,9,0,3,,,,,,,,,2,,,55,88
36069,note_on,9,0,1,,,,,,,,,0,,,67,101
36070,note_on,1,0,1,,,,,,,,,0,,,63,0
36070,note_on,1,0,3,,,,,,,,,2,,,51,0
36079,note_on,9,0,1,,,,,,,,,0,,,67,0
36079,note_on,9,0,3,,,,,,,,,2,,,55,0
36080,note_on,1,0,1,,,,,,,,,0,,,68,101
36080,note_on,1,0,3,,,,,,,,,2,,,56,88
36090,note_on,0,0,1,,,,,,,,,0,,,70,101
36090,note_on,10,0,1,,,,,,,,,0,,,68,0
36090,note_on,0,0,3,,,,,,,,,2,,,58,88
36090,note_on,10,0,3,,,,,,,,,2,,,56,0
36099,note_on,9,0,3,,,,,,,,,2,,,60,88
36099,note_on,9,0,1,,,,,,,,,0,,,72,101
36100,note_on,1,0,3,,,,,,,,,2,,,58,0
36100,note_on,1,0,1,,,,,,,,,0,,,70,0
36109,note_on,9,0,3,,,,,,,,,2,,,60,0
36109,note_on,9,0,1,,,,,,,,,0,,,72,0
36110,note_on,1,0,1,,,,,,,,,0,,,74,101
36110,note_on,1,0,3,,,,,,,,,2,,,62,88
36120,note_on,0,0,3,,,,,,,,,2,,,63,114
36120,control_change,0,0,3,,,,,,,,,2,64,0,,
36120,note_on,10,0,3,,,,,,,,,2,,,62,0
36120,note_on,10,0,1,,,,,,,,,0,,,74,0
36120,control_change,0,0,1,,,,,,,,,0,64,0,,
36120,note_on,0,0,1,,,,,,,,,0,,,75,127
36150,note_on,0,0,3,,,,,,,,,2,,,63,49
36150,note_on,30,0,3,,,,,,,,,2,,,63,0
36150,note_on,30,0,1,,,,,,,,,0,,,75,0
36165,note_on,15,0,1,,,,,,,,,0,,,75,49
36180,control_change,30,0,3,,,,,,,,,2,64,127,,
36180,note_on,11754,0,4,,,,,,,,,3,,,51,49
36180,note_on,0,0,1,,,,,,,,,0,,,77,49
36180,note_on,15,0,1,,,,,,,,,0,,,75,0
36180,control_change,0,0,1,,,,,,,,,0,64,127,,
36189,note_on,9,0,1,,,,,,,,,0,,,79,49
36190,note_on,1,0,1,,,,,,,,,0,,,77,0
36199,note_on,9,0,1,,,,,,,,,0,,,79,0
36200,note_on,1,0,1,,,,,,,,,0,,,80,49
36210,note_on,30,0,3,,,,,,,,,2,,,63,0
36210,note_on,10,0,1,,,,,,,,,0,,,80,0
36210,note_on,0,0,1,,,,,,,,,0,,,81,49
36210,note_on,0,0,3,,,,,,,,,2,,,61,49
36219,note_on,9,0,1,,,,,,,,,0,,,82,49
36220,note_on,1,0,1,,,,,,,,,0,,,81,0
36229,note_on,9,0,1,,,,,,,,,0,,,82,0
36230,note_on,1,0,1,,,,,,,,,0,,,84,49
36240,note_on,10,0,1,,,,,,,,,0,,,84,0
36240,note_on,0,0,1,,,,,,,,,0,,,85,49
36240,note_on,60,0,4,,,,,,,,,3,,,51,0
36240,note_on,0,0,4,,,,,,,,,3,,,51,49
36249,note_on,9,0,1,,,,,,,,,0,,,87,49
36250,note_on,1,0,1,,,,,,,,,0,,,85,0
36259,note_on,9,0,1,,,,,,,,,0,,,87,0
36260,note_on,1,0,1,,,,,,,,,0,,,89,49
36270,note_on,0,0,1,,,,,,,,,0,,,87,49
36270,note_on,10,0,1,,,,,,,,,0,,,89,0
36270,note_on,0,0,3,,,,,,,,,2,,,58,49
36270,note_on,60,0,3,,,,,,,,,2,,,61,0
36279,note_on,9,0,1,,,,,,,,,0,,,85,49
36280,note_on,1,0,1,,,,,,,,,0,,,87,0
36289,note_on,9,0,1,,,,,,,,,0,,,85,0
36290,note_on,1,0,1,,,,,,,,,0,,,84,49
36300,note_on,0,0,3,,,,,,,,,2,,,61,49
36300,note_on,0,0,1,,,,,,,,,0,,,82,49
36300,control_change,0,0,1,,,,,,,,,0,64,0,,
36300,note_on,30,0,3,,,,,,,,,2,,,58,0
36300,control_change,0,0,3,,,,,,,,,2,64,0,,
36300,note_on,10,0,1,,,,,,,,,0,,,84,0
36309,note_on,9,0,1,,,,,,,,,0,,,70,49
36310,note_on,1,0,1,,,,,,,,,0,,,82,0
36319,note_on,9,0,1,,,,,,,,,0,,,70,0
36320,note_on,1,0,1,,,,,,,,,0,,,71,49
36330,note_on,30,0,3,,,,,,,,,2,,,61,0
36330,note_on,0,0,1,,,,,,,,,0,,,72,49
36330,note_on,10,0,1,,,,,,,,,0,,,71,0
36330,note_on,0,0,3,,,,,,,,,2,,,64,49
36339,note_on,9,0,1,,,,,,,,,0,,,73,49
36340,note_on,1,0,1,,,,,,,,,0,,,72,0
36345,note_on,15,0,3,,,,,,,,,2,,,64,0
36345,note_on,0,0,3,,,,,,,,,2,,,63,49
36349,note_on,9,0,1,,,,,,,,,0,,,73,0
36350,note_on,1,0,1,,,,,,,,,0,,,74,49
36360,note_on,0,0,1,,,,,,,,,0,,,75,49
36360,note_on,15,0,3,,,,,,,,,2,,,63,0
36360,control_change,0,0,3,,,,,,,,,2,64,127,,
36360,note_on,0,0,3,,,,,,,,,2,,,61,49
36360,note_on,10,0,1,,,,,,,,,0,,,74,0
36360,control_change,0,0,1,,,,,,,,,0,64,127,,
36360,note_on,0,0,4,,,,,,,,,3,,,51,49
36360,note_on,120,0,4,,,,,,,,,3,,,51,0
36369,note_on,9,0,1,,,,,,,,,0,,,77,49
36370,note_on,1,0,1,,,,,,,,,0,,,75,0
36379,note_on,9,0,1,,,,,,,,,0,,,77,0
36380,note_on,1,0,1,,,,,,,,,0,,,78,49
36390,note_on,30,0,3,,,,,,,,,2,,,61,0
36390,note_on,0,0,3,,,,,,,,,2,,,60,49
36390,note_on,10,0,1,,,,,,,,,0,,,78,0
36390,note_on,0,0,1,,,,,,,,,0,,,79,49
36399,note_on,9,0,1,,,,,,,,,0,,,80,49
36400,note_on,1,0,1,,,,,,,,,0,,,79,0
36409,note_on,9,0,1,,,,,,,,,0,,,80,0
36410,note_on,1,0,1,,,,,,,,,0,,,82,49
36420,note_on,60,0,4,,,,,,,,,3,,,51,0
36420,note_on,0,0,4,,,,,,,,,3,,,51,49
36420,note_on,10,0,1,,,,,,,,,0,,,82,0
36420,note_on,0,0,1,,,,,,,,,0,,,84,49
36429,note_on,9,0,1,,,,,,,,,0,,,85,49
36430,note_on,1,0,1,,,,,,,,,0,,,84,0
36439,note_on,9,0,1,,,,,,,,,0,,,85,0
36440,note_on,1,0,1,,,,,,,,,0,,,87,49
36450,note_on,0,0,1,,,,,,,,,0,,,85,49
36450,note_on,60,0,3,,,,,,,,,2,,,60,0
36450,note_on,0,0,3,,,,,,,,,2,,,56,49
36450,note_on,10,0,1,,,,,,,,,0,,,87,0
36459,note_on,9,0,1,,,,,,,,,0,,,84,49
36460,note_on,1,0,1,,,,,,,,,0,,,85,0
36469,note_on,9,0,1,,,,,,,,,0,,,84,0
36470,note_on,1,0,1,,,,,,,,,0,,,82,49
36480,note_on,30,0,3,,,,,,,,,2,,,56,0
36480,control_change,0,0,3,,,,,,,,,2,64,0,,
36480,note_on,0,0,3,,,,,,,,,2,,,60,49
36480,note_on,10,0,1,,,,,,,,,0,,,82,0
36480,control_change,0,0,1,,,,,,,,,0,64,0,,
36480,note_on,0,0,1,,,,,,,,,0,,,80,49
36489,note_on,9,0,1,,,,,,,,,0,,,68,49
36490,note_on,1,0,1,,,,,,,,,0,,,80,0
36499,note_on,9,0,1,,,,,,,,,0,,,68,0
36500,note_on,1,0,1,,,,,,,,,0,,,69,49
36510,note_on,10,0,1,,,,,,,,,0,,,69,0
36510,note_on,0,0,1,,,,,,,,,0,,,70,49
36510,note_on,30,0,3,,,,,,,,,2,,,60,0
36510,note_on,0,0,3,,,,,,,,,2,,,63,49
36519,note_on,9,0,1,,,,,,,,,0,,,72,49
36520,note_on,1,0,1,,,,,,,,,0,,,70,0
36525,note_on,0,0,3,,,,,,,,,2,,,61,49
36525,note_on,15,0,3,,,,,,,,,2,,,63,0
36529,note_on,9,0,1,,,,,,,,,0,,,72,0
36530,note_on,1,0,1,,,,,,,,,0,,,73,49
36540,note_on,0,0,1,,,,,,,,,0,,,75,49
36540,control_change,0,0,1,,,,,,,,,0,64,127,,
36540,note_on,10,0,1,,,,,,,,,0,,,73,0
36540,note_on,120,0,4,,,,,,,,,3,,,51,0
36540,note_on,15,0,3,,,,,,,,,2,,,61,0
36540,control_change,0,0,3,,,,,,,,,2,64,127,,
36540,note_on,0,0,3,,,,,,,,,2,,,59,49
36540,note_on,0,0,4,,,,,,,,,3,,,51,49
36549,note_on,9,0,1,,,,,,,,,0,,,77,49
36550,note_on,1,0,1,,,,,,,,,0,,,75,0
36559,note_on,9,0,1,,,,,,,,,0,,,77,0
36560,note_on,1,0,1,,,,,,,,,0,,,78,49
36570,note_on,30,0,3,,,,,,,,,2,,,59,0
36570,note_on,0,0,3,,,,,,,,,2,,,58,49
36570,note_on,0,0,1,,,,,,,,,0,,,79,49
36570,note_on,10,0,1,,,,,,,,,0,,,78,0
36579,note_on,9,0,1,,,,,,,,,0,,,80,49
36580,note_on,1,0,1,,,,,,,,,0,,,79,0
36589,note_on,9,0,1,,,,,,,,,0,,,80,0
36590,note_on,1,0,1,,,,,,,,,0,,,82,49
36600,note_on,0,0,3,,,,,,,,,2,,,56,49
36600,note_on,0,0,1,,,,,,,,,0,,,83,49
36600,note_on,30,0,3,,,,,,,,,2,,,58,0
36600,note_on,10,0,1,,,,,,,,,0,,,82,0
36609,note_on,9,0,1,,,,,,,,,0,,,85,49
36610,note_on,1,0,1,,,,,,,,,0,,,83,0
36619,note_on,9,0,1,,,,,,,,,0,,,85,0
36620,note_on,1,0,1,,,,,,,,,0,,,87,49
36630,note_on,10,0,1,,,,,,,,,0,,,87,0
36630,note_on,0,0,1,,,,,,,,,0,,,89,49
36630,note_on,30,0,3,,,,,,,,,2,,,56,0
36630,note_on,0,0,3,,,,,,,,,2,,,55,49
36639,note_on,9,0,1,,,,,,,,,0,,,91,49
36640,note_on,1,0,1,,,,,,,,,0,,,89,0
36649,note_on,9,0,1,,,,,,,,,0,,,91,0
36650,note_on,1,0,1,,,,,,,,,0,,,92,49
36660,note_on,10,0,1,,,,,,,,,0,,,92,0
36660,control_change,0,0,1,,,,,,,,,0,64,0,,
36660,note_on,0,0,1,,,,,,,,,0,,,93,49
36660,note_on,0,0,3,,,,,,,,,2,,,53,49
36660,control_change,0,0,3,,,,,,,,,2,64,0,,
36660,note_on,30,0,3,,,,,,,,,2,,,55,0
36669,note_on,9,0,1,,,,,,,,,0,,,94,49
36670,note_on,1,0,1,,,,,,,,,0,,,93,0
36679,note_on,9,0,1,,,,,,,,,0,,,94,0
36680,note_on,1,0,1,,,,,,,,,0,,,95,49
36690,note_on,0,0,1,,,,,,,,,0,,,96,49
36690,note_on,10,0,1,,,,,,,,,0,,,95,0
36690,note_on,30,0,3,,,,,,,,,2,,,53,0
36690,note_on,0,0,3,,,,,,,,,2,,,56,49
36690,note_on,0,0,3,,,,,,,,,2,,,65,49
36699,note_on,9,0,1,,,,,,,,,0,,,97,49
36700,note_on,1,0,1,,,,,,,,,0,,,96,0
36709,note_on,9,0,1,,,,,,,,,0,,,97,0
36710,note_on,1,0,1,,,,,,,,,0,,,98,49
36720,note_on,0,0,1,,,,,,,,,0,,,99,49
36720,note_on,0,0,3,,,,,,,,,2,,,63,49
36720,note_on,10,0,1,,,,,,,,,0,,,98,0
36720,note_on,0,0,3,,,,,,,,,2,,,55,49
36720,note_on,180,0,4,,,,,,,,,3,,,51,0
36720,control_change,0,0,3,,,,,,,,,2,64,127,,
36720,note_on,0,0,3,,,,,,,,,2,,,56,0
36720,note_on,0,0,3,,,,,,,,,2,,,51,49
36720,note_on,30,0,3,,,,,,,,,2,,,65,0
36750,note_on,30,0,3,,,,,,,,,2,,,63,0
36750,note_on,0,0,3,,,,,,,,,2,,,55,0
36750,note_on,0,0,3,,,,,,,,,2,,,51,0
36750,note_on,0,0,3,,,,,,,,,2,,,39,49
36750,note_on,30,0,1,,,,,,,,,0,,,99,0
36750,control_change,0,0,1,,,,,,,,,0,64,127,,
36750,note_on,0,0,1,,,,,,,,,0,,,63,49
36759,note_on,9,0,3,,,,,,,,,2,,,41,49
36759,note_on,9,0,1,,,,,,,,,0,,,65,49
36760,note_on,1,0,3,,,,,,,,,2,,,39,0
36760,note_on,1,0,1,,,,,,,,,0,,,63,0
36769,note_on,9,0,3,,,,,,,,,2,,,41,0
36769,note_on,9,0,1,,,,,,,,,0,,,65,0
36770,note_on,1,0,1,,,,,,,,,0,,,67,49
36770,note_on,1,0,3,,,,,,,,,2,,,43,49
36780,note_on,0,0,1,,,,,,,,,0,,,68,62
36780,note_on,0,0,3,,,,,,,,,2,,,44,49
36780,note_on,10,0,1,,,,,,,,,0,,,67,0
36780,note_on,10,0,3,,,,,,,,,2,,,43,0
36789,note_on,9,0,3,,,,,,,,,2,,,46,49
36789,note_on,9,0,1,,,,,,,,,0,,,70,62
36790,note_on,1,0,3,,,,,,,,,2,,,44,0
36790,note_on,1,0,1,,,,,,,,,0,,,68,0
36799,note_on,9,0,3,,,,,,,,,2,,,46,0
36799,note_on,9,0,1,,,,,,,,,0,,,70,0
36800,note_on,1,0,3,,,,,,,,,2,,,48,49
36800,note_on,1,0,1,,,,,,,,,0,,,72,62
36810,note_on,10,0,3,,,,,,,,,2,,,48,0
36810,note_on,0,0,3,,,,,,,,,2,,,50,49
36810,note_on,10,0,1,,,,,,,,,0,,,72,0
36810,note_on,0,0,1,,,,,,,,,0,,,74,62
36819,note_on,9,0,1,,,,,,,,,0,,,75,62
36819,note_on,9,0,3,,,,,,,,,2,,,51,49
36820,note_on,1,0,1,,,,,,,,,0,,,74,0
36820,note_on,1,0,3,,,,,,,,,2,,,50,0
36829,note_on,9,0,3,,,,,,,,,2,,,51,0
36829,note_on,9,0,1,,,,,,,,,0,,,75,0
36830,note_on,0,0,1,,,,,,,,,0,,,77,62
36830,control_change,1,0,1,,,,,,,,,0,64,0,,
36830,control_change,1,0,3,,,,,,,,,2,64,0,,
36830,note_on,0,0,3,,,,,,,,,2,,,53,49
36840,note_on,10,0,1,,,,,,,,,0,,,77,0
36840,note_on,0,0,1,,,,,,,,,0,,,79,75
36840,note_on,10,0,3,,,,,,,,,2,,,53,0
36840,note_on,0,0,3,,,,,,,,,2,,,55,62
36849,note_on,9,0,3,,,,,,,,,2,,,56,62
36849,note_on,9,0,1,,,,,,,,,0,,,80,75
36850,note_on,1,0,1,,,,,,,,,0,,,79,0
36850,note_on,1,0,3,,,,,,,,,2,,,55,0
36859,note_on,9,0,3,,,,,,,,,2,,,56,0
36859,note_on,9,0,1,,,,,,,,,0,,,80,0
36860,note_on,1,0,3,,,,,,,,,2,,,58,62
36860,note_on,1,0,1,,,,,,,,,0,,,82,75
36870,note_on,10,0,3,,,,,,,,,2,,,58,0
36870,note_on,0,0,1,,,,,,,,,0,,,84,75
36870,note_on,10,0,1,,,,,,,,,0,,,82,0
36870,note_on,0,0,3,,,,,,,,,2,,,60,62
36879,note_on,9,0,1,,,,,,,,,0,,,86,75
36879,note_on,9,0,3,,,,,,,,,2,,,62,62
36880,note_on,1,0,1,,,,,,,,,0,,,84,0
36880,note_on,1,0,3,,,,,,,,,2,,,60,0
36889,note_on,9,0,1,,,,,,,,,0,,,86,0
36889,note_on,9,0,3,,,,,,,,,2,,,62,0
36890,note_on,1,0,3,,,,,,,,,2,,,63,62
36890,note_on,1,0,1,,,,,,,,,0,,,87,75
36900,note_on,10,0,3,,,,,,,,,2,,,63,0
36900,control_change,0,0,3,,,,,,,,,2,64,127,,
36900,note_on,0,0,3,,,,,,,,,2,,,51,88
36900,note_on,0,0,3,,,,,,,,,2,,,63,88
36900,note_on,0,0,1,,,,,,,,,0,,,65,88
36900,control_change,0,0,1,,,,,,,,,0,64,127,,
36900,note_on,10,0,1,,,,,,,,,0,,,87,0
36909,note_on,9,0,1,,,,,,,,,0,,,67,88
36910,note_on,1,0,1,,,,,,,,,0,,,65,0
36919,note_on,9,0,1,,,,,,,,,0,,,67,0
36920,note_on,1,0,1,,,,,,,,,0,,,68,88
36930,note_on,10,0,1,,,,,,,,,0,,,68,0
36930,note_on,0,0,1,,,,,,,,,0,,,69,88
36930,note_on,30,0,3,,,,,,,,,2,,,63,0
36930,note_on,0,0,3,,,,,,,,,2,,,51,0
36930,note_on,0,0,3,,,,,,,,,2,,,49,88
36930,note_on,0,0,3,,,,,,,,,2,,,61,88
36939,note_on,9,0,1,,,,,,,,,0,,,70,88
36940,note_on,1,0,1,,,,,,,,,0,,,69,0
36949,note_on,9,0,1,,,,,,,,,0,,,70,0
36950,note_on,1,0,1,,,,,,,,,0,,,72,88
36960,note_on,10,0,1,,,,,,,,,0,,,72,0
36960,note_on,0,0,1,,,,,,,,,0,,,73,88
36969,note_on,9,0,1,,,,,,,,,0,,,75,88
36970,note_on,1,0,1,,,,,,,,,0,,,73,0
36979,note_on,9,0,1,,,,,,,,,0,,,75,0
36980,note_on,1,0,1,,,,,,,,,0,,,77,88
36990,note_on,0,0,3,,,,,,,,,2,,,58,88
36990,note_on,0,0,3,,,,,,,,,2,,,46,88
36990,note_on,0,0,3,,,,,,,,,2,,,49,0
36990,note_on,60,0,3,,,,,,,,,2,,,61,0
36990,note_on,0,0,1,,,,,,,,,0,,,79,88
36990,note_on,10,0,1,,,,,,,,,0,,,77,0
36999,note_on,9,0,1,,,,,,,,,0,,,80,88
37000,note_on,1,0,1,,,,,,,,,0,,,79,0
37009,note_on,9,0,1,,,,,,,,,0,,,80,0
37010,note_on,1,0,1,,,,,,,,,0,,,81,88
37020,note_on,0,0,1,,,,,,,,,0,,,82,88
37020,note_on,10,0,1,,,,,,,,,0,,,81,0
37020,control_change,0,0,1,,,,,,,,,0,64,0,,
37020,note_on,0,0,3,,,,,,,,,2,,,41,88
37020,note_on,30,0,3,,,,,,,,,2,,,58,0
37020,note_on,0,0,3,,,,,,,,,2,,,46,0
37020,control_change,0,0,3,,,,,,,,,2,64,0,,
37020,note_on,0,0,3,,,,,,,,,2,,,53,88
37029,note_on,9,0,1,,,,,,,,,0,,,84,88
37030,note_on,1,0,1,,,,,,,,,0,,,82,0
37039,note_on,9,0,1,,,,,,,,,0,,,84,0
37040,note_on,1,0,1,,,,,,,,,0,,,80,88
37050,note_on,0,0,3,,,,,,,,,2,,,52,88
37050,note_on,0,0,3,,,,,,,,,2,,,41,0
37050,note_on,0,0,1,,,,,,,,,0,,,82,88
37050,note_on,10,0,1,,,,,,,,,0,,,80,0
37050,note_on,30,0,3,,,,,,,,,2,,,53,0
37050,note_on,0,0,3,,,,,,,,,2,,,40,88
37059,note_on,9,0,1,,,,,,,,,0,,,84,88
37060,note_on,1,0,1,,,,,,,,,0,,,82,0
37069,note_on,9,0,1,,,,,,,,,0,,,84,0
37070,note_on,1,0,1,,,,,,,,,0,,,85,88
37072,note_on,22,0,3,,,,,,,,,2,,,39,88
37072,note_on,0,0,3,,,,,,,,,2,,,51,88
37073,note_on,1,0,3,,,,,,,,,2,,,52,0
37073,note_on,0,0,3,,,,,,,,,2,,,40,0
37080,note_on,0,0,3,,,,,,,,,2,,,51,0
37080,note_on,0,0,3,,,,,,,,,2,,,37,88
37080,control_change,0,0,3,,,,,,,,,2,64,127,,
37080,note_on,0,0,1,,,,,,,,,0,,,63,88
37080,note_on,7,0,3,,,,,,,,,2,,,39,0
37080,note_on,10,0,1,,,,,,,,,0,,,85,0
37080,note_on,0,0,3,,,,,,,,,2,,,49,88
37080,control_change,0,0,1,,,,,,,,,0,64,127,,
37089,note_on,9,0,1,,,,,,,,,0,,,65,88
37090,note_on,1,0,1,,,,,,,,,0,,,63,0
37099,note_on,9,0,1,,,,,,,,,0,,,65,0
37100,note_on,1,0,1,,,,,,,,,0,,,66,88
37110,note_on,30,0,3,,,,,,,,,2,,,49,0
37110,note_on,10,0,1,,,,,,,,,0,,,66,0
37110,note_on,0,0,1,,,,,,,,,0,,,67,88
37110,note_on,0,0,3,,,,,,,,,2,,,36,88
37110,note_on,0,0,3,,,,,,,,,2,,,48,88
37110,note_on,0,0,3,,,,,,,,,2,,,37,0
37119,note_on,9,0,1,,,,,,,,,0,,,68,88
37120,note_on,1,0,1,,,,,,,,,0,,,67,0
37129,note_on,9,0,1,,,,,,,,,0,,,68,0
37130,note_on,1,0,1,,,,,,,,,0,,,70,88
37140,note_on,10,0,1,,,,,,,,,0,,,70,0
37140,note_on,0,0,1,,,,,,,,,0,,,72,88
37149,note_on,9,0,1,,,,,,,,,0,,,73,88
37150,note_on,1,0,1,,,,,,,,,0,,,72,0
37159,note_on,9,0,1,,,,,,,,,0,,,73,0
37160,note_on,1,0,1,,,,,,,,,0,,,74,88
37170,control_change,0,0,3,,,,,,,,,2,64,0,,
37170,note_on,10,0,1,,,,,,,,,0,,,74,0
37170,note_on,0,0,3,,,,,,,,,2,,,44,88
37170,note_on,0,0,1,,,,,,,,,0,,,75,88
37170,note_on,0,0,3,,,,,,,,,2,,,36,0
37170,note_on,60,0,3,,,,,,,,,2,,,48,0
37174,note_on,4,0,3,,,,,,,,,2,,,44,0
37179,note_on,9,0,1,,,,,,,,,0,,,77,88
37180,note_on,1,0,1,,,,,,,,,0,,,75,0
37189,note_on,9,0,1,,,,,,,,,0,,,77,0
37190,note_on,1,0,1,,,,,,,,,0,,,79,88
37192,note_on,18,0,3,,,,,,,,,2,,,39,88
37196,note_on,4,0,3,,,,,,,,,2,,,39,0
37200,note_on,4,0,3,,,,,,,,,2,,,36,88
37200,note_on,0,0,1,,,,,,,,,0,,,80,88
37200,control_change,0,0,1,,,,,,,,,0,64,0,,
37200,note_on,10,0,1,,,,,,,,,0,,,79,0
37204,note_on,4,0,3,,,,,,,,,2,,,36,0
37209,note_on,9,0,1,,,,,,,,,0,,,82,88
37210,note_on,1,0,1,,,,,,,,,0,,,80,0
37219,note_on,9,0,1,,,,,,,,,0,,,82,0
37220,note_on,1,0,1,,,,,,,,,0,,,83,88
37230,note_on,0,0,1,,,,,,,,,0,,,84,88
37230,note_on,10,0,1,,,,,,,,,0,,,83,0
37230,note_on,26,0,3,,,,,,,,,2,,,32,88
37234,note_on,4,0,3,,,,,,,,,2,,,32,0
37239,note_on,9,0,1,,,,,,,,,0,,,85,88
37240,note_on,1,0,1,,,,,,,,,0,,,84,0
37249,note_on,9,0,1,,,,,,,,,0,,,85,0
37250,note_on,1,0,1,,,,,,,,,0,,,87,88
37260,note_on,0,0,3,,,,,,,,,2,,,40,101
37260,control_change,26,0,3,,,,,,,,,2,64,127,,
37260,note_on,0,0,3,,,,,,,,,2,,,52,101
37260,note_on,0,0,1,,,,,,,,,0,,,88,101
37260,control_change,0,0,1,,,,,,,,,0,64,127,,
37260,note_on,10,0,1,,,,,,,,,0,,,87,0
37269,note_on,9,0,1,,,,,,,,,0,,,76,101
37270,note_on,1,0,1,,,,,,,,,0,,,88,0
37279,note_on,9,0,1,,,,,,,,,0,,,76,0
37280,note_on,1,0,1,,,,,,,,,0,,,88,101
37290,note_on,0,0,3,,,,,,,,,2,,,40,0
37290,note_on,30,0,3,,,,,,,,,2,,,52,0
37290,note_on,0,0,1,,,,,,,,,0,,,90,101
37290,note_on,10,0,1,,,,,,,,,0,,,88,0
37290,note_on,0,0,3,,,,,,,,,2,,,42,101
37290,note_on,0,0,3,,,,,,,,,2,,,54,101
37299,note_on,9,0,1,,,,,,,,,0,,,78,101
37300,note_on,1,0,1,,,,,,,,,0,,,90,0
37309,note_on,9,0,1,,,,,,,,,0,,,78,0
37310,note_on,1,0,1,,,,,,,,,0,,,90,101
37320,note_on,10,0,1,,,,,,,,,0,,,90,0
37320,note_on,0,0,1,,,,,,,,,0,,,92,101
37320,note_on,30,0,3,,,,,,,,,2,,,54,0
37320,note_on,0,0,3,,,,,,,,,2,,,42,0
37320,note_on,0,0,3,,,,,,,,,2,,,56,101
37320,note_on,0,0,3,,,,,,,,,2,,,44,101
37329,note_on,9,0,1,,,,,,,,,0,,,80,101
37330,note_on,1,0,1,,,,,,,,,0,,,92,0
37339,note_on,9,0,1,,,,,,,,,0,,,80,0
37340,note_on,1,0,1,,,,,,,,,0,,,92,101
37350,note_on,0,0,3,,,,,,,,,2,,,42,101
37350,note_on,0,0,3,,,,,,,,,2,,,44,0
37350,note_on,0,0,1,,,,,,,,,0,,,90,101
37350,note_on,10,0,1,,,,,,,,,0,,,92,0
37350,note_on,30,0,3,,,,,,,,,2,,,56,0
37350,note_on,0,0,3,,,,,,,,,2,,,54,101
37359,note_on,9,0,1,,,,,,,,,0,,,78,101
37360,note_on,1,0,1,,,,,,,,,0,,,90,0
37369,note_on,9,0,1,,,,,,,,,0,,,78,0
37370,note_on,1,0,1,,,,,,,,,0,,,90,101
37380,note_on,10,0,1,,,,,,,,,0,,,90,0
37380,note_on,30,0,3,,,,,,,,,2,,,54,0
37380,control_change,0,0,1,,,,,,,,,0,64,0,,
37380,note_on,0,0,3,,,,,,,,,2,,,52,101
37380,note_on,0,0,3,,,,,,,,,2,,,40,101
37380,control_change,0,0,3,,,,,,,,,2,64,0,,
37380,note_on,0,0,3,,,,,,,,,2,,,42,0
37380,note_on,0,0,1,,,,,,,,,0,,,88,101
37389,note_on,9,0,1,,,,,,,,,0,,,76,101
37390,note_on,1,0,1,,,,,,,,,0,,,88,0
37399,note_on,9,0,1,,,,,,,,,0,,,76,0
37400,note_on,1,0,1,,,,,,,,,0,,,88,101
37410,note_on,0,0,3,,,,,,,,,2,,,40,0
37410,note_on,30,0,3,,,,,,,,,2,,,52,0
37410,note_on,0,0,3,,,,,,,,,2,,,46,114
37410,note_on,0,0,3,,,,,,,,,2,,,34,114
37410,note_on,0,0,1,,,,,,,,,0,,,74,114
37410,note_on,0,0,1,,,,,,,,,0,,,80,114
37410,note_on,0,0,1,,,,,,,,,0,,,86,114
37410,note_on,10,0,1,,,,,,,,,0,,,88,0
37414,note_on,4,0,3,,,,,,,,,2,,,46,0
37414,note_on,0,0,3,,,,,,,,,2,,,34,0
37414,note_on,0,0,1,,,,,,,,,0,,,80,0
37414,note_on,0,0,1,,,,,,,,,0,,,74,0
37414,note_on,4,0,1,,,,,,,,,0,,,86,0
37440,note_on,0,0,1,,,,,,,,,0,,,79,114
37440,control_change,26,0,1,,,,,,,,,0,64,127,,
37440,note_on,0,0,3,,,,,,,,,2,,,39,114
37440,control_change,26,0,3,,,,,,,,,2,64,127,,
37440,note_on,0,0,1,,,,,,,,,0,,,75,114
37440,note_on,0,0,1,,,,,,,,,0,,,87,114
37449,note_on,9,0,3,,,,,,,,,2,,,43,114
37450,note_on,1,0,3,,,,,,,,,2,,,39,0
37459,note_on,9,0,3,,,,,,,,,2,,,43,0
37460,note_on,1,0,3,,,,,,,,,2,,,44,114
37470,note_on,0,0,1,,,,,,,,,0,,,75,0
37470,note_on,10,0,3,,,,,,,,,2,,,44,0
37470,note_on,0,0,1,,,,,,,,,0,,,79,0
37470,note_on,30,0,1,,,,,,,,,0,,,87,0
37470,note_on,0,0,3,,,,,,,,,2,,,46,114
37479,note_on,9,0,3,,,,,,,,,2,,,48,114
37480,note_on,1,0,3,,,,,,,,,2,,,46,0
37489,note_on,9,0,3,,,,,,,,,2,,,48,0
37490,note_on,1,0,3,,,,,,,,,2,,,50,114
37500,note_on,30,0,1,,,,,,,,,0,,,63,114
37500,note_on,0,0,3,,,,,,,,,2,,,51,114
37500,note_on,10,0,3,,,,,,,,,2,,,50,0
37509,note_on,9,0,1,,,,,,,,,0,,,67,114
37509,note_on,9,0,3,,,,,,,,,2,,,55,114
37510,note_on,1,0,1,,,,,,,,,0,,,63,0
37510,note_on,1,0,3,,,,,,,,,2,,,51,0
37519,note_on,9,0,1,,,,,,,,,0,,,67,0
37519,note_on,9,0,3,,,,,,,,,2,,,55,0
37520,note_on,1,0,1,,,,,,,,,0,,,68,114
37520,note_on,1,0,3,,,,,,,,,2,,,56,114
37530,note_on,10,0,1,,,,,,,,,0,,,68,0
37530,note_on,0,0,1,,,,,,,,,0,,,70,114
37530,note_on,10,0,3,,,,,,,,,2,,,56,0
37530,note_on,0,0,3,,,,,,,,,2,,,58,114
37539,note_on,9,0,1,,,,,,,,,0,,,72,114
37539,note_on,9,0,3,,,,,,,,,2,,,60,114
37540,note_on,1,0,1,,,,,,,,,0,,,70,0
37540,note_on,1,0,3,,,,,,,,,2,,,58,0
37549,note_on,9,0,1,,,,,,,,,0,,,72,0
37549,note_on,9,0,3,,,,,,,,,2,,,60,0
37550,note_on,1,0,3,,,,,,,,,2,,,62,114
37550,note_on,1,0,1,,,,,,,,,0,,,74,114
37560,note_on,10,0,1,,,,,,,,,0,,,74,0
37560,control_change,0,0,1,,,,,,,,,0,64,0,,
37560,note_on,0,0,1,,,,,,,,,0,,,75,127
37560,note_on,0,0,3,,,,,,,,,2,,,63,127
37560,note_on,10,0,3,,,,,,,,,2,,,62,0
37560,control_change,0,0,3,,,,,,,,,2,64,0,,
37590,note_on,30,0,3,,,,,,,,,2,,,63,0
37590,note_on,30,0,1,,,,,,,,,0,,,75,0
37605,note_on,15,0,3,,,,,,,,,2,,,57,36
37605,note_on,15,0,1,,,,,,,,,0,,,72,49
37609,note_on,4,0,3,,,,,,,,,2,,,57,0
37620,note_on,0,0,1,,,,,,,,,0,,,73,49
37620,note_on,15,0,1,,,,,,,,,0,,,72,0
37620,note_on,11,0,3,,,,,,,,,2,,,58,36
37624,note_on,4,0,3,,,,,,,,,2,,,58,0
37629,note_on,9,0,1,,,,,,,,,0,,,75,49
37630,note_on,1,0,1,,,,,,,,,0,,,73,0
37639,note_on,9,0,1,,,,,,,,,0,,,75,0
37640,note_on,1,0,1,,,,,,,,,0,,,77,49
37650,note_on,10,0,1,,,,,,,,,0,,,77,0
37650,note_on,0,0,1,,,,,,,,,0,,,75,49
37659,note_on,9,0,1,,,,,,,,,0,,,73,49
37660,note_on,1,0,1,,,,,,,,,0,,,75,0
37665,note_on,41,0,3,,,,,,,,,2,,,60,36
37669,note_on,4,0,3,,,,,,,,,2,,,60,0
37669,note_on,9,0,1,,,,,,,,,0,,,73,0
37670,note_on,1,0,1,,,,,,,,,0,,,72,49
37680,note_on,10,0,1,,,,,,,,,0,,,72,0
37680,note_on,0,0,1,,,,,,,,,0,,,70,49
37680,note_on,11,0,3,,,,,,,,,2,,,61,36
37684,note_on,4,0,3,,,,,,,,,2,,,61,0
37689,note_on,9,0,1,,,,,,,,,0,,,72,49
37690,note_on,1,0,1,,,,,,,,,0,,,70,0
37699,note_on,9,0,1,,,,,,,,,0,,,72,0
37700,note_on,1,0,1,,,,,,,,,0,,,73,49
37710,note_on,10,0,1,,,,,,,,,0,,,73,0
37710,note_on,0,0,1,,,,,,,,,0,,,72,49
37719,note_on,9,0,1,,,,,,,,,0,,,70,49
37720,note_on,1,0,1,,,,,,,,,0,,,72,0
37725,note_on,41,0,3,,,,,,,,,2,,,62,36
37729,note_on,9,0,1,,,,,,,,,0,,,70,0
37729,note_on,4,0,3,,,,,,,,,2,,,62,0
37730,note_on,1,0,1,,,,,,,,,0,,,68,49
37740,note_on,10,0,1,,,,,,,,,0,,,68,0
37740,note_on,0,0,1,,,,,,,,,0,,,67,49
37740,note_on,11,0,3,,,,,,,,,2,,,63,36
37744,note_on,4,0,3,,,,,,,,,2,,,63,0
37749,note_on,9,0,1,,,,,,,,,0,,,70,49
37750,note_on,1,0,1,,,,,,,,,0,,,67,0
37759,note_on,9,0,1,,,,,,,,,0,,,70,0
37760,note_on,1,0,1,,,,,,,,,0,,,72,49
37770,note_on,10,0,1,,,,,,,,,0,,,72,0
37770,note_on,0,0,1,,,,,,,,,0,,,73,49
37779,note_on,9,0,1,,,,,,,,,0,,,75,49
37780,note_on,1,0,1,,,,,,,,,0,,,73,0
37785,note_on,41,0,3,,,,,,,,,2,,,61,36
37789,note_on,4,0,3,,,,,,,,,2,,,61,0
37789,note_on,9,0,1,,,,,,,,,0,,,75,0
37790,note_on,1,0,1,,,,,,,,,0,,,77,49
37800,note_on,10,0,1,,,,,,,,,0,,,77,0
37800,note_on,0,0,1,,,,,,,,,0,,,75,49
37800,note_on,11,0,3,,,,,,,,,2,,,60,36
37804,note_on,4,0,3,,,,,,,,,2,,,60,0
37809,note_on,9,0,1,,,,,,,,,0,,,84,49
37810,note_on,1,0,1,,,,,,,,,0,,,75,0
37819,note_on,9,0,1,,,,,,,,,0,,,84,0
37820,note_on,1,0,1,,,,,,,,,0,,,82,49
37830,note_on,10,0,1,,,,,,,,,0,,,82,0
37830,note_on,0,0,1,,,,,,,,,0,,,80,49
37839,note_on,9,0,1,,,,,,,,,0,,,79,49
37840,note_on,1,0,1,,,,,,,,,0,,,80,0
37845,note_on,0,0,3,,,,,,,,,2,,,68,36
37845,note_on,41,0,3,,,,,,,,,2,,,61,36
37849,note_on,0,0,3,,,,,,,,,2,,,61,0
37849,note_on,4,0,3,,,,,,,,,2,,,68,0
37849,note_on,9,0,1,,,,,,,,,0,,,79,0
37850,note_on,1,0,1,,,,,,,,,0,,,77,49
37860,note_on,0,0,1,,,,,,,,,0,,,75,49
37860,note_on,11,0,3,,,,,,,,,2,,,60,36
37860,note_on,0,0,3,,,,,,,,,2,,,68,36
37860,note_on,10,0,1,,,,,,,,,0,,,77,0
37864,note_on,0,0,3,,,,,,,,,2,,,60,0
37864,note_on,4,0,3,,,,,,,,,2,,,68,0
37869,note_on,9,0,1,,,,,,,,,0,,,77,49
37870,note_on,1,0,1,,,,,,,,,0,,,75,0
37879,note_on,9,0,1,,,,,,,,,0,,,77,0
37880,note_on,1,0,1,,,,,,,,,0,,,73,49
37890,note_on,10,0,1,,,,,,,,,0,,,73,0
37890,note_on,0,0,1,,,,,,,,,0,,,75,49
37899,note_on,9,0,1,,,,,,,,,0,,,72,49
37900,note_on,1,0,1,,,,,,,,,0,,,75,0
37905,note_on,0,0,3,,,,,,,,,2,,,58,36
37905,note_on,0,0,3,,,,,,,,,2,,,51,36
37905,note_on,41,0,3,,,,,,,,,2,,,49,36
37909,note_on,0,0,3,,,,,,,,,2,,,49,0
37909,note_on,0,0,3,,,,,,,,,2,,,51,0
37909,note_on,9,0,1,,,,,,,,,0,,,72,0
37909,note_on,4,0,3,,,,,,,,,2,,,58,0
37910,note_on,1,0,1,,,,,,,,,0,,,70,49
37920,note_on,0,0,3,,,,,,,,,2,,,56,36
37920,note_on,11,0,3,,,,,,,,,2,,,48,36
37920,note_on,0,0,3,,,,,,,,,2,,,51,36
37920,note_on,10,0,1,,,,,,,,,0,,,70,0
37920,note_on,0,0,1,,,,,,,,,0,,,68,49
37924,note_on,4,0,3,,,,,,,,,2,,,56,0
37924,note_on,0,0,3,,,,,,,,,2,,,48,0
37924,note_on,0,0,3,,,,,,,,,2,,,51,0
37929,note_on,9,0,1,,,,,,,,,0,,,70,49
37930,note_on,1,0,1,,,,,,,,,0,,,68,0
37939,note_on,9,0,1,,,,,,,,,0,,,70,0
37940,note_on,1,0,1,,,,,,,,,0,,,67,49
37950,note_on,10,0,1,,,,,,,,,0,,,67,0
37950,note_on,0,0,1,,,,,,,,,0,,,68,49
37959,note_on,9,0,1,,,,,,,,,0,,,70,49
37960,note_on,1,0,1,,,,,,,,,0,,,68,0
37965,note_on,41,0,3,,,,,,,,,2,,,44,36
37969,note_on,4,0,3,,,,,,,,,2,,,44,0
37969,note_on,9,0,1,,,,,,,,,0,,,70,0
37970,note_on,1,0,1,,,,,,,,,0,,,72,49
37980,control_change,11,0,3,,,,,,,,,2,64,127,,
37980,note_on,0,0,1,,,,,,,,,0,,,72,75
37980,note_on,0,0,3,,,,,,,,,2,,,37,36
37980,note_on,10,0,1,,,,,,,,,0,,,72,0
37980,control_change,0,0,1,,,,,,,,,0,64,127,,
37989,note_on,9,0,1,,,,,,,,,0,,,70,49
37990,note_on,1,0,1,,,,,,,,,0,,,72,0
37999,note_on,9,0,1,,,,,,,,,0,,,70,0
38000,note_on,1,0,1,,,,,,,,,0,,,72,49
38010,note_on,10,0,1,,,,,,,,,0,,,72,0
38010,note_on,0,0,1,,,,,,,,,0,,,73,49
38019,note_on,9,0,1,,,,,,,,,0,,,75,49
38020,note_on,1,0,1,,,,,,,,,0,,,73,0
38025,note_on,0,0,3,,,,,,,,,2,,,53,36
38025,note_on,45,0,3,,,,,,,,,2,,,37,0
38025,note_on,0,0,3,,,,,,,,,2,,,49,36
38025,note_on,0,0,3,,,,,,,,,2,,,58,36
38029,note_on,9,0,1,,,,,,,,,0,,,75,0
38030,note_on,1,0,1,,,,,,,,,0,,,77,49
38040,note_on,0,0,3,,,,,,,,,2,,,53,0
38040,note_on,0,0,3,,,,,,,,,2,,,49,0
38040,note_on,10,0,1,,,,,,,,,0,,,77,0
38040,note_on,0,0,3,,,,,,,,,2,,,41,36
38040,note_on,15,0,3,,,,,,,,,2,,,58,0
38040,note_on,0,0,1,,,,,,,,,0,,,78,75
38049,note_on,9,0,1,,,,,,,,,0,,,77,49
38050,note_on,1,0,1,,,,,,,,,0,,,78,0
38059,note_on,9,0,1,,,,,,,,,0,,,77,0
38060,note_on,1,0,1,,,,,,,,,0,,,81,49
38070,note_on,0,0,1,,,,,,,,,0,,,82,49
38070,note_on,10,0,1,,,,,,,,,0,,,81,0
38079,note_on,9,0,1,,,,,,,,,0,,,84,49
38080,note_on,1,0,1,,,,,,,,,0,,,82,0
38085,note_on,0,0,3,,,,,,,,,2,,,61,36
38085,note_on,0,0,3,,,,,,,,,2,,,58,36
38085,note_on,0,0,3,,,,,,,,,2,,,53,36
38085,note_on,45,0,3,,,,,,,,,2,,,41,0
38085,control_change,0,0,3,,,,,,,,,2,64,0,,
38089,note_on,9,0,1,,,,,,,,,0,,,84,0
38090,note_on,0,0,1,,,,,,,,,0,,,85,49
38090,control_change,1,0,1,,,,,,,,,0,64,0,,
38100,note_on,0,0,3,,,,,,,,,2,,,53,0
38100,note_on,0,0,3,,,,,,,,,2,,,41,36
38100,note_on,15,0,3,,,,,,,,,2,,,61,0
38100,note_on,0,0,3,,,,,,,,,2,,,58,0
38100,note_on,10,0,1,,,,,,,,,0,,,85,0
38100,note_on,0,0,1,,,,,,,,,0,,,90,75
38109,note_on,9,0,1,,,,,,,,,0,,,89,49
38110,note_on,1,0,1,,,,,,,,,0,,,90,0
38119,note_on,9,0,1,,,,,,,,,0,,,89,0
38120,note_on,1,0,1,,,,,,,,,0,,,91,49
38130,note_on,10,0,1,,,,,,,,,0,,,91,0
38130,note_on,0,0,1,,,,,,,,,0,,,93,49
38139,note_on,9,0,1,,,,,,,,,0,,,94,49
38140,note_on,1,0,1,,,,,,,,,0,,,93,0
38145,note_on,0,0,3,,,,,,,,,2,,,53,36
38145,note_on,0,0,3,,,,,,,,,2,,,57,36
38145,note_on,0,0,3,,,,,,,,,2,,,63,36
38145,note_on,45,0,3,,,,,,,,,2,,,41,0
38149,note_on,9,0,1,,,,,,,,,0,,,94,0
38150,note_on,1,0,1,,,,,,,,,0,,,96,49
38160,note_on,0,0,1,,,,,,,,,0,,,94,75
38160,note_on,15,0,3,,,,,,,,,2,,,63,0
38160,note_on,0,0,3,,,,,,,,,2,,,57,0
38160,note_on,0,0,3,,,,,,,,,2,,,53,0
38160,note_on,0,0,3,,,,,,,,,2,,,58,36
38160,note_on,0,0,3,,,,,,,,,2,,,61,36
38160,note_on,10,0,1,,,,,,,,,0,,,96,0
38164,note_on,0,0,3,,,,,,,,,2,,,58,0
38164,note_on,4,0,3,,,,,,,,,2,,,61,0
38169,note_on,5,0,3,,,,,,,,,2,,,46,36
38179,note_on,10,0,3,,,,,,,,,2,,,46,0
38180,note_on,1,0,3,,,,,,,,,2,,,48,36
38190,note_on,30,0,1,,,,,,,,,0,,,94,0
38190,note_on,0,0,3,,,,,,,,,2,,,49,36
38190,note_on,10,0,3,,,,,,,,,2,,,48,0
38199,note_on,9,0,3,,,,,,,,,2,,,51,36
38200,note_on,1,0,3,,,,,,,,,2,,,49,0
38209,note_on,9,0,3,,,,,,,,,2,,,51,0
38210,note_on,1,0,3,,,,,,,,,2,,,52,36
38220,note_on,10,0,3,,,,,,,,,2,,,52,0
38220,note_on,0,0,3,,,,,,,,,2,,,53,75
38229,note_on,9,0,3,,,,,,,,,2,,,55,75
38230,note_on,1,0,3,,,,,,,,,2,,,53,0
38239,note_on,9,0,3,,,,,,,,,2,,,55,0
38240,note_on,1,0,3,,,,,,,,,2,,,57,75
38250,note_on,10,0,3,,,,,,,,,2,,,57,0
38250,note_on,0,0,3,,,,,,,,,2,,,58,75
38259,note_on,9,0,3,,,,,,,,,2,,,60,75
38260,note_on,1,0,3,,,,,,,,,2,,,58,0
38269,note_on,9,0,3,,,,,,,,,2,,,60,0
38270,note_on,1,0,3,,,,,,,,,2,,,61,75
38280,note_on,90,0,1,,,,,,,,,0,,,70,88
38280,note_on,0,0,3,,,,,,,,,2,,,58,75
38280,note_on,10,0,3,,,,,,,,,2,,,61,0
38289,note_on,9,0,1,,,,,,,,,0,,,72,88
38289,note_on,9,0,3,,,,,,,,,2,,,60,75
38290,note_on,1,0,1,,,,,,,,,0,,,70,0
38290,note_on,1,0,3,,,,,,,,,2,,,58,0
38299,note_on,9,0,1,,,,,,,,,0,,,72,0
38299,note_on,9,0,3,,,,,,,,,2,,,60,0
38300,note_on,1,0,1,,,,,,,,,0,,,73,88
38300,note_on,1,0,3,,,,,,,,,2,,,61,75
38310,note_on,0,0,3,,,,,,,,,2,,,60,75
38310,note_on,10,0,1,,,,,,,,,0,,,73,0
38310,note_on,10,0,3,,,,,,,,,2,,,61,0
38310,note_on,0,0,1,,,,,,,,,0,,,72,88
38319,note_on,9,0,3,,,,,,,,,2,,,61,75
38319,note_on,9,0,1,,,,,,,,,0,,,73,88
38320,note_on,1,0,1,,,,,,,,,0,,,72,0
38320,note_on,1,0,3,,,,,,,,,2,,,60,0
38329,note_on,9,0,1,,,,,,,,,0,,,73,0
38329,note_on,9,0,3,,,,,,,,,2,,,61,0
38330,note_on,1,0,1,,,,,,,,,0,,,75,88
38330,note_on,1,0,3,,,,,,,,,2,,,63,75
38340,note_on,0,0,1,,,,,,,,,0,,,73,114
38340,control_change,0,0,1,,,,,,,,,0,64,127,,
38340,note_on,10,0,1,,,,,,,,,0,,,75,0
38340,control_change,0,0,3,,,,,,,,,2,64,127,,
38340,note_on,10,0,3,,,,,,,,,2,,,63,0
38340,note_on,0,0,3,,,,,,,,,2,,,61,75
38349,note_on,9,0,3,,,,,,,,,2,,,63,75
38349,note_on,9,0,1,,,,,,,,,0,,,75,88
38350,note_on,1,0,1,,,,,,,,,0,,,73,0
38350,note_on,1,0,3,,,,,,,,,2,,,61,0
38359,note_on,9,0,3,,,,,,,,,2,,,63,0
38359,note_on,9,0,1,,,,,,,,,0,,,75,0
38360,note_on,1,0,1,,,,,,,,,0,,,76,88
38360,note_on,1,0,3,,,,,,,,,2,,,64,75
38370,note_on,10,0,1,,,,,,,,,0,,,76,0
38370,note_on,0,0,1,,,,,,,,,0,,,75,88
38370,note_on,0,0,3,,,,,,,,,2,,,63,75
38370,note_on,10,0,3,,,,,,,,,2,,,64,0
38379,note_on,9,0,1,,,,,,,,,0,,,73,88
38379,note_on,9,0,3,,,,,,,,,2,,,61,75
38380,note_on,1,0,1,,,,,,,,,0,,,75,0
38380,note_on,1,0,3,,,,,,,,,2,,,63,0
38389,note_on,9,0,3,,,,,,,,,2,,,61,0
38389,note_on,9,0,1,,,,,,,,,0,,,73,0
38390,note_on,1,0,3,,,,,,,,,2,,,60,75
38390,note_on,1,0,1,,,,,,,,,0,,,72,88
38400,note_on,0,0,1,,,,,,,,,0,,,70,114
38400,note_on,0,0,3,,,,,,,,,2,,,58,75
38400,note_on,10,0,3,,,,,,,,,2,,,60,0
38400,note_on,10,0,1,,,,,,,,,0,,,72,0
38409,note_on,9,0,3,,,,,,,,,2,,,60,75
38409,note_on,9,0,1,,,,,,,,,0,,,72,88
38410,note_on,1,0,3,,,,,,,,,2,,,58,0
38410,note_on,1,0,1,,,,,,,,,0,,,70,0
38419,note_on,9,0,3,,,,,,,,,2,,,60,0
38419,note_on,9,0,1,,,,,,,,,0,,,72,0
38420,note_on,1,0,3,,,,,,,,,2,,,61,75
38420,note_on,1,0,1,,,,,,,,,0,,,73,88
38430,note_on,10,0,1,,,,,,,,,0,,,73,0
38430,note_on,0,0,1,,,,,,,,,0,,,72,88
38430,note_on,10,0,3,,,,,,,,,2,,,61,0
38430,note_on,0,0,3,,,,,,,,,2,,,60,75
38439,note_on,9,0,3,,,,,,,,,2,,,58,75
38439,note_on,9,0,1,,,,,,,,,0,,,70,88
38440,note_on,1,0,1,,,,,,,,,0,,,72,0
38440,note_on,1,0,3,,,,,,,,,2,,,60,0
38449,note_on,9,0,3,,,,,,,,,2,,,58,0
38449,note_on,9,0,1,,,,,,,,,0,,,70,0
38450,control_change,1,0,3,,,,,,,,,2,64,0,,
38450,note_on,0,0,3,,,,,,,,,2,,,56,75
38450,note_on,0,0,1,,,,,,,,,0,,,68,88
38450,control_change,1,0,1,,,,,,,,,0,64,0,,
38460,note_on,0,0,3,,,,,,,,,2,,,55,75
38460,note_on,10,0,3,,,,,,,,,2,,,56,0
38460,note_on,10,0,1,,,,,,,,,0,,,68,0
38460,note_on,0,0,1,,,,,,,,,0,,,67,114
38469,note_on,9,0,1,,,,,,,,,0,,,70,88
38469,note_on,9,0,3,,,,,,,,,2,,,58,75
38470,note_on,1,0,1,,,,,,,,,0,,,67,0
38470,note_on,1,0,3,,,,,,,,,2,,,55,0
38479,note_on,9,0,1,,,,,,,,,0,,,70,0
38479,note_on,9,0,3,,,,,,,,,2,,,58,0
38480,note_on,1,0,1,,,,,,,,,0,,,67,88
38480,note_on,1,0,3,,,,,,,,,2,,,55,75
38490,note_on,10,0,3,,,,,,,,,2,,,55,0
38490,note_on,0,0,3,,,,,,,,,2,,,52,75
38490,note_on,0,0,1,,,,,,,,,0,,,64,88
38490,note_on,10,0,1,,,,,,,,,0,,,67,0
38499,note_on,9,0,3,,,,,,,,,2,,,51,75
38499,note_on,9,0,1,,,,,,,,,0,,,63,88
38500,note_on,1,0,1,,,,,,,,,0,,,64,0
38500,note_on,1,0,3,,,,,,,,,2,,,52,0
38509,note_on,9,0,1,,,,,,,,,0,,,63,0
38509,note_on,9,0,3,,,,,,,,,2,,,51,0
38510,note_on,1,0,3,,,,,,,,,2,,,49,75
38510,note_on,1,0,1,,,,,,,,,0,,,61,88
38520,note_on,10,0,1,,,,,,,,,0,,,61,0
38520,control_change,0,0,3,,,,,,,,,2,64,127,,
38520,note_on,0,0,3,,,,,,,,,2,,,48,75
38520,note_on,0,0,1,,,,,,,,,0,,,60,88
38520,note_on,10,0,3,,,,,,,,,2,,,49,0
38520,control_change,0,0,1,,,,,,,,,0,64,127,,
38529,note_on,9,0,3,,,,,,,,,2,,,51,75
38529,note_on,9,0,1,,,,,,,,,0,,,63,88
38530,note_on,1,0,3,,,,,,,,,2,,,48,0
38530,note_on,1,0,1,,,,,,,,,0,,,60,0
38539,note_on,9,0,1,,,,,,,,,0,,,63,0
38539,note_on,9,0,3,,,,,,,,,2,,,51,0
38540,note_on,1,0,3,,,,,,,,,2,,,56,75
38540,note_on,1,0,1,,,,,,,,,0,,,68,88
38550,note_on,10,0,3,,,,,,,,,2,,,56,0
38550,note_on,0,0,3,,,,,,,,,2,,,47,75
38550,note_on,0,0,1,,,,,,,,,0,,,59,88
38550,note_on,10,0,1,,,,,,,,,0,,,68,0
38559,note_on,9,0,3,,,,,,,,,2,,,50,75
38559,note_on,9,0,1,,,,,,,,,0,,,62,88
38560,note_on,1,0,1,,,,,,,,,0,,,59,0
38560,note_on,1,0,3,,,,,,,,,2,,,47,0
38569,note_on,9,0,1,,,,,,,,,0,,,62,0
38569,note_on,9,0,3,,,,,,,,,2,,,50,0
38570,note_on,1,0,1,,,,,,,,,0,,,68,88
38570,note_on,1,0,3,,,,,,,,,2,,,56,75
38580,note_on,0,0,3,,,,,,,,,2,,,48,75
38580,note_on,0,0,1,,,,,,,,,0,,,60,88
38580,note_on,10,0,1,,,,,,,,,0,,,68,0
38580,note_on,10,0,3,,,,,,,,,2,,,56,0
38589,note_on,9,0,1,,,,,,,,,0,,,63,88
38589,note_on,9,0,3,,,,,,,,,2,,,51,75
38590,note_on,1,0,1,,,,,,,,,0,,,60,0
38590,note_on,1,0,3,,,,,,,,,2,,,48,0
38599,note_on,9,0,1,,,,,,,,,0,,,63,0
38599,note_on,9,0,3,,,,,,,,,2,,,51,0
38600,note_on,1,0,1,,,,,,,,,0,,,68,88
38600,note_on,1,0,3,,,,,,,,,2,,,56,75
38610,note_on,0,0,1,,,,,,,,,0,,,62,88
38610,control_change,0,0,1,,,,,,,,,0,64,0,,
38610,note_on,10,0,1,,,,,,,,,0,,,68,0
38610,note_on,0,0,1,,,,,,,,,0,,,74,88
38610,note_on,0,0,1,,,,,,,,,0,,,68,88
38610,note_on,10,0,3,,,,,,,,,2,,,56,0
38610,control_change,0,0,3,,,,,,,,,2,64,0,,
38610,note_on,0,0,3,,,,,,,,,2,,,47,75
38619,note_on,9,0,3,,,,,,,,,2,,,50,75
38620,note_on,1,0,3,,,,,,,,,2,,,47,0
38629,note_on,9,0,3,,,,,,,,,2,,,50,0
38630,note_on,1,0,3,,,,,,,,,2,,,56,75
38640,note_on,0,0,1,,,,,,,,,0,,,68,0
38640,note_on,0,0,1,,,,,,,,,0,,,63,88
38640,note_on,0,0,1,,,,,,,,,0,,,62,0
38640,note_on,0,0,3,,,,,,,,,2,,,48,75
38640,note_on,0,0,1,,,,,,,,,0,,,75,88
38640,note_on,0,0,1,,,,,,,,,0,,,68,88
38640,note_on,10,0,3,,,,,,,,,2,,,56,0
38640,note_on,30,0,1,,,,,,,,,0,,,74,0
38649,note_on,9,0,3,,,,,,,,,2,,,51,75
38650,note_on,1,0,3,,,,,,,,,2,,,48,0
38659,note_on,9,0,3,,,,,,,,,2,,,51,0
38660,note_on,1,0,3,,,,,,,,,2,,,56,75
38670,note_on,30,0,1,,,,,,,,,0,,,75,0
38670,note_on,10,0,3,,,,,,,,,2,,,56,0
38670,note_on,0,0,1,,,,,,,,,0,,,68,0
38670,note_on,0,0,1,,,,,,,,,0,,,63,0
38670,note_on,0,0,1,,,,,,,,,0,,,64,88
38670,note_on,0,0,1,,,,,,,,,0,,,68,88
38670,note_on,0,0,1,,,,,,,,,0,,,76,88
38670,note_on,0,0,3,,,,,,,,,2,,,48,75
38679,note_on,9,0,3,,,,,,,,,2,,,52,75
38680,note_on,1,0,3,,,,,,,,,2,,,48,0
38689,note_on,9,0,3,,,,,,,,,2,,,52,0
38690,note_on,1,0,3,,,,,,,,,2,,,55,75
38700,note_on,0,0,3,,,,,,,,,2,,,49,62
38700,control_change,0,0,3,,,,,,,,,2,64,127,,
38700,control_change,0,0,1,,,,,,,,,0,64,127,,
38700,note_on,10,0,3,,,,,,,,,2,,,55,0
38700,note_on,0,0,1,,,,,,,,,0,,,77,75
38700,note_on,0,0,1,,,,,,,,,0,,,68,0
38700,note_on,0,0,1,,,,,,,,,0,,,64,0
38700,note_on,0,0,1,,,,,,,,,0,,,65,75
38700,note_on,0,0,1,,,,,,,,,0,,,68,75
38700,note_on,30,0,1,,,,,,,,,0,,,76,0
38709,note_on,9,0,3,,,,,,,,,2,,,53,62
38710,note_on,1,0,3,,,,,,,,,2,,,49,0
38719,note_on,9,0,3,,,,,,,,,2,,,53,0
38720,note_on,1,0,3,,,,,,,,,2,,,56,62
38730,note_on,0,0,1,,,,,,,,,0,,,68,0
38730,note_on,0,0,3,,,,,,,,,2,,,52,62
38730,note_on,0,0,1,,,,,,,,,0,,,79,75
38730,note_on,0,0,1,,,,,,,,,0,,,72,75
38730,note_on,0,0,1,,,,,,,,,0,,,67,75
38730,note_on,0,0,1,,,,,,,,,0,,,65,0
38730,note_on,10,0,3,,,,,,,,,2,,,56,0
38730,note_on,30,0,1,,,,,,,,,0,,,77,0
38739,note_on,9,0,3,,,,,,,,,2,,,55,62
38740,note_on,1,0,3,,,,,,,,,2,,,52,0
38749,note_on,9,0,3,,,,,,,,,2,,,55,0
38750,note_on,1,0,3,,,,,,,,,2,,,60,62
38760,note_on,0,0,3,,,,,,,,,2,,,53,62
38760,control_change,0,0,3,,,,,,,,,2,64,0,,
38760,note_on,10,0,3,,,,,,,,,2,,,60,0
38760,note_on,0,0,1,,,,,,,,,0,,,68,75
38760,note_on,0,0,1,,,,,,,,,0,,,67,0
38760,note_on,30,0,1,,,,,,,,,0,,,79,0
38760,note_on,0,0,1,,,,,,,,,0,,,72,0
38760,note_on,0,0,1,,,,,,,,,0,,,72,75
38760,control_change,0,0,1,,,,,,,,,0,64,0,,
38760,note_on,0,0,1,,,,,,,,,0,,,80,75
38769,note_on,9,0,3,,,,,,,,,2,,,56,62
38770,note_on,1,0,3,,,,,,,,,2,,,53,0
38779,note_on,9,0,3,,,,,,,,,2,,,56,0
38780,note_on,1,0,3,,,,,,,,,2,,,60,62
38790,note_on,0,0,1,,,,,,,,,0,,,82,62
38790,note_on,0,0,1,,,,,,,,,0,,,75,62
38790,note_on,0,0,1,,,,,,,,,0,,,70,62
38790,note_on,0,0,1,,,,,,,,,0,,,68,0
38790,note_on,0,0,1,,,,,,,,,0,,,72,0
38790,note_on,30,0,1,,,,,,,,,0,,,80,0
38790,note_on,10,0,3,,,,,,,,,2,,,60,0
38790,note_on,0,0,3,,,,,,,,,2,,,55,49
38799,note_on,9,0,3,,,,,,,,,2,,,58,49
38800,note_on,1,0,3,,,,,,,,,2,,,55,0
38809,note_on,9,0,3,,,,,,,,,2,,,58,0
38810,note_on,1,0,3,,,,,,,,,2,,,63,49
38820,note_on,0,0,1,,,,,,,,,0,,,75,0
38820,note_on,0,0,3,,,,,,,,,2,,,56,49
38820,note_on,0,0,1,,,,,,,,,0,,,84,62
38820,note_on,0,0,1,,,,,,,,,0,,,70,0
38820,note_on,0,0,1,,,,,,,,,0,,,72,62
38820,note_on,30,0,1,,,,,,,,,0,,,82,0
38820,note_on,10,0,3,,,,,,,,,2,,,63,0
38820,note_on,0,0,1,,,,,,,,,0,,,75,62
38829,note_on,9,0,3,,,,,,,,,2,,,60,49
38830,note_on,1,0,3,,,,,,,,,2,,,56,0
38839,note_on,9,0,3,,,,,,,,,2,,,60,0
38840,note_on,1,0,3,,,,,,,,,2,,,63,49
38850,note_on,0,0,1,,,,,,,,,0,,,85,62
38850,note_on,0,0,1,,,,,,,,,0,,,75,62
38850,note_on,0,0,1,,,,,,,,,0,,,73,62
38850,note_on,10,0,3,,,,,,,,,2,,,63,0
38850,note_on,0,0,1,,,,,,,,,0,,,75,0
38850,note_on,30,0,1,,,,,,,,,0,,,84,0
38850,note_on,0,0,3,,,,,,,,,2,,,58,49
38850,note_on,0,0,1,,,,,,,,,0,,,72,0
38859,note_on,9,0,3,,,,,,,,,2,,,63,49
38860,note_on,1,0,3,,,,,,,,,2,,,58,0
38869,note_on,9,0,3,,,,,,,,,2,,,63,0
38870,note_on,1,0,3,,,,,,,,,2,,,67,49
38880,note_on,0,0,3,,,,,,,,,2,,,58,36
38880,note_on,0,0,1,,,,,,,,,0,,,85,49
38880,note_on,0,0,1,,,,,,,,,0,,,75,49
38880,note_on,0,0,1,,,,,,,,,0,,,73,49
38880,note_on,0,0,1,,,,,,,,,0,,,75,0
38880,note_on,10,0,3,,,,,,,,,2,,,67,0
38880,note_on,30,0,1,,,,,,,,,0,,,85,0
38880,note_on,0,0,1,,,,,,,,,0,,,73,0
38880,note_on,0,0,3,,,,,,,,,2,,,63,36
38880,note_on,0,0,3,,,,,,,,,2,,,67,36
38940,note_on,0,0,1,,,,,,,,,0,,,84,49
38940,note_on,0,0,1,,,,,,,,,0,,,75,49
38940,note_on,0,0,1,,,,,,,,,0,,,72,49
38940,note_on,0,0,1,,,,,,,,,0,,,73,0
38940,note_on,0,0,1,,,,,,,,,0,,,75,0
38940,note_on,60,0,1,,,,,,,,,0,,,85,0
38940,note_on,0,0,3,,,,,,,,,2,,,58,0
38940,note_on,0,0,3,,,,,,,,,2,,,56,36
38940,note_on,0,0,3,,,,,,,,,2,,,68,36
38940,note_on,60,0,3,,,,,,,,,2,,,67,0
38970,note_on,0,0,3,,,,,,,,,2,,,63,0
38970,note_on,30,0,3,,,,,,,,,2,,,68,0
38970,note_on,0,0,3,,,,,,,,,2,,,56,0
38970,note_on,30,0,1,,,,,,,,,0,,,84,0
38970,note_on,0,0,1,,,,,,,,,0,,,75,0
38970,note_on,0,0,1,,,,,,,,,0,,,72,0
38970,note_on,0,0,1,,,,,,,,,0,,,63,49
38979,note_on,9,0,1,,,,,,,,,0,,,65,49
38980,note_on,1,0,1,,,,,,,,,0,,,63,0
38989,note_on,9,0,1,,,,,,,,,0,,,65,0
38990,note_on,1,0,1,,,,,,,,,0,,,67,49
39000,note_on,10,0,1,,,,,,,,,0,,,67,0
39000,note_on,0,0,1,,,,,,,,,0,,,68,49
39009,note_on,9,0,1,,,,,,,,,0,,,70,49
39010,note_on,1,0,1,,,,,,,,,0,,,68,0
39019,note_on,9,0,1,,,,,,,,,0,,,70,0
39020,note_on,1,0,1,,,,,,,,,0,,,71,49
39030,note_on,60,0,3,,,,,,,,,2,,,63,36
39030,note_on,10,0,1,,,,,,,,,0,,,71,0
39030,note_on,0,0,1,,,,,,,,,0,,,72,49
39039,note_on,9,0,1,,,,,,,,,0,,,73,49
39040,note_on,1,0,1,,,,,,,,,0,,,72,0
39049,note_on,9,0,1,,,,,,,,,0,,,73,0
39050,note_on,1,0,1,,,,,,,,,0,,,75,49
39060,note_on,0,0,1,,,,,,,,,0,,,77,49
39060,note_on,10,0,1,,,,,,,,,0,,,75,0
39060,note_on,2340,0,4,,,,,,,,,3,,,51,49
39060,control_change,30,0,3,,,,,,,,,2,64,127,,
39060,control_change,0,0,1,,,,,,,,,0,64,127,,
39069,note_on,9,0,1,,,,,,,,,0,,,79,49
39070,note_on,1,0,1,,,,,,,,,0,,,77,0
39079,note_on,9,0,1,,,,,,,,,0,,,79,0
39080,note_on,1,0,1,,,,,,,,,0,,,80,49
39090,note_on,10,0,1,,,,,,,,,0,,,80,0
39090,note_on,0,0,3,,,,,,,,,2,,,61,36
39090,note_on,30,0,3,,,,,,,,,2,,,63,0
39090,note_on,0,0,1,,,,,,,,,0,,,81,49
39099,note_on,9,0,1,,,,,,,,,0,,,82,49
39100,note_on,1,0,1,,,,,,,,,0,,,81,0
39109,note_on,9,0,1,,,,,,,,,0,,,82,0
39110,note_on,1,0,1,,,,,,,,,0,,,84,49
39120,note_on,60,0,4,,,,,,,,,3,,,51,0
39120,note_on,10,0,1,,,,,,,,,0,,,84,0
39120,note_on,0,0,1,,,,,,,,,0,,,85,49
39120,note_on,0,0,4,,,,,,,,,3,,,51,49
39129,note_on,9,0,1,,,,,,,,,0,,,87,49
39130,note_on,1,0,1,,,,,,,,,0,,,85,0
39139,note_on,9,0,1,,,,,,,,,0,,,87,0
39140,note_on,1,0,1,,,,,,,,,0,,,89,49
39150,note_on,10,0,1,,,,,,,,,0,,,89,0
39150,note_on,0,0,1,,,,,,,,,0,,,87,49
39150,note_on,0,0,3,,,,,,,,,2,,,58,36
39150,note_on,60,0,3,,,,,,,,,2,,,61,0
39159,note_on,9,0,1,,,,,,,,,0,,,85,49
39160,note_on,1,0,1,,,,,,,,,0,,,87,0
39169,note_on,9,0,1,,,,,,,,,0,,,85,0
39170,note_on,1,0,1,,,,,,,,,0,,,84,49
39180,control_change,0,0,3,,,,,,,,,2,64,0,,
39180,note_on,30,0,3,,,,,,,,,2,,,58,0
39180,note_on,0,0,1,,,,,,,,,0,,,82,49
39180,note_on,0,0,3,,,,,,,,,2,,,61,36
39180,note_on,10,0,1,,,,,,,,,0,,,84,0
39180,control_change,0,0,1,,,,,,,,,0,64,0,,
39189,note_on,9,0,1,,,,,,,,,0,,,70,49
39190,note_on,1,0,1,,,,,,,,,0,,,82,0
39199,note_on,9,0,1,,,,,,,,,0,,,70,0
39200,note_on,1,0,1,,,,,,,,,0,,,71,49
39210,note_on,0,0,3,,,,,,,,,2,,,64,36
39210,note_on,0,0,1,,,,,,,,,0,,,72,49
39210,note_on,10,0,1,,,,,,,,,0,,,71,0
39210,note_on,30,0,3,,,,,,,,,2,,,61,0
39219,note_on,9,0,1,,,,,,,,,0,,,73,49
39220,note_on,1,0,1,,,,,,,,,0,,,72,0
39225,note_on,15,0,3,,,,,,,,,2,,,64,0
39225,note_on,0,0,3,,,,,,,,,2,,,63,36
39229,note_on,9,0,1,,,,,,,,,0,,,73,0
39230,note_on,1,0,1,,,,,,,,,0,,,74,49
39240,control_change,0,0,3,,,,,,,,,2,64,127,,
39240,note_on,0,0,3,,,,,,,,,2,,,61,36
39240,note_on,120,0,4,,,,,,,,,3,,,51,0
39240,note_on,10,0,1,,,,,,,,,0,,,74,0
39240,control_change,0,0,1,,,,,,,,,0,64,127,,
39240,note_on,0,0,1,,,,,,,,,0,,,75,49
39240,note_on,15,0,3,,,,,,,,,2,,,63,0
39240,note_on,0,0,4,,,,,,,,,3,,,51,49
39249,note_on,9,0,1,,,,,,,,,0,,,77,49
39250,note_on,1,0,1,,,,,,,,,0,,,75,0
39259,note_on,9,0,1,,,,,,,,,0,,,77,0
39260,note_on,1,0,1,,,,,,,,,0,,,78,49
39270,note_on,0,0,3,,,,,,,,,2,,,60,36
39270,note_on,10,0,1,,,,,,,,,0,,,78,0
39270,note_on,0,0,1,,,,,,,,,0,,,79,49
39270,note_on,30,0,3,,,,,,,,,2,,,61,0
39279,note_on,9,0,1,,,,,,,,,0,,,80,49
39280,note_on,1,0,1,,,,,,,,,0,,,79,0
39289,note_on,9,0,1,,,,,,,,,0,,,80,0
39290,note_on,1,0,1,,,,,,,,,0,,,82,49
39300,note_on,0,0,1,,,,,,,,,0,,,84,49
39300,note_on,10,0,1,,,,,,,,,0,,,82,0
39300,note_on,0,0,4,,,,,,,,,3,,,51,49
39300,note_on,60,0,4,,,,,,,,,3,,,51,0
39309,note_on,9,0,1,,,,,,,,,0,,,85,49
39310,note_on,1,0,1,,,,,,,,,0,,,84,0
39319,note_on,9,0,1,,,,,,,,,0,,,85,0
39320,note_on,1,0,1,,,,,,,,,0,,,87,49
39330,note_on,0,0,1,,,,,,,,,0,,,85,49
39330,note_on,10,0,1,,,,,,,,,0,,,87,0
39330,note_on,60,0,3,,,,,,,,,2,,,60,0
39330,note_on,0,0,3,,,,,,,,,2,,,56,36
39339,note_on,9,0,1,,,,,,,,,0,,,84,49
39340,note_on,1,0,1,,,,,,,,,0,,,85,0
39349,note_on,9,0,1,,,,,,,,,0,,,84,0
39350,note_on,1,0,1,,,,,,,,,0,,,82,49
39360,note_on,0,0,3,,,,,,,,,2,,,60,36
39360,note_on,10,0,1,,,,,,,,,0,,,82,0
39360,note_on,30,0,3,,,,,,,,,2,,,56,0
39360,control_change,0,0,3,,,,,,,,,2,64,0,,
39360,control_change,0,0,1,,,,,,,,,0,64,0,,
39360,note_on,0,0,1,,,,,,,,,0,,,80,49
39369,note_on,9,0,1,,,,,,,,,0,,,68,49
39370,note_on,1,0,1,,,,,,,,,0,,,80,0
39379,note_on,9,0,1,,,,,,,,,0,,,68,0
39380,note_on,1,0,1,,,,,,,,,0,,,69,49
39390,note_on,0,0,3,,,,,,,,,2,,,63,36
39390,note_on,10,0,1,,,,,,,,,0,,,69,0
39390,note_on,0,0,1,,,,,,,,,0,,,70,49
39390,note_on,30,0,3,,,,,,,,,2,,,60,0
39399,note_on,9,0,1,,,,,,,,,0,,,72,49
39400,note_on,1,0,1,,,,,,,,,0,,,70,0
39405,note_on,15,0,3,,,,,,,,,2,,,63,0
39405,note_on,0,0,3,,,,,,,,,2,,,61,36
39409,note_on,9,0,1,,,,,,,,,0,,,72,0
39410,note_on,1,0,1,,,,,,,,,0,,,73,49
39420,note_on,10,0,1,,,,,,,,,0,,,73,0
39420,control_change,0,0,1,,,,,,,,,0,64,127,,
39420,note_on,0,0,1,,,,,,,,,0,,,75,49
39420,note_on,0,0,3,,,,,,,,,2,,,59,36
39420,note_on,0,0,4,,,,,,,,,3,,,51,49
39420,note_on,15,0,3,,,,,,,,,2,,,61,0
39420,control_change,0,0,3,,,,,,,,,2,64,127,,
39420,note_on,120,0,4,,,,,,,,,3,,,51,0
39429,note_on,9,0,1,,,,,,,,,0,,,77,49
39430,note_on,1,0,1,,,,,,,,,0,,,75,0
39439,note_on,9,0,1,,,,,,,,,0,,,77,0
39440,note_on,1,0,1,,,,,,,,,0,,,78,49
39450,note_on,30,0,3,,,,,,,,,2,,,59,0
39450,note_on,10,0,1,,,,,,,,,0,,,78,0
39450,note_on,0,0,1,,,,,,,,,0,,,79,49
39450,note_on,0,0,3,,,,,,,,,2,,,58,36
39459,note_on,9,0,1,,,,,,,,,0,,,80,49
39460,note_on,1,0,1,,,,,,,,,0,,,79,0
39469,note_on,9,0,1,,,,,,,,,0,,,80,0
39470,note_on,1,0,1,,,,,,,,,0,,,82,49
39480,note_on,0,0,3,,,,,,,,,2,,,56,36
39480,note_on,10,0,1,,,,,,,,,0,,,82,0
39480,note_on,0,0,1,,,,,,,,,0,,,83,49
39480,note_on,30,0,3,,,,,,,,,2,,,58,0
39489,note_on,9,0,1,,,,,,,,,0,,,85,49
39490,note_on,1,0,1,,,,,,,,,0,,,83,0
39499,note_on,9,0,1,,,,,,,,,0,,,85,0
39500,note_on,1,0,1,,,,,,,,,0,,,87,49
39510,note_on,0,0,3,,,,,,,,,2,,,55,36
39510,note_on,30,0,3,,,,,,,,,2,,,56,0
39510,note_on,0,0,1,,,,,,,,,0,,,89,49
39510,note_on,10,0,1,,,,,,,,,0,,,87,0
39519,note_on,9,0,1,,,,,,,,,0,,,91,49
39520,note_on,1,0,1,,,,,,,,,0,,,89,0
39529,note_on,9,0,1,,,,,,,,,0,,,91,0
39530,note_on,1,0,1,,,,,,,,,0,,,92,49
39540,control_change,0,0,3,,,,,,,,,2,64,0,,
39540,note_on,0,0,3,,,,,,,,,2,,,53,36
39540,note_on,0,0,1,,,,,,,,,0,,,93,49
39540,control_change,0,0,1,,,,,,,,,0,64,0,,
39540,note_on,10,0,1,,,,,,,,,0,,,92,0
39540,note_on,30,0,3,,,,,,,,,2,,,55,0
39549,note_on,9,0,1,,,,,,,,,0,,,94,49
39550,note_on,1,0,1,,,,,,,,,0,,,93,0
39559,note_on,9,0,1,,,,,,,,,0,,,94,0
39560,note_on,1,0,1,,,,,,,,,0,,,95,49
39570,note_on,30,0,3,,,,,,,,,2,,,53,0
39570,note_on,10,0,1,,,,,,,,,0,,,95,0
39570,note_on,0,0,1,,,,,,,,,0,,,96,49
39570,note_on,0,0,3,,,,,,,,,2,,,56,36
39570,note_on,0,0,3,,,,,,,,,2,,,65,36
39579,note_on,9,0,1,,,,,,,,,0,,,97,49
39580,note_on,1,0,1,,,,,,,,,0,,,96,0
39589,note_on,9,0,1,,,,,,,,,0,,,97,0
39590,note_on,1,0,1,,,,,,,,,0,,,98,49
39600,note_on,10,0,1,,,,,,,,,0,,,98,0
39600,control_change,0,0,3,,,,,,,,,2,64,127,,
39600,note_on,0,0,3,,,,,,,,,2,,,56,0
39600,note_on,30,0,3,,,,,,,,,2,,,65,0
39600,note_on,0,0,1,,,,,,,,,0,,,99,49
39600,note_on,0,0,3,,,,,,,,,2,,,51,36
39600,note_on,0,0,3,,,,,,,,,2,,,63,36
39600,note_on,0,0,3,,,,,,,,,2,,,55,36
39600,note_on,180,0,4,,,,,,,,,3,,,51,0
39630,note_on,0,0,3,,,,,,,,,2,,,39,36
39630,note_on,0,0,3,,,,,,,,,2,,,51,0
39630,note_on,0,0,1,,,,,,,,,0,,,63,49
39630,note_on,30,0,3,,,,,,,,,2,,,63,0
39630,note_on,30,0,1,,,,,,,,,0,,,99,0
39630,note_on,0,0,3,,,,,,,,,2,,,55,0
39630,control_change,0,0,1,,,,,,,,,0,64,127,,
39639,note_on,9,0,1,,,,,,,,,0,,,65,49
39639,note_on,9,0,3,,,,,,,,,2,,,41,36
39640,note_on,1,0,3,,,,,,,,,2,,,39,0
39640,note_on,1,0,1,,,,,,,,,0,,,63,0
39649,note_on,9,0,3,,,,,,,,,2,,,41,0
39649,note_on,9,0,1,,,,,,,,,0,,,65,0
39650,note_on,1,0,1,,,,,,,,,0,,,67,49
39650,note_on,1,0,3,,,,,,,,,2,,,43,36
39660,note_on,0,0,1,,,,,,,,,0,,,68,62
39660,note_on,10,0,1,,,,,,,,,0,,,67,0
39660,note_on,10,0,3,,,,,,,,,2,,,43,0
39660,note_on,0,0,3,,,,,,,,,2,,,44,49
39669,note_on,9,0,1,,,,,,,,,0,,,70,62
39669,note_on,9,0,3,,,,,,,,,2,,,46,49
39670,note_on,1,0,1,,,,,,,,,0,,,68,0
39670,note_on,1,0,3,,,,,,,,,2,,,44,0
39679,note_on,9,0,1,,,,,,,,,0,,,70,0
39679,note_on,9,0,3,,,,,,,,,2,,,46,0
39680,note_on,1,0,1,,,,,,,,,0,,,72,62
39680,note_on,1,0,3,,,,,,,,,2,,,48,49
39690,note_on,0,0,1,,,,,,,,,0,,,74,62
39690,note_on,10,0,1,,,,,,,,,0,,,72,0
39690,note_on,0,0,3,,,,,,,,,2,,,50,49
39690,note_on,10,0,3,,,,,,,,,2,,,48,0
39699,note_on,9,0,1,,,,,,,,,0,,,75,62
39699,note_on,9,0,3,,,,,,,,,2,,,51,49
39700,note_on,1,0,3,,,,,,,,,2,,,50,0
39700,note_on,1,0,1,,,,,,,,,0,,,74,0
39709,note_on,9,0,1,,,,,,,,,0,,,75,0
39709,note_on,9,0,3,,,,,,,,,2,,,51,0
39710,control_change,1,0,3,,,,,,,,,2,64,0,,
39710,note_on,0,0,1,,,,,,,,,0,,,77,62
39710,control_change,1,0,1,,,,,,,,,0,64,0,,
39710,note_on,0,0,3,,,,,,,,,2,,,53,49
39720,note_on,0,0,3,,,,,,,,,2,,,55,62
39720,note_on,10,0,3,,,,,,,,,2,,,53,0
39720,note_on,0,0,1,,,,,,,,,0,,,79,75
39720,note_on,10,0,1,,,,,,,,,0,,,77,0
39729,note_on,9,0,1,,,,,,,,,0,,,80,75
39729,note_on,9,0,3,,,,,,,,,2,,,56,62
39730,note_on,1,0,3,,,,,,,,,2,,,55,0
39730,note_on,1,0,1,,,,,,,,,0,,,79,0
39739,note_on,9,0,1,,,,,,,,,0,,,80,0
39739,note_on,9,0,3,,,,,,,,,2,,,56,0
39740,note_on,1,0,3,,,,,,,,,2,,,58,62
39740,note_on,1,0,1,,,,,,,,,0,,,82,75
39750,note_on,0,0,3,,,,,,,,,2,,,60,62
39750,note_on,0,0,1,,,,,,,,,0,,,84,75
39750,note_on,10,0,1,,,,,,,,,0,,,82,0
39750,note_on,10,0,3,,,,,,,,,2,,,58,0
39759,note_on,9,0,3,,,,,,,,,2,,,62,62
39759,note_on,9,0,1,,,,,,,,,0,,,86,75
39760,note_on,1,0,3,,,,,,,,,2,,,60,0
39760,note_on,1,0,1,,,,,,,,,0,,,84,0
39769,note_on,9,0,3,,,,,,,,,2,,,62,0
39769,note_on,9,0,1,,,,,,,,,0,,,86,0
39770,note_on,1,0,1,,,,,,,,,0,,,87,75
39770,note_on,1,0,3,,,,,,,,,2,,,63,62
39780,note_on,10,0,3,,,,,,,,,2,,,63,0
39780,control_change,0,0,3,,,,,,,,,2,64,127,,
39780,note_on,0,0,3,,,,,,,,,2,,,51,88
39780,note_on,0,0,3,,,,,,,,,2,,,63,88
39780,note_on,0,0,1,,,,,,,,,0,,,65,88
39780,control_change,0,0,1,,,,,,,,,0,64,127,,
39780,note_on,10,0,1,,,,,,,,,0,,,87,0
39789,note_on,9,0,1,,,,,,,,,0,,,67,88
39790,note_on,1,0,1,,,,,,,,,0,,,65,0
39799,note_on,9,0,1,,,,,,,,,0,,,67,0
39800,note_on,1,0,1,,,,,,,,,0,,,68,88
39810,note_on,0,0,3,,,,,,,,,2,,,61,88
39810,note_on,10,0,1,,,,,,,,,0,,,68,0
39810,note_on,0,0,1,,,,,,,,,0,,,69,88
39810,note_on,30,0,3,,,,,,,,,2,,,63,0
39810,note_on,0,0,3,,,,,,,,,2,,,51,0
39810,note_on,0,0,3,,,,,,,,,2,,,49,88
39819,note_on,9,0,1,,,,,,,,,0,,,70,88
39820,note_on,1,0,1,,,,,,,,,0,,,69,0
39829,note_on,9,0,1,,,,,,,,,0,,,70,0
39830,note_on,1,0,1,,,,,,,,,0,,,72,88
39840,note_on,10,0,1,,,,,,,,,0,,,72,0
39840,note_on,0,0,1,,,,,,,,,0,,,73,88
39849,note_on,9,0,1,,,,,,,,,0,,,75,88
39850,note_on,1,0,1,,,,,,,,,0,,,73,0
39859,note_on,9,0,1,,,,,,,,,0,,,75,0
39860,note_on,1,0,1,,,,,,,,,0,,,77,88
39870,note_on,0,0,1,,,,,,,,,0,,,79,88
39870,note_on,60,0,3,,,,,,,,,2,,,61,0
39870,note_on,10,0,1,,,,,,,,,0,,,77,0
39870,note_on,0,0,3,,,,,,,,,2,,,49,0
39870,note_on,0,0,3,,,,,,,,,2,,,46,88
39870,note_on,0,0,3,,,,,,,,,2,,,58,88
39879,note_on,9,0,1,,,,,,,,,0,,,80,88
39880,note_on,1,0,1,,,,,,,,,0,,,79,0
39889,note_on,9,0,1,,,,,,,,,0,,,80,0
39890,note_on,1,0,1,,,,,,,,,0,,,81,88
39900,control_change,0,0,3,,,,,,,,,2,64,0,,
39900,note_on,0,0,3,,,,,,,,,2,,,46,0
39900,note_on,30,0,3,,,,,,,,,2,,,58,0
39900,note_on,0,0,3,,,,,,,,,2,,,53,88
39900,note_on,0,0,3,,,,,,,,,2,,,41,88
39900,note_on,0,0,1,,,,,,,,,0,,,82,88
39900,control_change,0,0,1,,,,,,,,,0,64,0,,
39900,note_on,10,0,1,,,,,,,,,0,,,81,0
39909,note_on,9,0,1,,,,,,,,,0,,,84,88
39910,note_on,1,0,1,,,,,,,,,0,,,82,0
39919,note_on,9,0,1,,,,,,,,,0,,,84,0
39920,note_on,1,0,1,,,,,,,,,0,,,80,88
39930,note_on,0,0,1,,,,,,,,,0,,,82,88
39930,note_on,10,0,1,,,,,,,,,0,,,80,0
39930,note_on,0,0,3,,,,,,,,,2,,,52,88
39930,note_on,0,0,3,,,,,,,,,2,,,40,88
39930,note_on,0,0,3,,,,,,,,,2,,,41,0
39930,note_on,30,0,3,,,,,,,,,2,,,53,0
39939,note_on,9,0,1,,,,,,,,,0,,,84,88
39940,note_on,1,0,1,,,,,,,,,0,,,82,0
39949,note_on,9,0,1,,,,,,,,,0,,,84,0
39950,note_on,1,0,1,,,,,,,,,0,,,85,88
39952,note_on,0,0,3,,,,,,,,,2,,,51,88
39952,note_on,22,0,3,,,,,,,,,2,,,39,88
39953,note_on,1,0,3,,,,,,,,,2,,,52,0
39953,note_on,0,0,3,,,,,,,,,2,,,40,0
39960,control_change,0,0,3,,,,,,,,,2,64,127,,
39960,note_on,0,0,3,,,,,,,,,2,,,51,0
39960,note_on,0,0,3,,,,,,,,,2,,,37,88
39960,note_on,7,0,3,,,,,,,,,2,,,39,0
39960,note_on,0,0,3,,,,,,,,,2,,,49,88
39960,note_on,10,0,1,,,,,,,,,0,,,85,0
39960,control_change,0,0,1,,,,,,,,,0,64,127,,
39960,note_on,0,0,1,,,,,,,,,0,,,63,88
39969,note_on,9,0,1,,,,,,,,,0,,,65,88
39970,note_on,1,0,1,,,,,,,,,0,,,63,0
39979,note_on,9,0,1,,,,,,,,,0,,,65,0
39980,note_on,1,0,1,,,,,,,,,0,,,66,88
39990,note_on,0,0,3,,,,,,,,,2,,,48,88
39990,note_on,10,0,1,,,,,,,,,0,,,66,0
39990,note_on,0,0,1,,,,,,,,,0,,,67,88
39990,note_on,0,0,3,,,,,,,,,2,,,37,0
39990,note_on,0,0,3,,,,,,,,,2,,,36,88
39990,note_on,30,0,3,,,,,,,,,2,,,49,0
39999,note_on,9,0,1,,,,,,,,,0,,,68,88
40000,note_on,1,0,1,,,,,,,,,0,,,67,0
40009,note_on,9,0,1,,,,,,,,,0,,,68,0
40010,note_on,1,0,1,,,,,,,,,0,,,70,88
40020,note_on,10,0,1,,,,,,,,,0,,,70,0
40020,note_on,0,0,1,,,,,,,,,0,,,72,88
40029,note_on,9,0,1,,,,,,,,,0,,,73,88
40030,note_on,1,0,1,,,,,,,,,0,,,72,0
40039,note_on,9,0,1,,,,,,,,,0,,,73,0
40040,note_on,1,0,1,,,,,,,,,0,,,74,88
40050,control_change,0,0,3,,,,,,,,,2,64,0,,
40050,note_on,10,0,1,,,,,,,,,0,,,74,0
40050,note_on,0,0,1,,,,,,,,,0,,,75,88
40050,note_on,60,0,3,,,,,,,,,2,,,48,0
40050,note_on,0,0,3,,,,,,,,,2,,,36,0
40050,note_on,0,0,3,,,,,,,,,2,,,44,88
40054,note_on,4,0,3,,,,,,,,,2,,,44,0
40059,note_on,9,0,1,,,,,,,,,0,,,77,88
40060,note_on,1,0,1,,,,,,,,,0,,,75,0
40069,note_on,9,0,1,,,,,,,,,0,,,77,0
40070,note_on,1,0,1,,,,,,,,,0,,,79,88
40072,note_on,18,0,3,,,,,,,,,2,,,39,88
40076,note_on,4,0,3,,,,,,,,,2,,,39,0
40080,note_on,0,0,1,,,,,,,,,0,,,80,88
40080,control_change,0,0,1,,,,,,,,,0,64,0,,
40080,note_on,10,0,1,,,,,,,,,0,,,79,0
40080,note_on,4,0,3,,,,,,,,,2,,,36,88
40084,note_on,4,0,3,,,,,,,,,2,,,36,0
40089,note_on,9,0,1,,,,,,,,,0,,,82,88
40090,note_on,1,0,1,,,,,,,,,0,,,80,0
40099,note_on,9,0,1,,,,,,,,,0,,,82,0
40100,note_on,1,0,1,,,,,,,,,0,,,83,88
40110,note_on,0,0,1,,,,,,,,,0,,,84,88
40110,note_on,10,0,1,,,,,,,,,0,,,83,0
40110,note_on,26,0,3,,,,,,,,,2,,,32,88
40114,note_on,4,0,3,,,,,,,,,2,,,32,0
40119,note_on,9,0,1,,,,,,,,,0,,,85,88
40120,note_on,1,0,1,,,,,,,,,0,,,84,0
40129,note_on,9,0,1,,,,,,,,,0,,,85,0
40130,note_on,1,0,1,,,,,,,,,0,,,87,88
40140,note_on,10,0,1,,,,,,,,,0,,,87,0
40140,control_change,0,0,1,,,,,,,,,0,64,127,,
40140,note_on,0,0,1,,,,,,,,,0,,,88,101
40140,note_on,0,0,3,,,,,,,,,2,,,40,101
40140,control_change,26,0,3,,,,,,,,,2,64,127,,
40140,note_on,0,0,3,,,,,,,,,2,,,52,101
40149,note_on,9,0,1,,,,,,,,,0,,,76,101
40150,note_on,1,0,1,,,,,,,,,0,,,88,0
40159,note_on,9,0,1,,,,,,,,,0,,,76,0
40160,note_on,1,0,1,,,,,,,,,0,,,88,101
40170,note_on,0,0,3,,,,,,,,,2,,,40,0
40170,note_on,0,0,3,,,,,,,,,2,,,42,101
40170,note_on,30,0,3,,,,,,,,,2,,,52,0
40170,note_on,0,0,1,,,,,,,,,0,,,90,101
40170,note_on,10,0,1,,,,,,,,,0,,,88,0
40170,note_on,0,0,3,,,,,,,,,2,,,54,101
40179,note_on,9,0,1,,,,,,,,,0,,,78,101
40180,note_on,1,0,1,,,,,,,,,0,,,90,0
40189,note_on,9,0,1,,,,,,,,,0,,,78,0
40190,note_on,1,0,1,,,,,,,,,0,,,90,101
40200,note_on,0,0,1,,,,,,,,,0,,,92,101
40200,note_on,10,0,1,,,,,,,,,0,,,90,0
40200,note_on,30,0,3,,,,,,,,,2,,,54,0
40200,note_on,0,0,3,,,,,,,,,2,,,42,0
40200,note_on,0,0,3,,,,,,,,,2,,,56,101
40200,note_on,0,0,3,,,,,,,,,2,,,44,101
40209,note_on,9,0,1,,,,,,,,,0,,,80,101
40210,note_on,1,0,1,,,,,,,,,0,,,92,0
40219,note_on,9,0,1,,,,,,,,,0,,,80,0
40220,note_on,1,0,1,,,,,,,,,0,,,92,101
40230,note_on,0,0,3,,,,,,,,,2,,,42,101
40230,note_on,0,0,3,,,,,,,,,2,,,44,0
40230,note_on,30,0,3,,,,,,,,,2,,,56,0
40230,note_on,10,0,1,,,,,,,,,0,,,92,0
40230,note_on,0,0,1,,,,,,,,,0,,,90,101
40230,note_on,0,0,3,,,,,,,,,2,,,54,101
40239,note_on,9,0,1,,,,,,,,,0,,,78,101
40240,note_on,1,0,1,,,,,,,,,0,,,90,0
40249,note_on,9,0,1,,,,,,,,,0,,,78,0
40250,note_on,1,0,1,,,,,,,,,0,,,90,101
40260,note_on,0,0,3,,,,,,,,,2,,,40,101
40260,control_change,0,0,1,,,,,,,,,0,64,0,,
40260,note_on,10,0,1,,,,,,,,,0,,,90,0
40260,note_on,0,0,1,,,,,,,,,0,,,88,101
40260,control_change,0,0,3,,,,,,,,,2,64,0,,
40260,note_on,0,0,3,,,,,,,,,2,,,42,0
40260,note_on,30,0,3,,,,,,,,,2,,,54,0
40260,note_on,0,0,3,,,,,,,,,2,,,52,101
40269,note_on,9,0,1,,,,,,,,,0,,,76,101
40270,note_on,1,0,1,,,,,,,,,0,,,88,0
40279,note_on,9,0,1,,,,,,,,,0,,,76,0
40280,note_on,1,0,1,,,,,,,,,0,,,88,101
40290,note_on,30,0,3,,,,,,,,,2,,,52,0
40290,note_on,0,0,3,,,,,,,,,2,,,40,0
40290,note_on,0,0,3,,,,,,,,,2,,,34,114
40290,note_on,0,0,3,,,,,,,,,2,,,46,114
40290,note_on,0,0,1,,,,,,,,,0,,,86,114
40290,note_on,0,0,1,,,,,,,,,0,,,80,114
40290,note_on,10,0,1,,,,,,,,,0,,,88,0
40290,note_on,0,0,1,,,,,,,,,0,,,74,114
40294,note_on,0,0,3,,,,,,,,,2,,,34,0
40294,note_on,0,0,1,,,,,,,,,0,,,80,0
40294,note_on,4,0,1,,,,,,,,,0,,,86,0
40294,note_on,0,0,1,,,,,,,,,0,,,74,0
40294,note_on,4,0,3,,,,,,,,,2,,,46,0
40320,control_change,26,0,3,,,,,,,,,2,64,127,,
40320,note_on,0,0,3,,,,,,,,,2,,,39,114
40320,control_change,26,0,1,,,,,,,,,0,64,127,,
40320,note_on,0,0,1,,,,,,,,,0,,,75,114
40320,note_on,0,0,1,,,,,,,,,0,,,79,114
40320,note_on,0,0,1,,,,,,,,,0,,,87,114
40329,note_on,9,0,3,,,,,,,,,2,,,43,114
40330,note_on,1,0,3,,,,,,,,,2,,,39,0
40339,note_on,9,0,3,,,,,,,,,2,,,43,0
40340,note_on,1,0,3,,,,,,,,,2,,,44,114
40350,note_on,0,0,1,,,,,,,,,0,,,75,0
40350,note_on,0,0,1,,,,,,,,,0,,,79,0
40350,note_on,30,0,1,,,,,,,,,0,,,87,0
40350,note_on,0,0,3,,,,,,,,,2,,,46,114
40350,note_on,10,0,3,,,,,,,,,2,,,44,0
40359,note_on,9,0,3,,,,,,,,,2,,,48,114
40360,note_on,1,0,3,,,,,,,,,2,,,46,0
40369,note_on,9,0,3,,,,,,,,,2,,,48,0
40370,note_on,1,0,3,,,,,,,,,2,,,50,114
40380,note_on,30,0,1,,,,,,,,,0,,,63,114
40380,note_on,10,0,3,,,,,,,,,2,,,50,0
40380,note_on,0,0,3,,,,,,,,,2,,,51,114
40389,note_on,9,0,1,,,,,,,,,0,,,67,114
40389,note_on,9,0,3,,,,,,,,,2,,,55,114
40390,note_on,1,0,1,,,,,,,,,0,,,63,0
40390,note_on,1,0,3,,,,,,,,,2,,,51,0
40399,note_on,9,0,1,,,,,,,,,0,,,67,0
40399,note_on,9,0,3,,,,,,,,,2,,,55,0
40400,note_on,1,0,1,,,,,,,,,0,,,68,114
40400,note_on,1,0,3,,,,,,,,,2,,,56,114
40410,note_on,10,0,1,,,,,,,,,0,,,68,0
40410,note_on,0,0,3,,,,,,,,,2,,,58,114
40410,note_on,0,0,1,,,,,,,,,0,,,70,114
40410,note_on,10,0,3,,,,,,,,,2,,,56,0
40419,note_on,9,0,3,,,,,,,,,2,,,60,114
40419,note_on,9,0,1,,,,,,,,,0,,,72,114
40420,note_on,1,0,3,,,,,,,,,2,,,58,0
40420,note_on,1,0,1,,,,,,,,,0,,,70,0
40429,note_on,9,0,1,,,,,,,,,0,,,72,0
40429,note_on,9,0,3,,,,,,,,,2,,,60,0
40430,note_on,1,0,3,,,,,,,,,2,,,62,114
40430,note_on,1,0,1,,,,,,,,,0,,,74,114
40440,note_on,10,0,1,,,,,,,,,0,,,74,0
40440,control_change,0,0,1,,,,,,,,,0,64,0,,
40440,note_on,0,0,1,,,,,,,,,0,,,75,127
40440,note_on,0,0,3,,,,,,,,,2,,,63,127
40440,control_change,0,0,3,,,,,,,,,2,64,0,,
40440,note_on,10,0,3,,,,,,,,,2,,,62,0
40470,note_on,30,0,1,,,,,,,,,0,,,75,0
40470,note_on,30,0,3,,,,,,,,,2,,,63,0
40485,note_on,15,0,3,,,,,,,,,2,,,57,36
40485,note_on,15,0,1,,,,,,,,,0,,,72,49
40489,note_on,4,0,3,,,,,,,,,2,,,57,0
40500,note_on,11,0,3,,,,,,,,,2,,,58,36
40500,note_on,0,0,1,,,,,,,,,0,,,73,49
40500,note_on,15,0,1,,,,,,,,,0,,,72,0
40504,note_on,4,0,3,,,,,,,,,2,,,58,0
40509,note_on,9,0,1,,,,,,,,,0,,,75,49
40510,note_on,1,0,1,,,,,,,,,0,,,73,0
40519,note_on,9,0,1,,,,,,,,,0,,,75,0
40520,note_on,1,0,1,,,,,,,,,0,,,77,49
40530,note_on,10,0,1,,,,,,,,,0,,,77,0
40530,note_on,0,0,1,,,,,,,,,0,,,75,49
40539,note_on,9,0,1,,,,,,,,,0,,,73,49
40540,note_on,1,0,1,,,,,,,,,0,,,75,0
40545,note_on,41,0,3,,,,,,,,,2,,,60,36
40549,note_on,4,0,3,,,,,,,,,2,,,60,0
40549,note_on,9,0,1,,,,,,,,,0,,,73,0
40550,note_on,1,0,1,,,,,,,,,0,,,72,49
40560,note_on,0,0,1,,,,,,,,,0,,,70,49
40560,note_on,10,0,1,,,,,,,,,0,,,72,0
40560,note_on,11,0,3,,,,,,,,,2,,,61,36
40564,note_on,4,0,3,,,,,,,,,2,,,61,0
40569,note_on,9,0,1,,,,,,,,,0,,,72,49
40570,note_on,1,0,1,,,,,,,,,0,,,70,0
40579,note_on,9,0,1,,,,,,,,,0,,,72,0
40580,note_on,1,0,1,,,,,,,,,0,,,73,49
40590,note_on,0,0,1,,,,,,,,,0,,,72,49
40590,note_on,10,0,1,,,,,,,,,0,,,73,0
40599,note_on,9,0,1,,,,,,,,,0,,,70,49
40600,note_on,1,0,1,,,,,,,,,0,,,72,0
40605,note_on,41,0,3,,,,,,,,,2,,,62,36
40609,note_on,4,0,3,,,,,,,,,2,,,62,0
40609,note_on,9,0,1,,,,,,,,,0,,,70,0
40610,note_on,1,0,1,,,,,,,,,0,,,68,49
40620,note_on,11,0,3,,,,,,,,,2,,,63,36
40620,note_on,0,0,1,,,,,,,,,0,,,67,49
40620,note_on,10,0,1,,,,,,,,,0,,,68,0
40624,note_on,4,0,3,,,,,,,,,2,,,63,0
40629,note_on,9,0,1,,,,,,,,,0,,,70,49
40630,note_on,1,0,1,,,,,,,,,0,,,67,0
40639,note_on,9,0,1,,,,,,,,,0,,,70,0
40640,note_on,1,0,1,,,,,,,,,0,,,72,49
40650,note_on,0,0,1,,,,,,,,,0,,,73,49
40650,note_on,10,0,1,,,,,,,,,0,,,72,0
40659,note_on,9,0,1,,,,,,,,,0,,,75,49
40660,note_on,1,0,1,,,,,,,,,0,,,73,0
40665,note_on,41,0,3,,,,,,,,,2,,,61,36
40669,note_on,9,0,1,,,,,,,,,0,,,75,0
40669,note_on,4,0,3,,,,,,,,,2,,,61,0
40670,note_on,1,0,1,,,,,,,,,0,,,77,49
40680,note_on,10,0,1,,,,,,,,,0,,,77,0
40680,note_on,0,0,1,,,,,,,,,0,,,75,49
40680,note_on,11,0,3,,,,,,,,,2,,,60,36
40684,note_on,4,0,3,,,,,,,,,2,,,60,0
40689,note_on,9,0,1,,,,,,,,,0,,,84,49
40690,note_on,1,0,1,,,,,,,,,0,,,75,0
40699,note_on,9,0,1,,,,,,,,,0,,,84,0
40700,note_on,1,0,1,,,,,,,,,0,,,82,49
40710,note_on,10,0,1,,,,,,,,,0,,,82,0
40710,note_on,0,0,1,,,,,,,,,0,,,80,49
40719,note_on,9,0,1,,,,,,,,,0,,,79,49
40720,note_on,1,0,1,,,,,,,,,0,,,80,0
40725,note_on,41,0,3,,,,,,,,,2,,,61,36
40725,note_on,0,0,3,,,,,,,,,2,,,68,36
40729,note_on,9,0,1,,,,,,,,,0,,,79,0
40729,note_on,0,0,3,,,,,,,,,2,,,61,0
40729,note_on,4,0,3,,,,,,,,,2,,,68,0
40730,note_on,1,0,1,,,,,,,,,0,,,77,49
40740,note_on,10,0,1,,,,,,,,,0,,,77,0
40740,note_on,0,0,3,,,,,,,,,2,,,68,36
40740,note_on,11,0,3,,,,,,,,,2,,,60,36
40740,note_on,0,0,1,,,,,,,,,0,,,75,49
40744,note_on,0,0,3,,,,,,,,,2,,,60,0
40744,note_on,4,0,3,,,,,,,,,2,,,68,0
40749,note_on,9,0,1,,,,,,,,,0,,,77,49
40750,note_on,1,0,1,,,,,,,,,0,,,75,0
40759,note_on,9,0,1,,,,,,,,,0,,,77,0
40760,note_on,1,0,1,,,,,,,,,0,,,73,49
40770,note_on,0,0,1,,,,,,,,,0,,,75,49
40770,note_on,10,0,1,,,,,,,,,0,,,73,0
40779,note_on,9,0,1,,,,,,,,,0,,,72,49
40780,note_on,1,0,1,,,,,,,,,0,,,75,0
40785,note_on,0,0,3,,,,,,,,,2,,,51,36
40785,note_on,41,0,3,,,,,,,,,2,,,49,36
40785,note_on,0,0,3,,,,,,,,,2,,,58,36
40789,note_on,4,0,3,,,,,,,,,2,,,58,0
40789,note_on,9,0,1,,,,,,,,,0,,,72,0
40789,note_on,0,0,3,,,,,,,,,2,,,49,0
40789,note_on,0,0,3,,,,,,,,,2,,,51,0
40790,note_on,1,0,1,,,,,,,,,0,,,70,49
40800,note_on,0,0,1,,,,,,,,,0,,,68,49
40800,note_on,10,0,1,,,,,,,,,0,,,70,0
40800,note_on,0,0,3,,,,,,,,,2,,,56,36
40800,note_on,0,0,3,,,,,,,,,2,,,51,36
40800,note_on,11,0,3,,,,,,,,,2,,,48,36
40804,note_on,0,0,3,,,,,,,,,2,,,48,0
40804,note_on,0,0,3,,,,,,,,,2,,,51,0
40804,note_on,4,0,3,,,,,,,,,2,,,56,0
40809,note_on,9,0,1,,,,,,,,,0,,,70,49
40810,note_on,1,0,1,,,,,,,,,0,,,68,0
40819,note_on,9,0,1,,,,,,,,,0,,,70,0
40820,note_on,1,0,1,,,,,,,,,0,,,67,49
40830,note_on,10,0,1,,,,,,,,,0,,,67,0
40830,note_on,0,0,1,,,,,,,,,0,,,68,49
40839,note_on,9,0,1,,,,,,,,,0,,,70,49
40840,note_on,1,0,1,,,,,,,,,0,,,68,0
40845,note_on,41,0,3,,,,,,,,,2,,,44,36
40849,note_on,4,0,3,,,,,,,,,2,,,44,0
40849,note_on,9,0,1,,,,,,,,,0,,,70,0
40850,note_on,1,0,1,,,,,,,,,0,,,72,49
40860,note_on,0,0,1,,,,,,,,,0,,,72,75
40860,control_change,0,0,1,,,,,,,,,0,64,127,,
40860,note_on,10,0,1,,,,,,,,,0,,,72,0
40860,note_on,0,0,3,,,,,,,,,2,,,37,36
40860,control_change,11,0,3,,,,,,,,,2,64,127,,
40869,note_on,9,0,1,,,,,,,,,0,,,70,49
40870,note_on,1,0,1,,,,,,,,,0,,,72,0
40879,note_on,9,0,1,,,,,,,,,0,,,70,0
40880,note_on,1,0,1,,,,,,,,,0,,,72,49
40890,note_on,10,0,1,,,,,,,,,0,,,72,0
40890,note_on,0,0,1,,,,,,,,,0,,,73,49
40899,note_on,9,0,1,,,,,,,,,0,,,75,49
40900,note_on,1,0,1,,,,,,,,,0,,,73,0
40905,note_on,45,0,3,,,,,,,,,2,,,37,0
40905,note_on,0,0,3,,,,,,,,,2,,,49,36
40905,note_on,0,0,3,,,,,,,,,2,,,53,36
40905,note_on,0,0,3,,,,,,,,,2,,,58,36
40909,note_on,9,0,1,,,,,,,,,0,,,75,0
40910,note_on,1,0,1,,,,,,,,,0,,,77,49
40920,note_on,15,0,3,,,,,,,,,2,,,58,0
40920,note_on,0,0,3,,,,,,,,,2,,,53,0
40920,note_on,0,0,3,,,,,,,,,2,,,41,36
40920,note_on,0,0,3,,,,,,,,,2,,,49,0
40920,note_on,10,0,1,,,,,,,,,0,,,77,0
40920,note_on,0,0,1,,,,,,,,,0,,,78,75
40929,note_on,9,0,1,,,,,,,,,0,,,77,49
40930,note_on,1,0,1,,,,,,,,,0,,,78,0
40939,note_on,9,0,1,,,,,,,,,0,,,77,0
40940,note_on,1,0,1,,,,,,,,,0,,,81,49
40950,note_on,10,0,1,,,,,,,,,0,,,81,0
40950,note_on,0,0,1,,,,,,,,,0,,,82,49
40959,note_on,9,0,1,,,,,,,,,0,,,84,49
40960,note_on,1,0,1,,,,,,,,,0,,,82,0
40965,note_on,45,0,3,,,,,,,,,2,,,41,0
40965,note_on,0,0,3,,,,,,,,,2,,,58,36
40965,note_on,0,0,3,,,,,,,,,2,,,61,36
40965,note_on,0,0,3,,,,,,,,,2,,,53,36
40965,control_change,0,0,3,,,,,,,,,2,64,0,,
40969,note_on,9,0,1,,,,,,,,,0,,,84,0
40970,note_on,0,0,1,,,,,,,,,0,,,85,49
40970,control_change,1,0,1,,,,,,,,,0,64,0,,
40980,note_on,0,0,1,,,,,,,,,0,,,90,75
40980,note_on,0,0,3,,,,,,,,,2,,,41,36
40980,note_on,0,0,3,,,,,,,,,2,,,53,0
40980,note_on,0,0,3,,,,,,,,,2,,,58,0
40980,note_on,15,0,3,,,,,,,,,2,,,61,0
40980,note_on,10,0,1,,,,,,,,,0,,,85,0
40989,note_on,9,0,1,,,,,,,,,0,,,89,49
40990,note_on,1,0,1,,,,,,,,,0,,,90,0
40999,note_on,9,0,1,,,,,,,,,0,,,89,0
41000,note_on,1,0,1,,,,,,,,,0,,,91,49
41010,note_on,0,0,1,,,,,,,,,0,,,93,49
41010,note_on,10,0,1,,,,,,,,,0,,,91,0
41019,note_on,9,0,1,,,,,,,,,0,,,94,49
41020,note_on,1,0,1,,,,,,,,,0,,,93,0
41025,note_on,0,0,3,,,,,,,,,2,,,57,36
41025,note_on,45,0,3,,,,,,,,,2,,,41,0
41025,note_on,0,0,3,,,,,,,,,2,,,53,36
41025,note_on,0,0,3,,,,,,,,,2,,,63,36
41029,note_on,9,0,1,,,,,,,,,0,,,94,0
41030,note_on,1,0,1,,,,,,,,,0,,,96,49
41040,note_on,0,0,3,,,,,,,,,2,,,53,0
41040,note_on,10,0,1,,,,,,,,,0,,,96,0
41040,note_on,0,0,1,,,,,,,,,0,,,94,75
41040,note_on,0,0,3,,,,,,,,,2,,,58,36
41040,note_on,15,0,3,,,,,,,,,2,,,63,0
41040,note_on,0,0,3,,,,,,,,,2,,,61,36
41040,note_on,0,0,3,,,,,,,,,2,,,57,0
41044,note_on,4,0,3,,,,,,,,,2,,,61,0
41044,note_on,0,0,3,,,,,,,,,2,,,58,0
41049,note_on,5,0,3,,,,,,,,,2,,,46,36
41059,note_on,10,0,3,,,,,,,,,2,,,46,0
41060,note_on,1,0,3,,,,,,,,,2,,,48,36
41070,note_on,10,0,3,,,,,,,,,2,,,48,0
41070,note_on,0,0,3,,,,,,,,,2,,,49,36
41070,note_on,30,0,1,,,,,,,,,0,,,94,0
41079,note_on,9,0,3,,,,,,,,,2,,,51,36
41080,note_on,1,0,3,,,,,,,,,2,,,49,0
41089,note_on,9,0,3,,,,,,,,,2,,,51,0
41090,note_on,1,0,3,,,,,,,,,2,,,52,36
41100,note_on,10,0,3,,,,,,,,,2,,,52,0
41100,note_on,0,0,3,,,,,,,,,2,,,53,75
41109,note_on,9,0,3,,,,,,,,,2,,,55,75
41110,note_on,1,0,3,,,,,,,,,2,,,53,0
41119,note_on,9,0,3,,,,,,,,,2,,,55,0
41120,note_on,1,0,3,,,,,,,,,2,,,57,75
41130,note_on,10,0,3,,,,,,,,,2,,,57,0
41130,note_on,0,0,3,,,,,,,,,2,,,58,75
41139,note_on,9,0,3,,,,,,,,,2,,,60,75
41140,note_on,1,0,3,,,,,,,,,2,,,58,0
41149,note_on,9,0,3,,,,,,,,,2,,,60,0
41150,note_on,1,0,3,,,,,,,,,2,,,61,75
41160,note_on,90,0,1,,,,,,,,,0,,,70,88
41160,note_on,10,0,3,,,,,,,,,2,,,61,0
41160,note_on,0,0,3,,,,,,,,,2,,,58,75
41169,note_on,9,0,3,,,,,,,,,2,,,60,75
41169,note_on,9,0,1,,,,,,,,,0,,,72,88
41170,note_on,1,0,1,,,,,,,,,0,,,70,0
41170,note_on,1,0,3,,,,,,,,,2,,,58,0
41179,note_on,9,0,1,,,,,,,,,0,,,72,0
41179,note_on,9,0,3,,,,,,,,,2,,,60,0
41180,note_on,1,0,1,,,,,,,,,0,,,73,88
41180,note_on,1,0,3,,,,,,,,,2,,,61,75
41190,note_on,0,0,1,,,,,,,,,0,,,72,88
41190,note_on,10,0,1,,,,,,,,,0,,,73,0
41190,note_on,10,0,3,,,,,,,,,2,,,61,0
41190,note_on,0,0,3,,,,,,,,,2,,,60,75
41199,note_on,9,0,3,,,,,,,,,2,,,61,75
41199,note_on,9,0,1,,,,,,,,,0,,,73,88
41200,note_on,1,0,3,,,,,,,,,2,,,60,0
41200,note_on,1,0,1,,,,,,,,,0,,,72,0
41209,note_on,9,0,1,,,,,,,,,0,,,73,0
41209,note_on,9,0,3,,,,,,,,,2,,,61,0
41210,note_on,1,0,1,,,,,,,,,0,,,75,88
41210,note_on,1,0,3,,,,,,,,,2,,,63,75
41220,note_on,0,0,1,,,,,,,,,0,,,73,114
41220,note_on,10,0,1,,,,,,,,,0,,,75,0
41220,control_change,0,0,1,,,,,,,,,0,64,127,,
41220,note_on,0,0,3,,,,,,,,,2,,,61,75
41220,control_change,0,0,3,,,,,,,,,2,64,127,,
41220,note_on,10,0,3,,,,,,,,,2,,,63,0
41229,note_on,9,0,3,,,,,,,,,2,,,63,75
41229,note_on,9,0,1,,,,,,,,,0,,,75,88
41230,note_on,1,0,3,,,,,,,,,2,,,61,0
41230,note_on,1,0,1,,,,,,,,,0,,,73,0
41239,note_on,9,0,3,,,,,,,,,2,,,63,0
41239,note_on,9,0,1,,,,,,,,,0,,,75,0
41240,note_on,1,0,3,,,,,,,,,2,,,64,75
41240,note_on,1,0,1,,,,,,,,,0,,,76,88
41250,note_on,0,0,1,,,,,,,,,0,,,75,88
41250,note_on,10,0,1,,,,,,,,,0,,,76,0
41250,note_on,0,0,3,,,,,,,,,2,,,63,75
41250,note_on,10,0,3,,,,,,,,,2,,,64,0
41259,note_on,9,0,1,,,,,,,,,0,,,73,88
41259,note_on,9,0,3,,,,,,,,,2,,,61,75
41260,note_on,1,0,1,,,,,,,,,0,,,75,0
41260,note_on,1,0,3,,,,,,,,,2,,,63,0
41269,note_on,9,0,3,,,,,,,,,2,,,61,0
41269,note_on,9,0,1,,,,,,,,,0,,,73,0
41270,note_on,1,0,1,,,,,,,,,0,,,72,88
41270,note_on,1,0,3,,,,,,,,,2,,,60,75
41280,note_on,0,0,1,,,,,,,,,0,,,70,114
41280,note_on,0,0,3,,,,,,,,,2,,,58,75
41280,note_on,10,0,3,,,,,,,,,2,,,60,0
41280,note_on,10,0,1,,,,,,,,,0,,,72,0
41289,note_on,9,0,1,,,,,,,,,0,,,72,88
41289,note_on,9,0,3,,,,,,,,,2,,,60,75
41290,note_on,1,0,3,,,,,,,,,2,,,58,0
41290,note_on,1,0,1,,,,,,,,,0,,,70,0
41299,note_on,9,0,3,,,,,,,,,2,,,60,0
41299,note_on,9,0,1,,,,,,,,,0,,,72,0
41300,note_on,1,0,3,,,,,,,,,2,,,61,75
41300,note_on,1,0,1,,,,,,,,,0,,,73,88
41310,note_on,0,0,1,,,,,,,,,0,,,72,88
41310,note_on,10,0,1,,,,,,,,,0,,,73,0
41310,note_on,0,0,3,,,,,,,,,2,,,60,75
41310,note_on,10,0,3,,,,,,,,,2,,,61,0
41319,note_on,9,0,3,,,,,,,,,2,,,58,75
41319,note_on,9,0,1,,,,,,,,,0,,,70,88
41320,note_on,1,0,3,,,,,,,,,2,,,60,0
41320,note_on,1,0,1,,,,,,,,,0,,,72,0
41329,note_on,9,0,3,,,,,,,,,2,,,58,0
41329,note_on,9,0,1,,,,,,,,,0,,,70,0
41330,control_change,1,0,3,,,,,,,,,2,64,0,,
41330,note_on,0,0,3,,,,,,,,,2,,,56,75
41330,note_on,0,0,1,,,,,,,,,0,,,68,88
41330,control_change,1,0,1,,,,,,,,,0,64,0,,
41340,note_on,10,0,3,,,,,,,,,2,,,56,0
41340,note_on,10,0,1,,,,,,,,,0,,,68,0
41340,note_on,0,0,3,,,,,,,,,2,,,55,75
41340,note_on,0,0,1,,,,,,,,,0,,,67,114
41349,note_on,9,0,1,,,,,,,,,0,,,70,88
41349,note_on,9,0,3,,,,,,,,,2,,,58,75
41350,note_on,1,0,3,,,,,,,,,2,,,55,0
41350,note_on,1,0,1,,,,,,,,,0,,,67,0
41359,note_on,9,0,3,,,,,,,,,2,,,58,0
41359,note_on,9,0,1,,,,,,,,,0,,,70,0
41360,note_on,1,0,3,,,,,,,,,2,,,55,75
41360,note_on,1,0,1,,,,,,,,,0,,,67,88
41370,note_on,0,0,3,,,,,,,,,2,,,52,75
41370,note_on,10,0,3,,,,,,,,,2,,,55,0
41370,note_on,10,0,1,,,,,,,,,0,,,67,0
41370,note_on,0,0,1,,,,,,,,,0,,,64,88
41379,note_on,9,0,1,,,,,,,,,0,,,63,88
41379,note_on,9,0,3,,,,,,,,,2,,,51,75
41380,note_on,1,0,3,,,,,,,,,2,,,52,0
41380,note_on,1,0,1,,,,,,,,,0,,,64,0
41389,note_on,9,0,1,,,,,,,,,0,,,63,0
41389,note_on,9,0,3,,,,,,,,,2,,,51,0
41390,note_on,1,0,1,,,,,,,,,0,,,61,88
41390,note_on,1,0,3,,,,,,,,,2,,,49,75
41400,note_on,0,0,3,,,,,,,,,2,,,48,75
41400,control_change,0,0,3,,,,,,,,,2,64,127,,
41400,note_on,10,0,1,,,,,,,,,0,,,61,0
41400,note_on,10,0,3,,,,,,,,,2,,,49,0
41400,note_on,0,0,1,,,,,,,,,0,,,60,88
41400,control_change,0,0,1,,,,,,,,,0,64,127,,
41409,note_on,9,0,3,,,,,,,,,2,,,51,75
41409,note_on,9,0,1,,,,,,,,,0,,,63,88
41410,note_on,1,0,3,,,,,,,,,2,,,48,0
41410,note_on,1,0,1,,,,,,,,,0,,,60,0
41419,note_on,9,0,3,,,,,,,,,2,,,51,0
41419,note_on,9,0,1,,,,,,,,,0,,,63,0
41420,note_on,1,0,1,,,,,,,,,0,,,68,88
41420,note_on,1,0,3,,,,,,,,,2,,,56,75
41430,note_on,0,0,3,,,,,,,,,2,,,47,75
41430,note_on,10,0,1,,,,,,,,,0,,,68,0
41430,note_on,0,0,1,,,,,,,,,0,,,59,88
41430,note_on,10,0,3,,,,,,,,,2,,,56,0
41439,note_on,9,0,1,,,,,,,,,0,,,62,88
41439,note_on,9,0,3,,,,,,,,,2,,,50,75
41440,note_on,1,0,3,,,,,,,,,2,,,47,0
41440,note_on,1,0,1,,,,,,,,,0,,,59,0
41449,note_on,9,0,1,,,,,,,,,0,,,62,0
41449,note_on,9,0,3,,,,,,,,,2,,,50,0
41450,note_on,1,0,3,,,,,,,,,2,,,56,75
41450,note_on,1,0,1,,,,,,,,,0,,,68,88
41460,note_on,0,0,1,,,,,,,,,0,,,60,88
41460,note_on,0,0,3,,,,,,,,,2,,,48,75
41460,note_on,10,0,1,,,,,,,,,0,,,68,0
41460,note_on,10,0,3,,,,,,,,,2,,,56,0
41469,note_on,9,0,1,,,,,,,,,0,,,63,88
41469,note_on,9,0,3,,,,,,,,,2,,,51,75
41470,note_on,1,0,3,,,,,,,,,2,,,48,0
41470,note_on,1,0,1,,,,,,,,,0,,,60,0
41479,note_on,9,0,3,,,,,,,,,2,,,51,0
41479,note_on,9,0,1,,,,,,,,,0,,,63,0
41480,note_on,1,0,3,,,,,,,,,2,,,56,75
41480,note_on,1,0,1,,,,,,,,,0,,,68,88
41490,note_on,10,0,3,,,,,,,,,2,,,56,0
41490,control_change,0,0,1,,,,,,,,,0,64,0,,
41490,note_on,10,0,1,,,,,,,,,0,,,68,0
41490,note_on,0,0,1,,,,,,,,,0,,,74,88
41490,note_on,0,0,1,,,,,,,,,0,,,68,88
41490,note_on,0,0,1,,,,,,,,,0,,,62,88
41490,control_change,0,0,3,,,,,,,,,2,64,0,,
41490,note_on,0,0,3,,,,,,,,,2,,,47,75
41499,note_on,9,0,3,,,,,,,,,2,,,50,75
41500,note_on,1,0,3,,,,,,,,,2,,,47,0
41509,note_on,9,0,3,,,,,,,,,2,,,50,0
41510,note_on,1,0,3,,,,,,,,,2,,,56,75
41520,note_on,0,0,3,,,,,,,,,2,,,48,75
41520,note_on,10,0,3,,,,,,,,,2,,,56,0
41520,note_on,30,0,1,,,,,,,,,0,,,74,0
41520,note_on,0,0,1,,,,,,,,,0,,,62,0
41520,note_on,0,0,1,,,,,,,,,0,,,63,88
41520,note_on,0,0,1,,,,,,,,,0,,,68,88
41520,note_on,0,0,1,,,,,,,,,0,,,75,88
41520,note_on,0,0,1,,,,,,,,,0,,,68,0
41529,note_on,9,0,3,,,,,,,,,2,,,51,75
41530,note_on,1,0,3,,,,,,,,,2,,,48,0
41539,note_on,9,0,3,,,,,,,,,2,,,51,0
41540,note_on,1,0,3,,,,,,,,,2,,,56,75
41550,note_on,10,0,3,,,,,,,,,2,,,56,0
41550,note_on,0,0,3,,,,,,,,,2,,,48,75
41550,note_on,30,0,1,,,,,,,,,0,,,75,0
41550,note_on,0,0,1,,,,,,,,,0,,,63,0
41550,note_on,0,0,1,,,,,,,,,0,,,64,88
41550,note_on,0,0,1,,,,,,,,,0,,,68,88
41550,note_on,0,0,1,,,,,,,,,0,,,76,88
41550,note_on,0,0,1,,,,,,,,,0,,,68,0
41559,note_on,9,0,3,,,,,,,,,2,,,52,75
41560,note_on,1,0,3,,,,,,,,,2,,,48,0
41569,note_on,9,0,3,,,,,,,,,2,,,52,0
41570,note_on,1,0,3,,,,,,,,,2,,,55,75
41580,note_on,0,0,3,,,,,,,,,2,,,49,62
41580,note_on,0,0,1,,,,,,,,,0,,,68,75
41580,note_on,0,0,1,,,,,,,,,0,,,65,75
41580,note_on,0,0,1,,,,,,,,,0,,,64,0
41580,note_on,0,0,1,,,,,,,,,0,,,68,0
41580,note_on,30,0,1,,,,,,,,,0,,,76,0
41580,control_change,0,0,1,,,,,,,,,0,64,127,,
41580,control_change,0,0,3,,,,,,,,,2,64,127,,
41580,note_on,0,0,1,,,,,,,,,0,,,77,75
41580,note_on,10,0,3,,,,,,,,,2,,,55,0
41589,note_on,9,0,3,,,,,,,,,2,,,53,62
41590,note_on,1,0,3,,,,,,,,,2,,,49,0
41599,note_on,9,0,3,,,,,,,,,2,,,53,0
41600,note_on,1,0,3,,,,,,,,,2,,,56,62
41610,note_on,0,0,1,,,,,,,,,0,,,68,0
41610,note_on,0,0,1,,,,,,,,,0,,,65,0
41610,note_on,0,0,1,,,,,,,,,0,,,67,75
41610,note_on,0,0,1,,,,,,,,,0,,,72,75
41610,note_on,30,0,1,,,,,,,,,0,,,77,0
41610,note_on,0,0,3,,,,,,,,,2,,,52,62
41610,note_on,10,0,3,,,,,,,,,2,,,56,0
41610,note_on,0,0,1,,,,,,,,,0,,,79,75
41619,note_on,9,0,3,,,,,,,,,2,,,55,62
41620,note_on,1,0,3,,,,,,,,,2,,,52,0
41629,note_on,9,0,3,,,,,,,,,2,,,55,0
41630,note_on,1,0,3,,,,,,,,,2,,,60,62
41640,control_change,0,0,3,,,,,,,,,2,64,0,,
41640,note_on,30,0,1,,,,,,,,,0,,,79,0
41640,note_on,0,0,1,,,,,,,,,0,,,72,0
41640,note_on,0,0,1,,,,,,,,,0,,,67,0
41640,note_on,0,0,1,,,,,,,,,0,,,68,75
41640,note_on,10,0,3,,,,,,,,,2,,,60,0
41640,note_on,0,0,3,,,,,,,,,2,,,53,62
41640,control_change,0,0,1,,,,,,,,,0,64,0,,
41640,note_on,0,0,1,,,,,,,,,0,,,80,75
41640,note_on,0,0,1,,,,,,,,,0,,,72,75
41649,note_on,9,0,3,,,,,,,,,2,,,56,62
41650,note_on,1,0,3,,,,,,,,,2,,,53,0
41659,note_on,9,0,3,,,,,,,,,2,,,56,0
41660,note_on,1,0,3,,,,,,,,,2,,,60,62
41670,note_on,10,0,3,,,,,,,,,2,,,60,0
41670,note_on,0,0,1,,,,,,,,,0,,,72,0
41670,note_on,0,0,1,,,,,,,,,0,,,68,0
41670,note_on,0,0,1,,,,,,,,,0,,,70,62
41670,note_on,0,0,1,,,,,,,,,0,,,75,62
41670,note_on,0,0,1,,,,,,,,,0,,,82,62
41670,note_on,0,0,3,,,,,,,,,2,,,55,49
41670,note_on,30,0,1,,,,,,,,,0,,,80,0
41679,note_on,9,0,3,,,,,,,,,2,,,58,49
41680,note_on,1,0,3,,,,,,,,,2,,,55,0
41689,note_on,9,0,3,,,,,,,,,2,,,58,0
41690,note_on,1,0,3,,,,,,,,,2,,,63,49
41700,note_on,0,0,3,,,,,,,,,2,,,56,49
41700,note_on,0,0,1,,,,,,,,,0,,,75,62
41700,note_on,0,0,1,,,,,,,,,0,,,84,62
41700,note_on,0,0,1,,,,,,,,,0,,,72,62
41700,note_on,0,0,1,,,,,,,,,0,,,70,0
41700,note_on,0,0,1,,,,,,,,,0,,,75,0
41700,note_on,30,0,1,,,,,,,,,0,,,82,0
41700,note_on,10,0,3,,,,,,,,,2,,,63,0
41709,note_on,9,0,3,,,,,,,,,2,,,60,49
41710,note_on,1,0,3,,,,,,,,,2,,,56,0
41719,note_on,9,0,3,,,,,,,,,2,,,60,0
41720,note_on,1,0,3,,,,,,,,,2,,,63,49
41730,note_on,0,0,1,,,,,,,,,0,,,85,62
41730,note_on,0,0,1,,,,,,,,,0,,,75,62
41730,note_on,0,0,1,,,,,,,,,0,,,72,0
41730,note_on,0,0,1,,,,,,,,,0,,,75,0
41730,note_on,30,0,1,,,,,,,,,0,,,84,0
41730,note_on,0,0,1,,,,,,,,,0,,,73,62
41730,note_on,0,0,3,,,,,,,,,2,,,58,49
41730,note_on,10,0,3,,,,,,,,,2,,,63,0
41739,note_on,9,0,3,,,,,,,,,2,,,63,49
41740,note_on,1,0,3,,,,,,,,,2,,,58,0
41749,note_on,9,0,3,,,,,,,,,2,,,63,0
41750,note_on,1,0,3,,,,,,,,,2,,,67,49
41760,note_on,0,0,1,,,,,,,,,0,,,85,49
41760,note_on,0,0,3,,,,,,,,,2,,,67,36
41760,note_on,0,0,3,,,,,,,,,2,,,63,36
41760,note_on,0,0,1,,,,,,,,,0,,,75,49
41760,note_on,10,0,3,,,,,,,,,2,,,67,0
41760,note_on,0,0,1,,,,,,,,,0,,,73,0
41760,note_on,0,0,1,,,,,,,,,0,,,75,0
41760,note_on,30,0,1,,,,,,,,,0,,,85,0
41760,note_on,0,0,3,,,,,,,,,2,,,58,36
41760,note_on,0,0,1,,,,,,,,,0,,,73,49
41820,note_on,0,0,1,,,,,,,,,0,,,73,0
41820,note_on,0,0,3,,,,,,,,,2,,,58,0
41820,note_on,0,0,3,,,,,,,,,2,,,56,36
41820,note_on,0,0,3,,,,,,,,,2,,,68,36
41820,note_on,60,0,3,,,,,,,,,2,,,67,0
41820,note_on,0,0,1,,,,,,,,,0,,,84,49
41820,note_on,0,0,1,,,,,,,,,0,,,75,49
41820,note_on,60,0,1,,,,,,,,,0,,,85,0
41820,note_on,0,0,1,,,,,,,,,0,,,75,0
41820,note_on,0,0,1,,,,,,,,,0,,,72,49
41850,note_on,0,0,3,,,,,,,,,2,,,63,0
41850,note_on,30,0,3,,,,,,,,,2,,,68,0
41850,note_on,0,0,1,,,,,,,,,0,,,72,0
41850,note_on,0,0,3,,,,,,,,,2,,,56,0
41850,note_on,0,0,1,,,,,,,,,0,,,75,0
41850,note_on,30,0,1,,,,,,,,,0,,,84,0
41850,note_on,0,0,1,,,,,,,,,0,,,75,49
41880,note_on,8786,0,2,,,,,,,,,1,,,63,49
41880,note_on,0,0,1,,,,,,,,,0,,,75,49
41880,note_on,30,0,1,,,,,,,,,0,,,75,0
41889,note_on,9,0,2,,,,,,,,,1,,,65,49
41890,note_on,1,0,2,,,,,,,,,1,,,63,0
41899,note_on,9,0,2,,,,,,,,,1,,,65,0
41900,note_on,1,0,2,,,,,,,,,1,,,67,49
41910,note_on,10,0,2,,,,,,,,,1,,,67,0
41910,note_on,30,0,1,,,,,,,,,0,,,75,0
41910,note_on,0,0,1,,,,,,,,,0,,,75,49
41910,note_on,0,0,2,,,,,,,,,1,,,68,49
41919,note_on,9,0,2,,,,,,,,,1,,,70,49
41920,note_on,1,0,2,,,,,,,,,1,,,68,0
41929,note_on,9,0,2,,,,,,,,,1,,,70,0
41930,note_on,1,0,2,,,,,,,,,1,,,72,49
41940,note_on,0,0,2,,,,,,,,,1,,,70,70
41940,note_on,0,0,2,,,,,,,,,1,,,67,65
41940,note_on,10,0,2,,,,,,,,,1,,,72,0
41940,note_on,30,0,1,,,,,,,,,0,,,75,0
41940,note_on,0,0,1,,,,,,,,,0,,,75,49
41940,note_on,0,0,2,,,,,,,,,1,,,73,75
41970,note_on,0,0,1,,,,,,,,,0,,,75,49
41970,note_on,30,0,1,,,,,,,,,0,,,75,0
42000,note_on,30,0,1,,,,,,,,,0,,,75,0
42000,note_on,0,0,1,,,,,,,,,0,,,75,49
42000,note_on,0,0,2,,,,,,,,,1,,,68,49
42000,note_on,0,0,2,,,,,,,,,1,,,67,0
42000,note_on,0,0,2,,,,,,,,,1,,,70,0
42000,note_on,60,0,2,,,,,,,,,1,,,73,0
42000,note_on,0,0,2,,,,,,,,,1,,,72,49
42030,note_on,0,0,2,,,,,,,,,1,,,68,0
42030,note_on,30,0,2,,,,,,,,,1,,,72,0
42030,note_on,30,0,1,,,,,,,,,0,,,75,0
42030,note_on,0,0,1,,,,,,,,,0,,,75,49
42060,note_on,30,0,2,,,,,,,,,1,,,63,49
42060,note_on,0,0,1,,,,,,,,,0,,,75,49
42060,note_on,30,0,1,,,,,,,,,0,,,75,0
42069,note_on,9,0,2,,,,,,,,,1,,,65,49
42070,note_on,1,0,2,,,,,,,,,1,,,63,0
42079,note_on,9,0,2,,,,,,,,,1,,,65,0
42080,note_on,1,0,2,,,,,,,,,1,,,67,49
42090,note_on,0,0,1,,,,,,,,,0,,,75,49
42090,note_on,10,0,2,,,,,,,,,1,,,67,0
42090,note_on,0,0,2,,,,,,,,,1,,,68,49
42090,note_on,30,0,1,,,,,,,,,0,,,75,0
42099,note_on,9,0,2,,,,,,,,,1,,,70,49
42100,note_on,1,0,2,,,,,,,,,1,,,68,0
42109,note_on,9,0,2,,,,,,,,,1,,,70,0
42110,note_on,1,0,2,,,,,,,,,1,,,72,49
42120,note_on,10,0,2,,,,,,,,,1,,,72,0
42120,note_on,30,0,1,,,,,,,,,0,,,75,0
42120,note_on,0,0,1,,,,,,,,,0,,,75,49
42120,note_on,0,0,2,,,,,,,,,1,,,67,65
42120,note_on,0,0,2,,,,,,,,,1,,,70,70
42120,note_on,0,0,2,,,,,,,,,1,,,73,75
42150,note_on,30,0,1,,,,,,,,,0,,,75,0
42150,note_on,0,0,1,,,,,,,,,0,,,75,49
42180,note_on,0,0,2,,,,,,,,,1,,,68,49
42180,note_on,0,0,2,,,,,,,,,1,,,70,0
42180,note_on,60,0,2,,,,,,,,,1,,,73,0
42180,note_on,0,0,2,,,,,,,,,1,,,72,49
42180,note_on,30,0,1,,,,,,,,,0,,,75,0
42180,note_on,0,0,1,,,,,,,,,0,,,75,49
42180,note_on,0,0,2,,,,,,,,,1,,,67,0
42210,note_on,30,0,2,,,,,,,,,1,,,72,0
42210,note_on,30,0,1,,,,,,,,,0,,,75,0
42210,note_on,0,0,1,,,,,,,,,0,,,75,49
42210,note_on,0,0,2,,,,,,,,,1,,,68,0
42240,note_on,30,0,2,,,,,,,,,1,,,63,49
42240,note_on,30,0,1,,,,,,,,,0,,,75,0
42240,note_on,0,0,1,,,,,,,,,0,,,75,49
42249,note_on,9,0,2,,,,,,,,,1,,,65,49
42250,note_on,1,0,2,,,,,,,,,1,,,63,0
42259,note_on,9,0,2,,,,,,,,,1,,,65,0
42260,note_on,1,0,2,,,,,,,,,1,,,67,49
42270,note_on,10,0,2,,,,,,,,,1,,,67,0
42270,note_on,0,0,2,,,,,,,,,1,,,68,49
42270,note_on,0,0,1,,,,,,,,,0,,,75,49
42270,note_on,30,0,1,,,,,,,,,0,,,75,0
42279,note_on,9,0,2,,,,,,,,,1,,,70,49
42280,note_on,1,0,2,,,,,,,,,1,,,68,0
42289,note_on,9,0,2,,,,,,,,,1,,,70,0
42290,note_on,1,0,2,,,,,,,,,1,,,72,49
42300,note_on,10,0,2,,,,,,,,,1,,,72,0
42300,note_on,0,0,2,,,,,,,,,1,,,67,65
42300,note_on,0,0,2,,,,,,,,,1,,,70,70
42300,note_on,30,0,1,,,,,,,,,0,,,75,0
42300,note_on,0,0,1,,,,,,,,,0,,,76,49
42300,note_on,0,0,2,,,,,,,,,1,,,73,75
42330,note_on,30,0,1,,,,,,,,,0,,,76,0
42330,note_on,0,0,1,,,,,,,,,0,,,76,49
42360,note_on,60,0,2,,,,,,,,,1,,,73,0
42360,note_on,0,0,2,,,,,,,,,1,,,70,0
42360,note_on,0,0,2,,,,,,,,,1,,,67,0
42360,note_on,0,0,2,,,,,,,,,1,,,68,49
42360,note_on,0,0,2,,,,,,,,,1,,,72,49
42360,note_on,30,0,1,,,,,,,,,0,,,76,0
42360,note_on,0,0,1,,,,,,,,,0,,,77,49
42390,note_on,30,0,2,,,,,,,,,1,,,72,0
42390,note_on,0,0,2,,,,,,,,,1,,,68,0
42390,note_on,30,0,1,,,,,,,,,0,,,77,0
42390,note_on,0,0,1,,,,,,,,,0,,,77,49
42420,note_on,30,0,1,,,,,,,,,0,,,77,0
42420,note_on,0,0,1,,,,,,,,,0,,,77,49
42450,note_on,30,0,1,,,,,,,,,0,,,77,0
42450,note_on,0,0,1,,,,,,,,,0,,,77,49
42480,note_on,0,0,1,,,,,,,,,0,,,77,62
42480,note_on,30,0,1,,,,,,,,,0,,,77,0
42480,note_on,0,0,3,,,,,,,,,2,,,60,62
42480,note_on,630,0,3,,,,,,,,,2,,,56,62
42510,note_on,30,0,1,,,,,,,,,0,,,77,0
42510,note_on,0,0,1,,,,,,,,,0,,,77,62
42540,note_on,0,0,3,,,,,,,,,2,,,62,75
42540,note_on,30,0,1,,,,,,,,,0,,,77,0
42540,note_on,0,0,1,,,,,,,,,0,,,78,62
42540,note_on,0,0,3,,,,,,,,,2,,,60,75
42540,note_on,0,0,3,,,,,,,,,2,,,56,0
42540,note_on,0,0,3,,,,,,,,,2,,,56,75
42540,note_on,60,0,3,,,,,,,,,2,,,60,0
42570,note_on,0,0,3,,,,,,,,,2,,,60,0
42570,note_on,30,0,3,,,,,,,,,2,,,62,0
42570,note_on,30,0,1,,,,,,,,,0,,,78,0
42570,note_on,0,0,1,,,,,,,,,0,,,78,75
42570,note_on,0,0,3,,,,,,,,,2,,,56,0
42600,note_on,30,0,1,,,,,,,,,0,,,78,0
42600,note_on,0,0,1,,,,,,,,,0,,,78,75
42630,note_on,30,0,1,,,,,,,,,0,,,78,0
42630,note_on,0,0,1,,,,,,,,,0,,,78,75
42660,note_on,0,0,3,,,,,,,,,2,,,64,88
42660,note_on,0,0,3,,,,,,,,,2,,,60,88
42660,note_on,30,0,1,,,,,,,,,0,,,78,0
42660,note_on,0,0,1,,,,,,,,,0,,,67,88
42660,note_on,90,0,3,,,,,,,,,2,,,55,88
42660,note_on,0,0,1,,,,,,,,,0,,,79,88
42666,note_on,6,0,3,,,,,,,,,2,,,64,0
42666,note_on,0,0,3,,,,,,,,,2,,,60,0
42666,note_on,0,0,3,,,,,,,,,2,,,55,0
42690,note_on,0,0,1,,,,,,,,,0,,,79,88
42690,note_on,0,0,1,,,,,,,,,0,,,67,88
42690,note_on,30,0,1,,,,,,,,,0,,,79,0
42690,note_on,0,0,1,,,,,,,,,0,,,67,0
42720,note_on,0,0,3,,,,,,,,,2,,,65,49
42720,note_on,30,0,1,,,,,,,,,0,,,79,0
42720,note_on,0,0,1,,,,,,,,,0,,,67,0
42720,note_on,0,0,1,,,,,,,,,0,,,67,49
42720,note_on,0,0,1,,,,,,,,,0,,,79,49
42720,note_on,0,0,3,,,,,,,,,2,,,62,49
42720,note_on,54,0,3,,,,,,,,,2,,,55,49
42750,note_on,30,0,1,,,,,,,,,0,,,79,0
42750,note_on,0,0,1,,,,,,,,,0,,,67,0
42750,note_on,0,0,1,,,,,,,,,0,,,67,49
42750,note_on,0,0,1,,,,,,,,,0,,,79,49
42780,note_on,0,0,1,,,,,,,,,0,,,67,0
42780,note_on,30,0,1,,,,,,,,,0,,,79,0
42780,note_on,0,0,1,,,,,,,,,0,,,69,49
42780,note_on,0,0,1,,,,,,,,,0,,,81,49
42810,note_on,0,0,1,,,,,,,,,0,,,69,0
42810,note_on,0,0,1,,,,,,,,,0,,,71,49
42810,note_on,0,0,3,,,,,,,,,2,,,55,49
42810,note_on,0,0,3,,,,,,,,,2,,,55,0
42810,note_on,0,0,3,,,,,,,,,2,,,62,0
42810,note_on,0,0,3,,,,,,,,,2,,,62,49
42810,note_on,0,0,1,,,,,,,,,0,,,83,49
42810,note_on,90,0,3,,,,,,,,,2,,,65,0
42810,note_on,30,0,1,,,,,,,,,0,,,81,0
42840,note_on,0,0,1,,,,,,,,,0,,,72,49
42840,note_on,0,0,3,,,,,,,,,2,,,55,0
42840,note_on,30,0,1,,,,,,,,,0,,,83,0
42840,note_on,0,0,1,,,,,,,,,0,,,84,49
42840,note_on,0,0,3,,,,,,,,,2,,,48,49
42840,note_on,30,0,3,,,,,,,,,2,,,62,0
42840,note_on,0,0,3,,,,,,,,,2,,,52,49
42840,note_on,0,0,3,,,,,,,,,2,,,60,49
42840,note_on,0,0,1,,,,,,,,,0,,,71,0
42840,key_signature,9540,1,0,,,,,C,,,,,,,,
42860,note_on,0,0,1,,,,,,,,,0,,,72,0
42860,note_on,0,0,1,,,,,,,,,0,,,67,49
42860,note_on,20,0,1,,,,,,,,,0,,,84,0
42870,note_on,30,0,3,,,,,,,,,2,,,60,0
42870,note_on,0,0,3,,,,,,,,,2,,,48,0
42870,note_on,0,0,3,,,,,,,,,2,,,52,0
42879,note_on,19,0,1,,,,,,,,,0,,,67,49
42880,note_on,1,0,1,,,,,,,,,0,,,67,0
42899,note_on,19,0,1,,,,,,,,,0,,,67,0
42900,note_on,1,0,1,,,,,,,,,0,,,67,49
42920,note_on,0,0,1,,,,,,,,,0,,,67,49
42920,note_on,20,0,1,,,,,,,,,0,,,67,0
42939,note_on,19,0,1,,,,,,,,,0,,,67,49
42940,note_on,1,0,1,,,,,,,,,0,,,67,0
42959,note_on,19,0,1,,,,,,,,,0,,,67,0
42960,note_on,0,0,3,,,,,,,,,2,,,55,36
42960,note_on,90,0,3,,,,,,,,,2,,,52,36
42960,note_on,1,0,1,,,,,,,,,0,,,67,36
42964,note_on,4,0,1,,,,,,,,,0,,,67,0
42964,note_on,0,0,3,,,,,,,,,2,,,52,0
42964,note_on,4,0,3,,,,,,,,,2,,,55,0
42980,note_on,0,0,1,,,,,,,,,0,,,72,36
42980,note_on,16,0,1,,,,,,,,,0,,,67,36
42980,note_on,0,0,3,,,,,,,,,2,,,60,36
42980,note_on,16,0,3,,,,,,,,,2,,,55,36
42984,note_on,0,0,1,,,,,,,,,0,,,67,0
42984,note_on,0,0,3,,,,,,,,,2,,,55,0
42984,note_on,4,0,3,,,,,,,,,2,,,60,0
42984,note_on,4,0,1,,,,,,,,,0,,,72,0
42999,note_on,0,0,1,,,,,,,,,0,,,76,36
42999,note_on,15,0,1,,,,,,,,,0,,,67,36
42999,note_on,0,0,3,,,,,,,,,2,,,64,36
42999,note_on,15,0,3,,,,,,,,,2,,,60,36
43003,note_on,4,0,3,,,,,,,,,2,,,64,0
43003,note_on,4,0,1,,,,,,,,,0,,,76,0
43003,note_on,0,0,1,,,,,,,,,0,,,67,0
43003,note_on,0,0,3,,,,,,,,,2,,,60,0
43020,note_on,0,0,3,,,,,,,,,2,,,60,36
43020,note_on,0,0,3,,,,,,,,,2,,,64,36
43020,control_change,17,0,1,,,,,,,,,0,64,127,,
43020,note_on,0,0,1,,,,,,,,,0,,,67,36
43020,note_on,0,0,1,,,,,,,,,0,,,76,36
43020,control_change,17,0,3,,,,,,,,,2,64,127,,
43040,note_on,0,0,1,,,,,,,,,0,,,67,0
43040,note_on,0,0,3,,,,,,,,,2,,,62,36
43040,note_on,20,0,3,,,,,,,,,2,,,64,0
43040,note_on,0,0,1,,,,,,,,,0,,,77,36
43040,note_on,0,0,3,,,,,,,,,2,,,60,0
43040,note_on,0,0,1,,,,,,,,,0,,,67,36
43040,note_on,0,0,3,,,,,,,,,2,,,65,36
43040,note_on,20,0,1,,,,,,,,,0,,,76,0
43059,note_on,19,0,1,,,,,,,,,0,,,67,36
43059,note_on,0,0,3,,,,,,,,,2,,,62,36
43059,note_on,19,0,3,,,,,,,,,2,,,55,36
43059,note_on,0,0,1,,,,,,,,,0,,,74,36
43060,note_on,1,0,1,,,,,,,,,0,,,77,0
43060,note_on,0,0,1,,,,,,,,,0,,,67,0
43060,note_on,0,0,3,,,,,,,,,2,,,62,0
43060,note_on,1,0,3,,,,,,,,,2,,,65,0
43063,note_on,3,0,3,,,,,,,,,2,,,55,0
43063,note_on,0,0,1,,,,,,,,,0,,,74,0
43063,note_on,3,0,1,,,,,,,,,0,,,67,0
43063,note_on,0,0,3,,,,,,,,,2,,,62,0
43080,note_on,0,0,3,,,,,,,,,2,,,62,36
43080,note_on,0,0,1,,,,,,,,,0,,,74,36
43080,note_on,17,0,1,,,,,,,,,0,,,67,36
43080,note_on,17,0,3,,,,,,,,,2,,,55,36
43084,note_on,4,0,3,,,,,,,,,2,,,62,0
43084,note_on,0,0,1,,,,,,,,,0,,,67,0
43084,note_on,4,0,1,,,,,,,,,0,,,74,0
43084,note_on,0,0,3,,,,,,,,,2,,,55,0
43100,note_on,0,0,3,,,,,,,,,2,,,62,36
43100,note_on,0,0,1,,,,,,,,,0,,,74,36
43100,note_on,16,0,1,,,,,,,,,0,,,67,36
43100,note_on,16,0,3,,,,,,,,,2,,,55,36
43104,note_on,4,0,3,,,,,,,,,2,,,62,0
43104,note_on,0,0,1,,,,,,,,,0,,,67,0
43104,note_on,0,0,3,,,,,,,,,2,,,55,0
43104,note_on,4,0,1,,,,,,,,,0,,,74,0
43119,note_on,0,0,3,,,,,,,,,2,,,62,36
43119,note_on,0,0,1,,,,,,,,,0,,,74,36
43119,control_change,15,0,1,,,,,,,,,0,64,0,,
43119,note_on,0,0,1,,,,,,,,,0,,,67,36
43119,note_on,0,0,3,,,,,,,,,2,,,55,36
43119,control_change,15,0,3,,,,,,,,,2,64,0,,
43123,note_on,4,0,3,,,,,,,,,2,,,62,0
43123,note_on,0,0,3,,,,,,,,,2,,,55,0
43123,note_on,4,0,1,,,,,,,,,0,,,74,0
43123,note_on,0,0,1,,,,,,,,,0,,,67,0
43140,note_on,0,0,3,,,,,,,,,2,,,65,36
43140,note_on,17,0,1,,,,,,,,,0,,,67,36
43140,note_on,0,0,1,,,,,,,,,0,,,77,36
43140,note_on,17,0,3,,,,,,,,,2,,,62,36
43144,note_on,4,0,3,,,,,,,,,2,,,65,0
43144,note_on,0,0,3,,,,,,,,,2,,,62,0
43144,note_on,4,0,1,,,,,,,,,0,,,77,0
43144,note_on,0,0,1,,,,,,,,,0,,,67,0
43160,note_on,16,0,1,,,,,,,,,0,,,67,36
43160,note_on,0,0,3,,,,,,,,,2,,,64,36
43160,note_on,0,0,1,,,,,,,,,0,,,76,36
43160,note_on,16,0,3,,,,,,,,,2,,,60,36
43164,note_on,4,0,1,,,,,,,,,0,,,76,0
43164,note_on,4,0,3,,,,,,,,,2,,,64,0
43164,note_on,0,0,3,,,,,,,,,2,,,60,0
43164,note_on,0,0,1,,,,,,,,,0,,,67,0
43179,note_on,15,0,1,,,,,,,,,0,,,67,36
43179,note_on,15,0,3,,,,,,,,,2,,,55,36
43179,note_on,0,0,3,,,,,,,,,2,,,62,36
43179,note_on,0,0,1,,,,,,,,,0,,,74,36
43183,note_on,0,0,1,,,,,,,,,0,,,67,0
43183,note_on,4,0,3,,,,,,,,,2,,,62,0
43183,note_on,0,0,3,,,,,,,,,2,,,55,0
43183,note_on,4,0,1,,,,,,,,,0,,,74,0
43200,control_change,17,0,1,,,,,,,,,0,64,127,,
43200,note_on,0,0,1,,,,,,,,,0,,,67,36
43200,control_change,17,0,3,,,,,,,,,2,64,127,,
43200,note_on,0,0,3,,,,,,,,,2,,,62,36
43200,note_on,0,0,3,,,,,,,,,2,,,55,36
43200,note_on,0,0,1,,,,,,,,,0,,,74,36
43220,note_on,20,0,1,,,,,,,,,0,,,74,0
43220,note_on,0,0,3,,,,,,,,,2,,,55,0
43220,note_on,20,0,3,,,,,,,,,2,,,62,0
43220,note_on,0,0,3,,,,,,,,,2,,,60,36
43220,note_on,0,0,1,,,,,,,,,0,,,76,36
43220,note_on,0,0,1,,,,,,,,,0,,,67,0
43220,note_on,0,0,3,,,,,,,,,2,,,64,36
43220,note_on,0,0,1,,,,,,,,,0,,,67,36
43239,note_on,19,0,3,,,,,,,,,2,,,52,36
43239,note_on,19,0,1,,,,,,,,,0,,,67,36
43239,note_on,0,0,1,,,,,,,,,0,,,72,36
43239,note_on,0,0,3,,,,,,,,,2,,,60,36
43240,note_on,0,0,3,,,,,,,,,2,,,60,0
43240,note_on,1,0,1,,,,,,,,,0,,,76,0
43240,note_on,0,0,1,,,,,,,,,0,,,67,0
43240,note_on,1,0,3,,,,,,,,,2,,,64,0
43243,note_on,0,0,1,,,,,,,,,0,,,72,0
43243,note_on,3,0,3,,,,,,,,,2,,,52,0
43243,note_on,0,0,3,,,,,,,,,2,,,60,0
43243,note_on,3,0,1,,,,,,,,,0,,,67,0
43260,note_on,17,0,1,,,,,,,,,0,,,67,36
43260,note_on,17,0,3,,,,,,,,,2,,,52,36
43260,note_on,0,0,3,,,,,,,,,2,,,60,36
43260,note_on,0,0,1,,,,,,,,,0,,,72,36
43264,note_on,4,0,1,,,,,,,,,0,,,72,0
43264,note_on,4,0,3,,,,,,,,,2,,,60,0
43264,note_on,0,0,3,,,,,,,,,2,,,52,0
43264,note_on,0,0,1,,,,,,,,,0,,,67,0
43280,note_on,0,0,1,,,,,,,,,0,,,67,36
43280,note_on,0,0,1,,,,,,,,,0,,,72,36
43280,note_on,0,0,3,,,,,,,,,2,,,60,36
43280,control_change,16,0,1,,,,,,,,,0,64,0,,
43280,control_change,16,0,3,,,,,,,,,2,64,0,,
43280,note_on,0,0,3,,,,,,,,,2,,,52,36
43284,note_on,0,0,3,,,,,,,,,2,,,52,0
43284,note_on,4,0,3,,,,,,,,,2,,,60,0
43284,note_on,0,0,1,,,,,,,,,0,,,67,0
43284,note_on,4,0,1,,,,,,,,,0,,,72,0
43299,note_on,15,0,1,,,,,,,,,0,,,67,36
43299,note_on,0,0,1,,,,,,,,,0,,,74,36
43299,note_on,0,0,3,,,,,,,,,2,,,62,36
43299,note_on,15,0,3,,,,,,,,,2,,,55,36
43303,note_on,0,0,3,,,,,,,,,2,,,55,0
43303,note_on,4,0,3,,,,,,,,,2,,,62,0
43303,note_on,4,0,1,,,,,,,,,0,,,74,0
43303,note_on,0,0,1,,,,,,,,,0,,,67,0
43320,note_on,17,0,3,,,,,,,,,2,,,60,36
43320,note_on,0,0,3,,,,,,,,,2,,,64,36
43320,note_on,17,0,1,,,,,,,,,0,,,67,36
43320,note_on,0,0,1,,,,,,,,,0,,,76,36
43324,note_on,4,0,1,,,,,,,,,0,,,76,0
43324,note_on,4,0,3,,,,,,,,,2,,,64,0
43324,note_on,0,0,1,,,,,,,,,0,,,67,0
43324,note_on,0,0,3,,,,,,,,,2,,,60,0
43340,note_on,0,0,3,,,,,,,,,2,,,65,36
43340,note_on,16,0,3,,,,,,,,,2,,,62,36
43340,note_on,16,0,1,,,,,,,,,0,,,67,36
43340,note_on,0,0,1,,,,,,,,,0,,,77,36
43344,note_on,0,0,3,,,,,,,,,2,,,62,0
43344,note_on,4,0,3,,,,,,,,,2,,,65,0
43344,note_on,4,0,1,,,,,,,,,0,,,77,0
43344,note_on,0,0,1,,,,,,,,,0,,,67,0
43359,note_on,0,0,3,,,,,,,,,2,,,67,36
43359,note_on,15,0,1,,,,,,,,,0,,,67,36
43359,note_on,0,0,1,,,,,,,,,0,,,79,36
43359,note_on,15,0,3,,,,,,,,,2,,,64,36
43363,note_on,0,0,3,,,,,,,,,2,,,64,0
43363,note_on,4,0,3,,,,,,,,,2,,,67,0
43363,note_on,0,0,1,,,,,,,,,0,,,67,0
43363,note_on,4,0,1,,,,,,,,,0,,,79,0
43380,control_change,17,0,1,,,,,,,,,0,64,127,,
43380,note_on,0,0,3,,,,,,,,,2,,,64,36
43380,control_change,17,0,3,,,,,,,,,2,64,127,,
43380,note_on,0,0,1,,,,,,,,,0,,,67,36
43380,note_on,0,0,1,,,,,,,,,0,,,79,36
43400,note_on,0,0,3,,,,,,,,,2,,,65,36
43400,note_on,0,0,3,,,,,,,,,2,,,62,36
43400,note_on,20,0,1,,,,,,,,,0,,,79,0
43400,note_on,0,0,1,,,,,,,,,0,,,67,0
43400,note_on,0,0,1,,,,,,,,,0,,,67,36
43400,note_on,0,0,1,,,,,,,,,0,,,77,36
43400,note_on,20,0,3,,,,,,,,,2,,,64,0
43419,note_on,0,0,3,,,,,,,,,2,,,62,36
43419,note_on,19,0,3,,,,,,,,,2,,,55,36
43419,note_on,19,0,1,,,,,,,,,0,,,67,36
43419,note_on,0,0,1,,,,,,,,,0,,,74,36
43420,note_on,0,0,3,,,,,,,,,2,,,62,0
43420,note_on,1,0,3,,,,,,,,,2,,,65,0
43420,note_on,1,0,1,,,,,,,,,0,,,77,0
43420,note_on,0,0,1,,,,,,,,,0,,,67,0
43439,note_on,0,0,3,,,,,,,,,2,,,62,0
43439,note_on,19,0,3,,,,,,,,,2,,,55,0
43439,note_on,0,0,1,,,,,,,,,0,,,74,0
43439,note_on,19,0,1,,,,,,,,,0,,,67,0
43440,note_on,0,0,3,,,,,,,,,2,,,62,36
43440,note_on,1,0,3,,,,,,,,,2,,,55,36
43440,note_on,0,0,1,,,,,,,,,0,,,74,36
43440,note_on,1,0,1,,,,,,,,,0,,,67,36
43460,note_on,20,0,3,,,,,,,,,2,,,62,0
43460,note_on,0,0,1,,,,,,,,,0,,,76,36
43460,note_on,0,0,1,,,,,,,,,0,,,67,36
43460,note_on,0,0,1,,,,,,,,,0,,,67,0
43460,note_on,20,0,1,,,,,,,,,0,,,74,0
43460,note_on,0,0,3,,,,,,,,,2,,,55,0
43460,note_on,0,0,3,,,,,,,,,2,,,60,36
43460,note_on,0,0,3,,,,,,,,,2,,,64,36
43479,note_on,0,0,1,,,,,,,,,0,,,72,36
43479,note_on,0,0,1,,,,,,,,,0,,,67,36
43479,control_change,19,0,1,,,,,,,,,0,64,0,,
43479,control_change,19,0,3,,,,,,,,,2,64,0,,
43479,note_on,0,0,3,,,,,,,,,2,,,52,36
43479,note_on,0,0,3,,,,,,,,,2,,,60,36
43480,note_on,1,0,3,,,,,,,,,2,,,64,0
43480,note_on,0,0,3,,,,,,,,,2,,,60,0
43480,note_on,0,0,1,,,,,,,,,0,,,67,0
43480,note_on,1,0,1,,,,,,,,,0,,,76,0
43499,note_on,19,0,3,,,,,,,,,2,,,52,0
43499,note_on,0,0,1,,,,,,,,,0,,,72,0
43499,note_on,19,0,1,,,,,,,,,0,,,67,0
43499,note_on,0,0,3,,,,,,,,,2,,,60,0
43500,note_on,0,0,3,,,,,,,,,2,,,60,36
43500,note_on,1,0,1,,,,,,,,,0,,,67,36
43500,note_on,1,0,3,,,,,,,,,2,,,52,36
43500,note_on,0,0,1,,,,,,,,,0,,,72,36
43520,note_on,20,0,3,,,,,,,,,2,,,60,0
43520,note_on,0,0,3,,,,,,,,,2,,,52,0
43520,note_on,0,0,3,,,,,,,,,2,,,60,36
43520,note_on,0,0,3,,,,,,,,,2,,,64,36
43520,note_on,20,0,1,,,,,,,,,0,,,72,0
43520,note_on,0,0,1,,,,,,,,,0,,,76,36
43520,note_on,0,0,1,,,,,,,,,0,,,67,36
43520,note_on,0,0,1,,,,,,,,,0,,,67,0
43539,note_on,0,0,1,,,,,,,,,0,,,74,36
43539,note_on,19,0,1,,,,,,,,,0,,,67,36
43539,note_on,19,0,3,,,,,,,,,2,,,55,36
43539,note_on,0,0,3,,,,,,,,,2,,,62,36
43540,note_on,0,0,3,,,,,,,,,2,,,60,0
43540,note_on,1,0,3,,,,,,,,,2,,,64,0
43540,note_on,1,0,1,,,,,,,,,0,,,76,0
43540,note_on,0,0,1,,,,,,,,,0,,,67,0
43559,note_on,19,0,3,,,,,,,,,2,,,55,0
43559,note_on,0,0,1,,,,,,,,,0,,,74,0
43559,note_on,19,0,1,,,,,,,,,0,,,67,0
43559,note_on,0,0,3,,,,,,,,,2,,,62,0
43560,note_on,0,0,3,,,,,,,,,2,,,52,36
43560,note_on,0,0,3,,,,,,,,,2,,,60,36
43560,control_change,1,0,1,,,,,,,,,0,64,127,,
43560,note_on,0,0,1,,,,,,,,,0,,,67,36
43560,note_on,0,0,1,,,,,,,,,0,,,72,36
43560,control_change,1,0,3,,,,,,,,,2,64,127,,
43580,note_on,20,0,1,,,,,,,,,0,,,72,0
43580,note_on,0,0,1,,,,,,,,,0,,,67,36
43580,note_on,0,0,1,,,,,,,,,0,,,67,0
43580,note_on,20,0,3,,,,,,,,,2,,,60,0
43580,note_on,0,0,3,,,,,,,,,2,,,52,0
43580,note_on,0,0,3,,,,,,,,,2,,,55,36
43580,note_on,0,0,1,,,,,,,,,0,,,76,36
43599,note_on,19,0,3,,,,,,,,,2,,,55,36
43599,note_on,0,0,1,,,,,,,,,0,,,79,36
43599,note_on,19,0,1,,,,,,,,,0,,,67,36
43600,note_on,1,0,3,,,,,,,,,2,,,55,0
43600,note_on,1,0,1,,,,,,,,,0,,,76,0
43600,note_on,0,0,1,,,,,,,,,0,,,67,0
43619,note_on,19,0,3,,,,,,,,,2,,,55,0
43619,note_on,19,0,1,,,,,,,,,0,,,67,0
43619,note_on,0,0,1,,,,,,,,,0,,,79,0
43620,note_on,1,0,1,,,,,,,,,0,,,67,36
43620,note_on,0,0,1,,,,,,,,,0,,,79,36
43620,note_on,1,0,3,,,,,,,,,2,,,55,36
43624,note_on,0,0,1,,,,,,,,,0,,,67,0
43624,note_on,4,0,1,,,,,,,,,0,,,79,0
43624,note_on,4,0,3,,,,,,,,,2,,,55,0
43640,note_on,16,0,3,,,,,,,,,2,,,55,36
43640,note_on,16,0,1,,,,,,,,,0,,,69,36
43640,note_on,0,0,1,,,,,,,,,0,,,81,36
43644,note_on,4,0,3,,,,,,,,,2,,,55,0
43644,note_on,4,0,1,,,,,,,,,0,,,81,0
43644,note_on,0,0,1,,,,,,,,,0,,,69,0
43659,control_change,15,0,1,,,,,,,,,0,64,0,,
43659,note_on,0,0,3,,,,,,,,,2,,,55,36
43659,note_on,0,0,1,,,,,,,,,0,,,83,36
43659,control_change,15,0,3,,,,,,,,,2,64,0,,
43659,note_on,0,0,1,,,,,,,,,0,,,71,36
43663,note_on,0,0,1,,,,,,,,,0,,,71,0
43663,note_on,4,0,1,,,,,,,,,0,,,83,0
43663,note_on,4,0,3,,,,,,,,,2,,,55,0
43680,note_on,0,0,3,,,,,,,,,2,,,60,36
43680,note_on,0,0,3,,,,,,,,,2,,,55,36
43680,note_on,17,0,3,,,,,,,,,2,,,52,36
43680,note_on,0,0,1,,,,,,,,,0,,,84,36
43680,note_on,17,0,1,,,,,,,,,0,,,72,36
43684,note_on,0,0,3,,,,,,,,,2,,,52,0
43684,note_on,0,0,3,,,,,,,,,2,,,55,0
43684,note_on,4,0,3,,,,,,,,,2,,,60,0
43684,note_on,4,0,1,,,,,,,,,0,,,84,0
43684,note_on,0,0,1,,,,,,,,,0,,,72,0
43700,note_on,16,0,1,,,,,,,,,0,,,74,36
43700,note_on,0,0,1,,,,,,,,,0,,,86,36
43700,note_on,16,0,3,,,,,,,,,2,,,55,36
43700,note_on,0,0,3,,,,,,,,,2,,,62,36
43704,note_on,4,0,3,,,,,,,,,2,,,62,0
43704,note_on,4,0,1,,,,,,,,,0,,,86,0
43704,note_on,0,0,1,,,,,,,,,0,,,74,0
43704,note_on,0,0,3,,,,,,,,,2,,,55,0
43719,note_on,0,0,1,,,,,,,,,0,,,88,36
43719,note_on,0,0,3,,,,,,,,,2,,,64,36
43719,note_on,15,0,1,,,,,,,,,0,,,76,36
43719,note_on,15,0,3,,,,,,,,,2,,,60,36
43723,note_on,0,0,1,,,,,,,,,0,,,76,0
43723,note_on,4,0,3,,,,,,,,,2,,,64,0
43723,note_on,0,0,3,,,,,,,,,2,,,60,0
43723,note_on,4,0,1,,,,,,,,,0,,,88,0
43740,note_on,0,0,1,,,,,,,,,0,,,76,36
43740,note_on,0,0,3,,,,,,,,,2,,,60,36
43740,note_on,0,0,3,,,,,,,,,2,,,67,36
43740,note_on,0,0,3,,,,,,,,,2,,,64,36
43740,control_change,17,0,3,,,,,,,,,2,64,127,,
43740,note_on,0,0,1,,,,,,,,,0,,,88,36
43740,control_change,17,0,1,,,,,,,,,0,64,127,,
43760,note_on,0,0,3,,,,,,,,,2,,,64,0
43760,note_on,20,0,3,,,,,,,,,2,,,67,0
43760,note_on,0,0,3,,,,,,,,,2,,,60,0
43760,note_on,0,0,3,,,,,,,,,2,,,62,36
43760,note_on,0,0,3,,,,,,,,,2,,,65,36
43760,note_on,0,0,3,,,,,,,,,2,,,67,36
43760,note_on,20,0,1,,,,,,,,,0,,,88,0
43760,note_on,0,0,1,,,,,,,,,0,,,77,36
43760,note_on,0,0,1,,,,,,,,,0,,,89,36
43760,note_on,0,0,1,,,,,,,,,0,,,76,0
43779,note_on,19,0,1,,,,,,,,,0,,,74,36
43779,note_on,0,0,1,,,,,,,,,0,,,86,36
43779,note_on,0,0,3,,,,,,,,,2,,,67,36
43779,note_on,0,0,3,,,,,,,,,2,,,62,36
43779,note_on,19,0,3,,,,,,,,,2,,,55,36
43780,note_on,1,0,1,,,,,,,,,0,,,89,0
43780,note_on,0,0,1,,,,,,,,,0,,,77,0
43780,note_on,0,0,3,,,,,,,,,2,,,65,0
43780,note_on,0,0,3,,,,,,,,,2,,,62,0
43780,note_on,1,0,3,,,,,,,,,2,,,67,0
43783,note_on,0,0,3,,,,,,,,,2,,,67,0
43783,note_on,0,0,3,,,,,,,,,2,,,62,0
43783,note_on,3,0,3,,,,,,,,,2,,,55,0
43783,note_on,0,0,1,,,,,,,,,0,,,86,0
43783,note_on,3,0,1,,,,,,,,,0,,,74,0
43800,note_on,0,0,3,,,,,,,,,2,,,67,36
43800,note_on,17,0,1,,,,,,,,,0,,,74,36
43800,note_on,0,0,1,,,,,,,,,0,,,86,36
43800,note_on,0,0,3,,,,,,,,,2,,,62,36
43800,note_on,17,0,3,,,,,,,,,2,,,55,36
43804,note_on,0,0,3,,,,,,,,,2,,,62,0
43804,note_on,4,0,3,,,,,,,,,2,,,67,0
43804,note_on,0,0,1,,,,,,,,,0,,,74,0
43804,note_on,4,0,1,,,,,,,,,0,,,86,0
43804,note_on,0,0,3,,,,,,,,,2,,,55,0
43820,note_on,0,0,3,,,,,,,,,2,,,62,36
43820,note_on,0,0,3,,,,,,,,,2,,,67,36
43820,note_on,0,0,1,,,,,,,,,0,,,86,36
43820,note_on,16,0,1,,,,,,,,,0,,,74,36
43820,note_on,16,0,3,,,,,,,,,2,,,55,36
43824,note_on,4,0,1,,,,,,,,,0,,,86,0
43824,note_on,4,0,3,,,,,,,,,2,,,67,0
43824,note_on,0,0,3,,,,,,,,,2,,,62,0
43824,note_on,0,0,3,,,,,,,,,2,,,55,0
43824,note_on,0,0,1,,,,,,,,,0,,,74,0
43839,control_change,15,0,3,,,,,,,,,2,64,0,,
43839,note_on,0,0,3,,,,,,,,,2,,,67,36
43839,note_on,0,0,3,,,,,,,,,2,,,62,36
43839,note_on,0,0,3,,,,,,,,,2,,,55,36
43839,control_change,15,0,1,,,,,,,,,0,64,0,,
43839,note_on,0,0,1,,,,,,,,,0,,,74,36
43839,note_on,0,0,1,,,,,,,,,0,,,86,36
43843,note_on,0,0,3,,,,,,,,,2,,,55,0
43843,note_on,0,0,3,,,,,,,,,2,,,62,0
43843,note_on,4,0,3,,,,,,,,,2,,,67,0
43843,note_on,0,0,1,,,,,,,,,0,,,74,0
43843,note_on,4,0,1,,,,,,,,,0,,,86,0
43860,note_on,17,0,1,,,,,,,,,0,,,77,36
43860,note_on,0,0,1,,,,,,,,,0,,,89,36
43860,note_on,17,0,3,,,,,,,,,2,,,62,36
43860,note_on,0,0,3,,,,,,,,,2,,,65,36
43860,note_on,0,0,3,,,,,,,,,2,,,67,36
43864,note_on,0,0,3,,,,,,,,,2,,,65,0
43864,note_on,4,0,1,,,,,,,,,0,,,89,0
43864,note_on,0,0,1,,,,,,,,,0,,,77,0
43864,note_on,4,0,3,,,,,,,,,2,,,67,0
43864,note_on,0,0,3,,,,,,,,,2,,,62,0
43880,note_on,0,0,3,,,,,,,,,2,,,64,36
43880,note_on,0,0,3,,,,,,,,,2,,,67,36
43880,note_on,0,0,1,,,,,,,,,0,,,88,36
43880,note_on,16,0,1,,,,,,,,,0,,,76,36
43880,note_on,16,0,3,,,,,,,,,2,,,60,36
43884,note_on,0,0,1,,,,,,,,,0,,,76,0
43884,note_on,4,0,3,,,,,,,,,2,,,67,0
43884,note_on,0,0,3,,,,,,,,,2,,,64,0
43884,note_on,0,0,3,,,,,,,,,2,,,60,0
43884,note_on,4,0,1,,,,,,,,,0,,,88,0
43899,note_on,0,0,1,,,,,,,,,0,,,86,36
43899,note_on,15,0,1,,,,,,,,,0,,,74,36
43899,note_on,0,0,3,,,,,,,,,2,,,67,36
43899,note_on,0,0,3,,,,,,,,,2,,,62,36
43899,note_on,15,0,3,,,,,,,,,2,,,55,36
43903,note_on,4,0,1,,,,,,,,,0,,,86,0
43903,note_on,0,0,1,,,,,,,,,0,,,74,0
43903,note_on,0,0,3,,,,,,,,,2,,,55,0
43903,note_on,0,0,3,,,,,,,,,2,,,62,0
43903,note_on,4,0,3,,,,,,,,,2,,,67,0
43920,note_on,0,0,3,,,,,,,,,2,,,67,36
43920,note_on,0,0,3,,,,,,,,,2,,,62,36
43920,note_on,0,0,3,,,,,,,,,2,,,55,36
43920,control_change,17,0,3,,,,,,,,,2,64,127,,
43920,note_on,0,0,1,,,,,,,,,0,,,86,36
43920,control_change,17,0,1,,,,,,,,,0,64,127,,
43920,note_on,0,0,1,,,,,,,,,0,,,74,36
43940,note_on,20,0,3,,,,,,,,,2,,,67,0
43940,note_on,0,0,3,,,,,,,,,2,,,62,0
43940,note_on,0,0,3,,,,,,,,,2,,,55,0
43940,note_on,0,0,3,,,,,,,,,2,,,64,36
43940,note_on,0,0,3,,,,,,,,,2,,,67,36
43940,note_on,0,0,3,,,,,,,,,2,,,60,36
43940,note_on,20,0,1,,,,,,,,,0,,,86,0
43940,note_on,0,0,1,,,,,,,,,0,,,74,0
43940,note_on,0,0,1,,,,,,,,,0,,,76,36
43940,note_on,0,0,1,,,,,,,,,0,,,88,36
43959,note_on,0,0,1,,,,,,,,,0,,,84,36
43959,note_on,19,0,1,,,,,,,,,0,,,72,36
43959,note_on,0,0,3,,,,,,,,,2,,,60,36
43959,note_on,19,0,3,,,,,,,,,2,,,52,36
43960,note_on,0,0,1,,,,,,,,,0,,,76,0
43960,note_on,0,0,3,,,,,,,,,2,,,60,0
43960,note_on,0,0,3,,,,,,,,,2,,,64,0
43960,note_on,1,0,3,,,,,,,,,2,,,67,0
43960,note_on,1,0,1,,,,,,,,,0,,,88,0
43963,note_on,3,0,3,,,,,,,,,2,,,52,0
43963,note_on,0,0,3,,,,,,,,,2,,,60,0
43963,note_on,3,0,1,,,,,,,,,0,,,72,0
43963,note_on,0,0,1,,,,,,,,,0,,,84,0
43980,note_on,0,0,1,,,,,,,,,0,,,84,36
43980,note_on,17,0,1,,,,,,,,,0,,,72,36
43980,note_on,17,0,3,,,,,,,,,2,,,52,36
43980,note_on,0,0,3,,,,,,,,,2,,,60,36
43984,note_on,4,0,3,,,,,,,,,2,,,60,0
43984,note_on,0,0,1,,,,,,,,,0,,,72,0
43984,note_on,4,0,1,,,,,,,,,0,,,84,0
43984,note_on,0,0,3,,,,,,,,,2,,,52,0
44000,note_on,0,0,1,,,,,,,,,0,,,84,36
44000,note_on,16,0,1,,,,,,,,,0,,,72,36
44000,note_on,16,0,3,,,,,,,,,2,,,52,36
44000,note_on,0,0,3,,,,,,,,,2,,,60,36
44004,note_on,0,0,3,,,,,,,,,2,,,52,0
44004,note_on,4,0,3,,,,,,,,,2,,,60,0
44004,note_on,0,0,1,,,,,,,,,0,,,72,0
44004,note_on,4,0,1,,,,,,,,,0,,,84,0
44019,note_on,0,0,3,,,,,,,,,2,,,62,36
44019,note_on,15,0,3,,,,,,,,,2,,,55,36
44019,note_on,0,0,1,,,,,,,,,0,,,86,36
44019,note_on,15,0,1,,,,,,,,,0,,,74,36
44023,note_on,0,0,3,,,,,,,,,2,,,55,0
44023,note_on,4,0,3,,,,,,,,,2,,,62,0
44023,note_on,0,0,1,,,,,,,,,0,,,74,0
44023,note_on,4,0,1,,,,,,,,,0,,,86,0
44040,note_on,0,0,3,,,,,,,,,2,,,64,36
44040,note_on,17,0,3,,,,,,,,,2,,,60,36
44040,note_on,0,0,1,,,,,,,,,0,,,88,36
44040,note_on,17,0,1,,,,,,,,,0,,,76,36
44044,note_on,0,0,1,,,,,,,,,0,,,76,0
44044,note_on,4,0,3,,,,,,,,,2,,,64,0
44044,note_on,0,0,3,,,,,,,,,2,,,60,0
44044,note_on,4,0,1,,,,,,,,,0,,,88,0
44060,note_on,0,0,1,,,,,,,,,0,,,78,36
44060,note_on,0,0,1,,,,,,,,,0,,,90,36
44060,note_on,0,0,3,,,,,,,,,2,,,66,36
44060,note_on,0,0,3,,,,,,,,,2,,,62,36
44060,control_change,16,0,3,,,,,,,,,2,64,0,,
44060,control_change,16,0,1,,,,,,,,,0,64,0,,
44064,note_on,4,0,1,,,,,,,,,0,,,90,0
44064,note_on,0,0,3,,,,,,,,,2,,,62,0
44064,note_on,0,0,1,,,,,,,,,0,,,78,0
44064,note_on,4,0,3,,,,,,,,,2,,,66,0
44079,note_on,0,0,1,,,,,,,,,0,,,91,36
44079,note_on,0,0,3,,,,,,,,,2,,,67,36
44079,note_on,15,0,3,,,,,,,,,2,,,64,36
44079,note_on,15,0,1,,,,,,,,,0,,,79,36
44083,note_on,4,0,3,,,,,,,,,2,,,67,0
44083,note_on,0,0,3,,,,,,,,,2,,,64,0
44083,note_on,4,0,1,,,,,,,,,0,,,91,0
44083,note_on,0,0,1,,,,,,,,,0,,,79,0
44100,note_on,0,0,3,,,,,,,,,2,,,67,36
44100,note_on,0,0,1,,,,,,,,,0,,,91,36
44100,note_on,0,0,1,,,,,,,,,0,,,79,36
44100,control_change,17,0,3,,,,,,,,,2,64,127,,
44100,note_on,0,0,3,,,,,,,,,2,,,61,36
44100,control_change,17,0,1,,,,,,,,,0,64,127,,
44120,note_on,20,0,1,,,,,,,,,0,,,91,0
44120,note_on,0,0,1,,,,,,,,,0,,,90,36
44120,note_on,0,0,1,,,,,,,,,0,,,78,36
44120,note_on,0,0,1,,,,,,,,,0,,,79,0
44120,note_on,20,0,3,,,,,,,,,2,,,67,0
44120,note_on,0,0,3,,,,,,,,,2,,,61,0
44120,note_on,0,0,3,,,,,,,,,2,,,62,36
44120,note_on,0,0,3,,,,,,,,,2,,,66,36
44139,note_on,0,0,1,,,,,,,,,0,,,88,36
44139,note_on,19,0,1,,,,,,,,,0,,,76,36
44139,note_on,19,0,3,,,,,,,,,2,,,60,36
44139,note_on,0,0,3,,,,,,,,,2,,,64,36
44140,note_on,1,0,3,,,,,,,,,2,,,66,0
44140,note_on,0,0,3,,,,,,,,,2,,,62,0
44140,note_on,1,0,1,,,,,,,,,0,,,90,0
44140,note_on,0,0,1,,,,,,,,,0,,,78,0
44159,note_on,19,0,1,,,,,,,,,0,,,76,0
44159,note_on,0,0,1,,,,,,,,,0,,,88,0
44159,note_on,19,0,3,,,,,,,,,2,,,60,0
44159,note_on,0,0,3,,,,,,,,,2,,,64,0
44160,note_on,1,0,3,,,,,,,,,2,,,59,36
44160,note_on,0,0,1,,,,,,,,,0,,,86,62
44160,note_on,0,0,3,,,,,,,,,2,,,62,36
44160,note_on,1,0,1,,,,,,,,,0,,,74,54
44180,note_on,0,0,1,,,,,,,,,0,,,84,36
44180,note_on,0,0,3,,,,,,,,,2,,,59,0
44180,note_on,0,0,3,,,,,,,,,2,,,57,36
44180,note_on,0,0,3,,,,,,,,,2,,,60,36
44180,note_on,20,0,1,,,,,,,,,0,,,86,0
44180,note_on,0,0,1,,,,,,,,,0,,,74,0
44180,note_on,0,0,1,,,,,,,,,0,,,72,36
44180,note_on,20,0,3,,,,,,,,,2,,,62,0
44199,note_on,0,0,1,,,,,,,,,0,,,83,36
44199,note_on,19,0,1,,,,,,,,,0,,,71,36
44199,note_on,19,0,3,,,,,,,,,2,,,55,36
44199,note_on,0,0,3,,,,,,,,,2,,,59,36
44200,note_on,0,0,3,,,,,,,,,2,,,57,0
44200,note_on,1,0,1,,,,,,,,,0,,,84,0
44200,note_on,0,0,1,,,,,,,,,0,,,72,0
44200,note_on,1,0,3,,,,,,,,,2,,,60,0
44219,note_on,0,0,3,,,,,,,,,2,,,59,0
44219,note_on,19,0,3,,,,,,,,,2,,,55,0
44219,note_on,19,0,1,,,,,,,,,0,,,71,0
44219,note_on,0,0,1,,,,,,,,,0,,,83,0
44220,note_on,0,0,3,,,,,,,,,2,,,57,36
44220,note_on,0,0,3,,,,,,,,,2,,,50,36
44220,control_change,1,0,3,,,,,,,,,2,64,0,,
44220,control_change,1,0,1,,,,,,,,,0,64,0,,
44220,note_on,0,0,1,,,,,,,,,0,,,69,54
44220,note_on,0,0,1,,,,,,,,,0,,,81,62
44240,note_on,20,0,1,,,,,,,,,0,,,81,0
44240,note_on,0,0,1,,,,,,,,,0,,,71,36
44240,note_on,0,0,3,,,,,,,,,2,,,59,36
44240,note_on,0,0,1,,,,,,,,,0,,,69,0
44240,note_on,0,0,3,,,,,,,,,2,,,50,0
44240,note_on,20,0,3,,,,,,,,,2,,,57,0
44240,note_on,0,0,3,,,,,,,,,2,,,55,36
44240,note_on,0,0,1,,,,,,,,,0,,,83,36
44259,note_on,0,0,1,,,,,,,,,0,,,81,36
44259,note_on,19,0,1,,,,,,,,,0,,,69,36
44259,note_on,19,0,3,,,,,,,,,2,,,50,36
44259,note_on,0,0,3,,,,,,,,,2,,,57,36
44260,note_on,1,0,1,,,,,,,,,0,,,83,0
44260,note_on,1,0,3,,,,,,,,,2,,,59,0
44260,note_on,0,0,3,,,,,,,,,2,,,55,0
44260,note_on,0,0,1,,,,,,,,,0,,,71,0
44279,note_on,0,0,1,,,,,,,,,0,,,81,0
44279,note_on,19,0,1,,,,,,,,,0,,,69,0
44279,note_on,0,0,3,,,,,,,,,2,,,57,0
44279,note_on,19,0,3,,,,,,,,,2,,,50,0
44280,note_on,1,0,1,,,,,,,,,0,,,67,36
44280,note_on,0,0,3,,,,,,,,,2,,,55,36
44280,note_on,0,0,3,,,,,,,,,2,,,47,36
44280,note_on,1,0,3,,,,,,,,,2,,,43,36
44280,note_on,0,0,1,,,,,,,,,0,,,79,36
44300,note_on,0,0,1,,,,,,,,,0,,,67,36
44300,note_on,20,0,1,,,,,,,,,0,,,79,0
44300,note_on,0,0,1,,,,,,,,,0,,,67,0
44319,note_on,19,0,1,,,,,,,,,0,,,67,36
44320,note_on,1,0,1,,,,,,,,,0,,,67,0
44339,note_on,19,0,1,,,,,,,,,0,,,67,0
44340,note_on,0,0,3,,,,,,,,,2,,,43,0
44340,note_on,60,0,3,,,,,,,,,2,,,55,0
44340,note_on,0,0,3,,,,,,,,,2,,,47,0
44340,note_on,1,0,1,,,,,,,,,0,,,67,36
44360,note_on,20,0,1,,,,,,,,,0,,,67,0
44360,note_on,0,0,1,,,,,,,,,0,,,67,36
44379,note_on,19,0,1,,,,,,,,,0,,,67,36
44380,note_on,1,0,1,,,,,,,,,0,,,67,0
44399,note_on,19,0,1,,,,,,,,,0,,,67,0
44400,note_on,60,0,3,,,,,,,,,2,,,55,36
44400,note_on,1,0,1,,,,,,,,,0,,,67,36
44404,note_on,4,0,1,,,,,,,,,0,,,67,0
44404,note_on,4,0,3,,,,,,,,,2,,,55,0
44420,note_on,16,0,3,,,,,,,,,2,,,55,36
44420,note_on,0,0,3,,,,,,,,,2,,,63,36
44420,note_on,0,0,1,,,,,,,,,0,,,72,36
44420,note_on,16,0,1,,,,,,,,,0,,,67,36
44424,note_on,4,0,3,,,,,,,,,2,,,63,0
44424,note_on,0,0,3,,,,,,,,,2,,,55,0
44424,note_on,4,0,1,,,,,,,,,0,,,72,0
44424,note_on,0,0,1,,,,,,,,,0,,,67,0
44439,note_on,0,0,1,,,,,,,,,0,,,75,36
44439,note_on,15,0,1,,,,,,,,,0,,,67,36
44439,note_on,15,0,3,,,,,,,,,2,,,55,36
44439,note_on,0,0,3,,,,,,,,,2,,,67,36
44443,note_on,4,0,3,,,,,,,,,2,,,67,0
44443,note_on,0,0,3,,,,,,,,,2,,,55,0
44443,note_on,0,0,1,,,,,,,,,0,,,67,0
44443,note_on,4,0,1,,,,,,,,,0,,,75,0
44460,control_change,17,0,3,,,,,,,,,2,64,127,,
44460,note_on,0,0,3,,,,,,,,,2,,,55,36
44460,note_on,0,0,3,,,,,,,,,2,,,67,36
44460,note_on,0,0,1,,,,,,,,,0,,,75,62
44460,note_on,0,0,1,,,,,,,,,0,,,67,54
44460,control_change,17,0,1,,,,,,,,,0,64,127,,
44480,note_on,20,0,3,,,,,,,,,2,,,67,0
44480,note_on,0,0,3,,,,,,,,,2,,,55,36
44480,note_on,20,0,1,,,,,,,,,0,,,75,0
44480,note_on,0,0,1,,,,,,,,,0,,,67,0
44480,note_on,0,0,1,,,,,,,,,0,,,67,36
44480,note_on,0,0,1,,,,,,,,,0,,,74,36
44480,note_on,0,0,3,,,,,,,,,2,,,55,0
44480,note_on,0,0,3,,,,,,,,,2,,,65,36
44499,note_on,19,0,3,,,,,,,,,2,,,55,36
44499,note_on,19,0,1,,,,,,,,,0,,,67,36
44499,note_on,0,0,3,,,,,,,,,2,,,65,36
44499,note_on,0,0,1,,,,,,,,,0,,,74,36
44500,note_on,0,0,1,,,,,,,,,0,,,67,0
44500,note_on,0,0,3,,,,,,,,,2,,,55,0
44500,note_on,1,0,1,,,,,,,,,0,,,74,0
44500,note_on,1,0,3,,,,,,,,,2,,,65,0
44503,note_on,3,0,1,,,,,,,,,0,,,67,0
44503,note_on,0,0,1,,,,,,,,,0,,,74,0
44503,note_on,3,0,3,,,,,,,,,2,,,55,0
44503,note_on,0,0,3,,,,,,,,,2,,,65,0
44520,note_on,0,0,1,,,,,,,,,0,,,74,36
44520,note_on,17,0,3,,,,,,,,,2,,,55,36
44520,note_on,0,0,3,,,,,,,,,2,,,65,36
44520,note_on,17,0,1,,,,,,,,,0,,,67,36
44524,note_on,0,0,3,,,,,,,,,2,,,55,0
44524,note_on,4,0,3,,,,,,,,,2,,,65,0
44524,note_on,4,0,1,,,,,,,,,0,,,74,0
44524,note_on,0,0,1,,,,,,,,,0,,,67,0
44540,note_on,0,0,3,,,,,,,,,2,,,55,36
44540,note_on,0,0,3,,,,,,,,,2,,,65,36
44540,control_change,16,0,1,,,,,,,,,0,64,0,,
44540,note_on,0,0,1,,,,,,,,,0,,,67,36
44540,note_on,0,0,1,,,,,,,,,0,,,74,36
44540,control_change,16,0,3,,,,,,,,,2,64,0,,
44544,note_on,4,0,3,,,,,,,,,2,,,65,0
44544,note_on,0,0,3,,,,,,,,,2,,,55,0
44544,note_on,4,0,1,,,,,,,,,0,,,74,0
44544,note_on,0,0,1,,,,,,,,,0,,,67,0
44559,note_on,0,0,3,,,,,,,,,2,,,65,36
44559,note_on,0,0,1,,,,,,,,,0,,,74,36
44559,note_on,15,0,3,,,,,,,,,2,,,55,36
44559,note_on,15,0,1,,,,,,,,,0,,,67,36
44563,note_on,0,0,1,,,,,,,,,0,,,67,0
44563,note_on,4,0,3,,,,,,,,,2,,,65,0
44563,note_on,0,0,3,,,,,,,,,2,,,55,0
44563,note_on,4,0,1,,,,,,,,,0,,,74,0
44580,note_on,0,0,3,,,,,,,,,2,,,68,36
44580,note_on,17,0,1,,,,,,,,,0,,,77,36
44580,note_on,17,0,3,,,,,,,,,2,,,55,36
44584,note_on,0,0,3,,,,,,,,,2,,,55,0
44584,note_on,4,0,1,,,,,,,,,0,,,77,0
44584,note_on,4,0,3,,,,,,,,,2,,,68,0
44600,note_on,0,0,1,,,,,,,,,0,,,75,36
44600,note_on,16,0,3,,,,,,,,,2,,,55,36
44600,note_on,0,0,3,,,,,,,,,2,,,67,36
44600,note_on,16,0,1,,,,,,,,,0,,,67,36
44604,note_on,4,0,1,,,,,,,,,0,,,75,0
44604,note_on,0,0,1,,,,,,,,,0,,,67,0
44604,note_on,4,0,3,,,,,,,,,2,,,67,0
44604,note_on,0,0,3,,,,,,,,,2,,,55,0
44619,note_on,15,0,1,,,,,,,,,0,,,67,36
44619,note_on,0,0,1,,,,,,,,,0,,,74,36
44619,note_on,0,0,3,,,,,,,,,2,,,65,36
44619,note_on,15,0,3,,,,,,,,,2,,,55,36
44623,note_on,4,0,1,,,,,,,,,0,,,74,0
44623,note_on,0,0,1,,,,,,,,,0,,,67,0
44623,note_on,0,0,3,,,,,,,,,2,,,55,0
44623,note_on,4,0,3,,,,,,,,,2,,,65,0
44640,control_change,17,0,3,,,,,,,,,2,64,127,,
44640,note_on,0,0,3,,,,,,,,,2,,,65,36
44640,note_on,0,0,1,,,,,,,,,0,,,74,62
44640,control_change,17,0,1,,,,,,,,,0,64,127,,
44640,note_on,0,0,3,,,,,,,,,2,,,55,36
44640,note_on,0,0,1,,,,,,,,,0,,,67,54
44660,note_on,0,0,1,,,,,,,,,0,,,67,0
44660,note_on,0,0,1,,,,,,,,,0,,,72,36
44660,note_on,0,0,1,,,,,,,,,0,,,67,36
44660,note_on,0,0,3,,,,,,,,,2,,,63,36
44660,note_on,0,0,3,,,,,,,,,2,,,55,36
44660,note_on,0,0,3,,,,,,,,,2,,,55,0
44660,note_on,20,0,3,,,,,,,,,2,,,65,0
44660,note_on,20,0,1,,,,,,,,,0,,,74,0
44679,note_on,19,0,3,,,,,,,,,2,,,55,36
44679,note_on,0,0,3,,,,,,,,,2,,,63,36
44679,note_on,19,0,1,,,,,,,,,0,,,67,36
44679,note_on,0,0,1,,,,,,,,,0,,,72,36
44680,note_on,1,0,1,,,,,,,,,0,,,72,0
44680,note_on,0,0,3,,,,,,,,,2,,,55,0
44680,note_on,0,0,1,,,,,,,,,0,,,67,0
44680,note_on,1,0,3,,,,,,,,,2,,,63,0
44683,note_on,3,0,1,,,,,,,,,0,,,67,0
44683,note_on,3,0,3,,,,,,,,,2,,,55,0
44683,note_on,0,0,3,,,,,,,,,2,,,63,0
44683,note_on,0,0,1,,,,,,,,,0,,,72,0
44700,note_on,17,0,3,,,,,,,,,2,,,55,36
44700,note_on,0,0,3,,,,,,,,,2,,,63,36
44700,note_on,0,0,1,,,,,,,,,0,,,72,36
44700,note_on,17,0,1,,,,,,,,,0,,,67,36
44704,note_on,0,0,3,,,,,,,,,2,,,55,0
44704,note_on,4,0,3,,,,,,,,,2,,,63,0
44704,note_on,0,0,1,,,,,,,,,0,,,67,0
44704,note_on,4,0,1,,,,,,,,,0,,,72,0
44720,note_on,0,0,3,,,,,,,,,2,,,63,36
44720,note_on,16,0,3,,,,,,,,,2,,,55,36
44720,note_on,16,0,1,,,,,,,,,0,,,67,36
44720,note_on,0,0,1,,,,,,,,,0,,,72,36
44724,note_on,0,0,3,,,,,,,,,2,,,55,0
44724,note_on,0,0,1,,,,,,,,,0,,,67,0
44724,note_on,4,0,1,,,,,,,,,0,,,72,0
44724,note_on,4,0,3,,,,,,,,,2,,,63,0
44739,note_on,0,0,3,,,,,,,,,2,,,65,36
44739,note_on,0,0,1,,,,,,,,,0,,,74,36
44739,note_on,15,0,1,,,,,,,,,0,,,67,36
44739,note_on,15,0,3,,,,,,,,,2,,,55,36
44743,note_on,4,0,3,,,,,,,,,2,,,65,0
44743,note_on,0,0,3,,,,,,,,,2,,,55,0
44743,note_on,0,0,1,,,,,,,,,0,,,67,0
44743,note_on,4,0,1,,,,,,,,,0,,,74,0
44760,note_on,0,0,1,,,,,,,,,0,,,67,36
44760,control_change,17,0,3,,,,,,,,,2,64,0,,
44760,note_on,0,0,3,,,,,,,,,2,,,55,36
44760,control_change,17,0,1,,,,,,,,,0,64,0,,
44760,note_on,0,0,3,,,,,,,,,2,,,67,36
44760,note_on,0,0,1,,,,,,,,,0,,,75,36
44764,note_on,4,0,1,,,,,,,,,0,,,75,0
44764,note_on,0,0,1,,,,,,,,,0,,,67,0
44764,note_on,4,0,3,,,,,,,,,2,,,67,0
44764,note_on,0,0,3,,,,,,,,,2,,,55,0
44780,note_on,16,0,1,,,,,,,,,0,,,67,36
44780,note_on,0,0,1,,,,,,,,,0,,,77,36
44780,note_on,16,0,3,,,,,,,,,2,,,55,36
44780,note_on,0,0,3,,,,,,,,,2,,,65,36
44784,note_on,0,0,3,,,,,,,,,2,,,55,0
44784,note_on,4,0,1,,,,,,,,,0,,,77,0
44784,note_on,4,0,3,,,,,,,,,2,,,65,0
44784,note_on,0,0,1,,,,,,,,,0,,,67,0
44799,note_on,15,0,3,,,,,,,,,2,,,55,36
44799,note_on,0,0,3,,,,,,,,,2,,,63,36
44799,note_on,15,0,1,,,,,,,,,0,,,67,36
44799,note_on,0,0,1,,,,,,,,,0,,,79,36
44803,note_on,4,0,1,,,,,,,,,0,,,79,0
44803,note_on,0,0,3,,,,,,,,,2,,,55,0
44803,note_on,4,0,3,,,,,,,,,2,,,63,0
44803,note_on,0,0,1,,,,,,,,,0,,,67,0
44820,control_change,17,0,1,,,,,,,,,0,64,127,,
44820,note_on,0,0,1,,,,,,,,,0,,,79,36
44820,note_on,0,0,3,,,,,,,,,2,,,63,36
44820,note_on,0,0,3,,,,,,,,,2,,,55,36
44820,control_change,17,0,3,,,,,,,,,2,64,127,,
44820,note_on,0,0,1,,,,,,,,,0,,,67,36
44840,note_on,0,0,1,,,,,,,,,0,,,65,36
44840,note_on,0,0,3,,,,,,,,,2,,,62,36
44840,note_on,0,0,3,,,,,,,,,2,,,56,36
44840,note_on,0,0,3,,,,,,,,,2,,,55,0
44840,note_on,20,0,3,,,,,,,,,2,,,63,0
44840,note_on,20,0,1,,,,,,,,,0,,,79,0
44840,note_on,0,0,1,,,,,,,,,0,,,67,0
44840,note_on,0,0,1,,,,,,,,,0,,,77,36
44859,note_on,19,0,3,,,,,,,,,2,,,56,36
44859,note_on,19,0,1,,,,,,,,,0,,,65,36
44859,note_on,0,0,1,,,,,,,,,0,,,74,36
44859,note_on,0,0,3,,,,,,,,,2,,,62,36
44860,note_on,1,0,1,,,,,,,,,0,,,77,0
44860,note_on,0,0,1,,,,,,,,,0,,,65,0
44860,note_on,0,0,3,,,,,,,,,2,,,56,0
44860,note_on,1,0,3,,,,,,,,,2,,,62,0
44863,note_on,3,0,1,,,,,,,,,0,,,65,0
44863,note_on,0,0,1,,,,,,,,,0,,,74,0
44863,note_on,0,0,3,,,,,,,,,2,,,62,0
44863,note_on,3,0,3,,,,,,,,,2,,,56,0
44880,note_on,0,0,3,,,,,,,,,2,,,62,36
44880,note_on,17,0,3,,,,,,,,,2,,,56,36
44880,note_on,17,0,1,,,,,,,,,0,,,65,54
44880,note_on,0,0,1,,,,,,,,,0,,,74,62
44884,note_on,0,0,1,,,,,,,,,0,,,65,0
44884,note_on,4,0,1,,,,,,,,,0,,,74,0
44884,note_on,4,0,3,,,,,,,,,2,,,62,0
44884,note_on,0,0,3,,,,,,,,,2,,,56,0
44900,note_on,0,0,1,,,,,,,,,0,,,72,36
44900,note_on,16,0,1,,,,,,,,,0,,,67,36
44900,note_on,16,0,3,,,,,,,,,2,,,55,36
44900,note_on,0,0,3,,,,,,,,,2,,,63,36
44904,note_on,0,0,1,,,,,,,,,0,,,67,0
44904,note_on,4,0,1,,,,,,,,,0,,,72,0
44904,note_on,4,0,3,,,,,,,,,2,,,63,0
44904,note_on,0,0,3,,,,,,,,,2,,,55,0
44919,note_on,0,0,1,,,,,,,,,0,,,72,36
44919,note_on,15,0,3,,,,,,,,,2,,,55,36
44919,note_on,0,0,3,,,,,,,,,2,,,63,36
44919,note_on,15,0,1,,,,,,,,,0,,,67,36
44923,note_on,4,0,3,,,,,,,,,2,,,63,0
44923,note_on,0,0,3,,,,,,,,,2,,,55,0
44923,note_on,0,0,1,,,,,,,,,0,,,67,0
44923,note_on,4,0,1,,,,,,,,,0,,,72,0
44940,control_change,17,0,3,,,,,,,,,2,64,0,,
44940,note_on,0,0,1,,,,,,,,,0,,,72,62
44940,note_on,0,0,1,,,,,,,,,0,,,67,54
44940,control_change,17,0,1,,,,,,,,,0,64,0,,
44940,note_on,0,0,3,,,,,,,,,2,,,55,36
44940,note_on,0,0,3,,,,,,,,,2,,,63,36
44944,note_on,4,0,3,,,,,,,,,2,,,63,0
44944,note_on,0,0,3,,,,,,,,,2,,,55,0
44944,note_on,0,0,1,,,,,,,,,0,,,67,0
44944,note_on,4,0,1,,,,,,,,,0,,,72,0
44960,note_on,0,0,3,,,,,,,,,2,,,67,36
44960,note_on,16,0,3,,,,,,,,,2,,,55,36
44960,note_on,16,0,1,,,,,,,,,0,,,67,36
44960,note_on,0,0,1,,,,,,,,,0,,,75,36
44964,note_on,0,0,1,,,,,,,,,0,,,67,0
44964,note_on,4,0,3,,,,,,,,,2,,,67,0
44964,note_on,0,0,3,,,,,,,,,2,,,55,0
44964,note_on,4,0,1,,,,,,,,,0,,,75,0
44979,note_on,15,0,3,,,,,,,,,2,,,55,36
44979,note_on,15,0,1,,,,,,,,,0,,,67,36
44979,note_on,0,0,1,,,,,,,,,0,,,74,36
44979,note_on,0,0,3,,,,,,,,,2,,,65,36
44983,note_on,0,0,1,,,,,,,,,0,,,67,0
44983,note_on,4,0,3,,,,,,,,,2,,,65,0
44983,note_on,0,0,3,,,,,,,,,2,,,55,0
44983,note_on,4,0,1,,,,,,,,,0,,,74,0
45000,control_change,17,0,1,,,,,,,,,0,64,127,,
45000,note_on,0,0,1,,,,,,,,,0,,,67,36
45000,control_change,17,0,3,,,,,,,,,2,64,127,,
45000,note_on,0,0,3,,,,,,,,,2,,,60,36
45000,note_on,0,0,3,,,,,,,,,2,,,63,36
45000,note_on,0,0,1,,,,,,,,,0,,,72,36
45020,note_on,0,0,1,,,,,,,,,0,,,67,36
45020,note_on,0,0,1,,,,,,,,,0,,,67,0
45020,note_on,0,0,3,,,,,,,,,2,,,60,0
45020,note_on,0,0,3,,,,,,,,,2,,,55,36
45020,note_on,20,0,3,,,,,,,,,2,,,63,0
45020,note_on,20,0,1,,,,,,,,,0,,,72,0
45039,note_on,19,0,3,,,,,,,,,2,,,55,36
45039,note_on,19,0,1,,,,,,,,,0,,,67,36
45040,note_on,1,0,3,,,,,,,,,2,,,55,0
45040,note_on,1,0,1,,,,,,,,,0,,,67,0
45059,note_on,19,0,1,,,,,,,,,0,,,67,0
45059,note_on,19,0,3,,,,,,,,,2,,,55,0
45060,note_on,1,0,3,,,,,,,,,2,,,55,36
45060,note_on,1,0,1,,,,,,,,,0,,,67,36
45060,note_on,0,0,1,,,,,,,,,0,,,79,36
45064,note_on,4,0,3,,,,,,,,,2,,,55,0
45064,note_on,4,0,1,,,,,,,,,0,,,79,0
45064,note_on,0,0,1,,,,,,,,,0,,,67,0
45080,note_on,0,0,1,,,,,,,,,0,,,81,36
45080,note_on,16,0,3,,,,,,,,,2,,,55,36
45080,note_on,16,0,1,,,,,,,,,0,,,69,36
45084,note_on,4,0,3,,,,,,,,,2,,,55,0
45084,note_on,4,0,1,,,,,,,,,0,,,81,0
45084,note_on,0,0,1,,,,,,,,,0,,,69,0
45099,note_on,15,0,3,,,,,,,,,2,,,55,36
45099,note_on,0,0,1,,,,,,,,,0,,,83,36
45099,note_on,15,0,1,,,,,,,,,0,,,71,36
45103,note_on,4,0,1,,,,,,,,,0,,,83,0
45103,note_on,0,0,1,,,,,,,,,0,,,71,0
45103,note_on,4,0,3,,,,,,,,,2,,,55,0
45120,note_on,0,0,1,,,,,,,,,0,,,84,36
45120,note_on,0,0,1,,,,,,,,,0,,,72,36
45120,control_change,17,0,3,,,,,,,,,2,64,0,,
45120,note_on,0,0,3,,,,,,,,,2,,,52,36
45120,control_change,17,0,1,,,,,,,,,0,64,0,,
45120,note_on,0,0,3,,,,,,,,,2,,,55,36
45120,note_on,0,0,3,,,,,,,,,2,,,60,36
45124,note_on,4,0,1,,,,,,,,,0,,,84,0
45124,note_on,0,0,1,,,,,,,,,0,,,72,0
45124,note_on,0,0,3,,,,,,,,,2,,,55,0
45124,note_on,4,0,3,,,,,,,,,2,,,60,0
45124,note_on,0,0,3,,,,,,,,,2,,,52,0
45140,note_on,16,0,3,,,,,,,,,2,,,55,36
45140,note_on,0,0,3,,,,,,,,,2,,,62,36
45140,note_on,16,0,1,,,,,,,,,0,,,74,36
45140,note_on,0,0,1,,,,,,,,,0,,,86,36
45144,note_on,4,0,1,,,,,,,,,0,,,86,0
45144,note_on,4,0,3,,,,,,,,,2,,,62,0
45144,note_on,0,0,1,,,,,,,,,0,,,74,0
45144,note_on,0,0,3,,,,,,,,,2,,,55,0
45159,note_on,0,0,3,,,,,,,,,2,,,64,36
45159,note_on,15,0,3,,,,,,,,,2,,,60,36
45159,note_on,15,0,1,,,,,,,,,0,,,76,36
45159,note_on,0,0,1,,,,,,,,,0,,,88,36
45163,note_on,4,0,1,,,,,,,,,0,,,88,0
45163,note_on,0,0,1,,,,,,,,,0,,,76,0
45163,note_on,4,0,3,,,,,,,,,2,,,64,0
45163,note_on,0,0,3,,,,,,,,,2,,,60,0
45180,control_change,17,0,1,,,,,,,,,0,64,127,,
45180,note_on,0,0,1,,,,,,,,,0,,,76,36
45180,note_on,0,0,1,,,,,,,,,0,,,88,36
45180,control_change,17,0,3,,,,,,,,,2,64,127,,
45180,note_on,0,0,3,,,,,,,,,2,,,60,36
45180,note_on,0,0,3,,,,,,,,,2,,,64,36
45180,note_on,0,0,3,,,,,,,,,2,,,67,36
45200,note_on,20,0,3,,,,,,,,,2,,,67,0
45200,note_on,20,0,1,,,,,,,,,0,,,88,0
45200,note_on,0,0,3,,,,,,,,,2,,,64,0
45200,note_on,0,0,1,,,,,,,,,0,,,77,36
45200,note_on,0,0,1,,,,,,,,,0,,,76,0
45200,note_on,0,0,3,,,,,,,,,2,,,65,36
45200,note_on,0,0,3,,,,,,,,,2,,,67,36
45200,note_on,0,0,1,,,,,,,,,0,,,89,36
45200,note_on,0,0,3,,,,,,,,,2,,,60,0
45200,note_on,0,0,3,,,,,,,,,2,,,62,36
45219,note_on,0,0,3,,,,,,,,,2,,,67,36
45219,note_on,19,0,3,,,,,,,,,2,,,55,36
45219,note_on,0,0,3,,,,,,,,,2,,,62,36
45219,note_on,19,0,1,,,,,,,,,0,,,74,36
45219,note_on,0,0,1,,,,,,,,,0,,,86,36
45220,note_on,1,0,3,,,,,,,,,2,,,67,0
45220,note_on,0,0,3,,,,,,,,,2,,,62,0
45220,note_on,0,0,3,,,,,,,,,2,,,65,0
45220,note_on,1,0,1,,,,,,,,,0,,,89,0
45220,note_on,0,0,1,,,,,,,,,0,,,77,0
45223,note_on,0,0,3,,,,,,,,,2,,,67,0
45223,note_on,3,0,1,,,,,,,,,0,,,74,0
45223,note_on,3,0,3,,,,,,,,,2,,,55,0
45223,note_on,0,0,3,,,,,,,,,2,,,62,0
45223,note_on,0,0,1,,,,,,,,,0,,,86,0
45240,note_on,17,0,3,,,,,,,,,2,,,55,49
45240,note_on,0,0,3,,,,,,,,,2,,,62,49
45240,note_on,0,0,3,,,,,,,,,2,,,67,49
45240,note_on,17,0,1,,,,,,,,,0,,,74,62
45240,note_on,0,0,1,,,,,,,,,0,,,86,62
45244,note_on,0,0,3,,,,,,,,,2,,,55,0
45244,note_on,0,0,3,,,,,,,,,2,,,62,0
45244,note_on,4,0,3,,,,,,,,,2,,,67,0
45244,note_on,4,0,1,,,,,,,,,0,,,86,0
45244,note_on,0,0,1,,,,,,,,,0,,,74,0
45260,note_on,16,0,1,,,,,,,,,0,,,74,62
45260,note_on,0,0,1,,,,,,,,,0,,,86,62
45260,note_on,16,0,3,,,,,,,,,2,,,55,49
45260,note_on,0,0,3,,,,,,,,,2,,,62,49
45260,note_on,0,0,3,,,,,,,,,2,,,67,49
45264,note_on,0,0,1,,,,,,,,,0,,,74,0
45264,note_on,4,0,1,,,,,,,,,0,,,86,0
45264,note_on,0,0,3,,,,,,,,,2,,,55,0
45264,note_on,4,0,3,,,,,,,,,2,,,67,0
45264,note_on,0,0,3,,,,,,,,,2,,,62,0
45279,note_on,0,0,3,,,,,,,,,2,,,67,49
45279,note_on,15,0,3,,,,,,,,,2,,,55,49
45279,note_on,0,0,3,,,,,,,,,2,,,62,49
45279,note_on,15,0,1,,,,,,,,,0,,,74,62
45279,note_on,0,0,1,,,,,,,,,0,,,86,62
45283,note_on,0,0,3,,,,,,,,,2,,,55,0
45283,note_on,4,0,3,,,,,,,,,2,,,67,0
45283,note_on,0,0,1,,,,,,,,,0,,,74,0
45283,note_on,4,0,1,,,,,,,,,0,,,86,0
45283,note_on,0,0,3,,,,,,,,,2,,,62,0
45300,note_on,0,0,1,,,,,,,,,0,,,86,75
45300,control_change,17,0,3,,,,,,,,,2,64,0,,
45300,note_on,0,0,3,,,,,,,,,2,,,55,62
45300,note_on,0,0,3,,,,,,,,,2,,,62,62
45300,note_on,0,0,3,,,,,,,,,2,,,67,62
45300,control_change,17,0,1,,,,,,,,,0,64,0,,
45300,note_on,0,0,1,,,,,,,,,0,,,74,75
45304,note_on,4,0,3,,,,,,,,,2,,,67,0
45304,note_on,0,0,3,,,,,,,,,2,,,62,0
45304,note_on,0,0,3,,,,,,,,,2,,,55,0
45304,note_on,0,0,1,,,,,,,,,0,,,74,0
45304,note_on,4,0,1,,,,,,,,,0,,,86,0
45320,note_on,16,0,1,,,,,,,,,0,,,76,75
45320,note_on,0,0,1,,,,,,,,,0,,,88,75
45320,note_on,16,0,3,,,,,,,,,2,,,60,62
45320,note_on,0,0,3,,,,,,,,,2,,,64,62
45320,note_on,0,0,3,,,,,,,,,2,,,67,62
45324,note_on,0,0,3,,,,,,,,,2,,,60,0
45324,note_on,4,0,1,,,,,,,,,0,,,88,0
45324,note_on,0,0,1,,,,,,,,,0,,,76,0
45324,note_on,4,0,3,,,,,,,,,2,,,67,0
45324,note_on,0,0,3,,,,,,,,,2,,,64,0
45339,note_on,15,0,1,,,,,,,,,0,,,77,75
45339,note_on,0,0,1,,,,,,,,,0,,,89,75
45339,note_on,0,0,3,,,,,,,,,2,,,67,62
45339,note_on,0,0,3,,,,,,,,,2,,,65,62
45339,note_on,15,0,3,,,,,,,,,2,,,62,62
45343,note_on,0,0,3,,,,,,,,,2,,,65,0
45343,note_on,4,0,1,,,,,,,,,0,,,89,0
45343,note_on,0,0,3,,,,,,,,,2,,,62,0
45343,note_on,4,0,3,,,,,,,,,2,,,67,0
45343,note_on,0,0,1,,,,,,,,,0,,,77,0
45360,note_on,0,0,1,,,,,,,,,0,,,81,88
45360,note_on,0,0,1,,,,,,,,,0,,,93,88
45360,control_change,17,0,1,,,,,,,,,0,64,127,,
45360,control_change,17,0,3,,,,,,,,,2,64,127,,
45360,note_on,0,0,3,,,,,,,,,2,,,65,75
45360,note_on,0,0,3,,,,,,,,,2,,,69,75
45380,note_on,0,0,3,,,,,,,,,2,,,64,36
45380,note_on,0,0,3,,,,,,,,,2,,,65,0
45380,note_on,0,0,1,,,,,,,,,0,,,91,49
45380,note_on,0,0,1,,,,,,,,,0,,,79,49
45380,note_on,0,0,1,,,,,,,,,0,,,81,0
45380,note_on,20,0,3,,,,,,,,,2,,,69,0
45380,note_on,20,0,1,,,,,,,,,0,,,93,0
45380,note_on,0,0,3,,,,,,,,,2,,,67,36
45399,note_on,0,0,3,,,,,,,,,2,,,64,36
45399,note_on,19,0,3,,,,,,,,,2,,,60,36
45399,note_on,19,0,1,,,,,,,,,0,,,76,49
45399,note_on,0,0,1,,,,,,,,,0,,,88,49
45400,note_on,0,0,3,,,,,,,,,2,,,64,0
45400,note_on,1,0,3,,,,,,,,,2,,,67,0
45400,note_on,0,0,1,,,,,,,,,0,,,79,0
45400,note_on,1,0,1,,,,,,,,,0,,,91,0
45403,note_on,0,0,1,,,,,,,,,0,,,88,0
45403,note_on,0,0,3,,,,,,,,,2,,,64,0
45403,note_on,3,0,3,,,,,,,,,2,,,60,0
45403,note_on,3,0,1,,,,,,,,,0,,,76,0
45420,note_on,17,0,1,,,,,,,,,0,,,72,49
45420,note_on,0,0,1,,,,,,,,,0,,,84,49
45420,note_on,0,0,3,,,,,,,,,2,,,60,36
45420,note_on,17,0,3,,,,,,,,,2,,,52,36
45424,note_on,4,0,1,,,,,,,,,0,,,84,0
45424,note_on,0,0,1,,,,,,,,,0,,,72,0
45424,note_on,0,0,3,,,,,,,,,2,,,52,0
45424,note_on,4,0,3,,,,,,,,,2,,,60,0
45440,note_on,0,0,1,,,,,,,,,0,,,84,49
45440,note_on,0,0,3,,,,,,,,,2,,,60,36
45440,note_on,16,0,3,,,,,,,,,2,,,52,36
45440,note_on,16,0,1,,,,,,,,,0,,,72,49
45444,note_on,0,0,3,,,,,,,,,2,,,52,0
45444,note_on,4,0,3,,,,,,,,,2,,,60,0
45444,note_on,0,0,1,,,,,,,,,0,,,72,0
45444,note_on,4,0,1,,,,,,,,,0,,,84,0
45459,note_on,0,0,1,,,,,,,,,0,,,86,49
45459,note_on,15,0,1,,,,,,,,,0,,,74,49
45459,note_on,0,0,3,,,,,,,,,2,,,62,36
45459,note_on,15,0,3,,,,,,,,,2,,,55,36
45463,note_on,0,0,1,,,,,,,,,0,,,74,0
45463,note_on,4,0,1,,,,,,,,,0,,,86,0
45463,note_on,0,0,3,,,,,,,,,2,,,55,0
45463,note_on,4,0,3,,,,,,,,,2,,,62,0
45480,note_on,0,0,3,,,,,,,,,2,,,60,36
45480,note_on,0,0,1,,,,,,,,,0,,,88,49
45480,note_on,0,0,1,,,,,,,,,0,,,76,49
45480,control_change,17,0,1,,,,,,,,,0,64,0,,
45480,control_change,17,0,3,,,,,,,,,2,64,0,,
45480,note_on,0,0,3,,,,,,,,,2,,,64,36
45484,note_on,0,0,1,,,,,,,,,0,,,76,0
45484,note_on,0,0,3,,,,,,,,,2,,,60,0
45484,note_on,4,0,3,,,,,,,,,2,,,64,0
45484,note_on,4,0,1,,,,,,,,,0,,,88,0
45500,note_on,16,0,1,,,,,,,,,0,,,78,49
45500,note_on,0,0,3,,,,,,,,,2,,,66,36
45500,note_on,0,0,1,,,,,,,,,0,,,90,49
45500,note_on,16,0,3,,,,,,,,,2,,,62,36
45504,note_on,0,0,1,,,,,,,,,0,,,78,0
45504,note_on,0,0,3,,,,,,,,,2,,,62,0
45504,note_on,4,0,3,,,,,,,,,2,,,66,0
45504,note_on,4,0,1,,,,,,,,,0,,,90,0
45519,note_on,0,0,1,,,,,,,,,0,,,91,49
45519,note_on,15,0,1,,,,,,,,,0,,,79,49
45519,note_on,0,0,3,,,,,,,,,2,,,67,36
45519,note_on,15,0,3,,,,,,,,,2,,,64,36
45523,note_on,4,0,1,,,,,,,,,0,,,91,0
45523,note_on,0,0,1,,,,,,,,,0,,,79,0
45523,note_on,4,0,3,,,,,,,,,2,,,67,0
45523,note_on,0,0,3,,,,,,,,,2,,,64,0
45540,note_on,0,0,1,,,,,,,,,0,,,91,49
45540,note_on,0,0,1,,,,,,,,,0,,,79,49
45540,control_change,17,0,1,,,,,,,,,0,64,127,,
45540,note_on,0,0,3,,,,,,,,,2,,,61,36
45540,note_on,0,0,3,,,,,,,,,2,,,67,36
45540,control_change,17,0,3,,,,,,,,,2,64,127,,
45560,note_on,0,0,3,,,,,,,,,2,,,61,0
45560,note_on,0,0,1,,,,,,,,,0,,,78,49
45560,note_on,0,0,1,,,,,,,,,0,,,90,49
45560,note_on,20,0,3,,,,,,,,,2,,,67,0
45560,note_on,0,0,3,,,,,,,,,2,,,62,36
45560,note_on,0,0,3,,,,,,,,,2,,,66,36
45560,note_on,0,0,1,,,,,,,,,0,,,79,0
45560,note_on,20,0,1,,,,,,,,,0,,,91,0
45579,note_on,19,0,1,,,,,,,,,0,,,76,49
45579,note_on,0,0,1,,,,,,,,,0,,,88,49
45579,note_on,19,0,3,,,,,,,,,2,,,60,36
45579,note_on,0,0,3,,,,,,,,,2,,,64,36
45580,note_on,0,0,3,,,,,,,,,2,,,62,0
45580,note_on,1,0,1,,,,,,,,,0,,,90,0
45580,note_on,0,0,1,,,,,,,,,0,,,78,0
45580,note_on,1,0,3,,,,,,,,,2,,,66,0
45599,note_on,0,0,1,,,,,,,,,0,,,88,0
45599,note_on,19,0,1,,,,,,,,,0,,,76,0
45599,note_on,19,0,3,,,,,,,,,2,,,60,0
45599,note_on,0,0,3,,,,,,,,,2,,,64,0
45600,note_on,0,0,1,,,,,,,,,0,,,86,75
45600,note_on,0,0,3,,,,,,,,,2,,,62,36
45600,note_on,1,0,1,,,,,,,,,0,,,74,67
45600,note_on,1,0,3,,,,,,,,,2,,,59,36
45620,note_on,0,0,3,,,,,,,,,2,,,60,36
45620,note_on,0,0,3,,,,,,,,,2,,,57,36
45620,note_on,0,0,1,,,,,,,,,0,,,84,49
45620,note_on,0,0,1,,,,,,,,,0,,,74,0
45620,control_change,0,0,3,,,,,,,,,2,64,0,,
45620,note_on,0,0,3,,,,,,,,,2,,,59,0
45620,note_on,20,0,3,,,,,,,,,2,,,62,0
45620,note_on,20,0,1,,,,,,,,,0,,,86,0
45620,note_on,0,0,1,,,,,,,,,0,,,72,49
45620,control_change,0,0,1,,,,,,,,,0,64,0,,
45639,note_on,19,0,3,,,,,,,,,2,,,55,36
45639,note_on,0,0,3,,,,,,,,,2,,,59,36
45639,note_on,19,0,1,,,,,,,,,0,,,71,49
45639,note_on,0,0,1,,,,,,,,,0,,,83,49
45640,note_on,0,0,1,,,,,,,,,0,,,72,0
45640,note_on,0,0,3,,,,,,,,,2,,,57,0
45640,note_on,1,0,3,,,,,,,,,2,,,60,0
45640,note_on,1,0,1,,,,,,,,,0,,,84,0
45659,note_on,0,0,1,,,,,,,,,0,,,83,0
45659,note_on,0,0,3,,,,,,,,,2,,,59,0
45659,note_on,19,0,1,,,,,,,,,0,,,71,0
45659,note_on,19,0,3,,,,,,,,,2,,,55,0
45660,note_on,0,0,1,,,,,,,,,0,,,81,75
45660,note_on,1,0,1,,,,,,,,,0,,,69,67
45660,note_on,1,0,3,,,,,,,,,2,,,50,36
45660,note_on,0,0,3,,,,,,,,,2,,,57,36
45680,note_on,20,0,1,,,,,,,,,0,,,81,0
45680,note_on,0,0,1,,,,,,,,,0,,,71,49
45680,note_on,20,0,3,,,,,,,,,2,,,57,0
45680,note_on,0,0,3,,,,,,,,,2,,,50,0
45680,note_on,0,0,3,,,,,,,,,2,,,55,36
45680,note_on,0,0,3,,,,,,,,,2,,,59,36
45680,note_on,0,0,1,,,,,,,,,0,,,69,0
45680,note_on,0,0,1,,,,,,,,,0,,,83,49
45699,note_on,19,0,3,,,,,,,,,2,,,50,36
45699,note_on,0,0,3,,,,,,,,,2,,,57,36
45699,note_on,0,0,1,,,,,,,,,0,,,81,49
45699,note_on,19,0,1,,,,,,,,,0,,,69,49
45700,note_on,1,0,1,,,,,,,,,0,,,83,0
45700,note_on,0,0,3,,,,,,,,,2,,,55,0
45700,note_on,1,0,3,,,,,,,,,2,,,59,0
45700,note_on,0,0,1,,,,,,,,,0,,,71,0
45719,note_on,0,0,1,,,,,,,,,0,,,81,0
45719,note_on,0,0,3,,,,,,,,,2,,,57,0
45719,note_on,19,0,3,,,,,,,,,2,,,50,0
45719,note_on,19,0,1,,,,,,,,,0,,,69,0
45720,note_on,1,0,1,,,,,,,,,0,,,67,49
45720,note_on,0,0,1,,,,,,,,,0,,,79,49
45720,note_on,0,0,3,,,,,,,,,2,,,55,36
45720,note_on,1,0,3,,,,,,,,,2,,,43,36
45720,note_on,0,0,3,,,,,,,,,2,,,47,36
45740,note_on,20,0,1,,,,,,,,,0,,,79,0
45740,note_on,0,0,1,,,,,,,,,0,,,67,0
45740,note_on,0,0,1,,,,,,,,,0,,,67,49
45759,note_on,19,0,1,,,,,,,,,0,,,67,49
45760,note_on,1,0,1,,,,,,,,,0,,,67,0
45779,note_on,19,0,1,,,,,,,,,0,,,67,0
45780,note_on,0,0,3,,,,,,,,,2,,,47,0
45780,note_on,0,0,3,,,,,,,,,2,,,43,0
45780,note_on,60,0,3,,,,,,,,,2,,,55,0
45780,note_on,1,0,1,,,,,,,,,0,,,67,62
45800,note_on,0,0,1,,,,,,,,,0,,,67,62
45800,note_on,20,0,1,,,,,,,,,0,,,67,0
45819,note_on,19,0,1,,,,,,,,,0,,,67,62
45820,note_on,1,0,1,,,,,,,,,0,,,67,0
45839,note_on,19,0,1,,,,,,,,,0,,,67,0
45840,note_on,60,0,3,,,,,,,,,2,,,43,62
45840,note_on,0,0,3,,,,,,,,,2,,,55,62
45840,note_on,1,0,1,,,,,,,,,0,,,67,75
45860,note_on,20,0,1,,,,,,,,,0,,,67,0
45860,note_on,0,0,1,,,,,,,,,0,,,67,75
45860,note_on,0,0,3,,,,,,,,,2,,,50,62
45860,note_on,0,0,3,,,,,,,,,2,,,38,62
45860,note_on,0,0,3,,,,,,,,,2,,,43,0
45860,note_on,20,0,3,,,,,,,,,2,,,55,0
45879,note_on,0,0,3,,,,,,,,,2,,,47,62
45879,note_on,19,0,3,,,,,,,,,2,,,35,62
45879,note_on,19,0,1,,,,,,,,,0,,,67,75
45880,note_on,1,0,3,,,,,,,,,2,,,50,0
45880,note_on,1,0,1,,,,,,,,,0,,,67,0
45880,note_on,0,0,3,,,,,,,,,2,,,38,0
45899,note_on,19,0,3,,,,,,,,,2,,,35,0
45899,note_on,0,0,3,,,,,,,,,2,,,47,0
45899,note_on,19,0,1,,,,,,,,,0,,,67,0
45900,control_change,1,0,1,,,,,,,,,0,64,127,,
45900,note_on,0,0,1,,,,,,,,,0,,,59,88
45900,note_on,0,0,1,,,,,,,,,0,,,65,88
45900,note_on,0,0,3,,,,,,,,,2,,,45,75
45900,note_on,0,0,3,,,,,,,,,2,,,33,75
45900,control_change,1,0,3,,,,,,,,,2,64,127,,
45900,note_on,0,0,1,,,,,,,,,0,,,67,88
45920,note_on,0,0,1,,,,,,,,,0,,,59,88
45920,note_on,0,0,3,,,,,,,,,2,,,33,0
45920,note_on,0,0,3,,,,,,,,,2,,,31,75
45920,note_on,0,0,3,,,,,,,,,2,,,43,75
45920,note_on,20,0,3,,,,,,,,,2,,,45,0
45920,note_on,0,0,1,,,,,,,,,0,,,67,88
45920,note_on,0,0,1,,,,,,,,,0,,,65,88
45920,note_on,0,0,1,,,,,,,,,0,,,59,0
45920,note_on,0,0,1,,,,,,,,,0,,,65,0
45920,note_on,20,0,1,,,,,,,,,0,,,67,0
45939,note_on,0,0,1,,,,,,,,,0,,,65,88
45939,note_on,19,0,1,,,,,,,,,0,,,59,88
45939,note_on,0,0,1,,,,,,,,,0,,,67,88
45939,note_on,0,0,3,,,,,,,,,2,,,43,75
45939,note_on,19,0,3,,,,,,,,,2,,,31,75
45940,note_on,0,0,3,,,,,,,,,2,,,31,0
45940,note_on,1,0,1,,,,,,,,,0,,,67,0
45940,note_on,0,0,1,,,,,,,,,0,,,59,0
45940,note_on,0,0,1,,,,,,,,,0,,,65,0
45940,note_on,1,0,3,,,,,,,,,2,,,43,0
45959,note_on,19,0,3,,,,,,,,,2,,,31,0
45959,note_on,0,0,3,,,,,,,,,2,,,43,0
45959,note_on,0,0,1,,,,,,,,,0,,,65,0
45959,note_on,0,0,1,,,,,,,,,0,,,67,0
45959,note_on,19,0,1,,,,,,,,,0,,,59,0
45960,note_on,1,0,1,,,,,,,,,0,,,59,88
45960,note_on,0,0,1,,,,,,,,,0,,,65,88
45960,note_on,0,0,1,,,,,,,,,0,,,67,88
45960,note_on,0,0,3,,,,,,,,,2,,,43,75
45960,note_on,1,0,3,,,,,,,,,2,,,31,75
45980,note_on,20,0,1,,,,,,,,,0,,,67,0
45980,note_on,0,0,1,,,,,,,,,0,,,65,88
45980,note_on,0,0,1,,,,,,,,,0,,,65,0
45980,note_on,0,0,1,,,,,,,,,0,,,59,0
45980,note_on,0,0,1,,,,,,,,,0,,,67,88
45980,note_on,20,0,3,,,,,,,,,2,,,43,0
45980,note_on,0,0,3,,,,,,,,,2,,,31,0
45980,note_on,0,0,1,,,,,,,,,0,,,59,88
45980,note_on,0,0,3,,,,,,,,,2,,,43,75
45980,note_on,0,0,3,,,,,,,,,2,,,31,75
45999,note_on,19,0,1,,,,,,,,,0,,,59,88
45999,note_on,0,0,1,,,,,,,,,0,,,67,88
45999,note_on,19,0,3,,,,,,,,,2,,,33,75
45999,note_on,0,0,3,,,,,,,,,2,,,45,75
45999,note_on,0,0,1,,,,,,,,,0,,,65,88
46000,note_on,0,0,3,,,,,,,,,2,,,31,0
46000,note_on,0,0,1,,,,,,,,,0,,,65,0
46000,note_on,1,0,1,,,,,,,,,0,,,67,0
46000,note_on,0,0,1,,,,,,,,,0,,,59,0
46000,note_on,1,0,3,,,,,,,,,2,,,43,0
46019,note_on,0,0,1,,,,,,,,,0,,,67,0
46019,note_on,0,0,3,,,,,,,,,2,,,45,0
46019,note_on,19,0,3,,,,,,,,,2,,,33,0
46019,note_on,19,0,1,,,,,,,,,0,,,59,0
46019,note_on,0,0,1,,,,,,,,,0,,,65,0
46020,note_on,0,0,3,,,,,,,,,2,,,35,75
46020,note_on,0,0,3,,,,,,,,,2,,,47,75
46020,note_on,0,0,1,,,,,,,,,0,,,67,88
46020,note_on,0,0,1,,,,,,,,,0,,,65,88
46020,note_on,0,0,1,,,,,,,,,0,,,59,88
46020,control_change,1,0,1,,,,,,,,,0,64,0,,
46020,control_change,1,0,3,,,,,,,,,2,64,0,,
46040,note_on,0,0,3,,,,,,,,,2,,,36,75
46040,note_on,0,0,3,,,,,,,,,2,,,48,75
46040,note_on,0,0,1,,,,,,,,,0,,,59,0
46040,note_on,0,0,1,,,,,,,,,0,,,59,88
46040,note_on,0,0,1,,,,,,,,,0,,,65,88
46040,note_on,0,0,1,,,,,,,,,0,,,67,88
46040,note_on,20,0,3,,,,,,,,,2,,,47,0
46040,note_on,0,0,3,,,,,,,,,2,,,35,0
46040,note_on,20,0,1,,,,,,,,,0,,,67,0
46040,note_on,0,0,1,,,,,,,,,0,,,65,0
46059,note_on,0,0,1,,,,,,,,,0,,,67,88
46059,note_on,0,0,1,,,,,,,,,0,,,65,88
46059,note_on,19,0,3,,,,,,,,,2,,,38,75
46059,note_on,0,0,3,,,,,,,,,2,,,50,75
46059,note_on,19,0,1,,,,,,,,,0,,,59,88
46060,note_on,1,0,1,,,,,,,,,0,,,67,0
46060,note_on,0,0,1,,,,,,,,,0,,,59,0
46060,note_on,0,0,1,,,,,,,,,0,,,65,0
46060,note_on,1,0,3,,,,,,,,,2,,,48,0
46060,note_on,0,0,3,,,,,,,,,2,,,36,0
46079,note_on,19,0,1,,,,,,,,,0,,,59,0
46079,note_on,0,0,1,,,,,,,,,0,,,65,0
46079,note_on,0,0,1,,,,,,,,,0,,,67,0
46079,note_on,19,0,3,,,,,,,,,2,,,38,0
46079,note_on,0,0,3,,,,,,,,,2,,,50,0
46080,note_on,0,0,3,,,,,,,,,2,,,50,101
46080,note_on,0,0,3,,,,,,,,,2,,,38,93
46080,note_on,0,0,1,,,,,,,,,0,,,67,114
46080,note_on,0,0,1,,,,,,,,,0,,,59,104
46080,control_change,1,0,1,,,,,,,,,0,64,127,,
46080,control_change,1,0,3,,,,,,,,,2,64,127,,
46080,note_on,0,0,1,,,,,,,,,0,,,65,109
46100,note_on,0,0,1,,,,,,,,,0,,,63,88
46100,note_on,0,0,1,,,,,,,,,0,,,65,0
46100,note_on,0,0,1,,,,,,,,,0,,,59,0
46100,note_on,0,0,1,,,,,,,,,0,,,60,88
46100,note_on,0,0,1,,,,,,,,,0,,,67,88
46100,note_on,0,0,3,,,,,,,,,2,,,51,75
46100,note_on,0,0,3,,,,,,,,,2,,,39,75
46100,note_on,0,0,3,,,,,,,,,2,,,38,0
46100,note_on,20,0,3,,,,,,,,,2,,,50,0
46100,note_on,20,0,1,,,,,,,,,0,,,67,0
46119,note_on,19,0,3,,,,,,,,,2,,,39,75
46119,note_on,0,0,3,,,,,,,,,2,,,51,75
46119,note_on,0,0,1,,,,,,,,,0,,,67,88
46119,note_on,19,0,1,,,,,,,,,0,,,60,88
46119,note_on,0,0,1,,,,,,,,,0,,,63,88
46120,note_on,0,0,3,,,,,,,,,2,,,39,0
46120,note_on,1,0,3,,,,,,,,,2,,,51,0
46120,note_on,1,0,1,,,,,,,,,0,,,67,0
46120,note_on,0,0,1,,,,,,,,,0,,,63,0
46120,note_on,0,0,1,,,,,,,,,0,,,60,0
46123,note_on,3,0,3,,,,,,,,,2,,,39,0
46123,note_on,0,0,3,,,,,,,,,2,,,51,0
46123,note_on,3,0,1,,,,,,,,,0,,,60,0
46123,note_on,0,0,1,,,,,,,,,0,,,63,0
46123,note_on,0,0,1,,,,,,,,,0,,,67,0
46140,note_on,0,0,1,,,,,,,,,0,,,67,88
46140,note_on,0,0,3,,,,,,,,,2,,,51,75
46140,note_on,17,0,3,,,,,,,,,2,,,39,75
46140,note_on,0,0,1,,,,,,,,,0,,,63,88
46140,note_on,17,0,1,,,,,,,,,0,,,60,88
46160,note_on,0,0,1,,,,,,,,,0,,,63,0
46160,note_on,20,0,1,,,,,,,,,0,,,67,0
46160,note_on,0,0,3,,,,,,,,,2,,,51,75
46160,note_on,0,0,3,,,,,,,,,2,,,39,75
46160,note_on,0,0,3,,,,,,,,,2,,,39,0
46160,note_on,20,0,3,,,,,,,,,2,,,51,0
46160,note_on,0,0,1,,,,,,,,,0,,,67,88
46160,note_on,0,0,1,,,,,,,,,0,,,60,0
46179,note_on,0,0,1,,,,,,,,,0,,,67,88
46179,note_on,0,0,3,,,,,,,,,2,,,41,75
46179,note_on,0,0,3,,,,,,,,,2,,,53,75
46179,note_on,0,0,1,,,,,,,,,0,,,69,88
46179,control_change,19,0,1,,,,,,,,,0,64,0,,
46179,control_change,19,0,3,,,,,,,,,2,64,0,,
46180,note_on,0,0,3,,,,,,,,,2,,,39,0
46180,note_on,1,0,3,,,,,,,,,2,,,51,0
46180,note_on,1,0,1,,,,,,,,,0,,,67,0
46199,note_on,19,0,1,,,,,,,,,0,,,69,0
46199,note_on,0,0,1,,,,,,,,,0,,,67,0
46199,note_on,19,0,3,,,,,,,,,2,,,41,0
46199,note_on,0,0,3,,,,,,,,,2,,,53,0
46200,note_on,1,0,3,,,,,,,,,2,,,43,75
46200,note_on,0,0,3,,,,,,,,,2,,,55,75
46200,note_on,1,0,1,,,,,,,,,0,,,65,88
46200,note_on,0,0,1,,,,,,,,,0,,,67,88
46200,note_on,0,0,1,,,,,,,,,0,,,71,88
46220,note_on,0,0,1,,,,,,,,,0,,,72,88
46220,note_on,20,0,1,,,,,,,,,0,,,71,0
46220,note_on,0,0,1,,,,,,,,,0,,,65,0
46220,note_on,0,0,1,,,,,,,,,0,,,65,88
46220,note_on,0,0,3,,,,,,,,,2,,,57,75
46220,note_on,0,0,3,,,,,,,,,2,,,45,75
46220,note_on,0,0,3,,,,,,,,,2,,,43,0
46220,note_on,20,0,3,,,,,,,,,2,,,55,0
46220,note_on,0,0,1,,,,,,,,,0,,,67,0
46220,note_on,0,0,1,,,,,,,,,0,,,67,88
46239,note_on,19,0,1,,,,,,,,,0,,,65,88
46239,note_on,0,0,1,,,,,,,,,0,,,74,88
46239,note_on,0,0,3,,,,,,,,,2,,,59,75
46239,note_on,19,0,3,,,,,,,,,2,,,47,75
46239,note_on,0,0,1,,,,,,,,,0,,,67,88
46240,note_on,1,0,1,,,,,,,,,0,,,72,0
46240,note_on,0,0,1,,,,,,,,,0,,,67,0
46240,note_on,0,0,3,,,,,,,,,2,,,45,0
46240,note_on,1,0,3,,,,,,,,,2,,,57,0
46240,note_on,0,0,1,,,,,,,,,0,,,65,0
46259,note_on,19,0,1,,,,,,,,,0,,,65,0
46259,note_on,0,0,1,,,,,,,,,0,,,67,0
46259,note_on,0,0,3,,,,,,,,,2,,,59,0
46259,note_on,19,0,3,,,,,,,,,2,,,47,0
46259,note_on,0,0,1,,,,,,,,,0,,,74,0
46260,note_on,0,0,3,,,,,,,,,2,,,59,88
46260,note_on,0,0,3,,,,,,,,,2,,,47,88
46260,control_change,1,0,3,,,,,,,,,2,64,127,,
46260,control_change,1,0,1,,,,,,,,,0,64,127,,
46260,note_on,0,0,1,,,,,,,,,0,,,65,101
46260,note_on,0,0,1,,,,,,,,,0,,,67,101
46260,note_on,0,0,1,,,,,,,,,0,,,74,101
46280,note_on,0,0,3,,,,,,,,,2,,,47,0
46280,note_on,0,0,3,,,,,,,,,2,,,60,88
46280,note_on,0,0,3,,,,,,,,,2,,,48,88
46280,note_on,0,0,1,,,,,,,,,0,,,75,101
46280,note_on,0,0,1,,,,,,,,,0,,,67,101
46280,note_on,20,0,3,,,,,,,,,2,,,59,0
46280,note_on,0,0,1,,,,,,,,,0,,,65,0
46280,note_on,0,0,1,,,,,,,,,0,,,67,0
46280,note_on,20,0,1,,,,,,,,,0,,,74,0
46280,note_on,0,0,1,,,,,,,,,0,,,63,101
46299,note_on,0,0,1,,,,,,,,,0,,,67,101
46299,note_on,0,0,1,,,,,,,,,0,,,75,101
46299,note_on,0,0,3,,,,,,,,,2,,,60,88
46299,note_on,19,0,3,,,,,,,,,2,,,48,88
46299,note_on,19,0,1,,,,,,,,,0,,,63,101
46300,note_on,0,0,3,,,,,,,,,2,,,48,0
46300,note_on,1,0,3,,,,,,,,,2,,,60,0
46300,note_on,0,0,1,,,,,,,,,0,,,67,0
46300,note_on,0,0,1,,,,,,,,,0,,,63,0
46300,note_on,1,0,1,,,,,,,,,0,,,75,0
46303,note_on,0,0,1,,,,,,,,,0,,,75,0
46303,note_on,0,0,1,,,,,,,,,0,,,67,0
46303,note_on,3,0,1,,,,,,,,,0,,,63,0
46303,note_on,3,0,3,,,,,,,,,2,,,48,0
46303,note_on,0,0,3,,,,,,,,,2,,,60,0
46320,note_on,0,0,1,,,,,,,,,0,,,74,127
46320,note_on,0,0,1,,,,,,,,,0,,,67,122
46320,note_on,0,0,3,,,,,,,,,2,,,58,114
46320,control_change,17,0,1,,,,,,,,,0,64,0,,
46320,control_change,17,0,3,,,,,,,,,2,64,0,,
46320,note_on,0,0,1,,,,,,,,,0,,,63,117
46320,note_on,0,0,3,,,,,,,,,2,,,46,106
46340,note_on,0,0,1,,,,,,,,,0,,,72,101
46340,note_on,0,0,1,,,,,,,,,0,,,63,101
46340,note_on,0,0,1,,,,,,,,,0,,,63,0
46340,note_on,0,0,1,,,,,,,,,0,,,67,0
46340,note_on,20,0,1,,,,,,,,,0,,,74,0
46340,note_on,0,0,1,,,,,,,,,0,,,68,101
46340,note_on,0,0,3,,,,,,,,,2,,,44,88
46340,note_on,0,0,3,,,,,,,,,2,,,46,0
46340,note_on,0,0,3,,,,,,,,,2,,,56,88
46340,note_on,20,0,3,,,,,,,,,2,,,58,0
46359,note_on,19,0,1,,,,,,,,,0,,,63,101
46359,note_on,0,0,1,,,,,,,,,0,,,68,101
46359,note_on,19,0,3,,,,,,,,,2,,,44,88
46359,note_on,0,0,3,,,,,,,,,2,,,56,88
46359,note_on,0,0,1,,,,,,,,,0,,,72,101
46360,note_on,1,0,3,,,,,,,,,2,,,56,0
46360,note_on,0,0,3,,,,,,,,,2,,,44,0
46360,note_on,1,0,1,,,,,,,,,0,,,72,0
46360,note_on,0,0,1,,,,,,,,,0,,,63,0
46360,note_on,0,0,1,,,,,,,,,0,,,68,0
46363,note_on,0,0,3,,,,,,,,,2,,,56,0
46363,note_on,3,0,1,,,,,,,,,0,,,63,0
46363,note_on,0,0,1,,,,,,,,,0,,,68,0
46363,note_on,3,0,3,,,,,,,,,2,,,44,0
46363,note_on,0,0,1,,,,,,,,,0,,,72,0
46380,note_on,17,0,3,,,,,,,,,2,,,44,106
46380,note_on,0,0,1,,,,,,,,,0,,,68,122
46380,note_on,0,0,3,,,,,,,,,2,,,56,114
46380,note_on,0,0,1,,,,,,,,,0,,,72,127
46380,note_on,17,0,1,,,,,,,,,0,,,63,117
46400,note_on,0,0,3,,,,,,,,,2,,,50,88
46400,note_on,0,0,3,,,,,,,,,2,,,38,88
46400,note_on,0,0,3,,,,,,,,,2,,,44,0
46400,note_on,20,0,3,,,,,,,,,2,,,56,0
46400,note_on,20,0,1,,,,,,,,,0,,,72,0
46400,note_on,0,0,1,,,,,,,,,0,,,68,0
46400,note_on,0,0,1,,,,,,,,,0,,,63,0
46400,note_on,0,0,1,,,,,,,,,0,,,62,101
46400,note_on,0,0,1,,,,,,,,,0,,,66,101
46400,note_on,0,0,1,,,,,,,,,0,,,69,101
46400,note_on,0,0,1,,,,,,,,,0,,,72,101
46400,note_on,0,0,1,,,,,,,,,0,,,74,101
46419,note_on,0,0,1,,,,,,,,,0,,,72,101
46419,note_on,0,0,1,,,,,,,,,0,,,74,101
46419,note_on,0,0,3,,,,,,,,,2,,,50,88
46419,note_on,19,0,3,,,,,,,,,2,,,38,88
46419,note_on,0,0,1,,,,,,,,,0,,,66,101
46419,note_on,19,0,1,,,,,,,,,0,,,62,101
46419,note_on,0,0,1,,,,,,,,,0,,,69,101
46420,note_on,1,0,1,,,,,,,,,0,,,74,0
46420,note_on,0,0,1,,,,,,,,,0,,,72,0
46420,note_on,0,0,1,,,,,,,,,0,,,62,0
46420,note_on,0,0,1,,,,,,,,,0,,,69,0
46420,note_on,0,0,1,,,,,,,,,0,,,66,0
46420,note_on,0,0,3,,,,,,,,,2,,,38,0
46420,note_on,1,0,3,,,,,,,,,2,,,50,0
46423,note_on,3,0,3,,,,,,,,,2,,,38,0
46423,note_on,0,0,3,,,,,,,,,2,,,50,0
46423,note_on,0,0,1,,,,,,,,,0,,,72,0
46423,note_on,0,0,1,,,,,,,,,0,,,69,0
46423,note_on,0,0,1,,,,,,,,,0,,,66,0
46423,note_on,0,0,1,,,,,,,,,0,,,74,0
46423,note_on,3,0,1,,,,,,,,,0,,,62,0
46440,note_on,0,0,1,,,,,,,,,0,,,67,114
46440,note_on,0,0,1,,,,,,,,,0,,,72,114
46440,note_on,0,0,1,,,,,,,,,0,,,75,114
46440,note_on,0,0,1,,,,,,,,,0,,,79,114
46440,control_change,17,0,3,,,,,,,,,2,64,127,,
46440,note_on,0,0,3,,,,,,,,,2,,,31,101
46440,note_on,0,0,3,,,,,,,,,2,,,43,101
46440,control_change,17,0,1,,,,,,,,,0,64,127,,
46460,note_on,0,0,3,,,,,,,,,2,,,31,0
46460,note_on,20,0,3,,,,,,,,,2,,,43,0
46460,note_on,0,0,3,,,,,,,,,2,,,43,101
46460,note_on,0,0,1,,,,,,,,,0,,,72,0
46460,note_on,20,0,1,,,,,,,,,0,,,79,0
46460,note_on,0,0,1,,,,,,,,,0,,,67,0
46460,note_on,0,0,1,,,,,,,,,0,,,67,114
46460,note_on,0,0,1,,,,,,,,,0,,,75,0
46479,note_on,19,0,3,,,,,,,,,2,,,43,101
46479,note_on,19,0,1,,,,,,,,,0,,,67,114
46480,note_on,1,0,3,,,,,,,,,2,,,43,0
46480,note_on,1,0,1,,,,,,,,,0,,,67,0
46499,note_on,19,0,1,,,,,,,,,0,,,67,0
46499,note_on,19,0,3,,,,,,,,,2,,,43,0
46500,note_on,0,0,3,,,,,,,,,2,,,43,101
46500,note_on,1,0,3,,,,,,,,,2,,,31,101
46500,note_on,0,0,1,,,,,,,,,0,,,62,114
46500,note_on,0,0,1,,,,,,,,,0,,,59,114
46500,note_on,1,0,1,,,,,,,,,0,,,55,114
46500,note_on,0,0,1,,,,,,,,,0,,,67,114
46520,note_on,20,0,1,,,,,,,,,0,,,67,0
46520,note_on,0,0,1,,,,,,,,,0,,,59,0
46520,note_on,0,0,1,,,,,,,,,0,,,55,0
46520,note_on,0,0,1,,,,,,,,,0,,,62,0
46520,note_on,0,0,1,,,,,,,,,0,,,55,114
46520,control_change,0,0,1,,,,,,,,,0,64,0,,
46520,note_on,20,0,3,,,,,,,,,2,,,43,0
46520,note_on,0,0,3,,,,,,,,,2,,,31,0
46520,control_change,0,0,3,,,,,,,,,2,64,0,,
46520,note_on,0,0,3,,,,,,,,,2,,,43,101
46539,note_on,19,0,1,,,,,,,,,0,,,55,114
46539,note_on,19,0,3,,,,,,,,,2,,,43,101
46540,note_on,1,0,1,,,,,,,,,0,,,55,0
46540,note_on,1,0,3,,,,,,,,,2,,,43,0
46559,note_on,19,0,3,,,,,,,,,2,,,43,0
46559,note_on,19,0,1,,,,,,,,,0,,,55,0
46560,note_on,1,0,3,,,,,,,,,2,,,43,101
46560,note_on,1,0,1,,,,,,,,,0,,,55,114
46580,note_on,20,0,3,,,,,,,,,2,,,43,0
46580,note_on,0,0,3,,,,,,,,,2,,,38,101
46580,note_on,0,0,1,,,,,,,,,0,,,67,114
46580,note_on,0,0,1,,,,,,,,,0,,,55,114
46580,note_on,20,0,1,,,,,,,,,0,,,55,0
46599,note_on,0,0,1,,,,,,,,,0,,,67,114
46599,note_on,19,0,1,,,,,,,,,0,,,55,114
46599,note_on,19,0,3,,,,,,,,,2,,,35,101
46600,note_on,1,0,3,,,,,,,,,2,,,38,0
46600,note_on,1,0,1,,,,,,,,,0,,,67,0
46600,note_on,0,0,1,,,,,,,,,0,,,55,0
46619,note_on,0,0,1,,,,,,,,,0,,,67,0
46619,note_on,19,0,3,,,,,,,,,2,,,35,0
46619,note_on,19,0,1,,,,,,,,,0,,,55,0
46620,note_on,0,0,3,,,,,,,,,2,,,34,101
46620,note_on,0,0,1,,,,,,,,,0,,,67,114
46620,note_on,0,0,1,,,,,,,,,0,,,61,114
46620,control_change,1,0,3,,,,,,,,,2,64,127,,
46620,control_change,1,0,1,,,,,,,,,0,64,127,,
46620,note_on,0,0,3,,,,,,,,,2,,,46,101
46640,note_on,20,0,3,,,,,,,,,2,,,46,0
46640,note_on,0,0,3,,,,,,,,,2,,,45,101
46640,note_on,0,0,3,,,,,,,,,2,,,33,101
46640,note_on,0,0,3,,,,,,,,,2,,,34,0
46640,note_on,20,0,1,,,,,,,,,0,,,67,0
46640,note_on,0,0,1,,,,,,,,,0,,,61,114
46640,note_on,0,0,1,,,,,,,,,0,,,61,0
46640,note_on,0,0,1,,,,,,,,,0,,,69,114
46640,note_on,0,0,1,,,,,,,,,0,,,67,114
46644,note_on,4,0,3,,,,,,,,,2,,,45,0
46644,note_on,0,0,3,,,,,,,,,2,,,33,0
46659,note_on,15,0,3,,,,,,,,,2,,,33,101
46659,note_on,0,0,3,,,,,,,,,2,,,45,101
46659,note_on,0,0,1,,,,,,,,,0,,,67,114
46659,note_on,19,0,1,,,,,,,,,0,,,61,114
46659,note_on,0,0,1,,,,,,,,,0,,,69,114
46660,note_on,0,0,1,,,,,,,,,0,,,67,0
46660,note_on,1,0,1,,,,,,,,,0,,,69,0
46660,note_on,0,0,1,,,,,,,,,0,,,61,0
46663,note_on,0,0,3,,,,,,,,,2,,,33,0
46663,note_on,4,0,3,,,,,,,,,2,,,45,0
46679,note_on,19,0,1,,,,,,,,,0,,,61,0
46679,note_on,0,0,1,,,,,,,,,0,,,69,0
46679,note_on,0,0,1,,,,,,,,,0,,,67,0
46680,note_on,0,0,1,,,,,,,,,0,,,69,114
46680,note_on,0,0,1,,,,,,,,,0,,,67,114
46680,note_on,1,0,1,,,,,,,,,0,,,61,114
46680,note_on,0,0,3,,,,,,,,,2,,,45,101
46680,note_on,17,0,3,,,,,,,,,2,,,33,101
46700,note_on,0,0,3,,,,,,,,,2,,,33,0
46700,note_on,0,0,1,,,,,,,,,0,,,69,114
46700,note_on,0,0,1,,,,,,,,,0,,,67,114
46700,note_on,0,0,1,,,,,,,,,0,,,62,114
46700,note_on,0,0,1,,,,,,,,,0,,,61,0
46700,note_on,0,0,1,,,,,,,,,0,,,67,0
46700,note_on,20,0,1,,,,,,,,,0,,,69,0
46700,note_on,20,0,3,,,,,,,,,2,,,45,0
46700,note_on,0,0,3,,,,,,,,,2,,,35,101
46700,note_on,0,0,3,,,,,,,,,2,,,47,101
46719,note_on,0,0,1,,,,,,,,,0,,,64,114
46719,control_change,19,0,1,,,,,,,,,0,64,0,,
46719,note_on,0,0,3,,,,,,,,,2,,,37,101
46719,note_on,0,0,3,,,,,,,,,2,,,49,101
46719,note_on,0,0,1,,,,,,,,,0,,,69,114
46719,control_change,19,0,3,,,,,,,,,2,64,0,,
46719,note_on,0,0,1,,,,,,,,,0,,,67,114
46720,note_on,0,0,1,,,,,,,,,0,,,62,0
46720,note_on,0,0,1,,,,,,,,,0,,,67,0
46720,note_on,1,0,3,,,,,,,,,2,,,47,0
46720,note_on,1,0,1,,,,,,,,,0,,,69,0
46720,note_on,0,0,3,,,,,,,,,2,,,35,0
46739,note_on,0,0,1,,,,,,,,,0,,,69,0
46739,note_on,0,0,3,,,,,,,,,2,,,49,0
46739,note_on,0,0,1,,,,,,,,,0,,,67,0
46739,note_on,19,0,1,,,,,,,,,0,,,64,0
46739,note_on,19,0,3,,,,,,,,,2,,,37,0
46740,note_on,1,0,3,,,,,,,,,2,,,38,101
46740,note_on,0,0,3,,,,,,,,,2,,,50,101
46740,note_on,0,0,1,,,,,,,,,0,,,69,114
46740,note_on,1,0,1,,,,,,,,,0,,,65,114
46760,note_on,0,0,3,,,,,,,,,2,,,38,0
46760,note_on,0,0,3,,,,,,,,,2,,,52,101
46760,note_on,0,0,1,,,,,,,,,0,,,64,114
46760,note_on,0,0,1,,,,,,,,,0,,,65,114
46760,note_on,0,0,1,,,,,,,,,0,,,69,114
46760,note_on,0,0,1,,,,,,,,,0,,,65,0
46760,note_on,20,0,3,,,,,,,,,2,,,50,0
46760,note_on,0,0,3,,,,,,,,,2,,,40,101
46760,note_on,20,0,1,,,,,,,,,0,,,69,0
46779,note_on,19,0,3,,,,,,,,,2,,,41,101
46779,note_on,19,0,1,,,,,,,,,0,,,62,114
46779,note_on,0,0,1,,,,,,,,,0,,,65,114
46779,note_on,0,0,1,,,,,,,,,0,,,69,114
46779,note_on,0,0,3,,,,,,,,,2,,,53,101
46780,note_on,1,0,3,,,,,,,,,2,,,52,0
46780,note_on,0,0,3,,,,,,,,,2,,,40,0
46780,note_on,1,0,1,,,,,,,,,0,,,69,0
46780,note_on,0,0,1,,,,,,,,,0,,,64,0
46780,note_on,0,0,1,,,,,,,,,0,,,65,0
46799,note_on,0,0,3,,,,,,,,,2,,,53,0
46799,note_on,19,0,3,,,,,,,,,2,,,41,0
46799,note_on,0,0,1,,,,,,,,,0,,,65,0
46799,note_on,0,0,1,,,,,,,,,0,,,69,0
46799,note_on,19,0,1,,,,,,,,,0,,,62,0
46800,note_on,0,0,1,,,,,,,,,0,,,62,88
46800,note_on,0,0,1,,,,,,,,,0,,,65,88
46800,note_on,0,0,1,,,,,,,,,0,,,71,88
46800,control_change,1,0,3,,,,,,,,,2,64,127,,
46800,note_on,0,0,3,,,,,,,,,2,,,44,75
46800,control_change,1,0,1,,,,,,,,,0,64,127,,
46800,note_on,0,0,3,,,,,,,,,2,,,56,75
46820,note_on,0,0,1,,,,,,,,,0,,,62,88
46820,note_on,0,0,3,,,,,,,,,2,,,55,75
46820,note_on,0,0,3,,,,,,,,,2,,,43,75
46820,note_on,0,0,3,,,,,,,,,2,,,44,0
46820,note_on,20,0,3,,,,,,,,,2,,,56,0
46820,note_on,0,0,1,,,,,,,,,0,,,71,88
46820,note_on,0,0,1,,,,,,,,,0,,,65,88
46820,note_on,20,0,1,,,,,,,,,0,,,71,0
46820,note_on,0,0,1,,,,,,,,,0,,,62,0
46820,note_on,0,0,1,,,,,,,,,0,,,65,0
46839,note_on,19,0,1,,,,,,,,,0,,,62,88
46839,note_on,0,0,1,,,,,,,,,0,,,65,88
46839,note_on,0,0,1,,,,,,,,,0,,,71,88
46839,note_on,19,0,3,,,,,,,,,2,,,43,75
46839,note_on,0,0,3,,,,,,,,,2,,,55,75
46840,note_on,1,0,1,,,,,,,,,0,,,71,0
46840,note_on,0,0,1,,,,,,,,,0,,,65,0
46840,note_on,0,0,1,,,,,,,,,0,,,62,0
46840,note_on,0,0,3,,,,,,,,,2,,,43,0
46840,note_on,1,0,3,,,,,,,,,2,,,55,0
46859,note_on,0,0,1,,,,,,,,,0,,,65,0
46859,note_on,19,0,1,,,,,,,,,0,,,62,0
46859,note_on,0,0,1,,,,,,,,,0,,,71,0
46859,note_on,19,0,3,,,,,,,,,2,,,43,0
46859,note_on,0,0,3,,,,,,,,,2,,,55,0
46860,note_on,0,0,1,,,,,,,,,0,,,64,75
46860,note_on,0,0,1,,,,,,,,,0,,,72,75
46860,note_on,1,0,3,,,,,,,,,2,,,43,62
46860,note_on,0,0,3,,,,,,,,,2,,,55,62
46860,note_on,1,0,1,,,,,,,,,0,,,60,75
46864,note_on,0,0,1,,,,,,,,,0,,,60,0
46864,note_on,0,0,1,,,,,,,,,0,,,64,0
46864,note_on,4,0,1,,,,,,,,,0,,,72,0
46864,note_on,4,0,3,,,,,,,,,2,,,55,0
46864,note_on,0,0,3,,,,,,,,,2,,,43,0
46880,note_on,0,0,3,,,,,,,,,2,,,53,62
46880,note_on,16,0,3,,,,,,,,,2,,,41,62
46880,note_on,16,0,1,,,,,,,,,0,,,62,75
46880,note_on,0,0,1,,,,,,,,,0,,,65,75
46880,note_on,0,0,1,,,,,,,,,0,,,72,75
46884,note_on,0,0,3,,,,,,,,,2,,,41,0
46884,note_on,4,0,3,,,,,,,,,2,,,53,0
46884,note_on,4,0,1,,,,,,,,,0,,,72,0
46884,note_on,0,0,1,,,,,,,,,0,,,65,0
46884,note_on,0,0,1,,,,,,,,,0,,,62,0
46899,note_on,0,0,3,,,,,,,,,2,,,40,62
46899,note_on,0,0,1,,,,,,,,,0,,,64,75
46899,note_on,0,0,1,,,,,,,,,0,,,67,75
46899,note_on,0,0,1,,,,,,,,,0,,,72,75
46899,note_on,0,0,3,,,,,,,,,2,,,52,62
46899,control_change,15,0,3,,,,,,,,,2,64,0,,
46899,control_change,15,0,1,,,,,,,,,0,64,0,,
46903,note_on,4,0,1,,,,,,,,,0,,,72,0
46903,note_on,0,0,1,,,,,,,,,0,,,64,0
46903,note_on,4,0,3,,,,,,,,,2,,,52,0
46903,note_on,0,0,3,,,,,,,,,2,,,40,0
46903,note_on,0,0,1,,,,,,,,,0,,,67,0
46920,note_on,17,0,1,,,,,,,,,0,,,65,62
46920,note_on,0,0,1,,,,,,,,,0,,,67,62
46920,note_on,0,0,1,,,,,,,,,0,,,71,62
46920,note_on,17,0,3,,,,,,,,,2,,,38,49
46920,note_on,0,0,3,,,,,,,,,2,,,50,49
46924,note_on,0,0,1,,,,,,,,,0,,,67,0
46924,note_on,0,0,1,,,,,,,,,0,,,65,0
46924,note_on,4,0,3,,,,,,,,,2,,,50,0
46924,note_on,0,0,3,,,,,,,,,2,,,38,0
46924,note_on,4,0,1,,,,,,,,,0,,,71,0
46940,note_on,16,0,3,,,,,,,,,2,,,36,49
46940,note_on,0,0,3,,,,,,,,,2,,,48,49
46940,note_on,0,0,1,,,,,,,,,0,,,72,62
46940,note_on,16,0,1,,,,,,,,,0,,,65,62
46940,note_on,0,0,1,,,,,,,,,0,,,67,62
46944,note_on,4,0,1,,,,,,,,,0,,,72,0
46944,note_on,0,0,1,,,,,,,,,0,,,67,0
46944,note_on,0,0,1,,,,,,,,,0,,,65,0
46944,note_on,4,0,3,,,,,,,,,2,,,48,0
46944,note_on,0,0,3,,,,,,,,,2,,,36,0
46959,note_on,0,0,1,,,,,,,,,0,,,67,62
46959,note_on,0,0,1,,,,,,,,,0,,,74,62
46959,note_on,15,0,1,,,,,,,,,0,,,65,62
46959,note_on,0,0,3,,,,,,,,,2,,,47,49
46959,note_on,15,0,3,,,,,,,,,2,,,35,49
46963,note_on,4,0,3,,,,,,,,,2,,,47,0
46963,note_on,0,0,1,,,,,,,,,0,,,65,0
46963,note_on,0,0,1,,,,,,,,,0,,,67,0
46963,note_on,4,0,1,,,,,,,,,0,,,74,0
46963,note_on,0,0,3,,,,,,,,,2,,,35,0
46980,note_on,0,0,1,,,,,,,,,0,,,74,75
46980,control_change,17,0,1,,,,,,,,,0,64,127,,
46980,note_on,0,0,1,,,,,,,,,0,,,65,65
46980,note_on,0,0,1,,,,,,,,,0,,,67,70
46980,control_change,17,0,3,,,,,,,,,2,64,127,,
46980,note_on,0,0,3,,,,,,,,,2,,,47,62
46980,note_on,0,0,3,,,,,,,,,2,,,35,54
47000,note_on,0,0,3,,,,,,,,,2,,,48,36
47000,note_on,0,0,1,,,,,,,,,0,,,76,49
47000,note_on,0,0,3,,,,,,,,,2,,,36,36
47000,note_on,0,0,1,,,,,,,,,0,,,67,49
47000,note_on,0,0,1,,,,,,,,,0,,,64,49
47000,note_on,0,0,1,,,,,,,,,0,,,67,0
47000,note_on,20,0,1,,,,,,,,,0,,,74,0
47000,note_on,20,0,3,,,,,,,,,2,,,47,0
47000,note_on,0,0,3,,,,,,,,,2,,,35,0
47000,note_on,0,0,1,,,,,,,,,0,,,65,0
47019,note_on,0,0,3,,,,,,,,,2,,,48,36
47019,note_on,0,0,1,,,,,,,,,0,,,76,49
47019,note_on,0,0,1,,,,,,,,,0,,,67,49
47019,note_on,19,0,1,,,,,,,,,0,,,64,49
47019,note_on,19,0,3,,,,,,,,,2,,,36,36
47020,note_on,0,0,1,,,,,,,,,0,,,67,0
47020,note_on,1,0,1,,,,,,,,,0,,,76,0
47020,note_on,0,0,1,,,,,,,,,0,,,64,0
47020,note_on,1,0,3,,,,,,,,,2,,,48,0
47020,note_on,0,0,3,,,,,,,,,2,,,36,0
47023,note_on,0,0,3,,,,,,,,,2,,,48,0
47023,note_on,3,0,3,,,,,,,,,2,,,36,0
47023,note_on,3,0,1,,,,,,,,,0,,,64,0
47023,note_on,0,0,1,,,,,,,,,0,,,67,0
47023,note_on,0,0,1,,,,,,,,,0,,,76,0
47040,note_on,0,0,1,,,,,,,,,0,,,67,70
47040,note_on,17,0,3,,,,,,,,,2,,,36,54
47040,note_on,0,0,1,,,,,,,,,0,,,76,75
47040,note_on,0,0,3,,,,,,,,,2,,,48,62
47040,note_on,17,0,1,,,,,,,,,0,,,64,65
47060,note_on,0,0,3,,,,,,,,,2,,,57,36
47060,note_on,0,0,1,,,,,,,,,0,,,67,0
47060,note_on,0,0,1,,,,,,,,,0,,,64,0
47060,note_on,0,0,3,,,,,,,,,2,,,45,36
47060,note_on,0,0,1,,,,,,,,,0,,,66,49
47060,note_on,0,0,1,,,,,,,,,0,,,72,49
47060,control_change,0,0,1,,,,,,,,,0,64,0,,
47060,note_on,20,0,1,,,,,,,,,0,,,76,0
47060,note_on,20,0,3,,,,,,,,,2,,,48,0
47060,note_on,0,0,1,,,,,,,,,0,,,63,49
47060,control_change,0,0,3,,,,,,,,,2,64,0,,
47060,note_on,0,0,3,,,,,,,,,2,,,36,0
47079,note_on,19,0,3,,,,,,,,,2,,,45,36
47079,note_on,0,0,1,,,,,,,,,0,,,72,49
47079,note_on,0,0,1,,,,,,,,,0,,,66,49
47079,note_on,19,0,1,,,,,,,,,0,,,63,49
47079,note_on,0,0,3,,,,,,,,,2,,,57,36
47080,note_on,0,0,1,,,,,,,,,0,,,66,0
47080,note_on,0,0,1,,,,,,,,,0,,,63,0
47080,note_on,1,0,1,,,,,,,,,0,,,72,0
47080,note_on,1,0,3,,,,,,,,,2,,,57,0
47080,note_on,0,0,3,,,,,,,,,2,,,45,0
47083,note_on,0,0,1,,,,,,,,,0,,,72,0
47083,note_on,3,0,1,,,,,,,,,0,,,63,0
47083,note_on,3,0,3,,,,,,,,,2,,,45,0
47083,note_on,0,0,1,,,,,,,,,0,,,66,0
47083,note_on,0,0,3,,,,,,,,,2,,,57,0
47100,note_on,17,0,3,,,,,,,,,2,,,43,54
47100,note_on,0,0,3,,,,,,,,,2,,,57,62
47100,note_on,0,0,1,,,,,,,,,0,,,72,75
47100,note_on,0,0,1,,,,,,,,,0,,,66,70
47100,note_on,17,0,1,,,,,,,,,0,,,63,65
47120,note_on,0,0,1,,,,,,,,,0,,,74,49
47120,note_on,0,0,1,,,,,,,,,0,,,66,49
47120,note_on,0,0,1,,,,,,,,,0,,,63,0
47120,note_on,0,0,1,,,,,,,,,0,,,66,0
47120,note_on,20,0,1,,,,,,,,,0,,,72,0
47120,note_on,0,0,1,,,,,,,,,0,,,62,49
47120,note_on,0,0,3,,,,,,,,,2,,,43,0
47120,note_on,0,0,3,,,,,,,,,2,,,50,36
47120,note_on,0,0,3,,,,,,,,,2,,,38,36
47120,note_on,20,0,3,,,,,,,,,2,,,57,0
47139,note_on,0,0,1,,,,,,,,,0,,,74,49
47139,note_on,0,0,1,,,,,,,,,0,,,66,49
47139,note_on,19,0,1,,,,,,,,,0,,,60,49
47139,note_on,0,0,3,,,,,,,,,2,,,50,36
47139,note_on,19,0,3,,,,,,,,,2,,,38,36
47140,note_on,1,0,1,,,,,,,,,0,,,74,0
47140,note_on,1,0,3,,,,,,,,,2,,,50,0
47140,note_on,0,0,3,,,,,,,,,2,,,38,0
47140,note_on,0,0,1,,,,,,,,,0,,,62,0
47140,note_on,0,0,1,,,,,,,,,0,,,66,0
47143,note_on,0,0,1,,,,,,,,,0,,,74,0
47143,note_on,0,0,1,,,,,,,,,0,,,66,0
47143,note_on,3,0,1,,,,,,,,,0,,,60,0
47143,note_on,0,0,3,,,,,,,,,2,,,50,0
47143,note_on,3,0,3,,,,,,,,,2,,,38,0
47160,note_on,17,0,1,,,,,,,,,0,,,59,49
47160,note_on,0,0,1,,,,,,,,,0,,,67,49
47160,note_on,17,0,3,,,,,,,,,2,,,43,36
47180,note_on,20,0,1,,,,,,,,,0,,,67,0
47180,note_on,0,0,1,,,,,,,,,0,,,59,0
47180,note_on,0,0,1,,,,,,,,,0,,,67,36
47199,note_on,19,0,1,,,,,,,,,0,,,67,36
47200,note_on,1,0,1,,,,,,,,,0,,,67,0
47219,note_on,19,0,1,,,,,,,,,0,,,67,0
47220,note_on,1,0,1,,,,,,,,,0,,,67,36
47220,note_on,60,0,3,,,,,,,,,2,,,43,0
47240,note_on,0,0,1,,,,,,,,,0,,,67,36
47240,note_on,20,0,1,,,,,,,,,0,,,67,0
47259,note_on,19,0,1,,,,,,,,,0,,,67,36
47260,note_on,1,0,1,,,,,,,,,0,,,67,0
47279,note_on,19,0,1,,,,,,,,,0,,,67,0
47280,note_on,60,0,3,,,,,,,,,2,,,52,36
47280,note_on,1,0,1,,,,,,,,,0,,,67,36
47280,note_on,0,0,3,,,,,,,,,2,,,55,36
47284,note_on,0,0,3,,,,,,,,,2,,,52,0
47284,note_on,4,0,3,,,,,,,,,2,,,55,0
47284,note_on,4,0,1,,,,,,,,,0,,,67,0
47300,note_on,16,0,1,,,,,,,,,0,,,67,36
47300,note_on,0,0,1,,,,,,,,,0,,,72,36
47300,note_on,16,0,3,,,,,,,,,2,,,55,36
47300,note_on,0,0,3,,,,,,,,,2,,,60,36
47304,note_on,4,0,3,,,,,,,,,2,,,60,0
47304,note_on,0,0,1,,,,,,,,,0,,,67,0
47304,note_on,4,0,1,,,,,,,,,0,,,72,0
47304,note_on,0,0,3,,,,,,,,,2,,,55,0
47319,note_on,0,0,3,,,,,,,,,2,,,64,36
47319,note_on,15,0,1,,,,,,,,,0,,,67,36
47319,note_on,15,0,3,,,,,,,,,2,,,60,36
47319,note_on,0,0,1,,,,,,,,,0,,,76,36
47323,note_on,0,0,3,,,,,,,,,2,,,60,0
47323,note_on,4,0,3,,,,,,,,,2,,,64,0
47323,note_on,4,0,1,,,,,,,,,0,,,76,0
47323,note_on,0,0,1,,,,,,,,,0,,,67,0
47340,note_on,0,0,1,,,,,,,,,0,,,76,36
47340,note_on,0,0,1,,,,,,,,,0,,,67,36
47340,control_change,17,0,1,,,,,,,,,0,64,127,,
47340,control_change,17,0,3,,,,,,,,,2,64,127,,
47340,note_on,0,0,3,,,,,,,,,2,,,60,36
47340,note_on,0,0,3,,,,,,,,,2,,,64,36
47360,note_on,20,0,3,,,,,,,,,2,,,64,0
47360,note_on,0,0,3,,,,,,,,,2,,,60,0
47360,note_on,0,0,3,,,,,,,,,2,,,62,36
47360,note_on,0,0,3,,,,,,,,,2,,,65,36
47360,note_on,0,0,1,,,,,,,,,0,,,67,36
47360,note_on,20,0,1,,,,,,,,,0,,,76,0
47360,note_on,0,0,1,,,,,,,,,0,,,67,0
47360,note_on,0,0,1,,,,,,,,,0,,,77,36
47379,note_on,0,0,3,,,,,,,,,2,,,62,36
47379,note_on,19,0,3,,,,,,,,,2,,,55,36
47379,note_on,19,0,1,,,,,,,,,0,,,67,36
47379,note_on,0,0,1,,,,,,,,,0,,,74,36
47380,note_on,0,0,3,,,,,,,,,2,,,62,0
47380,note_on,1,0,3,,,,,,,,,2,,,65,0
47380,note_on,1,0,1,,,,,,,,,0,,,77,0
47380,note_on,0,0,1,,,,,,,,,0,,,67,0
47383,note_on,3,0,3,,,,,,,,,2,,,55,0
47383,note_on,0,0,1,,,,,,,,,0,,,74,0
47383,note_on,3,0,1,,,,,,,,,0,,,67,0
47383,note_on,0,0,3,,,,,,,,,2,,,62,0
47400,note_on,0,0,1,,,,,,,,,0,,,74,36
47400,note_on,17,0,3,,,,,,,,,2,,,55,36
47400,note_on,17,0,1,,,,,,,,,0,,,67,36
47400,note_on,0,0,3,,,,,,,,,2,,,62,36
47404,note_on,0,0,3,,,,,,,,,2,,,55,0
47404,note_on,4,0,3,,,,,,,,,2,,,62,0
47404,note_on,4,0,1,,,,,,,,,0,,,74,0
47404,note_on,0,0,1,,,,,,,,,0,,,67,0
47420,note_on,0,0,3,,,,,,,,,2,,,62,36
47420,note_on,16,0,3,,,,,,,,,2,,,55,36
47420,note_on,16,0,1,,,,,,,,,0,,,67,36
47420,note_on,0,0,1,,,,,,,,,0,,,74,36
47424,note_on,0,0,3,,,,,,,,,2,,,55,0
47424,note_on,4,0,1,,,,,,,,,0,,,74,0
47424,note_on,0,0,1,,,,,,,,,0,,,67,0
47424,note_on,4,0,3,,,,,,,,,2,,,62,0
47439,note_on,0,0,1,,,,,,,,,0,,,67,36
47439,note_on,0,0,1,,,,,,,,,0,,,74,36
47439,control_change,15,0,1,,,,,,,,,0,64,0,,
47439,control_change,15,0,3,,,,,,,,,2,64,0,,
47439,note_on,0,0,3,,,,,,,,,2,,,62,36
47439,note_on,0,0,3,,,,,,,,,2,,,55,36
47443,note_on,0,0,3,,,,,,,,,2,,,55,0
47443,note_on,4,0,1,,,,,,,,,0,,,74,0
47443,note_on,0,0,1,,,,,,,,,0,,,67,0
47443,note_on,4,0,3,,,,,,,,,2,,,62,0
47460,note_on,5070,0,2,,,,,,,,,1,,,67,49
47460,note_on,0,0,3,,,,,,,,,2,,,65,36
47460,note_on,17,0,3,,,,,,,,,2,,,62,36
47460,note_on,17,0,1,,,,,,,,,0,,,76,36
47469,note_on,9,0,1,,,,,,,,,0,,,77,36
47470,note_on,1,0,1,,,,,,,,,0,,,76,0
47479,note_on,9,0,1,,,,,,,,,0,,,77,0
47480,note_on,20,0,2,,,,,,,,,1,,,67,0
47480,note_on,20,0,3,,,,,,,,,2,,,65,0
47480,note_on,0,0,3,,,,,,,,,2,,,62,0
47480,note_on,0,0,3,,,,,,,,,2,,,60,36
47480,note_on,0,0,3,,,,,,,,,2,,,64,36
47480,note_on,1,0,1,,,,,,,,,0,,,77,36
47480,note_on,0,0,2,,,,,,,,,1,,,67,49
47490,note_on,10,0,1,,,,,,,,,0,,,77,0
47490,note_on,0,0,1,,,,,,,,,0,,,76,36
47499,note_on,9,0,1,,,,,,,,,0,,,76,36
47499,note_on,19,0,2,,,,,,,,,1,,,67,49
47499,note_on,19,0,3,,,,,,,,,2,,,55,36
47499,note_on,0,0,3,,,,,,,,,2,,,62,36
47500,note_on,1,0,1,,,,,,,,,0,,,76,0
47500,note_on,0,0,3,,,,,,,,,2,,,60,0
47500,note_on,1,0,2,,,,,,,,,1,,,67,0
47500,note_on,1,0,3,,,,,,,,,2,,,64,0
47509,note_on,9,0,1,,,,,,,,,0,,,76,0
47510,note_on,1,0,1,,,,,,,,,0,,,74,36
47519,note_on,19,0,2,,,,,,,,,1,,,67,0
47519,note_on,0,0,3,,,,,,,,,2,,,62,0
47519,note_on,19,0,3,,,,,,,,,2,,,55,0
47520,control_change,1,0,3,,,,,,,,,2,64,127,,
47520,note_on,0,0,1,,,,,,,,,0,,,67,36
47520,control_change,0,0,1,,,,,,,,,0,64,127,,
47520,note_on,0,0,3,,,,,,,,,2,,,55,36
47520,note_on,0,0,1,,,,,,,,,0,,,74,36
47520,note_on,10,0,1,,,,,,,,,0,,,74,0
47520,note_on,0,0,3,,,,,,,,,2,,,62,36
47540,note_on,0,0,3,,,,,,,,,2,,,64,36
47540,note_on,0,0,3,,,,,,,,,2,,,55,0
47540,note_on,0,0,3,,,,,,,,,2,,,60,36
47540,note_on,0,0,1,,,,,,,,,0,,,76,36
47540,note_on,20,0,1,,,,,,,,,0,,,74,0
47540,note_on,0,0,1,,,,,,,,,0,,,67,0
47540,note_on,0,0,1,,,,,,,,,0,,,67,36
47540,note_on,20,0,3,,,,,,,,,2,,,62,0
47559,note_on,19,0,3,,,,,,,,,2,,,52,36
47559,note_on,0,0,3,,,,,,,,,2,,,60,36
47559,note_on,0,0,1,,,,,,,,,0,,,72,36
47559,note_on,19,0,1,,,,,,,,,0,,,67,36
47560,note_on,1,0,3,,,,,,,,,2,,,64,0
47560,note_on,0,0,3,,,,,,,,,2,,,60,0
47560,note_on,0,0,1,,,,,,,,,0,,,67,0
47560,note_on,1,0,1,,,,,,,,,0,,,76,0
47563,note_on,0,0,3,,,,,,,,,2,,,60,0
47563,note_on,0,0,1,,,,,,,,,0,,,72,0
47563,note_on,3,0,1,,,,,,,,,0,,,67,0
47563,note_on,3,0,3,,,,,,,,,2,,,52,0
47580,note_on,17,0,3,,,,,,,,,2,,,52,36
47580,note_on,0,0,3,,,,,,,,,2,,,60,36
47580,note_on,17,0,1,,,,,,,,,0,,,72,36
47580,note_on,0,0,2,,,,,,,,,1,,,67,49
47580,control_change,61,0,2,,,,,,,,,1,64,127,,
47584,note_on,4,0,3,,,,,,,,,2,,,60,0
47584,note_on,0,0,3,,,,,,,,,2,,,52,0
47584,note_on,4,0,2,,,,,,,,,1,,,67,0
47584,note_on,4,0,1,,,,,,,,,0,,,72,0
47600,note_on,16,0,3,,,,,,,,,2,,,52,36
47600,note_on,0,0,3,,,,,,,,,2,,,60,36
47600,note_on,16,0,1,,,,,,,,,0,,,72,36
47600,note_on,16,0,2,,,,,,,,,1,,,67,49
47604,note_on,0,0,3,,,,,,,,,2,,,52,0
47604,note_on,4,0,3,,,,,,,,,2,,,60,0
47604,note_on,4,0,1,,,,,,,,,0,,,72,0
47604,note_on,4,0,2,,,,,,,,,1,,,67,0
47619,note_on,0,0,3,,,,,,,,,2,,,55,36
47619,note_on,0,0,2,,,,,,,,,1,,,67,49
47619,note_on,15,0,1,,,,,,,,,0,,,72,36
47619,control_change,15,0,3,,,,,,,,,2,64,0,,
47619,control_change,15,0,2,,,,,,,,,1,64,0,,
47619,note_on,0,0,3,,,,,,,,,2,,,62,36
47623,note_on,4,0,3,,,,,,,,,2,,,62,0
47623,note_on,0,0,3,,,,,,,,,2,,,55,0
47623,note_on,4,0,2,,,,,,,,,1,,,67,0
47629,note_on,10,0,1,,,,,,,,,0,,,72,0
47630,control_change,1,0,1,,,,,,,,,0,64,0,,
47630,note_on,0,0,1,,,,,,,,,0,,,74,36
47640,note_on,0,0,3,,,,,,,,,2,,,67,36
47640,note_on,0,0,3,,,,,,,,,2,,,63,36
47640,note_on,17,0,3,,,,,,,,,2,,,60,36
47640,note_on,10,0,1,,,,,,,,,0,,,74,0
47640,note_on,0,0,1,,,,,,,,,0,,,74,36
47644,note_on,0,0,3,,,,,,,,,2,,,63,0
47644,note_on,0,0,3,,,,,,,,,2,,,60,0
47644,note_on,4,0,3,,,,,,,,,2,,,67,0
47649,note_on,9,0,1,,,,,,,,,0,,,75,36
47650,note_on,1,0,1,,,,,,,,,0,,,74,0
47659,note_on,9,0,1,,,,,,,,,0,,,75,0
47660,note_on,0,0,3,,,,,,,,,2,,,67,36
47660,note_on,1,0,1,,,,,,,,,0,,,75,36
47660,note_on,16,0,3,,,,,,,,,2,,,62,36
47660,note_on,0,0,3,,,,,,,,,2,,,65,36
47664,note_on,0,0,3,,,,,,,,,2,,,62,0
47664,note_on,0,0,3,,,,,,,,,2,,,65,0
47664,note_on,4,0,3,,,,,,,,,2,,,67,0
47670,note_on,0,0,1,,,,,,,,,0,,,77,36
47670,note_on,10,0,1,,,,,,,,,0,,,75,0
47679,note_on,15,0,3,,,,,,,,,2,,,63,36
47679,note_on,0,0,3,,,,,,,,,2,,,67,36
47679,note_on,9,0,1,,,,,,,,,0,,,77,36
47680,note_on,1,0,1,,,,,,,,,0,,,77,0
47683,note_on,4,0,3,,,,,,,,,2,,,67,0
47683,note_on,0,0,3,,,,,,,,,2,,,63,0
47689,note_on,9,0,1,,,,,,,,,0,,,77,0
47690,note_on,1,0,1,,,,,,,,,0,,,79,36
47700,note_on,10,0,1,,,,,,,,,0,,,79,0
47700,control_change,0,0,1,,,,,,,,,0,64,127,,
47700,note_on,0,0,1,,,,,,,,,0,,,67,36
47700,note_on,0,0,1,,,,,,,,,0,,,79,36
47700,control_change,17,0,3,,,,,,,,,2,64,127,,
47700,note_on,0,0,3,,,,,,,,,2,,,63,36
47720,note_on,20,0,3,,,,,,,,,2,,,63,0
47720,note_on,0,0,3,,,,,,,,,2,,,65,36
47720,note_on,0,0,1,,,,,,,,,0,,,80,36
47720,note_on,0,0,1,,,,,,,,,0,,,68,36
47720,note_on,0,0,1,,,,,,,,,0,,,67,0
47720,note_on,20,0,1,,,,,,,,,0,,,79,0
47739,note_on,0,0,3,,,,,,,,,2,,,65,36
47739,note_on,19,0,1,,,,,,,,,0,,,68,36
47739,note_on,19,0,3,,,,,,,,,2,,,56,36
47739,note_on,0,0,1,,,,,,,,,0,,,77,36
47740,note_on,0,0,1,,,,,,,,,0,,,68,0
47740,note_on,1,0,1,,,,,,,,,0,,,80,0
47740,note_on,1,0,3,,,,,,,,,2,,,65,0
47759,note_on,19,0,1,,,,,,,,,0,,,68,0
47759,note_on,0,0,3,,,,,,,,,2,,,56,0
47759,note_on,19,0,3,,,,,,,,,2,,,65,0
47759,note_on,0,0,1,,,,,,,,,0,,,77,0
47760,set_tempo,4920,1,0,,,,,,1363636,,,,,,,
47760,note_on,0,0,3,,,,,,,,,2,,,65,36
47760,note_on,1,0,3,,,,,,,,,2,,,56,36
47760,note_on,0,0,1,,,,,,,,,0,,,73,36
47760,note_on,1,0,1,,,,,,,,,0,,,68,36
47780,note_on,20,0,1,,,,,,,,,0,,,73,0
47780,note_on,0,0,1,,,,,,,,,0,,,68,0
47780,note_on,0,0,1,,,,,,,,,0,,,68,36
47780,note_on,20,0,3,,,,,,,,,2,,,65,0
47780,note_on,0,0,3,,,,,,,,,2,,,56,0
47780,note_on,0,0,3,,,,,,,,,2,,,56,36
47780,note_on,0,0,3,,,,,,,,,2,,,65,36
47780,note_on,0,0,1,,,,,,,,,0,,,73,36
47799,control_change,19,0,3,,,,,,,,,2,64,0,,
47799,note_on,0,0,3,,,,,,,,,2,,,56,36
47799,note_on,0,0,3,,,,,,,,,2,,,65,36
47799,note_on,0,0,1,,,,,,,,,0,,,73,36
47799,note_on,0,0,1,,,,,,,,,0,,,68,36
47799,control_change,19,0,1,,,,,,,,,0,64,0,,
47800,note_on,1,0,1,,,,,,,,,0,,,73,0
47800,note_on,0,0,1,,,,,,,,,0,,,68,0
47800,note_on,0,0,3,,,,,,,,,2,,,56,0
47800,note_on,1,0,3,,,,,,,,,2,,,65,0
47819,note_on,0,0,3,,,,,,,,,2,,,65,0
47819,note_on,19,0,3,,,,,,,,,2,,,56,0
47819,note_on,19,0,1,,,,,,,,,0,,,68,0
47819,note_on,0,0,1,,,,,,,,,0,,,73,0
47820,note_on,0,0,1,,,,,,,,,0,,,73,36
47820,set_tempo,60,1,0,,,,,,1500000,,,,,,,
47820,note_on,0,0,3,,,,,,,,,2,,,65,36
47820,note_on,1,0,3,,,,,,,,,2,,,56,36
47820,note_on,1,0,1,,,,,,,,,0,,,68,36
47824,note_on,4,0,1,,,,,,,,,0,,,73,0
47824,note_on,0,0,1,,,,,,,,,0,,,68,0
47840,note_on,0,0,1,,,,,,,,,0,,,77,36
47840,note_on,0,0,3,,,,,,,,,2,,,65,36
47840,note_on,0,0,3,,,,,,,,,2,,,56,36
47840,note_on,0,0,3,,,,,,,,,2,,,56,0
47840,note_on,20,0,3,,,,,,,,,2,,,65,0
47840,note_on,16,0,1,,,,,,,,,0,,,68,36
47844,note_on,4,0,1,,,,,,,,,0,,,77,0
47844,note_on,0,0,1,,,,,,,,,0,,,68,0
47859,note_on,0,0,1,,,,,,,,,0,,,75,36
47859,note_on,0,0,3,,,,,,,,,2,,,66,36
47859,note_on,19,0,3,,,,,,,,,2,,,56,36
47859,note_on,15,0,1,,,,,,,,,0,,,72,36
47860,note_on,0,0,3,,,,,,,,,2,,,56,0
47860,note_on,1,0,3,,,,,,,,,2,,,65,0
47863,note_on,4,0,1,,,,,,,,,0,,,75,0
47863,note_on,0,0,1,,,,,,,,,0,,,72,0
47879,note_on,19,0,3,,,,,,,,,2,,,56,0
47879,note_on,0,0,3,,,,,,,,,2,,,66,0
47880,set_tempo,0,1,0,,,,,,1363636,,,,,,,
47880,time_signature,60,1,0,2,8,12,8,,,,,,,,,
47880,note_on,0,0,3,,,,,,,,,2,,,66,36
47880,note_on,0,0,3,,,,,,,,,2,,,56,36
47880,control_change,1,0,3,,,,,,,,,2,64,127,,
47880,control_change,17,0,1,,,,,,,,,0,64,127,,
47880,note_on,0,0,1,,,,,,,,,0,,,68,36
47880,note_on,0,0,1,,,,,,,,,0,,,72,36
47880,note_on,0,0,1,,,,,,,,,0,,,75,36
47900,note_on,20,0,3,,,,,,,,,2,,,66,0
47900,note_on,0,0,1,,,,,,,,,0,,,73,36
47900,note_on,0,0,1,,,,,,,,,0,,,68,36
47900,note_on,0,0,1,,,,,,,,,0,,,68,0
47900,note_on,0,0,1,,,,,,,,,0,,,72,0
47900,note_on,0,0,3,,,,,,,,,2,,,56,0
47900,note_on,20,0,1,,,,,,,,,0,,,75,0
47900,note_on,0,0,3,,,,,,,,,2,,,61,36
47900,note_on,0,0,3,,,,,,,,,2,,,65,36
47919,note_on,0,0,3,,,,,,,,,2,,,65,36
47919,note_on,19,0,1,,,,,,,,,0,,,68,36
47919,note_on,19,0,3,,,,,,,,,2,,,61,36
47919,note_on,0,0,1,,,,,,,,,0,,,73,36
47920,note_on,1,0,3,,,,,,,,,2,,,65,0
47920,note_on,0,0,3,,,,,,,,,2,,,61,0
47920,note_on,1,0,1,,,,,,,,,0,,,73,0
47920,note_on,0,0,1,,,,,,,,,0,,,68,0
47939,note_on,19,0,1,,,,,,,,,0,,,68,0
47939,note_on,0,0,1,,,,,,,,,0,,,73,0
47939,note_on,0,0,3,,,,,,,,,2,,,65,0
47939,note_on,19,0,3,,,,,,,,,2,,,61,0
47940,set_tempo,60,1,0,,,,,,1500000,,,,,,,
47940,note_on,1,0,1,,,,,,,,,0,,,68,36
47940,note_on,0,0,1,,,,,,,,,0,,,73,36
47940,note_on,0,0,3,,,,,,,,,2,,,65,36
47940,note_on,1,0,3,,,,,,,,,2,,,61,36
47960,note_on,20,0,3,,,,,,,,,2,,,65,0
47960,note_on,20,0,1,,,,,,,,,0,,,73,0
47960,note_on,0,0,1,,,,,,,,,0,,,68,36
47960,note_on,0,0,1,,,,,,,,,0,,,68,0
47960,note_on,0,0,3,,,,,,,,,2,,,61,36
47960,note_on,0,0,1,,,,,,,,,0,,,73,36
47960,note_on,0,0,3,,,,,,,,,2,,,65,36
47960,note_on,0,0,3,,,,,,,,,2,,,61,0
47979,control_change,19,0,1,,,,,,,,,0,64,0,,
47979,note_on,0,0,1,,,,,,,,,0,,,73,36
47979,note_on,0,0,1,,,,,,,,,0,,,68,36
47979,control_change,19,0,3,,,,,,,,,2,64,0,,
47979,note_on,0,0,3,,,,,,,,,2,,,61,36
47979,note_on,0,0,3,,,,,,,,,2,,,65,36
47980,note_on,0,0,1,,,,,,,,,0,,,68,0
47980,note_on,1,0,1,,,,,,,,,0,,,73,0
47980,note_on,1,0,3,,,,,,,,,2,,,65,0
47980,note_on,0,0,3,,,,,,,,,2,,,61,0
47999,note_on,0,0,1,,,,,,,,,0,,,73,0
47999,note_on,19,0,1,,,,,,,,,0,,,68,0
47999,note_on,0,0,3,,,,,,,,,2,,,65,0
47999,note_on,19,0,3,,,,,,,,,2,,,61,0
48000,note_on,1,0,3,,,,,,,,,2,,,60,36
48000,note_on,0,0,3,,,,,,,,,2,,,65,36
48000,note_on,1,0,1,,,,,,,,,0,,,68,36
48000,note_on,0,0,1,,,,,,,,,0,,,77,36
48000,set_tempo,0,1,0,,,,,,1363636,,,,,,,
48000,time_signature,60,1,0,1,8,12,8,,,,,,,,,
48004,note_on,0,0,3,,,,,,,,,2,,,60,0
48004,note_on,4,0,3,,,,,,,,,2,,,65,0
48004,note_on,0,0,1,,,,,,,,,0,,,68,0
48004,note_on,4,0,1,,,,,,,,,0,,,77,0
48020,note_on,16,0,1,,,,,,,,,0,,,68,36
48020,note_on,0,0,3,,,,,,,,,2,,,65,36
48020,note_on,16,0,3,,,,,,,,,2,,,60,36
48020,note_on,0,0,1,,,,,,,,,0,,,79,36
48024,note_on,4,0,3,,,,,,,,,2,,,65,0
48024,note_on,0,0,3,,,,,,,,,2,,,60,0
48024,note_on,0,0,1,,,,,,,,,0,,,68,0
48024,note_on,4,0,1,,,,,,,,,0,,,79,0
48039,note_on,15,0,3,,,,,,,,,2,,,60,36
48039,note_on,0,0,1,,,,,,,,,0,,,80,36
48039,note_on,0,0,3,,,,,,,,,2,,,65,36
48039,note_on,15,0,1,,,,,,,,,0,,,68,36
48043,note_on,4,0,1,,,,,,,,,0,,,80,0
48043,note_on,0,0,3,,,,,,,,,2,,,60,0
48043,note_on,0,0,1,,,,,,,,,0,,,68,0
48043,note_on,4,0,3,,,,,,,,,2,,,65,0
48060,control_change,17,0,1,,,,,,,,,0,64,127,,
48060,note_on,0,0,3,,,,,,,,,2,,,60,36
48060,note_on,0,0,3,,,,,,,,,2,,,65,36
48060,time_signature,60,1,0,3,8,12,8,,,,,,,,,
48060,note_on,0,0,1,,,,,,,,,0,,,80,36
48060,note_on,0,0,1,,,,,,,,,0,,,68,36
48060,control_change,17,0,3,,,,,,,,,2,64,127,,
48060,set_tempo,0,1,0,,,,,,1363636,,,,,,,
48080,note_on,20,0,3,,,,,,,,,2,,,65,0
48080,note_on,0,0,1,,,,,,,,,0,,,68,0
48080,note_on,0,0,1,,,,,,,,,0,,,67,36
48080,note_on,0,0,1,,,,,,,,,0,,,79,36
48080,note_on,20,0,1,,,,,,,,,0,,,80,0
48080,note_on,0,0,3,,,,,,,,,2,,,65,36
48080,note_on,0,0,3,,,,,,,,,2,,,59,36
48080,note_on,0,0,3,,,,,,,,,2,,,60,0
48099,note_on,0,0,1,,,,,,,,,0,,,79,36
48099,note_on,19,0,1,,,,,,,,,0,,,67,36
48099,note_on,0,0,3,,,,,,,,,2,,,65,36
48099,note_on,19,0,3,,,,,,,,,2,,,59,36
48100,note_on,0,0,3,,,,,,,,,2,,,59,0
48100,note_on,1,0,3,,,,,,,,,2,,,65,0
48100,note_on,0,0,1,,,,,,,,,0,,,67,0
48100,note_on,1,0,1,,,,,,,,,0,,,79,0
48103,note_on,0,0,1,,,,,,,,,0,,,79,0
48103,note_on,3,0,1,,,,,,,,,0,,,67,0
48103,note_on,3,0,3,,,,,,,,,2,,,59,0
48103,note_on,0,0,3,,,,,,,,,2,,,65,0
48120,note_on,0,0,1,,,,,,,,,0,,,79,36
48120,note_on,17,0,3,,,,,,,,,2,,,59,36
48120,set_tempo,60,1,0,,,,,,1500000,,,,,,,
48120,note_on,0,0,3,,,,,,,,,2,,,65,36
48120,note_on,17,0,1,,,,,,,,,0,,,67,36
48124,note_on,4,0,1,,,,,,,,,0,,,79,0
48124,note_on,4,0,3,,,,,,,,,2,,,65,0
48124,note_on,0,0,3,,,,,,,,,2,,,59,0
48124,note_on,0,0,1,,,,,,,,,0,,,67,0
48140,note_on,16,0,3,,,,,,,,,2,,,59,36
48140,note_on,16,0,1,,,,,,,,,0,,,74,36
48140,note_on,0,0,3,,,,,,,,,2,,,62,36
48140,note_on,0,0,3,,,,,,,,,2,,,67,36
48140,note_on,0,0,1,,,,,,,,,0,,,86,36
48144,note_on,4,0,1,,,,,,,,,0,,,86,0
48144,note_on,0,0,1,,,,,,,,,0,,,74,0
48144,note_on,4,0,3,,,,,,,,,2,,,67,0
48144,note_on,0,0,3,,,,,,,,,2,,,62,0
48144,note_on,0,0,3,,,,,,,,,2,,,59,0
48159,control_change,15,0,1,,,,,,,,,0,64,0,,
48159,note_on,0,0,1,,,,,,,,,0,,,76,36
48159,note_on,0,0,3,,,,,,,,,2,,,67,36
48159,control_change,15,0,3,,,,,,,,,2,64,0,,
48159,note_on,0,0,3,,,,,,,,,2,,,60,36
48159,note_on,0,0,3,,,,,,,,,2,,,64,36
48159,note_on,0,0,1,,,,,,,,,0,,,88,36
48163,note_on,0,0,1,,,,,,,,,0,,,76,0
48163,note_on,4,0,3,,,,,,,,,2,,,67,0
48163,note_on,0,0,3,,,,,,,,,2,,,64,0
48163,note_on,0,0,3,,,,,,,,,2,,,60,0
48163,note_on,4,0,1,,,,,,,,,0,,,88,0
48180,note_on,17,0,3,,,,,,,,,2,,,62,36
48180,note_on,0,0,3,,,,,,,,,2,,,65,36
48180,note_on,0,0,3,,,,,,,,,2,,,67,36
48180,note_on,0,0,1,,,,,,,,,0,,,89,36
48180,note_on,17,0,1,,,,,,,,,0,,,77,36
48180,set_tempo,60,1,0,,,,,,1666667,,,,,,,
48184,note_on,4,0,3,,,,,,,,,2,,,67,0
48184,note_on,0,0,3,,,,,,,,,2,,,65,0
48184,note_on,0,0,1,,,,,,,,,0,,,77,0
48184,note_on,4,0,1,,,,,,,,,0,,,89,0
48184,note_on,0,0,3,,,,,,,,,2,,,62,0
48200,note_on,0,0,1,,,,,,,,,0,,,91,36
48200,note_on,16,0,3,,,,,,,,,2,,,64,36
48200,note_on,0,0,3,,,,,,,,,2,,,67,36
48200,note_on,16,0,1,,,,,,,,,0,,,79,36
48204,note_on,4,0,1,,,,,,,,,0,,,91,0
48204,note_on,0,0,1,,,,,,,,,0,,,79,0
48204,note_on,0,0,3,,,,,,,,,2,,,64,0
48204,note_on,4,0,3,,,,,,,,,2,,,67,0
48219,note_on,15,0,1,,,,,,,,,0,,,81,36
48219,note_on,0,0,1,,,,,,,,,0,,,93,36
48219,note_on,0,0,3,,,,,,,,,2,,,69,36
48219,note_on,15,0,3,,,,,,,,,2,,,65,36
48223,note_on,4,0,3,,,,,,,,,2,,,69,0
48223,note_on,4,0,1,,,,,,,,,0,,,93,0
48223,note_on,0,0,1,,,,,,,,,0,,,81,0
48223,note_on,0,0,3,,,,,,,,,2,,,65,0
48240,note_on,0,0,3,,,,,,,,,2,,,62,36
48240,note_on,0,0,3,,,,,,,,,2,,,65,36
48240,set_tempo,60,1,0,,,,,,1250000,,,,,,,
48240,note_on,0,0,1,,,,,,,,,0,,,93,36
48240,note_on,0,0,1,,,,,,,,,0,,,81,36
48240,control_change,17,0,1,,,,,,,,,0,64,127,,
48240,control_change,17,0,3,,,,,,,,,2,64,127,,
48260,note_on,0,0,3,,,,,,,,,2,,,62,0
48260,note_on,0,0,3,,,,,,,,,2,,,64,36
48260,note_on,0,0,1,,,,,,,,,0,,,91,36
48260,note_on,0,0,1,,,,,,,,,0,,,79,36
48260,note_on,0,0,1,,,,,,,,,0,,,81,0
48260,note_on,20,0,1,,,,,,,,,0,,,93,0
48260,note_on,20,0,3,,,,,,,,,2,,,65,0
48260,note_on,0,0,3,,,,,,,,,2,,,60,36
48279,note_on,19,0,1,,,,,,,,,0,,,76,36
48279,note_on,0,0,3,,,,,,,,,2,,,60,36
48279,note_on,19,0,3,,,,,,,,,2,,,57,36
48279,note_on,0,0,1,,,,,,,,,0,,,88,36
48280,note_on,1,0,3,,,,,,,,,2,,,64,0
48280,note_on,1,0,1,,,,,,,,,0,,,91,0
48280,note_on,0,0,1,,,,,,,,,0,,,79,0
48280,note_on,0,0,3,,,,,,,,,2,,,60,0
48283,note_on,3,0,1,,,,,,,,,0,,,76,0
48283,note_on,0,0,1,,,,,,,,,0,,,88,0
48283,note_on,3,0,3,,,,,,,,,2,,,57,0
48283,note_on,0,0,3,,,,,,,,,2,,,60,0
48300,control_change,17,0,1,,,,,,,,,0,64,0,,
48300,note_on,0,0,1,,,,,,,,,0,,,84,36
48300,note_on,0,0,1,,,,,,,,,0,,,72,36
48300,control_change,17,0,3,,,,,,,,,2,64,0,,
48300,note_on,0,0,3,,,,,,,,,2,,,52,36
48300,note_on,0,0,3,,,,,,,,,2,,,60,36
48304,note_on,4,0,3,,,,,,,,,2,,,60,0
48304,note_on,0,0,3,,,,,,,,,2,,,52,0
48304,note_on,4,0,1,,,,,,,,,0,,,84,0
48304,note_on,0,0,1,,,,,,,,,0,,,72,0
48320,note_on,16,0,3,,,,,,,,,2,,,52,36
48320,note_on,0,0,3,,,,,,,,,2,,,60,36
48320,note_on,16,0,1,,,,,,,,,0,,,72,36
48320,note_on,0,0,1,,,,,,,,,0,,,84,36
48324,note_on,4,0,3,,,,,,,,,2,,,60,0
48324,note_on,0,0,3,,,,,,,,,2,,,52,0
48324,note_on,4,0,1,,,,,,,,,0,,,84,0
48324,note_on,0,0,1,,,,,,,,,0,,,72,0
48339,note_on,0,0,3,,,,,,,,,2,,,60,36
48339,note_on,15,0,1,,,,,,,,,0,,,72,36
48339,note_on,15,0,3,,,,,,,,,2,,,52,36
48339,note_on,0,0,1,,,,,,,,,0,,,84,36
48343,note_on,4,0,1,,,,,,,,,0,,,84,0
48343,note_on,4,0,3,,,,,,,,,2,,,60,0
48343,note_on,0,0,1,,,,,,,,,0,,,72,0
48343,note_on,0,0,3,,,,,,,,,2,,,52,0
48360,note_on,17,0,1,,,,,,,,,0,,,84,67
48360,note_on,0,0,1,,,,,,,,,0,,,96,75
48360,note_on,0,0,2,,,,,,,,,1,,,72,36
48360,note_on,737,0,2,,,,,,,,,1,,,64,36
48380,note_on,20,0,2,,,,,,,,,1,,,72,0
48380,note_on,0,0,2,,,,,,,,,1,,,76,36
48380,note_on,0,0,2,,,,,,,,,1,,,67,36
48380,note_on,20,0,1,,,,,,,,,0,,,96,0
48380,note_on,0,0,1,,,,,,,,,0,,,84,0
48380,note_on,0,0,1,,,,,,,,,0,,,88,49
48380,note_on,0,0,1,,,,,,,,,0,,,100,49
48380,note_on,0,0,2,,,,,,,,,1,,,64,0
48399,note_on,0,0,1,,,,,,,,,0,,,98,49
48399,note_on,19,0,1,,,,,,,,,0,,,86,49
48399,note_on,19,0,2,,,,,,,,,1,,,68,36
48399,note_on,0,0,2,,,,,,,,,1,,,74,36
48400,note_on,1,0,1,,,,,,,,,0,,,100,0
48400,note_on,0,0,2,,,,,,,,,1,,,67,0
48400,note_on,0,0,1,,,,,,,,,0,,,88,0
48400,note_on,1,0,2,,,,,,,,,1,,,76,0
48419,note_on,19,0,1,,,,,,,,,0,,,86,0
48419,note_on,0,0,1,,,,,,,,,0,,,98,0
48419,note_on,19,0,2,,,,,,,,,1,,,68,0
48419,note_on,0,0,2,,,,,,,,,1,,,74,0
48420,control_change,1,0,1,,,,,,,,,0,64,127,,
48420,note_on,0,0,1,,,,,,,,,0,,,84,67
48420,note_on,0,0,1,,,,,,,,,0,,,96,75
48420,set_tempo,180,1,0,,,,,,1250000,,,,,,,
48420,control_change,1,0,2,,,,,,,,,1,64,127,,
48420,note_on,0,0,2,,,,,,,,,1,,,69,36
48420,note_on,0,0,2,,,,,,,,,1,,,72,36
48440,note_on,20,0,2,,,,,,,,,1,,,72,0
48440,note_on,0,0,2,,,,,,,,,1,,,69,0
48440,note_on,0,0,2,,,,,,,,,1,,,71,36
48440,note_on,0,0,2,,,,,,,,,1,,,64,36
48440,note_on,0,0,1,,,,,,,,,0,,,84,0
48440,note_on,20,0,1,,,,,,,,,0,,,96,0
48440,note_on,0,0,1,,,,,,,,,0,,,83,49
48440,note_on,0,0,1,,,,,,,,,0,,,95,49
48459,note_on,19,0,1,,,,,,,,,0,,,81,49
48459,note_on,0,0,2,,,,,,,,,1,,,69,36
48459,note_on,19,0,2,,,,,,,,,1,,,65,36
48459,note_on,0,0,1,,,,,,,,,0,,,93,49
48460,note_on,1,0,2,,,,,,,,,1,,,71,0
48460,note_on,0,0,2,,,,,,,,,1,,,64,0
48460,note_on,1,0,1,,,,,,,,,0,,,95,0
48460,note_on,0,0,1,,,,,,,,,0,,,83,0
48479,note_on,19,0,1,,,,,,,,,0,,,81,0
48479,note_on,0,0,1,,,,,,,,,0,,,93,0
48479,note_on,19,0,2,,,,,,,,,1,,,65,0
48479,note_on,0,0,2,,,,,,,,,1,,,69,0
48480,note_on,0,0,2,,,,,,,,,1,,,67,36
48480,note_on,1,0,2,,,,,,,,,1,,,64,36
48480,note_on,1,0,1,,,,,,,,,0,,,79,67
48480,note_on,0,0,1,,,,,,,,,0,,,91,75
48500,note_on,0,0,1,,,,,,,,,0,,,89,49
48500,note_on,20,0,2,,,,,,,,,1,,,67,0
48500,note_on,0,0,2,,,,,,,,,1,,,64,0
48500,note_on,0,0,2,,,,,,,,,1,,,62,36
48500,note_on,0,0,2,,,,,,,,,1,,,65,36
48500,note_on,20,0,1,,,,,,,,,0,,,91,0
48500,note_on,0,0,1,,,,,,,,,0,,,79,0
48500,note_on,0,0,1,,,,,,,,,0,,,77,49
48519,note_on,0,0,1,,,,,,,,,0,,,76,49
48519,note_on,0,0,2,,,,,,,,,1,,,60,36
48519,note_on,0,0,1,,,,,,,,,0,,,88,49
48519,control_change,19,0,2,,,,,,,,,1,64,0,,
48519,control_change,19,0,1,,,,,,,,,0,64,0,,
48519,note_on,0,0,2,,,,,,,,,1,,,64,36
48520,note_on,0,0,1,,,,,,,,,0,,,77,0
48520,note_on,1,0,1,,,,,,,,,0,,,89,0
48520,note_on,0,0,2,,,,,,,,,1,,,62,0
48520,note_on,1,0,2,,,,,,,,,1,,,65,0
48539,note_on,0,0,2,,,,,,,,,1,,,64,0
48539,note_on,19,0,2,,,,,,,,,1,,,60,0
48539,note_on,19,0,1,,,,,,,,,0,,,76,0
48539,note_on,0,0,1,,,,,,,,,0,,,88,0
48540,note_on,1,0,2,,,,,,,,,1,,,55,36
48540,note_on,0,0,2,,,,,,,,,1,,,62,36
48540,note_on,1,0,1,,,,,,,,,0,,,74,67
48540,note_on,0,0,1,,,,,,,,,0,,,86,75
48560,note_on,0,0,2,,,,,,,,,1,,,60,36
48560,note_on,0,0,1,,,,,,,,,0,,,88,49
48560,note_on,0,0,1,,,,,,,,,0,,,76,49
48560,note_on,0,0,2,,,,,,,,,1,,,55,0
48560,note_on,20,0,1,,,,,,,,,0,,,86,0
48560,note_on,0,0,1,,,,,,,,,0,,,74,0
48560,note_on,0,0,2,,,,,,,,,1,,,64,36
48560,note_on,20,0,2,,,,,,,,,1,,,62,0
48579,note_on,19,0,1,,,,,,,,,0,,,74,49
48579,note_on,0,0,1,,,,,,,,,0,,,86,49
48579,note_on,0,0,2,,,,,,,,,1,,,62,36
48579,note_on,19,0,2,,,,,,,,,1,,,55,36
48580,note_on,0,0,2,,,,,,,,,1,,,60,0
48580,note_on,1,0,1,,,,,,,,,0,,,88,0
48580,note_on,0,0,1,,,,,,,,,0,,,76,0
48580,note_on,1,0,2,,,,,,,,,1,,,64,0
48599,note_on,0,0,2,,,,,,,,,1,,,62,0
48599,note_on,19,0,2,,,,,,,,,1,,,55,0
48599,note_on,19,0,1,,,,,,,,,0,,,74,0
48599,note_on,0,0,1,,,,,,,,,0,,,86,0
48600,note_on,257,0,3,,,,,,,,,2,,,48,36
48600,note_on,0,0,3,,,,,,,,,2,,,52,36
48600,note_on,0,0,3,,,,,,,,,2,,,60,36
48600,control_change,1,0,1,,,,,,,,,0,64,127,,
48600,note_on,0,0,1,,,,,,,,,0,,,72,49
48600,note_on,0,0,1,,,,,,,,,0,,,84,49
48620,note_on,20,0,1,,,,,,,,,0,,,84,0
48620,note_on,0,0,1,,,,,,,,,0,,,72,0
48620,note_on,0,0,1,,,,,,,,,0,,,67,49
48624,note_on,4,0,1,,,,,,,,,0,,,67,0
48639,note_on,15,0,1,,,,,,,,,0,,,67,49
48643,note_on,4,0,1,,,,,,,,,0,,,67,0
48660,note_on,17,0,1,,,,,,,,,0,,,67,62
48660,note_on,60,0,3,,,,,,,,,2,,,60,0
48660,note_on,0,0,3,,,,,,,,,2,,,52,0
48660,note_on,0,0,3,,,,,,,,,2,,,48,0
48664,note_on,4,0,1,,,,,,,,,0,,,67,0
48680,note_on,16,0,1,,,,,,,,,0,,,67,62
48684,note_on,4,0,1,,,,,,,,,0,,,67,0
48699,control_change,15,0,1,,,,,,,,,0,64,0,,
48699,note_on,0,0,1,,,,,,,,,0,,,67,62
48703,note_on,4,0,1,,,,,,,,,0,,,67,0
48720,note_on,60,0,3,,,,,,,,,2,,,43,75
48720,note_on,0,0,3,,,,,,,,,2,,,55,75
48720,note_on,17,0,1,,,,,,,,,0,,,67,75
48724,note_on,4,0,1,,,,,,,,,0,,,67,0
48740,note_on,16,0,1,,,,,,,,,0,,,67,75
48740,note_on,0,0,3,,,,,,,,,2,,,43,0
48740,note_on,20,0,3,,,,,,,,,2,,,55,0
48740,note_on,0,0,3,,,,,,,,,2,,,38,75
48740,note_on,0,0,3,,,,,,,,,2,,,50,75
48744,note_on,4,0,1,,,,,,,,,0,,,67,0
48759,note_on,19,0,3,,,,,,,,,2,,,35,75
48759,note_on,0,0,3,,,,,,,,,2,,,47,75
48759,note_on,15,0,1,,,,,,,,,0,,,67,75
48760,note_on,1,0,3,,,,,,,,,2,,,50,0
48760,note_on,0,0,3,,,,,,,,,2,,,38,0
48763,note_on,4,0,1,,,,,,,,,0,,,67,0
48779,note_on,19,0,3,,,,,,,,,2,,,35,0
48779,note_on,0,0,3,,,,,,,,,2,,,47,0
48780,control_change,1,0,3,,,,,,,,,2,64,127,,
48780,note_on,0,0,3,,,,,,,,,2,,,45,75
48780,note_on,0,0,3,,,,,,,,,2,,,33,75
48780,note_on,0,0,1,,,,,,,,,0,,,65,88
48780,control_change,17,0,1,,,,,,,,,0,64,127,,
48780,note_on,0,0,1,,,,,,,,,0,,,59,88
48780,note_on,0,0,1,,,,,,,,,0,,,67,88
48800,note_on,0,0,1,,,,,,,,,0,,,65,0
48800,note_on,0,0,3,,,,,,,,,2,,,31,75
48800,note_on,0,0,3,,,,,,,,,2,,,33,0
48800,note_on,20,0,3,,,,,,,,,2,,,45,0
48800,note_on,20,0,1,,,,,,,,,0,,,67,0
48800,note_on,0,0,1,,,,,,,,,0,,,59,0
48800,note_on,0,0,3,,,,,,,,,2,,,43,75
48800,note_on,0,0,1,,,,,,,,,0,,,65,88
48800,note_on,0,0,1,,,,,,,,,0,,,67,88
48800,note_on,0,0,1,,,,,,,,,0,,,59,88
48819,note_on,19,0,3,,,,,,,,,2,,,31,75
48819,note_on,19,0,1,,,,,,,,,0,,,59,88
48819,note_on,0,0,1,,,,,,,,,0,,,65,88
48819,note_on,0,0,1,,,,,,,,,0,,,67,88
48819,note_on,0,0,3,,,,,,,,,2,,,43,75
48820,note_on,1,0,1,,,,,,,,,0,,,67,0
48820,note_on,0,0,1,,,,,,,,,0,,,59,0
48820,note_on,0,0,1,,,,,,,,,0,,,65,0
48820,note_on,0,0,3,,,,,,,,,2,,,31,0
48820,note_on,1,0,3,,,,,,,,,2,,,43,0
48839,note_on,0,0,1,,,,,,,,,0,,,67,0
48839,note_on,19,0,1,,,,,,,,,0,,,59,0
48839,note_on,0,0,1,,,,,,,,,0,,,65,0
48839,note_on,0,0,3,,,,,,,,,2,,,43,0
48839,note_on,19,0,3,,,,,,,,,2,,,31,0
48840,note_on,0,0,3,,,,,,,,,2,,,43,75
48840,note_on,0,0,1,,,,,,,,,0,,,67,88
48840,note_on,0,0,1,,,,,,,,,0,,,65,88
48840,note_on,1,0,3,,,,,,,,,2,,,31,75
48840,note_on,1,0,1,,,,,,,,,0,,,59,88
48860,note_on,20,0,3,,,,,,,,,2,,,43,0
48860,note_on,20,0,1,,,,,,,,,0,,,67,0
48860,note_on,0,0,1,,,,,,,,,0,,,65,0
48860,note_on,0,0,3,,,,,,,,,2,,,31,75
48860,note_on,0,0,1,,,,,,,,,0,,,59,0
48860,note_on,0,0,1,,,,,,,,,0,,,59,88
48860,note_on,0,0,3,,,,,,,,,2,,,31,0
48860,note_on,0,0,1,,,,,,,,,0,,,65,88
48860,note_on,0,0,1,,,,,,,,,0,,,67,88
48860,note_on,0,0,3,,,,,,,,,2,,,43,75
48879,note_on,19,0,3,,,,,,,,,2,,,33,75
48879,note_on,0,0,1,,,,,,,,,0,,,65,88
48879,note_on,0,0,1,,,,,,,,,0,,,67,88
48879,note_on,0,0,3,,,,,,,,,2,,,45,75
48879,note_on,19,0,1,,,,,,,,,0,,,59,88
48880,note_on,1,0,1,,,,,,,,,0,,,67,0
48880,note_on,0,0,1,,,,,,,,,0,,,65,0
48880,note_on,0,0,3,,,,,,,,,2,,,31,0
48880,note_on,1,0,3,,,,,,,,,2,,,43,0
48880,note_on,0,0,1,,,,,,,,,0,,,59,0
48899,note_on,19,0,1,,,,,,,,,0,,,59,0
48899,note_on,0,0,1,,,,,,,,,0,,,67,0
48899,note_on,0,0,1,,,,,,,,,0,,,65,0
48899,note_on,0,0,3,,,,,,,,,2,,,45,0
48899,note_on,19,0,3,,,,,,,,,2,,,33,0
48900,note_on,0,0,3,,,,,,,,,2,,,47,75
48900,note_on,0,0,3,,,,,,,,,2,,,35,75
48900,control_change,1,0,3,,,,,,,,,2,64,0,,
48900,control_change,1,0,1,,,,,,,,,0,64,0,,
48900,note_on,0,0,1,,,,,,,,,0,,,65,88
48900,note_on,0,0,1,,,,,,,,,0,,,67,88
48900,note_on,0,0,1,,,,,,,,,0,,,59,88
48920,note_on,0,0,1,,,,,,,,,0,,,65,0
48920,note_on,20,0,1,,,,,,,,,0,,,67,0
48920,note_on,0,0,1,,,,,,,,,0,,,59,88
48920,note_on,0,0,1,,,,,,,,,0,,,65,88
48920,note_on,0,0,1,,,,,,,,,0,,,67,88
48920,note_on,0,0,1,,,,,,,,,0,,,59,0
48920,note_on,20,0,3,,,,,,,,,2,,,47,0
48920,note_on,0,0,3,,,,,,,,,2,,,35,0
48920,note_on,0,0,3,,,,,,,,,2,,,36,75
48920,note_on,0,0,3,,,,,,,,,2,,,48,75
48939,note_on,0,0,3,,,,,,,,,2,,,50,75
48939,note_on,19,0,1,,,,,,,,,0,,,59,88
48939,note_on,0,0,1,,,,,,,,,0,,,65,88
48939,note_on,0,0,1,,,,,,,,,0,,,67,88
48939,note_on,19,0,3,,,,,,,,,2,,,38,75
48940,note_on,0,0,1,,,,,,,,,0,,,59,0
48940,note_on,1,0,3,,,,,,,,,2,,,48,0
48940,note_on,0,0,1,,,,,,,,,0,,,65,0
48940,note_on,0,0,3,,,,,,,,,2,,,36,0
48940,note_on,1,0,1,,,,,,,,,0,,,67,0
48959,note_on,0,0,1,,,,,,,,,0,,,67,0
48959,note_on,19,0,3,,,,,,,,,2,,,38,0
48959,note_on,19,0,1,,,,,,,,,0,,,59,0
48959,note_on,0,0,1,,,,,,,,,0,,,65,0
48959,note_on,0,0,3,,,,,,,,,2,,,50,0
48960,note_on,0,0,1,,,,,,,,,0,,,67,114
48960,note_on,0,0,1,,,,,,,,,0,,,65,109
48960,note_on,0,0,1,,,,,,,,,0,,,59,104
48960,control_change,1,0,1,,,,,,,,,0,64,127,,
48960,control_change,1,0,3,,,,,,,,,2,64,127,,
48960,note_on,0,0,3,,,,,,,,,2,,,50,101
48960,note_on,0,0,3,,,,,,,,,2,,,38,93
48980,note_on,20,0,1,,,,,,,,,0,,,67,0
48980,note_on,0,0,1,,,,,,,,,0,,,59,0
48980,note_on,0,0,1,,,,,,,,,0,,,60,88
48980,note_on,0,0,3,,,,,,,,,2,,,38,0
48980,note_on,0,0,3,,,,,,,,,2,,,39,75
48980,note_on,0,0,3,,,,,,,,,2,,,51,75
48980,note_on,0,0,1,,,,,,,,,0,,,63,88
48980,note_on,0,0,1,,,,,,,,,0,,,65,0
48980,note_on,0,0,1,,,,,,,,,0,,,67,88
48980,note_on,20,0,3,,,,,,,,,2,,,50,0
48999,note_on,19,0,3,,,,,,,,,2,,,39,75
48999,note_on,0,0,1,,,,,,,,,0,,,67,88
48999,note_on,0,0,1,,,,,,,,,0,,,63,88
48999,note_on,19,0,1,,,,,,,,,0,,,60,88
48999,note_on,0,0,3,,,,,,,,,2,,,51,75
49000,note_on,0,0,1,,,,,,,,,0,,,63,0
49000,note_on,0,0,1,,,,,,,,,0,,,60,0
49000,note_on,1,0,1,,,,,,,,,0,,,67,0
49000,note_on,1,0,3,,,,,,,,,2,,,51,0
49000,note_on,0,0,3,,,,,,,,,2,,,39,0
49003,note_on,3,0,1,,,,,,,,,0,,,60,0
49003,note_on,0,0,1,,,,,,,,,0,,,63,0
49003,note_on,3,0,3,,,,,,,,,2,,,39,0
49003,note_on,0,0,3,,,,,,,,,2,,,51,0
49003,note_on,0,0,1,,,,,,,,,0,,,67,0
49020,note_on,0,0,1,,,,,,,,,0,,,63,88
49020,note_on,17,0,1,,,,,,,,,0,,,60,88
49020,note_on,0,0,1,,,,,,,,,0,,,67,88
49020,note_on,0,0,3,,,,,,,,,2,,,51,75
49020,note_on,17,0,3,,,,,,,,,2,,,39,75
49040,note_on,20,0,1,,,,,,,,,0,,,67,0
49040,note_on,0,0,1,,,,,,,,,0,,,63,0
49040,note_on,0,0,1,,,,,,,,,0,,,60,0
49040,note_on,0,0,1,,,,,,,,,0,,,67,88
49040,note_on,0,0,3,,,,,,,,,2,,,51,75
49040,note_on,0,0,3,,,,,,,,,2,,,39,75
49040,note_on,0,0,3,,,,,,,,,2,,,39,0
49040,note_on,20,0,3,,,,,,,,,2,,,51,0
49059,note_on,0,0,3,,,,,,,,,2,,,41,75
49059,control_change,19,0,3,,,,,,,,,2,64,0,,
49059,note_on,0,0,3,,,,,,,,,2,,,53,75
49059,control_change,19,0,1,,,,,,,,,0,64,0,,
49059,note_on,0,0,1,,,,,,,,,0,,,67,88
49059,note_on,0,0,1,,,,,,,,,0,,,69,88
49060,note_on,0,0,3,,,,,,,,,2,,,39,0
49060,note_on,1,0,1,,,,,,,,,0,,,67,0
49060,note_on,1,0,3,,,,,,,,,2,,,51,0
49079,note_on,19,0,1,,,,,,,,,0,,,69,0
49079,note_on,0,0,1,,,,,,,,,0,,,67,0
49079,note_on,19,0,3,,,,,,,,,2,,,41,0
49079,note_on,0,0,3,,,,,,,,,2,,,53,0
49080,note_on,1,0,1,,,,,,,,,0,,,65,88
49080,note_on,0,0,1,,,,,,,,,0,,,67,88
49080,note_on,0,0,1,,,,,,,,,0,,,71,88
49080,note_on,1,0,3,,,,,,,,,2,,,43,75
49080,note_on,0,0,3,,,,,,,,,2,,,55,75
49100,note_on,0,0,1,,,,,,,,,0,,,65,0
49100,note_on,20,0,1,,,,,,,,,0,,,71,0
49100,note_on,0,0,1,,,,,,,,,0,,,65,88
49100,note_on,0,0,1,,,,,,,,,0,,,67,88
49100,note_on,0,0,1,,,,,,,,,0,,,72,88
49100,note_on,0,0,1,,,,,,,,,0,,,67,0
49100,note_on,0,0,3,,,,,,,,,2,,,57,75
49100,note_on,0,0,3,,,,,,,,,2,,,45,75
49100,note_on,0,0,3,,,,,,,,,2,,,43,0
49100,note_on,20,0,3,,,,,,,,,2,,,55,0
49119,note_on,0,0,3,,,,,,,,,2,,,59,75
49119,note_on,19,0,3,,,,,,,,,2,,,47,75
49119,note_on,0,0,1,,,,,,,,,0,,,74,88
49119,note_on,0,0,1,,,,,,,,,0,,,67,88
49119,note_on,19,0,1,,,,,,,,,0,,,65,88
49120,note_on,0,0,1,,,,,,,,,0,,,65,0
49120,note_on,1,0,1,,,,,,,,,0,,,72,0
49120,note_on,0,0,1,,,,,,,,,0,,,67,0
49120,note_on,1,0,3,,,,,,,,,2,,,57,0
49120,note_on,0,0,3,,,,,,,,,2,,,45,0
49139,note_on,0,0,1,,,,,,,,,0,,,74,0
49139,note_on,0,0,1,,,,,,,,,0,,,67,0
49139,note_on,19,0,1,,,,,,,,,0,,,65,0
49139,note_on,19,0,3,,,,,,,,,2,,,47,0
49139,note_on,0,0,3,,,,,,,,,2,,,59,0
49140,note_on,0,0,1,,,,,,,,,0,,,67,101
49140,control_change,1,0,3,,,,,,,,,2,64,127,,
49140,control_change,1,0,1,,,,,,,,,0,64,127,,
49140,note_on,0,0,3,,,,,,,,,2,,,47,88
49140,note_on,0,0,1,,,,,,,,,0,,,74,101
49140,note_on,0,0,3,,,,,,,,,2,,,59,88
49140,note_on,0,0,1,,,,,,,,,0,,,65,101
49160,note_on,0,0,3,,,,,,,,,2,,,48,88
49160,note_on,20,0,1,,,,,,,,,0,,,74,0
49160,note_on,0,0,1,,,,,,,,,0,,,67,0
49160,note_on,0,0,1,,,,,,,,,0,,,65,0
49160,note_on,0,0,1,,,,,,,,,0,,,63,101
49160,note_on,0,0,1,,,,,,,,,0,,,67,101
49160,note_on,0,0,1,,,,,,,,,0,,,75,101
49160,note_on,0,0,3,,,,,,,,,2,,,60,88
49160,note_on,0,0,3,,,,,,,,,2,,,47,0
49160,note_on,20,0,3,,,,,,,,,2,,,59,0
49179,note_on,0,0,1,,,,,,,,,0,,,75,101
49179,note_on,0,0,3,,,,,,,,,2,,,60,88
49179,note_on,19,0,3,,,,,,,,,2,,,48,88
49179,note_on,19,0,1,,,,,,,,,0,,,63,101
49179,note_on,0,0,1,,,,,,,,,0,,,67,101
49180,note_on,0,0,1,,,,,,,,,0,,,67,0
49180,note_on,0,0,1,,,,,,,,,0,,,63,0
49180,note_on,1,0,1,,,,,,,,,0,,,75,0
49180,note_on,0,0,3,,,,,,,,,2,,,48,0
49180,note_on,1,0,3,,,,,,,,,2,,,60,0
49183,note_on,3,0,3,,,,,,,,,2,,,48,0
49183,note_on,3,0,1,,,,,,,,,0,,,63,0
49183,note_on,0,0,1,,,,,,,,,0,,,67,0
49183,note_on,0,0,1,,,,,,,,,0,,,75,0
49183,note_on,0,0,3,,,,,,,,,2,,,60,0
49200,note_on,0,0,1,,,,,,,,,0,,,74,127
49200,control_change,17,0,1,,,,,,,,,0,64,0,,
49200,note_on,0,0,1,,,,,,,,,0,,,63,117
49200,note_on,0,0,1,,,,,,,,,0,,,67,122
49200,note_on,0,0,3,,,,,,,,,2,,,58,114
49200,control_change,17,0,3,,,,,,,,,2,64,0,,
49200,note_on,0,0,3,,,,,,,,,2,,,46,106
49220,note_on,0,0,1,,,,,,,,,0,,,63,0
49220,note_on,20,0,1,,,,,,,,,0,,,74,0
49220,note_on,20,0,3,,,,,,,,,2,,,58,0
49220,note_on,0,0,3,,,,,,,,,2,,,46,0
49220,note_on,0,0,3,,,,,,,,,2,,,44,88
49220,note_on,0,0,3,,,,,,,,,2,,,56,88
49220,note_on,0,0,1,,,,,,,,,0,,,63,101
49220,note_on,0,0,1,,,,,,,,,0,,,68,101
49220,note_on,0,0,1,,,,,,,,,0,,,72,101
49220,note_on,0,0,1,,,,,,,,,0,,,67,0
49239,note_on,19,0,3,,,,,,,,,2,,,44,88
49239,note_on,0,0,3,,,,,,,,,2,,,56,88
49239,note_on,0,0,1,,,,,,,,,0,,,68,101
49239,note_on,0,0,1,,,,,,,,,0,,,72,101
49239,note_on,19,0,1,,,,,,,,,0,,,63,101
49240,note_on,0,0,1,,,,,,,,,0,,,68,0
49240,note_on,1,0,3,,,,,,,,,2,,,56,0
49240,note_on,0,0,1,,,,,,,,,0,,,63,0
49240,note_on,0,0,3,,,,,,,,,2,,,44,0
49240,note_on,1,0,1,,,,,,,,,0,,,72,0
49243,note_on,0,0,1,,,,,,,,,0,,,72,0
49243,note_on,3,0,1,,,,,,,,,0,,,63,0
49243,note_on,0,0,1,,,,,,,,,0,,,68,0
49243,note_on,0,0,3,,,,,,,,,2,,,56,0
49243,note_on,3,0,3,,,,,,,,,2,,,44,0
49260,note_on,17,0,1,,,,,,,,,0,,,63,117
49260,note_on,0,0,3,,,,,,,,,2,,,56,114
49260,note_on,0,0,1,,,,,,,,,0,,,68,122
49260,note_on,17,0,3,,,,,,,,,2,,,44,106
49260,note_on,0,0,1,,,,,,,,,0,,,72,127
49280,note_on,20,0,1,,,,,,,,,0,,,72,0
49280,note_on,0,0,1,,,,,,,,,0,,,68,0
49280,note_on,0,0,1,,,,,,,,,0,,,63,0
49280,note_on,0,0,1,,,,,,,,,0,,,66,101
49280,note_on,0,0,1,,,,,,,,,0,,,69,101
49280,note_on,0,0,1,,,,,,,,,0,,,72,101
49280,note_on,0,0,1,,,,,,,,,0,,,74,101
49280,note_on,0,0,1,,,,,,,,,0,,,62,101
49280,note_on,0,0,3,,,,,,,,,2,,,44,0
49280,note_on,0,0,3,,,,,,,,,2,,,38,88
49280,note_on,0,0,3,,,,,,,,,2,,,50,88
49280,note_on,20,0,3,,,,,,,,,2,,,56,0
49299,note_on,0,0,1,,,,,,,,,0,,,72,101
49299,note_on,0,0,1,,,,,,,,,0,,,69,101
49299,note_on,0,0,1,,,,,,,,,0,,,66,101
49299,note_on,19,0,1,,,,,,,,,0,,,62,101
49299,note_on,0,0,1,,,,,,,,,0,,,74,101
49299,note_on,19,0,3,,,,,,,,,2,,,38,88
49299,note_on,0,0,3,,,,,,,,,2,,,50,88
49300,note_on,0,0,1,,,,,,,,,0,,,66,0
49300,note_on,0,0,1,,,,,,,,,0,,,69,0
49300,note_on,0,0,1,,,,,,,,,0,,,62,0
49300,note_on,0,0,1,,,,,,,,,0,,,72,0
49300,note_on,1,0,1,,,,,,,,,0,,,74,0
49300,note_on,0,0,3,,,,,,,,,2,,,38,0
49300,note_on,1,0,3,,,,,,,,,2,,,50,0
49303,note_on,0,0,1,,,,,,,,,0,,,69,0
49303,note_on,0,0,1,,,,,,,,,0,,,66,0
49303,note_on,0,0,1,,,,,,,,,0,,,74,0
49303,note_on,0,0,1,,,,,,,,,0,,,72,0
49303,note_on,3,0,1,,,,,,,,,0,,,62,0
49303,note_on,3,0,3,,,,,,,,,2,,,38,0
49303,note_on,0,0,3,,,,,,,,,2,,,50,0
49320,note_on,0,0,1,,,,,,,,,0,,,72,114
49320,note_on,0,0,1,,,,,,,,,0,,,79,114
49320,note_on,0,0,1,,,,,,,,,0,,,75,114
49320,note_on,0,0,1,,,,,,,,,0,,,67,114
49320,control_change,17,0,3,,,,,,,,,2,64,127,,
49320,note_on,0,0,3,,,,,,,,,2,,,31,101
49320,note_on,0,0,3,,,,,,,,,2,,,43,101
49320,control_change,17,0,1,,,,,,,,,0,64,127,,
49340,note_on,0,0,3,,,,,,,,,2,,,31,0
49340,note_on,0,0,3,,,,,,,,,2,,,43,101
49340,note_on,20,0,1,,,,,,,,,0,,,79,0
49340,note_on,0,0,1,,,,,,,,,0,,,67,0
49340,note_on,0,0,1,,,,,,,,,0,,,72,0
49340,note_on,0,0,1,,,,,,,,,0,,,75,0
49340,note_on,0,0,1,,,,,,,,,0,,,67,114
49340,note_on,20,0,3,,,,,,,,,2,,,43,0
49359,note_on,19,0,3,,,,,,,,,2,,,43,101
49359,note_on,19,0,1,,,,,,,,,0,,,67,114
49360,note_on,1,0,3,,,,,,,,,2,,,43,0
49360,note_on,1,0,1,,,,,,,,,0,,,67,0
49379,note_on,19,0,1,,,,,,,,,0,,,67,0
49379,note_on,19,0,3,,,,,,,,,2,,,43,0
49380,note_on,1,0,1,,,,,,,,,0,,,55,114
49380,note_on,0,0,3,,,,,,,,,2,,,43,101
49380,note_on,1,0,3,,,,,,,,,2,,,31,101
49380,note_on,0,0,1,,,,,,,,,0,,,59,114
49380,note_on,0,0,1,,,,,,,,,0,,,62,114
49380,note_on,0,0,1,,,,,,,,,0,,,67,114
49400,note_on,0,0,1,,,,,,,,,0,,,62,0
49400,note_on,20,0,3,,,,,,,,,2,,,43,0
49400,note_on,0,0,3,,,,,,,,,2,,,43,101
49400,note_on,0,0,1,,,,,,,,,0,,,55,114
49400,control_change,0,0,1,,,,,,,,,0,64,0,,
49400,control_change,0,0,3,,,,,,,,,2,64,0,,
49400,note_on,20,0,1,,,,,,,,,0,,,67,0
49400,note_on,0,0,1,,,,,,,,,0,,,55,0
49400,note_on,0,0,1,,,,,,,,,0,,,59,0
49400,note_on,0,0,3,,,,,,,,,2,,,31,0
49419,note_on,19,0,1,,,,,,,,,0,,,55,114
49419,note_on,19,0,3,,,,,,,,,2,,,43,101
49420,note_on,1,0,3,,,,,,,,,2,,,43,0
49420,note_on,1,0,1,,,,,,,,,0,,,55,0
49439,note_on,19,0,1,,,,,,,,,0,,,55,0
49439,note_on,19,0,3,,,,,,,,,2,,,43,0
49440,note_on,1,0,3,,,,,,,,,2,,,43,101
49440,note_on,1,0,1,,,,,,,,,0,,,55,114
49460,note_on,0,0,1,,,,,,,,,0,,,67,114
49460,note_on,0,0,1,,,,,,,,,0,,,55,114
49460,note_on,0,0,3,,,,,,,,,2,,,38,101
49460,note_on,20,0,3,,,,,,,,,2,,,43,0
49460,note_on,20,0,1,,,,,,,,,0,,,55,0
49479,note_on,0,0,1,,,,,,,,,0,,,67,114
49479,note_on,19,0,1,,,,,,,,,0,,,55,114
49479,note_on,19,0,3,,,,,,,,,2,,,35,101
49480,note_on,0,0,1,,,,,,,,,0,,,55,0
49480,note_on,1,0,3,,,,,,,,,2,,,38,0
49480,note_on,1,0,1,,,,,,,,,0,,,67,0
49499,note_on,19,0,3,,,,,,,,,2,,,35,0
49499,note_on,0,0,1,,,,,,,,,0,,,67,0
49499,note_on,19,0,1,,,,,,,,,0,,,55,0
49500,note_on,0,0,3,,,,,,,,,2,,,46,101
49500,control_change,1,0,3,,,,,,,,,2,64,127,,
49500,note_on,0,0,3,,,,,,,,,2,,,34,101
49500,control_change,1,0,1,,,,,,,,,0,64,127,,
49500,note_on,0,0,1,,,,,,,,,0,,,61,114
49500,note_on,0,0,1,,,,,,,,,0,,,67,114
49520,note_on,20,0,1,,,,,,,,,0,,,67,0
49520,note_on,20,0,3,,,,,,,,,2,,,46,0
49520,note_on,0,0,1,,,,,,,,,0,,,61,0
49520,note_on,0,0,1,,,,,,,,,0,,,61,114
49520,note_on,0,0,1,,,,,,,,,0,,,67,114
49520,note_on,0,0,3,,,,,,,,,2,,,34,0
49520,note_on,0,0,3,,,,,,,,,2,,,33,101
49520,note_on,0,0,3,,,,,,,,,2,,,45,101
49520,note_on,0,0,1,,,,,,,,,0,,,69,114
49524,note_on,0,0,3,,,,,,,,,2,,,33,0
49524,note_on,4,0,3,,,,,,,,,2,,,45,0
49539,note_on,0,0,3,,,,,,,,,2,,,45,101
49539,note_on,0,0,1,,,,,,,,,0,,,69,114
49539,note_on,19,0,1,,,,,,,,,0,,,61,114
49539,note_on,15,0,3,,,,,,,,,2,,,33,101
49539,note_on,0,0,1,,,,,,,,,0,,,67,114
49540,note_on,0,0,1,,,,,,,,,0,,,67,0
49540,note_on,0,0,1,,,,,,,,,0,,,61,0
49540,note_on,1,0,1,,,,,,,,,0,,,69,0
49543,note_on,4,0,3,,,,,,,,,2,,,45,0
49543,note_on,0,0,3,,,,,,,,,2,,,33,0
49559,note_on,0,0,1,,,,,,,,,0,,,69,0
49559,note_on,19,0,1,,,,,,,,,0,,,61,0
49559,note_on,0,0,1,,,,,,,,,0,,,67,0
49560,note_on,17,0,3,,,,,,,,,2,,,33,101
49560,note_on,0,0,3,,,,,,,,,2,,,45,101
49560,note_on,0,0,1,,,,,,,,,0,,,69,114
49560,note_on,1,0,1,,,,,,,,,0,,,61,114
49560,note_on,0,0,1,,,,,,,,,0,,,67,114
49580,note_on,20,0,3,,,,,,,,,2,,,45,0
49580,note_on,0,0,3,,,,,,,,,2,,,33,0
49580,note_on,0,0,1,,,,,,,,,0,,,69,114
49580,note_on,0,0,3,,,,,,,,,2,,,35,101
49580,note_on,0,0,1,,,,,,,,,0,,,67,114
49580,note_on,0,0,1,,,,,,,,,0,,,62,114
49580,note_on,0,0,1,,,,,,,,,0,,,61,0
49580,note_on,0,0,1,,,,,,,,,0,,,67,0
49580,note_on,20,0,1,,,,,,,,,0,,,69,0
49580,note_on,0,0,3,,,,,,,,,2,,,47,101
49599,note_on,0,0,3,,,,,,,,,2,,,37,101
49599,note_on,0,0,3,,,,,,,,,2,,,49,101
49599,note_on,0,0,1,,,,,,,,,0,,,69,114
49599,note_on,0,0,1,,,,,,,,,0,,,67,114
49599,note_on,0,0,1,,,,,,,,,0,,,64,114
49599,control_change,19,0,1,,,,,,,,,0,64,0,,
49599,control_change,19,0,3,,,,,,,,,2,64,0,,
49600,note_on,1,0,3,,,,,,,,,2,,,47,0
49600,note_on,0,0,3,,,,,,,,,2,,,35,0
49600,note_on,1,0,1,,,,,,,,,0,,,69,0
49600,note_on,0,0,1,,,,,,,,,0,,,67,0
49600,note_on,0,0,1,,,,,,,,,0,,,62,0
49619,note_on,0,0,1,,,,,,,,,0,,,69,0
49619,note_on,0,0,1,,,,,,,,,0,,,67,0
49619,note_on,19,0,3,,,,,,,,,2,,,37,0
49619,note_on,0,0,3,,,,,,,,,2,,,49,0
49619,note_on,19,0,1,,,,,,,,,0,,,64,0
49620,note_on,1,0,1,,,,,,,,,0,,,65,114
49620,note_on,1,0,3,,,,,,,,,2,,,38,101
49620,note_on,0,0,3,,,,,,,,,2,,,50,101
49620,note_on,0,0,1,,,,,,,,,0,,,69,114
49640,note_on,20,0,3,,,,,,,,,2,,,50,0
49640,note_on,0,0,3,,,,,,,,,2,,,38,0
49640,note_on,0,0,3,,,,,,,,,2,,,40,101
49640,note_on,0,0,3,,,,,,,,,2,,,52,101
49640,note_on,0,0,1,,,,,,,,,0,,,65,0
49640,note_on,20,0,1,,,,,,,,,0,,,69,0
49640,note_on,0,0,1,,,,,,,,,0,,,64,114
49640,note_on,0,0,1,,,,,,,,,0,,,65,114
49640,note_on,0,0,1,,,,,,,,,0,,,69,114
49659,note_on,0,0,1,,,,,,,,,0,,,69,114
49659,note_on,19,0,3,,,,,,,,,2,,,41,101
49659,note_on,0,0,1,,,,,,,,,0,,,65,114
49659,note_on,19,0,1,,,,,,,,,0,,,62,114
49659,note_on,0,0,3,,,,,,,,,2,,,53,101
49660,note_on,0,0,3,,,,,,,,,2,,,40,0
49660,note_on,1,0,1,,,,,,,,,0,,,69,0
49660,note_on,0,0,1,,,,,,,,,0,,,64,0
49660,note_on,0,0,1,,,,,,,,,0,,,65,0
49660,note_on,1,0,3,,,,,,,,,2,,,52,0
49679,note_on,19,0,3,,,,,,,,,2,,,41,0
49679,note_on,0,0,1,,,,,,,,,0,,,65,0
49679,note_on,0,0,1,,,,,,,,,0,,,69,0
49679,note_on,0,0,3,,,,,,,,,2,,,53,0
49679,note_on,19,0,1,,,,,,,,,0,,,62,0
49680,note_on,0,0,3,,,,,,,,,2,,,56,75
49680,note_on,0,0,3,,,,,,,,,2,,,44,75
49680,control_change,1,0,3,,,,,,,,,2,64,127,,
49680,note_on,0,0,1,,,,,,,,,0,,,65,88
49680,note_on,0,0,1,,,,,,,,,0,,,62,88
49680,control_change,1,0,1,,,,,,,,,0,64,127,,
49680,note_on,0,0,1,,,,,,,,,0,,,71,88
49700,note_on,0,0,3,,,,,,,,,2,,,43,75
49700,note_on,20,0,3,,,,,,,,,2,,,56,0
49700,note_on,0,0,3,,,,,,,,,2,,,44,0
49700,note_on,0,0,3,,,,,,,,,2,,,55,75
49700,note_on,0,0,1,,,,,,,,,0,,,62,0
49700,note_on,0,0,1,,,,,,,,,0,,,65,88
49700,note_on,0,0,1,,,,,,,,,0,,,71,88
49700,note_on,20,0,1,,,,,,,,,0,,,71,0
49700,note_on,0,0,1,,,,,,,,,0,,,62,88
49700,note_on,0,0,1,,,,,,,,,0,,,65,0
49719,note_on,0,0,3,,,,,,,,,2,,,55,75
49719,note_on,19,0,3,,,,,,,,,2,,,43,75
49719,note_on,0,0,1,,,,,,,,,0,,,71,88
49719,note_on,0,0,1,,,,,,,,,0,,,65,88
49719,note_on,19,0,1,,,,,,,,,0,,,62,88
49720,note_on,0,0,3,,,,,,,,,2,,,43,0
49720,note_on,1,0,3,,,,,,,,,2,,,55,0
49720,note_on,0,0,1,,,,,,,,,0,,,65,0
49720,note_on,1,0,1,,,,,,,,,0,,,71,0
49720,note_on,0,0,1,,,,,,,,,0,,,62,0
49739,note_on,19,0,3,,,,,,,,,2,,,43,0
49739,note_on,0,0,3,,,,,,,,,2,,,55,0
49739,note_on,0,0,1,,,,,,,,,0,,,71,0
49739,note_on,0,0,1,,,,,,,,,0,,,65,0
49739,note_on,19,0,1,,,,,,,,,0,,,62,0
49740,note_on,0,0,1,,,,,,,,,0,,,72,75
49740,note_on,0,0,1,,,,,,,,,0,,,64,75
49740,note_on,1,0,1,,,,,,,,,0,,,60,75
49740,note_on,0,0,3,,,,,,,,,2,,,55,62
49740,note_on,1,0,3,,,,,,,,,2,,,43,62
49744,note_on,4,0,1,,,,,,,,,0,,,72,0
49744,note_on,0,0,3,,,,,,,,,2,,,43,0
49744,note_on,0,0,1,,,,,,,,,0,,,60,0
49744,note_on,0,0,1,,,,,,,,,0,,,64,0
49744,note_on,4,0,3,,,,,,,,,2,,,55,0
49760,note_on,16,0,3,,,,,,,,,2,,,41,62
49760,note_on,0,0,3,,,,,,,,,2,,,53,62
49760,note_on,16,0,1,,,,,,,,,0,,,62,75
49760,note_on,0,0,1,,,,,,,,,0,,,72,75
49760,note_on,0,0,1,,,,,,,,,0,,,65,75
49764,note_on,4,0,3,,,,,,,,,2,,,53,0
49764,note_on,0,0,3,,,,,,,,,2,,,41,0
49764,note_on,4,0,1,,,,,,,,,0,,,72,0
49764,note_on,0,0,1,,,,,,,,,0,,,62,0
49764,note_on,0,0,1,,,,,,,,,0,,,65,0
49779,note_on,0,0,1,,,,,,,,,0,,,72,75
49779,note_on,0,0,1,,,,,,,,,0,,,64,75
49779,note_on,0,0,1,,,,,,,,,0,,,67,75
49779,note_on,0,0,3,,,,,,,,,2,,,52,62
49779,note_on,0,0,3,,,,,,,,,2,,,40,62
49779,control_change,15,0,3,,,,,,,,,2,64,0,,
49779,control_change,15,0,1,,,,,,,,,0,64,0,,
49783,note_on,4,0,1,,,,,,,,,0,,,72,0
49783,note_on,0,0,1,,,,,,,,,0,,,67,0
49783,note_on,0,0,1,,,,,,,,,0,,,64,0
49783,note_on,4,0,3,,,,,,,,,2,,,52,0
49783,note_on,0,0,3,,,,,,,,,2,,,40,0
49800,note_on,0,0,3,,,,,,,,,2,,,50,49
49800,note_on,17,0,3,,,,,,,,,2,,,38,49
49800,note_on,0,0,1,,,,,,,,,0,,,71,62
49800,note_on,0,0,1,,,,,,,,,0,,,67,62
49800,note_on,17,0,1,,,,,,,,,0,,,65,62
49804,note_on,0,0,3,,,,,,,,,2,,,38,0
49804,note_on,0,0,1,,,,,,,,,0,,,65,0
49804,note_on,4,0,3,,,,,,,,,2,,,50,0
49804,note_on,0,0,1,,,,,,,,,0,,,67,0
49804,note_on,4,0,1,,,,,,,,,0,,,71,0
49820,note_on,0,0,1,,,,,,,,,0,,,67,62
49820,note_on,0,0,3,,,,,,,,,2,,,48,49
49820,note_on,16,0,1,,,,,,,,,0,,,65,62
49820,note_on,0,0,1,,,,,,,,,0,,,72,62
49820,note_on,16,0,3,,,,,,,,,2,,,36,49
49824,note_on,0,0,1,,,,,,,,,0,,,65,0
49824,note_on,0,0,1,,,,,,,,,0,,,67,0
49824,note_on,4,0,1,,,,,,,,,0,,,72,0
49824,note_on,0,0,3,,,,,,,,,2,,,36,0
49824,note_on,4,0,3,,,,,,,,,2,,,48,0
49839,note_on,0,0,1,,,,,,,,,0,,,74,62
49839,note_on,0,0,1,,,,,,,,,0,,,67,62
49839,note_on,15,0,1,,,,,,,,,0,,,65,62
49839,note_on,0,0,3,,,,,,,,,2,,,47,49
49839,note_on,15,0,3,,,,,,,,,2,,,35,49
49843,note_on,0,0,1,,,,,,,,,0,,,67,0
49843,note_on,4,0,1,,,,,,,,,0,,,74,0
49843,note_on,0,0,3,,,,,,,,,2,,,35,0
49843,note_on,4,0,3,,,,,,,,,2,,,47,0
49843,note_on,0,0,1,,,,,,,,,0,,,65,0
49860,note_on,0,0,3,,,,,,,,,2,,,35,54
49860,note_on,0,0,3,,,,,,,,,2,,,47,62
49860,note_on,0,0,1,,,,,,,,,0,,,74,75
49860,note_on,0,0,1,,,,,,,,,0,,,67,70
49860,control_change,17,0,1,,,,,,,,,0,64,127,,
49860,control_change,17,0,3,,,,,,,,,2,64,127,,
49860,note_on,0,0,1,,,,,,,,,0,,,65,65
49880,note_on,20,0,3,,,,,,,,,2,,,47,0
49880,note_on,0,0,3,,,,,,,,,2,,,35,0
49880,note_on,0,0,3,,,,,,,,,2,,,36,36
49880,note_on,0,0,1,,,,,,,,,0,,,64,49
49880,note_on,20,0,1,,,,,,,,,0,,,74,0
49880,note_on,0,0,3,,,,,,,,,2,,,48,36
49880,note_on,0,0,1,,,,,,,,,0,,,67,0
49880,note_on,0,0,1,,,,,,,,,0,,,76,49
49880,note_on,0,0,1,,,,,,,,,0,,,67,49
49880,note_on,0,0,1,,,,,,,,,0,,,65,0
49899,note_on,19,0,3,,,,,,,,,2,,,36,36
49899,note_on,0,0,3,,,,,,,,,2,,,48,36
49899,note_on,0,0,1,,,,,,,,,0,,,76,49
49899,note_on,0,0,1,,,,,,,,,0,,,67,49
49899,note_on,19,0,1,,,,,,,,,0,,,64,49
49900,note_on,1,0,3,,,,,,,,,2,,,48,0
49900,note_on,0,0,3,,,,,,,,,2,,,36,0
49900,note_on,0,0,1,,,,,,,,,0,,,67,0
49900,note_on,1,0,1,,,,,,,,,0,,,76,0
49900,note_on,0,0,1,,,,,,,,,0,,,64,0
49903,note_on,0,0,3,,,,,,,,,2,,,48,0
49903,note_on,3,0,3,,,,,,,,,2,,,36,0
49903,note_on,3,0,1,,,,,,,,,0,,,64,0
49903,note_on,0,0,1,,,,,,,,,0,,,67,0
49903,note_on,0,0,1,,,,,,,,,0,,,76,0
49920,note_on,0,0,3,,,,,,,,,2,,,48,62
49920,note_on,17,0,3,,,,,,,,,2,,,36,54
49920,note_on,17,0,1,,,,,,,,,0,,,64,65
49920,note_on,0,0,1,,,,,,,,,0,,,76,75
49920,note_on,0,0,1,,,,,,,,,0,,,67,70
49940,note_on,0,0,1,,,,,,,,,0,,,72,49
49940,note_on,20,0,3,,,,,,,,,2,,,48,0
49940,note_on,0,0,3,,,,,,,,,2,,,36,0
49940,control_change,0,0,3,,,,,,,,,2,64,0,,
49940,note_on,0,0,3,,,,,,,,,2,,,45,36
49940,note_on,0,0,3,,,,,,,,,2,,,57,36
49940,note_on,20,0,1,,,,,,,,,0,,,76,0
49940,note_on,0,0,1,,,,,,,,,0,,,67,0
49940,note_on,0,0,1,,,,,,,,,0,,,64,0
49940,note_on,0,0,1,,,,,,,,,0,,,63,49
49940,control_change,0,0,1,,,,,,,,,0,64,0,,
49940,note_on,0,0,1,,,,,,,,,0,,,66,49
49959,note_on,19,0,3,,,,,,,,,2,,,45,36
49959,note_on,0,0,3,,,,,,,,,2,,,57,36
49959,note_on,0,0,1,,,,,,,,,0,,,72,49
49959,note_on,0,0,1,,,,,,,,,0,,,66,49
49959,note_on,19,0,1,,,,,,,,,0,,,63,49
49960,note_on,1,0,1,,,,,,,,,0,,,72,0
49960,note_on,0,0,1,,,,,,,,,0,,,63,0
49960,note_on,0,0,1,,,,,,,,,0,,,66,0
49960,note_on,1,0,3,,,,,,,,,2,,,57,0
49960,note_on,0,0,3,,,,,,,,,2,,,45,0
49963,note_on,0,0,3,,,,,,,,,2,,,57,0
49963,note_on,3,0,3,,,,,,,,,2,,,45,0
49963,note_on,3,0,1,,,,,,,,,0,,,63,0
49963,note_on,0,0,1,,,,,,,,,0,,,66,0
49963,note_on,0,0,1,,,,,,,,,0,,,72,0
49980,note_on,0,0,1,,,,,,,,,0,,,72,75
49980,note_on,0,0,3,,,,,,,,,2,,,57,62
49980,note_on,17,0,3,,,,,,,,,2,,,43,54
49980,note_on,17,0,1,,,,,,,,,0,,,63,65
49980,note_on,0,0,1,,,,,,,,,0,,,66,70
50000,note_on,0,0,1,,,,,,,,,0,,,74,49
50000,note_on,0,0,1,,,,,,,,,0,,,66,49
50000,note_on,0,0,1,,,,,,,,,0,,,62,49
50000,note_on,0,0,1,,,,,,,,,0,,,63,0
50000,note_on,0,0,1,,,,,,,,,0,,,66,0
50000,note_on,20,0,3,,,,,,,,,2,,,57,0
50000,note_on,0,0,3,,,,,,,,,2,,,43,0
50000,note_on,0,0,3,,,,,,,,,2,,,50,36
50000,note_on,0,0,3,,,,,,,,,2,,,38,36
50000,note_on,20,0,1,,,,,,,,,0,,,72,0
50019,note_on,0,0,3,,,,,,,,,2,,,50,36
50019,note_on,19,0,3,,,,,,,,,2,,,38,36
50019,note_on,19,0,1,,,,,,,,,0,,,60,49
50019,note_on,0,0,1,,,,,,,,,0,,,66,49
50019,note_on,0,0,1,,,,,,,,,0,,,74,49
50020,note_on,1,0,1,,,,,,,,,0,,,74,0
50020,note_on,0,0,1,,,,,,,,,0,,,66,0
50020,note_on,0,0,1,,,,,,,,,0,,,62,0
50020,note_on,1,0,3,,,,,,,,,2,,,50,0
50020,note_on,0,0,3,,,,,,,,,2,,,38,0
50023,note_on,0,0,1,,,,,,,,,0,,,66,0
50023,note_on,3,0,1,,,,,,,,,0,,,60,0
50023,note_on,3,0,3,,,,,,,,,2,,,38,0
50023,note_on,0,0,3,,,,,,,,,2,,,50,0
50023,note_on,0,0,1,,,,,,,,,0,,,74,0
50040,note_on,17,0,3,,,,,,,,,2,,,43,36
50040,note_on,0,0,1,,,,,,,,,0,,,67,49
50040,note_on,17,0,1,,,,,,,,,0,,,59,49
50060,note_on,0,0,1,,,,,,,,,0,,,67,36
50060,note_on,0,0,1,,,,,,,,,0,,,59,0
50060,note_on,20,0,1,,,,,,,,,0,,,67,0
50079,note_on,19,0,1,,,,,,,,,0,,,67,36
50080,note_on,1,0,1,,,,,,,,,0,,,67,0
50099,note_on,19,0,1,,,,,,,,,0,,,67,0
50100,note_on,1,0,1,,,,,,,,,0,,,67,36
50100,note_on,60,0,3,,,,,,,,,2,,,43,0
50120,note_on,0,0,1,,,,,,,,,0,,,67,36
50120,note_on,20,0,1,,,,,,,,,0,,,67,0
50139,note_on,19,0,1,,,,,,,,,0,,,67,36
50140,note_on,1,0,1,,,,,,,,,0,,,67,0
50159,note_on,19,0,1,,,,,,,,,0,,,67,0
50160,note_on,0,0,3,,,,,,,,,2,,,55,36
50160,note_on,60,0,3,,,,,,,,,2,,,52,36
50160,note_on,1,0,1,,,,,,,,,0,,,67,36
50164,note_on,0,0,3,,,,,,,,,2,,,52,0
50164,note_on,4,0,1,,,,,,,,,0,,,67,0
50164,note_on,4,0,3,,,,,,,,,2,,,55,0
50180,note_on,0,0,1,,,,,,,,,0,,,72,36
50180,note_on,16,0,1,,,,,,,,,0,,,67,36
50180,note_on,0,0,3,,,,,,,,,2,,,60,36
50180,note_on,16,0,3,,,,,,,,,2,,,55,36
50184,note_on,4,0,1,,,,,,,,,0,,,72,0
50184,note_on,0,0,3,,,,,,,,,2,,,55,0
50184,note_on,4,0,3,,,,,,,,,2,,,60,0
50184,note_on,0,0,1,,,,,,,,,0,,,67,0
50199,note_on,15,0,1,,,,,,,,,0,,,67,36
50199,note_on,0,0,1,,,,,,,,,0,,,76,36
50199,note_on,0,0,3,,,,,,,,,2,,,64,36
50199,note_on,15,0,3,,,,,,,,,2,,,60,36
50203,note_on,0,0,3,,,,,,,,,2,,,60,0
50203,note_on,0,0,1,,,,,,,,,0,,,67,0
50203,note_on,4,0,1,,,,,,,,,0,,,76,0
50203,note_on,4,0,3,,,,,,,,,2,,,64,0
50220,note_on,0,0,3,,,,,,,,,2,,,60,36
50220,note_on,0,0,3,,,,,,,,,2,,,64,36
50220,control_change,17,0,3,,,,,,,,,2,64,127,,
50220,note_on,0,0,1,,,,,,,,,0,,,67,36
50220,control_change,17,0,1,,,,,,,,,0,64,127,,
50220,note_on,0,0,1,,,,,,,,,0,,,76,36
50240,note_on,0,0,3,,,,,,,,,2,,,62,36
50240,note_on,20,0,3,,,,,,,,,2,,,64,0
50240,note_on,0,0,3,,,,,,,,,2,,,60,0
50240,note_on,0,0,3,,,,,,,,,2,,,65,36
50240,note_on,0,0,1,,,,,,,,,0,,,67,0
50240,note_on,0,0,1,,,,,,,,,0,,,77,36
50240,note_on,0,0,1,,,,,,,,,0,,,67,36
50240,note_on,20,0,1,,,,,,,,,0,,,76,0
50259,note_on,0,0,1,,,,,,,,,0,,,74,36
50259,note_on,19,0,1,,,,,,,,,0,,,67,36
50259,note_on,19,0,3,,,,,,,,,2,,,55,36
50259,note_on,0,0,3,,,,,,,,,2,,,62,36
50260,note_on,1,0,1,,,,,,,,,0,,,77,0
50260,note_on,0,0,1,,,,,,,,,0,,,67,0
50260,note_on,1,0,3,,,,,,,,,2,,,65,0
50260,note_on,0,0,3,,,,,,,,,2,,,62,0
50263,note_on,0,0,1,,,,,,,,,0,,,74,0
50263,note_on,3,0,1,,,,,,,,,0,,,67,0
50263,note_on,0,0,3,,,,,,,,,2,,,62,0
50263,note_on,3,0,3,,,,,,,,,2,,,55,0
50280,note_on,17,0,1,,,,,,,,,0,,,67,36
50280,note_on,0,0,1,,,,,,,,,0,,,74,36
50280,note_on,0,0,3,,,,,,,,,2,,,62,36
50280,note_on,17,0,3,,,,,,,,,2,,,55,36
50284,note_on,4,0,1,,,,,,,,,0,,,74,0
50284,note_on,0,0,1,,,,,,,,,0,,,67,0
50284,note_on,0,0,3,,,,,,,,,2,,,55,0
50284,note_on,4,0,3,,,,,,,,,2,,,62,0
50300,note_on,0,0,3,,,,,,,,,2,,,62,36
50300,note_on,0,0,1,,,,,,,,,0,,,74,36
50300,note_on,16,0,1,,,,,,,,,0,,,67,36
50300,note_on,16,0,3,,,,,,,,,2,,,55,36
50304,note_on,0,0,1,,,,,,,,,0,,,67,0
50304,note_on,4,0,1,,,,,,,,,0,,,74,0
50304,note_on,4,0,3,,,,,,,,,2,,,62,0
50304,note_on,0,0,3,,,,,,,,,2,,,55,0
50319,note_on,0,0,3,,,,,,,,,2,,,62,36
50319,note_on,0,0,3,,,,,,,,,2,,,55,36
50319,note_on,0,0,1,,,,,,,,,0,,,67,36
50319,note_on,0,0,1,,,,,,,,,0,,,74,36
50319,control_change,15,0,1,,,,,,,,,0,64,0,,
50319,control_change,15,0,3,,,,,,,,,2,64,0,,
50323,note_on,0,0,1,,,,,,,,,0,,,67,0
50323,note_on,4,0,1,,,,,,,,,0,,,74,0
50323,note_on,0,0,3,,,,,,,,,2,,,55,0
50323,note_on,4,0,3,,,,,,,,,2,,,62,0
50340,note_on,1741,0,2,,,,,,,,,1,,,67,36
50340,note_on,17,0,3,,,,,,,,,2,,,62,36
50340,note_on,17,0,1,,,,,,,,,0,,,76,36
50340,note_on,0,0,3,,,,,,,,,2,,,65,36
50349,note_on,9,0,1,,,,,,,,,0,,,77,36
50350,note_on,1,0,1,,,,,,,,,0,,,76,0
50359,note_on,9,0,1,,,,,,,,,0,,,77,0
50360,note_on,20,0,3,,,,,,,,,2,,,65,0
50360,note_on,1,0,1,,,,,,,,,0,,,77,36
50360,note_on,20,0,2,,,,,,,,,1,,,67,0
50360,note_on,0,0,2,,,,,,,,,1,,,67,36
50360,note_on,0,0,3,,,,,,,,,2,,,64,36
50360,note_on,0,0,3,,,,,,,,,2,,,60,36
50360,note_on,0,0,3,,,,,,,,,2,,,62,0
50370,note_on,10,0,1,,,,,,,,,0,,,77,0
50370,note_on,0,0,1,,,,,,,,,0,,,76,36
50379,note_on,19,0,3,,,,,,,,,2,,,55,36
50379,note_on,19,0,2,,,,,,,,,1,,,67,36
50379,note_on,0,0,3,,,,,,,,,2,,,62,36
50379,note_on,9,0,1,,,,,,,,,0,,,76,36
50380,note_on,1,0,2,,,,,,,,,1,,,67,0
50380,note_on,1,0,3,,,,,,,,,2,,,64,0
50380,note_on,1,0,1,,,,,,,,,0,,,76,0
50380,note_on,0,0,3,,,,,,,,,2,,,60,0
50389,note_on,9,0,1,,,,,,,,,0,,,76,0
50390,note_on,1,0,1,,,,,,,,,0,,,74,36
50399,note_on,19,0,2,,,,,,,,,1,,,67,0
50399,note_on,19,0,3,,,,,,,,,2,,,55,0
50399,note_on,0,0,3,,,,,,,,,2,,,62,0
50400,note_on,0,0,1,,,,,,,,,0,,,67,36
50400,control_change,1,0,3,,,,,,,,,2,64,127,,
50400,note_on,0,0,3,,,,,,,,,2,,,55,36
50400,note_on,0,0,3,,,,,,,,,2,,,62,36
50400,note_on,10,0,1,,,,,,,,,0,,,74,0
50400,control_change,0,0,1,,,,,,,,,0,64,127,,
50400,note_on,0,0,1,,,,,,,,,0,,,74,36
50420,note_on,0,0,3,,,,,,,,,2,,,64,36
50420,note_on,20,0,1,,,,,,,,,0,,,74,0
50420,note_on,0,0,1,,,,,,,,,0,,,67,0
50420,note_on,0,0,1,,,,,,,,,0,,,67,36
50420,note_on,0,0,1,,,,,,,,,0,,,76,36
50420,note_on,20,0,3,,,,,,,,,2,,,62,0
50420,note_on,0,0,3,,,,,,,,,2,,,60,36
50420,note_on,0,0,3,,,,,,,,,2,,,55,0
50439,note_on,19,0,1,,,,,,,,,0,,,67,36
50439,note_on,0,0,3,,,,,,,,,2,,,60,36
50439,note_on,19,0,3,,,,,,,,,2,,,52,36
50439,note_on,0,0,1,,,,,,,,,0,,,72,36
50440,note_on,1,0,1,,,,,,,,,0,,,76,0
50440,note_on,0,0,1,,,,,,,,,0,,,67,0
50440,note_on,1,0,3,,,,,,,,,2,,,64,0
50440,note_on,0,0,3,,,,,,,,,2,,,60,0
50443,note_on,3,0,3,,,,,,,,,2,,,52,0
50443,note_on,0,0,3,,,,,,,,,2,,,60,0
50443,note_on,0,0,1,,,,,,,,,0,,,72,0
50443,note_on,3,0,1,,,,,,,,,0,,,67,0
50460,note_on,17,0,1,,,,,,,,,0,,,72,36
50460,note_on,17,0,3,,,,,,,,,2,,,52,36
50460,note_on,0,0,3,,,,,,,,,2,,,60,36
50460,control_change,61,0,2,,,,,,,,,1,64,127,,
50460,note_on,0,0,2,,,,,,,,,1,,,67,36
50464,note_on,0,0,3,,,,,,,,,2,,,52,0
50464,note_on,4,0,3,,,,,,,,,2,,,60,0
50464,note_on,4,0,2,,,,,,,,,1,,,67,0
50464,note_on,4,0,1,,,,,,,,,0,,,72,0
50480,note_on,16,0,2,,,,,,,,,1,,,67,36
50480,note_on,0,0,3,,,,,,,,,2,,,60,36
50480,note_on,16,0,3,,,,,,,,,2,,,52,36
50480,note_on,16,0,1,,,,,,,,,0,,,72,36
50484,note_on,4,0,1,,,,,,,,,0,,,72,0
50484,note_on,4,0,2,,,,,,,,,1,,,67,0
50484,note_on,4,0,3,,,,,,,,,2,,,60,0
50484,note_on,0,0,3,,,,,,,,,2,,,52,0
50499,note_on,15,0,1,,,,,,,,,0,,,72,36
50499,control_change,15,0,2,,,,,,,,,1,64,0,,
50499,control_change,15,0,3,,,,,,,,,2,64,0,,
50499,note_on,0,0,3,,,,,,,,,2,,,55,36
50499,note_on,0,0,3,,,,,,,,,2,,,62,36
50499,note_on,0,0,2,,,,,,,,,1,,,67,36
50503,note_on,4,0,2,,,,,,,,,1,,,67,0
50503,note_on,0,0,3,,,,,,,,,2,,,55,0
50503,note_on,4,0,3,,,,,,,,,2,,,62,0
50509,note_on,10,0,1,,,,,,,,,0,,,72,0
50510,control_change,1,0,1,,,,,,,,,0,64,0,,
50510,note_on,0,0,1,,,,,,,,,0,,,74,36
50520,note_on,10,0,1,,,,,,,,,0,,,74,0
50520,note_on,0,0,1,,,,,,,,,0,,,74,36
50520,note_on,17,0,3,,,,,,,,,2,,,60,36
50520,note_on,0,0,3,,,,,,,,,2,,,63,36
50520,note_on,0,0,3,,,,,,,,,2,,,67,36
50524,note_on,0,0,3,,,,,,,,,2,,,63,0
50524,note_on,0,0,3,,,,,,,,,2,,,60,0
50524,note_on,4,0,3,,,,,,,,,2,,,67,0
50529,note_on,9,0,1,,,,,,,,,0,,,75,36
50530,note_on,1,0,1,,,,,,,,,0,,,74,0
50539,note_on,9,0,1,,,,,,,,,0,,,75,0
50540,note_on,1,0,1,,,,,,,,,0,,,75,36
50540,note_on,0,0,3,,,,,,,,,2,,,65,36
50540,note_on,0,0,3,,,,,,,,,2,,,67,36
50540,note_on,16,0,3,,,,,,,,,2,,,62,36
50544,note_on,4,0,3,,,,,,,,,2,,,67,0
50544,note_on,0,0,3,,,,,,,,,2,,,62,0
50544,note_on,0,0,3,,,,,,,,,2,,,65,0
50550,note_on,10,0,1,,,,,,,,,0,,,75,0
50550,note_on,0,0,1,,,,,,,,,0,,,77,36
50559,note_on,15,0,3,,,,,,,,,2,,,63,36
50559,note_on,9,0,1,,,,,,,,,0,,,77,36
50559,note_on,0,0,3,,,,,,,,,2,,,67,36
50560,note_on,1,0,1,,,,,,,,,0,,,77,0
50563,note_on,4,0,3,,,,,,,,,2,,,67,0
50563,note_on,0,0,3,,,,,,,,,2,,,63,0
50569,note_on,9,0,1,,,,,,,,,0,,,77,0
50570,note_on,1,0,1,,,,,,,,,0,,,79,36
50580,note_on,0,0,1,,,,,,,,,0,,,79,36
50580,note_on,0,0,1,,,,,,,,,0,,,67,36
50580,control_change,0,0,1,,,,,,,,,0,64,127,,
50580,note_on,10,0,1,,,,,,,,,0,,,79,0
50580,control_change,17,0,3,,,,,,,,,2,64,127,,
50580,note_on,0,0,3,,,,,,,,,2,,,63,36
50600,note_on,0,0,1,,,,,,,,,0,,,67,0
50600,note_on,0,0,1,,,,,,,,,0,,,80,36
50600,note_on,20,0,3,,,,,,,,,2,,,63,0
50600,note_on,0,0,3,,,,,,,,,2,,,65,36
50600,note_on,20,0,1,,,,,,,,,0,,,79,0
50600,note_on,0,0,1,,,,,,,,,0,,,68,36
50619,note_on,19,0,1,,,,,,,,,0,,,68,36
50619,note_on,19,0,3,,,,,,,,,2,,,56,36
50619,note_on,0,0,3,,,,,,,,,2,,,65,36
50619,note_on,0,0,1,,,,,,,,,0,,,77,36
50620,note_on,1,0,3,,,,,,,,,2,,,65,0
50620,note_on,1,0,1,,,,,,,,,0,,,80,0
50620,note_on,0,0,1,,,,,,,,,0,,,68,0
50639,note_on,0,0,1,,,,,,,,,0,,,77,0
50639,note_on,0,0,3,,,,,,,,,2,,,56,0
50639,note_on,19,0,3,,,,,,,,,2,,,65,0
50639,note_on,19,0,1,,,,,,,,,0,,,68,0
50640,note_on,0,0,3,,,,,,,,,2,,,65,36
50640,note_on,1,0,3,,,,,,,,,2,,,56,36
50640,note_on,1,0,1,,,,,,,,,0,,,68,36
50640,note_on,0,0,1,,,,,,,,,0,,,73,36
50640,set_tempo,2220,1,0,,,,,,1363636,,,,,,,
50660,note_on,0,0,1,,,,,,,,,0,,,68,0
50660,note_on,0,0,3,,,,,,,,,2,,,56,0
50660,note_on,20,0,3,,,,,,,,,2,,,65,0
50660,note_on,20,0,1,,,,,,,,,0,,,73,0
50660,note_on,0,0,3,,,,,,,,,2,,,56,36
50660,note_on,0,0,1,,,,,,,,,0,,,68,36
50660,note_on,0,0,1,,,,,,,,,0,,,73,36
50660,note_on,0,0,3,,,,,,,,,2,,,65,36
50679,note_on,0,0,1,,,,,,,,,0,,,73,36
50679,control_change,19,0,3,,,,,,,,,2,64,0,,
50679,note_on,0,0,3,,,,,,,,,2,,,56,36
50679,note_on,0,0,3,,,,,,,,,2,,,65,36
50679,control_change,19,0,1,,,,,,,,,0,64,0,,
50679,note_on,0,0,1,,,,,,,,,0,,,68,36
50680,note_on,1,0,1,,,,,,,,,0,,,73,0
50680,note_on,1,0,3,,,,,,,,,2,,,65,0
50680,note_on,0,0,3,,,,,,,,,2,,,56,0
50680,note_on,0,0,1,,,,,,,,,0,,,68,0
50699,note_on,19,0,1,,,,,,,,,0,,,68,0
50699,note_on,0,0,1,,,,,,,,,0,,,73,0
50699,note_on,19,0,3,,,,,,,,,2,,,56,0
50699,note_on,0,0,3,,,,,,,,,2,,,65,0
50700,note_on,1,0,1,,,,,,,,,0,,,68,36
50700,note_on,1,0,3,,,,,,,,,2,,,56,36
50700,note_on,0,0,3,,,,,,,,,2,,,65,36
50700,note_on,0,0,1,,,,,,,,,0,,,73,36
50700,set_tempo,60,1,0,,,,,,1500000,,,,,,,
50704,note_on,0,0,1,,,,,,,,,0,,,68,0
50704,note_on,4,0,1,,,,,,,,,0,,,73,0
50720,note_on,0,0,3,,,,,,,,,2,,,56,0
50720,note_on,0,0,3,,,,,,,,,2,,,65,36
50720,note_on,0,0,3,,,,,,,,,2,,,56,36
50720,note_on,16,0,1,,,,,,,,,0,,,68,36
50720,note_on,20,0,3,,,,,,,,,2,,,65,0
50720,note_on,0,0,1,,,,,,,,,0,,,77,36
50724,note_on,0,0,1,,,,,,,,,0,,,68,0
50724,note_on,4,0,1,,,,,,,,,0,,,77,0
50739,note_on,0,0,1,,,,,,,,,0,,,75,36
50739,note_on,0,0,3,,,,,,,,,2,,,66,36
50739,note_on,19,0,3,,,,,,,,,2,,,56,36
50739,note_on,15,0,1,,,,,,,,,0,,,72,36
50740,note_on,0,0,3,,,,,,,,,2,,,56,0
50740,note_on,1,0,3,,,,,,,,,2,,,65,0
50743,note_on,0,0,1,,,,,,,,,0,,,72,0
50743,note_on,4,0,1,,,,,,,,,0,,,75,0
50759,note_on,0,0,3,,,,,,,,,2,,,66,0
50759,note_on,19,0,3,,,,,,,,,2,,,56,0
50760,set_tempo,0,1,0,,,,,,1363636,,,,,,,
50760,time_signature,60,1,0,2,8,12,8,,,,,,,,,
50760,note_on,0,0,1,,,,,,,,,0,,,72,36
50760,note_on,0,0,1,,,,,,,,,0,,,68,36
50760,control_change,17,0,1,,,,,,,,,0,64,127,,
50760,control_change,1,0,3,,,,,,,,,2,64,127,,
50760,note_on,0,0,1,,,,,,,,,0,,,75,36
50760,note_on,0,0,3,,,,,,,,,2,,,56,36
50760,note_on,0,0,3,,,,,,,,,2,,,66,36
50780,note_on,0,0,1,,,,,,,,,0,,,73,36
50780,note_on,0,0,3,,,,,,,,,2,,,65,36
50780,note_on,0,0,1,,,,,,,,,0,,,68,0
50780,note_on,0,0,1,,,,,,,,,0,,,72,0
50780,note_on,20,0,1,,,,,,,,,0,,,75,0
50780,note_on,0,0,1,,,,,,,,,0,,,68,36
50780,note_on,0,0,3,,,,,,,,,2,,,56,0
50780,note_on,0,0,3,,,,,,,,,2,,,61,36
50780,note_on,20,0,3,,,,,,,,,2,,,66,0
50799,note_on,19,0,3,,,,,,,,,2,,,61,36
50799,note_on,0,0,3,,,,,,,,,2,,,65,36
50799,note_on,19,0,1,,,,,,,,,0,,,68,36
50799,note_on,0,0,1,,,,,,,,,0,,,73,36
50800,note_on,1,0,3,,,,,,,,,2,,,65,0
50800,note_on,0,0,1,,,,,,,,,0,,,68,0
50800,note_on,1,0,1,,,,,,,,,0,,,73,0
50800,note_on,0,0,3,,,,,,,,,2,,,61,0
50819,note_on,19,0,1,,,,,,,,,0,,,68,0
50819,note_on,0,0,1,,,,,,,,,0,,,73,0
50819,note_on,19,0,3,,,,,,,,,2,,,61,0
50819,note_on,0,0,3,,,,,,,,,2,,,65,0
50820,set_tempo,60,1,0,,,,,,1500000,,,,,,,
50820,note_on,1,0,1,,,,,,,,,0,,,68,36
50820,note_on,0,0,1,,,,,,,,,0,,,73,36
50820,note_on,1,0,3,,,,,,,,,2,,,61,36
50820,note_on,0,0,3,,,,,,,,,2,,,65,36
50840,note_on,0,0,1,,,,,,,,,0,,,68,36
50840,note_on,0,0,1,,,,,,,,,0,,,68,0
50840,note_on,20,0,1,,,,,,,,,0,,,73,0
50840,note_on,20,0,3,,,,,,,,,2,,,65,0
50840,note_on,0,0,3,,,,,,,,,2,,,61,0
50840,note_on,0,0,3,,,,,,,,,2,,,61,36
50840,note_on,0,0,3,,,,,,,,,2,,,65,36
50840,note_on,0,0,1,,,,,,,,,0,,,73,36
50859,control_change,19,0,3,,,,,,,,,2,64,0,,
50859,note_on,0,0,3,,,,,,,,,2,,,61,36
50859,note_on,0,0,3,,,,,,,,,2,,,65,36
50859,control_change,19,0,1,,,,,,,,,0,64,0,,
50859,note_on,0,0,1,,,,,,,,,0,,,68,36
50859,note_on,0,0,1,,,,,,,,,0,,,73,36
50860,note_on,1,0,1,,,,,,,,,0,,,73,0
50860,note_on,0,0,3,,,,,,,,,2,,,61,0
50860,note_on,1,0,3,,,,,,,,,2,,,65,0
50860,note_on,0,0,1,,,,,,,,,0,,,68,0
50879,note_on,0,0,3,,,,,,,,,2,,,65,0
50879,note_on,19,0,3,,,,,,,,,2,,,61,0
50879,note_on,19,0,1,,,,,,,,,0,,,68,0
50879,note_on,0,0,1,,,,,,,,,0,,,73,0
50880,note_on,0,0,1,,,,,,,,,0,,,77,36
50880,set_tempo,0,1,0,,,,,,1363636,,,,,,,
50880,time_signature,60,1,0,1,8,12,8,,,,,,,,,
50880,note_on,0,0,3,,,,,,,,,2,,,65,36
50880,note_on,1,0,3,,,,,,,,,2,,,60,36
50880,note_on,1,0,1,,,,,,,,,0,,,68,36
50884,note_on,4,0,1,,,,,,,,,0,,,77,0
50884,note_on,0,0,1,,,,,,,,,0,,,68,0
50884,note_on,0,0,3,,,,,,,,,2,,,60,0
50884,note_on,4,0,3,,,,,,,,,2,,,65,0
50900,note_on,0,0,3,,,,,,,,,2,,,65,36
50900,note_on,16,0,3,,,,,,,,,2,,,60,36
50900,note_on,16,0,1,,,,,,,,,0,,,68,36
50900,note_on,0,0,1,,,,,,,,,0,,,79,36
50904,note_on,0,0,3,,,,,,,,,2,,,60,0
50904,note_on,4,0,3,,,,,,,,,2,,,65,0
50904,note_on,4,0,1,,,,,,,,,0,,,79,0
50904,note_on,0,0,1,,,,,,,,,0,,,68,0
50919,note_on,15,0,3,,,,,,,,,2,,,60,36
50919,note_on,15,0,1,,,,,,,,,0,,,68,36
50919,note_on,0,0,1,,,,,,,,,0,,,80,36
50919,note_on,0,0,3,,,,,,,,,2,,,65,36
50923,note_on,4,0,3,,,,,,,,,2,,,65,0
50923,note_on,0,0,3,,,,,,,,,2,,,60,0
50923,note_on,4,0,1,,,,,,,,,0,,,80,0
50923,note_on,0,0,1,,,,,,,,,0,,,68,0
50940,set_tempo,0,1,0,,,,,,1363636,,,,,,,
50940,note_on,0,0,3,,,,,,,,,2,,,65,36
50940,note_on,0,0,3,,,,,,,,,2,,,60,36
50940,control_change,17,0,3,,,,,,,,,2,64,127,,
50940,control_change,17,0,1,,,,,,,,,0,64,127,,
50940,note_on,0,0,1,,,,,,,,,0,,,68,36
50940,note_on,0,0,1,,,,,,,,,0,,,80,36
50940,time_signature,60,1,0,3,8,12,8,,,,,,,,,
50960,note_on,20,0,3,,,,,,,,,2,,,65,0
50960,note_on,0,0,3,,,,,,,,,2,,,59,36
50960,note_on,20,0,1,,,,,,,,,0,,,80,0
50960,note_on,0,0,1,,,,,,,,,0,,,68,0
50960,note_on,0,0,1,,,,,,,,,0,,,67,36
50960,note_on,0,0,1,,,,,,,,,0,,,79,36
50960,note_on,0,0,3,,,,,,,,,2,,,60,0
50960,note_on,0,0,3,,,,,,,,,2,,,65,36
50979,note_on,19,0,1,,,,,,,,,0,,,67,36
50979,note_on,0,0,1,,,,,,,,,0,,,79,36
50979,note_on,0,0,3,,,,,,,,,2,,,65,36
50979,note_on,19,0,3,,,,,,,,,2,,,59,36
50980,note_on,0,0,3,,,,,,,,,2,,,59,0
50980,note_on,1,0,3,,,,,,,,,2,,,65,0
50980,note_on,0,0,1,,,,,,,,,0,,,67,0
50980,note_on,1,0,1,,,,,,,,,0,,,79,0
50983,note_on,0,0,1,,,,,,,,,0,,,79,0
50983,note_on,3,0,1,,,,,,,,,0,,,67,0
50983,note_on,3,0,3,,,,,,,,,2,,,59,0
50983,note_on,0,0,3,,,,,,,,,2,,,65,0
51000,note_on,0,0,1,,,,,,,,,0,,,79,36
51000,note_on,17,0,1,,,,,,,,,0,,,67,36
51000,note_on,17,0,3,,,,,,,,,2,,,59,36
51000,note_on,0,0,3,,,,,,,,,2,,,65,36
51000,set_tempo,60,1,0,,,,,,1500000,,,,,,,
51004,note_on,0,0,1,,,,,,,,,0,,,67,0
51004,note_on,4,0,3,,,,,,,,,2,,,65,0
51004,note_on,0,0,3,,,,,,,,,2,,,59,0
51004,note_on,4,0,1,,,,,,,,,0,,,79,0
51020,note_on,16,0,3,,,,,,,,,2,,,59,36
51020,note_on,0,0,3,,,,,,,,,2,,,67,36
51020,note_on,0,0,3,,,,,,,,,2,,,62,36
51020,note_on,0,0,1,,,,,,,,,0,,,86,36
51020,note_on,16,0,1,,,,,,,,,0,,,74,36
51024,note_on,4,0,1,,,,,,,,,0,,,86,0
51024,note_on,0,0,3,,,,,,,,,2,,,59,0
51024,note_on,0,0,1,,,,,,,,,0,,,74,0
51024,note_on,0,0,3,,,,,,,,,2,,,62,0
51024,note_on,4,0,3,,,,,,,,,2,,,67,0
51039,note_on,0,0,3,,,,,,,,,2,,,60,36
51039,note_on,0,0,3,,,,,,,,,2,,,67,36
51039,control_change,15,0,1,,,,,,,,,0,64,0,,
51039,note_on,0,0,1,,,,,,,,,0,,,76,36
51039,note_on,0,0,1,,,,,,,,,0,,,88,36
51039,control_change,15,0,3,,,,,,,,,2,64,0,,
51039,note_on,0,0,3,,,,,,,,,2,,,64,36
51043,note_on,4,0,3,,,,,,,,,2,,,67,0
51043,note_on,0,0,3,,,,,,,,,2,,,64,0
51043,note_on,4,0,1,,,,,,,,,0,,,88,0
51043,note_on,0,0,3,,,,,,,,,2,,,60,0
51043,note_on,0,0,1,,,,,,,,,0,,,76,0
51060,note_on,0,0,3,,,,,,,,,2,,,65,36
51060,note_on,0,0,3,,,,,,,,,2,,,67,36
51060,note_on,0,0,1,,,,,,,,,0,,,89,36
51060,note_on,17,0,1,,,,,,,,,0,,,77,36
51060,note_on,17,0,3,,,,,,,,,2,,,62,36
51060,set_tempo,60,1,0,,,,,,1666667,,,,,,,
51064,note_on,4,0,3,,,,,,,,,2,,,67,0
51064,note_on,0,0,3,,,,,,,,,2,,,62,0
51064,note_on,0,0,1,,,,,,,,,0,,,77,0
51064,note_on,4,0,1,,,,,,,,,0,,,89,0
51064,note_on,0,0,3,,,,,,,,,2,,,65,0
51080,note_on,16,0,3,,,,,,,,,2,,,64,36
51080,note_on,0,0,3,,,,,,,,,2,,,67,36
51080,note_on,16,0,1,,,,,,,,,0,,,79,36
51080,note_on,0,0,1,,,,,,,,,0,,,91,36
51084,note_on,4,0,1,,,,,,,,,0,,,91,0
51084,note_on,0,0,1,,,,,,,,,0,,,79,0
51084,note_on,4,0,3,,,,,,,,,2,,,67,0
51084,note_on,0,0,3,,,,,,,,,2,,,64,0
51099,note_on,0,0,1,,,,,,,,,0,,,93,36
51099,note_on,15,0,1,,,,,,,,,0,,,81,36
51099,note_on,15,0,3,,,,,,,,,2,,,65,36
51099,note_on,0,0,3,,,,,,,,,2,,,69,36
51103,note_on,4,0,1,,,,,,,,,0,,,93,0
51103,note_on,4,0,3,,,,,,,,,2,,,69,0
51103,note_on,0,0,3,,,,,,,,,2,,,65,0
51103,note_on,0,0,1,,,,,,,,,0,,,81,0
51120,control_change,17,0,1,,,,,,,,,0,64,127,,
51120,set_tempo,60,1,0,,,,,,1250000,,,,,,,
51120,note_on,0,0,1,,,,,,,,,0,,,93,36
51120,note_on,0,0,1,,,,,,,,,0,,,81,36
51120,control_change,17,0,3,,,,,,,,,2,64,127,,
51120,note_on,0,0,3,,,,,,,,,2,,,62,36
51120,note_on,0,0,3,,,,,,,,,2,,,65,36
51140,note_on,0,0,3,,,,,,,,,2,,,64,36
51140,note_on,0,0,3,,,,,,,,,2,,,60,36
51140,note_on,0,0,1,,,,,,,,,0,,,79,36
51140,note_on,0,0,1,,,,,,,,,0,,,81,0
51140,note_on,0,0,1,,,,,,,,,0,,,91,36
51140,note_on,20,0,3,,,,,,,,,2,,,65,0
51140,note_on,0,0,3,,,,,,,,,2,,,62,0
51140,note_on,20,0,1,,,,,,,,,0,,,93,0
51159,note_on,19,0,1,,,,,,,,,0,,,76,36
51159,note_on,0,0,1,,,,,,,,,0,,,88,36
51159,note_on,0,0,3,,,,,,,,,2,,,60,36
51159,note_on,19,0,3,,,,,,,,,2,,,57,36
51160,note_on,0,0,3,,,,,,,,,2,,,60,0
51160,note_on,1,0,1,,,,,,,,,0,,,91,0
51160,note_on,0,0,1,,,,,,,,,0,,,79,0
51160,note_on,1,0,3,,,,,,,,,2,,,64,0
51163,note_on,3,0,1,,,,,,,,,0,,,76,0
51163,note_on,0,0,1,,,,,,,,,0,,,88,0
51163,note_on,0,0,3,,,,,,,,,2,,,60,0
51163,note_on,3,0,3,,,,,,,,,2,,,57,0
51180,control_change,17,0,3,,,,,,,,,2,64,0,,
51180,note_on,0,0,3,,,,,,,,,2,,,60,36
51180,control_change,17,0,1,,,,,,,,,0,64,0,,
51180,note_on,0,0,1,,,,,,,,,0,,,72,36
51180,note_on,0,0,1,,,,,,,,,0,,,84,36
51180,note_on,0,0,3,,,,,,,,,2,,,52,36
51184,note_on,4,0,3,,,,,,,,,2,,,60,0
51184,note_on,0,0,3,,,,,,,,,2,,,52,0
51184,note_on,0,0,1,,,,,,,,,0,,,72,0
51184,note_on,4,0,1,,,,,,,,,0,,,84,0
51200,note_on,0,0,1,,,,,,,,,0,,,84,36
51200,note_on,16,0,3,,,,,,,,,2,,,52,36
51200,note_on,16,0,1,,,,,,,,,0,,,72,36
51200,note_on,0,0,3,,,,,,,,,2,,,60,36
51204,note_on,0,0,1,,,,,,,,,0,,,72,0
51204,note_on,4,0,1,,,,,,,,,0,,,84,0
51204,note_on,4,0,3,,,,,,,,,2,,,60,0
51204,note_on,0,0,3,,,,,,,,,2,,,52,0
51219,note_on,0,0,1,,,,,,,,,0,,,84,36
51219,note_on,15,0,1,,,,,,,,,0,,,72,36
51219,note_on,0,0,3,,,,,,,,,2,,,60,36
51219,note_on,15,0,3,,,,,,,,,2,,,52,36
51223,note_on,0,0,3,,,,,,,,,2,,,52,0
51223,note_on,4,0,3,,,,,,,,,2,,,60,0
51223,note_on,0,0,1,,,,,,,,,0,,,72,0
51223,note_on,4,0,1,,,,,,,,,0,,,84,0
51240,note_on,0,0,2,,,,,,,,,1,,,72,36
51240,note_on,17,0,1,,,,,,,,,0,,,84,67
51240,note_on,0,0,1,,,,,,,,,0,,,96,75
51240,note_on,737,0,2,,,,,,,,,1,,,64,36
51260,note_on,0,0,1,,,,,,,,,0,,,84,0
51260,note_on,0,0,2,,,,,,,,,1,,,64,0
51260,note_on,0,0,1,,,,,,,,,0,,,88,49
51260,note_on,0,0,2,,,,,,,,,1,,,67,36
51260,note_on,0,0,2,,,,,,,,,1,,,76,36
51260,note_on,20,0,1,,,,,,,,,0,,,96,0
51260,note_on,20,0,2,,,,,,,,,1,,,72,0
51260,note_on,0,0,1,,,,,,,,,0,,,100,49
51279,note_on,0,0,1,,,,,,,,,0,,,98,49
51279,note_on,0,0,2,,,,,,,,,1,,,74,36
51279,note_on,19,0,2,,,,,,,,,1,,,68,36
51279,note_on,19,0,1,,,,,,,,,0,,,86,49
51280,note_on,1,0,2,,,,,,,,,1,,,76,0
51280,note_on,0,0,2,,,,,,,,,1,,,67,0
51280,note_on,1,0,1,,,,,,,,,0,,,100,0
51280,note_on,0,0,1,,,,,,,,,0,,,88,0
51299,note_on,0,0,2,,,,,,,,,1,,,74,0
51299,note_on,19,0,1,,,,,,,,,0,,,86,0
51299,note_on,0,0,1,,,,,,,,,0,,,98,0
51299,note_on,19,0,2,,,,,,,,,1,,,68,0
51300,control_change,1,0,2,,,,,,,,,1,64,127,,
51300,note_on,0,0,2,,,,,,,,,1,,,69,36
51300,note_on,0,0,2,,,,,,,,,1,,,72,36
51300,control_change,1,0,1,,,,,,,,,0,64,127,,
51300,note_on,0,0,1,,,,,,,,,0,,,84,67
51300,note_on,0,0,1,,,,,,,,,0,,,96,75
51300,set_tempo,180,1,0,,,,,,1250000,,,,,,,
51320,note_on,20,0,1,,,,,,,,,0,,,96,0
51320,note_on,20,0,2,,,,,,,,,1,,,72,0
51320,note_on,0,0,2,,,,,,,,,1,,,64,36
51320,note_on,0,0,2,,,,,,,,,1,,,71,36
51320,note_on,0,0,1,,,,,,,,,0,,,83,49
51320,note_on,0,0,2,,,,,,,,,1,,,69,0
51320,note_on,0,0,1,,,,,,,,,0,,,84,0
51320,note_on,0,0,1,,,,,,,,,0,,,95,49
51339,note_on,19,0,1,,,,,,,,,0,,,81,49
51339,note_on,0,0,1,,,,,,,,,0,,,93,49
51339,note_on,0,0,2,,,,,,,,,1,,,69,36
51339,note_on,19,0,2,,,,,,,,,1,,,65,36
51340,note_on,0,0,2,,,,,,,,,1,,,64,0
51340,note_on,1,0,2,,,,,,,,,1,,,71,0
51340,note_on,0,0,1,,,,,,,,,0,,,83,0
51340,note_on,1,0,1,,,,,,,,,0,,,95,0
51359,note_on,0,0,1,,,,,,,,,0,,,93,0
51359,note_on,19,0,1,,,,,,,,,0,,,81,0
51359,note_on,19,0,2,,,,,,,,,1,,,65,0
51359,note_on,0,0,2,,,,,,,,,1,,,69,0
51360,note_on,1,0,2,,,,,,,,,1,,,64,36
51360,note_on,0,0,2,,,,,,,,,1,,,67,36
51360,note_on,0,0,1,,,,,,,,,0,,,91,75
51360,note_on,1,0,1,,,,,,,,,0,,,79,67
51380,note_on,0,0,1,,,,,,,,,0,,,79,0
51380,note_on,20,0,1,,,,,,,,,0,,,91,0
51380,note_on,0,0,1,,,,,,,,,0,,,77,49
51380,note_on,0,0,1,,,,,,,,,0,,,89,49
51380,note_on,20,0,2,,,,,,,,,1,,,67,0
51380,note_on,0,0,2,,,,,,,,,1,,,64,0
51380,note_on,0,0,2,,,,,,,,,1,,,62,36
51380,note_on,0,0,2,,,,,,,,,1,,,65,36
51399,note_on,0,0,2,,,,,,,,,1,,,64,36
51399,control_change,19,0,1,,,,,,,,,0,64,0,,
51399,note_on,0,0,1,,,,,,,,,0,,,76,49
51399,note_on,0,0,1,,,,,,,,,0,,,88,49
51399,control_change,19,0,2,,,,,,,,,1,64,0,,
51399,note_on,0,0,2,,,,,,,,,1,,,60,36
51400,note_on,1,0,1,,,,,,,,,0,,,89,0
51400,note_on,0,0,2,,,,,,,,,1,,,62,0
51400,note_on,1,0,2,,,,,,,,,1,,,65,0
51400,note_on,0,0,1,,,,,,,,,0,,,77,0
51419,note_on,0,0,1,,,,,,,,,0,,,88,0
51419,note_on,0,0,2,,,,,,,,,1,,,64,0
51419,note_on,19,0,2,,,,,,,,,1,,,60,0
51419,note_on,19,0,1,,,,,,,,,0,,,76,0
51420,note_on,1,0,1,,,,,,,,,0,,,74,67
51420,note_on,0,0,1,,,,,,,,,0,,,86,75
51420,note_on,1,0,2,,,,,,,,,1,,,55,36
51420,note_on,0,0,2,,,,,,,,,1,,,62,36
51440,note_on,0,0,2,,,,,,,,,1,,,64,36
51440,note_on,0,0,2,,,,,,,,,1,,,60,36
51440,note_on,0,0,2,,,,,,,,,1,,,55,0
51440,note_on,20,0,2,,,,,,,,,1,,,62,0
51440,note_on,0,0,1,,,,,,,,,0,,,74,0
51440,note_on,20,0,1,,,,,,,,,0,,,86,0
51440,note_on,0,0,1,,,,,,,,,0,,,88,49
51440,note_on,0,0,1,,,,,,,,,0,,,76,49
51459,note_on,19,0,1,,,,,,,,,0,,,74,49
51459,note_on,0,0,1,,,,,,,,,0,,,86,49
51459,note_on,0,0,2,,,,,,,,,1,,,62,36
51459,note_on,19,0,2,,,,,,,,,1,,,55,36
51460,note_on,1,0,2,,,,,,,,,1,,,64,0
51460,note_on,1,0,1,,,,,,,,,0,,,88,0
51460,note_on,0,0,1,,,,,,,,,0,,,76,0
51460,note_on,0,0,2,,,,,,,,,1,,,60,0
51479,note_on,19,0,1,,,,,,,,,0,,,74,0
51479,note_on,19,0,2,,,,,,,,,1,,,55,0
51479,note_on,0,0,2,,,,,,,,,1,,,62,0
51479,note_on,0,0,1,,,,,,,,,0,,,86,0
51480,note_on,257,0,3,,,,,,,,,2,,,48,36
51480,control_change,1,0,1,,,,,,,,,0,64,127,,
51480,note_on,0,0,1,,,,,,,,,0,,,72,49
51480,note_on,0,0,1,,,,,,,,,0,,,84,49
51480,note_on,0,0,3,,,,,,,,,2,,,52,36
51480,note_on,0,0,3,,,,,,,,,2,,,60,36
51500,note_on,20,0,1,,,,,,,,,0,,,84,0
51500,note_on,0,0,1,,,,,,,,,0,,,72,0
51500,note_on,0,0,1,,,,,,,,,0,,,72,49
51504,note_on,4,0,1,,,,,,,,,0,,,72,0
51519,note_on,15,0,1,,,,,,,,,0,,,72,49
51523,note_on,4,0,1,,,,,,,,,0,,,72,0
51540,note_on,17,0,1,,,,,,,,,0,,,72,49
51544,note_on,4,0,1,,,,,,,,,0,,,72,0
51560,note_on,16,0,1,,,,,,,,,0,,,72,49
51564,note_on,4,0,1,,,,,,,,,0,,,72,0
51579,note_on,0,0,1,,,,,,,,,0,,,72,49
51579,control_change,15,0,1,,,,,,,,,0,64,0,,
51583,note_on,4,0,1,,,,,,,,,0,,,72,0
51600,note_on,17,0,1,,,,,,,,,0,,,72,36
51600,note_on,120,0,3,,,,,,,,,2,,,60,0
51600,note_on,0,0,3,,,,,,,,,2,,,52,0
51600,note_on,0,0,3,,,,,,,,,2,,,48,0
51600,note_on,0,0,3,,,,,,,,,2,,,60,36
51604,note_on,4,0,1,,,,,,,,,0,,,72,0
51620,note_on,16,0,1,,,,,,,,,0,,,72,36
51620,note_on,20,0,3,,,,,,,,,2,,,60,0
51620,note_on,0,0,3,,,,,,,,,2,,,55,36
51624,note_on,4,0,1,,,,,,,,,0,,,72,0
51639,note_on,19,0,3,,,,,,,,,2,,,52,36
51639,note_on,15,0,1,,,,,,,,,0,,,72,36
51640,note_on,1,0,3,,,,,,,,,2,,,55,0
51643,note_on,4,0,1,,,,,,,,,0,,,72,0
51659,note_on,19,0,3,,,,,,,,,2,,,52,0
51660,note_on,0,0,3,,,,,,,,,2,,,48,36
51660,control_change,1,0,3,,,,,,,,,2,64,127,,
51660,note_on,0,0,1,,,,,,,,,0,,,64,36
51660,control_change,17,0,1,,,,,,,,,0,64,127,,
51660,note_on,0,0,1,,,,,,,,,0,,,74,36
51660,note_on,0,0,1,,,,,,,,,0,,,70,36
51680,note_on,0,0,1,,,,,,,,,0,,,70,0
51680,note_on,0,0,1,,,,,,,,,0,,,64,0
51680,note_on,0,0,1,,,,,,,,,0,,,64,36
51680,note_on,0,0,1,,,,,,,,,0,,,70,36
51680,note_on,0,0,1,,,,,,,,,0,,,72,36
51680,note_on,20,0,1,,,,,,,,,0,,,74,0
51699,note_on,0,0,1,,,,,,,,,0,,,72,36
51699,note_on,19,0,1,,,,,,,,,0,,,64,36
51699,note_on,0,0,1,,,,,,,,,0,,,70,36
51700,note_on,1,0,1,,,,,,,,,0,,,72,0
51700,note_on,0,0,1,,,,,,,,,0,,,70,0
51700,note_on,0,0,1,,,,,,,,,0,,,64,0
51719,note_on,19,0,1,,,,,,,,,0,,,64,0
51719,note_on,0,0,1,,,,,,,,,0,,,70,0
51719,note_on,0,0,1,,,,,,,,,0,,,72,0
51720,note_on,1,0,1,,,,,,,,,0,,,64,36
51720,note_on,0,0,1,,,,,,,,,0,,,70,36
51720,note_on,0,0,1,,,,,,,,,0,,,72,36
51740,note_on,20,0,1,,,,,,,,,0,,,72,0
51740,note_on,0,0,1,,,,,,,,,0,,,70,0
51740,note_on,0,0,1,,,,,,,,,0,,,64,36
51740,note_on,0,0,1,,,,,,,,,0,,,70,36
51740,note_on,0,0,1,,,,,,,,,0,,,72,36
51740,note_on,0,0,1,,,,,,,,,0,,,64,0
51759,note_on,19,0,1,,,,,,,,,0,,,64,36
51759,note_on,0,0,1,,,,,,,,,0,,,70,36
51759,note_on,0,0,1,,,,,,,,,0,,,72,36
51760,note_on,1,0,1,,,,,,,,,0,,,72,0
51760,note_on,0,0,1,,,,,,,,,0,,,64,0
51760,note_on,0,0,1,,,,,,,,,0,,,70,0
51779,note_on,19,0,1,,,,,,,,,0,,,64,0
51779,note_on,0,0,1,,,,,,,,,0,,,70,0
51779,note_on,0,0,1,,,,,,,,,0,,,72,0
51780,note_on,0,0,1,,,,,,,,,0,,,72,36
51780,note_on,0,0,1,,,,,,,,,0,,,70,36
51780,note_on,0,0,1,,,,,,,,,0,,,64,36
51780,note_on,120,0,3,,,,,,,,,2,,,48,0
51780,note_on,0,0,3,,,,,,,,,2,,,48,36
51780,control_change,0,0,3,,,,,,,,,2,64,0,,
51780,control_change,1,0,1,,,,,,,,,0,64,0,,
51800,note_on,0,0,1,,,,,,,,,0,,,70,0
51800,note_on,0,0,1,,,,,,,,,0,,,64,0
51800,note_on,0,0,1,,,,,,,,,0,,,70,36
51800,note_on,0,0,1,,,,,,,,,0,,,74,36
51800,note_on,0,0,1,,,,,,,,,0,,,65,36
51800,note_on,20,0,1,,,,,,,,,0,,,72,0
51800,note_on,0,0,3,,,,,,,,,2,,,48,36
51800,note_on,20,0,3,,,,,,,,,2,,,48,0
51819,note_on,0,0,1,,,,,,,,,0,,,76,36
51819,note_on,0,0,1,,,,,,,,,0,,,70,36
51819,note_on,19,0,1,,,,,,,,,0,,,67,36
51819,note_on,19,0,3,,,,,,,,,2,,,48,36
51820,note_on,1,0,1,,,,,,,,,0,,,74,0
51820,note_on,0,0,1,,,,,,,,,0,,,70,0
51820,note_on,0,0,1,,,,,,,,,0,,,65,0
51820,note_on,1,0,3,,,,,,,,,2,,,48,0
51839,note_on,19,0,3,,,,,,,,,2,,,48,0
51839,note_on,0,0,1,,,,,,,,,0,,,76,0
51839,note_on,0,0,1,,,,,,,,,0,,,70,0
51839,note_on,19,0,1,,,,,,,,,0,,,67,0
51840,note_on,0,0,1,,,,,,,,,0,,,76,36
51840,note_on,0,0,1,,,,,,,,,0,,,70,36
51840,note_on,0,0,1,,,,,,,,,0,,,67,36
51840,control_change,1,0,1,,,,,,,,,0,64,127,,
51840,control_change,1,0,3,,,,,,,,,2,64,127,,
51840,note_on,0,0,3,,,,,,,,,2,,,48,36
51860,note_on,0,0,1,,,,,,,,,0,,,77,36
51860,note_on,0,0,1,,,,,,,,,0,,,69,36
51860,note_on,0,0,1,,,,,,,,,0,,,67,0
51860,note_on,0,0,1,,,,,,,,,0,,,70,0
51860,note_on,20,0,1,,,,,,,,,0,,,76,0
51879,note_on,0,0,1,,,,,,,,,0,,,77,36
51879,note_on,19,0,1,,,,,,,,,0,,,69,36
51880,note_on,0,0,1,,,,,,,,,0,,,69,0
51880,note_on,1,0,1,,,,,,,,,0,,,77,0
51899,note_on,19,0,1,,,,,,,,,0,,,69,0
51899,note_on,0,0,1,,,,,,,,,0,,,77,0
51900,note_on,0,0,1,,,,,,,,,0,,,77,36
51900,note_on,1,0,1,,,,,,,,,0,,,69,36
51920,note_on,0,0,1,,,,,,,,,0,,,77,36
51920,note_on,0,0,1,,,,,,,,,0,,,69,36
51920,note_on,0,0,1,,,,,,,,,0,,,69,0
51920,note_on,20,0,1,,,,,,,,,0,,,77,0
51939,note_on,0,0,1,,,,,,,,,0,,,77,36
51939,note_on,19,0,1,,,,,,,,,0,,,69,36
51940,note_on,0,0,1,,,,,,,,,0,,,69,0
51940,note_on,1,0,1,,,,,,,,,0,,,77,0
51959,note_on,0,0,1,,,,,,,,,0,,,77,0
51959,note_on,19,0,1,,,,,,,,,0,,,69,0
51960,note_on,120,0,3,,,,,,,,,2,,,48,0
51960,note_on,0,0,1,,,,,,,,,0,,,77,36
51960,note_on,0,0,1,,,,,,,,,0,,,69,36
51960,control_change,1,0,1,,,,,,,,,0,64,0,,
51960,control_change,0,0,3,,,,,,,,,2,64,0,,
51960,note_on,0,0,3,,,,,,,,,2,,,48,36
51964,note_on,4,0,3,,,,,,,,,2,,,48,0
51980,note_on,0,0,1,,,,,,,,,0,,,71,36
51980,note_on,20,0,1,,,,,,,,,0,,,77,0
51980,note_on,16,0,3,,,,,,,,,2,,,47,36
51980,note_on,0,0,1,,,,,,,,,0,,,77,36
51980,note_on,0,0,1,,,,,,,,,0,,,79,36
51980,note_on,0,0,1,,,,,,,,,0,,,69,0
51984,note_on,4,0,3,,,,,,,,,2,,,47,0
51999,note_on,15,0,3,,,,,,,,,2,,,45,36
51999,note_on,19,0,1,,,,,,,,,0,,,72,36
51999,note_on,0,0,1,,,,,,,,,0,,,77,36
51999,note_on,0,0,1,,,,,,,,,0,,,81,36
52000,note_on,1,0,1,,,,,,,,,0,,,79,0
52000,note_on,0,0,1,,,,,,,,,0,,,77,0
52000,note_on,0,0,1,,,,,,,,,0,,,71,0
52003,note_on,4,0,3,,,,,,,,,2,,,45,0
52019,note_on,19,0,1,,,,,,,,,0,,,72,0
52019,note_on,0,0,1,,,,,,,,,0,,,77,0
52019,note_on,0,0,1,,,,,,,,,0,,,81,0
52020,note_on,0,0,1,,,,,,,,,0,,,72,36
52020,note_on,0,0,1,,,,,,,,,0,,,81,36
52020,note_on,0,0,1,,,,,,,,,0,,,77,36
52020,control_change,1,0,1,,,,,,,,,0,64,127,,
52020,note_on,0,0,3,,,,,,,,,2,,,50,62
52020,control_change,17,0,3,,,,,,,,,2,64,127,,
52040,note_on,20,0,1,,,,,,,,,0,,,81,0
52040,note_on,0,0,1,,,,,,,,,0,,,77,0
52040,note_on,0,0,1,,,,,,,,,0,,,72,0
52040,note_on,0,0,1,,,,,,,,,0,,,71,36
52040,note_on,0,0,1,,,,,,,,,0,,,77,36
52040,note_on,0,0,1,,,,,,,,,0,,,79,36
52059,note_on,0,0,1,,,,,,,,,0,,,79,36
52059,note_on,0,0,1,,,,,,,,,0,,,77,36
52059,note_on,19,0,1,,,,,,,,,0,,,71,36
52060,note_on,0,0,1,,,,,,,,,0,,,71,0
52060,note_on,1,0,1,,,,,,,,,0,,,79,0
52060,note_on,0,0,1,,,,,,,,,0,,,77,0
52079,note_on,19,0,1,,,,,,,,,0,,,71,0
52079,note_on,0,0,1,,,,,,,,,0,,,77,0
52079,note_on,0,0,1,,,,,,,,,0,,,79,0
52080,note_on,0,0,1,,,,,,,,,0,,,77,36
52080,note_on,60,0,3,,,,,,,,,2,,,50,0
52080,note_on,1,0,1,,,,,,,,,0,,,71,36
52080,note_on,0,0,1,,,,,,,,,0,,,79,36
52080,note_on,0,0,3,,,,,,,,,2,,,55,62
52100,note_on,0,0,1,,,,,,,,,0,,,77,36
52100,note_on,0,0,1,,,,,,,,,0,,,71,36
52100,note_on,0,0,1,,,,,,,,,0,,,71,0
52100,note_on,20,0,1,,,,,,,,,0,,,79,0
52100,note_on,0,0,1,,,,,,,,,0,,,79,36
52100,note_on,0,0,1,,,,,,,,,0,,,77,0
52119,note_on,0,0,1,,,,,,,,,0,,,77,36
52119,note_on,0,0,1,,,,,,,,,0,,,79,36
52119,note_on,19,0,1,,,,,,,,,0,,,71,36
52120,note_on,0,0,1,,,,,,,,,0,,,77,0
52120,note_on,1,0,1,,,,,,,,,0,,,79,0
52120,note_on,0,0,1,,,,,,,,,0,,,71,0
52139,note_on,19,0,1,,,,,,,,,0,,,71,0
52139,note_on,0,0,1,,,,,,,,,0,,,77,0
52139,note_on,0,0,1,,,,,,,,,0,,,79,0
52140,note_on,0,0,1,,,,,,,,,0,,,71,36
52140,control_change,1,0,1,,,,,,,,,0,64,0,,
52140,note_on,0,0,3,,,,,,,,,2,,,43,62
52140,note_on,60,0,3,,,,,,,,,2,,,55,0
52140,control_change,0,0,3,,,,,,,,,2,64,0,,
52140,note_on,0,0,1,,,,,,,,,0,,,77,36
52140,note_on,0,0,1,,,,,,,,,0,,,79,36
52160,note_on,0,0,1,,,,,,,,,0,,,81,36
52160,note_on,0,0,1,,,,,,,,,0,,,77,0
52160,note_on,0,0,1,,,,,,,,,0,,,77,36
52160,note_on,20,0,1,,,,,,,,,0,,,79,0
52160,note_on,0,0,1,,,,,,,,,0,,,71,0
52160,note_on,0,0,1,,,,,,,,,0,,,72,36
52179,note_on,19,0,1,,,,,,,,,0,,,71,36
52179,note_on,0,0,1,,,,,,,,,0,,,77,36
52179,note_on,0,0,1,,,,,,,,,0,,,79,36
52180,note_on,1,0,1,,,,,,,,,0,,,81,0
52180,note_on,0,0,1,,,,,,,,,0,,,72,0
52180,note_on,0,0,1,,,,,,,,,0,,,77,0
52185,note_on,0,0,3,,,,,,,,,2,,,50,36
52185,note_on,45,0,3,,,,,,,,,2,,,43,0
52199,note_on,0,0,1,,,,,,,,,0,,,79,0
52199,note_on,0,0,1,,,,,,,,,0,,,77,0
52199,note_on,19,0,1,,,,,,,,,0,,,71,0
52200,note_on,0,0,3,,,,,,,,,2,,,48,36
52200,control_change,0,0,3,,,,,,,,,2,64,127,,
52200,note_on,15,0,3,,,,,,,,,2,,,50,0
52200,control_change,1,0,1,,,,,,,,,0,64,127,,
52200,note_on,0,0,1,,,,,,,,,0,,,81,36
52200,note_on,0,0,1,,,,,,,,,0,,,77,36
52200,note_on,0,0,1,,,,,,,,,0,,,72,36
52220,note_on,0,0,1,,,,,,,,,0,,,72,36
52220,note_on,0,0,1,,,,,,,,,0,,,76,36
52220,note_on,0,0,1,,,,,,,,,0,,,79,36
52220,note_on,0,0,1,,,,,,,,,0,,,77,0
52220,note_on,20,0,1,,,,,,,,,0,,,81,0
52220,note_on,0,0,1,,,,,,,,,0,,,72,0
52239,note_on,0,0,1,,,,,,,,,0,,,76,36
52239,note_on,0,0,1,,,,,,,,,0,,,79,36
52239,note_on,19,0,1,,,,,,,,,0,,,72,36
52240,note_on,1,0,1,,,,,,,,,0,,,79,0
52240,note_on,0,0,1,,,,,,,,,0,,,72,0
52240,note_on,0,0,1,,,,,,,,,0,,,76,0
52259,note_on,0,0,1,,,,,,,,,0,,,76,0
52259,note_on,19,0,1,,,,,,,,,0,,,72,0
52259,note_on,0,0,1,,,,,,,,,0,,,79,0
52260,note_on,0,0,1,,,,,,,,,0,,,76,36
52260,note_on,1,0,1,,,,,,,,,0,,,72,36
52260,note_on,0,0,1,,,,,,,,,0,,,79,36
52280,note_on,0,0,1,,,,,,,,,0,,,76,0
52280,note_on,20,0,1,,,,,,,,,0,,,79,0
52280,note_on,0,0,1,,,,,,,,,0,,,72,0
52280,note_on,0,0,1,,,,,,,,,0,,,60,36
52299,note_on,19,0,1,,,,,,,,,0,,,60,36
52300,note_on,1,0,1,,,,,,,,,0,,,60,0
52319,note_on,19,0,1,,,,,,,,,0,,,60,0
52320,note_on,120,0,3,,,,,,,,,2,,,48,0
52320,note_on,0,0,3,,,,,,,,,2,,,48,36
52320,note_on,1,0,1,,,,,,,,,0,,,60,36
52324,note_on,4,0,3,,,,,,,,,2,,,48,0
52340,note_on,0,0,1,,,,,,,,,0,,,60,36
52340,control_change,0,0,1,,,,,,,,,0,64,0,,
52340,note_on,20,0,1,,,,,,,,,0,,,60,0
52340,note_on,0,0,3,,,,,,,,,2,,,43,36
52340,control_change,16,0,3,,,,,,,,,2,64,0,,
52344,note_on,4,0,3,,,,,,,,,2,,,43,0
52359,note_on,15,0,3,,,,,,,,,2,,,40,36
52359,note_on,19,0,1,,,,,,,,,0,,,60,36
52360,note_on,1,0,1,,,,,,,,,0,,,60,0
52363,note_on,4,0,3,,,,,,,,,2,,,40,0
52379,note_on,19,0,1,,,,,,,,,0,,,60,0
52380,control_change,17,0,3,,,,,,,,,2,64,127,,
52380,note_on,0,0,3,,,,,,,,,2,,,36,36
52380,control_change,1,0,1,,,,,,,,,0,64,127,,
52380,note_on,0,0,1,,,,,,,,,0,,,52,36
52380,note_on,0,0,1,,,,,,,,,0,,,58,36
52380,note_on,0,0,1,,,,,,,,,0,,,62,36
52400,note_on,20,0,1,,,,,,,,,0,,,62,0
52400,note_on,0,0,1,,,,,,,,,0,,,58,0
52400,note_on,0,0,1,,,,,,,,,0,,,52,0
52400,note_on,0,0,1,,,,,,,,,0,,,52,36
52400,note_on,0,0,1,,,,,,,,,0,,,58,36
52400,note_on,0,0,1,,,,,,,,,0,,,60,36
52419,note_on,19,0,1,,,,,,,,,0,,,52,36
52419,note_on,0,0,1,,,,,,,,,0,,,59,36
52419,note_on,0,0,1,,,,,,,,,0,,,60,36
52420,note_on,0,0,1,,,,,,,,,0,,,58,0
52420,note_on,0,0,1,,,,,,,,,0,,,52,0
52420,note_on,1,0,1,,,,,,,,,0,,,60,0
52439,note_on,0,0,1,,,,,,,,,0,,,60,0
52439,note_on,0,0,1,,,,,,,,,0,,,59,0
52439,note_on,19,0,1,,,,,,,,,0,,,52,0
52440,note_on,0,0,1,,,,,,,,,0,,,60,36
52440,note_on,0,0,1,,,,,,,,,0,,,59,36
52440,note_on,1,0,1,,,,,,,,,0,,,52,36
52460,note_on,0,0,1,,,,,,,,,0,,,52,36
52460,note_on,0,0,1,,,,,,,,,0,,,52,0
52460,note_on,0,0,1,,,,,,,,,0,,,59,0
52460,note_on,20,0,1,,,,,,,,,0,,,60,0
52460,note_on,0,0,1,,,,,,,,,0,,,58,36
52460,note_on,0,0,1,,,,,,,,,0,,,60,36
52479,note_on,0,0,1,,,,,,,,,0,,,58,36
52479,note_on,0,0,1,,,,,,,,,0,,,52,36
52479,note_on,0,0,1,,,,,,,,,0,,,60,36
52479,control_change,19,0,1,,,,,,,,,0,64,0,,
52480,note_on,1,0,1,,,,,,,,,0,,,60,0
52480,note_on,0,0,1,,,,,,,,,0,,,52,0
52480,note_on,0,0,1,,,,,,,,,0,,,58,0
52499,note_on,0,0,1,,,,,,,,,0,,,60,0
52499,note_on,0,0,1,,,,,,,,,0,,,58,0
52499,note_on,19,0,1,,,,,,,,,0,,,52,0
52500,note_on,0,0,1,,,,,,,,,0,,,58,36
52500,note_on,0,0,3,,,,,,,,,2,,,36,36
52500,control_change,0,0,3,,,,,,,,,2,64,0,,
52500,note_on,120,0,3,,,,,,,,,2,,,36,0
52500,note_on,0,0,1,,,,,,,,,0,,,60,36
52500,note_on,1,0,1,,,,,,,,,0,,,52,36
52520,note_on,0,0,1,,,,,,,,,0,,,62,36
52520,note_on,0,0,1,,,,,,,,,0,,,58,0
52520,note_on,0,0,1,,,,,,,,,0,,,52,0
52520,note_on,20,0,3,,,,,,,,,2,,,36,0
52520,note_on,0,0,3,,,,,,,,,2,,,36,36
52520,note_on,20,0,1,,,,,,,,,0,,,60,0
52520,note_on,0,0,1,,,,,,,,,0,,,53,36
52520,note_on,0,0,1,,,,,,,,,0,,,58,36
52539,note_on,19,0,3,,,,,,,,,2,,,36,36
52539,note_on,19,0,1,,,,,,,,,0,,,55,36
52539,note_on,0,0,1,,,,,,,,,0,,,58,36
52539,note_on,0,0,1,,,,,,,,,0,,,64,36
52540,note_on,0,0,1,,,,,,,,,0,,,58,0
52540,note_on,1,0,3,,,,,,,,,2,,,36,0
52540,note_on,1,0,1,,,,,,,,,0,,,62,0
52540,note_on,0,0,1,,,,,,,,,0,,,53,0
52559,note_on,0,0,1,,,,,,,,,0,,,64,0
52559,note_on,19,0,1,,,,,,,,,0,,,55,0
52559,note_on,0,0,1,,,,,,,,,0,,,58,0
52559,note_on,19,0,3,,,,,,,,,2,,,36,0
52560,note_on,1,0,3,,,,,,,,,2,,,36,36
52560,control_change,1,0,1,,,,,,,,,0,64,127,,
52560,note_on,0,0,1,,,,,,,,,0,,,55,36
52560,note_on,0,0,1,,,,,,,,,0,,,58,36
52560,note_on,0,0,1,,,,,,,,,0,,,64,36
52580,note_on,0,0,1,,,,,,,,,0,,,65,36
52580,note_on,20,0,1,,,,,,,,,0,,,64,0
52580,note_on,0,0,1,,,,,,,,,0,,,58,0
52580,note_on,0,0,1,,,,,,,,,0,,,55,0
52580,note_on,0,0,1,,,,,,,,,0,,,57,36
52599,note_on,19,0,1,,,,,,,,,0,,,57,36
52599,note_on,0,0,1,,,,,,,,,0,,,65,36
52600,note_on,0,0,1,,,,,,,,,0,,,57,0
52600,note_on,1,0,1,,,,,,,,,0,,,65,0
52619,note_on,19,0,1,,,,,,,,,0,,,57,0
52619,note_on,0,0,1,,,,,,,,,0,,,65,0
52620,note_on,0,0,1,,,,,,,,,0,,,65,36
52620,note_on,1,0,1,,,,,,,,,0,,,57,36
52640,note_on,0,0,1,,,,,,,,,0,,,57,0
52640,note_on,0,0,1,,,,,,,,,0,,,57,36
52640,note_on,20,0,1,,,,,,,,,0,,,65,0
52640,note_on,0,0,1,,,,,,,,,0,,,65,36
52659,note_on,19,0,1,,,,,,,,,0,,,57,36
52659,note_on,0,0,1,,,,,,,,,0,,,65,36
52660,note_on,0,0,1,,,,,,,,,0,,,57,0
52660,note_on,1,0,1,,,,,,,,,0,,,65,0
52679,note_on,0,0,1,,,,,,,,,0,,,65,0
52679,note_on,19,0,1,,,,,,,,,0,,,57,0
52680,note_on,0,0,3,,,,,,,,,2,,,36,36
52680,note_on,0,0,1,,,,,,,,,0,,,65,36
52680,note_on,0,0,1,,,,,,,,,0,,,57,36
52680,control_change,1,0,1,,,,,,,,,0,64,0,,
52680,note_on,120,0,3,,,,,,,,,2,,,36,0
52684,note_on,4,0,3,,,,,,,,,2,,,36,0
52700,note_on,16,0,3,,,,,,,,,2,,,35,36
52700,note_on,0,0,1,,,,,,,,,0,,,57,0
52700,note_on,20,0,1,,,,,,,,,0,,,65,0
52700,note_on,0,0,1,,,,,,,,,0,,,59,36
52700,note_on,0,0,1,,,,,,,,,0,,,65,36
52700,note_on,0,0,1,,,,,,,,,0,,,67,36
52704,note_on,4,0,3,,,,,,,,,2,,,35,0
52719,note_on,19,0,1,,,,,,,,,0,,,60,36
52719,note_on,0,0,1,,,,,,,,,0,,,65,36
52719,note_on,0,0,1,,,,,,,,,0,,,69,36
52719,note_on,15,0,3,,,,,,,,,2,,,33,36
52720,note_on,1,0,1,,,,,,,,,0,,,67,0
52720,note_on,0,0,1,,,,,,,,,0,,,59,0
52720,note_on,0,0,1,,,,,,,,,0,,,65,0
52723,note_on,4,0,3,,,,,,,,,2,,,33,0
52739,note_on,19,0,1,,,,,,,,,0,,,60,0
52739,note_on,0,0,1,,,,,,,,,0,,,65,0
52739,note_on,0,0,1,,,,,,,,,0,,,69,0
52740,note_on,0,0,3,,,,,,,,,2,,,38,62
52740,control_change,17,0,3,,,,,,,,,2,64,127,,
52740,control_change,1,0,1,,,,,,,,,0,64,127,,
52740,note_on,0,0,1,,,,,,,,,0,,,69,36
52740,note_on,0,0,1,,,,,,,,,0,,,60,36
52740,note_on,0,0,1,,,,,,,,,0,,,65,36
52760,note_on,20,0,1,,,,,,,,,0,,,69,0
52760,note_on,0,0,1,,,,,,,,,0,,,67,36
52760,note_on,0,0,1,,,,,,,,,0,,,65,36
52760,note_on,0,0,1,,,,,,,,,0,,,59,36
52760,note_on,0,0,1,,,,,,,,,0,,,60,0
52760,note_on,0,0,1,,,,,,,,,0,,,65,0
52779,note_on,0,0,1,,,,,,,,,0,,,67,36
52779,note_on,19,0,1,,,,,,,,,0,,,59,36
52779,note_on,0,0,1,,,,,,,,,0,,,65,36
52780,note_on,0,0,1,,,,,,,,,0,,,65,0
52780,note_on,0,0,1,,,,,,,,,0,,,59,0
52780,note_on,1,0,1,,,,,,,,,0,,,67,0
52799,note_on,0,0,1,,,,,,,,,0,,,67,0
52799,note_on,0,0,1,,,,,,,,,0,,,65,0
52799,note_on,19,0,1,,,,,,,,,0,,,59,0
52800,note_on,0,0,1,,,,,,,,,0,,,65,36
52800,note_on,1,0,1,,,,,,,,,0,,,59,36
52800,note_on,0,0,3,,,,,,,,,2,,,43,62
52800,note_on,60,0,3,,,,,,,,,2,,,38,0
52800,note_on,0,0,1,,,,,,,,,0,,,67,36
52820,note_on,20,0,1,,,,,,,,,0,,,67,0
52820,note_on,0,0,1,,,,,,,,,0,,,67,36
52820,note_on,0,0,1,,,,,,,,,0,,,65,36
52820,note_on,0,0,1,,,,,,,,,0,,,59,36
52820,note_on,0,0,1,,,,,,,,,0,,,59,0
52820,note_on,0,0,1,,,,,,,,,0,,,65,0
52839,note_on,19,0,1,,,,,,,,,0,,,59,36
52839,note_on,0,0,1,,,,,,,,,0,,,67,36
52839,note_on,0,0,1,,,,,,,,,0,,,65,36
52840,note_on,0,0,1,,,,,,,,,0,,,65,0
52840,note_on,0,0,1,,,,,,,,,0,,,59,0
52840,note_on,1,0,1,,,,,,,,,0,,,67,0
52859,note_on,0,0,1,,,,,,,,,0,,,67,0
52859,note_on,0,0,1,,,,,,,,,0,,,65,0
52859,note_on,19,0,1,,,,,,,,,0,,,59,0
52860,note_on,0,0,1,,,,,,,,,0,,,67,36
52860,note_on,0,0,1,,,,,,,,,0,,,65,36
52860,note_on,0,0,1,,,,,,,,,0,,,59,36
52860,control_change,1,0,1,,,,,,,,,0,64,0,,
52860,note_on,60,0,3,,,,,,,,,2,,,43,0
52860,control_change,0,0,3,,,,,,,,,2,64,0,,
52860,note_on,0,0,3,,,,,,,,,2,,,31,62
52880,note_on,0,0,1,,,,,,,,,0,,,60,36
52880,note_on,20,0,1,,,,,,,,,0,,,67,0
52880,note_on,0,0,1,,,,,,,,,0,,,65,0
52880,note_on,0,0,1,,,,,,,,,0,,,59,0
52880,note_on,0,0,1,,,,,,,,,0,,,65,36
52880,note_on,0,0,1,,,,,,,,,0,,,69,36
52899,note_on,19,0,1,,,,,,,,,0,,,59,36
52899,note_on,0,0,1,,,,,,,,,0,,,65,36
52899,note_on,0,0,1,,,,,,,,,0,,,67,36
52900,note_on,1,0,1,,,,,,,,,0,,,69,0
52900,note_on,0,0,1,,,,,,,,,0,,,60,0
52900,note_on,0,0,1,,,,,,,,,0,,,65,0
52905,note_on,0,0,3,,,,,,,,,2,,,38,36
52905,note_on,45,0,3,,,,,,,,,2,,,31,0
52919,note_on,0,0,1,,,,,,,,,0,,,67,0
52919,note_on,19,0,1,,,,,,,,,0,,,59,0
52919,note_on,0,0,1,,,,,,,,,0,,,65,0
52920,control_change,1,0,1,,,,,,,,,0,64,127,,
52920,note_on,0,0,1,,,,,,,,,0,,,60,36
52920,note_on,0,0,3,,,,,,,,,2,,,36,36
52920,note_on,15,0,3,,,,,,,,,2,,,38,0
52920,note_on,0,0,1,,,,,,,,,0,,,65,36
52920,note_on,0,0,1,,,,,,,,,0,,,69,36
52940,note_on,0,0,1,,,,,,,,,0,,,60,36
52940,note_on,0,0,1,,,,,,,,,0,,,67,36
52940,note_on,0,0,1,,,,,,,,,0,,,64,36
52940,note_on,20,0,1,,,,,,,,,0,,,69,0
52940,note_on,0,0,1,,,,,,,,,0,,,65,0
52940,note_on,0,0,1,,,,,,,,,0,,,60,0
52959,note_on,0,0,1,,,,,,,,,0,,,67,36
52959,note_on,0,0,1,,,,,,,,,0,,,64,36
52959,note_on,19,0,1,,,,,,,,,0,,,60,36
52960,note_on,0,0,1,,,,,,,,,0,,,64,0
52960,note_on,1,0,1,,,,,,,,,0,,,67,0
52960,note_on,0,0,1,,,,,,,,,0,,,60,0
52979,note_on,0,0,1,,,,,,,,,0,,,64,0
52979,note_on,19,0,1,,,,,,,,,0,,,60,0
52979,note_on,0,0,1,,,,,,,,,0,,,67,0
52980,note_on,1,0,1,,,,,,,,,0,,,60,36
52980,note_on,0,0,1,,,,,,,,,0,,,64,36
52980,note_on,0,0,1,,,,,,,,,0,,,67,36
53000,note_on,0,0,1,,,,,,,,,0,,,64,36
53000,note_on,20,0,1,,,,,,,,,0,,,67,0
53000,note_on,0,0,1,,,,,,,,,0,,,64,0
53000,note_on,0,0,1,,,,,,,,,0,,,67,36
53000,note_on,0,0,1,,,,,,,,,0,,,60,0
53000,note_on,0,0,1,,,,,,,,,0,,,60,36
53019,note_on,19,0,1,,,,,,,,,0,,,60,36
53019,note_on,0,0,1,,,,,,,,,0,,,64,36
53019,note_on,0,0,1,,,,,,,,,0,,,67,36
53020,note_on,0,0,1,,,,,,,,,0,,,64,0
53020,note_on,0,0,1,,,,,,,,,0,,,60,0
53020,note_on,1,0,1,,,,,,,,,0,,,67,0
53039,note_on,0,0,1,,,,,,,,,0,,,67,0
53039,note_on,19,0,1,,,,,,,,,0,,,60,0
53039,note_on,0,0,1,,,,,,,,,0,,,64,0
53040,note_on,0,0,1,,,,,,,,,0,,,60,36
53040,note_on,0,0,1,,,,,,,,,0,,,64,36
53040,note_on,0,0,1,,,,,,,,,0,,,67,36
53040,note_on,0,0,3,,,,,,,,,2,,,36,36
53040,note_on,120,0,3,,,,,,,,,2,,,36,0
53040,control_change,1,0,1,,,,,,,,,0,64,0,,
53060,note_on,0,0,1,,,,,,,,,0,,,64,0
53060,note_on,0,0,1,,,,,,,,,0,,,60,0
53060,note_on,0,0,1,,,,,,,,,0,,,59,36
53060,note_on,20,0,1,,,,,,,,,0,,,67,0
53060,note_on,0,0,1,,,,,,,,,0,,,64,36
53060,note_on,0,0,1,,,,,,,,,0,,,67,36
53079,note_on,19,0,1,,,,,,,,,0,,,57,36
53079,note_on,0,0,1,,,,,,,,,0,,,64,36
53079,note_on,0,0,1,,,,,,,,,0,,,67,36
53080,note_on,1,0,1,,,,,,,,,0,,,67,0
53080,note_on,0,0,1,,,,,,,,,0,,,59,0
53080,note_on,0,0,1,,,,,,,,,0,,,64,0
53099,note_on,19,0,1,,,,,,,,,0,,,57,0
53099,note_on,0,0,1,,,,,,,,,0,,,64,0
53099,note_on,0,0,1,,,,,,,,,0,,,67,0
53100,control_change,1,0,1,,,,,,,,,0,64,127,,
53100,note_on,0,0,1,,,,,,,,,0,,,55,36
53100,note_on,0,0,1,,,,,,,,,0,,,64,36
53100,note_on,0,0,1,,,,,,,,,0,,,67,36
53120,note_on,0,0,1,,,,,,,,,0,,,60,36
53120,note_on,0,0,1,,,,,,,,,0,,,64,36
53120,note_on,0,0,1,,,,,,,,,0,,,55,0
53120,note_on,0,0,1,,,,,,,,,0,,,64,0
53120,note_on,20,0,1,,,,,,,,,0,,,67,0
53120,note_on,0,0,1,,,,,,,,,0,,,55,36
53139,note_on,19,0,1,,,,,,,,,0,,,55,36
53139,note_on,0,0,1,,,,,,,,,0,,,60,36
53139,note_on,0,0,1,,,,,,,,,0,,,64,36
53140,note_on,1,0,1,,,,,,,,,0,,,64,0
53140,note_on,0,0,1,,,,,,,,,0,,,55,0
53140,note_on,0,0,1,,,,,,,,,0,,,60,0
53159,note_on,19,0,1,,,,,,,,,0,,,55,0
53159,note_on,0,0,1,,,,,,,,,0,,,60,0
53159,note_on,0,0,1,,,,,,,,,0,,,64,0
53160,note_on,0,0,3,,,,,,,,,2,,,36,36
53160,note_on,120,0,3,,,,,,,,,2,,,36,0
53160,note_on,0,0,1,,,,,,,,,0,,,64,36
53160,note_on,1,0,1,,,,,,,,,0,,,55,36
53160,note_on,0,0,1,,,,,,,,,0,,,60,36
53180,note_on,20,0,1,,,,,,,,,0,,,64,0
53180,note_on,0,0,1,,,,,,,,,0,,,60,0
53180,note_on,0,0,1,,,,,,,,,0,,,55,0
53180,note_on,0,0,1,,,,,,,,,0,,,55,36
53180,note_on,0,0,1,,,,,,,,,0,,,60,36
53180,note_on,0,0,1,,,,,,,,,0,,,64,36
53199,note_on,0,0,1,,,,,,,,,0,,,55,36
53199,note_on,0,0,1,,,,,,,,,0,,,60,36
53199,note_on,0,0,1,,,,,,,,,0,,,64,36
53199,control_change,19,0,1,,,,,,,,,0,64,0,,
53200,note_on,0,0,1,,,,,,,,,0,,,60,0
53200,note_on,0,0,1,,,,,,,,,0,,,55,0
53200,note_on,1,0,1,,,,,,,,,0,,,64,0
53219,note_on,19,0,1,,,,,,,,,0,,,55,0
53219,note_on,0,0,1,,,,,,,,,0,,,60,0
53219,note_on,0,0,1,,,,,,,,,0,,,64,0
53220,note_on,1,0,1,,,,,,,,,0,,,57,36
53220,note_on,0,0,1,,,,,,,,,0,,,60,36
53220,note_on,0,0,1,,,,,,,,,0,,,64,36
53240,note_on,0,0,1,,,,,,,,,0,,,64,36
53240,note_on,0,0,1,,,,,,,,,0,,,60,36
53240,note_on,0,0,1,,,,,,,,,0,,,57,0
53240,note_on,20,0,1,,,,,,,,,0,,,64,0
53240,note_on,0,0,1,,,,,,,,,0,,,60,0
53240,note_on,0,0,1,,,,,,,,,0,,,55,36
53259,note_on,19,0,1,,,,,,,,,0,,,53,36
53259,note_on,0,0,1,,,,,,,,,0,,,64,36
53259,note_on,0,0,1,,,,,,,,,0,,,60,36
53260,note_on,0,0,1,,,,,,,,,0,,,60,0
53260,note_on,1,0,1,,,,,,,,,0,,,64,0
53260,note_on,0,0,1,,,,,,,,,0,,,55,0
53279,note_on,19,0,1,,,,,,,,,0,,,53,0
53279,note_on,0,0,1,,,,,,,,,0,,,60,0
53279,note_on,0,0,1,,,,,,,,,0,,,64,0
53280,note_on,120,0,3,,,,,,,,,2,,,36,0
53280,note_on,0,0,3,,,,,,,,,2,,,36,36
53280,note_on,0,0,1,,,,,,,,,0,,,64,36
53280,note_on,0,0,1,,,,,,,,,0,,,60,36
53280,note_on,0,0,1,,,,,,,,,0,,,52,36
53280,control_change,1,0,1,,,,,,,,,0,64,127,,
53300,note_on,0,0,1,,,,,,,,,0,,,52,0
53300,note_on,0,0,1,,,,,,,,,0,,,52,36
53300,note_on,20,0,1,,,,,,,,,0,,,64,0
53300,note_on,0,0,1,,,,,,,,,0,,,60,36
53300,note_on,0,0,1,,,,,,,,,0,,,60,0
53300,note_on,0,0,1,,,,,,,,,0,,,55,36
53319,note_on,19,0,1,,,,,,,,,0,,,52,36
53319,note_on,0,0,1,,,,,,,,,0,,,55,36
53319,note_on,0,0,1,,,,,,,,,0,,,60,36
53320,note_on,1,0,1,,,,,,,,,0,,,60,0
53320,note_on,0,0,1,,,,,,,,,0,,,52,0
53320,note_on,0,0,1,,,,,,,,,0,,,55,0
53339,note_on,0,0,1,,,,,,,,,0,,,55,0
53339,note_on,19,0,1,,,,,,,,,0,,,52,0
53339,note_on,0,0,1,,,,,,,,,0,,,60,0
53340,note_on,0,0,1,,,,,,,,,0,,,55,36
53340,note_on,1,0,1,,,,,,,,,0,,,52,36
53340,note_on,0,0,1,,,,,,,,,0,,,60,36
53360,note_on,20,0,1,,,,,,,,,0,,,60,0
53360,note_on,0,0,1,,,,,,,,,0,,,55,0
53360,note_on,0,0,1,,,,,,,,,0,,,60,36
53360,note_on,0,0,1,,,,,,,,,0,,,55,36
53360,note_on,0,0,1,,,,,,,,,0,,,52,36
53360,note_on,0,0,1,,,,,,,,,0,,,52,0
53379,note_on,0,0,1,,,,,,,,,0,,,60,36
53379,note_on,19,0,1,,,,,,,,,0,,,52,36
53379,note_on,0,0,1,,,,,,,,,0,,,55,36
53380,note_on,1,0,1,,,,,,,,,0,,,60,0
53380,note_on,0,0,1,,,,,,,,,0,,,52,0
53380,note_on,0,0,1,,,,,,,,,0,,,55,0
53399,note_on,19,0,1,,,,,,,,,0,,,52,0
53399,note_on,0,0,1,,,,,,,,,0,,,55,0
53399,note_on,0,0,1,,,,,,,,,0,,,60,0
53400,note_on,0,0,3,,,,,,,,,2,,,36,36
53400,note_on,120,0,3,,,,,,,,,2,,,36,0
53400,note_on,0,0,1,,,,,,,,,0,,,52,36
53400,control_change,1,0,1,,,,,,,,,0,64,0,,
53400,note_on,0,0,1,,,,,,,,,0,,,55,36
53400,note_on,0,0,1,,,,,,,,,0,,,60,36
53420,note_on,0,0,1,,,,,,,,,0,,,60,36
53420,note_on,0,0,1,,,,,,,,,0,,,52,36
53420,note_on,0,0,1,,,,,,,,,0,,,55,36
53420,note_on,0,0,1,,,,,,,,,0,,,52,0
53420,note_on,20,0,1,,,,,,,,,0,,,60,0
53420,note_on,0,0,1,,,,,,,,,0,,,55,0
53439,note_on,0,0,1,,,,,,,,,0,,,55,36
53439,note_on,19,0,1,,,,,,,,,0,,,52,36
53439,note_on,0,0,1,,,,,,,,,0,,,60,36
53440,note_on,0,0,1,,,,,,,,,0,,,55,0
53440,note_on,0,0,1,,,,,,,,,0,,,52,0
53440,note_on,1,0,1,,,,,,,,,0,,,60,0
53459,note_on,19,0,1,,,,,,,,,0,,,52,0
53459,note_on,0,0,1,,,,,,,,,0,,,55,0
53459,note_on,0,0,1,,,,,,,,,0,,,60,0
53460,note_on,60,0,3,,,,,,,,,2,,,36,0
53460,note_on,0,0,3,,,,,,,,,2,,,36,36
53460,control_change,0,0,3,,,,,,,,,2,64,127,,
53460,note_on,1,0,1,,,,,,,,,0,,,52,36
53460,note_on,0,0,1,,,,,,,,,0,,,55,36
53460,note_on,0,0,1,,,,,,,,,0,,,60,36
53480,note_on,0,0,3,,,,,,,,,2,,,55,36
53480,note_on,20,0,3,,,,,,,,,2,,,36,0
53490,note_on,0,0,1,,,,,,,,,0,,,52,0
53490,note_on,30,0,1,,,,,,,,,0,,,60,0
53490,note_on,0,0,1,,,,,,,,,0,,,55,0
53499,note_on,19,0,3,,,,,,,,,2,,,55,36
53500,note_on,1,0,3,,,,,,,,,2,,,55,0
53519,note_on,19,0,3,,,,,,,,,2,,,55,0
53520,control_change,1,0,3,,,,,,,,,2,64,0,,
53520,note_on,0,0,3,,,,,,,,,2,,,55,36
53540,note_on,20,0,3,,,,,,,,,2,,,55,0
53540,note_on,0,0,3,,,,,,,,,2,,,55,36
53559,note_on,19,0,3,,,,,,,,,2,,,55,36
53560,note_on,1,0,3,,,,,,,,,2,,,55,0
53579,note_on,19,0,3,,,,,,,,,2,,,55,0
53580,note_on,0,0,1,,,,,,,,,0,,,74,36
53580,note_on,0,0,3,,,,,,,,,2,,,62,36
53580,note_on,90,0,1,,,,,,,,,0,,,67,36
53580,note_on,1,0,3,,,,,,,,,2,,,55,36
53600,note_on,0,0,3,,,,,,,,,2,,,64,36
53600,note_on,0,0,3,,,,,,,,,2,,,60,36
53600,note_on,0,0,3,,,,,,,,,2,,,55,0
53600,note_on,20,0,3,,,,,,,,,2,,,62,0
53600,note_on,20,0,1,,,,,,,,,0,,,74,0
53600,note_on,0,0,1,,,,,,,,,0,,,67,0
53600,note_on,0,0,1,,,,,,,,,0,,,67,36
53600,note_on,0,0,1,,,,,,,,,0,,,76,36
53619,note_on,19,0,3,,,,,,,,,2,,,55,36
53619,note_on,0,0,3,,,,,,,,,2,,,62,36
53619,note_on,19,0,1,,,,,,,,,0,,,67,36
53619,note_on,0,0,1,,,,,,,,,0,,,74,36
53620,note_on,0,0,3,,,,,,,,,2,,,60,0
53620,note_on,1,0,3,,,,,,,,,2,,,64,0
53620,note_on,0,0,1,,,,,,,,,0,,,67,0
53620,note_on,1,0,1,,,,,,,,,0,,,76,0
53639,note_on,19,0,3,,,,,,,,,2,,,55,0
53639,note_on,19,0,1,,,,,,,,,0,,,67,0
53639,note_on,0,0,1,,,,,,,,,0,,,74,0
53639,note_on,0,0,3,,,,,,,,,2,,,62,0
53640,control_change,1,0,3,,,,,,,,,2,64,127,,
53640,note_on,0,0,3,,,,,,,,,2,,,52,36
53640,note_on,0,0,3,,,,,,,,,2,,,60,36
53640,note_on,1,0,1,,,,,,,,,0,,,67,36
53640,note_on,0,0,1,,,,,,,,,0,,,72,36
53660,note_on,20,0,3,,,,,,,,,2,,,60,0
53660,note_on,0,0,3,,,,,,,,,2,,,55,36
53660,note_on,0,0,3,,,,,,,,,2,,,52,0
53670,note_on,30,0,1,,,,,,,,,0,,,72,0
53670,note_on,0,0,1,,,,,,,,,0,,,67,0
53679,note_on,19,0,3,,,,,,,,,2,,,55,36
53680,note_on,1,0,3,,,,,,,,,2,,,55,0
53699,note_on,19,0,3,,,,,,,,,2,,,55,0
53700,note_on,1,0,3,,,,,,,,,2,,,55,36
53720,note_on,0,0,3,,,,,,,,,2,,,55,36
53720,note_on,20,0,3,,,,,,,,,2,,,55,0
53739,note_on,0,0,3,,,,,,,,,2,,,55,36
53739,control_change,19,0,3,,,,,,,,,2,64,0,,
53740,note_on,1,0,3,,,,,,,,,2,,,55,0
53759,note_on,19,0,3,,,,,,,,,2,,,55,0
53760,note_on,0,0,3,,,,,,,,,2,,,65,36
53760,note_on,1,0,3,,,,,,,,,2,,,62,36
53760,note_on,90,0,1,,,,,,,,,0,,,67,36
53760,note_on,0,0,1,,,,,,,,,0,,,77,36
53780,note_on,20,0,3,,,,,,,,,2,,,65,0
53780,note_on,0,0,1,,,,,,,,,0,,,67,0
53780,note_on,0,0,1,,,,,,,,,0,,,67,36
53780,note_on,0,0,1,,,,,,,,,0,,,76,36
53780,note_on,0,0,3,,,,,,,,,2,,,60,36
53780,note_on,0,0,3,,,,,,,,,2,,,64,36
53780,note_on,20,0,1,,,,,,,,,0,,,77,0
53780,note_on,0,0,3,,,,,,,,,2,,,62,0
53799,note_on,19,0,3,,,,,,,,,2,,,55,36
53799,note_on,0,0,3,,,,,,,,,2,,,62,36
53799,note_on,0,0,1,,,,,,,,,0,,,74,36
53799,note_on,19,0,1,,,,,,,,,0,,,67,36
53800,note_on,0,0,1,,,,,,,,,0,,,67,0
53800,note_on,0,0,3,,,,,,,,,2,,,60,0
53800,note_on,1,0,1,,,,,,,,,0,,,76,0
53800,note_on,1,0,3,,,,,,,,,2,,,64,0
53819,note_on,0,0,1,,,,,,,,,0,,,74,0
53819,note_on,19,0,3,,,,,,,,,2,,,55,0
53819,note_on,0,0,3,,,,,,,,,2,,,62,0
53819,note_on,19,0,1,,,,,,,,,0,,,67,0
53820,note_on,0,0,1,,,,,,,,,0,,,72,36
53820,note_on,1,0,1,,,,,,,,,0,,,67,36
53820,note_on,0,0,3,,,,,,,,,2,,,60,36
53820,note_on,0,0,3,,,,,,,,,2,,,52,36
53820,control_change,1,0,3,,,,,,,,,2,64,127,,
53840,note_on,0,0,3,,,,,,,,,2,,,52,0
53840,note_on,20,0,3,,,,,,,,,2,,,60,0
53840,note_on,0,0,3,,,,,,,,,2,,,55,36
53850,note_on,0,0,1,,,,,,,,,0,,,67,0
53850,note_on,30,0,1,,,,,,,,,0,,,72,0
53859,note_on,19,0,3,,,,,,,,,2,,,55,36
53860,note_on,1,0,3,,,,,,,,,2,,,55,0
53879,note_on,19,0,3,,,,,,,,,2,,,55,0
53880,note_on,1,0,3,,,,,,,,,2,,,55,36
53900,note_on,20,0,3,,,,,,,,,2,,,55,0
53900,note_on,0,0,3,,,,,,,,,2,,,55,36
53919,note_on,0,0,3,,,,,,,,,2,,,55,36
53919,control_change,19,0,3,,,,,,,,,2,64,0,,
53920,note_on,1,0,3,,,,,,,,,2,,,55,0
53939,note_on,19,0,3,,,,,,,,,2,,,55,0
53940,note_on,1,0,3,,,,,,,,,2,,,55,36
53940,note_on,0,0,3,,,,,,,,,2,,,62,36
53940,note_on,90,0,1,,,,,,,,,0,,,74,36
53940,note_on,0,0,1,,,,,,,,,0,,,86,36
53960,note_on,0,0,3,,,,,,,,,2,,,55,0
53960,note_on,0,0,3,,,,,,,,,2,,,64,36
53960,note_on,0,0,1,,,,,,,,,0,,,88,36
53960,note_on,0,0,1,,,,,,,,,0,,,76,36
53960,note_on,0,0,1,,,,,,,,,0,,,74,0
53960,note_on,20,0,1,,,,,,,,,0,,,86,0
53960,note_on,20,0,3,,,,,,,,,2,,,62,0
53960,note_on,0,0,3,,,,,,,,,2,,,60,36
53979,note_on,0,0,1,,,,,,,,,0,,,86,36
53979,note_on,19,0,1,,,,,,,,,0,,,74,36
53979,note_on,19,0,3,,,,,,,,,2,,,55,36
53979,note_on,0,0,3,,,,,,,,,2,,,62,36
53980,note_on,0,0,1,,,,,,,,,0,,,76,0
53980,note_on,1,0,1,,,,,,,,,0,,,88,0
53980,note_on,1,0,3,,,,,,,,,2,,,64,0
53980,note_on,0,0,3,,,,,,,,,2,,,60,0
53999,note_on,0,0,3,,,,,,,,,2,,,62,0
53999,note_on,0,0,1,,,,,,,,,0,,,86,0
53999,note_on,19,0,1,,,,,,,,,0,,,74,0
53999,note_on,19,0,3,,,,,,,,,2,,,55,0
54000,note_on,0,0,1,,,,,,,,,0,,,84,36
54000,note_on,0,0,1,,,,,,,,,0,,,72,36
54000,control_change,1,0,1,,,,,,,,,0,64,127,,
54000,control_change,1,0,3,,,,,,,,,2,64,127,,
54000,note_on,0,0,3,,,,,,,,,2,,,52,36
54000,note_on,0,0,3,,,,,,,,,2,,,60,36
54020,note_on,20,0,3,,,,,,,,,2,,,60,0
54020,note_on,0,0,3,,,,,,,,,2,,,52,0
54020,note_on,0,0,3,,,,,,,,,2,,,55,36
54030,note_on,0,0,1,,,,,,,,,0,,,72,0
54030,note_on,30,0,1,,,,,,,,,0,,,84,0
54039,note_on,19,0,3,,,,,,,,,2,,,55,36
54040,note_on,1,0,3,,,,,,,,,2,,,55,0
54059,note_on,19,0,3,,,,,,,,,2,,,55,0
54060,note_on,1,0,3,,,,,,,,,2,,,55,36
54080,note_on,20,0,3,,,,,,,,,2,,,55,0
54080,note_on,0,0,3,,,,,,,,,2,,,55,36
54099,note_on,19,0,3,,,,,,,,,2,,,55,36
54100,note_on,1,0,3,,,,,,,,,2,,,55,0
54119,note_on,19,0,3,,,,,,,,,2,,,55,0
54120,note_on,0,0,1,,,,,,,,,0,,,89,36
54120,note_on,0,0,3,,,,,,,,,2,,,65,36
54120,note_on,1,0,3,,,,,,,,,2,,,62,36
54120,note_on,90,0,1,,,,,,,,,0,,,77,36
54140,control_change,0,0,1,,,,,,,,,0,64,0,,
54140,note_on,0,0,1,,,,,,,,,0,,,88,36
54140,note_on,0,0,1,,,,,,,,,0,,,76,36
54140,note_on,0,0,1,,,,,,,,,0,,,77,0
54140,note_on,20,0,1,,,,,,,,,0,,,89,0
54140,note_on,0,0,3,,,,,,,,,2,,,64,36
54140,note_on,0,0,3,,,,,,,,,2,,,60,36
54140,control_change,0,0,3,,,,,,,,,2,64,0,,
54140,note_on,0,0,3,,,,,,,,,2,,,62,0
54140,note_on,20,0,3,,,,,,,,,2,,,65,0
54159,note_on,0,0,1,,,,,,,,,0,,,86,36
54159,note_on,19,0,1,,,,,,,,,0,,,74,36
54159,note_on,0,0,3,,,,,,,,,2,,,62,36
54159,note_on,19,0,3,,,,,,,,,2,,,55,36
54160,note_on,1,0,1,,,,,,,,,0,,,88,0
54160,note_on,0,0,3,,,,,,,,,2,,,60,0
54160,note_on,0,0,1,,,,,,,,,0,,,76,0
54160,note_on,1,0,3,,,,,,,,,2,,,64,0
54179,note_on,19,0,3,,,,,,,,,2,,,55,0
54179,note_on,0,0,3,,,,,,,,,2,,,62,0
54179,note_on,0,0,1,,,,,,,,,0,,,86,0
54179,note_on,19,0,1,,,,,,,,,0,,,74,0
54180,note_on,0,0,3,,,,,,,,,2,,,60,36
54180,note_on,0,0,3,,,,,,,,,2,,,52,36
54180,control_change,1,0,3,,,,,,,,,2,64,127,,
54180,control_change,1,0,1,,,,,,,,,0,64,127,,
54180,note_on,0,0,1,,,,,,,,,0,,,72,36
54180,note_on,0,0,1,,,,,,,,,0,,,84,36
54200,note_on,20,0,3,,,,,,,,,2,,,60,0
54200,note_on,0,0,3,,,,,,,,,2,,,52,0
54200,note_on,0,0,3,,,,,,,,,2,,,48,36
54219,note_on,19,0,3,,,,,,,,,2,,,48,36
54220,note_on,1,0,3,,,,,,,,,2,,,48,0
54239,note_on,19,0,3,,,,,,,,,2,,,48,0
54240,note_on,60,0,1,,,,,,,,,0,,,84,0
54240,note_on,0,0,1,,,,,,,,,0,,,72,0
54240,note_on,1,0,3,,,,,,,,,2,,,48,36
54260,note_on,0,0,3,,,,,,,,,2,,,48,36
54260,note_on,20,0,3,,,,,,,,,2,,,48,0
54279,note_on,19,0,3,,,,,,,,,2,,,48,36
54280,note_on,1,0,3,,,,,,,,,2,,,48,0
54299,note_on,19,0,3,,,,,,,,,2,,,48,0
54300,note_on,1,0,3,,,,,,,,,2,,,48,36
54300,note_on,60,0,1,,,,,,,,,0,,,72,36
54300,note_on,0,0,1,,,,,,,,,0,,,76,36
54300,note_on,0,0,1,,,,,,,,,0,,,79,36
54306,note_on,0,0,1,,,,,,,,,0,,,76,0
54306,note_on,0,0,1,,,,,,,,,0,,,72,0
54306,note_on,6,0,1,,,,,,,,,0,,,79,0
54320,note_on,0,0,3,,,,,,,,,2,,,48,36
54320,note_on,20,0,3,,,,,,,,,2,,,48,0
54339,note_on,19,0,3,,,,,,,,,2,,,48,36
54340,note_on,1,0,3,,,,,,,,,2,,,48,0
54359,note_on,19,0,3,,,,,,,,,2,,,48,0
54360,note_on,1,0,3,,,,,,,,,2,,,48,36
54380,note_on,0,0,3,,,,,,,,,2,,,36,36
54380,note_on,20,0,3,,,,,,,,,2,,,48,0
54399,note_on,19,0,3,,,,,,,,,2,,,36,36
54400,note_on,1,0,3,,,,,,,,,2,,,36,0
54419,note_on,19,0,3,,,,,,,,,2,,,36,0
54420,note_on,0,0,1,,,,,,,,,0,,,72,36
54420,note_on,0,0,1,,,,,,,,,0,,,76,36
54420,note_on,0,0,1,,,,,,,,,0,,,67,36
54420,note_on,1,0,3,,,,,,,,,2,,,36,36
54420,control_change,114,0,1,,,,,,,,,0,64,0,,
54426,note_on,0,0,1,,,,,,,,,0,,,67,0
54426,note_on,0,0,1,,,,,,,,,0,,,72,0
54426,note_on,6,0,1,,,,,,,,,0,,,76,0
54440,note_on,0,0,3,,,,,,,,,2,,,36,36
54440,note_on,20,0,3,,,,,,,,,2,,,36,0
54459,note_on,19,0,3,,,,,,,,,2,,,36,36
54460,note_on,1,0,3,,,,,,,,,2,,,36,0
54479,note_on,19,0,3,,,,,,,,,2,,,36,0
54480,note_on,1,0,3,,,,,,,,,2,,,36,36
54500,note_on,0,0,3,,,,,,,,,2,,,36,36
54500,note_on,20,0,3,,,,,,,,,2,,,36,0
54519,note_on,0,0,3,,,,,,,,,2,,,36,36
54519,control_change,19,0,3,,,,,,,,,2,64,0,,
54520,note_on,1,0,3,,,,,,,,,2,,,36,0
54539,note_on,19,0,3,,,,,,,,,2,,,36,0
54540,note_on,114,0,1,,,,,,,,,0,,,64,36
54540,note_on,0,0,1,,,,,,,,,0,,,67,36
54540,note_on,0,0,1,,,,,,,,,0,,,72,36
54540,note_on,1,0,3,,,,,,,,,2,,,36,36
54560,note_on,20,0,1,,,,,,,,,0,,,72,0
54560,note_on,0,0,1,,,,,,,,,0,,,67,0
54560,note_on,0,0,1,,,,,,,,,0,,,64,0
54560,note_on,0,0,1,,,,,,,,,0,,,72,36
54560,control_change,0,0,1,,,,,,,,,0,64,127,,
54560,note_on,0,0,1,,,,,,,,,0,,,76,36
54560,note_on,0,0,1,,,,,,,,,0,,,84,36
54560,note_on,0,0,3,,,,,,,,,2,,,60,36
54560,note_on,0,0,3,,,,,,,,,2,,,67,36
54560,control_change,0,0,3,,,,,,,,,2,64,127,,
54560,note_on,20,0,3,,,,,,,,,2,,,36,0
54564,note_on,4,0,1,,,,,,,,,0,,,84,0
54564,note_on,0,0,1,,,,,,,,,0,,,76,0
54564,note_on,0,0,1,,,,,,,,,0,,,72,0
54564,note_on,4,0,3,,,,,,,,,2,,,67,0
54564,note_on,0,0,3,,,,,,,,,2,,,60,0
54579,note_on,15,0,1,,,,,,,,,0,,,72,36
54579,note_on,0,0,1,,,,,,,,,0,,,76,36
54579,note_on,0,0,1,,,,,,,,,0,,,84,36
54579,note_on,0,0,3,,,,,,,,,2,,,67,36
54579,note_on,15,0,3,,,,,,,,,2,,,60,36
54583,note_on,4,0,3,,,,,,,,,2,,,67,0
54583,note_on,4,0,1,,,,,,,,,0,,,84,0
54583,note_on,0,0,1,,,,,,,,,0,,,76,0
54583,note_on,0,0,1,,,,,,,,,0,,,72,0
54583,note_on,0,0,3,,,,,,,,,2,,,60,0
54600,note_on,0,0,3,,,,,,,,,2,,,67,36
54600,note_on,17,0,1,,,,,,,,,0,,,72,36
54600,note_on,17,0,3,,,,,,,,,2,,,60,36
54600,set_tempo,3300,1,0,,,,,,1363636,,,,,,,
54600,note_on,0,0,1,,,,,,,,,0,,,84,36
54600,note_on,0,0,1,,,,,,,,,0,,,76,36
54604,note_on,4,0,1,,,,,,,,,0,,,84,0
54604,note_on,0,0,1,,,,,,,,,0,,,76,0
54604,note_on,0,0,1,,,,,,,,,0,,,72,0
54604,note_on,0,0,3,,,,,,,,,2,,,60,0
54604,note_on,4,0,3,,,,,,,,,2,,,67,0
54620,note_on,0,0,1,,,,,,,,,0,,,76,36
54620,note_on,0,0,1,,,,,,,,,0,,,84,36
54620,note_on,16,0,1,,,,,,,,,0,,,72,36
54620,note_on,0,0,3,,,,,,,,,2,,,67,36
54620,note_on,16,0,3,,,,,,,,,2,,,60,36
54624,note_on,0,0,1,,,,,,,,,0,,,72,0
54624,note_on,0,0,3,,,,,,,,,2,,,60,0
54624,note_on,4,0,3,,,,,,,,,2,,,67,0
54624,note_on,0,0,1,,,,,,,,,0,,,76,0
54624,note_on,4,0,1,,,,,,,,,0,,,84,0
54639,note_on,0,0,3,,,,,,,,,2,,,67,36
54639,note_on,15,0,3,,,,,,,,,2,,,60,36
54639,note_on,0,0,1,,,,,,,,,0,,,84,36
54639,note_on,0,0,1,,,,,,,,,0,,,76,36
54639,note_on,15,0,1,,,,,,,,,0,,,72,36
54643,note_on,4,0,3,,,,,,,,,2,,,67,0
54643,note_on,0,0,1,,,,,,,,,0,,,76,0
54643,note_on,4,0,1,,,,,,,,,0,,,84,0
54643,note_on,0,0,1,,,,,,,,,0,,,72,0
54643,note_on,0,0,3,,,,,,,,,2,,,60,0
54660,control_change,17,0,1,,,,,,,,,0,64,0,,
54660,note_on,0,0,1,,,,,,,,,0,,,72,36
54660,note_on,0,0,1,,,,,,,,,0,,,77,36
54660,note_on,0,0,1,,,,,,,,,0,,,84,36
54660,note_on,0,0,3,,,,,,,,,2,,,60,36
54660,note_on,0,0,3,,,,,,,,,2,,,69,36
54660,set_tempo,60,1,0,,,,,,1500000,,,,,,,
54660,end_of_track,0,1,0,,,,,,,,,,,,,
54660,control_change,17,0,3,,,,,,,,,2,64,0,,
54664,note_on,0,0,3,,,,,,,,,2,,,60,0
54664,note_on,4,0,3,,,,,,,,,2,,,69,0
54664,note_on,0,0,1,,,,,,,,,0,,,72,0
54664,note_on,0,0,1,,,,,,,,,0,,,77,0
54664,note_on,4,0,1,,,,,,,,,0,,,84,0
54680,note_on,16,0,3,,,,,,,,,2,,,60,36
54680,note_on,0,0,1,,,,,,,,,0,,,77,36
54680,note_on,16,0,1,,,,,,,,,0,,,72,36
54680,note_on,0,0,1,,,,,,,,,0,,,84,36
54680,note_on,0,0,3,,,,,,,,,2,,,69,36
54684,note_on,0,0,3,,,,,,,,,2,,,60,0
54684,note_on,4,0,3,,,,,,,,,2,,,69,0
54684,note_on,0,0,1,,,,,,,,,0,,,72,0
54684,note_on,0,0,1,,,,,,,,,0,,,77,0
54684,note_on,4,0,1,,,,,,,,,0,,,84,0
54699,note_on,0,0,1,,,,,,,,,0,,,84,36
54699,note_on,0,0,1,,,,,,,,,0,,,77,36
54699,note_on,15,0,1,,,,,,,,,0,,,72,36
54699,note_on,15,0,3,,,,,,,,,2,,,60,36
54699,note_on,0,0,3,,,,,,,,,2,,,69,36
54703,note_on,0,0,3,,,,,,,,,2,,,60,0
54703,note_on,4,0,3,,,,,,,,,2,,,69,0
54703,note_on,4,0,1,,,,,,,,,0,,,84,0
54703,note_on,0,0,1,,,,,,,,,0,,,77,0
54703,note_on,0,0,1,,,,,,,,,0,,,72,0
54720,note_on,0,0,1,,,,,,,,,0,,,84,36
54720,note_on,17,0,1,,,,,,,,,0,,,72,36
54720,note_on,0,0,1,,,,,,,,,0,,,76,36
54720,note_on,0,0,3,,,,,,,,,2,,,67,36
54720,note_on,17,0,3,,,,,,,,,2,,,60,36
54900,note_on,180,0,1,,,,,,,,,0,,,84,0
54900,note_on,0,0,1,,,,,,,,,0,,,76,0
54900,note_on,0,0,1,,,,,,,,,0,,,72,0
54900,note_on,180,0,3,,,,,,,,,2,,,67,0
54900,note_on,0,0,3,,,,,,,,,2,,,60,0
55080,control_change,180,0,3,,,,,,,,,2,64,0,,
55080,control_change,180,0,1,,,,,,,,,0,64,0,,
55080,control_change,15480,0,4,,,,,,,,,3,64,0,,
55080,control_change,3601,0,2,,,,,,,,,1,64,0,,
55260,control_change,180,0,2,,,,,,,,,1,64,0,,
55260,end_of_track,0,1,3,,,,,,,,,,,,,
55260,control_change,180,0,3,,,,,,,,,2,64,0,,
55260,end_of_track,0,1,2,,,,,,,,,,,,,
55260,control_change,180,0,1,,,,,,,,,0,64,0,,
55260,end_of_track,0,1,1,,,,,,,,,,,,,
55260,control_change,180,0,4,,,,,,,,,3,64,0,,
55260,end_of_track,0,1,4,,,,,,,,,,,,,
