tick,type,numerator,denominator,clocks_per_click,notated_32nd_notes_per_beat,time,meta,track,key,tempo,port,program,channel,control,value,note,velocity
0,time_signature,2,2,48,8,0,1,0,,,,,,,,,
0,program_change,,,,,0,0,1,,,,0,0,,,,
0,control_change,,,,,0,0,1,,,,,0,7,80,,
0,control_change,,,,,0,0,1,,,,,0,10,80,,
0,track_name,,,,,0,1,9,,,,,,,,,
0,midi_port,,,,,0,1,2,,,0,,,,,,
0,track_name,,,,,0,1,2,,,,,,,,,
0,program_change,,,,,0,0,2,,,,0,0,,,,
0,control_change,,,,,0,0,2,,,,,0,7,80,,
0,control_change,,,,,0,0,2,,,,,0,10,48,,
0,midi_port,,,,,0,1,3,,,0,,,,,,
0,end_of_track,,,,,0,1,3,,,,,,,,,
0,midi_port,,,,,0,1,4,,,0,,,,,,
0,track_name,,,,,0,1,1,,,,,,,,,
0,end_of_track,,,,,0,1,4,,,,,,,,,
0,track_name,,,,,0,1,5,,,,,,,,,
0,end_of_track,,,,,0,1,5,,,,,,,,,
0,midi_port,,,,,0,1,6,,,0,,,,,,
0,track_name,,,,,0,1,6,,,,,,,,,
0,end_of_track,,,,,0,1,6,,,,,,,,,
0,midi_port,,,,,0,1,7,,,0,,,,,,
0,track_name,,,,,0,1,7,,,,,,,,,
0,end_of_track,,,,,0,1,7,,,,,,,,,
0,midi_port,,,,,0,1,8,,,0,,,,,,
0,track_name,,,,,0,1,8,,,,,,,,,
0,end_of_track,,,,,0,1,8,,,,,,,,,
0,midi_port,,,,,0,1,9,,,0,,,,,,
0,midi_port,,,,,0,1,5,,,0,,,,,,
0,midi_port,,,,,0,1,1,,,0,,,,,,
0,end_of_track,,,,,0,1,9,,,,,,,,,
0,key_signature,,,,,0,1,0,G,,,,,,,,
0,marker,,,,,0,1,0,,,,,,,,,
0,set_tempo,,,,,0,1,0,,377358,,,,,,,
360,control_change,,,,,360,0,1,,,,,0,91,96,,
360,note_on,,,,,0,0,1,,,,,0,,,73,53
370,set_tempo,,,,,370,1,0,,413793,,,,,,,
420,note_on,,,,,0,0,1,,,,,0,,,76,46
420,note_on,,,,,60,0,1,,,,,0,,,73,0
440,set_tempo,,,,,70,1,0,,410958,,,,,,,
460,note_on,,,,,460,0,2,,,,,0,,,43,53
470,note_on,,,,,10,0,2,,,,,0,,,50,54
472,note_on,,,,,52,0,1,,,,,0,,,76,0
480,note_on,,,,,8,0,1,,,,,0,,,74,48
480,control_change,,,,,0,0,1,,,,,0,64,96,,
480,note_on,,,,,10,0,2,,,,,0,,,59,54
480,note_on,,,,,0,0,2,,,,,0,,,62,54
480,set_tempo,,,,,40,1,0,,377358,,,,,,,
840,note_on,,,,,360,0,1,,,,,0,,,74,0
840,note_on,,,,,0,0,1,,,,,0,,,72,39
860,set_tempo,,,,,380,1,0,,389610,,,,,,,
900,note_on,,,,,60,0,1,,,,,0,,,72,0
900,note_on,,,,,0,0,1,,,,,0,,,71,41
940,set_tempo,,,,,80,1,0,,384615,,,,,,,
940,control_change,,,,,40,0,1,,,,,0,64,0,,
940,note_on,,,,,460,0,2,,,,,0,,,43,0
954,note_on,,,,,14,0,1,,,,,0,,,71,0
960,note_on,,,,,0,0,2,,,,,0,,,62,48
960,note_on,,,,,0,0,2,,,,,0,,,60,48
960,note_on,,,,,0,0,2,,,,,0,,,59,0
960,note_on,,,,,20,0,2,,,,,0,,,62,0
960,control_change,,,,,0,0,1,,,,,0,64,95,,
960,note_on,,,,,6,0,1,,,,,0,,,69,43
1020,note_on,,,,,0,0,1,,,,,0,,,71,44
1020,note_on,,,,,60,0,1,,,,,0,,,69,0
1040,set_tempo,,,,,100,1,0,,368098,,,,,,,
1080,note_on,,,,,60,0,1,,,,,0,,,71,0
1080,note_on,,,,,0,0,1,,,,,0,,,72,45
1140,note_on,,,,,60,0,1,,,,,0,,,72,0
1140,note_on,,,,,0,0,1,,,,,0,,,74,46
1194,note_on,,,,,54,0,1,,,,,0,,,74,0
1200,note_on,,,,,0,0,2,,,,,0,,,57,45
1200,note_on,,,,,240,0,2,,,,,0,,,60,0
1200,note_on,,,,,6,0,1,,,,,0,,,72,48
1290,note_on,,,,,90,0,2,,,,,0,,,57,0
1290,note_on,,,,,90,0,1,,,,,0,,,72,0
1320,note_on,,,,,30,0,1,,,,,0,,,69,39
1320,note_on,,,,,30,0,2,,,,,0,,,54,38
1410,note_on,,,,,90,0,1,,,,,0,,,69,0
1410,note_on,,,,,90,0,2,,,,,0,,,54,0
1420,control_change,,,,,10,0,1,,,,,0,64,0,,
1420,note_on,,,,,10,0,2,,,,,0,,,50,0
1440,control_change,,,,,0,0,1,,,,,0,64,95,,
1440,note_on,,,,,0,0,1,,,,,0,,,71,43
1440,note_on,,,,,20,0,1,,,,,0,,,62,43
1440,note_on,,,,,0,0,2,,,,,0,,,55,37
1440,note_on,,,,,20,0,2,,,,,0,,,62,0
1440,note_on,,,,,0,0,2,,,,,0,,,43,37
1440,note_on,,,,,0,0,2,,,,,0,,,50,37
1560,note_on,,,,,120,0,1,,,,,0,,,71,0
1560,note_on,,,,,0,0,1,,,,,0,,,67,34
1560,note_on,,,,,0,0,2,,,,,0,,,47,30
1560,note_on,,,,,120,0,2,,,,,0,,,43,0
1620,note_on,,,,,0,0,2,,,,,0,,,50,0
1620,note_on,,,,,0,0,2,,,,,0,,,55,0
1620,note_on,,,,,60,0,2,,,,,0,,,47,0
1620,note_on,,,,,60,0,1,,,,,0,,,67,0
1620,note_on,,,,,0,0,1,,,,,0,,,62,0
1620,control_change,,,,,0,0,1,,,,,0,64,0,,
1680,note_on,,,,,0,0,1,,,,,0,,,62,40
1680,note_on,,,,,0,0,2,,,,,0,,,55,42
1680,note_on,,,,,60,0,2,,,,,0,,,50,42
1680,note_on,,,,,60,0,1,,,,,0,,,59,40
1710,set_tempo,,,,,670,1,0,,382165,,,,,,,
1720,set_tempo,,,,,10,1,0,,384615,,,,,,,
1739,note_on,,,,,0,0,2,,,,,0,,,50,0
1739,note_on,,,,,59,0,1,,,,,0,,,62,0
1739,note_on,,,,,0,0,1,,,,,0,,,59,0
1739,note_on,,,,,59,0,2,,,,,0,,,55,0
1740,note_on,,,,,0,0,2,,,,,0,,,55,35
1740,note_on,,,,,0,0,1,,,,,0,,,62,33
1740,note_on,,,,,1,0,1,,,,,0,,,59,33
1740,note_on,,,,,1,0,2,,,,,0,,,50,35
1790,set_tempo,,,,,70,1,0,,397350,,,,,,,
1794,note_on,,,,,0,0,1,,,,,0,,,59,0
1794,note_on,,,,,0,0,2,,,,,0,,,50,0
1794,note_on,,,,,54,0,1,,,,,0,,,62,0
1794,note_on,,,,,54,0,2,,,,,0,,,55,0
1800,note_on,,,,,0,0,2,,,,,0,,,55,35
1800,set_tempo,,,,,10,1,0,,400000,,,,,,,
1800,note_on,,,,,0,0,1,,,,,0,,,62,33
1800,note_on,,,,,6,0,2,,,,,0,,,50,35
1800,note_on,,,,,6,0,1,,,,,0,,,59,33
1854,note_on,,,,,54,0,2,,,,,0,,,55,0
1854,note_on,,,,,0,0,1,,,,,0,,,59,0
1854,note_on,,,,,54,0,1,,,,,0,,,62,0
1854,note_on,,,,,0,0,2,,,,,0,,,50,0
1860,note_on,,,,,0,0,2,,,,,0,,,55,38
1860,note_on,,,,,0,0,1,,,,,0,,,62,34
1860,note_on,,,,,6,0,1,,,,,0,,,59,34
1860,note_on,,,,,6,0,2,,,,,0,,,50,38
1914,note_on,,,,,54,0,2,,,,,0,,,55,0
1914,note_on,,,,,54,0,1,,,,,0,,,62,0
1914,note_on,,,,,0,0,1,,,,,0,,,59,0
1914,note_on,,,,,0,0,2,,,,,0,,,50,0
1920,note_on,,,,,6,0,1,,,,,0,,,59,40
1920,note_on,,,,,0,0,1,,,,,0,,,62,40
1920,control_change,,,,,0,0,1,,,,,0,64,95,,
1920,note_on,,,,,6,0,2,,,,,0,,,50,41
1920,set_tempo,,,,,120,1,0,,400000,,,,,,,
1920,note_on,,,,,0,0,2,,,,,0,,,55,41
1990,set_tempo,,,,,70,1,0,,393442,,,,,,,
2030,set_tempo,,,,,40,1,0,,379746,,,,,,,
2040,note_on,,,,,0,0,1,,,,,0,,,64,39
2040,note_on,,,,,0,0,1,,,,,0,,,60,39
2040,note_on,,,,,0,0,1,,,,,0,,,59,0
2040,note_on,,,,,120,0,1,,,,,0,,,62,0
2160,note_on,,,,,120,0,1,,,,,0,,,64,0
2160,note_on,,,,,0,0,1,,,,,0,,,62,30
2160,note_on,,,,,0,0,1,,,,,0,,,59,30
2160,note_on,,,,,0,0,1,,,,,0,,,60,0
2220,note_on,,,,,60,0,1,,,,,0,,,62,0
2220,note_on,,,,,300,0,2,,,,,0,,,55,0
2220,note_on,,,,,0,0,2,,,,,0,,,50,0
2220,note_on,,,,,0,0,1,,,,,0,,,59,0
2220,control_change,,,,,0,0,1,,,,,0,64,0,,
2280,note_on,,,,,60,0,1,,,,,0,,,79,52
2280,set_tempo,,,,,250,1,0,,377358,,,,,,,
2310,set_tempo,,,,,30,1,0,,394736,,,,,,,
2340,note_on,,,,,0,0,1,,,,,0,,,73,46
2340,note_on,,,,,60,0,1,,,,,0,,,79,0
2380,note_on,,,,,160,0,2,,,,,0,,,43,53
2390,note_on,,,,,10,0,2,,,,,0,,,50,54
2392,note_on,,,,,52,0,1,,,,,0,,,73,0
2400,control_change,,,,,0,0,1,,,,,0,64,96,,
2400,note_on,,,,,8,0,1,,,,,0,,,74,48
2400,note_on,,,,,0,0,2,,,,,0,,,62,54
2400,note_on,,,,,10,0,2,,,,,0,,,59,54
2400,set_tempo,,,,,90,1,0,,377358,,,,,,,
2760,note_on,,,,,360,0,1,,,,,0,,,74,0
2760,note_on,,,,,0,0,1,,,,,0,,,72,39
2780,set_tempo,,,,,380,1,0,,389610,,,,,,,
2820,note_on,,,,,0,0,1,,,,,0,,,71,41
2820,note_on,,,,,60,0,1,,,,,0,,,72,0
2860,set_tempo,,,,,80,1,0,,384615,,,,,,,
2860,note_on,,,,,460,0,2,,,,,0,,,43,0
2860,control_change,,,,,40,0,1,,,,,0,64,0,,
2870,set_tempo,,,,,10,1,0,,382165,,,,,,,
2874,note_on,,,,,14,0,1,,,,,0,,,71,0
2880,note_on,,,,,20,0,2,,,,,0,,,62,0
2880,note_on,,,,,0,0,2,,,,,0,,,59,0
2880,note_on,,,,,0,0,2,,,,,0,,,60,48
2880,note_on,,,,,0,0,2,,,,,0,,,62,48
2880,control_change,,,,,0,0,1,,,,,0,64,95,,
2880,note_on,,,,,6,0,1,,,,,0,,,69,43
2940,note_on,,,,,0,0,1,,,,,0,,,71,44
2940,note_on,,,,,60,0,1,,,,,0,,,69,0
2960,set_tempo,,,,,90,1,0,,368098,,,,,,,
3000,note_on,,,,,60,0,1,,,,,0,,,71,0
3000,note_on,,,,,0,0,1,,,,,0,,,72,45
3060,note_on,,,,,60,0,1,,,,,0,,,72,0
3060,note_on,,,,,0,0,1,,,,,0,,,74,46
3114,note_on,,,,,54,0,1,,,,,0,,,74,0
3120,note_on,,,,,240,0,2,,,,,0,,,60,0
3120,note_on,,,,,0,0,2,,,,,0,,,57,45
3120,note_on,,,,,6,0,1,,,,,0,,,72,48
3210,note_on,,,,,90,0,1,,,,,0,,,72,0
3210,note_on,,,,,90,0,2,,,,,0,,,57,0
3240,note_on,,,,,30,0,2,,,,,0,,,54,38
3240,note_on,,,,,30,0,1,,,,,0,,,69,39
3330,note_on,,,,,90,0,1,,,,,0,,,69,0
3330,note_on,,,,,90,0,2,,,,,0,,,54,0
3340,control_change,,,,,10,0,1,,,,,0,64,0,,
3340,note_on,,,,,10,0,2,,,,,0,,,50,0
3360,note_on,,,,,0,0,2,,,,,0,,,50,36
3360,note_on,,,,,20,0,1,,,,,0,,,59,43
3360,note_on,,,,,0,0,1,,,,,0,,,67,43
3360,control_change,,,,,0,0,1,,,,,0,64,95,,
3360,note_on,,,,,20,0,2,,,,,0,,,62,0
3360,note_on,,,,,0,0,2,,,,,0,,,43,36
3480,note_on,,,,,0,0,2,,,,,0,,,55,30
3480,note_on,,,,,120,0,2,,,,,0,,,50,0
3480,note_on,,,,,120,0,1,,,,,0,,,67,0
3480,note_on,,,,,0,0,1,,,,,0,,,62,34
3540,note_on,,,,,0,0,2,,,,,0,,,43,0
3540,note_on,,,,,60,0,2,,,,,0,,,55,0
3540,control_change,,,,,0,0,1,,,,,0,64,0,,
3540,note_on,,,,,60,0,1,,,,,0,,,62,0
3540,note_on,,,,,0,0,1,,,,,0,,,59,0
3600,note_on,,,,,0,0,2,,,,,0,,,62,51
3600,note_on,,,,,60,0,2,,,,,0,,,67,51
3600,note_on,,,,,0,0,1,,,,,0,,,71,48
3600,note_on,,,,,60,0,1,,,,,0,,,79,48
3630,set_tempo,,,,,670,1,0,,382165,,,,,,,
3640,set_tempo,,,,,10,1,0,,384615,,,,,,,
3659,note_on,,,,,0,0,2,,,,,0,,,67,0
3659,note_on,,,,,59,0,2,,,,,0,,,62,0
3659,note_on,,,,,0,0,1,,,,,0,,,79,0
3659,note_on,,,,,59,0,1,,,,,0,,,71,0
3660,note_on,,,,,1,0,1,,,,,0,,,71,44
3660,note_on,,,,,1,0,2,,,,,0,,,62,46
3660,note_on,,,,,0,0,2,,,,,0,,,67,46
3660,note_on,,,,,0,0,1,,,,,0,,,79,44
3710,set_tempo,,,,,70,1,0,,402684,,,,,,,
3714,note_on,,,,,0,0,1,,,,,0,,,71,0
3714,note_on,,,,,0,0,2,,,,,0,,,62,0
3714,note_on,,,,,54,0,2,,,,,0,,,67,0
3714,note_on,,,,,54,0,1,,,,,0,,,79,0
3720,note_on,,,,,6,0,2,,,,,0,,,62,50
3720,note_on,,,,,0,0,2,,,,,0,,,67,50
3720,note_on,,,,,0,0,1,,,,,0,,,79,46
3720,note_on,,,,,6,0,1,,,,,0,,,71,46
3774,note_on,,,,,0,0,1,,,,,0,,,71,0
3774,note_on,,,,,54,0,1,,,,,0,,,79,0
3774,note_on,,,,,0,0,2,,,,,0,,,62,0
3774,note_on,,,,,54,0,2,,,,,0,,,67,0
3780,note_on,,,,,0,0,1,,,,,0,,,79,49
3780,note_on,,,,,0,0,2,,,,,0,,,67,52
3780,note_on,,,,,6,0,1,,,,,0,,,71,49
3780,note_on,,,,,6,0,2,,,,,0,,,62,52
3830,set_tempo,,,,,120,1,0,,402684,,,,,,,
3834,note_on,,,,,54,0,1,,,,,0,,,79,0
3834,note_on,,,,,0,0,1,,,,,0,,,71,0
3834,note_on,,,,,54,0,2,,,,,0,,,67,0
3834,note_on,,,,,0,0,2,,,,,0,,,62,0
3840,note_on,,,,,6,0,2,,,,,0,,,62,55
3840,note_on,,,,,0,0,2,,,,,0,,,67,55
3840,set_tempo,,,,,10,1,0,,400000,,,,,,,
3840,note_on,,,,,6,0,1,,,,,0,,,71,51
3840,note_on,,,,,0,0,1,,,,,0,,,79,51
3840,control_change,,,,,0,0,1,,,,,0,64,95,,
3890,set_tempo,,,,,50,1,0,,392156,,,,,,,
3930,set_tempo,,,,,40,1,0,,382165,,,,,,,
3950,set_tempo,,,,,20,1,0,,379746,,,,,,,
3960,note_on,,,,,0,0,1,,,,,0,,,71,0
3960,note_on,,,,,0,0,1,,,,,0,,,72,43
3960,note_on,,,,,0,0,1,,,,,0,,,76,43
3960,note_on,,,,,120,0,1,,,,,0,,,79,0
4080,note_on,,,,,120,0,1,,,,,0,,,76,0
4080,note_on,,,,,0,0,1,,,,,0,,,72,0
4080,note_on,,,,,0,0,1,,,,,0,,,71,37
4080,note_on,,,,,0,0,1,,,,,0,,,74,37
4140,note_on,,,,,0,0,2,,,,,0,,,62,0
4140,note_on,,,,,60,0,1,,,,,0,,,74,0
4140,note_on,,,,,300,0,2,,,,,0,,,67,0
4140,note_on,,,,,0,0,1,,,,,0,,,71,0
4140,control_change,,,,,0,0,1,,,,,0,64,0,,
4200,note_on,,,,,60,0,2,,,,,0,,,50,30
4200,note_on,,,,,0,0,2,,,,,0,,,59,30
4200,note_on,,,,,60,0,1,,,,,0,,,62,42
4290,note_on,,,,,90,0,2,,,,,0,,,59,0
4290,note_on,,,,,0,0,2,,,,,0,,,50,0
4290,note_on,,,,,90,0,1,,,,,0,,,62,0
4320,note_on,,,,,30,0,1,,,,,0,,,64,48
4320,set_tempo,,,,,370,1,0,,425531,,,,,,,
4320,note_on,,,,,30,0,2,,,,,0,,,50,36
4320,note_on,,,,,0,0,2,,,,,0,,,60,36
4320,control_change,,,,,0,0,1,,,,,0,64,95,,
4379,note_on,,,,,59,0,2,,,,,0,,,60,0
4379,note_on,,,,,0,0,2,,,,,0,,,50,0
4380,note_on,,,,,1,0,2,,,,,0,,,50,34
4380,note_on,,,,,0,0,2,,,,,0,,,60,34
4420,set_tempo,,,,,100,1,0,,377358,,,,,,,
4434,note_on,,,,,54,0,2,,,,,0,,,60,0
4434,note_on,,,,,0,0,2,,,,,0,,,50,0
4440,note_on,,,,,0,0,2,,,,,0,,,60,32
4440,note_on,,,,,6,0,2,,,,,0,,,50,32
4494,note_on,,,,,54,0,2,,,,,0,,,60,0
4494,note_on,,,,,0,0,2,,,,,0,,,50,0
4500,note_on,,,,,6,0,2,,,,,0,,,50,32
4500,note_on,,,,,0,0,2,,,,,0,,,60,32
4554,note_on,,,,,54,0,2,,,,,0,,,60,0
4554,note_on,,,,,0,0,2,,,,,0,,,50,0
4560,note_on,,,,,6,0,2,,,,,0,,,50,30
4560,note_on,,,,,0,0,2,,,,,0,,,60,30
4670,control_change,,,,,350,0,1,,,,,0,64,0,,
4680,note_on,,,,,10,0,1,,,,,0,,,64,0
4680,note_on,,,,,0,0,1,,,,,0,,,66,43
4680,note_on,,,,,120,0,2,,,,,0,,,60,0
4680,note_on,,,,,0,0,2,,,,,0,,,50,0
4740,note_on,,,,,0,0,1,,,,,0,,,67,47
4740,note_on,,,,,60,0,1,,,,,0,,,66,0
4800,note_on,,,,,60,0,1,,,,,0,,,67,0
4800,set_tempo,,,,,380,1,0,,400000,,,,,,,
4800,control_change,,,,,0,0,1,,,,,0,64,95,,
4800,note_on,,,,,0,0,2,,,,,0,,,57,36
4800,note_on,,,,,120,0,2,,,,,0,,,50,36
4800,note_on,,,,,0,0,1,,,,,0,,,66,50
4859,note_on,,,,,59,0,2,,,,,0,,,57,0
4859,note_on,,,,,0,0,2,,,,,0,,,50,0
4860,note_on,,,,,0,0,2,,,,,0,,,57,34
4860,note_on,,,,,1,0,2,,,,,0,,,50,34
4860,note_on,,,,,60,0,1,,,,,0,,,66,0
4860,note_on,,,,,0,0,1,,,,,0,,,67,49
4890,set_tempo,,,,,90,1,0,,377358,,,,,,,
4914,note_on,,,,,54,0,2,,,,,0,,,57,0
4914,note_on,,,,,0,0,2,,,,,0,,,50,0
4920,note_on,,,,,60,0,1,,,,,0,,,67,0
4920,note_on,,,,,0,0,1,,,,,0,,,69,46
4920,note_on,,,,,6,0,2,,,,,0,,,50,33
4920,note_on,,,,,0,0,2,,,,,0,,,57,33
4974,note_on,,,,,54,0,2,,,,,0,,,57,0
4974,note_on,,,,,0,0,2,,,,,0,,,50,0
4980,note_on,,,,,60,0,1,,,,,0,,,69,0
4980,note_on,,,,,0,0,1,,,,,0,,,71,41
4980,note_on,,,,,0,0,2,,,,,0,,,57,32
4980,note_on,,,,,6,0,2,,,,,0,,,50,32
5034,note_on,,,,,54,0,2,,,,,0,,,57,0
5034,note_on,,,,,0,0,2,,,,,0,,,50,0
5034,note_on,,,,,54,0,1,,,,,0,,,71,0
5040,note_on,,,,,6,0,1,,,,,0,,,72,43
5040,note_on,,,,,6,0,2,,,,,0,,,54,31
5040,note_on,,,,,0,0,2,,,,,0,,,50,31
5130,note_on,,,,,90,0,1,,,,,0,,,72,0
5160,control_change,,,,,0,0,1,,,,,0,64,0,,
5160,note_on,,,,,120,0,2,,,,,0,,,50,0
5160,note_on,,,,,30,0,1,,,,,0,,,74,46
5160,note_on,,,,,0,0,2,,,,,0,,,54,0
5250,note_on,,,,,90,0,1,,,,,0,,,74,0
5280,note_on,,,,,30,0,1,,,,,0,,,67,50
5280,note_on,,,,,0,0,1,,,,,0,,,71,50
5280,control_change,,,,,0,0,1,,,,,0,64,94,,
5280,note_on,,,,,120,0,2,,,,,0,,,50,36
5280,note_on,,,,,0,0,2,,,,,0,,,55,36
5280,set_tempo,,,,,390,1,0,,431654,,,,,,,
5339,note_on,,,,,59,0,2,,,,,0,,,55,0
5339,note_on,,,,,0,0,2,,,,,0,,,50,0
5340,note_on,,,,,0,0,2,,,,,0,,,55,34
5340,note_on,,,,,1,0,2,,,,,0,,,50,34
5370,set_tempo,,,,,90,1,0,,377358,,,,,,,
5394,note_on,,,,,0,0,2,,,,,0,,,50,0
5394,note_on,,,,,54,0,2,,,,,0,,,55,0
5400,note_on,,,,,6,0,2,,,,,0,,,50,33
5400,note_on,,,,,0,0,2,,,,,0,,,55,33
5454,note_on,,,,,54,0,2,,,,,0,,,55,0
5454,note_on,,,,,0,0,2,,,,,0,,,50,0
5460,note_on,,,,,0,0,2,,,,,0,,,55,32
5460,note_on,,,,,6,0,2,,,,,0,,,50,32
5514,note_on,,,,,0,0,2,,,,,0,,,50,0
5514,note_on,,,,,54,0,2,,,,,0,,,55,0
5520,note_on,,,,,6,0,2,,,,,0,,,47,31
5520,note_on,,,,,0,0,2,,,,,0,,,55,31
5610,note_on,,,,,0,0,2,,,,,0,,,47,0
5610,note_on,,,,,90,0,2,,,,,0,,,55,0
5640,note_on,,,,,30,0,2,,,,,0,,,43,25
5640,control_change,,,,,0,0,1,,,,,0,64,0,,
5640,note_on,,,,,0,0,1,,,,,0,,,72,42
5640,note_on,,,,,0,0,1,,,,,0,,,69,42
5640,note_on,,,,,0,0,1,,,,,0,,,67,0
5640,note_on,,,,,360,0,1,,,,,0,,,71,0
5700,note_on,,,,,0,0,1,,,,,0,,,74,44
5700,note_on,,,,,0,0,1,,,,,0,,,69,0
5700,note_on,,,,,60,0,1,,,,,0,,,72,0
5700,note_on,,,,,0,0,1,,,,,0,,,71,44
5730,note_on,,,,,90,0,2,,,,,0,,,43,0
5760,note_on,,,,,30,0,2,,,,,0,,,60,39
5760,note_on,,,,,0,0,1,,,,,0,,,76,45
5760,note_on,,,,,0,0,2,,,,,0,,,55,39
5760,note_on,,,,,0,0,1,,,,,0,,,71,0
5760,note_on,,,,,60,0,1,,,,,0,,,74,0
5760,note_on,,,,,0,0,1,,,,,0,,,72,45
5760,control_change,,,,,0,0,1,,,,,0,64,95,,
5770,set_tempo,,,,,400,1,0,,402684,,,,,,,
5819,note_on,,,,,0,0,2,,,,,0,,,60,0
5819,note_on,,,,,59,0,2,,,,,0,,,55,0
5820,note_on,,,,,0,0,2,,,,,0,,,55,37
5820,note_on,,,,,1,0,2,,,,,0,,,60,37
5820,note_on,,,,,0,0,1,,,,,0,,,74,47
5820,set_tempo,,,,,50,1,0,,375000,,,,,,,
5820,note_on,,,,,60,0,1,,,,,0,,,76,0
5820,note_on,,,,,0,0,1,,,,,0,,,72,0
5820,note_on,,,,,0,0,1,,,,,0,,,78,47
5874,note_on,,,,,0,0,2,,,,,0,,,60,0
5874,note_on,,,,,54,0,2,,,,,0,,,55,0
5880,note_on,,,,,6,0,2,,,,,0,,,60,35
5880,note_on,,,,,0,0,2,,,,,0,,,55,35
5880,note_on,,,,,60,0,1,,,,,0,,,78,0
5880,note_on,,,,,0,0,1,,,,,0,,,76,49
5880,note_on,,,,,0,0,1,,,,,0,,,79,49
5880,note_on,,,,,0,0,1,,,,,0,,,74,0
5934,note_on,,,,,0,0,2,,,,,0,,,60,0
5934,note_on,,,,,54,0,2,,,,,0,,,55,0
5940,note_on,,,,,60,0,1,,,,,0,,,79,0
5940,note_on,,,,,0,0,1,,,,,0,,,76,0
5940,note_on,,,,,0,0,1,,,,,0,,,78,50
5940,note_on,,,,,6,0,2,,,,,0,,,60,34
5940,note_on,,,,,0,0,2,,,,,0,,,55,34
5940,note_on,,,,,0,0,1,,,,,0,,,81,50
5994,note_on,,,,,54,0,2,,,,,0,,,55,0
5994,note_on,,,,,0,0,2,,,,,0,,,60,0
6000,note_on,,,,,0,0,1,,,,,0,,,75,52
6000,note_on,,,,,0,0,1,,,,,0,,,71,52
6000,note_on,,,,,0,0,1,,,,,0,,,78,0
6000,note_on,,,,,60,0,1,,,,,0,,,81,0
6000,note_on,,,,,0,0,2,,,,,0,,,52,34
6000,note_on,,,,,6,0,2,,,,,0,,,60,34
6090,note_on,,,,,0,0,2,,,,,0,,,60,0
6090,note_on,,,,,90,0,2,,,,,0,,,52,0
6090,note_on,,,,,0,0,1,,,,,0,,,71,0
6090,note_on,,,,,90,0,1,,,,,0,,,75,0
6090,note_on,,,,,0,0,1,,,,,0,,,78,45
6105,note_on,,,,,15,0,1,,,,,0,,,78,0
6120,control_change,,,,,0,0,1,,,,,0,64,0,,
6120,note_on,,,,,0,0,1,,,,,0,,,76,43
6120,note_on,,,,,15,0,1,,,,,0,,,72,43
6120,note_on,,,,,30,0,2,,,,,0,,,48,29
6210,note_on,,,,,90,0,1,,,,,0,,,76,0
6210,note_on,,,,,0,0,1,,,,,0,,,72,0
6210,note_on,,,,,90,0,2,,,,,0,,,48,0
6240,note_on,,,,,30,0,2,,,,,0,,,55,39
6240,set_tempo,,,,,420,1,0,,425531,,,,,,,
6240,note_on,,,,,30,0,1,,,,,0,,,74,32
6240,note_on,,,,,0,0,1,,,,,0,,,71,32
6240,control_change,,,,,0,0,1,,,,,0,64,96,,
6299,note_on,,,,,59,0,2,,,,,0,,,55,0
6300,note_on,,,,,1,0,2,,,,,0,,,55,39
6320,set_tempo,,,,,80,1,0,,377358,,,,,,,
6354,note_on,,,,,54,0,2,,,,,0,,,55,0
6360,note_on,,,,,6,0,2,,,,,0,,,55,36
6414,note_on,,,,,54,0,2,,,,,0,,,55,0
6420,note_on,,,,,6,0,2,,,,,0,,,55,35
6474,note_on,,,,,54,0,2,,,,,0,,,55,0
6480,note_on,,,,,6,0,2,,,,,0,,,55,34
6510,note_on,,,,,270,0,1,,,,,0,,,71,0
6510,note_on,,,,,0,0,1,,,,,0,,,74,0
6540,note_on,,,,,30,0,1,,,,,0,,,67,35
6570,note_on,,,,,90,0,2,,,,,0,,,55,0
6600,note_on,,,,,0,0,1,,,,,0,,,62,39
6600,control_change,,,,,0,0,1,,,,,0,64,0,,
6600,note_on,,,,,0,0,2,,,,,0,,,50,31
6600,note_on,,,,,30,0,2,,,,,0,,,59,31
6600,note_on,,,,,60,0,1,,,,,0,,,67,0
6660,note_on,,,,,60,0,1,,,,,0,,,62,0
6660,note_on,,,,,0,0,1,,,,,0,,,67,42
6690,note_on,,,,,90,0,2,,,,,0,,,50,0
6690,note_on,,,,,0,0,2,,,,,0,,,59,0
6720,set_tempo,,,,,400,1,0,,425531,,,,,,,
6720,note_on,,,,,60,0,1,,,,,0,,,67,0
6720,note_on,,,,,0,0,2,,,,,0,,,60,36
6720,note_on,,,,,30,0,2,,,,,0,,,50,36
6720,control_change,,,,,0,0,1,,,,,0,64,95,,
6720,note_on,,,,,0,0,1,,,,,0,,,64,47
6779,note_on,,,,,0,0,2,,,,,0,,,50,0
6779,note_on,,,,,59,0,2,,,,,0,,,60,0
6780,note_on,,,,,0,0,2,,,,,0,,,60,34
6780,note_on,,,,,1,0,2,,,,,0,,,50,34
6820,set_tempo,,,,,100,1,0,,377358,,,,,,,
6834,note_on,,,,,0,0,2,,,,,0,,,50,0
6834,note_on,,,,,54,0,2,,,,,0,,,60,0
6840,note_on,,,,,0,0,2,,,,,0,,,60,32
6840,note_on,,,,,6,0,2,,,,,0,,,50,32
6894,note_on,,,,,0,0,2,,,,,0,,,50,0
6894,note_on,,,,,54,0,2,,,,,0,,,60,0
6900,note_on,,,,,6,0,2,,,,,0,,,50,32
6900,note_on,,,,,0,0,2,,,,,0,,,60,32
6954,note_on,,,,,54,0,2,,,,,0,,,60,0
6954,note_on,,,,,0,0,2,,,,,0,,,50,0
6960,note_on,,,,,6,0,2,,,,,0,,,50,30
6960,note_on,,,,,0,0,2,,,,,0,,,60,30
7070,control_change,,,,,350,0,1,,,,,0,64,0,,
7080,note_on,,,,,120,0,2,,,,,0,,,60,0
7080,note_on,,,,,0,0,2,,,,,0,,,50,0
7080,note_on,,,,,0,0,1,,,,,0,,,66,43
7080,note_on,,,,,10,0,1,,,,,0,,,64,0
7140,note_on,,,,,0,0,1,,,,,0,,,67,47
7140,note_on,,,,,60,0,1,,,,,0,,,66,0
7200,note_on,,,,,0,0,1,,,,,0,,,66,50
7200,control_change,,,,,0,0,1,,,,,0,64,95,,
7200,note_on,,,,,0,0,2,,,,,0,,,57,36
7200,note_on,,,,,120,0,2,,,,,0,,,50,36
7200,set_tempo,,,,,380,1,0,,397350,,,,,,,
7200,note_on,,,,,60,0,1,,,,,0,,,67,0
7259,note_on,,,,,0,0,2,,,,,0,,,50,0
7259,note_on,,,,,59,0,2,,,,,0,,,57,0
7260,note_on,,,,,0,0,2,,,,,0,,,57,34
7260,note_on,,,,,60,0,1,,,,,0,,,66,0
7260,note_on,,,,,1,0,2,,,,,0,,,50,34
7260,note_on,,,,,0,0,1,,,,,0,,,67,49
7290,set_tempo,,,,,90,1,0,,377358,,,,,,,
7310,set_tempo,,,,,20,1,0,,372670,,,,,,,
7314,note_on,,,,,0,0,2,,,,,0,,,50,0
7314,note_on,,,,,54,0,2,,,,,0,,,57,0
7320,note_on,,,,,60,0,1,,,,,0,,,67,0
7320,note_on,,,,,0,0,2,,,,,0,,,57,33
7320,note_on,,,,,6,0,2,,,,,0,,,50,33
7320,note_on,,,,,0,0,1,,,,,0,,,69,46
7370,set_tempo,,,,,60,1,0,,368098,,,,,,,
7374,note_on,,,,,54,0,2,,,,,0,,,57,0
7374,note_on,,,,,0,0,2,,,,,0,,,50,0
7380,note_on,,,,,60,0,1,,,,,0,,,69,0
7380,note_on,,,,,0,0,1,,,,,0,,,71,41
7380,note_on,,,,,0,0,2,,,,,0,,,57,32
7380,note_on,,,,,6,0,2,,,,,0,,,50,32
7434,note_on,,,,,54,0,1,,,,,0,,,71,0
7434,note_on,,,,,0,0,2,,,,,0,,,50,0
7434,note_on,,,,,54,0,2,,,,,0,,,57,0
7440,note_on,,,,,6,0,2,,,,,0,,,54,31
7440,note_on,,,,,6,0,1,,,,,0,,,72,43
7440,note_on,,,,,0,0,2,,,,,0,,,50,31
7530,note_on,,,,,90,0,1,,,,,0,,,72,0
7560,note_on,,,,,30,0,1,,,,,0,,,74,46
7560,control_change,,,,,0,0,1,,,,,0,64,0,,
7560,set_tempo,,,,,190,1,0,,361445,,,,,,,
7560,note_on,,,,,120,0,2,,,,,0,,,50,0
7560,note_on,,,,,0,0,2,,,,,0,,,54,0
7640,set_tempo,,,,,80,1,0,,400000,,,,,,,
7650,note_on,,,,,90,0,1,,,,,0,,,74,0
7680,note_on,,,,,0,0,1,,,,,0,,,71,50
7680,note_on,,,,,120,0,2,,,,,0,,,50,40
7680,note_on,,,,,0,0,2,,,,,0,,,55,40
7680,control_change,,,,,0,0,1,,,,,0,64,94,,
7680,note_on,,,,,30,0,1,,,,,0,,,67,50
7680,set_tempo,,,,,40,1,0,,431654,,,,,,,
7739,note_on,,,,,59,0,2,,,,,0,,,55,0
7739,note_on,,,,,0,0,2,,,,,0,,,50,0
7740,note_on,,,,,1,0,2,,,,,0,,,50,37
7740,note_on,,,,,0,0,2,,,,,0,,,55,37
7770,set_tempo,,,,,90,1,0,,372670,,,,,,,
7794,note_on,,,,,54,0,2,,,,,0,,,55,0
7794,note_on,,,,,0,0,2,,,,,0,,,50,0
7800,note_on,,,,,0,0,2,,,,,0,,,55,34
7800,note_on,,,,,6,0,2,,,,,0,,,50,34
7854,note_on,,,,,0,0,2,,,,,0,,,50,0
7854,note_on,,,,,54,0,2,,,,,0,,,55,0
7860,note_on,,,,,0,0,2,,,,,0,,,55,33
7860,note_on,,,,,6,0,2,,,,,0,,,50,33
7914,note_on,,,,,54,0,2,,,,,0,,,55,0
7914,note_on,,,,,0,0,2,,,,,0,,,50,0
7920,note_on,,,,,6,0,2,,,,,0,,,47,31
7920,note_on,,,,,0,0,2,,,,,0,,,55,31
7970,set_tempo,,,,,200,1,0,,370370,,,,,,,
8010,note_on,,,,,0,0,2,,,,,0,,,47,0
8010,note_on,,,,,90,0,2,,,,,0,,,55,0
8040,note_on,,,,,360,0,1,,,,,0,,,71,0
8040,note_on,,,,,0,0,1,,,,,0,,,69,42
8040,note_on,,,,,0,0,1,,,,,0,,,72,42
8040,control_change,,,,,0,0,1,,,,,0,64,0,,
8040,note_on,,,,,30,0,2,,,,,0,,,43,40
8040,note_on,,,,,0,0,1,,,,,0,,,67,0
8100,note_on,,,,,60,0,1,,,,,0,,,72,0
8100,note_on,,,,,0,0,1,,,,,0,,,74,44
8100,note_on,,,,,0,0,1,,,,,0,,,71,44
8100,note_on,,,,,0,0,1,,,,,0,,,69,0
8110,set_tempo,,,,,140,1,0,,363636,,,,,,,
8130,note_on,,,,,90,0,2,,,,,0,,,43,0
8140,set_tempo,,,,,30,1,0,,361445,,,,,,,
8160,control_change,,,,,0,0,1,,,,,0,64,95,,
8160,note_on,,,,,0,0,1,,,,,0,,,71,0
8160,note_on,,,,,60,0,1,,,,,0,,,74,0
8160,note_on,,,,,0,0,1,,,,,0,,,72,46
8160,set_tempo,,,,,20,1,0,,389610,,,,,,,
8160,note_on,,,,,0,0,1,,,,,0,,,76,46
8160,note_on,,,,,0,0,2,,,,,0,,,55,51
8160,note_on,,,,,30,0,2,,,,,0,,,60,51
8210,set_tempo,,,,,50,1,0,,361445,,,,,,,
8219,note_on,,,,,0,0,2,,,,,0,,,60,0
8219,note_on,,,,,59,0,2,,,,,0,,,55,0
8220,note_on,,,,,1,0,2,,,,,0,,,60,48
8220,note_on,,,,,0,0,1,,,,,0,,,78,49
8220,note_on,,,,,0,0,1,,,,,0,,,74,49
8220,note_on,,,,,0,0,1,,,,,0,,,72,0
8220,note_on,,,,,60,0,1,,,,,0,,,76,0
8220,note_on,,,,,0,0,2,,,,,0,,,55,48
8250,set_tempo,,,,,40,1,0,,359281,,,,,,,
8274,note_on,,,,,0,0,2,,,,,0,,,60,0
8274,note_on,,,,,54,0,2,,,,,0,,,55,0
8280,note_on,,,,,0,0,1,,,,,0,,,76,49
8280,note_on,,,,,0,0,1,,,,,0,,,74,0
8280,note_on,,,,,60,0,1,,,,,0,,,78,0
8280,note_on,,,,,6,0,2,,,,,0,,,60,44
8280,note_on,,,,,0,0,2,,,,,0,,,55,44
8280,note_on,,,,,0,0,1,,,,,0,,,79,49
8334,note_on,,,,,0,0,2,,,,,0,,,60,0
8334,note_on,,,,,54,0,2,,,,,0,,,55,0
8340,note_on,,,,,0,0,2,,,,,0,,,55,41
8340,note_on,,,,,6,0,2,,,,,0,,,60,41
8340,note_on,,,,,0,0,1,,,,,0,,,76,0
8340,note_on,,,,,0,0,1,,,,,0,,,78,51
8340,note_on,,,,,60,0,1,,,,,0,,,79,0
8340,note_on,,,,,0,0,1,,,,,0,,,81,51
8340,set_tempo,,,,,90,1,0,,352941,,,,,,,
8394,note_on,,,,,54,0,2,,,,,0,,,55,0
8394,note_on,,,,,0,0,2,,,,,0,,,60,0
8400,note_on,,,,,0,0,1,,,,,0,,,79,54
8400,note_on,,,,,0,0,1,,,,,0,,,78,0
8400,note_on,,,,,60,0,1,,,,,0,,,81,0
8400,note_on,,,,,6,0,2,,,,,0,,,60,38
8400,note_on,,,,,0,0,2,,,,,0,,,52,38
8400,note_on,,,,,0,0,1,,,,,0,,,83,54
8460,note_on,,,,,0,0,1,,,,,0,,,84,57
8460,note_on,,,,,0,0,1,,,,,0,,,81,57
8460,note_on,,,,,0,0,1,,,,,0,,,79,0
8460,note_on,,,,,60,0,1,,,,,0,,,83,0
8490,note_on,,,,,90,0,2,,,,,0,,,52,0
8490,note_on,,,,,0,0,2,,,,,0,,,60,0
8520,note_on,,,,,0,0,1,,,,,0,,,83,58
8520,note_on,,,,,0,0,1,,,,,0,,,84,0
8520,note_on,,,,,0,0,1,,,,,0,,,86,58
8520,control_change,,,,,0,0,1,,,,,0,64,0,,
8520,note_on,,,,,30,0,2,,,,,0,,,48,39
8520,note_on,,,,,60,0,1,,,,,0,,,81,0
8520,set_tempo,,,,,180,1,0,,355029,,,,,,,
8530,set_tempo,,,,,10,1,0,,357142,,,,,,,
8580,note_on,,,,,60,0,1,,,,,0,,,83,0
8580,note_on,,,,,0,0,1,,,,,0,,,84,61
8580,note_on,,,,,0,0,1,,,,,0,,,88,61
8580,note_on,,,,,0,0,1,,,,,0,,,86,0
8610,set_tempo,,,,,80,1,0,,363636,,,,,,,
8610,note_on,,,,,90,0,2,,,,,0,,,48,0
8640,note_on,,,,,30,0,2,,,,,0,,,55,55
8640,set_tempo,,,,,30,1,0,,425531,,,,,,,
8640,note_on,,,,,60,0,1,,,,,0,,,84,0
8640,control_change,,,,,0,0,1,,,,,0,64,96,,
8640,note_on,,,,,0,0,1,,,,,0,,,86,61
8640,note_on,,,,,0,0,1,,,,,0,,,83,61
8640,note_on,,,,,0,0,1,,,,,0,,,88,0
8650,set_tempo,,,,,10,1,0,,425531,,,,,,,
8699,note_on,,,,,59,0,2,,,,,0,,,55,0
8700,note_on,,,,,1,0,2,,,,,0,,,55,54
8740,set_tempo,,,,,90,1,0,,375000,,,,,,,
8754,note_on,,,,,54,0,2,,,,,0,,,55,0
8760,note_on,,,,,6,0,2,,,,,0,,,55,48
8814,note_on,,,,,54,0,2,,,,,0,,,55,0
8820,note_on,,,,,6,0,2,,,,,0,,,55,45
8874,note_on,,,,,54,0,2,,,,,0,,,55,0
8880,note_on,,,,,6,0,2,,,,,0,,,55,40
8970,note_on,,,,,330,0,1,,,,,0,,,86,0
8970,note_on,,,,,0,0,1,,,,,0,,,83,0
8970,note_on,,,,,90,0,2,,,,,0,,,55,0
9000,note_on,,,,,30,0,1,,,,,0,,,69,42
9000,control_change,,,,,0,0,1,,,,,0,64,0,,
9060,note_on,,,,,60,0,1,,,,,0,,,69,0
9060,note_on,,,,,0,0,1,,,,,0,,,71,42
9090,set_tempo,,,,,350,1,0,,372670,,,,,,,
9100,set_tempo,,,,,10,1,0,,370370,,,,,,,
9120,note_on,,,,,0,0,2,,,,,0,,,54,44
9120,note_on,,,,,150,0,2,,,,,0,,,50,44
9120,note_on,,,,,0,0,1,,,,,0,,,72,48
9120,control_change,,,,,0,0,1,,,,,0,64,95,,
9120,note_on,,,,,0,0,1,,,,,0,,,69,48
9120,note_on,,,,,60,0,1,,,,,0,,,71,0
9170,set_tempo,,,,,70,1,0,,368098,,,,,,,
9179,note_on,,,,,0,0,2,,,,,0,,,50,0
9179,note_on,,,,,59,0,2,,,,,0,,,54,0
9180,note_on,,,,,0,0,1,,,,,0,,,71,52
9180,note_on,,,,,0,0,1,,,,,0,,,74,52
9180,note_on,,,,,0,0,1,,,,,0,,,69,0
9180,note_on,,,,,60,0,1,,,,,0,,,72,0
9180,note_on,,,,,0,0,2,,,,,0,,,54,41
9180,note_on,,,,,1,0,2,,,,,0,,,50,41
9234,note_on,,,,,54,0,2,,,,,0,,,54,0
9234,note_on,,,,,0,0,2,,,,,0,,,50,0
9240,note_on,,,,,6,0,2,,,,,0,,,50,39
9240,note_on,,,,,60,0,1,,,,,0,,,74,0
9240,note_on,,,,,0,0,1,,,,,0,,,71,0
9240,note_on,,,,,0,0,1,,,,,0,,,72,52
9240,note_on,,,,,0,0,1,,,,,0,,,76,52
9240,note_on,,,,,0,0,2,,,,,0,,,54,39
9280,set_tempo,,,,,110,1,0,,359281,,,,,,,
9290,set_tempo,,,,,10,1,0,,357142,,,,,,,
9294,note_on,,,,,54,0,2,,,,,0,,,54,0
9294,note_on,,,,,0,0,2,,,,,0,,,50,0
9300,note_on,,,,,0,0,1,,,,,0,,,78,55
9300,note_on,,,,,60,0,1,,,,,0,,,76,0
9300,note_on,,,,,0,0,1,,,,,0,,,72,0
9300,note_on,,,,,0,0,1,,,,,0,,,74,55
9300,note_on,,,,,0,0,2,,,,,0,,,54,36
9300,note_on,,,,,6,0,2,,,,,0,,,50,36
9340,set_tempo,,,,,50,1,0,,352941,,,,,,,
9354,note_on,,,,,0,0,2,,,,,0,,,50,0
9354,note_on,,,,,54,0,2,,,,,0,,,54,0
9360,note_on,,,,,0,0,2,,,,,0,,,54,34
9360,note_on,,,,,6,0,2,,,,,0,,,50,34
9360,note_on,,,,,60,0,1,,,,,0,,,78,0
9360,note_on,,,,,0,0,1,,,,,0,,,74,0
9360,note_on,,,,,0,0,1,,,,,0,,,72,57
9360,note_on,,,,,0,0,1,,,,,0,,,76,57
9390,set_tempo,,,,,50,1,0,,355029,,,,,,,
9400,set_tempo,,,,,10,1,0,,357142,,,,,,,
9420,note_on,,,,,0,0,1,,,,,0,,,81,54
9420,note_on,,,,,0,0,1,,,,,0,,,72,0
9420,note_on,,,,,60,0,1,,,,,0,,,76,0
9450,note_on,,,,,90,0,2,,,,,0,,,54,0
9450,note_on,,,,,0,0,2,,,,,0,,,50,0
9470,set_tempo,,,,,70,1,0,,363636,,,,,,,
9480,control_change,,,,,0,0,1,,,,,0,64,0,,
9480,note_on,,,,,0,0,1,,,,,0,,,79,52
9480,note_on,,,,,60,0,1,,,,,0,,,81,0
9480,note_on,,,,,30,0,2,,,,,0,,,38,38
9480,note_on,,,,,0,0,1,,,,,0,,,76,52
9500,set_tempo,,,,,30,1,0,,365853,,,,,,,
9540,note_on,,,,,60,0,1,,,,,0,,,76,0
9540,note_on,,,,,0,0,1,,,,,0,,,72,51
9540,note_on,,,,,0,0,1,,,,,0,,,79,0
9570,note_on,,,,,90,0,2,,,,,0,,,38,0
9580,set_tempo,,,,,80,1,0,,365853,,,,,,,
9600,control_change,,,,,0,0,1,,,,,0,64,96,,
9600,note_on,,,,,0,0,1,,,,,0,,,71,46
9600,note_on,,,,,0,0,1,,,,,0,,,74,46
9600,note_on,,,,,60,0,1,,,,,0,,,72,0
9600,set_tempo,,,,,20,1,0,,425531,,,,,,,
9600,note_on,,,,,0,0,2,,,,,0,,,55,33
9600,note_on,,,,,30,0,2,,,,,0,,,50,33
9659,note_on,,,,,59,0,2,,,,,0,,,55,0
9659,note_on,,,,,0,0,2,,,,,0,,,50,0
9660,note_on,,,,,1,0,2,,,,,0,,,50,31
9660,note_on,,,,,0,0,2,,,,,0,,,55,31
9680,set_tempo,,,,,80,1,0,,377358,,,,,,,
9714,note_on,,,,,54,0,2,,,,,0,,,55,0
9714,note_on,,,,,0,0,2,,,,,0,,,50,0
9720,note_on,,,,,6,0,2,,,,,0,,,50,30
9720,note_on,,,,,0,0,2,,,,,0,,,55,30
9774,note_on,,,,,0,0,2,,,,,0,,,50,0
9774,note_on,,,,,54,0,2,,,,,0,,,55,0
9780,note_on,,,,,0,0,2,,,,,0,,,55,30
9780,note_on,,,,,6,0,2,,,,,0,,,50,30
9834,note_on,,,,,54,0,2,,,,,0,,,55,0
9834,note_on,,,,,0,0,2,,,,,0,,,50,0
9840,note_on,,,,,6,0,2,,,,,0,,,50,29
9840,note_on,,,,,0,0,2,,,,,0,,,55,29
9930,note_on,,,,,0,0,1,,,,,0,,,74,0
9930,note_on,,,,,0,0,2,,,,,0,,,50,0
9930,note_on,,,,,90,0,2,,,,,0,,,55,0
9930,note_on,,,,,330,0,1,,,,,0,,,71,0
9955,control_change,,,,,25,0,1,,,,,0,64,0,,
9960,note_on,,,,,30,0,2,,,,,0,,,38,35
9960,note_on,,,,,5,0,1,,,,,0,,,81,51
9960,note_on,,,,,0,0,1,,,,,0,,,84,51
9960,control_change,,,,,0,0,1,,,,,0,64,95,,
9970,set_tempo,,,,,290,1,0,,372670,,,,,,,
9980,set_tempo,,,,,10,1,0,,372670,,,,,,,
10020,note_on,,,,,60,0,1,,,,,0,,,84,0
10020,note_on,,,,,0,0,1,,,,,0,,,81,0
10020,note_on,,,,,0,0,1,,,,,0,,,83,52
10020,note_on,,,,,0,0,1,,,,,0,,,79,52
10050,set_tempo,,,,,70,1,0,,363636,,,,,,,
10050,note_on,,,,,90,0,2,,,,,0,,,38,0
10080,note_on,,,,,30,0,2,,,,,0,,,60,38
10080,note_on,,,,,0,0,1,,,,,0,,,81,56
10080,note_on,,,,,0,0,1,,,,,0,,,78,56
10080,note_on,,,,,0,0,1,,,,,0,,,79,0
10080,note_on,,,,,60,0,1,,,,,0,,,83,0
10080,note_on,,,,,0,0,2,,,,,0,,,50,38
10140,note_on,,,,,60,0,1,,,,,0,,,81,0
10140,note_on,,,,,0,0,1,,,,,0,,,78,0
10170,set_tempo,,,,,120,1,0,,355029,,,,,,,
10170,note_on,,,,,0,0,2,,,,,0,,,60,0
10170,note_on,,,,,90,0,2,,,,,0,,,50,0
10180,set_tempo,,,,,10,1,0,,352941,,,,,,,
10195,control_change,,,,,55,0,1,,,,,0,64,0,,
10200,note_on,,,,,30,0,2,,,,,0,,,38,43
10200,note_on,,,,,5,0,1,,,,,0,,,72,53
10200,note_on,,,,,0,0,1,,,,,0,,,76,53
10200,control_change,,,,,0,0,1,,,,,0,64,95,,
10260,note_on,,,,,60,0,1,,,,,0,,,76,0
10260,note_on,,,,,0,0,1,,,,,0,,,72,0
10260,note_on,,,,,0,0,1,,,,,0,,,71,56
10260,note_on,,,,,0,0,1,,,,,0,,,74,56
10290,note_on,,,,,90,0,2,,,,,0,,,38,0
10290,set_tempo,,,,,110,1,0,,342857,,,,,,,
10320,note_on,,,,,60,0,1,,,,,0,,,74,0
10320,note_on,,,,,0,0,1,,,,,0,,,71,0
10320,note_on,,,,,0,0,1,,,,,0,,,69,59
10320,note_on,,,,,0,0,1,,,,,0,,,72,59
10320,note_on,,,,,30,0,2,,,,,0,,,50,49
10320,note_on,,,,,0,0,2,,,,,0,,,54,49
10370,set_tempo,,,,,80,1,0,,346820,,,,,,,
10380,set_tempo,,,,,10,1,0,,348837,,,,,,,
10380,note_on,,,,,0,0,1,,,,,0,,,69,0
10380,note_on,,,,,60,0,1,,,,,0,,,72,0
10410,note_on,,,,,90,0,2,,,,,0,,,54,0
10410,note_on,,,,,0,0,2,,,,,0,,,50,0
10435,control_change,,,,,55,0,1,,,,,0,64,0,,
10440,note_on,,,,,30,0,2,,,,,0,,,38,52
10440,control_change,,,,,0,0,1,,,,,0,64,95,,
10440,note_on,,,,,0,0,1,,,,,0,,,79,61
10440,note_on,,,,,5,0,1,,,,,0,,,71,61
10450,set_tempo,,,,,70,1,0,,361445,,,,,,,
10500,note_on,,,,,0,0,1,,,,,0,,,81,65
10500,note_on,,,,,0,0,1,,,,,0,,,74,65
10500,note_on,,,,,0,0,1,,,,,0,,,71,0
10500,note_on,,,,,60,0,1,,,,,0,,,79,0
10530,set_tempo,,,,,80,1,0,,370370,,,,,,,
10530,note_on,,,,,90,0,2,,,,,0,,,38,0
10540,set_tempo,,,,,10,1,0,,372670,,,,,,,
10560,note_on,,,,,0,0,1,,,,,0,,,74,0
10560,note_on,,,,,60,0,1,,,,,0,,,81,0
10560,note_on,,,,,0,0,1,,,,,0,,,83,70
10560,note_on,,,,,30,0,2,,,,,0,,,50,56
10560,note_on,,,,,0,0,2,,,,,0,,,55,56
10560,note_on,,,,,0,0,1,,,,,0,,,79,70
10610,set_tempo,,,,,70,1,0,,384615,,,,,,,
10620,note_on,,,,,60,0,1,,,,,0,,,83,0
10620,note_on,,,,,0,0,1,,,,,0,,,79,0
10650,note_on,,,,,90,0,2,,,,,0,,,55,0
10650,note_on,,,,,0,0,2,,,,,0,,,50,0
10675,control_change,,,,,55,0,1,,,,,0,64,0,,
10680,note_on,,,,,5,0,1,,,,,0,,,71,61
10680,control_change,,,,,0,0,1,,,,,0,64,95,,
10680,note_on,,,,,30,0,2,,,,,0,,,38,41
10680,note_on,,,,,0,0,1,,,,,0,,,74,61
10710,set_tempo,,,,,100,1,0,,397350,,,,,,,
10740,note_on,,,,,0,0,1,,,,,0,,,69,53
10740,note_on,,,,,0,0,1,,,,,0,,,71,0
10740,note_on,,,,,0,0,1,,,,,0,,,72,53
10740,note_on,,,,,60,0,1,,,,,0,,,74,0
10770,set_tempo,,,,,60,1,0,,402684,,,,,,,
10770,note_on,,,,,90,0,2,,,,,0,,,38,0
10800,note_on,,,,,0,0,1,,,,,0,,,69,0
10800,note_on,,,,,0,0,1,,,,,0,,,67,45
10800,note_on,,,,,60,0,1,,,,,0,,,72,0
10800,note_on,,,,,0,0,1,,,,,0,,,71,45
10810,set_tempo,,,,,40,1,0,,405405,,,,,,,
10860,note_on,,,,,0,0,1,,,,,0,,,67,0
10860,note_on,,,,,60,0,1,,,,,0,,,71,0
10915,control_change,,,,,55,0,1,,,,,0,64,0,,
10920,note_on,,,,,150,0,2,,,,,0,,,59,38
10920,control_change,,,,,0,0,1,,,,,0,64,96,,
10920,note_on,,,,,5,0,1,,,,,0,,,62,42
10920,set_tempo,,,,,110,1,0,,346820,,,,,,,
10920,note_on,,,,,0,0,2,,,,,0,,,50,38
10930,set_tempo,,,,,10,1,0,,342857,,,,,,,
10940,set_tempo,,,,,10,1,0,,344827,,,,,,,
10980,note_on,,,,,0,0,1,,,,,0,,,67,43
10980,note_on,,,,,60,0,1,,,,,0,,,62,0
11010,note_on,,,,,0,0,2,,,,,0,,,59,0
11010,note_on,,,,,90,0,2,,,,,0,,,50,0
11010,set_tempo,,,,,70,1,0,,348837,,,,,,,
11040,note_on,,,,,0,0,2,,,,,0,,,50,42
11040,note_on,,,,,30,0,2,,,,,0,,,60,42
11040,note_on,,,,,0,0,1,,,,,0,,,64,46
11040,note_on,,,,,60,0,1,,,,,0,,,67,0
11060,set_tempo,,,,,50,1,0,,351906,,,,,,,
11100,note_on,,,,,0,0,1,,,,,0,,,69,47
11100,note_on,,,,,60,0,1,,,,,0,,,64,0
11130,set_tempo,,,,,70,1,0,,357142,,,,,,,
11130,note_on,,,,,0,0,2,,,,,0,,,60,0
11130,note_on,,,,,90,0,2,,,,,0,,,50,0
11160,note_on,,,,,60,0,1,,,,,0,,,69,0
11160,note_on,,,,,0,0,1,,,,,0,,,62,48
11160,note_on,,,,,0,0,2,,,,,0,,,50,47
11160,note_on,,,,,30,0,2,,,,,0,,,59,47
11190,set_tempo,,,,,60,1,0,,360360,,,,,,,
11200,set_tempo,,,,,10,1,0,,361445,,,,,,,
11220,note_on,,,,,60,0,1,,,,,0,,,62,0
11220,note_on,,,,,0,0,1,,,,,0,,,67,51
11250,note_on,,,,,90,0,2,,,,,0,,,50,0
11250,note_on,,,,,0,0,2,,,,,0,,,59,0
11270,set_tempo,,,,,70,1,0,,365853,,,,,,,
11280,note_on,,,,,30,0,2,,,,,0,,,60,49
11280,note_on,,,,,0,0,1,,,,,0,,,64,52
11280,note_on,,,,,60,0,1,,,,,0,,,67,0
11280,note_on,,,,,0,0,2,,,,,0,,,50,49
11290,set_tempo,,,,,20,1,0,,370370,,,,,,,
11340,note_on,,,,,0,0,1,,,,,0,,,69,54
11340,note_on,,,,,60,0,1,,,,,0,,,64,0
11340,set_tempo,,,,,50,1,0,,375000,,,,,,,
11360,set_tempo,,,,,20,1,0,,376175,,,,,,,
11370,note_on,,,,,0,0,2,,,,,0,,,60,0
11370,note_on,,,,,90,0,2,,,,,0,,,50,0
11400,set_tempo,,,,,40,1,0,,380952,,,,,,,
11400,note_on,,,,,0,0,2,,,,,0,,,50,50
11400,note_on,,,,,0,0,1,,,,,0,,,66,55
11400,note_on,,,,,30,0,2,,,,,0,,,62,50
11400,note_on,,,,,60,0,1,,,,,0,,,69,0
11410,set_tempo,,,,,10,1,0,,382165,,,,,,,
11420,set_tempo,,,,,10,1,0,,382165,,,,,,,
11460,note_on,,,,,60,0,1,,,,,0,,,66,0
11460,note_on,,,,,0,0,1,,,,,0,,,72,57
11490,note_on,,,,,90,0,2,,,,,0,,,50,0
11490,note_on,,,,,0,0,2,,,,,0,,,62,0
11515,control_change,,,,,55,0,1,,,,,0,64,0,,
11520,note_on,,,,,0,0,1,,,,,0,,,67,60
11520,note_on,,,,,0,0,1,,,,,0,,,71,60
11520,control_change,,,,,0,0,1,,,,,0,64,94,,
11520,note_on,,,,,0,0,2,,,,,0,,,55,51
11520,note_on,,,,,30,0,2,,,,,0,,,50,51
11520,note_on,,,,,5,0,1,,,,,0,,,72,0
11520,set_tempo,,,,,100,1,0,,427046,,,,,,,
11579,note_on,,,,,0,0,2,,,,,0,,,50,0
11579,note_on,,,,,59,0,2,,,,,0,,,55,0
11580,note_on,,,,,0,0,2,,,,,0,,,55,48
11580,note_on,,,,,1,0,2,,,,,0,,,50,48
11610,set_tempo,,,,,90,1,0,,372670,,,,,,,
11634,note_on,,,,,0,0,2,,,,,0,,,50,0
11634,note_on,,,,,54,0,2,,,,,0,,,55,0
11640,note_on,,,,,0,0,2,,,,,0,,,55,45
11640,note_on,,,,,6,0,2,,,,,0,,,50,45
11694,note_on,,,,,0,0,2,,,,,0,,,50,0
11694,note_on,,,,,54,0,2,,,,,0,,,55,0
11700,note_on,,,,,6,0,2,,,,,0,,,50,42
11700,note_on,,,,,0,0,2,,,,,0,,,55,42
11754,note_on,,,,,54,0,2,,,,,0,,,55,0
11754,note_on,,,,,0,0,2,,,,,0,,,50,0
11760,note_on,,,,,6,0,2,,,,,0,,,47,40
11760,note_on,,,,,0,0,2,,,,,0,,,55,40
11810,set_tempo,,,,,200,1,0,,370370,,,,,,,
11850,note_on,,,,,90,0,2,,,,,0,,,55,0
11850,note_on,,,,,0,0,2,,,,,0,,,47,0
11860,set_tempo,,,,,50,1,0,,365853,,,,,,,
11880,note_on,,,,,360,0,1,,,,,0,,,71,0
11880,note_on,,,,,0,0,1,,,,,0,,,72,42
11880,note_on,,,,,0,0,1,,,,,0,,,67,0
11880,note_on,,,,,0,0,1,,,,,0,,,69,42
11880,note_on,,,,,30,0,2,,,,,0,,,43,40
11880,control_change,,,,,0,0,1,,,,,0,64,0,,
11930,set_tempo,,,,,70,1,0,,360360,,,,,,,
11940,note_on,,,,,0,0,1,,,,,0,,,74,44
11940,note_on,,,,,0,0,1,,,,,0,,,69,0
11940,note_on,,,,,0,0,1,,,,,0,,,71,44
11940,note_on,,,,,60,0,1,,,,,0,,,72,0
11950,set_tempo,,,,,20,1,0,,361445,,,,,,,
11970,note_on,,,,,90,0,2,,,,,0,,,43,0
11980,set_tempo,,,,,30,1,0,,361445,,,,,,,
12000,note_on,,,,,30,0,2,,,,,0,,,60,51
12000,note_on,,,,,0,0,2,,,,,0,,,55,51
12000,note_on,,,,,0,0,1,,,,,0,,,76,46
12000,set_tempo,,,,,20,1,0,,389610,,,,,,,
12000,note_on,,,,,0,0,1,,,,,0,,,72,46
12000,note_on,,,,,0,0,1,,,,,0,,,71,0
12000,note_on,,,,,60,0,1,,,,,0,,,74,0
12000,control_change,,,,,0,0,1,,,,,0,64,95,,
12050,set_tempo,,,,,50,1,0,,359281,,,,,,,
12059,note_on,,,,,0,0,2,,,,,0,,,60,0
12059,note_on,,,,,59,0,2,,,,,0,,,55,0
12060,note_on,,,,,1,0,2,,,,,0,,,60,48
12060,note_on,,,,,0,0,2,,,,,0,,,55,48
12060,note_on,,,,,60,0,1,,,,,0,,,76,0
12060,note_on,,,,,0,0,1,,,,,0,,,72,0
12060,note_on,,,,,0,0,1,,,,,0,,,74,49
12060,note_on,,,,,0,0,1,,,,,0,,,78,49
12114,note_on,,,,,0,0,2,,,,,0,,,60,0
12114,note_on,,,,,54,0,2,,,,,0,,,55,0
12120,note_on,,,,,0,0,1,,,,,0,,,79,49
12120,note_on,,,,,0,0,1,,,,,0,,,76,49
12120,note_on,,,,,0,0,1,,,,,0,,,74,0
12120,note_on,,,,,60,0,1,,,,,0,,,78,0
12120,set_tempo,,,,,70,1,0,,357142,,,,,,,
12120,note_on,,,,,6,0,2,,,,,0,,,60,44
12120,note_on,,,,,0,0,2,,,,,0,,,55,44
12174,note_on,,,,,0,0,2,,,,,0,,,60,0
12174,note_on,,,,,54,0,2,,,,,0,,,55,0
12180,note_on,,,,,0,0,1,,,,,0,,,81,51
12180,note_on,,,,,0,0,1,,,,,0,,,78,51
12180,note_on,,,,,0,0,1,,,,,0,,,76,0
12180,note_on,,,,,60,0,1,,,,,0,,,79,0
12180,note_on,,,,,6,0,2,,,,,0,,,60,41
12180,note_on,,,,,0,0,2,,,,,0,,,55,41
12234,note_on,,,,,0,0,2,,,,,0,,,60,0
12234,note_on,,,,,54,0,2,,,,,0,,,55,0
12240,note_on,,,,,0,0,2,,,,,0,,,52,38
12240,note_on,,,,,6,0,2,,,,,0,,,60,38
12240,note_on,,,,,60,0,1,,,,,0,,,81,0
12240,note_on,,,,,0,0,1,,,,,0,,,78,0
12240,note_on,,,,,0,0,1,,,,,0,,,79,54
12240,note_on,,,,,0,0,1,,,,,0,,,83,54
12300,set_tempo,,,,,180,1,0,,352941,,,,,,,
12300,note_on,,,,,0,0,1,,,,,0,,,79,0
12300,note_on,,,,,60,0,1,,,,,0,,,83,0
12300,note_on,,,,,0,0,1,,,,,0,,,84,57
12300,note_on,,,,,0,0,1,,,,,0,,,81,57
12330,note_on,,,,,90,0,2,,,,,0,,,52,0
12330,note_on,,,,,0,0,2,,,,,0,,,60,0
12360,note_on,,,,,60,0,1,,,,,0,,,81,0
12360,note_on,,,,,0,0,1,,,,,0,,,84,0
12360,note_on,,,,,0,0,1,,,,,0,,,86,58
12360,note_on,,,,,0,0,1,,,,,0,,,83,58
12360,control_change,,,,,0,0,1,,,,,0,64,0,,
12360,note_on,,,,,30,0,2,,,,,0,,,48,39
12400,set_tempo,,,,,100,1,0,,348837,,,,,,,
12420,note_on,,,,,0,0,1,,,,,0,,,86,0
12420,note_on,,,,,0,0,1,,,,,0,,,88,61
12420,note_on,,,,,60,0,1,,,,,0,,,83,0
12420,note_on,,,,,0,0,1,,,,,0,,,84,61
12450,note_on,,,,,90,0,2,,,,,0,,,48,0
12480,set_tempo,,,,,80,1,0,,425531,,,,,,,
12480,note_on,,,,,30,0,2,,,,,0,,,55,55
12480,control_change,,,,,0,0,1,,,,,0,64,96,,
12480,note_on,,,,,0,0,1,,,,,0,,,86,61
12480,note_on,,,,,0,0,1,,,,,0,,,83,61
12480,note_on,,,,,0,0,1,,,,,0,,,88,0
12480,note_on,,,,,60,0,1,,,,,0,,,84,0
12490,set_tempo,,,,,10,1,0,,425531,,,,,,,
12539,note_on,,,,,59,0,2,,,,,0,,,55,0
12540,note_on,,,,,1,0,2,,,,,0,,,55,54
12580,set_tempo,,,,,90,1,0,,375000,,,,,,,
12594,note_on,,,,,54,0,2,,,,,0,,,55,0
12600,note_on,,,,,6,0,2,,,,,0,,,55,48
12654,note_on,,,,,54,0,2,,,,,0,,,55,0
12660,note_on,,,,,6,0,2,,,,,0,,,55,45
12714,note_on,,,,,54,0,2,,,,,0,,,55,0
12720,note_on,,,,,6,0,2,,,,,0,,,55,40
12810,note_on,,,,,330,0,1,,,,,0,,,86,0
12810,note_on,,,,,0,0,1,,,,,0,,,83,0
12810,note_on,,,,,90,0,2,,,,,0,,,55,0
12840,note_on,,,,,30,0,1,,,,,0,,,69,42
12840,control_change,,,,,0,0,1,,,,,0,64,0,,
12900,note_on,,,,,0,0,1,,,,,0,,,71,42
12900,note_on,,,,,60,0,1,,,,,0,,,69,0
12930,set_tempo,,,,,350,1,0,,372670,,,,,,,
12940,set_tempo,,,,,10,1,0,,370370,,,,,,,
12950,set_tempo,,,,,10,1,0,,370370,,,,,,,
12960,control_change,,,,,0,0,1,,,,,0,64,95,,
12960,note_on,,,,,0,0,1,,,,,0,,,72,48
12960,note_on,,,,,0,0,1,,,,,0,,,69,48
12960,note_on,,,,,60,0,1,,,,,0,,,71,0
12960,note_on,,,,,150,0,2,,,,,0,,,57,44
12960,note_on,,,,,0,0,2,,,,,0,,,54,44
13000,set_tempo,,,,,50,1,0,,366972,,,,,,,
13010,set_tempo,,,,,10,1,0,,365853,,,,,,,
13019,note_on,,,,,59,0,2,,,,,0,,,54,0
13019,note_on,,,,,0,0,2,,,,,0,,,57,0
13020,note_on,,,,,1,0,2,,,,,0,,,57,41
13020,note_on,,,,,0,0,2,,,,,0,,,54,41
13020,note_on,,,,,60,0,1,,,,,0,,,72,0
13020,note_on,,,,,0,0,1,,,,,0,,,69,0
13020,note_on,,,,,0,0,1,,,,,0,,,71,52
13020,note_on,,,,,0,0,1,,,,,0,,,74,52
13060,set_tempo,,,,,50,1,0,,362537,,,,,,,
13074,note_on,,,,,0,0,2,,,,,0,,,57,0
13074,note_on,,,,,54,0,2,,,,,0,,,54,0
13080,note_on,,,,,0,0,1,,,,,0,,,76,52
13080,note_on,,,,,60,0,1,,,,,0,,,74,0
13080,note_on,,,,,0,0,2,,,,,0,,,54,39
13080,note_on,,,,,0,0,1,,,,,0,,,71,0
13080,note_on,,,,,0,0,1,,,,,0,,,72,52
13080,note_on,,,,,6,0,2,,,,,0,,,57,39
13110,set_tempo,,,,,50,1,0,,359281,,,,,,,
13134,note_on,,,,,54,0,2,,,,,0,,,54,0
13134,note_on,,,,,0,0,2,,,,,0,,,57,0
13140,note_on,,,,,6,0,2,,,,,0,,,57,36
13140,note_on,,,,,0,0,2,,,,,0,,,54,36
13140,note_on,,,,,60,0,1,,,,,0,,,76,0
13140,note_on,,,,,0,0,1,,,,,0,,,72,0
13140,note_on,,,,,0,0,1,,,,,0,,,74,55
13140,note_on,,,,,0,0,1,,,,,0,,,78,55
13170,set_tempo,,,,,60,1,0,,356083,,,,,,,
13190,set_tempo,,,,,20,1,0,,350877,,,,,,,
13194,note_on,,,,,54,0,2,,,,,0,,,54,0
13194,note_on,,,,,0,0,2,,,,,0,,,57,0
13200,note_on,,,,,0,0,1,,,,,0,,,74,0
13200,note_on,,,,,60,0,1,,,,,0,,,78,0
13200,note_on,,,,,6,0,2,,,,,0,,,54,34
13200,note_on,,,,,0,0,2,,,,,0,,,57,34
13200,note_on,,,,,0,0,1,,,,,0,,,76,57
13200,note_on,,,,,0,0,1,,,,,0,,,72,57
13260,set_tempo,,,,,70,1,0,,347826,,,,,,,
13260,note_on,,,,,0,0,1,,,,,0,,,81,54
13260,note_on,,,,,0,0,1,,,,,0,,,72,0
13260,note_on,,,,,60,0,1,,,,,0,,,76,0
13290,note_on,,,,,90,0,2,,,,,0,,,57,0
13290,note_on,,,,,0,0,2,,,,,0,,,54,0
13300,set_tempo,,,,,40,1,0,,353982,,,,,,,
13320,note_on,,,,,30,0,2,,,,,0,,,38,38
13320,note_on,,,,,0,0,1,,,,,0,,,79,52
13320,note_on,,,,,0,0,1,,,,,0,,,76,52
13320,control_change,,,,,0,0,1,,,,,0,64,0,,
13320,note_on,,,,,60,0,1,,,,,0,,,81,0
13350,set_tempo,,,,,50,1,0,,361445,,,,,,,
13380,note_on,,,,,60,0,1,,,,,0,,,76,0
13380,note_on,,,,,0,0,1,,,,,0,,,79,0
13380,note_on,,,,,0,0,1,,,,,0,,,72,51
13390,set_tempo,,,,,40,1,0,,366972,,,,,,,
13400,set_tempo,,,,,10,1,0,,368098,,,,,,,
13410,note_on,,,,,90,0,2,,,,,0,,,38,0
13420,set_tempo,,,,,20,1,0,,365853,,,,,,,
13440,note_on,,,,,30,0,2,,,,,0,,,50,33
13440,note_on,,,,,60,0,1,,,,,0,,,72,0
13440,control_change,,,,,0,0,1,,,,,0,64,96,,
13440,note_on,,,,,0,0,2,,,,,0,,,55,33
13440,note_on,,,,,0,0,1,,,,,0,,,74,46
13440,note_on,,,,,0,0,1,,,,,0,,,71,46
13440,set_tempo,,,,,20,1,0,,425531,,,,,,,
13499,note_on,,,,,59,0,2,,,,,0,,,55,0
13499,note_on,,,,,0,0,2,,,,,0,,,50,0
13500,note_on,,,,,0,0,2,,,,,0,,,55,31
13500,note_on,,,,,1,0,2,,,,,0,,,50,31
13520,set_tempo,,,,,80,1,0,,377358,,,,,,,
13554,note_on,,,,,54,0,2,,,,,0,,,55,0
13554,note_on,,,,,0,0,2,,,,,0,,,50,0
13560,note_on,,,,,0,0,2,,,,,0,,,55,30
13560,note_on,,,,,6,0,2,,,,,0,,,50,30
13614,note_on,,,,,54,0,2,,,,,0,,,55,0
13614,note_on,,,,,0,0,2,,,,,0,,,50,0
13620,note_on,,,,,6,0,2,,,,,0,,,50,30
13620,note_on,,,,,0,0,2,,,,,0,,,55,30
13674,note_on,,,,,0,0,2,,,,,0,,,50,0
13674,note_on,,,,,54,0,2,,,,,0,,,55,0
13680,note_on,,,,,6,0,2,,,,,0,,,50,29
13680,note_on,,,,,0,0,2,,,,,0,,,55,29
13770,note_on,,,,,90,0,2,,,,,0,,,55,0
13770,note_on,,,,,0,0,2,,,,,0,,,50,0
13770,note_on,,,,,330,0,1,,,,,0,,,71,0
13770,note_on,,,,,0,0,1,,,,,0,,,74,0
13795,control_change,,,,,25,0,1,,,,,0,64,0,,
13800,note_on,,,,,30,0,2,,,,,0,,,38,35
13800,note_on,,,,,5,0,1,,,,,0,,,81,51
13800,control_change,,,,,0,0,1,,,,,0,64,95,,
13800,note_on,,,,,0,0,1,,,,,0,,,84,51
13810,set_tempo,,,,,290,1,0,,370370,,,,,,,
13860,note_on,,,,,0,0,1,,,,,0,,,83,52
13860,note_on,,,,,0,0,1,,,,,0,,,81,0
13860,note_on,,,,,60,0,1,,,,,0,,,84,0
13860,note_on,,,,,0,0,1,,,,,0,,,79,52
13870,set_tempo,,,,,60,1,0,,362537,,,,,,,
13890,note_on,,,,,90,0,2,,,,,0,,,38,0
13920,note_on,,,,,30,0,2,,,,,0,,,60,38
13920,note_on,,,,,0,0,2,,,,,0,,,50,38
13920,note_on,,,,,60,0,1,,,,,0,,,83,0
13920,note_on,,,,,0,0,1,,,,,0,,,79,0
13920,note_on,,,,,0,0,1,,,,,0,,,81,56
13920,note_on,,,,,0,0,1,,,,,0,,,78,56
13930,set_tempo,,,,,60,1,0,,355029,,,,,,,
13980,note_on,,,,,0,0,1,,,,,0,,,78,0
13980,note_on,,,,,60,0,1,,,,,0,,,81,0
14010,set_tempo,,,,,80,1,0,,349854,,,,,,,
14010,note_on,,,,,90,0,2,,,,,0,,,50,0
14010,note_on,,,,,0,0,2,,,,,0,,,60,0
14035,control_change,,,,,55,0,1,,,,,0,64,0,,
14040,control_change,,,,,0,0,1,,,,,0,64,95,,
14040,note_on,,,,,5,0,1,,,,,0,,,72,53
14040,note_on,,,,,30,0,2,,,,,0,,,38,43
14040,note_on,,,,,0,0,1,,,,,0,,,76,53
14070,set_tempo,,,,,60,1,0,,343839,,,,,,,
14100,note_on,,,,,60,0,1,,,,,0,,,76,0
14100,note_on,,,,,0,0,1,,,,,0,,,72,0
14100,note_on,,,,,0,0,1,,,,,0,,,71,56
14100,note_on,,,,,0,0,1,,,,,0,,,74,56
14130,note_on,,,,,90,0,2,,,,,0,,,38,0
14140,set_tempo,,,,,70,1,0,,341880,,,,,,,
14160,note_on,,,,,0,0,2,,,,,0,,,54,49
14160,note_on,,,,,60,0,1,,,,,0,,,74,0
14160,note_on,,,,,0,0,1,,,,,0,,,71,0
14160,note_on,,,,,0,0,1,,,,,0,,,69,59
14160,note_on,,,,,0,0,1,,,,,0,,,72,59
14160,note_on,,,,,30,0,2,,,,,0,,,50,49
14190,set_tempo,,,,,50,1,0,,344827,,,,,,,
14200,set_tempo,,,,,10,1,0,,345821,,,,,,,
14220,set_tempo,,,,,20,1,0,,346820,,,,,,,
14220,note_on,,,,,0,0,1,,,,,0,,,69,0
14220,note_on,,,,,60,0,1,,,,,0,,,72,0
14250,note_on,,,,,90,0,2,,,,,0,,,54,0
14250,note_on,,,,,0,0,2,,,,,0,,,50,0
14275,control_change,,,,,55,0,1,,,,,0,64,0,,
14280,set_tempo,,,,,60,1,0,,355029,,,,,,,
14280,note_on,,,,,0,0,1,,,,,0,,,79,61
14280,note_on,,,,,5,0,1,,,,,0,,,71,61
14280,control_change,,,,,0,0,1,,,,,0,64,95,,
14280,note_on,,,,,30,0,2,,,,,0,,,38,52
14290,set_tempo,,,,,10,1,0,,356083,,,,,,,
14310,set_tempo,,,,,20,1,0,,361445,,,,,,,
14330,set_tempo,,,,,20,1,0,,362537,,,,,,,
14340,note_on,,,,,0,0,1,,,,,0,,,81,65
14340,note_on,,,,,0,0,1,,,,,0,,,74,65
14340,note_on,,,,,0,0,1,,,,,0,,,71,0
14340,note_on,,,,,60,0,1,,,,,0,,,79,0
14360,set_tempo,,,,,30,1,0,,369230,,,,,,,
14370,note_on,,,,,90,0,2,,,,,0,,,38,0
14400,note_on,,,,,0,0,1,,,,,0,,,79,70
14400,note_on,,,,,0,0,2,,,,,0,,,55,56
14400,note_on,,,,,60,0,1,,,,,0,,,81,0
14400,note_on,,,,,0,0,1,,,,,0,,,83,70
14400,note_on,,,,,30,0,2,,,,,0,,,50,56
14400,note_on,,,,,0,0,1,,,,,0,,,74,0
14410,set_tempo,,,,,50,1,0,,375000,,,,,,,
14450,set_tempo,,,,,40,1,0,,383386,,,,,,,
14460,note_on,,,,,60,0,1,,,,,0,,,83,0
14460,note_on,,,,,0,0,1,,,,,0,,,79,0
14490,note_on,,,,,90,0,2,,,,,0,,,55,0
14490,set_tempo,,,,,40,1,0,,389610,,,,,,,
14490,note_on,,,,,0,0,2,,,,,0,,,50,0
14515,control_change,,,,,55,0,1,,,,,0,64,0,,
14520,note_on,,,,,5,0,1,,,,,0,,,71,61
14520,control_change,,,,,0,0,1,,,,,0,64,95,,
14520,note_on,,,,,0,0,1,,,,,0,,,74,61
14520,note_on,,,,,30,0,2,,,,,0,,,38,41
14540,set_tempo,,,,,50,1,0,,394736,,,,,,,
14570,set_tempo,,,,,30,1,0,,396039,,,,,,,
14580,note_on,,,,,60,0,1,,,,,0,,,74,0
14580,note_on,,,,,0,0,1,,,,,0,,,72,53
14580,note_on,,,,,0,0,1,,,,,0,,,71,0
14580,note_on,,,,,0,0,1,,,,,0,,,69,53
14610,note_on,,,,,90,0,2,,,,,0,,,38,0
14610,set_tempo,,,,,40,1,0,,397350,,,,,,,
14620,set_tempo,,,,,10,1,0,,404040,,,,,,,
14640,note_on,,,,,60,0,1,,,,,0,,,72,0
14640,note_on,,,,,0,0,1,,,,,0,,,69,0
14640,note_on,,,,,0,0,1,,,,,0,,,67,45
14640,note_on,,,,,0,0,1,,,,,0,,,71,45
14650,set_tempo,,,,,30,1,0,,409556,,,,,,,
14670,set_tempo,,,,,20,1,0,,401337,,,,,,,
14700,note_on,,,,,0,0,1,,,,,0,,,67,0
14700,note_on,,,,,60,0,1,,,,,0,,,71,0
14710,set_tempo,,,,,40,1,0,,394736,,,,,,,
14720,set_tempo,,,,,10,1,0,,393442,,,,,,,
14740,set_tempo,,,,,20,1,0,,387096,,,,,,,
14755,control_change,,,,,55,0,1,,,,,0,64,0,,
14760,note_on,,,,,150,0,2,,,,,0,,,59,38
14760,note_on,,,,,5,0,1,,,,,0,,,62,42
14760,note_on,,,,,0,0,2,,,,,0,,,50,38
14760,control_change,,,,,0,0,1,,,,,0,64,96,,
14770,set_tempo,,,,,30,1,0,,380952,,,,,,,
14820,note_on,,,,,0,0,1,,,,,0,,,67,43
14820,note_on,,,,,60,0,1,,,,,0,,,62,0
14850,note_on,,,,,90,0,2,,,,,0,,,50,0
14850,note_on,,,,,0,0,2,,,,,0,,,59,0
14850,set_tempo,,,,,80,1,0,,377358,,,,,,,
14880,note_on,,,,,0,0,2,,,,,0,,,50,42
14880,note_on,,,,,30,0,2,,,,,0,,,60,42
14880,note_on,,,,,0,0,1,,,,,0,,,64,46
14880,note_on,,,,,60,0,1,,,,,0,,,67,0
14920,set_tempo,,,,,70,1,0,,375000,,,,,,,
14940,note_on,,,,,60,0,1,,,,,0,,,64,0
14940,note_on,,,,,0,0,1,,,,,0,,,69,47
14960,set_tempo,,,,,40,1,0,,372670,,,,,,,
14970,note_on,,,,,0,0,2,,,,,0,,,60,0
14970,note_on,,,,,90,0,2,,,,,0,,,50,0
15000,note_on,,,,,0,0,1,,,,,0,,,62,48
15000,note_on,,,,,30,0,2,,,,,0,,,59,44
15000,note_on,,,,,0,0,2,,,,,0,,,50,44
15000,note_on,,,,,60,0,1,,,,,0,,,69,0
15040,set_tempo,,,,,80,1,0,,370370,,,,,,,
15060,note_on,,,,,60,0,1,,,,,0,,,62,0
15060,note_on,,,,,0,0,1,,,,,0,,,67,51
15090,note_on,,,,,90,0,2,,,,,0,,,50,0
15090,note_on,,,,,0,0,2,,,,,0,,,59,0
15100,set_tempo,,,,,60,1,0,,365853,,,,,,,
15120,note_on,,,,,0,0,1,,,,,0,,,64,52
15120,note_on,,,,,0,0,2,,,,,0,,,50,49
15120,note_on,,,,,30,0,2,,,,,0,,,60,49
15120,note_on,,,,,60,0,1,,,,,0,,,67,0
15140,set_tempo,,,,,40,1,0,,363636,,,,,,,
15180,note_on,,,,,60,0,1,,,,,0,,,64,0
15180,note_on,,,,,0,0,1,,,,,0,,,69,54
15210,note_on,,,,,0,0,2,,,,,0,,,60,0
15210,note_on,,,,,90,0,2,,,,,0,,,50,0
15220,set_tempo,,,,,80,1,0,,359281,,,,,,,
15240,note_on,,,,,60,0,1,,,,,0,,,69,0
15240,note_on,,,,,0,0,2,,,,,0,,,62,50
15240,note_on,,,,,30,0,2,,,,,0,,,50,50
15240,note_on,,,,,0,0,1,,,,,0,,,66,55
15260,set_tempo,,,,,40,1,0,,352941,,,,,,,
15300,note_on,,,,,0,0,1,,,,,0,,,72,57
15300,note_on,,,,,60,0,1,,,,,0,,,66,0
15320,set_tempo,,,,,60,1,0,,358208,,,,,,,
15330,set_tempo,,,,,10,1,0,,359281,,,,,,,
15355,control_change,,,,,55,0,1,,,,,0,64,0,,
15360,control_change,,,,,0,0,1,,,,,0,64,95,,
15360,note_on,,,,,0,0,1,,,,,0,,,67,57
15360,note_on,,,,,5,0,1,,,,,0,,,72,0
15400,set_tempo,,,,,70,1,0,,353982,,,,,,,
15420,note_on,,,,,0,0,1,,,,,0,,,71,49
15420,note_on,,,,,60,0,1,,,,,0,,,67,0
15430,set_tempo,,,,,30,1,0,,353982,,,,,,,
15450,note_on,,,,,0,0,2,,,,,0,,,50,0
15450,note_on,,,,,210,0,2,,,,,0,,,62,0
15460,set_tempo,,,,,30,1,0,,358208,,,,,,,
15480,note_on,,,,,30,0,2,,,,,0,,,54,44
15480,note_on,,,,,0,0,2,,,,,0,,,62,44
15480,note_on,,,,,60,0,1,,,,,0,,,71,0
15480,note_on,,,,,0,0,1,,,,,0,,,69,44
15490,set_tempo,,,,,30,1,0,,365853,,,,,,,
15540,note_on,,,,,60,0,1,,,,,0,,,69,0
15540,note_on,,,,,0,0,1,,,,,0,,,74,40
15550,set_tempo,,,,,60,1,0,,370370,,,,,,,
15570,note_on,,,,,90,0,2,,,,,0,,,62,0
15570,note_on,,,,,0,0,2,,,,,0,,,54,0
15600,note_on,,,,,0,0,2,,,,,0,,,62,37
15600,note_on,,,,,30,0,2,,,,,0,,,55,37
15600,note_on,,,,,0,0,1,,,,,0,,,71,38
15600,note_on,,,,,60,0,1,,,,,0,,,74,0
15630,set_tempo,,,,,80,1,0,,379746,,,,,,,
15660,note_on,,,,,0,0,1,,,,,0,,,74,38
15660,note_on,,,,,60,0,1,,,,,0,,,71,0
15690,note_on,,,,,90,0,2,,,,,0,,,62,0
15690,note_on,,,,,0,0,2,,,,,0,,,55,0
15705,note_on,,,,,45,0,1,,,,,0,,,74,0
15710,control_change,,,,,5,0,1,,,,,0,64,0,,
15720,control_change,,,,,0,0,1,,,,,0,64,96,,
15720,note_on,,,,,10,0,1,,,,,0,,,74,41
15720,note_on,,,,,0,0,2,,,,,0,,,62,38
15720,note_on,,,,,30,0,2,,,,,0,,,71,38
15750,set_tempo,,,,,120,1,0,,377358,,,,,,,
15780,note_on,,,,,60,0,1,,,,,0,,,74,0
15780,note_on,,,,,0,0,1,,,,,0,,,79,43
15810,note_on,,,,,90,0,2,,,,,0,,,62,0
15810,note_on,,,,,0,0,2,,,,,0,,,71,0
15810,set_tempo,,,,,60,1,0,,375000,,,,,,,
15820,set_tempo,,,,,10,1,0,,372670,,,,,,,
15840,note_on,,,,,30,0,2,,,,,0,,,72,40
15840,note_on,,,,,0,0,2,,,,,0,,,62,40
15840,note_on,,,,,0,0,1,,,,,0,,,76,45
15840,note_on,,,,,60,0,1,,,,,0,,,79,0
15880,set_tempo,,,,,60,1,0,,365853,,,,,,,
15900,note_on,,,,,0,0,1,,,,,0,,,81,48
15900,note_on,,,,,60,0,1,,,,,0,,,76,0
15900,set_tempo,,,,,20,1,0,,363636,,,,,,,
15910,set_tempo,,,,,10,1,0,,361445,,,,,,,
15930,set_tempo,,,,,20,1,0,,359281,,,,,,,
15930,note_on,,,,,90,0,2,,,,,0,,,62,0
15930,note_on,,,,,0,0,2,,,,,0,,,72,0
15960,note_on,,,,,0,0,2,,,,,0,,,62,44
15960,note_on,,,,,60,0,1,,,,,0,,,81,0
15960,note_on,,,,,30,0,2,,,,,0,,,71,44
15960,note_on,,,,,0,0,1,,,,,0,,,74,51
16000,set_tempo,,,,,70,1,0,,353982,,,,,,,
16020,note_on,,,,,0,0,1,,,,,0,,,79,56
16020,note_on,,,,,60,0,1,,,,,0,,,74,0
16050,set_tempo,,,,,50,1,0,,355029,,,,,,,
16050,note_on,,,,,90,0,2,,,,,0,,,62,0
16050,note_on,,,,,0,0,2,,,,,0,,,71,0
16070,set_tempo,,,,,20,1,0,,348837,,,,,,,
16080,note_on,,,,,0,0,1,,,,,0,,,76,58
16080,note_on,,,,,60,0,1,,,,,0,,,79,0
16080,note_on,,,,,30,0,2,,,,,0,,,72,52
16080,note_on,,,,,0,0,2,,,,,0,,,62,52
16140,note_on,,,,,60,0,1,,,,,0,,,76,0
16140,note_on,,,,,0,0,1,,,,,0,,,81,62
16140,set_tempo,,,,,70,1,0,,349854,,,,,,,
16160,set_tempo,,,,,20,1,0,,348837,,,,,,,
16170,set_tempo,,,,,10,1,0,,346820,,,,,,,
16170,note_on,,,,,0,0,2,,,,,0,,,72,0
16170,note_on,,,,,90,0,2,,,,,0,,,62,0
16200,note_on,,,,,60,0,1,,,,,0,,,81,0
16200,note_on,,,,,30,0,2,,,,,0,,,62,63
16200,note_on,,,,,0,0,2,,,,,0,,,74,63
16200,note_on,,,,,0,0,1,,,,,0,,,78,66
16260,set_tempo,,,,,90,1,0,,341880,,,,,,,
16260,note_on,,,,,60,0,1,,,,,0,,,78,0
16260,note_on,,,,,0,0,1,,,,,0,,,84,70
16315,control_change,,,,,55,0,1,,,,,0,64,0,,
16320,control_change,,,,,0,0,1,,,,,0,64,95,,
16320,note_on,,,,,0,0,1,,,,,0,,,79,73
16320,note_on,,,,,5,0,1,,,,,0,,,84,0
16350,set_tempo,,,,,90,1,0,,348837,,,,,,,
16360,set_tempo,,,,,10,1,0,,351906,,,,,,,
16380,note_on,,,,,60,0,1,,,,,0,,,79,0
16380,note_on,,,,,0,0,1,,,,,0,,,83,68
16400,set_tempo,,,,,40,1,0,,356083,,,,,,,
16410,note_on,,,,,210,0,2,,,,,0,,,74,0
16410,note_on,,,,,0,0,2,,,,,0,,,62,0
16440,note_on,,,,,30,0,2,,,,,0,,,66,54
16440,note_on,,,,,0,0,2,,,,,0,,,74,54
16440,note_on,,,,,0,0,1,,,,,0,,,81,57
16440,note_on,,,,,60,0,1,,,,,0,,,83,0
16460,set_tempo,,,,,60,1,0,,364741,,,,,,,
16480,set_tempo,,,,,20,1,0,,365853,,,,,,,
16490,set_tempo,,,,,10,1,0,,376175,,,,,,,
16500,note_on,,,,,60,0,1,,,,,0,,,81,0
16500,note_on,,,,,0,0,1,,,,,0,,,86,48
16530,note_on,,,,,0,0,2,,,,,0,,,66,0
16530,note_on,,,,,90,0,2,,,,,0,,,74,0
16530,set_tempo,,,,,40,1,0,,382165,,,,,,,
16560,note_on,,,,,0,0,2,,,,,0,,,74,42
16560,note_on,,,,,30,0,2,,,,,0,,,67,42
16560,note_on,,,,,60,0,1,,,,,0,,,86,0
16560,note_on,,,,,0,0,1,,,,,0,,,83,43
16570,set_tempo,,,,,40,1,0,,392156,,,,,,,
16620,note_on,,,,,60,0,1,,,,,0,,,83,0
16620,note_on,,,,,0,0,1,,,,,0,,,86,38
16640,set_tempo,,,,,70,1,0,,397350,,,,,,,
16650,note_on,,,,,90,0,2,,,,,0,,,74,0
16650,note_on,,,,,0,0,2,,,,,0,,,67,0
16665,note_on,,,,,45,0,1,,,,,0,,,86,0
16675,control_change,,,,,10,0,1,,,,,0,64,0,,
16680,note_on,,,,,5,0,1,,,,,0,,,86,49
16680,control_change,,,,,0,0,1,,,,,0,64,96,,
16680,note_on,,,,,30,0,2,,,,,0,,,62,37
16680,note_on,,,,,0,0,2,,,,,0,,,71,37
16740,note_on,,,,,60,0,1,,,,,0,,,86,0
16740,note_on,,,,,0,0,1,,,,,0,,,91,57
16770,note_on,,,,,90,0,2,,,,,0,,,71,0
16770,note_on,,,,,0,0,2,,,,,0,,,62,0
16785,note_on,,,,,45,0,1,,,,,0,,,91,0
16795,control_change,,,,,10,0,1,,,,,0,64,0,,
16800,note_on,,,,,30,0,2,,,,,0,,,62,54
16800,note_on,,,,,0,0,2,,,,,0,,,72,54
16800,control_change,,,,,0,0,1,,,,,0,64,96,,
16800,note_on,,,,,5,0,1,,,,,0,,,88,43
16860,note_on,,,,,60,0,1,,,,,0,,,88,0
16860,note_on,,,,,0,0,1,,,,,0,,,84,43
16880,set_tempo,,,,,240,1,0,,394736,,,,,,,
16890,note_on,,,,,0,0,2,,,,,0,,,62,0
16890,note_on,,,,,90,0,2,,,,,0,,,72,0
16905,note_on,,,,,45,0,1,,,,,0,,,84,0
16920,note_on,,,,,15,0,1,,,,,0,,,84,44
16920,note_on,,,,,0,0,2,,,,,0,,,69,44
16920,note_on,,,,,30,0,2,,,,,0,,,62,44
16940,set_tempo,,,,,60,1,0,,388349,,,,,,,
16980,note_on,,,,,0,0,1,,,,,0,,,81,49
16980,note_on,,,,,60,0,1,,,,,0,,,84,0
17010,note_on,,,,,90,0,2,,,,,0,,,69,0
17010,note_on,,,,,0,0,2,,,,,0,,,62,0
17020,set_tempo,,,,,80,1,0,,383386,,,,,,,
17025,note_on,,,,,45,0,1,,,,,0,,,81,0
17040,note_on,,,,,30,0,2,,,,,0,,,73,46
17040,note_on,,,,,0,0,2,,,,,0,,,62,46
17040,note_on,,,,,15,0,1,,,,,0,,,82,54
17090,set_tempo,,,,,70,1,0,,375000,,,,,,,
17100,note_on,,,,,0,0,1,,,,,0,,,85,49
17100,note_on,,,,,60,0,1,,,,,0,,,82,0
17130,note_on,,,,,0,0,2,,,,,0,,,73,0
17130,note_on,,,,,90,0,2,,,,,0,,,62,0
17145,note_on,,,,,45,0,1,,,,,0,,,85,0
17155,control_change,,,,,10,0,1,,,,,0,64,0,,
17160,note_on,,,,,5,0,1,,,,,0,,,83,59
17160,control_change,,,,,0,0,1,,,,,0,64,95,,
17160,note_on,,,,,0,0,2,,,,,0,,,74,37
17160,note_on,,,,,30,0,2,,,,,0,,,62,37
17210,set_tempo,,,,,120,1,0,,372670,,,,,,,
17220,note_on,,,,,60,0,1,,,,,0,,,83,0
17220,note_on,,,,,0,0,1,,,,,0,,,86,38
17250,note_on,,,,,0,0,2,,,,,0,,,62,0
17250,note_on,,,,,90,0,2,,,,,0,,,74,0
17250,set_tempo,,,,,40,1,0,,370370,,,,,,,
17265,note_on,,,,,45,0,1,,,,,0,,,86,0
17275,control_change,,,,,10,0,1,,,,,0,64,0,,
17280,control_change,,,,,0,0,1,,,,,0,64,96,,
17280,note_on,,,,,5,0,1,,,,,0,,,83,43
17280,note_on,,,,,0,0,2,,,,,0,,,62,54
17280,note_on,,,,,30,0,2,,,,,0,,,67,54
17340,note_on,,,,,60,0,1,,,,,0,,,83,0
17340,note_on,,,,,0,0,1,,,,,0,,,79,43
17370,note_on,,,,,0,0,2,,,,,0,,,67,0
17370,note_on,,,,,90,0,2,,,,,0,,,62,0
17385,note_on,,,,,45,0,1,,,,,0,,,79,0
17400,note_on,,,,,15,0,1,,,,,0,,,79,44
17400,note_on,,,,,30,0,2,,,,,0,,,71,44
17400,note_on,,,,,0,0,2,,,,,0,,,62,44
17460,note_on,,,,,0,0,1,,,,,0,,,74,49
17460,note_on,,,,,60,0,1,,,,,0,,,79,0
17490,note_on,,,,,90,0,2,,,,,0,,,62,0
17490,note_on,,,,,0,0,2,,,,,0,,,71,0
17505,note_on,,,,,45,0,1,,,,,0,,,74,0
17520,set_tempo,,,,,270,1,0,,377358,,,,,,,
17520,note_on,,,,,0,0,2,,,,,0,,,62,46
17520,note_on,,,,,30,0,2,,,,,0,,,70,46
17520,note_on,,,,,15,0,1,,,,,0,,,73,54
17580,note_on,,,,,0,0,1,,,,,0,,,76,49
17580,note_on,,,,,60,0,1,,,,,0,,,73,0
17610,note_on,,,,,90,0,2,,,,,0,,,62,0
17610,note_on,,,,,0,0,2,,,,,0,,,70,0
17625,note_on,,,,,45,0,1,,,,,0,,,76,0
17635,control_change,,,,,10,0,1,,,,,0,64,0,,
17640,control_change,,,,,0,0,1,,,,,0,64,95,,
17640,note_on,,,,,5,0,1,,,,,0,,,74,59
17640,note_on,,,,,30,0,2,,,,,0,,,62,38
17640,note_on,,,,,0,0,2,,,,,0,,,71,38
17700,note_on,,,,,0,0,1,,,,,0,,,79,38
17700,note_on,,,,,60,0,1,,,,,0,,,74,0
17730,note_on,,,,,0,0,2,,,,,0,,,62,0
17730,note_on,,,,,90,0,2,,,,,0,,,71,0
17745,note_on,,,,,45,0,1,,,,,0,,,79,0
17755,control_change,,,,,10,0,1,,,,,0,64,0,,
17760,note_on,,,,,30,0,2,,,,,0,,,60,53
17760,control_change,,,,,0,0,1,,,,,0,64,96,,
17760,note_on,,,,,5,0,1,,,,,0,,,76,43
17760,note_on,,,,,0,0,2,,,,,0,,,50,54
17820,note_on,,,,,60,0,1,,,,,0,,,76,0
17820,note_on,,,,,0,0,1,,,,,0,,,72,43
17850,note_on,,,,,0,0,2,,,,,0,,,60,0
17850,note_on,,,,,90,0,2,,,,,0,,,50,0
17865,note_on,,,,,45,0,1,,,,,0,,,72,0
17880,note_on,,,,,30,0,2,,,,,0,,,57,51
17880,note_on,,,,,15,0,1,,,,,0,,,72,44
17880,note_on,,,,,0,0,2,,,,,0,,,50,51
17890,set_tempo,,,,,370,1,0,,375000,,,,,,,
17900,set_tempo,,,,,10,1,0,,368098,,,,,,,
17940,note_on,,,,,0,0,1,,,,,0,,,69,49
17940,note_on,,,,,60,0,1,,,,,0,,,72,0
17970,note_on,,,,,0,0,2,,,,,0,,,57,0
17970,note_on,,,,,90,0,2,,,,,0,,,50,0
17985,note_on,,,,,45,0,1,,,,,0,,,69,0
18000,note_on,,,,,30,0,2,,,,,0,,,61,46
18000,note_on,,,,,15,0,1,,,,,0,,,70,54
18000,note_on,,,,,0,0,2,,,,,0,,,50,46
18000,set_tempo,,,,,100,1,0,,375000,,,,,,,
18060,note_on,,,,,60,0,1,,,,,0,,,70,0
18060,note_on,,,,,0,0,1,,,,,0,,,73,50
18090,note_on,,,,,0,0,2,,,,,0,,,61,0
18090,note_on,,,,,90,0,2,,,,,0,,,50,0
18105,note_on,,,,,45,0,1,,,,,0,,,73,0
18115,control_change,,,,,10,0,1,,,,,0,64,0,,
18120,set_tempo,,,,,120,1,0,,388349,,,,,,,
18120,note_on,,,,,0,0,2,,,,,0,,,50,38
18120,note_on,,,,,30,0,2,,,,,0,,,62,38
18120,note_on,,,,,5,0,1,,,,,0,,,71,51
18120,control_change,,,,,0,0,1,,,,,0,64,95,,
18130,set_tempo,,,,,10,1,0,,389610,,,,,,,
18180,note_on,,,,,60,0,1,,,,,0,,,71,0
18180,note_on,,,,,0,0,1,,,,,0,,,74,38
18210,note_on,,,,,0,0,2,,,,,0,,,62,0
18210,note_on,,,,,90,0,2,,,,,0,,,50,0
18225,note_on,,,,,45,0,1,,,,,0,,,74,0
18235,control_change,,,,,10,0,1,,,,,0,64,0,,
18240,note_on,,,,,5,0,1,,,,,0,,,71,48
18240,control_change,,,,,0,0,1,,,,,0,64,95,,
18240,note_on,,,,,0,0,2,,,,,0,,,55,53
18240,note_on,,,,,30,0,2,,,,,0,,,50,53
18300,note_on,,,,,60,0,1,,,,,0,,,71,0
18300,note_on,,,,,0,0,1,,,,,0,,,67,40
18300,set_tempo,,,,,170,1,0,,397350,,,,,,,
18330,note_on,,,,,0,0,2,,,,,0,,,50,0
18330,note_on,,,,,90,0,2,,,,,0,,,55,0
18345,note_on,,,,,45,0,1,,,,,0,,,67,0
18360,note_on,,,,,0,0,2,,,,,0,,,59,46
18360,note_on,,,,,15,0,1,,,,,0,,,67,44
18360,note_on,,,,,30,0,2,,,,,0,,,50,46
18420,note_on,,,,,0,0,1,,,,,0,,,62,38
18420,note_on,,,,,60,0,1,,,,,0,,,67,0
18440,set_tempo,,,,,140,1,0,,404040,,,,,,,
18450,note_on,,,,,0,0,2,,,,,0,,,50,0
18450,note_on,,,,,90,0,2,,,,,0,,,59,0
18465,note_on,,,,,45,0,1,,,,,0,,,62,0
18475,control_change,,,,,10,0,1,,,,,0,64,0,,
18480,note_on,,,,,30,0,2,,,,,0,,,50,43
18480,control_change,,,,,0,0,1,,,,,0,64,95,,
18480,note_on,,,,,5,0,1,,,,,0,,,69,44
18480,note_on,,,,,0,0,2,,,,,0,,,54,43
18540,note_on,,,,,60,0,1,,,,,0,,,69,0
18540,note_on,,,,,0,0,1,,,,,0,,,66,36
18560,set_tempo,,,,,120,1,0,,416666,,,,,,,
18570,note_on,,,,,90,0,2,,,,,0,,,54,0
18570,note_on,,,,,0,0,2,,,,,0,,,50,0
18585,note_on,,,,,45,0,1,,,,,0,,,66,0
18600,note_on,,,,,15,0,1,,,,,0,,,66,40
18600,note_on,,,,,30,0,2,,,,,0,,,50,39
18600,note_on,,,,,0,0,2,,,,,0,,,60,39
18660,note_on,,,,,60,0,1,,,,,0,,,66,0
18660,note_on,,,,,0,0,1,,,,,0,,,62,34
18690,set_tempo,,,,,130,1,0,,425531,,,,,,,
18690,note_on,,,,,0,0,2,,,,,0,,,50,0
18690,note_on,,,,,90,0,2,,,,,0,,,60,0
18705,note_on,,,,,45,0,1,,,,,0,,,62,0
18715,control_change,,,,,10,0,1,,,,,0,64,0,,
18720,note_on,,,,,0,0,2,,,,,0,,,55,43
18720,note_on,,,,,5,0,1,,,,,0,,,71,38
18720,control_change,,,,,0,0,1,,,,,0,64,95,,
18720,note_on,,,,,30,0,2,,,,,0,,,50,43
18780,note_on,,,,,60,0,1,,,,,0,,,71,0
18780,note_on,,,,,0,0,1,,,,,0,,,67,34
18810,note_on,,,,,90,0,2,,,,,0,,,55,0
18810,note_on,,,,,0,0,2,,,,,0,,,50,0
18820,set_tempo,,,,,130,1,0,,442804,,,,,,,
18825,note_on,,,,,45,0,1,,,,,0,,,67,0
18840,note_on,,,,,0,0,2,,,,,0,,,59,37
18840,note_on,,,,,30,0,2,,,,,0,,,50,37
18840,note_on,,,,,15,0,1,,,,,0,,,67,38
18900,note_on,,,,,60,0,1,,,,,0,,,67,0
18900,note_on,,,,,0,0,1,,,,,0,,,62,31
18930,note_on,,,,,90,0,2,,,,,0,,,59,0
18930,note_on,,,,,0,0,2,,,,,0,,,50,0
18945,note_on,,,,,45,0,1,,,,,0,,,62,0
18955,control_change,,,,,10,0,1,,,,,0,64,0,,
18960,note_on,,,,,0,0,2,,,,,0,,,54,35
18960,note_on,,,,,30,0,2,,,,,0,,,50,35
18960,note_on,,,,,5,0,1,,,,,0,,,69,38
18960,control_change,,,,,0,0,1,,,,,0,64,95,,
18990,set_tempo,,,,,170,1,0,,452830,,,,,,,
19020,note_on,,,,,60,0,1,,,,,0,,,69,0
19020,note_on,,,,,0,0,1,,,,,0,,,66,30
19050,note_on,,,,,0,0,2,,,,,0,,,50,0
19050,note_on,,,,,90,0,2,,,,,0,,,54,0
19065,note_on,,,,,45,0,1,,,,,0,,,66,0
19080,note_on,,,,,0,0,2,,,,,0,,,60,30
19080,note_on,,,,,15,0,1,,,,,0,,,66,35
19080,note_on,,,,,30,0,2,,,,,0,,,50,30
19110,set_tempo,,,,,120,1,0,,461538,,,,,,,
19120,set_tempo,,,,,10,1,0,,451127,,,,,,,
19140,note_on,,,,,0,0,1,,,,,0,,,62,27
19140,set_tempo,,,,,20,1,0,,444444,,,,,,,
19140,note_on,,,,,60,0,1,,,,,0,,,66,0
19170,note_on,,,,,90,0,2,,,,,0,,,60,0
19170,note_on,,,,,0,0,2,,,,,0,,,50,0
19185,note_on,,,,,45,0,1,,,,,0,,,62,0
19195,control_change,,,,,10,0,1,,,,,0,64,0,,
19200,note_on,,,,,30,0,2,,,,,0,,,50,35
19200,set_tempo,,,,,60,1,0,,430107,,,,,,,
19200,control_change,,,,,0,0,1,,,,,0,64,95,,
19200,note_on,,,,,5,0,1,,,,,0,,,71,38
19200,note_on,,,,,0,0,2,,,,,0,,,55,35
19260,note_on,,,,,0,0,1,,,,,0,,,67,34
19260,note_on,,,,,60,0,1,,,,,0,,,71,0
19290,note_on,,,,,90,0,2,,,,,0,,,55,0
19290,note_on,,,,,0,0,2,,,,,0,,,50,0
19305,note_on,,,,,45,0,1,,,,,0,,,67,0
19310,set_tempo,,,,,110,1,0,,424028,,,,,,,
19320,note_on,,,,,0,0,2,,,,,0,,,59,39
19320,note_on,,,,,15,0,1,,,,,0,,,67,43
19320,note_on,,,,,30,0,2,,,,,0,,,50,39
19380,note_on,,,,,60,0,1,,,,,0,,,67,0
19380,note_on,,,,,0,0,1,,,,,0,,,62,35
19410,note_on,,,,,0,0,2,,,,,0,,,50,0
19410,note_on,,,,,90,0,2,,,,,0,,,59,0
19425,note_on,,,,,45,0,1,,,,,0,,,62,0
19435,control_change,,,,,10,0,1,,,,,0,64,0,,
19440,note_on,,,,,30,0,2,,,,,0,,,56,42
19440,control_change,,,,,0,0,1,,,,,0,64,95,,
19440,note_on,,,,,5,0,1,,,,,0,,,71,47
19440,note_on,,,,,0,0,2,,,,,0,,,50,42
19440,set_tempo,,,,,130,1,0,,409556,,,,,,,
19500,note_on,,,,,0,0,1,,,,,0,,,68,41
19500,note_on,,,,,60,0,1,,,,,0,,,71,0
19530,note_on,,,,,0,0,2,,,,,0,,,56,0
19530,note_on,,,,,90,0,2,,,,,0,,,50,0
19545,note_on,,,,,45,0,1,,,,,0,,,68,0
19560,note_on,,,,,15,0,1,,,,,0,,,68,51
19560,note_on,,,,,30,0,2,,,,,0,,,59,47
19560,note_on,,,,,0,0,2,,,,,0,,,50,47
19570,set_tempo,,,,,130,1,0,,398671,,,,,,,
19620,note_on,,,,,60,0,1,,,,,0,,,68,0
19620,note_on,,,,,0,0,1,,,,,0,,,62,45
19650,note_on,,,,,90,0,2,,,,,0,,,50,0
19650,note_on,,,,,0,0,2,,,,,0,,,59,0
19665,note_on,,,,,45,0,1,,,,,0,,,62,0
19670,set_tempo,,,,,100,1,0,,389610,,,,,,,
19675,control_change,,,,,10,0,1,,,,,0,64,0,,
19680,note_on,,,,,0,0,2,,,,,0,,,50,56
19680,control_change,,,,,0,0,1,,,,,0,64,95,,
19680,note_on,,,,,5,0,1,,,,,0,,,72,58
19680,set_tempo,,,,,10,1,0,,388349,,,,,,,
19680,note_on,,,,,30,0,2,,,,,0,,,57,56
19740,set_tempo,,,,,60,1,0,,379746,,,,,,,
19740,note_on,,,,,0,0,1,,,,,0,,,69,53
19740,note_on,,,,,60,0,1,,,,,0,,,72,0
19770,note_on,,,,,90,0,2,,,,,0,,,50,0
19770,note_on,,,,,0,0,2,,,,,0,,,57,0
19785,note_on,,,,,45,0,1,,,,,0,,,69,0
19800,note_on,,,,,30,0,2,,,,,0,,,60,62
19800,note_on,,,,,0,0,2,,,,,0,,,50,62
19800,note_on,,,,,15,0,1,,,,,0,,,69,63
19800,set_tempo,,,,,60,1,0,,370370,,,,,,,
19860,note_on,,,,,0,0,1,,,,,0,,,62,58
19860,note_on,,,,,60,0,1,,,,,0,,,69,0
19890,note_on,,,,,0,0,2,,,,,0,,,60,0
19890,set_tempo,,,,,90,1,0,,361445,,,,,,,
19890,note_on,,,,,90,0,2,,,,,0,,,50,0
19905,note_on,,,,,45,0,1,,,,,0,,,62,0
19915,control_change,,,,,10,0,1,,,,,0,64,0,,
19920,note_on,,,,,30,0,2,,,,,0,,,58,68
19920,note_on,,,,,5,0,1,,,,,0,,,73,70
19920,control_change,,,,,0,0,1,,,,,0,64,95,,
19920,note_on,,,,,0,0,2,,,,,0,,,50,68
19970,set_tempo,,,,,80,1,0,,357142,,,,,,,
19980,note_on,,,,,0,0,1,,,,,0,,,70,67
19980,note_on,,,,,60,0,1,,,,,0,,,73,0
20010,note_on,,,,,0,0,2,,,,,0,,,58,0
20010,note_on,,,,,90,0,2,,,,,0,,,50,0
20020,set_tempo,,,,,50,1,0,,356083,,,,,,,
20025,note_on,,,,,45,0,1,,,,,0,,,70,0
20030,set_tempo,,,,,10,1,0,,349854,,,,,,,
20040,note_on,,,,,30,0,2,,,,,0,,,61,78
20040,note_on,,,,,15,0,1,,,,,0,,,70,77
20040,note_on,,,,,0,0,2,,,,,0,,,50,78
20080,set_tempo,,,,,50,1,0,,355029,,,,,,,
20090,set_tempo,,,,,10,1,0,,357142,,,,,,,
20100,note_on,,,,,60,0,1,,,,,0,,,70,0
20100,note_on,,,,,0,0,1,,,,,0,,,62,81
20100,set_tempo,,,,,10,1,0,,540540,,,,,,,
20130,note_on,,,,,90,0,2,,,,,0,,,50,0
20130,note_on,,,,,0,0,2,,,,,0,,,61,0
20160,note_on,,,,,60,0,1,,,,,0,,,62,0
20185,control_change,,,,,25,0,1,,,,,0,64,0,,
20300,set_tempo,,,,,200,1,0,,375000,,,,,,,
20520,set_tempo,,,,,220,1,0,,377358,,,,,,,
20520,note_on,,,,,0,0,1,,,,,0,,,73,85
20520,control_change,,,,,335,0,1,,,,,0,91,96,,
20550,set_tempo,,,,,30,1,0,,394736,,,,,,,
20580,note_on,,,,,0,0,1,,,,,0,,,76,84
20580,note_on,,,,,60,0,1,,,,,0,,,73,0
20620,note_on,,,,,490,0,2,,,,,0,,,43,89
20630,note_on,,,,,10,0,2,,,,,0,,,50,90
20632,note_on,,,,,52,0,1,,,,,0,,,76,0
20640,control_change,,,,,0,0,1,,,,,0,64,96,,
20640,note_on,,,,,8,0,1,,,,,0,,,74,90
20640,note_on,,,,,10,0,2,,,,,0,,,59,90
20640,set_tempo,,,,,90,1,0,,377358,,,,,,,
20640,note_on,,,,,0,0,2,,,,,0,,,62,90
21000,note_on,,,,,360,0,1,,,,,0,,,74,0
21000,note_on,,,,,0,0,1,,,,,0,,,72,80
21020,set_tempo,,,,,380,1,0,,389610,,,,,,,
21060,note_on,,,,,0,0,1,,,,,0,,,71,81
21060,note_on,,,,,60,0,1,,,,,0,,,72,0
21100,set_tempo,,,,,80,1,0,,384615,,,,,,,
21100,note_on,,,,,460,0,2,,,,,0,,,43,0
21100,control_change,,,,,40,0,1,,,,,0,64,0,,
21110,set_tempo,,,,,10,1,0,,382165,,,,,,,
21114,note_on,,,,,14,0,1,,,,,0,,,71,0
21120,control_change,,,,,0,0,1,,,,,0,64,95,,
21120,note_on,,,,,6,0,1,,,,,0,,,69,84
21120,note_on,,,,,20,0,2,,,,,0,,,62,0
21120,note_on,,,,,0,0,2,,,,,0,,,60,89
21120,note_on,,,,,0,0,2,,,,,0,,,62,89
21120,note_on,,,,,0,0,2,,,,,0,,,59,0
21180,note_on,,,,,0,0,1,,,,,0,,,71,86
21180,note_on,,,,,60,0,1,,,,,0,,,69,0
21200,set_tempo,,,,,90,1,0,,368098,,,,,,,
21240,note_on,,,,,0,0,1,,,,,0,,,72,89
21240,note_on,,,,,60,0,1,,,,,0,,,71,0
21300,note_on,,,,,60,0,1,,,,,0,,,72,0
21300,note_on,,,,,0,0,1,,,,,0,,,74,91
21354,note_on,,,,,54,0,1,,,,,0,,,74,0
21360,note_on,,,,,240,0,2,,,,,0,,,60,0
21360,note_on,,,,,0,0,2,,,,,0,,,57,86
21360,note_on,,,,,6,0,1,,,,,0,,,72,94
21450,note_on,,,,,90,0,1,,,,,0,,,72,0
21450,note_on,,,,,90,0,2,,,,,0,,,57,0
21480,note_on,,,,,30,0,2,,,,,0,,,54,80
21480,note_on,,,,,30,0,1,,,,,0,,,69,83
21570,note_on,,,,,90,0,2,,,,,0,,,54,0
21570,note_on,,,,,90,0,1,,,,,0,,,69,0
21580,note_on,,,,,10,0,2,,,,,0,,,50,0
21580,control_change,,,,,10,0,1,,,,,0,64,0,,
21600,note_on,,,,,0,0,2,,,,,0,,,55,76
21600,note_on,,,,,20,0,2,,,,,0,,,62,0
21600,note_on,,,,,0,0,2,,,,,0,,,43,76
21600,note_on,,,,,20,0,1,,,,,0,,,62,90
21600,note_on,,,,,0,0,1,,,,,0,,,71,90
21600,control_change,,,,,0,0,1,,,,,0,64,95,,
21600,note_on,,,,,0,0,2,,,,,0,,,50,76
21720,note_on,,,,,120,0,1,,,,,0,,,71,0
21720,note_on,,,,,0,0,2,,,,,0,,,47,71
21720,note_on,,,,,120,0,2,,,,,0,,,43,0
21720,note_on,,,,,0,0,1,,,,,0,,,67,77
21780,control_change,,,,,0,0,1,,,,,0,64,0,,
21780,note_on,,,,,0,0,1,,,,,0,,,62,0
21780,note_on,,,,,0,0,2,,,,,0,,,50,0
21780,note_on,,,,,0,0,2,,,,,0,,,55,0
21780,note_on,,,,,60,0,2,,,,,0,,,47,0
21780,note_on,,,,,60,0,1,,,,,0,,,67,0
21840,note_on,,,,,60,0,1,,,,,0,,,71,84
21840,note_on,,,,,60,0,2,,,,,0,,,62,86
21840,note_on,,,,,0,0,1,,,,,0,,,79,84
21840,set_tempo,,,,,640,1,0,,368098,,,,,,,
21840,note_on,,,,,0,0,2,,,,,0,,,67,86
21870,set_tempo,,,,,30,1,0,,382165,,,,,,,
21880,set_tempo,,,,,10,1,0,,385852,,,,,,,
21899,note_on,,,,,0,0,2,,,,,0,,,62,0
21899,note_on,,,,,59,0,2,,,,,0,,,67,0
21899,note_on,,,,,59,0,1,,,,,0,,,79,0
21899,note_on,,,,,0,0,1,,,,,0,,,71,0
21900,note_on,,,,,0,0,2,,,,,0,,,67,84
21900,note_on,,,,,1,0,2,,,,,0,,,62,84
21900,note_on,,,,,1,0,1,,,,,0,,,71,72
21900,note_on,,,,,0,0,1,,,,,0,,,79,72
21920,set_tempo,,,,,40,1,0,,393442,,,,,,,
21930,set_tempo,,,,,10,1,0,,394736,,,,,,,
21954,note_on,,,,,54,0,1,,,,,0,,,79,0
21954,note_on,,,,,54,0,2,,,,,0,,,67,0
21954,note_on,,,,,0,0,2,,,,,0,,,62,0
21954,note_on,,,,,0,0,1,,,,,0,,,71,0
21960,note_on,,,,,6,0,2,,,,,0,,,62,90
21960,note_on,,,,,0,0,2,,,,,0,,,67,90
21960,note_on,,,,,0,0,1,,,,,0,,,79,79
21960,note_on,,,,,6,0,1,,,,,0,,,71,79
21970,set_tempo,,,,,40,1,0,,406779,,,,,,,
21990,set_tempo,,,,,20,1,0,,409556,,,,,,,
22014,note_on,,,,,54,0,1,,,,,0,,,79,0
22014,note_on,,,,,0,0,2,,,,,0,,,62,0
22014,note_on,,,,,54,0,2,,,,,0,,,67,0
22014,note_on,,,,,0,0,1,,,,,0,,,71,0
22020,note_on,,,,,0,0,2,,,,,0,,,67,96
22020,note_on,,,,,6,0,2,,,,,0,,,62,96
22020,note_on,,,,,6,0,1,,,,,0,,,71,93
22020,note_on,,,,,0,0,1,,,,,0,,,79,93
22030,set_tempo,,,,,40,1,0,,401337,,,,,,,
22074,note_on,,,,,54,0,2,,,,,0,,,67,0
22074,note_on,,,,,0,0,1,,,,,0,,,71,0
22074,note_on,,,,,54,0,1,,,,,0,,,79,0
22074,note_on,,,,,0,0,2,,,,,0,,,62,0
22080,note_on,,,,,0,0,1,,,,,0,,,79,98
22080,control_change,,,,,0,0,1,,,,,0,64,95,,
22080,note_on,,,,,0,0,2,,,,,0,,,67,102
22080,note_on,,,,,6,0,2,,,,,0,,,62,102
22080,note_on,,,,,6,0,1,,,,,0,,,71,98
22090,set_tempo,,,,,60,1,0,,392156,,,,,,,
22140,set_tempo,,,,,50,1,0,,390879,,,,,,,
22150,set_tempo,,,,,10,1,0,,385852,,,,,,,
22160,set_tempo,,,,,10,1,0,,383386,,,,,,,
22200,note_on,,,,,120,0,1,,,,,0,,,79,0
22200,note_on,,,,,0,0,1,,,,,0,,,71,0
22200,note_on,,,,,0,0,1,,,,,0,,,72,82
22200,note_on,,,,,0,0,1,,,,,0,,,76,82
22200,set_tempo,,,,,40,1,0,,378548,,,,,,,
22320,note_on,,,,,0,0,1,,,,,0,,,74,73
22320,note_on,,,,,120,0,1,,,,,0,,,76,0
22320,note_on,,,,,0,0,1,,,,,0,,,72,0
22320,note_on,,,,,0,0,1,,,,,0,,,71,73
22380,note_on,,,,,300,0,2,,,,,0,,,67,0
22380,note_on,,,,,0,0,2,,,,,0,,,62,0
22380,note_on,,,,,60,0,1,,,,,0,,,74,0
22380,note_on,,,,,0,0,1,,,,,0,,,71,0
22380,control_change,,,,,0,0,1,,,,,0,64,0,,
22440,note_on,,,,,60,0,1,,,,,0,,,79,91
22440,set_tempo,,,,,240,1,0,,377358,,,,,,,
22470,set_tempo,,,,,30,1,0,,394736,,,,,,,
22500,note_on,,,,,60,0,1,,,,,0,,,79,0
22500,note_on,,,,,0,0,1,,,,,0,,,73,91
22540,note_on,,,,,160,0,2,,,,,0,,,43,94
22550,note_on,,,,,10,0,2,,,,,0,,,50,94
22552,note_on,,,,,52,0,1,,,,,0,,,73,0
22560,set_tempo,,,,,90,1,0,,377358,,,,,,,
22560,note_on,,,,,0,0,2,,,,,0,,,62,94
22560,note_on,,,,,10,0,2,,,,,0,,,59,94
22560,note_on,,,,,8,0,1,,,,,0,,,74,98
22560,control_change,,,,,0,0,1,,,,,0,64,96,,
22920,note_on,,,,,360,0,1,,,,,0,,,74,0
22920,note_on,,,,,0,0,1,,,,,0,,,72,80
22940,set_tempo,,,,,380,1,0,,389610,,,,,,,
22980,note_on,,,,,60,0,1,,,,,0,,,72,0
22980,note_on,,,,,0,0,1,,,,,0,,,71,83
23020,control_change,,,,,40,0,1,,,,,0,64,0,,
23020,note_on,,,,,460,0,2,,,,,0,,,43,0
23020,set_tempo,,,,,80,1,0,,384615,,,,,,,
23030,set_tempo,,,,,10,1,0,,382165,,,,,,,
23034,note_on,,,,,14,0,1,,,,,0,,,71,0
23040,note_on,,,,,6,0,1,,,,,0,,,69,86
23040,control_change,,,,,0,0,1,,,,,0,64,95,,
23040,note_on,,,,,20,0,2,,,,,0,,,62,0
23040,note_on,,,,,0,0,2,,,,,0,,,59,0
23040,note_on,,,,,0,0,2,,,,,0,,,60,89
23040,note_on,,,,,0,0,2,,,,,0,,,62,89
23100,note_on,,,,,0,0,1,,,,,0,,,71,88
23100,note_on,,,,,60,0,1,,,,,0,,,69,0
23120,set_tempo,,,,,90,1,0,,368098,,,,,,,
23160,note_on,,,,,60,0,1,,,,,0,,,71,0
23160,note_on,,,,,0,0,1,,,,,0,,,72,91
23220,note_on,,,,,60,0,1,,,,,0,,,72,0
23220,note_on,,,,,0,0,1,,,,,0,,,74,92
23274,note_on,,,,,54,0,1,,,,,0,,,74,0
23280,note_on,,,,,0,0,2,,,,,0,,,57,88
23280,note_on,,,,,240,0,2,,,,,0,,,60,0
23280,note_on,,,,,6,0,1,,,,,0,,,72,96
23370,note_on,,,,,90,0,2,,,,,0,,,57,0
23370,note_on,,,,,90,0,1,,,,,0,,,72,0
23400,note_on,,,,,30,0,2,,,,,0,,,54,84
23400,note_on,,,,,30,0,1,,,,,0,,,69,85
23490,note_on,,,,,90,0,1,,,,,0,,,69,0
23490,note_on,,,,,90,0,2,,,,,0,,,54,0
23500,note_on,,,,,10,0,2,,,,,0,,,50,0
23500,control_change,,,,,10,0,1,,,,,0,64,0,,
23520,control_change,,,,,0,0,1,,,,,0,64,95,,
23520,note_on,,,,,0,0,1,,,,,0,,,67,91
23520,note_on,,,,,20,0,1,,,,,0,,,59,91
23520,note_on,,,,,20,0,2,,,,,0,,,62,0
23520,note_on,,,,,0,0,2,,,,,0,,,43,80
23520,note_on,,,,,0,0,2,,,,,0,,,50,80
23640,note_on,,,,,0,0,2,,,,,0,,,55,30
23640,note_on,,,,,120,0,1,,,,,0,,,67,0
23640,note_on,,,,,120,0,2,,,,,0,,,50,0
23640,note_on,,,,,0,0,1,,,,,0,,,62,77
23700,note_on,,,,,0,0,1,,,,,0,,,59,0
23700,note_on,,,,,60,0,1,,,,,0,,,62,0
23700,note_on,,,,,0,0,2,,,,,0,,,43,0
23700,note_on,,,,,60,0,2,,,,,0,,,55,0
23700,control_change,,,,,0,0,1,,,,,0,64,0,,
23760,note_on,,,,,0,0,1,,,,,0,,,64,81
23760,note_on,,,,,60,0,1,,,,,0,,,60,81
23760,note_on,,,,,0,0,1,,,,,0,,,69,81
23760,note_on,,,,,60,0,2,,,,,0,,,50,106
23800,set_tempo,,,,,680,1,0,,368098,,,,,,,
23819,note_on,,,,,0,0,1,,,,,0,,,60,0
23819,note_on,,,,,0,0,1,,,,,0,,,64,0
23819,note_on,,,,,59,0,1,,,,,0,,,69,0
23819,note_on,,,,,59,0,2,,,,,0,,,50,0
23820,note_on,,,,,0,0,1,,,,,0,,,60,79
23820,note_on,,,,,0,0,1,,,,,0,,,69,79
23820,note_on,,,,,1,0,1,,,,,0,,,64,79
23820,note_on,,,,,1,0,2,,,,,0,,,50,98
23830,set_tempo,,,,,30,1,0,,365853,,,,,,,
23870,set_tempo,,,,,40,1,0,,358208,,,,,,,
23874,note_on,,,,,54,0,1,,,,,0,,,60,0
23874,note_on,,,,,0,0,1,,,,,0,,,64,0
23874,note_on,,,,,0,0,1,,,,,0,,,69,0
23874,note_on,,,,,54,0,2,,,,,0,,,50,0
23880,note_on,,,,,6,0,2,,,,,0,,,50,86
23880,note_on,,,,,0,0,1,,,,,0,,,69,71
23880,note_on,,,,,6,0,1,,,,,0,,,64,71
23880,note_on,,,,,0,0,1,,,,,0,,,60,71
23934,note_on,,,,,54,0,2,,,,,0,,,50,0
23934,note_on,,,,,54,0,1,,,,,0,,,60,0
23934,note_on,,,,,0,0,1,,,,,0,,,69,0
23934,note_on,,,,,0,0,1,,,,,0,,,64,0
23940,note_on,,,,,6,0,1,,,,,0,,,64,69
23940,note_on,,,,,0,0,1,,,,,0,,,69,69
23940,note_on,,,,,0,0,1,,,,,0,,,60,69
23940,note_on,,,,,6,0,2,,,,,0,,,50,78
23994,note_on,,,,,54,0,1,,,,,0,,,60,0
23994,note_on,,,,,0,0,1,,,,,0,,,64,0
23994,note_on,,,,,0,0,1,,,,,0,,,69,0
23994,note_on,,,,,54,0,2,,,,,0,,,50,0
24000,note_on,,,,,6,0,1,,,,,0,,,67,68
24000,note_on,,,,,0,0,1,,,,,0,,,59,68
24000,note_on,,,,,6,0,2,,,,,0,,,50,72
24030,set_tempo,,,,,160,1,0,,357142,,,,,,,
24040,set_tempo,,,,,10,1,0,,349854,,,,,,,
24110,set_tempo,,,,,70,1,0,,353982,,,,,,,
24120,note_on,,,,,0,0,1,,,,,0,,,62,57
24120,note_on,,,,,120,0,1,,,,,0,,,67,0
24120,set_tempo,,,,,10,1,0,,355029,,,,,,,
24180,note_on,,,,,0,0,1,,,,,0,,,59,0
24180,note_on,,,,,180,0,2,,,,,0,,,50,0
24180,note_on,,,,,60,0,1,,,,,0,,,62,0
24240,note_on,,,,,60,0,1,,,,,0,,,74,77
24240,note_on,,,,,0,0,1,,,,,0,,,66,77
24240,note_on,,,,,60,0,2,,,,,0,,,50,82
24240,note_on,,,,,0,0,2,,,,,0,,,57,82
24240,note_on,,,,,0,0,2,,,,,0,,,60,82
24299,note_on,,,,,0,0,1,,,,,0,,,74,0
24299,note_on,,,,,59,0,1,,,,,0,,,66,0
24299,note_on,,,,,59,0,2,,,,,0,,,60,0
24299,note_on,,,,,0,0,2,,,,,0,,,57,0
24299,note_on,,,,,0,0,2,,,,,0,,,50,0
24300,note_on,,,,,1,0,1,,,,,0,,,74,75
24300,note_on,,,,,0,0,1,,,,,0,,,66,75
24300,note_on,,,,,1,0,2,,,,,0,,,50,77
24300,set_tempo,,,,,180,1,0,,360360,,,,,,,
24300,note_on,,,,,0,0,2,,,,,0,,,57,77
24300,note_on,,,,,0,0,2,,,,,0,,,60,77
24320,set_tempo,,,,,20,1,0,,361445,,,,,,,
24359,note_on,,,,,59,0,2,,,,,0,,,60,0
24359,note_on,,,,,0,0,2,,,,,0,,,57,0
24359,note_on,,,,,0,0,2,,,,,0,,,50,0
24359,note_on,,,,,59,0,1,,,,,0,,,66,0
24359,note_on,,,,,0,0,1,,,,,0,,,74,0
24360,note_on,,,,,1,0,2,,,,,0,,,50,72
24360,note_on,,,,,0,0,2,,,,,0,,,60,72
24360,note_on,,,,,0,0,2,,,,,0,,,57,72
24360,note_on,,,,,1,0,1,,,,,0,,,74,71
24360,note_on,,,,,0,0,1,,,,,0,,,66,71
24419,note_on,,,,,0,0,2,,,,,0,,,50,0
24419,note_on,,,,,0,0,2,,,,,0,,,57,0
24419,note_on,,,,,59,0,2,,,,,0,,,60,0
24419,note_on,,,,,59,0,1,,,,,0,,,66,0
24419,note_on,,,,,0,0,1,,,,,0,,,74,0
24420,note_on,,,,,1,0,1,,,,,0,,,74,64
24420,note_on,,,,,0,0,1,,,,,0,,,66,64
24420,note_on,,,,,1,0,2,,,,,0,,,50,64
24420,note_on,,,,,0,0,2,,,,,0,,,60,64
24420,note_on,,,,,0,0,2,,,,,0,,,57,64
24470,set_tempo,,,,,150,1,0,,369230,,,,,,,
24479,note_on,,,,,59,0,1,,,,,0,,,66,0
24479,note_on,,,,,0,0,2,,,,,0,,,57,0
24479,note_on,,,,,59,0,2,,,,,0,,,60,0
24479,note_on,,,,,0,0,2,,,,,0,,,50,0
24479,note_on,,,,,0,0,1,,,,,0,,,74,0
24480,note_on,,,,,1,0,1,,,,,0,,,67,59
24480,note_on,,,,,0,0,1,,,,,0,,,74,59
24480,note_on,,,,,1,0,2,,,,,0,,,55,60
24480,note_on,,,,,0,0,2,,,,,0,,,59,60
24600,note_on,,,,,0,0,1,,,,,0,,,79,53
24600,note_on,,,,,120,0,1,,,,,0,,,74,0
24660,note_on,,,,,60,0,1,,,,,0,,,79,0
24660,note_on,,,,,0,0,1,,,,,0,,,67,0
24660,note_on,,,,,0,0,2,,,,,0,,,55,0
24660,note_on,,,,,180,0,2,,,,,0,,,59,0
24690,set_tempo,,,,,220,1,0,,375000,,,,,,,
24720,note_on,,,,,60,0,2,,,,,0,,,50,50
24720,note_on,,,,,60,0,1,,,,,0,,,60,46
24720,note_on,,,,,0,0,1,,,,,0,,,64,46
24720,note_on,,,,,0,0,1,,,,,0,,,69,46
24779,note_on,,,,,0,0,1,,,,,0,,,60,0
24779,note_on,,,,,0,0,1,,,,,0,,,64,0
24779,note_on,,,,,59,0,2,,,,,0,,,50,0
24779,note_on,,,,,59,0,1,,,,,0,,,69,0
24780,note_on,,,,,1,0,1,,,,,0,,,64,43
24780,note_on,,,,,0,0,1,,,,,0,,,69,43
24780,note_on,,,,,0,0,1,,,,,0,,,60,43
24780,note_on,,,,,1,0,2,,,,,0,,,50,48
24834,note_on,,,,,54,0,1,,,,,0,,,60,0
24834,note_on,,,,,0,0,1,,,,,0,,,69,0
24834,note_on,,,,,0,0,1,,,,,0,,,64,0
24834,note_on,,,,,54,0,2,,,,,0,,,50,0
24840,note_on,,,,,6,0,2,,,,,0,,,50,40
24840,note_on,,,,,0,0,1,,,,,0,,,60,40
24840,note_on,,,,,6,0,1,,,,,0,,,64,40
24840,note_on,,,,,0,0,1,,,,,0,,,69,40
24894,note_on,,,,,0,0,1,,,,,0,,,64,0
24894,note_on,,,,,0,0,1,,,,,0,,,69,0
24894,note_on,,,,,54,0,1,,,,,0,,,60,0
24894,note_on,,,,,54,0,2,,,,,0,,,50,0
24900,note_on,,,,,0,0,1,,,,,0,,,69,36
24900,note_on,,,,,0,0,1,,,,,0,,,60,36
24900,note_on,,,,,6,0,1,,,,,0,,,64,36
24900,note_on,,,,,6,0,2,,,,,0,,,50,36
24954,note_on,,,,,54,0,1,,,,,0,,,60,0
24954,note_on,,,,,0,0,1,,,,,0,,,64,0
24954,note_on,,,,,0,0,1,,,,,0,,,69,0
24954,note_on,,,,,54,0,2,,,,,0,,,50,0
24960,note_on,,,,,0,0,1,,,,,0,,,59,32
24960,note_on,,,,,6,0,1,,,,,0,,,67,32
24960,note_on,,,,,6,0,2,,,,,0,,,50,30
24990,set_tempo,,,,,300,1,0,,379746,,,,,,,
25080,note_on,,,,,0,0,1,,,,,0,,,62,28
25080,note_on,,,,,120,0,1,,,,,0,,,67,0
25140,note_on,,,,,60,0,1,,,,,0,,,62,0
25140,note_on,,,,,180,0,2,,,,,0,,,50,0
25140,note_on,,,,,0,0,1,,,,,0,,,59,0
25170,set_tempo,,,,,180,1,0,,382165,,,,,,,
25200,note_on,,,,,0,0,2,,,,,0,,,57,39
25200,note_on,,,,,60,0,2,,,,,0,,,50,39
25200,note_on,,,,,60,0,1,,,,,0,,,74,39
25200,note_on,,,,,0,0,2,,,,,0,,,60,39
25200,note_on,,,,,0,0,1,,,,,0,,,66,39
25210,set_tempo,,,,,40,1,0,,384615,,,,,,,
25259,note_on,,,,,59,0,1,,,,,0,,,66,0
25259,note_on,,,,,59,0,2,,,,,0,,,60,0
25259,note_on,,,,,0,0,2,,,,,0,,,57,0
25259,note_on,,,,,0,0,2,,,,,0,,,50,0
25259,note_on,,,,,0,0,1,,,,,0,,,74,0
25260,note_on,,,,,0,0,1,,,,,0,,,66,36
25260,note_on,,,,,1,0,1,,,,,0,,,74,36
25260,note_on,,,,,1,0,2,,,,,0,,,50,36
25260,note_on,,,,,0,0,2,,,,,0,,,57,36
25260,note_on,,,,,0,0,2,,,,,0,,,60,36
25270,set_tempo,,,,,60,1,0,,387096,,,,,,,
25310,set_tempo,,,,,40,1,0,,389610,,,,,,,
25319,note_on,,,,,0,0,2,,,,,0,,,50,0
25319,note_on,,,,,0,0,1,,,,,0,,,74,0
25319,note_on,,,,,59,0,1,,,,,0,,,66,0
25319,note_on,,,,,59,0,2,,,,,0,,,60,0
25319,note_on,,,,,0,0,2,,,,,0,,,57,0
25320,note_on,,,,,1,0,2,,,,,0,,,50,34
25320,note_on,,,,,0,0,2,,,,,0,,,57,34
25320,note_on,,,,,0,0,2,,,,,0,,,60,34
25320,note_on,,,,,1,0,1,,,,,0,,,74,32
25320,set_tempo,,,,,10,1,0,,392156,,,,,,,
25320,note_on,,,,,0,0,1,,,,,0,,,66,32
25379,note_on,,,,,0,0,1,,,,,0,,,74,0
25379,note_on,,,,,0,0,2,,,,,0,,,50,0
25379,note_on,,,,,0,0,2,,,,,0,,,57,0
25379,note_on,,,,,59,0,2,,,,,0,,,60,0
25379,note_on,,,,,59,0,1,,,,,0,,,66,0
25380,note_on,,,,,0,0,2,,,,,0,,,60,30
25380,note_on,,,,,1,0,1,,,,,0,,,74,28
25380,note_on,,,,,0,0,1,,,,,0,,,66,28
25380,note_on,,,,,0,0,2,,,,,0,,,57,30
25380,note_on,,,,,1,0,2,,,,,0,,,50,30
25439,note_on,,,,,0,0,2,,,,,0,,,50,0
25439,note_on,,,,,59,0,2,,,,,0,,,60,0
25439,note_on,,,,,59,0,1,,,,,0,,,66,0
25439,note_on,,,,,0,0,1,,,,,0,,,74,0
25439,note_on,,,,,0,0,2,,,,,0,,,57,0
25440,note_on,,,,,0,0,2,,,,,0,,,59,27
25440,note_on,,,,,0,0,1,,,,,0,,,67,30
25440,note_on,,,,,1,0,1,,,,,0,,,74,30
25440,note_on,,,,,1,0,2,,,,,0,,,55,27
25460,set_tempo,,,,,140,1,0,,397350,,,,,,,
25520,set_tempo,,,,,60,1,0,,400000,,,,,,,
25740,note_on,,,,,300,0,1,,,,,0,,,74,0
25740,note_on,,,,,0,0,1,,,,,0,,,76,34
25800,note_on,,,,,60,0,1,,,,,0,,,76,0
25800,note_on,,,,,0,0,1,,,,,0,,,78,41
25860,note_on,,,,,0,0,1,,,,,0,,,79,42
25860,note_on,,,,,60,0,1,,,,,0,,,78,0
25920,note_on,,,,,0,0,1,,,,,0,,,79,46
25920,note_on,,,,,60,0,1,,,,,0,,,79,0
26150,set_tempo,,,,,630,1,0,,394736,,,,,,,
26230,set_tempo,,,,,80,1,0,,418118,,,,,,,
26250,note_on,,,,,330,0,1,,,,,0,,,79,0
26280,note_on,,,,,0,0,2,,,,,0,,,55,0
26280,note_on,,,,,30,0,1,,,,,0,,,67,0
26280,note_on,,,,,840,0,2,,,,,0,,,59,0
26280,note_on,,,,,0,0,1,,,,,0,,,77,42
26280,set_tempo,,,,,50,1,0,,431654,,,,,,,
26290,set_tempo,,,,,10,1,0,,437956,,,,,,,
26360,set_tempo,,,,,70,1,0,,472440,,,,,,,
26390,note_on,,,,,110,0,1,,,,,0,,,77,0
26400,note_on,,,,,10,0,1,,,,,0,,,74,38
26410,set_tempo,,,,,50,1,0,,487804,,,,,,,
26510,note_on,,,,,110,0,1,,,,,0,,,74,0
26520,note_on,,,,,10,0,1,,,,,0,,,71,38
26560,set_tempo,,,,,150,1,0,,506329,,,,,,,
26630,note_on,,,,,110,0,1,,,,,0,,,71,0
26640,note_on,,,,,360,0,2,,,,,0,,,43,33
26640,control_change,,,,,0,0,1,,,,,0,64,95,,
26640,note_on,,,,,10,0,1,,,,,0,,,67,41
26700,note_on,,,,,0,0,1,,,,,0,,,69,39
26700,note_on,,,,,60,0,1,,,,,0,,,67,0
26720,set_tempo,,,,,160,1,0,,524017,,,,,,,
26755,control_change,,,,,55,0,1,,,,,0,64,0,,
26760,note_on,,,,,0,0,2,,,,,0,,,45,32
26760,note_on,,,,,120,0,2,,,,,0,,,43,0
26760,note_on,,,,,5,0,1,,,,,0,,,69,0
26760,note_on,,,,,0,0,1,,,,,0,,,65,37
26760,control_change,,,,,0,0,1,,,,,0,64,95,,
26790,set_tempo,,,,,70,1,0,,566037,,,,,,,
26800,set_tempo,,,,,10,1,0,,574162,,,,,,,
26810,set_tempo,,,,,10,1,0,,582524,,,,,,,
26820,set_tempo,,,,,10,1,0,,585365,,,,,,,
26820,note_on,,,,,60,0,1,,,,,0,,,65,0
26820,note_on,,,,,0,0,1,,,,,0,,,67,35
26820,note_on,,,,,0,0,2,,,,,0,,,47,28
26820,note_on,,,,,60,0,2,,,,,0,,,45,0
26820,control_change,,,,,0,0,1,,,,,0,64,0,,
26860,set_tempo,,,,,40,1,0,,869565,,,,,,,
26870,set_tempo,,,,,10,1,0,,882352,,,,,,,
26877,note_on,,,,,57,0,1,,,,,0,,,67,0
26880,note_on,,,,,0,0,2,,,,,0,,,48,31
26880,control_change,,,,,0,0,1,,,,,0,64,95,,
26880,note_on,,,,,3,0,1,,,,,0,,,64,42
26880,set_tempo,,,,,10,1,0,,869565,,,,,,,
26880,marker,,,,,0,1,0,,,,,,,,,
26880,note_on,,,,,60,0,2,,,,,0,,,47,0
26890,set_tempo,,,,,10,1,0,,759493,,,,,,,
26900,set_tempo,,,,,10,1,0,,582524,,,,,,,
26910,set_tempo,,,,,10,1,0,,571428,,,,,,,
26920,set_tempo,,,,,10,1,0,,555555,,,,,,,
26930,set_tempo,,,,,10,1,0,,530973,,,,,,,
26934,note_on,,,,,54,0,1,,,,,0,,,64,0
26940,set_tempo,,,,,10,1,0,,512820,,,,,,,
26940,note_on,,,,,60,0,2,,,,,0,,,48,0
26940,note_on,,,,,6,0,1,,,,,0,,,67,39
26960,set_tempo,,,,,20,1,0,,476190,,,,,,,
26990,set_tempo,,,,,30,1,0,,442804,,,,,,,
26994,note_on,,,,,54,0,1,,,,,0,,,67,0
27000,control_change,,,,,0,0,1,,,,,0,64,0,,
27000,note_on,,,,,6,0,1,,,,,0,,,65,35
27000,note_on,,,,,60,0,2,,,,,0,,,60,35
27000,note_on,,,,,0,0,2,,,,,0,,,55,35
27020,set_tempo,,,,,30,1,0,,436363,,,,,,,
27030,set_tempo,,,,,10,1,0,,427046,,,,,,,
27054,note_on,,,,,54,0,1,,,,,0,,,65,0
27060,note_on,,,,,6,0,1,,,,,0,,,64,32
27060,note_on,,,,,60,0,2,,,,,0,,,55,0
27060,note_on,,,,,0,0,2,,,,,0,,,60,0
27090,set_tempo,,,,,60,1,0,,412371,,,,,,,
27114,note_on,,,,,54,0,1,,,,,0,,,64,0
27120,note_on,,,,,0,0,2,,,,,0,,,57,36
27120,note_on,,,,,6,0,1,,,,,0,,,65,41
27120,note_on,,,,,60,0,2,,,,,0,,,60,36
27174,note_on,,,,,54,0,1,,,,,0,,,65,0
27180,note_on,,,,,6,0,1,,,,,0,,,69,33
27180,note_on,,,,,60,0,2,,,,,0,,,57,0
27180,note_on,,,,,0,0,2,,,,,0,,,60,0
27180,set_tempo,,,,,90,1,0,,390879,,,,,,,
27234,note_on,,,,,54,0,1,,,,,0,,,69,0
27240,note_on,,,,,60,0,2,,,,,0,,,48,35
27240,note_on,,,,,6,0,1,,,,,0,,,67,38
27260,set_tempo,,,,,80,1,0,,384615,,,,,,,
27270,set_tempo,,,,,10,1,0,,383386,,,,,,,
27285,note_on,,,,,45,0,2,,,,,0,,,48,0
27294,note_on,,,,,54,0,1,,,,,0,,,67,0
27300,note_on,,,,,15,0,2,,,,,0,,,48,38
27300,note_on,,,,,6,0,1,,,,,0,,,65,41
27345,note_on,,,,,45,0,2,,,,,0,,,48,0
27350,set_tempo,,,,,80,1,0,,431654,,,,,,,
27354,note_on,,,,,54,0,1,,,,,0,,,65,0
27360,note_on,,,,,15,0,2,,,,,0,,,48,39
27360,note_on,,,,,6,0,1,,,,,0,,,64,45
27360,control_change,,,,,0,0,1,,,,,0,64,95,,
27410,set_tempo,,,,,60,1,0,,375000,,,,,,,
27414,note_on,,,,,54,0,1,,,,,0,,,64,0
27420,note_on,,,,,6,0,1,,,,,0,,,67,39
27420,note_on,,,,,60,0,2,,,,,0,,,48,0
27474,note_on,,,,,54,0,1,,,,,0,,,67,0
27480,note_on,,,,,0,0,2,,,,,0,,,55,37
27480,note_on,,,,,60,0,2,,,,,0,,,60,37
27480,control_change,,,,,0,0,1,,,,,0,64,0,,
27480,note_on,,,,,6,0,1,,,,,0,,,72,43
27534,note_on,,,,,54,0,1,,,,,0,,,72,0
27540,note_on,,,,,60,0,2,,,,,0,,,55,0
27540,note_on,,,,,0,0,2,,,,,0,,,60,0
27540,note_on,,,,,6,0,1,,,,,0,,,76,46
27594,note_on,,,,,54,0,1,,,,,0,,,76,0
27600,note_on,,,,,60,0,2,,,,,0,,,64,40
27600,note_on,,,,,0,0,2,,,,,0,,,60,40
27600,note_on,,,,,6,0,1,,,,,0,,,79,47
27630,set_tempo,,,,,220,1,0,,370370,,,,,,,
27640,set_tempo,,,,,10,1,0,,368098,,,,,,,
27660,note_on,,,,,0,0,1,,,,,0,,,81,42
27660,note_on,,,,,60,0,2,,,,,0,,,60,0
27660,note_on,,,,,0,0,2,,,,,0,,,64,0
27660,note_on,,,,,60,0,1,,,,,0,,,79,0
27710,note_on,,,,,50,0,1,,,,,0,,,81,0
27710,set_tempo,,,,,70,1,0,,365853,,,,,,,
27720,note_on,,,,,10,0,1,,,,,0,,,79,38
27720,note_on,,,,,60,0,2,,,,,0,,,48,36
27765,note_on,,,,,45,0,2,,,,,0,,,48,0
27765,note_on,,,,,45,0,1,,,,,0,,,79,0
27780,note_on,,,,,15,0,1,,,,,0,,,76,35
27780,note_on,,,,,15,0,2,,,,,0,,,48,40
27790,set_tempo,,,,,80,1,0,,363636,,,,,,,
27825,note_on,,,,,45,0,1,,,,,0,,,76,0
27825,note_on,,,,,45,0,2,,,,,0,,,48,0
27840,control_change,,,,,0,0,1,,,,,0,64,95,,
27840,note_on,,,,,15,0,1,,,,,0,,,77,47
27840,note_on,,,,,15,0,2,,,,,0,,,47,42
27850,set_tempo,,,,,60,1,0,,394736,,,,,,,
27900,note_on,,,,,60,0,2,,,,,0,,,47,0
27900,note_on,,,,,0,0,1,,,,,0,,,79,40
27900,set_tempo,,,,,50,1,0,,359281,,,,,,,
27900,note_on,,,,,60,0,1,,,,,0,,,77,0
27920,set_tempo,,,,,20,1,0,,357142,,,,,,,
27950,note_on,,,,,50,0,1,,,,,0,,,79,0
27960,note_on,,,,,60,0,2,,,,,0,,,65,37
27960,note_on,,,,,0,0,2,,,,,0,,,62,37
27960,note_on,,,,,0,0,2,,,,,0,,,55,37
27960,control_change,,,,,0,0,1,,,,,0,64,0,,
27960,note_on,,,,,10,0,1,,,,,0,,,77,43
28014,note_on,,,,,54,0,1,,,,,0,,,77,0
28020,set_tempo,,,,,100,1,0,,355029,,,,,,,
28020,note_on,,,,,6,0,1,,,,,0,,,86,46
28020,note_on,,,,,60,0,2,,,,,0,,,55,0
28020,note_on,,,,,0,0,2,,,,,0,,,65,0
28020,note_on,,,,,0,0,2,,,,,0,,,62,0
28050,set_tempo,,,,,30,1,0,,352941,,,,,,,
28074,note_on,,,,,54,0,1,,,,,0,,,86,0
28080,note_on,,,,,6,0,1,,,,,0,,,76,47
28080,control_change,,,,,0,0,1,,,,,0,64,95,,
28080,set_tempo,,,,,30,1,0,,387096,,,,,,,
28080,note_on,,,,,60,0,2,,,,,0,,,48,43
28140,set_tempo,,,,,60,1,0,,348837,,,,,,,
28140,note_on,,,,,0,0,1,,,,,0,,,77,41
28140,note_on,,,,,60,0,2,,,,,0,,,48,0
28140,note_on,,,,,60,0,1,,,,,0,,,76,0
28190,note_on,,,,,50,0,1,,,,,0,,,77,0
28200,note_on,,,,,0,0,2,,,,,0,,,60,41
28200,note_on,,,,,10,0,1,,,,,0,,,76,44
28200,control_change,,,,,0,0,1,,,,,0,64,0,,
28200,note_on,,,,,60,0,2,,,,,0,,,64,41
28200,note_on,,,,,0,0,2,,,,,0,,,55,41
28220,set_tempo,,,,,80,1,0,,349854,,,,,,,
28254,note_on,,,,,54,0,1,,,,,0,,,76,0
28260,note_on,,,,,60,0,2,,,,,0,,,55,0
28260,note_on,,,,,0,0,2,,,,,0,,,60,0
28260,note_on,,,,,0,0,2,,,,,0,,,64,0
28260,note_on,,,,,6,0,1,,,,,0,,,84,47
28290,set_tempo,,,,,70,1,0,,350877,,,,,,,
28314,note_on,,,,,54,0,1,,,,,0,,,84,0
28320,note_on,,,,,6,0,1,,,,,0,,,83,51
28320,note_on,,,,,60,0,2,,,,,0,,,43,46
28320,set_tempo,,,,,30,1,0,,356083,,,,,,,
28320,control_change,,,,,0,0,1,,,,,0,64,96,,
28374,note_on,,,,,54,0,1,,,,,0,,,83,0
28380,note_on,,,,,6,0,1,,,,,0,,,79,49
28380,note_on,,,,,60,0,2,,,,,0,,,43,0
28430,set_tempo,,,,,110,1,0,,360360,,,,,,,
28434,note_on,,,,,54,0,1,,,,,0,,,79,0
28440,control_change,,,,,0,0,1,,,,,0,64,0,,
28440,note_on,,,,,0,0,2,,,,,0,,,55,39
28440,note_on,,,,,6,0,1,,,,,0,,,74,46
28440,note_on,,,,,0,0,2,,,,,0,,,59,39
28440,note_on,,,,,60,0,2,,,,,0,,,62,39
28440,set_tempo,,,,,10,1,0,,361445,,,,,,,
28485,note_on,,,,,0,0,2,,,,,0,,,62,0
28485,note_on,,,,,0,0,2,,,,,0,,,59,0
28485,note_on,,,,,45,0,2,,,,,0,,,55,0
28490,set_tempo,,,,,50,1,0,,375000,,,,,,,
28494,note_on,,,,,54,0,1,,,,,0,,,74,0
28500,note_on,,,,,0,0,2,,,,,0,,,59,37
28500,note_on,,,,,6,0,1,,,,,0,,,71,45
28500,note_on,,,,,15,0,2,,,,,0,,,62,37
28500,note_on,,,,,0,0,2,,,,,0,,,55,37
28530,set_tempo,,,,,40,1,0,,387096,,,,,,,
28545,note_on,,,,,45,0,2,,,,,0,,,55,0
28545,note_on,,,,,0,0,2,,,,,0,,,59,0
28545,note_on,,,,,0,0,2,,,,,0,,,62,0
28554,note_on,,,,,54,0,1,,,,,0,,,71,0
28560,note_on,,,,,6,0,1,,,,,0,,,67,49
28560,note_on,,,,,0,0,2,,,,,0,,,55,34
28560,note_on,,,,,0,0,2,,,,,0,,,59,34
28560,note_on,,,,,15,0,2,,,,,0,,,62,34
28570,set_tempo,,,,,40,1,0,,404040,,,,,,,
28620,note_on,,,,,60,0,1,,,,,0,,,67,0
28620,note_on,,,,,0,0,1,,,,,0,,,69,43
28627,note_on,,,,,0,0,2,,,,,0,,,59,0
28627,note_on,,,,,0,0,2,,,,,0,,,62,0
28627,note_on,,,,,67,0,2,,,,,0,,,55,0
28670,set_tempo,,,,,100,1,0,,412371,,,,,,,
28674,note_on,,,,,54,0,1,,,,,0,,,69,0
28680,note_on,,,,,53,0,2,,,,,0,,,43,33
28680,control_change,,,,,0,0,1,,,,,0,64,94,,
28680,note_on,,,,,6,0,1,,,,,0,,,65,38
28730,set_tempo,,,,,60,1,0,,424028,,,,,,,
28734,note_on,,,,,54,0,1,,,,,0,,,65,0
28740,note_on,,,,,60,0,2,,,,,0,,,43,0
28740,set_tempo,,,,,10,1,0,,425531,,,,,,,
28740,note_on,,,,,0,0,2,,,,,0,,,47,41
28740,note_on,,,,,6,0,1,,,,,0,,,67,33
28790,set_tempo,,,,,50,1,0,,424028,,,,,,,
28794,note_on,,,,,54,0,1,,,,,0,,,67,0
28795,control_change,,,,,1,0,1,,,,,0,64,0,,
28800,note_on,,,,,60,0,2,,,,,0,,,47,0
28800,note_on,,,,,5,0,1,,,,,0,,,64,42
28800,control_change,,,,,0,0,1,,,,,0,64,95,,
28800,note_on,,,,,0,0,2,,,,,0,,,48,31
28820,set_tempo,,,,,30,1,0,,413793,,,,,,,
28850,set_tempo,,,,,30,1,0,,400000,,,,,,,
28854,note_on,,,,,54,0,1,,,,,0,,,64,0
28860,note_on,,,,,6,0,1,,,,,0,,,67,39
28860,note_on,,,,,60,0,2,,,,,0,,,48,0
28900,set_tempo,,,,,50,1,0,,385852,,,,,,,
28910,set_tempo,,,,,10,1,0,,384615,,,,,,,
28914,note_on,,,,,54,0,1,,,,,0,,,67,0
28920,note_on,,,,,60,0,2,,,,,0,,,60,35
28920,note_on,,,,,0,0,2,,,,,0,,,55,35
28920,note_on,,,,,6,0,1,,,,,0,,,65,35
28920,control_change,,,,,0,0,1,,,,,0,64,0,,
28940,set_tempo,,,,,30,1,0,,378548,,,,,,,
28974,note_on,,,,,54,0,1,,,,,0,,,65,0
28980,note_on,,,,,60,0,2,,,,,0,,,55,0
28980,note_on,,,,,0,0,2,,,,,0,,,60,0
28980,note_on,,,,,6,0,1,,,,,0,,,64,32
28990,set_tempo,,,,,50,1,0,,373831,,,,,,,
29034,note_on,,,,,54,0,1,,,,,0,,,64,0
29040,note_on,,,,,60,0,2,,,,,0,,,60,36
29040,note_on,,,,,0,0,2,,,,,0,,,57,36
29040,note_on,,,,,6,0,1,,,,,0,,,65,41
29070,set_tempo,,,,,80,1,0,,372670,,,,,,,
29094,note_on,,,,,54,0,1,,,,,0,,,65,0
29100,note_on,,,,,6,0,1,,,,,0,,,69,33
29100,note_on,,,,,60,0,2,,,,,0,,,57,0
29100,note_on,,,,,0,0,2,,,,,0,,,60,0
29154,note_on,,,,,54,0,1,,,,,0,,,69,0
29160,note_on,,,,,60,0,2,,,,,0,,,48,35
29160,note_on,,,,,6,0,1,,,,,0,,,67,38
29200,set_tempo,,,,,130,1,0,,389610,,,,,,,
29205,note_on,,,,,45,0,2,,,,,0,,,48,0
29210,set_tempo,,,,,10,1,0,,387096,,,,,,,
29214,note_on,,,,,54,0,1,,,,,0,,,67,0
29220,set_tempo,,,,,10,1,0,,384615,,,,,,,
29220,note_on,,,,,15,0,2,,,,,0,,,48,38
29220,note_on,,,,,6,0,1,,,,,0,,,65,41
29265,note_on,,,,,45,0,2,,,,,0,,,48,0
29270,set_tempo,,,,,50,1,0,,431654,,,,,,,
29274,note_on,,,,,54,0,1,,,,,0,,,65,0
29280,note_on,,,,,15,0,2,,,,,0,,,48,39
29280,note_on,,,,,6,0,1,,,,,0,,,64,45
29280,control_change,,,,,0,0,1,,,,,0,64,95,,
29330,set_tempo,,,,,60,1,0,,375000,,,,,,,
29334,note_on,,,,,54,0,1,,,,,0,,,64,0
29340,note_on,,,,,6,0,1,,,,,0,,,67,39
29340,note_on,,,,,60,0,2,,,,,0,,,48,0
29394,note_on,,,,,54,0,1,,,,,0,,,67,0
29400,note_on,,,,,60,0,2,,,,,0,,,60,37
29400,note_on,,,,,0,0,2,,,,,0,,,55,37
29400,control_change,,,,,0,0,1,,,,,0,64,0,,
29400,note_on,,,,,6,0,1,,,,,0,,,72,43
29454,note_on,,,,,54,0,1,,,,,0,,,72,0
29460,note_on,,,,,60,0,2,,,,,0,,,55,0
29460,note_on,,,,,0,0,2,,,,,0,,,60,0
29460,note_on,,,,,6,0,1,,,,,0,,,76,46
29514,note_on,,,,,54,0,1,,,,,0,,,76,0
29520,note_on,,,,,60,0,2,,,,,0,,,64,40
29520,note_on,,,,,6,0,1,,,,,0,,,79,47
29520,note_on,,,,,0,0,2,,,,,0,,,60,40
29550,set_tempo,,,,,220,1,0,,370370,,,,,,,
29560,set_tempo,,,,,10,1,0,,368098,,,,,,,
29580,note_on,,,,,0,0,1,,,,,0,,,81,42
29580,note_on,,,,,0,0,2,,,,,0,,,64,0
29580,note_on,,,,,60,0,2,,,,,0,,,60,0
29580,note_on,,,,,60,0,1,,,,,0,,,79,0
29630,set_tempo,,,,,70,1,0,,365853,,,,,,,
29630,note_on,,,,,50,0,1,,,,,0,,,81,0
29640,note_on,,,,,60,0,2,,,,,0,,,48,36
29640,note_on,,,,,10,0,1,,,,,0,,,79,38
29685,note_on,,,,,45,0,1,,,,,0,,,79,0
29685,note_on,,,,,45,0,2,,,,,0,,,48,0
29700,note_on,,,,,15,0,1,,,,,0,,,76,35
29700,note_on,,,,,15,0,2,,,,,0,,,48,40
29710,set_tempo,,,,,80,1,0,,363636,,,,,,,
29740,set_tempo,,,,,30,1,0,,346820,,,,,,,
29745,note_on,,,,,45,0,1,,,,,0,,,76,0
29745,note_on,,,,,45,0,2,,,,,0,,,48,0
29760,set_tempo,,,,,20,1,0,,431654,,,,,,,
29760,control_change,,,,,0,0,1,,,,,0,64,95,,
29760,note_on,,,,,15,0,1,,,,,0,,,67,45
29760,note_on,,,,,15,0,2,,,,,0,,,53,39
29810,set_tempo,,,,,50,1,0,,375000,,,,,,,
29814,note_on,,,,,54,0,1,,,,,0,,,67,0
29820,note_on,,,,,60,0,2,,,,,0,,,53,0
29820,note_on,,,,,6,0,1,,,,,0,,,71,39
29874,note_on,,,,,54,0,1,,,,,0,,,71,0
29880,note_on,,,,,60,0,2,,,,,0,,,62,37
29880,note_on,,,,,0,0,2,,,,,0,,,59,37
29880,control_change,,,,,0,0,1,,,,,0,64,0,,
29880,note_on,,,,,6,0,1,,,,,0,,,74,43
29934,note_on,,,,,54,0,1,,,,,0,,,74,0
29940,note_on,,,,,0,0,2,,,,,0,,,62,0
29940,note_on,,,,,60,0,2,,,,,0,,,59,0
29940,note_on,,,,,6,0,1,,,,,0,,,79,46
29994,note_on,,,,,54,0,1,,,,,0,,,79,0
30000,note_on,,,,,60,0,2,,,,,0,,,67,40
30000,note_on,,,,,0,0,2,,,,,0,,,62,40
30000,note_on,,,,,6,0,1,,,,,0,,,83,47
30030,set_tempo,,,,,220,1,0,,370370,,,,,,,
30040,set_tempo,,,,,10,1,0,,368098,,,,,,,
30060,note_on,,,,,60,0,2,,,,,0,,,62,0
30060,note_on,,,,,0,0,2,,,,,0,,,67,0
30060,note_on,,,,,0,0,1,,,,,0,,,84,42
30060,note_on,,,,,60,0,1,,,,,0,,,83,0
30110,note_on,,,,,50,0,1,,,,,0,,,84,0
30110,set_tempo,,,,,70,1,0,,365853,,,,,,,
30120,note_on,,,,,10,0,1,,,,,0,,,83,38
30120,note_on,,,,,60,0,2,,,,,0,,,53,36
30165,note_on,,,,,45,0,1,,,,,0,,,83,0
30165,note_on,,,,,45,0,2,,,,,0,,,53,0
30180,note_on,,,,,15,0,1,,,,,0,,,81,35
30180,note_on,,,,,15,0,2,,,,,0,,,53,40
30190,set_tempo,,,,,80,1,0,,363636,,,,,,,
30220,set_tempo,,,,,30,1,0,,346820,,,,,,,
30225,note_on,,,,,45,0,2,,,,,0,,,53,0
30225,note_on,,,,,45,0,1,,,,,0,,,81,0
30240,set_tempo,,,,,20,1,0,,363636,,,,,,,
30240,note_on,,,,,15,0,2,,,,,0,,,52,42
30240,note_on,,,,,15,0,1,,,,,0,,,79,47
30240,control_change,,,,,0,0,1,,,,,0,64,95,,
30250,set_tempo,,,,,10,1,0,,394736,,,,,,,
30300,note_on,,,,,0,0,1,,,,,0,,,81,40
30300,note_on,,,,,60,0,1,,,,,0,,,79,0
30300,set_tempo,,,,,50,1,0,,359281,,,,,,,
30300,note_on,,,,,60,0,2,,,,,0,,,52,0
30330,set_tempo,,,,,30,1,0,,357142,,,,,,,
30350,set_tempo,,,,,20,1,0,,357142,,,,,,,
30350,note_on,,,,,50,0,1,,,,,0,,,81,0
30360,note_on,,,,,10,0,1,,,,,0,,,79,44
30360,control_change,,,,,0,0,1,,,,,0,64,0,,
30360,note_on,,,,,60,0,2,,,,,0,,,67,39
30360,note_on,,,,,0,0,2,,,,,0,,,64,39
30405,note_on,,,,,45,0,2,,,,,0,,,64,0
30405,note_on,,,,,0,0,2,,,,,0,,,67,0
30414,note_on,,,,,54,0,1,,,,,0,,,79,0
30420,set_tempo,,,,,70,1,0,,355029,,,,,,,
30420,note_on,,,,,6,0,1,,,,,0,,,88,49
30420,note_on,,,,,0,0,2,,,,,0,,,64,45
30420,note_on,,,,,15,0,2,,,,,0,,,67,45
30450,set_tempo,,,,,30,1,0,,352941,,,,,,,
30465,note_on,,,,,45,0,2,,,,,0,,,64,0
30465,note_on,,,,,0,0,2,,,,,0,,,67,0
30474,note_on,,,,,54,0,1,,,,,0,,,88,0
30480,note_on,,,,,6,0,1,,,,,0,,,77,53
30480,control_change,,,,,0,0,1,,,,,0,64,95,,
30480,set_tempo,,,,,30,1,0,,387096,,,,,,,
30480,note_on,,,,,15,0,2,,,,,0,,,53,50
30540,note_on,,,,,0,0,1,,,,,0,,,79,49
30540,note_on,,,,,60,0,1,,,,,0,,,77,0
30540,note_on,,,,,60,0,2,,,,,0,,,53,0
30540,set_tempo,,,,,60,1,0,,348837,,,,,,,
30560,set_tempo,,,,,20,1,0,,350877,,,,,,,
30590,note_on,,,,,50,0,1,,,,,0,,,79,0
30600,note_on,,,,,10,0,1,,,,,0,,,77,54
30600,note_on,,,,,60,0,2,,,,,0,,,65,44
30600,note_on,,,,,0,0,2,,,,,0,,,62,44
30600,control_change,,,,,0,0,1,,,,,0,64,0,,
30610,set_tempo,,,,,50,1,0,,348837,,,,,,,
30645,note_on,,,,,45,0,2,,,,,0,,,62,0
30645,note_on,,,,,0,0,2,,,,,0,,,65,0
30654,note_on,,,,,54,0,1,,,,,0,,,77,0
30660,note_on,,,,,6,0,1,,,,,0,,,86,58
30660,note_on,,,,,15,0,2,,,,,0,,,65,50
30660,note_on,,,,,0,0,2,,,,,0,,,62,50
30705,note_on,,,,,45,0,2,,,,,0,,,62,0
30705,note_on,,,,,0,0,2,,,,,0,,,65,0
30714,note_on,,,,,54,0,1,,,,,0,,,86,0
30720,note_on,,,,,15,0,2,,,,,0,,,55,53
30720,note_on,,,,,6,0,1,,,,,0,,,76,62
30720,control_change,,,,,0,0,1,,,,,0,64,95,,
30770,set_tempo,,,,,160,1,0,,350877,,,,,,,
30780,note_on,,,,,0,0,1,,,,,0,,,77,57
30780,note_on,,,,,60,0,1,,,,,0,,,76,0
30780,note_on,,,,,60,0,2,,,,,0,,,55,0
30790,set_tempo,,,,,20,1,0,,350877,,,,,,,
30830,note_on,,,,,50,0,1,,,,,0,,,77,0
30840,control_change,,,,,0,0,1,,,,,0,64,0,,
30840,note_on,,,,,0,0,2,,,,,0,,,60,52
30840,note_on,,,,,60,0,2,,,,,0,,,64,52
30840,note_on,,,,,10,0,1,,,,,0,,,76,61
30850,set_tempo,,,,,60,1,0,,356083,,,,,,,
30885,note_on,,,,,45,0,2,,,,,0,,,60,0
30885,note_on,,,,,0,0,2,,,,,0,,,64,0
30890,set_tempo,,,,,40,1,0,,357142,,,,,,,
30894,note_on,,,,,54,0,1,,,,,0,,,76,0
30900,note_on,,,,,0,0,2,,,,,0,,,60,56
30900,set_tempo,,,,,10,1,0,,362537,,,,,,,
30900,note_on,,,,,15,0,2,,,,,0,,,64,56
30900,note_on,,,,,6,0,1,,,,,0,,,84,63
30920,set_tempo,,,,,20,1,0,,363636,,,,,,,
30945,note_on,,,,,0,0,2,,,,,0,,,64,0
30945,note_on,,,,,45,0,2,,,,,0,,,60,0
30950,set_tempo,,,,,30,1,0,,375000,,,,,,,
30954,note_on,,,,,54,0,1,,,,,0,,,84,0
30960,note_on,,,,,15,0,2,,,,,0,,,53,61
30960,control_change,,,,,0,0,1,,,,,0,64,95,,
30960,note_on,,,,,6,0,1,,,,,0,,,83,67
30970,set_tempo,,,,,20,1,0,,376175,,,,,,,
31010,set_tempo,,,,,40,1,0,,379746,,,,,,,
31020,note_on,,,,,60,0,1,,,,,0,,,83,0
31020,note_on,,,,,0,0,1,,,,,0,,,81,59
31030,set_tempo,,,,,20,1,0,,380952,,,,,,,
31032,note_on,,,,,72,0,2,,,,,0,,,53,0
31070,set_tempo,,,,,40,1,0,,385852,,,,,,,
31074,note_on,,,,,54,0,1,,,,,0,,,81,0
31075,control_change,,,,,1,0,1,,,,,0,64,0,,
31080,note_on,,,,,5,0,1,,,,,0,,,77,54
31080,note_on,,,,,0,0,2,,,,,0,,,57,53
31080,note_on,,,,,0,0,2,,,,,0,,,60,53
31080,note_on,,,,,48,0,2,,,,,0,,,62,53
31120,set_tempo,,,,,50,1,0,,390879,,,,,,,
31128,note_on,,,,,48,0,1,,,,,0,,,77,0
31140,note_on,,,,,12,0,1,,,,,0,,,74,50
31147,note_on,,,,,67,0,2,,,,,0,,,57,0
31147,note_on,,,,,0,0,2,,,,,0,,,60,0
31147,note_on,,,,,0,0,2,,,,,0,,,62,0
31188,note_on,,,,,48,0,1,,,,,0,,,74,0
31200,note_on,,,,,12,0,1,,,,,0,,,72,42
31200,note_on,,,,,53,0,2,,,,,0,,,52,50
31200,control_change,,,,,0,0,1,,,,,0,64,95,,
31230,set_tempo,,,,,110,1,0,,400000,,,,,,,
31240,set_tempo,,,,,10,1,0,,404040,,,,,,,
31260,note_on,,,,,60,0,1,,,,,0,,,72,0
31260,note_on,,,,,0,0,1,,,,,0,,,74,46
31270,set_tempo,,,,,30,1,0,,413793,,,,,,,
31272,note_on,,,,,72,0,2,,,,,0,,,52,0
31310,set_tempo,,,,,40,1,0,,425531,,,,,,,
31314,note_on,,,,,54,0,1,,,,,0,,,74,0
31315,control_change,,,,,1,0,1,,,,,0,64,0,,
31320,note_on,,,,,0,0,2,,,,,0,,,57,50
31320,note_on,,,,,0,0,2,,,,,0,,,60,50
31320,control_change,,,,,0,0,1,,,,,0,64,95,,
31320,note_on,,,,,48,0,2,,,,,0,,,64,50
31320,note_on,,,,,5,0,1,,,,,0,,,76,49
31320,set_tempo,,,,,10,1,0,,425531,,,,,,,
31380,note_on,,,,,60,0,1,,,,,0,,,76,0
31380,note_on,,,,,0,0,1,,,,,0,,,75,52
31440,note_on,,,,,60,0,1,,,,,0,,,75,0
31440,note_on,,,,,0,0,1,,,,,0,,,76,54
31500,note_on,,,,,0,0,1,,,,,0,,,77,53
31500,note_on,,,,,60,0,1,,,,,0,,,76,0
31560,note_on,,,,,60,0,1,,,,,0,,,77,0
31560,note_on,,,,,0,0,1,,,,,0,,,76,48
31560,note_on,,,,,0,0,2,,,,,0,,,56,35
31560,note_on,,,,,0,0,2,,,,,0,,,59,35
31560,note_on,,,,,0,0,2,,,,,0,,,64,35
31560,note_on,,,,,0,0,2,,,,,0,,,60,0
31560,note_on,,,,,240,0,2,,,,,0,,,57,0
31620,note_on,,,,,60,0,1,,,,,0,,,76,0
31620,note_on,,,,,0,0,1,,,,,0,,,75,40
31627,note_on,,,,,0,0,2,,,,,0,,,64,0
31627,note_on,,,,,0,0,2,,,,,0,,,59,0
31627,note_on,,,,,67,0,2,,,,,0,,,56,0
31650,set_tempo,,,,,330,1,0,,419580,,,,,,,
31665,control_change,,,,,0,0,1,,,,,0,64,0,,
31665,note_on,,,,,45,0,1,,,,,0,,,75,0
31680,note_on,,,,,0,0,2,,,,,0,,,48,49
31680,note_on,,,,,15,0,1,,,,,0,,,76,40
31680,note_on,,,,,53,0,2,,,,,0,,,64,0
31680,control_change,,,,,0,0,1,,,,,0,64,95,,
31720,set_tempo,,,,,70,1,0,,400000,,,,,,,
31740,note_on,,,,,60,0,2,,,,,0,,,48,0
31740,note_on,,,,,0,0,1,,,,,0,,,77,41
31740,note_on,,,,,60,0,1,,,,,0,,,76,0
31750,set_tempo,,,,,30,1,0,,398671,,,,,,,
31780,set_tempo,,,,,30,1,0,,392156,,,,,,,
31790,note_on,,,,,50,0,1,,,,,0,,,77,0
31800,note_on,,,,,60,0,2,,,,,0,,,67,42
31800,note_on,,,,,0,0,2,,,,,0,,,60,42
31800,note_on,,,,,0,0,2,,,,,0,,,64,42
31800,note_on,,,,,10,0,1,,,,,0,,,76,42
31800,control_change,,,,,0,0,1,,,,,0,64,0,,
31830,set_tempo,,,,,50,1,0,,384615,,,,,,,
31845,note_on,,,,,0,0,2,,,,,0,,,67,0
31845,note_on,,,,,45,0,2,,,,,0,,,60,0
31845,note_on,,,,,0,0,2,,,,,0,,,64,0
31854,note_on,,,,,54,0,1,,,,,0,,,76,0
31860,note_on,,,,,6,0,1,,,,,0,,,84,44
31860,note_on,,,,,15,0,2,,,,,0,,,67,45
31860,note_on,,,,,0,0,2,,,,,0,,,64,45
31860,note_on,,,,,0,0,2,,,,,0,,,60,45
31905,note_on,,,,,0,0,2,,,,,0,,,67,0
31905,note_on,,,,,45,0,2,,,,,0,,,60,0
31905,note_on,,,,,0,0,2,,,,,0,,,64,0
31910,set_tempo,,,,,80,1,0,,375000,,,,,,,
31914,note_on,,,,,54,0,1,,,,,0,,,84,0
31920,note_on,,,,,6,0,1,,,,,0,,,83,47
31920,control_change,,,,,0,0,1,,,,,0,64,95,,
31920,note_on,,,,,15,0,2,,,,,0,,,53,50
31980,note_on,,,,,0,0,1,,,,,0,,,81,44
31980,note_on,,,,,60,0,1,,,,,0,,,83,0
31980,set_tempo,,,,,70,1,0,,363636,,,,,,,
31992,note_on,,,,,72,0,2,,,,,0,,,53,0
32034,note_on,,,,,54,0,1,,,,,0,,,81,0
32035,control_change,,,,,1,0,1,,,,,0,64,0,,
32040,note_on,,,,,0,0,2,,,,,0,,,60,45
32040,note_on,,,,,48,0,2,,,,,0,,,62,45
32040,note_on,,,,,5,0,1,,,,,0,,,77,48
32040,note_on,,,,,0,0,2,,,,,0,,,57,45
32080,set_tempo,,,,,100,1,0,,357142,,,,,,,
32088,note_on,,,,,48,0,1,,,,,0,,,77,0
32100,note_on,,,,,12,0,1,,,,,0,,,74,51
32112,note_on,,,,,0,0,2,,,,,0,,,62,0
32112,note_on,,,,,0,0,2,,,,,0,,,60,0
32112,note_on,,,,,72,0,2,,,,,0,,,57,0
32148,note_on,,,,,48,0,1,,,,,0,,,74,0
32160,note_on,,,,,12,0,1,,,,,0,,,72,66
32160,control_change,,,,,0,0,1,,,,,0,64,95,,
32160,note_on,,,,,48,0,2,,,,,0,,,52,54
32200,set_tempo,,,,,120,1,0,,355029,,,,,,,
32220,note_on,,,,,60,0,2,,,,,0,,,52,0
32220,note_on,,,,,0,0,1,,,,,0,,,74,58
32220,note_on,,,,,60,0,1,,,,,0,,,72,0
32270,note_on,,,,,50,0,1,,,,,0,,,74,0
32280,note_on,,,,,0,0,2,,,,,0,,,64,55
32280,note_on,,,,,60,0,2,,,,,0,,,67,55
32280,note_on,,,,,0,0,2,,,,,0,,,60,55
32280,control_change,,,,,0,0,1,,,,,0,64,0,,
32280,note_on,,,,,10,0,1,,,,,0,,,72,60
32325,note_on,,,,,45,0,2,,,,,0,,,60,0
32325,note_on,,,,,0,0,2,,,,,0,,,64,0
32325,note_on,,,,,0,0,2,,,,,0,,,67,0
32334,note_on,,,,,54,0,1,,,,,0,,,72,0
32340,set_tempo,,,,,140,1,0,,352941,,,,,,,
32340,note_on,,,,,6,0,1,,,,,0,,,88,61
32340,note_on,,,,,15,0,2,,,,,0,,,67,58
32340,note_on,,,,,0,0,2,,,,,0,,,64,58
32340,note_on,,,,,0,0,2,,,,,0,,,60,58
32385,note_on,,,,,0,0,2,,,,,0,,,67,0
32385,note_on,,,,,45,0,2,,,,,0,,,60,0
32385,note_on,,,,,0,0,2,,,,,0,,,64,0
32394,note_on,,,,,54,0,1,,,,,0,,,88,0
32400,control_change,,,,,0,0,1,,,,,0,64,95,,
32400,note_on,,,,,6,0,1,,,,,0,,,86,77
32400,note_on,,,,,15,0,2,,,,,0,,,57,63
32460,note_on,,,,,60,0,1,,,,,0,,,86,0
32460,note_on,,,,,0,0,1,,,,,0,,,84,72
32472,note_on,,,,,72,0,2,,,,,0,,,57,0
32514,note_on,,,,,54,0,1,,,,,0,,,84,0
32515,control_change,,,,,1,0,1,,,,,0,64,0,,
32520,note_on,,,,,48,0,2,,,,,0,,,66,59
32520,note_on,,,,,0,0,2,,,,,0,,,62,59
32520,note_on,,,,,0,0,2,,,,,0,,,60,59
32520,note_on,,,,,5,0,1,,,,,0,,,81,73
32550,set_tempo,,,,,210,1,0,,355029,,,,,,,
32568,note_on,,,,,48,0,1,,,,,0,,,81,0
32580,note_on,,,,,12,0,1,,,,,0,,,78,79
32592,note_on,,,,,72,0,2,,,,,0,,,60,0
32592,note_on,,,,,0,0,2,,,,,0,,,66,0
32592,note_on,,,,,0,0,2,,,,,0,,,62,0
32610,set_tempo,,,,,60,1,0,,359281,,,,,,,
32628,note_on,,,,,48,0,1,,,,,0,,,78,0
32640,note_on,,,,,12,0,1,,,,,0,,,79,81
32641,control_change,,,,,1,0,1,,,,,0,64,95,,
32641,note_on,,,,,49,0,2,,,,,0,,,55,75
32670,set_tempo,,,,,60,1,0,,366972,,,,,,,
32700,note_on,,,,,59,0,1,,,,,0,,,79,0
32700,note_on,,,,,0,0,1,,,,,0,,,81,87
32700,set_tempo,,,,,30,1,0,,368098,,,,,,,
32701,note_on,,,,,60,0,2,,,,,0,,,55,0
32710,set_tempo,,,,,10,1,0,,369230,,,,,,,
32720,set_tempo,,,,,10,1,0,,378548,,,,,,,
32750,note_on,,,,,50,0,1,,,,,0,,,81,0
32760,note_on,,,,,59,0,2,,,,,0,,,67,73
32760,note_on,,,,,10,0,1,,,,,0,,,79,95
32761,control_change,,,,,1,0,1,,,,,0,64,0,,
32761,note_on,,,,,0,0,2,,,,,0,,,60,73
32761,note_on,,,,,1,0,2,,,,,0,,,64,73
32790,set_tempo,,,,,70,1,0,,393442,,,,,,,
32805,note_on,,,,,44,0,2,,,,,0,,,67,0
32806,note_on,,,,,0,0,2,,,,,0,,,64,0
32806,note_on,,,,,1,0,2,,,,,0,,,60,0
32814,note_on,,,,,53,0,1,,,,,0,,,79,0
32820,note_on,,,,,6,0,1,,,,,0,,,91,104
32820,note_on,,,,,14,0,2,,,,,0,,,67,80
32821,note_on,,,,,1,0,2,,,,,0,,,64,80
32821,note_on,,,,,0,0,2,,,,,0,,,60,80
32860,set_tempo,,,,,70,1,0,,392156,,,,,,,
32865,note_on,,,,,44,0,2,,,,,0,,,67,0
32866,note_on,,,,,1,0,2,,,,,0,,,60,0
32866,note_on,,,,,0,0,2,,,,,0,,,64,0
32870,set_tempo,,,,,10,1,0,,404040,,,,,,,
32874,note_on,,,,,54,0,1,,,,,0,,,91,0
32880,note_on,,,,,6,0,1,,,,,0,,,89,107
32880,note_on,,,,,14,0,2,,,,,0,,,55,85
32881,control_change,,,,,1,0,1,,,,,0,64,95,,
32890,set_tempo,,,,,20,1,0,,419580,,,,,,,
32920,set_tempo,,,,,30,1,0,,418118,,,,,,,
32940,set_tempo,,,,,20,1,0,,427046,,,,,,,
32940,note_on,,,,,59,0,1,,,,,0,,,89,0
32940,note_on,,,,,0,0,1,,,,,0,,,88,105
32952,note_on,,,,,72,0,2,,,,,0,,,55,0
32990,set_tempo,,,,,50,1,0,,437956,,,,,,,
32994,note_on,,,,,54,0,1,,,,,0,,,88,0
32996,control_change,,,,,2,0,1,,,,,0,64,0,,
33000,note_on,,,,,0,0,2,,,,,0,,,65,75
33000,note_on,,,,,48,0,2,,,,,0,,,59,75
33000,note_on,,,,,0,0,2,,,,,0,,,67,75
33000,note_on,,,,,4,0,1,,,,,0,,,86,103
33048,note_on,,,,,48,0,1,,,,,0,,,86,0
33060,note_on,,,,,12,0,1,,,,,0,,,88,100
33072,note_on,,,,,0,0,2,,,,,0,,,59,0
33072,note_on,,,,,72,0,2,,,,,0,,,67,0
33072,note_on,,,,,0,0,2,,,,,0,,,65,0
33100,set_tempo,,,,,110,1,0,,652173,,,,,,,
33108,note_on,,,,,48,0,1,,,,,0,,,88,0
33120,control_change,,,,,0,0,1,,,,,0,64,95,,
33120,note_on,,,,,12,0,1,,,,,0,,,84,108
33120,note_on,,,,,48,0,2,,,,,0,,,48,100
33140,set_tempo,,,,,40,1,0,,410958,,,,,,,
33150,set_tempo,,,,,10,1,0,,402684,,,,,,,
33160,set_tempo,,,,,10,1,0,,404040,,,,,,,
33180,set_tempo,,,,,20,1,0,,378548,,,,,,,
33180,note_on,,,,,0,0,2,,,,,0,,,50,94
33180,note_on,,,,,60,0,1,,,,,0,,,84,0
33180,note_on,,,,,60,0,2,,,,,0,,,48,0
33220,set_tempo,,,,,40,1,0,,355029,,,,,,,
33235,control_change,,,,,55,0,1,,,,,0,64,0,,
33240,note_on,,,,,60,0,2,,,,,0,,,50,0
33240,note_on,,,,,5,0,1,,,,,0,,,72,88
33240,note_on,,,,,0,0,1,,,,,0,,,76,88
33240,control_change,,,,,0,0,1,,,,,0,64,95,,
33240,note_on,,,,,0,0,1,,,,,0,,,79,88
33240,note_on,,,,,0,0,2,,,,,0,,,48,94
33300,note_on,,,,,0,0,1,,,,,0,,,76,0
33300,note_on,,,,,0,0,1,,,,,0,,,72,0
33300,note_on,,,,,0,0,2,,,,,0,,,60,98
33300,note_on,,,,,60,0,2,,,,,0,,,48,0
33300,note_on,,,,,60,0,1,,,,,0,,,79,0
33355,control_change,,,,,55,0,1,,,,,0,64,0,,
33360,note_on,,,,,5,0,1,,,,,0,,,69,91
33360,note_on,,,,,0,0,1,,,,,0,,,77,91
33360,control_change,,,,,0,0,1,,,,,0,64,95,,
33360,note_on,,,,,0,0,1,,,,,0,,,72,91
33360,note_on,,,,,60,0,2,,,,,0,,,60,0
33360,note_on,,,,,0,0,2,,,,,0,,,62,102
33370,set_tempo,,,,,150,1,0,,347826,,,,,,,
33420,note_on,,,,,60,0,1,,,,,0,,,77,0
33420,note_on,,,,,60,0,2,,,,,0,,,62,0
33420,note_on,,,,,0,0,2,,,,,0,,,60,89
33420,note_on,,,,,0,0,1,,,,,0,,,69,0
33420,note_on,,,,,0,0,1,,,,,0,,,72,0
33460,set_tempo,,,,,90,1,0,,343839,,,,,,,
33475,control_change,,,,,55,0,1,,,,,0,64,0,,
33480,control_change,,,,,0,0,1,,,,,0,64,95,,
33480,note_on,,,,,0,0,2,,,,,0,,,57,91
33480,note_on,,,,,60,0,2,,,,,0,,,60,0
33480,note_on,,,,,5,0,1,,,,,0,,,72,84
33480,note_on,,,,,0,0,1,,,,,0,,,77,84
33480,note_on,,,,,0,0,1,,,,,0,,,81,84
33528,note_on,,,,,48,0,1,,,,,0,,,81,0
33528,note_on,,,,,0,0,1,,,,,0,,,72,0
33528,note_on,,,,,0,0,1,,,,,0,,,77,0
33530,set_tempo,,,,,70,1,0,,338983,,,,,,,
33540,note_on,,,,,0,0,1,,,,,0,,,77,94
33540,note_on,,,,,0,0,1,,,,,0,,,81,94
33540,note_on,,,,,0,0,2,,,,,0,,,53,97
33540,note_on,,,,,60,0,2,,,,,0,,,57,0
33540,note_on,,,,,12,0,1,,,,,0,,,72,94
33588,note_on,,,,,48,0,1,,,,,0,,,81,0
33588,note_on,,,,,0,0,1,,,,,0,,,77,0
33588,note_on,,,,,0,0,1,,,,,0,,,72,0
33600,note_on,,,,,12,0,1,,,,,0,,,72,103
33600,note_on,,,,,0,0,1,,,,,0,,,76,103
33600,note_on,,,,,0,0,1,,,,,0,,,79,103
33600,note_on,,,,,0,0,2,,,,,0,,,48,103
33600,note_on,,,,,60,0,2,,,,,0,,,53,0
33610,set_tempo,,,,,80,1,0,,377358,,,,,,,
33660,note_on,,,,,0,0,1,,,,,0,,,72,0
33660,note_on,,,,,60,0,1,,,,,0,,,79,0
33660,set_tempo,,,,,50,1,0,,340909,,,,,,,
33660,note_on,,,,,0,0,1,,,,,0,,,76,0
33660,note_on,,,,,0,0,2,,,,,0,,,50,91
33660,note_on,,,,,60,0,2,,,,,0,,,48,0
33690,control_change,,,,,30,0,1,,,,,0,64,0,,
33720,note_on,,,,,0,0,1,,,,,0,,,79,90
33720,note_on,,,,,0,0,1,,,,,0,,,84,90
33720,note_on,,,,,0,0,2,,,,,0,,,48,95
33720,note_on,,,,,60,0,2,,,,,0,,,50,0
33720,note_on,,,,,30,0,1,,,,,0,,,76,90
33730,set_tempo,,,,,70,1,0,,342857,,,,,,,
33780,note_on,,,,,60,0,1,,,,,0,,,84,0
33780,note_on,,,,,0,0,1,,,,,0,,,79,0
33780,set_tempo,,,,,50,1,0,,346820,,,,,,,
33780,note_on,,,,,60,0,2,,,,,0,,,48,0
33780,note_on,,,,,0,0,2,,,,,0,,,55,100
33780,note_on,,,,,0,0,1,,,,,0,,,76,0
33790,set_tempo,,,,,10,1,0,,351906,,,,,,,
33840,note_on,,,,,60,0,1,,,,,0,,,74,87
33840,note_on,,,,,0,0,1,,,,,0,,,79,87
33840,note_on,,,,,0,0,1,,,,,0,,,83,87
33840,note_on,,,,,0,0,2,,,,,0,,,57,102
33840,note_on,,,,,60,0,2,,,,,0,,,55,0
33900,note_on,,,,,60,0,1,,,,,0,,,83,0
33900,note_on,,,,,0,0,1,,,,,0,,,79,0
33900,note_on,,,,,0,0,1,,,,,0,,,74,0
33900,note_on,,,,,60,0,2,,,,,0,,,57,0
33900,note_on,,,,,0,0,2,,,,,0,,,55,86
33900,set_tempo,,,,,110,1,0,,357142,,,,,,,
33910,set_tempo,,,,,10,1,0,,358208,,,,,,,
33960,control_change,,,,,0,0,1,,,,,0,64,93,,
33960,note_on,,,,,60,0,2,,,,,0,,,55,0
33960,note_on,,,,,0,0,2,,,,,0,,,43,80
33960,note_on,,,,,0,0,1,,,,,0,,,77,77
33960,note_on,,,,,0,0,1,,,,,0,,,79,77
33960,note_on,,,,,60,0,1,,,,,0,,,86,77
33990,set_tempo,,,,,80,1,0,,363636,,,,,,,
34000,set_tempo,,,,,10,1,0,,364741,,,,,,,
34008,note_on,,,,,0,0,1,,,,,0,,,79,0
34008,note_on,,,,,0,0,1,,,,,0,,,86,0
34008,note_on,,,,,48,0,1,,,,,0,,,77,0
34020,note_on,,,,,0,0,1,,,,,0,,,79,68
34020,note_on,,,,,12,0,1,,,,,0,,,86,68
34020,note_on,,,,,60,0,2,,,,,0,,,43,0
34020,note_on,,,,,0,0,1,,,,,0,,,77,68
34020,note_on,,,,,0,0,2,,,,,0,,,47,73
34060,set_tempo,,,,,60,1,0,,408163,,,,,,,
34068,note_on,,,,,0,0,1,,,,,0,,,86,0
34068,note_on,,,,,0,0,1,,,,,0,,,79,0
34068,note_on,,,,,48,0,1,,,,,0,,,77,0
34075,control_change,,,,,7,0,1,,,,,0,64,0,,
34080,note_on,,,,,60,0,2,,,,,0,,,47,0
34080,note_on,,,,,0,0,2,,,,,0,,,48,63
34080,note_on,,,,,5,0,1,,,,,0,,,79,65
34080,note_on,,,,,0,0,1,,,,,0,,,76,65
34080,note_on,,,,,0,0,1,,,,,0,,,84,65
34110,set_tempo,,,,,50,1,0,,402684,,,,,,,
34120,set_tempo,,,,,10,1,0,,397350,,,,,,,
34140,note_on,,,,,0,0,1,,,,,0,,,79,0
34140,note_on,,,,,0,0,1,,,,,0,,,76,0
34140,note_on,,,,,60,0,2,,,,,0,,,48,0
34140,note_on,,,,,60,0,1,,,,,0,,,84,0
34140,note_on,,,,,0,0,2,,,,,0,,,50,60
34160,set_tempo,,,,,40,1,0,,370370,,,,,,,
34200,note_on,,,,,0,0,2,,,,,0,,,48,58
34200,note_on,,,,,0,0,1,,,,,0,,,79,57
34200,note_on,,,,,60,0,2,,,,,0,,,50,0
34200,note_on,,,,,0,0,1,,,,,0,,,76,57
34200,note_on,,,,,60,0,1,,,,,0,,,72,57
34210,set_tempo,,,,,50,1,0,,356083,,,,,,,
34220,set_tempo,,,,,10,1,0,,355029,,,,,,,
34260,note_on,,,,,60,0,2,,,,,0,,,48,0
34260,note_on,,,,,60,0,1,,,,,0,,,79,0
34260,note_on,,,,,0,0,1,,,,,0,,,72,0
34260,note_on,,,,,0,0,1,,,,,0,,,76,0
34260,note_on,,,,,0,0,2,,,,,0,,,60,57
34320,note_on,,,,,0,0,2,,,,,0,,,62,57
34320,note_on,,,,,0,0,1,,,,,0,,,72,66
34320,note_on,,,,,60,0,1,,,,,0,,,68,66
34320,note_on,,,,,60,0,2,,,,,0,,,60,0
34320,note_on,,,,,0,0,1,,,,,0,,,77,66
34350,set_tempo,,,,,130,1,0,,344827,,,,,,,
34380,note_on,,,,,60,0,1,,,,,0,,,77,0
34380,note_on,,,,,0,0,1,,,,,0,,,68,0
34380,note_on,,,,,0,0,2,,,,,0,,,60,59
34380,note_on,,,,,60,0,2,,,,,0,,,62,0
34380,note_on,,,,,0,0,1,,,,,0,,,72,0
34440,note_on,,,,,60,0,1,,,,,0,,,80,56
34440,note_on,,,,,0,0,1,,,,,0,,,72,56
34440,note_on,,,,,0,0,2,,,,,0,,,56,61
34440,note_on,,,,,0,0,1,,,,,0,,,77,56
34440,note_on,,,,,60,0,2,,,,,0,,,60,0
34440,control_change,,,,,0,0,1,,,,,0,64,96,,
34460,set_tempo,,,,,110,1,0,,343839,,,,,,,
34470,set_tempo,,,,,10,1,0,,338983,,,,,,,
34488,note_on,,,,,0,0,1,,,,,0,,,80,0
34488,note_on,,,,,48,0,1,,,,,0,,,77,0
34488,note_on,,,,,0,0,1,,,,,0,,,72,0
34500,note_on,,,,,0,0,1,,,,,0,,,77,62
34500,note_on,,,,,12,0,1,,,,,0,,,80,62
34500,note_on,,,,,0,0,1,,,,,0,,,72,62
34500,note_on,,,,,60,0,2,,,,,0,,,56,0
34500,note_on,,,,,0,0,2,,,,,0,,,53,62
34548,note_on,,,,,0,0,1,,,,,0,,,80,0
34548,note_on,,,,,0,0,1,,,,,0,,,72,0
34548,note_on,,,,,48,0,1,,,,,0,,,77,0
34560,note_on,,,,,0,0,1,,,,,0,,,79,66
34560,note_on,,,,,0,0,1,,,,,0,,,76,66
34560,note_on,,,,,12,0,1,,,,,0,,,72,66
34560,note_on,,,,,0,0,2,,,,,0,,,48,66
34560,note_on,,,,,60,0,2,,,,,0,,,53,0
34570,set_tempo,,,,,100,1,0,,377358,,,,,,,
34620,note_on,,,,,0,0,2,,,,,0,,,50,57
34620,note_on,,,,,60,0,1,,,,,0,,,79,0
34620,set_tempo,,,,,50,1,0,,340909,,,,,,,
34620,note_on,,,,,60,0,2,,,,,0,,,48,0
34620,note_on,,,,,0,0,1,,,,,0,,,76,0
34620,note_on,,,,,0,0,1,,,,,0,,,72,0
34650,control_change,,,,,30,0,1,,,,,0,64,0,,
34680,note_on,,,,,60,0,2,,,,,0,,,50,0
34680,note_on,,,,,0,0,2,,,,,0,,,48,60
34680,note_on,,,,,0,0,1,,,,,0,,,84,57
34680,note_on,,,,,0,0,1,,,,,0,,,79,57
34680,note_on,,,,,30,0,1,,,,,0,,,76,57
34680,set_tempo,,,,,60,1,0,,343839,,,,,,,
34740,note_on,,,,,0,0,2,,,,,0,,,55,61
34740,note_on,,,,,0,0,1,,,,,0,,,79,0
34740,note_on,,,,,60,0,2,,,,,0,,,48,0
34740,note_on,,,,,60,0,1,,,,,0,,,84,0
34740,note_on,,,,,0,0,1,,,,,0,,,76,0
34780,set_tempo,,,,,100,1,0,,348837,,,,,,,
34790,set_tempo,,,,,10,1,0,,349854,,,,,,,
34800,note_on,,,,,0,0,1,,,,,0,,,79,49
34800,note_on,,,,,0,0,1,,,,,0,,,83,49
34800,note_on,,,,,60,0,2,,,,,0,,,55,0
34800,note_on,,,,,60,0,1,,,,,0,,,74,49
34800,note_on,,,,,0,0,2,,,,,0,,,57,61
34820,set_tempo,,,,,30,1,0,,356083,,,,,,,
34850,set_tempo,,,,,30,1,0,,357142,,,,,,,
34860,note_on,,,,,0,0,1,,,,,0,,,74,0
34860,note_on,,,,,0,0,1,,,,,0,,,79,0
34860,note_on,,,,,0,0,2,,,,,0,,,55,55
34860,note_on,,,,,60,0,2,,,,,0,,,57,0
34860,note_on,,,,,60,0,1,,,,,0,,,83,0
34920,note_on,,,,,60,0,1,,,,,0,,,86,53
34920,note_on,,,,,0,0,1,,,,,0,,,79,53
34920,note_on,,,,,0,0,1,,,,,0,,,77,53
34920,control_change,,,,,0,0,1,,,,,0,64,95,,
34920,note_on,,,,,0,0,2,,,,,0,,,43,60
34920,note_on,,,,,60,0,2,,,,,0,,,55,0
34930,set_tempo,,,,,80,1,0,,358208,,,,,,,
34950,set_tempo,,,,,20,1,0,,359281,,,,,,,
34960,set_tempo,,,,,10,1,0,,364741,,,,,,,
34968,note_on,,,,,48,0,1,,,,,0,,,77,0
34968,note_on,,,,,0,0,1,,,,,0,,,86,0
34968,note_on,,,,,0,0,1,,,,,0,,,79,0
34980,note_on,,,,,0,0,1,,,,,0,,,77,61
34980,note_on,,,,,0,0,1,,,,,0,,,79,61
34980,note_on,,,,,0,0,2,,,,,0,,,47,64
34980,note_on,,,,,60,0,2,,,,,0,,,43,0
34980,note_on,,,,,12,0,1,,,,,0,,,86,61
35000,set_tempo,,,,,40,1,0,,370370,,,,,,,
35020,set_tempo,,,,,20,1,0,,377358,,,,,,,
35028,note_on,,,,,48,0,1,,,,,0,,,77,0
35028,note_on,,,,,0,0,1,,,,,0,,,79,0
35028,note_on,,,,,0,0,1,,,,,0,,,86,0
35030,set_tempo,,,,,10,1,0,,375000,,,,,,,
35035,control_change,,,,,7,0,1,,,,,0,64,0,,
35040,set_tempo,,,,,10,1,0,,375000,,,,,,,
35040,note_on,,,,,60,0,2,,,,,0,,,47,0
35040,note_on,,,,,0,0,2,,,,,0,,,48,68
35040,note_on,,,,,0,0,1,,,,,0,,,79,66
35040,note_on,,,,,5,0,1,,,,,0,,,76,66
35040,note_on,,,,,0,0,1,,,,,0,,,84,66
35100,note_on,,,,,0,0,2,,,,,0,,,50,70
35100,note_on,,,,,60,0,2,,,,,0,,,48,0
35100,note_on,,,,,0,0,1,,,,,0,,,76,0
35100,note_on,,,,,0,0,1,,,,,0,,,79,0
35100,note_on,,,,,60,0,1,,,,,0,,,84,0
35160,note_on,,,,,0,0,1,,,,,0,,,67,95
35160,control_change,,,,,0,0,1,,,,,0,64,95,,
35160,note_on,,,,,0,0,2,,,,,0,,,48,76
35160,note_on,,,,,60,0,2,,,,,0,,,50,0
35160,note_on,,,,,0,0,1,,,,,0,,,72,95
35160,note_on,,,,,60,0,1,,,,,0,,,64,95
35220,note_on,,,,,0,0,2,,,,,0,,,60,72
35220,note_on,,,,,60,0,2,,,,,0,,,48,0
35250,note_on,,,,,0,0,1,,,,,0,,,67,0
35250,note_on,,,,,90,0,1,,,,,0,,,72,0
35250,set_tempo,,,,,210,1,0,,372670,,,,,,,
35250,note_on,,,,,0,0,1,,,,,0,,,64,0
35280,note_on,,,,,0,0,2,,,,,0,,,58,80
35280,note_on,,,,,30,0,1,,,,,0,,,63,77
35280,note_on,,,,,0,0,1,,,,,0,,,72,77
35280,note_on,,,,,60,0,2,,,,,0,,,60,0
35280,note_on,,,,,0,0,1,,,,,0,,,68,77
35340,note_on,,,,,60,0,1,,,,,0,,,72,0
35340,note_on,,,,,0,0,1,,,,,0,,,68,0
35340,note_on,,,,,0,0,1,,,,,0,,,63,0
35340,note_on,,,,,0,0,2,,,,,0,,,56,81
35340,note_on,,,,,60,0,2,,,,,0,,,58,0
35370,control_change,,,,,30,0,1,,,,,0,64,0,,
35400,note_on,,,,,30,0,1,,,,,0,,,74,89
35400,note_on,,,,,0,0,1,,,,,0,,,80,89
35400,note_on,,,,,0,0,1,,,,,0,,,82,89
35400,note_on,,,,,0,0,2,,,,,0,,,55,87
35400,note_on,,,,,60,0,2,,,,,0,,,56,0
35448,note_on,,,,,0,0,1,,,,,0,,,74,0
35448,note_on,,,,,48,0,1,,,,,0,,,82,0
35448,note_on,,,,,0,0,1,,,,,0,,,80,0
35460,note_on,,,,,0,0,1,,,,,0,,,80,94
35460,note_on,,,,,12,0,1,,,,,0,,,74,94
35460,note_on,,,,,0,0,2,,,,,0,,,53,92
35460,note_on,,,,,60,0,2,,,,,0,,,55,0
35460,note_on,,,,,0,0,1,,,,,0,,,82,94
35508,note_on,,,,,48,0,1,,,,,0,,,82,0
35508,note_on,,,,,0,0,1,,,,,0,,,80,0
35508,note_on,,,,,0,0,1,,,,,0,,,74,0
35520,note_on,,,,,12,0,1,,,,,0,,,75,99
35520,note_on,,,,,0,0,1,,,,,0,,,79,99
35520,note_on,,,,,0,0,1,,,,,0,,,82,99
35520,note_on,,,,,60,0,2,,,,,0,,,53,0
35520,note_on,,,,,0,0,2,,,,,0,,,51,97
35540,set_tempo,,,,,290,1,0,,379746,,,,,,,
35550,set_tempo,,,,,10,1,0,,379746,,,,,,,
35580,note_on,,,,,0,0,1,,,,,0,,,75,0
35580,note_on,,,,,60,0,1,,,,,0,,,82,0
35580,note_on,,,,,0,0,1,,,,,0,,,79,0
35580,note_on,,,,,0,0,2,,,,,0,,,53,86
35580,note_on,,,,,60,0,2,,,,,0,,,51,0
35620,set_tempo,,,,,70,1,0,,372670,,,,,,,
35628,note_on,,,,,48,0,2,,,,,0,,,53,0
35640,note_on,,,,,12,0,2,,,,,0,,,51,80
35640,control_change,,,,,0,0,1,,,,,0,64,95,,
35640,note_on,,,,,0,0,1,,,,,0,,,67,84
35640,note_on,,,,,60,0,1,,,,,0,,,63,84
35690,set_tempo,,,,,70,1,0,,364741,,,,,,,
35700,note_on,,,,,0,0,1,,,,,0,,,75,77
35700,note_on,,,,,0,0,1,,,,,0,,,63,0
35700,note_on,,,,,60,0,1,,,,,0,,,67,0
35748,note_on,,,,,48,0,1,,,,,0,,,75,0
35750,set_tempo,,,,,60,1,0,,359281,,,,,,,
35760,note_on,,,,,0,0,1,,,,,0,,,65,95
35760,note_on,,,,,0,0,2,,,,,0,,,50,88
35760,note_on,,,,,120,0,2,,,,,0,,,51,0
35760,note_on,,,,,12,0,1,,,,,0,,,68,95
35820,note_on,,,,,60,0,1,,,,,0,,,65,0
35820,note_on,,,,,0,0,1,,,,,0,,,68,0
35820,note_on,,,,,0,0,1,,,,,0,,,75,87
35830,set_tempo,,,,,80,1,0,,353982,,,,,,,
35868,note_on,,,,,48,0,1,,,,,0,,,75,0
35880,note_on,,,,,120,0,2,,,,,0,,,50,0
35880,note_on,,,,,12,0,1,,,,,0,,,70,100
35880,note_on,,,,,0,0,1,,,,,0,,,67,100
35880,note_on,,,,,0,0,2,,,,,0,,,49,94
35920,set_tempo,,,,,90,1,0,,349854,,,,,,,
35940,note_on,,,,,0,0,1,,,,,0,,,75,93
35940,note_on,,,,,0,0,1,,,,,0,,,70,0
35940,note_on,,,,,60,0,1,,,,,0,,,67,0
35950,set_tempo,,,,,30,1,0,,348837,,,,,,,
35988,note_on,,,,,48,0,1,,,,,0,,,75,0
35995,control_change,,,,,7,0,1,,,,,0,64,0,,
36000,note_on,,,,,0,0,1,,,,,0,,,72,104
36000,set_tempo,,,,,50,1,0,,353982,,,,,,,
36000,note_on,,,,,0,0,2,,,,,0,,,48,100
36000,note_on,,,,,0,0,1,,,,,0,,,75,104
36000,note_on,,,,,5,0,1,,,,,0,,,68,104
36000,note_on,,,,,120,0,2,,,,,0,,,49,0
36010,set_tempo,,,,,10,1,0,,355029,,,,,,,
36060,note_on,,,,,60,0,2,,,,,0,,,48,0
36060,note_on,,,,,0,0,2,,,,,0,,,50,90
36060,note_on,,,,,60,0,1,,,,,0,,,75,0
36060,note_on,,,,,0,0,1,,,,,0,,,72,0
36060,note_on,,,,,0,0,1,,,,,0,,,68,0
36080,set_tempo,,,,,70,1,0,,359281,,,,,,,
36120,note_on,,,,,60,0,1,,,,,0,,,64,106
36120,note_on,,,,,0,0,1,,,,,0,,,67,106
36120,note_on,,,,,0,0,1,,,,,0,,,72,106
36120,control_change,,,,,0,0,1,,,,,0,64,95,,
36120,note_on,,,,,60,0,2,,,,,0,,,50,0
36120,note_on,,,,,0,0,2,,,,,0,,,48,96
36180,note_on,,,,,0,0,2,,,,,0,,,60,90
36180,note_on,,,,,60,0,2,,,,,0,,,48,0
36210,note_on,,,,,90,0,1,,,,,0,,,72,0
36210,note_on,,,,,0,0,1,,,,,0,,,67,0
36210,note_on,,,,,0,0,1,,,,,0,,,64,0
36240,note_on,,,,,60,0,2,,,,,0,,,60,0
36240,note_on,,,,,0,0,2,,,,,0,,,58,80
36240,note_on,,,,,0,0,1,,,,,0,,,68,88
36240,note_on,,,,,0,0,1,,,,,0,,,72,88
36240,note_on,,,,,30,0,1,,,,,0,,,63,88
36300,note_on,,,,,0,0,1,,,,,0,,,63,0
36300,note_on,,,,,0,0,1,,,,,0,,,68,0
36300,note_on,,,,,60,0,1,,,,,0,,,72,0
36300,note_on,,,,,60,0,2,,,,,0,,,58,0
36300,note_on,,,,,0,0,2,,,,,0,,,56,81
36330,control_change,,,,,30,0,1,,,,,0,64,0,,
36360,note_on,,,,,0,0,1,,,,,0,,,82,89
36360,note_on,,,,,0,0,1,,,,,0,,,80,89
36360,note_on,,,,,30,0,1,,,,,0,,,74,89
36360,note_on,,,,,60,0,2,,,,,0,,,56,0
36360,note_on,,,,,0,0,2,,,,,0,,,55,87
36408,note_on,,,,,0,0,1,,,,,0,,,74,0
36408,note_on,,,,,0,0,1,,,,,0,,,80,0
36408,note_on,,,,,48,0,1,,,,,0,,,82,0
36420,set_tempo,,,,,340,1,0,,360360,,,,,,,
36420,note_on,,,,,60,0,2,,,,,0,,,55,0
36420,note_on,,,,,0,0,2,,,,,0,,,53,92
36420,note_on,,,,,0,0,1,,,,,0,,,82,94
36420,note_on,,,,,12,0,1,,,,,0,,,74,94
36420,note_on,,,,,0,0,1,,,,,0,,,80,94
36468,note_on,,,,,0,0,1,,,,,0,,,74,0
36468,note_on,,,,,0,0,1,,,,,0,,,80,0
36468,note_on,,,,,48,0,1,,,,,0,,,82,0
36480,note_on,,,,,0,0,1,,,,,0,,,79,99
36480,note_on,,,,,12,0,1,,,,,0,,,75,99
36480,note_on,,,,,60,0,2,,,,,0,,,53,0
36480,note_on,,,,,0,0,1,,,,,0,,,82,99
36480,note_on,,,,,0,0,2,,,,,0,,,51,97
36540,note_on,,,,,0,0,2,,,,,0,,,53,91
36540,note_on,,,,,60,0,2,,,,,0,,,51,0
36540,note_on,,,,,0,0,1,,,,,0,,,79,0
36540,note_on,,,,,60,0,1,,,,,0,,,82,0
36540,note_on,,,,,0,0,1,,,,,0,,,75,0
36550,set_tempo,,,,,130,1,0,,361445,,,,,,,
36588,note_on,,,,,48,0,2,,,,,0,,,53,0
36600,set_tempo,,,,,50,1,0,,356083,,,,,,,
36600,note_on,,,,,12,0,2,,,,,0,,,51,94
36600,note_on,,,,,60,0,1,,,,,0,,,63,94
36600,note_on,,,,,0,0,1,,,,,0,,,67,94
36600,control_change,,,,,0,0,1,,,,,0,64,95,,
36620,set_tempo,,,,,20,1,0,,355029,,,,,,,
36660,note_on,,,,,60,0,1,,,,,0,,,67,0
36660,note_on,,,,,0,0,1,,,,,0,,,63,0
36660,note_on,,,,,0,0,1,,,,,0,,,75,87
36708,note_on,,,,,48,0,1,,,,,0,,,75,0
36710,set_tempo,,,,,90,1,0,,346820,,,,,,,
36720,note_on,,,,,12,0,1,,,,,0,,,68,98
36720,note_on,,,,,0,0,2,,,,,0,,,50,101
36720,note_on,,,,,120,0,2,,,,,0,,,51,0
36720,note_on,,,,,0,0,1,,,,,0,,,65,98
36780,note_on,,,,,0,0,1,,,,,0,,,75,92
36780,note_on,,,,,0,0,1,,,,,0,,,68,0
36780,note_on,,,,,60,0,1,,,,,0,,,65,0
36828,note_on,,,,,48,0,1,,,,,0,,,75,0
36830,set_tempo,,,,,120,1,0,,338983,,,,,,,
36840,note_on,,,,,120,0,2,,,,,0,,,50,0
36840,note_on,,,,,0,0,2,,,,,0,,,49,107
36840,note_on,,,,,12,0,1,,,,,0,,,70,107
36840,note_on,,,,,0,0,1,,,,,0,,,67,107
36900,note_on,,,,,0,0,1,,,,,0,,,70,0
36900,note_on,,,,,60,0,1,,,,,0,,,67,0
36900,note_on,,,,,0,0,1,,,,,0,,,75,98
36948,note_on,,,,,48,0,1,,,,,0,,,75,0
36950,set_tempo,,,,,120,1,0,,329670,,,,,,,
36955,control_change,,,,,7,0,1,,,,,0,64,0,,
36960,note_on,,,,,5,0,1,,,,,0,,,68,108
36960,note_on,,,,,0,0,1,,,,,0,,,72,108
36960,note_on,,,,,0,0,1,,,,,0,,,75,108
36960,control_change,,,,,0,0,1,,,,,0,64,95,,
36960,note_on,,,,,120,0,2,,,,,0,,,49,0
36960,note_on,,,,,0,0,2,,,,,0,,,48,100
37020,note_on,,,,,0,0,1,,,,,0,,,68,0
37020,note_on,,,,,60,0,1,,,,,0,,,75,0
37020,note_on,,,,,0,0,1,,,,,0,,,72,0
37020,note_on,,,,,60,0,2,,,,,0,,,48,0
37020,note_on,,,,,0,0,2,,,,,0,,,49,94
37065,control_change,,,,,45,0,1,,,,,0,64,0,,
37080,note_on,,,,,60,0,2,,,,,0,,,49,0
37080,note_on,,,,,0,0,2,,,,,0,,,48,99
37080,note_on,,,,,15,0,1,,,,,0,,,72,105
37080,note_on,,,,,0,0,1,,,,,0,,,76,105
37080,note_on,,,,,0,0,1,,,,,0,,,84,105
37080,control_change,,,,,0,0,1,,,,,0,64,95,,
37130,set_tempo,,,,,180,1,0,,322580,,,,,,,
37140,note_on,,,,,60,0,2,,,,,0,,,48,0
37140,note_on,,,,,0,0,2,,,,,0,,,60,102
37140,note_on,,,,,60,0,1,,,,,0,,,84,0
37140,note_on,,,,,0,0,1,,,,,0,,,76,0
37140,note_on,,,,,0,0,1,,,,,0,,,72,0
37190,control_change,,,,,50,0,1,,,,,0,64,0,,
37200,note_on,,,,,60,0,2,,,,,0,,,60,0
37200,note_on,,,,,0,0,2,,,,,0,,,47,107
37200,control_change,,,,,0,0,1,,,,,0,64,95,,
37200,note_on,,,,,10,0,1,,,,,0,,,74,112
37200,note_on,,,,,0,0,1,,,,,0,,,77,112
37200,note_on,,,,,0,0,1,,,,,0,,,84,112
37250,set_tempo,,,,,120,1,0,,317460,,,,,,,
37260,note_on,,,,,0,0,2,,,,,0,,,59,110
37260,note_on,,,,,60,0,1,,,,,0,,,84,0
37260,note_on,,,,,60,0,2,,,,,0,,,47,0
37260,note_on,,,,,0,0,1,,,,,0,,,74,0
37260,note_on,,,,,0,0,1,,,,,0,,,77,0
37308,note_on,,,,,48,0,2,,,,,0,,,59,0
37310,control_change,,,,,50,0,1,,,,,0,64,0,,
37320,note_on,,,,,0,0,1,,,,,0,,,79,117
37320,note_on,,,,,12,0,2,,,,,0,,,46,114
37320,control_change,,,,,0,0,1,,,,,0,64,96,,
37320,note_on,,,,,0,0,1,,,,,0,,,84,117
37320,note_on,,,,,10,0,1,,,,,0,,,76,117
37380,note_on,,,,,0,0,2,,,,,0,,,58,117
37380,note_on,,,,,60,0,2,,,,,0,,,46,0
37380,note_on,,,,,0,0,1,,,,,0,,,79,0
37380,note_on,,,,,60,0,1,,,,,0,,,84,0
37380,note_on,,,,,0,0,1,,,,,0,,,76,0
37428,note_on,,,,,48,0,2,,,,,0,,,58,0
37430,control_change,,,,,50,0,1,,,,,0,64,0,,
37440,control_change,,,,,0,0,1,,,,,0,64,95,,
37440,note_on,,,,,12,0,2,,,,,0,,,44,119
37440,note_on,,,,,0,0,1,,,,,0,,,84,122
37440,note_on,,,,,10,0,1,,,,,0,,,77,122
37440,note_on,,,,,0,0,1,,,,,0,,,80,122
37500,note_on,,,,,60,0,2,,,,,0,,,44,0
37500,note_on,,,,,0,0,2,,,,,0,,,46,113
37500,note_on,,,,,60,0,1,,,,,0,,,84,0
37500,note_on,,,,,0,0,1,,,,,0,,,80,0
37500,note_on,,,,,0,0,1,,,,,0,,,77,0
37530,set_tempo,,,,,280,1,0,,320855,,,,,,,
37540,set_tempo,,,,,10,1,0,,322580,,,,,,,
37560,note_on,,,,,0,0,2,,,,,0,,,44,116
37560,note_on,,,,,60,0,2,,,,,0,,,46,0
37560,note_on,,,,,60,0,1,,,,,0,,,68,115
37560,note_on,,,,,0,0,1,,,,,0,,,72,115
37560,note_on,,,,,0,0,1,,,,,0,,,80,115
37590,set_tempo,,,,,50,1,0,,327868,,,,,,,
37615,control_change,,,,,55,0,1,,,,,0,64,0,,
37620,note_on,,,,,5,0,1,,,,,0,,,80,0
37620,note_on,,,,,0,0,1,,,,,0,,,72,0
37620,note_on,,,,,0,0,1,,,,,0,,,68,0
37620,note_on,,,,,0,0,2,,,,,0,,,56,117
37620,note_on,,,,,60,0,2,,,,,0,,,44,0
37640,set_tempo,,,,,50,1,0,,332409,,,,,,,
37680,note_on,,,,,60,0,2,,,,,0,,,56,0
37680,note_on,,,,,0,0,2,,,,,0,,,43,118
37680,note_on,,,,,60,0,1,,,,,0,,,70,121
37680,note_on,,,,,0,0,1,,,,,0,,,73,121
37680,note_on,,,,,0,0,1,,,,,0,,,80,121
37700,set_tempo,,,,,60,1,0,,345821,,,,,,,
37740,set_tempo,,,,,40,1,0,,356083,,,,,,,
37740,note_on,,,,,60,0,1,,,,,0,,,80,0
37740,note_on,,,,,0,0,1,,,,,0,,,73,0
37740,note_on,,,,,0,0,1,,,,,0,,,70,0
37740,note_on,,,,,60,0,2,,,,,0,,,43,0
37740,note_on,,,,,0,0,2,,,,,0,,,55,121
37788,note_on,,,,,48,0,2,,,,,0,,,55,0
37800,set_tempo,,,,,60,1,0,,366972,,,,,,,
37800,note_on,,,,,60,0,1,,,,,0,,,72,127
37800,note_on,,,,,0,0,1,,,,,0,,,75,127
37800,note_on,,,,,0,0,1,,,,,0,,,80,127
37800,note_on,,,,,12,0,2,,,,,0,,,42,123
37860,note_on,,,,,0,0,1,,,,,0,,,72,0
37860,note_on,,,,,60,0,2,,,,,0,,,42,0
37860,note_on,,,,,0,0,2,,,,,0,,,54,125
37860,note_on,,,,,0,0,1,,,,,0,,,75,0
37860,note_on,,,,,60,0,1,,,,,0,,,80,0
37860,set_tempo,,,,,60,1,0,,368098,,,,,,,
37870,set_tempo,,,,,10,1,0,,378548,,,,,,,
37908,note_on,,,,,48,0,2,,,,,0,,,54,0
37910,set_tempo,,,,,40,1,0,,397350,,,,,,,
37920,note_on,,,,,12,0,2,,,,,0,,,41,127
37920,set_tempo,,,,,10,1,0,,384615,,,,,,,
37920,note_on,,,,,60,0,1,,,,,0,,,80,126
37920,note_on,,,,,0,0,1,,,,,0,,,73,126
37920,note_on,,,,,0,0,1,,,,,0,,,77,126
37920,control_change,,,,,0,0,1,,,,,0,64,95,,
37980,note_on,,,,,60,0,1,,,,,0,,,77,0
37980,note_on,,,,,0,0,1,,,,,0,,,73,0
37980,note_on,,,,,0,0,1,,,,,0,,,80,0
37980,note_on,,,,,0,0,2,,,,,0,,,42,119
37980,note_on,,,,,60,0,2,,,,,0,,,41,0
37980,set_tempo,,,,,60,1,0,,377358,,,,,,,
38040,note_on,,,,,60,0,2,,,,,0,,,42,0
38040,note_on,,,,,0,0,2,,,,,0,,,41,121
38095,control_change,,,,,115,0,1,,,,,0,64,0,,
38100,note_on,,,,,5,0,1,,,,,0,,,65,117
38100,note_on,,,,,60,0,2,,,,,0,,,41,0
38100,note_on,,,,,0,0,2,,,,,0,,,53,125
38120,set_tempo,,,,,140,1,0,,372670,,,,,,,
38160,note_on,,,,,60,0,2,,,,,0,,,53,0
38160,note_on,,,,,0,0,2,,,,,0,,,49,127
38160,note_on,,,,,0,0,1,,,,,0,,,61,127
38160,note_on,,,,,60,0,1,,,,,0,,,65,0
38220,note_on,,,,,0,0,2,,,,,0,,,44,123
38220,note_on,,,,,60,0,2,,,,,0,,,49,0
38220,note_on,,,,,0,0,1,,,,,0,,,56,123
38220,note_on,,,,,60,0,1,,,,,0,,,61,0
38272,note_on,,,,,52,0,2,,,,,0,,,44,0
38272,note_on,,,,,52,0,1,,,,,0,,,56,0
38280,note_on,,,,,8,0,2,,,,,0,,,41,119
38280,note_on,,,,,8,0,1,,,,,0,,,53,120
38310,set_tempo,,,,,190,1,0,,368098,,,,,,,
38332,note_on,,,,,52,0,1,,,,,0,,,53,0
38332,note_on,,,,,52,0,2,,,,,0,,,41,0
38340,note_on,,,,,8,0,1,,,,,0,,,56,116
38340,note_on,,,,,8,0,2,,,,,0,,,44,118
38392,note_on,,,,,52,0,2,,,,,0,,,44,0
38392,note_on,,,,,52,0,1,,,,,0,,,56,0
38400,note_on,,,,,8,0,2,,,,,0,,,44,127
38400,note_on,,,,,0,0,1,,,,,0,,,56,127
38400,control_change,,,,,8,0,1,,,,,0,64,95,,
38460,note_on,,,,,60,0,2,,,,,0,,,44,0
38460,note_on,,,,,0,0,1,,,,,0,,,58,119
38460,note_on,,,,,0,0,2,,,,,0,,,46,119
38460,note_on,,,,,60,0,1,,,,,0,,,56,0
38480,set_tempo,,,,,170,1,0,,361445,,,,,,,
38520,note_on,,,,,60,0,2,,,,,0,,,46,0
38520,note_on,,,,,0,0,1,,,,,0,,,56,121
38520,note_on,,,,,60,0,1,,,,,0,,,58,0
38520,note_on,,,,,0,0,2,,,,,0,,,44,121
38575,control_change,,,,,55,0,1,,,,,0,64,0,,
38580,note_on,,,,,0,0,1,,,,,0,,,68,125
38580,note_on,,,,,5,0,1,,,,,0,,,56,0
38580,note_on,,,,,60,0,2,,,,,0,,,44,0
38580,note_on,,,,,0,0,2,,,,,0,,,56,125
38640,note_on,,,,,60,0,2,,,,,0,,,56,0
38640,note_on,,,,,0,0,1,,,,,0,,,65,127
38640,note_on,,,,,0,0,2,,,,,0,,,53,127
38640,note_on,,,,,60,0,1,,,,,0,,,68,0
38670,set_tempo,,,,,190,1,0,,356083,,,,,,,
38700,note_on,,,,,60,0,1,,,,,0,,,65,0
38700,note_on,,,,,0,0,1,,,,,0,,,61,123
38700,note_on,,,,,0,0,2,,,,,0,,,49,123
38700,note_on,,,,,60,0,2,,,,,0,,,53,0
38752,note_on,,,,,52,0,2,,,,,0,,,49,0
38752,note_on,,,,,52,0,1,,,,,0,,,61,0
38760,note_on,,,,,8,0,2,,,,,0,,,44,119
38760,note_on,,,,,8,0,1,,,,,0,,,56,119
38790,set_tempo,,,,,120,1,0,,350877,,,,,,,
38812,note_on,,,,,52,0,1,,,,,0,,,56,0
38812,note_on,,,,,52,0,2,,,,,0,,,44,0
38820,note_on,,,,,8,0,2,,,,,0,,,49,118
38820,note_on,,,,,8,0,1,,,,,0,,,61,118
38872,note_on,,,,,52,0,1,,,,,0,,,61,0
38872,note_on,,,,,52,0,2,,,,,0,,,49,0
38880,control_change,,,,,8,0,1,,,,,0,64,96,,
38880,note_on,,,,,0,0,1,,,,,0,,,61,127
38880,set_tempo,,,,,90,1,0,,343839,,,,,,,
38880,note_on,,,,,8,0,2,,,,,0,,,49,127
38940,note_on,,,,,60,0,1,,,,,0,,,61,0
38940,note_on,,,,,0,0,2,,,,,0,,,51,119
38940,note_on,,,,,0,0,1,,,,,0,,,63,119
38940,note_on,,,,,60,0,2,,,,,0,,,49,0
38960,set_tempo,,,,,80,1,0,,338028,,,,,,,
39000,note_on,,,,,60,0,1,,,,,0,,,63,0
39000,note_on,,,,,60,0,2,,,,,0,,,51,0
39000,note_on,,,,,0,0,1,,,,,0,,,61,121
39000,note_on,,,,,0,0,2,,,,,0,,,49,121
39020,set_tempo,,,,,60,1,0,,332409,,,,,,,
39055,control_change,,,,,55,0,1,,,,,0,64,0,,
39060,note_on,,,,,0,0,1,,,,,0,,,73,125
39060,note_on,,,,,60,0,2,,,,,0,,,49,0
39060,note_on,,,,,0,0,2,,,,,0,,,61,125
39060,note_on,,,,,5,0,1,,,,,0,,,61,0
39070,set_tempo,,,,,50,1,0,,327868,,,,,,,
39120,note_on,,,,,60,0,1,,,,,0,,,73,0
39120,note_on,,,,,0,0,1,,,,,0,,,68,127
39120,note_on,,,,,60,0,2,,,,,0,,,61,0
39120,note_on,,,,,0,0,2,,,,,0,,,56,127
39180,note_on,,,,,60,0,2,,,,,0,,,56,0
39180,note_on,,,,,0,0,2,,,,,0,,,53,123
39180,note_on,,,,,0,0,1,,,,,0,,,65,123
39180,note_on,,,,,60,0,1,,,,,0,,,68,0
39232,note_on,,,,,52,0,1,,,,,0,,,65,0
39232,note_on,,,,,52,0,2,,,,,0,,,53,0
39240,note_on,,,,,8,0,1,,,,,0,,,61,119
39240,note_on,,,,,8,0,2,,,,,0,,,49,119
39270,set_tempo,,,,,200,1,0,,324324,,,,,,,
39292,note_on,,,,,52,0,2,,,,,0,,,49,0
39292,note_on,,,,,52,0,1,,,,,0,,,61,0
39300,note_on,,,,,8,0,1,,,,,0,,,73,118
39300,note_on,,,,,8,0,2,,,,,0,,,61,118
39352,note_on,,,,,52,0,2,,,,,0,,,61,0
39352,note_on,,,,,52,0,1,,,,,0,,,73,0
39360,control_change,,,,,8,0,1,,,,,0,64,95,,
39360,note_on,,,,,0,0,1,,,,,0,,,73,127
39360,note_on,,,,,8,0,2,,,,,0,,,61,127
39410,set_tempo,,,,,140,1,0,,322580,,,,,,,
39420,note_on,,,,,60,0,1,,,,,0,,,73,0
39420,note_on,,,,,0,0,2,,,,,0,,,56,123
39420,note_on,,,,,60,0,2,,,,,0,,,61,0
39420,set_tempo,,,,,10,1,0,,319148,,,,,,,
39420,note_on,,,,,0,0,1,,,,,0,,,68,123
39472,note_on,,,,,52,0,1,,,,,0,,,68,0
39472,note_on,,,,,52,0,2,,,,,0,,,56,0
39480,note_on,,,,,8,0,2,,,,,0,,,53,119
39480,note_on,,,,,8,0,1,,,,,0,,,65,119
39532,note_on,,,,,52,0,2,,,,,0,,,53,0
39532,note_on,,,,,52,0,1,,,,,0,,,65,0
39535,control_change,,,,,3,0,1,,,,,0,64,0,,
39540,note_on,,,,,8,0,2,,,,,0,,,65,118
39540,note_on,,,,,5,0,1,,,,,0,,,77,118
39590,set_tempo,,,,,170,1,0,,311688,,,,,,,
39592,note_on,,,,,52,0,1,,,,,0,,,77,0
39592,note_on,,,,,52,0,2,,,,,0,,,65,0
39600,note_on,,,,,0,0,1,,,,,0,,,77,127
39600,control_change,,,,,8,0,1,,,,,0,64,96,,
39600,note_on,,,,,8,0,2,,,,,0,,,65,127
39660,note_on,,,,,60,0,2,,,,,0,,,65,0
39660,note_on,,,,,60,0,1,,,,,0,,,77,0
39660,note_on,,,,,0,0,1,,,,,0,,,73,123
39660,note_on,,,,,0,0,2,,,,,0,,,61,123
39712,note_on,,,,,52,0,2,,,,,0,,,61,0
39712,note_on,,,,,52,0,1,,,,,0,,,73,0
39720,note_on,,,,,8,0,2,,,,,0,,,56,119
39720,note_on,,,,,8,0,1,,,,,0,,,68,119
39772,note_on,,,,,52,0,1,,,,,0,,,68,0
39772,note_on,,,,,52,0,2,,,,,0,,,56,0
39775,control_change,,,,,3,0,1,,,,,0,64,0,,
39780,note_on,,,,,8,0,2,,,,,0,,,68,119
39780,note_on,,,,,5,0,1,,,,,0,,,80,119
39810,set_tempo,,,,,220,1,0,,307692,,,,,,,
39832,note_on,,,,,52,0,2,,,,,0,,,68,0
39832,note_on,,,,,52,0,1,,,,,0,,,80,0
39840,note_on,,,,,8,0,2,,,,,0,,,68,127
39840,note_on,,,,,8,0,1,,,,,0,,,80,127
39900,set_tempo,,,,,90,1,0,,307692,,,,,,,
39900,note_on,,,,,60,0,1,,,,,0,,,80,0
39900,note_on,,,,,60,0,2,,,,,0,,,68,0
39930,set_tempo,,,,,30,1,0,,309278,,,,,,,
39940,set_tempo,,,,,10,1,0,,317460,,,,,,,
39950,set_tempo,,,,,10,1,0,,315789,,,,,,,
39960,note_on,,,,,0,0,1,,,,,0,,,73,117
39960,control_change,,,,,0,0,1,,,,,0,64,95,,
39960,note_on,,,,,60,0,1,,,,,0,,,80,117
39960,note_on,,,,,60,0,2,,,,,0,,,49,114
39960,note_on,,,,,0,0,1,,,,,0,,,77,117
39980,set_tempo,,,,,30,1,0,,326975,,,,,,,
40020,note_on,,,,,0,0,1,,,,,0,,,77,0
40020,note_on,,,,,0,0,1,,,,,0,,,80,0
40020,note_on,,,,,60,0,1,,,,,0,,,73,0
40020,note_on,,,,,0,0,2,,,,,0,,,44,116
40020,note_on,,,,,60,0,2,,,,,0,,,49,0
40040,set_tempo,,,,,60,1,0,,331491,,,,,,,
40075,control_change,,,,,55,0,1,,,,,0,64,0,,
40080,note_on,,,,,0,0,1,,,,,0,,,80,122
40080,note_on,,,,,0,0,2,,,,,0,,,41,120
40080,note_on,,,,,60,0,2,,,,,0,,,44,0
40080,note_on,,,,,5,0,1,,,,,0,,,85,122
40080,control_change,,,,,0,0,1,,,,,0,64,96,,
40080,note_on,,,,,0,0,1,,,,,0,,,77,122
40090,set_tempo,,,,,50,1,0,,339943,,,,,,,
40140,note_on,,,,,60,0,2,,,,,0,,,41,0
40140,note_on,,,,,0,0,2,,,,,0,,,53,123
40140,note_on,,,,,0,0,1,,,,,0,,,80,0
40140,note_on,,,,,0,0,1,,,,,0,,,85,0
40140,note_on,,,,,60,0,1,,,,,0,,,77,0
40160,set_tempo,,,,,70,1,0,,349854,,,,,,,
40188,note_on,,,,,48,0,2,,,,,0,,,53,0
40195,control_change,,,,,55,0,1,,,,,0,64,0,,
40200,note_on,,,,,5,0,1,,,,,0,,,84,127
40200,note_on,,,,,0,0,1,,,,,0,,,81,127
40200,note_on,,,,,0,0,1,,,,,0,,,75,127
40200,control_change,,,,,0,0,1,,,,,0,64,96,,
40200,note_on,,,,,12,0,2,,,,,0,,,42,126
40210,set_tempo,,,,,50,1,0,,365853,,,,,,,
40260,note_on,,,,,0,0,1,,,,,0,,,81,0
40260,note_on,,,,,0,0,1,,,,,0,,,84,0
40260,note_on,,,,,0,0,2,,,,,0,,,54,127
40260,note_on,,,,,60,0,1,,,,,0,,,75,0
40260,note_on,,,,,60,0,2,,,,,0,,,42,0
40300,control_change,,,,,40,0,1,,,,,0,7,80,,
40308,note_on,,,,,48,0,2,,,,,0,,,54,0
40315,control_change,,,,,15,0,1,,,,,0,64,0,,
40320,note_on,,,,,12,0,2,,,,,0,,,43,127
40320,note_on,,,,,5,0,1,,,,,0,,,74,127
40320,note_on,,,,,0,0,1,,,,,0,,,79,127
40320,note_on,,,,,0,0,1,,,,,0,,,83,127
40320,control_change,,,,,0,0,1,,,,,0,64,96,,
40320,set_tempo,,,,,110,1,0,,504201,,,,,,,
40340,set_tempo,,,,,20,1,0,,361445,,,,,,,
40350,set_tempo,,,,,10,1,0,,362537,,,,,,,
40353,control_change,,,,,33,0,1,,,,,0,7,81,,
40380,note_on,,,,,27,0,1,,,,,0,,,83,0
40380,note_on,,,,,0,0,1,,,,,0,,,79,0
40380,note_on,,,,,0,0,1,,,,,0,,,74,0
40380,note_on,,,,,0,0,2,,,,,0,,,45,119
40380,note_on,,,,,60,0,2,,,,,0,,,43,0
40390,set_tempo,,,,,40,1,0,,358208,,,,,,,
40407,control_change,,,,,27,0,1,,,,,0,7,82,,
40440,set_tempo,,,,,50,1,0,,346820,,,,,,,
40440,note_on,,,,,0,0,1,,,,,0,,,74,114
40440,note_on,,,,,60,0,2,,,,,0,,,45,0
40440,note_on,,,,,0,0,1,,,,,0,,,71,114
40440,note_on,,,,,33,0,1,,,,,0,,,67,114
40440,note_on,,,,,0,0,2,,,,,0,,,43,121
40461,control_change,,,,,21,0,1,,,,,0,7,83,,
40495,control_change,,,,,34,0,1,,,,,0,64,0,,
40500,note_on,,,,,60,0,2,,,,,0,,,43,0
40500,note_on,,,,,0,0,2,,,,,0,,,55,125
40500,note_on,,,,,5,0,1,,,,,0,,,74,0
40500,note_on,,,,,0,0,1,,,,,0,,,71,0
40500,note_on,,,,,0,0,1,,,,,0,,,67,0
40515,control_change,,,,,15,0,1,,,,,0,7,84,,
40560,note_on,,,,,60,0,2,,,,,0,,,55,0
40560,note_on,,,,,0,0,2,,,,,0,,,56,127
40560,note_on,,,,,0,0,1,,,,,0,,,72,121
40560,note_on,,,,,0,0,1,,,,,0,,,67,121
40560,note_on,,,,,45,0,1,,,,,0,,,63,121
40569,control_change,,,,,9,0,1,,,,,0,7,85,,
40620,note_on,,,,,0,0,1,,,,,0,,,63,0
40620,note_on,,,,,0,0,1,,,,,0,,,67,0
40620,note_on,,,,,51,0,1,,,,,0,,,72,0
40620,note_on,,,,,0,0,2,,,,,0,,,55,123
40620,note_on,,,,,60,0,2,,,,,0,,,56,0
40623,control_change,,,,,3,0,1,,,,,0,7,86,,
40650,set_tempo,,,,,210,1,0,,340909,,,,,,,
40672,note_on,,,,,52,0,2,,,,,0,,,55,0
40677,control_change,,,,,54,0,1,,,,,0,7,87,,
40680,note_on,,,,,3,0,1,,,,,0,,,67,126
40680,note_on,,,,,0,0,1,,,,,0,,,75,126
40680,note_on,,,,,0,0,1,,,,,0,,,72,126
40680,note_on,,,,,8,0,2,,,,,0,,,51,119
40700,set_tempo,,,,,50,1,0,,335195,,,,,,,
40728,note_on,,,,,0,0,1,,,,,0,,,72,0
40728,note_on,,,,,0,0,1,,,,,0,,,67,0
40728,note_on,,,,,48,0,1,,,,,0,,,75,0
40731,control_change,,,,,3,0,1,,,,,0,7,88,,
40732,note_on,,,,,52,0,2,,,,,0,,,51,0
40740,note_on,,,,,8,0,2,,,,,0,,,48,118
40740,note_on,,,,,0,0,1,,,,,0,,,75,127
40740,note_on,,,,,0,0,1,,,,,0,,,72,127
40740,note_on,,,,,9,0,1,,,,,0,,,67,127
40785,control_change,,,,,45,0,1,,,,,0,7,89,,
40788,note_on,,,,,3,0,1,,,,,0,,,75,0
40788,note_on,,,,,0,0,1,,,,,0,,,67,0
40788,note_on,,,,,0,0,1,,,,,0,,,72,0
40792,note_on,,,,,52,0,2,,,,,0,,,48,0
40800,note_on,,,,,8,0,2,,,,,0,,,43,127
40800,control_change,,,,,0,0,1,,,,,0,64,96,,
40800,note_on,,,,,0,0,1,,,,,0,,,74,127
40800,note_on,,,,,0,0,1,,,,,0,,,71,127
40800,note_on,,,,,12,0,1,,,,,0,,,67,127
40830,set_tempo,,,,,130,1,0,,331491,,,,,,,
40838,control_change,,,,,38,0,1,,,,,0,7,90,,
40860,note_on,,,,,0,0,1,,,,,0,,,67,0
40860,note_on,,,,,0,0,1,,,,,0,,,71,0
40860,note_on,,,,,22,0,1,,,,,0,,,74,0
40860,note_on,,,,,60,0,2,,,,,0,,,43,0
40860,note_on,,,,,0,0,2,,,,,0,,,45,119
40892,control_change,,,,,32,0,1,,,,,0,7,91,,
40920,note_on,,,,,0,0,2,,,,,0,,,43,121
40920,note_on,,,,,60,0,2,,,,,0,,,45,0
40920,note_on,,,,,0,0,1,,,,,0,,,74,114
40920,note_on,,,,,0,0,1,,,,,0,,,71,114
40920,note_on,,,,,28,0,1,,,,,0,,,79,114
40920,set_tempo,,,,,90,1,0,,326086,,,,,,,
40946,control_change,,,,,26,0,1,,,,,0,7,92,,
40975,control_change,,,,,29,0,1,,,,,0,64,0,,
40980,note_on,,,,,0,0,1,,,,,0,,,79,0
40980,note_on,,,,,0,0,1,,,,,0,,,71,0
40980,note_on,,,,,5,0,1,,,,,0,,,74,0
40980,note_on,,,,,0,0,2,,,,,0,,,55,125
40980,note_on,,,,,60,0,2,,,,,0,,,43,0
41000,control_change,,,,,20,0,1,,,,,0,7,93,,
41010,set_tempo,,,,,90,1,0,,319148,,,,,,,
41040,note_on,,,,,40,0,1,,,,,0,,,75,121
41040,note_on,,,,,0,0,1,,,,,0,,,67,121
41040,note_on,,,,,0,0,1,,,,,0,,,72,121
41040,note_on,,,,,60,0,2,,,,,0,,,55,0
41040,note_on,,,,,0,0,2,,,,,0,,,56,127
41054,control_change,,,,,14,0,1,,,,,0,7,94,,
41070,set_tempo,,,,,60,1,0,,325203,,,,,,,
41080,set_tempo,,,,,10,1,0,,323450,,,,,,,
41100,note_on,,,,,60,0,2,,,,,0,,,56,0
41100,note_on,,,,,0,0,2,,,,,0,,,55,123
41100,note_on,,,,,46,0,1,,,,,0,,,72,0
41100,note_on,,,,,0,0,1,,,,,0,,,75,0
41100,note_on,,,,,0,0,1,,,,,0,,,67,0
41108,control_change,,,,,8,0,1,,,,,0,7,95,,
41152,note_on,,,,,52,0,2,,,,,0,,,55,0
41160,note_on,,,,,0,0,1,,,,,0,,,75,126
41160,note_on,,,,,0,0,1,,,,,0,,,79,126
41160,note_on,,,,,52,0,1,,,,,0,,,84,126
41160,note_on,,,,,8,0,2,,,,,0,,,51,119
41162,control_change,,,,,2,0,1,,,,,0,7,96,,
41208,note_on,,,,,0,0,1,,,,,0,,,84,0
41208,note_on,,,,,46,0,1,,,,,0,,,75,0
41208,note_on,,,,,0,0,1,,,,,0,,,79,0
41212,note_on,,,,,52,0,2,,,,,0,,,51,0
41216,control_change,,,,,8,0,1,,,,,0,7,97,,
41220,note_on,,,,,8,0,2,,,,,0,,,48,118
41220,note_on,,,,,4,0,1,,,,,0,,,84,127
41220,note_on,,,,,0,0,1,,,,,0,,,79,127
41220,note_on,,,,,0,0,1,,,,,0,,,75,127
41268,note_on,,,,,48,0,1,,,,,0,,,75,0
41268,note_on,,,,,0,0,1,,,,,0,,,79,0
41268,note_on,,,,,0,0,1,,,,,0,,,84,0
41270,control_change,,,,,2,0,1,,,,,0,7,98,,
41272,note_on,,,,,52,0,2,,,,,0,,,48,0
41280,control_change,,,,,0,0,1,,,,,0,64,96,,
41280,note_on,,,,,0,0,1,,,,,0,,,79,127
41280,note_on,,,,,8,0,2,,,,,0,,,43,127
41280,note_on,,,,,10,0,1,,,,,0,,,74,127
41280,note_on,,,,,0,0,1,,,,,0,,,83,127
41320,set_tempo,,,,,240,1,0,,318302,,,,,,,
41323,control_change,,,,,43,0,1,,,,,0,7,99,,
41340,note_on,,,,,17,0,1,,,,,0,,,83,0
41340,note_on,,,,,0,0,1,,,,,0,,,79,0
41340,note_on,,,,,0,0,1,,,,,0,,,74,0
41340,note_on,,,,,60,0,2,,,,,0,,,43,0
41340,note_on,,,,,0,0,2,,,,,0,,,45,119
41377,control_change,,,,,37,0,1,,,,,0,7,100,,
41400,note_on,,,,,0,0,1,,,,,0,,,79,114
41400,note_on,,,,,0,0,2,,,,,0,,,43,121
41400,note_on,,,,,60,0,2,,,,,0,,,45,0
41400,set_tempo,,,,,80,1,0,,319148,,,,,,,
41400,note_on,,,,,23,0,1,,,,,0,,,86,114
41400,note_on,,,,,0,0,1,,,,,0,,,83,114
41431,control_change,,,,,31,0,1,,,,,0,7,101,,
41455,control_change,,,,,24,0,1,,,,,0,64,0,,
41460,note_on,,,,,60,0,2,,,,,0,,,43,0
41460,note_on,,,,,0,0,2,,,,,0,,,55,125
41460,note_on,,,,,5,0,1,,,,,0,,,79,0
41460,note_on,,,,,0,0,1,,,,,0,,,83,0
41460,note_on,,,,,0,0,1,,,,,0,,,86,0
41470,set_tempo,,,,,70,1,0,,316622,,,,,,,
41485,control_change,,,,,25,0,1,,,,,0,7,102,,
41520,note_on,,,,,60,0,2,,,,,0,,,55,0
41520,note_on,,,,,0,0,2,,,,,0,,,56,127
41520,note_on,,,,,0,0,1,,,,,0,,,75,121
41520,note_on,,,,,35,0,1,,,,,0,,,84,121
41520,note_on,,,,,0,0,1,,,,,0,,,79,121
41539,control_change,,,,,19,0,1,,,,,0,7,103,,
41580,note_on,,,,,60,0,2,,,,,0,,,56,0
41580,note_on,,,,,0,0,2,,,,,0,,,55,123
41580,note_on,,,,,41,0,1,,,,,0,,,75,0
41580,note_on,,,,,0,0,1,,,,,0,,,79,0
41580,note_on,,,,,0,0,1,,,,,0,,,84,0
41593,control_change,,,,,13,0,1,,,,,0,7,104,,
41632,note_on,,,,,52,0,2,,,,,0,,,55,0
41640,note_on,,,,,47,0,1,,,,,0,,,87,126
41640,note_on,,,,,0,0,1,,,,,0,,,84,126
41640,note_on,,,,,0,0,1,,,,,0,,,79,126
41640,note_on,,,,,8,0,2,,,,,0,,,51,119
41647,control_change,,,,,7,0,1,,,,,0,7,105,,
41650,set_tempo,,,,,180,1,0,,310077,,,,,,,
41688,note_on,,,,,0,0,1,,,,,0,,,84,0
41688,note_on,,,,,41,0,1,,,,,0,,,79,0
41688,note_on,,,,,0,0,1,,,,,0,,,87,0
41692,note_on,,,,,52,0,2,,,,,0,,,51,0
41700,note_on,,,,,8,0,2,,,,,0,,,48,118
41700,note_on,,,,,0,0,1,,,,,0,,,79,127
41700,note_on,,,,,0,0,1,,,,,0,,,84,127
41700,note_on,,,,,12,0,1,,,,,0,,,87,127
41701,control_change,,,,,1,0,1,,,,,0,7,106,,
41748,note_on,,,,,0,0,1,,,,,0,,,84,0
41748,note_on,,,,,47,0,1,,,,,0,,,79,0
41748,note_on,,,,,0,0,1,,,,,0,,,87,0
41752,note_on,,,,,52,0,2,,,,,0,,,48,0
41755,control_change,,,,,7,0,1,,,,,0,7,107,,
41760,note_on,,,,,8,0,2,,,,,0,,,43,127
41760,note_on,,,,,0,0,1,,,,,0,,,83,127
41760,note_on,,,,,5,0,1,,,,,0,,,86,127
41760,note_on,,,,,0,0,1,,,,,0,,,79,127
41760,control_change,,,,,0,0,1,,,,,0,64,96,,
41790,set_tempo,,,,,140,1,0,,305343,,,,,,,
41800,set_tempo,,,,,10,1,0,,304568,,,,,,,
41808,control_change,,,,,48,0,1,,,,,0,7,108,,
41820,note_on,,,,,12,0,1,,,,,0,,,83,0
41820,note_on,,,,,0,0,1,,,,,0,,,79,0
41820,note_on,,,,,0,0,2,,,,,0,,,45,119
41820,note_on,,,,,60,0,2,,,,,0,,,43,0
41820,note_on,,,,,0,0,1,,,,,0,,,86,0
41862,control_change,,,,,42,0,1,,,,,0,7,109,,
41880,note_on,,,,,0,0,2,,,,,0,,,43,121
41880,note_on,,,,,18,0,1,,,,,0,,,91,122
41880,note_on,,,,,0,0,1,,,,,0,,,86,122
41880,note_on,,,,,0,0,1,,,,,0,,,83,122
41880,note_on,,,,,60,0,2,,,,,0,,,45,0
41916,control_change,,,,,36,0,1,,,,,0,7,110,,
41935,control_change,,,,,19,0,1,,,,,0,64,0,,
41940,note_on,,,,,60,0,2,,,,,0,,,43,0
41940,note_on,,,,,0,0,2,,,,,0,,,55,125
41940,note_on,,,,,0,0,1,,,,,0,,,91,0
41940,note_on,,,,,0,0,1,,,,,0,,,86,0
41940,note_on,,,,,5,0,1,,,,,0,,,83,0
41940,set_tempo,,,,,140,1,0,,300000,,,,,,,
41970,control_change,,,,,30,0,1,,,,,0,7,111,,
42000,note_on,,,,,30,0,1,,,,,0,,,87,127
42000,note_on,,,,,0,0,2,,,,,0,,,56,127
42000,note_on,,,,,60,0,2,,,,,0,,,55,0
42000,note_on,,,,,0,0,1,,,,,0,,,79,127
42000,note_on,,,,,0,0,1,,,,,0,,,84,127
42010,set_tempo,,,,,70,1,0,,296296,,,,,,,
42024,control_change,,,,,24,0,1,,,,,0,7,112,,
42060,note_on,,,,,0,0,1,,,,,0,,,84,0
42060,note_on,,,,,0,0,1,,,,,0,,,87,0
42060,note_on,,,,,0,0,2,,,,,0,,,55,123
42060,note_on,,,,,60,0,2,,,,,0,,,56,0
42060,note_on,,,,,36,0,1,,,,,0,,,79,0
42078,control_change,,,,,18,0,1,,,,,0,7,113,,
42100,set_tempo,,,,,90,1,0,,295566,,,,,,,
42112,note_on,,,,,52,0,2,,,,,0,,,55,0
42120,note_on,,,,,0,0,1,,,,,0,,,87,127
42120,note_on,,,,,0,0,1,,,,,0,,,91,127
42120,note_on,,,,,42,0,1,,,,,0,,,96,127
42120,note_on,,,,,8,0,2,,,,,0,,,51,119
42132,control_change,,,,,12,0,1,,,,,0,7,114,,
42168,note_on,,,,,0,0,1,,,,,0,,,96,0
42168,note_on,,,,,36,0,1,,,,,0,,,87,0
42168,note_on,,,,,0,0,1,,,,,0,,,91,0
42172,note_on,,,,,52,0,2,,,,,0,,,51,0
42180,note_on,,,,,12,0,1,,,,,0,,,96,127
42180,note_on,,,,,0,0,1,,,,,0,,,91,127
42180,note_on,,,,,0,0,1,,,,,0,,,87,127
42180,note_on,,,,,8,0,2,,,,,0,,,48,118
42186,control_change,,,,,6,0,1,,,,,0,7,115,,
42210,set_tempo,,,,,110,1,0,,410958,,,,,,,
42228,note_on,,,,,42,0,1,,,,,0,,,87,0
42228,note_on,,,,,0,0,1,,,,,0,,,91,0
42228,note_on,,,,,0,0,1,,,,,0,,,96,0
42232,note_on,,,,,52,0,2,,,,,0,,,48,0
42240,control_change,,,,,0,0,1,,,,,0,64,96,,
42240,control_change,,,,,0,0,1,,,,,0,7,116,,
42240,note_on,,,,,0,0,1,,,,,0,,,91,127
42240,note_on,,,,,8,0,2,,,,,0,,,43,127
42240,note_on,,,,,12,0,1,,,,,0,,,86,127
42240,note_on,,,,,0,0,1,,,,,0,,,95,127
42288,note_on,,,,,48,0,1,,,,,0,,,95,0
42288,note_on,,,,,0,0,1,,,,,0,,,91,0
42288,note_on,,,,,0,0,1,,,,,0,,,86,0
42295,control_change,,,,,7,0,1,,,,,0,64,0,,
42300,note_on,,,,,60,0,2,,,,,0,,,43,0
42300,note_on,,,,,5,0,1,,,,,0,,,91,125
42300,control_change,,,,,0,0,1,,,,,0,7,80,,
42300,control_change,,,,,0,0,1,,,,,0,64,96,,
42360,note_on,,,,,0,0,1,,,,,0,,,90,119
42360,note_on,,,,,60,0,2,,,,,0,,,76,111
42360,note_on,,,,,60,0,1,,,,,0,,,91,0
42408,note_on,,,,,48,0,2,,,,,0,,,76,0
42420,note_on,,,,,0,0,1,,,,,0,,,93,111
42420,note_on,,,,,60,0,1,,,,,0,,,90,0
42450,set_tempo,,,,,240,1,0,,408163,,,,,,,
42480,note_on,,,,,60,0,1,,,,,0,,,93,0
42480,note_on,,,,,0,0,1,,,,,0,,,91,112
42480,note_on,,,,,72,0,2,,,,,0,,,73,102
42510,set_tempo,,,,,60,1,0,,405405,,,,,,,
42528,note_on,,,,,48,0,2,,,,,0,,,73,0
42540,note_on,,,,,60,0,1,,,,,0,,,91,0
42540,note_on,,,,,0,0,1,,,,,0,,,89,95
42570,set_tempo,,,,,60,1,0,,402684,,,,,,,
42580,set_tempo,,,,,10,1,0,,400000,,,,,,,
42600,note_on,,,,,72,0,2,,,,,0,,,82,84
42600,note_on,,,,,0,0,1,,,,,0,,,88,84
42600,note_on,,,,,60,0,1,,,,,0,,,89,0
42620,set_tempo,,,,,40,1,0,,394736,,,,,,,
42648,note_on,,,,,48,0,2,,,,,0,,,82,0
42660,note_on,,,,,60,0,1,,,,,0,,,88,0
42660,set_tempo,,,,,40,1,0,,392156,,,,,,,
42660,note_on,,,,,12,0,2,,,,,0,,,82,76
42660,note_on,,,,,0,0,1,,,,,0,,,91,78
42705,control_change,,,,,45,0,1,,,,,0,64,0,,
42708,note_on,,,,,3,0,1,,,,,0,,,91,0
42708,note_on,,,,,48,0,2,,,,,0,,,82,0
42720,note_on,,,,,12,0,2,,,,,0,,,81,78
42720,note_on,,,,,12,0,1,,,,,0,,,89,84
42740,set_tempo,,,,,80,1,0,,378548,,,,,,,
42768,note_on,,,,,48,0,2,,,,,0,,,81,0
42780,note_on,,,,,60,0,1,,,,,0,,,89,0
42780,note_on,,,,,0,0,1,,,,,0,,,88,76
42840,note_on,,,,,60,0,1,,,,,0,,,88,0
42840,note_on,,,,,0,0,1,,,,,0,,,86,72
42840,note_on,,,,,72,0,2,,,,,0,,,77,71
42860,set_tempo,,,,,120,1,0,,373831,,,,,,,
42888,note_on,,,,,48,0,2,,,,,0,,,77,0
42900,note_on,,,,,60,0,1,,,,,0,,,86,0
42900,note_on,,,,,0,0,1,,,,,0,,,87,64
42960,note_on,,,,,60,0,1,,,,,0,,,87,0
42960,note_on,,,,,0,0,1,,,,,0,,,88,77
42960,note_on,,,,,72,0,2,,,,,0,,,76,68
43008,note_on,,,,,48,0,2,,,,,0,,,76,0
43020,note_on,,,,,0,0,1,,,,,0,,,86,72
43020,note_on,,,,,60,0,1,,,,,0,,,88,0
43060,set_tempo,,,,,200,1,0,,368098,,,,,,,
43080,note_on,,,,,60,0,1,,,,,0,,,86,0
43080,note_on,,,,,0,0,1,,,,,0,,,85,66
43080,control_change,,,,,0,0,1,,,,,0,64,95,,
43080,note_on,,,,,72,0,2,,,,,0,,,67,63
43080,note_on,,,,,0,0,2,,,,,0,,,70,63
43128,note_on,,,,,0,0,2,,,,,0,,,67,0
43128,note_on,,,,,48,0,2,,,,,0,,,70,0
43140,note_on,,,,,60,0,1,,,,,0,,,85,0
43140,note_on,,,,,0,0,1,,,,,0,,,88,61
43140,note_on,,,,,0,0,2,,,,,0,,,70,61
43140,set_tempo,,,,,80,1,0,,361445,,,,,,,
43140,note_on,,,,,12,0,2,,,,,0,,,67,61
43188,note_on,,,,,48,0,1,,,,,0,,,88,0
43188,note_on,,,,,48,0,2,,,,,0,,,70,0
43188,note_on,,,,,0,0,2,,,,,0,,,67,0
43200,note_on,,,,,12,0,2,,,,,0,,,65,70
43200,note_on,,,,,0,0,2,,,,,0,,,69,70
43200,note_on,,,,,12,0,1,,,,,0,,,86,71
43200,control_change,,,,,0,0,1,,,,,0,64,0,,
43230,set_tempo,,,,,90,1,0,,353982,,,,,,,
43248,note_on,,,,,48,0,2,,,,,0,,,69,0
43248,note_on,,,,,0,0,2,,,,,0,,,65,0
43260,note_on,,,,,0,0,1,,,,,0,,,84,65
43260,note_on,,,,,60,0,1,,,,,0,,,86,0
43290,set_tempo,,,,,60,1,0,,347826,,,,,,,
43320,note_on,,,,,0,0,1,,,,,0,,,83,58
43320,note_on,,,,,60,0,1,,,,,0,,,84,0
43320,note_on,,,,,0,0,2,,,,,0,,,68,62
43320,note_on,,,,,72,0,2,,,,,0,,,65,62
43368,note_on,,,,,48,0,2,,,,,0,,,68,0
43368,note_on,,,,,0,0,2,,,,,0,,,65,0
43380,note_on,,,,,0,0,1,,,,,0,,,86,55
43380,note_on,,,,,60,0,1,,,,,0,,,83,0
43380,set_tempo,,,,,90,1,0,,340909,,,,,,,
43440,note_on,,,,,0,0,2,,,,,0,,,67,58
43440,note_on,,,,,60,0,1,,,,,0,,,86,0
43440,note_on,,,,,72,0,2,,,,,0,,,64,58
43440,note_on,,,,,0,0,1,,,,,0,,,84,62
43460,set_tempo,,,,,80,1,0,,335195,,,,,,,
43488,note_on,,,,,0,0,2,,,,,0,,,64,0
43488,note_on,,,,,48,0,2,,,,,0,,,67,0
43500,note_on,,,,,0,0,1,,,,,0,,,83,59
43500,note_on,,,,,60,0,1,,,,,0,,,84,0
43540,set_tempo,,,,,80,1,0,,333333,,,,,,,
43560,note_on,,,,,60,0,1,,,,,0,,,83,0
43560,note_on,,,,,0,0,1,,,,,0,,,81,60
43560,note_on,,,,,72,0,2,,,,,0,,,72,60
43560,control_change,,,,,0,0,1,,,,,0,64,95,,
43608,note_on,,,,,48,0,2,,,,,0,,,72,0
43620,note_on,,,,,60,0,1,,,,,0,,,81,0
43620,note_on,,,,,0,0,1,,,,,0,,,84,61
43620,note_on,,,,,12,0,2,,,,,0,,,72,62
43668,note_on,,,,,48,0,2,,,,,0,,,72,0
43680,note_on,,,,,60,0,1,,,,,0,,,84,0
43680,note_on,,,,,0,0,1,,,,,0,,,83,65
43680,control_change,,,,,0,0,1,,,,,0,64,0,,
43680,note_on,,,,,12,0,2,,,,,0,,,74,63
43728,note_on,,,,,48,0,2,,,,,0,,,74,0
43740,note_on,,,,,60,0,1,,,,,0,,,83,0
43740,note_on,,,,,0,0,1,,,,,0,,,81,62
43800,note_on,,,,,60,0,1,,,,,0,,,81,0
43800,note_on,,,,,0,0,1,,,,,0,,,79,62
43800,note_on,,,,,72,0,2,,,,,0,,,76,59
43840,set_tempo,,,,,300,1,0,,335195,,,,,,,
43848,note_on,,,,,48,0,2,,,,,0,,,76,0
43860,note_on,,,,,0,0,1,,,,,0,,,80,60
43860,note_on,,,,,12,0,2,,,,,0,,,76,57
43860,note_on,,,,,60,0,1,,,,,0,,,79,0
43870,set_tempo,,,,,30,1,0,,337078,,,,,,,
43908,note_on,,,,,48,0,2,,,,,0,,,76,0
43920,note_on,,,,,12,0,2,,,,,0,,,73,56
43920,note_on,,,,,0,0,1,,,,,0,,,81,59
43920,note_on,,,,,60,0,1,,,,,0,,,80,0
43968,note_on,,,,,48,0,2,,,,,0,,,73,0
43980,note_on,,,,,60,0,1,,,,,0,,,81,0
43980,note_on,,,,,0,0,1,,,,,0,,,79,58
43990,set_tempo,,,,,120,1,0,,340909,,,,,,,
44010,set_tempo,,,,,20,1,0,,342857,,,,,,,
44040,note_on,,,,,60,0,1,,,,,0,,,79,0
44040,note_on,,,,,0,0,1,,,,,0,,,78,58
44040,note_on,,,,,72,0,2,,,,,0,,,74,55
44040,control_change,,,,,0,0,1,,,,,0,64,94,,
44088,note_on,,,,,48,0,2,,,,,0,,,74,0
44100,note_on,,,,,0,0,1,,,,,0,,,81,58
44100,note_on,,,,,60,0,1,,,,,0,,,78,0
44148,note_on,,,,,48,0,1,,,,,0,,,81,0
44150,set_tempo,,,,,140,1,0,,344827,,,,,,,
44160,control_change,,,,,0,0,1,,,,,0,64,0,,
44160,note_on,,,,,12,0,1,,,,,0,,,79,61
44160,note_on,,,,,72,0,2,,,,,0,,,71,52
44208,note_on,,,,,48,0,2,,,,,0,,,71,0
44210,set_tempo,,,,,60,1,0,,346820,,,,,,,
44220,note_on,,,,,60,0,1,,,,,0,,,79,0
44220,note_on,,,,,0,0,1,,,,,0,,,77,55
44270,set_tempo,,,,,60,1,0,,348837,,,,,,,
44280,note_on,,,,,72,0,2,,,,,0,,,72,51
44280,note_on,,,,,0,0,1,,,,,0,,,76,55
44280,note_on,,,,,60,0,1,,,,,0,,,77,0
44280,control_change,,,,,0,0,1,,,,,0,64,95,,
44328,note_on,,,,,48,0,2,,,,,0,,,72,0
44340,note_on,,,,,12,0,2,,,,,0,,,72,49
44340,note_on,,,,,0,0,1,,,,,0,,,79,54
44340,note_on,,,,,60,0,1,,,,,0,,,76,0
44350,set_tempo,,,,,80,1,0,,352941,,,,,,,
44388,note_on,,,,,48,0,2,,,,,0,,,72,0
44400,note_on,,,,,60,0,1,,,,,0,,,79,0
44400,control_change,,,,,0,0,1,,,,,0,64,0,,
44400,note_on,,,,,0,0,1,,,,,0,,,77,52
44400,note_on,,,,,12,0,2,,,,,0,,,69,48
44430,set_tempo,,,,,80,1,0,,357142,,,,,,,
44448,note_on,,,,,48,0,2,,,,,0,,,69,0
44460,note_on,,,,,60,0,1,,,,,0,,,77,0
44460,note_on,,,,,0,0,1,,,,,0,,,76,52
44510,set_tempo,,,,,80,1,0,,359281,,,,,,,
44520,note_on,,,,,60,0,1,,,,,0,,,76,0
44520,note_on,,,,,72,0,2,,,,,0,,,71,45
44520,note_on,,,,,0,0,1,,,,,0,,,74,50
44530,set_tempo,,,,,20,1,0,,361445,,,,,,,
44568,note_on,,,,,48,0,2,,,,,0,,,71,0
44580,note_on,,,,,60,0,1,,,,,0,,,74,0
44580,note_on,,,,,0,0,1,,,,,0,,,77,50
44610,set_tempo,,,,,80,1,0,,363636,,,,,,,
44628,note_on,,,,,48,0,1,,,,,0,,,77,0
44640,note_on,,,,,72,0,2,,,,,0,,,68,44
44640,note_on,,,,,12,0,1,,,,,0,,,76,48
44670,set_tempo,,,,,60,1,0,,365853,,,,,,,
44688,note_on,,,,,48,0,2,,,,,0,,,68,0
44700,note_on,,,,,0,0,1,,,,,0,,,74,47
44700,note_on,,,,,60,0,1,,,,,0,,,76,0
44760,note_on,,,,,60,0,1,,,,,0,,,74,0
44760,note_on,,,,,0,0,1,,,,,0,,,73,46
44760,note_on,,,,,72,0,2,,,,,0,,,69,41
44760,control_change,,,,,0,0,1,,,,,0,64,96,,
44770,set_tempo,,,,,100,1,0,,370370,,,,,,,
44808,note_on,,,,,48,0,2,,,,,0,,,69,0
44820,note_on,,,,,12,0,2,,,,,0,,,69,40
44820,note_on,,,,,60,0,1,,,,,0,,,73,0
44820,note_on,,,,,0,0,1,,,,,0,,,76,46
44830,set_tempo,,,,,60,1,0,,372670,,,,,,,
44868,note_on,,,,,48,0,2,,,,,0,,,69,0
44880,control_change,,,,,0,0,1,,,,,0,64,0,,
44880,note_on,,,,,0,0,1,,,,,0,,,74,46
44880,note_on,,,,,60,0,1,,,,,0,,,76,0
44880,note_on,,,,,12,0,2,,,,,0,,,66,40
44890,set_tempo,,,,,60,1,0,,375000,,,,,,,
44928,note_on,,,,,48,0,2,,,,,0,,,66,0
44940,note_on,,,,,60,0,1,,,,,0,,,74,0
44940,note_on,,,,,0,0,1,,,,,0,,,72,44
44970,set_tempo,,,,,80,1,0,,379746,,,,,,,
45000,note_on,,,,,72,0,2,,,,,0,,,67,37
45000,note_on,,,,,60,0,1,,,,,0,,,72,0
45000,note_on,,,,,0,0,1,,,,,0,,,71,44
45000,control_change,,,,,0,0,1,,,,,0,64,95,,
45030,set_tempo,,,,,60,1,0,,382165,,,,,,,
45060,note_on,,,,,0,0,2,,,,,0,,,65,37
45060,note_on,,,,,60,0,2,,,,,0,,,67,0
45060,note_on,,,,,60,0,1,,,,,0,,,71,0
45060,note_on,,,,,0,0,1,,,,,0,,,74,42
45090,set_tempo,,,,,60,1,0,,384615,,,,,,,
45115,control_change,,,,,55,0,1,,,,,0,64,0,,
45120,note_on,,,,,5,0,1,,,,,0,,,74,0
45120,control_change,,,,,0,0,1,,,,,0,64,95,,
45120,note_on,,,,,60,0,2,,,,,0,,,65,0
45120,note_on,,,,,0,0,2,,,,,0,,,64,36
45120,note_on,,,,,0,0,1,,,,,0,,,72,40
45170,set_tempo,,,,,80,1,0,,389610,,,,,,,
45180,note_on,,,,,60,0,2,,,,,0,,,64,0
45180,note_on,,,,,60,0,1,,,,,0,,,72,0
45180,note_on,,,,,0,0,1,,,,,0,,,71,39
45180,note_on,,,,,0,0,2,,,,,0,,,67,36
45240,note_on,,,,,60,0,2,,,,,0,,,67,0
45240,note_on,,,,,60,0,1,,,,,0,,,71,0
45240,note_on,,,,,0,0,1,,,,,0,,,69,37
45240,note_on,,,,,0,0,2,,,,,0,,,65,34
45270,set_tempo,,,,,100,1,0,,405405,,,,,,,
45300,note_on,,,,,60,0,2,,,,,0,,,65,0
45300,note_on,,,,,0,0,2,,,,,0,,,64,34
45300,note_on,,,,,60,0,1,,,,,0,,,69,0
45300,note_on,,,,,0,0,1,,,,,0,,,72,36
45355,control_change,,,,,55,0,1,,,,,0,64,0,,
45360,control_change,,,,,0,0,1,,,,,0,64,95,,
45360,note_on,,,,,0,0,1,,,,,0,,,71,36
45360,note_on,,,,,5,0,1,,,,,0,,,72,0
45360,note_on,,,,,0,0,2,,,,,0,,,63,33
45360,note_on,,,,,60,0,2,,,,,0,,,64,0
45410,set_tempo,,,,,140,1,0,,422535,,,,,,,
45420,note_on,,,,,0,0,2,,,,,0,,,65,33
45420,note_on,,,,,60,0,1,,,,,0,,,71,0
45420,note_on,,,,,60,0,2,,,,,0,,,63,0
45420,note_on,,,,,0,0,1,,,,,0,,,69,34
45480,note_on,,,,,0,0,1,,,,,0,,,67,34
45480,note_on,,,,,60,0,1,,,,,0,,,69,0
45480,note_on,,,,,60,0,2,,,,,0,,,65,0
45480,note_on,,,,,0,0,2,,,,,0,,,64,32
45540,note_on,,,,,0,0,1,,,,,0,,,71,34
45540,note_on,,,,,60,0,1,,,,,0,,,67,0
45540,note_on,,,,,0,0,2,,,,,0,,,62,31
45540,note_on,,,,,60,0,2,,,,,0,,,64,0
45560,set_tempo,,,,,150,1,0,,422535,,,,,,,
45570,set_tempo,,,,,10,1,0,,425531,,,,,,,
45585,control_change,,,,,45,0,1,,,,,0,64,0,,
45590,set_tempo,,,,,20,1,0,,424028,,,,,,,
45600,note_on,,,,,15,0,1,,,,,0,,,71,0
45600,control_change,,,,,0,0,1,,,,,0,64,95,,
45600,note_on,,,,,0,0,2,,,,,0,,,61,31
45600,note_on,,,,,60,0,2,,,,,0,,,62,0
45600,note_on,,,,,0,0,1,,,,,0,,,69,32
45620,set_tempo,,,,,30,1,0,,446096,,,,,,,
45630,set_tempo,,,,,10,1,0,,447761,,,,,,,
45660,note_on,,,,,60,0,1,,,,,0,,,69,0
45660,note_on,,,,,0,0,1,,,,,0,,,67,30
45660,note_on,,,,,60,0,2,,,,,0,,,61,0
45660,note_on,,,,,0,0,2,,,,,0,,,64,30
45680,set_tempo,,,,,50,1,0,,466926,,,,,,,
45720,set_tempo,,,,,40,1,0,,493827,,,,,,,
45720,note_on,,,,,60,0,1,,,,,0,,,67,0
45720,note_on,,,,,0,0,1,,,,,0,,,66,30
45720,note_on,,,,,60,0,2,,,,,0,,,64,0
45720,note_on,,,,,0,0,2,,,,,0,,,62,30
45780,note_on,,,,,60,0,1,,,,,0,,,66,0
45780,note_on,,,,,0,0,1,,,,,0,,,69,30
45780,note_on,,,,,0,0,2,,,,,0,,,60,30
45780,note_on,,,,,60,0,2,,,,,0,,,62,0
45790,set_tempo,,,,,70,1,0,,512820,,,,,,,
45835,control_change,,,,,55,0,1,,,,,0,64,0,,
45840,note_on,,,,,60,0,2,,,,,0,,,60,0
45840,note_on,,,,,0,0,2,,,,,0,,,59,30
45840,set_tempo,,,,,50,1,0,,528634,,,,,,,
45840,control_change,,,,,0,0,1,,,,,0,64,94,,
45840,note_on,,,,,0,0,1,,,,,0,,,67,29
45840,note_on,,,,,5,0,1,,,,,0,,,69,0
45885,control_change,,,,,45,0,1,,,,,0,64,0,,
45888,note_on,,,,,48,0,2,,,,,0,,,59,0
45900,note_on,,,,,0,0,1,,,,,0,,,69,34
45900,set_tempo,,,,,60,1,0,,535714,,,,,,,
45900,note_on,,,,,12,0,2,,,,,0,,,43,34
45900,note_on,,,,,15,0,1,,,,,0,,,67,0
45948,note_on,,,,,48,0,2,,,,,0,,,43,0
45948,note_on,,,,,48,0,1,,,,,0,,,69,0
45950,set_tempo,,,,,50,1,0,,538116,,,,,,,
45960,note_on,,,,,12,0,1,,,,,0,,,65,36
45960,note_on,,,,,12,0,2,,,,,0,,,45,40
46008,note_on,,,,,48,0,1,,,,,0,,,65,0
46008,note_on,,,,,48,0,2,,,,,0,,,45,0
46020,note_on,,,,,12,0,1,,,,,0,,,67,39
46020,note_on,,,,,12,0,2,,,,,0,,,47,43
46020,set_tempo,,,,,70,1,0,,552995,,,,,,,
46030,set_tempo,,,,,10,1,0,,582524,,,,,,,
46068,note_on,,,,,48,0,2,,,,,0,,,47,0
46068,note_on,,,,,48,0,1,,,,,0,,,67,0
46080,set_tempo,,,,,50,1,0,,576923,,,,,,,
46080,note_on,,,,,12,0,2,,,,,0,,,48,31
46080,control_change,,,,,0,0,1,,,,,0,64,95,,
46080,note_on,,,,,12,0,1,,,,,0,,,64,42
46090,set_tempo,,,,,10,1,0,,571428,,,,,,,
46120,set_tempo,,,,,30,1,0,,526315,,,,,,,
46134,note_on,,,,,54,0,1,,,,,0,,,64,0
46140,note_on,,,,,60,0,2,,,,,0,,,48,0
46140,note_on,,,,,6,0,1,,,,,0,,,67,39
46170,set_tempo,,,,,50,1,0,,466926,,,,,,,
46194,note_on,,,,,54,0,1,,,,,0,,,67,0
46200,note_on,,,,,6,0,1,,,,,0,,,65,35
46200,control_change,,,,,0,0,1,,,,,0,64,0,,
46200,note_on,,,,,0,0,2,,,,,0,,,55,35
46200,note_on,,,,,60,0,2,,,,,0,,,60,35
46210,set_tempo,,,,,40,1,0,,434782,,,,,,,
46220,set_tempo,,,,,10,1,0,,433212,,,,,,,
46250,set_tempo,,,,,30,1,0,,424028,,,,,,,
46254,note_on,,,,,54,0,1,,,,,0,,,65,0
46260,note_on,,,,,6,0,1,,,,,0,,,64,32
46260,note_on,,,,,60,0,2,,,,,0,,,55,0
46260,note_on,,,,,0,0,2,,,,,0,,,60,0
46314,note_on,,,,,54,0,1,,,,,0,,,64,0
46320,note_on,,,,,6,0,1,,,,,0,,,65,41
46320,note_on,,,,,60,0,2,,,,,0,,,60,36
46320,note_on,,,,,0,0,2,,,,,0,,,57,36
46340,set_tempo,,,,,90,1,0,,408163,,,,,,,
46360,set_tempo,,,,,20,1,0,,398671,,,,,,,
46374,note_on,,,,,54,0,1,,,,,0,,,65,0
46380,note_on,,,,,6,0,1,,,,,0,,,69,33
46380,note_on,,,,,0,0,2,,,,,0,,,60,0
46380,note_on,,,,,60,0,2,,,,,0,,,57,0
46420,set_tempo,,,,,60,1,0,,389610,,,,,,,
46434,note_on,,,,,54,0,1,,,,,0,,,69,0
46440,note_on,,,,,6,0,1,,,,,0,,,67,38
46440,note_on,,,,,60,0,2,,,,,0,,,48,35
46485,note_on,,,,,45,0,2,,,,,0,,,48,0
46490,set_tempo,,,,,70,1,0,,387096,,,,,,,
46494,note_on,,,,,54,0,1,,,,,0,,,67,0
46500,note_on,,,,,6,0,1,,,,,0,,,65,41
46500,note_on,,,,,15,0,2,,,,,0,,,48,38
46500,set_tempo,,,,,10,1,0,,384615,,,,,,,
46545,note_on,,,,,45,0,2,,,,,0,,,48,0
46550,set_tempo,,,,,50,1,0,,431654,,,,,,,
46554,note_on,,,,,54,0,1,,,,,0,,,65,0
46560,note_on,,,,,6,0,1,,,,,0,,,64,45
46560,control_change,,,,,0,0,1,,,,,0,64,95,,
46560,note_on,,,,,15,0,2,,,,,0,,,48,39
46610,set_tempo,,,,,60,1,0,,375000,,,,,,,
46614,note_on,,,,,54,0,1,,,,,0,,,64,0
46620,note_on,,,,,60,0,2,,,,,0,,,48,0
46620,note_on,,,,,6,0,1,,,,,0,,,67,39
46674,note_on,,,,,54,0,1,,,,,0,,,67,0
46680,note_on,,,,,6,0,1,,,,,0,,,72,43
46680,note_on,,,,,0,0,2,,,,,0,,,55,37
46680,control_change,,,,,0,0,1,,,,,0,64,0,,
46680,note_on,,,,,60,0,2,,,,,0,,,60,37
46734,note_on,,,,,54,0,1,,,,,0,,,72,0
46740,note_on,,,,,6,0,1,,,,,0,,,76,46
46740,note_on,,,,,0,0,2,,,,,0,,,60,0
46740,note_on,,,,,60,0,2,,,,,0,,,55,0
46794,note_on,,,,,54,0,1,,,,,0,,,76,0
46800,note_on,,,,,60,0,2,,,,,0,,,64,40
46800,note_on,,,,,0,0,2,,,,,0,,,60,40
46800,note_on,,,,,6,0,1,,,,,0,,,79,47
46830,set_tempo,,,,,220,1,0,,370370,,,,,,,
46840,set_tempo,,,,,10,1,0,,368098,,,,,,,
46860,note_on,,,,,0,0,1,,,,,0,,,81,42
46860,note_on,,,,,0,0,2,,,,,0,,,64,0
46860,note_on,,,,,60,0,2,,,,,0,,,60,0
46860,note_on,,,,,60,0,1,,,,,0,,,79,0
46910,set_tempo,,,,,70,1,0,,365853,,,,,,,
46910,note_on,,,,,50,0,1,,,,,0,,,81,0
46920,note_on,,,,,60,0,2,,,,,0,,,48,36
46920,note_on,,,,,10,0,1,,,,,0,,,79,38
46965,note_on,,,,,45,0,1,,,,,0,,,79,0
46965,note_on,,,,,45,0,2,,,,,0,,,48,0
46980,note_on,,,,,15,0,1,,,,,0,,,76,35
46980,note_on,,,,,15,0,2,,,,,0,,,48,40
46990,set_tempo,,,,,80,1,0,,363636,,,,,,,
47025,note_on,,,,,45,0,2,,,,,0,,,48,0
47025,note_on,,,,,45,0,1,,,,,0,,,76,0
47040,note_on,,,,,15,0,2,,,,,0,,,47,42
47040,note_on,,,,,15,0,1,,,,,0,,,77,47
47040,control_change,,,,,0,0,1,,,,,0,64,95,,
47050,set_tempo,,,,,60,1,0,,394736,,,,,,,
47100,note_on,,,,,60,0,1,,,,,0,,,77,0
47100,note_on,,,,,60,0,2,,,,,0,,,47,0
47100,set_tempo,,,,,50,1,0,,359281,,,,,,,
47100,note_on,,,,,0,0,1,,,,,0,,,79,40
47120,set_tempo,,,,,20,1,0,,356083,,,,,,,
47150,note_on,,,,,50,0,1,,,,,0,,,79,0
47160,control_change,,,,,0,0,1,,,,,0,64,0,,
47160,note_on,,,,,10,0,1,,,,,0,,,77,43
47160,note_on,,,,,60,0,2,,,,,0,,,65,37
47160,note_on,,,,,0,0,2,,,,,0,,,62,37
47160,note_on,,,,,0,0,2,,,,,0,,,55,37
47214,note_on,,,,,54,0,1,,,,,0,,,77,0
47220,note_on,,,,,0,0,2,,,,,0,,,65,0
47220,note_on,,,,,0,0,2,,,,,0,,,62,0
47220,note_on,,,,,60,0,2,,,,,0,,,55,0
47220,set_tempo,,,,,100,1,0,,350877,,,,,,,
47220,note_on,,,,,6,0,1,,,,,0,,,86,46
47250,set_tempo,,,,,30,1,0,,352941,,,,,,,
47274,note_on,,,,,54,0,1,,,,,0,,,86,0
47280,note_on,,,,,60,0,2,,,,,0,,,48,43
47280,set_tempo,,,,,30,1,0,,387096,,,,,,,
47280,note_on,,,,,6,0,1,,,,,0,,,76,47
47280,control_change,,,,,0,0,1,,,,,0,64,95,,
47340,note_on,,,,,60,0,2,,,,,0,,,48,0
47340,note_on,,,,,60,0,1,,,,,0,,,76,0
47340,note_on,,,,,0,0,1,,,,,0,,,77,41
47340,set_tempo,,,,,60,1,0,,348837,,,,,,,
47390,note_on,,,,,50,0,1,,,,,0,,,77,0
47400,note_on,,,,,60,0,2,,,,,0,,,64,41
47400,control_change,,,,,0,0,1,,,,,0,64,0,,
47400,note_on,,,,,10,0,1,,,,,0,,,76,44
47400,note_on,,,,,0,0,2,,,,,0,,,60,41
47400,note_on,,,,,0,0,2,,,,,0,,,55,41
47450,set_tempo,,,,,110,1,0,,351906,,,,,,,
47454,note_on,,,,,54,0,1,,,,,0,,,76,0
47460,note_on,,,,,0,0,2,,,,,0,,,64,0
47460,note_on,,,,,6,0,1,,,,,0,,,84,47
47460,note_on,,,,,0,0,2,,,,,0,,,60,0
47460,note_on,,,,,60,0,2,,,,,0,,,55,0
47514,note_on,,,,,54,0,1,,,,,0,,,84,0
47520,control_change,,,,,0,0,1,,,,,0,64,96,,
47520,note_on,,,,,6,0,1,,,,,0,,,83,51
47520,note_on,,,,,60,0,2,,,,,0,,,43,46
47550,set_tempo,,,,,100,1,0,,356083,,,,,,,
47570,set_tempo,,,,,20,1,0,,357142,,,,,,,
47574,note_on,,,,,54,0,1,,,,,0,,,83,0
47580,note_on,,,,,60,0,2,,,,,0,,,43,0
47580,note_on,,,,,6,0,1,,,,,0,,,79,49
47634,note_on,,,,,54,0,1,,,,,0,,,79,0
47640,set_tempo,,,,,70,1,0,,362537,,,,,,,
47640,note_on,,,,,0,0,2,,,,,0,,,59,39
47640,note_on,,,,,60,0,2,,,,,0,,,62,39
47640,note_on,,,,,0,0,2,,,,,0,,,55,39
47640,note_on,,,,,6,0,1,,,,,0,,,74,46
47640,control_change,,,,,0,0,1,,,,,0,64,0,,
47650,set_tempo,,,,,10,1,0,,363636,,,,,,,
47680,set_tempo,,,,,30,1,0,,371517,,,,,,,
47685,note_on,,,,,45,0,2,,,,,0,,,55,0
47685,note_on,,,,,0,0,2,,,,,0,,,62,0
47685,note_on,,,,,0,0,2,,,,,0,,,59,0
47694,note_on,,,,,54,0,1,,,,,0,,,74,0
47700,note_on,,,,,0,0,2,,,,,0,,,55,37
47700,note_on,,,,,15,0,2,,,,,0,,,62,37
47700,note_on,,,,,0,0,2,,,,,0,,,59,37
47700,note_on,,,,,6,0,1,,,,,0,,,71,45
47710,set_tempo,,,,,30,1,0,,382165,,,,,,,
47745,note_on,,,,,0,0,2,,,,,0,,,62,0
47745,note_on,,,,,0,0,2,,,,,0,,,59,0
47745,note_on,,,,,45,0,2,,,,,0,,,55,0
47750,set_tempo,,,,,40,1,0,,390879,,,,,,,
47754,note_on,,,,,54,0,1,,,,,0,,,71,0
47760,note_on,,,,,0,0,2,,,,,0,,,59,34
47760,note_on,,,,,15,0,2,,,,,0,,,62,34
47760,note_on,,,,,6,0,1,,,,,0,,,67,49
47760,note_on,,,,,0,0,2,,,,,0,,,55,34
47810,set_tempo,,,,,60,1,0,,402684,,,,,,,
47820,note_on,,,,,60,0,1,,,,,0,,,67,0
47820,note_on,,,,,0,0,1,,,,,0,,,69,43
47827,note_on,,,,,67,0,2,,,,,0,,,55,0
47827,note_on,,,,,0,0,2,,,,,0,,,62,0
47827,note_on,,,,,0,0,2,,,,,0,,,59,0
47830,set_tempo,,,,,20,1,0,,412371,,,,,,,
47874,note_on,,,,,54,0,1,,,,,0,,,69,0
47880,note_on,,,,,53,0,2,,,,,0,,,43,33
47880,note_on,,,,,6,0,1,,,,,0,,,65,38
47880,control_change,,,,,0,0,1,,,,,0,64,94,,
47910,set_tempo,,,,,80,1,0,,415224,,,,,,,
47934,note_on,,,,,54,0,1,,,,,0,,,65,0
47940,note_on,,,,,0,0,2,,,,,0,,,47,41
47940,note_on,,,,,6,0,1,,,,,0,,,67,33
47940,note_on,,,,,60,0,2,,,,,0,,,43,0
47950,set_tempo,,,,,40,1,0,,427046,,,,,,,
47980,set_tempo,,,,,30,1,0,,431654,,,,,,,
47990,set_tempo,,,,,10,1,0,,431654,,,,,,,
47994,note_on,,,,,54,0,1,,,,,0,,,67,0
47995,control_change,,,,,1,0,1,,,,,0,64,0,,
48000,control_change,,,,,0,0,1,,,,,0,64,95,,
48000,note_on,,,,,5,0,1,,,,,0,,,64,42
48000,note_on,,,,,0,0,2,,,,,0,,,48,31
48000,note_on,,,,,60,0,2,,,,,0,,,47,0
48000,set_tempo,,,,,10,1,0,,422535,,,,,,,
48010,set_tempo,,,,,10,1,0,,419580,,,,,,,
48030,set_tempo,,,,,20,1,0,,406779,,,,,,,
48050,set_tempo,,,,,20,1,0,,405405,,,,,,,
48054,note_on,,,,,54,0,1,,,,,0,,,64,0
48060,note_on,,,,,60,0,2,,,,,0,,,48,0
48060,note_on,,,,,6,0,1,,,,,0,,,67,39
48070,set_tempo,,,,,20,1,0,,404040,,,,,,,
48080,set_tempo,,,,,10,1,0,,387096,,,,,,,
48114,note_on,,,,,54,0,1,,,,,0,,,67,0
48120,note_on,,,,,6,0,1,,,,,0,,,65,35
48120,note_on,,,,,60,0,2,,,,,0,,,60,35
48120,note_on,,,,,0,0,2,,,,,0,,,55,35
48120,control_change,,,,,0,0,1,,,,,0,64,0,,
48140,set_tempo,,,,,60,1,0,,380952,,,,,,,
48170,set_tempo,,,,,30,1,0,,377358,,,,,,,
48174,note_on,,,,,54,0,1,,,,,0,,,65,0
48180,note_on,,,,,6,0,1,,,,,0,,,64,32
48180,note_on,,,,,60,0,2,,,,,0,,,55,0
48180,note_on,,,,,0,0,2,,,,,0,,,60,0
48234,note_on,,,,,54,0,1,,,,,0,,,64,0
48240,note_on,,,,,6,0,1,,,,,0,,,65,41
48240,note_on,,,,,0,0,2,,,,,0,,,57,36
48240,note_on,,,,,60,0,2,,,,,0,,,60,36
48250,set_tempo,,,,,80,1,0,,376175,,,,,,,
48290,set_tempo,,,,,40,1,0,,377358,,,,,,,
48294,note_on,,,,,54,0,1,,,,,0,,,65,0
48300,note_on,,,,,0,0,2,,,,,0,,,60,0
48300,note_on,,,,,6,0,1,,,,,0,,,69,33
48300,note_on,,,,,60,0,2,,,,,0,,,57,0
48354,note_on,,,,,54,0,1,,,,,0,,,69,0
48360,note_on,,,,,6,0,1,,,,,0,,,67,38
48360,note_on,,,,,60,0,2,,,,,0,,,48,35
48390,set_tempo,,,,,100,1,0,,384615,,,,,,,
48400,set_tempo,,,,,10,1,0,,385852,,,,,,,
48405,note_on,,,,,45,0,2,,,,,0,,,48,0
48414,note_on,,,,,54,0,1,,,,,0,,,67,0
48420,note_on,,,,,6,0,1,,,,,0,,,65,41
48420,set_tempo,,,,,20,1,0,,384615,,,,,,,
48420,note_on,,,,,15,0,2,,,,,0,,,48,38
48465,note_on,,,,,45,0,2,,,,,0,,,48,0
48470,set_tempo,,,,,50,1,0,,431654,,,,,,,
48474,note_on,,,,,54,0,1,,,,,0,,,65,0
48480,note_on,,,,,6,0,1,,,,,0,,,64,45
48480,control_change,,,,,0,0,1,,,,,0,64,95,,
48480,note_on,,,,,15,0,2,,,,,0,,,48,39
48530,set_tempo,,,,,60,1,0,,375000,,,,,,,
48534,note_on,,,,,54,0,1,,,,,0,,,64,0
48540,note_on,,,,,60,0,2,,,,,0,,,48,0
48540,note_on,,,,,6,0,1,,,,,0,,,67,39
48594,note_on,,,,,54,0,1,,,,,0,,,67,0
48600,control_change,,,,,0,0,1,,,,,0,64,0,,
48600,note_on,,,,,6,0,1,,,,,0,,,72,43
48600,note_on,,,,,0,0,2,,,,,0,,,55,37
48600,note_on,,,,,60,0,2,,,,,0,,,60,37
48654,note_on,,,,,54,0,1,,,,,0,,,72,0
48660,note_on,,,,,60,0,2,,,,,0,,,55,0
48660,note_on,,,,,0,0,2,,,,,0,,,60,0
48660,note_on,,,,,6,0,1,,,,,0,,,76,46
48714,note_on,,,,,54,0,1,,,,,0,,,76,0
48720,note_on,,,,,60,0,2,,,,,0,,,64,40
48720,note_on,,,,,6,0,1,,,,,0,,,79,47
48720,note_on,,,,,0,0,2,,,,,0,,,60,40
48750,set_tempo,,,,,220,1,0,,369230,,,,,,,
48780,note_on,,,,,0,0,1,,,,,0,,,81,42
48780,note_on,,,,,60,0,1,,,,,0,,,79,0
48780,note_on,,,,,0,0,2,,,,,0,,,64,0
48780,note_on,,,,,60,0,2,,,,,0,,,60,0
48820,set_tempo,,,,,70,1,0,,365853,,,,,,,
48830,note_on,,,,,50,0,1,,,,,0,,,81,0
48840,note_on,,,,,10,0,1,,,,,0,,,79,38
48840,note_on,,,,,60,0,2,,,,,0,,,48,36
48885,note_on,,,,,45,0,1,,,,,0,,,79,0
48885,note_on,,,,,45,0,2,,,,,0,,,48,0
48900,note_on,,,,,15,0,2,,,,,0,,,48,40
48900,note_on,,,,,15,0,1,,,,,0,,,76,35
48910,set_tempo,,,,,90,1,0,,363636,,,,,,,
48940,set_tempo,,,,,30,1,0,,346820,,,,,,,
48945,note_on,,,,,45,0,1,,,,,0,,,76,0
48945,note_on,,,,,45,0,2,,,,,0,,,48,0
48960,set_tempo,,,,,20,1,0,,431654,,,,,,,
48960,note_on,,,,,15,0,2,,,,,0,,,53,39
48960,control_change,,,,,0,0,1,,,,,0,64,95,,
48960,note_on,,,,,15,0,1,,,,,0,,,67,45
49010,set_tempo,,,,,50,1,0,,375000,,,,,,,
49014,note_on,,,,,54,0,1,,,,,0,,,67,0
49020,note_on,,,,,6,0,1,,,,,0,,,71,39
49020,note_on,,,,,60,0,2,,,,,0,,,53,0
49074,note_on,,,,,54,0,1,,,,,0,,,71,0
49080,note_on,,,,,0,0,2,,,,,0,,,59,37
49080,control_change,,,,,0,0,1,,,,,0,64,0,,
49080,note_on,,,,,6,0,1,,,,,0,,,74,43
49080,note_on,,,,,60,0,2,,,,,0,,,62,37
49134,note_on,,,,,54,0,1,,,,,0,,,74,0
49140,note_on,,,,,60,0,2,,,,,0,,,59,0
49140,note_on,,,,,0,0,2,,,,,0,,,62,0
49140,note_on,,,,,6,0,1,,,,,0,,,79,46
49194,note_on,,,,,54,0,1,,,,,0,,,79,0
49200,note_on,,,,,6,0,1,,,,,0,,,83,47
49200,note_on,,,,,60,0,2,,,,,0,,,67,40
49200,note_on,,,,,0,0,2,,,,,0,,,62,40
49230,set_tempo,,,,,220,1,0,,370370,,,,,,,
49240,set_tempo,,,,,10,1,0,,368098,,,,,,,
49260,note_on,,,,,60,0,1,,,,,0,,,83,0
49260,note_on,,,,,0,0,2,,,,,0,,,67,0
49260,note_on,,,,,60,0,2,,,,,0,,,62,0
49260,note_on,,,,,0,0,1,,,,,0,,,84,42
49310,note_on,,,,,50,0,1,,,,,0,,,84,0
49310,set_tempo,,,,,70,1,0,,365853,,,,,,,
49320,note_on,,,,,10,0,1,,,,,0,,,83,38
49320,note_on,,,,,60,0,2,,,,,0,,,53,36
49365,note_on,,,,,45,0,1,,,,,0,,,83,0
49365,note_on,,,,,45,0,2,,,,,0,,,53,0
49380,note_on,,,,,15,0,1,,,,,0,,,81,35
49380,note_on,,,,,15,0,2,,,,,0,,,53,40
49390,set_tempo,,,,,80,1,0,,363636,,,,,,,
49420,set_tempo,,,,,30,1,0,,346820,,,,,,,
49425,note_on,,,,,45,0,1,,,,,0,,,81,0
49425,note_on,,,,,45,0,2,,,,,0,,,53,0
49440,note_on,,,,,15,0,1,,,,,0,,,79,47
49440,note_on,,,,,15,0,2,,,,,0,,,52,42
49440,set_tempo,,,,,20,1,0,,363636,,,,,,,
49440,control_change,,,,,0,0,1,,,,,0,64,95,,
49450,set_tempo,,,,,10,1,0,,394736,,,,,,,
49500,note_on,,,,,60,0,2,,,,,0,,,52,0
49500,note_on,,,,,60,0,1,,,,,0,,,79,0
49500,note_on,,,,,0,0,1,,,,,0,,,81,40
49500,set_tempo,,,,,50,1,0,,359281,,,,,,,
49530,set_tempo,,,,,30,1,0,,357142,,,,,,,
49550,set_tempo,,,,,20,1,0,,357142,,,,,,,
49550,note_on,,,,,50,0,1,,,,,0,,,81,0
49560,note_on,,,,,10,0,1,,,,,0,,,79,44
49560,control_change,,,,,0,0,1,,,,,0,64,0,,
49560,note_on,,,,,60,0,2,,,,,0,,,67,39
49560,note_on,,,,,0,0,2,,,,,0,,,64,39
49605,note_on,,,,,45,0,2,,,,,0,,,64,0
49605,note_on,,,,,0,0,2,,,,,0,,,67,0
49614,note_on,,,,,54,0,1,,,,,0,,,79,0
49620,note_on,,,,,0,0,1,,,,,0,,,88,49
49620,set_tempo,,,,,70,1,0,,355029,,,,,,,
49620,note_on,,,,,6,0,1,,,,,0,,,91,49
49620,note_on,,,,,0,0,2,,,,,0,,,64,45
49620,note_on,,,,,15,0,2,,,,,0,,,67,45
49650,set_tempo,,,,,30,1,0,,352941,,,,,,,
49665,note_on,,,,,0,0,2,,,,,0,,,67,0
49665,note_on,,,,,45,0,2,,,,,0,,,64,0
49674,note_on,,,,,0,0,1,,,,,0,,,91,0
49674,note_on,,,,,54,0,1,,,,,0,,,88,0
49680,note_on,,,,,6,0,1,,,,,0,,,77,53
49680,set_tempo,,,,,30,1,0,,387096,,,,,,,
49680,note_on,,,,,15,0,2,,,,,0,,,53,50
49680,control_change,,,,,0,0,1,,,,,0,64,95,,
49740,set_tempo,,,,,60,1,0,,348837,,,,,,,
49740,note_on,,,,,60,0,1,,,,,0,,,77,0
49740,note_on,,,,,0,0,1,,,,,0,,,79,49
49740,note_on,,,,,60,0,2,,,,,0,,,53,0
49760,set_tempo,,,,,20,1,0,,350877,,,,,,,
49790,note_on,,,,,50,0,1,,,,,0,,,79,0
49800,note_on,,,,,60,0,2,,,,,0,,,65,44
49800,note_on,,,,,10,0,1,,,,,0,,,77,54
49800,control_change,,,,,0,0,1,,,,,0,64,0,,
49800,note_on,,,,,0,0,2,,,,,0,,,62,44
49810,set_tempo,,,,,50,1,0,,348837,,,,,,,
49845,note_on,,,,,45,0,2,,,,,0,,,62,0
49845,note_on,,,,,0,0,2,,,,,0,,,65,0
49854,note_on,,,,,54,0,1,,,,,0,,,77,0
49860,note_on,,,,,15,0,2,,,,,0,,,65,50
49860,note_on,,,,,0,0,1,,,,,0,,,86,58
49860,note_on,,,,,6,0,1,,,,,0,,,89,58
49860,note_on,,,,,0,0,2,,,,,0,,,62,50
49905,note_on,,,,,45,0,2,,,,,0,,,62,0
49905,note_on,,,,,0,0,2,,,,,0,,,65,0
49914,note_on,,,,,0,0,1,,,,,0,,,89,0
49914,note_on,,,,,54,0,1,,,,,0,,,86,0
49920,note_on,,,,,6,0,1,,,,,0,,,76,62
49920,control_change,,,,,0,0,1,,,,,0,64,95,,
49920,note_on,,,,,15,0,2,,,,,0,,,55,53
49970,set_tempo,,,,,160,1,0,,350877,,,,,,,
49980,note_on,,,,,60,0,2,,,,,0,,,55,0
49980,note_on,,,,,0,0,1,,,,,0,,,77,57
49980,note_on,,,,,60,0,1,,,,,0,,,76,0
50000,set_tempo,,,,,30,1,0,,355029,,,,,,,
50030,note_on,,,,,50,0,1,,,,,0,,,77,0
50030,set_tempo,,,,,30,1,0,,356083,,,,,,,
50040,note_on,,,,,0,0,2,,,,,0,,,60,52
50040,note_on,,,,,60,0,2,,,,,0,,,64,52
50040,control_change,,,,,0,0,1,,,,,0,64,0,,
50040,note_on,,,,,10,0,1,,,,,0,,,76,61
50050,set_tempo,,,,,20,1,0,,360360,,,,,,,
50070,set_tempo,,,,,20,1,0,,361445,,,,,,,
50085,note_on,,,,,45,0,2,,,,,0,,,60,0
50085,note_on,,,,,0,0,2,,,,,0,,,64,0
50094,note_on,,,,,54,0,1,,,,,0,,,76,0
50100,note_on,,,,,6,0,1,,,,,0,,,88,63
50100,note_on,,,,,0,0,1,,,,,0,,,84,63
50100,note_on,,,,,0,0,2,,,,,0,,,60,56
50100,note_on,,,,,15,0,2,,,,,0,,,64,56
50120,set_tempo,,,,,50,1,0,,366972,,,,,,,
50145,note_on,,,,,0,0,2,,,,,0,,,64,0
50145,note_on,,,,,45,0,2,,,,,0,,,60,0
50154,note_on,,,,,0,0,1,,,,,0,,,88,0
50154,note_on,,,,,54,0,1,,,,,0,,,84,0
50160,control_change,,,,,0,0,1,,,,,0,64,95,,
50160,set_tempo,,,,,40,1,0,,375000,,,,,,,
50160,note_on,,,,,6,0,1,,,,,0,,,83,67
50160,note_on,,,,,15,0,2,,,,,0,,,53,61
50210,set_tempo,,,,,50,1,0,,382165,,,,,,,
50220,note_on,,,,,60,0,1,,,,,0,,,83,0
50220,note_on,,,,,0,0,1,,,,,0,,,81,59
50232,note_on,,,,,72,0,2,,,,,0,,,53,0
50274,note_on,,,,,54,0,1,,,,,0,,,81,0
50275,control_change,,,,,1,0,1,,,,,0,64,0,,
50280,note_on,,,,,5,0,1,,,,,0,,,77,54
50280,set_tempo,,,,,70,1,0,,387096,,,,,,,
50280,note_on,,,,,0,0,2,,,,,0,,,57,53
50280,note_on,,,,,0,0,2,,,,,0,,,60,53
50280,note_on,,,,,48,0,2,,,,,0,,,62,53
50328,note_on,,,,,48,0,1,,,,,0,,,77,0
50340,note_on,,,,,12,0,1,,,,,0,,,74,50
50347,note_on,,,,,0,0,2,,,,,0,,,62,0
50347,note_on,,,,,0,0,2,,,,,0,,,60,0
50347,note_on,,,,,67,0,2,,,,,0,,,57,0
50350,set_tempo,,,,,70,1,0,,392156,,,,,,,
50388,note_on,,,,,48,0,1,,,,,0,,,74,0
50390,set_tempo,,,,,40,1,0,,384615,,,,,,,
50400,note_on,,,,,53,0,2,,,,,0,,,52,50
50400,set_tempo,,,,,10,1,0,,387096,,,,,,,
50400,control_change,,,,,0,0,1,,,,,0,64,95,,
50400,note_on,,,,,12,0,1,,,,,0,,,72,42
50410,set_tempo,,,,,10,1,0,,397350,,,,,,,
50430,set_tempo,,,,,20,1,0,,400000,,,,,,,
50440,set_tempo,,,,,10,1,0,,405405,,,,,,,
50450,set_tempo,,,,,10,1,0,,408163,,,,,,,
50460,note_on,,,,,0,0,1,,,,,0,,,74,46
50460,note_on,,,,,60,0,1,,,,,0,,,72,0
50460,set_tempo,,,,,10,1,0,,410958,,,,,,,
50470,set_tempo,,,,,10,1,0,,413793,,,,,,,
50472,note_on,,,,,72,0,2,,,,,0,,,52,0
50510,set_tempo,,,,,40,1,0,,425531,,,,,,,
50514,note_on,,,,,54,0,1,,,,,0,,,74,0
50515,control_change,,,,,1,0,1,,,,,0,64,0,,
50520,control_change,,,,,0,0,1,,,,,0,64,95,,
50520,note_on,,,,,5,0,1,,,,,0,,,76,49
50520,note_on,,,,,0,0,2,,,,,0,,,57,50
50520,note_on,,,,,0,0,2,,,,,0,,,60,50
50520,note_on,,,,,48,0,2,,,,,0,,,64,50
50520,set_tempo,,,,,10,1,0,,425531,,,,,,,
50580,note_on,,,,,60,0,1,,,,,0,,,76,0
50580,note_on,,,,,0,0,1,,,,,0,,,77,52
50640,note_on,,,,,0,0,1,,,,,0,,,76,54
50640,note_on,,,,,60,0,1,,,,,0,,,77,0
50700,note_on,,,,,0,0,1,,,,,0,,,77,53
50700,note_on,,,,,60,0,1,,,,,0,,,76,0
50760,note_on,,,,,0,0,2,,,,,0,,,59,35
50760,note_on,,,,,0,0,2,,,,,0,,,56,35
50760,note_on,,,,,0,0,2,,,,,0,,,60,0
50760,note_on,,,,,0,0,1,,,,,0,,,76,48
50760,note_on,,,,,60,0,1,,,,,0,,,77,0
50760,note_on,,,,,0,0,2,,,,,0,,,64,35
50760,note_on,,,,,240,0,2,,,,,0,,,57,0
50820,note_on,,,,,0,0,1,,,,,0,,,75,40
50820,note_on,,,,,60,0,1,,,,,0,,,76,0
50827,note_on,,,,,67,0,2,,,,,0,,,56,0
50827,note_on,,,,,0,0,2,,,,,0,,,64,0
50827,note_on,,,,,0,0,2,,,,,0,,,59,0
50860,set_tempo,,,,,340,1,0,,422535,,,,,,,
50865,note_on,,,,,45,0,1,,,,,0,,,75,0
50865,control_change,,,,,0,0,1,,,,,0,64,0,,
50870,set_tempo,,,,,10,1,0,,415224,,,,,,,
50880,note_on,,,,,15,0,1,,,,,0,,,76,40
50880,control_change,,,,,0,0,1,,,,,0,64,95,,
50880,note_on,,,,,53,0,2,,,,,0,,,64,0
50880,note_on,,,,,0,0,2,,,,,0,,,48,49
50900,set_tempo,,,,,30,1,0,,408163,,,,,,,
50940,set_tempo,,,,,40,1,0,,397350,,,,,,,
50940,note_on,,,,,60,0,2,,,,,0,,,48,0
50940,note_on,,,,,0,0,1,,,,,0,,,77,41
50940,note_on,,,,,60,0,1,,,,,0,,,76,0
50990,set_tempo,,,,,50,1,0,,390879,,,,,,,
50990,note_on,,,,,50,0,1,,,,,0,,,77,0
51000,note_on,,,,,0,0,2,,,,,0,,,60,42
51000,note_on,,,,,0,0,2,,,,,0,,,64,42
51000,note_on,,,,,60,0,2,,,,,0,,,67,42
51000,control_change,,,,,0,0,1,,,,,0,64,0,,
51000,note_on,,,,,10,0,1,,,,,0,,,76,42
51040,set_tempo,,,,,50,1,0,,385852,,,,,,,
51045,note_on,,,,,0,0,2,,,,,0,,,67,0
51045,note_on,,,,,0,0,2,,,,,0,,,64,0
51045,note_on,,,,,45,0,2,,,,,0,,,60,0
51054,note_on,,,,,54,0,1,,,,,0,,,76,0
51060,note_on,,,,,15,0,2,,,,,0,,,67,45
51060,note_on,,,,,0,0,2,,,,,0,,,60,45
51060,note_on,,,,,0,0,2,,,,,0,,,64,45
51060,note_on,,,,,6,0,1,,,,,0,,,84,44
51070,set_tempo,,,,,30,1,0,,379746,,,,,,,
51105,note_on,,,,,45,0,2,,,,,0,,,60,0
51105,note_on,,,,,0,0,2,,,,,0,,,64,0
51105,note_on,,,,,0,0,2,,,,,0,,,67,0
51110,set_tempo,,,,,40,1,0,,370370,,,,,,,
51114,note_on,,,,,54,0,1,,,,,0,,,84,0
51120,control_change,,,,,0,0,1,,,,,0,64,95,,
51120,note_on,,,,,6,0,1,,,,,0,,,83,47
51120,note_on,,,,,15,0,2,,,,,0,,,53,50
51180,note_on,,,,,60,0,1,,,,,0,,,83,0
51180,note_on,,,,,0,0,1,,,,,0,,,81,44
51190,set_tempo,,,,,80,1,0,,365853,,,,,,,
51192,note_on,,,,,72,0,2,,,,,0,,,53,0
51234,note_on,,,,,54,0,1,,,,,0,,,81,0
51235,control_change,,,,,1,0,1,,,,,0,64,0,,
51240,note_on,,,,,0,0,2,,,,,0,,,60,45
51240,note_on,,,,,0,0,2,,,,,0,,,57,45
51240,note_on,,,,,5,0,1,,,,,0,,,77,48
51240,set_tempo,,,,,50,1,0,,364741,,,,,,,
51240,note_on,,,,,48,0,2,,,,,0,,,62,45
51260,set_tempo,,,,,20,1,0,,363636,,,,,,,
51270,set_tempo,,,,,10,1,0,,360360,,,,,,,
51288,note_on,,,,,48,0,1,,,,,0,,,77,0
51300,note_on,,,,,12,0,1,,,,,0,,,74,51
51312,note_on,,,,,72,0,2,,,,,0,,,57,0
51312,note_on,,,,,0,0,2,,,,,0,,,60,0
51312,note_on,,,,,0,0,2,,,,,0,,,62,0
51348,note_on,,,,,48,0,1,,,,,0,,,74,0
51350,set_tempo,,,,,80,1,0,,356083,,,,,,,
51360,control_change,,,,,0,0,1,,,,,0,64,95,,
51360,note_on,,,,,48,0,2,,,,,0,,,52,54
51360,note_on,,,,,12,0,1,,,,,0,,,72,66
51400,set_tempo,,,,,50,1,0,,355029,,,,,,,
51420,note_on,,,,,0,0,1,,,,,0,,,74,58
51420,note_on,,,,,60,0,1,,,,,0,,,72,0
51420,note_on,,,,,60,0,2,,,,,0,,,52,0
51470,note_on,,,,,50,0,1,,,,,0,,,74,0
51480,note_on,,,,,60,0,2,,,,,0,,,67,55
51480,control_change,,,,,0,0,1,,,,,0,64,0,,
51480,note_on,,,,,10,0,1,,,,,0,,,72,60
51480,note_on,,,,,0,0,2,,,,,0,,,60,55
51480,note_on,,,,,0,0,2,,,,,0,,,64,55
51525,note_on,,,,,0,0,2,,,,,0,,,67,0
51525,note_on,,,,,0,0,2,,,,,0,,,64,0
51525,note_on,,,,,45,0,2,,,,,0,,,60,0
51534,note_on,,,,,54,0,1,,,,,0,,,72,0
51540,set_tempo,,,,,140,1,0,,352941,,,,,,,
51540,note_on,,,,,6,0,1,,,,,0,,,88,61
51540,note_on,,,,,0,0,2,,,,,0,,,64,58
51540,note_on,,,,,0,0,2,,,,,0,,,60,58
51540,note_on,,,,,15,0,2,,,,,0,,,67,58
51585,note_on,,,,,45,0,2,,,,,0,,,60,0
51585,note_on,,,,,0,0,2,,,,,0,,,64,0
51585,note_on,,,,,0,0,2,,,,,0,,,67,0
51594,note_on,,,,,54,0,1,,,,,0,,,88,0
51600,control_change,,,,,0,0,1,,,,,0,64,95,,
51600,note_on,,,,,15,0,2,,,,,0,,,57,63
51600,note_on,,,,,6,0,1,,,,,0,,,86,77
51660,note_on,,,,,0,0,1,,,,,0,,,84,72
51660,note_on,,,,,60,0,1,,,,,0,,,86,0
51672,note_on,,,,,72,0,2,,,,,0,,,57,0
51714,note_on,,,,,54,0,1,,,,,0,,,84,0
51715,control_change,,,,,1,0,1,,,,,0,64,0,,
51720,note_on,,,,,0,0,2,,,,,0,,,60,59
51720,note_on,,,,,48,0,2,,,,,0,,,66,59
51720,note_on,,,,,0,0,2,,,,,0,,,62,59
51720,note_on,,,,,5,0,1,,,,,0,,,81,73
51750,set_tempo,,,,,210,1,0,,355029,,,,,,,
51768,note_on,,,,,48,0,1,,,,,0,,,81,0
51780,note_on,,,,,12,0,1,,,,,0,,,78,79
51792,note_on,,,,,0,0,2,,,,,0,,,66,0
51792,note_on,,,,,0,0,2,,,,,0,,,62,0
51792,note_on,,,,,72,0,2,,,,,0,,,60,0
51810,set_tempo,,,,,60,1,0,,359281,,,,,,,
51828,note_on,,,,,48,0,1,,,,,0,,,78,0
51840,set_tempo,,,,,30,1,0,,365853,,,,,,,
51840,note_on,,,,,12,0,1,,,,,0,,,79,81
51841,control_change,,,,,1,0,1,,,,,0,64,95,,
51841,note_on,,,,,49,0,2,,,,,0,,,55,75
51900,note_on,,,,,0,0,1,,,,,0,,,81,87
51900,note_on,,,,,59,0,1,,,,,0,,,79,0
51900,set_tempo,,,,,60,1,0,,373831,,,,,,,
51901,note_on,,,,,60,0,2,,,,,0,,,55,0
51950,set_tempo,,,,,50,1,0,,383386,,,,,,,
51950,note_on,,,,,50,0,1,,,,,0,,,81,0
51960,note_on,,,,,10,0,1,,,,,0,,,79,95
51960,note_on,,,,,59,0,2,,,,,0,,,67,73
51961,note_on,,,,,1,0,2,,,,,0,,,64,73
51961,note_on,,,,,0,0,2,,,,,0,,,60,73
51961,control_change,,,,,1,0,1,,,,,0,64,0,,
51990,set_tempo,,,,,40,1,0,,390879,,,,,,,
52005,note_on,,,,,44,0,2,,,,,0,,,67,0
52006,note_on,,,,,1,0,2,,,,,0,,,60,0
52006,note_on,,,,,0,0,2,,,,,0,,,64,0
52010,set_tempo,,,,,20,1,0,,392156,,,,,,,
52014,note_on,,,,,53,0,1,,,,,0,,,79,0
52020,note_on,,,,,6,0,1,,,,,0,,,91,104
52020,note_on,,,,,14,0,2,,,,,0,,,67,80
52021,note_on,,,,,1,0,2,,,,,0,,,64,80
52021,note_on,,,,,0,0,2,,,,,0,,,60,80
52040,set_tempo,,,,,30,1,0,,400000,,,,,,,
52065,note_on,,,,,44,0,2,,,,,0,,,67,0
52066,note_on,,,,,1,0,2,,,,,0,,,60,0
52066,note_on,,,,,0,0,2,,,,,0,,,64,0
52074,note_on,,,,,54,0,1,,,,,0,,,91,0
52080,note_on,,,,,14,0,2,,,,,0,,,55,85
52080,note_on,,,,,6,0,1,,,,,0,,,89,107
52081,control_change,,,,,1,0,1,,,,,0,64,95,,
52090,set_tempo,,,,,50,1,0,,410958,,,,,,,
52110,set_tempo,,,,,20,1,0,,412371,,,,,,,
52120,set_tempo,,,,,10,1,0,,419580,,,,,,,
52140,note_on,,,,,59,0,1,,,,,0,,,89,0
52140,note_on,,,,,0,0,1,,,,,0,,,88,105
52150,set_tempo,,,,,30,1,0,,428571,,,,,,,
52152,note_on,,,,,72,0,2,,,,,0,,,55,0
52190,set_tempo,,,,,40,1,0,,437956,,,,,,,
52194,note_on,,,,,54,0,1,,,,,0,,,88,0
52196,control_change,,,,,2,0,1,,,,,0,64,0,,
52200,note_on,,,,,4,0,1,,,,,0,,,86,103
52200,note_on,,,,,0,0,2,,,,,0,,,67,75
52200,note_on,,,,,0,0,2,,,,,0,,,65,75
52200,note_on,,,,,48,0,2,,,,,0,,,59,75
52248,note_on,,,,,48,0,1,,,,,0,,,86,0
52260,note_on,,,,,12,0,1,,,,,0,,,88,100
52272,note_on,,,,,72,0,2,,,,,0,,,67,0
52272,note_on,,,,,0,0,2,,,,,0,,,65,0
52272,note_on,,,,,0,0,2,,,,,0,,,59,0
52280,set_tempo,,,,,90,1,0,,441176,,,,,,,
52300,set_tempo,,,,,20,1,0,,652173,,,,,,,
52308,note_on,,,,,48,0,1,,,,,0,,,88,0
52320,note_on,,,,,12,0,1,,,,,0,,,84,108
52320,control_change,,,,,0,0,1,,,,,0,64,95,,
52320,note_on,,,,,48,0,2,,,,,0,,,48,100
52340,set_tempo,,,,,40,1,0,,400000,,,,,,,
52360,set_tempo,,,,,20,1,0,,384615,,,,,,,
52380,note_on,,,,,60,0,2,,,,,0,,,48,0
52380,note_on,,,,,0,0,2,,,,,0,,,50,94
52380,note_on,,,,,60,0,1,,,,,0,,,84,0
52410,set_tempo,,,,,50,1,0,,370370,,,,,,,
52435,control_change,,,,,55,0,1,,,,,0,64,0,,
52440,note_on,,,,,60,0,2,,,,,0,,,50,0
52440,set_tempo,,,,,30,1,0,,351906,,,,,,,
52440,control_change,,,,,0,0,1,,,,,0,64,95,,
52440,note_on,,,,,0,0,2,,,,,0,,,48,94
52440,note_on,,,,,5,0,1,,,,,0,,,72,88
52440,note_on,,,,,0,0,1,,,,,0,,,76,88
52440,note_on,,,,,0,0,1,,,,,0,,,79,88
52500,note_on,,,,,60,0,1,,,,,0,,,79,0
52500,note_on,,,,,0,0,1,,,,,0,,,72,0
52500,note_on,,,,,0,0,2,,,,,0,,,60,98
52500,note_on,,,,,60,0,2,,,,,0,,,48,0
52500,note_on,,,,,0,0,1,,,,,0,,,76,0
52555,control_change,,,,,55,0,1,,,,,0,64,0,,
52560,note_on,,,,,0,0,1,,,,,0,,,77,91
52560,control_change,,,,,0,0,1,,,,,0,64,95,,
52560,note_on,,,,,5,0,1,,,,,0,,,69,91
52560,note_on,,,,,0,0,1,,,,,0,,,72,91
52560,note_on,,,,,60,0,2,,,,,0,,,60,0
52560,note_on,,,,,0,0,2,,,,,0,,,62,102
52610,set_tempo,,,,,170,1,0,,348837,,,,,,,
52620,note_on,,,,,0,0,1,,,,,0,,,69,0
52620,note_on,,,,,0,0,1,,,,,0,,,72,0
52620,note_on,,,,,60,0,1,,,,,0,,,77,0
52620,note_on,,,,,60,0,2,,,,,0,,,62,0
52620,note_on,,,,,0,0,2,,,,,0,,,60,89
52670,set_tempo,,,,,60,1,0,,343839,,,,,,,
52675,control_change,,,,,55,0,1,,,,,0,64,0,,
52680,note_on,,,,,5,0,1,,,,,0,,,72,84
52680,note_on,,,,,60,0,2,,,,,0,,,60,0
52680,note_on,,,,,0,0,2,,,,,0,,,57,91
52680,note_on,,,,,0,0,1,,,,,0,,,81,84
52680,control_change,,,,,0,0,1,,,,,0,64,95,,
52680,note_on,,,,,0,0,1,,,,,0,,,77,84
52720,set_tempo,,,,,50,1,0,,339943,,,,,,,
52728,note_on,,,,,48,0,1,,,,,0,,,81,0
52728,note_on,,,,,0,0,1,,,,,0,,,77,0
52728,note_on,,,,,0,0,1,,,,,0,,,72,0
52740,note_on,,,,,0,0,2,,,,,0,,,53,97
52740,note_on,,,,,12,0,1,,,,,0,,,72,94
52740,note_on,,,,,0,0,1,,,,,0,,,77,94
52740,note_on,,,,,0,0,1,,,,,0,,,81,94
52740,note_on,,,,,60,0,2,,,,,0,,,57,0
52760,set_tempo,,,,,40,1,0,,340909,,,,,,,
52788,note_on,,,,,48,0,1,,,,,0,,,81,0
52788,note_on,,,,,0,0,1,,,,,0,,,77,0
52788,note_on,,,,,0,0,1,,,,,0,,,72,0
52800,note_on,,,,,0,0,1,,,,,0,,,76,103
52800,note_on,,,,,60,0,2,,,,,0,,,53,0
52800,note_on,,,,,0,0,2,,,,,0,,,48,103
52800,note_on,,,,,0,0,1,,,,,0,,,79,103
52800,note_on,,,,,12,0,1,,,,,0,,,72,103
52810,set_tempo,,,,,50,1,0,,377358,,,,,,,
52860,note_on,,,,,60,0,2,,,,,0,,,48,0
52860,note_on,,,,,60,0,1,,,,,0,,,79,0
52860,note_on,,,,,0,0,1,,,,,0,,,76,0
52860,note_on,,,,,0,0,1,,,,,0,,,72,0
52860,note_on,,,,,0,0,2,,,,,0,,,50,91
52860,set_tempo,,,,,50,1,0,,340909,,,,,,,
52890,control_change,,,,,30,0,1,,,,,0,64,0,,
52920,note_on,,,,,0,0,2,,,,,0,,,48,95
52920,note_on,,,,,60,0,2,,,,,0,,,50,0
52920,note_on,,,,,0,0,1,,,,,0,,,84,90
52920,note_on,,,,,0,0,1,,,,,0,,,79,90
52920,note_on,,,,,30,0,1,,,,,0,,,76,90
52930,set_tempo,,,,,70,1,0,,342857,,,,,,,
52980,note_on,,,,,0,0,2,,,,,0,,,55,100
52980,note_on,,,,,60,0,2,,,,,0,,,48,0
52980,set_tempo,,,,,50,1,0,,346820,,,,,,,
52980,note_on,,,,,60,0,1,,,,,0,,,84,0
52980,note_on,,,,,0,0,1,,,,,0,,,79,0
52980,note_on,,,,,0,0,1,,,,,0,,,76,0
53000,set_tempo,,,,,20,1,0,,350877,,,,,,,
53010,set_tempo,,,,,10,1,0,,352941,,,,,,,
53040,note_on,,,,,60,0,2,,,,,0,,,55,0
53040,note_on,,,,,60,0,1,,,,,0,,,74,87
53040,note_on,,,,,0,0,2,,,,,0,,,57,102
53040,note_on,,,,,0,0,1,,,,,0,,,83,87
53040,note_on,,,,,0,0,1,,,,,0,,,79,87
53050,set_tempo,,,,,40,1,0,,355029,,,,,,,
53100,note_on,,,,,0,0,1,,,,,0,,,79,0
53100,note_on,,,,,0,0,1,,,,,0,,,74,0
53100,note_on,,,,,60,0,1,,,,,0,,,83,0
53100,note_on,,,,,0,0,2,,,,,0,,,55,86
53100,note_on,,,,,60,0,2,,,,,0,,,57,0
53110,set_tempo,,,,,60,1,0,,357142,,,,,,,
53120,set_tempo,,,,,10,1,0,,359281,,,,,,,
53160,set_tempo,,,,,40,1,0,,361445,,,,,,,
53160,note_on,,,,,0,0,2,,,,,0,,,43,80
53160,note_on,,,,,60,0,2,,,,,0,,,55,0
53160,note_on,,,,,60,0,1,,,,,0,,,86,77
53160,note_on,,,,,0,0,1,,,,,0,,,79,77
53160,note_on,,,,,0,0,1,,,,,0,,,77,77
53160,control_change,,,,,0,0,1,,,,,0,64,93,,
53200,set_tempo,,,,,40,1,0,,363636,,,,,,,
53208,note_on,,,,,0,0,1,,,,,0,,,86,0
53208,note_on,,,,,0,0,1,,,,,0,,,79,0
53208,note_on,,,,,48,0,1,,,,,0,,,77,0
53210,set_tempo,,,,,10,1,0,,365853,,,,,,,
53220,note_on,,,,,0,0,1,,,,,0,,,77,68
53220,note_on,,,,,12,0,1,,,,,0,,,86,68
53220,note_on,,,,,60,0,2,,,,,0,,,43,0
53220,note_on,,,,,0,0,2,,,,,0,,,47,73
53220,note_on,,,,,0,0,1,,,,,0,,,79,68
53230,set_tempo,,,,,20,1,0,,368098,,,,,,,
53240,set_tempo,,,,,10,1,0,,370370,,,,,,,
53260,set_tempo,,,,,20,1,0,,408163,,,,,,,
53268,note_on,,,,,0,0,1,,,,,0,,,86,0
53268,note_on,,,,,0,0,1,,,,,0,,,79,0
53268,note_on,,,,,48,0,1,,,,,0,,,77,0
53275,control_change,,,,,7,0,1,,,,,0,64,0,,
53280,note_on,,,,,0,0,1,,,,,0,,,84,65
53280,note_on,,,,,0,0,1,,,,,0,,,79,65
53280,note_on,,,,,5,0,1,,,,,0,,,76,65
53280,note_on,,,,,60,0,2,,,,,0,,,47,0
53280,note_on,,,,,0,0,2,,,,,0,,,48,63
53290,set_tempo,,,,,30,1,0,,398671,,,,,,,
53310,set_tempo,,,,,20,1,0,,397350,,,,,,,
53320,set_tempo,,,,,10,1,0,,388349,,,,,,,
53340,note_on,,,,,0,0,1,,,,,0,,,76,0
53340,note_on,,,,,0,0,1,,,,,0,,,79,0
53340,note_on,,,,,60,0,1,,,,,0,,,84,0
53340,note_on,,,,,60,0,2,,,,,0,,,48,0
53340,note_on,,,,,0,0,2,,,,,0,,,50,60
53380,set_tempo,,,,,60,1,0,,365853,,,,,,,
53400,note_on,,,,,60,0,2,,,,,0,,,50,0
53400,note_on,,,,,60,0,1,,,,,0,,,72,57
53400,note_on,,,,,0,0,2,,,,,0,,,48,58
53400,note_on,,,,,0,0,1,,,,,0,,,76,57
53400,note_on,,,,,0,0,1,,,,,0,,,79,57
53410,set_tempo,,,,,30,1,0,,364741,,,,,,,
53430,set_tempo,,,,,20,1,0,,355029,,,,,,,
53460,note_on,,,,,60,0,2,,,,,0,,,48,0
53460,note_on,,,,,0,0,2,,,,,0,,,60,57
53460,note_on,,,,,0,0,1,,,,,0,,,72,0
53460,note_on,,,,,0,0,1,,,,,0,,,76,0
53460,note_on,,,,,60,0,1,,,,,0,,,79,0
53520,note_on,,,,,0,0,1,,,,,0,,,72,66
53520,note_on,,,,,0,0,2,,,,,0,,,62,57
53520,note_on,,,,,60,0,1,,,,,0,,,68,66
53520,note_on,,,,,0,0,1,,,,,0,,,77,66
53520,note_on,,,,,60,0,2,,,,,0,,,60,0
53550,set_tempo,,,,,120,1,0,,347826,,,,,,,
53580,note_on,,,,,60,0,1,,,,,0,,,77,0
53580,note_on,,,,,0,0,1,,,,,0,,,68,0
53580,note_on,,,,,0,0,2,,,,,0,,,60,59
53580,note_on,,,,,60,0,2,,,,,0,,,62,0
53580,note_on,,,,,0,0,1,,,,,0,,,72,0
53620,set_tempo,,,,,70,1,0,,344827,,,,,,,
53640,note_on,,,,,0,0,1,,,,,0,,,77,56
53640,control_change,,,,,0,0,1,,,,,0,64,96,,
53640,note_on,,,,,60,0,1,,,,,0,,,80,56
53640,note_on,,,,,0,0,1,,,,,0,,,72,56
53640,note_on,,,,,60,0,2,,,,,0,,,60,0
53640,note_on,,,,,0,0,2,,,,,0,,,56,61
53670,set_tempo,,,,,50,1,0,,340909,,,,,,,
53688,note_on,,,,,0,0,1,,,,,0,,,80,0
53688,note_on,,,,,48,0,1,,,,,0,,,77,0
53688,note_on,,,,,0,0,1,,,,,0,,,72,0
53700,note_on,,,,,12,0,1,,,,,0,,,80,62
53700,note_on,,,,,0,0,2,,,,,0,,,53,62
53700,note_on,,,,,0,0,1,,,,,0,,,77,62
53700,note_on,,,,,0,0,1,,,,,0,,,72,62
53700,note_on,,,,,60,0,2,,,,,0,,,56,0
53720,set_tempo,,,,,50,1,0,,340909,,,,,,,
53748,note_on,,,,,0,0,1,,,,,0,,,80,0
53748,note_on,,,,,0,0,1,,,,,0,,,72,0
53748,note_on,,,,,48,0,1,,,,,0,,,77,0
53760,note_on,,,,,60,0,2,,,,,0,,,53,0
53760,note_on,,,,,0,0,2,,,,,0,,,48,66
53760,note_on,,,,,12,0,1,,,,,0,,,72,66
53760,note_on,,,,,0,0,1,,,,,0,,,76,66
53760,note_on,,,,,0,0,1,,,,,0,,,79,66
53770,set_tempo,,,,,50,1,0,,377358,,,,,,,
53820,note_on,,,,,0,0,1,,,,,0,,,76,0
53820,note_on,,,,,0,0,2,,,,,0,,,50,57
53820,note_on,,,,,60,0,1,,,,,0,,,79,0
53820,note_on,,,,,60,0,2,,,,,0,,,48,0
53820,set_tempo,,,,,50,1,0,,340909,,,,,,,
53820,note_on,,,,,0,0,1,,,,,0,,,72,0
53850,control_change,,,,,30,0,1,,,,,0,64,0,,
53880,note_on,,,,,0,0,1,,,,,0,,,79,57
53880,note_on,,,,,0,0,1,,,,,0,,,84,57
53880,note_on,,,,,30,0,1,,,,,0,,,76,57
53880,note_on,,,,,0,0,2,,,,,0,,,48,65
53880,note_on,,,,,60,0,2,,,,,0,,,50,0
53890,set_tempo,,,,,70,1,0,,342857,,,,,,,
53940,note_on,,,,,0,0,1,,,,,0,,,79,0
53940,set_tempo,,,,,50,1,0,,346820,,,,,,,
53940,note_on,,,,,0,0,2,,,,,0,,,55,69
53940,note_on,,,,,0,0,1,,,,,0,,,76,0
53940,note_on,,,,,60,0,2,,,,,0,,,48,0
53940,note_on,,,,,60,0,1,,,,,0,,,84,0
53950,set_tempo,,,,,10,1,0,,353982,,,,,,,
54000,note_on,,,,,0,0,2,,,,,0,,,57,72
54000,note_on,,,,,60,0,2,,,,,0,,,55,0
54000,note_on,,,,,60,0,1,,,,,0,,,74,62
54000,note_on,,,,,0,0,1,,,,,0,,,83,62
54000,note_on,,,,,0,0,1,,,,,0,,,79,62
54020,set_tempo,,,,,70,1,0,,352941,,,,,,,
54060,note_on,,,,,0,0,2,,,,,0,,,55,76
54060,note_on,,,,,0,0,1,,,,,0,,,79,0
54060,note_on,,,,,60,0,1,,,,,0,,,83,0
54060,note_on,,,,,60,0,2,,,,,0,,,57,0
54060,note_on,,,,,0,0,1,,,,,0,,,74,0
54070,set_tempo,,,,,50,1,0,,351906,,,,,,,
54090,set_tempo,,,,,20,1,0,,356083,,,,,,,
54120,note_on,,,,,60,0,2,,,,,0,,,55,0
54120,note_on,,,,,0,0,2,,,,,0,,,43,77
54120,note_on,,,,,0,0,1,,,,,0,,,77,74
54120,note_on,,,,,0,0,1,,,,,0,,,79,74
54120,note_on,,,,,60,0,1,,,,,0,,,86,74
54120,control_change,,,,,0,0,1,,,,,0,64,95,,
54150,set_tempo,,,,,60,1,0,,360360,,,,,,,
54168,note_on,,,,,0,0,1,,,,,0,,,79,0
54168,note_on,,,,,0,0,1,,,,,0,,,86,0
54168,note_on,,,,,48,0,1,,,,,0,,,77,0
54180,set_tempo,,,,,30,1,0,,368098,,,,,,,
54180,note_on,,,,,12,0,1,,,,,0,,,86,81
54180,note_on,,,,,0,0,1,,,,,0,,,79,81
54180,note_on,,,,,0,0,1,,,,,0,,,77,81
54180,note_on,,,,,60,0,2,,,,,0,,,43,0
54180,note_on,,,,,0,0,2,,,,,0,,,47,81
54228,note_on,,,,,0,0,1,,,,,0,,,86,0
54228,note_on,,,,,48,0,1,,,,,0,,,77,0
54228,note_on,,,,,0,0,1,,,,,0,,,79,0
54235,control_change,,,,,7,0,1,,,,,0,64,0,,
54240,set_tempo,,,,,60,1,0,,375000,,,,,,,
54240,note_on,,,,,5,0,1,,,,,0,,,76,85
54240,note_on,,,,,0,0,1,,,,,0,,,79,85
54240,note_on,,,,,0,0,2,,,,,0,,,48,87
54240,note_on,,,,,60,0,2,,,,,0,,,47,0
54240,note_on,,,,,0,0,1,,,,,0,,,84,85
54300,note_on,,,,,0,0,2,,,,,0,,,50,91
54300,note_on,,,,,60,0,2,,,,,0,,,48,0
54300,note_on,,,,,60,0,1,,,,,0,,,84,0
54300,note_on,,,,,0,0,1,,,,,0,,,79,0
54300,note_on,,,,,0,0,1,,,,,0,,,76,0
54300,set_tempo,,,,,60,1,0,,372670,,,,,,,
54330,set_tempo,,,,,30,1,0,,368098,,,,,,,
54360,note_on,,,,,0,0,1,,,,,0,,,72,110
54360,note_on,,,,,0,0,1,,,,,0,,,67,110
54360,note_on,,,,,60,0,1,,,,,0,,,64,110
54360,control_change,,,,,0,0,1,,,,,0,64,95,,
54360,note_on,,,,,0,0,2,,,,,0,,,48,105
54360,note_on,,,,,60,0,2,,,,,0,,,50,0
54370,set_tempo,,,,,40,1,0,,365853,,,,,,,
54380,set_tempo,,,,,10,1,0,,361445,,,,,,,
54420,note_on,,,,,0,0,2,,,,,0,,,60,98
54420,note_on,,,,,60,0,2,,,,,0,,,48,0
54450,note_on,,,,,0,0,1,,,,,0,,,64,0
54450,note_on,,,,,90,0,1,,,,,0,,,72,0
54450,note_on,,,,,0,0,1,,,,,0,,,67,0
54480,note_on,,,,,0,0,1,,,,,0,,,72,96
54480,note_on,,,,,0,0,1,,,,,0,,,68,96
54480,note_on,,,,,0,0,2,,,,,0,,,58,102
54480,note_on,,,,,60,0,2,,,,,0,,,60,0
54480,note_on,,,,,30,0,1,,,,,0,,,63,96
54540,note_on,,,,,60,0,1,,,,,0,,,72,0
54540,note_on,,,,,0,0,1,,,,,0,,,68,0
54540,note_on,,,,,0,0,1,,,,,0,,,63,0
54540,note_on,,,,,0,0,2,,,,,0,,,56,104
54540,note_on,,,,,60,0,2,,,,,0,,,58,0
54565,control_change,,,,,25,0,1,,,,,0,64,0,,
54600,note_on,,,,,0,0,1,,,,,0,,,80,105
54600,note_on,,,,,35,0,1,,,,,0,,,74,105
54600,note_on,,,,,0,0,1,,,,,0,,,82,105
54600,note_on,,,,,0,0,2,,,,,0,,,55,108
54600,note_on,,,,,60,0,2,,,,,0,,,56,0
54620,set_tempo,,,,,240,1,0,,363636,,,,,,,
54630,set_tempo,,,,,10,1,0,,366972,,,,,,,
54648,note_on,,,,,48,0,1,,,,,0,,,82,0
54648,note_on,,,,,0,0,1,,,,,0,,,74,0
54648,note_on,,,,,0,0,1,,,,,0,,,80,0
54660,note_on,,,,,60,0,2,,,,,0,,,55,0
54660,note_on,,,,,0,0,2,,,,,0,,,53,110
54660,note_on,,,,,0,0,1,,,,,0,,,82,108
54660,note_on,,,,,0,0,1,,,,,0,,,80,108
54660,note_on,,,,,12,0,1,,,,,0,,,74,108
54680,set_tempo,,,,,50,1,0,,372670,,,,,,,
54708,note_on,,,,,0,0,1,,,,,0,,,74,0
54708,note_on,,,,,0,0,1,,,,,0,,,80,0
54708,note_on,,,,,48,0,1,,,,,0,,,82,0
54720,note_on,,,,,60,0,2,,,,,0,,,53,0
54720,note_on,,,,,12,0,1,,,,,0,,,75,110
54720,note_on,,,,,0,0,1,,,,,0,,,79,110
54720,note_on,,,,,0,0,1,,,,,0,,,82,110
54720,control_change,,,,,0,0,1,,,,,0,64,95,,
54720,note_on,,,,,0,0,2,,,,,0,,,51,112
54750,set_tempo,,,,,70,1,0,,379746,,,,,,,
54760,set_tempo,,,,,10,1,0,,380952,,,,,,,
54780,note_on,,,,,60,0,1,,,,,0,,,82,0
54780,note_on,,,,,0,0,1,,,,,0,,,79,0
54780,note_on,,,,,0,0,1,,,,,0,,,75,0
54780,note_on,,,,,0,0,2,,,,,0,,,53,113
54780,note_on,,,,,60,0,2,,,,,0,,,51,0
54780,control_change,,,,,0,0,1,,,,,0,64,0,,
54828,note_on,,,,,48,0,2,,,,,0,,,53,0
54830,set_tempo,,,,,70,1,0,,387096,,,,,,,
54840,note_on,,,,,0,0,1,,,,,0,,,79,117
54840,note_on,,,,,12,0,2,,,,,0,,,51,115
54840,note_on,,,,,60,0,1,,,,,0,,,83,117
54840,note_on,,,,,0,0,1,,,,,0,,,77,117
54888,note_on,,,,,0,0,1,,,,,0,,,79,0
54888,note_on,,,,,48,0,2,,,,,0,,,51,0
54888,note_on,,,,,0,0,1,,,,,0,,,83,0
54888,note_on,,,,,48,0,1,,,,,0,,,77,0
54900,note_on,,,,,0,0,1,,,,,0,,,77,121
54900,note_on,,,,,12,0,2,,,,,0,,,49,116
54900,note_on,,,,,0,0,1,,,,,0,,,79,121
54900,note_on,,,,,12,0,1,,,,,0,,,83,121
54948,note_on,,,,,0,0,1,,,,,0,,,83,0
54948,note_on,,,,,0,0,1,,,,,0,,,79,0
54948,note_on,,,,,48,0,1,,,,,0,,,77,0
54948,note_on,,,,,48,0,2,,,,,0,,,49,0
54960,note_on,,,,,0,0,1,,,,,0,,,76,124
54960,note_on,,,,,0,0,1,,,,,0,,,79,124
54960,note_on,,,,,12,0,2,,,,,0,,,48,119
54960,note_on,,,,,12,0,1,,,,,0,,,84,124
55008,note_on,,,,,48,0,2,,,,,0,,,48,0
55010,set_tempo,,,,,180,1,0,,392156,,,,,,,
55020,note_on,,,,,12,0,2,,,,,0,,,43,122
55050,note_on,,,,,0,0,1,,,,,0,,,79,0
55050,note_on,,,,,90,0,1,,,,,0,,,76,0
55050,note_on,,,,,0,0,1,,,,,0,,,84,0
55068,note_on,,,,,48,0,2,,,,,0,,,43,0
55080,note_on,,,,,12,0,2,,,,,0,,,47,127
55080,note_on,,,,,30,0,1,,,,,0,,,91,127
55080,note_on,,,,,0,0,1,,,,,0,,,86,127
55080,note_on,,,,,0,0,1,,,,,0,,,77,127
55080,control_change,,,,,0,0,1,,,,,0,64,95,,
55080,note_on,,,,,0,0,1,,,,,0,,,79,127
55080,set_tempo,,,,,70,1,0,,447761,,,,,,,
55140,note_on,,,,,60,0,2,,,,,0,,,47,0
55140,note_on,,,,,0,0,2,,,,,0,,,43,114
55185,note_on,,,,,0,0,1,,,,,0,,,91,0
55185,note_on,,,,,0,0,1,,,,,0,,,86,0
55185,note_on,,,,,0,0,1,,,,,0,,,79,0
55185,note_on,,,,,105,0,1,,,,,0,,,77,0
55188,note_on,,,,,48,0,2,,,,,0,,,43,0
55195,control_change,,,,,10,0,1,,,,,0,64,0,,
55200,note_on,,,,,12,0,2,,,,,0,,,48,112
55200,note_on,,,,,5,0,1,,,,,0,,,76,112
55200,note_on,,,,,0,0,1,,,,,0,,,79,112
55200,note_on,,,,,0,0,1,,,,,0,,,84,112
55200,set_tempo,,,,,120,1,0,,377358,,,,,,,
55260,set_tempo,,,,,60,1,0,,372670,,,,,,,
55260,note_on,,,,,60,0,2,,,,,0,,,48,0
55260,note_on,,,,,0,0,2,,,,,0,,,50,105
55260,note_on,,,,,0,0,1,,,,,0,,,76,0
55260,note_on,,,,,0,0,1,,,,,0,,,79,0
55260,note_on,,,,,60,0,1,,,,,0,,,84,0
55290,set_tempo,,,,,30,1,0,,368098,,,,,,,
55320,note_on,,,,,60,0,2,,,,,0,,,50,0
55320,note_on,,,,,0,0,1,,,,,0,,,72,119
55320,control_change,,,,,0,0,1,,,,,0,64,96,,
55320,note_on,,,,,0,0,1,,,,,0,,,67,119
55320,note_on,,,,,60,0,1,,,,,0,,,64,119
55320,note_on,,,,,0,0,2,,,,,0,,,48,102
55340,set_tempo,,,,,50,1,0,,361445,,,,,,,
55380,note_on,,,,,60,0,2,,,,,0,,,48,0
55380,note_on,,,,,0,0,2,,,,,0,,,60,99
55410,note_on,,,,,0,0,1,,,,,0,,,64,0
55410,note_on,,,,,90,0,1,,,,,0,,,72,0
55410,note_on,,,,,0,0,1,,,,,0,,,67,0
55440,note_on,,,,,30,0,1,,,,,0,,,63,101
55440,note_on,,,,,0,0,1,,,,,0,,,68,101
55440,note_on,,,,,0,0,1,,,,,0,,,72,101
55440,note_on,,,,,0,0,2,,,,,0,,,58,98
55440,note_on,,,,,60,0,2,,,,,0,,,60,0
55500,note_on,,,,,60,0,2,,,,,0,,,58,0
55500,note_on,,,,,0,0,1,,,,,0,,,63,0
55500,note_on,,,,,0,0,1,,,,,0,,,68,0
55500,note_on,,,,,0,0,2,,,,,0,,,56,98
55500,note_on,,,,,60,0,1,,,,,0,,,72,0
55530,control_change,,,,,30,0,1,,,,,0,64,0,,
55560,note_on,,,,,60,0,2,,,,,0,,,56,0
55560,note_on,,,,,0,0,2,,,,,0,,,55,98
55560,note_on,,,,,30,0,1,,,,,0,,,74,99
55560,note_on,,,,,0,0,1,,,,,0,,,80,99
55560,note_on,,,,,0,0,1,,,,,0,,,82,99
55580,set_tempo,,,,,240,1,0,,365853,,,,,,,
55608,note_on,,,,,48,0,1,,,,,0,,,82,0
55608,note_on,,,,,0,0,1,,,,,0,,,80,0
55608,note_on,,,,,0,0,1,,,,,0,,,74,0
55620,note_on,,,,,0,0,1,,,,,0,,,82,103
55620,note_on,,,,,0,0,1,,,,,0,,,80,103
55620,note_on,,,,,12,0,1,,,,,0,,,74,103
55620,note_on,,,,,0,0,2,,,,,0,,,53,100
55620,note_on,,,,,60,0,2,,,,,0,,,55,0
55630,set_tempo,,,,,50,1,0,,372670,,,,,,,
55668,note_on,,,,,0,0,1,,,,,0,,,74,0
55668,note_on,,,,,0,0,1,,,,,0,,,80,0
55668,note_on,,,,,48,0,1,,,,,0,,,82,0
55680,note_on,,,,,60,0,2,,,,,0,,,53,0
55680,note_on,,,,,0,0,2,,,,,0,,,51,106
55680,note_on,,,,,0,0,1,,,,,0,,,82,106
55680,note_on,,,,,0,0,1,,,,,0,,,79,106
55680,note_on,,,,,12,0,1,,,,,0,,,75,106
55680,control_change,,,,,0,0,1,,,,,0,64,95,,
55690,set_tempo,,,,,60,1,0,,377358,,,,,,,
55740,note_on,,,,,0,0,1,,,,,0,,,75,0
55740,note_on,,,,,0,0,2,,,,,0,,,53,110
55740,note_on,,,,,60,0,2,,,,,0,,,51,0
55740,note_on,,,,,0,0,1,,,,,0,,,79,0
55740,note_on,,,,,60,0,1,,,,,0,,,82,0
55740,control_change,,,,,0,0,1,,,,,0,64,0,,
55760,set_tempo,,,,,70,1,0,,382165,,,,,,,
55788,note_on,,,,,48,0,2,,,,,0,,,53,0
55800,note_on,,,,,12,0,2,,,,,0,,,51,114
55800,note_on,,,,,60,0,1,,,,,0,,,83,113
55800,note_on,,,,,0,0,1,,,,,0,,,79,113
55800,note_on,,,,,0,0,1,,,,,0,,,77,113
55848,note_on,,,,,48,0,2,,,,,0,,,51,0
55848,note_on,,,,,0,0,1,,,,,0,,,79,0
55848,note_on,,,,,48,0,1,,,,,0,,,77,0
55848,note_on,,,,,0,0,1,,,,,0,,,83,0
55860,note_on,,,,,0,0,1,,,,,0,,,77,118
55860,note_on,,,,,0,0,1,,,,,0,,,79,118
55860,note_on,,,,,12,0,1,,,,,0,,,83,118
55860,note_on,,,,,12,0,2,,,,,0,,,49,118
55870,set_tempo,,,,,110,1,0,,388349,,,,,,,
55908,note_on,,,,,48,0,2,,,,,0,,,49,0
55908,note_on,,,,,0,0,1,,,,,0,,,83,0
55908,note_on,,,,,0,0,1,,,,,0,,,79,0
55908,note_on,,,,,48,0,1,,,,,0,,,77,0
55920,note_on,,,,,0,0,1,,,,,0,,,76,121
55920,note_on,,,,,0,0,1,,,,,0,,,79,121
55920,note_on,,,,,12,0,1,,,,,0,,,84,121
55920,note_on,,,,,12,0,2,,,,,0,,,48,122
55968,note_on,,,,,48,0,2,,,,,0,,,48,0
55970,set_tempo,,,,,100,1,0,,396039,,,,,,,
55980,note_on,,,,,12,0,2,,,,,0,,,43,125
56010,note_on,,,,,0,0,1,,,,,0,,,79,0
56010,note_on,,,,,0,0,1,,,,,0,,,84,0
56010,note_on,,,,,90,0,1,,,,,0,,,76,0
56028,note_on,,,,,48,0,2,,,,,0,,,43,0
56040,note_on,,,,,0,0,1,,,,,0,,,77,127
56040,note_on,,,,,30,0,1,,,,,0,,,91,127
56040,note_on,,,,,0,0,1,,,,,0,,,79,127
56040,control_change,,,,,0,0,1,,,,,0,64,95,,
56040,note_on,,,,,0,0,1,,,,,0,,,86,127
56040,note_on,,,,,12,0,2,,,,,0,,,47,127
56040,set_tempo,,,,,70,1,0,,447761,,,,,,,
56100,note_on,,,,,60,0,2,,,,,0,,,47,0
56100,note_on,,,,,0,0,2,,,,,0,,,43,115
56145,note_on,,,,,0,0,1,,,,,0,,,79,0
56145,note_on,,,,,0,0,1,,,,,0,,,86,0
56145,note_on,,,,,105,0,1,,,,,0,,,77,0
56145,note_on,,,,,0,0,1,,,,,0,,,91,0
56148,note_on,,,,,48,0,2,,,,,0,,,43,0
56160,note_on,,,,,0,0,1,,,,,0,,,79,121
56160,set_tempo,,,,,120,1,0,,377358,,,,,,,
56160,note_on,,,,,0,0,1,,,,,0,,,76,121
56160,note_on,,,,,15,0,1,,,,,0,,,84,121
56160,note_on,,,,,12,0,2,,,,,0,,,48,121
56180,set_tempo,,,,,20,1,0,,370370,,,,,,,
56205,note_on,,,,,45,0,2,,,,,0,,,48,0
56220,note_on,,,,,15,0,2,,,,,0,,,55,111
56220,set_tempo,,,,,40,1,0,,370370,,,,,,,
56230,set_tempo,,,,,10,1,0,,368098,,,,,,,
56250,note_on,,,,,90,0,1,,,,,0,,,76,0
56250,note_on,,,,,0,0,1,,,,,0,,,79,0
56250,note_on,,,,,0,0,1,,,,,0,,,84,0
56265,note_on,,,,,45,0,2,,,,,0,,,55,0
56280,control_change,,,,,0,0,1,,,,,0,64,95,,
56280,note_on,,,,,0,0,1,,,,,0,,,74,104
56280,note_on,,,,,0,0,1,,,,,0,,,79,104
56280,note_on,,,,,0,0,1,,,,,0,,,67,104
56280,note_on,,,,,30,0,1,,,,,0,,,65,104
56280,note_on,,,,,15,0,2,,,,,0,,,59,110
56340,note_on,,,,,60,0,2,,,,,0,,,59,0
56340,note_on,,,,,0,0,2,,,,,0,,,55,93
56385,note_on,,,,,45,0,2,,,,,0,,,55,0
56385,note_on,,,,,105,0,1,,,,,0,,,79,0
56385,note_on,,,,,0,0,1,,,,,0,,,65,0
56385,note_on,,,,,0,0,1,,,,,0,,,67,0
56385,note_on,,,,,0,0,1,,,,,0,,,74,0
56400,note_on,,,,,0,0,1,,,,,0,,,64,88
56400,note_on,,,,,15,0,1,,,,,0,,,72,88
56400,note_on,,,,,15,0,2,,,,,0,,,60,99
56405,control_change,,,,,5,0,1,,,,,0,64,0,,
56410,set_tempo,,,,,180,1,0,,370370,,,,,,,
56420,set_tempo,,,,,10,1,0,,375000,,,,,,,
56445,note_on,,,,,45,0,2,,,,,0,,,60,0
56460,note_on,,,,,15,0,2,,,,,0,,,55,95
56480,set_tempo,,,,,60,1,0,,379746,,,,,,,
56490,note_on,,,,,85,0,1,,,,,0,,,64,0
56490,note_on,,,,,0,0,1,,,,,0,,,72,0
56505,note_on,,,,,45,0,2,,,,,0,,,55,0
56510,set_tempo,,,,,30,1,0,,380952,,,,,,,
56520,note_on,,,,,15,0,2,,,,,0,,,47,89
56520,control_change,,,,,0,0,1,,,,,0,64,95,,
56520,note_on,,,,,30,0,1,,,,,0,,,65,80
56520,note_on,,,,,0,0,1,,,,,0,,,67,80
56520,note_on,,,,,0,0,1,,,,,0,,,74,80
56520,note_on,,,,,0,0,1,,,,,0,,,79,80
56550,set_tempo,,,,,40,1,0,,385852,,,,,,,
56565,note_on,,,,,45,0,1,,,,,0,,,79,0
56565,note_on,,,,,0,0,1,,,,,0,,,65,0
56565,note_on,,,,,0,0,1,,,,,0,,,67,0
56565,note_on,,,,,0,0,1,,,,,0,,,74,0
56565,note_on,,,,,45,0,2,,,,,0,,,47,0
56580,note_on,,,,,15,0,2,,,,,0,,,55,84
56580,note_on,,,,,15,0,1,,,,,0,,,65,71
56580,note_on,,,,,0,0,1,,,,,0,,,67,71
56580,note_on,,,,,0,0,1,,,,,0,,,74,71
56580,note_on,,,,,0,0,1,,,,,0,,,79,71
56610,set_tempo,,,,,60,1,0,,394736,,,,,,,
56625,note_on,,,,,0,0,1,,,,,0,,,74,0
56625,note_on,,,,,0,0,1,,,,,0,,,65,0
56625,note_on,,,,,45,0,2,,,,,0,,,55,0
56625,note_on,,,,,45,0,1,,,,,0,,,79,0
56625,note_on,,,,,0,0,1,,,,,0,,,67,0
56635,control_change,,,,,10,0,1,,,,,0,64,0,,
56640,note_on,,,,,5,0,1,,,,,0,,,72,103
56640,note_on,,,,,0,0,1,,,,,0,,,67,103
56640,note_on,,,,,0,0,1,,,,,0,,,64,103
56640,note_on,,,,,15,0,2,,,,,0,,,48,92
56685,note_on,,,,,45,0,2,,,,,0,,,48,0
56700,note_on,,,,,15,0,2,,,,,0,,,55,84
56730,note_on,,,,,90,0,1,,,,,0,,,64,0
56730,note_on,,,,,0,0,1,,,,,0,,,72,0
56730,note_on,,,,,0,0,1,,,,,0,,,67,0
56745,note_on,,,,,45,0,2,,,,,0,,,55,0
56760,note_on,,,,,0,0,1,,,,,0,,,79,84
56760,note_on,,,,,0,0,1,,,,,0,,,74,84
56760,note_on,,,,,15,0,2,,,,,0,,,59,84
56760,note_on,,,,,0,0,1,,,,,0,,,67,84
56760,note_on,,,,,30,0,1,,,,,0,,,65,84
56760,control_change,,,,,0,0,1,,,,,0,64,95,,
56780,set_tempo,,,,,170,1,0,,402684,,,,,,,
56820,note_on,,,,,0,0,2,,,,,0,,,55,69
56820,note_on,,,,,60,0,2,,,,,0,,,59,0
56865,note_on,,,,,105,0,1,,,,,0,,,79,0
56865,note_on,,,,,0,0,1,,,,,0,,,67,0
56865,note_on,,,,,45,0,2,,,,,0,,,55,0
56865,note_on,,,,,0,0,1,,,,,0,,,65,0
56865,note_on,,,,,0,0,1,,,,,0,,,74,0
56880,note_on,,,,,15,0,1,,,,,0,,,72,68
56880,note_on,,,,,15,0,2,,,,,0,,,60,79
56880,note_on,,,,,0,0,1,,,,,0,,,64,68
56885,control_change,,,,,5,0,1,,,,,0,64,0,,
56910,set_tempo,,,,,130,1,0,,415224,,,,,,,
56925,note_on,,,,,45,0,2,,,,,0,,,60,0
56940,note_on,,,,,15,0,2,,,,,0,,,55,73
56970,note_on,,,,,0,0,1,,,,,0,,,72,0
56970,note_on,,,,,85,0,1,,,,,0,,,64,0
56985,note_on,,,,,45,0,2,,,,,0,,,55,0
57000,note_on,,,,,15,0,2,,,,,0,,,47,61
57000,note_on,,,,,30,0,1,,,,,0,,,65,52
57000,note_on,,,,,0,0,1,,,,,0,,,67,52
57000,note_on,,,,,0,0,1,,,,,0,,,74,52
57000,note_on,,,,,0,0,1,,,,,0,,,79,52
57000,control_change,,,,,0,0,1,,,,,0,64,95,,
57010,set_tempo,,,,,100,1,0,,419580,,,,,,,
57030,set_tempo,,,,,20,1,0,,421052,,,,,,,
57045,note_on,,,,,45,0,1,,,,,0,,,79,0
57045,note_on,,,,,0,0,1,,,,,0,,,65,0
57045,note_on,,,,,0,0,1,,,,,0,,,67,0
57045,note_on,,,,,0,0,1,,,,,0,,,74,0
57045,note_on,,,,,45,0,2,,,,,0,,,47,0
57050,set_tempo,,,,,20,1,0,,428571,,,,,,,
57060,note_on,,,,,0,0,1,,,,,0,,,67,46
57060,note_on,,,,,0,0,1,,,,,0,,,74,46
57060,note_on,,,,,15,0,1,,,,,0,,,65,46
57060,note_on,,,,,15,0,2,,,,,0,,,55,56
57060,note_on,,,,,0,0,1,,,,,0,,,79,46
57100,set_tempo,,,,,50,1,0,,433212,,,,,,,
57105,note_on,,,,,0,0,1,,,,,0,,,74,0
57105,note_on,,,,,45,0,2,,,,,0,,,55,0
57105,note_on,,,,,0,0,1,,,,,0,,,67,0
57105,note_on,,,,,45,0,1,,,,,0,,,79,0
57105,note_on,,,,,0,0,1,,,,,0,,,65,0
57115,control_change,,,,,10,0,1,,,,,0,64,0,,
57120,note_on,,,,,5,0,1,,,,,0,,,72,42
57120,note_on,,,,,0,0,1,,,,,0,,,64,42
57120,note_on,,,,,15,0,2,,,,,0,,,48,49
57165,note_on,,,,,45,0,2,,,,,0,,,48,0
57180,note_on,,,,,15,0,2,,,,,0,,,43,57
57210,note_on,,,,,0,0,1,,,,,0,,,72,0
57210,note_on,,,,,90,0,1,,,,,0,,,64,0
57225,note_on,,,,,45,0,2,,,,,0,,,43,0
57240,note_on,,,,,0,0,1,,,,,0,,,65,55
57240,note_on,,,,,0,0,1,,,,,0,,,67,55
57240,note_on,,,,,15,0,2,,,,,0,,,47,62
57240,control_change,,,,,0,0,1,,,,,0,64,95,,
57240,note_on,,,,,0,0,1,,,,,0,,,74,55
57240,note_on,,,,,30,0,1,,,,,0,,,79,55
57280,set_tempo,,,,,180,1,0,,427046,,,,,,,
57300,note_on,,,,,0,0,2,,,,,0,,,43,56
57300,note_on,,,,,60,0,2,,,,,0,,,47,0
57330,set_tempo,,,,,50,1,0,,416666,,,,,,,
57345,note_on,,,,,105,0,1,,,,,0,,,65,0
57345,note_on,,,,,0,0,1,,,,,0,,,74,0
57345,note_on,,,,,0,0,1,,,,,0,,,67,0
57345,note_on,,,,,45,0,2,,,,,0,,,43,0
57345,note_on,,,,,0,0,1,,,,,0,,,79,0
57355,control_change,,,,,10,0,1,,,,,0,64,0,,
57360,note_on,,,,,5,0,1,,,,,0,,,72,37
57360,note_on,,,,,0,0,1,,,,,0,,,64,37
57360,note_on,,,,,15,0,2,,,,,0,,,48,42
57400,set_tempo,,,,,70,1,0,,406779,,,,,,,
57405,note_on,,,,,45,0,2,,,,,0,,,48,0
57420,note_on,,,,,15,0,2,,,,,0,,,43,49
57430,set_tempo,,,,,30,1,0,,408163,,,,,,,
57450,note_on,,,,,0,0,1,,,,,0,,,72,0
57450,note_on,,,,,90,0,1,,,,,0,,,64,0
57465,note_on,,,,,45,0,2,,,,,0,,,43,0
57480,control_change,,,,,0,0,1,,,,,0,64,96,,
57480,note_on,,,,,0,0,1,,,,,0,,,65,48
57480,note_on,,,,,0,0,1,,,,,0,,,67,48
57480,note_on,,,,,0,0,1,,,,,0,,,74,48
57480,note_on,,,,,30,0,1,,,,,0,,,79,48
57480,note_on,,,,,15,0,2,,,,,0,,,47,53
57530,set_tempo,,,,,100,1,0,,405405,,,,,,,
57540,note_on,,,,,60,0,2,,,,,0,,,47,0
57540,set_tempo,,,,,10,1,0,,402684,,,,,,,
57540,note_on,,,,,0,0,2,,,,,0,,,43,37
57585,note_on,,,,,45,0,2,,,,,0,,,43,0
57585,note_on,,,,,0,0,1,,,,,0,,,79,0
57585,note_on,,,,,0,0,1,,,,,0,,,67,0
57585,note_on,,,,,0,0,1,,,,,0,,,74,0
57585,note_on,,,,,105,0,1,,,,,0,,,65,0
57595,control_change,,,,,10,0,1,,,,,0,64,0,,
57600,note_on,,,,,15,0,2,,,,,0,,,48,40
57600,note_on,,,,,0,0,1,,,,,0,,,64,37
57600,note_on,,,,,5,0,1,,,,,0,,,72,37
57645,note_on,,,,,45,0,2,,,,,0,,,48,0
57660,note_on,,,,,15,0,2,,,,,0,,,50,42
57690,note_on,,,,,90,0,1,,,,,0,,,64,0
57690,note_on,,,,,0,0,1,,,,,0,,,72,0
57705,note_on,,,,,45,0,2,,,,,0,,,50,0
57720,note_on,,,,,15,0,2,,,,,0,,,48,45
57720,note_on,,,,,30,0,1,,,,,0,,,76,47
57720,note_on,,,,,0,0,1,,,,,0,,,72,47
57720,note_on,,,,,0,0,1,,,,,0,,,68,47
57720,control_change,,,,,0,0,1,,,,,0,64,95,,
57730,set_tempo,,,,,190,1,0,,406779,,,,,,,
57760,set_tempo,,,,,30,1,0,,405405,,,,,,,
57765,note_on,,,,,45,0,2,,,,,0,,,48,0
57765,note_on,,,,,0,0,1,,,,,0,,,76,0
57765,note_on,,,,,0,0,1,,,,,0,,,72,0
57765,note_on,,,,,45,0,1,,,,,0,,,68,0
57780,note_on,,,,,15,0,1,,,,,0,,,76,43
57780,note_on,,,,,0,0,1,,,,,0,,,72,43
57780,note_on,,,,,0,0,1,,,,,0,,,68,43
57780,set_tempo,,,,,20,1,0,,409556,,,,,,,
57780,note_on,,,,,15,0,2,,,,,0,,,47,47
57825,note_on,,,,,45,0,1,,,,,0,,,68,0
57825,note_on,,,,,0,0,1,,,,,0,,,72,0
57825,note_on,,,,,0,0,1,,,,,0,,,76,0
57825,note_on,,,,,45,0,2,,,,,0,,,47,0
57835,control_change,,,,,10,0,1,,,,,0,64,0,,
57840,note_on,,,,,15,0,2,,,,,0,,,45,48
57840,note_on,,,,,5,0,1,,,,,0,,,69,48
57840,control_change,,,,,0,0,1,,,,,0,64,95,,
57840,note_on,,,,,0,0,1,,,,,0,,,76,48
57840,note_on,,,,,0,0,1,,,,,0,,,72,48
57840,set_tempo,,,,,60,1,0,,425531,,,,,,,
57885,note_on,,,,,45,0,2,,,,,0,,,45,0
57900,note_on,,,,,15,0,2,,,,,0,,,47,49
57900,set_tempo,,,,,60,1,0,,431654,,,,,,,
57930,note_on,,,,,0,0,1,,,,,0,,,69,0
57930,note_on,,,,,90,0,1,,,,,0,,,76,0
57930,set_tempo,,,,,30,1,0,,437956,,,,,,,
57930,note_on,,,,,0,0,1,,,,,0,,,72,0
57945,note_on,,,,,45,0,2,,,,,0,,,47,0
57950,set_tempo,,,,,20,1,0,,444444,,,,,,,
57955,control_change,,,,,25,0,1,,,,,0,64,0,,
57960,note_on,,,,,15,0,2,,,,,0,,,45,51
57960,note_on,,,,,5,0,1,,,,,0,,,69,53
57960,note_on,,,,,0,0,1,,,,,0,,,72,53
57960,note_on,,,,,0,0,1,,,,,0,,,76,53
57960,control_change,,,,,0,0,1,,,,,0,64,95,,
57980,set_tempo,,,,,30,1,0,,447761,,,,,,,
58012,note_on,,,,,52,0,2,,,,,0,,,45,0
58020,note_on,,,,,8,0,2,,,,,0,,,43,52
58040,set_tempo,,,,,60,1,0,,451127,,,,,,,
58050,note_on,,,,,90,0,1,,,,,0,,,76,0
58050,note_on,,,,,0,0,1,,,,,0,,,72,0
58050,note_on,,,,,0,0,1,,,,,0,,,69,0
58070,control_change,,,,,20,0,1,,,,,0,64,0,,
58075,note_on,,,,,55,0,2,,,,,0,,,43,0
58080,note_on,,,,,10,0,1,,,,,0,,,72,58
58080,note_on,,,,,5,0,2,,,,,0,,,42,53
58080,note_on,,,,,0,0,1,,,,,0,,,76,58
58080,note_on,,,,,0,0,1,,,,,0,,,69,58
58090,set_tempo,,,,,50,1,0,,451127,,,,,,,
58110,set_tempo,,,,,20,1,0,,442804,,,,,,,
58138,note_on,,,,,58,0,2,,,,,0,,,42,0
58140,note_on,,,,,2,0,2,,,,,0,,,43,49
58150,set_tempo,,,,,40,1,0,,431654,,,,,,,
58160,set_tempo,,,,,10,1,0,,430107,,,,,,,
58200,note_on,,,,,60,0,2,,,,,0,,,43,0
58200,note_on,,,,,0,0,2,,,,,0,,,42,46
58200,set_tempo,,,,,40,1,0,,413793,,,,,,,
58210,set_tempo,,,,,10,1,0,,412371,,,,,,,
58250,set_tempo,,,,,40,1,0,,404040,,,,,,,
58260,note_on,,,,,0,0,2,,,,,0,,,40,46
58260,note_on,,,,,60,0,2,,,,,0,,,42,0
58320,note_on,,,,,0,0,2,,,,,0,,,38,46
58320,note_on,,,,,60,0,2,,,,,0,,,40,0
58320,set_tempo,,,,,70,1,0,,394736,,,,,,,
58380,note_on,,,,,0,0,2,,,,,0,,,37,48
58380,note_on,,,,,60,0,2,,,,,0,,,38,0
58430,set_tempo,,,,,110,1,0,,387096,,,,,,,
58440,note_on,,,,,60,0,2,,,,,0,,,37,0
58440,note_on,,,,,0,0,2,,,,,0,,,38,51
58460,set_tempo,,,,,30,1,0,,390879,,,,,,,
58490,set_tempo,,,,,30,1,0,,382165,,,,,,,
58500,note_on,,,,,0,0,2,,,,,0,,,40,54
58500,note_on,,,,,60,0,2,,,,,0,,,38,0
58530,set_tempo,,,,,40,1,0,,377358,,,,,,,
58560,note_on,,,,,0,0,1,,,,,0,,,74,37
58560,note_on,,,,,480,0,1,,,,,0,,,76,0
58560,note_on,,,,,0,0,2,,,,,0,,,42,55
58560,note_on,,,,,60,0,2,,,,,0,,,40,0
58600,set_tempo,,,,,70,1,0,,375000,,,,,,,
58620,note_on,,,,,60,0,2,,,,,0,,,42,0
58620,note_on,,,,,0,0,2,,,,,0,,,43,55
58680,note_on,,,,,0,0,1,,,,,0,,,72,0
58680,note_on,,,,,60,0,2,,,,,0,,,43,0
58680,set_tempo,,,,,80,1,0,,372670,,,,,,,
58680,note_on,,,,,120,0,1,,,,,0,,,74,0
58680,note_on,,,,,0,0,1,,,,,0,,,69,0
58680,note_on,,,,,0,0,2,,,,,0,,,45,53
58690,set_tempo,,,,,10,1,0,,370370,,,,,,,
58740,note_on,,,,,0,0,2,,,,,0,,,47,51
58740,note_on,,,,,60,0,2,,,,,0,,,45,0
58800,note_on,,,,,0,0,2,,,,,0,,,48,49
58800,note_on,,,,,60,0,2,,,,,0,,,47,0
58860,note_on,,,,,0,0,2,,,,,0,,,49,47
58860,note_on,,,,,60,0,2,,,,,0,,,48,0
58920,note_on,,,,,0,0,2,,,,,0,,,50,46
58920,set_tempo,,,,,230,1,0,,372670,,,,,,,
58920,note_on,,,,,60,0,2,,,,,0,,,49,0
58940,set_tempo,,,,,20,1,0,,377358,,,,,,,
58980,note_on,,,,,0,0,2,,,,,0,,,52,44
58980,note_on,,,,,60,0,2,,,,,0,,,50,0
59000,set_tempo,,,,,60,1,0,,384615,,,,,,,
59035,control_change,,,,,355,0,1,,,,,0,64,0,,
59040,control_change,,,,,5,0,1,,,,,0,64,94,,
59040,note_on,,,,,0,0,2,,,,,0,,,54,43
59040,note_on,,,,,60,0,2,,,,,0,,,52,0
59080,set_tempo,,,,,80,1,0,,396039,,,,,,,
59100,note_on,,,,,0,0,2,,,,,0,,,55,43
59100,note_on,,,,,60,0,2,,,,,0,,,54,0
59100,set_tempo,,,,,20,1,0,,397350,,,,,,,
59140,set_tempo,,,,,40,1,0,,405405,,,,,,,
59160,note_on,,,,,60,0,2,,,,,0,,,55,0
59160,note_on,,,,,0,0,2,,,,,0,,,57,44
59170,set_tempo,,,,,30,1,0,,408163,,,,,,,
59180,set_tempo,,,,,10,1,0,,410958,,,,,,,
59220,note_on,,,,,60,0,2,,,,,0,,,57,0
59220,note_on,,,,,0,0,2,,,,,0,,,58,45
59240,set_tempo,,,,,60,1,0,,428571,,,,,,,
59250,set_tempo,,,,,10,1,0,,434782,,,,,,,
59280,note_on,,,,,60,0,2,,,,,0,,,58,0
59280,note_on,,,,,0,0,2,,,,,0,,,59,49
59310,control_change,,,,,270,0,1,,,,,0,64,0,,
59310,set_tempo,,,,,60,1,0,,449438,,,,,,,
59340,note_on,,,,,0,0,2,,,,,0,,,60,53
59340,note_on,,,,,60,0,2,,,,,0,,,59,0
59350,set_tempo,,,,,40,1,0,,459770,,,,,,,
59385,note_on,,,,,45,0,2,,,,,0,,,60,0
59400,set_tempo,,,,,50,1,0,,526315,,,,,,,
59400,marker,,,,,0,1,0,,,,,,,,,
59400,note_on,,,,,15,0,2,,,,,0,,,61,66
59460,note_on,,,,,0,0,2,,,,,0,,,64,56
59460,note_on,,,,,60,0,2,,,,,0,,,61,0
59505,note_on,,,,,45,0,2,,,,,0,,,64,0
59520,note_on,,,,,0,0,2,,,,,0,,,62,48
59520,note_on,,,,,15,0,2,,,,,0,,,55,54
59520,set_tempo,,,,,120,1,0,,377358,,,,,,,
59520,control_change,,,,,0,0,1,,,,,0,64,96,,
59520,note_on,,,,,0,0,1,,,,,0,,,83,54
59520,note_on,,,,,0,0,1,,,,,0,,,79,54
59520,note_on,,,,,210,0,1,,,,,0,,,74,54
59880,note_on,,,,,0,0,2,,,,,0,,,60,39
59880,note_on,,,,,360,0,2,,,,,0,,,62,0
59900,set_tempo,,,,,380,1,0,,389610,,,,,,,
59940,note_on,,,,,60,0,2,,,,,0,,,60,0
59940,note_on,,,,,0,0,2,,,,,0,,,59,41
59980,set_tempo,,,,,80,1,0,,384615,,,,,,,
59980,control_change,,,,,460,0,1,,,,,0,64,0,,
59990,set_tempo,,,,,10,1,0,,382165,,,,,,,
59994,note_on,,,,,54,0,2,,,,,0,,,59,0
60000,note_on,,,,,20,0,1,,,,,0,,,83,0
60000,note_on,,,,,0,0,1,,,,,0,,,79,0
60000,note_on,,,,,0,0,1,,,,,0,,,74,0
60000,note_on,,,,,0,0,1,,,,,0,,,78,48
60000,note_on,,,,,0,0,1,,,,,0,,,74,48
60000,note_on,,,,,0,0,1,,,,,0,,,84,48
60000,control_change,,,,,0,0,1,,,,,0,64,95,,
60000,note_on,,,,,6,0,2,,,,,0,,,57,43
60060,note_on,,,,,0,0,2,,,,,0,,,59,44
60060,note_on,,,,,60,0,2,,,,,0,,,57,0
60080,set_tempo,,,,,90,1,0,,368098,,,,,,,
60120,note_on,,,,,0,0,2,,,,,0,,,60,45
60120,note_on,,,,,60,0,2,,,,,0,,,59,0
60180,note_on,,,,,60,0,2,,,,,0,,,60,0
60180,note_on,,,,,0,0,2,,,,,0,,,62,46
60234,note_on,,,,,54,0,2,,,,,0,,,62,0
60240,note_on,,,,,0,0,1,,,,,0,,,81,48
60240,note_on,,,,,6,0,2,,,,,0,,,60,45
60240,note_on,,,,,240,0,1,,,,,0,,,84,0
60330,note_on,,,,,90,0,1,,,,,0,,,81,0
60330,note_on,,,,,90,0,2,,,,,0,,,60,0
60360,note_on,,,,,0,0,1,,,,,0,,,72,38
60360,note_on,,,,,0,0,1,,,,,0,,,78,0
60360,note_on,,,,,0,0,1,,,,,0,,,78,39
60360,note_on,,,,,30,0,1,,,,,0,,,74,0
60360,note_on,,,,,30,0,2,,,,,0,,,57,38
60420,note_on,,,,,0,0,1,,,,,0,,,76,32
60420,note_on,,,,,60,0,1,,,,,0,,,72,0
60460,control_change,,,,,40,0,1,,,,,0,64,0,,
60465,note_on,,,,,5,0,1,,,,,0,,,76,0
60465,note_on,,,,,0,0,1,,,,,0,,,78,0
60465,note_on,,,,,105,0,2,,,,,0,,,57,0
60465,note_on,,,,,0,0,2,,,,,0,,,55,0
60480,note_on,,,,,15,0,1,,,,,0,,,74,43
60480,note_on,,,,,0,0,1,,,,,0,,,79,43
60480,control_change,,,,,0,0,1,,,,,0,64,95,,
60480,note_on,,,,,15,0,2,,,,,0,,,59,37
60600,note_on,,,,,120,0,1,,,,,0,,,79,0
60600,note_on,,,,,0,0,1,,,,,0,,,71,34
60600,note_on,,,,,0,0,1,,,,,0,,,83,34
60600,note_on,,,,,0,0,2,,,,,0,,,55,30
60600,note_on,,,,,120,0,2,,,,,0,,,59,0
60660,note_on,,,,,60,0,1,,,,,0,,,83,0
60660,note_on,,,,,0,0,1,,,,,0,,,71,0
60660,note_on,,,,,0,0,1,,,,,0,,,74,0
60660,control_change,,,,,0,0,1,,,,,0,64,0,,
60660,note_on,,,,,60,0,2,,,,,0,,,55,0
60720,note_on,,,,,60,0,1,,,,,0,,,59,40
60720,note_on,,,,,0,0,1,,,,,0,,,62,40
60720,note_on,,,,,0,0,2,,,,,0,,,55,42
60720,note_on,,,,,60,0,2,,,,,0,,,50,42
60750,set_tempo,,,,,670,1,0,,382165,,,,,,,
60760,set_tempo,,,,,10,1,0,,384615,,,,,,,
60779,note_on,,,,,59,0,1,,,,,0,,,62,0
60779,note_on,,,,,0,0,1,,,,,0,,,59,0
60779,note_on,,,,,0,0,2,,,,,0,,,50,0
60779,note_on,,,,,59,0,2,,,,,0,,,55,0
60780,note_on,,,,,0,0,1,,,,,0,,,62,33
60780,note_on,,,,,1,0,1,,,,,0,,,59,33
60780,note_on,,,,,1,0,2,,,,,0,,,50,35
60780,note_on,,,,,0,0,2,,,,,0,,,55,35
60800,set_tempo,,,,,40,1,0,,394736,,,,,,,
60834,note_on,,,,,0,0,1,,,,,0,,,59,0
60834,note_on,,,,,54,0,1,,,,,0,,,62,0
60834,note_on,,,,,54,0,2,,,,,0,,,55,0
60834,note_on,,,,,0,0,2,,,,,0,,,50,0
60840,note_on,,,,,0,0,1,,,,,0,,,62,33
60840,note_on,,,,,6,0,1,,,,,0,,,59,33
60840,note_on,,,,,6,0,2,,,,,0,,,50,35
60840,note_on,,,,,0,0,2,,,,,0,,,55,35
60880,set_tempo,,,,,80,1,0,,405405,,,,,,,
60894,note_on,,,,,54,0,2,,,,,0,,,55,0
60894,note_on,,,,,0,0,1,,,,,0,,,59,0
60894,note_on,,,,,0,0,2,,,,,0,,,50,0
60894,note_on,,,,,54,0,1,,,,,0,,,62,0
60900,note_on,,,,,6,0,2,,,,,0,,,50,38
60900,note_on,,,,,6,0,1,,,,,0,,,59,34
60900,note_on,,,,,0,0,1,,,,,0,,,62,34
60900,note_on,,,,,0,0,2,,,,,0,,,55,38
60950,set_tempo,,,,,70,1,0,,402684,,,,,,,
60954,note_on,,,,,54,0,1,,,,,0,,,62,0
60954,note_on,,,,,0,0,1,,,,,0,,,59,0
60954,note_on,,,,,0,0,2,,,,,0,,,50,0
60954,note_on,,,,,54,0,2,,,,,0,,,55,0
60960,note_on,,,,,6,0,1,,,,,0,,,59,40
60960,control_change,,,,,0,0,1,,,,,0,64,95,,
60960,note_on,,,,,0,0,1,,,,,0,,,62,40
60960,note_on,,,,,0,0,2,,,,,0,,,55,41
60960,note_on,,,,,6,0,2,,,,,0,,,50,41
61020,set_tempo,,,,,70,1,0,,389610,,,,,,,
61070,set_tempo,,,,,50,1,0,,379746,,,,,,,
61080,note_on,,,,,0,0,1,,,,,0,,,59,0
61080,note_on,,,,,0,0,1,,,,,0,,,60,39
61080,note_on,,,,,0,0,1,,,,,0,,,64,39
61080,note_on,,,,,120,0,1,,,,,0,,,62,0
61200,note_on,,,,,0,0,1,,,,,0,,,59,30
61200,note_on,,,,,0,0,1,,,,,0,,,62,30
61200,note_on,,,,,120,0,1,,,,,0,,,64,0
61200,note_on,,,,,0,0,1,,,,,0,,,60,0
61260,note_on,,,,,60,0,1,,,,,0,,,62,0
61260,control_change,,,,,0,0,1,,,,,0,64,0,,
61260,note_on,,,,,0,0,2,,,,,0,,,50,0
61260,note_on,,,,,300,0,2,,,,,0,,,55,0
61260,note_on,,,,,0,0,1,,,,,0,,,59,0
61320,note_on,,,,,60,0,2,,,,,0,,,67,52
61350,set_tempo,,,,,280,1,0,,394736,,,,,,,
61380,note_on,,,,,0,0,2,,,,,0,,,61,46
61380,note_on,,,,,60,0,2,,,,,0,,,67,0
61432,note_on,,,,,52,0,2,,,,,0,,,61,0
61440,note_on,,,,,180,0,1,,,,,0,,,74,53
61440,control_change,,,,,0,0,1,,,,,0,64,96,,
61440,note_on,,,,,0,0,1,,,,,0,,,83,54
61440,note_on,,,,,0,0,1,,,,,0,,,79,54
61440,set_tempo,,,,,90,1,0,,377358,,,,,,,
61440,note_on,,,,,0,0,2,,,,,0,,,62,48
61440,note_on,,,,,8,0,2,,,,,0,,,55,54
61800,note_on,,,,,0,0,2,,,,,0,,,60,39
61800,note_on,,,,,360,0,2,,,,,0,,,62,0
61820,set_tempo,,,,,380,1,0,,389610,,,,,,,
61860,note_on,,,,,60,0,2,,,,,0,,,60,0
61860,note_on,,,,,0,0,2,,,,,0,,,59,41
61900,control_change,,,,,460,0,1,,,,,0,64,0,,
61900,set_tempo,,,,,80,1,0,,384615,,,,,,,
61910,set_tempo,,,,,10,1,0,,382165,,,,,,,
61914,note_on,,,,,54,0,2,,,,,0,,,59,0
61920,control_change,,,,,0,0,1,,,,,0,64,95,,
61920,note_on,,,,,0,0,1,,,,,0,,,78,48
61920,note_on,,,,,0,0,1,,,,,0,,,74,48
61920,note_on,,,,,0,0,1,,,,,0,,,84,48
61920,note_on,,,,,0,0,1,,,,,0,,,74,0
61920,note_on,,,,,0,0,1,,,,,0,,,79,0
61920,note_on,,,,,20,0,1,,,,,0,,,83,0
61920,note_on,,,,,6,0,2,,,,,0,,,57,43
61980,note_on,,,,,60,0,2,,,,,0,,,57,0
61980,note_on,,,,,0,0,2,,,,,0,,,59,44
62000,set_tempo,,,,,90,1,0,,368098,,,,,,,
62040,note_on,,,,,0,0,2,,,,,0,,,60,45
62040,note_on,,,,,60,0,2,,,,,0,,,59,0
62100,note_on,,,,,60,0,2,,,,,0,,,60,0
62100,note_on,,,,,0,0,2,,,,,0,,,62,46
62154,note_on,,,,,54,0,2,,,,,0,,,62,0
62160,note_on,,,,,6,0,2,,,,,0,,,60,45
62160,note_on,,,,,0,0,1,,,,,0,,,81,48
62160,note_on,,,,,240,0,1,,,,,0,,,84,0
62250,note_on,,,,,90,0,2,,,,,0,,,60,0
62250,note_on,,,,,90,0,1,,,,,0,,,81,0
62280,note_on,,,,,0,0,1,,,,,0,,,74,0
62280,note_on,,,,,0,0,1,,,,,0,,,78,39
62280,note_on,,,,,30,0,2,,,,,0,,,57,38
62280,note_on,,,,,30,0,1,,,,,0,,,78,0
62280,note_on,,,,,0,0,1,,,,,0,,,72,34
62340,note_on,,,,,0,0,1,,,,,0,,,74,30
62340,note_on,,,,,60,0,1,,,,,0,,,72,0
62380,control_change,,,,,40,0,1,,,,,0,64,0,,
62385,note_on,,,,,5,0,1,,,,,0,,,74,0
62385,note_on,,,,,0,0,1,,,,,0,,,78,0
62385,note_on,,,,,105,0,2,,,,,0,,,57,0
62385,note_on,,,,,0,0,2,,,,,0,,,55,0
62400,note_on,,,,,15,0,1,,,,,0,,,71,43
62400,note_on,,,,,0,0,1,,,,,0,,,79,43
62400,control_change,,,,,0,0,1,,,,,0,64,95,,
62400,note_on,,,,,15,0,2,,,,,0,,,55,36
62520,note_on,,,,,0,0,1,,,,,0,,,71,0
62520,note_on,,,,,0,0,2,,,,,0,,,50,30
62520,note_on,,,,,0,0,1,,,,,0,,,83,34
62520,note_on,,,,,0,0,1,,,,,0,,,74,34
62520,note_on,,,,,120,0,2,,,,,0,,,55,0
62520,note_on,,,,,120,0,1,,,,,0,,,79,0
62580,note_on,,,,,60,0,2,,,,,0,,,50,0
62580,note_on,,,,,60,0,1,,,,,0,,,83,0
62580,note_on,,,,,0,0,1,,,,,0,,,74,0
62580,control_change,,,,,0,0,1,,,,,0,64,0,,
62640,note_on,,,,,0,0,2,,,,,0,,,62,51
62640,note_on,,,,,60,0,2,,,,,0,,,67,51
62640,note_on,,,,,0,0,1,,,,,0,,,71,48
62640,note_on,,,,,60,0,1,,,,,0,,,79,48
62670,set_tempo,,,,,670,1,0,,382165,,,,,,,
62680,set_tempo,,,,,10,1,0,,384615,,,,,,,
62699,note_on,,,,,59,0,1,,,,,0,,,71,0
62699,note_on,,,,,59,0,2,,,,,0,,,62,0
62699,note_on,,,,,0,0,2,,,,,0,,,67,0
62699,note_on,,,,,0,0,1,,,,,0,,,79,0
62700,note_on,,,,,1,0,2,,,,,0,,,62,46
62700,note_on,,,,,0,0,1,,,,,0,,,79,44
62700,note_on,,,,,0,0,2,,,,,0,,,67,46
62700,note_on,,,,,1,0,1,,,,,0,,,71,44
62750,set_tempo,,,,,70,1,0,,397350,,,,,,,
62754,note_on,,,,,54,0,2,,,,,0,,,67,0
62754,note_on,,,,,0,0,1,,,,,0,,,71,0
62754,note_on,,,,,54,0,1,,,,,0,,,79,0
62754,note_on,,,,,0,0,2,,,,,0,,,62,0
62760,note_on,,,,,6,0,1,,,,,0,,,71,46
62760,note_on,,,,,0,0,2,,,,,0,,,67,50
62760,note_on,,,,,6,0,2,,,,,0,,,62,50
62760,note_on,,,,,0,0,1,,,,,0,,,79,46
62800,set_tempo,,,,,50,1,0,,405405,,,,,,,
62814,note_on,,,,,0,0,2,,,,,0,,,62,0
62814,note_on,,,,,54,0,2,,,,,0,,,67,0
62814,note_on,,,,,0,0,1,,,,,0,,,71,0
62814,note_on,,,,,54,0,1,,,,,0,,,79,0
62820,note_on,,,,,6,0,2,,,,,0,,,62,52
62820,note_on,,,,,0,0,2,,,,,0,,,67,52
62820,note_on,,,,,0,0,1,,,,,0,,,79,49
62820,note_on,,,,,6,0,1,,,,,0,,,71,49
62870,set_tempo,,,,,70,1,0,,402684,,,,,,,
62874,note_on,,,,,54,0,2,,,,,0,,,67,0
62874,note_on,,,,,0,0,2,,,,,0,,,62,0
62874,note_on,,,,,54,0,1,,,,,0,,,79,0
62874,note_on,,,,,0,0,1,,,,,0,,,71,0
62880,note_on,,,,,0,0,2,,,,,0,,,67,55
62880,note_on,,,,,6,0,2,,,,,0,,,62,55
62880,set_tempo,,,,,10,1,0,,400000,,,,,,,
62880,note_on,,,,,6,0,1,,,,,0,,,71,51
62880,note_on,,,,,0,0,1,,,,,0,,,79,51
62880,control_change,,,,,0,0,1,,,,,0,64,95,,
62910,set_tempo,,,,,30,1,0,,394736,,,,,,,
62940,set_tempo,,,,,30,1,0,,389610,,,,,,,
62970,set_tempo,,,,,30,1,0,,383386,,,,,,,
62990,set_tempo,,,,,20,1,0,,379746,,,,,,,
63000,note_on,,,,,0,0,1,,,,,0,,,72,43
63000,note_on,,,,,120,0,1,,,,,0,,,79,0
63000,note_on,,,,,0,0,1,,,,,0,,,71,0
63000,note_on,,,,,0,0,1,,,,,0,,,76,43
63120,note_on,,,,,0,0,1,,,,,0,,,74,37
63120,note_on,,,,,0,0,1,,,,,0,,,71,37
63120,note_on,,,,,120,0,1,,,,,0,,,76,0
63120,note_on,,,,,0,0,1,,,,,0,,,72,0
63180,control_change,,,,,0,0,1,,,,,0,64,0,,
63180,note_on,,,,,0,0,1,,,,,0,,,71,0
63180,note_on,,,,,60,0,1,,,,,0,,,74,0
63180,note_on,,,,,0,0,2,,,,,0,,,62,0
63180,note_on,,,,,300,0,2,,,,,0,,,67,0
63240,note_on,,,,,60,0,1,,,,,0,,,62,42
63240,note_on,,,,,60,0,2,,,,,0,,,50,30
63240,note_on,,,,,0,0,2,,,,,0,,,59,30
63330,note_on,,,,,90,0,2,,,,,0,,,59,0
63330,note_on,,,,,0,0,2,,,,,0,,,50,0
63330,note_on,,,,,90,0,1,,,,,0,,,62,0
63360,note_on,,,,,30,0,2,,,,,0,,,50,36
63360,note_on,,,,,0,0,2,,,,,0,,,60,36
63360,note_on,,,,,30,0,1,,,,,0,,,64,48
63360,control_change,,,,,0,0,1,,,,,0,64,95,,
63360,set_tempo,,,,,370,1,0,,425531,,,,,,,
63419,note_on,,,,,0,0,2,,,,,0,,,50,0
63419,note_on,,,,,59,0,2,,,,,0,,,60,0
63420,note_on,,,,,1,0,2,,,,,0,,,50,34
63420,note_on,,,,,0,0,2,,,,,0,,,60,34
63460,set_tempo,,,,,100,1,0,,377358,,,,,,,
63474,note_on,,,,,54,0,2,,,,,0,,,60,0
63474,note_on,,,,,0,0,2,,,,,0,,,50,0
63480,note_on,,,,,6,0,2,,,,,0,,,50,32
63480,note_on,,,,,0,0,2,,,,,0,,,60,32
63534,note_on,,,,,54,0,2,,,,,0,,,60,0
63534,note_on,,,,,0,0,2,,,,,0,,,50,0
63540,note_on,,,,,6,0,2,,,,,0,,,50,32
63540,note_on,,,,,0,0,2,,,,,0,,,60,32
63594,note_on,,,,,54,0,2,,,,,0,,,60,0
63594,note_on,,,,,0,0,2,,,,,0,,,50,0
63600,note_on,,,,,6,0,2,,,,,0,,,50,30
63600,note_on,,,,,0,0,2,,,,,0,,,60,30
63710,control_change,,,,,350,0,1,,,,,0,64,0,,
63720,note_on,,,,,10,0,1,,,,,0,,,64,0
63720,note_on,,,,,0,0,1,,,,,0,,,66,43
63720,note_on,,,,,120,0,2,,,,,0,,,60,0
63720,note_on,,,,,0,0,2,,,,,0,,,50,0
63780,note_on,,,,,0,0,1,,,,,0,,,67,47
63780,note_on,,,,,60,0,1,,,,,0,,,66,0
63840,note_on,,,,,0,0,1,,,,,0,,,66,50
63840,set_tempo,,,,,380,1,0,,400000,,,,,,,
63840,note_on,,,,,0,0,2,,,,,0,,,57,36
63840,note_on,,,,,120,0,2,,,,,0,,,50,36
63840,note_on,,,,,60,0,1,,,,,0,,,67,0
63840,control_change,,,,,0,0,1,,,,,0,64,95,,
63899,note_on,,,,,0,0,2,,,,,0,,,50,0
63899,note_on,,,,,59,0,2,,,,,0,,,57,0
63900,note_on,,,,,60,0,1,,,,,0,,,66,0
63900,note_on,,,,,0,0,1,,,,,0,,,67,49
63900,note_on,,,,,0,0,2,,,,,0,,,57,34
63900,note_on,,,,,1,0,2,,,,,0,,,50,34
63930,set_tempo,,,,,90,1,0,,377358,,,,,,,
63954,note_on,,,,,54,0,2,,,,,0,,,57,0
63954,note_on,,,,,0,0,2,,,,,0,,,50,0
63960,note_on,,,,,6,0,2,,,,,0,,,50,33
63960,note_on,,,,,60,0,1,,,,,0,,,67,0
63960,note_on,,,,,0,0,1,,,,,0,,,69,46
63960,note_on,,,,,0,0,2,,,,,0,,,57,33
64014,note_on,,,,,0,0,2,,,,,0,,,50,0
64014,note_on,,,,,54,0,2,,,,,0,,,57,0
64020,note_on,,,,,0,0,1,,,,,0,,,71,41
64020,note_on,,,,,60,0,1,,,,,0,,,69,0
64020,note_on,,,,,6,0,2,,,,,0,,,50,32
64020,note_on,,,,,0,0,2,,,,,0,,,57,32
64074,note_on,,,,,54,0,1,,,,,0,,,71,0
64074,note_on,,,,,54,0,2,,,,,0,,,57,0
64074,note_on,,,,,0,0,2,,,,,0,,,50,0
64080,note_on,,,,,0,0,2,,,,,0,,,50,31
64080,note_on,,,,,6,0,2,,,,,0,,,54,31
64080,note_on,,,,,6,0,1,,,,,0,,,72,43
64170,note_on,,,,,90,0,1,,,,,0,,,72,0
64200,note_on,,,,,0,0,2,,,,,0,,,54,0
64200,note_on,,,,,120,0,2,,,,,0,,,50,0
64200,control_change,,,,,0,0,1,,,,,0,64,0,,
64200,note_on,,,,,30,0,1,,,,,0,,,74,46
64290,note_on,,,,,90,0,1,,,,,0,,,74,0
64320,set_tempo,,,,,390,1,0,,431654,,,,,,,
64320,note_on,,,,,120,0,2,,,,,0,,,43,41
64320,note_on,,,,,30,0,1,,,,,0,,,67,50
64320,note_on,,,,,0,0,1,,,,,0,,,71,50
64379,note_on,,,,,59,0,2,,,,,0,,,43,0
64380,note_on,,,,,1,0,2,,,,,0,,,50,37
64410,set_tempo,,,,,90,1,0,,377358,,,,,,,
64434,note_on,,,,,54,0,2,,,,,0,,,50,0
64440,note_on,,,,,0,0,2,,,,,0,,,55,35
64440,note_on,,,,,6,0,2,,,,,0,,,47,35
64494,note_on,,,,,0,0,2,,,,,0,,,47,0
64494,note_on,,,,,54,0,2,,,,,0,,,55,0
64500,note_on,,,,,0,0,2,,,,,0,,,50,32
64500,note_on,,,,,6,0,2,,,,,0,,,57,32
64554,note_on,,,,,54,0,2,,,,,0,,,50,0
64554,note_on,,,,,0,0,2,,,,,0,,,57,0
64560,control_change,,,,,240,0,1,,,,,0,64,96,,
64560,note_on,,,,,6,0,2,,,,,0,,,55,29
64560,note_on,,,,,0,0,2,,,,,0,,,59,29
64650,note_on,,,,,90,0,2,,,,,0,,,59,0
64650,note_on,,,,,0,0,2,,,,,0,,,55,0
64680,note_on,,,,,120,0,1,,,,,0,,,71,0
64680,note_on,,,,,0,0,1,,,,,0,,,67,0
64680,control_change,,,,,0,0,1,,,,,0,64,0,,
64680,note_on,,,,,0,0,1,,,,,0,,,69,42
64680,note_on,,,,,0,0,1,,,,,0,,,72,42
64680,note_on,,,,,30,0,2,,,,,0,,,43,25
64740,note_on,,,,,0,0,1,,,,,0,,,74,44
64740,note_on,,,,,0,0,1,,,,,0,,,71,44
64740,note_on,,,,,0,0,1,,,,,0,,,69,0
64740,note_on,,,,,60,0,1,,,,,0,,,72,0
64770,note_on,,,,,90,0,2,,,,,0,,,43,0
64800,note_on,,,,,0,0,1,,,,,0,,,72,45
64800,note_on,,,,,0,0,2,,,,,0,,,55,39
64800,note_on,,,,,30,0,2,,,,,0,,,60,39
64800,note_on,,,,,0,0,1,,,,,0,,,76,45
64800,control_change,,,,,0,0,1,,,,,0,64,95,,
64800,note_on,,,,,60,0,1,,,,,0,,,74,0
64800,note_on,,,,,0,0,1,,,,,0,,,71,0
64810,set_tempo,,,,,400,1,0,,402684,,,,,,,
64859,note_on,,,,,59,0,2,,,,,0,,,55,0
64859,note_on,,,,,0,0,2,,,,,0,,,60,0
64860,set_tempo,,,,,50,1,0,,375000,,,,,,,
64860,note_on,,,,,0,0,2,,,,,0,,,55,37
64860,note_on,,,,,1,0,2,,,,,0,,,60,37
64860,note_on,,,,,60,0,1,,,,,0,,,76,0
64860,note_on,,,,,0,0,1,,,,,0,,,72,0
64860,note_on,,,,,0,0,1,,,,,0,,,74,47
64860,note_on,,,,,0,0,1,,,,,0,,,78,47
64914,note_on,,,,,54,0,2,,,,,0,,,55,0
64914,note_on,,,,,0,0,2,,,,,0,,,60,0
64920,note_on,,,,,0,0,1,,,,,0,,,79,49
64920,note_on,,,,,0,0,1,,,,,0,,,76,49
64920,note_on,,,,,6,0,2,,,,,0,,,60,35
64920,note_on,,,,,0,0,2,,,,,0,,,55,35
64920,note_on,,,,,0,0,1,,,,,0,,,74,0
64920,note_on,,,,,60,0,1,,,,,0,,,78,0
64974,note_on,,,,,54,0,2,,,,,0,,,55,0
64974,note_on,,,,,0,0,2,,,,,0,,,60,0
64980,note_on,,,,,0,0,1,,,,,0,,,81,50
64980,note_on,,,,,0,0,2,,,,,0,,,55,34
64980,note_on,,,,,6,0,2,,,,,0,,,60,34
64980,note_on,,,,,60,0,1,,,,,0,,,79,0
64980,note_on,,,,,0,0,1,,,,,0,,,76,0
64980,note_on,,,,,0,0,1,,,,,0,,,78,50
65034,note_on,,,,,0,0,2,,,,,0,,,60,0
65034,note_on,,,,,54,0,2,,,,,0,,,55,0
65040,note_on,,,,,6,0,2,,,,,0,,,60,34
65040,note_on,,,,,0,0,2,,,,,0,,,52,34
65040,note_on,,,,,0,0,1,,,,,0,,,78,0
65040,note_on,,,,,60,0,1,,,,,0,,,81,0
65040,note_on,,,,,0,0,1,,,,,0,,,71,52
65040,note_on,,,,,0,0,1,,,,,0,,,75,52
65130,note_on,,,,,90,0,1,,,,,0,,,75,0
65130,note_on,,,,,0,0,2,,,,,0,,,60,0
65130,note_on,,,,,90,0,2,,,,,0,,,52,0
65130,note_on,,,,,0,0,1,,,,,0,,,78,45
65130,note_on,,,,,0,0,1,,,,,0,,,71,0
65145,note_on,,,,,15,0,1,,,,,0,,,78,0
65160,note_on,,,,,30,0,2,,,,,0,,,48,29
65160,control_change,,,,,0,0,1,,,,,0,64,0,,
65160,note_on,,,,,15,0,1,,,,,0,,,72,43
65160,note_on,,,,,0,0,1,,,,,0,,,76,43
65250,note_on,,,,,0,0,1,,,,,0,,,72,0
65250,note_on,,,,,90,0,2,,,,,0,,,48,0
65250,note_on,,,,,90,0,1,,,,,0,,,76,0
65280,note_on,,,,,30,0,2,,,,,0,,,55,41
65280,note_on,,,,,0,0,1,,,,,0,,,74,32
65280,note_on,,,,,30,0,1,,,,,0,,,71,32
65280,set_tempo,,,,,420,1,0,,425531,,,,,,,
65339,note_on,,,,,59,0,2,,,,,0,,,55,0
65340,note_on,,,,,0,0,2,,,,,0,,,57,39
65340,note_on,,,,,1,0,2,,,,,0,,,50,39
65360,set_tempo,,,,,80,1,0,,377358,,,,,,,
65394,note_on,,,,,54,0,2,,,,,0,,,57,0
65394,note_on,,,,,0,0,2,,,,,0,,,50,0
65400,note_on,,,,,6,0,2,,,,,0,,,55,36
65400,note_on,,,,,0,0,2,,,,,0,,,59,36
65454,note_on,,,,,54,0,2,,,,,0,,,59,0
65454,note_on,,,,,0,0,2,,,,,0,,,55,0
65460,note_on,,,,,0,0,2,,,,,0,,,60,33
65460,note_on,,,,,6,0,2,,,,,0,,,57,33
65514,note_on,,,,,0,0,2,,,,,0,,,57,0
65514,note_on,,,,,54,0,2,,,,,0,,,60,0
65520,note_on,,,,,0,0,2,,,,,0,,,62,31
65520,note_on,,,,,6,0,2,,,,,0,,,59,31
65520,control_change,,,,,240,0,1,,,,,0,64,95,,
65610,note_on,,,,,90,0,2,,,,,0,,,62,0
65610,note_on,,,,,90,0,1,,,,,0,,,74,0
65610,note_on,,,,,0,0,1,,,,,0,,,71,0
65610,note_on,,,,,0,0,2,,,,,0,,,59,0
65640,note_on,,,,,30,0,1,,,,,0,,,62,39
65640,control_change,,,,,0,0,1,,,,,0,64,0,,
65640,note_on,,,,,30,0,2,,,,,0,,,59,31
65640,note_on,,,,,0,0,2,,,,,0,,,50,31
65700,note_on,,,,,60,0,1,,,,,0,,,62,0
65700,note_on,,,,,0,0,1,,,,,0,,,67,42
65730,note_on,,,,,90,0,2,,,,,0,,,50,0
65730,note_on,,,,,0,0,2,,,,,0,,,59,0
65760,set_tempo,,,,,400,1,0,,425531,,,,,,,
65760,note_on,,,,,60,0,1,,,,,0,,,67,0
65760,note_on,,,,,0,0,2,,,,,0,,,60,36
65760,note_on,,,,,0,0,1,,,,,0,,,64,47
65760,control_change,,,,,0,0,1,,,,,0,64,95,,
65760,note_on,,,,,30,0,2,,,,,0,,,50,36
65819,note_on,,,,,0,0,2,,,,,0,,,50,0
65819,note_on,,,,,59,0,2,,,,,0,,,60,0
65820,note_on,,,,,1,0,2,,,,,0,,,50,34
65820,note_on,,,,,0,0,2,,,,,0,,,60,34
65860,set_tempo,,,,,100,1,0,,377358,,,,,,,
65874,note_on,,,,,54,0,2,,,,,0,,,60,0
65874,note_on,,,,,0,0,2,,,,,0,,,50,0
65880,note_on,,,,,0,0,2,,,,,0,,,60,32
65880,note_on,,,,,6,0,2,,,,,0,,,50,32
65934,note_on,,,,,54,0,2,,,,,0,,,60,0
65934,note_on,,,,,0,0,2,,,,,0,,,50,0
65940,note_on,,,,,0,0,2,,,,,0,,,60,32
65940,note_on,,,,,6,0,2,,,,,0,,,50,32
65994,note_on,,,,,54,0,2,,,,,0,,,60,0
65994,note_on,,,,,0,0,2,,,,,0,,,50,0
66000,note_on,,,,,6,0,2,,,,,0,,,50,30
66000,note_on,,,,,0,0,2,,,,,0,,,60,30
66060,note_on,,,,,300,0,1,,,,,0,,,64,0
66060,note_on,,,,,0,0,1,,,,,0,,,76,47
66110,control_change,,,,,50,0,1,,,,,0,64,0,,
66120,note_on,,,,,10,0,1,,,,,0,,,76,0
66120,note_on,,,,,120,0,2,,,,,0,,,60,0
66120,note_on,,,,,0,0,2,,,,,0,,,50,0
66120,note_on,,,,,0,0,1,,,,,0,,,72,43
66180,note_on,,,,,0,0,1,,,,,0,,,69,47
66180,note_on,,,,,60,0,1,,,,,0,,,72,0
66240,note_on,,,,,120,0,2,,,,,0,,,50,36
66240,note_on,,,,,0,0,2,,,,,0,,,57,36
66240,set_tempo,,,,,380,1,0,,397350,,,,,,,
66240,note_on,,,,,60,0,1,,,,,0,,,69,0
66240,note_on,,,,,0,0,1,,,,,0,,,66,50
66240,control_change,,,,,0,0,1,,,,,0,64,95,,
66299,note_on,,,,,59,0,2,,,,,0,,,57,0
66299,note_on,,,,,0,0,2,,,,,0,,,50,0
66300,note_on,,,,,60,0,1,,,,,0,,,66,0
66300,note_on,,,,,0,0,1,,,,,0,,,67,49
66300,note_on,,,,,0,0,2,,,,,0,,,57,34
66300,note_on,,,,,1,0,2,,,,,0,,,50,34
66330,set_tempo,,,,,90,1,0,,377358,,,,,,,
66350,set_tempo,,,,,20,1,0,,369230,,,,,,,
66354,note_on,,,,,0,0,2,,,,,0,,,50,0
66354,note_on,,,,,54,0,2,,,,,0,,,57,0
66360,note_on,,,,,6,0,2,,,,,0,,,50,33
66360,note_on,,,,,0,0,2,,,,,0,,,57,33
66360,note_on,,,,,60,0,1,,,,,0,,,67,0
66360,note_on,,,,,0,0,1,,,,,0,,,69,46
66414,note_on,,,,,0,0,2,,,,,0,,,50,0
66414,note_on,,,,,54,0,2,,,,,0,,,57,0
66420,note_on,,,,,0,0,1,,,,,0,,,71,41
66420,note_on,,,,,60,0,1,,,,,0,,,69,0
66420,note_on,,,,,0,0,2,,,,,0,,,57,32
66420,note_on,,,,,6,0,2,,,,,0,,,50,32
66420,set_tempo,,,,,70,1,0,,365853,,,,,,,
66474,note_on,,,,,54,0,1,,,,,0,,,71,0
66474,note_on,,,,,0,0,2,,,,,0,,,50,0
66474,note_on,,,,,54,0,2,,,,,0,,,57,0
66480,note_on,,,,,0,0,2,,,,,0,,,50,31
66480,note_on,,,,,6,0,2,,,,,0,,,54,31
66480,note_on,,,,,6,0,1,,,,,0,,,72,43
66540,set_tempo,,,,,120,1,0,,360360,,,,,,,
66570,note_on,,,,,90,0,1,,,,,0,,,72,0
66595,control_change,,,,,25,0,1,,,,,0,64,0,,
66600,note_on,,,,,120,0,2,,,,,0,,,50,0
66600,note_on,,,,,5,0,1,,,,,0,,,74,46
66600,note_on,,,,,0,0,2,,,,,0,,,54,0
66610,set_tempo,,,,,70,1,0,,361445,,,,,,,
66680,set_tempo,,,,,70,1,0,,400000,,,,,,,
66690,note_on,,,,,90,0,1,,,,,0,,,74,0
66720,set_tempo,,,,,40,1,0,,431654,,,,,,,
66720,note_on,,,,,30,0,1,,,,,0,,,67,50
66720,note_on,,,,,0,0,1,,,,,0,,,71,50
66720,note_on,,,,,120,0,2,,,,,0,,,43,40
66779,note_on,,,,,59,0,2,,,,,0,,,43,0
66780,note_on,,,,,1,0,2,,,,,0,,,50,37
66810,set_tempo,,,,,90,1,0,,372670,,,,,,,
66834,note_on,,,,,54,0,2,,,,,0,,,50,0
66840,note_on,,,,,0,0,2,,,,,0,,,55,34
66840,note_on,,,,,6,0,2,,,,,0,,,47,34
66894,note_on,,,,,54,0,2,,,,,0,,,55,0
66894,note_on,,,,,0,0,2,,,,,0,,,47,0
66900,note_on,,,,,6,0,2,,,,,0,,,57,33
66900,note_on,,,,,0,0,2,,,,,0,,,50,33
66954,note_on,,,,,54,0,2,,,,,0,,,50,0
66954,note_on,,,,,0,0,2,,,,,0,,,57,0
66960,control_change,,,,,240,0,1,,,,,0,64,96,,
66960,note_on,,,,,6,0,2,,,,,0,,,55,31
66960,note_on,,,,,0,0,2,,,,,0,,,59,31
67010,set_tempo,,,,,200,1,0,,369230,,,,,,,
67050,note_on,,,,,90,0,2,,,,,0,,,59,0
67050,note_on,,,,,0,0,2,,,,,0,,,55,0
67080,note_on,,,,,30,0,2,,,,,0,,,43,40
67080,set_tempo,,,,,70,1,0,,362537,,,,,,,
67080,note_on,,,,,120,0,1,,,,,0,,,71,0
67080,note_on,,,,,0,0,1,,,,,0,,,67,0
67080,note_on,,,,,0,0,1,,,,,0,,,69,42
67080,note_on,,,,,0,0,1,,,,,0,,,72,42
67080,control_change,,,,,0,0,1,,,,,0,64,0,,
67140,note_on,,,,,60,0,1,,,,,0,,,72,0
67140,note_on,,,,,0,0,1,,,,,0,,,69,0
67140,note_on,,,,,0,0,1,,,,,0,,,71,44
67140,note_on,,,,,0,0,1,,,,,0,,,74,44
67170,note_on,,,,,90,0,2,,,,,0,,,43,0
67180,set_tempo,,,,,100,1,0,,361445,,,,,,,
67200,set_tempo,,,,,20,1,0,,389610,,,,,,,
67200,note_on,,,,,0,0,2,,,,,0,,,55,51
67200,note_on,,,,,30,0,2,,,,,0,,,60,51
67200,control_change,,,,,0,0,1,,,,,0,64,95,,
67200,note_on,,,,,0,0,1,,,,,0,,,71,0
67200,note_on,,,,,0,0,1,,,,,0,,,72,46
67200,note_on,,,,,60,0,1,,,,,0,,,74,0
67200,note_on,,,,,0,0,1,,,,,0,,,76,46
67250,set_tempo,,,,,50,1,0,,361445,,,,,,,
67259,note_on,,,,,59,0,2,,,,,0,,,55,0
67259,note_on,,,,,0,0,2,,,,,0,,,60,0
67260,note_on,,,,,60,0,1,,,,,0,,,76,0
67260,note_on,,,,,0,0,1,,,,,0,,,72,0
67260,note_on,,,,,0,0,1,,,,,0,,,74,49
67260,note_on,,,,,0,0,1,,,,,0,,,78,49
67260,note_on,,,,,1,0,2,,,,,0,,,60,48
67260,note_on,,,,,0,0,2,,,,,0,,,55,48
67270,set_tempo,,,,,20,1,0,,358208,,,,,,,
67314,note_on,,,,,54,0,2,,,,,0,,,55,0
67314,note_on,,,,,0,0,2,,,,,0,,,60,0
67320,note_on,,,,,60,0,1,,,,,0,,,78,0
67320,note_on,,,,,0,0,1,,,,,0,,,79,49
67320,note_on,,,,,0,0,1,,,,,0,,,76,49
67320,set_tempo,,,,,50,1,0,,353982,,,,,,,
67320,note_on,,,,,0,0,1,,,,,0,,,74,0
67320,note_on,,,,,0,0,2,,,,,0,,,55,44
67320,note_on,,,,,6,0,2,,,,,0,,,60,44
67374,note_on,,,,,54,0,2,,,,,0,,,55,0
67374,note_on,,,,,0,0,2,,,,,0,,,60,0
67380,note_on,,,,,0,0,2,,,,,0,,,55,41
67380,note_on,,,,,60,0,1,,,,,0,,,79,0
67380,note_on,,,,,0,0,1,,,,,0,,,76,0
67380,note_on,,,,,0,0,1,,,,,0,,,78,51
67380,note_on,,,,,0,0,1,,,,,0,,,81,51
67380,note_on,,,,,6,0,2,,,,,0,,,60,41
67390,set_tempo,,,,,70,1,0,,350877,,,,,,,
67434,note_on,,,,,54,0,2,,,,,0,,,55,0
67434,note_on,,,,,0,0,2,,,,,0,,,60,0
67440,note_on,,,,,0,0,1,,,,,0,,,79,54
67440,note_on,,,,,0,0,2,,,,,0,,,52,38
67440,note_on,,,,,6,0,2,,,,,0,,,60,38
67440,note_on,,,,,0,0,1,,,,,0,,,78,0
67440,note_on,,,,,60,0,1,,,,,0,,,81,0
67440,set_tempo,,,,,50,1,0,,345821,,,,,,,
67440,note_on,,,,,0,0,1,,,,,0,,,83,54
67500,note_on,,,,,0,0,1,,,,,0,,,81,57
67500,note_on,,,,,0,0,1,,,,,0,,,84,57
67500,note_on,,,,,0,0,1,,,,,0,,,79,0
67500,note_on,,,,,60,0,1,,,,,0,,,83,0
67510,set_tempo,,,,,70,1,0,,350877,,,,,,,
67530,note_on,,,,,0,0,2,,,,,0,,,60,0
67530,note_on,,,,,90,0,2,,,,,0,,,52,0
67560,note_on,,,,,30,0,2,,,,,0,,,48,39
67560,set_tempo,,,,,50,1,0,,353982,,,,,,,
67560,note_on,,,,,0,0,1,,,,,0,,,84,0
67560,control_change,,,,,0,0,1,,,,,0,64,0,,
67560,note_on,,,,,0,0,1,,,,,0,,,83,58
67560,note_on,,,,,0,0,1,,,,,0,,,86,58
67560,note_on,,,,,60,0,1,,,,,0,,,81,0
67590,set_tempo,,,,,30,1,0,,359281,,,,,,,
67620,note_on,,,,,0,0,1,,,,,0,,,84,61
67620,note_on,,,,,0,0,1,,,,,0,,,88,61
67620,note_on,,,,,0,0,1,,,,,0,,,86,0
67620,note_on,,,,,60,0,1,,,,,0,,,83,0
67650,note_on,,,,,90,0,2,,,,,0,,,48,0
67660,set_tempo,,,,,70,1,0,,358208,,,,,,,
67680,set_tempo,,,,,20,1,0,,425531,,,,,,,
67680,note_on,,,,,0,0,1,,,,,0,,,86,61
67680,note_on,,,,,0,0,1,,,,,0,,,88,0
67680,note_on,,,,,0,0,1,,,,,0,,,83,61
67680,note_on,,,,,60,0,1,,,,,0,,,84,0
67680,note_on,,,,,30,0,2,,,,,0,,,55,55
67690,set_tempo,,,,,10,1,0,,425531,,,,,,,
67739,note_on,,,,,59,0,2,,,,,0,,,55,0
67740,note_on,,,,,0,0,2,,,,,0,,,57,54
67740,note_on,,,,,1,0,2,,,,,0,,,50,54
67780,set_tempo,,,,,90,1,0,,375000,,,,,,,
67794,note_on,,,,,54,0,2,,,,,0,,,57,0
67794,note_on,,,,,0,0,2,,,,,0,,,50,0
67800,note_on,,,,,0,0,2,,,,,0,,,59,48
67800,note_on,,,,,6,0,2,,,,,0,,,55,48
67854,note_on,,,,,54,0,2,,,,,0,,,59,0
67854,note_on,,,,,0,0,2,,,,,0,,,55,0
67860,note_on,,,,,6,0,2,,,,,0,,,60,45
67860,note_on,,,,,0,0,2,,,,,0,,,57,45
67914,note_on,,,,,54,0,2,,,,,0,,,57,0
67914,note_on,,,,,0,0,2,,,,,0,,,60,0
67920,control_change,,,,,240,0,1,,,,,0,64,95,,
67920,note_on,,,,,6,0,2,,,,,0,,,62,40
67920,note_on,,,,,0,0,2,,,,,0,,,59,40
68010,note_on,,,,,0,0,1,,,,,0,,,83,0
68010,note_on,,,,,90,0,1,,,,,0,,,86,0
68010,note_on,,,,,0,0,2,,,,,0,,,62,0
68010,note_on,,,,,90,0,2,,,,,0,,,59,0
68040,note_on,,,,,30,0,2,,,,,0,,,38,40
68040,note_on,,,,,30,0,1,,,,,0,,,69,42
68040,control_change,,,,,0,0,1,,,,,0,64,0,,
68100,note_on,,,,,60,0,1,,,,,0,,,69,0
68100,note_on,,,,,0,0,1,,,,,0,,,71,42
68130,set_tempo,,,,,350,1,0,,370370,,,,,,,
68130,note_on,,,,,90,0,2,,,,,0,,,38,0
68160,note_on,,,,,0,0,2,,,,,0,,,54,44
68160,note_on,,,,,30,0,2,,,,,0,,,50,44
68160,note_on,,,,,60,0,1,,,,,0,,,71,0
68160,note_on,,,,,0,0,1,,,,,0,,,69,48
68160,note_on,,,,,0,0,1,,,,,0,,,72,48
68160,control_change,,,,,0,0,1,,,,,0,64,95,,
68190,set_tempo,,,,,60,1,0,,365853,,,,,,,
68219,note_on,,,,,59,0,2,,,,,0,,,54,0
68219,note_on,,,,,0,0,2,,,,,0,,,50,0
68220,note_on,,,,,1,0,2,,,,,0,,,50,41
68220,note_on,,,,,60,0,1,,,,,0,,,72,0
68220,note_on,,,,,0,0,1,,,,,0,,,69,0
68220,note_on,,,,,0,0,1,,,,,0,,,71,52
68220,note_on,,,,,0,0,1,,,,,0,,,74,52
68220,note_on,,,,,0,0,2,,,,,0,,,54,41
68260,set_tempo,,,,,70,1,0,,360360,,,,,,,
68274,note_on,,,,,0,0,2,,,,,0,,,50,0
68274,note_on,,,,,54,0,2,,,,,0,,,54,0
68280,note_on,,,,,6,0,2,,,,,0,,,50,39
68280,note_on,,,,,0,0,2,,,,,0,,,54,39
68280,note_on,,,,,0,0,1,,,,,0,,,76,52
68280,note_on,,,,,60,0,1,,,,,0,,,74,0
68280,note_on,,,,,0,0,1,,,,,0,,,71,0
68280,note_on,,,,,0,0,1,,,,,0,,,72,52
68310,set_tempo,,,,,50,1,0,,356083,,,,,,,
68334,note_on,,,,,54,0,2,,,,,0,,,54,0
68334,note_on,,,,,0,0,2,,,,,0,,,50,0
68340,note_on,,,,,6,0,2,,,,,0,,,50,36
68340,note_on,,,,,0,0,2,,,,,0,,,54,36
68340,note_on,,,,,0,0,1,,,,,0,,,74,55
68340,note_on,,,,,0,0,1,,,,,0,,,78,55
68340,note_on,,,,,0,0,1,,,,,0,,,72,0
68340,note_on,,,,,60,0,1,,,,,0,,,76,0
68360,set_tempo,,,,,50,1,0,,352941,,,,,,,
68394,note_on,,,,,54,0,2,,,,,0,,,54,0
68394,note_on,,,,,0,0,2,,,,,0,,,50,0
68400,note_on,,,,,0,0,2,,,,,0,,,54,34
68400,note_on,,,,,6,0,2,,,,,0,,,50,34
68400,note_on,,,,,0,0,1,,,,,0,,,76,57
68400,note_on,,,,,0,0,1,,,,,0,,,72,57
68400,note_on,,,,,0,0,1,,,,,0,,,74,0
68400,note_on,,,,,60,0,1,,,,,0,,,78,0
68430,set_tempo,,,,,70,1,0,,356083,,,,,,,
68450,set_tempo,,,,,20,1,0,,357142,,,,,,,
68460,note_on,,,,,60,0,1,,,,,0,,,76,0
68460,note_on,,,,,0,0,1,,,,,0,,,81,54
68460,note_on,,,,,0,0,1,,,,,0,,,72,0
68490,note_on,,,,,0,0,2,,,,,0,,,50,0
68490,note_on,,,,,90,0,2,,,,,0,,,54,0
68500,set_tempo,,,,,50,1,0,,361445,,,,,,,
68520,note_on,,,,,30,0,2,,,,,0,,,38,38
68520,note_on,,,,,0,0,1,,,,,0,,,76,52
68520,note_on,,,,,0,0,1,,,,,0,,,79,52
68520,note_on,,,,,60,0,1,,,,,0,,,81,0
68520,control_change,,,,,0,0,1,,,,,0,64,0,,
68540,set_tempo,,,,,40,1,0,,366972,,,,,,,
68580,note_on,,,,,60,0,1,,,,,0,,,76,0
68580,note_on,,,,,0,0,1,,,,,0,,,79,0
68580,note_on,,,,,0,0,1,,,,,0,,,72,51
68610,note_on,,,,,90,0,2,,,,,0,,,38,0
68620,set_tempo,,,,,80,1,0,,365853,,,,,,,
68640,control_change,,,,,0,0,1,,,,,0,64,96,,
68640,note_on,,,,,0,0,1,,,,,0,,,74,46
68640,note_on,,,,,0,0,1,,,,,0,,,71,46
68640,note_on,,,,,60,0,1,,,,,0,,,72,0
68640,set_tempo,,,,,20,1,0,,425531,,,,,,,
68640,note_on,,,,,30,0,2,,,,,0,,,50,38
68699,note_on,,,,,59,0,2,,,,,0,,,50,0
68700,note_on,,,,,1,0,2,,,,,0,,,55,35
68720,set_tempo,,,,,80,1,0,,377358,,,,,,,
68754,note_on,,,,,54,0,2,,,,,0,,,55,0
68760,note_on,,,,,6,0,2,,,,,0,,,59,33
68760,note_on,,,,,120,0,1,,,,,0,,,71,0
68760,note_on,,,,,0,0,1,,,,,0,,,67,41
68814,note_on,,,,,54,0,1,,,,,0,,,67,0
68814,note_on,,,,,54,0,2,,,,,0,,,59,0
68820,note_on,,,,,6,0,1,,,,,0,,,69,39
68820,note_on,,,,,6,0,2,,,,,0,,,62,30
68874,note_on,,,,,54,0,2,,,,,0,,,62,0
68874,note_on,,,,,54,0,1,,,,,0,,,69,0
68880,note_on,,,,,6,0,2,,,,,0,,,67,28
68880,note_on,,,,,6,0,1,,,,,0,,,71,36
68970,note_on,,,,,0,0,1,,,,,0,,,74,0
68970,note_on,,,,,90,0,1,,,,,0,,,71,0
68970,note_on,,,,,90,0,2,,,,,0,,,67,0
68995,control_change,,,,,25,0,1,,,,,0,64,0,,
69000,set_tempo,,,,,280,1,0,,372670,,,,,,,
69000,note_on,,,,,0,0,1,,,,,0,,,84,51
69000,note_on,,,,,5,0,1,,,,,0,,,81,51
69000,control_change,,,,,0,0,1,,,,,0,64,95,,
69000,note_on,,,,,30,0,2,,,,,0,,,38,35
69030,set_tempo,,,,,30,1,0,,368098,,,,,,,
69060,note_on,,,,,0,0,1,,,,,0,,,83,52
69060,note_on,,,,,60,0,1,,,,,0,,,84,0
69060,note_on,,,,,0,0,1,,,,,0,,,79,52
69060,note_on,,,,,0,0,1,,,,,0,,,81,0
69080,set_tempo,,,,,50,1,0,,363636,,,,,,,
69090,note_on,,,,,90,0,2,,,,,0,,,38,0
69100,set_tempo,,,,,20,1,0,,360360,,,,,,,
69120,note_on,,,,,0,0,2,,,,,0,,,50,38
69120,note_on,,,,,60,0,1,,,,,0,,,83,0
69120,note_on,,,,,0,0,1,,,,,0,,,79,0
69120,note_on,,,,,0,0,1,,,,,0,,,78,56
69120,note_on,,,,,0,0,1,,,,,0,,,81,56
69120,note_on,,,,,30,0,2,,,,,0,,,60,38
69140,set_tempo,,,,,40,1,0,,357142,,,,,,,
69180,note_on,,,,,60,0,1,,,,,0,,,81,0
69180,note_on,,,,,0,0,1,,,,,0,,,78,0
69190,set_tempo,,,,,50,1,0,,352941,,,,,,,
69210,note_on,,,,,0,0,2,,,,,0,,,60,0
69210,note_on,,,,,90,0,2,,,,,0,,,50,0
69235,control_change,,,,,55,0,1,,,,,0,64,0,,
69240,note_on,,,,,5,0,1,,,,,0,,,72,53
69240,note_on,,,,,0,0,1,,,,,0,,,76,53
69240,control_change,,,,,0,0,1,,,,,0,64,95,,
69240,note_on,,,,,30,0,2,,,,,0,,,38,43
69250,set_tempo,,,,,60,1,0,,346820,,,,,,,
69270,set_tempo,,,,,20,1,0,,342857,,,,,,,
69300,note_on,,,,,60,0,1,,,,,0,,,76,0
69300,note_on,,,,,0,0,1,,,,,0,,,72,0
69300,note_on,,,,,0,0,1,,,,,0,,,71,56
69300,note_on,,,,,0,0,1,,,,,0,,,74,56
69330,note_on,,,,,90,0,2,,,,,0,,,38,0
69360,note_on,,,,,30,0,2,,,,,0,,,50,49
69360,note_on,,,,,0,0,2,,,,,0,,,54,49
69360,note_on,,,,,0,0,1,,,,,0,,,72,59
69360,note_on,,,,,0,0,1,,,,,0,,,69,59
69360,note_on,,,,,0,0,1,,,,,0,,,71,0
69360,note_on,,,,,60,0,1,,,,,0,,,74,0
69420,note_on,,,,,0,0,1,,,,,0,,,69,0
69420,set_tempo,,,,,150,1,0,,347826,,,,,,,
69420,note_on,,,,,60,0,1,,,,,0,,,72,0
69430,set_tempo,,,,,10,1,0,,348837,,,,,,,
69450,set_tempo,,,,,20,1,0,,352941,,,,,,,
69450,note_on,,,,,90,0,2,,,,,0,,,54,0
69450,note_on,,,,,0,0,2,,,,,0,,,50,0
69475,control_change,,,,,55,0,1,,,,,0,64,0,,
69480,set_tempo,,,,,30,1,0,,361445,,,,,,,
69480,note_on,,,,,5,0,1,,,,,0,,,71,61
69480,note_on,,,,,0,0,1,,,,,0,,,79,61
69480,control_change,,,,,0,0,1,,,,,0,64,95,,
69480,note_on,,,,,30,0,2,,,,,0,,,38,52
69530,set_tempo,,,,,50,1,0,,371517,,,,,,,
69540,note_on,,,,,0,0,1,,,,,0,,,81,65
69540,note_on,,,,,0,0,1,,,,,0,,,71,0
69540,note_on,,,,,0,0,1,,,,,0,,,74,65
69540,note_on,,,,,60,0,1,,,,,0,,,79,0
69570,note_on,,,,,90,0,2,,,,,0,,,38,0
69600,note_on,,,,,0,0,1,,,,,0,,,79,70
69600,note_on,,,,,0,0,1,,,,,0,,,74,0
69600,note_on,,,,,0,0,1,,,,,0,,,83,70
69600,note_on,,,,,60,0,1,,,,,0,,,81,0
69600,note_on,,,,,30,0,2,,,,,0,,,50,56
69600,note_on,,,,,0,0,2,,,,,0,,,55,56
69610,set_tempo,,,,,80,1,0,,375000,,,,,,,
69650,set_tempo,,,,,40,1,0,,382165,,,,,,,
69660,note_on,,,,,60,0,1,,,,,0,,,83,0
69660,note_on,,,,,0,0,1,,,,,0,,,79,0
69690,note_on,,,,,0,0,2,,,,,0,,,50,0
69690,set_tempo,,,,,40,1,0,,390879,,,,,,,
69690,note_on,,,,,90,0,2,,,,,0,,,55,0
69715,control_change,,,,,55,0,1,,,,,0,64,0,,
69720,note_on,,,,,5,0,1,,,,,0,,,71,61
69720,control_change,,,,,0,0,1,,,,,0,64,95,,
69720,note_on,,,,,0,0,1,,,,,0,,,74,61
69720,note_on,,,,,30,0,2,,,,,0,,,38,41
69730,set_tempo,,,,,40,1,0,,392156,,,,,,,
69740,set_tempo,,,,,10,1,0,,397350,,,,,,,
69780,note_on,,,,,0,0,1,,,,,0,,,71,0
69780,note_on,,,,,0,0,1,,,,,0,,,69,53
69780,note_on,,,,,0,0,1,,,,,0,,,72,53
69780,note_on,,,,,60,0,1,,,,,0,,,74,0
69810,note_on,,,,,90,0,2,,,,,0,,,38,0
69840,note_on,,,,,0,0,1,,,,,0,,,69,0
69840,note_on,,,,,0,0,1,,,,,0,,,71,45
69840,note_on,,,,,0,0,1,,,,,0,,,67,45
69840,note_on,,,,,60,0,1,,,,,0,,,72,0
69850,set_tempo,,,,,110,1,0,,405405,,,,,,,
69900,note_on,,,,,60,0,1,,,,,0,,,71,0
69900,note_on,,,,,0,0,1,,,,,0,,,67,0
69955,control_change,,,,,55,0,1,,,,,0,64,0,,
69960,note_on,,,,,150,0,2,,,,,0,,,59,38
69960,note_on,,,,,0,0,2,,,,,0,,,50,38
69960,set_tempo,,,,,110,1,0,,346820,,,,,,,
69960,control_change,,,,,0,0,1,,,,,0,64,96,,
69960,note_on,,,,,5,0,1,,,,,0,,,62,42
69970,set_tempo,,,,,10,1,0,,342857,,,,,,,
70000,set_tempo,,,,,30,1,0,,343839,,,,,,,
70010,set_tempo,,,,,10,1,0,,347826,,,,,,,
70020,note_on,,,,,60,0,1,,,,,0,,,62,0
70020,note_on,,,,,0,0,1,,,,,0,,,67,43
70050,note_on,,,,,90,0,2,,,,,0,,,50,0
70050,note_on,,,,,0,0,2,,,,,0,,,59,0
70050,set_tempo,,,,,40,1,0,,351906,,,,,,,
70080,note_on,,,,,60,0,1,,,,,0,,,67,0
70080,note_on,,,,,0,0,1,,,,,0,,,64,46
70080,note_on,,,,,30,0,2,,,,,0,,,60,42
70080,note_on,,,,,0,0,2,,,,,0,,,50,42
70140,note_on,,,,,60,0,1,,,,,0,,,64,0
70140,note_on,,,,,0,0,1,,,,,0,,,69,47
70160,set_tempo,,,,,110,1,0,,356083,,,,,,,
70170,note_on,,,,,0,0,2,,,,,0,,,60,0
70170,note_on,,,,,90,0,2,,,,,0,,,50,0
70200,note_on,,,,,60,0,1,,,,,0,,,69,0
70200,note_on,,,,,30,0,2,,,,,0,,,59,47
70200,note_on,,,,,0,0,2,,,,,0,,,50,47
70200,note_on,,,,,0,0,1,,,,,0,,,62,48
70220,set_tempo,,,,,60,1,0,,364741,,,,,,,
70260,note_on,,,,,0,0,1,,,,,0,,,67,51
70260,note_on,,,,,60,0,1,,,,,0,,,62,0
70290,note_on,,,,,90,0,2,,,,,0,,,50,0
70290,note_on,,,,,0,0,2,,,,,0,,,59,0
70320,note_on,,,,,0,0,1,,,,,0,,,64,52
70320,note_on,,,,,60,0,1,,,,,0,,,67,0
70320,note_on,,,,,30,0,2,,,,,0,,,60,49
70320,note_on,,,,,0,0,2,,,,,0,,,50,49
70350,set_tempo,,,,,130,1,0,,368098,,,,,,,
70380,note_on,,,,,0,0,1,,,,,0,,,69,54
70380,note_on,,,,,60,0,1,,,,,0,,,64,0
70400,set_tempo,,,,,50,1,0,,371517,,,,,,,
70410,note_on,,,,,90,0,2,,,,,0,,,50,0
70410,note_on,,,,,0,0,2,,,,,0,,,60,0
70420,set_tempo,,,,,20,1,0,,373831,,,,,,,
70440,note_on,,,,,0,0,2,,,,,0,,,50,50
70440,note_on,,,,,30,0,2,,,,,0,,,62,50
70440,note_on,,,,,60,0,1,,,,,0,,,69,0
70440,note_on,,,,,0,0,1,,,,,0,,,66,55
70460,set_tempo,,,,,40,1,0,,377358,,,,,,,
70500,note_on,,,,,60,0,1,,,,,0,,,66,0
70500,note_on,,,,,0,0,1,,,,,0,,,72,57
70520,set_tempo,,,,,60,1,0,,384615,,,,,,,
70530,note_on,,,,,90,0,2,,,,,0,,,50,0
70530,note_on,,,,,0,0,2,,,,,0,,,62,0
70550,set_tempo,,,,,30,1,0,,387096,,,,,,,
70555,control_change,,,,,55,0,1,,,,,0,64,0,,
70560,note_on,,,,,0,0,1,,,,,0,,,67,60
70560,note_on,,,,,0,0,1,,,,,0,,,71,60
70560,set_tempo,,,,,10,1,0,,431654,,,,,,,
70560,note_on,,,,,5,0,1,,,,,0,,,72,0
70560,note_on,,,,,30,0,2,,,,,0,,,43,51
70619,note_on,,,,,59,0,2,,,,,0,,,43,0
70620,note_on,,,,,1,0,2,,,,,0,,,50,48
70650,set_tempo,,,,,90,1,0,,372670,,,,,,,
70674,note_on,,,,,54,0,2,,,,,0,,,50,0
70680,note_on,,,,,6,0,2,,,,,0,,,47,45
70680,note_on,,,,,0,0,2,,,,,0,,,55,45
70734,note_on,,,,,54,0,2,,,,,0,,,55,0
70734,note_on,,,,,0,0,2,,,,,0,,,47,0
70740,note_on,,,,,0,0,2,,,,,0,,,50,42
70740,note_on,,,,,6,0,2,,,,,0,,,57,42
70790,set_tempo,,,,,140,1,0,,371517,,,,,,,
70794,note_on,,,,,0,0,2,,,,,0,,,57,0
70794,note_on,,,,,54,0,2,,,,,0,,,50,0
70800,note_on,,,,,0,0,2,,,,,0,,,55,40
70800,control_change,,,,,240,0,1,,,,,0,64,96,,
70800,note_on,,,,,6,0,2,,,,,0,,,59,40
70840,set_tempo,,,,,50,1,0,,365853,,,,,,,
70890,set_tempo,,,,,50,1,0,,362537,,,,,,,
70890,note_on,,,,,90,0,2,,,,,0,,,55,0
70890,note_on,,,,,0,0,2,,,,,0,,,59,0
70920,note_on,,,,,30,0,2,,,,,0,,,43,40
70920,note_on,,,,,0,0,1,,,,,0,,,67,0
70920,note_on,,,,,0,0,1,,,,,0,,,72,42
70920,control_change,,,,,0,0,1,,,,,0,64,0,,
70920,note_on,,,,,120,0,1,,,,,0,,,71,0
70920,note_on,,,,,0,0,1,,,,,0,,,69,42
70980,note_on,,,,,60,0,1,,,,,0,,,72,0
70980,note_on,,,,,0,0,1,,,,,0,,,69,0
70980,note_on,,,,,0,0,1,,,,,0,,,71,44
70980,note_on,,,,,0,0,1,,,,,0,,,74,44
70990,set_tempo,,,,,100,1,0,,363636,,,,,,,
71010,note_on,,,,,90,0,2,,,,,0,,,43,0
71020,set_tempo,,,,,30,1,0,,361445,,,,,,,
71040,note_on,,,,,0,0,1,,,,,0,,,71,0
71040,note_on,,,,,0,0,1,,,,,0,,,72,46
71040,note_on,,,,,0,0,1,,,,,0,,,76,46
71040,note_on,,,,,30,0,2,,,,,0,,,60,51
71040,note_on,,,,,0,0,2,,,,,0,,,55,51
71040,set_tempo,,,,,20,1,0,,389610,,,,,,,
71040,note_on,,,,,60,0,1,,,,,0,,,74,0
71040,control_change,,,,,0,0,1,,,,,0,64,95,,
71090,set_tempo,,,,,50,1,0,,359281,,,,,,,
71099,note_on,,,,,59,0,2,,,,,0,,,55,0
71099,note_on,,,,,0,0,2,,,,,0,,,60,0
71100,note_on,,,,,1,0,2,,,,,0,,,60,48
71100,note_on,,,,,0,0,1,,,,,0,,,72,0
71100,note_on,,,,,0,0,1,,,,,0,,,74,49
71100,note_on,,,,,0,0,1,,,,,0,,,78,49
71100,note_on,,,,,60,0,1,,,,,0,,,76,0
71100,note_on,,,,,0,0,2,,,,,0,,,55,48
71154,note_on,,,,,54,0,2,,,,,0,,,55,0
71154,note_on,,,,,0,0,2,,,,,0,,,60,0
71160,note_on,,,,,0,0,1,,,,,0,,,79,49
71160,note_on,,,,,0,0,1,,,,,0,,,76,49
71160,note_on,,,,,0,0,1,,,,,0,,,74,0
71160,set_tempo,,,,,70,1,0,,357142,,,,,,,
71160,note_on,,,,,60,0,1,,,,,0,,,78,0
71160,note_on,,,,,0,0,2,,,,,0,,,55,44
71160,note_on,,,,,6,0,2,,,,,0,,,60,44
71214,note_on,,,,,0,0,2,,,,,0,,,60,0
71214,note_on,,,,,54,0,2,,,,,0,,,55,0
71220,note_on,,,,,0,0,2,,,,,0,,,55,41
71220,note_on,,,,,60,0,1,,,,,0,,,79,0
71220,note_on,,,,,0,0,1,,,,,0,,,76,0
71220,note_on,,,,,0,0,1,,,,,0,,,78,51
71220,note_on,,,,,0,0,1,,,,,0,,,81,51
71220,note_on,,,,,6,0,2,,,,,0,,,60,41
71274,note_on,,,,,54,0,2,,,,,0,,,55,0
71274,note_on,,,,,0,0,2,,,,,0,,,60,0
71280,note_on,,,,,0,0,1,,,,,0,,,79,54
71280,note_on,,,,,60,0,1,,,,,0,,,81,0
71280,note_on,,,,,0,0,1,,,,,0,,,83,54
71280,note_on,,,,,0,0,1,,,,,0,,,78,0
71280,note_on,,,,,0,0,2,,,,,0,,,52,38
71280,note_on,,,,,6,0,2,,,,,0,,,60,38
71290,set_tempo,,,,,130,1,0,,351906,,,,,,,
71320,set_tempo,,,,,30,1,0,,352941,,,,,,,
71340,note_on,,,,,0,0,1,,,,,0,,,79,0
71340,note_on,,,,,0,0,1,,,,,0,,,81,57
71340,note_on,,,,,60,0,1,,,,,0,,,83,0
71340,note_on,,,,,0,0,1,,,,,0,,,84,57
71370,note_on,,,,,0,0,2,,,,,0,,,60,0
71370,note_on,,,,,90,0,2,,,,,0,,,52,0
71390,set_tempo,,,,,70,1,0,,349854,,,,,,,
71395,control_change,,,,,55,0,1,,,,,0,64,0,,
71400,note_on,,,,,30,0,2,,,,,0,,,48,39
71400,note_on,,,,,0,0,1,,,,,0,,,83,58
71400,note_on,,,,,0,0,1,,,,,0,,,86,58
71400,note_on,,,,,0,0,1,,,,,0,,,84,0
71400,note_on,,,,,5,0,1,,,,,0,,,81,0
71440,set_tempo,,,,,50,1,0,,348837,,,,,,,
71460,note_on,,,,,0,0,1,,,,,0,,,88,61
71460,note_on,,,,,0,0,1,,,,,0,,,84,61
71460,note_on,,,,,60,0,1,,,,,0,,,83,0
71460,note_on,,,,,0,0,1,,,,,0,,,86,0
71490,note_on,,,,,90,0,2,,,,,0,,,48,0
71520,set_tempo,,,,,80,1,0,,425531,,,,,,,
71520,note_on,,,,,60,0,1,,,,,0,,,84,0
71520,note_on,,,,,0,0,1,,,,,0,,,88,0
71520,note_on,,,,,0,0,1,,,,,0,,,83,61
71520,note_on,,,,,30,0,2,,,,,0,,,55,55
71520,note_on,,,,,0,0,1,,,,,0,,,86,61
71530,set_tempo,,,,,10,1,0,,425531,,,,,,,
71579,note_on,,,,,59,0,2,,,,,0,,,55,0
71580,note_on,,,,,1,0,2,,,,,0,,,50,54
71580,note_on,,,,,0,0,2,,,,,0,,,57,54
71620,set_tempo,,,,,90,1,0,,375000,,,,,,,
71634,note_on,,,,,54,0,2,,,,,0,,,57,0
71634,note_on,,,,,0,0,2,,,,,0,,,50,0
71640,note_on,,,,,6,0,2,,,,,0,,,55,48
71640,note_on,,,,,0,0,2,,,,,0,,,59,48
71694,note_on,,,,,0,0,2,,,,,0,,,55,0
71694,note_on,,,,,54,0,2,,,,,0,,,59,0
71700,note_on,,,,,6,0,2,,,,,0,,,60,45
71700,note_on,,,,,0,0,2,,,,,0,,,57,45
71754,note_on,,,,,54,0,2,,,,,0,,,57,0
71754,note_on,,,,,0,0,2,,,,,0,,,60,0
71760,note_on,,,,,6,0,2,,,,,0,,,62,40
71760,note_on,,,,,0,0,2,,,,,0,,,59,40
71760,control_change,,,,,240,0,1,,,,,0,64,95,,
71850,note_on,,,,,90,0,2,,,,,0,,,59,0
71850,note_on,,,,,0,0,2,,,,,0,,,62,0
71850,note_on,,,,,90,0,1,,,,,0,,,86,0
71850,note_on,,,,,0,0,1,,,,,0,,,83,0
71880,note_on,,,,,30,0,1,,,,,0,,,69,42
71880,note_on,,,,,30,0,2,,,,,0,,,38,40
71880,control_change,,,,,0,0,1,,,,,0,64,0,,
71940,note_on,,,,,0,0,1,,,,,0,,,71,42
71940,note_on,,,,,60,0,1,,,,,0,,,69,0
71970,note_on,,,,,90,0,2,,,,,0,,,38,0
71970,set_tempo,,,,,350,1,0,,372670,,,,,,,
71980,set_tempo,,,,,10,1,0,,370370,,,,,,,
71990,set_tempo,,,,,10,1,0,,369230,,,,,,,
72000,note_on,,,,,0,0,1,,,,,0,,,69,48
72000,note_on,,,,,0,0,2,,,,,0,,,54,44
72000,note_on,,,,,30,0,2,,,,,0,,,50,44
72000,control_change,,,,,0,0,1,,,,,0,64,95,,
72000,note_on,,,,,0,0,1,,,,,0,,,72,48
72000,note_on,,,,,60,0,1,,,,,0,,,71,0
72050,set_tempo,,,,,60,1,0,,368098,,,,,,,
72059,note_on,,,,,0,0,2,,,,,0,,,50,0
72059,note_on,,,,,59,0,2,,,,,0,,,54,0
72060,note_on,,,,,0,0,2,,,,,0,,,54,41
72060,note_on,,,,,0,0,1,,,,,0,,,74,52
72060,note_on,,,,,0,0,1,,,,,0,,,71,52
72060,note_on,,,,,0,0,1,,,,,0,,,69,0
72060,note_on,,,,,60,0,1,,,,,0,,,72,0
72060,note_on,,,,,1,0,2,,,,,0,,,50,41
72070,set_tempo,,,,,20,1,0,,361445,,,,,,,
72114,note_on,,,,,54,0,2,,,,,0,,,54,0
72114,note_on,,,,,0,0,2,,,,,0,,,50,0
72120,note_on,,,,,0,0,1,,,,,0,,,71,0
72120,note_on,,,,,0,0,1,,,,,0,,,72,52
72120,note_on,,,,,0,0,1,,,,,0,,,76,52
72120,note_on,,,,,0,0,2,,,,,0,,,54,39
72120,note_on,,,,,6,0,2,,,,,0,,,50,39
72120,note_on,,,,,60,0,1,,,,,0,,,74,0
72140,set_tempo,,,,,70,1,0,,360360,,,,,,,
72150,set_tempo,,,,,10,1,0,,359281,,,,,,,
72174,note_on,,,,,0,0,2,,,,,0,,,50,0
72174,note_on,,,,,54,0,2,,,,,0,,,54,0
72180,note_on,,,,,6,0,2,,,,,0,,,50,36
72180,note_on,,,,,0,0,2,,,,,0,,,54,36
72180,set_tempo,,,,,30,1,0,,356083,,,,,,,
72180,note_on,,,,,60,0,1,,,,,0,,,76,0
72180,note_on,,,,,0,0,1,,,,,0,,,72,0
72180,note_on,,,,,0,0,1,,,,,0,,,74,55
72180,note_on,,,,,0,0,1,,,,,0,,,78,55
72220,set_tempo,,,,,40,1,0,,351906,,,,,,,
72234,note_on,,,,,54,0,2,,,,,0,,,54,0
72234,note_on,,,,,0,0,2,,,,,0,,,50,0
72240,note_on,,,,,60,0,1,,,,,0,,,78,0
72240,note_on,,,,,6,0,2,,,,,0,,,50,34
72240,note_on,,,,,0,0,2,,,,,0,,,54,34
72240,note_on,,,,,0,0,1,,,,,0,,,72,57
72240,note_on,,,,,0,0,1,,,,,0,,,76,57
72240,note_on,,,,,0,0,1,,,,,0,,,74,0
72250,set_tempo,,,,,30,1,0,,344827,,,,,,,
72300,note_on,,,,,60,0,1,,,,,0,,,76,0
72300,note_on,,,,,0,0,1,,,,,0,,,81,54
72300,note_on,,,,,0,0,1,,,,,0,,,72,0
72330,note_on,,,,,0,0,2,,,,,0,,,50,0
72330,note_on,,,,,90,0,2,,,,,0,,,54,0
72330,set_tempo,,,,,80,1,0,,355029,,,,,,,
72360,note_on,,,,,30,0,2,,,,,0,,,38,38
72360,note_on,,,,,0,0,1,,,,,0,,,76,52
72360,note_on,,,,,60,0,1,,,,,0,,,81,0
72360,note_on,,,,,0,0,1,,,,,0,,,79,52
72380,set_tempo,,,,,50,1,0,,358208,,,,,,,
72420,note_on,,,,,0,0,1,,,,,0,,,72,51
72420,note_on,,,,,0,0,1,,,,,0,,,79,0
72420,note_on,,,,,60,0,1,,,,,0,,,76,0
72420,set_tempo,,,,,40,1,0,,370370,,,,,,,
72450,note_on,,,,,90,0,2,,,,,0,,,38,0
72460,set_tempo,,,,,40,1,0,,365853,,,,,,,
72480,note_on,,,,,30,0,2,,,,,0,,,50,40
72480,note_on,,,,,0,0,1,,,,,0,,,74,46
72480,note_on,,,,,60,0,1,,,,,0,,,72,0
72480,set_tempo,,,,,20,1,0,,425531,,,,,,,
72480,note_on,,,,,0,0,1,,,,,0,,,71,46
72539,note_on,,,,,59,0,2,,,,,0,,,50,0
72540,note_on,,,,,1,0,2,,,,,0,,,55,37
72560,set_tempo,,,,,80,1,0,,377358,,,,,,,
72594,note_on,,,,,54,0,2,,,,,0,,,55,0
72600,note_on,,,,,0,0,1,,,,,0,,,67,30
72600,note_on,,,,,120,0,1,,,,,0,,,71,0
72600,note_on,,,,,6,0,2,,,,,0,,,59,34
72654,note_on,,,,,54,0,1,,,,,0,,,67,0
72654,note_on,,,,,54,0,2,,,,,0,,,59,0
72660,note_on,,,,,6,0,2,,,,,0,,,62,31
72660,note_on,,,,,6,0,1,,,,,0,,,69,30
72714,note_on,,,,,54,0,1,,,,,0,,,69,0
72714,note_on,,,,,54,0,2,,,,,0,,,62,0
72720,note_on,,,,,6,0,2,,,,,0,,,67,29
72720,control_change,,,,,0,0,1,,,,,0,64,96,,
72720,note_on,,,,,6,0,1,,,,,0,,,71,29
72810,note_on,,,,,0,0,1,,,,,0,,,74,0
72810,note_on,,,,,90,0,1,,,,,0,,,71,0
72810,note_on,,,,,90,0,2,,,,,0,,,67,0
72835,control_change,,,,,25,0,1,,,,,0,64,0,,
72840,control_change,,,,,0,0,1,,,,,0,64,95,,
72840,note_on,,,,,0,0,1,,,,,0,,,84,51
72840,note_on,,,,,5,0,1,,,,,0,,,81,51
72840,note_on,,,,,30,0,2,,,,,0,,,38,35
72850,set_tempo,,,,,290,1,0,,369230,,,,,,,
72890,set_tempo,,,,,40,1,0,,365853,,,,,,,
72900,note_on,,,,,0,0,1,,,,,0,,,81,0
72900,note_on,,,,,0,0,1,,,,,0,,,79,52
72900,note_on,,,,,0,0,1,,,,,0,,,83,52
72900,note_on,,,,,60,0,1,,,,,0,,,84,0
72930,note_on,,,,,90,0,2,,,,,0,,,38,0
72940,set_tempo,,,,,50,1,0,,360360,,,,,,,
72960,note_on,,,,,0,0,1,,,,,0,,,78,56
72960,note_on,,,,,0,0,1,,,,,0,,,79,0
72960,note_on,,,,,60,0,1,,,,,0,,,83,0
72960,note_on,,,,,0,0,1,,,,,0,,,81,56
72960,note_on,,,,,30,0,2,,,,,0,,,60,38
72960,note_on,,,,,0,0,2,,,,,0,,,50,38
73010,set_tempo,,,,,70,1,0,,353982,,,,,,,
73020,note_on,,,,,0,0,1,,,,,0,,,78,0
73020,note_on,,,,,60,0,1,,,,,0,,,81,0
73040,set_tempo,,,,,30,1,0,,352941,,,,,,,
73050,note_on,,,,,0,0,2,,,,,0,,,60,0
73050,note_on,,,,,90,0,2,,,,,0,,,50,0
73075,control_change,,,,,55,0,1,,,,,0,64,0,,
73080,note_on,,,,,5,0,1,,,,,0,,,72,53
73080,note_on,,,,,0,0,1,,,,,0,,,76,53
73080,set_tempo,,,,,40,1,0,,347826,,,,,,,
73080,control_change,,,,,0,0,1,,,,,0,64,95,,
73080,note_on,,,,,30,0,2,,,,,0,,,38,43
73130,set_tempo,,,,,50,1,0,,343839,,,,,,,
73140,note_on,,,,,60,0,1,,,,,0,,,76,0
73140,note_on,,,,,0,0,1,,,,,0,,,72,0
73140,note_on,,,,,0,0,1,,,,,0,,,71,56
73140,note_on,,,,,0,0,1,,,,,0,,,74,56
73170,note_on,,,,,90,0,2,,,,,0,,,38,0
73200,note_on,,,,,30,0,2,,,,,0,,,50,49
73200,note_on,,,,,0,0,2,,,,,0,,,54,49
73200,note_on,,,,,60,0,1,,,,,0,,,74,0
73200,note_on,,,,,0,0,1,,,,,0,,,71,0
73200,note_on,,,,,0,0,1,,,,,0,,,69,59
73200,note_on,,,,,0,0,1,,,,,0,,,72,59
73250,set_tempo,,,,,120,1,0,,346820,,,,,,,
73260,note_on,,,,,0,0,1,,,,,0,,,69,0
73260,note_on,,,,,60,0,1,,,,,0,,,72,0
73260,set_tempo,,,,,10,1,0,,349854,,,,,,,
73280,set_tempo,,,,,20,1,0,,352941,,,,,,,
73290,note_on,,,,,0,0,2,,,,,0,,,50,0
73290,note_on,,,,,90,0,2,,,,,0,,,54,0
73315,control_change,,,,,55,0,1,,,,,0,64,0,,
73320,control_change,,,,,0,0,1,,,,,0,64,95,,
73320,note_on,,,,,30,0,2,,,,,0,,,38,52
73320,note_on,,,,,5,0,1,,,,,0,,,71,61
73320,note_on,,,,,0,0,1,,,,,0,,,79,61
73340,set_tempo,,,,,60,1,0,,362537,,,,,,,
73380,note_on,,,,,60,0,1,,,,,0,,,79,0
73380,note_on,,,,,0,0,1,,,,,0,,,81,65
73380,note_on,,,,,0,0,1,,,,,0,,,71,0
73380,note_on,,,,,0,0,1,,,,,0,,,74,65
73390,set_tempo,,,,,50,1,0,,370370,,,,,,,
73410,note_on,,,,,90,0,2,,,,,0,,,38,0
73430,set_tempo,,,,,40,1,0,,377358,,,,,,,
73440,note_on,,,,,60,0,1,,,,,0,,,81,0
73440,note_on,,,,,0,0,1,,,,,0,,,74,0
73440,note_on,,,,,0,0,1,,,,,0,,,79,70
73440,note_on,,,,,0,0,1,,,,,0,,,83,70
73440,set_tempo,,,,,10,1,0,,382165,,,,,,,
73440,note_on,,,,,30,0,2,,,,,0,,,50,56
73440,note_on,,,,,0,0,2,,,,,0,,,55,56
73500,note_on,,,,,0,0,1,,,,,0,,,79,0
73500,note_on,,,,,60,0,1,,,,,0,,,83,0
73530,note_on,,,,,90,0,2,,,,,0,,,55,0
73530,note_on,,,,,0,0,2,,,,,0,,,50,0
73540,set_tempo,,,,,100,1,0,,387096,,,,,,,
73555,control_change,,,,,55,0,1,,,,,0,64,0,,
73560,note_on,,,,,0,0,1,,,,,0,,,74,61
73560,control_change,,,,,0,0,1,,,,,0,64,95,,
73560,note_on,,,,,5,0,1,,,,,0,,,71,61
73560,note_on,,,,,30,0,2,,,,,0,,,38,41
73590,set_tempo,,,,,50,1,0,,392156,,,,,,,
73620,note_on,,,,,0,0,1,,,,,0,,,71,0
73620,note_on,,,,,60,0,1,,,,,0,,,74,0
73620,note_on,,,,,0,0,1,,,,,0,,,69,53
73620,note_on,,,,,0,0,1,,,,,0,,,72,53
73640,set_tempo,,,,,50,1,0,,398671,,,,,,,
73650,note_on,,,,,90,0,2,,,,,0,,,38,0
73680,note_on,,,,,0,0,1,,,,,0,,,71,45
73680,note_on,,,,,0,0,1,,,,,0,,,67,45
73680,note_on,,,,,0,0,1,,,,,0,,,69,0
73680,note_on,,,,,60,0,1,,,,,0,,,72,0
73680,set_tempo,,,,,40,1,0,,405405,,,,,,,
73710,set_tempo,,,,,30,1,0,,397350,,,,,,,
73740,note_on,,,,,60,0,1,,,,,0,,,71,0
73740,note_on,,,,,0,0,1,,,,,0,,,67,0
73750,set_tempo,,,,,40,1,0,,392156,,,,,,,
73795,control_change,,,,,55,0,1,,,,,0,64,0,,
73800,control_change,,,,,0,0,1,,,,,0,64,96,,
73800,note_on,,,,,5,0,1,,,,,0,,,62,42
73800,set_tempo,,,,,50,1,0,,383386,,,,,,,
73800,note_on,,,,,150,0,2,,,,,0,,,59,38
73800,note_on,,,,,0,0,2,,,,,0,,,50,38
73860,note_on,,,,,60,0,1,,,,,0,,,62,0
73860,note_on,,,,,0,0,1,,,,,0,,,67,43
73880,set_tempo,,,,,80,1,0,,376175,,,,,,,
73890,note_on,,,,,90,0,2,,,,,0,,,50,0
73890,note_on,,,,,0,0,2,,,,,0,,,59,0
73920,note_on,,,,,30,0,2,,,,,0,,,60,42
73920,note_on,,,,,60,0,1,,,,,0,,,67,0
73920,note_on,,,,,0,0,1,,,,,0,,,64,46
73920,note_on,,,,,0,0,2,,,,,0,,,50,42
73980,note_on,,,,,0,0,1,,,,,0,,,69,47
73980,note_on,,,,,60,0,1,,,,,0,,,64,0
74000,set_tempo,,,,,120,1,0,,371517,,,,,,,
74010,note_on,,,,,0,0,2,,,,,0,,,60,0
74010,note_on,,,,,90,0,2,,,,,0,,,50,0
74040,note_on,,,,,30,0,2,,,,,0,,,59,44
74040,note_on,,,,,0,0,2,,,,,0,,,50,44
74040,note_on,,,,,0,0,1,,,,,0,,,62,48
74040,note_on,,,,,60,0,1,,,,,0,,,69,0
74100,note_on,,,,,60,0,1,,,,,0,,,62,0
74100,set_tempo,,,,,100,1,0,,365853,,,,,,,
74100,note_on,,,,,0,0,1,,,,,0,,,67,51
74130,note_on,,,,,0,0,2,,,,,0,,,59,0
74130,note_on,,,,,90,0,2,,,,,0,,,50,0
74160,note_on,,,,,0,0,2,,,,,0,,,50,49
74160,note_on,,,,,30,0,2,,,,,0,,,60,49
74160,note_on,,,,,0,0,1,,,,,0,,,64,52
74160,note_on,,,,,60,0,1,,,,,0,,,67,0
74200,set_tempo,,,,,100,1,0,,360360,,,,,,,
74220,note_on,,,,,0,0,1,,,,,0,,,69,54
74220,note_on,,,,,60,0,1,,,,,0,,,64,0
74250,note_on,,,,,90,0,2,,,,,0,,,50,0
74250,note_on,,,,,0,0,2,,,,,0,,,60,0
74270,set_tempo,,,,,70,1,0,,353982,,,,,,,
74280,note_on,,,,,30,0,2,,,,,0,,,50,50
74280,note_on,,,,,0,0,2,,,,,0,,,62,50
74280,note_on,,,,,60,0,1,,,,,0,,,69,0
74280,note_on,,,,,0,0,1,,,,,0,,,66,55
74310,set_tempo,,,,,40,1,0,,352941,,,,,,,
74340,note_on,,,,,60,0,1,,,,,0,,,66,0
74340,note_on,,,,,0,0,1,,,,,0,,,72,57
74395,control_change,,,,,55,0,1,,,,,0,64,0,,
74400,note_on,,,,,5,0,1,,,,,0,,,72,0
74400,control_change,,,,,0,0,1,,,,,0,64,95,,
74400,note_on,,,,,0,0,1,,,,,0,,,67,57
74410,set_tempo,,,,,100,1,0,,352941,,,,,,,
74430,set_tempo,,,,,20,1,0,,356083,,,,,,,
74460,note_on,,,,,60,0,1,,,,,0,,,67,0
74460,note_on,,,,,0,0,1,,,,,0,,,71,49
74490,note_on,,,,,210,0,2,,,,,0,,,62,0
74490,note_on,,,,,0,0,2,,,,,0,,,50,0
74500,set_tempo,,,,,70,1,0,,361445,,,,,,,
74520,note_on,,,,,0,0,2,,,,,0,,,62,44
74520,note_on,,,,,30,0,2,,,,,0,,,54,44
74520,note_on,,,,,60,0,1,,,,,0,,,71,0
74520,note_on,,,,,0,0,1,,,,,0,,,69,44
74560,set_tempo,,,,,60,1,0,,368098,,,,,,,
74580,note_on,,,,,60,0,1,,,,,0,,,69,0
74580,note_on,,,,,0,0,1,,,,,0,,,74,40
74610,note_on,,,,,90,0,2,,,,,0,,,62,0
74610,note_on,,,,,0,0,2,,,,,0,,,54,0
74640,note_on,,,,,0,0,1,,,,,0,,,71,38
74640,note_on,,,,,0,0,2,,,,,0,,,62,37
74640,note_on,,,,,30,0,2,,,,,0,,,55,37
74640,note_on,,,,,60,0,1,,,,,0,,,74,0
74670,set_tempo,,,,,110,1,0,,379746,,,,,,,
74700,note_on,,,,,60,0,1,,,,,0,,,71,0
74700,note_on,,,,,0,0,1,,,,,0,,,74,38
74730,note_on,,,,,0,0,2,,,,,0,,,55,0
74730,note_on,,,,,90,0,2,,,,,0,,,62,0
74745,note_on,,,,,45,0,1,,,,,0,,,74,0
74750,control_change,,,,,5,0,1,,,,,0,64,0,,
74760,control_change,,,,,0,0,1,,,,,0,64,96,,
74760,note_on,,,,,30,0,2,,,,,0,,,67,38
74760,note_on,,,,,10,0,1,,,,,0,,,70,41
74760,note_on,,,,,0,0,2,,,,,0,,,58,38
74790,set_tempo,,,,,120,1,0,,377358,,,,,,,
74820,note_on,,,,,60,0,1,,,,,0,,,70,0
74820,note_on,,,,,0,0,1,,,,,0,,,75,43
74850,set_tempo,,,,,60,1,0,,375000,,,,,,,
74850,note_on,,,,,0,0,2,,,,,0,,,67,0
74850,note_on,,,,,90,0,2,,,,,0,,,58,0
74860,set_tempo,,,,,10,1,0,,372670,,,,,,,
74880,note_on,,,,,60,0,1,,,,,0,,,75,0
74880,note_on,,,,,0,0,1,,,,,0,,,72,45
74880,note_on,,,,,30,0,2,,,,,0,,,68,40
74880,note_on,,,,,0,0,2,,,,,0,,,58,40
74920,set_tempo,,,,,60,1,0,,365853,,,,,,,
74940,note_on,,,,,60,0,1,,,,,0,,,72,0
74940,set_tempo,,,,,20,1,0,,361445,,,,,,,
74940,note_on,,,,,0,0,1,,,,,0,,,77,48
74970,note_on,,,,,90,0,2,,,,,0,,,58,0
74970,note_on,,,,,0,0,2,,,,,0,,,68,0
75000,note_on,,,,,0,0,1,,,,,0,,,70,51
75000,note_on,,,,,0,0,2,,,,,0,,,58,44
75000,note_on,,,,,30,0,2,,,,,0,,,67,44
75000,note_on,,,,,60,0,1,,,,,0,,,77,0
75010,set_tempo,,,,,70,1,0,,357142,,,,,,,
75060,note_on,,,,,60,0,1,,,,,0,,,70,0
75060,note_on,,,,,0,0,1,,,,,0,,,75,56
75090,set_tempo,,,,,80,1,0,,351906,,,,,,,
75090,note_on,,,,,90,0,2,,,,,0,,,58,0
75090,note_on,,,,,0,0,2,,,,,0,,,67,0
75120,note_on,,,,,30,0,2,,,,,0,,,68,52
75120,note_on,,,,,0,0,1,,,,,0,,,72,58
75120,note_on,,,,,60,0,1,,,,,0,,,75,0
75120,note_on,,,,,0,0,2,,,,,0,,,58,52
75150,set_tempo,,,,,60,1,0,,348837,,,,,,,
75180,note_on,,,,,60,0,1,,,,,0,,,72,0
75180,note_on,,,,,0,0,1,,,,,0,,,77,62
75210,note_on,,,,,90,0,2,,,,,0,,,58,0
75210,note_on,,,,,0,0,2,,,,,0,,,68,0
75220,set_tempo,,,,,70,1,0,,345821,,,,,,,
75240,note_on,,,,,60,0,1,,,,,0,,,77,0
75240,note_on,,,,,0,0,2,,,,,0,,,70,63
75240,note_on,,,,,0,0,1,,,,,0,,,74,66
75240,note_on,,,,,30,0,2,,,,,0,,,58,63
75300,note_on,,,,,60,0,1,,,,,0,,,74,0
75300,note_on,,,,,0,0,1,,,,,0,,,80,70
75320,set_tempo,,,,,100,1,0,,338983,,,,,,,
75355,control_change,,,,,55,0,1,,,,,0,64,0,,
75360,control_change,,,,,0,0,1,,,,,0,64,95,,
75360,note_on,,,,,0,0,1,,,,,0,,,75,73
75360,note_on,,,,,5,0,1,,,,,0,,,80,0
75380,set_tempo,,,,,60,1,0,,347826,,,,,,,
75420,note_on,,,,,60,0,1,,,,,0,,,75,0
75420,set_tempo,,,,,40,1,0,,353982,,,,,,,
75420,note_on,,,,,0,0,1,,,,,0,,,79,68
75450,set_tempo,,,,,30,1,0,,360360,,,,,,,
75450,note_on,,,,,210,0,2,,,,,0,,,70,0
75450,note_on,,,,,0,0,2,,,,,0,,,58,0
75480,note_on,,,,,60,0,1,,,,,0,,,79,0
75480,note_on,,,,,0,0,1,,,,,0,,,77,57
75480,note_on,,,,,30,0,2,,,,,0,,,62,54
75480,note_on,,,,,0,0,2,,,,,0,,,70,54
75500,set_tempo,,,,,50,1,0,,366972,,,,,,,
75540,note_on,,,,,60,0,1,,,,,0,,,77,0
75540,note_on,,,,,0,0,1,,,,,0,,,82,48
75550,set_tempo,,,,,50,1,0,,371517,,,,,,,
75570,set_tempo,,,,,20,1,0,,372670,,,,,,,
75570,note_on,,,,,90,0,2,,,,,0,,,70,0
75570,note_on,,,,,0,0,2,,,,,0,,,62,0
75600,note_on,,,,,30,0,2,,,,,0,,,63,42
75600,note_on,,,,,0,0,2,,,,,0,,,70,42
75600,set_tempo,,,,,30,1,0,,365853,,,,,,,
75600,note_on,,,,,60,0,1,,,,,0,,,82,0
75600,note_on,,,,,0,0,1,,,,,0,,,79,43
75650,set_tempo,,,,,50,1,0,,359281,,,,,,,
75660,note_on,,,,,0,0,1,,,,,0,,,82,38
75660,note_on,,,,,60,0,1,,,,,0,,,79,0
75690,note_on,,,,,0,0,2,,,,,0,,,63,0
75690,note_on,,,,,90,0,2,,,,,0,,,70,0
75700,set_tempo,,,,,50,1,0,,353982,,,,,,,
75705,note_on,,,,,45,0,1,,,,,0,,,82,0
75715,control_change,,,,,10,0,1,,,,,0,64,0,,
75720,note_on,,,,,5,0,1,,,,,0,,,78,48
75720,control_change,,,,,0,0,1,,,,,0,64,96,,
75720,note_on,,,,,0,0,2,,,,,0,,,66,53
75720,note_on,,,,,30,0,2,,,,,0,,,75,53
75740,set_tempo,,,,,40,1,0,,349854,,,,,,,
75780,note_on,,,,,0,0,1,,,,,0,,,83,51
75780,note_on,,,,,60,0,1,,,,,0,,,78,0
75790,set_tempo,,,,,50,1,0,,345821,,,,,,,
75810,note_on,,,,,90,0,2,,,,,0,,,66,0
75810,note_on,,,,,0,0,2,,,,,0,,,75,0
75840,note_on,,,,,30,0,2,,,,,0,,,76,61
75840,set_tempo,,,,,50,1,0,,341880,,,,,,,
75840,note_on,,,,,0,0,2,,,,,0,,,66,61
75840,note_on,,,,,60,0,1,,,,,0,,,83,0
75840,note_on,,,,,0,0,1,,,,,0,,,80,55
75900,note_on,,,,,60,0,1,,,,,0,,,80,0
75900,note_on,,,,,0,0,1,,,,,0,,,85,60
75910,set_tempo,,,,,70,1,0,,338028,,,,,,,
75930,note_on,,,,,90,0,2,,,,,0,,,66,0
75930,note_on,,,,,0,0,2,,,,,0,,,76,0
75960,note_on,,,,,0,0,1,,,,,0,,,78,64
75960,note_on,,,,,60,0,1,,,,,0,,,85,0
75960,note_on,,,,,30,0,2,,,,,0,,,75,62
75960,note_on,,,,,0,0,2,,,,,0,,,66,62
75980,set_tempo,,,,,70,1,0,,332409,,,,,,,
76020,note_on,,,,,60,0,1,,,,,0,,,78,0
76020,set_tempo,,,,,40,1,0,,327868,,,,,,,
76020,note_on,,,,,0,0,1,,,,,0,,,83,68
76050,note_on,,,,,90,0,2,,,,,0,,,66,0
76050,note_on,,,,,0,0,2,,,,,0,,,75,0
76080,note_on,,,,,0,0,1,,,,,0,,,80,72
76080,note_on,,,,,60,0,1,,,,,0,,,83,0
76080,note_on,,,,,30,0,2,,,,,0,,,76,68
76080,note_on,,,,,0,0,2,,,,,0,,,66,68
76090,set_tempo,,,,,70,1,0,,325203,,,,,,,
76140,note_on,,,,,0,0,1,,,,,0,,,85,77
76140,note_on,,,,,60,0,1,,,,,0,,,80,0
76140,set_tempo,,,,,50,1,0,,323450,,,,,,,
76170,note_on,,,,,90,0,2,,,,,0,,,66,0
76170,note_on,,,,,0,0,2,,,,,0,,,76,0
76200,note_on,,,,,30,0,2,,,,,0,,,66,70
76200,note_on,,,,,0,0,2,,,,,0,,,78,70
76200,note_on,,,,,60,0,1,,,,,0,,,85,0
76200,note_on,,,,,0,0,1,,,,,0,,,82,81
76260,note_on,,,,,0,0,1,,,,,0,,,88,84
76260,note_on,,,,,60,0,1,,,,,0,,,82,0
76260,set_tempo,,,,,120,1,0,,328767,,,,,,,
76300,set_tempo,,,,,40,1,0,,333333,,,,,,,
76315,control_change,,,,,55,0,1,,,,,0,64,0,,
76320,control_change,,,,,0,0,1,,,,,0,64,95,,
76320,note_on,,,,,0,0,1,,,,,0,,,83,87
76320,note_on,,,,,5,0,1,,,,,0,,,88,0
76340,set_tempo,,,,,40,1,0,,342857,,,,,,,
76380,note_on,,,,,60,0,1,,,,,0,,,83,0
76380,note_on,,,,,0,0,1,,,,,0,,,87,68
76380,set_tempo,,,,,40,1,0,,353982,,,,,,,
76410,note_on,,,,,0,0,2,,,,,0,,,66,0
76410,note_on,,,,,210,0,2,,,,,0,,,78,0
76430,set_tempo,,,,,50,1,0,,364741,,,,,,,
76440,note_on,,,,,0,0,1,,,,,0,,,85,57
76440,note_on,,,,,0,0,2,,,,,0,,,78,62
76440,note_on,,,,,30,0,2,,,,,0,,,70,62
76440,note_on,,,,,60,0,1,,,,,0,,,87,0
76500,note_on,,,,,0,0,1,,,,,0,,,90,48
76500,note_on,,,,,60,0,1,,,,,0,,,85,0
76510,set_tempo,,,,,80,1,0,,376175,,,,,,,
76530,note_on,,,,,0,0,2,,,,,0,,,70,0
76530,note_on,,,,,90,0,2,,,,,0,,,78,0
76550,set_tempo,,,,,40,1,0,,382165,,,,,,,
76560,note_on,,,,,0,0,1,,,,,0,,,87,43
76560,note_on,,,,,60,0,1,,,,,0,,,90,0
76560,note_on,,,,,0,0,2,,,,,0,,,78,54
76560,note_on,,,,,30,0,2,,,,,0,,,71,54
76570,set_tempo,,,,,20,1,0,,383386,,,,,,,
76620,note_on,,,,,0,0,1,,,,,0,,,90,38
76620,note_on,,,,,60,0,1,,,,,0,,,87,0
76650,note_on,,,,,90,0,2,,,,,0,,,78,0
76650,note_on,,,,,0,0,2,,,,,0,,,71,0
76660,set_tempo,,,,,90,1,0,,390879,,,,,,,
76665,note_on,,,,,45,0,1,,,,,0,,,90,0
76675,control_change,,,,,10,0,1,,,,,0,64,0,,
76680,note_on,,,,,5,0,1,,,,,0,,,86,49
76680,control_change,,,,,0,0,1,,,,,0,64,96,,
76680,note_on,,,,,0,0,2,,,,,0,,,71,49
76680,note_on,,,,,30,0,2,,,,,0,,,62,49
76730,set_tempo,,,,,70,1,0,,400000,,,,,,,
76740,note_on,,,,,60,0,1,,,,,0,,,86,0
76740,note_on,,,,,0,0,1,,,,,0,,,91,57
76770,note_on,,,,,0,0,2,,,,,0,,,62,0
76770,note_on,,,,,90,0,2,,,,,0,,,71,0
76785,note_on,,,,,45,0,1,,,,,0,,,91,0
76795,control_change,,,,,10,0,1,,,,,0,64,0,,
76800,note_on,,,,,5,0,1,,,,,0,,,88,43
76800,control_change,,,,,0,0,1,,,,,0,64,96,,
76800,note_on,,,,,0,0,2,,,,,0,,,72,54
76800,note_on,,,,,30,0,2,,,,,0,,,62,54
76850,set_tempo,,,,,120,1,0,,397350,,,,,,,
76860,set_tempo,,,,,10,1,0,,392156,,,,,,,
76860,note_on,,,,,60,0,1,,,,,0,,,88,0
76860,note_on,,,,,0,0,1,,,,,0,,,84,43
76890,note_on,,,,,0,0,2,,,,,0,,,62,0
76890,note_on,,,,,90,0,2,,,,,0,,,72,0
76905,note_on,,,,,45,0,1,,,,,0,,,84,0
76920,note_on,,,,,15,0,1,,,,,0,,,84,44
76920,note_on,,,,,30,0,2,,,,,0,,,62,44
76920,note_on,,,,,0,0,2,,,,,0,,,69,44
76980,note_on,,,,,60,0,1,,,,,0,,,84,0
76980,note_on,,,,,0,0,1,,,,,0,,,81,49
76980,set_tempo,,,,,120,1,0,,385852,,,,,,,
77010,note_on,,,,,0,0,2,,,,,0,,,62,0
77010,note_on,,,,,90,0,2,,,,,0,,,69,0
77025,note_on,,,,,45,0,1,,,,,0,,,81,0
77040,note_on,,,,,0,0,2,,,,,0,,,62,46
77040,note_on,,,,,30,0,2,,,,,0,,,73,46
77040,note_on,,,,,15,0,1,,,,,0,,,82,54
77040,set_tempo,,,,,60,1,0,,387096,,,,,,,
77060,set_tempo,,,,,20,1,0,,379746,,,,,,,
77100,note_on,,,,,0,0,1,,,,,0,,,85,49
77100,note_on,,,,,60,0,1,,,,,0,,,82,0
77120,set_tempo,,,,,60,1,0,,363636,,,,,,,
77130,note_on,,,,,90,0,2,,,,,0,,,62,0
77130,note_on,,,,,0,0,2,,,,,0,,,73,0
77145,note_on,,,,,45,0,1,,,,,0,,,85,0
77150,set_tempo,,,,,30,1,0,,362537,,,,,,,
77155,control_change,,,,,10,0,1,,,,,0,64,0,,
77160,control_change,,,,,0,0,1,,,,,0,64,95,,
77160,note_on,,,,,5,0,1,,,,,0,,,83,59
77160,note_on,,,,,30,0,2,,,,,0,,,62,53
77160,note_on,,,,,0,0,2,,,,,0,,,74,53
77200,set_tempo,,,,,50,1,0,,355029,,,,,,,
77220,note_on,,,,,60,0,1,,,,,0,,,83,0
77220,note_on,,,,,0,0,1,,,,,0,,,86,38
77250,set_tempo,,,,,50,1,0,,346820,,,,,,,
77250,note_on,,,,,90,0,2,,,,,0,,,74,0
77250,note_on,,,,,0,0,2,,,,,0,,,62,0
77265,note_on,,,,,45,0,1,,,,,0,,,86,0
77275,control_change,,,,,10,0,1,,,,,0,64,0,,
77280,control_change,,,,,0,0,1,,,,,0,64,96,,
77280,note_on,,,,,5,0,1,,,,,0,,,83,43
77280,note_on,,,,,30,0,2,,,,,0,,,67,54
77280,note_on,,,,,0,0,2,,,,,0,,,62,54
77340,note_on,,,,,60,0,1,,,,,0,,,83,0
77340,note_on,,,,,0,0,1,,,,,0,,,79,43
77360,set_tempo,,,,,110,1,0,,343839,,,,,,,
77370,note_on,,,,,90,0,2,,,,,0,,,62,0
77370,note_on,,,,,0,0,2,,,,,0,,,67,0
77385,note_on,,,,,45,0,1,,,,,0,,,79,0
77400,note_on,,,,,30,0,2,,,,,0,,,71,44
77400,note_on,,,,,0,0,2,,,,,0,,,62,44
77400,note_on,,,,,15,0,1,,,,,0,,,79,44
77460,set_tempo,,,,,100,1,0,,342857,,,,,,,
77460,note_on,,,,,0,0,1,,,,,0,,,74,49
77460,note_on,,,,,60,0,1,,,,,0,,,79,0
77490,note_on,,,,,90,0,2,,,,,0,,,62,0
77490,note_on,,,,,0,0,2,,,,,0,,,71,0
77505,note_on,,,,,45,0,1,,,,,0,,,74,0
77520,note_on,,,,,15,0,1,,,,,0,,,73,54
77520,note_on,,,,,0,0,2,,,,,0,,,62,46
77520,note_on,,,,,30,0,2,,,,,0,,,70,46
77580,note_on,,,,,60,0,1,,,,,0,,,73,0
77580,note_on,,,,,0,0,1,,,,,0,,,76,49
77610,set_tempo,,,,,150,1,0,,348837,,,,,,,
77610,note_on,,,,,0,0,2,,,,,0,,,70,0
77610,note_on,,,,,90,0,2,,,,,0,,,62,0
77625,note_on,,,,,45,0,1,,,,,0,,,76,0
77635,control_change,,,,,10,0,1,,,,,0,64,0,,
77640,note_on,,,,,5,0,1,,,,,0,,,74,59
77640,note_on,,,,,0,0,2,,,,,0,,,71,53
77640,control_change,,,,,0,0,1,,,,,0,64,95,,
77640,note_on,,,,,30,0,2,,,,,0,,,62,53
77660,set_tempo,,,,,50,1,0,,355029,,,,,,,
77700,note_on,,,,,0,0,1,,,,,0,,,79,38
77700,note_on,,,,,60,0,1,,,,,0,,,74,0
77730,note_on,,,,,90,0,2,,,,,0,,,71,0
77730,note_on,,,,,0,0,2,,,,,0,,,62,0
77745,note_on,,,,,45,0,1,,,,,0,,,79,0
77755,control_change,,,,,10,0,1,,,,,0,64,0,,
77760,note_on,,,,,5,0,1,,,,,0,,,76,43
77760,note_on,,,,,30,0,2,,,,,0,,,60,53
77760,note_on,,,,,0,0,2,,,,,0,,,50,54
77760,control_change,,,,,0,0,1,,,,,0,64,96,,
77780,set_tempo,,,,,120,1,0,,358208,,,,,,,
77820,note_on,,,,,60,0,1,,,,,0,,,76,0
77820,note_on,,,,,0,0,1,,,,,0,,,72,43
77850,note_on,,,,,90,0,2,,,,,0,,,50,0
77850,note_on,,,,,0,0,2,,,,,0,,,60,0
77860,set_tempo,,,,,80,1,0,,359281,,,,,,,
77865,note_on,,,,,45,0,1,,,,,0,,,72,0
77870,set_tempo,,,,,10,1,0,,363636,,,,,,,
77880,note_on,,,,,15,0,1,,,,,0,,,72,44
77880,note_on,,,,,0,0,2,,,,,0,,,50,51
77880,note_on,,,,,30,0,2,,,,,0,,,57,51
77940,note_on,,,,,60,0,1,,,,,0,,,72,0
77940,note_on,,,,,0,0,1,,,,,0,,,69,49
77970,note_on,,,,,0,0,2,,,,,0,,,57,0
77970,note_on,,,,,90,0,2,,,,,0,,,50,0
77980,set_tempo,,,,,110,1,0,,366972,,,,,,,
77985,note_on,,,,,45,0,1,,,,,0,,,69,0
78000,note_on,,,,,30,0,2,,,,,0,,,61,46
78000,note_on,,,,,0,0,2,,,,,0,,,50,46
78000,note_on,,,,,15,0,1,,,,,0,,,70,54
78040,set_tempo,,,,,60,1,0,,378548,,,,,,,
78060,note_on,,,,,0,0,1,,,,,0,,,73,50
78060,note_on,,,,,60,0,1,,,,,0,,,70,0
78090,set_tempo,,,,,50,1,0,,382165,,,,,,,
78090,note_on,,,,,90,0,2,,,,,0,,,50,0
78090,note_on,,,,,0,0,2,,,,,0,,,61,0
78100,set_tempo,,,,,10,1,0,,383386,,,,,,,
78105,note_on,,,,,45,0,1,,,,,0,,,73,0
78115,control_change,,,,,10,0,1,,,,,0,64,0,,
78120,note_on,,,,,30,0,2,,,,,0,,,62,53
78120,note_on,,,,,5,0,1,,,,,0,,,71,51
78120,control_change,,,,,0,0,1,,,,,0,64,95,,
78120,note_on,,,,,0,0,2,,,,,0,,,50,53
78160,set_tempo,,,,,60,1,0,,387096,,,,,,,
78180,note_on,,,,,60,0,1,,,,,0,,,71,0
78180,note_on,,,,,0,0,1,,,,,0,,,74,38
78210,note_on,,,,,0,0,2,,,,,0,,,62,0
78210,note_on,,,,,90,0,2,,,,,0,,,50,0
78220,set_tempo,,,,,60,1,0,,392156,,,,,,,
78225,note_on,,,,,45,0,1,,,,,0,,,74,0
78235,control_change,,,,,10,0,1,,,,,0,64,0,,
78240,note_on,,,,,5,0,1,,,,,0,,,71,48
78240,set_tempo,,,,,20,1,0,,393442,,,,,,,
78240,note_on,,,,,0,0,2,,,,,0,,,55,53
78240,note_on,,,,,30,0,2,,,,,0,,,50,53
78240,control_change,,,,,0,0,1,,,,,0,64,95,,
78300,note_on,,,,,0,0,1,,,,,0,,,67,40
78300,note_on,,,,,60,0,1,,,,,0,,,71,0
78330,note_on,,,,,0,0,2,,,,,0,,,50,0
78330,set_tempo,,,,,90,1,0,,397350,,,,,,,
78330,note_on,,,,,90,0,2,,,,,0,,,55,0
78345,note_on,,,,,45,0,1,,,,,0,,,67,0
78360,note_on,,,,,15,0,1,,,,,0,,,67,44
78360,note_on,,,,,30,0,2,,,,,0,,,50,46
78360,note_on,,,,,0,0,2,,,,,0,,,59,46
78420,set_tempo,,,,,90,1,0,,406779,,,,,,,
78420,note_on,,,,,0,0,1,,,,,0,,,62,38
78420,note_on,,,,,60,0,1,,,,,0,,,67,0
78450,note_on,,,,,90,0,2,,,,,0,,,59,0
78450,note_on,,,,,0,0,2,,,,,0,,,50,0
78465,note_on,,,,,45,0,1,,,,,0,,,62,0
78475,control_change,,,,,10,0,1,,,,,0,64,0,,
78480,note_on,,,,,5,0,1,,,,,0,,,69,44
78480,note_on,,,,,0,0,2,,,,,0,,,54,43
78480,control_change,,,,,0,0,1,,,,,0,64,95,,
78480,note_on,,,,,30,0,2,,,,,0,,,50,43
78530,set_tempo,,,,,110,1,0,,413793,,,,,,,
78540,note_on,,,,,0,0,1,,,,,0,,,66,36
78540,note_on,,,,,60,0,1,,,,,0,,,69,0
78570,note_on,,,,,90,0,2,,,,,0,,,54,0
78570,note_on,,,,,0,0,2,,,,,0,,,50,0
78585,note_on,,,,,45,0,1,,,,,0,,,66,0
78600,note_on,,,,,30,0,2,,,,,0,,,50,39
78600,note_on,,,,,0,0,2,,,,,0,,,60,39
78600,set_tempo,,,,,70,1,0,,418118,,,,,,,
78600,note_on,,,,,15,0,1,,,,,0,,,66,40
78660,note_on,,,,,60,0,1,,,,,0,,,66,0
78660,note_on,,,,,0,0,1,,,,,0,,,62,34
78680,set_tempo,,,,,80,1,0,,425531,,,,,,,
78690,note_on,,,,,90,0,2,,,,,0,,,60,0
78690,note_on,,,,,0,0,2,,,,,0,,,50,0
78705,note_on,,,,,45,0,1,,,,,0,,,62,0
78715,control_change,,,,,10,0,1,,,,,0,64,0,,
78720,note_on,,,,,0,0,2,,,,,0,,,55,43
78720,note_on,,,,,30,0,2,,,,,0,,,50,43
78720,control_change,,,,,0,0,1,,,,,0,64,95,,
78720,note_on,,,,,5,0,1,,,,,0,,,71,38
78770,set_tempo,,,,,90,1,0,,431654,,,,,,,
78780,note_on,,,,,60,0,1,,,,,0,,,71,0
78780,note_on,,,,,0,0,1,,,,,0,,,67,34
78810,note_on,,,,,0,0,2,,,,,0,,,50,0
78810,note_on,,,,,90,0,2,,,,,0,,,55,0
78825,note_on,,,,,45,0,1,,,,,0,,,67,0
78840,note_on,,,,,0,0,2,,,,,0,,,59,37
78840,note_on,,,,,30,0,2,,,,,0,,,50,37
78840,note_on,,,,,15,0,1,,,,,0,,,67,38
78850,set_tempo,,,,,80,1,0,,437956,,,,,,,
78900,note_on,,,,,60,0,1,,,,,0,,,67,0
78900,note_on,,,,,0,0,1,,,,,0,,,62,31
78900,set_tempo,,,,,50,1,0,,441176,,,,,,,
78910,set_tempo,,,,,10,1,0,,444444,,,,,,,
78930,note_on,,,,,0,0,2,,,,,0,,,50,0
78930,note_on,,,,,90,0,2,,,,,0,,,59,0
78945,note_on,,,,,45,0,1,,,,,0,,,62,0
78955,control_change,,,,,10,0,1,,,,,0,64,0,,
78960,note_on,,,,,5,0,1,,,,,0,,,69,38
78960,control_change,,,,,0,0,1,,,,,0,64,95,,
78960,note_on,,,,,0,0,2,,,,,0,,,54,35
78960,note_on,,,,,30,0,2,,,,,0,,,50,35
79010,set_tempo,,,,,100,1,0,,449438,,,,,,,
79020,note_on,,,,,60,0,1,,,,,0,,,69,0
79020,note_on,,,,,0,0,1,,,,,0,,,66,30
79050,set_tempo,,,,,40,1,0,,456273,,,,,,,
79050,note_on,,,,,0,0,2,,,,,0,,,50,0
79050,note_on,,,,,90,0,2,,,,,0,,,54,0
79065,note_on,,,,,45,0,1,,,,,0,,,66,0
79080,note_on,,,,,0,0,2,,,,,0,,,60,30
79080,note_on,,,,,30,0,2,,,,,0,,,50,30
79080,note_on,,,,,15,0,1,,,,,0,,,66,35
79130,set_tempo,,,,,80,1,0,,449438,,,,,,,
79140,note_on,,,,,0,0,1,,,,,0,,,62,27
79140,note_on,,,,,60,0,1,,,,,0,,,66,0
79170,note_on,,,,,0,0,2,,,,,0,,,50,0
79170,note_on,,,,,90,0,2,,,,,0,,,60,0
79180,set_tempo,,,,,50,1,0,,442804,,,,,,,
79185,note_on,,,,,45,0,1,,,,,0,,,62,0
79195,control_change,,,,,10,0,1,,,,,0,64,0,,
79200,note_on,,,,,0,0,2,,,,,0,,,55,35
79200,note_on,,,,,30,0,2,,,,,0,,,50,35
79200,note_on,,,,,5,0,1,,,,,0,,,71,38
79200,control_change,,,,,0,0,1,,,,,0,64,95,,
79230,set_tempo,,,,,50,1,0,,433212,,,,,,,
79260,note_on,,,,,0,0,1,,,,,0,,,67,34
79260,note_on,,,,,60,0,1,,,,,0,,,71,0
79280,set_tempo,,,,,50,1,0,,431654,,,,,,,
79290,note_on,,,,,90,0,2,,,,,0,,,55,0
79290,note_on,,,,,0,0,2,,,,,0,,,50,0
79290,set_tempo,,,,,10,1,0,,424028,,,,,,,
79305,note_on,,,,,45,0,1,,,,,0,,,67,0
79320,note_on,,,,,30,0,2,,,,,0,,,50,39
79320,note_on,,,,,0,0,2,,,,,0,,,59,39
79320,note_on,,,,,15,0,1,,,,,0,,,67,43
79370,set_tempo,,,,,80,1,0,,416666,,,,,,,
79380,note_on,,,,,60,0,1,,,,,0,,,67,0
79380,note_on,,,,,0,0,1,,,,,0,,,62,35
79410,note_on,,,,,90,0,2,,,,,0,,,59,0
79410,note_on,,,,,0,0,2,,,,,0,,,50,0
79425,note_on,,,,,45,0,1,,,,,0,,,62,0
79435,control_change,,,,,10,0,1,,,,,0,64,0,,
79440,note_on,,,,,30,0,2,,,,,0,,,56,42
79440,note_on,,,,,0,0,2,,,,,0,,,50,42
79440,control_change,,,,,0,0,1,,,,,0,64,95,,
79440,note_on,,,,,5,0,1,,,,,0,,,71,47
79450,set_tempo,,,,,80,1,0,,410958,,,,,,,
79500,note_on,,,,,60,0,1,,,,,0,,,71,0
79500,note_on,,,,,0,0,1,,,,,0,,,68,41
79530,note_on,,,,,90,0,2,,,,,0,,,50,0
79530,note_on,,,,,0,0,2,,,,,0,,,56,0
79530,set_tempo,,,,,80,1,0,,406779,,,,,,,
79545,note_on,,,,,45,0,1,,,,,0,,,68,0
79560,note_on,,,,,15,0,1,,,,,0,,,68,51
79560,note_on,,,,,30,0,2,,,,,0,,,59,47
79560,note_on,,,,,0,0,2,,,,,0,,,50,47
79580,set_tempo,,,,,50,1,0,,402684,,,,,,,
79590,set_tempo,,,,,10,1,0,,400000,,,,,,,
79620,note_on,,,,,0,0,1,,,,,0,,,62,45
79620,note_on,,,,,60,0,1,,,,,0,,,68,0
79650,note_on,,,,,90,0,2,,,,,0,,,50,0
79650,note_on,,,,,0,0,2,,,,,0,,,59,0
79650,set_tempo,,,,,60,1,0,,396039,,,,,,,
79665,note_on,,,,,45,0,1,,,,,0,,,62,0
79675,control_change,,,,,10,0,1,,,,,0,64,0,,
79680,note_on,,,,,5,0,1,,,,,0,,,72,58
79680,control_change,,,,,0,0,1,,,,,0,64,95,,
79680,note_on,,,,,0,0,2,,,,,0,,,50,56
79680,note_on,,,,,30,0,2,,,,,0,,,57,56
79690,set_tempo,,,,,40,1,0,,388349,,,,,,,
79700,set_tempo,,,,,10,1,0,,387096,,,,,,,
79740,set_tempo,,,,,40,1,0,,382165,,,,,,,
79740,note_on,,,,,60,0,1,,,,,0,,,72,0
79740,note_on,,,,,0,0,1,,,,,0,,,69,53
79770,note_on,,,,,90,0,2,,,,,0,,,50,0
79770,note_on,,,,,0,0,2,,,,,0,,,57,0
79780,set_tempo,,,,,40,1,0,,375000,,,,,,,
79785,note_on,,,,,45,0,1,,,,,0,,,69,0
79800,note_on,,,,,30,0,2,,,,,0,,,60,62
79800,note_on,,,,,0,0,2,,,,,0,,,50,62
79800,note_on,,,,,15,0,1,,,,,0,,,69,63
79860,note_on,,,,,0,0,1,,,,,0,,,62,58
79860,note_on,,,,,60,0,1,,,,,0,,,69,0
79870,set_tempo,,,,,90,1,0,,370370,,,,,,,
79880,set_tempo,,,,,10,1,0,,365853,,,,,,,
79890,note_on,,,,,90,0,2,,,,,0,,,50,0
79890,note_on,,,,,0,0,2,,,,,0,,,60,0
79905,note_on,,,,,45,0,1,,,,,0,,,62,0
79915,control_change,,,,,10,0,1,,,,,0,64,0,,
79920,note_on,,,,,0,0,2,,,,,0,,,50,68
79920,note_on,,,,,30,0,2,,,,,0,,,58,68
79920,control_change,,,,,0,0,1,,,,,0,64,95,,
79920,note_on,,,,,5,0,1,,,,,0,,,73,70
79950,set_tempo,,,,,70,1,0,,363636,,,,,,,
79980,note_on,,,,,0,0,1,,,,,0,,,70,67
79980,note_on,,,,,60,0,1,,,,,0,,,73,0
80010,note_on,,,,,0,0,2,,,,,0,,,58,0
80010,note_on,,,,,90,0,2,,,,,0,,,50,0
80010,set_tempo,,,,,60,1,0,,359281,,,,,,,
80025,note_on,,,,,45,0,1,,,,,0,,,70,0
80030,set_tempo,,,,,20,1,0,,357142,,,,,,,
80040,note_on,,,,,0,0,2,,,,,0,,,50,78
80040,note_on,,,,,30,0,2,,,,,0,,,61,78
80040,note_on,,,,,15,0,1,,,,,0,,,70,77
80050,set_tempo,,,,,20,1,0,,355029,,,,,,,
80080,set_tempo,,,,,30,1,0,,355029,,,,,,,
80090,set_tempo,,,,,10,1,0,,357142,,,,,,,
80100,note_on,,,,,0,0,1,,,,,0,,,62,81
80100,note_on,,,,,60,0,1,,,,,0,,,70,0
80100,set_tempo,,,,,10,1,0,,540540,,,,,,,
80130,note_on,,,,,90,0,2,,,,,0,,,50,0
80130,note_on,,,,,0,0,2,,,,,0,,,61,0
80160,note_on,,,,,60,0,1,,,,,0,,,62,0
80185,control_change,,,,,25,0,1,,,,,0,64,0,,
80300,set_tempo,,,,,200,1,0,,375000,,,,,,,
80520,note_on,,,,,0,0,1,,,,,0,,,73,85
80520,control_change,,,,,335,0,1,,,,,0,91,96,,
80550,set_tempo,,,,,250,1,0,,394736,,,,,,,
80580,note_on,,,,,0,0,1,,,,,0,,,76,84
80580,note_on,,,,,60,0,1,,,,,0,,,73,0
80620,note_on,,,,,490,0,2,,,,,0,,,43,89
80630,note_on,,,,,10,0,2,,,,,0,,,50,90
80632,note_on,,,,,52,0,1,,,,,0,,,76,0
80640,note_on,,,,,10,0,2,,,,,0,,,59,90
80640,note_on,,,,,8,0,1,,,,,0,,,74,90
80640,set_tempo,,,,,90,1,0,,377358,,,,,,,
80640,control_change,,,,,0,0,1,,,,,0,64,96,,
80640,note_on,,,,,0,0,2,,,,,0,,,62,90
81000,note_on,,,,,360,0,1,,,,,0,,,74,0
81000,note_on,,,,,0,0,1,,,,,0,,,72,80
81020,set_tempo,,,,,380,1,0,,389610,,,,,,,
81060,note_on,,,,,0,0,1,,,,,0,,,71,81
81060,note_on,,,,,60,0,1,,,,,0,,,72,0
81100,note_on,,,,,460,0,2,,,,,0,,,43,0
81100,control_change,,,,,40,0,1,,,,,0,64,0,,
81100,set_tempo,,,,,80,1,0,,384615,,,,,,,
81110,set_tempo,,,,,10,1,0,,382165,,,,,,,
81114,note_on,,,,,14,0,1,,,,,0,,,71,0
81120,note_on,,,,,20,0,2,,,,,0,,,62,0
81120,note_on,,,,,0,0,2,,,,,0,,,59,0
81120,note_on,,,,,0,0,2,,,,,0,,,60,89
81120,note_on,,,,,0,0,2,,,,,0,,,62,89
81120,note_on,,,,,6,0,1,,,,,0,,,69,84
81120,control_change,,,,,0,0,1,,,,,0,64,95,,
81180,note_on,,,,,60,0,1,,,,,0,,,69,0
81180,note_on,,,,,0,0,1,,,,,0,,,71,86
81200,set_tempo,,,,,90,1,0,,368098,,,,,,,
81240,note_on,,,,,60,0,1,,,,,0,,,71,0
81240,note_on,,,,,0,0,1,,,,,0,,,72,89
81300,note_on,,,,,60,0,1,,,,,0,,,72,0
81300,note_on,,,,,0,0,1,,,,,0,,,74,91
81354,note_on,,,,,54,0,1,,,,,0,,,74,0
81360,note_on,,,,,240,0,2,,,,,0,,,60,0
81360,note_on,,,,,6,0,1,,,,,0,,,72,94
81360,note_on,,,,,0,0,2,,,,,0,,,57,86
81450,note_on,,,,,90,0,2,,,,,0,,,57,0
81450,note_on,,,,,90,0,1,,,,,0,,,72,0
81480,note_on,,,,,30,0,1,,,,,0,,,69,83
81480,note_on,,,,,30,0,2,,,,,0,,,54,80
81570,note_on,,,,,90,0,1,,,,,0,,,69,0
81570,note_on,,,,,90,0,2,,,,,0,,,54,0
81580,note_on,,,,,10,0,2,,,,,0,,,50,0
81580,control_change,,,,,10,0,1,,,,,0,64,0,,
81600,control_change,,,,,0,0,1,,,,,0,64,95,,
81600,note_on,,,,,0,0,1,,,,,0,,,71,90
81600,note_on,,,,,20,0,2,,,,,0,,,62,0
81600,note_on,,,,,0,0,2,,,,,0,,,43,76
81600,note_on,,,,,20,0,1,,,,,0,,,62,90
81600,note_on,,,,,0,0,2,,,,,0,,,55,76
81600,note_on,,,,,0,0,2,,,,,0,,,50,76
81720,note_on,,,,,0,0,2,,,,,0,,,47,71
81720,note_on,,,,,120,0,1,,,,,0,,,71,0
81720,note_on,,,,,0,0,1,,,,,0,,,67,77
81720,note_on,,,,,120,0,2,,,,,0,,,43,0
81780,note_on,,,,,60,0,2,,,,,0,,,47,0
81780,note_on,,,,,0,0,2,,,,,0,,,55,0
81780,note_on,,,,,0,0,2,,,,,0,,,50,0
81780,note_on,,,,,60,0,1,,,,,0,,,67,0
81780,control_change,,,,,0,0,1,,,,,0,64,0,,
81780,note_on,,,,,0,0,1,,,,,0,,,62,0
81840,note_on,,,,,0,0,1,,,,,0,,,72,95
81840,note_on,,,,,0,0,1,,,,,0,,,76,95
81840,note_on,,,,,60,0,1,,,,,0,,,81,95
81840,set_tempo,,,,,640,1,0,,413793,,,,,,,
81840,note_on,,,,,60,0,2,,,,,0,,,62,96
81899,note_on,,,,,59,0,2,,,,,0,,,62,0
81899,note_on,,,,,59,0,1,,,,,0,,,72,0
81899,note_on,,,,,0,0,1,,,,,0,,,76,0
81899,note_on,,,,,0,0,1,,,,,0,,,81,0
81900,note_on,,,,,0,0,1,,,,,0,,,76,89
81900,note_on,,,,,1,0,2,,,,,0,,,62,88
81900,note_on,,,,,1,0,1,,,,,0,,,72,89
81900,note_on,,,,,0,0,1,,,,,0,,,81,89
81954,note_on,,,,,54,0,1,,,,,0,,,81,0
81954,note_on,,,,,0,0,1,,,,,0,,,72,0
81954,note_on,,,,,54,0,2,,,,,0,,,62,0
81954,note_on,,,,,0,0,1,,,,,0,,,76,0
81960,note_on,,,,,0,0,1,,,,,0,,,76,79
81960,note_on,,,,,0,0,1,,,,,0,,,81,79
81960,note_on,,,,,6,0,1,,,,,0,,,72,90
81960,set_tempo,,,,,120,1,0,,400000,,,,,,,
81960,note_on,,,,,6,0,2,,,,,0,,,62,90
82014,note_on,,,,,0,0,1,,,,,0,,,72,0
82014,note_on,,,,,0,0,1,,,,,0,,,76,0
82014,note_on,,,,,54,0,1,,,,,0,,,81,0
82014,note_on,,,,,54,0,2,,,,,0,,,62,0
82020,note_on,,,,,0,0,1,,,,,0,,,81,93
82020,note_on,,,,,0,0,1,,,,,0,,,76,93
82020,note_on,,,,,6,0,1,,,,,0,,,72,96
82020,note_on,,,,,6,0,2,,,,,0,,,62,96
82070,set_tempo,,,,,110,1,0,,402684,,,,,,,
82074,note_on,,,,,0,0,1,,,,,0,,,76,0
82074,note_on,,,,,54,0,1,,,,,0,,,81,0
82074,note_on,,,,,0,0,1,,,,,0,,,72,0
82074,note_on,,,,,54,0,2,,,,,0,,,62,0
82080,note_on,,,,,0,0,2,,,,,0,,,67,102
82080,set_tempo,,,,,10,1,0,,400000,,,,,,,
82080,note_on,,,,,6,0,2,,,,,0,,,62,102
82080,note_on,,,,,6,0,1,,,,,0,,,71,98
82080,note_on,,,,,0,0,1,,,,,0,,,79,98
82080,control_change,,,,,0,0,1,,,,,0,64,95,,
82170,set_tempo,,,,,90,1,0,,382165,,,,,,,
82190,set_tempo,,,,,20,1,0,,379746,,,,,,,
82200,note_on,,,,,120,0,1,,,,,0,,,79,0
82200,note_on,,,,,0,0,1,,,,,0,,,71,0
82200,note_on,,,,,0,0,1,,,,,0,,,72,82
82200,note_on,,,,,0,0,1,,,,,0,,,76,82
82320,note_on,,,,,0,0,1,,,,,0,,,71,73
82320,note_on,,,,,120,0,1,,,,,0,,,76,0
82320,note_on,,,,,0,0,1,,,,,0,,,72,0
82320,note_on,,,,,0,0,1,,,,,0,,,74,73
82380,note_on,,,,,60,0,1,,,,,0,,,74,0
82380,control_change,,,,,0,0,1,,,,,0,64,0,,
82380,note_on,,,,,300,0,2,,,,,0,,,67,0
82380,note_on,,,,,0,0,2,,,,,0,,,62,0
82380,note_on,,,,,0,0,1,,,,,0,,,71,0
82440,set_tempo,,,,,250,1,0,,377358,,,,,,,
82440,note_on,,,,,60,0,1,,,,,0,,,79,91
82470,set_tempo,,,,,30,1,0,,394736,,,,,,,
82500,note_on,,,,,0,0,1,,,,,0,,,73,91
82500,note_on,,,,,60,0,1,,,,,0,,,79,0
82540,note_on,,,,,160,0,2,,,,,0,,,43,94
82550,note_on,,,,,10,0,2,,,,,0,,,50,94
82552,note_on,,,,,52,0,1,,,,,0,,,73,0
82560,set_tempo,,,,,90,1,0,,377358,,,,,,,
82560,note_on,,,,,0,0,2,,,,,0,,,62,94
82560,note_on,,,,,10,0,2,,,,,0,,,59,94
82560,control_change,,,,,0,0,1,,,,,0,64,96,,
82560,note_on,,,,,8,0,1,,,,,0,,,74,98
82920,note_on,,,,,360,0,1,,,,,0,,,74,0
82920,note_on,,,,,0,0,1,,,,,0,,,72,80
82940,set_tempo,,,,,380,1,0,,389610,,,,,,,
82980,note_on,,,,,60,0,1,,,,,0,,,72,0
82980,note_on,,,,,0,0,1,,,,,0,,,71,83
83020,control_change,,,,,40,0,1,,,,,0,64,0,,
83020,set_tempo,,,,,80,1,0,,384615,,,,,,,
83020,note_on,,,,,460,0,2,,,,,0,,,43,0
83030,set_tempo,,,,,10,1,0,,382165,,,,,,,
83034,note_on,,,,,14,0,1,,,,,0,,,71,0
83040,note_on,,,,,20,0,2,,,,,0,,,62,0
83040,note_on,,,,,6,0,1,,,,,0,,,69,86
83040,control_change,,,,,0,0,1,,,,,0,64,95,,
83040,note_on,,,,,0,0,2,,,,,0,,,62,89
83040,note_on,,,,,0,0,2,,,,,0,,,59,0
83040,note_on,,,,,0,0,2,,,,,0,,,60,89
83100,note_on,,,,,60,0,1,,,,,0,,,69,0
83100,note_on,,,,,0,0,1,,,,,0,,,71,88
83120,set_tempo,,,,,90,1,0,,368098,,,,,,,
83160,note_on,,,,,0,0,1,,,,,0,,,72,91
83160,note_on,,,,,60,0,1,,,,,0,,,71,0
83220,note_on,,,,,0,0,1,,,,,0,,,74,92
83220,note_on,,,,,60,0,1,,,,,0,,,72,0
83274,note_on,,,,,54,0,1,,,,,0,,,74,0
83280,note_on,,,,,240,0,2,,,,,0,,,60,0
83280,note_on,,,,,0,0,2,,,,,0,,,57,88
83280,note_on,,,,,6,0,1,,,,,0,,,72,96
83370,note_on,,,,,90,0,1,,,,,0,,,72,0
83370,note_on,,,,,90,0,2,,,,,0,,,57,0
83400,note_on,,,,,30,0,1,,,,,0,,,69,85
83400,note_on,,,,,30,0,2,,,,,0,,,54,84
83490,note_on,,,,,90,0,1,,,,,0,,,69,0
83490,note_on,,,,,90,0,2,,,,,0,,,54,0
83500,note_on,,,,,10,0,2,,,,,0,,,50,0
83500,control_change,,,,,10,0,1,,,,,0,64,0,,
83520,note_on,,,,,20,0,2,,,,,0,,,62,0
83520,note_on,,,,,0,0,2,,,,,0,,,43,80
83520,control_change,,,,,0,0,1,,,,,0,64,95,,
83520,note_on,,,,,0,0,1,,,,,0,,,67,91
83520,note_on,,,,,20,0,1,,,,,0,,,59,91
83520,note_on,,,,,0,0,2,,,,,0,,,50,80
83640,note_on,,,,,0,0,2,,,,,0,,,55,30
83640,note_on,,,,,120,0,1,,,,,0,,,67,0
83640,note_on,,,,,0,0,1,,,,,0,,,62,77
83640,note_on,,,,,120,0,2,,,,,0,,,50,0
83700,note_on,,,,,60,0,1,,,,,0,,,62,0
83700,note_on,,,,,0,0,1,,,,,0,,,59,0
83700,control_change,,,,,0,0,1,,,,,0,64,0,,
83700,note_on,,,,,60,0,2,,,,,0,,,55,0
83700,note_on,,,,,0,0,2,,,,,0,,,43,0
83760,note_on,,,,,60,0,1,,,,,0,,,60,81
83760,note_on,,,,,0,0,1,,,,,0,,,64,81
83760,note_on,,,,,0,0,1,,,,,0,,,69,81
83760,note_on,,,,,60,0,2,,,,,0,,,50,106
83819,note_on,,,,,59,0,2,,,,,0,,,50,0
83819,note_on,,,,,59,0,1,,,,,0,,,69,0
83819,note_on,,,,,0,0,1,,,,,0,,,60,0
83819,note_on,,,,,0,0,1,,,,,0,,,64,0
83820,note_on,,,,,0,0,1,,,,,0,,,60,79
83820,note_on,,,,,1,0,2,,,,,0,,,50,98
83820,note_on,,,,,1,0,1,,,,,0,,,64,79
83820,note_on,,,,,0,0,1,,,,,0,,,69,79
83860,set_tempo,,,,,740,1,0,,363636,,,,,,,
83874,note_on,,,,,54,0,1,,,,,0,,,60,0
83874,note_on,,,,,0,0,1,,,,,0,,,69,0
83874,note_on,,,,,0,0,1,,,,,0,,,64,0
83874,note_on,,,,,54,0,2,,,,,0,,,50,0
83880,note_on,,,,,6,0,2,,,,,0,,,50,86
83880,note_on,,,,,6,0,1,,,,,0,,,64,71
83880,note_on,,,,,0,0,1,,,,,0,,,69,71
83880,note_on,,,,,0,0,1,,,,,0,,,60,71
83934,note_on,,,,,54,0,2,,,,,0,,,50,0
83934,note_on,,,,,0,0,1,,,,,0,,,69,0
83934,note_on,,,,,0,0,1,,,,,0,,,64,0
83934,note_on,,,,,54,0,1,,,,,0,,,60,0
83940,note_on,,,,,6,0,2,,,,,0,,,50,78
83940,note_on,,,,,6,0,1,,,,,0,,,64,69
83940,note_on,,,,,0,0,1,,,,,0,,,69,69
83940,note_on,,,,,0,0,1,,,,,0,,,60,69
83950,set_tempo,,,,,90,1,0,,361445,,,,,,,
83994,note_on,,,,,54,0,2,,,,,0,,,50,0
83994,note_on,,,,,54,0,1,,,,,0,,,60,0
83994,note_on,,,,,0,0,1,,,,,0,,,69,0
83994,note_on,,,,,0,0,1,,,,,0,,,64,0
84000,note_on,,,,,6,0,1,,,,,0,,,67,68
84000,note_on,,,,,6,0,2,,,,,0,,,50,72
84000,note_on,,,,,0,0,1,,,,,0,,,59,68
84070,set_tempo,,,,,120,1,0,,348837,,,,,,,
84120,note_on,,,,,0,0,1,,,,,0,,,62,57
84120,note_on,,,,,120,0,1,,,,,0,,,67,0
84150,set_tempo,,,,,80,1,0,,352941,,,,,,,
84180,note_on,,,,,0,0,1,,,,,0,,,59,0
84180,note_on,,,,,60,0,1,,,,,0,,,62,0
84180,note_on,,,,,180,0,2,,,,,0,,,50,0
84190,set_tempo,,,,,40,1,0,,355029,,,,,,,
84230,set_tempo,,,,,40,1,0,,357142,,,,,,,
84240,note_on,,,,,0,0,2,,,,,0,,,60,82
84240,note_on,,,,,0,0,2,,,,,0,,,57,82
84240,note_on,,,,,60,0,2,,,,,0,,,50,82
84240,note_on,,,,,0,0,1,,,,,0,,,66,77
84240,note_on,,,,,60,0,1,,,,,0,,,74,77
84290,set_tempo,,,,,60,1,0,,358208,,,,,,,
84299,note_on,,,,,0,0,1,,,,,0,,,74,0
84299,note_on,,,,,59,0,1,,,,,0,,,66,0
84299,note_on,,,,,0,0,2,,,,,0,,,57,0
84299,note_on,,,,,59,0,2,,,,,0,,,60,0
84299,note_on,,,,,0,0,2,,,,,0,,,50,0
84300,note_on,,,,,0,0,2,,,,,0,,,60,77
84300,note_on,,,,,0,0,2,,,,,0,,,57,77
84300,note_on,,,,,1,0,2,,,,,0,,,50,77
84300,note_on,,,,,1,0,1,,,,,0,,,74,75
84300,note_on,,,,,0,0,1,,,,,0,,,66,75
84359,note_on,,,,,0,0,1,,,,,0,,,74,0
84359,note_on,,,,,59,0,1,,,,,0,,,66,0
84359,note_on,,,,,59,0,2,,,,,0,,,60,0
84359,note_on,,,,,0,0,2,,,,,0,,,57,0
84359,note_on,,,,,0,0,2,,,,,0,,,50,0
84360,note_on,,,,,1,0,1,,,,,0,,,74,71
84360,note_on,,,,,0,0,1,,,,,0,,,66,71
84360,note_on,,,,,0,0,2,,,,,0,,,57,72
84360,note_on,,,,,1,0,2,,,,,0,,,50,72
84360,note_on,,,,,0,0,2,,,,,0,,,60,72
84360,set_tempo,,,,,70,1,0,,361445,,,,,,,
84419,note_on,,,,,0,0,1,,,,,0,,,74,0
84419,note_on,,,,,59,0,2,,,,,0,,,60,0
84419,note_on,,,,,0,0,2,,,,,0,,,57,0
84419,note_on,,,,,0,0,2,,,,,0,,,50,0
84419,note_on,,,,,59,0,1,,,,,0,,,66,0
84420,note_on,,,,,0,0,1,,,,,0,,,66,64
84420,note_on,,,,,1,0,1,,,,,0,,,74,64
84420,note_on,,,,,1,0,2,,,,,0,,,50,64
84420,note_on,,,,,0,0,2,,,,,0,,,57,64
84420,note_on,,,,,0,0,2,,,,,0,,,60,64
84479,note_on,,,,,59,0,1,,,,,0,,,66,0
84479,note_on,,,,,59,0,2,,,,,0,,,60,0
84479,note_on,,,,,0,0,2,,,,,0,,,57,0
84479,note_on,,,,,0,0,2,,,,,0,,,50,0
84479,note_on,,,,,0,0,1,,,,,0,,,74,0
84480,note_on,,,,,0,0,1,,,,,0,,,74,59
84480,note_on,,,,,0,0,2,,,,,0,,,59,60
84480,note_on,,,,,1,0,1,,,,,0,,,67,59
84480,note_on,,,,,1,0,2,,,,,0,,,55,60
84530,set_tempo,,,,,170,1,0,,370370,,,,,,,
84600,note_on,,,,,0,0,1,,,,,0,,,79,53
84600,note_on,,,,,120,0,1,,,,,0,,,74,0
84620,set_tempo,,,,,90,1,0,,372670,,,,,,,
84660,note_on,,,,,60,0,1,,,,,0,,,79,0
84660,note_on,,,,,0,0,2,,,,,0,,,55,0
84660,note_on,,,,,0,0,1,,,,,0,,,67,0
84660,note_on,,,,,180,0,2,,,,,0,,,59,0
84720,note_on,,,,,60,0,2,,,,,0,,,50,50
84720,note_on,,,,,60,0,1,,,,,0,,,60,46
84720,note_on,,,,,0,0,1,,,,,0,,,64,46
84720,set_tempo,,,,,100,1,0,,377358,,,,,,,
84720,note_on,,,,,0,0,1,,,,,0,,,69,46
84779,note_on,,,,,59,0,1,,,,,0,,,69,0
84779,note_on,,,,,0,0,1,,,,,0,,,64,0
84779,note_on,,,,,0,0,1,,,,,0,,,60,0
84779,note_on,,,,,59,0,2,,,,,0,,,50,0
84780,note_on,,,,,1,0,1,,,,,0,,,64,43
84780,note_on,,,,,1,0,2,,,,,0,,,50,48
84780,note_on,,,,,0,0,1,,,,,0,,,69,43
84780,note_on,,,,,0,0,1,,,,,0,,,60,43
84834,note_on,,,,,54,0,1,,,,,0,,,60,0
84834,note_on,,,,,0,0,1,,,,,0,,,69,0
84834,note_on,,,,,0,0,1,,,,,0,,,64,0
84834,note_on,,,,,54,0,2,,,,,0,,,50,0
84840,note_on,,,,,0,0,1,,,,,0,,,60,40
84840,note_on,,,,,6,0,1,,,,,0,,,64,40
84840,note_on,,,,,0,0,1,,,,,0,,,69,40
84840,note_on,,,,,6,0,2,,,,,0,,,50,40
84894,note_on,,,,,54,0,2,,,,,0,,,50,0
84894,note_on,,,,,54,0,1,,,,,0,,,60,0
84894,note_on,,,,,0,0,1,,,,,0,,,69,0
84894,note_on,,,,,0,0,1,,,,,0,,,64,0
84900,note_on,,,,,6,0,1,,,,,0,,,64,36
84900,note_on,,,,,0,0,1,,,,,0,,,69,36
84900,note_on,,,,,0,0,1,,,,,0,,,60,36
84900,note_on,,,,,6,0,2,,,,,0,,,50,36
84954,note_on,,,,,54,0,2,,,,,0,,,50,0
84954,note_on,,,,,54,0,1,,,,,0,,,60,0
84954,note_on,,,,,0,0,1,,,,,0,,,69,0
84954,note_on,,,,,0,0,1,,,,,0,,,64,0
84960,note_on,,,,,6,0,2,,,,,0,,,50,30
84960,note_on,,,,,6,0,1,,,,,0,,,67,32
84960,note_on,,,,,0,0,1,,,,,0,,,59,32
84990,set_tempo,,,,,270,1,0,,379746,,,,,,,
85080,note_on,,,,,0,0,1,,,,,0,,,62,28
85080,note_on,,,,,120,0,1,,,,,0,,,67,0
85140,note_on,,,,,180,0,2,,,,,0,,,50,0
85140,note_on,,,,,0,0,1,,,,,0,,,59,0
85140,note_on,,,,,60,0,1,,,,,0,,,62,0
85170,set_tempo,,,,,180,1,0,,382165,,,,,,,
85200,set_tempo,,,,,30,1,0,,383386,,,,,,,
85200,note_on,,,,,0,0,2,,,,,0,,,57,39
85200,note_on,,,,,60,0,1,,,,,0,,,74,39
85200,note_on,,,,,0,0,1,,,,,0,,,66,39
85200,note_on,,,,,0,0,2,,,,,0,,,60,39
85200,note_on,,,,,60,0,2,,,,,0,,,50,39
85259,note_on,,,,,0,0,1,,,,,0,,,74,0
85259,note_on,,,,,0,0,2,,,,,0,,,50,0
85259,note_on,,,,,0,0,2,,,,,0,,,57,0
85259,note_on,,,,,59,0,2,,,,,0,,,60,0
85259,note_on,,,,,59,0,1,,,,,0,,,66,0
85260,note_on,,,,,1,0,1,,,,,0,,,74,36
85260,note_on,,,,,0,0,1,,,,,0,,,66,36
85260,note_on,,,,,0,0,2,,,,,0,,,60,36
85260,note_on,,,,,0,0,2,,,,,0,,,57,36
85260,note_on,,,,,1,0,2,,,,,0,,,50,36
85310,set_tempo,,,,,110,1,0,,389610,,,,,,,
85319,note_on,,,,,59,0,2,,,,,0,,,60,0
85319,note_on,,,,,0,0,2,,,,,0,,,50,0
85319,note_on,,,,,59,0,1,,,,,0,,,66,0
85319,note_on,,,,,0,0,2,,,,,0,,,57,0
85319,note_on,,,,,0,0,1,,,,,0,,,74,0
85320,set_tempo,,,,,10,1,0,,392156,,,,,,,
85320,note_on,,,,,0,0,2,,,,,0,,,57,34
85320,note_on,,,,,1,0,2,,,,,0,,,50,34
85320,note_on,,,,,1,0,1,,,,,0,,,74,32
85320,note_on,,,,,0,0,1,,,,,0,,,66,32
85320,note_on,,,,,0,0,2,,,,,0,,,60,34
85379,note_on,,,,,59,0,1,,,,,0,,,66,0
85379,note_on,,,,,0,0,2,,,,,0,,,50,0
85379,note_on,,,,,0,0,2,,,,,0,,,57,0
85379,note_on,,,,,59,0,2,,,,,0,,,60,0
85379,note_on,,,,,0,0,1,,,,,0,,,74,0
85380,note_on,,,,,0,0,2,,,,,0,,,60,30
85380,note_on,,,,,0,0,2,,,,,0,,,57,30
85380,note_on,,,,,1,0,2,,,,,0,,,50,30
85380,note_on,,,,,0,0,1,,,,,0,,,66,28
85380,note_on,,,,,1,0,1,,,,,0,,,74,28
85439,note_on,,,,,0,0,2,,,,,0,,,50,0
85439,note_on,,,,,0,0,2,,,,,0,,,57,0
85439,note_on,,,,,59,0,1,,,,,0,,,66,0
85439,note_on,,,,,0,0,1,,,,,0,,,74,0
85439,note_on,,,,,59,0,2,,,,,0,,,60,0
85440,note_on,,,,,0,0,2,,,,,0,,,59,27
85440,note_on,,,,,1,0,2,,,,,0,,,55,27
85440,note_on,,,,,1,0,1,,,,,0,,,74,30
85440,note_on,,,,,0,0,1,,,,,0,,,67,30
85460,set_tempo,,,,,140,1,0,,397350,,,,,,,
85520,set_tempo,,,,,60,1,0,,400000,,,,,,,
85740,note_on,,,,,300,0,1,,,,,0,,,74,0
85740,note_on,,,,,0,0,1,,,,,0,,,76,34
85800,note_on,,,,,60,0,1,,,,,0,,,76,0
85800,note_on,,,,,0,0,1,,,,,0,,,78,41
85860,note_on,,,,,0,0,1,,,,,0,,,79,42
85860,note_on,,,,,60,0,1,,,,,0,,,78,0
85920,note_on,,,,,60,0,1,,,,,0,,,79,0
85920,note_on,,,,,0,0,1,,,,,0,,,79,46
86280,note_on,,,,,360,0,1,,,,,0,,,67,0
86280,note_on,,,,,840,0,2,,,,,0,,,59,0
86280,note_on,,,,,0,0,2,,,,,0,,,55,0
86390,set_tempo,,,,,870,1,0,,408163,,,,,,,
86400,set_tempo,,,,,10,1,0,,410958,,,,,,,
86470,set_tempo,,,,,70,1,0,,436363,,,,,,,
86490,note_on,,,,,210,0,1,,,,,0,,,79,0
86500,set_tempo,,,,,30,1,0,,465116,,,,,,,
86520,note_on,,,,,30,0,1,,,,,0,,,80,42
86530,set_tempo,,,,,30,1,0,,485829,,,,,,,
86570,set_tempo,,,,,40,1,0,,508474,,,,,,,
86610,note_on,,,,,90,0,1,,,,,0,,,80,0
86620,set_tempo,,,,,50,1,0,,530973,,,,,,,
86640,note_on,,,,,30,0,1,,,,,0,,,81,36
86650,set_tempo,,,,,30,1,0,,563380,,,,,,,
86700,set_tempo,,,,,50,1,0,,597014,,,,,,,
86720,set_tempo,,,,,20,1,0,,641711,,,,,,,
86730,note_on,,,,,90,0,1,,,,,0,,,81,0
86760,set_tempo,,,,,40,1,0,,689655,,,,,,,
86760,note_on,,,,,30,0,1,,,,,0,,,82,32
86830,set_tempo,,,,,70,1,0,,983606,,,,,,,
86850,note_on,,,,,90,0,1,,,,,0,,,82,0
86870,set_tempo,,,,,40,1,0,,461538,,,,,,,
86880,note_on,,,,,600,0,2,,,,,0,,,51,43
86880,note_on,,,,,30,0,1,,,,,0,,,82,43
86880,marker,,,,,0,1,0,,,,,,,,,
86880,set_tempo,,,,,0,1,0,,451127,,,,,,,
86880,key_signature,,,,,10,1,0,Eb,,,,,,,,
86880,control_change,,,,,0,0,1,,,,,0,64,95,,
86900,set_tempo,,,,,20,1,0,,431654,,,,,,,
86910,set_tempo,,,,,10,1,0,,418118,,,,,,,
86940,note_on,,,,,60,0,1,,,,,0,,,82,0
86940,note_on,,,,,0,0,1,,,,,0,,,79,31
86940,note_on,,,,,60,0,2,,,,,0,,,51,0
86960,set_tempo,,,,,50,1,0,,379746,,,,,,,
86995,control_change,,,,,55,0,1,,,,,0,64,0,,
87000,note_on,,,,,60,0,2,,,,,0,,,58,33
87000,note_on,,,,,5,0,1,,,,,0,,,79,0
87000,note_on,,,,,0,0,1,,,,,0,,,75,32
87000,note_on,,,,,0,0,2,,,,,0,,,67,33
87000,set_tempo,,,,,40,1,0,,378548,,,,,,,
87010,set_tempo,,,,,10,1,0,,375000,,,,,,,
87045,note_on,,,,,45,0,2,,,,,0,,,67,0
87045,note_on,,,,,0,0,2,,,,,0,,,58,0
87052,note_on,,,,,52,0,1,,,,,0,,,75,0
87060,note_on,,,,,15,0,2,,,,,0,,,58,37
87060,note_on,,,,,0,0,2,,,,,0,,,67,37
87060,note_on,,,,,8,0,1,,,,,0,,,70,35
87070,set_tempo,,,,,60,1,0,,370370,,,,,,,
87105,note_on,,,,,0,0,2,,,,,0,,,58,0
87105,note_on,,,,,45,0,2,,,,,0,,,67,0
87105,note_on,,,,,45,0,1,,,,,0,,,70,0
87120,note_on,,,,,0,0,2,,,,,0,,,67,40
87120,note_on,,,,,15,0,2,,,,,0,,,58,40
87120,note_on,,,,,15,0,1,,,,,0,,,70,38
87150,set_tempo,,,,,80,1,0,,365853,,,,,,,
87180,note_on,,,,,0,0,1,,,,,0,,,72,41
87180,note_on,,,,,60,0,1,,,,,0,,,70,0
87210,note_on,,,,,0,0,2,,,,,0,,,58,0
87210,note_on,,,,,90,0,2,,,,,0,,,67,0
87220,set_tempo,,,,,70,1,0,,361445,,,,,,,
87240,note_on,,,,,0,0,1,,,,,0,,,69,44
87240,note_on,,,,,60,0,1,,,,,0,,,72,0
87240,control_change,,,,,0,0,1,,,,,0,64,95,,
87240,note_on,,,,,30,0,2,,,,,0,,,58,41
87240,note_on,,,,,0,0,2,,,,,0,,,66,41
87294,note_on,,,,,54,0,1,,,,,0,,,69,0
87300,note_on,,,,,6,0,1,,,,,0,,,72,45
87354,note_on,,,,,54,0,1,,,,,0,,,72,0
87360,note_on,,,,,120,0,2,,,,,0,,,66,0
87360,note_on,,,,,0,0,2,,,,,0,,,67,35
87360,control_change,,,,,0,0,1,,,,,0,64,0,,
87360,note_on,,,,,6,0,1,,,,,0,,,70,45
87405,note_on,,,,,45,0,1,,,,,0,,,70,0
87405,note_on,,,,,0,0,2,,,,,0,,,58,0
87405,note_on,,,,,45,0,2,,,,,0,,,67,0
87420,note_on,,,,,15,0,1,,,,,0,,,67,38
87480,note_on,,,,,0,0,1,,,,,0,,,70,40
87480,note_on,,,,,60,0,1,,,,,0,,,67,0
87480,note_on,,,,,75,0,2,,,,,0,,,55,40
87480,control_change,,,,,0,0,1,,,,,0,64,95,,
87540,note_on,,,,,0,0,1,,,,,0,,,75,45
87540,note_on,,,,,60,0,1,,,,,0,,,70,0
87540,note_on,,,,,0,0,2,,,,,0,,,58,45
87540,note_on,,,,,60,0,2,,,,,0,,,55,0
87600,note_on,,,,,0,0,2,,,,,0,,,63,49
87600,note_on,,,,,60,0,2,,,,,0,,,58,0
87600,note_on,,,,,60,0,1,,,,,0,,,75,0
87600,note_on,,,,,0,0,1,,,,,0,,,79,49
87600,control_change,,,,,0,0,1,,,,,0,64,0,,
87660,note_on,,,,,60,0,1,,,,,0,,,79,0
87660,note_on,,,,,0,0,1,,,,,0,,,75,45
87660,note_on,,,,,60,0,2,,,,,0,,,63,0
87680,set_tempo,,,,,460,1,0,,365853,,,,,,,
87690,set_tempo,,,,,10,1,0,,371517,,,,,,,
87710,set_tempo,,,,,20,1,0,,372670,,,,,,,
87720,note_on,,,,,60,0,1,,,,,0,,,75,0
87720,note_on,,,,,0,0,1,,,,,0,,,70,40
87773,note_on,,,,,53,0,1,,,,,0,,,70,0
87780,note_on,,,,,7,0,1,,,,,0,,,67,37
87800,set_tempo,,,,,90,1,0,,379746,,,,,,,
87825,note_on,,,,,45,0,1,,,,,0,,,67,0
87830,set_tempo,,,,,30,1,0,,375000,,,,,,,
87840,note_on,,,,,180,0,2,,,,,0,,,46,43
87840,note_on,,,,,0,0,1,,,,,0,,,68,39
87840,note_on,,,,,0,0,1,,,,,0,,,70,39
87840,control_change,,,,,0,0,1,,,,,0,64,96,,
87840,note_on,,,,,15,0,1,,,,,0,,,65,39
87860,set_tempo,,,,,30,1,0,,370370,,,,,,,
87870,set_tempo,,,,,10,1,0,,368098,,,,,,,
87890,set_tempo,,,,,20,1,0,,362537,,,,,,,
87892,note_on,,,,,52,0,2,,,,,0,,,46,0
87900,note_on,,,,,8,0,2,,,,,0,,,50,36
87930,note_on,,,,,0,0,1,,,,,0,,,65,0
87930,note_on,,,,,0,0,1,,,,,0,,,68,0
87930,note_on,,,,,90,0,1,,,,,0,,,70,0
87940,set_tempo,,,,,50,1,0,,358208,,,,,,,
87952,note_on,,,,,52,0,2,,,,,0,,,50,0
87960,note_on,,,,,8,0,2,,,,,0,,,53,41
87960,control_change,,,,,0,0,1,,,,,0,64,0,,
87960,note_on,,,,,0,0,1,,,,,0,,,70,42
87960,note_on,,,,,0,0,1,,,,,0,,,68,42
87960,note_on,,,,,30,0,1,,,,,0,,,65,42
87990,set_tempo,,,,,50,1,0,,356083,,,,,,,
88005,note_on,,,,,45,0,1,,,,,0,,,70,0
88005,note_on,,,,,0,0,1,,,,,0,,,68,0
88005,note_on,,,,,0,0,1,,,,,0,,,65,0
88012,note_on,,,,,52,0,2,,,,,0,,,53,0
88020,note_on,,,,,0,0,1,,,,,0,,,68,46
88020,note_on,,,,,0,0,1,,,,,0,,,70,46
88020,note_on,,,,,8,0,2,,,,,0,,,58,47
88020,note_on,,,,,15,0,1,,,,,0,,,65,46
88050,set_tempo,,,,,60,1,0,,353982,,,,,,,
88065,note_on,,,,,0,0,1,,,,,0,,,65,0
88065,note_on,,,,,45,0,1,,,,,0,,,70,0
88065,note_on,,,,,0,0,1,,,,,0,,,68,0
88072,note_on,,,,,52,0,2,,,,,0,,,58,0
88080,note_on,,,,,15,0,1,,,,,0,,,65,50
88080,note_on,,,,,0,0,1,,,,,0,,,68,50
88080,note_on,,,,,0,0,1,,,,,0,,,72,50
88080,control_change,,,,,0,0,1,,,,,0,64,96,,
88080,note_on,,,,,8,0,2,,,,,0,,,62,49
88140,set_tempo,,,,,90,1,0,,352941,,,,,,,
88140,note_on,,,,,0,0,2,,,,,0,,,58,41
88140,note_on,,,,,60,0,2,,,,,0,,,62,0
88170,note_on,,,,,90,0,1,,,,,0,,,72,0
88170,note_on,,,,,0,0,1,,,,,0,,,65,0
88170,note_on,,,,,0,0,1,,,,,0,,,68,0
88192,note_on,,,,,52,0,2,,,,,0,,,58,0
88195,control_change,,,,,25,0,1,,,,,0,64,0,,
88200,note_on,,,,,0,0,1,,,,,0,,,70,37
88200,note_on,,,,,8,0,2,,,,,0,,,62,39
88200,note_on,,,,,5,0,1,,,,,0,,,65,37
88200,control_change,,,,,0,0,1,,,,,0,64,96,,
88200,note_on,,,,,0,0,1,,,,,0,,,68,37
88260,note_on,,,,,0,0,2,,,,,0,,,58,36
88260,note_on,,,,,60,0,2,,,,,0,,,62,0
88290,note_on,,,,,0,0,1,,,,,0,,,68,0
88290,note_on,,,,,0,0,1,,,,,0,,,65,0
88290,note_on,,,,,90,0,1,,,,,0,,,70,0
88300,set_tempo,,,,,160,1,0,,355029,,,,,,,
88312,note_on,,,,,52,0,2,,,,,0,,,58,0
88315,control_change,,,,,25,0,1,,,,,0,64,0,,
88320,note_on,,,,,8,0,2,,,,,0,,,63,44
88320,control_change,,,,,0,0,1,,,,,0,64,95,,
88320,note_on,,,,,0,0,1,,,,,0,,,70,49
88320,note_on,,,,,5,0,1,,,,,0,,,67,49
88330,set_tempo,,,,,30,1,0,,357142,,,,,,,
88370,set_tempo,,,,,40,1,0,,362537,,,,,,,
88380,note_on,,,,,0,0,1,,,,,0,,,75,42
88380,note_on,,,,,0,0,1,,,,,0,,,67,0
88380,note_on,,,,,60,0,2,,,,,0,,,63,0
88380,note_on,,,,,60,0,1,,,,,0,,,70,0
88410,control_change,,,,,30,0,1,,,,,0,64,0,,
88420,set_tempo,,,,,50,1,0,,366972,,,,,,,
88440,control_change,,,,,0,0,1,,,,,0,64,94,,
88440,note_on,,,,,0,0,1,,,,,0,,,74,39
88440,note_on,,,,,30,0,1,,,,,0,,,75,0
88440,set_tempo,,,,,20,1,0,,368098,,,,,,,
88440,note_on,,,,,60,0,2,,,,,0,,,51,37
88440,note_on,,,,,0,0,2,,,,,0,,,56,37
88490,set_tempo,,,,,50,1,0,,371517,,,,,,,
88500,note_on,,,,,60,0,2,,,,,0,,,56,0
88500,note_on,,,,,0,0,2,,,,,0,,,60,40
88500,note_on,,,,,60,0,1,,,,,0,,,74,0
88500,note_on,,,,,0,0,1,,,,,0,,,72,37
88550,set_tempo,,,,,60,1,0,,378548,,,,,,,
88560,note_on,,,,,0,0,1,,,,,0,,,70,35
88560,note_on,,,,,0,0,2,,,,,0,,,63,45
88560,note_on,,,,,60,0,1,,,,,0,,,72,0
88560,note_on,,,,,60,0,2,,,,,0,,,60,0
88560,control_change,,,,,0,0,1,,,,,0,64,0,,
88580,set_tempo,,,,,30,1,0,,385852,,,,,,,
88605,note_on,,,,,45,0,1,,,,,0,,,70,0
88605,note_on,,,,,45,0,2,,,,,0,,,63,0
88605,note_on,,,,,0,0,2,,,,,0,,,51,0
88620,note_on,,,,,15,0,1,,,,,0,,,70,37
88680,note_on,,,,,60,0,1,,,,,0,,,70,0
88680,note_on,,,,,0,0,1,,,,,0,,,75,44
88710,set_tempo,,,,,130,1,0,,380952,,,,,,,
88720,set_tempo,,,,,10,1,0,,379746,,,,,,,
88732,note_on,,,,,52,0,1,,,,,0,,,75,0
88740,note_on,,,,,8,0,1,,,,,0,,,79,49
88760,set_tempo,,,,,40,1,0,,376175,,,,,,,
88785,note_on,,,,,45,0,1,,,,,0,,,79,0
88800,set_tempo,,,,,40,1,0,,369230,,,,,,,
88800,note_on,,,,,195,0,2,,,,,0,,,51,43
88800,control_change,,,,,0,0,1,,,,,0,64,95,,
88800,note_on,,,,,15,0,1,,,,,0,,,82,43
88860,note_on,,,,,60,0,1,,,,,0,,,82,0
88860,note_on,,,,,0,0,1,,,,,0,,,79,31
88860,note_on,,,,,60,0,2,,,,,0,,,51,0
88915,control_change,,,,,55,0,1,,,,,0,64,0,,
88920,note_on,,,,,60,0,2,,,,,0,,,58,33
88920,note_on,,,,,0,0,2,,,,,0,,,67,33
88920,note_on,,,,,5,0,1,,,,,0,,,79,0
88920,note_on,,,,,0,0,1,,,,,0,,,75,32
88965,note_on,,,,,45,0,2,,,,,0,,,67,0
88965,note_on,,,,,0,0,2,,,,,0,,,58,0
88972,note_on,,,,,52,0,1,,,,,0,,,75,0
88980,note_on,,,,,8,0,1,,,,,0,,,70,35
88980,note_on,,,,,15,0,2,,,,,0,,,58,37
88980,note_on,,,,,0,0,2,,,,,0,,,67,37
89025,note_on,,,,,45,0,2,,,,,0,,,67,0
89025,note_on,,,,,0,0,2,,,,,0,,,58,0
89025,note_on,,,,,45,0,1,,,,,0,,,70,0
89040,note_on,,,,,15,0,2,,,,,0,,,58,40
89040,note_on,,,,,15,0,1,,,,,0,,,70,38
89040,note_on,,,,,0,0,2,,,,,0,,,67,40
89100,note_on,,,,,60,0,1,,,,,0,,,70,0
89100,note_on,,,,,0,0,1,,,,,0,,,72,41
89110,set_tempo,,,,,310,1,0,,362537,,,,,,,
89130,note_on,,,,,90,0,2,,,,,0,,,67,0
89130,note_on,,,,,0,0,2,,,,,0,,,58,0
89160,note_on,,,,,30,0,2,,,,,0,,,58,41
89160,note_on,,,,,0,0,2,,,,,0,,,66,41
89160,control_change,,,,,0,0,1,,,,,0,64,95,,
89160,note_on,,,,,60,0,1,,,,,0,,,72,0
89160,note_on,,,,,0,0,1,,,,,0,,,69,44
89214,note_on,,,,,54,0,1,,,,,0,,,69,0
89220,note_on,,,,,6,0,1,,,,,0,,,72,45
89230,set_tempo,,,,,120,1,0,,359281,,,,,,,
89274,note_on,,,,,54,0,1,,,,,0,,,72,0
89280,note_on,,,,,120,0,2,,,,,0,,,66,0
89280,control_change,,,,,0,0,1,,,,,0,64,0,,
89280,note_on,,,,,6,0,1,,,,,0,,,70,45
89280,note_on,,,,,0,0,2,,,,,0,,,67,35
89325,note_on,,,,,45,0,1,,,,,0,,,70,0
89325,note_on,,,,,0,0,2,,,,,0,,,58,0
89325,note_on,,,,,45,0,2,,,,,0,,,67,0
89340,note_on,,,,,15,0,1,,,,,0,,,67,38
89400,note_on,,,,,75,0,2,,,,,0,,,55,40
89400,note_on,,,,,60,0,1,,,,,0,,,67,0
89400,control_change,,,,,0,0,1,,,,,0,64,95,,
89400,note_on,,,,,0,0,1,,,,,0,,,70,40
89460,note_on,,,,,0,0,1,,,,,0,,,75,45
89460,note_on,,,,,60,0,1,,,,,0,,,70,0
89460,note_on,,,,,60,0,2,,,,,0,,,55,0
89460,note_on,,,,,0,0,2,,,,,0,,,58,45
89510,set_tempo,,,,,280,1,0,,363636,,,,,,,
89520,note_on,,,,,60,0,2,,,,,0,,,58,0
89520,note_on,,,,,0,0,2,,,,,0,,,63,49
89520,control_change,,,,,0,0,1,,,,,0,64,0,,
89520,note_on,,,,,0,0,1,,,,,0,,,79,49
89520,note_on,,,,,60,0,1,,,,,0,,,75,0
89570,set_tempo,,,,,60,1,0,,368098,,,,,,,
89580,note_on,,,,,60,0,2,,,,,0,,,63,0
89580,note_on,,,,,60,0,1,,,,,0,,,79,0
89580,note_on,,,,,0,0,1,,,,,0,,,75,45
89640,note_on,,,,,60,0,1,,,,,0,,,75,0
89640,note_on,,,,,0,0,1,,,,,0,,,70,40
89640,set_tempo,,,,,70,1,0,,372670,,,,,,,
89693,note_on,,,,,53,0,1,,,,,0,,,70,0
89700,note_on,,,,,7,0,1,,,,,0,,,67,37
89720,set_tempo,,,,,80,1,0,,380952,,,,,,,
89745,note_on,,,,,45,0,1,,,,,0,,,67,0
89750,set_tempo,,,,,30,1,0,,371517,,,,,,,
89760,note_on,,,,,0,0,1,,,,,0,,,75,39
89760,note_on,,,,,15,0,1,,,,,0,,,72,39
89760,note_on,,,,,0,0,1,,,,,0,,,77,39
89760,control_change,,,,,0,0,1,,,,,0,64,96,,
89760,note_on,,,,,180,0,2,,,,,0,,,53,43
89780,set_tempo,,,,,30,1,0,,365853,,,,,,,
89812,note_on,,,,,52,0,2,,,,,0,,,53,0
89820,set_tempo,,,,,40,1,0,,361445,,,,,,,
89820,note_on,,,,,8,0,2,,,,,0,,,57,36
89830,set_tempo,,,,,10,1,0,,360360,,,,,,,
89850,note_on,,,,,0,0,1,,,,,0,,,72,0
89850,note_on,,,,,0,0,1,,,,,0,,,75,0
89850,note_on,,,,,90,0,1,,,,,0,,,77,0
89872,note_on,,,,,52,0,2,,,,,0,,,57,0
89880,note_on,,,,,8,0,2,,,,,0,,,60,41
89880,control_change,,,,,0,0,1,,,,,0,64,0,,
89880,note_on,,,,,0,0,1,,,,,0,,,77,42
89880,note_on,,,,,0,0,1,,,,,0,,,75,42
89880,note_on,,,,,30,0,1,,,,,0,,,72,42
89925,note_on,,,,,0,0,1,,,,,0,,,75,0
89925,note_on,,,,,0,0,1,,,,,0,,,72,0
89925,note_on,,,,,45,0,1,,,,,0,,,77,0
89932,note_on,,,,,52,0,2,,,,,0,,,60,0
89940,note_on,,,,,0,0,1,,,,,0,,,75,46
89940,set_tempo,,,,,110,1,0,,357142,,,,,,,
89940,note_on,,,,,8,0,2,,,,,0,,,65,47
89940,note_on,,,,,15,0,1,,,,,0,,,72,46
89940,note_on,,,,,0,0,1,,,,,0,,,77,46
89970,set_tempo,,,,,30,1,0,,355029,,,,,,,
89985,note_on,,,,,45,0,1,,,,,0,,,77,0
89985,note_on,,,,,0,0,1,,,,,0,,,75,0
89985,note_on,,,,,0,0,1,,,,,0,,,72,0
89992,note_on,,,,,52,0,2,,,,,0,,,65,0
90000,note_on,,,,,0,0,1,,,,,0,,,79,50
90000,control_change,,,,,0,0,1,,,,,0,64,96,,
90000,note_on,,,,,15,0,1,,,,,0,,,72,50
90000,note_on,,,,,0,0,1,,,,,0,,,75,50
90000,note_on,,,,,8,0,2,,,,,0,,,69,49
90060,set_tempo,,,,,90,1,0,,352941,,,,,,,
90060,note_on,,,,,60,0,2,,,,,0,,,69,0
90060,note_on,,,,,0,0,2,,,,,0,,,65,41
90090,note_on,,,,,0,0,1,,,,,0,,,75,0
90090,note_on,,,,,90,0,1,,,,,0,,,79,0
90090,note_on,,,,,0,0,1,,,,,0,,,72,0
90112,note_on,,,,,52,0,2,,,,,0,,,65,0
90115,control_change,,,,,25,0,1,,,,,0,64,0,,
90120,note_on,,,,,8,0,2,,,,,0,,,69,39
90120,control_change,,,,,0,0,1,,,,,0,64,96,,
90120,note_on,,,,,0,0,1,,,,,0,,,77,43
90120,note_on,,,,,0,0,1,,,,,0,,,75,43
90120,note_on,,,,,5,0,1,,,,,0,,,72,43
90180,note_on,,,,,0,0,2,,,,,0,,,65,41
90180,note_on,,,,,60,0,2,,,,,0,,,69,0
90210,note_on,,,,,90,0,1,,,,,0,,,77,0
90210,note_on,,,,,0,0,1,,,,,0,,,75,0
90210,note_on,,,,,0,0,1,,,,,0,,,72,0
90232,note_on,,,,,52,0,2,,,,,0,,,65,0
90240,control_change,,,,,0,0,1,,,,,0,64,96,,
90240,note_on,,,,,0,0,1,,,,,0,,,77,48
90240,note_on,,,,,30,0,1,,,,,0,,,74,48
90240,note_on,,,,,8,0,2,,,,,0,,,53,44
90292,note_on,,,,,52,0,2,,,,,0,,,53,0
90300,note_on,,,,,8,0,2,,,,,0,,,58,47
90330,note_on,,,,,0,0,1,,,,,0,,,74,0
90330,note_on,,,,,90,0,1,,,,,0,,,77,0
90352,note_on,,,,,52,0,2,,,,,0,,,58,0
90360,control_change,,,,,0,0,1,,,,,0,64,0,,
90360,note_on,,,,,30,0,1,,,,,0,,,74,56
90360,note_on,,,,,0,0,1,,,,,0,,,77,56
90360,note_on,,,,,8,0,2,,,,,0,,,62,50
90405,note_on,,,,,45,0,1,,,,,0,,,77,0
90405,note_on,,,,,0,0,1,,,,,0,,,74,0
90412,note_on,,,,,52,0,2,,,,,0,,,62,0
90420,note_on,,,,,8,0,2,,,,,0,,,65,55
90420,note_on,,,,,15,0,1,,,,,0,,,74,59
90420,note_on,,,,,0,0,1,,,,,0,,,77,59
90465,note_on,,,,,45,0,1,,,,,0,,,77,0
90465,note_on,,,,,0,0,1,,,,,0,,,74,0
90472,note_on,,,,,52,0,2,,,,,0,,,65,0
90480,control_change,,,,,0,0,1,,,,,0,64,96,,
90480,note_on,,,,,8,0,2,,,,,0,,,70,57
90480,note_on,,,,,0,0,1,,,,,0,,,86,60
90480,note_on,,,,,15,0,1,,,,,0,,,74,60
90480,note_on,,,,,0,0,1,,,,,0,,,77,60
90500,set_tempo,,,,,440,1,0,,359281,,,,,,,
90540,note_on,,,,,0,0,2,,,,,0,,,65,56
90540,note_on,,,,,60,0,2,,,,,0,,,70,0
90540,set_tempo,,,,,40,1,0,,368098,,,,,,,
90570,note_on,,,,,0,0,1,,,,,0,,,74,0
90570,note_on,,,,,0,0,1,,,,,0,,,77,0
90570,note_on,,,,,90,0,1,,,,,0,,,86,0
90592,note_on,,,,,52,0,2,,,,,0,,,65,0
90595,control_change,,,,,25,0,1,,,,,0,64,0,,
90600,note_on,,,,,8,0,2,,,,,0,,,70,51
90600,set_tempo,,,,,60,1,0,,370370,,,,,,,
90600,control_change,,,,,0,0,1,,,,,0,64,96,,
90600,note_on,,,,,0,0,1,,,,,0,,,77,50
90600,note_on,,,,,5,0,1,,,,,0,,,74,50
90640,set_tempo,,,,,40,1,0,,376175,,,,,,,
90660,note_on,,,,,60,0,2,,,,,0,,,70,0
90660,note_on,,,,,0,0,2,,,,,0,,,65,44
90690,note_on,,,,,90,0,1,,,,,0,,,77,0
90690,note_on,,,,,0,0,1,,,,,0,,,74,0
90712,note_on,,,,,52,0,2,,,,,0,,,65,0
90720,note_on,,,,,30,0,1,,,,,0,,,74,39
90720,note_on,,,,,8,0,2,,,,,0,,,53,43
90720,set_tempo,,,,,80,1,0,,375000,,,,,,,
90720,note_on,,,,,0,0,1,,,,,0,,,77,39
90720,note_on,,,,,0,0,1,,,,,0,,,79,39
90720,control_change,,,,,0,0,1,,,,,0,64,96,,
90740,set_tempo,,,,,20,1,0,,366972,,,,,,,
90772,note_on,,,,,52,0,2,,,,,0,,,53,0
90780,note_on,,,,,8,0,2,,,,,0,,,59,36
90790,set_tempo,,,,,50,1,0,,360360,,,,,,,
90810,note_on,,,,,0,0,1,,,,,0,,,74,0
90810,note_on,,,,,0,0,1,,,,,0,,,77,0
90810,note_on,,,,,90,0,1,,,,,0,,,79,0
90832,note_on,,,,,52,0,2,,,,,0,,,59,0
90840,note_on,,,,,8,0,2,,,,,0,,,62,41
90840,control_change,,,,,0,0,1,,,,,0,64,0,,
90840,note_on,,,,,0,0,1,,,,,0,,,79,42
90840,note_on,,,,,30,0,1,,,,,0,,,74,42
90840,note_on,,,,,0,0,1,,,,,0,,,77,42
90870,set_tempo,,,,,80,1,0,,356083,,,,,,,
90885,note_on,,,,,0,0,1,,,,,0,,,74,0
90885,note_on,,,,,0,0,1,,,,,0,,,77,0
90885,note_on,,,,,45,0,1,,,,,0,,,79,0
90892,note_on,,,,,52,0,2,,,,,0,,,62,0
90900,note_on,,,,,0,0,1,,,,,0,,,79,46
90900,note_on,,,,,0,0,1,,,,,0,,,77,46
90900,note_on,,,,,8,0,2,,,,,0,,,67,47
90900,note_on,,,,,15,0,1,,,,,0,,,74,46
90945,note_on,,,,,45,0,1,,,,,0,,,79,0
90945,note_on,,,,,0,0,1,,,,,0,,,74,0
90945,note_on,,,,,0,0,1,,,,,0,,,77,0
90950,set_tempo,,,,,80,1,0,,351906,,,,,,,
90952,note_on,,,,,52,0,2,,,,,0,,,67,0
90960,note_on,,,,,0,0,1,,,,,0,,,77,50
90960,note_on,,,,,15,0,1,,,,,0,,,80,50
90960,note_on,,,,,0,0,1,,,,,0,,,74,50
90960,control_change,,,,,0,0,1,,,,,0,64,96,,
90960,note_on,,,,,8,0,2,,,,,0,,,71,49
90970,set_tempo,,,,,20,1,0,,350877,,,,,,,
91010,set_tempo,,,,,40,1,0,,349854,,,,,,,
91020,note_on,,,,,0,0,2,,,,,0,,,67,41
91020,note_on,,,,,60,0,2,,,,,0,,,71,0
91050,note_on,,,,,0,0,1,,,,,0,,,80,0
91050,note_on,,,,,90,0,1,,,,,0,,,77,0
91050,note_on,,,,,0,0,1,,,,,0,,,74,0
91072,note_on,,,,,52,0,2,,,,,0,,,67,0
91075,control_change,,,,,25,0,1,,,,,0,64,0,,
91080,note_on,,,,,8,0,2,,,,,0,,,71,39
91080,note_on,,,,,5,0,1,,,,,0,,,74,43
91080,note_on,,,,,0,0,1,,,,,0,,,77,43
91080,note_on,,,,,0,0,1,,,,,0,,,79,43
91080,control_change,,,,,0,0,1,,,,,0,64,96,,
91140,note_on,,,,,60,0,2,,,,,0,,,71,0
91140,note_on,,,,,0,0,2,,,,,0,,,67,41
91170,note_on,,,,,90,0,1,,,,,0,,,79,0
91170,note_on,,,,,0,0,1,,,,,0,,,77,0
91170,note_on,,,,,0,0,1,,,,,0,,,74,0
91192,note_on,,,,,52,0,2,,,,,0,,,67,0
91200,note_on,,,,,0,0,1,,,,,0,,,79,48
91200,note_on,,,,,8,0,2,,,,,0,,,53,44
91200,control_change,,,,,0,0,1,,,,,0,64,96,,
91200,note_on,,,,,30,0,1,,,,,0,,,75,48
91252,note_on,,,,,52,0,2,,,,,0,,,53,0
91260,note_on,,,,,8,0,2,,,,,0,,,60,47
91290,note_on,,,,,0,0,1,,,,,0,,,75,0
91290,note_on,,,,,90,0,1,,,,,0,,,79,0
91312,note_on,,,,,52,0,2,,,,,0,,,60,0
91320,note_on,,,,,30,0,1,,,,,0,,,75,56
91320,note_on,,,,,8,0,2,,,,,0,,,63,50
91320,note_on,,,,,0,0,1,,,,,0,,,79,56
91320,control_change,,,,,0,0,1,,,,,0,64,0,,
91365,note_on,,,,,0,0,1,,,,,0,,,75,0
91365,note_on,,,,,45,0,1,,,,,0,,,79,0
91372,note_on,,,,,52,0,2,,,,,0,,,63,0
91380,note_on,,,,,0,0,1,,,,,0,,,79,59
91380,note_on,,,,,8,0,2,,,,,0,,,67,55
91380,note_on,,,,,15,0,1,,,,,0,,,75,59
91425,note_on,,,,,45,0,1,,,,,0,,,79,0
91425,note_on,,,,,0,0,1,,,,,0,,,75,0
91432,note_on,,,,,52,0,2,,,,,0,,,67,0
91440,note_on,,,,,0,0,1,,,,,0,,,87,60
91440,note_on,,,,,0,0,1,,,,,0,,,79,60
91440,control_change,,,,,0,0,1,,,,,0,64,96,,
91440,note_on,,,,,8,0,2,,,,,0,,,72,57
91440,note_on,,,,,15,0,1,,,,,0,,,75,60
91440,set_tempo,,,,,430,1,0,,358208,,,,,,,
91460,set_tempo,,,,,20,1,0,,368098,,,,,,,
91490,set_tempo,,,,,30,1,0,,383386,,,,,,,
91500,note_on,,,,,0,0,2,,,,,0,,,67,56
91500,note_on,,,,,60,0,2,,,,,0,,,72,0
91520,set_tempo,,,,,30,1,0,,390879,,,,,,,
91530,note_on,,,,,90,0,1,,,,,0,,,87,0
91530,note_on,,,,,0,0,1,,,,,0,,,79,0
91530,note_on,,,,,0,0,1,,,,,0,,,75,0
91552,note_on,,,,,52,0,2,,,,,0,,,67,0
91555,control_change,,,,,25,0,1,,,,,0,64,0,,
91560,set_tempo,,,,,40,1,0,,397350,,,,,,,
91560,control_change,,,,,0,0,1,,,,,0,64,96,,
91560,note_on,,,,,0,0,1,,,,,0,,,79,50
91560,note_on,,,,,5,0,1,,,,,0,,,75,50
91560,note_on,,,,,8,0,2,,,,,0,,,72,51
91600,set_tempo,,,,,40,1,0,,571428,,,,,,,
91610,set_tempo,,,,,10,1,0,,594059,,,,,,,
91620,set_tempo,,,,,10,1,0,,612244,,,,,,,
91620,note_on,,,,,0,0,2,,,,,0,,,67,44
91620,note_on,,,,,60,0,2,,,,,0,,,72,0
91630,set_tempo,,,,,10,1,0,,612244,,,,,,,
91650,note_on,,,,,0,0,1,,,,,0,,,81,76
91650,note_on,,,,,0,0,1,,,,,0,,,75,0
91650,note_on,,,,,90,0,1,,,,,0,,,79,0
91660,note_on,,,,,10,0,1,,,,,0,,,81,0
91660,note_on,,,,,0,0,1,,,,,0,,,84,83
91660,note_on,,,,,40,0,2,,,,,0,,,67,0
91670,note_on,,,,,10,0,1,,,,,0,,,84,0
91670,note_on,,,,,0,0,1,,,,,0,,,87,92
91680,note_on,,,,,20,0,2,,,,,0,,,53,88
91680,note_on,,,,,0,0,1,,,,,0,,,91,92
91680,set_tempo,,,,,50,1,0,,361445,,,,,,,
91680,control_change,,,,,0,0,1,,,,,0,64,96,,
91680,note_on,,,,,10,0,1,,,,,0,,,87,0
91710,set_tempo,,,,,30,1,0,,361445,,,,,,,
91740,note_on,,,,,0,0,1,,,,,0,,,89,77
91740,note_on,,,,,60,0,1,,,,,0,,,91,0
91740,set_tempo,,,,,30,1,0,,368098,,,,,,,
91750,set_tempo,,,,,10,1,0,,369230,,,,,,,
91770,note_on,,,,,90,0,2,,,,,0,,,53,0
91795,control_change,,,,,55,0,1,,,,,0,64,0,,
91800,control_change,,,,,0,0,1,,,,,0,64,95,,
91800,note_on,,,,,5,0,1,,,,,0,,,89,0
91800,note_on,,,,,0,0,1,,,,,0,,,87,70
91800,note_on,,,,,30,0,2,,,,,0,,,75,75
91800,note_on,,,,,0,0,2,,,,,0,,,72,75
91800,note_on,,,,,0,0,2,,,,,0,,,69,75
91800,note_on,,,,,0,0,2,,,,,0,,,65,75
91840,set_tempo,,,,,90,1,0,,373831,,,,,,,
91860,note_on,,,,,60,0,1,,,,,0,,,87,0
91860,note_on,,,,,0,0,1,,,,,0,,,86,64
91920,set_tempo,,,,,80,1,0,,380952,,,,,,,
91920,note_on,,,,,0,0,1,,,,,0,,,84,59
91920,note_on,,,,,60,0,1,,,,,0,,,86,0
91980,note_on,,,,,60,0,1,,,,,0,,,84,0
91980,note_on,,,,,0,0,1,,,,,0,,,82,54
92040,note_on,,,,,60,0,1,,,,,0,,,82,0
92040,note_on,,,,,0,0,1,,,,,0,,,81,49
92050,set_tempo,,,,,130,1,0,,385852,,,,,,,
92100,note_on,,,,,0,0,1,,,,,0,,,79,47
92100,note_on,,,,,60,0,1,,,,,0,,,81,0
92120,set_tempo,,,,,70,1,0,,389610,,,,,,,
92160,note_on,,,,,360,0,2,,,,,0,,,65,0
92160,note_on,,,,,0,0,2,,,,,0,,,69,0
92160,note_on,,,,,0,0,2,,,,,0,,,75,0
92160,note_on,,,,,0,0,2,,,,,0,,,72,0
92160,note_on,,,,,0,0,1,,,,,0,,,77,44
92160,note_on,,,,,60,0,1,,,,,0,,,79,0
92165,control_change,,,,,5,0,1,,,,,0,64,0,,
92180,set_tempo,,,,,60,1,0,,392156,,,,,,,
92220,note_on,,,,,55,0,1,,,,,0,,,77,0
92220,note_on,,,,,0,0,1,,,,,0,,,76,51
92280,note_on,,,,,60,0,1,,,,,0,,,76,0
92280,note_on,,,,,0,0,1,,,,,0,,,77,57
92340,note_on,,,,,60,0,1,,,,,0,,,77,0
92340,set_tempo,,,,,160,1,0,,387096,,,,,,,
92340,note_on,,,,,0,0,1,,,,,0,,,76,65
92350,set_tempo,,,,,10,1,0,,380952,,,,,,,
92400,note_on,,,,,60,0,1,,,,,0,,,76,0
92400,note_on,,,,,0,0,1,,,,,0,,,77,69
92420,set_tempo,,,,,70,1,0,,372670,,,,,,,
92460,note_on,,,,,60,0,1,,,,,0,,,77,0
92460,note_on,,,,,0,0,1,,,,,0,,,76,75
92460,set_tempo,,,,,40,1,0,,368098,,,,,,,
92490,set_tempo,,,,,30,1,0,,363636,,,,,,,
92520,set_tempo,,,,,30,1,0,,358208,,,,,,,
92520,note_on,,,,,60,0,1,,,,,0,,,76,0
92520,note_on,,,,,0,0,1,,,,,0,,,77,78
92580,note_on,,,,,60,0,1,,,,,0,,,77,0
92580,note_on,,,,,0,0,1,,,,,0,,,79,81
92580,set_tempo,,,,,60,1,0,,357142,,,,,,,
92600,set_tempo,,,,,20,1,0,,600000,,,,,,,
92610,note_on,,,,,30,0,1,,,,,0,,,74,76
92620,note_on,,,,,0,0,1,,,,,0,,,77,83
92620,note_on,,,,,10,0,1,,,,,0,,,74,0
92630,set_tempo,,,,,30,1,0,,350877,,,,,,,
92630,note_on,,,,,0,0,1,,,,,0,,,80,92
92630,note_on,,,,,10,0,1,,,,,0,,,77,0
92640,set_tempo,,,,,10,1,0,,350877,,,,,,,
92640,control_change,,,,,0,0,1,,,,,0,64,96,,
92640,note_on,,,,,0,0,1,,,,,0,,,84,92
92640,note_on,,,,,0,0,1,,,,,0,,,79,0
92640,note_on,,,,,10,0,1,,,,,0,,,80,0
92640,note_on,,,,,480,0,2,,,,,0,,,46,88
92650,set_tempo,,,,,10,1,0,,350877,,,,,,,
92680,set_tempo,,,,,30,1,0,,352941,,,,,,,
92700,set_tempo,,,,,20,1,0,,353982,,,,,,,
92700,note_on,,,,,60,0,1,,,,,0,,,84,0
92700,note_on,,,,,0,0,1,,,,,0,,,82,77
92730,note_on,,,,,90,0,2,,,,,0,,,46,0
92730,set_tempo,,,,,30,1,0,,356083,,,,,,,
92750,set_tempo,,,,,20,1,0,,357142,,,,,,,
92755,control_change,,,,,55,0,1,,,,,0,64,0,,
92760,control_change,,,,,0,0,1,,,,,0,64,95,,
92760,set_tempo,,,,,10,1,0,,358208,,,,,,,
92760,note_on,,,,,5,0,1,,,,,0,,,82,0
92760,note_on,,,,,0,0,2,,,,,0,,,62,75
92760,note_on,,,,,0,0,2,,,,,0,,,65,75
92760,note_on,,,,,30,0,2,,,,,0,,,68,75
92760,note_on,,,,,0,0,2,,,,,0,,,58,75
92760,note_on,,,,,0,0,1,,,,,0,,,80,70
92790,set_tempo,,,,,30,1,0,,362537,,,,,,,
92800,set_tempo,,,,,10,1,0,,363636,,,,,,,
92820,note_on,,,,,0,0,1,,,,,0,,,79,64
92820,note_on,,,,,60,0,1,,,,,0,,,80,0
92870,set_tempo,,,,,70,1,0,,368098,,,,,,,
92880,note_on,,,,,0,0,1,,,,,0,,,77,59
92880,note_on,,,,,60,0,1,,,,,0,,,79,0
92940,note_on,,,,,0,0,1,,,,,0,,,75,54
92940,note_on,,,,,60,0,1,,,,,0,,,77,0
92990,set_tempo,,,,,120,1,0,,371517,,,,,,,
93000,note_on,,,,,60,0,1,,,,,0,,,75,0
93000,note_on,,,,,0,0,1,,,,,0,,,74,49
93060,set_tempo,,,,,70,1,0,,378548,,,,,,,
93060,note_on,,,,,60,0,1,,,,,0,,,74,0
93060,note_on,,,,,0,0,1,,,,,0,,,72,47
93120,note_on,,,,,0,0,1,,,,,0,,,70,52
93120,note_on,,,,,0,0,2,,,,,0,,,65,0
93120,note_on,,,,,360,0,2,,,,,0,,,58,0
93120,note_on,,,,,0,0,2,,,,,0,,,68,0
93120,note_on,,,,,60,0,1,,,,,0,,,72,0
93120,note_on,,,,,0,0,2,,,,,0,,,62,0
93125,control_change,,,,,5,0,1,,,,,0,64,0,,
93170,set_tempo,,,,,110,1,0,,372670,,,,,,,
93180,note_on,,,,,0,0,1,,,,,0,,,72,50
93180,note_on,,,,,55,0,1,,,,,0,,,70,0
93190,set_tempo,,,,,20,1,0,,366972,,,,,,,
93210,set_tempo,,,,,20,1,0,,361445,,,,,,,
93240,note_on,,,,,60,0,1,,,,,0,,,72,0
93240,note_on,,,,,0,0,1,,,,,0,,,74,48
93260,set_tempo,,,,,50,1,0,,358208,,,,,,,
93280,set_tempo,,,,,20,1,0,,362537,,,,,,,
93300,note_on,,,,,60,0,1,,,,,0,,,74,0
93300,note_on,,,,,0,0,1,,,,,0,,,75,45
93310,set_tempo,,,,,30,1,0,,368098,,,,,,,
93360,note_on,,,,,60,0,1,,,,,0,,,75,0
93360,note_on,,,,,0,0,1,,,,,0,,,77,44
93380,set_tempo,,,,,70,1,0,,371517,,,,,,,
93420,note_on,,,,,0,0,1,,,,,0,,,79,41
93420,note_on,,,,,60,0,1,,,,,0,,,77,0
93420,set_tempo,,,,,40,1,0,,383386,,,,,,,
93460,set_tempo,,,,,40,1,0,,419580,,,,,,,
93470,set_tempo,,,,,10,1,0,,422535,,,,,,,
93480,note_on,,,,,0,0,1,,,,,0,,,80,39
93480,note_on,,,,,60,0,1,,,,,0,,,79,0
93490,set_tempo,,,,,20,1,0,,437956,,,,,,,
93500,set_tempo,,,,,10,1,0,,456273,,,,,,,
93530,set_tempo,,,,,30,1,0,,481927,,,,,,,
93540,note_on,,,,,60,0,1,,,,,0,,,80,0
93540,note_on,,,,,0,0,1,,,,,0,,,81,36
93550,set_tempo,,,,,20,1,0,,500000,,,,,,,
93570,set_tempo,,,,,20,1,0,,524017,,,,,,,
93600,control_change,,,,,0,0,1,,,,,0,64,95,,
93600,note_on,,,,,0,0,1,,,,,0,,,82,39
93600,note_on,,,,,60,0,1,,,,,0,,,81,0
93600,note_on,,,,,480,0,2,,,,,0,,,51,43
93620,set_tempo,,,,,50,1,0,,506329,,,,,,,
93640,set_tempo,,,,,20,1,0,,444444,,,,,,,
93660,note_on,,,,,60,0,2,,,,,0,,,51,0
93660,note_on,,,,,0,0,1,,,,,0,,,79,37
93660,note_on,,,,,60,0,1,,,,,0,,,82,0
93670,set_tempo,,,,,30,1,0,,418118,,,,,,,
93700,set_tempo,,,,,30,1,0,,416666,,,,,,,
93710,set_tempo,,,,,10,1,0,,397350,,,,,,,
93715,control_change,,,,,55,0,1,,,,,0,64,0,,
93720,note_on,,,,,0,0,2,,,,,0,,,67,33
93720,note_on,,,,,0,0,1,,,,,0,,,75,34
93720,note_on,,,,,5,0,1,,,,,0,,,79,0
93720,note_on,,,,,60,0,2,,,,,0,,,58,33
93740,set_tempo,,,,,30,1,0,,376175,,,,,,,
93765,note_on,,,,,0,0,2,,,,,0,,,58,0
93765,note_on,,,,,45,0,2,,,,,0,,,67,0
93772,note_on,,,,,52,0,1,,,,,0,,,75,0
93780,set_tempo,,,,,40,1,0,,372670,,,,,,,
93780,note_on,,,,,15,0,2,,,,,0,,,58,37
93780,note_on,,,,,0,0,2,,,,,0,,,67,37
93780,note_on,,,,,8,0,1,,,,,0,,,70,35
93825,note_on,,,,,45,0,1,,,,,0,,,70,0
93825,note_on,,,,,45,0,2,,,,,0,,,67,0
93825,note_on,,,,,0,0,2,,,,,0,,,58,0
93840,note_on,,,,,15,0,1,,,,,0,,,70,38
93840,set_tempo,,,,,60,1,0,,365853,,,,,,,
93840,note_on,,,,,15,0,2,,,,,0,,,58,40
93840,note_on,,,,,0,0,2,,,,,0,,,67,40
93900,note_on,,,,,0,0,1,,,,,0,,,72,41
93900,note_on,,,,,60,0,1,,,,,0,,,70,0
93910,set_tempo,,,,,70,1,0,,362537,,,,,,,
93930,note_on,,,,,0,0,2,,,,,0,,,58,0
93930,note_on,,,,,90,0,2,,,,,0,,,67,0
93960,note_on,,,,,0,0,1,,,,,0,,,69,44
93960,note_on,,,,,0,0,2,,,,,0,,,66,41
93960,note_on,,,,,30,0,2,,,,,0,,,58,41
93960,note_on,,,,,60,0,1,,,,,0,,,72,0
93960,control_change,,,,,0,0,1,,,,,0,64,95,,
94014,note_on,,,,,54,0,1,,,,,0,,,69,0
94020,note_on,,,,,6,0,1,,,,,0,,,72,45
94070,set_tempo,,,,,160,1,0,,359281,,,,,,,
94074,note_on,,,,,54,0,1,,,,,0,,,72,0
94080,control_change,,,,,0,0,1,,,,,0,64,0,,
94080,note_on,,,,,120,0,2,,,,,0,,,66,0
94080,note_on,,,,,0,0,2,,,,,0,,,67,35
94080,note_on,,,,,6,0,1,,,,,0,,,70,45
94125,note_on,,,,,45,0,1,,,,,0,,,70,0
94125,note_on,,,,,45,0,2,,,,,0,,,67,0
94125,note_on,,,,,0,0,2,,,,,0,,,58,0
94140,note_on,,,,,15,0,1,,,,,0,,,67,38
94200,note_on,,,,,75,0,2,,,,,0,,,55,40
94200,note_on,,,,,60,0,1,,,,,0,,,67,0
94200,note_on,,,,,0,0,1,,,,,0,,,70,40
94200,control_change,,,,,0,0,1,,,,,0,64,95,,
94260,note_on,,,,,60,0,1,,,,,0,,,70,0
94260,note_on,,,,,0,0,1,,,,,0,,,75,45
94260,note_on,,,,,60,0,2,,,,,0,,,55,0
94260,note_on,,,,,0,0,2,,,,,0,,,58,45
94320,note_on,,,,,0,0,2,,,,,0,,,63,49
94320,note_on,,,,,60,0,1,,,,,0,,,75,0
94320,note_on,,,,,0,0,1,,,,,0,,,79,49
94320,control_change,,,,,0,0,1,,,,,0,64,0,,
94320,note_on,,,,,60,0,2,,,,,0,,,58,0
94360,set_tempo,,,,,290,1,0,,363636,,,,,,,
94380,note_on,,,,,60,0,1,,,,,0,,,79,0
94380,note_on,,,,,0,0,1,,,,,0,,,75,45
94380,note_on,,,,,60,0,2,,,,,0,,,63,0
94440,note_on,,,,,60,0,1,,,,,0,,,75,0
94440,note_on,,,,,0,0,1,,,,,0,,,70,40
94470,set_tempo,,,,,110,1,0,,370370,,,,,,,
94480,set_tempo,,,,,10,1,0,,372670,,,,,,,
94490,set_tempo,,,,,10,1,0,,372670,,,,,,,
94493,note_on,,,,,53,0,1,,,,,0,,,70,0
94500,note_on,,,,,7,0,1,,,,,0,,,67,37
94520,set_tempo,,,,,30,1,0,,379746,,,,,,,
94545,note_on,,,,,45,0,1,,,,,0,,,67,0
94550,set_tempo,,,,,30,1,0,,375000,,,,,,,
94560,note_on,,,,,15,0,1,,,,,0,,,65,39
94560,note_on,,,,,180,0,2,,,,,0,,,46,43
94560,note_on,,,,,0,0,1,,,,,0,,,70,39
94560,note_on,,,,,0,0,1,,,,,0,,,68,39
94560,set_tempo,,,,,10,1,0,,368098,,,,,,,
94560,control_change,,,,,0,0,1,,,,,0,64,96,,
94580,set_tempo,,,,,20,1,0,,359281,,,,,,,
94612,note_on,,,,,52,0,2,,,,,0,,,46,0
94620,note_on,,,,,8,0,2,,,,,0,,,50,36
94650,note_on,,,,,0,0,1,,,,,0,,,68,0
94650,note_on,,,,,0,0,1,,,,,0,,,65,0
94650,note_on,,,,,90,0,1,,,,,0,,,70,0
94670,set_tempo,,,,,90,1,0,,360360,,,,,,,
94672,note_on,,,,,52,0,2,,,,,0,,,50,0
94680,note_on,,,,,8,0,2,,,,,0,,,53,41
94680,note_on,,,,,30,0,1,,,,,0,,,65,42
94680,note_on,,,,,0,0,1,,,,,0,,,68,42
94680,note_on,,,,,0,0,1,,,,,0,,,70,42
94680,control_change,,,,,0,0,1,,,,,0,64,0,,
94700,set_tempo,,,,,30,1,0,,355029,,,,,,,
94725,note_on,,,,,45,0,1,,,,,0,,,70,0
94725,note_on,,,,,0,0,1,,,,,0,,,65,0
94725,note_on,,,,,0,0,1,,,,,0,,,68,0
94732,note_on,,,,,52,0,2,,,,,0,,,53,0
94740,note_on,,,,,0,0,1,,,,,0,,,68,46
94740,note_on,,,,,0,0,1,,,,,0,,,70,46
94740,note_on,,,,,15,0,1,,,,,0,,,65,46
94740,note_on,,,,,8,0,2,,,,,0,,,58,47
94760,set_tempo,,,,,60,1,0,,352941,,,,,,,
94785,note_on,,,,,0,0,1,,,,,0,,,65,0
94785,note_on,,,,,45,0,1,,,,,0,,,70,0
94785,note_on,,,,,0,0,1,,,,,0,,,68,0
94792,note_on,,,,,52,0,2,,,,,0,,,58,0
94800,control_change,,,,,0,0,1,,,,,0,64,96,,
94800,note_on,,,,,0,0,1,,,,,0,,,72,50
94800,note_on,,,,,0,0,1,,,,,0,,,68,50
94800,note_on,,,,,15,0,1,,,,,0,,,65,50
94800,note_on,,,,,8,0,2,,,,,0,,,62,49
94860,note_on,,,,,60,0,2,,,,,0,,,62,0
94860,note_on,,,,,0,0,2,,,,,0,,,58,41
94890,note_on,,,,,0,0,1,,,,,0,,,68,0
94890,note_on,,,,,90,0,1,,,,,0,,,72,0
94890,note_on,,,,,0,0,1,,,,,0,,,65,0
94912,note_on,,,,,52,0,2,,,,,0,,,58,0
94915,control_change,,,,,25,0,1,,,,,0,64,0,,
94920,note_on,,,,,0,0,1,,,,,0,,,70,37
94920,note_on,,,,,0,0,1,,,,,0,,,68,37
94920,note_on,,,,,5,0,1,,,,,0,,,65,37
94920,note_on,,,,,8,0,2,,,,,0,,,62,39
94920,control_change,,,,,0,0,1,,,,,0,64,96,,
94980,note_on,,,,,0,0,2,,,,,0,,,58,36
94980,note_on,,,,,60,0,2,,,,,0,,,62,0
95010,note_on,,,,,0,0,1,,,,,0,,,68,0
95010,note_on,,,,,0,0,1,,,,,0,,,65,0
95010,note_on,,,,,90,0,1,,,,,0,,,70,0
95032,note_on,,,,,52,0,2,,,,,0,,,58,0
95035,control_change,,,,,25,0,1,,,,,0,64,0,,
95040,note_on,,,,,8,0,2,,,,,0,,,63,44
95040,note_on,,,,,0,0,1,,,,,0,,,70,49
95040,control_change,,,,,0,0,1,,,,,0,64,95,,
95040,note_on,,,,,5,0,1,,,,,0,,,67,49
95090,set_tempo,,,,,330,1,0,,359281,,,,,,,
95100,note_on,,,,,0,0,1,,,,,0,,,75,42
95100,note_on,,,,,0,0,1,,,,,0,,,67,0
95100,note_on,,,,,60,0,1,,,,,0,,,70,0
95100,note_on,,,,,60,0,2,,,,,0,,,63,0
95130,control_change,,,,,30,0,1,,,,,0,64,0,,
95130,set_tempo,,,,,40,1,0,,365853,,,,,,,
95160,note_on,,,,,0,0,1,,,,,0,,,74,39
95160,control_change,,,,,0,0,1,,,,,0,64,94,,
95160,note_on,,,,,0,0,2,,,,,0,,,56,37
95160,note_on,,,,,60,0,2,,,,,0,,,51,37
95160,note_on,,,,,30,0,1,,,,,0,,,75,0
95210,set_tempo,,,,,80,1,0,,371517,,,,,,,
95220,note_on,,,,,0,0,1,,,,,0,,,72,37
95220,note_on,,,,,60,0,1,,,,,0,,,74,0
95220,note_on,,,,,60,0,2,,,,,0,,,56,0
95220,note_on,,,,,0,0,2,,,,,0,,,60,40
95220,set_tempo,,,,,10,1,0,,372670,,,,,,,
95250,set_tempo,,,,,30,1,0,,380952,,,,,,,
95280,note_on,,,,,60,0,1,,,,,0,,,72,0
95280,control_change,,,,,0,0,1,,,,,0,64,0,,
95280,note_on,,,,,60,0,2,,,,,0,,,60,0
95280,note_on,,,,,0,0,2,,,,,0,,,63,45
95280,note_on,,,,,0,0,1,,,,,0,,,70,35
95325,note_on,,,,,45,0,1,,,,,0,,,70,0
95325,note_on,,,,,0,0,2,,,,,0,,,51,0
95325,note_on,,,,,45,0,2,,,,,0,,,63,0
95340,note_on,,,,,15,0,1,,,,,0,,,70,37
95400,note_on,,,,,60,0,1,,,,,0,,,70,0
95400,note_on,,,,,0,0,1,,,,,0,,,75,44
95452,note_on,,,,,52,0,1,,,,,0,,,75,0
95460,note_on,,,,,8,0,1,,,,,0,,,79,49
95470,set_tempo,,,,,220,1,0,,376175,,,,,,,
95500,set_tempo,,,,,30,1,0,,370370,,,,,,,
95505,note_on,,,,,45,0,1,,,,,0,,,79,0
95520,control_change,,,,,0,0,1,,,,,0,64,95,,
95520,note_on,,,,,15,0,1,,,,,0,,,82,43
95520,note_on,,,,,195,0,2,,,,,0,,,51,43
95580,note_on,,,,,60,0,2,,,,,0,,,51,0
95580,note_on,,,,,0,0,1,,,,,0,,,79,31
95580,note_on,,,,,60,0,1,,,,,0,,,82,0
95635,control_change,,,,,55,0,1,,,,,0,64,0,,
95640,note_on,,,,,5,0,1,,,,,0,,,79,0
95640,note_on,,,,,0,0,1,,,,,0,,,75,32
95640,note_on,,,,,0,0,2,,,,,0,,,67,33
95640,note_on,,,,,60,0,2,,,,,0,,,58,33
95685,note_on,,,,,0,0,2,,,,,0,,,58,0
95685,note_on,,,,,45,0,2,,,,,0,,,67,0
95692,note_on,,,,,52,0,1,,,,,0,,,75,0
95700,note_on,,,,,0,0,2,,,,,0,,,67,37
95700,note_on,,,,,15,0,2,,,,,0,,,58,37
95700,note_on,,,,,8,0,1,,,,,0,,,70,35
95745,note_on,,,,,0,0,2,,,,,0,,,58,0
95745,note_on,,,,,45,0,2,,,,,0,,,67,0
95745,note_on,,,,,45,0,1,,,,,0,,,70,0
95760,note_on,,,,,15,0,1,,,,,0,,,70,38
95760,note_on,,,,,0,0,2,,,,,0,,,67,40
95760,note_on,,,,,15,0,2,,,,,0,,,58,40
95810,set_tempo,,,,,310,1,0,,363636,,,,,,,
95820,note_on,,,,,0,0,1,,,,,0,,,72,41
95820,note_on,,,,,60,0,1,,,,,0,,,70,0
95850,note_on,,,,,90,0,2,,,,,0,,,67,0
95850,note_on,,,,,0,0,2,,,,,0,,,58,0
95880,note_on,,,,,60,0,1,,,,,0,,,72,0
95880,note_on,,,,,0,0,2,,,,,0,,,66,41
95880,control_change,,,,,0,0,1,,,,,0,64,95,,
95880,note_on,,,,,0,0,1,,,,,0,,,69,44
95880,note_on,,,,,30,0,2,,,,,0,,,58,41
95934,note_on,,,,,54,0,1,,,,,0,,,69,0
95940,note_on,,,,,6,0,1,,,,,0,,,72,45
95960,set_tempo,,,,,150,1,0,,360360,,,,,,,
95994,note_on,,,,,54,0,1,,,,,0,,,72,0
96000,control_change,,,,,0,0,1,,,,,0,64,0,,
96000,note_on,,,,,6,0,1,,,,,0,,,70,45
96000,note_on,,,,,120,0,2,,,,,0,,,66,0
96000,note_on,,,,,0,0,2,,,,,0,,,67,43
96045,note_on,,,,,45,0,2,,,,,0,,,67,0
96045,note_on,,,,,45,0,1,,,,,0,,,70,0
96045,note_on,,,,,0,0,2,,,,,0,,,58,0
96060,note_on,,,,,15,0,1,,,,,0,,,67,38
96120,note_on,,,,,75,0,2,,,,,0,,,55,50
96120,note_on,,,,,0,0,1,,,,,0,,,70,40
96120,note_on,,,,,60,0,1,,,,,0,,,67,0
96120,control_change,,,,,0,0,1,,,,,0,64,95,,
96180,note_on,,,,,60,0,2,,,,,0,,,55,0
96180,note_on,,,,,0,0,2,,,,,0,,,58,52
96180,note_on,,,,,60,0,1,,,,,0,,,70,0
96180,note_on,,,,,0,0,1,,,,,0,,,75,45
96240,control_change,,,,,0,0,1,,,,,0,64,0,,
96240,note_on,,,,,0,0,1,,,,,0,,,79,49
96240,note_on,,,,,60,0,1,,,,,0,,,75,0
96240,note_on,,,,,0,0,2,,,,,0,,,63,57
96240,note_on,,,,,60,0,2,,,,,0,,,58,0
96250,set_tempo,,,,,290,1,0,,369230,,,,,,,
96300,note_on,,,,,60,0,1,,,,,0,,,79,0
96300,note_on,,,,,0,0,1,,,,,0,,,75,52
96300,note_on,,,,,60,0,2,,,,,0,,,63,0
96360,note_on,,,,,60,0,1,,,,,0,,,75,0
96360,note_on,,,,,0,0,1,,,,,0,,,70,54
96410,set_tempo,,,,,160,1,0,,372670,,,,,,,
96413,note_on,,,,,53,0,1,,,,,0,,,70,0
96420,note_on,,,,,7,0,1,,,,,0,,,67,54
96440,set_tempo,,,,,30,1,0,,379746,,,,,,,
96460,set_tempo,,,,,20,1,0,,372670,,,,,,,
96465,note_on,,,,,45,0,1,,,,,0,,,67,0
96475,control_change,,,,,10,0,1,,,,,0,64,0,,
96480,control_change,,,,,0,0,1,,,,,0,64,96,,
96480,note_on,,,,,5,0,1,,,,,0,,,67,74
96480,note_on,,,,,180,0,2,,,,,0,,,36,69
96480,note_on,,,,,0,0,2,,,,,0,,,48,69
96490,set_tempo,,,,,30,1,0,,370370,,,,,,,
96525,note_on,,,,,45,0,1,,,,,0,,,67,0
96530,set_tempo,,,,,40,1,0,,368098,,,,,,,
96540,note_on,,,,,60,0,2,,,,,0,,,48,0
96540,note_on,,,,,0,0,2,,,,,0,,,36,0
96540,note_on,,,,,15,0,1,,,,,0,,,63,57
96550,set_tempo,,,,,20,1,0,,365853,,,,,,,
96560,set_tempo,,,,,10,1,0,,363636,,,,,,,
96600,note_on,,,,,60,0,1,,,,,0,,,63,0
96600,note_on,,,,,0,0,1,,,,,0,,,67,57
96600,note_on,,,,,60,0,2,,,,,0,,,51,63
96640,set_tempo,,,,,80,1,0,,361445,,,,,,,
96650,control_change,,,,,50,0,1,,,,,0,64,0,,
96660,note_on,,,,,0,0,2,,,,,0,,,55,66
96660,note_on,,,,,0,0,1,,,,,0,,,72,63
96660,note_on,,,,,60,0,2,,,,,0,,,51,0
96660,note_on,,,,,10,0,1,,,,,0,,,67,0
96720,note_on,,,,,60,0,2,,,,,0,,,55,0
96720,note_on,,,,,0,0,2,,,,,0,,,60,70
96720,note_on,,,,,60,0,1,,,,,0,,,72,0
96720,note_on,,,,,0,0,1,,,,,0,,,75,67
96780,note_on,,,,,0,0,1,,,,,0,,,72,62
96780,note_on,,,,,60,0,1,,,,,0,,,75,0
96780,note_on,,,,,60,0,2,,,,,0,,,60,0
96840,note_on,,,,,0,0,1,,,,,0,,,67,67
96840,note_on,,,,,60,0,1,,,,,0,,,72,0
96893,note_on,,,,,53,0,1,,,,,0,,,67,0
96900,note_on,,,,,7,0,1,,,,,0,,,63,78
96945,note_on,,,,,45,0,1,,,,,0,,,63,0
96960,control_change,,,,,0,0,1,,,,,0,64,96,,
96960,note_on,,,,,15,0,1,,,,,0,,,63,85
96960,note_on,,,,,180,0,2,,,,,0,,,32,85
96960,note_on,,,,,0,0,2,,,,,0,,,44,85
97000,set_tempo,,,,,360,1,0,,359281,,,,,,,
97005,note_on,,,,,45,0,1,,,,,0,,,63,0
97020,note_on,,,,,60,0,2,,,,,0,,,44,0
97020,note_on,,,,,0,0,2,,,,,0,,,32,0
97020,note_on,,,,,15,0,1,,,,,0,,,60,78
97060,set_tempo,,,,,60,1,0,,357142,,,,,,,
97080,note_on,,,,,0,0,1,,,,,0,,,63,82
97080,note_on,,,,,60,0,1,,,,,0,,,60,0
97080,note_on,,,,,60,0,2,,,,,0,,,48,73
97120,control_change,,,,,40,0,1,,,,,0,64,0,,
97140,note_on,,,,,20,0,1,,,,,0,,,63,0
97140,note_on,,,,,0,0,2,,,,,0,,,51,78
97140,note_on,,,,,60,0,2,,,,,0,,,48,0
97140,note_on,,,,,0,0,1,,,,,0,,,68,88
97180,set_tempo,,,,,120,1,0,,352941,,,,,,,
97200,note_on,,,,,0,0,2,,,,,0,,,56,83
97200,note_on,,,,,0,0,1,,,,,0,,,72,95
97200,note_on,,,,,60,0,1,,,,,0,,,68,0
97200,note_on,,,,,60,0,2,,,,,0,,,51,0
97260,note_on,,,,,60,0,2,,,,,0,,,56,0
97260,note_on,,,,,60,0,1,,,,,0,,,72,0
97260,note_on,,,,,0,0,1,,,,,0,,,68,83
97290,set_tempo,,,,,110,1,0,,350877,,,,,,,
97320,note_on,,,,,60,0,1,,,,,0,,,68,0
97320,note_on,,,,,0,0,1,,,,,0,,,63,88
97370,set_tempo,,,,,80,1,0,,348837,,,,,,,
97373,note_on,,,,,53,0,1,,,,,0,,,63,0
97380,note_on,,,,,7,0,1,,,,,0,,,60,93
97425,note_on,,,,,45,0,1,,,,,0,,,60,0
97430,set_tempo,,,,,60,1,0,,346820,,,,,,,
97440,note_on,,,,,180,0,2,,,,,0,,,44,83
97440,control_change,,,,,0,0,1,,,,,0,64,96,,
97440,note_on,,,,,15,0,1,,,,,0,,,63,99
97450,set_tempo,,,,,20,1,0,,342857,,,,,,,
97493,note_on,,,,,53,0,1,,,,,0,,,63,0
97500,note_on,,,,,0,0,1,,,,,0,,,72,97
97500,note_on,,,,,0,0,1,,,,,0,,,66,97
97500,note_on,,,,,7,0,1,,,,,0,,,75,97
97530,note_on,,,,,90,0,2,,,,,0,,,44,0
97545,note_on,,,,,45,0,1,,,,,0,,,66,0
97545,note_on,,,,,0,0,1,,,,,0,,,72,0
97545,note_on,,,,,0,0,1,,,,,0,,,75,0
97560,note_on,,,,,30,0,2,,,,,0,,,51,87
97560,note_on,,,,,0,0,2,,,,,0,,,60,87
97560,note_on,,,,,0,0,2,,,,,0,,,56,87
97560,note_on,,,,,0,0,1,,,,,0,,,75,94
97560,note_on,,,,,0,0,1,,,,,0,,,72,94
97560,set_tempo,,,,,110,1,0,,340909,,,,,,,
97560,note_on,,,,,15,0,1,,,,,0,,,66,94
97570,set_tempo,,,,,10,1,0,,338983,,,,,,,
97613,note_on,,,,,53,0,1,,,,,0,,,75,0
97613,note_on,,,,,0,0,1,,,,,0,,,66,0
97613,note_on,,,,,0,0,1,,,,,0,,,72,0
97620,note_on,,,,,7,0,1,,,,,0,,,63,92
97650,note_on,,,,,0,0,2,,,,,0,,,60,0
97650,note_on,,,,,0,0,2,,,,,0,,,51,0
97650,note_on,,,,,90,0,2,,,,,0,,,56,0
97660,set_tempo,,,,,90,1,0,,337078,,,,,,,
97665,control_change,,,,,0,0,1,,,,,0,64,0,,
97665,note_on,,,,,45,0,1,,,,,0,,,63,0
97680,control_change,,,,,0,0,1,,,,,0,64,96,,
97680,note_on,,,,,30,0,2,,,,,0,,,44,91
97680,note_on,,,,,15,0,1,,,,,0,,,66,102
97720,set_tempo,,,,,60,1,0,,335195,,,,,,,
97733,note_on,,,,,53,0,1,,,,,0,,,66,0
97740,note_on,,,,,7,0,1,,,,,0,,,78,100
97740,note_on,,,,,0,0,1,,,,,0,,,75,100
97740,note_on,,,,,0,0,1,,,,,0,,,72,100
97770,note_on,,,,,90,0,2,,,,,0,,,44,0
97785,note_on,,,,,0,0,1,,,,,0,,,78,0
97785,note_on,,,,,45,0,1,,,,,0,,,72,0
97785,note_on,,,,,0,0,1,,,,,0,,,75,0
97800,note_on,,,,,0,0,1,,,,,0,,,75,98
97800,note_on,,,,,0,0,1,,,,,0,,,72,98
97800,note_on,,,,,15,0,1,,,,,0,,,78,98
97800,note_on,,,,,30,0,2,,,,,0,,,60,97
97800,note_on,,,,,0,0,2,,,,,0,,,56,97
97800,note_on,,,,,0,0,2,,,,,0,,,51,97
97853,note_on,,,,,53,0,1,,,,,0,,,72,0
97853,note_on,,,,,0,0,1,,,,,0,,,75,0
97853,note_on,,,,,0,0,1,,,,,0,,,78,0
97860,note_on,,,,,7,0,1,,,,,0,,,66,95
97890,note_on,,,,,0,0,2,,,,,0,,,60,0
97890,note_on,,,,,90,0,2,,,,,0,,,51,0
97890,note_on,,,,,0,0,2,,,,,0,,,56,0
97905,control_change,,,,,0,0,1,,,,,0,64,0,,
97905,note_on,,,,,45,0,1,,,,,0,,,66,0
97920,note_on,,,,,30,0,2,,,,,0,,,44,100
97920,control_change,,,,,0,0,1,,,,,0,64,96,,
97920,note_on,,,,,15,0,1,,,,,0,,,72,107
97973,note_on,,,,,53,0,1,,,,,0,,,72,0
97980,note_on,,,,,0,0,1,,,,,0,,,75,105
97980,note_on,,,,,0,0,1,,,,,0,,,78,105
97980,note_on,,,,,7,0,1,,,,,0,,,84,105
98000,set_tempo,,,,,280,1,0,,337078,,,,,,,
98010,note_on,,,,,90,0,2,,,,,0,,,44,0
98025,note_on,,,,,0,0,1,,,,,0,,,84,0
98025,note_on,,,,,45,0,1,,,,,0,,,75,0
98025,note_on,,,,,0,0,1,,,,,0,,,78,0
98040,note_on,,,,,30,0,2,,,,,0,,,60,105
98040,note_on,,,,,15,0,1,,,,,0,,,84,102
98040,note_on,,,,,0,0,2,,,,,0,,,56,105
98040,note_on,,,,,0,0,1,,,,,0,,,78,102
98040,note_on,,,,,0,0,1,,,,,0,,,75,102
98040,note_on,,,,,0,0,2,,,,,0,,,51,105
98093,note_on,,,,,53,0,1,,,,,0,,,75,0
98093,note_on,,,,,0,0,1,,,,,0,,,78,0
98093,note_on,,,,,0,0,1,,,,,0,,,84,0
98100,note_on,,,,,7,0,1,,,,,0,,,72,106
98130,note_on,,,,,0,0,2,,,,,0,,,56,0
98130,note_on,,,,,0,0,2,,,,,0,,,60,0
98130,note_on,,,,,90,0,2,,,,,0,,,51,0
98145,control_change,,,,,0,0,1,,,,,0,64,0,,
98145,note_on,,,,,45,0,1,,,,,0,,,72,0
98160,note_on,,,,,30,0,2,,,,,0,,,44,111
98160,note_on,,,,,15,0,1,,,,,0,,,75,114
98160,control_change,,,,,0,0,1,,,,,0,64,96,,
98160,set_tempo,,,,,160,1,0,,336134,,,,,,,
98213,note_on,,,,,53,0,1,,,,,0,,,75,0
98220,note_on,,,,,7,0,1,,,,,0,,,87,110
98220,note_on,,,,,0,0,1,,,,,0,,,84,110
98220,note_on,,,,,0,0,1,,,,,0,,,78,110
98230,set_tempo,,,,,70,1,0,,343839,,,,,,,
98250,note_on,,,,,90,0,2,,,,,0,,,44,0
98265,note_on,,,,,0,0,1,,,,,0,,,84,0
98265,note_on,,,,,45,0,1,,,,,0,,,78,0
98265,note_on,,,,,0,0,1,,,,,0,,,87,0
98270,set_tempo,,,,,40,1,0,,346820,,,,,,,
98280,note_on,,,,,0,0,1,,,,,0,,,84,102
98280,note_on,,,,,0,0,1,,,,,0,,,78,102
98280,note_on,,,,,15,0,1,,,,,0,,,87,102
98280,note_on,,,,,30,0,2,,,,,0,,,60,107
98280,note_on,,,,,0,0,2,,,,,0,,,56,107
98280,note_on,,,,,0,0,2,,,,,0,,,51,107
98310,set_tempo,,,,,40,1,0,,349854,,,,,,,
98333,note_on,,,,,0,0,1,,,,,0,,,84,0
98333,note_on,,,,,53,0,1,,,,,0,,,78,0
98333,note_on,,,,,0,0,1,,,,,0,,,87,0
98340,note_on,,,,,7,0,1,,,,,0,,,75,99
98370,note_on,,,,,0,0,2,,,,,0,,,60,0
98370,note_on,,,,,0,0,2,,,,,0,,,56,0
98370,note_on,,,,,90,0,2,,,,,0,,,51,0
98380,set_tempo,,,,,70,1,0,,882352,,,,,,,
98385,note_on,,,,,45,0,1,,,,,0,,,75,0
98385,control_change,,,,,0,0,1,,,,,0,64,0,,
98400,note_on,,,,,30,0,2,,,,,0,,,43,70
98400,control_change,,,,,15,0,1,,,,,0,64,95,,
98410,set_tempo,,,,,30,1,0,,357142,,,,,,,
98420,set_tempo,,,,,10,1,0,,344827,,,,,,,
98450,set_tempo,,,,,30,1,0,,339943,,,,,,,
98460,note_on,,,,,60,0,1,,,,,0,,,82,85
98490,set_tempo,,,,,40,1,0,,334261,,,,,,,
98490,note_on,,,,,90,0,2,,,,,0,,,43,0
98520,note_on,,,,,60,0,1,,,,,0,,,82,0
98520,note_on,,,,,0,0,1,,,,,0,,,87,82
98520,note_on,,,,,0,0,2,,,,,0,,,55,55
98520,note_on,,,,,30,0,2,,,,,0,,,58,55
98520,set_tempo,,,,,30,1,0,,330578,,,,,,,
98520,note_on,,,,,0,0,2,,,,,0,,,51,55
98570,set_tempo,,,,,50,1,0,,331491,,,,,,,
98580,note_on,,,,,0,0,1,,,,,0,,,91,79
98580,note_on,,,,,60,0,1,,,,,0,,,87,0
98610,set_tempo,,,,,40,1,0,,336134,,,,,,,
98610,note_on,,,,,90,0,2,,,,,0,,,51,0
98610,note_on,,,,,0,0,2,,,,,0,,,55,0
98610,note_on,,,,,0,0,2,,,,,0,,,58,0
98635,control_change,,,,,55,0,1,,,,,0,64,0,,
98640,control_change,,,,,0,0,1,,,,,0,64,95,,
98640,note_on,,,,,5,0,1,,,,,0,,,91,0
98640,note_on,,,,,0,0,1,,,,,0,,,94,83
98640,note_on,,,,,30,0,2,,,,,0,,,44,59
98650,set_tempo,,,,,40,1,0,,339943,,,,,,,
98690,set_tempo,,,,,40,1,0,,343839,,,,,,,
98700,note_on,,,,,0,0,1,,,,,0,,,92,74
98700,note_on,,,,,60,0,1,,,,,0,,,94,0
98730,set_tempo,,,,,40,1,0,,348837,,,,,,,
98730,note_on,,,,,90,0,2,,,,,0,,,44,0
98760,note_on,,,,,60,0,1,,,,,0,,,92,0
98760,note_on,,,,,30,0,2,,,,,0,,,60,51
98760,note_on,,,,,0,0,2,,,,,0,,,51,51
98760,note_on,,,,,0,0,2,,,,,0,,,56,51
98760,note_on,,,,,0,0,1,,,,,0,,,87,67
98770,set_tempo,,,,,40,1,0,,358208,,,,,,,
98820,note_on,,,,,60,0,1,,,,,0,,,87,0
98820,note_on,,,,,0,0,1,,,,,0,,,84,64
98850,note_on,,,,,0,0,2,,,,,0,,,60,0
98850,note_on,,,,,0,0,2,,,,,0,,,56,0
98850,note_on,,,,,90,0,2,,,,,0,,,51,0
98870,set_tempo,,,,,100,1,0,,360360,,,,,,,
98875,control_change,,,,,55,0,1,,,,,0,64,0,,
98880,note_on,,,,,30,0,2,,,,,0,,,46,56
98880,set_tempo,,,,,10,1,0,,362537,,,,,,,
98880,note_on,,,,,5,0,1,,,,,0,,,84,0
98880,control_change,,,,,0,0,1,,,,,0,64,95,,
98920,set_tempo,,,,,40,1,0,,366972,,,,,,,
98940,note_on,,,,,60,0,1,,,,,0,,,67,61
98970,note_on,,,,,90,0,2,,,,,0,,,46,0
98980,set_tempo,,,,,60,1,0,,371517,,,,,,,
99000,note_on,,,,,0,0,1,,,,,0,,,70,64
99000,note_on,,,,,30,0,2,,,,,0,,,63,47
99000,note_on,,,,,60,0,1,,,,,0,,,67,0
99000,note_on,,,,,0,0,2,,,,,0,,,58,47
99000,note_on,,,,,0,0,2,,,,,0,,,55,47
99020,set_tempo,,,,,40,1,0,,376175,,,,,,,
99030,set_tempo,,,,,10,1,0,,377358,,,,,,,
99060,note_on,,,,,60,0,1,,,,,0,,,70,0
99060,note_on,,,,,0,0,1,,,,,0,,,75,65
99090,note_on,,,,,0,0,2,,,,,0,,,63,0
99090,note_on,,,,,0,0,2,,,,,0,,,58,0
99090,note_on,,,,,90,0,2,,,,,0,,,55,0
99115,control_change,,,,,55,0,1,,,,,0,64,0,,
99120,control_change,,,,,0,0,1,,,,,0,64,94,,
99120,note_on,,,,,5,0,1,,,,,0,,,75,0
99120,note_on,,,,,0,0,1,,,,,0,,,79,67
99120,note_on,,,,,30,0,2,,,,,0,,,46,54
99180,note_on,,,,,0,0,1,,,,,0,,,77,59
99180,note_on,,,,,60,0,1,,,,,0,,,79,0
99200,set_tempo,,,,,170,1,0,,385852,,,,,,,
99210,note_on,,,,,90,0,2,,,,,0,,,46,0
99240,note_on,,,,,0,0,1,,,,,0,,,74,51
99240,note_on,,,,,60,0,1,,,,,0,,,77,0
99240,note_on,,,,,0,0,2,,,,,0,,,58,44
99240,note_on,,,,,30,0,2,,,,,0,,,62,44
99240,note_on,,,,,0,0,2,,,,,0,,,56,44
99270,set_tempo,,,,,70,1,0,,397350,,,,,,,
99300,note_on,,,,,60,0,1,,,,,0,,,74,0
99300,note_on,,,,,0,0,1,,,,,0,,,70,45
99320,set_tempo,,,,,50,1,0,,431654,,,,,,,
99330,note_on,,,,,0,0,2,,,,,0,,,62,0
99330,note_on,,,,,90,0,2,,,,,0,,,56,0
99330,set_tempo,,,,,10,1,0,,461538,,,,,,,
99330,note_on,,,,,0,0,2,,,,,0,,,58,0
99340,set_tempo,,,,,10,1,0,,465116,,,,,,,
99350,set_tempo,,,,,10,1,0,,491803,,,,,,,
99355,control_change,,,,,55,0,1,,,,,0,64,0,,
99360,note_on,,,,,5,0,1,,,,,0,,,70,0
99360,note_on,,,,,0,0,1,,,,,0,,,63,71
99360,control_change,,,,,0,0,1,,,,,0,64,96,,
99360,note_on,,,,,30,0,2,,,,,0,,,44,83
99370,set_tempo,,,,,20,1,0,,368098,,,,,,,
99410,set_tempo,,,,,40,1,0,,355029,,,,,,,
99413,note_on,,,,,53,0,1,,,,,0,,,63,0
99420,note_on,,,,,7,0,1,,,,,0,,,75,77
99420,note_on,,,,,0,0,1,,,,,0,,,66,77
99420,note_on,,,,,0,0,1,,,,,0,,,72,77
99430,set_tempo,,,,,20,1,0,,352941,,,,,,,
99450,note_on,,,,,90,0,2,,,,,0,,,44,0
99465,note_on,,,,,0,0,1,,,,,0,,,72,0
99465,note_on,,,,,0,0,1,,,,,0,,,75,0
99465,note_on,,,,,45,0,1,,,,,0,,,66,0
99480,note_on,,,,,0,0,2,,,,,0,,,60,87
99480,note_on,,,,,0,0,2,,,,,0,,,56,87
99480,note_on,,,,,15,0,1,,,,,0,,,66,83
99480,note_on,,,,,0,0,1,,,,,0,,,72,83
99480,note_on,,,,,0,0,1,,,,,0,,,75,83
99480,note_on,,,,,30,0,2,,,,,0,,,51,87
99510,set_tempo,,,,,80,1,0,,345821,,,,,,,
99533,note_on,,,,,0,0,1,,,,,0,,,72,0
99533,note_on,,,,,53,0,1,,,,,0,,,75,0
99533,note_on,,,,,0,0,1,,,,,0,,,66,0
99540,note_on,,,,,7,0,1,,,,,0,,,63,91
99570,set_tempo,,,,,60,1,0,,342857,,,,,,,
99570,note_on,,,,,90,0,2,,,,,0,,,56,0
99570,note_on,,,,,0,0,2,,,,,0,,,60,0
99570,note_on,,,,,0,0,2,,,,,0,,,51,0
99580,set_tempo,,,,,10,1,0,,341880,,,,,,,
99585,note_on,,,,,45,0,1,,,,,0,,,63,0
99585,control_change,,,,,0,0,1,,,,,0,64,0,,
99600,control_change,,,,,0,0,1,,,,,0,64,96,,
99600,note_on,,,,,15,0,1,,,,,0,,,66,102
99600,note_on,,,,,30,0,2,,,,,0,,,44,91
99620,set_tempo,,,,,40,1,0,,338028,,,,,,,
99653,note_on,,,,,53,0,1,,,,,0,,,66,0
99660,note_on,,,,,0,0,1,,,,,0,,,75,100
99660,note_on,,,,,0,0,1,,,,,0,,,72,100
99660,note_on,,,,,7,0,1,,,,,0,,,78,100
99670,set_tempo,,,,,50,1,0,,332409,,,,,,,
99690,note_on,,,,,90,0,2,,,,,0,,,44,0
99705,note_on,,,,,45,0,1,,,,,0,,,72,0
99705,note_on,,,,,0,0,1,,,,,0,,,75,0
99705,note_on,,,,,0,0,1,,,,,0,,,78,0
99720,note_on,,,,,0,0,2,,,,,0,,,56,97
99720,note_on,,,,,0,0,2,,,,,0,,,51,97
99720,note_on,,,,,15,0,1,,,,,0,,,78,98
99720,note_on,,,,,30,0,2,,,,,0,,,60,97
99720,note_on,,,,,0,0,1,,,,,0,,,72,98
99720,note_on,,,,,0,0,1,,,,,0,,,75,98
99773,note_on,,,,,0,0,1,,,,,0,,,75,0
99773,note_on,,,,,53,0,1,,,,,0,,,72,0
99773,note_on,,,,,0,0,1,,,,,0,,,78,0
99780,note_on,,,,,7,0,1,,,,,0,,,66,95
99810,note_on,,,,,0,0,2,,,,,0,,,60,0
99810,note_on,,,,,0,0,2,,,,,0,,,56,0
99810,note_on,,,,,90,0,2,,,,,0,,,51,0
99825,control_change,,,,,0,0,1,,,,,0,64,0,,
99825,note_on,,,,,45,0,1,,,,,0,,,66,0
99840,note_on,,,,,30,0,2,,,,,0,,,44,100
99840,control_change,,,,,0,0,1,,,,,0,64,96,,
99840,note_on,,,,,15,0,1,,,,,0,,,72,107
99893,note_on,,,,,53,0,1,,,,,0,,,72,0
99900,note_on,,,,,0,0,1,,,,,0,,,75,105
99900,note_on,,,,,0,0,1,,,,,0,,,78,105
99900,note_on,,,,,7,0,1,,,,,0,,,84,105
99930,note_on,,,,,90,0,2,,,,,0,,,44,0
99945,note_on,,,,,45,0,1,,,,,0,,,75,0
99945,note_on,,,,,0,0,1,,,,,0,,,84,0
99945,note_on,,,,,0,0,1,,,,,0,,,78,0
99960,note_on,,,,,15,0,1,,,,,0,,,84,102
99960,note_on,,,,,0,0,1,,,,,0,,,78,102
99960,note_on,,,,,0,0,1,,,,,0,,,75,102
99960,note_on,,,,,30,0,2,,,,,0,,,60,105
99960,note_on,,,,,0,0,2,,,,,0,,,56,105
99960,note_on,,,,,0,0,2,,,,,0,,,51,105
99970,set_tempo,,,,,300,1,0,,336134,,,,,,,
100013,note_on,,,,,53,0,1,,,,,0,,,75,0
100013,note_on,,,,,0,0,1,,,,,0,,,78,0
100013,note_on,,,,,0,0,1,,,,,0,,,84,0
100020,note_on,,,,,7,0,1,,,,,0,,,72,106
100050,note_on,,,,,0,0,2,,,,,0,,,56,0
100050,note_on,,,,,90,0,2,,,,,0,,,51,0
100050,note_on,,,,,0,0,2,,,,,0,,,60,0
100065,control_change,,,,,0,0,1,,,,,0,64,0,,
100065,note_on,,,,,45,0,1,,,,,0,,,72,0
100070,set_tempo,,,,,100,1,0,,338983,,,,,,,
100080,note_on,,,,,30,0,2,,,,,0,,,44,111
100080,control_change,,,,,0,0,1,,,,,0,64,96,,
100080,note_on,,,,,15,0,1,,,,,0,,,75,114
100130,set_tempo,,,,,60,1,0,,343839,,,,,,,
100133,note_on,,,,,53,0,1,,,,,0,,,75,0
100140,note_on,,,,,0,0,1,,,,,0,,,78,110
100140,note_on,,,,,0,0,1,,,,,0,,,84,110
100140,note_on,,,,,7,0,1,,,,,0,,,87,110
100170,note_on,,,,,90,0,2,,,,,0,,,44,0
100180,set_tempo,,,,,50,1,0,,350877,,,,,,,
100185,note_on,,,,,45,0,1,,,,,0,,,78,0
100185,note_on,,,,,0,0,1,,,,,0,,,84,0
100185,note_on,,,,,0,0,1,,,,,0,,,87,0
100200,note_on,,,,,0,0,2,,,,,0,,,51,107
100200,note_on,,,,,30,0,2,,,,,0,,,60,107
100200,note_on,,,,,0,0,2,,,,,0,,,56,107
100200,note_on,,,,,0,0,1,,,,,0,,,78,102
100200,note_on,,,,,0,0,1,,,,,0,,,84,102
100200,note_on,,,,,15,0,1,,,,,0,,,87,102
100253,note_on,,,,,0,0,1,,,,,0,,,84,0
100253,note_on,,,,,0,0,1,,,,,0,,,87,0
100253,note_on,,,,,53,0,1,,,,,0,,,78,0
100260,note_on,,,,,7,0,1,,,,,0,,,75,99
100290,note_on,,,,,90,0,2,,,,,0,,,51,0
100290,note_on,,,,,0,0,2,,,,,0,,,56,0
100290,set_tempo,,,,,110,1,0,,355029,,,,,,,
100290,note_on,,,,,0,0,2,,,,,0,,,60,0
100305,note_on,,,,,45,0,1,,,,,0,,,75,0
100305,control_change,,,,,0,0,1,,,,,0,64,0,,
100320,note_on,,,,,30,0,2,,,,,0,,,43,111
100320,note_on,,,,,15,0,1,,,,,0,,,79,114
100320,control_change,,,,,0,0,1,,,,,0,64,95,,
100360,set_tempo,,,,,70,1,0,,362537,,,,,,,
100373,note_on,,,,,53,0,1,,,,,0,,,79,0
100380,note_on,,,,,0,0,1,,,,,0,,,84,110
100380,note_on,,,,,0,0,1,,,,,0,,,87,110
100380,note_on,,,,,7,0,1,,,,,0,,,91,110
100410,note_on,,,,,90,0,2,,,,,0,,,43,0
100425,note_on,,,,,45,0,1,,,,,0,,,84,0
100425,note_on,,,,,0,0,1,,,,,0,,,87,0
100425,note_on,,,,,0,0,1,,,,,0,,,91,0
100440,note_on,,,,,30,0,2,,,,,0,,,60,96
100440,note_on,,,,,0,0,2,,,,,0,,,55,96
100440,note_on,,,,,0,0,2,,,,,0,,,51,96
100440,note_on,,,,,15,0,1,,,,,0,,,91,110
100440,note_on,,,,,0,0,1,,,,,0,,,87,110
100440,note_on,,,,,0,0,1,,,,,0,,,84,110
100470,set_tempo,,,,,110,1,0,,366972,,,,,,,
100485,note_on,,,,,0,0,1,,,,,0,,,91,0
100485,note_on,,,,,0,0,1,,,,,0,,,87,0
100485,note_on,,,,,45,0,1,,,,,0,,,84,0
100500,note_on,,,,,15,0,1,,,,,0,,,79,99
100530,set_tempo,,,,,60,1,0,,372670,,,,,,,
100530,note_on,,,,,0,0,2,,,,,0,,,60,0
100530,note_on,,,,,0,0,2,,,,,0,,,55,0
100530,note_on,,,,,90,0,2,,,,,0,,,51,0
100545,note_on,,,,,45,0,1,,,,,0,,,79,0
100555,control_change,,,,,10,0,1,,,,,0,64,0,,
100560,note_on,,,,,30,0,2,,,,,0,,,43,111
100560,note_on,,,,,5,0,1,,,,,0,,,79,114
100560,control_change,,,,,0,0,1,,,,,0,64,95,,
100600,set_tempo,,,,,70,1,0,,384615,,,,,,,
100613,note_on,,,,,53,0,1,,,,,0,,,79,0
100620,note_on,,,,,0,0,1,,,,,0,,,87,110
100620,note_on,,,,,0,0,1,,,,,0,,,84,110
100620,note_on,,,,,7,0,1,,,,,0,,,91,110
100650,note_on,,,,,90,0,2,,,,,0,,,43,0
100665,note_on,,,,,45,0,1,,,,,0,,,84,0
100665,note_on,,,,,0,0,1,,,,,0,,,87,0
100665,note_on,,,,,0,0,1,,,,,0,,,91,0
100680,note_on,,,,,30,0,2,,,,,0,,,60,95
100680,note_on,,,,,0,0,2,,,,,0,,,55,95
100680,note_on,,,,,0,0,2,,,,,0,,,51,95
100680,note_on,,,,,0,0,1,,,,,0,,,84,110
100680,note_on,,,,,0,0,1,,,,,0,,,87,110
100680,note_on,,,,,15,0,1,,,,,0,,,91,110
100690,set_tempo,,,,,90,1,0,,389610,,,,,,,
100725,note_on,,,,,45,0,1,,,,,0,,,84,0
100725,note_on,,,,,0,0,1,,,,,0,,,87,0
100725,note_on,,,,,0,0,1,,,,,0,,,91,0
100740,set_tempo,,,,,50,1,0,,392156,,,,,,,
100740,note_on,,,,,15,0,1,,,,,0,,,79,99
100770,note_on,,,,,90,0,2,,,,,0,,,51,0
100770,note_on,,,,,0,0,2,,,,,0,,,60,0
100770,note_on,,,,,0,0,2,,,,,0,,,55,0
100785,note_on,,,,,45,0,1,,,,,0,,,79,0
100795,control_change,,,,,10,0,1,,,,,0,64,0,,
100800,note_on,,,,,5,0,1,,,,,0,,,71,100
100800,control_change,,,,,0,0,1,,,,,0,64,95,,
100800,note_on,,,,,30,0,2,,,,,0,,,43,97
100840,set_tempo,,,,,100,1,0,,397350,,,,,,,
100853,note_on,,,,,53,0,1,,,,,0,,,71,0
100860,note_on,,,,,0,0,1,,,,,0,,,79,89
100860,note_on,,,,,7,0,1,,,,,0,,,83,89
100860,note_on,,,,,0,0,1,,,,,0,,,77,89
100890,set_tempo,,,,,50,1,0,,402684,,,,,,,
100890,note_on,,,,,90,0,2,,,,,0,,,43,0
100905,note_on,,,,,0,0,1,,,,,0,,,83,0
100905,note_on,,,,,45,0,1,,,,,0,,,77,0
100905,note_on,,,,,0,0,1,,,,,0,,,79,0
100920,note_on,,,,,0,0,2,,,,,0,,,50,89
100920,set_tempo,,,,,30,1,0,,416666,,,,,,,
100920,note_on,,,,,15,0,1,,,,,0,,,83,76
100920,note_on,,,,,0,0,1,,,,,0,,,79,76
100920,note_on,,,,,0,0,1,,,,,0,,,77,76
100920,note_on,,,,,0,0,2,,,,,0,,,55,89
100920,note_on,,,,,30,0,2,,,,,0,,,59,89
100930,set_tempo,,,,,10,1,0,,419580,,,,,,,
100940,set_tempo,,,,,10,1,0,,416666,,,,,,,
100965,note_on,,,,,0,0,1,,,,,0,,,83,0
100965,note_on,,,,,0,0,1,,,,,0,,,79,0
100965,note_on,,,,,45,0,1,,,,,0,,,77,0
100980,note_on,,,,,15,0,1,,,,,0,,,71,73
100980,set_tempo,,,,,40,1,0,,434782,,,,,,,
101000,set_tempo,,,,,20,1,0,,441176,,,,,,,
101010,note_on,,,,,90,0,2,,,,,0,,,50,0
101010,note_on,,,,,0,0,2,,,,,0,,,55,0
101010,note_on,,,,,0,0,2,,,,,0,,,59,0
101020,set_tempo,,,,,20,1,0,,451127,,,,,,,
101025,note_on,,,,,45,0,1,,,,,0,,,71,0
101035,control_change,,,,,10,0,1,,,,,0,64,0,,
101040,control_change,,,,,0,0,1,,,,,0,64,96,,
101040,note_on,,,,,30,0,2,,,,,0,,,43,77
101040,note_on,,,,,5,0,1,,,,,0,,,71,86
101050,set_tempo,,,,,30,1,0,,461538,,,,,,,
101070,set_tempo,,,,,20,1,0,,487804,,,,,,,
101093,note_on,,,,,53,0,1,,,,,0,,,71,0
101100,note_on,,,,,0,0,1,,,,,0,,,77,77
101100,note_on,,,,,0,0,1,,,,,0,,,79,77
101100,note_on,,,,,7,0,1,,,,,0,,,83,77
101110,set_tempo,,,,,40,1,0,,495867,,,,,,,
101130,note_on,,,,,90,0,2,,,,,0,,,43,0
101145,note_on,,,,,0,0,1,,,,,0,,,83,0
101145,note_on,,,,,45,0,1,,,,,0,,,77,0
101145,note_on,,,,,0,0,1,,,,,0,,,79,0
101150,set_tempo,,,,,40,1,0,,510638,,,,,,,
101160,note_on,,,,,0,0,1,,,,,0,,,79,67
101160,note_on,,,,,0,0,1,,,,,0,,,77,67
101160,note_on,,,,,15,0,1,,,,,0,,,83,67
101160,note_on,,,,,30,0,2,,,,,0,,,59,71
101160,note_on,,,,,0,0,2,,,,,0,,,55,71
101160,note_on,,,,,0,0,2,,,,,0,,,50,71
101160,set_tempo,,,,,10,1,0,,533333,,,,,,,
101180,set_tempo,,,,,20,1,0,,535714,,,,,,,
101200,set_tempo,,,,,20,1,0,,545454,,,,,,,
101205,note_on,,,,,0,0,1,,,,,0,,,83,0
101205,note_on,,,,,0,0,1,,,,,0,,,79,0
101205,note_on,,,,,45,0,1,,,,,0,,,77,0
101210,set_tempo,,,,,10,1,0,,550458,,,,,,,
101220,note_on,,,,,15,0,1,,,,,0,,,71,56
101250,note_on,,,,,0,0,2,,,,,0,,,59,0
101250,note_on,,,,,0,0,2,,,,,0,,,55,0
101250,note_on,,,,,90,0,2,,,,,0,,,50,0
101250,set_tempo,,,,,40,1,0,,645161,,,,,,,
101265,note_on,,,,,45,0,1,,,,,0,,,71,0
101275,control_change,,,,,10,0,1,,,,,0,64,0,,
101280,set_tempo,,,,,30,1,0,,504201,,,,,,,
101280,control_change,,,,,0,0,1,,,,,0,64,95,,
101280,note_on,,,,,5,0,1,,,,,0,,,84,76
101280,note_on,,,,,0,0,1,,,,,0,,,72,76
101280,note_on,,,,,0,0,1,,,,,0,,,75,76
101280,note_on,,,,,0,0,1,,,,,0,,,79,76
101280,note_on,,,,,30,0,2,,,,,0,,,48,78
101290,set_tempo,,,,,10,1,0,,495867,,,,,,,
101300,set_tempo,,,,,10,1,0,,480000,,,,,,,
101310,set_tempo,,,,,10,1,0,,444444,,,,,,,
101325,note_on,,,,,45,0,2,,,,,0,,,48,0
101340,note_on,,,,,15,0,2,,,,,0,,,55,67
101360,set_tempo,,,,,50,1,0,,425531,,,,,,,
101390,set_tempo,,,,,30,1,0,,415224,,,,,,,
101400,note_on,,,,,120,0,1,,,,,0,,,72,0
101400,note_on,,,,,0,0,2,,,,,0,,,51,65
101400,note_on,,,,,0,0,1,,,,,0,,,79,0
101400,note_on,,,,,0,0,1,,,,,0,,,75,0
101400,note_on,,,,,60,0,2,,,,,0,,,55,0
101400,note_on,,,,,0,0,1,,,,,0,,,84,0
101430,set_tempo,,,,,40,1,0,,409556,,,,,,,
101460,note_on,,,,,0,0,2,,,,,0,,,55,63
101460,note_on,,,,,60,0,2,,,,,0,,,51,0
101500,control_change,,,,,100,0,1,,,,,0,64,0,,
101510,set_tempo,,,,,80,1,0,,404040,,,,,,,
101520,note_on,,,,,0,0,2,,,,,0,,,60,63
101520,note_on,,,,,60,0,2,,,,,0,,,55,0
101520,control_change,,,,,20,0,1,,,,,0,64,96,,
101560,set_tempo,,,,,50,1,0,,398671,,,,,,,
101580,note_on,,,,,0,0,2,,,,,0,,,55,60
101580,note_on,,,,,60,0,2,,,,,0,,,60,0
101630,set_tempo,,,,,70,1,0,,397350,,,,,,,
101640,note_on,,,,,0,0,2,,,,,0,,,51,57
101640,note_on,,,,,60,0,2,,,,,0,,,55,0
101700,note_on,,,,,60,0,2,,,,,0,,,51,0
101700,note_on,,,,,0,0,2,,,,,0,,,55,56
101755,control_change,,,,,235,0,1,,,,,0,64,0,,
101760,note_on,,,,,60,0,2,,,,,0,,,55,0
101760,note_on,,,,,0,0,2,,,,,0,,,48,60
101760,control_change,,,,,5,0,1,,,,,0,64,95,,
101800,set_tempo,,,,,170,1,0,,400000,,,,,,,
101805,note_on,,,,,45,0,2,,,,,0,,,48,0
101810,set_tempo,,,,,10,1,0,,401337,,,,,,,
101820,note_on,,,,,15,0,2,,,,,0,,,55,56
101840,set_tempo,,,,,30,1,0,,406779,,,,,,,
101880,note_on,,,,,60,0,2,,,,,0,,,55,0
101880,note_on,,,,,0,0,2,,,,,0,,,51,54
101900,set_tempo,,,,,60,1,0,,413793,,,,,,,
101930,set_tempo,,,,,30,1,0,,418118,,,,,,,
101940,note_on,,,,,60,0,2,,,,,0,,,51,0
101940,note_on,,,,,0,0,2,,,,,0,,,55,43
101950,set_tempo,,,,,20,1,0,,427046,,,,,,,
101990,set_tempo,,,,,40,1,0,,431654,,,,,,,
101995,control_change,,,,,235,0,1,,,,,0,64,0,,
102000,set_tempo,,,,,10,1,0,,433212,,,,,,,
102000,note_on,,,,,0,0,2,,,,,0,,,60,41
102000,note_on,,,,,60,0,2,,,,,0,,,55,0
102000,control_change,,,,,5,0,1,,,,,0,64,95,,
102050,set_tempo,,,,,50,1,0,,437956,,,,,,,
102060,note_on,,,,,0,0,2,,,,,0,,,55,39
102060,note_on,,,,,60,0,2,,,,,0,,,60,0
102120,set_tempo,,,,,70,1,0,,441176,,,,,,,
102120,note_on,,,,,0,0,2,,,,,0,,,51,36
102120,note_on,,,,,60,0,2,,,,,0,,,55,0
102180,set_tempo,,,,,60,1,0,,447761,,,,,,,
102180,note_on,,,,,0,0,2,,,,,0,,,55,33
102180,note_on,,,,,60,0,2,,,,,0,,,51,0
102235,control_change,,,,,235,0,1,,,,,0,64,0,,
102240,note_on,,,,,5,0,1,,,,,0,,,75,55
102240,marker,,,,,60,1,0,,,,,,,,,
102240,control_change,,,,,0,0,1,,,,,0,64,95,,
102240,control_change,,,,,0,0,1,,,,,0,64,96,,
102240,note_on,,,,,60,0,2,,,,,0,,,55,0
102240,note_on,,,,,0,0,2,,,,,0,,,48,37
102285,note_on,,,,,45,0,2,,,,,0,,,48,0
102300,note_on,,,,,15,0,2,,,,,0,,,55,32
102360,note_on,,,,,60,0,2,,,,,0,,,55,0
102360,set_tempo,,,,,120,1,0,,442804,,,,,,,
102360,note_on,,,,,0,0,2,,,,,0,,,51,34
102420,note_on,,,,,0,0,2,,,,,0,,,55,38
102420,note_on,,,,,60,0,2,,,,,0,,,51,0
102430,set_tempo,,,,,70,1,0,,437956,,,,,,,
102475,control_change,,,,,235,0,1,,,,,0,64,0,,
102480,note_on,,,,,60,0,2,,,,,0,,,55,0
102480,note_on,,,,,0,0,2,,,,,0,,,60,40
102480,control_change,,,,,5,0,1,,,,,0,64,95,,
102510,set_tempo,,,,,80,1,0,,434782,,,,,,,
102540,note_on,,,,,0,0,2,,,,,0,,,55,38
102540,note_on,,,,,60,0,2,,,,,0,,,60,0
102600,note_on,,,,,60,0,2,,,,,0,,,55,0
102600,note_on,,,,,0,0,2,,,,,0,,,51,36
102600,note_on,,,,,0,0,1,,,,,0,,,75,48
102600,note_on,,,,,120,0,1,,,,,0,,,75,0
102630,set_tempo,,,,,120,1,0,,428571,,,,,,,
102660,note_on,,,,,60,0,2,,,,,0,,,51,0
102660,note_on,,,,,0,0,2,,,,,0,,,55,33
102690,note_on,,,,,90,0,1,,,,,0,,,75,0
102710,set_tempo,,,,,80,1,0,,422535,,,,,,,
102715,control_change,,,,,25,0,1,,,,,0,64,0,,
102720,note_on,,,,,0,0,2,,,,,0,,,47,35
102720,note_on,,,,,5,0,1,,,,,0,,,75,58
102720,control_change,,,,,0,0,1,,,,,0,64,95,,
102720,note_on,,,,,60,0,2,,,,,0,,,55,0
102765,note_on,,,,,45,0,2,,,,,0,,,47,0
102780,note_on,,,,,15,0,2,,,,,0,,,55,33
102840,note_on,,,,,60,0,2,,,,,0,,,55,0
102840,note_on,,,,,0,0,2,,,,,0,,,53,36
102900,note_on,,,,,60,0,2,,,,,0,,,53,0
102900,note_on,,,,,0,0,2,,,,,0,,,55,39
102955,control_change,,,,,235,0,1,,,,,0,64,0,,
102960,note_on,,,,,60,0,2,,,,,0,,,55,0
102960,note_on,,,,,0,0,2,,,,,0,,,62,40
102960,control_change,,,,,0,0,1,,,,,0,64,95,,
102960,note_on,,,,,0,0,1,,,,,0,,,74,49
102960,note_on,,,,,5,0,1,,,,,0,,,75,0
103020,set_tempo,,,,,310,1,0,,419580,,,,,,,
103020,note_on,,,,,60,0,2,,,,,0,,,62,0
103020,note_on,,,,,0,0,2,,,,,0,,,55,35
103050,note_on,,,,,90,0,1,,,,,0,,,74,0
103060,set_tempo,,,,,40,1,0,,416666,,,,,,,
103080,note_on,,,,,30,0,1,,,,,0,,,74,54
103080,note_on,,,,,60,0,2,,,,,0,,,55,0
103080,note_on,,,,,0,0,2,,,,,0,,,53,34
103140,set_tempo,,,,,80,1,0,,413793,,,,,,,
103140,note_on,,,,,60,0,2,,,,,0,,,53,0
103140,note_on,,,,,0,0,2,,,,,0,,,55,34
103170,note_on,,,,,90,0,1,,,,,0,,,74,0
103195,control_change,,,,,25,0,1,,,,,0,64,0,,
103200,control_change,,,,,0,0,1,,,,,0,64,95,,
103200,note_on,,,,,0,0,2,,,,,0,,,48,39
103200,note_on,,,,,5,0,1,,,,,0,,,74,57
103200,note_on,,,,,60,0,2,,,,,0,,,55,0
103245,note_on,,,,,45,0,2,,,,,0,,,48,0
103260,note_on,,,,,15,0,2,,,,,0,,,55,29
103320,note_on,,,,,0,0,2,,,,,0,,,51,33
103320,note_on,,,,,60,0,2,,,,,0,,,55,0
103380,note_on,,,,,60,0,2,,,,,0,,,51,0
103380,note_on,,,,,0,0,2,,,,,0,,,55,37
103400,set_tempo,,,,,260,1,0,,416666,,,,,,,
103435,control_change,,,,,235,0,1,,,,,0,64,0,,
103440,note_on,,,,,5,0,1,,,,,0,,,74,0
103440,note_on,,,,,60,0,2,,,,,0,,,55,0
103440,control_change,,,,,0,0,1,,,,,0,64,95,,
103440,note_on,,,,,0,0,1,,,,,0,,,72,46
103440,note_on,,,,,0,0,2,,,,,0,,,60,41
103470,set_tempo,,,,,70,1,0,,419580,,,,,,,
103500,note_on,,,,,60,0,2,,,,,0,,,60,0
103500,note_on,,,,,0,0,2,,,,,0,,,55,34
103510,set_tempo,,,,,40,1,0,,422535,,,,,,,
103530,note_on,,,,,90,0,1,,,,,0,,,72,0
103560,note_on,,,,,60,0,2,,,,,0,,,55,0
103560,note_on,,,,,0,0,2,,,,,0,,,51,37
103560,note_on,,,,,30,0,1,,,,,0,,,72,51
103570,set_tempo,,,,,60,1,0,,428571,,,,,,,
103620,note_on,,,,,60,0,2,,,,,0,,,51,0
103620,note_on,,,,,0,0,2,,,,,0,,,55,41
103650,note_on,,,,,90,0,1,,,,,0,,,72,0
103670,set_tempo,,,,,100,1,0,,431654,,,,,,,
103675,control_change,,,,,25,0,1,,,,,0,64,0,,
103680,control_change,,,,,0,0,1,,,,,0,64,95,,
103680,note_on,,,,,60,0,2,,,,,0,,,55,0
103680,note_on,,,,,5,0,1,,,,,0,,,67,57
103680,note_on,,,,,0,0,2,,,,,0,,,50,43
103725,note_on,,,,,45,0,2,,,,,0,,,50,0
103740,note_on,,,,,15,0,2,,,,,0,,,55,40
103800,note_on,,,,,0,0,2,,,,,0,,,53,37
103800,note_on,,,,,60,0,2,,,,,0,,,55,0
103860,note_on,,,,,0,0,2,,,,,0,,,55,35
103860,note_on,,,,,60,0,2,,,,,0,,,53,0
103915,control_change,,,,,235,0,1,,,,,0,64,0,,
103920,note_on,,,,,0,0,2,,,,,0,,,59,38
103920,note_on,,,,,60,0,2,,,,,0,,,55,0
103920,control_change,,,,,5,0,1,,,,,0,64,95,,
103980,note_on,,,,,0,0,2,,,,,0,,,55,37
103980,note_on,,,,,60,0,2,,,,,0,,,59,0
104010,note_on,,,,,90,0,1,,,,,0,,,67,0
104040,note_on,,,,,30,0,1,,,,,0,,,67,53
104040,note_on,,,,,60,0,2,,,,,0,,,55,0
104040,note_on,,,,,0,0,2,,,,,0,,,53,36
104080,set_tempo,,,,,410,1,0,,422535,,,,,,,
104090,set_tempo,,,,,10,1,0,,415224,,,,,,,
104100,note_on,,,,,0,0,2,,,,,0,,,55,34
104100,note_on,,,,,60,0,2,,,,,0,,,53,0
104110,set_tempo,,,,,20,1,0,,416666,,,,,,,
104140,set_tempo,,,,,30,1,0,,409556,,,,,,,
104155,control_change,,,,,115,0,1,,,,,0,64,0,,
104160,note_on,,,,,0,0,1,,,,,0,,,72,55
104160,control_change,,,,,0,0,1,,,,,0,64,95,,
104160,note_on,,,,,5,0,1,,,,,0,,,67,0
104160,note_on,,,,,60,0,2,,,,,0,,,55,0
104160,note_on,,,,,0,0,2,,,,,0,,,48,41
104190,set_tempo,,,,,50,1,0,,404040,,,,,,,
104205,note_on,,,,,45,0,2,,,,,0,,,48,0
104220,note_on,,,,,15,0,2,,,,,0,,,55,34
104250,set_tempo,,,,,60,1,0,,402684,,,,,,,
104280,note_on,,,,,60,0,2,,,,,0,,,55,0
104280,note_on,,,,,0,0,2,,,,,0,,,51,38
104340,note_on,,,,,60,0,2,,,,,0,,,51,0
104340,note_on,,,,,0,0,2,,,,,0,,,55,42
104395,control_change,,,,,235,0,1,,,,,0,64,0,,
104400,note_on,,,,,60,0,2,,,,,0,,,55,0
104400,note_on,,,,,0,0,2,,,,,0,,,60,45
104400,control_change,,,,,5,0,1,,,,,0,64,95,,
104460,note_on,,,,,60,0,2,,,,,0,,,60,0
104460,note_on,,,,,0,0,2,,,,,0,,,55,40
104490,set_tempo,,,,,240,1,0,,404040,,,,,,,
104490,note_on,,,,,90,0,1,,,,,0,,,72,0
104520,note_on,,,,,30,0,1,,,,,0,,,72,51
104520,note_on,,,,,0,0,2,,,,,0,,,51,36
104520,note_on,,,,,60,0,2,,,,,0,,,55,0
104580,note_on,,,,,0,0,2,,,,,0,,,55,34
104580,note_on,,,,,60,0,2,,,,,0,,,51,0
104635,control_change,,,,,115,0,1,,,,,0,64,0,,
104640,set_tempo,,,,,150,1,0,,398671,,,,,,,
104640,note_on,,,,,0,0,2,,,,,0,,,41,43
104640,note_on,,,,,60,0,2,,,,,0,,,55,0
104640,note_on,,,,,5,0,1,,,,,0,,,72,0
104640,control_change,,,,,0,0,1,,,,,0,64,95,,
104640,note_on,,,,,0,0,1,,,,,0,,,73,57
104685,note_on,,,,,45,0,2,,,,,0,,,41,0
104700,note_on,,,,,15,0,2,,,,,0,,,56,36
104760,note_on,,,,,0,0,2,,,,,0,,,53,38
104760,note_on,,,,,60,0,2,,,,,0,,,56,0
104790,set_tempo,,,,,150,1,0,,400000,,,,,,,
104800,set_tempo,,,,,10,1,0,,408163,,,,,,,
104820,note_on,,,,,60,0,2,,,,,0,,,53,0
104820,note_on,,,,,0,0,2,,,,,0,,,56,41
104840,set_tempo,,,,,40,1,0,,419580,,,,,,,
104875,control_change,,,,,235,0,1,,,,,0,64,0,,
104880,control_change,,,,,0,0,1,,,,,0,64,95,,
104880,note_on,,,,,5,0,1,,,,,0,,,73,0
104880,note_on,,,,,60,0,2,,,,,0,,,56,0
104880,note_on,,,,,0,0,2,,,,,0,,,61,44
104890,set_tempo,,,,,50,1,0,,427046,,,,,,,
104910,note_on,,,,,30,0,1,,,,,0,,,75,47
104930,set_tempo,,,,,40,1,0,,436363,,,,,,,
104940,note_on,,,,,0,0,1,,,,,0,,,77,49
104940,note_on,,,,,30,0,1,,,,,0,,,75,0
104940,note_on,,,,,60,0,2,,,,,0,,,61,0
104940,note_on,,,,,0,0,2,,,,,0,,,56,41
104970,note_on,,,,,30,0,1,,,,,0,,,77,0
104970,note_on,,,,,0,0,1,,,,,0,,,79,50
105000,note_on,,,,,0,0,1,,,,,0,,,80,51
105000,note_on,,,,,30,0,1,,,,,0,,,79,0
105000,note_on,,,,,0,0,2,,,,,0,,,53,39
105000,note_on,,,,,60,0,2,,,,,0,,,56,0
105024,note_on,,,,,0,0,1,,,,,0,,,79,52
105024,note_on,,,,,24,0,1,,,,,0,,,80,0
105048,note_on,,,,,0,0,1,,,,,0,,,77,51
105048,note_on,,,,,24,0,1,,,,,0,,,79,0
105060,note_on,,,,,60,0,2,,,,,0,,,53,0
105060,set_tempo,,,,,130,1,0,,430107,,,,,,,
105060,note_on,,,,,0,0,2,,,,,0,,,56,36
105072,note_on,,,,,24,0,1,,,,,0,,,77,0
105072,note_on,,,,,0,0,1,,,,,0,,,75,50
105096,note_on,,,,,24,0,1,,,,,0,,,75,0
105096,note_on,,,,,0,0,1,,,,,0,,,73,49
105100,set_tempo,,,,,40,1,0,,436363,,,,,,,
105110,set_tempo,,,,,10,1,0,,430107,,,,,,,
105115,control_change,,,,,19,0,1,,,,,0,64,0,,
105120,control_change,,,,,0,0,1,,,,,0,64,95,,
105120,set_tempo,,,,,10,1,0,,422535,,,,,,,
105120,note_on,,,,,0,0,1,,,,,0,,,72,51
105120,note_on,,,,,60,0,2,,,,,0,,,56,0
105120,note_on,,,,,0,0,2,,,,,0,,,43,41
105120,note_on,,,,,5,0,1,,,,,0,,,73,0
105160,set_tempo,,,,,40,1,0,,415224,,,,,,,
105165,note_on,,,,,45,0,2,,,,,0,,,43,0
105180,note_on,,,,,15,0,2,,,,,0,,,51,38
105200,set_tempo,,,,,40,1,0,,400000,,,,,,,
105240,note_on,,,,,60,0,2,,,,,0,,,51,0
105240,note_on,,,,,0,0,2,,,,,0,,,55,35
105300,note_on,,,,,60,0,2,,,,,0,,,55,0
105300,note_on,,,,,0,0,2,,,,,0,,,60,33
105330,set_tempo,,,,,130,1,0,,404040,,,,,,,
105345,note_on,,,,,45,0,2,,,,,0,,,60,0
105355,control_change,,,,,235,0,1,,,,,0,64,0,,
105360,note_on,,,,,15,0,2,,,,,0,,,43,37
105360,control_change,,,,,0,0,1,,,,,0,64,95,,
105360,note_on,,,,,0,0,1,,,,,0,,,71,50
105360,note_on,,,,,0,0,1,,,,,0,,,75,50
105360,note_on,,,,,5,0,1,,,,,0,,,72,0
105390,set_tempo,,,,,60,1,0,,412371,,,,,,,
105405,note_on,,,,,45,0,2,,,,,0,,,43,0
105420,note_on,,,,,15,0,2,,,,,0,,,53,33
105480,note_on,,,,,60,0,2,,,,,0,,,53,0
105480,note_on,,,,,0,0,2,,,,,0,,,55,30
105540,note_on,,,,,180,0,1,,,,,0,,,75,0
105540,note_on,,,,,0,0,1,,,,,0,,,74,46
105540,note_on,,,,,0,0,2,,,,,0,,,62,27
105540,note_on,,,,,60,0,2,,,,,0,,,55,0
105585,note_on,,,,,45,0,2,,,,,0,,,62,0
105595,control_change,,,,,55,0,1,,,,,0,64,0,,
105600,note_on,,,,,5,0,1,,,,,0,,,74,0
105600,note_on,,,,,0,0,1,,,,,0,,,71,0
105600,note_on,,,,,0,0,1,,,,,0,,,72,44
105600,control_change,,,,,0,0,1,,,,,0,64,95,,
105600,note_on,,,,,15,0,2,,,,,0,,,48,37
105645,note_on,,,,,45,0,2,,,,,0,,,48,0
105660,set_tempo,,,,,270,1,0,,419580,,,,,,,
105660,note_on,,,,,15,0,2,,,,,0,,,51,29
105720,note_on,,,,,60,0,2,,,,,0,,,51,0
105720,note_on,,,,,0,0,2,,,,,0,,,55,31
105740,set_tempo,,,,,80,1,0,,425531,,,,,,,
105780,note_on,,,,,60,0,2,,,,,0,,,55,0
105780,note_on,,,,,0,0,2,,,,,0,,,60,32
105830,set_tempo,,,,,90,1,0,,436363,,,,,,,
105835,control_change,,,,,235,0,1,,,,,0,64,0,,
105840,note_on,,,,,0,0,2,,,,,0,,,63,34
105840,note_on,,,,,60,0,2,,,,,0,,,60,0
105840,control_change,,,,,5,0,1,,,,,0,64,95,,
105900,note_on,,,,,0,0,2,,,,,0,,,60,34
105900,note_on,,,,,60,0,2,,,,,0,,,63,0
105930,note_on,,,,,90,0,1,,,,,0,,,72,0
105940,set_tempo,,,,,110,1,0,,441176,,,,,,,
105960,note_on,,,,,30,0,1,,,,,0,,,67,50
105960,note_on,,,,,60,0,2,,,,,0,,,60,0
105960,note_on,,,,,0,0,2,,,,,0,,,55,31
106020,note_on,,,,,0,0,2,,,,,0,,,51,30
106020,note_on,,,,,60,0,2,,,,,0,,,55,0
106060,set_tempo,,,,,120,1,0,,434782,,,,,,,
106075,control_change,,,,,115,0,1,,,,,0,64,0,,
106080,note_on,,,,,0,0,2,,,,,0,,,48,33
106080,note_on,,,,,60,0,2,,,,,0,,,51,0
106080,control_change,,,,,0,0,1,,,,,0,64,95,,
106080,control_change,,,,,0,0,1,,,,,0,64,96,,
106080,note_on,,,,,0,0,1,,,,,0,,,67,54
106080,note_on,,,,,0,0,1,,,,,0,,,63,54
106080,note_on,,,,,0,0,1,,,,,0,,,75,54
106080,note_on,,,,,5,0,1,,,,,0,,,67,0
106125,note_on,,,,,45,0,2,,,,,0,,,48,0
106140,set_tempo,,,,,80,1,0,,430107,,,,,,,
106140,note_on,,,,,15,0,2,,,,,0,,,55,35
106190,set_tempo,,,,,50,1,0,,422535,,,,,,,
106200,note_on,,,,,60,0,2,,,,,0,,,55,0
106200,note_on,,,,,0,0,2,,,,,0,,,51,37
106260,note_on,,,,,0,0,2,,,,,0,,,55,39
106260,set_tempo,,,,,70,1,0,,416666,,,,,,,
106260,note_on,,,,,60,0,2,,,,,0,,,51,0
106315,control_change,,,,,235,0,1,,,,,0,64,0,,
106320,note_on,,,,,60,0,2,,,,,0,,,55,0
106320,note_on,,,,,0,0,2,,,,,0,,,60,39
106320,control_change,,,,,5,0,1,,,,,0,64,95,,
106370,set_tempo,,,,,110,1,0,,410958,,,,,,,
106380,note_on,,,,,0,0,2,,,,,0,,,55,39
106380,note_on,,,,,60,0,2,,,,,0,,,60,0
106440,note_on,,,,,0,0,1,,,,,0,,,75,51
106440,note_on,,,,,120,0,1,,,,,0,,,75,0
106440,note_on,,,,,60,0,2,,,,,0,,,55,0
106440,note_on,,,,,0,0,2,,,,,0,,,51,36
106490,set_tempo,,,,,120,1,0,,405405,,,,,,,
106500,note_on,,,,,0,0,2,,,,,0,,,55,34
106500,note_on,,,,,60,0,2,,,,,0,,,51,0
106530,note_on,,,,,90,0,1,,,,,0,,,75,0
106550,set_tempo,,,,,60,1,0,,400000,,,,,,,
106555,control_change,,,,,25,0,1,,,,,0,64,0,,
106560,note_on,,,,,60,0,2,,,,,0,,,55,0
106560,note_on,,,,,5,0,1,,,,,0,,,67,0
106560,note_on,,,,,0,0,1,,,,,0,,,63,0
106560,note_on,,,,,0,0,1,,,,,0,,,66,59
106560,note_on,,,,,0,0,2,,,,,0,,,45,42
106560,control_change,,,,,0,0,1,,,,,0,64,95,,
106560,note_on,,,,,0,0,1,,,,,0,,,75,59
106560,note_on,,,,,0,0,1,,,,,0,,,72,59
106605,note_on,,,,,45,0,2,,,,,0,,,45,0
106620,note_on,,,,,15,0,2,,,,,0,,,54,44
106680,note_on,,,,,0,0,2,,,,,0,,,50,44
106680,note_on,,,,,60,0,2,,,,,0,,,54,0
106740,note_on,,,,,60,0,2,,,,,0,,,50,0
106740,note_on,,,,,0,0,2,,,,,0,,,54,45
106795,control_change,,,,,235,0,1,,,,,0,64,0,,
106800,note_on,,,,,60,0,2,,,,,0,,,54,0
106800,control_change,,,,,0,0,1,,,,,0,64,95,,
106800,note_on,,,,,0,0,1,,,,,0,,,74,57
106800,note_on,,,,,5,0,1,,,,,0,,,75,0
106800,note_on,,,,,0,0,2,,,,,0,,,60,45
106810,set_tempo,,,,,260,1,0,,394736,,,,,,,
106860,note_on,,,,,60,0,2,,,,,0,,,60,0
106860,note_on,,,,,0,0,2,,,,,0,,,54,43
106890,note_on,,,,,90,0,1,,,,,0,,,74,0
106920,note_on,,,,,30,0,1,,,,,0,,,74,60
106920,set_tempo,,,,,110,1,0,,392156,,,,,,,
106920,note_on,,,,,0,0,2,,,,,0,,,50,40
106920,note_on,,,,,60,0,2,,,,,0,,,54,0
106980,note_on,,,,,0,0,2,,,,,0,,,54,39
106980,set_tempo,,,,,60,1,0,,408163,,,,,,,
106980,note_on,,,,,60,0,2,,,,,0,,,50,0
107010,note_on,,,,,90,0,1,,,,,0,,,74,0
107035,control_change,,,,,25,0,1,,,,,0,64,0,,
107040,note_on,,,,,5,0,1,,,,,0,,,72,0
107040,note_on,,,,,0,0,1,,,,,0,,,66,0
107040,note_on,,,,,0,0,1,,,,,0,,,62,66
107040,note_on,,,,,0,0,1,,,,,0,,,69,66
107040,note_on,,,,,0,0,1,,,,,0,,,74,66
107040,control_change,,,,,0,0,1,,,,,0,64,95,,
107040,note_on,,,,,0,0,2,,,,,0,,,42,46
107040,note_on,,,,,60,0,2,,,,,0,,,54,0
107070,set_tempo,,,,,90,1,0,,406779,,,,,,,
107080,set_tempo,,,,,10,1,0,,390879,,,,,,,
107085,note_on,,,,,45,0,2,,,,,0,,,42,0
107100,note_on,,,,,15,0,2,,,,,0,,,57,47
107150,set_tempo,,,,,70,1,0,,402684,,,,,,,
107160,note_on,,,,,60,0,2,,,,,0,,,57,0
107160,note_on,,,,,0,0,2,,,,,0,,,50,48
107220,note_on,,,,,60,0,2,,,,,0,,,50,0
107220,note_on,,,,,0,0,2,,,,,0,,,57,49
107275,control_change,,,,,235,0,1,,,,,0,64,0,,
107280,note_on,,,,,60,0,2,,,,,0,,,57,0
107280,note_on,,,,,0,0,2,,,,,0,,,60,49
107280,note_on,,,,,5,0,1,,,,,0,,,74,0
107280,note_on,,,,,0,0,1,,,,,0,,,72,56
107280,control_change,,,,,0,0,1,,,,,0,64,95,,
107300,set_tempo,,,,,150,1,0,,406779,,,,,,,
107340,note_on,,,,,0,0,2,,,,,0,,,57,48
107340,note_on,,,,,60,0,2,,,,,0,,,60,0
107370,note_on,,,,,90,0,1,,,,,0,,,72,0
107370,set_tempo,,,,,70,1,0,,413793,,,,,,,
107400,note_on,,,,,30,0,1,,,,,0,,,72,52
107400,note_on,,,,,0,0,2,,,,,0,,,50,45
107400,note_on,,,,,60,0,2,,,,,0,,,57,0
107460,note_on,,,,,0,0,2,,,,,0,,,57,43
107460,note_on,,,,,60,0,2,,,,,0,,,50,0
107515,control_change,,,,,115,0,1,,,,,0,64,0,,
107520,note_on,,,,,0,0,1,,,,,0,,,69,0
107520,note_on,,,,,5,0,1,,,,,0,,,72,0
107520,note_on,,,,,0,0,1,,,,,0,,,65,50
107520,note_on,,,,,0,0,1,,,,,0,,,59,50
107520,note_on,,,,,0,0,1,,,,,0,,,62,0
107520,note_on,,,,,60,0,2,,,,,0,,,57,0
107520,note_on,,,,,0,0,2,,,,,0,,,43,43
107520,control_change,,,,,0,0,1,,,,,0,64,95,,
107520,note_on,,,,,0,0,1,,,,,0,,,67,50
107530,set_tempo,,,,,160,1,0,,424028,,,,,,,
107565,note_on,,,,,45,0,2,,,,,0,,,43,0
107580,note_on,,,,,15,0,2,,,,,0,,,55,40
107640,note_on,,,,,0,0,2,,,,,0,,,50,38
107640,note_on,,,,,60,0,2,,,,,0,,,55,0
107700,note_on,,,,,0,0,2,,,,,0,,,55,35
107700,note_on,,,,,60,0,2,,,,,0,,,50,0
107750,set_tempo,,,,,220,1,0,,430107,,,,,,,
107755,control_change,,,,,235,0,1,,,,,0,64,0,,
107760,control_change,,,,,5,0,1,,,,,0,64,95,,
107760,note_on,,,,,60,0,2,,,,,0,,,55,0
107760,note_on,,,,,0,0,2,,,,,0,,,59,40
107820,note_on,,,,,60,0,2,,,,,0,,,59,0
107820,note_on,,,,,0,0,2,,,,,0,,,55,36
107850,note_on,,,,,90,0,1,,,,,0,,,67,0
107880,note_on,,,,,30,0,1,,,,,0,,,67,49
107880,note_on,,,,,0,0,2,,,,,0,,,50,32
107880,note_on,,,,,60,0,2,,,,,0,,,55,0
107910,set_tempo,,,,,160,1,0,,421052,,,,,,,
107940,note_on,,,,,60,0,2,,,,,0,,,50,0
107940,note_on,,,,,0,0,2,,,,,0,,,55,30
107960,set_tempo,,,,,50,1,0,,410958,,,,,,,
107995,control_change,,,,,115,0,1,,,,,0,64,0,,
108000,note_on,,,,,60,0,2,,,,,0,,,55,0
108000,note_on,,,,,0,0,2,,,,,0,,,44,38
108000,control_change,,,,,0,0,1,,,,,0,64,95,,
108000,note_on,,,,,0,0,1,,,,,0,,,72,49
108000,note_on,,,,,0,0,1,,,,,0,,,63,49
108000,note_on,,,,,0,0,1,,,,,0,,,60,49
108000,note_on,,,,,0,0,1,,,,,0,,,59,0
108000,note_on,,,,,0,0,1,,,,,0,,,65,0
108000,note_on,,,,,5,0,1,,,,,0,,,67,0
108020,set_tempo,,,,,60,1,0,,406779,,,,,,,
108045,note_on,,,,,45,0,2,,,,,0,,,44,0
108060,note_on,,,,,15,0,2,,,,,0,,,51,36
108110,set_tempo,,,,,90,1,0,,396039,,,,,,,
108120,note_on,,,,,0,0,2,,,,,0,,,48,33
108120,note_on,,,,,60,0,2,,,,,0,,,51,0
108180,note_on,,,,,0,0,2,,,,,0,,,51,32
108180,note_on,,,,,60,0,2,,,,,0,,,48,0
108235,control_change,,,,,235,0,1,,,,,0,64,0,,
108240,note_on,,,,,0,0,2,,,,,0,,,56,39
108240,note_on,,,,,60,0,2,,,,,0,,,51,0
108240,control_change,,,,,5,0,1,,,,,0,64,95,,
108300,note_on,,,,,60,0,2,,,,,0,,,56,0
108300,note_on,,,,,0,0,2,,,,,0,,,51,36
108330,note_on,,,,,0,0,1,,,,,0,,,63,0
108330,note_on,,,,,0,0,1,,,,,0,,,60,0
108330,note_on,,,,,90,0,1,,,,,0,,,72,0
108360,note_on,,,,,30,0,1,,,,,0,,,72,50
108360,note_on,,,,,0,0,2,,,,,0,,,48,34
108360,note_on,,,,,60,0,2,,,,,0,,,51,0
108420,note_on,,,,,60,0,2,,,,,0,,,48,0
108420,note_on,,,,,0,0,2,,,,,0,,,51,32
108475,control_change,,,,,115,0,1,,,,,0,64,0,,
108480,note_on,,,,,0,0,2,,,,,0,,,41,32
108480,note_on,,,,,5,0,1,,,,,0,,,72,0
108480,note_on,,,,,0,0,1,,,,,0,,,73,50
108480,control_change,,,,,0,0,1,,,,,0,64,95,,
108480,note_on,,,,,60,0,2,,,,,0,,,51,0
108500,set_tempo,,,,,390,1,0,,405405,,,,,,,
108525,note_on,,,,,45,0,2,,,,,0,,,41,0
108540,set_tempo,,,,,40,1,0,,413793,,,,,,,
108540,note_on,,,,,15,0,2,,,,,0,,,56,34
108600,note_on,,,,,0,0,2,,,,,0,,,53,36
108600,note_on,,,,,60,0,2,,,,,0,,,56,0
108640,set_tempo,,,,,100,1,0,,425531,,,,,,,
108660,note_on,,,,,60,0,2,,,,,0,,,53,0
108660,note_on,,,,,0,0,2,,,,,0,,,56,39
108680,set_tempo,,,,,40,1,0,,434782,,,,,,,
108715,control_change,,,,,235,0,1,,,,,0,64,0,,
108720,note_on,,,,,60,0,2,,,,,0,,,56,0
108720,note_on,,,,,0,0,2,,,,,0,,,61,39
108720,note_on,,,,,5,0,1,,,,,0,,,73,0
108720,control_change,,,,,0,0,1,,,,,0,64,95,,
108720,set_tempo,,,,,40,1,0,,452830,,,,,,,
108744,note_on,,,,,24,0,1,,,,,0,,,75,51
108768,note_on,,,,,24,0,1,,,,,0,,,75,0
108768,note_on,,,,,0,0,1,,,,,0,,,77,53
108770,set_tempo,,,,,50,1,0,,468750,,,,,,,
108780,set_tempo,,,,,10,1,0,,476190,,,,,,,
108780,note_on,,,,,60,0,2,,,,,0,,,61,0
108780,note_on,,,,,0,0,2,,,,,0,,,56,36
108792,note_on,,,,,24,0,1,,,,,0,,,77,0
108792,note_on,,,,,0,0,1,,,,,0,,,79,53
108816,note_on,,,,,24,0,1,,,,,0,,,79,0
108816,note_on,,,,,0,0,1,,,,,0,,,80,53
108835,note_on,,,,,19,0,1,,,,,0,,,80,0
108840,note_on,,,,,60,0,2,,,,,0,,,56,0
108840,note_on,,,,,5,0,1,,,,,0,,,82,55
108840,note_on,,,,,0,0,2,,,,,0,,,53,34
108860,note_on,,,,,20,0,1,,,,,0,,,82,0
108860,note_on,,,,,0,0,1,,,,,0,,,80,55
108870,set_tempo,,,,,90,1,0,,489795,,,,,,,
108880,note_on,,,,,20,0,1,,,,,0,,,80,0
108880,note_on,,,,,0,0,1,,,,,0,,,79,55
108900,note_on,,,,,60,0,2,,,,,0,,,53,0
108900,note_on,,,,,0,0,2,,,,,0,,,56,34
108900,note_on,,,,,0,0,1,,,,,0,,,77,54
108900,note_on,,,,,20,0,1,,,,,0,,,79,0
108910,set_tempo,,,,,40,1,0,,493827,,,,,,,
108920,note_on,,,,,0,0,1,,,,,0,,,75,51
108920,set_tempo,,,,,10,1,0,,495867,,,,,,,
108920,note_on,,,,,20,0,1,,,,,0,,,77,0
108940,note_on,,,,,0,0,1,,,,,0,,,73,50
108940,note_on,,,,,20,0,1,,,,,0,,,75,0
108955,control_change,,,,,15,0,1,,,,,0,64,0,,
108960,note_on,,,,,5,0,1,,,,,0,,,73,0
108960,set_tempo,,,,,40,1,0,,481927,,,,,,,
108960,note_on,,,,,60,0,2,,,,,0,,,56,0
108960,note_on,,,,,0,0,2,,,,,0,,,43,40
108960,note_on,,,,,0,0,1,,,,,0,,,72,49
108960,control_change,,,,,0,0,1,,,,,0,64,95,,
109005,note_on,,,,,45,0,2,,,,,0,,,43,0
109020,note_on,,,,,15,0,2,,,,,0,,,51,40
109020,set_tempo,,,,,60,1,0,,468750,,,,,,,
109030,set_tempo,,,,,10,1,0,,463320,,,,,,,
109070,set_tempo,,,,,40,1,0,,452830,,,,,,,
109080,note_on,,,,,0,0,2,,,,,0,,,55,37
109080,note_on,,,,,60,0,2,,,,,0,,,51,0
109100,set_tempo,,,,,30,1,0,,447761,,,,,,,
109140,note_on,,,,,0,0,2,,,,,0,,,60,36
109140,note_on,,,,,60,0,2,,,,,0,,,55,0
109150,set_tempo,,,,,50,1,0,,442804,,,,,,,
109180,set_tempo,,,,,30,1,0,,437956,,,,,,,
109185,note_on,,,,,45,0,2,,,,,0,,,60,0
109195,control_change,,,,,235,0,1,,,,,0,64,0,,
109200,note_on,,,,,5,0,1,,,,,0,,,72,0
109200,note_on,,,,,15,0,2,,,,,0,,,43,37
109200,control_change,,,,,0,0,1,,,,,0,64,95,,
109200,note_on,,,,,0,0,1,,,,,0,,,75,55
109200,note_on,,,,,0,0,1,,,,,0,,,71,55
109245,note_on,,,,,45,0,2,,,,,0,,,43,0
109260,set_tempo,,,,,80,1,0,,441176,,,,,,,
109260,note_on,,,,,15,0,2,,,,,0,,,53,36
109310,set_tempo,,,,,50,1,0,,452830,,,,,,,
109320,note_on,,,,,60,0,2,,,,,0,,,53,0
109320,note_on,,,,,0,0,2,,,,,0,,,55,34
109370,set_tempo,,,,,60,1,0,,459770,,,,,,,
109380,note_on,,,,,60,0,2,,,,,0,,,55,0
109380,note_on,,,,,0,0,1,,,,,0,,,74,44
109380,note_on,,,,,0,0,2,,,,,0,,,62,38
109380,note_on,,,,,180,0,1,,,,,0,,,75,0
109420,set_tempo,,,,,50,1,0,,476190,,,,,,,
109425,note_on,,,,,45,0,2,,,,,0,,,62,0
109435,control_change,,,,,55,0,1,,,,,0,64,0,,
109440,note_on,,,,,0,0,1,,,,,0,,,72,42
109440,note_on,,,,,0,0,1,,,,,0,,,71,0
109440,note_on,,,,,5,0,1,,,,,0,,,74,0
109440,control_change,,,,,0,0,1,,,,,0,64,95,,
109440,note_on,,,,,15,0,2,,,,,0,,,48,39
109500,note_on,,,,,60,0,2,,,,,0,,,48,0
109500,note_on,,,,,0,0,2,,,,,0,,,51,37
109560,note_on,,,,,60,0,2,,,,,0,,,51,0
109560,note_on,,,,,0,0,2,,,,,0,,,55,36
109620,note_on,,,,,60,0,2,,,,,0,,,55,0
109620,set_tempo,,,,,200,1,0,,485829,,,,,,,
109620,note_on,,,,,0,0,2,,,,,0,,,63,32
109675,control_change,,,,,235,0,1,,,,,0,64,0,,
109680,control_change,,,,,5,0,1,,,,,0,64,95,,
109680,note_on,,,,,60,0,2,,,,,0,,,63,0
109680,note_on,,,,,0,0,2,,,,,0,,,60,31
109730,set_tempo,,,,,110,1,0,,500000,,,,,,,
109740,note_on,,,,,60,0,2,,,,,0,,,60,0
109770,note_on,,,,,90,0,1,,,,,0,,,72,0
109800,note_on,,,,,60,0,2,,,,,0,,,43,106
109800,note_on,,,,,0,0,2,,,,,0,,,55,106
109800,set_tempo,,,,,70,1,0,,437956,,,,,,,
109915,control_change,,,,,145,0,1,,,,,0,64,0,,
109920,control_change,,,,,0,0,1,,,,,0,64,95,,
109920,note_on,,,,,120,0,2,,,,,0,,,55,0
109920,note_on,,,,,0,0,2,,,,,0,,,43,0
109920,control_change,,,,,5,0,1,,,,,0,64,96,,
109920,note_on,,,,,0,0,2,,,,,0,,,51,118
109920,note_on,,,,,0,0,2,,,,,0,,,63,118
109930,set_tempo,,,,,130,1,0,,363636,,,,,,,
109970,set_tempo,,,,,40,1,0,,358208,,,,,,,
109980,note_on,,,,,60,0,1,,,,,0,,,67,110
110020,set_tempo,,,,,50,1,0,,353982,,,,,,,
110040,note_on,,,,,0,0,1,,,,,0,,,72,111
110040,note_on,,,,,60,0,1,,,,,0,,,67,0
110060,set_tempo,,,,,40,1,0,,350877,,,,,,,
110100,note_on,,,,,0,0,1,,,,,0,,,75,118
110100,note_on,,,,,60,0,1,,,,,0,,,72,0
110130,set_tempo,,,,,70,1,0,,346820,,,,,,,
110155,control_change,,,,,55,0,1,,,,,0,64,0,,
110160,note_on,,,,,5,0,1,,,,,0,,,75,0
110160,control_change,,,,,0,0,1,,,,,0,64,95,,
110160,note_on,,,,,0,0,1,,,,,0,,,79,123
110220,note_on,,,,,0,0,1,,,,,0,,,91,115
110220,note_on,,,,,0,0,1,,,,,0,,,87,115
110220,note_on,,,,,60,0,1,,,,,0,,,79,0
110250,note_on,,,,,0,0,2,,,,,0,,,51,0
110250,note_on,,,,,330,0,2,,,,,0,,,63,0
110260,set_tempo,,,,,130,1,0,,344827,,,,,,,
110265,note_on,,,,,0,0,1,,,,,0,,,91,0
110265,note_on,,,,,45,0,1,,,,,0,,,87,0
110280,note_on,,,,,15,0,1,,,,,0,,,79,117
110280,note_on,,,,,0,0,2,,,,,0,,,63,113
110280,note_on,,,,,30,0,2,,,,,0,,,51,113
110340,note_on,,,,,0,0,1,,,,,0,,,87,104
110340,note_on,,,,,0,0,1,,,,,0,,,91,104
110340,note_on,,,,,60,0,1,,,,,0,,,79,0
110385,note_on,,,,,0,0,1,,,,,0,,,91,0
110385,note_on,,,,,45,0,1,,,,,0,,,87,0
110395,control_change,,,,,10,0,1,,,,,0,64,0,,
110400,note_on,,,,,120,0,2,,,,,0,,,63,0
110400,note_on,,,,,0,0,2,,,,,0,,,51,0
110400,note_on,,,,,0,0,2,,,,,0,,,50,119
110400,note_on,,,,,0,0,2,,,,,0,,,62,119
110400,control_change,,,,,5,0,1,,,,,0,64,95,,
110440,set_tempo,,,,,180,1,0,,341880,,,,,,,
110460,note_on,,,,,60,0,1,,,,,0,,,69,110
110520,note_on,,,,,0,0,1,,,,,0,,,74,111
110520,note_on,,,,,60,0,1,,,,,0,,,69,0
110530,set_tempo,,,,,90,1,0,,340909,,,,,,,
110570,set_tempo,,,,,40,1,0,,338028,,,,,,,
110580,note_on,,,,,0,0,1,,,,,0,,,78,118
110580,note_on,,,,,60,0,1,,,,,0,,,74,0
110635,control_change,,,,,55,0,1,,,,,0,64,0,,
110640,note_on,,,,,0,0,1,,,,,0,,,81,123
110640,control_change,,,,,0,0,1,,,,,0,64,95,,
110640,set_tempo,,,,,70,1,0,,335195,,,,,,,
110640,note_on,,,,,5,0,1,,,,,0,,,78,0
110700,note_on,,,,,60,0,1,,,,,0,,,81,0
110700,note_on,,,,,0,0,1,,,,,0,,,93,115
110700,note_on,,,,,0,0,1,,,,,0,,,90,115
110730,note_on,,,,,330,0,2,,,,,0,,,62,0
110730,note_on,,,,,0,0,2,,,,,0,,,50,0
110745,note_on,,,,,45,0,1,,,,,0,,,90,0
110745,note_on,,,,,0,0,1,,,,,0,,,93,0
110760,note_on,,,,,15,0,1,,,,,0,,,81,123
110760,note_on,,,,,0,0,2,,,,,0,,,62,114
110760,note_on,,,,,30,0,2,,,,,0,,,50,114
110770,set_tempo,,,,,130,1,0,,333333,,,,,,,
110820,note_on,,,,,0,0,1,,,,,0,,,93,115
110820,note_on,,,,,0,0,1,,,,,0,,,90,115
110820,note_on,,,,,60,0,1,,,,,0,,,81,0
110865,note_on,,,,,45,0,1,,,,,0,,,93,0
110865,note_on,,,,,0,0,1,,,,,0,,,90,0
110875,control_change,,,,,10,0,1,,,,,0,64,0,,
110880,control_change,,,,,5,0,1,,,,,0,64,95,,
110880,note_on,,,,,0,0,2,,,,,0,,,48,125
110880,note_on,,,,,120,0,2,,,,,0,,,62,0
110880,note_on,,,,,0,0,2,,,,,0,,,60,125
110880,note_on,,,,,0,0,2,,,,,0,,,50,0
110940,note_on,,,,,60,0,1,,,,,0,,,72,110
111000,note_on,,,,,60,0,1,,,,,0,,,72,0
111000,note_on,,,,,0,0,1,,,,,0,,,75,111
111060,set_tempo,,,,,290,1,0,,333333,,,,,,,
111060,note_on,,,,,0,0,1,,,,,0,,,79,118
111060,note_on,,,,,60,0,1,,,,,0,,,75,0
111070,set_tempo,,,,,10,1,0,,336134,,,,,,,
111100,set_tempo,,,,,30,1,0,,339943,,,,,,,
111115,control_change,,,,,55,0,1,,,,,0,64,0,,
111120,control_change,,,,,0,0,1,,,,,0,64,95,,
111120,note_on,,,,,0,0,1,,,,,0,,,84,123
111120,note_on,,,,,5,0,1,,,,,0,,,79,0
111130,set_tempo,,,,,30,1,0,,340909,,,,,,,
111160,set_tempo,,,,,30,1,0,,343839,,,,,,,
111180,note_on,,,,,0,0,1,,,,,0,,,91,118
111180,note_on,,,,,0,0,1,,,,,0,,,96,118
111180,note_on,,,,,60,0,1,,,,,0,,,84,0
111180,note_on,,,,,0,0,1,,,,,0,,,87,118
111200,set_tempo,,,,,40,1,0,,348837,,,,,,,
111210,note_on,,,,,0,0,2,,,,,0,,,48,0
111210,note_on,,,,,330,0,2,,,,,0,,,60,0
111225,note_on,,,,,45,0,1,,,,,0,,,87,0
111225,note_on,,,,,0,0,1,,,,,0,,,91,0
111225,note_on,,,,,0,0,1,,,,,0,,,96,0
111240,note_on,,,,,0,0,2,,,,,0,,,60,118
111240,note_on,,,,,30,0,2,,,,,0,,,48,118
111240,note_on,,,,,15,0,1,,,,,0,,,84,119
111280,set_tempo,,,,,80,1,0,,359281,,,,,,,
111285,note_on,,,,,45,0,1,,,,,0,,,84,0
111300,note_on,,,,,0,0,1,,,,,0,,,91,125
111300,note_on,,,,,15,0,1,,,,,0,,,96,125
111300,note_on,,,,,0,0,1,,,,,0,,,87,125
111340,set_tempo,,,,,60,1,0,,1000000,,,,,,,
111345,note_on,,,,,45,0,1,,,,,0,,,87,0
111345,note_on,,,,,0,0,1,,,,,0,,,91,0
111345,note_on,,,,,0,0,1,,,,,0,,,96,0
111345,note_on,,,,,0,0,1,,,,,0,,,74,125
111350,note_on,,,,,5,0,1,,,,,0,,,74,0
111350,note_on,,,,,0,0,1,,,,,0,,,79,127
111355,note_on,,,,,5,0,1,,,,,0,,,79,0
111355,note_on,,,,,0,0,1,,,,,0,,,83,127
111355,control_change,,,,,0,0,1,,,,,0,64,0,,
111360,set_tempo,,,,,20,1,0,,365853,,,,,,,
111360,note_on,,,,,120,0,2,,,,,0,,,60,0
111360,note_on,,,,,0,0,2,,,,,0,,,48,0
111360,note_on,,,,,0,0,2,,,,,0,,,55,126
111360,note_on,,,,,0,0,2,,,,,0,,,43,126
111360,note_on,,,,,5,0,1,,,,,0,,,83,0
111360,note_on,,,,,0,0,1,,,,,0,,,98,127
111360,control_change,,,,,0,0,1,,,,,0,64,96,,
111390,set_tempo,,,,,30,1,0,,365853,,,,,,,
111420,note_on,,,,,60,0,1,,,,,0,,,98,0
111420,note_on,,,,,0,0,1,,,,,0,,,95,121
111450,set_tempo,,,,,60,1,0,,370370,,,,,,,
111480,note_on,,,,,0,0,1,,,,,0,,,91,116
111480,note_on,,,,,60,0,1,,,,,0,,,95,0
111540,note_on,,,,,0,0,1,,,,,0,,,86,110
111540,note_on,,,,,60,0,1,,,,,0,,,91,0
111540,set_tempo,,,,,90,1,0,,373831,,,,,,,
111585,note_on,,,,,45,0,1,,,,,0,,,86,0
111595,control_change,,,,,10,0,1,,,,,0,64,0,,
111600,control_change,,,,,0,0,1,,,,,0,64,96,,
111600,note_on,,,,,5,0,1,,,,,0,,,86,119
111600,set_tempo,,,,,60,1,0,,378548,,,,,,,
111660,note_on,,,,,60,0,1,,,,,0,,,86,0
111660,note_on,,,,,0,0,1,,,,,0,,,83,111
111690,note_on,,,,,330,0,2,,,,,0,,,55,0
111690,note_on,,,,,0,0,2,,,,,0,,,43,0
111720,note_on,,,,,0,0,1,,,,,0,,,79,107
111720,note_on,,,,,60,0,1,,,,,0,,,83,0
111720,note_on,,,,,30,0,2,,,,,0,,,55,118
111720,note_on,,,,,0,0,2,,,,,0,,,43,118
111780,note_on,,,,,60,0,1,,,,,0,,,79,0
111780,note_on,,,,,0,0,1,,,,,0,,,74,105
111800,set_tempo,,,,,200,1,0,,382165,,,,,,,
111825,note_on,,,,,45,0,1,,,,,0,,,74,0
111835,control_change,,,,,10,0,1,,,,,0,64,0,,
111840,control_change,,,,,0,0,1,,,,,0,64,95,,
111840,note_on,,,,,0,0,2,,,,,0,,,61,118
111840,note_on,,,,,0,0,2,,,,,0,,,49,118
111840,control_change,,,,,5,0,1,,,,,0,64,96,,
111840,note_on,,,,,120,0,2,,,,,0,,,43,0
111840,note_on,,,,,0,0,2,,,,,0,,,55,0
111840,set_tempo,,,,,40,1,0,,365853,,,,,,,
111850,set_tempo,,,,,10,1,0,,363636,,,,,,,
111860,set_tempo,,,,,10,1,0,,360360,,,,,,,
111890,set_tempo,,,,,30,1,0,,357142,,,,,,,
111900,note_on,,,,,60,0,1,,,,,0,,,65,110
111940,set_tempo,,,,,50,1,0,,351906,,,,,,,
111960,note_on,,,,,60,0,1,,,,,0,,,65,0
111960,note_on,,,,,0,0,1,,,,,0,,,70,111
112010,set_tempo,,,,,70,1,0,,348837,,,,,,,
112020,note_on,,,,,0,0,1,,,,,0,,,73,118
112020,note_on,,,,,60,0,1,,,,,0,,,70,0
112075,control_change,,,,,55,0,1,,,,,0,64,0,,
112080,control_change,,,,,0,0,1,,,,,0,64,95,,
112080,note_on,,,,,5,0,1,,,,,0,,,73,0
112080,note_on,,,,,0,0,1,,,,,0,,,77,123
112140,note_on,,,,,60,0,1,,,,,0,,,77,0
112140,note_on,,,,,0,0,1,,,,,0,,,89,115
112140,note_on,,,,,0,0,1,,,,,0,,,85,115
112170,note_on,,,,,0,0,2,,,,,0,,,49,0
112170,note_on,,,,,330,0,2,,,,,0,,,61,0
112185,note_on,,,,,0,0,1,,,,,0,,,89,0
112185,note_on,,,,,45,0,1,,,,,0,,,85,0
112190,set_tempo,,,,,180,1,0,,345821,,,,,,,
112200,note_on,,,,,15,0,1,,,,,0,,,77,117
112200,note_on,,,,,0,0,2,,,,,0,,,61,113
112200,note_on,,,,,30,0,2,,,,,0,,,49,113
112260,note_on,,,,,60,0,1,,,,,0,,,77,0
112260,note_on,,,,,0,0,1,,,,,0,,,85,104
112260,note_on,,,,,0,0,1,,,,,0,,,89,104
112305,note_on,,,,,0,0,1,,,,,0,,,89,0
112305,note_on,,,,,45,0,1,,,,,0,,,85,0
112310,set_tempo,,,,,120,1,0,,341880,,,,,,,
112315,control_change,,,,,10,0,1,,,,,0,64,0,,
112320,note_on,,,,,0,0,2,,,,,0,,,49,0
112320,control_change,,,,,5,0,1,,,,,0,64,95,,
112320,note_on,,,,,120,0,2,,,,,0,,,61,0
112320,note_on,,,,,0,0,2,,,,,0,,,60,119
112320,note_on,,,,,0,0,2,,,,,0,,,48,119
112380,note_on,,,,,60,0,1,,,,,0,,,67,110
112440,note_on,,,,,60,0,1,,,,,0,,,67,0
112440,note_on,,,,,0,0,1,,,,,0,,,72,111
112490,set_tempo,,,,,180,1,0,,338028,,,,,,,
112500,note_on,,,,,60,0,1,,,,,0,,,72,0
112500,note_on,,,,,0,0,1,,,,,0,,,76,118
112555,control_change,,,,,55,0,1,,,,,0,64,0,,
112560,note_on,,,,,5,0,1,,,,,0,,,76,0
112560,control_change,,,,,0,0,1,,,,,0,64,95,,
112560,note_on,,,,,0,0,1,,,,,0,,,79,123
112580,set_tempo,,,,,90,1,0,,334261,,,,,,,
112620,note_on,,,,,0,0,1,,,,,0,,,88,115
112620,note_on,,,,,60,0,1,,,,,0,,,79,0
112620,note_on,,,,,0,0,1,,,,,0,,,91,115
112650,note_on,,,,,330,0,2,,,,,0,,,60,0
112650,note_on,,,,,0,0,2,,,,,0,,,48,0
112665,note_on,,,,,45,0,1,,,,,0,,,88,0
112665,note_on,,,,,0,0,1,,,,,0,,,91,0
112680,note_on,,,,,0,0,2,,,,,0,,,60,114
112680,note_on,,,,,15,0,1,,,,,0,,,79,123
112680,note_on,,,,,30,0,2,,,,,0,,,48,114
112690,set_tempo,,,,,110,1,0,,333333,,,,,,,
112740,note_on,,,,,60,0,1,,,,,0,,,79,0
112740,note_on,,,,,0,0,1,,,,,0,,,88,115
112740,note_on,,,,,0,0,1,,,,,0,,,91,115
112785,note_on,,,,,0,0,1,,,,,0,,,88,0
112785,note_on,,,,,45,0,1,,,,,0,,,91,0
112795,control_change,,,,,10,0,1,,,,,0,64,0,,
112800,control_change,,,,,5,0,1,,,,,0,64,95,,
112800,note_on,,,,,120,0,2,,,,,0,,,60,0
112800,note_on,,,,,0,0,2,,,,,0,,,48,0
112800,note_on,,,,,0,0,2,,,,,0,,,46,125
112800,note_on,,,,,0,0,2,,,,,0,,,58,125
112860,note_on,,,,,60,0,1,,,,,0,,,70,110
112920,note_on,,,,,60,0,1,,,,,0,,,70,0
112920,note_on,,,,,0,0,1,,,,,0,,,73,111
112980,note_on,,,,,0,0,1,,,,,0,,,77,118
112980,note_on,,,,,60,0,1,,,,,0,,,73,0
113030,set_tempo,,,,,340,1,0,,335195,,,,,,,
113035,control_change,,,,,55,0,1,,,,,0,64,0,,
113040,control_change,,,,,0,0,1,,,,,0,64,95,,
113040,note_on,,,,,0,0,1,,,,,0,,,82,123
113040,note_on,,,,,5,0,1,,,,,0,,,77,0
113040,set_tempo,,,,,10,1,0,,338028,,,,,,,
113080,set_tempo,,,,,40,1,0,,340909,,,,,,,
113100,note_on,,,,,0,0,1,,,,,0,,,85,118
113100,note_on,,,,,0,0,1,,,,,0,,,89,118
113100,note_on,,,,,0,0,1,,,,,0,,,94,118
113100,note_on,,,,,60,0,1,,,,,0,,,82,0
113130,note_on,,,,,330,0,2,,,,,0,,,58,0
113130,note_on,,,,,0,0,2,,,,,0,,,46,0
113140,set_tempo,,,,,60,1,0,,348837,,,,,,,
113145,note_on,,,,,0,0,1,,,,,0,,,89,0
113145,note_on,,,,,0,0,1,,,,,0,,,94,0
113145,note_on,,,,,45,0,1,,,,,0,,,85,0
113160,note_on,,,,,30,0,2,,,,,0,,,46,118
113160,note_on,,,,,0,0,2,,,,,0,,,58,118
113160,note_on,,,,,15,0,1,,,,,0,,,82,119
113200,set_tempo,,,,,60,1,0,,359281,,,,,,,
113205,note_on,,,,,45,0,1,,,,,0,,,82,0
113220,note_on,,,,,0,0,1,,,,,0,,,85,125
113220,note_on,,,,,15,0,1,,,,,0,,,94,125
113220,note_on,,,,,0,0,1,,,,,0,,,89,125
113260,set_tempo,,,,,60,1,0,,1000000,,,,,,,
113265,note_on,,,,,0,0,1,,,,,0,,,94,0
113265,note_on,,,,,0,0,1,,,,,0,,,72,124
113265,note_on,,,,,45,0,1,,,,,0,,,85,0
113265,note_on,,,,,0,0,1,,,,,0,,,89,0
113270,note_on,,,,,0,0,1,,,,,0,,,77,125
113270,note_on,,,,,5,0,1,,,,,0,,,72,0
113275,note_on,,,,,0,0,1,,,,,0,,,81,125
113275,control_change,,,,,0,0,1,,,,,0,64,0,,
113275,note_on,,,,,5,0,1,,,,,0,,,77,0
113280,note_on,,,,,5,0,1,,,,,0,,,81,0
113280,set_tempo,,,,,20,1,0,,365853,,,,,,,
113280,note_on,,,,,0,0,2,,,,,0,,,53,126
113280,note_on,,,,,0,0,2,,,,,0,,,41,126
113280,note_on,,,,,0,0,2,,,,,0,,,46,0
113280,note_on,,,,,120,0,2,,,,,0,,,58,0
113280,note_on,,,,,0,0,1,,,,,0,,,96,127
113280,control_change,,,,,0,0,1,,,,,0,64,96,,
113310,set_tempo,,,,,30,1,0,,366972,,,,,,,
113340,note_on,,,,,60,0,1,,,,,0,,,96,0
113340,note_on,,,,,0,0,1,,,,,0,,,93,122
113390,set_tempo,,,,,80,1,0,,371517,,,,,,,
113400,note_on,,,,,60,0,1,,,,,0,,,93,0
113400,note_on,,,,,0,0,1,,,,,0,,,89,115
113430,set_tempo,,,,,40,1,0,,375000,,,,,,,
113460,note_on,,,,,60,0,1,,,,,0,,,89,0
113460,note_on,,,,,0,0,1,,,,,0,,,84,111
113505,note_on,,,,,45,0,1,,,,,0,,,84,0
113515,control_change,,,,,10,0,1,,,,,0,64,0,,
113520,note_on,,,,,5,0,1,,,,,0,,,84,116
113520,control_change,,,,,0,0,1,,,,,0,64,96,,
113580,note_on,,,,,60,0,1,,,,,0,,,84,0
113580,note_on,,,,,0,0,1,,,,,0,,,81,112
113610,note_on,,,,,330,0,2,,,,,0,,,53,0
113610,note_on,,,,,0,0,2,,,,,0,,,41,0
113640,note_on,,,,,30,0,2,,,,,0,,,53,118
113640,note_on,,,,,0,0,1,,,,,0,,,77,106
113640,note_on,,,,,0,0,2,,,,,0,,,41,118
113640,note_on,,,,,60,0,1,,,,,0,,,81,0
113700,note_on,,,,,60,0,1,,,,,0,,,77,0
113700,note_on,,,,,0,0,1,,,,,0,,,72,103
113720,set_tempo,,,,,290,1,0,,372670,,,,,,,
113745,note_on,,,,,45,0,1,,,,,0,,,72,0
113755,control_change,,,,,10,0,1,,,,,0,64,0,,
113760,note_on,,,,,0,0,2,,,,,0,,,59,126
113760,control_change,,,,,5,0,1,,,,,0,64,96,,
113760,note_on,,,,,0,0,2,,,,,0,,,47,126
113760,note_on,,,,,0,0,2,,,,,0,,,53,126
113760,note_on,,,,,0,0,2,,,,,0,,,56,126
113760,note_on,,,,,120,0,2,,,,,0,,,41,0
113760,note_on,,,,,0,0,2,,,,,0,,,53,0
113810,set_tempo,,,,,90,1,0,,376175,,,,,,,
113820,note_on,,,,,60,0,1,,,,,0,,,62,122
113880,note_on,,,,,0,0,1,,,,,0,,,65,122
113880,note_on,,,,,60,0,1,,,,,0,,,62,0
113890,set_tempo,,,,,80,1,0,,380952,,,,,,,
113940,note_on,,,,,60,0,1,,,,,0,,,65,0
113940,note_on,,,,,0,0,1,,,,,0,,,68,125
113985,note_on,,,,,45,0,1,,,,,0,,,68,0
113995,control_change,,,,,10,0,1,,,,,0,64,0,,
114000,note_on,,,,,5,0,1,,,,,0,,,74,124
114000,control_change,,,,,0,0,1,,,,,0,64,95,,
114050,set_tempo,,,,,160,1,0,,385852,,,,,,,
114060,note_on,,,,,60,0,1,,,,,0,,,74,0
114060,note_on,,,,,0,0,1,,,,,0,,,80,116
114060,note_on,,,,,0,0,1,,,,,0,,,86,116
114060,note_on,,,,,0,0,1,,,,,0,,,77,116
114090,note_on,,,,,0,0,2,,,,,0,,,59,0
114090,note_on,,,,,0,0,2,,,,,0,,,56,0
114090,note_on,,,,,0,0,2,,,,,0,,,53,0
114090,note_on,,,,,330,0,2,,,,,0,,,47,0
114105,note_on,,,,,45,0,1,,,,,0,,,80,0
114105,note_on,,,,,0,0,1,,,,,0,,,77,0
114105,note_on,,,,,0,0,1,,,,,0,,,86,0
114120,note_on,,,,,30,0,2,,,,,0,,,47,118
114120,note_on,,,,,0,0,2,,,,,0,,,56,118
114120,note_on,,,,,0,0,2,,,,,0,,,53,118
114120,note_on,,,,,15,0,1,,,,,0,,,74,121
114120,note_on,,,,,0,0,2,,,,,0,,,59,118
114130,set_tempo,,,,,80,1,0,,392156,,,,,,,
114180,note_on,,,,,60,0,1,,,,,0,,,74,0
114180,note_on,,,,,0,0,1,,,,,0,,,80,109
114180,note_on,,,,,0,0,1,,,,,0,,,86,109
114180,note_on,,,,,0,0,1,,,,,0,,,77,109
114225,note_on,,,,,0,0,1,,,,,0,,,86,0
114225,note_on,,,,,45,0,1,,,,,0,,,77,0
114225,note_on,,,,,0,0,1,,,,,0,,,80,0
114225,note_on,,,,,0,0,2,,,,,0,,,56,0
114225,note_on,,,,,0,0,2,,,,,0,,,53,0
114225,note_on,,,,,105,0,2,,,,,0,,,59,0
114225,note_on,,,,,0,0,2,,,,,0,,,47,0
114235,control_change,,,,,10,0,1,,,,,0,64,0,,
114240,note_on,,,,,0,0,2,,,,,0,,,47,126
114240,note_on,,,,,0,0,2,,,,,0,,,53,126
114240,note_on,,,,,0,0,2,,,,,0,,,55,126
114240,note_on,,,,,15,0,2,,,,,0,,,59,126
114240,control_change,,,,,5,0,1,,,,,0,64,95,,
114280,set_tempo,,,,,150,1,0,,380952,,,,,,,
114300,note_on,,,,,60,0,1,,,,,0,,,62,124
114360,note_on,,,,,60,0,1,,,,,0,,,62,0
114360,note_on,,,,,0,0,1,,,,,0,,,65,126
114370,set_tempo,,,,,90,1,0,,373831,,,,,,,
114410,set_tempo,,,,,40,1,0,,368098,,,,,,,
114420,note_on,,,,,0,0,1,,,,,0,,,67,127
114420,note_on,,,,,60,0,1,,,,,0,,,65,0
114465,note_on,,,,,45,0,1,,,,,0,,,67,0
114475,control_change,,,,,10,0,1,,,,,0,64,0,,
114480,control_change,,,,,0,0,1,,,,,0,64,95,,
114480,note_on,,,,,5,0,1,,,,,0,,,74,124
114500,set_tempo,,,,,90,1,0,,373831,,,,,,,
114540,note_on,,,,,60,0,1,,,,,0,,,74,0
114540,note_on,,,,,0,0,1,,,,,0,,,86,116
114540,note_on,,,,,0,0,1,,,,,0,,,77,116
114540,note_on,,,,,0,0,1,,,,,0,,,79,116
114550,set_tempo,,,,,50,1,0,,378548,,,,,,,
114570,note_on,,,,,0,0,2,,,,,0,,,55,0
114570,note_on,,,,,0,0,2,,,,,0,,,59,0
114570,note_on,,,,,330,0,2,,,,,0,,,47,0
114570,note_on,,,,,0,0,2,,,,,0,,,53,0
114585,note_on,,,,,0,0,1,,,,,0,,,77,0
114585,note_on,,,,,45,0,1,,,,,0,,,79,0
114585,note_on,,,,,0,0,1,,,,,0,,,86,0
114590,set_tempo,,,,,40,1,0,,388349,,,,,,,
114600,note_on,,,,,15,0,1,,,,,0,,,74,121
114600,note_on,,,,,30,0,2,,,,,0,,,59,118
114600,note_on,,,,,0,0,2,,,,,0,,,55,118
114600,note_on,,,,,0,0,2,,,,,0,,,53,118
114600,note_on,,,,,0,0,2,,,,,0,,,47,118
114660,note_on,,,,,60,0,1,,,,,0,,,74,0
114660,note_on,,,,,0,0,1,,,,,0,,,86,126
114660,note_on,,,,,0,0,1,,,,,0,,,77,126
114660,note_on,,,,,0,0,1,,,,,0,,,79,126
114660,set_tempo,,,,,70,1,0,,393442,,,,,,,
114690,set_tempo,,,,,30,1,0,,401337,,,,,,,
114705,note_on,,,,,0,0,1,,,,,0,,,86,0
114705,note_on,,,,,0,0,1,,,,,0,,,77,0
114705,note_on,,,,,45,0,1,,,,,0,,,79,0
114705,note_on,,,,,0,0,2,,,,,0,,,59,0
114705,note_on,,,,,105,0,2,,,,,0,,,47,0
114705,note_on,,,,,0,0,2,,,,,0,,,55,0
114705,note_on,,,,,0,0,2,,,,,0,,,53,0
114715,control_change,,,,,10,0,1,,,,,0,64,0,,
114720,set_tempo,,,,,30,1,0,,350877,,,,,,,
114720,control_change,,,,,0,0,1,,,,,0,64,95,,
114720,note_on,,,,,15,0,2,,,,,0,,,48,126
114720,note_on,,,,,5,0,1,,,,,0,,,75,127
114750,set_tempo,,,,,30,1,0,,351906,,,,,,,
114773,note_on,,,,,53,0,1,,,,,0,,,75,0
114780,note_on,,,,,7,0,1,,,,,0,,,79,124
114780,note_on,,,,,0,0,1,,,,,0,,,87,124
114780,note_on,,,,,0,0,1,,,,,0,,,84,124
114790,set_tempo,,,,,40,1,0,,356083,,,,,,,
114810,note_on,,,,,90,0,2,,,,,0,,,48,0
114825,note_on,,,,,0,0,1,,,,,0,,,79,0
114825,note_on,,,,,45,0,1,,,,,0,,,84,0
114825,note_on,,,,,0,0,1,,,,,0,,,87,0
114840,note_on,,,,,0,0,2,,,,,0,,,51,118
114840,note_on,,,,,0,0,1,,,,,0,,,84,116
114840,note_on,,,,,0,0,1,,,,,0,,,87,116
114840,note_on,,,,,15,0,1,,,,,0,,,79,116
114840,note_on,,,,,30,0,2,,,,,0,,,60,118
114840,note_on,,,,,0,0,2,,,,,0,,,55,118
114870,set_tempo,,,,,80,1,0,,361445,,,,,,,
114885,note_on,,,,,0,0,1,,,,,0,,,79,0
114885,note_on,,,,,45,0,1,,,,,0,,,84,0
114885,note_on,,,,,0,0,1,,,,,0,,,87,0
114900,note_on,,,,,15,0,1,,,,,0,,,75,99
114930,note_on,,,,,90,0,2,,,,,0,,,51,0
114930,note_on,,,,,0,0,2,,,,,0,,,55,0
114930,note_on,,,,,0,0,2,,,,,0,,,60,0
114945,note_on,,,,,45,0,1,,,,,0,,,75,0
114955,control_change,,,,,10,0,1,,,,,0,64,0,,
114960,control_change,,,,,0,0,1,,,,,0,64,95,,
114960,note_on,,,,,5,0,1,,,,,0,,,74,120
114960,note_on,,,,,30,0,2,,,,,0,,,41,124
115013,note_on,,,,,53,0,1,,,,,0,,,74,0
115020,note_on,,,,,7,0,1,,,,,0,,,86,117
115020,note_on,,,,,0,0,1,,,,,0,,,77,117
115020,note_on,,,,,0,0,1,,,,,0,,,80,117
115040,set_tempo,,,,,170,1,0,,365853,,,,,,,
115050,note_on,,,,,90,0,2,,,,,0,,,41,0
115065,note_on,,,,,0,0,1,,,,,0,,,86,0
115065,note_on,,,,,0,0,1,,,,,0,,,80,0
115065,note_on,,,,,45,0,1,,,,,0,,,77,0
115080,note_on,,,,,0,0,2,,,,,0,,,56,111
115080,note_on,,,,,0,0,2,,,,,0,,,62,111
115080,note_on,,,,,30,0,2,,,,,0,,,53,111
115080,note_on,,,,,0,0,1,,,,,0,,,77,109
115080,note_on,,,,,0,0,1,,,,,0,,,80,109
115080,note_on,,,,,15,0,1,,,,,0,,,86,109
115125,note_on,,,,,0,0,1,,,,,0,,,86,0
115125,note_on,,,,,0,0,1,,,,,0,,,80,0
115125,note_on,,,,,45,0,1,,,,,0,,,77,0
115140,note_on,,,,,15,0,1,,,,,0,,,74,106
115170,note_on,,,,,90,0,2,,,,,0,,,62,0
115170,note_on,,,,,0,0,2,,,,,0,,,56,0
115170,note_on,,,,,0,0,2,,,,,0,,,53,0
115170,set_tempo,,,,,130,1,0,,366972,,,,,,,
115185,note_on,,,,,45,0,1,,,,,0,,,74,0
115195,control_change,,,,,10,0,1,,,,,0,64,0,,
115200,control_change,,,,,0,0,1,,,,,0,64,95,,
115200,note_on,,,,,30,0,2,,,,,0,,,43,119
115200,note_on,,,,,5,0,1,,,,,0,,,72,117
115250,set_tempo,,,,,80,1,0,,369230,,,,,,,
115253,note_on,,,,,53,0,1,,,,,0,,,72,0
115260,note_on,,,,,7,0,1,,,,,0,,,84,111
115260,note_on,,,,,0,0,1,,,,,0,,,75,111
115260,note_on,,,,,0,0,1,,,,,0,,,79,111
115290,note_on,,,,,90,0,2,,,,,0,,,43,0
115305,note_on,,,,,45,0,1,,,,,0,,,79,0
115305,note_on,,,,,0,0,1,,,,,0,,,75,0
115305,note_on,,,,,0,0,1,,,,,0,,,84,0
115320,note_on,,,,,30,0,2,,,,,0,,,60,101
115320,note_on,,,,,0,0,2,,,,,0,,,51,101
115320,note_on,,,,,0,0,2,,,,,0,,,55,101
115320,note_on,,,,,15,0,1,,,,,0,,,84,105
115320,note_on,,,,,0,0,1,,,,,0,,,75,105
115320,note_on,,,,,0,0,1,,,,,0,,,79,105
115365,note_on,,,,,0,0,1,,,,,0,,,75,0
115365,note_on,,,,,0,0,1,,,,,0,,,84,0
115365,note_on,,,,,45,0,1,,,,,0,,,79,0
115380,note_on,,,,,15,0,1,,,,,0,,,72,95
115390,set_tempo,,,,,140,1,0,,371517,,,,,,,
115410,note_on,,,,,0,0,2,,,,,0,,,60,0
115410,note_on,,,,,0,0,2,,,,,0,,,51,0
115410,note_on,,,,,90,0,2,,,,,0,,,55,0
115425,note_on,,,,,45,0,1,,,,,0,,,72,0
115435,control_change,,,,,10,0,1,,,,,0,64,0,,
115440,control_change,,,,,0,0,1,,,,,0,64,96,,
115440,note_on,,,,,30,0,2,,,,,0,,,43,111
115440,note_on,,,,,5,0,1,,,,,0,,,71,111
115480,set_tempo,,,,,90,1,0,,376175,,,,,,,
115493,note_on,,,,,53,0,1,,,,,0,,,71,0
115500,note_on,,,,,7,0,1,,,,,0,,,74,100
115500,note_on,,,,,0,0,1,,,,,0,,,79,100
115500,note_on,,,,,0,0,1,,,,,0,,,83,100
115520,set_tempo,,,,,40,1,0,,383386,,,,,,,
115530,note_on,,,,,90,0,2,,,,,0,,,43,0
115545,note_on,,,,,45,0,1,,,,,0,,,79,0
115545,note_on,,,,,0,0,1,,,,,0,,,83,0
115545,note_on,,,,,0,0,1,,,,,0,,,74,0
115550,set_tempo,,,,,30,1,0,,389610,,,,,,,
115560,note_on,,,,,0,0,2,,,,,0,,,55,96
115560,note_on,,,,,15,0,1,,,,,0,,,74,96
115560,note_on,,,,,0,0,1,,,,,0,,,83,96
115560,note_on,,,,,0,0,1,,,,,0,,,79,96
115560,note_on,,,,,30,0,2,,,,,0,,,59,96
115560,note_on,,,,,0,0,2,,,,,0,,,50,96
115605,note_on,,,,,0,0,1,,,,,0,,,74,0
115605,note_on,,,,,0,0,1,,,,,0,,,83,0
115605,note_on,,,,,45,0,1,,,,,0,,,79,0
115610,set_tempo,,,,,60,1,0,,396039,,,,,,,
115620,note_on,,,,,15,0,1,,,,,0,,,71,85
115630,set_tempo,,,,,20,1,0,,400000,,,,,,,
115640,set_tempo,,,,,10,1,0,,405405,,,,,,,
115650,note_on,,,,,90,0,2,,,,,0,,,50,0
115650,note_on,,,,,0,0,2,,,,,0,,,59,0
115650,set_tempo,,,,,10,1,0,,645161,,,,,,,
115650,note_on,,,,,0,0,2,,,,,0,,,55,0
115665,note_on,,,,,45,0,1,,,,,0,,,71,0
115680,note_on,,,,,0,0,2,,,,,0,,,56,126
115680,control_change,,,,,15,0,1,,,,,0,64,96,,
115680,note_on,,,,,0,0,2,,,,,0,,,47,126
115680,note_on,,,,,0,0,2,,,,,0,,,53,126
115680,note_on,,,,,30,0,2,,,,,0,,,59,126
115680,set_tempo,,,,,30,1,0,,372670,,,,,,,
115690,set_tempo,,,,,10,1,0,,372670,,,,,,,
115740,note_on,,,,,60,0,1,,,,,0,,,62,122
115770,set_tempo,,,,,80,1,0,,378548,,,,,,,
115800,note_on,,,,,60,0,1,,,,,0,,,62,0
115800,note_on,,,,,0,0,1,,,,,0,,,65,122
115860,note_on,,,,,0,0,1,,,,,0,,,68,125
115860,note_on,,,,,60,0,1,,,,,0,,,65,0
115905,note_on,,,,,45,0,1,,,,,0,,,68,0
115910,set_tempo,,,,,140,1,0,,383386,,,,,,,
115915,control_change,,,,,10,0,1,,,,,0,64,0,,
115920,note_on,,,,,5,0,1,,,,,0,,,74,124
115920,control_change,,,,,0,0,1,,,,,0,64,95,,
115980,note_on,,,,,0,0,1,,,,,0,,,80,116
115980,note_on,,,,,0,0,1,,,,,0,,,77,116
115980,note_on,,,,,0,0,1,,,,,0,,,86,116
115980,note_on,,,,,60,0,1,,,,,0,,,74,0
116010,note_on,,,,,330,0,2,,,,,0,,,47,0
116010,note_on,,,,,0,0,2,,,,,0,,,56,0
116010,set_tempo,,,,,100,1,0,,387096,,,,,,,
116010,note_on,,,,,0,0,2,,,,,0,,,59,0
116010,note_on,,,,,0,0,2,,,,,0,,,53,0
116020,set_tempo,,,,,10,1,0,,389610,,,,,,,
116025,note_on,,,,,45,0,1,,,,,0,,,80,0
116025,note_on,,,,,0,0,1,,,,,0,,,77,0
116025,note_on,,,,,0,0,1,,,,,0,,,86,0
116040,note_on,,,,,30,0,2,,,,,0,,,47,118
116040,note_on,,,,,0,0,2,,,,,0,,,53,118
116040,note_on,,,,,0,0,2,,,,,0,,,56,118
116040,note_on,,,,,0,0,2,,,,,0,,,59,118
116040,note_on,,,,,15,0,1,,,,,0,,,74,121
116100,note_on,,,,,0,0,1,,,,,0,,,77,109
116100,note_on,,,,,0,0,1,,,,,0,,,86,109
116100,note_on,,,,,0,0,1,,,,,0,,,80,109
116100,note_on,,,,,60,0,1,,,,,0,,,74,0
116145,note_on,,,,,0,0,2,,,,,0,,,56,0
116145,note_on,,,,,0,0,2,,,,,0,,,53,0
116145,note_on,,,,,45,0,1,,,,,0,,,77,0
116145,note_on,,,,,0,0,1,,,,,0,,,86,0
116145,note_on,,,,,0,0,1,,,,,0,,,80,0
116145,note_on,,,,,0,0,2,,,,,0,,,47,0
116145,note_on,,,,,105,0,2,,,,,0,,,59,0
116150,set_tempo,,,,,130,1,0,,390879,,,,,,,
116155,control_change,,,,,10,0,1,,,,,0,64,0,,
116160,note_on,,,,,0,0,2,,,,,0,,,55,126
116160,note_on,,,,,15,0,2,,,,,0,,,59,126
116160,note_on,,,,,0,0,2,,,,,0,,,47,126
116160,control_change,,,,,5,0,1,,,,,0,64,95,,
116160,note_on,,,,,0,0,2,,,,,0,,,53,126
116190,set_tempo,,,,,40,1,0,,384615,,,,,,,
116220,note_on,,,,,60,0,1,,,,,0,,,62,124
116240,set_tempo,,,,,50,1,0,,378548,,,,,,,
116280,note_on,,,,,0,0,1,,,,,0,,,65,126
116280,note_on,,,,,60,0,1,,,,,0,,,62,0
116310,set_tempo,,,,,70,1,0,,370370,,,,,,,
116340,note_on,,,,,0,0,1,,,,,0,,,67,127
116340,note_on,,,,,60,0,1,,,,,0,,,65,0
116360,set_tempo,,,,,50,1,0,,375000,,,,,,,
116385,note_on,,,,,45,0,1,,,,,0,,,67,0
116395,control_change,,,,,10,0,1,,,,,0,64,0,,
116400,note_on,,,,,5,0,1,,,,,0,,,74,124
116400,control_change,,,,,0,0,1,,,,,0,64,95,,
116460,note_on,,,,,0,0,1,,,,,0,,,86,116
116460,note_on,,,,,0,0,1,,,,,0,,,79,116
116460,note_on,,,,,60,0,1,,,,,0,,,74,0
116460,note_on,,,,,0,0,1,,,,,0,,,77,116
116490,note_on,,,,,330,0,2,,,,,0,,,47,0
116490,note_on,,,,,0,0,2,,,,,0,,,59,0
116490,note_on,,,,,0,0,2,,,,,0,,,55,0
116490,note_on,,,,,0,0,2,,,,,0,,,53,0
116500,set_tempo,,,,,140,1,0,,379746,,,,,,,
116505,note_on,,,,,45,0,1,,,,,0,,,79,0
116505,note_on,,,,,0,0,1,,,,,0,,,77,0
116505,note_on,,,,,0,0,1,,,,,0,,,86,0
116520,note_on,,,,,0,0,2,,,,,0,,,55,118
116520,note_on,,,,,0,0,2,,,,,0,,,53,118
116520,note_on,,,,,0,0,2,,,,,0,,,47,118
116520,note_on,,,,,15,0,1,,,,,0,,,74,121
116520,note_on,,,,,30,0,2,,,,,0,,,59,118
116560,set_tempo,,,,,60,1,0,,390879,,,,,,,
116580,note_on,,,,,60,0,1,,,,,0,,,74,0
116580,note_on,,,,,0,0,1,,,,,0,,,86,126
116580,note_on,,,,,0,0,1,,,,,0,,,77,126
116580,note_on,,,,,0,0,1,,,,,0,,,79,126
116590,set_tempo,,,,,30,1,0,,397350,,,,,,,
116625,note_on,,,,,0,0,1,,,,,0,,,86,0
116625,note_on,,,,,0,0,1,,,,,0,,,77,0
116625,note_on,,,,,0,0,2,,,,,0,,,53,0
116625,note_on,,,,,0,0,2,,,,,0,,,55,0
116625,note_on,,,,,0,0,2,,,,,0,,,59,0
116625,note_on,,,,,105,0,2,,,,,0,,,47,0
116625,note_on,,,,,45,0,1,,,,,0,,,79,0
116635,control_change,,,,,10,0,1,,,,,0,64,0,,
116640,set_tempo,,,,,50,1,0,,352941,,,,,,,
116640,control_change,,,,,0,0,1,,,,,0,64,95,,
116640,note_on,,,,,15,0,2,,,,,0,,,48,126
116640,note_on,,,,,5,0,1,,,,,0,,,75,127
116650,set_tempo,,,,,10,1,0,,352941,,,,,,,
116693,note_on,,,,,53,0,1,,,,,0,,,75,0
116700,note_on,,,,,7,0,1,,,,,0,,,79,124
116700,note_on,,,,,0,0,1,,,,,0,,,87,124
116700,note_on,,,,,0,0,1,,,,,0,,,84,124
116720,set_tempo,,,,,70,1,0,,357142,,,,,,,
116730,note_on,,,,,90,0,2,,,,,0,,,48,0
116745,note_on,,,,,45,0,1,,,,,0,,,84,0
116745,note_on,,,,,0,0,1,,,,,0,,,87,0
116745,note_on,,,,,0,0,1,,,,,0,,,79,0
116760,note_on,,,,,0,0,1,,,,,0,,,84,116
116760,note_on,,,,,30,0,2,,,,,0,,,60,105
116760,note_on,,,,,15,0,1,,,,,0,,,79,116
116760,note_on,,,,,0,0,1,,,,,0,,,87,116
116760,note_on,,,,,0,0,2,,,,,0,,,55,105
116760,note_on,,,,,0,0,2,,,,,0,,,51,105
116780,set_tempo,,,,,60,1,0,,365853,,,,,,,
116805,note_on,,,,,45,0,1,,,,,0,,,84,0
116805,note_on,,,,,0,0,1,,,,,0,,,87,0
116805,note_on,,,,,0,0,1,,,,,0,,,79,0
116820,note_on,,,,,15,0,1,,,,,0,,,75,99
116840,set_tempo,,,,,60,1,0,,373831,,,,,,,
116850,note_on,,,,,0,0,2,,,,,0,,,55,0
116850,note_on,,,,,90,0,2,,,,,0,,,51,0
116850,note_on,,,,,0,0,2,,,,,0,,,60,0
116865,note_on,,,,,45,0,1,,,,,0,,,75,0
116875,control_change,,,,,10,0,1,,,,,0,64,0,,
116880,note_on,,,,,5,0,1,,,,,0,,,74,111
116880,control_change,,,,,0,0,1,,,,,0,64,95,,
116880,note_on,,,,,30,0,2,,,,,0,,,41,115
116910,set_tempo,,,,,70,1,0,,378548,,,,,,,
116933,note_on,,,,,53,0,1,,,,,0,,,74,0
116940,note_on,,,,,7,0,1,,,,,0,,,86,102
116940,note_on,,,,,0,0,1,,,,,0,,,80,102
116940,note_on,,,,,0,0,1,,,,,0,,,77,102
116970,note_on,,,,,90,0,2,,,,,0,,,41,0
116970,set_tempo,,,,,60,1,0,,384615,,,,,,,
116985,note_on,,,,,45,0,1,,,,,0,,,77,0
116985,note_on,,,,,0,0,1,,,,,0,,,80,0
116985,note_on,,,,,0,0,1,,,,,0,,,86,0
117000,note_on,,,,,30,0,2,,,,,0,,,53,108
117000,note_on,,,,,0,0,2,,,,,0,,,56,108
117000,note_on,,,,,0,0,2,,,,,0,,,62,108
117000,note_on,,,,,15,0,1,,,,,0,,,86,97
117000,note_on,,,,,0,0,1,,,,,0,,,80,97
117000,note_on,,,,,0,0,1,,,,,0,,,77,97
117000,set_tempo,,,,,30,1,0,,393442,,,,,,,
117020,set_tempo,,,,,20,1,0,,401337,,,,,,,
117030,set_tempo,,,,,10,1,0,,402684,,,,,,,
117040,set_tempo,,,,,10,1,0,,406779,,,,,,,
117045,note_on,,,,,0,0,1,,,,,0,,,86,0
117045,note_on,,,,,0,0,1,,,,,0,,,80,0
117045,note_on,,,,,45,0,1,,,,,0,,,77,0
117060,note_on,,,,,15,0,1,,,,,0,,,74,92
117080,set_tempo,,,,,40,1,0,,415224,,,,,,,
117090,note_on,,,,,90,0,2,,,,,0,,,62,0
117090,note_on,,,,,0,0,2,,,,,0,,,56,0
117090,note_on,,,,,0,0,2,,,,,0,,,53,0
117105,note_on,,,,,45,0,1,,,,,0,,,74,0
117110,set_tempo,,,,,30,1,0,,424028,,,,,,,
117115,control_change,,,,,10,0,1,,,,,0,64,0,,
117120,control_change,,,,,0,0,1,,,,,0,64,95,,
117120,note_on,,,,,30,0,2,,,,,0,,,43,87
117120,note_on,,,,,5,0,1,,,,,0,,,67,101
117150,set_tempo,,,,,40,1,0,,436363,,,,,,,
117173,note_on,,,,,53,0,1,,,,,0,,,67,0
117180,note_on,,,,,7,0,1,,,,,0,,,72,88
117180,note_on,,,,,0,0,1,,,,,0,,,75,88
117180,note_on,,,,,0,0,1,,,,,0,,,79,88
117200,set_tempo,,,,,50,1,0,,452830,,,,,,,
117210,note_on,,,,,90,0,2,,,,,0,,,43,0
117225,note_on,,,,,0,0,1,,,,,0,,,72,0
117225,note_on,,,,,0,0,1,,,,,0,,,75,0
117225,note_on,,,,,45,0,1,,,,,0,,,79,0
117230,set_tempo,,,,,30,1,0,,466926,,,,,,,
117240,note_on,,,,,0,0,1,,,,,0,,,75,72
117240,note_on,,,,,0,0,1,,,,,0,,,79,72
117240,note_on,,,,,30,0,2,,,,,0,,,60,73
117240,note_on,,,,,15,0,1,,,,,0,,,72,72
117240,note_on,,,,,0,0,2,,,,,0,,,51,73
117240,note_on,,,,,0,0,2,,,,,0,,,55,73
117260,set_tempo,,,,,30,1,0,,481927,,,,,,,
117285,note_on,,,,,45,0,1,,,,,0,,,79,0
117285,note_on,,,,,0,0,1,,,,,0,,,72,0
117285,note_on,,,,,0,0,1,,,,,0,,,75,0
117290,set_tempo,,,,,30,1,0,,497925,,,,,,,
117300,note_on,,,,,15,0,1,,,,,0,,,67,67
117320,set_tempo,,,,,30,1,0,,519480,,,,,,,
117330,note_on,,,,,0,0,2,,,,,0,,,51,0
117330,note_on,,,,,0,0,2,,,,,0,,,60,0
117330,note_on,,,,,90,0,2,,,,,0,,,55,0
117345,note_on,,,,,45,0,1,,,,,0,,,67,0
117350,set_tempo,,,,,30,1,0,,538116,,,,,,,
117355,control_change,,,,,10,0,1,,,,,0,64,0,,
117360,note_on,,,,,30,0,2,,,,,0,,,43,57
117360,note_on,,,,,5,0,1,,,,,0,,,67,68
117360,control_change,,,,,0,0,1,,,,,0,64,96,,
117370,set_tempo,,,,,20,1,0,,563380,,,,,,,
117390,set_tempo,,,,,20,1,0,,606060,,,,,,,
117410,set_tempo,,,,,20,1,0,,631578,,,,,,,
117413,note_on,,,,,53,0,1,,,,,0,,,67,0
117420,note_on,,,,,7,0,1,,,,,0,,,71,56
117420,note_on,,,,,0,0,1,,,,,0,,,74,56
117420,note_on,,,,,0,0,1,,,,,0,,,79,56
117440,set_tempo,,,,,30,1,0,,681818,,,,,,,
117450,note_on,,,,,90,0,2,,,,,0,,,43,0
117450,set_tempo,,,,,10,1,0,,740740,,,,,,,
117465,note_on,,,,,0,0,1,,,,,0,,,71,0
117465,note_on,,,,,45,0,1,,,,,0,,,79,0
117465,note_on,,,,,0,0,1,,,,,0,,,74,0
117480,set_tempo,,,,,30,1,0,,784313,,,,,,,
117480,note_on,,,,,0,0,1,,,,,0,,,74,51
117480,note_on,,,,,15,0,1,,,,,0,,,71,51
117480,note_on,,,,,0,0,1,,,,,0,,,79,51
117480,note_on,,,,,0,0,2,,,,,0,,,50,47
117480,note_on,,,,,0,0,2,,,,,0,,,55,47
117480,note_on,,,,,30,0,2,,,,,0,,,59,47
117500,set_tempo,,,,,20,1,0,,821917,,,,,,,
117520,set_tempo,,,,,20,1,0,,845070,,,,,,,
117525,note_on,,,,,45,0,1,,,,,0,,,79,0
117525,note_on,,,,,0,0,1,,,,,0,,,74,0
117525,note_on,,,,,0,0,1,,,,,0,,,71,0
117540,note_on,,,,,15,0,1,,,,,0,,,67,49
117570,note_on,,,,,90,0,2,,,,,0,,,50,0
117570,set_tempo,,,,,50,1,0,,869565,,,,,,,
117570,note_on,,,,,0,0,2,,,,,0,,,59,0
117570,note_on,,,,,0,0,2,,,,,0,,,55,0
117570,control_change,,,,,30,0,1,,,,,0,64,0,,
117580,set_tempo,,,,,10,1,0,,2222222,,,,,,,
117585,note_on,,,,,15,0,1,,,,,0,,,67,0
117600,control_change,,,,,0,0,1,,,,,0,64,96,,
117600,control_change,,,,,0,0,1,,,,,0,64,95,,
117600,note_on,,,,,15,0,1,,,,,0,,,64,53
117600,note_on,,,,,0,0,1,,,,,0,,,76,53
117600,note_on,,,,,0,0,1,,,,,0,,,67,53
117600,note_on,,,,,30,0,2,,,,,0,,,48,37
117600,set_tempo,,,,,0,1,0,,451127,,,,,,,
117600,marker,,,,,0,1,0,,,,,,,,,
117600,key_signature,,,,,20,1,0,C,,,,,,,,
117610,set_tempo,,,,,10,1,0,,560747,,,,,,,
117630,set_tempo,,,,,20,1,0,,545454,,,,,,,
117640,set_tempo,,,,,10,1,0,,542986,,,,,,,
117645,note_on,,,,,45,0,2,,,,,0,,,48,0
117650,set_tempo,,,,,10,1,0,,528634,,,,,,,
117660,note_on,,,,,15,0,2,,,,,0,,,55,32
117670,set_tempo,,,,,20,1,0,,515021,,,,,,,
117690,set_tempo,,,,,20,1,0,,506329,,,,,,,
117720,note_on,,,,,60,0,2,,,,,0,,,55,0
117720,note_on,,,,,0,0,2,,,,,0,,,52,34
117740,set_tempo,,,,,50,1,0,,491803,,,,,,,
117770,set_tempo,,,,,30,1,0,,489795,,,,,,,
117780,note_on,,,,,0,0,2,,,,,0,,,55,38
117780,set_tempo,,,,,10,1,0,,472440,,,,,,,
117780,note_on,,,,,60,0,2,,,,,0,,,52,0
117835,control_change,,,,,235,0,1,,,,,0,64,0,,
117840,note_on,,,,,60,0,2,,,,,0,,,55,0
117840,note_on,,,,,0,0,2,,,,,0,,,60,40
117840,control_change,,,,,5,0,1,,,,,0,64,95,,
117860,set_tempo,,,,,80,1,0,,465116,,,,,,,
117900,note_on,,,,,60,0,2,,,,,0,,,60,0
117900,note_on,,,,,0,0,2,,,,,0,,,55,38
117930,set_tempo,,,,,70,1,0,,444444,,,,,,,
117960,note_on,,,,,120,0,1,,,,,0,,,76,0
117960,note_on,,,,,0,0,1,,,,,0,,,76,48
117960,note_on,,,,,0,0,2,,,,,0,,,52,36
117960,note_on,,,,,60,0,2,,,,,0,,,55,0
117990,set_tempo,,,,,60,1,0,,437956,,,,,,,
118000,set_tempo,,,,,10,1,0,,428571,,,,,,,
118020,note_on,,,,,0,0,2,,,,,0,,,55,33
118020,note_on,,,,,60,0,2,,,,,0,,,52,0
118050,note_on,,,,,90,0,1,,,,,0,,,76,0
118075,control_change,,,,,25,0,1,,,,,0,64,0,,
118080,note_on,,,,,60,0,2,,,,,0,,,55,0
118080,control_change,,,,,0,0,1,,,,,0,64,95,,
118080,note_on,,,,,0,0,1,,,,,0,,,76,58
118080,note_on,,,,,0,0,1,,,,,0,,,67,58
118080,note_on,,,,,0,0,1,,,,,0,,,65,58
118080,note_on,,,,,0,0,1,,,,,0,,,64,0
118080,note_on,,,,,5,0,1,,,,,0,,,67,0
118080,set_tempo,,,,,80,1,0,,560747,,,,,,,
118080,note_on,,,,,0,0,2,,,,,0,,,47,35
118090,set_tempo,,,,,10,1,0,,571428,,,,,,,
118100,set_tempo,,,,,10,1,0,,428571,,,,,,,
118125,note_on,,,,,45,0,2,,,,,0,,,47,0
118140,note_on,,,,,15,0,2,,,,,0,,,55,33
118200,note_on,,,,,0,0,2,,,,,0,,,53,36
118200,note_on,,,,,60,0,2,,,,,0,,,55,0
118260,note_on,,,,,0,0,2,,,,,0,,,55,39
118260,note_on,,,,,60,0,2,,,,,0,,,53,0
118315,control_change,,,,,235,0,1,,,,,0,64,0,,
118320,note_on,,,,,5,0,1,,,,,0,,,76,0
118320,note_on,,,,,0,0,2,,,,,0,,,62,40
118320,note_on,,,,,60,0,2,,,,,0,,,55,0
118320,control_change,,,,,0,0,1,,,,,0,64,95,,
118320,note_on,,,,,0,0,1,,,,,0,,,74,45
118380,note_on,,,,,60,0,2,,,,,0,,,62,0
118380,note_on,,,,,0,0,2,,,,,0,,,55,35
118380,set_tempo,,,,,280,1,0,,419580,,,,,,,
118410,note_on,,,,,90,0,1,,,,,0,,,74,0
118420,set_tempo,,,,,40,1,0,,416666,,,,,,,
118440,note_on,,,,,30,0,1,,,,,0,,,74,51
118440,note_on,,,,,60,0,2,,,,,0,,,55,0
118440,note_on,,,,,0,0,2,,,,,0,,,53,34
118500,set_tempo,,,,,80,1,0,,413793,,,,,,,
118500,note_on,,,,,60,0,2,,,,,0,,,53,0
118500,note_on,,,,,0,0,2,,,,,0,,,55,34
118530,note_on,,,,,90,0,1,,,,,0,,,74,0
118555,control_change,,,,,25,0,1,,,,,0,64,0,,
118560,note_on,,,,,0,0,1,,,,,0,,,64,54
118560,note_on,,,,,5,0,1,,,,,0,,,67,0
118560,note_on,,,,,0,0,1,,,,,0,,,67,54
118560,note_on,,,,,0,0,1,,,,,0,,,74,54
118560,note_on,,,,,0,0,2,,,,,0,,,48,39
118560,note_on,,,,,0,0,1,,,,,0,,,65,0
118560,control_change,,,,,0,0,1,,,,,0,64,95,,
118560,note_on,,,,,60,0,2,,,,,0,,,55,0
118570,set_tempo,,,,,70,1,0,,508474,,,,,,,
118580,set_tempo,,,,,10,1,0,,416666,,,,,,,
118605,note_on,,,,,45,0,2,,,,,0,,,48,0
118620,note_on,,,,,15,0,2,,,,,0,,,55,29
118680,note_on,,,,,60,0,2,,,,,0,,,55,0
118680,note_on,,,,,0,0,2,,,,,0,,,52,33
118740,note_on,,,,,0,0,2,,,,,0,,,55,37
118740,note_on,,,,,60,0,2,,,,,0,,,52,0
118760,set_tempo,,,,,180,1,0,,416666,,,,,,,
118795,control_change,,,,,235,0,1,,,,,0,64,0,,
118800,note_on,,,,,0,0,2,,,,,0,,,60,41
118800,note_on,,,,,5,0,1,,,,,0,,,74,0
118800,note_on,,,,,0,0,1,,,,,0,,,72,47
118800,control_change,,,,,0,0,1,,,,,0,64,95,,
118800,note_on,,,,,60,0,2,,,,,0,,,55,0
118830,set_tempo,,,,,70,1,0,,419580,,,,,,,
118860,note_on,,,,,0,0,2,,,,,0,,,55,34
118860,note_on,,,,,60,0,2,,,,,0,,,60,0
118870,set_tempo,,,,,40,1,0,,422535,,,,,,,
118890,note_on,,,,,90,0,1,,,,,0,,,72,0
118920,note_on,,,,,30,0,1,,,,,0,,,72,53
118920,note_on,,,,,0,0,2,,,,,0,,,52,37
118920,note_on,,,,,60,0,2,,,,,0,,,55,0
118930,set_tempo,,,,,60,1,0,,428571,,,,,,,
118980,note_on,,,,,60,0,2,,,,,0,,,52,0
118980,note_on,,,,,0,0,2,,,,,0,,,55,41
119010,note_on,,,,,90,0,1,,,,,0,,,72,0
119030,set_tempo,,,,,100,1,0,,431654,,,,,,,
119035,control_change,,,,,25,0,1,,,,,0,64,0,,
119040,note_on,,,,,0,0,1,,,,,0,,,64,0
119040,set_tempo,,,,,10,1,0,,470588,,,,,,,
119040,note_on,,,,,60,0,2,,,,,0,,,55,0
119040,note_on,,,,,0,0,2,,,,,0,,,50,42
119040,note_on,,,,,5,0,1,,,,,0,,,67,0
119040,note_on,,,,,0,0,1,,,,,0,,,65,56
119040,note_on,,,,,0,0,1,,,,,0,,,67,56
119040,control_change,,,,,0,0,1,,,,,0,64,95,,
119080,set_tempo,,,,,40,1,0,,434782,,,,,,,
119085,note_on,,,,,45,0,2,,,,,0,,,50,0
119100,note_on,,,,,15,0,2,,,,,0,,,55,42
119150,set_tempo,,,,,70,1,0,,427046,,,,,,,
119160,note_on,,,,,60,0,2,,,,,0,,,55,0
119160,note_on,,,,,0,0,2,,,,,0,,,53,44
119220,note_on,,,,,0,0,2,,,,,0,,,55,44
119220,note_on,,,,,60,0,2,,,,,0,,,53,0
119275,control_change,,,,,235,0,1,,,,,0,64,0,,
119280,control_change,,,,,5,0,1,,,,,0,64,95,,
119280,note_on,,,,,0,0,2,,,,,0,,,59,45
119280,note_on,,,,,60,0,2,,,,,0,,,55,0
119340,note_on,,,,,0,0,2,,,,,0,,,55,42
119340,note_on,,,,,60,0,2,,,,,0,,,59,0
119370,note_on,,,,,90,0,1,,,,,0,,,67,0
119400,note_on,,,,,60,0,2,,,,,0,,,55,0
119400,note_on,,,,,0,0,2,,,,,0,,,53,41
119400,note_on,,,,,30,0,1,,,,,0,,,67,51
119440,set_tempo,,,,,290,1,0,,418118,,,,,,,
119460,note_on,,,,,60,0,2,,,,,0,,,53,0
119460,note_on,,,,,0,0,2,,,,,0,,,55,39
119480,set_tempo,,,,,40,1,0,,410958,,,,,,,
119515,control_change,,,,,115,0,1,,,,,0,64,0,,
119520,control_change,,,,,0,0,1,,,,,0,64,95,,
119520,note_on,,,,,0,0,2,,,,,0,,,48,35
119520,note_on,,,,,60,0,2,,,,,0,,,55,0
119520,note_on,,,,,0,0,1,,,,,0,,,72,57
119520,note_on,,,,,0,0,1,,,,,0,,,65,0
119520,note_on,,,,,5,0,1,,,,,0,,,67,0
119520,note_on,,,,,0,0,1,,,,,0,,,67,57
119520,note_on,,,,,0,0,1,,,,,0,,,64,57
119540,set_tempo,,,,,60,1,0,,405405,,,,,,,
119565,note_on,,,,,45,0,2,,,,,0,,,48,0
119580,note_on,,,,,15,0,2,,,,,0,,,55,36
119600,set_tempo,,,,,60,1,0,,402684,,,,,,,
119640,note_on,,,,,60,0,2,,,,,0,,,55,0
119640,note_on,,,,,0,0,2,,,,,0,,,52,37
119700,note_on,,,,,60,0,2,,,,,0,,,52,0
119700,note_on,,,,,0,0,2,,,,,0,,,55,39
119755,control_change,,,,,235,0,1,,,,,0,64,0,,
119760,control_change,,,,,5,0,1,,,,,0,64,95,,
119760,note_on,,,,,60,0,2,,,,,0,,,55,0
119760,note_on,,,,,0,0,2,,,,,0,,,60,40
119820,note_on,,,,,60,0,2,,,,,0,,,60,0
119820,note_on,,,,,0,0,2,,,,,0,,,55,41
119850,note_on,,,,,90,0,1,,,,,0,,,72,0
119880,note_on,,,,,60,0,2,,,,,0,,,55,0
119880,note_on,,,,,0,0,2,,,,,0,,,52,42
119880,note_on,,,,,30,0,1,,,,,0,,,72,48
119940,note_on,,,,,60,0,2,,,,,0,,,52,0
119940,note_on,,,,,0,0,2,,,,,0,,,55,43
119980,set_tempo,,,,,380,1,0,,379746,,,,,,,
119995,control_change,,,,,115,0,1,,,,,0,64,0,,
120000,note_on,,,,,0,0,1,,,,,0,,,65,55
120000,note_on,,,,,0,0,1,,,,,0,,,72,55
120000,note_on,,,,,0,0,1,,,,,0,,,64,0
120000,note_on,,,,,0,0,1,,,,,0,,,67,0
120000,note_on,,,,,5,0,1,,,,,0,,,72,0
120000,control_change,,,,,0,0,1,,,,,0,64,95,,
120000,note_on,,,,,0,0,1,,,,,0,,,69,55
120000,note_on,,,,,0,0,2,,,,,0,,,41,45
120000,note_on,,,,,60,0,2,,,,,0,,,55,0
120045,note_on,,,,,45,0,2,,,,,0,,,41,0
120050,set_tempo,,,,,70,1,0,,382165,,,,,,,
120060,note_on,,,,,15,0,2,,,,,0,,,57,44
120120,note_on,,,,,60,0,2,,,,,0,,,57,0
120120,set_tempo,,,,,70,1,0,,397350,,,,,,,
120120,note_on,,,,,0,0,2,,,,,0,,,53,42
120130,set_tempo,,,,,10,1,0,,400000,,,,,,,
120170,set_tempo,,,,,40,1,0,,412371,,,,,,,
120180,note_on,,,,,0,0,2,,,,,0,,,57,42
120180,note_on,,,,,60,0,2,,,,,0,,,53,0
120235,control_change,,,,,235,0,1,,,,,0,64,0,,
120240,note_on,,,,,5,0,1,,,,,0,,,72,0
120240,note_on,,,,,0,0,1,,,,,0,,,74,50
120240,control_change,,,,,0,0,1,,,,,0,64,95,,
120240,note_on,,,,,0,0,2,,,,,0,,,60,44
120240,note_on,,,,,60,0,2,,,,,0,,,57,0
120270,set_tempo,,,,,100,1,0,,422535,,,,,,,
120300,note_on,,,,,60,0,2,,,,,0,,,60,0
120300,note_on,,,,,0,0,2,,,,,0,,,57,41
120345,note_on,,,,,105,0,1,,,,,0,,,74,0
120360,note_on,,,,,60,0,2,,,,,0,,,57,0
120360,note_on,,,,,0,0,2,,,,,0,,,53,39
120360,note_on,,,,,15,0,1,,,,,0,,,76,46
120370,set_tempo,,,,,100,1,0,,430107,,,,,,,
120420,note_on,,,,,60,0,2,,,,,0,,,53,0
120420,note_on,,,,,0,0,2,,,,,0,,,57,36
120465,note_on,,,,,105,0,1,,,,,0,,,76,0
120475,control_change,,,,,10,0,1,,,,,0,64,0,,
120480,note_on,,,,,0,0,2,,,,,0,,,43,41
120480,control_change,,,,,0,0,1,,,,,0,64,95,,
120480,note_on,,,,,0,0,1,,,,,0,,,64,52
120480,note_on,,,,,0,0,1,,,,,0,,,67,52
120480,note_on,,,,,0,0,1,,,,,0,,,72,52
120480,note_on,,,,,0,0,1,,,,,0,,,65,0
120480,note_on,,,,,5,0,1,,,,,0,,,69,0
120480,note_on,,,,,60,0,2,,,,,0,,,57,0
120525,note_on,,,,,45,0,2,,,,,0,,,43,0
120540,set_tempo,,,,,170,1,0,,422535,,,,,,,
120540,note_on,,,,,15,0,2,,,,,0,,,52,38
120590,set_tempo,,,,,50,1,0,,416666,,,,,,,
120600,note_on,,,,,0,0,2,,,,,0,,,55,35
120600,note_on,,,,,60,0,2,,,,,0,,,52,0
120660,note_on,,,,,0,0,2,,,,,0,,,60,33
120660,note_on,,,,,60,0,2,,,,,0,,,55,0
120660,set_tempo,,,,,70,1,0,,408163,,,,,,,
120705,note_on,,,,,0,0,1,,,,,0,,,67,0
120705,note_on,,,,,0,0,1,,,,,0,,,72,0
120705,note_on,,,,,225,0,1,,,,,0,,,64,0
120705,note_on,,,,,45,0,2,,,,,0,,,60,0
120710,set_tempo,,,,,50,1,0,,404040,,,,,,,
120715,control_change,,,,,10,0,1,,,,,0,64,0,,
120720,control_change,,,,,0,0,1,,,,,0,64,95,,
120720,note_on,,,,,0,0,1,,,,,0,,,71,45
120720,note_on,,,,,0,0,1,,,,,0,,,67,45
120720,note_on,,,,,5,0,1,,,,,0,,,65,45
120720,note_on,,,,,15,0,2,,,,,0,,,43,37
120765,note_on,,,,,45,0,2,,,,,0,,,43,0
120780,note_on,,,,,15,0,2,,,,,0,,,53,33
120790,set_tempo,,,,,80,1,0,,409556,,,,,,,
120840,note_on,,,,,60,0,2,,,,,0,,,53,0
120840,note_on,,,,,0,0,2,,,,,0,,,55,30
120860,set_tempo,,,,,70,1,0,,416666,,,,,,,
120900,note_on,,,,,60,0,2,,,,,0,,,55,0
120900,note_on,,,,,0,0,2,,,,,0,,,62,27
120945,note_on,,,,,45,0,2,,,,,0,,,62,0
120945,note_on,,,,,225,0,1,,,,,0,,,71,0
120945,note_on,,,,,0,0,1,,,,,0,,,67,0
120945,note_on,,,,,0,0,1,,,,,0,,,65,0
120955,control_change,,,,,10,0,1,,,,,0,64,0,,
120960,note_on,,,,,0,0,1,,,,,0,,,72,47
120960,note_on,,,,,0,0,1,,,,,0,,,67,47
120960,note_on,,,,,15,0,2,,,,,0,,,48,37
120960,note_on,,,,,5,0,1,,,,,0,,,64,47
120960,control_change,,,,,0,0,1,,,,,0,64,95,,
121005,note_on,,,,,45,0,2,,,,,0,,,48,0
121020,note_on,,,,,15,0,2,,,,,0,,,52,29
121040,set_tempo,,,,,180,1,0,,424028,,,,,,,
121080,note_on,,,,,0,0,2,,,,,0,,,55,31
121080,note_on,,,,,60,0,2,,,,,0,,,52,0
121140,note_on,,,,,0,0,2,,,,,0,,,60,32
121140,note_on,,,,,60,0,2,,,,,0,,,55,0
121180,set_tempo,,,,,140,1,0,,434782,,,,,,,
121195,control_change,,,,,235,0,1,,,,,0,64,0,,
121200,control_change,,,,,5,0,1,,,,,0,64,95,,
121200,note_on,,,,,60,0,2,,,,,0,,,60,0
121200,note_on,,,,,0,0,2,,,,,0,,,64,34
121260,note_on,,,,,60,0,2,,,,,0,,,64,0
121260,note_on,,,,,0,0,2,,,,,0,,,60,34
121270,set_tempo,,,,,90,1,0,,441176,,,,,,,
121290,note_on,,,,,0,0,1,,,,,0,,,67,0
121290,note_on,,,,,0,0,1,,,,,0,,,64,0
121290,note_on,,,,,90,0,1,,,,,0,,,72,0
121320,note_on,,,,,60,0,2,,,,,0,,,60,0
121320,note_on,,,,,30,0,1,,,,,0,,,67,50
121320,note_on,,,,,0,0,2,,,,,0,,,55,31
121360,set_tempo,,,,,90,1,0,,444444,,,,,,,
121380,note_on,,,,,0,0,2,,,,,0,,,52,30
121380,note_on,,,,,60,0,2,,,,,0,,,55,0
121435,control_change,,,,,115,0,1,,,,,0,64,0,,
121440,note_on,,,,,5,0,1,,,,,0,,,67,0
121440,note_on,,,,,0,0,1,,,,,0,,,76,54
121440,note_on,,,,,0,0,1,,,,,0,,,64,54
121440,note_on,,,,,0,0,1,,,,,0,,,67,54
121440,control_change,,,,,0,0,1,,,,,0,64,96,,
121440,control_change,,,,,0,0,1,,,,,0,64,95,,
121440,note_on,,,,,0,0,2,,,,,0,,,48,33
121440,note_on,,,,,60,0,2,,,,,0,,,52,0
121440,set_tempo,,,,,80,1,0,,441176,,,,,,,
121450,set_tempo,,,,,10,1,0,,666666,,,,,,,
121470,set_tempo,,,,,20,1,0,,433212,,,,,,,
121485,note_on,,,,,45,0,2,,,,,0,,,48,0
121500,note_on,,,,,15,0,2,,,,,0,,,55,35
121510,set_tempo,,,,,40,1,0,,428571,,,,,,,
121540,set_tempo,,,,,30,1,0,,422535,,,,,,,
121560,note_on,,,,,60,0,2,,,,,0,,,55,0
121560,note_on,,,,,0,0,2,,,,,0,,,52,37
121580,set_tempo,,,,,40,1,0,,416666,,,,,,,
121620,note_on,,,,,60,0,2,,,,,0,,,52,0
121620,set_tempo,,,,,40,1,0,,413793,,,,,,,
121620,note_on,,,,,0,0,2,,,,,0,,,55,39
121675,control_change,,,,,235,0,1,,,,,0,64,0,,
121680,control_change,,,,,5,0,1,,,,,0,64,95,,
121680,note_on,,,,,60,0,2,,,,,0,,,55,0
121680,note_on,,,,,0,0,2,,,,,0,,,60,39
121740,note_on,,,,,60,0,2,,,,,0,,,60,0
121740,note_on,,,,,0,0,2,,,,,0,,,55,39
121780,set_tempo,,,,,160,1,0,,406779,,,,,,,
121800,note_on,,,,,120,0,1,,,,,0,,,76,0
121800,note_on,,,,,60,0,2,,,,,0,,,55,0
121800,note_on,,,,,0,0,2,,,,,0,,,52,36
121800,note_on,,,,,0,0,1,,,,,0,,,76,51
121840,set_tempo,,,,,60,1,0,,402684,,,,,,,
121860,note_on,,,,,60,0,2,,,,,0,,,52,0
121860,note_on,,,,,0,0,2,,,,,0,,,55,34
121890,note_on,,,,,90,0,1,,,,,0,,,76,0
121910,set_tempo,,,,,70,1,0,,402684,,,,,,,
121915,control_change,,,,,25,0,1,,,,,0,64,0,,
121920,note_on,,,,,0,0,2,,,,,0,,,45,42
121920,control_change,,,,,0,0,1,,,,,0,64,95,,
121920,note_on,,,,,0,0,1,,,,,0,,,64,0
121920,note_on,,,,,0,0,1,,,,,0,,,66,59
121920,note_on,,,,,60,0,2,,,,,0,,,55,0
121920,note_on,,,,,0,0,1,,,,,0,,,76,59
121920,note_on,,,,,0,0,1,,,,,0,,,72,59
121920,set_tempo,,,,,10,1,0,,491803,,,,,,,
121920,note_on,,,,,5,0,1,,,,,0,,,67,0
121940,set_tempo,,,,,20,1,0,,402684,,,,,,,
121965,note_on,,,,,45,0,2,,,,,0,,,45,0
121980,note_on,,,,,15,0,2,,,,,0,,,54,44
121990,set_tempo,,,,,50,1,0,,398671,,,,,,,
122040,note_on,,,,,60,0,2,,,,,0,,,54,0
122040,note_on,,,,,0,0,2,,,,,0,,,50,44
122060,set_tempo,,,,,70,1,0,,394736,,,,,,,
122100,note_on,,,,,60,0,2,,,,,0,,,50,0
122100,note_on,,,,,0,0,2,,,,,0,,,54,45
122155,control_change,,,,,235,0,1,,,,,0,64,0,,
122160,control_change,,,,,0,0,1,,,,,0,64,95,,
122160,note_on,,,,,5,0,1,,,,,0,,,76,0
122160,note_on,,,,,60,0,2,,,,,0,,,54,0
122160,note_on,,,,,0,0,2,,,,,0,,,60,45
122160,note_on,,,,,0,0,1,,,,,0,,,74,51
122220,note_on,,,,,0,0,2,,,,,0,,,54,43
122220,note_on,,,,,60,0,2,,,,,0,,,60,0
122240,set_tempo,,,,,180,1,0,,393442,,,,,,,
122250,set_tempo,,,,,10,1,0,,389610,,,,,,,
122250,note_on,,,,,90,0,1,,,,,0,,,74,0
122280,note_on,,,,,60,0,2,,,,,0,,,54,0
122280,note_on,,,,,0,0,2,,,,,0,,,50,40
122280,note_on,,,,,30,0,1,,,,,0,,,74,52
122310,set_tempo,,,,,60,1,0,,413793,,,,,,,
122340,note_on,,,,,60,0,2,,,,,0,,,50,0
122340,note_on,,,,,0,0,2,,,,,0,,,54,39
122370,note_on,,,,,90,0,1,,,,,0,,,74,0
122395,control_change,,,,,25,0,1,,,,,0,64,0,,
122400,note_on,,,,,0,0,1,,,,,0,,,69,59
122400,control_change,,,,,0,0,1,,,,,0,64,95,,
122400,note_on,,,,,0,0,2,,,,,0,,,42,39
122400,note_on,,,,,5,0,1,,,,,0,,,72,0
122400,note_on,,,,,0,0,1,,,,,0,,,66,0
122400,note_on,,,,,0,0,1,,,,,0,,,74,59
122400,note_on,,,,,0,0,1,,,,,0,,,62,59
122400,note_on,,,,,60,0,2,,,,,0,,,54,0
122420,set_tempo,,,,,110,1,0,,394736,,,,,,,
122445,note_on,,,,,45,0,2,,,,,0,,,42,0
122460,note_on,,,,,15,0,2,,,,,0,,,57,41
122500,set_tempo,,,,,80,1,0,,397350,,,,,,,
122520,note_on,,,,,60,0,2,,,,,0,,,57,0
122520,note_on,,,,,0,0,2,,,,,0,,,50,42
122540,set_tempo,,,,,40,1,0,,404040,,,,,,,
122580,note_on,,,,,180,0,1,,,,,0,,,74,0
122580,note_on,,,,,0,0,1,,,,,0,,,72,56
122580,note_on,,,,,60,0,2,,,,,0,,,50,0
122580,note_on,,,,,0,0,2,,,,,0,,,57,43
122635,control_change,,,,,55,0,1,,,,,0,64,0,,
122640,note_on,,,,,0,0,2,,,,,0,,,60,44
122640,control_change,,,,,0,0,1,,,,,0,64,95,,
122640,note_on,,,,,0,0,1,,,,,0,,,71,59
122640,note_on,,,,,5,0,1,,,,,0,,,72,0
122640,note_on,,,,,60,0,2,,,,,0,,,57,0
122640,set_tempo,,,,,100,1,0,,465116,,,,,,,
122680,note_on,,,,,0,0,1,,,,,0,,,72,59
122680,note_on,,,,,40,0,1,,,,,0,,,71,0
122700,set_tempo,,,,,60,1,0,,459770,,,,,,,
122700,note_on,,,,,0,0,2,,,,,0,,,57,46
122700,note_on,,,,,60,0,2,,,,,0,,,60,0
122720,note_on,,,,,40,0,1,,,,,0,,,72,0
122720,note_on,,,,,0,0,1,,,,,0,,,74,60
122740,set_tempo,,,,,40,1,0,,441176,,,,,,,
122760,note_on,,,,,0,0,2,,,,,0,,,50,48
122760,note_on,,,,,60,0,2,,,,,0,,,57,0
122760,note_on,,,,,0,0,1,,,,,0,,,72,62
122760,note_on,,,,,40,0,1,,,,,0,,,74,0
122780,set_tempo,,,,,40,1,0,,431654,,,,,,,
122800,note_on,,,,,0,0,1,,,,,0,,,71,61
122800,note_on,,,,,40,0,1,,,,,0,,,72,0
122820,set_tempo,,,,,40,1,0,,422535,,,,,,,
122820,note_on,,,,,60,0,2,,,,,0,,,50,0
122820,note_on,,,,,0,0,2,,,,,0,,,57,48
122840,note_on,,,,,40,0,1,,,,,0,,,71,0
122840,note_on,,,,,0,0,1,,,,,0,,,69,58
122860,set_tempo,,,,,40,1,0,,418118,,,,,,,
122875,control_change,,,,,35,0,1,,,,,0,64,0,,
122880,note_on,,,,,5,0,1,,,,,0,,,69,0
122880,note_on,,,,,0,0,2,,,,,0,,,43,48
122880,control_change,,,,,0,0,1,,,,,0,64,95,,
122880,note_on,,,,,0,0,1,,,,,0,,,67,54
122880,note_on,,,,,0,0,1,,,,,0,,,65,54
122880,note_on,,,,,0,0,1,,,,,0,,,59,54
122880,note_on,,,,,60,0,2,,,,,0,,,57,0
122880,note_on,,,,,0,0,1,,,,,0,,,69,0
122880,note_on,,,,,0,0,1,,,,,0,,,62,0
122925,note_on,,,,,45,0,2,,,,,0,,,43,0
122940,set_tempo,,,,,80,1,0,,422535,,,,,,,
122940,note_on,,,,,15,0,2,,,,,0,,,55,46
123000,note_on,,,,,60,0,2,,,,,0,,,55,0
123000,note_on,,,,,0,0,2,,,,,0,,,50,44
123060,note_on,,,,,60,0,2,,,,,0,,,50,0
123060,note_on,,,,,0,0,2,,,,,0,,,55,41
123080,set_tempo,,,,,140,1,0,,427046,,,,,,,
123115,control_change,,,,,235,0,1,,,,,0,64,0,,
123120,control_change,,,,,5,0,1,,,,,0,64,95,,
123120,note_on,,,,,60,0,2,,,,,0,,,55,0
123120,note_on,,,,,0,0,2,,,,,0,,,59,40
123180,note_on,,,,,0,0,2,,,,,0,,,55,36
123180,note_on,,,,,60,0,2,,,,,0,,,59,0
123210,note_on,,,,,90,0,1,,,,,0,,,67,0
123240,note_on,,,,,60,0,2,,,,,0,,,55,0
123240,note_on,,,,,0,0,2,,,,,0,,,50,32
123240,note_on,,,,,30,0,1,,,,,0,,,67,55
123250,set_tempo,,,,,170,1,0,,418118,,,,,,,
123300,note_on,,,,,60,0,2,,,,,0,,,50,0
123300,note_on,,,,,0,0,2,,,,,0,,,55,30
123310,set_tempo,,,,,60,1,0,,409556,,,,,,,
123355,control_change,,,,,115,0,1,,,,,0,64,0,,
123360,note_on,,,,,60,0,2,,,,,0,,,55,0
123360,note_on,,,,,5,0,1,,,,,0,,,67,0
123360,note_on,,,,,0,0,1,,,,,0,,,65,0
123360,note_on,,,,,0,0,1,,,,,0,,,59,0
123360,note_on,,,,,0,0,1,,,,,0,,,64,58
123360,note_on,,,,,0,0,1,,,,,0,,,60,58
123360,note_on,,,,,0,0,1,,,,,0,,,72,58
123360,control_change,,,,,0,0,1,,,,,0,64,95,,
123360,note_on,,,,,0,0,2,,,,,0,,,45,38
123380,set_tempo,,,,,70,1,0,,404040,,,,,,,
123405,note_on,,,,,45,0,2,,,,,0,,,45,0
123420,note_on,,,,,15,0,2,,,,,0,,,52,36
123480,set_tempo,,,,,100,1,0,,401337,,,,,,,
123480,note_on,,,,,60,0,2,,,,,0,,,52,0
123480,note_on,,,,,0,0,2,,,,,0,,,48,33
123490,set_tempo,,,,,10,1,0,,400000,,,,,,,
123540,note_on,,,,,60,0,2,,,,,0,,,48,0
123540,note_on,,,,,0,0,2,,,,,0,,,52,32
123595,control_change,,,,,235,0,1,,,,,0,64,0,,
123600,control_change,,,,,5,0,1,,,,,0,64,95,,
123600,note_on,,,,,0,0,2,,,,,0,,,57,39
123600,note_on,,,,,60,0,2,,,,,0,,,52,0
123660,note_on,,,,,60,0,2,,,,,0,,,57,0
123660,note_on,,,,,0,0,2,,,,,0,,,52,35
123690,note_on,,,,,90,0,1,,,,,0,,,72,0
123720,note_on,,,,,0,0,2,,,,,0,,,48,35
123720,note_on,,,,,30,0,1,,,,,0,,,72,51
123720,note_on,,,,,60,0,2,,,,,0,,,52,0
123780,note_on,,,,,60,0,2,,,,,0,,,48,0
123780,note_on,,,,,0,0,2,,,,,0,,,52,36
123835,control_change,,,,,115,0,1,,,,,0,64,0,,
123840,note_on,,,,,60,0,2,,,,,0,,,52,0
123840,note_on,,,,,0,0,2,,,,,0,,,41,39
123840,note_on,,,,,5,0,1,,,,,0,,,72,0
123840,note_on,,,,,0,0,1,,,,,0,,,60,0
123840,control_change,,,,,0,0,1,,,,,0,64,95,,
123840,note_on,,,,,0,0,1,,,,,0,,,72,59
123840,note_on,,,,,0,0,1,,,,,0,,,69,59
123840,note_on,,,,,0,0,1,,,,,0,,,65,59
123840,note_on,,,,,0,0,1,,,,,0,,,64,0
123885,note_on,,,,,45,0,2,,,,,0,,,41,0
123900,note_on,,,,,15,0,2,,,,,0,,,57,41
123910,set_tempo,,,,,420,1,0,,404040,,,,,,,
123950,set_tempo,,,,,40,1,0,,406779,,,,,,,
123960,note_on,,,,,60,0,2,,,,,0,,,57,0
123960,note_on,,,,,0,0,2,,,,,0,,,53,42
123990,set_tempo,,,,,40,1,0,,413793,,,,,,,
124020,note_on,,,,,60,0,2,,,,,0,,,53,0
124020,note_on,,,,,0,0,2,,,,,0,,,57,44
124075,control_change,,,,,235,0,1,,,,,0,64,0,,
124080,note_on,,,,,5,0,1,,,,,0,,,72,0
124080,note_on,,,,,0,0,1,,,,,0,,,74,52
124080,note_on,,,,,60,0,2,,,,,0,,,57,0
124080,note_on,,,,,0,0,2,,,,,0,,,62,44
124080,control_change,,,,,0,0,1,,,,,0,64,95,,
124120,set_tempo,,,,,130,1,0,,421052,,,,,,,
124140,set_tempo,,,,,20,1,0,,419580,,,,,,,
124140,note_on,,,,,0,0,2,,,,,0,,,57,44
124140,note_on,,,,,60,0,2,,,,,0,,,62,0
124185,note_on,,,,,105,0,1,,,,,0,,,74,0
124200,note_on,,,,,0,0,2,,,,,0,,,53,44
124200,note_on,,,,,60,0,2,,,,,0,,,57,0
124200,note_on,,,,,15,0,1,,,,,0,,,76,52
124260,note_on,,,,,0,0,2,,,,,0,,,57,45
124260,note_on,,,,,60,0,2,,,,,0,,,53,0
124305,note_on,,,,,105,0,1,,,,,0,,,76,0
124315,control_change,,,,,10,0,1,,,,,0,64,0,,
124320,note_on,,,,,0,0,2,,,,,0,,,43,47
124320,note_on,,,,,60,0,2,,,,,0,,,57,0
124320,control_change,,,,,0,0,1,,,,,0,64,95,,
124320,note_on,,,,,0,0,1,,,,,0,,,67,50
124320,note_on,,,,,0,0,1,,,,,0,,,64,50
124320,note_on,,,,,0,0,1,,,,,0,,,65,0
124320,note_on,,,,,5,0,1,,,,,0,,,69,0
124320,note_on,,,,,0,0,1,,,,,0,,,72,50
124320,set_tempo,,,,,180,1,0,,424028,,,,,,,
124365,note_on,,,,,45,0,2,,,,,0,,,43,0
124380,note_on,,,,,15,0,2,,,,,0,,,52,45
124410,set_tempo,,,,,90,1,0,,430107,,,,,,,
124440,note_on,,,,,60,0,2,,,,,0,,,52,0
124440,note_on,,,,,0,0,2,,,,,0,,,55,43
124500,note_on,,,,,60,0,2,,,,,0,,,55,0
124500,note_on,,,,,0,0,2,,,,,0,,,60,42
124520,set_tempo,,,,,110,1,0,,434782,,,,,,,
124545,note_on,,,,,225,0,1,,,,,0,,,67,0
124545,note_on,,,,,0,0,1,,,,,0,,,72,0
124545,note_on,,,,,0,0,1,,,,,0,,,64,0
124545,note_on,,,,,45,0,2,,,,,0,,,60,0
124555,control_change,,,,,10,0,1,,,,,0,64,0,,
124560,control_change,,,,,0,0,1,,,,,0,64,95,,
124560,note_on,,,,,15,0,2,,,,,0,,,43,38
124560,note_on,,,,,5,0,1,,,,,0,,,71,46
124560,note_on,,,,,0,0,1,,,,,0,,,65,46
124560,note_on,,,,,0,0,1,,,,,0,,,67,46
124590,set_tempo,,,,,70,1,0,,441176,,,,,,,
124605,note_on,,,,,45,0,2,,,,,0,,,43,0
124620,note_on,,,,,15,0,2,,,,,0,,,53,35
124670,set_tempo,,,,,80,1,0,,452830,,,,,,,
124680,note_on,,,,,0,0,2,,,,,0,,,55,35
124680,note_on,,,,,60,0,2,,,,,0,,,53,0
124740,set_tempo,,,,,70,1,0,,468750,,,,,,,
124740,note_on,,,,,0,0,2,,,,,0,,,62,38
124740,note_on,,,,,60,0,2,,,,,0,,,55,0
124785,note_on,,,,,45,0,2,,,,,0,,,62,0
124785,note_on,,,,,0,0,1,,,,,0,,,71,0
124785,note_on,,,,,0,0,1,,,,,0,,,67,0
124785,note_on,,,,,225,0,1,,,,,0,,,65,0
124795,control_change,,,,,10,0,1,,,,,0,64,0,,
124800,note_on,,,,,5,0,1,,,,,0,,,64,44
124800,note_on,,,,,0,0,1,,,,,0,,,67,44
124800,control_change,,,,,0,0,1,,,,,0,64,95,,
124800,note_on,,,,,15,0,2,,,,,0,,,48,39
124800,note_on,,,,,0,0,1,,,,,0,,,72,44
124830,set_tempo,,,,,90,1,0,,466926,,,,,,,
124860,set_tempo,,,,,30,1,0,,472440,,,,,,,
124860,note_on,,,,,60,0,2,,,,,0,,,48,0
124860,note_on,,,,,0,0,2,,,,,0,,,52,37
124890,set_tempo,,,,,30,1,0,,478087,,,,,,,
124900,set_tempo,,,,,10,1,0,,476190,,,,,,,
124920,note_on,,,,,0,0,2,,,,,0,,,55,36
124920,note_on,,,,,60,0,2,,,,,0,,,52,0
124980,note_on,,,,,0,0,2,,,,,0,,,64,32
124980,note_on,,,,,60,0,2,,,,,0,,,55,0
125035,control_change,,,,,235,0,1,,,,,0,64,0,,
125040,note_on,,,,,0,0,2,,,,,0,,,60,31
125040,set_tempo,,,,,140,1,0,,495867,,,,,,,
125040,control_change,,,,,5,0,1,,,,,0,64,95,,
125040,note_on,,,,,60,0,2,,,,,0,,,64,0
125070,set_tempo,,,,,30,1,0,,500000,,,,,,,
125100,note_on,,,,,60,0,2,,,,,0,,,60,0
125130,note_on,,,,,90,0,1,,,,,0,,,72,0
125130,note_on,,,,,0,0,1,,,,,0,,,67,0
125130,note_on,,,,,0,0,1,,,,,0,,,64,0
125150,set_tempo,,,,,80,1,0,,504201,,,,,,,
125160,note_on,,,,,60,0,2,,,,,0,,,40,106
125160,note_on,,,,,0,0,2,,,,,0,,,52,106
125160,set_tempo,,,,,10,1,0,,468750,,,,,,,
125275,control_change,,,,,145,0,1,,,,,0,64,0,,
125280,control_change,,,,,5,0,1,,,,,0,64,96,,
125280,control_change,,,,,0,0,1,,,,,0,64,95,,
125280,note_on,,,,,120,0,2,,,,,0,,,52,0
125280,note_on,,,,,0,0,2,,,,,0,,,40,0
125280,note_on,,,,,0,0,2,,,,,0,,,48,118
125280,note_on,,,,,0,0,2,,,,,0,,,60,118
125290,set_tempo,,,,,130,1,0,,363636,,,,,,,
125340,set_tempo,,,,,50,1,0,,357142,,,,,,,
125340,note_on,,,,,60,0,1,,,,,0,,,64,110
125370,set_tempo,,,,,30,1,0,,353982,,,,,,,
125400,note_on,,,,,60,0,1,,,,,0,,,64,0
125400,note_on,,,,,0,0,1,,,,,0,,,69,111
125400,set_tempo,,,,,30,1,0,,350877,,,,,,,
125440,set_tempo,,,,,40,1,0,,347826,,,,,,,
125460,note_on,,,,,60,0,1,,,,,0,,,69,0
125460,note_on,,,,,0,0,1,,,,,0,,,72,118
125515,control_change,,,,,55,0,1,,,,,0,64,0,,
125520,set_tempo,,,,,80,1,0,,348837,,,,,,,
125520,note_on,,,,,0,0,1,,,,,0,,,76,123
125520,control_change,,,,,0,0,1,,,,,0,64,95,,
125520,note_on,,,,,5,0,1,,,,,0,,,72,0
125580,note_on,,,,,0,0,1,,,,,0,,,84,115
125580,note_on,,,,,0,0,1,,,,,0,,,88,115
125580,note_on,,,,,60,0,1,,,,,0,,,76,0
125610,note_on,,,,,330,0,2,,,,,0,,,60,0
125610,note_on,,,,,0,0,2,,,,,0,,,48,0
125610,set_tempo,,,,,90,1,0,,344827,,,,,,,
125625,note_on,,,,,0,0,1,,,,,0,,,88,0
125625,note_on,,,,,45,0,1,,,,,0,,,84,0
125640,note_on,,,,,30,0,2,,,,,0,,,48,113
125640,note_on,,,,,0,0,2,,,,,0,,,60,113
125640,note_on,,,,,15,0,1,,,,,0,,,76,117
125700,note_on,,,,,60,0,1,,,,,0,,,76,0
125700,note_on,,,,,0,0,1,,,,,0,,,88,104
125700,note_on,,,,,0,0,1,,,,,0,,,84,104
125745,note_on,,,,,0,0,1,,,,,0,,,88,0
125745,note_on,,,,,45,0,1,,,,,0,,,84,0
125755,control_change,,,,,10,0,1,,,,,0,64,0,,
125760,control_change,,,,,5,0,1,,,,,0,64,95,,
125760,note_on,,,,,120,0,2,,,,,0,,,60,0
125760,set_tempo,,,,,150,1,0,,342857,,,,,,,
125760,note_on,,,,,0,0,2,,,,,0,,,59,119
125760,note_on,,,,,0,0,2,,,,,0,,,48,0
125760,note_on,,,,,0,0,2,,,,,0,,,47,119
125820,note_on,,,,,60,0,1,,,,,0,,,66,110
125870,set_tempo,,,,,110,1,0,,338983,,,,,,,
125880,note_on,,,,,60,0,1,,,,,0,,,66,0
125880,note_on,,,,,0,0,1,,,,,0,,,71,111
125940,note_on,,,,,60,0,1,,,,,0,,,71,0
125940,note_on,,,,,0,0,1,,,,,0,,,75,118
125960,set_tempo,,,,,90,1,0,,330578,,,,,,,
125995,control_change,,,,,55,0,1,,,,,0,64,0,,
126000,note_on,,,,,5,0,1,,,,,0,,,75,0
126000,note_on,,,,,0,0,1,,,,,0,,,78,123
126000,control_change,,,,,0,0,1,,,,,0,64,95,,
126060,note_on,,,,,60,0,1,,,,,0,,,78,0
126060,note_on,,,,,0,0,1,,,,,0,,,90,115
126060,note_on,,,,,0,0,1,,,,,0,,,87,115
126090,note_on,,,,,330,0,2,,,,,0,,,59,0
126090,note_on,,,,,0,0,2,,,,,0,,,47,0
126105,note_on,,,,,45,0,1,,,,,0,,,87,0
126105,note_on,,,,,0,0,1,,,,,0,,,90,0
126120,note_on,,,,,15,0,1,,,,,0,,,78,123
126120,note_on,,,,,0,0,2,,,,,0,,,59,114
126120,note_on,,,,,30,0,2,,,,,0,,,47,114
126180,note_on,,,,,60,0,1,,,,,0,,,78,0
126180,note_on,,,,,0,0,1,,,,,0,,,87,115
126180,note_on,,,,,0,0,1,,,,,0,,,90,115
126210,set_tempo,,,,,250,1,0,,334261,,,,,,,
126225,note_on,,,,,0,0,1,,,,,0,,,87,0
126225,note_on,,,,,45,0,1,,,,,0,,,90,0
126235,control_change,,,,,10,0,1,,,,,0,64,0,,
126240,note_on,,,,,0,0,2,,,,,0,,,57,125
126240,note_on,,,,,120,0,2,,,,,0,,,59,0
126240,note_on,,,,,0,0,2,,,,,0,,,47,0
126240,note_on,,,,,0,0,2,,,,,0,,,45,125
126240,control_change,,,,,5,0,1,,,,,0,64,95,,
126300,note_on,,,,,60,0,1,,,,,0,,,69,110
126360,note_on,,,,,60,0,1,,,,,0,,,69,0
126360,note_on,,,,,0,0,1,,,,,0,,,72,111
126420,note_on,,,,,60,0,1,,,,,0,,,72,0
126420,note_on,,,,,0,0,1,,,,,0,,,76,118
126475,control_change,,,,,55,0,1,,,,,0,64,0,,
126480,set_tempo,,,,,270,1,0,,337078,,,,,,,
126480,note_on,,,,,5,0,1,,,,,0,,,76,0
126480,note_on,,,,,0,0,1,,,,,0,,,81,123
126480,control_change,,,,,0,0,1,,,,,0,64,95,,
126510,set_tempo,,,,,30,1,0,,340909,,,,,,,
126540,note_on,,,,,60,0,1,,,,,0,,,81,0
126540,note_on,,,,,0,0,1,,,,,0,,,93,118
126540,note_on,,,,,0,0,1,,,,,0,,,88,118
126540,note_on,,,,,0,0,1,,,,,0,,,84,118
126550,set_tempo,,,,,40,1,0,,344827,,,,,,,
126570,note_on,,,,,330,0,2,,,,,0,,,57,0
126570,note_on,,,,,0,0,2,,,,,0,,,45,0
126585,note_on,,,,,0,0,1,,,,,0,,,88,0
126585,note_on,,,,,0,0,1,,,,,0,,,93,0
126585,note_on,,,,,45,0,1,,,,,0,,,84,0
126600,note_on,,,,,0,0,2,,,,,0,,,57,118
126600,note_on,,,,,30,0,2,,,,,0,,,45,118
126600,note_on,,,,,15,0,1,,,,,0,,,81,119
126630,set_tempo,,,,,80,1,0,,349854,,,,,,,
126645,note_on,,,,,45,0,1,,,,,0,,,81,0
126660,note_on,,,,,0,0,1,,,,,0,,,84,125
126660,note_on,,,,,0,0,1,,,,,0,,,88,125
126660,note_on,,,,,15,0,1,,,,,0,,,93,125
126700,set_tempo,,,,,70,1,0,,1000000,,,,,,,
126705,note_on,,,,,0,0,1,,,,,0,,,71,125
126705,note_on,,,,,0,0,1,,,,,0,,,93,0
126705,note_on,,,,,0,0,1,,,,,0,,,88,0
126705,note_on,,,,,45,0,1,,,,,0,,,84,0
126710,note_on,,,,,0,0,1,,,,,0,,,76,127
126710,note_on,,,,,5,0,1,,,,,0,,,71,0
126715,note_on,,,,,0,0,1,,,,,0,,,80,127
126715,control_change,,,,,0,0,1,,,,,0,64,0,,
126715,note_on,,,,,5,0,1,,,,,0,,,76,0
126720,note_on,,,,,0,0,2,,,,,0,,,45,0
126720,note_on,,,,,120,0,2,,,,,0,,,57,0
126720,set_tempo,,,,,20,1,0,,365853,,,,,,,
126720,note_on,,,,,0,0,2,,,,,0,,,52,126
126720,note_on,,,,,5,0,1,,,,,0,,,80,0
126720,note_on,,,,,0,0,1,,,,,0,,,95,127
126720,control_change,,,,,0,0,1,,,,,0,64,96,,
126720,note_on,,,,,0,0,2,,,,,0,,,40,126
126740,set_tempo,,,,,20,1,0,,368098,,,,,,,
126780,note_on,,,,,60,0,1,,,,,0,,,95,0
126780,note_on,,,,,0,0,1,,,,,0,,,92,121
126800,set_tempo,,,,,60,1,0,,369230,,,,,,,
126840,note_on,,,,,0,0,1,,,,,0,,,88,116
126840,note_on,,,,,60,0,1,,,,,0,,,92,0
126850,set_tempo,,,,,50,1,0,,372670,,,,,,,
126860,set_tempo,,,,,10,1,0,,375000,,,,,,,
126900,note_on,,,,,0,0,1,,,,,0,,,83,110
126900,set_tempo,,,,,40,1,0,,376175,,,,,,,
126900,note_on,,,,,60,0,1,,,,,0,,,88,0
126945,note_on,,,,,45,0,1,,,,,0,,,83,0
126955,control_change,,,,,10,0,1,,,,,0,64,0,,
126960,note_on,,,,,5,0,1,,,,,0,,,83,119
126960,control_change,,,,,0,0,1,,,,,0,64,96,,
127020,note_on,,,,,0,0,1,,,,,0,,,80,111
127020,note_on,,,,,60,0,1,,,,,0,,,83,0
127050,note_on,,,,,0,0,2,,,,,0,,,40,0
127050,note_on,,,,,330,0,2,,,,,0,,,52,0
127080,note_on,,,,,0,0,1,,,,,0,,,76,107
127080,note_on,,,,,0,0,2,,,,,0,,,40,118
127080,note_on,,,,,60,0,1,,,,,0,,,80,0
127080,note_on,,,,,30,0,2,,,,,0,,,52,118
127140,note_on,,,,,60,0,1,,,,,0,,,76,0
127140,note_on,,,,,0,0,1,,,,,0,,,71,105
127160,set_tempo,,,,,260,1,0,,382165,,,,,,,
127185,note_on,,,,,45,0,1,,,,,0,,,71,0
127195,control_change,,,,,10,0,1,,,,,0,64,0,,
127200,set_tempo,,,,,40,1,0,,365853,,,,,,,
127200,note_on,,,,,0,0,2,,,,,0,,,58,118
127200,note_on,,,,,120,0,2,,,,,0,,,40,0
127200,note_on,,,,,0,0,2,,,,,0,,,52,0
127200,note_on,,,,,0,0,2,,,,,0,,,46,118
127200,control_change,,,,,0,0,1,,,,,0,64,95,,
127200,control_change,,,,,5,0,1,,,,,0,64,96,,
127210,set_tempo,,,,,10,1,0,,363636,,,,,,,
127250,set_tempo,,,,,40,1,0,,357142,,,,,,,
127260,note_on,,,,,60,0,1,,,,,0,,,62,110
127300,set_tempo,,,,,50,1,0,,352941,,,,,,,
127320,set_tempo,,,,,20,1,0,,351906,,,,,,,
127320,note_on,,,,,60,0,1,,,,,0,,,62,0
127320,note_on,,,,,0,0,1,,,,,0,,,67,111
127360,set_tempo,,,,,40,1,0,,348837,,,,,,,
127380,note_on,,,,,0,0,1,,,,,0,,,70,118
127380,note_on,,,,,60,0,1,,,,,0,,,67,0
127420,set_tempo,,,,,60,1,0,,349854,,,,,,,
127435,control_change,,,,,55,0,1,,,,,0,64,0,,
127440,note_on,,,,,5,0,1,,,,,0,,,70,0
127440,control_change,,,,,0,0,1,,,,,0,64,95,,
127440,note_on,,,,,0,0,1,,,,,0,,,74,123
127460,set_tempo,,,,,40,1,0,,350877,,,,,,,
127500,note_on,,,,,60,0,1,,,,,0,,,74,0
127500,note_on,,,,,0,0,1,,,,,0,,,86,115
127500,note_on,,,,,0,0,1,,,,,0,,,82,115
127530,note_on,,,,,0,0,2,,,,,0,,,46,0
127530,note_on,,,,,330,0,2,,,,,0,,,58,0
127545,note_on,,,,,45,0,1,,,,,0,,,82,0
127545,note_on,,,,,0,0,1,,,,,0,,,86,0
127550,set_tempo,,,,,90,1,0,,344827,,,,,,,
127560,note_on,,,,,30,0,2,,,,,0,,,46,113
127560,note_on,,,,,15,0,1,,,,,0,,,74,117
127560,note_on,,,,,0,0,2,,,,,0,,,58,113
127620,note_on,,,,,0,0,1,,,,,0,,,86,104
127620,note_on,,,,,0,0,1,,,,,0,,,82,104
127620,note_on,,,,,60,0,1,,,,,0,,,74,0
127665,note_on,,,,,0,0,1,,,,,0,,,86,0
127665,note_on,,,,,45,0,1,,,,,0,,,82,0
127675,control_change,,,,,10,0,1,,,,,0,64,0,,
127680,note_on,,,,,0,0,2,,,,,0,,,45,119
127680,note_on,,,,,0,0,2,,,,,0,,,46,0
127680,note_on,,,,,120,0,2,,,,,0,,,58,0
127680,control_change,,,,,5,0,1,,,,,0,64,95,,
127680,note_on,,,,,0,0,2,,,,,0,,,57,119
127710,set_tempo,,,,,160,1,0,,340909,,,,,,,
127740,note_on,,,,,60,0,1,,,,,0,,,64,110
127800,note_on,,,,,0,0,1,,,,,0,,,69,111
127800,note_on,,,,,60,0,1,,,,,0,,,64,0
127860,note_on,,,,,60,0,1,,,,,0,,,69,0
127860,note_on,,,,,0,0,1,,,,,0,,,73,118
127860,set_tempo,,,,,150,1,0,,337078,,,,,,,
127915,control_change,,,,,55,0,1,,,,,0,64,0,,
127920,note_on,,,,,5,0,1,,,,,0,,,73,0
127920,control_change,,,,,0,0,1,,,,,0,64,95,,
127920,note_on,,,,,0,0,1,,,,,0,,,76,123
127980,set_tempo,,,,,120,1,0,,333333,,,,,,,
127980,note_on,,,,,60,0,1,,,,,0,,,76,0
127980,note_on,,,,,0,0,1,,,,,0,,,88,115
127980,note_on,,,,,0,0,1,,,,,0,,,85,115
128010,note_on,,,,,330,0,2,,,,,0,,,57,0
128010,note_on,,,,,0,0,2,,,,,0,,,45,0
128025,note_on,,,,,45,0,1,,,,,0,,,85,0
128025,note_on,,,,,0,0,1,,,,,0,,,88,0
128040,note_on,,,,,30,0,2,,,,,0,,,45,114
128040,note_on,,,,,0,0,2,,,,,0,,,57,114
128040,note_on,,,,,15,0,1,,,,,0,,,76,123
128100,note_on,,,,,0,0,1,,,,,0,,,85,115
128100,note_on,,,,,0,0,1,,,,,0,,,88,115
128100,note_on,,,,,60,0,1,,,,,0,,,76,0
128145,note_on,,,,,0,0,1,,,,,0,,,85,0
128145,note_on,,,,,45,0,1,,,,,0,,,88,0
128155,control_change,,,,,10,0,1,,,,,0,64,0,,
128160,note_on,,,,,0,0,2,,,,,0,,,55,125
128160,note_on,,,,,0,0,2,,,,,0,,,43,125
128160,note_on,,,,,0,0,2,,,,,0,,,45,0
128160,note_on,,,,,120,0,2,,,,,0,,,57,0
128160,control_change,,,,,5,0,1,,,,,0,64,95,,
128220,note_on,,,,,60,0,1,,,,,0,,,67,110
128280,note_on,,,,,60,0,1,,,,,0,,,67,0
128280,note_on,,,,,0,0,1,,,,,0,,,70,111
128340,note_on,,,,,60,0,1,,,,,0,,,70,0
128340,note_on,,,,,0,0,1,,,,,0,,,74,118
128395,control_change,,,,,55,0,1,,,,,0,64,0,,
128400,note_on,,,,,0,0,1,,,,,0,,,79,123
128400,note_on,,,,,5,0,1,,,,,0,,,74,0
128400,control_change,,,,,0,0,1,,,,,0,64,95,,
128440,set_tempo,,,,,460,1,0,,340909,,,,,,,
128460,note_on,,,,,0,0,1,,,,,0,,,91,118
128460,note_on,,,,,60,0,1,,,,,0,,,79,0
128460,note_on,,,,,0,0,1,,,,,0,,,86,118
128460,note_on,,,,,0,0,1,,,,,0,,,82,118
128490,note_on,,,,,0,0,2,,,,,0,,,43,0
128490,note_on,,,,,330,0,2,,,,,0,,,55,0
128490,set_tempo,,,,,50,1,0,,345821,,,,,,,
128505,note_on,,,,,45,0,1,,,,,0,,,82,0
128505,note_on,,,,,0,0,1,,,,,0,,,86,0
128505,note_on,,,,,0,0,1,,,,,0,,,91,0
128520,note_on,,,,,30,0,2,,,,,0,,,43,118
128520,set_tempo,,,,,30,1,0,,350877,,,,,,,
128520,note_on,,,,,0,0,2,,,,,0,,,55,118
128520,note_on,,,,,15,0,1,,,,,0,,,79,119
128530,set_tempo,,,,,10,1,0,,350877,,,,,,,
128565,note_on,,,,,45,0,1,,,,,0,,,79,0
128570,set_tempo,,,,,40,1,0,,355029,,,,,,,
128580,note_on,,,,,0,0,1,,,,,0,,,86,125
128580,note_on,,,,,15,0,1,,,,,0,,,91,125
128580,note_on,,,,,0,0,1,,,,,0,,,82,125
128620,set_tempo,,,,,50,1,0,,1000000,,,,,,,
128625,note_on,,,,,0,0,1,,,,,0,,,69,124
128625,note_on,,,,,0,0,1,,,,,0,,,86,0
128625,note_on,,,,,45,0,1,,,,,0,,,82,0
128625,note_on,,,,,0,0,1,,,,,0,,,91,0
128630,note_on,,,,,5,0,1,,,,,0,,,69,0
128630,note_on,,,,,0,0,1,,,,,0,,,74,125
128635,note_on,,,,,5,0,1,,,,,0,,,74,0
128635,note_on,,,,,0,0,1,,,,,0,,,78,125
128635,control_change,,,,,0,0,1,,,,,0,64,0,,
128640,note_on,,,,,0,0,2,,,,,0,,,50,126
128640,note_on,,,,,0,0,2,,,,,0,,,38,126
128640,note_on,,,,,0,0,2,,,,,0,,,43,0
128640,note_on,,,,,120,0,2,,,,,0,,,55,0
128640,note_on,,,,,5,0,1,,,,,0,,,78,0
128640,note_on,,,,,0,0,1,,,,,0,,,93,127
128640,control_change,,,,,0,0,1,,,,,0,64,96,,
128640,set_tempo,,,,,20,1,0,,365853,,,,,,,
128680,set_tempo,,,,,40,1,0,,364741,,,,,,,
128700,note_on,,,,,60,0,1,,,,,0,,,93,0
128700,note_on,,,,,0,0,1,,,,,0,,,90,122
128750,set_tempo,,,,,70,1,0,,370370,,,,,,,
128760,note_on,,,,,0,0,1,,,,,0,,,86,115
128760,note_on,,,,,60,0,1,,,,,0,,,90,0
128760,set_tempo,,,,,10,1,0,,371517,,,,,,,
128790,set_tempo,,,,,30,1,0,,376175,,,,,,,
128820,note_on,,,,,60,0,1,,,,,0,,,86,0
128820,note_on,,,,,0,0,1,,,,,0,,,81,111
128865,note_on,,,,,45,0,1,,,,,0,,,81,0
128875,control_change,,,,,10,0,1,,,,,0,64,0,,
128880,note_on,,,,,5,0,1,,,,,0,,,81,116
128880,control_change,,,,,0,0,1,,,,,0,64,96,,
128940,note_on,,,,,0,0,1,,,,,0,,,78,112
128940,note_on,,,,,60,0,1,,,,,0,,,81,0
128970,note_on,,,,,330,0,2,,,,,0,,,50,0
128970,note_on,,,,,0,0,2,,,,,0,,,38,0
129000,note_on,,,,,60,0,1,,,,,0,,,78,0
129000,note_on,,,,,0,0,1,,,,,0,,,74,106
129000,note_on,,,,,30,0,2,,,,,0,,,50,118
129000,note_on,,,,,0,0,2,,,,,0,,,38,118
129060,note_on,,,,,0,0,1,,,,,0,,,69,103
129060,note_on,,,,,60,0,1,,,,,0,,,74,0
129105,note_on,,,,,45,0,1,,,,,0,,,69,0
129115,control_change,,,,,10,0,1,,,,,0,64,0,,
129120,control_change,,,,,5,0,1,,,,,0,64,96,,
129120,note_on,,,,,0,0,2,,,,,0,,,50,0
129120,note_on,,,,,0,0,2,,,,,0,,,59,126
129120,note_on,,,,,0,0,2,,,,,0,,,56,126
129120,note_on,,,,,0,0,2,,,,,0,,,53,126
129120,note_on,,,,,0,0,2,,,,,0,,,47,126
129120,note_on,,,,,120,0,2,,,,,0,,,38,0
129180,note_on,,,,,60,0,1,,,,,0,,,62,122
129240,note_on,,,,,60,0,1,,,,,0,,,62,0
129240,note_on,,,,,0,0,1,,,,,0,,,65,122
129300,note_on,,,,,0,0,1,,,,,0,,,68,125
129300,note_on,,,,,60,0,1,,,,,0,,,65,0
129340,set_tempo,,,,,550,1,0,,382165,,,,,,,
129345,note_on,,,,,45,0,1,,,,,0,,,68,0
129355,control_change,,,,,10,0,1,,,,,0,64,0,,
129360,control_change,,,,,0,0,1,,,,,0,64,95,,
129360,note_on,,,,,5,0,1,,,,,0,,,74,124
129360,set_tempo,,,,,20,1,0,,384615,,,,,,,
129420,note_on,,,,,60,0,1,,,,,0,,,74,0
129420,note_on,,,,,0,0,1,,,,,0,,,86,116
129420,note_on,,,,,0,0,1,,,,,0,,,77,116
129420,note_on,,,,,0,0,1,,,,,0,,,80,116
129450,note_on,,,,,330,0,2,,,,,0,,,47,0
129450,note_on,,,,,0,0,2,,,,,0,,,59,0
129450,note_on,,,,,0,0,2,,,,,0,,,56,0
129450,note_on,,,,,0,0,2,,,,,0,,,53,0
129465,note_on,,,,,0,0,1,,,,,0,,,77,0
129465,note_on,,,,,45,0,1,,,,,0,,,80,0
129465,note_on,,,,,0,0,1,,,,,0,,,86,0
129480,note_on,,,,,0,0,2,,,,,0,,,53,118
129480,note_on,,,,,0,0,2,,,,,0,,,56,118
129480,note_on,,,,,30,0,2,,,,,0,,,47,118
129480,note_on,,,,,0,0,2,,,,,0,,,59,118
129480,note_on,,,,,15,0,1,,,,,0,,,74,121
129500,set_tempo,,,,,140,1,0,,387096,,,,,,,
129540,note_on,,,,,0,0,1,,,,,0,,,86,109
129540,note_on,,,,,60,0,1,,,,,0,,,74,0
129540,note_on,,,,,0,0,1,,,,,0,,,77,109
129540,note_on,,,,,0,0,1,,,,,0,,,80,109
129560,set_tempo,,,,,60,1,0,,389610,,,,,,,
129585,note_on,,,,,0,0,1,,,,,0,,,86,0
129585,note_on,,,,,0,0,1,,,,,0,,,80,0
129585,note_on,,,,,45,0,1,,,,,0,,,77,0
129585,note_on,,,,,105,0,2,,,,,0,,,59,0
129585,note_on,,,,,0,0,2,,,,,0,,,56,0
129585,note_on,,,,,0,0,2,,,,,0,,,53,0
129585,note_on,,,,,0,0,2,,,,,0,,,47,0
129595,control_change,,,,,10,0,1,,,,,0,64,0,,
129600,control_change,,,,,5,0,1,,,,,0,64,95,,
129600,note_on,,,,,0,0,2,,,,,0,,,47,126
129600,note_on,,,,,0,0,2,,,,,0,,,55,126
129600,note_on,,,,,0,0,2,,,,,0,,,53,126
129600,note_on,,,,,15,0,2,,,,,0,,,59,126
129660,set_tempo,,,,,100,1,0,,380952,,,,,,,
129660,note_on,,,,,60,0,1,,,,,0,,,62,124
129720,set_tempo,,,,,60,1,0,,377358,,,,,,,
129720,note_on,,,,,60,0,1,,,,,0,,,62,0
129720,note_on,,,,,0,0,1,,,,,0,,,65,126
129780,set_tempo,,,,,60,1,0,,368098,,,,,,,
129780,note_on,,,,,0,0,1,,,,,0,,,67,127
129780,note_on,,,,,60,0,1,,,,,0,,,65,0
129825,note_on,,,,,45,0,1,,,,,0,,,67,0
129830,set_tempo,,,,,50,1,0,,371517,,,,,,,
129835,control_change,,,,,10,0,1,,,,,0,64,0,,
129840,control_change,,,,,0,0,1,,,,,0,64,95,,
129840,note_on,,,,,5,0,1,,,,,0,,,74,124
129900,note_on,,,,,0,0,1,,,,,0,,,77,116
129900,note_on,,,,,0,0,1,,,,,0,,,86,116
129900,note_on,,,,,0,0,1,,,,,0,,,79,116
129900,note_on,,,,,60,0,1,,,,,0,,,74,0
129910,set_tempo,,,,,80,1,0,,376175,,,,,,,
129930,note_on,,,,,0,0,2,,,,,0,,,53,0
129930,note_on,,,,,0,0,2,,,,,0,,,55,0
129930,note_on,,,,,0,0,2,,,,,0,,,59,0
129930,note_on,,,,,330,0,2,,,,,0,,,47,0
129945,note_on,,,,,45,0,1,,,,,0,,,79,0
129945,note_on,,,,,0,0,1,,,,,0,,,77,0
129945,note_on,,,,,0,0,1,,,,,0,,,86,0
129950,set_tempo,,,,,40,1,0,,380952,,,,,,,
129960,note_on,,,,,30,0,2,,,,,0,,,59,118
129960,note_on,,,,,0,0,2,,,,,0,,,47,118
129960,note_on,,,,,0,0,2,,,,,0,,,53,118
129960,note_on,,,,,0,0,2,,,,,0,,,55,118
129960,note_on,,,,,15,0,1,,,,,0,,,74,121
129990,set_tempo,,,,,40,1,0,,394736,,,,,,,
130020,note_on,,,,,0,0,1,,,,,0,,,79,126
130020,note_on,,,,,0,0,1,,,,,0,,,77,126
130020,note_on,,,,,0,0,1,,,,,0,,,86,126
130020,note_on,,,,,60,0,1,,,,,0,,,74,0
130040,set_tempo,,,,,50,1,0,,404040,,,,,,,
130060,set_tempo,,,,,20,1,0,,402684,,,,,,,
130065,note_on,,,,,0,0,2,,,,,0,,,59,0
130065,note_on,,,,,0,0,2,,,,,0,,,53,0
130065,note_on,,,,,0,0,2,,,,,0,,,55,0
130065,note_on,,,,,105,0,2,,,,,0,,,47,0
130065,note_on,,,,,45,0,1,,,,,0,,,79,0
130065,note_on,,,,,0,0,1,,,,,0,,,77,0
130065,note_on,,,,,0,0,1,,,,,0,,,86,0
130075,control_change,,,,,10,0,1,,,,,0,64,0,,
130080,control_change,,,,,0,0,1,,,,,0,64,95,,
130080,note_on,,,,,5,0,1,,,,,0,,,75,127
130080,note_on,,,,,15,0,2,,,,,0,,,48,126
130080,set_tempo,,,,,20,1,0,,352941,,,,,,,
130090,set_tempo,,,,,10,1,0,,350877,,,,,,,
130100,set_tempo,,,,,10,1,0,,349854,,,,,,,
130133,note_on,,,,,53,0,1,,,,,0,,,75,0
130140,set_tempo,,,,,40,1,0,,359281,,,,,,,
130140,note_on,,,,,7,0,1,,,,,0,,,79,124
130140,note_on,,,,,0,0,1,,,,,0,,,87,124
130140,note_on,,,,,0,0,1,,,,,0,,,84,124
130170,note_on,,,,,90,0,2,,,,,0,,,48,0
130185,note_on,,,,,0,0,1,,,,,0,,,79,0
130185,note_on,,,,,45,0,1,,,,,0,,,84,0
130185,note_on,,,,,0,0,1,,,,,0,,,87,0
130200,note_on,,,,,0,0,2,,,,,0,,,51,118
130200,note_on,,,,,0,0,2,,,,,0,,,55,118
130200,note_on,,,,,15,0,1,,,,,0,,,79,116
130200,note_on,,,,,0,0,1,,,,,0,,,87,116
130200,note_on,,,,,0,0,1,,,,,0,,,84,116
130200,note_on,,,,,30,0,2,,,,,0,,,60,118
130230,set_tempo,,,,,90,1,0,,364741,,,,,,,
130245,note_on,,,,,0,0,1,,,,,0,,,87,0
130245,note_on,,,,,0,0,1,,,,,0,,,79,0
130245,note_on,,,,,45,0,1,,,,,0,,,84,0
130260,note_on,,,,,15,0,1,,,,,0,,,75,99
130290,note_on,,,,,90,0,2,,,,,0,,,51,0
130290,note_on,,,,,0,0,2,,,,,0,,,55,0
130290,note_on,,,,,0,0,2,,,,,0,,,60,0
130305,note_on,,,,,45,0,1,,,,,0,,,75,0
130315,control_change,,,,,10,0,1,,,,,0,64,0,,
130320,note_on,,,,,30,0,2,,,,,0,,,41,124
130320,control_change,,,,,0,0,1,,,,,0,64,95,,
130320,note_on,,,,,5,0,1,,,,,0,,,74,120
130373,note_on,,,,,53,0,1,,,,,0,,,74,0
130380,note_on,,,,,7,0,1,,,,,0,,,86,117
130380,note_on,,,,,0,0,1,,,,,0,,,80,117
130380,note_on,,,,,0,0,1,,,,,0,,,77,117
130410,note_on,,,,,90,0,2,,,,,0,,,41,0
130425,note_on,,,,,45,0,1,,,,,0,,,77,0
130425,note_on,,,,,0,0,1,,,,,0,,,80,0
130425,note_on,,,,,0,0,1,,,,,0,,,86,0
130440,note_on,,,,,30,0,2,,,,,0,,,53,111
130440,note_on,,,,,0,0,2,,,,,0,,,62,111
130440,note_on,,,,,15,0,1,,,,,0,,,86,109
130440,note_on,,,,,0,0,1,,,,,0,,,80,109
130440,note_on,,,,,0,0,2,,,,,0,,,56,111
130440,note_on,,,,,0,0,1,,,,,0,,,77,109
130485,note_on,,,,,0,0,1,,,,,0,,,86,0
130485,note_on,,,,,0,0,1,,,,,0,,,80,0
130485,note_on,,,,,45,0,1,,,,,0,,,77,0
130500,note_on,,,,,15,0,1,,,,,0,,,74,106
130530,set_tempo,,,,,300,1,0,,369230,,,,,,,
130530,note_on,,,,,0,0,2,,,,,0,,,53,0
130530,note_on,,,,,90,0,2,,,,,0,,,62,0
130530,note_on,,,,,0,0,2,,,,,0,,,56,0
130545,note_on,,,,,45,0,1,,,,,0,,,74,0
130555,control_change,,,,,10,0,1,,,,,0,64,0,,
130560,control_change,,,,,0,0,1,,,,,0,64,95,,
130560,note_on,,,,,5,0,1,,,,,0,,,72,117
130560,note_on,,,,,30,0,2,,,,,0,,,43,119
130613,note_on,,,,,53,0,1,,,,,0,,,72,0
130620,note_on,,,,,0,0,1,,,,,0,,,75,111
130620,note_on,,,,,7,0,1,,,,,0,,,84,111
130620,note_on,,,,,0,0,1,,,,,0,,,79,111
130650,note_on,,,,,90,0,2,,,,,0,,,43,0
130665,note_on,,,,,45,0,1,,,,,0,,,79,0
130665,note_on,,,,,0,0,1,,,,,0,,,75,0
130665,note_on,,,,,0,0,1,,,,,0,,,84,0
130680,note_on,,,,,30,0,2,,,,,0,,,60,101
130680,note_on,,,,,15,0,1,,,,,0,,,84,105
130680,note_on,,,,,0,0,1,,,,,0,,,79,105
130680,note_on,,,,,0,0,1,,,,,0,,,75,105
130680,note_on,,,,,0,0,2,,,,,0,,,55,101
130680,note_on,,,,,0,0,2,,,,,0,,,51,101
130720,set_tempo,,,,,190,1,0,,372670,,,,,,,
130725,note_on,,,,,0,0,1,,,,,0,,,84,0
130725,note_on,,,,,45,0,1,,,,,0,,,79,0
130725,note_on,,,,,0,0,1,,,,,0,,,75,0
130740,note_on,,,,,15,0,1,,,,,0,,,72,95
130770,note_on,,,,,0,0,2,,,,,0,,,60,0
130770,note_on,,,,,0,0,2,,,,,0,,,51,0
130770,note_on,,,,,90,0,2,,,,,0,,,55,0
130785,note_on,,,,,45,0,1,,,,,0,,,72,0
130790,set_tempo,,,,,70,1,0,,377358,,,,,,,
130795,control_change,,,,,10,0,1,,,,,0,64,0,,
130800,control_change,,,,,0,0,1,,,,,0,64,96,,
130800,note_on,,,,,30,0,2,,,,,0,,,43,111
130800,note_on,,,,,5,0,1,,,,,0,,,71,111
130840,set_tempo,,,,,50,1,0,,382165,,,,,,,
130853,note_on,,,,,53,0,1,,,,,0,,,71,0
130860,note_on,,,,,7,0,1,,,,,0,,,74,100
130860,note_on,,,,,0,0,1,,,,,0,,,83,100
130860,note_on,,,,,0,0,1,,,,,0,,,79,100
130890,note_on,,,,,90,0,2,,,,,0,,,43,0
130890,set_tempo,,,,,50,1,0,,385852,,,,,,,
130905,note_on,,,,,45,0,1,,,,,0,,,79,0
130905,note_on,,,,,0,0,1,,,,,0,,,83,0
130905,note_on,,,,,0,0,1,,,,,0,,,74,0
130920,note_on,,,,,30,0,2,,,,,0,,,59,96
130920,note_on,,,,,0,0,1,,,,,0,,,79,96
130920,note_on,,,,,0,0,2,,,,,0,,,55,96
130920,note_on,,,,,0,0,1,,,,,0,,,83,96
130920,note_on,,,,,15,0,1,,,,,0,,,74,96
130920,note_on,,,,,0,0,2,,,,,0,,,50,96
130930,set_tempo,,,,,40,1,0,,392156,,,,,,,
130960,set_tempo,,,,,30,1,0,,397350,,,,,,,
130965,note_on,,,,,45,0,1,,,,,0,,,79,0
130965,note_on,,,,,0,0,1,,,,,0,,,83,0
130965,note_on,,,,,0,0,1,,,,,0,,,74,0
130980,note_on,,,,,15,0,1,,,,,0,,,71,85
131000,set_tempo,,,,,40,1,0,,405405,,,,,,,
131010,note_on,,,,,90,0,2,,,,,0,,,50,0
131010,note_on,,,,,0,0,2,,,,,0,,,59,0
131010,note_on,,,,,0,0,2,,,,,0,,,55,0
131010,set_tempo,,,,,10,1,0,,645161,,,,,,,
131025,note_on,,,,,45,0,1,,,,,0,,,71,0
131025,control_change,,,,,0,0,1,,,,,0,64,0,,
131040,note_on,,,,,30,0,2,,,,,0,,,59,66
131040,note_on,,,,,0,0,2,,,,,0,,,56,66
131040,note_on,,,,,0,0,2,,,,,0,,,47,66
131040,control_change,,,,,15,0,1,,,,,0,64,96,,
131040,note_on,,,,,0,0,2,,,,,0,,,53,66
131040,set_tempo,,,,,30,1,0,,372670,,,,,,,
131080,set_tempo,,,,,40,1,0,,375000,,,,,,,
131100,note_on,,,,,60,0,1,,,,,0,,,62,60
131140,set_tempo,,,,,60,1,0,,376175,,,,,,,
131160,set_tempo,,,,,20,1,0,,380952,,,,,,,
131160,note_on,,,,,60,0,1,,,,,0,,,62,0
131160,note_on,,,,,0,0,1,,,,,0,,,65,65
131220,note_on,,,,,0,0,1,,,,,0,,,68,65
131220,note_on,,,,,60,0,1,,,,,0,,,65,0
131265,note_on,,,,,45,0,1,,,,,0,,,68,0
131275,control_change,,,,,10,0,1,,,,,0,64,0,,
131280,note_on,,,,,5,0,1,,,,,0,,,74,66
131280,control_change,,,,,0,0,1,,,,,0,64,95,,
131300,set_tempo,,,,,140,1,0,,384615,,,,,,,
131340,note_on,,,,,0,0,1,,,,,0,,,86,61
131340,note_on,,,,,0,0,1,,,,,0,,,80,61
131340,note_on,,,,,0,0,1,,,,,0,,,77,61
131340,note_on,,,,,60,0,1,,,,,0,,,74,0
131370,note_on,,,,,0,0,2,,,,,0,,,56,0
131370,note_on,,,,,330,0,2,,,,,0,,,47,0
131370,note_on,,,,,0,0,2,,,,,0,,,53,0
131370,note_on,,,,,0,0,2,,,,,0,,,59,0
131385,note_on,,,,,0,0,1,,,,,0,,,86,0
131385,note_on,,,,,0,0,1,,,,,0,,,77,0
131385,note_on,,,,,45,0,1,,,,,0,,,80,0
131400,note_on,,,,,0,0,2,,,,,0,,,59,67
131400,note_on,,,,,15,0,1,,,,,0,,,74,56
131400,note_on,,,,,0,0,2,,,,,0,,,56,67
131400,note_on,,,,,0,0,2,,,,,0,,,53,67
131400,note_on,,,,,30,0,2,,,,,0,,,47,67
131420,set_tempo,,,,,120,1,0,,388349,,,,,,,
131430,set_tempo,,,,,10,1,0,,389610,,,,,,,
131460,note_on,,,,,60,0,1,,,,,0,,,74,0
131460,note_on,,,,,0,0,1,,,,,0,,,80,53
131460,note_on,,,,,0,0,1,,,,,0,,,86,53
131460,note_on,,,,,0,0,1,,,,,0,,,77,53
131490,set_tempo,,,,,60,1,0,,393442,,,,,,,
131505,note_on,,,,,0,0,1,,,,,0,,,86,0
131505,note_on,,,,,45,0,1,,,,,0,,,77,0
131505,note_on,,,,,0,0,2,,,,,0,,,56,0
131505,note_on,,,,,105,0,2,,,,,0,,,59,0
131505,note_on,,,,,0,0,2,,,,,0,,,47,0
131505,note_on,,,,,0,0,2,,,,,0,,,53,0
131505,note_on,,,,,0,0,1,,,,,0,,,80,0
131515,control_change,,,,,10,0,1,,,,,0,64,0,,
131520,note_on,,,,,0,0,2,,,,,0,,,55,69
131520,control_change,,,,,5,0,1,,,,,0,64,95,,
131520,note_on,,,,,0,0,2,,,,,0,,,53,69
131520,note_on,,,,,15,0,2,,,,,0,,,59,69
131520,note_on,,,,,0,0,2,,,,,0,,,47,69
131530,set_tempo,,,,,40,1,0,,387096,,,,,,,
131550,set_tempo,,,,,20,1,0,,383386,,,,,,,
131580,note_on,,,,,60,0,1,,,,,0,,,62,53
131590,set_tempo,,,,,40,1,0,,378548,,,,,,,
131640,note_on,,,,,0,0,1,,,,,0,,,65,55
131640,note_on,,,,,60,0,1,,,,,0,,,62,0
131660,set_tempo,,,,,70,1,0,,372670,,,,,,,
131670,set_tempo,,,,,10,1,0,,369230,,,,,,,
131700,note_on,,,,,0,0,1,,,,,0,,,67,57
131700,note_on,,,,,60,0,1,,,,,0,,,65,0
131745,note_on,,,,,45,0,1,,,,,0,,,67,0
131755,control_change,,,,,10,0,1,,,,,0,64,0,,
131760,note_on,,,,,5,0,1,,,,,0,,,74,59
131760,control_change,,,,,0,0,1,,,,,0,64,95,,
131810,set_tempo,,,,,140,1,0,,373831,,,,,,,
131820,note_on,,,,,60,0,1,,,,,0,,,74,0
131820,note_on,,,,,0,0,1,,,,,0,,,86,56
131820,note_on,,,,,0,0,1,,,,,0,,,77,56
131820,note_on,,,,,0,0,1,,,,,0,,,79,56
131850,note_on,,,,,0,0,2,,,,,0,,,59,0
131850,note_on,,,,,0,0,2,,,,,0,,,55,0
131850,note_on,,,,,0,0,2,,,,,0,,,53,0
131850,note_on,,,,,330,0,2,,,,,0,,,47,0
131860,set_tempo,,,,,50,1,0,,378548,,,,,,,
131865,note_on,,,,,45,0,1,,,,,0,,,79,0
131865,note_on,,,,,0,0,1,,,,,0,,,77,0
131865,note_on,,,,,0,0,1,,,,,0,,,86,0
131880,note_on,,,,,30,0,2,,,,,0,,,59,70
131880,note_on,,,,,0,0,2,,,,,0,,,55,70
131880,note_on,,,,,0,0,2,,,,,0,,,53,70
131880,note_on,,,,,15,0,1,,,,,0,,,74,52
131880,note_on,,,,,0,0,2,,,,,0,,,47,70
131890,set_tempo,,,,,30,1,0,,382165,,,,,,,
131920,set_tempo,,,,,30,1,0,,392156,,,,,,,
131930,set_tempo,,,,,10,1,0,,393442,,,,,,,
131940,note_on,,,,,0,0,1,,,,,0,,,79,49
131940,note_on,,,,,0,0,1,,,,,0,,,86,49
131940,note_on,,,,,0,0,1,,,,,0,,,77,49
131940,note_on,,,,,60,0,1,,,,,0,,,74,0
131950,set_tempo,,,,,20,1,0,,402684,,,,,,,
131985,note_on,,,,,105,0,2,,,,,0,,,47,0
131985,note_on,,,,,0,0,2,,,,,0,,,59,0
131985,note_on,,,,,0,0,2,,,,,0,,,55,0
131985,note_on,,,,,0,0,1,,,,,0,,,86,0
131985,note_on,,,,,0,0,1,,,,,0,,,77,0
131985,note_on,,,,,45,0,1,,,,,0,,,79,0
131985,note_on,,,,,0,0,2,,,,,0,,,53,0
131995,control_change,,,,,10,0,1,,,,,0,64,0,,
132000,control_change,,,,,0,0,1,,,,,0,64,95,,
132000,note_on,,,,,5,0,1,,,,,0,,,75,61
132000,set_tempo,,,,,50,1,0,,352941,,,,,,,
132000,note_on,,,,,15,0,2,,,,,0,,,48,74
132010,set_tempo,,,,,10,1,0,,352941,,,,,,,
132053,note_on,,,,,53,0,1,,,,,0,,,75,0
132060,note_on,,,,,0,0,1,,,,,0,,,84,56
132060,set_tempo,,,,,50,1,0,,356083,,,,,,,
132060,note_on,,,,,7,0,1,,,,,0,,,79,56
132060,note_on,,,,,0,0,1,,,,,0,,,87,56
132090,note_on,,,,,90,0,2,,,,,0,,,48,0
132105,note_on,,,,,45,0,1,,,,,0,,,84,0
132105,note_on,,,,,0,0,1,,,,,0,,,87,0
132105,note_on,,,,,0,0,1,,,,,0,,,79,0
132120,note_on,,,,,30,0,2,,,,,0,,,60,58
132120,note_on,,,,,15,0,1,,,,,0,,,79,52
132120,note_on,,,,,0,0,1,,,,,0,,,87,52
132120,note_on,,,,,0,0,1,,,,,0,,,84,52
132120,note_on,,,,,0,0,2,,,,,0,,,55,58
132120,note_on,,,,,0,0,2,,,,,0,,,51,58
132130,set_tempo,,,,,70,1,0,,362537,,,,,,,
132165,note_on,,,,,0,0,1,,,,,0,,,79,0
132165,note_on,,,,,0,0,1,,,,,0,,,87,0
132165,note_on,,,,,45,0,1,,,,,0,,,84,0
132180,note_on,,,,,15,0,1,,,,,0,,,75,48
132190,set_tempo,,,,,60,1,0,,371517,,,,,,,
132210,note_on,,,,,0,0,2,,,,,0,,,55,0
132210,note_on,,,,,0,0,2,,,,,0,,,60,0
132210,note_on,,,,,90,0,2,,,,,0,,,51,0
132225,note_on,,,,,45,0,1,,,,,0,,,75,0
132235,control_change,,,,,10,0,1,,,,,0,64,0,,
132240,note_on,,,,,30,0,2,,,,,0,,,44,63
132240,control_change,,,,,0,0,1,,,,,0,64,95,,
132240,note_on,,,,,5,0,1,,,,,0,,,72,54
132270,set_tempo,,,,,80,1,0,,378548,,,,,,,
132293,note_on,,,,,53,0,1,,,,,0,,,72,0
132300,note_on,,,,,0,0,1,,,,,0,,,80,49
132300,note_on,,,,,0,0,1,,,,,0,,,75,49
132300,note_on,,,,,7,0,1,,,,,0,,,84,49
132330,note_on,,,,,90,0,2,,,,,0,,,44,0
132340,set_tempo,,,,,70,1,0,,389610,,,,,,,
132345,note_on,,,,,0,0,1,,,,,0,,,84,0
132345,note_on,,,,,0,0,1,,,,,0,,,75,0
132345,note_on,,,,,45,0,1,,,,,0,,,80,0
132350,set_tempo,,,,,10,1,0,,390879,,,,,,,
132360,note_on,,,,,15,0,1,,,,,0,,,84,44
132360,note_on,,,,,30,0,2,,,,,0,,,60,52
132360,note_on,,,,,0,0,2,,,,,0,,,51,52
132360,note_on,,,,,0,0,2,,,,,0,,,56,52
132360,note_on,,,,,0,0,1,,,,,0,,,75,44
132360,note_on,,,,,0,0,1,,,,,0,,,80,44
132390,set_tempo,,,,,40,1,0,,397350,,,,,,,
132405,note_on,,,,,0,0,1,,,,,0,,,75,0
132405,note_on,,,,,0,0,1,,,,,0,,,84,0
132405,note_on,,,,,45,0,1,,,,,0,,,80,0
132420,note_on,,,,,15,0,1,,,,,0,,,72,40
132430,set_tempo,,,,,40,1,0,,409556,,,,,,,
132440,set_tempo,,,,,10,1,0,,410958,,,,,,,
132450,note_on,,,,,0,0,2,,,,,0,,,60,0
132450,note_on,,,,,0,0,2,,,,,0,,,51,0
132450,note_on,,,,,90,0,2,,,,,0,,,56,0
132460,set_tempo,,,,,20,1,0,,418118,,,,,,,
132465,note_on,,,,,45,0,1,,,,,0,,,72,0
132475,control_change,,,,,10,0,1,,,,,0,64,0,,
132480,note_on,,,,,30,0,2,,,,,0,,,46,56
132480,set_tempo,,,,,20,1,0,,427046,,,,,,,
132480,note_on,,,,,5,0,1,,,,,0,,,70,51
132480,control_change,,,,,0,0,1,,,,,0,64,95,,
132510,set_tempo,,,,,30,1,0,,434782,,,,,,,
132533,note_on,,,,,53,0,1,,,,,0,,,70,0
132540,note_on,,,,,0,0,1,,,,,0,,,79,49
132540,note_on,,,,,7,0,1,,,,,0,,,82,49
132540,note_on,,,,,0,0,1,,,,,0,,,75,49
132570,note_on,,,,,90,0,2,,,,,0,,,46,0
132570,set_tempo,,,,,60,1,0,,452830,,,,,,,
132585,note_on,,,,,45,0,1,,,,,0,,,79,0
132585,note_on,,,,,0,0,1,,,,,0,,,75,0
132585,note_on,,,,,0,0,1,,,,,0,,,82,0
132590,set_tempo,,,,,20,1,0,,465116,,,,,,,
132600,note_on,,,,,0,0,1,,,,,0,,,75,46
132600,note_on,,,,,0,0,2,,,,,0,,,58,45
132600,note_on,,,,,0,0,2,,,,,0,,,63,45
132600,note_on,,,,,30,0,2,,,,,0,,,55,45
132600,note_on,,,,,0,0,1,,,,,0,,,79,46
132600,set_tempo,,,,,10,1,0,,465116,,,,,,,
132600,note_on,,,,,15,0,1,,,,,0,,,82,46
132620,set_tempo,,,,,20,1,0,,468750,,,,,,,
132645,note_on,,,,,0,0,1,,,,,0,,,75,0
132645,note_on,,,,,0,0,1,,,,,0,,,82,0
132645,note_on,,,,,45,0,1,,,,,0,,,79,0
132660,note_on,,,,,15,0,1,,,,,0,,,70,42
132660,set_tempo,,,,,40,1,0,,497925,,,,,,,
132690,note_on,,,,,0,0,2,,,,,0,,,55,0
132690,note_on,,,,,90,0,2,,,,,0,,,58,0
132690,set_tempo,,,,,30,1,0,,517241,,,,,,,
132690,note_on,,,,,0,0,2,,,,,0,,,63,0
132700,set_tempo,,,,,10,1,0,,547945,,,,,,,
132705,note_on,,,,,45,0,1,,,,,0,,,70,0
132715,control_change,,,,,10,0,1,,,,,0,64,0,,
132720,note_on,,,,,5,0,1,,,,,0,,,70,44
132720,control_change,,,,,0,0,1,,,,,0,64,96,,
132720,note_on,,,,,30,0,2,,,,,0,,,46,38
132740,set_tempo,,,,,40,1,0,,582524,,,,,,,
132770,set_tempo,,,,,30,1,0,,606060,,,,,,,
132773,note_on,,,,,53,0,1,,,,,0,,,70,0
132780,note_on,,,,,7,0,1,,,,,0,,,82,40
132780,note_on,,,,,0,0,1,,,,,0,,,77,40
132780,note_on,,,,,0,0,1,,,,,0,,,74,40
132810,note_on,,,,,90,0,2,,,,,0,,,46,0
132810,set_tempo,,,,,40,1,0,,745341,,,,,,,
132825,note_on,,,,,0,0,1,,,,,0,,,77,0
132825,note_on,,,,,0,0,1,,,,,0,,,82,0
132825,note_on,,,,,45,0,1,,,,,0,,,74,0
132830,set_tempo,,,,,20,1,0,,750000,,,,,,,
132840,note_on,,,,,30,0,2,,,,,0,,,68,32
132840,note_on,,,,,0,0,1,,,,,0,,,74,37
132840,set_tempo,,,,,10,1,0,,794701,,,,,,,
132840,note_on,,,,,0,0,2,,,,,0,,,58,32
132840,note_on,,,,,0,0,1,,,,,0,,,77,37
132840,note_on,,,,,0,0,2,,,,,0,,,62,32
132840,note_on,,,,,15,0,1,,,,,0,,,82,37
132860,set_tempo,,,,,20,1,0,,827586,,,,,,,
132885,note_on,,,,,0,0,1,,,,,0,,,82,0
132885,note_on,,,,,0,0,1,,,,,0,,,77,0
132885,note_on,,,,,45,0,1,,,,,0,,,74,0
132890,set_tempo,,,,,30,1,0,,851063,,,,,,,
132900,note_on,,,,,15,0,1,,,,,0,,,70,34
132930,note_on,,,,,0,0,2,,,,,0,,,62,0
132930,note_on,,,,,0,0,2,,,,,0,,,68,0
132930,note_on,,,,,90,0,2,,,,,0,,,58,0
132930,set_tempo,,,,,40,1,0,,869565,,,,,,,
132940,set_tempo,,,,,10,1,0,,2222222,,,,,,,
132945,note_on,,,,,45,0,1,,,,,0,,,70,0
132945,note_on,,,,,0,0,1,,,,,0,,,74,49
132950,note_on,,,,,5,0,1,,,,,0,,,74,0
132950,note_on,,,,,0,0,1,,,,,0,,,77,60
132955,note_on,,,,,5,0,1,,,,,0,,,77,0
132955,note_on,,,,,0,0,1,,,,,0,,,80,60
132960,set_tempo,,,,,20,1,0,,594059,,,,,,,
132960,note_on,,,,,0,0,1,,,,,0,,,84,60
132960,note_on,,,,,30,0,2,,,,,0,,,46,45
132960,note_on,,,,,5,0,1,,,,,0,,,80,0
132970,set_tempo,,,,,10,1,0,,441176,,,,,,,
132980,set_tempo,,,,,10,1,0,,437956,,,,,,,
133010,set_tempo,,,,,30,1,0,,421052,,,,,,,
133020,note_on,,,,,0,0,1,,,,,0,,,82,57
133020,note_on,,,,,60,0,1,,,,,0,,,84,0
133050,note_on,,,,,90,0,2,,,,,0,,,46,0
133080,note_on,,,,,30,0,2,,,,,0,,,68,45
133080,note_on,,,,,0,0,2,,,,,0,,,65,45
133080,note_on,,,,,60,0,1,,,,,0,,,82,0
133080,note_on,,,,,0,0,1,,,,,0,,,80,59
133080,note_on,,,,,0,0,2,,,,,0,,,62,45
133080,note_on,,,,,0,0,2,,,,,0,,,58,45
133100,set_tempo,,,,,90,1,0,,415224,,,,,,,
133140,note_on,,,,,0,0,1,,,,,0,,,79,56
133140,set_tempo,,,,,40,1,0,,405405,,,,,,,
133140,note_on,,,,,60,0,1,,,,,0,,,80,0
133200,note_on,,,,,60,0,1,,,,,0,,,79,0
133200,note_on,,,,,0,0,1,,,,,0,,,77,52
133220,set_tempo,,,,,80,1,0,,401337,,,,,,,
133260,note_on,,,,,60,0,1,,,,,0,,,77,0
133260,note_on,,,,,0,0,1,,,,,0,,,75,48
133280,set_tempo,,,,,60,1,0,,398671,,,,,,,
133320,note_on,,,,,0,0,1,,,,,0,,,74,47
133320,note_on,,,,,60,0,1,,,,,0,,,75,0
133380,note_on,,,,,0,0,1,,,,,0,,,72,45
133380,note_on,,,,,60,0,1,,,,,0,,,74,0
133400,set_tempo,,,,,120,1,0,,392156,,,,,,,
133440,note_on,,,,,0,0,2,,,,,0,,,65,0
133440,note_on,,,,,0,0,2,,,,,0,,,68,0
133440,note_on,,,,,360,0,2,,,,,0,,,58,0
133440,note_on,,,,,0,0,1,,,,,0,,,70,45
133440,note_on,,,,,0,0,2,,,,,0,,,62,0
133440,note_on,,,,,60,0,1,,,,,0,,,72,0
133440,set_tempo,,,,,40,1,0,,400000,,,,,,,
133450,set_tempo,,,,,10,1,0,,401337,,,,,,,
133480,set_tempo,,,,,30,1,0,,413793,,,,,,,
133500,note_on,,,,,60,0,1,,,,,0,,,70,0
133500,note_on,,,,,0,0,1,,,,,0,,,72,44
133510,set_tempo,,,,,30,1,0,,431654,,,,,,,
133530,set_tempo,,,,,20,1,0,,433212,,,,,,,
133540,set_tempo,,,,,10,1,0,,459770,,,,,,,
133560,set_tempo,,,,,20,1,0,,495867,,,,,,,
133560,note_on,,,,,60,0,1,,,,,0,,,72,0
133560,note_on,,,,,0,0,1,,,,,0,,,74,43
133570,set_tempo,,,,,10,1,0,,497925,,,,,,,
133580,set_tempo,,,,,10,1,0,,515021,,,,,,,
133620,note_on,,,,,60,0,1,,,,,0,,,74,0
133620,note_on,,,,,0,0,1,,,,,0,,,75,43
133620,set_tempo,,,,,40,1,0,,563380,,,,,,,
133650,set_tempo,,,,,30,1,0,,597014,,,,,,,
133680,set_tempo,,,,,30,1,0,,645161,,,,,,,
133680,note_on,,,,,60,0,1,,,,,0,,,75,0
133680,note_on,,,,,0,0,1,,,,,0,,,77,42
133710,set_tempo,,,,,30,1,0,,662983,,,,,,,
133740,set_tempo,,,,,30,1,0,,705882,,,,,,,
133740,note_on,,,,,60,0,1,,,,,0,,,77,0
133740,note_on,,,,,0,0,1,,,,,0,,,79,40
133790,set_tempo,,,,,50,1,0,,740740,,,,,,,
133800,note_on,,,,,60,0,1,,,,,0,,,79,0
133800,note_on,,,,,0,0,1,,,,,0,,,80,38
133810,set_tempo,,,,,20,1,0,,779220,,,,,,,
133830,set_tempo,,,,,20,1,0,,833333,,,,,,,
133860,note_on,,,,,60,0,1,,,,,0,,,80,0
133860,set_tempo,,,,,30,1,0,,875912,,,,,,,
133860,note_on,,,,,0,0,1,,,,,0,,,81,36
133920,note_on,,,,,0,0,1,,,,,0,,,82,43
133920,marker,,,,,0,1,0,,,,,,,,,
133920,set_tempo,,,,,0,1,0,,740740,,,,,,,
133920,key_signature,,,,,60,1,0,Eb,,,,,,,,
133920,note_on,,,,,480,0,2,,,,,0,,,51,43
133920,note_on,,,,,60,0,1,,,,,0,,,81,0
133920,control_change,,,,,0,0,1,,,,,0,64,95,,
133930,set_tempo,,,,,10,1,0,,697674,,,,,,,
133940,set_tempo,,,,,10,1,0,,666666,,,,,,,
133950,set_tempo,,,,,10,1,0,,662983,,,,,,,
133970,set_tempo,,,,,20,1,0,,566037,,,,,,,
133980,note_on,,,,,60,0,1,,,,,0,,,82,0
133980,note_on,,,,,60,0,2,,,,,0,,,51,0
133980,note_on,,,,,0,0,1,,,,,0,,,79,31
134010,set_tempo,,,,,40,1,0,,487804,,,,,,,
134035,control_change,,,,,55,0,1,,,,,0,64,0,,
134040,note_on,,,,,5,0,1,,,,,0,,,79,0
134040,note_on,,,,,0,0,1,,,,,0,,,75,32
134040,note_on,,,,,60,0,2,,,,,0,,,58,33
134040,note_on,,,,,0,0,2,,,,,0,,,67,33
134070,set_tempo,,,,,60,1,0,,431654,,,,,,,
134085,note_on,,,,,45,0,2,,,,,0,,,67,0
134085,note_on,,,,,0,0,2,,,,,0,,,58,0
134090,set_tempo,,,,,20,1,0,,430107,,,,,,,
134092,note_on,,,,,52,0,1,,,,,0,,,75,0
134100,set_tempo,,,,,10,1,0,,393442,,,,,,,
134100,note_on,,,,,15,0,2,,,,,0,,,58,37
134100,note_on,,,,,0,0,2,,,,,0,,,67,37
134100,note_on,,,,,8,0,1,,,,,0,,,70,35
134145,note_on,,,,,45,0,2,,,,,0,,,67,0
134145,note_on,,,,,0,0,2,,,,,0,,,58,0
134145,note_on,,,,,45,0,1,,,,,0,,,70,0
134160,note_on,,,,,0,0,2,,,,,0,,,67,40
134160,note_on,,,,,15,0,2,,,,,0,,,58,40
134160,note_on,,,,,15,0,1,,,,,0,,,70,38
134180,set_tempo,,,,,80,1,0,,372670,,,,,,,
134220,note_on,,,,,0,0,1,,,,,0,,,72,41
134220,note_on,,,,,60,0,1,,,,,0,,,70,0
134230,set_tempo,,,,,50,1,0,,364741,,,,,,,
134250,note_on,,,,,0,0,2,,,,,0,,,58,0
134250,note_on,,,,,90,0,2,,,,,0,,,67,0
134270,set_tempo,,,,,40,1,0,,358208,,,,,,,
134280,note_on,,,,,30,0,2,,,,,0,,,58,41
134280,note_on,,,,,0,0,2,,,,,0,,,66,41
134280,control_change,,,,,0,0,1,,,,,0,64,95,,
134280,note_on,,,,,0,0,1,,,,,0,,,69,44
134280,note_on,,,,,60,0,1,,,,,0,,,72,0
134310,set_tempo,,,,,40,1,0,,355029,,,,,,,
134334,note_on,,,,,54,0,1,,,,,0,,,69,0
134340,note_on,,,,,6,0,1,,,,,0,,,72,45
134350,set_tempo,,,,,40,1,0,,356083,,,,,,,
134360,set_tempo,,,,,10,1,0,,357142,,,,,,,
134390,set_tempo,,,,,30,1,0,,362537,,,,,,,
134394,note_on,,,,,54,0,1,,,,,0,,,72,0
134400,note_on,,,,,6,0,1,,,,,0,,,70,45
134400,note_on,,,,,120,0,2,,,,,0,,,66,0
134400,control_change,,,,,0,0,1,,,,,0,64,0,,
134400,note_on,,,,,0,0,2,,,,,0,,,67,35
134445,note_on,,,,,45,0,1,,,,,0,,,70,0
134445,note_on,,,,,45,0,2,,,,,0,,,67,0
134445,note_on,,,,,0,0,2,,,,,0,,,58,0
134460,note_on,,,,,15,0,1,,,,,0,,,67,38
134520,note_on,,,,,75,0,2,,,,,0,,,55,40
134520,control_change,,,,,0,0,1,,,,,0,64,95,,
134520,note_on,,,,,0,0,1,,,,,0,,,70,40
134520,note_on,,,,,60,0,1,,,,,0,,,67,0
134580,note_on,,,,,60,0,1,,,,,0,,,70,0
134580,note_on,,,,,60,0,2,,,,,0,,,55,0
134580,note_on,,,,,0,0,1,,,,,0,,,75,45
134580,note_on,,,,,0,0,2,,,,,0,,,58,45
134620,set_tempo,,,,,230,1,0,,360360,,,,,,,
134640,control_change,,,,,0,0,1,,,,,0,64,0,,
134640,note_on,,,,,60,0,2,,,,,0,,,58,0
134640,note_on,,,,,0,0,2,,,,,0,,,63,49
134640,note_on,,,,,0,0,1,,,,,0,,,79,49
134640,note_on,,,,,60,0,1,,,,,0,,,75,0
134670,set_tempo,,,,,50,1,0,,363636,,,,,,,
134700,note_on,,,,,0,0,1,,,,,0,,,75,45
134700,note_on,,,,,60,0,2,,,,,0,,,63,0
134700,note_on,,,,,60,0,1,,,,,0,,,79,0
134740,set_tempo,,,,,70,1,0,,364741,,,,,,,
134750,set_tempo,,,,,10,1,0,,366972,,,,,,,
134760,note_on,,,,,0,0,1,,,,,0,,,70,40
134760,note_on,,,,,60,0,1,,,,,0,,,75,0
134790,set_tempo,,,,,40,1,0,,371517,,,,,,,
134813,note_on,,,,,53,0,1,,,,,0,,,70,0
134820,note_on,,,,,7,0,1,,,,,0,,,67,37
134830,set_tempo,,,,,40,1,0,,375000,,,,,,,
134865,note_on,,,,,45,0,1,,,,,0,,,67,0
134870,set_tempo,,,,,40,1,0,,378548,,,,,,,
134880,note_on,,,,,180,0,2,,,,,0,,,46,43
134880,note_on,,,,,0,0,1,,,,,0,,,68,39
134880,note_on,,,,,0,0,1,,,,,0,,,70,39
134880,control_change,,,,,0,0,1,,,,,0,64,96,,
134880,note_on,,,,,15,0,1,,,,,0,,,65,39
134890,set_tempo,,,,,20,1,0,,369230,,,,,,,
134920,set_tempo,,,,,30,1,0,,361445,,,,,,,
134932,note_on,,,,,52,0,2,,,,,0,,,46,0
134940,note_on,,,,,8,0,2,,,,,0,,,50,36
134970,note_on,,,,,0,0,1,,,,,0,,,65,0
134970,note_on,,,,,90,0,1,,,,,0,,,70,0
134970,note_on,,,,,0,0,1,,,,,0,,,68,0
134980,set_tempo,,,,,60,1,0,,360360,,,,,,,
134990,set_tempo,,,,,10,1,0,,357142,,,,,,,
134992,note_on,,,,,52,0,2,,,,,0,,,50,0
135000,note_on,,,,,0,0,1,,,,,0,,,68,42
135000,note_on,,,,,8,0,2,,,,,0,,,53,41
135000,note_on,,,,,0,0,1,,,,,0,,,70,42
135000,control_change,,,,,0,0,1,,,,,0,64,0,,
135000,note_on,,,,,30,0,1,,,,,0,,,65,42
135045,note_on,,,,,0,0,1,,,,,0,,,65,0
135045,note_on,,,,,45,0,1,,,,,0,,,70,0
135045,note_on,,,,,0,0,1,,,,,0,,,68,0
135050,set_tempo,,,,,60,1,0,,356083,,,,,,,
135052,note_on,,,,,52,0,2,,,,,0,,,53,0
135060,note_on,,,,,8,0,2,,,,,0,,,58,47
135060,set_tempo,,,,,10,1,0,,352941,,,,,,,
135060,note_on,,,,,15,0,1,,,,,0,,,65,46
135060,note_on,,,,,0,0,1,,,,,0,,,68,46
135060,note_on,,,,,0,0,1,,,,,0,,,70,46
135105,note_on,,,,,45,0,1,,,,,0,,,70,0
135105,note_on,,,,,0,0,1,,,,,0,,,68,0
135105,note_on,,,,,0,0,1,,,,,0,,,65,0
135112,note_on,,,,,52,0,2,,,,,0,,,58,0
135120,note_on,,,,,0,0,1,,,,,0,,,68,50
135120,note_on,,,,,0,0,1,,,,,0,,,72,50
135120,control_change,,,,,0,0,1,,,,,0,64,96,,
135120,note_on,,,,,15,0,1,,,,,0,,,65,50
135120,note_on,,,,,8,0,2,,,,,0,,,62,49
135180,note_on,,,,,0,0,2,,,,,0,,,58,41
135180,note_on,,,,,60,0,2,,,,,0,,,62,0
135210,note_on,,,,,90,0,1,,,,,0,,,72,0
135210,note_on,,,,,0,0,1,,,,,0,,,68,0
135210,note_on,,,,,0,0,1,,,,,0,,,65,0
135232,note_on,,,,,52,0,2,,,,,0,,,58,0
135235,control_change,,,,,25,0,1,,,,,0,64,0,,
135240,note_on,,,,,5,0,1,,,,,0,,,65,37
135240,note_on,,,,,0,0,1,,,,,0,,,68,37
135240,note_on,,,,,0,0,1,,,,,0,,,70,37
135240,control_change,,,,,0,0,1,,,,,0,64,96,,
135240,note_on,,,,,8,0,2,,,,,0,,,62,39
135300,note_on,,,,,0,0,2,,,,,0,,,58,36
135300,note_on,,,,,60,0,2,,,,,0,,,62,0
135330,note_on,,,,,90,0,1,,,,,0,,,70,0
135330,note_on,,,,,0,0,1,,,,,0,,,68,0
135330,note_on,,,,,0,0,1,,,,,0,,,65,0
135330,set_tempo,,,,,270,1,0,,355029,,,,,,,
135352,note_on,,,,,52,0,2,,,,,0,,,58,0
135355,control_change,,,,,25,0,1,,,,,0,64,0,,
135360,note_on,,,,,0,0,1,,,,,0,,,70,49
135360,set_tempo,,,,,30,1,0,,360360,,,,,,,
135360,control_change,,,,,0,0,1,,,,,0,64,95,,
135360,note_on,,,,,8,0,2,,,,,0,,,63,44
135360,note_on,,,,,5,0,1,,,,,0,,,67,49
135420,note_on,,,,,60,0,2,,,,,0,,,63,0
135420,note_on,,,,,0,0,1,,,,,0,,,67,0
135420,note_on,,,,,60,0,1,,,,,0,,,70,0
135420,note_on,,,,,0,0,1,,,,,0,,,75,42
135450,set_tempo,,,,,90,1,0,,365853,,,,,,,
135450,control_change,,,,,30,0,1,,,,,0,64,0,,
135480,note_on,,,,,0,0,1,,,,,0,,,74,39
135480,note_on,,,,,60,0,2,,,,,0,,,51,37
135480,note_on,,,,,0,0,2,,,,,0,,,56,37
135480,control_change,,,,,0,0,1,,,,,0,64,94,,
135480,note_on,,,,,30,0,1,,,,,0,,,75,0
135520,set_tempo,,,,,70,1,0,,371517,,,,,,,
135540,note_on,,,,,60,0,2,,,,,0,,,56,0
135540,note_on,,,,,60,0,1,,,,,0,,,74,0
135540,note_on,,,,,0,0,2,,,,,0,,,60,40
135540,note_on,,,,,0,0,1,,,,,0,,,72,37
135570,set_tempo,,,,,50,1,0,,378548,,,,,,,
135600,note_on,,,,,60,0,2,,,,,0,,,60,0
135600,note_on,,,,,0,0,2,,,,,0,,,63,45
135600,note_on,,,,,60,0,1,,,,,0,,,72,0
135600,note_on,,,,,0,0,1,,,,,0,,,70,35
135600,control_change,,,,,0,0,1,,,,,0,64,0,,
135610,set_tempo,,,,,40,1,0,,384615,,,,,,,
135645,note_on,,,,,45,0,2,,,,,0,,,63,0
135645,note_on,,,,,0,0,2,,,,,0,,,51,0
135645,note_on,,,,,45,0,1,,,,,0,,,70,0
135660,note_on,,,,,15,0,1,,,,,0,,,70,37
135720,note_on,,,,,60,0,1,,,,,0,,,70,0
135720,note_on,,,,,0,0,1,,,,,0,,,75,44
135740,set_tempo,,,,,130,1,0,,380952,,,,,,,
135772,note_on,,,,,52,0,1,,,,,0,,,75,0
135780,note_on,,,,,8,0,1,,,,,0,,,79,49
135790,set_tempo,,,,,50,1,0,,376175,,,,,,,
135820,set_tempo,,,,,30,1,0,,370370,,,,,,,
135825,note_on,,,,,45,0,1,,,,,0,,,79,0
135840,note_on,,,,,15,0,1,,,,,0,,,82,43
135840,note_on,,,,,195,0,2,,,,,0,,,51,43
135840,control_change,,,,,0,0,1,,,,,0,64,95,,
135900,note_on,,,,,0,0,1,,,,,0,,,79,31
135900,note_on,,,,,60,0,1,,,,,0,,,82,0
135900,note_on,,,,,60,0,2,,,,,0,,,51,0
135955,control_change,,,,,55,0,1,,,,,0,64,0,,
135960,note_on,,,,,0,0,2,,,,,0,,,67,33
135960,note_on,,,,,0,0,1,,,,,0,,,75,32
135960,note_on,,,,,5,0,1,,,,,0,,,79,0
135960,note_on,,,,,60,0,2,,,,,0,,,58,33
136005,note_on,,,,,0,0,2,,,,,0,,,58,0
136005,note_on,,,,,45,0,2,,,,,0,,,67,0
136012,note_on,,,,,52,0,1,,,,,0,,,75,0
136020,note_on,,,,,15,0,2,,,,,0,,,58,37
136020,note_on,,,,,0,0,2,,,,,0,,,67,37
136020,note_on,,,,,8,0,1,,,,,0,,,70,35
136065,note_on,,,,,0,0,2,,,,,0,,,58,0
136065,note_on,,,,,45,0,1,,,,,0,,,70,0
136065,note_on,,,,,45,0,2,,,,,0,,,67,0
136080,note_on,,,,,15,0,1,,,,,0,,,70,38
136080,note_on,,,,,0,0,2,,,,,0,,,67,40
136080,note_on,,,,,15,0,2,,,,,0,,,58,40
136140,note_on,,,,,0,0,1,,,,,0,,,72,41
136140,note_on,,,,,60,0,1,,,,,0,,,70,0
136160,set_tempo,,,,,340,1,0,,362537,,,,,,,
136170,note_on,,,,,0,0,2,,,,,0,,,58,0
136170,note_on,,,,,90,0,2,,,,,0,,,67,0
136200,note_on,,,,,30,0,2,,,,,0,,,58,41
136200,note_on,,,,,60,0,1,,,,,0,,,72,0
136200,note_on,,,,,0,0,2,,,,,0,,,66,41
136200,control_change,,,,,0,0,1,,,,,0,64,95,,
136200,note_on,,,,,0,0,1,,,,,0,,,69,44
136254,note_on,,,,,54,0,1,,,,,0,,,69,0
136260,note_on,,,,,6,0,1,,,,,0,,,72,45
136314,note_on,,,,,54,0,1,,,,,0,,,72,0
136320,control_change,,,,,0,0,1,,,,,0,64,0,,
136320,note_on,,,,,120,0,2,,,,,0,,,66,0
136320,note_on,,,,,0,0,2,,,,,0,,,67,35
136320,note_on,,,,,6,0,1,,,,,0,,,70,45
136360,set_tempo,,,,,200,1,0,,359281,,,,,,,
136365,note_on,,,,,45,0,1,,,,,0,,,70,0
136365,note_on,,,,,0,0,2,,,,,0,,,58,0
136365,note_on,,,,,45,0,2,,,,,0,,,67,0
136380,note_on,,,,,15,0,1,,,,,0,,,67,38
136440,note_on,,,,,75,0,2,,,,,0,,,55,40
136440,note_on,,,,,60,0,1,,,,,0,,,67,0
136440,note_on,,,,,0,0,1,,,,,0,,,70,40
136440,control_change,,,,,0,0,1,,,,,0,64,95,,
136500,note_on,,,,,0,0,2,,,,,0,,,58,45
136500,note_on,,,,,60,0,2,,,,,0,,,55,0
136500,note_on,,,,,0,0,1,,,,,0,,,75,45
136500,note_on,,,,,60,0,1,,,,,0,,,70,0
136560,note_on,,,,,0,0,1,,,,,0,,,79,49
136560,note_on,,,,,60,0,1,,,,,0,,,75,0
136560,note_on,,,,,0,0,2,,,,,0,,,63,49
136560,control_change,,,,,0,0,1,,,,,0,64,0,,
136560,note_on,,,,,60,0,2,,,,,0,,,58,0
136560,set_tempo,,,,,200,1,0,,361445,,,,,,,
136620,note_on,,,,,60,0,1,,,,,0,,,79,0
136620,note_on,,,,,0,0,1,,,,,0,,,75,45
136620,note_on,,,,,60,0,2,,,,,0,,,63,0
136650,set_tempo,,,,,90,1,0,,365853,,,,,,,
136680,note_on,,,,,0,0,1,,,,,0,,,70,40
136680,note_on,,,,,60,0,1,,,,,0,,,75,0
136710,set_tempo,,,,,60,1,0,,373831,,,,,,,
136733,note_on,,,,,53,0,1,,,,,0,,,70,0
136740,note_on,,,,,7,0,1,,,,,0,,,67,37
136785,note_on,,,,,45,0,1,,,,,0,,,67,0
136790,set_tempo,,,,,80,1,0,,375000,,,,,,,
136800,note_on,,,,,180,0,2,,,,,0,,,53,43
136800,note_on,,,,,0,0,1,,,,,0,,,77,39
136800,note_on,,,,,15,0,1,,,,,0,,,72,39
136800,note_on,,,,,0,0,1,,,,,0,,,75,39
136800,control_change,,,,,0,0,1,,,,,0,64,96,,
136820,set_tempo,,,,,30,1,0,,366972,,,,,,,
136852,note_on,,,,,52,0,2,,,,,0,,,53,0
136860,set_tempo,,,,,40,1,0,,360360,,,,,,,
136860,note_on,,,,,8,0,2,,,,,0,,,57,36
136890,note_on,,,,,90,0,1,,,,,0,,,77,0
136890,note_on,,,,,0,0,1,,,,,0,,,72,0
136890,note_on,,,,,0,0,1,,,,,0,,,75,0
136912,note_on,,,,,52,0,2,,,,,0,,,57,0
136920,note_on,,,,,0,0,1,,,,,0,,,77,42
136920,note_on,,,,,30,0,1,,,,,0,,,72,42
136920,control_change,,,,,0,0,1,,,,,0,64,0,,
136920,note_on,,,,,0,0,1,,,,,0,,,75,42
136920,note_on,,,,,8,0,2,,,,,0,,,60,41
136920,set_tempo,,,,,60,1,0,,356083,,,,,,,
136965,note_on,,,,,45,0,1,,,,,0,,,77,0
136965,note_on,,,,,0,0,1,,,,,0,,,75,0
136965,note_on,,,,,0,0,1,,,,,0,,,72,0
136972,note_on,,,,,52,0,2,,,,,0,,,60,0
136980,note_on,,,,,8,0,2,,,,,0,,,65,47
136980,note_on,,,,,15,0,1,,,,,0,,,72,46
136980,note_on,,,,,0,0,1,,,,,0,,,75,46
136980,note_on,,,,,0,0,1,,,,,0,,,77,46
137010,set_tempo,,,,,90,1,0,,352941,,,,,,,
137025,note_on,,,,,45,0,1,,,,,0,,,77,0
137025,note_on,,,,,0,0,1,,,,,0,,,75,0
137025,note_on,,,,,0,0,1,,,,,0,,,72,0
137032,note_on,,,,,52,0,2,,,,,0,,,65,0
137040,note_on,,,,,15,0,1,,,,,0,,,72,50
137040,note_on,,,,,0,0,1,,,,,0,,,79,50
137040,control_change,,,,,0,0,1,,,,,0,64,96,,
137040,note_on,,,,,8,0,2,,,,,0,,,69,49
137040,note_on,,,,,0,0,1,,,,,0,,,75,50
137100,note_on,,,,,60,0,2,,,,,0,,,69,0
137100,note_on,,,,,0,0,2,,,,,0,,,65,41
137130,note_on,,,,,0,0,1,,,,,0,,,72,0
137130,note_on,,,,,0,0,1,,,,,0,,,75,0
137130,note_on,,,,,90,0,1,,,,,0,,,79,0
137152,note_on,,,,,52,0,2,,,,,0,,,65,0
137155,control_change,,,,,25,0,1,,,,,0,64,0,,
137160,control_change,,,,,0,0,1,,,,,0,64,96,,
137160,note_on,,,,,0,0,1,,,,,0,,,77,43
137160,note_on,,,,,0,0,1,,,,,0,,,75,43
137160,note_on,,,,,5,0,1,,,,,0,,,72,43
137160,note_on,,,,,8,0,2,,,,,0,,,69,39
137220,note_on,,,,,0,0,2,,,,,0,,,65,41
137220,note_on,,,,,60,0,2,,,,,0,,,69,0
137250,note_on,,,,,90,0,1,,,,,0,,,77,0
137250,note_on,,,,,0,0,1,,,,,0,,,75,0
137250,note_on,,,,,0,0,1,,,,,0,,,72,0
137272,note_on,,,,,52,0,2,,,,,0,,,65,0
137280,note_on,,,,,8,0,2,,,,,0,,,53,44
137280,note_on,,,,,30,0,1,,,,,0,,,74,48
137280,note_on,,,,,0,0,1,,,,,0,,,77,48
137280,control_change,,,,,0,0,1,,,,,0,64,96,,
137332,note_on,,,,,52,0,2,,,,,0,,,53,0
137340,note_on,,,,,8,0,2,,,,,0,,,58,47
137370,note_on,,,,,90,0,1,,,,,0,,,77,0
137370,note_on,,,,,0,0,1,,,,,0,,,74,0
137392,note_on,,,,,52,0,2,,,,,0,,,58,0
137400,control_change,,,,,0,0,1,,,,,0,64,0,,
137400,note_on,,,,,0,0,1,,,,,0,,,77,56
137400,note_on,,,,,30,0,1,,,,,0,,,74,56
137400,note_on,,,,,8,0,2,,,,,0,,,62,50
137445,note_on,,,,,0,0,1,,,,,0,,,74,0
137445,note_on,,,,,45,0,1,,,,,0,,,77,0
137452,note_on,,,,,52,0,2,,,,,0,,,62,0
137460,note_on,,,,,0,0,1,,,,,0,,,77,59
137460,note_on,,,,,15,0,1,,,,,0,,,74,59
137460,note_on,,,,,8,0,2,,,,,0,,,65,55
137505,note_on,,,,,0,0,1,,,,,0,,,74,0
137505,note_on,,,,,45,0,1,,,,,0,,,77,0
137512,note_on,,,,,52,0,2,,,,,0,,,65,0
137520,note_on,,,,,15,0,1,,,,,0,,,74,60
137520,note_on,,,,,0,0,1,,,,,0,,,77,60
137520,control_change,,,,,0,0,1,,,,,0,64,96,,
137520,note_on,,,,,0,0,1,,,,,0,,,86,60
137520,note_on,,,,,8,0,2,,,,,0,,,70,57
137550,set_tempo,,,,,540,1,0,,362537,,,,,,,
137580,note_on,,,,,60,0,2,,,,,0,,,70,0
137580,note_on,,,,,0,0,2,,,,,0,,,65,56
137600,set_tempo,,,,,50,1,0,,366972,,,,,,,
137610,note_on,,,,,0,0,1,,,,,0,,,74,0
137610,set_tempo,,,,,10,1,0,,368098,,,,,,,
137610,note_on,,,,,90,0,1,,,,,0,,,86,0
137610,note_on,,,,,0,0,1,,,,,0,,,77,0
137632,note_on,,,,,52,0,2,,,,,0,,,65,0
137635,control_change,,,,,25,0,1,,,,,0,64,0,,
137640,note_on,,,,,0,0,1,,,,,0,,,77,50
137640,note_on,,,,,8,0,2,,,,,0,,,70,51
137640,note_on,,,,,5,0,1,,,,,0,,,74,50
137640,control_change,,,,,0,0,1,,,,,0,64,96,,
137680,set_tempo,,,,,70,1,0,,371517,,,,,,,
137700,note_on,,,,,0,0,2,,,,,0,,,65,44
137700,note_on,,,,,60,0,2,,,,,0,,,70,0
137730,note_on,,,,,0,0,1,,,,,0,,,74,0
137730,note_on,,,,,90,0,1,,,,,0,,,77,0
137752,note_on,,,,,52,0,2,,,,,0,,,65,0
137760,note_on,,,,,8,0,2,,,,,0,,,53,43
137760,note_on,,,,,0,0,1,,,,,0,,,79,39
137760,note_on,,,,,0,0,1,,,,,0,,,77,39
137760,note_on,,,,,30,0,1,,,,,0,,,74,39
137760,control_change,,,,,0,0,1,,,,,0,64,96,,
137780,set_tempo,,,,,100,1,0,,365853,,,,,,,
137812,note_on,,,,,52,0,2,,,,,0,,,53,0
137820,note_on,,,,,8,0,2,,,,,0,,,59,36
137830,set_tempo,,,,,50,1,0,,360360,,,,,,,
137850,note_on,,,,,90,0,1,,,,,0,,,79,0
137850,note_on,,,,,0,0,1,,,,,0,,,77,0
137850,note_on,,,,,0,0,1,,,,,0,,,74,0
137872,note_on,,,,,52,0,2,,,,,0,,,59,0
137880,set_tempo,,,,,50,1,0,,357142,,,,,,,
137880,control_change,,,,,0,0,1,,,,,0,64,0,,
137880,note_on,,,,,30,0,1,,,,,0,,,74,42
137880,note_on,,,,,0,0,1,,,,,0,,,77,42
137880,note_on,,,,,8,0,2,,,,,0,,,62,41
137880,note_on,,,,,0,0,1,,,,,0,,,79,42
137925,note_on,,,,,0,0,1,,,,,0,,,77,0
137925,note_on,,,,,0,0,1,,,,,0,,,74,0
137925,note_on,,,,,45,0,1,,,,,0,,,79,0
137932,note_on,,,,,52,0,2,,,,,0,,,62,0
137940,note_on,,,,,8,0,2,,,,,0,,,67,47
137940,note_on,,,,,0,0,1,,,,,0,,,79,46
137940,note_on,,,,,0,0,1,,,,,0,,,77,46
137940,note_on,,,,,15,0,1,,,,,0,,,74,46
137985,note_on,,,,,0,0,1,,,,,0,,,74,0
137985,note_on,,,,,0,0,1,,,,,0,,,77,0
137985,note_on,,,,,45,0,1,,,,,0,,,79,0
137990,set_tempo,,,,,110,1,0,,352941,,,,,,,
137992,note_on,,,,,52,0,2,,,,,0,,,67,0
138000,control_change,,,,,0,0,1,,,,,0,64,96,,
138000,note_on,,,,,0,0,1,,,,,0,,,74,50
138000,note_on,,,,,15,0,1,,,,,0,,,80,50
138000,note_on,,,,,0,0,1,,,,,0,,,77,50
138000,note_on,,,,,8,0,2,,,,,0,,,71,49
138060,note_on,,,,,60,0,2,,,,,0,,,71,0
138060,note_on,,,,,0,0,2,,,,,0,,,67,41
138090,note_on,,,,,90,0,1,,,,,0,,,77,0
138090,note_on,,,,,0,0,1,,,,,0,,,80,0
138090,note_on,,,,,0,0,1,,,,,0,,,74,0
138112,note_on,,,,,52,0,2,,,,,0,,,67,0
138115,control_change,,,,,25,0,1,,,,,0,64,0,,
138120,control_change,,,,,0,0,1,,,,,0,64,96,,
138120,note_on,,,,,0,0,1,,,,,0,,,79,43
138120,note_on,,,,,5,0,1,,,,,0,,,74,43
138120,note_on,,,,,8,0,2,,,,,0,,,71,39
138120,note_on,,,,,0,0,1,,,,,0,,,77,43
138180,note_on,,,,,0,0,2,,,,,0,,,67,41
138180,note_on,,,,,60,0,2,,,,,0,,,71,0
138210,note_on,,,,,90,0,1,,,,,0,,,79,0
138210,note_on,,,,,0,0,1,,,,,0,,,77,0
138210,note_on,,,,,0,0,1,,,,,0,,,74,0
138232,note_on,,,,,52,0,2,,,,,0,,,67,0
138240,control_change,,,,,0,0,1,,,,,0,64,96,,
138240,note_on,,,,,8,0,2,,,,,0,,,53,44
138240,note_on,,,,,0,0,1,,,,,0,,,79,48
138240,note_on,,,,,30,0,1,,,,,0,,,75,48
138292,note_on,,,,,52,0,2,,,,,0,,,53,0
138300,note_on,,,,,8,0,2,,,,,0,,,60,47
138330,note_on,,,,,0,0,1,,,,,0,,,75,0
138330,note_on,,,,,90,0,1,,,,,0,,,79,0
138352,note_on,,,,,52,0,2,,,,,0,,,60,0
138360,note_on,,,,,0,0,1,,,,,0,,,79,56
138360,note_on,,,,,30,0,1,,,,,0,,,75,56
138360,control_change,,,,,0,0,1,,,,,0,64,0,,
138360,note_on,,,,,8,0,2,,,,,0,,,63,50
138405,note_on,,,,,0,0,1,,,,,0,,,75,0
138405,note_on,,,,,45,0,1,,,,,0,,,79,0
138412,note_on,,,,,52,0,2,,,,,0,,,63,0
138420,note_on,,,,,8,0,2,,,,,0,,,67,55
138420,note_on,,,,,0,0,1,,,,,0,,,79,59
138420,note_on,,,,,15,0,1,,,,,0,,,75,59
138460,set_tempo,,,,,470,1,0,,355029,,,,,,,
138465,note_on,,,,,0,0,1,,,,,0,,,75,0
138465,note_on,,,,,45,0,1,,,,,0,,,79,0
138472,note_on,,,,,52,0,2,,,,,0,,,67,0
138480,set_tempo,,,,,20,1,0,,360360,,,,,,,
138480,note_on,,,,,15,0,1,,,,,0,,,75,60
138480,control_change,,,,,0,0,1,,,,,0,64,96,,
138480,note_on,,,,,8,0,2,,,,,0,,,72,57
138480,note_on,,,,,0,0,1,,,,,0,,,87,60
138480,note_on,,,,,0,0,1,,,,,0,,,79,60
138510,set_tempo,,,,,30,1,0,,361445,,,,,,,
138530,set_tempo,,,,,20,1,0,,370370,,,,,,,
138540,note_on,,,,,60,0,2,,,,,0,,,72,0
138540,note_on,,,,,0,0,2,,,,,0,,,67,56
138550,set_tempo,,,,,20,1,0,,385852,,,,,,,
138570,note_on,,,,,0,0,1,,,,,0,,,75,0
138570,note_on,,,,,0,0,1,,,,,0,,,79,0
138570,note_on,,,,,90,0,1,,,,,0,,,87,0
138590,set_tempo,,,,,40,1,0,,394736,,,,,,,
138592,note_on,,,,,52,0,2,,,,,0,,,67,0
138595,control_change,,,,,25,0,1,,,,,0,64,0,,
138600,note_on,,,,,8,0,2,,,,,0,,,72,51
138600,control_change,,,,,0,0,1,,,,,0,64,96,,
138600,note_on,,,,,0,0,1,,,,,0,,,79,50
138600,note_on,,,,,5,0,1,,,,,0,,,75,50
138610,set_tempo,,,,,20,1,0,,396039,,,,,,,
138640,set_tempo,,,,,30,1,0,,571428,,,,,,,
138650,set_tempo,,,,,10,1,0,,594059,,,,,,,
138660,set_tempo,,,,,10,1,0,,612244,,,,,,,
138660,note_on,,,,,0,0,2,,,,,0,,,67,44
138660,note_on,,,,,60,0,2,,,,,0,,,72,0
138670,set_tempo,,,,,10,1,0,,612244,,,,,,,
138690,note_on,,,,,0,0,1,,,,,0,,,75,0
138690,note_on,,,,,90,0,1,,,,,0,,,79,0
138690,note_on,,,,,0,0,1,,,,,0,,,81,76
138700,note_on,,,,,40,0,2,,,,,0,,,67,0
138700,note_on,,,,,10,0,1,,,,,0,,,81,0
138700,note_on,,,,,0,0,1,,,,,0,,,84,83
138710,note_on,,,,,10,0,1,,,,,0,,,84,0
138710,note_on,,,,,0,0,1,,,,,0,,,87,92
138720,control_change,,,,,0,0,1,,,,,0,64,96,,
138720,set_tempo,,,,,50,1,0,,361445,,,,,,,
138720,note_on,,,,,20,0,2,,,,,0,,,53,88
138720,note_on,,,,,0,0,1,,,,,0,,,91,92
138720,note_on,,,,,10,0,1,,,,,0,,,87,0
138740,set_tempo,,,,,20,1,0,,363636,,,,,,,
138780,note_on,,,,,0,0,1,,,,,0,,,89,77
138780,note_on,,,,,60,0,1,,,,,0,,,91,0
138790,set_tempo,,,,,50,1,0,,366972,,,,,,,
138810,note_on,,,,,90,0,2,,,,,0,,,53,0
138830,set_tempo,,,,,40,1,0,,368098,,,,,,,
138835,control_change,,,,,55,0,1,,,,,0,64,0,,
138840,note_on,,,,,5,0,1,,,,,0,,,89,0
138840,control_change,,,,,0,0,1,,,,,0,64,95,,
138840,note_on,,,,,0,0,1,,,,,0,,,87,70
138840,note_on,,,,,0,0,2,,,,,0,,,69,75
138840,note_on,,,,,0,0,2,,,,,0,,,72,75
138840,note_on,,,,,0,0,2,,,,,0,,,65,75
138840,note_on,,,,,30,0,2,,,,,0,,,75,75
138850,set_tempo,,,,,20,1,0,,371517,,,,,,,
138900,note_on,,,,,0,0,1,,,,,0,,,86,64
138900,note_on,,,,,60,0,1,,,,,0,,,87,0
138910,set_tempo,,,,,60,1,0,,375000,,,,,,,
138960,note_on,,,,,0,0,1,,,,,0,,,84,59
138960,note_on,,,,,60,0,1,,,,,0,,,86,0
138980,set_tempo,,,,,70,1,0,,382165,,,,,,,
139020,note_on,,,,,0,0,1,,,,,0,,,82,54
139020,note_on,,,,,60,0,1,,,,,0,,,84,0
139070,set_tempo,,,,,90,1,0,,387096,,,,,,,
139080,note_on,,,,,0,0,1,,,,,0,,,81,49
139080,note_on,,,,,60,0,1,,,,,0,,,82,0
139100,set_tempo,,,,,30,1,0,,388349,,,,,,,
139140,note_on,,,,,0,0,1,,,,,0,,,79,47
139140,note_on,,,,,60,0,1,,,,,0,,,81,0
139170,set_tempo,,,,,70,1,0,,392156,,,,,,,
139200,note_on,,,,,360,0,2,,,,,0,,,65,0
139200,note_on,,,,,0,0,2,,,,,0,,,75,0
139200,note_on,,,,,0,0,2,,,,,0,,,72,0
139200,note_on,,,,,0,0,2,,,,,0,,,69,0
139200,note_on,,,,,60,0,1,,,,,0,,,79,0
139200,note_on,,,,,0,0,1,,,,,0,,,77,44
139205,control_change,,,,,5,0,1,,,,,0,64,0,,
139260,note_on,,,,,55,0,1,,,,,0,,,77,0
139260,note_on,,,,,0,0,1,,,,,0,,,76,51
139320,note_on,,,,,60,0,1,,,,,0,,,76,0
139320,note_on,,,,,0,0,1,,,,,0,,,77,57
139350,set_tempo,,,,,180,1,0,,383386,,,,,,,
139380,note_on,,,,,60,0,1,,,,,0,,,77,0
139380,note_on,,,,,0,0,1,,,,,0,,,76,65
139430,set_tempo,,,,,80,1,0,,384615,,,,,,,
139440,set_tempo,,,,,10,1,0,,373831,,,,,,,
139440,note_on,,,,,60,0,1,,,,,0,,,76,0
139440,note_on,,,,,0,0,1,,,,,0,,,77,69
139480,set_tempo,,,,,40,1,0,,370370,,,,,,,
139500,note_on,,,,,0,0,1,,,,,0,,,76,75
139500,note_on,,,,,60,0,1,,,,,0,,,77,0
139520,set_tempo,,,,,40,1,0,,364741,,,,,,,
139560,note_on,,,,,60,0,1,,,,,0,,,76,0
139560,note_on,,,,,0,0,1,,,,,0,,,77,78
139570,set_tempo,,,,,50,1,0,,363636,,,,,,,
139580,set_tempo,,,,,10,1,0,,360360,,,,,,,
139590,set_tempo,,,,,10,1,0,,359281,,,,,,,
139620,set_tempo,,,,,30,1,0,,357142,,,,,,,
139620,note_on,,,,,60,0,1,,,,,0,,,77,0
139620,note_on,,,,,0,0,1,,,,,0,,,79,81
139640,set_tempo,,,,,20,1,0,,600000,,,,,,,
139650,note_on,,,,,30,0,1,,,,,0,,,74,76
139660,note_on,,,,,10,0,1,,,,,0,,,74,0
139660,note_on,,,,,0,0,1,,,,,0,,,77,83
139670,note_on,,,,,0,0,1,,,,,0,,,80,92
139670,note_on,,,,,10,0,1,,,,,0,,,77,0
139670,set_tempo,,,,,30,1,0,,350877,,,,,,,
139680,note_on,,,,,10,0,1,,,,,0,,,80,0
139680,note_on,,,,,0,0,1,,,,,0,,,79,0
139680,control_change,,,,,0,0,1,,,,,0,64,96,,
139680,note_on,,,,,0,0,1,,,,,0,,,84,92
139680,set_tempo,,,,,10,1,0,,350877,,,,,,,
139680,note_on,,,,,480,0,2,,,,,0,,,46,88
139690,set_tempo,,,,,10,1,0,,350877,,,,,,,
139710,set_tempo,,,,,20,1,0,,350877,,,,,,,
139730,set_tempo,,,,,20,1,0,,357142,,,,,,,
139740,note_on,,,,,60,0,1,,,,,0,,,84,0
139740,note_on,,,,,0,0,1,,,,,0,,,82,77
139770,note_on,,,,,90,0,2,,,,,0,,,46,0
139795,control_change,,,,,55,0,1,,,,,0,64,0,,
139800,note_on,,,,,30,0,2,,,,,0,,,68,75
139800,note_on,,,,,0,0,2,,,,,0,,,65,75
139800,note_on,,,,,0,0,2,,,,,0,,,62,75
139800,note_on,,,,,0,0,2,,,,,0,,,58,75
139800,note_on,,,,,5,0,1,,,,,0,,,82,0
139800,note_on,,,,,0,0,1,,,,,0,,,80,70
139800,control_change,,,,,0,0,1,,,,,0,64,95,,
139820,set_tempo,,,,,90,1,0,,361445,,,,,,,
139860,note_on,,,,,60,0,1,,,,,0,,,80,0
139860,note_on,,,,,0,0,1,,,,,0,,,79,64
139890,set_tempo,,,,,70,1,0,,365853,,,,,,,
139920,note_on,,,,,0,0,1,,,,,0,,,77,59
139920,note_on,,,,,60,0,1,,,,,0,,,79,0
139970,set_tempo,,,,,80,1,0,,370370,,,,,,,
139980,note_on,,,,,60,0,1,,,,,0,,,77,0
139980,note_on,,,,,0,0,1,,,,,0,,,75,54
140000,set_tempo,,,,,30,1,0,,371517,,,,,,,
140040,note_on,,,,,0,0,1,,,,,0,,,74,49
140040,note_on,,,,,60,0,1,,,,,0,,,75,0
140050,set_tempo,,,,,50,1,0,,375000,,,,,,,
140100,note_on,,,,,60,0,1,,,,,0,,,74,0
140100,note_on,,,,,0,0,1,,,,,0,,,72,47
140120,set_tempo,,,,,70,1,0,,378548,,,,,,,
140160,note_on,,,,,0,0,2,,,,,0,,,65,0
140160,note_on,,,,,0,0,2,,,,,0,,,62,0
140160,note_on,,,,,60,0,1,,,,,0,,,72,0
140160,note_on,,,,,0,0,1,,,,,0,,,70,52
140160,note_on,,,,,0,0,2,,,,,0,,,68,0
140160,note_on,,,,,360,0,2,,,,,0,,,58,0
140165,control_change,,,,,5,0,1,,,,,0,64,0,,
140170,set_tempo,,,,,50,1,0,,373831,,,,,,,
140210,set_tempo,,,,,40,1,0,,368098,,,,,,,
140220,note_on,,,,,0,0,1,,,,,0,,,72,50
140220,note_on,,,,,55,0,1,,,,,0,,,70,0
140250,set_tempo,,,,,40,1,0,,362537,,,,,,,
140280,note_on,,,,,60,0,1,,,,,0,,,72,0
140280,note_on,,,,,0,0,1,,,,,0,,,74,48
140290,set_tempo,,,,,40,1,0,,358208,,,,,,,
140330,set_tempo,,,,,40,1,0,,361445,,,,,,,
140340,set_tempo,,,,,10,1,0,,362537,,,,,,,
140340,note_on,,,,,0,0,1,,,,,0,,,75,45
140340,note_on,,,,,60,0,1,,,,,0,,,74,0
140380,set_tempo,,,,,40,1,0,,371517,,,,,,,
140400,note_on,,,,,0,0,1,,,,,0,,,77,44
140400,note_on,,,,,60,0,1,,,,,0,,,75,0
140450,set_tempo,,,,,70,1,0,,377358,,,,,,,
140460,note_on,,,,,0,0,1,,,,,0,,,79,41
140460,note_on,,,,,60,0,1,,,,,0,,,77,0
140500,set_tempo,,,,,50,1,0,,389610,,,,,,,
140520,note_on,,,,,0,0,1,,,,,0,,,80,39
140520,note_on,,,,,60,0,1,,,,,0,,,79,0
140520,set_tempo,,,,,20,1,0,,402684,,,,,,,
140530,set_tempo,,,,,10,1,0,,433212,,,,,,,
140550,set_tempo,,,,,20,1,0,,458015,,,,,,,
140580,note_on,,,,,0,0,1,,,,,0,,,81,36
140580,note_on,,,,,60,0,1,,,,,0,,,80,0
140600,set_tempo,,,,,50,1,0,,472440,,,,,,,
140630,set_tempo,,,,,30,1,0,,517241,,,,,,,
140640,note_on,,,,,480,0,2,,,,,0,,,51,43
140640,note_on,,,,,0,0,1,,,,,0,,,82,39
140640,control_change,,,,,0,0,1,,,,,0,64,95,,
140640,note_on,,,,,60,0,1,,,,,0,,,81,0
140660,set_tempo,,,,,30,1,0,,502092,,,,,,,
140670,set_tempo,,,,,10,1,0,,452830,,,,,,,
140700,note_on,,,,,60,0,2,,,,,0,,,51,0
140700,note_on,,,,,0,0,1,,,,,0,,,79,37
140700,note_on,,,,,60,0,1,,,,,0,,,82,0
140710,set_tempo,,,,,40,1,0,,430107,,,,,,,
140720,set_tempo,,,,,10,1,0,,401337,,,,,,,
140740,set_tempo,,,,,20,1,0,,392156,,,,,,,
140755,control_change,,,,,55,0,1,,,,,0,64,0,,
140760,note_on,,,,,0,0,2,,,,,0,,,67,33
140760,set_tempo,,,,,20,1,0,,377358,,,,,,,
140760,note_on,,,,,0,0,1,,,,,0,,,75,34
140760,note_on,,,,,5,0,1,,,,,0,,,79,0
140760,note_on,,,,,60,0,2,,,,,0,,,58,33
140790,set_tempo,,,,,30,1,0,,373831,,,,,,,
140805,note_on,,,,,45,0,2,,,,,0,,,67,0
140805,note_on,,,,,0,0,2,,,,,0,,,58,0
140812,note_on,,,,,52,0,1,,,,,0,,,75,0
140820,note_on,,,,,15,0,2,,,,,0,,,58,37
140820,note_on,,,,,0,0,2,,,,,0,,,67,37
140820,note_on,,,,,8,0,1,,,,,0,,,70,35
140865,note_on,,,,,45,0,2,,,,,0,,,67,0
140865,note_on,,,,,0,0,2,,,,,0,,,58,0
140865,note_on,,,,,45,0,1,,,,,0,,,70,0
140880,note_on,,,,,15,0,2,,,,,0,,,58,40
140880,note_on,,,,,0,0,2,,,,,0,,,67,40
140880,note_on,,,,,15,0,1,,,,,0,,,70,38
140890,set_tempo,,,,,100,1,0,,369230,,,,,,,
140940,note_on,,,,,60,0,1,,,,,0,,,70,0
140940,note_on,,,,,0,0,1,,,,,0,,,72,41
140950,set_tempo,,,,,60,1,0,,365853,,,,,,,
140960,set_tempo,,,,,10,1,0,,364741,,,,,,,
140970,note_on,,,,,90,0,2,,,,,0,,,67,0
140970,note_on,,,,,0,0,2,,,,,0,,,58,0
141000,note_on,,,,,0,0,1,,,,,0,,,69,44
141000,control_change,,,,,0,0,1,,,,,0,64,95,,
141000,note_on,,,,,30,0,2,,,,,0,,,58,41
141000,note_on,,,,,60,0,1,,,,,0,,,72,0
141000,note_on,,,,,0,0,2,,,,,0,,,66,41
141040,set_tempo,,,,,80,1,0,,360360,,,,,,,
141054,note_on,,,,,54,0,1,,,,,0,,,69,0
141060,note_on,,,,,6,0,1,,,,,0,,,72,45
141114,note_on,,,,,54,0,1,,,,,0,,,72,0
141120,note_on,,,,,0,0,2,,,,,0,,,67,35
141120,note_on,,,,,120,0,2,,,,,0,,,66,0
141120,note_on,,,,,6,0,1,,,,,0,,,70,45
141120,control_change,,,,,0,0,1,,,,,0,64,0,,
141165,note_on,,,,,0,0,2,,,,,0,,,58,0
141165,note_on,,,,,45,0,1,,,,,0,,,70,0
141165,note_on,,,,,45,0,2,,,,,0,,,67,0
141180,note_on,,,,,15,0,1,,,,,0,,,67,38
141240,note_on,,,,,60,0,1,,,,,0,,,67,0
141240,note_on,,,,,0,0,1,,,,,0,,,70,40
141240,control_change,,,,,0,0,1,,,,,0,64,95,,
141240,note_on,,,,,75,0,2,,,,,0,,,55,40
141300,note_on,,,,,0,0,1,,,,,0,,,75,45
141300,note_on,,,,,60,0,2,,,,,0,,,55,0
141300,note_on,,,,,0,0,2,,,,,0,,,58,45
141300,note_on,,,,,60,0,1,,,,,0,,,70,0
141360,control_change,,,,,0,0,1,,,,,0,64,0,,
141360,note_on,,,,,0,0,1,,,,,0,,,79,49
141360,note_on,,,,,60,0,1,,,,,0,,,75,0
141360,note_on,,,,,60,0,2,,,,,0,,,58,0
141360,note_on,,,,,0,0,2,,,,,0,,,63,49
141420,note_on,,,,,0,0,1,,,,,0,,,75,45
141420,note_on,,,,,60,0,1,,,,,0,,,79,0
141420,note_on,,,,,60,0,2,,,,,0,,,63,0
141420,set_tempo,,,,,380,1,0,,361445,,,,,,,
141440,set_tempo,,,,,20,1,0,,363636,,,,,,,
141480,note_on,,,,,60,0,1,,,,,0,,,75,0
141480,note_on,,,,,0,0,1,,,,,0,,,70,40
141490,set_tempo,,,,,50,1,0,,369230,,,,,,,
141533,note_on,,,,,53,0,1,,,,,0,,,70,0
141540,set_tempo,,,,,50,1,0,,372670,,,,,,,
141540,note_on,,,,,7,0,1,,,,,0,,,67,37
141570,set_tempo,,,,,30,1,0,,378548,,,,,,,
141585,note_on,,,,,45,0,1,,,,,0,,,67,0
141600,note_on,,,,,0,0,1,,,,,0,,,70,39
141600,note_on,,,,,15,0,1,,,,,0,,,65,39
141600,note_on,,,,,0,0,1,,,,,0,,,68,39
141600,note_on,,,,,180,0,2,,,,,0,,,46,43
141600,control_change,,,,,0,0,1,,,,,0,64,96,,
141610,set_tempo,,,,,40,1,0,,369230,,,,,,,
141640,set_tempo,,,,,30,1,0,,361445,,,,,,,
141652,note_on,,,,,52,0,2,,,,,0,,,46,0
141660,note_on,,,,,8,0,2,,,,,0,,,50,36
141690,note_on,,,,,0,0,1,,,,,0,,,65,0
141690,note_on,,,,,0,0,1,,,,,0,,,68,0
141690,note_on,,,,,90,0,1,,,,,0,,,70,0
141700,set_tempo,,,,,60,1,0,,357142,,,,,,,
141712,note_on,,,,,52,0,2,,,,,0,,,50,0
141720,control_change,,,,,0,0,1,,,,,0,64,0,,
141720,note_on,,,,,0,0,1,,,,,0,,,70,42
141720,note_on,,,,,0,0,1,,,,,0,,,68,42
141720,note_on,,,,,30,0,1,,,,,0,,,65,42
141720,note_on,,,,,8,0,2,,,,,0,,,53,41
141765,note_on,,,,,0,0,1,,,,,0,,,65,0
141765,note_on,,,,,0,0,1,,,,,0,,,68,0
141765,note_on,,,,,45,0,1,,,,,0,,,70,0
141772,note_on,,,,,52,0,2,,,,,0,,,53,0
141780,note_on,,,,,0,0,1,,,,,0,,,68,46
141780,note_on,,,,,8,0,2,,,,,0,,,58,47
141780,note_on,,,,,0,0,1,,,,,0,,,70,46
141780,note_on,,,,,15,0,1,,,,,0,,,65,46
141825,note_on,,,,,45,0,1,,,,,0,,,70,0
141825,note_on,,,,,0,0,1,,,,,0,,,65,0
141825,note_on,,,,,0,0,1,,,,,0,,,68,0
141832,note_on,,,,,52,0,2,,,,,0,,,58,0
141840,note_on,,,,,8,0,2,,,,,0,,,62,49
141840,control_change,,,,,0,0,1,,,,,0,64,96,,
141840,note_on,,,,,0,0,1,,,,,0,,,72,50
141840,note_on,,,,,0,0,1,,,,,0,,,68,50
141840,note_on,,,,,15,0,1,,,,,0,,,65,50
141860,set_tempo,,,,,160,1,0,,356083,,,,,,,
141880,set_tempo,,,,,20,1,0,,351906,,,,,,,
141900,note_on,,,,,60,0,2,,,,,0,,,62,0
141900,note_on,,,,,0,0,2,,,,,0,,,58,41
141930,note_on,,,,,90,0,1,,,,,0,,,72,0
141930,note_on,,,,,0,0,1,,,,,0,,,68,0
141930,note_on,,,,,0,0,1,,,,,0,,,65,0
141952,note_on,,,,,52,0,2,,,,,0,,,58,0
141955,control_change,,,,,25,0,1,,,,,0,64,0,,
141960,control_change,,,,,0,0,1,,,,,0,64,96,,
141960,note_on,,,,,0,0,1,,,,,0,,,70,37
141960,note_on,,,,,0,0,1,,,,,0,,,68,37
141960,note_on,,,,,5,0,1,,,,,0,,,65,37
141960,note_on,,,,,8,0,2,,,,,0,,,62,39
142020,note_on,,,,,0,0,2,,,,,0,,,58,36
142020,note_on,,,,,60,0,2,,,,,0,,,62,0
142050,note_on,,,,,0,0,1,,,,,0,,,65,0
142050,note_on,,,,,90,0,1,,,,,0,,,70,0
142050,note_on,,,,,0,0,1,,,,,0,,,68,0
142072,note_on,,,,,52,0,2,,,,,0,,,58,0
142075,control_change,,,,,25,0,1,,,,,0,64,0,,
142080,note_on,,,,,8,0,2,,,,,0,,,63,44
142080,set_tempo,,,,,200,1,0,,361445,,,,,,,
142080,note_on,,,,,5,0,1,,,,,0,,,67,49
142080,note_on,,,,,0,0,1,,,,,0,,,70,49
142080,control_change,,,,,0,0,1,,,,,0,64,95,,
142140,note_on,,,,,0,0,1,,,,,0,,,75,42
142140,note_on,,,,,0,0,1,,,,,0,,,67,0
142140,note_on,,,,,60,0,1,,,,,0,,,70,0
142140,note_on,,,,,60,0,2,,,,,0,,,63,0
142170,control_change,,,,,30,0,1,,,,,0,64,0,,
142170,set_tempo,,,,,90,1,0,,364741,,,,,,,
142200,note_on,,,,,0,0,2,,,,,0,,,56,37
142200,note_on,,,,,30,0,1,,,,,0,,,75,0
142200,note_on,,,,,60,0,2,,,,,0,,,51,37
142200,control_change,,,,,0,0,1,,,,,0,64,94,,
142200,note_on,,,,,0,0,1,,,,,0,,,74,39
142250,set_tempo,,,,,80,1,0,,369230,,,,,,,
142260,note_on,,,,,0,0,1,,,,,0,,,72,37
142260,note_on,,,,,60,0,2,,,,,0,,,56,0
142260,note_on,,,,,0,0,2,,,,,0,,,60,40
142260,note_on,,,,,60,0,1,,,,,0,,,74,0
142300,set_tempo,,,,,50,1,0,,372670,,,,,,,
142320,note_on,,,,,60,0,1,,,,,0,,,72,0
142320,note_on,,,,,0,0,1,,,,,0,,,70,35
142320,note_on,,,,,60,0,2,,,,,0,,,60,0
142320,note_on,,,,,0,0,2,,,,,0,,,63,45
142320,control_change,,,,,0,0,1,,,,,0,64,0,,
142350,set_tempo,,,,,50,1,0,,379746,,,,,,,
142365,note_on,,,,,45,0,2,,,,,0,,,63,0
142365,note_on,,,,,0,0,2,,,,,0,,,51,0
142365,note_on,,,,,45,0,1,,,,,0,,,70,0
142380,note_on,,,,,15,0,1,,,,,0,,,70,37
142440,note_on,,,,,0,0,1,,,,,0,,,75,44
142440,note_on,,,,,60,0,1,,,,,0,,,70,0
142492,note_on,,,,,52,0,1,,,,,0,,,75,0
142500,note_on,,,,,8,0,1,,,,,0,,,79,49
142545,note_on,,,,,45,0,1,,,,,0,,,79,0
142560,control_change,,,,,0,0,1,,,,,0,64,95,,
142560,note_on,,,,,15,0,1,,,,,0,,,82,43
142560,set_tempo,,,,,210,1,0,,372670,,,,,,,
142560,note_on,,,,,195,0,2,,,,,0,,,51,43
142620,note_on,,,,,0,0,1,,,,,0,,,79,31
142620,note_on,,,,,60,0,1,,,,,0,,,82,0
142620,note_on,,,,,60,0,2,,,,,0,,,51,0
142630,set_tempo,,,,,70,1,0,,370370,,,,,,,
142675,control_change,,,,,55,0,1,,,,,0,64,0,,
142680,note_on,,,,,5,0,1,,,,,0,,,79,0
142680,note_on,,,,,0,0,2,,,,,0,,,67,33
142680,note_on,,,,,0,0,1,,,,,0,,,75,32
142680,note_on,,,,,60,0,2,,,,,0,,,58,33
142725,note_on,,,,,0,0,2,,,,,0,,,58,0
142725,note_on,,,,,45,0,2,,,,,0,,,67,0
142732,note_on,,,,,52,0,1,,,,,0,,,75,0
142740,note_on,,,,,8,0,1,,,,,0,,,70,35
142740,note_on,,,,,15,0,2,,,,,0,,,58,37
142740,note_on,,,,,0,0,2,,,,,0,,,67,37
142785,note_on,,,,,45,0,2,,,,,0,,,67,0
142785,note_on,,,,,45,0,1,,,,,0,,,70,0
142785,note_on,,,,,0,0,2,,,,,0,,,58,0
142800,note_on,,,,,15,0,1,,,,,0,,,70,38
142800,note_on,,,,,15,0,2,,,,,0,,,58,40
142800,note_on,,,,,0,0,2,,,,,0,,,67,40
142810,set_tempo,,,,,180,1,0,,365853,,,,,,,
142860,note_on,,,,,0,0,1,,,,,0,,,72,41
142860,note_on,,,,,60,0,1,,,,,0,,,70,0
142890,note_on,,,,,0,0,2,,,,,0,,,58,0
142890,note_on,,,,,90,0,2,,,,,0,,,67,0
142920,control_change,,,,,0,0,1,,,,,0,64,95,,
142920,note_on,,,,,0,0,1,,,,,0,,,69,44
142920,note_on,,,,,60,0,1,,,,,0,,,72,0
142920,note_on,,,,,30,0,2,,,,,0,,,58,41
142920,note_on,,,,,0,0,2,,,,,0,,,66,41
142950,set_tempo,,,,,140,1,0,,363636,,,,,,,
142974,note_on,,,,,54,0,1,,,,,0,,,69,0
142980,note_on,,,,,6,0,1,,,,,0,,,72,45
143034,note_on,,,,,54,0,1,,,,,0,,,72,0
143040,note_on,,,,,0,0,2,,,,,0,,,67,43
143040,note_on,,,,,6,0,1,,,,,0,,,70,45
143040,control_change,,,,,0,0,1,,,,,0,64,0,,
143040,note_on,,,,,120,0,2,,,,,0,,,66,0
143070,set_tempo,,,,,120,1,0,,361445,,,,,,,
143085,note_on,,,,,45,0,2,,,,,0,,,67,0
143085,note_on,,,,,0,0,2,,,,,0,,,58,0
143085,note_on,,,,,45,0,1,,,,,0,,,70,0
143100,note_on,,,,,15,0,1,,,,,0,,,67,38
143160,control_change,,,,,0,0,1,,,,,0,64,95,,
143160,note_on,,,,,0,0,1,,,,,0,,,70,40
143160,note_on,,,,,75,0,2,,,,,0,,,55,50
143160,note_on,,,,,60,0,1,,,,,0,,,67,0
143220,note_on,,,,,60,0,1,,,,,0,,,70,0
143220,note_on,,,,,0,0,1,,,,,0,,,75,45
143220,note_on,,,,,0,0,2,,,,,0,,,58,52
143220,note_on,,,,,60,0,2,,,,,0,,,55,0
143280,note_on,,,,,0,0,2,,,,,0,,,63,57
143280,note_on,,,,,60,0,1,,,,,0,,,75,0
143280,control_change,,,,,0,0,1,,,,,0,64,0,,
143280,note_on,,,,,60,0,2,,,,,0,,,58,0
143280,note_on,,,,,0,0,1,,,,,0,,,79,49
143320,set_tempo,,,,,250,1,0,,365853,,,,,,,
143340,note_on,,,,,0,0,1,,,,,0,,,75,52
143340,note_on,,,,,60,0,1,,,,,0,,,79,0
143340,note_on,,,,,60,0,2,,,,,0,,,63,0
143400,note_on,,,,,60,0,1,,,,,0,,,75,0
143400,note_on,,,,,0,0,1,,,,,0,,,70,54
143410,set_tempo,,,,,90,1,0,,371517,,,,,,,
143453,note_on,,,,,53,0,1,,,,,0,,,70,0
143460,note_on,,,,,7,0,1,,,,,0,,,67,54
143470,set_tempo,,,,,60,1,0,,378548,,,,,,,
143505,note_on,,,,,45,0,1,,,,,0,,,67,0
143510,set_tempo,,,,,40,1,0,,370370,,,,,,,
143515,control_change,,,,,10,0,1,,,,,0,64,0,,
143520,note_on,,,,,0,0,2,,,,,0,,,48,69
143520,note_on,,,,,5,0,1,,,,,0,,,67,74
143520,note_on,,,,,180,0,2,,,,,0,,,36,69
143520,control_change,,,,,0,0,1,,,,,0,64,96,,
143565,note_on,,,,,45,0,1,,,,,0,,,67,0
143570,set_tempo,,,,,60,1,0,,364741,,,,,,,
143580,note_on,,,,,0,0,2,,,,,0,,,36,0
143580,note_on,,,,,60,0,2,,,,,0,,,48,0
143580,note_on,,,,,15,0,1,,,,,0,,,63,57
143620,set_tempo,,,,,50,1,0,,361445,,,,,,,
143640,note_on,,,,,60,0,2,,,,,0,,,51,63
143640,note_on,,,,,60,0,1,,,,,0,,,63,0
143640,note_on,,,,,0,0,1,,,,,0,,,67,57
143690,control_change,,,,,50,0,1,,,,,0,64,0,,
143700,note_on,,,,,60,0,2,,,,,0,,,51,0
143700,note_on,,,,,10,0,1,,,,,0,,,67,0
143700,note_on,,,,,0,0,1,,,,,0,,,72,63
143700,note_on,,,,,0,0,2,,,,,0,,,55,66
143760,note_on,,,,,60,0,2,,,,,0,,,55,0
143760,note_on,,,,,0,0,1,,,,,0,,,75,67
143760,note_on,,,,,60,0,1,,,,,0,,,72,0
143760,note_on,,,,,0,0,2,,,,,0,,,60,70
143820,note_on,,,,,0,0,1,,,,,0,,,72,62
143820,note_on,,,,,60,0,1,,,,,0,,,75,0
143820,note_on,,,,,60,0,2,,,,,0,,,60,0
143880,note_on,,,,,0,0,1,,,,,0,,,67,67
143880,note_on,,,,,60,0,1,,,,,0,,,72,0
143933,note_on,,,,,53,0,1,,,,,0,,,67,0
143940,note_on,,,,,7,0,1,,,,,0,,,63,78
143985,note_on,,,,,45,0,1,,,,,0,,,63,0
144000,note_on,,,,,180,0,2,,,,,0,,,32,85
144000,note_on,,,,,0,0,2,,,,,0,,,44,85
144000,control_change,,,,,0,0,1,,,,,0,64,96,,
144000,note_on,,,,,15,0,1,,,,,0,,,63,85
144030,set_tempo,,,,,410,1,0,,355029,,,,,,,
144045,note_on,,,,,45,0,1,,,,,0,,,63,0
144060,note_on,,,,,0,0,2,,,,,0,,,32,0
144060,note_on,,,,,60,0,2,,,,,0,,,44,0
144060,note_on,,,,,15,0,1,,,,,0,,,60,78
144120,note_on,,,,,60,0,1,,,,,0,,,60,0
144120,note_on,,,,,0,0,1,,,,,0,,,63,82
144120,note_on,,,,,60,0,2,,,,,0,,,48,73
144160,control_change,,,,,40,0,1,,,,,0,64,0,,
144180,note_on,,,,,0,0,2,,,,,0,,,51,78
144180,note_on,,,,,60,0,2,,,,,0,,,48,0
144180,note_on,,,,,0,0,1,,,,,0,,,68,88
144180,note_on,,,,,20,0,1,,,,,0,,,63,0
144230,set_tempo,,,,,200,1,0,,348837,,,,,,,
144240,note_on,,,,,60,0,1,,,,,0,,,68,0
144240,note_on,,,,,0,0,1,,,,,0,,,72,95
144240,note_on,,,,,0,0,2,,,,,0,,,56,83
144240,note_on,,,,,60,0,2,,,,,0,,,51,0
144300,note_on,,,,,0,0,1,,,,,0,,,68,83
144300,note_on,,,,,60,0,2,,,,,0,,,56,0
144300,note_on,,,,,60,0,1,,,,,0,,,72,0
144360,note_on,,,,,60,0,1,,,,,0,,,68,0
144360,note_on,,,,,0,0,1,,,,,0,,,63,88
144413,note_on,,,,,53,0,1,,,,,0,,,63,0
144420,note_on,,,,,7,0,1,,,,,0,,,60,93
144465,note_on,,,,,45,0,1,,,,,0,,,60,0
144480,control_change,,,,,0,0,1,,,,,0,64,96,,
144480,note_on,,,,,180,0,2,,,,,0,,,44,83
144480,set_tempo,,,,,250,1,0,,348837,,,,,,,
144480,note_on,,,,,15,0,1,,,,,0,,,63,99
144500,set_tempo,,,,,20,1,0,,343839,,,,,,,
144533,note_on,,,,,53,0,1,,,,,0,,,63,0
144540,note_on,,,,,7,0,1,,,,,0,,,75,97
144540,note_on,,,,,0,0,1,,,,,0,,,72,97
144540,note_on,,,,,0,0,1,,,,,0,,,66,97
144570,note_on,,,,,90,0,2,,,,,0,,,44,0
144585,note_on,,,,,45,0,1,,,,,0,,,66,0
144585,note_on,,,,,0,0,1,,,,,0,,,72,0
144585,note_on,,,,,0,0,1,,,,,0,,,75,0
144600,set_tempo,,,,,100,1,0,,340909,,,,,,,
144600,note_on,,,,,15,0,1,,,,,0,,,66,94
144600,note_on,,,,,0,0,1,,,,,0,,,72,94
144600,note_on,,,,,0,0,1,,,,,0,,,75,94
144600,note_on,,,,,30,0,2,,,,,0,,,51,87
144600,note_on,,,,,0,0,2,,,,,0,,,60,87
144600,note_on,,,,,0,0,2,,,,,0,,,56,87
144610,set_tempo,,,,,10,1,0,,338983,,,,,,,
144653,note_on,,,,,53,0,1,,,,,0,,,75,0
144653,note_on,,,,,0,0,1,,,,,0,,,72,0
144653,note_on,,,,,0,0,1,,,,,0,,,66,0
144660,note_on,,,,,7,0,1,,,,,0,,,63,92
144690,note_on,,,,,0,0,2,,,,,0,,,51,0
144690,note_on,,,,,90,0,2,,,,,0,,,56,0
144690,note_on,,,,,0,0,2,,,,,0,,,60,0
144700,set_tempo,,,,,90,1,0,,337078,,,,,,,
144705,note_on,,,,,45,0,1,,,,,0,,,63,0
144705,control_change,,,,,0,0,1,,,,,0,64,0,,
144720,note_on,,,,,30,0,2,,,,,0,,,44,91
144720,note_on,,,,,15,0,1,,,,,0,,,66,102
144720,control_change,,,,,0,0,1,,,,,0,64,96,,
144760,set_tempo,,,,,60,1,0,,335195,,,,,,,
144773,note_on,,,,,53,0,1,,,,,0,,,66,0
144780,note_on,,,,,7,0,1,,,,,0,,,78,100
144780,note_on,,,,,0,0,1,,,,,0,,,75,100
144780,note_on,,,,,0,0,1,,,,,0,,,72,100
144810,note_on,,,,,90,0,2,,,,,0,,,44,0
144825,note_on,,,,,45,0,1,,,,,0,,,72,0
144825,note_on,,,,,0,0,1,,,,,0,,,75,0
144825,note_on,,,,,0,0,1,,,,,0,,,78,0
144840,note_on,,,,,0,0,1,,,,,0,,,75,98
144840,note_on,,,,,0,0,2,,,,,0,,,56,97
144840,note_on,,,,,30,0,2,,,,,0,,,60,97
144840,note_on,,,,,15,0,1,,,,,0,,,78,98
144840,note_on,,,,,0,0,1,,,,,0,,,72,98
144840,note_on,,,,,0,0,2,,,,,0,,,51,97
144893,note_on,,,,,53,0,1,,,,,0,,,72,0
144893,note_on,,,,,0,0,1,,,,,0,,,78,0
144893,note_on,,,,,0,0,1,,,,,0,,,75,0
144900,note_on,,,,,7,0,1,,,,,0,,,66,95
144930,note_on,,,,,90,0,2,,,,,0,,,51,0
144930,note_on,,,,,0,0,2,,,,,0,,,60,0
144930,note_on,,,,,0,0,2,,,,,0,,,56,0
144945,control_change,,,,,0,0,1,,,,,0,64,0,,
144945,note_on,,,,,45,0,1,,,,,0,,,66,0
144960,note_on,,,,,30,0,2,,,,,0,,,44,100
144960,control_change,,,,,0,0,1,,,,,0,64,96,,
144960,note_on,,,,,15,0,1,,,,,0,,,72,107
144980,set_tempo,,,,,220,1,0,,333333,,,,,,,
145013,note_on,,,,,53,0,1,,,,,0,,,72,0
145020,note_on,,,,,7,0,1,,,,,0,,,84,105
145020,note_on,,,,,0,0,1,,,,,0,,,78,105
145020,note_on,,,,,0,0,1,,,,,0,,,75,105
145050,note_on,,,,,90,0,2,,,,,0,,,44,0
145050,set_tempo,,,,,70,1,0,,335195,,,,,,,
145060,set_tempo,,,,,10,1,0,,337078,,,,,,,
145065,note_on,,,,,45,0,1,,,,,0,,,75,0
145065,note_on,,,,,0,0,1,,,,,0,,,78,0
145065,note_on,,,,,0,0,1,,,,,0,,,84,0
145080,note_on,,,,,0,0,1,,,,,0,,,75,102
145080,note_on,,,,,0,0,1,,,,,0,,,78,102
145080,note_on,,,,,15,0,1,,,,,0,,,84,102
145080,note_on,,,,,0,0,2,,,,,0,,,51,105
145080,note_on,,,,,0,0,2,,,,,0,,,56,105
145080,note_on,,,,,30,0,2,,,,,0,,,60,105
145133,note_on,,,,,53,0,1,,,,,0,,,75,0
145133,note_on,,,,,0,0,1,,,,,0,,,78,0
145133,note_on,,,,,0,0,1,,,,,0,,,84,0
145140,note_on,,,,,7,0,1,,,,,0,,,72,106
145170,note_on,,,,,0,0,2,,,,,0,,,60,0
145170,note_on,,,,,0,0,2,,,,,0,,,56,0
145170,note_on,,,,,90,0,2,,,,,0,,,51,0
145180,set_tempo,,,,,120,1,0,,338983,,,,,,,
145185,control_change,,,,,0,0,1,,,,,0,64,0,,
145185,note_on,,,,,45,0,1,,,,,0,,,72,0
145200,note_on,,,,,30,0,2,,,,,0,,,44,111
145200,control_change,,,,,0,0,1,,,,,0,64,96,,
145200,note_on,,,,,15,0,1,,,,,0,,,75,114
145220,set_tempo,,,,,40,1,0,,342857,,,,,,,
145250,set_tempo,,,,,30,1,0,,345821,,,,,,,
145253,note_on,,,,,53,0,1,,,,,0,,,75,0
145260,note_on,,,,,0,0,1,,,,,0,,,78,110
145260,note_on,,,,,0,0,1,,,,,0,,,84,110
145260,note_on,,,,,7,0,1,,,,,0,,,87,110
145290,note_on,,,,,90,0,2,,,,,0,,,44,0
145305,note_on,,,,,0,0,1,,,,,0,,,87,0
145305,note_on,,,,,0,0,1,,,,,0,,,84,0
145305,note_on,,,,,45,0,1,,,,,0,,,78,0
145320,note_on,,,,,15,0,1,,,,,0,,,87,102
145320,note_on,,,,,0,0,1,,,,,0,,,78,102
145320,note_on,,,,,0,0,1,,,,,0,,,84,102
145320,note_on,,,,,0,0,2,,,,,0,,,56,107
145320,note_on,,,,,0,0,2,,,,,0,,,51,107
145320,note_on,,,,,30,0,2,,,,,0,,,60,107
145350,set_tempo,,,,,100,1,0,,349854,,,,,,,
145373,note_on,,,,,53,0,1,,,,,0,,,78,0
145373,note_on,,,,,0,0,1,,,,,0,,,84,0
145373,note_on,,,,,0,0,1,,,,,0,,,87,0
145380,note_on,,,,,7,0,1,,,,,0,,,75,99
145410,note_on,,,,,0,0,2,,,,,0,,,60,0
145410,note_on,,,,,90,0,2,,,,,0,,,51,0
145410,note_on,,,,,0,0,2,,,,,0,,,56,0
145420,set_tempo,,,,,70,1,0,,882352,,,,,,,
145425,control_change,,,,,0,0,1,,,,,0,64,0,,
145425,note_on,,,,,45,0,1,,,,,0,,,75,0
145440,note_on,,,,,30,0,2,,,,,0,,,43,70
145440,control_change,,,,,15,0,1,,,,,0,64,95,,
145450,set_tempo,,,,,30,1,0,,357142,,,,,,,
145460,set_tempo,,,,,10,1,0,,348837,,,,,,,
145470,set_tempo,,,,,10,1,0,,345821,,,,,,,
145490,set_tempo,,,,,20,1,0,,338983,,,,,,,
145500,note_on,,,,,60,0,1,,,,,0,,,82,85
145510,set_tempo,,,,,20,1,0,,335195,,,,,,,
145530,note_on,,,,,90,0,2,,,,,0,,,43,0
145550,set_tempo,,,,,40,1,0,,332409,,,,,,,
145560,note_on,,,,,60,0,1,,,,,0,,,82,0
145560,note_on,,,,,0,0,1,,,,,0,,,87,82
145560,note_on,,,,,30,0,2,,,,,0,,,58,55
145560,note_on,,,,,0,0,2,,,,,0,,,55,55
145560,note_on,,,,,0,0,2,,,,,0,,,51,55
145610,set_tempo,,,,,60,1,0,,336134,,,,,,,
145620,note_on,,,,,0,0,1,,,,,0,,,91,79
145620,note_on,,,,,60,0,1,,,,,0,,,87,0
145650,note_on,,,,,0,0,2,,,,,0,,,58,0
145650,note_on,,,,,0,0,2,,,,,0,,,55,0
145650,note_on,,,,,90,0,2,,,,,0,,,51,0
145675,control_change,,,,,55,0,1,,,,,0,64,0,,
145680,set_tempo,,,,,70,1,0,,339943,,,,,,,
145680,note_on,,,,,30,0,2,,,,,0,,,44,59
145680,note_on,,,,,5,0,1,,,,,0,,,91,0
145680,note_on,,,,,0,0,1,,,,,0,,,94,83
145680,control_change,,,,,0,0,1,,,,,0,64,95,,
145740,note_on,,,,,0,0,1,,,,,0,,,92,74
145740,set_tempo,,,,,60,1,0,,343839,,,,,,,
145740,note_on,,,,,60,0,1,,,,,0,,,94,0
145770,note_on,,,,,90,0,2,,,,,0,,,44,0
145790,set_tempo,,,,,50,1,0,,352941,,,,,,,
145800,note_on,,,,,0,0,1,,,,,0,,,87,67
145800,note_on,,,,,30,0,2,,,,,0,,,60,51
145800,note_on,,,,,60,0,1,,,,,0,,,92,0
145800,note_on,,,,,0,0,2,,,,,0,,,56,51
145800,note_on,,,,,0,0,2,,,,,0,,,51,51
145830,set_tempo,,,,,40,1,0,,357142,,,,,,,
145860,note_on,,,,,0,0,1,,,,,0,,,84,64
145860,note_on,,,,,60,0,1,,,,,0,,,87,0
145890,set_tempo,,,,,60,1,0,,360360,,,,,,,
145890,note_on,,,,,90,0,2,,,,,0,,,51,0
145890,note_on,,,,,0,0,2,,,,,0,,,56,0
145890,note_on,,,,,0,0,2,,,,,0,,,60,0
145910,set_tempo,,,,,20,1,0,,365853,,,,,,,
145915,control_change,,,,,55,0,1,,,,,0,64,0,,
145920,note_on,,,,,30,0,2,,,,,0,,,46,56
145920,note_on,,,,,5,0,1,,,,,0,,,84,0
145920,control_change,,,,,0,0,1,,,,,0,64,95,,
145980,note_on,,,,,60,0,1,,,,,0,,,67,61
145980,set_tempo,,,,,70,1,0,,368098,,,,,,,
145990,set_tempo,,,,,10,1,0,,369230,,,,,,,
146010,note_on,,,,,90,0,2,,,,,0,,,46,0
146040,note_on,,,,,0,0,1,,,,,0,,,70,64
146040,set_tempo,,,,,50,1,0,,375000,,,,,,,
146040,note_on,,,,,0,0,2,,,,,0,,,55,47
146040,note_on,,,,,0,0,2,,,,,0,,,58,47
146040,note_on,,,,,30,0,2,,,,,0,,,63,47
146040,note_on,,,,,60,0,1,,,,,0,,,67,0
146100,note_on,,,,,0,0,1,,,,,0,,,75,65
146100,note_on,,,,,60,0,1,,,,,0,,,70,0
146130,note_on,,,,,0,0,2,,,,,0,,,58,0
146130,note_on,,,,,0,0,2,,,,,0,,,63,0
146130,note_on,,,,,90,0,2,,,,,0,,,55,0
146150,set_tempo,,,,,110,1,0,,377358,,,,,,,
146155,control_change,,,,,55,0,1,,,,,0,64,0,,
146160,note_on,,,,,5,0,1,,,,,0,,,75,0
146160,note_on,,,,,0,0,1,,,,,0,,,79,67
146160,control_change,,,,,0,0,1,,,,,0,64,94,,
146160,note_on,,,,,30,0,2,,,,,0,,,46,54
146190,set_tempo,,,,,40,1,0,,380952,,,,,,,
146220,note_on,,,,,60,0,1,,,,,0,,,79,0
146220,note_on,,,,,0,0,1,,,,,0,,,77,59
146250,note_on,,,,,90,0,2,,,,,0,,,46,0
146260,set_tempo,,,,,70,1,0,,388349,,,,,,,
146280,note_on,,,,,0,0,2,,,,,0,,,58,44
146280,note_on,,,,,0,0,2,,,,,0,,,56,44
146280,note_on,,,,,60,0,1,,,,,0,,,77,0
146280,note_on,,,,,0,0,1,,,,,0,,,74,51
146280,note_on,,,,,30,0,2,,,,,0,,,62,44
146310,set_tempo,,,,,50,1,0,,392156,,,,,,,
146340,note_on,,,,,60,0,1,,,,,0,,,74,0
146340,note_on,,,,,0,0,1,,,,,0,,,70,45
146360,set_tempo,,,,,50,1,0,,431654,,,,,,,
146370,note_on,,,,,90,0,2,,,,,0,,,56,0
146370,note_on,,,,,0,0,2,,,,,0,,,58,0
146370,note_on,,,,,0,0,2,,,,,0,,,62,0
146370,set_tempo,,,,,10,1,0,,461538,,,,,,,
146380,set_tempo,,,,,10,1,0,,465116,,,,,,,
146390,set_tempo,,,,,10,1,0,,491803,,,,,,,
146395,control_change,,,,,55,0,1,,,,,0,64,0,,
146400,note_on,,,,,30,0,2,,,,,0,,,44,83
146400,control_change,,,,,0,0,1,,,,,0,64,96,,
146400,note_on,,,,,0,0,1,,,,,0,,,63,71
146400,note_on,,,,,5,0,1,,,,,0,,,70,0
146410,set_tempo,,,,,20,1,0,,368098,,,,,,,
146450,set_tempo,,,,,40,1,0,,355029,,,,,,,
146453,note_on,,,,,53,0,1,,,,,0,,,63,0
146460,note_on,,,,,0,0,1,,,,,0,,,66,77
146460,note_on,,,,,0,0,1,,,,,0,,,72,77
146460,note_on,,,,,7,0,1,,,,,0,,,75,77
146490,note_on,,,,,90,0,2,,,,,0,,,44,0
146490,set_tempo,,,,,40,1,0,,347826,,,,,,,
146505,note_on,,,,,0,0,1,,,,,0,,,75,0
146505,note_on,,,,,0,0,1,,,,,0,,,72,0
146505,note_on,,,,,45,0,1,,,,,0,,,66,0
146520,note_on,,,,,0,0,2,,,,,0,,,56,87
146520,note_on,,,,,0,0,2,,,,,0,,,60,87
146520,note_on,,,,,30,0,2,,,,,0,,,51,87
146520,note_on,,,,,15,0,1,,,,,0,,,66,83
146520,note_on,,,,,0,0,1,,,,,0,,,72,83
146520,note_on,,,,,0,0,1,,,,,0,,,75,83
146573,note_on,,,,,0,0,1,,,,,0,,,66,0
146573,note_on,,,,,0,0,1,,,,,0,,,72,0
146573,note_on,,,,,53,0,1,,,,,0,,,75,0
146580,set_tempo,,,,,90,1,0,,343839,,,,,,,
146580,note_on,,,,,7,0,1,,,,,0,,,63,91
146610,note_on,,,,,0,0,2,,,,,0,,,51,0
146610,note_on,,,,,0,0,2,,,,,0,,,60,0
146610,note_on,,,,,90,0,2,,,,,0,,,56,0
146625,note_on,,,,,45,0,1,,,,,0,,,63,0
146625,control_change,,,,,0,0,1,,,,,0,64,0,,
146640,note_on,,,,,15,0,1,,,,,0,,,66,102
146640,control_change,,,,,0,0,1,,,,,0,64,96,,
146640,note_on,,,,,30,0,2,,,,,0,,,44,91
146660,set_tempo,,,,,80,1,0,,337078,,,,,,,
146693,note_on,,,,,53,0,1,,,,,0,,,66,0
146700,set_tempo,,,,,40,1,0,,333333,,,,,,,
146700,note_on,,,,,7,0,1,,,,,0,,,78,100
146700,note_on,,,,,0,0,1,,,,,0,,,75,100
146700,note_on,,,,,0,0,1,,,,,0,,,72,100
146730,note_on,,,,,90,0,2,,,,,0,,,44,0
146745,note_on,,,,,45,0,1,,,,,0,,,72,0
146745,note_on,,,,,0,0,1,,,,,0,,,75,0
146745,note_on,,,,,0,0,1,,,,,0,,,78,0
146760,note_on,,,,,0,0,1,,,,,0,,,75,98
146760,note_on,,,,,30,0,2,,,,,0,,,60,97
146760,note_on,,,,,0,0,2,,,,,0,,,56,97
146760,note_on,,,,,0,0,2,,,,,0,,,51,97
146760,note_on,,,,,15,0,1,,,,,0,,,78,98
146760,note_on,,,,,0,0,1,,,,,0,,,72,98
146813,note_on,,,,,0,0,1,,,,,0,,,78,0
146813,note_on,,,,,0,0,1,,,,,0,,,75,0
146813,note_on,,,,,53,0,1,,,,,0,,,72,0
146820,note_on,,,,,7,0,1,,,,,0,,,66,95
146840,set_tempo,,,,,140,1,0,,334261,,,,,,,
146850,note_on,,,,,90,0,2,,,,,0,,,51,0
146850,note_on,,,,,0,0,2,,,,,0,,,56,0
146850,note_on,,,,,0,0,2,,,,,0,,,60,0
146865,control_change,,,,,0,0,1,,,,,0,64,0,,
146865,note_on,,,,,45,0,1,,,,,0,,,66,0
146880,note_on,,,,,30,0,2,,,,,0,,,44,100
146880,note_on,,,,,15,0,1,,,,,0,,,72,107
146880,control_change,,,,,0,0,1,,,,,0,64,96,,
146933,note_on,,,,,53,0,1,,,,,0,,,72,0
146940,note_on,,,,,7,0,1,,,,,0,,,84,105
146940,note_on,,,,,0,0,1,,,,,0,,,75,105
146940,note_on,,,,,0,0,1,,,,,0,,,78,105
146970,note_on,,,,,90,0,2,,,,,0,,,44,0
146980,set_tempo,,,,,140,1,0,,336134,,,,,,,
146985,note_on,,,,,0,0,1,,,,,0,,,78,0
146985,note_on,,,,,45,0,1,,,,,0,,,75,0
146985,note_on,,,,,0,0,1,,,,,0,,,84,0
147000,note_on,,,,,0,0,1,,,,,0,,,78,102
147000,note_on,,,,,0,0,1,,,,,0,,,75,102
147000,set_tempo,,,,,20,1,0,,337078,,,,,,,
147000,note_on,,,,,30,0,2,,,,,0,,,60,105
147000,note_on,,,,,0,0,2,,,,,0,,,56,105
147000,note_on,,,,,0,0,2,,,,,0,,,51,105
147000,note_on,,,,,15,0,1,,,,,0,,,84,102
147053,note_on,,,,,0,0,1,,,,,0,,,84,0
147053,note_on,,,,,0,0,1,,,,,0,,,78,0
147053,note_on,,,,,53,0,1,,,,,0,,,75,0
147060,note_on,,,,,7,0,1,,,,,0,,,72,106
147080,set_tempo,,,,,80,1,0,,339943,,,,,,,
147090,note_on,,,,,0,0,2,,,,,0,,,56,0
147090,note_on,,,,,90,0,2,,,,,0,,,51,0
147090,note_on,,,,,0,0,2,,,,,0,,,60,0
147100,set_tempo,,,,,20,1,0,,340909,,,,,,,
147105,control_change,,,,,0,0,1,,,,,0,64,0,,
147105,note_on,,,,,45,0,1,,,,,0,,,72,0
147120,note_on,,,,,15,0,1,,,,,0,,,75,114
147120,note_on,,,,,30,0,2,,,,,0,,,44,111
147120,control_change,,,,,0,0,1,,,,,0,64,96,,
147173,note_on,,,,,53,0,1,,,,,0,,,75,0
147180,note_on,,,,,0,0,1,,,,,0,,,78,110
147180,note_on,,,,,0,0,1,,,,,0,,,84,110
147180,note_on,,,,,7,0,1,,,,,0,,,87,110
147210,note_on,,,,,90,0,2,,,,,0,,,44,0
147225,note_on,,,,,0,0,1,,,,,0,,,84,0
147225,note_on,,,,,45,0,1,,,,,0,,,78,0
147225,note_on,,,,,0,0,1,,,,,0,,,87,0
147230,set_tempo,,,,,130,1,0,,345821,,,,,,,
147240,note_on,,,,,0,0,2,,,,,0,,,51,107
147240,note_on,,,,,15,0,1,,,,,0,,,87,102
147240,note_on,,,,,0,0,1,,,,,0,,,84,102
147240,note_on,,,,,0,0,1,,,,,0,,,78,102
147240,note_on,,,,,30,0,2,,,,,0,,,60,107
147240,note_on,,,,,0,0,2,,,,,0,,,56,107
147270,set_tempo,,,,,40,1,0,,350877,,,,,,,
147293,note_on,,,,,0,0,1,,,,,0,,,87,0
147293,note_on,,,,,0,0,1,,,,,0,,,84,0
147293,note_on,,,,,53,0,1,,,,,0,,,78,0
147300,note_on,,,,,7,0,1,,,,,0,,,75,99
147330,note_on,,,,,0,0,2,,,,,0,,,56,0
147330,note_on,,,,,0,0,2,,,,,0,,,60,0
147330,note_on,,,,,90,0,2,,,,,0,,,51,0
147345,note_on,,,,,45,0,1,,,,,0,,,75,0
147345,control_change,,,,,0,0,1,,,,,0,64,0,,
147360,set_tempo,,,,,90,1,0,,491803,,,,,,,
147360,note_on,,,,,30,0,2,,,,,0,,,43,107
147360,note_on,,,,,15,0,1,,,,,0,,,67,99
147360,control_change,,,,,0,0,1,,,,,0,64,96,,
147370,set_tempo,,,,,10,1,0,,368098,,,,,,,
147410,set_tempo,,,,,40,1,0,,355029,,,,,,,
147413,note_on,,,,,53,0,1,,,,,0,,,67,0
147420,note_on,,,,,7,0,1,,,,,0,,,79,102
147420,note_on,,,,,0,0,1,,,,,0,,,72,102
147420,note_on,,,,,0,0,1,,,,,0,,,75,102
147450,note_on,,,,,90,0,2,,,,,0,,,43,0
147465,note_on,,,,,0,0,1,,,,,0,,,75,0
147465,note_on,,,,,45,0,1,,,,,0,,,72,0
147465,note_on,,,,,0,0,1,,,,,0,,,79,0
147470,set_tempo,,,,,60,1,0,,347826,,,,,,,
147480,note_on,,,,,30,0,2,,,,,0,,,55,109
147480,note_on,,,,,0,0,2,,,,,0,,,51,109
147480,note_on,,,,,0,0,1,,,,,0,,,72,106
147480,note_on,,,,,15,0,1,,,,,0,,,79,106
147480,note_on,,,,,0,0,1,,,,,0,,,75,106
147480,note_on,,,,,0,0,2,,,,,0,,,60,109
147520,set_tempo,,,,,50,1,0,,343839,,,,,,,
147533,note_on,,,,,53,0,1,,,,,0,,,75,0
147533,note_on,,,,,0,0,1,,,,,0,,,72,0
147533,note_on,,,,,0,0,1,,,,,0,,,79,0
147540,note_on,,,,,7,0,1,,,,,0,,,67,111
147570,note_on,,,,,0,0,2,,,,,0,,,55,0
147570,note_on,,,,,90,0,2,,,,,0,,,60,0
147570,note_on,,,,,0,0,2,,,,,0,,,51,0
147585,note_on,,,,,45,0,1,,,,,0,,,67,0
147585,control_change,,,,,0,0,1,,,,,0,64,0,,
147600,note_on,,,,,15,0,1,,,,,0,,,72,120
147600,control_change,,,,,0,0,1,,,,,0,64,96,,
147600,note_on,,,,,30,0,2,,,,,0,,,43,118
147630,set_tempo,,,,,110,1,0,,336134,,,,,,,
147653,note_on,,,,,53,0,1,,,,,0,,,72,0
147660,note_on,,,,,0,0,1,,,,,0,,,75,118
147660,note_on,,,,,0,0,1,,,,,0,,,79,118
147660,note_on,,,,,7,0,1,,,,,0,,,84,118
147690,note_on,,,,,90,0,2,,,,,0,,,43,0
147705,note_on,,,,,0,0,1,,,,,0,,,84,0
147705,note_on,,,,,0,0,1,,,,,0,,,79,0
147705,note_on,,,,,45,0,1,,,,,0,,,75,0
147720,note_on,,,,,30,0,2,,,,,0,,,55,123
147720,note_on,,,,,0,0,2,,,,,0,,,51,123
147720,note_on,,,,,0,0,2,,,,,0,,,60,123
147720,note_on,,,,,0,0,1,,,,,0,,,75,112
147720,note_on,,,,,0,0,1,,,,,0,,,79,112
147720,note_on,,,,,15,0,1,,,,,0,,,84,112
147720,set_tempo,,,,,90,1,0,,334261,,,,,,,
147773,note_on,,,,,0,0,1,,,,,0,,,84,0
147773,note_on,,,,,53,0,1,,,,,0,,,75,0
147773,note_on,,,,,0,0,1,,,,,0,,,79,0
147780,note_on,,,,,7,0,1,,,,,0,,,72,110
147810,note_on,,,,,90,0,2,,,,,0,,,51,0
147810,note_on,,,,,0,0,2,,,,,0,,,60,0
147810,note_on,,,,,0,0,2,,,,,0,,,55,0
147825,control_change,,,,,0,0,1,,,,,0,64,0,,
147825,note_on,,,,,45,0,1,,,,,0,,,72,0
147840,control_change,,,,,0,0,1,,,,,0,64,96,,
147840,note_on,,,,,30,0,2,,,,,0,,,43,125
147840,note_on,,,,,15,0,1,,,,,0,,,75,107
147893,note_on,,,,,53,0,1,,,,,0,,,75,0
147900,note_on,,,,,0,0,1,,,,,0,,,79,115
147900,note_on,,,,,0,0,1,,,,,0,,,84,115
147900,note_on,,,,,7,0,1,,,,,0,,,87,115
147930,note_on,,,,,90,0,2,,,,,0,,,43,0
147945,note_on,,,,,0,0,1,,,,,0,,,87,0
147945,note_on,,,,,45,0,1,,,,,0,,,84,0
147945,note_on,,,,,0,0,1,,,,,0,,,79,0
147960,note_on,,,,,0,0,2,,,,,0,,,51,114
147960,note_on,,,,,30,0,2,,,,,0,,,55,114
147960,note_on,,,,,0,0,2,,,,,0,,,60,114
147960,note_on,,,,,15,0,1,,,,,0,,,87,116
147960,note_on,,,,,0,0,1,,,,,0,,,79,116
147960,note_on,,,,,0,0,1,,,,,0,,,84,116
148013,note_on,,,,,0,0,1,,,,,0,,,79,0
148013,note_on,,,,,0,0,1,,,,,0,,,87,0
148013,note_on,,,,,53,0,1,,,,,0,,,84,0
148020,note_on,,,,,7,0,1,,,,,0,,,75,120
148050,note_on,,,,,0,0,2,,,,,0,,,55,0
148050,note_on,,,,,0,0,2,,,,,0,,,60,0
148050,note_on,,,,,90,0,2,,,,,0,,,51,0
148065,note_on,,,,,45,0,1,,,,,0,,,75,0
148065,control_change,,,,,0,0,1,,,,,0,64,0,,
148070,set_tempo,,,,,350,1,0,,337078,,,,,,,
148080,note_on,,,,,15,0,1,,,,,0,,,79,124
148080,control_change,,,,,0,0,1,,,,,0,64,96,,
148080,note_on,,,,,30,0,2,,,,,0,,,43,118
148130,set_tempo,,,,,60,1,0,,341880,,,,,,,
148133,note_on,,,,,53,0,1,,,,,0,,,79,0
148140,note_on,,,,,0,0,1,,,,,0,,,87,118
148140,note_on,,,,,0,0,1,,,,,0,,,84,118
148140,note_on,,,,,7,0,1,,,,,0,,,91,118
148170,set_tempo,,,,,40,1,0,,345821,,,,,,,
148170,note_on,,,,,90,0,2,,,,,0,,,43,0
148185,note_on,,,,,0,0,1,,,,,0,,,91,0
148185,note_on,,,,,0,0,1,,,,,0,,,87,0
148185,note_on,,,,,45,0,1,,,,,0,,,84,0
148200,note_on,,,,,0,0,1,,,,,0,,,87,115
148200,note_on,,,,,15,0,1,,,,,0,,,91,115
148200,note_on,,,,,30,0,2,,,,,0,,,55,106
148200,note_on,,,,,0,0,2,,,,,0,,,60,106
148200,note_on,,,,,0,0,2,,,,,0,,,51,106
148200,note_on,,,,,0,0,1,,,,,0,,,84,115
148210,set_tempo,,,,,40,1,0,,349854,,,,,,,
148240,set_tempo,,,,,30,1,0,,356083,,,,,,,
148253,note_on,,,,,0,0,1,,,,,0,,,91,0
148253,note_on,,,,,0,0,1,,,,,0,,,87,0
148253,note_on,,,,,53,0,1,,,,,0,,,84,0
148260,note_on,,,,,7,0,1,,,,,0,,,79,113
148290,note_on,,,,,90,0,2,,,,,0,,,51,0
148290,note_on,,,,,0,0,2,,,,,0,,,60,0
148290,note_on,,,,,0,0,2,,,,,0,,,55,0
148305,note_on,,,,,45,0,1,,,,,0,,,79,0
148305,control_change,,,,,0,0,1,,,,,0,64,0,,
148320,note_on,,,,,15,0,1,,,,,0,,,81,115
148320,control_change,,,,,0,0,1,,,,,0,64,95,,
148320,set_tempo,,,,,80,1,0,,361445,,,,,,,
148320,note_on,,,,,30,0,2,,,,,0,,,42,114
148373,note_on,,,,,53,0,1,,,,,0,,,81,0
148380,note_on,,,,,0,0,1,,,,,0,,,86,111
148380,note_on,,,,,7,0,1,,,,,0,,,93,111
148380,note_on,,,,,0,0,1,,,,,0,,,84,111
148410,note_on,,,,,90,0,2,,,,,0,,,42,0
148420,set_tempo,,,,,100,1,0,,366972,,,,,,,
148425,note_on,,,,,0,0,1,,,,,0,,,86,0
148425,note_on,,,,,0,0,1,,,,,0,,,93,0
148425,note_on,,,,,45,0,1,,,,,0,,,84,0
148440,note_on,,,,,0,0,2,,,,,0,,,50,96
148440,note_on,,,,,30,0,2,,,,,0,,,60,96
148440,note_on,,,,,0,0,2,,,,,0,,,57,96
148440,note_on,,,,,15,0,1,,,,,0,,,93,106
148440,note_on,,,,,0,0,1,,,,,0,,,86,106
148440,note_on,,,,,0,0,1,,,,,0,,,84,106
148493,note_on,,,,,53,0,1,,,,,0,,,84,0
148493,note_on,,,,,0,0,1,,,,,0,,,86,0
148493,note_on,,,,,0,0,1,,,,,0,,,93,0
148500,note_on,,,,,7,0,1,,,,,0,,,81,103
148530,note_on,,,,,0,0,2,,,,,0,,,57,0
148530,note_on,,,,,90,0,2,,,,,0,,,50,0
148530,note_on,,,,,0,0,2,,,,,0,,,60,0
148545,note_on,,,,,45,0,1,,,,,0,,,81,0
148555,control_change,,,,,10,0,1,,,,,0,64,0,,
148560,control_change,,,,,0,0,1,,,,,0,64,96,,
148560,note_on,,,,,5,0,1,,,,,0,,,74,108
148560,note_on,,,,,30,0,2,,,,,0,,,42,107
148590,set_tempo,,,,,170,1,0,,371517,,,,,,,
148613,note_on,,,,,53,0,1,,,,,0,,,74,0
148620,note_on,,,,,0,0,1,,,,,0,,,81,100
148620,note_on,,,,,0,0,1,,,,,0,,,84,100
148620,note_on,,,,,7,0,1,,,,,0,,,86,100
148650,note_on,,,,,90,0,2,,,,,0,,,42,0
148665,note_on,,,,,0,0,1,,,,,0,,,86,0
148665,note_on,,,,,0,0,1,,,,,0,,,84,0
148665,note_on,,,,,45,0,1,,,,,0,,,81,0
148680,note_on,,,,,30,0,2,,,,,0,,,60,92
148680,note_on,,,,,0,0,2,,,,,0,,,57,92
148680,note_on,,,,,0,0,2,,,,,0,,,50,92
148680,set_tempo,,,,,90,1,0,,375000,,,,,,,
148680,note_on,,,,,0,0,1,,,,,0,,,84,96
148680,note_on,,,,,0,0,1,,,,,0,,,81,96
148680,note_on,,,,,15,0,1,,,,,0,,,86,96
148733,note_on,,,,,0,0,1,,,,,0,,,86,0
148733,note_on,,,,,53,0,1,,,,,0,,,81,0
148733,note_on,,,,,0,0,1,,,,,0,,,84,0
148740,note_on,,,,,7,0,1,,,,,0,,,74,92
148770,note_on,,,,,90,0,2,,,,,0,,,50,0
148770,note_on,,,,,0,0,2,,,,,0,,,57,0
148770,note_on,,,,,0,0,2,,,,,0,,,60,0
148785,note_on,,,,,45,0,1,,,,,0,,,74,0
148795,control_change,,,,,10,0,1,,,,,0,64,0,,
148800,note_on,,,,,5,0,1,,,,,0,,,69,98
148800,control_change,,,,,0,0,1,,,,,0,64,96,,
148800,set_tempo,,,,,120,1,0,,378548,,,,,,,
148800,note_on,,,,,30,0,2,,,,,0,,,42,99
148820,set_tempo,,,,,20,1,0,,383386,,,,,,,
148853,note_on,,,,,53,0,1,,,,,0,,,69,0
148860,note_on,,,,,0,0,1,,,,,0,,,72,87
148860,note_on,,,,,0,0,1,,,,,0,,,74,87
148860,note_on,,,,,7,0,1,,,,,0,,,81,87
148890,note_on,,,,,90,0,2,,,,,0,,,42,0
148905,note_on,,,,,45,0,1,,,,,0,,,72,0
148905,note_on,,,,,0,0,1,,,,,0,,,74,0
148905,note_on,,,,,0,0,1,,,,,0,,,81,0
148920,note_on,,,,,30,0,2,,,,,0,,,60,85
148920,note_on,,,,,0,0,2,,,,,0,,,57,85
148920,note_on,,,,,0,0,2,,,,,0,,,50,85
148920,note_on,,,,,15,0,1,,,,,0,,,72,83
148920,note_on,,,,,0,0,1,,,,,0,,,74,83
148920,note_on,,,,,0,0,1,,,,,0,,,81,83
148960,set_tempo,,,,,140,1,0,,387096,,,,,,,
148970,set_tempo,,,,,10,1,0,,389610,,,,,,,
148973,note_on,,,,,53,0,1,,,,,0,,,81,0
148973,note_on,,,,,0,0,1,,,,,0,,,72,0
148973,note_on,,,,,0,0,1,,,,,0,,,74,0
148980,note_on,,,,,7,0,1,,,,,0,,,69,81
149010,note_on,,,,,0,0,2,,,,,0,,,60,0
149010,note_on,,,,,90,0,2,,,,,0,,,50,0
149010,note_on,,,,,0,0,2,,,,,0,,,57,0
149025,note_on,,,,,45,0,1,,,,,0,,,69,0
149030,set_tempo,,,,,60,1,0,,394736,,,,,,,
149035,control_change,,,,,10,0,1,,,,,0,64,0,,
149040,note_on,,,,,5,0,1,,,,,0,,,62,84
149040,control_change,,,,,0,0,1,,,,,0,64,95,,
149040,note_on,,,,,30,0,2,,,,,0,,,42,90
149093,note_on,,,,,53,0,1,,,,,0,,,62,0
149100,note_on,,,,,0,0,1,,,,,0,,,69,78
149100,note_on,,,,,0,0,1,,,,,0,,,72,78
149100,note_on,,,,,7,0,1,,,,,0,,,74,78
149120,set_tempo,,,,,90,1,0,,398671,,,,,,,
149130,note_on,,,,,90,0,2,,,,,0,,,42,0
149145,note_on,,,,,0,0,1,,,,,0,,,72,0
149145,note_on,,,,,0,0,1,,,,,0,,,74,0
149145,note_on,,,,,45,0,1,,,,,0,,,69,0
149160,note_on,,,,,0,0,1,,,,,0,,,69,76
149160,note_on,,,,,0,0,1,,,,,0,,,72,76
149160,note_on,,,,,15,0,1,,,,,0,,,74,76
149160,note_on,,,,,30,0,2,,,,,0,,,60,71
149160,note_on,,,,,0,0,2,,,,,0,,,57,71
149160,note_on,,,,,0,0,2,,,,,0,,,50,71
149213,note_on,,,,,0,0,1,,,,,0,,,74,0
149213,note_on,,,,,0,0,1,,,,,0,,,72,0
149213,note_on,,,,,53,0,1,,,,,0,,,69,0
149220,note_on,,,,,7,0,1,,,,,0,,,62,71
149250,note_on,,,,,90,0,2,,,,,0,,,50,0
149250,note_on,,,,,0,0,2,,,,,0,,,57,0
149250,note_on,,,,,0,0,2,,,,,0,,,60,0
149265,note_on,,,,,45,0,1,,,,,0,,,62,0
149275,control_change,,,,,10,0,1,,,,,0,64,0,,
149280,control_change,,,,,0,0,1,,,,,0,64,95,,
149280,note_on,,,,,5,0,1,,,,,0,,,62,71
149280,note_on,,,,,30,0,2,,,,,0,,,42,74
149290,set_tempo,,,,,170,1,0,,405405,,,,,,,
149310,set_tempo,,,,,20,1,0,,406779,,,,,,,
149333,note_on,,,,,53,0,1,,,,,0,,,62,0
149340,note_on,,,,,0,0,1,,,,,0,,,69,68
149340,set_tempo,,,,,30,1,0,,413793,,,,,,,
149340,note_on,,,,,7,0,1,,,,,0,,,74,68
149340,note_on,,,,,0,0,1,,,,,0,,,72,68
149370,note_on,,,,,90,0,2,,,,,0,,,42,0
149385,note_on,,,,,0,0,1,,,,,0,,,74,0
149385,note_on,,,,,45,0,1,,,,,0,,,69,0
149385,note_on,,,,,0,0,1,,,,,0,,,72,0
149400,note_on,,,,,0,0,2,,,,,0,,,57,58
149400,note_on,,,,,15,0,1,,,,,0,,,74,66
149400,note_on,,,,,0,0,1,,,,,0,,,72,66
149400,note_on,,,,,0,0,1,,,,,0,,,69,66
149400,note_on,,,,,0,0,2,,,,,0,,,50,58
149400,set_tempo,,,,,60,1,0,,421052,,,,,,,
149400,note_on,,,,,30,0,2,,,,,0,,,60,58
149453,note_on,,,,,53,0,1,,,,,0,,,69,0
149453,note_on,,,,,0,0,1,,,,,0,,,72,0
149453,note_on,,,,,0,0,1,,,,,0,,,74,0
149460,set_tempo,,,,,60,1,0,,431654,,,,,,,
149460,note_on,,,,,7,0,1,,,,,0,,,62,63
149490,note_on,,,,,0,0,2,,,,,0,,,60,0
149490,note_on,,,,,90,0,2,,,,,0,,,50,0
149490,note_on,,,,,0,0,2,,,,,0,,,57,0
149505,note_on,,,,,45,0,1,,,,,0,,,62,0
149515,control_change,,,,,10,0,1,,,,,0,64,0,,
149520,note_on,,,,,5,0,1,,,,,0,,,62,66
149520,note_on,,,,,30,0,2,,,,,0,,,42,65
149520,control_change,,,,,0,0,1,,,,,0,64,95,,
149530,set_tempo,,,,,70,1,0,,439560,,,,,,,
149570,set_tempo,,,,,40,1,0,,447761,,,,,,,
149573,note_on,,,,,53,0,1,,,,,0,,,62,0
149580,note_on,,,,,7,0,1,,,,,0,,,74,60
149580,note_on,,,,,0,0,1,,,,,0,,,72,60
149580,note_on,,,,,0,0,1,,,,,0,,,69,60
149610,note_on,,,,,90,0,2,,,,,0,,,42,0
149625,note_on,,,,,45,0,1,,,,,0,,,69,0
149625,note_on,,,,,0,0,1,,,,,0,,,72,0
149625,note_on,,,,,0,0,1,,,,,0,,,74,0
149640,note_on,,,,,0,0,1,,,,,0,,,69,56
149640,note_on,,,,,0,0,1,,,,,0,,,72,56
149640,note_on,,,,,30,0,2,,,,,0,,,60,49
149640,note_on,,,,,0,0,2,,,,,0,,,57,49
149640,note_on,,,,,0,0,2,,,,,0,,,50,49
149640,note_on,,,,,15,0,1,,,,,0,,,74,56
149660,set_tempo,,,,,90,1,0,,459770,,,,,,,
149670,set_tempo,,,,,10,1,0,,472440,,,,,,,
149693,note_on,,,,,0,0,1,,,,,0,,,74,0
149693,note_on,,,,,0,0,1,,,,,0,,,72,0
149693,note_on,,,,,53,0,1,,,,,0,,,69,0
149700,note_on,,,,,7,0,1,,,,,0,,,62,50
149720,set_tempo,,,,,50,1,0,,478087,,,,,,,
149730,note_on,,,,,0,0,2,,,,,0,,,57,0
149730,note_on,,,,,90,0,2,,,,,0,,,50,0
149730,note_on,,,,,0,0,2,,,,,0,,,60,0
149745,note_on,,,,,45,0,1,,,,,0,,,62,0
149755,control_change,,,,,10,0,1,,,,,0,64,0,,
149760,note_on,,,,,5,0,1,,,,,0,,,62,46
149760,control_change,,,,,0,0,1,,,,,0,64,95,,
149760,note_on,,,,,30,0,2,,,,,0,,,42,60
149760,set_tempo,,,,,40,1,0,,485829,,,,,,,
149800,set_tempo,,,,,40,1,0,,493827,,,,,,,
149813,note_on,,,,,53,0,1,,,,,0,,,62,0
149820,note_on,,,,,7,0,1,,,,,0,,,74,44
149820,note_on,,,,,0,0,1,,,,,0,,,69,44
149820,note_on,,,,,0,0,1,,,,,0,,,72,44
149850,note_on,,,,,90,0,2,,,,,0,,,42,0
149850,set_tempo,,,,,50,1,0,,504201,,,,,,,
149865,note_on,,,,,0,0,1,,,,,0,,,72,0
149865,note_on,,,,,0,0,1,,,,,0,,,74,0
149865,note_on,,,,,45,0,1,,,,,0,,,69,0
149880,note_on,,,,,15,0,1,,,,,0,,,74,42
149880,note_on,,,,,0,0,1,,,,,0,,,72,42
149880,note_on,,,,,0,0,1,,,,,0,,,69,42
149880,note_on,,,,,0,0,2,,,,,0,,,57,51
149880,note_on,,,,,30,0,2,,,,,0,,,60,51
149880,note_on,,,,,0,0,2,,,,,0,,,50,51
149933,note_on,,,,,0,0,1,,,,,0,,,72,0
149933,note_on,,,,,0,0,1,,,,,0,,,74,0
149933,note_on,,,,,53,0,1,,,,,0,,,69,0
149940,note_on,,,,,7,0,1,,,,,0,,,62,41
149970,set_tempo,,,,,120,1,0,,528634,,,,,,,
149970,note_on,,,,,0,0,2,,,,,0,,,57,0
149970,note_on,,,,,0,0,2,,,,,0,,,60,0
149970,note_on,,,,,90,0,2,,,,,0,,,50,0
149985,note_on,,,,,45,0,1,,,,,0,,,62,0
149995,control_change,,,,,10,0,1,,,,,0,64,0,,
150000,control_change,,,,,5,0,1,,,,,0,64,96,,
150000,set_tempo,,,,,30,1,0,,508474,,,,,,,
150000,note_on,,,,,30,0,2,,,,,0,,,42,60
150040,set_tempo,,,,,40,1,0,,495867,,,,,,,
150060,note_on,,,,,60,0,1,,,,,0,,,66,40
150060,set_tempo,,,,,20,1,0,,446096,,,,,,,
150090,note_on,,,,,90,0,2,,,,,0,,,42,0
150100,set_tempo,,,,,40,1,0,,437956,,,,,,,
150120,note_on,,,,,0,0,1,,,,,0,,,69,46
150120,note_on,,,,,60,0,1,,,,,0,,,66,0
150120,note_on,,,,,0,0,2,,,,,0,,,50,42
150120,note_on,,,,,30,0,2,,,,,0,,,60,42
150120,note_on,,,,,0,0,2,,,,,0,,,57,42
150150,set_tempo,,,,,50,1,0,,422535,,,,,,,
150180,note_on,,,,,60,0,1,,,,,0,,,69,0
150180,note_on,,,,,0,0,1,,,,,0,,,72,51
150180,set_tempo,,,,,30,1,0,,421052,,,,,,,
150190,set_tempo,,,,,10,1,0,,410958,,,,,,,
150210,note_on,,,,,90,0,2,,,,,0,,,50,0
150210,note_on,,,,,0,0,2,,,,,0,,,60,0
150210,note_on,,,,,0,0,2,,,,,0,,,57,0
150235,control_change,,,,,55,0,1,,,,,0,64,0,,
150240,note_on,,,,,30,0,2,,,,,0,,,38,37
150240,note_on,,,,,5,0,1,,,,,0,,,72,0
150240,note_on,,,,,0,0,1,,,,,0,,,76,54
150240,control_change,,,,,0,0,1,,,,,0,64,95,,
150260,set_tempo,,,,,70,1,0,,401337,,,,,,,
150300,note_on,,,,,0,0,1,,,,,0,,,72,53
150300,note_on,,,,,60,0,1,,,,,0,,,76,0
150320,set_tempo,,,,,60,1,0,,388349,,,,,,,
150330,note_on,,,,,90,0,2,,,,,0,,,38,0
150360,note_on,,,,,0,0,1,,,,,0,,,69,51
150360,note_on,,,,,60,0,1,,,,,0,,,72,0
150360,note_on,,,,,0,0,2,,,,,0,,,57,50
150360,note_on,,,,,0,0,2,,,,,0,,,50,50
150360,note_on,,,,,30,0,2,,,,,0,,,60,50
150380,set_tempo,,,,,60,1,0,,382165,,,,,,,
150420,note_on,,,,,0,0,1,,,,,0,,,66,48
150420,note_on,,,,,60,0,1,,,,,0,,,69,0
150450,set_tempo,,,,,70,1,0,,376175,,,,,,,
150475,control_change,,,,,55,0,1,,,,,0,64,0,,
150480,note_on,,,,,5,0,1,,,,,0,,,66,0
150480,note_on,,,,,0,0,1,,,,,0,,,72,47
150480,control_change,,,,,0,0,1,,,,,0,64,95,,
150540,note_on,,,,,0,0,1,,,,,0,,,69,49
150540,note_on,,,,,60,0,1,,,,,0,,,72,0
150570,note_on,,,,,0,0,2,,,,,0,,,60,0
150570,note_on,,,,,0,0,2,,,,,0,,,57,0
150570,note_on,,,,,210,0,2,,,,,0,,,50,0
150600,note_on,,,,,0,0,2,,,,,0,,,57,41
150600,note_on,,,,,60,0,1,,,,,0,,,69,0
150600,note_on,,,,,0,0,1,,,,,0,,,66,49
150600,note_on,,,,,30,0,2,,,,,0,,,60,41
150600,note_on,,,,,0,0,2,,,,,0,,,50,41
150660,note_on,,,,,60,0,1,,,,,0,,,66,0
150660,note_on,,,,,0,0,1,,,,,0,,,62,51
150670,set_tempo,,,,,220,1,0,,371517,,,,,,,
150690,note_on,,,,,0,0,2,,,,,0,,,60,0
150690,note_on,,,,,90,0,2,,,,,0,,,50,0
150690,note_on,,,,,0,0,2,,,,,0,,,57,0
150710,control_change,,,,,50,0,1,,,,,0,64,0,,
150720,note_on,,,,,10,0,1,,,,,0,,,62,0
150720,note_on,,,,,0,0,1,,,,,0,,,66,54
150720,note_on,,,,,30,0,2,,,,,0,,,38,38
150740,set_tempo,,,,,70,1,0,,368098,,,,,,,
150780,note_on,,,,,0,0,1,,,,,0,,,62,56
150780,note_on,,,,,60,0,1,,,,,0,,,66,0
150810,set_tempo,,,,,70,1,0,,370370,,,,,,,
150810,note_on,,,,,90,0,2,,,,,0,,,38,0
150840,note_on,,,,,0,0,2,,,,,0,,,50,50
150840,note_on,,,,,0,0,2,,,,,0,,,57,50
150840,note_on,,,,,30,0,2,,,,,0,,,60,50
150840,note_on,,,,,60,0,1,,,,,0,,,62,0
150840,note_on,,,,,0,0,1,,,,,0,,,66,53
150900,note_on,,,,,60,0,1,,,,,0,,,66,0
150900,note_on,,,,,0,0,1,,,,,0,,,69,50
150960,set_tempo,,,,,150,1,0,,376175,,,,,,,
150960,note_on,,,,,60,0,1,,,,,0,,,69,0
150960,note_on,,,,,0,0,1,,,,,0,,,72,49
151020,note_on,,,,,0,0,1,,,,,0,,,66,47
151020,note_on,,,,,60,0,1,,,,,0,,,72,0
151050,note_on,,,,,0,0,2,,,,,0,,,60,0
151050,note_on,,,,,0,0,2,,,,,0,,,57,0
151050,note_on,,,,,210,0,2,,,,,0,,,50,0
151080,note_on,,,,,0,0,1,,,,,0,,,69,46
151080,note_on,,,,,60,0,1,,,,,0,,,66,0
151080,note_on,,,,,0,0,2,,,,,0,,,50,39
151080,note_on,,,,,0,0,2,,,,,0,,,57,39
151080,note_on,,,,,30,0,2,,,,,0,,,60,39
151100,set_tempo,,,,,140,1,0,,383386,,,,,,,
151140,note_on,,,,,60,0,1,,,,,0,,,69,0
151140,note_on,,,,,0,0,1,,,,,0,,,72,46
151170,note_on,,,,,90,0,2,,,,,0,,,50,0
151170,note_on,,,,,0,0,2,,,,,0,,,60,0
151170,note_on,,,,,0,0,2,,,,,0,,,57,0
151180,set_tempo,,,,,80,1,0,,393442,,,,,,,
151200,note_on,,,,,60,0,1,,,,,0,,,72,0
151200,note_on,,,,,30,0,2,,,,,0,,,38,32
151200,control_change,,,,,0,0,1,,,,,0,64,95,,
151200,note_on,,,,,0,0,1,,,,,0,,,76,44
151210,set_tempo,,,,,30,1,0,,409556,,,,,,,
151260,note_on,,,,,0,0,1,,,,,0,,,72,42
151260,set_tempo,,,,,50,1,0,,396039,,,,,,,
151260,note_on,,,,,60,0,1,,,,,0,,,76,0
151290,note_on,,,,,90,0,2,,,,,0,,,38,0
151310,set_tempo,,,,,50,1,0,,394736,,,,,,,
151320,set_tempo,,,,,10,1,0,,387096,,,,,,,
151320,note_on,,,,,0,0,2,,,,,0,,,50,40
151320,note_on,,,,,0,0,2,,,,,0,,,57,40
151320,note_on,,,,,30,0,2,,,,,0,,,60,40
151320,note_on,,,,,60,0,1,,,,,0,,,72,0
151320,note_on,,,,,0,0,1,,,,,0,,,69,39
151380,note_on,,,,,60,0,1,,,,,0,,,69,0
151380,note_on,,,,,0,0,1,,,,,0,,,66,36
151390,set_tempo,,,,,70,1,0,,377358,,,,,,,
151435,control_change,,,,,55,0,1,,,,,0,64,0,,
151440,note_on,,,,,0,0,1,,,,,0,,,72,34
151440,control_change,,,,,0,0,1,,,,,0,64,95,,
151440,note_on,,,,,5,0,1,,,,,0,,,66,0
151460,set_tempo,,,,,70,1,0,,373831,,,,,,,
151500,note_on,,,,,0,0,1,,,,,0,,,69,35
151500,note_on,,,,,60,0,1,,,,,0,,,72,0
151530,note_on,,,,,0,0,2,,,,,0,,,60,0
151530,note_on,,,,,0,0,2,,,,,0,,,57,0
151530,note_on,,,,,210,0,2,,,,,0,,,50,0
151560,note_on,,,,,0,0,2,,,,,0,,,50,32
151560,note_on,,,,,0,0,1,,,,,0,,,66,41
151560,note_on,,,,,0,0,2,,,,,0,,,57,32
151560,note_on,,,,,30,0,2,,,,,0,,,60,32
151560,note_on,,,,,60,0,1,,,,,0,,,69,0
151620,note_on,,,,,0,0,1,,,,,0,,,62,44
151620,note_on,,,,,60,0,1,,,,,0,,,66,0
151650,note_on,,,,,0,0,2,,,,,0,,,57,0
151650,note_on,,,,,0,0,2,,,,,0,,,60,0
151650,note_on,,,,,90,0,2,,,,,0,,,50,0
151670,control_change,,,,,50,0,1,,,,,0,64,0,,
151670,set_tempo,,,,,210,1,0,,369230,,,,,,,
151680,note_on,,,,,10,0,1,,,,,0,,,62,0
151680,note_on,,,,,0,0,1,,,,,0,,,66,45
151680,note_on,,,,,30,0,2,,,,,0,,,38,29
151680,control_change,,,,,0,0,1,,,,,0,64,95,,
151740,note_on,,,,,60,0,1,,,,,0,,,66,0
151740,note_on,,,,,0,0,1,,,,,0,,,62,45
151770,note_on,,,,,90,0,2,,,,,0,,,38,0
151800,note_on,,,,,0,0,1,,,,,0,,,66,41
151800,note_on,,,,,60,0,1,,,,,0,,,62,0
151800,note_on,,,,,0,0,2,,,,,0,,,50,40
151800,note_on,,,,,0,0,2,,,,,0,,,57,40
151800,note_on,,,,,30,0,2,,,,,0,,,60,40
151810,set_tempo,,,,,140,1,0,,373831,,,,,,,
151860,note_on,,,,,0,0,1,,,,,0,,,69,37
151860,note_on,,,,,60,0,1,,,,,0,,,66,0
151915,control_change,,,,,55,0,1,,,,,0,64,0,,
151920,control_change,,,,,0,0,1,,,,,0,64,95,,
151920,note_on,,,,,5,0,1,,,,,0,,,69,0
151920,note_on,,,,,0,0,1,,,,,0,,,72,35
151950,set_tempo,,,,,140,1,0,,379746,,,,,,,
151980,note_on,,,,,60,0,1,,,,,0,,,72,0
151980,note_on,,,,,0,0,1,,,,,0,,,66,34
152010,note_on,,,,,210,0,2,,,,,0,,,50,0
152010,note_on,,,,,0,0,2,,,,,0,,,57,0
152010,note_on,,,,,0,0,2,,,,,0,,,60,0
152040,note_on,,,,,0,0,1,,,,,0,,,69,39
152040,note_on,,,,,0,0,2,,,,,0,,,57,34
152040,note_on,,,,,30,0,2,,,,,0,,,60,34
152040,note_on,,,,,0,0,2,,,,,0,,,50,34
152040,note_on,,,,,60,0,1,,,,,0,,,66,0
152100,note_on,,,,,60,0,1,,,,,0,,,69,0
152100,note_on,,,,,0,0,1,,,,,0,,,72,41
152130,note_on,,,,,0,0,2,,,,,0,,,60,0
152130,note_on,,,,,0,0,2,,,,,0,,,57,0
152130,note_on,,,,,90,0,2,,,,,0,,,50,0
152155,control_change,,,,,55,0,1,,,,,0,64,0,,
152160,note_on,,,,,5,0,1,,,,,0,,,72,0
152160,note_on,,,,,0,0,1,,,,,0,,,76,44
152160,control_change,,,,,0,0,1,,,,,0,64,96,,
152160,note_on,,,,,30,0,2,,,,,0,,,38,36
152190,set_tempo,,,,,240,1,0,,384615,,,,,,,
152220,note_on,,,,,60,0,1,,,,,0,,,76,0
152220,note_on,,,,,0,0,1,,,,,0,,,72,42
152250,note_on,,,,,90,0,2,,,,,0,,,38,0
152270,set_tempo,,,,,80,1,0,,393442,,,,,,,
152280,note_on,,,,,60,0,1,,,,,0,,,72,0
152280,note_on,,,,,0,0,2,,,,,0,,,57,33
152280,note_on,,,,,0,0,2,,,,,0,,,50,33
152280,note_on,,,,,0,0,1,,,,,0,,,69,39
152280,note_on,,,,,30,0,2,,,,,0,,,60,33
152290,set_tempo,,,,,20,1,0,,396039,,,,,,,
152340,note_on,,,,,0,0,1,,,,,0,,,66,36
152340,note_on,,,,,60,0,1,,,,,0,,,69,0
152380,set_tempo,,,,,90,1,0,,398671,,,,,,,
152400,note_on,,,,,60,0,1,,,,,0,,,66,0
152400,note_on,,,,,0,0,1,,,,,0,,,76,44
152420,set_tempo,,,,,40,1,0,,400000,,,,,,,
152430,set_tempo,,,,,10,1,0,,405405,,,,,,,
152460,note_on,,,,,60,0,1,,,,,0,,,76,0
152460,note_on,,,,,0,0,1,,,,,0,,,72,42
152490,note_on,,,,,210,0,2,,,,,0,,,50,0
152490,note_on,,,,,0,0,2,,,,,0,,,57,0
152490,note_on,,,,,0,0,2,,,,,0,,,60,0
152515,control_change,,,,,55,0,1,,,,,0,64,0,,
152520,note_on,,,,,0,0,2,,,,,0,,,50,29
152520,note_on,,,,,30,0,2,,,,,0,,,60,29
152520,note_on,,,,,0,0,2,,,,,0,,,57,29
152520,note_on,,,,,5,0,1,,,,,0,,,72,0
152520,control_change,,,,,0,0,1,,,,,0,64,95,,
152520,note_on,,,,,0,0,1,,,,,0,,,69,39
152570,set_tempo,,,,,140,1,0,,413793,,,,,,,
152580,note_on,,,,,0,0,1,,,,,0,,,66,36
152580,note_on,,,,,60,0,1,,,,,0,,,69,0
152640,note_on,,,,,60,0,1,,,,,0,,,66,0
152640,note_on,,,,,0,0,1,,,,,0,,,76,35
152700,note_on,,,,,60,0,1,,,,,0,,,76,0
152700,note_on,,,,,0,0,1,,,,,0,,,72,34
152730,note_on,,,,,0,0,2,,,,,0,,,60,0
152730,note_on,,,,,0,0,2,,,,,0,,,57,0
152730,note_on,,,,,210,0,2,,,,,0,,,50,0
152740,set_tempo,,,,,170,1,0,,419580,,,,,,,
152755,control_change,,,,,55,0,1,,,,,0,64,0,,
152760,note_on,,,,,5,0,1,,,,,0,,,72,0
152760,note_on,,,,,0,0,1,,,,,0,,,69,32
152760,control_change,,,,,0,0,1,,,,,0,64,96,,
152760,note_on,,,,,0,0,2,,,,,0,,,50,25
152760,note_on,,,,,0,0,2,,,,,0,,,57,25
152760,note_on,,,,,30,0,2,,,,,0,,,60,25
152770,set_tempo,,,,,30,1,0,,425531,,,,,,,
152820,note_on,,,,,60,0,1,,,,,0,,,69,0
152820,note_on,,,,,0,0,1,,,,,0,,,66,29
152870,set_tempo,,,,,100,1,0,,433212,,,,,,,
152880,note_on,,,,,60,0,1,,,,,0,,,66,0
152880,note_on,,,,,0,0,1,,,,,0,,,76,30
152940,note_on,,,,,60,0,1,,,,,0,,,76,0
152940,note_on,,,,,0,0,1,,,,,0,,,72,28
152960,set_tempo,,,,,90,1,0,,431654,,,,,,,
152970,note_on,,,,,0,0,2,,,,,0,,,57,0
152970,note_on,,,,,210,0,2,,,,,0,,,50,0
152970,note_on,,,,,0,0,2,,,,,0,,,60,0
152995,control_change,,,,,55,0,1,,,,,0,64,0,,
153000,note_on,,,,,0,0,2,,,,,0,,,50,22
153000,note_on,,,,,0,0,2,,,,,0,,,57,22
153000,note_on,,,,,5,0,1,,,,,0,,,72,0
153000,note_on,,,,,0,0,1,,,,,0,,,69,26
153000,note_on,,,,,30,0,2,,,,,0,,,60,22
153000,control_change,,,,,0,0,1,,,,,0,64,95,,
153040,set_tempo,,,,,80,1,0,,424028,,,,,,,
153060,note_on,,,,,0,0,1,,,,,0,,,66,23
153060,note_on,,,,,60,0,1,,,,,0,,,69,0
153090,set_tempo,,,,,50,1,0,,415224,,,,,,,
153120,note_on,,,,,60,0,1,,,,,0,,,66,0
153120,note_on,,,,,0,0,1,,,,,0,,,76,30
153140,set_tempo,,,,,50,1,0,,405405,,,,,,,
153180,note_on,,,,,0,0,1,,,,,0,,,72,25
153180,note_on,,,,,60,0,1,,,,,0,,,76,0
153210,set_tempo,,,,,70,1,0,,400000,,,,,,,
153210,note_on,,,,,0,0,2,,,,,0,,,57,0
153210,note_on,,,,,0,0,2,,,,,0,,,60,0
153210,note_on,,,,,210,0,2,,,,,0,,,50,0
153225,note_on,,,,,45,0,1,,,,,0,,,72,0
153235,control_change,,,,,10,0,1,,,,,0,64,0,,
153240,note_on,,,,,0,0,2,,,,,0,,,50,32
153240,note_on,,,,,0,0,2,,,,,0,,,57,32
153240,control_change,,,,,0,0,1,,,,,0,64,96,,
153240,note_on,,,,,5,0,1,,,,,0,,,76,35
153240,note_on,,,,,30,0,2,,,,,0,,,60,32
153300,set_tempo,,,,,90,1,0,,396039,,,,,,,
153300,note_on,,,,,0,0,1,,,,,0,,,72,29
153300,note_on,,,,,60,0,1,,,,,0,,,76,0
153330,set_tempo,,,,,30,1,0,,394736,,,,,,,
153330,note_on,,,,,90,0,2,,,,,0,,,50,0
153330,note_on,,,,,0,0,2,,,,,0,,,57,0
153330,note_on,,,,,0,0,2,,,,,0,,,60,0
153340,set_tempo,,,,,10,1,0,,390879,,,,,,,
153345,note_on,,,,,45,0,1,,,,,0,,,72,0
153360,note_on,,,,,30,0,2,,,,,0,,,60,37
153360,note_on,,,,,0,0,2,,,,,0,,,57,37
153360,note_on,,,,,0,0,2,,,,,0,,,50,37
153360,note_on,,,,,15,0,1,,,,,0,,,76,40
153410,set_tempo,,,,,70,1,0,,387096,,,,,,,
153420,note_on,,,,,0,0,1,,,,,0,,,72,35
153420,note_on,,,,,60,0,1,,,,,0,,,76,0
153450,note_on,,,,,90,0,2,,,,,0,,,50,0
153450,note_on,,,,,0,0,2,,,,,0,,,60,0
153450,note_on,,,,,0,0,2,,,,,0,,,57,0
153465,note_on,,,,,45,0,1,,,,,0,,,72,0
153480,note_on,,,,,30,0,2,,,,,0,,,60,41
153480,note_on,,,,,0,0,2,,,,,0,,,57,41
153480,note_on,,,,,0,0,2,,,,,0,,,50,41
153480,note_on,,,,,15,0,1,,,,,0,,,76,43
153490,set_tempo,,,,,80,1,0,,384615,,,,,,,
153540,note_on,,,,,60,0,1,,,,,0,,,76,0
153540,note_on,,,,,0,0,1,,,,,0,,,72,35
153570,set_tempo,,,,,80,1,0,,390879,,,,,,,
153570,note_on,,,,,0,0,2,,,,,0,,,57,0
153570,note_on,,,,,0,0,2,,,,,0,,,60,0
153570,note_on,,,,,90,0,2,,,,,0,,,50,0
153585,note_on,,,,,45,0,1,,,,,0,,,72,0
153590,control_change,,,,,5,0,1,,,,,0,64,0,,
153600,note_on,,,,,30,0,2,,,,,0,,,61,44
153600,note_on,,,,,0,0,2,,,,,0,,,50,44
153600,note_on,,,,,0,0,2,,,,,0,,,58,44
153600,control_change,,,,,0,0,1,,,,,0,64,96,,
153600,note_on,,,,,10,0,1,,,,,0,,,73,47
153640,set_tempo,,,,,70,1,0,,401337,,,,,,,
153660,note_on,,,,,0,0,1,,,,,0,,,76,46
153660,note_on,,,,,60,0,1,,,,,0,,,73,0
153690,note_on,,,,,0,0,2,,,,,0,,,58,0
153690,note_on,,,,,0,0,2,,,,,0,,,61,0
153690,set_tempo,,,,,50,1,0,,404040,,,,,,,
153690,note_on,,,,,90,0,2,,,,,0,,,50,0
153705,note_on,,,,,45,0,1,,,,,0,,,76,0
153720,note_on,,,,,30,0,2,,,,,0,,,61,46
153720,note_on,,,,,15,0,1,,,,,0,,,73,51
153720,note_on,,,,,0,0,2,,,,,0,,,58,46
153720,note_on,,,,,0,0,2,,,,,0,,,50,46
153740,set_tempo,,,,,50,1,0,,413793,,,,,,,
153780,note_on,,,,,60,0,1,,,,,0,,,73,0
153780,note_on,,,,,0,0,1,,,,,0,,,76,47
153800,set_tempo,,,,,60,1,0,,427046,,,,,,,
153810,note_on,,,,,0,0,2,,,,,0,,,58,0
153810,note_on,,,,,0,0,2,,,,,0,,,61,0
153810,note_on,,,,,90,0,2,,,,,0,,,50,0
153825,note_on,,,,,45,0,1,,,,,0,,,76,0
153840,note_on,,,,,15,0,1,,,,,0,,,73,56
153840,note_on,,,,,30,0,2,,,,,0,,,61,53
153840,note_on,,,,,0,0,2,,,,,0,,,58,53
153840,note_on,,,,,0,0,2,,,,,0,,,50,53
153880,set_tempo,,,,,80,1,0,,434782,,,,,,,
153890,set_tempo,,,,,10,1,0,,436363,,,,,,,
153900,note_on,,,,,0,0,1,,,,,0,,,76,48
153900,note_on,,,,,60,0,1,,,,,0,,,73,0
153910,set_tempo,,,,,20,1,0,,442804,,,,,,,
153930,set_tempo,,,,,20,1,0,,456273,,,,,,,
153930,note_on,,,,,0,0,2,,,,,0,,,58,0
153930,note_on,,,,,90,0,2,,,,,0,,,50,0
153930,control_change,,,,,30,0,1,,,,,0,64,0,,
153930,note_on,,,,,0,0,2,,,,,0,,,61,0
153945,note_on,,,,,15,0,1,,,,,0,,,76,0
153960,note_on,,,,,0,0,2,,,,,0,,,58,62
153960,note_on,,,,,0,0,2,,,,,0,,,50,62
153960,control_change,,,,,15,0,1,,,,,0,91,96,,
153960,set_tempo,,,,,30,1,0,,560747,,,,,,,
153960,note_on,,,,,30,0,2,,,,,0,,,61,62
153960,note_on,,,,,0,0,1,,,,,0,,,73,65
154020,note_on,,,,,60,0,1,,,,,0,,,73,0
154020,note_on,,,,,0,0,1,,,,,0,,,76,57
154030,set_tempo,,,,,70,1,0,,476190,,,,,,,
154050,note_on,,,,,0,0,2,,,,,0,,,58,0
154050,note_on,,,,,90,0,2,,,,,0,,,50,0
154050,note_on,,,,,0,0,2,,,,,0,,,61,0
154060,note_on,,,,,10,0,2,,,,,0,,,43,65
154070,note_on,,,,,10,0,2,,,,,0,,,50,65
154072,note_on,,,,,52,0,1,,,,,0,,,76,0
154080,note_on,,,,,8,0,1,,,,,0,,,74,57
154080,note_on,,,,,0,0,2,,,,,0,,,62,65
154080,key_signature,,,,,50,1,0,G,,,,,,,,
154080,note_on,,,,,10,0,2,,,,,0,,,59,65
154080,marker,,,,,0,1,0,,,,,,,,,
154080,control_change,,,,,0,0,1,,,,,0,64,96,,
154090,set_tempo,,,,,10,1,0,,375000,,,,,,,
154440,note_on,,,,,0,0,1,,,,,0,,,72,39
154440,note_on,,,,,360,0,1,,,,,0,,,74,0
154460,set_tempo,,,,,370,1,0,,389610,,,,,,,
154500,note_on,,,,,0,0,1,,,,,0,,,71,41
154500,note_on,,,,,60,0,1,,,,,0,,,72,0
154540,note_on,,,,,460,0,2,,,,,0,,,43,0
154540,control_change,,,,,40,0,1,,,,,0,64,0,,
154540,set_tempo,,,,,80,1,0,,384615,,,,,,,
154550,set_tempo,,,,,10,1,0,,382165,,,,,,,
154554,note_on,,,,,14,0,1,,,,,0,,,71,0
154560,note_on,,,,,20,0,2,,,,,0,,,62,0
154560,note_on,,,,,0,0,2,,,,,0,,,62,48
154560,note_on,,,,,0,0,2,,,,,0,,,60,48
154560,note_on,,,,,6,0,1,,,,,0,,,69,43
154560,note_on,,,,,0,0,2,,,,,0,,,59,0
154560,control_change,,,,,0,0,1,,,,,0,64,95,,
154620,note_on,,,,,60,0,1,,,,,0,,,69,0
154620,note_on,,,,,0,0,1,,,,,0,,,71,44
154640,set_tempo,,,,,90,1,0,,368098,,,,,,,
154670,set_tempo,,,,,30,1,0,,366972,,,,,,,
154680,note_on,,,,,60,0,1,,,,,0,,,71,0
154680,note_on,,,,,0,0,1,,,,,0,,,72,45
154740,note_on,,,,,0,0,1,,,,,0,,,74,46
154740,note_on,,,,,60,0,1,,,,,0,,,72,0
154794,note_on,,,,,54,0,1,,,,,0,,,74,0
154800,note_on,,,,,6,0,1,,,,,0,,,72,48
154800,note_on,,,,,0,0,2,,,,,0,,,57,45
154800,note_on,,,,,240,0,2,,,,,0,,,60,0
154890,note_on,,,,,90,0,2,,,,,0,,,57,0
154890,note_on,,,,,90,0,1,,,,,0,,,72,0
154920,note_on,,,,,30,0,1,,,,,0,,,69,39
154920,note_on,,,,,30,0,2,,,,,0,,,54,38
155010,note_on,,,,,90,0,2,,,,,0,,,54,0
155010,note_on,,,,,90,0,1,,,,,0,,,69,0
155020,note_on,,,,,10,0,2,,,,,0,,,50,0
155020,control_change,,,,,10,0,1,,,,,0,64,0,,
155040,note_on,,,,,0,0,2,,,,,0,,,50,37
155040,note_on,,,,,0,0,2,,,,,0,,,55,37
155040,note_on,,,,,0,0,2,,,,,0,,,43,37
155040,note_on,,,,,20,0,2,,,,,0,,,62,0
155040,note_on,,,,,0,0,1,,,,,0,,,71,43
155040,control_change,,,,,0,0,1,,,,,0,64,95,,
155040,note_on,,,,,20,0,1,,,,,0,,,62,43
155160,note_on,,,,,0,0,1,,,,,0,,,67,34
155160,note_on,,,,,120,0,2,,,,,0,,,43,0
155160,note_on,,,,,0,0,2,,,,,0,,,47,30
155160,note_on,,,,,120,0,1,,,,,0,,,71,0
155220,note_on,,,,,60,0,1,,,,,0,,,67,0
155220,note_on,,,,,0,0,1,,,,,0,,,62,0
155220,control_change,,,,,0,0,1,,,,,0,64,0,,
155220,note_on,,,,,60,0,2,,,,,0,,,47,0
155220,note_on,,,,,0,0,2,,,,,0,,,55,0
155220,note_on,,,,,0,0,2,,,,,0,,,50,0
155280,note_on,,,,,60,0,1,,,,,0,,,59,40
155280,note_on,,,,,0,0,1,,,,,0,,,62,40
155280,set_tempo,,,,,610,1,0,,368098,,,,,,,
155280,note_on,,,,,60,0,2,,,,,0,,,50,42
155280,note_on,,,,,0,0,2,,,,,0,,,55,42
155310,set_tempo,,,,,30,1,0,,384615,,,,,,,
155339,note_on,,,,,0,0,2,,,,,0,,,50,0
155339,note_on,,,,,59,0,2,,,,,0,,,55,0
155339,note_on,,,,,0,0,1,,,,,0,,,59,0
155339,note_on,,,,,59,0,1,,,,,0,,,62,0
155340,note_on,,,,,0,0,2,,,,,0,,,55,35
155340,note_on,,,,,1,0,2,,,,,0,,,50,35
155340,note_on,,,,,0,0,1,,,,,0,,,62,33
155340,note_on,,,,,1,0,1,,,,,0,,,59,33
155360,set_tempo,,,,,50,1,0,,389610,,,,,,,
155370,set_tempo,,,,,10,1,0,,390879,,,,,,,
155390,set_tempo,,,,,20,1,0,,398671,,,,,,,
155394,note_on,,,,,0,0,1,,,,,0,,,59,0
155394,note_on,,,,,54,0,1,,,,,0,,,62,0
155394,note_on,,,,,0,0,2,,,,,0,,,50,0
155394,note_on,,,,,54,0,2,,,,,0,,,55,0
155400,note_on,,,,,0,0,2,,,,,0,,,55,35
155400,note_on,,,,,6,0,1,,,,,0,,,59,33
155400,note_on,,,,,0,0,1,,,,,0,,,62,33
155400,note_on,,,,,6,0,2,,,,,0,,,50,35
155410,set_tempo,,,,,20,1,0,,400000,,,,,,,
155430,set_tempo,,,,,20,1,0,,406779,,,,,,,
155440,set_tempo,,,,,10,1,0,,408163,,,,,,,
155454,note_on,,,,,0,0,2,,,,,0,,,50,0
155454,note_on,,,,,0,0,1,,,,,0,,,59,0
155454,note_on,,,,,54,0,1,,,,,0,,,62,0
155454,note_on,,,,,54,0,2,,,,,0,,,55,0
155460,note_on,,,,,6,0,1,,,,,0,,,59,34
155460,note_on,,,,,0,0,1,,,,,0,,,62,34
155460,note_on,,,,,0,0,2,,,,,0,,,55,38
155460,note_on,,,,,6,0,2,,,,,0,,,50,38
155510,set_tempo,,,,,70,1,0,,398671,,,,,,,
155514,note_on,,,,,54,0,1,,,,,0,,,62,0
155514,note_on,,,,,0,0,1,,,,,0,,,59,0
155514,note_on,,,,,54,0,2,,,,,0,,,55,0
155514,note_on,,,,,0,0,2,,,,,0,,,50,0
155520,note_on,,,,,6,0,1,,,,,0,,,59,40
155520,control_change,,,,,0,0,1,,,,,0,64,95,,
155520,note_on,,,,,0,0,2,,,,,0,,,55,41
155520,note_on,,,,,6,0,2,,,,,0,,,50,41
155520,note_on,,,,,0,0,1,,,,,0,,,62,40
155560,set_tempo,,,,,50,1,0,,389610,,,,,,,
155610,set_tempo,,,,,50,1,0,,383386,,,,,,,
155640,note_on,,,,,120,0,1,,,,,0,,,62,0
155640,note_on,,,,,0,0,1,,,,,0,,,59,0
155640,note_on,,,,,0,0,1,,,,,0,,,64,39
155640,note_on,,,,,0,0,1,,,,,0,,,60,39
155650,set_tempo,,,,,40,1,0,,380952,,,,,,,
155680,set_tempo,,,,,30,1,0,,379746,,,,,,,
155760,note_on,,,,,0,0,1,,,,,0,,,62,30
155760,note_on,,,,,0,0,1,,,,,0,,,59,30
155760,note_on,,,,,0,0,1,,,,,0,,,60,0
155760,note_on,,,,,120,0,1,,,,,0,,,64,0
155820,note_on,,,,,0,0,2,,,,,0,,,50,0
155820,note_on,,,,,300,0,2,,,,,0,,,55,0
155820,note_on,,,,,60,0,1,,,,,0,,,62,0
155820,control_change,,,,,0,0,1,,,,,0,64,0,,
155820,note_on,,,,,0,0,1,,,,,0,,,59,0
155880,note_on,,,,,60,0,1,,,,,0,,,79,52
155910,set_tempo,,,,,230,1,0,,394736,,,,,,,
155940,note_on,,,,,60,0,1,,,,,0,,,79,0
155940,note_on,,,,,0,0,1,,,,,0,,,73,46
155980,note_on,,,,,160,0,2,,,,,0,,,43,53
155990,note_on,,,,,10,0,2,,,,,0,,,50,54
155992,note_on,,,,,52,0,1,,,,,0,,,73,0
156000,note_on,,,,,8,0,1,,,,,0,,,74,48
156000,control_change,,,,,0,0,1,,,,,0,64,96,,
156000,set_tempo,,,,,90,1,0,,377358,,,,,,,
156000,note_on,,,,,10,0,2,,,,,0,,,59,54
156000,note_on,,,,,0,0,2,,,,,0,,,62,54
156360,note_on,,,,,360,0,1,,,,,0,,,74,0
156360,note_on,,,,,0,0,1,,,,,0,,,72,39
156380,set_tempo,,,,,380,1,0,,389610,,,,,,,
156420,note_on,,,,,60,0,1,,,,,0,,,72,0
156420,note_on,,,,,0,0,1,,,,,0,,,71,41
156460,note_on,,,,,460,0,2,,,,,0,,,43,0
156460,control_change,,,,,40,0,1,,,,,0,64,0,,
156460,set_tempo,,,,,80,1,0,,384615,,,,,,,
156470,set_tempo,,,,,10,1,0,,382165,,,,,,,
156474,note_on,,,,,14,0,1,,,,,0,,,71,0
156480,note_on,,,,,0,0,2,,,,,0,,,60,48
156480,note_on,,,,,20,0,2,,,,,0,,,62,0
156480,note_on,,,,,6,0,1,,,,,0,,,69,43
156480,note_on,,,,,0,0,2,,,,,0,,,59,0
156480,note_on,,,,,0,0,2,,,,,0,,,62,48
156480,control_change,,,,,0,0,1,,,,,0,64,95,,
156540,note_on,,,,,60,0,1,,,,,0,,,69,0
156540,note_on,,,,,0,0,1,,,,,0,,,71,44
156560,set_tempo,,,,,90,1,0,,368098,,,,,,,
156570,set_tempo,,,,,10,1,0,,369230,,,,,,,
156600,note_on,,,,,60,0,1,,,,,0,,,71,0
156600,note_on,,,,,0,0,1,,,,,0,,,72,45
156660,note_on,,,,,60,0,1,,,,,0,,,72,0
156660,note_on,,,,,0,0,1,,,,,0,,,74,46
156714,note_on,,,,,54,0,1,,,,,0,,,74,0
156720,note_on,,,,,240,0,2,,,,,0,,,60,0
156720,note_on,,,,,0,0,2,,,,,0,,,57,45
156720,note_on,,,,,6,0,1,,,,,0,,,72,48
156810,note_on,,,,,90,0,2,,,,,0,,,57,0
156810,note_on,,,,,90,0,1,,,,,0,,,72,0
156840,note_on,,,,,30,0,2,,,,,0,,,54,38
156840,note_on,,,,,30,0,1,,,,,0,,,69,39
156930,note_on,,,,,90,0,1,,,,,0,,,69,0
156930,note_on,,,,,90,0,2,,,,,0,,,54,0
156940,control_change,,,,,10,0,1,,,,,0,64,0,,
156940,note_on,,,,,10,0,2,,,,,0,,,50,0
156960,note_on,,,,,0,0,1,,,,,0,,,67,43
156960,note_on,,,,,0,0,2,,,,,0,,,43,36
156960,control_change,,,,,0,0,1,,,,,0,64,95,,
156960,note_on,,,,,20,0,2,,,,,0,,,62,0
156960,note_on,,,,,0,0,2,,,,,0,,,50,36
156960,note_on,,,,,20,0,1,,,,,0,,,59,43
157080,note_on,,,,,0,0,2,,,,,0,,,55,30
157080,note_on,,,,,120,0,2,,,,,0,,,50,0
157080,note_on,,,,,0,0,1,,,,,0,,,62,34
157080,note_on,,,,,120,0,1,,,,,0,,,67,0
157140,note_on,,,,,0,0,2,,,,,0,,,43,0
157140,note_on,,,,,60,0,2,,,,,0,,,55,0
157140,control_change,,,,,0,0,1,,,,,0,64,0,,
157140,note_on,,,,,0,0,1,,,,,0,,,59,0
157140,note_on,,,,,60,0,1,,,,,0,,,62,0
157200,note_on,,,,,60,0,2,,,,,0,,,67,51
157200,note_on,,,,,0,0,2,,,,,0,,,62,51
157200,set_tempo,,,,,630,1,0,,368098,,,,,,,
157200,note_on,,,,,0,0,1,,,,,0,,,71,48
157200,note_on,,,,,60,0,1,,,,,0,,,79,48
157230,set_tempo,,,,,30,1,0,,382165,,,,,,,
157240,set_tempo,,,,,10,1,0,,384615,,,,,,,
157250,set_tempo,,,,,10,1,0,,384615,,,,,,,
157259,note_on,,,,,0,0,2,,,,,0,,,67,0
157259,note_on,,,,,59,0,2,,,,,0,,,62,0
157259,note_on,,,,,59,0,1,,,,,0,,,71,0
157259,note_on,,,,,0,0,1,,,,,0,,,79,0
157260,note_on,,,,,1,0,2,,,,,0,,,62,46
157260,note_on,,,,,1,0,1,,,,,0,,,71,44
157260,note_on,,,,,0,0,1,,,,,0,,,79,44
157260,note_on,,,,,0,0,2,,,,,0,,,67,46
157280,set_tempo,,,,,30,1,0,,396039,,,,,,,
157314,note_on,,,,,0,0,1,,,,,0,,,71,0
157314,note_on,,,,,0,0,2,,,,,0,,,62,0
157314,note_on,,,,,54,0,1,,,,,0,,,79,0
157314,note_on,,,,,54,0,2,,,,,0,,,67,0
157320,note_on,,,,,0,0,1,,,,,0,,,79,46
157320,note_on,,,,,6,0,1,,,,,0,,,71,46
157320,note_on,,,,,6,0,2,,,,,0,,,62,50
157320,set_tempo,,,,,40,1,0,,401337,,,,,,,
157320,note_on,,,,,0,0,2,,,,,0,,,67,50
157340,set_tempo,,,,,20,1,0,,402684,,,,,,,
157374,note_on,,,,,0,0,1,,,,,0,,,71,0
157374,note_on,,,,,54,0,2,,,,,0,,,67,0
157374,note_on,,,,,0,0,2,,,,,0,,,62,0
157374,note_on,,,,,54,0,1,,,,,0,,,79,0
157380,note_on,,,,,0,0,1,,,,,0,,,79,49
157380,note_on,,,,,6,0,2,,,,,0,,,62,52
157380,note_on,,,,,6,0,1,,,,,0,,,71,49
157380,note_on,,,,,0,0,2,,,,,0,,,67,52
157390,set_tempo,,,,,50,1,0,,404040,,,,,,,
157430,set_tempo,,,,,40,1,0,,397350,,,,,,,
157434,note_on,,,,,0,0,2,,,,,0,,,62,0
157434,note_on,,,,,54,0,1,,,,,0,,,79,0
157434,note_on,,,,,54,0,2,,,,,0,,,67,0
157434,note_on,,,,,0,0,1,,,,,0,,,71,0
157440,note_on,,,,,6,0,2,,,,,0,,,62,55
157440,note_on,,,,,0,0,2,,,,,0,,,67,55
157440,control_change,,,,,0,0,1,,,,,0,64,95,,
157440,note_on,,,,,0,0,1,,,,,0,,,79,51
157440,note_on,,,,,6,0,1,,,,,0,,,71,51
157470,set_tempo,,,,,40,1,0,,390879,,,,,,,
157480,set_tempo,,,,,10,1,0,,389610,,,,,,,
157510,set_tempo,,,,,30,1,0,,383386,,,,,,,
157550,set_tempo,,,,,40,1,0,,378548,,,,,,,
157560,note_on,,,,,0,0,1,,,,,0,,,76,43
157560,note_on,,,,,0,0,1,,,,,0,,,72,43
157560,note_on,,,,,0,0,1,,,,,0,,,71,0
157560,note_on,,,,,120,0,1,,,,,0,,,79,0
157680,note_on,,,,,120,0,1,,,,,0,,,76,0
157680,note_on,,,,,0,0,1,,,,,0,,,71,37
157680,note_on,,,,,0,0,1,,,,,0,,,74,37
157680,note_on,,,,,0,0,1,,,,,0,,,72,0
157740,note_on,,,,,60,0,1,,,,,0,,,74,0
157740,note_on,,,,,0,0,1,,,,,0,,,71,0
157740,note_on,,,,,300,0,2,,,,,0,,,67,0
157740,note_on,,,,,0,0,2,,,,,0,,,62,0
157800,note_on,,,,,60,0,2,,,,,0,,,50,30
157800,note_on,,,,,0,0,2,,,,,0,,,59,30
157800,note_on,,,,,60,0,1,,,,,0,,,62,42
157890,note_on,,,,,90,0,2,,,,,0,,,59,0
157890,note_on,,,,,0,0,2,,,,,0,,,50,0
157890,note_on,,,,,90,0,1,,,,,0,,,62,0
157920,note_on,,,,,30,0,2,,,,,0,,,50,36
157920,note_on,,,,,0,0,2,,,,,0,,,60,36
157920,set_tempo,,,,,370,1,0,,425531,,,,,,,
157920,note_on,,,,,30,0,1,,,,,0,,,64,48
157920,control_change,,,,,0,0,1,,,,,0,64,95,,
157979,note_on,,,,,59,0,2,,,,,0,,,60,0
157979,note_on,,,,,0,0,2,,,,,0,,,50,0
157980,note_on,,,,,1,0,2,,,,,0,,,50,34
157980,note_on,,,,,0,0,2,,,,,0,,,60,34
158020,set_tempo,,,,,100,1,0,,377358,,,,,,,
158034,note_on,,,,,54,0,2,,,,,0,,,60,0
158034,note_on,,,,,0,0,2,,,,,0,,,50,0
158040,note_on,,,,,6,0,2,,,,,0,,,50,32
158040,note_on,,,,,0,0,2,,,,,0,,,60,32
158094,note_on,,,,,54,0,2,,,,,0,,,60,0
158094,note_on,,,,,0,0,2,,,,,0,,,50,0
158100,note_on,,,,,6,0,2,,,,,0,,,50,32
158100,note_on,,,,,0,0,2,,,,,0,,,60,32
158154,note_on,,,,,54,0,2,,,,,0,,,60,0
158154,note_on,,,,,0,0,2,,,,,0,,,50,0
158160,note_on,,,,,6,0,2,,,,,0,,,50,30
158160,note_on,,,,,0,0,2,,,,,0,,,60,30
158270,control_change,,,,,350,0,1,,,,,0,64,0,,
158280,note_on,,,,,0,0,2,,,,,0,,,50,0
158280,note_on,,,,,120,0,2,,,,,0,,,60,0
158280,note_on,,,,,10,0,1,,,,,0,,,64,0
158280,note_on,,,,,0,0,1,,,,,0,,,66,43
158340,note_on,,,,,60,0,1,,,,,0,,,66,0
158340,note_on,,,,,0,0,1,,,,,0,,,67,47
158400,note_on,,,,,60,0,1,,,,,0,,,67,0
158400,control_change,,,,,0,0,1,,,,,0,64,95,,
158400,note_on,,,,,120,0,2,,,,,0,,,50,36
158400,note_on,,,,,0,0,2,,,,,0,,,57,36
158400,set_tempo,,,,,380,1,0,,400000,,,,,,,
158400,note_on,,,,,0,0,1,,,,,0,,,66,50
158459,note_on,,,,,0,0,2,,,,,0,,,50,0
158459,note_on,,,,,59,0,2,,,,,0,,,57,0
158460,note_on,,,,,60,0,1,,,,,0,,,66,0
158460,note_on,,,,,0,0,1,,,,,0,,,67,49
158460,note_on,,,,,1,0,2,,,,,0,,,50,34
158460,note_on,,,,,0,0,2,,,,,0,,,57,34
158490,set_tempo,,,,,90,1,0,,377358,,,,,,,
158514,note_on,,,,,0,0,2,,,,,0,,,50,0
158514,note_on,,,,,54,0,2,,,,,0,,,57,0
158520,note_on,,,,,0,0,1,,,,,0,,,69,46
158520,note_on,,,,,0,0,2,,,,,0,,,57,33
158520,note_on,,,,,6,0,2,,,,,0,,,50,33
158520,note_on,,,,,60,0,1,,,,,0,,,67,0
158574,note_on,,,,,0,0,2,,,,,0,,,50,0
158574,note_on,,,,,54,0,2,,,,,0,,,57,0
158580,note_on,,,,,60,0,1,,,,,0,,,69,0
158580,note_on,,,,,0,0,1,,,,,0,,,71,41
158580,note_on,,,,,6,0,2,,,,,0,,,50,32
158580,note_on,,,,,0,0,2,,,,,0,,,57,32
158634,note_on,,,,,54,0,1,,,,,0,,,71,0
158634,note_on,,,,,54,0,2,,,,,0,,,57,0
158634,note_on,,,,,0,0,2,,,,,0,,,50,0
158640,note_on,,,,,6,0,1,,,,,0,,,72,43
158640,note_on,,,,,0,0,2,,,,,0,,,50,31
158640,note_on,,,,,6,0,2,,,,,0,,,54,31
158730,note_on,,,,,90,0,1,,,,,0,,,72,0
158760,note_on,,,,,120,0,2,,,,,0,,,50,0
158760,note_on,,,,,30,0,1,,,,,0,,,74,46
158760,control_change,,,,,0,0,1,,,,,0,64,0,,
158760,note_on,,,,,0,0,2,,,,,0,,,54,0
158850,note_on,,,,,90,0,1,,,,,0,,,74,0
158880,control_change,,,,,0,0,1,,,,,0,64,94,,
158880,note_on,,,,,0,0,1,,,,,0,,,71,50
158880,note_on,,,,,30,0,1,,,,,0,,,67,50
158880,note_on,,,,,120,0,2,,,,,0,,,50,36
158880,note_on,,,,,0,0,2,,,,,0,,,55,36
158880,set_tempo,,,,,390,1,0,,431654,,,,,,,
158939,note_on,,,,,0,0,2,,,,,0,,,50,0
158939,note_on,,,,,59,0,2,,,,,0,,,55,0
158940,note_on,,,,,0,0,2,,,,,0,,,55,34
158940,note_on,,,,,1,0,2,,,,,0,,,50,34
158970,set_tempo,,,,,90,1,0,,377358,,,,,,,
158994,note_on,,,,,0,0,2,,,,,0,,,50,0
158994,note_on,,,,,54,0,2,,,,,0,,,55,0
159000,note_on,,,,,0,0,2,,,,,0,,,55,33
159000,note_on,,,,,6,0,2,,,,,0,,,50,33
159054,note_on,,,,,54,0,2,,,,,0,,,55,0
159054,note_on,,,,,0,0,2,,,,,0,,,50,0
159060,note_on,,,,,0,0,2,,,,,0,,,55,32
159060,note_on,,,,,6,0,2,,,,,0,,,50,32
159114,note_on,,,,,54,0,2,,,,,0,,,55,0
159114,note_on,,,,,0,0,2,,,,,0,,,50,0
159120,note_on,,,,,6,0,2,,,,,0,,,47,31
159120,note_on,,,,,0,0,2,,,,,0,,,55,31
159210,note_on,,,,,0,0,2,,,,,0,,,47,0
159210,note_on,,,,,90,0,2,,,,,0,,,55,0
159240,note_on,,,,,360,0,1,,,,,0,,,71,0
159240,note_on,,,,,0,0,1,,,,,0,,,67,0
159240,note_on,,,,,0,0,1,,,,,0,,,69,42
159240,note_on,,,,,0,0,1,,,,,0,,,72,42
159240,control_change,,,,,0,0,1,,,,,0,64,0,,
159240,note_on,,,,,30,0,2,,,,,0,,,43,25
159300,note_on,,,,,0,0,1,,,,,0,,,69,0
159300,note_on,,,,,0,0,1,,,,,0,,,71,44
159300,note_on,,,,,0,0,1,,,,,0,,,74,44
159300,note_on,,,,,60,0,1,,,,,0,,,72,0
159330,note_on,,,,,90,0,2,,,,,0,,,43,0
159360,note_on,,,,,60,0,1,,,,,0,,,74,0
159360,note_on,,,,,0,0,1,,,,,0,,,72,45
159360,note_on,,,,,0,0,1,,,,,0,,,76,45
159360,control_change,,,,,0,0,1,,,,,0,64,95,,
159360,note_on,,,,,30,0,2,,,,,0,,,60,39
159360,note_on,,,,,0,0,2,,,,,0,,,55,39
159360,note_on,,,,,0,0,1,,,,,0,,,71,0
159370,set_tempo,,,,,400,1,0,,402684,,,,,,,
159419,note_on,,,,,59,0,2,,,,,0,,,55,0
159419,note_on,,,,,0,0,2,,,,,0,,,60,0
159420,set_tempo,,,,,50,1,0,,375000,,,,,,,
159420,note_on,,,,,0,0,1,,,,,0,,,72,0
159420,note_on,,,,,60,0,1,,,,,0,,,76,0
159420,note_on,,,,,0,0,2,,,,,0,,,55,37
159420,note_on,,,,,1,0,2,,,,,0,,,60,37
159420,note_on,,,,,0,0,1,,,,,0,,,74,47
159420,note_on,,,,,0,0,1,,,,,0,,,78,47
159474,note_on,,,,,54,0,2,,,,,0,,,55,0
159474,note_on,,,,,0,0,2,,,,,0,,,60,0
159480,note_on,,,,,0,0,2,,,,,0,,,55,35
159480,note_on,,,,,6,0,2,,,,,0,,,60,35
159480,note_on,,,,,60,0,1,,,,,0,,,78,0
159480,note_on,,,,,0,0,1,,,,,0,,,74,0
159480,note_on,,,,,0,0,1,,,,,0,,,79,49
159480,note_on,,,,,0,0,1,,,,,0,,,76,49
159534,note_on,,,,,54,0,2,,,,,0,,,55,0
159534,note_on,,,,,0,0,2,,,,,0,,,60,0
159540,note_on,,,,,0,0,1,,,,,0,,,81,50
159540,note_on,,,,,0,0,1,,,,,0,,,78,50
159540,note_on,,,,,0,0,1,,,,,0,,,76,0
159540,note_on,,,,,60,0,1,,,,,0,,,79,0
159540,note_on,,,,,6,0,2,,,,,0,,,60,34
159540,note_on,,,,,0,0,2,,,,,0,,,55,34
159594,note_on,,,,,0,0,2,,,,,0,,,60,0
159594,note_on,,,,,54,0,2,,,,,0,,,55,0
159600,note_on,,,,,0,0,2,,,,,0,,,52,34
159600,note_on,,,,,0,0,1,,,,,0,,,75,52
159600,note_on,,,,,0,0,1,,,,,0,,,71,52
159600,note_on,,,,,0,0,1,,,,,0,,,78,0
159600,note_on,,,,,60,0,1,,,,,0,,,81,0
159600,note_on,,,,,6,0,2,,,,,0,,,60,34
159690,note_on,,,,,90,0,2,,,,,0,,,52,0
159690,note_on,,,,,0,0,2,,,,,0,,,60,0
159690,note_on,,,,,0,0,1,,,,,0,,,71,0
159690,note_on,,,,,90,0,1,,,,,0,,,75,0
159690,note_on,,,,,0,0,1,,,,,0,,,78,45
159705,note_on,,,,,15,0,1,,,,,0,,,78,0
159720,note_on,,,,,0,0,1,,,,,0,,,76,43
159720,control_change,,,,,0,0,1,,,,,0,64,0,,
159720,note_on,,,,,15,0,1,,,,,0,,,72,43
159720,note_on,,,,,30,0,2,,,,,0,,,48,29
159810,note_on,,,,,0,0,1,,,,,0,,,72,0
159810,note_on,,,,,90,0,1,,,,,0,,,76,0
159810,note_on,,,,,90,0,2,,,,,0,,,48,0
159840,set_tempo,,,,,420,1,0,,425531,,,,,,,
159840,note_on,,,,,30,0,1,,,,,0,,,74,32
159840,note_on,,,,,0,0,1,,,,,0,,,71,32
159840,control_change,,,,,0,0,1,,,,,0,64,96,,
159840,note_on,,,,,30,0,2,,,,,0,,,55,39
159899,note_on,,,,,59,0,2,,,,,0,,,55,0
159900,note_on,,,,,1,0,2,,,,,0,,,55,39
159920,set_tempo,,,,,80,1,0,,377358,,,,,,,
159954,note_on,,,,,54,0,2,,,,,0,,,55,0
159960,note_on,,,,,6,0,2,,,,,0,,,55,36
160014,note_on,,,,,54,0,2,,,,,0,,,55,0
160020,note_on,,,,,6,0,2,,,,,0,,,55,35
160074,note_on,,,,,54,0,2,,,,,0,,,55,0
160080,note_on,,,,,6,0,2,,,,,0,,,55,34
160110,note_on,,,,,270,0,1,,,,,0,,,71,0
160110,note_on,,,,,0,0,1,,,,,0,,,74,0
160140,note_on,,,,,30,0,1,,,,,0,,,67,35
160170,note_on,,,,,90,0,2,,,,,0,,,55,0
160200,control_change,,,,,0,0,1,,,,,0,64,0,,
160200,note_on,,,,,0,0,1,,,,,0,,,62,39
160200,note_on,,,,,0,0,2,,,,,0,,,50,31
160200,note_on,,,,,60,0,1,,,,,0,,,67,0
160200,note_on,,,,,30,0,2,,,,,0,,,59,31
160260,note_on,,,,,60,0,1,,,,,0,,,62,0
160260,note_on,,,,,0,0,1,,,,,0,,,67,42
160290,note_on,,,,,0,0,2,,,,,0,,,59,0
160290,note_on,,,,,90,0,2,,,,,0,,,50,0
160320,note_on,,,,,0,0,2,,,,,0,,,60,36
160320,set_tempo,,,,,400,1,0,,425531,,,,,,,
160320,note_on,,,,,30,0,2,,,,,0,,,50,36
160320,note_on,,,,,60,0,1,,,,,0,,,67,0
160320,note_on,,,,,0,0,1,,,,,0,,,64,47
160320,control_change,,,,,0,0,1,,,,,0,64,95,,
160379,note_on,,,,,59,0,2,,,,,0,,,60,0
160379,note_on,,,,,0,0,2,,,,,0,,,50,0
160380,note_on,,,,,1,0,2,,,,,0,,,50,34
160380,note_on,,,,,0,0,2,,,,,0,,,60,34
160420,set_tempo,,,,,100,1,0,,377358,,,,,,,
160434,note_on,,,,,0,0,2,,,,,0,,,50,0
160434,note_on,,,,,54,0,2,,,,,0,,,60,0
160440,note_on,,,,,6,0,2,,,,,0,,,50,32
160440,note_on,,,,,0,0,2,,,,,0,,,60,32
160494,note_on,,,,,54,0,2,,,,,0,,,60,0
160494,note_on,,,,,0,0,2,,,,,0,,,50,0
160500,note_on,,,,,6,0,2,,,,,0,,,50,32
160500,note_on,,,,,0,0,2,,,,,0,,,60,32
160554,note_on,,,,,0,0,2,,,,,0,,,50,0
160554,note_on,,,,,54,0,2,,,,,0,,,60,0
160560,note_on,,,,,0,0,2,,,,,0,,,60,30
160560,note_on,,,,,6,0,2,,,,,0,,,50,30
160620,note_on,,,,,300,0,1,,,,,0,,,64,0
160620,note_on,,,,,0,0,1,,,,,0,,,76,43
160670,control_change,,,,,50,0,1,,,,,0,64,0,,
160680,note_on,,,,,120,0,2,,,,,0,,,60,0
160680,note_on,,,,,0,0,2,,,,,0,,,50,0
160680,note_on,,,,,0,0,1,,,,,0,,,72,43
160680,note_on,,,,,10,0,1,,,,,0,,,76,0
160740,note_on,,,,,0,0,1,,,,,0,,,69,47
160740,note_on,,,,,60,0,1,,,,,0,,,72,0
160800,note_on,,,,,0,0,1,,,,,0,,,66,50
160800,note_on,,,,,120,0,2,,,,,0,,,50,36
160800,note_on,,,,,0,0,2,,,,,0,,,57,36
160800,note_on,,,,,60,0,1,,,,,0,,,69,0
160800,control_change,,,,,0,0,1,,,,,0,64,95,,
160800,set_tempo,,,,,380,1,0,,397350,,,,,,,
160859,note_on,,,,,59,0,2,,,,,0,,,57,0
160859,note_on,,,,,0,0,2,,,,,0,,,50,0
160860,note_on,,,,,1,0,2,,,,,0,,,50,34
160860,note_on,,,,,0,0,1,,,,,0,,,67,49
160860,note_on,,,,,60,0,1,,,,,0,,,66,0
160860,note_on,,,,,0,0,2,,,,,0,,,57,34
160890,set_tempo,,,,,90,1,0,,377358,,,,,,,
160900,set_tempo,,,,,10,1,0,,371517,,,,,,,
160914,note_on,,,,,0,0,2,,,,,0,,,50,0
160914,note_on,,,,,54,0,2,,,,,0,,,57,0
160920,note_on,,,,,6,0,2,,,,,0,,,50,33
160920,note_on,,,,,0,0,2,,,,,0,,,57,33
160920,note_on,,,,,0,0,1,,,,,0,,,69,46
160920,note_on,,,,,60,0,1,,,,,0,,,67,0
160930,set_tempo,,,,,30,1,0,,369230,,,,,,,
160970,set_tempo,,,,,40,1,0,,365853,,,,,,,
160974,note_on,,,,,54,0,2,,,,,0,,,57,0
160974,note_on,,,,,0,0,2,,,,,0,,,50,0
160980,note_on,,,,,0,0,1,,,,,0,,,71,41
160980,note_on,,,,,60,0,1,,,,,0,,,69,0
160980,note_on,,,,,6,0,2,,,,,0,,,50,32
160980,note_on,,,,,0,0,2,,,,,0,,,57,32
161034,note_on,,,,,54,0,1,,,,,0,,,71,0
161034,note_on,,,,,54,0,2,,,,,0,,,57,0
161034,note_on,,,,,0,0,2,,,,,0,,,50,0
161040,note_on,,,,,6,0,1,,,,,0,,,72,43
161040,note_on,,,,,6,0,2,,,,,0,,,54,31
161040,note_on,,,,,0,0,2,,,,,0,,,50,31
161120,set_tempo,,,,,150,1,0,,360360,,,,,,,
161130,note_on,,,,,90,0,1,,,,,0,,,72,0
161160,note_on,,,,,30,0,1,,,,,0,,,74,46
161160,control_change,,,,,0,0,1,,,,,0,64,0,,
161160,note_on,,,,,120,0,2,,,,,0,,,50,0
161160,note_on,,,,,0,0,2,,,,,0,,,54,0
161240,set_tempo,,,,,120,1,0,,400000,,,,,,,
161250,note_on,,,,,90,0,1,,,,,0,,,74,0
161280,note_on,,,,,120,0,2,,,,,0,,,50,40
161280,note_on,,,,,0,0,2,,,,,0,,,55,40
161280,control_change,,,,,0,0,1,,,,,0,64,94,,
161280,note_on,,,,,0,0,1,,,,,0,,,71,50
161280,note_on,,,,,30,0,1,,,,,0,,,67,50
161280,set_tempo,,,,,40,1,0,,431654,,,,,,,
161339,note_on,,,,,59,0,2,,,,,0,,,55,0
161339,note_on,,,,,0,0,2,,,,,0,,,50,0
161340,note_on,,,,,1,0,2,,,,,0,,,50,37
161340,note_on,,,,,0,0,2,,,,,0,,,55,37
161370,set_tempo,,,,,90,1,0,,372670,,,,,,,
161394,note_on,,,,,0,0,2,,,,,0,,,50,0
161394,note_on,,,,,54,0,2,,,,,0,,,55,0
161400,note_on,,,,,6,0,2,,,,,0,,,50,34
161400,note_on,,,,,0,0,2,,,,,0,,,55,34
161454,note_on,,,,,0,0,2,,,,,0,,,50,0
161454,note_on,,,,,54,0,2,,,,,0,,,55,0
161460,note_on,,,,,0,0,2,,,,,0,,,55,33
161460,note_on,,,,,6,0,2,,,,,0,,,50,33
161514,note_on,,,,,0,0,2,,,,,0,,,50,0
161514,note_on,,,,,54,0,2,,,,,0,,,55,0
161520,note_on,,,,,0,0,2,,,,,0,,,55,31
161520,note_on,,,,,6,0,2,,,,,0,,,47,31
161570,set_tempo,,,,,200,1,0,,370370,,,,,,,
161610,note_on,,,,,0,0,2,,,,,0,,,47,0
161610,note_on,,,,,90,0,2,,,,,0,,,55,0
161620,set_tempo,,,,,50,1,0,,368098,,,,,,,
161640,control_change,,,,,0,0,1,,,,,0,64,0,,
161640,note_on,,,,,0,0,1,,,,,0,,,67,0
161640,note_on,,,,,0,0,1,,,,,0,,,69,42
161640,note_on,,,,,360,0,1,,,,,0,,,71,0
161640,note_on,,,,,30,0,2,,,,,0,,,43,40
161640,note_on,,,,,0,0,1,,,,,0,,,72,42
161660,set_tempo,,,,,40,1,0,,363636,,,,,,,
161700,note_on,,,,,0,0,1,,,,,0,,,69,0
161700,note_on,,,,,60,0,1,,,,,0,,,72,0
161700,note_on,,,,,0,0,1,,,,,0,,,71,44
161700,note_on,,,,,0,0,1,,,,,0,,,74,44
161730,note_on,,,,,90,0,2,,,,,0,,,43,0
161740,set_tempo,,,,,80,1,0,,361445,,,,,,,
161760,note_on,,,,,30,0,2,,,,,0,,,60,51
161760,note_on,,,,,60,0,1,,,,,0,,,74,0
161760,note_on,,,,,0,0,1,,,,,0,,,71,0
161760,note_on,,,,,0,0,1,,,,,0,,,72,46
161760,note_on,,,,,0,0,1,,,,,0,,,76,46
161760,control_change,,,,,0,0,1,,,,,0,64,95,,
161760,note_on,,,,,0,0,2,,,,,0,,,55,51
161760,set_tempo,,,,,20,1,0,,389610,,,,,,,
161810,set_tempo,,,,,50,1,0,,361445,,,,,,,
161819,note_on,,,,,59,0,2,,,,,0,,,55,0
161819,note_on,,,,,0,0,2,,,,,0,,,60,0
161820,note_on,,,,,1,0,2,,,,,0,,,60,48
161820,note_on,,,,,0,0,2,,,,,0,,,55,48
161820,note_on,,,,,0,0,1,,,,,0,,,74,49
161820,note_on,,,,,0,0,1,,,,,0,,,72,0
161820,note_on,,,,,60,0,1,,,,,0,,,76,0
161820,note_on,,,,,0,0,1,,,,,0,,,78,49
161830,set_tempo,,,,,20,1,0,,358208,,,,,,,
161874,note_on,,,,,0,0,2,,,,,0,,,60,0
161874,note_on,,,,,54,0,2,,,,,0,,,55,0
161880,note_on,,,,,60,0,1,,,,,0,,,78,0
161880,note_on,,,,,0,0,1,,,,,0,,,74,0
161880,note_on,,,,,0,0,1,,,,,0,,,76,49
161880,note_on,,,,,0,0,1,,,,,0,,,79,49
161880,set_tempo,,,,,50,1,0,,353982,,,,,,,
161880,note_on,,,,,0,0,2,,,,,0,,,55,44
161880,note_on,,,,,6,0,2,,,,,0,,,60,44
161934,note_on,,,,,54,0,2,,,,,0,,,55,0
161934,note_on,,,,,0,0,2,,,,,0,,,60,0
161940,note_on,,,,,6,0,2,,,,,0,,,60,41
161940,note_on,,,,,60,0,1,,,,,0,,,79,0
161940,note_on,,,,,0,0,1,,,,,0,,,76,0
161940,note_on,,,,,0,0,1,,,,,0,,,78,51
161940,note_on,,,,,0,0,1,,,,,0,,,81,51
161940,note_on,,,,,0,0,2,,,,,0,,,55,41
161950,set_tempo,,,,,70,1,0,,350877,,,,,,,
161994,note_on,,,,,54,0,2,,,,,0,,,55,0
161994,note_on,,,,,0,0,2,,,,,0,,,60,0
162000,note_on,,,,,60,0,1,,,,,0,,,81,0
162000,note_on,,,,,0,0,1,,,,,0,,,78,0
162000,note_on,,,,,0,0,1,,,,,0,,,79,54
162000,note_on,,,,,0,0,1,,,,,0,,,83,54
162000,note_on,,,,,0,0,2,,,,,0,,,52,38
162000,note_on,,,,,6,0,2,,,,,0,,,60,38
162060,note_on,,,,,60,0,1,,,,,0,,,83,0
162060,note_on,,,,,0,0,1,,,,,0,,,79,0
162060,note_on,,,,,0,0,1,,,,,0,,,84,57
162060,note_on,,,,,0,0,1,,,,,0,,,81,57
162090,note_on,,,,,90,0,2,,,,,0,,,52,0
162090,note_on,,,,,0,0,2,,,,,0,,,60,0
162110,set_tempo,,,,,160,1,0,,355029,,,,,,,
162120,note_on,,,,,60,0,1,,,,,0,,,81,0
162120,note_on,,,,,30,0,2,,,,,0,,,48,39
162120,note_on,,,,,0,0,1,,,,,0,,,86,58
162120,note_on,,,,,0,0,1,,,,,0,,,83,58
162120,control_change,,,,,0,0,1,,,,,0,64,0,,
162120,note_on,,,,,0,0,1,,,,,0,,,84,0
162150,set_tempo,,,,,40,1,0,,356083,,,,,,,
162170,set_tempo,,,,,20,1,0,,360360,,,,,,,
162180,note_on,,,,,0,0,1,,,,,0,,,88,61
162180,note_on,,,,,0,0,1,,,,,0,,,86,0
162180,note_on,,,,,0,0,1,,,,,0,,,84,61
162180,note_on,,,,,60,0,1,,,,,0,,,83,0
162210,note_on,,,,,90,0,2,,,,,0,,,48,0
162240,note_on,,,,,30,0,2,,,,,0,,,55,55
162240,note_on,,,,,0,0,1,,,,,0,,,86,61
162240,note_on,,,,,0,0,1,,,,,0,,,83,61
162240,note_on,,,,,0,0,1,,,,,0,,,88,0
162240,note_on,,,,,60,0,1,,,,,0,,,84,0
162240,set_tempo,,,,,70,1,0,,425531,,,,,,,
162240,control_change,,,,,0,0,1,,,,,0,64,96,,
162250,set_tempo,,,,,10,1,0,,425531,,,,,,,
162299,note_on,,,,,59,0,2,,,,,0,,,55,0
162300,note_on,,,,,1,0,2,,,,,0,,,55,54
162340,set_tempo,,,,,90,1,0,,375000,,,,,,,
162354,note_on,,,,,54,0,2,,,,,0,,,55,0
162360,note_on,,,,,6,0,2,,,,,0,,,55,48
162414,note_on,,,,,54,0,2,,,,,0,,,55,0
162420,note_on,,,,,6,0,2,,,,,0,,,55,45
162474,note_on,,,,,54,0,2,,,,,0,,,55,0
162480,note_on,,,,,6,0,2,,,,,0,,,55,40
162570,note_on,,,,,90,0,2,,,,,0,,,55,0
162570,note_on,,,,,330,0,1,,,,,0,,,86,0
162570,note_on,,,,,0,0,1,,,,,0,,,83,0
162600,note_on,,,,,30,0,1,,,,,0,,,69,42
162600,control_change,,,,,0,0,1,,,,,0,64,0,,
162660,note_on,,,,,60,0,1,,,,,0,,,69,0
162660,note_on,,,,,0,0,1,,,,,0,,,71,42
162690,set_tempo,,,,,350,1,0,,372670,,,,,,,
162700,set_tempo,,,,,10,1,0,,368098,,,,,,,
162720,note_on,,,,,0,0,2,,,,,0,,,54,44
162720,control_change,,,,,0,0,1,,,,,0,64,95,,
162720,note_on,,,,,0,0,1,,,,,0,,,72,48
162720,note_on,,,,,150,0,2,,,,,0,,,50,44
162720,note_on,,,,,0,0,1,,,,,0,,,69,48
162720,note_on,,,,,60,0,1,,,,,0,,,71,0
162779,note_on,,,,,0,0,2,,,,,0,,,50,0
162779,note_on,,,,,59,0,2,,,,,0,,,54,0
162780,note_on,,,,,0,0,1,,,,,0,,,74,52
162780,note_on,,,,,0,0,1,,,,,0,,,71,52
162780,note_on,,,,,0,0,1,,,,,0,,,69,0
162780,note_on,,,,,60,0,1,,,,,0,,,72,0
162780,note_on,,,,,0,0,2,,,,,0,,,54,41
162780,note_on,,,,,1,0,2,,,,,0,,,50,41
162800,set_tempo,,,,,100,1,0,,363636,,,,,,,
162834,note_on,,,,,54,0,2,,,,,0,,,54,0
162834,note_on,,,,,0,0,2,,,,,0,,,50,0
162840,note_on,,,,,6,0,2,,,,,0,,,50,39
162840,note_on,,,,,0,0,2,,,,,0,,,54,39
162840,note_on,,,,,60,0,1,,,,,0,,,74,0
162840,note_on,,,,,0,0,1,,,,,0,,,71,0
162840,note_on,,,,,0,0,1,,,,,0,,,76,52
162840,note_on,,,,,0,0,1,,,,,0,,,72,52
162850,set_tempo,,,,,50,1,0,,357142,,,,,,,
162894,note_on,,,,,0,0,2,,,,,0,,,50,0
162894,note_on,,,,,54,0,2,,,,,0,,,54,0
162900,note_on,,,,,0,0,2,,,,,0,,,54,36
162900,note_on,,,,,0,0,1,,,,,0,,,72,0
162900,note_on,,,,,0,0,1,,,,,0,,,74,55
162900,note_on,,,,,0,0,1,,,,,0,,,78,55
162900,note_on,,,,,6,0,2,,,,,0,,,50,36
162900,note_on,,,,,60,0,1,,,,,0,,,76,0
162920,set_tempo,,,,,70,1,0,,351906,,,,,,,
162954,note_on,,,,,0,0,2,,,,,0,,,50,0
162954,note_on,,,,,54,0,2,,,,,0,,,54,0
162960,note_on,,,,,0,0,1,,,,,0,,,76,57
162960,note_on,,,,,0,0,1,,,,,0,,,72,57
162960,note_on,,,,,0,0,1,,,,,0,,,74,0
162960,note_on,,,,,60,0,1,,,,,0,,,78,0
162960,note_on,,,,,6,0,2,,,,,0,,,50,34
162960,note_on,,,,,0,0,2,,,,,0,,,54,34
163020,note_on,,,,,0,0,1,,,,,0,,,81,54
163020,note_on,,,,,0,0,1,,,,,0,,,72,0
163020,note_on,,,,,60,0,1,,,,,0,,,76,0
163040,set_tempo,,,,,120,1,0,,362537,,,,,,,
163050,note_on,,,,,90,0,2,,,,,0,,,54,0
163050,note_on,,,,,0,0,2,,,,,0,,,50,0
163080,note_on,,,,,30,0,2,,,,,0,,,38,38
163080,note_on,,,,,0,0,1,,,,,0,,,76,52
163080,note_on,,,,,60,0,1,,,,,0,,,81,0
163080,note_on,,,,,0,0,1,,,,,0,,,79,52
163080,control_change,,,,,0,0,1,,,,,0,64,0,,
163090,set_tempo,,,,,50,1,0,,366972,,,,,,,
163140,note_on,,,,,60,0,1,,,,,0,,,76,0
163140,note_on,,,,,0,0,1,,,,,0,,,79,0
163140,set_tempo,,,,,50,1,0,,368098,,,,,,,
163140,note_on,,,,,0,0,1,,,,,0,,,72,51
163170,note_on,,,,,90,0,2,,,,,0,,,38,0
163180,set_tempo,,,,,40,1,0,,365853,,,,,,,
163200,set_tempo,,,,,20,1,0,,425531,,,,,,,
163200,note_on,,,,,0,0,1,,,,,0,,,74,46
163200,note_on,,,,,0,0,1,,,,,0,,,71,46
163200,note_on,,,,,60,0,1,,,,,0,,,72,0
163200,note_on,,,,,0,0,2,,,,,0,,,55,33
163200,control_change,,,,,0,0,1,,,,,0,64,96,,
163200,note_on,,,,,30,0,2,,,,,0,,,50,33
163259,note_on,,,,,59,0,2,,,,,0,,,55,0
163259,note_on,,,,,0,0,2,,,,,0,,,50,0
163260,note_on,,,,,1,0,2,,,,,0,,,50,31
163260,note_on,,,,,0,0,2,,,,,0,,,55,31
163280,set_tempo,,,,,80,1,0,,377358,,,,,,,
163314,note_on,,,,,0,0,2,,,,,0,,,50,0
163314,note_on,,,,,54,0,2,,,,,0,,,55,0
163320,note_on,,,,,0,0,2,,,,,0,,,55,30
163320,note_on,,,,,6,0,2,,,,,0,,,50,30
163374,note_on,,,,,0,0,2,,,,,0,,,50,0
163374,note_on,,,,,54,0,2,,,,,0,,,55,0
163380,note_on,,,,,0,0,2,,,,,0,,,55,30
163380,note_on,,,,,6,0,2,,,,,0,,,50,30
163434,note_on,,,,,0,0,2,,,,,0,,,50,0
163434,note_on,,,,,54,0,2,,,,,0,,,55,0
163440,note_on,,,,,6,0,2,,,,,0,,,50,29
163440,note_on,,,,,0,0,2,,,,,0,,,55,29
163530,note_on,,,,,330,0,1,,,,,0,,,71,0
163530,note_on,,,,,0,0,1,,,,,0,,,74,0
163530,note_on,,,,,90,0,2,,,,,0,,,55,0
163530,note_on,,,,,0,0,2,,,,,0,,,50,0
163555,control_change,,,,,25,0,1,,,,,0,64,0,,
163560,note_on,,,,,5,0,1,,,,,0,,,81,51
163560,note_on,,,,,0,0,1,,,,,0,,,84,51
163560,control_change,,,,,0,0,1,,,,,0,64,95,,
163560,note_on,,,,,30,0,2,,,,,0,,,38,35
163570,set_tempo,,,,,290,1,0,,372670,,,,,,,
163580,set_tempo,,,,,10,1,0,,369230,,,,,,,
163590,set_tempo,,,,,10,1,0,,368098,,,,,,,
163610,set_tempo,,,,,20,1,0,,363636,,,,,,,
163620,note_on,,,,,0,0,1,,,,,0,,,79,52
163620,set_tempo,,,,,10,1,0,,362537,,,,,,,
163620,note_on,,,,,60,0,1,,,,,0,,,84,0
163620,note_on,,,,,0,0,1,,,,,0,,,83,52
163620,note_on,,,,,0,0,1,,,,,0,,,81,0
163630,set_tempo,,,,,10,1,0,,361445,,,,,,,
163650,note_on,,,,,90,0,2,,,,,0,,,38,0
163660,set_tempo,,,,,30,1,0,,351906,,,,,,,
163680,note_on,,,,,30,0,2,,,,,0,,,60,38
163680,note_on,,,,,0,0,1,,,,,0,,,79,0
163680,note_on,,,,,0,0,1,,,,,0,,,78,56
163680,note_on,,,,,0,0,1,,,,,0,,,81,56
163680,note_on,,,,,60,0,1,,,,,0,,,83,0
163680,note_on,,,,,0,0,2,,,,,0,,,50,38
163740,note_on,,,,,60,0,1,,,,,0,,,81,0
163740,note_on,,,,,0,0,1,,,,,0,,,78,0
163770,set_tempo,,,,,110,1,0,,349854,,,,,,,
163770,note_on,,,,,90,0,2,,,,,0,,,50,0
163770,note_on,,,,,0,0,2,,,,,0,,,60,0
163795,control_change,,,,,55,0,1,,,,,0,64,0,,
163800,note_on,,,,,30,0,2,,,,,0,,,38,43
163800,control_change,,,,,0,0,1,,,,,0,64,95,,
163800,note_on,,,,,0,0,1,,,,,0,,,76,53
163800,note_on,,,,,5,0,1,,,,,0,,,72,53
163820,set_tempo,,,,,50,1,0,,343839,,,,,,,
163860,note_on,,,,,0,0,1,,,,,0,,,72,0
163860,note_on,,,,,0,0,1,,,,,0,,,71,56
163860,note_on,,,,,0,0,1,,,,,0,,,74,56
163860,note_on,,,,,60,0,1,,,,,0,,,76,0
163890,note_on,,,,,90,0,2,,,,,0,,,38,0
163920,note_on,,,,,60,0,1,,,,,0,,,74,0
163920,note_on,,,,,0,0,1,,,,,0,,,69,59
163920,note_on,,,,,0,0,1,,,,,0,,,72,59
163920,note_on,,,,,30,0,2,,,,,0,,,50,49
163920,note_on,,,,,0,0,2,,,,,0,,,54,49
163920,note_on,,,,,0,0,1,,,,,0,,,71,0
163950,set_tempo,,,,,130,1,0,,349854,,,,,,,
163980,note_on,,,,,0,0,1,,,,,0,,,69,0
163980,note_on,,,,,60,0,1,,,,,0,,,72,0
164010,set_tempo,,,,,60,1,0,,355029,,,,,,,
164010,note_on,,,,,0,0,2,,,,,0,,,50,0
164010,note_on,,,,,90,0,2,,,,,0,,,54,0
164035,control_change,,,,,55,0,1,,,,,0,64,0,,
164040,note_on,,,,,30,0,2,,,,,0,,,38,52
164040,note_on,,,,,0,0,1,,,,,0,,,79,61
164040,control_change,,,,,0,0,1,,,,,0,64,95,,
164040,note_on,,,,,5,0,1,,,,,0,,,71,61
164050,set_tempo,,,,,40,1,0,,356083,,,,,,,
164060,set_tempo,,,,,10,1,0,,362537,,,,,,,
164100,note_on,,,,,60,0,1,,,,,0,,,79,0
164100,note_on,,,,,0,0,1,,,,,0,,,71,0
164100,note_on,,,,,0,0,1,,,,,0,,,74,65
164100,note_on,,,,,0,0,1,,,,,0,,,81,65
164110,set_tempo,,,,,50,1,0,,366972,,,,,,,
164130,note_on,,,,,90,0,2,,,,,0,,,38,0
164160,note_on,,,,,0,0,1,,,,,0,,,79,70
164160,note_on,,,,,0,0,1,,,,,0,,,74,0
164160,note_on,,,,,60,0,1,,,,,0,,,81,0
164160,note_on,,,,,30,0,2,,,,,0,,,50,56
164160,note_on,,,,,0,0,1,,,,,0,,,83,70
164160,note_on,,,,,0,0,2,,,,,0,,,55,56
164160,set_tempo,,,,,50,1,0,,377358,,,,,,,
164220,note_on,,,,,60,0,1,,,,,0,,,83,0
164220,note_on,,,,,0,0,1,,,,,0,,,79,0
164220,set_tempo,,,,,60,1,0,,383386,,,,,,,
164250,note_on,,,,,90,0,2,,,,,0,,,55,0
164250,note_on,,,,,0,0,2,,,,,0,,,50,0
164275,control_change,,,,,55,0,1,,,,,0,64,0,,
164280,note_on,,,,,5,0,1,,,,,0,,,71,61
164280,note_on,,,,,0,0,1,,,,,0,,,74,61
164280,control_change,,,,,0,0,1,,,,,0,64,95,,
164280,set_tempo,,,,,60,1,0,,398671,,,,,,,
164280,note_on,,,,,30,0,2,,,,,0,,,38,41
164340,note_on,,,,,60,0,1,,,,,0,,,74,0
164340,note_on,,,,,0,0,1,,,,,0,,,69,53
164340,note_on,,,,,0,0,1,,,,,0,,,72,53
164340,note_on,,,,,0,0,1,,,,,0,,,71,0
164350,set_tempo,,,,,70,1,0,,402684,,,,,,,
164370,note_on,,,,,90,0,2,,,,,0,,,38,0
164400,note_on,,,,,60,0,1,,,,,0,,,72,0
164400,note_on,,,,,0,0,1,,,,,0,,,69,0
164400,note_on,,,,,0,0,1,,,,,0,,,67,45
164400,note_on,,,,,0,0,1,,,,,0,,,71,45
164410,set_tempo,,,,,60,1,0,,406779,,,,,,,
164460,note_on,,,,,60,0,1,,,,,0,,,71,0
164460,note_on,,,,,0,0,1,,,,,0,,,67,0
164515,control_change,,,,,55,0,1,,,,,0,64,0,,
164520,note_on,,,,,150,0,2,,,,,0,,,59,38
164520,set_tempo,,,,,110,1,0,,346820,,,,,,,
164520,note_on,,,,,5,0,1,,,,,0,,,62,42
164520,control_change,,,,,0,0,1,,,,,0,64,96,,
164520,note_on,,,,,0,0,2,,,,,0,,,50,38
164530,set_tempo,,,,,10,1,0,,342857,,,,,,,
164580,note_on,,,,,60,0,1,,,,,0,,,62,0
164580,note_on,,,,,0,0,1,,,,,0,,,67,43
164580,set_tempo,,,,,50,1,0,,346820,,,,,,,
164610,note_on,,,,,90,0,2,,,,,0,,,50,0
164610,note_on,,,,,0,0,2,,,,,0,,,59,0
164620,set_tempo,,,,,40,1,0,,349854,,,,,,,
164640,note_on,,,,,30,0,2,,,,,0,,,60,42
164640,note_on,,,,,0,0,2,,,,,0,,,50,42
164640,note_on,,,,,60,0,1,,,,,0,,,67,0
164640,note_on,,,,,0,0,1,,,,,0,,,64,46
164640,set_tempo,,,,,20,1,0,,352941,,,,,,,
164660,set_tempo,,,,,20,1,0,,353982,,,,,,,
164700,note_on,,,,,0,0,1,,,,,0,,,69,47
164700,note_on,,,,,60,0,1,,,,,0,,,64,0
164730,set_tempo,,,,,70,1,0,,357142,,,,,,,
164730,note_on,,,,,90,0,2,,,,,0,,,50,0
164730,note_on,,,,,0,0,2,,,,,0,,,60,0
164760,note_on,,,,,30,0,2,,,,,0,,,59,47
164760,note_on,,,,,0,0,1,,,,,0,,,62,48
164760,note_on,,,,,60,0,1,,,,,0,,,69,0
164760,note_on,,,,,0,0,2,,,,,0,,,50,47
164810,set_tempo,,,,,80,1,0,,361445,,,,,,,
164820,note_on,,,,,0,0,1,,,,,0,,,67,51
164820,note_on,,,,,60,0,1,,,,,0,,,62,0
164850,note_on,,,,,0,0,2,,,,,0,,,59,0
164850,note_on,,,,,90,0,2,,,,,0,,,50,0
164860,set_tempo,,,,,50,1,0,,363636,,,,,,,
164880,note_on,,,,,0,0,1,,,,,0,,,64,52
164880,note_on,,,,,0,0,2,,,,,0,,,50,49
164880,note_on,,,,,30,0,2,,,,,0,,,60,49
164880,note_on,,,,,60,0,1,,,,,0,,,67,0
164910,set_tempo,,,,,50,1,0,,369230,,,,,,,
164940,note_on,,,,,0,0,1,,,,,0,,,69,54
164940,note_on,,,,,60,0,1,,,,,0,,,64,0
164950,set_tempo,,,,,40,1,0,,372670,,,,,,,
164970,note_on,,,,,90,0,2,,,,,0,,,50,0
164970,note_on,,,,,0,0,2,,,,,0,,,60,0
164990,set_tempo,,,,,40,1,0,,376175,,,,,,,
165000,note_on,,,,,0,0,2,,,,,0,,,50,50
165000,note_on,,,,,60,0,1,,,,,0,,,69,0
165000,note_on,,,,,0,0,1,,,,,0,,,66,55
165000,note_on,,,,,30,0,2,,,,,0,,,62,50
165030,set_tempo,,,,,40,1,0,,380952,,,,,,,
165060,note_on,,,,,60,0,1,,,,,0,,,66,0
165060,note_on,,,,,0,0,1,,,,,0,,,72,57
165080,set_tempo,,,,,50,1,0,,384615,,,,,,,
165090,note_on,,,,,90,0,2,,,,,0,,,50,0
165090,note_on,,,,,0,0,2,,,,,0,,,62,0
165110,set_tempo,,,,,30,1,0,,387096,,,,,,,
165115,control_change,,,,,55,0,1,,,,,0,64,0,,
165120,note_on,,,,,0,0,1,,,,,0,,,71,60
165120,note_on,,,,,0,0,1,,,,,0,,,67,60
165120,control_change,,,,,0,0,1,,,,,0,64,94,,
165120,note_on,,,,,30,0,2,,,,,0,,,62,51
165120,note_on,,,,,0,0,2,,,,,0,,,55,51
165120,set_tempo,,,,,10,1,0,,431654,,,,,,,
165120,note_on,,,,,5,0,1,,,,,0,,,72,0
165179,note_on,,,,,0,0,2,,,,,0,,,62,0
165179,note_on,,,,,59,0,2,,,,,0,,,55,0
165180,note_on,,,,,0,0,2,,,,,0,,,55,48
165180,note_on,,,,,1,0,2,,,,,0,,,62,48
165210,set_tempo,,,,,90,1,0,,372670,,,,,,,
165234,note_on,,,,,54,0,2,,,,,0,,,55,0
165234,note_on,,,,,0,0,2,,,,,0,,,62,0
165240,note_on,,,,,0,0,2,,,,,0,,,55,45
165240,note_on,,,,,6,0,2,,,,,0,,,62,45
165294,note_on,,,,,0,0,2,,,,,0,,,62,0
165294,note_on,,,,,54,0,2,,,,,0,,,55,0
165300,note_on,,,,,0,0,2,,,,,0,,,55,42
165300,note_on,,,,,6,0,2,,,,,0,,,62,42
165354,note_on,,,,,54,0,2,,,,,0,,,55,0
165354,note_on,,,,,0,0,2,,,,,0,,,62,0
165360,note_on,,,,,0,0,2,,,,,0,,,55,40
165360,note_on,,,,,6,0,2,,,,,0,,,62,40
165410,set_tempo,,,,,200,1,0,,370370,,,,,,,
165450,note_on,,,,,90,0,2,,,,,0,,,55,0
165450,note_on,,,,,0,0,2,,,,,0,,,62,0
165470,set_tempo,,,,,60,1,0,,368098,,,,,,,
165480,control_change,,,,,0,0,1,,,,,0,64,0,,
165480,note_on,,,,,30,0,2,,,,,0,,,43,40
165480,note_on,,,,,360,0,1,,,,,0,,,71,0
165480,note_on,,,,,0,0,1,,,,,0,,,67,0
165480,note_on,,,,,0,0,1,,,,,0,,,69,42
165480,note_on,,,,,0,0,1,,,,,0,,,72,42
165490,set_tempo,,,,,20,1,0,,365853,,,,,,,
165540,note_on,,,,,60,0,1,,,,,0,,,72,0
165540,note_on,,,,,0,0,1,,,,,0,,,71,44
165540,note_on,,,,,0,0,1,,,,,0,,,74,44
165540,note_on,,,,,0,0,1,,,,,0,,,69,0
165550,set_tempo,,,,,60,1,0,,363636,,,,,,,
165570,note_on,,,,,90,0,2,,,,,0,,,43,0
165580,set_tempo,,,,,30,1,0,,361445,,,,,,,
165600,set_tempo,,,,,20,1,0,,389610,,,,,,,
165600,control_change,,,,,0,0,1,,,,,0,64,95,,
165600,note_on,,,,,0,0,1,,,,,0,,,76,46
165600,note_on,,,,,0,0,1,,,,,0,,,72,46
165600,note_on,,,,,0,0,1,,,,,0,,,71,0
165600,note_on,,,,,60,0,1,,,,,0,,,74,0
165600,note_on,,,,,30,0,2,,,,,0,,,60,51
165600,note_on,,,,,0,0,2,,,,,0,,,55,51
165650,set_tempo,,,,,50,1,0,,359281,,,,,,,
165659,note_on,,,,,59,0,2,,,,,0,,,55,0
165659,note_on,,,,,0,0,2,,,,,0,,,60,0
165660,note_on,,,,,1,0,2,,,,,0,,,60,48
165660,note_on,,,,,0,0,1,,,,,0,,,72,0
165660,note_on,,,,,0,0,1,,,,,0,,,74,49
165660,note_on,,,,,60,0,1,,,,,0,,,76,0
165660,note_on,,,,,0,0,2,,,,,0,,,55,48
165660,note_on,,,,,0,0,1,,,,,0,,,78,49
165714,note_on,,,,,54,0,2,,,,,0,,,55,0
165714,note_on,,,,,0,0,2,,,,,0,,,60,0
165720,note_on,,,,,0,0,2,,,,,0,,,55,44
165720,note_on,,,,,6,0,2,,,,,0,,,60,44
165720,note_on,,,,,60,0,1,,,,,0,,,78,0
165720,set_tempo,,,,,70,1,0,,357142,,,,,,,
165720,note_on,,,,,0,0,1,,,,,0,,,74,0
165720,note_on,,,,,0,0,1,,,,,0,,,79,49
165720,note_on,,,,,0,0,1,,,,,0,,,76,49
165774,note_on,,,,,54,0,2,,,,,0,,,55,0
165774,note_on,,,,,0,0,2,,,,,0,,,60,0
165780,note_on,,,,,0,0,1,,,,,0,,,81,51
165780,note_on,,,,,0,0,1,,,,,0,,,78,51
165780,note_on,,,,,0,0,1,,,,,0,,,76,0
165780,note_on,,,,,0,0,2,,,,,0,,,55,41
165780,note_on,,,,,60,0,1,,,,,0,,,79,0
165780,note_on,,,,,6,0,2,,,,,0,,,60,41
165834,note_on,,,,,0,0,2,,,,,0,,,60,0
165834,note_on,,,,,54,0,2,,,,,0,,,55,0
165840,note_on,,,,,0,0,2,,,,,0,,,52,38
165840,note_on,,,,,0,0,1,,,,,0,,,83,54
165840,note_on,,,,,60,0,1,,,,,0,,,81,0
165840,note_on,,,,,0,0,1,,,,,0,,,78,0
165840,note_on,,,,,0,0,1,,,,,0,,,79,54
165840,note_on,,,,,6,0,2,,,,,0,,,60,38
165870,set_tempo,,,,,150,1,0,,355029,,,,,,,
165900,note_on,,,,,60,0,1,,,,,0,,,83,0
165900,note_on,,,,,0,0,1,,,,,0,,,84,57
165900,note_on,,,,,0,0,1,,,,,0,,,79,0
165900,note_on,,,,,0,0,1,,,,,0,,,81,57
165910,set_tempo,,,,,40,1,0,,352941,,,,,,,
165930,note_on,,,,,90,0,2,,,,,0,,,52,0
165930,note_on,,,,,0,0,2,,,,,0,,,60,0
165940,set_tempo,,,,,30,1,0,,350877,,,,,,,
165960,note_on,,,,,30,0,2,,,,,0,,,48,39
165960,note_on,,,,,0,0,1,,,,,0,,,84,0
165960,note_on,,,,,0,0,1,,,,,0,,,86,58
165960,note_on,,,,,0,0,1,,,,,0,,,83,58
165960,control_change,,,,,0,0,1,,,,,0,64,0,,
165960,note_on,,,,,60,0,1,,,,,0,,,81,0
166000,set_tempo,,,,,60,1,0,,348837,,,,,,,
166020,note_on,,,,,0,0,1,,,,,0,,,88,61
166020,note_on,,,,,0,0,1,,,,,0,,,84,61
166020,note_on,,,,,60,0,1,,,,,0,,,83,0
166020,note_on,,,,,0,0,1,,,,,0,,,86,0
166050,note_on,,,,,90,0,2,,,,,0,,,48,0
166080,note_on,,,,,60,0,1,,,,,0,,,84,0
166080,note_on,,,,,0,0,1,,,,,0,,,88,0
166080,note_on,,,,,0,0,1,,,,,0,,,83,61
166080,set_tempo,,,,,80,1,0,,425531,,,,,,,
166080,control_change,,,,,0,0,1,,,,,0,64,96,,
166080,note_on,,,,,30,0,2,,,,,0,,,55,55
166080,note_on,,,,,0,0,1,,,,,0,,,86,61
166090,set_tempo,,,,,10,1,0,,425531,,,,,,,
166139,note_on,,,,,59,0,2,,,,,0,,,55,0
166140,note_on,,,,,1,0,2,,,,,0,,,55,54
166180,set_tempo,,,,,90,1,0,,375000,,,,,,,
166194,note_on,,,,,54,0,2,,,,,0,,,55,0
166200,note_on,,,,,6,0,2,,,,,0,,,55,48
166254,note_on,,,,,54,0,2,,,,,0,,,55,0
166260,note_on,,,,,6,0,2,,,,,0,,,55,45
166314,note_on,,,,,54,0,2,,,,,0,,,55,0
166320,note_on,,,,,6,0,2,,,,,0,,,55,40
166410,note_on,,,,,0,0,1,,,,,0,,,83,0
166410,note_on,,,,,330,0,1,,,,,0,,,86,0
166410,note_on,,,,,90,0,2,,,,,0,,,55,0
166440,note_on,,,,,30,0,1,,,,,0,,,74,42
166440,control_change,,,,,0,0,1,,,,,0,64,0,,
166500,note_on,,,,,0,0,1,,,,,0,,,76,42
166500,note_on,,,,,60,0,1,,,,,0,,,74,0
166530,set_tempo,,,,,350,1,0,,372670,,,,,,,
166540,set_tempo,,,,,10,1,0,,370370,,,,,,,
166560,note_on,,,,,0,0,2,,,,,0,,,59,44
166560,note_on,,,,,150,0,2,,,,,0,,,55,44
166560,note_on,,,,,60,0,1,,,,,0,,,76,0
166560,note_on,,,,,0,0,1,,,,,0,,,74,48
166560,note_on,,,,,0,0,1,,,,,0,,,77,48
166560,control_change,,,,,0,0,1,,,,,0,64,95,,
166600,set_tempo,,,,,60,1,0,,366972,,,,,,,
166619,note_on,,,,,59,0,2,,,,,0,,,59,0
166619,note_on,,,,,0,0,2,,,,,0,,,55,0
166620,note_on,,,,,0,0,1,,,,,0,,,74,0
166620,note_on,,,,,1,0,2,,,,,0,,,55,41
166620,note_on,,,,,60,0,1,,,,,0,,,77,0
166620,note_on,,,,,0,0,1,,,,,0,,,76,52
166620,note_on,,,,,0,0,2,,,,,0,,,59,41
166620,note_on,,,,,0,0,1,,,,,0,,,79,52
166660,set_tempo,,,,,60,1,0,,362537,,,,,,,
166674,note_on,,,,,54,0,2,,,,,0,,,59,0
166674,note_on,,,,,0,0,2,,,,,0,,,55,0
166680,note_on,,,,,60,0,1,,,,,0,,,79,0
166680,note_on,,,,,0,0,1,,,,,0,,,76,0
166680,note_on,,,,,0,0,2,,,,,0,,,59,39
166680,note_on,,,,,0,0,1,,,,,0,,,81,52
166680,note_on,,,,,0,0,1,,,,,0,,,77,52
166680,note_on,,,,,6,0,2,,,,,0,,,55,39
166720,set_tempo,,,,,60,1,0,,358208,,,,,,,
166734,note_on,,,,,0,0,2,,,,,0,,,55,0
166734,note_on,,,,,54,0,2,,,,,0,,,59,0
166740,note_on,,,,,0,0,1,,,,,0,,,83,55
166740,note_on,,,,,6,0,2,,,,,0,,,55,36
166740,note_on,,,,,0,0,2,,,,,0,,,59,36
166740,note_on,,,,,0,0,1,,,,,0,,,77,0
166740,note_on,,,,,0,0,1,,,,,0,,,79,55
166740,note_on,,,,,60,0,1,,,,,0,,,81,0
166780,set_tempo,,,,,60,1,0,,353982,,,,,,,
166794,note_on,,,,,54,0,2,,,,,0,,,59,0
166794,note_on,,,,,0,0,2,,,,,0,,,55,0
166800,note_on,,,,,6,0,2,,,,,0,,,55,34
166800,note_on,,,,,0,0,2,,,,,0,,,59,34
166800,note_on,,,,,0,0,1,,,,,0,,,81,57
166800,note_on,,,,,0,0,1,,,,,0,,,77,57
166800,note_on,,,,,0,0,1,,,,,0,,,79,0
166800,note_on,,,,,60,0,1,,,,,0,,,83,0
166830,set_tempo,,,,,50,1,0,,348837,,,,,,,
166860,note_on,,,,,60,0,1,,,,,0,,,81,0
166860,note_on,,,,,0,0,1,,,,,0,,,77,0
166860,note_on,,,,,0,0,1,,,,,0,,,86,54
166890,note_on,,,,,0,0,2,,,,,0,,,55,0
166890,note_on,,,,,90,0,2,,,,,0,,,59,0
166900,set_tempo,,,,,70,1,0,,352941,,,,,,,
166920,note_on,,,,,60,0,1,,,,,0,,,86,0
166920,note_on,,,,,0,0,1,,,,,0,,,84,52
166920,note_on,,,,,0,0,1,,,,,0,,,81,52
166920,control_change,,,,,0,0,1,,,,,0,64,0,,
166920,note_on,,,,,30,0,2,,,,,0,,,43,38
166940,set_tempo,,,,,40,1,0,,360360,,,,,,,
166970,set_tempo,,,,,30,1,0,,361445,,,,,,,
166980,note_on,,,,,0,0,1,,,,,0,,,77,51
166980,note_on,,,,,0,0,1,,,,,0,,,84,0
166980,note_on,,,,,60,0,1,,,,,0,,,81,0
166980,set_tempo,,,,,10,1,0,,372670,,,,,,,
167010,note_on,,,,,90,0,2,,,,,0,,,43,0
167010,set_tempo,,,,,30,1,0,,365853,,,,,,,
167040,note_on,,,,,0,0,1,,,,,0,,,76,46
167040,control_change,,,,,0,0,1,,,,,0,64,96,,
167040,note_on,,,,,60,0,1,,,,,0,,,77,0
167040,set_tempo,,,,,30,1,0,,425531,,,,,,,
167040,note_on,,,,,30,0,2,,,,,0,,,55,33
167040,note_on,,,,,0,0,2,,,,,0,,,60,33
167040,note_on,,,,,0,0,1,,,,,0,,,79,46
167099,note_on,,,,,59,0,2,,,,,0,,,60,0
167099,note_on,,,,,0,0,2,,,,,0,,,55,0
167100,note_on,,,,,1,0,2,,,,,0,,,55,31
167100,note_on,,,,,0,0,2,,,,,0,,,60,31
167120,set_tempo,,,,,80,1,0,,377358,,,,,,,
167154,note_on,,,,,54,0,2,,,,,0,,,60,0
167154,note_on,,,,,0,0,2,,,,,0,,,55,0
167160,note_on,,,,,6,0,2,,,,,0,,,55,30
167160,note_on,,,,,0,0,2,,,,,0,,,60,30
167214,note_on,,,,,54,0,2,,,,,0,,,60,0
167214,note_on,,,,,0,0,2,,,,,0,,,55,0
167220,note_on,,,,,0,0,2,,,,,0,,,60,30
167220,note_on,,,,,6,0,2,,,,,0,,,55,30
167274,note_on,,,,,54,0,2,,,,,0,,,60,0
167274,note_on,,,,,0,0,2,,,,,0,,,55,0
167280,note_on,,,,,0,0,2,,,,,0,,,60,29
167280,note_on,,,,,6,0,2,,,,,0,,,55,29
167370,note_on,,,,,330,0,1,,,,,0,,,76,0
167370,note_on,,,,,0,0,1,,,,,0,,,79,0
167370,note_on,,,,,90,0,2,,,,,0,,,60,0
167370,note_on,,,,,0,0,2,,,,,0,,,55,0
167395,control_change,,,,,25,0,1,,,,,0,64,0,,
167400,note_on,,,,,30,0,2,,,,,0,,,43,35
167400,set_tempo,,,,,280,1,0,,371517,,,,,,,
167400,note_on,,,,,5,0,1,,,,,0,,,86,51
167400,note_on,,,,,0,0,1,,,,,0,,,89,51
167400,control_change,,,,,0,0,1,,,,,0,64,95,,
167440,set_tempo,,,,,40,1,0,,364741,,,,,,,
167460,note_on,,,,,0,0,1,,,,,0,,,88,52
167460,note_on,,,,,60,0,1,,,,,0,,,89,0
167460,note_on,,,,,0,0,1,,,,,0,,,86,0
167460,note_on,,,,,0,0,1,,,,,0,,,84,52
167490,note_on,,,,,90,0,2,,,,,0,,,43,0
167500,set_tempo,,,,,60,1,0,,361445,,,,,,,
167520,note_on,,,,,60,0,1,,,,,0,,,88,0
167520,note_on,,,,,0,0,2,,,,,0,,,55,38
167520,note_on,,,,,30,0,2,,,,,0,,,65,38
167520,note_on,,,,,0,0,1,,,,,0,,,84,0
167520,note_on,,,,,0,0,1,,,,,0,,,83,56
167520,note_on,,,,,0,0,1,,,,,0,,,86,56
167560,set_tempo,,,,,60,1,0,,356083,,,,,,,
167580,note_on,,,,,60,0,1,,,,,0,,,86,0
167580,note_on,,,,,0,0,1,,,,,0,,,83,0
167610,set_tempo,,,,,50,1,0,,348837,,,,,,,
167610,note_on,,,,,0,0,2,,,,,0,,,65,0
167610,note_on,,,,,90,0,2,,,,,0,,,55,0
167635,control_change,,,,,55,0,1,,,,,0,64,0,,
167640,note_on,,,,,30,0,2,,,,,0,,,43,43
167640,note_on,,,,,5,0,1,,,,,0,,,77,53
167640,note_on,,,,,0,0,1,,,,,0,,,81,53
167640,control_change,,,,,0,0,1,,,,,0,64,95,,
167660,set_tempo,,,,,50,1,0,,344827,,,,,,,
167700,note_on,,,,,0,0,1,,,,,0,,,77,0
167700,note_on,,,,,0,0,1,,,,,0,,,76,56
167700,note_on,,,,,60,0,1,,,,,0,,,81,0
167700,note_on,,,,,0,0,1,,,,,0,,,79,56
167730,set_tempo,,,,,70,1,0,,342857,,,,,,,
167730,note_on,,,,,90,0,2,,,,,0,,,43,0
167760,note_on,,,,,60,0,1,,,,,0,,,79,0
167760,note_on,,,,,0,0,1,,,,,0,,,76,0
167760,note_on,,,,,0,0,1,,,,,0,,,74,59
167760,note_on,,,,,0,0,1,,,,,0,,,77,59
167760,note_on,,,,,0,0,2,,,,,0,,,59,49
167760,note_on,,,,,30,0,2,,,,,0,,,55,49
167810,set_tempo,,,,,80,1,0,,346820,,,,,,,
167820,set_tempo,,,,,10,1,0,,347826,,,,,,,
167820,note_on,,,,,0,0,1,,,,,0,,,74,0
167820,note_on,,,,,60,0,1,,,,,0,,,77,0
167850,note_on,,,,,90,0,2,,,,,0,,,59,0
167850,set_tempo,,,,,30,1,0,,359281,,,,,,,
167850,note_on,,,,,0,0,2,,,,,0,,,55,0
167875,control_change,,,,,55,0,1,,,,,0,64,0,,
167880,control_change,,,,,0,0,1,,,,,0,64,95,,
167880,note_on,,,,,0,0,1,,,,,0,,,84,61
167880,note_on,,,,,5,0,1,,,,,0,,,76,61
167880,note_on,,,,,30,0,2,,,,,0,,,43,52
167910,set_tempo,,,,,60,1,0,,362537,,,,,,,
167920,set_tempo,,,,,10,1,0,,363636,,,,,,,
167940,note_on,,,,,60,0,1,,,,,0,,,84,0
167940,note_on,,,,,0,0,1,,,,,0,,,76,0
167940,note_on,,,,,0,0,1,,,,,0,,,79,65
167940,note_on,,,,,0,0,1,,,,,0,,,86,65
167950,set_tempo,,,,,30,1,0,,371517,,,,,,,
167970,note_on,,,,,90,0,2,,,,,0,,,43,0
168000,note_on,,,,,0,0,2,,,,,0,,,60,56
168000,note_on,,,,,30,0,2,,,,,0,,,55,56
168000,note_on,,,,,60,0,1,,,,,0,,,86,0
168000,note_on,,,,,0,0,1,,,,,0,,,79,0
168000,note_on,,,,,0,0,1,,,,,0,,,84,70
168000,set_tempo,,,,,50,1,0,,379746,,,,,,,
168000,note_on,,,,,0,0,1,,,,,0,,,88,70
168010,set_tempo,,,,,10,1,0,,382165,,,,,,,
168060,note_on,,,,,60,0,1,,,,,0,,,88,0
168060,note_on,,,,,0,0,1,,,,,0,,,84,0
168090,set_tempo,,,,,80,1,0,,387096,,,,,,,
168090,note_on,,,,,0,0,2,,,,,0,,,55,0
168090,note_on,,,,,90,0,2,,,,,0,,,60,0
168115,control_change,,,,,55,0,1,,,,,0,64,0,,
168120,note_on,,,,,30,0,2,,,,,0,,,43,41
168120,note_on,,,,,5,0,1,,,,,0,,,76,61
168120,note_on,,,,,0,0,1,,,,,0,,,79,61
168120,control_change,,,,,0,0,1,,,,,0,64,95,,
168140,set_tempo,,,,,50,1,0,,396039,,,,,,,
168150,set_tempo,,,,,10,1,0,,397350,,,,,,,
168160,set_tempo,,,,,10,1,0,,398671,,,,,,,
168180,note_on,,,,,0,0,1,,,,,0,,,74,53
168180,set_tempo,,,,,20,1,0,,404040,,,,,,,
168180,note_on,,,,,0,0,1,,,,,0,,,76,0
168180,note_on,,,,,0,0,1,,,,,0,,,77,53
168180,note_on,,,,,60,0,1,,,,,0,,,79,0
168210,set_tempo,,,,,30,1,0,,408163,,,,,,,
168210,note_on,,,,,90,0,2,,,,,0,,,43,0
168230,set_tempo,,,,,20,1,0,,415224,,,,,,,
168240,note_on,,,,,0,0,1,,,,,0,,,74,0
168240,set_tempo,,,,,10,1,0,,409556,,,,,,,
168240,note_on,,,,,60,0,1,,,,,0,,,77,0
168240,note_on,,,,,0,0,1,,,,,0,,,72,45
168240,note_on,,,,,0,0,1,,,,,0,,,76,45
168260,set_tempo,,,,,20,1,0,,402684,,,,,,,
168290,set_tempo,,,,,30,1,0,,390879,,,,,,,
168300,note_on,,,,,60,0,1,,,,,0,,,76,0
168300,note_on,,,,,0,0,1,,,,,0,,,72,0
168355,control_change,,,,,55,0,1,,,,,0,64,0,,
168360,note_on,,,,,5,0,1,,,,,0,,,67,42
168360,set_tempo,,,,,70,1,0,,383386,,,,,,,
168360,note_on,,,,,150,0,2,,,,,0,,,64,38
168360,note_on,,,,,0,0,2,,,,,0,,,55,38
168360,control_change,,,,,0,0,1,,,,,0,64,96,,
168410,set_tempo,,,,,50,1,0,,379746,,,,,,,
168420,note_on,,,,,0,0,1,,,,,0,,,72,43
168420,note_on,,,,,60,0,1,,,,,0,,,67,0
168450,note_on,,,,,90,0,2,,,,,0,,,55,0
168450,note_on,,,,,0,0,2,,,,,0,,,64,0
168480,note_on,,,,,30,0,2,,,,,0,,,65,42
168480,note_on,,,,,0,0,2,,,,,0,,,55,42
168480,note_on,,,,,0,0,1,,,,,0,,,69,46
168480,note_on,,,,,60,0,1,,,,,0,,,72,0
168540,note_on,,,,,0,0,1,,,,,0,,,74,47
168540,note_on,,,,,60,0,1,,,,,0,,,69,0
168540,set_tempo,,,,,130,1,0,,371517,,,,,,,
168570,note_on,,,,,90,0,2,,,,,0,,,55,0
168570,note_on,,,,,0,0,2,,,,,0,,,65,0
168600,note_on,,,,,30,0,2,,,,,0,,,64,44
168600,note_on,,,,,0,0,2,,,,,0,,,55,44
168600,note_on,,,,,0,0,1,,,,,0,,,67,48
168600,note_on,,,,,60,0,1,,,,,0,,,74,0
168630,set_tempo,,,,,90,1,0,,368098,,,,,,,
168660,note_on,,,,,60,0,1,,,,,0,,,67,0
168660,note_on,,,,,0,0,1,,,,,0,,,72,51
168690,note_on,,,,,90,0,2,,,,,0,,,55,0
168690,note_on,,,,,0,0,2,,,,,0,,,64,0
168720,note_on,,,,,0,0,1,,,,,0,,,69,52
168720,note_on,,,,,60,0,1,,,,,0,,,72,0
168720,set_tempo,,,,,90,1,0,,363636,,,,,,,
168720,note_on,,,,,0,0,2,,,,,0,,,55,49
168720,note_on,,,,,30,0,2,,,,,0,,,65,49
168780,note_on,,,,,60,0,1,,,,,0,,,69,0
168780,note_on,,,,,0,0,1,,,,,0,,,74,54
168790,set_tempo,,,,,70,1,0,,355029,,,,,,,
168810,note_on,,,,,90,0,2,,,,,0,,,55,0
168810,note_on,,,,,0,0,2,,,,,0,,,65,0
168840,note_on,,,,,30,0,2,,,,,0,,,55,50
168840,note_on,,,,,0,0,2,,,,,0,,,67,50
168840,note_on,,,,,60,0,1,,,,,0,,,74,0
168840,note_on,,,,,0,0,1,,,,,0,,,71,55
168900,note_on,,,,,60,0,1,,,,,0,,,71,0
168900,note_on,,,,,0,0,1,,,,,0,,,77,57
168955,control_change,,,,,55,0,1,,,,,0,64,0,,
168960,control_change,,,,,0,0,1,,,,,0,64,95,,
168960,note_on,,,,,5,0,1,,,,,0,,,77,0
168960,note_on,,,,,0,0,1,,,,,0,,,72,57
169020,note_on,,,,,60,0,1,,,,,0,,,72,0
169020,note_on,,,,,0,0,1,,,,,0,,,76,49
169050,note_on,,,,,0,0,2,,,,,0,,,55,0
169050,note_on,,,,,210,0,2,,,,,0,,,67,0
169060,set_tempo,,,,,270,1,0,,358208,,,,,,,
169070,set_tempo,,,,,10,1,0,,359281,,,,,,,
169080,note_on,,,,,60,0,1,,,,,0,,,76,0
169080,note_on,,,,,0,0,1,,,,,0,,,74,44
169080,note_on,,,,,0,0,2,,,,,0,,,67,44
169080,note_on,,,,,30,0,2,,,,,0,,,59,44
169100,set_tempo,,,,,30,1,0,,362537,,,,,,,
169110,set_tempo,,,,,10,1,0,,363636,,,,,,,
169140,note_on,,,,,60,0,1,,,,,0,,,74,0
169140,note_on,,,,,0,0,1,,,,,0,,,79,40
169150,set_tempo,,,,,40,1,0,,368098,,,,,,,
169170,note_on,,,,,0,0,2,,,,,0,,,59,0
169170,note_on,,,,,90,0,2,,,,,0,,,67,0
169190,set_tempo,,,,,40,1,0,,377358,,,,,,,
169200,note_on,,,,,0,0,1,,,,,0,,,76,38
169200,note_on,,,,,60,0,1,,,,,0,,,79,0
169200,note_on,,,,,30,0,2,,,,,0,,,60,37
169200,note_on,,,,,0,0,2,,,,,0,,,67,37
169260,note_on,,,,,60,0,1,,,,,0,,,76,0
169260,note_on,,,,,0,0,1,,,,,0,,,79,38
169290,note_on,,,,,90,0,2,,,,,0,,,67,0
169290,note_on,,,,,0,0,2,,,,,0,,,60,0
169305,note_on,,,,,45,0,1,,,,,0,,,79,0
169310,control_change,,,,,5,0,1,,,,,0,64,0,,
169320,note_on,,,,,0,0,2,,,,,0,,,62,38
169320,control_change,,,,,0,0,1,,,,,0,64,96,,
169320,note_on,,,,,30,0,2,,,,,0,,,71,38
169320,note_on,,,,,10,0,1,,,,,0,,,74,41
169380,note_on,,,,,60,0,1,,,,,0,,,74,0
169380,note_on,,,,,0,0,1,,,,,0,,,79,43
169390,set_tempo,,,,,200,1,0,,368098,,,,,,,
169410,note_on,,,,,0,0,2,,,,,0,,,71,0
169410,note_on,,,,,90,0,2,,,,,0,,,62,0
169440,note_on,,,,,30,0,2,,,,,0,,,72,40
169440,note_on,,,,,0,0,2,,,,,0,,,62,40
169440,note_on,,,,,0,0,1,,,,,0,,,76,45
169440,note_on,,,,,60,0,1,,,,,0,,,79,0
169480,set_tempo,,,,,90,1,0,,362537,,,,,,,
169500,note_on,,,,,0,0,1,,,,,0,,,81,48
169500,note_on,,,,,60,0,1,,,,,0,,,76,0
169530,note_on,,,,,0,0,2,,,,,0,,,72,0
169530,note_on,,,,,90,0,2,,,,,0,,,62,0
169530,set_tempo,,,,,50,1,0,,358208,,,,,,,
169560,note_on,,,,,0,0,2,,,,,0,,,62,44
169560,note_on,,,,,0,0,1,,,,,0,,,74,51
169560,note_on,,,,,60,0,1,,,,,0,,,81,0
169560,note_on,,,,,30,0,2,,,,,0,,,71,44
169590,set_tempo,,,,,60,1,0,,352941,,,,,,,
169620,note_on,,,,,0,0,1,,,,,0,,,79,56
169620,note_on,,,,,60,0,1,,,,,0,,,74,0
169650,note_on,,,,,0,0,2,,,,,0,,,71,0
169650,note_on,,,,,90,0,2,,,,,0,,,62,0
169680,note_on,,,,,60,0,1,,,,,0,,,79,0
169680,note_on,,,,,0,0,2,,,,,0,,,62,52
169680,note_on,,,,,30,0,2,,,,,0,,,72,52
169680,note_on,,,,,0,0,1,,,,,0,,,76,58
169720,set_tempo,,,,,130,1,0,,349854,,,,,,,
169740,note_on,,,,,0,0,1,,,,,0,,,81,62
169740,note_on,,,,,60,0,1,,,,,0,,,76,0
169770,note_on,,,,,0,0,2,,,,,0,,,72,0
169770,note_on,,,,,90,0,2,,,,,0,,,62,0
169780,set_tempo,,,,,60,1,0,,346820,,,,,,,
169800,note_on,,,,,0,0,1,,,,,0,,,78,66
169800,note_on,,,,,30,0,2,,,,,0,,,62,63
169800,note_on,,,,,0,0,2,,,,,0,,,74,63
169800,note_on,,,,,60,0,1,,,,,0,,,81,0
169830,set_tempo,,,,,50,1,0,,342857,,,,,,,
169860,note_on,,,,,60,0,1,,,,,0,,,78,0
169860,note_on,,,,,0,0,1,,,,,0,,,84,70
169870,set_tempo,,,,,40,1,0,,339943,,,,,,,
169910,set_tempo,,,,,40,1,0,,343839,,,,,,,
169915,control_change,,,,,55,0,1,,,,,0,64,0,,
169920,note_on,,,,,5,0,1,,,,,0,,,84,0
169920,note_on,,,,,0,0,1,,,,,0,,,79,73
169920,control_change,,,,,0,0,1,,,,,0,64,95,,
169940,set_tempo,,,,,30,1,0,,347826,,,,,,,
169980,note_on,,,,,60,0,1,,,,,0,,,79,0
169980,note_on,,,,,0,0,1,,,,,0,,,83,68
169990,set_tempo,,,,,50,1,0,,348837,,,,,,,
170000,set_tempo,,,,,10,1,0,,356083,,,,,,,
170010,note_on,,,,,210,0,2,,,,,0,,,74,0
170010,note_on,,,,,0,0,2,,,,,0,,,62,0
170040,note_on,,,,,0,0,2,,,,,0,,,74,54
170040,note_on,,,,,30,0,2,,,,,0,,,66,54
170040,note_on,,,,,60,0,1,,,,,0,,,83,0
170040,note_on,,,,,0,0,1,,,,,0,,,81,57
170050,set_tempo,,,,,50,1,0,,366972,,,,,,,
170090,set_tempo,,,,,40,1,0,,376175,,,,,,,
170100,note_on,,,,,60,0,1,,,,,0,,,81,0
170100,note_on,,,,,0,0,1,,,,,0,,,86,48
170130,note_on,,,,,0,0,2,,,,,0,,,66,0
170130,note_on,,,,,90,0,2,,,,,0,,,74,0
170160,note_on,,,,,30,0,2,,,,,0,,,67,42
170160,note_on,,,,,60,0,1,,,,,0,,,86,0
170160,note_on,,,,,0,0,1,,,,,0,,,83,43
170160,note_on,,,,,0,0,2,,,,,0,,,74,42
170160,set_tempo,,,,,70,1,0,,383386,,,,,,,
170190,set_tempo,,,,,30,1,0,,389610,,,,,,,
170220,note_on,,,,,60,0,1,,,,,0,,,83,0
170220,note_on,,,,,0,0,1,,,,,0,,,86,38
170230,set_tempo,,,,,40,1,0,,394736,,,,,,,
170250,note_on,,,,,0,0,2,,,,,0,,,67,0
170250,note_on,,,,,90,0,2,,,,,0,,,74,0
170265,note_on,,,,,45,0,1,,,,,0,,,86,0
170275,control_change,,,,,10,0,1,,,,,0,64,0,,
170280,control_change,,,,,0,0,1,,,,,0,64,96,,
170280,note_on,,,,,30,0,2,,,,,0,,,62,37
170280,note_on,,,,,0,0,2,,,,,0,,,71,37
170280,set_tempo,,,,,50,1,0,,400000,,,,,,,
170280,note_on,,,,,5,0,1,,,,,0,,,86,49
170340,note_on,,,,,60,0,1,,,,,0,,,86,0
170340,note_on,,,,,0,0,1,,,,,0,,,91,57
170370,note_on,,,,,0,0,2,,,,,0,,,62,0
170370,note_on,,,,,90,0,2,,,,,0,,,71,0
170385,note_on,,,,,45,0,1,,,,,0,,,91,0
170395,control_change,,,,,10,0,1,,,,,0,64,0,,
170400,note_on,,,,,0,0,2,,,,,0,,,72,54
170400,note_on,,,,,30,0,2,,,,,0,,,62,54
170400,control_change,,,,,0,0,1,,,,,0,64,96,,
170400,note_on,,,,,5,0,1,,,,,0,,,88,43
170460,note_on,,,,,0,0,1,,,,,0,,,84,43
170460,set_tempo,,,,,180,1,0,,394736,,,,,,,
170460,note_on,,,,,60,0,1,,,,,0,,,88,0
170490,note_on,,,,,0,0,2,,,,,0,,,62,0
170490,note_on,,,,,90,0,2,,,,,0,,,72,0
170505,note_on,,,,,45,0,1,,,,,0,,,84,0
170520,note_on,,,,,0,0,2,,,,,0,,,69,44
170520,note_on,,,,,30,0,2,,,,,0,,,62,44
170520,note_on,,,,,15,0,1,,,,,0,,,84,44
170550,set_tempo,,,,,90,1,0,,389610,,,,,,,
170580,note_on,,,,,60,0,1,,,,,0,,,84,0
170580,note_on,,,,,0,0,1,,,,,0,,,81,49
170610,note_on,,,,,0,0,2,,,,,0,,,62,0
170610,note_on,,,,,90,0,2,,,,,0,,,69,0
170625,note_on,,,,,45,0,1,,,,,0,,,81,0
170640,note_on,,,,,0,0,2,,,,,0,,,62,46
170640,note_on,,,,,30,0,2,,,,,0,,,73,46
170640,note_on,,,,,15,0,1,,,,,0,,,82,54
170660,set_tempo,,,,,110,1,0,,380952,,,,,,,
170700,note_on,,,,,0,0,1,,,,,0,,,85,49
170700,note_on,,,,,60,0,1,,,,,0,,,82,0
170720,set_tempo,,,,,60,1,0,,373831,,,,,,,
170730,note_on,,,,,90,0,2,,,,,0,,,62,0
170730,note_on,,,,,0,0,2,,,,,0,,,73,0
170745,note_on,,,,,45,0,1,,,,,0,,,85,0
170755,control_change,,,,,10,0,1,,,,,0,64,0,,
170760,control_change,,,,,0,0,1,,,,,0,64,95,,
170760,note_on,,,,,5,0,1,,,,,0,,,83,59
170760,note_on,,,,,30,0,2,,,,,0,,,62,37
170760,note_on,,,,,0,0,2,,,,,0,,,74,37
170820,note_on,,,,,60,0,1,,,,,0,,,83,0
170820,note_on,,,,,0,0,1,,,,,0,,,86,38
170830,set_tempo,,,,,110,1,0,,369230,,,,,,,
170850,note_on,,,,,0,0,2,,,,,0,,,62,0
170850,note_on,,,,,90,0,2,,,,,0,,,74,0
170865,note_on,,,,,45,0,1,,,,,0,,,86,0
170875,control_change,,,,,10,0,1,,,,,0,64,0,,
170880,note_on,,,,,30,0,2,,,,,0,,,67,54
170880,note_on,,,,,5,0,1,,,,,0,,,83,43
170880,control_change,,,,,0,0,1,,,,,0,64,96,,
170880,note_on,,,,,0,0,2,,,,,0,,,62,54
170940,note_on,,,,,60,0,1,,,,,0,,,83,0
170940,note_on,,,,,0,0,1,,,,,0,,,79,43
170970,note_on,,,,,90,0,2,,,,,0,,,62,0
170970,note_on,,,,,0,0,2,,,,,0,,,67,0
170985,note_on,,,,,45,0,1,,,,,0,,,79,0
171000,note_on,,,,,0,0,2,,,,,0,,,62,44
171000,note_on,,,,,30,0,2,,,,,0,,,71,44
171000,note_on,,,,,15,0,1,,,,,0,,,79,44
171060,note_on,,,,,60,0,1,,,,,0,,,79,0
171060,note_on,,,,,0,0,1,,,,,0,,,74,49
171090,note_on,,,,,0,0,2,,,,,0,,,71,0
171090,note_on,,,,,90,0,2,,,,,0,,,62,0
171105,note_on,,,,,45,0,1,,,,,0,,,74,0
171120,note_on,,,,,0,0,2,,,,,0,,,62,46
171120,note_on,,,,,30,0,2,,,,,0,,,70,46
171120,set_tempo,,,,,290,1,0,,377358,,,,,,,
171120,note_on,,,,,15,0,1,,,,,0,,,73,54
171180,note_on,,,,,0,0,1,,,,,0,,,76,49
171180,note_on,,,,,60,0,1,,,,,0,,,73,0
171210,note_on,,,,,0,0,2,,,,,0,,,70,0
171210,note_on,,,,,90,0,2,,,,,0,,,62,0
171225,note_on,,,,,45,0,1,,,,,0,,,76,0
171235,control_change,,,,,10,0,1,,,,,0,64,0,,
171240,control_change,,,,,0,0,1,,,,,0,64,95,,
171240,note_on,,,,,5,0,1,,,,,0,,,74,59
171240,note_on,,,,,30,0,2,,,,,0,,,62,38
171240,note_on,,,,,0,0,2,,,,,0,,,71,38
171300,note_on,,,,,60,0,1,,,,,0,,,74,0
171300,note_on,,,,,0,0,1,,,,,0,,,79,38
171330,note_on,,,,,90,0,2,,,,,0,,,71,0
171330,note_on,,,,,0,0,2,,,,,0,,,62,0
171345,note_on,,,,,45,0,1,,,,,0,,,79,0
171355,control_change,,,,,10,0,1,,,,,0,64,0,,
171360,note_on,,,,,30,0,2,,,,,0,,,60,53
171360,note_on,,,,,5,0,1,,,,,0,,,76,43
171360,control_change,,,,,0,0,1,,,,,0,64,96,,
171360,note_on,,,,,0,0,2,,,,,0,,,50,54
171420,note_on,,,,,60,0,1,,,,,0,,,76,0
171420,note_on,,,,,0,0,1,,,,,0,,,72,43
171450,note_on,,,,,90,0,2,,,,,0,,,50,0
171450,note_on,,,,,0,0,2,,,,,0,,,60,0
171465,note_on,,,,,45,0,1,,,,,0,,,72,0
171480,note_on,,,,,15,0,1,,,,,0,,,72,44
171480,note_on,,,,,0,0,2,,,,,0,,,50,51
171480,note_on,,,,,30,0,2,,,,,0,,,57,51
171490,set_tempo,,,,,370,1,0,,375000,,,,,,,
171500,set_tempo,,,,,10,1,0,,371517,,,,,,,
171530,set_tempo,,,,,30,1,0,,372670,,,,,,,
171540,note_on,,,,,0,0,1,,,,,0,,,69,49
171540,note_on,,,,,60,0,1,,,,,0,,,72,0
171540,set_tempo,,,,,10,1,0,,366972,,,,,,,
171570,note_on,,,,,90,0,2,,,,,0,,,50,0
171570,note_on,,,,,0,0,2,,,,,0,,,57,0
171585,note_on,,,,,45,0,1,,,,,0,,,69,0
171590,set_tempo,,,,,50,1,0,,373831,,,,,,,
171600,note_on,,,,,15,0,1,,,,,0,,,70,54
171600,note_on,,,,,30,0,2,,,,,0,,,61,46
171600,note_on,,,,,0,0,2,,,,,0,,,50,46
171650,set_tempo,,,,,60,1,0,,379746,,,,,,,
171660,note_on,,,,,60,0,1,,,,,0,,,70,0
171660,note_on,,,,,0,0,1,,,,,0,,,73,50
171680,set_tempo,,,,,30,1,0,,380952,,,,,,,
171690,note_on,,,,,90,0,2,,,,,0,,,50,0
171690,note_on,,,,,0,0,2,,,,,0,,,61,0
171705,note_on,,,,,45,0,1,,,,,0,,,73,0
171715,control_change,,,,,10,0,1,,,,,0,64,0,,
171720,note_on,,,,,5,0,1,,,,,0,,,71,51
171720,control_change,,,,,0,0,1,,,,,0,64,95,,
171720,note_on,,,,,30,0,2,,,,,0,,,62,38
171720,note_on,,,,,0,0,2,,,,,0,,,50,38
171730,set_tempo,,,,,50,1,0,,392156,,,,,,,
171780,note_on,,,,,60,0,1,,,,,0,,,71,0
171780,note_on,,,,,0,0,1,,,,,0,,,74,38
171810,note_on,,,,,0,0,2,,,,,0,,,62,0
171810,note_on,,,,,90,0,2,,,,,0,,,50,0
171825,note_on,,,,,45,0,1,,,,,0,,,74,0
171835,control_change,,,,,10,0,1,,,,,0,64,0,,
171840,note_on,,,,,0,0,2,,,,,0,,,55,53
171840,note_on,,,,,30,0,2,,,,,0,,,50,53
171840,note_on,,,,,5,0,1,,,,,0,,,71,48
171840,control_change,,,,,0,0,1,,,,,0,64,95,,
171900,note_on,,,,,0,0,1,,,,,0,,,67,40
171900,note_on,,,,,60,0,1,,,,,0,,,71,0
171930,note_on,,,,,90,0,2,,,,,0,,,55,0
171930,note_on,,,,,0,0,2,,,,,0,,,50,0
171945,note_on,,,,,45,0,1,,,,,0,,,67,0
171960,note_on,,,,,15,0,1,,,,,0,,,67,44
171960,note_on,,,,,30,0,2,,,,,0,,,50,46
171960,note_on,,,,,0,0,2,,,,,0,,,59,46
171980,set_tempo,,,,,250,1,0,,393442,,,,,,,
171990,set_tempo,,,,,10,1,0,,396039,,,,,,,
172020,note_on,,,,,60,0,1,,,,,0,,,67,0
172020,note_on,,,,,0,0,1,,,,,0,,,62,38
172030,set_tempo,,,,,40,1,0,,405405,,,,,,,
172040,set_tempo,,,,,10,1,0,,406779,,,,,,,
172050,note_on,,,,,0,0,2,,,,,0,,,50,0
172050,note_on,,,,,90,0,2,,,,,0,,,59,0
172065,note_on,,,,,45,0,1,,,,,0,,,62,0
172075,control_change,,,,,10,0,1,,,,,0,64,0,,
172080,note_on,,,,,0,0,2,,,,,0,,,54,43
172080,control_change,,,,,0,0,1,,,,,0,64,95,,
172080,note_on,,,,,5,0,1,,,,,0,,,69,44
172080,note_on,,,,,30,0,2,,,,,0,,,50,43
172140,note_on,,,,,0,0,1,,,,,0,,,66,36
172140,note_on,,,,,60,0,1,,,,,0,,,69,0
172170,note_on,,,,,90,0,2,,,,,0,,,54,0
172170,note_on,,,,,0,0,2,,,,,0,,,50,0
172185,note_on,,,,,45,0,1,,,,,0,,,66,0
172200,note_on,,,,,30,0,2,,,,,0,,,50,39
172200,note_on,,,,,0,0,2,,,,,0,,,60,39
172200,note_on,,,,,15,0,1,,,,,0,,,66,40
172260,note_on,,,,,0,0,1,,,,,0,,,62,34
172260,note_on,,,,,60,0,1,,,,,0,,,66,0
172290,note_on,,,,,0,0,2,,,,,0,,,50,0
172290,note_on,,,,,90,0,2,,,,,0,,,60,0
172305,note_on,,,,,45,0,1,,,,,0,,,62,0
172315,control_change,,,,,10,0,1,,,,,0,64,0,,
172320,note_on,,,,,5,0,1,,,,,0,,,71,38
172320,control_change,,,,,0,0,1,,,,,0,64,95,,
172320,note_on,,,,,0,0,2,,,,,0,,,55,43
172320,note_on,,,,,30,0,2,,,,,0,,,50,43
172330,set_tempo,,,,,290,1,0,,428571,,,,,,,
172350,set_tempo,,,,,20,1,0,,430107,,,,,,,
172380,note_on,,,,,0,0,1,,,,,0,,,67,34
172380,note_on,,,,,60,0,1,,,,,0,,,71,0
172410,set_tempo,,,,,60,1,0,,439560,,,,,,,
172410,note_on,,,,,0,0,2,,,,,0,,,50,0
172410,note_on,,,,,90,0,2,,,,,0,,,55,0
172425,note_on,,,,,45,0,1,,,,,0,,,67,0
172440,note_on,,,,,0,0,2,,,,,0,,,59,37
172440,note_on,,,,,30,0,2,,,,,0,,,50,37
172440,note_on,,,,,15,0,1,,,,,0,,,67,38
172500,note_on,,,,,0,0,1,,,,,0,,,62,31
172500,note_on,,,,,60,0,1,,,,,0,,,67,0
172520,set_tempo,,,,,110,1,0,,444444,,,,,,,
172530,note_on,,,,,0,0,2,,,,,0,,,50,0
172530,note_on,,,,,90,0,2,,,,,0,,,59,0
172545,note_on,,,,,45,0,1,,,,,0,,,62,0
172555,control_change,,,,,10,0,1,,,,,0,64,0,,
172560,note_on,,,,,30,0,2,,,,,0,,,50,35
172560,control_change,,,,,0,0,1,,,,,0,64,95,,
172560,note_on,,,,,5,0,1,,,,,0,,,69,38
172560,note_on,,,,,0,0,2,,,,,0,,,54,35
172620,note_on,,,,,0,0,1,,,,,0,,,66,30
172620,note_on,,,,,60,0,1,,,,,0,,,69,0
172620,set_tempo,,,,,100,1,0,,459770,,,,,,,
172650,note_on,,,,,90,0,2,,,,,0,,,54,0
172650,note_on,,,,,0,0,2,,,,,0,,,50,0
172665,note_on,,,,,45,0,1,,,,,0,,,66,0
172680,note_on,,,,,30,0,2,,,,,0,,,50,30
172680,note_on,,,,,0,0,2,,,,,0,,,60,30
172680,note_on,,,,,15,0,1,,,,,0,,,66,35
172730,set_tempo,,,,,110,1,0,,444444,,,,,,,
172740,note_on,,,,,0,0,1,,,,,0,,,62,27
172740,note_on,,,,,60,0,1,,,,,0,,,66,0
172770,note_on,,,,,90,0,2,,,,,0,,,60,0
172770,note_on,,,,,0,0,2,,,,,0,,,50,0
172785,note_on,,,,,45,0,1,,,,,0,,,62,0
172790,set_tempo,,,,,60,1,0,,439560,,,,,,,
172795,control_change,,,,,10,0,1,,,,,0,64,0,,
172800,note_on,,,,,5,0,1,,,,,0,,,71,38
172800,control_change,,,,,0,0,1,,,,,0,64,95,,
172800,note_on,,,,,30,0,2,,,,,0,,,50,35
172800,note_on,,,,,0,0,2,,,,,0,,,55,35
172860,note_on,,,,,0,0,1,,,,,0,,,67,34
172860,set_tempo,,,,,70,1,0,,427046,,,,,,,
172860,note_on,,,,,60,0,1,,,,,0,,,71,0
172890,note_on,,,,,0,0,2,,,,,0,,,50,0
172890,note_on,,,,,90,0,2,,,,,0,,,55,0
172905,note_on,,,,,45,0,1,,,,,0,,,67,0
172920,note_on,,,,,0,0,2,,,,,0,,,59,39
172920,note_on,,,,,30,0,2,,,,,0,,,50,39
172920,note_on,,,,,15,0,1,,,,,0,,,67,43
172940,set_tempo,,,,,80,1,0,,416666,,,,,,,
172980,note_on,,,,,60,0,1,,,,,0,,,67,0
172980,note_on,,,,,0,0,1,,,,,0,,,62,35
173010,note_on,,,,,90,0,2,,,,,0,,,59,0
173010,note_on,,,,,0,0,2,,,,,0,,,50,0
173025,note_on,,,,,45,0,1,,,,,0,,,62,0
173035,control_change,,,,,10,0,1,,,,,0,64,0,,
173040,control_change,,,,,0,0,1,,,,,0,64,95,,
173040,note_on,,,,,30,0,2,,,,,0,,,56,42
173040,note_on,,,,,0,0,2,,,,,0,,,50,42
173040,note_on,,,,,5,0,1,,,,,0,,,71,47
173100,note_on,,,,,60,0,1,,,,,0,,,71,0
173100,note_on,,,,,0,0,1,,,,,0,,,68,41
173100,set_tempo,,,,,160,1,0,,409556,,,,,,,
173130,note_on,,,,,0,0,2,,,,,0,,,56,0
173130,note_on,,,,,90,0,2,,,,,0,,,50,0
173145,note_on,,,,,45,0,1,,,,,0,,,68,0
173160,note_on,,,,,30,0,2,,,,,0,,,59,47
173160,note_on,,,,,15,0,1,,,,,0,,,68,51
173160,note_on,,,,,0,0,2,,,,,0,,,50,47
173170,set_tempo,,,,,70,1,0,,404040,,,,,,,
173220,note_on,,,,,0,0,1,,,,,0,,,62,45
173220,note_on,,,,,60,0,1,,,,,0,,,68,0
173230,set_tempo,,,,,60,1,0,,394736,,,,,,,
173250,note_on,,,,,90,0,2,,,,,0,,,50,0
173250,note_on,,,,,0,0,2,,,,,0,,,59,0
173265,note_on,,,,,45,0,1,,,,,0,,,62,0
173275,control_change,,,,,10,0,1,,,,,0,64,0,,
173280,note_on,,,,,0,0,2,,,,,0,,,50,56
173280,note_on,,,,,30,0,2,,,,,0,,,57,56
173280,note_on,,,,,5,0,1,,,,,0,,,72,58
173280,control_change,,,,,0,0,1,,,,,0,64,95,,
173340,note_on,,,,,60,0,1,,,,,0,,,72,0
173340,set_tempo,,,,,110,1,0,,383386,,,,,,,
173340,note_on,,,,,0,0,1,,,,,0,,,69,53
173370,note_on,,,,,0,0,2,,,,,0,,,57,0
173370,note_on,,,,,90,0,2,,,,,0,,,50,0
173385,note_on,,,,,45,0,1,,,,,0,,,69,0
173390,set_tempo,,,,,50,1,0,,370370,,,,,,,
173400,note_on,,,,,15,0,1,,,,,0,,,69,63
173400,note_on,,,,,0,0,2,,,,,0,,,50,62
173400,note_on,,,,,30,0,2,,,,,0,,,60,62
173460,note_on,,,,,0,0,1,,,,,0,,,62,58
173460,note_on,,,,,60,0,1,,,,,0,,,69,0
173490,note_on,,,,,0,0,2,,,,,0,,,60,0
173490,note_on,,,,,90,0,2,,,,,0,,,50,0
173500,set_tempo,,,,,110,1,0,,362537,,,,,,,
173505,note_on,,,,,45,0,1,,,,,0,,,62,0
173515,control_change,,,,,10,0,1,,,,,0,64,0,,
173520,control_change,,,,,0,0,1,,,,,0,64,95,,
173520,note_on,,,,,5,0,1,,,,,0,,,73,70
173520,note_on,,,,,30,0,2,,,,,0,,,58,68
173520,note_on,,,,,0,0,2,,,,,0,,,50,68
173580,note_on,,,,,60,0,1,,,,,0,,,73,0
173580,note_on,,,,,0,0,1,,,,,0,,,70,67
173590,set_tempo,,,,,90,1,0,,353982,,,,,,,
173610,note_on,,,,,90,0,2,,,,,0,,,50,0
173610,note_on,,,,,0,0,2,,,,,0,,,58,0
173625,note_on,,,,,45,0,1,,,,,0,,,70,0
173640,note_on,,,,,30,0,2,,,,,0,,,61,78
173640,note_on,,,,,15,0,1,,,,,0,,,70,77
173640,note_on,,,,,0,0,2,,,,,0,,,50,78
173680,set_tempo,,,,,90,1,0,,355029,,,,,,,
173690,set_tempo,,,,,10,1,0,,357142,,,,,,,
173700,note_on,,,,,0,0,1,,,,,0,,,62,81
173700,note_on,,,,,60,0,1,,,,,0,,,70,0
173700,set_tempo,,,,,10,1,0,,540540,,,,,,,
173730,note_on,,,,,0,0,2,,,,,0,,,61,0
173730,note_on,,,,,90,0,2,,,,,0,,,50,0
173760,note_on,,,,,60,0,1,,,,,0,,,62,0
173785,control_change,,,,,25,0,1,,,,,0,64,0,,
173900,set_tempo,,,,,200,1,0,,375000,,,,,,,
174120,set_tempo,,,,,220,1,0,,377358,,,,,,,
174120,note_on,,,,,0,0,1,,,,,0,,,73,85
174120,control_change,,,,,335,0,1,,,,,0,91,96,,
174150,set_tempo,,,,,30,1,0,,394736,,,,,,,
174180,note_on,,,,,0,0,1,,,,,0,,,76,84
174180,note_on,,,,,60,0,1,,,,,0,,,73,0
174220,note_on,,,,,490,0,2,,,,,0,,,43,89
174230,note_on,,,,,10,0,2,,,,,0,,,50,90
174232,note_on,,,,,52,0,1,,,,,0,,,76,0
174240,control_change,,,,,0,0,1,,,,,0,64,96,,
174240,note_on,,,,,8,0,1,,,,,0,,,74,90
174240,set_tempo,,,,,90,1,0,,377358,,,,,,,
174240,note_on,,,,,10,0,2,,,,,0,,,59,90
174240,note_on,,,,,0,0,2,,,,,0,,,62,90
174600,note_on,,,,,0,0,1,,,,,0,,,72,80
174600,note_on,,,,,360,0,1,,,,,0,,,74,0
174620,set_tempo,,,,,380,1,0,,389610,,,,,,,
174660,note_on,,,,,60,0,1,,,,,0,,,72,0
174660,note_on,,,,,0,0,1,,,,,0,,,71,81
174700,control_change,,,,,40,0,1,,,,,0,64,0,,
174700,note_on,,,,,460,0,2,,,,,0,,,43,0
174714,note_on,,,,,14,0,1,,,,,0,,,71,0
174720,note_on,,,,,6,0,1,,,,,0,,,69,84
174720,control_change,,,,,0,0,1,,,,,0,64,95,,
174720,note_on,,,,,20,0,2,,,,,0,,,62,0
174720,note_on,,,,,0,0,2,,,,,0,,,62,89
174720,note_on,,,,,0,0,2,,,,,0,,,60,89
174720,note_on,,,,,0,0,2,,,,,0,,,59,0
174780,note_on,,,,,60,0,1,,,,,0,,,69,0
174780,note_on,,,,,0,0,1,,,,,0,,,71,86
174800,set_tempo,,,,,180,1,0,,368098,,,,,,,
174840,note_on,,,,,0,0,1,,,,,0,,,72,89
174840,note_on,,,,,60,0,1,,,,,0,,,71,0
174900,note_on,,,,,0,0,1,,,,,0,,,74,91
174900,note_on,,,,,60,0,1,,,,,0,,,72,0
174954,note_on,,,,,54,0,1,,,,,0,,,74,0
174960,note_on,,,,,0,0,2,,,,,0,,,57,86
174960,note_on,,,,,240,0,2,,,,,0,,,60,0
174960,note_on,,,,,6,0,1,,,,,0,,,72,94
175050,note_on,,,,,90,0,2,,,,,0,,,57,0
175050,note_on,,,,,90,0,1,,,,,0,,,72,0
175080,note_on,,,,,30,0,1,,,,,0,,,69,83
175080,note_on,,,,,30,0,2,,,,,0,,,54,80
175170,note_on,,,,,90,0,2,,,,,0,,,54,0
175170,note_on,,,,,90,0,1,,,,,0,,,69,0
175180,note_on,,,,,10,0,2,,,,,0,,,50,0
175180,control_change,,,,,10,0,1,,,,,0,64,0,,
175200,note_on,,,,,0,0,2,,,,,0,,,55,76
175200,note_on,,,,,0,0,2,,,,,0,,,50,76
175200,note_on,,,,,0,0,2,,,,,0,,,43,76
175200,note_on,,,,,20,0,2,,,,,0,,,62,0
175200,note_on,,,,,20,0,1,,,,,0,,,62,90
175200,control_change,,,,,0,0,1,,,,,0,64,95,,
175200,note_on,,,,,0,0,1,,,,,0,,,71,90
175320,note_on,,,,,0,0,1,,,,,0,,,67,77
175320,note_on,,,,,120,0,1,,,,,0,,,71,0
175320,note_on,,,,,120,0,2,,,,,0,,,43,0
175320,note_on,,,,,0,0,2,,,,,0,,,47,71
175350,set_tempo,,,,,550,1,0,,368098,,,,,,,
175370,set_tempo,,,,,20,1,0,,365853,,,,,,,
175380,note_on,,,,,60,0,2,,,,,0,,,47,0
175380,note_on,,,,,0,0,2,,,,,0,,,50,0
175380,note_on,,,,,0,0,2,,,,,0,,,55,0
175380,note_on,,,,,0,0,1,,,,,0,,,62,0
175380,control_change,,,,,0,0,1,,,,,0,64,0,,
175380,note_on,,,,,60,0,1,,,,,0,,,67,0
175440,set_tempo,,,,,70,1,0,,368098,,,,,,,
175440,note_on,,,,,60,0,1,,,,,0,,,62,84
175440,note_on,,,,,0,0,1,,,,,0,,,59,84
175440,note_on,,,,,60,0,2,,,,,0,,,50,86
175440,note_on,,,,,0,0,2,,,,,0,,,55,86
175470,set_tempo,,,,,30,1,0,,382165,,,,,,,
175480,set_tempo,,,,,10,1,0,,379746,,,,,,,
175499,note_on,,,,,59,0,1,,,,,0,,,59,0
175499,note_on,,,,,0,0,1,,,,,0,,,62,0
175499,note_on,,,,,0,0,2,,,,,0,,,50,0
175499,note_on,,,,,59,0,2,,,,,0,,,55,0
175500,note_on,,,,,1,0,1,,,,,0,,,62,72
175500,note_on,,,,,0,0,1,,,,,0,,,59,72
175500,note_on,,,,,0,0,2,,,,,0,,,55,84
175500,note_on,,,,,1,0,2,,,,,0,,,50,84
175510,set_tempo,,,,,30,1,0,,389610,,,,,,,
175554,note_on,,,,,0,0,1,,,,,0,,,62,0
175554,note_on,,,,,54,0,1,,,,,0,,,59,0
175554,note_on,,,,,54,0,2,,,,,0,,,55,0
175554,note_on,,,,,0,0,2,,,,,0,,,50,0
175560,set_tempo,,,,,50,1,0,,402684,,,,,,,
175560,note_on,,,,,0,0,2,,,,,0,,,55,90
175560,note_on,,,,,6,0,1,,,,,0,,,62,79
175560,note_on,,,,,0,0,1,,,,,0,,,59,79
175560,note_on,,,,,6,0,2,,,,,0,,,50,90
175590,set_tempo,,,,,30,1,0,,410958,,,,,,,
175614,note_on,,,,,0,0,1,,,,,0,,,62,0
175614,note_on,,,,,54,0,1,,,,,0,,,59,0
175614,note_on,,,,,54,0,2,,,,,0,,,55,0
175614,note_on,,,,,0,0,2,,,,,0,,,50,0
175620,note_on,,,,,6,0,2,,,,,0,,,50,96
175620,note_on,,,,,6,0,1,,,,,0,,,62,93
175620,note_on,,,,,0,0,2,,,,,0,,,55,96
175620,note_on,,,,,0,0,1,,,,,0,,,59,93
175670,set_tempo,,,,,80,1,0,,402684,,,,,,,
175674,note_on,,,,,54,0,1,,,,,0,,,59,0
175674,note_on,,,,,0,0,1,,,,,0,,,62,0
175674,note_on,,,,,54,0,2,,,,,0,,,55,0
175674,note_on,,,,,0,0,2,,,,,0,,,50,0
175680,set_tempo,,,,,10,1,0,,400000,,,,,,,
175680,note_on,,,,,6,0,2,,,,,0,,,50,102
175680,note_on,,,,,0,0,1,,,,,0,,,59,98
175680,note_on,,,,,0,0,2,,,,,0,,,55,102
175680,note_on,,,,,6,0,1,,,,,0,,,62,98
175680,control_change,,,,,0,0,1,,,,,0,64,95,,
175740,set_tempo,,,,,60,1,0,,389610,,,,,,,
175750,set_tempo,,,,,10,1,0,,387096,,,,,,,
175790,set_tempo,,,,,40,1,0,,377358,,,,,,,
175800,note_on,,,,,0,0,1,,,,,0,,,62,0
175800,note_on,,,,,0,0,1,,,,,0,,,64,82
175800,note_on,,,,,0,0,1,,,,,0,,,60,82
175800,note_on,,,,,120,0,1,,,,,0,,,59,0
175920,note_on,,,,,0,0,1,,,,,0,,,62,73
175920,note_on,,,,,0,0,1,,,,,0,,,59,73
175920,note_on,,,,,0,0,1,,,,,0,,,60,0
175920,note_on,,,,,120,0,1,,,,,0,,,64,0
175940,set_tempo,,,,,150,1,0,,465116,,,,,,,
175970,set_tempo,,,,,30,1,0,,571428,,,,,,,
175980,control_change,,,,,0,0,1,,,,,0,64,0,,
175980,note_on,,,,,60,0,1,,,,,0,,,62,0
175980,note_on,,,,,0,0,1,,,,,0,,,59,0
175980,note_on,,,,,300,0,2,,,,,0,,,55,0
175980,note_on,,,,,0,0,2,,,,,0,,,50,0
176000,set_tempo,,,,,30,1,0,,571428,,,,,,,
176030,set_tempo,,,,,30,1,0,,504201,,,,,,,
176040,note_on,,,,,60,0,1,,,,,0,,,76,109
176040,control_change,,,,,0,0,1,,,,,0,91,96,,
176080,set_tempo,,,,,50,1,0,,480000,,,,,,,
176090,set_tempo,,,,,10,1,0,,472440,,,,,,,
176100,note_on,,,,,0,0,1,,,,,0,,,79,111
176100,note_on,,,,,60,0,1,,,,,0,,,76,0
176100,set_tempo,,,,,10,1,0,,468750,,,,,,,
176140,note_on,,,,,160,0,2,,,,,0,,,46,116
176150,note_on,,,,,10,0,2,,,,,0,,,53,117
176150,set_tempo,,,,,50,1,0,,458015,,,,,,,
176152,note_on,,,,,52,0,1,,,,,0,,,79,0
176160,note_on,,,,,8,0,1,,,,,0,,,65,116
176160,note_on,,,,,10,0,2,,,,,0,,,62,117
176160,note_on,,,,,0,0,1,,,,,0,,,77,116
176160,control_change,,,,,0,0,1,,,,,0,64,96,,
176210,set_tempo,,,,,60,1,0,,444444,,,,,,,
176220,set_tempo,,,,,10,1,0,,437956,,,,,,,
176290,set_tempo,,,,,70,1,0,,428571,,,,,,,
176370,set_tempo,,,,,80,1,0,,419580,,,,,,,
176480,set_tempo,,,,,110,1,0,,410958,,,,,,,
176520,note_on,,,,,360,0,1,,,,,0,,,77,0
176520,note_on,,,,,0,0,1,,,,,0,,,75,100
176570,set_tempo,,,,,90,1,0,,400000,,,,,,,
176580,note_on,,,,,0,0,1,,,,,0,,,74,105
176580,note_on,,,,,60,0,1,,,,,0,,,75,0
176580,set_tempo,,,,,10,1,0,,397350,,,,,,,
176620,control_change,,,,,40,0,1,,,,,0,64,0,,
176620,note_on,,,,,460,0,2,,,,,0,,,53,0
176620,note_on,,,,,0,0,2,,,,,0,,,46,118
176620,note_on,,,,,0,0,2,,,,,0,,,46,0
176630,note_on,,,,,10,0,2,,,,,0,,,53,118
176634,note_on,,,,,14,0,1,,,,,0,,,74,0
176640,control_change,,,,,0,0,1,,,,,0,64,95,,
176640,note_on,,,,,0,0,1,,,,,0,,,72,109
176640,note_on,,,,,0,0,2,,,,,0,,,63,118
176640,note_on,,,,,6,0,1,,,,,0,,,65,0
176640,note_on,,,,,10,0,2,,,,,0,,,62,0
176670,set_tempo,,,,,90,1,0,,389610,,,,,,,
176680,set_tempo,,,,,10,1,0,,387096,,,,,,,
176700,note_on,,,,,60,0,1,,,,,0,,,72,0
176700,note_on,,,,,0,0,1,,,,,0,,,74,113
176760,note_on,,,,,60,0,1,,,,,0,,,74,0
176760,note_on,,,,,0,0,1,,,,,0,,,75,113
176800,set_tempo,,,,,120,1,0,,377358,,,,,,,
176820,note_on,,,,,60,0,1,,,,,0,,,75,0
176820,note_on,,,,,0,0,1,,,,,0,,,77,117
176874,note_on,,,,,54,0,1,,,,,0,,,77,0
176880,note_on,,,,,240,0,2,,,,,0,,,63,0
176880,note_on,,,,,6,0,1,,,,,0,,,75,117
176880,note_on,,,,,0,0,2,,,,,0,,,60,98
176970,note_on,,,,,90,0,1,,,,,0,,,75,0
176970,note_on,,,,,90,0,2,,,,,0,,,60,0
176970,set_tempo,,,,,170,1,0,,370370,,,,,,,
177000,note_on,,,,,30,0,1,,,,,0,,,72,109
177000,note_on,,,,,30,0,2,,,,,0,,,57,103
177040,set_tempo,,,,,70,1,0,,375000,,,,,,,
177090,note_on,,,,,90,0,1,,,,,0,,,72,0
177090,note_on,,,,,90,0,2,,,,,0,,,57,0
177100,control_change,,,,,10,0,1,,,,,0,64,0,,
177100,set_tempo,,,,,60,1,0,,377358,,,,,,,
177100,note_on,,,,,0,0,2,,,,,0,,,46,0
177100,note_on,,,,,10,0,2,,,,,0,,,53,0
177110,set_tempo,,,,,10,1,0,,378548,,,,,,,
177120,control_change,,,,,0,0,1,,,,,0,64,95,,
177120,note_on,,,,,0,0,1,,,,,0,,,74,114
177120,note_on,,,,,20,0,1,,,,,0,,,65,114
177120,note_on,,,,,0,0,2,,,,,0,,,58,109
177120,note_on,,,,,0,0,2,,,,,0,,,53,109
177120,note_on,,,,,20,0,2,,,,,0,,,46,109
177130,set_tempo,,,,,20,1,0,,383386,,,,,,,
177140,set_tempo,,,,,10,1,0,,384615,,,,,,,
177190,set_tempo,,,,,50,1,0,,396039,,,,,,,
177240,note_on,,,,,0,0,2,,,,,0,,,50,95
177240,note_on,,,,,120,0,2,,,,,0,,,46,0
177240,note_on,,,,,0,0,1,,,,,0,,,70,98
177240,note_on,,,,,120,0,1,,,,,0,,,74,0
177260,set_tempo,,,,,70,1,0,,402684,,,,,,,
177300,note_on,,,,,60,0,1,,,,,0,,,70,0
177300,control_change,,,,,0,0,1,,,,,0,64,0,,
177300,note_on,,,,,0,0,2,,,,,0,,,53,0
177300,note_on,,,,,0,0,2,,,,,0,,,58,0
177300,note_on,,,,,60,0,2,,,,,0,,,50,0
177300,note_on,,,,,0,0,1,,,,,0,,,65,0
177360,note_on,,,,,0,0,2,,,,,0,,,60,114
177360,note_on,,,,,60,0,2,,,,,0,,,45,114
177360,note_on,,,,,60,0,1,,,,,0,,,63,113
177360,note_on,,,,,0,0,1,,,,,0,,,75,113
177360,control_change,,,,,0,0,1,,,,,0,64,94,,
177380,set_tempo,,,,,120,1,0,,390879,,,,,,,
177450,set_tempo,,,,,70,1,0,,375000,,,,,,,
177480,note_on,,,,,120,0,1,,,,,0,,,75,0
177480,note_on,,,,,0,0,1,,,,,0,,,63,0
177480,note_on,,,,,0,0,1,,,,,0,,,65,98
177480,note_on,,,,,0,0,2,,,,,0,,,53,100
177480,note_on,,,,,120,0,2,,,,,0,,,60,0
177480,note_on,,,,,0,0,2,,,,,0,,,45,0
177520,set_tempo,,,,,70,1,0,,373831,,,,,,,
177530,set_tempo,,,,,10,1,0,,365853,,,,,,,
177540,note_on,,,,,60,0,1,,,,,0,,,65,0
177540,note_on,,,,,60,0,2,,,,,0,,,53,0
177595,control_change,,,,,55,0,1,,,,,0,64,0,,
177600,note_on,,,,,5,0,1,,,,,0,,,62,116
177600,note_on,,,,,0,0,2,,,,,0,,,58,118
177600,note_on,,,,,0,0,1,,,,,0,,,74,116
177600,note_on,,,,,60,0,2,,,,,0,,,46,118
177600,control_change,,,,,0,0,1,,,,,0,64,95,,
177620,set_tempo,,,,,90,1,0,,364741,,,,,,,
177630,set_tempo,,,,,10,1,0,,362537,,,,,,,
177720,set_tempo,,,,,90,1,0,,353982,,,,,,,
177720,note_on,,,,,120,0,1,,,,,0,,,74,0
177720,note_on,,,,,0,0,2,,,,,0,,,53,103
177720,note_on,,,,,0,0,2,,,,,0,,,46,0
177720,note_on,,,,,120,0,2,,,,,0,,,58,0
177720,note_on,,,,,0,0,1,,,,,0,,,62,0
177720,note_on,,,,,0,0,1,,,,,0,,,65,100
177780,note_on,,,,,60,0,2,,,,,0,,,53,0
177780,note_on,,,,,60,0,1,,,,,0,,,65,0
177835,control_change,,,,,55,0,1,,,,,0,64,0,,
177840,note_on,,,,,60,0,2,,,,,0,,,51,119
177840,note_on,,,,,0,0,2,,,,,0,,,57,119
177840,note_on,,,,,5,0,1,,,,,0,,,61,119
177840,note_on,,,,,0,0,1,,,,,0,,,73,119
177840,control_change,,,,,0,0,1,,,,,0,64,95,,
177910,set_tempo,,,,,190,1,0,,349854,,,,,,,
177960,note_on,,,,,120,0,2,,,,,0,,,57,0
177960,note_on,,,,,0,0,2,,,,,0,,,53,109
177960,note_on,,,,,0,0,2,,,,,0,,,51,0
177960,note_on,,,,,0,0,1,,,,,0,,,65,108
177960,note_on,,,,,0,0,1,,,,,0,,,61,0
177960,note_on,,,,,120,0,1,,,,,0,,,73,0
178010,set_tempo,,,,,100,1,0,,344827,,,,,,,
178020,set_tempo,,,,,10,1,0,,343839,,,,,,,
178020,note_on,,,,,60,0,2,,,,,0,,,53,0
178020,note_on,,,,,60,0,1,,,,,0,,,65,0
178075,control_change,,,,,55,0,1,,,,,0,64,0,,
178080,note_on,,,,,5,0,1,,,,,0,,,62,127
178080,control_change,,,,,0,0,1,,,,,0,64,95,,
178080,note_on,,,,,0,0,2,,,,,0,,,58,124
178080,note_on,,,,,60,0,2,,,,,0,,,50,124
178080,note_on,,,,,0,0,1,,,,,0,,,74,127
178170,set_tempo,,,,,150,1,0,,339943,,,,,,,
178200,note_on,,,,,0,0,2,,,,,0,,,50,0
178200,note_on,,,,,120,0,2,,,,,0,,,58,0
178200,note_on,,,,,0,0,1,,,,,0,,,62,0
178200,note_on,,,,,120,0,1,,,,,0,,,74,0
178200,note_on,,,,,0,0,1,,,,,0,,,65,113
178200,note_on,,,,,0,0,2,,,,,0,,,53,112
178260,note_on,,,,,60,0,2,,,,,0,,,53,0
178260,note_on,,,,,60,0,1,,,,,0,,,65,0
178260,control_change,,,,,0,0,1,,,,,0,64,0,,
178320,note_on,,,,,60,0,2,,,,,0,,,45,116
178320,note_on,,,,,60,0,1,,,,,0,,,65,120
178320,note_on,,,,,0,0,1,,,,,0,,,77,120
178320,control_change,,,,,0,0,1,,,,,0,64,95,,
178320,note_on,,,,,0,0,2,,,,,0,,,60,116
178440,note_on,,,,,0,0,1,,,,,0,,,75,104
178440,note_on,,,,,0,0,2,,,,,0,,,45,0
178440,note_on,,,,,0,0,2,,,,,0,,,53,101
178440,note_on,,,,,0,0,1,,,,,0,,,63,104
178440,note_on,,,,,120,0,2,,,,,0,,,60,0
178440,note_on,,,,,120,0,1,,,,,0,,,77,0
178440,note_on,,,,,0,0,1,,,,,0,,,65,0
178500,note_on,,,,,60,0,2,,,,,0,,,53,0
178500,note_on,,,,,0,0,1,,,,,0,,,63,0
178500,note_on,,,,,60,0,1,,,,,0,,,75,0
178555,control_change,,,,,55,0,1,,,,,0,64,0,,
178560,note_on,,,,,0,0,2,,,,,0,,,58,103
178560,note_on,,,,,60,0,2,,,,,0,,,46,103
178560,note_on,,,,,0,0,1,,,,,0,,,75,100
178560,note_on,,,,,5,0,1,,,,,0,,,63,100
178560,control_change,,,,,0,0,1,,,,,0,64,96,,
178680,note_on,,,,,0,0,1,,,,,0,,,74,80
178680,note_on,,,,,0,0,2,,,,,0,,,53,82
178680,note_on,,,,,0,0,2,,,,,0,,,46,0
178680,note_on,,,,,120,0,2,,,,,0,,,58,0
178680,note_on,,,,,0,0,1,,,,,0,,,63,0
178680,note_on,,,,,0,0,1,,,,,0,,,62,80
178680,note_on,,,,,120,0,1,,,,,0,,,75,0
178740,note_on,,,,,0,0,1,,,,,0,,,62,0
178740,note_on,,,,,60,0,1,,,,,0,,,74,0
178740,note_on,,,,,60,0,2,,,,,0,,,53,0
178795,control_change,,,,,55,0,1,,,,,0,64,0,,
178800,control_change,,,,,0,0,1,,,,,0,64,95,,
178800,note_on,,,,,0,0,1,,,,,0,,,74,87
178800,note_on,,,,,5,0,1,,,,,0,,,62,87
178800,note_on,,,,,60,0,2,,,,,0,,,51,92
178800,note_on,,,,,0,0,2,,,,,0,,,57,92
178910,set_tempo,,,,,740,1,0,,342857,,,,,,,
178920,note_on,,,,,0,0,2,,,,,0,,,53,72
178920,note_on,,,,,0,0,2,,,,,0,,,51,0
178920,note_on,,,,,120,0,2,,,,,0,,,57,0
178920,note_on,,,,,120,0,1,,,,,0,,,74,0
178920,note_on,,,,,0,0,1,,,,,0,,,62,0
178920,note_on,,,,,0,0,1,,,,,0,,,61,65
178920,note_on,,,,,0,0,1,,,,,0,,,73,65
178980,note_on,,,,,60,0,1,,,,,0,,,73,0
178980,note_on,,,,,60,0,2,,,,,0,,,53,0
178980,note_on,,,,,0,0,1,,,,,0,,,61,0
179035,control_change,,,,,55,0,1,,,,,0,64,0,,
179040,control_change,,,,,0,0,1,,,,,0,64,95,,
179040,note_on,,,,,0,0,1,,,,,0,,,73,75
179040,note_on,,,,,5,0,1,,,,,0,,,61,75
179040,note_on,,,,,0,0,2,,,,,0,,,58,85
179040,note_on,,,,,60,0,2,,,,,0,,,50,85
179100,set_tempo,,,,,190,1,0,,347826,,,,,,,
179160,note_on,,,,,120,0,1,,,,,0,,,73,0
179160,note_on,,,,,0,0,1,,,,,0,,,74,51
179160,note_on,,,,,0,0,1,,,,,0,,,62,51
179160,note_on,,,,,0,0,1,,,,,0,,,61,0
179160,note_on,,,,,0,0,2,,,,,0,,,53,59
179160,note_on,,,,,0,0,2,,,,,0,,,50,0
179160,note_on,,,,,120,0,2,,,,,0,,,58,0
179220,control_change,,,,,0,0,1,,,,,0,64,0,,
179220,note_on,,,,,0,0,1,,,,,0,,,62,0
179220,note_on,,,,,60,0,1,,,,,0,,,74,0
179220,note_on,,,,,60,0,2,,,,,0,,,53,0
179280,control_change,,,,,0,0,1,,,,,0,64,95,,
179280,note_on,,,,,0,0,1,,,,,0,,,75,75
179280,note_on,,,,,60,0,1,,,,,0,,,63,75
179280,note_on,,,,,60,0,2,,,,,0,,,48,73
179280,set_tempo,,,,,180,1,0,,351906,,,,,,,
179280,note_on,,,,,0,0,2,,,,,0,,,57,73
179350,set_tempo,,,,,70,1,0,,361445,,,,,,,
179400,note_on,,,,,120,0,2,,,,,0,,,57,0
179400,note_on,,,,,0,0,1,,,,,0,,,74,51
179400,note_on,,,,,0,0,1,,,,,0,,,62,51
179400,note_on,,,,,0,0,2,,,,,0,,,50,54
179400,note_on,,,,,0,0,2,,,,,0,,,48,0
179400,note_on,,,,,120,0,1,,,,,0,,,75,0
179400,note_on,,,,,0,0,1,,,,,0,,,63,0
179460,note_on,,,,,0,0,1,,,,,0,,,62,0
179460,note_on,,,,,60,0,1,,,,,0,,,74,0
179460,note_on,,,,,60,0,2,,,,,0,,,50,0
179510,set_tempo,,,,,160,1,0,,366972,,,,,,,
179515,control_change,,,,,55,0,1,,,,,0,64,0,,
179520,note_on,,,,,5,0,1,,,,,0,,,61,63
179520,control_change,,,,,0,0,1,,,,,0,64,95,,
179520,note_on,,,,,0,0,2,,,,,0,,,47,64
179520,note_on,,,,,0,0,1,,,,,0,,,73,63
179520,note_on,,,,,60,0,2,,,,,0,,,55,64
179550,set_tempo,,,,,40,1,0,,372670,,,,,,,
179590,set_tempo,,,,,40,1,0,,376175,,,,,,,
179630,set_tempo,,,,,40,1,0,,387096,,,,,,,
179640,note_on,,,,,120,0,2,,,,,0,,,47,0
179640,note_on,,,,,0,0,2,,,,,0,,,55,0
179640,note_on,,,,,0,0,2,,,,,0,,,50,46
179640,note_on,,,,,0,0,1,,,,,0,,,61,0
179640,note_on,,,,,0,0,1,,,,,0,,,62,47
179640,note_on,,,,,0,0,1,,,,,0,,,74,47
179640,note_on,,,,,120,0,1,,,,,0,,,73,0
179700,note_on,,,,,60,0,2,,,,,0,,,50,0
179700,control_change,,,,,0,0,1,,,,,0,64,0,,
179700,note_on,,,,,0,0,1,,,,,0,,,62,0
179700,note_on,,,,,60,0,1,,,,,0,,,74,0
179710,set_tempo,,,,,80,1,0,,392156,,,,,,,
179750,set_tempo,,,,,40,1,0,,408163,,,,,,,
179760,note_on,,,,,60,0,2,,,,,0,,,45,57
179760,note_on,,,,,0,0,2,,,,,0,,,54,57
179760,note_on,,,,,0,0,1,,,,,0,,,76,57
179760,note_on,,,,,60,0,1,,,,,0,,,64,57
179760,control_change,,,,,0,0,1,,,,,0,64,95,,
179780,set_tempo,,,,,30,1,0,,422535,,,,,,,
179800,set_tempo,,,,,20,1,0,,449438,,,,,,,
179860,set_tempo,,,,,60,1,0,,461538,,,,,,,
179880,note_on,,,,,0,0,2,,,,,0,,,45,0
179880,note_on,,,,,0,0,1,,,,,0,,,74,38
179880,note_on,,,,,120,0,1,,,,,0,,,76,0
179880,note_on,,,,,120,0,2,,,,,0,,,54,0
179880,note_on,,,,,0,0,1,,,,,0,,,64,0
179880,note_on,,,,,0,0,1,,,,,0,,,62,38
179880,note_on,,,,,0,0,2,,,,,0,,,50,37
179900,set_tempo,,,,,40,1,0,,478087,,,,,,,
179930,set_tempo,,,,,30,1,0,,515021,,,,,,,
179940,note_on,,,,,60,0,2,,,,,0,,,50,0
179940,control_change,,,,,0,0,1,,,,,0,64,0,,
179940,note_on,,,,,0,0,1,,,,,0,,,62,0
179940,note_on,,,,,60,0,1,,,,,0,,,74,0
179960,set_tempo,,,,,30,1,0,,645161,,,,,,,
180000,note_on,,,,,60,0,2,,,,,0,,,47,44
180000,control_change,,,,,0,0,1,,,,,0,64,97,,
180000,note_on,,,,,0,0,1,,,,,0,,,74,47
180000,note_on,,,,,60,0,1,,,,,0,,,62,47
180000,note_on,,,,,0,0,2,,,,,0,,,55,44
180010,set_tempo,,,,,50,1,0,,422535,,,,,,,
180020,set_tempo,,,,,10,1,0,,422535,,,,,,,
180040,set_tempo,,,,,20,1,0,,397350,,,,,,,
180120,note_on,,,,,0,0,1,,,,,0,,,72,38
180120,note_on,,,,,120,0,2,,,,,0,,,47,0
180120,note_on,,,,,0,0,2,,,,,0,,,43,39
180120,set_tempo,,,,,80,1,0,,387096,,,,,,,
180120,note_on,,,,,120,0,1,,,,,0,,,74,0
180180,note_on,,,,,60,0,1,,,,,0,,,72,0
180180,note_on,,,,,0,0,1,,,,,0,,,71,36
180190,set_tempo,,,,,70,1,0,,375000,,,,,,,
180235,control_change,,,,,55,0,1,,,,,0,64,0,,
180240,note_on,,,,,5,0,1,,,,,0,,,71,0
180240,note_on,,,,,0,0,1,,,,,0,,,62,0
180240,note_on,,,,,0,0,1,,,,,0,,,60,39
180240,note_on,,,,,0,0,1,,,,,0,,,69,39
180240,note_on,,,,,0,0,2,,,,,0,,,54,37
180240,note_on,,,,,0,0,2,,,,,0,,,50,37
180240,note_on,,,,,0,0,2,,,,,0,,,55,0
180240,control_change,,,,,0,0,1,,,,,0,64,96,,
180240,note_on,,,,,120,0,2,,,,,0,,,43,0
180360,note_on,,,,,120,0,1,,,,,0,,,69,0
180360,note_on,,,,,0,0,2,,,,,0,,,52,44
180360,note_on,,,,,120,0,2,,,,,0,,,54,0
180360,note_on,,,,,0,0,1,,,,,0,,,71,40
180420,note_on,,,,,0,0,1,,,,,0,,,69,45
180420,note_on,,,,,60,0,2,,,,,0,,,52,0
180420,note_on,,,,,0,0,2,,,,,0,,,54,46
180420,note_on,,,,,60,0,1,,,,,0,,,71,0
180475,control_change,,,,,55,0,1,,,,,0,64,0,,
180480,note_on,,,,,0,0,1,,,,,0,,,60,0
180480,note_on,,,,,0,0,1,,,,,0,,,67,48
180480,note_on,,,,,0,0,1,,,,,0,,,59,48
180480,note_on,,,,,0,0,2,,,,,0,,,55,48
180480,note_on,,,,,5,0,1,,,,,0,,,69,0
180480,note_on,,,,,60,0,2,,,,,0,,,54,0
180480,note_on,,,,,0,0,2,,,,,0,,,43,48
180480,note_on,,,,,0,0,2,,,,,0,,,50,0
180570,note_on,,,,,90,0,2,,,,,0,,,55,0
180570,note_on,,,,,0,0,2,,,,,0,,,43,0
180570,note_on,,,,,90,0,1,,,,,0,,,59,0
180570,set_tempo,,,,,380,1,0,,582524,,,,,,,
180570,note_on,,,,,0,0,1,,,,,0,,,67,0
180600,note_on,,,,,30,0,1,,,,,0,,,60,71
180600,note_on,,,,,0,0,1,,,,,0,,,64,71
180600,note_on,,,,,0,0,1,,,,,0,,,69,71
180600,set_tempo,,,,,30,1,0,,375000,,,,,,,
180600,note_on,,,,,0,0,2,,,,,0,,,52,72
180600,note_on,,,,,30,0,2,,,,,0,,,43,72
180600,control_change,,,,,0,0,1,,,,,0,64,95,,
180780,note_on,,,,,180,0,1,,,,,0,,,69,0
180780,note_on,,,,,0,0,1,,,,,0,,,60,58
180780,note_on,,,,,0,0,1,,,,,0,,,63,58
180780,note_on,,,,,0,0,1,,,,,0,,,69,58
180780,note_on,,,,,0,0,1,,,,,0,,,64,0
180780,note_on,,,,,0,0,1,,,,,0,,,60,0
180780,note_on,,,,,180,0,2,,,,,0,,,52,0
180780,note_on,,,,,0,0,2,,,,,0,,,51,65
180780,note_on,,,,,0,0,2,,,,,0,,,43,65
180780,note_on,,,,,0,0,2,,,,,0,,,43,0
180780,set_tempo,,,,,180,1,0,,394736,,,,,,,
180825,note_on,,,,,0,0,2,,,,,0,,,43,0
180825,note_on,,,,,45,0,2,,,,,0,,,51,0
180825,note_on,,,,,45,0,1,,,,,0,,,69,0
180825,note_on,,,,,0,0,1,,,,,0,,,63,0
180825,note_on,,,,,0,0,1,,,,,0,,,60,0
180840,note_on,,,,,0,0,2,,,,,0,,,51,59
180840,note_on,,,,,15,0,1,,,,,0,,,60,52
180840,note_on,,,,,15,0,2,,,,,0,,,43,59
180840,note_on,,,,,0,0,1,,,,,0,,,69,52
180840,note_on,,,,,0,0,1,,,,,0,,,63,52
180885,note_on,,,,,0,0,1,,,,,0,,,60,0
180885,note_on,,,,,45,0,2,,,,,0,,,51,0
180885,note_on,,,,,0,0,2,,,,,0,,,43,0
180885,note_on,,,,,0,0,1,,,,,0,,,63,0
180885,note_on,,,,,45,0,1,,,,,0,,,69,0
180900,note_on,,,,,0,0,1,,,,,0,,,63,47
180900,note_on,,,,,0,0,2,,,,,0,,,51,49
180900,note_on,,,,,15,0,2,,,,,0,,,43,49
180900,note_on,,,,,15,0,1,,,,,0,,,60,47
180900,note_on,,,,,0,0,1,,,,,0,,,69,47
180945,note_on,,,,,45,0,1,,,,,0,,,69,0
180945,note_on,,,,,0,0,1,,,,,0,,,63,0
180945,note_on,,,,,0,0,1,,,,,0,,,60,0
180945,note_on,,,,,45,0,2,,,,,0,,,51,0
180945,note_on,,,,,0,0,2,,,,,0,,,43,0
180955,control_change,,,,,10,0,1,,,,,0,64,0,,
180960,note_on,,,,,0,0,1,,,,,0,,,67,42
180960,control_change,,,,,0,0,1,,,,,0,64,95,,
180960,note_on,,,,,5,0,1,,,,,0,,,59,42
180960,note_on,,,,,0,0,2,,,,,0,,,43,43
180960,note_on,,,,,15,0,2,,,,,0,,,50,43
180970,set_tempo,,,,,190,1,0,,377358,,,,,,,
181080,note_on,,,,,0,0,2,,,,,0,,,55,37
181080,note_on,,,,,120,0,2,,,,,0,,,50,0
181080,note_on,,,,,0,0,1,,,,,0,,,62,35
181080,note_on,,,,,120,0,1,,,,,0,,,67,0
181125,note_on,,,,,45,0,2,,,,,0,,,55,0
181125,note_on,,,,,0,0,1,,,,,0,,,59,0
181125,note_on,,,,,45,0,1,,,,,0,,,62,0
181125,note_on,,,,,0,0,2,,,,,0,,,43,0
181140,control_change,,,,,15,0,1,,,,,0,64,0,,
181140,set_tempo,,,,,170,1,0,,465116,,,,,,,
181200,control_change,,,,,0,0,1,,,,,0,64,95,,
181200,note_on,,,,,0,0,1,,,,,0,,,76,39
181200,note_on,,,,,75,0,2,,,,,0,,,60,33
181200,note_on,,,,,0,0,2,,,,,0,,,55,33
181200,note_on,,,,,60,0,1,,,,,0,,,66,39
181200,set_tempo,,,,,60,1,0,,375000,,,,,,,
181290,set_tempo,,,,,90,1,0,,359281,,,,,,,
181320,note_on,,,,,0,0,1,,,,,0,,,74,35
181320,note_on,,,,,120,0,1,,,,,0,,,76,0
181380,note_on,,,,,0,0,1,,,,,0,,,73,40
181380,note_on,,,,,60,0,1,,,,,0,,,74,0
181430,set_tempo,,,,,140,1,0,,352941,,,,,,,
181435,control_change,,,,,55,0,1,,,,,0,64,0,,
181440,note_on,,,,,0,0,2,,,,,0,,,59,42
181440,control_change,,,,,0,0,1,,,,,0,64,95,,
181440,note_on,,,,,0,0,1,,,,,0,,,74,44
181440,note_on,,,,,0,0,1,,,,,0,,,67,44
181440,note_on,,,,,0,0,1,,,,,0,,,66,0
181440,note_on,,,,,5,0,1,,,,,0,,,73,0
181440,note_on,,,,,240,0,2,,,,,0,,,60,0
181550,set_tempo,,,,,120,1,0,,359281,,,,,,,
181560,note_on,,,,,120,0,2,,,,,0,,,59,0
181560,note_on,,,,,0,0,2,,,,,0,,,62,32
181560,note_on,,,,,120,0,1,,,,,0,,,74,0
181560,note_on,,,,,0,0,1,,,,,0,,,71,34
181605,note_on,,,,,45,0,1,,,,,0,,,67,0
181605,note_on,,,,,45,0,2,,,,,0,,,55,0
181620,control_change,,,,,0,0,1,,,,,0,64,0,,
181620,note_on,,,,,15,0,1,,,,,0,,,71,0
181620,note_on,,,,,15,0,2,,,,,0,,,62,0
181670,set_tempo,,,,,120,1,0,,365853,,,,,,,
181680,note_on,,,,,60,0,2,,,,,0,,,66,39
181680,note_on,,,,,0,0,2,,,,,0,,,62,39
181680,note_on,,,,,60,0,1,,,,,0,,,72,41
181680,note_on,,,,,0,0,1,,,,,0,,,81,41
181680,control_change,,,,,0,0,1,,,,,0,64,95,,
181760,set_tempo,,,,,90,1,0,,370370,,,,,,,
181800,note_on,,,,,120,0,1,,,,,0,,,81,0
181800,note_on,,,,,0,0,1,,,,,0,,,83,40
181800,note_on,,,,,120,0,2,,,,,0,,,66,0
181800,note_on,,,,,0,0,2,,,,,0,,,64,37
181860,note_on,,,,,60,0,1,,,,,0,,,83,0
181860,note_on,,,,,0,0,1,,,,,0,,,81,34
181860,note_on,,,,,0,0,2,,,,,0,,,66,35
181860,note_on,,,,,60,0,2,,,,,0,,,64,0
181915,control_change,,,,,55,0,1,,,,,0,64,0,,
181920,note_on,,,,,60,0,2,,,,,0,,,66,0
181920,control_change,,,,,0,0,1,,,,,0,64,96,,
181920,note_on,,,,,0,0,1,,,,,0,,,79,30
181920,note_on,,,,,0,0,1,,,,,0,,,71,30
181920,note_on,,,,,0,0,1,,,,,0,,,72,0
181920,note_on,,,,,5,0,1,,,,,0,,,81,0
181920,note_on,,,,,0,0,2,,,,,0,,,67,32
181920,note_on,,,,,0,0,2,,,,,0,,,62,0
181930,set_tempo,,,,,170,1,0,,379746,,,,,,,
181980,note_on,,,,,60,0,2,,,,,0,,,67,0
181980,control_change,,,,,0,0,1,,,,,0,64,0,,
181980,note_on,,,,,0,0,1,,,,,0,,,71,0
181980,note_on,,,,,60,0,1,,,,,0,,,79,0
182010,set_tempo,,,,,80,1,0,,582524,,,,,,,
182040,control_change,,,,,0,0,1,,,,,0,64,95,,
182040,note_on,,,,,0,0,1,,,,,0,,,69,71
182040,note_on,,,,,60,0,1,,,,,0,,,60,71
182040,note_on,,,,,60,0,2,,,,,0,,,43,72
182040,note_on,,,,,0,0,1,,,,,0,,,64,71
182040,set_tempo,,,,,30,1,0,,375000,,,,,,,
182040,note_on,,,,,0,0,2,,,,,0,,,52,72
182220,note_on,,,,,0,0,1,,,,,0,,,63,58
182220,note_on,,,,,180,0,2,,,,,0,,,52,0
182220,note_on,,,,,0,0,2,,,,,0,,,43,0
182220,note_on,,,,,0,0,2,,,,,0,,,43,65
182220,note_on,,,,,0,0,2,,,,,0,,,51,65
182220,set_tempo,,,,,180,1,0,,394736,,,,,,,
182220,note_on,,,,,180,0,1,,,,,0,,,69,0
182220,note_on,,,,,0,0,1,,,,,0,,,64,0
182220,note_on,,,,,0,0,1,,,,,0,,,60,0
182220,note_on,,,,,0,0,1,,,,,0,,,69,58
182220,note_on,,,,,0,0,1,,,,,0,,,60,58
182265,note_on,,,,,0,0,1,,,,,0,,,63,0
182265,note_on,,,,,45,0,2,,,,,0,,,51,0
182265,note_on,,,,,0,0,2,,,,,0,,,43,0
182265,note_on,,,,,0,0,1,,,,,0,,,60,0
182265,note_on,,,,,45,0,1,,,,,0,,,69,0
182280,note_on,,,,,0,0,1,,,,,0,,,69,52
182280,note_on,,,,,15,0,1,,,,,0,,,60,52
182280,note_on,,,,,0,0,1,,,,,0,,,63,52
182280,note_on,,,,,0,0,2,,,,,0,,,51,59
182280,note_on,,,,,15,0,2,,,,,0,,,43,59
182325,note_on,,,,,45,0,2,,,,,0,,,51,0
182325,note_on,,,,,45,0,1,,,,,0,,,69,0
182325,note_on,,,,,0,0,1,,,,,0,,,63,0
182325,note_on,,,,,0,0,2,,,,,0,,,43,0
182325,note_on,,,,,0,0,1,,,,,0,,,60,0
182340,note_on,,,,,15,0,2,,,,,0,,,43,49
182340,note_on,,,,,15,0,1,,,,,0,,,60,47
182340,note_on,,,,,0,0,2,,,,,0,,,51,49
182340,note_on,,,,,0,0,1,,,,,0,,,69,47
182340,note_on,,,,,0,0,1,,,,,0,,,63,47
182385,note_on,,,,,0,0,2,,,,,0,,,43,0
182385,note_on,,,,,45,0,2,,,,,0,,,51,0
182385,note_on,,,,,0,0,1,,,,,0,,,63,0
182385,note_on,,,,,0,0,1,,,,,0,,,60,0
182385,note_on,,,,,45,0,1,,,,,0,,,69,0
182395,control_change,,,,,10,0,1,,,,,0,64,0,,
182400,note_on,,,,,5,0,1,,,,,0,,,59,42
182400,note_on,,,,,0,0,1,,,,,0,,,67,42
182400,control_change,,,,,0,0,1,,,,,0,64,95,,
182400,note_on,,,,,0,0,2,,,,,0,,,43,43
182400,note_on,,,,,15,0,2,,,,,0,,,50,43
182410,set_tempo,,,,,190,1,0,,377358,,,,,,,
182520,note_on,,,,,120,0,2,,,,,0,,,50,0
182520,note_on,,,,,0,0,2,,,,,0,,,55,37
182520,note_on,,,,,0,0,1,,,,,0,,,62,35
182520,note_on,,,,,120,0,1,,,,,0,,,67,0
182565,note_on,,,,,45,0,2,,,,,0,,,55,0
182565,note_on,,,,,0,0,2,,,,,0,,,43,0
182565,note_on,,,,,0,0,1,,,,,0,,,59,0
182565,note_on,,,,,45,0,1,,,,,0,,,62,0
182580,control_change,,,,,15,0,1,,,,,0,64,0,,
182580,set_tempo,,,,,170,1,0,,465116,,,,,,,
182640,set_tempo,,,,,60,1,0,,375000,,,,,,,
182640,note_on,,,,,60,0,1,,,,,0,,,66,39
182640,note_on,,,,,0,0,2,,,,,0,,,55,33
182640,control_change,,,,,0,0,1,,,,,0,64,95,,
182640,note_on,,,,,0,0,1,,,,,0,,,76,39
182640,note_on,,,,,75,0,2,,,,,0,,,60,33
182730,set_tempo,,,,,90,1,0,,359281,,,,,,,
182760,note_on,,,,,0,0,1,,,,,0,,,74,35
182760,note_on,,,,,120,0,1,,,,,0,,,76,0
182820,note_on,,,,,0,0,1,,,,,0,,,73,40
182820,note_on,,,,,60,0,1,,,,,0,,,74,0
182870,set_tempo,,,,,140,1,0,,352941,,,,,,,
182875,control_change,,,,,55,0,1,,,,,0,64,0,,
182880,note_on,,,,,240,0,2,,,,,0,,,60,0
182880,control_change,,,,,0,0,1,,,,,0,64,95,,
182880,note_on,,,,,0,0,1,,,,,0,,,74,44
182880,note_on,,,,,0,0,1,,,,,0,,,67,44
182880,note_on,,,,,0,0,1,,,,,0,,,66,0
182880,note_on,,,,,5,0,1,,,,,0,,,73,0
182880,note_on,,,,,0,0,2,,,,,0,,,59,42
182990,set_tempo,,,,,120,1,0,,359281,,,,,,,
183000,note_on,,,,,0,0,2,,,,,0,,,62,32
183000,note_on,,,,,120,0,2,,,,,0,,,59,0
183000,note_on,,,,,120,0,1,,,,,0,,,74,0
183000,note_on,,,,,0,0,1,,,,,0,,,71,34
183045,note_on,,,,,45,0,1,,,,,0,,,67,0
183045,note_on,,,,,45,0,2,,,,,0,,,55,0
183060,note_on,,,,,15,0,1,,,,,0,,,71,0
183060,control_change,,,,,0,0,1,,,,,0,64,0,,
183060,note_on,,,,,15,0,2,,,,,0,,,62,0
183110,set_tempo,,,,,120,1,0,,361445,,,,,,,
183120,set_tempo,,,,,10,1,0,,377358,,,,,,,
183120,note_on,,,,,60,0,2,,,,,0,,,66,39
183120,note_on,,,,,0,0,1,,,,,0,,,81,41
183120,control_change,,,,,0,0,1,,,,,0,64,95,,
183120,note_on,,,,,60,0,1,,,,,0,,,72,41
183120,note_on,,,,,0,0,2,,,,,0,,,62,39
183170,set_tempo,,,,,50,1,0,,392156,,,,,,,
183240,note_on,,,,,0,0,2,,,,,0,,,64,37
183240,note_on,,,,,120,0,2,,,,,0,,,66,0
183240,note_on,,,,,120,0,1,,,,,0,,,81,0
183240,note_on,,,,,0,0,1,,,,,0,,,83,40
183250,set_tempo,,,,,80,1,0,,408163,,,,,,,
183290,set_tempo,,,,,40,1,0,,428571,,,,,,,
183300,note_on,,,,,0,0,2,,,,,0,,,66,35
183300,note_on,,,,,60,0,2,,,,,0,,,64,0
183300,note_on,,,,,60,0,1,,,,,0,,,83,0
183300,note_on,,,,,0,0,1,,,,,0,,,81,34
183330,set_tempo,,,,,40,1,0,,451127,,,,,,,
183350,set_tempo,,,,,20,1,0,,451127,,,,,,,
183355,control_change,,,,,55,0,1,,,,,0,64,0,,
183360,note_on,,,,,0,0,2,,,,,0,,,62,0
183360,note_on,,,,,5,0,1,,,,,0,,,81,0
183360,note_on,,,,,0,0,1,,,,,0,,,72,0
183360,note_on,,,,,0,0,1,,,,,0,,,79,30
183360,note_on,,,,,60,0,2,,,,,0,,,66,0
183360,note_on,,,,,0,0,2,,,,,0,,,67,32
183360,note_on,,,,,0,0,1,,,,,0,,,71,30
183370,set_tempo,,,,,20,1,0,,389610,,,,,,,
183400,set_tempo,,,,,30,1,0,,387096,,,,,,,
183420,note_on,,,,,60,0,1,,,,,0,,,79,0
183420,note_on,,,,,60,0,2,,,,,0,,,67,0
183420,note_on,,,,,0,0,1,,,,,0,,,71,0
183480,note_on,,,,,60,0,1,,,,,0,,,74,40
183480,note_on,,,,,0,0,2,,,,,0,,,62,39
183480,control_change,,,,,0,0,1,,,,,0,64,95,,
183480,note_on,,,,,60,0,2,,,,,0,,,71,39
183530,set_tempo,,,,,130,1,0,,379746,,,,,,,
183540,note_on,,,,,60,0,1,,,,,0,,,74,0
183540,note_on,,,,,0,0,1,,,,,0,,,79,32
183585,note_on,,,,,45,0,1,,,,,0,,,79,0
183600,note_on,,,,,0,0,2,,,,,0,,,72,33
183600,note_on,,,,,120,0,2,,,,,0,,,71,0
183600,note_on,,,,,15,0,1,,,,,0,,,76,42
183660,note_on,,,,,0,0,1,,,,,0,,,81,34
183660,note_on,,,,,60,0,1,,,,,0,,,76,0
183675,note_on,,,,,0,0,2,,,,,0,,,62,0
183675,note_on,,,,,75,0,2,,,,,0,,,72,0
183705,note_on,,,,,45,0,1,,,,,0,,,81,0
183720,note_on,,,,,45,0,2,,,,,0,,,74,39
183720,note_on,,,,,0,0,2,,,,,0,,,62,39
183720,note_on,,,,,15,0,1,,,,,0,,,78,45
183760,set_tempo,,,,,230,1,0,,370370,,,,,,,
183780,note_on,,,,,60,0,1,,,,,0,,,78,0
183780,note_on,,,,,0,0,1,,,,,0,,,84,36
183825,note_on,,,,,45,0,1,,,,,0,,,84,0
183840,note_on,,,,,15,0,1,,,,,0,,,79,47
183900,note_on,,,,,0,0,1,,,,,0,,,83,29
183900,note_on,,,,,60,0,1,,,,,0,,,79,0
183915,note_on,,,,,195,0,2,,,,,0,,,62,0
183915,note_on,,,,,0,0,2,,,,,0,,,74,0
183945,control_change,,,,,0,0,1,,,,,0,64,0,,
183945,note_on,,,,,45,0,1,,,,,0,,,83,0
183960,note_on,,,,,0,0,2,,,,,0,,,62,39
183960,note_on,,,,,45,0,2,,,,,0,,,71,39
183960,note_on,,,,,15,0,1,,,,,0,,,74,40
183960,control_change,,,,,0,0,1,,,,,0,64,95,,
183980,set_tempo,,,,,220,1,0,,366972,,,,,,,
184020,note_on,,,,,60,0,1,,,,,0,,,74,0
184020,note_on,,,,,0,0,1,,,,,0,,,79,32
184065,note_on,,,,,45,0,1,,,,,0,,,79,0
184080,note_on,,,,,15,0,1,,,,,0,,,76,42
184080,note_on,,,,,120,0,2,,,,,0,,,71,0
184080,note_on,,,,,0,0,2,,,,,0,,,72,33
184100,set_tempo,,,,,120,1,0,,361445,,,,,,,
184140,note_on,,,,,0,0,1,,,,,0,,,81,34
184140,note_on,,,,,60,0,1,,,,,0,,,76,0
184155,note_on,,,,,75,0,2,,,,,0,,,72,0
184155,note_on,,,,,0,0,2,,,,,0,,,62,0
184185,note_on,,,,,45,0,1,,,,,0,,,81,0
184200,note_on,,,,,45,0,2,,,,,0,,,62,39
184200,note_on,,,,,0,0,2,,,,,0,,,74,39
184200,note_on,,,,,15,0,1,,,,,0,,,78,45
184250,set_tempo,,,,,150,1,0,,358208,,,,,,,
184260,note_on,,,,,60,0,1,,,,,0,,,78,0
184260,note_on,,,,,0,0,1,,,,,0,,,84,36
184305,note_on,,,,,45,0,1,,,,,0,,,84,0
184320,note_on,,,,,0,0,2,,,,,0,,,67,42
184320,note_on,,,,,15,0,1,,,,,0,,,79,47
184320,note_on,,,,,120,0,2,,,,,0,,,62,0
184370,set_tempo,,,,,120,1,0,,366972,,,,,,,
184380,note_on,,,,,60,0,1,,,,,0,,,79,0
184380,note_on,,,,,0,0,1,,,,,0,,,83,29
184395,note_on,,,,,0,0,2,,,,,0,,,74,0
184395,note_on,,,,,75,0,2,,,,,0,,,67,0
184425,note_on,,,,,45,0,1,,,,,0,,,83,0
184425,control_change,,,,,0,0,1,,,,,0,64,0,,
184440,note_on,,,,,15,0,1,,,,,0,,,77,46
184440,control_change,,,,,0,0,1,,,,,0,64,95,,
184440,note_on,,,,,45,0,2,,,,,0,,,74,42
184500,note_on,,,,,0,0,1,,,,,0,,,81,36
184500,note_on,,,,,60,0,1,,,,,0,,,77,0
184545,note_on,,,,,105,0,2,,,,,0,,,74,0
184545,note_on,,,,,45,0,1,,,,,0,,,81,0
184560,note_on,,,,,15,0,1,,,,,0,,,76,41
184560,note_on,,,,,15,0,2,,,,,0,,,71,39
184620,note_on,,,,,60,0,1,,,,,0,,,76,0
184620,note_on,,,,,0,0,1,,,,,0,,,79,33
184665,note_on,,,,,105,0,2,,,,,0,,,71,0
184665,note_on,,,,,45,0,1,,,,,0,,,79,0
184670,set_tempo,,,,,300,1,0,,371517,,,,,,,
184680,note_on,,,,,15,0,2,,,,,0,,,67,34
184680,note_on,,,,,15,0,1,,,,,0,,,75,37
184740,note_on,,,,,0,0,1,,,,,0,,,78,30
184740,note_on,,,,,60,0,1,,,,,0,,,75,0
184785,note_on,,,,,45,0,1,,,,,0,,,78,0
184785,note_on,,,,,105,0,2,,,,,0,,,67,0
184795,control_change,,,,,10,0,1,,,,,0,64,0,,
184800,note_on,,,,,15,0,2,,,,,0,,,72,34
184800,note_on,,,,,5,0,1,,,,,0,,,76,40
184800,control_change,,,,,0,0,1,,,,,0,64,96,,
184820,set_tempo,,,,,150,1,0,,377358,,,,,,,
184860,note_on,,,,,60,0,1,,,,,0,,,76,0
184860,note_on,,,,,0,0,1,,,,,0,,,79,31
184905,note_on,,,,,45,0,1,,,,,0,,,79,0
184905,note_on,,,,,105,0,2,,,,,0,,,72,0
184920,note_on,,,,,15,0,1,,,,,0,,,72,37
184920,note_on,,,,,15,0,2,,,,,0,,,69,34
184950,set_tempo,,,,,130,1,0,,394736,,,,,,,
184980,note_on,,,,,60,0,1,,,,,0,,,72,0
184980,note_on,,,,,0,0,1,,,,,0,,,76,27
185025,note_on,,,,,105,0,2,,,,,0,,,69,0
185025,note_on,,,,,45,0,1,,,,,0,,,76,0
185035,control_change,,,,,10,0,1,,,,,0,64,0,,
185040,note_on,,,,,5,0,1,,,,,0,,,71,35
185040,note_on,,,,,15,0,2,,,,,0,,,66,33
185040,control_change,,,,,0,0,1,,,,,0,64,96,,
185100,note_on,,,,,60,0,1,,,,,0,,,71,0
185100,note_on,,,,,0,0,1,,,,,0,,,74,25
185145,note_on,,,,,105,0,2,,,,,0,,,66,0
185145,note_on,,,,,45,0,1,,,,,0,,,74,0
185160,note_on,,,,,15,0,1,,,,,0,,,69,31
185160,note_on,,,,,15,0,2,,,,,0,,,62,31
185220,note_on,,,,,0,0,1,,,,,0,,,72,23
185220,note_on,,,,,60,0,1,,,,,0,,,69,0
185265,note_on,,,,,45,0,1,,,,,0,,,72,0
185265,note_on,,,,,105,0,2,,,,,0,,,62,0
185280,note_on,,,,,15,0,1,,,,,0,,,67,30
185280,note_on,,,,,15,0,2,,,,,0,,,55,29
185340,note_on,,,,,60,0,1,,,,,0,,,67,0
185340,note_on,,,,,0,0,1,,,,,0,,,71,19
185385,note_on,,,,,105,0,2,,,,,0,,,55,0
185385,control_change,,,,,0,0,1,,,,,0,64,0,,
185385,note_on,,,,,45,0,1,,,,,0,,,71,0
185400,control_change,,,,,0,0,1,,,,,0,64,95,,
185400,note_on,,,,,15,0,1,,,,,0,,,62,40
185400,note_on,,,,,15,0,2,,,,,0,,,59,34
185400,note_on,,,,,0,0,2,,,,,0,,,50,34
185420,set_tempo,,,,,470,1,0,,383386,,,,,,,
185460,note_on,,,,,60,0,1,,,,,0,,,62,0
185460,note_on,,,,,0,0,1,,,,,0,,,67,32
185505,note_on,,,,,45,0,1,,,,,0,,,67,0
185520,note_on,,,,,0,0,2,,,,,0,,,60,33
185520,note_on,,,,,15,0,1,,,,,0,,,64,42
185520,note_on,,,,,120,0,2,,,,,0,,,59,0
185570,set_tempo,,,,,150,1,0,,378548,,,,,,,
185580,note_on,,,,,60,0,1,,,,,0,,,64,0
185580,note_on,,,,,0,0,1,,,,,0,,,69,34
185595,note_on,,,,,0,0,2,,,,,0,,,50,0
185595,note_on,,,,,75,0,2,,,,,0,,,60,0
185625,note_on,,,,,45,0,1,,,,,0,,,69,0
185640,note_on,,,,,0,0,2,,,,,0,,,50,35
185640,note_on,,,,,45,0,2,,,,,0,,,62,35
185640,note_on,,,,,15,0,1,,,,,0,,,66,45
185700,note_on,,,,,60,0,1,,,,,0,,,66,0
185700,note_on,,,,,0,0,1,,,,,0,,,72,36
185745,note_on,,,,,45,0,1,,,,,0,,,72,0
185750,set_tempo,,,,,180,1,0,,369230,,,,,,,
185760,note_on,,,,,15,0,1,,,,,0,,,67,47
185820,note_on,,,,,60,0,1,,,,,0,,,67,0
185820,note_on,,,,,0,0,1,,,,,0,,,71,29
185835,note_on,,,,,0,0,2,,,,,0,,,62,0
185835,note_on,,,,,195,0,2,,,,,0,,,50,0
185865,control_change,,,,,0,0,1,,,,,0,64,0,,
185865,note_on,,,,,45,0,1,,,,,0,,,71,0
185880,note_on,,,,,45,0,2,,,,,0,,,59,34
185880,note_on,,,,,0,0,2,,,,,0,,,50,34
185880,note_on,,,,,15,0,1,,,,,0,,,62,40
185880,control_change,,,,,0,0,1,,,,,0,64,95,,
185940,note_on,,,,,60,0,1,,,,,0,,,62,0
185940,note_on,,,,,0,0,1,,,,,0,,,67,32
185985,note_on,,,,,45,0,1,,,,,0,,,67,0
186000,note_on,,,,,15,0,1,,,,,0,,,64,42
186000,note_on,,,,,120,0,2,,,,,0,,,59,0
186000,note_on,,,,,0,0,2,,,,,0,,,60,33
186010,set_tempo,,,,,260,1,0,,365853,,,,,,,
186060,note_on,,,,,60,0,1,,,,,0,,,64,0
186060,note_on,,,,,0,0,1,,,,,0,,,69,34
186075,note_on,,,,,0,0,2,,,,,0,,,50,0
186075,note_on,,,,,75,0,2,,,,,0,,,60,0
186105,note_on,,,,,45,0,1,,,,,0,,,69,0
186120,note_on,,,,,0,0,2,,,,,0,,,62,34
186120,note_on,,,,,15,0,1,,,,,0,,,66,45
186120,note_on,,,,,45,0,2,,,,,0,,,50,34
186180,note_on,,,,,60,0,1,,,,,0,,,66,0
186180,note_on,,,,,0,0,1,,,,,0,,,72,36
186225,note_on,,,,,45,0,1,,,,,0,,,72,0
186240,note_on,,,,,120,0,2,,,,,0,,,50,0
186240,note_on,,,,,15,0,1,,,,,0,,,67,47
186240,note_on,,,,,0,0,2,,,,,0,,,55,40
186300,note_on,,,,,60,0,1,,,,,0,,,67,0
186300,note_on,,,,,0,0,1,,,,,0,,,71,29
186315,note_on,,,,,75,0,2,,,,,0,,,55,0
186315,note_on,,,,,0,0,2,,,,,0,,,62,0
186345,control_change,,,,,0,0,1,,,,,0,64,0,,
186345,note_on,,,,,45,0,1,,,,,0,,,71,0
186360,note_on,,,,,45,0,2,,,,,0,,,62,42
186360,control_change,,,,,0,0,1,,,,,0,64,95,,
186360,note_on,,,,,15,0,1,,,,,0,,,65,46
186420,note_on,,,,,0,0,1,,,,,0,,,69,36
186420,note_on,,,,,60,0,1,,,,,0,,,65,0
186465,note_on,,,,,45,0,1,,,,,0,,,69,0
186465,note_on,,,,,105,0,2,,,,,0,,,62,0
186480,note_on,,,,,15,0,1,,,,,0,,,64,41
186480,note_on,,,,,15,0,2,,,,,0,,,59,39
186540,note_on,,,,,60,0,1,,,,,0,,,64,0
186540,note_on,,,,,0,0,1,,,,,0,,,67,33
186550,set_tempo,,,,,540,1,0,,373831,,,,,,,
186585,note_on,,,,,105,0,2,,,,,0,,,59,0
186585,note_on,,,,,45,0,1,,,,,0,,,67,0
186600,note_on,,,,,15,0,2,,,,,0,,,55,34
186600,note_on,,,,,15,0,1,,,,,0,,,63,37
186610,set_tempo,,,,,60,1,0,,372670,,,,,,,
186660,note_on,,,,,0,0,1,,,,,0,,,66,30
186660,note_on,,,,,60,0,1,,,,,0,,,63,0
186705,note_on,,,,,105,0,2,,,,,0,,,55,0
186705,note_on,,,,,45,0,1,,,,,0,,,66,0
186715,control_change,,,,,10,0,1,,,,,0,64,0,,
186720,control_change,,,,,0,0,1,,,,,0,64,96,,
186720,note_on,,,,,5,0,1,,,,,0,,,64,40
186720,note_on,,,,,15,0,2,,,,,0,,,60,34
186780,note_on,,,,,60,0,1,,,,,0,,,64,0
186780,note_on,,,,,0,0,1,,,,,0,,,67,31
186820,set_tempo,,,,,210,1,0,,377358,,,,,,,
186825,note_on,,,,,105,0,2,,,,,0,,,60,0
186825,note_on,,,,,45,0,1,,,,,0,,,67,0
186840,note_on,,,,,15,0,2,,,,,0,,,57,34
186840,note_on,,,,,15,0,1,,,,,0,,,60,37
186900,note_on,,,,,0,0,1,,,,,0,,,64,27
186900,note_on,,,,,60,0,1,,,,,0,,,60,0
186945,note_on,,,,,105,0,2,,,,,0,,,57,0
186945,note_on,,,,,45,0,1,,,,,0,,,64,0
186955,control_change,,,,,10,0,1,,,,,0,64,0,,
186960,control_change,,,,,0,0,1,,,,,0,64,96,,
186960,note_on,,,,,5,0,1,,,,,0,,,59,35
186960,note_on,,,,,15,0,2,,,,,0,,,54,33
186980,set_tempo,,,,,160,1,0,,383386,,,,,,,
187020,note_on,,,,,60,0,1,,,,,0,,,59,0
187020,note_on,,,,,0,0,1,,,,,0,,,62,25
187050,set_tempo,,,,,70,1,0,,388349,,,,,,,
187065,note_on,,,,,105,0,2,,,,,0,,,54,0
187065,note_on,,,,,45,0,1,,,,,0,,,62,0
187070,set_tempo,,,,,20,1,0,,389610,,,,,,,
187080,note_on,,,,,15,0,2,,,,,0,,,50,31
187080,note_on,,,,,15,0,1,,,,,0,,,57,31
187140,note_on,,,,,60,0,1,,,,,0,,,57,0
187140,note_on,,,,,0,0,1,,,,,0,,,60,23
187160,set_tempo,,,,,90,1,0,,397350,,,,,,,
187185,note_on,,,,,105,0,2,,,,,0,,,50,0
187185,note_on,,,,,45,0,1,,,,,0,,,60,0
187200,note_on,,,,,15,0,2,,,,,0,,,43,29
187200,note_on,,,,,15,0,1,,,,,0,,,55,30
187260,note_on,,,,,60,0,1,,,,,0,,,55,0
187260,note_on,,,,,0,0,1,,,,,0,,,59,24
187305,note_on,,,,,45,0,1,,,,,0,,,59,0
187305,control_change,,,,,0,0,1,,,,,0,64,0,,
187305,note_on,,,,,105,0,2,,,,,0,,,43,0
187320,note_on,,,,,15,0,1,,,,,0,,,60,25
187320,control_change,,,,,0,0,1,,,,,0,64,96,,
187320,set_tempo,,,,,160,1,0,,389610,,,,,,,
187320,note_on,,,,,15,0,2,,,,,0,,,50,30
187320,note_on,,,,,0,0,2,,,,,0,,,43,30
187380,note_on,,,,,0,0,1,,,,,0,,,64,26
187380,note_on,,,,,60,0,1,,,,,0,,,60,0
187440,note_on,,,,,0,0,1,,,,,0,,,59,28
187440,note_on,,,,,60,0,1,,,,,0,,,64,0
187450,set_tempo,,,,,130,1,0,,385852,,,,,,,
187460,set_tempo,,,,,10,1,0,,384615,,,,,,,
187500,note_on,,,,,60,0,1,,,,,0,,,59,0
187500,note_on,,,,,0,0,1,,,,,0,,,62,29
187560,note_on,,,,,0,0,1,,,,,0,,,66,31
187560,note_on,,,,,60,0,1,,,,,0,,,62,0
187610,set_tempo,,,,,150,1,0,,377358,,,,,,,
187620,note_on,,,,,60,0,1,,,,,0,,,66,0
187620,note_on,,,,,0,0,1,,,,,0,,,72,32
187665,note_on,,,,,45,0,1,,,,,0,,,72,0
187680,note_on,,,,,15,0,1,,,,,0,,,67,34
187740,set_tempo,,,,,130,1,0,,368098,,,,,,,
187740,note_on,,,,,60,0,1,,,,,0,,,67,0
187740,note_on,,,,,0,0,1,,,,,0,,,71,35
187785,note_on,,,,,465,0,2,,,,,0,,,43,0
187785,control_change,,,,,45,0,1,,,,,0,64,0,,
187785,note_on,,,,,0,0,2,,,,,0,,,50,0
187800,note_on,,,,,15,0,1,,,,,0,,,71,0
187800,note_on,,,,,0,0,1,,,,,0,,,72,36
187800,control_change,,,,,0,0,1,,,,,0,64,96,,
187800,note_on,,,,,15,0,2,,,,,0,,,50,37
187800,note_on,,,,,0,0,2,,,,,0,,,43,37
187860,note_on,,,,,60,0,1,,,,,0,,,72,0
187860,note_on,,,,,0,0,1,,,,,0,,,76,37
187890,set_tempo,,,,,150,1,0,,362537,,,,,,,
187920,note_on,,,,,60,0,1,,,,,0,,,76,0
187920,note_on,,,,,0,0,1,,,,,0,,,71,40
187960,set_tempo,,,,,70,1,0,,357142,,,,,,,
187980,set_tempo,,,,,20,1,0,,355029,,,,,,,
187980,note_on,,,,,0,0,1,,,,,0,,,74,41
187980,note_on,,,,,60,0,1,,,,,0,,,71,0
188040,note_on,,,,,60,0,1,,,,,0,,,74,0
188040,note_on,,,,,0,0,1,,,,,0,,,78,43
188060,set_tempo,,,,,80,1,0,,350877,,,,,,,
188100,note_on,,,,,60,0,1,,,,,0,,,78,0
188100,note_on,,,,,0,0,1,,,,,0,,,84,44
188145,note_on,,,,,45,0,1,,,,,0,,,84,0
188150,set_tempo,,,,,90,1,0,,344827,,,,,,,
188160,note_on,,,,,15,0,1,,,,,0,,,79,46
188160,set_tempo,,,,,10,1,0,,343839,,,,,,,
188220,note_on,,,,,0,0,1,,,,,0,,,83,47
188220,note_on,,,,,60,0,1,,,,,0,,,79,0
188265,note_on,,,,,465,0,2,,,,,0,,,43,0
188265,note_on,,,,,0,0,2,,,,,0,,,50,0
188265,control_change,,,,,45,0,1,,,,,0,64,0,,
188280,control_change,,,,,0,0,1,,,,,0,64,97,,
188280,note_on,,,,,0,0,1,,,,,0,,,84,49
188280,note_on,,,,,15,0,1,,,,,0,,,83,0
188280,note_on,,,,,0,0,2,,,,,0,,,43,42
188280,note_on,,,,,15,0,2,,,,,0,,,50,42
188340,note_on,,,,,0,0,1,,,,,0,,,88,50
188340,note_on,,,,,60,0,1,,,,,0,,,84,0
188400,note_on,,,,,60,0,1,,,,,0,,,88,0
188400,note_on,,,,,0,0,1,,,,,0,,,83,53
188460,note_on,,,,,60,0,1,,,,,0,,,83,0
188460,note_on,,,,,0,0,1,,,,,0,,,86,56
188517,note_on,,,,,57,0,1,,,,,0,,,86,0
188520,set_tempo,,,,,360,1,0,,350877,,,,,,,
188520,note_on,,,,,3,0,1,,,,,0,,,90,57
188574,note_on,,,,,54,0,1,,,,,0,,,90,0
188580,note_on,,,,,6,0,1,,,,,0,,,96,60
188631,note_on,,,,,51,0,1,,,,,0,,,96,0
188640,note_on,,,,,9,0,1,,,,,0,,,95,60
188691,note_on,,,,,51,0,1,,,,,0,,,95,0
188700,note_on,,,,,9,0,1,,,,,0,,,91,59
188745,note_on,,,,,0,0,2,,,,,0,,,50,0
188745,note_on,,,,,465,0,2,,,,,0,,,43,0
188751,note_on,,,,,51,0,1,,,,,0,,,91,0
188755,control_change,,,,,4,0,1,,,,,0,64,0,,
188760,control_change,,,,,0,0,1,,,,,0,64,96,,
188760,note_on,,,,,5,0,1,,,,,0,,,88,56
188760,note_on,,,,,0,0,2,,,,,0,,,50,44
188760,note_on,,,,,15,0,2,,,,,0,,,43,44
188820,note_on,,,,,0,0,1,,,,,0,,,84,51
188820,note_on,,,,,60,0,1,,,,,0,,,88,0
188850,set_tempo,,,,,330,1,0,,358208,,,,,,,
188880,note_on,,,,,60,0,1,,,,,0,,,84,0
188880,note_on,,,,,0,0,1,,,,,0,,,83,48
188931,note_on,,,,,51,0,1,,,,,0,,,83,0
188940,note_on,,,,,9,0,1,,,,,0,,,79,46
188991,note_on,,,,,51,0,1,,,,,0,,,79,0
189000,note_on,,,,,9,0,1,,,,,0,,,86,43
189000,set_tempo,,,,,150,1,0,,368098,,,,,,,
189060,note_on,,,,,60,0,1,,,,,0,,,86,0
189060,note_on,,,,,0,0,1,,,,,0,,,81,46
189120,note_on,,,,,60,0,1,,,,,0,,,81,0
189120,note_on,,,,,0,0,1,,,,,0,,,83,49
189171,note_on,,,,,51,0,1,,,,,0,,,83,0
189180,note_on,,,,,9,0,1,,,,,0,,,79,49
189220,set_tempo,,,,,220,1,0,,375000,,,,,,,
189225,note_on,,,,,0,0,2,,,,,0,,,43,0
189225,note_on,,,,,465,0,2,,,,,0,,,50,0
189231,note_on,,,,,51,0,1,,,,,0,,,79,0
189235,control_change,,,,,4,0,1,,,,,0,64,0,,
189240,note_on,,,,,5,0,1,,,,,0,,,76,46
189240,control_change,,,,,0,0,1,,,,,0,64,96,,
189240,note_on,,,,,15,0,2,,,,,0,,,43,38
189240,note_on,,,,,0,0,2,,,,,0,,,50,38
189300,note_on,,,,,60,0,1,,,,,0,,,76,0
189300,note_on,,,,,0,0,1,,,,,0,,,72,45
189350,set_tempo,,,,,130,1,0,,379746,,,,,,,
189360,note_on,,,,,60,0,1,,,,,0,,,72,0
189360,note_on,,,,,0,0,1,,,,,0,,,71,41
189400,set_tempo,,,,,50,1,0,,383386,,,,,,,
189411,note_on,,,,,51,0,1,,,,,0,,,71,0
189420,note_on,,,,,9,0,1,,,,,0,,,67,39
189471,note_on,,,,,51,0,1,,,,,0,,,67,0
189480,note_on,,,,,9,0,1,,,,,0,,,74,37
189540,note_on,,,,,0,0,1,,,,,0,,,69,40
189540,note_on,,,,,60,0,1,,,,,0,,,74,0
189580,set_tempo,,,,,180,1,0,,389610,,,,,,,
189600,note_on,,,,,60,0,1,,,,,0,,,69,0
189601,note_on,,,,,1,0,1,,,,,0,,,71,40
189652,note_on,,,,,51,0,1,,,,,0,,,71,0
189661,note_on,,,,,9,0,1,,,,,0,,,67,36
189705,note_on,,,,,465,0,2,,,,,0,,,50,0
189705,note_on,,,,,0,0,2,,,,,0,,,43,0
189712,note_on,,,,,51,0,1,,,,,0,,,67,0
189715,control_change,,,,,3,0,1,,,,,0,64,0,,
189720,note_on,,,,,0,0,2,,,,,0,,,50,34
189720,control_change,,,,,5,0,1,,,,,0,64,94,,
189720,note_on,,,,,15,0,2,,,,,0,,,43,34
189721,note_on,,,,,1,0,1,,,,,0,,,64,34
189781,note_on,,,,,0,0,1,,,,,0,,,60,32
189781,note_on,,,,,60,0,1,,,,,0,,,64,0
189790,set_tempo,,,,,210,1,0,,393442,,,,,,,
189841,note_on,,,,,60,0,1,,,,,0,,,60,0
189841,note_on,,,,,0,0,1,,,,,0,,,59,32
189900,note_on,,,,,59,0,1,,,,,0,,,55,32
189901,note_on,,,,,1,0,1,,,,,0,,,59,0
189959,note_on,,,,,58,0,1,,,,,0,,,55,0
189960,note_on,,,,,1,0,1,,,,,0,,,62,32
189960,set_tempo,,,,,170,1,0,,405405,,,,,,,
190019,note_on,,,,,59,0,1,,,,,0,,,62,0
190020,note_on,,,,,1,0,1,,,,,0,,,57,32
190079,note_on,,,,,59,0,1,,,,,0,,,57,0
190080,note_on,,,,,1,0,1,,,,,0,,,59,32
190090,set_tempo,,,,,130,1,0,,408163,,,,,,,
190110,set_tempo,,,,,20,1,0,,410958,,,,,,,
190139,note_on,,,,,59,0,1,,,,,0,,,59,0
190140,note_on,,,,,1,0,1,,,,,0,,,55,32
190185,note_on,,,,,465,0,2,,,,,0,,,50,0
190185,note_on,,,,,0,0,2,,,,,0,,,43,0
190195,control_change,,,,,55,0,1,,,,,0,64,0,,
190199,note_on,,,,,4,0,1,,,,,0,,,55,0
190200,note_on,,,,,15,0,2,,,,,0,,,42,41
190200,control_change,,,,,0,0,1,,,,,0,64,95,,
190200,note_on,,,,,1,0,1,,,,,0,,,62,33
190200,set_tempo,,,,,90,1,0,,413793,,,,,,,
190259,note_on,,,,,59,0,1,,,,,0,,,62,0
190259,note_on,,,,,59,0,2,,,,,0,,,42,0
190260,note_on,,,,,1,0,1,,,,,0,,,57,34
190319,note_on,,,,,59,0,1,,,,,0,,,57,0
190320,note_on,,,,,61,0,2,,,,,0,,,43,41
190320,note_on,,,,,1,0,1,,,,,0,,,59,35
190340,set_tempo,,,,,140,1,0,,419580,,,,,,,
190360,set_tempo,,,,,20,1,0,,422535,,,,,,,
190379,note_on,,,,,59,0,1,,,,,0,,,59,0
190379,note_on,,,,,59,0,2,,,,,0,,,43,0
190380,note_on,,,,,1,0,1,,,,,0,,,55,38
190435,control_change,,,,,55,0,1,,,,,0,64,0,,
190439,note_on,,,,,4,0,1,,,,,0,,,55,0
190440,note_on,,,,,0,0,1,,,,,0,,,62,40
190440,control_change,,,,,1,0,1,,,,,0,64,95,,
190440,note_on,,,,,61,0,2,,,,,0,,,50,41
190499,note_on,,,,,59,0,1,,,,,0,,,62,0
190499,note_on,,,,,59,0,2,,,,,0,,,50,0
190500,note_on,,,,,1,0,1,,,,,0,,,57,42
190550,set_tempo,,,,,190,1,0,,421052,,,,,,,
190559,note_on,,,,,59,0,1,,,,,0,,,57,0
190560,note_on,,,,,61,0,2,,,,,0,,,55,40
190560,note_on,,,,,1,0,1,,,,,0,,,59,44
190610,set_tempo,,,,,60,1,0,,409556,,,,,,,
190619,note_on,,,,,59,0,1,,,,,0,,,59,0
190619,note_on,,,,,59,0,2,,,,,0,,,55,0
190620,note_on,,,,,1,0,1,,,,,0,,,55,45
190620,set_tempo,,,,,10,1,0,,408163,,,,,,,
190676,control_change,,,,,56,0,1,,,,,0,64,0,,
190679,note_on,,,,,3,0,1,,,,,0,,,55,0
190680,note_on,,,,,61,0,2,,,,,0,,,66,41
190680,note_on,,,,,1,0,1,,,,,0,,,62,46
190681,control_change,,,,,1,0,1,,,,,0,64,95,,
190730,set_tempo,,,,,110,1,0,,394736,,,,,,,
190739,note_on,,,,,59,0,2,,,,,0,,,66,0
190739,note_on,,,,,58,0,1,,,,,0,,,62,0
190740,note_on,,,,,1,0,1,,,,,0,,,57,47
190799,note_on,,,,,59,0,1,,,,,0,,,57,0
190800,note_on,,,,,1,0,1,,,,,0,,,59,48
190800,note_on,,,,,61,0,2,,,,,0,,,67,44
190820,set_tempo,,,,,90,1,0,,390879,,,,,,,
190830,set_tempo,,,,,10,1,0,,389610,,,,,,,
190859,note_on,,,,,59,0,1,,,,,0,,,59,0
190859,note_on,,,,,59,0,2,,,,,0,,,67,0
190860,note_on,,,,,1,0,1,,,,,0,,,55,49
190917,control_change,,,,,57,0,1,,,,,0,64,0,,
190919,note_on,,,,,2,0,1,,,,,0,,,55,0
190920,note_on,,,,,1,0,1,,,,,0,,,62,50
190920,note_on,,,,,61,0,2,,,,,0,,,69,46
190922,control_change,,,,,2,0,1,,,,,0,64,95,,
190930,set_tempo,,,,,100,1,0,,378548,,,,,,,
190979,note_on,,,,,59,0,2,,,,,0,,,69,0
190979,note_on,,,,,57,0,1,,,,,0,,,62,0
190980,note_on,,,,,1,0,1,,,,,0,,,57,50
191010,set_tempo,,,,,80,1,0,,375000,,,,,,,
191039,note_on,,,,,59,0,1,,,,,0,,,57,0
191040,note_on,,,,,61,0,2,,,,,0,,,74,48
191040,control_change,,,,,0,0,1,,,,,0,64,0,,
191040,note_on,,,,,1,0,1,,,,,0,,,59,52
191099,note_on,,,,,59,0,1,,,,,0,,,59,0
191099,note_on,,,,,59,0,2,,,,,0,,,74,0
191100,note_on,,,,,1,0,1,,,,,0,,,55,54
191120,set_tempo,,,,,110,1,0,,372670,,,,,,,
191130,set_tempo,,,,,10,1,0,,370370,,,,,,,
191140,set_tempo,,,,,10,1,0,,369230,,,,,,,
191159,note_on,,,,,59,0,1,,,,,0,,,55,0
191160,note_on,,,,,1,0,1,,,,,0,,,62,56
191160,note_on,,,,,61,0,2,,,,,0,,,78,50
191163,control_change,,,,,3,0,1,,,,,0,64,95,,
191219,note_on,,,,,59,0,2,,,,,0,,,78,0
191219,note_on,,,,,56,0,1,,,,,0,,,62,0
191220,note_on,,,,,1,0,1,,,,,0,,,57,57
191230,set_tempo,,,,,90,1,0,,364741,,,,,,,
191279,note_on,,,,,59,0,1,,,,,0,,,57,0
191280,note_on,,,,,61,0,2,,,,,0,,,79,50
191280,note_on,,,,,1,0,1,,,,,0,,,59,58
191280,control_change,,,,,0,0,1,,,,,0,64,0,,
191339,note_on,,,,,59,0,1,,,,,0,,,59,0
191339,note_on,,,,,59,0,2,,,,,0,,,79,0
191340,note_on,,,,,1,0,1,,,,,0,,,55,59
191399,note_on,,,,,59,0,1,,,,,0,,,55,0
191400,control_change,,,,,0,0,1,,,,,0,64,96,,
191400,note_on,,,,,1,0,1,,,,,0,,,62,61
191400,note_on,,,,,61,0,2,,,,,0,,,81,52
191420,set_tempo,,,,,190,1,0,,363636,,,,,,,
191430,set_tempo,,,,,10,1,0,,360360,,,,,,,
191459,note_on,,,,,59,0,1,,,,,0,,,62,0
191459,note_on,,,,,59,0,2,,,,,0,,,81,0
191460,note_on,,,,,1,0,1,,,,,0,,,57,61
191519,note_on,,,,,59,0,1,,,,,0,,,57,0
191520,note_on,,,,,1,0,1,,,,,0,,,59,61
191520,control_change,,,,,0,0,1,,,,,0,64,0,,
191520,note_on,,,,,61,0,2,,,,,0,,,86,52
191579,note_on,,,,,59,0,2,,,,,0,,,86,0
191579,note_on,,,,,59,0,1,,,,,0,,,59,0
191580,note_on,,,,,1,0,1,,,,,0,,,55,60
191580,set_tempo,,,,,150,1,0,,368098,,,,,,,
191639,note_on,,,,,59,0,1,,,,,0,,,55,0
191640,control_change,,,,,0,0,1,,,,,0,64,95,,
191640,note_on,,,,,61,0,2,,,,,0,,,78,54
191640,note_on,,,,,1,0,1,,,,,0,,,62,58
191699,note_on,,,,,59,0,2,,,,,0,,,78,0
191699,note_on,,,,,59,0,1,,,,,0,,,62,0
191700,note_on,,,,,1,0,1,,,,,0,,,57,56
191759,note_on,,,,,59,0,1,,,,,0,,,57,0
191760,note_on,,,,,1,0,1,,,,,0,,,59,53
191760,control_change,,,,,0,0,1,,,,,0,64,0,,
191760,note_on,,,,,61,0,2,,,,,0,,,79,54
191800,set_tempo,,,,,220,1,0,,380952,,,,,,,
191819,note_on,,,,,59,0,1,,,,,0,,,59,0
191819,note_on,,,,,59,0,2,,,,,0,,,79,0
191820,note_on,,,,,1,0,1,,,,,0,,,55,52
191879,note_on,,,,,59,0,1,,,,,0,,,55,0
191880,note_on,,,,,61,0,2,,,,,0,,,74,54
191880,set_tempo,,,,,80,1,0,,379746,,,,,,,
191880,note_on,,,,,1,0,1,,,,,0,,,62,50
191880,control_change,,,,,0,0,1,,,,,0,64,95,,
191939,note_on,,,,,59,0,2,,,,,0,,,74,0
191939,note_on,,,,,59,0,1,,,,,0,,,62,0
191940,note_on,,,,,1,0,1,,,,,0,,,57,49
191999,note_on,,,,,59,0,1,,,,,0,,,57,0
192000,control_change,,,,,0,0,1,,,,,0,64,0,,
192000,note_on,,,,,1,0,1,,,,,0,,,59,48
192000,note_on,,,,,61,0,2,,,,,0,,,74,55
192059,note_on,,,,,59,0,1,,,,,0,,,59,0
192059,note_on,,,,,59,0,2,,,,,0,,,74,0
192060,note_on,,,,,1,0,1,,,,,0,,,55,47
192060,set_tempo,,,,,180,1,0,,378548,,,,,,,
192100,set_tempo,,,,,40,1,0,,388349,,,,,,,
192119,note_on,,,,,59,0,1,,,,,0,,,55,0
192120,note_on,,,,,61,0,2,,,,,0,,,66,55
192120,note_on,,,,,1,0,1,,,,,0,,,62,45
192120,control_change,,,,,0,0,1,,,,,0,64,95,,
192179,note_on,,,,,59,0,1,,,,,0,,,62,0
192179,note_on,,,,,59,0,2,,,,,0,,,66,0
192180,note_on,,,,,1,0,1,,,,,0,,,57,45
192239,note_on,,,,,59,0,1,,,,,0,,,57,0
192240,note_on,,,,,61,0,2,,,,,0,,,67,55
192240,note_on,,,,,1,0,1,,,,,0,,,59,44
192240,control_change,,,,,0,0,1,,,,,0,64,0,,
192260,set_tempo,,,,,160,1,0,,392156,,,,,,,
192299,note_on,,,,,59,0,2,,,,,0,,,67,0
192299,note_on,,,,,59,0,1,,,,,0,,,59,0
192300,note_on,,,,,1,0,1,,,,,0,,,55,42
192350,set_tempo,,,,,90,1,0,,397350,,,,,,,
192359,note_on,,,,,59,0,1,,,,,0,,,55,0
192360,control_change,,,,,0,0,1,,,,,0,64,96,,
192360,note_on,,,,,61,0,2,,,,,0,,,54,53
192360,note_on,,,,,1,0,1,,,,,0,,,62,41
192370,set_tempo,,,,,20,1,0,,398671,,,,,,,
192419,note_on,,,,,59,0,1,,,,,0,,,62,0
192419,note_on,,,,,59,0,2,,,,,0,,,54,0
192420,note_on,,,,,1,0,1,,,,,0,,,57,40
192450,set_tempo,,,,,80,1,0,,405405,,,,,,,
192479,note_on,,,,,59,0,1,,,,,0,,,57,0
192480,note_on,,,,,1,0,1,,,,,0,,,59,39
192480,note_on,,,,,61,0,2,,,,,0,,,55,52
192480,control_change,,,,,0,0,1,,,,,0,64,0,,
192539,note_on,,,,,59,0,1,,,,,0,,,59,0
192539,note_on,,,,,59,0,2,,,,,0,,,55,0
192540,note_on,,,,,1,0,1,,,,,0,,,55,39
192599,note_on,,,,,59,0,1,,,,,0,,,55,0
192600,note_on,,,,,1,0,1,,,,,0,,,62,39
192600,control_change,,,,,0,0,1,,,,,0,64,95,,
192600,note_on,,,,,61,0,2,,,,,0,,,50,51
192640,set_tempo,,,,,190,1,0,,410958,,,,,,,
192659,note_on,,,,,59,0,1,,,,,0,,,62,0
192659,note_on,,,,,59,0,2,,,,,0,,,50,0
192660,note_on,,,,,1,0,1,,,,,0,,,57,37
192719,note_on,,,,,59,0,1,,,,,0,,,57,0
192720,note_on,,,,,1,0,1,,,,,0,,,59,37
192720,control_change,,,,,0,0,1,,,,,0,64,0,,
192720,note_on,,,,,61,0,2,,,,,0,,,50,50
192779,note_on,,,,,59,0,1,,,,,0,,,59,0
192779,note_on,,,,,59,0,2,,,,,0,,,50,0
192780,note_on,,,,,1,0,1,,,,,0,,,55,36
192839,note_on,,,,,59,0,1,,,,,0,,,55,0
192840,note_on,,,,,1,0,1,,,,,0,,,62,35
192840,control_change,,,,,0,0,1,,,,,0,64,95,,
192840,note_on,,,,,61,0,2,,,,,0,,,42,48
192880,set_tempo,,,,,240,1,0,,428571,,,,,,,
192899,note_on,,,,,59,0,1,,,,,0,,,62,0
192899,note_on,,,,,59,0,2,,,,,0,,,42,0
192900,note_on,,,,,1,0,1,,,,,0,,,57,34
192959,note_on,,,,,59,0,1,,,,,0,,,57,0
192960,note_on,,,,,61,0,2,,,,,0,,,43,47
192960,note_on,,,,,1,0,1,,,,,0,,,59,33
192960,control_change,,,,,0,0,1,,,,,0,64,0,,
193019,note_on,,,,,59,0,1,,,,,0,,,59,0
193019,note_on,,,,,59,0,2,,,,,0,,,43,0
193020,note_on,,,,,1,0,1,,,,,0,,,55,33
193079,note_on,,,,,59,0,1,,,,,0,,,55,0
193080,control_change,,,,,0,0,1,,,,,0,64,95,,
193080,note_on,,,,,61,0,2,,,,,0,,,38,44
193080,note_on,,,,,1,0,1,,,,,0,,,62,33
193139,note_on,,,,,59,0,2,,,,,0,,,38,0
193139,note_on,,,,,59,0,1,,,,,0,,,62,0
193140,note_on,,,,,1,0,1,,,,,0,,,57,33
193199,note_on,,,,,59,0,1,,,,,0,,,57,0
193200,note_on,,,,,1,0,1,,,,,0,,,59,32
193200,note_on,,,,,61,0,2,,,,,0,,,38,42
193200,set_tempo,,,,,320,1,0,,434782,,,,,,,
193200,control_change,,,,,0,0,1,,,,,0,64,0,,
193259,note_on,,,,,59,0,1,,,,,0,,,59,0
193259,note_on,,,,,59,0,2,,,,,0,,,38,0
193260,set_tempo,,,,,60,1,0,,446096,,,,,,,
193260,note_on,,,,,1,0,1,,,,,0,,,55,31
193290,set_tempo,,,,,30,1,0,,452830,,,,,,,
193319,note_on,,,,,59,0,1,,,,,0,,,55,0
193320,control_change,,,,,0,0,1,,,,,0,64,95,,
193320,note_on,,,,,1,0,1,,,,,0,,,62,31
193320,note_on,,,,,61,0,2,,,,,0,,,30,39
193360,set_tempo,,,,,70,1,0,,454545,,,,,,,
193370,set_tempo,,,,,10,1,0,,461538,,,,,,,
193379,note_on,,,,,59,0,1,,,,,0,,,62,0
193379,note_on,,,,,59,0,2,,,,,0,,,30,0
193380,note_on,,,,,1,0,1,,,,,0,,,57,31
193435,control_change,,,,,55,0,1,,,,,0,64,0,,
193439,note_on,,,,,4,0,1,,,,,0,,,57,0
193440,note_on,,,,,61,0,2,,,,,0,,,31,37
193440,note_on,,,,,1,0,1,,,,,0,,,59,31
193440,control_change,,,,,0,0,1,,,,,0,64,94,,
193450,set_tempo,,,,,80,1,0,,449438,,,,,,,
193499,note_on,,,,,59,0,1,,,,,0,,,59,0
193500,note_on,,,,,1,0,1,,,,,0,,,55,29
193520,set_tempo,,,,,70,1,0,,444444,,,,,,,
193530,set_tempo,,,,,10,1,0,,441176,,,,,,,
193559,note_on,,,,,59,0,1,,,,,0,,,55,0
193560,note_on,,,,,1,0,1,,,,,0,,,59,32
193620,note_on,,,,,60,0,1,,,,,0,,,59,0
193620,note_on,,,,,0,0,1,,,,,0,,,62,36
193640,set_tempo,,,,,110,1,0,,427046,,,,,,,
193679,note_on,,,,,239,0,2,,,,,0,,,31,0
193680,note_on,,,,,60,0,1,,,,,0,,,62,0
193680,note_on,,,,,0,0,1,,,,,0,,,67,40
193740,note_on,,,,,60,0,1,,,,,0,,,67,0
193740,note_on,,,,,0,0,1,,,,,0,,,71,41
193800,note_on,,,,,60,0,1,,,,,0,,,71,0
193800,note_on,,,,,0,0,1,,,,,0,,,74,43
193830,set_tempo,,,,,190,1,0,,418118,,,,,,,
193860,note_on,,,,,0,0,1,,,,,0,,,79,45
193860,note_on,,,,,60,0,1,,,,,0,,,74,0
193905,control_change,,,,,0,0,1,,,,,0,64,0,,
193905,note_on,,,,,45,0,1,,,,,0,,,79,0
193910,set_tempo,,,,,80,1,0,,410958,,,,,,,
193920,note_on,,,,,15,0,1,,,,,0,,,83,48
193980,note_on,,,,,60,0,1,,,,,0,,,83,0
193980,note_on,,,,,0,0,1,,,,,0,,,79,40
194025,note_on,,,,,45,0,1,,,,,0,,,79,0
194040,note_on,,,,,15,0,1,,,,,0,,,82,44
194050,set_tempo,,,,,140,1,0,,402684,,,,,,,
194100,note_on,,,,,60,0,1,,,,,0,,,82,0
194100,note_on,,,,,0,0,1,,,,,0,,,78,35
194145,note_on,,,,,45,0,1,,,,,0,,,78,0
194150,set_tempo,,,,,100,1,0,,390879,,,,,,,
194160,note_on,,,,,15,0,1,,,,,0,,,83,45
194220,set_tempo,,,,,70,1,0,,389610,,,,,,,
194220,note_on,,,,,60,0,1,,,,,0,,,83,0
194220,note_on,,,,,0,0,1,,,,,0,,,79,38
194230,set_tempo,,,,,10,1,0,,382165,,,,,,,
194260,set_tempo,,,,,30,1,0,,380952,,,,,,,
194265,note_on,,,,,45,0,1,,,,,0,,,79,0
194280,note_on,,,,,15,0,1,,,,,0,,,82,50
194340,note_on,,,,,0,0,1,,,,,0,,,78,38
194340,note_on,,,,,60,0,1,,,,,0,,,82,0
194385,note_on,,,,,45,0,1,,,,,0,,,78,0
194400,note_on,,,,,15,0,1,,,,,0,,,83,52
194460,note_on,,,,,0,0,1,,,,,0,,,79,40
194460,note_on,,,,,60,0,1,,,,,0,,,83,0
194480,set_tempo,,,,,220,1,0,,375000,,,,,,,
194505,note_on,,,,,45,0,1,,,,,0,,,79,0
194520,note_on,,,,,15,0,1,,,,,0,,,82,47
194540,set_tempo,,,,,60,1,0,,366972,,,,,,,
194550,set_tempo,,,,,10,1,0,,363636,,,,,,,
194580,note_on,,,,,60,0,1,,,,,0,,,82,0
194580,note_on,,,,,0,0,1,,,,,0,,,78,37
194625,note_on,,,,,45,0,1,,,,,0,,,78,0
194640,note_on,,,,,15,0,1,,,,,0,,,83,50
194700,note_on,,,,,60,0,1,,,,,0,,,83,0
194700,note_on,,,,,0,0,1,,,,,0,,,79,39
194740,set_tempo,,,,,190,1,0,,359281,,,,,,,
194745,note_on,,,,,45,0,1,,,,,0,,,79,0
194750,set_tempo,,,,,10,1,0,,358208,,,,,,,
194760,note_on,,,,,15,0,1,,,,,0,,,82,54
194820,note_on,,,,,60,0,1,,,,,0,,,82,0
194820,note_on,,,,,0,0,1,,,,,0,,,78,40
194865,note_on,,,,,45,0,1,,,,,0,,,78,0
194870,set_tempo,,,,,120,1,0,,357142,,,,,,,
194880,note_on,,,,,15,0,1,,,,,0,,,83,55
194890,set_tempo,,,,,20,1,0,,353982,,,,,,,
194940,note_on,,,,,0,0,1,,,,,0,,,79,46
194940,note_on,,,,,60,0,1,,,,,0,,,83,0
194985,note_on,,,,,45,0,1,,,,,0,,,79,0
195000,note_on,,,,,15,0,1,,,,,0,,,80,50
195060,note_on,,,,,0,0,1,,,,,0,,,83,38
195060,note_on,,,,,60,0,1,,,,,0,,,80,0
195090,set_tempo,,,,,200,1,0,,352941,,,,,,,
195100,set_tempo,,,,,10,1,0,,355029,,,,,,,
195105,note_on,,,,,45,0,1,,,,,0,,,83,0
195110,set_tempo,,,,,10,1,0,,357142,,,,,,,
195120,note_on,,,,,15,0,1,,,,,0,,,81,49
195170,set_tempo,,,,,60,1,0,,370370,,,,,,,
195180,note_on,,,,,0,0,1,,,,,0,,,84,40
195180,note_on,,,,,60,0,1,,,,,0,,,81,0
195180,set_tempo,,,,,10,1,0,,375000,,,,,,,
195225,note_on,,,,,45,0,1,,,,,0,,,84,0
195240,note_on,,,,,15,0,1,,,,,0,,,82,50
195270,set_tempo,,,,,90,1,0,,400000,,,,,,,
195300,note_on,,,,,0,0,1,,,,,0,,,85,40
195300,note_on,,,,,60,0,1,,,,,0,,,82,0
195330,set_tempo,,,,,60,1,0,,419580,,,,,,,
195340,set_tempo,,,,,10,1,0,,425531,,,,,,,
195345,note_on,,,,,45,0,1,,,,,0,,,85,0
195360,note_on,,,,,15,0,1,,,,,0,,,83,53
195380,set_tempo,,,,,40,1,0,,431654,,,,,,,
195420,note_on,,,,,60,0,1,,,,,0,,,83,0
195420,note_on,,,,,0,0,1,,,,,0,,,86,40
195420,set_tempo,,,,,40,1,0,,442804,,,,,,,
195465,note_on,,,,,45,0,1,,,,,0,,,86,0
195480,note_on,,,,,15,0,1,,,,,0,,,82,48
195480,set_tempo,,,,,60,1,0,,451127,,,,,,,
195490,set_tempo,,,,,10,1,0,,472440,,,,,,,
195510,set_tempo,,,,,20,1,0,,476190,,,,,,,
195520,set_tempo,,,,,10,1,0,,483870,,,,,,,
195530,set_tempo,,,,,10,1,0,,487804,,,,,,,
195540,note_on,,,,,0,0,1,,,,,0,,,85,56
195540,note_on,,,,,60,0,1,,,,,0,,,82,0
195585,note_on,,,,,45,0,1,,,,,0,,,85,0
195590,set_tempo,,,,,60,1,0,,512820,,,,,,,
195600,note_on,,,,,15,0,1,,,,,0,,,83,64
195650,set_tempo,,,,,60,1,0,,521739,,,,,,,
195660,note_on,,,,,60,0,1,,,,,0,,,83,0
195660,set_tempo,,,,,10,1,0,,550458,,,,,,,
195660,note_on,,,,,0,0,1,,,,,0,,,86,59
195705,note_on,,,,,45,0,1,,,,,0,,,86,0
195720,set_tempo,,,,,60,1,0,,582524,,,,,,,
195720,note_on,,,,,15,0,1,,,,,0,,,85,88
195740,set_tempo,,,,,20,1,0,,594059,,,,,,,
195780,note_on,,,,,0,0,1,,,,,0,,,88,67
195780,note_on,,,,,60,0,1,,,,,0,,,85,0
195800,set_tempo,,,,,60,1,0,,631578,,,,,,,
195820,note_on,,,,,2141,0,2,,,,,0,,,55,58
195820,control_change,,,,,40,0,1,,,,,0,64,95,,
195820,set_tempo,,,,,20,1,0,,674157,,,,,,,
195825,note_on,,,,,5,0,1,,,,,0,,,88,0
195825,marker,,,,,5,1,0,,,,,,,,,
195830,note_on,,,,,10,0,2,,,,,0,,,62,58
195840,note_on,,,,,10,0,2,,,,,0,,,74,58
195840,note_on,,,,,15,0,1,,,,,0,,,86,54
195840,set_tempo,,,,,15,1,0,,689655,,,,,,,
195840,note_on,,,,,0,0,2,,,,,0,,,71,58
195850,set_tempo,,,,,10,1,0,,705882,,,,,,,
195880,set_tempo,,,,,30,1,0,,722891,,,,,,,
195900,set_tempo,,,,,20,1,0,,779220,,,,,,,
196070,set_tempo,,,,,170,1,0,,500000,,,,,,,
196080,set_tempo,,,,,10,1,0,,504201,,,,,,,
196120,set_tempo,,,,,40,1,0,,512820,,,,,,,
196140,set_tempo,,,,,20,1,0,,519480,,,,,,,
196200,note_on,,,,,360,0,1,,,,,0,,,86,0
196200,note_on,,,,,0,0,1,,,,,0,,,84,41
196220,set_tempo,,,,,80,1,0,,535714,,,,,,,
196260,note_on,,,,,60,0,1,,,,,0,,,84,0
196260,note_on,,,,,0,0,1,,,,,0,,,83,45
196260,set_tempo,,,,,40,1,0,,545454,,,,,,,
196300,set_tempo,,,,,40,1,0,,552995,,,,,,,
196310,note_on,,,,,50,0,1,,,,,0,,,83,0
196310,control_change,,,,,0,0,1,,,,,0,64,0,,
196320,control_change,,,,,0,0,1,,,,,0,64,96,,
196320,note_on,,,,,0,0,2,,,,,0,,,74,0
196320,note_on,,,,,10,0,1,,,,,0,,,81,46
196320,note_on,,,,,0,0,2,,,,,0,,,74,41
196320,note_on,,,,,0,0,2,,,,,0,,,72,41
196320,note_on,,,,,480,0,2,,,,,0,,,71,0
196340,set_tempo,,,,,40,1,0,,563380,,,,,,,
196380,note_on,,,,,0,0,1,,,,,0,,,83,39
196380,note_on,,,,,60,0,1,,,,,0,,,81,0
196380,set_tempo,,,,,40,1,0,,579710,,,,,,,
196435,note_on,,,,,55,0,1,,,,,0,,,83,0
196440,note_on,,,,,5,0,1,,,,,0,,,84,34
196450,set_tempo,,,,,70,1,0,,588235,,,,,,,
196490,set_tempo,,,,,40,1,0,,600000,,,,,,,
196494,note_on,,,,,54,0,1,,,,,0,,,84,0
196500,note_on,,,,,6,0,1,,,,,0,,,86,27
196530,set_tempo,,,,,40,1,0,,618556,,,,,,,
196550,set_tempo,,,,,20,1,0,,625000,,,,,,,
196551,note_on,,,,,51,0,1,,,,,0,,,86,0
196555,control_change,,,,,4,0,1,,,,,0,64,0,,
196560,note_on,,,,,5,0,1,,,,,0,,,84,35
196560,note_on,,,,,0,0,2,,,,,0,,,69,35
196560,set_tempo,,,,,10,1,0,,810810,,,,,,,
196560,control_change,,,,,0,0,1,,,,,0,64,95,,
196560,note_on,,,,,240,0,2,,,,,0,,,72,0
196580,set_tempo,,,,,20,1,0,,821917,,,,,,,
196650,note_on,,,,,90,0,2,,,,,0,,,69,0
196650,note_on,,,,,90,0,1,,,,,0,,,84,0
196680,note_on,,,,,30,0,2,,,,,0,,,66,32
196680,note_on,,,,,30,0,1,,,,,0,,,81,30
196760,set_tempo,,,,,180,1,0,,1016949,,,,,,,
196770,note_on,,,,,0,0,2,,,,,0,,,55,0
196770,note_on,,,,,90,0,2,,,,,0,,,66,0
196770,note_on,,,,,90,0,1,,,,,0,,,81,0
196780,note_on,,,,,10,0,2,,,,,0,,,62,0
196780,set_tempo,,,,,20,1,0,,1016949,,,,,,,
196795,control_change,,,,,25,0,1,,,,,0,64,0,,
196800,note_on,,,,,0,0,2,,,,,0,,,67,30
196800,note_on,,,,,20,0,2,,,,,0,,,74,0
196800,note_on,,,,,0,0,2,,,,,0,,,55,30
196800,note_on,,,,,5,0,1,,,,,0,,,71,27
196800,note_on,,,,,0,0,1,,,,,0,,,79,27
196800,control_change,,,,,0,0,1,,,,,0,64,95,,
196800,note_on,,,,,0,0,2,,,,,0,,,62,30
196980,note_on,,,,,180,0,2,,,,,0,,,67,0
196980,note_on,,,,,0,0,2,,,,,0,,,62,0
196980,note_on,,,,,180,0,1,,,,,0,,,79,0
196980,note_on,,,,,0,0,1,,,,,0,,,71,0
196980,note_on,,,,,0,0,2,,,,,0,,,55,0
196990,set_tempo,,,,,210,1,0,,875912,,,,,,,
197035,control_change,,,,,55,0,1,,,,,0,64,0,,
197040,note_on,,,,,5,0,1,,,,,0,,,59,28
197040,control_change,,,,,0,0,1,,,,,0,64,96,,
197040,note_on,,,,,0,0,1,,,,,0,,,67,28
197040,note_on,,,,,0,0,1,,,,,0,,,62,28
197040,note_on,,,,,60,0,2,,,,,0,,,43,28
197040,note_on,,,,,0,0,2,,,,,0,,,50,28
197080,set_tempo,,,,,90,1,0,,909090,,,,,,,
197085,note_on,,,,,0,0,2,,,,,0,,,43,0
197085,note_on,,,,,0,0,1,,,,,0,,,59,0
197085,note_on,,,,,0,0,1,,,,,0,,,62,0
197085,note_on,,,,,45,0,1,,,,,0,,,67,0
197085,note_on,,,,,45,0,2,,,,,0,,,50,0
197100,note_on,,,,,0,0,1,,,,,0,,,62,26
197100,note_on,,,,,0,0,2,,,,,0,,,50,25
197100,note_on,,,,,15,0,2,,,,,0,,,43,25
197100,note_on,,,,,0,0,1,,,,,0,,,67,26
197100,note_on,,,,,15,0,1,,,,,0,,,59,26
197120,set_tempo,,,,,40,1,0,,952380,,,,,,,
197145,note_on,,,,,0,0,1,,,,,0,,,59,0
197145,note_on,,,,,45,0,2,,,,,0,,,50,0
197145,note_on,,,,,45,0,1,,,,,0,,,67,0
197145,note_on,,,,,0,0,1,,,,,0,,,62,0
197145,note_on,,,,,0,0,2,,,,,0,,,43,0
197160,note_on,,,,,0,0,1,,,,,0,,,62,22
197160,note_on,,,,,0,0,2,,,,,0,,,50,22
197160,note_on,,,,,15,0,2,,,,,0,,,43,22
197160,set_tempo,,,,,40,1,0,,991735,,,,,,,
197160,note_on,,,,,15,0,1,,,,,0,,,59,22
197160,note_on,,,,,0,0,1,,,,,0,,,67,22
197170,set_tempo,,,,,10,1,0,,1025641,,,,,,,
197200,set_tempo,,,,,30,1,0,,1121495,,,,,,,
197205,note_on,,,,,0,0,1,,,,,0,,,62,0
197205,note_on,,,,,45,0,2,,,,,0,,,50,0
197205,note_on,,,,,0,0,2,,,,,0,,,43,0
197205,note_on,,,,,0,0,1,,,,,0,,,59,0
197205,note_on,,,,,45,0,1,,,,,0,,,67,0
197220,note_on,,,,,15,0,2,,,,,0,,,43,20
197220,note_on,,,,,0,0,2,,,,,0,,,50,20
197220,note_on,,,,,0,0,1,,,,,0,,,67,19
197220,note_on,,,,,0,0,1,,,,,0,,,62,19
197220,note_on,,,,,15,0,1,,,,,0,,,59,19
197250,end_of_track,,,,,0,1,0,,,,,,,,,
197250,set_tempo,,,,,50,1,0,,1237113,,,,,,,
197265,note_on,,,,,0,0,1,,,,,0,,,62,0
197265,note_on,,,,,0,0,2,,,,,0,,,43,0
197265,note_on,,,,,45,0,2,,,,,0,,,50,0
197265,note_on,,,,,45,0,1,,,,,0,,,67,0
197265,note_on,,,,,0,0,1,,,,,0,,,59,0
197280,note_on,,,,,0,0,2,,,,,0,,,50,19
197280,note_on,,,,,15,0,2,,,,,0,,,43,19
197280,note_on,,,,,15,0,1,,,,,0,,,59,19
197280,note_on,,,,,0,0,1,,,,,0,,,62,19
197280,note_on,,,,,0,0,1,,,,,0,,,67,19
197760,note_on,,,,,0,0,1,,,,,0,,,59,0
197760,note_on,,,,,0,0,1,,,,,0,,,62,0
197760,note_on,,,,,480,0,1,,,,,0,,,67,0
197760,end_of_track,,,,,0,1,1,,,,,,,,,
197760,note_on,,,,,480,0,2,,,,,0,,,50,0
197760,note_on,,,,,0,0,2,,,,,0,,,43,0
197760,end_of_track,,,,,0,1,2,,,,,,,,,
197760,control_change,,,,,0,0,1,,,,,0,64,0,,
