tick,type,time,meta,track,numerator,denominator,clocks_per_click,notated_32nd_notes_per_beat,key,tempo,port,program,channel,control,value,note,velocity
0,track_name,0,1,0,,,,,,,,,,,,,
0,track_name,0,1,3,,,,,,,,,,,,,
0,midi_port,0,1,3,,,,,,,0,,,,,,
0,midi_port,0,1,4,,,,,,,0,,,,,,
0,track_name,0,1,4,,,,,,,,,,,,,
0,program_change,0,0,4,,,,,,,,0,3,,,,
0,control_change,0,0,4,,,,,,,,,3,7,127,,
0,control_change,0,0,4,,,,,,,,,3,10,30,,
0,control_change,0,0,3,,,,,,,,,2,10,30,,
0,midi_port,0,1,1,,,,,,,0,,,,,,
0,track_name,0,1,1,,,,,,,,,,,,,
0,program_change,0,0,1,,,,,,,,0,0,,,,
0,control_change,0,0,1,,,,,,,,,0,7,127,,
0,program_change,0,0,3,,,,,,,,0,2,,,,
0,control_change,0,0,1,,,,,,,,,0,10,97,,
0,control_change,0,0,2,,,,,,,,,1,10,97,,
0,control_change,0,0,2,,,,,,,,,1,7,127,,
0,program_change,0,0,2,,,,,,,,0,1,,,,
0,track_name,0,1,2,,,,,,,,,,,,,
0,midi_port,0,1,2,,,,,,,0,,,,,,
0,set_tempo,0,1,0,,,,,,1000000,,,,,,,
0,key_signature,0,1,0,,,,,A,,,,,,,,
0,time_signature,0,1,0,1,4,24,8,,,,,,,,,
0,text,0,1,0,,,,,,,,,,,,,
0,copyright,0,1,0,,,,,,,,,,,,,
0,control_change,0,0,3,,,,,,,,,2,7,127,,
240,note_on,240,0,3,,,,,,,,,2,,,57,49
240,note_on,240,0,1,,,,,,,,,0,,,73,62
420,note_on,0,0,1,,,,,,,,,0,,,74,62
420,note_on,180,0,3,,,,,,,,,2,,,57,0
420,note_on,0,0,3,,,,,,,,,2,,,59,49
420,note_on,180,0,1,,,,,,,,,0,,,73,0
480,note_on,0,0,4,,,,,,,,,3,,,45,62
480,note_on,0,0,3,,,,,,,,,2,,,61,49
480,control_change,0,0,3,,,,,,,,,2,64,127,,
480,note_on,60,0,3,,,,,,,,,2,,,59,0
480,time_signature,480,1,0,2,4,24,8,,,,,,,,,
480,note_on,60,0,1,,,,,,,,,0,,,74,0
480,control_change,0,0,1,,,,,,,,,0,64,127,,
480,note_on,0,0,1,,,,,,,,,0,,,76,62
480,note_on,480,0,4,,,,,,,,,3,,,33,62
600,note_on,0,0,3,,,,,,,,,2,,,52,49
600,note_on,120,0,3,,,,,,,,,2,,,61,0
720,note_on,0,0,3,,,,,,,,,2,,,57,49
720,note_on,120,0,3,,,,,,,,,2,,,52,0
720,note_on,240,0,1,,,,,,,,,0,,,76,0
720,note_on,0,0,1,,,,,,,,,0,,,73,62
840,note_on,0,0,3,,,,,,,,,2,,,59,49
840,note_on,120,0,3,,,,,,,,,2,,,57,0
960,note_on,480,0,4,,,,,,,,,3,,,45,0
960,note_on,0,0,4,,,,,,,,,3,,,33,0
960,note_on,120,0,3,,,,,,,,,2,,,59,0
960,note_on,0,0,3,,,,,,,,,2,,,61,49
960,note_on,240,0,1,,,,,,,,,0,,,73,0
960,note_on,0,0,1,,,,,,,,,0,,,69,62
1080,note_on,120,0,3,,,,,,,,,2,,,61,0
1080,note_on,0,0,3,,,,,,,,,2,,,57,49
1200,note_on,240,0,1,,,,,,,,,0,,,69,0
1200,note_on,120,0,3,,,,,,,,,2,,,57,0
1200,note_on,0,0,3,,,,,,,,,2,,,62,49
1200,control_change,0,0,1,,,,,,,,,0,64,0,,
1200,note_on,0,0,1,,,,,,,,,0,,,66,62
1320,note_on,0,0,3,,,,,,,,,2,,,57,49
1320,control_change,0,0,3,,,,,,,,,2,64,0,,
1320,note_on,120,0,3,,,,,,,,,2,,,62,0
1440,control_change,0,0,3,,,,,,,,,2,64,127,,
1440,note_on,0,0,3,,,,,,,,,2,,,61,49
1440,note_on,480,0,4,,,,,,,,,3,,,33,62
1440,note_on,0,0,1,,,,,,,,,0,,,64,62
1440,note_on,120,0,3,,,,,,,,,2,,,57,0
1440,note_on,0,0,4,,,,,,,,,3,,,45,62
1440,note_on,240,0,1,,,,,,,,,0,,,66,0
1560,note_on,0,0,3,,,,,,,,,2,,,57,49
1560,note_on,120,0,3,,,,,,,,,2,,,61,0
1680,note_on,0,0,3,,,,,,,,,2,,,56,49
1680,note_on,120,0,3,,,,,,,,,2,,,57,0
1800,note_on,120,0,3,,,,,,,,,2,,,56,0
1800,note_on,0,0,3,,,,,,,,,2,,,54,49
1920,note_on,120,0,3,,,,,,,,,2,,,54,0
1920,note_on,0,0,3,,,,,,,,,2,,,52,49
1920,note_on,0,0,1,,,,,,,,,0,,,61,62
1920,note_on,0,0,4,,,,,,,,,3,,,33,0
1920,note_on,480,0,4,,,,,,,,,3,,,45,0
1920,note_on,480,0,1,,,,,,,,,0,,,64,0
2040,note_on,0,0,3,,,,,,,,,2,,,57,49
2040,note_on,120,0,3,,,,,,,,,2,,,52,0
2160,note_on,0,0,3,,,,,,,,,2,,,62,75
2160,note_on,120,0,3,,,,,,,,,2,,,57,0
2160,note_on,0,0,1,,,,,,,,,0,,,66,88
2160,control_change,0,0,1,,,,,,,,,0,64,127,,
2160,note_on,240,0,1,,,,,,,,,0,,,61,0
2280,note_on,0,0,3,,,,,,,,,2,,,61,49
2280,control_change,0,0,3,,,,,,,,,2,64,0,,
2280,note_on,120,0,3,,,,,,,,,2,,,62,0
2340,note_on,0,0,1,,,,,,,,,0,,,64,62
2340,note_on,180,0,1,,,,,,,,,0,,,66,0
2400,note_on,480,0,4,,,,,,,,,3,,,40,62
2400,note_on,120,0,3,,,,,,,,,2,,,61,0
2400,note_on,0,0,3,,,,,,,,,2,,,59,49
2400,note_on,60,0,1,,,,,,,,,0,,,64,0
2400,note_on,0,0,1,,,,,,,,,0,,,62,62
2520,note_on,120,0,3,,,,,,,,,2,,,59,0
2520,note_on,0,0,3,,,,,,,,,2,,,52,49
2640,note_on,0,0,3,,,,,,,,,2,,,59,49
2640,note_on,120,0,3,,,,,,,,,2,,,52,0
2760,note_on,0,0,3,,,,,,,,,2,,,57,49
2760,note_on,120,0,3,,,,,,,,,2,,,59,0
2880,note_on,0,0,3,,,,,,,,,2,,,56,49
2880,note_on,120,0,3,,,,,,,,,2,,,57,0
2880,note_on,480,0,1,,,,,,,,,0,,,62,0
2880,note_on,0,0,1,,,,,,,,,0,,,59,62
2880,control_change,0,0,1,,,,,,,,,0,64,0,,
2880,note_on,480,0,4,,,,,,,,,3,,,40,0
3000,note_on,120,0,3,,,,,,,,,2,,,56,0
3000,note_on,0,0,3,,,,,,,,,2,,,57,49
3120,note_on,0,0,1,,,,,,,,,0,,,64,88
3120,note_on,240,0,1,,,,,,,,,0,,,59,0
3120,note_on,120,0,3,,,,,,,,,2,,,57,0
3120,note_on,0,0,3,,,,,,,,,2,,,54,49
3240,note_on,120,0,3,,,,,,,,,2,,,54,0
3240,note_on,0,0,3,,,,,,,,,2,,,56,49
3300,note_on,180,0,1,,,,,,,,,0,,,64,0
3300,note_on,0,0,1,,,,,,,,,0,,,62,62
3360,note_on,120,0,3,,,,,,,,,2,,,56,0
3360,note_on,0,0,3,,,,,,,,,2,,,57,49
3360,note_on,480,0,4,,,,,,,,,3,,,45,62
3360,note_on,60,0,1,,,,,,,,,0,,,62,0
3360,note_on,0,0,1,,,,,,,,,0,,,61,62
3480,note_on,120,0,3,,,,,,,,,2,,,57,0
3480,note_on,0,0,3,,,,,,,,,2,,,52,49
3600,control_change,0,0,1,,,,,,,,,0,64,127,,
3600,note_on,0,0,1,,,,,,,,,0,,,64,62
3600,note_on,240,0,1,,,,,,,,,0,,,61,0
3600,note_on,120,0,3,,,,,,,,,2,,,52,0
3600,note_on,0,0,3,,,,,,,,,2,,,59,49
3660,note_on,60,0,1,,,,,,,,,0,,,64,0
3660,note_on,0,0,1,,,,,,,,,0,,,62,62
3720,note_on,0,0,3,,,,,,,,,2,,,52,49
3720,note_on,60,0,1,,,,,,,,,0,,,62,0
3720,note_on,0,0,1,,,,,,,,,0,,,61,62
3720,note_on,120,0,3,,,,,,,,,2,,,59,0
3780,note_on,0,0,1,,,,,,,,,0,,,62,62
3780,note_on,60,0,1,,,,,,,,,0,,,61,0
3840,note_on,120,0,3,,,,,,,,,2,,,52,0
3840,note_on,0,0,1,,,,,,,,,0,,,64,62
3840,note_on,0,0,3,,,,,,,,,2,,,61,49
3840,note_on,60,0,1,,,,,,,,,0,,,62,0
3840,control_change,0,0,1,,,,,,,,,0,64,0,,
3960,note_on,120,0,3,,,,,,,,,2,,,61,0
3960,note_on,0,0,3,,,,,,,,,2,,,52,49
4080,note_on,0,0,3,,,,,,,,,2,,,57,49
4080,note_on,0,0,1,,,,,,,,,0,,,85,62
4080,note_on,120,0,3,,,,,,,,,2,,,52,0
4080,note_on,240,0,1,,,,,,,,,0,,,64,0
4080,note_on,720,0,4,,,,,,,,,3,,,45,0
4080,note_on,4080,0,2,,,,,,,,,1,,,73,62
4260,note_on,0,0,2,,,,,,,,,1,,,74,62
4260,note_on,180,0,1,,,,,,,,,0,,,85,0
4260,note_on,0,0,1,,,,,,,,,0,,,86,62
4260,note_on,0,0,3,,,,,,,,,2,,,59,49
4260,note_on,180,0,3,,,,,,,,,2,,,57,0
4260,note_on,180,0,2,,,,,,,,,1,,,73,0
4320,note_on,60,0,1,,,,,,,,,0,,,86,0
4320,control_change,0,0,1,,,,,,,,,0,64,127,,
4320,note_on,0,0,1,,,,,,,,,0,,,88,62
4320,control_change,0,0,2,,,,,,,,,1,64,127,,
4320,note_on,60,0,3,,,,,,,,,2,,,59,0
4320,note_on,0,0,3,,,,,,,,,2,,,61,49
4320,note_on,60,0,2,,,,,,,,,1,,,74,0
4320,note_on,0,0,2,,,,,,,,,1,,,76,62
4320,note_on,0,0,4,,,,,,,,,3,,,45,62
4320,note_on,240,0,4,,,,,,,,,3,,,33,62
4440,note_on,0,0,3,,,,,,,,,2,,,52,49
4440,note_on,120,0,3,,,,,,,,,2,,,61,0
4560,note_on,0,0,3,,,,,,,,,2,,,57,49
4560,note_on,120,0,3,,,,,,,,,2,,,52,0
4560,note_on,240,0,2,,,,,,,,,1,,,76,0
4560,note_on,0,0,2,,,,,,,,,1,,,73,62
4560,note_on,0,0,1,,,,,,,,,0,,,85,62
4560,note_on,240,0,1,,,,,,,,,0,,,88,0
4680,note_on,0,0,3,,,,,,,,,2,,,59,49
4680,note_on,120,0,3,,,,,,,,,2,,,57,0
4800,note_on,0,0,2,,,,,,,,,1,,,69,62
4800,note_on,0,0,4,,,,,,,,,3,,,33,0
4800,note_on,0,0,1,,,,,,,,,0,,,81,62
4800,note_on,240,0,1,,,,,,,,,0,,,85,0
4800,note_on,0,0,3,,,,,,,,,2,,,61,49
4800,note_on,120,0,3,,,,,,,,,2,,,59,0
4800,note_on,240,0,2,,,,,,,,,1,,,73,0
4800,note_on,480,0,4,,,,,,,,,3,,,45,0
4920,note_on,0,0,3,,,,,,,,,2,,,57,49
4920,note_on,120,0,3,,,,,,,,,2,,,61,0
5040,note_on,240,0,2,,,,,,,,,1,,,69,0
5040,note_on,0,0,4,,,,,,,,,3,,,45,62
5040,note_on,120,0,3,,,,,,,,,2,,,57,0
5040,note_on,240,0,1,,,,,,,,,0,,,81,0
5040,note_on,0,0,1,,,,,,,,,0,,,80,88
5040,note_on,0,0,3,,,,,,,,,2,,,62,75
5040,note_on,240,0,4,,,,,,,,,3,,,33,62
5040,note_on,0,0,2,,,,,,,,,1,,,68,88
5160,note_on,120,0,3,,,,,,,,,2,,,62,0
5160,note_on,0,0,3,,,,,,,,,2,,,57,49
5220,note_on,0,0,1,,,,,,,,,0,,,78,62
5220,note_on,180,0,2,,,,,,,,,1,,,68,0
5220,control_change,0,0,2,,,,,,,,,1,64,0,,
5220,note_on,0,0,2,,,,,,,,,1,,,66,62
5220,note_on,180,0,1,,,,,,,,,0,,,80,0
5220,control_change,0,0,1,,,,,,,,,0,64,0,,
5280,note_on,0,0,4,,,,,,,,,3,,,45,62
5280,note_on,0,0,1,,,,,,,,,0,,,76,62
5280,note_on,0,0,3,,,,,,,,,2,,,61,49
5280,note_on,240,0,4,,,,,,,,,3,,,45,0
5280,note_on,0,0,4,,,,,,,,,3,,,33,62
5280,note_on,60,0,1,,,,,,,,,0,,,78,0
5280,note_on,0,0,4,,,,,,,,,3,,,33,0
5280,note_on,0,0,2,,,,,,,,,1,,,64,62
5280,note_on,120,0,3,,,,,,,,,2,,,57,0
5280,note_on,60,0,2,,,,,,,,,1,,,66,0
5400,note_on,0,0,3,,,,,,,,,2,,,57,49
5400,note_on,120,0,3,,,,,,,,,2,,,61,0
5520,note_on,0,0,3,,,,,,,,,2,,,56,49
5520,note_on,120,0,3,,,,,,,,,2,,,57,0
5580,note_on,0,0,3,,,,,,,,,2,,,57,49
5580,note_on,60,0,3,,,,,,,,,2,,,56,0
5640,note_on,0,0,3,,,,,,,,,2,,,56,49
5640,note_on,60,0,3,,,,,,,,,2,,,57,0
5700,note_on,60,0,3,,,,,,,,,2,,,56,0
5700,note_on,0,0,3,,,,,,,,,2,,,54,49
5760,note_on,480,0,2,,,,,,,,,1,,,64,0
5760,note_on,0,0,2,,,,,,,,,1,,,61,62
5760,note_on,0,0,4,,,,,,,,,3,,,33,0
5760,note_on,480,0,1,,,,,,,,,0,,,76,0
5760,note_on,60,0,3,,,,,,,,,2,,,54,0
5760,note_on,0,0,1,,,,,,,,,0,,,73,62
5760,note_on,480,0,4,,,,,,,,,3,,,45,0
5760,note_on,0,0,3,,,,,,,,,2,,,52,49
5880,note_on,120,0,3,,,,,,,,,2,,,52,0
5880,note_on,0,0,3,,,,,,,,,2,,,53,49
6000,note_on,0,0,3,,,,,,,,,2,,,54,75
6000,note_on,240,0,2,,,,,,,,,1,,,61,0
6000,note_on,0,0,2,,,,,,,,,1,,,66,62
6000,note_on,0,0,2,,,,,,,,,1,,,73,62
6000,note_on,120,0,3,,,,,,,,,2,,,53,0
6000,note_on,0,0,4,,,,,,,,,3,,,46,62
6000,note_on,240,0,4,,,,,,,,,3,,,34,62
6000,control_change,0,0,1,,,,,,,,,0,64,127,,
6000,note_on,0,0,1,,,,,,,,,0,,,78,88
6000,note_on,240,0,1,,,,,,,,,0,,,73,0
6120,note_on,120,0,3,,,,,,,,,2,,,54,0
6120,note_on,0,0,3,,,,,,,,,2,,,61,49
6180,note_on,180,0,1,,,,,,,,,0,,,78,0
6180,note_on,0,0,1,,,,,,,,,0,,,76,62
6240,note_on,120,0,3,,,,,,,,,2,,,61,0
6240,note_on,0,0,2,,,,,,,,,1,,,66,49
6240,note_on,0,0,2,,,,,,,,,1,,,66,0
6240,note_on,240,0,2,,,,,,,,,1,,,73,0
6240,note_on,0,0,2,,,,,,,,,1,,,71,49
6240,note_on,240,0,4,,,,,,,,,3,,,46,0
6240,note_on,0,0,1,,,,,,,,,0,,,74,62
6240,note_on,0,0,4,,,,,,,,,3,,,35,62
6240,note_on,0,0,4,,,,,,,,,3,,,47,62
6240,note_on,0,0,4,,,,,,,,,3,,,34,0
6240,note_on,60,0,1,,,,,,,,,0,,,76,0
6360,note_on,120,0,3,,,,,,,,,2,,,54,49
6480,note_on,0,0,3,,,,,,,,,2,,,59,49
6480,note_on,120,0,3,,,,,,,,,2,,,54,0
6480,note_on,0,0,4,,,,,,,,,3,,,35,0
6480,note_on,240,0,4,,,,,,,,,3,,,47,0
6600,note_on,0,0,1,,,,,,,,,0,,,73,62
6600,note_on,360,0,1,,,,,,,,,0,,,74,0
6600,note_on,0,0,3,,,,,,,,,2,,,61,49
6600,note_on,120,0,3,,,,,,,,,2,,,59,0
6720,note_on,0,0,3,,,,,,,,,2,,,62,49
6720,note_on,240,0,4,,,,,,,,,3,,,40,62
6720,note_on,0,0,2,,,,,,,,,1,,,66,0
6720,note_on,480,0,2,,,,,,,,,1,,,71,0
6720,note_on,120,0,3,,,,,,,,,2,,,61,0
6720,note_on,0,0,1,,,,,,,,,0,,,71,62
6720,note_on,120,0,1,,,,,,,,,0,,,73,0
6840,note_on,120,0,3,,,,,,,,,2,,,62,0
6840,note_on,0,0,3,,,,,,,,,2,,,56,49
6900,note_on,180,0,1,,,,,,,,,0,,,71,0
6900,note_on,0,0,1,,,,,,,,,0,,,76,62
6930,note_on,30,0,1,,,,,,,,,0,,,76,0
6930,note_on,0,0,1,,,,,,,,,0,,,80,62
6960,note_on,0,0,1,,,,,,,,,0,,,83,62
6960,note_on,240,0,4,,,,,,,,,3,,,40,0
6960,note_on,0,0,2,,,,,,,,,1,,,71,49
6960,note_on,0,0,2,,,,,,,,,1,,,74,49
6960,note_on,240,0,2,,,,,,,,,1,,,64,49
6960,note_on,0,0,3,,,,,,,,,2,,,59,49
6960,note_on,120,0,3,,,,,,,,,2,,,56,0
6960,note_on,30,0,1,,,,,,,,,0,,,80,0
7080,note_on,0,0,3,,,,,,,,,2,,,62,49
7080,note_on,120,0,3,,,,,,,,,2,,,59,0
7140,note_on,180,0,1,,,,,,,,,0,,,83,0
7140,note_on,0,0,1,,,,,,,,,0,,,80,62
7200,note_on,240,0,2,,,,,,,,,1,,,74,0
7200,note_on,0,0,2,,,,,,,,,1,,,73,49
7200,note_on,0,0,2,,,,,,,,,1,,,69,49
7200,note_on,0,0,2,,,,,,,,,1,,,64,49
7200,note_on,240,0,4,,,,,,,,,3,,,45,62
7200,note_on,120,0,3,,,,,,,,,2,,,62,0
7200,note_on,0,0,2,,,,,,,,,1,,,64,0
7200,note_on,60,0,1,,,,,,,,,0,,,80,0
7200,control_change,0,0,1,,,,,,,,,0,64,0,,
7200,note_on,0,0,1,,,,,,,,,0,,,81,62
7200,note_on,0,0,3,,,,,,,,,2,,,61,49
7200,note_on,0,0,2,,,,,,,,,1,,,71,0
7320,note_on,0,0,3,,,,,,,,,2,,,57,49
7320,note_on,120,0,3,,,,,,,,,2,,,61,0
7440,note_on,120,0,3,,,,,,,,,2,,,57,0
7440,note_on,0,0,3,,,,,,,,,2,,,52,49
7500,note_on,0,0,3,,,,,,,,,2,,,54,49
7500,note_on,60,0,3,,,,,,,,,2,,,52,0
7560,note_on,0,0,3,,,,,,,,,2,,,52,49
7560,note_on,60,0,3,,,,,,,,,2,,,54,0
7620,note_on,60,0,3,,,,,,,,,2,,,52,0
7620,note_on,0,0,3,,,,,,,,,2,,,50,49
7680,note_on,480,0,4,,,,,,,,,3,,,45,0
7680,note_on,60,0,3,,,,,,,,,2,,,50,0
7680,note_on,0,0,3,,,,,,,,,2,,,49,49
7800,note_on,0,0,3,,,,,,,,,2,,,52,49
7800,note_on,120,0,3,,,,,,,,,2,,,49,0
7920,note_on,120,0,3,,,,,,,,,2,,,52,0
7920,note_on,0,0,2,,,,,,,,,1,,,69,0
7920,note_on,720,0,1,,,,,,,,,0,,,81,0
7920,note_on,0,0,2,,,,,,,,,1,,,64,0
7920,note_on,720,0,2,,,,,,,,,1,,,73,0
7920,note_on,0,0,3,,,,,,,,,2,,,54,49
7920,control_change,0,0,1,,,,,,,,,0,64,127,,
7920,note_on,0,0,1,,,,,,,,,0,,,69,62
7980,note_on,60,0,1,,,,,,,,,0,,,69,0
7980,note_on,0,0,1,,,,,,,,,0,,,71,62
8040,note_on,0,0,1,,,,,,,,,0,,,69,62
8040,note_on,60,0,1,,,,,,,,,0,,,71,0
8040,note_on,0,0,3,,,,,,,,,2,,,56,49
8040,note_on,120,0,3,,,,,,,,,2,,,54,0
8100,note_on,0,0,1,,,,,,,,,0,,,68,62
8100,note_on,60,0,1,,,,,,,,,0,,,69,0
8160,note_on,0,0,1,,,,,,,,,0,,,66,62
8160,control_change,0,0,1,,,,,,,,,0,64,0,,
8160,note_on,60,0,1,,,,,,,,,0,,,68,0
8160,note_on,0,0,3,,,,,,,,,2,,,57,49
8160,note_on,120,0,3,,,,,,,,,2,,,56,0
8280,note_on,0,0,3,,,,,,,,,2,,,47,49
8280,note_on,120,0,3,,,,,,,,,2,,,57,0
8400,note_on,0,0,2,,,,,,,,,1,,,66,62
8400,control_change,480,0,2,,,,,,,,,1,64,127,,
8400,note_on,240,0,1,,,,,,,,,0,,,66,0
8400,note_on,0,0,3,,,,,,,,,2,,,59,49
8400,note_on,0,0,4,,,,,,,,,3,,,35,62
8400,note_on,120,0,3,,,,,,,,,2,,,47,0
8400,note_on,0,0,3,,,,,,,,,2,,,57,49
8400,control_change,720,0,4,,,,,,,,,3,64,127,,
8400,control_change,0,0,1,,,,,,,,,0,64,127,,
8400,note_on,0,0,1,,,,,,,,,0,,,75,62
8520,note_on,120,0,3,,,,,,,,,2,,,59,0
8520,note_on,0,0,3,,,,,,,,,2,,,47,49
8520,note_on,0,0,3,,,,,,,,,2,,,57,0
8640,note_on,0,0,4,,,,,,,,,3,,,35,62
8640,note_on,240,0,2,,,,,,,,,1,,,66,0
8640,note_on,0,0,2,,,,,,,,,1,,,66,62
8640,note_on,0,0,3,,,,,,,,,2,,,59,49
8640,note_on,0,0,3,,,,,,,,,2,,,57,49
8640,note_on,120,0,3,,,,,,,,,2,,,47,0
8640,note_on,240,0,4,,,,,,,,,3,,,35,0
8640,note_on,0,0,1,,,,,,,,,0,,,75,75
8640,note_on,240,0,1,,,,,,,,,0,,,75,0
8760,note_on,120,0,3,,,,,,,,,2,,,59,0
8760,note_on,0,0,3,,,,,,,,,2,,,57,0
8760,note_on,0,0,3,,,,,,,,,2,,,47,49
8880,note_on,240,0,4,,,,,,,,,3,,,35,0
8880,control_change,0,0,4,,,,,,,,,3,64,0,,
8880,note_on,240,0,2,,,,,,,,,1,,,66,0
8880,note_on,0,0,2,,,,,,,,,1,,,66,62
8880,note_on,0,0,4,,,,,,,,,3,,,35,62
8880,note_on,0,0,3,,,,,,,,,2,,,57,49
8880,note_on,120,0,3,,,,,,,,,2,,,47,0
8880,control_change,0,0,2,,,,,,,,,1,64,0,,
8880,control_change,0,0,1,,,,,,,,,0,64,0,,
8880,note_on,240,0,1,,,,,,,,,0,,,75,0
8880,note_on,0,0,3,,,,,,,,,2,,,59,49
8880,note_on,0,0,1,,,,,,,,,0,,,75,75
9000,note_on,120,0,3,,,,,,,,,2,,,59,0
9000,note_on,0,0,3,,,,,,,,,2,,,47,49
9000,note_on,0,0,3,,,,,,,,,2,,,57,0
9120,note_on,120,0,3,,,,,,,,,2,,,47,0
9120,note_on,0,0,1,,,,,,,,,0,,,75,88
9120,note_on,240,0,1,,,,,,,,,0,,,75,0
9120,note_on,0,0,2,,,,,,,,,1,,,66,62
9120,note_on,240,0,2,,,,,,,,,1,,,66,0
9120,note_on,240,0,4,,,,,,,,,3,,,35,0
9120,note_on,0,0,4,,,,,,,,,3,,,35,62
9167,note_on,47,0,1,,,,,,,,,0,,,75,0
9167,note_on,0,0,1,,,,,,,,,0,,,76,88
9216,note_on,0,0,1,,,,,,,,,0,,,75,88
9216,note_on,49,0,1,,,,,,,,,0,,,76,0
9240,note_on,120,0,3,,,,,,,,,2,,,47,49
9263,note_on,0,0,1,,,,,,,,,0,,,73,88
9263,note_on,47,0,1,,,,,,,,,0,,,75,0
9312,note_on,0,0,1,,,,,,,,,0,,,75,88
9312,note_on,49,0,1,,,,,,,,,0,,,73,0
9360,note_on,240,0,2,,,,,,,,,1,,,66,0
9360,note_on,0,0,3,,,,,,,,,2,,,59,49
9360,note_on,0,0,3,,,,,,,,,2,,,57,49
9360,note_on,120,0,3,,,,,,,,,2,,,47,0
9360,note_on,0,0,2,,,,,,,,,1,,,63,62
9360,note_on,48,0,1,,,,,,,,,0,,,75,0
9360,note_on,0,0,1,,,,,,,,,0,,,78,88
9540,note_on,180,0,3,,,,,,,,,2,,,59,0
9540,note_on,0,0,3,,,,,,,,,2,,,56,49
9540,note_on,0,0,3,,,,,,,,,2,,,59,49
9540,note_on,0,0,3,,,,,,,,,2,,,57,0
9540,note_on,180,0,1,,,,,,,,,0,,,78,0
9540,note_on,420,0,4,,,,,,,,,3,,,35,0
9540,note_on,0,0,4,,,,,,,,,3,,,40,62
9540,note_on,0,0,1,,,,,,,,,0,,,76,88
9540,note_on,0,0,2,,,,,,,,,1,,,64,62
9540,note_on,180,0,2,,,,,,,,,1,,,63,0
9600,note_on,60,0,4,,,,,,,,,3,,,40,0
9600,note_on,0,0,4,,,,,,,,,3,,,40,62
9600,note_on,0,0,2,,,,,,,,,1,,,64,62
9600,note_on,60,0,2,,,,,,,,,1,,,64,0
9600,note_on,0,0,1,,,,,,,,,0,,,76,75
9600,note_on,60,0,1,,,,,,,,,0,,,76,0
9600,note_on,0,0,3,,,,,,,,,2,,,59,49
9600,note_on,0,0,3,,,,,,,,,2,,,56,49
9600,note_on,0,0,3,,,,,,,,,2,,,56,0
9600,note_on,60,0,3,,,,,,,,,2,,,59,0
9720,note_on,0,0,3,,,,,,,,,2,,,47,49
9720,note_on,0,0,3,,,,,,,,,2,,,56,0
9720,note_on,120,0,3,,,,,,,,,2,,,59,0
9840,note_on,240,0,1,,,,,,,,,0,,,76,0
9840,control_change,0,0,1,,,,,,,,,0,64,127,,
9840,note_on,0,0,1,,,,,,,,,0,,,67,62
9840,note_on,240,0,4,,,,,,,,,3,,,40,0
9840,note_on,240,0,2,,,,,,,,,1,,,64,0
9840,note_on,120,0,3,,,,,,,,,2,,,47,0
9840,note_on,0,0,3,,,,,,,,,2,,,52,49
9900,note_on,60,0,1,,,,,,,,,0,,,67,0
9900,note_on,0,0,1,,,,,,,,,0,,,69,62
9960,note_on,60,0,1,,,,,,,,,0,,,69,0
9960,note_on,120,0,3,,,,,,,,,2,,,52,0
9960,note_on,0,0,1,,,,,,,,,0,,,67,62
9960,note_on,0,0,3,,,,,,,,,2,,,54,49
10020,note_on,0,0,1,,,,,,,,,0,,,66,62
10020,note_on,60,0,1,,,,,,,,,0,,,67,0
10080,note_on,60,0,1,,,,,,,,,0,,,66,0
10080,note_on,120,0,3,,,,,,,,,2,,,54,0
10080,control_change,0,0,1,,,,,,,,,0,64,0,,
10080,note_on,0,0,1,,,,,,,,,0,,,64,62
10080,note_on,0,0,3,,,,,,,,,2,,,55,49
10200,note_on,0,0,3,,,,,,,,,2,,,45,49
10200,note_on,120,0,3,,,,,,,,,2,,,55,0
10320,note_on,0,0,3,,,,,,,,,2,,,55,49
10320,note_on,0,0,3,,,,,,,,,2,,,57,49
10320,note_on,0,0,1,,,,,,,,,0,,,73,62
10320,control_change,0,0,1,,,,,,,,,0,64,127,,
10320,note_on,240,0,1,,,,,,,,,0,,,64,0
10320,note_on,0,0,4,,,,,,,,,3,,,33,62
10320,note_on,120,0,3,,,,,,,,,2,,,45,0
10320,note_on,0,0,2,,,,,,,,,1,,,64,62
10320,control_change,480,0,2,,,,,,,,,1,64,127,,
10320,control_change,480,0,4,,,,,,,,,3,64,127,,
10440,note_on,0,0,3,,,,,,,,,2,,,45,49
10440,note_on,120,0,3,,,,,,,,,2,,,57,0
10440,note_on,0,0,3,,,,,,,,,2,,,55,0
10560,note_on,0,0,1,,,,,,,,,0,,,73,75
10560,note_on,240,0,2,,,,,,,,,1,,,64,0
10560,note_on,0,0,2,,,,,,,,,1,,,64,62
10560,note_on,240,0,1,,,,,,,,,0,,,73,0
10560,note_on,0,0,3,,,,,,,,,2,,,57,49
10560,note_on,0,0,3,,,,,,,,,2,,,55,49
10560,note_on,240,0,4,,,,,,,,,3,,,33,0
10560,note_on,0,0,4,,,,,,,,,3,,,33,62
10560,note_on,120,0,3,,,,,,,,,2,,,45,0
10680,note_on,0,0,3,,,,,,,,,2,,,55,0
10680,note_on,0,0,3,,,,,,,,,2,,,45,49
10680,note_on,120,0,3,,,,,,,,,2,,,57,0
10800,note_on,240,0,4,,,,,,,,,3,,,33,0
10800,note_on,0,0,2,,,,,,,,,1,,,64,62
10800,control_change,0,0,2,,,,,,,,,1,64,0,,
10800,note_on,240,0,1,,,,,,,,,0,,,73,0
10800,control_change,0,0,1,,,,,,,,,0,64,0,,
10800,note_on,0,0,1,,,,,,,,,0,,,73,75
10800,note_on,0,0,4,,,,,,,,,3,,,33,62
10800,control_change,0,0,4,,,,,,,,,3,64,0,,
10800,note_on,240,0,2,,,,,,,,,1,,,64,0
10800,note_on,0,0,3,,,,,,,,,2,,,55,49
10800,note_on,0,0,3,,,,,,,,,2,,,57,49
10800,note_on,120,0,3,,,,,,,,,2,,,45,0
10920,note_on,120,0,3,,,,,,,,,2,,,57,0
10920,note_on,0,0,3,,,,,,,,,2,,,55,0
10920,note_on,0,0,3,,,,,,,,,2,,,45,49
11040,note_on,0,0,2,,,,,,,,,1,,,64,62
11040,note_on,240,0,2,,,,,,,,,1,,,64,0
11040,note_on,240,0,1,,,,,,,,,0,,,73,0
11040,control_change,0,0,1,,,,,,,,,0,64,127,,
11040,note_on,0,0,1,,,,,,,,,0,,,73,88
11040,note_on,0,0,4,,,,,,,,,3,,,33,62
11040,note_on,240,0,4,,,,,,,,,3,,,33,0
11040,note_on,120,0,3,,,,,,,,,2,,,45,0
11087,note_on,0,0,1,,,,,,,,,0,,,74,88
11087,note_on,47,0,1,,,,,,,,,0,,,73,0
11136,note_on,0,0,1,,,,,,,,,0,,,73,88
11136,note_on,49,0,1,,,,,,,,,0,,,74,0
11160,note_on,120,0,3,,,,,,,,,2,,,45,49
11183,note_on,47,0,1,,,,,,,,,0,,,73,0
11183,note_on,0,0,1,,,,,,,,,0,,,71,88
11232,note_on,0,0,1,,,,,,,,,0,,,73,88
11232,note_on,49,0,1,,,,,,,,,0,,,71,0
11280,note_on,120,0,3,,,,,,,,,2,,,45,0
11280,note_on,0,0,1,,,,,,,,,0,,,76,88
11280,note_on,48,0,1,,,,,,,,,0,,,73,0
11280,note_on,240,0,2,,,,,,,,,1,,,64,0
11280,note_on,0,0,2,,,,,,,,,1,,,61,62
11280,note_on,0,0,3,,,,,,,,,2,,,57,49
11280,note_on,0,0,3,,,,,,,,,2,,,55,49
11460,note_on,0,0,4,,,,,,,,,3,,,38,62
11460,note_on,420,0,4,,,,,,,,,3,,,33,0
11460,note_on,180,0,1,,,,,,,,,0,,,76,0
11460,note_on,0,0,3,,,,,,,,,2,,,57,49
11460,note_on,0,0,1,,,,,,,,,0,,,74,75
11460,note_on,180,0,2,,,,,,,,,1,,,61,0
11460,note_on,0,0,2,,,,,,,,,1,,,62,62
11460,note_on,180,0,3,,,,,,,,,2,,,57,0
11460,note_on,0,0,3,,,,,,,,,2,,,55,0
11460,note_on,0,0,3,,,,,,,,,2,,,54,49
11520,note_on,0,0,1,,,,,,,,,0,,,74,75
11520,note_on,0,0,4,,,,,,,,,3,,,38,62
11520,note_on,0,0,2,,,,,,,,,1,,,62,62
11520,note_on,60,0,2,,,,,,,,,1,,,62,0
11520,note_on,60,0,3,,,,,,,,,2,,,57,0
11520,note_on,0,0,3,,,,,,,,,2,,,54,0
11520,note_on,0,0,3,,,,,,,,,2,,,54,49
11520,note_on,0,0,3,,,,,,,,,2,,,57,49
11520,note_on,60,0,4,,,,,,,,,3,,,38,0
11520,control_change,0,0,1,,,,,,,,,0,64,0,,
11520,note_on,60,0,1,,,,,,,,,0,,,74,0
11640,note_on,0,0,3,,,,,,,,,2,,,45,49
11640,note_on,120,0,3,,,,,,,,,2,,,57,0
11640,note_on,0,0,3,,,,,,,,,2,,,54,0
11760,note_on,0,0,4,,,,,,,,,3,,,35,62
11760,note_on,0,0,4,,,,,,,,,3,,,47,62
11760,note_on,120,0,3,,,,,,,,,2,,,45,0
11760,note_on,0,0,3,,,,,,,,,2,,,59,49
11760,note_on,240,0,4,,,,,,,,,3,,,38,0
11760,note_on,0,0,3,,,,,,,,,2,,,54,49
11760,note_on,240,0,2,,,,,,,,,1,,,62,0
11760,note_on,240,0,1,,,,,,,,,0,,,74,0
11760,note_on,0,0,2,,,,,,,,,1,,,62,88
11760,note_on,0,0,1,,,,,,,,,0,,,74,88
11880,note_on,120,0,2,,,,,,,,,1,,,62,0
11880,note_on,0,0,2,,,,,,,,,1,,,64,62
11880,note_on,120,0,1,,,,,,,,,0,,,74,0
11880,note_on,0,0,1,,,,,,,,,0,,,76,62
11880,note_on,0,0,3,,,,,,,,,2,,,50,49
11880,note_on,120,0,3,,,,,,,,,2,,,59,0
11880,note_on,0,0,3,,,,,,,,,2,,,54,0
12000,note_on,240,0,4,,,,,,,,,3,,,47,0
12000,note_on,120,0,3,,,,,,,,,2,,,50,0
12000,note_on,0,0,4,,,,,,,,,3,,,34,62
12000,note_on,0,0,1,,,,,,,,,0,,,78,62
12000,note_on,0,0,2,,,,,,,,,1,,,66,62
12000,note_on,120,0,2,,,,,,,,,1,,,64,0
12000,note_on,0,0,4,,,,,,,,,3,,,35,0
12000,note_on,120,0,1,,,,,,,,,0,,,76,0
12000,note_on,0,0,4,,,,,,,,,3,,,46,62
12120,note_on,120,0,3,,,,,,,,,2,,,49,49
12240,note_on,120,0,3,,,,,,,,,2,,,49,0
12240,note_on,0,0,3,,,,,,,,,2,,,54,49
12240,note_on,0,0,3,,,,,,,,,2,,,61,49
12360,note_on,0,0,3,,,,,,,,,2,,,49,49
12360,note_on,0,0,2,,,,,,,,,1,,,66,62
12360,note_on,0,0,3,,,,,,,,,2,,,54,0
12360,note_on,0,0,1,,,,,,,,,0,,,78,62
12360,note_on,360,0,1,,,,,,,,,0,,,78,0
12360,note_on,120,0,3,,,,,,,,,2,,,61,0
12360,note_on,360,0,2,,,,,,,,,1,,,66,0
12480,note_on,0,0,2,,,,,,,,,1,,,69,62
12480,note_on,120,0,2,,,,,,,,,1,,,66,0
12480,note_on,120,0,1,,,,,,,,,0,,,78,0
12480,note_on,0,0,1,,,,,,,,,0,,,81,62
12480,note_on,0,0,4,,,,,,,,,3,,,45,62
12480,note_on,0,0,4,,,,,,,,,3,,,33,62
12480,note_on,0,0,4,,,,,,,,,3,,,34,0
12480,note_on,480,0,4,,,,,,,,,3,,,46,0
12480,note_on,120,0,3,,,,,,,,,2,,,49,0
12600,note_on,120,0,3,,,,,,,,,2,,,49,49
12660,note_on,0,0,2,,,,,,,,,1,,,67,62
12660,note_on,180,0,1,,,,,,,,,0,,,81,0
12660,note_on,180,0,2,,,,,,,,,1,,,69,0
12660,note_on,0,0,1,,,,,,,,,0,,,79,62
12720,note_on,0,0,3,,,,,,,,,2,,,52,49
12720,note_on,120,0,3,,,,,,,,,2,,,49,0
12720,note_on,60,0,1,,,,,,,,,0,,,79,0
12720,note_on,0,0,1,,,,,,,,,0,,,79,62
12720,note_on,0,0,2,,,,,,,,,1,,,67,62
12720,note_on,0,0,3,,,,,,,,,2,,,61,49
12720,note_on,60,0,2,,,,,,,,,1,,,67,0
12840,note_on,0,0,3,,,,,,,,,2,,,49,49
12840,note_on,120,0,3,,,,,,,,,2,,,61,0
12840,note_on,0,0,3,,,,,,,,,2,,,52,0
12900,note_on,0,0,2,,,,,,,,,1,,,66,62
12900,note_on,180,0,2,,,,,,,,,1,,,67,0
12900,note_on,180,0,1,,,,,,,,,0,,,79,0
12900,note_on,0,0,1,,,,,,,,,0,,,78,62
12960,note_on,60,0,2,,,,,,,,,1,,,66,0
12960,note_on,480,0,4,,,,,,,,,3,,,45,0
12960,note_on,0,0,4,,,,,,,,,3,,,33,0
12960,note_on,60,0,1,,,,,,,,,0,,,78,0
12960,control_change,0,0,1,,,,,,,,,0,64,127,,
12960,note_on,0,0,1,,,,,,,,,0,,,78,62
12960,note_on,0,0,4,,,,,,,,,3,,,34,62
12960,note_on,0,0,4,,,,,,,,,3,,,46,62
12960,note_on,120,0,3,,,,,,,,,2,,,49,0
12960,note_on,0,0,2,,,,,,,,,1,,,66,62
13080,note_on,120,0,3,,,,,,,,,2,,,49,49
13200,note_on,120,0,3,,,,,,,,,2,,,49,0
13200,note_on,0,0,3,,,,,,,,,2,,,54,49
13200,note_on,0,0,3,,,,,,,,,2,,,61,49
13320,note_on,0,0,3,,,,,,,,,2,,,49,49
13320,note_on,0,0,3,,,,,,,,,2,,,54,0
13320,note_on,120,0,3,,,,,,,,,2,,,61,0
13440,note_on,0,0,1,,,,,,,,,0,,,76,62
13440,note_on,480,0,1,,,,,,,,,0,,,78,0
13440,note_on,120,0,3,,,,,,,,,2,,,49,0
13440,note_on,480,0,2,,,,,,,,,1,,,66,0
13440,note_on,480,0,4,,,,,,,,,3,,,46,0
13440,note_on,0,0,4,,,,,,,,,3,,,34,0
13440,note_on,0,0,4,,,,,,,,,3,,,35,62
13440,note_on,0,0,4,,,,,,,,,3,,,47,62
13560,note_on,120,0,1,,,,,,,,,0,,,76,0
13560,note_on,0,0,1,,,,,,,,,0,,,74,62
13560,note_on,120,0,3,,,,,,,,,2,,,50,49
13680,note_on,0,0,3,,,,,,,,,2,,,62,49
13680,note_on,0,0,3,,,,,,,,,2,,,54,49
13680,note_on,120,0,1,,,,,,,,,0,,,74,0
13680,note_on,120,0,3,,,,,,,,,2,,,50,0
13680,note_on,0,0,4,,,,,,,,,3,,,38,62
13680,note_on,0,0,4,,,,,,,,,3,,,35,0
13680,note_on,0,0,1,,,,,,,,,0,,,66,62
13680,note_on,240,0,4,,,,,,,,,3,,,47,0
13800,note_on,120,0,1,,,,,,,,,0,,,66,0
13800,control_change,0,0,1,,,,,,,,,0,64,0,,
13800,note_on,0,0,1,,,,,,,,,0,,,68,62
13800,note_on,0,0,3,,,,,,,,,2,,,54,0
13800,note_on,120,0,3,,,,,,,,,2,,,62,0
13800,note_on,0,0,3,,,,,,,,,2,,,50,49
13920,note_on,120,0,1,,,,,,,,,0,,,68,0
13920,note_on,0,0,4,,,,,,,,,3,,,40,62
13920,note_on,0,0,2,,,,,,,,,1,,,64,49
13920,note_on,480,0,2,,,,,,,,,1,,,61,49
13920,note_on,0,0,1,,,,,,,,,0,,,69,62
13920,note_on,240,0,4,,,,,,,,,3,,,38,0
13920,note_on,120,0,3,,,,,,,,,2,,,50,0
14040,note_on,0,0,1,,,,,,,,,0,,,71,62
14040,note_on,120,0,3,,,,,,,,,2,,,49,49
14040,note_on,120,0,1,,,,,,,,,0,,,69,0
14100,note_on,60,0,1,,,,,,,,,0,,,71,0
14100,note_on,0,0,1,,,,,,,,,0,,,69,62
14160,note_on,60,0,1,,,,,,,,,0,,,69,0
14160,note_on,0,0,1,,,,,,,,,0,,,68,62
14160,note_on,120,0,3,,,,,,,,,2,,,49,0
14160,note_on,0,0,3,,,,,,,,,2,,,52,49
14220,note_on,60,0,1,,,,,,,,,0,,,68,0
14220,note_on,0,0,1,,,,,,,,,0,,,69,62
14280,note_on,120,0,3,,,,,,,,,2,,,52,0
14280,note_on,0,0,3,,,,,,,,,2,,,57,49
14280,note_on,0,0,1,,,,,,,,,0,,,71,62
14280,note_on,60,0,1,,,,,,,,,0,,,69,0
14400,note_on,0,0,2,,,,,,,,,1,,,68,49
14400,note_on,120,0,3,,,,,,,,,2,,,57,0
14400,note_on,480,0,2,,,,,,,,,1,,,64,0
14400,note_on,0,0,2,,,,,,,,,1,,,64,49
14400,note_on,0,0,2,,,,,,,,,1,,,61,0
14400,note_on,0,0,4,,,,,,,,,3,,,40,62
14400,note_on,480,0,4,,,,,,,,,3,,,40,0
14400,note_on,0,0,1,,,,,,,,,0,,,71,62
14400,note_on,120,0,1,,,,,,,,,0,,,71,0
14520,note_on,0,0,1,,,,,,,,,0,,,73,62
14520,note_on,120,0,1,,,,,,,,,0,,,71,0
14520,note_on,120,0,3,,,,,,,,,2,,,52,49
14580,note_on,0,0,1,,,,,,,,,0,,,71,62
14580,note_on,60,0,1,,,,,,,,,0,,,73,0
14640,note_on,0,0,1,,,,,,,,,0,,,69,62
14640,note_on,60,0,1,,,,,,,,,0,,,71,0
14640,note_on,0,0,3,,,,,,,,,2,,,56,49
14640,note_on,120,0,3,,,,,,,,,2,,,52,0
14700,note_on,60,0,1,,,,,,,,,0,,,69,0
14700,note_on,0,0,1,,,,,,,,,0,,,71,62
14760,note_on,0,0,3,,,,,,,,,2,,,60,49
14760,note_on,0,0,1,,,,,,,,,0,,,72,62
14760,note_on,60,0,1,,,,,,,,,0,,,71,0
14760,note_on,120,0,3,,,,,,,,,2,,,56,0
14880,note_on,0,0,4,,,,,,,,,3,,,45,62
14880,note_on,0,0,1,,,,,,,,,0,,,72,62
14880,note_on,480,0,4,,,,,,,,,3,,,40,0
14880,note_on,120,0,1,,,,,,,,,0,,,72,0
14880,note_on,0,0,2,,,,,,,,,1,,,64,0
14880,note_on,480,0,2,,,,,,,,,1,,,68,0
14880,note_on,120,0,3,,,,,,,,,2,,,60,0
14880,note_on,0,0,2,,,,,,,,,1,,,68,49
14880,note_on,0,0,2,,,,,,,,,1,,,64,49
15000,note_on,120,0,3,,,,,,,,,2,,,52,49
15120,note_on,0,0,3,,,,,,,,,2,,,56,49
15120,note_on,120,0,3,,,,,,,,,2,,,52,0
15240,note_on,0,0,3,,,,,,,,,2,,,60,49
15240,note_on,120,0,3,,,,,,,,,2,,,56,0
15360,note_on,480,0,2,,,,,,,,,1,,,68,0
15360,note_on,0,0,2,,,,,,,,,1,,,69,49
15360,note_on,0,0,3,,,,,,,,,2,,,61,49
15360,note_on,120,0,3,,,,,,,,,2,,,60,0
15360,note_on,0,0,2,,,,,,,,,1,,,64,0
15360,note_on,0,0,2,,,,,,,,,1,,,64,49
15360,note_on,480,0,1,,,,,,,,,0,,,72,0
15360,note_on,0,0,1,,,,,,,,,0,,,73,62
15480,note_on,0,0,3,,,,,,,,,2,,,57,49
15480,note_on,120,0,3,,,,,,,,,2,,,61,0
15600,control_change,0,0,1,,,,,,,,,0,64,127,,
15600,note_on,0,0,1,,,,,,,,,0,,,81,62
15600,note_on,720,0,4,,,,,,,,,3,,,45,0
15600,note_on,0,0,3,,,,,,,,,2,,,52,49
15600,note_on,120,0,3,,,,,,,,,2,,,57,0
15600,control_change,0,0,2,,,,,,,,,1,64,127,,
15600,note_on,0,0,2,,,,,,,,,1,,,69,62
15600,note_on,0,0,2,,,,,,,,,1,,,64,0
15600,note_on,240,0,2,,,,,,,,,1,,,69,0
15600,note_on,240,0,1,,,,,,,,,0,,,73,0
15660,note_on,60,0,2,,,,,,,,,1,,,69,0
15660,note_on,0,0,2,,,,,,,,,1,,,71,62
15660,note_on,60,0,3,,,,,,,,,2,,,52,0
15660,note_on,0,0,3,,,,,,,,,2,,,53,49
15660,note_on,60,0,1,,,,,,,,,0,,,81,0
15660,note_on,0,0,1,,,,,,,,,0,,,83,62
15720,note_on,60,0,2,,,,,,,,,1,,,71,0
15720,note_on,0,0,1,,,,,,,,,0,,,81,62
15720,note_on,0,0,2,,,,,,,,,1,,,69,62
15720,note_on,60,0,1,,,,,,,,,0,,,83,0
15720,note_on,0,0,3,,,,,,,,,2,,,54,49
15720,note_on,60,0,3,,,,,,,,,2,,,53,0
15780,note_on,0,0,1,,,,,,,,,0,,,80,62
15780,note_on,0,0,3,,,,,,,,,2,,,56,49
15780,note_on,60,0,3,,,,,,,,,2,,,54,0
15780,note_on,60,0,1,,,,,,,,,0,,,81,0
15780,note_on,0,0,2,,,,,,,,,1,,,68,62
15780,note_on,60,0,2,,,,,,,,,1,,,69,0
15840,note_on,60,0,1,,,,,,,,,0,,,80,0
15840,control_change,0,0,2,,,,,,,,,1,64,0,,
15840,note_on,60,0,2,,,,,,,,,1,,,68,0
15840,note_on,0,0,3,,,,,,,,,2,,,57,49
15840,control_change,0,0,1,,,,,,,,,0,64,0,,
15840,note_on,60,0,3,,,,,,,,,2,,,56,0
15840,note_on,0,0,2,,,,,,,,,1,,,66,62
15840,note_on,0,0,1,,,,,,,,,0,,,78,62
15960,note_on,0,0,3,,,,,,,,,2,,,47,49
15960,note_on,120,0,3,,,,,,,,,2,,,57,0
16080,note_on,240,0,2,,,,,,,,,1,,,66,0
16080,control_change,0,0,2,,,,,,,,,1,64,127,,
16080,note_on,0,0,3,,,,,,,,,2,,,57,49
16080,control_change,480,0,4,,,,,,,,,3,64,127,,
16080,note_on,0,0,4,,,,,,,,,3,,,35,62
16080,note_on,0,0,2,,,,,,,,,1,,,66,75
16080,note_on,120,0,3,,,,,,,,,2,,,47,0
16080,note_on,240,0,1,,,,,,,,,0,,,78,0
16080,control_change,0,0,1,,,,,,,,,0,64,127,,
16080,note_on,0,0,1,,,,,,,,,0,,,78,75
16080,note_on,0,0,1,,,,,,,,,0,,,87,75
16080,note_on,0,0,3,,,,,,,,,2,,,59,49
16080,note_on,0,0,2,,,,,,,,,1,,,75,75
16200,note_on,0,0,3,,,,,,,,,2,,,47,49
16200,note_on,120,0,3,,,,,,,,,2,,,59,0
16200,note_on,0,0,3,,,,,,,,,2,,,57,0
16320,note_on,0,0,2,,,,,,,,,1,,,66,0
16320,note_on,0,0,1,,,,,,,,,0,,,87,75
16320,note_on,240,0,1,,,,,,,,,0,,,87,0
16320,note_on,0,0,4,,,,,,,,,3,,,35,62
16320,note_on,240,0,4,,,,,,,,,3,,,35,0
16320,note_on,0,0,1,,,,,,,,,0,,,78,0
16320,note_on,120,0,3,,,,,,,,,2,,,47,0
16320,note_on,0,0,3,,,,,,,,,2,,,59,49
16320,note_on,0,0,3,,,,,,,,,2,,,57,49
16320,note_on,0,0,2,,,,,,,,,1,,,75,75
16320,note_on,0,0,2,,,,,,,,,1,,,66,75
16320,note_on,240,0,2,,,,,,,,,1,,,75,0
16320,note_on,0,0,1,,,,,,,,,0,,,78,75
16440,note_on,0,0,3,,,,,,,,,2,,,47,49
16440,note_on,0,0,3,,,,,,,,,2,,,57,0
16440,note_on,120,0,3,,,,,,,,,2,,,59,0
16560,note_on,0,0,2,,,,,,,,,1,,,66,88
16560,note_on,0,0,2,,,,,,,,,1,,,66,0
16560,control_change,0,0,2,,,,,,,,,1,64,0,,
16560,note_on,0,0,2,,,,,,,,,1,,,75,88
16560,note_on,240,0,1,,,,,,,,,0,,,87,0
16560,note_on,0,0,1,,,,,,,,,0,,,78,0
16560,note_on,0,0,1,,,,,,,,,0,,,78,88
16560,note_on,120,0,3,,,,,,,,,2,,,47,0
16560,note_on,0,0,3,,,,,,,,,2,,,57,49
16560,note_on,0,0,3,,,,,,,,,2,,,59,49
16560,note_on,0,0,1,,,,,,,,,0,,,87,88
16560,control_change,0,0,1,,,,,,,,,0,64,0,,
16560,note_on,240,0,4,,,,,,,,,3,,,35,0
16560,control_change,0,0,4,,,,,,,,,3,64,0,,
16560,note_on,0,0,4,,,,,,,,,3,,,35,62
16560,note_on,240,0,2,,,,,,,,,1,,,75,0
16680,note_on,0,0,3,,,,,,,,,2,,,47,49
16680,note_on,120,0,3,,,,,,,,,2,,,59,0
16680,note_on,0,0,3,,,,,,,,,2,,,57,0
16800,note_on,0,0,1,,,,,,,,,0,,,87,88
16800,note_on,240,0,2,,,,,,,,,1,,,75,0
16800,note_on,0,0,2,,,,,,,,,1,,,66,88
16800,note_on,0,0,2,,,,,,,,,1,,,75,88
16800,note_on,240,0,1,,,,,,,,,0,,,87,0
16800,note_on,0,0,1,,,,,,,,,0,,,78,0
16800,note_on,0,0,1,,,,,,,,,0,,,78,88
16800,note_on,0,0,4,,,,,,,,,3,,,35,62
16800,note_on,0,0,2,,,,,,,,,1,,,66,0
16800,note_on,0,0,3,,,,,,,,,2,,,59,49
16800,note_on,0,0,3,,,,,,,,,2,,,57,49
16800,note_on,120,0,3,,,,,,,,,2,,,47,0
16800,note_on,240,0,4,,,,,,,,,3,,,35,0
16920,note_on,0,0,3,,,,,,,,,2,,,47,49
16920,note_on,0,0,3,,,,,,,,,2,,,57,0
16920,note_on,120,0,3,,,,,,,,,2,,,59,0
17040,note_on,0,0,3,,,,,,,,,2,,,57,49
17040,note_on,120,0,3,,,,,,,,,2,,,47,0
17040,note_on,0,0,3,,,,,,,,,2,,,59,49
17040,note_on,0,0,2,,,,,,,,,1,,,63,88
17040,note_on,0,0,2,,,,,,,,,1,,,75,88
17040,note_on,0,0,2,,,,,,,,,1,,,66,0
17040,note_on,240,0,2,,,,,,,,,1,,,75,0
17040,note_on,240,0,1,,,,,,,,,0,,,87,0
17040,note_on,0,0,1,,,,,,,,,0,,,78,0
17040,note_on,0,0,1,,,,,,,,,0,,,78,88
17040,note_on,0,0,1,,,,,,,,,0,,,90,88
17220,note_on,0,0,4,,,,,,,,,3,,,40,62
17220,note_on,0,0,2,,,,,,,,,1,,,64,88
17220,note_on,0,0,2,,,,,,,,,1,,,63,0
17220,note_on,180,0,2,,,,,,,,,1,,,75,0
17220,note_on,420,0,4,,,,,,,,,3,,,35,0
17220,note_on,0,0,1,,,,,,,,,0,,,88,75
17220,note_on,0,0,1,,,,,,,,,0,,,78,0
17220,note_on,0,0,1,,,,,,,,,0,,,76,75
17220,note_on,180,0,3,,,,,,,,,2,,,59,0
17220,note_on,0,0,3,,,,,,,,,2,,,57,0
17220,note_on,0,0,3,,,,,,,,,2,,,56,49
17220,note_on,180,0,1,,,,,,,,,0,,,90,0
17280,note_on,0,0,2,,,,,,,,,1,,,64,88
17280,note_on,60,0,2,,,,,,,,,1,,,64,0
17280,note_on,60,0,4,,,,,,,,,3,,,40,0
17280,note_on,0,0,4,,,,,,,,,3,,,40,62
17280,note_on,0,0,3,,,,,,,,,2,,,59,49
17280,note_on,0,0,3,,,,,,,,,2,,,56,49
17280,note_on,60,0,3,,,,,,,,,2,,,56,0
17280,note_on,0,0,1,,,,,,,,,0,,,88,75
17280,note_on,0,0,1,,,,,,,,,0,,,76,75
17280,note_on,0,0,1,,,,,,,,,0,,,76,0
17280,note_on,60,0,1,,,,,,,,,0,,,88,0
17400,note_on,120,0,3,,,,,,,,,2,,,59,0
17400,note_on,0,0,3,,,,,,,,,2,,,47,49
17400,note_on,0,0,3,,,,,,,,,2,,,56,0
17520,note_on,240,0,1,,,,,,,,,0,,,88,0
17520,note_on,240,0,4,,,,,,,,,3,,,40,0
17520,note_on,0,0,1,,,,,,,,,0,,,79,62
17520,control_change,0,0,1,,,,,,,,,0,64,127,,
17520,note_on,0,0,2,,,,,,,,,1,,,67,62
17520,note_on,0,0,1,,,,,,,,,0,,,76,0
17520,note_on,240,0,2,,,,,,,,,1,,,64,0
17520,control_change,0,0,2,,,,,,,,,1,64,127,,
17520,note_on,120,0,3,,,,,,,,,2,,,47,0
17520,note_on,0,0,3,,,,,,,,,2,,,52,49
17580,note_on,0,0,2,,,,,,,,,1,,,69,62
17580,note_on,0,0,3,,,,,,,,,2,,,51,49
17580,note_on,60,0,3,,,,,,,,,2,,,52,0
17580,note_on,60,0,2,,,,,,,,,1,,,67,0
17580,note_on,0,0,1,,,,,,,,,0,,,81,62
17580,note_on,60,0,1,,,,,,,,,0,,,79,0
17640,note_on,0,0,2,,,,,,,,,1,,,67,62
17640,note_on,60,0,2,,,,,,,,,1,,,69,0
17640,note_on,0,0,1,,,,,,,,,0,,,79,62
17640,note_on,0,0,3,,,,,,,,,2,,,52,49
17640,note_on,60,0,1,,,,,,,,,0,,,81,0
17640,note_on,60,0,3,,,,,,,,,2,,,51,0
17700,note_on,60,0,1,,,,,,,,,0,,,79,0
17700,note_on,60,0,3,,,,,,,,,2,,,52,0
17700,note_on,0,0,2,,,,,,,,,1,,,66,62
17700,note_on,0,0,1,,,,,,,,,0,,,78,62
17700,note_on,0,0,3,,,,,,,,,2,,,54,49
17700,note_on,60,0,2,,,,,,,,,1,,,67,0
17760,note_on,60,0,2,,,,,,,,,1,,,66,0
17760,control_change,0,0,2,,,,,,,,,1,64,0,,
17760,note_on,0,0,2,,,,,,,,,1,,,64,62
17760,control_change,0,0,1,,,,,,,,,0,64,0,,
17760,note_on,60,0,1,,,,,,,,,0,,,78,0
17760,note_on,0,0,1,,,,,,,,,0,,,76,62
17760,note_on,0,0,3,,,,,,,,,2,,,55,49
17760,note_on,60,0,3,,,,,,,,,2,,,54,0
17880,note_on,0,0,3,,,,,,,,,2,,,45,49
17880,note_on,120,0,3,,,,,,,,,2,,,55,0
18000,note_on,0,0,3,,,,,,,,,2,,,57,49
18000,note_on,240,0,2,,,,,,,,,1,,,64,0
18000,control_change,0,0,2,,,,,,,,,1,64,127,,
18000,note_on,0,0,3,,,,,,,,,2,,,55,49
18000,note_on,0,0,1,,,,,,,,,0,,,85,62
18000,control_change,0,0,1,,,,,,,,,0,64,127,,
18000,note_on,240,0,1,,,,,,,,,0,,,76,0
18000,note_on,0,0,2,,,,,,,,,1,,,64,62
18000,note_on,0,0,2,,,,,,,,,1,,,73,62
18000,note_on,0,0,4,,,,,,,,,3,,,33,62
18000,control_change,480,0,4,,,,,,,,,3,64,127,,
18000,note_on,0,0,1,,,,,,,,,0,,,76,62
18000,note_on,120,0,3,,,,,,,,,2,,,45,0
18120,note_on,120,0,3,,,,,,,,,2,,,57,0
18120,note_on,0,0,3,,,,,,,,,2,,,55,0
18120,note_on,0,0,3,,,,,,,,,2,,,45,49
18240,note_on,0,0,3,,,,,,,,,2,,,55,49
18240,note_on,120,0,3,,,,,,,,,2,,,45,0
18240,note_on,0,0,2,,,,,,,,,1,,,73,75
18240,note_on,0,0,1,,,,,,,,,0,,,85,75
18240,note_on,0,0,1,,,,,,,,,0,,,76,75
18240,note_on,0,0,1,,,,,,,,,0,,,76,0
18240,note_on,240,0,1,,,,,,,,,0,,,85,0
18240,note_on,0,0,4,,,,,,,,,3,,,33,62
18240,note_on,240,0,4,,,,,,,,,3,,,33,0
18240,note_on,240,0,2,,,,,,,,,1,,,73,0
18240,note_on,0,0,2,,,,,,,,,1,,,64,0
18240,note_on,0,0,2,,,,,,,,,1,,,64,75
18240,note_on,0,0,3,,,,,,,,,2,,,57,49
18360,note_on,0,0,3,,,,,,,,,2,,,55,0
18360,note_on,0,0,3,,,,,,,,,2,,,45,49
18360,note_on,120,0,3,,,,,,,,,2,,,57,0
18480,note_on,0,0,1,,,,,,,,,0,,,85,75
18480,note_on,240,0,4,,,,,,,,,3,,,33,0
18480,control_change,0,0,1,,,,,,,,,0,64,0,,
18480,note_on,0,0,4,,,,,,,,,3,,,33,62
18480,note_on,240,0,2,,,,,,,,,1,,,73,0
18480,note_on,0,0,2,,,,,,,,,1,,,64,0
18480,control_change,0,0,2,,,,,,,,,1,64,0,,
18480,note_on,0,0,2,,,,,,,,,1,,,64,75
18480,note_on,0,0,2,,,,,,,,,1,,,73,75
18480,note_on,0,0,1,,,,,,,,,0,,,76,75
18480,control_change,0,0,4,,,,,,,,,3,64,0,,
18480,note_on,240,0,1,,,,,,,,,0,,,85,0
18480,note_on,120,0,3,,,,,,,,,2,,,45,0
18480,note_on,0,0,3,,,,,,,,,2,,,57,49
18480,note_on,0,0,3,,,,,,,,,2,,,55,49
18480,note_on,0,0,1,,,,,,,,,0,,,76,0
18600,note_on,0,0,3,,,,,,,,,2,,,45,49
18600,note_on,0,0,3,,,,,,,,,2,,,55,0
18600,note_on,120,0,3,,,,,,,,,2,,,57,0
18720,note_on,0,0,2,,,,,,,,,1,,,64,88
18720,note_on,240,0,4,,,,,,,,,3,,,33,0
18720,note_on,0,0,4,,,,,,,,,3,,,33,62
18720,note_on,0,0,1,,,,,,,,,0,,,85,88
18720,note_on,0,0,3,,,,,,,,,2,,,57,49
18720,note_on,0,0,2,,,,,,,,,1,,,73,88
18720,note_on,0,0,1,,,,,,,,,0,,,76,88
18720,note_on,0,0,1,,,,,,,,,0,,,76,0
18720,note_on,240,0,1,,,,,,,,,0,,,85,0
18720,note_on,120,0,3,,,,,,,,,2,,,45,0
18720,note_on,0,0,3,,,,,,,,,2,,,55,49
18720,note_on,240,0,2,,,,,,,,,1,,,73,0
18720,note_on,0,0,2,,,,,,,,,1,,,64,0
18840,note_on,0,0,3,,,,,,,,,2,,,45,49
18840,note_on,0,0,3,,,,,,,,,2,,,55,0
18840,note_on,120,0,3,,,,,,,,,2,,,57,0
18960,note_on,120,0,3,,,,,,,,,2,,,45,0
18960,note_on,240,0,1,,,,,,,,,0,,,85,0
18960,note_on,0,0,1,,,,,,,,,0,,,76,88
18960,note_on,0,0,1,,,,,,,,,0,,,88,88
18960,note_on,0,0,3,,,,,,,,,2,,,57,49
18960,note_on,0,0,3,,,,,,,,,2,,,55,49
18960,note_on,0,0,1,,,,,,,,,0,,,76,0
18960,note_on,240,0,2,,,,,,,,,1,,,73,0
18960,note_on,0,0,2,,,,,,,,,1,,,64,0
18960,note_on,0,0,2,,,,,,,,,1,,,73,88
18960,note_on,0,0,2,,,,,,,,,1,,,61,88
19140,note_on,180,0,1,,,,,,,,,0,,,88,0
19140,note_on,0,0,1,,,,,,,,,0,,,86,75
19140,note_on,0,0,1,,,,,,,,,0,,,74,75
19140,note_on,0,0,3,,,,,,,,,2,,,55,0
19140,note_on,180,0,3,,,,,,,,,2,,,57,0
19140,note_on,0,0,4,,,,,,,,,3,,,38,62
19140,note_on,0,0,3,,,,,,,,,2,,,54,49
19140,note_on,180,0,2,,,,,,,,,1,,,73,0
19140,note_on,0,0,2,,,,,,,,,1,,,61,0
19140,note_on,0,0,2,,,,,,,,,1,,,62,88
19140,note_on,0,0,1,,,,,,,,,0,,,76,0
19140,note_on,420,0,4,,,,,,,,,3,,,33,0
19200,note_on,0,0,1,,,,,,,,,0,,,74,75
19200,note_on,0,0,2,,,,,,,,,1,,,62,88
19200,note_on,60,0,2,,,,,,,,,1,,,62,0
19200,note_on,0,0,4,,,,,,,,,3,,,38,62
19200,note_on,60,0,4,,,,,,,,,3,,,38,0
19200,note_on,60,0,1,,,,,,,,,0,,,86,0
19200,note_on,0,0,3,,,,,,,,,2,,,57,49
19200,note_on,0,0,3,,,,,,,,,2,,,54,49
19200,note_on,60,0,3,,,,,,,,,2,,,54,0
19200,note_on,0,0,1,,,,,,,,,0,,,74,0
19200,note_on,0,0,1,,,,,,,,,0,,,86,75
19320,note_on,120,0,3,,,,,,,,,2,,,57,0
19320,note_on,0,0,3,,,,,,,,,2,,,45,49
19320,note_on,0,0,3,,,,,,,,,2,,,54,0
19440,note_on,240,0,2,,,,,,,,,1,,,62,0
19440,note_on,0,0,3,,,,,,,,,2,,,59,49
19440,note_on,0,0,1,,,,,,,,,0,,,74,62
19440,note_on,0,0,4,,,,,,,,,3,,,35,62
19440,note_on,0,0,4,,,,,,,,,3,,,47,62
19440,note_on,0,0,1,,,,,,,,,0,,,74,0
19440,note_on,240,0,1,,,,,,,,,0,,,86,0
19440,note_on,0,0,2,,,,,,,,,1,,,62,62
19440,note_on,0,0,3,,,,,,,,,2,,,54,49
19440,note_on,240,0,4,,,,,,,,,3,,,38,0
19440,note_on,120,0,3,,,,,,,,,2,,,45,0
19560,note_on,0,0,3,,,,,,,,,2,,,50,49
19560,note_on,120,0,3,,,,,,,,,2,,,59,0
19560,note_on,0,0,3,,,,,,,,,2,,,54,0
19620,note_on,180,0,1,,,,,,,,,0,,,74,0
19620,note_on,0,0,1,,,,,,,,,0,,,76,62
19620,note_on,180,0,2,,,,,,,,,1,,,62,0
19620,note_on,0,0,2,,,,,,,,,1,,,64,62
19680,note_on,60,0,1,,,,,,,,,0,,,76,0
19680,note_on,0,0,1,,,,,,,,,0,,,78,62
19680,note_on,120,0,3,,,,,,,,,2,,,50,0
19680,note_on,0,0,2,,,,,,,,,1,,,66,62
19680,note_on,0,0,4,,,,,,,,,3,,,46,62
19680,note_on,0,0,4,,,,,,,,,3,,,34,62
19680,note_on,0,0,4,,,,,,,,,3,,,35,0
19680,note_on,60,0,2,,,,,,,,,1,,,64,0
19680,note_on,240,0,4,,,,,,,,,3,,,47,0
19800,note_on,120,0,3,,,,,,,,,2,,,49,49
19920,note_on,0,0,3,,,,,,,,,2,,,61,49
19920,note_on,0,0,3,,,,,,,,,2,,,54,49
19920,note_on,120,0,3,,,,,,,,,2,,,49,0
20040,note_on,0,0,2,,,,,,,,,1,,,66,62
20040,note_on,0,0,3,,,,,,,,,2,,,49,49
20040,note_on,0,0,3,,,,,,,,,2,,,54,0
20040,note_on,0,0,1,,,,,,,,,0,,,78,62
20040,note_on,360,0,1,,,,,,,,,0,,,78,0
20040,note_on,360,0,2,,,,,,,,,1,,,66,0
20040,note_on,120,0,3,,,,,,,,,2,,,61,0
20160,note_on,120,0,2,,,,,,,,,1,,,66,0
20160,note_on,0,0,1,,,,,,,,,0,,,81,62
20160,note_on,0,0,2,,,,,,,,,1,,,69,62
20160,note_on,0,0,4,,,,,,,,,3,,,34,0
20160,note_on,120,0,1,,,,,,,,,0,,,78,0
20160,note_on,0,0,4,,,,,,,,,3,,,33,62
20160,note_on,480,0,4,,,,,,,,,3,,,46,0
20160,note_on,120,0,3,,,,,,,,,2,,,49,0
20160,note_on,0,0,4,,,,,,,,,3,,,45,62
20280,note_on,120,0,3,,,,,,,,,2,,,49,49
20340,note_on,180,0,1,,,,,,,,,0,,,81,0
20340,note_on,0,0,2,,,,,,,,,1,,,67,62
20340,note_on,0,0,1,,,,,,,,,0,,,79,62
20340,note_on,180,0,2,,,,,,,,,1,,,69,0
20400,note_on,120,0,3,,,,,,,,,2,,,49,0
20400,note_on,60,0,2,,,,,,,,,1,,,67,0
20400,note_on,0,0,2,,,,,,,,,1,,,67,62
20400,note_on,0,0,3,,,,,,,,,2,,,52,49
20400,note_on,0,0,3,,,,,,,,,2,,,61,49
20400,note_on,0,0,1,,,,,,,,,0,,,79,62
20400,note_on,60,0,1,,,,,,,,,0,,,79,0
20520,note_on,0,0,3,,,,,,,,,2,,,52,0
20520,note_on,0,0,3,,,,,,,,,2,,,49,49
20520,note_on,120,0,3,,,,,,,,,2,,,61,0
20580,note_on,180,0,2,,,,,,,,,1,,,67,0
20580,note_on,180,0,1,,,,,,,,,0,,,79,0
20580,note_on,0,0,1,,,,,,,,,0,,,78,62
20580,note_on,0,0,2,,,,,,,,,1,,,66,62
20640,control_change,0,0,1,,,,,,,,,0,64,127,,
20640,note_on,60,0,1,,,,,,,,,0,,,78,0
20640,note_on,0,0,1,,,,,,,,,0,,,78,62
20640,note_on,120,0,3,,,,,,,,,2,,,49,0
20640,note_on,0,0,4,,,,,,,,,3,,,46,62
20640,note_on,0,0,2,,,,,,,,,1,,,66,62
20640,note_on,60,0,2,,,,,,,,,1,,,66,0
20640,note_on,0,0,4,,,,,,,,,3,,,34,62
20640,note_on,0,0,4,,,,,,,,,3,,,33,0
20640,note_on,480,0,4,,,,,,,,,3,,,45,0
20760,note_on,120,0,3,,,,,,,,,2,,,49,49
20880,note_on,120,0,3,,,,,,,,,2,,,49,0
20880,note_on,0,0,3,,,,,,,,,2,,,61,49
20880,note_on,0,0,3,,,,,,,,,2,,,54,49
21000,note_on,120,0,3,,,,,,,,,2,,,61,0
21000,note_on,0,0,3,,,,,,,,,2,,,54,0
21000,note_on,0,0,3,,,,,,,,,2,,,49,49
21120,note_on,0,0,4,,,,,,,,,3,,,47,62
21120,note_on,480,0,4,,,,,,,,,3,,,46,0
21120,note_on,120,0,3,,,,,,,,,2,,,49,0
21120,note_on,480,0,1,,,,,,,,,0,,,78,0
21120,note_on,0,0,4,,,,,,,,,3,,,34,0
21120,note_on,0,0,4,,,,,,,,,3,,,35,62
21120,note_on,0,0,1,,,,,,,,,0,,,76,62
21240,note_on,120,0,1,,,,,,,,,0,,,76,0
21240,note_on,0,0,1,,,,,,,,,0,,,74,62
21240,note_on,120,0,3,,,,,,,,,2,,,50,49
21360,note_on,240,0,4,,,,,,,,,3,,,47,0
21360,note_on,0,0,4,,,,,,,,,3,,,35,0
21360,note_on,0,0,4,,,,,,,,,3,,,38,62
21360,note_on,0,0,3,,,,,,,,,2,,,62,49
21360,note_on,0,0,3,,,,,,,,,2,,,54,49
21360,note_on,120,0,3,,,,,,,,,2,,,50,0
21360,note_on,720,0,2,,,,,,,,,1,,,66,0
21360,note_on,120,0,1,,,,,,,,,0,,,74,0
21360,note_on,0,0,1,,,,,,,,,0,,,66,62
21480,note_on,0,0,3,,,,,,,,,2,,,54,0
21480,note_on,120,0,3,,,,,,,,,2,,,62,0
21480,note_on,0,0,1,,,,,,,,,0,,,68,62
21480,control_change,0,0,1,,,,,,,,,0,64,0,,
21480,note_on,120,0,1,,,,,,,,,0,,,66,0
21480,note_on,0,0,3,,,,,,,,,2,,,50,49
21600,control_change,0,0,1,,,,,,,,,0,64,127,,
21600,note_on,0,0,1,,,,,,,,,0,,,69,62
21600,note_on,240,0,2,,,,,,,,,1,,,61,49
21600,note_on,0,0,2,,,,,,,,,1,,,64,49
21600,note_on,0,0,4,,,,,,,,,3,,,40,62
21600,note_on,240,0,4,,,,,,,,,3,,,38,0
21600,note_on,120,0,1,,,,,,,,,0,,,68,0
21600,note_on,120,0,3,,,,,,,,,2,,,50,0
21630,note_on,30,0,1,,,,,,,,,0,,,69,0
21630,note_on,0,0,1,,,,,,,,,0,,,71,62
21660,note_on,30,0,1,,,,,,,,,0,,,71,0
21660,note_on,0,0,1,,,,,,,,,0,,,69,62
21690,note_on,0,0,1,,,,,,,,,0,,,71,62
21690,note_on,30,0,1,,,,,,,,,0,,,69,0
21720,note_on,30,0,1,,,,,,,,,0,,,71,0
21720,note_on,120,0,3,,,,,,,,,2,,,49,49
21720,note_on,0,0,1,,,,,,,,,0,,,69,62
21750,note_on,0,0,1,,,,,,,,,0,,,71,62
21750,note_on,30,0,1,,,,,,,,,0,,,69,0
21780,note_on,0,0,1,,,,,,,,,0,,,69,62
21780,note_on,30,0,1,,,,,,,,,0,,,71,0
21810,note_on,0,0,1,,,,,,,,,0,,,71,62
21810,note_on,30,0,1,,,,,,,,,0,,,69,0
21840,note_on,0,0,3,,,,,,,,,2,,,52,49
21840,note_on,30,0,1,,,,,,,,,0,,,71,0
21840,note_on,0,0,1,,,,,,,,,0,,,69,62
21840,note_on,120,0,3,,,,,,,,,2,,,49,0
21870,note_on,0,0,1,,,,,,,,,0,,,71,62
21870,note_on,30,0,1,,,,,,,,,0,,,69,0
21900,note_on,0,0,1,,,,,,,,,0,,,69,62
21900,note_on,30,0,1,,,,,,,,,0,,,71,0
21930,note_on,30,0,1,,,,,,,,,0,,,69,0
21930,note_on,0,0,1,,,,,,,,,0,,,71,62
21960,note_on,30,0,1,,,,,,,,,0,,,71,0
21960,note_on,0,0,3,,,,,,,,,2,,,57,49
21960,note_on,120,0,3,,,,,,,,,2,,,52,0
21960,note_on,0,0,1,,,,,,,,,0,,,69,62
21990,note_on,30,0,1,,,,,,,,,0,,,69,0
21990,note_on,0,0,1,,,,,,,,,0,,,71,62
22020,note_on,30,0,1,,,,,,,,,0,,,71,0
22020,note_on,0,0,1,,,,,,,,,0,,,69,62
22050,note_on,30,0,1,,,,,,,,,0,,,69,0
22050,note_on,0,0,1,,,,,,,,,0,,,71,62
22080,note_on,480,0,4,,,,,,,,,3,,,40,0
22080,note_on,0,0,4,,,,,,,,,3,,,40,62
22080,note_on,0,0,2,,,,,,,,,1,,,68,49
22080,note_on,120,0,3,,,,,,,,,2,,,57,0
22080,note_on,30,0,1,,,,,,,,,0,,,71,0
22080,note_on,0,0,2,,,,,,,,,1,,,61,0
22080,note_on,480,0,2,,,,,,,,,1,,,64,0
22080,note_on,0,0,1,,,,,,,,,0,,,73,62
22080,note_on,0,0,2,,,,,,,,,1,,,64,49
22200,note_on,120,0,3,,,,,,,,,2,,,50,49
22320,note_on,120,0,3,,,,,,,,,2,,,50,0
22320,note_on,0,0,3,,,,,,,,,2,,,52,49
22440,note_on,360,0,2,,,,,,,,,1,,,68,0
22440,note_on,120,0,3,,,,,,,,,2,,,52,0
22440,note_on,0,0,2,,,,,,,,,1,,,62,49
22440,note_on,0,0,3,,,,,,,,,2,,,56,49
22440,control_change,0,0,1,,,,,,,,,0,64,0,,
22440,note_on,360,0,1,,,,,,,,,0,,,73,0
22440,note_on,0,0,2,,,,,,,,,1,,,64,0
22440,note_on,0,0,1,,,,,,,,,0,,,71,62
22560,note_on,120,0,3,,,,,,,,,2,,,56,0
22560,note_on,120,0,2,,,,,,,,,1,,,62,0
22560,note_on,0,0,4,,,,,,,,,3,,,45,62
22560,note_on,0,0,1,,,,,,,,,0,,,69,62
22560,control_change,0,0,1,,,,,,,,,0,64,127,,
22560,note_on,120,0,1,,,,,,,,,0,,,71,0
22560,note_on,0,0,2,,,,,,,,,1,,,61,49
22560,note_on,0,0,2,,,,,,,,,1,,,64,49
22560,note_on,480,0,4,,,,,,,,,3,,,40,0
22680,note_on,120,0,3,,,,,,,,,2,,,49,49
22800,note_on,120,0,3,,,,,,,,,2,,,49,0
22800,note_on,0,0,3,,,,,,,,,2,,,57,49
22920,note_on,120,0,3,,,,,,,,,2,,,57,0
22920,note_on,0,0,1,,,,,,,,,0,,,68,62
22920,note_on,360,0,1,,,,,,,,,0,,,69,0
22920,note_on,0,0,3,,,,,,,,,2,,,52,49
23040,note_on,0,0,1,,,,,,,,,0,,,69,62
23040,note_on,120,0,1,,,,,,,,,0,,,68,0
23040,set_tempo,22560,1,0,,,,,,1200000,,,,,,,
23040,note_on,120,0,3,,,,,,,,,2,,,52,0
23040,note_on,480,0,2,,,,,,,,,1,,,64,0
23040,note_on,0,0,2,,,,,,,,,1,,,61,0
23040,note_on,0,0,3,,,,,,,,,2,,,49,49
23160,note_on,0,0,3,,,,,,,,,2,,,52,49
23160,note_on,120,0,1,,,,,,,,,0,,,69,0
23160,note_on,0,0,1,,,,,,,,,0,,,71,62
23160,note_on,120,0,3,,,,,,,,,2,,,49,0
23280,note_on,720,0,4,,,,,,,,,3,,,45,0
23280,note_on,0,0,3,,,,,,,,,2,,,57,49
23280,note_on,120,0,1,,,,,,,,,0,,,71,0
23280,note_on,0,0,1,,,,,,,,,0,,,73,62
23280,note_on,120,0,3,,,,,,,,,2,,,52,0
23400,note_on,0,0,3,,,,,,,,,2,,,59,49
23400,note_on,120,0,3,,,,,,,,,2,,,57,0
23400,note_on,0,0,1,,,,,,,,,0,,,74,62
23400,note_on,120,0,1,,,,,,,,,0,,,73,0
23400,control_change,0,0,1,,,,,,,,,0,64,0,,
23520,note_on,240,0,4,,,,,,,,,3,,,33,62
23520,note_on,120,0,1,,,,,,,,,0,,,74,0
23520,control_change,0,0,1,,,,,,,,,0,64,127,,
23520,note_on,0,0,1,,,,,,,,,0,,,76,62
23520,note_on,120,0,3,,,,,,,,,2,,,59,0
23520,note_on,0,0,3,,,,,,,,,2,,,61,49
23520,set_tempo,480,1,0,,,,,,1000000,,,,,,,
23520,note_on,0,0,4,,,,,,,,,3,,,45,62
23640,note_on,0,0,3,,,,,,,,,2,,,52,49
23640,note_on,120,0,3,,,,,,,,,2,,,61,0
23760,note_on,0,0,1,,,,,,,,,0,,,73,62
23760,note_on,240,0,1,,,,,,,,,0,,,76,0
23760,note_on,120,0,3,,,,,,,,,2,,,52,0
23760,note_on,0,0,3,,,,,,,,,2,,,57,49
23880,note_on,0,0,3,,,,,,,,,2,,,59,49
23880,note_on,120,0,3,,,,,,,,,2,,,57,0
24000,note_on,480,0,4,,,,,,,,,3,,,45,0
24000,note_on,0,0,1,,,,,,,,,0,,,69,62
24000,note_on,240,0,1,,,,,,,,,0,,,73,0
24000,note_on,0,0,3,,,,,,,,,2,,,61,49
24000,note_on,120,0,3,,,,,,,,,2,,,59,0
24000,note_on,0,0,4,,,,,,,,,3,,,33,0
24120,note_on,120,0,3,,,,,,,,,2,,,61,0
24120,note_on,0,0,3,,,,,,,,,2,,,57,49
24240,note_on,0,0,3,,,,,,,,,2,,,62,49
24240,note_on,120,0,3,,,,,,,,,2,,,57,0
24240,note_on,240,0,1,,,,,,,,,0,,,69,0
24240,control_change,0,0,1,,,,,,,,,0,64,0,,
24240,note_on,0,0,1,,,,,,,,,0,,,66,62
24360,note_on,0,0,3,,,,,,,,,2,,,57,49
24360,note_on,120,0,3,,,,,,,,,2,,,62,0
24480,note_on,240,0,1,,,,,,,,,0,,,66,0
24480,note_on,0,0,3,,,,,,,,,2,,,61,49
24480,note_on,120,0,3,,,,,,,,,2,,,57,0
24480,note_on,0,0,1,,,,,,,,,0,,,64,62
24480,note_on,0,0,4,,,,,,,,,3,,,45,62
24480,note_on,480,0,4,,,,,,,,,3,,,33,62
24600,note_on,120,0,3,,,,,,,,,2,,,61,0
24600,note_on,0,0,3,,,,,,,,,2,,,57,49
24720,note_on,120,0,3,,,,,,,,,2,,,57,0
24720,note_on,0,0,3,,,,,,,,,2,,,56,49
24840,note_on,0,0,3,,,,,,,,,2,,,54,49
24840,note_on,120,0,3,,,,,,,,,2,,,56,0
24960,note_on,0,0,4,,,,,,,,,3,,,33,0
24960,note_on,480,0,4,,,,,,,,,3,,,45,0
24960,note_on,480,0,1,,,,,,,,,0,,,64,0
24960,note_on,120,0,3,,,,,,,,,2,,,54,0
24960,note_on,0,0,3,,,,,,,,,2,,,52,49
24960,note_on,0,0,1,,,,,,,,,0,,,61,62
25080,note_on,120,0,3,,,,,,,,,2,,,52,0
25080,note_on,0,0,3,,,,,,,,,2,,,57,49
25200,note_on,120,0,3,,,,,,,,,2,,,57,0
25200,note_on,0,0,3,,,,,,,,,2,,,62,75
25200,note_on,0,0,1,,,,,,,,,0,,,66,88
25200,control_change,0,0,1,,,,,,,,,0,64,127,,
25200,note_on,240,0,1,,,,,,,,,0,,,61,0
25320,note_on,120,0,3,,,,,,,,,2,,,62,0
25320,note_on,0,0,3,,,,,,,,,2,,,61,49
25380,note_on,180,0,1,,,,,,,,,0,,,66,0
25380,note_on,0,0,1,,,,,,,,,0,,,64,62
25440,note_on,120,0,3,,,,,,,,,2,,,61,0
25440,note_on,60,0,1,,,,,,,,,0,,,64,0
25440,note_on,0,0,1,,,,,,,,,0,,,62,62
25440,note_on,0,0,3,,,,,,,,,2,,,59,49
25440,note_on,480,0,4,,,,,,,,,3,,,40,62
25560,note_on,0,0,3,,,,,,,,,2,,,52,49
25560,note_on,120,0,3,,,,,,,,,2,,,59,0
25680,note_on,120,0,3,,,,,,,,,2,,,52,0
25680,note_on,0,0,3,,,,,,,,,2,,,59,49
25800,note_on,120,0,3,,,,,,,,,2,,,59,0
25800,note_on,0,0,3,,,,,,,,,2,,,57,49
25920,note_on,480,0,4,,,,,,,,,3,,,40,0
25920,note_on,0,0,1,,,,,,,,,0,,,59,62
25920,control_change,0,0,1,,,,,,,,,0,64,0,,
25920,note_on,480,0,1,,,,,,,,,0,,,62,0
25920,note_on,0,0,3,,,,,,,,,2,,,56,49
25920,note_on,120,0,3,,,,,,,,,2,,,57,0
26040,note_on,0,0,3,,,,,,,,,2,,,57,49
26040,note_on,120,0,3,,,,,,,,,2,,,56,0
26160,note_on,240,0,1,,,,,,,,,0,,,59,0
26160,note_on,0,0,3,,,,,,,,,2,,,54,49
26160,note_on,120,0,3,,,,,,,,,2,,,57,0
26160,note_on,0,0,1,,,,,,,,,0,,,64,88
26280,note_on,0,0,3,,,,,,,,,2,,,56,49
26280,note_on,120,0,3,,,,,,,,,2,,,54,0
26340,note_on,0,0,1,,,,,,,,,0,,,62,62
26340,note_on,180,0,1,,,,,,,,,0,,,64,0
26400,note_on,120,0,3,,,,,,,,,2,,,56,0
26400,note_on,480,0,4,,,,,,,,,3,,,45,62
26400,note_on,0,0,3,,,,,,,,,2,,,57,49
26400,note_on,0,0,1,,,,,,,,,0,,,61,62
26400,note_on,60,0,1,,,,,,,,,0,,,62,0
26520,note_on,120,0,3,,,,,,,,,2,,,57,0
26520,note_on,0,0,3,,,,,,,,,2,,,52,49
26640,note_on,0,0,3,,,,,,,,,2,,,59,49
26640,note_on,0,0,1,,,,,,,,,0,,,64,62
26640,control_change,0,0,1,,,,,,,,,0,64,127,,
26640,note_on,240,0,1,,,,,,,,,0,,,61,0
26640,note_on,120,0,3,,,,,,,,,2,,,52,0
26700,note_on,60,0,1,,,,,,,,,0,,,64,0
26700,note_on,0,0,1,,,,,,,,,0,,,62,62
26760,note_on,120,0,3,,,,,,,,,2,,,59,0
26760,note_on,0,0,3,,,,,,,,,2,,,52,49
26760,note_on,60,0,1,,,,,,,,,0,,,62,0
26760,note_on,0,0,1,,,,,,,,,0,,,61,62
26820,note_on,0,0,1,,,,,,,,,0,,,62,62
26820,note_on,60,0,1,,,,,,,,,0,,,61,0
26880,note_on,120,0,3,,,,,,,,,2,,,52,0
26880,note_on,0,0,3,,,,,,,,,2,,,61,49
26880,note_on,480,0,4,,,,,,,,,3,,,45,0
26880,note_on,0,0,1,,,,,,,,,0,,,64,62
26880,control_change,0,0,1,,,,,,,,,0,64,0,,
26880,note_on,60,0,1,,,,,,,,,0,,,62,0
27000,note_on,120,0,3,,,,,,,,,2,,,61,0
27000,note_on,0,0,3,,,,,,,,,2,,,52,49
27120,note_on,0,0,1,,,,,,,,,0,,,97,62
27120,note_on,240,0,1,,,,,,,,,0,,,64,0
27120,note_on,4080,0,2,,,,,,,,,1,,,73,62
27120,note_on,240,0,4,,,,,,,,,3,,,33,62
27120,note_on,0,0,3,,,,,,,,,2,,,57,49
27120,note_on,0,0,4,,,,,,,,,3,,,45,62
27120,note_on,120,0,3,,,,,,,,,2,,,52,0
27300,note_on,0,0,1,,,,,,,,,0,,,98,62
27300,note_on,0,0,2,,,,,,,,,1,,,74,62
27300,note_on,180,0,2,,,,,,,,,1,,,73,0
27300,note_on,180,0,3,,,,,,,,,2,,,57,0
27300,note_on,0,0,3,,,,,,,,,2,,,59,49
27300,note_on,180,0,1,,,,,,,,,0,,,97,0
27360,note_on,60,0,3,,,,,,,,,2,,,59,0
27360,note_on,0,0,3,,,,,,,,,2,,,61,49
27360,note_on,60,0,1,,,,,,,,,0,,,98,0
27360,note_on,0,0,1,,,,,,,,,0,,,100,88
27360,note_on,60,0,2,,,,,,,,,1,,,74,0
27360,note_on,0,0,2,,,,,,,,,1,,,76,62
27360,note_on,0,0,4,,,,,,,,,3,,,45,62
27360,note_on,0,0,4,,,,,,,,,3,,,33,62
27360,note_on,0,0,4,,,,,,,,,3,,,33,0
27360,note_on,240,0,4,,,,,,,,,3,,,45,0
27377,note_on,17,0,1,,,,,,,,,0,,,100,0
27480,note_on,120,0,3,,,,,,,,,2,,,61,0
27480,note_on,0,0,3,,,,,,,,,2,,,52,49
27540,control_change,163,0,1,,,,,,,,,0,64,127,,
27540,note_on,0,0,1,,,,,,,,,0,,,98,62
27600,note_on,240,0,2,,,,,,,,,1,,,76,0
27600,note_on,0,0,2,,,,,,,,,1,,,73,62
27600,note_on,0,0,3,,,,,,,,,2,,,57,49
27600,note_on,120,0,3,,,,,,,,,2,,,52,0
27600,note_on,60,0,1,,,,,,,,,0,,,98,0
27600,note_on,0,0,1,,,,,,,,,0,,,97,62
27660,note_on,60,0,1,,,,,,,,,0,,,97,0
27660,note_on,0,0,1,,,,,,,,,0,,,95,62
27720,note_on,60,0,1,,,,,,,,,0,,,95,0
27720,note_on,0,0,1,,,,,,,,,0,,,93,62
27720,note_on,0,0,3,,,,,,,,,2,,,59,49
27720,note_on,120,0,3,,,,,,,,,2,,,57,0
27780,note_on,60,0,1,,,,,,,,,0,,,93,0
27780,note_on,0,0,1,,,,,,,,,0,,,92,62
27840,note_on,0,0,2,,,,,,,,,1,,,69,62
27840,note_on,240,0,2,,,,,,,,,1,,,73,0
27840,note_on,0,0,3,,,,,,,,,2,,,61,49
27840,note_on,120,0,3,,,,,,,,,2,,,59,0
27840,note_on,480,0,4,,,,,,,,,3,,,45,0
27840,note_on,0,0,4,,,,,,,,,3,,,33,0
27840,note_on,60,0,1,,,,,,,,,0,,,92,0
27840,note_on,0,0,1,,,,,,,,,0,,,90,62
27900,note_on,0,0,1,,,,,,,,,0,,,88,62
27900,note_on,60,0,1,,,,,,,,,0,,,90,0
27960,note_on,0,0,1,,,,,,,,,0,,,86,62
27960,note_on,120,0,3,,,,,,,,,2,,,61,0
27960,note_on,0,0,3,,,,,,,,,2,,,57,49
27960,note_on,60,0,1,,,,,,,,,0,,,88,0
28020,note_on,60,0,1,,,,,,,,,0,,,86,0
28020,note_on,0,0,1,,,,,,,,,0,,,85,62
28080,note_on,60,0,1,,,,,,,,,0,,,85,0
28080,note_on,120,0,3,,,,,,,,,2,,,57,0
28080,note_on,0,0,3,,,,,,,,,2,,,62,49
28080,note_on,0,0,1,,,,,,,,,0,,,83,62
28080,note_on,240,0,4,,,,,,,,,3,,,33,62
28080,note_on,240,0,2,,,,,,,,,1,,,69,0
28080,note_on,0,0,4,,,,,,,,,3,,,45,62
28080,note_on,0,0,2,,,,,,,,,1,,,68,62
28140,note_on,0,0,1,,,,,,,,,0,,,81,62
28140,note_on,60,0,1,,,,,,,,,0,,,83,0
28200,note_on,120,0,3,,,,,,,,,2,,,62,0
28200,note_on,0,0,3,,,,,,,,,2,,,57,49
28200,note_on,0,0,1,,,,,,,,,0,,,80,62
28200,note_on,60,0,1,,,,,,,,,0,,,81,0
28260,note_on,180,0,2,,,,,,,,,1,,,68,0
28260,note_on,0,0,2,,,,,,,,,1,,,66,62
28260,note_on,0,0,1,,,,,,,,,0,,,78,62
28260,control_change,0,0,1,,,,,,,,,0,64,0,,
28260,note_on,60,0,1,,,,,,,,,0,,,80,0
28260,control_change,0,0,2,,,,,,,,,1,64,0,,
28320,note_on,60,0,2,,,,,,,,,1,,,66,0
28320,note_on,0,0,4,,,,,,,,,3,,,45,62
28320,note_on,0,0,4,,,,,,,,,3,,,33,62
28320,note_on,0,0,4,,,,,,,,,3,,,33,0
28320,note_on,240,0,4,,,,,,,,,3,,,45,0
28320,note_on,0,0,1,,,,,,,,,0,,,76,62
28320,note_on,60,0,1,,,,,,,,,0,,,78,0
28320,note_on,120,0,3,,,,,,,,,2,,,57,0
28320,note_on,0,0,3,,,,,,,,,2,,,61,49
28320,note_on,0,0,2,,,,,,,,,1,,,64,62
28440,note_on,120,0,3,,,,,,,,,2,,,61,0
28440,note_on,0,0,3,,,,,,,,,2,,,57,49
28560,note_on,0,0,3,,,,,,,,,2,,,56,49
28560,note_on,120,0,3,,,,,,,,,2,,,57,0
28620,note_on,0,0,3,,,,,,,,,2,,,57,49
28620,note_on,60,0,3,,,,,,,,,2,,,56,0
28680,note_on,0,0,3,,,,,,,,,2,,,56,49
28680,note_on,60,0,3,,,,,,,,,2,,,57,0
28740,note_on,60,0,3,,,,,,,,,2,,,56,0
28740,note_on,0,0,3,,,,,,,,,2,,,54,49
28800,note_on,60,0,3,,,,,,,,,2,,,54,0
28800,note_on,0,0,3,,,,,,,,,2,,,52,49
28800,note_on,480,0,1,,,,,,,,,0,,,76,0
28800,note_on,0,0,1,,,,,,,,,0,,,73,62
28800,note_on,0,0,2,,,,,,,,,1,,,61,62
28800,note_on,0,0,4,,,,,,,,,3,,,33,0
28800,note_on,480,0,2,,,,,,,,,1,,,64,0
28800,note_on,480,0,4,,,,,,,,,3,,,45,0
28920,note_on,120,0,1,,,,,,,,,0,,,73,0
28920,note_on,0,0,1,,,,,,,,,0,,,76,62
28920,note_on,120,0,3,,,,,,,,,2,,,52,0
28920,note_on,0,0,3,,,,,,,,,2,,,53,49
28959,note_on,39,0,1,,,,,,,,,0,,,76,0
28959,note_on,0,0,1,,,,,,,,,0,,,78,62
29000,note_on,41,0,1,,,,,,,,,0,,,78,0
29000,note_on,0,0,1,,,,,,,,,0,,,79,62
29040,note_on,40,0,1,,,,,,,,,0,,,79,0
29040,note_on,0,0,1,,,,,,,,,0,,,78,88
29040,note_on,0,0,3,,,,,,,,,2,,,54,75
29040,note_on,240,0,4,,,,,,,,,3,,,34,62
29040,note_on,0,0,4,,,,,,,,,3,,,46,62
29040,note_on,240,0,2,,,,,,,,,1,,,61,0
29040,note_on,0,0,2,,,,,,,,,1,,,66,62
29040,note_on,0,0,2,,,,,,,,,1,,,71,62
29040,note_on,120,0,3,,,,,,,,,2,,,53,0
29160,note_on,120,0,3,,,,,,,,,2,,,54,0
29160,note_on,0,0,3,,,,,,,,,2,,,61,49
29220,note_on,180,0,1,,,,,,,,,0,,,78,0
29220,note_on,0,0,1,,,,,,,,,0,,,76,62
29280,note_on,60,0,1,,,,,,,,,0,,,76,0
29280,note_on,0,0,1,,,,,,,,,0,,,74,62
29280,note_on,0,0,2,,,,,,,,,1,,,66,49
29280,note_on,0,0,4,,,,,,,,,3,,,35,62
29280,note_on,0,0,2,,,,,,,,,1,,,66,0
29280,note_on,0,0,4,,,,,,,,,3,,,47,62
29280,note_on,0,0,2,,,,,,,,,1,,,71,49
29280,note_on,0,0,4,,,,,,,,,3,,,34,0
29280,note_on,240,0,2,,,,,,,,,1,,,71,0
29280,note_on,240,0,4,,,,,,,,,3,,,46,0
29280,note_on,120,0,3,,,,,,,,,2,,,61,0
29400,note_on,120,0,3,,,,,,,,,2,,,54,49
29520,note_on,240,0,4,,,,,,,,,3,,,47,0
29520,note_on,120,0,3,,,,,,,,,2,,,54,0
29520,note_on,0,0,4,,,,,,,,,3,,,35,0
29520,note_on,0,0,3,,,,,,,,,2,,,59,49
29580,note_on,300,0,1,,,,,,,,,0,,,74,0
29580,note_on,0,0,1,,,,,,,,,0,,,76,62
29640,note_on,120,0,3,,,,,,,,,2,,,59,0
29640,note_on,0,0,3,,,,,,,,,2,,,61,49
29640,note_on,60,0,1,,,,,,,,,0,,,76,0
29640,note_on,0,0,1,,,,,,,,,0,,,74,62
29700,note_on,60,0,1,,,,,,,,,0,,,74,0
29700,note_on,0,0,1,,,,,,,,,0,,,73,62
29760,note_on,120,0,3,,,,,,,,,2,,,61,0
29760,note_on,0,0,3,,,,,,,,,2,,,62,49
29760,note_on,240,0,4,,,,,,,,,3,,,40,62
29760,note_on,0,0,1,,,,,,,,,0,,,71,62
29760,note_on,60,0,1,,,,,,,,,0,,,73,0
29760,note_on,480,0,2,,,,,,,,,1,,,71,0
29760,note_on,0,0,2,,,,,,,,,1,,,66,0
29880,note_on,120,0,3,,,,,,,,,2,,,62,0
29880,note_on,0,0,3,,,,,,,,,2,,,59,49
29940,note_on,0,0,1,,,,,,,,,0,,,76,62
29940,note_on,180,0,1,,,,,,,,,0,,,71,0
29970,note_on,0,0,1,,,,,,,,,0,,,80,62
29970,note_on,30,0,1,,,,,,,,,0,,,76,0
30000,note_on,120,0,3,,,,,,,,,2,,,59,0
30000,note_on,0,0,3,,,,,,,,,2,,,56,49
30000,note_on,0,0,2,,,,,,,,,1,,,74,49
30000,note_on,0,0,2,,,,,,,,,1,,,71,49
30000,note_on,240,0,4,,,,,,,,,3,,,40,0
30000,note_on,240,0,2,,,,,,,,,1,,,64,49
30000,note_on,0,0,1,,,,,,,,,0,,,83,62
30000,note_on,30,0,1,,,,,,,,,0,,,80,0
30120,note_on,0,0,3,,,,,,,,,2,,,62,49
30120,note_on,120,0,3,,,,,,,,,2,,,56,0
30180,note_on,180,0,1,,,,,,,,,0,,,83,0
30180,note_on,0,0,1,,,,,,,,,0,,,80,62
30240,note_on,240,0,2,,,,,,,,,1,,,74,0
30240,note_on,0,0,2,,,,,,,,,1,,,71,0
30240,note_on,0,0,2,,,,,,,,,1,,,64,0
30240,note_on,0,0,2,,,,,,,,,1,,,73,49
30240,note_on,60,0,1,,,,,,,,,0,,,80,0
30240,note_on,0,0,1,,,,,,,,,0,,,81,62
30240,note_on,0,0,2,,,,,,,,,1,,,69,49
30240,note_on,0,0,2,,,,,,,,,1,,,64,49
30240,note_on,120,0,3,,,,,,,,,2,,,62,0
30240,note_on,0,0,3,,,,,,,,,2,,,61,49
30240,note_on,0,0,4,,,,,,,,,3,,,45,62
30240,note_on,240,0,4,,,,,,,,,3,,,33,62
30360,note_on,0,0,3,,,,,,,,,2,,,57,49
30360,note_on,120,0,3,,,,,,,,,2,,,61,0
30480,note_on,0,0,3,,,,,,,,,2,,,52,49
30480,note_on,120,0,3,,,,,,,,,2,,,57,0
30600,note_on,0,0,3,,,,,,,,,2,,,49,49
30600,note_on,120,0,3,,,,,,,,,2,,,52,0
30720,note_on,120,0,3,,,,,,,,,2,,,49,0
30720,note_on,0,0,3,,,,,,,,,2,,,45,49
30720,note_on,0,0,4,,,,,,,,,3,,,33,0
30720,note_on,480,0,4,,,,,,,,,3,,,45,0
30960,note_on,720,0,2,,,,,,,,,1,,,73,0
30960,note_on,0,0,2,,,,,,,,,1,,,69,0
30960,note_on,0,0,2,,,,,,,,,1,,,64,0
30960,note_on,240,0,3,,,,,,,,,2,,,45,0
30960,note_on,0,0,1,,,,,,,,,0,,,81,62
30960,note_on,720,0,1,,,,,,,,,0,,,81,0
30999,note_on,0,0,1,,,,,,,,,0,,,83,62
30999,note_on,39,0,1,,,,,,,,,0,,,81,0
31040,note_on,41,0,1,,,,,,,,,0,,,83,0
31040,note_on,0,0,1,,,,,,,,,0,,,81,62
31080,note_on,40,0,1,,,,,,,,,0,,,81,0
31080,note_on,0,0,1,,,,,,,,,0,,,80,62
31119,note_on,39,0,1,,,,,,,,,0,,,80,0
31119,note_on,0,0,1,,,,,,,,,0,,,81,62
31160,note_on,41,0,1,,,,,,,,,0,,,81,0
31160,note_on,0,0,1,,,,,,,,,0,,,83,62
31200,note_on,40,0,1,,,,,,,,,0,,,83,0
31200,control_change,240,0,2,,,,,,,,,1,64,127,,
31200,note_on,0,0,3,,,,,,,,,2,,,57,49
31200,control_change,240,0,3,,,,,,,,,2,64,127,,
31200,note_on,0,0,2,,,,,,,,,1,,,66,49
31200,control_change,480,0,4,,,,,,,,,3,64,127,,
31200,control_change,0,0,1,,,,,,,,,0,64,127,,
31200,note_on,0,0,3,,,,,,,,,2,,,61,49
31200,note_on,0,0,1,,,,,,,,,0,,,85,62
31200,note_on,0,0,4,,,,,,,,,3,,,54,62
31440,note_on,0,0,3,,,,,,,,,2,,,57,0
31440,note_on,0,0,2,,,,,,,,,1,,,69,49
31440,note_on,0,0,4,,,,,,,,,3,,,54,62
31440,note_on,240,0,4,,,,,,,,,3,,,54,0
31440,note_on,240,0,3,,,,,,,,,2,,,61,0
31440,note_on,240,0,2,,,,,,,,,1,,,66,0
31440,note_on,240,0,1,,,,,,,,,0,,,85,0
31440,note_on,0,0,3,,,,,,,,,2,,,61,49
31440,note_on,0,0,1,,,,,,,,,0,,,85,62
31680,note_on,240,0,1,,,,,,,,,0,,,85,0
31680,note_on,240,0,2,,,,,,,,,1,,,69,0
31680,note_on,0,0,2,,,,,,,,,1,,,68,49
31680,note_on,0,0,4,,,,,,,,,3,,,54,62
31680,note_on,0,0,1,,,,,,,,,0,,,85,62
31680,note_on,240,0,4,,,,,,,,,3,,,54,0
31680,note_on,240,0,3,,,,,,,,,2,,,61,0
31680,note_on,0,0,3,,,,,,,,,2,,,59,49
31680,note_on,0,0,3,,,,,,,,,2,,,61,49
31920,note_on,0,0,3,,,,,,,,,2,,,56,49
31920,note_on,240,0,2,,,,,,,,,1,,,68,0
31920,control_change,0,0,2,,,,,,,,,1,64,0,,
31920,note_on,0,0,2,,,,,,,,,1,,,65,49
31920,control_change,0,0,3,,,,,,,,,2,64,0,,
31920,note_on,0,0,4,,,,,,,,,3,,,54,62
31920,note_on,240,0,4,,,,,,,,,3,,,54,0
31920,note_on,240,0,3,,,,,,,,,2,,,61,0
31920,note_on,0,0,1,,,,,,,,,0,,,85,62
31920,control_change,0,0,1,,,,,,,,,0,64,0,,
31920,note_on,240,0,1,,,,,,,,,0,,,85,0
31920,note_on,0,0,3,,,,,,,,,2,,,59,0
31920,control_change,0,0,4,,,,,,,,,3,64,0,,
31920,note_on,0,0,3,,,,,,,,,2,,,61,49
32040,note_on,120,0,1,,,,,,,,,0,,,85,62
32100,note_on,0,0,1,,,,,,,,,0,,,86,62
32100,note_on,60,0,1,,,,,,,,,0,,,85,0
32160,note_on,0,0,4,,,,,,,,,3,,,57,62
32160,note_on,60,0,1,,,,,,,,,0,,,86,0
32160,note_on,0,0,1,,,,,,,,,0,,,85,0
32160,note_on,0,0,1,,,,,,,,,0,,,85,62
32160,control_change,0,0,1,,,,,,,,,0,64,127,,
32160,note_on,240,0,4,,,,,,,,,3,,,54,0
32160,note_on,0,0,4,,,,,,,,,3,,,54,62
32160,note_on,240,0,3,,,,,,,,,2,,,61,0
32160,note_on,0,0,3,,,,,,,,,2,,,56,0
32160,note_on,0,0,3,,,,,,,,,2,,,61,49
32160,note_on,240,0,2,,,,,,,,,1,,,65,0
32160,note_on,0,0,2,,,,,,,,,1,,,66,49
32280,note_on,120,0,1,,,,,,,,,0,,,85,0
32280,note_on,0,0,1,,,,,,,,,0,,,83,62
32340,note_on,0,0,1,,,,,,,,,0,,,81,62
32340,note_on,60,0,1,,,,,,,,,0,,,83,0
32400,note_on,0,0,1,,,,,,,,,0,,,80,62
32400,note_on,60,0,1,,,,,,,,,0,,,81,0
32460,note_on,0,0,1,,,,,,,,,0,,,78,62
32460,note_on,60,0,1,,,,,,,,,0,,,80,0
32520,note_on,0,0,1,,,,,,,,,0,,,76,62
32520,note_on,60,0,1,,,,,,,,,0,,,78,0
32520,note_on,360,0,3,,,,,,,,,2,,,61,0
32520,note_on,0,0,3,,,,,,,,,2,,,64,49
32580,note_on,60,0,3,,,,,,,,,2,,,64,0
32580,note_on,0,0,1,,,,,,,,,0,,,74,62
32580,note_on,60,0,1,,,,,,,,,0,,,76,0
32580,note_on,0,0,3,,,,,,,,,2,,,62,49
32640,note_on,0,0,3,,,,,,,,,2,,,61,49
32640,control_change,0,0,1,,,,,,,,,0,64,0,,
32640,note_on,0,0,1,,,,,,,,,0,,,73,62
32640,note_on,60,0,3,,,,,,,,,2,,,62,0
32640,note_on,60,0,1,,,,,,,,,0,,,74,0
32720,note_on,80,0,1,,,,,,,,,0,,,73,0
32720,control_change,0,0,1,,,,,,,,,0,64,127,,
32720,note_on,0,0,1,,,,,,,,,0,,,73,62
32799,note_on,79,0,1,,,,,,,,,0,,,73,0
32799,note_on,0,0,1,,,,,,,,,0,,,71,62
32880,note_on,0,0,4,,,,,,,,,3,,,54,0
32880,note_on,720,0,4,,,,,,,,,3,,,57,0
32880,note_on,240,0,3,,,,,,,,,2,,,61,0
32880,note_on,0,0,1,,,,,,,,,0,,,69,62
32880,note_on,720,0,2,,,,,,,,,1,,,66,0
32880,note_on,81,0,1,,,,,,,,,0,,,71,0
32960,note_on,0,0,1,,,,,,,,,0,,,68,62
32960,note_on,80,0,1,,,,,,,,,0,,,69,0
33039,note_on,0,0,1,,,,,,,,,0,,,66,62
33039,control_change,0,0,1,,,,,,,,,0,64,0,,
33039,note_on,79,0,1,,,,,,,,,0,,,68,0
33120,note_on,0,0,2,,,,,,,,,1,,,59,88
33120,note_on,81,0,1,,,,,,,,,0,,,66,0
33120,control_change,0,0,1,,,,,,,,,0,64,127,,
33120,control_change,240,0,4,,,,,,,,,3,64,127,,
33120,note_on,0,0,4,,,,,,,,,3,,,42,62
33120,note_on,0,0,4,,,,,,,,,3,,,50,62
33120,control_change,240,0,3,,,,,,,,,2,64,127,,
33120,note_on,0,0,3,,,,,,,,,2,,,53,49
33120,note_on,0,0,3,,,,,,,,,2,,,56,49
33120,note_on,0,0,1,,,,,,,,,0,,,65,62
33120,control_change,240,0,2,,,,,,,,,1,64,127,,
33180,note_on,0,0,1,,,,,,,,,0,,,74,62
33180,note_on,60,0,1,,,,,,,,,0,,,65,0
33240,note_on,60,0,1,,,,,,,,,0,,,74,0
33240,note_on,0,0,1,,,,,,,,,0,,,68,62
33300,note_on,60,0,1,,,,,,,,,0,,,68,0
33300,control_change,0,0,1,,,,,,,,,0,64,0,,
33300,note_on,0,0,1,,,,,,,,,0,,,65,62
33360,note_on,240,0,2,,,,,,,,,1,,,59,0
33360,note_on,0,0,2,,,,,,,,,1,,,62,88
33360,note_on,0,0,4,,,,,,,,,3,,,50,62
33360,note_on,0,0,3,,,,,,,,,2,,,53,0
33360,note_on,0,0,3,,,,,,,,,2,,,56,49
33360,note_on,240,0,3,,,,,,,,,2,,,56,0
33360,note_on,60,0,1,,,,,,,,,0,,,65,0
33360,control_change,0,0,1,,,,,,,,,0,64,127,,
33360,note_on,0,0,1,,,,,,,,,0,,,65,62
33360,note_on,240,0,4,,,,,,,,,3,,,50,0
33360,note_on,0,0,4,,,,,,,,,3,,,42,0
33360,note_on,0,0,4,,,,,,,,,3,,,42,62
33360,note_on,0,0,3,,,,,,,,,2,,,53,49
33420,note_on,60,0,1,,,,,,,,,0,,,65,0
33420,note_on,0,0,1,,,,,,,,,0,,,74,62
33480,note_on,0,0,1,,,,,,,,,0,,,68,62
33480,note_on,60,0,1,,,,,,,,,0,,,74,0
33540,control_change,0,0,1,,,,,,,,,0,64,0,,
33540,note_on,60,0,1,,,,,,,,,0,,,68,0
33540,note_on,0,0,1,,,,,,,,,0,,,65,62
33600,note_on,240,0,3,,,,,,,,,2,,,56,0
33600,note_on,0,0,3,,,,,,,,,2,,,53,0
33600,note_on,0,0,3,,,,,,,,,2,,,53,49
33600,note_on,240,0,4,,,,,,,,,3,,,50,0
33600,note_on,0,0,4,,,,,,,,,3,,,42,62
33600,note_on,0,0,4,,,,,,,,,3,,,50,62
33600,note_on,60,0,1,,,,,,,,,0,,,65,0
33600,control_change,0,0,1,,,,,,,,,0,64,127,,
33600,note_on,0,0,2,,,,,,,,,1,,,56,88
33600,note_on,240,0,2,,,,,,,,,1,,,62,0
33600,note_on,0,0,1,,,,,,,,,0,,,65,62
33600,note_on,0,0,4,,,,,,,,,3,,,42,0
33660,note_on,0,0,1,,,,,,,,,0,,,74,62
33660,note_on,60,0,1,,,,,,,,,0,,,65,0
33720,note_on,60,0,1,,,,,,,,,0,,,74,0
33720,note_on,0,0,1,,,,,,,,,0,,,68,62
33780,note_on,0,0,1,,,,,,,,,0,,,65,62
33780,control_change,0,0,1,,,,,,,,,0,64,0,,
33780,note_on,60,0,1,,,,,,,,,0,,,68,0
33840,note_on,240,0,2,,,,,,,,,1,,,56,0
33840,note_on,240,0,3,,,,,,,,,2,,,53,0
33840,note_on,0,0,3,,,,,,,,,2,,,56,49
33840,note_on,240,0,4,,,,,,,,,3,,,50,0
33840,note_on,0,0,4,,,,,,,,,3,,,42,0
33840,control_change,0,0,4,,,,,,,,,3,64,0,,
33840,note_on,0,0,4,,,,,,,,,3,,,42,62
33840,note_on,0,0,4,,,,,,,,,3,,,50,62
33840,control_change,0,0,3,,,,,,,,,2,64,0,,
33840,note_on,0,0,1,,,,,,,,,0,,,65,62
33840,control_change,0,0,1,,,,,,,,,0,64,127,,
33840,note_on,60,0,1,,,,,,,,,0,,,65,0
33840,note_on,0,0,3,,,,,,,,,2,,,53,49
33840,note_on,0,0,2,,,,,,,,,1,,,59,88
33900,note_on,60,0,1,,,,,,,,,0,,,65,0
33900,note_on,0,0,1,,,,,,,,,0,,,74,62
33960,note_on,0,0,1,,,,,,,,,0,,,68,62
33960,note_on,60,0,1,,,,,,,,,0,,,74,0
34020,note_on,0,0,2,,,,,,,,,1,,,62,88
34020,control_change,0,0,2,,,,,,,,,1,64,0,,
34020,note_on,180,0,2,,,,,,,,,1,,,59,0
34020,note_on,60,0,1,,,,,,,,,0,,,68,0
34020,control_change,0,0,1,,,,,,,,,0,64,0,,
34020,note_on,0,0,1,,,,,,,,,0,,,65,62
34080,note_on,0,0,3,,,,,,,,,2,,,53,0
34080,note_on,0,0,2,,,,,,,,,1,,,61,88
34080,note_on,60,0,2,,,,,,,,,1,,,62,0
34080,note_on,0,0,4,,,,,,,,,3,,,42,62
34080,note_on,0,0,4,,,,,,,,,3,,,42,0
34080,note_on,240,0,4,,,,,,,,,3,,,50,0
34080,note_on,0,0,4,,,,,,,,,3,,,49,62
34080,control_change,0,0,1,,,,,,,,,0,64,127,,
34080,note_on,60,0,1,,,,,,,,,0,,,65,0
34080,note_on,0,0,3,,,,,,,,,2,,,54,49
34080,note_on,0,0,3,,,,,,,,,2,,,57,49
34080,note_on,240,0,3,,,,,,,,,2,,,56,0
34080,note_on,0,0,1,,,,,,,,,0,,,66,62
34140,note_on,60,0,1,,,,,,,,,0,,,66,0
34140,note_on,0,0,1,,,,,,,,,0,,,68,62
34200,note_on,60,0,1,,,,,,,,,0,,,68,0
34200,note_on,0,0,1,,,,,,,,,0,,,66,62
34260,note_on,60,0,1,,,,,,,,,0,,,66,0
34260,note_on,0,0,1,,,,,,,,,0,,,65,62
34320,note_on,0,0,1,,,,,,,,,0,,,66,62
34320,note_on,60,0,1,,,,,,,,,0,,,65,0
34367,note_on,0,0,1,,,,,,,,,0,,,69,62
34367,note_on,47,0,1,,,,,,,,,0,,,66,0
34416,note_on,49,0,1,,,,,,,,,0,,,69,0
34416,note_on,0,0,1,,,,,,,,,0,,,73,62
34440,note_on,0,0,2,,,,,,,,,1,,,63,88
34440,note_on,360,0,2,,,,,,,,,1,,,61,0
34463,note_on,47,0,1,,,,,,,,,0,,,73,0
34463,note_on,0,0,1,,,,,,,,,0,,,81,62
34500,note_on,0,0,2,,,,,,,,,1,,,65,88
34500,note_on,60,0,2,,,,,,,,,1,,,63,0
34512,note_on,0,0,1,,,,,,,,,0,,,80,62
34512,note_on,49,0,1,,,,,,,,,0,,,81,0
34560,note_on,60,0,2,,,,,,,,,1,,,65,0
34560,note_on,48,0,1,,,,,,,,,0,,,80,0
34560,control_change,0,0,1,,,,,,,,,0,64,0,,
34560,note_on,0,0,1,,,,,,,,,0,,,78,62
34560,note_on,0,0,2,,,,,,,,,1,,,66,88
34575,note_on,15,0,1,,,,,,,,,0,,,78,0
34680,note_on,0,0,4,,,,,,,,,3,,,42,0
34680,note_on,120,0,2,,,,,,,,,1,,,66,0
34680,note_on,0,0,3,,,,,,,,,2,,,54,0
34680,note_on,600,0,3,,,,,,,,,2,,,57,0
34680,note_on,105,0,1,,,,,,,,,0,,,69,62
34680,note_on,600,0,4,,,,,,,,,3,,,49,0
34695,note_on,15,0,1,,,,,,,,,0,,,69,0
34800,note_on,105,0,1,,,,,,,,,0,,,71,62
34920,note_on,120,0,1,,,,,,,,,0,,,71,0
34920,note_on,0,0,1,,,,,,,,,0,,,73,62
35040,note_on,360,0,4,,,,,,,,,3,,,40,62
35040,note_on,120,0,1,,,,,,,,,0,,,73,0
35040,control_change,0,0,1,,,,,,,,,0,64,127,,
35040,note_on,0,0,1,,,,,,,,,0,,,73,62
35160,note_on,120,0,1,,,,,,,,,0,,,73,0
35160,note_on,0,0,1,,,,,,,,,0,,,74,62
35280,note_on,240,0,4,,,,,,,,,3,,,40,0
35280,note_on,0,0,1,,,,,,,,,0,,,83,88
35280,note_on,0,0,4,,,,,,,,,3,,,52,88
35280,note_on,600,0,2,,,,,,,,,1,,,71,101
35280,note_on,600,0,3,,,,,,,,,2,,,62,75
35280,note_on,0,0,3,,,,,,,,,2,,,64,75
35280,note_on,120,0,1,,,,,,,,,0,,,74,0
35460,note_on,180,0,1,,,,,,,,,0,,,83,0
35460,note_on,0,0,1,,,,,,,,,0,,,81,62
35520,note_on,60,0,1,,,,,,,,,0,,,81,0
35520,note_on,0,0,1,,,,,,,,,0,,,81,62
35600,note_on,0,0,1,,,,,,,,,0,,,80,62
35600,note_on,80,0,1,,,,,,,,,0,,,81,0
35679,note_on,79,0,1,,,,,,,,,0,,,80,0
35679,note_on,0,0,1,,,,,,,,,0,,,78,62
35700,note_on,420,0,2,,,,,,,,,1,,,71,0
35700,note_on,0,0,2,,,,,,,,,1,,,69,62
35760,note_on,0,0,2,,,,,,,,,1,,,69,62
35760,note_on,480,0,3,,,,,,,,,2,,,64,0
35760,note_on,0,0,3,,,,,,,,,2,,,62,0
35760,note_on,0,0,4,,,,,,,,,3,,,52,62
35760,note_on,0,0,3,,,,,,,,,2,,,62,49
35760,note_on,0,0,3,,,,,,,,,2,,,64,49
35760,note_on,81,0,1,,,,,,,,,0,,,78,0
35760,note_on,0,0,1,,,,,,,,,0,,,78,62
35760,note_on,480,0,4,,,,,,,,,3,,,52,0
35760,note_on,60,0,2,,,,,,,,,1,,,69,0
35840,note_on,80,0,1,,,,,,,,,0,,,78,0
35840,note_on,80,0,2,,,,,,,,,1,,,69,0
35840,note_on,0,0,2,,,,,,,,,1,,,68,62
35840,note_on,0,0,1,,,,,,,,,0,,,76,62
35919,note_on,79,0,2,,,,,,,,,1,,,68,0
35919,note_on,79,0,1,,,,,,,,,0,,,76,0
35919,note_on,0,0,1,,,,,,,,,0,,,74,62
35919,note_on,0,0,2,,,,,,,,,1,,,71,62
36000,note_on,240,0,3,,,,,,,,,2,,,64,0
36000,note_on,81,0,1,,,,,,,,,0,,,74,0
36000,note_on,240,0,4,,,,,,,,,3,,,52,0
36000,note_on,0,0,4,,,,,,,,,3,,,40,62
36000,note_on,0,0,1,,,,,,,,,0,,,75,62
36000,control_change,0,0,1,,,,,,,,,0,64,127,,
36000,note_on,0,0,3,,,,,,,,,2,,,62,0
36000,note_on,81,0,2,,,,,,,,,1,,,71,0
36120,note_on,0,0,1,,,,,,,,,0,,,76,62
36120,note_on,120,0,1,,,,,,,,,0,,,75,0
36240,note_on,240,0,2,,,,,,,,,1,,,73,88
36240,note_on,0,0,4,,,,,,,,,3,,,52,88
36240,note_on,240,0,4,,,,,,,,,3,,,40,0
36240,note_on,0,0,1,,,,,,,,,0,,,85,88
36240,note_on,120,0,1,,,,,,,,,0,,,76,0
36240,note_on,240,0,3,,,,,,,,,2,,,64,75
36420,note_on,0,0,1,,,,,,,,,0,,,83,62
36420,control_change,0,0,1,,,,,,,,,0,64,0,,
36420,note_on,180,0,1,,,,,,,,,0,,,85,0
36480,note_on,0,0,1,,,,,,,,,0,,,83,62
36480,note_on,60,0,1,,,,,,,,,0,,,83,0
36560,note_on,0,0,1,,,,,,,,,0,,,81,62
36560,note_on,80,0,1,,,,,,,,,0,,,83,0
36639,note_on,0,0,1,,,,,,,,,0,,,80,62
36639,note_on,79,0,1,,,,,,,,,0,,,81,0
36660,note_on,420,0,3,,,,,,,,,2,,,64,0
36660,note_on,0,0,3,,,,,,,,,2,,,62,49
36660,note_on,0,0,2,,,,,,,,,1,,,71,62
36660,note_on,420,0,2,,,,,,,,,1,,,73,0
36720,note_on,60,0,3,,,,,,,,,2,,,62,0
36720,note_on,0,0,3,,,,,,,,,2,,,62,49
36720,note_on,0,0,3,,,,,,,,,2,,,64,49
36720,note_on,480,0,4,,,,,,,,,3,,,52,0
36720,note_on,0,0,4,,,,,,,,,3,,,52,62
36720,note_on,0,0,2,,,,,,,,,1,,,71,62
36720,note_on,60,0,2,,,,,,,,,1,,,71,0
36720,note_on,81,0,1,,,,,,,,,0,,,80,0
36720,note_on,0,0,1,,,,,,,,,0,,,81,62
36800,note_on,0,0,1,,,,,,,,,0,,,76,62
36800,note_on,80,0,1,,,,,,,,,0,,,81,0
36840,note_on,0,0,2,,,,,,,,,1,,,69,62
36840,note_on,120,0,2,,,,,,,,,1,,,71,0
36840,note_on,0,0,3,,,,,,,,,2,,,61,49
36840,note_on,0,0,3,,,,,,,,,2,,,62,0
36840,note_on,120,0,3,,,,,,,,,2,,,64,0
36879,note_on,0,0,1,,,,,,,,,0,,,73,62
36879,note_on,79,0,1,,,,,,,,,0,,,76,0
36960,note_on,0,0,1,,,,,,,,,0,,,76,62
36960,control_change,0,0,1,,,,,,,,,0,64,127,,
36960,note_on,81,0,1,,,,,,,,,0,,,73,0
36960,note_on,240,0,4,,,,,,,,,3,,,52,0
36960,note_on,0,0,4,,,,,,,,,3,,,40,49
36960,note_on,120,0,3,,,,,,,,,2,,,61,0
36960,note_on,120,0,2,,,,,,,,,1,,,69,0
37040,note_on,0,0,1,,,,,,,,,0,,,74,62
37040,note_on,80,0,1,,,,,,,,,0,,,76,0
37119,note_on,79,0,1,,,,,,,,,0,,,74,0
37119,note_on,0,0,1,,,,,,,,,0,,,73,62
37200,note_on,240,0,2,,,,,,,,,1,,,71,62
37200,note_on,0,0,4,,,,,,,,,3,,,52,75
37200,note_on,240,0,4,,,,,,,,,3,,,40,0
37200,note_on,0,0,3,,,,,,,,,2,,,64,75
37200,note_on,240,0,3,,,,,,,,,2,,,62,75
37200,note_on,0,0,1,,,,,,,,,0,,,74,62
37200,note_on,81,0,1,,,,,,,,,0,,,73,0
37280,note_on,0,0,1,,,,,,,,,0,,,83,62
37280,note_on,80,0,1,,,,,,,,,0,,,74,0
37400,control_change,0,0,1,,,,,,,,,0,64,0,,
37400,note_on,120,0,1,,,,,,,,,0,,,83,0
37400,note_on,0,0,1,,,,,,,,,0,,,81,62
37440,note_on,40,0,1,,,,,,,,,0,,,81,0
37440,note_on,0,0,1,,,,,,,,,0,,,81,62
37520,note_on,0,0,1,,,,,,,,,0,,,80,62
37520,note_on,80,0,1,,,,,,,,,0,,,81,0
37599,note_on,0,0,1,,,,,,,,,0,,,78,62
37599,note_on,79,0,1,,,,,,,,,0,,,80,0
37620,note_on,0,0,2,,,,,,,,,1,,,69,62
37620,note_on,420,0,2,,,,,,,,,1,,,71,0
37680,note_on,81,0,1,,,,,,,,,0,,,78,0
37680,note_on,0,0,3,,,,,,,,,2,,,62,49
37680,note_on,0,0,3,,,,,,,,,2,,,62,0
37680,note_on,0,0,1,,,,,,,,,0,,,78,62
37680,note_on,480,0,4,,,,,,,,,3,,,52,0
37680,note_on,0,0,3,,,,,,,,,2,,,64,49
37680,note_on,0,0,4,,,,,,,,,3,,,52,49
37680,note_on,480,0,3,,,,,,,,,2,,,64,0
37680,note_on,60,0,2,,,,,,,,,1,,,69,0
37680,note_on,0,0,2,,,,,,,,,1,,,69,62
37760,note_on,0,0,1,,,,,,,,,0,,,76,62
37760,note_on,80,0,1,,,,,,,,,0,,,78,0
37760,note_on,0,0,2,,,,,,,,,1,,,68,62
37760,note_on,80,0,2,,,,,,,,,1,,,69,0
37839,note_on,79,0,1,,,,,,,,,0,,,76,0
37839,note_on,0,0,2,,,,,,,,,1,,,71,62
37839,note_on,79,0,2,,,,,,,,,1,,,68,0
37839,note_on,0,0,1,,,,,,,,,0,,,75,62
37920,note_on,0,0,1,,,,,,,,,0,,,78,62
37920,control_change,0,0,1,,,,,,,,,0,64,127,,
37920,note_on,81,0,1,,,,,,,,,0,,,75,0
37920,note_on,81,0,2,,,,,,,,,1,,,71,0
37920,note_on,240,0,4,,,,,,,,,3,,,52,0
37920,note_on,240,0,3,,,,,,,,,2,,,64,0
37920,note_on,0,0,3,,,,,,,,,2,,,62,0
37920,note_on,0,0,4,,,,,,,,,3,,,40,49
38000,note_on,80,0,1,,,,,,,,,0,,,78,0
38000,note_on,0,0,1,,,,,,,,,0,,,76,62
38079,note_on,79,0,1,,,,,,,,,0,,,76,0
38079,note_on,0,0,1,,,,,,,,,0,,,75,62
38160,note_on,0,0,1,,,,,,,,,0,,,76,62
38160,note_on,240,0,4,,,,,,,,,3,,,40,0
38160,note_on,0,0,4,,,,,,,,,3,,,52,75
38160,note_on,240,0,2,,,,,,,,,1,,,73,62
38160,note_on,240,0,3,,,,,,,,,2,,,64,75
38160,note_on,81,0,1,,,,,,,,,0,,,75,0
38240,note_on,80,0,1,,,,,,,,,0,,,76,0
38240,note_on,0,0,1,,,,,,,,,0,,,85,62
38360,note_on,120,0,1,,,,,,,,,0,,,85,0
38360,control_change,0,0,1,,,,,,,,,0,64,0,,
38360,note_on,0,0,1,,,,,,,,,0,,,83,62
38400,note_on,40,0,1,,,,,,,,,0,,,83,0
38400,note_on,0,0,1,,,,,,,,,0,,,83,62
38480,note_on,80,0,1,,,,,,,,,0,,,83,0
38480,note_on,0,0,1,,,,,,,,,0,,,81,62
38559,note_on,79,0,1,,,,,,,,,0,,,81,0
38559,note_on,0,0,1,,,,,,,,,0,,,80,62
38580,note_on,420,0,2,,,,,,,,,1,,,73,0
38580,note_on,0,0,3,,,,,,,,,2,,,62,49
38580,note_on,420,0,3,,,,,,,,,2,,,64,0
38580,note_on,0,0,2,,,,,,,,,1,,,71,62
38640,note_on,0,0,3,,,,,,,,,2,,,64,49
38640,note_on,0,0,3,,,,,,,,,2,,,62,49
38640,note_on,60,0,3,,,,,,,,,2,,,62,0
38640,note_on,60,0,2,,,,,,,,,1,,,71,0
38640,note_on,0,0,2,,,,,,,,,1,,,71,62
38640,note_on,480,0,4,,,,,,,,,3,,,52,0
38640,note_on,0,0,1,,,,,,,,,0,,,81,62
38640,note_on,81,0,1,,,,,,,,,0,,,80,0
38640,note_on,0,0,4,,,,,,,,,3,,,52,49
38720,note_on,0,0,1,,,,,,,,,0,,,76,62
38720,note_on,80,0,1,,,,,,,,,0,,,81,0
38760,note_on,120,0,3,,,,,,,,,2,,,64,0
38760,note_on,0,0,3,,,,,,,,,2,,,62,0
38760,note_on,0,0,3,,,,,,,,,2,,,61,49
38760,note_on,0,0,2,,,,,,,,,1,,,69,62
38760,note_on,120,0,2,,,,,,,,,1,,,71,0
38799,note_on,79,0,1,,,,,,,,,0,,,76,0
38799,note_on,0,0,1,,,,,,,,,0,,,73,62
38880,note_on,0,0,4,,,,,,,,,3,,,39,62
38880,note_on,240,0,4,,,,,,,,,3,,,52,0
38880,note_on,120,0,3,,,,,,,,,2,,,61,0
38880,note_on,0,0,1,,,,,,,,,0,,,70,75
38880,note_on,81,0,1,,,,,,,,,0,,,73,0
38880,note_on,120,0,2,,,,,,,,,1,,,69,0
38960,note_on,0,0,1,,,,,,,,,0,,,71,75
38960,note_on,80,0,1,,,,,,,,,0,,,70,0
39039,note_on,0,0,1,,,,,,,,,0,,,78,75
39039,note_on,79,0,1,,,,,,,,,0,,,71,0
39120,note_on,0,0,1,,,,,,,,,0,,,81,101
39120,note_on,81,0,1,,,,,,,,,0,,,78,0
39120,note_on,240,0,4,,,,,,,,,3,,,39,0
39120,note_on,240,0,2,,,,,,,,,1,,,69,101
39120,note_on,240,0,3,,,,,,,,,2,,,59,62
39120,note_on,0,0,4,,,,,,,,,3,,,51,62
39200,note_on,0,0,4,,,,,,,,,3,,,54,62
39200,note_on,80,0,4,,,,,,,,,3,,,51,0
39279,note_on,0,0,4,,,,,,,,,3,,,52,62
39279,note_on,79,0,4,,,,,,,,,3,,,54,0
39360,note_on,0,0,4,,,,,,,,,3,,,51,62
39360,note_on,81,0,4,,,,,,,,,3,,,52,0
39440,note_on,320,0,1,,,,,,,,,0,,,81,0
39440,control_change,0,0,1,,,,,,,,,0,64,127,,
39440,note_on,0,0,1,,,,,,,,,0,,,80,75
39480,note_on,40,0,1,,,,,,,,,0,,,80,0
39480,note_on,0,0,1,,,,,,,,,0,,,83,75
39600,note_on,480,0,2,,,,,,,,,1,,,69,0
39600,note_on,0,0,2,,,,,,,,,1,,,68,75
39600,note_on,0,0,1,,,,,,,,,0,,,81,75
39600,note_on,120,0,1,,,,,,,,,0,,,83,0
39680,note_on,80,0,1,,,,,,,,,0,,,81,0
39680,note_on,0,0,1,,,,,,,,,0,,,80,75
39720,note_on,0,0,2,,,,,,,,,1,,,69,75
39720,note_on,120,0,2,,,,,,,,,1,,,68,0
39720,control_change,0,0,1,,,,,,,,,0,64,0,,
39720,note_on,0,0,1,,,,,,,,,0,,,78,75
39720,note_on,40,0,1,,,,,,,,,0,,,80,0
39840,control_change,0,0,1,,,,,,,,,0,64,127,,
39840,note_on,0,0,2,,,,,,,,,1,,,69,75
39840,note_on,0,0,1,,,,,,,,,0,,,76,75
39840,note_on,0,0,4,,,,,,,,,3,,,52,62
39840,note_on,480,0,4,,,,,,,,,3,,,51,0
39840,note_on,0,0,3,,,,,,,,,2,,,61,62
39840,note_on,120,0,2,,,,,,,,,1,,,69,0
39840,note_on,120,0,1,,,,,,,,,0,,,78,0
39840,note_on,720,0,3,,,,,,,,,2,,,59,0
39920,note_on,80,0,1,,,,,,,,,0,,,76,0
39920,note_on,0,0,1,,,,,,,,,0,,,75,75
39999,note_on,79,0,1,,,,,,,,,0,,,75,0
39999,note_on,0,0,1,,,,,,,,,0,,,78,75
40080,note_on,240,0,3,,,,,,,,,2,,,61,0
40080,note_on,240,0,4,,,,,,,,,3,,,52,0
40080,note_on,0,0,4,,,,,,,,,3,,,52,62
40080,control_change,0,0,3,,,,,,,,,2,64,127,,
40080,note_on,0,0,3,,,,,,,,,2,,,57,62
40080,note_on,81,0,1,,,,,,,,,0,,,78,0
40080,note_on,0,0,1,,,,,,,,,0,,,76,75
40080,note_on,0,0,3,,,,,,,,,2,,,61,62
40160,note_on,0,0,1,,,,,,,,,0,,,73,75
40160,note_on,80,0,1,,,,,,,,,0,,,76,0
40239,note_on,0,0,1,,,,,,,,,0,,,74,75
40239,note_on,79,0,1,,,,,,,,,0,,,73,0
40260,note_on,180,0,3,,,,,,,,,2,,,61,0
40260,note_on,0,0,3,,,,,,,,,2,,,57,0
40260,note_on,0,0,3,,,,,,,,,2,,,59,62
40260,note_on,0,0,3,,,,,,,,,2,,,62,62
40320,note_on,0,0,3,,,,,,,,,2,,,64,62
40320,note_on,480,0,2,,,,,,,,,1,,,69,0
40320,note_on,240,0,4,,,,,,,,,3,,,52,0
40320,note_on,60,0,3,,,,,,,,,2,,,62,0
40320,note_on,0,0,3,,,,,,,,,2,,,59,0
40320,note_on,0,0,3,,,,,,,,,2,,,61,62
40320,note_on,0,0,1,,,,,,,,,0,,,76,75
40320,note_on,81,0,1,,,,,,,,,0,,,74,0
40400,note_on,80,0,1,,,,,,,,,0,,,76,0
40400,note_on,0,0,1,,,,,,,,,0,,,74,75
40479,note_on,79,0,1,,,,,,,,,0,,,74,0
40479,note_on,0,0,1,,,,,,,,,0,,,73,75
40560,note_on,240,0,3,,,,,,,,,2,,,64,0
40560,note_on,0,0,1,,,,,,,,,0,,,74,75
40560,note_on,0,0,3,,,,,,,,,2,,,59,62
40560,note_on,0,0,3,,,,,,,,,2,,,62,62
40560,note_on,240,0,2,,,,,,,,,1,,,64,75
40560,note_on,240,0,4,,,,,,,,,3,,,40,62
40560,note_on,0,0,3,,,,,,,,,2,,,61,0
40560,note_on,81,0,1,,,,,,,,,0,,,73,0
40640,note_on,80,0,1,,,,,,,,,0,,,74,0
40640,note_on,0,0,1,,,,,,,,,0,,,73,75
40680,note_on,0,0,3,,,,,,,,,2,,,59,0
40680,control_change,0,0,3,,,,,,,,,2,64,0,,
40680,note_on,0,0,3,,,,,,,,,2,,,56,62
40680,note_on,0,0,3,,,,,,,,,2,,,59,62
40680,note_on,120,0,3,,,,,,,,,2,,,62,0
40719,note_on,0,0,1,,,,,,,,,0,,,71,75
40719,control_change,0,0,1,,,,,,,,,0,64,0,,
40719,note_on,79,0,1,,,,,,,,,0,,,73,0
40800,note_on,81,0,1,,,,,,,,,0,,,71,0
40800,note_on,0,0,1,,,,,,,,,0,,,72,101
40800,note_on,240,0,4,,,,,,,,,3,,,40,0
40800,note_on,240,0,2,,,,,,,,,1,,,64,0
40800,note_on,0,0,3,,,,,,,,,2,,,60,62
40800,note_on,120,0,3,,,,,,,,,2,,,59,0
40800,note_on,0,0,3,,,,,,,,,2,,,56,0
40800,note_on,0,0,3,,,,,,,,,2,,,52,62
40800,note_on,0,0,3,,,,,,,,,2,,,56,62
40920,note_on,120,0,2,,,,,,,,,1,,,64,75
40920,note_on,0,0,4,,,,,,,,,3,,,40,62
40920,control_change,120,0,4,,,,,,,,,3,64,127,,
41040,note_on,120,0,2,,,,,,,,,1,,,64,0
41040,note_on,0,0,2,,,,,,,,,1,,,64,75
41040,note_on,0,0,4,,,,,,,,,3,,,40,62
41040,note_on,120,0,4,,,,,,,,,3,,,40,0
41160,note_on,120,0,2,,,,,,,,,1,,,64,0
41160,note_on,0,0,2,,,,,,,,,1,,,64,75
41160,note_on,120,0,4,,,,,,,,,3,,,40,0
41160,note_on,0,0,4,,,,,,,,,3,,,40,62
41160,control_change,0,0,4,,,,,,,,,3,64,0,,
41280,note_on,480,0,3,,,,,,,,,2,,,60,0
41280,note_on,0,0,1,,,,,,,,,0,,,73,75
41280,note_on,480,0,1,,,,,,,,,0,,,72,0
41280,note_on,120,0,4,,,,,,,,,3,,,40,0
41280,note_on,0,0,4,,,,,,,,,3,,,45,62
41280,note_on,0,0,2,,,,,,,,,1,,,64,75
41280,note_on,120,0,2,,,,,,,,,1,,,64,0
41280,note_on,0,0,3,,,,,,,,,2,,,61,62
41280,note_on,0,0,3,,,,,,,,,2,,,57,62
41280,note_on,0,0,3,,,,,,,,,2,,,56,0
41400,note_on,0,0,1,,,,,,,,,0,,,80,62
41400,note_on,120,0,1,,,,,,,,,0,,,73,0
41520,note_on,240,0,4,,,,,,,,,3,,,45,0
41520,note_on,0,0,1,,,,,,,,,0,,,81,62
41520,note_on,120,0,1,,,,,,,,,0,,,80,0
41520,note_on,0,0,3,,,,,,,,,2,,,52,0
41520,note_on,0,0,3,,,,,,,,,2,,,57,0
41520,note_on,240,0,3,,,,,,,,,2,,,61,0
41520,note_on,240,0,2,,,,,,,,,1,,,64,0
41640,note_on,0,0,1,,,,,,,,,0,,,83,62
41640,note_on,120,0,1,,,,,,,,,0,,,81,0
41760,note_on,0,0,3,,,,,,,,,2,,,61,62
41760,control_change,240,0,4,,,,,,,,,3,64,127,,
41760,note_on,0,0,3,,,,,,,,,2,,,57,62
41760,note_on,120,0,1,,,,,,,,,0,,,83,0
41760,control_change,0,0,1,,,,,,,,,0,64,127,,
41760,note_on,0,0,4,,,,,,,,,3,,,54,62
41760,control_change,240,0,2,,,,,,,,,1,64,127,,
41760,note_on,0,0,1,,,,,,,,,0,,,85,62
41760,control_change,240,0,3,,,,,,,,,2,64,127,,
41760,note_on,0,0,2,,,,,,,,,1,,,66,62
42000,note_on,0,0,4,,,,,,,,,3,,,54,62
42000,note_on,240,0,4,,,,,,,,,3,,,54,0
42000,note_on,0,0,3,,,,,,,,,2,,,61,62
42000,note_on,240,0,2,,,,,,,,,1,,,66,0
42000,note_on,0,0,3,,,,,,,,,2,,,57,0
42000,note_on,240,0,1,,,,,,,,,0,,,85,0
42000,note_on,0,0,1,,,,,,,,,0,,,85,62
42000,note_on,240,0,3,,,,,,,,,2,,,61,0
42000,note_on,0,0,2,,,,,,,,,1,,,69,62
42240,note_on,0,0,4,,,,,,,,,3,,,54,62
42240,note_on,240,0,4,,,,,,,,,3,,,54,0
42240,note_on,240,0,1,,,,,,,,,0,,,85,0
42240,note_on,0,0,1,,,,,,,,,0,,,85,62
42240,note_on,240,0,3,,,,,,,,,2,,,61,0
42240,note_on,0,0,3,,,,,,,,,2,,,59,62
42240,note_on,0,0,3,,,,,,,,,2,,,61,62
42240,note_on,240,0,2,,,,,,,,,1,,,69,0
42240,note_on,0,0,2,,,,,,,,,1,,,68,62
42480,note_on,240,0,3,,,,,,,,,2,,,61,0
42480,note_on,0,0,1,,,,,,,,,0,,,85,62
42480,control_change,0,0,1,,,,,,,,,0,64,0,,
42480,note_on,240,0,1,,,,,,,,,0,,,85,0
42480,note_on,0,0,3,,,,,,,,,2,,,59,0
42480,note_on,240,0,2,,,,,,,,,1,,,68,0
42480,control_change,0,0,2,,,,,,,,,1,64,0,,
42480,note_on,0,0,2,,,,,,,,,1,,,65,62
42480,control_change,0,0,4,,,,,,,,,3,64,0,,
42480,note_on,240,0,4,,,,,,,,,3,,,54,0
42480,control_change,0,0,3,,,,,,,,,2,64,0,,
42480,note_on,0,0,3,,,,,,,,,2,,,56,62
42480,note_on,0,0,3,,,,,,,,,2,,,61,62
42480,note_on,0,0,4,,,,,,,,,3,,,54,62
42600,note_on,120,0,1,,,,,,,,,0,,,85,62
42660,note_on,0,0,1,,,,,,,,,0,,,86,62
42660,note_on,60,0,1,,,,,,,,,0,,,85,0
42720,control_change,0,0,1,,,,,,,,,0,64,127,,
42720,note_on,0,0,1,,,,,,,,,0,,,85,62
42720,note_on,0,0,1,,,,,,,,,0,,,85,0
42720,note_on,60,0,1,,,,,,,,,0,,,86,0
42720,note_on,240,0,4,,,,,,,,,3,,,54,0
42720,note_on,0,0,3,,,,,,,,,2,,,56,0
42720,note_on,240,0,3,,,,,,,,,2,,,61,0
42720,note_on,0,0,2,,,,,,,,,1,,,66,62
42720,note_on,0,0,4,,,,,,,,,3,,,57,62
42720,note_on,0,0,4,,,,,,,,,3,,,54,62
42720,note_on,0,0,3,,,,,,,,,2,,,61,62
42720,note_on,240,0,2,,,,,,,,,1,,,65,0
42840,note_on,120,0,1,,,,,,,,,0,,,85,0
42840,note_on,0,0,1,,,,,,,,,0,,,83,62
42900,note_on,60,0,1,,,,,,,,,0,,,83,0
42900,note_on,0,0,1,,,,,,,,,0,,,81,62
42960,note_on,60,0,1,,,,,,,,,0,,,81,0
42960,note_on,0,0,1,,,,,,,,,0,,,80,62
43020,note_on,60,0,1,,,,,,,,,0,,,80,0
43020,note_on,0,0,1,,,,,,,,,0,,,78,62
43080,note_on,60,0,1,,,,,,,,,0,,,78,0
43080,note_on,0,0,1,,,,,,,,,0,,,76,62
43080,note_on,0,0,3,,,,,,,,,2,,,64,62
43080,note_on,360,0,3,,,,,,,,,2,,,61,0
43140,note_on,60,0,1,,,,,,,,,0,,,76,0
43140,note_on,0,0,1,,,,,,,,,0,,,74,62
43140,note_on,0,0,3,,,,,,,,,2,,,62,62
43140,note_on,60,0,3,,,,,,,,,2,,,64,0
43200,note_on,0,0,1,,,,,,,,,0,,,73,62
43200,note_on,60,0,3,,,,,,,,,2,,,62,0
43200,note_on,0,0,3,,,,,,,,,2,,,61,62
43200,note_on,60,0,1,,,,,,,,,0,,,74,0
43200,control_change,0,0,1,,,,,,,,,0,64,0,,
43280,control_change,0,0,1,,,,,,,,,0,64,127,,
43280,note_on,0,0,1,,,,,,,,,0,,,73,62
43280,note_on,80,0,1,,,,,,,,,0,,,73,0
43359,note_on,79,0,1,,,,,,,,,0,,,73,0
43359,note_on,0,0,1,,,,,,,,,0,,,71,62
43440,note_on,0,0,4,,,,,,,,,3,,,54,0
43440,note_on,720,0,4,,,,,,,,,3,,,57,0
43440,note_on,81,0,1,,,,,,,,,0,,,71,0
43440,note_on,0,0,1,,,,,,,,,0,,,69,62
43440,note_on,720,0,2,,,,,,,,,1,,,66,0
43440,note_on,240,0,3,,,,,,,,,2,,,61,0
43520,note_on,80,0,1,,,,,,,,,0,,,69,0
43520,note_on,0,0,1,,,,,,,,,0,,,68,62
43599,note_on,79,0,1,,,,,,,,,0,,,68,0
43599,control_change,0,0,1,,,,,,,,,0,64,0,,
43599,note_on,0,0,1,,,,,,,,,0,,,66,62
43680,control_change,240,0,2,,,,,,,,,1,64,127,,
43680,note_on,0,0,2,,,,,,,,,1,,,59,75
43680,note_on,0,0,1,,,,,,,,,0,,,65,62
43680,note_on,81,0,1,,,,,,,,,0,,,66,0
43680,control_change,240,0,3,,,,,,,,,2,64,127,,
43680,note_on,0,0,3,,,,,,,,,2,,,53,62
43680,note_on,0,0,4,,,,,,,,,3,,,42,62
43680,control_change,240,0,4,,,,,,,,,3,64,127,,
43680,note_on,0,0,3,,,,,,,,,2,,,56,62
43680,control_change,0,0,1,,,,,,,,,0,64,127,,
43740,note_on,60,0,1,,,,,,,,,0,,,65,0
43740,note_on,0,0,1,,,,,,,,,0,,,74,62
43800,note_on,60,0,1,,,,,,,,,0,,,74,0
43800,note_on,0,0,1,,,,,,,,,0,,,68,62
43860,note_on,60,0,1,,,,,,,,,0,,,68,0
43860,control_change,0,0,1,,,,,,,,,0,64,0,,
43860,note_on,0,0,1,,,,,,,,,0,,,65,62
43920,note_on,0,0,3,,,,,,,,,2,,,53,0
43920,note_on,240,0,2,,,,,,,,,1,,,59,0
43920,note_on,0,0,2,,,,,,,,,1,,,62,75
43920,note_on,60,0,1,,,,,,,,,0,,,65,0
43920,control_change,0,0,1,,,,,,,,,0,64,127,,
43920,note_on,240,0,3,,,,,,,,,2,,,56,0
43920,note_on,0,0,1,,,,,,,,,0,,,65,62
43920,note_on,0,0,4,,,,,,,,,3,,,42,62
43920,note_on,240,0,4,,,,,,,,,3,,,42,0
43920,note_on,0,0,3,,,,,,,,,2,,,56,62
43920,note_on,0,0,3,,,,,,,,,2,,,53,62
43980,note_on,60,0,1,,,,,,,,,0,,,65,0
43980,note_on,0,0,1,,,,,,,,,0,,,74,62
44040,note_on,0,0,1,,,,,,,,,0,,,68,62
44040,note_on,60,0,1,,,,,,,,,0,,,74,0
44100,note_on,0,0,1,,,,,,,,,0,,,65,62
44100,control_change,0,0,1,,,,,,,,,0,64,0,,
44100,note_on,60,0,1,,,,,,,,,0,,,68,0
44160,control_change,0,0,1,,,,,,,,,0,64,127,,
44160,note_on,60,0,1,,,,,,,,,0,,,65,0
44160,note_on,0,0,3,,,,,,,,,2,,,53,0
44160,note_on,0,0,1,,,,,,,,,0,,,65,62
44160,note_on,0,0,3,,,,,,,,,2,,,53,62
44160,note_on,0,0,2,,,,,,,,,1,,,56,75
44160,note_on,240,0,3,,,,,,,,,2,,,56,0
44160,note_on,240,0,2,,,,,,,,,1,,,62,0
44220,note_on,60,0,1,,,,,,,,,0,,,65,0
44220,note_on,0,0,1,,,,,,,,,0,,,74,62
44280,note_on,60,0,1,,,,,,,,,0,,,74,0
44280,note_on,0,0,1,,,,,,,,,0,,,68,62
44340,control_change,0,0,1,,,,,,,,,0,64,0,,
44340,note_on,0,0,1,,,,,,,,,0,,,65,62
44340,note_on,60,0,1,,,,,,,,,0,,,68,0
44400,note_on,60,0,1,,,,,,,,,0,,,65,0
44400,note_on,480,0,4,,,,,,,,,3,,,42,0
44400,note_on,240,0,2,,,,,,,,,1,,,56,0
44400,note_on,0,0,2,,,,,,,,,1,,,59,75
44400,note_on,0,0,3,,,,,,,,,2,,,56,62
44400,note_on,0,0,3,,,,,,,,,2,,,53,62
44400,control_change,0,0,4,,,,,,,,,3,64,0,,
44400,control_change,0,0,1,,,,,,,,,0,64,127,,
44400,note_on,0,0,1,,,,,,,,,0,,,65,62
44400,note_on,0,0,4,,,,,,,,,3,,,42,62
44400,control_change,0,0,3,,,,,,,,,2,64,0,,
44400,note_on,240,0,3,,,,,,,,,2,,,53,0
44460,note_on,0,0,1,,,,,,,,,0,,,74,62
44460,note_on,60,0,1,,,,,,,,,0,,,65,0
44520,note_on,60,0,1,,,,,,,,,0,,,74,0
44520,note_on,0,0,1,,,,,,,,,0,,,68,62
44580,note_on,60,0,1,,,,,,,,,0,,,68,0
44580,control_change,0,0,1,,,,,,,,,0,64,0,,
44580,note_on,180,0,2,,,,,,,,,1,,,59,0
44580,control_change,0,0,2,,,,,,,,,1,64,0,,
44580,note_on,0,0,2,,,,,,,,,1,,,62,75
44580,note_on,0,0,1,,,,,,,,,0,,,65,62
44640,note_on,60,0,2,,,,,,,,,1,,,62,0
44640,control_change,0,0,2,,,,,,,,,1,64,127,,
44640,note_on,0,0,2,,,,,,,,,1,,,61,75
44640,note_on,0,0,1,,,,,,,,,0,,,66,62
44640,note_on,0,0,3,,,,,,,,,2,,,57,62
44640,note_on,0,0,4,,,,,,,,,3,,,42,62
44640,note_on,240,0,3,,,,,,,,,2,,,56,0
44640,note_on,0,0,3,,,,,,,,,2,,,53,0
44640,note_on,0,0,3,,,,,,,,,2,,,54,62
44640,note_on,60,0,1,,,,,,,,,0,,,65,0
44640,control_change,0,0,1,,,,,,,,,0,64,127,,
44640,note_on,240,0,4,,,,,,,,,3,,,42,0
44700,note_on,60,0,1,,,,,,,,,0,,,66,0
44700,note_on,0,0,1,,,,,,,,,0,,,68,62
44760,note_on,0,0,1,,,,,,,,,0,,,66,62
44760,note_on,60,0,1,,,,,,,,,0,,,68,0
44820,note_on,0,0,1,,,,,,,,,0,,,65,62
44820,note_on,60,0,1,,,,,,,,,0,,,66,0
44880,note_on,60,0,1,,,,,,,,,0,,,65,0
44880,note_on,0,0,1,,,,,,,,,0,,,66,62
44927,note_on,47,0,1,,,,,,,,,0,,,66,0
44927,note_on,0,0,1,,,,,,,,,0,,,69,62
44976,note_on,49,0,1,,,,,,,,,0,,,69,0
44976,note_on,0,0,1,,,,,,,,,0,,,73,62
45000,note_on,360,0,2,,,,,,,,,1,,,61,0
45000,note_on,0,0,2,,,,,,,,,1,,,63,75
45023,note_on,47,0,1,,,,,,,,,0,,,73,0
45023,note_on,0,0,1,,,,,,,,,0,,,81,62
45060,note_on,60,0,2,,,,,,,,,1,,,63,0
45060,note_on,0,0,2,,,,,,,,,1,,,65,75
45072,note_on,49,0,1,,,,,,,,,0,,,81,0
45072,note_on,0,0,1,,,,,,,,,0,,,80,62
45120,note_on,0,0,2,,,,,,,,,1,,,66,62
45120,note_on,0,0,1,,,,,,,,,0,,,78,62
45120,control_change,0,0,1,,,,,,,,,0,64,0,,
45120,note_on,48,0,1,,,,,,,,,0,,,80,0
45120,note_on,60,0,2,,,,,,,,,1,,,65,0
45120,control_change,0,0,2,,,,,,,,,1,64,0,,
45135,note_on,15,0,1,,,,,,,,,0,,,78,0
45240,note_on,120,0,2,,,,,,,,,1,,,66,0
45240,control_change,0,0,2,,,,,,,,,1,64,127,,
45240,note_on,0,0,2,,,,,,,,,1,,,66,62
45240,note_on,0,0,3,,,,,,,,,2,,,54,0
45240,note_on,600,0,3,,,,,,,,,2,,,57,0
45240,note_on,0,0,1,,,,,,,,,0,,,78,62
45240,note_on,600,0,4,,,,,,,,,3,,,42,0
45240,control_change,105,0,1,,,,,,,,,0,64,127,,
45360,note_on,120,0,1,,,,,,,,,0,,,78,0
45360,note_on,0,0,1,,,,,,,,,0,,,80,62
45360,note_on,0,0,2,,,,,,,,,1,,,68,62
45360,note_on,120,0,2,,,,,,,,,1,,,66,0
45480,note_on,120,0,1,,,,,,,,,0,,,80,0
45480,control_change,0,0,1,,,,,,,,,0,64,0,,
45480,note_on,0,0,1,,,,,,,,,0,,,81,62
45480,note_on,0,0,2,,,,,,,,,1,,,69,62
45480,control_change,0,0,2,,,,,,,,,1,64,0,,
45480,note_on,120,0,2,,,,,,,,,1,,,68,0
45600,note_on,0,0,2,,,,,,,,,1,,,71,62
45600,control_change,0,0,2,,,,,,,,,1,64,127,,
45600,note_on,360,0,4,,,,,,,,,3,,,47,62
45600,note_on,120,0,2,,,,,,,,,1,,,69,0
45600,note_on,120,0,1,,,,,,,,,0,,,81,0
45600,note_on,0,0,1,,,,,,,,,0,,,83,62
45600,control_change,0,0,1,,,,,,,,,0,64,127,,
45720,note_on,0,0,1,,,,,,,,,0,,,81,62
45720,note_on,120,0,1,,,,,,,,,0,,,83,0
45720,note_on,0,0,2,,,,,,,,,1,,,69,62
45720,note_on,120,0,2,,,,,,,,,1,,,71,0
45840,note_on,0,0,2,,,,,,,,,1,,,78,88
45840,note_on,240,0,4,,,,,,,,,3,,,47,0
45840,note_on,0,0,4,,,,,,,,,3,,,57,88
45840,note_on,0,0,4,,,,,,,,,3,,,59,88
45840,note_on,600,0,3,,,,,,,,,2,,,66,88
45840,note_on,0,0,1,,,,,,,,,0,,,90,88
45840,note_on,120,0,1,,,,,,,,,0,,,81,0
45840,note_on,120,0,2,,,,,,,,,1,,,69,0
46020,control_change,0,0,2,,,,,,,,,1,64,0,,
46020,note_on,180,0,2,,,,,,,,,1,,,78,0
46020,note_on,0,0,1,,,,,,,,,0,,,88,62
46020,note_on,0,0,2,,,,,,,,,1,,,76,62
46020,note_on,180,0,1,,,,,,,,,0,,,90,0
46020,control_change,0,0,1,,,,,,,,,0,64,0,,
46080,note_on,60,0,2,,,,,,,,,1,,,76,0
46080,note_on,0,0,2,,,,,,,,,1,,,76,62
46080,note_on,60,0,1,,,,,,,,,0,,,88,0
46080,note_on,0,0,1,,,,,,,,,0,,,88,62
46160,note_on,0,0,2,,,,,,,,,1,,,75,62
46160,note_on,80,0,1,,,,,,,,,0,,,88,0
46160,note_on,0,0,1,,,,,,,,,0,,,87,62
46160,note_on,80,0,2,,,,,,,,,1,,,76,0
46239,note_on,0,0,1,,,,,,,,,0,,,85,62
46239,note_on,79,0,2,,,,,,,,,1,,,75,0
46239,note_on,0,0,2,,,,,,,,,1,,,73,62
46239,note_on,79,0,1,,,,,,,,,0,,,87,0
46260,note_on,420,0,3,,,,,,,,,2,,,66,0
46260,note_on,0,0,3,,,,,,,,,2,,,64,62
46320,note_on,60,0,3,,,,,,,,,2,,,64,0
46320,note_on,0,0,3,,,,,,,,,2,,,64,62
46320,note_on,0,0,4,,,,,,,,,3,,,57,62
46320,note_on,81,0,2,,,,,,,,,1,,,73,0
46320,note_on,0,0,2,,,,,,,,,1,,,73,62
46320,note_on,0,0,1,,,,,,,,,0,,,85,62
46320,note_on,81,0,1,,,,,,,,,0,,,85,0
46320,note_on,480,0,4,,,,,,,,,3,,,59,0
46320,note_on,0,0,4,,,,,,,,,3,,,59,62
46320,note_on,0,0,4,,,,,,,,,3,,,57,0
46400,note_on,80,0,2,,,,,,,,,1,,,73,0
46400,note_on,0,0,1,,,,,,,,,0,,,83,62
46400,note_on,0,0,3,,,,,,,,,2,,,63,62
46400,note_on,80,0,3,,,,,,,,,2,,,64,0
46400,note_on,0,0,2,,,,,,,,,1,,,71,62
46400,note_on,80,0,1,,,,,,,,,0,,,85,0
46479,note_on,0,0,1,,,,,,,,,0,,,81,62
46479,note_on,79,0,2,,,,,,,,,1,,,71,0
46479,note_on,0,0,3,,,,,,,,,2,,,66,62
46479,note_on,79,0,3,,,,,,,,,2,,,63,0
46479,note_on,79,0,1,,,,,,,,,0,,,83,0
46479,note_on,0,0,2,,,,,,,,,1,,,69,62
46560,note_on,81,0,2,,,,,,,,,1,,,69,0
46560,control_change,0,0,2,,,,,,,,,1,64,127,,
46560,note_on,0,0,2,,,,,,,,,1,,,70,62
46560,note_on,0,0,1,,,,,,,,,0,,,82,62
46560,control_change,0,0,1,,,,,,,,,0,64,127,,
46560,note_on,0,0,4,,,,,,,,,3,,,47,62
46560,note_on,81,0,1,,,,,,,,,0,,,81,0
46560,note_on,240,0,4,,,,,,,,,3,,,59,0
46560,note_on,81,0,3,,,,,,,,,2,,,66,0
46560,note_on,0,0,4,,,,,,,,,3,,,57,0
46680,note_on,0,0,1,,,,,,,,,0,,,83,62
46680,note_on,120,0,1,,,,,,,,,0,,,82,0
46680,note_on,120,0,2,,,,,,,,,1,,,70,0
46680,note_on,0,0,2,,,,,,,,,1,,,71,62
46800,note_on,0,0,4,,,,,,,,,3,,,59,88
46800,note_on,0,0,1,,,,,,,,,0,,,92,88
46800,note_on,120,0,1,,,,,,,,,0,,,83,0
46800,note_on,240,0,3,,,,,,,,,2,,,68,88
46800,note_on,240,0,4,,,,,,,,,3,,,47,0
46800,note_on,120,0,2,,,,,,,,,1,,,71,0
46800,note_on,0,0,2,,,,,,,,,1,,,80,88
46980,note_on,0,0,2,,,,,,,,,1,,,78,62
46980,control_change,0,0,2,,,,,,,,,1,64,0,,
46980,control_change,0,0,1,,,,,,,,,0,64,0,,
46980,note_on,180,0,1,,,,,,,,,0,,,92,0
46980,note_on,0,0,1,,,,,,,,,0,,,90,62
46980,note_on,180,0,2,,,,,,,,,1,,,80,0
47040,note_on,0,0,2,,,,,,,,,1,,,78,62
47040,note_on,0,0,1,,,,,,,,,0,,,90,62
47040,control_change,0,0,1,,,,,,,,,0,64,127,,
47040,note_on,60,0,1,,,,,,,,,0,,,90,0
47040,control_change,0,0,2,,,,,,,,,1,64,127,,
47040,note_on,60,0,2,,,,,,,,,1,,,78,0
47120,note_on,80,0,1,,,,,,,,,0,,,90,0
47120,note_on,0,0,1,,,,,,,,,0,,,88,62
47120,note_on,80,0,2,,,,,,,,,1,,,78,0
47120,note_on,0,0,2,,,,,,,,,1,,,76,62
47199,note_on,0,0,1,,,,,,,,,0,,,87,62
47199,note_on,79,0,2,,,,,,,,,1,,,76,0
47199,note_on,79,0,1,,,,,,,,,0,,,88,0
47199,note_on,0,0,2,,,,,,,,,1,,,75,62
47220,note_on,0,0,4,,,,,,,,,3,,,57,62
47220,note_on,420,0,4,,,,,,,,,3,,,59,0
47220,note_on,420,0,3,,,,,,,,,2,,,68,0
47220,note_on,0,0,3,,,,,,,,,2,,,66,62
47280,note_on,81,0,1,,,,,,,,,0,,,87,0
47280,note_on,81,0,2,,,,,,,,,1,,,75,0
47280,note_on,60,0,3,,,,,,,,,2,,,66,0
47280,note_on,0,0,3,,,,,,,,,2,,,66,62
47280,note_on,0,0,2,,,,,,,,,1,,,76,62
47280,note_on,60,0,4,,,,,,,,,3,,,57,0
47280,note_on,0,0,4,,,,,,,,,3,,,57,62
47280,note_on,0,0,4,,,,,,,,,3,,,59,62
47280,note_on,0,0,1,,,,,,,,,0,,,88,62
47360,note_on,0,0,2,,,,,,,,,1,,,71,62
47360,note_on,0,0,1,,,,,,,,,0,,,83,62
47360,note_on,80,0,2,,,,,,,,,1,,,76,0
47360,note_on,80,0,1,,,,,,,,,0,,,88,0
47400,note_on,120,0,4,,,,,,,,,3,,,59,0
47400,note_on,0,0,3,,,,,,,,,2,,,64,62
47400,note_on,0,0,4,,,,,,,,,3,,,56,62
47400,note_on,120,0,3,,,,,,,,,2,,,66,0
47400,note_on,0,0,4,,,,,,,,,3,,,57,0
47439,note_on,79,0,1,,,,,,,,,0,,,83,0
47439,control_change,0,0,1,,,,,,,,,0,64,0,,
47439,note_on,0,0,1,,,,,,,,,0,,,80,62
47439,note_on,79,0,2,,,,,,,,,1,,,71,0
47439,control_change,0,0,2,,,,,,,,,1,64,0,,
47439,note_on,0,0,2,,,,,,,,,1,,,68,62
47520,note_on,120,0,4,,,,,,,,,3,,,56,0
47520,note_on,81,0,2,,,,,,,,,1,,,68,0
47520,control_change,0,0,2,,,,,,,,,1,64,127,,
47520,note_on,0,0,2,,,,,,,,,1,,,71,62
47520,note_on,120,0,3,,,,,,,,,2,,,64,0
47520,note_on,0,0,4,,,,,,,,,3,,,47,49
47520,note_on,81,0,1,,,,,,,,,0,,,80,0
47520,control_change,0,0,1,,,,,,,,,0,64,127,,
47520,note_on,0,0,1,,,,,,,,,0,,,83,62
47600,note_on,80,0,1,,,,,,,,,0,,,83,0
47600,note_on,0,0,1,,,,,,,,,0,,,81,62
47600,note_on,80,0,2,,,,,,,,,1,,,71,0
47600,note_on,0,0,2,,,,,,,,,1,,,69,62
47679,note_on,79,0,1,,,,,,,,,0,,,81,0
47679,note_on,0,0,1,,,,,,,,,0,,,80,62
47679,note_on,79,0,2,,,,,,,,,1,,,69,0
47679,note_on,0,0,2,,,,,,,,,1,,,68,62
47760,note_on,0,0,1,,,,,,,,,0,,,81,62
47760,note_on,81,0,2,,,,,,,,,1,,,68,0
47760,note_on,0,0,2,,,,,,,,,1,,,69,62
47760,note_on,81,0,1,,,,,,,,,0,,,80,0
47760,note_on,240,0,4,,,,,,,,,3,,,47,0
47760,note_on,240,0,3,,,,,,,,,2,,,66,75
47760,note_on,0,0,4,,,,,,,,,3,,,59,75
47760,note_on,0,0,4,,,,,,,,,3,,,57,75
47840,note_on,80,0,1,,,,,,,,,0,,,81,0
47840,note_on,0,0,2,,,,,,,,,1,,,78,88
47840,note_on,80,0,2,,,,,,,,,1,,,69,0
47840,note_on,0,0,1,,,,,,,,,0,,,90,88
47960,note_on,120,0,1,,,,,,,,,0,,,90,0
47960,control_change,0,0,1,,,,,,,,,0,64,0,,
47960,note_on,0,0,1,,,,,,,,,0,,,88,62
47960,control_change,0,0,2,,,,,,,,,1,64,0,,
47960,note_on,0,0,2,,,,,,,,,1,,,76,62
47960,note_on,120,0,2,,,,,,,,,1,,,78,0
48000,note_on,0,0,1,,,,,,,,,0,,,88,62
48000,note_on,0,0,2,,,,,,,,,1,,,76,62
48000,note_on,40,0,1,,,,,,,,,0,,,88,0
48000,note_on,40,0,2,,,,,,,,,1,,,76,0
48080,note_on,0,0,2,,,,,,,,,1,,,75,62
48080,note_on,80,0,2,,,,,,,,,1,,,76,0
48080,note_on,0,0,1,,,,,,,,,0,,,87,62
48080,note_on,80,0,1,,,,,,,,,0,,,88,0
48159,note_on,0,0,1,,,,,,,,,0,,,85,62
48159,note_on,79,0,2,,,,,,,,,1,,,75,0
48159,note_on,0,0,2,,,,,,,,,1,,,73,62
48159,note_on,79,0,1,,,,,,,,,0,,,87,0
48180,note_on,0,0,3,,,,,,,,,2,,,64,49
48180,note_on,420,0,3,,,,,,,,,2,,,66,0
48240,note_on,0,0,1,,,,,,,,,0,,,85,62
48240,note_on,81,0,1,,,,,,,,,0,,,85,0
48240,note_on,0,0,3,,,,,,,,,2,,,64,49
48240,note_on,0,0,4,,,,,,,,,3,,,57,49
48240,note_on,81,0,2,,,,,,,,,1,,,73,0
48240,note_on,0,0,2,,,,,,,,,1,,,73,62
48240,note_on,0,0,4,,,,,,,,,3,,,59,49
48240,note_on,0,0,4,,,,,,,,,3,,,57,0
48240,note_on,480,0,4,,,,,,,,,3,,,59,0
48240,note_on,60,0,3,,,,,,,,,2,,,64,0
48320,note_on,0,0,2,,,,,,,,,1,,,71,62
48320,note_on,80,0,3,,,,,,,,,2,,,64,0
48320,note_on,0,0,3,,,,,,,,,2,,,63,49
48320,note_on,80,0,1,,,,,,,,,0,,,85,0
48320,note_on,0,0,1,,,,,,,,,0,,,83,62
48320,note_on,80,0,2,,,,,,,,,1,,,73,0
48399,note_on,79,0,2,,,,,,,,,1,,,71,0
48399,note_on,0,0,2,,,,,,,,,1,,,70,62
48399,note_on,79,0,1,,,,,,,,,0,,,83,0
48399,note_on,79,0,3,,,,,,,,,2,,,63,0
48399,note_on,0,0,1,,,,,,,,,0,,,82,62
48399,note_on,0,0,3,,,,,,,,,2,,,66,49
48480,note_on,81,0,3,,,,,,,,,2,,,66,0
48480,note_on,0,0,2,,,,,,,,,1,,,73,62
48480,control_change,0,0,2,,,,,,,,,1,64,127,,
48480,note_on,81,0,2,,,,,,,,,1,,,70,0
48480,control_change,0,0,1,,,,,,,,,0,64,127,,
48480,note_on,0,0,4,,,,,,,,,3,,,47,49
48480,note_on,0,0,4,,,,,,,,,3,,,57,0
48480,note_on,240,0,4,,,,,,,,,3,,,59,0
48480,note_on,81,0,1,,,,,,,,,0,,,82,0
48480,note_on,0,0,1,,,,,,,,,0,,,85,62
48560,note_on,0,0,2,,,,,,,,,1,,,71,62
48560,note_on,80,0,1,,,,,,,,,0,,,85,0
48560,note_on,0,0,1,,,,,,,,,0,,,83,62
48560,note_on,80,0,2,,,,,,,,,1,,,73,0
48639,note_on,0,0,1,,,,,,,,,0,,,82,62
48639,note_on,79,0,1,,,,,,,,,0,,,83,0
48639,note_on,0,0,2,,,,,,,,,1,,,70,62
48639,note_on,79,0,2,,,,,,,,,1,,,71,0
48720,note_on,0,0,2,,,,,,,,,1,,,71,62
48720,note_on,81,0,2,,,,,,,,,1,,,70,0
48720,note_on,240,0,3,,,,,,,,,2,,,68,75
48720,note_on,81,0,1,,,,,,,,,0,,,82,0
48720,note_on,0,0,4,,,,,,,,,3,,,59,75
48720,note_on,240,0,4,,,,,,,,,3,,,47,0
48720,note_on,0,0,1,,,,,,,,,0,,,83,62
48800,note_on,80,0,2,,,,,,,,,1,,,71,0
48800,note_on,0,0,2,,,,,,,,,1,,,80,88
48800,note_on,0,0,1,,,,,,,,,0,,,92,88
48800,note_on,80,0,1,,,,,,,,,0,,,83,0
48920,note_on,0,0,2,,,,,,,,,1,,,78,62
48920,note_on,0,0,1,,,,,,,,,0,,,90,62
48920,control_change,0,0,1,,,,,,,,,0,64,0,,
48920,note_on,120,0,1,,,,,,,,,0,,,92,0
48920,note_on,120,0,2,,,,,,,,,1,,,80,0
48920,control_change,0,0,2,,,,,,,,,1,64,0,,
48960,note_on,0,0,2,,,,,,,,,1,,,78,62
48960,note_on,0,0,1,,,,,,,,,0,,,90,62
48960,note_on,40,0,1,,,,,,,,,0,,,90,0
48960,note_on,40,0,2,,,,,,,,,1,,,78,0
49040,note_on,80,0,2,,,,,,,,,1,,,78,0
49040,note_on,80,0,1,,,,,,,,,0,,,90,0
49040,note_on,0,0,1,,,,,,,,,0,,,88,62
49040,note_on,0,0,2,,,,,,,,,1,,,76,62
49119,note_on,79,0,1,,,,,,,,,0,,,88,0
49119,note_on,0,0,1,,,,,,,,,0,,,87,62
49119,note_on,79,0,2,,,,,,,,,1,,,76,0
49119,note_on,0,0,2,,,,,,,,,1,,,75,62
49140,note_on,0,0,3,,,,,,,,,2,,,66,49
49140,note_on,0,0,4,,,,,,,,,3,,,57,49
49140,note_on,420,0,4,,,,,,,,,3,,,59,0
49140,note_on,420,0,3,,,,,,,,,2,,,68,0
49200,note_on,0,0,2,,,,,,,,,1,,,76,62
49200,note_on,60,0,3,,,,,,,,,2,,,66,0
49200,note_on,0,0,3,,,,,,,,,2,,,66,49
49200,note_on,81,0,2,,,,,,,,,1,,,75,0
49200,note_on,0,0,4,,,,,,,,,3,,,59,49
49200,note_on,0,0,4,,,,,,,,,3,,,57,49
49200,note_on,60,0,4,,,,,,,,,3,,,57,0
49200,note_on,0,0,1,,,,,,,,,0,,,88,62
49200,note_on,81,0,1,,,,,,,,,0,,,87,0
49280,note_on,0,0,2,,,,,,,,,1,,,71,62
49280,note_on,80,0,1,,,,,,,,,0,,,88,0
49280,note_on,0,0,1,,,,,,,,,0,,,83,62
49280,note_on,80,0,2,,,,,,,,,1,,,76,0
49320,note_on,120,0,4,,,,,,,,,3,,,59,0
49320,note_on,0,0,4,,,,,,,,,3,,,57,0
49320,note_on,0,0,3,,,,,,,,,2,,,64,49
49320,note_on,120,0,3,,,,,,,,,2,,,66,0
49320,note_on,0,0,4,,,,,,,,,3,,,56,49
49359,note_on,79,0,2,,,,,,,,,1,,,71,0
49359,note_on,79,0,1,,,,,,,,,0,,,83,0
49359,note_on,0,0,1,,,,,,,,,0,,,80,62
49359,note_on,0,0,2,,,,,,,,,1,,,68,62
49440,note_on,81,0,1,,,,,,,,,0,,,80,0
49440,note_on,120,0,4,,,,,,,,,3,,,56,0
49440,note_on,120,0,3,,,,,,,,,2,,,64,0
49440,note_on,0,0,3,,,,,,,,,2,,,46,62
49440,note_on,0,0,4,,,,,,,,,3,,,34,62
49440,note_on,0,0,2,,,,,,,,,1,,,65,62
49440,note_on,81,0,2,,,,,,,,,1,,,68,0
49440,note_on,0,0,1,,,,,,,,,0,,,77,62
49463,note_on,23,0,3,,,,,,,,,2,,,46,0
49520,note_on,80,0,1,,,,,,,,,0,,,77,0
49520,note_on,0,0,1,,,,,,,,,0,,,78,62
49520,note_on,0,0,2,,,,,,,,,1,,,66,62
49520,note_on,80,0,2,,,,,,,,,1,,,65,0
49599,note_on,0,0,2,,,,,,,,,1,,,73,62
49599,note_on,79,0,1,,,,,,,,,0,,,78,0
49599,note_on,0,0,1,,,,,,,,,0,,,85,62
49599,note_on,79,0,2,,,,,,,,,1,,,66,0
49680,note_on,0,0,4,,,,,,,,,3,,,46,88
49680,note_on,0,0,3,,,,,,,,,2,,,61,88
49680,note_on,217,0,3,,,,,,,,,2,,,54,88
49680,note_on,81,0,1,,,,,,,,,0,,,85,0
49680,note_on,240,0,4,,,,,,,,,3,,,34,0
49680,note_on,0,0,1,,,,,,,,,0,,,88,88
49680,note_on,0,0,2,,,,,,,,,1,,,76,88
49680,note_on,81,0,2,,,,,,,,,1,,,73,0
49760,note_on,80,0,4,,,,,,,,,3,,,46,0
49760,note_on,0,0,4,,,,,,,,,3,,,49,62
49839,note_on,79,0,4,,,,,,,,,3,,,49,0
49839,note_on,0,0,4,,,,,,,,,3,,,47,62
49920,note_on,81,0,4,,,,,,,,,3,,,47,0
49920,note_on,0,0,4,,,,,,,,,3,,,46,62
50000,control_change,0,0,2,,,,,,,,,1,64,127,,
50000,note_on,320,0,2,,,,,,,,,1,,,76,0
50000,note_on,0,0,2,,,,,,,,,1,,,75,75
50000,note_on,320,0,1,,,,,,,,,0,,,88,0
50000,control_change,0,0,1,,,,,,,,,0,64,127,,
50000,note_on,0,0,1,,,,,,,,,0,,,87,75
50079,note_on,79,0,1,,,,,,,,,0,,,87,0
50079,note_on,0,0,1,,,,,,,,,0,,,90,75
50079,note_on,79,0,2,,,,,,,,,1,,,75,0
50079,note_on,0,0,2,,,,,,,,,1,,,78,75
50160,note_on,0,0,3,,,,,,,,,2,,,54,0
50160,note_on,81,0,2,,,,,,,,,1,,,78,0
50160,note_on,0,0,3,,,,,,,,,2,,,63,62
50160,note_on,81,0,1,,,,,,,,,0,,,90,0
50160,note_on,480,0,3,,,,,,,,,2,,,61,0
50160,note_on,0,0,2,,,,,,,,,1,,,76,75
50160,note_on,0,0,1,,,,,,,,,0,,,88,75
50240,note_on,0,0,2,,,,,,,,,1,,,75,75
50240,note_on,80,0,2,,,,,,,,,1,,,76,0
50240,note_on,80,0,1,,,,,,,,,0,,,88,0
50240,note_on,0,0,1,,,,,,,,,0,,,87,75
50280,note_on,120,0,3,,,,,,,,,2,,,63,0
50280,note_on,0,0,3,,,,,,,,,2,,,64,62
50319,note_on,79,0,1,,,,,,,,,0,,,87,0
50319,control_change,0,0,1,,,,,,,,,0,64,0,,
50319,note_on,0,0,1,,,,,,,,,0,,,85,75
50319,note_on,79,0,2,,,,,,,,,1,,,75,0
50319,control_change,0,0,2,,,,,,,,,1,64,0,,
50319,note_on,0,0,2,,,,,,,,,1,,,73,75
50400,note_on,0,0,3,,,,,,,,,2,,,64,62
50400,note_on,0,0,1,,,,,,,,,0,,,83,75
50400,control_change,0,0,1,,,,,,,,,0,64,127,,
50400,note_on,81,0,1,,,,,,,,,0,,,85,0
50400,control_change,0,0,2,,,,,,,,,1,64,127,,
50400,note_on,81,0,2,,,,,,,,,1,,,73,0
50400,note_on,480,0,4,,,,,,,,,3,,,46,0
50400,note_on,0,0,4,,,,,,,,,3,,,47,62
50400,note_on,0,0,2,,,,,,,,,1,,,71,75
50400,note_on,0,0,3,,,,,,,,,2,,,56,62
50400,note_on,120,0,3,,,,,,,,,2,,,64,0
50480,note_on,80,0,2,,,,,,,,,1,,,71,0
50480,note_on,0,0,2,,,,,,,,,1,,,70,75
50480,note_on,80,0,1,,,,,,,,,0,,,83,0
50480,note_on,0,0,1,,,,,,,,,0,,,82,75
50559,note_on,0,0,2,,,,,,,,,1,,,73,75
50559,note_on,0,0,1,,,,,,,,,0,,,85,75
50559,note_on,79,0,2,,,,,,,,,1,,,70,0
50559,note_on,79,0,1,,,,,,,,,0,,,82,0
50640,note_on,0,0,1,,,,,,,,,0,,,83,75
50640,note_on,0,0,3,,,,,,,,,2,,,56,0
50640,note_on,240,0,3,,,,,,,,,2,,,64,0
50640,note_on,240,0,4,,,,,,,,,3,,,47,0
50640,note_on,0,0,4,,,,,,,,,3,,,47,62
50640,note_on,81,0,2,,,,,,,,,1,,,73,0
50640,note_on,0,0,3,,,,,,,,,2,,,56,62
50640,note_on,0,0,3,,,,,,,,,2,,,52,62
50640,control_change,0,0,3,,,,,,,,,2,64,127,,
50640,note_on,81,0,1,,,,,,,,,0,,,85,0
50640,note_on,0,0,2,,,,,,,,,1,,,71,75
50720,note_on,80,0,1,,,,,,,,,0,,,83,0
50720,note_on,0,0,1,,,,,,,,,0,,,80,75
50720,note_on,0,0,2,,,,,,,,,1,,,68,75
50720,note_on,80,0,2,,,,,,,,,1,,,71,0
50799,note_on,0,0,2,,,,,,,,,1,,,69,75
50799,note_on,79,0,2,,,,,,,,,1,,,68,0
50799,note_on,0,0,1,,,,,,,,,0,,,81,75
50799,note_on,79,0,1,,,,,,,,,0,,,80,0
50820,note_on,180,0,3,,,,,,,,,2,,,56,0
50820,note_on,0,0,3,,,,,,,,,2,,,52,0
50820,note_on,0,0,3,,,,,,,,,2,,,54,62
50820,note_on,0,0,3,,,,,,,,,2,,,57,62
50880,note_on,240,0,4,,,,,,,,,3,,,47,0
50880,note_on,60,0,3,,,,,,,,,2,,,57,0
50880,note_on,0,0,3,,,,,,,,,2,,,54,0
50880,note_on,0,0,3,,,,,,,,,2,,,56,62
50880,note_on,0,0,3,,,,,,,,,2,,,59,62
50880,note_on,81,0,2,,,,,,,,,1,,,69,0
50880,note_on,0,0,2,,,,,,,,,1,,,71,75
50880,note_on,81,0,1,,,,,,,,,0,,,81,0
50880,note_on,0,0,1,,,,,,,,,0,,,83,75
50960,note_on,80,0,2,,,,,,,,,1,,,71,0
50960,note_on,80,0,1,,,,,,,,,0,,,83,0
50960,note_on,0,0,1,,,,,,,,,0,,,81,75
50960,note_on,0,0,2,,,,,,,,,1,,,69,75
51039,note_on,79,0,2,,,,,,,,,1,,,69,0
51039,note_on,79,0,1,,,,,,,,,0,,,81,0
51039,note_on,0,0,1,,,,,,,,,0,,,80,75
51039,note_on,0,0,2,,,,,,,,,1,,,68,75
51120,note_on,81,0,2,,,,,,,,,1,,,68,0
51120,note_on,0,0,2,,,,,,,,,1,,,69,75
51120,note_on,240,0,4,,,,,,,,,3,,,47,62
51120,note_on,0,0,3,,,,,,,,,2,,,57,62
51120,note_on,0,0,3,,,,,,,,,2,,,56,0
51120,note_on,240,0,3,,,,,,,,,2,,,59,0
51120,note_on,0,0,1,,,,,,,,,0,,,81,75
51120,note_on,81,0,1,,,,,,,,,0,,,80,0
51120,note_on,0,0,3,,,,,,,,,2,,,54,62
51200,note_on,0,0,1,,,,,,,,,0,,,80,75
51200,note_on,0,0,2,,,,,,,,,1,,,68,75
51200,note_on,80,0,2,,,,,,,,,1,,,69,0
51200,note_on,80,0,1,,,,,,,,,0,,,81,0
51240,note_on,120,0,3,,,,,,,,,2,,,57,0
51240,note_on,0,0,3,,,,,,,,,2,,,54,0
51240,note_on,0,0,3,,,,,,,,,2,,,51,62
51240,note_on,0,0,3,,,,,,,,,2,,,54,62
51240,control_change,0,0,3,,,,,,,,,2,64,0,,
51279,note_on,79,0,1,,,,,,,,,0,,,80,0
51279,control_change,0,0,1,,,,,,,,,0,64,0,,
51279,note_on,79,0,2,,,,,,,,,1,,,68,0
51279,note_on,0,0,2,,,,,,,,,1,,,66,75
51279,note_on,0,0,1,,,,,,,,,0,,,78,75
51279,control_change,0,0,2,,,,,,,,,1,64,0,,
51360,note_on,0,0,4,,,,,,,,,3,,,40,62
51360,note_on,0,0,3,,,,,,,,,2,,,52,62
51360,note_on,0,0,3,,,,,,,,,2,,,51,0
51360,note_on,240,0,4,,,,,,,,,3,,,47,0
51360,note_on,81,0,1,,,,,,,,,0,,,78,0
51360,note_on,120,0,3,,,,,,,,,2,,,54,0
51360,note_on,0,0,2,,,,,,,,,1,,,64,75
51360,note_on,81,0,2,,,,,,,,,1,,,66,0
51360,note_on,0,0,1,,,,,,,,,0,,,76,75
51383,note_on,23,0,2,,,,,,,,,1,,,64,0
51383,note_on,23,0,1,,,,,,,,,0,,,76,0
51600,note_on,0,0,4,,,,,,,,,3,,,56,62
51600,note_on,240,0,3,,,,,,,,,2,,,52,0
51600,control_change,0,0,3,,,,,,,,,2,64,127,,
51600,note_on,0,0,3,,,,,,,,,2,,,71,62
51600,control_change,0,0,4,,,,,,,,,3,64,127,,
51600,note_on,240,0,4,,,,,,,,,3,,,40,0
51600,control_change,217,0,2,,,,,,,,,1,64,127,,
51600,note_on,0,0,2,,,,,,,,,1,,,71,75
51680,note_on,80,0,3,,,,,,,,,2,,,71,0
51680,note_on,0,0,3,,,,,,,,,2,,,69,62
51720,note_on,0,0,4,,,,,,,,,3,,,47,62
51720,note_on,120,0,4,,,,,,,,,3,,,56,0
51759,note_on,0,0,3,,,,,,,,,2,,,68,62
51759,note_on,79,0,3,,,,,,,,,2,,,69,0
51840,control_change,0,0,3,,,,,,,,,2,64,0,,
51840,note_on,81,0,3,,,,,,,,,2,,,68,0
51840,note_on,0,0,4,,,,,,,,,3,,,54,62
51840,note_on,120,0,4,,,,,,,,,3,,,47,0
51840,note_on,0,0,3,,,,,,,,,2,,,69,62
51960,note_on,0,0,4,,,,,,,,,3,,,47,62
51960,control_change,0,0,4,,,,,,,,,3,64,0,,
51960,note_on,120,0,4,,,,,,,,,3,,,54,0
52080,note_on,240,0,3,,,,,,,,,2,,,69,0
52080,note_on,0,0,3,,,,,,,,,2,,,69,62
52080,control_change,0,0,3,,,,,,,,,2,64,127,,
52080,note_on,120,0,4,,,,,,,,,3,,,47,0
52080,note_on,0,0,4,,,,,,,,,3,,,47,62
52080,note_on,0,0,2,,,,,,,,,1,,,73,75
52080,note_on,480,0,2,,,,,,,,,1,,,71,0
52095,note_on,15,0,4,,,,,,,,,3,,,47,0
52160,note_on,80,0,3,,,,,,,,,2,,,69,0
52160,note_on,0,0,3,,,,,,,,,2,,,68,62
52200,note_on,120,0,2,,,,,,,,,1,,,73,0
52200,note_on,105,0,4,,,,,,,,,3,,,47,62
52200,note_on,0,0,2,,,,,,,,,1,,,75,75
52215,note_on,15,0,4,,,,,,,,,3,,,47,0
52239,note_on,0,0,3,,,,,,,,,2,,,66,62
52239,note_on,79,0,3,,,,,,,,,2,,,68,0
52320,note_on,105,0,4,,,,,,,,,3,,,52,62
52320,note_on,120,0,2,,,,,,,,,1,,,75,0
52320,note_on,81,0,3,,,,,,,,,2,,,66,0
52320,note_on,0,0,2,,,,,,,,,1,,,76,75
52320,control_change,0,0,3,,,,,,,,,2,64,0,,
52320,note_on,0,0,3,,,,,,,,,2,,,68,62
52440,note_on,120,0,4,,,,,,,,,3,,,52,0
52440,note_on,0,0,4,,,,,,,,,3,,,47,62
52560,control_change,0,0,2,,,,,,,,,1,64,0,,
52560,note_on,240,0,2,,,,,,,,,1,,,76,0
52560,note_on,120,0,4,,,,,,,,,3,,,47,0
52560,note_on,0,0,4,,,,,,,,,3,,,47,62
52560,note_on,240,0,3,,,,,,,,,2,,,68,0
52560,control_change,0,0,3,,,,,,,,,2,64,127,,
52560,note_on,0,0,3,,,,,,,,,2,,,64,62
52560,note_on,0,0,2,,,,,,,,,1,,,68,75
52575,note_on,15,0,4,,,,,,,,,3,,,47,0
52640,note_on,80,0,3,,,,,,,,,2,,,64,0
52640,note_on,0,0,3,,,,,,,,,2,,,66,62
52680,note_on,105,0,4,,,,,,,,,3,,,47,62
52680,note_on,120,0,2,,,,,,,,,1,,,68,0
52695,note_on,15,0,4,,,,,,,,,3,,,47,0
52719,note_on,0,0,3,,,,,,,,,2,,,68,62
52719,note_on,79,0,3,,,,,,,,,2,,,66,0
52800,note_on,81,0,3,,,,,,,,,2,,,68,0
52800,control_change,120,0,2,,,,,,,,,1,64,127,,
52800,note_on,0,0,2,,,,,,,,,1,,,71,101
52800,note_on,0,0,3,,,,,,,,,2,,,66,62
52800,note_on,0,0,4,,,,,,,,,3,,,57,62
52800,control_change,105,0,4,,,,,,,,,3,64,127,,
52880,note_on,0,0,3,,,,,,,,,2,,,64,62
52880,note_on,80,0,3,,,,,,,,,2,,,66,0
52920,note_on,120,0,4,,,,,,,,,3,,,57,0
52920,note_on,0,0,4,,,,,,,,,3,,,47,62
52959,note_on,0,0,3,,,,,,,,,2,,,63,62
52959,note_on,79,0,3,,,,,,,,,2,,,64,0
53040,note_on,120,0,4,,,,,,,,,3,,,47,0
53040,note_on,0,0,4,,,,,,,,,3,,,50,62
53040,note_on,0,0,3,,,,,,,,,2,,,61,62
53040,note_on,81,0,3,,,,,,,,,2,,,63,0
53040,note_on,240,0,2,,,,,,,,,1,,,71,0
53040,note_on,0,0,2,,,,,,,,,1,,,69,75
53120,note_on,80,0,3,,,,,,,,,2,,,61,0
53120,note_on,0,0,3,,,,,,,,,2,,,59,62
53160,note_on,120,0,2,,,,,,,,,1,,,69,0
53160,note_on,0,0,4,,,,,,,,,3,,,47,62
53160,control_change,0,0,4,,,,,,,,,3,64,0,,
53160,note_on,120,0,4,,,,,,,,,3,,,50,0
53160,note_on,0,0,2,,,,,,,,,1,,,66,75
53199,control_change,0,0,3,,,,,,,,,2,64,0,,
53199,note_on,0,0,3,,,,,,,,,2,,,57,62
53199,note_on,79,0,3,,,,,,,,,2,,,59,0
53280,note_on,120,0,2,,,,,,,,,1,,,66,0
53280,note_on,0,0,2,,,,,,,,,1,,,64,75
53280,note_on,81,0,3,,,,,,,,,2,,,57,0
53280,note_on,0,0,3,,,,,,,,,2,,,55,62
53280,control_change,0,0,2,,,,,,,,,1,64,0,,
53280,note_on,120,0,4,,,,,,,,,3,,,47,0
53280,control_change,0,0,4,,,,,,,,,3,64,127,,
53280,note_on,0,0,4,,,,,,,,,3,,,52,62
53400,note_on,120,0,3,,,,,,,,,2,,,55,0
53400,note_on,0,0,3,,,,,,,,,2,,,56,62
53400,note_on,120,0,4,,,,,,,,,3,,,52,0
53400,note_on,0,0,4,,,,,,,,,3,,,47,62
53520,note_on,240,0,2,,,,,,,,,1,,,64,0
53520,control_change,0,0,2,,,,,,,,,1,64,127,,
53520,note_on,0,0,3,,,,,,,,,2,,,71,62
53520,control_change,0,0,3,,,,,,,,,2,64,127,,
53520,note_on,120,0,3,,,,,,,,,2,,,56,0
53520,note_on,0,0,2,,,,,,,,,1,,,71,62
53520,note_on,0,0,4,,,,,,,,,3,,,56,62
53520,note_on,0,0,1,,,,,,,,,0,,,83,62
53520,note_on,120,0,4,,,,,,,,,3,,,47,0
53520,control_change,2137,0,1,,,,,,,,,0,64,127,,
53600,note_on,80,0,3,,,,,,,,,2,,,71,0
53600,note_on,0,0,3,,,,,,,,,2,,,69,62
53640,note_on,0,0,4,,,,,,,,,3,,,47,62
53640,note_on,120,0,4,,,,,,,,,3,,,56,0
53679,note_on,79,0,3,,,,,,,,,2,,,69,0
53679,note_on,0,0,3,,,,,,,,,2,,,68,62
53760,note_on,120,0,4,,,,,,,,,3,,,47,0
53760,note_on,81,0,3,,,,,,,,,2,,,68,0
53760,control_change,0,0,3,,,,,,,,,2,64,0,,
53760,note_on,0,0,3,,,,,,,,,2,,,69,62
53760,note_on,0,0,4,,,,,,,,,3,,,54,62
53880,note_on,0,0,4,,,,,,,,,3,,,47,62
53880,control_change,0,0,4,,,,,,,,,3,64,0,,
53880,note_on,120,0,4,,,,,,,,,3,,,54,0
54000,note_on,0,0,2,,,,,,,,,1,,,73,62
54000,note_on,480,0,2,,,,,,,,,1,,,71,0
54000,note_on,120,0,4,,,,,,,,,3,,,47,0
54000,note_on,0,0,3,,,,,,,,,2,,,69,62
54000,note_on,240,0,3,,,,,,,,,2,,,69,0
54000,note_on,480,0,1,,,,,,,,,0,,,83,0
54000,note_on,0,0,1,,,,,,,,,0,,,85,62
54000,note_on,0,0,4,,,,,,,,,3,,,47,62
54015,note_on,15,0,4,,,,,,,,,3,,,47,0
54080,note_on,80,0,3,,,,,,,,,2,,,69,0
54080,note_on,0,0,3,,,,,,,,,2,,,68,62
54120,note_on,120,0,2,,,,,,,,,1,,,73,0
54120,note_on,120,0,1,,,,,,,,,0,,,85,0
54120,note_on,0,0,1,,,,,,,,,0,,,87,62
54120,note_on,0,0,2,,,,,,,,,1,,,75,62
54120,note_on,105,0,4,,,,,,,,,3,,,47,62
54135,note_on,15,0,4,,,,,,,,,3,,,47,0
54159,note_on,0,0,3,,,,,,,,,2,,,66,62
54159,note_on,79,0,3,,,,,,,,,2,,,68,0
54240,note_on,120,0,2,,,,,,,,,1,,,75,0
54240,note_on,0,0,2,,,,,,,,,1,,,76,62
54240,note_on,0,0,3,,,,,,,,,2,,,68,62
54240,note_on,81,0,3,,,,,,,,,2,,,66,0
54240,note_on,120,0,1,,,,,,,,,0,,,87,0
54240,note_on,0,0,1,,,,,,,,,0,,,88,62
54240,note_on,105,0,4,,,,,,,,,3,,,52,62
54360,note_on,0,0,4,,,,,,,,,3,,,47,62
54360,note_on,120,0,4,,,,,,,,,3,,,52,0
54480,note_on,120,0,4,,,,,,,,,3,,,47,0
54480,note_on,0,0,4,,,,,,,,,3,,,52,62
54480,note_on,0,0,2,,,,,,,,,1,,,80,62
54480,note_on,0,0,1,,,,,,,,,0,,,92,62
54480,note_on,240,0,3,,,,,,,,,2,,,68,0
54480,control_change,0,0,3,,,,,,,,,2,64,127,,
54480,note_on,0,0,3,,,,,,,,,2,,,56,62
54480,note_on,240,0,2,,,,,,,,,1,,,76,0
54480,note_on,240,0,1,,,,,,,,,0,,,88,0
54560,note_on,0,0,3,,,,,,,,,2,,,57,62
54560,note_on,80,0,3,,,,,,,,,2,,,56,0
54600,note_on,120,0,1,,,,,,,,,0,,,92,0
54600,note_on,0,0,1,,,,,,,,,0,,,88,62
54600,note_on,120,0,2,,,,,,,,,1,,,80,0
54600,note_on,0,0,2,,,,,,,,,1,,,76,62
54600,note_on,0,0,4,,,,,,,,,3,,,56,62
54600,note_on,120,0,4,,,,,,,,,3,,,52,0
54639,note_on,0,0,3,,,,,,,,,2,,,59,62
54639,note_on,79,0,3,,,,,,,,,2,,,57,0
54720,note_on,0,0,2,,,,,,,,,1,,,71,62
54720,note_on,0,0,4,,,,,,,,,3,,,54,62
54720,note_on,120,0,4,,,,,,,,,3,,,56,0
54720,note_on,81,0,3,,,,,,,,,2,,,59,0
54720,note_on,120,0,1,,,,,,,,,0,,,88,0
54720,note_on,0,0,3,,,,,,,,,2,,,61,62
54720,note_on,0,0,1,,,,,,,,,0,,,83,62
54720,note_on,120,0,2,,,,,,,,,1,,,76,0
54800,note_on,0,0,3,,,,,,,,,2,,,63,62
54800,note_on,80,0,3,,,,,,,,,2,,,61,0
54840,note_on,120,0,4,,,,,,,,,3,,,54,0
54840,note_on,0,0,4,,,,,,,,,3,,,47,62
54879,note_on,0,0,3,,,,,,,,,2,,,64,62
54879,note_on,79,0,3,,,,,,,,,2,,,63,0
54960,note_on,240,0,1,,,,,,,,,0,,,83,0
54960,note_on,0,0,1,,,,,,,,,0,,,81,62
54960,note_on,240,0,2,,,,,,,,,1,,,71,0
54960,note_on,0,0,4,,,,,,,,,3,,,59,62
54960,note_on,120,0,4,,,,,,,,,3,,,47,0
54960,note_on,81,0,3,,,,,,,,,2,,,64,0
54960,note_on,0,0,3,,,,,,,,,2,,,63,62
54960,note_on,0,0,2,,,,,,,,,1,,,69,62
55020,note_on,60,0,1,,,,,,,,,0,,,81,0
55020,note_on,0,0,2,,,,,,,,,1,,,71,62
55020,note_on,0,0,1,,,,,,,,,0,,,83,62
55020,note_on,60,0,2,,,,,,,,,1,,,69,0
55040,note_on,80,0,3,,,,,,,,,2,,,63,0
55040,note_on,0,0,3,,,,,,,,,2,,,64,62
55080,note_on,0,0,2,,,,,,,,,1,,,69,62
55080,note_on,60,0,2,,,,,,,,,1,,,71,0
55080,note_on,120,0,4,,,,,,,,,3,,,59,0
55080,note_on,0,0,4,,,,,,,,,3,,,47,62
55080,note_on,60,0,1,,,,,,,,,0,,,83,0
55080,note_on,0,0,1,,,,,,,,,0,,,81,62
55119,note_on,79,0,3,,,,,,,,,2,,,64,0
55119,control_change,0,0,3,,,,,,,,,2,64,0,,
55119,note_on,0,0,3,,,,,,,,,2,,,66,62
55140,note_on,60,0,2,,,,,,,,,1,,,69,0
55140,control_change,0,0,2,,,,,,,,,1,64,0,,
55140,note_on,60,0,1,,,,,,,,,0,,,81,0
55140,control_change,0,0,1,,,,,,,,,0,64,0,,
55140,note_on,0,0,1,,,,,,,,,0,,,83,62
55140,note_on,0,0,2,,,,,,,,,1,,,71,62
55200,note_on,0,0,4,,,,,,,,,3,,,52,62
55200,note_on,60,0,2,,,,,,,,,1,,,71,0
55200,note_on,0,0,4,,,,,,,,,3,,,56,62
55200,note_on,120,0,4,,,,,,,,,3,,,47,0
55200,note_on,0,0,3,,,,,,,,,2,,,64,62
55200,note_on,0,0,2,,,,,,,,,1,,,68,62
55200,note_on,60,0,1,,,,,,,,,0,,,83,0
55200,note_on,81,0,3,,,,,,,,,2,,,66,0
55200,note_on,0,0,1,,,,,,,,,0,,,80,62
55223,note_on,23,0,1,,,,,,,,,0,,,80,0
55223,note_on,23,0,2,,,,,,,,,1,,,68,0
55440,control_change,0,0,3,,,,,,,,,2,64,127,,
55440,note_on,240,0,3,,,,,,,,,2,,,64,0
55440,note_on,0,0,3,,,,,,,,,2,,,68,62
55440,note_on,0,0,2,,,,,,,,,1,,,71,75
55440,control_change,217,0,2,,,,,,,,,1,64,127,,
55440,note_on,217,0,1,,,,,,,,,0,,,83,62
55440,note_on,240,0,4,,,,,,,,,3,,,56,0
55440,note_on,0,0,4,,,,,,,,,3,,,52,0
55520,note_on,80,0,1,,,,,,,,,0,,,83,0
55520,note_on,0,0,1,,,,,,,,,0,,,81,62
55560,note_on,120,0,3,,,,,,,,,2,,,68,0
55560,note_on,0,0,3,,,,,,,,,2,,,59,62
55599,note_on,79,0,1,,,,,,,,,0,,,81,0
55599,note_on,0,0,1,,,,,,,,,0,,,80,62
55680,note_on,120,0,3,,,,,,,,,2,,,59,0
55680,note_on,0,0,3,,,,,,,,,2,,,66,62
55680,note_on,0,0,1,,,,,,,,,0,,,81,62
55680,note_on,81,0,1,,,,,,,,,0,,,80,0
55800,control_change,0,0,3,,,,,,,,,2,64,0,,
55800,note_on,120,0,3,,,,,,,,,2,,,66,0
55800,note_on,0,0,3,,,,,,,,,2,,,59,62
55920,note_on,120,0,3,,,,,,,,,2,,,59,0
55920,note_on,0,0,3,,,,,,,,,2,,,59,62
55920,note_on,240,0,1,,,,,,,,,0,,,81,0
55920,control_change,0,0,1,,,,,,,,,0,64,127,,
55920,note_on,0,0,1,,,,,,,,,0,,,81,62
55920,note_on,480,0,2,,,,,,,,,1,,,71,0
55920,note_on,0,0,2,,,,,,,,,1,,,73,75
55935,note_on,15,0,3,,,,,,,,,2,,,59,0
56000,note_on,0,0,1,,,,,,,,,0,,,80,62
56000,note_on,80,0,1,,,,,,,,,0,,,81,0
56040,note_on,120,0,2,,,,,,,,,1,,,73,0
56040,note_on,0,0,2,,,,,,,,,1,,,75,75
56040,note_on,105,0,3,,,,,,,,,2,,,59,62
56055,note_on,15,0,3,,,,,,,,,2,,,59,0
56079,note_on,0,0,1,,,,,,,,,0,,,78,62
56079,note_on,79,0,1,,,,,,,,,0,,,80,0
56160,control_change,0,0,1,,,,,,,,,0,64,0,,
56160,note_on,0,0,1,,,,,,,,,0,,,80,62
56160,note_on,81,0,1,,,,,,,,,0,,,78,0
56160,note_on,105,0,3,,,,,,,,,2,,,64,62
56160,note_on,120,0,2,,,,,,,,,1,,,75,0
56160,note_on,0,0,2,,,,,,,,,1,,,76,75
56280,note_on,0,0,3,,,,,,,,,2,,,59,62
56280,note_on,120,0,3,,,,,,,,,2,,,64,0
56400,note_on,240,0,2,,,,,,,,,1,,,76,0
56400,control_change,0,0,1,,,,,,,,,0,64,127,,
56400,note_on,0,0,3,,,,,,,,,2,,,59,62
56400,note_on,120,0,3,,,,,,,,,2,,,59,0
56400,note_on,240,0,1,,,,,,,,,0,,,80,0
56400,note_on,0,0,2,,,,,,,,,1,,,68,75
56400,note_on,0,0,1,,,,,,,,,0,,,76,62
56415,note_on,15,0,3,,,,,,,,,2,,,59,0
56480,note_on,0,0,1,,,,,,,,,0,,,78,62
56480,note_on,80,0,1,,,,,,,,,0,,,76,0
56520,note_on,105,0,3,,,,,,,,,2,,,59,62
56535,note_on,15,0,3,,,,,,,,,2,,,59,0
56559,note_on,79,0,1,,,,,,,,,0,,,78,0
56559,note_on,0,0,1,,,,,,,,,0,,,80,62
56640,note_on,0,0,2,,,,,,,,,1,,,71,101
56640,note_on,0,0,3,,,,,,,,,2,,,69,62
56640,control_change,105,0,3,,,,,,,,,2,64,127,,
56640,note_on,81,0,1,,,,,,,,,0,,,80,0
56640,note_on,0,0,1,,,,,,,,,0,,,78,62
56640,note_on,240,0,2,,,,,,,,,1,,,68,0
56720,note_on,80,0,1,,,,,,,,,0,,,78,0
56720,note_on,0,0,1,,,,,,,,,0,,,76,62
56760,note_on,0,0,3,,,,,,,,,2,,,59,62
56760,note_on,120,0,3,,,,,,,,,2,,,69,0
56799,note_on,79,0,1,,,,,,,,,0,,,76,0
56799,note_on,0,0,1,,,,,,,,,0,,,75,62
56880,note_on,0,0,3,,,,,,,,,2,,,63,62
56880,note_on,120,0,3,,,,,,,,,2,,,59,0
56880,note_on,0,0,1,,,,,,,,,0,,,73,62
56880,note_on,81,0,1,,,,,,,,,0,,,75,0
56880,note_on,240,0,2,,,,,,,,,1,,,71,0
56880,note_on,0,0,2,,,,,,,,,1,,,69,75
56960,note_on,0,0,1,,,,,,,,,0,,,71,62
56960,note_on,80,0,1,,,,,,,,,0,,,73,0
57000,note_on,0,0,3,,,,,,,,,2,,,59,62
57000,note_on,120,0,3,,,,,,,,,2,,,63,0
57000,note_on,120,0,2,,,,,,,,,1,,,69,0
57000,note_on,0,0,2,,,,,,,,,1,,,66,75
57039,note_on,79,0,1,,,,,,,,,0,,,71,0
57039,note_on,0,0,1,,,,,,,,,0,,,69,62
57120,note_on,0,0,3,,,,,,,,,2,,,64,62
57120,note_on,120,0,3,,,,,,,,,2,,,59,0
57120,control_change,0,0,2,,,,,,,,,1,64,0,,
57120,note_on,0,0,1,,,,,,,,,0,,,67,62
57120,note_on,81,0,1,,,,,,,,,0,,,69,0
57120,note_on,0,0,2,,,,,,,,,1,,,64,75
57120,note_on,120,0,2,,,,,,,,,1,,,66,0
57143,note_on,23,0,2,,,,,,,,,1,,,64,0
57240,note_on,0,0,1,,,,,,,,,0,,,68,62
57240,control_change,0,0,1,,,,,,,,,0,64,0,,
57240,note_on,120,0,1,,,,,,,,,0,,,67,0
57240,note_on,120,0,3,,,,,,,,,2,,,64,0
57240,control_change,0,0,3,,,,,,,,,2,64,0,,
57240,note_on,0,0,3,,,,,,,,,2,,,59,62
57360,control_change,1920,0,4,,,,,,,,,3,64,127,,
57360,note_on,0,0,4,,,,,,,,,3,,,56,62
57360,note_on,120,0,3,,,,,,,,,2,,,59,0
57360,note_on,0,0,2,,,,,,,,,1,,,71,75
57360,note_on,0,0,3,,,,,,,,,2,,,59,62
57360,note_on,0,0,1,,,,,,,,,0,,,95,62
57360,control_change,0,0,1,,,,,,,,,0,64,127,,
57360,control_change,217,0,2,,,,,,,,,1,64,127,,
57360,note_on,120,0,1,,,,,,,,,0,,,68,0
57360,control_change,0,0,3,,,,,,,,,2,64,127,,
57440,note_on,0,0,1,,,,,,,,,0,,,93,62
57440,note_on,80,0,1,,,,,,,,,0,,,95,0
57480,note_on,120,0,4,,,,,,,,,3,,,56,0
57480,note_on,0,0,4,,,,,,,,,3,,,47,62
57519,note_on,79,0,1,,,,,,,,,0,,,93,0
57519,note_on,0,0,1,,,,,,,,,0,,,92,62
57600,note_on,0,0,1,,,,,,,,,0,,,93,62
57600,note_on,120,0,4,,,,,,,,,3,,,47,0
57600,note_on,0,0,4,,,,,,,,,3,,,54,62
57600,note_on,81,0,1,,,,,,,,,0,,,92,0
57600,control_change,0,0,1,,,,,,,,,0,64,0,,
57720,control_change,0,0,4,,,,,,,,,3,64,0,,
57720,note_on,0,0,4,,,,,,,,,3,,,47,62
57720,note_on,120,0,4,,,,,,,,,3,,,54,0
57840,note_on,120,0,4,,,,,,,,,3,,,47,0
57840,note_on,0,0,4,,,,,,,,,3,,,47,62
57840,note_on,240,0,1,,,,,,,,,0,,,93,0
57840,note_on,0,0,1,,,,,,,,,0,,,93,62
57840,note_on,480,0,3,,,,,,,,,2,,,59,0
57840,note_on,0,0,3,,,,,,,,,2,,,61,62
57840,control_change,0,0,1,,,,,,,,,0,64,127,,
57840,note_on,480,0,2,,,,,,,,,1,,,71,0
57840,note_on,0,0,2,,,,,,,,,1,,,73,75
57855,note_on,15,0,4,,,,,,,,,3,,,47,0
57920,note_on,80,0,1,,,,,,,,,0,,,93,0
57920,note_on,0,0,1,,,,,,,,,0,,,92,62
57960,note_on,0,0,3,,,,,,,,,2,,,63,62
57960,note_on,105,0,4,,,,,,,,,3,,,47,62
57960,note_on,120,0,3,,,,,,,,,2,,,61,0
57960,note_on,0,0,2,,,,,,,,,1,,,75,75
57960,note_on,120,0,2,,,,,,,,,1,,,73,0
57975,note_on,15,0,4,,,,,,,,,3,,,47,0
57999,note_on,79,0,1,,,,,,,,,0,,,92,0
57999,note_on,0,0,1,,,,,,,,,0,,,90,62
58080,control_change,105,0,4,,,,,,,,,3,64,127,,
58080,note_on,120,0,3,,,,,,,,,2,,,63,0
58080,note_on,0,0,1,,,,,,,,,0,,,92,62
58080,control_change,0,0,1,,,,,,,,,0,64,0,,
58080,note_on,0,0,3,,,,,,,,,2,,,64,62
58080,note_on,0,0,4,,,,,,,,,3,,,52,62
58080,note_on,81,0,1,,,,,,,,,0,,,90,0
58080,note_on,120,0,2,,,,,,,,,1,,,75,0
58080,note_on,0,0,2,,,,,,,,,1,,,76,75
58200,note_on,0,0,4,,,,,,,,,3,,,47,62
58200,note_on,120,0,4,,,,,,,,,3,,,52,0
58320,note_on,240,0,2,,,,,,,,,1,,,76,0
58320,note_on,0,0,4,,,,,,,,,3,,,52,62
58320,note_on,120,0,4,,,,,,,,,3,,,47,0
58320,note_on,0,0,3,,,,,,,,,2,,,68,62
58320,note_on,240,0,3,,,,,,,,,2,,,64,0
58320,note_on,240,0,1,,,,,,,,,0,,,92,0
58320,note_on,0,0,2,,,,,,,,,1,,,80,75
58320,note_on,0,0,1,,,,,,,,,0,,,80,62
58320,control_change,0,0,1,,,,,,,,,0,64,127,,
58400,note_on,80,0,1,,,,,,,,,0,,,80,0
58400,note_on,0,0,1,,,,,,,,,0,,,81,62
58440,note_on,0,0,4,,,,,,,,,3,,,56,62
58440,note_on,120,0,2,,,,,,,,,1,,,80,0
58440,note_on,120,0,4,,,,,,,,,3,,,52,0
58440,note_on,0,0,2,,,,,,,,,1,,,76,75
58440,note_on,120,0,3,,,,,,,,,2,,,68,0
58440,note_on,0,0,3,,,,,,,,,2,,,64,62
58479,note_on,0,0,1,,,,,,,,,0,,,83,62
58479,note_on,79,0,1,,,,,,,,,0,,,81,0
58560,note_on,81,0,1,,,,,,,,,0,,,83,0
58560,note_on,0,0,2,,,,,,,,,1,,,71,75
58560,note_on,120,0,2,,,,,,,,,1,,,76,0
58560,note_on,0,0,3,,,,,,,,,2,,,61,88
58560,note_on,0,0,4,,,,,,,,,3,,,54,62
58560,note_on,120,0,4,,,,,,,,,3,,,56,0
58560,note_on,0,0,1,,,,,,,,,0,,,85,62
58560,note_on,120,0,3,,,,,,,,,2,,,64,0
58640,note_on,0,0,1,,,,,,,,,0,,,87,62
58640,note_on,80,0,1,,,,,,,,,0,,,85,0
58680,note_on,120,0,4,,,,,,,,,3,,,54,0
58680,note_on,0,0,4,,,,,,,,,3,,,47,62
58719,note_on,0,0,1,,,,,,,,,0,,,88,62
58719,note_on,79,0,1,,,,,,,,,0,,,87,0
58800,note_on,120,0,4,,,,,,,,,3,,,47,0
58800,note_on,0,0,4,,,,,,,,,3,,,59,62
58800,note_on,0,0,1,,,,,,,,,0,,,87,62
58800,note_on,81,0,1,,,,,,,,,0,,,88,0
58800,note_on,240,0,2,,,,,,,,,1,,,71,0
58800,note_on,0,0,2,,,,,,,,,1,,,69,75
58800,note_on,0,0,3,,,,,,,,,2,,,63,62
58800,control_change,0,0,3,,,,,,,,,2,64,0,,
58800,note_on,240,0,3,,,,,,,,,2,,,61,0
58860,note_on,0,0,2,,,,,,,,,1,,,71,75
58860,note_on,60,0,2,,,,,,,,,1,,,69,0
58880,note_on,80,0,1,,,,,,,,,0,,,87,0
58880,note_on,0,0,1,,,,,,,,,0,,,88,62
58920,note_on,60,0,2,,,,,,,,,1,,,71,0
58920,note_on,0,0,4,,,,,,,,,3,,,47,62
58920,control_change,0,0,4,,,,,,,,,3,64,0,,
58920,note_on,120,0,4,,,,,,,,,3,,,59,0
58920,note_on,0,0,2,,,,,,,,,1,,,69,75
58959,control_change,0,0,1,,,,,,,,,0,64,0,,
58959,note_on,79,0,1,,,,,,,,,0,,,88,0
58959,note_on,0,0,1,,,,,,,,,0,,,90,62
58980,note_on,60,0,2,,,,,,,,,1,,,69,0
58980,note_on,0,0,2,,,,,,,,,1,,,71,75
59040,note_on,0,0,1,,,,,,,,,0,,,88,62
59040,note_on,60,0,2,,,,,,,,,1,,,71,0
59040,control_change,0,0,2,,,,,,,,,1,64,0,,
59040,note_on,0,0,2,,,,,,,,,1,,,68,75
59040,note_on,81,0,1,,,,,,,,,0,,,90,0
59040,note_on,0,0,4,,,,,,,,,3,,,52,62
59040,note_on,120,0,4,,,,,,,,,3,,,47,0
59040,control_change,0,0,3,,,,,,,,,2,64,127,,
59040,note_on,240,0,3,,,,,,,,,2,,,63,0
59040,note_on,0,0,3,,,,,,,,,2,,,64,62
59063,note_on,23,0,2,,,,,,,,,1,,,68,0
59160,note_on,120,0,3,,,,,,,,,2,,,64,0
59160,note_on,0,0,3,,,,,,,,,2,,,59,62
59280,note_on,0,0,1,,,,,,,,,0,,,81,88
59280,note_on,0,0,1,,,,,,,,,0,,,76,88
59280,note_on,0,0,4,,,,,,,,,3,,,49,88
59280,note_on,0,0,4,,,,,,,,,3,,,37,88
59280,note_on,240,0,1,,,,,,,,,0,,,88,0
59280,note_on,0,0,3,,,,,,,,,2,,,52,88
59280,note_on,217,0,2,,,,,,,,,1,,,64,88
59280,note_on,0,0,2,,,,,,,,,1,,,69,88
59280,note_on,120,0,3,,,,,,,,,2,,,59,0
59280,note_on,240,0,4,,,,,,,,,3,,,52,0
59400,note_on,0,0,3,,,,,,,,,2,,,54,62
59400,note_on,120,0,3,,,,,,,,,2,,,52,0
59520,note_on,120,0,3,,,,,,,,,2,,,54,0
59520,note_on,0,0,3,,,,,,,,,2,,,56,62
59640,note_on,120,0,3,,,,,,,,,2,,,56,0
59640,note_on,0,0,3,,,,,,,,,2,,,57,62
59760,note_on,0,0,4,,,,,,,,,3,,,47,62
59760,note_on,0,0,4,,,,,,,,,3,,,35,62
59760,note_on,0,0,4,,,,,,,,,3,,,37,0
59760,note_on,480,0,4,,,,,,,,,3,,,49,0
59760,note_on,0,0,1,,,,,,,,,0,,,80,62
59760,note_on,0,0,1,,,,,,,,,0,,,76,62
59760,note_on,0,0,1,,,,,,,,,0,,,76,0
59760,note_on,480,0,1,,,,,,,,,0,,,81,0
59760,note_on,0,0,2,,,,,,,,,1,,,64,0
59760,note_on,120,0,3,,,,,,,,,2,,,57,0
59760,note_on,0,0,3,,,,,,,,,2,,,59,62
59760,note_on,0,0,2,,,,,,,,,1,,,71,62
59760,note_on,0,0,2,,,,,,,,,1,,,68,62
59760,note_on,0,0,2,,,,,,,,,1,,,64,62
59760,note_on,480,0,2,,,,,,,,,1,,,69,0
59880,note_on,0,0,3,,,,,,,,,2,,,60,62
59880,note_on,120,0,3,,,,,,,,,2,,,59,0
59880,control_change,0,0,3,,,,,,,,,2,64,0,,
60000,note_on,240,0,1,,,,,,,,,0,,,80,0
60000,note_on,0,0,1,,,,,,,,,0,,,76,0
60000,note_on,0,0,1,,,,,,,,,0,,,76,62
60000,note_on,0,0,1,,,,,,,,,0,,,80,62
60000,note_on,240,0,2,,,,,,,,,1,,,71,0
60000,note_on,120,0,3,,,,,,,,,2,,,60,0
60000,note_on,240,0,4,,,,,,,,,3,,,47,0
60000,note_on,0,0,4,,,,,,,,,3,,,45,62
60000,note_on,0,0,3,,,,,,,,,2,,,61,62
60000,note_on,0,0,4,,,,,,,,,3,,,35,0
60000,note_on,0,0,2,,,,,,,,,1,,,73,62
60000,note_on,0,0,4,,,,,,,,,3,,,33,62
60000,note_on,0,0,2,,,,,,,,,1,,,64,62
60000,note_on,0,0,2,,,,,,,,,1,,,64,0
60000,note_on,0,0,2,,,,,,,,,1,,,68,0
60000,note_on,0,0,2,,,,,,,,,1,,,68,62
60120,note_on,120,0,3,,,,,,,,,2,,,61,0
60120,note_on,0,0,3,,,,,,,,,2,,,49,62
60240,note_on,240,0,2,,,,,,,,,1,,,68,0
60240,note_on,0,0,2,,,,,,,,,1,,,66,62
60240,note_on,240,0,1,,,,,,,,,0,,,80,0
60240,note_on,0,0,3,,,,,,,,,2,,,54,62
60240,note_on,120,0,3,,,,,,,,,2,,,49,0
60240,note_on,0,0,1,,,,,,,,,0,,,78,62
60360,note_on,0,0,1,,,,,,,,,0,,,76,0
60360,note_on,120,0,1,,,,,,,,,0,,,78,0
60360,note_on,120,0,3,,,,,,,,,2,,,54,0
60360,note_on,0,0,3,,,,,,,,,2,,,61,62
60360,note_on,0,0,1,,,,,,,,,0,,,78,62
60360,note_on,120,0,2,,,,,,,,,1,,,66,0
60360,note_on,0,0,2,,,,,,,,,1,,,73,0
60360,note_on,0,0,2,,,,,,,,,1,,,64,0
60360,note_on,0,0,2,,,,,,,,,1,,,66,62
60360,control_change,0,0,1,,,,,,,,,0,64,127,,
60480,note_on,120,0,1,,,,,,,,,0,,,78,0
60480,note_on,120,0,3,,,,,,,,,2,,,61,0
60480,note_on,120,0,2,,,,,,,,,1,,,66,0
60480,note_on,0,0,4,,,,,,,,,3,,,46,62
60480,note_on,0,0,2,,,,,,,,,1,,,68,62
60480,note_on,480,0,4,,,,,,,,,3,,,45,0
60480,note_on,0,0,4,,,,,,,,,3,,,33,0
60480,note_on,0,0,1,,,,,,,,,0,,,80,62
60480,note_on,0,0,4,,,,,,,,,3,,,34,62
60540,note_on,0,0,1,,,,,,,,,0,,,78,62
60540,note_on,60,0,1,,,,,,,,,0,,,80,0
60540,note_on,0,0,2,,,,,,,,,1,,,66,62
60540,note_on,60,0,2,,,,,,,,,1,,,68,0
60600,note_on,0,0,1,,,,,,,,,0,,,76,62
60600,note_on,60,0,1,,,,,,,,,0,,,78,0
60600,note_on,120,0,3,,,,,,,,,2,,,56,62
60600,note_on,60,0,2,,,,,,,,,1,,,66,0
60600,note_on,0,0,2,,,,,,,,,1,,,64,62
60660,note_on,60,0,2,,,,,,,,,1,,,64,0
60660,note_on,0,0,2,,,,,,,,,1,,,66,62
60660,note_on,60,0,1,,,,,,,,,0,,,76,0
60660,note_on,0,0,1,,,,,,,,,0,,,78,62
60720,note_on,0,0,1,,,,,,,,,0,,,80,62
60720,note_on,60,0,2,,,,,,,,,1,,,66,0
60720,note_on,120,0,3,,,,,,,,,2,,,56,0
60720,note_on,0,0,3,,,,,,,,,2,,,52,62
60720,note_on,0,0,2,,,,,,,,,1,,,68,62
60720,note_on,60,0,1,,,,,,,,,0,,,78,0
60840,note_on,120,0,1,,,,,,,,,0,,,80,0
60840,note_on,120,0,3,,,,,,,,,2,,,52,0
60840,note_on,0,0,1,,,,,,,,,0,,,76,62
60840,note_on,120,0,2,,,,,,,,,1,,,68,0
60840,control_change,0,0,2,,,,,,,,,1,64,0,,
60840,note_on,0,0,2,,,,,,,,,1,,,64,62
60840,note_on,0,0,3,,,,,,,,,2,,,61,62
60840,control_change,0,0,1,,,,,,,,,0,64,0,,
60960,note_on,480,0,4,,,,,,,,,3,,,46,0
60960,note_on,120,0,2,,,,,,,,,1,,,64,0
60960,note_on,120,0,3,,,,,,,,,2,,,61,0
60960,control_change,0,0,3,,,,,,,,,2,64,127,,
60960,note_on,0,0,2,,,,,,,,,1,,,68,62
60960,note_on,0,0,2,,,,,,,,,1,,,64,62
60960,note_on,0,0,1,,,,,,,,,0,,,80,62
60960,note_on,0,0,1,,,,,,,,,0,,,76,62
60960,note_on,120,0,1,,,,,,,,,0,,,76,0
60960,note_on,0,0,4,,,,,,,,,3,,,47,62
60960,note_on,0,0,4,,,,,,,,,3,,,35,62
60960,note_on,0,0,4,,,,,,,,,3,,,34,0
60960,note_on,0,0,3,,,,,,,,,2,,,59,62
61080,note_on,120,0,3,,,,,,,,,2,,,59,0
61080,note_on,0,0,3,,,,,,,,,2,,,56,62
61200,note_on,0,0,3,,,,,,,,,2,,,57,62
61200,note_on,120,0,3,,,,,,,,,2,,,56,0
61320,note_on,120,0,3,,,,,,,,,2,,,57,0
61320,note_on,0,0,3,,,,,,,,,2,,,58,62
61440,note_on,120,0,3,,,,,,,,,2,,,58,0
61440,note_on,0,0,3,,,,,,,,,2,,,59,62
61440,note_on,0,0,2,,,,,,,,,1,,,66,62
61440,note_on,0,0,2,,,,,,,,,1,,,64,0
61440,note_on,0,0,2,,,,,,,,,1,,,63,62
61440,note_on,480,0,1,,,,,,,,,0,,,80,0
61440,note_on,0,0,1,,,,,,,,,0,,,76,0
61440,note_on,0,0,1,,,,,,,,,0,,,75,62
61440,note_on,0,0,1,,,,,,,,,0,,,78,62
61440,note_on,480,0,2,,,,,,,,,1,,,68,0
61560,note_on,0,0,3,,,,,,,,,2,,,51,62
61560,control_change,0,0,3,,,,,,,,,2,64,0,,
61560,note_on,120,0,3,,,,,,,,,2,,,59,0
61680,note_on,0,0,3,,,,,,,,,2,,,52,62
61680,note_on,120,0,3,,,,,,,,,2,,,51,0
61680,note_on,720,0,4,,,,,,,,,3,,,47,0
61680,note_on,0,0,4,,,,,,,,,3,,,35,0
61680,note_on,240,0,1,,,,,,,,,0,,,78,0
61680,note_on,0,0,1,,,,,,,,,0,,,75,0
61680,note_on,0,0,1,,,,,,,,,0,,,74,62
61680,note_on,0,0,4,,,,,,,,,3,,,47,62
61680,note_on,240,0,2,,,,,,,,,1,,,66,0
61680,note_on,0,0,2,,,,,,,,,1,,,63,0
61680,note_on,0,0,2,,,,,,,,,1,,,62,62
61680,note_on,0,0,1,,,,,,,,,0,,,78,62
61680,note_on,0,0,2,,,,,,,,,1,,,66,62
61695,note_on,15,0,3,,,,,,,,,2,,,52,0
61800,note_on,105,0,3,,,,,,,,,2,,,52,62
61815,note_on,15,0,3,,,,,,,,,2,,,52,0
61860,note_on,180,0,1,,,,,,,,,0,,,78,0
61860,note_on,180,0,2,,,,,,,,,1,,,66,0
61860,note_on,0,0,2,,,,,,,,,1,,,68,62
61860,note_on,0,0,1,,,,,,,,,0,,,80,62
61860,note_on,0,0,1,,,,,,,,,0,,,74,0
61860,note_on,0,0,2,,,,,,,,,1,,,62,0
61920,note_on,0,0,4,,,,,,,,,3,,,49,62
61920,note_on,240,0,4,,,,,,,,,3,,,47,0
61920,note_on,105,0,3,,,,,,,,,2,,,52,62
61920,note_on,60,0,1,,,,,,,,,0,,,80,0
61920,note_on,0,0,1,,,,,,,,,0,,,76,62
61920,note_on,0,0,2,,,,,,,,,1,,,64,62
61920,note_on,60,0,2,,,,,,,,,1,,,68,0
62040,note_on,0,0,3,,,,,,,,,2,,,57,62
62040,note_on,120,0,3,,,,,,,,,2,,,52,0
62160,note_on,0,0,3,,,,,,,,,2,,,52,88
62160,note_on,0,0,2,,,,,,,,,1,,,69,88
62160,note_on,0,0,2,,,,,,,,,1,,,64,88
62160,note_on,120,0,3,,,,,,,,,2,,,57,0
62160,note_on,240,0,2,,,,,,,,,1,,,64,0
62160,note_on,0,0,4,,,,,,,,,3,,,37,62
62160,note_on,0,0,4,,,,,,,,,3,,,49,62
62160,note_on,0,0,1,,,,,,,,,0,,,81,88
62160,note_on,0,0,1,,,,,,,,,0,,,76,88
62160,note_on,240,0,1,,,,,,,,,0,,,76,0
62160,note_on,240,0,4,,,,,,,,,3,,,49,0
62280,note_on,0,0,3,,,,,,,,,2,,,54,62
62280,note_on,120,0,3,,,,,,,,,2,,,52,0
62400,note_on,0,0,4,,,,,,,,,3,,,36,62
62400,note_on,240,0,4,,,,,,,,,3,,,49,0
62400,note_on,0,0,4,,,,,,,,,3,,,37,0
62400,note_on,120,0,3,,,,,,,,,2,,,54,0
62400,note_on,0,0,3,,,,,,,,,2,,,56,62
62400,note_on,0,0,4,,,,,,,,,3,,,48,62
62520,note_on,120,0,3,,,,,,,,,2,,,56,0
62520,note_on,0,0,3,,,,,,,,,2,,,57,62
62640,note_on,480,0,2,,,,,,,,,1,,,69,0
62640,note_on,0,0,2,,,,,,,,,1,,,64,0
62640,note_on,0,0,2,,,,,,,,,1,,,68,62
62640,note_on,0,0,2,,,,,,,,,1,,,71,62
62640,note_on,240,0,4,,,,,,,,,3,,,48,0
62640,note_on,0,0,2,,,,,,,,,1,,,64,62
62640,note_on,0,0,4,,,,,,,,,3,,,35,62
62640,note_on,0,0,4,,,,,,,,,3,,,47,62
62640,note_on,0,0,1,,,,,,,,,0,,,80,62
62640,note_on,120,0,3,,,,,,,,,2,,,57,0
62640,note_on,0,0,3,,,,,,,,,2,,,59,62
62640,note_on,0,0,1,,,,,,,,,0,,,76,62
62640,note_on,0,0,1,,,,,,,,,0,,,76,0
62640,note_on,480,0,1,,,,,,,,,0,,,81,0
62640,note_on,0,0,4,,,,,,,,,3,,,36,0
62760,note_on,120,0,3,,,,,,,,,2,,,59,0
62760,note_on,0,0,3,,,,,,,,,2,,,60,62
62880,note_on,240,0,4,,,,,,,,,3,,,47,0
62880,note_on,0,0,1,,,,,,,,,0,,,80,62
62880,note_on,0,0,1,,,,,,,,,0,,,76,62
62880,note_on,0,0,1,,,,,,,,,0,,,76,0
62880,note_on,0,0,4,,,,,,,,,3,,,35,0
62880,note_on,240,0,1,,,,,,,,,0,,,80,0
62880,note_on,240,0,2,,,,,,,,,1,,,71,0
62880,note_on,0,0,3,,,,,,,,,2,,,61,62
62880,note_on,120,0,3,,,,,,,,,2,,,60,0
62880,note_on,0,0,4,,,,,,,,,3,,,33,62
62880,note_on,0,0,2,,,,,,,,,1,,,73,62
62880,note_on,0,0,4,,,,,,,,,3,,,45,62
62880,note_on,0,0,2,,,,,,,,,1,,,64,0
62880,note_on,0,0,2,,,,,,,,,1,,,64,62
62880,note_on,0,0,2,,,,,,,,,1,,,68,0
62880,note_on,0,0,2,,,,,,,,,1,,,68,62
63000,note_on,0,0,3,,,,,,,,,2,,,49,62
63000,note_on,120,0,3,,,,,,,,,2,,,61,0
63120,note_on,0,0,3,,,,,,,,,2,,,54,62
63120,note_on,120,0,3,,,,,,,,,2,,,49,0
63120,note_on,0,0,1,,,,,,,,,0,,,78,62
63120,note_on,0,0,2,,,,,,,,,1,,,66,62
63120,note_on,0,0,2,,,,,,,,,1,,,68,0
63120,note_on,240,0,2,,,,,,,,,1,,,73,0
63120,note_on,240,0,1,,,,,,,,,0,,,80,0
63120,note_on,0,0,1,,,,,,,,,0,,,76,0
63120,note_on,0,0,2,,,,,,,,,1,,,64,0
63240,note_on,0,0,2,,,,,,,,,1,,,66,62
63240,note_on,120,0,2,,,,,,,,,1,,,66,0
63240,note_on,0,0,3,,,,,,,,,2,,,61,62
63240,note_on,120,0,1,,,,,,,,,0,,,78,0
63240,note_on,0,0,1,,,,,,,,,0,,,78,62
63240,note_on,120,0,3,,,,,,,,,2,,,54,0
63360,note_on,0,0,2,,,,,,,,,1,,,68,62
63360,note_on,120,0,1,,,,,,,,,0,,,78,0
63360,note_on,0,0,1,,,,,,,,,0,,,80,62
63360,note_on,120,0,2,,,,,,,,,1,,,66,0
63360,note_on,0,0,4,,,,,,,,,3,,,46,62
63360,note_on,0,0,4,,,,,,,,,3,,,34,62
63360,note_on,0,0,4,,,,,,,,,3,,,33,0
63360,note_on,120,0,3,,,,,,,,,2,,,61,0
63360,note_on,480,0,4,,,,,,,,,3,,,45,0
63420,note_on,0,0,2,,,,,,,,,1,,,66,62
63420,note_on,60,0,2,,,,,,,,,1,,,68,0
63420,note_on,60,0,1,,,,,,,,,0,,,80,0
63420,note_on,0,0,1,,,,,,,,,0,,,78,62
63480,note_on,0,0,1,,,,,,,,,0,,,76,62
63480,note_on,60,0,2,,,,,,,,,1,,,66,0
63480,note_on,0,0,2,,,,,,,,,1,,,64,62
63480,note_on,120,0,3,,,,,,,,,2,,,56,62
63480,note_on,60,0,1,,,,,,,,,0,,,78,0
63540,note_on,0,0,1,,,,,,,,,0,,,78,62
63540,note_on,60,0,2,,,,,,,,,1,,,64,0
63540,note_on,60,0,1,,,,,,,,,0,,,76,0
63540,note_on,0,0,2,,,,,,,,,1,,,66,62
63600,note_on,0,0,2,,,,,,,,,1,,,68,62
63600,note_on,0,0,3,,,,,,,,,2,,,52,62
63600,note_on,120,0,3,,,,,,,,,2,,,56,0
63600,note_on,60,0,1,,,,,,,,,0,,,78,0
63600,note_on,0,0,1,,,,,,,,,0,,,80,62
63600,note_on,60,0,2,,,,,,,,,1,,,66,0
63720,note_on,120,0,2,,,,,,,,,1,,,68,0
63720,note_on,0,0,2,,,,,,,,,1,,,64,62
63720,note_on,0,0,1,,,,,,,,,0,,,76,62
63720,note_on,0,0,3,,,,,,,,,2,,,61,62
63720,note_on,120,0,1,,,,,,,,,0,,,80,0
63720,note_on,120,0,3,,,,,,,,,2,,,52,0
63840,note_on,120,0,3,,,,,,,,,2,,,61,0
63840,note_on,120,0,2,,,,,,,,,1,,,64,0
63840,note_on,0,0,4,,,,,,,,,3,,,47,62
63840,note_on,0,0,4,,,,,,,,,3,,,35,62
63840,note_on,0,0,4,,,,,,,,,3,,,34,0
63840,set_tempo,40320,1,0,,,,,,1200000,,,,,,,
63840,note_on,0,0,1,,,,,,,,,0,,,80,62
63840,note_on,0,0,1,,,,,,,,,0,,,68,62
63840,note_on,120,0,1,,,,,,,,,0,,,76,0
63840,note_on,480,0,4,,,,,,,,,3,,,46,0
63920,note_on,80,0,3,,,,,,,,,2,,,52,62
63999,note_on,79,0,3,,,,,,,,,2,,,52,0
63999,note_on,0,0,3,,,,,,,,,2,,,56,62
64080,note_on,0,0,3,,,,,,,,,2,,,59,62
64080,note_on,0,0,2,,,,,,,,,1,,,71,62
64080,note_on,81,0,3,,,,,,,,,2,,,56,0
64080,note_on,240,0,2,,,,,,,,,1,,,64,62
64160,note_on,0,0,3,,,,,,,,,2,,,61,62
64160,note_on,80,0,3,,,,,,,,,2,,,59,0
64239,note_on,0,0,3,,,,,,,,,2,,,59,62
64239,note_on,79,0,3,,,,,,,,,2,,,61,0
64320,note_on,0,0,2,,,,,,,,,1,,,61,62
64320,note_on,0,0,3,,,,,,,,,2,,,58,62
64320,note_on,81,0,3,,,,,,,,,2,,,59,0
64320,note_on,0,0,2,,,,,,,,,1,,,64,0
64320,note_on,240,0,2,,,,,,,,,1,,,71,0
64320,note_on,0,0,2,,,,,,,,,1,,,73,62
64400,note_on,80,0,3,,,,,,,,,2,,,58,0
64400,note_on,0,0,3,,,,,,,,,2,,,59,62
64479,note_on,0,0,3,,,,,,,,,2,,,58,62
64479,note_on,79,0,3,,,,,,,,,2,,,59,0
64560,note_on,720,0,1,,,,,,,,,0,,,80,0
64560,note_on,0,0,1,,,,,,,,,0,,,75,62
64560,note_on,0,0,1,,,,,,,,,0,,,78,62
64560,note_on,0,0,2,,,,,,,,,1,,,66,62
64560,note_on,0,0,3,,,,,,,,,2,,,57,62
64560,note_on,0,0,2,,,,,,,,,1,,,63,62
64560,note_on,0,0,2,,,,,,,,,1,,,61,0
64560,note_on,240,0,2,,,,,,,,,1,,,73,0
64560,note_on,0,0,1,,,,,,,,,0,,,68,0
64560,note_on,81,0,3,,,,,,,,,2,,,58,0
64640,note_on,80,0,3,,,,,,,,,2,,,57,0
64640,note_on,0,0,3,,,,,,,,,2,,,59,62
64719,note_on,79,0,3,,,,,,,,,2,,,59,0
64719,note_on,0,0,3,,,,,,,,,2,,,57,62
64800,note_on,0,0,1,,,,,,,,,0,,,75,0
64800,note_on,0,0,4,,,,,,,,,3,,,35,0
64800,note_on,960,0,4,,,,,,,,,3,,,47,0
64800,note_on,0,0,1,,,,,,,,,0,,,76,62
64800,note_on,240,0,1,,,,,,,,,0,,,78,0
64800,note_on,240,0,2,,,,,,,,,1,,,66,0
64800,note_on,0,0,2,,,,,,,,,1,,,63,0
64800,note_on,0,0,2,,,,,,,,,1,,,64,62
64800,note_on,0,0,3,,,,,,,,,2,,,56,62
64800,note_on,81,0,3,,,,,,,,,2,,,57,0
64800,control_change,0,0,4,,,,,,,,,3,64,127,,
64800,note_on,0,0,4,,,,,,,,,3,,,52,62
64920,note_on,0,0,4,,,,,,,,,3,,,49,62
64920,note_on,120,0,4,,,,,,,,,3,,,52,0
65040,note_on,120,0,4,,,,,,,,,3,,,49,0
65040,note_on,0,0,4,,,,,,,,,3,,,47,62
65160,note_on,0,0,4,,,,,,,,,3,,,46,62
65160,note_on,120,0,4,,,,,,,,,3,,,47,0
65280,note_on,480,0,1,,,,,,,,,0,,,76,0
65280,note_on,480,0,2,,,,,,,,,1,,,64,0
65280,note_on,480,0,3,,,,,,,,,2,,,56,0
65280,note_on,0,0,4,,,,,,,,,3,,,47,62
65280,note_on,120,0,4,,,,,,,,,3,,,46,0
65400,note_on,120,0,4,,,,,,,,,3,,,47,0
65400,note_on,0,0,4,,,,,,,,,3,,,45,62
65520,note_on,0,0,2,,,,,,,,,1,,,68,62
65520,note_on,240,0,3,,,,,,,,,2,,,59,62
65520,note_on,0,0,2,,,,,,,,,1,,,64,62
65520,note_on,120,0,4,,,,,,,,,3,,,45,0
65520,note_on,0,0,4,,,,,,,,,3,,,44,62
65520,control_change,240,0,2,,,,,,,,,1,64,127,,
65520,set_tempo,1680,1,0,,,,,,1000000,,,,,,,
65640,note_on,0,0,4,,,,,,,,,3,,,42,62
65640,note_on,0,0,2,,,,,,,,,1,,,69,62
65640,control_change,0,0,4,,,,,,,,,3,64,0,,
65640,note_on,0,0,2,,,,,,,,,1,,,64,0
65640,note_on,120,0,2,,,,,,,,,1,,,68,0
65640,note_on,0,0,2,,,,,,,,,1,,,66,62
65640,note_on,120,0,4,,,,,,,,,3,,,44,0
65760,note_on,0,0,4,,,,,,,,,3,,,40,62
65760,control_change,0,0,4,,,,,,,,,3,64,127,,
65760,note_on,120,0,4,,,,,,,,,3,,,42,0
65760,note_on,120,0,2,,,,,,,,,1,,,69,0
65760,note_on,0,0,2,,,,,,,,,1,,,66,0
65760,note_on,0,0,2,,,,,,,,,1,,,68,62
65760,note_on,0,0,2,,,,,,,,,1,,,71,62
65760,note_on,0,0,3,,,,,,,,,2,,,59,62
65760,note_on,240,0,3,,,,,,,,,2,,,59,0
66000,note_on,0,0,4,,,,,,,,,3,,,44,62
66000,note_on,240,0,2,,,,,,,,,1,,,71,0
66000,note_on,0,0,2,,,,,,,,,1,,,69,62
66000,note_on,0,0,2,,,,,,,,,1,,,66,62
66000,note_on,0,0,2,,,,,,,,,1,,,68,0
66000,note_on,240,0,4,,,,,,,,,3,,,40,0
66120,note_on,0,0,2,,,,,,,,,1,,,66,0
66120,note_on,0,0,2,,,,,,,,,1,,,64,62
66120,note_on,0,0,2,,,,,,,,,1,,,68,62
66120,note_on,120,0,2,,,,,,,,,1,,,69,0
66240,note_on,240,0,4,,,,,,,,,3,,,44,0
66240,note_on,0,0,4,,,,,,,,,3,,,47,62
66240,note_on,480,0,3,,,,,,,,,2,,,59,0
66240,note_on,0,0,3,,,,,,,,,2,,,59,62
66240,note_on,0,0,2,,,,,,,,,1,,,66,62
66240,note_on,120,0,2,,,,,,,,,1,,,68,0
66240,note_on,0,0,2,,,,,,,,,1,,,64,0
66240,note_on,0,0,2,,,,,,,,,1,,,63,62
66480,note_on,0,0,3,,,,,,,,,2,,,59,62
66480,note_on,240,0,3,,,,,,,,,2,,,59,0
66480,note_on,0,0,2,,,,,,,,,1,,,68,62
66480,note_on,0,0,4,,,,,,,,,3,,,45,62
66480,note_on,240,0,4,,,,,,,,,3,,,47,0
66480,note_on,0,0,2,,,,,,,,,1,,,65,62
66480,note_on,0,0,2,,,,,,,,,1,,,63,0
66480,note_on,240,0,2,,,,,,,,,1,,,66,0
66600,note_on,120,0,4,,,,,,,,,3,,,45,0
66600,control_change,0,0,4,,,,,,,,,3,64,0,,
66600,note_on,0,0,4,,,,,,,,,3,,,44,62
66720,note_on,240,0,2,,,,,,,,,1,,,68,0
66720,note_on,240,0,3,,,,,,,,,2,,,59,0
66720,note_on,0,0,3,,,,,,,,,2,,,61,62
66720,note_on,0,0,2,,,,,,,,,1,,,65,0
66720,note_on,0,0,2,,,,,,,,,1,,,66,62
66720,note_on,0,0,4,,,,,,,,,3,,,42,62
66720,note_on,120,0,4,,,,,,,,,3,,,44,0
66720,note_on,0,0,2,,,,,,,,,1,,,69,62
67200,note_on,0,0,2,,,,,,,,,1,,,68,88
67200,note_on,0,0,2,,,,,,,,,1,,,65,88
67200,note_on,0,0,3,,,,,,,,,2,,,61,88
67200,note_on,480,0,3,,,,,,,,,2,,,61,0
67200,note_on,0,0,4,,,,,,,,,3,,,49,88
67200,note_on,480,0,4,,,,,,,,,3,,,42,0
67200,note_on,0,0,2,,,,,,,,,1,,,66,0
67200,note_on,480,0,2,,,,,,,,,1,,,69,0
67200,control_change,0,0,2,,,,,,,,,1,64,0,,
67680,note_on,480,0,4,,,,,,,,,3,,,49,0
67680,note_on,0,0,3,,,,,,,,,2,,,61,62
67680,note_on,480,0,3,,,,,,,,,2,,,61,0
67680,control_change,0,0,2,,,,,,,,,1,64,127,,
67680,note_on,0,0,2,,,,,,,,,1,,,66,62
67680,control_change,0,0,4,,,,,,,,,3,64,127,,
67680,note_on,0,0,2,,,,,,,,,1,,,69,62
67680,note_on,480,0,2,,,,,,,,,1,,,68,0
67680,note_on,0,0,2,,,,,,,,,1,,,65,0
67680,note_on,0,0,4,,,,,,,,,3,,,42,62
67800,note_on,0,0,4,,,,,,,,,3,,,44,62
67800,note_on,120,0,4,,,,,,,,,3,,,42,0
67920,note_on,0,0,2,,,,,,,,,1,,,73,62
67920,note_on,240,0,2,,,,,,,,,1,,,69,0
67920,note_on,0,0,4,,,,,,,,,3,,,45,62
67920,note_on,120,0,4,,,,,,,,,3,,,44,0
67920,note_on,0,0,2,,,,,,,,,1,,,66,62
67920,note_on,0,0,2,,,,,,,,,1,,,66,0
68040,note_on,120,0,4,,,,,,,,,3,,,45,0
68040,note_on,0,0,4,,,,,,,,,3,,,47,62
68040,note_on,0,0,2,,,,,,,,,1,,,71,62
68040,note_on,360,0,3,,,,,,,,,2,,,61,0
68040,note_on,0,0,2,,,,,,,,,1,,,66,0
68040,note_on,120,0,2,,,,,,,,,1,,,73,0
68040,note_on,0,0,3,,,,,,,,,2,,,62,62
68040,note_on,0,0,2,,,,,,,,,1,,,68,62
68160,note_on,0,0,4,,,,,,,,,3,,,49,62
68160,control_change,0,0,4,,,,,,,,,3,64,0,,
68160,note_on,120,0,4,,,,,,,,,3,,,47,0
68160,note_on,0,0,3,,,,,,,,,2,,,61,62
68160,note_on,120,0,3,,,,,,,,,2,,,62,0
68160,note_on,0,0,2,,,,,,,,,1,,,69,62
68160,note_on,0,0,2,,,,,,,,,1,,,66,62
68160,note_on,0,0,2,,,,,,,,,1,,,68,0
68160,note_on,120,0,2,,,,,,,,,1,,,71,0
68400,note_on,0,0,4,,,,,,,,,3,,,49,62
68400,note_on,0,0,3,,,,,,,,,2,,,61,62
68400,note_on,240,0,3,,,,,,,,,2,,,61,0
68400,note_on,240,0,4,,,,,,,,,3,,,49,0
68400,note_on,240,0,2,,,,,,,,,1,,,69,0
68400,note_on,0,0,2,,,,,,,,,1,,,66,0
68400,control_change,0,0,2,,,,,,,,,1,64,0,,
68400,note_on,0,0,2,,,,,,,,,1,,,65,62
68400,note_on,0,0,2,,,,,,,,,1,,,68,62
68640,note_on,0,0,4,,,,,,,,,3,,,45,62
68640,note_on,240,0,4,,,,,,,,,3,,,49,0
68640,control_change,0,0,4,,,,,,,,,3,64,127,,
68640,note_on,0,0,2,,,,,,,,,1,,,69,62
68640,note_on,0,0,2,,,,,,,,,1,,,66,62
68640,control_change,0,0,2,,,,,,,,,1,64,127,,
68640,note_on,0,0,2,,,,,,,,,1,,,65,0
68640,note_on,240,0,3,,,,,,,,,2,,,61,0
68640,note_on,240,0,2,,,,,,,,,1,,,68,0
68640,note_on,0,0,3,,,,,,,,,2,,,61,62
68760,note_on,120,0,4,,,,,,,,,3,,,45,0
68760,note_on,0,0,4,,,,,,,,,3,,,42,62
68880,note_on,120,0,4,,,,,,,,,3,,,42,0
68880,note_on,0,0,4,,,,,,,,,3,,,44,62
68880,note_on,240,0,2,,,,,,,,,1,,,69,0
68880,note_on,0,0,2,,,,,,,,,1,,,66,0
68880,note_on,0,0,2,,,,,,,,,1,,,64,62
68880,note_on,0,0,2,,,,,,,,,1,,,71,62
68880,note_on,240,0,3,,,,,,,,,2,,,61,0
68880,note_on,0,0,3,,,,,,,,,2,,,59,62
69000,note_on,120,0,4,,,,,,,,,3,,,44,0
69000,note_on,0,0,4,,,,,,,,,3,,,45,62
69000,note_on,0,0,3,,,,,,,,,2,,,61,62
69000,note_on,120,0,3,,,,,,,,,2,,,59,0
69000,note_on,0,0,2,,,,,,,,,1,,,64,0
69000,note_on,120,0,2,,,,,,,,,1,,,71,0
69000,note_on,0,0,2,,,,,,,,,1,,,69,62
69120,note_on,0,0,2,,,,,,,,,1,,,64,62
69120,control_change,0,0,4,,,,,,,,,3,64,0,,
69120,note_on,0,0,4,,,,,,,,,3,,,47,62
69120,note_on,120,0,4,,,,,,,,,3,,,45,0
69120,note_on,0,0,3,,,,,,,,,2,,,59,62
69120,note_on,120,0,2,,,,,,,,,1,,,69,0
69120,note_on,0,0,2,,,,,,,,,1,,,68,62
69120,note_on,120,0,3,,,,,,,,,2,,,61,0
69360,note_on,0,0,2,,,,,,,,,1,,,63,62
69360,control_change,0,0,2,,,,,,,,,1,64,0,,
69360,note_on,240,0,4,,,,,,,,,3,,,47,0
69360,note_on,0,0,3,,,,,,,,,2,,,59,62
69360,note_on,240,0,2,,,,,,,,,1,,,68,0
69360,note_on,0,0,4,,,,,,,,,3,,,47,62
69360,note_on,240,0,3,,,,,,,,,2,,,59,0
69360,note_on,0,0,2,,,,,,,,,1,,,66,62
69360,note_on,0,0,2,,,,,,,,,1,,,64,0
69600,note_on,240,0,4,,,,,,,,,3,,,47,0
69600,note_on,0,0,2,,,,,,,,,1,,,64,62
69600,note_on,240,0,3,,,,,,,,,2,,,59,0
69600,note_on,0,0,3,,,,,,,,,2,,,59,62
69600,control_change,0,0,4,,,,,,,,,3,64,127,,
69600,note_on,240,0,2,,,,,,,,,1,,,66,0
69600,note_on,0,0,2,,,,,,,,,1,,,63,0
69600,note_on,0,0,2,,,,,,,,,1,,,68,62
69600,note_on,0,0,4,,,,,,,,,3,,,40,62
69840,note_on,0,0,4,,,,,,,,,3,,,44,62
69840,note_on,0,0,2,,,,,,,,,1,,,64,62
69840,note_on,0,0,3,,,,,,,,,2,,,59,62
69840,note_on,240,0,2,,,,,,,,,1,,,68,0
69840,note_on,0,0,2,,,,,,,,,1,,,64,0
69840,note_on,240,0,4,,,,,,,,,3,,,40,0
69840,note_on,240,0,3,,,,,,,,,2,,,59,0
70080,note_on,240,0,3,,,,,,,,,2,,,59,0
70080,control_change,0,0,3,,,,,,,,,2,64,127,,
70080,note_on,0,0,3,,,,,,,,,2,,,59,62
70080,note_on,0,0,2,,,,,,,,,1,,,66,62
70080,note_on,0,0,4,,,,,,,,,3,,,47,62
70080,note_on,240,0,4,,,,,,,,,3,,,44,0
70080,note_on,240,0,2,,,,,,,,,1,,,64,0
70080,note_on,0,0,2,,,,,,,,,1,,,63,62
70200,note_on,120,0,4,,,,,,,,,3,,,47,0
70200,note_on,0,0,3,,,,,,,,,2,,,57,62
70200,note_on,120,0,3,,,,,,,,,2,,,59,0
70200,note_on,0,0,4,,,,,,,,,3,,,45,62
70320,note_on,120,0,3,,,,,,,,,2,,,57,0
70320,note_on,240,0,2,,,,,,,,,1,,,66,0
70320,note_on,0,0,2,,,,,,,,,1,,,63,0
70320,control_change,0,0,2,,,,,,,,,1,64,127,,
70320,note_on,120,0,4,,,,,,,,,3,,,45,0
70320,note_on,0,0,2,,,,,,,,,1,,,68,62
70320,note_on,0,0,4,,,,,,,,,3,,,44,62
70320,note_on,0,0,3,,,,,,,,,2,,,56,62
70320,control_change,5040,0,1,,,,,,,,,0,64,127,,
70320,note_on,0,0,1,,,,,,,,,0,,,76,62
70320,note_on,0,0,1,,,,,,,,,0,,,80,62
70320,note_on,0,0,2,,,,,,,,,1,,,64,62
70440,note_on,120,0,3,,,,,,,,,2,,,56,0
70440,note_on,0,0,1,,,,,,,,,0,,,81,62
70440,note_on,0,0,3,,,,,,,,,2,,,54,62
70440,note_on,120,0,2,,,,,,,,,1,,,68,0
70440,note_on,0,0,2,,,,,,,,,1,,,64,0
70440,note_on,0,0,2,,,,,,,,,1,,,66,62
70440,note_on,0,0,2,,,,,,,,,1,,,69,62
70440,control_change,0,0,3,,,,,,,,,2,64,0,,
70440,note_on,0,0,1,,,,,,,,,0,,,78,62
70440,note_on,0,0,1,,,,,,,,,0,,,76,0
70440,note_on,120,0,1,,,,,,,,,0,,,80,0
70440,note_on,120,0,4,,,,,,,,,3,,,44,0
70440,note_on,0,0,3,,,,,,,,,2,,,59,62
70440,note_on,0,0,4,,,,,,,,,3,,,42,62
70440,control_change,0,0,4,,,,,,,,,3,64,0,,
70560,control_change,0,0,4,,,,,,,,,3,64,127,,
70560,note_on,0,0,2,,,,,,,,,1,,,71,62
70560,note_on,0,0,2,,,,,,,,,1,,,68,62
70560,note_on,120,0,4,,,,,,,,,3,,,42,0
70560,note_on,0,0,2,,,,,,,,,1,,,66,0
70560,note_on,120,0,2,,,,,,,,,1,,,69,0
70560,control_change,0,0,3,,,,,,,,,2,64,127,,
70560,note_on,0,0,3,,,,,,,,,2,,,54,0
70560,note_on,0,0,1,,,,,,,,,0,,,83,62
70560,note_on,0,0,1,,,,,,,,,0,,,80,62
70560,note_on,0,0,1,,,,,,,,,0,,,78,0
70560,note_on,120,0,1,,,,,,,,,0,,,81,0
70560,note_on,0,0,3,,,,,,,,,2,,,59,62
70560,note_on,120,0,3,,,,,,,,,2,,,59,0
70560,note_on,0,0,4,,,,,,,,,3,,,40,62
70560,note_on,0,0,3,,,,,,,,,2,,,52,62
70800,note_on,240,0,2,,,,,,,,,1,,,71,0
70800,note_on,0,0,2,,,,,,,,,1,,,68,0
70800,note_on,240,0,1,,,,,,,,,0,,,83,0
70800,note_on,0,0,2,,,,,,,,,1,,,69,62
70800,note_on,0,0,1,,,,,,,,,0,,,81,62
70800,note_on,0,0,1,,,,,,,,,0,,,78,62
70800,note_on,0,0,1,,,,,,,,,0,,,80,0
70800,note_on,0,0,2,,,,,,,,,1,,,66,62
70920,note_on,0,0,1,,,,,,,,,0,,,80,62
70920,note_on,0,0,1,,,,,,,,,0,,,76,62
70920,note_on,120,0,1,,,,,,,,,0,,,81,0
70920,note_on,0,0,4,,,,,,,,,3,,,44,62
70920,note_on,360,0,4,,,,,,,,,3,,,40,0
70920,note_on,0,0,1,,,,,,,,,0,,,78,0
70920,note_on,0,0,3,,,,,,,,,2,,,56,62
70920,note_on,0,0,3,,,,,,,,,2,,,52,0
70920,note_on,360,0,3,,,,,,,,,2,,,59,0
70920,note_on,120,0,2,,,,,,,,,1,,,69,0
70920,note_on,0,0,2,,,,,,,,,1,,,66,0
70920,note_on,0,0,2,,,,,,,,,1,,,64,62
70920,note_on,0,0,2,,,,,,,,,1,,,68,62
71040,note_on,0,0,4,,,,,,,,,3,,,47,62
71040,note_on,0,0,1,,,,,,,,,0,,,75,62
71040,note_on,0,0,1,,,,,,,,,0,,,76,0
71040,note_on,120,0,1,,,,,,,,,0,,,80,0
71040,note_on,120,0,2,,,,,,,,,1,,,68,0
71040,note_on,0,0,2,,,,,,,,,1,,,64,0
71040,note_on,0,0,2,,,,,,,,,1,,,63,62
71040,note_on,0,0,2,,,,,,,,,1,,,66,62
71040,note_on,0,0,2,,,,,,,,,1,,,71,62
71040,note_on,0,0,1,,,,,,,,,0,,,78,62
71040,note_on,120,0,3,,,,,,,,,2,,,56,0
71040,note_on,120,0,4,,,,,,,,,3,,,44,0
71040,note_on,0,0,3,,,,,,,,,2,,,59,62
71280,note_on,0,0,4,,,,,,,,,3,,,45,62
71280,note_on,240,0,3,,,,,,,,,2,,,59,0
71280,note_on,240,0,1,,,,,,,,,0,,,78,0
71280,note_on,0,0,1,,,,,,,,,0,,,75,0
71280,note_on,0,0,1,,,,,,,,,0,,,77,62
71280,note_on,0,0,1,,,,,,,,,0,,,80,62
71280,control_change,0,0,1,,,,,,,,,0,64,0,,
71280,note_on,240,0,2,,,,,,,,,1,,,71,0
71280,note_on,240,0,4,,,,,,,,,3,,,47,0
71280,note_on,0,0,2,,,,,,,,,1,,,68,62
71280,note_on,0,0,2,,,,,,,,,1,,,65,62
71280,control_change,0,0,2,,,,,,,,,1,64,0,,
71280,note_on,0,0,2,,,,,,,,,1,,,63,0
71280,note_on,0,0,2,,,,,,,,,1,,,66,0
71280,note_on,0,0,3,,,,,,,,,2,,,57,62
71280,note_on,0,0,3,,,,,,,,,2,,,59,62
71400,control_change,0,0,3,,,,,,,,,2,64,0,,
71400,note_on,0,0,3,,,,,,,,,2,,,57,0
71400,note_on,0,0,4,,,,,,,,,3,,,44,62
71400,control_change,0,0,4,,,,,,,,,3,64,0,,
71400,note_on,120,0,4,,,,,,,,,3,,,45,0
71400,note_on,0,0,3,,,,,,,,,2,,,56,62
71400,note_on,120,0,3,,,,,,,,,2,,,59,0
71520,note_on,0,0,2,,,,,,,,,1,,,69,62
71520,note_on,0,0,2,,,,,,,,,1,,,66,62
71520,note_on,0,0,2,,,,,,,,,1,,,65,0
71520,note_on,240,0,2,,,,,,,,,1,,,68,0
71520,note_on,0,0,1,,,,,,,,,0,,,81,62
71520,note_on,0,0,1,,,,,,,,,0,,,73,62
71520,note_on,120,0,3,,,,,,,,,2,,,56,0
71520,note_on,0,0,3,,,,,,,,,2,,,54,62
71520,note_on,0,0,3,,,,,,,,,2,,,61,62
71520,note_on,0,0,1,,,,,,,,,0,,,77,0
71520,note_on,240,0,1,,,,,,,,,0,,,80,0
71520,note_on,120,0,4,,,,,,,,,3,,,44,0
71520,note_on,0,0,4,,,,,,,,,3,,,42,62
71520,note_on,0,0,1,,,,,,,,,0,,,78,62
72000,note_on,480,0,3,,,,,,,,,2,,,61,0
72000,note_on,0,0,3,,,,,,,,,2,,,54,0
72000,note_on,0,0,3,,,,,,,,,2,,,61,88
72000,note_on,480,0,4,,,,,,,,,3,,,42,0
72000,note_on,480,0,2,,,,,,,,,1,,,69,0
72000,note_on,0,0,2,,,,,,,,,1,,,66,0
72000,note_on,0,0,2,,,,,,,,,1,,,65,88
72000,note_on,480,0,1,,,,,,,,,0,,,81,0
72000,note_on,0,0,4,,,,,,,,,3,,,49,88
72000,note_on,0,0,1,,,,,,,,,0,,,80,88
72000,note_on,0,0,1,,,,,,,,,0,,,77,88
72000,note_on,0,0,1,,,,,,,,,0,,,73,88
72000,note_on,0,0,1,,,,,,,,,0,,,73,0
72000,note_on,0,0,1,,,,,,,,,0,,,78,0
72000,note_on,0,0,2,,,,,,,,,1,,,68,88
72480,note_on,0,0,2,,,,,,,,,1,,,65,0
72480,control_change,0,0,2,,,,,,,,,1,64,127,,
72480,note_on,0,0,2,,,,,,,,,1,,,66,62
72480,note_on,0,0,2,,,,,,,,,1,,,69,62
72480,note_on,480,0,2,,,,,,,,,1,,,68,0
72480,note_on,0,0,4,,,,,,,,,3,,,42,62
72480,control_change,0,0,1,,,,,,,,,0,64,127,,
72480,note_on,0,0,1,,,,,,,,,0,,,81,62
72480,note_on,0,0,1,,,,,,,,,0,,,78,62
72480,note_on,0,0,1,,,,,,,,,0,,,73,62
72480,note_on,0,0,1,,,,,,,,,0,,,73,0
72480,note_on,0,0,1,,,,,,,,,0,,,77,0
72480,note_on,480,0,4,,,,,,,,,3,,,49,0
72480,note_on,480,0,3,,,,,,,,,2,,,61,0
72480,note_on,480,0,1,,,,,,,,,0,,,80,0
72480,note_on,0,0,3,,,,,,,,,2,,,61,62
72480,note_on,0,0,3,,,,,,,,,2,,,54,62
72600,note_on,0,0,4,,,,,,,,,3,,,44,62
72600,note_on,120,0,4,,,,,,,,,3,,,42,0
72600,note_on,120,0,3,,,,,,,,,2,,,61,0
72600,note_on,0,0,3,,,,,,,,,2,,,54,0
72600,note_on,0,0,3,,,,,,,,,2,,,56,62
72720,note_on,0,0,4,,,,,,,,,3,,,45,62
72720,note_on,0,0,1,,,,,,,,,0,,,73,0
72720,note_on,0,0,1,,,,,,,,,0,,,78,0
72720,note_on,240,0,1,,,,,,,,,0,,,81,0
72720,note_on,0,0,3,,,,,,,,,2,,,61,62
72720,note_on,120,0,3,,,,,,,,,2,,,56,0
72720,note_on,0,0,2,,,,,,,,,1,,,66,62
72720,note_on,0,0,2,,,,,,,,,1,,,66,0
72720,note_on,0,0,2,,,,,,,,,1,,,73,62
72720,note_on,0,0,1,,,,,,,,,0,,,78,62
72720,note_on,120,0,4,,,,,,,,,3,,,44,0
72720,note_on,240,0,2,,,,,,,,,1,,,69,0
72720,note_on,0,0,1,,,,,,,,,0,,,85,62
72720,note_on,0,0,3,,,,,,,,,2,,,57,62
72840,note_on,0,0,1,,,,,,,,,0,,,78,0
72840,note_on,0,0,3,,,,,,,,,2,,,59,62
72840,note_on,0,0,4,,,,,,,,,3,,,47,62
72840,note_on,120,0,4,,,,,,,,,3,,,45,0
72840,note_on,0,0,1,,,,,,,,,0,,,83,62
72840,note_on,0,0,2,,,,,,,,,1,,,71,62
72840,note_on,0,0,2,,,,,,,,,1,,,66,0
72840,note_on,120,0,2,,,,,,,,,1,,,73,0
72840,note_on,0,0,3,,,,,,,,,2,,,62,62
72840,note_on,0,0,3,,,,,,,,,2,,,57,0
72840,note_on,120,0,1,,,,,,,,,0,,,85,0
72840,note_on,120,0,3,,,,,,,,,2,,,61,0
72960,note_on,0,0,1,,,,,,,,,0,,,78,62
72960,note_on,0,0,4,,,,,,,,,3,,,49,62
72960,note_on,0,0,2,,,,,,,,,1,,,69,62
72960,note_on,0,0,1,,,,,,,,,0,,,81,62
72960,note_on,120,0,4,,,,,,,,,3,,,47,0
72960,note_on,120,0,2,,,,,,,,,1,,,71,0
72960,note_on,0,0,3,,,,,,,,,2,,,61,62
72960,note_on,0,0,3,,,,,,,,,2,,,59,0
72960,note_on,120,0,3,,,,,,,,,2,,,62,0
72960,note_on,120,0,1,,,,,,,,,0,,,83,0
73200,note_on,0,0,2,,,,,,,,,1,,,68,62
73200,control_change,0,0,2,,,,,,,,,1,64,0,,
73200,control_change,0,0,1,,,,,,,,,0,64,0,,
73200,note_on,0,0,4,,,,,,,,,3,,,49,62
73200,note_on,240,0,4,,,,,,,,,3,,,49,0
73200,note_on,0,0,2,,,,,,,,,1,,,65,62
73200,note_on,0,0,1,,,,,,,,,0,,,77,62
73200,note_on,240,0,2,,,,,,,,,1,,,69,0
73200,note_on,0,0,3,,,,,,,,,2,,,61,62
73200,note_on,240,0,1,,,,,,,,,0,,,81,0
73200,note_on,0,0,1,,,,,,,,,0,,,78,0
73200,note_on,240,0,3,,,,,,,,,2,,,61,0
73200,note_on,0,0,1,,,,,,,,,0,,,80,62
73440,note_on,0,0,4,,,,,,,,,3,,,45,62
73440,note_on,240,0,4,,,,,,,,,3,,,49,0
73440,note_on,0,0,3,,,,,,,,,2,,,57,62
73440,note_on,240,0,3,,,,,,,,,2,,,61,0
73440,note_on,240,0,2,,,,,,,,,1,,,68,0
73440,note_on,0,0,2,,,,,,,,,1,,,65,0
73440,control_change,0,0,2,,,,,,,,,1,64,127,,
73440,note_on,0,0,2,,,,,,,,,1,,,66,62
73440,note_on,0,0,2,,,,,,,,,1,,,69,62
73440,note_on,0,0,3,,,,,,,,,2,,,61,62
73440,note_on,240,0,1,,,,,,,,,0,,,80,0
73440,note_on,0,0,1,,,,,,,,,0,,,81,62
73440,control_change,0,0,1,,,,,,,,,0,64,127,,
73440,note_on,0,0,1,,,,,,,,,0,,,78,62
73440,note_on,0,0,1,,,,,,,,,0,,,77,0
73560,note_on,0,0,4,,,,,,,,,3,,,42,62
73560,note_on,0,0,3,,,,,,,,,2,,,54,62
73560,note_on,0,0,3,,,,,,,,,2,,,57,0
73560,note_on,120,0,3,,,,,,,,,2,,,61,0
73560,note_on,120,0,4,,,,,,,,,3,,,45,0
73680,note_on,0,0,2,,,,,,,,,1,,,66,0
73680,note_on,120,0,4,,,,,,,,,3,,,42,0
73680,note_on,0,0,4,,,,,,,,,3,,,44,62
73680,note_on,0,0,1,,,,,,,,,0,,,83,62
73680,note_on,0,0,1,,,,,,,,,0,,,76,62
73680,note_on,240,0,2,,,,,,,,,1,,,69,0
73680,note_on,240,0,1,,,,,,,,,0,,,81,0
73680,note_on,0,0,1,,,,,,,,,0,,,78,0
73680,note_on,0,0,3,,,,,,,,,2,,,59,62
73680,note_on,0,0,3,,,,,,,,,2,,,56,62
73680,note_on,120,0,3,,,,,,,,,2,,,54,0
73680,note_on,0,0,2,,,,,,,,,1,,,71,62
73680,note_on,0,0,2,,,,,,,,,1,,,64,62
73800,note_on,120,0,2,,,,,,,,,1,,,71,0
73800,note_on,120,0,1,,,,,,,,,0,,,83,0
73800,note_on,0,0,4,,,,,,,,,3,,,45,62
73800,note_on,120,0,4,,,,,,,,,3,,,44,0
73800,note_on,0,0,2,,,,,,,,,1,,,64,0
73800,note_on,0,0,1,,,,,,,,,0,,,76,0
73800,note_on,0,0,2,,,,,,,,,1,,,69,62
73800,note_on,0,0,1,,,,,,,,,0,,,78,62
73800,note_on,0,0,1,,,,,,,,,0,,,81,62
73800,note_on,120,0,3,,,,,,,,,2,,,59,0
73800,note_on,0,0,2,,,,,,,,,1,,,66,62
73800,note_on,0,0,3,,,,,,,,,2,,,57,62
73800,note_on,0,0,3,,,,,,,,,2,,,61,62
73800,note_on,0,0,3,,,,,,,,,2,,,56,0
73920,note_on,120,0,2,,,,,,,,,1,,,69,0
73920,note_on,0,0,1,,,,,,,,,0,,,80,62
73920,note_on,0,0,1,,,,,,,,,0,,,76,62
73920,note_on,0,0,1,,,,,,,,,0,,,78,0
73920,note_on,0,0,2,,,,,,,,,1,,,66,0
73920,note_on,0,0,2,,,,,,,,,1,,,68,62
73920,note_on,120,0,1,,,,,,,,,0,,,81,0
73920,note_on,0,0,3,,,,,,,,,2,,,59,62
73920,note_on,0,0,2,,,,,,,,,1,,,64,62
73920,note_on,0,0,4,,,,,,,,,3,,,47,62
73920,note_on,120,0,3,,,,,,,,,2,,,61,0
73920,note_on,0,0,3,,,,,,,,,2,,,57,0
73920,note_on,120,0,4,,,,,,,,,3,,,45,0
74160,note_on,0,0,2,,,,,,,,,1,,,64,0
74160,control_change,0,0,2,,,,,,,,,1,64,0,,
74160,note_on,0,0,2,,,,,,,,,1,,,63,62
74160,note_on,0,0,2,,,,,,,,,1,,,66,62
74160,note_on,240,0,2,,,,,,,,,1,,,68,0
74160,control_change,0,0,1,,,,,,,,,0,64,0,,
74160,note_on,240,0,4,,,,,,,,,3,,,47,0
74160,note_on,0,0,3,,,,,,,,,2,,,59,62
74160,note_on,240,0,3,,,,,,,,,2,,,59,0
74160,note_on,240,0,1,,,,,,,,,0,,,80,0
74160,note_on,0,0,1,,,,,,,,,0,,,76,0
74160,note_on,0,0,1,,,,,,,,,0,,,75,62
74160,note_on,0,0,1,,,,,,,,,0,,,78,62
74160,note_on,0,0,4,,,,,,,,,3,,,47,62
74400,note_on,0,0,2,,,,,,,,,1,,,64,62
74400,note_on,240,0,2,,,,,,,,,1,,,66,0
74400,note_on,0,0,2,,,,,,,,,1,,,63,0
74400,note_on,0,0,2,,,,,,,,,1,,,68,62
74400,note_on,240,0,1,,,,,,,,,0,,,78,0
74400,note_on,0,0,3,,,,,,,,,2,,,59,62
74400,note_on,0,0,4,,,,,,,,,3,,,40,62
74400,note_on,0,0,1,,,,,,,,,0,,,80,62
74400,note_on,0,0,1,,,,,,,,,0,,,76,62
74400,note_on,0,0,1,,,,,,,,,0,,,75,0
74400,note_on,240,0,3,,,,,,,,,2,,,59,0
74400,note_on,0,0,3,,,,,,,,,2,,,52,62
74400,note_on,240,0,4,,,,,,,,,3,,,47,0
74640,note_on,0,0,4,,,,,,,,,3,,,44,62
74640,note_on,0,0,2,,,,,,,,,1,,,64,62
74640,note_on,0,0,2,,,,,,,,,1,,,64,0
74640,note_on,0,0,3,,,,,,,,,2,,,52,0
74640,note_on,0,0,3,,,,,,,,,2,,,56,62
74640,note_on,240,0,3,,,,,,,,,2,,,59,0
74640,note_on,240,0,1,,,,,,,,,0,,,80,0
74640,note_on,0,0,1,,,,,,,,,0,,,76,0
74640,note_on,240,0,2,,,,,,,,,1,,,68,0
74640,note_on,0,0,1,,,,,,,,,0,,,71,62
74640,note_on,240,0,4,,,,,,,,,3,,,40,0
74640,note_on,0,0,3,,,,,,,,,2,,,59,62
74640,note_on,0,0,1,,,,,,,,,0,,,76,62
74880,note_on,240,0,3,,,,,,,,,2,,,59,0
74880,note_on,0,0,1,,,,,,,,,0,,,71,0
74880,note_on,0,0,1,,,,,,,,,0,,,71,62
74880,note_on,0,0,4,,,,,,,,,3,,,47,62
74880,note_on,0,0,1,,,,,,,,,0,,,75,62
74880,note_on,240,0,1,,,,,,,,,0,,,76,0
74880,note_on,0,0,2,,,,,,,,,1,,,63,62
74880,note_on,0,0,2,,,,,,,,,1,,,66,62
74880,note_on,240,0,4,,,,,,,,,3,,,44,0
74880,note_on,0,0,3,,,,,,,,,2,,,59,62
74880,note_on,0,0,1,,,,,,,,,0,,,78,62
74880,note_on,0,0,3,,,,,,,,,2,,,56,0
74880,note_on,240,0,2,,,,,,,,,1,,,64,0
75000,note_on,0,0,3,,,,,,,,,2,,,57,62
75000,note_on,120,0,3,,,,,,,,,2,,,59,0
75120,note_on,0,0,3,,,,,,,,,2,,,56,62
75120,note_on,120,0,3,,,,,,,,,2,,,57,0
75240,note_on,120,0,3,,,,,,,,,2,,,56,0
75240,note_on,0,0,3,,,,,,,,,2,,,54,62
75360,note_on,480,0,4,,,,,,,,,3,,,47,0
75360,note_on,480,0,1,,,,,,,,,0,,,78,0
75360,note_on,0,0,4,,,,,,,,,3,,,47,75
75360,note_on,0,0,1,,,,,,,,,0,,,71,0
75360,note_on,120,0,3,,,,,,,,,2,,,54,0
75360,note_on,0,0,1,,,,,,,,,0,,,75,0
75360,note_on,480,0,2,,,,,,,,,1,,,66,0
75360,note_on,0,0,2,,,,,,,,,1,,,63,0
75360,note_on,0,0,2,,,,,,,,,1,,,65,75
75360,note_on,0,0,3,,,,,,,,,2,,,56,62
75480,note_on,0,0,3,,,,,,,,,2,,,59,62
75480,note_on,120,0,3,,,,,,,,,2,,,56,0
75600,note_on,0,0,3,,,,,,,,,2,,,56,62
75600,control_change,0,0,4,,,,,,,,,3,64,127,,
75600,note_on,0,0,4,,,,,,,,,3,,,50,75
75600,note_on,240,0,4,,,,,,,,,3,,,47,0
75600,note_on,120,0,3,,,,,,,,,2,,,59,0
75720,note_on,0,0,3,,,,,,,,,2,,,59,62
75720,note_on,120,0,3,,,,,,,,,2,,,56,0
75780,note_on,0,0,2,,,,,,,,,1,,,65,75
75780,control_change,0,0,2,,,,,,,,,1,64,127,,
75780,note_on,420,0,2,,,,,,,,,1,,,65,0
75840,note_on,0,0,3,,,,,,,,,2,,,56,62
75840,note_on,120,0,3,,,,,,,,,2,,,59,0
75840,note_on,0,0,4,,,,,,,,,3,,,49,75
75840,note_on,0,0,2,,,,,,,,,1,,,66,75
75840,note_on,60,0,2,,,,,,,,,1,,,65,0
75840,note_on,240,0,4,,,,,,,,,3,,,50,0
75960,note_on,120,0,2,,,,,,,,,1,,,66,0
75960,note_on,0,0,2,,,,,,,,,1,,,65,75
75960,note_on,0,0,3,,,,,,,,,2,,,61,62
75960,note_on,120,0,3,,,,,,,,,2,,,56,0
76080,note_on,120,0,2,,,,,,,,,1,,,65,0
76080,note_on,0,0,2,,,,,,,,,1,,,63,75
76080,note_on,240,0,4,,,,,,,,,3,,,49,0
76080,control_change,0,0,4,,,,,,,,,3,64,0,,
76080,note_on,120,0,3,,,,,,,,,2,,,61,0
76080,note_on,0,0,3,,,,,,,,,2,,,56,62
76080,note_on,0,0,4,,,,,,,,,3,,,47,75
76200,control_change,0,0,2,,,,,,,,,1,64,0,,
76200,note_on,120,0,3,,,,,,,,,2,,,56,0
76200,note_on,0,0,3,,,,,,,,,2,,,61,62
76200,note_on,0,0,2,,,,,,,,,1,,,65,75
76200,note_on,120,0,2,,,,,,,,,1,,,63,0
76320,note_on,0,0,3,,,,,,,,,2,,,54,62
76320,control_change,0,0,2,,,,,,,,,1,64,127,,
76320,note_on,0,0,2,,,,,,,,,1,,,66,75
76320,note_on,120,0,2,,,,,,,,,1,,,65,0
76320,note_on,0,0,4,,,,,,,,,3,,,45,75
76320,note_on,240,0,4,,,,,,,,,3,,,47,0
76320,note_on,0,0,3,,,,,,,,,2,,,57,62
76320,note_on,120,0,3,,,,,,,,,2,,,61,0
76320,control_change,0,0,4,,,,,,,,,3,64,127,,
76440,note_on,120,0,3,,,,,,,,,2,,,57,0
76440,note_on,0,0,3,,,,,,,,,2,,,54,0
76440,note_on,0,0,3,,,,,,,,,2,,,61,62
76560,note_on,240,0,4,,,,,,,,,3,,,45,0
76560,note_on,0,0,2,,,,,,,,,1,,,73,75
76560,note_on,240,0,2,,,,,,,,,1,,,66,0
76560,note_on,120,0,3,,,,,,,,,2,,,61,0
76560,note_on,0,0,4,,,,,,,,,3,,,41,75
76560,note_on,0,0,3,,,,,,,,,2,,,56,62
76680,note_on,120,0,3,,,,,,,,,2,,,56,0
76680,note_on,0,0,3,,,,,,,,,2,,,61,62
76800,note_on,0,0,3,,,,,,,,,2,,,57,62
76800,note_on,240,0,4,,,,,,,,,3,,,41,0
76800,note_on,240,0,2,,,,,,,,,1,,,73,0
76800,note_on,0,0,2,,,,,,,,,1,,,71,75
76800,note_on,0,0,4,,,,,,,,,3,,,42,75
76800,note_on,120,0,3,,,,,,,,,2,,,61,0
76920,note_on,120,0,3,,,,,,,,,2,,,57,0
76920,note_on,0,0,3,,,,,,,,,2,,,61,62
76920,note_on,0,0,2,,,,,,,,,1,,,69,75
76920,note_on,120,0,2,,,,,,,,,1,,,71,0
77040,note_on,0,0,2,,,,,,,,,1,,,68,75
77040,note_on,120,0,2,,,,,,,,,1,,,69,0
77040,note_on,0,0,3,,,,,,,,,2,,,59,62
77040,note_on,120,0,3,,,,,,,,,2,,,61,0
77040,note_on,240,0,4,,,,,,,,,3,,,42,0
77040,control_change,0,0,4,,,,,,,,,3,64,0,,
77040,note_on,0,0,4,,,,,,,,,3,,,45,75
77160,note_on,0,0,2,,,,,,,,,1,,,66,75
77160,note_on,0,0,3,,,,,,,,,2,,,57,62
77160,note_on,120,0,3,,,,,,,,,2,,,59,0
77160,control_change,0,0,2,,,,,,,,,1,64,0,,
77160,note_on,120,0,2,,,,,,,,,1,,,68,0
77280,control_change,0,0,4,,,,,,,,,3,64,127,,
77280,note_on,240,0,4,,,,,,,,,3,,,45,0
77280,note_on,0,0,2,,,,,,,,,1,,,64,62
77280,note_on,120,0,2,,,,,,,,,1,,,66,0
77280,note_on,0,0,4,,,,,,,,,3,,,47,62
77280,note_on,0,0,3,,,,,,,,,2,,,56,49
77280,note_on,120,0,3,,,,,,,,,2,,,57,0
77400,note_on,0,0,3,,,,,,,,,2,,,59,49
77400,note_on,120,0,3,,,,,,,,,2,,,56,0
77520,note_on,240,0,4,,,,,,,,,3,,,47,0
77520,note_on,240,0,2,,,,,,,,,1,,,64,0
77520,note_on,0,0,2,,,,,,,,,1,,,68,62
77520,note_on,0,0,4,,,,,,,,,3,,,44,62
77520,note_on,120,0,3,,,,,,,,,2,,,59,0
77520,note_on,0,0,3,,,,,,,,,2,,,64,49
77640,note_on,120,0,3,,,,,,,,,2,,,64,0
77640,note_on,0,0,3,,,,,,,,,2,,,59,49
77700,note_on,180,0,2,,,,,,,,,1,,,68,0
77700,note_on,0,0,2,,,,,,,,,1,,,66,62
77760,note_on,0,0,4,,,,,,,,,3,,,45,62
77760,note_on,0,0,3,,,,,,,,,2,,,64,49
77760,note_on,60,0,2,,,,,,,,,1,,,66,0
77760,note_on,0,0,2,,,,,,,,,1,,,66,62
77760,note_on,240,0,4,,,,,,,,,3,,,44,0
77760,note_on,120,0,3,,,,,,,,,2,,,59,0
77880,note_on,120,0,3,,,,,,,,,2,,,64,0
77880,note_on,0,0,3,,,,,,,,,2,,,61,49
78000,note_on,240,0,2,,,,,,,,,1,,,66,0
78000,note_on,0,0,4,,,,,,,,,3,,,47,62
78000,control_change,0,0,4,,,,,,,,,3,64,0,,
78000,note_on,0,0,3,,,,,,,,,2,,,63,49
78000,note_on,120,0,3,,,,,,,,,2,,,61,0
78000,note_on,0,0,2,,,,,,,,,1,,,69,62
78000,note_on,240,0,4,,,,,,,,,3,,,45,0
78120,note_on,0,0,3,,,,,,,,,2,,,59,49
78120,note_on,120,0,3,,,,,,,,,2,,,63,0
78180,note_on,180,0,2,,,,,,,,,1,,,69,0
78180,note_on,0,0,2,,,,,,,,,1,,,68,62
78240,note_on,60,0,2,,,,,,,,,1,,,68,0
78240,note_on,0,0,2,,,,,,,,,1,,,68,62
78240,control_change,0,0,4,,,,,,,,,3,64,127,,
78240,note_on,0,0,4,,,,,,,,,3,,,52,62
78240,note_on,0,0,3,,,,,,,,,2,,,64,49
78240,note_on,120,0,3,,,,,,,,,2,,,59,0
78240,note_on,240,0,4,,,,,,,,,3,,,47,0
78360,note_on,0,0,3,,,,,,,,,2,,,59,49
78360,note_on,120,0,3,,,,,,,,,2,,,64,0
78480,note_on,240,0,4,,,,,,,,,3,,,52,0
78480,note_on,0,0,3,,,,,,,,,2,,,56,49
78480,note_on,120,0,3,,,,,,,,,2,,,59,0
78480,note_on,0,0,4,,,,,,,,,3,,,50,62
78600,note_on,0,0,3,,,,,,,,,2,,,59,49
78600,note_on,120,0,3,,,,,,,,,2,,,56,0
78660,control_change,3300,0,1,,,,,,,,,0,64,127,,
78660,control_change,0,0,2,,,,,,,,,1,64,127,,
78660,note_on,0,0,2,,,,,,,,,1,,,65,75
78660,note_on,0,0,1,,,,,,,,,0,,,77,75
78660,note_on,420,0,2,,,,,,,,,1,,,68,0
78720,note_on,60,0,2,,,,,,,,,1,,,65,0
78720,note_on,60,0,1,,,,,,,,,0,,,77,0
78720,note_on,0,0,1,,,,,,,,,0,,,78,75
78720,note_on,0,0,3,,,,,,,,,2,,,56,62
78720,note_on,120,0,3,,,,,,,,,2,,,59,0
78720,note_on,0,0,2,,,,,,,,,1,,,66,75
78720,note_on,240,0,4,,,,,,,,,3,,,50,0
78720,note_on,0,0,4,,,,,,,,,3,,,49,75
78840,note_on,120,0,1,,,,,,,,,0,,,78,0
78840,note_on,0,0,1,,,,,,,,,0,,,77,75
78840,note_on,120,0,3,,,,,,,,,2,,,56,0
78840,note_on,0,0,2,,,,,,,,,1,,,65,75
78840,note_on,120,0,2,,,,,,,,,1,,,66,0
78840,note_on,0,0,3,,,,,,,,,2,,,61,62
78960,control_change,0,0,4,,,,,,,,,3,64,0,,
78960,note_on,120,0,2,,,,,,,,,1,,,65,0
78960,note_on,0,0,3,,,,,,,,,2,,,56,62
78960,note_on,120,0,3,,,,,,,,,2,,,61,0
78960,note_on,0,0,1,,,,,,,,,0,,,75,75
78960,note_on,120,0,1,,,,,,,,,0,,,77,0
78960,note_on,0,0,4,,,,,,,,,3,,,47,75
78960,note_on,0,0,2,,,,,,,,,1,,,63,75
78960,note_on,240,0,4,,,,,,,,,3,,,49,0
79080,note_on,0,0,3,,,,,,,,,2,,,61,62
79080,note_on,120,0,3,,,,,,,,,2,,,56,0
79080,note_on,120,0,2,,,,,,,,,1,,,63,0
79080,control_change,0,0,1,,,,,,,,,0,64,0,,
79080,note_on,0,0,1,,,,,,,,,0,,,77,75
79080,control_change,0,0,2,,,,,,,,,1,64,0,,
79080,note_on,120,0,1,,,,,,,,,0,,,75,0
79080,note_on,0,0,2,,,,,,,,,1,,,65,75
79200,note_on,0,0,2,,,,,,,,,1,,,66,75
79200,control_change,0,0,4,,,,,,,,,3,64,127,,
79200,note_on,0,0,3,,,,,,,,,2,,,57,62
79200,note_on,0,0,3,,,,,,,,,2,,,54,62
79200,note_on,120,0,3,,,,,,,,,2,,,61,0
79200,note_on,240,0,4,,,,,,,,,3,,,47,0
79200,control_change,0,0,1,,,,,,,,,0,64,127,,
79200,note_on,120,0,1,,,,,,,,,0,,,77,0
79200,control_change,0,0,2,,,,,,,,,1,64,127,,
79200,note_on,120,0,2,,,,,,,,,1,,,65,0
79200,note_on,0,0,4,,,,,,,,,3,,,45,75
79200,note_on,0,0,1,,,,,,,,,0,,,78,75
79320,note_on,0,0,3,,,,,,,,,2,,,61,62
79320,note_on,120,0,3,,,,,,,,,2,,,57,0
79320,note_on,0,0,3,,,,,,,,,2,,,54,0
79440,note_on,240,0,1,,,,,,,,,0,,,78,0
79440,note_on,0,0,1,,,,,,,,,0,,,85,75
79440,note_on,0,0,3,,,,,,,,,2,,,56,62
79440,note_on,120,0,3,,,,,,,,,2,,,61,0
79440,note_on,0,0,2,,,,,,,,,1,,,73,75
79440,note_on,240,0,2,,,,,,,,,1,,,66,0
79440,note_on,0,0,4,,,,,,,,,3,,,41,75
79440,note_on,240,0,4,,,,,,,,,3,,,45,0
79560,note_on,0,0,3,,,,,,,,,2,,,61,62
79560,note_on,120,0,3,,,,,,,,,2,,,56,0
79680,note_on,0,0,2,,,,,,,,,1,,,71,75
79680,note_on,0,0,4,,,,,,,,,3,,,42,75
79680,note_on,240,0,4,,,,,,,,,3,,,41,0
79680,note_on,240,0,1,,,,,,,,,0,,,85,0
79680,note_on,0,0,1,,,,,,,,,0,,,83,75
79680,note_on,120,0,3,,,,,,,,,2,,,61,0
79680,note_on,0,0,3,,,,,,,,,2,,,57,62
79680,note_on,240,0,2,,,,,,,,,1,,,73,0
79800,note_on,120,0,1,,,,,,,,,0,,,83,0
79800,note_on,0,0,2,,,,,,,,,1,,,69,75
79800,note_on,0,0,1,,,,,,,,,0,,,81,75
79800,note_on,120,0,2,,,,,,,,,1,,,71,0
79800,note_on,120,0,3,,,,,,,,,2,,,57,0
79800,note_on,0,0,3,,,,,,,,,2,,,61,62
79920,note_on,120,0,1,,,,,,,,,0,,,81,0
79920,note_on,0,0,1,,,,,,,,,0,,,80,75
79920,note_on,0,0,4,,,,,,,,,3,,,44,75
79920,note_on,120,0,3,,,,,,,,,2,,,61,0
79920,note_on,240,0,4,,,,,,,,,3,,,42,0
79920,note_on,120,0,2,,,,,,,,,1,,,69,0
79920,note_on,0,0,2,,,,,,,,,1,,,68,75
79920,note_on,0,0,3,,,,,,,,,2,,,59,62
80040,note_on,0,0,3,,,,,,,,,2,,,57,62
80040,note_on,120,0,3,,,,,,,,,2,,,59,0
80040,control_change,0,0,1,,,,,,,,,0,64,0,,
80040,note_on,120,0,1,,,,,,,,,0,,,80,0
80040,note_on,0,0,4,,,,,,,,,3,,,45,75
80040,note_on,0,0,1,,,,,,,,,0,,,78,75
80040,control_change,0,0,4,,,,,,,,,3,64,0,,
80040,note_on,120,0,4,,,,,,,,,3,,,44,0
80040,note_on,0,0,2,,,,,,,,,1,,,66,75
80040,control_change,0,0,2,,,,,,,,,1,64,0,,
80040,note_on,120,0,2,,,,,,,,,1,,,68,0
80160,note_on,120,0,1,,,,,,,,,0,,,78,0
80160,note_on,0,0,2,,,,,,,,,1,,,64,62
80160,note_on,120,0,2,,,,,,,,,1,,,66,0
80160,note_on,0,0,4,,,,,,,,,3,,,47,62
80160,control_change,0,0,4,,,,,,,,,3,64,127,,
80160,note_on,120,0,3,,,,,,,,,2,,,57,0
80160,note_on,0,0,3,,,,,,,,,2,,,56,49
80160,note_on,0,0,1,,,,,,,,,0,,,76,62
80160,note_on,120,0,4,,,,,,,,,3,,,45,0
80280,note_on,0,0,3,,,,,,,,,2,,,59,49
80280,note_on,120,0,3,,,,,,,,,2,,,56,0
80400,note_on,240,0,4,,,,,,,,,3,,,47,0
80400,note_on,0,0,4,,,,,,,,,3,,,44,62
80400,note_on,240,0,1,,,,,,,,,0,,,76,0
80400,note_on,120,0,3,,,,,,,,,2,,,59,0
80400,note_on,0,0,3,,,,,,,,,2,,,64,49
80400,note_on,0,0,1,,,,,,,,,0,,,80,62
80400,note_on,240,0,2,,,,,,,,,1,,,64,0
80400,note_on,0,0,2,,,,,,,,,1,,,68,62
80520,note_on,120,0,3,,,,,,,,,2,,,64,0
80520,note_on,0,0,3,,,,,,,,,2,,,59,49
80580,note_on,180,0,1,,,,,,,,,0,,,80,0
80580,note_on,0,0,1,,,,,,,,,0,,,78,62
80580,note_on,180,0,2,,,,,,,,,1,,,68,0
80580,note_on,0,0,2,,,,,,,,,1,,,66,62
80640,note_on,0,0,2,,,,,,,,,1,,,66,62
80640,note_on,120,0,3,,,,,,,,,2,,,59,0
80640,note_on,0,0,3,,,,,,,,,2,,,64,49
80640,note_on,60,0,2,,,,,,,,,1,,,66,0
80640,note_on,60,0,1,,,,,,,,,0,,,78,0
80640,note_on,0,0,1,,,,,,,,,0,,,78,62
80640,note_on,240,0,4,,,,,,,,,3,,,44,0
80640,note_on,0,0,4,,,,,,,,,3,,,45,62
80760,note_on,0,0,3,,,,,,,,,2,,,61,49
80760,note_on,120,0,3,,,,,,,,,2,,,64,0
80880,note_on,0,0,1,,,,,,,,,0,,,81,62
80880,note_on,0,0,3,,,,,,,,,2,,,63,49
80880,note_on,120,0,3,,,,,,,,,2,,,61,0
80880,note_on,240,0,1,,,,,,,,,0,,,78,0
80880,note_on,240,0,4,,,,,,,,,3,,,45,0
80880,control_change,0,0,4,,,,,,,,,3,64,0,,
80880,note_on,0,0,2,,,,,,,,,1,,,69,62
80880,note_on,0,0,4,,,,,,,,,3,,,47,62
80880,note_on,240,0,2,,,,,,,,,1,,,66,0
81000,note_on,0,0,3,,,,,,,,,2,,,59,49
81000,note_on,120,0,3,,,,,,,,,2,,,63,0
81060,note_on,0,0,2,,,,,,,,,1,,,63,62
81060,note_on,0,0,1,,,,,,,,,0,,,75,62
81060,note_on,180,0,1,,,,,,,,,0,,,81,0
81060,note_on,180,0,2,,,,,,,,,1,,,69,0
81120,note_on,240,0,4,,,,,,,,,3,,,47,0
81120,note_on,0,0,3,,,,,,,,,2,,,56,49
81120,note_on,120,0,3,,,,,,,,,2,,,59,0
81120,note_on,60,0,2,,,,,,,,,1,,,63,0
81120,note_on,0,0,2,,,,,,,,,1,,,64,62
81120,note_on,60,0,1,,,,,,,,,0,,,75,0
81120,note_on,0,0,1,,,,,,,,,0,,,76,62
81120,note_on,0,0,4,,,,,,,,,3,,,40,62
81240,note_on,0,0,3,,,,,,,,,2,,,64,49
81240,note_on,120,0,3,,,,,,,,,2,,,56,0
81360,note_on,0,0,3,,,,,,,,,2,,,59,49
81360,note_on,120,0,3,,,,,,,,,2,,,64,0
81360,note_on,240,0,2,,,,,,,,,1,,,64,0
81360,note_on,240,0,1,,,,,,,,,0,,,76,0
81360,note_on,240,0,4,,,,,,,,,3,,,40,0
81480,note_on,120,0,3,,,,,,,,,2,,,59,0
81480,note_on,0,0,3,,,,,,,,,2,,,56,49
81600,note_on,240,0,2,,,,,,,,,1,,,66,88
81600,note_on,240,0,1,,,,,,,,,0,,,78,88
81600,note_on,120,0,3,,,,,,,,,2,,,56,0
81600,note_on,0,0,3,,,,,,,,,2,,,57,75
81600,note_on,240,0,4,,,,,,,,,3,,,40,62
81720,note_on,120,0,3,,,,,,,,,2,,,57,0
81720,note_on,0,0,3,,,,,,,,,2,,,63,49
81840,note_on,240,0,4,,,,,,,,,3,,,40,0
81840,note_on,0,0,3,,,,,,,,,2,,,59,49
81840,note_on,120,0,3,,,,,,,,,2,,,63,0
81960,note_on,120,0,3,,,,,,,,,2,,,59,0
81960,note_on,0,0,1,,,,,,,,,0,,,81,62
81960,note_on,0,0,2,,,,,,,,,1,,,69,62
81960,note_on,360,0,2,,,,,,,,,1,,,66,0
81960,note_on,0,0,3,,,,,,,,,2,,,54,49
81960,note_on,360,0,1,,,,,,,,,0,,,78,0
82080,note_on,120,0,3,,,,,,,,,2,,,54,0
82080,note_on,240,0,4,,,,,,,,,3,,,40,62
82080,note_on,120,0,1,,,,,,,,,0,,,81,0
82080,note_on,0,0,2,,,,,,,,,1,,,68,62
82080,note_on,120,0,2,,,,,,,,,1,,,69,0
82080,note_on,0,0,3,,,,,,,,,2,,,56,49
82080,note_on,0,0,1,,,,,,,,,0,,,80,62
82200,note_on,120,0,3,,,,,,,,,2,,,56,0
82200,note_on,0,0,3,,,,,,,,,2,,,64,49
82320,note_on,120,0,3,,,,,,,,,2,,,64,0
82320,note_on,240,0,2,,,,,,,,,1,,,68,0
82320,note_on,240,0,4,,,,,,,,,3,,,40,0
82320,note_on,240,0,1,,,,,,,,,0,,,80,0
82320,note_on,0,0,3,,,,,,,,,2,,,59,49
82440,note_on,0,0,3,,,,,,,,,2,,,56,49
82440,note_on,120,0,3,,,,,,,,,2,,,59,0
82560,note_on,240,0,4,,,,,,,,,3,,,40,62
82560,note_on,120,0,3,,,,,,,,,2,,,56,0
82560,note_on,0,0,3,,,,,,,,,2,,,61,75
82560,note_on,240,0,2,,,,,,,,,1,,,69,62
82680,note_on,120,0,3,,,,,,,,,2,,,61,0
82680,note_on,0,0,3,,,,,,,,,2,,,64,49
82800,note_on,240,0,4,,,,,,,,,3,,,40,0
82800,note_on,0,0,3,,,,,,,,,2,,,61,49
82800,note_on,120,0,3,,,,,,,,,2,,,64,0
82920,note_on,120,0,3,,,,,,,,,2,,,61,0
82920,note_on,0,0,3,,,,,,,,,2,,,57,49
82920,note_on,360,0,2,,,,,,,,,1,,,69,0
82920,note_on,0,0,2,,,,,,,,,1,,,73,62
83040,note_on,120,0,2,,,,,,,,,1,,,73,0
83040,note_on,0,0,2,,,,,,,,,1,,,71,62
83040,note_on,120,0,3,,,,,,,,,2,,,57,0
83040,note_on,0,0,3,,,,,,,,,2,,,56,62
83040,note_on,240,0,4,,,,,,,,,3,,,40,75
83160,note_on,0,0,3,,,,,,,,,2,,,64,62
83160,note_on,120,0,3,,,,,,,,,2,,,56,0
83280,note_on,240,0,4,,,,,,,,,3,,,40,0
83280,note_on,240,0,2,,,,,,,,,1,,,71,0
83280,note_on,120,0,3,,,,,,,,,2,,,64,0
83280,note_on,0,0,3,,,,,,,,,2,,,59,62
83400,control_change,120,0,2,,,,,,,,,1,64,127,,
83400,note_on,0,0,2,,,,,,,,,1,,,71,75
83400,note_on,0,0,1,,,,,,,,,0,,,83,75
83400,note_on,120,0,3,,,,,,,,,2,,,59,0
83400,control_change,1080,0,1,,,,,,,,,0,64,127,,
83400,note_on,0,0,3,,,,,,,,,2,,,56,62
83520,note_on,0,0,4,,,,,,,,,3,,,52,75
83520,note_on,0,0,2,,,,,,,,,1,,,75,75
83520,note_on,0,0,3,,,,,,,,,2,,,57,88
83520,note_on,120,0,3,,,,,,,,,2,,,56,0
83520,note_on,120,0,1,,,,,,,,,0,,,83,0
83520,note_on,0,0,1,,,,,,,,,0,,,87,75
83520,note_on,120,0,2,,,,,,,,,1,,,71,0
83520,note_on,240,0,4,,,,,,,,,3,,,40,75
83640,note_on,120,0,3,,,,,,,,,2,,,57,0
83640,note_on,0,0,3,,,,,,,,,2,,,66,62
83760,note_on,120,0,3,,,,,,,,,2,,,66,0
83760,note_on,0,0,4,,,,,,,,,3,,,40,0
83760,note_on,240,0,4,,,,,,,,,3,,,52,0
83760,note_on,0,0,3,,,,,,,,,2,,,59,62
83880,note_on,360,0,2,,,,,,,,,1,,,75,0
83880,note_on,0,0,2,,,,,,,,,1,,,78,75
83880,note_on,360,0,1,,,,,,,,,0,,,87,0
83880,note_on,0,0,3,,,,,,,,,2,,,57,62
83880,note_on,120,0,3,,,,,,,,,2,,,59,0
83880,note_on,0,0,1,,,,,,,,,0,,,90,75
84000,note_on,120,0,3,,,,,,,,,2,,,57,0
84000,note_on,0,0,1,,,,,,,,,0,,,88,75
84000,control_change,0,0,1,,,,,,,,,0,64,0,,
84000,note_on,120,0,1,,,,,,,,,0,,,90,0
84000,note_on,0,0,3,,,,,,,,,2,,,56,49
84000,note_on,0,0,4,,,,,,,,,3,,,52,62
84000,note_on,0,0,2,,,,,,,,,1,,,76,75
84000,control_change,0,0,2,,,,,,,,,1,64,0,,
84000,note_on,240,0,4,,,,,,,,,3,,,40,62
84000,note_on,120,0,2,,,,,,,,,1,,,78,0
84120,note_on,120,0,3,,,,,,,,,2,,,56,0
84120,note_on,0,0,3,,,,,,,,,2,,,64,49
84240,note_on,0,0,4,,,,,,,,,3,,,40,0
84240,note_on,240,0,2,,,,,,,,,1,,,76,0
84240,note_on,240,0,1,,,,,,,,,0,,,88,0
84240,note_on,240,0,4,,,,,,,,,3,,,52,0
84240,note_on,120,0,3,,,,,,,,,2,,,64,0
84240,note_on,0,0,3,,,,,,,,,2,,,59,49
84360,note_on,0,0,3,,,,,,,,,2,,,56,49
84360,note_on,0,0,2,,,,,,,,,1,,,71,75
84360,control_change,120,0,2,,,,,,,,,1,64,127,,
84360,note_on,0,0,1,,,,,,,,,0,,,83,75
84360,control_change,120,0,1,,,,,,,,,0,64,127,,
84360,note_on,120,0,3,,,,,,,,,2,,,59,0
84480,note_on,120,0,3,,,,,,,,,2,,,56,0
84480,note_on,0,0,3,,,,,,,,,2,,,57,49
84480,note_on,120,0,2,,,,,,,,,1,,,71,0
84480,note_on,0,0,1,,,,,,,,,0,,,87,75
84480,note_on,120,0,1,,,,,,,,,0,,,83,0
84480,note_on,240,0,4,,,,,,,,,3,,,40,62
84480,note_on,0,0,2,,,,,,,,,1,,,75,75
84600,note_on,0,0,3,,,,,,,,,2,,,66,49
84600,note_on,120,0,3,,,,,,,,,2,,,57,0
84720,note_on,120,0,3,,,,,,,,,2,,,66,0
84720,note_on,240,0,4,,,,,,,,,3,,,40,0
84720,note_on,0,0,3,,,,,,,,,2,,,59,49
84840,note_on,120,0,3,,,,,,,,,2,,,59,0
84840,note_on,360,0,2,,,,,,,,,1,,,75,0
84840,note_on,0,0,2,,,,,,,,,1,,,78,75
84840,note_on,360,0,1,,,,,,,,,0,,,87,0
84840,note_on,0,0,1,,,,,,,,,0,,,90,75
84840,note_on,0,0,3,,,,,,,,,2,,,57,49
84960,note_on,120,0,1,,,,,,,,,0,,,90,0
84960,note_on,0,0,1,,,,,,,,,0,,,88,75
84960,control_change,0,0,1,,,,,,,,,0,64,0,,
84960,note_on,0,0,3,,,,,,,,,2,,,56,49
84960,note_on,0,0,2,,,,,,,,,1,,,76,75
84960,control_change,0,0,2,,,,,,,,,1,64,0,,
84960,note_on,120,0,2,,,,,,,,,1,,,78,0
84960,note_on,240,0,4,,,,,,,,,3,,,40,62
84960,note_on,120,0,3,,,,,,,,,2,,,57,0
85080,note_on,120,0,3,,,,,,,,,2,,,56,0
85080,note_on,0,0,3,,,,,,,,,2,,,64,49
85200,note_on,240,0,4,,,,,,,,,3,,,40,0
85200,note_on,0,0,3,,,,,,,,,2,,,59,49
85200,note_on,240,0,2,,,,,,,,,1,,,76,0
85200,note_on,240,0,1,,,,,,,,,0,,,88,0
85200,note_on,120,0,3,,,,,,,,,2,,,64,0
85320,note_on,120,0,2,,,,,,,,,1,,,71,62
85320,note_on,120,0,1,,,,,,,,,0,,,83,62
85320,note_on,0,0,3,,,,,,,,,2,,,68,49
85320,note_on,120,0,3,,,,,,,,,2,,,59,0
85440,note_on,120,0,3,,,,,,,,,2,,,68,0
85440,note_on,0,0,2,,,,,,,,,1,,,75,62
85440,note_on,120,0,2,,,,,,,,,1,,,71,0
85440,note_on,240,0,4,,,,,,,,,3,,,40,62
85440,note_on,0,0,3,,,,,,,,,2,,,66,49
85440,set_tempo,19920,1,0,,,,,,1200000,,,,,,,
85440,note_on,0,0,1,,,,,,,,,0,,,87,62
85440,note_on,120,0,1,,,,,,,,,0,,,83,0
85560,note_on,120,0,3,,,,,,,,,2,,,66,0
85560,note_on,0,0,3,,,,,,,,,2,,,63,49
85680,note_on,240,0,4,,,,,,,,,3,,,40,0
85680,note_on,0,0,3,,,,,,,,,2,,,59,49
85680,note_on,120,0,3,,,,,,,,,2,,,63,0
85800,note_on,120,0,3,,,,,,,,,2,,,59,0
85800,note_on,360,0,2,,,,,,,,,1,,,75,0
85800,note_on,0,0,3,,,,,,,,,2,,,63,49
85800,note_on,0,0,3,,,,,,,,,2,,,57,49
85800,note_on,360,0,1,,,,,,,,,0,,,87,0
85800,note_on,0,0,1,,,,,,,,,0,,,90,62
85800,note_on,0,0,2,,,,,,,,,1,,,78,62
85920,note_on,240,0,4,,,,,,,,,3,,,40,62
85920,note_on,0,0,2,,,,,,,,,1,,,76,62
85920,note_on,0,0,1,,,,,,,,,0,,,88,62
85920,note_on,120,0,1,,,,,,,,,0,,,90,0
85920,note_on,0,0,3,,,,,,,,,2,,,64,49
85920,note_on,120,0,2,,,,,,,,,1,,,78,0
85920,note_on,0,0,3,,,,,,,,,2,,,56,49
85920,note_on,120,0,3,,,,,,,,,2,,,63,0
85920,note_on,0,0,3,,,,,,,,,2,,,57,0
86040,note_on,120,0,3,,,,,,,,,2,,,64,0
86040,note_on,0,0,3,,,,,,,,,2,,,58,49
86040,control_change,0,0,3,,,,,,,,,2,64,127,,
86040,note_on,0,0,3,,,,,,,,,2,,,56,0
86160,note_on,0,0,3,,,,,,,,,2,,,59,49
86160,note_on,120,0,3,,,,,,,,,2,,,58,0
86160,note_on,240,0,1,,,,,,,,,0,,,88,0
86160,note_on,240,0,2,,,,,,,,,1,,,76,0
86280,note_on,120,0,3,,,,,,,,,2,,,59,0
86280,note_on,0,0,3,,,,,,,,,2,,,55,49
86400,note_on,0,0,2,,,,,,,,,1,,,76,62
86400,note_on,0,0,3,,,,,,,,,2,,,56,49
86400,note_on,0,0,2,,,,,,,,,1,,,71,62
86400,note_on,240,0,2,,,,,,,,,1,,,68,62
86400,note_on,0,0,1,,,,,,,,,0,,,83,62
86400,note_on,240,0,1,,,,,,,,,0,,,80,62
86400,note_on,120,0,3,,,,,,,,,2,,,55,0
86400,note_on,0,0,1,,,,,,,,,0,,,88,62
86520,note_on,0,0,3,,,,,,,,,2,,,51,49
86520,note_on,120,0,3,,,,,,,,,2,,,56,0
86640,note_on,0,0,1,,,,,,,,,0,,,83,0
86640,note_on,240,0,1,,,,,,,,,0,,,88,0
86640,note_on,240,0,2,,,,,,,,,1,,,76,0
86640,note_on,0,0,1,,,,,,,,,0,,,80,0
86640,note_on,0,0,2,,,,,,,,,1,,,68,0
86640,note_on,0,0,2,,,,,,,,,1,,,71,0
86640,note_on,120,0,3,,,,,,,,,2,,,51,0
86640,note_on,0,0,3,,,,,,,,,2,,,52,49
86760,note_on,120,0,3,,,,,,,,,2,,,52,0
86760,control_change,0,0,3,,,,,,,,,2,64,0,,
86760,note_on,0,0,3,,,,,,,,,2,,,55,49
86880,note_on,240,0,2,,,,,,,,,1,,,68,62
86880,note_on,0,0,2,,,,,,,,,1,,,71,62
86880,note_on,0,0,2,,,,,,,,,1,,,76,62
86880,note_on,240,0,1,,,,,,,,,0,,,80,62
86880,note_on,0,0,1,,,,,,,,,0,,,83,62
86880,note_on,0,0,1,,,,,,,,,0,,,88,62
86880,note_on,120,0,3,,,,,,,,,2,,,55,0
86880,control_change,0,0,3,,,,,,,,,2,64,127,,
86880,note_on,0,0,3,,,,,,,,,2,,,56,49
86880,set_tempo,1440,1,0,,,,,,1000000,,,,,,,
87000,note_on,120,0,3,,,,,,,,,2,,,56,0
87000,note_on,0,0,3,,,,,,,,,2,,,52,49
87120,note_on,0,0,3,,,,,,,,,2,,,56,49
87120,note_on,120,0,3,,,,,,,,,2,,,52,0
87240,note_on,120,0,3,,,,,,,,,2,,,56,0
87240,note_on,0,0,3,,,,,,,,,2,,,58,49
87360,note_on,480,0,2,,,,,,,,,1,,,76,0
87360,note_on,0,0,2,,,,,,,,,1,,,71,0
87360,note_on,0,0,2,,,,,,,,,1,,,68,0
87360,note_on,480,0,1,,,,,,,,,0,,,88,0
87360,note_on,0,0,1,,,,,,,,,0,,,83,0
87360,note_on,0,0,3,,,,,,,,,2,,,59,49
87360,note_on,120,0,3,,,,,,,,,2,,,58,0
87360,note_on,0,0,1,,,,,,,,,0,,,80,0
87480,note_on,0,0,3,,,,,,,,,2,,,56,49
87480,note_on,120,0,3,,,,,,,,,2,,,59,0
87600,note_on,240,0,1,,,,,,,,,0,,,86,62
87600,note_on,120,0,3,,,,,,,,,2,,,56,0
87600,note_on,0,0,3,,,,,,,,,2,,,59,49
87720,note_on,120,0,3,,,,,,,,,2,,,59,0
87720,control_change,0,0,3,,,,,,,,,2,64,0,,
87720,note_on,0,0,3,,,,,,,,,2,,,61,49
87720,note_on,0,0,1,,,,,,,,,0,,,88,62
87720,note_on,120,0,1,,,,,,,,,0,,,86,0
87840,note_on,0,0,4,,,,,,,,,3,,,52,62
87840,note_on,120,0,3,,,,,,,,,2,,,61,0
87840,note_on,0,0,3,,,,,,,,,2,,,62,49
87840,note_on,0,0,1,,,,,,,,,0,,,90,62
87840,note_on,120,0,1,,,,,,,,,0,,,88,0
87840,note_on,1920,0,4,,,,,,,,,3,,,40,0
87863,note_on,23,0,4,,,,,,,,,3,,,52,0
87960,note_on,0,0,3,,,,,,,,,2,,,65,49
87960,note_on,120,0,1,,,,,,,,,0,,,90,0
87960,note_on,120,0,3,,,,,,,,,2,,,62,0
87960,note_on,0,0,1,,,,,,,,,0,,,88,62
88080,note_on,120,0,3,,,,,,,,,2,,,65,0
88080,note_on,0,0,2,,,,,,,,,1,,,78,49
88080,note_on,720,0,2,,,,,,,,,1,,,74,49
88080,note_on,0,0,1,,,,,,,,,0,,,86,62
88080,note_on,0,0,3,,,,,,,,,2,,,66,49
88080,note_on,120,0,1,,,,,,,,,0,,,88,0
88200,note_on,0,0,1,,,,,,,,,0,,,82,62
88200,note_on,120,0,3,,,,,,,,,2,,,66,0
88200,note_on,0,0,3,,,,,,,,,2,,,61,49
88200,note_on,120,0,1,,,,,,,,,0,,,86,0
88320,note_on,457,0,4,,,,,,,,,3,,,52,62
88320,note_on,120,0,1,,,,,,,,,0,,,82,0
88320,note_on,0,0,1,,,,,,,,,0,,,83,62
88320,note_on,0,0,2,,,,,,,,,1,,,74,0
88320,note_on,240,0,2,,,,,,,,,1,,,78,0
88320,note_on,120,0,3,,,,,,,,,2,,,61,0
88320,note_on,0,0,3,,,,,,,,,2,,,62,49
88343,note_on,23,0,4,,,,,,,,,3,,,52,0
88440,note_on,120,0,1,,,,,,,,,0,,,83,0
88440,note_on,120,0,3,,,,,,,,,2,,,62,0
88440,note_on,0,0,3,,,,,,,,,2,,,58,49
88440,note_on,0,0,1,,,,,,,,,0,,,85,62
88560,note_on,120,0,3,,,,,,,,,2,,,58,0
88560,note_on,0,0,3,,,,,,,,,2,,,59,49
88560,note_on,120,0,1,,,,,,,,,0,,,85,0
88560,note_on,0,0,1,,,,,,,,,0,,,86,62
88560,note_on,240,0,2,,,,,,,,,1,,,78,49
88560,note_on,0,0,2,,,,,,,,,1,,,83,49
88680,note_on,120,0,1,,,,,,,,,0,,,86,0
88680,note_on,0,0,3,,,,,,,,,2,,,60,49
88680,note_on,120,0,3,,,,,,,,,2,,,59,0
88680,note_on,0,0,1,,,,,,,,,0,,,90,62
88800,note_on,120,0,1,,,,,,,,,0,,,90,0
88800,note_on,457,0,4,,,,,,,,,3,,,52,62
88800,note_on,0,0,1,,,,,,,,,0,,,88,62
88800,note_on,240,0,2,,,,,,,,,1,,,83,0
88800,note_on,120,0,3,,,,,,,,,2,,,60,0
88800,note_on,0,0,3,,,,,,,,,2,,,61,49
88800,note_on,0,0,2,,,,,,,,,1,,,78,0
88823,note_on,23,0,4,,,,,,,,,3,,,52,0
88920,note_on,0,0,3,,,,,,,,,2,,,63,49
88920,note_on,120,0,1,,,,,,,,,0,,,88,0
88920,note_on,0,0,1,,,,,,,,,0,,,84,62
88920,note_on,120,0,3,,,,,,,,,2,,,61,0
89040,note_on,240,0,2,,,,,,,,,1,,,73,49
89040,note_on,0,0,2,,,,,,,,,1,,,76,49
89040,note_on,120,0,3,,,,,,,,,2,,,63,0
89040,note_on,120,0,1,,,,,,,,,0,,,84,0
89040,note_on,0,0,1,,,,,,,,,0,,,85,62
89040,note_on,0,0,3,,,,,,,,,2,,,64,49
89160,note_on,120,0,3,,,,,,,,,2,,,64,0
89160,note_on,0,0,3,,,,,,,,,2,,,60,49
89160,note_on,0,0,1,,,,,,,,,0,,,80,62
89160,note_on,120,0,1,,,,,,,,,0,,,85,0
89280,note_on,0,0,1,,,,,,,,,0,,,81,62
89280,note_on,240,0,2,,,,,,,,,1,,,76,0
89280,note_on,0,0,3,,,,,,,,,2,,,61,49
89280,note_on,0,0,2,,,,,,,,,1,,,73,0
89280,note_on,120,0,3,,,,,,,,,2,,,60,0
89280,note_on,120,0,1,,,,,,,,,0,,,80,0
89280,note_on,457,0,4,,,,,,,,,3,,,52,62
89303,note_on,23,0,4,,,,,,,,,3,,,52,0
89400,note_on,0,0,1,,,,,,,,,0,,,83,62
89400,note_on,0,0,3,,,,,,,,,2,,,56,49
89400,note_on,120,0,3,,,,,,,,,2,,,61,0
89400,note_on,120,0,1,,,,,,,,,0,,,81,0
89520,note_on,0,0,1,,,,,,,,,0,,,85,62
89520,note_on,120,0,1,,,,,,,,,0,,,83,0
89520,note_on,240,0,2,,,,,,,,,1,,,76,49
89520,note_on,0,0,2,,,,,,,,,1,,,81,49
89520,note_on,0,0,3,,,,,,,,,2,,,57,49
89520,note_on,120,0,3,,,,,,,,,2,,,56,0
89640,note_on,0,0,3,,,,,,,,,2,,,58,49
89640,note_on,0,0,1,,,,,,,,,0,,,88,62
89640,note_on,120,0,1,,,,,,,,,0,,,85,0
89640,note_on,120,0,3,,,,,,,,,2,,,57,0
89760,note_on,240,0,2,,,,,,,,,1,,,81,0
89760,note_on,120,0,3,,,,,,,,,2,,,58,0
89760,note_on,0,0,2,,,,,,,,,1,,,76,0
89760,note_on,0,0,1,,,,,,,,,0,,,86,62
89760,note_on,120,0,1,,,,,,,,,0,,,88,0
89760,note_on,457,0,4,,,,,,,,,3,,,52,62
89760,note_on,0,0,3,,,,,,,,,2,,,59,49
89880,note_on,0,0,3,,,,,,,,,2,,,61,49
89880,note_on,0,0,1,,,,,,,,,0,,,82,62
89880,note_on,120,0,3,,,,,,,,,2,,,59,0
89880,note_on,120,0,1,,,,,,,,,0,,,86,0
90000,note_on,0,0,1,,,,,,,,,0,,,83,62
90000,note_on,240,0,4,,,,,,,,,3,,,52,0
90000,note_on,0,0,2,,,,,,,,,1,,,74,49
90000,note_on,0,0,2,,,,,,,,,1,,,76,49
90000,note_on,120,0,3,,,,,,,,,2,,,61,0
90000,note_on,120,0,1,,,,,,,,,0,,,82,0
90000,note_on,240,0,2,,,,,,,,,1,,,71,49
90000,note_on,0,0,3,,,,,,,,,2,,,62,49
90120,note_on,0,0,1,,,,,,,,,0,,,86,62
90120,note_on,0,0,3,,,,,,,,,2,,,56,49
90120,note_on,120,0,3,,,,,,,,,2,,,62,0
90120,note_on,120,0,1,,,,,,,,,0,,,83,0
90240,note_on,120,0,3,,,,,,,,,2,,,56,0
90240,note_on,0,0,3,,,,,,,,,2,,,57,49
90240,note_on,0,0,1,,,,,,,,,0,,,85,62
90240,note_on,120,0,1,,,,,,,,,0,,,86,0
90240,note_on,240,0,4,,,,,,,,,3,,,52,62
90240,note_on,240,0,2,,,,,,,,,1,,,76,0
90240,note_on,0,0,2,,,,,,,,,1,,,74,0
90240,note_on,0,0,2,,,,,,,,,1,,,71,0
90360,note_on,0,0,1,,,,,,,,,0,,,75,62
90360,note_on,120,0,3,,,,,,,,,2,,,57,0
90360,note_on,0,0,3,,,,,,,,,2,,,59,49
90360,note_on,120,0,1,,,,,,,,,0,,,85,0
90480,note_on,120,0,3,,,,,,,,,2,,,59,0
90480,note_on,0,0,3,,,,,,,,,2,,,61,49
90480,note_on,120,0,1,,,,,,,,,0,,,75,0
90480,note_on,0,0,2,,,,,,,,,1,,,76,49
90480,note_on,0,0,1,,,,,,,,,0,,,76,62
90480,note_on,240,0,2,,,,,,,,,1,,,69,49
90480,note_on,0,0,2,,,,,,,,,1,,,73,49
90480,note_on,240,0,4,,,,,,,,,3,,,52,0
90600,note_on,120,0,1,,,,,,,,,0,,,76,0
90600,note_on,0,0,1,,,,,,,,,0,,,85,62
90600,note_on,0,0,3,,,,,,,,,2,,,57,49
90600,note_on,120,0,3,,,,,,,,,2,,,61,0
90720,note_on,0,0,2,,,,,,,,,1,,,69,0
90720,note_on,0,0,3,,,,,,,,,2,,,56,49
90720,note_on,120,0,3,,,,,,,,,2,,,57,0
90720,note_on,0,0,2,,,,,,,,,1,,,73,0
90720,note_on,240,0,4,,,,,,,,,3,,,52,62
90720,note_on,0,0,1,,,,,,,,,0,,,83,62
90720,note_on,120,0,1,,,,,,,,,0,,,85,0
90720,note_on,0,0,2,,,,,,,,,1,,,76,49
90720,note_on,0,0,2,,,,,,,,,1,,,71,49
90720,note_on,240,0,2,,,,,,,,,1,,,76,0
90840,note_on,0,0,1,,,,,,,,,0,,,80,62
90840,note_on,120,0,3,,,,,,,,,2,,,56,0
90840,note_on,120,0,1,,,,,,,,,0,,,83,0
90840,note_on,0,0,3,,,,,,,,,2,,,59,49
90960,note_on,0,0,3,,,,,,,,,2,,,61,49
90960,note_on,240,0,4,,,,,,,,,3,,,52,0
90960,note_on,0,0,4,,,,,,,,,3,,,52,62
90960,note_on,240,0,2,,,,,,,,,1,,,76,0
90960,note_on,120,0,1,,,,,,,,,0,,,80,0
90960,note_on,0,0,2,,,,,,,,,1,,,71,49
90960,note_on,0,0,2,,,,,,,,,1,,,69,49
90960,note_on,0,0,1,,,,,,,,,0,,,81,62
90960,note_on,0,0,2,,,,,,,,,1,,,71,0
90960,note_on,120,0,3,,,,,,,,,2,,,59,0
91080,note_on,120,0,3,,,,,,,,,2,,,61,0
91080,note_on,0,0,3,,,,,,,,,2,,,63,49
91080,note_on,120,0,1,,,,,,,,,0,,,81,0
91080,note_on,0,0,1,,,,,,,,,0,,,78,62
91200,note_on,0,0,3,,,,,,,,,2,,,64,49
91200,note_on,120,0,1,,,,,,,,,0,,,78,0
91200,note_on,0,0,4,,,,,,,,,3,,,52,62
91200,note_on,240,0,4,,,,,,,,,3,,,52,0
91200,note_on,120,0,3,,,,,,,,,2,,,63,0
91200,note_on,0,0,1,,,,,,,,,0,,,76,62
91200,note_on,240,0,2,,,,,,,,,1,,,71,0
91200,note_on,0,0,2,,,,,,,,,1,,,69,0
91200,note_on,0,0,2,,,,,,,,,1,,,68,49
91200,note_on,0,0,2,,,,,,,,,1,,,71,49
91320,note_on,120,0,1,,,,,,,,,0,,,76,0
91320,note_on,0,0,1,,,,,,,,,0,,,75,62
91320,note_on,0,0,3,,,,,,,,,2,,,56,49
91320,note_on,120,0,3,,,,,,,,,2,,,64,0
91440,note_on,0,0,1,,,,,,,,,0,,,74,62
91440,note_on,120,0,1,,,,,,,,,0,,,75,0
91440,note_on,0,0,2,,,,,,,,,1,,,68,0
91440,note_on,240,0,2,,,,,,,,,1,,,71,0
91440,note_on,120,0,3,,,,,,,,,2,,,56,0
91440,note_on,0,0,3,,,,,,,,,2,,,59,49
91440,note_on,240,0,4,,,,,,,,,3,,,52,0
91560,note_on,120,0,3,,,,,,,,,2,,,59,0
91560,note_on,120,0,1,,,,,,,,,0,,,74,0
91560,note_on,0,0,1,,,,,,,,,0,,,76,62
91560,note_on,0,0,3,,,,,,,,,2,,,61,49
91680,note_on,240,0,2,,,,,,,,,1,,,78,62
91680,note_on,120,0,1,,,,,,,,,0,,,76,0
91680,note_on,0,0,3,,,,,,,,,2,,,62,49
91680,note_on,120,0,3,,,,,,,,,2,,,61,0
91680,note_on,240,0,4,,,,,,,,,3,,,40,62
91800,note_on,120,0,2,,,,,,,,,1,,,78,0
91800,note_on,0,0,2,,,,,,,,,1,,,73,62
91800,note_on,0,0,3,,,,,,,,,2,,,65,49
91800,note_on,120,0,3,,,,,,,,,2,,,62,0
91920,note_on,120,0,2,,,,,,,,,1,,,73,0
91920,note_on,0,0,2,,,,,,,,,1,,,74,62
91920,note_on,240,0,1,,,,,,,,,0,,,78,62
91920,note_on,0,0,3,,,,,,,,,2,,,66,49
91920,note_on,120,0,3,,,,,,,,,2,,,65,0
91920,note_on,240,0,4,,,,,,,,,3,,,40,0
92040,note_on,120,0,2,,,,,,,,,1,,,74,0
92040,note_on,0,0,2,,,,,,,,,1,,,70,62
92040,note_on,0,0,3,,,,,,,,,2,,,61,49
92040,note_on,120,0,3,,,,,,,,,2,,,66,0
92160,note_on,240,0,4,,,,,,,,,3,,,40,62
92160,note_on,120,0,2,,,,,,,,,1,,,70,0
92160,note_on,240,0,1,,,,,,,,,0,,,78,0
92160,note_on,0,0,2,,,,,,,,,1,,,71,62
92160,note_on,0,0,3,,,,,,,,,2,,,62,49
92160,note_on,120,0,3,,,,,,,,,2,,,61,0
92280,note_on,0,0,3,,,,,,,,,2,,,58,49
92280,note_on,120,0,3,,,,,,,,,2,,,62,0
92280,note_on,120,0,2,,,,,,,,,1,,,71,0
92280,note_on,0,0,2,,,,,,,,,1,,,73,62
92400,note_on,0,0,3,,,,,,,,,2,,,59,49
92400,note_on,240,0,4,,,,,,,,,3,,,40,0
92400,note_on,120,0,2,,,,,,,,,1,,,73,0
92400,note_on,0,0,2,,,,,,,,,1,,,74,62
92400,note_on,0,0,1,,,,,,,,,0,,,83,62
92400,note_on,240,0,1,,,,,,,,,0,,,78,62
92400,note_on,120,0,3,,,,,,,,,2,,,58,0
92520,note_on,0,0,2,,,,,,,,,1,,,75,62
92520,note_on,120,0,2,,,,,,,,,1,,,74,0
92520,note_on,120,0,3,,,,,,,,,2,,,59,0
92520,note_on,0,0,3,,,,,,,,,2,,,60,49
92640,note_on,0,0,2,,,,,,,,,1,,,76,62
92640,note_on,240,0,1,,,,,,,,,0,,,83,0
92640,note_on,120,0,2,,,,,,,,,1,,,75,0
92640,note_on,0,0,3,,,,,,,,,2,,,61,49
92640,note_on,120,0,3,,,,,,,,,2,,,60,0
92640,note_on,240,0,4,,,,,,,,,3,,,40,62
92640,note_on,0,0,1,,,,,,,,,0,,,78,0
92760,note_on,0,0,3,,,,,,,,,2,,,63,49
92760,note_on,120,0,3,,,,,,,,,2,,,61,0
92760,note_on,0,0,2,,,,,,,,,1,,,72,62
92760,note_on,120,0,2,,,,,,,,,1,,,76,0
92880,note_on,240,0,1,,,,,,,,,0,,,76,62
92880,note_on,0,0,2,,,,,,,,,1,,,73,62
92880,note_on,120,0,3,,,,,,,,,2,,,63,0
92880,note_on,0,0,3,,,,,,,,,2,,,64,49
92880,note_on,240,0,4,,,,,,,,,3,,,40,0
92880,note_on,120,0,2,,,,,,,,,1,,,72,0
93000,note_on,120,0,3,,,,,,,,,2,,,64,0
93000,note_on,0,0,3,,,,,,,,,2,,,60,49
93000,note_on,120,0,2,,,,,,,,,1,,,73,0
93000,note_on,0,0,2,,,,,,,,,1,,,68,62
93120,note_on,0,0,3,,,,,,,,,2,,,61,49
93120,note_on,120,0,3,,,,,,,,,2,,,60,0
93120,note_on,120,0,2,,,,,,,,,1,,,68,0
93120,note_on,240,0,4,,,,,,,,,3,,,40,62
93120,note_on,0,0,2,,,,,,,,,1,,,69,62
93120,note_on,240,0,1,,,,,,,,,0,,,76,0
93240,note_on,0,0,2,,,,,,,,,1,,,71,62
93240,note_on,0,0,3,,,,,,,,,2,,,56,49
93240,note_on,120,0,3,,,,,,,,,2,,,61,0
93240,note_on,120,0,2,,,,,,,,,1,,,69,0
93360,note_on,0,0,3,,,,,,,,,2,,,57,49
93360,note_on,120,0,3,,,,,,,,,2,,,56,0
93360,note_on,120,0,2,,,,,,,,,1,,,71,0
93360,note_on,0,0,2,,,,,,,,,1,,,73,62
93360,note_on,240,0,1,,,,,,,,,0,,,76,62
93360,note_on,240,0,4,,,,,,,,,3,,,40,0
93360,note_on,0,0,1,,,,,,,,,0,,,81,62
93480,note_on,0,0,3,,,,,,,,,2,,,61,49
93480,note_on,120,0,3,,,,,,,,,2,,,57,0
93480,note_on,120,0,2,,,,,,,,,1,,,73,0
93480,note_on,0,0,2,,,,,,,,,1,,,76,62
93600,note_on,240,0,1,,,,,,,,,0,,,81,0
93600,note_on,0,0,2,,,,,,,,,1,,,74,62
93600,note_on,120,0,3,,,,,,,,,2,,,61,0
93600,note_on,0,0,3,,,,,,,,,2,,,59,49
93600,note_on,120,0,2,,,,,,,,,1,,,76,0
93600,note_on,240,0,4,,,,,,,,,3,,,40,62
93600,note_on,0,0,1,,,,,,,,,0,,,76,0
93720,note_on,0,0,2,,,,,,,,,1,,,70,62
93720,note_on,120,0,2,,,,,,,,,1,,,74,0
93720,note_on,120,0,3,,,,,,,,,2,,,59,0
93720,note_on,0,0,3,,,,,,,,,2,,,61,49
93840,note_on,240,0,4,,,,,,,,,3,,,40,0
93840,note_on,0,0,1,,,,,,,,,0,,,86,62
93840,note_on,0,0,1,,,,,,,,,0,,,83,62
93840,note_on,240,0,1,,,,,,,,,0,,,76,62
93840,note_on,120,0,3,,,,,,,,,2,,,61,0
93840,note_on,120,0,2,,,,,,,,,1,,,70,0
93840,note_on,0,0,2,,,,,,,,,1,,,71,62
93840,note_on,0,0,3,,,,,,,,,2,,,62,49
93960,note_on,120,0,2,,,,,,,,,1,,,71,0
93960,note_on,0,0,2,,,,,,,,,1,,,74,62
93960,note_on,0,0,3,,,,,,,,,2,,,56,49
93960,note_on,120,0,3,,,,,,,,,2,,,62,0
94080,note_on,120,0,3,,,,,,,,,2,,,56,0
94080,note_on,120,0,2,,,,,,,,,1,,,74,0
94080,note_on,0,0,2,,,,,,,,,1,,,73,62
94080,note_on,240,0,4,,,,,,,,,3,,,40,62
94080,note_on,0,0,1,,,,,,,,,0,,,83,0
94080,note_on,240,0,1,,,,,,,,,0,,,86,0
94080,note_on,0,0,1,,,,,,,,,0,,,76,0
94080,note_on,0,0,3,,,,,,,,,2,,,57,49
94200,note_on,120,0,3,,,,,,,,,2,,,57,0
94200,note_on,0,0,3,,,,,,,,,2,,,60,49
94200,note_on,120,0,2,,,,,,,,,1,,,73,0
94200,note_on,0,0,2,,,,,,,,,1,,,63,62
94320,note_on,240,0,1,,,,,,,,,0,,,76,62
94320,note_on,240,0,4,,,,,,,,,3,,,40,0
94320,note_on,0,0,1,,,,,,,,,0,,,85,62
94320,note_on,0,0,1,,,,,,,,,0,,,81,62
94320,note_on,0,0,2,,,,,,,,,1,,,64,62
94320,note_on,0,0,3,,,,,,,,,2,,,61,49
94320,note_on,120,0,3,,,,,,,,,2,,,60,0
94320,note_on,120,0,2,,,,,,,,,1,,,63,0
94440,note_on,120,0,2,,,,,,,,,1,,,64,0
94440,note_on,0,0,2,,,,,,,,,1,,,73,62
94440,note_on,120,0,3,,,,,,,,,2,,,61,0
94440,note_on,0,0,3,,,,,,,,,2,,,57,49
94560,note_on,0,0,1,,,,,,,,,0,,,76,0
94560,note_on,240,0,1,,,,,,,,,0,,,85,0
94560,note_on,0,0,1,,,,,,,,,0,,,81,0
94560,note_on,0,0,1,,,,,,,,,0,,,80,62
94560,note_on,0,0,1,,,,,,,,,0,,,76,62
94560,note_on,240,0,4,,,,,,,,,3,,,40,62
94560,note_on,120,0,3,,,,,,,,,2,,,57,0
94560,note_on,0,0,3,,,,,,,,,2,,,56,49
94560,note_on,0,0,2,,,,,,,,,1,,,71,62
94560,note_on,0,0,1,,,,,,,,,0,,,83,62
94560,note_on,120,0,2,,,,,,,,,1,,,73,0
94680,note_on,120,0,2,,,,,,,,,1,,,71,0
94680,note_on,0,0,2,,,,,,,,,1,,,68,62
94680,note_on,120,0,3,,,,,,,,,2,,,56,0
94680,note_on,0,0,3,,,,,,,,,2,,,59,49
94800,note_on,120,0,2,,,,,,,,,1,,,68,0
94800,note_on,0,0,1,,,,,,,,,0,,,90,62
94800,note_on,0,0,1,,,,,,,,,0,,,83,62
94800,note_on,0,0,1,,,,,,,,,0,,,81,62
94800,note_on,0,0,1,,,,,,,,,0,,,76,0
94800,note_on,0,0,1,,,,,,,,,0,,,80,0
94800,note_on,240,0,1,,,,,,,,,0,,,83,0
94800,note_on,0,0,2,,,,,,,,,1,,,69,62
94800,note_on,240,0,4,,,,,,,,,3,,,40,0
94800,note_on,120,0,3,,,,,,,,,2,,,59,0
94800,note_on,0,0,4,,,,,,,,,3,,,40,62
94800,note_on,0,0,3,,,,,,,,,2,,,49,49
94920,note_on,120,0,3,,,,,,,,,2,,,49,0
94920,note_on,120,0,2,,,,,,,,,1,,,69,0
94920,note_on,0,0,3,,,,,,,,,2,,,51,49
94920,note_on,0,0,2,,,,,,,,,1,,,66,62
95040,note_on,120,0,2,,,,,,,,,1,,,66,0
95040,note_on,0,0,2,,,,,,,,,1,,,64,62
95040,note_on,0,0,1,,,,,,,,,0,,,83,0
95040,note_on,240,0,1,,,,,,,,,0,,,90,0
95040,note_on,0,0,1,,,,,,,,,0,,,80,62
95040,note_on,120,0,3,,,,,,,,,2,,,51,0
95040,note_on,0,0,1,,,,,,,,,0,,,88,62
95040,note_on,0,0,1,,,,,,,,,0,,,83,62
95040,note_on,0,0,4,,,,,,,,,3,,,40,62
95040,note_on,0,0,3,,,,,,,,,2,,,52,49
95040,note_on,240,0,4,,,,,,,,,3,,,40,0
95040,note_on,0,0,1,,,,,,,,,0,,,81,0
95160,note_on,0,0,2,,,,,,,,,1,,,66,62
95160,note_on,120,0,2,,,,,,,,,1,,,64,0
95280,note_on,240,0,4,,,,,,,,,3,,,40,0
95280,note_on,0,0,1,,,,,,,,,0,,,80,0
95280,note_on,240,0,1,,,,,,,,,0,,,88,0
95280,note_on,0,0,1,,,,,,,,,0,,,83,0
95280,note_on,0,0,3,,,,,,,,,2,,,52,49
95280,note_on,0,0,2,,,,,,,,,1,,,68,62
95280,note_on,240,0,3,,,,,,,,,2,,,52,0
95280,note_on,120,0,2,,,,,,,,,1,,,66,0
95400,note_on,0,0,3,,,,,,,,,2,,,54,49
95400,note_on,120,0,3,,,,,,,,,2,,,52,0
95400,note_on,0,0,2,,,,,,,,,1,,,69,62
95400,note_on,120,0,2,,,,,,,,,1,,,68,0
95520,note_on,120,0,2,,,,,,,,,1,,,69,0
95520,note_on,240,0,4,,,,,,,,,3,,,40,62
95520,note_on,0,0,2,,,,,,,,,1,,,71,62
95520,note_on,120,0,3,,,,,,,,,2,,,54,0
95520,note_on,0,0,3,,,,,,,,,2,,,56,49
95640,note_on,0,0,2,,,,,,,,,1,,,67,62
95640,note_on,120,0,3,,,,,,,,,2,,,56,0
95640,note_on,0,0,3,,,,,,,,,2,,,58,49
95640,note_on,120,0,2,,,,,,,,,1,,,71,0
95760,note_on,0,0,2,,,,,,,,,1,,,68,62
95760,note_on,120,0,3,,,,,,,,,2,,,58,0
95760,note_on,0,0,3,,,,,,,,,2,,,59,49
95760,note_on,120,0,2,,,,,,,,,1,,,67,0
95880,note_on,0,0,2,,,,,,,,,1,,,63,62
95880,note_on,120,0,3,,,,,,,,,2,,,59,0
95880,note_on,120,0,2,,,,,,,,,1,,,68,0
95880,note_on,0,0,3,,,,,,,,,2,,,55,49
96000,note_on,120,0,2,,,,,,,,,1,,,63,0
96000,note_on,0,0,2,,,,,,,,,1,,,64,75
96000,note_on,480,0,4,,,,,,,,,3,,,40,0
96000,note_on,120,0,3,,,,,,,,,2,,,55,0
96000,note_on,0,0,3,,,,,,,,,2,,,56,62
96120,note_on,0,0,2,,,,,,,,,1,,,68,75
96120,note_on,120,0,3,,,,,,,,,2,,,56,0
96120,note_on,120,0,2,,,,,,,,,1,,,64,0
96120,note_on,0,0,3,,,,,,,,,2,,,52,62
96240,note_on,120,0,2,,,,,,,,,1,,,68,0
96240,note_on,0,0,2,,,,,,,,,1,,,71,75
96240,note_on,120,0,3,,,,,,,,,2,,,52,0
96240,note_on,0,0,3,,,,,,,,,2,,,56,62
96360,note_on,120,0,2,,,,,,,,,1,,,71,0
96360,note_on,0,0,2,,,,,,,,,1,,,73,75
96360,note_on,0,0,3,,,,,,,,,2,,,58,62
96360,note_on,120,0,3,,,,,,,,,2,,,56,0
96480,note_on,0,0,3,,,,,,,,,2,,,59,62
96480,note_on,0,0,2,,,,,,,,,1,,,74,75
96480,note_on,480,0,4,,,,,,,,,3,,,40,62
96480,note_on,120,0,3,,,,,,,,,2,,,58,0
96480,note_on,120,0,2,,,,,,,,,1,,,73,0
96480,note_on,1200,0,1,,,,,,,,,0,,,76,75
96600,note_on,0,0,2,,,,,,,,,1,,,70,75
96600,note_on,120,0,2,,,,,,,,,1,,,74,0
96600,note_on,0,0,3,,,,,,,,,2,,,61,62
96600,note_on,120,0,3,,,,,,,,,2,,,59,0
96720,note_on,120,0,3,,,,,,,,,2,,,61,0
96720,note_on,0,0,2,,,,,,,,,1,,,71,75
96720,note_on,120,0,2,,,,,,,,,1,,,70,0
96720,note_on,0,0,3,,,,,,,,,2,,,62,62
96840,note_on,0,0,2,,,,,,,,,1,,,67,75
96840,note_on,120,0,2,,,,,,,,,1,,,71,0
96840,note_on,0,0,3,,,,,,,,,2,,,58,62
96840,note_on,120,0,3,,,,,,,,,2,,,62,0
96960,note_on,0,0,2,,,,,,,,,1,,,68,75
96960,note_on,120,0,2,,,,,,,,,1,,,67,0
96960,note_on,120,0,3,,,,,,,,,2,,,58,0
96960,note_on,480,0,4,,,,,,,,,3,,,40,0
96960,note_on,0,0,3,,,,,,,,,2,,,59,62
97080,note_on,120,0,2,,,,,,,,,1,,,68,0
97080,note_on,0,0,2,,,,,,,,,1,,,70,75
97080,note_on,120,0,3,,,,,,,,,2,,,59,0
97080,note_on,0,0,3,,,,,,,,,2,,,55,62
97200,note_on,0,0,2,,,,,,,,,1,,,71,75
97200,note_on,120,0,2,,,,,,,,,1,,,70,0
97200,note_on,120,0,3,,,,,,,,,2,,,55,0
97200,note_on,0,0,3,,,,,,,,,2,,,56,62
97320,note_on,0,0,3,,,,,,,,,2,,,58,62
97320,note_on,120,0,2,,,,,,,,,1,,,71,0
97320,note_on,0,0,2,,,,,,,,,1,,,73,75
97320,note_on,120,0,3,,,,,,,,,2,,,56,0
97440,note_on,120,0,3,,,,,,,,,2,,,58,0
97440,note_on,0,0,3,,,,,,,,,2,,,59,62
97440,note_on,480,0,4,,,,,,,,,3,,,40,62
97440,set_tempo,10560,1,0,,,,,,1200000,,,,,,,
97440,note_on,120,0,2,,,,,,,,,1,,,73,0
97440,note_on,0,0,2,,,,,,,,,1,,,74,75
97560,note_on,0,0,3,,,,,,,,,2,,,61,62
97560,note_on,120,0,2,,,,,,,,,1,,,74,0
97560,note_on,0,0,2,,,,,,,,,1,,,70,75
97560,note_on,120,0,3,,,,,,,,,2,,,59,0
97680,note_on,1200,0,1,,,,,,,,,0,,,76,0
97680,note_on,0,0,2,,,,,,,,,1,,,71,75
97680,note_on,120,0,2,,,,,,,,,1,,,70,0
97680,note_on,0,0,3,,,,,,,,,2,,,62,62
97680,note_on,120,0,3,,,,,,,,,2,,,61,0
97800,note_on,120,0,2,,,,,,,,,1,,,71,0
97800,note_on,0,0,2,,,,,,,,,1,,,67,75
97800,note_on,0,0,3,,,,,,,,,2,,,58,62
97800,note_on,120,0,3,,,,,,,,,2,,,62,0
97920,note_on,120,0,2,,,,,,,,,1,,,67,0
97920,note_on,0,0,2,,,,,,,,,1,,,68,75
97920,note_on,0,0,3,,,,,,,,,2,,,59,62
97920,note_on,120,0,3,,,,,,,,,2,,,58,0
98040,note_on,120,0,2,,,,,,,,,1,,,68,0
98040,note_on,600,0,4,,,,,,,,,3,,,40,0
98040,note_on,0,0,3,,,,,,,,,2,,,56,62
98040,note_on,120,0,3,,,,,,,,,2,,,59,0
98040,note_on,360,0,1,,,,,,,,,0,,,71,75
98040,note_on,0,0,4,,,,,,,,,3,,,50,62
98160,note_on,0,0,3,,,,,,,,,2,,,57,62
98160,note_on,120,0,4,,,,,,,,,3,,,50,0
98160,note_on,0,0,4,,,,,,,,,3,,,49,62
98160,note_on,120,0,1,,,,,,,,,0,,,71,0
98160,note_on,0,0,1,,,,,,,,,0,,,73,75
98160,note_on,120,0,3,,,,,,,,,2,,,56,0
98280,note_on,120,0,4,,,,,,,,,3,,,49,0
98280,note_on,0,0,4,,,,,,,,,3,,,47,62
98280,note_on,120,0,1,,,,,,,,,0,,,73,0
98280,note_on,120,0,3,,,,,,,,,2,,,57,0
98280,note_on,0,0,3,,,,,,,,,2,,,59,62
98280,note_on,0,0,1,,,,,,,,,0,,,74,75
98400,note_on,120,0,4,,,,,,,,,3,,,47,0
98400,note_on,120,0,3,,,,,,,,,2,,,59,0
98400,note_on,0,0,3,,,,,,,,,2,,,61,62
98400,note_on,0,0,4,,,,,,,,,3,,,45,62
98400,note_on,120,0,1,,,,,,,,,0,,,74,0
98400,control_change,0,0,1,,,,,,,,,0,64,127,,
98400,note_on,0,0,1,,,,,,,,,0,,,76,62
98400,set_tempo,960,1,0,,,,,,1000000,,,,,,,
98400,note_on,0,0,4,,,,,,,,,3,,,33,62
98520,note_on,0,0,3,,,,,,,,,2,,,52,62
98520,note_on,120,0,3,,,,,,,,,2,,,61,0
98640,note_on,0,0,3,,,,,,,,,2,,,57,62
98640,note_on,120,0,3,,,,,,,,,2,,,52,0
98640,note_on,240,0,1,,,,,,,,,0,,,76,0
98640,note_on,0,0,1,,,,,,,,,0,,,73,62
98760,note_on,0,0,3,,,,,,,,,2,,,59,62
98760,note_on,120,0,3,,,,,,,,,2,,,57,0
98880,note_on,240,0,1,,,,,,,,,0,,,73,0
98880,note_on,0,0,1,,,,,,,,,0,,,69,62
98880,note_on,0,0,3,,,,,,,,,2,,,61,62
98880,note_on,0,0,4,,,,,,,,,3,,,33,0
98880,note_on,120,0,3,,,,,,,,,2,,,59,0
98880,note_on,480,0,4,,,,,,,,,3,,,45,0
99000,note_on,120,0,3,,,,,,,,,2,,,61,0
99000,note_on,0,0,3,,,,,,,,,2,,,57,62
99120,note_on,0,0,1,,,,,,,,,0,,,66,62
99120,control_change,0,0,1,,,,,,,,,0,64,0,,
99120,note_on,240,0,1,,,,,,,,,0,,,69,0
99120,note_on,0,0,3,,,,,,,,,2,,,62,62
99120,note_on,120,0,3,,,,,,,,,2,,,57,0
99240,note_on,120,0,3,,,,,,,,,2,,,62,0
99240,note_on,0,0,3,,,,,,,,,2,,,57,62
99360,note_on,120,0,3,,,,,,,,,2,,,57,0
99360,note_on,240,0,1,,,,,,,,,0,,,66,0
99360,note_on,0,0,4,,,,,,,,,3,,,45,62
99360,note_on,480,0,4,,,,,,,,,3,,,33,62
99360,note_on,0,0,1,,,,,,,,,0,,,64,62
99360,note_on,0,0,3,,,,,,,,,2,,,61,62
99480,note_on,120,0,3,,,,,,,,,2,,,61,0
99480,note_on,0,0,3,,,,,,,,,2,,,57,62
99600,note_on,120,0,3,,,,,,,,,2,,,57,0
99600,note_on,0,0,3,,,,,,,,,2,,,56,62
99720,note_on,120,0,3,,,,,,,,,2,,,56,0
99720,note_on,0,0,3,,,,,,,,,2,,,54,62
99840,note_on,480,0,1,,,,,,,,,0,,,64,0
99840,note_on,480,0,4,,,,,,,,,3,,,45,0
99840,note_on,0,0,4,,,,,,,,,3,,,33,0
99840,note_on,0,0,1,,,,,,,,,0,,,61,62
99840,note_on,0,0,3,,,,,,,,,2,,,52,62
99840,note_on,120,0,3,,,,,,,,,2,,,54,0
99960,note_on,0,0,3,,,,,,,,,2,,,57,62
99960,note_on,120,0,3,,,,,,,,,2,,,52,0
100080,note_on,0,0,3,,,,,,,,,2,,,62,88
100080,note_on,0,0,1,,,,,,,,,0,,,66,88
100080,control_change,0,0,1,,,,,,,,,0,64,127,,
100080,note_on,240,0,1,,,,,,,,,0,,,61,0
100080,note_on,120,0,3,,,,,,,,,2,,,57,0
100200,note_on,120,0,3,,,,,,,,,2,,,62,0
100200,note_on,0,0,3,,,,,,,,,2,,,61,62
100260,note_on,0,0,1,,,,,,,,,0,,,64,62
100260,note_on,180,0,1,,,,,,,,,0,,,66,0
100320,note_on,480,0,4,,,,,,,,,3,,,40,62
100320,note_on,60,0,1,,,,,,,,,0,,,64,0
100320,note_on,0,0,1,,,,,,,,,0,,,62,62
100320,note_on,0,0,3,,,,,,,,,2,,,59,62
100320,note_on,120,0,3,,,,,,,,,2,,,61,0
100440,note_on,0,0,3,,,,,,,,,2,,,52,62
100440,note_on,120,0,3,,,,,,,,,2,,,59,0
100560,note_on,0,0,3,,,,,,,,,2,,,59,62
100560,note_on,120,0,3,,,,,,,,,2,,,52,0
100680,note_on,120,0,3,,,,,,,,,2,,,59,0
100680,note_on,0,0,3,,,,,,,,,2,,,57,62
100800,note_on,0,0,3,,,,,,,,,2,,,56,62
100800,note_on,120,0,3,,,,,,,,,2,,,57,0
100800,note_on,0,0,1,,,,,,,,,0,,,59,62
100800,control_change,0,0,1,,,,,,,,,0,64,0,,
100800,note_on,480,0,1,,,,,,,,,0,,,62,0
100800,note_on,480,0,4,,,,,,,,,3,,,40,0
100920,note_on,0,0,3,,,,,,,,,2,,,57,62
100920,note_on,120,0,3,,,,,,,,,2,,,56,0
101040,note_on,0,0,1,,,,,,,,,0,,,64,88
101040,note_on,240,0,1,,,,,,,,,0,,,59,0
101040,note_on,0,0,3,,,,,,,,,2,,,54,62
101040,note_on,120,0,3,,,,,,,,,2,,,57,0
101160,note_on,0,0,3,,,,,,,,,2,,,56,62
101160,note_on,120,0,3,,,,,,,,,2,,,54,0
101220,note_on,180,0,1,,,,,,,,,0,,,64,0
101220,note_on,0,0,1,,,,,,,,,0,,,62,62
101280,note_on,480,0,4,,,,,,,,,3,,,45,62
101280,note_on,0,0,3,,,,,,,,,2,,,57,49
101280,note_on,120,0,3,,,,,,,,,2,,,56,0
101280,note_on,60,0,1,,,,,,,,,0,,,62,0
101280,note_on,0,0,1,,,,,,,,,0,,,61,62
101400,note_on,120,0,3,,,,,,,,,2,,,57,0
101400,note_on,0,0,3,,,,,,,,,2,,,52,49
101520,note_on,0,0,3,,,,,,,,,2,,,59,49
101520,note_on,0,0,1,,,,,,,,,0,,,64,62
101520,note_on,240,0,1,,,,,,,,,0,,,61,0
101520,control_change,0,0,1,,,,,,,,,0,64,127,,
101520,note_on,120,0,3,,,,,,,,,2,,,52,0
101580,note_on,60,0,1,,,,,,,,,0,,,64,0
101580,note_on,0,0,1,,,,,,,,,0,,,62,62
101640,note_on,0,0,3,,,,,,,,,2,,,52,49
101640,note_on,0,0,1,,,,,,,,,0,,,61,62
101640,note_on,120,0,3,,,,,,,,,2,,,59,0
101640,note_on,60,0,1,,,,,,,,,0,,,62,0
101700,note_on,60,0,1,,,,,,,,,0,,,61,0
101700,note_on,0,0,1,,,,,,,,,0,,,62,62
101760,note_on,120,0,3,,,,,,,,,2,,,52,0
101760,note_on,0,0,3,,,,,,,,,2,,,61,49
101760,note_on,0,0,1,,,,,,,,,0,,,64,62
101760,control_change,0,0,1,,,,,,,,,0,64,0,,
101760,note_on,60,0,1,,,,,,,,,0,,,62,0
101880,note_on,0,0,3,,,,,,,,,2,,,52,49
101880,note_on,120,0,3,,,,,,,,,2,,,61,0
102000,note_on,720,0,4,,,,,,,,,3,,,45,0
102000,note_on,3960,0,2,,,,,,,,,1,,,73,62
102000,note_on,240,0,1,,,,,,,,,0,,,64,0
102000,note_on,0,0,1,,,,,,,,,0,,,85,62
102000,note_on,120,0,3,,,,,,,,,2,,,52,0
102000,note_on,0,0,3,,,,,,,,,2,,,57,49
102039,note_on,39,0,1,,,,,,,,,0,,,85,0
102039,note_on,0,0,1,,,,,,,,,0,,,86,62
102080,note_on,0,0,1,,,,,,,,,0,,,85,62
102080,note_on,41,0,1,,,,,,,,,0,,,86,0
102120,note_on,40,0,1,,,,,,,,,0,,,85,0
102120,note_on,0,0,1,,,,,,,,,0,,,83,62
102159,note_on,39,0,1,,,,,,,,,0,,,83,0
102159,note_on,0,0,1,,,,,,,,,0,,,85,62
102180,note_on,180,0,3,,,,,,,,,2,,,57,0
102180,note_on,180,0,2,,,,,,,,,1,,,73,0
102180,note_on,0,0,2,,,,,,,,,1,,,74,62
102180,note_on,0,0,3,,,,,,,,,2,,,59,49
102200,note_on,41,0,1,,,,,,,,,0,,,85,0
102200,note_on,0,0,1,,,,,,,,,0,,,86,62
102240,note_on,40,0,1,,,,,,,,,0,,,86,0
102240,control_change,0,0,1,,,,,,,,,0,64,127,,
102240,note_on,0,0,1,,,,,,,,,0,,,88,62
102240,note_on,60,0,2,,,,,,,,,1,,,74,0
102240,note_on,0,0,2,,,,,,,,,1,,,76,62
102240,note_on,240,0,4,,,,,,,,,3,,,33,62
102240,note_on,0,0,4,,,,,,,,,3,,,45,62
102240,note_on,60,0,3,,,,,,,,,2,,,59,0
102240,control_change,0,0,2,,,,,,,,,1,64,127,,
102240,note_on,0,0,3,,,,,,,,,2,,,61,49
102360,note_on,0,0,3,,,,,,,,,2,,,52,49
102360,note_on,120,0,3,,,,,,,,,2,,,61,0
102480,note_on,120,0,3,,,,,,,,,2,,,52,0
102480,note_on,240,0,2,,,,,,,,,1,,,76,0
102480,note_on,0,0,2,,,,,,,,,1,,,73,62
102480,note_on,0,0,1,,,,,,,,,0,,,85,62
102480,note_on,240,0,1,,,,,,,,,0,,,88,0
102480,note_on,0,0,3,,,,,,,,,2,,,57,49
102600,note_on,0,0,3,,,,,,,,,2,,,59,49
102600,note_on,120,0,3,,,,,,,,,2,,,57,0
102720,note_on,120,0,3,,,,,,,,,2,,,59,0
102720,note_on,0,0,3,,,,,,,,,2,,,61,49
102720,note_on,0,0,2,,,,,,,,,1,,,69,62
102720,note_on,240,0,2,,,,,,,,,1,,,73,0
102720,note_on,0,0,1,,,,,,,,,0,,,81,62
102720,note_on,240,0,1,,,,,,,,,0,,,85,0
102720,note_on,0,0,4,,,,,,,,,3,,,33,0
102720,note_on,480,0,4,,,,,,,,,3,,,45,0
102840,note_on,0,0,3,,,,,,,,,2,,,57,49
102840,note_on,120,0,3,,,,,,,,,2,,,61,0
102960,note_on,0,0,2,,,,,,,,,1,,,68,88
102960,note_on,240,0,1,,,,,,,,,0,,,81,0
102960,note_on,0,0,1,,,,,,,,,0,,,80,88
102960,note_on,0,0,4,,,,,,,,,3,,,45,62
102960,note_on,240,0,4,,,,,,,,,3,,,33,62
102960,note_on,0,0,3,,,,,,,,,2,,,62,75
102960,note_on,120,0,3,,,,,,,,,2,,,57,0
102960,note_on,240,0,2,,,,,,,,,1,,,69,0
103080,note_on,0,0,3,,,,,,,,,2,,,57,49
103080,note_on,120,0,3,,,,,,,,,2,,,62,0
103140,note_on,180,0,2,,,,,,,,,1,,,68,0
103140,control_change,0,0,2,,,,,,,,,1,64,0,,
103140,note_on,0,0,2,,,,,,,,,1,,,66,62
103140,note_on,0,0,1,,,,,,,,,0,,,78,62
103140,control_change,0,0,1,,,,,,,,,0,64,0,,
103140,note_on,180,0,1,,,,,,,,,0,,,80,0
103200,note_on,0,0,3,,,,,,,,,2,,,61,49
103200,note_on,120,0,3,,,,,,,,,2,,,57,0
103200,note_on,240,0,4,,,,,,,,,3,,,45,0
103200,note_on,0,0,4,,,,,,,,,3,,,33,0
103200,note_on,0,0,4,,,,,,,,,3,,,45,62
103200,note_on,0,0,4,,,,,,,,,3,,,33,62
103200,note_on,60,0,1,,,,,,,,,0,,,78,0
103200,note_on,0,0,1,,,,,,,,,0,,,76,62
103200,note_on,0,0,2,,,,,,,,,1,,,64,62
103200,note_on,60,0,2,,,,,,,,,1,,,66,0
103320,note_on,120,0,3,,,,,,,,,2,,,61,0
103320,note_on,0,0,3,,,,,,,,,2,,,57,49
103440,note_on,0,0,3,,,,,,,,,2,,,56,49
103440,note_on,120,0,3,,,,,,,,,2,,,57,0
103500,note_on,0,0,3,,,,,,,,,2,,,57,49
103500,note_on,60,0,3,,,,,,,,,2,,,56,0
103560,note_on,60,0,3,,,,,,,,,2,,,57,0
103560,note_on,0,0,3,,,,,,,,,2,,,56,49
103620,note_on,0,0,3,,,,,,,,,2,,,54,49
103620,note_on,60,0,3,,,,,,,,,2,,,56,0
103680,note_on,0,0,2,,,,,,,,,1,,,61,62
103680,note_on,480,0,2,,,,,,,,,1,,,64,0
103680,note_on,60,0,3,,,,,,,,,2,,,54,0
103680,note_on,0,0,3,,,,,,,,,2,,,52,49
103680,note_on,0,0,1,,,,,,,,,0,,,73,62
103680,note_on,480,0,1,,,,,,,,,0,,,76,0
103680,note_on,0,0,4,,,,,,,,,3,,,33,0
103680,note_on,480,0,4,,,,,,,,,3,,,45,0
103800,note_on,120,0,3,,,,,,,,,2,,,52,0
103800,note_on,0,0,3,,,,,,,,,2,,,53,49
103920,note_on,240,0,1,,,,,,,,,0,,,73,0
103920,note_on,0,0,1,,,,,,,,,0,,,78,88
103920,note_on,240,0,2,,,,,,,,,1,,,61,0
103920,note_on,240,0,4,,,,,,,,,3,,,34,62
103920,note_on,0,0,2,,,,,,,,,1,,,73,49
103920,note_on,120,0,3,,,,,,,,,2,,,53,0
103920,note_on,0,0,2,,,,,,,,,1,,,66,49
103920,note_on,0,0,3,,,,,,,,,2,,,54,75
103920,note_on,0,0,4,,,,,,,,,3,,,46,62
104040,note_on,0,0,3,,,,,,,,,2,,,61,49
104040,note_on,120,0,3,,,,,,,,,2,,,54,0
104100,note_on,180,0,1,,,,,,,,,0,,,78,0
104100,note_on,0,0,1,,,,,,,,,0,,,76,62
104160,note_on,0,0,1,,,,,,,,,0,,,74,62
104160,note_on,0,0,2,,,,,,,,,1,,,66,0
104160,note_on,0,0,2,,,,,,,,,1,,,66,49
104160,note_on,0,0,2,,,,,,,,,1,,,71,49
104160,note_on,120,0,3,,,,,,,,,2,,,61,0
104160,note_on,60,0,1,,,,,,,,,0,,,76,0
104160,note_on,240,0,2,,,,,,,,,1,,,73,0
104160,note_on,240,0,4,,,,,,,,,3,,,46,0
104160,note_on,0,0,4,,,,,,,,,3,,,47,62
104160,note_on,0,0,4,,,,,,,,,3,,,35,62
104160,note_on,0,0,4,,,,,,,,,3,,,34,0
104160,control_change,0,0,1,,,,,,,,,0,64,127,,
104280,note_on,120,0,3,,,,,,,,,2,,,54,49
104400,note_on,120,0,3,,,,,,,,,2,,,54,0
104400,note_on,0,0,4,,,,,,,,,3,,,35,0
104400,note_on,240,0,4,,,,,,,,,3,,,47,0
104400,note_on,0,0,3,,,,,,,,,2,,,59,49
104520,note_on,120,0,3,,,,,,,,,2,,,59,0
104520,note_on,360,0,1,,,,,,,,,0,,,74,0
104520,note_on,0,0,1,,,,,,,,,0,,,73,62
104520,note_on,0,0,3,,,,,,,,,2,,,61,49
104640,note_on,0,0,3,,,,,,,,,2,,,62,49
104640,note_on,480,0,2,,,,,,,,,1,,,71,0
104640,note_on,0,0,2,,,,,,,,,1,,,66,0
104640,note_on,240,0,4,,,,,,,,,3,,,40,62
104640,note_on,120,0,3,,,,,,,,,2,,,61,0
104640,note_on,120,0,1,,,,,,,,,0,,,73,0
104640,note_on,0,0,1,,,,,,,,,0,,,71,62
104760,note_on,0,0,3,,,,,,,,,2,,,56,49
104760,note_on,120,0,3,,,,,,,,,2,,,62,0
104820,note_on,0,0,1,,,,,,,,,0,,,76,62
104820,note_on,180,0,1,,,,,,,,,0,,,71,0
104850,note_on,0,0,1,,,,,,,,,0,,,80,62
104850,note_on,30,0,1,,,,,,,,,0,,,76,0
104880,note_on,0,0,1,,,,,,,,,0,,,83,62
104880,note_on,30,0,1,,,,,,,,,0,,,80,0
104880,note_on,0,0,2,,,,,,,,,1,,,71,49
104880,note_on,0,0,2,,,,,,,,,1,,,74,49
104880,note_on,120,0,3,,,,,,,,,2,,,56,0
104880,note_on,240,0,4,,,,,,,,,3,,,40,0
104880,note_on,240,0,2,,,,,,,,,1,,,64,49
104880,note_on,0,0,3,,,,,,,,,2,,,59,49
105000,note_on,0,0,3,,,,,,,,,2,,,62,49
105000,note_on,120,0,3,,,,,,,,,2,,,59,0
105060,control_change,0,0,1,,,,,,,,,0,64,0,,
105060,note_on,180,0,1,,,,,,,,,0,,,83,0
105060,note_on,0,0,1,,,,,,,,,0,,,80,62
105120,note_on,240,0,2,,,,,,,,,1,,,74,0
105120,note_on,0,0,2,,,,,,,,,1,,,69,49
105120,note_on,0,0,3,,,,,,,,,2,,,61,49
105120,note_on,120,0,3,,,,,,,,,2,,,62,0
105120,note_on,60,0,1,,,,,,,,,0,,,80,0
105120,note_on,0,0,2,,,,,,,,,1,,,64,0
105120,note_on,0,0,2,,,,,,,,,1,,,71,0
105120,note_on,0,0,1,,,,,,,,,0,,,81,62
105120,note_on,240,0,4,,,,,,,,,3,,,45,62
105120,note_on,0,0,2,,,,,,,,,1,,,73,49
105120,note_on,0,0,2,,,,,,,,,1,,,64,49
105240,note_on,0,0,3,,,,,,,,,2,,,57,49
105240,note_on,120,0,3,,,,,,,,,2,,,61,0
105360,note_on,120,0,3,,,,,,,,,2,,,57,0
105360,note_on,0,0,3,,,,,,,,,2,,,52,49
105420,note_on,60,0,3,,,,,,,,,2,,,52,0
105420,note_on,0,0,3,,,,,,,,,2,,,54,49
105480,note_on,60,0,3,,,,,,,,,2,,,54,0
105480,note_on,0,0,3,,,,,,,,,2,,,52,49
105540,note_on,0,0,3,,,,,,,,,2,,,50,49
105540,note_on,60,0,3,,,,,,,,,2,,,52,0
105600,note_on,0,0,3,,,,,,,,,2,,,49,49
105600,note_on,0,0,2,,,,,,,,,1,,,64,0
105600,note_on,0,0,2,,,,,,,,,1,,,69,0
105600,note_on,480,0,2,,,,,,,,,1,,,73,0
105600,note_on,480,0,1,,,,,,,,,0,,,81,0
105600,note_on,60,0,3,,,,,,,,,2,,,50,0
105720,note_on,0,0,3,,,,,,,,,2,,,52,49
105720,note_on,120,0,3,,,,,,,,,2,,,49,0
105840,note_on,0,0,1,,,,,,,,,0,,,69,62
105840,note_on,0,0,3,,,,,,,,,2,,,54,49
105840,note_on,120,0,3,,,,,,,,,2,,,52,0
105840,control_change,240,0,1,,,,,,,,,0,64,127,,
105840,note_on,720,0,4,,,,,,,,,3,,,45,0
105900,note_on,60,0,1,,,,,,,,,0,,,69,0
105900,note_on,0,0,1,,,,,,,,,0,,,71,62
105960,note_on,60,0,1,,,,,,,,,0,,,71,0
105960,note_on,0,0,1,,,,,,,,,0,,,69,62
106020,note_on,60,0,1,,,,,,,,,0,,,69,0
106020,note_on,0,0,3,,,,,,,,,2,,,56,49
106020,note_on,0,0,1,,,,,,,,,0,,,68,62
106020,note_on,180,0,3,,,,,,,,,2,,,54,0
106080,note_on,60,0,1,,,,,,,,,0,,,68,0
106080,note_on,0,0,3,,,,,,,,,2,,,57,49
106080,note_on,60,0,3,,,,,,,,,2,,,56,0
106080,control_change,0,0,1,,,,,,,,,0,64,0,,
106080,note_on,0,0,1,,,,,,,,,0,,,66,62
106200,note_on,0,0,3,,,,,,,,,2,,,47,49
106200,note_on,120,0,3,,,,,,,,,2,,,57,0
106320,control_change,720,0,2,,,,,,,,,1,64,127,,
106320,note_on,0,0,3,,,,,,,,,2,,,54,49
106320,note_on,240,0,1,,,,,,,,,0,,,66,0
106320,control_change,0,0,1,,,,,,,,,0,64,127,,
106320,note_on,0,0,1,,,,,,,,,0,,,73,75
106320,note_on,0,0,1,,,,,,,,,0,,,75,75
106320,note_on,0,0,4,,,,,,,,,3,,,35,62
106320,control_change,480,0,4,,,,,,,,,3,64,127,,
106320,note_on,0,0,2,,,,,,,,,1,,,69,62
106320,note_on,120,0,3,,,,,,,,,2,,,47,0
106440,note_on,0,0,3,,,,,,,,,2,,,47,49
106440,note_on,120,0,3,,,,,,,,,2,,,54,0
106560,note_on,0,0,1,,,,,,,,,0,,,75,88
106560,note_on,240,0,1,,,,,,,,,0,,,75,0
106560,note_on,0,0,1,,,,,,,,,0,,,71,88
106560,note_on,240,0,2,,,,,,,,,1,,,69,0
106560,note_on,0,0,1,,,,,,,,,0,,,73,0
106560,note_on,240,0,4,,,,,,,,,3,,,35,0
106560,note_on,120,0,3,,,,,,,,,2,,,47,0
106560,note_on,0,0,3,,,,,,,,,2,,,56,62
106560,note_on,0,0,2,,,,,,,,,1,,,68,75
106560,note_on,0,0,4,,,,,,,,,3,,,35,75
106680,note_on,120,0,3,,,,,,,,,2,,,56,0
106680,note_on,0,0,3,,,,,,,,,2,,,57,62
106800,note_on,120,0,3,,,,,,,,,2,,,57,0
106800,note_on,0,0,3,,,,,,,,,2,,,59,62
106800,control_change,0,0,2,,,,,,,,,1,64,0,,
106800,note_on,240,0,2,,,,,,,,,1,,,68,0
106800,note_on,0,0,2,,,,,,,,,1,,,66,75
106800,control_change,0,0,4,,,,,,,,,3,64,0,,
106800,note_on,0,0,4,,,,,,,,,3,,,35,75
106800,note_on,240,0,1,,,,,,,,,0,,,75,0
106800,note_on,0,0,1,,,,,,,,,0,,,71,0
106800,note_on,0,0,1,,,,,,,,,0,,,69,88
106800,note_on,0,0,1,,,,,,,,,0,,,75,88
106800,control_change,0,0,1,,,,,,,,,0,64,0,,
106800,note_on,240,0,4,,,,,,,,,3,,,35,0
106920,note_on,0,0,3,,,,,,,,,2,,,47,62
106920,note_on,120,0,3,,,,,,,,,2,,,59,0
107040,note_on,240,0,1,,,,,,,,,0,,,75,0
107040,note_on,0,0,1,,,,,,,,,0,,,69,0
107040,note_on,0,0,2,,,,,,,,,1,,,66,75
107040,note_on,240,0,2,,,,,,,,,1,,,66,0
107040,note_on,240,0,4,,,,,,,,,3,,,35,0
107040,note_on,0,0,1,,,,,,,,,0,,,75,88
107040,note_on,120,0,3,,,,,,,,,2,,,47,0
107040,note_on,0,0,4,,,,,,,,,3,,,35,75
107087,note_on,0,0,1,,,,,,,,,0,,,76,88
107087,note_on,47,0,1,,,,,,,,,0,,,75,0
107136,note_on,49,0,1,,,,,,,,,0,,,76,0
107136,note_on,0,0,1,,,,,,,,,0,,,75,88
107160,note_on,120,0,3,,,,,,,,,2,,,47,62
107183,note_on,47,0,1,,,,,,,,,0,,,75,0
107183,note_on,0,0,1,,,,,,,,,0,,,73,88
107232,note_on,49,0,1,,,,,,,,,0,,,73,0
107232,note_on,0,0,1,,,,,,,,,0,,,75,88
107280,note_on,0,0,3,,,,,,,,,2,,,57,62
107280,note_on,0,0,2,,,,,,,,,1,,,63,75
107280,note_on,240,0,2,,,,,,,,,1,,,66,0
107280,note_on,0,0,3,,,,,,,,,2,,,59,62
107280,note_on,120,0,3,,,,,,,,,2,,,47,0
107280,note_on,0,0,1,,,,,,,,,0,,,78,88
107280,note_on,48,0,1,,,,,,,,,0,,,75,0
107460,note_on,0,0,3,,,,,,,,,2,,,56,62
107460,note_on,0,0,2,,,,,,,,,1,,,64,75
107460,note_on,180,0,2,,,,,,,,,1,,,63,0
107460,note_on,420,0,4,,,,,,,,,3,,,35,0
107460,note_on,0,0,3,,,,,,,,,2,,,57,0
107460,note_on,180,0,3,,,,,,,,,2,,,59,0
107460,note_on,0,0,4,,,,,,,,,3,,,40,75
107460,note_on,180,0,1,,,,,,,,,0,,,78,0
107460,note_on,0,0,1,,,,,,,,,0,,,76,75
107520,note_on,0,0,1,,,,,,,,,0,,,76,75
107520,note_on,60,0,4,,,,,,,,,3,,,40,0
107520,note_on,0,0,3,,,,,,,,,2,,,59,49
107520,note_on,0,0,3,,,,,,,,,2,,,56,49
107520,note_on,0,0,4,,,,,,,,,3,,,40,62
107520,note_on,60,0,3,,,,,,,,,2,,,56,0
107520,note_on,0,0,2,,,,,,,,,1,,,64,75
107520,note_on,60,0,1,,,,,,,,,0,,,76,0
107520,note_on,60,0,2,,,,,,,,,1,,,64,0
107640,note_on,0,0,3,,,,,,,,,2,,,47,49
107640,note_on,0,0,3,,,,,,,,,2,,,56,0
107640,note_on,120,0,3,,,,,,,,,2,,,59,0
107760,note_on,0,0,3,,,,,,,,,2,,,52,49
107760,note_on,120,0,3,,,,,,,,,2,,,47,0
107760,note_on,240,0,2,,,,,,,,,1,,,64,0
107760,note_on,240,0,1,,,,,,,,,0,,,76,0
107760,control_change,0,0,1,,,,,,,,,0,64,127,,
107760,note_on,0,0,1,,,,,,,,,0,,,67,62
107760,note_on,240,0,4,,,,,,,,,3,,,40,0
107820,note_on,60,0,1,,,,,,,,,0,,,67,0
107820,note_on,0,0,1,,,,,,,,,0,,,69,62
107880,note_on,60,0,1,,,,,,,,,0,,,69,0
107880,note_on,0,0,1,,,,,,,,,0,,,67,62
107940,note_on,0,0,1,,,,,,,,,0,,,66,62
107940,note_on,180,0,3,,,,,,,,,2,,,52,0
107940,note_on,0,0,3,,,,,,,,,2,,,54,49
107940,note_on,60,0,1,,,,,,,,,0,,,67,0
108000,control_change,0,0,3,,,,,,,,,2,64,127,,
108000,note_on,0,0,1,,,,,,,,,0,,,64,62
108000,control_change,0,0,1,,,,,,,,,0,64,0,,
108000,note_on,60,0,1,,,,,,,,,0,,,66,0
108000,note_on,60,0,3,,,,,,,,,2,,,54,0
108000,note_on,0,0,3,,,,,,,,,2,,,55,49
108120,note_on,120,0,3,,,,,,,,,2,,,55,0
108120,note_on,0,0,3,,,,,,,,,2,,,45,49
108240,control_change,480,0,4,,,,,,,,,3,64,127,,
108240,note_on,0,0,4,,,,,,,,,3,,,33,62
108240,note_on,480,0,2,,,,,,,,,1,,,67,75
108240,note_on,240,0,1,,,,,,,,,0,,,64,0
108240,control_change,0,0,1,,,,,,,,,0,64,127,,
108240,note_on,0,0,1,,,,,,,,,0,,,71,62
108240,note_on,0,0,1,,,,,,,,,0,,,73,62
108240,note_on,120,0,3,,,,,,,,,2,,,45,0
108240,note_on,0,0,3,,,,,,,,,2,,,52,49
108360,note_on,0,0,3,,,,,,,,,2,,,45,49
108360,note_on,120,0,3,,,,,,,,,2,,,52,0
108480,note_on,240,0,1,,,,,,,,,0,,,73,0
108480,note_on,0,0,4,,,,,,,,,3,,,33,75
108480,note_on,0,0,2,,,,,,,,,1,,,66,75
108480,note_on,120,0,3,,,,,,,,,2,,,45,0
108480,note_on,0,0,3,,,,,,,,,2,,,54,62
108480,note_on,0,0,1,,,,,,,,,0,,,71,0
108480,note_on,0,0,1,,,,,,,,,0,,,69,75
108480,note_on,0,0,1,,,,,,,,,0,,,73,75
108480,note_on,240,0,4,,,,,,,,,3,,,33,0
108480,note_on,240,0,2,,,,,,,,,1,,,67,0
108600,note_on,120,0,3,,,,,,,,,2,,,54,0
108600,note_on,0,0,3,,,,,,,,,2,,,55,62
108720,note_on,240,0,1,,,,,,,,,0,,,73,0
108720,note_on,0,0,1,,,,,,,,,0,,,69,0
108720,control_change,0,0,4,,,,,,,,,3,64,0,,
108720,note_on,0,0,1,,,,,,,,,0,,,73,88
108720,note_on,0,0,2,,,,,,,,,1,,,64,75
108720,control_change,0,0,1,,,,,,,,,0,64,0,,
108720,note_on,0,0,4,,,,,,,,,3,,,33,75
108720,note_on,0,0,1,,,,,,,,,0,,,67,88
108720,note_on,240,0,4,,,,,,,,,3,,,33,0
108720,note_on,120,0,3,,,,,,,,,2,,,55,0
108720,note_on,0,0,3,,,,,,,,,2,,,57,62
108720,note_on,240,0,2,,,,,,,,,1,,,66,0
108840,note_on,120,0,3,,,,,,,,,2,,,57,0
108840,control_change,0,0,3,,,,,,,,,2,64,0,,
108840,note_on,0,0,3,,,,,,,,,2,,,45,62
108960,note_on,240,0,1,,,,,,,,,0,,,73,0
108960,note_on,0,0,4,,,,,,,,,3,,,33,75
108960,note_on,240,0,4,,,,,,,,,3,,,33,0
108960,note_on,0,0,1,,,,,,,,,0,,,67,0
108960,note_on,0,0,1,,,,,,,,,0,,,73,88
108960,note_on,0,0,2,,,,,,,,,1,,,64,75
108960,note_on,120,0,3,,,,,,,,,2,,,45,0
108960,note_on,240,0,2,,,,,,,,,1,,,64,0
109007,note_on,0,0,1,,,,,,,,,0,,,74,88
109007,note_on,47,0,1,,,,,,,,,0,,,73,0
109056,note_on,49,0,1,,,,,,,,,0,,,74,0
109056,note_on,0,0,1,,,,,,,,,0,,,73,88
109080,note_on,120,0,3,,,,,,,,,2,,,45,62
109103,note_on,0,0,1,,,,,,,,,0,,,71,88
109103,note_on,47,0,1,,,,,,,,,0,,,73,0
109152,note_on,0,0,1,,,,,,,,,0,,,73,88
109152,note_on,49,0,1,,,,,,,,,0,,,71,0
109200,note_on,120,0,3,,,,,,,,,2,,,45,0
109200,note_on,0,0,2,,,,,,,,,1,,,61,75
109200,note_on,240,0,2,,,,,,,,,1,,,64,0
109200,note_on,0,0,1,,,,,,,,,0,,,76,88
109200,note_on,48,0,1,,,,,,,,,0,,,73,0
109200,note_on,0,0,3,,,,,,,,,2,,,55,62
109200,note_on,0,0,3,,,,,,,,,2,,,57,62
109380,note_on,420,0,4,,,,,,,,,3,,,33,0
109380,note_on,0,0,1,,,,,,,,,0,,,74,75
109380,note_on,180,0,1,,,,,,,,,0,,,76,0
109380,note_on,180,0,3,,,,,,,,,2,,,57,0
109380,note_on,0,0,2,,,,,,,,,1,,,62,75
109380,note_on,180,0,2,,,,,,,,,1,,,61,0
109380,note_on,0,0,4,,,,,,,,,3,,,38,75
109380,note_on,0,0,3,,,,,,,,,2,,,55,0
109380,note_on,0,0,3,,,,,,,,,2,,,54,62
109440,note_on,0,0,2,,,,,,,,,1,,,62,75
109440,note_on,60,0,2,,,,,,,,,1,,,62,0
109440,note_on,60,0,1,,,,,,,,,0,,,74,0
109440,note_on,60,0,4,,,,,,,,,3,,,38,0
109440,note_on,0,0,4,,,,,,,,,3,,,38,62
109440,note_on,60,0,3,,,,,,,,,2,,,54,0
109440,note_on,0,0,3,,,,,,,,,2,,,54,49
109440,note_on,0,0,3,,,,,,,,,2,,,57,49
109440,note_on,0,0,1,,,,,,,,,0,,,74,75
109560,note_on,120,0,3,,,,,,,,,2,,,57,0
109560,note_on,0,0,3,,,,,,,,,2,,,45,49
109560,note_on,0,0,3,,,,,,,,,2,,,54,0
109680,note_on,240,0,4,,,,,,,,,3,,,38,0
109680,note_on,0,0,4,,,,,,,,,3,,,47,62
109680,note_on,240,0,1,,,,,,,,,0,,,74,0
109680,note_on,0,0,3,,,,,,,,,2,,,59,49
109680,note_on,0,0,3,,,,,,,,,2,,,54,49
109680,note_on,0,0,1,,,,,,,,,0,,,74,62
109680,note_on,240,0,2,,,,,,,,,1,,,62,0
109680,note_on,0,0,4,,,,,,,,,3,,,35,62
109680,note_on,0,0,2,,,,,,,,,1,,,62,75
109680,note_on,120,0,3,,,,,,,,,2,,,45,0
109800,note_on,120,0,3,,,,,,,,,2,,,59,0
109800,note_on,0,0,3,,,,,,,,,2,,,54,0
109800,note_on,0,0,3,,,,,,,,,2,,,50,49
109860,note_on,0,0,1,,,,,,,,,0,,,76,62
109860,note_on,0,0,2,,,,,,,,,1,,,64,75
109860,note_on,180,0,2,,,,,,,,,1,,,62,0
109860,note_on,180,0,1,,,,,,,,,0,,,74,0
109920,note_on,0,0,2,,,,,,,,,1,,,66,75
109920,note_on,60,0,2,,,,,,,,,1,,,64,0
109920,note_on,0,0,1,,,,,,,,,0,,,78,62
109920,note_on,60,0,1,,,,,,,,,0,,,76,0
109920,note_on,240,0,4,,,,,,,,,3,,,47,0
109920,note_on,0,0,4,,,,,,,,,3,,,35,0
109920,note_on,0,0,4,,,,,,,,,3,,,34,62
109920,note_on,0,0,4,,,,,,,,,3,,,46,62
109920,note_on,120,0,3,,,,,,,,,2,,,50,0
110040,note_on,120,0,3,,,,,,,,,2,,,49,49
110160,note_on,0,0,3,,,,,,,,,2,,,54,49
110160,note_on,120,0,3,,,,,,,,,2,,,49,0
110160,note_on,0,0,3,,,,,,,,,2,,,61,49
110280,note_on,360,0,1,,,,,,,,,0,,,78,0
110280,note_on,0,0,1,,,,,,,,,0,,,78,62
110280,note_on,120,0,3,,,,,,,,,2,,,61,0
110280,note_on,0,0,3,,,,,,,,,2,,,49,49
110280,note_on,360,0,2,,,,,,,,,1,,,66,0
110280,note_on,0,0,2,,,,,,,,,1,,,66,75
110280,note_on,0,0,3,,,,,,,,,2,,,54,0
110400,note_on,120,0,3,,,,,,,,,2,,,49,0
110400,note_on,120,0,2,,,,,,,,,1,,,66,0
110400,note_on,0,0,2,,,,,,,,,1,,,69,75
110400,note_on,480,0,4,,,,,,,,,3,,,46,0
110400,note_on,0,0,4,,,,,,,,,3,,,34,0
110400,note_on,0,0,4,,,,,,,,,3,,,33,62
110400,note_on,0,0,4,,,,,,,,,3,,,45,62
110400,note_on,120,0,1,,,,,,,,,0,,,78,0
110400,note_on,0,0,1,,,,,,,,,0,,,81,62
110520,note_on,120,0,3,,,,,,,,,2,,,49,49
110580,note_on,0,0,1,,,,,,,,,0,,,79,62
110580,note_on,180,0,1,,,,,,,,,0,,,81,0
110580,note_on,180,0,2,,,,,,,,,1,,,69,0
110580,note_on,0,0,2,,,,,,,,,1,,,67,75
110640,note_on,0,0,3,,,,,,,,,2,,,61,49
110640,note_on,120,0,3,,,,,,,,,2,,,49,0
110640,note_on,60,0,1,,,,,,,,,0,,,79,0
110640,note_on,0,0,1,,,,,,,,,0,,,79,62
110640,note_on,0,0,3,,,,,,,,,2,,,52,49
110640,note_on,0,0,2,,,,,,,,,1,,,67,75
110640,note_on,60,0,2,,,,,,,,,1,,,67,0
110760,note_on,120,0,3,,,,,,,,,2,,,61,0
110760,note_on,0,0,3,,,,,,,,,2,,,49,49
110760,note_on,0,0,3,,,,,,,,,2,,,52,0
110820,note_on,0,0,1,,,,,,,,,0,,,78,62
110820,note_on,180,0,1,,,,,,,,,0,,,79,0
110820,note_on,180,0,2,,,,,,,,,1,,,67,0
110820,note_on,0,0,2,,,,,,,,,1,,,66,75
110880,note_on,480,0,4,,,,,,,,,3,,,45,0
110880,note_on,0,0,4,,,,,,,,,3,,,33,0
110880,note_on,0,0,4,,,,,,,,,3,,,34,62
110880,note_on,0,0,4,,,,,,,,,3,,,46,62
110880,control_change,0,0,1,,,,,,,,,0,64,127,,
110880,note_on,60,0,1,,,,,,,,,0,,,78,0
110880,note_on,120,0,3,,,,,,,,,2,,,49,0
110880,note_on,0,0,2,,,,,,,,,1,,,66,75
110880,note_on,60,0,2,,,,,,,,,1,,,66,0
110880,note_on,0,0,1,,,,,,,,,0,,,78,62
111000,note_on,120,0,3,,,,,,,,,2,,,49,49
111120,note_on,120,0,3,,,,,,,,,2,,,49,0
111120,note_on,0,0,3,,,,,,,,,2,,,61,49
111120,note_on,0,0,3,,,,,,,,,2,,,54,49
111240,note_on,120,0,3,,,,,,,,,2,,,61,0
111240,note_on,0,0,3,,,,,,,,,2,,,54,0
111240,note_on,0,0,3,,,,,,,,,2,,,49,49
111360,note_on,120,0,3,,,,,,,,,2,,,49,0
111360,note_on,480,0,4,,,,,,,,,3,,,46,0
111360,note_on,0,0,4,,,,,,,,,3,,,35,62
111360,note_on,480,0,1,,,,,,,,,0,,,78,0
111360,note_on,0,0,1,,,,,,,,,0,,,76,62
111360,note_on,0,0,4,,,,,,,,,3,,,47,62
111360,note_on,480,0,2,,,,,,,,,1,,,66,0
111360,note_on,0,0,4,,,,,,,,,3,,,34,0
111480,note_on,120,0,3,,,,,,,,,2,,,50,49
111480,note_on,0,0,1,,,,,,,,,0,,,74,62
111480,note_on,120,0,1,,,,,,,,,0,,,76,0
111600,note_on,0,0,1,,,,,,,,,0,,,66,62
111600,note_on,240,0,4,,,,,,,,,3,,,47,0
111600,note_on,0,0,4,,,,,,,,,3,,,35,0
111600,note_on,0,0,4,,,,,,,,,3,,,38,62
111600,note_on,120,0,3,,,,,,,,,2,,,50,0
111600,note_on,0,0,3,,,,,,,,,2,,,54,49
111600,note_on,0,0,3,,,,,,,,,2,,,62,49
111600,note_on,120,0,1,,,,,,,,,0,,,74,0
111720,note_on,120,0,3,,,,,,,,,2,,,62,0
111720,note_on,0,0,3,,,,,,,,,2,,,50,49
111720,note_on,0,0,3,,,,,,,,,2,,,54,0
111720,note_on,120,0,1,,,,,,,,,0,,,66,0
111720,note_on,0,0,1,,,,,,,,,0,,,68,62
111720,control_change,0,0,1,,,,,,,,,0,64,0,,
111840,note_on,120,0,1,,,,,,,,,0,,,68,0
111840,note_on,480,0,2,,,,,,,,,1,,,61,75
111840,note_on,0,0,2,,,,,,,,,1,,,64,75
111840,note_on,240,0,4,,,,,,,,,3,,,38,0
111840,note_on,0,0,1,,,,,,,,,0,,,69,62
111840,note_on,120,0,3,,,,,,,,,2,,,50,0
111840,note_on,0,0,4,,,,,,,,,3,,,40,62
111960,note_on,120,0,3,,,,,,,,,2,,,49,49
111960,note_on,120,0,1,,,,,,,,,0,,,69,0
111960,note_on,0,0,1,,,,,,,,,0,,,71,62
112020,note_on,0,0,1,,,,,,,,,0,,,69,62
112020,note_on,60,0,1,,,,,,,,,0,,,71,0
112080,note_on,0,0,1,,,,,,,,,0,,,68,62
112080,note_on,120,0,3,,,,,,,,,2,,,49,0
112080,note_on,0,0,3,,,,,,,,,2,,,52,49
112080,note_on,60,0,1,,,,,,,,,0,,,69,0
112140,note_on,60,0,1,,,,,,,,,0,,,68,0
112140,note_on,0,0,1,,,,,,,,,0,,,69,62
112200,note_on,0,0,1,,,,,,,,,0,,,71,62
112200,note_on,120,0,3,,,,,,,,,2,,,52,0
112200,note_on,0,0,3,,,,,,,,,2,,,57,49
112200,note_on,60,0,1,,,,,,,,,0,,,69,0
112320,note_on,120,0,1,,,,,,,,,0,,,71,0
112320,note_on,0,0,1,,,,,,,,,0,,,71,62
112320,note_on,120,0,3,,,,,,,,,2,,,57,0
112320,note_on,480,0,2,,,,,,,,,1,,,64,0
112320,note_on,0,0,2,,,,,,,,,1,,,61,0
112320,note_on,0,0,2,,,,,,,,,1,,,64,75
112320,note_on,0,0,2,,,,,,,,,1,,,68,75
112320,note_on,480,0,4,,,,,,,,,3,,,40,0
112320,note_on,0,0,4,,,,,,,,,3,,,40,62
112440,note_on,120,0,3,,,,,,,,,2,,,52,49
112440,note_on,0,0,1,,,,,,,,,0,,,73,62
112440,note_on,120,0,1,,,,,,,,,0,,,71,0
112500,note_on,60,0,1,,,,,,,,,0,,,73,0
112500,note_on,0,0,1,,,,,,,,,0,,,71,62
112560,note_on,0,0,1,,,,,,,,,0,,,70,62
112560,note_on,60,0,1,,,,,,,,,0,,,71,0
112560,note_on,120,0,3,,,,,,,,,2,,,52,0
112560,note_on,0,0,3,,,,,,,,,2,,,56,49
112620,note_on,0,0,1,,,,,,,,,0,,,71,62
112620,note_on,60,0,1,,,,,,,,,0,,,70,0
112680,note_on,60,0,1,,,,,,,,,0,,,71,0
112680,note_on,120,0,3,,,,,,,,,2,,,56,0
112680,note_on,0,0,3,,,,,,,,,2,,,60,49
112680,note_on,0,0,1,,,,,,,,,0,,,72,62
112800,note_on,0,0,2,,,,,,,,,1,,,68,75
112800,note_on,0,0,2,,,,,,,,,1,,,64,75
112800,note_on,0,0,2,,,,,,,,,1,,,64,0
112800,note_on,480,0,2,,,,,,,,,1,,,68,0
112800,note_on,120,0,3,,,,,,,,,2,,,60,0
112800,note_on,0,0,4,,,,,,,,,3,,,45,62
112800,note_on,480,0,4,,,,,,,,,3,,,40,0
112800,note_on,120,0,1,,,,,,,,,0,,,72,0
112800,note_on,0,0,1,,,,,,,,,0,,,72,62
112920,note_on,120,0,3,,,,,,,,,2,,,52,49
113040,note_on,120,0,3,,,,,,,,,2,,,52,0
113040,note_on,0,0,3,,,,,,,,,2,,,56,49
113160,note_on,120,0,3,,,,,,,,,2,,,56,0
113160,note_on,0,0,3,,,,,,,,,2,,,60,49
113280,note_on,480,0,1,,,,,,,,,0,,,72,0
113280,note_on,0,0,2,,,,,,,,,1,,,69,75
113280,note_on,480,0,2,,,,,,,,,1,,,68,0
113280,note_on,0,0,1,,,,,,,,,0,,,73,62
113280,note_on,0,0,3,,,,,,,,,2,,,61,49
113280,note_on,120,0,3,,,,,,,,,2,,,60,0
113400,note_on,0,0,3,,,,,,,,,2,,,57,49
113400,control_change,0,0,3,,,,,,,,,2,64,127,,
113400,note_on,120,0,3,,,,,,,,,2,,,61,0
113520,note_on,240,0,1,,,,,,,,,0,,,73,0
113520,control_change,0,0,1,,,,,,,,,0,64,127,,
113520,note_on,0,0,2,,,,,,,,,1,,,66,75
113520,note_on,0,0,2,,,,,,,,,1,,,64,0
113520,note_on,240,0,2,,,,,,,,,1,,,69,0
113520,note_on,0,0,1,,,,,,,,,0,,,81,62
113520,note_on,720,0,4,,,,,,,,,3,,,45,0
113520,note_on,0,0,3,,,,,,,,,2,,,54,49
113520,note_on,120,0,3,,,,,,,,,2,,,57,0
113580,note_on,0,0,2,,,,,,,,,1,,,65,75
113580,note_on,60,0,2,,,,,,,,,1,,,66,0
113580,note_on,60,0,3,,,,,,,,,2,,,54,0
113580,note_on,0,0,3,,,,,,,,,2,,,56,49
113580,note_on,60,0,1,,,,,,,,,0,,,81,0
113580,note_on,0,0,1,,,,,,,,,0,,,83,62
113640,note_on,60,0,1,,,,,,,,,0,,,83,0
113640,note_on,0,0,1,,,,,,,,,0,,,81,62
113640,note_on,0,0,3,,,,,,,,,2,,,57,49
113640,note_on,60,0,3,,,,,,,,,2,,,56,0
113640,note_on,60,0,2,,,,,,,,,1,,,65,0
113640,note_on,0,0,2,,,,,,,,,1,,,66,75
113700,note_on,60,0,3,,,,,,,,,2,,,57,0
113700,control_change,0,0,3,,,,,,,,,2,64,0,,
113700,note_on,0,0,3,,,,,,,,,2,,,59,49
113700,note_on,0,0,2,,,,,,,,,1,,,68,75
113700,note_on,60,0,2,,,,,,,,,1,,,66,0
113700,note_on,0,0,1,,,,,,,,,0,,,80,62
113700,note_on,60,0,1,,,,,,,,,0,,,81,0
113760,note_on,60,0,3,,,,,,,,,2,,,59,0
113760,note_on,60,0,2,,,,,,,,,1,,,68,0
113760,note_on,0,0,1,,,,,,,,,0,,,78,62
113760,control_change,0,0,1,,,,,,,,,0,64,0,,
113760,note_on,0,0,3,,,,,,,,,2,,,60,49
113760,note_on,60,0,1,,,,,,,,,0,,,80,0
113760,note_on,0,0,2,,,,,,,,,1,,,69,75
113880,note_on,120,0,3,,,,,,,,,2,,,60,0
113880,note_on,0,0,3,,,,,,,,,2,,,54,49
114000,note_on,0,0,4,,,,,,,,,3,,,35,62
114000,control_change,480,0,4,,,,,,,,,3,64,127,,
114000,note_on,0,0,4,,,,,,,,,3,,,47,62
114000,note_on,0,0,2,,,,,,,,,1,,,71,75
114000,note_on,0,0,3,,,,,,,,,2,,,59,49
114000,note_on,120,0,3,,,,,,,,,2,,,54,0
114000,note_on,240,0,2,,,,,,,,,1,,,69,0
114000,control_change,0,0,2,,,,,,,,,1,64,127,,
114000,note_on,0,0,2,,,,,,,,,1,,,75,75
114000,note_on,240,0,1,,,,,,,,,0,,,78,0
114000,control_change,0,0,1,,,,,,,,,0,64,127,,
114000,note_on,0,0,1,,,,,,,,,0,,,83,62
114000,note_on,0,0,1,,,,,,,,,0,,,87,62
114120,note_on,0,0,3,,,,,,,,,2,,,54,49
114120,note_on,120,0,3,,,,,,,,,2,,,59,0
114240,note_on,0,0,2,,,,,,,,,1,,,75,75
114240,note_on,0,0,2,,,,,,,,,1,,,72,75
114240,note_on,0,0,2,,,,,,,,,1,,,71,0
114240,note_on,240,0,2,,,,,,,,,1,,,75,0
114240,note_on,0,0,4,,,,,,,,,3,,,47,75
114240,note_on,0,0,4,,,,,,,,,3,,,35,75
114240,note_on,120,0,3,,,,,,,,,2,,,54,0
114240,note_on,0,0,4,,,,,,,,,3,,,35,0
114240,note_on,240,0,4,,,,,,,,,3,,,47,0
114240,note_on,0,0,3,,,,,,,,,2,,,57,62
114240,note_on,0,0,1,,,,,,,,,0,,,83,0
114240,note_on,240,0,1,,,,,,,,,0,,,87,0
114240,note_on,0,0,1,,,,,,,,,0,,,84,75
114240,note_on,0,0,1,,,,,,,,,0,,,87,75
114360,note_on,120,0,3,,,,,,,,,2,,,57,0
114360,note_on,0,0,3,,,,,,,,,2,,,54,62
114480,note_on,0,0,1,,,,,,,,,0,,,84,0
114480,note_on,0,0,2,,,,,,,,,1,,,72,0
114480,note_on,240,0,2,,,,,,,,,1,,,75,0
114480,note_on,0,0,3,,,,,,,,,2,,,59,62
114480,note_on,120,0,3,,,,,,,,,2,,,54,0
114480,note_on,0,0,4,,,,,,,,,3,,,47,75
114480,note_on,0,0,4,,,,,,,,,3,,,35,75
114480,control_change,0,0,4,,,,,,,,,3,64,0,,
114480,note_on,0,0,4,,,,,,,,,3,,,35,0
114480,note_on,240,0,4,,,,,,,,,3,,,47,0
114480,control_change,0,0,2,,,,,,,,,1,64,0,,
114480,note_on,240,0,1,,,,,,,,,0,,,87,0
114480,note_on,0,0,2,,,,,,,,,1,,,71,88
114480,note_on,0,0,1,,,,,,,,,0,,,83,88
114480,note_on,0,0,1,,,,,,,,,0,,,87,88
114480,control_change,0,0,1,,,,,,,,,0,64,0,,
114480,note_on,0,0,2,,,,,,,,,1,,,75,88
114600,note_on,120,0,2,,,,,,,,,1,,,75,0
114600,note_on,0,0,2,,,,,,,,,1,,,71,0
114600,note_on,0,0,2,,,,,,,,,1,,,69,88
114600,note_on,0,0,3,,,,,,,,,2,,,60,62
114600,note_on,120,0,3,,,,,,,,,2,,,59,0
114600,note_on,120,0,1,,,,,,,,,0,,,87,0
114600,note_on,0,0,1,,,,,,,,,0,,,83,0
114600,note_on,0,0,1,,,,,,,,,0,,,81,88
114720,control_change,0,0,1,,,,,,,,,0,64,127,,
114720,note_on,240,0,4,,,,,,,,,3,,,47,0
114720,note_on,0,0,1,,,,,,,,,0,,,75,88
114720,note_on,120,0,2,,,,,,,,,1,,,69,0
114720,note_on,0,0,4,,,,,,,,,3,,,52,75
114720,note_on,0,0,4,,,,,,,,,3,,,40,75
114720,note_on,0,0,4,,,,,,,,,3,,,35,0
114720,note_on,120,0,1,,,,,,,,,0,,,81,0
114720,note_on,0,0,1,,,,,,,,,0,,,87,88
114720,note_on,0,0,2,,,,,,,,,1,,,69,88
114720,note_on,0,0,2,,,,,,,,,1,,,81,88
114720,note_on,120,0,3,,,,,,,,,2,,,60,0
114720,note_on,0,0,3,,,,,,,,,2,,,60,62
114767,note_on,0,0,1,,,,,,,,,0,,,75,0
114767,note_on,0,0,1,,,,,,,,,0,,,76,88
114767,note_on,47,0,1,,,,,,,,,0,,,87,0
114767,note_on,0,0,1,,,,,,,,,0,,,88,88
114816,note_on,0,0,1,,,,,,,,,0,,,87,88
114816,note_on,0,0,1,,,,,,,,,0,,,76,0
114816,note_on,49,0,1,,,,,,,,,0,,,88,0
114816,note_on,0,0,1,,,,,,,,,0,,,75,88
114840,note_on,0,0,3,,,,,,,,,2,,,54,62
114840,note_on,120,0,3,,,,,,,,,2,,,60,0
114863,note_on,47,0,1,,,,,,,,,0,,,87,0
114863,note_on,0,0,1,,,,,,,,,0,,,75,0
114863,note_on,0,0,1,,,,,,,,,0,,,73,88
114863,note_on,0,0,1,,,,,,,,,0,,,85,88
114912,note_on,49,0,1,,,,,,,,,0,,,85,0
114912,note_on,0,0,1,,,,,,,,,0,,,73,0
114912,note_on,0,0,1,,,,,,,,,0,,,75,88
114912,note_on,0,0,1,,,,,,,,,0,,,87,88
114960,note_on,120,0,3,,,,,,,,,2,,,54,0
114960,note_on,0,0,1,,,,,,,,,0,,,78,88
114960,note_on,0,0,1,,,,,,,,,0,,,90,88
114960,note_on,0,0,3,,,,,,,,,2,,,57,62
114960,note_on,0,0,1,,,,,,,,,0,,,75,0
114960,note_on,48,0,1,,,,,,,,,0,,,87,0
114960,note_on,0,0,3,,,,,,,,,2,,,59,62
115140,control_change,0,0,1,,,,,,,,,0,64,0,,
115140,note_on,0,0,1,,,,,,,,,0,,,78,0
115140,note_on,0,0,3,,,,,,,,,2,,,56,62
115140,note_on,0,0,3,,,,,,,,,2,,,57,0
115140,note_on,180,0,3,,,,,,,,,2,,,59,0
115140,note_on,180,0,1,,,,,,,,,0,,,90,0
115140,note_on,0,0,1,,,,,,,,,0,,,88,75
115140,note_on,0,0,1,,,,,,,,,0,,,76,75
115140,note_on,420,0,2,,,,,,,,,1,,,81,0
115140,note_on,0,0,2,,,,,,,,,1,,,69,0
115140,note_on,0,0,2,,,,,,,,,1,,,68,75
115140,note_on,0,0,2,,,,,,,,,1,,,80,75
115200,note_on,60,0,3,,,,,,,,,2,,,56,0
115200,note_on,0,0,2,,,,,,,,,1,,,68,75
115200,note_on,0,0,2,,,,,,,,,1,,,76,75
115200,note_on,60,0,2,,,,,,,,,1,,,80,0
115200,note_on,60,0,1,,,,,,,,,0,,,88,0
115200,note_on,0,0,1,,,,,,,,,0,,,76,0
115200,note_on,0,0,1,,,,,,,,,0,,,80,75
115200,note_on,0,0,1,,,,,,,,,0,,,88,75
115200,note_on,0,0,2,,,,,,,,,1,,,68,0
115200,note_on,0,0,3,,,,,,,,,2,,,59,49
115200,note_on,0,0,3,,,,,,,,,2,,,56,49
115320,note_on,0,0,3,,,,,,,,,2,,,56,0
115320,note_on,120,0,3,,,,,,,,,2,,,59,0
115320,note_on,0,0,3,,,,,,,,,2,,,47,49
115320,note_on,0,0,4,,,,,,,,,3,,,40,0
115320,note_on,600,0,4,,,,,,,,,3,,,52,0
115440,note_on,0,0,1,,,,,,,,,0,,,80,0
115440,note_on,0,0,3,,,,,,,,,2,,,52,49
115440,control_change,0,0,1,,,,,,,,,0,64,127,,
115440,note_on,0,0,2,,,,,,,,,1,,,68,0
115440,note_on,240,0,2,,,,,,,,,1,,,76,0
115440,note_on,0,0,2,,,,,,,,,1,,,64,62
115440,note_on,120,0,3,,,,,,,,,2,,,47,0
115440,note_on,0,0,1,,,,,,,,,0,,,79,62
115440,note_on,240,0,1,,,,,,,,,0,,,88,0
115500,note_on,0,0,2,,,,,,,,,1,,,63,62
115500,note_on,60,0,3,,,,,,,,,2,,,52,0
115500,note_on,60,0,1,,,,,,,,,0,,,79,0
115500,note_on,0,0,1,,,,,,,,,0,,,81,62
115500,note_on,60,0,2,,,,,,,,,1,,,64,0
115500,note_on,0,0,3,,,,,,,,,2,,,54,49
115560,note_on,0,0,2,,,,,,,,,1,,,64,62
115560,note_on,60,0,1,,,,,,,,,0,,,81,0
115560,note_on,60,0,3,,,,,,,,,2,,,54,0
115560,note_on,0,0,3,,,,,,,,,2,,,55,49
115560,note_on,0,0,1,,,,,,,,,0,,,79,62
115560,note_on,60,0,2,,,,,,,,,1,,,63,0
115620,note_on,60,0,3,,,,,,,,,2,,,55,0
115620,note_on,0,0,3,,,,,,,,,2,,,57,49
115620,note_on,0,0,1,,,,,,,,,0,,,78,62
115620,note_on,0,0,2,,,,,,,,,1,,,66,62
115620,note_on,60,0,1,,,,,,,,,0,,,79,0
115620,note_on,60,0,2,,,,,,,,,1,,,64,0
115680,note_on,60,0,3,,,,,,,,,2,,,57,0
115680,control_change,0,0,1,,,,,,,,,0,64,0,,
115680,note_on,0,0,1,,,,,,,,,0,,,76,62
115680,note_on,60,0,1,,,,,,,,,0,,,78,0
115680,note_on,60,0,2,,,,,,,,,1,,,66,0
115680,note_on,0,0,3,,,,,,,,,2,,,58,49
115680,note_on,0,0,2,,,,,,,,,1,,,67,62
115800,note_on,120,0,3,,,,,,,,,2,,,58,0
115800,note_on,0,0,3,,,,,,,,,2,,,52,49
115920,control_change,0,0,1,,,,,,,,,0,64,127,,
115920,note_on,240,0,1,,,,,,,,,0,,,76,0
115920,note_on,0,0,3,,,,,,,,,2,,,57,49
115920,control_change,600,0,4,,,,,,,,,3,64,127,,
115920,note_on,0,0,4,,,,,,,,,3,,,33,62
115920,note_on,0,0,4,,,,,,,,,3,,,45,62
115920,note_on,0,0,1,,,,,,,,,0,,,85,75
115920,note_on,0,0,1,,,,,,,,,0,,,81,75
115920,note_on,120,0,3,,,,,,,,,2,,,52,0
115920,note_on,240,0,2,,,,,,,,,1,,,67,0
115920,control_change,0,0,2,,,,,,,,,1,64,127,,
115920,note_on,0,0,2,,,,,,,,,1,,,69,75
115920,note_on,0,0,2,,,,,,,,,1,,,73,75
116040,note_on,120,0,3,,,,,,,,,2,,,57,0
116040,note_on,0,0,3,,,,,,,,,2,,,52,49
116160,note_on,0,0,2,,,,,,,,,1,,,70,88
116160,note_on,0,0,1,,,,,,,,,0,,,81,0
116160,note_on,0,0,1,,,,,,,,,0,,,82,88
116160,note_on,0,0,2,,,,,,,,,1,,,73,88
116160,note_on,120,0,3,,,,,,,,,2,,,52,0
116160,note_on,240,0,2,,,,,,,,,1,,,73,0
116160,note_on,0,0,2,,,,,,,,,1,,,69,0
116160,note_on,240,0,1,,,,,,,,,0,,,85,0
116160,note_on,0,0,1,,,,,,,,,0,,,85,88
116160,note_on,0,0,3,,,,,,,,,2,,,55,62
116160,note_on,0,0,4,,,,,,,,,3,,,33,0
116160,note_on,240,0,4,,,,,,,,,3,,,45,0
116160,note_on,0,0,4,,,,,,,,,3,,,33,75
116160,note_on,0,0,4,,,,,,,,,3,,,45,75
116280,note_on,0,0,3,,,,,,,,,2,,,52,62
116280,note_on,120,0,3,,,,,,,,,2,,,55,0
116400,note_on,0,0,4,,,,,,,,,3,,,33,0
116400,note_on,240,0,4,,,,,,,,,3,,,45,0
116400,note_on,0,0,4,,,,,,,,,3,,,33,75
116400,note_on,0,0,4,,,,,,,,,3,,,45,75
116400,note_on,240,0,2,,,,,,,,,1,,,73,0
116400,note_on,0,0,2,,,,,,,,,1,,,69,88
116400,control_change,0,0,2,,,,,,,,,1,64,0,,
116400,control_change,0,0,1,,,,,,,,,0,64,0,,
116400,note_on,0,0,1,,,,,,,,,0,,,85,88
116400,note_on,0,0,1,,,,,,,,,0,,,81,88
116400,note_on,0,0,1,,,,,,,,,0,,,82,0
116400,note_on,240,0,1,,,,,,,,,0,,,85,0
116400,note_on,0,0,3,,,,,,,,,2,,,57,62
116400,note_on,120,0,3,,,,,,,,,2,,,52,0
116400,control_change,0,0,4,,,,,,,,,3,64,0,,
116400,note_on,0,0,2,,,,,,,,,1,,,73,88
116400,note_on,0,0,2,,,,,,,,,1,,,70,0
116520,note_on,120,0,2,,,,,,,,,1,,,73,0
116520,note_on,0,0,2,,,,,,,,,1,,,69,0
116520,note_on,0,0,2,,,,,,,,,1,,,67,88
116520,note_on,0,0,3,,,,,,,,,2,,,58,62
116520,note_on,120,0,3,,,,,,,,,2,,,57,0
116520,note_on,120,0,1,,,,,,,,,0,,,85,0
116520,note_on,0,0,1,,,,,,,,,0,,,81,0
116520,note_on,0,0,1,,,,,,,,,0,,,79,88
116640,note_on,120,0,3,,,,,,,,,2,,,58,0
116640,note_on,120,0,1,,,,,,,,,0,,,79,0
116640,control_change,0,0,1,,,,,,,,,0,64,127,,
116640,note_on,0,0,1,,,,,,,,,0,,,73,88
116640,note_on,0,0,1,,,,,,,,,0,,,85,88
116640,note_on,240,0,4,,,,,,,,,3,,,45,0
116640,note_on,0,0,3,,,,,,,,,2,,,58,62
116640,note_on,120,0,2,,,,,,,,,1,,,67,0
116640,note_on,0,0,2,,,,,,,,,1,,,67,88
116640,note_on,0,0,2,,,,,,,,,1,,,79,88
116640,note_on,0,0,4,,,,,,,,,3,,,45,75
116640,note_on,0,0,4,,,,,,,,,3,,,38,75
116640,note_on,0,0,4,,,,,,,,,3,,,33,0
116687,note_on,0,0,1,,,,,,,,,0,,,74,88
116687,note_on,47,0,1,,,,,,,,,0,,,85,0
116687,note_on,0,0,1,,,,,,,,,0,,,73,0
116687,note_on,0,0,1,,,,,,,,,0,,,86,88
116736,note_on,0,0,1,,,,,,,,,0,,,85,88
116736,note_on,0,0,1,,,,,,,,,0,,,73,88
116736,note_on,49,0,1,,,,,,,,,0,,,86,0
116736,note_on,0,0,1,,,,,,,,,0,,,74,0
116760,note_on,0,0,3,,,,,,,,,2,,,52,62
116760,note_on,120,0,3,,,,,,,,,2,,,58,0
116783,note_on,0,0,1,,,,,,,,,0,,,71,88
116783,note_on,47,0,1,,,,,,,,,0,,,85,0
116783,note_on,0,0,1,,,,,,,,,0,,,83,88
116783,note_on,0,0,1,,,,,,,,,0,,,73,0
116832,note_on,49,0,1,,,,,,,,,0,,,83,0
116832,note_on,0,0,1,,,,,,,,,0,,,73,88
116832,note_on,0,0,1,,,,,,,,,0,,,85,88
116832,note_on,0,0,1,,,,,,,,,0,,,71,0
116880,note_on,48,0,1,,,,,,,,,0,,,85,0
116880,note_on,0,0,1,,,,,,,,,0,,,73,0
116880,note_on,0,0,1,,,,,,,,,0,,,76,88
116880,note_on,0,0,1,,,,,,,,,0,,,88,88
116880,note_on,120,0,3,,,,,,,,,2,,,52,0
116880,note_on,0,0,3,,,,,,,,,2,,,55,62
116880,note_on,0,0,3,,,,,,,,,2,,,57,62
117060,note_on,0,0,2,,,,,,,,,1,,,78,75
117060,note_on,180,0,3,,,,,,,,,2,,,57,0
117060,note_on,0,0,3,,,,,,,,,2,,,54,62
117060,note_on,0,0,3,,,,,,,,,2,,,55,0
117060,note_on,420,0,2,,,,,,,,,1,,,79,0
117060,note_on,0,0,2,,,,,,,,,1,,,66,75
117060,note_on,0,0,1,,,,,,,,,0,,,86,75
117060,note_on,0,0,1,,,,,,,,,0,,,74,75
117060,note_on,0,0,1,,,,,,,,,0,,,76,0
117060,note_on,180,0,1,,,,,,,,,0,,,88,0
117060,note_on,0,0,2,,,,,,,,,1,,,67,0
117060,control_change,0,0,1,,,,,,,,,0,64,0,,
117120,note_on,60,0,3,,,,,,,,,2,,,54,0
117120,note_on,0,0,3,,,,,,,,,2,,,54,49
117120,note_on,0,0,3,,,,,,,,,2,,,57,49
117120,note_on,0,0,2,,,,,,,,,1,,,66,75
117120,note_on,60,0,2,,,,,,,,,1,,,78,0
117120,note_on,0,0,2,,,,,,,,,1,,,66,0
117120,note_on,0,0,2,,,,,,,,,1,,,74,75
117120,note_on,60,0,1,,,,,,,,,0,,,86,0
117120,note_on,0,0,1,,,,,,,,,0,,,74,0
117120,note_on,0,0,1,,,,,,,,,0,,,78,75
117120,note_on,0,0,1,,,,,,,,,0,,,86,75
117240,note_on,0,0,3,,,,,,,,,2,,,50,49
117240,note_on,0,0,3,,,,,,,,,2,,,54,0
117240,note_on,120,0,3,,,,,,,,,2,,,57,0
117360,note_on,0,0,2,,,,,,,,,1,,,62,62
117360,note_on,0,0,2,,,,,,,,,1,,,66,0
117360,note_on,240,0,2,,,,,,,,,1,,,74,0
117360,note_on,720,0,4,,,,,,,,,3,,,45,0
117360,note_on,240,0,1,,,,,,,,,0,,,86,0
117360,note_on,0,0,1,,,,,,,,,0,,,78,0
117360,note_on,0,0,1,,,,,,,,,0,,,74,62
117360,note_on,0,0,4,,,,,,,,,3,,,38,0
117360,note_on,0,0,3,,,,,,,,,2,,,54,49
117360,note_on,0,0,4,,,,,,,,,3,,,35,62
117360,note_on,0,0,4,,,,,,,,,3,,,47,62
117360,note_on,120,0,3,,,,,,,,,2,,,50,0
117360,note_on,0,0,3,,,,,,,,,2,,,59,49
117480,note_on,120,0,3,,,,,,,,,2,,,59,0
117480,note_on,0,0,3,,,,,,,,,2,,,54,0
117480,note_on,0,0,3,,,,,,,,,2,,,50,49
117540,note_on,180,0,1,,,,,,,,,0,,,74,0
117540,note_on,180,0,2,,,,,,,,,1,,,62,0
117540,note_on,0,0,2,,,,,,,,,1,,,64,62
117540,note_on,0,0,1,,,,,,,,,0,,,76,62
117600,note_on,60,0,2,,,,,,,,,1,,,64,0
117600,note_on,120,0,3,,,,,,,,,2,,,50,0
117600,note_on,0,0,2,,,,,,,,,1,,,66,62
117600,note_on,240,0,4,,,,,,,,,3,,,47,0
117600,note_on,0,0,4,,,,,,,,,3,,,35,0
117600,note_on,0,0,4,,,,,,,,,3,,,34,62
117600,note_on,0,0,4,,,,,,,,,3,,,46,62
117600,note_on,0,0,1,,,,,,,,,0,,,78,62
117600,note_on,60,0,1,,,,,,,,,0,,,76,0
117720,note_on,120,0,3,,,,,,,,,2,,,49,49
117840,note_on,120,0,3,,,,,,,,,2,,,49,0
117840,note_on,0,0,3,,,,,,,,,2,,,61,49
117840,note_on,0,0,3,,,,,,,,,2,,,54,49
117960,note_on,0,0,3,,,,,,,,,2,,,49,49
117960,note_on,360,0,1,,,,,,,,,0,,,78,0
117960,note_on,0,0,1,,,,,,,,,0,,,78,62
117960,note_on,120,0,3,,,,,,,,,2,,,61,0
117960,note_on,0,0,3,,,,,,,,,2,,,54,0
117960,note_on,360,0,2,,,,,,,,,1,,,66,0
117960,note_on,0,0,2,,,,,,,,,1,,,66,62
118080,note_on,0,0,2,,,,,,,,,1,,,69,62
118080,note_on,120,0,2,,,,,,,,,1,,,66,0
118080,note_on,0,0,4,,,,,,,,,3,,,33,62
118080,note_on,0,0,4,,,,,,,,,3,,,34,0
118080,note_on,120,0,1,,,,,,,,,0,,,78,0
118080,note_on,0,0,1,,,,,,,,,0,,,81,62
118080,note_on,120,0,3,,,,,,,,,2,,,49,0
118080,note_on,0,0,4,,,,,,,,,3,,,45,62
118080,note_on,480,0,4,,,,,,,,,3,,,46,0
118200,note_on,120,0,3,,,,,,,,,2,,,49,49
118260,note_on,180,0,1,,,,,,,,,0,,,81,0
118260,note_on,0,0,2,,,,,,,,,1,,,67,62
118260,note_on,0,0,1,,,,,,,,,0,,,79,62
118260,note_on,180,0,2,,,,,,,,,1,,,69,0
118320,note_on,0,0,3,,,,,,,,,2,,,52,49
118320,note_on,0,0,3,,,,,,,,,2,,,61,49
118320,note_on,0,0,1,,,,,,,,,0,,,79,62
118320,note_on,60,0,1,,,,,,,,,0,,,79,0
118320,note_on,120,0,3,,,,,,,,,2,,,49,0
118320,note_on,60,0,2,,,,,,,,,1,,,67,0
118320,note_on,0,0,2,,,,,,,,,1,,,67,62
118440,note_on,120,0,3,,,,,,,,,2,,,61,0
118440,note_on,0,0,3,,,,,,,,,2,,,52,0
118440,note_on,0,0,3,,,,,,,,,2,,,49,49
118500,note_on,0,0,1,,,,,,,,,0,,,78,62
118500,note_on,180,0,1,,,,,,,,,0,,,79,0
118500,note_on,0,0,2,,,,,,,,,1,,,66,62
118500,note_on,180,0,2,,,,,,,,,1,,,67,0
118560,note_on,0,0,1,,,,,,,,,0,,,78,62
118560,note_on,0,0,2,,,,,,,,,1,,,66,62
118560,note_on,60,0,2,,,,,,,,,1,,,66,0
118560,note_on,120,0,3,,,,,,,,,2,,,49,0
118560,control_change,0,0,1,,,,,,,,,0,64,127,,
118560,note_on,480,0,4,,,,,,,,,3,,,45,0
118560,note_on,0,0,4,,,,,,,,,3,,,33,0
118560,note_on,60,0,1,,,,,,,,,0,,,78,0
118560,note_on,0,0,4,,,,,,,,,3,,,46,62
118560,note_on,0,0,4,,,,,,,,,3,,,34,62
118680,note_on,120,0,3,,,,,,,,,2,,,49,49
118800,note_on,120,0,3,,,,,,,,,2,,,49,0
118800,note_on,0,0,3,,,,,,,,,2,,,61,49
118800,note_on,0,0,3,,,,,,,,,2,,,54,49
118920,note_on,120,0,3,,,,,,,,,2,,,61,0
118920,note_on,0,0,3,,,,,,,,,2,,,54,0
118920,note_on,0,0,3,,,,,,,,,2,,,49,49
119040,note_on,120,0,3,,,,,,,,,2,,,49,0
119040,note_on,0,0,1,,,,,,,,,0,,,76,62
119040,note_on,480,0,1,,,,,,,,,0,,,78,0
119040,note_on,0,0,4,,,,,,,,,3,,,34,0
119040,note_on,0,0,4,,,,,,,,,3,,,35,62
119040,note_on,0,0,4,,,,,,,,,3,,,47,62
119040,note_on,480,0,4,,,,,,,,,3,,,46,0
119040,note_on,480,0,2,,,,,,,,,1,,,66,0
119160,note_on,0,0,1,,,,,,,,,0,,,74,62
119160,note_on,120,0,1,,,,,,,,,0,,,76,0
119160,note_on,120,0,3,,,,,,,,,2,,,50,49
119280,note_on,0,0,3,,,,,,,,,2,,,54,49
119280,note_on,0,0,4,,,,,,,,,3,,,38,62
119280,note_on,0,0,4,,,,,,,,,3,,,35,0
119280,note_on,240,0,4,,,,,,,,,3,,,47,0
119280,note_on,0,0,1,,,,,,,,,0,,,66,62
119280,note_on,120,0,1,,,,,,,,,0,,,74,0
119280,note_on,120,0,3,,,,,,,,,2,,,50,0
119280,note_on,0,0,3,,,,,,,,,2,,,62,49
119400,note_on,0,0,1,,,,,,,,,0,,,68,62
119400,note_on,0,0,3,,,,,,,,,2,,,54,0
119400,note_on,120,0,1,,,,,,,,,0,,,66,0
119400,note_on,0,0,3,,,,,,,,,2,,,50,49
119400,note_on,120,0,3,,,,,,,,,2,,,62,0
119400,control_change,0,0,1,,,,,,,,,0,64,0,,
119520,note_on,120,0,1,,,,,,,,,0,,,68,0
119520,control_change,0,0,1,,,,,,,,,0,64,127,,
119520,note_on,0,0,1,,,,,,,,,0,,,69,62
119520,note_on,240,0,4,,,,,,,,,3,,,38,0
119520,control_change,480,0,2,,,,,,,,,1,64,127,,
119520,note_on,0,0,2,,,,,,,,,1,,,61,62
119520,note_on,0,0,2,,,,,,,,,1,,,64,62
119520,note_on,0,0,4,,,,,,,,,3,,,40,62
119520,note_on,120,0,3,,,,,,,,,2,,,50,0
119640,note_on,120,0,3,,,,,,,,,2,,,49,49
119760,note_on,240,0,1,,,,,,,,,0,,,69,0
119760,note_on,0,0,1,,,,,,,,,0,,,71,62
119760,note_on,120,0,3,,,,,,,,,2,,,49,0
119760,note_on,0,0,3,,,,,,,,,2,,,52,49
119820,note_on,60,0,1,,,,,,,,,0,,,71,0
119820,note_on,0,0,1,,,,,,,,,0,,,69,62
119880,note_on,0,0,1,,,,,,,,,0,,,68,62
119880,note_on,60,0,1,,,,,,,,,0,,,69,0
119880,note_on,120,0,3,,,,,,,,,2,,,52,0
119880,note_on,0,0,3,,,,,,,,,2,,,57,49
119940,note_on,60,0,1,,,,,,,,,0,,,68,0
119940,note_on,0,0,1,,,,,,,,,0,,,69,62
120000,note_on,480,0,2,,,,,,,,,1,,,64,0
120000,note_on,120,0,3,,,,,,,,,2,,,57,0
120000,note_on,0,0,2,,,,,,,,,1,,,64,62
120000,note_on,0,0,2,,,,,,,,,1,,,61,0
120000,note_on,0,0,4,,,,,,,,,3,,,40,62
120000,note_on,480,0,4,,,,,,,,,3,,,40,0
120000,note_on,0,0,1,,,,,,,,,0,,,73,62
120000,note_on,60,0,1,,,,,,,,,0,,,69,0
120120,note_on,120,0,3,,,,,,,,,2,,,50,49
120240,note_on,0,0,3,,,,,,,,,2,,,52,49
120240,note_on,120,0,3,,,,,,,,,2,,,50,0
120360,note_on,0,0,2,,,,,,,,,1,,,62,62
120360,note_on,0,0,3,,,,,,,,,2,,,56,49
120360,note_on,360,0,1,,,,,,,,,0,,,73,0
120360,control_change,0,0,1,,,,,,,,,0,64,0,,
120360,note_on,0,0,1,,,,,,,,,0,,,71,62
120360,note_on,360,0,2,,,,,,,,,1,,,64,0
120360,note_on,120,0,3,,,,,,,,,2,,,52,0
120480,set_tempo,22080,1,0,,,,,,1200000,,,,,,,
120480,note_on,0,0,2,,,,,,,,,1,,,64,62
120480,note_on,0,0,2,,,,,,,,,1,,,61,62
120480,note_on,120,0,3,,,,,,,,,2,,,56,0
120480,note_on,120,0,2,,,,,,,,,1,,,62,0
120480,note_on,0,0,1,,,,,,,,,0,,,69,62
120480,note_on,120,0,1,,,,,,,,,0,,,71,0
120480,note_on,480,0,4,,,,,,,,,3,,,40,0
120480,control_change,0,0,2,,,,,,,,,1,64,0,,
120480,note_on,0,0,4,,,,,,,,,3,,,45,62
120600,note_on,120,0,3,,,,,,,,,2,,,49,49
120720,note_on,0,0,2,,,,,,,,,1,,,61,0
120720,note_on,240,0,2,,,,,,,,,1,,,64,0
120720,note_on,120,0,3,,,,,,,,,2,,,49,0
120720,note_on,0,0,3,,,,,,,,,2,,,57,49
120720,note_on,240,0,1,,,,,,,,,0,,,69,0
120840,note_on,120,0,3,,,,,,,,,2,,,57,0
120840,note_on,0,0,1,,,,,,,,,0,,,80,62
120840,control_change,120,0,1,,,,,,,,,0,64,127,,
120840,note_on,0,0,3,,,,,,,,,2,,,52,49
120960,note_on,120,0,1,,,,,,,,,0,,,80,0
120960,note_on,0,0,1,,,,,,,,,0,,,81,62
120960,note_on,120,0,3,,,,,,,,,2,,,52,0
120960,note_on,0,0,3,,,,,,,,,2,,,49,49
121080,note_on,120,0,3,,,,,,,,,2,,,49,0
121080,note_on,0,0,3,,,,,,,,,2,,,52,49
121080,note_on,120,0,1,,,,,,,,,0,,,81,0
121080,note_on,0,0,1,,,,,,,,,0,,,83,62
121200,note_on,720,0,4,,,,,,,,,3,,,45,0
121200,note_on,0,0,3,,,,,,,,,2,,,57,49
121200,note_on,120,0,3,,,,,,,,,2,,,52,0
121200,note_on,120,0,1,,,,,,,,,0,,,83,0
121200,note_on,0,0,1,,,,,,,,,0,,,85,62
121320,note_on,120,0,3,,,,,,,,,2,,,57,0
121320,note_on,120,0,1,,,,,,,,,0,,,85,0
121320,note_on,0,0,1,,,,,,,,,0,,,86,62
121320,note_on,0,0,3,,,,,,,,,2,,,59,49
121440,note_on,120,0,1,,,,,,,,,0,,,86,0
121440,control_change,0,0,1,,,,,,,,,0,64,0,,
121440,note_on,0,0,1,,,,,,,,,0,,,88,88
121440,note_on,120,0,3,,,,,,,,,2,,,59,0
121440,note_on,0,0,4,,,,,,,,,3,,,45,62
121440,set_tempo,960,1,0,,,,,,1000000,,,,,,,
121440,note_on,240,0,4,,,,,,,,,3,,,33,62
121440,note_on,0,0,3,,,,,,,,,2,,,61,49
121457,note_on,17,0,1,,,,,,,,,0,,,88,0
121560,note_on,120,0,3,,,,,,,,,2,,,61,0
121560,note_on,0,0,3,,,,,,,,,2,,,52,49
121620,note_on,0,0,1,,,,,,,,,0,,,86,62
121620,control_change,163,0,1,,,,,,,,,0,64,127,,
121680,note_on,0,0,1,,,,,,,,,0,,,85,62
121680,note_on,120,0,3,,,,,,,,,2,,,52,0
121680,note_on,0,0,3,,,,,,,,,2,,,57,49
121680,note_on,60,0,1,,,,,,,,,0,,,86,0
121740,note_on,0,0,1,,,,,,,,,0,,,83,62
121740,note_on,60,0,1,,,,,,,,,0,,,85,0
121800,note_on,0,0,3,,,,,,,,,2,,,59,49
121800,note_on,0,0,1,,,,,,,,,0,,,81,62
121800,note_on,60,0,1,,,,,,,,,0,,,83,0
121800,note_on,120,0,3,,,,,,,,,2,,,57,0
121860,note_on,0,0,1,,,,,,,,,0,,,80,62
121860,note_on,60,0,1,,,,,,,,,0,,,81,0
121920,note_on,60,0,1,,,,,,,,,0,,,80,0
121920,note_on,480,0,4,,,,,,,,,3,,,45,0
121920,note_on,0,0,1,,,,,,,,,0,,,78,62
121920,note_on,120,0,3,,,,,,,,,2,,,59,0
121920,note_on,0,0,4,,,,,,,,,3,,,33,0
121920,note_on,0,0,3,,,,,,,,,2,,,61,49
121980,note_on,0,0,1,,,,,,,,,0,,,76,62
121980,note_on,60,0,1,,,,,,,,,0,,,78,0
122040,note_on,0,0,3,,,,,,,,,2,,,57,49
122040,note_on,0,0,1,,,,,,,,,0,,,74,62
122040,note_on,60,0,1,,,,,,,,,0,,,76,0
122040,note_on,120,0,3,,,,,,,,,2,,,61,0
122100,note_on,0,0,1,,,,,,,,,0,,,73,62
122100,note_on,60,0,1,,,,,,,,,0,,,74,0
122160,note_on,0,0,1,,,,,,,,,0,,,71,62
122160,note_on,120,0,3,,,,,,,,,2,,,57,0
122160,note_on,0,0,3,,,,,,,,,2,,,62,49
122160,note_on,60,0,1,,,,,,,,,0,,,73,0
122220,note_on,60,0,1,,,,,,,,,0,,,71,0
122220,note_on,0,0,1,,,,,,,,,0,,,69,62
122280,note_on,120,0,3,,,,,,,,,2,,,62,0
122280,note_on,0,0,3,,,,,,,,,2,,,57,49
122280,note_on,60,0,1,,,,,,,,,0,,,69,0
122280,note_on,0,0,1,,,,,,,,,0,,,68,62
122340,note_on,0,0,1,,,,,,,,,0,,,66,62
122340,control_change,0,0,1,,,,,,,,,0,64,0,,
122340,note_on,60,0,1,,,,,,,,,0,,,68,0
122400,note_on,120,0,3,,,,,,,,,2,,,57,0
122400,note_on,0,0,4,,,,,,,,,3,,,45,62
122400,note_on,480,0,4,,,,,,,,,3,,,33,62
122400,note_on,0,0,1,,,,,,,,,0,,,64,62
122400,note_on,60,0,1,,,,,,,,,0,,,66,0
122400,note_on,0,0,3,,,,,,,,,2,,,61,49
122520,note_on,0,0,3,,,,,,,,,2,,,52,49
122520,note_on,120,0,3,,,,,,,,,2,,,61,0
122640,note_on,0,0,3,,,,,,,,,2,,,54,49
122640,note_on,120,0,3,,,,,,,,,2,,,52,0
122760,note_on,120,0,3,,,,,,,,,2,,,54,0
122760,note_on,0,0,3,,,,,,,,,2,,,56,49
122880,note_on,0,0,3,,,,,,,,,2,,,57,49
122880,note_on,0,0,1,,,,,,,,,0,,,61,62
122880,note_on,480,0,1,,,,,,,,,0,,,64,0
122880,note_on,120,0,3,,,,,,,,,2,,,56,0
122880,note_on,0,0,4,,,,,,,,,3,,,33,0
122880,note_on,480,0,4,,,,,,,,,3,,,45,0
123000,note_on,0,0,3,,,,,,,,,2,,,52,49
123000,note_on,120,0,3,,,,,,,,,2,,,57,0
123120,note_on,120,0,3,,,,,,,,,2,,,52,0
123120,note_on,240,0,1,,,,,,,,,0,,,61,0
123120,control_change,0,0,1,,,,,,,,,0,64,127,,
123120,note_on,0,0,1,,,,,,,,,0,,,66,88
123120,note_on,0,0,3,,,,,,,,,2,,,62,49
123240,note_on,120,0,3,,,,,,,,,2,,,62,0
123240,note_on,0,0,3,,,,,,,,,2,,,61,49
123300,note_on,180,0,1,,,,,,,,,0,,,66,0
123300,note_on,0,0,1,,,,,,,,,0,,,64,62
123360,note_on,0,0,1,,,,,,,,,0,,,62,62
123360,note_on,0,0,3,,,,,,,,,2,,,59,49
123360,note_on,60,0,1,,,,,,,,,0,,,64,0
123360,note_on,120,0,3,,,,,,,,,2,,,61,0
123360,note_on,480,0,4,,,,,,,,,3,,,40,62
123480,note_on,0,0,3,,,,,,,,,2,,,52,49
123480,note_on,120,0,3,,,,,,,,,2,,,59,0
123600,note_on,0,0,3,,,,,,,,,2,,,59,49
123600,note_on,120,0,3,,,,,,,,,2,,,52,0
123720,note_on,120,0,3,,,,,,,,,2,,,59,0
123720,note_on,0,0,3,,,,,,,,,2,,,57,49
123840,note_on,0,0,3,,,,,,,,,2,,,56,49
123840,note_on,120,0,3,,,,,,,,,2,,,57,0
123840,note_on,480,0,4,,,,,,,,,3,,,40,0
123840,control_change,0,0,1,,,,,,,,,0,64,0,,
123840,note_on,0,0,1,,,,,,,,,0,,,59,62
123840,note_on,480,0,1,,,,,,,,,0,,,62,0
123960,note_on,0,0,3,,,,,,,,,2,,,57,49
123960,note_on,120,0,3,,,,,,,,,2,,,56,0
124080,note_on,0,0,3,,,,,,,,,2,,,54,49
124080,note_on,120,0,3,,,,,,,,,2,,,57,0
124080,note_on,0,0,1,,,,,,,,,0,,,64,88
124080,note_on,240,0,1,,,,,,,,,0,,,59,0
124200,note_on,0,0,3,,,,,,,,,2,,,56,49
124200,note_on,120,0,3,,,,,,,,,2,,,54,0
124260,note_on,180,0,1,,,,,,,,,0,,,64,0
124260,note_on,0,0,1,,,,,,,,,0,,,62,62
124320,note_on,0,0,1,,,,,,,,,0,,,61,62
124320,note_on,60,0,1,,,,,,,,,0,,,62,0
124320,note_on,0,0,3,,,,,,,,,2,,,57,49
124320,note_on,120,0,3,,,,,,,,,2,,,56,0
124320,note_on,480,0,4,,,,,,,,,3,,,45,62
124440,note_on,0,0,3,,,,,,,,,2,,,52,49
124440,note_on,120,0,3,,,,,,,,,2,,,57,0
124560,control_change,0,0,1,,,,,,,,,0,64,127,,
124560,note_on,240,0,1,,,,,,,,,0,,,61,0
124560,note_on,0,0,3,,,,,,,,,2,,,59,49
124560,note_on,120,0,3,,,,,,,,,2,,,52,0
124560,note_on,0,0,1,,,,,,,,,0,,,64,62
124620,note_on,60,0,1,,,,,,,,,0,,,64,0
124620,note_on,0,0,1,,,,,,,,,0,,,62,62
124680,note_on,0,0,1,,,,,,,,,0,,,61,62
124680,note_on,60,0,1,,,,,,,,,0,,,62,0
124680,note_on,0,0,3,,,,,,,,,2,,,52,49
124680,note_on,120,0,3,,,,,,,,,2,,,59,0
124740,note_on,60,0,1,,,,,,,,,0,,,61,0
124740,note_on,0,0,1,,,,,,,,,0,,,62,62
124800,note_on,120,0,3,,,,,,,,,2,,,52,0
124800,note_on,0,0,1,,,,,,,,,0,,,64,62
124800,control_change,0,0,1,,,,,,,,,0,64,0,,
124800,note_on,0,0,3,,,,,,,,,2,,,61,49
124800,note_on,60,0,1,,,,,,,,,0,,,62,0
124920,note_on,120,0,3,,,,,,,,,2,,,61,0
124920,note_on,0,0,3,,,,,,,,,2,,,52,49
125040,note_on,120,0,3,,,,,,,,,2,,,52,0
125040,note_on,0,0,3,,,,,,,,,2,,,57,49
125040,note_on,720,0,4,,,,,,,,,3,,,45,0
125040,note_on,4320,0,2,,,,,,,,,1,,,73,62
125040,note_on,0,0,1,,,,,,,,,0,,,97,62
125040,note_on,240,0,1,,,,,,,,,0,,,64,0
125220,note_on,0,0,2,,,,,,,,,1,,,74,62
125220,note_on,0,0,1,,,,,,,,,0,,,98,62
125220,note_on,180,0,1,,,,,,,,,0,,,97,0
125220,note_on,180,0,2,,,,,,,,,1,,,73,0
125220,note_on,0,0,3,,,,,,,,,2,,,59,49
125220,note_on,180,0,3,,,,,,,,,2,,,57,0
125280,note_on,60,0,3,,,,,,,,,2,,,59,0
125280,note_on,0,0,3,,,,,,,,,2,,,61,49
125280,note_on,0,0,1,,,,,,,,,0,,,100,88
125280,note_on,60,0,1,,,,,,,,,0,,,98,0
125280,note_on,60,0,2,,,,,,,,,1,,,74,0
125280,control_change,0,0,2,,,,,,,,,1,64,127,,
125280,note_on,0,0,4,,,,,,,,,3,,,45,62
125280,note_on,240,0,4,,,,,,,,,3,,,33,62
125280,note_on,0,0,2,,,,,,,,,1,,,76,62
125297,note_on,17,0,1,,,,,,,,,0,,,100,0
125400,note_on,120,0,3,,,,,,,,,2,,,61,0
125400,note_on,0,0,3,,,,,,,,,2,,,52,49
125460,note_on,0,0,1,,,,,,,,,0,,,98,62
125460,control_change,163,0,1,,,,,,,,,0,64,127,,
125520,note_on,0,0,3,,,,,,,,,2,,,57,49
125520,note_on,60,0,1,,,,,,,,,0,,,98,0
125520,note_on,0,0,1,,,,,,,,,0,,,97,62
125520,note_on,240,0,2,,,,,,,,,1,,,76,0
125520,note_on,0,0,2,,,,,,,,,1,,,73,62
125520,note_on,120,0,3,,,,,,,,,2,,,52,0
125580,note_on,60,0,1,,,,,,,,,0,,,97,0
125580,note_on,0,0,1,,,,,,,,,0,,,95,62
125640,note_on,120,0,3,,,,,,,,,2,,,57,0
125640,note_on,0,0,1,,,,,,,,,0,,,93,62
125640,note_on,0,0,3,,,,,,,,,2,,,59,49
125640,note_on,60,0,1,,,,,,,,,0,,,95,0
125700,note_on,60,0,1,,,,,,,,,0,,,93,0
125700,note_on,0,0,1,,,,,,,,,0,,,92,62
125760,note_on,480,0,4,,,,,,,,,3,,,45,0
125760,note_on,120,0,3,,,,,,,,,2,,,59,0
125760,note_on,0,0,2,,,,,,,,,1,,,69,62
125760,note_on,240,0,2,,,,,,,,,1,,,73,0
125760,note_on,0,0,3,,,,,,,,,2,,,61,49
125760,note_on,0,0,4,,,,,,,,,3,,,33,0
125760,note_on,60,0,1,,,,,,,,,0,,,92,0
125760,note_on,0,0,1,,,,,,,,,0,,,90,62
125820,note_on,0,0,1,,,,,,,,,0,,,88,62
125820,note_on,60,0,1,,,,,,,,,0,,,90,0
125880,note_on,120,0,3,,,,,,,,,2,,,61,0
125880,note_on,0,0,3,,,,,,,,,2,,,57,49
125880,note_on,0,0,1,,,,,,,,,0,,,86,62
125880,note_on,60,0,1,,,,,,,,,0,,,88,0
125940,note_on,60,0,1,,,,,,,,,0,,,86,0
125940,note_on,0,0,1,,,,,,,,,0,,,85,62
126000,note_on,120,0,3,,,,,,,,,2,,,57,0
126000,note_on,240,0,4,,,,,,,,,3,,,33,62
126000,note_on,0,0,4,,,,,,,,,3,,,45,62
126000,note_on,0,0,1,,,,,,,,,0,,,83,62
126000,note_on,60,0,1,,,,,,,,,0,,,85,0
126000,note_on,240,0,2,,,,,,,,,1,,,69,0
126000,note_on,0,0,2,,,,,,,,,1,,,68,62
126000,note_on,0,0,3,,,,,,,,,2,,,62,49
126060,note_on,60,0,1,,,,,,,,,0,,,83,0
126060,note_on,0,0,1,,,,,,,,,0,,,81,62
126120,note_on,120,0,3,,,,,,,,,2,,,62,0
126120,note_on,60,0,1,,,,,,,,,0,,,81,0
126120,note_on,0,0,1,,,,,,,,,0,,,80,62
126120,note_on,0,0,3,,,,,,,,,2,,,57,49
126180,note_on,60,0,1,,,,,,,,,0,,,80,0
126180,note_on,0,0,1,,,,,,,,,0,,,78,62
126180,note_on,0,0,2,,,,,,,,,1,,,66,62
126180,note_on,180,0,2,,,,,,,,,1,,,68,0
126240,note_on,120,0,3,,,,,,,,,2,,,57,0
126240,note_on,0,0,4,,,,,,,,,3,,,45,62
126240,note_on,0,0,1,,,,,,,,,0,,,76,62
126240,note_on,60,0,1,,,,,,,,,0,,,78,0
126240,note_on,0,0,2,,,,,,,,,1,,,64,62
126240,note_on,60,0,2,,,,,,,,,1,,,66,0
126240,note_on,0,0,4,,,,,,,,,3,,,33,62
126240,note_on,240,0,4,,,,,,,,,3,,,45,0
126240,note_on,0,0,4,,,,,,,,,3,,,33,0
126240,note_on,0,0,3,,,,,,,,,2,,,61,49
126360,note_on,120,0,3,,,,,,,,,2,,,61,0
126360,note_on,0,0,3,,,,,,,,,2,,,52,49
126480,note_on,0,0,3,,,,,,,,,2,,,54,49
126480,note_on,120,0,3,,,,,,,,,2,,,52,0
126600,note_on,0,0,3,,,,,,,,,2,,,56,49
126600,note_on,120,0,3,,,,,,,,,2,,,54,0
126720,note_on,480,0,4,,,,,,,,,3,,,45,0
126720,control_change,0,0,1,,,,,,,,,0,64,0,,
126720,note_on,480,0,2,,,,,,,,,1,,,64,0
126720,note_on,0,0,4,,,,,,,,,3,,,33,0
126720,note_on,0,0,1,,,,,,,,,0,,,73,62
126720,control_change,0,0,2,,,,,,,,,1,64,0,,
126720,note_on,120,0,3,,,,,,,,,2,,,56,0
126720,note_on,0,0,3,,,,,,,,,2,,,57,49
126720,note_on,480,0,1,,,,,,,,,0,,,76,0
126720,note_on,0,0,2,,,,,,,,,1,,,61,62
126840,note_on,120,0,3,,,,,,,,,2,,,57,0
126840,note_on,0,0,3,,,,,,,,,2,,,53,49
126960,note_on,0,0,4,,,,,,,,,3,,,46,62
126960,note_on,0,0,2,,,,,,,,,1,,,66,62
126960,note_on,240,0,1,,,,,,,,,0,,,73,0
126960,note_on,120,0,3,,,,,,,,,2,,,53,0
126960,note_on,0,0,3,,,,,,,,,2,,,54,75
126960,note_on,240,0,4,,,,,,,,,3,,,34,62
126960,note_on,0,0,2,,,,,,,,,1,,,73,62
126960,note_on,0,0,1,,,,,,,,,0,,,78,88
126960,note_on,240,0,2,,,,,,,,,1,,,61,0
127080,note_on,120,0,3,,,,,,,,,2,,,54,0
127080,note_on,0,0,3,,,,,,,,,2,,,61,49
127140,note_on,180,0,1,,,,,,,,,0,,,78,0
127140,note_on,0,0,1,,,,,,,,,0,,,76,62
127200,note_on,0,0,4,,,,,,,,,3,,,47,62
127200,note_on,0,0,4,,,,,,,,,3,,,35,62
127200,note_on,0,0,4,,,,,,,,,3,,,34,0
127200,note_on,240,0,4,,,,,,,,,3,,,46,0
127200,note_on,0,0,2,,,,,,,,,1,,,66,62
127200,note_on,0,0,2,,,,,,,,,1,,,66,0
127200,note_on,120,0,3,,,,,,,,,2,,,61,0
127200,note_on,0,0,2,,,,,,,,,1,,,71,62
127200,note_on,240,0,2,,,,,,,,,1,,,73,0
127200,note_on,0,0,1,,,,,,,,,0,,,74,62
127200,control_change,0,0,1,,,,,,,,,0,64,127,,
127200,note_on,60,0,1,,,,,,,,,0,,,76,0
127320,note_on,120,0,3,,,,,,,,,2,,,54,49
127440,note_on,240,0,4,,,,,,,,,3,,,47,0
127440,note_on,120,0,3,,,,,,,,,2,,,54,0
127440,note_on,0,0,3,,,,,,,,,2,,,59,49
127440,note_on,0,0,4,,,,,,,,,3,,,35,0
127560,note_on,120,0,3,,,,,,,,,2,,,59,0
127560,note_on,0,0,3,,,,,,,,,2,,,61,49
127560,note_on,0,0,1,,,,,,,,,0,,,73,62
127560,note_on,360,0,1,,,,,,,,,0,,,74,0
127680,note_on,120,0,3,,,,,,,,,2,,,61,0
127680,note_on,240,0,4,,,,,,,,,3,,,40,62
127680,note_on,0,0,3,,,,,,,,,2,,,62,49
127680,note_on,480,0,2,,,,,,,,,1,,,71,0
127680,note_on,120,0,1,,,,,,,,,0,,,73,0
127680,note_on,0,0,1,,,,,,,,,0,,,71,62
127680,note_on,0,0,2,,,,,,,,,1,,,66,0
127800,note_on,0,0,3,,,,,,,,,2,,,56,49
127800,note_on,120,0,3,,,,,,,,,2,,,62,0
127860,note_on,0,0,1,,,,,,,,,0,,,76,62
127860,note_on,180,0,1,,,,,,,,,0,,,71,0
127890,note_on,0,0,1,,,,,,,,,0,,,80,62
127890,note_on,30,0,1,,,,,,,,,0,,,76,0
127920,note_on,120,0,3,,,,,,,,,2,,,56,0
127920,note_on,0,0,3,,,,,,,,,2,,,59,49
127920,note_on,0,0,1,,,,,,,,,0,,,83,62
127920,note_on,30,0,1,,,,,,,,,0,,,80,0
127920,note_on,0,0,2,,,,,,,,,1,,,74,62
127920,note_on,0,0,2,,,,,,,,,1,,,71,62
127920,note_on,240,0,2,,,,,,,,,1,,,64,62
127920,note_on,240,0,4,,,,,,,,,3,,,40,0
128040,note_on,0,0,3,,,,,,,,,2,,,62,49
128040,note_on,120,0,3,,,,,,,,,2,,,59,0
128100,note_on,0,0,1,,,,,,,,,0,,,80,62
128100,note_on,180,0,1,,,,,,,,,0,,,83,0
128160,note_on,0,0,3,,,,,,,,,2,,,61,49
128160,note_on,120,0,3,,,,,,,,,2,,,62,0
128160,note_on,0,0,2,,,,,,,,,1,,,64,0
128160,note_on,0,0,2,,,,,,,,,1,,,71,0
128160,note_on,0,0,2,,,,,,,,,1,,,64,62
128160,note_on,0,0,2,,,,,,,,,1,,,69,62
128160,note_on,0,0,2,,,,,,,,,1,,,73,62
128160,note_on,60,0,1,,,,,,,,,0,,,80,0
128160,control_change,0,0,1,,,,,,,,,0,64,0,,
128160,note_on,240,0,2,,,,,,,,,1,,,74,0
128160,note_on,240,0,4,,,,,,,,,3,,,45,62
128160,note_on,0,0,1,,,,,,,,,0,,,81,62
128280,note_on,120,0,3,,,,,,,,,2,,,61,0
128280,note_on,0,0,3,,,,,,,,,2,,,57,49
128400,note_on,120,0,3,,,,,,,,,2,,,57,0
128400,note_on,0,0,3,,,,,,,,,2,,,52,49
128520,note_on,120,0,3,,,,,,,,,2,,,52,0
128520,note_on,0,0,3,,,,,,,,,2,,,49,49
128640,note_on,120,0,3,,,,,,,,,2,,,49,0
128640,note_on,0,0,3,,,,,,,,,2,,,52,49
128760,note_on,0,0,3,,,,,,,,,2,,,53,49
128760,note_on,120,0,3,,,,,,,,,2,,,52,0
128880,note_on,720,0,2,,,,,,,,,1,,,73,0
128880,note_on,0,0,2,,,,,,,,,1,,,69,0
128880,note_on,0,0,2,,,,,,,,,1,,,73,49
128880,note_on,0,0,3,,,,,,,,,2,,,54,49
128880,note_on,120,0,3,,,,,,,,,2,,,53,0
128880,control_change,0,0,1,,,,,,,,,0,64,127,,
128880,note_on,0,0,4,,,,,,,,,3,,,46,62
128880,note_on,720,0,4,,,,,,,,,3,,,45,0
128880,note_on,0,0,2,,,,,,,,,1,,,66,49
128880,note_on,720,0,1,,,,,,,,,0,,,81,0
128880,note_on,0,0,2,,,,,,,,,1,,,64,0
128880,note_on,0,0,1,,,,,,,,,0,,,78,62
129000,note_on,120,0,3,,,,,,,,,2,,,54,0
129000,note_on,0,0,3,,,,,,,,,2,,,61,49
129060,note_on,180,0,1,,,,,,,,,0,,,78,0
129060,note_on,0,0,1,,,,,,,,,0,,,76,62
129120,note_on,0,0,1,,,,,,,,,0,,,74,62
129120,note_on,240,0,4,,,,,,,,,3,,,46,0
129120,note_on,0,0,4,,,,,,,,,3,,,47,62
129120,note_on,60,0,1,,,,,,,,,0,,,76,0
129120,note_on,0,0,2,,,,,,,,,1,,,66,0
129120,note_on,120,0,3,,,,,,,,,2,,,61,0
129120,note_on,240,0,2,,,,,,,,,1,,,73,0
129120,note_on,0,0,2,,,,,,,,,1,,,66,49
129120,note_on,0,0,2,,,,,,,,,1,,,71,49
129240,note_on,120,0,3,,,,,,,,,2,,,54,49
129360,note_on,0,0,3,,,,,,,,,2,,,59,49
129360,note_on,120,0,3,,,,,,,,,2,,,54,0
129360,note_on,240,0,4,,,,,,,,,3,,,47,0
129480,note_on,0,0,3,,,,,,,,,2,,,61,49
129480,note_on,360,0,1,,,,,,,,,0,,,74,0
129480,note_on,120,0,3,,,,,,,,,2,,,59,0
129480,note_on,0,0,1,,,,,,,,,0,,,73,62
129600,note_on,0,0,2,,,,,,,,,1,,,66,0
129600,note_on,240,0,4,,,,,,,,,3,,,40,62
129600,note_on,120,0,3,,,,,,,,,2,,,61,0
129600,note_on,0,0,3,,,,,,,,,2,,,62,49
129600,note_on,480,0,2,,,,,,,,,1,,,71,0
129600,note_on,0,0,1,,,,,,,,,0,,,71,62
129600,note_on,120,0,1,,,,,,,,,0,,,73,0
129720,note_on,120,0,3,,,,,,,,,2,,,62,0
129720,note_on,0,0,3,,,,,,,,,2,,,56,49
129780,note_on,0,0,1,,,,,,,,,0,,,76,62
129780,note_on,180,0,1,,,,,,,,,0,,,71,0
129810,note_on,30,0,1,,,,,,,,,0,,,76,0
129810,note_on,0,0,1,,,,,,,,,0,,,80,62
129840,note_on,0,0,3,,,,,,,,,2,,,59,49
129840,note_on,0,0,2,,,,,,,,,1,,,74,49
129840,note_on,240,0,4,,,,,,,,,3,,,40,0
129840,note_on,240,0,2,,,,,,,,,1,,,71,49
129840,note_on,120,0,3,,,,,,,,,2,,,56,0
129840,note_on,0,0,1,,,,,,,,,0,,,83,62
129840,note_on,30,0,1,,,,,,,,,0,,,80,0
129960,note_on,0,0,3,,,,,,,,,2,,,62,49
129960,note_on,120,0,3,,,,,,,,,2,,,59,0
130020,note_on,0,0,1,,,,,,,,,0,,,80,62
130020,note_on,180,0,1,,,,,,,,,0,,,83,0
130080,note_on,120,0,3,,,,,,,,,2,,,62,0
130080,note_on,0,0,2,,,,,,,,,1,,,71,0
130080,note_on,0,0,2,,,,,,,,,1,,,72,49
130080,note_on,240,0,4,,,,,,,,,3,,,41,62
130080,note_on,240,0,2,,,,,,,,,1,,,74,0
130080,note_on,0,0,2,,,,,,,,,1,,,69,49
130080,note_on,0,0,1,,,,,,,,,0,,,81,62
130080,control_change,0,0,1,,,,,,,,,0,64,0,,
130080,note_on,60,0,1,,,,,,,,,0,,,80,0
130080,set_tempo,8640,1,0,,,,,,1200000,,,,,,,
130080,note_on,0,0,3,,,,,,,,,2,,,60,49
130200,note_on,120,0,3,,,,,,,,,2,,,60,0
130200,note_on,0,0,3,,,,,,,,,2,,,48,49
130320,note_on,120,0,3,,,,,,,,,2,,,48,0
130320,note_on,0,0,3,,,,,,,,,2,,,53,49
130440,note_on,0,0,3,,,,,,,,,2,,,57,49
130440,note_on,120,0,3,,,,,,,,,2,,,53,0
130560,note_on,0,0,3,,,,,,,,,2,,,60,49
130560,note_on,120,0,3,,,,,,,,,2,,,57,0
130560,note_on,480,0,4,,,,,,,,,3,,,41,0
130560,note_on,480,0,2,,,,,,,,,1,,,72,0
130560,note_on,0,0,2,,,,,,,,,1,,,69,0
130680,note_on,0,0,3,,,,,,,,,2,,,57,49
130680,note_on,120,0,3,,,,,,,,,2,,,60,0
130800,note_on,240,0,2,,,,,,,,,1,,,69,49
130800,note_on,120,0,3,,,,,,,,,2,,,57,0
130800,note_on,720,0,1,,,,,,,,,0,,,81,0
130800,control_change,0,0,1,,,,,,,,,0,64,127,,
130800,note_on,0,0,1,,,,,,,,,0,,,81,62
130800,note_on,0,0,2,,,,,,,,,1,,,76,49
130800,note_on,0,0,3,,,,,,,,,2,,,61,49
130800,note_on,240,0,4,,,,,,,,,3,,,41,62
130920,note_on,0,0,3,,,,,,,,,2,,,57,49
130920,note_on,120,0,3,,,,,,,,,2,,,61,0
130980,note_on,0,0,1,,,,,,,,,0,,,79,62
130980,note_on,180,0,1,,,,,,,,,0,,,81,0
131040,note_on,240,0,2,,,,,,,,,1,,,76,0
131040,note_on,0,0,4,,,,,,,,,3,,,41,49
131040,note_on,0,0,1,,,,,,,,,0,,,77,62
131040,note_on,60,0,1,,,,,,,,,0,,,79,0
131040,note_on,0,0,2,,,,,,,,,1,,,74,49
131040,set_tempo,960,1,0,,,,,,1200000,,,,,,,
131040,note_on,0,0,2,,,,,,,,,1,,,69,49
131040,note_on,240,0,4,,,,,,,,,3,,,41,0
131040,note_on,120,0,3,,,,,,,,,2,,,57,0
131040,note_on,0,0,3,,,,,,,,,2,,,62,49
131040,note_on,0,0,2,,,,,,,,,1,,,69,0
131160,note_on,0,0,3,,,,,,,,,2,,,57,49
131160,note_on,120,0,3,,,,,,,,,2,,,62,0
131280,note_on,0,0,3,,,,,,,,,2,,,62,49
131280,note_on,120,0,3,,,,,,,,,2,,,57,0
131280,note_on,240,0,4,,,,,,,,,3,,,41,0
131400,note_on,0,0,1,,,,,,,,,0,,,76,62
131400,note_on,360,0,1,,,,,,,,,0,,,77,0
131400,note_on,120,0,3,,,,,,,,,2,,,62,0
131400,note_on,0,0,3,,,,,,,,,2,,,64,49
131520,note_on,0,0,2,,,,,,,,,1,,,69,0
131520,note_on,480,0,2,,,,,,,,,1,,,74,0
131520,note_on,120,0,3,,,,,,,,,2,,,64,0
131520,note_on,0,0,1,,,,,,,,,0,,,74,62
131520,note_on,120,0,1,,,,,,,,,0,,,76,0
131520,note_on,240,0,4,,,,,,,,,3,,,43,49
131520,note_on,0,0,3,,,,,,,,,2,,,65,49
131640,note_on,0,0,3,,,,,,,,,2,,,59,49
131640,note_on,120,0,3,,,,,,,,,2,,,65,0
131700,note_on,0,0,1,,,,,,,,,0,,,79,62
131700,note_on,180,0,1,,,,,,,,,0,,,74,0
131730,note_on,0,0,1,,,,,,,,,0,,,83,62
131730,note_on,30,0,1,,,,,,,,,0,,,79,0
131760,note_on,0,0,1,,,,,,,,,0,,,86,62
131760,note_on,0,0,2,,,,,,,,,1,,,74,49
131760,note_on,240,0,2,,,,,,,,,1,,,67,49
131760,note_on,30,0,1,,,,,,,,,0,,,83,0
131760,note_on,0,0,2,,,,,,,,,1,,,77,49
131760,note_on,0,0,3,,,,,,,,,2,,,62,49
131760,note_on,120,0,3,,,,,,,,,2,,,59,0
131760,note_on,240,0,4,,,,,,,,,3,,,43,0
131880,note_on,0,0,3,,,,,,,,,2,,,65,49
131880,note_on,120,0,3,,,,,,,,,2,,,62,0
131940,note_on,0,0,1,,,,,,,,,0,,,83,62
131940,note_on,180,0,1,,,,,,,,,0,,,86,0
131940,control_change,0,0,1,,,,,,,,,0,64,0,,
132000,note_on,0,0,2,,,,,,,,,1,,,76,88
132000,set_tempo,0,1,0,,,,,,1000000,,,,,,,
132000,note_on,0,0,2,,,,,,,,,1,,,67,88
132000,note_on,0,0,2,,,,,,,,,1,,,67,0
132000,note_on,0,0,2,,,,,,,,,1,,,74,0
132000,note_on,240,0,4,,,,,,,,,3,,,36,49
132000,note_on,0,0,3,,,,,,,,,2,,,64,88
132000,note_on,0,0,3,,,,,,,,,2,,,60,88
132000,note_on,0,0,3,,,,,,,,,2,,,55,88
132000,note_on,120,0,3,,,,,,,,,2,,,65,0
132000,note_on,60,0,1,,,,,,,,,0,,,83,0
132000,note_on,0,0,1,,,,,,,,,0,,,84,88
132000,note_on,0,0,2,,,,,,,,,1,,,72,88
132000,note_on,0,0,4,,,,,,,,,3,,,48,49
132000,note_on,240,0,2,,,,,,,,,1,,,77,0
132000,key_signature,960,1,0,,,,,C,,,,,,,,
132015,note_on,15,0,1,,,,,,,,,0,,,84,0
132080,note_on,0,0,2,,,,,,,,,1,,,72,0
132080,note_on,65,0,1,,,,,,,,,0,,,79,88
132080,note_on,80,0,2,,,,,,,,,1,,,76,0
132080,note_on,0,0,2,,,,,,,,,1,,,67,0
132095,note_on,15,0,1,,,,,,,,,0,,,79,0
132159,note_on,64,0,1,,,,,,,,,0,,,84,88
132174,note_on,15,0,1,,,,,,,,,0,,,84,0
132240,note_on,160,0,2,,,,,,,,,1,,,72,88
132240,note_on,66,0,1,,,,,,,,,0,,,88,88
132255,note_on,15,0,1,,,,,,,,,0,,,88,0
132255,note_on,15,0,2,,,,,,,,,1,,,72,0
132320,note_on,65,0,2,,,,,,,,,1,,,76,88
132320,note_on,65,0,1,,,,,,,,,0,,,91,88
132335,note_on,15,0,2,,,,,,,,,1,,,76,0
132335,note_on,15,0,1,,,,,,,,,0,,,91,0
132399,note_on,64,0,2,,,,,,,,,1,,,79,88
132399,note_on,64,0,1,,,,,,,,,0,,,96,88
132414,note_on,15,0,2,,,,,,,,,1,,,79,0
132414,note_on,15,0,1,,,,,,,,,0,,,96,0
132480,note_on,66,0,2,,,,,,,,,1,,,84,88
132480,note_on,0,0,4,,,,,,,,,3,,,36,0
132480,note_on,480,0,4,,,,,,,,,3,,,48,0
132480,note_on,480,0,3,,,,,,,,,2,,,64,0
132480,note_on,0,0,3,,,,,,,,,2,,,60,0
132480,note_on,0,0,3,,,,,,,,,2,,,55,0
132480,note_on,66,0,1,,,,,,,,,0,,,100,88
132495,note_on,15,0,1,,,,,,,,,0,,,100,0
132495,note_on,15,0,2,,,,,,,,,1,,,84,0
132560,note_on,65,0,1,,,,,,,,,0,,,67,49
132575,note_on,15,0,1,,,,,,,,,0,,,67,0
132639,note_on,64,0,1,,,,,,,,,0,,,72,49
132654,note_on,15,0,1,,,,,,,,,0,,,72,0
132720,note_on,240,0,3,,,,,,,,,2,,,60,62
132720,note_on,225,0,2,,,,,,,,,1,,,60,49
132720,note_on,66,0,1,,,,,,,,,0,,,76,49
132720,note_on,240,0,4,,,,,,,,,3,,,48,62
132735,note_on,15,0,2,,,,,,,,,1,,,60,0
132735,note_on,15,0,1,,,,,,,,,0,,,76,0
132800,note_on,65,0,2,,,,,,,,,1,,,64,49
132800,note_on,65,0,1,,,,,,,,,0,,,79,49
132815,note_on,15,0,2,,,,,,,,,1,,,64,0
132815,note_on,15,0,1,,,,,,,,,0,,,79,0
132879,note_on,64,0,2,,,,,,,,,1,,,67,49
132879,note_on,64,0,1,,,,,,,,,0,,,84,49
132894,note_on,15,0,1,,,,,,,,,0,,,84,0
132894,note_on,15,0,2,,,,,,,,,1,,,67,0
132900,note_on,180,0,4,,,,,,,,,3,,,48,0
132900,note_on,0,0,3,,,,,,,,,2,,,59,62
132900,note_on,180,0,3,,,,,,,,,2,,,60,0
132900,note_on,0,0,4,,,,,,,,,3,,,47,62
132960,note_on,60,0,3,,,,,,,,,2,,,59,0
132960,note_on,0,0,3,,,,,,,,,2,,,57,62
132960,note_on,66,0,2,,,,,,,,,1,,,72,49
132960,note_on,66,0,1,,,,,,,,,0,,,88,49
132960,note_on,60,0,4,,,,,,,,,3,,,47,0
132960,note_on,0,0,4,,,,,,,,,3,,,45,62
132975,note_on,15,0,1,,,,,,,,,0,,,88,0
132975,note_on,15,0,2,,,,,,,,,1,,,72,0
133040,note_on,65,0,1,,,,,,,,,0,,,69,49
133055,note_on,15,0,1,,,,,,,,,0,,,69,0
133119,note_on,64,0,1,,,,,,,,,0,,,72,49
133134,note_on,15,0,1,,,,,,,,,0,,,72,0
133200,note_on,66,0,1,,,,,,,,,0,,,76,49
133200,note_on,225,0,2,,,,,,,,,1,,,60,49
133215,note_on,15,0,2,,,,,,,,,1,,,60,0
133215,note_on,15,0,1,,,,,,,,,0,,,76,0
133280,note_on,65,0,2,,,,,,,,,1,,,69,49
133280,note_on,65,0,1,,,,,,,,,0,,,81,49
133295,note_on,15,0,2,,,,,,,,,1,,,69,0
133295,note_on,15,0,1,,,,,,,,,0,,,81,0
133359,note_on,64,0,1,,,,,,,,,0,,,88,49
133359,note_on,64,0,2,,,,,,,,,1,,,72,49
133374,note_on,15,0,2,,,,,,,,,1,,,72,0
133374,note_on,15,0,1,,,,,,,,,0,,,88,0
133380,note_on,0,0,3,,,,,,,,,2,,,55,62
133380,note_on,420,0,3,,,,,,,,,2,,,57,0
133380,note_on,0,0,4,,,,,,,,,3,,,43,62
133380,note_on,420,0,4,,,,,,,,,3,,,45,0
133440,note_on,0,0,4,,,,,,,,,3,,,41,75
133440,note_on,0,0,3,,,,,,,,,2,,,53,75
133440,note_on,66,0,2,,,,,,,,,1,,,60,62
133440,note_on,66,0,1,,,,,,,,,0,,,77,62
133440,note_on,60,0,4,,,,,,,,,3,,,43,0
133440,note_on,60,0,3,,,,,,,,,2,,,55,0
133455,note_on,15,0,2,,,,,,,,,1,,,60,0
133455,note_on,15,0,1,,,,,,,,,0,,,77,0
133520,note_on,65,0,1,,,,,,,,,0,,,81,62
133520,note_on,65,0,2,,,,,,,,,1,,,69,62
133535,note_on,15,0,1,,,,,,,,,0,,,81,0
133535,note_on,15,0,2,,,,,,,,,1,,,69,0
133599,note_on,64,0,2,,,,,,,,,1,,,72,62
133599,note_on,64,0,1,,,,,,,,,0,,,89,62
133614,note_on,15,0,1,,,,,,,,,0,,,89,0
133614,note_on,15,0,2,,,,,,,,,1,,,72,0
133620,note_on,180,0,4,,,,,,,,,3,,,41,0
133620,note_on,180,0,3,,,,,,,,,2,,,53,0
133620,note_on,0,0,3,,,,,,,,,2,,,52,75
133620,note_on,0,0,4,,,,,,,,,3,,,40,75
133680,note_on,60,0,4,,,,,,,,,3,,,40,0
133680,note_on,0,0,4,,,,,,,,,3,,,38,88
133680,note_on,60,0,3,,,,,,,,,2,,,52,0
133680,note_on,66,0,1,,,,,,,,,0,,,77,75
133680,note_on,0,0,3,,,,,,,,,2,,,50,88
133680,note_on,66,0,2,,,,,,,,,1,,,62,75
133695,note_on,15,0,1,,,,,,,,,0,,,77,0
133695,note_on,15,0,2,,,,,,,,,1,,,62,0
133760,note_on,65,0,1,,,,,,,,,0,,,81,75
133760,note_on,65,0,2,,,,,,,,,1,,,69,75
133775,note_on,15,0,1,,,,,,,,,0,,,81,0
133775,note_on,15,0,2,,,,,,,,,1,,,69,0
133839,note_on,64,0,2,,,,,,,,,1,,,74,75
133839,note_on,64,0,1,,,,,,,,,0,,,89,75
133854,note_on,15,0,2,,,,,,,,,1,,,74,0
133854,note_on,15,0,1,,,,,,,,,0,,,89,0
133860,note_on,180,0,4,,,,,,,,,3,,,38,0
133860,note_on,0,0,3,,,,,,,,,2,,,53,88
133860,note_on,180,0,3,,,,,,,,,2,,,50,0
133860,note_on,0,0,4,,,,,,,,,3,,,41,88
133920,note_on,0,0,3,,,,,,,,,2,,,47,88
133920,note_on,66,0,1,,,,,,,,,0,,,83,88
133920,note_on,0,0,1,,,,,,,,,0,,,86,88
133920,note_on,66,0,2,,,,,,,,,1,,,71,88
133920,note_on,0,0,2,,,,,,,,,1,,,74,88
133920,note_on,60,0,4,,,,,,,,,3,,,41,0
133920,note_on,0,0,1,,,,,,,,,0,,,89,88
133920,note_on,60,0,3,,,,,,,,,2,,,53,0
133920,note_on,0,0,2,,,,,,,,,1,,,77,88
133920,note_on,0,0,4,,,,,,,,,3,,,35,88
133935,note_on,15,0,2,,,,,,,,,1,,,77,0
133935,note_on,0,0,2,,,,,,,,,1,,,74,0
133935,note_on,0,0,1,,,,,,,,,0,,,83,0
133935,note_on,0,0,1,,,,,,,,,0,,,86,0
133935,note_on,15,0,1,,,,,,,,,0,,,89,0
133935,note_on,0,0,2,,,,,,,,,1,,,71,0
134000,note_on,65,0,1,,,,,,,,,0,,,77,88
134015,note_on,15,0,1,,,,,,,,,0,,,77,0
134079,note_on,64,0,1,,,,,,,,,0,,,83,88
134094,note_on,15,0,1,,,,,,,,,0,,,83,0
134160,note_on,225,0,2,,,,,,,,,1,,,71,75
134160,note_on,66,0,1,,,,,,,,,0,,,86,75
134175,note_on,15,0,2,,,,,,,,,1,,,71,0
134175,note_on,15,0,1,,,,,,,,,0,,,86,0
134240,note_on,65,0,1,,,,,,,,,0,,,89,75
134240,note_on,65,0,2,,,,,,,,,1,,,74,75
134255,note_on,15,0,2,,,,,,,,,1,,,74,0
134255,note_on,15,0,1,,,,,,,,,0,,,89,0
134319,note_on,64,0,2,,,,,,,,,1,,,77,75
134319,note_on,64,0,1,,,,,,,,,0,,,95,75
134334,note_on,15,0,2,,,,,,,,,1,,,77,0
134334,note_on,15,0,1,,,,,,,,,0,,,95,0
134400,note_on,66,0,2,,,,,,,,,1,,,83,62
134400,note_on,66,0,1,,,,,,,,,0,,,98,62
134415,note_on,15,0,2,,,,,,,,,1,,,83,0
134415,note_on,15,0,1,,,,,,,,,0,,,98,0
134480,note_on,65,0,1,,,,,,,,,0,,,71,62
134495,note_on,15,0,1,,,,,,,,,0,,,71,0
134559,note_on,64,0,1,,,,,,,,,0,,,74,62
134574,note_on,15,0,1,,,,,,,,,0,,,74,0
134640,note_on,0,0,3,,,,,,,,,2,,,62,62
134640,note_on,720,0,3,,,,,,,,,2,,,47,0
134640,note_on,0,0,4,,,,,,,,,3,,,50,62
134640,note_on,720,0,4,,,,,,,,,3,,,35,0
134640,note_on,225,0,2,,,,,,,,,1,,,62,49
134640,note_on,66,0,1,,,,,,,,,0,,,77,49
134655,note_on,15,0,2,,,,,,,,,1,,,62,0
134655,note_on,15,0,1,,,,,,,,,0,,,77,0
134720,note_on,65,0,1,,,,,,,,,0,,,83,49
134720,note_on,65,0,2,,,,,,,,,1,,,65,49
134735,note_on,15,0,1,,,,,,,,,0,,,83,0
134735,note_on,15,0,2,,,,,,,,,1,,,65,0
134799,note_on,64,0,1,,,,,,,,,0,,,86,49
134799,note_on,64,0,2,,,,,,,,,1,,,71,49
134814,note_on,15,0,1,,,,,,,,,0,,,86,0
134814,note_on,15,0,2,,,,,,,,,1,,,71,0
134820,note_on,0,0,4,,,,,,,,,3,,,48,62
134820,note_on,180,0,4,,,,,,,,,3,,,50,0
134820,note_on,180,0,3,,,,,,,,,2,,,62,0
134820,note_on,0,0,3,,,,,,,,,2,,,60,62
134880,note_on,60,0,3,,,,,,,,,2,,,60,0
134880,note_on,0,0,4,,,,,,,,,3,,,47,62
134880,note_on,60,0,4,,,,,,,,,3,,,48,0
134880,note_on,66,0,2,,,,,,,,,1,,,74,49
134880,note_on,0,0,3,,,,,,,,,2,,,59,62
134880,note_on,66,0,1,,,,,,,,,0,,,89,49
134895,note_on,15,0,2,,,,,,,,,1,,,74,0
134895,note_on,15,0,1,,,,,,,,,0,,,89,0
134960,note_on,65,0,1,,,,,,,,,0,,,71,49
134975,note_on,15,0,1,,,,,,,,,0,,,71,0
135039,note_on,64,0,1,,,,,,,,,0,,,74,49
135054,note_on,15,0,1,,,,,,,,,0,,,74,0
135120,note_on,225,0,2,,,,,,,,,1,,,62,49
135120,note_on,66,0,1,,,,,,,,,0,,,77,49
135135,note_on,15,0,1,,,,,,,,,0,,,77,0
135135,note_on,15,0,2,,,,,,,,,1,,,62,0
135200,note_on,65,0,1,,,,,,,,,0,,,83,49
135200,note_on,65,0,2,,,,,,,,,1,,,71,49
135215,note_on,15,0,2,,,,,,,,,1,,,71,0
135215,note_on,15,0,1,,,,,,,,,0,,,83,0
135279,note_on,64,0,2,,,,,,,,,1,,,74,49
135279,note_on,64,0,1,,,,,,,,,0,,,89,49
135294,note_on,15,0,2,,,,,,,,,1,,,74,0
135294,note_on,15,0,1,,,,,,,,,0,,,89,0
135300,note_on,420,0,3,,,,,,,,,2,,,59,0
135300,note_on,0,0,4,,,,,,,,,3,,,45,62
135300,note_on,420,0,4,,,,,,,,,3,,,47,0
135300,note_on,0,0,3,,,,,,,,,2,,,57,62
135360,note_on,66,0,1,,,,,,,,,0,,,79,62
135360,note_on,60,0,3,,,,,,,,,2,,,57,0
135360,note_on,66,0,2,,,,,,,,,1,,,62,62
135360,note_on,60,0,4,,,,,,,,,3,,,45,0
135360,note_on,0,0,3,,,,,,,,,2,,,55,75
135360,note_on,0,0,4,,,,,,,,,3,,,43,75
135375,note_on,15,0,1,,,,,,,,,0,,,79,0
135375,note_on,15,0,2,,,,,,,,,1,,,62,0
135440,note_on,65,0,1,,,,,,,,,0,,,83,62
135440,note_on,65,0,2,,,,,,,,,1,,,71,62
135455,note_on,15,0,1,,,,,,,,,0,,,83,0
135455,note_on,15,0,2,,,,,,,,,1,,,71,0
135519,note_on,64,0,1,,,,,,,,,0,,,91,62
135519,note_on,64,0,2,,,,,,,,,1,,,74,62
135534,note_on,15,0,1,,,,,,,,,0,,,91,0
135534,note_on,15,0,2,,,,,,,,,1,,,74,0
135540,note_on,0,0,3,,,,,,,,,2,,,53,75
135540,note_on,180,0,4,,,,,,,,,3,,,43,0
135540,note_on,0,0,4,,,,,,,,,3,,,41,75
135540,note_on,180,0,3,,,,,,,,,2,,,55,0
135600,note_on,0,0,3,,,,,,,,,2,,,52,88
135600,note_on,66,0,1,,,,,,,,,0,,,79,75
135600,note_on,60,0,4,,,,,,,,,3,,,41,0
135600,note_on,0,0,4,,,,,,,,,3,,,40,88
135600,note_on,66,0,2,,,,,,,,,1,,,64,75
135600,note_on,60,0,3,,,,,,,,,2,,,53,0
135615,note_on,15,0,1,,,,,,,,,0,,,79,0
135615,note_on,15,0,2,,,,,,,,,1,,,64,0
135680,note_on,65,0,2,,,,,,,,,1,,,67,75
135680,note_on,65,0,1,,,,,,,,,0,,,83,75
135695,note_on,15,0,1,,,,,,,,,0,,,83,0
135695,note_on,15,0,2,,,,,,,,,1,,,67,0
135759,note_on,64,0,1,,,,,,,,,0,,,91,75
135759,note_on,64,0,2,,,,,,,,,1,,,76,75
135774,note_on,15,0,1,,,,,,,,,0,,,91,0
135774,note_on,15,0,2,,,,,,,,,1,,,76,0
135780,note_on,0,0,3,,,,,,,,,2,,,55,88
135780,note_on,180,0,3,,,,,,,,,2,,,52,0
135780,note_on,0,0,4,,,,,,,,,3,,,43,88
135780,note_on,180,0,4,,,,,,,,,3,,,40,0
135840,note_on,0,0,2,,,,,,,,,1,,,79,88
135840,note_on,0,0,2,,,,,,,,,1,,,76,88
135840,note_on,66,0,2,,,,,,,,,1,,,72,88
135840,note_on,0,0,1,,,,,,,,,0,,,91,88
135840,note_on,0,0,4,,,,,,,,,3,,,36,88
135840,note_on,60,0,4,,,,,,,,,3,,,43,0
135840,note_on,0,0,1,,,,,,,,,0,,,88,88
135840,note_on,66,0,1,,,,,,,,,0,,,84,88
135840,note_on,0,0,3,,,,,,,,,2,,,48,88
135840,note_on,60,0,3,,,,,,,,,2,,,55,0
135855,note_on,0,0,2,,,,,,,,,1,,,72,0
135855,note_on,15,0,1,,,,,,,,,0,,,91,0
135855,note_on,0,0,1,,,,,,,,,0,,,88,0
135855,note_on,0,0,1,,,,,,,,,0,,,84,0
135855,note_on,15,0,2,,,,,,,,,1,,,79,0
135855,note_on,0,0,2,,,,,,,,,1,,,76,0
135920,note_on,65,0,1,,,,,,,,,0,,,79,88
135935,note_on,15,0,1,,,,,,,,,0,,,79,0
135999,note_on,64,0,1,,,,,,,,,0,,,84,88
136014,note_on,15,0,1,,,,,,,,,0,,,84,0
136080,note_on,225,0,2,,,,,,,,,1,,,72,75
136080,note_on,66,0,1,,,,,,,,,0,,,88,75
136095,note_on,15,0,2,,,,,,,,,1,,,72,0
136095,note_on,15,0,1,,,,,,,,,0,,,88,0
136160,note_on,65,0,2,,,,,,,,,1,,,76,75
136160,note_on,65,0,1,,,,,,,,,0,,,91,75
136175,note_on,15,0,1,,,,,,,,,0,,,91,0
136175,note_on,15,0,2,,,,,,,,,1,,,76,0
136239,note_on,64,0,2,,,,,,,,,1,,,79,75
136239,note_on,64,0,1,,,,,,,,,0,,,96,75
136254,note_on,15,0,2,,,,,,,,,1,,,79,0
136254,note_on,15,0,1,,,,,,,,,0,,,96,0
136320,note_on,66,0,1,,,,,,,,,0,,,100,62
136320,note_on,66,0,2,,,,,,,,,1,,,84,62
136335,note_on,15,0,2,,,,,,,,,1,,,84,0
136335,note_on,15,0,1,,,,,,,,,0,,,100,0
136400,note_on,65,0,1,,,,,,,,,0,,,72,62
136415,note_on,15,0,1,,,,,,,,,0,,,72,0
136479,note_on,64,0,1,,,,,,,,,0,,,76,62
136494,note_on,15,0,1,,,,,,,,,0,,,76,0
136560,note_on,66,0,1,,,,,,,,,0,,,79,49
136560,note_on,0,0,3,,,,,,,,,2,,,64,62
136560,note_on,720,0,4,,,,,,,,,3,,,36,0
136560,note_on,0,0,4,,,,,,,,,3,,,52,62
136560,note_on,720,0,3,,,,,,,,,2,,,48,0
136560,note_on,225,0,2,,,,,,,,,1,,,64,49
136575,note_on,15,0,1,,,,,,,,,0,,,79,0
136575,note_on,15,0,2,,,,,,,,,1,,,64,0
136640,note_on,65,0,2,,,,,,,,,1,,,67,49
136640,note_on,65,0,1,,,,,,,,,0,,,84,49
136655,note_on,15,0,1,,,,,,,,,0,,,84,0
136655,note_on,15,0,2,,,,,,,,,1,,,67,0
136719,note_on,64,0,2,,,,,,,,,1,,,72,49
136719,note_on,64,0,1,,,,,,,,,0,,,88,49
136734,note_on,15,0,1,,,,,,,,,0,,,88,0
136734,note_on,15,0,2,,,,,,,,,1,,,72,0
136740,note_on,0,0,4,,,,,,,,,3,,,50,62
136740,note_on,180,0,4,,,,,,,,,3,,,52,0
136740,note_on,0,0,3,,,,,,,,,2,,,62,62
136740,note_on,180,0,3,,,,,,,,,2,,,64,0
136800,note_on,0,0,3,,,,,,,,,2,,,60,62
136800,note_on,66,0,2,,,,,,,,,1,,,76,49
136800,note_on,0,0,4,,,,,,,,,3,,,48,62
136800,note_on,60,0,4,,,,,,,,,3,,,50,0
136800,note_on,60,0,3,,,,,,,,,2,,,62,0
136800,note_on,66,0,1,,,,,,,,,0,,,91,49
136815,note_on,15,0,1,,,,,,,,,0,,,91,0
136815,note_on,15,0,2,,,,,,,,,1,,,76,0
136880,note_on,65,0,1,,,,,,,,,0,,,72,49
136895,note_on,15,0,1,,,,,,,,,0,,,72,0
136959,note_on,64,0,1,,,,,,,,,0,,,76,49
136974,note_on,15,0,1,,,,,,,,,0,,,76,0
137040,note_on,225,0,2,,,,,,,,,1,,,64,49
137040,note_on,66,0,1,,,,,,,,,0,,,79,49
137055,note_on,15,0,2,,,,,,,,,1,,,64,0
137055,note_on,15,0,1,,,,,,,,,0,,,79,0
137120,note_on,65,0,2,,,,,,,,,1,,,72,49
137120,note_on,65,0,1,,,,,,,,,0,,,84,49
137135,note_on,15,0,1,,,,,,,,,0,,,84,0
137135,note_on,15,0,2,,,,,,,,,1,,,72,0
137199,note_on,64,0,2,,,,,,,,,1,,,76,49
137199,note_on,64,0,1,,,,,,,,,0,,,91,49
137214,note_on,15,0,2,,,,,,,,,1,,,76,0
137214,note_on,15,0,1,,,,,,,,,0,,,91,0
137220,note_on,0,0,3,,,,,,,,,2,,,59,62
137220,note_on,0,0,4,,,,,,,,,3,,,47,62
137220,note_on,420,0,4,,,,,,,,,3,,,48,0
137220,note_on,420,0,3,,,,,,,,,2,,,60,0
137280,note_on,66,0,2,,,,,,,,,1,,,64,62
137280,note_on,66,0,1,,,,,,,,,0,,,81,62
137280,note_on,0,0,3,,,,,,,,,2,,,57,75
137280,note_on,60,0,4,,,,,,,,,3,,,47,0
137280,note_on,0,0,4,,,,,,,,,3,,,45,75
137280,note_on,60,0,3,,,,,,,,,2,,,59,0
137295,note_on,15,0,1,,,,,,,,,0,,,81,0
137295,note_on,15,0,2,,,,,,,,,1,,,64,0
137360,note_on,65,0,1,,,,,,,,,0,,,84,62
137360,note_on,65,0,2,,,,,,,,,1,,,72,62
137375,note_on,15,0,1,,,,,,,,,0,,,84,0
137375,note_on,15,0,2,,,,,,,,,1,,,72,0
137439,note_on,64,0,2,,,,,,,,,1,,,76,62
137439,note_on,64,0,1,,,,,,,,,0,,,93,62
137454,note_on,15,0,2,,,,,,,,,1,,,76,0
137454,note_on,15,0,1,,,,,,,,,0,,,93,0
137460,note_on,180,0,3,,,,,,,,,2,,,57,0
137460,note_on,0,0,4,,,,,,,,,3,,,43,75
137460,note_on,0,0,3,,,,,,,,,2,,,55,75
137460,note_on,180,0,4,,,,,,,,,3,,,45,0
137520,note_on,60,0,4,,,,,,,,,3,,,43,0
137520,note_on,0,0,4,,,,,,,,,3,,,41,75
137520,note_on,60,0,3,,,,,,,,,2,,,55,0
137520,note_on,0,0,3,,,,,,,,,2,,,53,75
137520,note_on,66,0,2,,,,,,,,,1,,,65,62
137520,note_on,66,0,1,,,,,,,,,0,,,81,62
137535,note_on,15,0,1,,,,,,,,,0,,,81,0
137535,note_on,15,0,2,,,,,,,,,1,,,65,0
137600,note_on,65,0,1,,,,,,,,,0,,,84,62
137600,note_on,65,0,2,,,,,,,,,1,,,72,62
137615,note_on,15,0,2,,,,,,,,,1,,,72,0
137615,note_on,15,0,1,,,,,,,,,0,,,84,0
137679,note_on,64,0,1,,,,,,,,,0,,,93,62
137679,note_on,64,0,2,,,,,,,,,1,,,77,62
137694,note_on,15,0,2,,,,,,,,,1,,,77,0
137694,note_on,15,0,1,,,,,,,,,0,,,93,0
137700,note_on,180,0,4,,,,,,,,,3,,,41,0
137700,note_on,0,0,4,,,,,,,,,3,,,45,75
137700,note_on,180,0,3,,,,,,,,,2,,,53,0
137700,note_on,0,0,3,,,,,,,,,2,,,57,75
137760,note_on,66,0,2,,,,,,,,,1,,,74,62
137760,note_on,60,0,4,,,,,,,,,3,,,45,0
137760,note_on,60,0,3,,,,,,,,,2,,,57,0
137760,note_on,0,0,3,,,,,,,,,2,,,50,75
137760,note_on,0,0,1,,,,,,,,,0,,,93,62
137760,note_on,0,0,1,,,,,,,,,0,,,89,62
137760,note_on,66,0,1,,,,,,,,,0,,,86,62
137760,note_on,0,0,2,,,,,,,,,1,,,81,62
137760,note_on,0,0,2,,,,,,,,,1,,,77,62
137760,note_on,0,0,4,,,,,,,,,3,,,38,75
137840,note_on,0,0,1,,,,,,,,,0,,,86,62
137840,note_on,0,0,1,,,,,,,,,0,,,89,0
137840,note_on,80,0,1,,,,,,,,,0,,,93,0
137840,note_on,0,0,1,,,,,,,,,0,,,86,0
137840,note_on,0,0,2,,,,,,,,,1,,,74,0
137840,note_on,80,0,2,,,,,,,,,1,,,81,0
137840,note_on,0,0,2,,,,,,,,,1,,,77,0
137919,note_on,79,0,1,,,,,,,,,0,,,86,0
137919,note_on,0,0,1,,,,,,,,,0,,,89,62
138000,note_on,240,0,4,,,,,,,,,3,,,38,0
138000,note_on,0,0,3,,,,,,,,,2,,,62,75
138000,note_on,240,0,3,,,,,,,,,2,,,50,0
138000,note_on,0,0,4,,,,,,,,,3,,,50,75
138000,note_on,160,0,2,,,,,,,,,1,,,65,62
138000,note_on,81,0,1,,,,,,,,,0,,,89,0
138000,note_on,0,0,1,,,,,,,,,0,,,81,62
138080,note_on,80,0,1,,,,,,,,,0,,,81,0
138080,note_on,0,0,1,,,,,,,,,0,,,86,62
138080,note_on,0,0,2,,,,,,,,,1,,,74,62
138080,note_on,80,0,2,,,,,,,,,1,,,65,0
138159,note_on,0,0,1,,,,,,,,,0,,,93,62
138159,note_on,79,0,2,,,,,,,,,1,,,74,0
138159,note_on,0,0,2,,,,,,,,,1,,,77,62
138159,note_on,79,0,1,,,,,,,,,0,,,86,0
138180,note_on,180,0,4,,,,,,,,,3,,,50,0
138180,note_on,0,0,4,,,,,,,,,3,,,48,75
138180,note_on,180,0,3,,,,,,,,,2,,,62,0
138180,note_on,0,0,3,,,,,,,,,2,,,60,75
138240,note_on,81,0,2,,,,,,,,,1,,,77,0
138240,note_on,60,0,3,,,,,,,,,2,,,60,0
138240,note_on,0,0,3,,,,,,,,,2,,,59,88
138240,note_on,0,0,2,,,,,,,,,1,,,66,75
138240,note_on,60,0,4,,,,,,,,,3,,,48,0
138240,note_on,0,0,4,,,,,,,,,3,,,47,88
138240,note_on,81,0,1,,,,,,,,,0,,,93,0
138240,note_on,0,0,1,,,,,,,,,0,,,83,75
138320,note_on,80,0,2,,,,,,,,,1,,,66,0
138320,note_on,0,0,2,,,,,,,,,1,,,74,75
138320,note_on,80,0,1,,,,,,,,,0,,,83,0
138320,note_on,0,0,1,,,,,,,,,0,,,86,75
138399,note_on,0,0,1,,,,,,,,,0,,,95,75
138399,note_on,79,0,1,,,,,,,,,0,,,86,0
138399,note_on,79,0,2,,,,,,,,,1,,,74,0
138399,note_on,0,0,2,,,,,,,,,1,,,78,75
138420,note_on,0,0,3,,,,,,,,,2,,,57,88
138420,note_on,0,0,4,,,,,,,,,3,,,45,88
138420,note_on,180,0,4,,,,,,,,,3,,,47,0
138420,note_on,180,0,3,,,,,,,,,2,,,59,0
138480,note_on,81,0,2,,,,,,,,,1,,,78,0
138480,note_on,81,0,1,,,,,,,,,0,,,95,0
138480,note_on,60,0,3,,,,,,,,,2,,,57,0
138480,note_on,0,0,3,,,,,,,,,2,,,55,88
138480,note_on,0,0,1,,,,,,,,,0,,,83,75
138480,note_on,0,0,4,,,,,,,,,3,,,43,88
138480,note_on,60,0,4,,,,,,,,,3,,,45,0
138480,note_on,0,0,2,,,,,,,,,1,,,67,75
138560,note_on,80,0,2,,,,,,,,,1,,,67,0
138560,note_on,80,0,1,,,,,,,,,0,,,83,0
138560,note_on,0,0,1,,,,,,,,,0,,,87,75
138560,note_on,0,0,2,,,,,,,,,1,,,75,75
138639,note_on,79,0,2,,,,,,,,,1,,,75,0
138639,note_on,0,0,1,,,,,,,,,0,,,95,75
138639,note_on,79,0,1,,,,,,,,,0,,,87,0
138639,note_on,0,0,2,,,,,,,,,1,,,79,75
138660,note_on,180,0,3,,,,,,,,,2,,,55,0
138660,note_on,0,0,3,,,,,,,,,2,,,59,88
138660,note_on,0,0,4,,,,,,,,,3,,,47,88
138660,note_on,180,0,4,,,,,,,,,3,,,43,0
138720,note_on,81,0,2,,,,,,,,,1,,,79,0
138720,note_on,0,0,2,,,,,,,,,1,,,67,75
138720,note_on,0,0,1,,,,,,,,,0,,,83,75
138720,note_on,81,0,1,,,,,,,,,0,,,95,0
138720,note_on,0,0,3,,,,,,,,,2,,,52,88
138720,note_on,60,0,3,,,,,,,,,2,,,59,0
138720,note_on,60,0,4,,,,,,,,,3,,,47,0
138720,note_on,0,0,4,,,,,,,,,3,,,40,88
138800,note_on,80,0,2,,,,,,,,,1,,,67,0
138800,note_on,0,0,2,,,,,,,,,1,,,76,75
138800,note_on,80,0,1,,,,,,,,,0,,,83,0
138800,note_on,0,0,1,,,,,,,,,0,,,88,75
138879,note_on,79,0,2,,,,,,,,,1,,,76,0
138879,note_on,79,0,1,,,,,,,,,0,,,88,0
138879,note_on,0,0,1,,,,,,,,,0,,,95,75
138879,note_on,0,0,2,,,,,,,,,1,,,79,75
138960,note_on,81,0,2,,,,,,,,,1,,,79,0
138960,note_on,0,0,2,,,,,,,,,1,,,55,75
138960,note_on,81,0,1,,,,,,,,,0,,,95,0
138960,note_on,0,0,1,,,,,,,,,0,,,71,75
139040,note_on,80,0,2,,,,,,,,,1,,,55,0
139040,note_on,0,0,2,,,,,,,,,1,,,64,75
139040,note_on,0,0,1,,,,,,,,,0,,,76,75
139040,note_on,80,0,1,,,,,,,,,0,,,71,0
139119,note_on,0,0,1,,,,,,,,,0,,,83,75
139119,note_on,0,0,2,,,,,,,,,1,,,67,75
139119,note_on,79,0,2,,,,,,,,,1,,,64,0
139119,note_on,79,0,1,,,,,,,,,0,,,76,0
139140,note_on,0,0,3,,,,,,,,,2,,,50,88
139140,note_on,420,0,3,,,,,,,,,2,,,52,0
139140,note_on,420,0,4,,,,,,,,,3,,,40,0
139140,note_on,0,0,4,,,,,,,,,3,,,38,88
139200,note_on,0,0,2,,,,,,,,,1,,,55,75
139200,note_on,0,0,4,,,,,,,,,3,,,36,88
139200,note_on,0,0,3,,,,,,,,,2,,,48,88
139200,note_on,60,0,3,,,,,,,,,2,,,50,0
139200,note_on,60,0,4,,,,,,,,,3,,,38,0
139200,note_on,81,0,2,,,,,,,,,1,,,67,0
139200,note_on,81,0,1,,,,,,,,,0,,,83,0
139200,note_on,0,0,1,,,,,,,,,0,,,72,75
139280,note_on,80,0,1,,,,,,,,,0,,,72,0
139280,note_on,0,0,2,,,,,,,,,1,,,64,75
139280,note_on,0,0,1,,,,,,,,,0,,,76,75
139280,note_on,80,0,2,,,,,,,,,1,,,55,0
139359,note_on,0,0,1,,,,,,,,,0,,,84,75
139359,note_on,0,0,2,,,,,,,,,1,,,67,75
139359,note_on,79,0,2,,,,,,,,,1,,,64,0
139359,note_on,79,0,1,,,,,,,,,0,,,76,0
139380,note_on,0,0,4,,,,,,,,,3,,,35,88
139380,note_on,180,0,4,,,,,,,,,3,,,36,0
139380,note_on,180,0,3,,,,,,,,,2,,,48,0
139380,note_on,0,0,3,,,,,,,,,2,,,47,88
139440,note_on,81,0,1,,,,,,,,,0,,,84,0
139440,note_on,60,0,4,,,,,,,,,3,,,35,0
139440,note_on,0,0,4,,,,,,,,,3,,,33,88
139440,note_on,60,0,3,,,,,,,,,2,,,47,0
139440,note_on,0,0,3,,,,,,,,,2,,,45,88
139440,note_on,0,0,2,,,,,,,,,1,,,57,75
139440,note_on,81,0,2,,,,,,,,,1,,,67,0
139440,note_on,0,0,1,,,,,,,,,0,,,72,75
139520,note_on,0,0,1,,,,,,,,,0,,,76,75
139520,note_on,80,0,1,,,,,,,,,0,,,72,0
139520,note_on,80,0,2,,,,,,,,,1,,,57,0
139520,note_on,0,0,2,,,,,,,,,1,,,64,75
139599,note_on,0,0,2,,,,,,,,,1,,,69,75
139599,note_on,79,0,2,,,,,,,,,1,,,64,0
139599,note_on,0,0,1,,,,,,,,,0,,,84,75
139599,note_on,79,0,1,,,,,,,,,0,,,76,0
139620,note_on,0,0,3,,,,,,,,,2,,,48,88
139620,note_on,180,0,3,,,,,,,,,2,,,45,0
139620,note_on,180,0,4,,,,,,,,,3,,,33,0
139620,note_on,0,0,4,,,,,,,,,3,,,36,88
139680,note_on,81,0,2,,,,,,,,,1,,,69,0
139680,note_on,0,0,2,,,,,,,,,1,,,69,75
139680,note_on,0,0,2,,,,,,,,,1,,,65,75
139680,note_on,0,0,2,,,,,,,,,1,,,60,75
139680,note_on,0,0,2,,,,,,,,,1,,,57,75
139680,note_on,60,0,3,,,,,,,,,2,,,48,0
139680,note_on,0,0,3,,,,,,,,,2,,,41,114
139680,note_on,60,0,4,,,,,,,,,3,,,36,0
139680,note_on,0,0,1,,,,,,,,,0,,,84,88
139680,note_on,0,0,1,,,,,,,,,0,,,81,88
139680,note_on,0,0,1,,,,,,,,,0,,,77,88
139680,note_on,0,0,1,,,,,,,,,0,,,72,88
139680,note_on,81,0,1,,,,,,,,,0,,,84,0
139680,note_on,0,0,4,,,,,,,,,3,,,29,114
139760,note_on,0,0,2,,,,,,,,,1,,,65,75
139760,note_on,0,0,2,,,,,,,,,1,,,65,0
139760,note_on,0,0,2,,,,,,,,,1,,,60,0
139760,note_on,0,0,2,,,,,,,,,1,,,57,0
139760,note_on,80,0,2,,,,,,,,,1,,,69,0
139760,note_on,0,0,1,,,,,,,,,0,,,72,0
139760,note_on,0,0,1,,,,,,,,,0,,,81,88
139760,note_on,0,0,1,,,,,,,,,0,,,81,0
139760,note_on,0,0,1,,,,,,,,,0,,,77,0
139760,note_on,80,0,1,,,,,,,,,0,,,84,0
139839,note_on,0,0,1,,,,,,,,,0,,,84,88
139839,note_on,79,0,2,,,,,,,,,1,,,65,0
139839,note_on,0,0,2,,,,,,,,,1,,,69,75
139839,note_on,79,0,1,,,,,,,,,0,,,81,0
139920,note_on,81,0,2,,,,,,,,,1,,,69,0
139920,note_on,0,0,2,,,,,,,,,1,,,72,75
139920,note_on,0,0,1,,,,,,,,,0,,,89,88
139920,note_on,81,0,1,,,,,,,,,0,,,84,0
140000,note_on,80,0,2,,,,,,,,,1,,,72,0
140000,note_on,0,0,1,,,,,,,,,0,,,93,88
140000,note_on,80,0,1,,,,,,,,,0,,,89,0
140000,note_on,0,0,2,,,,,,,,,1,,,77,75
140079,note_on,79,0,2,,,,,,,,,1,,,77,0
140079,note_on,0,0,1,,,,,,,,,0,,,96,88
140079,note_on,0,0,2,,,,,,,,,1,,,81,75
140079,note_on,79,0,1,,,,,,,,,0,,,93,0
140160,note_on,0,0,2,,,,,,,,,1,,,84,101
140160,note_on,0,0,1,,,,,,,,,0,,,101,114
140160,note_on,0,0,1,,,,,,,,,0,,,93,114
140160,note_on,81,0,1,,,,,,,,,0,,,96,0
140160,note_on,0,0,2,,,,,,,,,1,,,77,101
140160,note_on,81,0,2,,,,,,,,,1,,,81,0
140240,note_on,560,0,3,,,,,,,,,2,,,41,0
140240,note_on,0,0,3,,,,,,,,,2,,,45,88
140240,note_on,0,0,4,,,,,,,,,3,,,33,88
140240,note_on,560,0,4,,,,,,,,,3,,,29,0
140255,note_on,15,0,4,,,,,,,,,3,,,33,0
140255,note_on,15,0,3,,,,,,,,,2,,,45,0
140319,note_on,64,0,4,,,,,,,,,3,,,36,88
140319,note_on,64,0,3,,,,,,,,,2,,,48,88
140334,note_on,15,0,3,,,,,,,,,2,,,48,0
140334,note_on,15,0,4,,,,,,,,,3,,,36,0
140400,note_on,66,0,3,,,,,,,,,2,,,45,88
140400,note_on,66,0,4,,,,,,,,,3,,,33,88
140415,note_on,15,0,4,,,,,,,,,3,,,33,0
140415,note_on,15,0,3,,,,,,,,,2,,,45,0
140480,note_on,65,0,3,,,,,,,,,2,,,53,88
140480,note_on,65,0,4,,,,,,,,,3,,,41,88
140495,note_on,15,0,4,,,,,,,,,3,,,41,0
140495,note_on,15,0,3,,,,,,,,,2,,,53,0
140559,note_on,64,0,3,,,,,,,,,2,,,48,88
140559,note_on,64,0,4,,,,,,,,,3,,,36,88
140574,note_on,15,0,4,,,,,,,,,3,,,36,0
140574,note_on,15,0,3,,,,,,,,,2,,,48,0
140640,note_on,66,0,3,,,,,,,,,2,,,41,114
140640,note_on,66,0,4,,,,,,,,,3,,,29,114
140720,note_on,0,0,1,,,,,,,,,0,,,81,88
140720,note_on,0,0,1,,,,,,,,,0,,,93,0
140720,note_on,560,0,1,,,,,,,,,0,,,101,0
140720,note_on,560,0,2,,,,,,,,,1,,,84,0
140720,note_on,0,0,2,,,,,,,,,1,,,77,0
140720,note_on,0,0,2,,,,,,,,,1,,,65,75
140799,note_on,0,0,1,,,,,,,,,0,,,84,88
140799,note_on,79,0,1,,,,,,,,,0,,,81,0
140799,note_on,79,0,2,,,,,,,,,1,,,65,0
140799,note_on,0,0,2,,,,,,,,,1,,,69,75
140880,note_on,0,0,1,,,,,,,,,0,,,89,88
140880,note_on,81,0,1,,,,,,,,,0,,,84,0
140880,note_on,0,0,2,,,,,,,,,1,,,72,75
140880,note_on,81,0,2,,,,,,,,,1,,,69,0
140960,note_on,0,0,1,,,,,,,,,0,,,93,88
140960,note_on,80,0,2,,,,,,,,,1,,,72,0
140960,note_on,0,0,2,,,,,,,,,1,,,77,75
140960,note_on,80,0,1,,,,,,,,,0,,,89,0
141039,note_on,79,0,2,,,,,,,,,1,,,77,0
141039,note_on,0,0,2,,,,,,,,,1,,,81,75
141039,note_on,79,0,1,,,,,,,,,0,,,93,0
141039,note_on,0,0,1,,,,,,,,,0,,,96,88
141120,note_on,81,0,2,,,,,,,,,1,,,81,0
141120,note_on,0,0,2,,,,,,,,,1,,,77,101
141120,note_on,81,0,1,,,,,,,,,0,,,96,0
141120,note_on,0,0,1,,,,,,,,,0,,,93,114
141120,note_on,0,0,1,,,,,,,,,0,,,101,114
141120,note_on,0,0,2,,,,,,,,,1,,,84,101
141200,note_on,560,0,4,,,,,,,,,3,,,29,0
141200,note_on,560,0,3,,,,,,,,,2,,,41,0
141200,note_on,0,0,3,,,,,,,,,2,,,45,88
141200,note_on,0,0,4,,,,,,,,,3,,,33,88
141215,note_on,15,0,4,,,,,,,,,3,,,33,0
141215,note_on,15,0,3,,,,,,,,,2,,,45,0
141279,note_on,64,0,4,,,,,,,,,3,,,36,88
141279,note_on,64,0,3,,,,,,,,,2,,,48,88
141294,note_on,15,0,4,,,,,,,,,3,,,36,0
141294,note_on,15,0,3,,,,,,,,,2,,,48,0
141360,note_on,66,0,4,,,,,,,,,3,,,33,88
141360,note_on,66,0,3,,,,,,,,,2,,,45,88
141375,note_on,15,0,3,,,,,,,,,2,,,45,0
141375,note_on,15,0,4,,,,,,,,,3,,,33,0
141440,note_on,65,0,3,,,,,,,,,2,,,53,88
141440,note_on,65,0,4,,,,,,,,,3,,,41,88
141455,note_on,15,0,3,,,,,,,,,2,,,53,0
141455,note_on,15,0,4,,,,,,,,,3,,,41,0
141519,note_on,64,0,4,,,,,,,,,3,,,36,88
141519,note_on,64,0,3,,,,,,,,,2,,,48,88
141534,note_on,15,0,4,,,,,,,,,3,,,36,0
141534,note_on,15,0,3,,,,,,,,,2,,,48,0
141600,note_on,66,0,3,,,,,,,,,2,,,41,114
141600,note_on,66,0,4,,,,,,,,,3,,,29,114
141680,note_on,0,0,1,,,,,,,,,0,,,93,0
141680,note_on,560,0,1,,,,,,,,,0,,,101,0
141680,note_on,0,0,2,,,,,,,,,1,,,65,75
141680,note_on,560,0,2,,,,,,,,,1,,,84,0
141680,note_on,0,0,2,,,,,,,,,1,,,77,0
141680,note_on,0,0,1,,,,,,,,,0,,,81,88
141759,note_on,79,0,1,,,,,,,,,0,,,81,0
141759,note_on,0,0,1,,,,,,,,,0,,,84,88
141759,note_on,79,0,2,,,,,,,,,1,,,65,0
141759,note_on,0,0,2,,,,,,,,,1,,,69,75
141840,note_on,81,0,2,,,,,,,,,1,,,69,0
141840,note_on,0,0,1,,,,,,,,,0,,,89,75
141840,note_on,81,0,1,,,,,,,,,0,,,84,0
141840,note_on,0,0,2,,,,,,,,,1,,,72,75
141920,note_on,80,0,2,,,,,,,,,1,,,72,0
141920,note_on,0,0,2,,,,,,,,,1,,,77,75
141920,note_on,80,0,1,,,,,,,,,0,,,89,0
141920,note_on,0,0,1,,,,,,,,,0,,,93,75
141999,note_on,79,0,2,,,,,,,,,1,,,77,0
141999,note_on,0,0,2,,,,,,,,,1,,,81,75
141999,note_on,0,0,1,,,,,,,,,0,,,96,75
141999,note_on,79,0,1,,,,,,,,,0,,,93,0
142080,note_on,0,0,2,,,,,,,,,1,,,84,101
142080,note_on,81,0,2,,,,,,,,,1,,,81,0
142080,note_on,0,0,3,,,,,,,,,2,,,42,88
142080,note_on,480,0,3,,,,,,,,,2,,,41,0
142080,note_on,0,0,1,,,,,,,,,0,,,93,101
142080,note_on,0,0,1,,,,,,,,,0,,,99,101
142080,note_on,81,0,1,,,,,,,,,0,,,96,0
142080,note_on,480,0,4,,,,,,,,,3,,,29,0
142080,note_on,0,0,4,,,,,,,,,3,,,30,88
142160,note_on,80,0,4,,,,,,,,,3,,,30,0
142160,note_on,0,0,4,,,,,,,,,3,,,33,88
142160,note_on,80,0,3,,,,,,,,,2,,,42,0
142160,note_on,0,0,3,,,,,,,,,2,,,45,88
142239,note_on,79,0,3,,,,,,,,,2,,,45,0
142239,note_on,0,0,4,,,,,,,,,3,,,36,88
142239,note_on,79,0,4,,,,,,,,,3,,,33,0
142239,note_on,0,0,3,,,,,,,,,2,,,48,88
142320,note_on,0,0,4,,,,,,,,,3,,,33,88
142320,note_on,81,0,4,,,,,,,,,3,,,36,0
142320,note_on,0,0,3,,,,,,,,,2,,,45,88
142320,note_on,81,0,3,,,,,,,,,2,,,48,0
142400,note_on,80,0,4,,,,,,,,,3,,,33,0
142400,note_on,80,0,3,,,,,,,,,2,,,45,0
142400,note_on,0,0,3,,,,,,,,,2,,,54,88
142400,note_on,0,0,4,,,,,,,,,3,,,42,88
142479,note_on,0,0,4,,,,,,,,,3,,,36,88
142479,note_on,79,0,4,,,,,,,,,3,,,42,0
142479,note_on,79,0,3,,,,,,,,,2,,,54,0
142479,note_on,0,0,3,,,,,,,,,2,,,48,88
142560,note_on,0,0,4,,,,,,,,,3,,,29,114
142560,note_on,81,0,4,,,,,,,,,3,,,36,0
142560,note_on,81,0,3,,,,,,,,,2,,,48,0
142560,note_on,0,0,3,,,,,,,,,2,,,41,114
142640,note_on,560,0,1,,,,,,,,,0,,,99,0
142640,note_on,0,0,1,,,,,,,,,0,,,93,0
142640,note_on,0,0,1,,,,,,,,,0,,,81,75
142640,note_on,0,0,2,,,,,,,,,1,,,65,75
142640,note_on,560,0,2,,,,,,,,,1,,,84,0
142719,note_on,79,0,1,,,,,,,,,0,,,81,0
142719,note_on,0,0,1,,,,,,,,,0,,,84,75
142719,note_on,79,0,2,,,,,,,,,1,,,65,0
142719,note_on,0,0,2,,,,,,,,,1,,,69,75
142800,note_on,0,0,1,,,,,,,,,0,,,89,75
142800,note_on,81,0,1,,,,,,,,,0,,,84,0
142800,note_on,81,0,2,,,,,,,,,1,,,69,0
142800,note_on,0,0,2,,,,,,,,,1,,,72,75
142880,note_on,80,0,1,,,,,,,,,0,,,89,0
142880,note_on,0,0,1,,,,,,,,,0,,,93,75
142880,note_on,80,0,2,,,,,,,,,1,,,72,0
142880,note_on,0,0,2,,,,,,,,,1,,,77,75
142959,note_on,79,0,1,,,,,,,,,0,,,93,0
142959,note_on,0,0,1,,,,,,,,,0,,,96,75
142959,note_on,0,0,2,,,,,,,,,1,,,81,75
142959,note_on,79,0,2,,,,,,,,,1,,,77,0
143040,note_on,480,0,3,,,,,,,,,2,,,41,0
143040,note_on,0,0,3,,,,,,,,,2,,,42,88
143040,note_on,0,0,1,,,,,,,,,0,,,99,75
143040,note_on,81,0,2,,,,,,,,,1,,,81,0
143040,note_on,81,0,1,,,,,,,,,0,,,96,0
143040,note_on,0,0,1,,,,,,,,,0,,,93,75
143040,note_on,0,0,2,,,,,,,,,1,,,84,75
143040,note_on,0,0,4,,,,,,,,,3,,,30,88
143040,note_on,480,0,4,,,,,,,,,3,,,29,0
143120,note_on,0,0,4,,,,,,,,,3,,,33,88
143120,note_on,0,0,3,,,,,,,,,2,,,45,88
143120,note_on,80,0,3,,,,,,,,,2,,,42,0
143120,note_on,80,0,4,,,,,,,,,3,,,30,0
143199,note_on,0,0,4,,,,,,,,,3,,,36,88
143199,note_on,79,0,4,,,,,,,,,3,,,33,0
143199,note_on,79,0,3,,,,,,,,,2,,,45,0
143199,note_on,0,0,3,,,,,,,,,2,,,48,88
143280,note_on,0,0,4,,,,,,,,,3,,,33,88
143280,note_on,81,0,3,,,,,,,,,2,,,48,0
143280,note_on,0,0,3,,,,,,,,,2,,,45,88
143280,note_on,81,0,4,,,,,,,,,3,,,36,0
143360,note_on,80,0,4,,,,,,,,,3,,,33,0
143360,note_on,0,0,4,,,,,,,,,3,,,42,88
143360,note_on,80,0,3,,,,,,,,,2,,,45,0
143360,note_on,0,0,3,,,,,,,,,2,,,54,88
143439,note_on,79,0,4,,,,,,,,,3,,,42,0
143439,note_on,0,0,4,,,,,,,,,3,,,36,88
143439,note_on,79,0,3,,,,,,,,,2,,,54,0
143439,note_on,0,0,3,,,,,,,,,2,,,48,88
143520,note_on,0,0,2,,,,,,,,,1,,,84,75
143520,note_on,480,0,2,,,,,,,,,1,,,84,0
143520,note_on,81,0,4,,,,,,,,,3,,,36,0
143520,note_on,0,0,4,,,,,,,,,3,,,29,62
143520,control_change,0,0,2,,,,,,,,,1,64,127,,
143520,note_on,81,0,3,,,,,,,,,2,,,48,0
143520,note_on,0,0,2,,,,,,,,,1,,,87,75
143520,note_on,0,0,1,,,,,,,,,0,,,100,75
143520,note_on,0,0,1,,,,,,,,,0,,,93,0
143520,note_on,480,0,1,,,,,,,,,0,,,99,0
143520,note_on,0,0,3,,,,,,,,,2,,,41,62
143600,note_on,0,0,1,,,,,,,,,0,,,101,75
143600,note_on,80,0,1,,,,,,,,,0,,,100,0
143679,note_on,0,0,1,,,,,,,,,0,,,100,75
143679,note_on,79,0,1,,,,,,,,,0,,,101,0
143700,note_on,0,0,2,,,,,,,,,1,,,86,75
143700,note_on,0,0,2,,,,,,,,,1,,,82,75
143700,note_on,180,0,2,,,,,,,,,1,,,87,0
143700,note_on,0,0,2,,,,,,,,,1,,,84,0
143760,note_on,0,0,1,,,,,,,,,0,,,96,75
143760,note_on,60,0,2,,,,,,,,,1,,,86,0
143760,note_on,0,0,2,,,,,,,,,1,,,82,0
143760,note_on,0,0,2,,,,,,,,,1,,,81,75
143760,note_on,0,0,2,,,,,,,,,1,,,84,75
143760,note_on,81,0,1,,,,,,,,,0,,,100,0
143840,note_on,80,0,1,,,,,,,,,0,,,96,0
143840,note_on,0,0,1,,,,,,,,,0,,,98,75
143919,note_on,0,0,1,,,,,,,,,0,,,94,75
143919,note_on,79,0,1,,,,,,,,,0,,,98,0
143940,note_on,180,0,2,,,,,,,,,1,,,84,0
143940,note_on,0,0,2,,,,,,,,,1,,,81,0
143940,control_change,0,0,2,,,,,,,,,1,64,0,,
143940,note_on,0,0,2,,,,,,,,,1,,,79,75
143940,note_on,0,0,2,,,,,,,,,1,,,82,75
144000,note_on,0,0,1,,,,,,,,,0,,,93,75
144000,note_on,60,0,2,,,,,,,,,1,,,82,0
144000,note_on,0,0,2,,,,,,,,,1,,,79,0
144000,note_on,81,0,1,,,,,,,,,0,,,94,0
144000,note_on,0,0,2,,,,,,,,,1,,,77,75
144000,note_on,0,0,2,,,,,,,,,1,,,81,75
144080,note_on,80,0,1,,,,,,,,,0,,,93,0
144080,note_on,0,0,1,,,,,,,,,0,,,94,75
144159,note_on,79,0,1,,,,,,,,,0,,,94,0
144159,note_on,0,0,1,,,,,,,,,0,,,91,75
144180,note_on,0,0,2,,,,,,,,,1,,,77,0
144180,note_on,180,0,2,,,,,,,,,1,,,81,0
144180,note_on,0,0,2,,,,,,,,,1,,,75,75
144180,note_on,0,0,2,,,,,,,,,1,,,79,75
144240,note_on,60,0,2,,,,,,,,,1,,,79,0
144240,note_on,0,0,2,,,,,,,,,1,,,75,0
144240,note_on,0,0,2,,,,,,,,,1,,,74,75
144240,note_on,0,0,2,,,,,,,,,1,,,77,75
144240,note_on,81,0,1,,,,,,,,,0,,,91,0
144240,note_on,0,0,1,,,,,,,,,0,,,89,75
144320,note_on,80,0,1,,,,,,,,,0,,,89,0
144320,note_on,0,0,1,,,,,,,,,0,,,91,75
144399,note_on,0,0,1,,,,,,,,,0,,,88,75
144399,note_on,79,0,1,,,,,,,,,0,,,91,0
144420,note_on,180,0,2,,,,,,,,,1,,,77,0
144420,note_on,0,0,2,,,,,,,,,1,,,74,0
144420,note_on,0,0,2,,,,,,,,,1,,,73,75
144420,note_on,0,0,2,,,,,,,,,1,,,76,75
144480,control_change,0,0,2,,,,,,,,,1,64,127,,
144480,note_on,0,0,2,,,,,,,,,1,,,75,62
144480,control_change,0,0,1,,,,,,,,,0,64,127,,
144480,note_on,0,0,1,,,,,,,,,0,,,87,62
144480,note_on,0,0,2,,,,,,,,,1,,,72,62
144480,note_on,60,0,2,,,,,,,,,1,,,76,0
144480,note_on,0,0,2,,,,,,,,,1,,,73,0
144480,note_on,81,0,1,,,,,,,,,0,,,88,0
144560,note_on,80,0,1,,,,,,,,,0,,,87,0
144560,note_on,0,0,1,,,,,,,,,0,,,89,62
144639,note_on,79,0,1,,,,,,,,,0,,,89,0
144639,note_on,0,0,1,,,,,,,,,0,,,86,62
144660,note_on,0,0,2,,,,,,,,,1,,,71,62
144660,note_on,0,0,2,,,,,,,,,1,,,74,62
144660,note_on,180,0,2,,,,,,,,,1,,,75,0
144660,note_on,0,0,2,,,,,,,,,1,,,72,0
144720,note_on,81,0,1,,,,,,,,,0,,,86,0
144720,note_on,0,0,1,,,,,,,,,0,,,87,62
144720,note_on,0,0,2,,,,,,,,,1,,,71,0
144720,note_on,0,0,2,,,,,,,,,1,,,72,62
144720,note_on,0,0,2,,,,,,,,,1,,,75,62
144720,note_on,60,0,2,,,,,,,,,1,,,74,0
144800,note_on,80,0,1,,,,,,,,,0,,,87,0
144800,note_on,0,0,1,,,,,,,,,0,,,89,62
144879,note_on,79,0,1,,,,,,,,,0,,,89,0
144879,note_on,0,0,1,,,,,,,,,0,,,86,62
144900,note_on,180,0,2,,,,,,,,,1,,,75,0
144900,note_on,0,0,2,,,,,,,,,1,,,72,0
144900,note_on,0,0,2,,,,,,,,,1,,,74,62
144900,note_on,0,0,2,,,,,,,,,1,,,71,62
144960,set_tempo,12960,1,0,,,,,,1200000,,,,,,,
144960,note_on,60,0,2,,,,,,,,,1,,,74,0
144960,note_on,0,0,2,,,,,,,,,1,,,71,0
144960,note_on,0,0,2,,,,,,,,,1,,,72,62
144960,note_on,0,0,2,,,,,,,,,1,,,75,62
144960,note_on,81,0,1,,,,,,,,,0,,,86,0
144960,note_on,0,0,1,,,,,,,,,0,,,87,62
145040,note_on,80,0,1,,,,,,,,,0,,,87,0
145040,note_on,0,0,1,,,,,,,,,0,,,89,62
145119,note_on,0,0,1,,,,,,,,,0,,,87,62
145119,note_on,79,0,1,,,,,,,,,0,,,89,0
145200,note_on,1680,0,3,,,,,,,,,2,,,41,0
145200,note_on,1680,0,4,,,,,,,,,3,,,29,0
145200,note_on,0,0,3,,,,,,,,,2,,,58,62
145200,note_on,81,0,1,,,,,,,,,0,,,87,0
145200,note_on,0,0,1,,,,,,,,,0,,,86,62
145200,note_on,0,0,2,,,,,,,,,1,,,74,62
145200,note_on,0,0,2,,,,,,,,,1,,,72,0
145200,note_on,240,0,2,,,,,,,,,1,,,75,0
145280,note_on,0,0,3,,,,,,,,,2,,,53,62
145280,note_on,80,0,3,,,,,,,,,2,,,58,0
145359,note_on,0,0,3,,,,,,,,,2,,,60,62
145359,note_on,79,0,3,,,,,,,,,2,,,53,0
145380,control_change,0,0,1,,,,,,,,,0,64,0,,
145380,note_on,0,0,1,,,,,,,,,0,,,87,62
145380,note_on,180,0,1,,,,,,,,,0,,,86,0
145380,note_on,0,0,2,,,,,,,,,1,,,75,62
145380,control_change,0,0,2,,,,,,,,,1,64,0,,
145380,note_on,180,0,2,,,,,,,,,1,,,74,0
145440,control_change,0,0,1,,,,,,,,,0,64,127,,
145440,note_on,81,0,3,,,,,,,,,2,,,60,0
145440,control_change,240,0,4,,,,,,,,,3,64,127,,
145440,note_on,0,0,4,,,,,,,,,3,,,34,62
145440,control_change,0,0,2,,,,,,,,,1,64,127,,
145440,note_on,60,0,2,,,,,,,,,1,,,75,0
145440,note_on,0,0,2,,,,,,,,,1,,,77,62
145440,note_on,0,0,3,,,,,,,,,2,,,62,62
145440,note_on,60,0,1,,,,,,,,,0,,,87,0
145440,set_tempo,480,1,0,,,,,,1000000,,,,,,,
145440,note_on,0,0,1,,,,,,,,,0,,,89,62
145520,note_on,0,0,3,,,,,,,,,2,,,53,62
145520,note_on,80,0,3,,,,,,,,,2,,,62,0
145599,note_on,0,0,3,,,,,,,,,2,,,62,62
145599,note_on,79,0,3,,,,,,,,,2,,,53,0
145680,note_on,0,0,1,,,,,,,,,0,,,87,62
145680,note_on,81,0,3,,,,,,,,,2,,,62,0
145680,note_on,0,0,3,,,,,,,,,2,,,60,62
145680,note_on,240,0,1,,,,,,,,,0,,,89,0
145680,note_on,240,0,2,,,,,,,,,1,,,77,0
145680,note_on,0,0,2,,,,,,,,,1,,,75,62
145760,note_on,80,0,3,,,,,,,,,2,,,60,0
145760,note_on,0,0,3,,,,,,,,,2,,,53,62
145800,note_on,360,0,4,,,,,,,,,3,,,34,0
145800,note_on,0,0,4,,,,,,,,,3,,,38,62
145839,note_on,0,0,3,,,,,,,,,2,,,58,62
145839,note_on,79,0,3,,,,,,,,,2,,,53,0
145860,note_on,180,0,1,,,,,,,,,0,,,87,0
145860,note_on,180,0,2,,,,,,,,,1,,,75,0
145860,note_on,0,0,2,,,,,,,,,1,,,74,62
145860,note_on,0,0,1,,,,,,,,,0,,,86,62
145920,note_on,0,0,3,,,,,,,,,2,,,57,62
145920,note_on,81,0,3,,,,,,,,,2,,,58,0
145920,note_on,0,0,4,,,,,,,,,3,,,41,62
145920,note_on,120,0,4,,,,,,,,,3,,,38,0
145920,note_on,0,0,2,,,,,,,,,1,,,72,62
145920,note_on,0,0,1,,,,,,,,,0,,,84,62
145920,note_on,60,0,2,,,,,,,,,1,,,74,0
145920,note_on,60,0,1,,,,,,,,,0,,,86,0
146000,note_on,0,0,3,,,,,,,,,2,,,53,62
146000,note_on,80,0,3,,,,,,,,,2,,,57,0
146079,note_on,79,0,3,,,,,,,,,2,,,53,0
146079,note_on,0,0,3,,,,,,,,,2,,,55,62
146160,note_on,0,0,4,,,,,,,,,3,,,39,62
146160,note_on,240,0,4,,,,,,,,,3,,,41,0
146160,note_on,0,0,1,,,,,,,,,0,,,86,62
146160,control_change,0,0,1,,,,,,,,,0,64,0,,
146160,note_on,240,0,1,,,,,,,,,0,,,84,0
146160,note_on,240,0,2,,,,,,,,,1,,,72,0
146160,note_on,81,0,3,,,,,,,,,2,,,55,0
146160,control_change,0,0,2,,,,,,,,,1,64,0,,
146160,note_on,0,0,2,,,,,,,,,1,,,74,62
146160,note_on,0,0,2,,,,,,,,,1,,,71,62
146160,note_on,0,0,2,,,,,,,,,1,,,67,62
146160,note_on,0,0,3,,,,,,,,,2,,,56,62
146240,note_on,80,0,3,,,,,,,,,2,,,56,0
146240,note_on,0,0,3,,,,,,,,,2,,,55,62
146319,note_on,79,0,3,,,,,,,,,2,,,55,0
146319,note_on,0,0,3,,,,,,,,,2,,,65,62
146340,note_on,180,0,4,,,,,,,,,3,,,39,0
146340,control_change,0,0,4,,,,,,,,,3,64,0,,
146340,note_on,0,0,4,,,,,,,,,3,,,38,62
146400,note_on,240,0,1,,,,,,,,,0,,,86,0
146400,note_on,0,0,1,,,,,,,,,0,,,87,62
146400,note_on,0,0,2,,,,,,,,,1,,,75,62
146400,note_on,60,0,4,,,,,,,,,3,,,38,0
146400,note_on,240,0,2,,,,,,,,,1,,,74,0
146400,note_on,0,0,2,,,,,,,,,1,,,71,0
146400,note_on,0,0,2,,,,,,,,,1,,,67,0
146400,note_on,0,0,2,,,,,,,,,1,,,67,62
146400,note_on,0,0,2,,,,,,,,,1,,,72,62
146400,note_on,0,0,3,,,,,,,,,2,,,63,62
146400,note_on,81,0,3,,,,,,,,,2,,,65,0
146400,note_on,0,0,4,,,,,,,,,3,,,36,62
146480,note_on,80,0,3,,,,,,,,,2,,,63,0
146480,note_on,0,0,3,,,,,,,,,2,,,60,62
146559,note_on,79,0,3,,,,,,,,,2,,,60,0
146559,note_on,0,0,3,,,,,,,,,2,,,55,62
146640,note_on,81,0,3,,,,,,,,,2,,,55,0
146640,note_on,0,0,3,,,,,,,,,2,,,51,62
146720,note_on,0,0,3,,,,,,,,,2,,,53,62
146720,note_on,80,0,3,,,,,,,,,2,,,51,0
146799,note_on,79,0,3,,,,,,,,,2,,,53,0
146799,note_on,0,0,3,,,,,,,,,2,,,54,62
146880,note_on,0,0,2,,,,,,,,,1,,,67,0
146880,note_on,0,0,2,,,,,,,,,1,,,67,88
146880,note_on,480,0,4,,,,,,,,,3,,,36,0
146880,note_on,0,0,2,,,,,,,,,1,,,74,88
146880,note_on,0,0,2,,,,,,,,,1,,,72,0
146880,note_on,0,0,2,,,,,,,,,1,,,71,88
146880,note_on,480,0,2,,,,,,,,,1,,,75,0
146880,note_on,0,0,3,,,,,,,,,2,,,55,62
146880,note_on,480,0,1,,,,,,,,,0,,,87,0
146880,note_on,81,0,3,,,,,,,,,2,,,54,0
146880,note_on,0,0,4,,,,,,,,,3,,,43,88
146880,note_on,0,0,1,,,,,,,,,0,,,86,88
146960,note_on,0,0,3,,,,,,,,,2,,,54,62
146960,note_on,80,0,3,,,,,,,,,2,,,55,0
147039,note_on,79,0,3,,,,,,,,,2,,,54,0
147039,note_on,0,0,3,,,,,,,,,2,,,55,62
147120,note_on,0,0,3,,,,,,,,,2,,,57,62
147120,note_on,81,0,3,,,,,,,,,2,,,55,0
147200,note_on,80,0,3,,,,,,,,,2,,,57,0
147200,note_on,0,0,3,,,,,,,,,2,,,58,62
147279,note_on,79,0,3,,,,,,,,,2,,,58,0
147279,note_on,0,0,3,,,,,,,,,2,,,59,62
147360,control_change,0,0,4,,,,,,,,,3,64,127,,
147360,note_on,0,0,2,,,,,,,,,1,,,75,62
147360,control_change,0,0,2,,,,,,,,,1,64,127,,
147360,note_on,0,0,2,,,,,,,,,1,,,67,0
147360,note_on,480,0,2,,,,,,,,,1,,,74,0
147360,note_on,0,0,4,,,,,,,,,3,,,48,62
147360,note_on,0,0,2,,,,,,,,,1,,,71,0
147360,control_change,0,0,1,,,,,,,,,0,64,127,,
147360,note_on,0,0,1,,,,,,,,,0,,,87,62
147360,note_on,0,0,3,,,,,,,,,2,,,60,62
147360,note_on,81,0,3,,,,,,,,,2,,,59,0
147360,note_on,480,0,4,,,,,,,,,3,,,43,0
147360,note_on,480,0,1,,,,,,,,,0,,,86,0
147440,note_on,80,0,3,,,,,,,,,2,,,60,0
147440,note_on,0,0,3,,,,,,,,,2,,,55,62
147519,note_on,79,0,3,,,,,,,,,2,,,55,0
147519,note_on,0,0,3,,,,,,,,,2,,,60,62
147600,note_on,240,0,2,,,,,,,,,1,,,75,0
147600,note_on,81,0,3,,,,,,,,,2,,,60,0
147600,note_on,0,0,3,,,,,,,,,2,,,63,62
147600,note_on,0,0,2,,,,,,,,,1,,,79,62
147600,note_on,0,0,4,,,,,,,,,3,,,39,62
147600,note_on,0,0,1,,,,,,,,,0,,,91,62
147600,note_on,240,0,1,,,,,,,,,0,,,87,0
147600,note_on,240,0,4,,,,,,,,,3,,,48,0
147680,note_on,80,0,3,,,,,,,,,2,,,63,0
147680,note_on,0,0,3,,,,,,,,,2,,,55,62
147759,note_on,0,0,3,,,,,,,,,2,,,56,62
147759,note_on,79,0,3,,,,,,,,,2,,,55,0
147759,note_on,0,0,3,,,,,,,,,2,,,62,62
147780,note_on,0,0,4,,,,,,,,,3,,,41,62
147780,note_on,180,0,2,,,,,,,,,1,,,79,0
147780,note_on,0,0,1,,,,,,,,,0,,,89,62
147780,note_on,180,0,1,,,,,,,,,0,,,91,0
147780,note_on,180,0,4,,,,,,,,,3,,,39,0
147780,note_on,0,0,2,,,,,,,,,1,,,77,62
147840,note_on,0,0,1,,,,,,,,,0,,,87,62
147840,note_on,60,0,1,,,,,,,,,0,,,89,0
147840,note_on,60,0,2,,,,,,,,,1,,,77,0
147840,note_on,81,0,3,,,,,,,,,2,,,62,0
147840,note_on,60,0,4,,,,,,,,,3,,,41,0
147840,control_change,0,0,4,,,,,,,,,3,64,0,,
147840,note_on,0,0,4,,,,,,,,,3,,,43,62
147840,note_on,0,0,2,,,,,,,,,1,,,75,62
147840,note_on,0,0,3,,,,,,,,,2,,,56,0
147840,note_on,0,0,3,,,,,,,,,2,,,60,62
147920,note_on,0,0,3,,,,,,,,,2,,,55,62
147920,note_on,80,0,3,,,,,,,,,2,,,60,0
147999,note_on,79,0,3,,,,,,,,,2,,,55,0
147999,note_on,0,0,3,,,,,,,,,2,,,60,62
148080,note_on,81,0,3,,,,,,,,,2,,,60,0
148080,control_change,0,0,1,,,,,,,,,0,64,0,,
148080,note_on,240,0,4,,,,,,,,,3,,,43,0
148080,note_on,240,0,2,,,,,,,,,1,,,75,0
148080,control_change,0,0,2,,,,,,,,,1,64,0,,
148080,note_on,0,0,2,,,,,,,,,1,,,74,62
148080,note_on,0,0,3,,,,,,,,,2,,,59,62
148080,note_on,0,0,1,,,,,,,,,0,,,86,62
148080,note_on,0,0,4,,,,,,,,,3,,,43,62
148080,note_on,240,0,1,,,,,,,,,0,,,87,0
148160,note_on,80,0,3,,,,,,,,,2,,,59,0
148160,note_on,0,0,3,,,,,,,,,2,,,55,62
148239,note_on,0,0,3,,,,,,,,,2,,,59,62
148239,note_on,79,0,3,,,,,,,,,2,,,55,0
148320,note_on,0,0,3,,,,,,,,,2,,,60,62
148320,note_on,240,0,1,,,,,,,,,0,,,86,0
148320,note_on,81,0,3,,,,,,,,,2,,,59,0
148320,note_on,240,0,2,,,,,,,,,1,,,74,0
148320,note_on,0,0,1,,,,,,,,,0,,,87,62
148320,note_on,0,0,4,,,,,,,,,3,,,48,62
148320,control_change,0,0,4,,,,,,,,,3,64,127,,
148320,note_on,0,0,2,,,,,,,,,1,,,75,62
148320,control_change,0,0,2,,,,,,,,,1,64,127,,
148320,note_on,240,0,4,,,,,,,,,3,,,43,0
148320,control_change,0,0,1,,,,,,,,,0,64,127,,
148400,note_on,0,0,3,,,,,,,,,2,,,55,62
148400,note_on,80,0,3,,,,,,,,,2,,,60,0
148440,note_on,0,0,4,,,,,,,,,3,,,36,62
148440,note_on,120,0,4,,,,,,,,,3,,,48,0
148479,note_on,0,0,3,,,,,,,,,2,,,60,62
148479,note_on,79,0,3,,,,,,,,,2,,,55,0
148560,note_on,0,0,4,,,,,,,,,3,,,38,62
148560,note_on,120,0,4,,,,,,,,,3,,,36,0
148560,note_on,0,0,3,,,,,,,,,2,,,58,62
148560,note_on,240,0,2,,,,,,,,,1,,,75,0
148560,note_on,0,0,1,,,,,,,,,0,,,77,62
148560,note_on,240,0,1,,,,,,,,,0,,,87,0
148560,note_on,0,0,1,,,,,,,,,0,,,89,62
148560,note_on,81,0,3,,,,,,,,,2,,,60,0
148560,note_on,0,0,2,,,,,,,,,1,,,65,62
148640,note_on,80,0,3,,,,,,,,,2,,,58,0
148640,note_on,0,0,3,,,,,,,,,2,,,57,62
148719,note_on,0,0,3,,,,,,,,,2,,,55,62
148719,note_on,79,0,3,,,,,,,,,2,,,57,0
148740,note_on,180,0,1,,,,,,,,,0,,,89,0
148740,note_on,0,0,2,,,,,,,,,1,,,67,62
148740,note_on,0,0,1,,,,,,,,,0,,,77,0
148740,note_on,0,0,1,,,,,,,,,0,,,87,62
148740,note_on,180,0,4,,,,,,,,,3,,,38,0
148740,note_on,0,0,4,,,,,,,,,3,,,39,62
148740,note_on,0,0,1,,,,,,,,,0,,,75,62
148740,note_on,180,0,2,,,,,,,,,1,,,65,0
148800,note_on,60,0,2,,,,,,,,,1,,,67,0
148800,note_on,0,0,2,,,,,,,,,1,,,70,62
148800,note_on,0,0,4,,,,,,,,,3,,,41,62
148800,note_on,60,0,1,,,,,,,,,0,,,87,0
148800,note_on,60,0,4,,,,,,,,,3,,,39,0
148800,note_on,0,0,1,,,,,,,,,0,,,74,62
148800,note_on,0,0,1,,,,,,,,,0,,,75,0
148800,control_change,0,0,4,,,,,,,,,3,64,0,,
148800,note_on,0,0,1,,,,,,,,,0,,,86,62
148800,note_on,81,0,3,,,,,,,,,2,,,55,0
148800,note_on,0,0,3,,,,,,,,,2,,,53,62
148880,note_on,0,0,3,,,,,,,,,2,,,58,62
148880,note_on,80,0,3,,,,,,,,,2,,,53,0
148959,note_on,79,0,3,,,,,,,,,2,,,58,0
148959,note_on,0,0,3,,,,,,,,,2,,,62,62
149040,note_on,240,0,4,,,,,,,,,3,,,41,0
149040,note_on,0,0,4,,,,,,,,,3,,,41,62
149040,note_on,0,0,3,,,,,,,,,2,,,65,62
149040,note_on,81,0,3,,,,,,,,,2,,,62,0
149040,note_on,240,0,2,,,,,,,,,1,,,70,0
149040,note_on,240,0,1,,,,,,,,,0,,,86,0
149040,note_on,0,0,1,,,,,,,,,0,,,74,0
149040,note_on,0,0,1,,,,,,,,,0,,,72,62
149040,control_change,0,0,2,,,,,,,,,1,64,0,,
149040,control_change,0,0,1,,,,,,,,,0,64,0,,
149040,note_on,0,0,1,,,,,,,,,0,,,84,62
149040,note_on,0,0,2,,,,,,,,,1,,,69,62
149120,note_on,0,0,3,,,,,,,,,2,,,64,62
149120,note_on,80,0,3,,,,,,,,,2,,,65,0
149199,note_on,79,0,3,,,,,,,,,2,,,64,0
149199,note_on,0,0,3,,,,,,,,,2,,,63,62
149280,note_on,240,0,4,,,,,,,,,3,,,41,0
149280,note_on,240,0,1,,,,,,,,,0,,,84,0
149280,note_on,0,0,1,,,,,,,,,0,,,72,0
149280,note_on,0,0,1,,,,,,,,,0,,,74,62
149280,note_on,0,0,2,,,,,,,,,1,,,70,62
149280,note_on,240,0,2,,,,,,,,,1,,,69,0
149280,note_on,0,0,3,,,,,,,,,2,,,62,62
149280,note_on,0,0,1,,,,,,,,,0,,,86,62
149280,control_change,0,0,4,,,,,,,,,3,64,127,,
149280,note_on,0,0,4,,,,,,,,,3,,,46,62
149280,note_on,81,0,3,,,,,,,,,2,,,63,0
149360,note_on,80,0,3,,,,,,,,,2,,,62,0
149360,note_on,0,0,3,,,,,,,,,2,,,57,62
149439,note_on,0,0,3,,,,,,,,,2,,,58,62
149439,note_on,79,0,3,,,,,,,,,2,,,57,0
149520,note_on,240,0,2,,,,,,,,,1,,,70,0
149520,note_on,0,0,2,,,,,,,,,1,,,62,62
149520,note_on,0,0,2,,,,,,,,,1,,,65,62
149520,note_on,81,0,3,,,,,,,,,2,,,58,0
149520,note_on,0,0,1,,,,,,,,,0,,,82,62
149520,note_on,0,0,1,,,,,,,,,0,,,70,62
149520,note_on,0,0,1,,,,,,,,,0,,,74,0
149520,note_on,240,0,1,,,,,,,,,0,,,86,0
149520,note_on,240,0,4,,,,,,,,,3,,,46,0
149520,note_on,0,0,4,,,,,,,,,3,,,34,62
149520,note_on,0,0,3,,,,,,,,,2,,,60,62
149600,note_on,0,0,3,,,,,,,,,2,,,58,62
149600,note_on,80,0,3,,,,,,,,,2,,,60,0
149679,note_on,79,0,3,,,,,,,,,2,,,58,0
149679,note_on,0,0,3,,,,,,,,,2,,,55,62
149760,note_on,81,0,3,,,,,,,,,2,,,55,0
149760,note_on,0,0,3,,,,,,,,,2,,,53,62
149760,note_on,240,0,4,,,,,,,,,3,,,34,0
149760,note_on,0,0,4,,,,,,,,,3,,,41,62
149760,note_on,0,0,2,,,,,,,,,1,,,69,62
149760,note_on,0,0,2,,,,,,,,,1,,,65,62
149760,note_on,0,0,2,,,,,,,,,1,,,62,0
149760,note_on,240,0,2,,,,,,,,,1,,,65,0
149760,note_on,240,0,1,,,,,,,,,0,,,82,0
149760,note_on,0,0,1,,,,,,,,,0,,,84,62
149760,note_on,0,0,1,,,,,,,,,0,,,72,62
149760,note_on,0,0,1,,,,,,,,,0,,,70,0
149840,note_on,0,0,3,,,,,,,,,2,,,55,62
149840,note_on,80,0,3,,,,,,,,,2,,,53,0
149880,note_on,0,0,4,,,,,,,,,3,,,39,62
149880,note_on,120,0,4,,,,,,,,,3,,,41,0
149919,note_on,0,0,3,,,,,,,,,2,,,57,62
149919,note_on,79,0,3,,,,,,,,,2,,,55,0
150000,note_on,0,0,2,,,,,,,,,1,,,65,0
150000,note_on,81,0,3,,,,,,,,,2,,,57,0
150000,note_on,120,0,4,,,,,,,,,3,,,39,0
150000,note_on,0,0,3,,,,,,,,,2,,,58,62
150000,note_on,240,0,2,,,,,,,,,1,,,69,0
150000,note_on,0,0,4,,,,,,,,,3,,,38,62
150000,note_on,240,0,1,,,,,,,,,0,,,84,0
150000,note_on,0,0,1,,,,,,,,,0,,,72,0
150000,note_on,0,0,1,,,,,,,,,0,,,86,62
150000,note_on,0,0,2,,,,,,,,,1,,,74,62
150080,note_on,0,0,3,,,,,,,,,2,,,53,62
150080,note_on,80,0,3,,,,,,,,,2,,,58,0
150120,control_change,0,0,4,,,,,,,,,3,64,0,,
150120,note_on,0,0,4,,,,,,,,,3,,,36,62
150120,note_on,120,0,4,,,,,,,,,3,,,38,0
150159,note_on,79,0,3,,,,,,,,,2,,,53,0
150159,note_on,0,0,3,,,,,,,,,2,,,60,62
150180,note_on,0,0,1,,,,,,,,,0,,,87,62
150180,note_on,0,0,2,,,,,,,,,1,,,75,62
150180,note_on,180,0,1,,,,,,,,,0,,,86,0
150180,note_on,180,0,2,,,,,,,,,1,,,74,0
150240,note_on,0,0,2,,,,,,,,,1,,,77,62
150240,note_on,0,0,3,,,,,,,,,2,,,62,62
150240,note_on,81,0,3,,,,,,,,,2,,,60,0
150240,note_on,60,0,2,,,,,,,,,1,,,75,0
150240,note_on,0,0,4,,,,,,,,,3,,,34,62
150240,note_on,0,0,1,,,,,,,,,0,,,89,62
150240,note_on,60,0,1,,,,,,,,,0,,,87,0
150240,note_on,120,0,4,,,,,,,,,3,,,36,0
150320,note_on,0,0,3,,,,,,,,,2,,,53,62
150320,note_on,80,0,3,,,,,,,,,2,,,62,0
150399,note_on,0,0,3,,,,,,,,,2,,,62,62
150399,note_on,79,0,3,,,,,,,,,2,,,53,0
150480,note_on,0,0,3,,,,,,,,,2,,,60,62
150480,note_on,0,0,2,,,,,,,,,1,,,75,62
150480,note_on,81,0,3,,,,,,,,,2,,,62,0
150480,note_on,240,0,2,,,,,,,,,1,,,77,0
150480,note_on,0,0,1,,,,,,,,,0,,,87,62
150480,note_on,240,0,1,,,,,,,,,0,,,89,0
150560,note_on,0,0,3,,,,,,,,,2,,,53,62
150560,note_on,80,0,3,,,,,,,,,2,,,60,0
150600,note_on,360,0,4,,,,,,,,,3,,,34,0
150600,note_on,0,0,4,,,,,,,,,3,,,38,62
150639,note_on,0,0,3,,,,,,,,,2,,,58,62
150639,note_on,79,0,3,,,,,,,,,2,,,53,0
150660,note_on,0,0,1,,,,,,,,,0,,,86,62
150660,note_on,0,0,2,,,,,,,,,1,,,74,62
150660,note_on,180,0,2,,,,,,,,,1,,,75,0
150660,note_on,180,0,1,,,,,,,,,0,,,87,0
150720,note_on,60,0,1,,,,,,,,,0,,,86,0
150720,note_on,0,0,1,,,,,,,,,0,,,84,62
150720,note_on,60,0,2,,,,,,,,,1,,,74,0
150720,note_on,0,0,2,,,,,,,,,1,,,72,62
150720,note_on,81,0,3,,,,,,,,,2,,,58,0
150720,note_on,0,0,3,,,,,,,,,2,,,57,62
150720,note_on,0,0,4,,,,,,,,,3,,,41,62
150720,note_on,120,0,4,,,,,,,,,3,,,38,0
150800,note_on,80,0,3,,,,,,,,,2,,,57,0
150800,note_on,0,0,3,,,,,,,,,2,,,53,62
150879,note_on,0,0,3,,,,,,,,,2,,,55,62
150879,note_on,79,0,3,,,,,,,,,2,,,53,0
150960,note_on,240,0,4,,,,,,,,,3,,,41,0
150960,note_on,240,0,2,,,,,,,,,1,,,72,0
150960,note_on,0,0,4,,,,,,,,,3,,,39,62
150960,note_on,240,0,1,,,,,,,,,0,,,84,0
150960,note_on,0,0,2,,,,,,,,,1,,,74,62
150960,note_on,0,0,2,,,,,,,,,1,,,71,62
150960,note_on,0,0,2,,,,,,,,,1,,,67,62
150960,note_on,0,0,3,,,,,,,,,2,,,56,62
150960,note_on,81,0,3,,,,,,,,,2,,,55,0
150960,note_on,0,0,1,,,,,,,,,0,,,86,62
151040,note_on,80,0,3,,,,,,,,,2,,,56,0
151040,note_on,0,0,3,,,,,,,,,2,,,55,62
151119,note_on,79,0,3,,,,,,,,,2,,,55,0
151119,note_on,0,0,3,,,,,,,,,2,,,65,62
151140,note_on,0,0,4,,,,,,,,,3,,,38,62
151140,note_on,180,0,4,,,,,,,,,3,,,39,0
151200,note_on,0,0,4,,,,,,,,,3,,,36,62
151200,note_on,60,0,4,,,,,,,,,3,,,38,0
151200,note_on,0,0,3,,,,,,,,,2,,,63,62
151200,note_on,0,0,2,,,,,,,,,1,,,75,62
151200,note_on,0,0,2,,,,,,,,,1,,,72,62
151200,note_on,81,0,3,,,,,,,,,2,,,65,0
151200,note_on,0,0,1,,,,,,,,,0,,,87,62
151200,note_on,0,0,2,,,,,,,,,1,,,67,62
151200,note_on,240,0,1,,,,,,,,,0,,,86,0
151200,note_on,240,0,2,,,,,,,,,1,,,74,0
151200,note_on,0,0,2,,,,,,,,,1,,,67,0
151200,note_on,0,0,2,,,,,,,,,1,,,71,0
151280,note_on,80,0,3,,,,,,,,,2,,,63,0
151280,note_on,0,0,3,,,,,,,,,2,,,60,62
151359,note_on,0,0,3,,,,,,,,,2,,,55,62
151359,note_on,79,0,3,,,,,,,,,2,,,60,0
151440,note_on,0,0,3,,,,,,,,,2,,,51,62
151440,note_on,81,0,3,,,,,,,,,2,,,55,0
151520,note_on,80,0,3,,,,,,,,,2,,,51,0
151520,note_on,0,0,3,,,,,,,,,2,,,53,62
151599,note_on,0,0,3,,,,,,,,,2,,,54,62
151599,note_on,79,0,3,,,,,,,,,2,,,53,0
151680,note_on,0,0,2,,,,,,,,,1,,,71,88
151680,note_on,0,0,3,,,,,,,,,2,,,55,62
151680,note_on,81,0,3,,,,,,,,,2,,,54,0
151680,note_on,480,0,4,,,,,,,,,3,,,36,0
151680,note_on,0,0,2,,,,,,,,,1,,,67,88
151680,note_on,0,0,4,,,,,,,,,3,,,43,88
151680,note_on,480,0,2,,,,,,,,,1,,,75,0
151680,note_on,0,0,2,,,,,,,,,1,,,72,0
151680,note_on,0,0,2,,,,,,,,,1,,,67,0
151680,note_on,0,0,2,,,,,,,,,1,,,74,88
151680,note_on,0,0,1,,,,,,,,,0,,,86,88
151680,note_on,480,0,1,,,,,,,,,0,,,87,0
151760,note_on,80,0,3,,,,,,,,,2,,,55,0
151760,note_on,0,0,3,,,,,,,,,2,,,54,62
151839,note_on,79,0,3,,,,,,,,,2,,,54,0
151839,note_on,0,0,3,,,,,,,,,2,,,55,62
151920,note_on,81,0,3,,,,,,,,,2,,,55,0
151920,note_on,0,0,3,,,,,,,,,2,,,57,62
152000,note_on,0,0,3,,,,,,,,,2,,,58,62
152000,note_on,80,0,3,,,,,,,,,2,,,57,0
152079,note_on,79,0,3,,,,,,,,,2,,,58,0
152079,note_on,0,0,3,,,,,,,,,2,,,59,62
152160,note_on,81,0,3,,,,,,,,,2,,,59,0
152160,note_on,0,0,2,,,,,,,,,1,,,71,0
152160,note_on,480,0,2,,,,,,,,,1,,,74,0
152160,note_on,0,0,2,,,,,,,,,1,,,67,0
152160,note_on,0,0,3,,,,,,,,,2,,,60,62
152160,note_on,480,0,4,,,,,,,,,3,,,43,0
152160,note_on,0,0,2,,,,,,,,,1,,,67,62
152160,note_on,0,0,2,,,,,,,,,1,,,75,62
152160,note_on,480,0,1,,,,,,,,,0,,,86,0
152160,note_on,0,0,1,,,,,,,,,0,,,87,62
152160,note_on,0,0,2,,,,,,,,,1,,,72,62
152160,note_on,0,0,4,,,,,,,,,3,,,36,62
152240,note_on,0,0,3,,,,,,,,,2,,,62,62
152240,note_on,80,0,3,,,,,,,,,2,,,60,0
152319,note_on,0,0,3,,,,,,,,,2,,,60,62
152319,note_on,79,0,3,,,,,,,,,2,,,62,0
152400,note_on,81,0,3,,,,,,,,,2,,,60,0
152400,note_on,0,0,3,,,,,,,,,2,,,58,62
152480,note_on,80,0,3,,,,,,,,,2,,,58,0
152480,note_on,0,0,3,,,,,,,,,2,,,56,62
152559,note_on,79,0,3,,,,,,,,,2,,,56,0
152559,note_on,0,0,3,,,,,,,,,2,,,55,62
152640,note_on,0,0,2,,,,,,,,,1,,,67,0
152640,note_on,0,0,1,,,,,,,,,0,,,80,88
152640,note_on,81,0,3,,,,,,,,,2,,,55,0
152640,note_on,0,0,3,,,,,,,,,2,,,56,62
152640,note_on,0,0,1,,,,,,,,,0,,,84,88
152640,note_on,0,0,2,,,,,,,,,1,,,68,88
152640,note_on,0,0,1,,,,,,,,,0,,,87,88
152640,note_on,0,0,2,,,,,,,,,1,,,72,0
152640,note_on,480,0,2,,,,,,,,,1,,,75,0
152640,note_on,480,0,1,,,,,,,,,0,,,87,0
152640,note_on,480,0,4,,,,,,,,,3,,,36,0
152640,note_on,0,0,4,,,,,,,,,3,,,32,62
152640,note_on,0,0,2,,,,,,,,,1,,,75,88
152640,note_on,0,0,2,,,,,,,,,1,,,72,88
152720,note_on,0,0,3,,,,,,,,,2,,,57,62
152720,note_on,80,0,3,,,,,,,,,2,,,56,0
152799,note_on,79,0,3,,,,,,,,,2,,,57,0
152799,note_on,0,0,3,,,,,,,,,2,,,56,62
152880,note_on,81,0,3,,,,,,,,,2,,,56,0
152880,note_on,0,0,3,,,,,,,,,2,,,54,62
152960,note_on,80,0,3,,,,,,,,,2,,,54,0
152960,note_on,0,0,3,,,,,,,,,2,,,52,62
153039,note_on,79,0,3,,,,,,,,,2,,,52,0
153039,note_on,0,0,3,,,,,,,,,2,,,51,62
153120,note_on,480,0,1,,,,,,,,,0,,,87,0
153120,note_on,0,0,1,,,,,,,,,0,,,84,0
153120,note_on,0,0,1,,,,,,,,,0,,,80,0
153120,note_on,0,0,1,,,,,,,,,0,,,80,62
153120,note_on,0,0,1,,,,,,,,,0,,,85,62
153120,note_on,0,0,1,,,,,,,,,0,,,88,62
153120,note_on,0,0,2,,,,,,,,,1,,,76,62
153120,note_on,0,0,4,,,,,,,,,3,,,37,62
153120,note_on,480,0,4,,,,,,,,,3,,,32,0
153120,note_on,0,0,3,,,,,,,,,2,,,49,62
153120,note_on,480,0,2,,,,,,,,,1,,,75,0
153120,note_on,0,0,2,,,,,,,,,1,,,72,0
153120,note_on,0,0,2,,,,,,,,,1,,,68,0
153120,note_on,0,0,2,,,,,,,,,1,,,68,62
153120,note_on,0,0,2,,,,,,,,,1,,,73,62
153120,note_on,81,0,3,,,,,,,,,2,,,51,0
153200,note_on,0,0,3,,,,,,,,,2,,,48,62
153200,note_on,80,0,3,,,,,,,,,2,,,49,0
153279,note_on,0,0,3,,,,,,,,,2,,,49,62
153279,note_on,79,0,3,,,,,,,,,2,,,48,0
153360,note_on,0,0,3,,,,,,,,,2,,,51,62
153360,note_on,81,0,3,,,,,,,,,2,,,49,0
153440,note_on,80,0,3,,,,,,,,,2,,,51,0
153440,note_on,0,0,3,,,,,,,,,2,,,52,62
153519,note_on,79,0,3,,,,,,,,,2,,,52,0
153519,note_on,0,0,3,,,,,,,,,2,,,54,62
153600,note_on,81,0,3,,,,,,,,,2,,,54,0
153600,note_on,0,0,3,,,,,,,,,2,,,56,62
153600,note_on,0,0,1,,,,,,,,,0,,,85,0
153600,note_on,0,0,4,,,,,,,,,3,,,32,62
153600,note_on,0,0,1,,,,,,,,,0,,,80,0
153600,note_on,0,0,2,,,,,,,,,1,,,75,62
153600,note_on,0,0,2,,,,,,,,,1,,,72,62
153600,note_on,0,0,2,,,,,,,,,1,,,68,62
153600,note_on,0,0,2,,,,,,,,,1,,,68,0
153600,note_on,0,0,2,,,,,,,,,1,,,73,0
153600,note_on,480,0,2,,,,,,,,,1,,,76,0
153600,note_on,0,0,1,,,,,,,,,0,,,84,62
153600,note_on,0,0,1,,,,,,,,,0,,,80,62
153600,note_on,480,0,1,,,,,,,,,0,,,88,0
153600,note_on,480,0,4,,,,,,,,,3,,,37,0
153600,note_on,0,0,1,,,,,,,,,0,,,87,62
153680,note_on,0,0,3,,,,,,,,,2,,,57,62
153680,note_on,80,0,3,,,,,,,,,2,,,56,0
153759,note_on,0,0,3,,,,,,,,,2,,,56,62
153759,note_on,79,0,3,,,,,,,,,2,,,57,0
153840,note_on,0,0,3,,,,,,,,,2,,,54,62
153840,note_on,81,0,3,,,,,,,,,2,,,56,0
153920,note_on,0,0,3,,,,,,,,,2,,,52,62
153920,note_on,80,0,3,,,,,,,,,2,,,54,0
153999,note_on,0,0,3,,,,,,,,,2,,,51,62
153999,note_on,79,0,3,,,,,,,,,2,,,52,0
154080,note_on,480,0,2,,,,,,,,,1,,,75,0
154080,note_on,0,0,2,,,,,,,,,1,,,72,0
154080,note_on,0,0,2,,,,,,,,,1,,,73,62
154080,note_on,0,0,2,,,,,,,,,1,,,76,62
154080,note_on,0,0,1,,,,,,,,,0,,,88,62
154080,note_on,0,0,4,,,,,,,,,3,,,37,62
154080,note_on,480,0,4,,,,,,,,,3,,,32,0
154080,note_on,480,0,1,,,,,,,,,0,,,87,0
154080,note_on,0,0,1,,,,,,,,,0,,,84,0
154080,note_on,0,0,1,,,,,,,,,0,,,85,62
154080,note_on,81,0,3,,,,,,,,,2,,,51,0
154080,note_on,0,0,3,,,,,,,,,2,,,49,62
154160,note_on,0,0,3,,,,,,,,,2,,,51,62
154160,note_on,80,0,3,,,,,,,,,2,,,49,0
154239,note_on,79,0,3,,,,,,,,,2,,,51,0
154239,note_on,0,0,3,,,,,,,,,2,,,52,62
154320,note_on,0,0,1,,,,,,,,,0,,,85,0
154320,note_on,0,0,3,,,,,,,,,2,,,54,62
154320,note_on,0,0,1,,,,,,,,,0,,,83,62
154320,note_on,0,0,4,,,,,,,,,3,,,39,62
154320,note_on,240,0,4,,,,,,,,,3,,,37,0
154320,note_on,240,0,1,,,,,,,,,0,,,88,0
154320,note_on,0,0,2,,,,,,,,,1,,,73,0
154320,note_on,240,0,2,,,,,,,,,1,,,76,0
154320,note_on,0,0,2,,,,,,,,,1,,,66,62
154320,note_on,0,0,2,,,,,,,,,1,,,71,62
154320,note_on,0,0,2,,,,,,,,,1,,,75,62
154320,note_on,81,0,3,,,,,,,,,2,,,52,0
154320,note_on,0,0,1,,,,,,,,,0,,,80,0
154320,note_on,0,0,2,,,,,,,,,1,,,68,0
154320,note_on,0,0,1,,,,,,,,,0,,,87,62
154400,note_on,0,0,3,,,,,,,,,2,,,55,62
154400,note_on,80,0,3,,,,,,,,,2,,,54,0
154479,note_on,0,0,3,,,,,,,,,2,,,56,62
154479,note_on,79,0,3,,,,,,,,,2,,,55,0
154500,note_on,0,0,4,,,,,,,,,3,,,40,62
154500,note_on,180,0,4,,,,,,,,,3,,,39,0
154560,note_on,0,0,4,,,,,,,,,3,,,42,62
154560,note_on,0,0,1,,,,,,,,,0,,,85,62
154560,note_on,0,0,1,,,,,,,,,0,,,82,62
154560,note_on,0,0,1,,,,,,,,,0,,,83,0
154560,note_on,240,0,1,,,,,,,,,0,,,87,0
154560,note_on,0,0,2,,,,,,,,,1,,,73,62
154560,note_on,0,0,2,,,,,,,,,1,,,66,0
154560,note_on,81,0,3,,,,,,,,,2,,,56,0
154560,note_on,0,0,2,,,,,,,,,1,,,71,0
154560,note_on,240,0,2,,,,,,,,,1,,,75,0
154560,note_on,0,0,3,,,,,,,,,2,,,58,62
154560,note_on,60,0,4,,,,,,,,,3,,,40,0
154560,note_on,0,0,2,,,,,,,,,1,,,70,62
154640,note_on,80,0,3,,,,,,,,,2,,,58,0
154640,note_on,0,0,3,,,,,,,,,2,,,57,62
154680,note_on,0,0,4,,,,,,,,,3,,,40,62
154680,note_on,120,0,4,,,,,,,,,3,,,42,0
154719,note_on,0,0,3,,,,,,,,,2,,,58,62
154719,note_on,79,0,3,,,,,,,,,2,,,57,0
154800,note_on,0,0,3,,,,,,,,,2,,,59,62
154800,note_on,81,0,3,,,,,,,,,2,,,58,0
154800,note_on,0,0,4,,,,,,,,,3,,,39,62
154800,note_on,120,0,4,,,,,,,,,3,,,40,0
154800,note_on,0,0,2,,,,,,,,,1,,,75,62
154800,note_on,0,0,2,,,,,,,,,1,,,70,0
154800,note_on,0,0,1,,,,,,,,,0,,,87,62
154800,note_on,0,0,1,,,,,,,,,0,,,82,0
154800,note_on,240,0,1,,,,,,,,,0,,,85,0
154800,note_on,240,0,2,,,,,,,,,1,,,73,0
154880,note_on,80,0,3,,,,,,,,,2,,,59,0
154880,note_on,0,0,3,,,,,,,,,2,,,54,62
154920,note_on,120,0,4,,,,,,,,,3,,,39,0
154920,note_on,0,0,4,,,,,,,,,3,,,37,62
154959,note_on,79,0,3,,,,,,,,,2,,,54,0
154959,note_on,0,0,3,,,,,,,,,2,,,61,62
154980,note_on,180,0,1,,,,,,,,,0,,,87,0
154980,note_on,0,0,1,,,,,,,,,0,,,88,62
154980,note_on,180,0,2,,,,,,,,,1,,,75,0
154980,note_on,0,0,2,,,,,,,,,1,,,76,62
155040,note_on,0,0,4,,,,,,,,,3,,,35,62
155040,note_on,0,0,2,,,,,,,,,1,,,78,62
155040,note_on,0,0,3,,,,,,,,,2,,,63,62
155040,note_on,0,0,1,,,,,,,,,0,,,90,62
155040,note_on,60,0,1,,,,,,,,,0,,,88,0
155040,note_on,81,0,3,,,,,,,,,2,,,61,0
155040,note_on,120,0,4,,,,,,,,,3,,,37,0
155040,note_on,60,0,2,,,,,,,,,1,,,76,0
155120,note_on,0,0,3,,,,,,,,,2,,,54,62
155120,note_on,80,0,3,,,,,,,,,2,,,63,0
155199,note_on,0,0,3,,,,,,,,,2,,,63,62
155199,note_on,79,0,3,,,,,,,,,2,,,54,0
155280,note_on,81,0,3,,,,,,,,,2,,,63,0
155280,note_on,0,0,3,,,,,,,,,2,,,61,62
155280,note_on,240,0,1,,,,,,,,,0,,,90,0
155280,note_on,0,0,1,,,,,,,,,0,,,88,62
155280,note_on,0,0,2,,,,,,,,,1,,,76,62
155280,note_on,240,0,2,,,,,,,,,1,,,78,0
155360,note_on,80,0,3,,,,,,,,,2,,,61,0
155360,note_on,0,0,3,,,,,,,,,2,,,54,62
155400,note_on,0,0,4,,,,,,,,,3,,,39,62
155400,note_on,360,0,4,,,,,,,,,3,,,35,0
155439,note_on,79,0,3,,,,,,,,,2,,,54,0
155439,note_on,0,0,3,,,,,,,,,2,,,59,62
155460,note_on,0,0,2,,,,,,,,,1,,,75,62
155460,note_on,180,0,2,,,,,,,,,1,,,76,0
155460,note_on,180,0,1,,,,,,,,,0,,,88,0
155460,note_on,0,0,1,,,,,,,,,0,,,87,62
155520,note_on,60,0,2,,,,,,,,,1,,,75,0
155520,note_on,0,0,2,,,,,,,,,1,,,73,62
155520,note_on,0,0,4,,,,,,,,,3,,,42,62
155520,note_on,120,0,4,,,,,,,,,3,,,39,0
155520,note_on,81,0,3,,,,,,,,,2,,,59,0
155520,note_on,0,0,3,,,,,,,,,2,,,58,62
155520,note_on,60,0,1,,,,,,,,,0,,,87,0
155520,note_on,0,0,1,,,,,,,,,0,,,85,62
155600,note_on,0,0,3,,,,,,,,,2,,,54,62
155600,note_on,80,0,3,,,,,,,,,2,,,58,0
155679,note_on,79,0,3,,,,,,,,,2,,,54,0
155679,note_on,0,0,3,,,,,,,,,2,,,56,62
155760,note_on,0,0,1,,,,,,,,,0,,,84,62
155760,note_on,240,0,1,,,,,,,,,0,,,85,0
155760,note_on,0,0,1,,,,,,,,,0,,,87,62
155760,note_on,0,0,4,,,,,,,,,3,,,40,62
155760,note_on,81,0,3,,,,,,,,,2,,,56,0
155760,note_on,240,0,2,,,,,,,,,1,,,73,0
155760,note_on,0,0,2,,,,,,,,,1,,,68,62
155760,note_on,0,0,2,,,,,,,,,1,,,72,62
155760,note_on,240,0,4,,,,,,,,,3,,,42,0
155760,note_on,0,0,2,,,,,,,,,1,,,75,62
155760,note_on,0,0,3,,,,,,,,,2,,,57,62
155840,note_on,0,0,3,,,,,,,,,2,,,56,62
155840,note_on,80,0,3,,,,,,,,,2,,,57,0
155880,note_on,0,0,4,,,,,,,,,3,,,39,62
155880,note_on,120,0,4,,,,,,,,,3,,,40,0
155919,note_on,79,0,3,,,,,,,,,2,,,56,0
155919,note_on,0,0,3,,,,,,,,,2,,,66,62
156000,note_on,81,0,3,,,,,,,,,2,,,66,0
156000,note_on,0,0,3,,,,,,,,,2,,,64,62
156000,note_on,120,0,4,,,,,,,,,3,,,39,0
156000,note_on,0,0,4,,,,,,,,,3,,,37,62
156000,note_on,0,0,1,,,,,,,,,0,,,88,62
156000,note_on,0,0,1,,,,,,,,,0,,,85,62
156000,note_on,0,0,1,,,,,,,,,0,,,84,0
156000,note_on,240,0,1,,,,,,,,,0,,,87,0
156000,note_on,240,0,2,,,,,,,,,1,,,75,0
156000,note_on,0,0,2,,,,,,,,,1,,,72,0
156000,note_on,0,0,2,,,,,,,,,1,,,68,0
156000,note_on,0,0,2,,,,,,,,,1,,,68,62
156000,note_on,0,0,2,,,,,,,,,1,,,73,62
156000,note_on,0,0,2,,,,,,,,,1,,,76,62
156080,note_on,80,0,3,,,,,,,,,2,,,64,0
156080,note_on,0,0,3,,,,,,,,,2,,,61,62
156159,note_on,79,0,3,,,,,,,,,2,,,61,0
156159,note_on,0,0,3,,,,,,,,,2,,,56,62
156240,note_on,0,0,3,,,,,,,,,2,,,52,62
156240,note_on,81,0,3,,,,,,,,,2,,,56,0
156320,note_on,0,0,3,,,,,,,,,2,,,54,62
156320,note_on,80,0,3,,,,,,,,,2,,,52,0
156399,note_on,0,0,3,,,,,,,,,2,,,55,62
156399,note_on,79,0,3,,,,,,,,,2,,,54,0
156480,note_on,0,0,3,,,,,,,,,2,,,56,62
156480,note_on,0,0,4,,,,,,,,,3,,,44,62
156480,note_on,81,0,3,,,,,,,,,2,,,55,0
156480,note_on,480,0,4,,,,,,,,,3,,,37,0
156480,note_on,0,0,1,,,,,,,,,0,,,84,88
156480,note_on,0,0,1,,,,,,,,,0,,,85,0
156480,note_on,480,0,1,,,,,,,,,0,,,88,0
156480,note_on,0,0,2,,,,,,,,,1,,,75,88
156480,note_on,0,0,2,,,,,,,,,1,,,72,88
156480,note_on,0,0,2,,,,,,,,,1,,,68,88
156480,note_on,0,0,2,,,,,,,,,1,,,68,0
156480,note_on,0,0,2,,,,,,,,,1,,,73,0
156480,note_on,0,0,1,,,,,,,,,0,,,87,88
156480,note_on,480,0,2,,,,,,,,,1,,,76,0
156560,note_on,80,0,3,,,,,,,,,2,,,56,0
156560,note_on,0,0,3,,,,,,,,,2,,,55,62
156639,note_on,79,0,3,,,,,,,,,2,,,55,0
156639,note_on,0,0,3,,,,,,,,,2,,,56,62
156720,note_on,0,0,3,,,,,,,,,2,,,58,62
156720,note_on,81,0,3,,,,,,,,,2,,,56,0
156800,note_on,80,0,3,,,,,,,,,2,,,58,0
156800,note_on,0,0,3,,,,,,,,,2,,,59,62
156879,note_on,79,0,3,,,,,,,,,2,,,59,0
156879,note_on,0,0,3,,,,,,,,,2,,,60,62
156960,note_on,0,0,1,,,,,,,,,0,,,84,0
156960,control_change,0,0,1,,,,,,,,,0,64,127,,
156960,note_on,480,0,1,,,,,,,,,0,,,87,0
156960,note_on,0,0,1,,,,,,,,,0,,,88,62
156960,note_on,480,0,4,,,,,,,,,3,,,44,0
156960,note_on,0,0,2,,,,,,,,,1,,,72,0
156960,note_on,480,0,2,,,,,,,,,1,,,75,0
156960,note_on,81,0,3,,,,,,,,,2,,,60,0
156960,control_change,0,0,4,,,,,,,,,3,64,127,,
156960,note_on,0,0,4,,,,,,,,,3,,,49,62
156960,note_on,0,0,3,,,,,,,,,2,,,61,62
156960,note_on,0,0,2,,,,,,,,,1,,,76,62
156960,control_change,0,0,2,,,,,,,,,1,64,127,,
156960,note_on,0,0,2,,,,,,,,,1,,,68,0
157040,note_on,80,0,3,,,,,,,,,2,,,61,0
157040,note_on,0,0,3,,,,,,,,,2,,,56,62
157119,note_on,79,0,3,,,,,,,,,2,,,56,0
157119,note_on,0,0,3,,,,,,,,,2,,,61,62
157200,note_on,0,0,4,,,,,,,,,3,,,40,62
157200,note_on,240,0,4,,,,,,,,,3,,,49,0
157200,note_on,240,0,2,,,,,,,,,1,,,76,0
157200,note_on,0,0,2,,,,,,,,,1,,,80,62
157200,note_on,81,0,3,,,,,,,,,2,,,61,0
157200,note_on,0,0,3,,,,,,,,,2,,,64,62
157200,note_on,240,0,1,,,,,,,,,0,,,88,0
157200,note_on,0,0,1,,,,,,,,,0,,,92,62
157280,note_on,80,0,3,,,,,,,,,2,,,64,0
157280,note_on,0,0,3,,,,,,,,,2,,,56,62
157359,note_on,79,0,3,,,,,,,,,2,,,56,0
157359,note_on,0,0,3,,,,,,,,,2,,,57,62
157359,note_on,0,0,3,,,,,,,,,2,,,63,62
157380,note_on,180,0,1,,,,,,,,,0,,,92,0
157380,note_on,0,0,1,,,,,,,,,0,,,90,62
157380,note_on,180,0,4,,,,,,,,,3,,,40,0
157380,note_on,0,0,4,,,,,,,,,3,,,42,62
157380,note_on,180,0,2,,,,,,,,,1,,,80,0
157380,note_on,0,0,2,,,,,,,,,1,,,78,62
157440,note_on,0,0,2,,,,,,,,,1,,,76,62
157440,note_on,60,0,4,,,,,,,,,3,,,42,0
157440,control_change,0,0,4,,,,,,,,,3,64,0,,
157440,note_on,0,0,4,,,,,,,,,3,,,44,62
157440,note_on,81,0,3,,,,,,,,,2,,,63,0
157440,note_on,0,0,3,,,,,,,,,2,,,57,0
157440,note_on,0,0,3,,,,,,,,,2,,,61,62
157440,note_on,60,0,2,,,,,,,,,1,,,78,0
157440,note_on,60,0,1,,,,,,,,,0,,,90,0
157440,note_on,0,0,1,,,,,,,,,0,,,88,62
157520,note_on,0,0,3,,,,,,,,,2,,,56,62
157520,note_on,80,0,3,,,,,,,,,2,,,61,0
157599,note_on,79,0,3,,,,,,,,,2,,,56,0
157599,note_on,0,0,3,,,,,,,,,2,,,61,62
157680,note_on,0,0,1,,,,,,,,,0,,,87,62
157680,note_on,240,0,2,,,,,,,,,1,,,76,0
157680,note_on,81,0,3,,,,,,,,,2,,,61,0
157680,note_on,0,0,3,,,,,,,,,2,,,60,62
157680,note_on,0,0,2,,,,,,,,,1,,,75,62
157680,note_on,240,0,1,,,,,,,,,0,,,88,0
157680,note_on,240,0,4,,,,,,,,,3,,,44,0
157680,note_on,0,0,4,,,,,,,,,3,,,44,62
157760,note_on,80,0,3,,,,,,,,,2,,,60,0
157760,note_on,0,0,3,,,,,,,,,2,,,56,62
157839,note_on,0,0,3,,,,,,,,,2,,,60,62
157839,note_on,79,0,3,,,,,,,,,2,,,56,0
157920,note_on,240,0,2,,,,,,,,,1,,,75,0
157920,note_on,0,0,2,,,,,,,,,1,,,76,62
157920,control_change,0,0,2,,,,,,,,,1,64,0,,
157920,control_change,0,0,1,,,,,,,,,0,64,0,,
157920,note_on,240,0,1,,,,,,,,,0,,,87,0
157920,note_on,0,0,1,,,,,,,,,0,,,88,62
157920,note_on,0,0,3,,,,,,,,,2,,,61,62
157920,note_on,81,0,3,,,,,,,,,2,,,60,0
157920,note_on,0,0,4,,,,,,,,,3,,,37,62
157920,note_on,240,0,4,,,,,,,,,3,,,44,0
158000,note_on,0,0,3,,,,,,,,,2,,,56,62
158000,note_on,80,0,3,,,,,,,,,2,,,61,0
158079,note_on,0,0,3,,,,,,,,,2,,,61,62
158079,note_on,79,0,3,,,,,,,,,2,,,56,0
158160,note_on,0,0,4,,,,,,,,,3,,,49,88
158160,note_on,240,0,4,,,,,,,,,3,,,37,0
158160,note_on,240,0,2,,,,,,,,,1,,,76,0
158160,note_on,0,0,3,,,,,,,,,2,,,64,62
158160,note_on,81,0,3,,,,,,,,,2,,,61,0
158160,note_on,240,0,1,,,,,,,,,0,,,88,0
158160,note_on,0,0,1,,,,,,,,,0,,,81,88
158160,note_on,0,0,2,,,,,,,,,1,,,69,62
158240,note_on,0,0,3,,,,,,,,,2,,,57,62
158240,note_on,80,0,3,,,,,,,,,2,,,64,0
158319,note_on,0,0,3,,,,,,,,,2,,,64,62
158319,note_on,79,0,3,,,,,,,,,2,,,57,0
158340,note_on,0,0,1,,,,,,,,,0,,,79,62
158340,note_on,180,0,1,,,,,,,,,0,,,81,0
158400,note_on,81,0,3,,,,,,,,,2,,,64,0
158400,note_on,0,0,3,,,,,,,,,2,,,65,62
158400,note_on,60,0,1,,,,,,,,,0,,,79,0
158400,note_on,0,0,1,,,,,,,,,0,,,77,62
158480,note_on,80,0,3,,,,,,,,,2,,,65,0
158480,note_on,0,0,3,,,,,,,,,2,,,57,62
158559,note_on,79,0,3,,,,,,,,,2,,,57,0
158559,note_on,0,0,3,,,,,,,,,2,,,65,62
158640,note_on,81,0,3,,,,,,,,,2,,,65,0
158640,note_on,0,0,3,,,,,,,,,2,,,67,62
158640,note_on,0,0,1,,,,,,,,,0,,,81,62
158640,note_on,0,0,2,,,,,,,,,1,,,69,62
158640,note_on,0,0,1,,,,,,,,,0,,,76,62
158640,note_on,0,0,4,,,,,,,,,3,,,49,62
158640,note_on,480,0,4,,,,,,,,,3,,,49,0
158640,note_on,480,0,2,,,,,,,,,1,,,69,0
158640,note_on,240,0,1,,,,,,,,,0,,,77,0
158720,note_on,0,0,3,,,,,,,,,2,,,57,62
158720,note_on,80,0,3,,,,,,,,,2,,,67,0
158799,note_on,0,0,3,,,,,,,,,2,,,67,62
158799,note_on,79,0,3,,,,,,,,,2,,,57,0
158880,note_on,0,0,2,,,,,,,,,1,,,69,62
158880,note_on,0,0,3,,,,,,,,,2,,,65,62
158880,note_on,81,0,3,,,,,,,,,2,,,67,0
158880,note_on,240,0,1,,,,,,,,,0,,,81,0
158880,note_on,0,0,1,,,,,,,,,0,,,77,62
158880,note_on,240,0,2,,,,,,,,,1,,,69,0
158880,control_change,0,0,1,,,,,,,,,0,64,127,,
158880,note_on,0,0,1,,,,,,,,,0,,,76,0
158880,note_on,240,0,4,,,,,,,,,3,,,49,0
158880,note_on,0,0,4,,,,,,,,,3,,,50,62
158880,note_on,0,0,1,,,,,,,,,0,,,81,62
158960,note_on,80,0,3,,,,,,,,,2,,,65,0
158960,note_on,0,0,3,,,,,,,,,2,,,57,62
159039,note_on,0,0,3,,,,,,,,,2,,,62,62
159039,note_on,79,0,3,,,,,,,,,2,,,57,0
159120,note_on,0,0,3,,,,,,,,,2,,,64,62
159120,note_on,81,0,3,,,,,,,,,2,,,62,0
159120,note_on,0,0,1,,,,,,,,,0,,,79,62
159120,note_on,0,0,1,,,,,,,,,0,,,76,62
159120,note_on,0,0,1,,,,,,,,,0,,,77,0
159120,note_on,240,0,1,,,,,,,,,0,,,81,0
159200,note_on,80,0,3,,,,,,,,,2,,,64,0
159200,note_on,0,0,3,,,,,,,,,2,,,57,62
159279,note_on,79,0,3,,,,,,,,,2,,,57,0
159279,note_on,0,0,3,,,,,,,,,2,,,65,62
159300,note_on,0,0,1,,,,,,,,,0,,,77,62
159300,note_on,0,0,1,,,,,,,,,0,,,74,62
159300,note_on,0,0,1,,,,,,,,,0,,,76,0
159300,note_on,180,0,1,,,,,,,,,0,,,79,0
159360,note_on,0,0,1,,,,,,,,,0,,,76,62
159360,note_on,0,0,1,,,,,,,,,0,,,73,62
159360,note_on,0,0,1,,,,,,,,,0,,,74,0
159360,note_on,60,0,1,,,,,,,,,0,,,77,0
159360,note_on,480,0,2,,,,,,,,,1,,,69,0
159360,note_on,0,0,3,,,,,,,,,2,,,67,62
159360,note_on,480,0,4,,,,,,,,,3,,,50,0
159360,note_on,0,0,4,,,,,,,,,3,,,45,62
159360,note_on,0,0,2,,,,,,,,,1,,,69,62
159360,note_on,81,0,3,,,,,,,,,2,,,65,0
159440,note_on,80,0,3,,,,,,,,,2,,,67,0
159440,note_on,0,0,3,,,,,,,,,2,,,57,62
159519,note_on,0,0,3,,,,,,,,,2,,,67,62
159519,note_on,79,0,3,,,,,,,,,2,,,57,0
159600,note_on,0,0,1,,,,,,,,,0,,,77,62
159600,note_on,0,0,1,,,,,,,,,0,,,73,0
159600,note_on,240,0,2,,,,,,,,,1,,,69,0
159600,note_on,0,0,2,,,,,,,,,1,,,69,62
159600,note_on,240,0,4,,,,,,,,,3,,,45,0
159600,note_on,240,0,1,,,,,,,,,0,,,76,0
159600,note_on,0,0,3,,,,,,,,,2,,,65,62
159600,note_on,81,0,3,,,,,,,,,2,,,67,0
159600,note_on,0,0,1,,,,,,,,,0,,,74,62
159600,note_on,0,0,4,,,,,,,,,3,,,50,62
159680,note_on,0,0,3,,,,,,,,,2,,,57,62
159680,note_on,80,0,3,,,,,,,,,2,,,65,0
159759,note_on,79,0,3,,,,,,,,,2,,,57,0
159759,note_on,0,0,3,,,,,,,,,2,,,65,62
159840,note_on,81,0,3,,,,,,,,,2,,,65,0
159840,note_on,0,0,4,,,,,,,,,3,,,43,62
159840,note_on,240,0,4,,,,,,,,,3,,,50,0
159840,note_on,0,0,3,,,,,,,,,2,,,64,62
159840,note_on,0,0,1,,,,,,,,,0,,,76,62
159840,note_on,0,0,1,,,,,,,,,0,,,74,0
159840,note_on,240,0,2,,,,,,,,,1,,,69,0
159840,note_on,0,0,2,,,,,,,,,1,,,70,62
159840,note_on,0,0,1,,,,,,,,,0,,,79,62
159840,note_on,240,0,1,,,,,,,,,0,,,77,0
159920,note_on,80,0,3,,,,,,,,,2,,,64,0
159920,note_on,0,0,3,,,,,,,,,2,,,65,62
159999,note_on,79,0,3,,,,,,,,,2,,,65,0
159999,note_on,0,0,3,,,,,,,,,2,,,63,62
160080,note_on,81,0,3,,,,,,,,,2,,,63,0
160080,note_on,0,0,3,,,,,,,,,2,,,64,62
160160,note_on,0,0,3,,,,,,,,,2,,,65,62
160160,note_on,80,0,3,,,,,,,,,2,,,64,0
160239,note_on,0,0,3,,,,,,,,,2,,,66,62
160239,note_on,79,0,3,,,,,,,,,2,,,65,0
160320,note_on,480,0,2,,,,,,,,,1,,,70,0
160320,note_on,0,0,2,,,,,,,,,1,,,69,62
160320,note_on,0,0,1,,,,,,,,,0,,,76,0
160320,note_on,0,0,1,,,,,,,,,0,,,73,62
160320,note_on,0,0,1,,,,,,,,,0,,,76,62
160320,control_change,0,0,1,,,,,,,,,0,64,0,,
160320,note_on,81,0,3,,,,,,,,,2,,,66,0
160320,note_on,480,0,4,,,,,,,,,3,,,43,0
160320,note_on,0,0,4,,,,,,,,,3,,,45,62
160320,note_on,480,0,1,,,,,,,,,0,,,79,0
160320,note_on,0,0,3,,,,,,,,,2,,,67,62
160400,note_on,80,0,3,,,,,,,,,2,,,67,0
160400,note_on,0,0,3,,,,,,,,,2,,,64,62
160479,note_on,79,0,3,,,,,,,,,2,,,64,0
160479,note_on,0,0,3,,,,,,,,,2,,,61,62
160560,note_on,81,0,3,,,,,,,,,2,,,61,0
160560,note_on,0,0,3,,,,,,,,,2,,,58,62
160640,note_on,80,0,3,,,,,,,,,2,,,58,0
160640,note_on,0,0,3,,,,,,,,,2,,,57,62
160719,note_on,0,0,3,,,,,,,,,2,,,67,62
160719,note_on,79,0,3,,,,,,,,,2,,,57,0
160800,control_change,0,0,1,,,,,,,,,0,64,127,,
160800,note_on,0,0,1,,,,,,,,,0,,,77,62
160800,note_on,0,0,1,,,,,,,,,0,,,74,62
160800,note_on,0,0,2,,,,,,,,,1,,,69,62
160800,note_on,480,0,1,,,,,,,,,0,,,76,0
160800,note_on,480,0,2,,,,,,,,,1,,,69,0
160800,note_on,0,0,3,,,,,,,,,2,,,65,62
160800,note_on,81,0,3,,,,,,,,,2,,,67,0
160800,note_on,480,0,4,,,,,,,,,3,,,45,0
160800,note_on,0,0,1,,,,,,,,,0,,,73,0
160800,note_on,0,0,4,,,,,,,,,3,,,50,62
160880,note_on,80,0,3,,,,,,,,,2,,,65,0
160880,note_on,0,0,3,,,,,,,,,2,,,57,62
160959,note_on,79,0,3,,,,,,,,,2,,,57,0
160959,note_on,0,0,3,,,,,,,,,2,,,65,62
161040,note_on,240,0,4,,,,,,,,,3,,,50,0
161040,note_on,0,0,4,,,,,,,,,3,,,41,62
161040,note_on,0,0,3,,,,,,,,,2,,,62,62
161040,note_on,240,0,1,,,,,,,,,0,,,77,0
161040,note_on,0,0,1,,,,,,,,,0,,,74,62
161040,note_on,81,0,3,,,,,,,,,2,,,65,0
161040,note_on,240,0,2,,,,,,,,,1,,,69,0
161040,note_on,0,0,2,,,,,,,,,1,,,69,62
161040,note_on,0,0,1,,,,,,,,,0,,,74,0
161040,note_on,0,0,1,,,,,,,,,0,,,81,62
161120,note_on,80,0,3,,,,,,,,,2,,,62,0
161120,note_on,0,0,3,,,,,,,,,2,,,60,62
161160,note_on,0,0,2,,,,,,,,,1,,,70,62
161160,note_on,120,0,2,,,,,,,,,1,,,69,0
161199,note_on,0,0,3,,,,,,,,,2,,,58,62
161199,note_on,79,0,3,,,,,,,,,2,,,60,0
161220,note_on,0,0,1,,,,,,,,,0,,,79,62
161220,note_on,0,0,1,,,,,,,,,0,,,74,0
161220,note_on,180,0,1,,,,,,,,,0,,,81,0
161220,note_on,0,0,4,,,,,,,,,3,,,43,62
161220,note_on,180,0,4,,,,,,,,,3,,,41,0
161280,note_on,81,0,3,,,,,,,,,2,,,58,0
161280,note_on,0,0,3,,,,,,,,,2,,,57,62
161280,note_on,0,0,2,,,,,,,,,1,,,69,62
161280,note_on,120,0,2,,,,,,,,,1,,,70,0
161280,note_on,0,0,4,,,,,,,,,3,,,45,62
161280,note_on,60,0,1,,,,,,,,,0,,,79,0
161280,note_on,0,0,1,,,,,,,,,0,,,77,62
161280,note_on,60,0,4,,,,,,,,,3,,,43,0
161360,note_on,0,0,3,,,,,,,,,2,,,58,62
161360,note_on,80,0,3,,,,,,,,,2,,,57,0
161439,note_on,79,0,3,,,,,,,,,2,,,58,0
161439,note_on,0,0,3,,,,,,,,,2,,,57,62
161520,note_on,240,0,2,,,,,,,,,1,,,69,0
161520,note_on,240,0,4,,,,,,,,,3,,,45,0
161520,note_on,0,0,2,,,,,,,,,1,,,69,62
161520,note_on,0,0,4,,,,,,,,,3,,,45,62
161520,note_on,0,0,1,,,,,,,,,0,,,76,62
161520,note_on,0,0,1,,,,,,,,,0,,,73,62
161520,note_on,0,0,3,,,,,,,,,2,,,61,62
161520,note_on,81,0,3,,,,,,,,,2,,,57,0
161520,control_change,0,0,1,,,,,,,,,0,64,0,,
161520,note_on,240,0,1,,,,,,,,,0,,,77,0
161600,note_on,0,0,3,,,,,,,,,2,,,64,62
161600,note_on,80,0,3,,,,,,,,,2,,,61,0
161679,note_on,79,0,3,,,,,,,,,2,,,64,0
161679,note_on,0,0,3,,,,,,,,,2,,,67,62
161760,note_on,240,0,1,,,,,,,,,0,,,76,0
161760,note_on,0,0,1,,,,,,,,,0,,,73,0
161760,note_on,0,0,1,,,,,,,,,0,,,74,62
161760,note_on,0,0,1,,,,,,,,,0,,,77,62
161760,control_change,0,0,1,,,,,,,,,0,64,127,,
161760,note_on,240,0,2,,,,,,,,,1,,,69,0
161760,note_on,0,0,4,,,,,,,,,3,,,50,62
161760,note_on,240,0,4,,,,,,,,,3,,,45,0
161760,note_on,0,0,3,,,,,,,,,2,,,65,62
161760,note_on,81,0,3,,,,,,,,,2,,,67,0
161760,control_change,0,0,2,,,,,,,,,1,64,127,,
161760,note_on,0,0,2,,,,,,,,,1,,,69,62
161840,note_on,0,0,3,,,,,,,,,2,,,64,62
161840,note_on,80,0,3,,,,,,,,,2,,,65,0
161880,note_on,0,0,4,,,,,,,,,3,,,38,62
161880,note_on,120,0,4,,,,,,,,,3,,,50,0
161919,note_on,0,0,3,,,,,,,,,2,,,62,62
161919,note_on,79,0,3,,,,,,,,,2,,,64,0
162000,note_on,240,0,1,,,,,,,,,0,,,77,0
162000,note_on,0,0,4,,,,,,,,,3,,,40,62
162000,note_on,240,0,2,,,,,,,,,1,,,69,0
162000,note_on,0,0,2,,,,,,,,,1,,,67,62
162000,note_on,0,0,3,,,,,,,,,2,,,60,62
162000,note_on,81,0,3,,,,,,,,,2,,,62,0
162000,note_on,120,0,4,,,,,,,,,3,,,38,0
162000,note_on,0,0,1,,,,,,,,,0,,,79,62
162000,note_on,0,0,1,,,,,,,,,0,,,72,62
162000,note_on,0,0,1,,,,,,,,,0,,,74,0
162080,note_on,80,0,3,,,,,,,,,2,,,60,0
162080,note_on,0,0,3,,,,,,,,,2,,,59,62
162120,note_on,120,0,2,,,,,,,,,1,,,67,0
162120,note_on,0,0,2,,,,,,,,,1,,,69,62
162159,note_on,0,0,3,,,,,,,,,2,,,57,62
162159,note_on,79,0,3,,,,,,,,,2,,,59,0
162180,note_on,0,0,1,,,,,,,,,0,,,72,0
162180,note_on,180,0,4,,,,,,,,,3,,,40,0
162180,note_on,0,0,1,,,,,,,,,0,,,74,62
162180,note_on,0,0,1,,,,,,,,,0,,,77,62
162180,note_on,180,0,1,,,,,,,,,0,,,79,0
162180,note_on,0,0,4,,,,,,,,,3,,,41,62
162240,note_on,60,0,4,,,,,,,,,3,,,41,0
162240,note_on,0,0,4,,,,,,,,,3,,,43,62
162240,note_on,60,0,1,,,,,,,,,0,,,77,0
162240,note_on,0,0,2,,,,,,,,,1,,,67,62
162240,note_on,120,0,2,,,,,,,,,1,,,69,0
162240,note_on,0,0,1,,,,,,,,,0,,,74,0
162240,note_on,0,0,1,,,,,,,,,0,,,72,62
162240,note_on,0,0,1,,,,,,,,,0,,,76,62
162240,note_on,0,0,3,,,,,,,,,2,,,55,62
162240,note_on,81,0,3,,,,,,,,,2,,,57,0
162320,note_on,80,0,3,,,,,,,,,2,,,55,0
162320,note_on,0,0,3,,,,,,,,,2,,,57,62
162399,note_on,0,0,3,,,,,,,,,2,,,55,62
162399,note_on,79,0,3,,,,,,,,,2,,,57,0
162480,note_on,0,0,1,,,,,,,,,0,,,74,62
162480,note_on,0,0,3,,,,,,,,,2,,,59,62
162480,note_on,81,0,3,,,,,,,,,2,,,55,0
162480,note_on,0,0,2,,,,,,,,,1,,,67,62
162480,control_change,0,0,2,,,,,,,,,1,64,0,,
162480,note_on,0,0,4,,,,,,,,,3,,,43,62
162480,note_on,240,0,4,,,,,,,,,3,,,43,0
162480,note_on,0,0,1,,,,,,,,,0,,,72,0
162480,note_on,240,0,1,,,,,,,,,0,,,76,0
162480,control_change,0,0,1,,,,,,,,,0,64,0,,
162480,note_on,240,0,2,,,,,,,,,1,,,67,0
162480,note_on,0,0,1,,,,,,,,,0,,,71,62
162560,note_on,80,0,3,,,,,,,,,2,,,59,0
162560,note_on,0,0,3,,,,,,,,,2,,,62,62
162639,note_on,79,0,3,,,,,,,,,2,,,62,0
162639,note_on,0,0,3,,,,,,,,,2,,,65,62
162720,note_on,0,0,3,,,,,,,,,2,,,64,62
162720,note_on,240,0,2,,,,,,,,,1,,,67,0
162720,note_on,81,0,3,,,,,,,,,2,,,65,0
162720,note_on,0,0,4,,,,,,,,,3,,,48,62
162720,note_on,240,0,4,,,,,,,,,3,,,43,0
162720,note_on,240,0,1,,,,,,,,,0,,,74,0
162720,note_on,0,0,1,,,,,,,,,0,,,71,0
162720,note_on,0,0,1,,,,,,,,,0,,,72,62
162720,note_on,0,0,1,,,,,,,,,0,,,76,62
162720,note_on,0,0,2,,,,,,,,,1,,,67,62
162800,note_on,80,0,3,,,,,,,,,2,,,64,0
162800,note_on,0,0,3,,,,,,,,,2,,,62,62
162879,note_on,79,0,3,,,,,,,,,2,,,62,0
162879,note_on,0,0,3,,,,,,,,,2,,,60,62
162960,note_on,240,0,1,,,,,,,,,0,,,76,0
162960,note_on,0,0,1,,,,,,,,,0,,,72,62
162960,note_on,0,0,1,,,,,,,,,0,,,67,62
162960,note_on,0,0,1,,,,,,,,,0,,,72,0
162960,note_on,0,0,2,,,,,,,,,1,,,64,62
162960,note_on,240,0,2,,,,,,,,,1,,,67,0
162960,note_on,81,0,3,,,,,,,,,2,,,60,0
162960,note_on,0,0,3,,,,,,,,,2,,,59,62
163040,note_on,0,0,3,,,,,,,,,2,,,60,62
163040,note_on,80,0,3,,,,,,,,,2,,,59,0
163119,note_on,0,0,3,,,,,,,,,2,,,57,62
163119,note_on,79,0,3,,,,,,,,,2,,,60,0
163200,note_on,240,0,1,,,,,,,,,0,,,72,0
163200,note_on,81,0,3,,,,,,,,,2,,,57,0
163200,note_on,480,0,4,,,,,,,,,3,,,48,0
163200,note_on,0,0,4,,,,,,,,,3,,,43,62
163200,note_on,0,0,3,,,,,,,,,2,,,55,62
163200,note_on,0,0,1,,,,,,,,,0,,,74,62
163200,note_on,0,0,1,,,,,,,,,0,,,71,62
163200,note_on,0,0,1,,,,,,,,,0,,,67,0
163200,note_on,0,0,2,,,,,,,,,1,,,67,62
163200,note_on,240,0,2,,,,,,,,,1,,,64,0
163280,note_on,0,0,3,,,,,,,,,2,,,59,62
163280,note_on,80,0,3,,,,,,,,,2,,,55,0
163359,note_on,0,0,3,,,,,,,,,2,,,60,62
163359,note_on,79,0,3,,,,,,,,,2,,,59,0
163440,note_on,0,0,3,,,,,,,,,2,,,62,62
163440,note_on,81,0,3,,,,,,,,,2,,,60,0
163520,note_on,0,0,3,,,,,,,,,2,,,64,62
163520,note_on,80,0,3,,,,,,,,,2,,,62,0
163599,note_on,79,0,3,,,,,,,,,2,,,64,0
163599,note_on,0,0,3,,,,,,,,,2,,,65,62
163680,note_on,0,0,1,,,,,,,,,0,,,71,0
163680,note_on,0,0,1,,,,,,,,,0,,,72,62
163680,note_on,480,0,2,,,,,,,,,1,,,67,0
163680,note_on,0,0,2,,,,,,,,,1,,,67,62
163680,note_on,480,0,1,,,,,,,,,0,,,74,0
163680,note_on,0,0,1,,,,,,,,,0,,,76,62
163680,note_on,81,0,3,,,,,,,,,2,,,65,0
163680,note_on,0,0,3,,,,,,,,,2,,,64,62
163680,note_on,0,0,4,,,,,,,,,3,,,48,62
163680,note_on,480,0,4,,,,,,,,,3,,,43,0
163760,note_on,80,0,3,,,,,,,,,2,,,64,0
163760,note_on,0,0,3,,,,,,,,,2,,,62,62
163839,note_on,0,0,3,,,,,,,,,2,,,60,62
163839,note_on,79,0,3,,,,,,,,,2,,,62,0
163920,note_on,0,0,3,,,,,,,,,2,,,59,62
163920,note_on,0,0,1,,,,,,,,,0,,,72,62
163920,note_on,0,0,1,,,,,,,,,0,,,67,62
163920,note_on,81,0,3,,,,,,,,,2,,,60,0
163920,note_on,240,0,1,,,,,,,,,0,,,76,0
163920,note_on,240,0,2,,,,,,,,,1,,,67,0
163920,note_on,0,0,1,,,,,,,,,0,,,72,0
163920,note_on,0,0,2,,,,,,,,,1,,,64,62
164000,note_on,0,0,3,,,,,,,,,2,,,60,62
164000,note_on,80,0,3,,,,,,,,,2,,,59,0
164079,note_on,79,0,3,,,,,,,,,2,,,60,0
164079,note_on,0,0,3,,,,,,,,,2,,,57,62
164160,note_on,240,0,2,,,,,,,,,1,,,64,0
164160,note_on,0,0,2,,,,,,,,,1,,,67,62
164160,note_on,0,0,1,,,,,,,,,0,,,67,0
164160,note_on,81,0,3,,,,,,,,,2,,,57,0
164160,note_on,0,0,3,,,,,,,,,2,,,55,62
164160,note_on,240,0,1,,,,,,,,,0,,,72,0
164160,note_on,0,0,1,,,,,,,,,0,,,74,62
164160,note_on,480,0,4,,,,,,,,,3,,,48,0
164160,note_on,0,0,4,,,,,,,,,3,,,43,62
164160,note_on,0,0,1,,,,,,,,,0,,,71,62
164240,note_on,80,0,3,,,,,,,,,2,,,55,0
164240,note_on,0,0,3,,,,,,,,,2,,,59,62
164319,note_on,0,0,3,,,,,,,,,2,,,60,62
164319,note_on,79,0,3,,,,,,,,,2,,,59,0
164400,note_on,0,0,3,,,,,,,,,2,,,62,62
164400,note_on,81,0,3,,,,,,,,,2,,,60,0
164480,note_on,80,0,3,,,,,,,,,2,,,62,0
164480,note_on,0,0,3,,,,,,,,,2,,,64,62
164559,note_on,0,0,3,,,,,,,,,2,,,60,62
164559,note_on,79,0,3,,,,,,,,,2,,,64,0
164640,control_change,0,0,1,,,,,,,,,0,64,127,,
164640,note_on,0,0,3,,,,,,,,,2,,,59,49
164640,note_on,480,0,1,,,,,,,,,0,,,74,0
164640,note_on,0,0,4,,,,,,,,,3,,,43,62
164640,note_on,480,0,4,,,,,,,,,3,,,43,0
164640,note_on,0,0,1,,,,,,,,,0,,,71,0
164640,note_on,0,0,1,,,,,,,,,0,,,74,62
164640,note_on,81,0,3,,,,,,,,,2,,,60,0
164640,note_on,0,0,2,,,,,,,,,1,,,71,62
164640,note_on,0,0,2,,,,,,,,,1,,,65,62
164640,note_on,480,0,2,,,,,,,,,1,,,67,0
164720,note_on,80,0,3,,,,,,,,,2,,,59,0
164720,note_on,0,0,3,,,,,,,,,2,,,53,49
164799,note_on,79,0,3,,,,,,,,,2,,,53,0
164799,note_on,0,0,3,,,,,,,,,2,,,59,49
164880,note_on,240,0,1,,,,,,,,,0,,,74,0
164880,note_on,0,0,3,,,,,,,,,2,,,62,49
164880,note_on,81,0,3,,,,,,,,,2,,,59,0
164880,note_on,0,0,1,,,,,,,,,0,,,77,62
164960,note_on,0,0,3,,,,,,,,,2,,,59,49
164960,note_on,80,0,3,,,,,,,,,2,,,62,0
165000,note_on,0,0,1,,,,,,,,,0,,,76,62
165000,note_on,120,0,1,,,,,,,,,0,,,77,0
165039,note_on,79,0,3,,,,,,,,,2,,,59,0
165039,note_on,0,0,3,,,,,,,,,2,,,53,49
165120,note_on,120,0,1,,,,,,,,,0,,,76,0
165120,note_on,0,0,1,,,,,,,,,0,,,74,62
165120,note_on,81,0,3,,,,,,,,,2,,,53,0
165120,note_on,0,0,3,,,,,,,,,2,,,59,49
165200,note_on,0,0,3,,,,,,,,,2,,,53,49
165200,note_on,80,0,3,,,,,,,,,2,,,59,0
165279,note_on,0,0,3,,,,,,,,,2,,,59,49
165279,note_on,79,0,3,,,,,,,,,2,,,53,0
165360,note_on,81,0,3,,,,,,,,,2,,,59,0
165360,note_on,240,0,1,,,,,,,,,0,,,74,0
165360,note_on,0,0,1,,,,,,,,,0,,,73,62
165360,control_change,0,0,1,,,,,,,,,0,64,0,,
165360,note_on,0,0,3,,,,,,,,,2,,,62,49
165440,note_on,0,0,3,,,,,,,,,2,,,59,49
165440,note_on,80,0,3,,,,,,,,,2,,,62,0
165519,note_on,79,0,3,,,,,,,,,2,,,59,0
165519,note_on,0,0,3,,,,,,,,,2,,,53,49
165600,note_on,0,0,1,,,,,,,,,0,,,74,62
165600,control_change,0,0,1,,,,,,,,,0,64,127,,
165600,note_on,0,0,2,,,,,,,,,1,,,65,62
165600,note_on,0,0,2,,,,,,,,,1,,,65,0
165600,note_on,960,0,2,,,,,,,,,1,,,71,0
165600,note_on,0,0,4,,,,,,,,,3,,,43,62
165600,note_on,240,0,1,,,,,,,,,0,,,73,0
165600,note_on,0,0,2,,,,,,,,,1,,,71,62
165600,note_on,960,0,4,,,,,,,,,3,,,43,0
165600,note_on,0,0,3,,,,,,,,,2,,,59,49
165600,note_on,81,0,3,,,,,,,,,2,,,53,0
165680,note_on,0,0,3,,,,,,,,,2,,,53,49
165680,note_on,80,0,3,,,,,,,,,2,,,59,0
165759,note_on,0,0,3,,,,,,,,,2,,,59,49
165759,note_on,79,0,3,,,,,,,,,2,,,53,0
165840,note_on,0,0,3,,,,,,,,,2,,,62,49
165840,note_on,81,0,3,,,,,,,,,2,,,59,0
165920,note_on,80,0,3,,,,,,,,,2,,,62,0
165920,note_on,0,0,3,,,,,,,,,2,,,59,49
165960,note_on,360,0,1,,,,,,,,,0,,,74,0
165960,note_on,0,0,1,,,,,,,,,0,,,76,62
165999,note_on,0,0,3,,,,,,,,,2,,,53,49
165999,note_on,79,0,3,,,,,,,,,2,,,59,0
166080,note_on,81,0,3,,,,,,,,,2,,,53,0
166080,note_on,120,0,1,,,,,,,,,0,,,76,0
166080,note_on,0,0,3,,,,,,,,,2,,,59,49
166080,note_on,0,0,1,,,,,,,,,0,,,74,62
166160,note_on,0,0,3,,,,,,,,,2,,,53,49
166160,note_on,80,0,3,,,,,,,,,2,,,59,0
166239,note_on,0,0,3,,,,,,,,,2,,,59,49
166239,note_on,79,0,3,,,,,,,,,2,,,53,0
166320,note_on,0,0,1,,,,,,,,,0,,,71,62
166320,note_on,0,0,3,,,,,,,,,2,,,62,49
166320,note_on,81,0,3,,,,,,,,,2,,,59,0
166320,note_on,240,0,1,,,,,,,,,0,,,74,0
166400,note_on,0,0,3,,,,,,,,,2,,,59,49
166400,note_on,80,0,3,,,,,,,,,2,,,62,0
166440,note_on,0,0,1,,,,,,,,,0,,,73,62
166440,control_change,0,0,1,,,,,,,,,0,64,0,,
166440,note_on,120,0,1,,,,,,,,,0,,,71,0
166479,note_on,0,0,3,,,,,,,,,2,,,53,49
166479,note_on,79,0,3,,,,,,,,,2,,,59,0
166560,note_on,0,0,3,,,,,,,,,2,,,59,49
166560,note_on,120,0,1,,,,,,,,,0,,,73,0
166560,note_on,0,0,4,,,,,,,,,3,,,41,62
166560,note_on,0,0,2,,,,,,,,,1,,,65,0
166560,note_on,0,0,2,,,,,,,,,1,,,71,62
166560,note_on,0,0,2,,,,,,,,,1,,,68,62
166560,note_on,960,0,2,,,,,,,,,1,,,71,0
166560,control_change,0,0,1,,,,,,,,,0,64,127,,
166560,note_on,81,0,3,,,,,,,,,2,,,53,0
166560,note_on,960,0,4,,,,,,,,,3,,,43,0
166560,note_on,0,0,1,,,,,,,,,0,,,74,62
166640,note_on,0,0,3,,,,,,,,,2,,,56,49
166640,note_on,80,0,3,,,,,,,,,2,,,59,0
166719,note_on,79,0,3,,,,,,,,,2,,,56,0
166719,note_on,0,0,3,,,,,,,,,2,,,59,49
166800,note_on,240,0,1,,,,,,,,,0,,,74,0
166800,note_on,0,0,1,,,,,,,,,0,,,77,62
166800,note_on,81,0,3,,,,,,,,,2,,,59,0
166800,note_on,0,0,3,,,,,,,,,2,,,62,49
166880,note_on,80,0,3,,,,,,,,,2,,,62,0
166880,note_on,0,0,3,,,,,,,,,2,,,59,49
166920,note_on,120,0,1,,,,,,,,,0,,,77,0
166920,note_on,0,0,1,,,,,,,,,0,,,76,62
166959,note_on,79,0,3,,,,,,,,,2,,,59,0
166959,note_on,0,0,3,,,,,,,,,2,,,56,49
167040,note_on,0,0,1,,,,,,,,,0,,,74,62
167040,note_on,81,0,3,,,,,,,,,2,,,56,0
167040,note_on,0,0,3,,,,,,,,,2,,,59,49
167040,note_on,120,0,1,,,,,,,,,0,,,76,0
167120,note_on,80,0,3,,,,,,,,,2,,,59,0
167120,note_on,0,0,3,,,,,,,,,2,,,56,49
167199,note_on,0,0,3,,,,,,,,,2,,,59,49
167199,note_on,79,0,3,,,,,,,,,2,,,56,0
167280,note_on,240,0,1,,,,,,,,,0,,,74,0
167280,note_on,0,0,1,,,,,,,,,0,,,73,62
167280,note_on,81,0,3,,,,,,,,,2,,,59,0
167280,note_on,0,0,3,,,,,,,,,2,,,62,49
167280,control_change,0,0,1,,,,,,,,,0,64,0,,
167360,note_on,80,0,3,,,,,,,,,2,,,62,0
167360,note_on,0,0,3,,,,,,,,,2,,,59,49
167439,note_on,79,0,3,,,,,,,,,2,,,59,0
167439,note_on,0,0,3,,,,,,,,,2,,,56,49
167520,note_on,0,0,4,,,,,,,,,3,,,40,62
167520,note_on,960,0,4,,,,,,,,,3,,,41,0
167520,note_on,0,0,2,,,,,,,,,1,,,68,62
167520,set_tempo,22080,1,0,,,,,,1200000,,,,,,,
167520,note_on,960,0,2,,,,,,,,,1,,,71,0
167520,note_on,0,0,2,,,,,,,,,1,,,68,0
167520,note_on,0,0,2,,,,,,,,,1,,,64,62
167520,note_on,81,0,3,,,,,,,,,2,,,56,0
167520,note_on,240,0,1,,,,,,,,,0,,,73,0
167520,note_on,0,0,3,,,,,,,,,2,,,59,49
167520,note_on,0,0,1,,,,,,,,,0,,,74,62
167520,control_change,0,0,1,,,,,,,,,0,64,127,,
167600,note_on,80,0,3,,,,,,,,,2,,,59,0
167600,note_on,0,0,3,,,,,,,,,2,,,62,49
167679,note_on,79,0,3,,,,,,,,,2,,,62,0
167679,note_on,0,0,3,,,,,,,,,2,,,59,49
167760,note_on,81,0,3,,,,,,,,,2,,,59,0
167760,note_on,0,0,3,,,,,,,,,2,,,56,49
167760,note_on,240,0,1,,,,,,,,,0,,,74,0
167760,note_on,0,0,1,,,,,,,,,0,,,71,75
167840,note_on,80,0,3,,,,,,,,,2,,,56,0
167840,note_on,0,0,3,,,,,,,,,2,,,52,49
167880,note_on,0,0,1,,,,,,,,,0,,,73,75
167880,note_on,120,0,1,,,,,,,,,0,,,71,0
167919,note_on,79,0,3,,,,,,,,,2,,,52,0
167919,note_on,0,0,3,,,,,,,,,2,,,58,49
168000,note_on,0,0,1,,,,,,,,,0,,,74,88
168000,note_on,81,0,3,,,,,,,,,2,,,58,0
168000,note_on,0,0,3,,,,,,,,,2,,,59,49
168000,control_change,0,0,1,,,,,,,,,0,64,0,,
168000,note_on,120,0,1,,,,,,,,,0,,,73,0
168080,note_on,80,0,3,,,,,,,,,2,,,59,0
168080,note_on,0,0,3,,,,,,,,,2,,,52,49
168159,note_on,79,0,3,,,,,,,,,2,,,52,0
168159,note_on,0,0,3,,,,,,,,,2,,,59,49
168240,note_on,81,0,3,,,,,,,,,2,,,59,0
168240,note_on,0,0,3,,,,,,,,,2,,,57,49
168240,note_on,0,0,2,,,,,,,,,1,,,69,75
168240,note_on,0,0,2,,,,,,,,,1,,,64,75
168240,note_on,0,0,2,,,,,,,,,1,,,64,0
168240,note_on,240,0,1,,,,,,,,,0,,,74,0
168240,note_on,720,0,2,,,,,,,,,1,,,68,0
168240,note_on,720,0,4,,,,,,,,,3,,,40,0
168240,note_on,0,0,4,,,,,,,,,3,,,33,62
168240,note_on,0,0,4,,,,,,,,,3,,,45,62
168240,note_on,0,0,1,,,,,,,,,0,,,73,88
168320,note_on,80,0,3,,,,,,,,,2,,,57,0
168320,note_on,0,0,3,,,,,,,,,2,,,52,62
168360,note_on,0,0,1,,,,,,,,,0,,,74,88
168360,note_on,120,0,1,,,,,,,,,0,,,73,0
168399,note_on,79,0,3,,,,,,,,,2,,,52,0
168399,note_on,0,0,3,,,,,,,,,2,,,59,62
168480,note_on,0,0,4,,,,,,,,,3,,,45,62
168480,key_signature,960,1,0,,,,,A,,,,,,,,
168480,set_tempo,0,1,0,,,,,,1000000,,,,,,,
168480,control_change,0,0,1,,,,,,,,,0,64,127,,
168480,note_on,240,0,4,,,,,,,,,3,,,45,0
168480,note_on,0,0,1,,,,,,,,,0,,,76,88
168480,note_on,0,0,4,,,,,,,,,3,,,33,62
168480,note_on,0,0,4,,,,,,,,,3,,,33,0
168480,control_change,0,0,3,,,,,,,,,2,64,127,,
168480,note_on,81,0,3,,,,,,,,,2,,,59,0
168480,note_on,120,0,1,,,,,,,,,0,,,74,0
168480,note_on,0,0,2,,,,,,,,,1,,,69,75
168480,note_on,0,0,2,,,,,,,,,1,,,64,75
168480,note_on,0,0,2,,,,,,,,,1,,,64,0
168480,note_on,240,0,2,,,,,,,,,1,,,69,0
168480,note_on,0,0,3,,,,,,,,,2,,,61,62
168600,note_on,0,0,3,,,,,,,,,2,,,52,62
168600,note_on,120,0,3,,,,,,,,,2,,,61,0
168720,note_on,0,0,1,,,,,,,,,0,,,73,88
168720,note_on,240,0,1,,,,,,,,,0,,,76,0
168720,note_on,120,0,3,,,,,,,,,2,,,52,0
168720,note_on,0,0,3,,,,,,,,,2,,,57,62
168840,note_on,120,0,3,,,,,,,,,2,,,57,0
168840,note_on,0,0,3,,,,,,,,,2,,,59,62
168960,note_on,240,0,1,,,,,,,,,0,,,73,0
168960,note_on,0,0,1,,,,,,,,,0,,,69,75
168960,note_on,0,0,2,,,,,,,,,1,,,64,0
168960,note_on,0,0,4,,,,,,,,,3,,,33,0
168960,note_on,480,0,2,,,,,,,,,1,,,69,0
168960,note_on,120,0,3,,,,,,,,,2,,,59,0
168960,note_on,0,0,3,,,,,,,,,2,,,61,62
168960,note_on,480,0,4,,,,,,,,,3,,,45,0
169080,note_on,120,0,3,,,,,,,,,2,,,61,0
169080,note_on,0,0,3,,,,,,,,,2,,,57,62
169200,note_on,0,0,1,,,,,,,,,0,,,66,75
169200,note_on,120,0,3,,,,,,,,,2,,,57,0
169200,note_on,0,0,3,,,,,,,,,2,,,62,62
169200,note_on,240,0,1,,,,,,,,,0,,,69,0
169320,note_on,120,0,3,,,,,,,,,2,,,62,0
169320,control_change,0,0,3,,,,,,,,,2,64,0,,
169320,note_on,0,0,3,,,,,,,,,2,,,57,62
169440,note_on,0,0,1,,,,,,,,,0,,,64,62
169440,note_on,240,0,1,,,,,,,,,0,,,66,0
169440,note_on,480,0,4,,,,,,,,,3,,,33,62
169440,note_on,0,0,4,,,,,,,,,3,,,45,62
169440,note_on,120,0,3,,,,,,,,,2,,,57,0
169440,note_on,0,0,3,,,,,,,,,2,,,61,62
169440,control_change,0,0,3,,,,,,,,,2,64,127,,
169560,note_on,120,0,3,,,,,,,,,2,,,61,0
169560,note_on,0,0,3,,,,,,,,,2,,,57,62
169680,note_on,120,0,3,,,,,,,,,2,,,57,0
169680,note_on,0,0,3,,,,,,,,,2,,,56,62
169800,note_on,0,0,3,,,,,,,,,2,,,54,62
169800,note_on,120,0,3,,,,,,,,,2,,,56,0
169920,note_on,0,0,4,,,,,,,,,3,,,33,0
169920,note_on,120,0,3,,,,,,,,,2,,,54,0
169920,note_on,0,0,3,,,,,,,,,2,,,52,62
169920,note_on,480,0,1,,,,,,,,,0,,,64,0
169920,control_change,0,0,1,,,,,,,,,0,64,0,,
169920,note_on,0,0,1,,,,,,,,,0,,,61,62
169920,note_on,480,0,4,,,,,,,,,3,,,45,0
170040,note_on,0,0,3,,,,,,,,,2,,,57,62
170040,note_on,120,0,3,,,,,,,,,2,,,52,0
170160,note_on,0,0,1,,,,,,,,,0,,,66,88
170160,note_on,240,0,1,,,,,,,,,0,,,61,0
170160,note_on,0,0,3,,,,,,,,,2,,,62,88
170160,note_on,120,0,3,,,,,,,,,2,,,57,0
170160,control_change,0,0,1,,,,,,,,,0,64,127,,
170280,note_on,0,0,3,,,,,,,,,2,,,61,62
170280,control_change,0,0,3,,,,,,,,,2,64,0,,
170280,note_on,120,0,3,,,,,,,,,2,,,62,0
170340,note_on,0,0,1,,,,,,,,,0,,,64,62
170340,note_on,180,0,1,,,,,,,,,0,,,66,0
170400,note_on,60,0,1,,,,,,,,,0,,,64,0
170400,note_on,480,0,4,,,,,,,,,3,,,40,62
170400,note_on,120,0,3,,,,,,,,,2,,,61,0
170400,note_on,0,0,3,,,,,,,,,2,,,59,62
170400,note_on,0,0,1,,,,,,,,,0,,,62,62
170520,note_on,120,0,3,,,,,,,,,2,,,59,0
170520,note_on,0,0,3,,,,,,,,,2,,,52,62
170640,note_on,0,0,3,,,,,,,,,2,,,59,62
170640,note_on,120,0,3,,,,,,,,,2,,,52,0
170760,note_on,0,0,3,,,,,,,,,2,,,57,62
170760,note_on,120,0,3,,,,,,,,,2,,,59,0
170880,note_on,0,0,3,,,,,,,,,2,,,56,62
170880,note_on,120,0,3,,,,,,,,,2,,,57,0
170880,note_on,480,0,1,,,,,,,,,0,,,62,0
170880,control_change,0,0,1,,,,,,,,,0,64,0,,
170880,note_on,480,0,4,,,,,,,,,3,,,40,0
170880,note_on,0,0,1,,,,,,,,,0,,,59,62
171000,note_on,0,0,3,,,,,,,,,2,,,57,62
171000,note_on,120,0,3,,,,,,,,,2,,,56,0
171120,note_on,0,0,3,,,,,,,,,2,,,54,62
171120,note_on,120,0,3,,,,,,,,,2,,,57,0
171120,note_on,240,0,1,,,,,,,,,0,,,59,0
171120,note_on,0,0,1,,,,,,,,,0,,,64,88
171240,note_on,120,0,3,,,,,,,,,2,,,54,0
171240,note_on,0,0,3,,,,,,,,,2,,,56,62
171300,note_on,0,0,1,,,,,,,,,0,,,62,62
171300,note_on,180,0,1,,,,,,,,,0,,,64,0
171360,note_on,60,0,1,,,,,,,,,0,,,62,0
171360,note_on,480,0,4,,,,,,,,,3,,,45,62
171360,note_on,0,0,3,,,,,,,,,2,,,57,49
171360,note_on,120,0,3,,,,,,,,,2,,,56,0
171360,note_on,0,0,1,,,,,,,,,0,,,61,62
171480,note_on,0,0,3,,,,,,,,,2,,,52,49
171480,note_on,120,0,3,,,,,,,,,2,,,57,0
171600,note_on,0,0,3,,,,,,,,,2,,,59,49
171600,note_on,120,0,3,,,,,,,,,2,,,52,0
171600,note_on,0,0,1,,,,,,,,,0,,,64,62
171600,control_change,0,0,1,,,,,,,,,0,64,127,,
171600,note_on,240,0,1,,,,,,,,,0,,,61,0
171660,note_on,60,0,1,,,,,,,,,0,,,64,0
171660,note_on,0,0,1,,,,,,,,,0,,,62,62
171720,note_on,0,0,1,,,,,,,,,0,,,61,62
171720,note_on,60,0,1,,,,,,,,,0,,,62,0
171720,note_on,0,0,3,,,,,,,,,2,,,52,49
171720,note_on,120,0,3,,,,,,,,,2,,,59,0
171780,note_on,0,0,1,,,,,,,,,0,,,62,62
171780,note_on,60,0,1,,,,,,,,,0,,,61,0
171840,note_on,0,0,1,,,,,,,,,0,,,64,62
171840,control_change,0,0,1,,,,,,,,,0,64,0,,
171840,note_on,60,0,1,,,,,,,,,0,,,62,0
171840,note_on,480,0,4,,,,,,,,,3,,,45,0
171840,note_on,120,0,3,,,,,,,,,2,,,52,0
171840,note_on,0,0,3,,,,,,,,,2,,,61,49
171960,note_on,120,0,3,,,,,,,,,2,,,61,0
171960,note_on,0,0,3,,,,,,,,,2,,,52,49
172080,note_on,240,0,1,,,,,,,,,0,,,64,0
172080,note_on,3120,0,2,,,,,,,,,1,,,73,62
172080,note_on,0,0,1,,,,,,,,,0,,,97,62
172080,note_on,120,0,3,,,,,,,,,2,,,52,0
172080,note_on,0,0,3,,,,,,,,,2,,,57,49
172260,note_on,0,0,2,,,,,,,,,1,,,74,62
172260,note_on,180,0,1,,,,,,,,,0,,,97,0
172260,note_on,180,0,3,,,,,,,,,2,,,57,0
172260,note_on,0,0,1,,,,,,,,,0,,,98,62
172260,note_on,0,0,3,,,,,,,,,2,,,59,49
172260,note_on,180,0,2,,,,,,,,,1,,,73,0
172320,note_on,0,0,3,,,,,,,,,2,,,61,49
172320,note_on,60,0,3,,,,,,,,,2,,,59,0
172320,note_on,60,0,1,,,,,,,,,0,,,98,0
172320,note_on,0,0,1,,,,,,,,,0,,,100,88
172320,note_on,0,0,2,,,,,,,,,1,,,76,62
172320,note_on,0,0,4,,,,,,,,,3,,,45,62
172320,note_on,480,0,4,,,,,,,,,3,,,33,62
172320,note_on,60,0,2,,,,,,,,,1,,,74,0
172337,note_on,17,0,1,,,,,,,,,0,,,100,0
172440,note_on,0,0,3,,,,,,,,,2,,,52,49
172440,note_on,120,0,3,,,,,,,,,2,,,61,0
172500,note_on,0,0,1,,,,,,,,,0,,,98,62
172500,control_change,163,0,1,,,,,,,,,0,64,127,,
172560,note_on,240,0,2,,,,,,,,,1,,,76,0
172560,note_on,120,0,3,,,,,,,,,2,,,52,0
172560,note_on,60,0,1,,,,,,,,,0,,,98,0
172560,note_on,0,0,1,,,,,,,,,0,,,97,62
172560,note_on,0,0,3,,,,,,,,,2,,,57,49
172560,note_on,0,0,2,,,,,,,,,1,,,73,62
172620,note_on,60,0,1,,,,,,,,,0,,,97,0
172620,note_on,0,0,1,,,,,,,,,0,,,95,62
172680,note_on,0,0,3,,,,,,,,,2,,,59,49
172680,note_on,60,0,1,,,,,,,,,0,,,95,0
172680,note_on,0,0,1,,,,,,,,,0,,,93,62
172680,note_on,120,0,3,,,,,,,,,2,,,57,0
172740,note_on,0,0,1,,,,,,,,,0,,,92,62
172740,note_on,60,0,1,,,,,,,,,0,,,93,0
172800,note_on,0,0,3,,,,,,,,,2,,,61,49
172800,note_on,120,0,3,,,,,,,,,2,,,59,0
172800,note_on,60,0,1,,,,,,,,,0,,,92,0
172800,note_on,0,0,4,,,,,,,,,3,,,33,0
172800,note_on,480,0,4,,,,,,,,,3,,,45,0
172800,note_on,240,0,2,,,,,,,,,1,,,73,0
172800,note_on,0,0,1,,,,,,,,,0,,,90,62
172800,note_on,0,0,2,,,,,,,,,1,,,69,62
172860,note_on,60,0,1,,,,,,,,,0,,,90,0
172860,note_on,0,0,1,,,,,,,,,0,,,88,62
172920,note_on,0,0,3,,,,,,,,,2,,,57,49
172920,note_on,120,0,3,,,,,,,,,2,,,61,0
172920,note_on,60,0,1,,,,,,,,,0,,,88,0
172920,note_on,0,0,1,,,,,,,,,0,,,86,62
172980,note_on,0,0,1,,,,,,,,,0,,,85,62
172980,note_on,60,0,1,,,,,,,,,0,,,86,0
173040,note_on,0,0,1,,,,,,,,,0,,,83,62
173040,note_on,60,0,1,,,,,,,,,0,,,85,0
173040,note_on,120,0,3,,,,,,,,,2,,,57,0
173040,note_on,0,0,3,,,,,,,,,2,,,62,75
173040,note_on,0,0,4,,,,,,,,,3,,,45,88
173040,note_on,240,0,4,,,,,,,,,3,,,33,88
173040,note_on,240,0,2,,,,,,,,,1,,,69,0
173040,note_on,0,0,2,,,,,,,,,1,,,68,62
173100,note_on,60,0,1,,,,,,,,,0,,,83,0
173100,note_on,0,0,1,,,,,,,,,0,,,81,62
173160,note_on,0,0,3,,,,,,,,,2,,,57,49
173160,note_on,120,0,3,,,,,,,,,2,,,62,0
173160,note_on,0,0,1,,,,,,,,,0,,,80,62
173160,note_on,60,0,1,,,,,,,,,0,,,81,0
173220,note_on,0,0,1,,,,,,,,,0,,,78,62
173220,control_change,0,0,1,,,,,,,,,0,64,0,,
173220,note_on,60,0,1,,,,,,,,,0,,,80,0
173220,control_change,0,0,2,,,,,,,,,1,64,0,,
173220,note_on,0,0,2,,,,,,,,,1,,,66,62
173220,note_on,180,0,2,,,,,,,,,1,,,68,0
173280,note_on,0,0,2,,,,,,,,,1,,,64,62
173280,note_on,60,0,1,,,,,,,,,0,,,78,0
173280,note_on,0,0,4,,,,,,,,,3,,,33,0
173280,note_on,0,0,4,,,,,,,,,3,,,33,62
173280,note_on,0,0,4,,,,,,,,,3,,,45,62
173280,note_on,60,0,2,,,,,,,,,1,,,66,0
173280,note_on,0,0,1,,,,,,,,,0,,,76,62
173280,note_on,0,0,3,,,,,,,,,2,,,61,49
173280,note_on,120,0,3,,,,,,,,,2,,,57,0
173280,note_on,240,0,4,,,,,,,,,3,,,45,0
173400,note_on,0,0,3,,,,,,,,,2,,,57,49
173400,note_on,120,0,3,,,,,,,,,2,,,61,0
173520,note_on,0,0,3,,,,,,,,,2,,,56,49
173520,note_on,120,0,3,,,,,,,,,2,,,57,0
173580,note_on,0,0,3,,,,,,,,,2,,,57,49
173580,note_on,60,0,3,,,,,,,,,2,,,56,0
173640,note_on,0,0,3,,,,,,,,,2,,,56,49
173640,note_on,60,0,3,,,,,,,,,2,,,57,0
173700,note_on,0,0,3,,,,,,,,,2,,,54,49
173700,note_on,60,0,3,,,,,,,,,2,,,56,0
173760,note_on,0,0,1,,,,,,,,,0,,,73,62
173760,note_on,480,0,1,,,,,,,,,0,,,76,0
173760,note_on,60,0,3,,,,,,,,,2,,,54,0
173760,note_on,0,0,3,,,,,,,,,2,,,52,49
173760,note_on,480,0,4,,,,,,,,,3,,,45,0
173760,note_on,0,0,4,,,,,,,,,3,,,33,0
173760,note_on,480,0,2,,,,,,,,,1,,,64,0
173760,note_on,0,0,2,,,,,,,,,1,,,61,62
173880,note_on,0,0,3,,,,,,,,,2,,,53,49
173880,note_on,120,0,3,,,,,,,,,2,,,52,0
174000,note_on,240,0,4,,,,,,,,,3,,,34,88
174000,note_on,0,0,4,,,,,,,,,3,,,46,88
174000,note_on,0,0,2,,,,,,,,,1,,,66,88
174000,note_on,0,0,2,,,,,,,,,1,,,73,88
174000,note_on,240,0,1,,,,,,,,,0,,,73,0
174000,note_on,0,0,1,,,,,,,,,0,,,78,88
174000,note_on,120,0,3,,,,,,,,,2,,,53,0
174000,note_on,240,0,2,,,,,,,,,1,,,61,0
174000,note_on,0,0,3,,,,,,,,,2,,,54,75
174120,note_on,0,0,3,,,,,,,,,2,,,61,49
174120,note_on,120,0,3,,,,,,,,,2,,,54,0
174180,note_on,0,0,1,,,,,,,,,0,,,76,62
174180,note_on,180,0,1,,,,,,,,,0,,,78,0
174240,note_on,0,0,2,,,,,,,,,1,,,71,62
174240,note_on,0,0,2,,,,,,,,,1,,,66,62
174240,note_on,0,0,4,,,,,,,,,3,,,35,62
174240,note_on,0,0,2,,,,,,,,,1,,,66,0
174240,note_on,240,0,2,,,,,,,,,1,,,73,0
174240,note_on,0,0,4,,,,,,,,,3,,,34,0
174240,note_on,120,0,3,,,,,,,,,2,,,61,0
174240,note_on,0,0,4,,,,,,,,,3,,,47,62
174240,note_on,240,0,4,,,,,,,,,3,,,46,0
174240,note_on,60,0,1,,,,,,,,,0,,,76,0
174240,control_change,0,0,1,,,,,,,,,0,64,127,,
174240,note_on,0,0,1,,,,,,,,,0,,,74,62
174360,note_on,120,0,3,,,,,,,,,2,,,54,49
174480,note_on,0,0,3,,,,,,,,,2,,,59,49
174480,note_on,0,0,4,,,,,,,,,3,,,35,0
174480,note_on,240,0,4,,,,,,,,,3,,,47,0
174480,note_on,120,0,3,,,,,,,,,2,,,54,0
174600,note_on,120,0,3,,,,,,,,,2,,,59,0
174600,note_on,0,0,3,,,,,,,,,2,,,61,49
174660,note_on,420,0,1,,,,,,,,,0,,,74,0
174660,note_on,0,0,1,,,,,,,,,0,,,73,62
174720,note_on,120,0,3,,,,,,,,,2,,,61,0
174720,note_on,0,0,3,,,,,,,,,2,,,62,49
174720,note_on,0,0,2,,,,,,,,,1,,,66,0
174720,note_on,240,0,4,,,,,,,,,3,,,40,62
174720,note_on,480,0,2,,,,,,,,,1,,,71,0
174720,note_on,60,0,1,,,,,,,,,0,,,73,0
174720,note_on,0,0,1,,,,,,,,,0,,,71,62
174840,note_on,0,0,3,,,,,,,,,2,,,59,49
174840,note_on,120,0,3,,,,,,,,,2,,,62,0
174900,note_on,0,0,1,,,,,,,,,0,,,76,62
174900,note_on,180,0,1,,,,,,,,,0,,,71,0
174920,note_on,0,0,1,,,,,,,,,0,,,80,62
174920,note_on,20,0,1,,,,,,,,,0,,,76,0
174939,note_on,19,0,1,,,,,,,,,0,,,80,0
174939,note_on,0,0,1,,,,,,,,,0,,,83,62
174960,note_on,240,0,2,,,,,,,,,1,,,64,62
174960,note_on,0,0,2,,,,,,,,,1,,,71,62
174960,note_on,0,0,2,,,,,,,,,1,,,74,62
174960,note_on,120,0,3,,,,,,,,,2,,,59,0
174960,note_on,240,0,4,,,,,,,,,3,,,40,0
174960,note_on,0,0,1,,,,,,,,,0,,,86,62
174960,note_on,0,0,3,,,,,,,,,2,,,56,49
174960,note_on,21,0,1,,,,,,,,,0,,,83,0
175080,note_on,0,0,3,,,,,,,,,2,,,62,49
175080,note_on,120,0,3,,,,,,,,,2,,,56,0
175140,note_on,0,0,1,,,,,,,,,0,,,80,62
175140,note_on,180,0,1,,,,,,,,,0,,,86,0
175200,note_on,240,0,2,,,,,,,,,1,,,74,0
175200,note_on,0,0,2,,,,,,,,,1,,,71,0
175200,note_on,0,0,2,,,,,,,,,1,,,64,0
175200,note_on,0,0,2,,,,,,,,,1,,,64,62
175200,note_on,0,0,2,,,,,,,,,1,,,69,62
175200,note_on,0,0,2,,,,,,,,,1,,,73,62
175200,note_on,60,0,1,,,,,,,,,0,,,80,0
175200,control_change,0,0,1,,,,,,,,,0,64,0,,
175200,note_on,240,0,4,,,,,,,,,3,,,33,62
175200,note_on,0,0,3,,,,,,,,,2,,,61,49
175200,note_on,0,0,1,,,,,,,,,0,,,81,62
175200,note_on,120,0,3,,,,,,,,,2,,,62,0
175320,note_on,0,0,3,,,,,,,,,2,,,57,49
175320,note_on,120,0,3,,,,,,,,,2,,,61,0
175440,note_on,0,0,3,,,,,,,,,2,,,52,49
175440,note_on,120,0,3,,,,,,,,,2,,,57,0
175560,note_on,0,0,3,,,,,,,,,2,,,49,49
175560,note_on,120,0,3,,,,,,,,,2,,,52,0
175680,note_on,0,0,3,,,,,,,,,2,,,45,49
175680,note_on,120,0,3,,,,,,,,,2,,,49,0
175680,note_on,480,0,1,,,,,,,,,0,,,81,0
175920,note_on,720,0,4,,,,,,,,,3,,,33,0
175920,note_on,0,0,2,,,,,,,,,1,,,64,0
175920,note_on,0,0,2,,,,,,,,,1,,,69,0
175920,note_on,240,0,3,,,,,,,,,2,,,45,0
175920,note_on,720,0,2,,,,,,,,,1,,,73,0
175920,note_on,240,0,1,,,,,,,,,0,,,81,62
176100,note_on,180,0,1,,,,,,,,,0,,,81,0
176100,note_on,0,0,1,,,,,,,,,0,,,83,62
176160,control_change,240,0,3,,,,,,,,,2,64,127,,
176160,note_on,0,0,3,,,,,,,,,2,,,57,49
176160,note_on,0,0,3,,,,,,,,,2,,,61,49
176160,control_change,240,0,4,,,,,,,,,3,64,127,,
176160,note_on,0,0,4,,,,,,,,,3,,,54,62
176160,control_change,240,0,2,,,,,,,,,1,64,127,,
176160,note_on,0,0,2,,,,,,,,,1,,,66,62
176160,note_on,0,0,1,,,,,,,,,0,,,85,62
176160,note_on,60,0,1,,,,,,,,,0,,,83,0
176240,note_on,0,0,1,,,,,,,,,0,,,85,62
176240,note_on,80,0,1,,,,,,,,,0,,,85,0
176319,note_on,79,0,1,,,,,,,,,0,,,85,0
176319,note_on,0,0,1,,,,,,,,,0,,,85,62
176400,note_on,0,0,3,,,,,,,,,2,,,61,49
176400,note_on,0,0,4,,,,,,,,,3,,,54,62
176400,note_on,240,0,2,,,,,,,,,1,,,66,0
176400,note_on,0,0,3,,,,,,,,,2,,,57,0
176400,note_on,240,0,3,,,,,,,,,2,,,61,0
176400,note_on,81,0,1,,,,,,,,,0,,,85,0
176400,note_on,0,0,1,,,,,,,,,0,,,85,62
176400,note_on,0,0,2,,,,,,,,,1,,,69,62
176400,note_on,240,0,4,,,,,,,,,3,,,54,0
176480,note_on,0,0,1,,,,,,,,,0,,,85,62
176480,note_on,80,0,1,,,,,,,,,0,,,85,0
176559,note_on,0,0,1,,,,,,,,,0,,,85,62
176559,note_on,79,0,1,,,,,,,,,0,,,85,0
176640,note_on,0,0,4,,,,,,,,,3,,,54,62
176640,note_on,0,0,1,,,,,,,,,0,,,85,62
176640,note_on,81,0,1,,,,,,,,,0,,,85,0
176640,note_on,240,0,2,,,,,,,,,1,,,69,0
176640,note_on,0,0,3,,,,,,,,,2,,,61,49
176640,note_on,0,0,2,,,,,,,,,1,,,68,62
176640,note_on,240,0,3,,,,,,,,,2,,,61,0
176640,note_on,240,0,4,,,,,,,,,3,,,54,0
176640,note_on,0,0,3,,,,,,,,,2,,,59,49
176720,note_on,80,0,1,,,,,,,,,0,,,85,0
176720,note_on,0,0,1,,,,,,,,,0,,,85,62
176799,note_on,0,0,1,,,,,,,,,0,,,85,62
176799,note_on,79,0,1,,,,,,,,,0,,,85,0
176880,note_on,0,0,2,,,,,,,,,1,,,65,62
176880,note_on,0,0,4,,,,,,,,,3,,,54,62
176880,control_change,0,0,4,,,,,,,,,3,64,0,,
176880,note_on,240,0,4,,,,,,,,,3,,,54,0
176880,note_on,240,0,2,,,,,,,,,1,,,68,0
176880,control_change,0,0,2,,,,,,,,,1,64,0,,
176880,note_on,81,0,1,,,,,,,,,0,,,85,0
176880,note_on,0,0,1,,,,,,,,,0,,,85,62
176880,note_on,240,0,3,,,,,,,,,2,,,61,0
176880,note_on,0,0,3,,,,,,,,,2,,,59,0
176880,control_change,0,0,3,,,,,,,,,2,64,0,,
176880,note_on,0,0,3,,,,,,,,,2,,,61,49
176880,note_on,0,0,3,,,,,,,,,2,,,56,49
176960,note_on,0,0,1,,,,,,,,,0,,,85,62
176960,note_on,80,0,1,,,,,,,,,0,,,85,0
177039,note_on,79,0,1,,,,,,,,,0,,,85,0
177039,note_on,0,0,1,,,,,,,,,0,,,85,62
177120,note_on,240,0,3,,,,,,,,,2,,,61,0
177120,note_on,0,0,3,,,,,,,,,2,,,56,0
177120,note_on,0,0,3,,,,,,,,,2,,,57,49
177120,note_on,0,0,3,,,,,,,,,2,,,61,49
177120,note_on,240,0,2,,,,,,,,,1,,,65,0
177120,note_on,0,0,2,,,,,,,,,1,,,66,62
177120,note_on,0,0,1,,,,,,,,,0,,,85,62
177120,note_on,81,0,1,,,,,,,,,0,,,85,0
177120,note_on,0,0,4,,,,,,,,,3,,,54,62
177120,note_on,240,0,4,,,,,,,,,3,,,54,0
177150,note_on,30,0,1,,,,,,,,,0,,,85,0
177150,note_on,0,0,1,,,,,,,,,0,,,86,62
177180,note_on,30,0,1,,,,,,,,,0,,,86,0
177180,note_on,0,0,1,,,,,,,,,0,,,85,62
177240,note_on,60,0,1,,,,,,,,,0,,,85,0
177240,note_on,0,0,1,,,,,,,,,0,,,83,62
177300,note_on,60,0,1,,,,,,,,,0,,,83,0
177300,note_on,0,0,1,,,,,,,,,0,,,81,62
177360,note_on,60,0,1,,,,,,,,,0,,,81,0
177360,note_on,0,0,1,,,,,,,,,0,,,80,62
177420,note_on,0,0,1,,,,,,,,,0,,,78,62
177420,note_on,60,0,1,,,,,,,,,0,,,80,0
177480,note_on,60,0,1,,,,,,,,,0,,,78,0
177480,note_on,0,0,1,,,,,,,,,0,,,76,62
177480,note_on,360,0,3,,,,,,,,,2,,,61,0
177480,note_on,0,0,3,,,,,,,,,2,,,57,0
177480,note_on,0,0,3,,,,,,,,,2,,,64,49
177540,note_on,60,0,1,,,,,,,,,0,,,76,0
177540,note_on,0,0,1,,,,,,,,,0,,,74,62
177540,note_on,60,0,3,,,,,,,,,2,,,64,0
177540,note_on,0,0,3,,,,,,,,,2,,,62,49
177600,note_on,60,0,3,,,,,,,,,2,,,62,0
177600,note_on,0,0,3,,,,,,,,,2,,,61,49
177600,note_on,0,0,1,,,,,,,,,0,,,73,62
177600,note_on,60,0,1,,,,,,,,,0,,,74,0
177680,note_on,0,0,1,,,,,,,,,0,,,73,62
177680,control_change,0,0,1,,,,,,,,,0,64,127,,
177680,note_on,80,0,1,,,,,,,,,0,,,73,0
177759,note_on,0,0,1,,,,,,,,,0,,,71,62
177759,note_on,79,0,1,,,,,,,,,0,,,73,0
177840,note_on,0,0,1,,,,,,,,,0,,,69,62
177840,note_on,240,0,3,,,,,,,,,2,,,61,0
177840,note_on,720,0,2,,,,,,,,,1,,,66,0
177840,note_on,81,0,1,,,,,,,,,0,,,71,0
177840,note_on,720,0,4,,,,,,,,,3,,,54,0
177920,note_on,80,0,1,,,,,,,,,0,,,69,0
177920,note_on,0,0,1,,,,,,,,,0,,,68,62
177999,note_on,79,0,1,,,,,,,,,0,,,68,0
177999,note_on,0,0,1,,,,,,,,,0,,,66,62
177999,control_change,0,0,1,,,,,,,,,0,64,0,,
178080,control_change,240,0,4,,,,,,,,,3,64,127,,
178080,note_on,0,0,2,,,,,,,,,1,,,59,75
178080,note_on,0,0,3,,,,,,,,,2,,,56,49
178080,note_on,0,0,3,,,,,,,,,2,,,53,49
178080,note_on,0,0,4,,,,,,,,,3,,,50,62
178080,control_change,240,0,2,,,,,,,,,1,64,127,,
178080,note_on,0,0,1,,,,,,,,,0,,,65,62
178080,control_change,240,0,3,,,,,,,,,2,64,127,,
178080,control_change,0,0,1,,,,,,,,,0,64,127,,
178080,note_on,0,0,4,,,,,,,,,3,,,42,62
178080,note_on,81,0,1,,,,,,,,,0,,,66,0
178140,note_on,60,0,1,,,,,,,,,0,,,65,0
178140,note_on,0,0,1,,,,,,,,,0,,,74,62
178200,note_on,0,0,1,,,,,,,,,0,,,68,62
178200,note_on,60,0,1,,,,,,,,,0,,,74,0
178260,note_on,0,0,1,,,,,,,,,0,,,65,62
178260,control_change,0,0,1,,,,,,,,,0,64,0,,
178260,note_on,60,0,1,,,,,,,,,0,,,68,0
178320,note_on,0,0,1,,,,,,,,,0,,,65,62
178320,note_on,0,0,2,,,,,,,,,1,,,62,75
178320,note_on,240,0,2,,,,,,,,,1,,,59,0
178320,note_on,0,0,3,,,,,,,,,2,,,56,49
178320,note_on,240,0,3,,,,,,,,,2,,,56,0
178320,note_on,0,0,3,,,,,,,,,2,,,53,0
178320,note_on,0,0,3,,,,,,,,,2,,,53,49
178320,note_on,0,0,4,,,,,,,,,3,,,42,62
178320,note_on,240,0,4,,,,,,,,,3,,,50,0
178320,note_on,0,0,4,,,,,,,,,3,,,42,0
178320,control_change,0,0,1,,,,,,,,,0,64,127,,
178320,note_on,60,0,1,,,,,,,,,0,,,65,0
178320,note_on,0,0,4,,,,,,,,,3,,,50,62
178380,note_on,60,0,1,,,,,,,,,0,,,65,0
178380,note_on,0,0,1,,,,,,,,,0,,,74,62
178440,note_on,0,0,1,,,,,,,,,0,,,68,62
178440,note_on,60,0,1,,,,,,,,,0,,,74,0
178500,note_on,0,0,1,,,,,,,,,0,,,65,62
178500,note_on,60,0,1,,,,,,,,,0,,,68,0
178500,control_change,0,0,1,,,,,,,,,0,64,0,,
178560,control_change,0,0,1,,,,,,,,,0,64,127,,
178560,note_on,0,0,1,,,,,,,,,0,,,65,62
178560,note_on,240,0,4,,,,,,,,,3,,,50,0
178560,note_on,0,0,3,,,,,,,,,2,,,53,49
178560,note_on,0,0,3,,,,,,,,,2,,,53,0
178560,note_on,240,0,3,,,,,,,,,2,,,56,0
178560,note_on,0,0,4,,,,,,,,,3,,,50,62
178560,note_on,240,0,2,,,,,,,,,1,,,62,0
178560,note_on,0,0,2,,,,,,,,,1,,,56,75
178560,note_on,60,0,1,,,,,,,,,0,,,65,0
178620,note_on,60,0,1,,,,,,,,,0,,,65,0
178620,note_on,0,0,1,,,,,,,,,0,,,74,62
178680,note_on,60,0,1,,,,,,,,,0,,,74,0
178680,note_on,0,0,1,,,,,,,,,0,,,68,62
178740,control_change,0,0,1,,,,,,,,,0,64,0,,
178740,note_on,0,0,1,,,,,,,,,0,,,65,62
178740,note_on,60,0,1,,,,,,,,,0,,,68,0
178800,note_on,0,0,4,,,,,,,,,3,,,50,62
178800,control_change,0,0,1,,,,,,,,,0,64,127,,
178800,note_on,0,0,1,,,,,,,,,0,,,65,62
178800,control_change,0,0,3,,,,,,,,,2,64,0,,
178800,note_on,60,0,1,,,,,,,,,0,,,65,0
178800,note_on,0,0,4,,,,,,,,,3,,,42,62
178800,control_change,0,0,2,,,,,,,,,1,64,0,,
178800,note_on,0,0,4,,,,,,,,,3,,,42,0
178800,note_on,240,0,4,,,,,,,,,3,,,50,0
178800,note_on,0,0,2,,,,,,,,,1,,,59,75
178800,note_on,240,0,3,,,,,,,,,2,,,53,0
178800,note_on,0,0,3,,,,,,,,,2,,,53,49
178800,note_on,240,0,2,,,,,,,,,1,,,56,0
178800,control_change,0,0,4,,,,,,,,,3,64,0,,
178800,note_on,0,0,3,,,,,,,,,2,,,56,49
178860,note_on,60,0,1,,,,,,,,,0,,,65,0
178860,note_on,0,0,1,,,,,,,,,0,,,74,62
178920,note_on,60,0,1,,,,,,,,,0,,,74,0
178920,note_on,0,0,1,,,,,,,,,0,,,68,62
178980,control_change,0,0,1,,,,,,,,,0,64,0,,
178980,note_on,0,0,1,,,,,,,,,0,,,65,62
178980,note_on,60,0,1,,,,,,,,,0,,,68,0
179040,note_on,240,0,2,,,,,,,,,1,,,59,0
179040,note_on,0,0,4,,,,,,,,,3,,,42,0
179040,note_on,0,0,4,,,,,,,,,3,,,42,62
179040,note_on,0,0,4,,,,,,,,,3,,,49,62
179040,note_on,0,0,3,,,,,,,,,2,,,57,49
179040,note_on,0,0,3,,,,,,,,,2,,,54,49
179040,note_on,240,0,4,,,,,,,,,3,,,50,0
179040,note_on,0,0,3,,,,,,,,,2,,,53,0
179040,note_on,60,0,1,,,,,,,,,0,,,65,0
179040,control_change,0,0,1,,,,,,,,,0,64,127,,
179040,note_on,0,0,1,,,,,,,,,0,,,66,62
179040,note_on,0,0,2,,,,,,,,,1,,,61,75
179040,note_on,240,0,3,,,,,,,,,2,,,56,0
179100,note_on,60,0,1,,,,,,,,,0,,,66,0
179100,note_on,0,0,1,,,,,,,,,0,,,68,62
179160,note_on,60,0,1,,,,,,,,,0,,,68,0
179160,note_on,0,0,1,,,,,,,,,0,,,66,62
179220,note_on,60,0,1,,,,,,,,,0,,,66,0
179220,note_on,0,0,1,,,,,,,,,0,,,65,62
179280,note_on,60,0,1,,,,,,,,,0,,,65,0
179280,note_on,0,0,1,,,,,,,,,0,,,66,62
179327,note_on,0,0,1,,,,,,,,,0,,,69,62
179327,note_on,47,0,1,,,,,,,,,0,,,66,0
179376,note_on,0,0,1,,,,,,,,,0,,,73,62
179376,note_on,49,0,1,,,,,,,,,0,,,69,0
179400,note_on,360,0,2,,,,,,,,,1,,,61,0
179400,note_on,0,0,2,,,,,,,,,1,,,63,75
179423,note_on,0,0,1,,,,,,,,,0,,,81,62
179423,note_on,47,0,1,,,,,,,,,0,,,73,0
179460,note_on,60,0,2,,,,,,,,,1,,,63,0
179460,note_on,0,0,2,,,,,,,,,1,,,65,75
179472,note_on,0,0,1,,,,,,,,,0,,,80,62
179472,note_on,49,0,1,,,,,,,,,0,,,81,0
179520,control_change,0,0,1,,,,,,,,,0,64,0,,
179520,note_on,0,0,1,,,,,,,,,0,,,78,62
179520,note_on,0,0,2,,,,,,,,,1,,,66,75
179520,note_on,60,0,2,,,,,,,,,1,,,65,0
179520,note_on,48,0,1,,,,,,,,,0,,,80,0
179535,note_on,15,0,1,,,,,,,,,0,,,78,0
179640,note_on,600,0,3,,,,,,,,,2,,,57,0
179640,note_on,0,0,3,,,,,,,,,2,,,54,0
179640,note_on,105,0,1,,,,,,,,,0,,,69,62
179640,note_on,120,0,2,,,,,,,,,1,,,66,0
179640,note_on,600,0,4,,,,,,,,,3,,,49,0
179640,note_on,0,0,4,,,,,,,,,3,,,42,0
179655,note_on,15,0,1,,,,,,,,,0,,,69,0
179760,note_on,105,0,1,,,,,,,,,0,,,71,62
179880,note_on,120,0,1,,,,,,,,,0,,,71,0
179880,note_on,0,0,1,,,,,,,,,0,,,73,62
180000,note_on,360,0,3,,,,,,,,,2,,,52,49
180000,note_on,0,0,1,,,,,,,,,0,,,73,62
180000,note_on,120,0,1,,,,,,,,,0,,,73,0
180000,note_on,360,0,4,,,,,,,,,3,,,40,62
180000,control_change,0,0,1,,,,,,,,,0,64,127,,
180120,note_on,0,0,1,,,,,,,,,0,,,74,62
180120,note_on,120,0,1,,,,,,,,,0,,,73,0
180240,note_on,0,0,3,,,,,,,,,2,,,64,75
180240,note_on,0,0,4,,,,,,,,,3,,,52,88
180240,note_on,0,0,3,,,,,,,,,2,,,62,75
180240,note_on,240,0,3,,,,,,,,,2,,,52,0
180240,note_on,600,0,2,,,,,,,,,1,,,71,101
180240,note_on,240,0,4,,,,,,,,,3,,,40,0
180240,note_on,120,0,1,,,,,,,,,0,,,74,0
180240,note_on,0,0,1,,,,,,,,,0,,,83,88
180420,note_on,0,0,1,,,,,,,,,0,,,81,62
180420,note_on,180,0,1,,,,,,,,,0,,,83,0
180560,note_on,140,0,1,,,,,,,,,0,,,81,0
180560,note_on,0,0,1,,,,,,,,,0,,,80,62
180639,note_on,0,0,1,,,,,,,,,0,,,78,62
180639,note_on,79,0,1,,,,,,,,,0,,,80,0
180660,note_on,0,0,2,,,,,,,,,1,,,69,62
180660,note_on,420,0,2,,,,,,,,,1,,,71,0
180720,note_on,0,0,3,,,,,,,,,2,,,62,49
180720,note_on,480,0,4,,,,,,,,,3,,,52,0
180720,note_on,0,0,4,,,,,,,,,3,,,52,62
180720,note_on,0,0,1,,,,,,,,,0,,,78,62
180720,note_on,81,0,1,,,,,,,,,0,,,78,0
180720,note_on,0,0,2,,,,,,,,,1,,,69,62
180720,note_on,0,0,3,,,,,,,,,2,,,62,0
180720,note_on,480,0,3,,,,,,,,,2,,,64,0
180720,note_on,60,0,2,,,,,,,,,1,,,69,0
180720,note_on,0,0,3,,,,,,,,,2,,,64,49
180800,note_on,80,0,1,,,,,,,,,0,,,78,0
180800,note_on,80,0,2,,,,,,,,,1,,,69,0
180800,note_on,0,0,1,,,,,,,,,0,,,76,62
180800,note_on,0,0,2,,,,,,,,,1,,,68,62
180879,note_on,0,0,2,,,,,,,,,1,,,71,62
180879,note_on,0,0,1,,,,,,,,,0,,,74,62
180879,note_on,79,0,2,,,,,,,,,1,,,68,0
180879,note_on,79,0,1,,,,,,,,,0,,,76,0
180960,note_on,81,0,1,,,,,,,,,0,,,74,0
180960,note_on,240,0,4,,,,,,,,,3,,,52,0
180960,note_on,0,0,4,,,,,,,,,3,,,40,62
180960,note_on,81,0,2,,,,,,,,,1,,,71,0
180960,note_on,0,0,1,,,,,,,,,0,,,75,62
180960,note_on,0,0,3,,,,,,,,,2,,,52,49
180960,note_on,0,0,3,,,,,,,,,2,,,62,0
180960,note_on,240,0,3,,,,,,,,,2,,,64,0
180960,control_change,0,0,1,,,,,,,,,0,64,127,,
181080,note_on,0,0,1,,,,,,,,,0,,,76,62
181080,note_on,120,0,1,,,,,,,,,0,,,75,0
181200,note_on,0,0,1,,,,,,,,,0,,,85,88
181200,note_on,120,0,1,,,,,,,,,0,,,76,0
181200,note_on,0,0,4,,,,,,,,,3,,,52,88
181200,note_on,240,0,2,,,,,,,,,1,,,73,88
181200,note_on,240,0,3,,,,,,,,,2,,,52,0
181200,note_on,0,0,3,,,,,,,,,2,,,64,75
181200,note_on,240,0,4,,,,,,,,,3,,,40,0
181380,note_on,180,0,1,,,,,,,,,0,,,85,0
181380,control_change,0,0,1,,,,,,,,,0,64,0,,
181380,note_on,0,0,1,,,,,,,,,0,,,83,62
181440,note_on,60,0,1,,,,,,,,,0,,,83,0
181440,note_on,0,0,1,,,,,,,,,0,,,83,62
181520,note_on,0,0,1,,,,,,,,,0,,,81,62
181520,note_on,80,0,1,,,,,,,,,0,,,83,0
181599,note_on,0,0,1,,,,,,,,,0,,,80,62
181599,note_on,79,0,1,,,,,,,,,0,,,81,0
181620,note_on,0,0,3,,,,,,,,,2,,,62,49
181620,note_on,0,0,2,,,,,,,,,1,,,71,62
181620,note_on,420,0,2,,,,,,,,,1,,,73,0
181620,note_on,420,0,3,,,,,,,,,2,,,64,0
181680,note_on,0,0,2,,,,,,,,,1,,,71,62
181680,note_on,60,0,2,,,,,,,,,1,,,71,0
181680,note_on,0,0,4,,,,,,,,,3,,,52,62
181680,note_on,0,0,1,,,,,,,,,0,,,81,62
181680,note_on,81,0,1,,,,,,,,,0,,,80,0
181680,note_on,60,0,3,,,,,,,,,2,,,62,0
181680,note_on,0,0,3,,,,,,,,,2,,,62,49
181680,note_on,0,0,3,,,,,,,,,2,,,64,49
181680,note_on,480,0,4,,,,,,,,,3,,,52,0
181760,note_on,80,0,1,,,,,,,,,0,,,81,0
181760,note_on,0,0,1,,,,,,,,,0,,,76,62
181800,note_on,120,0,2,,,,,,,,,1,,,71,0
181800,note_on,0,0,2,,,,,,,,,1,,,69,62
181800,note_on,120,0,3,,,,,,,,,2,,,64,0
181800,note_on,0,0,3,,,,,,,,,2,,,62,0
181800,note_on,0,0,3,,,,,,,,,2,,,61,49
181839,note_on,79,0,1,,,,,,,,,0,,,76,0
181839,note_on,0,0,1,,,,,,,,,0,,,73,62
181920,note_on,120,0,2,,,,,,,,,1,,,69,0
181920,note_on,240,0,4,,,,,,,,,3,,,52,0
181920,note_on,0,0,4,,,,,,,,,3,,,40,49
181920,note_on,120,0,3,,,,,,,,,2,,,61,0
181920,note_on,81,0,1,,,,,,,,,0,,,73,0
181920,control_change,0,0,1,,,,,,,,,0,64,127,,
181920,note_on,0,0,1,,,,,,,,,0,,,76,62
182000,note_on,0,0,1,,,,,,,,,0,,,74,62
182000,note_on,80,0,1,,,,,,,,,0,,,76,0
182079,note_on,79,0,1,,,,,,,,,0,,,74,0
182079,note_on,0,0,1,,,,,,,,,0,,,73,62
182160,note_on,240,0,2,,,,,,,,,1,,,71,62
182160,note_on,0,0,4,,,,,,,,,3,,,52,75
182160,note_on,240,0,3,,,,,,,,,2,,,62,75
182160,note_on,0,0,3,,,,,,,,,2,,,64,75
182160,note_on,240,0,4,,,,,,,,,3,,,40,0
182160,note_on,0,0,1,,,,,,,,,0,,,74,62
182160,note_on,81,0,1,,,,,,,,,0,,,73,0
182240,note_on,0,0,1,,,,,,,,,0,,,83,62
182240,note_on,80,0,1,,,,,,,,,0,,,74,0
182360,note_on,0,0,1,,,,,,,,,0,,,81,62
182360,note_on,120,0,1,,,,,,,,,0,,,83,0
182360,control_change,0,0,1,,,,,,,,,0,64,0,,
182400,note_on,40,0,1,,,,,,,,,0,,,81,0
182400,note_on,0,0,1,,,,,,,,,0,,,81,62
182480,note_on,0,0,1,,,,,,,,,0,,,80,62
182480,note_on,80,0,1,,,,,,,,,0,,,81,0
182559,note_on,0,0,1,,,,,,,,,0,,,78,62
182559,note_on,79,0,1,,,,,,,,,0,,,80,0
182580,note_on,420,0,2,,,,,,,,,1,,,71,0
182580,note_on,0,0,2,,,,,,,,,1,,,69,62
182640,note_on,0,0,3,,,,,,,,,2,,,62,0
182640,note_on,480,0,3,,,,,,,,,2,,,64,0
182640,note_on,0,0,3,,,,,,,,,2,,,64,49
182640,note_on,0,0,3,,,,,,,,,2,,,62,49
182640,note_on,0,0,4,,,,,,,,,3,,,52,49
182640,note_on,480,0,4,,,,,,,,,3,,,52,0
182640,note_on,0,0,2,,,,,,,,,1,,,69,62
182640,note_on,60,0,2,,,,,,,,,1,,,69,0
182640,note_on,0,0,1,,,,,,,,,0,,,78,62
182640,note_on,81,0,1,,,,,,,,,0,,,78,0
182720,note_on,80,0,2,,,,,,,,,1,,,69,0
182720,note_on,0,0,1,,,,,,,,,0,,,76,62
182720,note_on,80,0,1,,,,,,,,,0,,,78,0
182720,note_on,0,0,2,,,,,,,,,1,,,68,62
182799,note_on,79,0,2,,,,,,,,,1,,,68,0
182799,note_on,0,0,2,,,,,,,,,1,,,71,62
182799,note_on,0,0,1,,,,,,,,,0,,,75,62
182799,note_on,79,0,1,,,,,,,,,0,,,76,0
182880,note_on,0,0,3,,,,,,,,,2,,,52,49
182880,note_on,81,0,1,,,,,,,,,0,,,75,0
182880,control_change,0,0,1,,,,,,,,,0,64,127,,
182880,note_on,0,0,1,,,,,,,,,0,,,78,62
182880,note_on,0,0,4,,,,,,,,,3,,,40,49
182880,note_on,81,0,2,,,,,,,,,1,,,71,0
182880,note_on,240,0,4,,,,,,,,,3,,,52,0
182880,note_on,240,0,3,,,,,,,,,2,,,64,0
182880,note_on,0,0,3,,,,,,,,,2,,,62,0
182960,note_on,80,0,1,,,,,,,,,0,,,78,0
182960,note_on,0,0,1,,,,,,,,,0,,,76,62
183039,note_on,79,0,1,,,,,,,,,0,,,76,0
183039,note_on,0,0,1,,,,,,,,,0,,,75,62
183120,note_on,240,0,4,,,,,,,,,3,,,40,0
183120,note_on,0,0,3,,,,,,,,,2,,,64,75
183120,note_on,0,0,4,,,,,,,,,3,,,52,75
183120,note_on,240,0,2,,,,,,,,,1,,,73,62
183120,note_on,0,0,1,,,,,,,,,0,,,76,62
183120,note_on,81,0,1,,,,,,,,,0,,,75,0
183120,note_on,240,0,3,,,,,,,,,2,,,52,0
183200,note_on,0,0,1,,,,,,,,,0,,,85,62
183200,note_on,80,0,1,,,,,,,,,0,,,76,0
183320,note_on,0,0,1,,,,,,,,,0,,,83,62
183320,control_change,0,0,1,,,,,,,,,0,64,0,,
183320,note_on,120,0,1,,,,,,,,,0,,,85,0
183360,note_on,40,0,1,,,,,,,,,0,,,83,0
183360,note_on,0,0,1,,,,,,,,,0,,,83,62
183440,note_on,0,0,1,,,,,,,,,0,,,81,62
183440,note_on,80,0,1,,,,,,,,,0,,,83,0
183519,note_on,0,0,1,,,,,,,,,0,,,80,62
183519,note_on,79,0,1,,,,,,,,,0,,,81,0
183540,note_on,0,0,2,,,,,,,,,1,,,71,62
183540,note_on,0,0,3,,,,,,,,,2,,,62,49
183540,note_on,420,0,3,,,,,,,,,2,,,64,0
183540,note_on,420,0,2,,,,,,,,,1,,,73,0
183600,note_on,0,0,4,,,,,,,,,3,,,52,49
183600,note_on,81,0,1,,,,,,,,,0,,,80,0
183600,note_on,0,0,1,,,,,,,,,0,,,81,62
183600,note_on,480,0,4,,,,,,,,,3,,,52,0
183600,note_on,0,0,2,,,,,,,,,1,,,71,62
183600,note_on,60,0,2,,,,,,,,,1,,,71,0
183600,note_on,0,0,3,,,,,,,,,2,,,64,49
183600,note_on,0,0,3,,,,,,,,,2,,,62,49
183600,note_on,60,0,3,,,,,,,,,2,,,62,0
183680,note_on,80,0,1,,,,,,,,,0,,,81,0
183680,note_on,0,0,1,,,,,,,,,0,,,76,62
183720,note_on,0,0,2,,,,,,,,,1,,,69,62
183720,note_on,120,0,2,,,,,,,,,1,,,71,0
183720,note_on,0,0,3,,,,,,,,,2,,,61,49
183720,note_on,0,0,3,,,,,,,,,2,,,62,0
183720,note_on,120,0,3,,,,,,,,,2,,,64,0
183759,note_on,79,0,1,,,,,,,,,0,,,76,0
183759,note_on,0,0,1,,,,,,,,,0,,,73,62
183840,note_on,120,0,2,,,,,,,,,1,,,69,0
183840,note_on,240,0,4,,,,,,,,,3,,,52,0
183840,note_on,0,0,4,,,,,,,,,3,,,39,62
183840,note_on,81,0,1,,,,,,,,,0,,,73,0
183840,note_on,120,0,3,,,,,,,,,2,,,61,0
183840,note_on,0,0,1,,,,,,,,,0,,,70,75
183920,note_on,80,0,1,,,,,,,,,0,,,70,0
183920,note_on,0,0,1,,,,,,,,,0,,,71,75
183999,note_on,79,0,1,,,,,,,,,0,,,71,0
183999,note_on,0,0,1,,,,,,,,,0,,,78,75
184080,note_on,0,0,1,,,,,,,,,0,,,81,101
184080,note_on,240,0,3,,,,,,,,,2,,,59,62
184080,note_on,240,0,2,,,,,,,,,1,,,66,101
184080,note_on,240,0,4,,,,,,,,,3,,,39,0
184080,note_on,0,0,4,,,,,,,,,3,,,51,62
184080,note_on,81,0,1,,,,,,,,,0,,,78,0
184160,note_on,0,0,4,,,,,,,,,3,,,54,62
184160,note_on,80,0,4,,,,,,,,,3,,,51,0
184239,note_on,0,0,4,,,,,,,,,3,,,52,62
184239,note_on,79,0,4,,,,,,,,,3,,,54,0
184320,note_on,81,0,4,,,,,,,,,3,,,52,0
184320,note_on,0,0,4,,,,,,,,,3,,,51,62
184400,control_change,0,0,1,,,,,,,,,0,64,127,,
184400,note_on,0,0,1,,,,,,,,,0,,,80,75
184400,note_on,320,0,1,,,,,,,,,0,,,81,0
184500,note_on,100,0,1,,,,,,,,,0,,,80,0
184500,note_on,0,0,1,,,,,,,,,0,,,83,75
184560,note_on,480,0,2,,,,,,,,,1,,,66,0
184560,note_on,0,0,2,,,,,,,,,1,,,68,75
184620,note_on,120,0,1,,,,,,,,,0,,,83,0
184620,note_on,0,0,1,,,,,,,,,0,,,81,75
184680,note_on,120,0,2,,,,,,,,,1,,,68,0
184680,note_on,0,0,2,,,,,,,,,1,,,69,75
184700,note_on,80,0,1,,,,,,,,,0,,,81,0
184700,note_on,0,0,1,,,,,,,,,0,,,80,75
184800,control_change,0,0,1,,,,,,,,,0,64,0,,
184800,note_on,0,0,1,,,,,,,,,0,,,78,75
184800,note_on,100,0,1,,,,,,,,,0,,,80,0
184800,control_change,0,0,1,,,,,,,,,0,64,127,,
184800,note_on,0,0,1,,,,,,,,,0,,,76,75
184800,note_on,0,0,4,,,,,,,,,3,,,52,62
184800,note_on,0,0,2,,,,,,,,,1,,,69,75
184800,note_on,120,0,2,,,,,,,,,1,,,69,0
184800,note_on,480,0,4,,,,,,,,,3,,,51,0
184800,note_on,720,0,3,,,,,,,,,2,,,59,0
184800,note_on,0,0,3,,,,,,,,,2,,,61,62
184880,note_on,0,0,1,,,,,,,,,0,,,75,75
184880,note_on,80,0,1,,,,,,,,,0,,,76,0
184920,note_on,40,0,1,,,,,,,,,0,,,78,0
184959,note_on,0,0,1,,,,,,,,,0,,,78,75
184959,note_on,39,0,1,,,,,,,,,0,,,75,0
185040,note_on,0,0,1,,,,,,,,,0,,,76,75
185040,note_on,81,0,1,,,,,,,,,0,,,78,0
185040,note_on,240,0,4,,,,,,,,,3,,,52,0
185040,note_on,0,0,4,,,,,,,,,3,,,52,62
185040,control_change,0,0,3,,,,,,,,,2,64,127,,
185040,note_on,0,0,3,,,,,,,,,2,,,57,62
185040,note_on,0,0,3,,,,,,,,,2,,,61,62
185040,note_on,240,0,3,,,,,,,,,2,,,61,0
185120,note_on,80,0,1,,,,,,,,,0,,,76,0
185120,note_on,0,0,1,,,,,,,,,0,,,73,75
185199,note_on,0,0,1,,,,,,,,,0,,,74,75
185199,note_on,79,0,1,,,,,,,,,0,,,73,0
185220,note_on,180,0,3,,,,,,,,,2,,,61,0
185220,note_on,0,0,3,,,,,,,,,2,,,57,0
185220,note_on,0,0,3,,,,,,,,,2,,,59,62
185220,note_on,0,0,3,,,,,,,,,2,,,62,62
185280,note_on,0,0,1,,,,,,,,,0,,,76,75
185280,note_on,81,0,1,,,,,,,,,0,,,74,0
185280,note_on,0,0,3,,,,,,,,,2,,,61,62
185280,note_on,0,0,3,,,,,,,,,2,,,59,0
185280,note_on,60,0,3,,,,,,,,,2,,,62,0
185280,note_on,240,0,4,,,,,,,,,3,,,52,0
185280,note_on,0,0,3,,,,,,,,,2,,,64,62
185280,note_on,480,0,2,,,,,,,,,1,,,69,0
185360,note_on,80,0,1,,,,,,,,,0,,,76,0
185360,note_on,0,0,1,,,,,,,,,0,,,74,75
185439,note_on,79,0,1,,,,,,,,,0,,,74,0
185439,note_on,0,0,1,,,,,,,,,0,,,73,75
185520,note_on,0,0,3,,,,,,,,,2,,,62,62
185520,note_on,0,0,3,,,,,,,,,2,,,59,62
185520,note_on,0,0,3,,,,,,,,,2,,,61,0
185520,note_on,240,0,3,,,,,,,,,2,,,64,0
185520,note_on,0,0,1,,,,,,,,,0,,,74,75
185520,note_on,81,0,1,,,,,,,,,0,,,73,0
185520,note_on,240,0,2,,,,,,,,,1,,,64,75
185520,note_on,240,0,4,,,,,,,,,3,,,40,62
185600,note_on,0,0,1,,,,,,,,,0,,,73,75
185600,note_on,80,0,1,,,,,,,,,0,,,74,0
185640,control_change,0,0,3,,,,,,,,,2,64,0,,
185640,note_on,120,0,3,,,,,,,,,2,,,62,0
185640,note_on,0,0,3,,,,,,,,,2,,,59,0
185640,note_on,0,0,3,,,,,,,,,2,,,56,62
185640,note_on,0,0,3,,,,,,,,,2,,,59,62
185679,note_on,79,0,1,,,,,,,,,0,,,73,0
185679,control_change,0,0,1,,,,,,,,,0,64,0,,
185679,note_on,0,0,1,,,,,,,,,0,,,71,75
185760,note_on,240,0,4,,,,,,,,,3,,,40,0
185760,note_on,0,0,3,,,,,,,,,2,,,60,62
185760,note_on,0,0,3,,,,,,,,,2,,,56,62
185760,note_on,0,0,3,,,,,,,,,2,,,52,62
185760,note_on,0,0,3,,,,,,,,,2,,,56,0
185760,note_on,0,0,1,,,,,,,,,0,,,72,101
185760,note_on,120,0,3,,,,,,,,,2,,,59,0
185760,note_on,240,0,2,,,,,,,,,1,,,64,0
185760,note_on,81,0,1,,,,,,,,,0,,,71,0
185880,control_change,120,0,2,,,,,,,,,1,64,127,,
185880,note_on,0,0,2,,,,,,,,,1,,,64,75
185880,control_change,120,0,4,,,,,,,,,3,64,127,,
185880,note_on,0,0,4,,,,,,,,,3,,,40,62
186000,note_on,120,0,2,,,,,,,,,1,,,64,0
186000,note_on,120,0,4,,,,,,,,,3,,,40,0
186000,note_on,0,0,4,,,,,,,,,3,,,40,62
186000,note_on,0,0,2,,,,,,,,,1,,,64,75
186120,note_on,0,0,4,,,,,,,,,3,,,40,62
186120,note_on,120,0,2,,,,,,,,,1,,,64,0
186120,control_change,0,0,2,,,,,,,,,1,64,0,,
186120,note_on,0,0,2,,,,,,,,,1,,,64,75
186120,note_on,120,0,4,,,,,,,,,3,,,40,0
186120,control_change,0,0,4,,,,,,,,,3,64,0,,
186240,note_on,120,0,2,,,,,,,,,1,,,64,0
186240,note_on,0,0,2,,,,,,,,,1,,,64,75
186240,note_on,0,0,1,,,,,,,,,0,,,73,75
186240,note_on,480,0,1,,,,,,,,,0,,,72,0
186240,note_on,0,0,3,,,,,,,,,2,,,61,62
186240,note_on,120,0,4,,,,,,,,,3,,,40,0
186240,note_on,0,0,4,,,,,,,,,3,,,45,62
186240,note_on,0,0,3,,,,,,,,,2,,,56,0
186240,note_on,480,0,3,,,,,,,,,2,,,60,0
186240,note_on,0,0,3,,,,,,,,,2,,,57,62
186360,note_on,0,0,1,,,,,,,,,0,,,80,62
186360,note_on,120,0,1,,,,,,,,,0,,,73,0
186480,note_on,240,0,3,,,,,,,,,2,,,61,0
186480,note_on,0,0,1,,,,,,,,,0,,,81,62
186480,note_on,120,0,1,,,,,,,,,0,,,80,0
186480,note_on,240,0,2,,,,,,,,,1,,,64,0
186480,note_on,240,0,4,,,,,,,,,3,,,45,0
186480,note_on,0,0,3,,,,,,,,,2,,,52,0
186480,note_on,0,0,3,,,,,,,,,2,,,57,0
186600,note_on,0,0,1,,,,,,,,,0,,,83,62
186600,note_on,120,0,1,,,,,,,,,0,,,81,0
186720,note_on,0,0,4,,,,,,,,,3,,,54,49
186720,control_change,240,0,2,,,,,,,,,1,64,127,,
186720,note_on,0,0,2,,,,,,,,,1,,,66,75
186720,control_change,240,0,4,,,,,,,,,3,64,127,,
186720,note_on,0,0,3,,,,,,,,,2,,,57,49
186720,note_on,0,0,1,,,,,,,,,0,,,85,62
186720,control_change,240,0,3,,,,,,,,,2,64,127,,
186720,note_on,0,0,3,,,,,,,,,2,,,61,49
186720,note_on,120,0,1,,,,,,,,,0,,,83,0
186800,note_on,80,0,1,,,,,,,,,0,,,85,0
186800,note_on,0,0,1,,,,,,,,,0,,,85,62
186879,note_on,79,0,1,,,,,,,,,0,,,85,0
186879,note_on,0,0,1,,,,,,,,,0,,,85,62
186960,note_on,81,0,1,,,,,,,,,0,,,85,0
186960,note_on,0,0,1,,,,,,,,,0,,,85,62
186960,note_on,0,0,4,,,,,,,,,3,,,54,49
186960,note_on,240,0,3,,,,,,,,,2,,,61,0
186960,note_on,0,0,2,,,,,,,,,1,,,69,75
186960,note_on,240,0,2,,,,,,,,,1,,,66,0
186960,note_on,0,0,3,,,,,,,,,2,,,57,0
186960,note_on,0,0,3,,,,,,,,,2,,,61,49
186960,note_on,240,0,4,,,,,,,,,3,,,54,0
187040,note_on,0,0,1,,,,,,,,,0,,,85,62
187040,note_on,80,0,1,,,,,,,,,0,,,85,0
187119,note_on,79,0,1,,,,,,,,,0,,,85,0
187119,note_on,0,0,1,,,,,,,,,0,,,85,62
187200,note_on,0,0,1,,,,,,,,,0,,,85,62
187200,note_on,0,0,4,,,,,,,,,3,,,54,49
187200,note_on,240,0,4,,,,,,,,,3,,,54,0
187200,note_on,0,0,3,,,,,,,,,2,,,61,49
187200,note_on,0,0,3,,,,,,,,,2,,,59,49
187200,note_on,240,0,3,,,,,,,,,2,,,61,0
187200,note_on,81,0,1,,,,,,,,,0,,,85,0
187200,note_on,240,0,2,,,,,,,,,1,,,69,0
187200,note_on,0,0,2,,,,,,,,,1,,,68,75
187280,note_on,0,0,1,,,,,,,,,0,,,85,62
187280,note_on,80,0,1,,,,,,,,,0,,,85,0
187359,note_on,0,0,1,,,,,,,,,0,,,85,62
187359,note_on,79,0,1,,,,,,,,,0,,,85,0
187440,note_on,240,0,4,,,,,,,,,3,,,54,0
187440,note_on,0,0,4,,,,,,,,,3,,,54,49
187440,control_change,0,0,4,,,,,,,,,3,64,0,,
187440,control_change,0,0,3,,,,,,,,,2,64,0,,
187440,note_on,0,0,3,,,,,,,,,2,,,61,49
187440,control_change,0,0,2,,,,,,,,,1,64,0,,
187440,note_on,0,0,2,,,,,,,,,1,,,65,75
187440,note_on,0,0,1,,,,,,,,,0,,,85,62
187440,note_on,240,0,2,,,,,,,,,1,,,68,0
187440,note_on,0,0,3,,,,,,,,,2,,,56,49
187440,note_on,0,0,3,,,,,,,,,2,,,59,0
187440,note_on,240,0,3,,,,,,,,,2,,,61,0
187440,note_on,81,0,1,,,,,,,,,0,,,85,0
187520,note_on,80,0,1,,,,,,,,,0,,,85,0
187520,note_on,0,0,1,,,,,,,,,0,,,85,62
187599,note_on,0,0,1,,,,,,,,,0,,,85,62
187599,note_on,79,0,1,,,,,,,,,0,,,85,0
187680,note_on,240,0,4,,,,,,,,,3,,,54,0
187680,note_on,240,0,2,,,,,,,,,1,,,65,0
187680,note_on,0,0,2,,,,,,,,,1,,,66,75
187680,note_on,0,0,4,,,,,,,,,3,,,54,49
187680,note_on,0,0,3,,,,,,,,,2,,,57,49
187680,note_on,0,0,3,,,,,,,,,2,,,61,49
187680,note_on,240,0,3,,,,,,,,,2,,,61,0
187680,note_on,0,0,1,,,,,,,,,0,,,85,62
187680,note_on,81,0,1,,,,,,,,,0,,,85,0
187680,note_on,0,0,3,,,,,,,,,2,,,56,0
187695,note_on,15,0,1,,,,,,,,,0,,,85,0
187800,note_on,105,0,1,,,,,,,,,0,,,87,62
187860,note_on,0,0,1,,,,,,,,,0,,,89,62
187860,note_on,60,0,1,,,,,,,,,0,,,87,0
187920,note_on,60,0,1,,,,,,,,,0,,,89,0
187920,note_on,0,0,1,,,,,,,,,0,,,90,62
187980,note_on,60,0,1,,,,,,,,,0,,,90,0
187980,note_on,0,0,1,,,,,,,,,0,,,92,62
188040,note_on,0,0,3,,,,,,,,,2,,,64,49
188040,note_on,0,0,3,,,,,,,,,2,,,57,0
188040,note_on,360,0,3,,,,,,,,,2,,,61,0
188040,note_on,60,0,1,,,,,,,,,0,,,92,0
188040,note_on,0,0,1,,,,,,,,,0,,,93,62
188100,note_on,0,0,3,,,,,,,,,2,,,62,49
188100,note_on,60,0,3,,,,,,,,,2,,,64,0
188100,note_on,60,0,1,,,,,,,,,0,,,93,0
188100,note_on,0,0,1,,,,,,,,,0,,,95,62
188160,note_on,60,0,1,,,,,,,,,0,,,95,0
188160,note_on,0,0,1,,,,,,,,,0,,,97,62
188160,note_on,60,0,3,,,,,,,,,2,,,62,0
188160,note_on,480,0,4,,,,,,,,,3,,,54,0
188160,note_on,0,0,3,,,,,,,,,2,,,61,49
188240,note_on,80,0,1,,,,,,,,,0,,,97,0
188240,note_on,0,0,1,,,,,,,,,0,,,85,62
188255,note_on,15,0,1,,,,,,,,,0,,,85,0
188319,note_on,64,0,1,,,,,,,,,0,,,83,62
188334,note_on,15,0,1,,,,,,,,,0,,,83,0
188400,note_on,240,0,3,,,,,,,,,2,,,61,0
188400,note_on,720,0,2,,,,,,,,,1,,,66,0
188400,note_on,66,0,1,,,,,,,,,0,,,81,62
188415,note_on,15,0,1,,,,,,,,,0,,,81,0
188480,note_on,65,0,1,,,,,,,,,0,,,80,62
188495,note_on,15,0,1,,,,,,,,,0,,,80,0
188559,note_on,64,0,1,,,,,,,,,0,,,78,62
188574,note_on,15,0,1,,,,,,,,,0,,,78,0
188640,note_on,0,0,4,,,,,,,,,3,,,54,49
188640,note_on,0,0,2,,,,,,,,,1,,,71,75
188640,control_change,240,0,3,,,,,,,,,2,64,127,,
188640,note_on,0,0,3,,,,,,,,,2,,,62,49
188640,note_on,0,0,1,,,,,,,,,0,,,77,62
188640,note_on,0,0,3,,,,,,,,,2,,,68,49
188640,control_change,240,0,2,,,,,,,,,1,64,127,,
188640,control_change,66,0,1,,,,,,,,,0,64,127,,
188640,control_change,480,0,4,,,,,,,,,3,64,127,,
188640,note_on,0,0,3,,,,,,,,,2,,,65,49
188700,note_on,60,0,1,,,,,,,,,0,,,77,0
188700,note_on,0,0,1,,,,,,,,,0,,,86,62
188760,note_on,0,0,1,,,,,,,,,0,,,80,62
188760,note_on,60,0,1,,,,,,,,,0,,,86,0
188820,control_change,0,0,1,,,,,,,,,0,64,0,,
188820,note_on,0,0,1,,,,,,,,,0,,,77,62
188820,note_on,60,0,1,,,,,,,,,0,,,80,0
188880,note_on,240,0,2,,,,,,,,,1,,,71,0
188880,note_on,0,0,2,,,,,,,,,1,,,74,75
188880,note_on,0,0,3,,,,,,,,,2,,,62,0
188880,note_on,240,0,3,,,,,,,,,2,,,68,0
188880,note_on,0,0,3,,,,,,,,,2,,,65,0
188880,note_on,0,0,3,,,,,,,,,2,,,62,49
188880,note_on,0,0,3,,,,,,,,,2,,,68,49
188880,note_on,0,0,4,,,,,,,,,3,,,54,49
188880,note_on,240,0,4,,,,,,,,,3,,,54,0
188880,note_on,0,0,3,,,,,,,,,2,,,65,49
188880,note_on,60,0,1,,,,,,,,,0,,,77,0
188880,control_change,0,0,1,,,,,,,,,0,64,127,,
188880,note_on,0,0,1,,,,,,,,,0,,,77,62
188940,note_on,60,0,1,,,,,,,,,0,,,77,0
188940,note_on,0,0,1,,,,,,,,,0,,,86,62
189000,note_on,60,0,1,,,,,,,,,0,,,86,0
189000,note_on,0,0,1,,,,,,,,,0,,,80,62
189060,note_on,0,0,1,,,,,,,,,0,,,77,62
189060,note_on,60,0,1,,,,,,,,,0,,,80,0
189060,control_change,0,0,1,,,,,,,,,0,64,0,,
189120,note_on,0,0,3,,,,,,,,,2,,,65,49
189120,note_on,0,0,2,,,,,,,,,1,,,68,75
189120,note_on,0,0,3,,,,,,,,,2,,,62,49
189120,note_on,0,0,3,,,,,,,,,2,,,62,0
189120,note_on,60,0,1,,,,,,,,,0,,,77,0
189120,control_change,0,0,1,,,,,,,,,0,64,127,,
189120,note_on,0,0,1,,,,,,,,,0,,,77,62
189120,note_on,240,0,2,,,,,,,,,1,,,74,0
189120,note_on,0,0,4,,,,,,,,,3,,,54,49
189120,note_on,240,0,4,,,,,,,,,3,,,54,0
189120,note_on,0,0,3,,,,,,,,,2,,,65,0
189120,note_on,240,0,3,,,,,,,,,2,,,68,0
189180,note_on,60,0,1,,,,,,,,,0,,,77,0
189180,note_on,0,0,1,,,,,,,,,0,,,86,62
189240,note_on,60,0,1,,,,,,,,,0,,,86,0
189240,note_on,0,0,1,,,,,,,,,0,,,80,62
189300,control_change,0,0,1,,,,,,,,,0,64,0,,
189300,note_on,0,0,1,,,,,,,,,0,,,77,62
189300,note_on,60,0,1,,,,,,,,,0,,,80,0
189360,note_on,0,0,4,,,,,,,,,3,,,54,49
189360,control_change,0,0,1,,,,,,,,,0,64,127,,
189360,note_on,0,0,3,,,,,,,,,2,,,62,0
189360,control_change,0,0,4,,,,,,,,,3,64,0,,
189360,note_on,240,0,4,,,,,,,,,3,,,54,0
189360,note_on,0,0,3,,,,,,,,,2,,,68,49
189360,note_on,0,0,3,,,,,,,,,2,,,65,49
189360,note_on,0,0,3,,,,,,,,,2,,,62,49
189360,control_change,0,0,3,,,,,,,,,2,64,0,,
189360,note_on,0,0,1,,,,,,,,,0,,,77,62
189360,note_on,240,0,3,,,,,,,,,2,,,65,0
189360,note_on,240,0,2,,,,,,,,,1,,,68,0
189360,control_change,0,0,2,,,,,,,,,1,64,0,,
189360,note_on,0,0,2,,,,,,,,,1,,,71,75
189360,note_on,60,0,1,,,,,,,,,0,,,77,0
189420,note_on,60,0,1,,,,,,,,,0,,,77,0
189420,note_on,0,0,1,,,,,,,,,0,,,86,62
189480,note_on,60,0,1,,,,,,,,,0,,,86,0
189480,note_on,0,0,1,,,,,,,,,0,,,80,62
189540,note_on,0,0,1,,,,,,,,,0,,,77,62
189540,control_change,0,0,1,,,,,,,,,0,64,0,,
189540,note_on,60,0,1,,,,,,,,,0,,,80,0
189600,note_on,0,0,2,,,,,,,,,1,,,73,75
189600,note_on,0,0,4,,,,,,,,,3,,,54,49
189600,note_on,0,0,3,,,,,,,,,2,,,69,49
189600,note_on,0,0,3,,,,,,,,,2,,,66,49
189600,note_on,0,0,3,,,,,,,,,2,,,61,49
189600,note_on,0,0,3,,,,,,,,,2,,,65,0
189600,note_on,0,0,3,,,,,,,,,2,,,62,0
189600,note_on,240,0,4,,,,,,,,,3,,,54,0
189600,note_on,60,0,1,,,,,,,,,0,,,77,0
189600,control_change,0,0,1,,,,,,,,,0,64,127,,
189600,note_on,0,0,1,,,,,,,,,0,,,78,62
189600,note_on,240,0,3,,,,,,,,,2,,,68,0
189600,note_on,240,0,2,,,,,,,,,1,,,71,0
189660,note_on,60,0,1,,,,,,,,,0,,,78,0
189660,note_on,0,0,1,,,,,,,,,0,,,80,62
189720,note_on,60,0,1,,,,,,,,,0,,,80,0
189720,note_on,0,0,1,,,,,,,,,0,,,78,62
189780,note_on,60,0,1,,,,,,,,,0,,,78,0
189780,note_on,0,0,1,,,,,,,,,0,,,77,62
189840,note_on,0,0,1,,,,,,,,,0,,,78,62
189840,note_on,60,0,1,,,,,,,,,0,,,77,0
189887,note_on,47,0,1,,,,,,,,,0,,,78,0
189887,note_on,0,0,1,,,,,,,,,0,,,81,62
189936,note_on,0,0,1,,,,,,,,,0,,,85,62
189936,note_on,49,0,1,,,,,,,,,0,,,81,0
189960,note_on,360,0,2,,,,,,,,,1,,,73,0
189960,note_on,0,0,2,,,,,,,,,1,,,75,75
189983,note_on,0,0,1,,,,,,,,,0,,,93,88
189983,note_on,47,0,1,,,,,,,,,0,,,85,0
190020,note_on,0,0,2,,,,,,,,,1,,,77,75
190020,note_on,60,0,2,,,,,,,,,1,,,75,0
190032,note_on,49,0,1,,,,,,,,,0,,,93,0
190032,note_on,0,0,1,,,,,,,,,0,,,92,88
190080,control_change,0,0,1,,,,,,,,,0,64,0,,
190080,note_on,60,0,2,,,,,,,,,1,,,77,0
190080,note_on,48,0,1,,,,,,,,,0,,,92,0
190080,note_on,0,0,1,,,,,,,,,0,,,90,88
190080,note_on,0,0,2,,,,,,,,,1,,,78,75
190095,note_on,15,0,1,,,,,,,,,0,,,90,0
190200,note_on,0,0,1,,,,,,,,,0,,,81,62
190200,control_change,105,0,1,,,,,,,,,0,64,127,,
190200,note_on,120,0,2,,,,,,,,,1,,,78,0
190200,note_on,0,0,2,,,,,,,,,1,,,69,75
190200,control_change,0,0,2,,,,,,,,,1,64,127,,
190215,note_on,15,0,2,,,,,,,,,1,,,69,0
190215,note_on,15,0,1,,,,,,,,,0,,,81,0
190320,note_on,720,0,3,,,,,,,,,2,,,69,0
190320,note_on,0,0,3,,,,,,,,,2,,,66,0
190320,note_on,0,0,3,,,,,,,,,2,,,61,0
190320,note_on,720,0,4,,,,,,,,,3,,,54,0
190320,note_on,105,0,2,,,,,,,,,1,,,71,75
190320,note_on,105,0,1,,,,,,,,,0,,,83,62
190440,note_on,120,0,1,,,,,,,,,0,,,83,0
190440,note_on,0,0,2,,,,,,,,,1,,,73,75
190440,control_change,0,0,2,,,,,,,,,1,64,0,,
190440,note_on,120,0,2,,,,,,,,,1,,,71,0
190440,control_change,0,0,1,,,,,,,,,0,64,0,,
190440,note_on,0,0,1,,,,,,,,,0,,,85,62
190560,note_on,120,0,2,,,,,,,,,1,,,73,0
190560,note_on,0,0,2,,,,,,,,,1,,,73,75
190560,control_change,0,0,2,,,,,,,,,1,64,127,,
190560,note_on,240,0,4,,,,,,,,,3,,,40,62
190560,control_change,0,0,1,,,,,,,,,0,64,127,,
190560,note_on,120,0,1,,,,,,,,,0,,,85,0
190560,note_on,0,0,1,,,,,,,,,0,,,85,62
190680,note_on,120,0,1,,,,,,,,,0,,,85,0
190680,note_on,0,0,1,,,,,,,,,0,,,86,62
190680,note_on,120,0,2,,,,,,,,,1,,,73,0
190680,note_on,0,0,2,,,,,,,,,1,,,74,75
190800,note_on,0,0,4,,,,,,,,,3,,,64,88
190800,note_on,240,0,4,,,,,,,,,3,,,40,0
190800,note_on,0,0,4,,,,,,,,,3,,,62,88
190800,note_on,0,0,4,,,,,,,,,3,,,52,88
190800,note_on,480,0,3,,,,,,,,,2,,,71,88
190800,note_on,0,0,1,,,,,,,,,0,,,95,88
190800,note_on,0,0,2,,,,,,,,,1,,,83,101
190800,note_on,120,0,2,,,,,,,,,1,,,74,0
190800,note_on,120,0,1,,,,,,,,,0,,,86,0
190980,note_on,180,0,1,,,,,,,,,0,,,95,0
190980,note_on,180,0,2,,,,,,,,,1,,,83,0
190980,note_on,0,0,1,,,,,,,,,0,,,93,62
190980,note_on,0,0,2,,,,,,,,,1,,,81,75
191120,note_on,0,0,2,,,,,,,,,1,,,80,75
191120,note_on,0,0,1,,,,,,,,,0,,,92,62
191120,note_on,140,0,1,,,,,,,,,0,,,93,0
191120,note_on,140,0,2,,,,,,,,,1,,,81,0
191199,note_on,79,0,2,,,,,,,,,1,,,80,0
191199,note_on,0,0,2,,,,,,,,,1,,,78,75
191199,note_on,0,0,1,,,,,,,,,0,,,90,62
191199,note_on,79,0,1,,,,,,,,,0,,,92,0
191220,note_on,0,0,3,,,,,,,,,2,,,69,62
191220,note_on,420,0,3,,,,,,,,,2,,,71,0
191280,note_on,0,0,4,,,,,,,,,3,,,62,62
191280,note_on,0,0,4,,,,,,,,,3,,,52,62
191280,note_on,0,0,4,,,,,,,,,3,,,52,0
191280,note_on,0,0,4,,,,,,,,,3,,,62,0
191280,note_on,0,0,3,,,,,,,,,2,,,69,62
191280,note_on,60,0,3,,,,,,,,,2,,,69,0
191280,note_on,0,0,1,,,,,,,,,0,,,90,62
191280,note_on,81,0,1,,,,,,,,,0,,,90,0
191280,note_on,0,0,4,,,,,,,,,3,,,64,62
191280,note_on,480,0,4,,,,,,,,,3,,,64,0
191280,note_on,81,0,2,,,,,,,,,1,,,78,0
191280,note_on,0,0,2,,,,,,,,,1,,,78,75
191360,note_on,80,0,2,,,,,,,,,1,,,78,0
191360,note_on,80,0,3,,,,,,,,,2,,,69,0
191360,note_on,0,0,3,,,,,,,,,2,,,68,62
191360,note_on,0,0,1,,,,,,,,,0,,,88,62
191360,note_on,80,0,1,,,,,,,,,0,,,90,0
191360,note_on,0,0,2,,,,,,,,,1,,,76,75
191439,note_on,0,0,1,,,,,,,,,0,,,86,62
191439,note_on,79,0,3,,,,,,,,,2,,,68,0
191439,note_on,0,0,3,,,,,,,,,2,,,71,62
191439,note_on,79,0,1,,,,,,,,,0,,,88,0
191439,note_on,79,0,2,,,,,,,,,1,,,76,0
191439,note_on,0,0,2,,,,,,,,,1,,,74,75
191520,note_on,0,0,4,,,,,,,,,3,,,62,0
191520,note_on,0,0,2,,,,,,,,,1,,,75,75
191520,control_change,0,0,2,,,,,,,,,1,64,127,,
191520,note_on,240,0,4,,,,,,,,,3,,,64,0
191520,note_on,81,0,2,,,,,,,,,1,,,74,0
191520,control_change,0,0,1,,,,,,,,,0,64,127,,
191520,note_on,0,0,1,,,,,,,,,0,,,87,62
191520,note_on,0,0,4,,,,,,,,,3,,,52,0
191520,note_on,0,0,3,,,,,,,,,2,,,64,62
191520,note_on,0,0,3,,,,,,,,,2,,,61,62
191520,note_on,81,0,3,,,,,,,,,2,,,71,0
191520,note_on,81,0,1,,,,,,,,,0,,,86,0
191520,note_on,0,0,4,,,,,,,,,3,,,40,62
191640,note_on,120,0,2,,,,,,,,,1,,,75,0
191640,note_on,0,0,2,,,,,,,,,1,,,76,75
191640,note_on,120,0,1,,,,,,,,,0,,,87,0
191640,note_on,0,0,1,,,,,,,,,0,,,88,62
191760,note_on,0,0,3,,,,,,,,,2,,,61,0
191760,note_on,0,0,3,,,,,,,,,2,,,64,88
191760,note_on,0,0,4,,,,,,,,,3,,,52,88
191760,note_on,240,0,4,,,,,,,,,3,,,40,0
191760,note_on,0,0,3,,,,,,,,,2,,,73,88
191760,note_on,0,0,2,,,,,,,,,1,,,85,101
191760,note_on,120,0,2,,,,,,,,,1,,,76,0
191760,note_on,0,0,1,,,,,,,,,0,,,97,88
191760,note_on,120,0,1,,,,,,,,,0,,,88,0
191760,note_on,240,0,3,,,,,,,,,2,,,64,0
191940,control_change,0,0,1,,,,,,,,,0,64,0,,
191940,note_on,0,0,1,,,,,,,,,0,,,95,62
191940,control_change,0,0,2,,,,,,,,,1,64,0,,
191940,note_on,180,0,2,,,,,,,,,1,,,85,0
191940,note_on,180,0,1,,,,,,,,,0,,,97,0
191940,note_on,0,0,2,,,,,,,,,1,,,83,75
192000,note_on,0,0,2,,,,,,,,,1,,,83,75
192000,note_on,60,0,1,,,,,,,,,0,,,95,0
192000,note_on,0,0,1,,,,,,,,,0,,,95,62
192000,note_on,60,0,2,,,,,,,,,1,,,83,0
192080,note_on,80,0,2,,,,,,,,,1,,,83,0
192080,note_on,0,0,2,,,,,,,,,1,,,81,75
192080,note_on,80,0,1,,,,,,,,,0,,,95,0
192080,note_on,0,0,1,,,,,,,,,0,,,93,62
192159,note_on,79,0,1,,,,,,,,,0,,,93,0
192159,note_on,0,0,2,,,,,,,,,1,,,80,75
192159,note_on,79,0,2,,,,,,,,,1,,,81,0
192159,note_on,0,0,1,,,,,,,,,0,,,92,62
192180,note_on,0,0,3,,,,,,,,,2,,,71,62
192180,note_on,0,0,3,,,,,,,,,2,,,62,62
192180,note_on,0,0,3,,,,,,,,,2,,,64,0
192180,note_on,420,0,3,,,,,,,,,2,,,73,0
192240,note_on,81,0,1,,,,,,,,,0,,,92,0
192240,note_on,0,0,3,,,,,,,,,2,,,62,62
192240,note_on,0,0,3,,,,,,,,,2,,,62,0
192240,note_on,0,0,3,,,,,,,,,2,,,64,62
192240,note_on,0,0,3,,,,,,,,,2,,,71,62
192240,note_on,81,0,2,,,,,,,,,1,,,80,0
192240,note_on,0,0,2,,,,,,,,,1,,,81,75
192240,note_on,480,0,4,,,,,,,,,3,,,52,0
192240,note_on,0,0,4,,,,,,,,,3,,,52,62
192240,note_on,60,0,3,,,,,,,,,2,,,71,0
192240,note_on,0,0,1,,,,,,,,,0,,,93,62
192320,note_on,80,0,1,,,,,,,,,0,,,93,0
192320,note_on,0,0,1,,,,,,,,,0,,,88,62
192320,note_on,80,0,2,,,,,,,,,1,,,81,0
192320,note_on,0,0,2,,,,,,,,,1,,,76,75
192360,note_on,120,0,3,,,,,,,,,2,,,71,0
192360,note_on,0,0,3,,,,,,,,,2,,,64,0
192360,note_on,0,0,3,,,,,,,,,2,,,62,0
192360,note_on,0,0,3,,,,,,,,,2,,,69,62
192360,note_on,0,0,3,,,,,,,,,2,,,61,62
192399,note_on,79,0,2,,,,,,,,,1,,,76,0
192399,note_on,0,0,2,,,,,,,,,1,,,73,75
192399,note_on,0,0,1,,,,,,,,,0,,,85,62
192399,note_on,79,0,1,,,,,,,,,0,,,88,0
192480,note_on,240,0,4,,,,,,,,,3,,,52,0
192480,note_on,0,0,3,,,,,,,,,2,,,61,0
192480,note_on,0,0,1,,,,,,,,,0,,,88,62
192480,note_on,81,0,1,,,,,,,,,0,,,85,0
192480,note_on,120,0,3,,,,,,,,,2,,,69,0
192480,note_on,0,0,4,,,,,,,,,3,,,40,62
192480,control_change,0,0,1,,,,,,,,,0,64,127,,
192480,note_on,81,0,2,,,,,,,,,1,,,73,0
192480,control_change,0,0,2,,,,,,,,,1,64,127,,
192480,note_on,0,0,2,,,,,,,,,1,,,76,62
192560,note_on,0,0,1,,,,,,,,,0,,,86,62
192560,note_on,80,0,1,,,,,,,,,0,,,88,0
192560,note_on,0,0,2,,,,,,,,,1,,,74,62
192560,note_on,80,0,2,,,,,,,,,1,,,76,0
192639,note_on,79,0,1,,,,,,,,,0,,,86,0
192639,note_on,0,0,1,,,,,,,,,0,,,85,62
192639,note_on,0,0,2,,,,,,,,,1,,,73,62
192639,note_on,79,0,2,,,,,,,,,1,,,74,0
192720,note_on,81,0,1,,,,,,,,,0,,,85,0
192720,note_on,0,0,1,,,,,,,,,0,,,86,62
192720,note_on,0,0,4,,,,,,,,,3,,,52,88
192720,note_on,81,0,2,,,,,,,,,1,,,73,0
192720,note_on,0,0,2,,,,,,,,,1,,,74,62
192720,note_on,0,0,4,,,,,,,,,3,,,64,88
192720,note_on,240,0,4,,,,,,,,,3,,,40,0
192720,note_on,0,0,4,,,,,,,,,3,,,62,88
192720,note_on,240,0,3,,,,,,,,,2,,,71,88
192800,note_on,0,0,1,,,,,,,,,0,,,95,88
192800,note_on,80,0,1,,,,,,,,,0,,,86,0
192800,note_on,80,0,2,,,,,,,,,1,,,74,0
192800,note_on,0,0,2,,,,,,,,,1,,,83,88
192920,control_change,0,0,1,,,,,,,,,0,64,0,,
192920,note_on,0,0,1,,,,,,,,,0,,,93,62
192920,note_on,120,0,1,,,,,,,,,0,,,95,0
192920,note_on,120,0,2,,,,,,,,,1,,,83,0
192920,control_change,0,0,2,,,,,,,,,1,64,0,,
192920,note_on,0,0,2,,,,,,,,,1,,,81,62
192960,note_on,40,0,2,,,,,,,,,1,,,81,0
192960,note_on,0,0,2,,,,,,,,,1,,,81,62
192960,note_on,0,0,1,,,,,,,,,0,,,93,62
192960,note_on,40,0,1,,,,,,,,,0,,,93,0
193040,note_on,0,0,2,,,,,,,,,1,,,80,62
193040,note_on,80,0,2,,,,,,,,,1,,,81,0
193040,note_on,80,0,1,,,,,,,,,0,,,93,0
193040,note_on,0,0,1,,,,,,,,,0,,,92,62
193119,note_on,79,0,1,,,,,,,,,0,,,92,0
193119,note_on,79,0,2,,,,,,,,,1,,,80,0
193119,note_on,0,0,2,,,,,,,,,1,,,78,62
193119,note_on,0,0,1,,,,,,,,,0,,,90,62
193140,note_on,0,0,3,,,,,,,,,2,,,69,62
193140,note_on,420,0,3,,,,,,,,,2,,,71,0
193200,note_on,0,0,2,,,,,,,,,1,,,78,62
193200,note_on,480,0,4,,,,,,,,,3,,,64,0
193200,note_on,0,0,4,,,,,,,,,3,,,62,0
193200,note_on,0,0,4,,,,,,,,,3,,,52,0
193200,note_on,0,0,4,,,,,,,,,3,,,52,62
193200,note_on,0,0,4,,,,,,,,,3,,,62,62
193200,note_on,0,0,4,,,,,,,,,3,,,64,62
193200,note_on,81,0,1,,,,,,,,,0,,,90,0
193200,note_on,0,0,1,,,,,,,,,0,,,90,62
193200,note_on,81,0,2,,,,,,,,,1,,,78,0
193200,note_on,0,0,3,,,,,,,,,2,,,69,62
193200,note_on,60,0,3,,,,,,,,,2,,,69,0
193280,note_on,80,0,1,,,,,,,,,0,,,90,0
193280,note_on,0,0,1,,,,,,,,,0,,,88,62
193280,note_on,0,0,2,,,,,,,,,1,,,76,62
193280,note_on,80,0,2,,,,,,,,,1,,,78,0
193280,note_on,0,0,3,,,,,,,,,2,,,68,62
193280,note_on,80,0,3,,,,,,,,,2,,,69,0
193359,note_on,79,0,3,,,,,,,,,2,,,68,0
193359,note_on,79,0,1,,,,,,,,,0,,,88,0
193359,note_on,0,0,3,,,,,,,,,2,,,71,62
193359,note_on,0,0,2,,,,,,,,,1,,,75,62
193359,note_on,79,0,2,,,,,,,,,1,,,76,0
193359,note_on,0,0,1,,,,,,,,,0,,,87,62
193440,note_on,240,0,4,,,,,,,,,3,,,64,0
193440,note_on,0,0,4,,,,,,,,,3,,,62,0
193440,note_on,0,0,4,,,,,,,,,3,,,52,0
193440,note_on,0,0,3,,,,,,,,,2,,,64,62
193440,note_on,0,0,4,,,,,,,,,3,,,40,62
193440,note_on,0,0,3,,,,,,,,,2,,,61,62
193440,control_change,0,0,1,,,,,,,,,0,64,127,,
193440,note_on,0,0,1,,,,,,,,,0,,,90,62
193440,note_on,81,0,1,,,,,,,,,0,,,87,0
193440,note_on,0,0,2,,,,,,,,,1,,,78,62
193440,control_change,0,0,2,,,,,,,,,1,64,127,,
193440,note_on,81,0,2,,,,,,,,,1,,,75,0
193440,note_on,81,0,3,,,,,,,,,2,,,71,0
193520,note_on,0,0,2,,,,,,,,,1,,,76,62
193520,note_on,80,0,2,,,,,,,,,1,,,78,0
193520,note_on,80,0,1,,,,,,,,,0,,,90,0
193520,note_on,0,0,1,,,,,,,,,0,,,88,62
193599,note_on,0,0,1,,,,,,,,,0,,,87,62
193599,note_on,0,0,2,,,,,,,,,1,,,75,62
193599,note_on,79,0,2,,,,,,,,,1,,,76,0
193599,note_on,79,0,1,,,,,,,,,0,,,88,0
193680,note_on,0,0,3,,,,,,,,,2,,,64,88
193680,note_on,0,0,3,,,,,,,,,2,,,61,0
193680,note_on,0,0,3,,,,,,,,,2,,,73,88
193680,note_on,0,0,1,,,,,,,,,0,,,88,62
193680,note_on,0,0,4,,,,,,,,,3,,,52,88
193680,note_on,240,0,3,,,,,,,,,2,,,64,0
193680,note_on,81,0,2,,,,,,,,,1,,,75,0
193680,note_on,0,0,2,,,,,,,,,1,,,76,62
193680,note_on,81,0,1,,,,,,,,,0,,,87,0
193680,note_on,240,0,4,,,,,,,,,3,,,40,0
193760,note_on,80,0,1,,,,,,,,,0,,,88,0
193760,note_on,0,0,1,,,,,,,,,0,,,97,88
193760,note_on,0,0,2,,,,,,,,,1,,,85,88
193760,note_on,80,0,2,,,,,,,,,1,,,76,0
193880,note_on,0,0,2,,,,,,,,,1,,,83,62
193880,control_change,0,0,2,,,,,,,,,1,64,0,,
193880,note_on,120,0,2,,,,,,,,,1,,,85,0
193880,note_on,0,0,1,,,,,,,,,0,,,95,62
193880,control_change,0,0,1,,,,,,,,,0,64,0,,
193880,note_on,120,0,1,,,,,,,,,0,,,97,0
193920,note_on,0,0,2,,,,,,,,,1,,,83,62
193920,note_on,0,0,1,,,,,,,,,0,,,95,62
193920,note_on,40,0,1,,,,,,,,,0,,,95,0
193920,note_on,40,0,2,,,,,,,,,1,,,83,0
194000,note_on,80,0,2,,,,,,,,,1,,,83,0
194000,note_on,0,0,1,,,,,,,,,0,,,93,62
194000,note_on,80,0,1,,,,,,,,,0,,,95,0
194000,note_on,0,0,2,,,,,,,,,1,,,81,62
194079,note_on,79,0,2,,,,,,,,,1,,,81,0
194079,note_on,0,0,2,,,,,,,,,1,,,80,62
194079,note_on,0,0,1,,,,,,,,,0,,,92,62
194079,note_on,79,0,1,,,,,,,,,0,,,93,0
194100,note_on,0,0,3,,,,,,,,,2,,,64,0
194100,note_on,0,0,3,,,,,,,,,2,,,62,62
194100,note_on,0,0,3,,,,,,,,,2,,,71,62
194100,note_on,420,0,3,,,,,,,,,2,,,73,0
194160,note_on,0,0,3,,,,,,,,,2,,,62,0
194160,note_on,0,0,3,,,,,,,,,2,,,62,62
194160,note_on,0,0,3,,,,,,,,,2,,,64,62
194160,note_on,0,0,3,,,,,,,,,2,,,71,62
194160,note_on,60,0,3,,,,,,,,,2,,,71,0
194160,note_on,0,0,2,,,,,,,,,1,,,81,62
194160,note_on,0,0,4,,,,,,,,,3,,,52,62
194160,note_on,480,0,4,,,,,,,,,3,,,52,0
194160,note_on,81,0,2,,,,,,,,,1,,,80,0
194160,note_on,81,0,1,,,,,,,,,0,,,92,0
194160,note_on,0,0,1,,,,,,,,,0,,,93,62
194240,note_on,80,0,1,,,,,,,,,0,,,93,0
194240,note_on,0,0,1,,,,,,,,,0,,,88,62
194240,note_on,80,0,2,,,,,,,,,1,,,81,0
194240,note_on,0,0,2,,,,,,,,,1,,,76,62
194280,note_on,0,0,3,,,,,,,,,2,,,64,0
194280,note_on,0,0,3,,,,,,,,,2,,,69,62
194280,note_on,120,0,3,,,,,,,,,2,,,71,0
194280,note_on,0,0,3,,,,,,,,,2,,,61,62
194280,note_on,0,0,3,,,,,,,,,2,,,62,0
194319,note_on,0,0,1,,,,,,,,,0,,,85,62
194319,note_on,79,0,1,,,,,,,,,0,,,88,0
194319,note_on,79,0,2,,,,,,,,,1,,,76,0
194319,note_on,0,0,2,,,,,,,,,1,,,73,62
194400,note_on,81,0,1,,,,,,,,,0,,,85,0
194400,note_on,0,0,1,,,,,,,,,0,,,82,75
194400,note_on,81,0,2,,,,,,,,,1,,,73,0
194400,note_on,240,0,4,,,,,,,,,3,,,52,0
194400,note_on,0,0,4,,,,,,,,,3,,,39,62
194400,note_on,0,0,2,,,,,,,,,1,,,70,75
194400,note_on,120,0,3,,,,,,,,,2,,,69,0
194400,note_on,0,0,3,,,,,,,,,2,,,61,0
194480,note_on,0,0,1,,,,,,,,,0,,,83,75
194480,note_on,80,0,1,,,,,,,,,0,,,82,0
194480,note_on,80,0,2,,,,,,,,,1,,,70,0
194480,note_on,0,0,2,,,,,,,,,1,,,71,75
194559,note_on,0,0,2,,,,,,,,,1,,,78,75
194559,note_on,79,0,2,,,,,,,,,1,,,71,0
194559,note_on,0,0,1,,,,,,,,,0,,,90,75
194559,note_on,79,0,1,,,,,,,,,0,,,83,0
194640,note_on,0,0,1,,,,,,,,,0,,,93,101
194640,note_on,81,0,1,,,,,,,,,0,,,90,0
194640,note_on,81,0,2,,,,,,,,,1,,,78,0
194640,note_on,0,0,2,,,,,,,,,1,,,81,101
194640,note_on,0,0,3,,,,,,,,,2,,,66,101
194640,note_on,240,0,4,,,,,,,,,3,,,39,0
194640,note_on,0,0,4,,,,,,,,,3,,,51,62
194640,note_on,240,0,3,,,,,,,,,2,,,59,101
194720,note_on,80,0,4,,,,,,,,,3,,,51,0
194720,note_on,0,0,4,,,,,,,,,3,,,54,62
194799,note_on,79,0,4,,,,,,,,,3,,,54,0
194799,note_on,0,0,4,,,,,,,,,3,,,52,62
194880,note_on,81,0,4,,,,,,,,,3,,,52,0
194880,note_on,0,0,4,,,,,,,,,3,,,51,62
194960,note_on,0,0,1,,,,,,,,,0,,,92,75
194960,note_on,0,0,2,,,,,,,,,1,,,80,75
194960,note_on,320,0,2,,,,,,,,,1,,,81,0
194960,note_on,320,0,1,,,,,,,,,0,,,93,0
195039,note_on,0,0,2,,,,,,,,,1,,,83,75
195039,note_on,79,0,2,,,,,,,,,1,,,80,0
195039,note_on,79,0,1,,,,,,,,,0,,,92,0
195039,note_on,0,0,1,,,,,,,,,0,,,95,75
195120,note_on,81,0,1,,,,,,,,,0,,,95,0
195120,note_on,0,0,1,,,,,,,,,0,,,93,75
195120,note_on,0,0,3,,,,,,,,,2,,,68,75
195120,note_on,480,0,3,,,,,,,,,2,,,66,0
195120,note_on,0,0,3,,,,,,,,,2,,,59,0
195120,note_on,81,0,2,,,,,,,,,1,,,83,0
195120,note_on,0,0,2,,,,,,,,,1,,,81,75
195200,note_on,80,0,1,,,,,,,,,0,,,93,0
195200,note_on,0,0,1,,,,,,,,,0,,,92,75
195200,note_on,0,0,2,,,,,,,,,1,,,80,75
195200,note_on,80,0,2,,,,,,,,,1,,,81,0
195240,note_on,0,0,3,,,,,,,,,2,,,69,75
195240,note_on,120,0,3,,,,,,,,,2,,,68,0
195279,note_on,0,0,1,,,,,,,,,0,,,90,75
195279,note_on,79,0,1,,,,,,,,,0,,,92,0
195279,note_on,79,0,2,,,,,,,,,1,,,80,0
195279,note_on,0,0,2,,,,,,,,,1,,,78,75
195360,note_on,480,0,4,,,,,,,,,3,,,51,0
195360,note_on,0,0,4,,,,,,,,,3,,,52,62
195360,note_on,0,0,2,,,,,,,,,1,,,76,62
195360,note_on,0,0,3,,,,,,,,,2,,,69,75
195360,note_on,0,0,3,,,,,,,,,2,,,61,75
195360,note_on,120,0,3,,,,,,,,,2,,,69,0
195360,note_on,81,0,2,,,,,,,,,1,,,78,0
195360,control_change,0,0,2,,,,,,,,,1,64,127,,
195360,note_on,81,0,1,,,,,,,,,0,,,90,0
195360,note_on,0,0,1,,,,,,,,,0,,,88,62
195360,control_change,0,0,1,,,,,,,,,0,64,127,,
195440,note_on,80,0,1,,,,,,,,,0,,,88,0
195440,note_on,80,0,2,,,,,,,,,1,,,76,0
195440,note_on,0,0,2,,,,,,,,,1,,,75,62
195440,note_on,0,0,1,,,,,,,,,0,,,87,62
195519,note_on,0,0,1,,,,,,,,,0,,,90,62
195519,note_on,79,0,1,,,,,,,,,0,,,87,0
195519,note_on,0,0,2,,,,,,,,,1,,,78,62
195519,note_on,79,0,2,,,,,,,,,1,,,75,0
195600,note_on,0,0,1,,,,,,,,,0,,,88,62
195600,note_on,240,0,3,,,,,,,,,2,,,69,0
195600,note_on,0,0,3,,,,,,,,,2,,,61,0
195600,note_on,0,0,3,,,,,,,,,2,,,57,75
195600,note_on,0,0,3,,,,,,,,,2,,,61,75
195600,note_on,240,0,4,,,,,,,,,3,,,52,0
195600,note_on,0,0,4,,,,,,,,,3,,,52,62
195600,note_on,81,0,2,,,,,,,,,1,,,78,0
195600,note_on,0,0,2,,,,,,,,,1,,,76,62
195600,note_on,81,0,1,,,,,,,,,0,,,90,0
195680,note_on,80,0,1,,,,,,,,,0,,,88,0
195680,note_on,0,0,1,,,,,,,,,0,,,85,62
195680,note_on,80,0,2,,,,,,,,,1,,,76,0
195680,note_on,0,0,2,,,,,,,,,1,,,73,62
195759,note_on,0,0,1,,,,,,,,,0,,,86,62
195759,note_on,0,0,2,,,,,,,,,1,,,74,62
195759,note_on,79,0,2,,,,,,,,,1,,,73,0
195759,note_on,79,0,1,,,,,,,,,0,,,85,0
195780,note_on,0,0,3,,,,,,,,,2,,,62,75
195780,note_on,0,0,3,,,,,,,,,2,,,59,75
195780,note_on,0,0,3,,,,,,,,,2,,,57,0
195780,note_on,180,0,3,,,,,,,,,2,,,61,0
195840,note_on,0,0,3,,,,,,,,,2,,,61,75
195840,note_on,0,0,3,,,,,,,,,2,,,59,0
195840,note_on,60,0,3,,,,,,,,,2,,,62,0
195840,note_on,240,0,4,,,,,,,,,3,,,52,0
195840,note_on,0,0,3,,,,,,,,,2,,,64,75
195840,note_on,81,0,2,,,,,,,,,1,,,74,0
195840,note_on,0,0,2,,,,,,,,,1,,,76,62
195840,note_on,81,0,1,,,,,,,,,0,,,86,0
195840,note_on,0,0,1,,,,,,,,,0,,,88,62
195920,note_on,0,0,1,,,,,,,,,0,,,86,62
195920,note_on,80,0,2,,,,,,,,,1,,,76,0
195920,note_on,0,0,2,,,,,,,,,1,,,74,62
195920,note_on,80,0,1,,,,,,,,,0,,,88,0
195999,note_on,79,0,1,,,,,,,,,0,,,86,0
195999,note_on,0,0,1,,,,,,,,,0,,,85,62
195999,note_on,79,0,2,,,,,,,,,1,,,74,0
195999,note_on,0,0,2,,,,,,,,,1,,,73,62
196080,note_on,0,0,3,,,,,,,,,2,,,61,0
196080,note_on,0,0,3,,,,,,,,,2,,,59,75
196080,note_on,0,0,3,,,,,,,,,2,,,62,75
196080,note_on,240,0,4,,,,,,,,,3,,,52,62
196080,note_on,0,0,1,,,,,,,,,0,,,86,62
196080,note_on,81,0,1,,,,,,,,,0,,,85,0
196080,note_on,81,0,2,,,,,,,,,1,,,73,0
196080,note_on,0,0,2,,,,,,,,,1,,,74,62
196080,note_on,240,0,3,,,,,,,,,2,,,64,0
196160,note_on,0,0,1,,,,,,,,,0,,,85,62
196160,note_on,80,0,1,,,,,,,,,0,,,86,0
196160,note_on,80,0,2,,,,,,,,,1,,,74,0
196160,note_on,0,0,2,,,,,,,,,1,,,73,62
196200,note_on,0,0,3,,,,,,,,,2,,,59,75
196200,note_on,0,0,3,,,,,,,,,2,,,59,0
196200,note_on,120,0,3,,,,,,,,,2,,,62,0
196239,note_on,0,0,2,,,,,,,,,1,,,71,62
196239,note_on,79,0,2,,,,,,,,,1,,,73,0
196239,note_on,0,0,1,,,,,,,,,0,,,83,62
196239,control_change,0,0,1,,,,,,,,,0,64,0,,
196239,note_on,79,0,1,,,,,,,,,0,,,85,0
196239,control_change,0,0,2,,,,,,,,,1,64,0,,
196320,note_on,0,0,4,,,,,,,,,3,,,45,62
196320,note_on,240,0,4,,,,,,,,,3,,,52,0
196320,note_on,0,0,2,,,,,,,,,1,,,69,62
196320,note_on,0,0,1,,,,,,,,,0,,,81,62
196320,note_on,81,0,1,,,,,,,,,0,,,83,0
196320,note_on,81,0,2,,,,,,,,,1,,,71,0
196320,note_on,0,0,3,,,,,,,,,2,,,57,75
196320,note_on,120,0,3,,,,,,,,,2,,,59,0
196320,note_on,0,0,3,,,,,,,,,2,,,61,75
196560,note_on,0,0,4,,,,,,,,,3,,,61,62
196560,control_change,0,0,4,,,,,,,,,3,64,127,,
196560,note_on,240,0,4,,,,,,,,,3,,,45,0
196560,note_on,240,0,3,,,,,,,,,2,,,61,0
196560,note_on,240,0,1,,,,,,,,,0,,,81,0
196560,control_change,0,0,3,,,,,,,,,2,64,127,,
196560,note_on,0,0,3,,,,,,,,,2,,,76,62
196560,note_on,0,0,3,,,,,,,,,2,,,57,0
196560,control_change,0,0,2,,,,,,,,,1,64,127,,
196560,note_on,240,0,2,,,,,,,,,1,,,69,0
196560,note_on,0,0,2,,,,,,,,,1,,,76,62
196640,note_on,80,0,3,,,,,,,,,2,,,76,0
196640,note_on,0,0,3,,,,,,,,,2,,,74,62
196680,note_on,120,0,4,,,,,,,,,3,,,61,0
196680,note_on,0,0,4,,,,,,,,,3,,,52,62
196719,note_on,0,0,3,,,,,,,,,2,,,73,62
196719,note_on,79,0,3,,,,,,,,,2,,,74,0
196800,note_on,81,0,3,,,,,,,,,2,,,73,0
196800,control_change,0,0,3,,,,,,,,,2,64,0,,
196800,note_on,0,0,4,,,,,,,,,3,,,59,62
196800,note_on,120,0,4,,,,,,,,,3,,,52,0
196800,note_on,0,0,3,,,,,,,,,2,,,74,62
196920,note_on,0,0,4,,,,,,,,,3,,,52,62
196920,control_change,0,0,4,,,,,,,,,3,64,0,,
196920,note_on,120,0,4,,,,,,,,,3,,,59,0
197040,note_on,120,0,4,,,,,,,,,3,,,52,0
197040,note_on,0,0,4,,,,,,,,,3,,,52,62
197040,note_on,0,0,2,,,,,,,,,1,,,78,62
197040,note_on,480,0,2,,,,,,,,,1,,,76,0
197040,note_on,0,0,3,,,,,,,,,2,,,74,62
197040,note_on,240,0,3,,,,,,,,,2,,,74,0
197040,control_change,0,0,3,,,,,,,,,2,64,127,,
197055,note_on,15,0,4,,,,,,,,,3,,,52,0
197120,note_on,80,0,3,,,,,,,,,2,,,74,0
197120,note_on,0,0,3,,,,,,,,,2,,,73,62
197160,note_on,0,0,2,,,,,,,,,1,,,80,62
197160,note_on,120,0,2,,,,,,,,,1,,,78,0
197160,note_on,105,0,4,,,,,,,,,3,,,52,62
197175,note_on,15,0,4,,,,,,,,,3,,,52,0
197199,note_on,0,0,3,,,,,,,,,2,,,71,62
197199,note_on,79,0,3,,,,,,,,,2,,,73,0
197280,note_on,81,0,3,,,,,,,,,2,,,71,0
197280,control_change,0,0,3,,,,,,,,,2,64,0,,
197280,note_on,0,0,3,,,,,,,,,2,,,73,62
197280,note_on,0,0,2,,,,,,,,,1,,,81,62
197280,note_on,120,0,2,,,,,,,,,1,,,80,0
197280,note_on,105,0,4,,,,,,,,,3,,,57,62
197400,note_on,120,0,4,,,,,,,,,3,,,57,0
197400,note_on,0,0,4,,,,,,,,,3,,,52,62
197520,note_on,240,0,3,,,,,,,,,2,,,73,0
197520,note_on,120,0,4,,,,,,,,,3,,,52,0
197520,note_on,240,0,2,,,,,,,,,1,,,81,0
197520,control_change,0,0,2,,,,,,,,,1,64,0,,
197520,note_on,0,0,2,,,,,,,,,1,,,73,62
197520,note_on,0,0,4,,,,,,,,,3,,,52,62
197520,control_change,0,0,3,,,,,,,,,2,64,127,,
197520,note_on,0,0,3,,,,,,,,,2,,,69,62
197535,note_on,15,0,4,,,,,,,,,3,,,52,0
197600,note_on,80,0,3,,,,,,,,,2,,,69,0
197600,note_on,0,0,3,,,,,,,,,2,,,71,62
197640,note_on,105,0,4,,,,,,,,,3,,,52,62
197640,note_on,120,0,2,,,,,,,,,1,,,73,0
197655,note_on,15,0,4,,,,,,,,,3,,,52,0
197679,note_on,79,0,3,,,,,,,,,2,,,71,0
197679,note_on,0,0,3,,,,,,,,,2,,,73,62
197760,control_change,105,0,4,,,,,,,,,3,64,127,,
197760,note_on,0,0,4,,,,,,,,,3,,,62,62
197760,note_on,120,0,2,,,,,,,,,1,,,76,62
197760,note_on,81,0,3,,,,,,,,,2,,,73,0
197760,note_on,0,0,3,,,,,,,,,2,,,71,62
197840,note_on,0,0,3,,,,,,,,,2,,,69,62
197840,note_on,80,0,3,,,,,,,,,2,,,71,0
197880,note_on,0,0,4,,,,,,,,,3,,,52,62
197880,note_on,120,0,4,,,,,,,,,3,,,62,0
197919,note_on,79,0,3,,,,,,,,,2,,,69,0
197919,note_on,0,0,3,,,,,,,,,2,,,68,62
198000,note_on,0,0,3,,,,,,,,,2,,,66,62
198000,note_on,0,0,2,,,,,,,,,1,,,74,62
198000,note_on,240,0,2,,,,,,,,,1,,,76,0
198000,note_on,81,0,3,,,,,,,,,2,,,68,0
198000,note_on,120,0,4,,,,,,,,,3,,,52,0
198000,note_on,0,0,4,,,,,,,,,3,,,56,62
198080,note_on,0,0,3,,,,,,,,,2,,,64,62
198080,note_on,80,0,3,,,,,,,,,2,,,66,0
198120,note_on,120,0,2,,,,,,,,,1,,,74,0
198120,note_on,120,0,4,,,,,,,,,3,,,56,0
198120,control_change,0,0,4,,,,,,,,,3,64,0,,
198120,note_on,0,0,4,,,,,,,,,3,,,52,62
198120,note_on,0,0,2,,,,,,,,,1,,,71,62
198159,note_on,0,0,3,,,,,,,,,2,,,62,62
198159,note_on,79,0,3,,,,,,,,,2,,,64,0
198159,control_change,0,0,3,,,,,,,,,2,64,0,,
198240,note_on,81,0,3,,,,,,,,,2,,,62,0
198240,control_change,0,0,4,,,,,,,,,3,64,127,,
198240,note_on,120,0,2,,,,,,,,,1,,,71,0
198240,note_on,0,0,4,,,,,,,,,3,,,57,62
198240,note_on,120,0,4,,,,,,,,,3,,,52,0
198240,note_on,0,0,2,,,,,,,,,1,,,69,62
198240,note_on,0,0,3,,,,,,,,,2,,,60,62
198360,note_on,120,0,3,,,,,,,,,2,,,60,0
198360,note_on,0,0,4,,,,,,,,,3,,,52,62
198360,note_on,120,0,4,,,,,,,,,3,,,57,0
198360,note_on,0,0,3,,,,,,,,,2,,,61,62
198480,note_on,0,0,1,,,,,,,,,0,,,88,62
198480,note_on,0,0,4,,,,,,,,,3,,,61,62
198480,note_on,120,0,3,,,,,,,,,2,,,61,0
198480,note_on,240,0,2,,,,,,,,,1,,,69,0
198480,control_change,0,0,2,,,,,,,,,1,64,127,,
198480,note_on,0,0,2,,,,,,,,,1,,,76,62
198480,control_change,1920,0,1,,,,,,,,,0,64,127,,
198480,note_on,120,0,4,,,,,,,,,3,,,52,0
198480,note_on,0,0,3,,,,,,,,,2,,,76,62
198480,control_change,0,0,3,,,,,,,,,2,64,127,,
198560,note_on,0,0,3,,,,,,,,,2,,,74,62
198560,note_on,80,0,3,,,,,,,,,2,,,76,0
198600,note_on,0,0,4,,,,,,,,,3,,,52,62
198600,note_on,120,0,4,,,,,,,,,3,,,61,0
198639,note_on,0,0,3,,,,,,,,,2,,,73,62
198639,note_on,79,0,3,,,,,,,,,2,,,74,0
198720,note_on,81,0,3,,,,,,,,,2,,,73,0
198720,control_change,0,0,3,,,,,,,,,2,64,0,,
198720,note_on,0,0,4,,,,,,,,,3,,,59,62
198720,note_on,120,0,4,,,,,,,,,3,,,52,0
198720,note_on,0,0,3,,,,,,,,,2,,,74,62
198840,note_on,0,0,4,,,,,,,,,3,,,52,62
198840,note_on,120,0,4,,,,,,,,,3,,,59,0
198840,control_change,0,0,4,,,,,,,,,3,64,0,,
198855,note_on,15,0,4,,,,,,,,,3,,,52,0
198960,note_on,105,0,4,,,,,,,,,3,,,52,62
198960,control_change,0,0,3,,,,,,,,,2,64,127,,
198960,note_on,240,0,3,,,,,,,,,2,,,74,0
198960,note_on,0,0,1,,,,,,,,,0,,,90,62
198960,note_on,480,0,1,,,,,,,,,0,,,88,0
198960,note_on,480,0,2,,,,,,,,,1,,,76,0
198960,note_on,0,0,3,,,,,,,,,2,,,74,62
198960,note_on,0,0,2,,,,,,,,,1,,,78,62
198975,note_on,15,0,4,,,,,,,,,3,,,52,0
199040,note_on,0,0,3,,,,,,,,,2,,,73,62
199040,note_on,80,0,3,,,,,,,,,2,,,74,0
199080,note_on,0,0,2,,,,,,,,,1,,,80,62
199080,note_on,120,0,2,,,,,,,,,1,,,78,0
199080,note_on,0,0,1,,,,,,,,,0,,,92,62
199080,note_on,120,0,1,,,,,,,,,0,,,90,0
199080,note_on,105,0,4,,,,,,,,,3,,,52,62
199095,note_on,15,0,4,,,,,,,,,3,,,52,0
199119,note_on,0,0,3,,,,,,,,,2,,,71,62
199119,note_on,79,0,3,,,,,,,,,2,,,73,0
199200,note_on,0,0,1,,,,,,,,,0,,,93,62
199200,note_on,120,0,1,,,,,,,,,0,,,92,0
199200,note_on,120,0,2,,,,,,,,,1,,,80,0
199200,note_on,81,0,3,,,,,,,,,2,,,71,0
199200,note_on,105,0,4,,,,,,,,,3,,,57,62
199200,note_on,0,0,3,,,,,,,,,2,,,73,62
199200,control_change,0,0,3,,,,,,,,,2,64,0,,
199200,note_on,0,0,2,,,,,,,,,1,,,81,62
199320,note_on,120,0,4,,,,,,,,,3,,,57,0
199320,note_on,0,0,4,,,,,,,,,3,,,52,62
199440,note_on,120,0,4,,,,,,,,,3,,,52,0
199440,note_on,0,0,4,,,,,,,,,3,,,57,62
199440,note_on,0,0,3,,,,,,,,,2,,,61,62
199440,control_change,0,0,3,,,,,,,,,2,64,127,,
199440,note_on,240,0,3,,,,,,,,,2,,,73,0
199440,note_on,240,0,2,,,,,,,,,1,,,81,0
199440,note_on,0,0,2,,,,,,,,,1,,,85,62
199440,note_on,240,0,1,,,,,,,,,0,,,93,0
199440,note_on,0,0,1,,,,,,,,,0,,,97,62
199520,note_on,0,0,3,,,,,,,,,2,,,62,62
199520,note_on,80,0,3,,,,,,,,,2,,,61,0
199560,note_on,0,0,4,,,,,,,,,3,,,61,62
199560,note_on,120,0,4,,,,,,,,,3,,,57,0
199599,note_on,0,0,3,,,,,,,,,2,,,64,62
199599,note_on,79,0,3,,,,,,,,,2,,,62,0
199680,note_on,0,0,4,,,,,,,,,3,,,59,62
199680,note_on,120,0,4,,,,,,,,,3,,,61,0
199680,note_on,240,0,1,,,,,,,,,0,,,97,0
199680,note_on,0,0,1,,,,,,,,,0,,,88,62
199680,note_on,0,0,2,,,,,,,,,1,,,76,62
199680,control_change,0,0,2,,,,,,,,,1,64,0,,
199680,note_on,240,0,2,,,,,,,,,1,,,85,0
199680,control_change,0,0,1,,,,,,,,,0,64,0,,
199680,note_on,0,0,3,,,,,,,,,2,,,66,62
199680,note_on,81,0,3,,,,,,,,,2,,,64,0
199760,note_on,0,0,3,,,,,,,,,2,,,68,62
199760,note_on,80,0,3,,,,,,,,,2,,,66,0
199800,note_on,0,0,4,,,,,,,,,3,,,52,62
199800,note_on,120,0,4,,,,,,,,,3,,,59,0
199839,note_on,0,0,3,,,,,,,,,2,,,69,62
199839,note_on,79,0,3,,,,,,,,,2,,,68,0
199920,note_on,0,0,1,,,,,,,,,0,,,86,62
199920,note_on,240,0,1,,,,,,,,,0,,,88,0
199920,note_on,0,0,2,,,,,,,,,1,,,74,62
199920,note_on,240,0,2,,,,,,,,,1,,,76,0
199920,note_on,0,0,3,,,,,,,,,2,,,68,62
199920,note_on,81,0,3,,,,,,,,,2,,,69,0
199920,note_on,120,0,4,,,,,,,,,3,,,52,0
199920,note_on,0,0,4,,,,,,,,,3,,,64,62
199980,note_on,60,0,2,,,,,,,,,1,,,74,0
199980,note_on,0,0,2,,,,,,,,,1,,,76,62
199980,note_on,60,0,1,,,,,,,,,0,,,86,0
199980,note_on,0,0,1,,,,,,,,,0,,,88,62
200000,note_on,0,0,3,,,,,,,,,2,,,69,62
200000,note_on,80,0,3,,,,,,,,,2,,,68,0
200040,note_on,60,0,1,,,,,,,,,0,,,88,0
200040,note_on,0,0,1,,,,,,,,,0,,,86,62
200040,note_on,0,0,2,,,,,,,,,1,,,74,62
200040,note_on,120,0,4,,,,,,,,,3,,,64,0
200040,note_on,0,0,4,,,,,,,,,3,,,52,62
200040,note_on,60,0,2,,,,,,,,,1,,,76,0
200079,note_on,79,0,3,,,,,,,,,2,,,69,0
200079,note_on,0,0,3,,,,,,,,,2,,,71,62
200100,note_on,60,0,1,,,,,,,,,0,,,86,0
200100,note_on,0,0,1,,,,,,,,,0,,,88,62
200100,note_on,0,0,2,,,,,,,,,1,,,76,62
200100,note_on,60,0,2,,,,,,,,,1,,,74,0
200160,note_on,0,0,1,,,,,,,,,0,,,85,62
200160,note_on,60,0,1,,,,,,,,,0,,,88,0
200160,note_on,60,0,2,,,,,,,,,1,,,76,0
200160,control_change,0,0,3,,,,,,,,,2,64,0,,
200160,note_on,81,0,3,,,,,,,,,2,,,71,0
200160,note_on,0,0,4,,,,,,,,,3,,,57,62
200160,note_on,120,0,4,,,,,,,,,3,,,52,0
200160,note_on,0,0,2,,,,,,,,,1,,,73,62
200160,note_on,0,0,3,,,,,,,,,2,,,69,62
200400,control_change,0,0,1,,,,,,,,,0,64,127,,
200400,note_on,0,0,1,,,,,,,,,0,,,88,62
200400,note_on,240,0,1,,,,,,,,,0,,,85,0
200400,note_on,240,0,2,,,,,,,,,1,,,73,0
200400,note_on,0,0,2,,,,,,,,,1,,,76,62
200400,note_on,240,0,3,,,,,,,,,2,,,69,0
200400,control_change,0,0,3,,,,,,,,,2,64,127,,
200400,note_on,0,0,3,,,,,,,,,2,,,73,62
200400,note_on,240,0,4,,,,,,,,,3,,,57,0
200480,note_on,80,0,1,,,,,,,,,0,,,88,0
200480,note_on,0,0,1,,,,,,,,,0,,,86,62
200520,note_on,120,0,3,,,,,,,,,2,,,73,0
200520,note_on,0,0,3,,,,,,,,,2,,,64,62
200559,note_on,79,0,1,,,,,,,,,0,,,86,0
200559,note_on,0,0,1,,,,,,,,,0,,,85,62
200640,control_change,0,0,1,,,,,,,,,0,64,0,,
200640,note_on,0,0,1,,,,,,,,,0,,,86,62
200640,note_on,81,0,1,,,,,,,,,0,,,85,0
200640,note_on,0,0,3,,,,,,,,,2,,,71,62
200640,note_on,120,0,3,,,,,,,,,2,,,64,0
200760,note_on,0,0,3,,,,,,,,,2,,,64,62
200760,note_on,120,0,3,,,,,,,,,2,,,71,0
200760,control_change,0,0,3,,,,,,,,,2,64,0,,
200880,note_on,0,0,2,,,,,,,,,1,,,78,62
200880,note_on,0,0,3,,,,,,,,,2,,,64,62
200880,note_on,120,0,3,,,,,,,,,2,,,64,0
200880,note_on,240,0,1,,,,,,,,,0,,,86,0
200880,note_on,0,0,1,,,,,,,,,0,,,86,62
200880,control_change,0,0,1,,,,,,,,,0,64,127,,
200880,note_on,480,0,2,,,,,,,,,1,,,76,0
200895,note_on,15,0,3,,,,,,,,,2,,,64,0
200960,note_on,80,0,1,,,,,,,,,0,,,86,0
200960,note_on,0,0,1,,,,,,,,,0,,,85,62
201000,note_on,0,0,2,,,,,,,,,1,,,80,62
201000,note_on,120,0,2,,,,,,,,,1,,,78,0
201000,note_on,105,0,3,,,,,,,,,2,,,64,62
201015,note_on,15,0,3,,,,,,,,,2,,,64,0
201039,note_on,79,0,1,,,,,,,,,0,,,85,0
201039,note_on,0,0,1,,,,,,,,,0,,,83,62
201120,note_on,105,0,3,,,,,,,,,2,,,69,62
201120,note_on,120,0,2,,,,,,,,,1,,,80,0
201120,control_change,0,0,2,,,,,,,,,1,64,127,,
201120,note_on,0,0,2,,,,,,,,,1,,,81,62
201120,note_on,0,0,1,,,,,,,,,0,,,85,62
201120,note_on,81,0,1,,,,,,,,,0,,,83,0
201120,control_change,0,0,1,,,,,,,,,0,64,0,,
201240,note_on,120,0,3,,,,,,,,,2,,,69,0
201240,note_on,0,0,3,,,,,,,,,2,,,64,62
201360,note_on,120,0,3,,,,,,,,,2,,,64,0
201360,note_on,0,0,3,,,,,,,,,2,,,64,62
201360,note_on,0,0,2,,,,,,,,,1,,,73,62
201360,note_on,240,0,2,,,,,,,,,1,,,81,0
201360,note_on,0,0,1,,,,,,,,,0,,,81,62
201360,control_change,0,0,1,,,,,,,,,0,64,127,,
201360,note_on,240,0,1,,,,,,,,,0,,,85,0
201375,note_on,15,0,3,,,,,,,,,2,,,64,0
201440,note_on,0,0,1,,,,,,,,,0,,,83,62
201440,note_on,80,0,1,,,,,,,,,0,,,81,0
201480,note_on,105,0,3,,,,,,,,,2,,,64,62
201495,note_on,15,0,3,,,,,,,,,2,,,64,0
201519,note_on,0,0,1,,,,,,,,,0,,,85,62
201519,note_on,79,0,1,,,,,,,,,0,,,83,0
201600,note_on,240,0,2,,,,,,,,,1,,,73,0
201600,control_change,105,0,3,,,,,,,,,2,64,127,,
201600,note_on,0,0,3,,,,,,,,,2,,,74,62
201600,note_on,0,0,2,,,,,,,,,1,,,76,62
201600,note_on,81,0,1,,,,,,,,,0,,,85,0
201600,note_on,0,0,1,,,,,,,,,0,,,83,62
201680,note_on,80,0,1,,,,,,,,,0,,,83,0
201680,note_on,0,0,1,,,,,,,,,0,,,81,62
201720,note_on,120,0,3,,,,,,,,,2,,,74,0
201720,note_on,0,0,3,,,,,,,,,2,,,64,62
201759,note_on,79,0,1,,,,,,,,,0,,,81,0
201759,note_on,0,0,1,,,,,,,,,0,,,80,62
201840,note_on,81,0,1,,,,,,,,,0,,,80,0
201840,note_on,240,0,2,,,,,,,,,1,,,76,0
201840,note_on,0,0,2,,,,,,,,,1,,,74,62
201840,note_on,120,0,3,,,,,,,,,2,,,64,0
201840,note_on,0,0,3,,,,,,,,,2,,,68,62
201840,note_on,0,0,1,,,,,,,,,0,,,78,62
201920,note_on,80,0,1,,,,,,,,,0,,,78,0
201920,note_on,0,0,1,,,,,,,,,0,,,76,62
201960,note_on,120,0,3,,,,,,,,,2,,,68,0
201960,note_on,0,0,3,,,,,,,,,2,,,64,62
201960,control_change,0,0,3,,,,,,,,,2,64,0,,
201960,note_on,0,0,2,,,,,,,,,1,,,71,62
201960,control_change,0,0,2,,,,,,,,,1,64,0,,
201960,note_on,120,0,2,,,,,,,,,1,,,74,0
201999,control_change,0,0,1,,,,,,,,,0,64,0,,
201999,note_on,0,0,1,,,,,,,,,0,,,74,62
201999,note_on,79,0,1,,,,,,,,,0,,,76,0
202080,note_on,0,0,1,,,,,,,,,0,,,72,62
202080,note_on,81,0,1,,,,,,,,,0,,,74,0
202080,note_on,0,0,3,,,,,,,,,2,,,69,62
202080,note_on,0,0,2,,,,,,,,,1,,,69,62
202080,note_on,120,0,2,,,,,,,,,1,,,71,0
202080,note_on,120,0,3,,,,,,,,,2,,,64,0
202200,note_on,0,0,1,,,,,,,,,0,,,73,62
202200,note_on,120,0,1,,,,,,,,,0,,,72,0
202320,note_on,0,0,2,,,,,,,,,1,,,76,62
202320,note_on,240,0,2,,,,,,,,,1,,,69,0
202320,note_on,0,0,4,,,,,,,,,3,,,61,62
202320,control_change,1920,0,4,,,,,,,,,3,64,127,,
202320,control_change,0,0,1,,,,,,,,,0,64,127,,
202320,note_on,0,0,3,,,,,,,,,2,,,64,62
202320,note_on,240,0,3,,,,,,,,,2,,,69,0
202320,note_on,120,0,1,,,,,,,,,0,,,73,0
202320,note_on,0,0,1,,,,,,,,,0,,,100,62
202400,note_on,0,0,1,,,,,,,,,0,,,98,62
202400,note_on,80,0,1,,,,,,,,,0,,,100,0
202440,note_on,0,0,4,,,,,,,,,3,,,52,62
202440,note_on,120,0,4,,,,,,,,,3,,,61,0
202479,note_on,0,0,1,,,,,,,,,0,,,97,62
202479,note_on,79,0,1,,,,,,,,,0,,,98,0
202560,control_change,0,0,1,,,,,,,,,0,64,0,,
202560,note_on,81,0,1,,,,,,,,,0,,,97,0
202560,note_on,0,0,4,,,,,,,,,3,,,59,62
202560,note_on,120,0,4,,,,,,,,,3,,,52,0
202560,note_on,0,0,1,,,,,,,,,0,,,98,62
202680,note_on,0,0,4,,,,,,,,,3,,,52,62
202680,control_change,0,0,4,,,,,,,,,3,64,0,,
202680,note_on,120,0,4,,,,,,,,,3,,,59,0
202800,note_on,480,0,2,,,,,,,,,1,,,76,0
202800,note_on,0,0,1,,,,,,,,,0,,,98,62
202800,note_on,0,0,3,,,,,,,,,2,,,66,62
202800,note_on,480,0,3,,,,,,,,,2,,,64,0
202800,note_on,0,0,2,,,,,,,,,1,,,78,62
202800,control_change,0,0,1,,,,,,,,,0,64,127,,
202800,note_on,240,0,1,,,,,,,,,0,,,98,0
202800,note_on,120,0,4,,,,,,,,,3,,,52,0
202800,note_on,0,0,4,,,,,,,,,3,,,52,62
202815,note_on,15,0,4,,,,,,,,,3,,,52,0
202880,note_on,0,0,1,,,,,,,,,0,,,97,62
202880,note_on,80,0,1,,,,,,,,,0,,,98,0
202920,note_on,0,0,2,,,,,,,,,1,,,80,62
202920,note_on,105,0,4,,,,,,,,,3,,,52,62
202920,note_on,120,0,3,,,,,,,,,2,,,66,0
202920,note_on,0,0,3,,,,,,,,,2,,,68,62
202920,note_on,120,0,2,,,,,,,,,1,,,78,0
202935,note_on,15,0,4,,,,,,,,,3,,,52,0
202959,note_on,0,0,1,,,,,,,,,0,,,95,62
202959,note_on,79,0,1,,,,,,,,,0,,,97,0
203040,control_change,0,0,3,,,,,,,,,2,64,127,,
203040,note_on,120,0,3,,,,,,,,,2,,,68,0
203040,note_on,81,0,1,,,,,,,,,0,,,95,0
203040,control_change,0,0,1,,,,,,,,,0,64,0,,
203040,note_on,0,0,1,,,,,,,,,0,,,97,62
203040,note_on,0,0,2,,,,,,,,,1,,,81,62
203040,control_change,0,0,2,,,,,,,,,1,64,127,,
203040,note_on,120,0,2,,,,,,,,,1,,,80,0
203040,note_on,0,0,3,,,,,,,,,2,,,69,62
203040,note_on,105,0,4,,,,,,,,,3,,,57,62
203160,note_on,0,0,4,,,,,,,,,3,,,52,62
203160,note_on,120,0,4,,,,,,,,,3,,,57,0
203280,note_on,240,0,1,,,,,,,,,0,,,97,0
203280,control_change,0,0,1,,,,,,,,,0,64,127,,
203280,note_on,0,0,1,,,,,,,,,0,,,85,62
203280,note_on,240,0,2,,,,,,,,,1,,,81,0
203280,note_on,0,0,2,,,,,,,,,1,,,85,62
203280,note_on,120,0,4,,,,,,,,,3,,,52,0
203280,note_on,0,0,4,,,,,,,,,3,,,57,62
203280,note_on,0,0,3,,,,,,,,,2,,,73,62
203280,note_on,240,0,3,,,,,,,,,2,,,69,0
203360,note_on,0,0,1,,,,,,,,,0,,,86,62
203360,note_on,80,0,1,,,,,,,,,0,,,85,0
203400,note_on,120,0,4,,,,,,,,,3,,,57,0
203400,note_on,0,0,4,,,,,,,,,3,,,61,62
203400,note_on,120,0,3,,,,,,,,,2,,,73,0
203400,note_on,0,0,3,,,,,,,,,2,,,69,62
203400,note_on,120,0,2,,,,,,,,,1,,,85,0
203400,note_on,0,0,2,,,,,,,,,1,,,81,62
203439,note_on,0,0,1,,,,,,,,,0,,,88,62
203439,note_on,79,0,1,,,,,,,,,0,,,86,0
203520,note_on,120,0,4,,,,,,,,,3,,,61,0
203520,note_on,81,0,1,,,,,,,,,0,,,88,0
203520,note_on,120,0,2,,,,,,,,,1,,,81,0
203520,note_on,0,0,4,,,,,,,,,3,,,59,62
203520,note_on,0,0,2,,,,,,,,,1,,,76,62
203520,note_on,0,0,3,,,,,,,,,2,,,66,62
203520,note_on,120,0,3,,,,,,,,,2,,,69,0
203520,note_on,0,0,1,,,,,,,,,0,,,90,62
203600,note_on,0,0,1,,,,,,,,,0,,,92,62
203600,note_on,80,0,1,,,,,,,,,0,,,90,0
203640,note_on,0,0,4,,,,,,,,,3,,,52,62
203640,note_on,120,0,4,,,,,,,,,3,,,59,0
203679,note_on,79,0,1,,,,,,,,,0,,,92,0
203679,note_on,0,0,1,,,,,,,,,0,,,93,62
203760,note_on,0,0,4,,,,,,,,,3,,,64,62
203760,note_on,120,0,4,,,,,,,,,3,,,52,0
203760,note_on,240,0,3,,,,,,,,,2,,,66,0
203760,control_change,0,0,3,,,,,,,,,2,64,0,,
203760,note_on,0,0,3,,,,,,,,,2,,,68,62
203760,note_on,0,0,2,,,,,,,,,1,,,74,62
203760,note_on,240,0,2,,,,,,,,,1,,,76,0
203760,note_on,81,0,1,,,,,,,,,0,,,93,0
203760,note_on,0,0,1,,,,,,,,,0,,,92,62
203820,note_on,0,0,2,,,,,,,,,1,,,76,62
203820,note_on,60,0,2,,,,,,,,,1,,,74,0
203840,note_on,80,0,1,,,,,,,,,0,,,92,0
203840,note_on,0,0,1,,,,,,,,,0,,,93,62
203880,note_on,0,0,4,,,,,,,,,3,,,52,62
203880,note_on,0,0,2,,,,,,,,,1,,,74,62
203880,note_on,60,0,2,,,,,,,,,1,,,76,0
203880,note_on,120,0,4,,,,,,,,,3,,,64,0
203919,note_on,79,0,1,,,,,,,,,0,,,93,0
203919,control_change,0,0,1,,,,,,,,,0,64,0,,
203919,note_on,0,0,1,,,,,,,,,0,,,95,62
203940,note_on,0,0,2,,,,,,,,,1,,,76,62
203940,control_change,0,0,2,,,,,,,,,1,64,0,,
203940,note_on,60,0,2,,,,,,,,,1,,,74,0
204000,note_on,120,0,4,,,,,,,,,3,,,52,0
204000,note_on,0,0,3,,,,,,,,,2,,,69,62
204000,note_on,240,0,3,,,,,,,,,2,,,68,0
204000,note_on,81,0,1,,,,,,,,,0,,,95,0
204000,note_on,0,0,1,,,,,,,,,0,,,93,62
204000,note_on,0,0,2,,,,,,,,,1,,,73,62
204000,note_on,60,0,2,,,,,,,,,1,,,76,0
204000,note_on,0,0,4,,,,,,,,,3,,,57,62
204120,note_on,0,0,3,,,,,,,,,2,,,64,62
204120,note_on,120,0,3,,,,,,,,,2,,,69,0
204240,note_on,240,0,4,,,,,,,,,3,,,57,0
204240,note_on,0,0,4,,,,,,,,,3,,,42,88
204240,note_on,240,0,1,,,,,,,,,0,,,93,0
204240,note_on,0,0,1,,,,,,,,,0,,,81,88
204240,note_on,0,0,1,,,,,,,,,0,,,86,88
204240,note_on,0,0,4,,,,,,,,,3,,,54,88
204240,note_on,0,0,3,,,,,,,,,2,,,57,88
204240,note_on,120,0,3,,,,,,,,,2,,,64,0
204240,note_on,0,0,2,,,,,,,,,1,,,74,88
204240,note_on,0,0,2,,,,,,,,,1,,,69,88
204240,note_on,240,0,2,,,,,,,,,1,,,73,0
204360,note_on,0,0,3,,,,,,,,,2,,,59,88
204360,note_on,120,0,3,,,,,,,,,2,,,57,0
204480,note_on,0,0,3,,,,,,,,,2,,,61,75
204480,note_on,120,0,3,,,,,,,,,2,,,59,0
204600,note_on,0,0,3,,,,,,,,,2,,,62,75
204600,note_on,120,0,3,,,,,,,,,2,,,61,0
204720,note_on,0,0,1,,,,,,,,,0,,,85,62
204720,note_on,0,0,1,,,,,,,,,0,,,81,62
204720,note_on,0,0,1,,,,,,,,,0,,,81,0
204720,note_on,480,0,1,,,,,,,,,0,,,86,0
204720,note_on,0,0,4,,,,,,,,,3,,,52,62
204720,note_on,0,0,4,,,,,,,,,3,,,40,62
204720,note_on,0,0,3,,,,,,,,,2,,,64,62
204720,note_on,0,0,4,,,,,,,,,3,,,42,0
204720,note_on,120,0,3,,,,,,,,,2,,,62,0
204720,note_on,480,0,4,,,,,,,,,3,,,54,0
204720,note_on,0,0,2,,,,,,,,,1,,,73,62
204720,note_on,480,0,2,,,,,,,,,1,,,74,0
204720,note_on,0,0,2,,,,,,,,,1,,,69,0
204720,note_on,0,0,2,,,,,,,,,1,,,69,62
204720,note_on,0,0,2,,,,,,,,,1,,,76,62
204840,note_on,0,0,3,,,,,,,,,2,,,65,62
204840,note_on,120,0,3,,,,,,,,,2,,,64,0
204960,note_on,0,0,1,,,,,,,,,0,,,81,0
204960,note_on,240,0,1,,,,,,,,,0,,,85,0
204960,note_on,0,0,2,,,,,,,,,1,,,78,62
204960,note_on,0,0,2,,,,,,,,,1,,,73,62
204960,note_on,0,0,2,,,,,,,,,1,,,69,62
204960,note_on,0,0,2,,,,,,,,,1,,,69,0
204960,note_on,0,0,2,,,,,,,,,1,,,73,0
204960,note_on,120,0,3,,,,,,,,,2,,,65,0
204960,note_on,0,0,1,,,,,,,,,0,,,81,62
204960,note_on,0,0,4,,,,,,,,,3,,,50,62
204960,note_on,0,0,4,,,,,,,,,3,,,38,62
204960,note_on,0,0,4,,,,,,,,,3,,,40,0
204960,note_on,240,0,4,,,,,,,,,3,,,52,0
204960,note_on,0,0,3,,,,,,,,,2,,,66,49
204960,note_on,240,0,2,,,,,,,,,1,,,76,0
204960,note_on,0,0,1,,,,,,,,,0,,,85,62
205080,note_on,0,0,3,,,,,,,,,2,,,54,49
205080,note_on,120,0,3,,,,,,,,,2,,,66,0
205200,note_on,240,0,2,,,,,,,,,1,,,73,0
205200,note_on,0,0,1,,,,,,,,,0,,,83,62
205200,note_on,240,0,1,,,,,,,,,0,,,85,0
205200,note_on,0,0,2,,,,,,,,,1,,,71,62
205200,note_on,120,0,3,,,,,,,,,2,,,54,0
205200,note_on,0,0,3,,,,,,,,,2,,,59,49
205320,note_on,120,0,2,,,,,,,,,1,,,71,0
205320,note_on,0,0,2,,,,,,,,,1,,,78,0
205320,note_on,120,0,1,,,,,,,,,0,,,83,0
205320,note_on,0,0,1,,,,,,,,,0,,,81,0
205320,note_on,120,0,3,,,,,,,,,2,,,59,0
205320,note_on,0,0,2,,,,,,,,,1,,,71,62
205320,note_on,0,0,1,,,,,,,,,0,,,83,62
205320,note_on,0,0,2,,,,,,,,,1,,,69,0
205320,note_on,0,0,3,,,,,,,,,2,,,66,49
205440,note_on,120,0,2,,,,,,,,,1,,,71,0
205440,control_change,0,0,2,,,,,,,,,1,64,127,,
205440,note_on,0,0,4,,,,,,,,,3,,,51,62
205440,note_on,0,0,2,,,,,,,,,1,,,73,62
205440,note_on,0,0,4,,,,,,,,,3,,,39,62
205440,note_on,0,0,4,,,,,,,,,3,,,38,0
205440,note_on,480,0,4,,,,,,,,,3,,,50,0
205440,note_on,120,0,3,,,,,,,,,2,,,66,0
205440,note_on,0,0,1,,,,,,,,,0,,,85,62
205440,control_change,0,0,1,,,,,,,,,0,64,127,,
205440,note_on,120,0,1,,,,,,,,,0,,,83,0
205500,note_on,60,0,1,,,,,,,,,0,,,85,0
205500,note_on,0,0,2,,,,,,,,,1,,,71,62
205500,note_on,0,0,1,,,,,,,,,0,,,83,62
205500,note_on,60,0,2,,,,,,,,,1,,,73,0
205560,note_on,0,0,1,,,,,,,,,0,,,81,62
205560,note_on,60,0,1,,,,,,,,,0,,,83,0
205560,note_on,0,0,2,,,,,,,,,1,,,69,62
205560,note_on,60,0,2,,,,,,,,,1,,,71,0
205560,note_on,120,0,3,,,,,,,,,2,,,61,49
205620,note_on,0,0,2,,,,,,,,,1,,,71,62
205620,note_on,60,0,2,,,,,,,,,1,,,69,0
205620,note_on,60,0,1,,,,,,,,,0,,,81,0
205620,note_on,0,0,1,,,,,,,,,0,,,83,62
205680,note_on,0,0,3,,,,,,,,,2,,,57,49
205680,note_on,60,0,2,,,,,,,,,1,,,71,0
205680,note_on,120,0,3,,,,,,,,,2,,,61,0
205680,note_on,0,0,1,,,,,,,,,0,,,85,62
205680,note_on,60,0,1,,,,,,,,,0,,,83,0
205680,note_on,0,0,2,,,,,,,,,1,,,73,62
205800,note_on,120,0,2,,,,,,,,,1,,,73,0
205800,note_on,0,0,3,,,,,,,,,2,,,66,49
205800,note_on,120,0,3,,,,,,,,,2,,,57,0
205800,note_on,0,0,2,,,,,,,,,1,,,69,62
205800,note_on,120,0,1,,,,,,,,,0,,,85,0
205800,control_change,0,0,1,,,,,,,,,0,64,0,,
205800,note_on,0,0,1,,,,,,,,,0,,,81,62
205800,control_change,0,0,2,,,,,,,,,1,64,0,,
205920,note_on,120,0,3,,,,,,,,,2,,,66,0
205920,note_on,120,0,1,,,,,,,,,0,,,81,0
205920,note_on,0,0,1,,,,,,,,,0,,,81,62
205920,note_on,480,0,4,,,,,,,,,3,,,51,0
205920,note_on,0,0,4,,,,,,,,,3,,,52,62
205920,note_on,0,0,4,,,,,,,,,3,,,40,62
205920,control_change,0,0,3,,,,,,,,,2,64,127,,
205920,note_on,0,0,3,,,,,,,,,2,,,64,49
205920,note_on,0,0,2,,,,,,,,,1,,,73,62
205920,note_on,0,0,2,,,,,,,,,1,,,69,62
205920,note_on,120,0,2,,,,,,,,,1,,,69,0
205920,note_on,0,0,4,,,,,,,,,3,,,39,0
205920,note_on,0,0,1,,,,,,,,,0,,,85,62
206040,note_on,120,0,3,,,,,,,,,2,,,64,0
206040,note_on,0,0,3,,,,,,,,,2,,,61,49
206160,note_on,120,0,3,,,,,,,,,2,,,61,0
206160,note_on,0,0,3,,,,,,,,,2,,,62,49
206280,note_on,120,0,3,,,,,,,,,2,,,62,0
206280,note_on,0,0,3,,,,,,,,,2,,,63,49
206400,note_on,480,0,1,,,,,,,,,0,,,85,0
206400,note_on,0,0,1,,,,,,,,,0,,,81,0
206400,note_on,0,0,1,,,,,,,,,0,,,80,62
206400,note_on,0,0,1,,,,,,,,,0,,,83,62
206400,note_on,0,0,2,,,,,,,,,1,,,71,62
206400,note_on,0,0,2,,,,,,,,,1,,,68,62
206400,note_on,120,0,3,,,,,,,,,2,,,63,0
206400,note_on,0,0,3,,,,,,,,,2,,,64,49
206400,note_on,0,0,2,,,,,,,,,1,,,69,0
206400,note_on,480,0,2,,,,,,,,,1,,,73,0
206520,note_on,120,0,3,,,,,,,,,2,,,64,0
206520,control_change,0,0,3,,,,,,,,,2,64,0,,
206520,note_on,0,0,3,,,,,,,,,2,,,56,49
206640,note_on,0,0,4,,,,,,,,,3,,,40,0
206640,note_on,0,0,2,,,,,,,,,1,,,71,62
206640,note_on,0,0,4,,,,,,,,,3,,,52,62
206640,note_on,720,0,4,,,,,,,,,3,,,52,0
206640,note_on,0,0,1,,,,,,,,,0,,,83,62
206640,note_on,0,0,2,,,,,,,,,1,,,68,0
206640,note_on,0,0,2,,,,,,,,,1,,,67,62
206640,note_on,240,0,2,,,,,,,,,1,,,71,0
206640,note_on,0,0,3,,,,,,,,,2,,,57,49
206640,note_on,120,0,3,,,,,,,,,2,,,56,0
206640,note_on,0,0,1,,,,,,,,,0,,,80,0
206640,note_on,240,0,1,,,,,,,,,0,,,83,0
206655,note_on,15,0,3,,,,,,,,,2,,,57,0
206760,note_on,105,0,3,,,,,,,,,2,,,57,49
206775,note_on,15,0,3,,,,,,,,,2,,,57,0
206820,note_on,0,0,2,,,,,,,,,1,,,67,0
206820,note_on,180,0,2,,,,,,,,,1,,,71,0
206820,note_on,180,0,1,,,,,,,,,0,,,83,0
206820,note_on,0,0,1,,,,,,,,,0,,,85,62
206820,note_on,0,0,2,,,,,,,,,1,,,73,62
206880,note_on,60,0,1,,,,,,,,,0,,,85,0
206880,note_on,60,0,2,,,,,,,,,1,,,73,0
206880,note_on,0,0,4,,,,,,,,,3,,,54,62
206880,note_on,240,0,4,,,,,,,,,3,,,52,0
206880,note_on,0,0,2,,,,,,,,,1,,,73,62
206880,note_on,105,0,3,,,,,,,,,2,,,57,49
206880,note_on,0,0,1,,,,,,,,,0,,,81,62
207000,note_on,0,0,3,,,,,,,,,2,,,62,49
207000,note_on,120,0,3,,,,,,,,,2,,,57,0
207120,note_on,240,0,4,,,,,,,,,3,,,54,0
207120,note_on,0,0,4,,,,,,,,,3,,,42,62
207120,note_on,240,0,2,,,,,,,,,1,,,73,0
207120,note_on,0,0,4,,,,,,,,,3,,,54,62
207120,note_on,0,0,2,,,,,,,,,1,,,74,88
207120,note_on,120,0,3,,,,,,,,,2,,,62,0
207120,note_on,0,0,3,,,,,,,,,2,,,57,88
207120,note_on,240,0,1,,,,,,,,,0,,,86,88
207120,note_on,0,0,2,,,,,,,,,1,,,69,88
207240,note_on,120,0,3,,,,,,,,,2,,,57,0
207240,note_on,0,0,3,,,,,,,,,2,,,59,88
207360,note_on,0,0,4,,,,,,,,,3,,,42,0
207360,note_on,240,0,4,,,,,,,,,3,,,54,0
207360,note_on,120,0,3,,,,,,,,,2,,,59,0
207360,note_on,0,0,3,,,,,,,,,2,,,61,75
207360,note_on,0,0,4,,,,,,,,,3,,,53,62
207360,note_on,0,0,4,,,,,,,,,3,,,41,62
207480,note_on,120,0,3,,,,,,,,,2,,,61,0
207480,note_on,0,0,3,,,,,,,,,2,,,62,75
207600,note_on,0,0,1,,,,,,,,,0,,,85,62
207600,note_on,0,0,1,,,,,,,,,0,,,81,62
207600,note_on,0,0,1,,,,,,,,,0,,,81,0
207600,note_on,480,0,1,,,,,,,,,0,,,86,0
207600,note_on,0,0,2,,,,,,,,,1,,,76,62
207600,note_on,0,0,2,,,,,,,,,1,,,73,62
207600,note_on,0,0,4,,,,,,,,,3,,,41,0
207600,note_on,0,0,4,,,,,,,,,3,,,52,62
207600,note_on,0,0,4,,,,,,,,,3,,,40,62
207600,note_on,0,0,2,,,,,,,,,1,,,69,0
207600,note_on,0,0,2,,,,,,,,,1,,,69,62
207600,note_on,0,0,3,,,,,,,,,2,,,64,62
207600,note_on,120,0,3,,,,,,,,,2,,,62,0
207600,note_on,240,0,4,,,,,,,,,3,,,53,0
207600,note_on,480,0,2,,,,,,,,,1,,,74,0
207720,note_on,120,0,3,,,,,,,,,2,,,64,0
207720,note_on,0,0,3,,,,,,,,,2,,,65,62
207840,note_on,120,0,3,,,,,,,,,2,,,65,0
207840,note_on,0,0,2,,,,,,,,,1,,,78,62
207840,note_on,0,0,2,,,,,,,,,1,,,73,62
207840,note_on,0,0,2,,,,,,,,,1,,,69,62
207840,note_on,0,0,2,,,,,,,,,1,,,69,0
207840,note_on,0,0,2,,,,,,,,,1,,,73,0
207840,note_on,240,0,2,,,,,,,,,1,,,76,0
207840,note_on,240,0,4,,,,,,,,,3,,,52,0
207840,note_on,240,0,1,,,,,,,,,0,,,85,0
207840,note_on,0,0,1,,,,,,,,,0,,,81,0
207840,note_on,0,0,1,,,,,,,,,0,,,81,62
207840,note_on,0,0,1,,,,,,,,,0,,,85,62
207840,note_on,0,0,4,,,,,,,,,3,,,50,62
207840,note_on,0,0,4,,,,,,,,,3,,,38,62
207840,note_on,0,0,4,,,,,,,,,3,,,40,0
207840,note_on,0,0,3,,,,,,,,,2,,,66,49
207960,note_on,120,0,3,,,,,,,,,2,,,66,0
207960,note_on,0,0,3,,,,,,,,,2,,,54,49
208080,note_on,0,0,1,,,,,,,,,0,,,83,62
208080,note_on,0,0,3,,,,,,,,,2,,,59,49
208080,note_on,120,0,3,,,,,,,,,2,,,54,0
208080,note_on,240,0,1,,,,,,,,,0,,,85,0
208080,note_on,0,0,2,,,,,,,,,1,,,71,62
208080,note_on,240,0,2,,,,,,,,,1,,,73,0
208200,note_on,0,0,1,,,,,,,,,0,,,83,62
208200,note_on,0,0,1,,,,,,,,,0,,,81,0
208200,note_on,120,0,1,,,,,,,,,0,,,83,0
208200,note_on,0,0,2,,,,,,,,,1,,,69,0
208200,note_on,0,0,2,,,,,,,,,1,,,71,62
208200,note_on,0,0,3,,,,,,,,,2,,,66,49
208200,note_on,120,0,2,,,,,,,,,1,,,71,0
208200,note_on,0,0,2,,,,,,,,,1,,,78,0
208200,note_on,120,0,3,,,,,,,,,2,,,59,0
208320,note_on,120,0,3,,,,,,,,,2,,,66,0
208320,note_on,0,0,2,,,,,,,,,1,,,73,62
208320,control_change,0,0,2,,,,,,,,,1,64,127,,
208320,note_on,0,0,1,,,,,,,,,0,,,85,62
208320,note_on,120,0,1,,,,,,,,,0,,,83,0
208320,control_change,0,0,1,,,,,,,,,0,64,127,,
208320,note_on,480,0,4,,,,,,,,,3,,,50,0
208320,note_on,0,0,4,,,,,,,,,3,,,38,0
208320,note_on,0,0,4,,,,,,,,,3,,,39,62
208320,note_on,0,0,4,,,,,,,,,3,,,51,62
208320,note_on,120,0,2,,,,,,,,,1,,,71,0
208380,note_on,60,0,1,,,,,,,,,0,,,85,0
208380,note_on,0,0,1,,,,,,,,,0,,,83,62
208380,note_on,60,0,2,,,,,,,,,1,,,73,0
208380,note_on,0,0,2,,,,,,,,,1,,,71,62
208440,note_on,60,0,2,,,,,,,,,1,,,71,0
208440,note_on,60,0,1,,,,,,,,,0,,,83,0
208440,note_on,0,0,1,,,,,,,,,0,,,81,62
208440,note_on,120,0,3,,,,,,,,,2,,,61,49
208440,note_on,0,0,2,,,,,,,,,1,,,69,62
208500,note_on,60,0,2,,,,,,,,,1,,,69,0
208500,note_on,0,0,2,,,,,,,,,1,,,71,62
208500,note_on,0,0,1,,,,,,,,,0,,,83,62
208500,note_on,60,0,1,,,,,,,,,0,,,81,0
208560,note_on,0,0,2,,,,,,,,,1,,,73,62
208560,note_on,0,0,1,,,,,,,,,0,,,85,62
208560,note_on,60,0,1,,,,,,,,,0,,,83,0
208560,note_on,0,0,3,,,,,,,,,2,,,57,49
208560,note_on,120,0,3,,,,,,,,,2,,,61,0
208560,note_on,60,0,2,,,,,,,,,1,,,71,0
208680,note_on,120,0,1,,,,,,,,,0,,,85,0
208680,note_on,0,0,3,,,,,,,,,2,,,66,49
208680,note_on,120,0,3,,,,,,,,,2,,,57,0
208680,note_on,120,0,2,,,,,,,,,1,,,73,0
208680,control_change,0,0,2,,,,,,,,,1,64,0,,
208680,note_on,0,0,2,,,,,,,,,1,,,69,62
208680,note_on,0,0,1,,,,,,,,,0,,,81,62
208680,control_change,0,0,1,,,,,,,,,0,64,0,,
208800,note_on,480,0,4,,,,,,,,,3,,,51,0
208800,note_on,120,0,2,,,,,,,,,1,,,69,0
208800,note_on,0,0,1,,,,,,,,,0,,,85,62
208800,note_on,0,0,4,,,,,,,,,3,,,39,0
208800,note_on,0,0,4,,,,,,,,,3,,,40,62
208800,note_on,120,0,1,,,,,,,,,0,,,81,0
208800,note_on,0,0,4,,,,,,,,,3,,,52,62
208800,note_on,120,0,3,,,,,,,,,2,,,66,0
208800,note_on,0,0,1,,,,,,,,,0,,,73,62
208880,note_on,0,0,3,,,,,,,,,2,,,57,49
208880,control_change,80,0,3,,,,,,,,,2,64,127,,
208959,note_on,0,0,3,,,,,,,,,2,,,61,49
208959,note_on,79,0,3,,,,,,,,,2,,,57,0
209040,note_on,240,0,2,,,,,,,,,1,,,69,62
209040,note_on,0,0,2,,,,,,,,,1,,,76,62
209040,note_on,0,0,3,,,,,,,,,2,,,64,49
209040,note_on,81,0,3,,,,,,,,,2,,,61,0
209120,note_on,80,0,3,,,,,,,,,2,,,64,0
209120,note_on,0,0,3,,,,,,,,,2,,,66,49
209199,note_on,0,0,3,,,,,,,,,2,,,64,49
209199,note_on,79,0,3,,,,,,,,,2,,,66,0
209280,note_on,81,0,3,,,,,,,,,2,,,64,0
209280,note_on,0,0,3,,,,,,,,,2,,,63,49
209280,note_on,0,0,2,,,,,,,,,1,,,78,62
209280,note_on,0,0,2,,,,,,,,,1,,,66,62
209280,note_on,0,0,2,,,,,,,,,1,,,69,0
209280,note_on,240,0,2,,,,,,,,,1,,,76,0
209360,note_on,80,0,3,,,,,,,,,2,,,63,0
209360,note_on,0,0,3,,,,,,,,,2,,,64,49
209439,note_on,0,0,3,,,,,,,,,2,,,63,49
209439,note_on,79,0,3,,,,,,,,,2,,,64,0
209520,note_on,81,0,3,,,,,,,,,2,,,63,0
209520,note_on,0,0,3,,,,,,,,,2,,,62,49
209520,note_on,720,0,1,,,,,,,,,0,,,85,0
209520,note_on,0,0,1,,,,,,,,,0,,,73,0
209520,note_on,0,0,1,,,,,,,,,0,,,83,62
209520,note_on,240,0,2,,,,,,,,,1,,,78,0
209520,note_on,0,0,2,,,,,,,,,1,,,66,0
209520,note_on,0,0,2,,,,,,,,,1,,,68,62
209520,note_on,0,0,2,,,,,,,,,1,,,71,62
209520,note_on,0,0,1,,,,,,,,,0,,,80,62
209600,note_on,0,0,3,,,,,,,,,2,,,64,49
209600,note_on,80,0,3,,,,,,,,,2,,,62,0
209679,note_on,79,0,3,,,,,,,,,2,,,64,0
209679,control_change,0,0,3,,,,,,,,,2,64,0,,
209679,note_on,0,0,3,,,,,,,,,2,,,62,49
209760,note_on,0,0,1,,,,,,,,,0,,,80,0
209760,note_on,0,0,1,,,,,,,,,0,,,81,62
209760,note_on,240,0,2,,,,,,,,,1,,,71,0
209760,note_on,0,0,3,,,,,,,,,2,,,61,62
209760,note_on,0,0,4,,,,,,,,,3,,,57,62
209760,control_change,0,0,4,,,,,,,,,3,64,127,,
209760,note_on,0,0,4,,,,,,,,,3,,,40,0
209760,note_on,960,0,4,,,,,,,,,3,,,52,0
209760,note_on,240,0,1,,,,,,,,,0,,,83,0
209760,note_on,0,0,2,,,,,,,,,1,,,68,0
209760,note_on,81,0,3,,,,,,,,,2,,,62,0
209760,note_on,0,0,2,,,,,,,,,1,,,69,62
209880,note_on,120,0,4,,,,,,,,,3,,,57,0
209880,note_on,0,0,4,,,,,,,,,3,,,54,62
210000,note_on,120,0,4,,,,,,,,,3,,,54,0
210000,note_on,0,0,4,,,,,,,,,3,,,52,62
210120,note_on,120,0,4,,,,,,,,,3,,,52,0
210120,note_on,0,0,4,,,,,,,,,3,,,51,62
210240,note_on,480,0,3,,,,,,,,,2,,,61,0
210240,note_on,0,0,4,,,,,,,,,3,,,52,62
210240,note_on,480,0,1,,,,,,,,,0,,,81,0
210240,note_on,480,0,2,,,,,,,,,1,,,69,0
210240,note_on,120,0,4,,,,,,,,,3,,,51,0
210360,note_on,120,0,4,,,,,,,,,3,,,52,0
210360,note_on,0,0,4,,,,,,,,,3,,,50,62
210480,note_on,240,0,3,,,,,,,,,2,,,64,62
210480,note_on,240,0,2,,,,,,,,,1,,,69,62
210480,note_on,0,0,2,,,,,,,,,1,,,73,62
210480,note_on,0,0,4,,,,,,,,,3,,,49,62
210480,note_on,120,0,4,,,,,,,,,3,,,50,0
210600,control_change,0,0,4,,,,,,,,,3,64,0,,
210600,note_on,120,0,4,,,,,,,,,3,,,49,0
210600,note_on,0,0,2,,,,,,,,,1,,,71,62
210600,note_on,0,0,4,,,,,,,,,3,,,47,62
210600,note_on,0,0,2,,,,,,,,,1,,,69,0
210600,note_on,120,0,2,,,,,,,,,1,,,73,0
210600,note_on,0,0,2,,,,,,,,,1,,,74,62
210720,note_on,0,0,2,,,,,,,,,1,,,71,0
210720,note_on,240,0,3,,,,,,,,,2,,,64,0
210720,control_change,0,0,2,,,,,,,,,1,64,127,,
210720,note_on,0,0,2,,,,,,,,,1,,,73,62
210720,note_on,120,0,4,,,,,,,,,3,,,47,0
210720,note_on,0,0,4,,,,,,,,,3,,,45,62
210720,control_change,0,0,4,,,,,,,,,3,64,127,,
210720,note_on,0,0,3,,,,,,,,,2,,,64,62
210720,note_on,0,0,2,,,,,,,,,1,,,76,62
210720,note_on,120,0,2,,,,,,,,,1,,,74,0
210960,note_on,240,0,2,,,,,,,,,1,,,76,0
210960,note_on,0,0,2,,,,,,,,,1,,,73,0
210960,note_on,0,0,2,,,,,,,,,1,,,71,62
210960,note_on,0,0,2,,,,,,,,,1,,,74,62
211080,note_on,120,0,2,,,,,,,,,1,,,74,0
211080,note_on,0,0,2,,,,,,,,,1,,,71,0
211080,note_on,0,0,2,,,,,,,,,1,,,69,62
211080,note_on,0,0,2,,,,,,,,,1,,,73,62
211080,note_on,360,0,4,,,,,,,,,3,,,45,0
211080,note_on,0,0,4,,,,,,,,,3,,,49,62
211200,note_on,120,0,4,,,,,,,,,3,,,49,0
211200,note_on,0,0,4,,,,,,,,,3,,,52,62
211200,note_on,0,0,3,,,,,,,,,2,,,64,62
211200,note_on,480,0,3,,,,,,,,,2,,,64,0
211200,note_on,120,0,2,,,,,,,,,1,,,73,0
211200,note_on,0,0,2,,,,,,,,,1,,,69,0
211200,note_on,0,0,2,,,,,,,,,1,,,68,62
211200,note_on,0,0,2,,,,,,,,,1,,,71,62
211440,note_on,240,0,3,,,,,,,,,2,,,64,0
211440,note_on,240,0,2,,,,,,,,,1,,,71,0
211440,note_on,0,0,2,,,,,,,,,1,,,68,0
211440,control_change,0,0,2,,,,,,,,,1,64,0,,
211440,note_on,0,0,2,,,,,,,,,1,,,73,62
211440,note_on,0,0,3,,,,,,,,,2,,,64,62
211440,note_on,0,0,4,,,,,,,,,3,,,50,62
211440,note_on,240,0,4,,,,,,,,,3,,,52,0
211440,note_on,0,0,2,,,,,,,,,1,,,70,62
211560,note_on,0,0,4,,,,,,,,,3,,,49,62
211560,control_change,0,0,4,,,,,,,,,3,64,0,,
211560,note_on,120,0,4,,,,,,,,,3,,,50,0
211680,note_on,240,0,2,,,,,,,,,1,,,73,0
211680,note_on,0,0,2,,,,,,,,,1,,,70,0
211680,note_on,0,0,2,,,,,,,,,1,,,71,62
211680,note_on,0,0,2,,,,,,,,,1,,,74,62
211680,note_on,240,0,3,,,,,,,,,2,,,64,0
211680,note_on,0,0,3,,,,,,,,,2,,,66,62
211680,note_on,0,0,4,,,,,,,,,3,,,47,62
211680,note_on,120,0,4,,,,,,,,,3,,,49,0
212160,note_on,480,0,3,,,,,,,,,2,,,66,0
212160,note_on,0,0,3,,,,,,,,,2,,,66,88
212160,note_on,0,0,4,,,,,,,,,3,,,54,88
212160,note_on,480,0,4,,,,,,,,,3,,,47,0
212160,note_on,0,0,2,,,,,,,,,1,,,71,0
212160,note_on,0,0,2,,,,,,,,,1,,,70,88
212160,note_on,0,0,2,,,,,,,,,1,,,73,88
212160,note_on,480,0,2,,,,,,,,,1,,,74,0
212640,note_on,480,0,3,,,,,,,,,2,,,66,0
212640,note_on,0,0,2,,,,,,,,,1,,,71,62
212640,control_change,0,0,4,,,,,,,,,3,64,127,,
212640,note_on,0,0,4,,,,,,,,,3,,,47,62
212640,note_on,0,0,2,,,,,,,,,1,,,74,62
212640,note_on,0,0,2,,,,,,,,,1,,,70,0
212640,note_on,480,0,2,,,,,,,,,1,,,73,0
212640,note_on,0,0,3,,,,,,,,,2,,,66,62
212640,note_on,480,0,4,,,,,,,,,3,,,54,0
212640,control_change,0,0,2,,,,,,,,,1,64,127,,
212760,note_on,120,0,4,,,,,,,,,3,,,47,0
212760,note_on,0,0,4,,,,,,,,,3,,,49,62
212880,note_on,120,0,4,,,,,,,,,3,,,49,0
212880,note_on,240,0,2,,,,,,,,,1,,,74,0
212880,note_on,0,0,2,,,,,,,,,1,,,78,62
212880,note_on,0,0,4,,,,,,,,,3,,,50,62
212880,note_on,0,0,2,,,,,,,,,1,,,71,0
212880,note_on,0,0,2,,,,,,,,,1,,,74,62
212880,note_on,0,0,3,,,,,,,,,2,,,66,62
212880,note_on,240,0,3,,,,,,,,,2,,,66,0
213000,note_on,0,0,2,,,,,,,,,1,,,76,62
213000,note_on,0,0,2,,,,,,,,,1,,,73,62
213000,note_on,120,0,3,,,,,,,,,2,,,66,0
213000,note_on,120,0,4,,,,,,,,,3,,,50,0
213000,note_on,0,0,2,,,,,,,,,1,,,74,0
213000,note_on,0,0,3,,,,,,,,,2,,,67,62
213000,note_on,0,0,4,,,,,,,,,3,,,52,62
213000,control_change,0,0,4,,,,,,,,,3,64,0,,
213000,note_on,120,0,2,,,,,,,,,1,,,78,0
213120,note_on,0,0,2,,,,,,,,,1,,,74,62
213120,note_on,0,0,2,,,,,,,,,1,,,71,62
213120,note_on,120,0,2,,,,,,,,,1,,,76,0
213120,note_on,120,0,3,,,,,,,,,2,,,67,0
213120,note_on,0,0,4,,,,,,,,,3,,,54,62
213120,control_change,0,0,4,,,,,,,,,3,64,127,,
213120,note_on,120,0,4,,,,,,,,,3,,,52,0
213120,note_on,0,0,3,,,,,,,,,2,,,66,62
213120,note_on,0,0,2,,,,,,,,,1,,,73,0
213360,note_on,240,0,2,,,,,,,,,1,,,74,0
213360,note_on,0,0,2,,,,,,,,,1,,,71,0
213360,control_change,0,0,2,,,,,,,,,1,64,0,,
213360,note_on,0,0,2,,,,,,,,,1,,,70,62
213360,note_on,0,0,2,,,,,,,,,1,,,73,62
213360,note_on,0,0,4,,,,,,,,,3,,,54,62
213360,note_on,240,0,4,,,,,,,,,3,,,54,0
213360,note_on,240,0,3,,,,,,,,,2,,,66,0
213360,note_on,0,0,3,,,,,,,,,2,,,66,62
213360,control_change,0,0,4,,,,,,,,,3,64,0,,
213600,note_on,0,0,2,,,,,,,,,1,,,74,62
213600,note_on,240,0,3,,,,,,,,,2,,,66,0
213600,note_on,0,0,3,,,,,,,,,2,,,66,62
213600,note_on,0,0,2,,,,,,,,,1,,,71,62
213600,control_change,0,0,2,,,,,,,,,1,64,127,,
213600,note_on,0,0,2,,,,,,,,,1,,,70,0
213600,note_on,240,0,2,,,,,,,,,1,,,73,0
213600,note_on,240,0,4,,,,,,,,,3,,,54,0
213600,control_change,0,0,4,,,,,,,,,3,64,127,,
213600,note_on,0,0,4,,,,,,,,,3,,,50,62
213720,note_on,120,0,4,,,,,,,,,3,,,50,0
213720,note_on,0,0,4,,,,,,,,,3,,,47,62
213840,note_on,120,0,4,,,,,,,,,3,,,47,0
213840,note_on,0,0,4,,,,,,,,,3,,,49,62
213840,note_on,0,0,3,,,,,,,,,2,,,64,62
213840,note_on,240,0,3,,,,,,,,,2,,,66,0
213840,note_on,240,0,2,,,,,,,,,1,,,74,0
213840,note_on,0,0,2,,,,,,,,,1,,,71,0
213840,note_on,0,0,2,,,,,,,,,1,,,69,62
213840,note_on,0,0,2,,,,,,,,,1,,,76,62
213960,note_on,120,0,4,,,,,,,,,3,,,49,0
213960,control_change,0,0,4,,,,,,,,,3,64,0,,
213960,note_on,0,0,4,,,,,,,,,3,,,50,62
213960,note_on,0,0,2,,,,,,,,,1,,,69,0
213960,note_on,0,0,2,,,,,,,,,1,,,74,62
213960,note_on,120,0,2,,,,,,,,,1,,,76,0
213960,note_on,120,0,3,,,,,,,,,2,,,64,0
213960,note_on,0,0,3,,,,,,,,,2,,,66,62
214080,note_on,0,0,2,,,,,,,,,1,,,73,62
214080,note_on,120,0,3,,,,,,,,,2,,,66,0
214080,note_on,0,0,3,,,,,,,,,2,,,64,62
214080,note_on,120,0,2,,,,,,,,,1,,,74,0
214080,note_on,120,0,4,,,,,,,,,3,,,50,0
214080,control_change,0,0,4,,,,,,,,,3,64,127,,
214080,note_on,0,0,4,,,,,,,,,3,,,52,62
214320,note_on,240,0,2,,,,,,,,,1,,,73,0
214320,control_change,0,0,2,,,,,,,,,1,64,0,,
214320,note_on,0,0,2,,,,,,,,,1,,,68,62
214320,note_on,0,0,2,,,,,,,,,1,,,71,62
214320,note_on,0,0,4,,,,,,,,,3,,,52,62
214320,note_on,240,0,4,,,,,,,,,3,,,52,0
214320,note_on,0,0,3,,,,,,,,,2,,,64,62
214320,note_on,240,0,3,,,,,,,,,2,,,64,0
214320,control_change,0,0,4,,,,,,,,,3,64,0,,
214560,note_on,240,0,4,,,,,,,,,3,,,52,0
214560,note_on,0,0,2,,,,,,,,,1,,,73,62
214560,note_on,0,0,2,,,,,,,,,1,,,69,62
214560,note_on,0,0,2,,,,,,,,,1,,,68,0
214560,note_on,240,0,2,,,,,,,,,1,,,71,0
214560,note_on,0,0,3,,,,,,,,,2,,,64,62
214560,note_on,240,0,3,,,,,,,,,2,,,64,0
214560,note_on,0,0,4,,,,,,,,,3,,,45,62
214560,control_change,0,0,4,,,,,,,,,3,64,127,,
214800,note_on,0,0,2,,,,,,,,,1,,,69,0
214800,note_on,0,0,2,,,,,,,,,1,,,69,62
214800,note_on,240,0,2,,,,,,,,,1,,,73,0
214800,note_on,0,0,4,,,,,,,,,3,,,49,62
214800,note_on,240,0,4,,,,,,,,,3,,,45,0
214800,note_on,0,0,3,,,,,,,,,2,,,64,62
214800,note_on,240,0,3,,,,,,,,,2,,,64,0
215040,control_change,0,0,3,,,,,,,,,2,64,127,,
215040,note_on,240,0,4,,,,,,,,,3,,,49,0
215040,note_on,0,0,4,,,,,,,,,3,,,52,62
215040,note_on,240,0,3,,,,,,,,,2,,,64,0
215040,note_on,0,0,2,,,,,,,,,1,,,71,62
215040,note_on,0,0,3,,,,,,,,,2,,,64,62
215040,note_on,0,0,2,,,,,,,,,1,,,68,62
215040,note_on,240,0,2,,,,,,,,,1,,,69,0
215160,note_on,0,0,3,,,,,,,,,2,,,62,62
215160,note_on,0,0,4,,,,,,,,,3,,,50,62
215160,note_on,120,0,4,,,,,,,,,3,,,52,0
215160,note_on,120,0,3,,,,,,,,,2,,,64,0
215280,note_on,0,0,2,,,,,,,,,1,,,73,62
215280,note_on,0,0,2,,,,,,,,,1,,,69,62
215280,note_on,0,0,2,,,,,,,,,1,,,68,0
215280,note_on,5040,0,1,,,,,,,,,0,,,81,62
215280,note_on,240,0,2,,,,,,,,,1,,,71,0
215280,note_on,120,0,3,,,,,,,,,2,,,62,0
215280,note_on,0,0,3,,,,,,,,,2,,,61,62
215280,note_on,120,0,4,,,,,,,,,3,,,50,0
215280,note_on,0,0,1,,,,,,,,,0,,,85,62
215280,note_on,0,0,4,,,,,,,,,3,,,49,62
215400,control_change,0,0,4,,,,,,,,,3,64,0,,
215400,note_on,0,0,4,,,,,,,,,3,,,47,62
215400,note_on,0,0,2,,,,,,,,,1,,,74,62
215400,note_on,0,0,2,,,,,,,,,1,,,71,62
215400,note_on,0,0,2,,,,,,,,,1,,,69,0
215400,note_on,120,0,2,,,,,,,,,1,,,73,0
215400,note_on,120,0,4,,,,,,,,,3,,,49,0
215400,note_on,0,0,1,,,,,,,,,0,,,81,0
215400,note_on,120,0,3,,,,,,,,,2,,,61,0
215400,control_change,0,0,3,,,,,,,,,2,64,0,,
215400,note_on,0,0,3,,,,,,,,,2,,,59,62
215400,note_on,120,0,1,,,,,,,,,0,,,85,0
215400,note_on,0,0,1,,,,,,,,,0,,,83,62
215400,note_on,0,0,1,,,,,,,,,0,,,86,62
215520,control_change,0,0,2,,,,,,,,,1,64,127,,
215520,note_on,0,0,2,,,,,,,,,1,,,73,62
215520,note_on,0,0,2,,,,,,,,,1,,,76,62
215520,note_on,0,0,1,,,,,,,,,0,,,83,0
215520,control_change,0,0,1,,,,,,,,,0,64,127,,
215520,note_on,0,0,1,,,,,,,,,0,,,85,62
215520,note_on,120,0,4,,,,,,,,,3,,,47,0
215520,control_change,0,0,4,,,,,,,,,3,64,127,,
215520,note_on,0,0,2,,,,,,,,,1,,,71,0
215520,note_on,120,0,2,,,,,,,,,1,,,74,0
215520,note_on,0,0,4,,,,,,,,,3,,,57,62
215520,note_on,0,0,4,,,,,,,,,3,,,45,62
215520,note_on,120,0,1,,,,,,,,,0,,,86,0
215520,note_on,0,0,3,,,,,,,,,2,,,64,62
215520,control_change,0,0,3,,,,,,,,,2,64,127,,
215520,note_on,120,0,3,,,,,,,,,2,,,59,0
215520,note_on,0,0,1,,,,,,,,,0,,,88,62
215760,note_on,240,0,1,,,,,,,,,0,,,88,0
215760,note_on,0,0,1,,,,,,,,,0,,,85,0
215760,note_on,0,0,1,,,,,,,,,0,,,83,62
215760,note_on,0,0,1,,,,,,,,,0,,,86,62
215760,note_on,240,0,2,,,,,,,,,1,,,76,0
215760,note_on,0,0,2,,,,,,,,,1,,,73,0
215760,note_on,0,0,2,,,,,,,,,1,,,71,62
215760,note_on,0,0,2,,,,,,,,,1,,,74,62
215880,note_on,0,0,1,,,,,,,,,0,,,85,62
215880,note_on,0,0,2,,,,,,,,,1,,,69,62
215880,note_on,0,0,4,,,,,,,,,3,,,61,62
215880,note_on,0,0,4,,,,,,,,,3,,,49,62
215880,note_on,0,0,4,,,,,,,,,3,,,45,0
215880,note_on,360,0,4,,,,,,,,,3,,,57,0
215880,note_on,120,0,1,,,,,,,,,0,,,86,0
215880,note_on,120,0,2,,,,,,,,,1,,,74,0
215880,note_on,0,0,1,,,,,,,,,0,,,83,0
215880,note_on,0,0,1,,,,,,,,,0,,,81,62
215880,note_on,0,0,2,,,,,,,,,1,,,73,62
215880,note_on,0,0,2,,,,,,,,,1,,,71,0
216000,note_on,120,0,1,,,,,,,,,0,,,85,0
216000,note_on,0,0,1,,,,,,,,,0,,,81,0
216000,note_on,0,0,1,,,,,,,,,0,,,80,62
216000,note_on,0,0,1,,,,,,,,,0,,,83,62
216000,note_on,0,0,4,,,,,,,,,3,,,49,0
216000,note_on,120,0,4,,,,,,,,,3,,,61,0
216000,note_on,480,0,3,,,,,,,,,2,,,64,0
216000,note_on,0,0,3,,,,,,,,,2,,,64,62
216000,note_on,0,0,4,,,,,,,,,3,,,52,62
216000,note_on,0,0,2,,,,,,,,,1,,,68,62
216000,note_on,0,0,2,,,,,,,,,1,,,76,62
216000,note_on,0,0,2,,,,,,,,,1,,,69,0
216000,note_on,120,0,2,,,,,,,,,1,,,73,0
216000,note_on,0,0,2,,,,,,,,,1,,,71,62
216240,note_on,240,0,4,,,,,,,,,3,,,52,0
216240,note_on,0,0,4,,,,,,,,,3,,,50,62
216240,note_on,0,0,1,,,,,,,,,0,,,80,0
216240,note_on,0,0,2,,,,,,,,,1,,,70,62
216240,control_change,0,0,2,,,,,,,,,1,64,0,,
216240,note_on,0,0,2,,,,,,,,,1,,,68,0
216240,note_on,0,0,2,,,,,,,,,1,,,71,0
216240,note_on,240,0,2,,,,,,,,,1,,,76,0
216240,control_change,0,0,1,,,,,,,,,0,64,0,,
216240,note_on,0,0,1,,,,,,,,,0,,,85,62
216240,note_on,0,0,1,,,,,,,,,0,,,82,62
216240,note_on,0,0,1,,,,,,,,,0,,,78,62
216240,note_on,240,0,1,,,,,,,,,0,,,83,0
216240,note_on,0,0,3,,,,,,,,,2,,,64,62
216240,note_on,0,0,3,,,,,,,,,2,,,62,62
216240,note_on,240,0,3,,,,,,,,,2,,,64,0
216240,note_on,0,0,2,,,,,,,,,1,,,73,62
216360,note_on,120,0,4,,,,,,,,,3,,,50,0
216360,note_on,0,0,4,,,,,,,,,3,,,49,62
216360,control_change,0,0,4,,,,,,,,,3,64,0,,
216360,note_on,0,0,3,,,,,,,,,2,,,61,62
216360,control_change,0,0,3,,,,,,,,,2,64,0,,
216360,note_on,0,0,3,,,,,,,,,2,,,62,0
216360,note_on,120,0,3,,,,,,,,,2,,,64,0
216480,note_on,0,0,2,,,,,,,,,1,,,71,62
216480,note_on,0,0,3,,,,,,,,,2,,,66,62
216480,note_on,0,0,1,,,,,,,,,0,,,86,62
216480,note_on,0,0,1,,,,,,,,,0,,,78,0
216480,note_on,0,0,2,,,,,,,,,1,,,74,62
216480,note_on,120,0,3,,,,,,,,,2,,,61,0
216480,note_on,0,0,3,,,,,,,,,2,,,59,62
216480,note_on,240,0,2,,,,,,,,,1,,,73,0
216480,note_on,0,0,4,,,,,,,,,3,,,47,62
216480,note_on,120,0,4,,,,,,,,,3,,,49,0
216480,note_on,0,0,1,,,,,,,,,0,,,83,62
216480,note_on,0,0,1,,,,,,,,,0,,,78,62
216480,note_on,240,0,1,,,,,,,,,0,,,85,0
216480,note_on,0,0,1,,,,,,,,,0,,,82,0
216480,note_on,0,0,2,,,,,,,,,1,,,70,0
216960,note_on,480,0,3,,,,,,,,,2,,,66,0
216960,note_on,0,0,1,,,,,,,,,0,,,82,88
216960,note_on,0,0,4,,,,,,,,,3,,,54,88
216960,note_on,480,0,4,,,,,,,,,3,,,47,0
216960,note_on,480,0,1,,,,,,,,,0,,,86,0
216960,note_on,0,0,3,,,,,,,,,2,,,59,0
216960,note_on,0,0,1,,,,,,,,,0,,,83,0
216960,note_on,0,0,1,,,,,,,,,0,,,78,0
216960,note_on,0,0,3,,,,,,,,,2,,,66,88
216960,note_on,0,0,2,,,,,,,,,1,,,71,0
216960,note_on,0,0,2,,,,,,,,,1,,,70,88
216960,note_on,0,0,2,,,,,,,,,1,,,73,88
216960,note_on,480,0,2,,,,,,,,,1,,,74,0
216960,note_on,0,0,1,,,,,,,,,0,,,78,88
216960,note_on,0,0,1,,,,,,,,,0,,,85,88
217440,note_on,480,0,2,,,,,,,,,1,,,73,0
217440,control_change,0,0,2,,,,,,,,,1,64,127,,
217440,note_on,0,0,2,,,,,,,,,1,,,71,62
217440,note_on,0,0,2,,,,,,,,,1,,,74,62
217440,control_change,0,0,1,,,,,,,,,0,64,127,,
217440,note_on,0,0,1,,,,,,,,,0,,,86,62
217440,note_on,0,0,1,,,,,,,,,0,,,83,62
217440,note_on,0,0,3,,,,,,,,,2,,,66,62
217440,note_on,0,0,1,,,,,,,,,0,,,74,62
217440,note_on,0,0,1,,,,,,,,,0,,,78,0
217440,note_on,0,0,1,,,,,,,,,0,,,82,0
217440,note_on,480,0,1,,,,,,,,,0,,,85,0
217440,note_on,0,0,2,,,,,,,,,1,,,70,0
217440,note_on,480,0,3,,,,,,,,,2,,,66,0
217440,note_on,480,0,4,,,,,,,,,3,,,54,0
217440,note_on,0,0,4,,,,,,,,,3,,,47,62
217440,note_on,0,0,4,,,,,,,,,3,,,59,62
217560,note_on,120,0,4,,,,,,,,,3,,,59,0
217560,note_on,0,0,4,,,,,,,,,3,,,47,0
217560,note_on,0,0,4,,,,,,,,,3,,,49,62
217560,note_on,0,0,4,,,,,,,,,3,,,61,62
217680,note_on,0,0,1,,,,,,,,,0,,,74,0
217680,note_on,0,0,3,,,,,,,,,2,,,62,62
217680,note_on,120,0,4,,,,,,,,,3,,,61,0
217680,note_on,0,0,4,,,,,,,,,3,,,49,0
217680,note_on,0,0,4,,,,,,,,,3,,,50,62
217680,note_on,0,0,1,,,,,,,,,0,,,83,62
217680,note_on,0,0,3,,,,,,,,,2,,,66,62
217680,note_on,240,0,1,,,,,,,,,0,,,86,0
217680,note_on,0,0,2,,,,,,,,,1,,,78,62
217680,note_on,0,0,2,,,,,,,,,1,,,71,62
217680,note_on,0,0,2,,,,,,,,,1,,,71,0
217680,note_on,240,0,2,,,,,,,,,1,,,74,0
217680,note_on,0,0,1,,,,,,,,,0,,,90,62
217680,note_on,240,0,3,,,,,,,,,2,,,66,0
217680,note_on,0,0,1,,,,,,,,,0,,,83,0
217800,note_on,0,0,4,,,,,,,,,3,,,52,62
217800,note_on,0,0,2,,,,,,,,,1,,,76,62
217800,note_on,0,0,2,,,,,,,,,1,,,71,0
217800,note_on,120,0,2,,,,,,,,,1,,,78,0
217800,note_on,0,0,1,,,,,,,,,0,,,88,62
217800,note_on,0,0,1,,,,,,,,,0,,,83,0
217800,note_on,120,0,1,,,,,,,,,0,,,90,0
217800,note_on,120,0,3,,,,,,,,,2,,,66,0
217800,note_on,120,0,4,,,,,,,,,3,,,50,0
217800,note_on,0,0,3,,,,,,,,,2,,,67,62
217800,note_on,0,0,3,,,,,,,,,2,,,62,0
217800,note_on,0,0,3,,,,,,,,,2,,,64,62
217920,note_on,120,0,3,,,,,,,,,2,,,67,0
217920,note_on,120,0,2,,,,,,,,,1,,,76,0
217920,note_on,0,0,2,,,,,,,,,1,,,74,62
217920,note_on,0,0,4,,,,,,,,,3,,,54,62
217920,note_on,0,0,1,,,,,,,,,0,,,86,62
217920,note_on,0,0,1,,,,,,,,,0,,,83,62
217920,note_on,120,0,1,,,,,,,,,0,,,88,0
217920,note_on,120,0,4,,,,,,,,,3,,,52,0
217920,note_on,0,0,3,,,,,,,,,2,,,64,0
217920,note_on,0,0,3,,,,,,,,,2,,,66,62
218160,note_on,0,0,3,,,,,,,,,2,,,66,62
218160,note_on,0,0,2,,,,,,,,,1,,,73,62
218160,note_on,0,0,2,,,,,,,,,1,,,70,62
218160,note_on,0,0,4,,,,,,,,,3,,,54,62
218160,note_on,240,0,4,,,,,,,,,3,,,54,0
218160,note_on,240,0,1,,,,,,,,,0,,,86,0
218160,note_on,240,0,2,,,,,,,,,1,,,74,0
218160,control_change,0,0,1,,,,,,,,,0,64,0,,
218160,control_change,0,0,2,,,,,,,,,1,64,0,,
218160,note_on,0,0,1,,,,,,,,,0,,,85,62
218160,note_on,240,0,3,,,,,,,,,2,,,66,0
218160,note_on,0,0,1,,,,,,,,,0,,,83,0
218160,note_on,0,0,1,,,,,,,,,0,,,82,62
218400,note_on,0,0,1,,,,,,,,,0,,,82,0
218400,note_on,240,0,2,,,,,,,,,1,,,73,0
218400,note_on,0,0,4,,,,,,,,,3,,,50,62
218400,note_on,240,0,4,,,,,,,,,3,,,54,0
218400,control_change,0,0,1,,,,,,,,,0,64,127,,
218400,note_on,0,0,4,,,,,,,,,3,,,62,62
218400,note_on,0,0,1,,,,,,,,,0,,,83,62
218400,note_on,240,0,1,,,,,,,,,0,,,85,0
218400,note_on,240,0,3,,,,,,,,,2,,,66,0
218400,note_on,0,0,3,,,,,,,,,2,,,66,62
218400,note_on,0,0,2,,,,,,,,,1,,,70,0
218400,control_change,0,0,2,,,,,,,,,1,64,127,,
218400,note_on,0,0,2,,,,,,,,,1,,,71,62
218400,note_on,0,0,2,,,,,,,,,1,,,74,62
218400,note_on,0,0,1,,,,,,,,,0,,,86,62
218520,note_on,120,0,4,,,,,,,,,3,,,62,0
218520,note_on,0,0,4,,,,,,,,,3,,,59,62
218520,note_on,0,0,4,,,,,,,,,3,,,47,62
218520,note_on,0,0,4,,,,,,,,,3,,,50,0
218640,note_on,0,0,2,,,,,,,,,1,,,76,62
218640,note_on,0,0,2,,,,,,,,,1,,,69,62
218640,note_on,0,0,1,,,,,,,,,0,,,81,62
218640,note_on,240,0,2,,,,,,,,,1,,,74,0
218640,note_on,0,0,1,,,,,,,,,0,,,88,62
218640,note_on,0,0,2,,,,,,,,,1,,,71,0
218640,note_on,0,0,1,,,,,,,,,0,,,83,0
218640,note_on,240,0,1,,,,,,,,,0,,,86,0
218640,note_on,0,0,4,,,,,,,,,3,,,47,0
218640,note_on,0,0,4,,,,,,,,,3,,,49,62
218640,note_on,240,0,3,,,,,,,,,2,,,66,0
218640,note_on,0,0,3,,,,,,,,,2,,,61,62
218640,note_on,0,0,3,,,,,,,,,2,,,64,62
218640,note_on,120,0,4,,,,,,,,,3,,,59,0
218760,note_on,0,0,1,,,,,,,,,0,,,83,62
218760,note_on,0,0,3,,,,,,,,,2,,,61,0
218760,note_on,120,0,1,,,,,,,,,0,,,88,0
218760,note_on,0,0,2,,,,,,,,,1,,,69,0
218760,note_on,0,0,2,,,,,,,,,1,,,71,62
218760,note_on,0,0,2,,,,,,,,,1,,,74,62
218760,note_on,0,0,1,,,,,,,,,0,,,81,0
218760,note_on,120,0,3,,,,,,,,,2,,,64,0
218760,note_on,0,0,1,,,,,,,,,0,,,86,62
218760,note_on,120,0,4,,,,,,,,,3,,,49,0
218760,note_on,0,0,4,,,,,,,,,3,,,50,62
218760,note_on,0,0,3,,,,,,,,,2,,,66,62
218760,note_on,0,0,3,,,,,,,,,2,,,62,62
218760,note_on,120,0,2,,,,,,,,,1,,,76,0
218880,note_on,0,0,1,,,,,,,,,0,,,85,62
218880,note_on,0,0,1,,,,,,,,,0,,,81,62
218880,note_on,0,0,2,,,,,,,,,1,,,69,62
218880,note_on,120,0,1,,,,,,,,,0,,,86,0
218880,note_on,120,0,3,,,,,,,,,2,,,66,0
218880,note_on,0,0,3,,,,,,,,,2,,,62,0
218880,note_on,0,0,1,,,,,,,,,0,,,83,0
218880,note_on,0,0,4,,,,,,,,,3,,,52,62
218880,note_on,120,0,4,,,,,,,,,3,,,50,0
218880,note_on,0,0,3,,,,,,,,,2,,,64,62
218880,note_on,0,0,2,,,,,,,,,1,,,73,62
218880,note_on,0,0,2,,,,,,,,,1,,,71,0
218880,note_on,120,0,2,,,,,,,,,1,,,74,0
219120,control_change,0,0,2,,,,,,,,,1,64,0,,
219120,control_change,0,0,1,,,,,,,,,0,64,0,,
219120,note_on,0,0,1,,,,,,,,,0,,,83,62
219120,note_on,0,0,1,,,,,,,,,0,,,80,62
219120,note_on,0,0,1,,,,,,,,,0,,,81,0
219120,note_on,240,0,1,,,,,,,,,0,,,85,0
219120,note_on,240,0,3,,,,,,,,,2,,,64,0
219120,note_on,0,0,3,,,,,,,,,2,,,64,62
219120,note_on,0,0,4,,,,,,,,,3,,,52,62
219120,note_on,240,0,2,,,,,,,,,1,,,73,0
219120,note_on,0,0,2,,,,,,,,,1,,,71,62
219120,note_on,0,0,2,,,,,,,,,1,,,68,62
219120,note_on,0,0,2,,,,,,,,,1,,,69,0
219120,note_on,240,0,4,,,,,,,,,3,,,52,0
219360,note_on,0,0,4,,,,,,,,,3,,,45,62
219360,note_on,240,0,4,,,,,,,,,3,,,52,0
219360,note_on,0,0,1,,,,,,,,,0,,,80,0
219360,note_on,0,0,2,,,,,,,,,1,,,68,0
219360,note_on,0,0,2,,,,,,,,,1,,,69,62
219360,note_on,0,0,1,,,,,,,,,0,,,81,62
219360,note_on,0,0,3,,,,,,,,,2,,,64,62
219360,note_on,0,0,3,,,,,,,,,2,,,57,62
219360,note_on,240,0,3,,,,,,,,,2,,,64,0
219360,note_on,0,0,1,,,,,,,,,0,,,85,62
219360,note_on,240,0,1,,,,,,,,,0,,,83,0
219360,note_on,240,0,2,,,,,,,,,1,,,71,0
219360,note_on,0,0,2,,,,,,,,,1,,,73,62
219600,note_on,0,0,4,,,,,,,,,3,,,49,62
219600,note_on,0,0,2,,,,,,,,,1,,,69,0
219600,note_on,0,0,2,,,,,,,,,1,,,69,62
219600,note_on,0,0,3,,,,,,,,,2,,,64,62
219600,note_on,0,0,3,,,,,,,,,2,,,57,0
219600,note_on,240,0,3,,,,,,,,,2,,,64,0
219600,note_on,240,0,1,,,,,,,,,0,,,85,0
219600,note_on,0,0,1,,,,,,,,,0,,,81,0
219600,note_on,0,0,1,,,,,,,,,0,,,76,62
219600,note_on,0,0,1,,,,,,,,,0,,,81,62
219600,note_on,240,0,4,,,,,,,,,3,,,45,0
219600,note_on,240,0,2,,,,,,,,,1,,,73,0
219600,note_on,0,0,3,,,,,,,,,2,,,61,62
219840,note_on,240,0,1,,,,,,,,,0,,,81,0
219840,note_on,0,0,1,,,,,,,,,0,,,76,0
219840,note_on,0,0,1,,,,,,,,,0,,,76,62
219840,note_on,0,0,1,,,,,,,,,0,,,83,62
219840,note_on,240,0,2,,,,,,,,,1,,,69,0
219840,note_on,0,0,2,,,,,,,,,1,,,68,62
219840,note_on,0,0,2,,,,,,,,,1,,,71,62
219840,note_on,240,0,4,,,,,,,,,3,,,49,0
219840,note_on,0,0,3,,,,,,,,,2,,,64,62
219840,control_change,0,0,3,,,,,,,,,2,64,127,,
219840,note_on,0,0,3,,,,,,,,,2,,,61,0
219840,note_on,240,0,3,,,,,,,,,2,,,64,0
219840,note_on,0,0,1,,,,,,,,,0,,,80,62
219840,note_on,0,0,4,,,,,,,,,3,,,52,62
219960,note_on,0,0,3,,,,,,,,,2,,,62,62
219960,note_on,120,0,3,,,,,,,,,2,,,64,0
220080,note_on,120,0,3,,,,,,,,,2,,,62,0
220080,note_on,0,0,3,,,,,,,,,2,,,61,62
220200,note_on,0,0,3,,,,,,,,,2,,,59,62
220200,control_change,0,0,3,,,,,,,,,2,64,0,,
220200,note_on,120,0,3,,,,,,,,,2,,,61,0
220320,note_on,0,0,3,,,,,,,,,2,,,61,62
220320,note_on,480,0,1,,,,,,,,,0,,,83,0
220320,note_on,0,0,1,,,,,,,,,0,,,80,0
220320,note_on,0,0,2,,,,,,,,,1,,,70,75
220320,note_on,0,0,2,,,,,,,,,1,,,68,0
220320,note_on,480,0,2,,,,,,,,,1,,,71,0
220320,note_on,0,0,4,,,,,,,,,3,,,52,75
220320,note_on,120,0,3,,,,,,,,,2,,,59,0
220320,control_change,0,0,3,,,,,,,,,2,64,127,,
220320,note_on,480,0,4,,,,,,,,,3,,,52,0
220320,note_on,0,0,1,,,,,,,,,0,,,76,0
220320,control_change,0,0,4,,,,,,,,,3,64,127,,
220440,note_on,120,0,3,,,,,,,,,2,,,61,0
220440,note_on,0,0,3,,,,,,,,,2,,,64,62
220560,note_on,0,0,3,,,,,,,,,2,,,61,62
220560,note_on,240,0,4,,,,,,,,,3,,,52,0
220560,note_on,0,0,4,,,,,,,,,3,,,55,75
220560,note_on,120,0,3,,,,,,,,,2,,,64,0
220680,note_on,0,0,2,,,,,,,,,1,,,70,75
220680,note_on,120,0,3,,,,,,,,,2,,,61,0
220680,note_on,0,0,3,,,,,,,,,2,,,64,62
220680,note_on,360,0,2,,,,,,,,,1,,,70,0
220680,control_change,0,0,2,,,,,,,,,1,64,127,,
220800,note_on,120,0,3,,,,,,,,,2,,,64,0
220800,note_on,240,0,4,,,,,,,,,3,,,55,0
220800,note_on,0,0,2,,,,,,,,,1,,,71,75
220800,note_on,0,0,3,,,,,,,,,2,,,61,62
220800,note_on,0,0,4,,,,,,,,,3,,,54,75
220800,note_on,120,0,2,,,,,,,,,1,,,70,0
220920,note_on,120,0,2,,,,,,,,,1,,,71,0
220920,note_on,0,0,3,,,,,,,,,2,,,66,62
220920,note_on,120,0,3,,,,,,,,,2,,,61,0
220920,note_on,0,0,2,,,,,,,,,1,,,70,75
221040,note_on,120,0,2,,,,,,,,,1,,,70,0
221040,note_on,0,0,3,,,,,,,,,2,,,61,62
221040,note_on,120,0,3,,,,,,,,,2,,,66,0
221040,note_on,0,0,2,,,,,,,,,1,,,68,75
221040,control_change,0,0,4,,,,,,,,,3,64,0,,
221040,note_on,0,0,4,,,,,,,,,3,,,52,75
221040,note_on,240,0,4,,,,,,,,,3,,,54,0
221160,note_on,120,0,2,,,,,,,,,1,,,68,0
221160,note_on,0,0,3,,,,,,,,,2,,,66,62
221160,control_change,0,0,3,,,,,,,,,2,64,0,,
221160,note_on,120,0,3,,,,,,,,,2,,,61,0
221160,note_on,0,0,2,,,,,,,,,1,,,70,75
221280,note_on,0,0,3,,,,,,,,,2,,,59,62
221280,note_on,120,0,2,,,,,,,,,1,,,70,0
221280,control_change,0,0,2,,,,,,,,,1,64,0,,
221280,note_on,0,0,2,,,,,,,,,1,,,71,75
221280,note_on,0,0,3,,,,,,,,,2,,,62,62
221280,note_on,240,0,4,,,,,,,,,3,,,52,0
221280,control_change,0,0,4,,,,,,,,,3,64,127,,
221280,note_on,0,0,4,,,,,,,,,3,,,50,75
221280,note_on,120,0,3,,,,,,,,,2,,,66,0
221280,control_change,0,0,3,,,,,,,,,2,64,127,,
221400,note_on,120,0,3,,,,,,,,,2,,,62,0
221400,note_on,0,0,3,,,,,,,,,2,,,59,0
221400,note_on,0,0,3,,,,,,,,,2,,,66,62
221520,note_on,240,0,4,,,,,,,,,3,,,50,0
221520,note_on,240,0,2,,,,,,,,,1,,,71,0
221520,note_on,120,0,3,,,,,,,,,2,,,66,0
221520,control_change,0,0,2,,,,,,,,,1,64,127,,
221520,note_on,0,0,2,,,,,,,,,1,,,78,75
221520,note_on,0,0,4,,,,,,,,,3,,,46,88
221520,note_on,0,0,3,,,,,,,,,2,,,61,62
221640,note_on,120,0,3,,,,,,,,,2,,,61,0
221640,note_on,0,0,3,,,,,,,,,2,,,66,62
221760,note_on,0,0,2,,,,,,,,,1,,,76,75
221760,note_on,240,0,2,,,,,,,,,1,,,78,0
221760,note_on,0,0,4,,,,,,,,,3,,,47,88
221760,note_on,240,0,4,,,,,,,,,3,,,46,0
221760,note_on,120,0,3,,,,,,,,,2,,,66,0
221760,note_on,0,0,3,,,,,,,,,2,,,62,62
221880,note_on,120,0,3,,,,,,,,,2,,,62,0
221880,note_on,0,0,3,,,,,,,,,2,,,66,62
221880,note_on,120,0,2,,,,,,,,,1,,,76,0
221880,note_on,0,0,2,,,,,,,,,1,,,74,75
222000,note_on,120,0,3,,,,,,,,,2,,,66,0
222000,note_on,0,0,3,,,,,,,,,2,,,64,62
222000,note_on,0,0,4,,,,,,,,,3,,,50,75
222000,control_change,0,0,4,,,,,,,,,3,64,0,,
222000,note_on,240,0,4,,,,,,,,,3,,,47,0
222000,note_on,120,0,2,,,,,,,,,1,,,74,0
222000,note_on,0,0,2,,,,,,,,,1,,,73,75
222120,note_on,120,0,2,,,,,,,,,1,,,73,0
222120,note_on,0,0,2,,,,,,,,,1,,,71,75
222120,note_on,120,0,3,,,,,,,,,2,,,64,0
222120,control_change,0,0,3,,,,,,,,,2,64,0,,
222120,note_on,0,0,3,,,,,,,,,2,,,62,62
222120,control_change,0,0,2,,,,,,,,,1,64,0,,
222240,note_on,0,0,4,,,,,,,,,3,,,52,62
222240,control_change,0,0,4,,,,,,,,,3,64,127,,
222240,note_on,240,0,4,,,,,,,,,3,,,50,0
222240,note_on,120,0,3,,,,,,,,,2,,,62,0
222240,note_on,0,0,3,,,,,,,,,2,,,61,49
222240,note_on,0,0,2,,,,,,,,,1,,,69,62
222240,note_on,120,0,2,,,,,,,,,1,,,71,0
222240,control_change,0,0,3,,,,,,,,,2,64,127,,
222360,note_on,120,0,3,,,,,,,,,2,,,61,0
222360,note_on,0,0,3,,,,,,,,,2,,,64,49
222480,note_on,120,0,3,,,,,,,,,2,,,64,0
222480,note_on,0,0,3,,,,,,,,,2,,,69,49
222480,note_on,0,0,4,,,,,,,,,3,,,49,62
222480,note_on,240,0,2,,,,,,,,,1,,,69,0
222480,note_on,240,0,4,,,,,,,,,3,,,52,0
222480,note_on,0,0,2,,,,,,,,,1,,,73,62
222600,note_on,120,0,3,,,,,,,,,2,,,69,0
222600,note_on,0,0,3,,,,,,,,,2,,,64,49
222660,note_on,0,0,2,,,,,,,,,1,,,71,62
222660,note_on,180,0,2,,,,,,,,,1,,,73,0
222720,note_on,240,0,4,,,,,,,,,3,,,49,0
222720,note_on,60,0,2,,,,,,,,,1,,,71,0
222720,note_on,0,0,2,,,,,,,,,1,,,71,62
222720,note_on,0,0,4,,,,,,,,,3,,,50,62
222720,note_on,120,0,3,,,,,,,,,2,,,64,0
222720,note_on,0,0,3,,,,,,,,,2,,,69,49
222840,note_on,120,0,3,,,,,,,,,2,,,69,0
222840,note_on,0,0,3,,,,,,,,,2,,,66,49
222960,note_on,240,0,4,,,,,,,,,3,,,50,0
222960,control_change,0,0,4,,,,,,,,,3,64,0,,
222960,note_on,120,0,3,,,,,,,,,2,,,66,0
222960,note_on,0,0,4,,,,,,,,,3,,,52,62
222960,note_on,240,0,2,,,,,,,,,1,,,71,0
222960,note_on,0,0,2,,,,,,,,,1,,,74,62
222960,note_on,0,0,3,,,,,,,,,2,,,68,49
223080,note_on,120,0,3,,,,,,,,,2,,,68,0
223080,control_change,0,0,3,,,,,,,,,2,64,0,,
223080,note_on,0,0,3,,,,,,,,,2,,,64,49
223140,note_on,180,0,2,,,,,,,,,1,,,74,0
223140,note_on,0,0,2,,,,,,,,,1,,,73,62
223200,note_on,240,0,4,,,,,,,,,3,,,52,0
223200,note_on,60,0,2,,,,,,,,,1,,,73,0
223200,note_on,0,0,2,,,,,,,,,1,,,73,62
223200,note_on,0,0,4,,,,,,,,,3,,,57,62
223200,note_on,120,0,3,,,,,,,,,2,,,64,0
223200,note_on,0,0,3,,,,,,,,,2,,,69,62
223320,note_on,120,0,3,,,,,,,,,2,,,69,0
223320,note_on,0,0,3,,,,,,,,,2,,,64,62
223440,note_on,0,0,4,,,,,,,,,3,,,55,62
223440,note_on,120,0,3,,,,,,,,,2,,,64,0
223440,note_on,0,0,3,,,,,,,,,2,,,61,62
223440,note_on,240,0,4,,,,,,,,,3,,,57,0
223560,note_on,0,0,3,,,,,,,,,2,,,64,62
223560,note_on,120,0,3,,,,,,,,,2,,,61,0
223620,control_change,3300,0,1,,,,,,,,,0,64,127,,
223620,note_on,0,0,1,,,,,,,,,0,,,82,62
223620,note_on,420,0,2,,,,,,,,,1,,,73,0
223620,note_on,0,0,2,,,,,,,,,1,,,70,62
223620,control_change,0,0,2,,,,,,,,,1,64,127,,
223680,note_on,0,0,1,,,,,,,,,0,,,83,62
223680,note_on,60,0,1,,,,,,,,,0,,,82,0
223680,note_on,0,0,4,,,,,,,,,3,,,54,62
223680,note_on,240,0,4,,,,,,,,,3,,,55,0
223680,note_on,120,0,3,,,,,,,,,2,,,64,0
223680,note_on,0,0,3,,,,,,,,,2,,,61,62
223680,note_on,60,0,2,,,,,,,,,1,,,70,0
223680,note_on,0,0,2,,,,,,,,,1,,,71,62
223800,note_on,120,0,1,,,,,,,,,0,,,83,0
223800,note_on,0,0,1,,,,,,,,,0,,,82,62
223800,note_on,0,0,3,,,,,,,,,2,,,66,62
223800,note_on,0,0,2,,,,,,,,,1,,,70,62
223800,note_on,120,0,2,,,,,,,,,1,,,71,0
223800,note_on,120,0,3,,,,,,,,,2,,,61,0
223920,note_on,0,0,3,,,,,,,,,2,,,61,62
223920,note_on,0,0,4,,,,,,,,,3,,,52,62
223920,note_on,240,0,4,,,,,,,,,3,,,54,0
223920,note_on,0,0,2,,,,,,,,,1,,,68,62
223920,note_on,120,0,2,,,,,,,,,1,,,70,0
223920,note_on,0,0,1,,,,,,,,,0,,,80,62
223920,note_on,120,0,3,,,,,,,,,2,,,66,0
223920,note_on,120,0,1,,,,,,,,,0,,,82,0
224040,note_on,0,0,1,,,,,,,,,0,,,82,62
224040,control_change,0,0,1,,,,,,,,,0,64,0,,
224040,note_on,120,0,1,,,,,,,,,0,,,80,0
224040,note_on,0,0,3,,,,,,,,,2,,,66,62
224040,note_on,120,0,3,,,,,,,,,2,,,61,0
224040,note_on,120,0,2,,,,,,,,,1,,,68,0
224040,control_change,0,0,2,,,,,,,,,1,64,0,,
224040,note_on,0,0,2,,,,,,,,,1,,,70,62
224160,note_on,120,0,2,,,,,,,,,1,,,70,0
224160,note_on,240,0,4,,,,,,,,,3,,,52,0
224160,note_on,0,0,2,,,,,,,,,1,,,71,75
224160,control_change,0,0,2,,,,,,,,,1,64,127,,
224160,note_on,0,0,1,,,,,,,,,0,,,83,75
224160,note_on,0,0,4,,,,,,,,,3,,,54,75
224160,control_change,0,0,1,,,,,,,,,0,64,127,,
224160,note_on,120,0,1,,,,,,,,,0,,,82,0
224160,note_on,120,0,3,,,,,,,,,2,,,66,0
224160,note_on,0,0,3,,,,,,,,,2,,,59,75
224160,note_on,0,0,3,,,,,,,,,2,,,62,75
224280,note_on,120,0,3,,,,,,,,,2,,,62,0
224280,note_on,0,0,3,,,,,,,,,2,,,59,0
224280,note_on,0,0,3,,,,,,,,,2,,,66,75
224400,note_on,0,0,1,,,,,,,,,0,,,90,88
224400,note_on,0,0,4,,,,,,,,,3,,,46,88
224400,note_on,0,0,2,,,,,,,,,1,,,78,88
224400,note_on,240,0,2,,,,,,,,,1,,,71,0
224400,note_on,240,0,4,,,,,,,,,3,,,54,0
224400,note_on,0,0,3,,,,,,,,,2,,,61,88
224400,note_on,120,0,3,,,,,,,,,2,,,66,0
224400,note_on,240,0,1,,,,,,,,,0,,,83,0
224520,note_on,120,0,3,,,,,,,,,2,,,61,0
224520,note_on,0,0,3,,,,,,,,,2,,,66,88
224640,note_on,0,0,3,,,,,,,,,2,,,62,88
224640,note_on,0,0,4,,,,,,,,,3,,,47,88
224640,note_on,120,0,3,,,,,,,,,2,,,66,0
224640,note_on,0,0,2,,,,,,,,,1,,,76,88
224640,note_on,240,0,2,,,,,,,,,1,,,78,0
224640,note_on,0,0,1,,,,,,,,,0,,,88,88
224640,note_on,240,0,1,,,,,,,,,0,,,90,0
224640,note_on,240,0,4,,,,,,,,,3,,,46,0
224760,note_on,120,0,2,,,,,,,,,1,,,76,0
224760,note_on,0,0,2,,,,,,,,,1,,,74,88
224760,note_on,0,0,1,,,,,,,,,0,,,86,88
224760,note_on,120,0,1,,,,,,,,,0,,,88,0
224760,note_on,120,0,3,,,,,,,,,2,,,62,0
224760,note_on,0,0,3,,,,,,,,,2,,,66,88
224880,note_on,120,0,2,,,,,,,,,1,,,74,0
224880,note_on,0,0,2,,,,,,,,,1,,,73,75
224880,note_on,120,0,3,,,,,,,,,2,,,66,0
224880,note_on,0,0,4,,,,,,,,,3,,,50,75
224880,note_on,0,0,3,,,,,,,,,2,,,64,75
224880,note_on,240,0,4,,,,,,,,,3,,,47,0
224880,note_on,0,0,1,,,,,,,,,0,,,85,75
224880,note_on,120,0,1,,,,,,,,,0,,,86,0
225000,note_on,120,0,3,,,,,,,,,2,,,64,0
225000,note_on,120,0,1,,,,,,,,,0,,,85,0
225000,control_change,0,0,1,,,,,,,,,0,64,0,,
225000,note_on,0,0,2,,,,,,,,,1,,,71,75
225000,control_change,0,0,2,,,,,,,,,1,64,0,,
225000,note_on,120,0,2,,,,,,,,,1,,,73,0
225000,note_on,0,0,1,,,,,,,,,0,,,83,75
225000,note_on,0,0,3,,,,,,,,,2,,,62,75
225120,note_on,240,0,4,,,,,,,,,3,,,50,0
225120,note_on,120,0,2,,,,,,,,,1,,,71,0
225120,note_on,120,0,1,,,,,,,,,0,,,83,0
225120,note_on,0,0,1,,,,,,,,,0,,,81,62
225120,note_on,0,0,4,,,,,,,,,3,,,52,62
225120,note_on,0,0,2,,,,,,,,,1,,,69,62
225120,note_on,120,0,3,,,,,,,,,2,,,62,0
225120,note_on,0,0,3,,,,,,,,,2,,,61,62
225240,note_on,120,0,3,,,,,,,,,2,,,61,0
225240,note_on,0,0,3,,,,,,,,,2,,,64,62
225360,note_on,0,0,1,,,,,,,,,0,,,85,62
225360,note_on,240,0,1,,,,,,,,,0,,,81,0
225360,note_on,120,0,3,,,,,,,,,2,,,64,0
225360,note_on,0,0,3,,,,,,,,,2,,,69,62
225360,note_on,240,0,2,,,,,,,,,1,,,69,0
225360,note_on,0,0,2,,,,,,,,,1,,,73,62
225360,note_on,240,0,4,,,,,,,,,3,,,52,0
225360,note_on,0,0,4,,,,,,,,,3,,,49,62
225480,note_on,0,0,3,,,,,,,,,2,,,64,62
225480,note_on,120,0,3,,,,,,,,,2,,,69,0
225540,note_on,0,0,1,,,,,,,,,0,,,83,62
225540,note_on,0,0,2,,,,,,,,,1,,,71,62
225540,note_on,180,0,2,,,,,,,,,1,,,73,0
225540,note_on,180,0,1,,,,,,,,,0,,,85,0
225600,note_on,240,0,4,,,,,,,,,3,,,49,0
225600,note_on,0,0,1,,,,,,,,,0,,,83,62
225600,note_on,60,0,1,,,,,,,,,0,,,83,0
225600,note_on,60,0,2,,,,,,,,,1,,,71,0
225600,note_on,0,0,4,,,,,,,,,3,,,50,62
225600,note_on,120,0,3,,,,,,,,,2,,,64,0
225600,note_on,0,0,3,,,,,,,,,2,,,69,49
225600,note_on,0,0,2,,,,,,,,,1,,,71,62
225720,note_on,120,0,3,,,,,,,,,2,,,69,0
225720,note_on,0,0,3,,,,,,,,,2,,,66,49
225840,note_on,0,0,3,,,,,,,,,2,,,68,49
225840,note_on,0,0,4,,,,,,,,,3,,,52,62
225840,note_on,240,0,4,,,,,,,,,3,,,50,0
225840,note_on,0,0,2,,,,,,,,,1,,,74,62
225840,note_on,240,0,1,,,,,,,,,0,,,83,0
225840,note_on,0,0,1,,,,,,,,,0,,,86,62
225840,note_on,120,0,3,,,,,,,,,2,,,66,0
225840,note_on,240,0,2,,,,,,,,,1,,,71,0
225960,note_on,120,0,3,,,,,,,,,2,,,68,0
225960,note_on,0,0,3,,,,,,,,,2,,,62,49
226020,note_on,0,0,1,,,,,,,,,0,,,80,62
226020,note_on,0,0,2,,,,,,,,,1,,,68,62
226020,note_on,180,0,2,,,,,,,,,1,,,74,0
226020,note_on,180,0,1,,,,,,,,,0,,,86,0
226080,note_on,240,0,4,,,,,,,,,3,,,52,0
226080,note_on,0,0,4,,,,,,,,,3,,,45,62
226080,note_on,60,0,2,,,,,,,,,1,,,68,0
226080,note_on,0,0,2,,,,,,,,,1,,,69,62
226080,note_on,120,0,3,,,,,,,,,2,,,62,0
226080,note_on,0,0,3,,,,,,,,,2,,,61,49
226080,note_on,0,0,1,,,,,,,,,0,,,81,62
226080,note_on,60,0,1,,,,,,,,,0,,,80,0
226200,note_on,120,0,3,,,,,,,,,2,,,61,0
226200,note_on,0,0,3,,,,,,,,,2,,,69,49
226320,note_on,120,0,3,,,,,,,,,2,,,69,0
226320,note_on,0,0,3,,,,,,,,,2,,,64,49
226320,note_on,240,0,4,,,,,,,,,3,,,45,0
226320,note_on,240,0,2,,,,,,,,,1,,,69,0
226320,note_on,240,0,1,,,,,,,,,0,,,81,0
226440,note_on,0,0,3,,,,,,,,,2,,,61,49
226440,note_on,120,0,3,,,,,,,,,2,,,64,0
226560,note_on,240,0,1,,,,,,,,,0,,,83,88
226560,note_on,0,0,4,,,,,,,,,3,,,45,88
226560,note_on,240,0,4,,,,,,,,,3,,,33,88
226560,note_on,120,0,3,,,,,,,,,2,,,61,0
226560,note_on,0,0,3,,,,,,,,,2,,,62,75
226560,note_on,240,0,2,,,,,,,,,1,,,71,88
226680,note_on,120,0,3,,,,,,,,,2,,,62,0
226680,note_on,0,0,3,,,,,,,,,2,,,68,49
226800,note_on,0,0,3,,,,,,,,,2,,,64,49
226800,note_on,120,0,3,,,,,,,,,2,,,68,0
226800,note_on,0,0,4,,,,,,,,,3,,,33,0
226800,note_on,240,0,4,,,,,,,,,3,,,45,0
226920,note_on,0,0,3,,,,,,,,,2,,,59,49
226920,note_on,360,0,2,,,,,,,,,1,,,71,0
226920,note_on,0,0,2,,,,,,,,,1,,,74,62
226920,note_on,0,0,1,,,,,,,,,0,,,86,62
226920,note_on,360,0,1,,,,,,,,,0,,,83,0
226920,note_on,120,0,3,,,,,,,,,2,,,64,0
227040,note_on,0,0,1,,,,,,,,,0,,,85,62
227040,note_on,0,0,4,,,,,,,,,3,,,45,62
227040,note_on,120,0,1,,,,,,,,,0,,,86,0
227040,note_on,0,0,2,,,,,,,,,1,,,73,62
227040,note_on,0,0,3,,,,,,,,,2,,,61,49
227040,note_on,120,0,2,,,,,,,,,1,,,74,0
227040,note_on,120,0,3,,,,,,,,,2,,,59,0
227040,note_on,240,0,4,,,,,,,,,3,,,33,62
227160,note_on,0,0,3,,,,,,,,,2,,,69,49
227160,note_on,120,0,3,,,,,,,,,2,,,61,0
227280,note_on,240,0,4,,,,,,,,,3,,,45,0
227280,note_on,0,0,4,,,,,,,,,3,,,33,0
227280,note_on,240,0,1,,,,,,,,,0,,,85,0
227280,note_on,240,0,2,,,,,,,,,1,,,73,0
227280,note_on,0,0,3,,,,,,,,,2,,,64,49
227280,note_on,120,0,3,,,,,,,,,2,,,69,0
227400,note_on,0,0,3,,,,,,,,,2,,,61,49
227400,note_on,120,0,3,,,,,,,,,2,,,64,0
227520,note_on,0,0,4,,,,,,,,,3,,,45,88
227520,note_on,240,0,4,,,,,,,,,3,,,33,88
227520,note_on,240,0,2,,,,,,,,,1,,,74,88
227520,note_on,120,0,3,,,,,,,,,2,,,61,0
227520,note_on,0,0,3,,,,,,,,,2,,,66,75
227640,note_on,120,0,3,,,,,,,,,2,,,66,0
227640,note_on,0,0,3,,,,,,,,,2,,,69,49
227760,note_on,0,0,3,,,,,,,,,2,,,66,49
227760,note_on,0,0,4,,,,,,,,,3,,,33,0
227760,note_on,120,0,3,,,,,,,,,2,,,69,0
227760,note_on,240,0,4,,,,,,,,,3,,,45,0
227880,note_on,120,0,3,,,,,,,,,2,,,66,0
227880,note_on,360,0,2,,,,,,,,,1,,,74,0
227880,note_on,0,0,3,,,,,,,,,2,,,62,49
227880,note_on,0,0,2,,,,,,,,,1,,,78,62
228000,note_on,240,0,4,,,,,,,,,3,,,33,62
228000,note_on,0,0,2,,,,,,,,,1,,,76,62
228000,note_on,120,0,2,,,,,,,,,1,,,78,0
228000,note_on,0,0,4,,,,,,,,,3,,,45,62
228000,note_on,0,0,3,,,,,,,,,2,,,61,49
228000,note_on,120,0,3,,,,,,,,,2,,,62,0
228120,note_on,120,0,3,,,,,,,,,2,,,61,0
228120,note_on,0,0,3,,,,,,,,,2,,,69,49
228240,note_on,240,0,2,,,,,,,,,1,,,76,0
228240,note_on,120,0,3,,,,,,,,,2,,,69,0
228240,note_on,0,0,3,,,,,,,,,2,,,64,49
228240,note_on,240,0,4,,,,,,,,,3,,,45,0
228240,note_on,0,0,4,,,,,,,,,3,,,33,0
228360,note_on,0,0,3,,,,,,,,,2,,,61,49
228360,note_on,120,0,3,,,,,,,,,2,,,64,0
228360,note_on,120,0,2,,,,,,,,,1,,,76,75
228360,note_on,1080,0,1,,,,,,,,,0,,,88,75
228480,note_on,120,0,1,,,,,,,,,0,,,88,0
228480,note_on,0,0,2,,,,,,,,,1,,,80,101
228480,note_on,0,0,4,,,,,,,,,3,,,45,88
228480,note_on,240,0,4,,,,,,,,,3,,,33,88
228480,note_on,120,0,3,,,,,,,,,2,,,61,0
228480,note_on,0,0,3,,,,,,,,,2,,,62,88
228480,note_on,120,0,2,,,,,,,,,1,,,76,0
228480,note_on,0,0,1,,,,,,,,,0,,,92,101
228600,note_on,120,0,3,,,,,,,,,2,,,62,0
228600,note_on,0,0,3,,,,,,,,,2,,,71,62
228720,note_on,0,0,3,,,,,,,,,2,,,64,62
228720,note_on,240,0,4,,,,,,,,,3,,,45,0
228720,note_on,120,0,3,,,,,,,,,2,,,71,0
228720,note_on,0,0,4,,,,,,,,,3,,,33,0
228840,note_on,360,0,1,,,,,,,,,0,,,92,0
228840,note_on,0,0,2,,,,,,,,,1,,,83,75
228840,note_on,360,0,2,,,,,,,,,1,,,80,0
228840,note_on,120,0,3,,,,,,,,,2,,,64,0
228840,note_on,0,0,3,,,,,,,,,2,,,62,62
228840,note_on,0,0,1,,,,,,,,,0,,,95,75
228960,note_on,120,0,2,,,,,,,,,1,,,83,0
228960,note_on,240,0,4,,,,,,,,,3,,,33,75
228960,note_on,0,0,2,,,,,,,,,1,,,81,75
228960,note_on,0,0,3,,,,,,,,,2,,,61,75
228960,note_on,120,0,3,,,,,,,,,2,,,62,0
228960,note_on,0,0,4,,,,,,,,,3,,,45,75
228960,note_on,0,0,1,,,,,,,,,0,,,93,75
228960,note_on,120,0,1,,,,,,,,,0,,,95,0
229080,note_on,0,0,3,,,,,,,,,2,,,69,75
229080,note_on,120,0,3,,,,,,,,,2,,,61,0
229200,note_on,0,0,4,,,,,,,,,3,,,33,0
229200,note_on,0,0,3,,,,,,,,,2,,,64,75
229200,note_on,120,0,3,,,,,,,,,2,,,69,0
229200,note_on,240,0,1,,,,,,,,,0,,,93,0
229200,note_on,240,0,4,,,,,,,,,3,,,45,0
229200,note_on,240,0,2,,,,,,,,,1,,,81,0
229320,note_on,120,0,2,,,,,,,,,1,,,76,62
229320,note_on,0,0,3,,,,,,,,,2,,,61,75
229320,note_on,120,0,3,,,,,,,,,2,,,64,0
229320,note_on,120,0,1,,,,,,,,,0,,,88,62
229440,note_on,120,0,2,,,,,,,,,1,,,76,0
229440,note_on,0,0,2,,,,,,,,,1,,,80,88
229440,note_on,120,0,1,,,,,,,,,0,,,88,0
229440,note_on,0,0,1,,,,,,,,,0,,,92,88
229440,note_on,0,0,3,,,,,,,,,2,,,62,88
229440,note_on,0,0,4,,,,,,,,,3,,,45,101
229440,note_on,240,0,4,,,,,,,,,3,,,33,101
229440,note_on,120,0,3,,,,,,,,,2,,,61,0
229560,note_on,120,0,3,,,,,,,,,2,,,62,0
229560,note_on,0,0,3,,,,,,,,,2,,,71,62
229680,note_on,0,0,4,,,,,,,,,3,,,33,0
229680,note_on,240,0,4,,,,,,,,,3,,,45,0
229680,note_on,120,0,3,,,,,,,,,2,,,71,0
229680,note_on,0,0,3,,,,,,,,,2,,,64,62
229800,note_on,360,0,1,,,,,,,,,0,,,92,0
229800,note_on,0,0,1,,,,,,,,,0,,,95,62
229800,note_on,0,0,2,,,,,,,,,1,,,83,62
229800,note_on,360,0,2,,,,,,,,,1,,,80,0
229800,note_on,0,0,3,,,,,,,,,2,,,62,62
229800,note_on,120,0,3,,,,,,,,,2,,,64,0
229920,note_on,120,0,3,,,,,,,,,2,,,62,0
229920,note_on,0,0,1,,,,,,,,,0,,,93,62
229920,note_on,0,0,3,,,,,,,,,2,,,61,49
229920,note_on,240,0,4,,,,,,,,,3,,,33,62
229920,note_on,120,0,2,,,,,,,,,1,,,83,0
229920,note_on,0,0,2,,,,,,,,,1,,,81,62
229920,note_on,0,0,4,,,,,,,,,3,,,45,62
229920,note_on,120,0,1,,,,,,,,,0,,,95,0
230040,note_on,0,0,3,,,,,,,,,2,,,69,49
230040,note_on,120,0,3,,,,,,,,,2,,,61,0
230160,note_on,0,0,3,,,,,,,,,2,,,64,49
230160,note_on,240,0,1,,,,,,,,,0,,,93,0
230160,note_on,0,0,4,,,,,,,,,3,,,33,0
230160,note_on,240,0,4,,,,,,,,,3,,,45,0
230160,note_on,240,0,2,,,,,,,,,1,,,81,0
230160,note_on,120,0,3,,,,,,,,,2,,,69,0
230280,note_on,120,0,1,,,,,,,,,0,,,88,62
230280,note_on,0,0,3,,,,,,,,,2,,,61,49
230280,note_on,120,0,2,,,,,,,,,1,,,76,62
230280,note_on,120,0,3,,,,,,,,,2,,,64,0
230400,note_on,120,0,1,,,,,,,,,0,,,88,0
230400,note_on,0,0,2,,,,,,,,,1,,,80,62
230400,note_on,120,0,2,,,,,,,,,1,,,76,0
230400,note_on,120,0,3,,,,,,,,,2,,,61,0
230400,note_on,0,0,3,,,,,,,,,2,,,62,75
230400,set_tempo,61920,1,0,,,,,,1200000,,,,,,,
230400,note_on,240,0,4,,,,,,,,,3,,,40,62
230400,note_on,0,0,1,,,,,,,,,0,,,92,62
230520,note_on,120,0,3,,,,,,,,,2,,,62,0
230520,note_on,0,0,3,,,,,,,,,2,,,71,49
230640,note_on,120,0,3,,,,,,,,,2,,,71,0
230640,note_on,0,0,3,,,,,,,,,2,,,64,49
230640,note_on,240,0,4,,,,,,,,,3,,,40,0
230760,note_on,0,0,2,,,,,,,,,1,,,83,62
230760,note_on,120,0,3,,,,,,,,,2,,,64,0
230760,note_on,0,0,3,,,,,,,,,2,,,62,49
230760,note_on,360,0,2,,,,,,,,,1,,,80,0
230760,note_on,360,0,1,,,,,,,,,0,,,92,0
230760,note_on,0,0,1,,,,,,,,,0,,,95,62
230880,note_on,0,0,2,,,,,,,,,1,,,81,62
230880,note_on,240,0,4,,,,,,,,,3,,,41,62
230880,note_on,120,0,1,,,,,,,,,0,,,95,0
230880,set_tempo,480,1,0,,,,,,1000000,,,,,,,
230880,note_on,120,0,2,,,,,,,,,1,,,83,0
230880,note_on,0,0,3,,,,,,,,,2,,,60,49
230880,note_on,120,0,3,,,,,,,,,2,,,62,0
230880,note_on,0,0,1,,,,,,,,,0,,,93,62
230960,note_on,80,0,1,,,,,,,,,0,,,93,0
230960,note_on,0,0,1,,,,,,,,,0,,,77,62
230960,note_on,0,0,1,,,,,,,,,0,,,81,62
230960,control_change,0,0,1,,,,,,,,,0,64,127,,
230960,note_on,80,0,2,,,,,,,,,1,,,81,0
230960,control_change,0,0,2,,,,,,,,,1,64,127,,
230960,note_on,0,0,2,,,,,,,,,1,,,65,49
230960,note_on,0,0,2,,,,,,,,,1,,,69,49
231039,note_on,79,0,2,,,,,,,,,1,,,69,0
231039,note_on,0,0,2,,,,,,,,,1,,,65,0
231039,note_on,0,0,2,,,,,,,,,1,,,65,49
231039,note_on,0,0,2,,,,,,,,,1,,,69,49
231039,note_on,79,0,1,,,,,,,,,0,,,81,0
231039,note_on,0,0,1,,,,,,,,,0,,,81,62
231039,note_on,0,0,1,,,,,,,,,0,,,77,62
231039,note_on,0,0,1,,,,,,,,,0,,,77,0
231120,note_on,0,0,2,,,,,,,,,1,,,65,0
231120,note_on,0,0,2,,,,,,,,,1,,,65,49
231120,note_on,0,0,2,,,,,,,,,1,,,69,49
231120,note_on,81,0,2,,,,,,,,,1,,,69,0
231120,note_on,0,0,1,,,,,,,,,0,,,77,0
231120,note_on,0,0,1,,,,,,,,,0,,,77,62
231120,note_on,0,0,1,,,,,,,,,0,,,81,62
231120,note_on,81,0,1,,,,,,,,,0,,,81,0
231200,note_on,80,0,1,,,,,,,,,0,,,81,0
231200,note_on,0,0,1,,,,,,,,,0,,,77,0
231200,note_on,0,0,1,,,,,,,,,0,,,77,62
231200,note_on,0,0,1,,,,,,,,,0,,,81,62
231200,note_on,0,0,2,,,,,,,,,1,,,69,49
231200,note_on,80,0,2,,,,,,,,,1,,,69,0
231200,note_on,0,0,2,,,,,,,,,1,,,65,0
231200,note_on,0,0,2,,,,,,,,,1,,,65,49
231279,note_on,79,0,2,,,,,,,,,1,,,69,0
231279,note_on,0,0,1,,,,,,,,,0,,,81,62
231279,note_on,0,0,1,,,,,,,,,0,,,77,62
231279,note_on,0,0,2,,,,,,,,,1,,,65,0
231279,note_on,0,0,1,,,,,,,,,0,,,77,0
231279,note_on,0,0,2,,,,,,,,,1,,,65,49
231279,note_on,79,0,1,,,,,,,,,0,,,81,0
231279,note_on,0,0,2,,,,,,,,,1,,,69,49
231360,note_on,81,0,2,,,,,,,,,1,,,69,0
231360,note_on,480,0,3,,,,,,,,,2,,,60,0
231360,note_on,81,0,1,,,,,,,,,0,,,81,0
231360,note_on,0,0,1,,,,,,,,,0,,,77,0
231360,note_on,0,0,1,,,,,,,,,0,,,77,62
231360,note_on,0,0,1,,,,,,,,,0,,,81,62
231360,note_on,480,0,4,,,,,,,,,3,,,41,0
231360,note_on,0,0,2,,,,,,,,,1,,,69,49
231360,note_on,0,0,2,,,,,,,,,1,,,65,49
231360,note_on,0,0,2,,,,,,,,,1,,,65,0
231440,note_on,0,0,1,,,,,,,,,0,,,81,62
231440,note_on,80,0,1,,,,,,,,,0,,,81,0
231440,note_on,0,0,2,,,,,,,,,1,,,65,49
231440,note_on,0,0,2,,,,,,,,,1,,,65,0
231440,note_on,80,0,2,,,,,,,,,1,,,69,0
231440,note_on,0,0,1,,,,,,,,,0,,,77,62
231440,note_on,0,0,1,,,,,,,,,0,,,77,0
231440,note_on,0,0,2,,,,,,,,,1,,,69,49
231519,note_on,79,0,1,,,,,,,,,0,,,81,0
231519,note_on,0,0,2,,,,,,,,,1,,,69,49
231519,note_on,0,0,2,,,,,,,,,1,,,65,49
231519,note_on,79,0,2,,,,,,,,,1,,,69,0
231519,note_on,0,0,2,,,,,,,,,1,,,65,0
231519,note_on,0,0,1,,,,,,,,,0,,,81,62
231519,note_on,0,0,1,,,,,,,,,0,,,77,62
231519,note_on,0,0,1,,,,,,,,,0,,,77,0
231600,note_on,240,0,4,,,,,,,,,3,,,53,62
231600,note_on,0,0,1,,,,,,,,,0,,,81,62
231600,note_on,0,0,1,,,,,,,,,0,,,77,62
231600,note_on,81,0,1,,,,,,,,,0,,,81,0
231600,note_on,240,0,3,,,,,,,,,2,,,57,75
231600,note_on,81,0,2,,,,,,,,,1,,,69,0
231600,note_on,0,0,2,,,,,,,,,1,,,65,0
231600,note_on,0,0,2,,,,,,,,,1,,,65,49
231600,note_on,0,0,2,,,,,,,,,1,,,69,49
231600,note_on,0,0,1,,,,,,,,,0,,,77,0
231680,note_on,0,0,2,,,,,,,,,1,,,65,49
231680,note_on,80,0,2,,,,,,,,,1,,,69,0
231680,note_on,0,0,2,,,,,,,,,1,,,65,0
231680,note_on,0,0,2,,,,,,,,,1,,,69,49
231680,note_on,0,0,1,,,,,,,,,0,,,81,62
231680,note_on,0,0,1,,,,,,,,,0,,,77,62
231680,note_on,0,0,1,,,,,,,,,0,,,77,0
231680,note_on,80,0,1,,,,,,,,,0,,,81,0
231759,note_on,79,0,2,,,,,,,,,1,,,69,0
231759,note_on,79,0,1,,,,,,,,,0,,,81,0
231759,note_on,0,0,1,,,,,,,,,0,,,77,62
231759,control_change,0,0,1,,,,,,,,,0,64,0,,
231759,note_on,0,0,2,,,,,,,,,1,,,65,0
231759,note_on,0,0,1,,,,,,,,,0,,,81,62
231759,note_on,0,0,2,,,,,,,,,1,,,69,49
231759,note_on,0,0,2,,,,,,,,,1,,,65,49
231759,control_change,0,0,2,,,,,,,,,1,64,0,,
231759,note_on,0,0,1,,,,,,,,,0,,,77,0
231780,note_on,0,0,3,,,,,,,,,2,,,58,75
231780,note_on,180,0,3,,,,,,,,,2,,,57,0
231840,control_change,0,0,3,,,,,,,,,2,64,127,,
231840,note_on,0,0,3,,,,,,,,,2,,,60,75
231840,note_on,81,0,1,,,,,,,,,0,,,81,0
231840,note_on,0,0,1,,,,,,,,,0,,,77,0
231840,note_on,0,0,1,,,,,,,,,0,,,77,62
231840,note_on,0,0,2,,,,,,,,,1,,,69,49
231840,note_on,0,0,1,,,,,,,,,0,,,81,62
231840,note_on,0,0,2,,,,,,,,,1,,,65,49
231840,note_on,81,0,2,,,,,,,,,1,,,69,0
231840,note_on,60,0,3,,,,,,,,,2,,,58,0
231840,note_on,0,0,2,,,,,,,,,1,,,65,0
231840,note_on,0,0,4,,,,,,,,,3,,,53,62
231840,note_on,240,0,4,,,,,,,,,3,,,53,0
231920,note_on,0,0,2,,,,,,,,,1,,,65,49
231920,note_on,0,0,2,,,,,,,,,1,,,69,49
231920,note_on,0,0,2,,,,,,,,,1,,,65,0
231920,note_on,80,0,2,,,,,,,,,1,,,69,0
231920,note_on,80,0,1,,,,,,,,,0,,,81,0
231920,note_on,0,0,1,,,,,,,,,0,,,77,0
231920,note_on,0,0,1,,,,,,,,,0,,,77,62
231920,note_on,0,0,1,,,,,,,,,0,,,81,62
231999,note_on,79,0,2,,,,,,,,,1,,,69,0
231999,note_on,79,0,1,,,,,,,,,0,,,81,0
231999,note_on,0,0,1,,,,,,,,,0,,,77,62
231999,note_on,0,0,1,,,,,,,,,0,,,77,0
231999,note_on,0,0,2,,,,,,,,,1,,,65,49
231999,note_on,0,0,2,,,,,,,,,1,,,65,0
231999,note_on,0,0,2,,,,,,,,,1,,,69,49
231999,note_on,0,0,1,,,,,,,,,0,,,81,62
232080,note_on,0,0,2,,,,,,,,,1,,,69,49
232080,note_on,0,0,2,,,,,,,,,1,,,65,49
232080,note_on,0,0,1,,,,,,,,,0,,,81,62
232080,note_on,0,0,2,,,,,,,,,1,,,65,0
232080,note_on,81,0,1,,,,,,,,,0,,,81,0
232080,note_on,81,0,2,,,,,,,,,1,,,69,0
232080,note_on,240,0,3,,,,,,,,,2,,,60,0
232080,note_on,0,0,1,,,,,,,,,0,,,77,62
232080,note_on,0,0,1,,,,,,,,,0,,,77,0
232080,note_on,0,0,3,,,,,,,,,2,,,58,75
232160,note_on,0,0,2,,,,,,,,,1,,,65,49
232160,note_on,80,0,2,,,,,,,,,1,,,69,0
232160,note_on,0,0,2,,,,,,,,,1,,,65,0
232160,note_on,0,0,2,,,,,,,,,1,,,69,49
232160,note_on,0,0,1,,,,,,,,,0,,,77,0
232160,note_on,80,0,1,,,,,,,,,0,,,81,0
232160,note_on,0,0,1,,,,,,,,,0,,,81,62
232160,note_on,0,0,1,,,,,,,,,0,,,77,62
232239,note_on,0,0,2,,,,,,,,,1,,,65,49
232239,note_on,0,0,2,,,,,,,,,1,,,65,0
232239,note_on,79,0,2,,,,,,,,,1,,,69,0
232239,note_on,79,0,1,,,,,,,,,0,,,81,0
232239,note_on,0,0,1,,,,,,,,,0,,,77,0
232239,note_on,0,0,1,,,,,,,,,0,,,77,62
232239,note_on,0,0,2,,,,,,,,,1,,,69,49
232239,note_on,0,0,1,,,,,,,,,0,,,81,62
232260,note_on,180,0,3,,,,,,,,,2,,,58,0
232260,note_on,0,0,3,,,,,,,,,2,,,57,75
232320,note_on,60,0,3,,,,,,,,,2,,,57,0
232320,note_on,0,0,3,,,,,,,,,2,,,55,75
232320,note_on,0,0,2,,,,,,,,,1,,,70,49
232320,note_on,0,0,2,,,,,,,,,1,,,65,0
232320,note_on,81,0,2,,,,,,,,,1,,,69,0
232320,note_on,0,0,4,,,,,,,,,3,,,48,62
232320,note_on,0,0,2,,,,,,,,,1,,,65,49
232320,note_on,0,0,1,,,,,,,,,0,,,82,62
232320,note_on,480,0,4,,,,,,,,,3,,,53,0
232320,note_on,0,0,1,,,,,,,,,0,,,77,62
232320,note_on,81,0,1,,,,,,,,,0,,,81,0
232320,note_on,0,0,1,,,,,,,,,0,,,77,0
232400,note_on,80,0,1,,,,,,,,,0,,,82,0
232400,note_on,0,0,2,,,,,,,,,1,,,70,49
232400,note_on,0,0,2,,,,,,,,,1,,,65,0
232400,note_on,80,0,2,,,,,,,,,1,,,70,0
232400,note_on,0,0,2,,,,,,,,,1,,,64,49
232400,note_on,0,0,1,,,,,,,,,0,,,77,0
232400,note_on,0,0,1,,,,,,,,,0,,,76,62
232400,note_on,0,0,1,,,,,,,,,0,,,82,62
232479,note_on,0,0,1,,,,,,,,,0,,,76,62
232479,note_on,0,0,1,,,,,,,,,0,,,76,0
232479,note_on,0,0,2,,,,,,,,,1,,,64,49
232479,note_on,0,0,2,,,,,,,,,1,,,64,0
232479,note_on,79,0,2,,,,,,,,,1,,,70,0
232479,note_on,0,0,2,,,,,,,,,1,,,70,49
232479,note_on,79,0,1,,,,,,,,,0,,,82,0
232479,note_on,0,0,1,,,,,,,,,0,,,82,62
232494,note_on,0,0,1,,,,,,,,,0,,,76,0
232494,note_on,15,0,1,,,,,,,,,0,,,82,0
232494,note_on,15,0,2,,,,,,,,,1,,,70,0
232494,note_on,0,0,2,,,,,,,,,1,,,64,0
232560,note_on,0,0,3,,,,,,,,,2,,,57,75
232560,control_change,0,0,3,,,,,,,,,2,64,0,,
232560,note_on,0,0,1,,,,,,,,,0,,,82,62
232560,note_on,66,0,1,,,,,,,,,0,,,76,62
232560,note_on,66,0,2,,,,,,,,,1,,,64,49
232560,note_on,0,0,2,,,,,,,,,1,,,70,49
232560,note_on,240,0,3,,,,,,,,,2,,,55,0
232560,note_on,0,0,4,,,,,,,,,3,,,53,62
232560,note_on,240,0,4,,,,,,,,,3,,,48,0
232640,note_on,0,0,1,,,,,,,,,0,,,76,0
232640,note_on,80,0,2,,,,,,,,,1,,,70,0
232640,note_on,0,0,2,,,,,,,,,1,,,69,49
232640,note_on,0,0,2,,,,,,,,,1,,,65,49
232640,note_on,0,0,2,,,,,,,,,1,,,64,0
232640,note_on,80,0,1,,,,,,,,,0,,,82,0
232640,note_on,0,0,1,,,,,,,,,0,,,77,62
232640,note_on,0,0,1,,,,,,,,,0,,,81,62
232719,note_on,79,0,1,,,,,,,,,0,,,81,0
232719,note_on,0,0,2,,,,,,,,,1,,,65,0
232719,note_on,0,0,2,,,,,,,,,1,,,65,49
232719,note_on,0,0,2,,,,,,,,,1,,,69,49
232719,note_on,0,0,1,,,,,,,,,0,,,81,62
232719,note_on,79,0,2,,,,,,,,,1,,,69,0
232719,note_on,0,0,1,,,,,,,,,0,,,77,0
232719,note_on,0,0,1,,,,,,,,,0,,,77,62
232734,note_on,15,0,1,,,,,,,,,0,,,81,0
232734,note_on,0,0,1,,,,,,,,,0,,,77,0
232734,note_on,15,0,2,,,,,,,,,1,,,69,0
232734,note_on,0,0,2,,,,,,,,,1,,,65,0
232800,note_on,0,0,4,,,,,,,,,3,,,55,62
232800,note_on,240,0,4,,,,,,,,,3,,,53,0
232800,note_on,66,0,2,,,,,,,,,1,,,62,49
232800,note_on,0,0,2,,,,,,,,,1,,,69,49
232800,note_on,0,0,1,,,,,,,,,0,,,81,62
232800,note_on,66,0,1,,,,,,,,,0,,,74,62
232800,note_on,240,0,3,,,,,,,,,2,,,57,0
232800,note_on,0,0,3,,,,,,,,,2,,,58,75
232880,note_on,80,0,1,,,,,,,,,0,,,81,0
232880,note_on,0,0,1,,,,,,,,,0,,,74,0
232880,note_on,0,0,1,,,,,,,,,0,,,74,62
232880,note_on,0,0,1,,,,,,,,,0,,,81,62
232880,note_on,0,0,2,,,,,,,,,1,,,62,0
232880,note_on,80,0,2,,,,,,,,,1,,,69,0
232880,note_on,0,0,2,,,,,,,,,1,,,62,49
232880,note_on,0,0,2,,,,,,,,,1,,,69,49
232959,note_on,79,0,2,,,,,,,,,1,,,69,0
232959,note_on,0,0,2,,,,,,,,,1,,,62,0
232959,note_on,0,0,2,,,,,,,,,1,,,62,49
232959,note_on,0,0,2,,,,,,,,,1,,,69,49
232959,note_on,0,0,1,,,,,,,,,0,,,81,62
232959,note_on,79,0,1,,,,,,,,,0,,,81,0
232959,note_on,0,0,1,,,,,,,,,0,,,74,0
232959,note_on,0,0,1,,,,,,,,,0,,,74,62
233040,note_on,0,0,2,,,,,,,,,1,,,62,49
233040,note_on,81,0,1,,,,,,,,,0,,,81,0
233040,note_on,81,0,2,,,,,,,,,1,,,69,0
233040,note_on,0,0,1,,,,,,,,,0,,,74,0
233040,note_on,0,0,1,,,,,,,,,0,,,74,62
233040,note_on,0,0,1,,,,,,,,,0,,,79,62
233040,note_on,0,0,2,,,,,,,,,1,,,67,49
233040,note_on,0,0,2,,,,,,,,,1,,,62,0
233120,note_on,0,0,2,,,,,,,,,1,,,62,49
233120,note_on,80,0,2,,,,,,,,,1,,,67,0
233120,note_on,0,0,2,,,,,,,,,1,,,62,0
233120,note_on,0,0,2,,,,,,,,,1,,,67,49
233120,note_on,80,0,1,,,,,,,,,0,,,79,0
233120,note_on,0,0,1,,,,,,,,,0,,,74,0
233120,note_on,0,0,1,,,,,,,,,0,,,74,62
233120,note_on,0,0,1,,,,,,,,,0,,,79,62
233199,note_on,0,0,2,,,,,,,,,1,,,67,49
233199,note_on,0,0,1,,,,,,,,,0,,,79,62
233199,note_on,0,0,1,,,,,,,,,0,,,74,62
233199,note_on,0,0,1,,,,,,,,,0,,,74,0
233199,note_on,79,0,1,,,,,,,,,0,,,79,0
233199,note_on,0,0,2,,,,,,,,,1,,,62,49
233199,note_on,0,0,2,,,,,,,,,1,,,62,0
233199,note_on,79,0,2,,,,,,,,,1,,,67,0
233280,note_on,81,0,2,,,,,,,,,1,,,67,0
233280,note_on,0,0,2,,,,,,,,,1,,,62,0
233280,note_on,0,0,2,,,,,,,,,1,,,60,49
233280,note_on,0,0,2,,,,,,,,,1,,,63,49
233280,note_on,0,0,2,,,,,,,,,1,,,67,49
233280,note_on,0,0,3,,,,,,,,,2,,,57,101
233280,note_on,480,0,3,,,,,,,,,2,,,58,0
233280,note_on,0,0,4,,,,,,,,,3,,,50,88
233280,note_on,480,0,4,,,,,,,,,3,,,55,0
233280,note_on,81,0,1,,,,,,,,,0,,,79,0
233280,note_on,0,0,1,,,,,,,,,0,,,74,0
233280,note_on,0,0,1,,,,,,,,,0,,,72,62
233280,note_on,0,0,1,,,,,,,,,0,,,75,62
233280,note_on,0,0,1,,,,,,,,,0,,,79,62
233360,note_on,0,0,1,,,,,,,,,0,,,72,62
233360,note_on,80,0,1,,,,,,,,,0,,,79,0
233360,note_on,80,0,2,,,,,,,,,1,,,67,0
233360,note_on,0,0,2,,,,,,,,,1,,,63,0
233360,note_on,0,0,2,,,,,,,,,1,,,60,0
233360,note_on,0,0,2,,,,,,,,,1,,,60,49
233360,note_on,0,0,1,,,,,,,,,0,,,72,0
233360,note_on,0,0,2,,,,,,,,,1,,,67,49
233360,note_on,0,0,2,,,,,,,,,1,,,63,49
233360,note_on,0,0,1,,,,,,,,,0,,,75,0
233360,note_on,0,0,1,,,,,,,,,0,,,75,62
233360,note_on,0,0,1,,,,,,,,,0,,,79,62
233439,note_on,79,0,1,,,,,,,,,0,,,79,0
233439,note_on,0,0,1,,,,,,,,,0,,,75,0
233439,note_on,79,0,2,,,,,,,,,1,,,67,0
233439,note_on,0,0,1,,,,,,,,,0,,,72,62
233439,note_on,0,0,2,,,,,,,,,1,,,63,0
233439,note_on,0,0,1,,,,,,,,,0,,,79,62
233439,note_on,0,0,2,,,,,,,,,1,,,67,49
233439,note_on,0,0,2,,,,,,,,,1,,,63,49
233439,note_on,0,0,2,,,,,,,,,1,,,60,49
233439,note_on,0,0,2,,,,,,,,,1,,,60,0
233439,note_on,0,0,1,,,,,,,,,0,,,75,62
233439,note_on,0,0,1,,,,,,,,,0,,,72,0
233520,note_on,81,0,2,,,,,,,,,1,,,67,0
233520,note_on,0,0,2,,,,,,,,,1,,,63,0
233520,note_on,0,0,2,,,,,,,,,1,,,60,0
233520,note_on,0,0,2,,,,,,,,,1,,,66,49
233520,note_on,81,0,1,,,,,,,,,0,,,79,0
233520,note_on,0,0,1,,,,,,,,,0,,,75,0
233520,note_on,0,0,1,,,,,,,,,0,,,72,0
233520,note_on,0,0,1,,,,,,,,,0,,,72,62
233520,note_on,0,0,1,,,,,,,,,0,,,74,62
233520,note_on,0,0,1,,,,,,,,,0,,,78,62
233520,note_on,0,0,2,,,,,,,,,1,,,62,49
233600,note_on,0,0,2,,,,,,,,,1,,,66,49
233600,note_on,80,0,1,,,,,,,,,0,,,78,0
233600,note_on,0,0,1,,,,,,,,,0,,,74,0
233600,note_on,0,0,1,,,,,,,,,0,,,72,0
233600,note_on,0,0,1,,,,,,,,,0,,,72,62
233600,note_on,0,0,1,,,,,,,,,0,,,74,62
233600,note_on,0,0,1,,,,,,,,,0,,,78,62
233600,note_on,0,0,2,,,,,,,,,1,,,62,49
233600,note_on,0,0,2,,,,,,,,,1,,,62,0
233600,note_on,80,0,2,,,,,,,,,1,,,66,0
233679,note_on,0,0,1,,,,,,,,,0,,,72,62
233679,note_on,0,0,2,,,,,,,,,1,,,62,0
233679,note_on,0,0,1,,,,,,,,,0,,,72,0
233679,note_on,0,0,2,,,,,,,,,1,,,66,49
233679,note_on,0,0,2,,,,,,,,,1,,,62,49
233679,note_on,0,0,1,,,,,,,,,0,,,78,62
233679,note_on,0,0,1,,,,,,,,,0,,,74,62
233679,note_on,79,0,2,,,,,,,,,1,,,66,0
233679,note_on,79,0,1,,,,,,,,,0,,,78,0
233679,note_on,0,0,1,,,,,,,,,0,,,74,0
233760,note_on,0,0,2,,,,,,,,,1,,,62,49
233760,note_on,0,0,2,,,,,,,,,1,,,67,49
233760,note_on,0,0,3,,,,,,,,,2,,,58,75
233760,control_change,0,0,3,,,,,,,,,2,64,127,,
233760,note_on,480,0,3,,,,,,,,,2,,,57,0
233760,note_on,0,0,2,,,,,,,,,1,,,62,0
233760,note_on,81,0,2,,,,,,,,,1,,,66,0
233760,note_on,0,0,1,,,,,,,,,0,,,74,0
233760,note_on,0,0,4,,,,,,,,,3,,,55,62
233760,control_change,0,0,4,,,,,,,,,3,64,127,,
233760,note_on,480,0,4,,,,,,,,,3,,,50,0
233760,note_on,81,0,1,,,,,,,,,0,,,78,0
233760,note_on,0,0,1,,,,,,,,,0,,,72,0
233760,note_on,0,0,1,,,,,,,,,0,,,79,62
233760,note_on,0,0,1,,,,,,,,,0,,,74,62
233760,note_on,0,0,1,,,,,,,,,0,,,70,62
233840,note_on,0,0,1,,,,,,,,,0,,,79,62
233840,note_on,80,0,1,,,,,,,,,0,,,79,0
233840,note_on,80,0,2,,,,,,,,,1,,,67,0
233840,note_on,0,0,2,,,,,,,,,1,,,62,49
233840,note_on,0,0,2,,,,,,,,,1,,,67,49
233840,note_on,0,0,1,,,,,,,,,0,,,74,0
233840,note_on,0,0,1,,,,,,,,,0,,,70,0
233840,note_on,0,0,1,,,,,,,,,0,,,70,62
233840,note_on,0,0,1,,,,,,,,,0,,,74,62
233840,note_on,0,0,2,,,,,,,,,1,,,62,0
233919,note_on,79,0,1,,,,,,,,,0,,,79,0
233919,note_on,0,0,2,,,,,,,,,1,,,67,49
233919,note_on,0,0,2,,,,,,,,,1,,,62,49
233919,note_on,0,0,2,,,,,,,,,1,,,62,0
233919,note_on,79,0,2,,,,,,,,,1,,,67,0
233919,note_on,0,0,1,,,,,,,,,0,,,79,62
233919,note_on,0,0,1,,,,,,,,,0,,,74,62
233919,note_on,0,0,1,,,,,,,,,0,,,70,62
233919,note_on,0,0,1,,,,,,,,,0,,,74,0
233919,note_on,0,0,1,,,,,,,,,0,,,70,0
234000,note_on,0,0,1,,,,,,,,,0,,,70,0
234000,note_on,0,0,1,,,,,,,,,0,,,74,0
234000,note_on,81,0,1,,,,,,,,,0,,,79,0
234000,note_on,0,0,2,,,,,,,,,1,,,62,0
234000,note_on,240,0,4,,,,,,,,,3,,,55,0
234000,note_on,0,0,4,,,,,,,,,3,,,50,88
234000,note_on,0,0,3,,,,,,,,,2,,,62,101
234000,note_on,81,0,2,,,,,,,,,1,,,67,0
234000,note_on,0,0,2,,,,,,,,,1,,,67,49
234000,note_on,0,0,1,,,,,,,,,0,,,70,62
234000,note_on,0,0,1,,,,,,,,,0,,,79,62
234000,note_on,240,0,3,,,,,,,,,2,,,58,0
234080,note_on,0,0,1,,,,,,,,,0,,,70,0
234080,note_on,80,0,1,,,,,,,,,0,,,79,0
234080,note_on,0,0,1,,,,,,,,,0,,,79,62
234080,note_on,0,0,2,,,,,,,,,1,,,67,49
234080,note_on,80,0,2,,,,,,,,,1,,,67,0
234080,note_on,0,0,1,,,,,,,,,0,,,70,62
234159,note_on,79,0,2,,,,,,,,,1,,,67,0
234159,note_on,0,0,2,,,,,,,,,1,,,69,49
234159,note_on,0,0,1,,,,,,,,,0,,,81,62
234159,note_on,0,0,1,,,,,,,,,0,,,79,62
234159,note_on,0,0,1,,,,,,,,,0,,,72,62
234159,note_on,0,0,1,,,,,,,,,0,,,70,0
234159,note_on,79,0,1,,,,,,,,,0,,,79,0
234159,note_on,0,0,2,,,,,,,,,1,,,67,49
234180,note_on,0,0,4,,,,,,,,,3,,,51,62
234180,note_on,0,0,3,,,,,,,,,2,,,60,75
234180,note_on,180,0,3,,,,,,,,,2,,,62,0
234180,note_on,180,0,4,,,,,,,,,3,,,50,0
234240,note_on,81,0,2,,,,,,,,,1,,,69,0
234240,note_on,0,0,2,,,,,,,,,1,,,62,49
234240,note_on,0,0,2,,,,,,,,,1,,,67,0
234240,note_on,0,0,2,,,,,,,,,1,,,67,49
234240,note_on,60,0,4,,,,,,,,,3,,,51,0
234240,note_on,0,0,3,,,,,,,,,2,,,58,75
234240,control_change,0,0,4,,,,,,,,,3,64,0,,
234240,note_on,81,0,1,,,,,,,,,0,,,81,0
234240,note_on,0,0,1,,,,,,,,,0,,,79,0
234240,note_on,0,0,1,,,,,,,,,0,,,72,0
234240,note_on,0,0,1,,,,,,,,,0,,,74,62
234240,note_on,0,0,1,,,,,,,,,0,,,79,62
234240,note_on,0,0,1,,,,,,,,,0,,,82,62
234240,note_on,60,0,3,,,,,,,,,2,,,60,0
234240,note_on,0,0,2,,,,,,,,,1,,,70,49
234240,note_on,0,0,4,,,,,,,,,3,,,50,62
234320,note_on,0,0,1,,,,,,,,,0,,,74,62
234320,note_on,0,0,1,,,,,,,,,0,,,79,62
234320,note_on,0,0,1,,,,,,,,,0,,,82,62
234320,note_on,80,0,1,,,,,,,,,0,,,82,0
234320,note_on,0,0,1,,,,,,,,,0,,,74,0
234320,note_on,0,0,1,,,,,,,,,0,,,79,0
234320,note_on,80,0,2,,,,,,,,,1,,,70,0
234320,note_on,0,0,2,,,,,,,,,1,,,67,0
234320,note_on,0,0,2,,,,,,,,,1,,,62,0
234320,note_on,0,0,2,,,,,,,,,1,,,62,49
234320,note_on,0,0,2,,,,,,,,,1,,,67,49
234320,note_on,0,0,2,,,,,,,,,1,,,70,49
234399,note_on,0,0,1,,,,,,,,,0,,,79,0
234399,note_on,0,0,2,,,,,,,,,1,,,70,49
234399,note_on,0,0,2,,,,,,,,,1,,,67,49
234399,note_on,0,0,2,,,,,,,,,1,,,62,49
234399,note_on,0,0,2,,,,,,,,,1,,,62,0
234399,note_on,0,0,2,,,,,,,,,1,,,67,0
234399,note_on,79,0,2,,,,,,,,,1,,,70,0
234399,note_on,0,0,1,,,,,,,,,0,,,82,62
234399,note_on,0,0,1,,,,,,,,,0,,,79,62
234399,note_on,0,0,1,,,,,,,,,0,,,74,62
234399,note_on,0,0,1,,,,,,,,,0,,,74,0
234399,note_on,79,0,1,,,,,,,,,0,,,82,0
234480,note_on,0,0,1,,,,,,,,,0,,,79,0
234480,note_on,0,0,1,,,,,,,,,0,,,74,0
234480,note_on,0,0,1,,,,,,,,,0,,,74,62
234480,note_on,0,0,1,,,,,,,,,0,,,78,62
234480,note_on,0,0,1,,,,,,,,,0,,,84,62
234480,note_on,81,0,1,,,,,,,,,0,,,82,0
234480,note_on,0,0,3,,,,,,,,,2,,,57,75
234480,control_change,0,0,3,,,,,,,,,2,64,0,,
234480,note_on,0,0,2,,,,,,,,,1,,,66,49
234480,note_on,0,0,2,,,,,,,,,1,,,62,49
234480,note_on,0,0,2,,,,,,,,,1,,,62,0
234480,note_on,240,0,3,,,,,,,,,2,,,58,0
234480,note_on,81,0,2,,,,,,,,,1,,,70,0
234480,note_on,0,0,2,,,,,,,,,1,,,67,0
234480,note_on,0,0,4,,,,,,,,,3,,,50,62
234480,note_on,240,0,4,,,,,,,,,3,,,50,0
234480,note_on,0,0,2,,,,,,,,,1,,,72,49
234560,note_on,0,0,2,,,,,,,,,1,,,62,0
234560,note_on,0,0,2,,,,,,,,,1,,,66,0
234560,note_on,0,0,2,,,,,,,,,1,,,66,49
234560,note_on,0,0,2,,,,,,,,,1,,,72,49
234560,note_on,0,0,1,,,,,,,,,0,,,84,62
234560,note_on,80,0,1,,,,,,,,,0,,,84,0
234560,note_on,0,0,1,,,,,,,,,0,,,78,0
234560,note_on,0,0,1,,,,,,,,,0,,,74,0
234560,note_on,0,0,1,,,,,,,,,0,,,74,62
234560,note_on,0,0,1,,,,,,,,,0,,,78,62
234560,note_on,0,0,2,,,,,,,,,1,,,62,49
234560,note_on,80,0,2,,,,,,,,,1,,,72,0
234639,note_on,0,0,1,,,,,,,,,0,,,74,0
234639,note_on,79,0,2,,,,,,,,,1,,,72,0
234639,note_on,0,0,2,,,,,,,,,1,,,66,0
234639,note_on,0,0,2,,,,,,,,,1,,,62,0
234639,note_on,0,0,2,,,,,,,,,1,,,62,49
234639,note_on,0,0,2,,,,,,,,,1,,,66,49
234639,note_on,0,0,2,,,,,,,,,1,,,72,49
234639,note_on,79,0,1,,,,,,,,,0,,,84,0
234639,note_on,0,0,1,,,,,,,,,0,,,78,0
234639,note_on,0,0,1,,,,,,,,,0,,,74,62
234639,note_on,0,0,1,,,,,,,,,0,,,78,62
234639,note_on,0,0,1,,,,,,,,,0,,,84,62
234720,note_on,0,0,1,,,,,,,,,0,,,79,62
234720,note_on,0,0,1,,,,,,,,,0,,,74,62
234720,note_on,0,0,1,,,,,,,,,0,,,74,0
234720,note_on,0,0,1,,,,,,,,,0,,,82,62
234720,note_on,81,0,1,,,,,,,,,0,,,84,0
234720,note_on,240,0,3,,,,,,,,,2,,,57,0
234720,note_on,0,0,1,,,,,,,,,0,,,78,0
234720,control_change,0,0,3,,,,,,,,,2,64,127,,
234720,note_on,0,0,2,,,,,,,,,1,,,70,49
234720,note_on,0,0,2,,,,,,,,,1,,,62,49
234720,note_on,0,0,2,,,,,,,,,1,,,67,49
234720,note_on,81,0,2,,,,,,,,,1,,,72,0
234720,note_on,0,0,2,,,,,,,,,1,,,66,0
234720,note_on,0,0,2,,,,,,,,,1,,,62,0
234720,note_on,240,0,4,,,,,,,,,3,,,50,0
234720,note_on,0,0,3,,,,,,,,,2,,,58,75
234720,note_on,0,0,4,,,,,,,,,3,,,55,62
234720,control_change,0,0,4,,,,,,,,,3,64,127,,
234800,note_on,0,0,1,,,,,,,,,0,,,74,0
234800,note_on,0,0,1,,,,,,,,,0,,,74,62
234800,note_on,0,0,1,,,,,,,,,0,,,79,62
234800,note_on,0,0,1,,,,,,,,,0,,,82,62
234800,note_on,0,0,1,,,,,,,,,0,,,79,0
234800,note_on,0,0,2,,,,,,,,,1,,,70,49
234800,note_on,0,0,2,,,,,,,,,1,,,67,49
234800,note_on,0,0,2,,,,,,,,,1,,,62,49
234800,note_on,0,0,2,,,,,,,,,1,,,62,0
234800,note_on,0,0,2,,,,,,,,,1,,,67,0
234800,note_on,80,0,2,,,,,,,,,1,,,70,0
234800,note_on,80,0,1,,,,,,,,,0,,,82,0
234879,note_on,0,0,1,,,,,,,,,0,,,82,62
234879,note_on,0,0,2,,,,,,,,,1,,,67,0
234879,note_on,79,0,1,,,,,,,,,0,,,82,0
234879,note_on,0,0,1,,,,,,,,,0,,,79,0
234879,note_on,0,0,1,,,,,,,,,0,,,74,0
234879,note_on,0,0,1,,,,,,,,,0,,,74,62
234879,note_on,0,0,1,,,,,,,,,0,,,79,62
234879,note_on,79,0,2,,,,,,,,,1,,,70,0
234879,note_on,0,0,2,,,,,,,,,1,,,62,0
234879,note_on,0,0,2,,,,,,,,,1,,,62,49
234879,note_on,0,0,2,,,,,,,,,1,,,67,49
234879,note_on,0,0,2,,,,,,,,,1,,,70,49
234960,note_on,0,0,2,,,,,,,,,1,,,65,49
234960,note_on,0,0,2,,,,,,,,,1,,,62,0
234960,note_on,0,0,3,,,,,,,,,2,,,60,101
234960,note_on,0,0,4,,,,,,,,,3,,,48,62
234960,note_on,240,0,4,,,,,,,,,3,,,55,0
234960,note_on,0,0,2,,,,,,,,,1,,,67,0
234960,note_on,240,0,3,,,,,,,,,2,,,58,0
234960,note_on,81,0,2,,,,,,,,,1,,,70,0
234960,note_on,0,0,1,,,,,,,,,0,,,77,62
234960,note_on,0,0,1,,,,,,,,,0,,,69,62
234960,note_on,0,0,1,,,,,,,,,0,,,74,0
234960,note_on,0,0,1,,,,,,,,,0,,,79,0
234960,note_on,81,0,1,,,,,,,,,0,,,82,0
235040,note_on,0,0,2,,,,,,,,,1,,,65,49
235040,note_on,80,0,2,,,,,,,,,1,,,65,0
235040,note_on,0,0,1,,,,,,,,,0,,,69,62
235040,note_on,0,0,1,,,,,,,,,0,,,69,0
235040,note_on,80,0,1,,,,,,,,,0,,,77,0
235040,note_on,0,0,1,,,,,,,,,0,,,77,62
235119,note_on,79,0,2,,,,,,,,,1,,,65,0
235119,note_on,0,0,2,,,,,,,,,1,,,65,49
235119,note_on,79,0,1,,,,,,,,,0,,,77,0
235119,note_on,0,0,2,,,,,,,,,1,,,67,49
235119,note_on,0,0,1,,,,,,,,,0,,,69,0
235119,note_on,0,0,1,,,,,,,,,0,,,77,62
235119,note_on,0,0,1,,,,,,,,,0,,,79,62
235119,note_on,0,0,1,,,,,,,,,0,,,70,62
235140,note_on,180,0,3,,,,,,,,,2,,,60,0
235140,note_on,0,0,3,,,,,,,,,2,,,58,75
235140,note_on,180,0,4,,,,,,,,,3,,,48,0
235140,note_on,0,0,4,,,,,,,,,3,,,49,62
235200,note_on,0,0,1,,,,,,,,,0,,,77,62
235200,note_on,0,0,4,,,,,,,,,3,,,48,62
235200,note_on,0,0,1,,,,,,,,,0,,,70,0
235200,note_on,81,0,1,,,,,,,,,0,,,79,0
235200,note_on,0,0,2,,,,,,,,,1,,,69,49
235200,note_on,0,0,2,,,,,,,,,1,,,65,49
235200,note_on,0,0,3,,,,,,,,,2,,,57,75
235200,note_on,60,0,3,,,,,,,,,2,,,58,0
235200,note_on,0,0,1,,,,,,,,,0,,,77,0
235200,note_on,0,0,2,,,,,,,,,1,,,60,49
235200,note_on,0,0,1,,,,,,,,,0,,,72,62
235200,note_on,81,0,2,,,,,,,,,1,,,67,0
235200,note_on,0,0,2,,,,,,,,,1,,,65,0
235200,note_on,60,0,4,,,,,,,,,3,,,49,0
235200,note_on,0,0,1,,,,,,,,,0,,,81,62
235280,note_on,0,0,1,,,,,,,,,0,,,77,0
235280,note_on,0,0,2,,,,,,,,,1,,,60,49
235280,note_on,0,0,2,,,,,,,,,1,,,60,0
235280,note_on,0,0,2,,,,,,,,,1,,,65,0
235280,note_on,80,0,1,,,,,,,,,0,,,81,0
235280,note_on,0,0,2,,,,,,,,,1,,,65,49
235280,note_on,80,0,2,,,,,,,,,1,,,69,0
235280,note_on,0,0,1,,,,,,,,,0,,,81,62
235280,note_on,0,0,1,,,,,,,,,0,,,77,62
235280,note_on,0,0,1,,,,,,,,,0,,,72,62
235280,note_on,0,0,1,,,,,,,,,0,,,72,0
235280,note_on,0,0,2,,,,,,,,,1,,,69,49
235359,note_on,0,0,1,,,,,,,,,0,,,77,0
235359,note_on,79,0,1,,,,,,,,,0,,,81,0
235359,note_on,79,0,2,,,,,,,,,1,,,69,0
235359,note_on,0,0,2,,,,,,,,,1,,,65,0
235359,note_on,0,0,2,,,,,,,,,1,,,60,0
235359,note_on,0,0,2,,,,,,,,,1,,,60,49
235359,note_on,0,0,2,,,,,,,,,1,,,65,49
235359,note_on,0,0,2,,,,,,,,,1,,,69,49
235359,note_on,0,0,1,,,,,,,,,0,,,72,0
235359,note_on,0,0,1,,,,,,,,,0,,,72,62
235359,note_on,0,0,1,,,,,,,,,0,,,77,62
235359,note_on,0,0,1,,,,,,,,,0,,,81,62
235440,note_on,240,0,4,,,,,,,,,3,,,48,0
235440,note_on,0,0,2,,,,,,,,,1,,,70,49
235440,note_on,0,0,2,,,,,,,,,1,,,64,49
235440,note_on,0,0,2,,,,,,,,,1,,,60,49
235440,note_on,0,0,2,,,,,,,,,1,,,60,0
235440,note_on,0,0,2,,,,,,,,,1,,,65,0
235440,note_on,0,0,3,,,,,,,,,2,,,55,75
235440,control_change,0,0,3,,,,,,,,,2,64,0,,
235440,note_on,0,0,1,,,,,,,,,0,,,82,62
235440,note_on,81,0,2,,,,,,,,,1,,,69,0
235440,note_on,0,0,1,,,,,,,,,0,,,72,62
235440,note_on,0,0,1,,,,,,,,,0,,,72,0
235440,note_on,0,0,1,,,,,,,,,0,,,76,62
235440,control_change,0,0,4,,,,,,,,,3,64,0,,
235440,note_on,0,0,4,,,,,,,,,3,,,48,62
235440,note_on,240,0,3,,,,,,,,,2,,,57,0
235440,note_on,81,0,1,,,,,,,,,0,,,81,0
235440,note_on,0,0,1,,,,,,,,,0,,,77,0
235520,note_on,0,0,2,,,,,,,,,1,,,70,49
235520,note_on,0,0,2,,,,,,,,,1,,,64,49
235520,note_on,0,0,2,,,,,,,,,1,,,60,49
235520,note_on,0,0,2,,,,,,,,,1,,,60,0
235520,note_on,0,0,2,,,,,,,,,1,,,64,0
235520,note_on,80,0,2,,,,,,,,,1,,,70,0
235520,note_on,0,0,1,,,,,,,,,0,,,72,62
235520,note_on,0,0,1,,,,,,,,,0,,,76,0
235520,note_on,80,0,1,,,,,,,,,0,,,82,0
235520,note_on,0,0,1,,,,,,,,,0,,,72,0
235520,note_on,0,0,1,,,,,,,,,0,,,82,62
235520,note_on,0,0,1,,,,,,,,,0,,,76,62
235599,note_on,0,0,1,,,,,,,,,0,,,76,0
235599,note_on,0,0,2,,,,,,,,,1,,,70,49
235599,note_on,0,0,2,,,,,,,,,1,,,64,49
235599,note_on,79,0,1,,,,,,,,,0,,,82,0
235599,note_on,0,0,2,,,,,,,,,1,,,60,0
235599,note_on,0,0,2,,,,,,,,,1,,,60,49
235599,note_on,0,0,1,,,,,,,,,0,,,82,62
235599,note_on,0,0,1,,,,,,,,,0,,,76,62
235599,note_on,0,0,1,,,,,,,,,0,,,72,62
235599,note_on,0,0,1,,,,,,,,,0,,,72,0
235599,note_on,79,0,2,,,,,,,,,1,,,70,0
235599,note_on,0,0,2,,,,,,,,,1,,,64,0
235680,note_on,81,0,2,,,,,,,,,1,,,70,0
235680,note_on,0,0,2,,,,,,,,,1,,,64,0
235680,note_on,0,0,2,,,,,,,,,1,,,60,0
235680,note_on,0,0,2,,,,,,,,,1,,,60,49
235680,note_on,0,0,2,,,,,,,,,1,,,65,49
235680,note_on,0,0,2,,,,,,,,,1,,,69,49
235680,control_change,0,0,4,,,,,,,,,3,64,127,,
235680,note_on,0,0,1,,,,,,,,,0,,,81,62
235680,note_on,0,0,1,,,,,,,,,0,,,77,62
235680,note_on,0,0,3,,,,,,,,,2,,,57,75
235680,control_change,0,0,3,,,,,,,,,2,64,127,,
235680,note_on,240,0,3,,,,,,,,,2,,,55,0
235680,note_on,0,0,1,,,,,,,,,0,,,72,62
235680,note_on,0,0,1,,,,,,,,,0,,,72,0
235680,note_on,0,0,1,,,,,,,,,0,,,76,0
235680,note_on,81,0,1,,,,,,,,,0,,,82,0
235680,note_on,240,0,4,,,,,,,,,3,,,48,0
235680,note_on,0,0,4,,,,,,,,,3,,,53,62
235760,note_on,0,0,2,,,,,,,,,1,,,60,49
235760,note_on,0,0,1,,,,,,,,,0,,,72,0
235760,note_on,0,0,2,,,,,,,,,1,,,65,49
235760,note_on,0,0,2,,,,,,,,,1,,,69,49
235760,note_on,0,0,1,,,,,,,,,0,,,72,62
235760,note_on,0,0,1,,,,,,,,,0,,,77,62
235760,note_on,0,0,2,,,,,,,,,1,,,65,0
235760,note_on,80,0,2,,,,,,,,,1,,,69,0
235760,note_on,0,0,1,,,,,,,,,0,,,81,62
235760,note_on,0,0,2,,,,,,,,,1,,,60,0
235760,note_on,80,0,1,,,,,,,,,0,,,81,0
235760,note_on,0,0,1,,,,,,,,,0,,,77,0
235839,note_on,0,0,1,,,,,,,,,0,,,72,0
235839,note_on,79,0,2,,,,,,,,,1,,,69,0
235839,note_on,0,0,2,,,,,,,,,1,,,65,0
235839,note_on,0,0,2,,,,,,,,,1,,,60,0
235839,note_on,0,0,2,,,,,,,,,1,,,60,49
235839,note_on,0,0,1,,,,,,,,,0,,,81,62
235839,note_on,0,0,1,,,,,,,,,0,,,77,62
235839,note_on,0,0,2,,,,,,,,,1,,,65,49
235839,note_on,0,0,2,,,,,,,,,1,,,69,49
235839,note_on,0,0,1,,,,,,,,,0,,,77,0
235839,note_on,79,0,1,,,,,,,,,0,,,81,0
235839,note_on,0,0,1,,,,,,,,,0,,,72,62
235920,note_on,81,0,2,,,,,,,,,1,,,69,0
235920,note_on,0,0,2,,,,,,,,,1,,,65,0
235920,note_on,0,0,2,,,,,,,,,1,,,60,0
235920,note_on,0,0,2,,,,,,,,,1,,,60,75
235920,note_on,0,0,2,,,,,,,,,1,,,65,75
235920,note_on,0,0,3,,,,,,,,,2,,,53,75
235920,note_on,240,0,3,,,,,,,,,2,,,57,0
235920,note_on,0,0,4,,,,,,,,,3,,,45,62
235920,note_on,240,0,4,,,,,,,,,3,,,53,0
235920,note_on,0,0,1,,,,,,,,,0,,,72,75
235920,note_on,0,0,1,,,,,,,,,0,,,84,75
235920,note_on,0,0,1,,,,,,,,,0,,,77,75
235920,note_on,0,0,1,,,,,,,,,0,,,72,0
235920,note_on,0,0,1,,,,,,,,,0,,,77,0
235920,note_on,81,0,1,,,,,,,,,0,,,81,0
236000,note_on,0,0,1,,,,,,,,,0,,,77,75
236000,note_on,0,0,1,,,,,,,,,0,,,72,75
236000,note_on,0,0,1,,,,,,,,,0,,,72,0
236000,note_on,0,0,2,,,,,,,,,1,,,60,75
236000,note_on,0,0,2,,,,,,,,,1,,,65,75
236000,note_on,0,0,1,,,,,,,,,0,,,77,0
236000,note_on,80,0,1,,,,,,,,,0,,,84,0
236000,note_on,80,0,2,,,,,,,,,1,,,65,0
236000,note_on,0,0,1,,,,,,,,,0,,,84,75
236000,note_on,0,0,2,,,,,,,,,1,,,60,0
236079,note_on,0,0,2,,,,,,,,,1,,,65,75
236079,note_on,0,0,1,,,,,,,,,0,,,84,75
236079,note_on,0,0,1,,,,,,,,,0,,,77,75
236079,note_on,0,0,1,,,,,,,,,0,,,72,75
236079,note_on,0,0,1,,,,,,,,,0,,,72,0
236079,note_on,0,0,1,,,,,,,,,0,,,77,0
236079,note_on,79,0,1,,,,,,,,,0,,,84,0
236079,note_on,79,0,2,,,,,,,,,1,,,65,0
236079,note_on,0,0,2,,,,,,,,,1,,,60,0
236079,note_on,0,0,2,,,,,,,,,1,,,60,75
236160,note_on,0,0,2,,,,,,,,,1,,,60,88
236160,note_on,81,0,2,,,,,,,,,1,,,65,0
236160,note_on,0,0,2,,,,,,,,,1,,,60,0
236160,note_on,0,0,2,,,,,,,,,1,,,64,88
236160,note_on,240,0,3,,,,,,,,,2,,,53,0
236160,note_on,81,0,1,,,,,,,,,0,,,84,0
236160,note_on,0,0,4,,,,,,,,,3,,,48,75
236160,note_on,240,0,4,,,,,,,,,3,,,45,0
236160,note_on,0,0,1,,,,,,,,,0,,,77,0
236160,note_on,0,0,1,,,,,,,,,0,,,72,0
236160,note_on,0,0,1,,,,,,,,,0,,,72,88
236160,note_on,0,0,1,,,,,,,,,0,,,76,88
236160,note_on,0,0,3,,,,,,,,,2,,,55,88
236160,note_on,0,0,1,,,,,,,,,0,,,79,88
236160,note_on,0,0,2,,,,,,,,,1,,,67,88
236240,note_on,80,0,1,,,,,,,,,0,,,79,0
236240,note_on,0,0,1,,,,,,,,,0,,,76,0
236240,note_on,80,0,2,,,,,,,,,1,,,67,0
236240,note_on,0,0,1,,,,,,,,,0,,,76,88
236240,note_on,0,0,1,,,,,,,,,0,,,79,88
236240,note_on,0,0,2,,,,,,,,,1,,,67,88
236240,note_on,0,0,2,,,,,,,,,1,,,64,88
236240,note_on,0,0,2,,,,,,,,,1,,,60,88
236240,note_on,0,0,2,,,,,,,,,1,,,60,0
236240,note_on,0,0,2,,,,,,,,,1,,,64,0
236240,note_on,0,0,1,,,,,,,,,0,,,72,88
236240,note_on,0,0,1,,,,,,,,,0,,,72,0
236319,note_on,0,0,2,,,,,,,,,1,,,60,0
236319,note_on,0,0,2,,,,,,,,,1,,,64,0
236319,note_on,79,0,2,,,,,,,,,1,,,67,0
236319,note_on,0,0,2,,,,,,,,,1,,,60,88
236319,note_on,0,0,2,,,,,,,,,1,,,64,88
236319,note_on,0,0,2,,,,,,,,,1,,,67,88
236319,note_on,0,0,1,,,,,,,,,0,,,72,0
236319,note_on,0,0,1,,,,,,,,,0,,,79,88
236319,note_on,0,0,1,,,,,,,,,0,,,76,88
236319,note_on,0,0,1,,,,,,,,,0,,,72,88
236319,note_on,0,0,1,,,,,,,,,0,,,76,0
236319,note_on,79,0,1,,,,,,,,,0,,,79,0
236400,control_change,0,0,3,,,,,,,,,2,64,0,,
236400,note_on,240,0,3,,,,,,,,,2,,,55,0
236400,note_on,0,0,2,,,,,,,,,1,,,67,88
236400,note_on,0,0,2,,,,,,,,,1,,,61,88
236400,note_on,0,0,2,,,,,,,,,1,,,60,0
236400,note_on,0,0,2,,,,,,,,,1,,,64,0
236400,note_on,81,0,2,,,,,,,,,1,,,67,0
236400,note_on,0,0,4,,,,,,,,,3,,,51,75
236400,note_on,240,0,4,,,,,,,,,3,,,48,0
236400,note_on,0,0,3,,,,,,,,,2,,,57,88
236400,note_on,81,0,1,,,,,,,,,0,,,79,0
236400,note_on,0,0,1,,,,,,,,,0,,,76,0
236400,note_on,0,0,1,,,,,,,,,0,,,72,0
236400,note_on,0,0,1,,,,,,,,,0,,,73,88
236400,note_on,0,0,1,,,,,,,,,0,,,79,88
236480,note_on,80,0,1,,,,,,,,,0,,,79,0
236480,note_on,80,0,2,,,,,,,,,1,,,67,0
236480,note_on,0,0,2,,,,,,,,,1,,,61,0
236480,note_on,0,0,2,,,,,,,,,1,,,61,88
236480,note_on,0,0,2,,,,,,,,,1,,,67,88
236480,note_on,0,0,1,,,,,,,,,0,,,73,0
236480,note_on,0,0,1,,,,,,,,,0,,,79,88
236480,note_on,0,0,1,,,,,,,,,0,,,73,88
236559,note_on,0,0,1,,,,,,,,,0,,,79,88
236559,note_on,79,0,2,,,,,,,,,1,,,67,0
236559,note_on,0,0,1,,,,,,,,,0,,,73,88
236559,note_on,0,0,1,,,,,,,,,0,,,73,0
236559,note_on,79,0,1,,,,,,,,,0,,,79,0
236559,note_on,0,0,2,,,,,,,,,1,,,67,88
236559,note_on,0,0,2,,,,,,,,,1,,,61,0
236559,note_on,0,0,2,,,,,,,,,1,,,61,88
236640,note_on,0,0,1,,,,,,,,,0,,,73,0
236640,note_on,0,0,1,,,,,,,,,0,,,74,88
236640,note_on,0,0,1,,,,,,,,,0,,,79,88
236640,note_on,240,0,4,,,,,,,,,3,,,51,0
236640,control_change,0,0,4,,,,,,,,,3,64,0,,
236640,note_on,0,0,4,,,,,,,,,3,,,50,75
236640,note_on,81,0,1,,,,,,,,,0,,,79,0
236640,note_on,240,0,3,,,,,,,,,2,,,57,0
236640,note_on,0,0,3,,,,,,,,,2,,,58,88
236640,note_on,81,0,2,,,,,,,,,1,,,67,0
236640,note_on,0,0,2,,,,,,,,,1,,,61,0
236640,note_on,0,0,2,,,,,,,,,1,,,62,88
236640,note_on,0,0,2,,,,,,,,,1,,,67,88
236720,note_on,0,0,2,,,,,,,,,1,,,67,88
236720,note_on,80,0,2,,,,,,,,,1,,,67,0
236720,note_on,0,0,2,,,,,,,,,1,,,62,0
236720,note_on,0,0,2,,,,,,,,,1,,,62,88
236720,note_on,80,0,1,,,,,,,,,0,,,79,0
236720,note_on,0,0,1,,,,,,,,,0,,,74,0
236720,note_on,0,0,1,,,,,,,,,0,,,74,88
236720,note_on,0,0,1,,,,,,,,,0,,,79,88
236799,note_on,79,0,2,,,,,,,,,1,,,67,0
236799,note_on,0,0,2,,,,,,,,,1,,,62,0
236799,note_on,0,0,2,,,,,,,,,1,,,62,88
236799,note_on,0,0,1,,,,,,,,,0,,,79,88
236799,note_on,0,0,2,,,,,,,,,1,,,67,88
236799,note_on,0,0,1,,,,,,,,,0,,,74,0
236799,note_on,79,0,1,,,,,,,,,0,,,79,0
236799,note_on,0,0,1,,,,,,,,,0,,,74,88
236880,note_on,81,0,1,,,,,,,,,0,,,79,0
236880,note_on,0,0,1,,,,,,,,,0,,,74,0
236880,note_on,0,0,1,,,,,,,,,0,,,79,75
236880,note_on,0,0,2,,,,,,,,,1,,,67,75
236880,note_on,0,0,1,,,,,,,,,0,,,82,75
236880,note_on,0,0,3,,,,,,,,,2,,,62,88
236880,note_on,81,0,2,,,,,,,,,1,,,67,0
236880,note_on,0,0,2,,,,,,,,,1,,,62,0
236880,note_on,0,0,1,,,,,,,,,0,,,74,75
236880,note_on,0,0,2,,,,,,,,,1,,,70,75
236880,note_on,240,0,3,,,,,,,,,2,,,58,0
236960,note_on,0,0,2,,,,,,,,,1,,,67,75
236960,note_on,0,0,2,,,,,,,,,1,,,70,75
236960,note_on,0,0,1,,,,,,,,,0,,,74,0
236960,note_on,80,0,2,,,,,,,,,1,,,70,0
236960,note_on,0,0,1,,,,,,,,,0,,,79,75
236960,note_on,0,0,1,,,,,,,,,0,,,82,75
236960,note_on,80,0,1,,,,,,,,,0,,,82,0
236960,note_on,0,0,1,,,,,,,,,0,,,74,75
236960,note_on,0,0,2,,,,,,,,,1,,,67,0
236960,note_on,0,0,1,,,,,,,,,0,,,79,0
237039,note_on,0,0,1,,,,,,,,,0,,,74,0
237039,note_on,0,0,1,,,,,,,,,0,,,85,75
237039,note_on,0,0,2,,,,,,,,,1,,,73,75
237039,note_on,0,0,2,,,,,,,,,1,,,70,75
237039,note_on,0,0,2,,,,,,,,,1,,,64,75
237039,note_on,79,0,1,,,,,,,,,0,,,82,0
237039,note_on,0,0,2,,,,,,,,,1,,,67,0
237039,note_on,0,0,1,,,,,,,,,0,,,79,0
237039,note_on,79,0,2,,,,,,,,,1,,,70,0
237039,note_on,0,0,1,,,,,,,,,0,,,76,75
237039,note_on,0,0,1,,,,,,,,,0,,,82,75
237120,note_on,240,0,3,,,,,,,,,2,,,62,0
237120,note_on,0,0,2,,,,,,,,,1,,,69,62
237120,note_on,0,0,1,,,,,,,,,0,,,86,62
237120,note_on,0,0,1,,,,,,,,,0,,,81,62
237120,note_on,0,0,1,,,,,,,,,0,,,78,62
237120,note_on,0,0,1,,,,,,,,,0,,,76,0
237120,note_on,0,0,1,,,,,,,,,0,,,82,0
237120,note_on,81,0,2,,,,,,,,,1,,,73,0
237120,note_on,0,0,2,,,,,,,,,1,,,70,0
237120,note_on,81,0,1,,,,,,,,,0,,,85,0
237120,note_on,0,0,2,,,,,,,,,1,,,66,62
237120,note_on,0,0,2,,,,,,,,,1,,,74,62
237120,note_on,0,0,2,,,,,,,,,1,,,64,0
237120,note_on,0,0,3,,,,,,,,,2,,,57,88
237200,note_on,80,0,1,,,,,,,,,0,,,86,0
237200,note_on,0,0,1,,,,,,,,,0,,,78,62
237200,note_on,0,0,1,,,,,,,,,0,,,81,62
237200,note_on,80,0,2,,,,,,,,,1,,,74,0
237200,note_on,0,0,2,,,,,,,,,1,,,69,0
237200,note_on,0,0,2,,,,,,,,,1,,,66,0
237200,note_on,0,0,2,,,,,,,,,1,,,66,62
237200,note_on,0,0,2,,,,,,,,,1,,,69,62
237200,note_on,0,0,2,,,,,,,,,1,,,74,62
237200,note_on,0,0,1,,,,,,,,,0,,,81,0
237200,note_on,0,0,1,,,,,,,,,0,,,86,62
237200,note_on,0,0,1,,,,,,,,,0,,,78,0
237279,note_on,79,0,1,,,,,,,,,0,,,86,0
237279,note_on,0,0,1,,,,,,,,,0,,,86,62
237279,note_on,79,0,2,,,,,,,,,1,,,74,0
237279,note_on,0,0,2,,,,,,,,,1,,,69,0
237279,note_on,0,0,2,,,,,,,,,1,,,66,0
237279,note_on,0,0,1,,,,,,,,,0,,,81,0
237279,note_on,0,0,2,,,,,,,,,1,,,69,62
237279,note_on,0,0,2,,,,,,,,,1,,,74,62
237279,note_on,0,0,2,,,,,,,,,1,,,66,62
237279,note_on,0,0,1,,,,,,,,,0,,,81,62
237279,note_on,0,0,1,,,,,,,,,0,,,78,62
237279,note_on,0,0,1,,,,,,,,,0,,,78,0
237360,note_on,0,0,2,,,,,,,,,1,,,69,0
237360,note_on,0,0,3,,,,,,,,,2,,,62,88
237360,note_on,0,0,1,,,,,,,,,0,,,86,62
237360,note_on,0,0,1,,,,,,,,,0,,,82,62
237360,note_on,0,0,1,,,,,,,,,0,,,78,0
237360,note_on,0,0,1,,,,,,,,,0,,,81,0
237360,note_on,81,0,1,,,,,,,,,0,,,86,0
237360,note_on,0,0,4,,,,,,,,,3,,,58,62
237360,note_on,720,0,4,,,,,,,,,3,,,50,0
237360,note_on,240,0,3,,,,,,,,,2,,,57,0
237360,note_on,0,0,2,,,,,,,,,1,,,74,62
237360,note_on,81,0,2,,,,,,,,,1,,,74,0
237360,note_on,0,0,2,,,,,,,,,1,,,66,0
237360,note_on,0,0,2,,,,,,,,,1,,,70,62
237440,note_on,80,0,1,,,,,,,,,0,,,86,0
237440,note_on,0,0,1,,,,,,,,,0,,,86,62
237440,note_on,0,0,1,,,,,,,,,0,,,82,0
237440,note_on,80,0,2,,,,,,,,,1,,,74,0
237440,note_on,0,0,2,,,,,,,,,1,,,70,0
237440,note_on,0,0,2,,,,,,,,,1,,,70,62
237440,note_on,0,0,2,,,,,,,,,1,,,74,62
237440,note_on,0,0,1,,,,,,,,,0,,,82,62
237519,note_on,0,0,2,,,,,,,,,1,,,70,0
237519,note_on,79,0,2,,,,,,,,,1,,,74,0
237519,note_on,79,0,1,,,,,,,,,0,,,86,0
237519,note_on,0,0,1,,,,,,,,,0,,,82,0
237519,note_on,0,0,1,,,,,,,,,0,,,86,62
237519,note_on,0,0,2,,,,,,,,,1,,,70,62
237519,note_on,0,0,2,,,,,,,,,1,,,74,62
237519,note_on,0,0,1,,,,,,,,,0,,,82,62
237540,note_on,180,0,3,,,,,,,,,2,,,62,0
237540,note_on,0,0,3,,,,,,,,,2,,,63,88
237600,note_on,81,0,1,,,,,,,,,0,,,86,0
237600,note_on,0,0,1,,,,,,,,,0,,,82,0
237600,note_on,0,0,1,,,,,,,,,0,,,82,62
237600,note_on,60,0,3,,,,,,,,,2,,,63,0
237600,note_on,0,0,1,,,,,,,,,0,,,86,62
237600,control_change,0,0,3,,,,,,,,,2,64,127,,
237600,note_on,0,0,2,,,,,,,,,1,,,74,62
237600,note_on,0,0,2,,,,,,,,,1,,,70,62
237600,note_on,0,0,2,,,,,,,,,1,,,70,0
237600,note_on,81,0,2,,,,,,,,,1,,,74,0
237600,note_on,0,0,4,,,,,,,,,3,,,58,62
237600,note_on,240,0,4,,,,,,,,,3,,,58,0
237600,note_on,0,0,3,,,,,,,,,2,,,65,88
237680,note_on,0,0,1,,,,,,,,,0,,,86,62
237680,note_on,0,0,1,,,,,,,,,0,,,82,62
237680,note_on,0,0,1,,,,,,,,,0,,,82,0
237680,note_on,80,0,1,,,,,,,,,0,,,86,0
237680,note_on,0,0,2,,,,,,,,,1,,,70,62
237680,note_on,80,0,2,,,,,,,,,1,,,74,0
237680,note_on,0,0,2,,,,,,,,,1,,,74,62
237680,note_on,0,0,2,,,,,,,,,1,,,70,0
237759,note_on,0,0,2,,,,,,,,,1,,,70,62
237759,note_on,0,0,1,,,,,,,,,0,,,82,0
237759,note_on,0,0,1,,,,,,,,,0,,,82,62
237759,note_on,0,0,1,,,,,,,,,0,,,86,62
237759,note_on,79,0,1,,,,,,,,,0,,,86,0
237759,note_on,79,0,2,,,,,,,,,1,,,74,0
237759,note_on,0,0,2,,,,,,,,,1,,,74,62
237759,note_on,0,0,2,,,,,,,,,1,,,70,0
237840,note_on,0,0,2,,,,,,,,,1,,,70,0
237840,note_on,81,0,2,,,,,,,,,1,,,74,0
237840,note_on,0,0,3,,,,,,,,,2,,,63,88
237840,note_on,240,0,3,,,,,,,,,2,,,65,0
237840,note_on,0,0,1,,,,,,,,,0,,,86,62
237840,note_on,0,0,1,,,,,,,,,0,,,82,62
237840,note_on,0,0,1,,,,,,,,,0,,,82,0
237840,note_on,81,0,1,,,,,,,,,0,,,86,0
237840,note_on,0,0,2,,,,,,,,,1,,,74,62
237840,note_on,0,0,2,,,,,,,,,1,,,70,62
237920,note_on,0,0,2,,,,,,,,,1,,,70,62
237920,note_on,0,0,2,,,,,,,,,1,,,70,0
237920,note_on,0,0,2,,,,,,,,,1,,,74,62
237920,note_on,0,0,1,,,,,,,,,0,,,82,62
237920,note_on,0,0,1,,,,,,,,,0,,,82,0
237920,note_on,80,0,1,,,,,,,,,0,,,86,0
237920,note_on,80,0,2,,,,,,,,,1,,,74,0
237920,note_on,0,0,1,,,,,,,,,0,,,86,62
237999,note_on,0,0,1,,,,,,,,,0,,,86,62
237999,note_on,0,0,1,,,,,,,,,0,,,82,0
237999,note_on,0,0,1,,,,,,,,,0,,,82,62
237999,note_on,79,0,2,,,,,,,,,1,,,74,0
237999,note_on,0,0,2,,,,,,,,,1,,,70,0
237999,note_on,0,0,2,,,,,,,,,1,,,70,62
237999,note_on,0,0,2,,,,,,,,,1,,,74,62
237999,note_on,79,0,1,,,,,,,,,0,,,86,0
238020,note_on,0,0,3,,,,,,,,,2,,,62,88
238020,note_on,180,0,3,,,,,,,,,2,,,63,0
238080,note_on,81,0,2,,,,,,,,,1,,,74,0
238080,note_on,0,0,2,,,,,,,,,1,,,70,0
238080,note_on,0,0,2,,,,,,,,,1,,,70,62
238080,note_on,0,0,2,,,,,,,,,1,,,75,62
238080,note_on,0,0,4,,,,,,,,,3,,,53,62
238080,note_on,0,0,3,,,,,,,,,2,,,60,88
238080,note_on,81,0,1,,,,,,,,,0,,,86,0
238080,note_on,0,0,1,,,,,,,,,0,,,87,62
238080,note_on,0,0,1,,,,,,,,,0,,,82,62
238080,note_on,0,0,1,,,,,,,,,0,,,82,0
238080,note_on,60,0,3,,,,,,,,,2,,,62,0
238080,note_on,480,0,4,,,,,,,,,3,,,58,0
238160,note_on,0,0,2,,,,,,,,,1,,,70,0
238160,note_on,80,0,2,,,,,,,,,1,,,75,0
238160,note_on,0,0,2,,,,,,,,,1,,,75,62
238160,note_on,80,0,1,,,,,,,,,0,,,87,0
238160,note_on,0,0,1,,,,,,,,,0,,,82,0
238160,note_on,0,0,1,,,,,,,,,0,,,81,62
238160,note_on,0,0,1,,,,,,,,,0,,,87,62
238160,note_on,0,0,2,,,,,,,,,1,,,69,62
238239,note_on,0,0,1,,,,,,,,,0,,,87,62
238239,note_on,79,0,2,,,,,,,,,1,,,75,0
238239,note_on,0,0,2,,,,,,,,,1,,,69,62
238239,note_on,0,0,2,,,,,,,,,1,,,75,62
238239,note_on,0,0,2,,,,,,,,,1,,,69,0
238239,note_on,0,0,1,,,,,,,,,0,,,81,0
238239,note_on,79,0,1,,,,,,,,,0,,,87,0
238239,note_on,0,0,1,,,,,,,,,0,,,81,62
238254,note_on,0,0,2,,,,,,,,,1,,,69,0
238254,note_on,15,0,2,,,,,,,,,1,,,75,0
238254,note_on,0,0,1,,,,,,,,,0,,,81,0
238254,note_on,15,0,1,,,,,,,,,0,,,87,0
238320,note_on,0,0,1,,,,,,,,,0,,,87,62
238320,note_on,240,0,4,,,,,,,,,3,,,53,0
238320,note_on,66,0,2,,,,,,,,,1,,,70,62
238320,note_on,0,0,3,,,,,,,,,2,,,62,88
238320,note_on,0,0,4,,,,,,,,,3,,,58,62
238320,control_change,0,0,3,,,,,,,,,2,64,0,,
238320,note_on,240,0,3,,,,,,,,,2,,,60,0
238320,note_on,66,0,1,,,,,,,,,0,,,82,62
238320,note_on,0,0,2,,,,,,,,,1,,,75,62
238400,note_on,0,0,2,,,,,,,,,1,,,70,62
238400,note_on,0,0,2,,,,,,,,,1,,,70,0
238400,note_on,80,0,2,,,,,,,,,1,,,75,0
238400,note_on,80,0,1,,,,,,,,,0,,,87,0
238400,note_on,0,0,1,,,,,,,,,0,,,86,62
238400,note_on,0,0,1,,,,,,,,,0,,,82,62
238400,note_on,0,0,1,,,,,,,,,0,,,82,0
238400,note_on,0,0,2,,,,,,,,,1,,,74,62
238479,note_on,0,0,1,,,,,,,,,0,,,82,62
238479,note_on,0,0,1,,,,,,,,,0,,,82,0
238479,note_on,79,0,1,,,,,,,,,0,,,86,0
238479,note_on,0,0,2,,,,,,,,,1,,,74,62
238479,note_on,0,0,2,,,,,,,,,1,,,70,62
238479,note_on,79,0,2,,,,,,,,,1,,,74,0
238479,note_on,0,0,2,,,,,,,,,1,,,70,0
238479,note_on,0,0,1,,,,,,,,,0,,,86,62
238494,note_on,0,0,2,,,,,,,,,1,,,70,0
238494,note_on,15,0,1,,,,,,,,,0,,,86,0
238494,note_on,0,0,1,,,,,,,,,0,,,82,0
238494,note_on,15,0,2,,,,,,,,,1,,,74,0
238560,note_on,240,0,3,,,,,,,,,2,,,62,0
238560,note_on,0,0,3,,,,,,,,,2,,,63,88
238560,note_on,240,0,4,,,,,,,,,3,,,58,0
238560,note_on,0,0,4,,,,,,,,,3,,,60,62
238560,note_on,66,0,1,,,,,,,,,0,,,79,62
238560,note_on,0,0,2,,,,,,,,,1,,,74,62
238560,note_on,66,0,2,,,,,,,,,1,,,67,62
238560,note_on,0,0,1,,,,,,,,,0,,,86,62
238640,note_on,0,0,1,,,,,,,,,0,,,79,0
238640,note_on,80,0,1,,,,,,,,,0,,,86,0
238640,note_on,0,0,1,,,,,,,,,0,,,79,62
238640,note_on,80,0,2,,,,,,,,,1,,,74,0
238640,note_on,0,0,2,,,,,,,,,1,,,67,0
238640,note_on,0,0,2,,,,,,,,,1,,,67,62
238640,note_on,0,0,2,,,,,,,,,1,,,74,62
238640,note_on,0,0,1,,,,,,,,,0,,,86,62
238719,note_on,79,0,1,,,,,,,,,0,,,86,0
238719,note_on,0,0,1,,,,,,,,,0,,,79,0
238719,note_on,79,0,2,,,,,,,,,1,,,74,0
238719,note_on,0,0,2,,,,,,,,,1,,,67,62
238719,note_on,0,0,2,,,,,,,,,1,,,74,62
238719,note_on,0,0,2,,,,,,,,,1,,,67,0
238719,note_on,0,0,1,,,,,,,,,0,,,79,62
238719,note_on,0,0,1,,,,,,,,,0,,,86,62
238800,note_on,0,0,2,,,,,,,,,1,,,67,0
238800,note_on,0,0,2,,,,,,,,,1,,,72,62
238800,note_on,81,0,2,,,,,,,,,1,,,74,0
238800,note_on,0,0,1,,,,,,,,,0,,,84,62
238800,note_on,0,0,1,,,,,,,,,0,,,79,0
238800,note_on,81,0,1,,,,,,,,,0,,,86,0
238800,note_on,0,0,2,,,,,,,,,1,,,67,62
238800,note_on,0,0,1,,,,,,,,,0,,,79,62
238880,note_on,80,0,2,,,,,,,,,1,,,72,0
238880,note_on,0,0,2,,,,,,,,,1,,,67,0
238880,note_on,0,0,2,,,,,,,,,1,,,67,62
238880,note_on,0,0,2,,,,,,,,,1,,,72,62
238880,note_on,0,0,1,,,,,,,,,0,,,84,62
238880,note_on,0,0,1,,,,,,,,,0,,,79,62
238880,note_on,0,0,1,,,,,,,,,0,,,79,0
238880,note_on,80,0,1,,,,,,,,,0,,,84,0
238959,note_on,79,0,1,,,,,,,,,0,,,84,0
238959,note_on,0,0,2,,,,,,,,,1,,,67,0
238959,note_on,0,0,2,,,,,,,,,1,,,67,62
238959,note_on,0,0,2,,,,,,,,,1,,,72,62
238959,note_on,0,0,1,,,,,,,,,0,,,84,62
238959,note_on,0,0,1,,,,,,,,,0,,,79,62
238959,note_on,0,0,1,,,,,,,,,0,,,79,0
238959,note_on,79,0,2,,,,,,,,,1,,,72,0
239040,note_on,81,0,2,,,,,,,,,1,,,72,0
239040,note_on,0,0,2,,,,,,,,,1,,,67,0
239040,note_on,0,0,2,,,,,,,,,1,,,65,62
239040,note_on,0,0,1,,,,,,,,,0,,,80,62
239040,note_on,0,0,2,,,,,,,,,1,,,72,62
239040,note_on,0,0,4,,,,,,,,,3,,,55,88
239040,note_on,0,0,1,,,,,,,,,0,,,84,62
239040,note_on,0,0,2,,,,,,,,,1,,,68,62
239040,note_on,0,0,1,,,,,,,,,0,,,77,62
239040,note_on,0,0,1,,,,,,,,,0,,,79,0
239040,note_on,81,0,1,,,,,,,,,0,,,84,0
239040,note_on,0,0,3,,,,,,,,,2,,,62,114
239040,note_on,480,0,3,,,,,,,,,2,,,63,0
239040,note_on,480,0,4,,,,,,,,,3,,,60,0
239120,note_on,80,0,2,,,,,,,,,1,,,72,0
239120,note_on,0,0,2,,,,,,,,,1,,,68,0
239120,note_on,0,0,2,,,,,,,,,1,,,65,0
239120,note_on,0,0,2,,,,,,,,,1,,,65,62
239120,note_on,0,0,2,,,,,,,,,1,,,68,62
239120,note_on,0,0,1,,,,,,,,,0,,,77,0
239120,note_on,0,0,1,,,,,,,,,0,,,80,62
239120,note_on,0,0,1,,,,,,,,,0,,,77,62
239120,note_on,80,0,1,,,,,,,,,0,,,84,0
239120,note_on,0,0,1,,,,,,,,,0,,,84,62
239120,note_on,0,0,2,,,,,,,,,1,,,72,62
239120,note_on,0,0,1,,,,,,,,,0,,,80,0
239199,note_on,79,0,1,,,,,,,,,0,,,84,0
239199,note_on,0,0,2,,,,,,,,,1,,,65,62
239199,note_on,0,0,2,,,,,,,,,1,,,65,0
239199,note_on,0,0,2,,,,,,,,,1,,,68,0
239199,note_on,79,0,2,,,,,,,,,1,,,72,0
239199,note_on,0,0,1,,,,,,,,,0,,,80,0
239199,note_on,0,0,2,,,,,,,,,1,,,68,62
239199,note_on,0,0,2,,,,,,,,,1,,,72,62
239199,note_on,0,0,1,,,,,,,,,0,,,84,62
239199,note_on,0,0,1,,,,,,,,,0,,,80,62
239199,note_on,0,0,1,,,,,,,,,0,,,77,62
239199,note_on,0,0,1,,,,,,,,,0,,,77,0
239280,note_on,0,0,1,,,,,,,,,0,,,79,62
239280,note_on,0,0,1,,,,,,,,,0,,,83,62
239280,note_on,0,0,1,,,,,,,,,0,,,80,0
239280,note_on,0,0,1,,,,,,,,,0,,,77,62
239280,note_on,0,0,1,,,,,,,,,0,,,77,0
239280,note_on,81,0,2,,,,,,,,,1,,,72,0
239280,note_on,0,0,2,,,,,,,,,1,,,68,0
239280,note_on,0,0,2,,,,,,,,,1,,,65,0
239280,note_on,0,0,2,,,,,,,,,1,,,67,62
239280,note_on,0,0,2,,,,,,,,,1,,,71,62
239280,note_on,81,0,1,,,,,,,,,0,,,84,0
239360,note_on,80,0,2,,,,,,,,,1,,,71,0
239360,note_on,0,0,2,,,,,,,,,1,,,67,0
239360,note_on,0,0,2,,,,,,,,,1,,,67,62
239360,note_on,0,0,2,,,,,,,,,1,,,71,62
239360,note_on,80,0,1,,,,,,,,,0,,,83,0
239360,note_on,0,0,1,,,,,,,,,0,,,79,0
239360,note_on,0,0,1,,,,,,,,,0,,,77,0
239360,note_on,0,0,1,,,,,,,,,0,,,79,62
239360,note_on,0,0,1,,,,,,,,,0,,,83,62
239360,note_on,0,0,1,,,,,,,,,0,,,77,62
239439,note_on,0,0,1,,,,,,,,,0,,,77,0
239439,note_on,0,0,1,,,,,,,,,0,,,79,0
239439,note_on,79,0,1,,,,,,,,,0,,,83,0
239439,note_on,0,0,1,,,,,,,,,0,,,79,62
239439,note_on,0,0,1,,,,,,,,,0,,,83,62
239439,note_on,0,0,1,,,,,,,,,0,,,77,62
239439,note_on,79,0,2,,,,,,,,,1,,,71,0
239439,note_on,0,0,2,,,,,,,,,1,,,67,0
239439,note_on,0,0,2,,,,,,,,,1,,,67,62
239439,note_on,0,0,2,,,,,,,,,1,,,71,62
239520,note_on,480,0,4,,,,,,,,,3,,,55,0
239520,note_on,480,0,3,,,,,,,,,2,,,62,0
239520,control_change,0,0,3,,,,,,,,,2,64,127,,
239520,note_on,0,0,3,,,,,,,,,2,,,63,88
239520,note_on,0,0,2,,,,,,,,,1,,,72,62
239520,note_on,0,0,2,,,,,,,,,1,,,67,0
239520,control_change,0,0,4,,,,,,,,,3,64,127,,
239520,note_on,0,0,1,,,,,,,,,0,,,84,62
239520,note_on,0,0,1,,,,,,,,,0,,,79,62
239520,note_on,0,0,1,,,,,,,,,0,,,75,62
239520,note_on,0,0,1,,,,,,,,,0,,,77,0
239520,note_on,0,0,1,,,,,,,,,0,,,79,0
239520,note_on,81,0,1,,,,,,,,,0,,,83,0
239520,note_on,0,0,2,,,,,,,,,1,,,67,62
239520,note_on,81,0,2,,,,,,,,,1,,,71,0
239520,note_on,0,0,4,,,,,,,,,3,,,60,62
239600,note_on,80,0,2,,,,,,,,,1,,,72,0
239600,note_on,0,0,2,,,,,,,,,1,,,67,62
239600,note_on,0,0,2,,,,,,,,,1,,,72,62
239600,note_on,0,0,1,,,,,,,,,0,,,84,62
239600,note_on,0,0,1,,,,,,,,,0,,,79,62
239600,note_on,0,0,1,,,,,,,,,0,,,75,62
239600,note_on,0,0,1,,,,,,,,,0,,,75,0
239600,note_on,0,0,1,,,,,,,,,0,,,79,0
239600,note_on,80,0,1,,,,,,,,,0,,,84,0
239600,note_on,0,0,2,,,,,,,,,1,,,67,0
239679,note_on,0,0,2,,,,,,,,,1,,,67,0
239679,note_on,79,0,2,,,,,,,,,1,,,72,0
239679,note_on,0,0,1,,,,,,,,,0,,,84,62
239679,note_on,0,0,1,,,,,,,,,0,,,75,62
239679,note_on,0,0,1,,,,,,,,,0,,,79,0
239679,note_on,79,0,1,,,,,,,,,0,,,84,0
239679,note_on,0,0,2,,,,,,,,,1,,,67,62
239679,note_on,0,0,1,,,,,,,,,0,,,79,62
239679,note_on,0,0,2,,,,,,,,,1,,,72,62
239679,note_on,0,0,1,,,,,,,,,0,,,75,0
239760,note_on,0,0,3,,,,,,,,,2,,,67,88
239760,note_on,0,0,1,,,,,,,,,0,,,79,0
239760,note_on,0,0,1,,,,,,,,,0,,,75,0
239760,note_on,0,0,1,,,,,,,,,0,,,75,62
239760,note_on,0,0,1,,,,,,,,,0,,,84,62
239760,note_on,240,0,3,,,,,,,,,2,,,63,0
239760,note_on,0,0,4,,,,,,,,,3,,,55,62
239760,note_on,81,0,1,,,,,,,,,0,,,84,0
239760,note_on,240,0,4,,,,,,,,,3,,,60,0
239760,note_on,81,0,2,,,,,,,,,1,,,72,0
239760,note_on,0,0,2,,,,,,,,,1,,,72,62
239760,note_on,0,0,2,,,,,,,,,1,,,67,0
239840,note_on,0,0,1,,,,,,,,,0,,,75,0
239840,note_on,80,0,2,,,,,,,,,1,,,72,0
239840,note_on,0,0,2,,,,,,,,,1,,,72,62
239840,note_on,80,0,1,,,,,,,,,0,,,84,0
239840,note_on,0,0,1,,,,,,,,,0,,,75,62
239840,note_on,0,0,1,,,,,,,,,0,,,84,62
239919,note_on,79,0,1,,,,,,,,,0,,,84,0
239919,note_on,0,0,1,,,,,,,,,0,,,75,0
239919,note_on,0,0,1,,,,,,,,,0,,,77,62
239919,note_on,0,0,1,,,,,,,,,0,,,86,62
239919,note_on,0,0,1,,,,,,,,,0,,,84,62
239919,note_on,79,0,2,,,,,,,,,1,,,72,0
239919,note_on,0,0,2,,,,,,,,,1,,,72,62
239919,note_on,0,0,2,,,,,,,,,1,,,74,62
239940,note_on,180,0,4,,,,,,,,,3,,,55,0
239940,note_on,0,0,3,,,,,,,,,2,,,65,88
239940,note_on,0,0,4,,,,,,,,,3,,,56,62
239940,note_on,180,0,3,,,,,,,,,2,,,67,0
240000,note_on,81,0,1,,,,,,,,,0,,,86,0
240000,note_on,0,0,3,,,,,,,,,2,,,63,88
240000,note_on,0,0,1,,,,,,,,,0,,,84,0
240000,note_on,0,0,1,,,,,,,,,0,,,77,0
240000,note_on,60,0,3,,,,,,,,,2,,,65,0
240000,note_on,0,0,1,,,,,,,,,0,,,84,62
240000,note_on,0,0,2,,,,,,,,,1,,,75,62
240000,note_on,0,0,2,,,,,,,,,1,,,72,62
240000,note_on,0,0,2,,,,,,,,,1,,,67,62
240000,note_on,0,0,2,,,,,,,,,1,,,72,0
240000,note_on,81,0,2,,,,,,,,,1,,,74,0
240000,note_on,0,0,4,,,,,,,,,3,,,55,62
240000,control_change,0,0,4,,,,,,,,,3,64,0,,
240000,note_on,60,0,4,,,,,,,,,3,,,56,0
240000,note_on,0,0,1,,,,,,,,,0,,,87,62
240000,note_on,0,0,1,,,,,,,,,0,,,79,62
240080,note_on,0,0,2,,,,,,,,,1,,,72,0
240080,note_on,0,0,1,,,,,,,,,0,,,84,62
240080,note_on,0,0,1,,,,,,,,,0,,,79,62
240080,note_on,0,0,1,,,,,,,,,0,,,79,0
240080,note_on,0,0,1,,,,,,,,,0,,,84,0
240080,note_on,80,0,1,,,,,,,,,0,,,87,0
240080,note_on,0,0,1,,,,,,,,,0,,,87,62
240080,note_on,80,0,2,,,,,,,,,1,,,75,0
240080,note_on,0,0,2,,,,,,,,,1,,,67,0
240080,note_on,0,0,2,,,,,,,,,1,,,67,62
240080,note_on,0,0,2,,,,,,,,,1,,,72,62
240080,note_on,0,0,2,,,,,,,,,1,,,75,62
240159,note_on,0,0,2,,,,,,,,,1,,,75,62
240159,note_on,0,0,2,,,,,,,,,1,,,72,62
240159,note_on,0,0,2,,,,,,,,,1,,,67,62
240159,note_on,0,0,2,,,,,,,,,1,,,67,0
240159,note_on,0,0,2,,,,,,,,,1,,,72,0
240159,note_on,79,0,2,,,,,,,,,1,,,75,0
240159,note_on,0,0,1,,,,,,,,,0,,,87,62
240159,note_on,0,0,1,,,,,,,,,0,,,84,62
240159,note_on,0,0,1,,,,,,,,,0,,,79,62
240159,note_on,0,0,1,,,,,,,,,0,,,79,0
240159,note_on,0,0,1,,,,,,,,,0,,,84,0
240159,note_on,79,0,1,,,,,,,,,0,,,87,0
240240,note_on,81,0,1,,,,,,,,,0,,,87,0
240240,note_on,0,0,2,,,,,,,,,1,,,67,0
240240,note_on,0,0,2,,,,,,,,,1,,,67,62
240240,note_on,0,0,2,,,,,,,,,1,,,71,62
240240,note_on,0,0,2,,,,,,,,,1,,,77,62
240240,note_on,0,0,1,,,,,,,,,0,,,84,0
240240,note_on,0,0,1,,,,,,,,,0,,,79,0
240240,note_on,0,0,1,,,,,,,,,0,,,79,62
240240,note_on,0,0,2,,,,,,,,,1,,,72,0
240240,note_on,0,0,1,,,,,,,,,0,,,83,62
240240,note_on,81,0,2,,,,,,,,,1,,,75,0
240240,note_on,240,0,3,,,,,,,,,2,,,63,0
240240,note_on,240,0,4,,,,,,,,,3,,,55,0
240240,control_change,0,0,4,,,,,,,,,3,64,127,,
240240,note_on,0,0,4,,,,,,,,,3,,,55,62
240240,control_change,0,0,3,,,,,,,,,2,64,0,,
240240,note_on,0,0,3,,,,,,,,,2,,,62,88
240240,note_on,0,0,1,,,,,,,,,0,,,89,62
240320,note_on,80,0,2,,,,,,,,,1,,,77,0
240320,note_on,0,0,1,,,,,,,,,0,,,89,62
240320,note_on,0,0,1,,,,,,,,,0,,,79,62
240320,note_on,0,0,1,,,,,,,,,0,,,79,0
240320,note_on,0,0,1,,,,,,,,,0,,,83,0
240320,note_on,0,0,2,,,,,,,,,1,,,71,0
240320,note_on,80,0,1,,,,,,,,,0,,,89,0
240320,note_on,0,0,1,,,,,,,,,0,,,83,62
240320,note_on,0,0,2,,,,,,,,,1,,,67,0
240320,note_on,0,0,2,,,,,,,,,1,,,67,62
240320,note_on,0,0,2,,,,,,,,,1,,,71,62
240320,note_on,0,0,2,,,,,,,,,1,,,77,62
240399,note_on,79,0,2,,,,,,,,,1,,,77,0
240399,note_on,0,0,2,,,,,,,,,1,,,71,0
240399,note_on,0,0,2,,,,,,,,,1,,,67,0
240399,note_on,0,0,2,,,,,,,,,1,,,67,62
240399,note_on,0,0,2,,,,,,,,,1,,,71,62
240399,note_on,0,0,2,,,,,,,,,1,,,77,62
240399,note_on,79,0,1,,,,,,,,,0,,,89,0
240399,note_on,0,0,1,,,,,,,,,0,,,89,62
240399,note_on,0,0,1,,,,,,,,,0,,,83,62
240399,note_on,0,0,1,,,,,,,,,0,,,79,62
240399,note_on,0,0,1,,,,,,,,,0,,,79,0
240399,note_on,0,0,1,,,,,,,,,0,,,83,0
240480,control_change,0,0,3,,,,,,,,,2,64,127,,
240480,note_on,240,0,3,,,,,,,,,2,,,62,0
240480,note_on,0,0,4,,,,,,,,,3,,,60,62
240480,note_on,0,0,1,,,,,,,,,0,,,83,0
240480,note_on,0,0,1,,,,,,,,,0,,,79,0
240480,note_on,0,0,3,,,,,,,,,2,,,63,88
240480,note_on,81,0,1,,,,,,,,,0,,,89,0
240480,note_on,0,0,1,,,,,,,,,0,,,84,62
240480,note_on,0,0,1,,,,,,,,,0,,,87,62
240480,note_on,0,0,1,,,,,,,,,0,,,79,62
240480,note_on,0,0,2,,,,,,,,,1,,,75,62
240480,note_on,0,0,2,,,,,,,,,1,,,72,62
240480,note_on,0,0,2,,,,,,,,,1,,,67,62
240480,note_on,0,0,2,,,,,,,,,1,,,67,0
240480,note_on,0,0,2,,,,,,,,,1,,,71,0
240480,note_on,81,0,2,,,,,,,,,1,,,77,0
240480,note_on,240,0,4,,,,,,,,,3,,,55,0
240560,note_on,80,0,1,,,,,,,,,0,,,87,0
240560,note_on,0,0,1,,,,,,,,,0,,,79,0
240560,note_on,0,0,1,,,,,,,,,0,,,79,62
240560,note_on,0,0,1,,,,,,,,,0,,,84,62
240560,note_on,0,0,1,,,,,,,,,0,,,87,62
240560,note_on,0,0,1,,,,,,,,,0,,,84,0
240560,note_on,0,0,2,,,,,,,,,1,,,75,62
240560,note_on,0,0,2,,,,,,,,,1,,,67,62
240560,note_on,0,0,2,,,,,,,,,1,,,67,0
240560,note_on,0,0,2,,,,,,,,,1,,,72,0
240560,note_on,80,0,2,,,,,,,,,1,,,75,0
240560,note_on,0,0,2,,,,,,,,,1,,,72,62
240639,note_on,0,0,1,,,,,,,,,0,,,87,62
240639,note_on,0,0,1,,,,,,,,,0,,,84,62
240639,note_on,0,0,1,,,,,,,,,0,,,79,62
240639,note_on,79,0,2,,,,,,,,,1,,,75,0
240639,note_on,79,0,1,,,,,,,,,0,,,87,0
240639,note_on,0,0,2,,,,,,,,,1,,,72,0
240639,note_on,0,0,2,,,,,,,,,1,,,67,0
240639,note_on,0,0,2,,,,,,,,,1,,,67,62
240639,note_on,0,0,2,,,,,,,,,1,,,72,62
240639,note_on,0,0,2,,,,,,,,,1,,,75,62
240639,note_on,0,0,1,,,,,,,,,0,,,79,0
240639,note_on,0,0,1,,,,,,,,,0,,,84,0
240720,note_on,0,0,1,,,,,,,,,0,,,74,62
240720,note_on,0,0,4,,,,,,,,,3,,,53,62
240720,note_on,240,0,4,,,,,,,,,3,,,60,0
240720,note_on,0,0,1,,,,,,,,,0,,,82,62
240720,note_on,0,0,3,,,,,,,,,2,,,65,88
240720,note_on,240,0,3,,,,,,,,,2,,,63,0
240720,note_on,0,0,2,,,,,,,,,1,,,70,62
240720,note_on,0,0,2,,,,,,,,,1,,,67,0
240720,note_on,81,0,1,,,,,,,,,0,,,87,0
240720,note_on,0,0,1,,,,,,,,,0,,,84,0
240720,note_on,0,0,1,,,,,,,,,0,,,79,0
240720,note_on,81,0,2,,,,,,,,,1,,,75,0
240720,note_on,0,0,2,,,,,,,,,1,,,72,0
240800,note_on,0,0,2,,,,,,,,,1,,,70,62
240800,note_on,80,0,1,,,,,,,,,0,,,82,0
240800,note_on,80,0,2,,,,,,,,,1,,,70,0
240800,note_on,0,0,1,,,,,,,,,0,,,74,0
240800,note_on,0,0,1,,,,,,,,,0,,,74,62
240800,note_on,0,0,1,,,,,,,,,0,,,82,62
240879,note_on,79,0,2,,,,,,,,,1,,,70,0
240879,note_on,0,0,2,,,,,,,,,1,,,70,62
240879,note_on,0,0,2,,,,,,,,,1,,,72,62
240879,note_on,0,0,1,,,,,,,,,0,,,84,62
240879,note_on,0,0,1,,,,,,,,,0,,,82,62
240879,note_on,0,0,1,,,,,,,,,0,,,74,0
240879,note_on,0,0,1,,,,,,,,,0,,,75,62
240879,note_on,79,0,1,,,,,,,,,0,,,82,0
240900,note_on,0,0,3,,,,,,,,,2,,,63,88
240900,note_on,180,0,3,,,,,,,,,2,,,65,0
240900,note_on,0,0,4,,,,,,,,,3,,,55,62
240900,note_on,180,0,4,,,,,,,,,3,,,53,0
240960,note_on,0,0,3,,,,,,,,,2,,,62,88
240960,note_on,60,0,3,,,,,,,,,2,,,63,0
240960,note_on,0,0,1,,,,,,,,,0,,,86,62
240960,note_on,0,0,4,,,,,,,,,3,,,53,62
240960,note_on,60,0,4,,,,,,,,,3,,,55,0
240960,note_on,0,0,2,,,,,,,,,1,,,70,62
240960,note_on,0,0,2,,,,,,,,,1,,,74,62
240960,note_on,0,0,1,,,,,,,,,0,,,82,62
240960,note_on,0,0,2,,,,,,,,,1,,,65,62
240960,note_on,0,0,1,,,,,,,,,0,,,75,0
240960,note_on,0,0,1,,,,,,,,,0,,,77,62
240960,note_on,81,0,1,,,,,,,,,0,,,84,0
240960,note_on,0,0,2,,,,,,,,,1,,,70,0
240960,note_on,81,0,2,,,,,,,,,1,,,72,0
240960,note_on,0,0,1,,,,,,,,,0,,,82,0
240960,control_change,0,0,4,,,,,,,,,3,64,0,,
241040,note_on,0,0,2,,,,,,,,,1,,,65,62
241040,note_on,0,0,2,,,,,,,,,1,,,74,62
241040,note_on,0,0,2,,,,,,,,,1,,,65,0
241040,note_on,0,0,2,,,,,,,,,1,,,70,0
241040,note_on,80,0,2,,,,,,,,,1,,,74,0
241040,note_on,0,0,2,,,,,,,,,1,,,70,62
241040,note_on,0,0,1,,,,,,,,,0,,,77,0
241040,note_on,0,0,1,,,,,,,,,0,,,86,62
241040,note_on,80,0,1,,,,,,,,,0,,,86,0
241040,note_on,0,0,1,,,,,,,,,0,,,82,0
241040,note_on,0,0,1,,,,,,,,,0,,,77,62
241040,note_on,0,0,1,,,,,,,,,0,,,82,62
241119,note_on,0,0,1,,,,,,,,,0,,,82,0
241119,note_on,0,0,1,,,,,,,,,0,,,77,0
241119,note_on,0,0,2,,,,,,,,,1,,,65,62
241119,note_on,0,0,2,,,,,,,,,1,,,70,0
241119,note_on,0,0,1,,,,,,,,,0,,,77,62
241119,note_on,79,0,2,,,,,,,,,1,,,74,0
241119,note_on,79,0,1,,,,,,,,,0,,,86,0
241119,note_on,0,0,2,,,,,,,,,1,,,70,62
241119,note_on,0,0,2,,,,,,,,,1,,,74,62
241119,note_on,0,0,2,,,,,,,,,1,,,65,0
241119,note_on,0,0,1,,,,,,,,,0,,,82,62
241119,note_on,0,0,1,,,,,,,,,0,,,86,62
241200,note_on,0,0,1,,,,,,,,,0,,,87,62
241200,note_on,81,0,1,,,,,,,,,0,,,86,0
241200,note_on,0,0,1,,,,,,,,,0,,,82,0
241200,note_on,0,0,1,,,,,,,,,0,,,77,0
241200,note_on,240,0,3,,,,,,,,,2,,,62,0
241200,note_on,0,0,1,,,,,,,,,0,,,77,62
241200,note_on,0,0,3,,,,,,,,,2,,,60,88
241200,note_on,0,0,1,,,,,,,,,0,,,81,62
241200,control_change,0,0,3,,,,,,,,,2,64,0,,
241200,note_on,0,0,2,,,,,,,,,1,,,75,62
241200,note_on,0,0,2,,,,,,,,,1,,,69,62
241200,note_on,0,0,2,,,,,,,,,1,,,65,62
241200,note_on,0,0,2,,,,,,,,,1,,,65,0
241200,note_on,0,0,2,,,,,,,,,1,,,70,0
241200,note_on,81,0,2,,,,,,,,,1,,,74,0
241200,note_on,240,0,4,,,,,,,,,3,,,53,0
241200,note_on,0,0,4,,,,,,,,,3,,,53,62
241280,note_on,80,0,2,,,,,,,,,1,,,75,0
241280,note_on,0,0,1,,,,,,,,,0,,,77,0
241280,note_on,0,0,1,,,,,,,,,0,,,77,62
241280,note_on,0,0,1,,,,,,,,,0,,,81,62
241280,note_on,0,0,2,,,,,,,,,1,,,65,62
241280,note_on,0,0,2,,,,,,,,,1,,,69,0
241280,note_on,0,0,2,,,,,,,,,1,,,65,0
241280,note_on,0,0,1,,,,,,,,,0,,,81,0
241280,note_on,0,0,1,,,,,,,,,0,,,87,62
241280,note_on,80,0,1,,,,,,,,,0,,,87,0
241280,note_on,0,0,2,,,,,,,,,1,,,75,62
241280,note_on,0,0,2,,,,,,,,,1,,,69,62
241359,note_on,0,0,1,,,,,,,,,0,,,81,0
241359,note_on,79,0,2,,,,,,,,,1,,,75,0
241359,note_on,0,0,1,,,,,,,,,0,,,77,62
241359,note_on,0,0,1,,,,,,,,,0,,,87,62
241359,note_on,0,0,2,,,,,,,,,1,,,69,0
241359,note_on,0,0,2,,,,,,,,,1,,,65,0
241359,note_on,79,0,1,,,,,,,,,0,,,87,0
241359,note_on,0,0,2,,,,,,,,,1,,,65,62
241359,note_on,0,0,2,,,,,,,,,1,,,69,62
241359,note_on,0,0,2,,,,,,,,,1,,,75,62
241359,note_on,0,0,1,,,,,,,,,0,,,77,0
241359,note_on,0,0,1,,,,,,,,,0,,,81,62
241440,note_on,0,0,2,,,,,,,,,1,,,74,62
241440,note_on,81,0,1,,,,,,,,,0,,,87,0
241440,note_on,0,0,1,,,,,,,,,0,,,81,0
241440,note_on,0,0,1,,,,,,,,,0,,,77,0
241440,note_on,0,0,1,,,,,,,,,0,,,77,62
241440,note_on,0,0,1,,,,,,,,,0,,,82,62
241440,note_on,0,0,1,,,,,,,,,0,,,86,62
241440,note_on,0,0,2,,,,,,,,,1,,,70,62
241440,note_on,0,0,2,,,,,,,,,1,,,65,62
241440,note_on,81,0,2,,,,,,,,,1,,,75,0
241440,note_on,0,0,2,,,,,,,,,1,,,69,0
241440,note_on,0,0,2,,,,,,,,,1,,,65,0
241440,note_on,0,0,3,,,,,,,,,2,,,62,88
241440,note_on,240,0,3,,,,,,,,,2,,,60,0
241440,note_on,240,0,4,,,,,,,,,3,,,53,0
241440,note_on,0,0,4,,,,,,,,,3,,,58,62
241520,note_on,0,0,2,,,,,,,,,1,,,70,62
241520,note_on,0,0,2,,,,,,,,,1,,,74,62
241520,note_on,0,0,1,,,,,,,,,0,,,86,62
241520,note_on,0,0,1,,,,,,,,,0,,,82,62
241520,note_on,0,0,1,,,,,,,,,0,,,77,62
241520,note_on,0,0,1,,,,,,,,,0,,,77,0
241520,note_on,0,0,1,,,,,,,,,0,,,82,0
241520,note_on,80,0,1,,,,,,,,,0,,,86,0
241520,note_on,0,0,2,,,,,,,,,1,,,65,62
241520,note_on,0,0,2,,,,,,,,,1,,,65,0
241520,note_on,0,0,2,,,,,,,,,1,,,70,0
241520,note_on,80,0,2,,,,,,,,,1,,,74,0
241599,note_on,0,0,1,,,,,,,,,0,,,82,0
241599,note_on,0,0,2,,,,,,,,,1,,,65,62
241599,note_on,79,0,2,,,,,,,,,1,,,74,0
241599,note_on,0,0,2,,,,,,,,,1,,,74,62
241599,note_on,0,0,2,,,,,,,,,1,,,70,62
241599,note_on,79,0,1,,,,,,,,,0,,,86,0
241599,note_on,0,0,2,,,,,,,,,1,,,70,0
241599,note_on,0,0,1,,,,,,,,,0,,,77,0
241599,note_on,0,0,1,,,,,,,,,0,,,77,62
241599,note_on,0,0,1,,,,,,,,,0,,,82,62
241599,note_on,0,0,1,,,,,,,,,0,,,86,62
241599,note_on,0,0,2,,,,,,,,,1,,,65,0
241680,note_on,0,0,2,,,,,,,,,1,,,70,62
241680,note_on,81,0,2,,,,,,,,,1,,,74,0
241680,note_on,0,0,2,,,,,,,,,1,,,70,0
241680,note_on,0,0,2,,,,,,,,,1,,,65,0
241680,note_on,0,0,2,,,,,,,,,1,,,65,62
241680,note_on,0,0,1,,,,,,,,,0,,,89,62
241680,note_on,0,0,1,,,,,,,,,0,,,82,0
241680,note_on,0,0,3,,,,,,,,,2,,,58,88
241680,note_on,0,0,1,,,,,,,,,0,,,82,62
241680,note_on,0,0,1,,,,,,,,,0,,,77,62
241680,note_on,0,0,1,,,,,,,,,0,,,77,0
241680,note_on,81,0,1,,,,,,,,,0,,,86,0
241680,note_on,240,0,4,,,,,,,,,3,,,58,0
241680,note_on,0,0,4,,,,,,,,,3,,,50,62
241680,note_on,240,0,3,,,,,,,,,2,,,62,0
241760,note_on,0,0,1,,,,,,,,,0,,,82,0
241760,note_on,80,0,1,,,,,,,,,0,,,89,0
241760,note_on,0,0,1,,,,,,,,,0,,,77,62
241760,note_on,80,0,2,,,,,,,,,1,,,70,0
241760,note_on,0,0,2,,,,,,,,,1,,,65,0
241760,note_on,0,0,2,,,,,,,,,1,,,65,62
241760,note_on,0,0,2,,,,,,,,,1,,,70,62
241760,note_on,0,0,1,,,,,,,,,0,,,89,62
241760,note_on,0,0,1,,,,,,,,,0,,,82,62
241760,note_on,0,0,1,,,,,,,,,0,,,77,0
241839,note_on,79,0,2,,,,,,,,,1,,,70,0
241839,note_on,0,0,2,,,,,,,,,1,,,65,62
241839,note_on,0,0,2,,,,,,,,,1,,,70,62
241839,note_on,0,0,2,,,,,,,,,1,,,65,0
241839,note_on,79,0,1,,,,,,,,,0,,,89,0
241839,note_on,0,0,1,,,,,,,,,0,,,82,0
241839,note_on,0,0,1,,,,,,,,,0,,,77,0
241839,note_on,0,0,1,,,,,,,,,0,,,77,62
241839,note_on,0,0,1,,,,,,,,,0,,,82,62
241839,note_on,0,0,1,,,,,,,,,0,,,89,62
241920,note_on,240,0,3,,,,,,,,,2,,,58,0
241920,note_on,0,0,2,,,,,,,,,1,,,65,62
241920,note_on,0,0,2,,,,,,,,,1,,,69,62
241920,note_on,0,0,2,,,,,,,,,1,,,72,62
241920,note_on,0,0,1,,,,,,,,,0,,,81,62
241920,note_on,0,0,1,,,,,,,,,0,,,77,62
241920,note_on,0,0,1,,,,,,,,,0,,,77,0
241920,note_on,0,0,1,,,,,,,,,0,,,82,0
241920,note_on,0,0,1,,,,,,,,,0,,,84,62
241920,note_on,0,0,2,,,,,,,,,1,,,65,0
241920,note_on,81,0,1,,,,,,,,,0,,,89,0
241920,note_on,0,0,4,,,,,,,,,3,,,53,62
241920,note_on,240,0,4,,,,,,,,,3,,,50,0
241920,note_on,0,0,3,,,,,,,,,2,,,60,88
241920,note_on,81,0,2,,,,,,,,,1,,,70,0
242000,note_on,0,0,1,,,,,,,,,0,,,81,62
242000,note_on,80,0,1,,,,,,,,,0,,,84,0
242000,note_on,0,0,1,,,,,,,,,0,,,81,0
242000,note_on,0,0,2,,,,,,,,,1,,,72,62
242000,note_on,0,0,1,,,,,,,,,0,,,77,62
242000,note_on,80,0,2,,,,,,,,,1,,,72,0
242000,note_on,0,0,2,,,,,,,,,1,,,69,0
242000,note_on,0,0,2,,,,,,,,,1,,,65,0
242000,note_on,0,0,2,,,,,,,,,1,,,65,62
242000,note_on,0,0,2,,,,,,,,,1,,,69,62
242000,note_on,0,0,1,,,,,,,,,0,,,84,62
242000,note_on,0,0,1,,,,,,,,,0,,,77,0
242079,note_on,0,0,1,,,,,,,,,0,,,77,0
242079,note_on,0,0,1,,,,,,,,,0,,,77,62
242079,note_on,0,0,1,,,,,,,,,0,,,81,62
242079,note_on,0,0,1,,,,,,,,,0,,,84,62
242079,note_on,0,0,2,,,,,,,,,1,,,65,0
242079,note_on,0,0,2,,,,,,,,,1,,,69,62
242079,note_on,0,0,2,,,,,,,,,1,,,65,62
242079,note_on,79,0,2,,,,,,,,,1,,,72,0
242079,note_on,79,0,1,,,,,,,,,0,,,84,0
242079,note_on,0,0,2,,,,,,,,,1,,,72,62
242079,note_on,0,0,1,,,,,,,,,0,,,81,0
242079,note_on,0,0,2,,,,,,,,,1,,,69,0
242160,note_on,0,0,1,,,,,,,,,0,,,81,0
242160,note_on,0,0,2,,,,,,,,,1,,,65,0
242160,note_on,0,0,2,,,,,,,,,1,,,65,62
242160,note_on,0,0,1,,,,,,,,,0,,,84,62
242160,note_on,0,0,1,,,,,,,,,0,,,81,62
242160,note_on,0,0,1,,,,,,,,,0,,,77,62
242160,note_on,0,0,1,,,,,,,,,0,,,77,0
242160,note_on,0,0,2,,,,,,,,,1,,,69,0
242160,note_on,81,0,2,,,,,,,,,1,,,72,0
242160,note_on,0,0,2,,,,,,,,,1,,,69,62
242160,note_on,0,0,2,,,,,,,,,1,,,72,62
242160,note_on,81,0,1,,,,,,,,,0,,,84,0
242240,note_on,0,0,1,,,,,,,,,0,,,77,0
242240,note_on,0,0,2,,,,,,,,,1,,,72,62
242240,note_on,0,0,2,,,,,,,,,1,,,69,62
242240,note_on,80,0,1,,,,,,,,,0,,,84,0
242240,note_on,0,0,1,,,,,,,,,0,,,81,0
242240,note_on,0,0,2,,,,,,,,,1,,,65,62
242240,note_on,0,0,2,,,,,,,,,1,,,65,0
242240,note_on,0,0,1,,,,,,,,,0,,,77,62
242240,note_on,80,0,2,,,,,,,,,1,,,72,0
242240,note_on,0,0,1,,,,,,,,,0,,,81,62
242240,note_on,0,0,2,,,,,,,,,1,,,69,0
242240,note_on,0,0,1,,,,,,,,,0,,,84,62
242319,note_on,0,0,2,,,,,,,,,1,,,72,62
242319,note_on,0,0,1,,,,,,,,,0,,,77,0
242319,note_on,0,0,1,,,,,,,,,0,,,77,62
242319,note_on,0,0,2,,,,,,,,,1,,,69,62
242319,note_on,0,0,2,,,,,,,,,1,,,65,62
242319,note_on,0,0,2,,,,,,,,,1,,,65,0
242319,note_on,0,0,2,,,,,,,,,1,,,69,0
242319,note_on,79,0,2,,,,,,,,,1,,,72,0
242319,note_on,0,0,1,,,,,,,,,0,,,81,0
242319,note_on,0,0,1,,,,,,,,,0,,,81,62
242319,note_on,0,0,1,,,,,,,,,0,,,84,62
242319,note_on,79,0,1,,,,,,,,,0,,,84,0
242400,note_on,0,0,1,,,,,,,,,0,,,86,49
242400,note_on,0,0,3,,,,,,,,,2,,,62,62
242400,note_on,0,0,4,,,,,,,,,3,,,58,62
242400,note_on,480,0,4,,,,,,,,,3,,,53,0
242400,note_on,0,0,2,,,,,,,,,1,,,74,62
242400,note_on,0,0,2,,,,,,,,,1,,,70,62
242400,note_on,0,0,2,,,,,,,,,1,,,65,62
242400,note_on,480,0,3,,,,,,,,,2,,,60,0
242400,note_on,0,0,2,,,,,,,,,1,,,69,0
242400,note_on,81,0,2,,,,,,,,,1,,,72,0
242400,note_on,0,0,1,,,,,,,,,0,,,82,49
242400,note_on,0,0,1,,,,,,,,,0,,,77,49
242400,note_on,0,0,1,,,,,,,,,0,,,77,0
242400,note_on,0,0,1,,,,,,,,,0,,,81,0
242400,note_on,81,0,1,,,,,,,,,0,,,84,0
242400,note_on,0,0,2,,,,,,,,,1,,,65,0
242480,note_on,0,0,2,,,,,,,,,1,,,70,0
242480,note_on,0,0,2,,,,,,,,,1,,,65,0
242480,note_on,0,0,2,,,,,,,,,1,,,65,62
242480,note_on,0,0,2,,,,,,,,,1,,,70,62
242480,note_on,0,0,2,,,,,,,,,1,,,74,62
242480,note_on,0,0,1,,,,,,,,,0,,,77,0
242480,note_on,80,0,2,,,,,,,,,1,,,74,0
242480,note_on,0,0,1,,,,,,,,,0,,,82,0
242480,note_on,0,0,1,,,,,,,,,0,,,86,49
242480,note_on,0,0,1,,,,,,,,,0,,,82,49
242480,note_on,0,0,1,,,,,,,,,0,,,77,49
242480,note_on,80,0,1,,,,,,,,,0,,,86,0
242559,note_on,0,0,2,,,,,,,,,1,,,70,0
242559,note_on,0,0,1,,,,,,,,,0,,,82,49
242559,note_on,0,0,1,,,,,,,,,0,,,77,49
242559,note_on,0,0,2,,,,,,,,,1,,,74,62
242559,note_on,0,0,2,,,,,,,,,1,,,70,62
242559,note_on,0,0,2,,,,,,,,,1,,,65,62
242559,note_on,0,0,2,,,,,,,,,1,,,65,0
242559,note_on,0,0,1,,,,,,,,,0,,,82,0
242559,note_on,0,0,1,,,,,,,,,0,,,86,49
242559,note_on,0,0,1,,,,,,,,,0,,,77,0
242559,note_on,79,0,1,,,,,,,,,0,,,86,0
242559,note_on,79,0,2,,,,,,,,,1,,,74,0
242640,note_on,0,0,3,,,,,,,,,2,,,58,62
242640,note_on,240,0,3,,,,,,,,,2,,,62,0
242640,note_on,0,0,4,,,,,,,,,3,,,50,62
242640,note_on,240,0,4,,,,,,,,,3,,,58,0
242640,note_on,0,0,1,,,,,,,,,0,,,82,0
242640,note_on,81,0,1,,,,,,,,,0,,,86,0
242640,note_on,0,0,2,,,,,,,,,1,,,65,62
242640,note_on,0,0,2,,,,,,,,,1,,,65,0
242640,note_on,0,0,1,,,,,,,,,0,,,77,0
242640,note_on,0,0,1,,,,,,,,,0,,,77,49
242640,note_on,0,0,2,,,,,,,,,1,,,70,0
242640,note_on,81,0,2,,,,,,,,,1,,,74,0
242640,note_on,0,0,1,,,,,,,,,0,,,82,49
242640,note_on,0,0,1,,,,,,,,,0,,,89,49
242640,note_on,0,0,2,,,,,,,,,1,,,70,62
242720,note_on,80,0,2,,,,,,,,,1,,,70,0
242720,note_on,80,0,1,,,,,,,,,0,,,89,0
242720,note_on,0,0,1,,,,,,,,,0,,,82,0
242720,note_on,0,0,1,,,,,,,,,0,,,77,0
242720,note_on,0,0,2,,,,,,,,,1,,,65,0
242720,note_on,0,0,2,,,,,,,,,1,,,70,62
242720,note_on,0,0,1,,,,,,,,,0,,,89,49
242720,note_on,0,0,1,,,,,,,,,0,,,82,49
242720,note_on,0,0,2,,,,,,,,,1,,,65,62
242720,note_on,0,0,1,,,,,,,,,0,,,77,49
242799,note_on,0,0,1,,,,,,,,,0,,,89,49
242799,note_on,0,0,1,,,,,,,,,0,,,82,49
242799,note_on,79,0,1,,,,,,,,,0,,,89,0
242799,note_on,0,0,1,,,,,,,,,0,,,82,0
242799,note_on,0,0,1,,,,,,,,,0,,,77,49
242799,note_on,0,0,2,,,,,,,,,1,,,70,62
242799,note_on,0,0,2,,,,,,,,,1,,,65,62
242799,note_on,79,0,2,,,,,,,,,1,,,70,0
242799,note_on,0,0,1,,,,,,,,,0,,,77,0
242799,note_on,0,0,2,,,,,,,,,1,,,65,0
242880,note_on,0,0,2,,,,,,,,,1,,,65,62
242880,note_on,0,0,2,,,,,,,,,1,,,65,0
242880,note_on,81,0,2,,,,,,,,,1,,,70,0
242880,note_on,0,0,2,,,,,,,,,1,,,72,62
242880,note_on,0,0,2,,,,,,,,,1,,,69,62
242880,note_on,0,0,1,,,,,,,,,0,,,77,0
242880,note_on,0,0,1,,,,,,,,,0,,,84,49
242880,note_on,0,0,1,,,,,,,,,0,,,82,0
242880,note_on,0,0,4,,,,,,,,,3,,,53,62
242880,note_on,0,0,3,,,,,,,,,2,,,60,62
242880,note_on,240,0,3,,,,,,,,,2,,,58,0
242880,note_on,0,0,1,,,,,,,,,0,,,81,49
242880,note_on,81,0,1,,,,,,,,,0,,,89,0
242880,note_on,240,0,4,,,,,,,,,3,,,50,0
242880,note_on,0,0,1,,,,,,,,,0,,,77,49
242960,note_on,0,0,1,,,,,,,,,0,,,81,0
242960,note_on,80,0,1,,,,,,,,,0,,,84,0
242960,note_on,0,0,1,,,,,,,,,0,,,81,49
242960,note_on,0,0,1,,,,,,,,,0,,,84,49
242960,note_on,0,0,1,,,,,,,,,0,,,77,49
242960,note_on,80,0,2,,,,,,,,,1,,,72,0
242960,note_on,0,0,2,,,,,,,,,1,,,69,0
242960,note_on,0,0,2,,,,,,,,,1,,,65,0
242960,note_on,0,0,2,,,,,,,,,1,,,65,62
242960,note_on,0,0,2,,,,,,,,,1,,,69,62
242960,note_on,0,0,2,,,,,,,,,1,,,72,62
242960,note_on,0,0,1,,,,,,,,,0,,,77,0
243039,note_on,0,0,1,,,,,,,,,0,,,81,49
243039,note_on,0,0,1,,,,,,,,,0,,,77,49
243039,note_on,0,0,1,,,,,,,,,0,,,77,0
243039,note_on,0,0,1,,,,,,,,,0,,,84,49
243039,note_on,0,0,2,,,,,,,,,1,,,65,0
243039,note_on,0,0,2,,,,,,,,,1,,,72,62
243039,note_on,0,0,2,,,,,,,,,1,,,69,62
243039,note_on,0,0,2,,,,,,,,,1,,,65,62
243039,note_on,79,0,2,,,,,,,,,1,,,72,0
243039,note_on,0,0,2,,,,,,,,,1,,,69,0
243039,note_on,0,0,1,,,,,,,,,0,,,81,0
243039,note_on,79,0,1,,,,,,,,,0,,,84,0
243120,note_on,0,0,1,,,,,,,,,0,,,81,49
243120,note_on,0,0,1,,,,,,,,,0,,,81,0
243120,note_on,0,0,1,,,,,,,,,0,,,77,0
243120,note_on,0,0,1,,,,,,,,,0,,,77,49
243120,note_on,0,0,1,,,,,,,,,0,,,84,49
243120,note_on,0,0,2,,,,,,,,,1,,,65,62
243120,note_on,0,0,2,,,,,,,,,1,,,65,0
243120,note_on,0,0,2,,,,,,,,,1,,,69,0
243120,note_on,81,0,2,,,,,,,,,1,,,72,0
243120,note_on,0,0,2,,,,,,,,,1,,,69,62
243120,note_on,81,0,1,,,,,,,,,0,,,84,0
243120,note_on,0,0,2,,,,,,,,,1,,,72,62
243200,note_on,0,0,2,,,,,,,,,1,,,72,62
243200,note_on,0,0,2,,,,,,,,,1,,,65,62
243200,note_on,0,0,2,,,,,,,,,1,,,65,0
243200,note_on,0,0,2,,,,,,,,,1,,,69,0
243200,note_on,80,0,2,,,,,,,,,1,,,72,0
243200,note_on,0,0,1,,,,,,,,,0,,,84,49
243200,note_on,0,0,1,,,,,,,,,0,,,81,49
243200,note_on,0,0,1,,,,,,,,,0,,,77,49
243200,note_on,0,0,1,,,,,,,,,0,,,81,0
243200,note_on,80,0,1,,,,,,,,,0,,,84,0
243200,note_on,0,0,2,,,,,,,,,1,,,69,62
243200,note_on,0,0,1,,,,,,,,,0,,,77,0
243279,note_on,0,0,2,,,,,,,,,1,,,72,62
243279,note_on,0,0,1,,,,,,,,,0,,,84,49
243279,note_on,0,0,2,,,,,,,,,1,,,69,62
243279,note_on,0,0,2,,,,,,,,,1,,,65,62
243279,note_on,0,0,2,,,,,,,,,1,,,65,0
243279,note_on,0,0,2,,,,,,,,,1,,,69,0
243279,note_on,79,0,2,,,,,,,,,1,,,72,0
243279,note_on,0,0,1,,,,,,,,,0,,,77,49
243279,note_on,0,0,1,,,,,,,,,0,,,77,0
243279,note_on,79,0,1,,,,,,,,,0,,,84,0
243279,note_on,0,0,1,,,,,,,,,0,,,81,49
243279,note_on,0,0,1,,,,,,,,,0,,,81,0
243360,note_on,81,0,1,,,,,,,,,0,,,84,0
243360,note_on,81,0,2,,,,,,,,,1,,,72,0
243360,note_on,0,0,1,,,,,,,,,0,,,77,0
243360,note_on,0,0,2,,,,,,,,,1,,,65,0
243360,note_on,0,0,2,,,,,,,,,1,,,69,62
243360,note_on,0,0,2,,,,,,,,,1,,,72,62
243360,control_change,0,0,1,,,,,,,,,0,64,127,,
243360,note_on,0,0,1,,,,,,,,,0,,,81,0
243360,note_on,0,0,2,,,,,,,,,1,,,64,62
243360,note_on,0,0,1,,,,,,,,,0,,,84,62
243360,note_on,480,0,4,,,,,,,,,3,,,53,0
243360,note_on,480,0,3,,,,,,,,,2,,,60,0
243360,note_on,0,0,4,,,,,,,,,3,,,52,62
243360,note_on,0,0,3,,,,,,,,,2,,,60,62
243360,note_on,0,0,2,,,,,,,,,1,,,69,0
243440,note_on,0,0,1,,,,,,,,,0,,,83,62
243440,note_on,80,0,1,,,,,,,,,0,,,84,0
243519,note_on,0,0,1,,,,,,,,,0,,,84,62
243519,note_on,79,0,1,,,,,,,,,0,,,83,0
243600,note_on,0,0,1,,,,,,,,,0,,,88,62
243600,note_on,81,0,1,,,,,,,,,0,,,84,0
243600,note_on,0,0,3,,,,,,,,,2,,,57,62
243600,note_on,240,0,3,,,,,,,,,2,,,60,0
243600,note_on,0,0,2,,,,,,,,,1,,,72,62
243600,note_on,0,0,2,,,,,,,,,1,,,64,62
243600,note_on,0,0,2,,,,,,,,,1,,,64,0
243600,note_on,0,0,2,,,,,,,,,1,,,69,0
243600,note_on,240,0,2,,,,,,,,,1,,,72,0
243600,note_on,0,0,2,,,,,,,,,1,,,76,62
243680,note_on,80,0,1,,,,,,,,,0,,,88,0
243680,note_on,0,0,1,,,,,,,,,0,,,86,62
243759,note_on,79,0,1,,,,,,,,,0,,,86,0
243759,note_on,0,0,1,,,,,,,,,0,,,84,62
243840,note_on,0,0,3,,,,,,,,,2,,,59,62
243840,note_on,240,0,3,,,,,,,,,2,,,57,0
243840,note_on,81,0,1,,,,,,,,,0,,,84,0
243840,note_on,0,0,1,,,,,,,,,0,,,83,62
243840,note_on,240,0,2,,,,,,,,,1,,,76,0
243840,note_on,0,0,2,,,,,,,,,1,,,72,0
243840,note_on,0,0,2,,,,,,,,,1,,,64,62
243840,note_on,0,0,2,,,,,,,,,1,,,68,62
243840,note_on,0,0,2,,,,,,,,,1,,,71,62
243840,note_on,0,0,2,,,,,,,,,1,,,64,0
243855,note_on,495,0,4,,,,,,,,,3,,,52,0
243920,note_on,65,0,4,,,,,,,,,3,,,52,62
243920,note_on,80,0,1,,,,,,,,,0,,,83,0
243920,note_on,0,0,1,,,,,,,,,0,,,80,62
243935,note_on,15,0,4,,,,,,,,,3,,,52,0
243999,note_on,79,0,1,,,,,,,,,0,,,80,0
243999,note_on,0,0,1,,,,,,,,,0,,,81,62
243999,note_on,64,0,4,,,,,,,,,3,,,52,62
244014,note_on,15,0,4,,,,,,,,,3,,,52,0
244080,note_on,0,0,1,,,,,,,,,0,,,83,62
244080,note_on,66,0,4,,,,,,,,,3,,,52,62
244080,note_on,81,0,1,,,,,,,,,0,,,81,0
244095,note_on,15,0,4,,,,,,,,,3,,,52,0
244160,note_on,80,0,1,,,,,,,,,0,,,83,0
244160,note_on,0,0,1,,,,,,,,,0,,,84,62
244160,note_on,65,0,4,,,,,,,,,3,,,52,62
244175,note_on,15,0,4,,,,,,,,,3,,,52,0
244239,control_change,0,0,1,,,,,,,,,0,64,0,,
244239,note_on,79,0,1,,,,,,,,,0,,,84,0
244239,note_on,64,0,4,,,,,,,,,3,,,52,62
244239,note_on,0,0,1,,,,,,,,,0,,,86,62
244254,note_on,15,0,4,,,,,,,,,3,,,52,0
244320,note_on,66,0,4,,,,,,,,,3,,,52,62
244320,note_on,0,0,2,,,,,,,,,1,,,72,62
244320,control_change,0,0,1,,,,,,,,,0,64,127,,
244320,note_on,480,0,3,,,,,,,,,2,,,59,0
244320,note_on,0,0,1,,,,,,,,,0,,,84,62
244320,note_on,81,0,1,,,,,,,,,0,,,86,0
244320,note_on,0,0,2,,,,,,,,,1,,,64,62
244320,note_on,0,0,2,,,,,,,,,1,,,64,0
244320,note_on,0,0,2,,,,,,,,,1,,,68,0
244320,note_on,480,0,2,,,,,,,,,1,,,71,0
244320,note_on,0,0,3,,,,,,,,,2,,,60,62
244320,note_on,0,0,2,,,,,,,,,1,,,69,62
244400,note_on,80,0,1,,,,,,,,,0,,,84,0
244400,note_on,0,0,1,,,,,,,,,0,,,88,62
244479,note_on,79,0,1,,,,,,,,,0,,,88,0
244479,note_on,0,0,1,,,,,,,,,0,,,92,62
244560,note_on,81,0,1,,,,,,,,,0,,,92,0
244560,note_on,0,0,1,,,,,,,,,0,,,93,62
244560,note_on,240,0,2,,,,,,,,,1,,,72,0
244560,note_on,240,0,3,,,,,,,,,2,,,60,0
244560,note_on,0,0,3,,,,,,,,,2,,,57,62
244560,note_on,0,0,2,,,,,,,,,1,,,69,0
244560,note_on,0,0,2,,,,,,,,,1,,,64,0
244560,note_on,0,0,2,,,,,,,,,1,,,64,62
244560,note_on,0,0,2,,,,,,,,,1,,,72,62
244560,note_on,0,0,2,,,,,,,,,1,,,76,62
244640,note_on,80,0,1,,,,,,,,,0,,,93,0
244640,note_on,0,0,1,,,,,,,,,0,,,88,62
244719,note_on,0,0,1,,,,,,,,,0,,,84,62
244719,note_on,79,0,1,,,,,,,,,0,,,88,0
244800,note_on,0,0,2,,,,,,,,,1,,,71,62
244800,note_on,240,0,2,,,,,,,,,1,,,76,0
244800,note_on,0,0,3,,,,,,,,,2,,,59,62
244800,note_on,0,0,2,,,,,,,,,1,,,64,62
244800,note_on,0,0,2,,,,,,,,,1,,,68,62
244800,note_on,0,0,2,,,,,,,,,1,,,72,0
244800,note_on,0,0,2,,,,,,,,,1,,,64,0
244800,note_on,240,0,3,,,,,,,,,2,,,57,0
244800,note_on,81,0,1,,,,,,,,,0,,,84,0
244800,note_on,0,0,1,,,,,,,,,0,,,83,62
244815,note_on,495,0,4,,,,,,,,,3,,,52,0
244880,note_on,65,0,4,,,,,,,,,3,,,52,62
244880,note_on,0,0,1,,,,,,,,,0,,,76,62
244880,note_on,80,0,1,,,,,,,,,0,,,83,0
244895,note_on,15,0,4,,,,,,,,,3,,,52,0
244959,note_on,0,0,1,,,,,,,,,0,,,78,62
244959,note_on,79,0,1,,,,,,,,,0,,,76,0
244959,note_on,64,0,4,,,,,,,,,3,,,52,62
244974,note_on,15,0,4,,,,,,,,,3,,,52,0
245040,note_on,66,0,4,,,,,,,,,3,,,52,62
245040,note_on,0,0,1,,,,,,,,,0,,,80,62
245040,note_on,81,0,1,,,,,,,,,0,,,78,0
245055,note_on,15,0,4,,,,,,,,,3,,,52,0
245120,note_on,65,0,4,,,,,,,,,3,,,52,62
245120,note_on,0,0,1,,,,,,,,,0,,,81,62
245120,note_on,80,0,1,,,,,,,,,0,,,80,0
245135,note_on,15,0,4,,,,,,,,,3,,,52,0
245199,control_change,0,0,1,,,,,,,,,0,64,0,,
245199,note_on,79,0,1,,,,,,,,,0,,,81,0
245199,note_on,0,0,1,,,,,,,,,0,,,82,62
245199,note_on,64,0,4,,,,,,,,,3,,,52,62
245214,note_on,15,0,4,,,,,,,,,3,,,52,0
245280,note_on,480,0,3,,,,,,,,,2,,,59,0
245280,note_on,0,0,3,,,,,,,,,2,,,54,62
245280,note_on,0,0,2,,,,,,,,,1,,,71,62
245280,note_on,0,0,2,,,,,,,,,1,,,69,62
245280,note_on,480,0,2,,,,,,,,,1,,,71,0
245280,note_on,0,0,2,,,,,,,,,1,,,64,0
245280,note_on,0,0,2,,,,,,,,,1,,,68,0
245280,note_on,0,0,1,,,,,,,,,0,,,83,75
245280,control_change,0,0,1,,,,,,,,,0,64,127,,
245280,note_on,0,0,3,,,,,,,,,2,,,63,62
245280,note_on,66,0,4,,,,,,,,,3,,,52,62
245280,note_on,81,0,1,,,,,,,,,0,,,82,0
245280,note_on,0,0,2,,,,,,,,,1,,,66,62
245280,note_on,0,0,3,,,,,,,,,2,,,59,62
245360,note_on,0,0,1,,,,,,,,,0,,,87,75
245360,note_on,80,0,1,,,,,,,,,0,,,83,0
245439,note_on,0,0,1,,,,,,,,,0,,,90,75
245439,note_on,79,0,1,,,,,,,,,0,,,87,0
245520,note_on,81,0,1,,,,,,,,,0,,,90,0
245520,note_on,0,0,1,,,,,,,,,0,,,93,88
245600,note_on,80,0,1,,,,,,,,,0,,,93,0
245600,note_on,0,0,1,,,,,,,,,0,,,92,88
245679,note_on,0,0,1,,,,,,,,,0,,,90,88
245679,note_on,79,0,1,,,,,,,,,0,,,92,0
245760,note_on,0,0,1,,,,,,,,,0,,,88,88
245760,note_on,81,0,1,,,,,,,,,0,,,90,0
245840,note_on,80,0,1,,,,,,,,,0,,,88,0
245840,note_on,0,0,1,,,,,,,,,0,,,87,88
245919,note_on,0,0,1,,,,,,,,,0,,,85,88
245919,note_on,79,0,1,,,,,,,,,0,,,87,0
246000,note_on,0,0,1,,,,,,,,,0,,,83,75
246000,note_on,81,0,1,,,,,,,,,0,,,85,0
246080,note_on,0,0,1,,,,,,,,,0,,,81,75
246080,note_on,80,0,1,,,,,,,,,0,,,83,0
246159,note_on,0,0,1,,,,,,,,,0,,,78,75
246159,note_on,79,0,1,,,,,,,,,0,,,81,0
246159,control_change,0,0,1,,,,,,,,,0,64,0,,
246240,note_on,0,0,3,,,,,,,,,2,,,56,62
246240,note_on,0,0,2,,,,,,,,,1,,,69,0
246240,note_on,0,0,2,,,,,,,,,1,,,66,0
246240,note_on,0,0,2,,,,,,,,,1,,,68,62
246240,note_on,0,0,2,,,,,,,,,1,,,71,62
246240,note_on,0,0,3,,,,,,,,,2,,,64,62
246240,note_on,0,0,3,,,,,,,,,2,,,54,0
246240,note_on,960,0,3,,,,,,,,,2,,,63,0
246240,note_on,81,0,1,,,,,,,,,0,,,78,0
246240,note_on,0,0,1,,,,,,,,,0,,,76,62
246240,note_on,960,0,2,,,,,,,,,1,,,71,0
246255,note_on,15,0,1,,,,,,,,,0,,,76,0
246320,control_change,65,0,1,,,,,,,,,0,64,127,,
246320,note_on,0,0,1,,,,,,,,,0,,,76,62
246399,note_on,0,0,1,,,,,,,,,0,,,78,62
246399,note_on,79,0,1,,,,,,,,,0,,,76,0
246480,note_on,81,0,1,,,,,,,,,0,,,78,0
246480,note_on,0,0,1,,,,,,,,,0,,,80,62
246560,note_on,80,0,1,,,,,,,,,0,,,80,0
246560,note_on,0,0,1,,,,,,,,,0,,,81,62
246639,note_on,79,0,1,,,,,,,,,0,,,81,0
246639,note_on,0,0,1,,,,,,,,,0,,,82,62
246720,note_on,480,0,3,,,,,,,,,2,,,64,0
246720,note_on,0,0,3,,,,,,,,,2,,,56,0
246720,note_on,0,0,3,,,,,,,,,2,,,59,0
246720,control_change,0,0,3,,,,,,,,,2,64,127,,
246720,note_on,0,0,3,,,,,,,,,2,,,59,62
246720,note_on,1440,0,4,,,,,,,,,3,,,52,0
246720,note_on,0,0,1,,,,,,,,,0,,,83,62
246720,note_on,81,0,1,,,,,,,,,0,,,82,0
246720,note_on,480,0,2,,,,,,,,,1,,,71,0
246720,note_on,0,0,2,,,,,,,,,1,,,68,0
246800,note_on,0,0,3,,,,,,,,,2,,,58,62
246800,note_on,80,0,3,,,,,,,,,2,,,59,0
246800,note_on,0,0,1,,,,,,,,,0,,,85,62
246800,note_on,80,0,1,,,,,,,,,0,,,83,0
246879,note_on,0,0,3,,,,,,,,,2,,,59,62
246879,note_on,79,0,3,,,,,,,,,2,,,58,0
246879,note_on,0,0,1,,,,,,,,,0,,,86,62
246879,note_on,79,0,1,,,,,,,,,0,,,85,0
246960,note_on,0,0,1,,,,,,,,,0,,,87,62
246960,note_on,0,0,3,,,,,,,,,2,,,60,62
246960,note_on,81,0,3,,,,,,,,,2,,,59,0
246960,note_on,81,0,1,,,,,,,,,0,,,86,0
247040,note_on,0,0,1,,,,,,,,,0,,,88,62
247040,note_on,80,0,1,,,,,,,,,0,,,87,0
247119,note_on,79,0,1,,,,,,,,,0,,,88,0
247119,control_change,0,0,1,,,,,,,,,0,64,0,,
247119,note_on,0,0,1,,,,,,,,,0,,,89,62
247140,control_change,0,0,3,,,,,,,,,2,64,0,,
247140,note_on,180,0,3,,,,,,,,,2,,,60,0
247140,note_on,0,0,3,,,,,,,,,2,,,61,62
247200,note_on,0,0,3,,,,,,,,,2,,,62,62
247200,control_change,0,0,3,,,,,,,,,2,64,127,,
247200,note_on,0,0,1,,,,,,,,,0,,,90,75
247200,note_on,60,0,3,,,,,,,,,2,,,61,0
247200,note_on,81,0,1,,,,,,,,,0,,,89,0
247200,note_on,480,0,4,,,,,,,,,3,,,52,62
247200,control_change,0,0,1,,,,,,,,,0,64,127,,
247320,note_on,120,0,3,,,,,,,,,2,,,62,0
247320,note_on,0,0,3,,,,,,,,,2,,,65,62
247320,note_on,0,0,1,,,,,,,,,0,,,85,75
247320,note_on,120,0,1,,,,,,,,,0,,,90,0
247440,note_on,0,0,1,,,,,,,,,0,,,86,75
247440,note_on,120,0,1,,,,,,,,,0,,,85,0
247440,note_on,720,0,2,,,,,,,,,1,,,74,49
247440,note_on,0,0,2,,,,,,,,,1,,,78,49
247440,note_on,0,0,3,,,,,,,,,2,,,66,62
247440,note_on,120,0,3,,,,,,,,,2,,,65,0
247440,note_on,240,0,4,,,,,,,,,3,,,52,0
247560,note_on,0,0,3,,,,,,,,,2,,,61,62
247560,note_on,120,0,1,,,,,,,,,0,,,86,0
247560,note_on,0,0,1,,,,,,,,,0,,,82,75
247560,note_on,120,0,3,,,,,,,,,2,,,66,0
247680,note_on,120,0,1,,,,,,,,,0,,,82,0
247680,note_on,0,0,1,,,,,,,,,0,,,83,75
247680,note_on,240,0,4,,,,,,,,,3,,,52,62
247680,note_on,0,0,2,,,,,,,,,1,,,74,0
247680,note_on,240,0,2,,,,,,,,,1,,,78,0
247680,note_on,0,0,3,,,,,,,,,2,,,62,62
247680,note_on,120,0,3,,,,,,,,,2,,,61,0
247800,note_on,120,0,3,,,,,,,,,2,,,62,0
247800,note_on,0,0,3,,,,,,,,,2,,,58,62
247800,note_on,0,0,1,,,,,,,,,0,,,85,75
247800,note_on,120,0,1,,,,,,,,,0,,,83,0
247920,note_on,0,0,2,,,,,,,,,1,,,83,49
247920,note_on,240,0,4,,,,,,,,,3,,,52,0
247920,note_on,120,0,3,,,,,,,,,2,,,58,0
247920,note_on,0,0,3,,,,,,,,,2,,,59,62
247920,note_on,0,0,1,,,,,,,,,0,,,86,75
247920,note_on,120,0,1,,,,,,,,,0,,,85,0
247920,note_on,240,0,2,,,,,,,,,1,,,78,49
248040,note_on,120,0,3,,,,,,,,,2,,,59,0
248040,note_on,0,0,3,,,,,,,,,2,,,60,62
248040,control_change,0,0,3,,,,,,,,,2,64,0,,
248040,note_on,0,0,1,,,,,,,,,0,,,90,75
248040,control_change,0,0,1,,,,,,,,,0,64,0,,
248040,note_on,120,0,1,,,,,,,,,0,,,86,0
248160,note_on,120,0,3,,,,,,,,,2,,,60,0
248160,note_on,0,0,1,,,,,,,,,0,,,88,75
248160,note_on,240,0,4,,,,,,,,,3,,,52,62
248160,note_on,120,0,1,,,,,,,,,0,,,90,0
248160,note_on,0,0,3,,,,,,,,,2,,,61,62
248160,control_change,0,0,1,,,,,,,,,0,64,127,,
248160,note_on,240,0,2,,,,,,,,,1,,,83,0
248160,note_on,0,0,2,,,,,,,,,1,,,78,0
248280,note_on,120,0,3,,,,,,,,,2,,,61,0
248280,note_on,0,0,1,,,,,,,,,0,,,84,75
248280,note_on,120,0,1,,,,,,,,,0,,,88,0
248280,note_on,0,0,3,,,,,,,,,2,,,63,62
248400,note_on,0,0,1,,,,,,,,,0,,,85,75
248400,note_on,120,0,1,,,,,,,,,0,,,84,0
248400,note_on,240,0,4,,,,,,,,,3,,,52,0
248400,note_on,0,0,2,,,,,,,,,1,,,76,49
248400,note_on,240,0,2,,,,,,,,,1,,,73,49
248400,note_on,120,0,3,,,,,,,,,2,,,63,0
248400,note_on,0,0,3,,,,,,,,,2,,,64,62
248520,note_on,0,0,1,,,,,,,,,0,,,80,75
248520,note_on,120,0,1,,,,,,,,,0,,,85,0
248520,note_on,120,0,3,,,,,,,,,2,,,64,0
248520,note_on,0,0,3,,,,,,,,,2,,,60,62
248640,note_on,0,0,3,,,,,,,,,2,,,61,62
248640,note_on,120,0,3,,,,,,,,,2,,,60,0
248640,note_on,0,0,2,,,,,,,,,1,,,73,0
248640,note_on,240,0,4,,,,,,,,,3,,,52,62
248640,note_on,120,0,1,,,,,,,,,0,,,80,0
248640,note_on,0,0,1,,,,,,,,,0,,,81,75
248640,note_on,240,0,2,,,,,,,,,1,,,76,0
248760,note_on,0,0,3,,,,,,,,,2,,,56,62
248760,note_on,0,0,1,,,,,,,,,0,,,83,75
248760,note_on,120,0,1,,,,,,,,,0,,,81,0
248760,note_on,120,0,3,,,,,,,,,2,,,61,0
248880,note_on,240,0,4,,,,,,,,,3,,,52,0
248880,note_on,120,0,3,,,,,,,,,2,,,56,0
248880,note_on,120,0,1,,,,,,,,,0,,,83,0
248880,note_on,0,0,3,,,,,,,,,2,,,57,62
248880,note_on,0,0,2,,,,,,,,,1,,,81,49
248880,note_on,240,0,2,,,,,,,,,1,,,76,49
248880,note_on,0,0,1,,,,,,,,,0,,,85,75
249000,note_on,0,0,3,,,,,,,,,2,,,58,62
249000,note_on,120,0,1,,,,,,,,,0,,,85,0
249000,control_change,0,0,1,,,,,,,,,0,64,0,,
249000,note_on,0,0,1,,,,,,,,,0,,,88,75
249000,note_on,120,0,3,,,,,,,,,2,,,57,0
249120,note_on,0,0,1,,,,,,,,,0,,,86,75
249120,note_on,120,0,1,,,,,,,,,0,,,88,0
249120,note_on,120,0,3,,,,,,,,,2,,,58,0
249120,control_change,0,0,1,,,,,,,,,0,64,127,,
249120,note_on,240,0,2,,,,,,,,,1,,,81,0
249120,note_on,0,0,2,,,,,,,,,1,,,76,0
249120,note_on,0,0,3,,,,,,,,,2,,,59,62
249120,note_on,240,0,4,,,,,,,,,3,,,52,62
249240,note_on,0,0,3,,,,,,,,,2,,,61,62
249240,note_on,120,0,1,,,,,,,,,0,,,86,0
249240,note_on,120,0,3,,,,,,,,,2,,,59,0
249240,note_on,0,0,1,,,,,,,,,0,,,82,75
249360,note_on,120,0,1,,,,,,,,,0,,,82,0
249360,note_on,120,0,3,,,,,,,,,2,,,61,0
249360,note_on,0,0,3,,,,,,,,,2,,,62,62
249360,note_on,240,0,4,,,,,,,,,3,,,52,0
249360,note_on,240,0,2,,,,,,,,,1,,,71,49
249360,note_on,0,0,2,,,,,,,,,1,,,76,49
249360,note_on,0,0,1,,,,,,,,,0,,,83,75
249360,note_on,0,0,2,,,,,,,,,1,,,74,49
249480,note_on,0,0,3,,,,,,,,,2,,,56,62
249480,note_on,0,0,1,,,,,,,,,0,,,86,75
249480,note_on,120,0,1,,,,,,,,,0,,,83,0
249480,note_on,120,0,3,,,,,,,,,2,,,62,0
249600,note_on,0,0,3,,,,,,,,,2,,,57,62
249600,note_on,0,0,2,,,,,,,,,1,,,74,0
249600,note_on,0,0,2,,,,,,,,,1,,,71,0
249600,note_on,0,0,1,,,,,,,,,0,,,85,75
249600,note_on,240,0,2,,,,,,,,,1,,,76,0
249600,note_on,120,0,1,,,,,,,,,0,,,86,0
249600,note_on,240,0,4,,,,,,,,,3,,,52,62
249600,note_on,120,0,3,,,,,,,,,2,,,56,0
249720,note_on,120,0,3,,,,,,,,,2,,,57,0
249720,note_on,0,0,1,,,,,,,,,0,,,75,75
249720,note_on,120,0,1,,,,,,,,,0,,,85,0
249720,note_on,0,0,3,,,,,,,,,2,,,60,62
249840,note_on,120,0,3,,,,,,,,,2,,,60,0
249840,note_on,0,0,3,,,,,,,,,2,,,61,62
249840,note_on,240,0,2,,,,,,,,,1,,,69,49
249840,note_on,120,0,1,,,,,,,,,0,,,75,0
249840,note_on,0,0,1,,,,,,,,,0,,,76,75
249840,note_on,0,0,2,,,,,,,,,1,,,73,49
249840,note_on,240,0,4,,,,,,,,,3,,,52,0
249960,note_on,0,0,1,,,,,,,,,0,,,85,75
249960,note_on,0,0,3,,,,,,,,,2,,,57,62
249960,control_change,0,0,1,,,,,,,,,0,64,0,,
249960,note_on,120,0,1,,,,,,,,,0,,,76,0
249960,note_on,120,0,3,,,,,,,,,2,,,61,0
250080,note_on,120,0,3,,,,,,,,,2,,,57,0
250080,note_on,0,0,3,,,,,,,,,2,,,56,62
250080,note_on,240,0,4,,,,,,,,,3,,,52,62
250080,note_on,240,0,2,,,,,,,,,1,,,73,0
250080,note_on,120,0,1,,,,,,,,,0,,,85,0
250080,note_on,0,0,2,,,,,,,,,1,,,69,0
250080,note_on,0,0,2,,,,,,,,,1,,,68,49
250080,note_on,0,0,2,,,,,,,,,1,,,71,49
250080,note_on,0,0,2,,,,,,,,,1,,,76,49
250080,control_change,0,0,1,,,,,,,,,0,64,127,,
250080,note_on,0,0,1,,,,,,,,,0,,,83,75
250200,note_on,120,0,1,,,,,,,,,0,,,83,0
250200,note_on,120,0,3,,,,,,,,,2,,,56,0
250200,note_on,0,0,3,,,,,,,,,2,,,59,62
250200,note_on,0,0,1,,,,,,,,,0,,,80,75
250320,note_on,0,0,2,,,,,,,,,1,,,69,49
250320,note_on,0,0,4,,,,,,,,,3,,,52,62
250320,note_on,120,0,1,,,,,,,,,0,,,80,0
250320,note_on,0,0,3,,,,,,,,,2,,,61,62
250320,note_on,120,0,3,,,,,,,,,2,,,59,0
250320,note_on,0,0,2,,,,,,,,,1,,,68,0
250320,note_on,0,0,2,,,,,,,,,1,,,71,0
250320,note_on,0,0,1,,,,,,,,,0,,,81,75
250320,note_on,240,0,2,,,,,,,,,1,,,76,0
250320,note_on,240,0,4,,,,,,,,,3,,,52,0
250320,note_on,0,0,2,,,,,,,,,1,,,71,49
250440,note_on,120,0,1,,,,,,,,,0,,,81,0
250440,note_on,0,0,1,,,,,,,,,0,,,78,75
250440,note_on,120,0,3,,,,,,,,,2,,,61,0
250440,note_on,0,0,3,,,,,,,,,2,,,63,62
250560,note_on,240,0,4,,,,,,,,,3,,,52,0
250560,note_on,0,0,1,,,,,,,,,0,,,76,75
250560,note_on,120,0,1,,,,,,,,,0,,,78,0
250560,note_on,120,0,3,,,,,,,,,2,,,63,0
250560,note_on,0,0,2,,,,,,,,,1,,,71,49
250560,note_on,0,0,2,,,,,,,,,1,,,68,49
250560,note_on,0,0,2,,,,,,,,,1,,,69,0
250560,note_on,240,0,2,,,,,,,,,1,,,71,0
250560,note_on,0,0,4,,,,,,,,,3,,,52,62
250560,note_on,0,0,3,,,,,,,,,2,,,64,62
250680,note_on,0,0,1,,,,,,,,,0,,,70,75
250680,note_on,0,0,3,,,,,,,,,2,,,61,62
250680,note_on,120,0,3,,,,,,,,,2,,,64,0
250680,note_on,120,0,1,,,,,,,,,0,,,76,0
250680,note_on,120,0,2,,,,,,,,,1,,,71,0
250680,note_on,0,0,2,,,,,,,,,1,,,68,0
250800,note_on,0,0,3,,,,,,,,,2,,,62,62
250800,note_on,0,0,1,,,,,,,,,0,,,71,75
250800,note_on,120,0,1,,,,,,,,,0,,,70,0
250800,note_on,240,0,4,,,,,,,,,3,,,52,0
250800,note_on,120,0,3,,,,,,,,,2,,,61,0
250920,note_on,0,0,3,,,,,,,,,2,,,64,62
250920,note_on,120,0,1,,,,,,,,,0,,,71,0
250920,note_on,0,0,1,,,,,,,,,0,,,73,75
250920,note_on,120,0,3,,,,,,,,,2,,,62,0
250920,control_change,0,0,1,,,,,,,,,0,64,0,,
251040,note_on,120,0,3,,,,,,,,,2,,,64,0
251040,note_on,240,0,4,,,,,,,,,3,,,40,62
251040,note_on,120,0,1,,,,,,,,,0,,,73,0
251040,note_on,0,0,1,,,,,,,,,0,,,74,75
251040,note_on,0,0,3,,,,,,,,,2,,,66,62
251160,note_on,120,0,1,,,,,,,,,0,,,74,0
251160,note_on,0,0,1,,,,,,,,,0,,,77,75
251160,note_on,120,0,3,,,,,,,,,2,,,66,0
251160,note_on,0,0,3,,,,,,,,,2,,,61,62
251280,note_on,120,0,3,,,,,,,,,2,,,61,0
251280,note_on,0,0,3,,,,,,,,,2,,,62,62
251280,note_on,240,0,4,,,,,,,,,3,,,40,0
251280,note_on,0,0,1,,,,,,,,,0,,,78,75
251280,note_on,600,0,2,,,,,,,,,1,,,66,49
251280,note_on,0,0,2,,,,,,,,,1,,,71,49
251280,note_on,120,0,1,,,,,,,,,0,,,77,0
251400,note_on,0,0,1,,,,,,,,,0,,,73,75
251400,note_on,120,0,1,,,,,,,,,0,,,78,0
251400,note_on,0,0,3,,,,,,,,,2,,,58,62
251400,note_on,120,0,3,,,,,,,,,2,,,62,0
251520,note_on,240,0,4,,,,,,,,,3,,,40,62
251520,note_on,0,0,1,,,,,,,,,0,,,74,75
251520,note_on,240,0,2,,,,,,,,,1,,,71,0
251520,note_on,120,0,1,,,,,,,,,0,,,73,0
251520,note_on,0,0,3,,,,,,,,,2,,,59,62
251520,note_on,120,0,3,,,,,,,,,2,,,58,0
251520,note_on,0,0,2,,,,,,,,,1,,,66,0
251640,note_on,120,0,1,,,,,,,,,0,,,74,0
251640,note_on,0,0,3,,,,,,,,,2,,,61,62
251640,note_on,120,0,3,,,,,,,,,2,,,59,0
251640,note_on,0,0,1,,,,,,,,,0,,,70,75
251760,note_on,0,0,1,,,,,,,,,0,,,71,75
251760,note_on,0,0,2,,,,,,,,,1,,,78,49
251760,note_on,0,0,3,,,,,,,,,2,,,62,62
251760,note_on,120,0,3,,,,,,,,,2,,,61,0
251760,note_on,240,0,4,,,,,,,,,3,,,40,0
251760,note_on,240,0,2,,,,,,,,,1,,,74,49
251760,note_on,120,0,1,,,,,,,,,0,,,70,0
251880,note_on,0,0,3,,,,,,,,,2,,,66,62
251880,note_on,120,0,3,,,,,,,,,2,,,62,0
251880,note_on,120,0,1,,,,,,,,,0,,,71,0
251880,note_on,0,0,1,,,,,,,,,0,,,72,75
252000,note_on,120,0,1,,,,,,,,,0,,,72,0
252000,note_on,0,0,2,,,,,,,,,1,,,74,0
252000,note_on,240,0,4,,,,,,,,,3,,,40,62
252000,note_on,240,0,2,,,,,,,,,1,,,78,0
252000,note_on,120,0,3,,,,,,,,,2,,,66,0
252000,note_on,0,0,1,,,,,,,,,0,,,73,75
252000,note_on,0,0,3,,,,,,,,,2,,,64,62
252120,note_on,120,0,1,,,,,,,,,0,,,73,0
252120,note_on,0,0,1,,,,,,,,,0,,,75,75
252120,note_on,120,0,3,,,,,,,,,2,,,64,0
252120,note_on,0,0,3,,,,,,,,,2,,,60,62
252240,note_on,120,0,3,,,,,,,,,2,,,60,0
252240,note_on,0,0,2,,,,,,,,,1,,,69,49
252240,note_on,240,0,2,,,,,,,,,1,,,64,49
252240,note_on,0,0,3,,,,,,,,,2,,,61,62
252240,note_on,0,0,1,,,,,,,,,0,,,76,75
252240,note_on,120,0,1,,,,,,,,,0,,,75,0
252240,note_on,240,0,4,,,,,,,,,3,,,40,0
252360,note_on,120,0,3,,,,,,,,,2,,,61,0
252360,note_on,0,0,3,,,,,,,,,2,,,56,62
252360,note_on,0,0,1,,,,,,,,,0,,,72,75
252360,note_on,120,0,1,,,,,,,,,0,,,76,0
252480,note_on,0,0,3,,,,,,,,,2,,,57,62
252480,note_on,0,0,2,,,,,,,,,1,,,64,0
252480,note_on,0,0,1,,,,,,,,,0,,,73,75
252480,note_on,120,0,1,,,,,,,,,0,,,72,0
252480,note_on,120,0,3,,,,,,,,,2,,,56,0
252480,note_on,240,0,4,,,,,,,,,3,,,40,62
252480,note_on,240,0,2,,,,,,,,,1,,,69,0
252600,note_on,0,0,1,,,,,,,,,0,,,68,75
252600,note_on,120,0,1,,,,,,,,,0,,,73,0
252600,note_on,0,0,3,,,,,,,,,2,,,59,62
252600,note_on,120,0,3,,,,,,,,,2,,,57,0
252720,note_on,120,0,3,,,,,,,,,2,,,59,0
252720,note_on,0,0,3,,,,,,,,,2,,,61,62
252720,note_on,120,0,1,,,,,,,,,0,,,68,0
252720,note_on,240,0,2,,,,,,,,,1,,,73,49
252720,note_on,0,0,1,,,,,,,,,0,,,69,75
252720,note_on,240,0,4,,,,,,,,,3,,,40,0
252720,note_on,0,0,2,,,,,,,,,1,,,76,49
252840,note_on,120,0,1,,,,,,,,,0,,,69,0
252840,note_on,120,0,3,,,,,,,,,2,,,61,0
252840,note_on,0,0,3,,,,,,,,,2,,,64,62
252840,note_on,0,0,1,,,,,,,,,0,,,70,75
252960,note_on,240,0,2,,,,,,,,,1,,,76,0
252960,note_on,0,0,2,,,,,,,,,1,,,73,0
252960,note_on,240,0,4,,,,,,,,,3,,,40,62
252960,note_on,120,0,1,,,,,,,,,0,,,70,0
252960,note_on,0,0,3,,,,,,,,,2,,,62,62
252960,note_on,120,0,3,,,,,,,,,2,,,64,0
252960,note_on,0,0,1,,,,,,,,,0,,,71,75
253080,note_on,0,0,3,,,,,,,,,2,,,58,62
253080,note_on,120,0,3,,,,,,,,,2,,,62,0
253080,note_on,120,0,1,,,,,,,,,0,,,71,0
253080,note_on,0,0,1,,,,,,,,,0,,,73,75
253200,note_on,120,0,1,,,,,,,,,0,,,73,0
253200,note_on,0,0,1,,,,,,,,,0,,,74,75
253200,note_on,240,0,2,,,,,,,,,1,,,76,49
253200,note_on,0,0,3,,,,,,,,,2,,,59,62
253200,note_on,240,0,4,,,,,,,,,3,,,40,0
253200,note_on,120,0,3,,,,,,,,,2,,,58,0
253320,note_on,0,0,1,,,,,,,,,0,,,68,75
253320,note_on,120,0,1,,,,,,,,,0,,,74,0
253320,note_on,0,0,3,,,,,,,,,2,,,62,62
253320,note_on,120,0,3,,,,,,,,,2,,,59,0
253440,note_on,120,0,1,,,,,,,,,0,,,68,0
253440,note_on,240,0,2,,,,,,,,,1,,,76,0
253440,note_on,240,0,4,,,,,,,,,3,,,40,62
253440,note_on,0,0,3,,,,,,,,,2,,,61,62
253440,note_on,0,0,1,,,,,,,,,0,,,69,75
253440,note_on,120,0,3,,,,,,,,,2,,,62,0
253560,note_on,120,0,3,,,,,,,,,2,,,61,0
253560,note_on,0,0,3,,,,,,,,,2,,,51,62
253560,note_on,0,0,1,,,,,,,,,0,,,72,75
253560,note_on,120,0,1,,,,,,,,,0,,,69,0
253680,note_on,0,0,3,,,,,,,,,2,,,52,62
253680,note_on,240,0,2,,,,,,,,,1,,,76,49
253680,note_on,120,0,3,,,,,,,,,2,,,51,0
253680,note_on,240,0,4,,,,,,,,,3,,,40,0
253680,note_on,120,0,1,,,,,,,,,0,,,72,0
253680,note_on,0,0,1,,,,,,,,,0,,,73,75
253800,note_on,0,0,1,,,,,,,,,0,,,69,75
253800,note_on,120,0,1,,,,,,,,,0,,,73,0
253800,note_on,120,0,3,,,,,,,,,2,,,52,0
253800,note_on,0,0,3,,,,,,,,,2,,,61,62
253920,note_on,120,0,1,,,,,,,,,0,,,69,0
253920,note_on,0,0,2,,,,,,,,,1,,,76,49
253920,note_on,240,0,2,,,,,,,,,1,,,76,0
253920,note_on,240,0,4,,,,,,,,,3,,,40,62
253920,note_on,0,0,1,,,,,,,,,0,,,68,75
253920,note_on,0,0,3,,,,,,,,,2,,,59,62
253920,note_on,120,0,3,,,,,,,,,2,,,61,0
254040,note_on,0,0,3,,,,,,,,,2,,,56,62
254040,note_on,120,0,3,,,,,,,,,2,,,59,0
254040,note_on,0,0,1,,,,,,,,,0,,,71,75
254040,note_on,120,0,1,,,,,,,,,0,,,68,0
254160,note_on,240,0,2,,,,,,,,,1,,,76,0
254160,note_on,0,0,2,,,,,,,,,1,,,69,49
254160,note_on,0,0,2,,,,,,,,,1,,,71,49
254160,note_on,240,0,4,,,,,,,,,3,,,40,0
254160,note_on,120,0,3,,,,,,,,,2,,,56,0
254160,note_on,0,0,3,,,,,,,,,2,,,57,62
254160,note_on,0,0,4,,,,,,,,,3,,,40,62
254160,note_on,0,0,1,,,,,,,,,0,,,73,75
254160,note_on,120,0,1,,,,,,,,,0,,,71,0
254280,note_on,120,0,1,,,,,,,,,0,,,73,0
254280,note_on,0,0,3,,,,,,,,,2,,,54,62
254280,note_on,120,0,3,,,,,,,,,2,,,57,0
254280,note_on,0,0,1,,,,,,,,,0,,,75,75
254400,note_on,0,0,3,,,,,,,,,2,,,52,62
254400,note_on,120,0,3,,,,,,,,,2,,,54,0
254400,note_on,0,0,1,,,,,,,,,0,,,76,75
254400,note_on,120,0,1,,,,,,,,,0,,,75,0
254400,note_on,0,0,2,,,,,,,,,1,,,71,49
254400,note_on,240,0,4,,,,,,,,,3,,,40,0
254400,note_on,240,0,2,,,,,,,,,1,,,71,0
254400,note_on,0,0,2,,,,,,,,,1,,,69,0
254400,note_on,0,0,2,,,,,,,,,1,,,68,49
254400,note_on,0,0,4,,,,,,,,,3,,,40,62
254520,note_on,0,0,3,,,,,,,,,2,,,54,62
254520,note_on,120,0,3,,,,,,,,,2,,,52,0
254640,note_on,240,0,4,,,,,,,,,3,,,40,0
254640,note_on,240,0,1,,,,,,,,,0,,,76,0
254640,note_on,0,0,1,,,,,,,,,0,,,76,75
254640,note_on,0,0,2,,,,,,,,,1,,,68,0
254640,note_on,0,0,3,,,,,,,,,2,,,56,62
254640,note_on,240,0,2,,,,,,,,,1,,,71,0
254640,note_on,120,0,3,,,,,,,,,2,,,54,0
254760,note_on,120,0,3,,,,,,,,,2,,,56,0
254760,note_on,0,0,3,,,,,,,,,2,,,57,62
254760,note_on,120,0,1,,,,,,,,,0,,,76,0
254760,note_on,0,0,1,,,,,,,,,0,,,78,75
254880,note_on,120,0,1,,,,,,,,,0,,,78,0
254880,note_on,0,0,1,,,,,,,,,0,,,80,75
254880,note_on,120,0,3,,,,,,,,,2,,,57,0
254880,note_on,0,0,3,,,,,,,,,2,,,59,62
254880,note_on,240,0,4,,,,,,,,,3,,,40,62
255000,note_on,0,0,1,,,,,,,,,0,,,82,75
255000,note_on,120,0,1,,,,,,,,,0,,,80,0
255000,note_on,0,0,3,,,,,,,,,2,,,55,62
255000,note_on,120,0,3,,,,,,,,,2,,,59,0
255120,note_on,120,0,1,,,,,,,,,0,,,82,0
255120,note_on,120,0,3,,,,,,,,,2,,,55,0
255120,note_on,0,0,1,,,,,,,,,0,,,83,75
255120,note_on,0,0,3,,,,,,,,,2,,,56,62
255240,note_on,120,0,3,,,,,,,,,2,,,56,0
255240,note_on,0,0,1,,,,,,,,,0,,,79,75
255240,note_on,120,0,1,,,,,,,,,0,,,83,0
255240,note_on,0,0,3,,,,,,,,,2,,,51,62
255360,note_on,480,0,4,,,,,,,,,3,,,40,0
255360,note_on,120,0,1,,,,,,,,,0,,,79,0
255360,note_on,0,0,1,,,,,,,,,0,,,80,75
255360,note_on,0,0,3,,,,,,,,,2,,,52,62
255360,note_on,120,0,3,,,,,,,,,2,,,51,0
255480,note_on,120,0,3,,,,,,,,,2,,,52,0
255480,note_on,120,0,1,,,,,,,,,0,,,80,0
255480,note_on,0,0,1,,,,,,,,,0,,,76,75
255480,note_on,0,0,3,,,,,,,,,2,,,56,62
255600,note_on,120,0,3,,,,,,,,,2,,,56,0
255600,note_on,0,0,3,,,,,,,,,2,,,59,62
255600,note_on,120,0,1,,,,,,,,,0,,,76,0
255600,note_on,0,0,1,,,,,,,,,0,,,80,75
255720,note_on,0,0,3,,,,,,,,,2,,,61,62
255720,note_on,120,0,3,,,,,,,,,2,,,59,0
255720,note_on,0,0,1,,,,,,,,,0,,,82,75
255720,note_on,120,0,1,,,,,,,,,0,,,80,0
255840,note_on,120,0,1,,,,,,,,,0,,,82,0
255840,note_on,0,0,1,,,,,,,,,0,,,83,75
255840,note_on,1200,0,2,,,,,,,,,1,,,76,49
255840,note_on,120,0,3,,,,,,,,,2,,,61,0
255840,note_on,480,0,4,,,,,,,,,3,,,40,62
255840,note_on,0,0,3,,,,,,,,,2,,,62,62
255960,note_on,120,0,1,,,,,,,,,0,,,83,0
255960,note_on,0,0,3,,,,,,,,,2,,,58,62
255960,note_on,120,0,3,,,,,,,,,2,,,62,0
255960,note_on,0,0,1,,,,,,,,,0,,,85,75
256080,note_on,120,0,1,,,,,,,,,0,,,85,0
256080,note_on,0,0,1,,,,,,,,,0,,,86,75
256080,note_on,0,0,3,,,,,,,,,2,,,59,62
256080,note_on,120,0,3,,,,,,,,,2,,,58,0
256200,note_on,120,0,1,,,,,,,,,0,,,86,0
256200,note_on,0,0,1,,,,,,,,,0,,,82,75
256200,note_on,0,0,3,,,,,,,,,2,,,55,62
256200,note_on,120,0,3,,,,,,,,,2,,,59,0
256320,note_on,120,0,1,,,,,,,,,0,,,82,0
256320,note_on,0,0,1,,,,,,,,,0,,,83,75
256320,note_on,0,0,3,,,,,,,,,2,,,56,62
256320,note_on,120,0,3,,,,,,,,,2,,,55,0
256320,note_on,480,0,4,,,,,,,,,3,,,40,0
256440,note_on,0,0,3,,,,,,,,,2,,,58,62
256440,note_on,120,0,3,,,,,,,,,2,,,56,0
256440,note_on,0,0,1,,,,,,,,,0,,,79,75
256440,note_on,120,0,1,,,,,,,,,0,,,83,0
256560,note_on,120,0,3,,,,,,,,,2,,,58,0
256560,note_on,0,0,1,,,,,,,,,0,,,80,88
256560,note_on,120,0,1,,,,,,,,,0,,,79,0
256560,note_on,0,0,3,,,,,,,,,2,,,59,88
256680,note_on,120,0,1,,,,,,,,,0,,,80,0
256680,note_on,120,0,3,,,,,,,,,2,,,59,0
256680,note_on,0,0,3,,,,,,,,,2,,,61,88
256680,note_on,0,0,1,,,,,,,,,0,,,82,88
256800,note_on,120,0,1,,,,,,,,,0,,,82,0
256800,note_on,480,0,4,,,,,,,,,3,,,40,62
256800,note_on,0,0,1,,,,,,,,,0,,,83,88
256800,note_on,0,0,3,,,,,,,,,2,,,62,88
256800,note_on,120,0,3,,,,,,,,,2,,,61,0
256920,note_on,0,0,1,,,,,,,,,0,,,85,88
256920,note_on,120,0,1,,,,,,,,,0,,,83,0
256920,note_on,120,0,3,,,,,,,,,2,,,62,0
256920,note_on,0,0,3,,,,,,,,,2,,,58,88
257040,note_on,0,0,3,,,,,,,,,2,,,59,75
257040,note_on,120,0,3,,,,,,,,,2,,,58,0
257040,note_on,120,0,1,,,,,,,,,0,,,85,0
257040,note_on,0,0,1,,,,,,,,,0,,,86,88
257160,note_on,120,0,1,,,,,,,,,0,,,86,0
257160,note_on,0,0,1,,,,,,,,,0,,,82,75
257160,note_on,120,0,3,,,,,,,,,2,,,59,0
257160,note_on,0,0,3,,,,,,,,,2,,,55,75
257280,note_on,0,0,1,,,,,,,,,0,,,83,75
257280,control_change,0,0,1,,,,,,,,,0,64,127,,
257280,note_on,120,0,1,,,,,,,,,0,,,82,0
257280,note_on,120,0,3,,,,,,,,,2,,,55,0
257280,note_on,0,0,3,,,,,,,,,2,,,56,75
257280,control_change,1440,0,2,,,,,,,,,1,64,127,,
257280,note_on,480,0,4,,,,,,,,,3,,,40,0
257280,note_on,0,0,4,,,,,,,,,3,,,40,62
257400,set_tempo,26520,1,0,,,,,,1200000,,,,,,,
257400,note_on,0,0,1,,,,,,,,,0,,,80,62
257400,note_on,0,0,3,,,,,,,,,2,,,59,75
257400,note_on,120,0,3,,,,,,,,,2,,,56,0
257400,note_on,120,0,2,,,,,,,,,1,,,76,0
257400,note_on,0,0,2,,,,,,,,,1,,,68,62
257400,note_on,0,0,4,,,,,,,,,3,,,50,62
257400,note_on,0,0,4,,,,,,,,,3,,,52,62
257400,note_on,120,0,4,,,,,,,,,3,,,40,0
257400,note_on,120,0,1,,,,,,,,,0,,,83,0
257520,note_on,0,0,2,,,,,,,,,1,,,69,62
257520,note_on,120,0,4,,,,,,,,,3,,,52,0
257520,note_on,120,0,2,,,,,,,,,1,,,68,0
257520,note_on,0,0,4,,,,,,,,,3,,,50,0
257520,note_on,0,0,4,,,,,,,,,3,,,49,62
257520,note_on,120,0,3,,,,,,,,,2,,,59,0
257520,note_on,0,0,3,,,,,,,,,2,,,61,75
257520,note_on,120,0,1,,,,,,,,,0,,,80,0
257520,note_on,0,0,4,,,,,,,,,3,,,52,62
257520,note_on,0,0,1,,,,,,,,,0,,,81,62
257640,note_on,0,0,4,,,,,,,,,3,,,47,62
257640,control_change,0,0,2,,,,,,,,,1,64,0,,
257640,note_on,0,0,2,,,,,,,,,1,,,71,62
257640,note_on,120,0,2,,,,,,,,,1,,,69,0
257640,note_on,0,0,1,,,,,,,,,0,,,83,62
257640,note_on,120,0,3,,,,,,,,,2,,,61,0
257640,note_on,120,0,1,,,,,,,,,0,,,81,0
257640,note_on,0,0,3,,,,,,,,,2,,,62,75
257640,note_on,0,0,4,,,,,,,,,3,,,52,62
257640,note_on,0,0,4,,,,,,,,,3,,,49,0
257640,control_change,0,0,1,,,,,,,,,0,64,0,,
257640,note_on,120,0,4,,,,,,,,,3,,,52,0
257760,note_on,120,0,1,,,,,,,,,0,,,83,0
257760,control_change,0,0,1,,,,,,,,,0,64,127,,
257760,note_on,0,0,1,,,,,,,,,0,,,85,75
257760,set_tempo,360,1,0,,,,,,1000000,,,,,,,
257760,note_on,120,0,2,,,,,,,,,1,,,71,0
257760,control_change,0,0,2,,,,,,,,,1,64,127,,
257760,note_on,0,0,3,,,,,,,,,2,,,64,101
257760,control_change,0,0,3,,,,,,,,,2,64,127,,
257760,note_on,120,0,3,,,,,,,,,2,,,62,0
257760,note_on,0,0,2,,,,,,,,,1,,,73,75
257760,note_on,120,0,4,,,,,,,,,3,,,52,0
257760,note_on,0,0,4,,,,,,,,,3,,,47,0
257760,note_on,0,0,4,,,,,,,,,3,,,45,62
257760,note_on,0,0,4,,,,,,,,,3,,,52,62
257880,note_on,120,0,2,,,,,,,,,1,,,73,0
257880,note_on,0,0,2,,,,,,,,,1,,,69,75
257880,note_on,0,0,1,,,,,,,,,0,,,81,75
257880,note_on,120,0,1,,,,,,,,,0,,,85,0
258000,note_on,240,0,3,,,,,,,,,2,,,64,0
258000,note_on,120,0,1,,,,,,,,,0,,,81,0
258000,note_on,0,0,1,,,,,,,,,0,,,76,75
258000,note_on,0,0,2,,,,,,,,,1,,,64,75
258000,note_on,120,0,2,,,,,,,,,1,,,69,0
258000,note_on,0,0,3,,,,,,,,,2,,,61,101
258120,note_on,120,0,2,,,,,,,,,1,,,64,0
258120,note_on,0,0,1,,,,,,,,,0,,,81,75
258120,note_on,0,0,2,,,,,,,,,1,,,69,75
258120,note_on,120,0,1,,,,,,,,,0,,,76,0
258240,note_on,0,0,1,,,,,,,,,0,,,78,75
258240,note_on,480,0,4,,,,,,,,,3,,,52,0
258240,note_on,240,0,3,,,,,,,,,2,,,61,0
258240,note_on,0,0,3,,,,,,,,,2,,,57,75
258240,note_on,0,0,2,,,,,,,,,1,,,66,75
258240,note_on,120,0,2,,,,,,,,,1,,,69,0
258240,note_on,120,0,1,,,,,,,,,0,,,81,0
258240,note_on,0,0,4,,,,,,,,,3,,,45,0
258360,note_on,120,0,1,,,,,,,,,0,,,78,0
258360,note_on,0,0,1,,,,,,,,,0,,,81,75
258360,note_on,0,0,2,,,,,,,,,1,,,69,75
258360,note_on,120,0,2,,,,,,,,,1,,,66,0
258480,note_on,120,0,2,,,,,,,,,1,,,69,0
258480,note_on,240,0,3,,,,,,,,,2,,,57,0
258480,note_on,0,0,1,,,,,,,,,0,,,74,75
258480,note_on,0,0,2,,,,,,,,,1,,,62,75
258480,note_on,120,0,1,,,,,,,,,0,,,81,0
258480,control_change,0,0,3,,,,,,,,,2,64,0,,
258480,note_on,0,0,3,,,,,,,,,2,,,54,75
258600,note_on,0,0,2,,,,,,,,,1,,,69,75
258600,note_on,120,0,1,,,,,,,,,0,,,74,0
258600,control_change,0,0,1,,,,,,,,,0,64,0,,
258600,note_on,0,0,1,,,,,,,,,0,,,81,75
258600,note_on,120,0,2,,,,,,,,,1,,,62,0
258600,control_change,0,0,2,,,,,,,,,1,64,0,,
258720,note_on,120,0,1,,,,,,,,,0,,,81,0
258720,control_change,0,0,1,,,,,,,,,0,64,127,,
258720,note_on,240,0,3,,,,,,,,,2,,,54,0
258720,note_on,0,0,2,,,,,,,,,1,,,61,75
258720,note_on,120,0,2,,,,,,,,,1,,,69,0
258720,note_on,480,0,4,,,,,,,,,3,,,45,62
258720,note_on,0,0,3,,,,,,,,,2,,,52,75
258720,note_on,0,0,1,,,,,,,,,0,,,73,75
258720,control_change,0,0,2,,,,,,,,,1,64,127,,
258840,note_on,120,0,2,,,,,,,,,1,,,61,0
258840,note_on,0,0,2,,,,,,,,,1,,,59,75
258840,note_on,0,0,1,,,,,,,,,0,,,71,75
258840,note_on,120,0,1,,,,,,,,,0,,,73,0
258960,note_on,120,0,1,,,,,,,,,0,,,71,0
258960,note_on,0,0,1,,,,,,,,,0,,,73,75
258960,note_on,0,0,2,,,,,,,,,1,,,61,75
258960,note_on,120,0,2,,,,,,,,,1,,,59,0
259080,note_on,0,0,2,,,,,,,,,1,,,62,75
259080,note_on,120,0,2,,,,,,,,,1,,,61,0
259080,note_on,120,0,1,,,,,,,,,0,,,73,0
259080,note_on,0,0,1,,,,,,,,,0,,,74,75
259200,note_on,0,0,3,,,,,,,,,2,,,49,75
259200,note_on,120,0,1,,,,,,,,,0,,,74,0
259200,note_on,0,0,2,,,,,,,,,1,,,64,75
259200,note_on,480,0,3,,,,,,,,,2,,,52,0
259200,note_on,0,0,1,,,,,,,,,0,,,76,75
259200,note_on,480,0,4,,,,,,,,,3,,,45,0
259200,note_on,120,0,2,,,,,,,,,1,,,62,0
259320,note_on,120,0,1,,,,,,,,,0,,,76,0
259320,note_on,120,0,2,,,,,,,,,1,,,64,0
259320,note_on,0,0,2,,,,,,,,,1,,,66,75
259320,note_on,0,0,1,,,,,,,,,0,,,78,75
259440,control_change,0,0,3,,,,,,,,,2,64,127,,
259440,note_on,240,0,3,,,,,,,,,2,,,49,0
259440,note_on,120,0,2,,,,,,,,,1,,,66,0
259440,note_on,240,0,4,,,,,,,,,3,,,33,88
259440,note_on,0,0,4,,,,,,,,,3,,,45,88
259440,note_on,0,0,3,,,,,,,,,2,,,54,101
259440,note_on,0,0,2,,,,,,,,,1,,,62,75
259440,note_on,120,0,1,,,,,,,,,0,,,78,0
259440,note_on,0,0,1,,,,,,,,,0,,,74,75
259560,note_on,0,0,2,,,,,,,,,1,,,61,75
259560,control_change,0,0,2,,,,,,,,,1,64,0,,
259560,note_on,120,0,2,,,,,,,,,1,,,62,0
259560,note_on,0,0,1,,,,,,,,,0,,,73,75
259560,note_on,120,0,1,,,,,,,,,0,,,74,0
259560,control_change,0,0,1,,,,,,,,,0,64,0,,
259620,note_on,180,0,3,,,,,,,,,2,,,54,0
259620,note_on,0,0,3,,,,,,,,,2,,,52,75
259680,note_on,60,0,3,,,,,,,,,2,,,52,0
259680,note_on,0,0,1,,,,,,,,,0,,,71,75
259680,control_change,0,0,1,,,,,,,,,0,64,127,,
259680,note_on,120,0,1,,,,,,,,,0,,,73,0
259680,note_on,240,0,4,,,,,,,,,3,,,45,0
259680,control_change,0,0,2,,,,,,,,,1,64,127,,
259680,note_on,0,0,4,,,,,,,,,3,,,33,0
259680,note_on,0,0,4,,,,,,,,,3,,,40,62
259680,note_on,120,0,2,,,,,,,,,1,,,61,0
259680,note_on,0,0,3,,,,,,,,,2,,,50,75
259680,note_on,0,0,2,,,,,,,,,1,,,59,75
259800,note_on,120,0,1,,,,,,,,,0,,,71,0
259800,note_on,0,0,1,,,,,,,,,0,,,70,75
259800,note_on,0,0,2,,,,,,,,,1,,,58,75
259800,note_on,120,0,2,,,,,,,,,1,,,59,0
259920,note_on,0,0,1,,,,,,,,,0,,,71,75
259920,note_on,120,0,2,,,,,,,,,1,,,58,0
259920,note_on,0,0,2,,,,,,,,,1,,,59,75
259920,note_on,120,0,1,,,,,,,,,0,,,70,0
260040,note_on,120,0,2,,,,,,,,,1,,,59,0
260040,note_on,0,0,2,,,,,,,,,1,,,61,75
260040,note_on,120,0,1,,,,,,,,,0,,,71,0
260040,note_on,0,0,1,,,,,,,,,0,,,73,75
260160,note_on,0,0,3,,,,,,,,,2,,,47,75
260160,note_on,0,0,1,,,,,,,,,0,,,74,75
260160,note_on,480,0,4,,,,,,,,,3,,,40,0
260160,control_change,0,0,3,,,,,,,,,2,64,0,,
260160,note_on,0,0,2,,,,,,,,,1,,,62,75
260160,note_on,120,0,2,,,,,,,,,1,,,61,0
260160,note_on,120,0,1,,,,,,,,,0,,,73,0
260160,note_on,480,0,3,,,,,,,,,2,,,50,0
260280,note_on,120,0,2,,,,,,,,,1,,,62,0
260280,note_on,0,0,2,,,,,,,,,1,,,64,75
260280,note_on,0,0,1,,,,,,,,,0,,,76,75
260280,note_on,120,0,1,,,,,,,,,0,,,74,0
260400,note_on,0,0,2,,,,,,,,,1,,,61,75
260400,note_on,0,0,1,,,,,,,,,0,,,73,75
260400,note_on,120,0,1,,,,,,,,,0,,,76,0
260400,note_on,240,0,3,,,,,,,,,2,,,47,0
260400,note_on,0,0,3,,,,,,,,,2,,,52,101
260400,note_on,240,0,4,,,,,,,,,3,,,40,88
260400,note_on,120,0,2,,,,,,,,,1,,,64,0
260520,note_on,0,0,2,,,,,,,,,1,,,59,75
260520,note_on,0,0,1,,,,,,,,,0,,,71,75
260520,control_change,0,0,1,,,,,,,,,0,64,0,,
260520,control_change,0,0,2,,,,,,,,,1,64,0,,
260520,note_on,120,0,2,,,,,,,,,1,,,61,0
260520,note_on,120,0,1,,,,,,,,,0,,,73,0
260580,note_on,180,0,3,,,,,,,,,2,,,52,0
260580,note_on,0,0,3,,,,,,,,,2,,,50,75
260640,note_on,240,0,4,,,,,,,,,3,,,40,0
260640,note_on,0,0,4,,,,,,,,,3,,,45,62
260640,note_on,120,0,1,,,,,,,,,0,,,71,0
260640,note_on,120,0,2,,,,,,,,,1,,,59,0
260640,note_on,0,0,2,,,,,,,,,1,,,57,75
260640,note_on,0,0,3,,,,,,,,,2,,,49,75
260640,control_change,0,0,3,,,,,,,,,2,64,127,,
260640,note_on,60,0,3,,,,,,,,,2,,,50,0
260640,note_on,0,0,1,,,,,,,,,0,,,69,75
260760,note_on,0,0,2,,,,,,,,,1,,,64,75
260760,note_on,120,0,1,,,,,,,,,0,,,69,0
260760,note_on,0,0,1,,,,,,,,,0,,,76,75
260760,note_on,120,0,2,,,,,,,,,1,,,57,0
260880,note_on,0,0,1,,,,,,,,,0,,,71,75
260880,note_on,240,0,3,,,,,,,,,2,,,49,0
260880,note_on,0,0,2,,,,,,,,,1,,,59,75
260880,note_on,120,0,2,,,,,,,,,1,,,64,0
260880,note_on,0,0,3,,,,,,,,,2,,,52,75
260880,note_on,120,0,1,,,,,,,,,0,,,76,0
260940,note_on,0,0,3,,,,,,,,,2,,,50,75
260940,note_on,60,0,3,,,,,,,,,2,,,52,0
261000,note_on,0,0,1,,,,,,,,,0,,,76,75
261000,note_on,120,0,1,,,,,,,,,0,,,71,0
261000,note_on,60,0,3,,,,,,,,,2,,,50,0
261000,note_on,120,0,2,,,,,,,,,1,,,59,0
261000,note_on,0,0,2,,,,,,,,,1,,,64,75
261000,note_on,0,0,3,,,,,,,,,2,,,49,75
261060,note_on,60,0,3,,,,,,,,,2,,,49,0
261060,note_on,0,0,3,,,,,,,,,2,,,50,75
261120,note_on,480,0,4,,,,,,,,,3,,,45,0
261120,note_on,120,0,2,,,,,,,,,1,,,64,0
261120,note_on,0,0,2,,,,,,,,,1,,,61,75
261120,note_on,0,0,3,,,,,,,,,2,,,52,75
261120,note_on,0,0,1,,,,,,,,,0,,,73,75
261120,note_on,120,0,1,,,,,,,,,0,,,76,0
261120,note_on,60,0,3,,,,,,,,,2,,,50,0
261240,note_on,0,0,3,,,,,,,,,2,,,57,75
261240,note_on,120,0,2,,,,,,,,,1,,,61,0
261240,note_on,120,0,3,,,,,,,,,2,,,52,0
261240,note_on,0,0,1,,,,,,,,,0,,,76,75
261240,note_on,120,0,1,,,,,,,,,0,,,73,0
261240,note_on,0,0,2,,,,,,,,,1,,,64,75
261360,note_on,120,0,3,,,,,,,,,2,,,57,0
261360,note_on,0,0,3,,,,,,,,,2,,,61,75
261360,note_on,240,0,4,,,,,,,,,3,,,33,62
261360,note_on,120,0,2,,,,,,,,,1,,,64,0
261360,note_on,0,0,2,,,,,,,,,1,,,69,75
261360,note_on,120,0,1,,,,,,,,,0,,,76,0
261360,note_on,0,0,1,,,,,,,,,0,,,81,75
261360,note_on,0,0,4,,,,,,,,,3,,,45,62
261480,note_on,120,0,3,,,,,,,,,2,,,61,0
261480,note_on,120,0,1,,,,,,,,,0,,,81,0
261480,note_on,0,0,1,,,,,,,,,0,,,83,75
261480,note_on,0,0,3,,,,,,,,,2,,,62,75
261480,control_change,0,0,3,,,,,,,,,2,64,0,,
261480,note_on,120,0,2,,,,,,,,,1,,,69,0
261480,note_on,0,0,2,,,,,,,,,1,,,71,75
261600,note_on,0,0,1,,,,,,,,,0,,,85,75
261600,note_on,240,0,4,,,,,,,,,3,,,45,0
261600,note_on,0,0,4,,,,,,,,,3,,,33,0
261600,note_on,0,0,4,,,,,,,,,3,,,33,62
261600,note_on,0,0,4,,,,,,,,,3,,,45,62
261600,note_on,0,0,2,,,,,,,,,1,,,73,75
261600,note_on,120,0,1,,,,,,,,,0,,,83,0
261600,note_on,120,0,3,,,,,,,,,2,,,62,0
261600,control_change,0,0,3,,,,,,,,,2,64,127,,
261600,note_on,0,0,3,,,,,,,,,2,,,64,75
261600,note_on,120,0,2,,,,,,,,,1,,,71,0
261720,note_on,0,0,2,,,,,,,,,1,,,69,75
261720,note_on,120,0,2,,,,,,,,,1,,,73,0
261720,note_on,120,0,1,,,,,,,,,0,,,85,0
261720,note_on,0,0,1,,,,,,,,,0,,,81,75
261840,note_on,0,0,3,,,,,,,,,2,,,61,75
261840,note_on,0,0,2,,,,,,,,,1,,,64,75
261840,note_on,0,0,1,,,,,,,,,0,,,76,75
261840,note_on,120,0,1,,,,,,,,,0,,,81,0
261840,note_on,120,0,2,,,,,,,,,1,,,69,0
261840,note_on,240,0,3,,,,,,,,,2,,,64,0
261960,note_on,120,0,2,,,,,,,,,1,,,64,0
261960,note_on,0,0,2,,,,,,,,,1,,,65,75
261960,note_on,120,0,1,,,,,,,,,0,,,76,0
261960,note_on,0,0,1,,,,,,,,,0,,,77,75
262080,note_on,120,0,2,,,,,,,,,1,,,65,0
262080,note_on,0,0,2,,,,,,,,,1,,,66,75
262080,note_on,240,0,3,,,,,,,,,2,,,61,0
262080,note_on,0,0,3,,,,,,,,,2,,,57,75
262080,note_on,480,0,4,,,,,,,,,3,,,45,0
262080,note_on,120,0,1,,,,,,,,,0,,,77,0
262080,note_on,0,0,1,,,,,,,,,0,,,78,75
262080,note_on,0,0,4,,,,,,,,,3,,,33,0
262200,note_on,0,0,1,,,,,,,,,0,,,81,75
262200,note_on,120,0,1,,,,,,,,,0,,,78,0
262200,note_on,120,0,2,,,,,,,,,1,,,66,0
262200,note_on,0,0,2,,,,,,,,,1,,,69,75
262320,note_on,0,0,1,,,,,,,,,0,,,74,75
262320,note_on,240,0,4,,,,,,,,,3,,,33,62
262320,note_on,0,0,4,,,,,,,,,3,,,45,62
262320,note_on,0,0,3,,,,,,,,,2,,,56,75
262320,note_on,240,0,3,,,,,,,,,2,,,57,0
262320,note_on,120,0,2,,,,,,,,,1,,,69,0
262320,note_on,0,0,2,,,,,,,,,1,,,62,75
262320,note_on,120,0,1,,,,,,,,,0,,,81,0
262440,note_on,120,0,1,,,,,,,,,0,,,74,0
262440,note_on,0,0,1,,,,,,,,,0,,,81,75
262440,note_on,120,0,2,,,,,,,,,1,,,62,0
262440,note_on,0,0,2,,,,,,,,,1,,,69,75
262500,control_change,0,0,3,,,,,,,,,2,64,0,,
262500,note_on,0,0,3,,,,,,,,,2,,,54,75
262500,note_on,180,0,3,,,,,,,,,2,,,56,0
262560,note_on,0,0,4,,,,,,,,,3,,,33,62
262560,note_on,120,0,1,,,,,,,,,0,,,81,0
262560,note_on,60,0,3,,,,,,,,,2,,,54,0
262560,note_on,240,0,4,,,,,,,,,3,,,45,0
262560,note_on,0,0,3,,,,,,,,,2,,,52,75
262560,note_on,0,0,2,,,,,,,,,1,,,61,75
262560,note_on,120,0,2,,,,,,,,,1,,,69,0
262560,note_on,0,0,4,,,,,,,,,3,,,45,62
262560,note_on,0,0,4,,,,,,,,,3,,,33,0
262560,note_on,0,0,1,,,,,,,,,0,,,73,75
262680,note_on,0,0,1,,,,,,,,,0,,,71,75
262680,note_on,120,0,2,,,,,,,,,1,,,61,0
262680,note_on,0,0,2,,,,,,,,,1,,,59,75
262680,note_on,120,0,1,,,,,,,,,0,,,73,0
262800,note_on,0,0,1,,,,,,,,,0,,,73,75
262800,note_on,120,0,2,,,,,,,,,1,,,59,0
262800,note_on,0,0,2,,,,,,,,,1,,,61,75
262800,note_on,120,0,1,,,,,,,,,0,,,71,0
262920,note_on,0,0,2,,,,,,,,,1,,,62,75
262920,note_on,120,0,2,,,,,,,,,1,,,61,0
262920,note_on,0,0,1,,,,,,,,,0,,,74,75
262920,note_on,120,0,1,,,,,,,,,0,,,73,0
263040,note_on,120,0,2,,,,,,,,,1,,,62,0
263040,note_on,0,0,3,,,,,,,,,2,,,49,75
263040,note_on,480,0,3,,,,,,,,,2,,,52,0
263040,note_on,0,0,1,,,,,,,,,0,,,76,75
263040,note_on,120,0,1,,,,,,,,,0,,,74,0
263040,note_on,480,0,4,,,,,,,,,3,,,45,0
263040,note_on,0,0,4,,,,,,,,,3,,,33,0
263040,note_on,0,0,2,,,,,,,,,1,,,64,75
263160,note_on,0,0,2,,,,,,,,,1,,,65,75
263160,note_on,120,0,2,,,,,,,,,1,,,64,0
263160,note_on,120,0,1,,,,,,,,,0,,,76,0
263160,note_on,0,0,1,,,,,,,,,0,,,77,75
263280,note_on,120,0,1,,,,,,,,,0,,,77,0
263280,note_on,0,0,1,,,,,,,,,0,,,78,75
263280,note_on,120,0,2,,,,,,,,,1,,,65,0
263280,note_on,0,0,3,,,,,,,,,2,,,54,101
263280,note_on,0,0,2,,,,,,,,,1,,,66,75
263280,note_on,0,0,4,,,,,,,,,3,,,46,88
263280,note_on,240,0,3,,,,,,,,,2,,,49,0
263280,note_on,240,0,4,,,,,,,,,3,,,34,88
263400,note_on,0,0,1,,,,,,,,,0,,,73,75
263400,note_on,120,0,1,,,,,,,,,0,,,78,0
263400,note_on,120,0,2,,,,,,,,,1,,,66,0
263400,note_on,0,0,2,,,,,,,,,1,,,61,75
263460,note_on,0,0,3,,,,,,,,,2,,,52,75
263460,note_on,180,0,3,,,,,,,,,2,,,54,0
263520,note_on,0,0,2,,,,,,,,,1,,,66,75
263520,note_on,0,0,1,,,,,,,,,0,,,78,75
263520,note_on,0,0,3,,,,,,,,,2,,,50,75
263520,control_change,0,0,3,,,,,,,,,2,64,127,,
263520,note_on,60,0,3,,,,,,,,,2,,,52,0
263520,note_on,0,0,4,,,,,,,,,3,,,47,62
263520,note_on,0,0,4,,,,,,,,,3,,,35,62
263520,note_on,0,0,4,,,,,,,,,3,,,34,0
263520,note_on,240,0,4,,,,,,,,,3,,,46,0
263520,note_on,120,0,1,,,,,,,,,0,,,73,0
263520,note_on,120,0,2,,,,,,,,,1,,,61,0
263640,note_on,120,0,2,,,,,,,,,1,,,66,0
263640,note_on,0,0,2,,,,,,,,,1,,,58,75
263640,note_on,0,0,1,,,,,,,,,0,,,70,75
263640,note_on,120,0,1,,,,,,,,,0,,,78,0
263760,note_on,120,0,1,,,,,,,,,0,,,70,0
263760,note_on,0,0,2,,,,,,,,,1,,,59,75
263760,note_on,120,0,2,,,,,,,,,1,,,58,0
263760,note_on,0,0,1,,,,,,,,,0,,,71,75
263880,note_on,0,0,1,,,,,,,,,0,,,73,75
263880,note_on,120,0,1,,,,,,,,,0,,,71,0
263880,note_on,0,0,2,,,,,,,,,1,,,61,75
263880,note_on,120,0,2,,,,,,,,,1,,,59,0
263940,note_on,420,0,3,,,,,,,,,2,,,50,0
263940,note_on,0,0,3,,,,,,,,,2,,,49,75
264000,note_on,480,0,4,,,,,,,,,3,,,47,0
264000,note_on,0,0,1,,,,,,,,,0,,,74,75
264000,note_on,0,0,3,,,,,,,,,2,,,47,75
264000,note_on,120,0,2,,,,,,,,,1,,,61,0
264000,note_on,0,0,2,,,,,,,,,1,,,62,75
264000,note_on,60,0,3,,,,,,,,,2,,,49,0
264000,note_on,120,0,1,,,,,,,,,0,,,73,0
264000,note_on,0,0,4,,,,,,,,,3,,,35,0
264120,note_on,0,0,1,,,,,,,,,0,,,71,75
264120,note_on,120,0,1,,,,,,,,,0,,,74,0
264180,note_on,180,0,3,,,,,,,,,2,,,47,0
264180,note_on,0,0,3,,,,,,,,,2,,,52,75
264210,note_on,30,0,3,,,,,,,,,2,,,52,0
264210,note_on,0,0,3,,,,,,,,,2,,,56,75
264240,note_on,240,0,2,,,,,,,,,1,,,62,0
264240,note_on,0,0,2,,,,,,,,,1,,,62,75
264240,note_on,0,0,2,,,,,,,,,1,,,64,75
264240,note_on,120,0,1,,,,,,,,,0,,,71,0
264240,note_on,240,0,4,,,,,,,,,3,,,40,62
264240,note_on,0,0,1,,,,,,,,,0,,,68,75
264240,note_on,0,0,3,,,,,,,,,2,,,59,75
264240,note_on,30,0,3,,,,,,,,,2,,,56,0
264360,note_on,0,0,1,,,,,,,,,0,,,76,75
264360,note_on,120,0,1,,,,,,,,,0,,,68,0
264420,note_on,0,0,3,,,,,,,,,2,,,56,75
264420,control_change,0,0,3,,,,,,,,,2,64,0,,
264420,note_on,180,0,3,,,,,,,,,2,,,59,0
264480,note_on,0,0,3,,,,,,,,,2,,,57,75
264480,note_on,0,0,4,,,,,,,,,3,,,45,62
264480,note_on,0,0,1,,,,,,,,,0,,,71,75
264480,note_on,0,0,2,,,,,,,,,1,,,62,75
264480,note_on,60,0,3,,,,,,,,,2,,,56,0
264480,note_on,240,0,4,,,,,,,,,3,,,40,0
264480,note_on,120,0,1,,,,,,,,,0,,,76,0
264480,note_on,0,0,2,,,,,,,,,1,,,62,0
264480,note_on,240,0,2,,,,,,,,,1,,,64,0
264480,note_on,0,0,2,,,,,,,,,1,,,64,75
264600,note_on,120,0,1,,,,,,,,,0,,,71,0
264600,note_on,0,0,1,,,,,,,,,0,,,73,75
264600,note_on,120,0,2,,,,,,,,,1,,,64,0
264600,note_on,0,0,2,,,,,,,,,1,,,62,0
264600,note_on,0,0,2,,,,,,,,,1,,,61,75
264720,note_on,120,0,1,,,,,,,,,0,,,73,0
264720,note_on,0,0,1,,,,,,,,,0,,,74,75
264720,note_on,120,0,2,,,,,,,,,1,,,61,0
264720,note_on,0,0,2,,,,,,,,,1,,,59,75
264900,note_on,180,0,1,,,,,,,,,0,,,74,0
264900,note_on,0,0,1,,,,,,,,,0,,,73,75
264900,note_on,180,0,2,,,,,,,,,1,,,59,0
264900,note_on,0,0,2,,,,,,,,,1,,,61,75
264960,note_on,0,0,2,,,,,,,,,1,,,64,75
264960,note_on,0,0,2,,,,,,,,,1,,,61,75
264960,note_on,0,0,1,,,,,,,,,0,,,73,75
264960,note_on,60,0,1,,,,,,,,,0,,,73,0
264960,note_on,60,0,2,,,,,,,,,1,,,61,0
265080,note_on,0,0,2,,,,,,,,,1,,,61,0
265080,note_on,120,0,2,,,,,,,,,1,,,64,0
265080,note_on,0,0,2,,,,,,,,,1,,,64,75
265080,note_on,120,0,1,,,,,,,,,0,,,73,0
265080,note_on,0,0,1,,,,,,,,,0,,,76,75
265200,note_on,0,0,1,,,,,,,,,0,,,78,75
265200,control_change,0,0,3,,,,,,,,,2,64,127,,
265200,note_on,0,0,3,,,,,,,,,2,,,57,75
265200,note_on,720,0,4,,,,,,,,,3,,,45,0
265200,note_on,120,0,2,,,,,,,,,1,,,64,0
265200,note_on,0,0,2,,,,,,,,,1,,,66,75
265200,note_on,720,0,3,,,,,,,,,2,,,57,0
265200,note_on,120,0,1,,,,,,,,,0,,,76,0
265260,note_on,60,0,3,,,,,,,,,2,,,57,0
265260,note_on,0,0,3,,,,,,,,,2,,,59,75
265320,note_on,0,0,2,,,,,,,,,1,,,68,75
265320,note_on,120,0,2,,,,,,,,,1,,,66,0
265320,note_on,60,0,3,,,,,,,,,2,,,59,0
265320,note_on,0,0,1,,,,,,,,,0,,,80,75
265320,note_on,120,0,1,,,,,,,,,0,,,78,0
265320,note_on,0,0,3,,,,,,,,,2,,,57,75
265380,note_on,60,0,3,,,,,,,,,2,,,57,0
265380,note_on,0,0,3,,,,,,,,,2,,,56,75
265440,note_on,0,0,1,,,,,,,,,0,,,81,75
265440,note_on,120,0,1,,,,,,,,,0,,,80,0
265440,note_on,0,0,3,,,,,,,,,2,,,54,75
265440,note_on,0,0,2,,,,,,,,,1,,,69,75
265440,note_on,120,0,2,,,,,,,,,1,,,68,0
265440,control_change,0,0,3,,,,,,,,,2,64,0,,
265440,note_on,60,0,3,,,,,,,,,2,,,56,0
265560,note_on,0,0,1,,,,,,,,,0,,,83,75
265560,note_on,120,0,2,,,,,,,,,1,,,69,0
265560,note_on,0,0,2,,,,,,,,,1,,,71,75
265560,note_on,120,0,1,,,,,,,,,0,,,81,0
265680,note_on,0,0,4,,,,,,,,,3,,,47,75
265680,note_on,0,0,1,,,,,,,,,0,,,80,88
265680,note_on,120,0,1,,,,,,,,,0,,,83,0
265680,control_change,480,0,4,,,,,,,,,3,64,127,,
265680,note_on,240,0,3,,,,,,,,,2,,,54,0
265680,note_on,120,0,2,,,,,,,,,1,,,71,0
265680,note_on,0,0,3,,,,,,,,,2,,,54,88
265680,control_change,0,0,3,,,,,,,,,2,64,127,,
265680,note_on,0,0,2,,,,,,,,,1,,,68,88
265680,note_on,0,0,3,,,,,,,,,2,,,63,88
265800,note_on,120,0,1,,,,,,,,,0,,,80,0
265800,note_on,0,0,1,,,,,,,,,0,,,81,88
265800,note_on,120,0,2,,,,,,,,,1,,,68,0
265800,note_on,0,0,2,,,,,,,,,1,,,69,88
265920,note_on,0,0,1,,,,,,,,,0,,,80,88
265920,note_on,0,0,2,,,,,,,,,1,,,68,88
265920,note_on,120,0,2,,,,,,,,,1,,,69,0
265920,note_on,240,0,3,,,,,,,,,2,,,63,0
265920,note_on,0,0,3,,,,,,,,,2,,,54,0
265920,note_on,0,0,3,,,,,,,,,2,,,54,88
265920,note_on,0,0,3,,,,,,,,,2,,,63,88
265920,note_on,0,0,4,,,,,,,,,3,,,47,75
265920,note_on,240,0,4,,,,,,,,,3,,,47,0
265920,note_on,120,0,1,,,,,,,,,0,,,81,0
266040,note_on,120,0,1,,,,,,,,,0,,,80,0
266040,note_on,0,0,1,,,,,,,,,0,,,81,88
266040,note_on,0,0,2,,,,,,,,,1,,,69,88
266040,note_on,120,0,2,,,,,,,,,1,,,68,0
266160,note_on,120,0,1,,,,,,,,,0,,,81,0
266160,note_on,0,0,1,,,,,,,,,0,,,85,75
266160,note_on,120,0,2,,,,,,,,,1,,,69,0
266160,note_on,0,0,4,,,,,,,,,3,,,47,62
266160,control_change,0,0,4,,,,,,,,,3,64,0,,
266160,note_on,240,0,4,,,,,,,,,3,,,47,0
266160,note_on,0,0,2,,,,,,,,,1,,,73,75
266160,note_on,240,0,3,,,,,,,,,2,,,63,0
266160,note_on,0,0,3,,,,,,,,,2,,,54,0
266160,control_change,0,0,3,,,,,,,,,2,64,0,,
266160,note_on,0,0,3,,,,,,,,,2,,,54,75
266160,note_on,0,0,3,,,,,,,,,2,,,63,75
266280,note_on,0,0,1,,,,,,,,,0,,,83,75
266280,note_on,120,0,2,,,,,,,,,1,,,73,0
266280,note_on,0,0,2,,,,,,,,,1,,,71,75
266280,note_on,120,0,1,,,,,,,,,0,,,85,0
266400,note_on,240,0,4,,,,,,,,,3,,,47,0
266400,note_on,0,0,3,,,,,,,,,2,,,63,75
266400,note_on,0,0,3,,,,,,,,,2,,,54,0
266400,note_on,120,0,1,,,,,,,,,0,,,83,0
266400,note_on,0,0,2,,,,,,,,,1,,,69,75
266400,note_on,120,0,2,,,,,,,,,1,,,71,0
266400,note_on,0,0,4,,,,,,,,,3,,,47,62
266400,note_on,240,0,3,,,,,,,,,2,,,63,0
266400,note_on,0,0,1,,,,,,,,,0,,,81,75
266400,note_on,0,0,3,,,,,,,,,2,,,54,75
266520,note_on,120,0,2,,,,,,,,,1,,,69,0
266520,note_on,0,0,1,,,,,,,,,0,,,80,75
266520,note_on,120,0,1,,,,,,,,,0,,,81,0
266520,note_on,0,0,2,,,,,,,,,1,,,68,75
266640,note_on,120,0,2,,,,,,,,,1,,,68,0
266640,note_on,0,0,2,,,,,,,,,1,,,71,75
266640,note_on,0,0,1,,,,,,,,,0,,,83,75
266640,note_on,120,0,1,,,,,,,,,0,,,80,0
266720,note_on,0,0,1,,,,,,,,,0,,,81,75
266720,note_on,0,0,2,,,,,,,,,1,,,69,75
266720,note_on,80,0,2,,,,,,,,,1,,,71,0
266720,note_on,80,0,1,,,,,,,,,0,,,83,0
266760,note_on,0,0,3,,,,,,,,,2,,,54,0
266760,note_on,0,0,3,,,,,,,,,2,,,64,75
266760,note_on,0,0,4,,,,,,,,,3,,,40,62
266760,note_on,360,0,4,,,,,,,,,3,,,47,0
266760,note_on,0,0,3,,,,,,,,,2,,,52,75
266760,note_on,360,0,3,,,,,,,,,2,,,63,0
266799,note_on,0,0,1,,,,,,,,,0,,,80,75
266799,note_on,79,0,1,,,,,,,,,0,,,81,0
266799,note_on,79,0,2,,,,,,,,,1,,,69,0
266799,note_on,0,0,2,,,,,,,,,1,,,68,75
266880,note_on,120,0,4,,,,,,,,,3,,,40,0
266880,note_on,0,0,3,,,,,,,,,2,,,52,75
266880,note_on,0,0,3,,,,,,,,,2,,,64,75
266880,note_on,0,0,3,,,,,,,,,2,,,52,0
266880,note_on,0,0,2,,,,,,,,,1,,,68,75
266880,note_on,81,0,2,,,,,,,,,1,,,68,0
266880,note_on,0,0,1,,,,,,,,,0,,,80,75
266880,note_on,81,0,1,,,,,,,,,0,,,80,0
266880,note_on,0,0,4,,,,,,,,,3,,,40,62
266880,note_on,120,0,3,,,,,,,,,2,,,64,0
267000,note_on,120,0,2,,,,,,,,,1,,,68,0
267000,note_on,0,0,2,,,,,,,,,1,,,67,75
267000,note_on,0,0,1,,,,,,,,,0,,,79,75
267000,note_on,120,0,1,,,,,,,,,0,,,80,0
267120,note_on,0,0,3,,,,,,,,,2,,,55,75
267120,note_on,240,0,3,,,,,,,,,2,,,64,0
267120,note_on,0,0,3,,,,,,,,,2,,,52,0
267120,note_on,120,0,1,,,,,,,,,0,,,79,0
267120,note_on,0,0,1,,,,,,,,,0,,,76,75
267120,note_on,240,0,4,,,,,,,,,3,,,40,0
267120,note_on,120,0,2,,,,,,,,,1,,,67,0
267120,note_on,0,0,2,,,,,,,,,1,,,64,75
267180,note_on,60,0,3,,,,,,,,,2,,,55,0
267180,note_on,0,0,3,,,,,,,,,2,,,57,75
267240,note_on,0,0,1,,,,,,,,,0,,,78,75
267240,note_on,120,0,2,,,,,,,,,1,,,64,0
267240,note_on,120,0,1,,,,,,,,,0,,,76,0
267240,note_on,0,0,2,,,,,,,,,1,,,66,75
267240,note_on,60,0,3,,,,,,,,,2,,,57,0
267240,note_on,0,0,3,,,,,,,,,2,,,55,75
267300,note_on,60,0,3,,,,,,,,,2,,,55,0
267300,note_on,0,0,3,,,,,,,,,2,,,54,75
267360,note_on,0,0,3,,,,,,,,,2,,,52,75
267360,note_on,0,0,1,,,,,,,,,0,,,79,75
267360,note_on,120,0,2,,,,,,,,,1,,,66,0
267360,note_on,120,0,1,,,,,,,,,0,,,78,0
267360,note_on,0,0,2,,,,,,,,,1,,,67,75
267360,note_on,60,0,3,,,,,,,,,2,,,54,0
267480,note_on,120,0,2,,,,,,,,,1,,,67,0
267480,note_on,120,0,1,,,,,,,,,0,,,79,0
267480,note_on,0,0,1,,,,,,,,,0,,,81,75
267480,note_on,0,0,2,,,,,,,,,1,,,69,75
267600,note_on,0,0,4,,,,,,,,,3,,,45,75
267600,note_on,0,0,1,,,,,,,,,0,,,78,88
267600,note_on,120,0,1,,,,,,,,,0,,,81,0
267600,control_change,480,0,4,,,,,,,,,3,64,127,,
267600,note_on,240,0,3,,,,,,,,,2,,,52,0
267600,note_on,0,0,2,,,,,,,,,1,,,66,88
267600,note_on,0,0,3,,,,,,,,,2,,,61,88
267600,note_on,0,0,3,,,,,,,,,2,,,52,88
267600,note_on,120,0,2,,,,,,,,,1,,,69,0
267600,control_change,0,0,3,,,,,,,,,2,64,127,,
267720,note_on,120,0,2,,,,,,,,,1,,,66,0
267720,note_on,0,0,2,,,,,,,,,1,,,67,88
267720,note_on,0,0,1,,,,,,,,,0,,,79,88
267720,note_on,120,0,1,,,,,,,,,0,,,78,0
267840,note_on,0,0,3,,,,,,,,,2,,,52,88
267840,note_on,0,0,1,,,,,,,,,0,,,78,88
267840,note_on,240,0,4,,,,,,,,,3,,,45,0
267840,note_on,120,0,1,,,,,,,,,0,,,79,0
267840,note_on,0,0,3,,,,,,,,,2,,,61,88
267840,note_on,240,0,3,,,,,,,,,2,,,61,0
267840,note_on,0,0,2,,,,,,,,,1,,,66,88
267840,note_on,120,0,2,,,,,,,,,1,,,67,0
267840,note_on,0,0,3,,,,,,,,,2,,,52,0
267840,note_on,0,0,4,,,,,,,,,3,,,45,75
267960,note_on,0,0,2,,,,,,,,,1,,,67,88
267960,note_on,120,0,2,,,,,,,,,1,,,66,0
267960,note_on,0,0,1,,,,,,,,,0,,,79,88
267960,note_on,120,0,1,,,,,,,,,0,,,78,0
268080,note_on,0,0,2,,,,,,,,,1,,,71,75
268080,note_on,120,0,2,,,,,,,,,1,,,67,0
268080,note_on,0,0,3,,,,,,,,,2,,,61,75
268080,control_change,0,0,4,,,,,,,,,3,64,0,,
268080,note_on,0,0,4,,,,,,,,,3,,,45,62
268080,note_on,240,0,4,,,,,,,,,3,,,45,0
268080,note_on,0,0,1,,,,,,,,,0,,,83,75
268080,note_on,120,0,1,,,,,,,,,0,,,79,0
268080,note_on,240,0,3,,,,,,,,,2,,,61,0
268080,note_on,0,0,3,,,,,,,,,2,,,52,0
268080,control_change,0,0,3,,,,,,,,,2,64,0,,
268080,note_on,0,0,3,,,,,,,,,2,,,52,75
268200,note_on,0,0,2,,,,,,,,,1,,,69,75
268200,note_on,120,0,2,,,,,,,,,1,,,71,0
268200,note_on,120,0,1,,,,,,,,,0,,,83,0
268200,note_on,0,0,1,,,,,,,,,0,,,81,75
268320,note_on,0,0,4,,,,,,,,,3,,,45,62
268320,note_on,120,0,2,,,,,,,,,1,,,69,0
268320,note_on,0,0,2,,,,,,,,,1,,,67,75
268320,note_on,0,0,3,,,,,,,,,2,,,61,75
268320,note_on,0,0,3,,,,,,,,,2,,,52,75
268320,note_on,0,0,3,,,,,,,,,2,,,52,0
268320,note_on,240,0,3,,,,,,,,,2,,,61,0
268320,note_on,0,0,1,,,,,,,,,0,,,79,75
268320,note_on,120,0,1,,,,,,,,,0,,,81,0
268320,note_on,240,0,4,,,,,,,,,3,,,45,0
268440,note_on,120,0,2,,,,,,,,,1,,,67,0
268440,note_on,0,0,1,,,,,,,,,0,,,78,75
268440,note_on,120,0,1,,,,,,,,,0,,,79,0
268440,note_on,0,0,2,,,,,,,,,1,,,66,75
268560,note_on,0,0,1,,,,,,,,,0,,,81,75
268560,note_on,120,0,1,,,,,,,,,0,,,78,0
268560,note_on,120,0,2,,,,,,,,,1,,,66,0
268560,note_on,0,0,2,,,,,,,,,1,,,69,75
268640,note_on,80,0,2,,,,,,,,,1,,,69,0
268640,note_on,0,0,1,,,,,,,,,0,,,79,75
268640,note_on,80,0,1,,,,,,,,,0,,,81,0
268640,note_on,0,0,2,,,,,,,,,1,,,67,75
268680,note_on,360,0,3,,,,,,,,,2,,,61,0
268680,note_on,0,0,3,,,,,,,,,2,,,52,0
268680,note_on,360,0,4,,,,,,,,,3,,,45,0
268680,note_on,0,0,3,,,,,,,,,2,,,62,75
268680,note_on,0,0,4,,,,,,,,,3,,,38,62
268680,note_on,0,0,3,,,,,,,,,2,,,50,75
268719,note_on,79,0,2,,,,,,,,,1,,,67,0
268719,note_on,0,0,2,,,,,,,,,1,,,66,75
268719,note_on,79,0,1,,,,,,,,,0,,,79,0
268719,note_on,0,0,1,,,,,,,,,0,,,78,75
268800,note_on,81,0,2,,,,,,,,,1,,,66,0
268800,note_on,0,0,2,,,,,,,,,1,,,66,75
268800,note_on,0,0,3,,,,,,,,,2,,,50,75
268800,note_on,0,0,1,,,,,,,,,0,,,78,75
268800,note_on,81,0,1,,,,,,,,,0,,,78,0
268800,note_on,0,0,3,,,,,,,,,2,,,62,75
268800,note_on,120,0,4,,,,,,,,,3,,,38,0
268800,note_on,0,0,4,,,,,,,,,3,,,38,62
268800,note_on,0,0,3,,,,,,,,,2,,,50,0
268800,note_on,120,0,3,,,,,,,,,2,,,62,0
268920,note_on,120,0,1,,,,,,,,,0,,,78,0
268920,note_on,0,0,2,,,,,,,,,1,,,74,75
268920,note_on,0,0,1,,,,,,,,,0,,,86,75
268920,note_on,120,0,2,,,,,,,,,1,,,66,0
269040,note_on,120,0,2,,,,,,,,,1,,,74,0
269040,note_on,0,0,3,,,,,,,,,2,,,50,0
269040,note_on,240,0,3,,,,,,,,,2,,,62,0
269040,note_on,0,0,3,,,,,,,,,2,,,62,75
269040,note_on,240,0,4,,,,,,,,,3,,,38,0
269040,note_on,0,0,2,,,,,,,,,1,,,78,75
269040,note_on,0,0,1,,,,,,,,,0,,,90,75
269040,note_on,120,0,1,,,,,,,,,0,,,86,0
269120,note_on,0,0,2,,,,,,,,,1,,,76,75
269120,note_on,80,0,2,,,,,,,,,1,,,78,0
269120,note_on,80,0,1,,,,,,,,,0,,,90,0
269120,note_on,0,0,1,,,,,,,,,0,,,88,75
269160,note_on,120,0,3,,,,,,,,,2,,,62,0
269160,note_on,0,0,3,,,,,,,,,2,,,64,75
269199,note_on,79,0,2,,,,,,,,,1,,,76,0
269199,note_on,79,0,1,,,,,,,,,0,,,88,0
269199,note_on,0,0,1,,,,,,,,,0,,,86,75
269199,note_on,0,0,2,,,,,,,,,1,,,74,75
269280,note_on,120,0,3,,,,,,,,,2,,,64,0
269280,note_on,0,0,3,,,,,,,,,2,,,54,75
269280,note_on,240,0,4,,,,,,,,,3,,,34,62
269280,note_on,81,0,2,,,,,,,,,1,,,74,0
269280,note_on,0,0,1,,,,,,,,,0,,,85,75
269280,control_change,0,0,1,,,,,,,,,0,64,127,,
269280,note_on,0,0,2,,,,,,,,,1,,,73,62
269280,note_on,0,0,3,,,,,,,,,2,,,66,75
269280,note_on,0,0,4,,,,,,,,,3,,,46,62
269280,note_on,81,0,1,,,,,,,,,0,,,86,0
269400,note_on,120,0,2,,,,,,,,,1,,,73,0
269400,note_on,0,0,1,,,,,,,,,0,,,73,75
269400,note_on,120,0,1,,,,,,,,,0,,,85,0
269520,note_on,0,0,1,,,,,,,,,0,,,78,75
269520,note_on,120,0,1,,,,,,,,,0,,,73,0
269640,note_on,360,0,3,,,,,,,,,2,,,66,0
269640,note_on,0,0,3,,,,,,,,,2,,,54,75
269640,note_on,0,0,3,,,,,,,,,2,,,66,75
269640,note_on,240,0,2,,,,,,,,,1,,,73,62
269640,note_on,0,0,3,,,,,,,,,2,,,54,0
269640,note_on,0,0,2,,,,,,,,,1,,,78,62
269640,control_change,0,0,1,,,,,,,,,0,64,0,,
269640,note_on,120,0,1,,,,,,,,,0,,,78,0
269640,note_on,0,0,1,,,,,,,,,0,,,85,75
269760,note_on,120,0,1,,,,,,,,,0,,,85,0
269760,note_on,0,0,2,,,,,,,,,1,,,76,62
269760,note_on,0,0,2,,,,,,,,,1,,,73,62
269760,note_on,0,0,2,,,,,,,,,1,,,73,0
269760,note_on,120,0,2,,,,,,,,,1,,,78,0
269760,note_on,0,0,3,,,,,,,,,2,,,54,0
269760,note_on,0,0,1,,,,,,,,,0,,,85,75
269760,note_on,0,0,3,,,,,,,,,2,,,57,75
269760,note_on,120,0,3,,,,,,,,,2,,,66,0
269760,note_on,0,0,4,,,,,,,,,3,,,33,62
269760,note_on,480,0,4,,,,,,,,,3,,,46,0
269760,note_on,0,0,4,,,,,,,,,3,,,34,0
269760,note_on,0,0,4,,,,,,,,,3,,,45,62
269760,control_change,0,0,1,,,,,,,,,0,64,127,,
269760,note_on,0,0,3,,,,,,,,,2,,,69,75
269880,note_on,120,0,2,,,,,,,,,1,,,76,0
269880,note_on,0,0,2,,,,,,,,,1,,,73,0
269880,note_on,120,0,1,,,,,,,,,0,,,85,0
269880,note_on,0,0,1,,,,,,,,,0,,,73,75
269940,note_on,0,0,3,,,,,,,,,2,,,55,75
269940,note_on,0,0,3,,,,,,,,,2,,,57,0
269940,note_on,180,0,3,,,,,,,,,2,,,69,0
269940,note_on,0,0,3,,,,,,,,,2,,,67,75
270000,note_on,60,0,3,,,,,,,,,2,,,67,0
270000,note_on,0,0,3,,,,,,,,,2,,,55,75
270000,note_on,120,0,1,,,,,,,,,0,,,73,0
270000,note_on,0,0,1,,,,,,,,,0,,,76,75
270000,note_on,0,0,3,,,,,,,,,2,,,55,0
270000,note_on,0,0,3,,,,,,,,,2,,,67,75
270120,control_change,0,0,1,,,,,,,,,0,64,0,,
270120,note_on,120,0,1,,,,,,,,,0,,,76,0
270120,note_on,240,0,2,,,,,,,,,1,,,73,62
270120,note_on,0,0,2,,,,,,,,,1,,,76,62
270120,note_on,0,0,1,,,,,,,,,0,,,85,75
270180,note_on,0,0,3,,,,,,,,,2,,,55,0
270180,note_on,0,0,3,,,,,,,,,2,,,54,75
270180,note_on,0,0,3,,,,,,,,,2,,,66,75
270180,note_on,180,0,3,,,,,,,,,2,,,67,0
270240,note_on,120,0,2,,,,,,,,,1,,,76,0
270240,note_on,0,0,2,,,,,,,,,1,,,73,0
270240,note_on,0,0,2,,,,,,,,,1,,,73,62
270240,note_on,0,0,3,,,,,,,,,2,,,66,75
270240,note_on,0,0,3,,,,,,,,,2,,,54,75
270240,note_on,60,0,3,,,,,,,,,2,,,66,0
270240,note_on,0,0,4,,,,,,,,,3,,,33,0
270240,note_on,0,0,4,,,,,,,,,3,,,34,62
270240,note_on,0,0,4,,,,,,,,,3,,,46,62
270240,note_on,0,0,2,,,,,,,,,1,,,78,62
270240,note_on,0,0,3,,,,,,,,,2,,,54,0
270240,note_on,480,0,4,,,,,,,,,3,,,45,0
270240,note_on,0,0,1,,,,,,,,,0,,,85,75
270240,control_change,0,0,1,,,,,,,,,0,64,127,,
270240,note_on,120,0,1,,,,,,,,,0,,,85,0
270360,note_on,0,0,2,,,,,,,,,1,,,73,0
270360,note_on,0,0,1,,,,,,,,,0,,,73,75
270360,note_on,120,0,1,,,,,,,,,0,,,85,0
270360,note_on,120,0,2,,,,,,,,,1,,,78,0
270480,note_on,0,0,1,,,,,,,,,0,,,78,75
270480,note_on,120,0,1,,,,,,,,,0,,,73,0
270600,note_on,0,0,1,,,,,,,,,0,,,85,75
270600,note_on,0,0,2,,,,,,,,,1,,,78,62
270600,control_change,0,0,1,,,,,,,,,0,64,0,,
270600,note_on,240,0,2,,,,,,,,,1,,,73,62
270600,note_on,120,0,1,,,,,,,,,0,,,78,0
270720,note_on,120,0,2,,,,,,,,,1,,,78,0
270720,note_on,480,0,4,,,,,,,,,3,,,46,0
270720,note_on,0,0,4,,,,,,,,,3,,,34,0
270720,note_on,0,0,2,,,,,,,,,1,,,73,0
270720,note_on,0,0,3,,,,,,,,,2,,,64,75
270720,control_change,0,0,3,,,,,,,,,2,64,127,,
270720,note_on,0,0,3,,,,,,,,,2,,,54,0
270720,note_on,0,0,4,,,,,,,,,3,,,35,62
270720,note_on,0,0,4,,,,,,,,,3,,,47,62
270720,note_on,480,0,3,,,,,,,,,2,,,66,0
270720,note_on,120,0,1,,,,,,,,,0,,,85,0
270720,control_change,0,0,1,,,,,,,,,0,64,127,,
270720,note_on,0,0,1,,,,,,,,,0,,,86,75
270720,note_on,0,0,2,,,,,,,,,1,,,78,62
270720,note_on,0,0,2,,,,,,,,,1,,,74,62
270840,note_on,120,0,1,,,,,,,,,0,,,86,0
270840,note_on,0,0,3,,,,,,,,,2,,,62,75
270840,note_on,120,0,2,,,,,,,,,1,,,78,0
270840,note_on,120,0,3,,,,,,,,,2,,,64,0
270840,note_on,0,0,1,,,,,,,,,0,,,74,75
270840,note_on,0,0,2,,,,,,,,,1,,,74,0
270960,note_on,0,0,4,,,,,,,,,3,,,38,62
270960,note_on,0,0,4,,,,,,,,,3,,,50,62
270960,note_on,0,0,4,,,,,,,,,3,,,35,0
270960,note_on,0,0,3,,,,,,,,,2,,,54,75
270960,note_on,0,0,1,,,,,,,,,0,,,78,75
270960,note_on,240,0,4,,,,,,,,,3,,,47,0
270960,note_on,120,0,3,,,,,,,,,2,,,62,0
270960,note_on,120,0,1,,,,,,,,,0,,,74,0
271080,control_change,0,0,1,,,,,,,,,0,64,0,,
271080,note_on,0,0,1,,,,,,,,,0,,,86,75
271080,note_on,120,0,1,,,,,,,,,0,,,78,0
271140,note_on,0,0,3,,,,,,,,,2,,,56,75
271140,control_change,0,0,3,,,,,,,,,2,64,0,,
271140,note_on,180,0,3,,,,,,,,,2,,,54,0
271200,note_on,0,0,2,,,,,,,,,1,,,73,75
271200,control_change,360,0,2,,,,,,,,,1,64,127,,
271200,note_on,0,0,4,,,,,,,,,3,,,52,62
271200,note_on,0,0,4,,,,,,,,,3,,,40,62
271200,note_on,240,0,4,,,,,,,,,3,,,50,0
271200,note_on,60,0,3,,,,,,,,,2,,,56,0
271200,note_on,120,0,1,,,,,,,,,0,,,86,0
271200,control_change,0,0,1,,,,,,,,,0,64,127,,
271200,note_on,0,0,1,,,,,,,,,0,,,85,75
271200,note_on,0,0,4,,,,,,,,,3,,,38,0
271200,note_on,0,0,3,,,,,,,,,2,,,57,75
271320,note_on,0,0,2,,,,,,,,,1,,,61,75
271320,note_on,120,0,2,,,,,,,,,1,,,73,0
271320,note_on,120,0,1,,,,,,,,,0,,,85,0
271320,note_on,0,0,1,,,,,,,,,0,,,73,75
271320,note_on,0,0,3,,,,,,,,,2,,,59,75
271320,note_on,120,0,3,,,,,,,,,2,,,57,0
271380,note_on,0,0,3,,,,,,,,,2,,,57,75
271380,note_on,60,0,3,,,,,,,,,2,,,59,0
271440,note_on,60,0,3,,,,,,,,,2,,,57,0
271440,note_on,120,0,1,,,,,,,,,0,,,73,0
271440,note_on,0,0,3,,,,,,,,,2,,,56,75
271440,note_on,120,0,2,,,,,,,,,1,,,61,0
271440,note_on,0,0,2,,,,,,,,,1,,,64,75
271440,note_on,0,0,1,,,,,,,,,0,,,76,75
271500,note_on,60,0,3,,,,,,,,,2,,,56,0
271500,note_on,0,0,3,,,,,,,,,2,,,57,75
271560,note_on,60,0,3,,,,,,,,,2,,,57,0
271560,note_on,0,0,2,,,,,,,,,1,,,73,75
271560,note_on,120,0,1,,,,,,,,,0,,,76,0
271560,control_change,0,0,1,,,,,,,,,0,64,0,,
271560,note_on,0,0,1,,,,,,,,,0,,,85,75
271560,control_change,0,0,2,,,,,,,,,1,64,0,,
271560,note_on,120,0,2,,,,,,,,,1,,,64,0
271560,note_on,0,0,3,,,,,,,,,2,,,58,75
271680,note_on,0,0,4,,,,,,,,,3,,,52,62
271680,note_on,0,0,4,,,,,,,,,3,,,40,0
271680,control_change,0,0,1,,,,,,,,,0,64,127,,
271680,note_on,480,0,4,,,,,,,,,3,,,52,0
271680,note_on,0,0,3,,,,,,,,,2,,,59,75
271680,note_on,120,0,3,,,,,,,,,2,,,58,0
271680,note_on,120,0,2,,,,,,,,,1,,,73,0
271680,control_change,0,0,2,,,,,,,,,1,64,127,,
271680,note_on,0,0,2,,,,,,,,,1,,,68,75
271680,note_on,0,0,1,,,,,,,,,0,,,80,75
271680,note_on,0,0,4,,,,,,,,,3,,,40,62
271680,note_on,120,0,1,,,,,,,,,0,,,85,0
271800,note_on,120,0,1,,,,,,,,,0,,,80,0
271800,note_on,0,0,1,,,,,,,,,0,,,74,75
271800,note_on,120,0,2,,,,,,,,,1,,,68,0
271800,note_on,0,0,2,,,,,,,,,1,,,62,75
271800,note_on,0,0,3,,,,,,,,,2,,,61,75
271800,note_on,120,0,3,,,,,,,,,2,,,59,0
271860,note_on,0,0,3,,,,,,,,,2,,,59,75
271860,note_on,60,0,3,,,,,,,,,2,,,61,0
271920,note_on,60,0,3,,,,,,,,,2,,,59,0
271920,note_on,0,0,3,,,,,,,,,2,,,58,75
271920,note_on,120,0,2,,,,,,,,,1,,,62,0
271920,note_on,120,0,1,,,,,,,,,0,,,74,0
271920,note_on,0,0,1,,,,,,,,,0,,,76,75
271920,note_on,0,0,2,,,,,,,,,1,,,64,75
271980,note_on,0,0,3,,,,,,,,,2,,,59,75
271980,note_on,60,0,3,,,,,,,,,2,,,58,0
272040,note_on,120,0,1,,,,,,,,,0,,,76,0
272040,note_on,0,0,1,,,,,,,,,0,,,80,75
272040,note_on,60,0,3,,,,,,,,,2,,,59,0
272040,control_change,0,0,1,,,,,,,,,0,64,0,,
272040,note_on,120,0,2,,,,,,,,,1,,,64,0
272040,control_change,0,0,2,,,,,,,,,1,64,0,,
272040,note_on,0,0,2,,,,,,,,,1,,,68,75
272040,note_on,0,0,3,,,,,,,,,2,,,60,75
272160,note_on,0,0,2,,,,,,,,,1,,,80,75
272160,note_on,0,0,2,,,,,,,,,1,,,68,75
272160,control_change,0,0,2,,,,,,,,,1,64,127,,
272160,note_on,120,0,2,,,,,,,,,1,,,68,0
272160,note_on,480,0,4,,,,,,,,,3,,,52,0
272160,note_on,0,0,4,,,,,,,,,3,,,40,0
272160,note_on,0,0,3,,,,,,,,,2,,,60,75
272160,note_on,0,0,1,,,,,,,,,0,,,88,101
272160,note_on,120,0,1,,,,,,,,,0,,,80,0
272160,note_on,0,0,4,,,,,,,,,3,,,52,62
272160,note_on,0,0,4,,,,,,,,,3,,,40,62
272160,note_on,120,0,3,,,,,,,,,2,,,60,0
272280,note_on,0,0,2,,,,,,,,,1,,,76,75
272280,note_on,120,0,2,,,,,,,,,1,,,80,0
272280,note_on,0,0,2,,,,,,,,,1,,,68,0
272280,note_on,0,0,2,,,,,,,,,1,,,64,75
272400,note_on,0,0,2,,,,,,,,,1,,,78,75
272400,note_on,0,0,2,,,,,,,,,1,,,66,75
272400,note_on,120,0,2,,,,,,,,,1,,,76,0
272400,note_on,0,0,2,,,,,,,,,1,,,64,0
272520,note_on,120,0,2,,,,,,,,,1,,,78,0
272520,note_on,0,0,2,,,,,,,,,1,,,66,0
272520,note_on,0,0,2,,,,,,,,,1,,,68,75
272520,note_on,0,0,2,,,,,,,,,1,,,80,75
272640,note_on,0,0,4,,,,,,,,,3,,,40,0
272640,note_on,120,0,2,,,,,,,,,1,,,80,0
272640,note_on,0,0,2,,,,,,,,,1,,,68,0
272640,note_on,0,0,2,,,,,,,,,1,,,69,75
272640,note_on,0,0,2,,,,,,,,,1,,,81,75
272640,note_on,480,0,4,,,,,,,,,3,,,52,0
272640,note_on,0,0,3,,,,,,,,,2,,,61,75
272640,note_on,480,0,3,,,,,,,,,2,,,60,0
272640,note_on,0,0,4,,,,,,,,,3,,,45,62
272640,note_on,480,0,1,,,,,,,,,0,,,88,0
272640,note_on,0,0,1,,,,,,,,,0,,,85,101
272760,note_on,0,0,2,,,,,,,,,1,,,83,75
272760,note_on,0,0,2,,,,,,,,,1,,,71,75
272760,note_on,0,0,2,,,,,,,,,1,,,69,0
272760,note_on,120,0,2,,,,,,,,,1,,,81,0
272880,note_on,0,0,2,,,,,,,,,1,,,71,0
272880,note_on,120,0,2,,,,,,,,,1,,,83,0
272880,note_on,240,0,4,,,,,,,,,3,,,45,0
272880,note_on,0,0,2,,,,,,,,,1,,,69,75
272880,note_on,240,0,1,,,,,,,,,0,,,85,0
272880,note_on,0,0,1,,,,,,,,,0,,,81,75
272880,note_on,240,0,3,,,,,,,,,2,,,61,0
272880,note_on,0,0,3,,,,,,,,,2,,,54,75
272940,note_on,60,0,3,,,,,,,,,2,,,54,0
272940,note_on,0,0,3,,,,,,,,,2,,,53,75
273000,note_on,0,0,3,,,,,,,,,2,,,54,75
273000,note_on,120,0,2,,,,,,,,,1,,,69,0
273000,note_on,60,0,3,,,,,,,,,2,,,53,0
273000,note_on,0,0,2,,,,,,,,,1,,,68,75
273000,note_on,120,0,1,,,,,,,,,0,,,81,0
273000,note_on,0,0,1,,,,,,,,,0,,,80,75
273000,control_change,0,0,2,,,,,,,,,1,64,0,,
273060,note_on,60,0,3,,,,,,,,,2,,,54,0
273060,note_on,0,0,3,,,,,,,,,2,,,56,75
273120,note_on,120,0,1,,,,,,,,,0,,,80,0
273120,control_change,0,0,1,,,,,,,,,0,64,127,,
273120,note_on,0,0,3,,,,,,,,,2,,,57,75
273120,note_on,0,0,1,,,,,,,,,0,,,78,75
273120,note_on,60,0,3,,,,,,,,,2,,,56,0
273120,control_change,0,0,2,,,,,,,,,1,64,127,,
273120,note_on,120,0,2,,,,,,,,,1,,,68,0
273120,control_change,0,0,3,,,,,,,,,2,64,127,,
273120,note_on,0,0,2,,,,,,,,,1,,,66,75
273240,note_on,120,0,1,,,,,,,,,0,,,78,0
273240,note_on,0,0,2,,,,,,,,,1,,,65,75
273240,note_on,120,0,2,,,,,,,,,1,,,66,0
273240,note_on,0,0,1,,,,,,,,,0,,,77,75
273360,note_on,120,0,1,,,,,,,,,0,,,77,0
273360,note_on,0,0,1,,,,,,,,,0,,,78,88
273360,control_change,480,0,4,,,,,,,,,3,64,127,,
273360,note_on,0,0,2,,,,,,,,,1,,,66,88
273360,note_on,120,0,2,,,,,,,,,1,,,65,0
273360,note_on,0,0,3,,,,,,,,,2,,,63,88
273360,note_on,0,0,3,,,,,,,,,2,,,59,88
273360,note_on,240,0,3,,,,,,,,,2,,,57,0
273360,note_on,0,0,4,,,,,,,,,3,,,35,75
273360,note_on,0,0,4,,,,,,,,,3,,,47,75
273480,note_on,120,0,2,,,,,,,,,1,,,66,0
273480,note_on,0,0,2,,,,,,,,,1,,,68,88
273480,note_on,0,0,1,,,,,,,,,0,,,80,88
273480,note_on,120,0,1,,,,,,,,,0,,,78,0
273600,note_on,0,0,3,,,,,,,,,2,,,63,88
273600,note_on,0,0,3,,,,,,,,,2,,,60,88
273600,note_on,0,0,3,,,,,,,,,2,,,59,0
273600,note_on,240,0,3,,,,,,,,,2,,,63,0
273600,note_on,0,0,4,,,,,,,,,3,,,35,0
273600,note_on,240,0,4,,,,,,,,,3,,,47,0
273600,note_on,0,0,4,,,,,,,,,3,,,47,75
273600,note_on,120,0,2,,,,,,,,,1,,,68,0
273600,note_on,120,0,1,,,,,,,,,0,,,80,0
273600,note_on,0,0,1,,,,,,,,,0,,,81,88
273600,note_on,0,0,2,,,,,,,,,1,,,69,88
273600,note_on,0,0,4,,,,,,,,,3,,,35,75
273720,note_on,120,0,2,,,,,,,,,1,,,69,0
273720,note_on,0,0,2,,,,,,,,,1,,,70,88
273720,note_on,0,0,1,,,,,,,,,0,,,82,88
273720,note_on,120,0,1,,,,,,,,,0,,,81,0
273840,note_on,0,0,4,,,,,,,,,3,,,35,0
273840,note_on,120,0,1,,,,,,,,,0,,,82,0
273840,note_on,0,0,1,,,,,,,,,0,,,83,75
273840,control_change,0,0,4,,,,,,,,,3,64,0,,
273840,note_on,0,0,4,,,,,,,,,3,,,35,62
273840,note_on,0,0,4,,,,,,,,,3,,,47,62
273840,note_on,0,0,3,,,,,,,,,2,,,59,75
273840,note_on,0,0,3,,,,,,,,,2,,,60,0
273840,note_on,240,0,4,,,,,,,,,3,,,47,0
273840,note_on,0,0,3,,,,,,,,,2,,,63,75
273840,note_on,240,0,3,,,,,,,,,2,,,63,0
273840,note_on,0,0,2,,,,,,,,,1,,,71,75
273840,note_on,120,0,2,,,,,,,,,1,,,70,0
273960,note_on,0,0,3,,,,,,,,,2,,,59,0
273960,note_on,120,0,3,,,,,,,,,2,,,63,0
273960,note_on,0,0,2,,,,,,,,,1,,,72,75
273960,control_change,0,0,2,,,,,,,,,1,64,0,,
273960,note_on,120,0,2,,,,,,,,,1,,,71,0
273960,control_change,0,0,1,,,,,,,,,0,64,0,,
273960,note_on,0,0,1,,,,,,,,,0,,,84,75
273960,note_on,0,0,3,,,,,,,,,2,,,57,75
273960,control_change,0,0,3,,,,,,,,,2,64,0,,
273960,note_on,120,0,1,,,,,,,,,0,,,83,0
274080,note_on,0,0,4,,,,,,,,,3,,,57,62
274080,note_on,120,0,2,,,,,,,,,1,,,72,0
274080,control_change,0,0,2,,,,,,,,,1,64,127,,
274080,note_on,0,0,2,,,,,,,,,1,,,72,75
274080,note_on,0,0,1,,,,,,,,,0,,,84,75
274080,note_on,120,0,1,,,,,,,,,0,,,84,0
274080,note_on,0,0,4,,,,,,,,,3,,,47,62
274080,note_on,0,0,4,,,,,,,,,3,,,35,0
274080,note_on,120,0,3,,,,,,,,,2,,,57,0
274080,control_change,0,0,3,,,,,,,,,2,64,127,,
274080,note_on,0,0,3,,,,,,,,,2,,,63,75
274080,note_on,0,0,4,,,,,,,,,3,,,35,62
274080,control_change,0,0,1,,,,,,,,,0,64,127,,
274080,note_on,240,0,4,,,,,,,,,3,,,47,0
274127,note_on,0,0,3,,,,,,,,,2,,,64,75
274127,note_on,47,0,3,,,,,,,,,2,,,63,0
274176,note_on,0,0,3,,,,,,,,,2,,,63,75
274176,note_on,49,0,3,,,,,,,,,2,,,64,0
274200,note_on,120,0,2,,,,,,,,,1,,,72,0
274200,note_on,0,0,1,,,,,,,,,0,,,83,75
274200,note_on,120,0,1,,,,,,,,,0,,,84,0
274200,note_on,0,0,2,,,,,,,,,1,,,71,75
274223,note_on,47,0,3,,,,,,,,,2,,,63,0
274223,note_on,0,0,3,,,,,,,,,2,,,62,75
274272,note_on,0,0,3,,,,,,,,,2,,,63,75
274272,note_on,49,0,3,,,,,,,,,2,,,62,0
274320,note_on,120,0,1,,,,,,,,,0,,,83,0
274320,note_on,0,0,2,,,,,,,,,1,,,75,75
274320,note_on,0,0,1,,,,,,,,,0,,,87,75
274320,note_on,0,0,3,,,,,,,,,2,,,66,75
274320,note_on,48,0,3,,,,,,,,,2,,,63,0
274320,note_on,120,0,2,,,,,,,,,1,,,71,0
274440,note_on,120,0,1,,,,,,,,,0,,,87,0
274440,note_on,0,0,1,,,,,,,,,0,,,90,75
274440,note_on,0,0,2,,,,,,,,,1,,,78,75
274440,note_on,120,0,2,,,,,,,,,1,,,75,0
274500,note_on,0,0,3,,,,,,,,,2,,,64,75
274500,control_change,0,0,3,,,,,,,,,2,64,0,,
274500,note_on,180,0,3,,,,,,,,,2,,,66,0
274500,note_on,420,0,4,,,,,,,,,3,,,57,0
274500,note_on,0,0,4,,,,,,,,,3,,,47,0
274500,note_on,0,0,4,,,,,,,,,3,,,35,0
274500,note_on,0,0,4,,,,,,,,,3,,,40,62
274560,note_on,0,0,3,,,,,,,,,2,,,64,75
274560,note_on,60,0,3,,,,,,,,,2,,,64,0
274560,note_on,60,0,4,,,,,,,,,3,,,40,0
274560,note_on,0,0,4,,,,,,,,,3,,,40,62
274560,note_on,120,0,2,,,,,,,,,1,,,78,0
274560,control_change,0,0,2,,,,,,,,,1,64,0,,
274560,note_on,120,0,1,,,,,,,,,0,,,90,0
274560,control_change,0,0,1,,,,,,,,,0,64,0,,
274560,note_on,0,0,1,,,,,,,,,0,,,88,75
274560,note_on,0,0,2,,,,,,,,,1,,,76,75
274680,note_on,0,0,2,,,,,,,,,1,,,64,75
274680,note_on,0,0,1,,,,,,,,,0,,,76,75
274680,note_on,120,0,1,,,,,,,,,0,,,88,0
274680,note_on,120,0,2,,,,,,,,,1,,,76,0
274800,note_on,240,0,4,,,,,,,,,3,,,40,0
274800,note_on,120,0,1,,,,,,,,,0,,,76,0
274800,note_on,0,0,1,,,,,,,,,0,,,79,75
274800,note_on,120,0,2,,,,,,,,,1,,,64,0
274800,note_on,0,0,2,,,,,,,,,1,,,67,75
274800,control_change,0,0,3,,,,,,,,,2,64,127,,
274800,note_on,0,0,3,,,,,,,,,2,,,52,75
274800,note_on,240,0,3,,,,,,,,,2,,,64,0
274860,note_on,0,0,3,,,,,,,,,2,,,51,75
274860,note_on,60,0,3,,,,,,,,,2,,,52,0
274920,note_on,0,0,3,,,,,,,,,2,,,52,75
274920,note_on,0,0,1,,,,,,,,,0,,,78,75
274920,note_on,120,0,1,,,,,,,,,0,,,79,0
274920,note_on,60,0,3,,,,,,,,,2,,,51,0
274920,note_on,0,0,2,,,,,,,,,1,,,66,75
274920,note_on,120,0,2,,,,,,,,,1,,,67,0
274980,note_on,0,0,3,,,,,,,,,2,,,54,75
274980,note_on,60,0,3,,,,,,,,,2,,,52,0
275040,note_on,0,0,1,,,,,,,,,0,,,76,75
275040,note_on,120,0,1,,,,,,,,,0,,,78,0
275040,control_change,0,0,1,,,,,,,,,0,64,127,,
275040,note_on,60,0,3,,,,,,,,,2,,,54,0
275040,control_change,0,0,3,,,,,,,,,2,64,0,,
275040,note_on,0,0,2,,,,,,,,,1,,,64,75
275040,note_on,0,0,3,,,,,,,,,2,,,55,75
275040,control_change,0,0,2,,,,,,,,,1,64,127,,
275040,note_on,120,0,2,,,,,,,,,1,,,66,0
275160,note_on,120,0,2,,,,,,,,,1,,,64,0
275160,note_on,0,0,2,,,,,,,,,1,,,63,75
275160,note_on,0,0,1,,,,,,,,,0,,,75,75
275160,note_on,120,0,1,,,,,,,,,0,,,76,0
275280,note_on,120,0,1,,,,,,,,,0,,,75,0
275280,note_on,0,0,1,,,,,,,,,0,,,76,88
275280,control_change,480,0,4,,,,,,,,,3,64,127,,
275280,note_on,0,0,4,,,,,,,,,3,,,33,75
275280,note_on,0,0,4,,,,,,,,,3,,,45,75
275280,control_change,0,0,3,,,,,,,,,2,64,127,,
275280,note_on,0,0,3,,,,,,,,,2,,,57,88
275280,note_on,0,0,3,,,,,,,,,2,,,61,88
275280,note_on,0,0,2,,,,,,,,,1,,,64,88
275280,note_on,120,0,2,,,,,,,,,1,,,63,0
275280,note_on,240,0,3,,,,,,,,,2,,,55,0
275400,note_on,0,0,2,,,,,,,,,1,,,66,88
275400,note_on,0,0,1,,,,,,,,,0,,,78,88
275400,note_on,120,0,1,,,,,,,,,0,,,76,0
275400,note_on,120,0,2,,,,,,,,,1,,,64,0
275520,note_on,240,0,4,,,,,,,,,3,,,45,0
275520,note_on,0,0,3,,,,,,,,,2,,,61,88
275520,note_on,0,0,1,,,,,,,,,0,,,79,88
275520,note_on,120,0,1,,,,,,,,,0,,,78,0
275520,note_on,0,0,3,,,,,,,,,2,,,57,0
275520,note_on,0,0,4,,,,,,,,,3,,,33,75
275520,note_on,240,0,3,,,,,,,,,2,,,61,0
275520,note_on,0,0,3,,,,,,,,,2,,,58,88
275520,note_on,0,0,4,,,,,,,,,3,,,45,75
275520,note_on,0,0,4,,,,,,,,,3,,,33,0
275520,note_on,120,0,2,,,,,,,,,1,,,66,0
275520,note_on,0,0,2,,,,,,,,,1,,,67,88
275640,note_on,0,0,1,,,,,,,,,0,,,80,88
275640,note_on,120,0,2,,,,,,,,,1,,,67,0
275640,note_on,0,0,2,,,,,,,,,1,,,68,88
275640,note_on,120,0,1,,,,,,,,,0,,,79,0
275760,note_on,0,0,3,,,,,,,,,2,,,58,0
275760,note_on,240,0,3,,,,,,,,,2,,,61,0
275760,note_on,120,0,2,,,,,,,,,1,,,68,0
275760,note_on,0,0,2,,,,,,,,,1,,,69,75
275760,note_on,0,0,1,,,,,,,,,0,,,81,75
275760,note_on,120,0,1,,,,,,,,,0,,,80,0
275760,note_on,0,0,4,,,,,,,,,3,,,33,0
275760,note_on,240,0,4,,,,,,,,,3,,,45,0
275760,note_on,0,0,3,,,,,,,,,2,,,61,75
275760,note_on,0,0,4,,,,,,,,,3,,,45,62
275760,note_on,0,0,4,,,,,,,,,3,,,33,62
275760,note_on,0,0,3,,,,,,,,,2,,,57,75
275760,control_change,0,0,4,,,,,,,,,3,64,0,,
275880,note_on,0,0,2,,,,,,,,,1,,,70,75
275880,control_change,0,0,3,,,,,,,,,2,64,0,,
275880,note_on,0,0,3,,,,,,,,,2,,,57,0
275880,note_on,120,0,2,,,,,,,,,1,,,69,0
275880,note_on,120,0,3,,,,,,,,,2,,,61,0
275880,note_on,120,0,1,,,,,,,,,0,,,81,0
275880,control_change,0,0,1,,,,,,,,,0,64,0,,
275880,note_on,0,0,1,,,,,,,,,0,,,82,75
275880,note_on,0,0,3,,,,,,,,,2,,,55,75
275880,control_change,0,0,2,,,,,,,,,1,64,0,,
276000,note_on,0,0,3,,,,,,,,,2,,,61,75
276000,note_on,0,0,1,,,,,,,,,0,,,82,75
276000,note_on,240,0,4,,,,,,,,,3,,,45,0
276000,note_on,0,0,4,,,,,,,,,3,,,33,0
276000,note_on,120,0,3,,,,,,,,,2,,,55,0
276000,note_on,120,0,1,,,,,,,,,0,,,82,0
276000,note_on,0,0,4,,,,,,,,,3,,,45,62
276000,note_on,0,0,4,,,,,,,,,3,,,55,62
276000,note_on,120,0,2,,,,,,,,,1,,,70,0
276000,control_change,0,0,2,,,,,,,,,1,64,127,,
276000,note_on,0,0,2,,,,,,,,,1,,,70,75
276000,control_change,0,0,3,,,,,,,,,2,64,127,,
276000,note_on,0,0,4,,,,,,,,,3,,,33,62
276000,control_change,0,0,1,,,,,,,,,0,64,127,,
276047,note_on,0,0,3,,,,,,,,,2,,,62,75
276047,note_on,47,0,3,,,,,,,,,2,,,61,0
276096,note_on,49,0,3,,,,,,,,,2,,,62,0
276096,note_on,0,0,3,,,,,,,,,2,,,61,75
276120,note_on,0,0,2,,,,,,,,,1,,,69,75
276120,note_on,120,0,2,,,,,,,,,1,,,70,0
276120,note_on,120,0,1,,,,,,,,,0,,,82,0
276120,note_on,0,0,1,,,,,,,,,0,,,81,75
276143,note_on,47,0,3,,,,,,,,,2,,,61,0
276143,note_on,0,0,3,,,,,,,,,2,,,59,75
276192,note_on,49,0,3,,,,,,,,,2,,,59,0
276192,note_on,0,0,3,,,,,,,,,2,,,61,75
276240,note_on,120,0,1,,,,,,,,,0,,,81,0
276240,note_on,48,0,3,,,,,,,,,2,,,61,0
276240,note_on,0,0,2,,,,,,,,,1,,,73,75
276240,note_on,120,0,2,,,,,,,,,1,,,69,0
276240,note_on,0,0,1,,,,,,,,,0,,,85,75
276240,note_on,0,0,3,,,,,,,,,2,,,64,75
276360,note_on,120,0,1,,,,,,,,,0,,,85,0
276360,note_on,0,0,1,,,,,,,,,0,,,88,75
276360,note_on,120,0,2,,,,,,,,,1,,,73,0
276360,note_on,0,0,2,,,,,,,,,1,,,76,75
276420,note_on,0,0,4,,,,,,,,,3,,,33,0
276420,note_on,0,0,4,,,,,,,,,3,,,45,0
276420,note_on,420,0,4,,,,,,,,,3,,,55,0
276420,note_on,0,0,3,,,,,,,,,2,,,62,75
276420,note_on,0,0,3,,,,,,,,,2,,,54,75
276420,control_change,0,0,3,,,,,,,,,2,64,0,,
276420,note_on,180,0,3,,,,,,,,,2,,,64,0
276420,note_on,0,0,4,,,,,,,,,3,,,38,62
276480,note_on,0,0,1,,,,,,,,,0,,,86,75
276480,note_on,120,0,1,,,,,,,,,0,,,88,0
276480,note_on,120,0,2,,,,,,,,,1,,,76,0
276480,note_on,0,0,2,,,,,,,,,1,,,74,75
276480,note_on,60,0,3,,,,,,,,,2,,,62,0
276480,note_on,0,0,3,,,,,,,,,2,,,54,0
276480,note_on,0,0,3,,,,,,,,,2,,,54,75
276480,note_on,0,0,3,,,,,,,,,2,,,62,75
276480,note_on,60,0,4,,,,,,,,,3,,,38,0
276480,note_on,0,0,4,,,,,,,,,3,,,38,62
276600,note_on,120,0,2,,,,,,,,,1,,,74,0
276600,note_on,0,0,1,,,,,,,,,0,,,88,75
276600,note_on,120,0,1,,,,,,,,,0,,,86,0
276600,note_on,0,0,2,,,,,,,,,1,,,76,75
276720,note_on,0,0,3,,,,,,,,,2,,,54,0
276720,note_on,0,0,2,,,,,,,,,1,,,78,75
276720,note_on,120,0,2,,,,,,,,,1,,,76,0
276720,note_on,240,0,4,,,,,,,,,3,,,38,0
276720,note_on,0,0,3,,,,,,,,,2,,,62,75
276720,note_on,120,0,1,,,,,,,,,0,,,88,0
276720,note_on,240,0,3,,,,,,,,,2,,,62,0
276720,note_on,0,0,1,,,,,,,,,0,,,90,75
276800,note_on,0,0,2,,,,,,,,,1,,,76,75
276800,note_on,80,0,2,,,,,,,,,1,,,78,0
276800,note_on,80,0,1,,,,,,,,,0,,,90,0
276800,note_on,0,0,1,,,,,,,,,0,,,88,75
276840,note_on,120,0,3,,,,,,,,,2,,,62,0
276840,note_on,0,0,3,,,,,,,,,2,,,64,75
276879,control_change,0,0,2,,,,,,,,,1,64,0,,
276879,note_on,79,0,2,,,,,,,,,1,,,76,0
276879,control_change,0,0,1,,,,,,,,,0,64,0,,
276879,note_on,79,0,1,,,,,,,,,0,,,88,0
276879,note_on,0,0,1,,,,,,,,,0,,,86,75
276879,note_on,0,0,2,,,,,,,,,1,,,74,75
276960,note_on,0,0,2,,,,,,,,,1,,,73,62
276960,note_on,0,0,4,,,,,,,,,3,,,46,62
276960,note_on,240,0,4,,,,,,,,,3,,,34,62
276960,note_on,81,0,1,,,,,,,,,0,,,86,0
276960,note_on,0,0,1,,,,,,,,,0,,,85,75
276960,note_on,120,0,3,,,,,,,,,2,,,64,0
276960,note_on,0,0,3,,,,,,,,,2,,,54,75
276960,note_on,0,0,3,,,,,,,,,2,,,66,75
276960,note_on,81,0,2,,,,,,,,,1,,,74,0
277080,note_on,120,0,1,,,,,,,,,0,,,85,0
277080,note_on,0,0,1,,,,,,,,,0,,,73,75
277080,note_on,120,0,2,,,,,,,,,1,,,73,0
277200,note_on,120,0,1,,,,,,,,,0,,,73,0
277200,note_on,0,0,1,,,,,,,,,0,,,78,75
277320,note_on,360,0,3,,,,,,,,,2,,,66,0
277320,note_on,240,0,2,,,,,,,,,1,,,73,62
277320,note_on,0,0,2,,,,,,,,,1,,,78,62
277320,note_on,0,0,3,,,,,,,,,2,,,54,0
277320,note_on,0,0,3,,,,,,,,,2,,,54,75
277320,note_on,120,0,1,,,,,,,,,0,,,78,0
277320,note_on,0,0,3,,,,,,,,,2,,,66,75
277320,note_on,0,0,1,,,,,,,,,0,,,85,75
277440,note_on,120,0,1,,,,,,,,,0,,,85,0
277440,note_on,0,0,1,,,,,,,,,0,,,85,75
277440,note_on,0,0,4,,,,,,,,,3,,,45,62
277440,note_on,0,0,4,,,,,,,,,3,,,33,62
277440,note_on,0,0,4,,,,,,,,,3,,,34,0
277440,note_on,480,0,4,,,,,,,,,3,,,46,0
277440,note_on,0,0,2,,,,,,,,,1,,,73,62
277440,note_on,0,0,3,,,,,,,,,2,,,54,0
277440,note_on,0,0,3,,,,,,,,,2,,,69,101
277440,note_on,0,0,3,,,,,,,,,2,,,57,101
277440,note_on,120,0,3,,,,,,,,,2,,,66,0
277440,note_on,120,0,2,,,,,,,,,1,,,78,0
277440,note_on,0,0,2,,,,,,,,,1,,,73,0
277440,note_on,0,0,2,,,,,,,,,1,,,76,62
277560,note_on,0,0,2,,,,,,,,,1,,,73,0
277560,note_on,120,0,2,,,,,,,,,1,,,76,0
277560,note_on,120,0,1,,,,,,,,,0,,,85,0
277560,note_on,0,0,1,,,,,,,,,0,,,73,75
277620,note_on,0,0,3,,,,,,,,,2,,,67,75
277620,note_on,180,0,3,,,,,,,,,2,,,69,0
277620,note_on,0,0,3,,,,,,,,,2,,,57,0
277620,note_on,0,0,3,,,,,,,,,2,,,55,75
277680,note_on,0,0,3,,,,,,,,,2,,,55,0
277680,note_on,0,0,3,,,,,,,,,2,,,55,75
277680,note_on,60,0,3,,,,,,,,,2,,,67,0
277680,note_on,120,0,1,,,,,,,,,0,,,73,0
277680,note_on,0,0,1,,,,,,,,,0,,,76,75
277680,note_on,0,0,3,,,,,,,,,2,,,67,75
277800,note_on,0,0,2,,,,,,,,,1,,,76,62
277800,note_on,240,0,2,,,,,,,,,1,,,73,62
277800,note_on,0,0,1,,,,,,,,,0,,,85,75
277800,note_on,120,0,1,,,,,,,,,0,,,76,0
277860,note_on,0,0,3,,,,,,,,,2,,,54,75
277860,note_on,0,0,3,,,,,,,,,2,,,66,75
277860,note_on,180,0,3,,,,,,,,,2,,,67,0
277860,note_on,0,0,3,,,,,,,,,2,,,55,0
277920,note_on,120,0,2,,,,,,,,,1,,,76,0
277920,note_on,0,0,2,,,,,,,,,1,,,73,0
277920,note_on,0,0,2,,,,,,,,,1,,,73,62
277920,note_on,480,0,4,,,,,,,,,3,,,45,0
277920,note_on,0,0,4,,,,,,,,,3,,,33,0
277920,note_on,0,0,4,,,,,,,,,3,,,34,62
277920,note_on,0,0,4,,,,,,,,,3,,,46,62
277920,note_on,0,0,1,,,,,,,,,0,,,85,75
277920,note_on,0,0,2,,,,,,,,,1,,,78,62
277920,note_on,60,0,3,,,,,,,,,2,,,66,0
277920,note_on,0,0,3,,,,,,,,,2,,,54,0
277920,note_on,120,0,1,,,,,,,,,0,,,85,0
277920,note_on,0,0,3,,,,,,,,,2,,,54,75
277920,note_on,0,0,3,,,,,,,,,2,,,66,75
278040,note_on,0,0,2,,,,,,,,,1,,,73,0
278040,note_on,120,0,2,,,,,,,,,1,,,78,0
278040,note_on,0,0,1,,,,,,,,,0,,,73,75
278040,note_on,120,0,1,,,,,,,,,0,,,85,0
278160,note_on,0,0,1,,,,,,,,,0,,,78,75
278160,note_on,120,0,1,,,,,,,,,0,,,73,0
278280,note_on,120,0,1,,,,,,,,,0,,,78,0
278280,note_on,240,0,2,,,,,,,,,1,,,73,62
278280,note_on,0,0,2,,,,,,,,,1,,,78,62
278280,note_on,0,0,1,,,,,,,,,0,,,85,75
278400,note_on,0,0,3,,,,,,,,,2,,,54,0
278400,note_on,120,0,2,,,,,,,,,1,,,78,0
278400,note_on,480,0,4,,,,,,,,,3,,,46,0
278400,note_on,0,0,4,,,,,,,,,3,,,34,0
278400,note_on,0,0,4,,,,,,,,,3,,,35,62
278400,control_change,0,0,3,,,,,,,,,2,64,127,,
278400,note_on,0,0,3,,,,,,,,,2,,,64,75
278400,note_on,0,0,4,,,,,,,,,3,,,47,62
278400,note_on,120,0,1,,,,,,,,,0,,,85,0
278400,note_on,480,0,3,,,,,,,,,2,,,66,0
278400,note_on,0,0,2,,,,,,,,,1,,,78,62
278400,note_on,0,0,2,,,,,,,,,1,,,74,62
278400,note_on,0,0,2,,,,,,,,,1,,,73,0
278400,note_on,0,0,1,,,,,,,,,0,,,86,75
278520,note_on,0,0,2,,,,,,,,,1,,,74,0
278520,note_on,120,0,2,,,,,,,,,1,,,78,0
278520,note_on,120,0,1,,,,,,,,,0,,,86,0
278520,note_on,0,0,1,,,,,,,,,0,,,74,75
278520,note_on,120,0,3,,,,,,,,,2,,,64,0
278520,note_on,0,0,3,,,,,,,,,2,,,62,75
278640,note_on,120,0,1,,,,,,,,,0,,,74,0
278640,note_on,0,0,4,,,,,,,,,3,,,35,0
278640,note_on,0,0,4,,,,,,,,,3,,,38,62
278640,note_on,0,0,1,,,,,,,,,0,,,78,75
278640,note_on,0,0,4,,,,,,,,,3,,,50,62
278640,note_on,240,0,4,,,,,,,,,3,,,47,0
278640,note_on,0,0,3,,,,,,,,,2,,,54,75
278640,note_on,120,0,3,,,,,,,,,2,,,62,0
278760,note_on,120,0,3,,,,,,,,,2,,,54,0
278760,note_on,0,0,1,,,,,,,,,0,,,86,75
278760,note_on,120,0,1,,,,,,,,,0,,,78,0
278760,control_change,0,0,3,,,,,,,,,2,64,0,,
278760,note_on,0,0,3,,,,,,,,,2,,,56,75
278880,note_on,120,0,1,,,,,,,,,0,,,86,0
278880,note_on,120,0,3,,,,,,,,,2,,,56,0
278880,control_change,0,0,3,,,,,,,,,2,64,127,,
278880,note_on,0,0,3,,,,,,,,,2,,,57,75
278880,note_on,0,0,1,,,,,,,,,0,,,85,75
278880,note_on,360,0,2,,,,,,,,,1,,,73,62
278880,note_on,0,0,4,,,,,,,,,3,,,52,62
278880,note_on,0,0,4,,,,,,,,,3,,,40,62
278880,note_on,0,0,4,,,,,,,,,3,,,38,0
278880,note_on,240,0,4,,,,,,,,,3,,,50,0
279000,note_on,120,0,1,,,,,,,,,0,,,85,0
279000,note_on,0,0,2,,,,,,,,,1,,,61,62
279000,note_on,120,0,2,,,,,,,,,1,,,73,0
279000,note_on,0,0,1,,,,,,,,,0,,,73,75
279120,note_on,0,0,2,,,,,,,,,1,,,64,62
279120,note_on,240,0,3,,,,,,,,,2,,,57,0
279120,note_on,120,0,2,,,,,,,,,1,,,61,0
279120,note_on,0,0,1,,,,,,,,,0,,,76,75
279120,note_on,120,0,1,,,,,,,,,0,,,73,0
279120,note_on,0,0,3,,,,,,,,,2,,,59,75
279180,note_on,0,0,3,,,,,,,,,2,,,57,75
279180,note_on,60,0,3,,,,,,,,,2,,,59,0
279240,note_on,0,0,1,,,,,,,,,0,,,85,75
279240,note_on,120,0,2,,,,,,,,,1,,,64,0
279240,note_on,0,0,2,,,,,,,,,1,,,73,62
279240,note_on,120,0,1,,,,,,,,,0,,,76,0
279240,note_on,60,0,3,,,,,,,,,2,,,57,0
279240,note_on,0,0,3,,,,,,,,,2,,,56,75
279300,note_on,60,0,3,,,,,,,,,2,,,56,0
279300,note_on,0,0,3,,,,,,,,,2,,,57,75
279360,note_on,0,0,2,,,,,,,,,1,,,69,62
279360,note_on,120,0,2,,,,,,,,,1,,,73,0
279360,note_on,0,0,1,,,,,,,,,0,,,81,75
279360,note_on,120,0,1,,,,,,,,,0,,,85,0
279360,note_on,0,0,3,,,,,,,,,2,,,61,75
279360,note_on,60,0,3,,,,,,,,,2,,,57,0
279480,note_on,0,0,2,,,,,,,,,1,,,64,62
279480,note_on,120,0,1,,,,,,,,,0,,,81,0
279480,note_on,120,0,2,,,,,,,,,1,,,69,0
279480,note_on,0,0,1,,,,,,,,,0,,,76,75
279600,note_on,0,0,1,,,,,,,,,0,,,75,75
279600,note_on,0,0,1,,,,,,,,,0,,,78,75
279600,note_on,120,0,2,,,,,,,,,1,,,64,0
279600,note_on,0,0,2,,,,,,,,,1,,,63,62
279600,note_on,120,0,1,,,,,,,,,0,,,76,0
279600,note_on,0,0,2,,,,,,,,,1,,,66,62
279720,note_on,120,0,2,,,,,,,,,1,,,66,0
279720,note_on,0,0,2,,,,,,,,,1,,,63,0
279720,control_change,0,0,3,,,,,,,,,2,64,0,,
279720,note_on,0,0,2,,,,,,,,,1,,,68,62
279720,note_on,120,0,1,,,,,,,,,0,,,78,0
279720,note_on,0,0,1,,,,,,,,,0,,,75,0
279720,note_on,0,0,1,,,,,,,,,0,,,74,75
279720,note_on,0,0,3,,,,,,,,,2,,,59,75
279720,note_on,0,0,1,,,,,,,,,0,,,80,75
279720,note_on,360,0,3,,,,,,,,,2,,,61,0
279720,note_on,0,0,2,,,,,,,,,1,,,62,62
279840,note_on,0,0,4,,,,,,,,,3,,,40,0
279840,control_change,0,0,4,,,,,,,,,3,64,127,,
279840,note_on,0,0,4,,,,,,,,,3,,,45,62
279840,note_on,960,0,4,,,,,,,,,3,,,52,0
279840,note_on,0,0,1,,,,,,,,,0,,,81,75
279840,note_on,0,0,2,,,,,,,,,1,,,62,0
279840,note_on,120,0,1,,,,,,,,,0,,,80,0
279840,note_on,120,0,2,,,,,,,,,1,,,68,0
279840,note_on,0,0,2,,,,,,,,,1,,,61,62
279840,note_on,0,0,2,,,,,,,,,1,,,69,62
279840,note_on,0,0,3,,,,,,,,,2,,,57,75
279840,note_on,0,0,1,,,,,,,,,0,,,74,0
279840,note_on,120,0,3,,,,,,,,,2,,,59,0
279960,note_on,0,0,4,,,,,,,,,3,,,42,62
279960,note_on,120,0,4,,,,,,,,,3,,,45,0
280080,note_on,120,0,4,,,,,,,,,3,,,42,0
280080,note_on,0,0,4,,,,,,,,,3,,,40,62
280200,note_on,120,0,4,,,,,,,,,3,,,40,0
280200,note_on,0,0,4,,,,,,,,,3,,,39,62
280320,note_on,480,0,1,,,,,,,,,0,,,81,0
280320,note_on,120,0,4,,,,,,,,,3,,,39,0
280320,note_on,0,0,4,,,,,,,,,3,,,40,62
280320,note_on,0,0,2,,,,,,,,,1,,,61,0
280320,note_on,480,0,2,,,,,,,,,1,,,69,0
280320,note_on,480,0,3,,,,,,,,,2,,,57,0
280440,note_on,120,0,4,,,,,,,,,3,,,40,0
280440,note_on,0,0,4,,,,,,,,,3,,,38,62
280560,note_on,240,0,2,,,,,,,,,1,,,61,62
280560,note_on,0,0,4,,,,,,,,,3,,,37,62
280560,note_on,0,0,3,,,,,,,,,2,,,52,62
280560,note_on,0,0,3,,,,,,,,,2,,,57,62
280560,note_on,120,0,4,,,,,,,,,3,,,38,0
280560,control_change,240,0,3,,,,,,,,,2,64,127,,
280680,note_on,120,0,3,,,,,,,,,2,,,57,0
280680,note_on,120,0,2,,,,,,,,,1,,,61,0
280680,note_on,0,0,2,,,,,,,,,1,,,62,62
280680,note_on,0,0,3,,,,,,,,,2,,,52,0
280680,note_on,0,0,4,,,,,,,,,3,,,35,62
280680,note_on,0,0,3,,,,,,,,,2,,,59,62
280680,note_on,120,0,4,,,,,,,,,3,,,37,0
280680,control_change,0,0,4,,,,,,,,,3,64,0,,
280800,note_on,120,0,3,,,,,,,,,2,,,59,0
280800,note_on,0,0,3,,,,,,,,,2,,,52,62
280800,note_on,0,0,3,,,,,,,,,2,,,61,62
280800,control_change,0,0,2,,,,,,,,,1,64,127,,
280800,note_on,120,0,2,,,,,,,,,1,,,62,0
280800,control_change,0,0,4,,,,,,,,,3,64,127,,
280800,note_on,0,0,4,,,,,,,,,3,,,33,62
280800,note_on,120,0,4,,,,,,,,,3,,,35,0
280800,note_on,0,0,2,,,,,,,,,1,,,64,62
281040,note_on,0,0,3,,,,,,,,,2,,,59,62
281040,note_on,0,0,3,,,,,,,,,2,,,52,0
281040,note_on,240,0,3,,,,,,,,,2,,,61,0
281040,note_on,0,0,2,,,,,,,,,1,,,62,62
281040,note_on,240,0,2,,,,,,,,,1,,,64,0
281160,note_on,0,0,2,,,,,,,,,1,,,61,62
281160,note_on,120,0,2,,,,,,,,,1,,,62,0
281160,note_on,0,0,3,,,,,,,,,2,,,57,62
281160,control_change,0,0,3,,,,,,,,,2,64,0,,
281160,note_on,0,0,4,,,,,,,,,3,,,37,62
281160,note_on,120,0,3,,,,,,,,,2,,,59,0
281160,note_on,360,0,4,,,,,,,,,3,,,33,0
281280,note_on,0,0,3,,,,,,,,,2,,,52,62
281280,note_on,0,0,2,,,,,,,,,1,,,59,62
281280,note_on,120,0,2,,,,,,,,,1,,,61,0
281280,note_on,0,0,4,,,,,,,,,3,,,40,62
281280,control_change,0,0,3,,,,,,,,,2,64,127,,
281280,note_on,120,0,3,,,,,,,,,2,,,57,0
281280,note_on,120,0,4,,,,,,,,,3,,,37,0
281280,note_on,0,0,3,,,,,,,,,2,,,56,62
281520,control_change,0,0,2,,,,,,,,,1,64,0,,
281520,note_on,0,0,3,,,,,,,,,2,,,52,62
281520,control_change,0,0,3,,,,,,,,,2,64,0,,
281520,note_on,240,0,4,,,,,,,,,3,,,40,0
281520,note_on,0,0,4,,,,,,,,,3,,,38,62
281520,note_on,0,0,3,,,,,,,,,2,,,52,0
281520,note_on,240,0,2,,,,,,,,,1,,,59,0
281520,note_on,0,0,3,,,,,,,,,2,,,58,62
281520,note_on,0,0,2,,,,,,,,,1,,,61,62
281520,note_on,1200,0,1,,,,,,,,,0,,,78,62
281520,note_on,240,0,3,,,,,,,,,2,,,56,0
281640,note_on,0,0,4,,,,,,,,,3,,,37,62
281640,control_change,0,0,4,,,,,,,,,3,64,0,,
281640,note_on,120,0,4,,,,,,,,,3,,,38,0
281760,note_on,240,0,1,,,,,,,,,0,,,78,0
281760,note_on,0,0,1,,,,,,,,,0,,,78,62
281760,note_on,0,0,4,,,,,,,,,3,,,35,62
281760,note_on,0,0,3,,,,,,,,,2,,,59,62
281760,note_on,0,0,3,,,,,,,,,2,,,54,62
281760,note_on,0,0,3,,,,,,,,,2,,,52,0
281760,note_on,240,0,3,,,,,,,,,2,,,58,0
281760,note_on,240,0,2,,,,,,,,,1,,,61,0
281760,note_on,0,0,2,,,,,,,,,1,,,62,62
281760,note_on,120,0,4,,,,,,,,,3,,,37,0
282240,note_on,0,0,3,,,,,,,,,2,,,54,0
282240,note_on,0,0,4,,,,,,,,,3,,,42,88
282240,note_on,480,0,4,,,,,,,,,3,,,35,0
282240,note_on,0,0,1,,,,,,,,,0,,,79,88
282240,note_on,480,0,1,,,,,,,,,0,,,78,0
282240,note_on,480,0,2,,,,,,,,,1,,,62,0
282240,note_on,0,0,2,,,,,,,,,1,,,61,88
282240,note_on,0,0,3,,,,,,,,,2,,,58,88
282240,note_on,0,0,3,,,,,,,,,2,,,54,88
282240,note_on,480,0,3,,,,,,,,,2,,,59,0
282600,note_on,360,0,1,,,,,,,,,0,,,79,0
282600,note_on,0,0,1,,,,,,,,,0,,,78,62
282720,note_on,480,0,2,,,,,,,,,1,,,61,0
282720,note_on,0,0,2,,,,,,,,,1,,,62,62
282720,note_on,0,0,1,,,,,,,,,0,,,78,62
282720,control_change,0,0,4,,,,,,,,,3,64,127,,
282720,note_on,480,0,3,,,,,,,,,2,,,58,0
282720,note_on,0,0,3,,,,,,,,,2,,,54,0
282720,control_change,0,0,3,,,,,,,,,2,64,127,,
282720,note_on,0,0,3,,,,,,,,,2,,,54,62
282720,note_on,0,0,3,,,,,,,,,2,,,59,62
282720,note_on,0,0,4,,,,,,,,,3,,,35,62
282720,note_on,480,0,4,,,,,,,,,3,,,42,0
282720,note_on,120,0,1,,,,,,,,,0,,,78,0
282840,note_on,0,0,4,,,,,,,,,3,,,37,62
282840,note_on,120,0,4,,,,,,,,,3,,,35,0
282960,note_on,240,0,1,,,,,,,,,0,,,78,0
282960,note_on,0,0,2,,,,,,,,,1,,,66,62
282960,control_change,0,0,2,,,,,,,,,1,64,127,,
282960,note_on,0,0,4,,,,,,,,,3,,,38,62
282960,note_on,120,0,4,,,,,,,,,3,,,37,0
282960,note_on,240,0,2,,,,,,,,,1,,,62,0
282960,control_change,0,0,1,,,,,,,,,0,64,127,,
282960,note_on,0,0,1,,,,,,,,,0,,,71,62
283080,note_on,360,0,3,,,,,,,,,2,,,59,0
283080,note_on,0,0,1,,,,,,,,,0,,,73,62
283080,note_on,120,0,1,,,,,,,,,0,,,71,0
283080,note_on,0,0,4,,,,,,,,,3,,,40,62
283080,note_on,120,0,4,,,,,,,,,3,,,38,0
283080,note_on,0,0,3,,,,,,,,,2,,,61,62
283080,note_on,0,0,3,,,,,,,,,2,,,55,62
283080,note_on,0,0,3,,,,,,,,,2,,,54,0
283080,note_on,120,0,2,,,,,,,,,1,,,66,0
283080,note_on,0,0,2,,,,,,,,,1,,,64,62
283200,control_change,0,0,4,,,,,,,,,3,64,0,,
283200,note_on,120,0,4,,,,,,,,,3,,,40,0
283200,note_on,0,0,3,,,,,,,,,2,,,55,62
283200,note_on,0,0,3,,,,,,,,,2,,,59,62
283200,note_on,0,0,1,,,,,,,,,0,,,74,62
283200,note_on,0,0,2,,,,,,,,,1,,,62,62
283200,note_on,120,0,1,,,,,,,,,0,,,73,0
283200,note_on,0,0,4,,,,,,,,,3,,,42,62
283200,note_on,120,0,3,,,,,,,,,2,,,61,0
283200,note_on,0,0,3,,,,,,,,,2,,,55,0
283200,note_on,120,0,2,,,,,,,,,1,,,64,0
283440,control_change,0,0,2,,,,,,,,,1,64,0,,
283440,note_on,0,0,2,,,,,,,,,1,,,61,88
283440,note_on,0,0,1,,,,,,,,,0,,,76,88
283440,control_change,0,0,1,,,,,,,,,0,64,0,,
283440,note_on,240,0,2,,,,,,,,,1,,,62,0
283440,note_on,240,0,4,,,,,,,,,3,,,42,0
283440,control_change,0,0,3,,,,,,,,,2,64,0,,
283440,note_on,240,0,1,,,,,,,,,0,,,74,0
283440,note_on,0,0,4,,,,,,,,,3,,,42,88
283440,note_on,240,0,3,,,,,,,,,2,,,59,0
283440,note_on,0,0,3,,,,,,,,,2,,,55,0
283440,note_on,0,0,3,,,,,,,,,2,,,55,88
283440,note_on,0,0,3,,,,,,,,,2,,,58,88
283680,note_on,0,0,2,,,,,,,,,1,,,62,62
283680,control_change,0,0,2,,,,,,,,,1,64,127,,
283680,note_on,240,0,1,,,,,,,,,0,,,76,0
283680,control_change,0,0,1,,,,,,,,,0,64,127,,
283680,note_on,0,0,1,,,,,,,,,0,,,74,62
283680,note_on,0,0,3,,,,,,,,,2,,,59,62
283680,note_on,240,0,2,,,,,,,,,1,,,61,0
283680,note_on,240,0,4,,,,,,,,,3,,,42,0
283680,note_on,0,0,3,,,,,,,,,2,,,55,0
283680,note_on,240,0,3,,,,,,,,,2,,,58,0
283680,note_on,0,0,3,,,,,,,,,2,,,54,62
283800,control_change,120,0,4,,,,,,,,,3,64,127,,
283800,note_on,0,0,4,,,,,,,,,3,,,35,62
283920,note_on,0,0,2,,,,,,,,,1,,,64,62
283920,note_on,240,0,2,,,,,,,,,1,,,62,0
283920,note_on,0,0,1,,,,,,,,,0,,,69,62
283920,note_on,0,0,4,,,,,,,,,3,,,37,62
283920,note_on,120,0,4,,,,,,,,,3,,,35,0
283920,note_on,240,0,1,,,,,,,,,0,,,74,0
283920,note_on,0,0,3,,,,,,,,,2,,,57,62
283920,note_on,0,0,3,,,,,,,,,2,,,52,62
283920,note_on,240,0,3,,,,,,,,,2,,,59,0
283920,note_on,0,0,3,,,,,,,,,2,,,54,0
284040,note_on,0,0,3,,,,,,,,,2,,,52,0
284040,note_on,0,0,3,,,,,,,,,2,,,54,62
284040,note_on,0,0,3,,,,,,,,,2,,,59,62
284040,note_on,120,0,3,,,,,,,,,2,,,57,0
284040,note_on,0,0,2,,,,,,,,,1,,,62,62
284040,note_on,0,0,4,,,,,,,,,3,,,38,62
284040,note_on,120,0,4,,,,,,,,,3,,,37,0
284040,note_on,120,0,2,,,,,,,,,1,,,64,0
284040,note_on,120,0,1,,,,,,,,,0,,,69,0
284040,note_on,0,0,1,,,,,,,,,0,,,71,62
284160,note_on,0,0,3,,,,,,,,,2,,,52,62
284160,note_on,120,0,2,,,,,,,,,1,,,62,0
284160,note_on,120,0,3,,,,,,,,,2,,,59,0
284160,note_on,0,0,3,,,,,,,,,2,,,54,0
284160,note_on,0,0,3,,,,,,,,,2,,,57,62
284160,note_on,0,0,4,,,,,,,,,3,,,40,62
284160,control_change,0,0,4,,,,,,,,,3,64,0,,
284160,note_on,0,0,2,,,,,,,,,1,,,61,62
284160,note_on,0,0,1,,,,,,,,,0,,,73,62
284160,note_on,120,0,4,,,,,,,,,3,,,38,0
284160,note_on,120,0,1,,,,,,,,,0,,,71,0
284400,note_on,240,0,1,,,,,,,,,0,,,73,0
284400,note_on,0,0,3,,,,,,,,,2,,,56,88
284400,note_on,240,0,3,,,,,,,,,2,,,57,0
284400,note_on,0,0,4,,,,,,,,,3,,,40,88
284400,note_on,240,0,4,,,,,,,,,3,,,40,0
284400,note_on,0,0,3,,,,,,,,,2,,,53,88
284400,note_on,0,0,2,,,,,,,,,1,,,59,88
284400,note_on,240,0,2,,,,,,,,,1,,,61,0
284400,note_on,0,0,1,,,,,,,,,0,,,74,88
284400,control_change,0,0,1,,,,,,,,,0,64,0,,
284400,control_change,0,0,2,,,,,,,,,1,64,0,,
284400,note_on,0,0,3,,,,,,,,,2,,,52,0
284640,note_on,0,0,2,,,,,,,,,1,,,61,62
284640,note_on,0,0,3,,,,,,,,,2,,,52,62
284640,note_on,240,0,2,,,,,,,,,1,,,59,0
284640,note_on,0,0,3,,,,,,,,,2,,,57,62
284640,note_on,0,0,4,,,,,,,,,3,,,45,62
284640,note_on,240,0,4,,,,,,,,,3,,,40,0
284640,note_on,0,0,3,,,,,,,,,2,,,53,0
284640,note_on,0,0,1,,,,,,,,,0,,,64,62
284640,note_on,240,0,1,,,,,,,,,0,,,74,0
284640,note_on,240,0,3,,,,,,,,,2,,,56,0
284880,note_on,0,0,3,,,,,,,,,2,,,49,62
284880,note_on,0,0,3,,,,,,,,,2,,,52,62
284880,note_on,0,0,3,,,,,,,,,2,,,52,0
284880,note_on,0,0,2,,,,,,,,,1,,,57,62
284880,note_on,240,0,2,,,,,,,,,1,,,61,0
284880,note_on,240,0,1,,,,,,,,,0,,,64,0
284880,note_on,240,0,4,,,,,,,,,3,,,45,0
284880,note_on,0,0,4,,,,,,,,,3,,,37,62
284880,note_on,0,0,1,,,,,,,,,0,,,73,62
284880,note_on,240,0,3,,,,,,,,,2,,,57,0
285120,note_on,0,0,1,,,,,,,,,0,,,71,88
285120,note_on,240,0,4,,,,,,,,,3,,,37,0
285120,note_on,0,0,4,,,,,,,,,3,,,40,88
285120,note_on,240,0,2,,,,,,,,,1,,,57,0
285120,note_on,240,0,1,,,,,,,,,0,,,73,0
285120,note_on,0,0,2,,,,,,,,,1,,,59,88
285120,note_on,0,0,2,,,,,,,,,1,,,56,88
285120,note_on,240,0,3,,,,,,,,,2,,,52,0
285120,note_on,0,0,3,,,,,,,,,2,,,49,0
285120,note_on,0,0,3,,,,,,,,,2,,,50,88
285120,note_on,0,0,3,,,,,,,,,2,,,52,88
285600,note_on,0,0,2,,,,,,,,,1,,,57,62
285600,note_on,480,0,3,,,,,,,,,2,,,50,0
285600,note_on,0,0,3,,,,,,,,,2,,,49,62
285600,note_on,0,0,2,,,,,,,,,1,,,61,62
285600,note_on,0,0,4,,,,,,,,,3,,,33,62
285600,note_on,480,0,4,,,,,,,,,3,,,40,0
285600,note_on,0,0,2,,,,,,,,,1,,,56,0
285600,note_on,480,0,2,,,,,,,,,1,,,59,0
285600,note_on,480,0,1,,,,,,,,,0,,,71,0
285600,note_on,0,0,1,,,,,,,,,0,,,69,62
285840,note_on,240,0,4,,,,,,,,,3,,,33,0
285840,note_on,240,0,1,,,,,,,,,0,,,69,0
285840,note_on,0,0,1,,,,,,,,,0,,,71,62
285840,note_on,240,0,3,,,,,,,,,2,,,49,0
285840,note_on,0,0,3,,,,,,,,,2,,,52,0
285840,note_on,240,0,2,,,,,,,,,1,,,61,0
285840,note_on,0,0,2,,,,,,,,,1,,,57,0
285960,note_on,120,0,1,,,,,,,,,0,,,71,0
285960,note_on,0,0,1,,,,,,,,,0,,,73,62
286080,note_on,240,0,4,,,,,,,,,3,,,52,88
286080,note_on,120,0,1,,,,,,,,,0,,,73,0
286080,note_on,0,0,1,,,,,,,,,0,,,68,88
286080,note_on,240,0,2,,,,,,,,,1,,,62,88
286080,note_on,0,0,2,,,,,,,,,1,,,64,88
286080,note_on,0,0,1,,,,,,,,,0,,,74,88
286080,note_on,240,0,3,,,,,,,,,2,,,59,88
286560,note_on,480,0,4,,,,,,,,,3,,,45,62
286560,note_on,0,0,1,,,,,,,,,0,,,73,62
286560,note_on,0,0,1,,,,,,,,,0,,,69,62
286560,note_on,0,0,1,,,,,,,,,0,,,68,0
286560,note_on,480,0,1,,,,,,,,,0,,,74,0
286560,note_on,0,0,2,,,,,,,,,1,,,61,62
286560,note_on,480,0,2,,,,,,,,,1,,,62,0
286560,note_on,0,0,3,,,,,,,,,2,,,57,62
286560,note_on,480,0,3,,,,,,,,,2,,,59,0
286800,note_on,240,0,3,,,,,,,,,2,,,57,0
286800,note_on,0,0,2,,,,,,,,,1,,,59,62
286800,control_change,0,0,2,,,,,,,,,1,64,127,,
286800,note_on,0,0,2,,,,,,,,,1,,,64,0
286800,note_on,240,0,2,,,,,,,,,1,,,61,0
286800,note_on,240,0,1,,,,,,,,,0,,,73,0
286800,note_on,240,0,4,,,,,,,,,3,,,45,0
286800,note_on,0,0,4,,,,,,,,,3,,,52,0
286800,note_on,0,0,1,,,,,,,,,0,,,69,0
286920,note_on,120,0,2,,,,,,,,,1,,,59,0
286920,note_on,0,0,2,,,,,,,,,1,,,57,62
287040,note_on,0,0,3,,,,,,,,,2,,,52,88
287040,note_on,240,0,4,,,,,,,,,3,,,40,88
287040,note_on,240,0,3,,,,,,,,,2,,,50,88
287040,note_on,0,0,2,,,,,,,,,1,,,59,62
287040,note_on,120,0,2,,,,,,,,,1,,,57,0
287040,note_on,0,0,2,,,,,,,,,1,,,56,62
287520,note_on,0,0,4,,,,,,,,,3,,,45,49
287520,note_on,0,0,2,,,,,,,,,1,,,57,62
287520,note_on,720,0,1,,,,,,,,,0,,,69,49
287520,note_on,0,0,3,,,,,,,,,2,,,52,49
287520,note_on,0,0,3,,,,,,,,,2,,,50,0
287520,note_on,0,0,3,,,,,,,,,2,,,49,49
287520,note_on,480,0,4,,,,,,,,,3,,,40,0
287520,control_change,0,0,2,,,,,,,,,1,64,0,,
287520,note_on,0,0,2,,,,,,,,,1,,,56,0
287520,note_on,480,0,2,,,,,,,,,1,,,59,0
287520,note_on,480,0,3,,,,,,,,,2,,,52,0
287760,note_on,240,0,1,,,,,,,,,0,,,69,0
287760,note_on,240,0,3,,,,,,,,,2,,,52,0
287760,note_on,0,0,3,,,,,,,,,2,,,49,0
287760,note_on,240,0,2,,,,,,,,,1,,,57,0
287760,note_on,0,0,1,,,,,,,,,0,,,71,49
287760,note_on,240,0,4,,,,,,,,,3,,,45,0
287880,note_on,120,0,1,,,,,,,,,0,,,71,0
287880,note_on,0,0,1,,,,,,,,,0,,,73,49
287940,note_on,60,0,1,,,,,,,,,0,,,76,49
288000,note_on,240,0,3,,,,,,,,,2,,,59,75
288000,note_on,0,0,1,,,,,,,,,0,,,68,75
288000,note_on,0,0,2,,,,,,,,,1,,,64,75
288000,note_on,240,0,2,,,,,,,,,1,,,62,75
288000,note_on,240,0,4,,,,,,,,,3,,,52,75
288000,note_on,0,0,1,,,,,,,,,0,,,74,75
288000,note_on,0,0,1,,,,,,,,,0,,,73,0
288000,note_on,60,0,1,,,,,,,,,0,,,76,0
288480,note_on,0,0,1,,,,,,,,,0,,,68,0
288480,note_on,480,0,2,,,,,,,,,1,,,62,0
288480,note_on,0,0,2,,,,,,,,,1,,,61,49
288480,note_on,480,0,1,,,,,,,,,0,,,74,0
288480,note_on,480,0,4,,,,,,,,,3,,,45,49
288480,note_on,0,0,3,,,,,,,,,2,,,57,49
288480,note_on,480,0,3,,,,,,,,,2,,,59,0
288480,note_on,0,0,1,,,,,,,,,0,,,69,49
288480,note_on,0,0,1,,,,,,,,,0,,,73,49
288720,note_on,0,0,2,,,,,,,,,1,,,59,49
288720,note_on,240,0,2,,,,,,,,,1,,,61,0
288720,note_on,0,0,4,,,,,,,,,3,,,52,0
288720,note_on,240,0,4,,,,,,,,,3,,,45,0
288720,note_on,0,0,1,,,,,,,,,0,,,69,0
288720,note_on,240,0,3,,,,,,,,,2,,,57,0
288720,note_on,240,0,1,,,,,,,,,0,,,73,0
288720,note_on,0,0,2,,,,,,,,,1,,,64,0
288840,note_on,0,0,2,,,,,,,,,1,,,57,49
288840,note_on,120,0,2,,,,,,,,,1,,,59,0
288960,note_on,240,0,4,,,,,,,,,3,,,40,75
288960,note_on,0,0,2,,,,,,,,,1,,,56,75
288960,note_on,0,0,3,,,,,,,,,2,,,52,75
288960,note_on,240,0,3,,,,,,,,,2,,,50,75
288960,note_on,120,0,2,,,,,,,,,1,,,57,0
288960,note_on,0,0,2,,,,,,,,,1,,,59,75
289440,control_change,720,0,1,,,,,,,,,0,64,127,,
289440,note_on,0,0,1,,,,,,,,,0,,,64,62
289520,note_on,80,0,1,,,,,,,,,0,,,64,0
289520,note_on,0,0,1,,,,,,,,,0,,,66,62
289599,note_on,0,0,1,,,,,,,,,0,,,68,62
289599,note_on,79,0,1,,,,,,,,,0,,,66,0
289680,note_on,0,0,1,,,,,,,,,0,,,69,62
289680,note_on,81,0,1,,,,,,,,,0,,,68,0
289760,note_on,0,0,1,,,,,,,,,0,,,71,62
289760,note_on,80,0,1,,,,,,,,,0,,,69,0
289839,note_on,79,0,1,,,,,,,,,0,,,71,0
289839,note_on,0,0,1,,,,,,,,,0,,,73,62
289920,note_on,81,0,1,,,,,,,,,0,,,73,0
289920,note_on,0,0,1,,,,,,,,,0,,,74,62
290000,note_on,0,0,1,,,,,,,,,0,,,75,62
290000,note_on,80,0,1,,,,,,,,,0,,,74,0
290079,note_on,0,0,1,,,,,,,,,0,,,76,62
290079,note_on,79,0,1,,,,,,,,,0,,,75,0
290160,note_on,81,0,1,,,,,,,,,0,,,76,0
290160,note_on,0,0,1,,,,,,,,,0,,,77,62
290240,note_on,80,0,1,,,,,,,,,0,,,77,0
290240,note_on,0,0,1,,,,,,,,,0,,,78,62
290319,note_on,79,0,1,,,,,,,,,0,,,78,0
290319,control_change,0,0,1,,,,,,,,,0,64,0,,
290319,note_on,0,0,1,,,,,,,,,0,,,79,62
290400,note_on,81,0,1,,,,,,,,,0,,,79,0
290400,control_change,0,0,1,,,,,,,,,0,64,127,,
290400,note_on,0,0,1,,,,,,,,,0,,,80,62
290480,note_on,80,0,1,,,,,,,,,0,,,80,0
290480,note_on,0,0,1,,,,,,,,,0,,,76,62
290559,note_on,79,0,1,,,,,,,,,0,,,76,0
290559,note_on,0,0,1,,,,,,,,,0,,,78,62
290640,note_on,0,0,4,,,,,,,,,3,,,40,49
290640,control_change,0,0,3,,,,,,,,,2,64,127,,
290640,note_on,0,0,3,,,,,,,,,2,,,50,0
290640,note_on,0,0,1,,,,,,,,,0,,,80,62
290640,note_on,81,0,1,,,,,,,,,0,,,78,0
290640,note_on,1680,0,3,,,,,,,,,2,,,52,0
290640,note_on,0,0,3,,,,,,,,,2,,,50,49
290640,control_change,0,0,4,,,,,,,,,3,64,127,,
290640,note_on,1680,0,4,,,,,,,,,3,,,40,0
290640,note_on,0,0,3,,,,,,,,,2,,,52,49
290640,note_on,0,0,2,,,,,,,,,1,,,56,49
290640,note_on,1680,0,2,,,,,,,,,1,,,59,0
290640,note_on,0,0,2,,,,,,,,,1,,,56,0
290640,control_change,0,0,2,,,,,,,,,1,64,127,,
290640,note_on,0,0,2,,,,,,,,,1,,,59,49
290720,note_on,80,0,1,,,,,,,,,0,,,80,0
290720,note_on,0,0,1,,,,,,,,,0,,,81,62
290799,note_on,0,0,1,,,,,,,,,0,,,82,62
290799,note_on,79,0,1,,,,,,,,,0,,,81,0
290880,note_on,240,0,3,,,,,,,,,2,,,52,0
290880,note_on,0,0,3,,,,,,,,,2,,,50,49
290880,note_on,0,0,2,,,,,,,,,1,,,56,49
290880,note_on,0,0,2,,,,,,,,,1,,,59,49
290880,note_on,0,0,4,,,,,,,,,3,,,40,49
290880,note_on,0,0,3,,,,,,,,,2,,,50,0
290880,note_on,240,0,2,,,,,,,,,1,,,59,0
290880,note_on,0,0,2,,,,,,,,,1,,,56,0
290880,note_on,0,0,1,,,,,,,,,0,,,83,62
290880,note_on,81,0,1,,,,,,,,,0,,,82,0
290880,note_on,240,0,4,,,,,,,,,3,,,40,0
290880,note_on,0,0,3,,,,,,,,,2,,,52,49
290960,note_on,0,0,1,,,,,,,,,0,,,85,62
290960,note_on,80,0,1,,,,,,,,,0,,,83,0
291039,note_on,0,0,1,,,,,,,,,0,,,86,62
291039,note_on,79,0,1,,,,,,,,,0,,,85,0
291120,note_on,0,0,3,,,,,,,,,2,,,50,0
291120,note_on,240,0,3,,,,,,,,,2,,,52,0
291120,note_on,0,0,3,,,,,,,,,2,,,52,49
291120,note_on,240,0,4,,,,,,,,,3,,,40,0
291120,control_change,0,0,4,,,,,,,,,3,64,0,,
291120,note_on,0,0,4,,,,,,,,,3,,,40,49
291120,note_on,0,0,2,,,,,,,,,1,,,59,49
291120,note_on,0,0,2,,,,,,,,,1,,,56,49
291120,control_change,0,0,2,,,,,,,,,1,64,0,,
291120,control_change,0,0,3,,,,,,,,,2,64,0,,
291120,note_on,0,0,2,,,,,,,,,1,,,56,0
291120,note_on,240,0,2,,,,,,,,,1,,,59,0
291120,note_on,0,0,1,,,,,,,,,0,,,88,62
291120,note_on,0,0,3,,,,,,,,,2,,,50,49
291120,note_on,81,0,1,,,,,,,,,0,,,86,0
291200,note_on,0,0,1,,,,,,,,,0,,,90,62
291200,note_on,80,0,1,,,,,,,,,0,,,88,0
291279,note_on,0,0,1,,,,,,,,,0,,,92,62
291279,control_change,0,0,1,,,,,,,,,0,64,0,,
291279,note_on,79,0,1,,,,,,,,,0,,,90,0
291360,note_on,81,0,1,,,,,,,,,0,,,92,0
291360,note_on,0,0,3,,,,,,,,,2,,,50,0
291360,note_on,240,0,2,,,,,,,,,1,,,59,0
291360,note_on,0,0,2,,,,,,,,,1,,,56,0
291360,note_on,0,0,2,,,,,,,,,1,,,57,49
291360,note_on,240,0,3,,,,,,,,,2,,,52,0
291360,note_on,0,0,1,,,,,,,,,0,,,93,62
291360,note_on,240,0,4,,,,,,,,,3,,,40,0
291360,note_on,0,0,3,,,,,,,,,2,,,52,49
291360,note_on,0,0,3,,,,,,,,,2,,,49,49
291360,note_on,0,0,4,,,,,,,,,3,,,45,49
291600,note_on,240,0,1,,,,,,,,,0,,,93,0
291600,note_on,240,0,2,,,,,,,,,1,,,57,0
291840,note_on,0,0,3,,,,,,,,,2,,,49,0
291840,note_on,480,0,3,,,,,,,,,2,,,52,0
291840,note_on,480,0,4,,,,,,,,,3,,,45,0
292080,note_on,480,0,1,,,,,,,,,0,,,97,75
292080,note_on,480,0,2,,,,,,,,,1,,,85,75
292260,note_on,180,0,1,,,,,,,,,0,,,97,0
292260,note_on,0,0,2,,,,,,,,,1,,,86,75
292260,note_on,180,0,2,,,,,,,,,1,,,85,0
292260,note_on,0,0,1,,,,,,,,,0,,,98,75
292320,note_on,0,0,4,,,,,,,,,3,,,52,75
292320,control_change,480,0,3,,,,,,,,,2,64,127,,
292320,note_on,0,0,1,,,,,,,,,0,,,100,75
292320,note_on,60,0,2,,,,,,,,,1,,,86,0
292320,note_on,0,0,2,,,,,,,,,1,,,88,75
292320,note_on,480,0,4,,,,,,,,,3,,,45,75
292320,note_on,0,0,3,,,,,,,,,2,,,61,88
292320,note_on,60,0,1,,,,,,,,,0,,,98,0
292560,note_on,0,0,1,,,,,,,,,0,,,97,75
292560,note_on,240,0,1,,,,,,,,,0,,,100,0
292560,note_on,240,0,2,,,,,,,,,1,,,88,0
292560,note_on,0,0,2,,,,,,,,,1,,,85,75
292800,note_on,0,0,2,,,,,,,,,1,,,81,88
292800,note_on,240,0,1,,,,,,,,,0,,,97,0
292800,note_on,0,0,1,,,,,,,,,0,,,93,88
292800,note_on,240,0,2,,,,,,,,,1,,,85,0
293040,note_on,0,0,2,,,,,,,,,1,,,74,88
293040,note_on,240,0,1,,,,,,,,,0,,,93,0
293040,note_on,0,0,1,,,,,,,,,0,,,90,88
293040,note_on,0,0,2,,,,,,,,,1,,,78,88
293040,note_on,720,0,3,,,,,,,,,2,,,61,0
293040,note_on,0,0,4,,,,,,,,,3,,,45,75
293040,note_on,0,0,4,,,,,,,,,3,,,45,0
293040,note_on,0,0,2,,,,,,,,,1,,,69,88
293040,note_on,0,0,4,,,,,,,,,3,,,54,75
293040,note_on,720,0,4,,,,,,,,,3,,,52,0
293040,note_on,240,0,2,,,,,,,,,1,,,81,0
293040,note_on,0,0,3,,,,,,,,,2,,,64,88
293100,note_on,0,0,3,,,,,,,,,2,,,62,88
293100,note_on,60,0,3,,,,,,,,,2,,,64,0
293160,note_on,0,0,3,,,,,,,,,2,,,61,88
293160,note_on,60,0,3,,,,,,,,,2,,,62,0
293220,note_on,0,0,3,,,,,,,,,2,,,62,88
293220,note_on,60,0,3,,,,,,,,,2,,,61,0
293280,note_on,0,0,2,,,,,,,,,1,,,74,0
293280,note_on,0,0,2,,,,,,,,,1,,,69,0
293280,note_on,0,0,2,,,,,,,,,1,,,69,101
293280,note_on,0,0,2,,,,,,,,,1,,,73,101
293280,note_on,0,0,2,,,,,,,,,1,,,76,101
293280,note_on,0,0,4,,,,,,,,,3,,,45,0
293280,note_on,0,0,1,,,,,,,,,0,,,88,101
293280,note_on,0,0,4,,,,,,,,,3,,,57,75
293280,note_on,0,0,4,,,,,,,,,3,,,45,75
293280,note_on,240,0,2,,,,,,,,,1,,,78,0
293280,note_on,0,0,3,,,,,,,,,2,,,64,88
293280,control_change,0,0,3,,,,,,,,,2,64,0,,
293280,note_on,60,0,3,,,,,,,,,2,,,62,0
293280,note_on,240,0,1,,,,,,,,,0,,,90,0
293280,note_on,240,0,4,,,,,,,,,3,,,54,0
293520,note_on,0,0,3,,,,,,,,,2,,,61,88
293520,note_on,240,0,3,,,,,,,,,2,,,64,0
293760,note_on,480,0,4,,,,,,,,,3,,,57,0
293760,note_on,240,0,3,,,,,,,,,2,,,61,0
293760,note_on,0,0,4,,,,,,,,,3,,,45,0
293760,note_on,0,0,3,,,,,,,,,2,,,57,88
294000,note_on,0,0,1,,,,,,,,,0,,,78,88
294000,note_on,0,0,1,,,,,,,,,0,,,74,88
294000,note_on,720,0,1,,,,,,,,,0,,,88,0
294000,note_on,0,0,2,,,,,,,,,1,,,73,0
294000,note_on,0,0,2,,,,,,,,,1,,,69,0
294000,note_on,0,0,2,,,,,,,,,1,,,62,88
294000,note_on,0,0,3,,,,,,,,,2,,,54,88
294000,note_on,240,0,3,,,,,,,,,2,,,57,0
294000,note_on,0,0,2,,,,,,,,,1,,,66,88
294000,note_on,0,0,2,,,,,,,,,1,,,69,88
294000,note_on,0,0,4,,,,,,,,,3,,,42,88
294000,note_on,240,0,4,,,,,,,,,3,,,30,88
294000,note_on,720,0,2,,,,,,,,,1,,,76,0
294000,note_on,0,0,1,,,,,,,,,0,,,81,88
294017,note_on,17,0,3,,,,,,,,,2,,,54,0
294180,note_on,0,0,4,,,,,,,,,3,,,44,88
294180,note_on,180,0,4,,,,,,,,,3,,,42,0
294180,note_on,0,0,4,,,,,,,,,3,,,30,0
294180,note_on,0,0,4,,,,,,,,,3,,,32,88
294180,note_on,163,0,3,,,,,,,,,2,,,56,88
294195,note_on,15,0,3,,,,,,,,,2,,,56,0
294240,note_on,0,0,2,,,,,,,,,1,,,64,88
294240,note_on,0,0,2,,,,,,,,,1,,,73,88
294240,note_on,0,0,2,,,,,,,,,1,,,62,0
294240,note_on,60,0,4,,,,,,,,,3,,,44,0
294240,note_on,0,0,4,,,,,,,,,3,,,32,0
294240,note_on,0,0,4,,,,,,,,,3,,,33,75
294240,set_tempo,36480,1,0,,,,,,1200000,,,,,,,
294240,note_on,0,0,2,,,,,,,,,1,,,76,88
294240,note_on,0,0,3,,,,,,,,,2,,,57,75
294240,note_on,0,0,2,,,,,,,,,1,,,61,88
294240,control_change,45,0,3,,,,,,,,,2,64,127,,
294240,note_on,0,0,2,,,,,,,,,1,,,66,0
294240,note_on,240,0,1,,,,,,,,,0,,,81,0
294240,note_on,0,0,1,,,,,,,,,0,,,78,0
294240,note_on,0,0,1,,,,,,,,,0,,,74,0
294240,note_on,0,0,1,,,,,,,,,0,,,69,88
294240,note_on,0,0,4,,,,,,,,,3,,,45,75
294240,note_on,0,0,1,,,,,,,,,0,,,81,88
294240,note_on,240,0,2,,,,,,,,,1,,,69,0
294480,note_on,0,0,4,,,,,,,,,3,,,45,88
294480,note_on,0,0,4,,,,,,,,,3,,,33,88
294480,note_on,0,0,4,,,,,,,,,3,,,33,0
294480,note_on,240,0,4,,,,,,,,,3,,,45,0
294480,note_on,0,0,1,,,,,,,,,0,,,81,101
294480,note_on,0,0,1,,,,,,,,,0,,,69,101
294480,note_on,0,0,1,,,,,,,,,0,,,69,0
294480,note_on,240,0,1,,,,,,,,,0,,,81,0
294480,note_on,240,0,3,,,,,,,,,2,,,57,0
294480,note_on,0,0,3,,,,,,,,,2,,,53,88
294480,note_on,0,0,2,,,,,,,,,1,,,62,101
294480,note_on,240,0,2,,,,,,,,,1,,,76,0
294480,note_on,0,0,2,,,,,,,,,1,,,61,0
294480,note_on,0,0,2,,,,,,,,,1,,,64,0
294480,note_on,0,0,2,,,,,,,,,1,,,73,0
294480,note_on,0,0,2,,,,,,,,,1,,,74,101
294480,note_on,0,0,3,,,,,,,,,2,,,57,88
294660,note_on,0,0,2,,,,,,,,,1,,,76,101
294660,note_on,180,0,2,,,,,,,,,1,,,74,0
294660,note_on,0,0,2,,,,,,,,,1,,,62,0
294660,note_on,0,0,2,,,,,,,,,1,,,64,101
294720,note_on,0,0,3,,,,,,,,,2,,,50,88
294720,note_on,0,0,3,,,,,,,,,2,,,53,0
294720,note_on,240,0,4,,,,,,,,,3,,,45,0
294720,note_on,0,0,4,,,,,,,,,3,,,33,0
294720,note_on,0,0,3,,,,,,,,,2,,,57,88
294720,note_on,240,0,3,,,,,,,,,2,,,57,0
294720,note_on,0,0,4,,,,,,,,,3,,,33,88
294720,note_on,240,0,1,,,,,,,,,0,,,81,0
294720,note_on,0,0,1,,,,,,,,,0,,,77,101
294720,note_on,0,0,2,,,,,,,,,1,,,69,101
294720,note_on,0,0,2,,,,,,,,,1,,,65,101
294720,note_on,0,0,2,,,,,,,,,1,,,64,0
294720,note_on,60,0,2,,,,,,,,,1,,,76,0
294720,note_on,0,0,4,,,,,,,,,3,,,45,88
294720,note_on,0,0,1,,,,,,,,,0,,,81,101
294720,note_on,0,0,1,,,,,,,,,0,,,69,0
294960,note_on,0,0,1,,,,,,,,,0,,,76,88
294960,note_on,0,0,1,,,,,,,,,0,,,80,88
294960,note_on,0,0,1,,,,,,,,,0,,,86,88
294960,note_on,0,0,2,,,,,,,,,1,,,64,88
294960,note_on,0,0,4,,,,,,,,,3,,,33,75
294960,note_on,0,0,4,,,,,,,,,3,,,33,0
294960,note_on,240,0,4,,,,,,,,,3,,,45,0
294960,note_on,0,0,4,,,,,,,,,3,,,45,75
294960,note_on,0,0,1,,,,,,,,,0,,,77,0
294960,note_on,0,0,3,,,,,,,,,2,,,47,75
294960,note_on,0,0,3,,,,,,,,,2,,,57,75
294960,note_on,0,0,2,,,,,,,,,1,,,68,88
294960,control_change,0,0,3,,,,,,,,,2,64,0,,
294960,note_on,0,0,3,,,,,,,,,2,,,50,0
294960,note_on,240,0,3,,,,,,,,,2,,,57,0
294960,note_on,240,0,2,,,,,,,,,1,,,69,0
294960,note_on,0,0,2,,,,,,,,,1,,,65,0
294960,note_on,240,0,1,,,,,,,,,0,,,81,0
294960,note_on,0,0,2,,,,,,,,,1,,,74,88
295200,note_on,0,0,1,,,,,,,,,0,,,85,62
295200,note_on,0,0,4,,,,,,,,,3,,,33,0
295200,note_on,0,0,1,,,,,,,,,0,,,81,62
295200,note_on,0,0,1,,,,,,,,,0,,,76,62
295200,note_on,0,0,1,,,,,,,,,0,,,76,0
295200,note_on,0,0,1,,,,,,,,,0,,,80,0
295200,note_on,240,0,1,,,,,,,,,0,,,86,0
295200,note_on,0,0,2,,,,,,,,,1,,,68,0
295200,note_on,0,0,2,,,,,,,,,1,,,64,0
295200,note_on,0,0,2,,,,,,,,,1,,,64,62
295200,note_on,0,0,2,,,,,,,,,1,,,69,62
295200,note_on,0,0,2,,,,,,,,,1,,,73,62
295200,note_on,240,0,3,,,,,,,,,2,,,57,0
295200,note_on,0,0,3,,,,,,,,,2,,,47,0
295200,note_on,0,0,3,,,,,,,,,2,,,45,62
295200,note_on,0,0,3,,,,,,,,,2,,,57,62
295200,note_on,0,0,4,,,,,,,,,3,,,33,62
295200,note_on,240,0,4,,,,,,,,,3,,,45,0
295200,note_on,240,0,2,,,,,,,,,1,,,74,0
295680,note_on,0,0,4,,,,,,,,,3,,,33,62
295680,note_on,480,0,4,,,,,,,,,3,,,33,0
295680,note_on,0,0,3,,,,,,,,,2,,,49,62
295680,note_on,0,0,4,,,,,,,,,3,,,45,62
295680,note_on,0,0,3,,,,,,,,,2,,,57,62
295680,control_change,0,0,1,,,,,,,,,0,64,127,,
295680,note_on,0,0,1,,,,,,,,,0,,,69,62
295680,note_on,0,0,1,,,,,,,,,0,,,76,0
295680,note_on,0,0,1,,,,,,,,,0,,,81,0
295680,note_on,480,0,1,,,,,,,,,0,,,85,0
295680,note_on,480,0,2,,,,,,,,,1,,,73,0
295680,note_on,0,0,2,,,,,,,,,1,,,69,0
295680,note_on,0,0,2,,,,,,,,,1,,,64,0
295680,note_on,0,0,3,,,,,,,,,2,,,52,62
295680,note_on,0,0,2,,,,,,,,,1,,,64,62
295680,note_on,0,0,2,,,,,,,,,1,,,69,62
295680,note_on,0,0,2,,,,,,,,,1,,,61,62
295680,note_on,0,0,3,,,,,,,,,2,,,45,0
295680,note_on,480,0,3,,,,,,,,,2,,,57,0
295760,note_on,80,0,1,,,,,,,,,0,,,69,0
295760,note_on,0,0,1,,,,,,,,,0,,,73,62
295839,note_on,79,0,1,,,,,,,,,0,,,73,0
295839,note_on,0,0,1,,,,,,,,,0,,,76,62
295920,note_on,81,0,1,,,,,,,,,0,,,76,0
295920,note_on,0,0,1,,,,,,,,,0,,,81,62
296000,note_on,80,0,1,,,,,,,,,0,,,81,0
296000,note_on,0,0,1,,,,,,,,,0,,,85,62
296079,control_change,0,0,1,,,,,,,,,0,64,0,,
296079,note_on,79,0,1,,,,,,,,,0,,,85,0
296079,note_on,0,0,1,,,,,,,,,0,,,88,62
296160,note_on,0,0,2,,,,,,,,,1,,,64,0
296160,note_on,0,0,4,,,,,,,,,3,,,33,0
296160,note_on,0,0,4,,,,,,,,,3,,,33,62
296160,note_on,0,0,4,,,,,,,,,3,,,40,62
296160,note_on,0,0,4,,,,,,,,,3,,,45,62
296160,note_on,0,0,3,,,,,,,,,2,,,57,62
296160,note_on,0,0,3,,,,,,,,,2,,,52,62
296160,note_on,480,0,2,,,,,,,,,1,,,69,0
296160,note_on,0,0,2,,,,,,,,,1,,,69,62
296160,note_on,0,0,3,,,,,,,,,2,,,49,62
296160,note_on,0,0,3,,,,,,,,,2,,,49,0
296160,note_on,0,0,3,,,,,,,,,2,,,52,0
296160,note_on,480,0,3,,,,,,,,,2,,,57,0
296160,note_on,0,0,2,,,,,,,,,1,,,61,62
296160,note_on,0,0,1,,,,,,,,,0,,,92,62
296160,control_change,0,0,1,,,,,,,,,0,64,127,,
296160,note_on,81,0,1,,,,,,,,,0,,,88,0
296160,note_on,0,0,2,,,,,,,,,1,,,64,62
296160,note_on,0,0,2,,,,,,,,,1,,,61,0
296160,note_on,480,0,4,,,,,,,,,3,,,45,0
296190,note_on,30,0,1,,,,,,,,,0,,,92,0
296190,note_on,0,0,1,,,,,,,,,0,,,93,62
296220,note_on,30,0,1,,,,,,,,,0,,,93,0
296220,note_on,0,0,1,,,,,,,,,0,,,95,62
296250,note_on,30,0,1,,,,,,,,,0,,,95,0
296250,note_on,0,0,1,,,,,,,,,0,,,93,62
296280,note_on,30,0,1,,,,,,,,,0,,,93,0
296280,note_on,0,0,1,,,,,,,,,0,,,95,62
296310,note_on,30,0,1,,,,,,,,,0,,,95,0
296310,note_on,0,0,1,,,,,,,,,0,,,93,62
296340,note_on,0,0,1,,,,,,,,,0,,,95,62
296340,note_on,30,0,1,,,,,,,,,0,,,93,0
296370,note_on,30,0,1,,,,,,,,,0,,,95,0
296370,note_on,0,0,1,,,,,,,,,0,,,93,62
296400,note_on,0,0,1,,,,,,,,,0,,,95,62
296400,note_on,30,0,1,,,,,,,,,0,,,93,0
296430,note_on,0,0,1,,,,,,,,,0,,,93,62
296430,note_on,30,0,1,,,,,,,,,0,,,95,0
296460,note_on,0,0,1,,,,,,,,,0,,,95,62
296460,note_on,30,0,1,,,,,,,,,0,,,93,0
296490,note_on,30,0,1,,,,,,,,,0,,,95,0
296490,note_on,0,0,1,,,,,,,,,0,,,93,62
296520,note_on,30,0,1,,,,,,,,,0,,,93,0
296520,note_on,0,0,1,,,,,,,,,0,,,95,62
296550,note_on,30,0,1,,,,,,,,,0,,,95,0
296550,note_on,0,0,1,,,,,,,,,0,,,93,62
296580,note_on,30,0,1,,,,,,,,,0,,,93,0
296580,note_on,0,0,1,,,,,,,,,0,,,95,62
296610,note_on,30,0,1,,,,,,,,,0,,,95,0
296610,note_on,0,0,1,,,,,,,,,0,,,93,62
296640,note_on,30,0,1,,,,,,,,,0,,,93,0
296640,note_on,0,0,1,,,,,,,,,0,,,95,62
296670,note_on,30,0,1,,,,,,,,,0,,,95,0
296670,note_on,0,0,1,,,,,,,,,0,,,93,62
296700,note_on,30,0,1,,,,,,,,,0,,,93,0
296700,note_on,0,0,1,,,,,,,,,0,,,95,62
296730,note_on,30,0,1,,,,,,,,,0,,,95,0
296730,note_on,0,0,1,,,,,,,,,0,,,93,62
296760,note_on,30,0,1,,,,,,,,,0,,,93,0
296760,note_on,0,0,1,,,,,,,,,0,,,95,62
296790,note_on,30,0,1,,,,,,,,,0,,,95,0
296790,note_on,0,0,1,,,,,,,,,0,,,93,62
296820,note_on,30,0,1,,,,,,,,,0,,,93,0
296820,note_on,0,0,1,,,,,,,,,0,,,95,62
296850,note_on,0,0,1,,,,,,,,,0,,,93,62
296850,note_on,30,0,1,,,,,,,,,0,,,95,0
296880,note_on,30,0,1,,,,,,,,,0,,,93,0
296880,note_on,0,0,1,,,,,,,,,0,,,95,62
296910,note_on,0,0,1,,,,,,,,,0,,,93,62
296910,note_on,30,0,1,,,,,,,,,0,,,95,0
296940,note_on,30,0,1,,,,,,,,,0,,,93,0
296940,note_on,0,0,1,,,,,,,,,0,,,95,62
296970,note_on,30,0,1,,,,,,,,,0,,,95,0
296970,note_on,0,0,1,,,,,,,,,0,,,93,62
297000,note_on,30,0,1,,,,,,,,,0,,,93,0
297000,note_on,0,0,1,,,,,,,,,0,,,95,62
297030,note_on,0,0,1,,,,,,,,,0,,,93,62
297030,note_on,30,0,1,,,,,,,,,0,,,95,0
297060,note_on,30,0,1,,,,,,,,,0,,,93,0
297060,note_on,0,0,1,,,,,,,,,0,,,95,62
297090,note_on,0,0,1,,,,,,,,,0,,,93,62
297090,note_on,30,0,1,,,,,,,,,0,,,95,0
297120,note_on,0,0,1,,,,,,,,,0,,,92,62
297120,note_on,30,0,1,,,,,,,,,0,,,93,0
297120,end_of_track,0,1,0,,,,,,,,,,,,,
297120,time_signature,2880,1,0,4,4,24,8,,,,,,,,,
297240,note_on,0,0,1,,,,,,,,,0,,,93,62
297240,note_on,120,0,1,,,,,,,,,0,,,92,0
297360,note_on,0,0,1,,,,,,,,,0,,,95,62
297360,note_on,120,0,1,,,,,,,,,0,,,93,0
297480,note_on,0,0,1,,,,,,,,,0,,,93,62
297480,note_on,120,0,1,,,,,,,,,0,,,95,0
298440,control_change,960,0,1,,,,,,,,,0,64,0,,
298920,note_on,480,0,1,,,,,,,,,0,,,93,0
298920,end_of_track,0,1,1,,,,,,,,,,,,,
299040,note_on,0,0,4,,,,,,,,,3,,,40,0
299040,note_on,2880,0,4,,,,,,,,,3,,,45,0
299040,note_on,0,0,2,,,,,,,,,1,,,61,0
299040,end_of_track,0,1,2,,,,,,,,,,,,,
299040,end_of_track,0,1,3,,,,,,,,,,,,,
299040,note_on,0,0,3,,,,,,,,,2,,,49,0
299040,note_on,0,0,3,,,,,,,,,2,,,52,0
299040,note_on,2880,0,3,,,,,,,,,2,,,57,0
299040,note_on,2880,0,2,,,,,,,,,1,,,69,0
299040,note_on,0,0,2,,,,,,,,,1,,,64,0
299040,note_on,0,0,4,,,,,,,,,3,,,33,0
299040,end_of_track,0,1,4,,,,,,,,,,,,,
