tick,type,time,meta,track,numerator,denominator,clocks_per_click,notated_32nd_notes_per_beat,key,tempo,port,program,channel,control,value,note,velocity
0,track_name,0,1,0,,,,,,,,,,,,,
0,control_change,0,0,2,,,,,,,,,1,10,97,,
0,control_change,0,0,2,,,,,,,,,1,7,127,,
0,track_name,0,1,2,,,,,,,,,,,,,
0,midi_port,0,1,2,,,,,,,0,,,,,,
0,midi_port,0,1,4,,,,,,,0,,,,,,
0,track_name,0,1,4,,,,,,,,,,,,,
0,program_change,0,0,4,,,,,,,,0,3,,,,
0,control_change,0,0,4,,,,,,,,,3,7,127,,
0,note_on,0,0,2,,,,,,,,,1,,,57,36
0,control_change,0,0,4,,,,,,,,,3,10,30,,
0,note_on,0,0,4,,,,,,,,,3,,,48,36
0,midi_port,0,1,1,,,,,,,0,,,,,,
0,track_name,0,1,1,,,,,,,,,,,,,
0,program_change,0,0,1,,,,,,,,0,0,,,,
0,control_change,0,0,1,,,,,,,,,0,7,127,,
0,control_change,0,0,1,,,,,,,,,0,10,97,,
0,control_change,0,0,1,,,,,,,,,0,64,127,,
0,note_on,0,0,1,,,,,,,,,0,,,60,49
0,note_on,0,0,4,,,,,,,,,3,,,41,36
0,note_on,0,0,2,,,,,,,,,1,,,60,36
0,program_change,0,0,2,,,,,,,,0,1,,,,
0,control_change,0,0,3,,,,,,,,,2,10,30,,
0,copyright,0,1,0,,,,,,,,,,,,,
0,text,0,1,0,,,,,,,,,,,,,
0,time_signature,0,1,0,4,4,24,8,,,,,,,,,
0,key_signature,0,1,0,,,,,F,,,,,,,,
0,set_tempo,0,1,0,,,,,,555556,,,,,,,
0,midi_port,0,1,3,,,,,,,0,,,,,,
0,track_name,0,1,3,,,,,,,,,,,,,
0,program_change,0,0,3,,,,,,,,0,2,,,,
0,control_change,0,0,3,,,,,,,,,2,7,127,,
0,control_change,0,0,3,,,,,,,,,2,64,127,,
0,note_on,0,0,3,,,,,,,,,2,,,48,36
180,note_on,180,0,1,,,,,,,,,0,,,60,0
180,note_on,0,0,1,,,,,,,,,0,,,65,49
180,note_on,0,0,3,,,,,,,,,2,,,53,36
180,note_on,180,0,3,,,,,,,,,2,,,48,0
240,note_on,60,0,3,,,,,,,,,2,,,53,0
240,note_on,0,0,3,,,,,,,,,2,,,57,36
240,note_on,240,0,4,,,,,,,,,3,,,48,0
240,note_on,0,0,1,,,,,,,,,0,,,69,49
240,note_on,60,0,1,,,,,,,,,0,,,65,0
240,note_on,240,0,2,,,,,,,,,1,,,60,0
240,note_on,0,0,2,,,,,,,,,1,,,57,0
240,note_on,0,0,4,,,,,,,,,3,,,41,0
360,note_on,120,0,1,,,,,,,,,0,,,69,0
360,control_change,0,0,1,,,,,,,,,0,64,0,,
360,note_on,120,0,3,,,,,,,,,2,,,57,0
360,control_change,0,0,3,,,,,,,,,2,64,0,,
360,note_on,0,0,3,,,,,,,,,2,,,62,36
360,note_on,0,0,1,,,,,,,,,0,,,74,49
480,note_on,0,0,3,,,,,,,,,2,,,60,36
480,note_on,240,0,4,,,,,,,,,3,,,40,36
480,control_change,0,0,3,,,,,,,,,2,64,127,,
480,note_on,0,0,4,,,,,,,,,3,,,55,36
480,note_on,120,0,3,,,,,,,,,2,,,62,0
480,note_on,0,0,4,,,,,,,,,3,,,48,36
480,note_on,0,0,1,,,,,,,,,0,,,72,49
480,note_on,240,0,2,,,,,,,,,1,,,67,36
480,note_on,120,0,1,,,,,,,,,0,,,74,0
480,control_change,0,0,1,,,,,,,,,0,64,127,,
660,note_on,180,0,3,,,,,,,,,2,,,60,0
660,note_on,0,0,3,,,,,,,,,2,,,58,36
660,note_on,180,0,1,,,,,,,,,0,,,72,0
660,note_on,0,0,1,,,,,,,,,0,,,70,49
720,note_on,240,0,2,,,,,,,,,1,,,67,0
720,note_on,0,0,4,,,,,,,,,3,,,40,0
720,note_on,0,0,4,,,,,,,,,3,,,48,0
720,note_on,240,0,4,,,,,,,,,3,,,55,0
720,note_on,0,0,1,,,,,,,,,0,,,67,49
720,note_on,60,0,1,,,,,,,,,0,,,70,0
720,note_on,60,0,3,,,,,,,,,2,,,58,0
720,note_on,0,0,3,,,,,,,,,2,,,55,36
840,note_on,120,0,1,,,,,,,,,0,,,67,0
840,note_on,120,0,3,,,,,,,,,2,,,55,0
840,control_change,0,0,3,,,,,,,,,2,64,0,,
840,note_on,0,0,3,,,,,,,,,2,,,57,36
840,control_change,0,0,1,,,,,,,,,0,64,0,,
840,note_on,0,0,1,,,,,,,,,0,,,69,49
960,note_on,120,0,1,,,,,,,,,0,,,69,0
960,note_on,0,0,1,,,,,,,,,0,,,53,49
960,note_on,0,0,1,,,,,,,,,0,,,57,49
960,note_on,0,0,1,,,,,,,,,0,,,65,49
960,note_on,0,0,3,,,,,,,,,2,,,50,36
960,note_on,0,0,3,,,,,,,,,2,,,45,36
960,note_on,0,0,3,,,,,,,,,2,,,38,36
960,note_on,120,0,3,,,,,,,,,2,,,57,0
1200,note_on,0,0,1,,,,,,,,,0,,,70,49
1200,note_on,240,0,1,,,,,,,,,0,,,65,0
1200,note_on,0,0,1,,,,,,,,,0,,,57,0
1200,note_on,0,0,1,,,,,,,,,0,,,53,0
1200,note_on,0,0,1,,,,,,,,,0,,,58,49
1200,note_on,0,0,1,,,,,,,,,0,,,60,49
1200,note_on,0,0,3,,,,,,,,,2,,,38,0
1200,note_on,240,0,3,,,,,,,,,2,,,50,0
1200,note_on,0,0,3,,,,,,,,,2,,,45,0
1200,note_on,0,0,3,,,,,,,,,2,,,40,36
1200,note_on,0,0,3,,,,,,,,,2,,,48,36
1200,note_on,0,0,3,,,,,,,,,2,,,52,36
1200,note_on,0,0,1,,,,,,,,,0,,,67,49
1440,note_on,0,0,3,,,,,,,,,2,,,48,36
1440,note_on,0,0,3,,,,,,,,,2,,,41,36
1440,note_on,240,0,3,,,,,,,,,2,,,52,0
1440,note_on,0,0,3,,,,,,,,,2,,,48,0
1440,note_on,0,0,3,,,,,,,,,2,,,53,36
1440,note_on,0,0,3,,,,,,,,,2,,,40,0
1440,note_on,0,0,1,,,,,,,,,0,,,57,49
1440,note_on,0,0,1,,,,,,,,,0,,,58,0
1440,note_on,240,0,1,,,,,,,,,0,,,70,0
1440,note_on,0,0,1,,,,,,,,,0,,,67,0
1440,note_on,0,0,1,,,,,,,,,0,,,65,49
1440,note_on,0,0,1,,,,,,,,,0,,,69,49
1500,note_on,0,0,1,,,,,,,,,0,,,65,0
1500,note_on,60,0,3,,,,,,,,,2,,,53,0
1500,note_on,0,0,3,,,,,,,,,2,,,48,0
1500,note_on,0,0,3,,,,,,,,,2,,,41,0
1500,note_on,0,0,1,,,,,,,,,0,,,57,0
1500,note_on,0,0,1,,,,,,,,,0,,,60,0
1500,note_on,60,0,1,,,,,,,,,0,,,69,0
1560,control_change,60,0,3,,,,,,,,,2,64,127,,
1560,control_change,60,0,1,,,,,,,,,0,64,127,,
1560,note_on,0,0,3,,,,,,,,,2,,,48,36
1560,note_on,0,0,1,,,,,,,,,0,,,60,36
1650,note_on,0,0,1,,,,,,,,,0,,,61,36
1650,note_on,90,0,1,,,,,,,,,0,,,60,0
1650,note_on,90,0,3,,,,,,,,,2,,,48,0
1650,note_on,0,0,3,,,,,,,,,2,,,49,36
1665,note_on,15,0,3,,,,,,,,,2,,,49,0
1665,note_on,0,0,3,,,,,,,,,2,,,48,36
1672,note_on,22,0,1,,,,,,,,,0,,,60,36
1673,note_on,1,0,1,,,,,,,,,0,,,61,0
1680,note_on,15,0,3,,,,,,,,,2,,,48,0
1680,note_on,0,0,3,,,,,,,,,2,,,47,62
1687,note_on,0,0,1,,,,,,,,,0,,,59,62
1687,note_on,14,0,1,,,,,,,,,0,,,60,0
1770,control_change,0,0,3,,,,,,,,,2,64,0,,
1770,note_on,90,0,3,,,,,,,,,2,,,47,0
1770,note_on,0,0,3,,,,,,,,,2,,,48,36
1777,note_on,90,0,1,,,,,,,,,0,,,59,0
1777,note_on,0,0,1,,,,,,,,,0,,,60,36
1777,control_change,0,0,1,,,,,,,,,0,64,0,,
1785,note_on,15,0,3,,,,,,,,,2,,,48,0
1785,note_on,0,0,3,,,,,,,,,2,,,49,36
1792,note_on,0,0,1,,,,,,,,,0,,,61,36
1792,note_on,15,0,1,,,,,,,,,0,,,60,0
1800,note_on,0,0,3,,,,,,,,,2,,,48,36
1800,note_on,15,0,3,,,,,,,,,2,,,49,0
1807,note_on,15,0,1,,,,,,,,,0,,,61,0
1807,note_on,0,0,1,,,,,,,,,0,,,60,36
1860,note_on,60,0,3,,,,,,,,,2,,,48,0
1867,note_on,60,0,1,,,,,,,,,0,,,60,0
1920,control_change,53,0,1,,,,,,,,,0,64,127,,
1920,note_on,0,0,2,,,,,,,,,1,,,60,36
1920,note_on,1200,0,4,,,,,,,,,3,,,41,36
1920,note_on,0,0,4,,,,,,,,,3,,,48,36
1920,note_on,0,0,1,,,,,,,,,0,,,60,49
1920,control_change,60,0,3,,,,,,,,,2,64,127,,
1920,note_on,1200,0,2,,,,,,,,,1,,,57,36
1920,note_on,0,0,3,,,,,,,,,2,,,48,36
2100,note_on,0,0,3,,,,,,,,,2,,,53,36
2100,note_on,180,0,1,,,,,,,,,0,,,60,0
2100,note_on,180,0,3,,,,,,,,,2,,,48,0
2100,note_on,0,0,1,,,,,,,,,0,,,65,49
2160,note_on,0,0,3,,,,,,,,,2,,,57,36
2160,note_on,60,0,3,,,,,,,,,2,,,53,0
2160,note_on,0,0,4,,,,,,,,,3,,,41,0
2160,note_on,0,0,1,,,,,,,,,0,,,69,49
2160,note_on,0,0,2,,,,,,,,,1,,,57,0
2160,note_on,240,0,2,,,,,,,,,1,,,60,0
2160,note_on,60,0,1,,,,,,,,,0,,,65,0
2160,note_on,240,0,4,,,,,,,,,3,,,48,0
2280,control_change,0,0,3,,,,,,,,,2,64,0,,
2280,note_on,0,0,3,,,,,,,,,2,,,62,36
2280,note_on,0,0,4,,,,,,,,,3,,,50,36
2280,note_on,120,0,4,,,,,,,,,3,,,41,36
2280,note_on,120,0,3,,,,,,,,,2,,,57,0
2280,note_on,120,0,2,,,,,,,,,1,,,62,36
2280,note_on,120,0,1,,,,,,,,,0,,,69,0
2280,control_change,0,0,1,,,,,,,,,0,64,0,,
2280,note_on,0,0,1,,,,,,,,,0,,,69,49
2280,note_on,0,0,1,,,,,,,,,0,,,74,49
2400,note_on,0,0,3,,,,,,,,,2,,,50,36
2400,note_on,120,0,2,,,,,,,,,1,,,62,0
2400,note_on,120,0,4,,,,,,,,,3,,,50,0
2400,note_on,0,0,4,,,,,,,,,3,,,41,0
2400,note_on,0,0,3,,,,,,,,,2,,,41,36
2400,note_on,0,0,3,,,,,,,,,2,,,57,36
2400,note_on,120,0,3,,,,,,,,,2,,,62,0
2400,note_on,0,0,2,,,,,,,,,1,,,69,36
2400,control_change,0,0,1,,,,,,,,,0,64,127,,
2400,note_on,0,0,1,,,,,,,,,0,,,74,62
2400,note_on,0,0,1,,,,,,,,,0,,,62,62
2400,note_on,0,0,1,,,,,,,,,0,,,69,0
2400,note_on,120,0,1,,,,,,,,,0,,,74,0
2400,note_on,0,0,2,,,,,,,,,1,,,62,36
2580,note_on,0,0,1,,,,,,,,,0,,,65,62
2580,note_on,0,0,1,,,,,,,,,0,,,77,62
2580,note_on,180,0,1,,,,,,,,,0,,,74,0
2580,note_on,0,0,1,,,,,,,,,0,,,62,0
2640,note_on,240,0,2,,,,,,,,,1,,,69,0
2640,note_on,0,0,2,,,,,,,,,1,,,62,0
2640,note_on,0,0,3,,,,,,,,,2,,,50,0
2640,note_on,0,0,3,,,,,,,,,2,,,41,0
2640,note_on,0,0,1,,,,,,,,,0,,,81,75
2640,note_on,0,0,1,,,,,,,,,0,,,65,0
2640,note_on,60,0,1,,,,,,,,,0,,,77,0
2640,note_on,240,0,3,,,,,,,,,2,,,57,0
2640,note_on,0,0,1,,,,,,,,,0,,,69,75
2760,note_on,120,0,3,,,,,,,,,2,,,57,62
2760,note_on,0,0,3,,,,,,,,,2,,,64,62
2760,note_on,0,0,3,,,,,,,,,2,,,67,62
2760,note_on,0,0,1,,,,,,,,,0,,,73,75
2760,control_change,0,0,1,,,,,,,,,0,64,0,,
2760,note_on,0,0,1,,,,,,,,,0,,,82,75
2760,note_on,0,0,1,,,,,,,,,0,,,70,75
2760,note_on,0,0,1,,,,,,,,,0,,,69,0
2760,note_on,120,0,1,,,,,,,,,0,,,81,0
2880,note_on,0,0,3,,,,,,,,,2,,,57,75
2880,note_on,0,0,3,,,,,,,,,2,,,67,75
2880,note_on,0,0,3,,,,,,,,,2,,,57,0
2880,note_on,0,0,3,,,,,,,,,2,,,64,75
2880,note_on,120,0,3,,,,,,,,,2,,,67,0
2880,note_on,0,0,1,,,,,,,,,0,,,82,88
2880,note_on,0,0,1,,,,,,,,,0,,,73,88
2880,note_on,0,0,1,,,,,,,,,0,,,70,0
2880,note_on,0,0,1,,,,,,,,,0,,,73,0
2880,note_on,120,0,1,,,,,,,,,0,,,82,0
2880,note_on,0,0,3,,,,,,,,,2,,,64,0
2880,note_on,0,0,1,,,,,,,,,0,,,70,88
3120,note_on,0,0,1,,,,,,,,,0,,,69,49
3120,note_on,0,0,1,,,,,,,,,0,,,81,49
3120,note_on,0,0,1,,,,,,,,,0,,,70,0
3120,note_on,0,0,1,,,,,,,,,0,,,73,0
3120,note_on,0,0,1,,,,,,,,,0,,,72,49
3120,note_on,240,0,1,,,,,,,,,0,,,82,0
3120,note_on,0,0,3,,,,,,,,,2,,,65,36
3120,note_on,240,0,3,,,,,,,,,2,,,67,0
3120,note_on,0,0,3,,,,,,,,,2,,,64,0
3240,note_on,0,0,3,,,,,,,,,2,,,60,36
3240,note_on,0,0,1,,,,,,,,,0,,,72,49
3240,note_on,0,0,1,,,,,,,,,0,,,70,49
3240,note_on,0,0,1,,,,,,,,,0,,,69,0
3240,note_on,0,0,1,,,,,,,,,0,,,72,0
3240,note_on,120,0,1,,,,,,,,,0,,,81,0
3240,note_on,0,0,3,,,,,,,,,2,,,64,36
3240,note_on,120,0,3,,,,,,,,,2,,,65,0
3240,note_on,0,0,3,,,,,,,,,2,,,57,0
3240,note_on,0,0,1,,,,,,,,,0,,,79,49
3360,note_on,0,0,1,,,,,,,,,0,,,77,49
3360,note_on,0,0,1,,,,,,,,,0,,,72,0
3360,note_on,0,0,1,,,,,,,,,0,,,70,0
3360,note_on,0,0,1,,,,,,,,,0,,,69,49
3360,note_on,120,0,1,,,,,,,,,0,,,79,0
3360,note_on,0,0,3,,,,,,,,,2,,,65,36
3360,note_on,120,0,3,,,,,,,,,2,,,64,0
3360,note_on,0,0,3,,,,,,,,,2,,,53,36
3360,note_on,0,0,1,,,,,,,,,0,,,72,49
3420,note_on,60,0,1,,,,,,,,,0,,,77,0
3420,note_on,0,0,1,,,,,,,,,0,,,72,0
3420,note_on,0,0,1,,,,,,,,,0,,,69,0
3420,note_on,0,0,3,,,,,,,,,2,,,60,0
3420,note_on,0,0,3,,,,,,,,,2,,,53,0
3420,note_on,60,0,3,,,,,,,,,2,,,65,0
3480,control_change,60,0,1,,,,,,,,,0,64,127,,
3480,note_on,0,0,1,,,,,,,,,0,,,60,36
3480,note_on,0,0,3,,,,,,,,,2,,,48,36
3480,control_change,60,0,3,,,,,,,,,2,64,127,,
3570,note_on,90,0,1,,,,,,,,,0,,,60,0
3570,note_on,0,0,1,,,,,,,,,0,,,61,36
3570,note_on,0,0,3,,,,,,,,,2,,,49,36
3570,note_on,90,0,3,,,,,,,,,2,,,48,0
3585,note_on,15,0,3,,,,,,,,,2,,,49,0
3585,note_on,0,0,3,,,,,,,,,2,,,48,36
3592,note_on,22,0,1,,,,,,,,,0,,,60,36
3593,note_on,1,0,1,,,,,,,,,0,,,61,0
3600,note_on,15,0,3,,,,,,,,,2,,,48,0
3600,note_on,0,0,3,,,,,,,,,2,,,47,62
3607,note_on,0,0,1,,,,,,,,,0,,,59,62
3607,note_on,14,0,1,,,,,,,,,0,,,60,0
3690,note_on,0,0,3,,,,,,,,,2,,,48,36
3690,control_change,0,0,3,,,,,,,,,2,64,0,,
3690,note_on,90,0,3,,,,,,,,,2,,,47,0
3697,control_change,0,0,1,,,,,,,,,0,64,0,,
3697,note_on,90,0,1,,,,,,,,,0,,,59,0
3697,note_on,0,0,1,,,,,,,,,0,,,60,36
3705,note_on,15,0,3,,,,,,,,,2,,,48,0
3705,note_on,0,0,3,,,,,,,,,2,,,49,36
3712,note_on,0,0,1,,,,,,,,,0,,,61,36
3712,note_on,15,0,1,,,,,,,,,0,,,60,0
3720,note_on,15,0,3,,,,,,,,,2,,,49,0
3720,note_on,0,0,3,,,,,,,,,2,,,48,36
3727,note_on,15,0,1,,,,,,,,,0,,,61,0
3727,note_on,0,0,1,,,,,,,,,0,,,60,36
3780,note_on,60,0,3,,,,,,,,,2,,,48,0
3787,note_on,60,0,1,,,,,,,,,0,,,60,0
3840,note_on,1200,0,2,,,,,,,,,1,,,55,36
3840,note_on,0,0,3,,,,,,,,,2,,,48,36
3840,control_change,60,0,3,,,,,,,,,2,64,127,,
3840,note_on,0,0,4,,,,,,,,,3,,,48,36
3840,control_change,53,0,1,,,,,,,,,0,64,127,,
3840,note_on,0,0,1,,,,,,,,,0,,,60,49
3840,note_on,1440,0,4,,,,,,,,,3,,,40,36
4020,note_on,180,0,3,,,,,,,,,2,,,48,0
4020,note_on,0,0,3,,,,,,,,,2,,,52,36
4020,note_on,180,0,1,,,,,,,,,0,,,60,0
4020,note_on,0,0,1,,,,,,,,,0,,,64,49
4080,note_on,240,0,4,,,,,,,,,3,,,48,0
4080,note_on,60,0,1,,,,,,,,,0,,,64,0
4080,note_on,0,0,1,,,,,,,,,0,,,67,49
4080,note_on,0,0,4,,,,,,,,,3,,,40,0
4080,note_on,0,0,3,,,,,,,,,2,,,55,36
4080,note_on,60,0,3,,,,,,,,,2,,,52,0
4080,note_on,240,0,2,,,,,,,,,1,,,55,0
4200,note_on,0,0,3,,,,,,,,,2,,,55,36
4200,control_change,0,0,3,,,,,,,,,2,64,0,,
4200,note_on,120,0,3,,,,,,,,,2,,,55,0
4200,note_on,0,0,3,,,,,,,,,2,,,49,36
4200,note_on,0,0,3,,,,,,,,,2,,,40,36
4200,control_change,0,0,1,,,,,,,,,0,64,0,,
4200,note_on,120,0,1,,,,,,,,,0,,,67,0
4200,note_on,0,0,1,,,,,,,,,0,,,70,49
4200,note_on,0,0,1,,,,,,,,,0,,,61,49
4200,note_on,0,0,1,,,,,,,,,0,,,58,49
4320,note_on,120,0,3,,,,,,,,,2,,,55,0
4320,note_on,0,0,3,,,,,,,,,2,,,49,0
4320,note_on,0,0,3,,,,,,,,,2,,,40,0
4320,control_change,0,0,3,,,,,,,,,2,64,127,,
4320,note_on,0,0,3,,,,,,,,,2,,,50,36
4320,note_on,0,0,1,,,,,,,,,0,,,62,75
4320,note_on,240,0,2,,,,,,,,,1,,,58,36
4320,note_on,240,0,4,,,,,,,,,3,,,41,36
4320,note_on,120,0,1,,,,,,,,,0,,,70,0
4320,note_on,0,0,1,,,,,,,,,0,,,61,0
4320,control_change,0,0,1,,,,,,,,,0,64,127,,
4320,note_on,0,0,1,,,,,,,,,0,,,58,0
4500,note_on,0,0,3,,,,,,,,,2,,,53,49
4500,note_on,180,0,3,,,,,,,,,2,,,50,0
4500,note_on,180,0,1,,,,,,,,,0,,,62,0
4500,note_on,0,0,1,,,,,,,,,0,,,65,62
4560,note_on,240,0,2,,,,,,,,,1,,,58,0
4560,note_on,60,0,3,,,,,,,,,2,,,53,0
4560,note_on,0,0,1,,,,,,,,,0,,,70,62
4560,note_on,60,0,1,,,,,,,,,0,,,65,0
4560,note_on,240,0,4,,,,,,,,,3,,,41,0
4560,note_on,0,0,3,,,,,,,,,2,,,58,49
4680,note_on,0,0,3,,,,,,,,,2,,,50,62
4680,control_change,0,0,3,,,,,,,,,2,64,0,,
4680,note_on,0,0,3,,,,,,,,,2,,,58,62
4680,note_on,120,0,3,,,,,,,,,2,,,58,0
4680,note_on,120,0,1,,,,,,,,,0,,,70,0
4680,control_change,0,0,1,,,,,,,,,0,64,0,,
4680,note_on,0,0,1,,,,,,,,,0,,,62,75
4680,note_on,0,0,1,,,,,,,,,0,,,65,75
4680,note_on,0,0,1,,,,,,,,,0,,,70,75
4680,note_on,0,0,1,,,,,,,,,0,,,74,75
4800,control_change,0,0,3,,,,,,,,,2,64,127,,
4800,note_on,120,0,1,,,,,,,,,0,,,74,0
4800,note_on,0,0,1,,,,,,,,,0,,,62,0
4800,note_on,0,0,1,,,,,,,,,0,,,65,0
4800,note_on,0,0,3,,,,,,,,,2,,,50,75
4800,note_on,0,0,1,,,,,,,,,0,,,70,0
4800,note_on,0,0,1,,,,,,,,,0,,,75,88
4800,control_change,0,0,1,,,,,,,,,0,64,127,,
4800,note_on,0,0,3,,,,,,,,,2,,,60,75
4800,note_on,0,0,3,,,,,,,,,2,,,57,75
4800,note_on,120,0,3,,,,,,,,,2,,,58,0
4800,note_on,0,0,3,,,,,,,,,2,,,50,0
4800,note_on,0,0,1,,,,,,,,,0,,,66,88
4800,note_on,0,0,1,,,,,,,,,0,,,63,88
5040,note_on,0,0,3,,,,,,,,,2,,,58,75
5040,note_on,0,0,3,,,,,,,,,2,,,57,0
5040,note_on,240,0,3,,,,,,,,,2,,,60,0
5040,note_on,0,0,1,,,,,,,,,0,,,65,88
5040,note_on,0,0,1,,,,,,,,,0,,,74,88
5040,note_on,0,0,1,,,,,,,,,0,,,62,88
5040,note_on,0,0,1,,,,,,,,,0,,,63,0
5040,note_on,0,0,1,,,,,,,,,0,,,66,0
5040,note_on,240,0,1,,,,,,,,,0,,,75,0
5160,note_on,0,0,1,,,,,,,,,0,,,72,75
5160,note_on,0,0,1,,,,,,,,,0,,,65,75
5160,note_on,0,0,1,,,,,,,,,0,,,60,75
5160,note_on,0,0,1,,,,,,,,,0,,,62,0
5160,note_on,0,0,1,,,,,,,,,0,,,65,0
5160,note_on,120,0,1,,,,,,,,,0,,,74,0
5160,note_on,0,0,3,,,,,,,,,2,,,45,62
5160,note_on,120,0,3,,,,,,,,,2,,,58,0
5160,note_on,0,0,3,,,,,,,,,2,,,50,0
5160,control_change,0,0,1,,,,,,,,,0,64,0,,
5160,note_on,0,0,3,,,,,,,,,2,,,57,62
5160,control_change,0,0,3,,,,,,,,,2,64,0,,
5280,control_change,0,0,3,,,,,,,,,2,64,127,,
5280,control_change,0,0,1,,,,,,,,,0,64,127,,
5280,note_on,0,0,1,,,,,,,,,0,,,73,101
5280,note_on,120,0,3,,,,,,,,,2,,,57,0
5280,note_on,0,0,3,,,,,,,,,2,,,45,0
5280,note_on,0,0,3,,,,,,,,,2,,,45,78
5280,note_on,0,0,3,,,,,,,,,2,,,55,83
5280,note_on,0,0,1,,,,,,,,,0,,,64,96
5280,note_on,0,0,3,,,,,,,,,2,,,58,88
5280,note_on,120,0,1,,,,,,,,,0,,,72,0
5280,note_on,0,0,1,,,,,,,,,0,,,60,0
5280,note_on,0,0,1,,,,,,,,,0,,,65,0
5280,note_on,0,0,1,,,,,,,,,0,,,61,91
5520,note_on,0,0,1,,,,,,,,,0,,,72,75
5520,note_on,0,0,1,,,,,,,,,0,,,65,75
5520,note_on,0,0,3,,,,,,,,,2,,,57,62
5520,note_on,0,0,3,,,,,,,,,2,,,55,0
5520,note_on,240,0,3,,,,,,,,,2,,,58,0
5520,note_on,0,0,1,,,,,,,,,0,,,60,75
5520,note_on,0,0,1,,,,,,,,,0,,,61,0
5520,note_on,0,0,1,,,,,,,,,0,,,64,0
5520,note_on,240,0,1,,,,,,,,,0,,,73,0
5640,note_on,0,0,1,,,,,,,,,0,,,60,0
5640,note_on,0,0,1,,,,,,,,,0,,,65,0
5640,note_on,120,0,1,,,,,,,,,0,,,72,0
5640,note_on,0,0,3,,,,,,,,,2,,,53,36
5640,control_change,0,0,1,,,,,,,,,0,64,0,,
5640,note_on,0,0,1,,,,,,,,,0,,,69,49
5640,note_on,0,0,1,,,,,,,,,0,,,57,49
5640,note_on,120,0,3,,,,,,,,,2,,,57,0
5640,note_on,0,0,3,,,,,,,,,2,,,45,0
5640,control_change,0,0,3,,,,,,,,,2,64,0,,
5640,note_on,0,0,3,,,,,,,,,2,,,41,36
5640,note_on,0,0,3,,,,,,,,,2,,,48,36
5640,note_on,0,0,1,,,,,,,,,0,,,65,49
5760,note_on,120,0,1,,,,,,,,,0,,,69,0
5760,note_on,0,0,1,,,,,,,,,0,,,65,0
5760,note_on,0,0,1,,,,,,,,,0,,,72,75
5760,note_on,0,0,4,,,,,,,,,3,,,48,57
5760,note_on,0,0,4,,,,,,,,,3,,,55,62
5760,note_on,1200,0,2,,,,,,,,,1,,,67,62
5760,note_on,0,0,1,,,,,,,,,0,,,57,0
5760,control_change,0,0,1,,,,,,,,,0,64,127,,
5760,note_on,1200,0,4,,,,,,,,,3,,,40,52
5760,control_change,0,0,3,,,,,,,,,2,64,127,,
5760,note_on,0,0,3,,,,,,,,,2,,,60,62
5760,note_on,0,0,3,,,,,,,,,2,,,41,0
5760,note_on,0,0,3,,,,,,,,,2,,,48,0
5760,note_on,120,0,3,,,,,,,,,2,,,53,0
5940,note_on,0,0,3,,,,,,,,,2,,,58,36
5940,note_on,180,0,3,,,,,,,,,2,,,60,0
5940,note_on,180,0,1,,,,,,,,,0,,,72,0
5940,note_on,0,0,1,,,,,,,,,0,,,70,49
6000,note_on,60,0,3,,,,,,,,,2,,,58,0
6000,note_on,240,0,2,,,,,,,,,1,,,67,0
6000,note_on,0,0,4,,,,,,,,,3,,,40,0
6000,note_on,0,0,4,,,,,,,,,3,,,48,0
6000,note_on,240,0,4,,,,,,,,,3,,,55,0
6000,note_on,60,0,1,,,,,,,,,0,,,70,0
6000,note_on,0,0,1,,,,,,,,,0,,,67,49
6000,note_on,0,0,3,,,,,,,,,2,,,55,36
6120,note_on,0,0,1,,,,,,,,,0,,,69,49
6120,note_on,0,0,3,,,,,,,,,2,,,57,36
6120,control_change,0,0,3,,,,,,,,,2,64,0,,
6120,note_on,120,0,3,,,,,,,,,2,,,55,0
6120,note_on,120,0,1,,,,,,,,,0,,,67,0
6120,control_change,0,0,1,,,,,,,,,0,64,0,,
6240,note_on,0,0,1,,,,,,,,,0,,,57,49
6240,note_on,0,0,1,,,,,,,,,0,,,65,49
6240,note_on,120,0,3,,,,,,,,,2,,,57,0
6240,note_on,0,0,3,,,,,,,,,2,,,38,36
6240,note_on,120,0,1,,,,,,,,,0,,,69,0
6240,note_on,0,0,3,,,,,,,,,2,,,45,36
6240,note_on,0,0,3,,,,,,,,,2,,,50,36
6240,note_on,0,0,1,,,,,,,,,0,,,53,49
6480,note_on,0,0,1,,,,,,,,,0,,,53,0
6480,note_on,0,0,3,,,,,,,,,2,,,45,0
6480,note_on,240,0,3,,,,,,,,,2,,,50,0
6480,note_on,0,0,3,,,,,,,,,2,,,38,0
6480,note_on,0,0,1,,,,,,,,,0,,,64,70
6480,note_on,0,0,3,,,,,,,,,2,,,48,62
6480,note_on,0,0,1,,,,,,,,,0,,,58,65
6480,note_on,0,0,1,,,,,,,,,0,,,57,0
6480,note_on,0,0,1,,,,,,,,,0,,,67,75
6480,note_on,0,0,3,,,,,,,,,2,,,36,54
6480,note_on,240,0,1,,,,,,,,,0,,,65,0
6720,note_on,0,0,1,,,,,,,,,0,,,64,0
6720,note_on,0,0,1,,,,,,,,,0,,,58,0
6720,note_on,0,0,1,,,,,,,,,0,,,57,49
6720,note_on,0,0,1,,,,,,,,,0,,,65,49
6720,note_on,0,0,1,,,,,,,,,0,,,69,49
6720,note_on,240,0,1,,,,,,,,,0,,,67,0
6720,note_on,240,0,3,,,,,,,,,2,,,36,0
6720,note_on,0,0,3,,,,,,,,,2,,,41,36
6780,note_on,60,0,3,,,,,,,,,2,,,41,0
6780,note_on,0,0,3,,,,,,,,,2,,,48,0
6780,note_on,0,0,1,,,,,,,,,0,,,57,0
6780,note_on,60,0,1,,,,,,,,,0,,,69,0
6780,note_on,0,0,1,,,,,,,,,0,,,65,0
6840,note_on,0,0,1,,,,,,,,,0,,,60,36
6840,control_change,60,0,3,,,,,,,,,2,64,127,,
6840,note_on,0,0,3,,,,,,,,,2,,,48,36
6840,control_change,60,0,1,,,,,,,,,0,64,127,,
6930,note_on,90,0,3,,,,,,,,,2,,,48,0
6930,note_on,0,0,1,,,,,,,,,0,,,61,36
6930,note_on,90,0,1,,,,,,,,,0,,,60,0
6930,note_on,0,0,3,,,,,,,,,2,,,49,36
6945,note_on,0,0,3,,,,,,,,,2,,,48,36
6945,note_on,15,0,3,,,,,,,,,2,,,49,0
6952,note_on,22,0,1,,,,,,,,,0,,,60,36
6953,note_on,1,0,1,,,,,,,,,0,,,61,0
6960,note_on,0,0,3,,,,,,,,,2,,,47,62
6960,note_on,15,0,3,,,,,,,,,2,,,48,0
6967,note_on,14,0,1,,,,,,,,,0,,,60,0
6967,note_on,0,0,1,,,,,,,,,0,,,59,62
7050,note_on,90,0,3,,,,,,,,,2,,,47,0
7050,control_change,0,0,3,,,,,,,,,2,64,0,,
7050,note_on,0,0,3,,,,,,,,,2,,,48,36
7057,note_on,90,0,1,,,,,,,,,0,,,59,0
7057,control_change,0,0,1,,,,,,,,,0,64,0,,
7057,note_on,0,0,1,,,,,,,,,0,,,60,36
7065,note_on,0,0,3,,,,,,,,,2,,,49,36
7065,note_on,15,0,3,,,,,,,,,2,,,48,0
7072,note_on,15,0,1,,,,,,,,,0,,,60,0
7072,note_on,0,0,1,,,,,,,,,0,,,61,36
7080,note_on,0,0,3,,,,,,,,,2,,,48,36
7080,note_on,15,0,3,,,,,,,,,2,,,49,0
7087,note_on,0,0,1,,,,,,,,,0,,,60,36
7087,note_on,15,0,1,,,,,,,,,0,,,61,0
7140,note_on,60,0,3,,,,,,,,,2,,,48,0
7147,note_on,60,0,1,,,,,,,,,0,,,60,0
7200,note_on,0,0,1,,,,,,,,,0,,,84,75
7200,control_change,53,0,1,,,,,,,,,0,64,127,,
7200,note_on,1200,0,4,,,,,,,,,3,,,52,52
7200,note_on,0,0,4,,,,,,,,,3,,,60,57
7200,note_on,0,0,4,,,,,,,,,3,,,67,62
7200,note_on,1200,0,2,,,,,,,,,1,,,79,62
7200,note_on,0,0,3,,,,,,,,,2,,,72,62
7200,control_change,60,0,3,,,,,,,,,2,64,127,,
7380,note_on,180,0,1,,,,,,,,,0,,,84,0
7380,note_on,0,0,3,,,,,,,,,2,,,70,36
7380,note_on,180,0,3,,,,,,,,,2,,,72,0
7380,note_on,0,0,1,,,,,,,,,0,,,82,49
7440,note_on,240,0,2,,,,,,,,,1,,,79,0
7440,note_on,0,0,4,,,,,,,,,3,,,52,0
7440,note_on,0,0,4,,,,,,,,,3,,,60,0
7440,note_on,0,0,1,,,,,,,,,0,,,79,49
7440,note_on,60,0,1,,,,,,,,,0,,,82,0
7440,note_on,240,0,4,,,,,,,,,3,,,67,0
7440,note_on,60,0,3,,,,,,,,,2,,,70,0
7440,note_on,0,0,3,,,,,,,,,2,,,67,36
7560,note_on,0,0,1,,,,,,,,,0,,,81,49
7560,note_on,0,0,3,,,,,,,,,2,,,69,36
7560,note_on,120,0,1,,,,,,,,,0,,,79,0
7560,control_change,0,0,1,,,,,,,,,0,64,0,,
7560,control_change,0,0,3,,,,,,,,,2,64,0,,
7560,note_on,120,0,3,,,,,,,,,2,,,67,0
7680,note_on,0,0,3,,,,,,,,,2,,,57,36
7680,note_on,0,0,3,,,,,,,,,2,,,62,36
7680,note_on,0,0,1,,,,,,,,,0,,,65,49
7680,note_on,120,0,1,,,,,,,,,0,,,81,0
7680,note_on,120,0,3,,,,,,,,,2,,,69,0
7680,note_on,0,0,3,,,,,,,,,2,,,50,36
7680,note_on,0,0,1,,,,,,,,,0,,,69,49
7680,note_on,0,0,1,,,,,,,,,0,,,77,49
7920,note_on,240,0,1,,,,,,,,,0,,,77,0
7920,note_on,0,0,1,,,,,,,,,0,,,69,0
7920,note_on,0,0,1,,,,,,,,,0,,,65,0
7920,note_on,0,0,1,,,,,,,,,0,,,67,65
7920,note_on,0,0,1,,,,,,,,,0,,,76,70
7920,note_on,0,0,1,,,,,,,,,0,,,79,75
7920,note_on,0,0,3,,,,,,,,,2,,,60,62
7920,note_on,240,0,3,,,,,,,,,2,,,62,0
7920,note_on,0,0,3,,,,,,,,,2,,,57,0
7920,note_on,0,0,3,,,,,,,,,2,,,50,0
7920,note_on,0,0,3,,,,,,,,,2,,,48,52
7920,note_on,0,0,3,,,,,,,,,2,,,58,57
8160,note_on,0,0,1,,,,,,,,,0,,,76,0
8160,note_on,0,0,3,,,,,,,,,2,,,57,36
8160,note_on,0,0,1,,,,,,,,,0,,,67,0
8160,note_on,0,0,3,,,,,,,,,2,,,48,0
8160,note_on,0,0,3,,,,,,,,,2,,,53,36
8160,note_on,240,0,1,,,,,,,,,0,,,79,0
8160,note_on,0,0,1,,,,,,,,,0,,,77,49
8160,note_on,0,0,1,,,,,,,,,0,,,65,49
8160,note_on,240,0,3,,,,,,,,,2,,,58,0
8220,note_on,60,0,3,,,,,,,,,2,,,57,0
8220,note_on,0,0,3,,,,,,,,,2,,,53,0
8220,note_on,0,0,3,,,,,,,,,2,,,60,0
8220,note_on,60,0,1,,,,,,,,,0,,,77,0
8220,note_on,0,0,1,,,,,,,,,0,,,65,0
8280,note_on,0,0,1,,,,,,,,,0,,,72,36
8280,control_change,60,0,1,,,,,,,,,0,64,127,,
8280,control_change,60,0,3,,,,,,,,,2,64,127,,
8280,note_on,0,0,3,,,,,,,,,2,,,60,36
8370,note_on,90,0,1,,,,,,,,,0,,,72,0
8370,note_on,0,0,3,,,,,,,,,2,,,61,36
8370,note_on,90,0,3,,,,,,,,,2,,,60,0
8370,note_on,0,0,1,,,,,,,,,0,,,73,36
8385,note_on,0,0,3,,,,,,,,,2,,,60,36
8385,note_on,15,0,3,,,,,,,,,2,,,61,0
8392,note_on,22,0,1,,,,,,,,,0,,,72,36
8393,note_on,1,0,1,,,,,,,,,0,,,73,0
8400,note_on,0,0,3,,,,,,,,,2,,,59,62
8400,note_on,15,0,3,,,,,,,,,2,,,60,0
8407,note_on,14,0,1,,,,,,,,,0,,,72,0
8407,note_on,0,0,1,,,,,,,,,0,,,71,62
8490,note_on,0,0,3,,,,,,,,,2,,,60,36
8490,note_on,90,0,3,,,,,,,,,2,,,59,0
8490,control_change,0,0,3,,,,,,,,,2,64,0,,
8497,control_change,0,0,1,,,,,,,,,0,64,0,,
8497,note_on,0,0,1,,,,,,,,,0,,,72,36
8497,note_on,90,0,1,,,,,,,,,0,,,71,0
8505,note_on,15,0,3,,,,,,,,,2,,,60,0
8505,note_on,0,0,3,,,,,,,,,2,,,61,36
8512,note_on,0,0,1,,,,,,,,,0,,,73,36
8512,note_on,15,0,1,,,,,,,,,0,,,72,0
8520,note_on,15,0,3,,,,,,,,,2,,,61,0
8520,note_on,0,0,3,,,,,,,,,2,,,60,36
8527,note_on,15,0,1,,,,,,,,,0,,,73,0
8527,note_on,0,0,1,,,,,,,,,0,,,72,36
8580,note_on,60,0,3,,,,,,,,,2,,,60,0
8587,note_on,60,0,1,,,,,,,,,0,,,72,0
8760,control_change,173,0,1,,,,,,,,,0,64,127,,
8760,note_on,0,0,1,,,,,,,,,0,,,65,49
8760,control_change,180,0,3,,,,,,,,,2,64,127,,
8760,note_on,0,0,3,,,,,,,,,2,,,53,36
8850,note_on,0,0,3,,,,,,,,,2,,,54,36
8850,note_on,90,0,3,,,,,,,,,2,,,53,0
8850,note_on,90,0,1,,,,,,,,,0,,,65,0
8850,note_on,0,0,1,,,,,,,,,0,,,66,49
8865,note_on,0,0,3,,,,,,,,,2,,,53,36
8865,note_on,15,0,1,,,,,,,,,0,,,66,0
8865,note_on,0,0,1,,,,,,,,,0,,,65,49
8865,note_on,15,0,3,,,,,,,,,2,,,54,0
8880,note_on,15,0,3,,,,,,,,,2,,,53,0
8880,note_on,15,0,1,,,,,,,,,0,,,65,0
8880,note_on,0,0,3,,,,,,,,,2,,,52,36
8880,note_on,0,0,1,,,,,,,,,0,,,64,49
8880,control_change,0,0,3,,,,,,,,,2,64,0,,
8880,control_change,0,0,1,,,,,,,,,0,64,0,,
8970,note_on,0,0,3,,,,,,,,,2,,,53,36
8970,note_on,90,0,1,,,,,,,,,0,,,64,0
8970,note_on,0,0,1,,,,,,,,,0,,,65,49
8970,note_on,90,0,3,,,,,,,,,2,,,52,0
8985,note_on,15,0,3,,,,,,,,,2,,,53,0
8985,note_on,0,0,3,,,,,,,,,2,,,54,36
8985,control_change,0,0,1,,,,,,,,,0,64,127,,
8985,note_on,15,0,1,,,,,,,,,0,,,65,0
8985,note_on,0,0,1,,,,,,,,,0,,,66,49
9000,note_on,0,0,3,,,,,,,,,2,,,53,36
9000,note_on,15,0,3,,,,,,,,,2,,,54,0
9000,note_on,15,0,1,,,,,,,,,0,,,66,0
9000,note_on,0,0,1,,,,,,,,,0,,,65,49
9000,control_change,0,0,3,,,,,,,,,2,64,127,,
9090,note_on,0,0,1,,,,,,,,,0,,,63,49
9090,note_on,0,0,3,,,,,,,,,2,,,51,36
9090,note_on,90,0,3,,,,,,,,,2,,,53,0
9090,note_on,90,0,1,,,,,,,,,0,,,65,0
9105,control_change,0,0,3,,,,,,,,,2,64,0,,
9105,note_on,15,0,3,,,,,,,,,2,,,51,0
9105,note_on,0,0,3,,,,,,,,,2,,,49,36
9105,note_on,15,0,1,,,,,,,,,0,,,63,0
9105,control_change,0,0,1,,,,,,,,,0,64,0,,
9105,note_on,0,0,1,,,,,,,,,0,,,61,49
9120,note_on,0,0,3,,,,,,,,,2,,,48,49
9120,note_on,15,0,3,,,,,,,,,2,,,49,0
9120,note_on,0,0,1,,,,,,,,,0,,,60,62
9120,note_on,15,0,1,,,,,,,,,0,,,61,0
9210,note_on,90,0,3,,,,,,,,,2,,,48,0
9210,control_change,0,0,3,,,,,,,,,2,64,127,,
9210,note_on,0,0,3,,,,,,,,,2,,,49,49
9210,note_on,0,0,1,,,,,,,,,0,,,61,62
9210,control_change,0,0,1,,,,,,,,,0,64,127,,
9210,note_on,90,0,1,,,,,,,,,0,,,60,0
9225,note_on,0,0,3,,,,,,,,,2,,,51,49
9225,note_on,15,0,3,,,,,,,,,2,,,49,0
9225,note_on,15,0,1,,,,,,,,,0,,,61,0
9225,note_on,0,0,1,,,,,,,,,0,,,63,62
9240,note_on,15,0,3,,,,,,,,,2,,,51,0
9240,note_on,15,0,1,,,,,,,,,0,,,63,0
9240,note_on,0,0,1,,,,,,,,,0,,,61,75
9240,note_on,0,0,3,,,,,,,,,2,,,49,62
9330,note_on,90,0,3,,,,,,,,,2,,,49,0
9330,note_on,0,0,1,,,,,,,,,0,,,60,75
9330,note_on,0,0,3,,,,,,,,,2,,,48,62
9330,note_on,90,0,1,,,,,,,,,0,,,61,0
9345,note_on,15,0,3,,,,,,,,,2,,,48,0
9345,note_on,0,0,1,,,,,,,,,0,,,58,75
9345,note_on,0,0,3,,,,,,,,,2,,,46,75
9345,note_on,15,0,1,,,,,,,,,0,,,60,0
9360,note_on,0,0,1,,,,,,,,,0,,,57,88
9360,control_change,0,0,1,,,,,,,,,0,64,0,,
9360,note_on,15,0,1,,,,,,,,,0,,,58,0
9360,note_on,0,0,3,,,,,,,,,2,,,45,75
9360,control_change,0,0,3,,,,,,,,,2,64,0,,
9360,note_on,15,0,3,,,,,,,,,2,,,46,0
9450,note_on,90,0,1,,,,,,,,,0,,,57,0
9450,note_on,0,0,3,,,,,,,,,2,,,46,75
9450,note_on,90,0,3,,,,,,,,,2,,,45,0
9450,note_on,0,0,1,,,,,,,,,0,,,58,88
9465,note_on,15,0,1,,,,,,,,,0,,,58,0
9465,note_on,0,0,3,,,,,,,,,2,,,48,75
9465,note_on,0,0,1,,,,,,,,,0,,,60,88
9465,note_on,15,0,3,,,,,,,,,2,,,46,0
9480,note_on,15,0,1,,,,,,,,,0,,,60,0
9480,note_on,0,0,1,,,,,,,,,0,,,58,101
9480,note_on,15,0,3,,,,,,,,,2,,,48,0
9480,note_on,0,0,3,,,,,,,,,2,,,46,88
9570,note_on,0,0,3,,,,,,,,,2,,,44,88
9570,note_on,90,0,3,,,,,,,,,2,,,46,0
9570,note_on,90,0,1,,,,,,,,,0,,,58,0
9570,note_on,0,0,1,,,,,,,,,0,,,56,101
9585,note_on,0,0,3,,,,,,,,,2,,,42,88
9585,note_on,15,0,3,,,,,,,,,2,,,44,0
9585,note_on,0,0,1,,,,,,,,,0,,,54,101
9585,note_on,15,0,1,,,,,,,,,0,,,56,0
9600,note_on,0,0,3,,,,,,,,,2,,,44,101
9600,note_on,0,0,3,,,,,,,,,2,,,49,101
9600,note_on,15,0,3,,,,,,,,,2,,,42,0
9600,note_on,15,0,1,,,,,,,,,0,,,54,0
9600,control_change,0,0,1,,,,,,,,,0,64,127,,
9600,note_on,0,0,1,,,,,,,,,0,,,53,114
9600,note_on,0,0,1,,,,,,,,,0,,,56,114
9600,note_on,0,0,1,,,,,,,,,0,,,61,114
9600,note_on,0,0,3,,,,,,,,,2,,,41,101
9840,note_on,0,0,1,,,,,,,,,0,,,56,114
9840,note_on,0,0,3,,,,,,,,,2,,,44,0
9840,note_on,0,0,3,,,,,,,,,2,,,41,0
9840,note_on,0,0,1,,,,,,,,,0,,,56,0
9840,note_on,0,0,3,,,,,,,,,2,,,37,101
9840,note_on,0,0,1,,,,,,,,,0,,,53,114
9840,note_on,0,0,1,,,,,,,,,0,,,61,114
9840,note_on,240,0,1,,,,,,,,,0,,,61,0
9840,note_on,0,0,1,,,,,,,,,0,,,53,0
9840,note_on,240,0,3,,,,,,,,,2,,,49,0
9879,note_on,0,0,1,,,,,,,,,0,,,65,114
9879,note_on,0,0,1,,,,,,,,,0,,,61,114
9879,note_on,39,0,1,,,,,,,,,0,,,56,114
9880,note_on,0,0,1,,,,,,,,,0,,,56,0
9880,note_on,0,0,1,,,,,,,,,0,,,53,0
9880,note_on,1,0,1,,,,,,,,,0,,,61,0
9919,note_on,0,0,1,,,,,,,,,0,,,65,0
9919,note_on,0,0,1,,,,,,,,,0,,,61,0
9919,note_on,39,0,1,,,,,,,,,0,,,56,0
9920,note_on,0,0,1,,,,,,,,,0,,,65,114
9920,note_on,0,0,1,,,,,,,,,0,,,61,114
9920,note_on,1,0,1,,,,,,,,,0,,,56,114
9924,note_on,4,0,1,,,,,,,,,0,,,65,0
9924,note_on,0,0,1,,,,,,,,,0,,,61,0
9924,note_on,0,0,1,,,,,,,,,0,,,56,0
9960,note_on,36,0,1,,,,,,,,,0,,,61,114
9960,note_on,0,0,1,,,,,,,,,0,,,65,114
9960,note_on,0,0,1,,,,,,,,,0,,,68,114
9999,note_on,39,0,1,,,,,,,,,0,,,65,114
9999,note_on,0,0,1,,,,,,,,,0,,,68,114
9999,note_on,0,0,1,,,,,,,,,0,,,73,114
10000,note_on,0,0,1,,,,,,,,,0,,,61,0
10000,note_on,0,0,1,,,,,,,,,0,,,65,0
10000,note_on,1,0,1,,,,,,,,,0,,,68,0
10039,note_on,0,0,1,,,,,,,,,0,,,68,0
10039,note_on,0,0,1,,,,,,,,,0,,,73,0
10039,note_on,39,0,1,,,,,,,,,0,,,65,0
10040,note_on,0,0,1,,,,,,,,,0,,,73,114
10040,note_on,0,0,1,,,,,,,,,0,,,68,114
10040,note_on,0,0,1,,,,,,,,,0,,,65,114
10040,control_change,1,0,1,,,,,,,,,0,64,0,,
10044,note_on,0,0,1,,,,,,,,,0,,,68,0
10044,note_on,4,0,1,,,,,,,,,0,,,73,0
10044,note_on,0,0,1,,,,,,,,,0,,,65,0
10080,note_on,240,0,3,,,,,,,,,2,,,37,0
10080,control_change,0,0,3,,,,,,,,,2,64,127,,
10080,note_on,0,0,3,,,,,,,,,2,,,32,101
10080,note_on,36,0,1,,,,,,,,,0,,,73,114
10080,note_on,0,0,2,,,,,,,,,1,,,68,101
10080,note_on,2640,0,2,,,,,,,,,1,,,63,101
10119,note_on,39,0,3,,,,,,,,,2,,,39,101
10120,note_on,1,0,3,,,,,,,,,2,,,32,0
10159,note_on,39,0,3,,,,,,,,,2,,,39,0
10160,note_on,1,0,3,,,,,,,,,2,,,39,101
10164,note_on,4,0,3,,,,,,,,,2,,,39,0
10200,note_on,0,0,3,,,,,,,,,2,,,39,101
10200,control_change,36,0,3,,,,,,,,,2,64,0,,
10200,note_on,0,0,1,,,,,,,,,0,,,72,114
10200,note_on,120,0,1,,,,,,,,,0,,,73,0
10239,note_on,39,0,3,,,,,,,,,2,,,44,101
10240,note_on,1,0,3,,,,,,,,,2,,,39,0
10279,note_on,39,0,3,,,,,,,,,2,,,44,0
10280,note_on,1,0,3,,,,,,,,,2,,,44,101
10284,note_on,4,0,3,,,,,,,,,2,,,44,0
10320,note_on,120,0,1,,,,,,,,,0,,,72,0
10320,note_on,0,0,1,,,,,,,,,0,,,53,114
10320,note_on,0,0,1,,,,,,,,,0,,,58,114
10320,note_on,0,0,1,,,,,,,,,0,,,61,114
10320,note_on,36,0,3,,,,,,,,,2,,,46,101
10320,note_on,240,0,2,,,,,,,,,1,,,68,0
10320,note_on,0,0,2,,,,,,,,,1,,,63,0
10320,control_change,0,0,1,,,,,,,,,0,64,127,,
10359,note_on,39,0,1,,,,,,,,,0,,,58,114
10359,note_on,0,0,1,,,,,,,,,0,,,61,114
10359,note_on,0,0,1,,,,,,,,,0,,,65,114
10360,note_on,1,0,1,,,,,,,,,0,,,61,0
10360,note_on,0,0,1,,,,,,,,,0,,,53,0
10360,note_on,0,0,1,,,,,,,,,0,,,58,0
10399,note_on,39,0,1,,,,,,,,,0,,,58,0
10399,note_on,0,0,1,,,,,,,,,0,,,61,0
10399,note_on,0,0,1,,,,,,,,,0,,,65,0
10400,note_on,0,0,1,,,,,,,,,0,,,61,114
10400,note_on,1,0,1,,,,,,,,,0,,,58,114
10400,note_on,0,0,1,,,,,,,,,0,,,65,114
10404,note_on,0,0,1,,,,,,,,,0,,,61,0
10404,note_on,4,0,1,,,,,,,,,0,,,65,0
10404,note_on,0,0,1,,,,,,,,,0,,,58,0
10440,note_on,36,0,1,,,,,,,,,0,,,58,114
10440,note_on,0,0,1,,,,,,,,,0,,,61,114
10440,note_on,0,0,1,,,,,,,,,0,,,65,114
10479,note_on,39,0,1,,,,,,,,,0,,,61,114
10479,note_on,0,0,1,,,,,,,,,0,,,65,114
10479,note_on,0,0,1,,,,,,,,,0,,,69,114
10480,note_on,1,0,1,,,,,,,,,0,,,65,0
10480,note_on,0,0,1,,,,,,,,,0,,,58,0
10480,note_on,0,0,1,,,,,,,,,0,,,61,0
10519,note_on,39,0,1,,,,,,,,,0,,,61,0
10519,note_on,0,0,1,,,,,,,,,0,,,65,0
10519,note_on,0,0,1,,,,,,,,,0,,,69,0
10520,note_on,0,0,1,,,,,,,,,0,,,65,114
10520,control_change,1,0,1,,,,,,,,,0,64,0,,
10520,note_on,0,0,1,,,,,,,,,0,,,69,114
10520,note_on,0,0,1,,,,,,,,,0,,,61,114
10524,note_on,0,0,1,,,,,,,,,0,,,61,0
10524,note_on,0,0,1,,,,,,,,,0,,,65,0
10524,note_on,4,0,1,,,,,,,,,0,,,69,0
10560,note_on,36,0,1,,,,,,,,,0,,,70,114
10560,control_change,0,0,3,,,,,,,,,2,64,127,,
10560,note_on,0,0,3,,,,,,,,,2,,,29,101
10560,note_on,240,0,2,,,,,,,,,1,,,60,101
10560,note_on,0,0,2,,,,,,,,,1,,,65,101
10560,note_on,240,0,3,,,,,,,,,2,,,46,0
10599,note_on,39,0,3,,,,,,,,,2,,,36,101
10600,note_on,1,0,3,,,,,,,,,2,,,29,0
10639,note_on,39,0,3,,,,,,,,,2,,,36,0
10640,note_on,1,0,3,,,,,,,,,2,,,36,101
10644,note_on,4,0,3,,,,,,,,,2,,,36,0
10680,note_on,36,0,3,,,,,,,,,2,,,36,101
10680,note_on,120,0,1,,,,,,,,,0,,,70,0
10680,note_on,0,0,1,,,,,,,,,0,,,68,114
10719,note_on,39,0,3,,,,,,,,,2,,,41,101
10720,note_on,1,0,3,,,,,,,,,2,,,36,0
10759,note_on,39,0,3,,,,,,,,,2,,,41,0
10760,note_on,0,0,3,,,,,,,,,2,,,41,101
10760,control_change,1,0,3,,,,,,,,,2,64,0,,
10764,note_on,4,0,3,,,,,,,,,2,,,41,0
10800,note_on,36,0,3,,,,,,,,,2,,,42,101
10800,note_on,240,0,2,,,,,,,,,1,,,65,0
10800,note_on,0,0,2,,,,,,,,,1,,,60,0
10800,note_on,120,0,1,,,,,,,,,0,,,68,0
10800,control_change,0,0,1,,,,,,,,,0,64,127,,
10800,note_on,0,0,1,,,,,,,,,0,,,49,114
10800,note_on,0,0,1,,,,,,,,,0,,,54,114
10800,note_on,0,0,1,,,,,,,,,0,,,58,114
10839,note_on,39,0,1,,,,,,,,,0,,,54,114
10839,note_on,0,0,1,,,,,,,,,0,,,61,114
10839,note_on,0,0,1,,,,,,,,,0,,,58,114
10840,note_on,1,0,1,,,,,,,,,0,,,58,0
10840,note_on,0,0,1,,,,,,,,,0,,,49,0
10840,note_on,0,0,1,,,,,,,,,0,,,54,0
10879,note_on,39,0,1,,,,,,,,,0,,,54,0
10879,note_on,0,0,1,,,,,,,,,0,,,58,0
10879,note_on,0,0,1,,,,,,,,,0,,,61,0
10880,note_on,1,0,1,,,,,,,,,0,,,54,114
10880,note_on,0,0,1,,,,,,,,,0,,,58,114
10880,note_on,0,0,1,,,,,,,,,0,,,61,114
10884,note_on,4,0,1,,,,,,,,,0,,,61,0
10884,note_on,0,0,1,,,,,,,,,0,,,54,0
10884,note_on,0,0,1,,,,,,,,,0,,,58,0
10920,note_on,36,0,1,,,,,,,,,0,,,54,114
10920,note_on,0,0,1,,,,,,,,,0,,,61,114
10920,note_on,0,0,1,,,,,,,,,0,,,58,114
10959,note_on,39,0,1,,,,,,,,,0,,,58,114
10959,note_on,0,0,1,,,,,,,,,0,,,61,114
10959,note_on,0,0,1,,,,,,,,,0,,,66,114
10960,note_on,1,0,1,,,,,,,,,0,,,61,0
10960,note_on,0,0,1,,,,,,,,,0,,,54,0
10960,note_on,0,0,1,,,,,,,,,0,,,58,0
10999,note_on,39,0,1,,,,,,,,,0,,,58,0
10999,note_on,0,0,1,,,,,,,,,0,,,61,0
10999,note_on,0,0,1,,,,,,,,,0,,,66,0
11000,note_on,0,0,1,,,,,,,,,0,,,61,114
11000,note_on,0,0,1,,,,,,,,,0,,,66,114
11000,note_on,0,0,1,,,,,,,,,0,,,58,114
11000,control_change,1,0,1,,,,,,,,,0,64,0,,
11004,note_on,4,0,1,,,,,,,,,0,,,66,0
11004,note_on,0,0,1,,,,,,,,,0,,,61,0
11004,note_on,0,0,1,,,,,,,,,0,,,58,0
11040,note_on,240,0,3,,,,,,,,,2,,,42,0
11040,control_change,36,0,1,,,,,,,,,0,64,127,,
11040,note_on,0,0,1,,,,,,,,,0,,,58,114
11040,note_on,0,0,1,,,,,,,,,0,,,61,114
11040,note_on,0,0,1,,,,,,,,,0,,,66,114
11040,control_change,0,0,3,,,,,,,,,2,64,127,,
11040,note_on,0,0,3,,,,,,,,,2,,,42,101
11055,note_on,15,0,3,,,,,,,,,2,,,42,0
11055,note_on,0,0,3,,,,,,,,,2,,,44,101
11070,note_on,15,0,3,,,,,,,,,2,,,44,0
11070,note_on,0,0,3,,,,,,,,,2,,,42,101
11079,note_on,39,0,1,,,,,,,,,0,,,61,114
11079,note_on,0,0,1,,,,,,,,,0,,,70,114
11079,note_on,0,0,1,,,,,,,,,0,,,66,114
11080,note_on,0,0,1,,,,,,,,,0,,,61,0
11080,note_on,0,0,1,,,,,,,,,0,,,58,0
11080,note_on,1,0,1,,,,,,,,,0,,,66,0
11085,note_on,15,0,3,,,,,,,,,2,,,42,0
11085,note_on,0,0,3,,,,,,,,,2,,,44,101
11100,note_on,15,0,3,,,,,,,,,2,,,44,0
11100,note_on,0,0,3,,,,,,,,,2,,,42,101
11115,note_on,0,0,3,,,,,,,,,2,,,44,101
11115,note_on,15,0,3,,,,,,,,,2,,,42,0
11119,note_on,0,0,1,,,,,,,,,0,,,66,0
11119,note_on,0,0,1,,,,,,,,,0,,,70,0
11119,note_on,39,0,1,,,,,,,,,0,,,61,0
11120,note_on,0,0,1,,,,,,,,,0,,,70,114
11120,note_on,0,0,1,,,,,,,,,0,,,66,114
11120,note_on,1,0,1,,,,,,,,,0,,,61,114
11124,note_on,4,0,1,,,,,,,,,0,,,70,0
11124,note_on,0,0,1,,,,,,,,,0,,,61,0
11124,note_on,0,0,1,,,,,,,,,0,,,66,0
11130,note_on,15,0,3,,,,,,,,,2,,,44,0
11130,note_on,0,0,3,,,,,,,,,2,,,42,101
11145,note_on,0,0,3,,,,,,,,,2,,,44,101
11145,note_on,15,0,3,,,,,,,,,2,,,42,0
11160,note_on,36,0,1,,,,,,,,,0,,,61,114
11160,note_on,0,0,1,,,,,,,,,0,,,66,114
11160,note_on,0,0,3,,,,,,,,,2,,,42,101
11160,note_on,15,0,3,,,,,,,,,2,,,44,0
11160,note_on,0,0,1,,,,,,,,,0,,,70,114
11175,note_on,0,0,3,,,,,,,,,2,,,44,101
11175,note_on,15,0,3,,,,,,,,,2,,,42,0
11190,note_on,15,0,3,,,,,,,,,2,,,44,0
11190,note_on,0,0,3,,,,,,,,,2,,,42,101
11199,note_on,0,0,1,,,,,,,,,0,,,73,114
11199,note_on,39,0,1,,,,,,,,,0,,,66,114
11199,note_on,0,0,1,,,,,,,,,0,,,70,114
11200,note_on,1,0,1,,,,,,,,,0,,,70,0
11200,note_on,0,0,1,,,,,,,,,0,,,61,0
11200,note_on,0,0,1,,,,,,,,,0,,,66,0
11205,note_on,0,0,3,,,,,,,,,2,,,44,101
11205,note_on,15,0,3,,,,,,,,,2,,,42,0
11220,note_on,0,0,3,,,,,,,,,2,,,42,101
11220,note_on,15,0,3,,,,,,,,,2,,,44,0
11235,note_on,0,0,3,,,,,,,,,2,,,44,101
11235,note_on,15,0,3,,,,,,,,,2,,,42,0
11239,note_on,39,0,1,,,,,,,,,0,,,66,0
11239,note_on,0,0,1,,,,,,,,,0,,,70,0
11239,note_on,0,0,1,,,,,,,,,0,,,73,0
11240,note_on,0,0,1,,,,,,,,,0,,,73,114
11240,note_on,1,0,1,,,,,,,,,0,,,66,114
11240,note_on,0,0,1,,,,,,,,,0,,,70,114
11244,note_on,0,0,1,,,,,,,,,0,,,70,0
11244,note_on,0,0,1,,,,,,,,,0,,,66,0
11244,note_on,4,0,1,,,,,,,,,0,,,73,0
11250,note_on,15,0,3,,,,,,,,,2,,,44,0
11250,note_on,0,0,3,,,,,,,,,2,,,42,101
11265,note_on,15,0,3,,,,,,,,,2,,,42,0
11265,note_on,0,0,3,,,,,,,,,2,,,44,101
11280,note_on,0,0,1,,,,,,,,,0,,,73,114
11280,note_on,0,0,1,,,,,,,,,0,,,70,114
11280,note_on,36,0,1,,,,,,,,,0,,,66,114
11280,note_on,0,0,3,,,,,,,,,2,,,42,101
11280,note_on,15,0,3,,,,,,,,,2,,,44,0
11295,note_on,0,0,3,,,,,,,,,2,,,44,101
11295,note_on,15,0,3,,,,,,,,,2,,,42,0
11310,note_on,0,0,3,,,,,,,,,2,,,42,101
11310,note_on,15,0,3,,,,,,,,,2,,,44,0
11319,note_on,0,0,1,,,,,,,,,0,,,78,114
11319,note_on,0,0,1,,,,,,,,,0,,,73,114
11319,note_on,39,0,1,,,,,,,,,0,,,70,114
11320,note_on,0,0,1,,,,,,,,,0,,,66,0
11320,note_on,0,0,1,,,,,,,,,0,,,70,0
11320,note_on,1,0,1,,,,,,,,,0,,,73,0
11325,note_on,0,0,3,,,,,,,,,2,,,44,101
11325,note_on,15,0,3,,,,,,,,,2,,,42,0
11340,note_on,15,0,3,,,,,,,,,2,,,44,0
11340,note_on,0,0,3,,,,,,,,,2,,,42,101
11355,note_on,15,0,3,,,,,,,,,2,,,42,0
11355,note_on,0,0,3,,,,,,,,,2,,,44,101
11359,note_on,0,0,1,,,,,,,,,0,,,78,0
11359,note_on,0,0,1,,,,,,,,,0,,,73,0
11359,note_on,39,0,1,,,,,,,,,0,,,70,0
11360,note_on,0,0,1,,,,,,,,,0,,,78,114
11360,note_on,0,0,1,,,,,,,,,0,,,73,114
11360,note_on,1,0,1,,,,,,,,,0,,,70,114
11364,note_on,0,0,1,,,,,,,,,0,,,73,0
11364,note_on,4,0,1,,,,,,,,,0,,,78,0
11364,note_on,0,0,1,,,,,,,,,0,,,70,0
11370,note_on,15,0,3,,,,,,,,,2,,,44,0
11370,note_on,0,0,3,,,,,,,,,2,,,42,101
11385,note_on,15,0,3,,,,,,,,,2,,,42,0
11385,note_on,0,0,3,,,,,,,,,2,,,44,101
11400,note_on,0,0,1,,,,,,,,,0,,,73,114
11400,note_on,0,0,1,,,,,,,,,0,,,78,114
11400,note_on,0,0,3,,,,,,,,,2,,,42,101
11400,note_on,36,0,1,,,,,,,,,0,,,70,114
11400,note_on,15,0,3,,,,,,,,,2,,,44,0
11415,note_on,15,0,3,,,,,,,,,2,,,42,0
11415,note_on,0,0,3,,,,,,,,,2,,,44,101
11430,note_on,15,0,3,,,,,,,,,2,,,44,0
11430,note_on,0,0,3,,,,,,,,,2,,,42,101
11439,note_on,0,0,1,,,,,,,,,0,,,82,114
11439,note_on,0,0,1,,,,,,,,,0,,,78,114
11439,note_on,0,0,1,,,,,,,,,0,,,73,114
11439,note_on,39,0,1,,,,,,,,,0,,,70,114
11440,note_on,0,0,1,,,,,,,,,0,,,73,0
11440,note_on,1,0,1,,,,,,,,,0,,,78,0
11440,note_on,0,0,1,,,,,,,,,0,,,70,0
11445,note_on,15,0,3,,,,,,,,,2,,,42,0
11445,note_on,0,0,3,,,,,,,,,2,,,44,101
11460,note_on,15,0,3,,,,,,,,,2,,,44,0
11460,note_on,0,0,3,,,,,,,,,2,,,42,101
11475,note_on,0,0,3,,,,,,,,,2,,,44,101
11475,note_on,15,0,3,,,,,,,,,2,,,42,0
11479,note_on,0,0,1,,,,,,,,,0,,,78,0
11479,note_on,0,0,1,,,,,,,,,0,,,82,0
11479,note_on,39,0,1,,,,,,,,,0,,,73,0
11479,note_on,0,0,1,,,,,,,,,0,,,70,0
11480,note_on,0,0,1,,,,,,,,,0,,,82,114
11480,control_change,1,0,1,,,,,,,,,0,64,0,,
11480,note_on,0,0,1,,,,,,,,,0,,,70,114
11480,note_on,0,0,1,,,,,,,,,0,,,73,114
11480,note_on,0,0,1,,,,,,,,,0,,,78,114
11484,note_on,4,0,1,,,,,,,,,0,,,82,0
11484,note_on,0,0,1,,,,,,,,,0,,,78,0
11484,note_on,0,0,1,,,,,,,,,0,,,70,0
11484,note_on,0,0,1,,,,,,,,,0,,,73,0
11490,note_on,0,0,3,,,,,,,,,2,,,42,101
11490,note_on,15,0,3,,,,,,,,,2,,,44,0
11505,note_on,0,0,3,,,,,,,,,2,,,44,101
11505,note_on,15,0,3,,,,,,,,,2,,,42,0
11505,control_change,0,0,3,,,,,,,,,2,64,0,,
11520,note_on,0,0,1,,,,,,,,,0,,,85,114
11520,note_on,0,0,1,,,,,,,,,0,,,80,114
11520,note_on,36,0,1,,,,,,,,,0,,,73,114
11520,control_change,0,0,3,,,,,,,,,2,64,127,,
11520,note_on,0,0,3,,,,,,,,,2,,,30,101
11520,note_on,15,0,3,,,,,,,,,2,,,44,0
11520,note_on,0,0,3,,,,,,,,,2,,,42,101
11559,note_on,39,0,3,,,,,,,,,2,,,29,101
11559,note_on,0,0,3,,,,,,,,,2,,,41,101
11560,note_on,1,0,3,,,,,,,,,2,,,42,0
11560,note_on,0,0,3,,,,,,,,,2,,,30,0
11599,note_on,39,0,3,,,,,,,,,2,,,29,0
11599,note_on,0,0,3,,,,,,,,,2,,,41,0
11600,note_on,0,0,3,,,,,,,,,2,,,41,101
11600,note_on,1,0,3,,,,,,,,,2,,,29,101
11604,note_on,4,0,3,,,,,,,,,2,,,41,0
11604,note_on,0,0,3,,,,,,,,,2,,,29,0
11640,note_on,0,0,3,,,,,,,,,2,,,30,101
11640,control_change,36,0,3,,,,,,,,,2,64,0,,
11640,note_on,0,0,3,,,,,,,,,2,,,42,101
11640,note_on,0,0,1,,,,,,,,,0,,,73,0
11640,note_on,0,0,1,,,,,,,,,0,,,73,114
11640,note_on,0,0,1,,,,,,,,,0,,,71,114
11640,note_on,0,0,1,,,,,,,,,0,,,80,0
11640,note_on,120,0,1,,,,,,,,,0,,,85,0
11640,note_on,0,0,1,,,,,,,,,0,,,83,114
11640,note_on,0,0,1,,,,,,,,,0,,,80,114
11679,note_on,39,0,1,,,,,,,,,0,,,70,114
11679,note_on,0,0,1,,,,,,,,,0,,,73,114
11679,note_on,0,0,1,,,,,,,,,0,,,78,114
11679,note_on,0,0,1,,,,,,,,,0,,,82,114
11680,note_on,0,0,1,,,,,,,,,0,,,73,0
11680,note_on,0,0,1,,,,,,,,,0,,,71,0
11680,note_on,0,0,1,,,,,,,,,0,,,80,0
11680,note_on,1,0,1,,,,,,,,,0,,,83,0
11719,note_on,39,0,1,,,,,,,,,0,,,70,0
11719,note_on,0,0,1,,,,,,,,,0,,,82,0
11719,note_on,0,0,1,,,,,,,,,0,,,73,0
11719,note_on,0,0,1,,,,,,,,,0,,,78,0
11720,note_on,1,0,1,,,,,,,,,0,,,70,114
11720,note_on,0,0,1,,,,,,,,,0,,,78,114
11720,note_on,0,0,1,,,,,,,,,0,,,82,114
11720,note_on,0,0,1,,,,,,,,,0,,,73,114
11724,note_on,0,0,1,,,,,,,,,0,,,73,0
11724,note_on,0,0,1,,,,,,,,,0,,,78,0
11724,note_on,4,0,1,,,,,,,,,0,,,82,0
11724,note_on,0,0,1,,,,,,,,,0,,,70,0
11760,note_on,120,0,3,,,,,,,,,2,,,42,0
11760,note_on,0,0,3,,,,,,,,,2,,,30,0
11760,control_change,0,0,3,,,,,,,,,2,64,127,,
11760,note_on,0,0,3,,,,,,,,,2,,,30,101
11760,note_on,0,0,1,,,,,,,,,0,,,85,114
11760,note_on,36,0,1,,,,,,,,,0,,,73,114
11760,note_on,0,0,3,,,,,,,,,2,,,42,101
11760,note_on,0,0,1,,,,,,,,,0,,,80,114
11799,note_on,39,0,3,,,,,,,,,2,,,29,101
11799,note_on,0,0,3,,,,,,,,,2,,,41,101
11800,note_on,0,0,3,,,,,,,,,2,,,30,0
11800,note_on,1,0,3,,,,,,,,,2,,,42,0
11839,note_on,0,0,3,,,,,,,,,2,,,41,0
11839,note_on,39,0,3,,,,,,,,,2,,,29,0
11840,note_on,0,0,3,,,,,,,,,2,,,41,101
11840,note_on,1,0,3,,,,,,,,,2,,,29,101
11844,note_on,0,0,3,,,,,,,,,2,,,29,0
11844,note_on,4,0,3,,,,,,,,,2,,,41,0
11880,control_change,36,0,3,,,,,,,,,2,64,0,,
11880,note_on,0,0,3,,,,,,,,,2,,,30,101
11880,note_on,0,0,3,,,,,,,,,2,,,42,101
11880,note_on,0,0,1,,,,,,,,,0,,,80,0
11880,note_on,120,0,1,,,,,,,,,0,,,85,0
11880,note_on,0,0,1,,,,,,,,,0,,,73,0
11880,note_on,0,0,1,,,,,,,,,0,,,71,114
11880,note_on,0,0,1,,,,,,,,,0,,,73,114
11880,note_on,0,0,1,,,,,,,,,0,,,80,114
11880,note_on,0,0,1,,,,,,,,,0,,,83,114
11919,note_on,39,0,1,,,,,,,,,0,,,70,114
11919,note_on,0,0,1,,,,,,,,,0,,,78,114
11919,note_on,0,0,1,,,,,,,,,0,,,82,114
11919,note_on,0,0,1,,,,,,,,,0,,,73,114
11920,note_on,1,0,1,,,,,,,,,0,,,83,0
11920,note_on,0,0,1,,,,,,,,,0,,,80,0
11920,note_on,0,0,1,,,,,,,,,0,,,71,0
11920,note_on,0,0,1,,,,,,,,,0,,,73,0
11959,note_on,39,0,1,,,,,,,,,0,,,70,0
11959,note_on,0,0,1,,,,,,,,,0,,,82,0
11959,note_on,0,0,1,,,,,,,,,0,,,78,0
11959,note_on,0,0,1,,,,,,,,,0,,,73,0
11960,note_on,1,0,1,,,,,,,,,0,,,70,114
11960,note_on,0,0,1,,,,,,,,,0,,,78,114
11960,note_on,0,0,1,,,,,,,,,0,,,73,114
11960,note_on,0,0,1,,,,,,,,,0,,,82,114
11964,note_on,4,0,1,,,,,,,,,0,,,82,0
11964,note_on,0,0,1,,,,,,,,,0,,,70,0
11964,note_on,0,0,1,,,,,,,,,0,,,73,0
11964,note_on,0,0,1,,,,,,,,,0,,,78,0
12000,note_on,0,0,1,,,,,,,,,0,,,82,114
12000,control_change,0,0,3,,,,,,,,,2,64,127,,
12000,note_on,0,0,3,,,,,,,,,2,,,32,101
12000,note_on,0,0,3,,,,,,,,,2,,,44,101
12000,note_on,120,0,3,,,,,,,,,2,,,42,0
12000,note_on,0,0,1,,,,,,,,,0,,,88,114
12000,note_on,36,0,1,,,,,,,,,0,,,76,114
12000,note_on,0,0,3,,,,,,,,,2,,,30,0
12039,note_on,0,0,3,,,,,,,,,2,,,43,101
12039,note_on,39,0,3,,,,,,,,,2,,,31,101
12040,note_on,0,0,3,,,,,,,,,2,,,32,0
12040,note_on,1,0,3,,,,,,,,,2,,,44,0
12079,note_on,0,0,3,,,,,,,,,2,,,43,0
12079,note_on,39,0,3,,,,,,,,,2,,,31,0
12080,note_on,1,0,3,,,,,,,,,2,,,31,101
12080,note_on,0,0,3,,,,,,,,,2,,,43,101
12084,note_on,0,0,3,,,,,,,,,2,,,31,0
12084,note_on,4,0,3,,,,,,,,,2,,,43,0
12120,note_on,0,0,1,,,,,,,,,0,,,76,0
12120,note_on,120,0,1,,,,,,,,,0,,,88,0
12120,control_change,36,0,3,,,,,,,,,2,64,0,,
12120,note_on,0,0,3,,,,,,,,,2,,,43,101
12120,note_on,0,0,3,,,,,,,,,2,,,55,101
12120,note_on,0,0,1,,,,,,,,,0,,,82,0
12120,note_on,0,0,1,,,,,,,,,0,,,74,114
12120,note_on,0,0,1,,,,,,,,,0,,,86,114
12120,note_on,0,0,1,,,,,,,,,0,,,82,114
12159,note_on,0,0,1,,,,,,,,,0,,,82,114
12159,note_on,0,0,1,,,,,,,,,0,,,87,114
12159,note_on,39,0,1,,,,,,,,,0,,,75,114
12160,note_on,1,0,1,,,,,,,,,0,,,86,0
12160,note_on,0,0,1,,,,,,,,,0,,,74,0
12160,note_on,0,0,1,,,,,,,,,0,,,82,0
12199,note_on,0,0,1,,,,,,,,,0,,,87,0
12199,note_on,0,0,1,,,,,,,,,0,,,82,0
12199,note_on,39,0,1,,,,,,,,,0,,,75,0
12200,note_on,0,0,1,,,,,,,,,0,,,87,114
12200,note_on,1,0,1,,,,,,,,,0,,,75,114
12200,note_on,0,0,1,,,,,,,,,0,,,82,114
12204,note_on,4,0,1,,,,,,,,,0,,,87,0
12204,note_on,0,0,1,,,,,,,,,0,,,75,0
12204,note_on,0,0,1,,,,,,,,,0,,,82,0
12240,note_on,0,0,3,,,,,,,,,2,,,44,101
12240,note_on,0,0,3,,,,,,,,,2,,,32,101
12240,control_change,0,0,3,,,,,,,,,2,64,127,,
12240,note_on,0,0,3,,,,,,,,,2,,,43,0
12240,note_on,0,0,1,,,,,,,,,0,,,88,114
12240,note_on,36,0,1,,,,,,,,,0,,,76,114
12240,note_on,120,0,3,,,,,,,,,2,,,55,0
12240,note_on,0,0,1,,,,,,,,,0,,,82,114
12279,note_on,39,0,3,,,,,,,,,2,,,31,101
12279,note_on,0,0,3,,,,,,,,,2,,,43,101
12280,note_on,1,0,3,,,,,,,,,2,,,44,0
12280,note_on,0,0,3,,,,,,,,,2,,,32,0
12319,note_on,39,0,3,,,,,,,,,2,,,31,0
12319,note_on,0,0,3,,,,,,,,,2,,,43,0
12320,note_on,1,0,3,,,,,,,,,2,,,31,101
12320,note_on,0,0,3,,,,,,,,,2,,,43,101
12324,note_on,0,0,3,,,,,,,,,2,,,31,0
12324,note_on,4,0,3,,,,,,,,,2,,,43,0
12360,note_on,0,0,1,,,,,,,,,0,,,74,114
12360,note_on,0,0,3,,,,,,,,,2,,,55,101
12360,note_on,0,0,3,,,,,,,,,2,,,43,101
12360,note_on,120,0,1,,,,,,,,,0,,,88,0
12360,note_on,0,0,1,,,,,,,,,0,,,82,0
12360,note_on,0,0,1,,,,,,,,,0,,,76,0
12360,control_change,36,0,3,,,,,,,,,2,64,0,,
12360,note_on,0,0,1,,,,,,,,,0,,,82,114
12360,note_on,0,0,1,,,,,,,,,0,,,86,114
12399,note_on,0,0,1,,,,,,,,,0,,,82,114
12399,note_on,39,0,1,,,,,,,,,0,,,75,114
12399,note_on,0,0,1,,,,,,,,,0,,,87,114
12400,note_on,0,0,1,,,,,,,,,0,,,74,0
12400,note_on,0,0,1,,,,,,,,,0,,,82,0
12400,note_on,1,0,1,,,,,,,,,0,,,86,0
12439,note_on,0,0,1,,,,,,,,,0,,,87,0
12439,note_on,0,0,1,,,,,,,,,0,,,82,0
12439,note_on,39,0,1,,,,,,,,,0,,,75,0
12440,note_on,0,0,1,,,,,,,,,0,,,87,114
12440,note_on,0,0,1,,,,,,,,,0,,,82,114
12440,note_on,1,0,1,,,,,,,,,0,,,75,114
12444,note_on,0,0,1,,,,,,,,,0,,,75,0
12444,note_on,4,0,1,,,,,,,,,0,,,87,0
12444,note_on,0,0,1,,,,,,,,,0,,,82,0
12480,note_on,0,0,3,,,,,,,,,2,,,43,101
12480,note_on,0,0,3,,,,,,,,,2,,,31,101
12480,control_change,0,0,3,,,,,,,,,2,64,127,,
12480,note_on,0,0,1,,,,,,,,,0,,,88,114
12480,note_on,120,0,3,,,,,,,,,2,,,55,0
12480,control_change,36,0,1,,,,,,,,,0,64,127,,
12480,note_on,0,0,1,,,,,,,,,0,,,76,114
12480,note_on,0,0,3,,,,,,,,,2,,,43,0
12480,note_on,0,0,1,,,,,,,,,0,,,82,114
12519,note_on,39,0,3,,,,,,,,,2,,,43,101
12519,note_on,0,0,3,,,,,,,,,2,,,55,101
12520,note_on,0,0,3,,,,,,,,,2,,,31,0
12520,note_on,1,0,3,,,,,,,,,2,,,43,0
12559,note_on,39,0,3,,,,,,,,,2,,,43,0
12559,note_on,0,0,3,,,,,,,,,2,,,55,0
12560,note_on,0,0,3,,,,,,,,,2,,,55,101
12560,note_on,1,0,3,,,,,,,,,2,,,43,101
12564,note_on,0,0,3,,,,,,,,,2,,,43,0
12564,note_on,4,0,3,,,,,,,,,2,,,55,0
12600,note_on,0,0,3,,,,,,,,,2,,,43,101
12600,note_on,36,0,3,,,,,,,,,2,,,31,101
12600,note_on,120,0,1,,,,,,,,,0,,,88,0
12600,note_on,0,0,1,,,,,,,,,0,,,76,0
12600,note_on,0,0,1,,,,,,,,,0,,,76,114
12600,note_on,0,0,1,,,,,,,,,0,,,82,114
12600,note_on,0,0,1,,,,,,,,,0,,,88,114
12600,note_on,0,0,1,,,,,,,,,0,,,82,0
12639,note_on,0,0,3,,,,,,,,,2,,,55,101
12639,note_on,39,0,3,,,,,,,,,2,,,43,101
12640,note_on,0,0,3,,,,,,,,,2,,,31,0
12640,note_on,1,0,3,,,,,,,,,2,,,43,0
12679,note_on,0,0,3,,,,,,,,,2,,,55,0
12679,note_on,39,0,3,,,,,,,,,2,,,43,0
12680,note_on,0,0,3,,,,,,,,,2,,,55,101
12680,note_on,1,0,3,,,,,,,,,2,,,43,101
12684,note_on,0,0,3,,,,,,,,,2,,,43,0
12684,note_on,4,0,3,,,,,,,,,2,,,55,0
12720,note_on,120,0,1,,,,,,,,,0,,,88,0
12720,note_on,0,0,3,,,,,,,,,2,,,43,101
12720,note_on,36,0,3,,,,,,,,,2,,,31,101
12720,note_on,0,0,1,,,,,,,,,0,,,88,114
12720,note_on,0,0,1,,,,,,,,,0,,,82,114
12720,note_on,0,0,1,,,,,,,,,0,,,76,114
12720,note_on,0,0,1,,,,,,,,,0,,,76,0
12720,note_on,0,0,1,,,,,,,,,0,,,82,0
12759,note_on,0,0,3,,,,,,,,,2,,,55,101
12759,note_on,39,0,3,,,,,,,,,2,,,43,101
12760,note_on,0,0,3,,,,,,,,,2,,,31,0
12760,note_on,1,0,3,,,,,,,,,2,,,43,0
12799,note_on,0,0,3,,,,,,,,,2,,,55,0
12799,note_on,39,0,3,,,,,,,,,2,,,43,0
12800,note_on,0,0,3,,,,,,,,,2,,,55,101
12800,note_on,1,0,3,,,,,,,,,2,,,43,101
12804,note_on,0,0,3,,,,,,,,,2,,,43,0
12804,note_on,4,0,3,,,,,,,,,2,,,55,0
12840,control_change,0,0,1,,,,,,,,,0,64,0,,
12840,note_on,0,0,1,,,,,,,,,0,,,88,114
12840,note_on,0,0,1,,,,,,,,,0,,,82,114
12840,note_on,0,0,1,,,,,,,,,0,,,76,114
12840,note_on,0,0,1,,,,,,,,,0,,,82,0
12840,note_on,0,0,1,,,,,,,,,0,,,76,0
12840,note_on,0,0,3,,,,,,,,,2,,,43,101
12840,note_on,36,0,3,,,,,,,,,2,,,31,101
12840,note_on,120,0,1,,,,,,,,,0,,,88,0
12879,note_on,0,0,3,,,,,,,,,2,,,55,101
12879,note_on,39,0,3,,,,,,,,,2,,,43,101
12880,note_on,1,0,3,,,,,,,,,2,,,43,0
12880,note_on,0,0,3,,,,,,,,,2,,,31,0
12919,note_on,0,0,3,,,,,,,,,2,,,55,0
12919,note_on,39,0,3,,,,,,,,,2,,,43,0
12920,note_on,0,0,3,,,,,,,,,2,,,55,101
12920,note_on,0,0,3,,,,,,,,,2,,,43,101
12920,control_change,1,0,3,,,,,,,,,2,64,0,,
12924,note_on,0,0,3,,,,,,,,,2,,,43,0
12924,note_on,4,0,3,,,,,,,,,2,,,55,0
12960,note_on,0,0,3,,,,,,,,,2,,,43,101
12960,control_change,36,0,3,,,,,,,,,2,64,127,,
12960,note_on,120,0,1,,,,,,,,,0,,,88,0
12960,note_on,0,0,1,,,,,,,,,0,,,82,0
12960,note_on,0,0,1,,,,,,,,,0,,,76,0
12960,note_on,0,0,1,,,,,,,,,0,,,77,114
12960,note_on,0,0,1,,,,,,,,,0,,,83,114
12960,note_on,0,0,1,,,,,,,,,0,,,86,114
12960,note_on,0,0,1,,,,,,,,,0,,,89,114
12960,note_on,0,0,3,,,,,,,,,2,,,31,101
12999,note_on,0,0,3,,,,,,,,,2,,,55,101
12999,note_on,39,0,3,,,,,,,,,2,,,43,101
13000,note_on,0,0,3,,,,,,,,,2,,,31,0
13000,note_on,1,0,3,,,,,,,,,2,,,43,0
13039,note_on,39,0,3,,,,,,,,,2,,,43,0
13039,note_on,0,0,3,,,,,,,,,2,,,55,0
13040,note_on,0,0,3,,,,,,,,,2,,,55,101
13040,note_on,1,0,3,,,,,,,,,2,,,43,101
13044,note_on,0,0,3,,,,,,,,,2,,,43,0
13044,note_on,4,0,3,,,,,,,,,2,,,55,0
13080,note_on,0,0,1,,,,,,,,,0,,,89,114
13080,note_on,120,0,1,,,,,,,,,0,,,89,0
13080,note_on,0,0,1,,,,,,,,,0,,,86,114
13080,note_on,0,0,3,,,,,,,,,2,,,43,101
13080,note_on,36,0,3,,,,,,,,,2,,,31,101
13080,note_on,0,0,1,,,,,,,,,0,,,77,0
13080,note_on,0,0,1,,,,,,,,,0,,,83,114
13080,note_on,0,0,1,,,,,,,,,0,,,77,114
13080,note_on,0,0,1,,,,,,,,,0,,,86,0
13080,note_on,0,0,1,,,,,,,,,0,,,83,0
13119,note_on,0,0,3,,,,,,,,,2,,,55,101
13119,note_on,39,0,3,,,,,,,,,2,,,43,101
13120,note_on,0,0,3,,,,,,,,,2,,,31,0
13120,note_on,1,0,3,,,,,,,,,2,,,43,0
13159,note_on,0,0,3,,,,,,,,,2,,,55,0
13159,note_on,39,0,3,,,,,,,,,2,,,43,0
13160,note_on,0,0,3,,,,,,,,,2,,,43,101
13160,note_on,0,0,3,,,,,,,,,2,,,55,101
13160,control_change,1,0,3,,,,,,,,,2,64,0,,
13164,note_on,4,0,3,,,,,,,,,2,,,55,0
13164,note_on,0,0,3,,,,,,,,,2,,,43,0
13200,note_on,0,0,1,,,,,,,,,0,,,83,0
13200,note_on,0,0,1,,,,,,,,,0,,,77,0
13200,note_on,0,0,1,,,,,,,,,0,,,78,114
13200,note_on,120,0,1,,,,,,,,,0,,,89,0
13200,note_on,0,0,1,,,,,,,,,0,,,81,114
13200,note_on,0,0,1,,,,,,,,,0,,,84,114
13200,note_on,0,0,1,,,,,,,,,0,,,90,114
13200,note_on,0,0,1,,,,,,,,,0,,,87,114
13200,control_change,36,0,3,,,,,,,,,2,64,127,,
13200,note_on,0,0,3,,,,,,,,,2,,,31,101
13200,note_on,0,0,1,,,,,,,,,0,,,86,0
13200,note_on,0,0,3,,,,,,,,,2,,,43,101
13239,note_on,0,0,3,,,,,,,,,2,,,55,101
13239,note_on,39,0,3,,,,,,,,,2,,,43,101
13240,note_on,0,0,3,,,,,,,,,2,,,31,0
13240,note_on,1,0,3,,,,,,,,,2,,,43,0
13279,note_on,39,0,3,,,,,,,,,2,,,43,0
13279,note_on,0,0,3,,,,,,,,,2,,,55,0
13280,note_on,1,0,3,,,,,,,,,2,,,43,101
13280,note_on,0,0,3,,,,,,,,,2,,,55,101
13284,note_on,4,0,3,,,,,,,,,2,,,55,0
13284,note_on,0,0,3,,,,,,,,,2,,,43,0
13320,note_on,0,0,1,,,,,,,,,0,,,87,114
13320,note_on,0,0,1,,,,,,,,,0,,,90,114
13320,note_on,0,0,3,,,,,,,,,2,,,43,101
13320,note_on,120,0,1,,,,,,,,,0,,,90,0
13320,note_on,0,0,1,,,,,,,,,0,,,84,0
13320,note_on,0,0,1,,,,,,,,,0,,,78,0
13320,note_on,0,0,1,,,,,,,,,0,,,81,0
13320,note_on,0,0,1,,,,,,,,,0,,,87,0
13320,note_on,0,0,1,,,,,,,,,0,,,78,114
13320,note_on,0,0,1,,,,,,,,,0,,,81,114
13320,note_on,36,0,3,,,,,,,,,2,,,31,101
13320,note_on,0,0,1,,,,,,,,,0,,,84,114
13359,note_on,0,0,3,,,,,,,,,2,,,55,101
13359,note_on,39,0,3,,,,,,,,,2,,,43,101
13360,note_on,0,0,3,,,,,,,,,2,,,31,0
13360,note_on,1,0,3,,,,,,,,,2,,,43,0
13399,note_on,0,0,3,,,,,,,,,2,,,55,0
13399,note_on,39,0,3,,,,,,,,,2,,,43,0
13400,note_on,0,0,3,,,,,,,,,2,,,43,101
13400,control_change,1,0,3,,,,,,,,,2,64,0,,
13400,note_on,0,0,3,,,,,,,,,2,,,55,101
13404,note_on,4,0,3,,,,,,,,,2,,,55,0
13404,note_on,0,0,3,,,,,,,,,2,,,43,0
13440,note_on,36,0,3,,,,,,,,,2,,,31,101
13440,note_on,0,0,3,,,,,,,,,2,,,43,101
13440,control_change,0,0,1,,,,,,,,,0,64,127,,
13440,note_on,0,0,1,,,,,,,,,0,,,91,114
13440,note_on,120,0,1,,,,,,,,,0,,,90,0
13440,note_on,0,0,1,,,,,,,,,0,,,84,0
13440,note_on,0,0,1,,,,,,,,,0,,,78,0
13440,note_on,0,0,1,,,,,,,,,0,,,81,0
13440,note_on,0,0,1,,,,,,,,,0,,,87,0
13440,note_on,0,0,1,,,,,,,,,0,,,79,114
13440,note_on,0,0,1,,,,,,,,,0,,,82,114
13440,note_on,0,0,1,,,,,,,,,0,,,86,114
13479,note_on,39,0,1,,,,,,,,,0,,,79,49
13480,note_on,1,0,1,,,,,,,,,0,,,91,0
13480,note_on,0,0,1,,,,,,,,,0,,,86,0
13480,note_on,0,0,1,,,,,,,,,0,,,79,0
13480,note_on,0,0,1,,,,,,,,,0,,,82,0
13500,note_on,60,0,3,,,,,,,,,2,,,43,0
13500,note_on,0,0,3,,,,,,,,,2,,,31,0
13519,note_on,39,0,1,,,,,,,,,0,,,79,0
13520,note_on,0,0,1,,,,,,,,,0,,,79,49
13520,control_change,1,0,1,,,,,,,,,0,64,0,,
13524,note_on,4,0,1,,,,,,,,,0,,,79,0
13560,note_on,36,0,1,,,,,,,,,0,,,67,49
13599,note_on,39,0,1,,,,,,,,,0,,,79,49
13600,note_on,1,0,1,,,,,,,,,0,,,67,0
13639,note_on,39,0,1,,,,,,,,,0,,,79,0
13640,note_on,1,0,1,,,,,,,,,0,,,79,49
13644,note_on,4,0,1,,,,,,,,,0,,,79,0
13680,note_on,36,0,1,,,,,,,,,0,,,67,49
13719,note_on,39,0,1,,,,,,,,,0,,,79,49
13720,note_on,1,0,1,,,,,,,,,0,,,67,0
13759,note_on,39,0,1,,,,,,,,,0,,,79,0
13760,note_on,1,0,1,,,,,,,,,0,,,79,49
13764,note_on,4,0,1,,,,,,,,,0,,,79,0
13800,note_on,36,0,1,,,,,,,,,0,,,67,49
13839,note_on,39,0,1,,,,,,,,,0,,,79,49
13840,note_on,1,0,1,,,,,,,,,0,,,67,0
13879,note_on,39,0,1,,,,,,,,,0,,,79,0
13880,note_on,1,0,1,,,,,,,,,0,,,79,49
13884,note_on,4,0,1,,,,,,,,,0,,,79,0
13920,control_change,36,0,1,,,,,,,,,0,64,127,,
13920,note_on,0,0,1,,,,,,,,,0,,,67,49
13920,control_change,420,0,3,,,,,,,,,2,64,127,,
13920,note_on,0,0,3,,,,,,,,,2,,,62,49
13920,note_on,0,0,3,,,,,,,,,2,,,65,49
13959,note_on,39,0,1,,,,,,,,,0,,,79,49
13960,note_on,1,0,1,,,,,,,,,0,,,67,0
13980,set_tempo,13980,1,0,,,,,,571429,,,,,,,
13999,note_on,39,0,1,,,,,,,,,0,,,79,0
14000,note_on,1,0,1,,,,,,,,,0,,,79,49
14004,note_on,4,0,1,,,,,,,,,0,,,79,0
14040,note_on,36,0,1,,,,,,,,,0,,,67,49
14040,set_tempo,60,1,0,,,,,,588235,,,,,,,
14079,note_on,39,0,1,,,,,,,,,0,,,79,49
14080,note_on,1,0,1,,,,,,,,,0,,,67,0
14100,set_tempo,60,1,0,,,,,,606061,,,,,,,
14119,note_on,39,0,1,,,,,,,,,0,,,79,0
14120,note_on,1,0,1,,,,,,,,,0,,,79,49
14124,note_on,4,0,1,,,,,,,,,0,,,79,0
14160,note_on,0,0,3,,,,,,,,,2,,,64,49
14160,note_on,240,0,3,,,,,,,,,2,,,65,0
14160,set_tempo,60,1,0,,,,,,631579,,,,,,,
14160,note_on,0,0,3,,,,,,,,,2,,,60,49
14160,note_on,0,0,3,,,,,,,,,2,,,62,0
14160,note_on,36,0,1,,,,,,,,,0,,,67,49
14199,note_on,39,0,1,,,,,,,,,0,,,79,49
14200,note_on,1,0,1,,,,,,,,,0,,,67,0
14220,set_tempo,60,1,0,,,,,,652174,,,,,,,
14239,note_on,39,0,1,,,,,,,,,0,,,79,0
14240,note_on,1,0,1,,,,,,,,,0,,,79,49
14244,note_on,4,0,1,,,,,,,,,0,,,79,0
14280,note_on,0,0,1,,,,,,,,,0,,,67,49
14280,note_on,0,0,3,,,,,,,,,2,,,62,49
14280,note_on,0,0,3,,,,,,,,,2,,,55,49
14280,control_change,0,0,3,,,,,,,,,2,64,0,,
14280,note_on,0,0,3,,,,,,,,,2,,,60,0
14280,note_on,120,0,3,,,,,,,,,2,,,64,0
14280,set_tempo,60,1,0,,,,,,674157,,,,,,,
14280,control_change,36,0,1,,,,,,,,,0,64,0,,
14319,note_on,39,0,1,,,,,,,,,0,,,79,49
14320,note_on,1,0,1,,,,,,,,,0,,,67,0
14340,set_tempo,60,1,0,,,,,,697674,,,,,,,
14359,note_on,39,0,1,,,,,,,,,0,,,79,0
14360,note_on,1,0,1,,,,,,,,,0,,,79,49
14364,note_on,4,0,1,,,,,,,,,0,,,79,0
14400,set_tempo,60,1,0,,,,,,576923,,,,,,,
14400,note_on,0,0,3,,,,,,,,,2,,,55,36
14400,control_change,0,0,3,,,,,,,,,2,64,127,,
14400,note_on,0,0,1,,,,,,,,,0,,,76,36
14400,note_on,120,0,3,,,,,,,,,2,,,62,0
14400,note_on,6960,0,4,,,,,,,,,3,,,48,36
14400,note_on,0,0,4,,,,,,,,,3,,,52,36
14400,control_change,36,0,1,,,,,,,,,0,64,127,,
14400,note_on,0,0,3,,,,,,,,,2,,,55,0
14439,note_on,39,0,1,,,,,,,,,0,,,79,36
14440,note_on,1,0,1,,,,,,,,,0,,,76,0
14479,note_on,39,0,1,,,,,,,,,0,,,79,0
14480,note_on,1,0,1,,,,,,,,,0,,,79,36
14484,note_on,4,0,1,,,,,,,,,0,,,79,0
14520,note_on,36,0,1,,,,,,,,,0,,,79,36
14559,note_on,39,0,1,,,,,,,,,0,,,84,36
14560,note_on,1,0,1,,,,,,,,,0,,,79,0
14580,note_on,180,0,3,,,,,,,,,2,,,55,0
14580,note_on,0,0,3,,,,,,,,,2,,,60,36
14599,note_on,39,0,1,,,,,,,,,0,,,84,0
14600,note_on,1,0,1,,,,,,,,,0,,,84,36
14604,note_on,4,0,1,,,,,,,,,0,,,84,0
14640,note_on,0,0,3,,,,,,,,,2,,,64,36
14640,note_on,60,0,3,,,,,,,,,2,,,60,0
14640,note_on,240,0,4,,,,,,,,,3,,,52,0
14640,note_on,36,0,1,,,,,,,,,0,,,84,36
14640,note_on,0,0,4,,,,,,,,,3,,,48,0
14679,note_on,39,0,1,,,,,,,,,0,,,88,36
14680,note_on,1,0,1,,,,,,,,,0,,,84,0
14719,note_on,39,0,1,,,,,,,,,0,,,88,0
14720,note_on,1,0,1,,,,,,,,,0,,,88,36
14724,note_on,4,0,1,,,,,,,,,0,,,88,0
14760,control_change,0,0,3,,,,,,,,,2,64,0,,
14760,note_on,0,0,3,,,,,,,,,2,,,69,36
14760,note_on,120,0,3,,,,,,,,,2,,,64,0
14760,note_on,0,0,1,,,,,,,,,0,,,88,36
14760,control_change,36,0,1,,,,,,,,,0,64,0,,
14799,note_on,39,0,1,,,,,,,,,0,,,93,36
14800,note_on,1,0,1,,,,,,,,,0,,,88,0
14839,note_on,39,0,1,,,,,,,,,0,,,93,0
14840,note_on,1,0,1,,,,,,,,,0,,,93,36
14844,note_on,4,0,1,,,,,,,,,0,,,93,0
14860,note_on,100,0,3,,,,,,,,,2,,,47,36
14870,note_on,10,0,3,,,,,,,,,2,,,55,36
14880,note_on,10,0,3,,,,,,,,,2,,,69,0
14880,control_change,0,0,3,,,,,,,,,2,64,127,,
14880,note_on,0,0,1,,,,,,,,,0,,,93,36
14880,control_change,36,0,1,,,,,,,,,0,64,127,,
14880,note_on,0,0,3,,,,,,,,,2,,,67,36
14919,note_on,39,0,1,,,,,,,,,0,,,91,36
14920,note_on,1,0,1,,,,,,,,,0,,,93,0
14959,note_on,39,0,1,,,,,,,,,0,,,91,0
14960,note_on,1,0,1,,,,,,,,,0,,,91,36
14964,note_on,4,0,1,,,,,,,,,0,,,91,0
15000,note_on,36,0,1,,,,,,,,,0,,,91,36
15039,note_on,39,0,1,,,,,,,,,0,,,89,36
15040,note_on,1,0,1,,,,,,,,,0,,,91,0
15060,note_on,0,0,3,,,,,,,,,2,,,55,0
15060,note_on,180,0,3,,,,,,,,,2,,,67,0
15060,note_on,0,0,3,,,,,,,,,2,,,65,36
15060,note_on,0,0,3,,,,,,,,,2,,,47,0
15079,note_on,39,0,1,,,,,,,,,0,,,89,0
15080,note_on,1,0,1,,,,,,,,,0,,,89,36
15084,note_on,4,0,1,,,,,,,,,0,,,89,0
15120,note_on,36,0,1,,,,,,,,,0,,,89,36
15120,note_on,60,0,3,,,,,,,,,2,,,65,0
15120,note_on,0,0,3,,,,,,,,,2,,,62,36
15159,note_on,39,0,1,,,,,,,,,0,,,86,36
15160,note_on,1,0,1,,,,,,,,,0,,,89,0
15199,note_on,39,0,1,,,,,,,,,0,,,86,0
15200,note_on,1,0,1,,,,,,,,,0,,,86,36
15204,note_on,4,0,1,,,,,,,,,0,,,86,0
15240,note_on,0,0,1,,,,,,,,,0,,,86,36
15240,control_change,36,0,1,,,,,,,,,0,64,0,,
15240,note_on,0,0,3,,,,,,,,,2,,,64,36
15240,control_change,0,0,3,,,,,,,,,2,64,0,,
15240,note_on,120,0,3,,,,,,,,,2,,,62,0
15279,note_on,39,0,1,,,,,,,,,0,,,88,36
15280,note_on,1,0,1,,,,,,,,,0,,,86,0
15319,note_on,39,0,1,,,,,,,,,0,,,88,0
15320,note_on,1,0,1,,,,,,,,,0,,,88,36
15324,note_on,4,0,1,,,,,,,,,0,,,88,0
15340,note_on,100,0,3,,,,,,,,,2,,,45,36
15350,note_on,10,0,3,,,,,,,,,2,,,52,36
15360,note_on,10,0,3,,,,,,,,,2,,,64,0
15360,note_on,0,0,3,,,,,,,,,2,,,60,36
15360,note_on,0,0,1,,,,,,,,,0,,,76,36
15360,control_change,36,0,1,,,,,,,,,0,64,127,,
15399,note_on,39,0,1,,,,,,,,,0,,,84,36
15400,note_on,1,0,1,,,,,,,,,0,,,76,0
15439,note_on,39,0,1,,,,,,,,,0,,,84,0
15440,note_on,1,0,1,,,,,,,,,0,,,84,36
15480,note_on,0,0,1,,,,,,,,,0,,,86,36
15480,note_on,40,0,1,,,,,,,,,0,,,84,0
15519,note_on,39,0,1,,,,,,,,,0,,,84,36
15520,note_on,1,0,1,,,,,,,,,0,,,86,0
15559,note_on,39,0,1,,,,,,,,,0,,,84,0
15560,control_change,1,0,1,,,,,,,,,0,64,0,,
15560,note_on,0,0,1,,,,,,,,,0,,,84,36
15580,note_on,220,0,3,,,,,,,,,2,,,47,36
15590,note_on,10,0,3,,,,,,,,,2,,,55,36
15600,note_on,0,0,1,,,,,,,,,0,,,83,36
15600,note_on,0,0,3,,,,,,,,,2,,,65,36
15600,control_change,0,0,1,,,,,,,,,0,64,127,,
15600,note_on,40,0,1,,,,,,,,,0,,,84,0
15600,note_on,0,0,3,,,,,,,,,2,,,45,0
15600,note_on,0,0,3,,,,,,,,,2,,,52,0
15600,note_on,10,0,3,,,,,,,,,2,,,60,0
15639,note_on,39,0,1,,,,,,,,,0,,,89,36
15640,note_on,1,0,1,,,,,,,,,0,,,83,0
15679,note_on,39,0,1,,,,,,,,,0,,,89,0
15680,note_on,1,0,1,,,,,,,,,0,,,89,36
15720,note_on,40,0,1,,,,,,,,,0,,,89,0
15720,note_on,0,0,1,,,,,,,,,0,,,91,36
15759,note_on,39,0,1,,,,,,,,,0,,,89,36
15760,note_on,1,0,1,,,,,,,,,0,,,91,0
15799,note_on,39,0,1,,,,,,,,,0,,,89,0
15800,control_change,1,0,1,,,,,,,,,0,64,0,,
15800,note_on,0,0,1,,,,,,,,,0,,,89,36
15820,note_on,220,0,3,,,,,,,,,2,,,48,36
15830,note_on,10,0,3,,,,,,,,,2,,,55,36
15840,note_on,40,0,1,,,,,,,,,0,,,89,0
15840,control_change,0,0,1,,,,,,,,,0,64,127,,
15840,note_on,0,0,1,,,,,,,,,0,,,88,36
15840,note_on,0,0,3,,,,,,,,,2,,,64,36
15840,note_on,0,0,3,,,,,,,,,2,,,55,0
15840,note_on,0,0,3,,,,,,,,,2,,,47,0
15840,control_change,0,0,3,,,,,,,,,2,64,127,,
15840,note_on,10,0,3,,,,,,,,,2,,,65,0
15900,note_on,60,0,1,,,,,,,,,0,,,88,0
15900,note_on,60,0,3,,,,,,,,,2,,,64,0
15900,note_on,0,0,3,,,,,,,,,2,,,48,0
15900,note_on,0,0,3,,,,,,,,,2,,,55,0
15960,note_on,5160,0,2,,,,,,,,,1,,,72,36
15960,note_on,1320,0,4,,,,,,,,,3,,,60,36
15960,note_on,60,0,1,,,,,,,,,0,,,76,36
15960,note_on,60,0,3,,,,,,,,,2,,,67,36
16050,note_on,90,0,1,,,,,,,,,0,,,76,0
16050,note_on,0,0,1,,,,,,,,,0,,,77,36
16065,note_on,15,0,1,,,,,,,,,0,,,77,0
16065,control_change,0,0,1,,,,,,,,,0,64,0,,
16065,note_on,0,0,1,,,,,,,,,0,,,76,36
16080,control_change,0,0,3,,,,,,,,,2,64,0,,
16080,note_on,0,0,3,,,,,,,,,2,,,66,36
16080,note_on,0,0,3,,,,,,,,,2,,,69,36
16080,note_on,15,0,1,,,,,,,,,0,,,76,0
16080,note_on,0,0,1,,,,,,,,,0,,,75,62
16080,note_on,120,0,3,,,,,,,,,2,,,67,0
16170,note_on,90,0,1,,,,,,,,,0,,,75,0
16170,note_on,0,0,1,,,,,,,,,0,,,76,36
16185,note_on,15,0,1,,,,,,,,,0,,,76,0
16185,note_on,0,0,1,,,,,,,,,0,,,77,36
16200,note_on,0,0,3,,,,,,,,,2,,,67,36
16200,note_on,15,0,1,,,,,,,,,0,,,77,0
16200,note_on,0,0,1,,,,,,,,,0,,,76,36
16200,note_on,0,0,3,,,,,,,,,2,,,66,0
16200,note_on,120,0,3,,,,,,,,,2,,,69,0
16260,note_on,60,0,1,,,,,,,,,0,,,76,0
16260,note_on,60,0,3,,,,,,,,,2,,,67,0
16260,note_on,300,0,4,,,,,,,,,3,,,60,0
16260,note_on,300,0,2,,,,,,,,,1,,,72,0
16320,note_on,0,0,1,,,,,,,,,0,,,76,36
16320,control_change,60,0,1,,,,,,,,,0,64,127,,
16320,note_on,0,0,4,,,,,,,,,3,,,52,36
16320,control_change,60,0,3,,,,,,,,,2,64,127,,
16320,note_on,0,0,3,,,,,,,,,2,,,55,36
16320,note_on,60,0,4,,,,,,,,,3,,,48,36
16320,set_tempo,1920,1,0,,,,,,555556,,,,,,,
16359,note_on,39,0,1,,,,,,,,,0,,,79,36
16360,note_on,1,0,1,,,,,,,,,0,,,76,0
16399,note_on,39,0,1,,,,,,,,,0,,,79,0
16400,note_on,1,0,1,,,,,,,,,0,,,79,36
16404,note_on,4,0,1,,,,,,,,,0,,,79,0
16440,note_on,36,0,1,,,,,,,,,0,,,79,36
16479,note_on,39,0,1,,,,,,,,,0,,,84,36
16480,note_on,1,0,1,,,,,,,,,0,,,79,0
16500,note_on,180,0,3,,,,,,,,,2,,,55,0
16500,note_on,0,0,3,,,,,,,,,2,,,60,36
16519,note_on,39,0,1,,,,,,,,,0,,,84,0
16520,note_on,1,0,1,,,,,,,,,0,,,84,36
16524,note_on,4,0,1,,,,,,,,,0,,,84,0
16560,note_on,240,0,4,,,,,,,,,3,,,52,0
16560,note_on,36,0,1,,,,,,,,,0,,,84,36
16560,note_on,0,0,4,,,,,,,,,3,,,48,0
16560,note_on,0,0,3,,,,,,,,,2,,,64,36
16560,note_on,60,0,3,,,,,,,,,2,,,60,0
16599,note_on,39,0,1,,,,,,,,,0,,,88,36
16600,note_on,1,0,1,,,,,,,,,0,,,84,0
16639,note_on,39,0,1,,,,,,,,,0,,,88,0
16640,note_on,1,0,1,,,,,,,,,0,,,88,36
16644,note_on,4,0,1,,,,,,,,,0,,,88,0
16660,note_on,100,0,3,,,,,,,,,2,,,48,36
16670,note_on,10,0,3,,,,,,,,,2,,,60,36
16680,note_on,10,0,3,,,,,,,,,2,,,64,0
16680,control_change,0,0,3,,,,,,,,,2,64,0,,
16680,note_on,0,0,3,,,,,,,,,2,,,69,36
16680,note_on,0,0,1,,,,,,,,,0,,,88,36
16680,control_change,36,0,1,,,,,,,,,0,64,0,,
16719,note_on,39,0,1,,,,,,,,,0,,,93,36
16720,note_on,1,0,1,,,,,,,,,0,,,88,0
16759,note_on,39,0,1,,,,,,,,,0,,,93,0
16760,note_on,1,0,1,,,,,,,,,0,,,93,36
16764,note_on,4,0,1,,,,,,,,,0,,,93,0
16800,note_on,0,0,1,,,,,,,,,0,,,76,49
16800,note_on,0,0,4,,,,,,,,,3,,,52,36
16800,control_change,36,0,1,,,,,,,,,0,64,127,,
16800,note_on,240,0,4,,,,,,,,,3,,,48,36
16800,note_on,120,0,3,,,,,,,,,2,,,69,0
16800,note_on,0,0,3,,,,,,,,,2,,,60,0
16800,note_on,0,0,3,,,,,,,,,2,,,48,0
16800,control_change,0,0,3,,,,,,,,,2,64,127,,
16800,note_on,0,0,3,,,,,,,,,2,,,57,62
16839,note_on,39,0,1,,,,,,,,,0,,,81,49
16840,note_on,1,0,1,,,,,,,,,0,,,76,0
16879,note_on,39,0,1,,,,,,,,,0,,,81,0
16880,note_on,1,0,1,,,,,,,,,0,,,81,49
16884,note_on,4,0,1,,,,,,,,,0,,,81,0
16920,note_on,36,0,1,,,,,,,,,0,,,81,62
16959,note_on,39,0,1,,,,,,,,,0,,,84,62
16960,note_on,1,0,1,,,,,,,,,0,,,81,0
16980,note_on,180,0,3,,,,,,,,,2,,,57,0
16980,note_on,0,0,3,,,,,,,,,2,,,60,75
16999,note_on,39,0,1,,,,,,,,,0,,,84,0
17000,note_on,1,0,1,,,,,,,,,0,,,84,62
17004,note_on,4,0,1,,,,,,,,,0,,,84,0
17040,note_on,36,0,1,,,,,,,,,0,,,84,75
17040,note_on,240,0,4,,,,,,,,,3,,,52,0
17040,note_on,0,0,4,,,,,,,,,3,,,48,0
17040,note_on,0,0,3,,,,,,,,,2,,,64,75
17040,note_on,60,0,3,,,,,,,,,2,,,60,0
17079,note_on,39,0,1,,,,,,,,,0,,,88,75
17080,note_on,1,0,1,,,,,,,,,0,,,84,0
17119,note_on,39,0,1,,,,,,,,,0,,,88,0
17120,note_on,1,0,1,,,,,,,,,0,,,88,75
17124,note_on,4,0,1,,,,,,,,,0,,,88,0
17160,note_on,0,0,3,,,,,,,,,2,,,62,75
17160,note_on,0,0,1,,,,,,,,,0,,,88,88
17160,control_change,36,0,1,,,,,,,,,0,64,0,,
17160,note_on,0,0,3,,,,,,,,,2,,,59,75
17160,note_on,0,0,3,,,,,,,,,2,,,52,75
17160,control_change,0,0,3,,,,,,,,,2,64,0,,
17160,note_on,120,0,3,,,,,,,,,2,,,64,0
17164,note_on,0,0,3,,,,,,,,,2,,,59,0
17164,note_on,4,0,3,,,,,,,,,2,,,62,0
17164,note_on,0,0,3,,,,,,,,,2,,,52,0
17199,note_on,39,0,1,,,,,,,,,0,,,77,88
17199,note_on,35,0,3,,,,,,,,,2,,,52,75
17199,note_on,0,0,1,,,,,,,,,0,,,80,88
17199,note_on,0,0,3,,,,,,,,,2,,,62,75
17199,note_on,0,0,1,,,,,,,,,0,,,89,88
17199,note_on,0,0,3,,,,,,,,,2,,,59,75
17200,note_on,1,0,1,,,,,,,,,0,,,88,0
17203,note_on,4,0,3,,,,,,,,,2,,,62,0
17203,note_on,0,0,3,,,,,,,,,2,,,59,0
17203,note_on,0,0,3,,,,,,,,,2,,,52,0
17239,note_on,0,0,1,,,,,,,,,0,,,80,0
17239,note_on,39,0,1,,,,,,,,,0,,,77,0
17239,note_on,0,0,1,,,,,,,,,0,,,89,0
17240,note_on,37,0,3,,,,,,,,,2,,,52,75
17240,note_on,1,0,1,,,,,,,,,0,,,77,88
17240,note_on,0,0,3,,,,,,,,,2,,,62,75
17240,note_on,0,0,3,,,,,,,,,2,,,59,75
17240,note_on,0,0,1,,,,,,,,,0,,,80,88
17240,note_on,0,0,1,,,,,,,,,0,,,89,88
17244,note_on,0,0,1,,,,,,,,,0,,,77,0
17244,note_on,0,0,3,,,,,,,,,2,,,52,0
17244,note_on,0,0,3,,,,,,,,,2,,,59,0
17244,note_on,4,0,3,,,,,,,,,2,,,62,0
17244,note_on,0,0,1,,,,,,,,,0,,,80,0
17244,note_on,4,0,1,,,,,,,,,0,,,89,0
17280,note_on,36,0,1,,,,,,,,,0,,,77,104
17280,note_on,0,0,1,,,,,,,,,0,,,89,114
17280,note_on,36,0,3,,,,,,,,,2,,,52,91
17280,note_on,0,0,3,,,,,,,,,2,,,59,96
17280,note_on,0,0,3,,,,,,,,,2,,,62,101
17280,note_on,0,0,1,,,,,,,,,0,,,80,109
17520,note_on,240,0,3,,,,,,,,,2,,,62,0
17520,note_on,0,0,3,,,,,,,,,2,,,52,36
17520,note_on,0,0,1,,,,,,,,,0,,,80,0
17520,note_on,0,0,1,,,,,,,,,0,,,77,0
17520,note_on,0,0,1,,,,,,,,,0,,,79,49
17520,note_on,0,0,3,,,,,,,,,2,,,60,36
17520,note_on,0,0,3,,,,,,,,,2,,,52,0
17520,note_on,0,0,3,,,,,,,,,2,,,59,0
17520,note_on,240,0,1,,,,,,,,,0,,,89,0
17559,note_on,39,0,1,,,,,,,,,0,,,89,49
17560,note_on,1,0,1,,,,,,,,,0,,,79,0
17599,note_on,39,0,1,,,,,,,,,0,,,89,0
17600,note_on,1,0,1,,,,,,,,,0,,,88,49
17604,note_on,4,0,1,,,,,,,,,0,,,88,0
17640,note_on,36,0,1,,,,,,,,,0,,,77,49
17640,note_on,120,0,3,,,,,,,,,2,,,60,0
17640,note_on,0,0,3,,,,,,,,,2,,,52,0
17640,note_on,0,0,3,,,,,,,,,2,,,55,36
17640,note_on,0,0,3,,,,,,,,,2,,,59,36
17679,note_on,39,0,1,,,,,,,,,0,,,88,49
17680,note_on,1,0,1,,,,,,,,,0,,,77,0
17719,note_on,39,0,1,,,,,,,,,0,,,88,0
17720,note_on,1,0,1,,,,,,,,,0,,,86,49
17724,note_on,4,0,1,,,,,,,,,0,,,86,0
17760,note_on,120,0,3,,,,,,,,,2,,,59,0
17760,note_on,0,0,3,,,,,,,,,2,,,55,0
17760,control_change,0,0,3,,,,,,,,,2,64,127,,
17760,note_on,0,0,1,,,,,,,,,0,,,84,49
17760,note_on,0,0,1,,,,,,,,,0,,,76,49
17760,control_change,36,0,1,,,,,,,,,0,64,127,,
17760,note_on,0,0,3,,,,,,,,,2,,,60,36
17820,note_on,60,0,3,,,,,,,,,2,,,60,0
17820,note_on,0,0,1,,,,,,,,,0,,,76,0
17820,note_on,60,0,1,,,,,,,,,0,,,84,0
17880,note_on,60,0,3,,,,,,,,,2,,,67,36
17880,note_on,60,0,1,,,,,,,,,0,,,76,36
17880,note_on,1620,0,2,,,,,,,,,1,,,72,36
17880,note_on,840,0,4,,,,,,,,,3,,,60,36
17970,note_on,0,0,1,,,,,,,,,0,,,77,36
17970,note_on,90,0,1,,,,,,,,,0,,,76,0
17985,note_on,0,0,1,,,,,,,,,0,,,76,36
17985,note_on,15,0,1,,,,,,,,,0,,,77,0
17985,control_change,0,0,1,,,,,,,,,0,64,0,,
18000,note_on,15,0,1,,,,,,,,,0,,,76,0
18000,note_on,0,0,1,,,,,,,,,0,,,75,62
18000,note_on,120,0,3,,,,,,,,,2,,,67,0
18000,control_change,0,0,3,,,,,,,,,2,64,0,,
18000,note_on,0,0,3,,,,,,,,,2,,,66,36
18000,note_on,0,0,3,,,,,,,,,2,,,69,36
18090,note_on,90,0,1,,,,,,,,,0,,,75,0
18090,note_on,0,0,1,,,,,,,,,0,,,76,36
18105,note_on,15,0,1,,,,,,,,,0,,,76,0
18105,note_on,0,0,1,,,,,,,,,0,,,77,36
18120,note_on,0,0,3,,,,,,,,,2,,,67,36
18120,note_on,0,0,3,,,,,,,,,2,,,66,0
18120,note_on,0,0,1,,,,,,,,,0,,,76,36
18120,note_on,15,0,1,,,,,,,,,0,,,77,0
18120,note_on,120,0,3,,,,,,,,,2,,,69,0
18180,note_on,60,0,3,,,,,,,,,2,,,67,0
18180,note_on,300,0,2,,,,,,,,,1,,,72,0
18180,note_on,60,0,1,,,,,,,,,0,,,76,0
18180,note_on,300,0,4,,,,,,,,,3,,,60,0
18240,control_change,60,0,1,,,,,,,,,0,64,127,,
18240,note_on,0,0,1,,,,,,,,,0,,,67,36
18240,note_on,0,0,4,,,,,,,,,3,,,48,36
18240,note_on,60,0,4,,,,,,,,,3,,,40,36
18240,control_change,60,0,3,,,,,,,,,2,64,127,,
18240,note_on,0,0,3,,,,,,,,,2,,,48,36
18279,note_on,39,0,1,,,,,,,,,0,,,72,36
18280,note_on,1,0,1,,,,,,,,,0,,,67,0
18319,note_on,39,0,1,,,,,,,,,0,,,72,0
18320,note_on,1,0,1,,,,,,,,,0,,,72,36
18324,note_on,4,0,1,,,,,,,,,0,,,72,0
18360,note_on,36,0,1,,,,,,,,,0,,,72,36
18399,note_on,39,0,1,,,,,,,,,0,,,76,36
18400,note_on,1,0,1,,,,,,,,,0,,,72,0
18420,note_on,0,0,3,,,,,,,,,2,,,52,36
18420,note_on,180,0,3,,,,,,,,,2,,,48,0
18439,note_on,39,0,1,,,,,,,,,0,,,76,0
18440,note_on,1,0,1,,,,,,,,,0,,,76,36
18444,note_on,4,0,1,,,,,,,,,0,,,76,0
18480,note_on,0,0,3,,,,,,,,,2,,,55,36
18480,note_on,60,0,3,,,,,,,,,2,,,52,0
18480,note_on,240,0,4,,,,,,,,,3,,,48,0
18480,note_on,0,0,4,,,,,,,,,3,,,40,0
18480,note_on,36,0,1,,,,,,,,,0,,,76,36
18519,note_on,39,0,1,,,,,,,,,0,,,79,36
18520,note_on,1,0,1,,,,,,,,,0,,,76,0
18559,note_on,39,0,1,,,,,,,,,0,,,79,0
18560,note_on,1,0,1,,,,,,,,,0,,,79,36
18564,note_on,4,0,1,,,,,,,,,0,,,79,0
18580,note_on,100,0,3,,,,,,,,,2,,,40,36
18590,note_on,10,0,3,,,,,,,,,2,,,49,36
18600,note_on,0,0,2,,,,,,,,,1,,,73,36
18600,note_on,420,0,2,,,,,,,,,1,,,70,36
18600,note_on,0,0,3,,,,,,,,,2,,,58,36
18600,control_change,0,0,3,,,,,,,,,2,64,0,,
18600,note_on,10,0,3,,,,,,,,,2,,,55,0
18600,note_on,0,0,1,,,,,,,,,0,,,79,36
18600,control_change,36,0,1,,,,,,,,,0,64,0,,
18639,note_on,39,0,1,,,,,,,,,0,,,82,36
18640,note_on,1,0,1,,,,,,,,,0,,,79,0
18679,note_on,39,0,1,,,,,,,,,0,,,82,0
18680,note_on,1,0,1,,,,,,,,,0,,,82,36
18684,note_on,4,0,1,,,,,,,,,0,,,82,0
18690,note_on,0,0,2,,,,,,,,,1,,,73,36
18690,note_on,90,0,2,,,,,,,,,1,,,73,0
18690,note_on,0,0,2,,,,,,,,,1,,,70,0
18690,note_on,0,0,2,,,,,,,,,1,,,70,36
18720,note_on,0,0,3,,,,,,,,,2,,,50,36
18720,note_on,0,0,2,,,,,,,,,1,,,70,0
18720,note_on,30,0,2,,,,,,,,,1,,,73,0
18720,note_on,0,0,3,,,,,,,,,2,,,40,0
18720,control_change,0,0,3,,,,,,,,,2,64,127,,
18720,note_on,120,0,3,,,,,,,,,2,,,58,0
18720,note_on,0,0,3,,,,,,,,,2,,,49,0
18720,note_on,0,0,1,,,,,,,,,0,,,70,49
18720,control_change,36,0,1,,,,,,,,,0,64,127,,
18720,note_on,240,0,4,,,,,,,,,3,,,41,36
18720,note_on,0,0,4,,,,,,,,,3,,,50,36
18759,note_on,39,0,1,,,,,,,,,0,,,74,49
18760,note_on,1,0,1,,,,,,,,,0,,,70,0
18799,note_on,39,0,1,,,,,,,,,0,,,74,0
18800,note_on,1,0,1,,,,,,,,,0,,,74,49
18804,note_on,4,0,1,,,,,,,,,0,,,74,0
18840,note_on,36,0,1,,,,,,,,,0,,,74,62
18879,note_on,39,0,1,,,,,,,,,0,,,77,62
18880,note_on,1,0,1,,,,,,,,,0,,,74,0
18900,note_on,0,0,3,,,,,,,,,2,,,53,49
18900,note_on,180,0,3,,,,,,,,,2,,,50,0
18919,note_on,39,0,1,,,,,,,,,0,,,77,0
18920,note_on,1,0,1,,,,,,,,,0,,,77,62
18924,note_on,4,0,1,,,,,,,,,0,,,77,0
18960,note_on,0,0,3,,,,,,,,,2,,,58,49
18960,note_on,240,0,4,,,,,,,,,3,,,50,0
18960,control_change,0,0,3,,,,,,,,,2,64,0,,
18960,note_on,0,0,4,,,,,,,,,3,,,41,0
18960,note_on,36,0,1,,,,,,,,,0,,,77,62
18960,note_on,60,0,3,,,,,,,,,2,,,53,0
18999,note_on,39,0,1,,,,,,,,,0,,,82,62
19000,note_on,1,0,1,,,,,,,,,0,,,77,0
19039,note_on,39,0,1,,,,,,,,,0,,,82,0
19040,note_on,0,0,1,,,,,,,,,0,,,82,62
19040,control_change,1,0,1,,,,,,,,,0,64,0,,
19044,note_on,4,0,1,,,,,,,,,0,,,82,0
19080,note_on,0,0,3,,,,,,,,,2,,,58,62
19080,note_on,0,0,3,,,,,,,,,2,,,50,62
19080,note_on,120,0,3,,,,,,,,,2,,,58,0
19080,note_on,36,0,1,,,,,,,,,0,,,82,75
19084,note_on,0,0,3,,,,,,,,,2,,,50,0
19084,note_on,4,0,3,,,,,,,,,2,,,58,0
19119,note_on,0,0,1,,,,,,,,,0,,,86,75
19119,note_on,35,0,3,,,,,,,,,2,,,50,62
19119,note_on,0,0,1,,,,,,,,,0,,,77,75
19119,note_on,39,0,1,,,,,,,,,0,,,74,75
19119,note_on,0,0,3,,,,,,,,,2,,,58,62
19120,note_on,1,0,1,,,,,,,,,0,,,82,0
19123,note_on,0,0,3,,,,,,,,,2,,,50,0
19123,note_on,4,0,3,,,,,,,,,2,,,58,0
19159,note_on,39,0,1,,,,,,,,,0,,,74,0
19159,note_on,0,0,1,,,,,,,,,0,,,77,0
19159,note_on,0,0,1,,,,,,,,,0,,,86,0
19160,note_on,37,0,3,,,,,,,,,2,,,50,62
19160,note_on,0,0,1,,,,,,,,,0,,,86,75
19160,note_on,0,0,1,,,,,,,,,0,,,77,75
19160,note_on,1,0,1,,,,,,,,,0,,,74,75
19160,note_on,0,0,3,,,,,,,,,2,,,58,62
19164,note_on,4,0,1,,,,,,,,,0,,,86,0
19164,note_on,0,0,1,,,,,,,,,0,,,77,0
19164,note_on,0,0,1,,,,,,,,,0,,,74,0
19164,note_on,0,0,3,,,,,,,,,2,,,50,0
19164,note_on,4,0,3,,,,,,,,,2,,,58,0
19200,note_on,0,0,3,,,,,,,,,2,,,57,75
19200,note_on,0,0,3,,,,,,,,,2,,,60,75
19200,note_on,36,0,3,,,,,,,,,2,,,50,75
19200,note_on,36,0,1,,,,,,,,,0,,,75,88
19200,note_on,0,0,1,,,,,,,,,0,,,87,88
19200,note_on,0,0,1,,,,,,,,,0,,,78,88
19440,note_on,0,0,3,,,,,,,,,2,,,50,0
19440,note_on,0,0,1,,,,,,,,,0,,,75,0
19440,note_on,0,0,1,,,,,,,,,0,,,77,49
19440,note_on,240,0,3,,,,,,,,,2,,,60,0
19440,note_on,0,0,3,,,,,,,,,2,,,57,0
19440,note_on,0,0,1,,,,,,,,,0,,,78,0
19440,note_on,0,0,3,,,,,,,,,2,,,50,36
19440,note_on,0,0,3,,,,,,,,,2,,,58,36
19440,note_on,240,0,1,,,,,,,,,0,,,87,0
19479,note_on,39,0,1,,,,,,,,,0,,,87,49
19480,note_on,1,0,1,,,,,,,,,0,,,77,0
19519,note_on,39,0,1,,,,,,,,,0,,,87,0
19520,note_on,1,0,1,,,,,,,,,0,,,86,49
19524,note_on,4,0,1,,,,,,,,,0,,,86,0
19560,note_on,36,0,1,,,,,,,,,0,,,77,49
19560,note_on,120,0,3,,,,,,,,,2,,,58,0
19560,note_on,0,0,3,,,,,,,,,2,,,50,0
19560,note_on,0,0,3,,,,,,,,,2,,,57,36
19560,note_on,0,0,3,,,,,,,,,2,,,53,36
19560,note_on,0,0,3,,,,,,,,,2,,,45,36
19599,note_on,39,0,1,,,,,,,,,0,,,86,49
19600,note_on,1,0,1,,,,,,,,,0,,,77,0
19639,note_on,39,0,1,,,,,,,,,0,,,86,0
19640,note_on,1,0,1,,,,,,,,,0,,,84,49
19644,note_on,4,0,1,,,,,,,,,0,,,84,0
19680,note_on,0,0,3,,,,,,,,,2,,,45,91
19680,note_on,36,0,1,,,,,,,,,0,,,73,104
19680,note_on,0,0,1,,,,,,,,,0,,,85,114
19680,note_on,0,0,3,,,,,,,,,2,,,45,0
19680,note_on,120,0,3,,,,,,,,,2,,,57,0
19680,note_on,0,0,3,,,,,,,,,2,,,53,0
19680,note_on,0,0,3,,,,,,,,,2,,,58,101
19680,note_on,0,0,3,,,,,,,,,2,,,55,96
19680,note_on,0,0,1,,,,,,,,,0,,,76,109
19740,set_tempo,3420,1,0,,,,,,571429,,,,,,,
19800,set_tempo,60,1,0,,,,,,588235,,,,,,,
19860,set_tempo,60,1,0,,,,,,606061,,,,,,,
19920,note_on,0,0,3,,,,,,,,,2,,,55,0
19920,note_on,0,0,1,,,,,,,,,0,,,76,0
19920,set_tempo,60,1,0,,,,,,631579,,,,,,,
19920,note_on,0,0,3,,,,,,,,,2,,,57,36
19920,note_on,240,0,1,,,,,,,,,0,,,85,0
19920,note_on,0,0,3,,,,,,,,,2,,,45,36
19920,note_on,0,0,3,,,,,,,,,2,,,45,0
19920,note_on,0,0,3,,,,,,,,,2,,,53,36
19920,note_on,240,0,3,,,,,,,,,2,,,58,0
19920,note_on,0,0,1,,,,,,,,,0,,,72,49
19920,note_on,0,0,1,,,,,,,,,0,,,73,0
19959,note_on,39,0,1,,,,,,,,,0,,,85,49
19960,note_on,1,0,1,,,,,,,,,0,,,72,0
19980,set_tempo,60,1,0,,,,,,652174,,,,,,,
19999,note_on,39,0,1,,,,,,,,,0,,,85,0
20000,note_on,1,0,1,,,,,,,,,0,,,84,49
20004,note_on,4,0,1,,,,,,,,,0,,,84,0
20040,note_on,0,0,3,,,,,,,,,2,,,41,36
20040,note_on,0,0,3,,,,,,,,,2,,,48,36
20040,note_on,0,0,3,,,,,,,,,2,,,53,36
20040,set_tempo,60,1,0,,,,,,674157,,,,,,,
20040,note_on,120,0,3,,,,,,,,,2,,,57,0
20040,note_on,0,0,3,,,,,,,,,2,,,45,0
20040,note_on,36,0,1,,,,,,,,,0,,,72,49
20040,note_on,0,0,3,,,,,,,,,2,,,53,0
20079,note_on,39,0,1,,,,,,,,,0,,,82,49
20080,note_on,1,0,1,,,,,,,,,0,,,72,0
20100,set_tempo,60,1,0,,,,,,697674,,,,,,,
20119,note_on,39,0,1,,,,,,,,,0,,,82,0
20120,note_on,1,0,1,,,,,,,,,0,,,81,49
20124,note_on,4,0,1,,,,,,,,,0,,,81,0
20140,note_on,100,0,3,,,,,,,,,2,,,40,36
20150,note_on,10,0,3,,,,,,,,,2,,,48,36
20160,note_on,0,0,3,,,,,,,,,2,,,41,0
20160,note_on,0,0,3,,,,,,,,,2,,,48,0
20160,control_change,0,0,3,,,,,,,,,2,64,127,,
20160,set_tempo,60,1,0,,,,,,576923,,,,,,,
20160,note_on,0,0,3,,,,,,,,,2,,,60,36
20160,note_on,10,0,3,,,,,,,,,2,,,53,0
20160,note_on,0,0,1,,,,,,,,,0,,,86,36
20160,control_change,36,0,1,,,,,,,,,0,64,127,,
20199,note_on,39,0,1,,,,,,,,,0,,,84,36
20200,note_on,1,0,1,,,,,,,,,0,,,86,0
20239,note_on,39,0,1,,,,,,,,,0,,,84,0
20240,note_on,1,0,1,,,,,,,,,0,,,84,36
20244,note_on,4,0,1,,,,,,,,,0,,,84,0
20280,note_on,36,0,1,,,,,,,,,0,,,84,36
20319,note_on,39,0,1,,,,,,,,,0,,,82,36
20320,note_on,1,0,1,,,,,,,,,0,,,84,0
20340,note_on,180,0,3,,,,,,,,,2,,,60,0
20340,note_on,0,0,3,,,,,,,,,2,,,48,0
20340,note_on,0,0,3,,,,,,,,,2,,,40,0
20340,note_on,0,0,3,,,,,,,,,2,,,58,36
20359,note_on,39,0,1,,,,,,,,,0,,,82,0
20360,note_on,1,0,1,,,,,,,,,0,,,82,36
20364,note_on,4,0,1,,,,,,,,,0,,,82,0
20400,note_on,36,0,1,,,,,,,,,0,,,82,36
20400,note_on,60,0,3,,,,,,,,,2,,,58,0
20400,note_on,0,0,3,,,,,,,,,2,,,55,36
20439,note_on,39,0,1,,,,,,,,,0,,,79,36
20440,note_on,1,0,1,,,,,,,,,0,,,82,0
20479,note_on,39,0,1,,,,,,,,,0,,,79,0
20480,note_on,1,0,1,,,,,,,,,0,,,79,36
20484,note_on,4,0,1,,,,,,,,,0,,,79,0
20520,note_on,120,0,3,,,,,,,,,2,,,55,0
20520,note_on,0,0,3,,,,,,,,,2,,,57,36
20520,note_on,0,0,1,,,,,,,,,0,,,79,36
20520,control_change,36,0,1,,,,,,,,,0,64,0,,
20520,control_change,0,0,3,,,,,,,,,2,64,0,,
20559,note_on,39,0,1,,,,,,,,,0,,,81,36
20560,note_on,1,0,1,,,,,,,,,0,,,79,0
20599,note_on,39,0,1,,,,,,,,,0,,,81,0
20600,note_on,1,0,1,,,,,,,,,0,,,81,36
20604,note_on,4,0,1,,,,,,,,,0,,,81,0
20620,note_on,100,0,3,,,,,,,,,2,,,38,36
20630,note_on,10,0,3,,,,,,,,,2,,,45,36
20640,note_on,0,0,3,,,,,,,,,2,,,53,36
20640,note_on,10,0,3,,,,,,,,,2,,,57,0
20640,control_change,36,0,1,,,,,,,,,0,64,127,,
20640,note_on,0,0,1,,,,,,,,,0,,,69,36
20679,note_on,39,0,1,,,,,,,,,0,,,77,36
20680,note_on,1,0,1,,,,,,,,,0,,,69,0
20719,note_on,39,0,1,,,,,,,,,0,,,77,0
20720,note_on,1,0,1,,,,,,,,,0,,,77,36
20724,note_on,4,0,1,,,,,,,,,0,,,77,0
20760,note_on,36,0,1,,,,,,,,,0,,,79,36
20799,note_on,39,0,1,,,,,,,,,0,,,77,36
20800,note_on,1,0,1,,,,,,,,,0,,,79,0
20839,note_on,39,0,1,,,,,,,,,0,,,77,0
20840,control_change,1,0,1,,,,,,,,,0,64,0,,
20840,note_on,0,0,1,,,,,,,,,0,,,77,36
20844,note_on,4,0,1,,,,,,,,,0,,,77,0
20860,note_on,220,0,3,,,,,,,,,2,,,40,36
20870,note_on,10,0,3,,,,,,,,,2,,,48,36
20880,note_on,0,0,3,,,,,,,,,2,,,38,0
20880,note_on,10,0,3,,,,,,,,,2,,,53,0
20880,control_change,36,0,1,,,,,,,,,0,64,127,,
20880,note_on,0,0,1,,,,,,,,,0,,,76,36
20880,note_on,0,0,3,,,,,,,,,2,,,55,36
20880,note_on,0,0,3,,,,,,,,,2,,,45,0
20919,note_on,39,0,1,,,,,,,,,0,,,82,36
20920,note_on,1,0,1,,,,,,,,,0,,,76,0
20959,note_on,39,0,1,,,,,,,,,0,,,82,0
20960,note_on,1,0,1,,,,,,,,,0,,,82,36
20964,note_on,4,0,1,,,,,,,,,0,,,82,0
21000,note_on,36,0,1,,,,,,,,,0,,,84,36
21039,note_on,39,0,1,,,,,,,,,0,,,82,36
21040,note_on,1,0,1,,,,,,,,,0,,,84,0
21079,note_on,39,0,1,,,,,,,,,0,,,82,0
21080,control_change,1,0,1,,,,,,,,,0,64,0,,
21080,note_on,0,0,1,,,,,,,,,0,,,82,36
21084,note_on,4,0,1,,,,,,,,,0,,,82,0
21120,note_on,0,0,3,,,,,,,,,2,,,57,36
21120,note_on,0,0,3,,,,,,,,,2,,,48,36
21120,note_on,0,0,3,,,,,,,,,2,,,41,36
21120,control_change,0,0,3,,,,,,,,,2,64,127,,
21120,note_on,0,0,3,,,,,,,,,2,,,48,0
21120,note_on,0,0,3,,,,,,,,,2,,,40,0
21120,note_on,240,0,3,,,,,,,,,2,,,55,0
21120,note_on,0,0,1,,,,,,,,,0,,,81,36
21120,control_change,36,0,1,,,,,,,,,0,64,127,,
21180,note_on,60,0,3,,,,,,,,,2,,,57,0
21180,note_on,60,0,1,,,,,,,,,0,,,81,0
21180,note_on,0,0,3,,,,,,,,,2,,,41,0
21180,note_on,0,0,3,,,,,,,,,2,,,48,0
21240,note_on,60,0,3,,,,,,,,,2,,,60,36
21240,note_on,2520,0,2,,,,,,,,,1,,,65,36
21240,note_on,2280,0,4,,,,,,,,,3,,,53,36
21240,note_on,60,0,1,,,,,,,,,0,,,69,36
21330,note_on,90,0,1,,,,,,,,,0,,,69,0
21330,control_change,0,0,1,,,,,,,,,0,64,0,,
21330,note_on,0,0,1,,,,,,,,,0,,,70,36
21345,note_on,15,0,1,,,,,,,,,0,,,70,0
21345,note_on,0,0,1,,,,,,,,,0,,,69,36
21360,note_on,0,0,3,,,,,,,,,2,,,59,36
21360,note_on,0,0,3,,,,,,,,,2,,,62,36
21360,note_on,15,0,1,,,,,,,,,0,,,69,0
21360,note_on,0,0,1,,,,,,,,,0,,,68,62
21360,control_change,0,0,3,,,,,,,,,2,64,0,,
21360,note_on,120,0,3,,,,,,,,,2,,,60,0
21450,note_on,0,0,1,,,,,,,,,0,,,69,36
21450,note_on,90,0,1,,,,,,,,,0,,,68,0
21465,note_on,15,0,1,,,,,,,,,0,,,69,0
21465,note_on,0,0,1,,,,,,,,,0,,,70,36
21480,note_on,0,0,3,,,,,,,,,2,,,60,36
21480,note_on,0,0,3,,,,,,,,,2,,,59,0
21480,note_on,120,0,3,,,,,,,,,2,,,62,0
21480,note_on,15,0,1,,,,,,,,,0,,,70,0
21480,note_on,0,0,1,,,,,,,,,0,,,69,36
21540,note_on,300,0,4,,,,,,,,,3,,,53,0
21540,note_on,60,0,3,,,,,,,,,2,,,60,0
21540,note_on,300,0,2,,,,,,,,,1,,,65,0
21540,note_on,60,0,1,,,,,,,,,0,,,69,0
21600,note_on,60,0,4,,,,,,,,,3,,,52,36
21600,set_tempo,1440,1,0,,,,,,555556,,,,,,,
21600,control_change,60,0,1,,,,,,,,,0,64,127,,
21600,note_on,0,0,4,,,,,,,,,3,,,60,36
21600,note_on,0,0,1,,,,,,,,,0,,,98,36
21600,control_change,60,0,3,,,,,,,,,2,64,127,,
21600,note_on,0,0,3,,,,,,,,,2,,,72,62
21639,note_on,39,0,1,,,,,,,,,0,,,96,36
21640,note_on,1,0,1,,,,,,,,,0,,,98,0
21679,note_on,39,0,1,,,,,,,,,0,,,96,0
21680,note_on,1,0,1,,,,,,,,,0,,,96,36
21684,note_on,4,0,1,,,,,,,,,0,,,96,0
21720,note_on,36,0,1,,,,,,,,,0,,,96,36
21759,note_on,39,0,1,,,,,,,,,0,,,94,36
21760,note_on,1,0,1,,,,,,,,,0,,,96,0
21780,note_on,180,0,3,,,,,,,,,2,,,72,0
21780,note_on,0,0,3,,,,,,,,,2,,,70,36
21799,note_on,39,0,1,,,,,,,,,0,,,94,0
21800,note_on,1,0,1,,,,,,,,,0,,,94,36
21804,note_on,4,0,1,,,,,,,,,0,,,94,0
21840,note_on,240,0,4,,,,,,,,,3,,,60,0
21840,note_on,36,0,1,,,,,,,,,0,,,94,36
21840,note_on,0,0,4,,,,,,,,,3,,,52,0
21840,note_on,0,0,3,,,,,,,,,2,,,67,36
21840,note_on,60,0,3,,,,,,,,,2,,,70,0
21879,note_on,39,0,1,,,,,,,,,0,,,91,36
21880,note_on,1,0,1,,,,,,,,,0,,,94,0
21919,note_on,39,0,1,,,,,,,,,0,,,91,0
21920,note_on,1,0,1,,,,,,,,,0,,,91,36
21924,note_on,4,0,1,,,,,,,,,0,,,91,0
21960,note_on,120,0,3,,,,,,,,,2,,,67,0
21960,control_change,0,0,3,,,,,,,,,2,64,0,,
21960,note_on,0,0,3,,,,,,,,,2,,,69,36
21960,note_on,0,0,1,,,,,,,,,0,,,91,36
21960,control_change,36,0,1,,,,,,,,,0,64,0,,
21999,note_on,39,0,1,,,,,,,,,0,,,93,36
22000,note_on,1,0,1,,,,,,,,,0,,,91,0
22039,note_on,39,0,1,,,,,,,,,0,,,93,0
22040,note_on,1,0,1,,,,,,,,,0,,,93,36
22044,note_on,4,0,1,,,,,,,,,0,,,93,0
22080,control_change,36,0,1,,,,,,,,,0,64,127,,
22080,note_on,0,0,1,,,,,,,,,0,,,81,36
22080,note_on,0,0,3,,,,,,,,,2,,,65,36
22080,note_on,0,0,3,,,,,,,,,2,,,57,36
22080,note_on,120,0,3,,,,,,,,,2,,,69,0
22080,note_on,0,0,3,,,,,,,,,2,,,50,36
22119,note_on,39,0,1,,,,,,,,,0,,,89,36
22120,note_on,1,0,1,,,,,,,,,0,,,81,0
22159,note_on,39,0,1,,,,,,,,,0,,,89,0
22160,note_on,1,0,1,,,,,,,,,0,,,89,36
22164,note_on,4,0,1,,,,,,,,,0,,,89,0
22200,note_on,36,0,1,,,,,,,,,0,,,91,36
22239,note_on,39,0,1,,,,,,,,,0,,,89,36
22240,note_on,1,0,1,,,,,,,,,0,,,91,0
22279,note_on,39,0,1,,,,,,,,,0,,,89,0
22280,control_change,1,0,1,,,,,,,,,0,64,0,,
22280,note_on,0,0,1,,,,,,,,,0,,,89,36
22284,note_on,4,0,1,,,,,,,,,0,,,89,0
22320,control_change,36,0,1,,,,,,,,,0,64,127,,
22320,note_on,0,0,1,,,,,,,,,0,,,82,36
22320,note_on,240,0,3,,,,,,,,,2,,,65,0
22320,note_on,0,0,3,,,,,,,,,2,,,57,0
22320,note_on,0,0,3,,,,,,,,,2,,,48,36
22320,note_on,0,0,3,,,,,,,,,2,,,58,36
22320,note_on,0,0,3,,,,,,,,,2,,,50,0
22320,note_on,0,0,3,,,,,,,,,2,,,64,36
22359,note_on,39,0,1,,,,,,,,,0,,,91,36
22360,note_on,1,0,1,,,,,,,,,0,,,82,0
22399,note_on,39,0,1,,,,,,,,,0,,,91,0
22400,note_on,1,0,1,,,,,,,,,0,,,91,36
22404,note_on,4,0,1,,,,,,,,,0,,,91,0
22440,note_on,36,0,1,,,,,,,,,0,,,94,36
22479,note_on,39,0,1,,,,,,,,,0,,,93,36
22480,note_on,1,0,1,,,,,,,,,0,,,94,0
22519,note_on,39,0,1,,,,,,,,,0,,,93,0
22520,control_change,1,0,1,,,,,,,,,0,64,0,,
22520,note_on,0,0,1,,,,,,,,,0,,,91,36
22524,note_on,4,0,1,,,,,,,,,0,,,91,0
22560,control_change,0,0,3,,,,,,,,,2,64,127,,
22560,note_on,240,0,3,,,,,,,,,2,,,64,0
22560,control_change,36,0,1,,,,,,,,,0,64,127,,
22560,note_on,0,0,1,,,,,,,,,0,,,89,36
22560,note_on,0,0,3,,,,,,,,,2,,,48,0
22560,note_on,0,0,3,,,,,,,,,2,,,53,36
22560,note_on,0,0,3,,,,,,,,,2,,,57,36
22560,note_on,0,0,3,,,,,,,,,2,,,58,0
22560,note_on,0,0,3,,,,,,,,,2,,,65,36
22620,note_on,60,0,3,,,,,,,,,2,,,65,0
22620,note_on,0,0,3,,,,,,,,,2,,,57,0
22620,note_on,0,0,3,,,,,,,,,2,,,53,0
22620,note_on,60,0,1,,,,,,,,,0,,,89,0
22680,note_on,1140,0,2,,,,,,,,,1,,,65,36
22680,note_on,60,0,1,,,,,,,,,0,,,69,36
22680,note_on,840,0,4,,,,,,,,,3,,,53,36
22680,note_on,60,0,3,,,,,,,,,2,,,60,36
22770,note_on,0,0,1,,,,,,,,,0,,,70,36
22770,note_on,90,0,1,,,,,,,,,0,,,69,0
22770,control_change,0,0,1,,,,,,,,,0,64,0,,
22785,note_on,0,0,1,,,,,,,,,0,,,69,36
22785,note_on,15,0,1,,,,,,,,,0,,,70,0
22800,note_on,15,0,1,,,,,,,,,0,,,69,0
22800,note_on,0,0,3,,,,,,,,,2,,,62,36
22800,note_on,0,0,3,,,,,,,,,2,,,59,36
22800,control_change,0,0,3,,,,,,,,,2,64,0,,
22800,note_on,120,0,3,,,,,,,,,2,,,60,0
22800,note_on,0,0,1,,,,,,,,,0,,,68,62
22890,note_on,0,0,1,,,,,,,,,0,,,69,36
22890,note_on,90,0,1,,,,,,,,,0,,,68,0
22905,note_on,0,0,1,,,,,,,,,0,,,70,36
22905,note_on,15,0,1,,,,,,,,,0,,,69,0
22920,note_on,0,0,1,,,,,,,,,0,,,69,36
22920,note_on,15,0,1,,,,,,,,,0,,,70,0
22920,note_on,0,0,3,,,,,,,,,2,,,59,0
22920,note_on,0,0,3,,,,,,,,,2,,,60,36
22920,note_on,120,0,3,,,,,,,,,2,,,62,0
22980,note_on,60,0,1,,,,,,,,,0,,,69,0
22980,note_on,300,0,2,,,,,,,,,1,,,65,0
22980,note_on,60,0,3,,,,,,,,,2,,,60,0
22980,note_on,300,0,4,,,,,,,,,3,,,53,0
23160,note_on,0,0,1,,,,,,,,,0,,,72,36
23160,control_change,180,0,1,,,,,,,,,0,64,127,,
23160,control_change,180,0,3,,,,,,,,,2,64,127,,
23160,note_on,0,0,3,,,,,,,,,2,,,60,36
23250,note_on,90,0,3,,,,,,,,,2,,,60,0
23250,note_on,0,0,3,,,,,,,,,2,,,61,36
23250,note_on,90,0,1,,,,,,,,,0,,,72,0
23250,note_on,0,0,1,,,,,,,,,0,,,73,36
23265,note_on,0,0,3,,,,,,,,,2,,,60,36
23265,note_on,15,0,3,,,,,,,,,2,,,61,0
23265,note_on,15,0,1,,,,,,,,,0,,,73,0
23265,note_on,0,0,1,,,,,,,,,0,,,72,36
23280,note_on,15,0,3,,,,,,,,,2,,,60,0
23280,note_on,0,0,3,,,,,,,,,2,,,59,62
23280,note_on,15,0,1,,,,,,,,,0,,,72,0
23280,note_on,0,0,1,,,,,,,,,0,,,71,62
23370,note_on,90,0,1,,,,,,,,,0,,,71,0
23370,note_on,0,0,1,,,,,,,,,0,,,72,36
23370,control_change,0,0,1,,,,,,,,,0,64,0,,
23370,note_on,90,0,3,,,,,,,,,2,,,59,0
23370,control_change,0,0,3,,,,,,,,,2,64,0,,
23370,note_on,0,0,3,,,,,,,,,2,,,60,36
23385,note_on,15,0,1,,,,,,,,,0,,,72,0
23385,note_on,0,0,1,,,,,,,,,0,,,73,36
23385,note_on,0,0,3,,,,,,,,,2,,,61,36
23385,note_on,15,0,3,,,,,,,,,2,,,60,0
23400,note_on,0,0,1,,,,,,,,,0,,,72,36
23400,note_on,15,0,1,,,,,,,,,0,,,73,0
23400,note_on,15,0,3,,,,,,,,,2,,,61,0
23400,note_on,0,0,3,,,,,,,,,2,,,60,36
23460,note_on,60,0,1,,,,,,,,,0,,,72,0
23460,note_on,60,0,3,,,,,,,,,2,,,60,0
23520,control_change,60,0,3,,,,,,,,,2,64,127,,
23520,control_change,60,0,1,,,,,,,,,0,64,127,,
23520,note_on,0,0,1,,,,,,,,,0,,,71,62
23520,note_on,0,0,3,,,,,,,,,2,,,59,49
23610,note_on,0,0,1,,,,,,,,,0,,,72,62
23610,note_on,90,0,3,,,,,,,,,2,,,59,0
23610,note_on,90,0,1,,,,,,,,,0,,,71,0
23610,note_on,0,0,3,,,,,,,,,2,,,60,49
23625,note_on,15,0,3,,,,,,,,,2,,,60,0
23625,note_on,15,0,1,,,,,,,,,0,,,72,0
23625,control_change,0,0,1,,,,,,,,,0,64,0,,
23625,note_on,0,0,1,,,,,,,,,0,,,73,62
23625,note_on,0,0,3,,,,,,,,,2,,,61,49
23640,note_on,0,0,1,,,,,,,,,0,,,72,75
23640,note_on,15,0,1,,,,,,,,,0,,,73,0
23640,control_change,0,0,3,,,,,,,,,2,64,0,,
23640,note_on,15,0,3,,,,,,,,,2,,,61,0
23640,note_on,0,0,3,,,,,,,,,2,,,60,62
23730,note_on,90,0,3,,,,,,,,,2,,,60,0
23730,note_on,0,0,3,,,,,,,,,2,,,58,62
23730,note_on,90,0,1,,,,,,,,,0,,,72,0
23730,note_on,0,0,1,,,,,,,,,0,,,70,75
23745,note_on,15,0,1,,,,,,,,,0,,,70,0
23745,note_on,15,0,3,,,,,,,,,2,,,58,0
23745,note_on,0,0,3,,,,,,,,,2,,,56,75
23745,note_on,0,0,1,,,,,,,,,0,,,68,75
23760,note_on,0,0,3,,,,,,,,,2,,,55,75
23760,control_change,0,0,1,,,,,,,,,0,64,127,,
23760,note_on,0,0,1,,,,,,,,,0,,,67,88
23760,note_on,15,0,3,,,,,,,,,2,,,56,0
23760,control_change,0,0,3,,,,,,,,,2,64,127,,
23760,note_on,15,0,1,,,,,,,,,0,,,68,0
23850,note_on,90,0,3,,,,,,,,,2,,,55,0
23850,note_on,90,0,1,,,,,,,,,0,,,67,0
23850,note_on,0,0,3,,,,,,,,,2,,,56,75
23850,note_on,0,0,1,,,,,,,,,0,,,68,88
23865,note_on,0,0,1,,,,,,,,,0,,,70,88
23865,note_on,0,0,3,,,,,,,,,2,,,58,62
23865,note_on,15,0,3,,,,,,,,,2,,,56,0
23865,note_on,15,0,1,,,,,,,,,0,,,68,0
23880,control_change,0,0,1,,,,,,,,,0,64,0,,
23880,note_on,0,0,1,,,,,,,,,0,,,68,75
23880,note_on,15,0,1,,,,,,,,,0,,,70,0
23880,note_on,0,0,3,,,,,,,,,2,,,56,62
23880,note_on,15,0,3,,,,,,,,,2,,,58,0
23880,control_change,0,0,3,,,,,,,,,2,64,0,,
23970,note_on,90,0,1,,,,,,,,,0,,,68,0
23970,note_on,0,0,1,,,,,,,,,0,,,67,75
23970,note_on,0,0,3,,,,,,,,,2,,,55,62
23970,note_on,90,0,3,,,,,,,,,2,,,56,0
23985,note_on,0,0,1,,,,,,,,,0,,,65,75
23985,note_on,15,0,1,,,,,,,,,0,,,67,0
23985,note_on,15,0,3,,,,,,,,,2,,,55,0
23985,note_on,0,0,3,,,,,,,,,2,,,53,62
24000,note_on,0,0,1,,,,,,,,,0,,,60,49
24000,note_on,15,0,3,,,,,,,,,2,,,53,0
24000,note_on,0,0,3,,,,,,,,,2,,,48,36
24000,note_on,0,0,3,,,,,,,,,2,,,53,36
24000,note_on,0,0,3,,,,,,,,,2,,,57,36
24000,note_on,15,0,1,,,,,,,,,0,,,65,0
24000,control_change,0,0,1,,,,,,,,,0,64,127,,
24240,note_on,240,0,1,,,,,,,,,0,,,60,0
24240,note_on,0,0,1,,,,,,,,,0,,,72,49
24330,note_on,90,0,1,,,,,,,,,0,,,72,0
24330,note_on,0,0,1,,,,,,,,,0,,,74,49
24345,note_on,15,0,1,,,,,,,,,0,,,74,0
24345,note_on,0,0,1,,,,,,,,,0,,,76,49
24360,note_on,15,0,1,,,,,,,,,0,,,76,0
24360,note_on,0,0,1,,,,,,,,,0,,,77,49
24450,note_on,0,0,1,,,,,,,,,0,,,79,49
24450,note_on,90,0,1,,,,,,,,,0,,,77,0
24465,note_on,15,0,1,,,,,,,,,0,,,79,0
24465,control_change,0,0,1,,,,,,,,,0,64,0,,
24465,note_on,0,0,1,,,,,,,,,0,,,81,49
24480,note_on,480,0,3,,,,,,,,,2,,,57,0
24480,note_on,0,0,3,,,,,,,,,2,,,53,0
24480,note_on,0,0,3,,,,,,,,,2,,,48,0
24480,note_on,0,0,3,,,,,,,,,2,,,55,101
24480,note_on,0,0,3,,,,,,,,,2,,,52,101
24480,note_on,0,0,3,,,,,,,,,2,,,45,101
24480,note_on,0,0,1,,,,,,,,,0,,,82,114
24480,note_on,0,0,1,,,,,,,,,0,,,73,114
24480,note_on,0,0,1,,,,,,,,,0,,,70,114
24480,note_on,15,0,1,,,,,,,,,0,,,81,0
24720,note_on,0,0,1,,,,,,,,,0,,,73,0
24720,note_on,0,0,1,,,,,,,,,0,,,70,0
24720,note_on,1740,0,2,,,,,,,,,1,,,74,36
24720,note_on,0,0,1,,,,,,,,,0,,,82,36
24720,control_change,0,0,1,,,,,,,,,0,64,127,,
24720,note_on,240,0,1,,,,,,,,,0,,,82,0
24735,note_on,15,0,1,,,,,,,,,0,,,82,0
24735,note_on,0,0,1,,,,,,,,,0,,,84,36
24750,note_on,15,0,1,,,,,,,,,0,,,84,0
24750,note_on,0,0,1,,,,,,,,,0,,,82,36
24765,note_on,0,0,1,,,,,,,,,0,,,84,36
24765,note_on,15,0,1,,,,,,,,,0,,,82,0
24780,note_on,15,0,1,,,,,,,,,0,,,84,0
24780,note_on,0,0,1,,,,,,,,,0,,,82,36
24795,note_on,15,0,1,,,,,,,,,0,,,82,0
24795,note_on,0,0,1,,,,,,,,,0,,,84,36
24810,note_on,15,0,1,,,,,,,,,0,,,84,0
24810,note_on,0,0,1,,,,,,,,,0,,,81,36
24825,note_on,15,0,1,,,,,,,,,0,,,81,0
24825,note_on,0,0,1,,,,,,,,,0,,,82,36
24840,note_on,0,0,1,,,,,,,,,0,,,88,36
24840,note_on,15,0,1,,,,,,,,,0,,,82,0
24900,control_change,0,0,1,,,,,,,,,0,64,0,,
24900,note_on,60,0,1,,,,,,,,,0,,,88,0
24900,note_on,0,0,1,,,,,,,,,0,,,82,36
24930,note_on,30,0,1,,,,,,,,,0,,,82,0
24960,note_on,240,0,2,,,,,,,,,1,,,74,0
24960,note_on,0,0,2,,,,,,,,,1,,,72,36
24960,note_on,0,0,1,,,,,,,,,0,,,81,36
24960,note_on,0,0,3,,,,,,,,,2,,,52,0
24960,note_on,0,0,3,,,,,,,,,2,,,53,36
24960,note_on,480,0,3,,,,,,,,,2,,,55,0
24960,control_change,30,0,1,,,,,,,,,0,64,127,,
24975,note_on,0,0,1,,,,,,,,,0,,,82,36
24975,note_on,15,0,1,,,,,,,,,0,,,81,0
24990,note_on,0,0,1,,,,,,,,,0,,,81,36
24990,note_on,15,0,1,,,,,,,,,0,,,82,0
25005,note_on,15,0,1,,,,,,,,,0,,,81,0
25005,note_on,0,0,1,,,,,,,,,0,,,82,36
25020,note_on,15,0,1,,,,,,,,,0,,,82,0
25020,note_on,0,0,1,,,,,,,,,0,,,81,36
25035,note_on,15,0,1,,,,,,,,,0,,,81,0
25035,note_on,0,0,1,,,,,,,,,0,,,82,36
25050,note_on,0,0,1,,,,,,,,,0,,,80,36
25050,note_on,15,0,1,,,,,,,,,0,,,82,0
25065,note_on,0,0,1,,,,,,,,,0,,,81,36
25065,note_on,15,0,1,,,,,,,,,0,,,80,0
25080,note_on,0,0,1,,,,,,,,,0,,,84,36
25080,note_on,15,0,1,,,,,,,,,0,,,81,0
25140,note_on,0,0,1,,,,,,,,,0,,,81,36
25140,note_on,60,0,1,,,,,,,,,0,,,84,0
25170,control_change,0,0,1,,,,,,,,,0,64,0,,
25170,note_on,30,0,1,,,,,,,,,0,,,81,0
25200,note_on,0,0,2,,,,,,,,,1,,,72,36
25200,note_on,240,0,2,,,,,,,,,1,,,72,0
25200,control_change,30,0,1,,,,,,,,,0,64,127,,
25200,note_on,240,0,3,,,,,,,,,2,,,53,0
25200,note_on,0,0,3,,,,,,,,,2,,,45,0
25200,note_on,0,0,3,,,,,,,,,2,,,48,36
25200,note_on,0,0,3,,,,,,,,,2,,,52,36
25200,note_on,0,0,3,,,,,,,,,2,,,58,36
25200,note_on,0,0,1,,,,,,,,,0,,,79,36
25215,note_on,0,0,1,,,,,,,,,0,,,81,36
25215,note_on,15,0,1,,,,,,,,,0,,,79,0
25230,note_on,0,0,1,,,,,,,,,0,,,79,36
25230,note_on,15,0,1,,,,,,,,,0,,,81,0
25245,note_on,0,0,1,,,,,,,,,0,,,81,36
25245,note_on,15,0,1,,,,,,,,,0,,,79,0
25260,note_on,15,0,1,,,,,,,,,0,,,81,0
25260,note_on,0,0,1,,,,,,,,,0,,,79,36
25275,note_on,15,0,1,,,,,,,,,0,,,79,0
25275,note_on,0,0,1,,,,,,,,,0,,,81,36
25290,note_on,15,0,1,,,,,,,,,0,,,81,0
25290,note_on,0,0,1,,,,,,,,,0,,,78,36
25305,note_on,15,0,1,,,,,,,,,0,,,78,0
25305,note_on,0,0,1,,,,,,,,,0,,,79,36
25320,note_on,15,0,1,,,,,,,,,0,,,79,0
25320,note_on,0,0,1,,,,,,,,,0,,,82,36
25380,note_on,60,0,1,,,,,,,,,0,,,82,0
25380,control_change,0,0,1,,,,,,,,,0,64,0,,
25380,note_on,0,0,1,,,,,,,,,0,,,79,36
25410,note_on,30,0,1,,,,,,,,,0,,,79,0
25440,note_on,240,0,2,,,,,,,,,1,,,72,0
25440,note_on,240,0,3,,,,,,,,,2,,,58,0
25440,note_on,0,0,3,,,,,,,,,2,,,52,0
25440,note_on,0,0,3,,,,,,,,,2,,,48,0
25560,control_change,150,0,1,,,,,,,,,0,64,127,,
25560,note_on,0,0,1,,,,,,,,,0,,,72,36
25560,control_change,120,0,3,,,,,,,,,2,64,127,,
25560,note_on,0,0,3,,,,,,,,,2,,,60,36
25650,note_on,90,0,1,,,,,,,,,0,,,72,0
25650,note_on,0,0,1,,,,,,,,,0,,,73,36
25650,note_on,90,0,3,,,,,,,,,2,,,60,0
25650,note_on,0,0,3,,,,,,,,,2,,,61,36
25665,note_on,15,0,3,,,,,,,,,2,,,61,0
25665,note_on,0,0,3,,,,,,,,,2,,,60,36
25665,note_on,0,0,1,,,,,,,,,0,,,72,36
25665,note_on,15,0,1,,,,,,,,,0,,,73,0
25680,note_on,0,0,1,,,,,,,,,0,,,71,62
25680,note_on,15,0,1,,,,,,,,,0,,,72,0
25680,note_on,15,0,3,,,,,,,,,2,,,60,0
25680,note_on,0,0,3,,,,,,,,,2,,,59,62
25770,note_on,0,0,1,,,,,,,,,0,,,72,36
25770,control_change,0,0,1,,,,,,,,,0,64,0,,
25770,note_on,90,0,1,,,,,,,,,0,,,71,0
25770,control_change,0,0,3,,,,,,,,,2,64,0,,
25770,note_on,0,0,3,,,,,,,,,2,,,60,36
25770,note_on,90,0,3,,,,,,,,,2,,,59,0
25785,note_on,0,0,3,,,,,,,,,2,,,61,36
25785,note_on,15,0,3,,,,,,,,,2,,,60,0
25785,note_on,15,0,1,,,,,,,,,0,,,72,0
25785,note_on,0,0,1,,,,,,,,,0,,,73,36
25800,note_on,0,0,3,,,,,,,,,2,,,60,36
25800,note_on,15,0,3,,,,,,,,,2,,,61,0
25800,note_on,0,0,1,,,,,,,,,0,,,72,36
25800,note_on,15,0,1,,,,,,,,,0,,,73,0
25860,note_on,60,0,3,,,,,,,,,2,,,60,0
25860,note_on,60,0,1,,,,,,,,,0,,,72,0
25920,note_on,0,0,1,,,,,,,,,0,,,71,62
25920,control_change,60,0,3,,,,,,,,,2,64,127,,
25920,note_on,0,0,3,,,,,,,,,2,,,59,49
25920,control_change,60,0,1,,,,,,,,,0,64,127,,
26010,note_on,0,0,3,,,,,,,,,2,,,60,49
26010,note_on,90,0,3,,,,,,,,,2,,,59,0
26010,note_on,90,0,1,,,,,,,,,0,,,71,0
26010,note_on,0,0,1,,,,,,,,,0,,,72,62
26025,note_on,15,0,1,,,,,,,,,0,,,72,0
26025,note_on,0,0,1,,,,,,,,,0,,,73,62
26025,control_change,0,0,1,,,,,,,,,0,64,0,,
26025,note_on,15,0,3,,,,,,,,,2,,,60,0
26025,note_on,0,0,3,,,,,,,,,2,,,61,49
26040,note_on,15,0,1,,,,,,,,,0,,,73,0
26040,note_on,0,0,1,,,,,,,,,0,,,72,75
26040,note_on,0,0,3,,,,,,,,,2,,,60,62
26040,control_change,0,0,3,,,,,,,,,2,64,0,,
26040,note_on,15,0,3,,,,,,,,,2,,,61,0
26130,note_on,90,0,3,,,,,,,,,2,,,60,0
26130,note_on,0,0,3,,,,,,,,,2,,,58,62
26130,note_on,90,0,1,,,,,,,,,0,,,72,0
26130,note_on,0,0,1,,,,,,,,,0,,,70,75
26145,note_on,15,0,3,,,,,,,,,2,,,58,0
26145,note_on,0,0,3,,,,,,,,,2,,,56,75
26145,note_on,15,0,1,,,,,,,,,0,,,70,0
26145,note_on,0,0,1,,,,,,,,,0,,,68,75
26160,note_on,15,0,1,,,,,,,,,0,,,68,0
26160,note_on,15,0,3,,,,,,,,,2,,,56,0
26160,control_change,0,0,3,,,,,,,,,2,64,127,,
26160,note_on,0,0,3,,,,,,,,,2,,,55,75
26160,note_on,0,0,1,,,,,,,,,0,,,67,88
26160,control_change,0,0,1,,,,,,,,,0,64,127,,
26250,note_on,90,0,3,,,,,,,,,2,,,55,0
26250,note_on,0,0,3,,,,,,,,,2,,,56,75
26250,note_on,90,0,1,,,,,,,,,0,,,67,0
26250,note_on,0,0,1,,,,,,,,,0,,,68,88
26265,note_on,15,0,3,,,,,,,,,2,,,56,0
26265,note_on,0,0,1,,,,,,,,,0,,,70,88
26265,note_on,15,0,1,,,,,,,,,0,,,68,0
26265,note_on,0,0,3,,,,,,,,,2,,,58,62
26280,note_on,15,0,3,,,,,,,,,2,,,58,0
26280,note_on,15,0,1,,,,,,,,,0,,,70,0
26280,control_change,0,0,1,,,,,,,,,0,64,0,,
26280,note_on,0,0,1,,,,,,,,,0,,,68,75
26280,note_on,0,0,3,,,,,,,,,2,,,56,62
26280,control_change,0,0,3,,,,,,,,,2,64,0,,
26370,note_on,90,0,1,,,,,,,,,0,,,68,0
26370,note_on,0,0,1,,,,,,,,,0,,,67,75
26370,note_on,0,0,3,,,,,,,,,2,,,55,62
26370,note_on,90,0,3,,,,,,,,,2,,,56,0
26385,note_on,15,0,1,,,,,,,,,0,,,67,0
26385,note_on,0,0,1,,,,,,,,,0,,,65,75
26385,note_on,0,0,3,,,,,,,,,2,,,53,62
26385,note_on,15,0,3,,,,,,,,,2,,,55,0
26400,note_on,0,0,3,,,,,,,,,2,,,56,75
26400,note_on,15,0,1,,,,,,,,,0,,,65,0
26400,control_change,0,0,1,,,,,,,,,0,64,127,,
26400,note_on,0,0,1,,,,,,,,,0,,,63,88
26400,note_on,15,0,3,,,,,,,,,2,,,53,0
26400,note_on,0,0,3,,,,,,,,,2,,,60,75
26400,note_on,0,0,3,,,,,,,,,2,,,51,75
26640,note_on,240,0,1,,,,,,,,,0,,,63,0
26640,note_on,0,0,1,,,,,,,,,0,,,75,49
26730,note_on,0,0,1,,,,,,,,,0,,,77,62
26730,note_on,90,0,1,,,,,,,,,0,,,75,0
26745,note_on,15,0,1,,,,,,,,,0,,,77,0
26745,note_on,0,0,1,,,,,,,,,0,,,79,62
26760,note_on,15,0,1,,,,,,,,,0,,,79,0
26760,note_on,0,0,1,,,,,,,,,0,,,80,75
26850,note_on,90,0,1,,,,,,,,,0,,,80,0
26850,note_on,0,0,1,,,,,,,,,0,,,82,88
26865,note_on,15,0,1,,,,,,,,,0,,,82,0
26865,control_change,0,0,1,,,,,,,,,0,64,0,,
26865,note_on,0,0,1,,,,,,,,,0,,,84,88
26880,note_on,0,0,3,,,,,,,,,2,,,55,101
26880,note_on,0,0,3,,,,,,,,,2,,,48,101
26880,note_on,0,0,3,,,,,,,,,2,,,58,101
26880,note_on,0,0,3,,,,,,,,,2,,,51,0
26880,note_on,0,0,1,,,,,,,,,0,,,85,114
26880,control_change,0,0,1,,,,,,,,,0,64,127,,
26880,note_on,0,0,1,,,,,,,,,0,,,73,114
26880,note_on,0,0,3,,,,,,,,,2,,,56,0
26880,note_on,15,0,1,,,,,,,,,0,,,84,0
26880,note_on,0,0,1,,,,,,,,,0,,,76,114
26880,note_on,480,0,3,,,,,,,,,2,,,60,0
27120,note_on,1680,0,2,,,,,,,,,1,,,76,36
27120,note_on,0,0,1,,,,,,,,,0,,,85,49
27120,note_on,240,0,1,,,,,,,,,0,,,85,0
27120,note_on,0,0,1,,,,,,,,,0,,,76,0
27120,note_on,0,0,1,,,,,,,,,0,,,73,0
27135,note_on,15,0,1,,,,,,,,,0,,,85,0
27135,note_on,0,0,1,,,,,,,,,0,,,88,49
27150,note_on,15,0,1,,,,,,,,,0,,,88,0
27150,note_on,0,0,1,,,,,,,,,0,,,85,49
27165,note_on,15,0,1,,,,,,,,,0,,,85,0
27165,note_on,0,0,1,,,,,,,,,0,,,88,49
27180,note_on,15,0,1,,,,,,,,,0,,,88,0
27180,note_on,0,0,1,,,,,,,,,0,,,85,49
27195,note_on,15,0,1,,,,,,,,,0,,,85,0
27195,note_on,0,0,1,,,,,,,,,0,,,88,49
27210,note_on,15,0,1,,,,,,,,,0,,,88,0
27210,note_on,0,0,1,,,,,,,,,0,,,84,49
27225,note_on,15,0,1,,,,,,,,,0,,,84,0
27225,note_on,0,0,1,,,,,,,,,0,,,85,49
27240,note_on,0,0,1,,,,,,,,,0,,,91,49
27240,note_on,15,0,1,,,,,,,,,0,,,85,0
27300,note_on,60,0,1,,,,,,,,,0,,,91,0
27300,control_change,0,0,1,,,,,,,,,0,64,0,,
27300,note_on,0,0,1,,,,,,,,,0,,,85,49
27330,note_on,30,0,1,,,,,,,,,0,,,85,0
27360,note_on,480,0,3,,,,,,,,,2,,,58,0
27360,note_on,0,0,3,,,,,,,,,2,,,55,0
27360,note_on,0,0,3,,,,,,,,,2,,,48,0
27360,note_on,0,0,1,,,,,,,,,0,,,84,49
27360,note_on,0,0,3,,,,,,,,,2,,,48,36
27360,note_on,240,0,2,,,,,,,,,1,,,76,0
27360,note_on,0,0,2,,,,,,,,,1,,,75,36
27360,control_change,30,0,1,,,,,,,,,0,64,127,,
27360,note_on,0,0,3,,,,,,,,,2,,,56,36
27375,note_on,0,0,1,,,,,,,,,0,,,85,49
27375,note_on,15,0,1,,,,,,,,,0,,,84,0
27390,note_on,0,0,1,,,,,,,,,0,,,84,49
27390,note_on,15,0,1,,,,,,,,,0,,,85,0
27405,note_on,15,0,1,,,,,,,,,0,,,84,0
27405,note_on,0,0,1,,,,,,,,,0,,,85,49
27420,note_on,15,0,1,,,,,,,,,0,,,85,0
27420,note_on,0,0,1,,,,,,,,,0,,,84,49
27435,note_on,15,0,1,,,,,,,,,0,,,84,0
27435,note_on,0,0,1,,,,,,,,,0,,,85,49
27450,note_on,15,0,1,,,,,,,,,0,,,85,0
27450,note_on,0,0,1,,,,,,,,,0,,,82,49
27465,note_on,0,0,1,,,,,,,,,0,,,84,49
27465,note_on,15,0,1,,,,,,,,,0,,,82,0
27480,note_on,0,0,1,,,,,,,,,0,,,87,49
27480,note_on,15,0,1,,,,,,,,,0,,,84,0
27540,note_on,0,0,1,,,,,,,,,0,,,84,49
27540,note_on,60,0,1,,,,,,,,,0,,,87,0
27570,control_change,0,0,1,,,,,,,,,0,64,0,,
27570,note_on,30,0,1,,,,,,,,,0,,,84,0
27600,control_change,30,0,1,,,,,,,,,0,64,127,,
27600,note_on,0,0,2,,,,,,,,,1,,,75,36
27600,note_on,0,0,3,,,,,,,,,2,,,51,36
27600,note_on,0,0,3,,,,,,,,,2,,,55,36
27600,note_on,0,0,1,,,,,,,,,0,,,82,49
27600,note_on,0,0,3,,,,,,,,,2,,,61,36
27600,note_on,240,0,3,,,,,,,,,2,,,56,0
27600,note_on,0,0,3,,,,,,,,,2,,,48,0
27600,note_on,240,0,2,,,,,,,,,1,,,75,0
27615,note_on,0,0,1,,,,,,,,,0,,,84,49
27615,note_on,15,0,1,,,,,,,,,0,,,82,0
27630,note_on,15,0,1,,,,,,,,,0,,,84,0
27630,note_on,0,0,1,,,,,,,,,0,,,82,49
27645,note_on,0,0,1,,,,,,,,,0,,,84,49
27645,note_on,15,0,1,,,,,,,,,0,,,82,0
27660,note_on,15,0,1,,,,,,,,,0,,,84,0
27660,note_on,0,0,1,,,,,,,,,0,,,82,49
27675,note_on,0,0,1,,,,,,,,,0,,,84,49
27675,note_on,15,0,1,,,,,,,,,0,,,82,0
27690,note_on,15,0,1,,,,,,,,,0,,,84,0
27690,note_on,0,0,1,,,,,,,,,0,,,81,49
27705,note_on,15,0,1,,,,,,,,,0,,,81,0
27705,note_on,0,0,1,,,,,,,,,0,,,82,49
27720,note_on,0,0,1,,,,,,,,,0,,,85,49
27720,note_on,15,0,1,,,,,,,,,0,,,82,0
27780,note_on,0,0,1,,,,,,,,,0,,,82,49
27780,control_change,0,0,1,,,,,,,,,0,64,0,,
27780,note_on,60,0,1,,,,,,,,,0,,,85,0
27810,note_on,30,0,1,,,,,,,,,0,,,82,0
27840,note_on,0,0,3,,,,,,,,,2,,,55,0
27840,note_on,240,0,3,,,,,,,,,2,,,61,0
27840,note_on,240,0,2,,,,,,,,,1,,,75,0
27840,note_on,0,0,3,,,,,,,,,2,,,51,0
27960,note_on,0,0,3,,,,,,,,,2,,,61,36
27960,note_on,120,0,3,,,,,,,,,2,,,52,36
27960,control_change,150,0,1,,,,,,,,,0,64,127,,
27960,note_on,0,0,1,,,,,,,,,0,,,70,36
27960,note_on,120,0,2,,,,,,,,,1,,,67,36
28050,note_on,90,0,1,,,,,,,,,0,,,70,0
28050,note_on,0,0,1,,,,,,,,,0,,,72,36
28065,note_on,0,0,1,,,,,,,,,0,,,70,36
28065,note_on,15,0,1,,,,,,,,,0,,,72,0
28080,note_on,15,0,1,,,,,,,,,0,,,70,0
28080,note_on,0,0,1,,,,,,,,,0,,,69,36
28170,note_on,90,0,1,,,,,,,,,0,,,69,0
28170,note_on,0,0,1,,,,,,,,,0,,,70,36
28185,note_on,15,0,1,,,,,,,,,0,,,70,0
28185,note_on,0,0,1,,,,,,,,,0,,,72,36
28200,note_on,15,0,1,,,,,,,,,0,,,72,0
28200,note_on,0,0,1,,,,,,,,,0,,,70,36
28200,control_change,0,0,1,,,,,,,,,0,64,0,,
28260,note_on,300,0,3,,,,,,,,,2,,,61,0
28260,note_on,0,0,3,,,,,,,,,2,,,52,0
28260,note_on,300,0,2,,,,,,,,,1,,,67,0
28260,note_on,60,0,1,,,,,,,,,0,,,70,0
28320,note_on,60,0,3,,,,,,,,,2,,,45,75
28320,note_on,0,0,3,,,,,,,,,2,,,52,75
28320,note_on,0,0,3,,,,,,,,,2,,,55,75
28320,note_on,60,0,2,,,,,,,,,1,,,58,75
28320,control_change,60,0,1,,,,,,,,,0,64,127,,
28320,note_on,0,0,1,,,,,,,,,0,,,70,88
28320,note_on,0,0,1,,,,,,,,,0,,,61,88
28560,note_on,0,0,1,,,,,,,,,0,,,70,49
28560,note_on,0,0,1,,,,,,,,,0,,,61,0
28560,note_on,240,0,1,,,,,,,,,0,,,70,0
28560,note_on,240,0,2,,,,,,,,,1,,,58,0
28560,note_on,0,0,2,,,,,,,,,1,,,61,36
28575,note_on,0,0,1,,,,,,,,,0,,,72,49
28575,note_on,15,0,1,,,,,,,,,0,,,70,0
28590,note_on,0,0,1,,,,,,,,,0,,,70,49
28590,note_on,15,0,1,,,,,,,,,0,,,72,0
28605,note_on,0,0,1,,,,,,,,,0,,,72,49
28605,note_on,15,0,1,,,,,,,,,0,,,70,0
28620,note_on,15,0,1,,,,,,,,,0,,,72,0
28620,note_on,0,0,1,,,,,,,,,0,,,70,49
28635,note_on,15,0,1,,,,,,,,,0,,,70,0
28635,note_on,0,0,1,,,,,,,,,0,,,72,49
28650,note_on,0,0,1,,,,,,,,,0,,,69,49
28650,note_on,15,0,1,,,,,,,,,0,,,72,0
28665,note_on,0,0,1,,,,,,,,,0,,,70,49
28665,note_on,15,0,1,,,,,,,,,0,,,69,0
28680,note_on,15,0,1,,,,,,,,,0,,,70,0
28680,note_on,0,0,1,,,,,,,,,0,,,76,49
28740,control_change,0,0,1,,,,,,,,,0,64,0,,
28740,note_on,60,0,1,,,,,,,,,0,,,76,0
28740,note_on,0,0,1,,,,,,,,,0,,,70,49
28770,note_on,30,0,1,,,,,,,,,0,,,70,0
28800,note_on,0,0,3,,,,,,,,,2,,,52,0
28800,note_on,480,0,3,,,,,,,,,2,,,55,0
28800,note_on,0,0,3,,,,,,,,,2,,,53,75
28800,control_change,30,0,1,,,,,,,,,0,64,127,,
28800,note_on,0,0,1,,,,,,,,,0,,,69,49
28800,note_on,240,0,2,,,,,,,,,1,,,61,0
28800,note_on,0,0,2,,,,,,,,,1,,,60,36
28815,note_on,0,0,1,,,,,,,,,0,,,70,49
28815,note_on,15,0,1,,,,,,,,,0,,,69,0
28830,note_on,0,0,1,,,,,,,,,0,,,69,49
28830,note_on,15,0,1,,,,,,,,,0,,,70,0
28845,note_on,0,0,1,,,,,,,,,0,,,70,49
28845,note_on,15,0,1,,,,,,,,,0,,,69,0
28860,note_on,0,0,1,,,,,,,,,0,,,69,49
28860,note_on,15,0,1,,,,,,,,,0,,,70,0
28860,set_tempo,7260,1,0,,,,,,571429,,,,,,,
28875,note_on,15,0,1,,,,,,,,,0,,,69,0
28875,note_on,0,0,1,,,,,,,,,0,,,70,49
28890,note_on,0,0,1,,,,,,,,,0,,,68,49
28890,note_on,15,0,1,,,,,,,,,0,,,70,0
28905,note_on,15,0,1,,,,,,,,,0,,,68,0
28905,note_on,0,0,1,,,,,,,,,0,,,69,49
28920,set_tempo,60,1,0,,,,,,588235,,,,,,,
28920,note_on,15,0,1,,,,,,,,,0,,,69,0
28920,note_on,0,0,1,,,,,,,,,0,,,72,49
28980,set_tempo,60,1,0,,,,,,606061,,,,,,,
28980,note_on,60,0,1,,,,,,,,,0,,,72,0
28980,note_on,0,0,1,,,,,,,,,0,,,69,49
29010,note_on,30,0,1,,,,,,,,,0,,,69,0
29010,control_change,0,0,1,,,,,,,,,0,64,0,,
29040,note_on,0,0,1,,,,,,,,,0,,,67,49
29040,note_on,0,0,2,,,,,,,,,1,,,60,36
29040,note_on,240,0,3,,,,,,,,,2,,,53,0
29040,note_on,0,0,3,,,,,,,,,2,,,48,75
29040,note_on,0,0,3,,,,,,,,,2,,,52,75
29040,note_on,0,0,3,,,,,,,,,2,,,58,75
29040,control_change,30,0,1,,,,,,,,,0,64,127,,
29040,set_tempo,60,1,0,,,,,,631579,,,,,,,
29040,note_on,240,0,2,,,,,,,,,1,,,60,0
29040,note_on,0,0,3,,,,,,,,,2,,,45,0
29055,note_on,15,0,1,,,,,,,,,0,,,67,0
29055,note_on,0,0,1,,,,,,,,,0,,,69,49
29070,note_on,0,0,1,,,,,,,,,0,,,67,49
29070,note_on,15,0,1,,,,,,,,,0,,,69,0
29085,note_on,15,0,1,,,,,,,,,0,,,67,0
29085,note_on,0,0,1,,,,,,,,,0,,,69,49
29100,note_on,0,0,1,,,,,,,,,0,,,67,49
29100,set_tempo,60,1,0,,,,,,652174,,,,,,,
29100,note_on,15,0,1,,,,,,,,,0,,,69,0
29115,note_on,15,0,1,,,,,,,,,0,,,67,0
29115,note_on,0,0,1,,,,,,,,,0,,,69,49
29130,note_on,15,0,1,,,,,,,,,0,,,69,0
29130,note_on,0,0,1,,,,,,,,,0,,,66,49
29145,note_on,0,0,1,,,,,,,,,0,,,67,49
29145,note_on,15,0,1,,,,,,,,,0,,,66,0
29160,note_on,0,0,1,,,,,,,,,0,,,70,49
29160,note_on,15,0,1,,,,,,,,,0,,,67,0
29160,set_tempo,60,1,0,,,,,,674157,,,,,,,
29220,note_on,60,0,1,,,,,,,,,0,,,70,0
29220,set_tempo,60,1,0,,,,,,697674,,,,,,,
29220,note_on,0,0,1,,,,,,,,,0,,,67,49
29220,control_change,0,0,1,,,,,,,,,0,64,0,,
29250,note_on,30,0,1,,,,,,,,,0,,,67,0
29280,time_signature,60,1,0,1,4,24,8,,,,,,,,,
29280,note_on,240,0,2,,,,,,,,,1,,,60,0
29280,set_tempo,0,1,0,,,,,,731707,,,,,,,
29280,note_on,0,0,3,,,,,,,,,2,,,48,0
29280,note_on,0,0,3,,,,,,,,,2,,,52,0
29280,note_on,240,0,3,,,,,,,,,2,,,58,0
29400,set_tempo,0,1,0,,,,,,555556,,,,,,,
29400,control_change,120,0,3,,,,,,,,,2,64,127,,
29400,time_signature,120,1,0,4,4,24,8,,,,,,,,,
29400,control_change,150,0,1,,,,,,,,,0,64,127,,
29400,note_on,0,0,1,,,,,,,,,0,,,60,49
29400,note_on,0,0,2,,,,,,,,,1,,,60,36
29400,note_on,120,0,2,,,,,,,,,1,,,57,36
29400,note_on,6420,0,4,,,,,,,,,3,,,41,36
29400,note_on,0,0,4,,,,,,,,,3,,,48,36
29400,note_on,0,0,3,,,,,,,,,2,,,48,75
29580,note_on,0,0,3,,,,,,,,,2,,,53,75
29580,note_on,180,0,3,,,,,,,,,2,,,48,0
29580,note_on,180,0,1,,,,,,,,,0,,,60,0
29580,note_on,0,0,1,,,,,,,,,0,,,65,49
29640,note_on,0,0,3,,,,,,,,,2,,,57,75
29640,note_on,60,0,3,,,,,,,,,2,,,53,0
29640,note_on,0,0,2,,,,,,,,,1,,,57,0
29640,note_on,240,0,2,,,,,,,,,1,,,60,0
29640,note_on,60,0,1,,,,,,,,,0,,,65,0
29640,note_on,0,0,1,,,,,,,,,0,,,69,49
29640,note_on,240,0,4,,,,,,,,,3,,,48,0
29640,note_on,0,0,4,,,,,,,,,3,,,41,0
29760,note_on,0,0,3,,,,,,,,,2,,,62,75
29760,control_change,0,0,3,,,,,,,,,2,64,0,,
29760,note_on,120,0,3,,,,,,,,,2,,,57,0
29760,note_on,120,0,1,,,,,,,,,0,,,69,0
29760,control_change,0,0,1,,,,,,,,,0,64,0,,
29760,note_on,0,0,1,,,,,,,,,0,,,74,49
29860,note_on,220,0,4,,,,,,,,,3,,,36,36
29870,note_on,10,0,4,,,,,,,,,3,,,46,36
29880,note_on,240,0,2,,,,,,,,,1,,,64,36
29880,note_on,10,0,4,,,,,,,,,3,,,55,36
29880,note_on,0,0,1,,,,,,,,,0,,,72,49
29880,note_on,120,0,3,,,,,,,,,2,,,62,0
29880,note_on,120,0,1,,,,,,,,,0,,,74,0
29880,control_change,0,0,3,,,,,,,,,2,64,127,,
29880,note_on,0,0,1,,,,,,,,,0,,,60,49
29880,control_change,0,0,1,,,,,,,,,0,64,127,,
30060,note_on,0,0,1,,,,,,,,,0,,,60,0
30060,note_on,0,0,1,,,,,,,,,0,,,70,49
30060,note_on,180,0,1,,,,,,,,,0,,,72,0
30060,note_on,180,0,3,,,,,,,,,2,,,58,75
30120,note_on,60,0,3,,,,,,,,,2,,,58,0
30120,note_on,0,0,3,,,,,,,,,2,,,55,75
30120,note_on,0,0,4,,,,,,,,,3,,,46,0
30120,note_on,0,0,4,,,,,,,,,3,,,36,0
30120,note_on,240,0,4,,,,,,,,,3,,,55,0
30120,note_on,240,0,2,,,,,,,,,1,,,64,0
30120,note_on,0,0,1,,,,,,,,,0,,,67,49
30120,note_on,60,0,1,,,,,,,,,0,,,70,0
30240,note_on,0,0,1,,,,,,,,,0,,,69,49
30240,note_on,0,0,3,,,,,,,,,2,,,57,75
30240,control_change,0,0,1,,,,,,,,,0,64,0,,
30240,note_on,120,0,1,,,,,,,,,0,,,67,0
30240,control_change,0,0,3,,,,,,,,,2,64,0,,
30240,note_on,120,0,3,,,,,,,,,2,,,55,0
30360,note_on,0,0,3,,,,,,,,,2,,,50,75
30360,note_on,120,0,3,,,,,,,,,2,,,57,0
30360,note_on,0,0,3,,,,,,,,,2,,,38,75
30360,note_on,0,0,3,,,,,,,,,2,,,45,75
30360,note_on,120,0,1,,,,,,,,,0,,,69,0
30360,note_on,0,0,1,,,,,,,,,0,,,53,49
30360,note_on,0,0,1,,,,,,,,,0,,,57,49
30360,note_on,0,0,1,,,,,,,,,0,,,65,49
30600,note_on,0,0,1,,,,,,,,,0,,,58,65
30600,note_on,0,0,3,,,,,,,,,2,,,48,101
30600,note_on,0,0,1,,,,,,,,,0,,,57,0
30600,note_on,0,0,3,,,,,,,,,2,,,45,0
30600,note_on,240,0,3,,,,,,,,,2,,,50,0
30600,note_on,240,0,1,,,,,,,,,0,,,65,0
30600,note_on,0,0,1,,,,,,,,,0,,,53,0
30600,note_on,0,0,3,,,,,,,,,2,,,36,93
30600,note_on,0,0,3,,,,,,,,,2,,,38,0
30600,note_on,0,0,1,,,,,,,,,0,,,67,75
30600,note_on,0,0,1,,,,,,,,,0,,,64,70
30840,note_on,240,0,1,,,,,,,,,0,,,67,0
30840,note_on,0,0,1,,,,,,,,,0,,,64,0
30840,note_on,0,0,1,,,,,,,,,0,,,58,0
30840,note_on,0,0,1,,,,,,,,,0,,,57,49
30840,note_on,0,0,1,,,,,,,,,0,,,65,49
30840,note_on,0,0,3,,,,,,,,,2,,,41,75
30840,control_change,0,0,3,,,,,,,,,2,64,127,,
30840,control_change,0,0,1,,,,,,,,,0,64,127,,
30840,note_on,240,0,3,,,,,,,,,2,,,36,0
30900,set_tempo,1500,1,0,,,,,,571429,,,,,,,
30900,note_on,0,0,1,,,,,,,,,0,,,57,0
30900,note_on,60,0,3,,,,,,,,,2,,,41,0
30900,note_on,0,0,3,,,,,,,,,2,,,48,0
30900,note_on,60,0,1,,,,,,,,,0,,,65,0
30960,set_tempo,60,1,0,,,,,,588235,,,,,,,
31020,set_tempo,60,1,0,,,,,,606061,,,,,,,
31080,note_on,180,0,3,,,,,,,,,2,,,41,75
31080,note_on,0,0,3,,,,,,,,,2,,,48,75
31080,note_on,0,0,1,,,,,,,,,0,,,65,49
31080,note_on,180,0,1,,,,,,,,,0,,,57,49
31080,set_tempo,60,1,0,,,,,,631579,,,,,,,
31140,note_on,0,0,3,,,,,,,,,2,,,41,0
31140,note_on,60,0,3,,,,,,,,,2,,,48,0
31140,note_on,60,0,1,,,,,,,,,0,,,65,0
31140,note_on,0,0,1,,,,,,,,,0,,,57,0
31140,set_tempo,60,1,0,,,,,,652174,,,,,,,
31200,set_tempo,60,1,0,,,,,,674157,,,,,,,
31200,control_change,60,0,3,,,,,,,,,2,64,0,,
31200,control_change,60,0,1,,,,,,,,,0,64,0,,
31260,set_tempo,60,1,0,,,,,,697674,,,,,,,
31260,end_of_track,0,1,0,,,,,,,,,,,,,
31320,note_on,120,0,3,,,,,,,,,2,,,41,75
31320,note_on,120,0,1,,,,,,,,,0,,,57,49
31320,note_on,0,0,3,,,,,,,,,2,,,48,75
31320,note_on,0,0,1,,,,,,,,,0,,,65,49
31800,note_on,480,0,1,,,,,,,,,0,,,65,0
31800,note_on,0,0,1,,,,,,,,,0,,,57,0
31800,note_on,0,0,3,,,,,,,,,2,,,41,0
31800,note_on,480,0,3,,,,,,,,,2,,,48,0
32760,control_change,2640,0,2,,,,,,,,,1,64,0,,
32760,end_of_track,0,1,3,,,,,,,,,,,,,
32760,control_change,960,0,3,,,,,,,,,2,64,0,,
32760,end_of_track,0,1,2,,,,,,,,,,,,,
32760,control_change,960,0,1,,,,,,,,,0,64,0,,
32760,end_of_track,0,1,1,,,,,,,,,,,,,
32760,control_change,2640,0,4,,,,,,,,,3,64,0,,
32760,end_of_track,0,1,4,,,,,,,,,,,,,
