tick,type,numerator,denominator,clocks_per_click,notated_32nd_notes_per_beat,time,meta,track,key,tempo,port,program,channel,control,value,note,velocity
0,time_signature,12,8,12,8,0,1,0,,,,,,,,,
0,program_change,,,,,0,0,1,,,,0,0,,,,
0,control_change,,,,,0,0,1,,,,,0,7,80,,
0,control_change,,,,,0,0,1,,,,,0,10,80,,
0,control_change,,,,,0,0,1,,,,,0,91,96,,
0,control_change,,,,,0,0,1,,,,,0,64,96,,
0,track_name,,,,,0,1,7,,,,,,,,,
0,midi_port,,,,,0,1,2,,,0,,,,,,
0,track_name,,,,,0,1,2,,,,,,,,,
0,program_change,,,,,0,0,2,,,,0,0,,,,
0,control_change,,,,,0,0,2,,,,,0,7,80,,
0,control_change,,,,,0,0,2,,,,,0,10,48,,
0,note_on,,,,,0,0,2,,,,,0,,,43,50
0,track_name,,,,,0,1,1,,,,,,,,,
0,note_on,,,,,0,0,2,,,,,0,,,50,50
0,track_name,,,,,0,1,3,,,,,,,,,
0,end_of_track,,,,,0,1,3,,,,,,,,,
0,midi_port,,,,,0,1,4,,,0,,,,,,
0,track_name,,,,,0,1,4,,,,,,,,,
0,end_of_track,,,,,0,1,4,,,,,,,,,
0,midi_port,,,,,0,1,5,,,0,,,,,,
0,track_name,,,,,0,1,5,,,,,,,,,
0,end_of_track,,,,,0,1,5,,,,,,,,,
0,midi_port,,,,,0,1,6,,,0,,,,,,
0,track_name,,,,,0,1,6,,,,,,,,,
0,end_of_track,,,,,0,1,6,,,,,,,,,
0,midi_port,,,,,0,1,7,,,0,,,,,,
0,midi_port,,,,,0,1,3,,,0,,,,,,
0,midi_port,,,,,0,1,1,,,0,,,,,,
0,end_of_track,,,,,0,1,7,,,,,,,,,
0,key_signature,,,,,0,1,0,G,,,,,,,,
0,marker,,,,,0,1,0,,,,,,,,,
0,set_tempo,,,,,0,1,0,,750000,,,,,,,
1,note_on,,,,,0,0,1,,,,,0,,,67,55
1,note_on,,,,,0,0,1,,,,,0,,,59,55
1,note_on,,,,,1,0,1,,,,,0,,,71,55
10,set_tempo,,,,,10,1,0,,754716,,,,,,,
315,note_on,,,,,0,0,2,,,,,0,,,43,0
315,note_on,,,,,315,0,2,,,,,0,,,50,0
316,note_on,,,,,315,0,1,,,,,0,,,59,0
316,note_on,,,,,0,0,1,,,,,0,,,67,0
316,note_on,,,,,0,0,1,,,,,0,,,71,0
330,note_on,,,,,15,0,2,,,,,0,,,43,50
330,note_on,,,,,0,0,2,,,,,0,,,50,50
330,note_on,,,,,14,0,1,,,,,0,,,60,45
330,note_on,,,,,0,0,1,,,,,0,,,66,45
330,note_on,,,,,0,0,1,,,,,0,,,69,45
330,control_change,,,,,0,0,1,,,,,0,64,0,,
355,note_on,,,,,25,0,1,,,,,0,,,69,0
355,note_on,,,,,0,0,1,,,,,0,,,66,0
355,note_on,,,,,0,0,2,,,,,0,,,43,0
355,note_on,,,,,25,0,2,,,,,0,,,50,0
355,note_on,,,,,0,0,1,,,,,0,,,60,0
360,note_on,,,,,5,0,1,,,,,0,,,59,46
360,control_change,,,,,0,0,1,,,,,0,64,95,,
360,note_on,,,,,0,0,1,,,,,0,,,71,46
360,note_on,,,,,0,0,2,,,,,0,,,50,53
360,note_on,,,,,5,0,2,,,,,0,,,43,53
360,note_on,,,,,0,0,1,,,,,0,,,67,46
675,note_on,,,,,0,0,1,,,,,0,,,67,0
675,note_on,,,,,0,0,1,,,,,0,,,59,0
675,note_on,,,,,315,0,1,,,,,0,,,71,0
675,note_on,,,,,0,0,2,,,,,0,,,43,0
675,note_on,,,,,315,0,2,,,,,0,,,50,0
690,control_change,,,,,0,0,1,,,,,0,64,0,,
690,note_on,,,,,0,0,1,,,,,0,,,69,47
690,note_on,,,,,0,0,1,,,,,0,,,66,47
690,note_on,,,,,15,0,1,,,,,0,,,60,47
690,note_on,,,,,0,0,2,,,,,0,,,50,50
690,note_on,,,,,15,0,2,,,,,0,,,43,50
715,note_on,,,,,0,0,1,,,,,0,,,66,0
715,note_on,,,,,25,0,1,,,,,0,,,69,0
715,note_on,,,,,0,0,1,,,,,0,,,60,0
715,note_on,,,,,25,0,2,,,,,0,,,50,0
715,note_on,,,,,0,0,2,,,,,0,,,43,0
720,note_on,,,,,5,0,2,,,,,0,,,43,53
720,note_on,,,,,0,0,2,,,,,0,,,50,53
720,note_on,,,,,5,0,1,,,,,0,,,59,51
720,note_on,,,,,0,0,1,,,,,0,,,67,51
720,note_on,,,,,0,0,1,,,,,0,,,71,51
720,control_change,,,,,0,0,1,,,,,0,64,96,,
750,set_tempo,,,,,740,1,0,,740740,,,,,,,
772,note_on,,,,,52,0,2,,,,,0,,,50,0
772,note_on,,,,,0,0,2,,,,,0,,,43,0
772,note_on,,,,,0,0,1,,,,,0,,,59,0
772,note_on,,,,,0,0,1,,,,,0,,,67,0
772,note_on,,,,,52,0,1,,,,,0,,,71,0
780,note_on,,,,,8,0,1,,,,,0,,,60,55
780,note_on,,,,,0,0,1,,,,,0,,,69,55
780,note_on,,,,,0,0,1,,,,,0,,,72,55
780,note_on,,,,,0,0,2,,,,,0,,,50,57
780,note_on,,,,,8,0,2,,,,,0,,,43,57
820,set_tempo,,,,,70,1,0,,727272,,,,,,,
832,note_on,,,,,0,0,2,,,,,0,,,43,0
832,note_on,,,,,52,0,2,,,,,0,,,50,0
832,note_on,,,,,52,0,1,,,,,0,,,72,0
832,note_on,,,,,0,0,1,,,,,0,,,69,0
832,note_on,,,,,0,0,1,,,,,0,,,60,0
840,note_on,,,,,0,0,2,,,,,0,,,50,61
840,note_on,,,,,0,0,1,,,,,0,,,74,61
840,note_on,,,,,0,0,1,,,,,0,,,71,61
840,note_on,,,,,8,0,1,,,,,0,,,62,61
840,note_on,,,,,8,0,2,,,,,0,,,43,61
892,note_on,,,,,0,0,1,,,,,0,,,62,0
892,note_on,,,,,52,0,2,,,,,0,,,50,0
892,note_on,,,,,0,0,2,,,,,0,,,43,0
892,note_on,,,,,52,0,1,,,,,0,,,74,0
892,note_on,,,,,0,0,1,,,,,0,,,71,0
898,control_change,,,,,6,0,1,,,,,0,64,0,,
900,note_on,,,,,2,0,1,,,,,0,,,66,65
900,note_on,,,,,0,0,1,,,,,0,,,74,65
900,note_on,,,,,0,0,1,,,,,0,,,62,65
900,control_change,,,,,0,0,1,,,,,0,64,96,,
900,note_on,,,,,8,0,2,,,,,0,,,38,64
900,note_on,,,,,0,0,2,,,,,0,,,50,64
910,set_tempo,,,,,90,1,0,,714285,,,,,,,
952,note_on,,,,,0,0,2,,,,,0,,,38,0
952,note_on,,,,,52,0,2,,,,,0,,,50,0
952,note_on,,,,,52,0,1,,,,,0,,,62,0
957,note_on,,,,,5,0,1,,,,,0,,,74,0
957,note_on,,,,,0,0,1,,,,,0,,,66,0
960,note_on,,,,,0,0,2,,,,,0,,,50,57
960,note_on,,,,,8,0,2,,,,,0,,,38,57
960,set_tempo,,,,,50,1,0,,722891,,,,,,,
960,note_on,,,,,3,0,1,,,,,0,,,60,53
960,note_on,,,,,0,0,1,,,,,0,,,66,53
960,note_on,,,,,0,0,1,,,,,0,,,72,53
1000,set_tempo,,,,,40,1,0,,736196,,,,,,,
1012,note_on,,,,,52,0,1,,,,,0,,,72,0
1012,note_on,,,,,0,0,1,,,,,0,,,66,0
1017,note_on,,,,,5,0,1,,,,,0,,,60,0
1017,note_on,,,,,57,0,2,,,,,0,,,50,0
1017,note_on,,,,,0,0,2,,,,,0,,,38,0
1020,note_on,,,,,0,0,2,,,,,0,,,50,52
1020,note_on,,,,,3,0,2,,,,,0,,,38,52
1020,note_on,,,,,0,0,1,,,,,0,,,72,50
1020,note_on,,,,,0,0,1,,,,,0,,,66,50
1020,note_on,,,,,3,0,1,,,,,0,,,60,50
1030,set_tempo,,,,,30,1,0,,750000,,,,,,,
1060,set_tempo,,,,,30,1,0,,779220,,,,,,,
1072,note_on,,,,,0,0,1,,,,,0,,,60,0
1072,note_on,,,,,0,0,1,,,,,0,,,66,0
1072,note_on,,,,,52,0,1,,,,,0,,,72,0
1077,note_on,,,,,57,0,2,,,,,0,,,50,0
1077,note_on,,,,,0,0,2,,,,,0,,,38,0
1078,control_change,,,,,6,0,1,,,,,0,64,0,,
1080,control_change,,,,,0,0,1,,,,,0,64,95,,
1080,note_on,,,,,0,0,1,,,,,0,,,71,44
1080,note_on,,,,,0,0,1,,,,,0,,,67,44
1080,note_on,,,,,2,0,1,,,,,0,,,59,44
1080,note_on,,,,,0,0,2,,,,,0,,,50,42
1080,note_on,,,,,3,0,2,,,,,0,,,43,42
1140,set_tempo,,,,,80,1,0,,779220,,,,,,,
1260,note_on,,,,,0,0,2,,,,,0,,,43,0
1260,note_on,,,,,0,0,1,,,,,0,,,59,0
1260,note_on,,,,,0,0,1,,,,,0,,,67,0
1260,note_on,,,,,180,0,1,,,,,0,,,71,0
1260,note_on,,,,,180,0,2,,,,,0,,,50,0
1300,set_tempo,,,,,160,1,0,,750000,,,,,,,
1390,control_change,,,,,130,0,1,,,,,0,64,0,,
1440,note_on,,,,,0,0,1,,,,,0,,,76,55
1440,note_on,,,,,0,0,1,,,,,0,,,72,55
1440,note_on,,,,,50,0,1,,,,,0,,,64,55
1440,note_on,,,,,180,0,2,,,,,0,,,36,57
1440,note_on,,,,,0,0,2,,,,,0,,,48,57
1440,control_change,,,,,0,0,1,,,,,0,64,96,,
1440,set_tempo,,,,,140,1,0,,750000,,,,,,,
1450,set_tempo,,,,,10,1,0,,754716,,,,,,,
1755,note_on,,,,,315,0,2,,,,,0,,,48,0
1755,note_on,,,,,0,0,1,,,,,0,,,64,0
1755,note_on,,,,,0,0,1,,,,,0,,,72,0
1755,note_on,,,,,0,0,2,,,,,0,,,36,0
1755,note_on,,,,,315,0,1,,,,,0,,,76,0
1770,control_change,,,,,0,0,1,,,,,0,64,0,,
1770,note_on,,,,,0,0,1,,,,,0,,,75,51
1770,note_on,,,,,0,0,1,,,,,0,,,71,51
1770,note_on,,,,,15,0,1,,,,,0,,,63,51
1770,note_on,,,,,0,0,2,,,,,0,,,48,56
1770,note_on,,,,,15,0,2,,,,,0,,,36,56
1795,note_on,,,,,25,0,2,,,,,0,,,48,0
1795,note_on,,,,,0,0,2,,,,,0,,,36,0
1795,note_on,,,,,25,0,1,,,,,0,,,75,0
1795,note_on,,,,,0,0,1,,,,,0,,,71,0
1795,note_on,,,,,0,0,1,,,,,0,,,63,0
1800,note_on,,,,,5,0,2,,,,,0,,,36,59
1800,note_on,,,,,0,0,2,,,,,0,,,48,59
1800,note_on,,,,,5,0,1,,,,,0,,,64,54
1800,note_on,,,,,0,0,1,,,,,0,,,72,54
1800,note_on,,,,,0,0,1,,,,,0,,,76,54
1800,control_change,,,,,0,0,1,,,,,0,64,95,,
2115,note_on,,,,,315,0,1,,,,,0,,,76,0
2115,note_on,,,,,0,0,1,,,,,0,,,64,0
2115,note_on,,,,,0,0,2,,,,,0,,,36,0
2115,note_on,,,,,315,0,2,,,,,0,,,48,0
2115,note_on,,,,,0,0,1,,,,,0,,,72,0
2130,note_on,,,,,15,0,2,,,,,0,,,36,49
2130,note_on,,,,,0,0,2,,,,,0,,,48,49
2130,note_on,,,,,15,0,1,,,,,0,,,63,40
2130,note_on,,,,,0,0,1,,,,,0,,,71,40
2130,note_on,,,,,0,0,1,,,,,0,,,75,40
2130,control_change,,,,,0,0,1,,,,,0,64,0,,
2155,note_on,,,,,0,0,1,,,,,0,,,63,0
2155,note_on,,,,,0,0,2,,,,,0,,,36,0
2155,note_on,,,,,0,0,1,,,,,0,,,71,0
2155,note_on,,,,,25,0,1,,,,,0,,,75,0
2155,note_on,,,,,25,0,2,,,,,0,,,48,0
2160,note_on,,,,,5,0,1,,,,,0,,,72,51
2160,note_on,,,,,0,0,1,,,,,0,,,64,51
2160,note_on,,,,,0,0,1,,,,,0,,,76,51
2160,control_change,,,,,0,0,1,,,,,0,64,96,,
2160,note_on,,,,,0,0,2,,,,,0,,,48,53
2160,note_on,,,,,5,0,2,,,,,0,,,36,53
2190,set_tempo,,,,,740,1,0,,740740,,,,,,,
2212,note_on,,,,,52,0,2,,,,,0,,,48,0
2212,note_on,,,,,0,0,1,,,,,0,,,72,0
2212,note_on,,,,,52,0,1,,,,,0,,,76,0
2212,note_on,,,,,0,0,2,,,,,0,,,36,0
2212,note_on,,,,,0,0,1,,,,,0,,,64,0
2220,note_on,,,,,0,0,1,,,,,0,,,77,55
2220,note_on,,,,,8,0,2,,,,,0,,,36,57
2220,note_on,,,,,0,0,1,,,,,0,,,65,55
2220,note_on,,,,,8,0,1,,,,,0,,,71,55
2220,note_on,,,,,0,0,2,,,,,0,,,48,57
2260,set_tempo,,,,,70,1,0,,727272,,,,,,,
2272,note_on,,,,,0,0,2,,,,,0,,,36,0
2272,note_on,,,,,0,0,1,,,,,0,,,71,0
2272,note_on,,,,,52,0,1,,,,,0,,,77,0
2272,note_on,,,,,52,0,2,,,,,0,,,48,0
2272,note_on,,,,,0,0,1,,,,,0,,,65,0
2280,note_on,,,,,0,0,1,,,,,0,,,76,61
2280,note_on,,,,,0,0,1,,,,,0,,,72,61
2280,note_on,,,,,0,0,2,,,,,0,,,48,61
2280,note_on,,,,,8,0,2,,,,,0,,,36,61
2280,note_on,,,,,8,0,1,,,,,0,,,64,61
2332,note_on,,,,,0,0,2,,,,,0,,,36,0
2332,note_on,,,,,52,0,2,,,,,0,,,48,0
2332,note_on,,,,,52,0,1,,,,,0,,,76,0
2332,note_on,,,,,0,0,1,,,,,0,,,72,0
2332,note_on,,,,,0,0,1,,,,,0,,,64,0
2338,control_change,,,,,6,0,1,,,,,0,64,0,,
2340,note_on,,,,,2,0,1,,,,,0,,,71,60
2340,note_on,,,,,0,0,1,,,,,0,,,74,60
2340,note_on,,,,,0,0,1,,,,,0,,,62,60
2340,control_change,,,,,0,0,1,,,,,0,64,96,,
2340,note_on,,,,,0,0,2,,,,,0,,,48,64
2340,note_on,,,,,8,0,2,,,,,0,,,36,64
2350,set_tempo,,,,,90,1,0,,714285,,,,,,,
2392,note_on,,,,,52,0,1,,,,,0,,,62,0
2392,note_on,,,,,52,0,2,,,,,0,,,48,0
2392,note_on,,,,,0,0,2,,,,,0,,,36,0
2397,note_on,,,,,0,0,1,,,,,0,,,71,0
2397,note_on,,,,,5,0,1,,,,,0,,,74,0
2400,set_tempo,,,,,50,1,0,,722891,,,,,,,
2400,note_on,,,,,3,0,1,,,,,0,,,69,49
2400,note_on,,,,,8,0,2,,,,,0,,,36,57
2400,note_on,,,,,0,0,2,,,,,0,,,48,57
2400,note_on,,,,,0,0,1,,,,,0,,,72,49
2400,note_on,,,,,0,0,1,,,,,0,,,60,49
2440,set_tempo,,,,,40,1,0,,736196,,,,,,,
2452,note_on,,,,,52,0,1,,,,,0,,,72,0
2452,note_on,,,,,0,0,1,,,,,0,,,69,0
2455,control_change,,,,,3,0,1,,,,,0,64,0,,
2457,note_on,,,,,2,0,1,,,,,0,,,60,0
2457,note_on,,,,,0,0,2,,,,,0,,,36,0
2457,note_on,,,,,57,0,2,,,,,0,,,48,0
2460,note_on,,,,,0,0,2,,,,,0,,,49,52
2460,note_on,,,,,3,0,1,,,,,0,,,59,42
2460,note_on,,,,,0,0,1,,,,,0,,,71,42
2460,note_on,,,,,0,0,1,,,,,0,,,67,42
2460,note_on,,,,,3,0,2,,,,,0,,,37,52
2470,set_tempo,,,,,30,1,0,,750000,,,,,,,
2500,set_tempo,,,,,30,1,0,,779220,,,,,,,
2512,note_on,,,,,0,0,1,,,,,0,,,71,0
2512,note_on,,,,,0,0,1,,,,,0,,,59,0
2512,note_on,,,,,52,0,1,,,,,0,,,67,0
2517,note_on,,,,,57,0,2,,,,,0,,,49,0
2517,note_on,,,,,0,0,2,,,,,0,,,37,0
2518,control_change,,,,,6,0,1,,,,,0,64,0,,
2520,note_on,,,,,0,0,1,,,,,0,,,69,49
2520,control_change,,,,,0,0,1,,,,,0,64,95,,
2520,note_on,,,,,0,0,2,,,,,0,,,50,42
2520,note_on,,,,,3,0,2,,,,,0,,,38,42
2520,note_on,,,,,2,0,1,,,,,0,,,57,49
2520,note_on,,,,,0,0,1,,,,,0,,,66,49
2570,note_on,,,,,0,0,2,,,,,0,,,38,0
2570,note_on,,,,,0,0,1,,,,,0,,,66,0
2570,note_on,,,,,0,0,1,,,,,0,,,57,0
2570,note_on,,,,,50,0,2,,,,,0,,,50,0
2570,note_on,,,,,50,0,1,,,,,0,,,69,0
2580,set_tempo,,,,,80,1,0,,800000,,,,,,,
2580,note_on,,,,,10,0,1,,,,,0,,,62,59
2590,set_tempo,,,,,10,1,0,,800000,,,,,,,
2600,control_change,,,,,20,0,1,,,,,0,64,0,,
2625,note_on,,,,,25,0,1,,,,,0,,,62,0
2630,set_tempo,,,,,40,1,0,,774193,,,,,,,
2640,note_on,,,,,15,0,1,,,,,0,,,64,61
2640,set_tempo,,,,,10,1,0,,769230,,,,,,,
2685,note_on,,,,,45,0,1,,,,,0,,,64,0
2700,note_on,,,,,15,0,1,,,,,0,,,66,68
2745,note_on,,,,,45,0,1,,,,,0,,,66,0
2750,set_tempo,,,,,110,1,0,,774193,,,,,,,
2760,note_on,,,,,15,0,1,,,,,0,,,67,75
2770,set_tempo,,,,,20,1,0,,779220,,,,,,,
2805,note_on,,,,,45,0,1,,,,,0,,,67,0
2820,note_on,,,,,15,0,1,,,,,0,,,69,82
2820,set_tempo,,,,,50,1,0,,800000,,,,,,,
2830,set_tempo,,,,,10,1,0,,816326,,,,,,,
2865,note_on,,,,,45,0,1,,,,,0,,,69,0
2880,set_tempo,,,,,50,1,0,,754716,,,,,,,
2880,control_change,,,,,0,0,1,,,,,0,64,96,,
2880,note_on,,,,,0,0,1,,,,,0,,,71,89
2880,note_on,,,,,0,0,1,,,,,0,,,67,89
2880,note_on,,,,,15,0,1,,,,,0,,,59,89
2880,note_on,,,,,310,0,2,,,,,0,,,43,82
2880,note_on,,,,,0,0,2,,,,,0,,,50,82
3195,note_on,,,,,0,0,1,,,,,0,,,67,0
3195,note_on,,,,,315,0,1,,,,,0,,,71,0
3195,note_on,,,,,315,0,2,,,,,0,,,50,0
3195,note_on,,,,,0,0,2,,,,,0,,,43,0
3195,note_on,,,,,0,0,1,,,,,0,,,59,0
3210,note_on,,,,,15,0,1,,,,,0,,,60,92
3210,note_on,,,,,0,0,1,,,,,0,,,69,92
3210,control_change,,,,,0,0,1,,,,,0,64,0,,
3210,note_on,,,,,0,0,1,,,,,0,,,66,92
3210,note_on,,,,,0,0,2,,,,,0,,,50,82
3210,note_on,,,,,15,0,2,,,,,0,,,43,82
3235,note_on,,,,,25,0,1,,,,,0,,,69,0
3235,note_on,,,,,0,0,1,,,,,0,,,60,0
3235,note_on,,,,,0,0,1,,,,,0,,,66,0
3235,note_on,,,,,25,0,2,,,,,0,,,50,0
3235,note_on,,,,,0,0,2,,,,,0,,,43,0
3240,control_change,,,,,0,0,1,,,,,0,64,95,,
3240,note_on,,,,,0,0,1,,,,,0,,,71,94
3240,note_on,,,,,0,0,1,,,,,0,,,67,94
3240,note_on,,,,,5,0,1,,,,,0,,,59,94
3240,note_on,,,,,5,0,2,,,,,0,,,43,82
3240,note_on,,,,,0,0,2,,,,,0,,,50,82
3555,note_on,,,,,0,0,1,,,,,0,,,59,0
3555,note_on,,,,,0,0,1,,,,,0,,,67,0
3555,note_on,,,,,315,0,1,,,,,0,,,71,0
3555,note_on,,,,,0,0,2,,,,,0,,,43,0
3555,note_on,,,,,315,0,2,,,,,0,,,50,0
3570,note_on,,,,,0,0,1,,,,,0,,,69,101
3570,control_change,,,,,0,0,1,,,,,0,64,0,,
3570,note_on,,,,,0,0,1,,,,,0,,,66,101
3570,note_on,,,,,0,0,2,,,,,0,,,50,84
3570,note_on,,,,,15,0,1,,,,,0,,,60,101
3570,note_on,,,,,15,0,2,,,,,0,,,43,84
3595,note_on,,,,,0,0,1,,,,,0,,,60,0
3595,note_on,,,,,0,0,2,,,,,0,,,43,0
3595,note_on,,,,,25,0,2,,,,,0,,,50,0
3595,note_on,,,,,0,0,1,,,,,0,,,66,0
3595,note_on,,,,,25,0,1,,,,,0,,,69,0
3600,note_on,,,,,0,0,1,,,,,0,,,67,103
3600,note_on,,,,,0,0,2,,,,,0,,,50,86
3600,note_on,,,,,5,0,2,,,,,0,,,43,86
3600,note_on,,,,,5,0,1,,,,,0,,,59,103
3600,control_change,,,,,0,0,1,,,,,0,64,96,,
3600,note_on,,,,,0,0,1,,,,,0,,,71,103
3652,note_on,,,,,52,0,2,,,,,0,,,50,0
3652,note_on,,,,,0,0,2,,,,,0,,,43,0
3652,note_on,,,,,0,0,1,,,,,0,,,67,0
3652,note_on,,,,,52,0,1,,,,,0,,,71,0
3652,note_on,,,,,0,0,1,,,,,0,,,59,0
3660,note_on,,,,,0,0,1,,,,,0,,,72,103
3660,note_on,,,,,0,0,2,,,,,0,,,50,99
3660,note_on,,,,,8,0,2,,,,,0,,,43,99
3660,note_on,,,,,0,0,1,,,,,0,,,69,103
3660,note_on,,,,,8,0,1,,,,,0,,,60,103
3670,set_tempo,,,,,790,1,0,,764331,,,,,,,
3712,note_on,,,,,0,0,2,,,,,0,,,43,0
3712,note_on,,,,,52,0,2,,,,,0,,,50,0
3712,note_on,,,,,0,0,1,,,,,0,,,69,0
3712,note_on,,,,,0,0,1,,,,,0,,,60,0
3712,note_on,,,,,52,0,1,,,,,0,,,72,0
3720,note_on,,,,,0,0,1,,,,,0,,,71,95
3720,note_on,,,,,0,0,1,,,,,0,,,74,95
3720,note_on,,,,,8,0,1,,,,,0,,,62,95
3720,note_on,,,,,8,0,2,,,,,0,,,43,99
3720,note_on,,,,,0,0,2,,,,,0,,,50,99
3760,set_tempo,,,,,90,1,0,,774193,,,,,,,
3772,note_on,,,,,0,0,1,,,,,0,,,71,0
3772,note_on,,,,,52,0,1,,,,,0,,,74,0
3772,note_on,,,,,52,0,2,,,,,0,,,50,0
3772,note_on,,,,,0,0,2,,,,,0,,,43,0
3772,note_on,,,,,0,0,1,,,,,0,,,62,0
3778,control_change,,,,,6,0,1,,,,,0,64,0,,
3780,note_on,,,,,0,0,2,,,,,0,,,51,94
3780,control_change,,,,,0,0,1,,,,,0,64,96,,
3780,note_on,,,,,0,0,1,,,,,0,,,66,90
3780,note_on,,,,,0,0,1,,,,,0,,,71,90
3780,note_on,,,,,8,0,2,,,,,0,,,39,94
3780,note_on,,,,,2,0,1,,,,,0,,,59,90
3832,note_on,,,,,52,0,2,,,,,0,,,51,0
3832,note_on,,,,,52,0,1,,,,,0,,,59,0
3832,note_on,,,,,0,0,2,,,,,0,,,39,0
3837,note_on,,,,,0,0,1,,,,,0,,,71,0
3837,note_on,,,,,5,0,1,,,,,0,,,66,0
3840,note_on,,,,,0,0,1,,,,,0,,,66,77
3840,note_on,,,,,0,0,1,,,,,0,,,60,77
3840,note_on,,,,,3,0,1,,,,,0,,,69,77
3840,note_on,,,,,8,0,2,,,,,0,,,39,83
3840,set_tempo,,,,,80,1,0,,784313,,,,,,,
3840,note_on,,,,,0,0,2,,,,,0,,,51,83
3892,note_on,,,,,52,0,1,,,,,0,,,66,0
3892,note_on,,,,,0,0,1,,,,,0,,,69,0
3897,note_on,,,,,0,0,2,,,,,0,,,39,0
3897,note_on,,,,,57,0,2,,,,,0,,,51,0
3897,note_on,,,,,5,0,1,,,,,0,,,60,0
3900,note_on,,,,,0,0,2,,,,,0,,,51,74
3900,note_on,,,,,3,0,2,,,,,0,,,39,74
3900,note_on,,,,,0,0,1,,,,,0,,,66,64
3900,note_on,,,,,3,0,1,,,,,0,,,69,64
3900,note_on,,,,,0,0,1,,,,,0,,,60,64
3910,set_tempo,,,,,70,1,0,,800000,,,,,,,
3952,note_on,,,,,0,0,1,,,,,0,,,69,0
3952,note_on,,,,,0,0,1,,,,,0,,,60,0
3952,note_on,,,,,52,0,1,,,,,0,,,66,0
3957,note_on,,,,,57,0,2,,,,,0,,,51,0
3957,note_on,,,,,0,0,2,,,,,0,,,39,0
3958,control_change,,,,,6,0,1,,,,,0,64,0,,
3960,note_on,,,,,0,0,2,,,,,0,,,52,57
3960,note_on,,,,,2,0,1,,,,,0,,,64,51
3960,note_on,,,,,3,0,2,,,,,0,,,40,57
3960,note_on,,,,,0,0,1,,,,,0,,,67,51
3960,control_change,,,,,0,0,1,,,,,0,64,95,,
3960,note_on,,,,,0,0,1,,,,,0,,,59,51
3970,set_tempo,,,,,60,1,0,,810810,,,,,,,
4020,set_tempo,,,,,50,1,0,,816326,,,,,,,
4140,note_on,,,,,0,0,2,,,,,0,,,40,0
4140,set_tempo,,,,,120,1,0,,937500,,,,,,,
4140,note_on,,,,,180,0,1,,,,,0,,,67,0
4140,note_on,,,,,0,0,1,,,,,0,,,59,0
4140,note_on,,,,,180,0,2,,,,,0,,,52,0
4140,note_on,,,,,0,0,1,,,,,0,,,64,0
4270,control_change,,,,,130,0,1,,,,,0,64,0,,
4280,set_tempo,,,,,140,1,0,,754716,,,,,,,
4290,note_on,,,,,20,0,1,,,,,0,,,59,34
4290,note_on,,,,,150,0,2,,,,,0,,,47,41
4290,note_on,,,,,0,0,2,,,,,0,,,50,41
4290,note_on,,,,,0,0,2,,,,,0,,,53,41
4290,note_on,,,,,0,0,2,,,,,0,,,56,41
4290,note_on,,,,,0,0,1,,,,,0,,,62,34
4290,note_on,,,,,0,0,1,,,,,0,,,68,34
4290,note_on,,,,,0,0,1,,,,,0,,,65,34
4315,note_on,,,,,25,0,1,,,,,0,,,68,0
4315,note_on,,,,,0,0,1,,,,,0,,,62,0
4315,note_on,,,,,0,0,1,,,,,0,,,65,0
4315,note_on,,,,,25,0,2,,,,,0,,,56,0
4315,note_on,,,,,0,0,2,,,,,0,,,47,0
4315,note_on,,,,,0,0,2,,,,,0,,,50,0
4315,note_on,,,,,0,0,2,,,,,0,,,53,0
4315,note_on,,,,,0,0,1,,,,,0,,,59,0
4320,note_on,,,,,5,0,1,,,,,0,,,68,38
4320,note_on,,,,,0,0,1,,,,,0,,,59,38
4320,note_on,,,,,0,0,1,,,,,0,,,62,38
4320,note_on,,,,,0,0,1,,,,,0,,,65,38
4320,control_change,,,,,0,0,1,,,,,0,64,96,,
4320,note_on,,,,,0,0,2,,,,,0,,,50,44
4320,note_on,,,,,0,0,2,,,,,0,,,53,44
4320,note_on,,,,,0,0,2,,,,,0,,,56,44
4320,note_on,,,,,5,0,2,,,,,0,,,47,44
4600,set_tempo,,,,,320,1,0,,750000,,,,,,,
4635,note_on,,,,,315,0,1,,,,,0,,,65,0
4635,note_on,,,,,315,0,2,,,,,0,,,56,0
4635,note_on,,,,,0,0,1,,,,,0,,,59,0
4635,note_on,,,,,0,0,1,,,,,0,,,62,0
4635,note_on,,,,,0,0,2,,,,,0,,,47,0
4635,note_on,,,,,0,0,2,,,,,0,,,53,0
4635,note_on,,,,,0,0,2,,,,,0,,,50,0
4635,note_on,,,,,0,0,1,,,,,0,,,68,0
4650,note_on,,,,,15,0,1,,,,,0,,,60,43
4650,note_on,,,,,0,0,2,,,,,0,,,52,44
4650,note_on,,,,,15,0,2,,,,,0,,,48,44
4650,note_on,,,,,0,0,1,,,,,0,,,64,43
4650,note_on,,,,,0,0,1,,,,,0,,,69,43
4650,note_on,,,,,0,0,2,,,,,0,,,57,44
4670,control_change,,,,,20,0,1,,,,,0,64,0,,
4675,note_on,,,,,25,0,2,,,,,0,,,57,0
4675,note_on,,,,,0,0,1,,,,,0,,,60,0
4675,note_on,,,,,0,0,2,,,,,0,,,52,0
4675,note_on,,,,,0,0,2,,,,,0,,,48,0
4675,note_on,,,,,5,0,1,,,,,0,,,69,0
4675,note_on,,,,,0,0,1,,,,,0,,,64,0
4680,note_on,,,,,5,0,1,,,,,0,,,68,46
4680,note_on,,,,,0,0,1,,,,,0,,,77,46
4680,note_on,,,,,5,0,2,,,,,0,,,56,50
4680,note_on,,,,,0,0,2,,,,,0,,,53,50
4680,note_on,,,,,0,0,2,,,,,0,,,47,50
4680,control_change,,,,,0,0,1,,,,,0,64,96,,
4680,note_on,,,,,0,0,1,,,,,0,,,65,46
4770,set_tempo,,,,,170,1,0,,754716,,,,,,,
4790,set_tempo,,,,,20,1,0,,759493,,,,,,,
4860,set_tempo,,,,,70,1,0,,779220,,,,,,,
4870,set_tempo,,,,,10,1,0,,789473,,,,,,,
4965,note_on,,,,,0,0,1,,,,,0,,,77,0
4965,note_on,,,,,0,0,1,,,,,0,,,68,0
4965,note_on,,,,,0,0,2,,,,,0,,,56,0
4965,note_on,,,,,285,0,2,,,,,0,,,47,0
4965,note_on,,,,,285,0,1,,,,,0,,,65,0
4965,note_on,,,,,0,0,2,,,,,0,,,53,0
4970,control_change,,,,,5,0,1,,,,,0,64,0,,
4970,set_tempo,,,,,100,1,0,,774193,,,,,,,
4980,note_on,,,,,10,0,1,,,,,0,,,64,42
4980,note_on,,,,,0,0,1,,,,,0,,,76,42
4980,note_on,,,,,0,0,1,,,,,0,,,69,42
4980,note_on,,,,,0,0,2,,,,,0,,,57,46
4980,note_on,,,,,0,0,2,,,,,0,,,52,46
4980,note_on,,,,,15,0,2,,,,,0,,,48,46
4980,set_tempo,,,,,10,1,0,,769230,,,,,,,
5040,note_on,,,,,0,0,1,,,,,0,,,69,0
5040,note_on,,,,,0,0,1,,,,,0,,,64,44
5040,note_on,,,,,60,0,1,,,,,0,,,76,0
5040,note_on,,,,,0,0,1,,,,,0,,,64,0
5040,note_on,,,,,0,0,2,,,,,0,,,48,0
5040,note_on,,,,,0,0,2,,,,,0,,,36,44
5040,note_on,,,,,0,0,2,,,,,0,,,48,44
5040,note_on,,,,,0,0,1,,,,,0,,,74,44
5040,note_on,,,,,0,0,2,,,,,0,,,52,0
5040,control_change,,,,,0,0,1,,,,,0,64,95,,
5040,note_on,,,,,60,0,2,,,,,0,,,57,0
5096,note_on,,,,,0,0,1,,,,,0,,,64,0
5096,note_on,,,,,56,0,1,,,,,0,,,74,0
5096,note_on,,,,,56,0,2,,,,,0,,,48,0
5096,note_on,,,,,0,0,2,,,,,0,,,36,0
5100,note_on,,,,,0,0,1,,,,,0,,,72,46
5100,note_on,,,,,4,0,1,,,,,0,,,64,46
5100,note_on,,,,,0,0,2,,,,,0,,,48,40
5100,note_on,,,,,4,0,2,,,,,0,,,36,40
5120,set_tempo,,,,,140,1,0,,745341,,,,,,,
5130,control_change,,,,,30,0,1,,,,,0,64,0,,
5152,note_on,,,,,22,0,1,,,,,0,,,72,0
5152,note_on,,,,,0,0,2,,,,,0,,,36,0
5152,note_on,,,,,52,0,2,,,,,0,,,48,0
5152,note_on,,,,,0,0,1,,,,,0,,,64,0
5160,note_on,,,,,8,0,2,,,,,0,,,36,40
5160,note_on,,,,,8,0,1,,,,,0,,,64,46
5160,note_on,,,,,0,0,1,,,,,0,,,62,46
5160,note_on,,,,,0,0,2,,,,,0,,,48,40
5160,note_on,,,,,0,0,1,,,,,0,,,71,46
5200,set_tempo,,,,,80,1,0,,727272,,,,,,,
5212,note_on,,,,,0,0,2,,,,,0,,,36,0
5212,note_on,,,,,52,0,2,,,,,0,,,48,0
5212,note_on,,,,,52,0,1,,,,,0,,,71,0
5212,note_on,,,,,0,0,1,,,,,0,,,62,0
5212,note_on,,,,,0,0,1,,,,,0,,,64,0
5220,note_on,,,,,0,0,2,,,,,0,,,48,40
5220,note_on,,,,,8,0,2,,,,,0,,,36,40
5220,note_on,,,,,0,0,1,,,,,0,,,69,46
5220,note_on,,,,,0,0,1,,,,,0,,,64,46
5220,note_on,,,,,8,0,1,,,,,0,,,60,46
5272,note_on,,,,,52,0,2,,,,,0,,,48,0
5272,note_on,,,,,0,0,2,,,,,0,,,36,0
5272,note_on,,,,,0,0,1,,,,,0,,,60,0
5272,note_on,,,,,52,0,1,,,,,0,,,69,0
5272,note_on,,,,,0,0,1,,,,,0,,,64,0
5280,note_on,,,,,0,0,2,,,,,0,,,48,42
5280,note_on,,,,,8,0,2,,,,,0,,,36,42
5280,note_on,,,,,0,0,1,,,,,0,,,64,51
5280,note_on,,,,,0,0,1,,,,,0,,,71,51
5280,note_on,,,,,8,0,1,,,,,0,,,62,51
5310,set_tempo,,,,,110,1,0,,710059,,,,,,,
5332,note_on,,,,,52,0,2,,,,,0,,,48,0
5332,note_on,,,,,52,0,1,,,,,0,,,71,0
5332,note_on,,,,,0,0,1,,,,,0,,,64,0
5332,note_on,,,,,0,0,1,,,,,0,,,62,0
5332,note_on,,,,,0,0,2,,,,,0,,,36,0
5340,note_on,,,,,8,0,1,,,,,0,,,64,58
5340,note_on,,,,,0,0,1,,,,,0,,,72,58
5340,note_on,,,,,8,0,2,,,,,0,,,36,45
5340,note_on,,,,,0,0,2,,,,,0,,,48,45
5385,note_on,,,,,0,0,2,,,,,0,,,36,0
5385,note_on,,,,,45,0,2,,,,,0,,,48,0
5385,note_on,,,,,0,0,1,,,,,0,,,64,0
5385,note_on,,,,,45,0,1,,,,,0,,,72,0
5400,set_tempo,,,,,90,1,0,,740740,,,,,,,
5400,note_on,,,,,0,0,1,,,,,0,,,71,67
5400,control_change,,,,,0,0,1,,,,,0,64,95,,
5400,note_on,,,,,0,0,1,,,,,0,,,64,67
5400,note_on,,,,,15,0,1,,,,,0,,,62,67
5400,note_on,,,,,15,0,2,,,,,0,,,36,51
5400,note_on,,,,,0,0,2,,,,,0,,,48,51
5410,set_tempo,,,,,10,1,0,,736196,,,,,,,
5450,set_tempo,,,,,40,1,0,,731707,,,,,,,
5456,note_on,,,,,0,0,2,,,,,0,,,36,0
5456,note_on,,,,,0,0,1,,,,,0,,,62,0
5456,note_on,,,,,56,0,1,,,,,0,,,71,0
5456,note_on,,,,,56,0,2,,,,,0,,,48,0
5456,note_on,,,,,0,0,1,,,,,0,,,64,0
5460,note_on,,,,,0,0,1,,,,,0,,,64,54
5460,note_on,,,,,0,0,2,,,,,0,,,48,56
5460,note_on,,,,,0,0,1,,,,,0,,,69,54
5460,note_on,,,,,4,0,1,,,,,0,,,60,54
5460,note_on,,,,,4,0,2,,,,,0,,,36,56
5460,set_tempo,,,,,10,1,0,,727272,,,,,,,
5490,control_change,,,,,30,0,1,,,,,0,64,0,,
5512,note_on,,,,,0,0,1,,,,,0,,,64,0
5512,note_on,,,,,0,0,1,,,,,0,,,60,0
5512,note_on,,,,,52,0,2,,,,,0,,,48,0
5512,note_on,,,,,0,0,2,,,,,0,,,36,0
5512,note_on,,,,,22,0,1,,,,,0,,,69,0
5520,note_on,,,,,8,0,2,,,,,0,,,49,62
5520,note_on,,,,,0,0,2,,,,,0,,,37,62
5520,note_on,,,,,8,0,1,,,,,0,,,59,60
5520,note_on,,,,,0,0,1,,,,,0,,,64,60
5520,note_on,,,,,0,0,1,,,,,0,,,67,60
5540,set_tempo,,,,,80,1,0,,710059,,,,,,,
5572,note_on,,,,,52,0,2,,,,,0,,,37,0
5572,note_on,,,,,0,0,2,,,,,0,,,49,0
5572,note_on,,,,,0,0,1,,,,,0,,,59,0
5572,note_on,,,,,0,0,1,,,,,0,,,64,0
5572,note_on,,,,,52,0,1,,,,,0,,,67,0
5580,note_on,,,,,0,0,1,,,,,0,,,66,65
5580,note_on,,,,,8,0,1,,,,,0,,,57,65
5580,note_on,,,,,0,0,2,,,,,0,,,50,68
5580,note_on,,,,,8,0,2,,,,,0,,,38,68
5580,note_on,,,,,0,0,1,,,,,0,,,62,65
5590,set_tempo,,,,,50,1,0,,722891,,,,,,,
5632,note_on,,,,,0,0,2,,,,,0,,,38,0
5632,note_on,,,,,52,0,1,,,,,0,,,66,0
5632,note_on,,,,,0,0,1,,,,,0,,,62,0
5632,note_on,,,,,0,0,1,,,,,0,,,57,0
5632,note_on,,,,,52,0,2,,,,,0,,,50,0
5640,note_on,,,,,0,0,2,,,,,0,,,50,76
5640,note_on,,,,,8,0,1,,,,,0,,,59,74
5640,note_on,,,,,0,0,1,,,,,0,,,62,74
5640,note_on,,,,,0,0,1,,,,,0,,,67,74
5640,note_on,,,,,8,0,2,,,,,0,,,38,76
5650,set_tempo,,,,,60,1,0,,736196,,,,,,,
5692,note_on,,,,,0,0,1,,,,,0,,,59,0
5692,note_on,,,,,52,0,2,,,,,0,,,50,0
5692,note_on,,,,,0,0,2,,,,,0,,,38,0
5692,note_on,,,,,0,0,1,,,,,0,,,62,0
5692,note_on,,,,,52,0,1,,,,,0,,,67,0
5700,note_on,,,,,8,0,1,,,,,0,,,60,81
5700,note_on,,,,,0,0,1,,,,,0,,,69,81
5700,note_on,,,,,0,0,2,,,,,0,,,50,83
5700,note_on,,,,,8,0,2,,,,,0,,,38,83
5700,note_on,,,,,0,0,1,,,,,0,,,62,81
5730,set_tempo,,,,,80,1,0,,750000,,,,,,,
5745,note_on,,,,,0,0,2,,,,,0,,,38,0
5745,note_on,,,,,45,0,2,,,,,0,,,50,0
5745,note_on,,,,,0,0,1,,,,,0,,,60,0
5745,note_on,,,,,0,0,1,,,,,0,,,62,0
5745,note_on,,,,,45,0,1,,,,,0,,,69,0
5760,control_change,,,,,0,0,1,,,,,0,64,95,,
5760,note_on,,,,,0,0,1,,,,,0,,,66,88
5760,note_on,,,,,0,0,1,,,,,0,,,62,88
5760,note_on,,,,,0,0,1,,,,,0,,,60,88
5760,note_on,,,,,15,0,1,,,,,0,,,69,88
5760,note_on,,,,,15,0,2,,,,,0,,,38,92
5760,note_on,,,,,0,0,2,,,,,0,,,50,92
5820,set_tempo,,,,,90,1,0,,769230,,,,,,,
5880,set_tempo,,,,,60,1,0,,774193,,,,,,,
5930,set_tempo,,,,,50,1,0,,794701,,,,,,,
6000,set_tempo,,,,,70,1,0,,810810,,,,,,,
6060,note_on,,,,,300,0,1,,,,,0,,,69,0
6060,note_on,,,,,0,0,1,,,,,0,,,70,59
6110,control_change,,,,,50,0,1,,,,,0,64,0,,
6110,set_tempo,,,,,110,1,0,,794701,,,,,,,
6120,note_on,,,,,0,0,1,,,,,0,,,67,45
6120,control_change,,,,,0,0,1,,,,,0,64,96,,
6120,note_on,,,,,0,0,1,,,,,0,,,71,45
6120,note_on,,,,,360,0,2,,,,,0,,,50,0
6120,note_on,,,,,0,0,2,,,,,0,,,38,0
6120,note_on,,,,,0,0,2,,,,,0,,,43,48
6120,note_on,,,,,0,0,2,,,,,0,,,50,48
6120,note_on,,,,,0,0,1,,,,,0,,,60,0
6120,note_on,,,,,0,0,1,,,,,0,,,62,0
6120,note_on,,,,,0,0,1,,,,,0,,,59,45
6120,note_on,,,,,0,0,1,,,,,0,,,62,45
6120,note_on,,,,,0,0,1,,,,,0,,,66,0
6120,note_on,,,,,10,0,1,,,,,0,,,70,0
6270,set_tempo,,,,,160,1,0,,769230,,,,,,,
6360,note_on,,,,,240,0,2,,,,,0,,,50,0
6360,note_on,,,,,0,0,1,,,,,0,,,59,0
6360,note_on,,,,,0,0,1,,,,,0,,,62,0
6360,note_on,,,,,0,0,1,,,,,0,,,67,0
6360,control_change,,,,,0,0,1,,,,,0,64,0,,
6360,note_on,,,,,0,0,2,,,,,0,,,43,0
6360,note_on,,,,,240,0,1,,,,,0,,,71,0
6410,set_tempo,,,,,140,1,0,,769230,,,,,,,
6480,set_tempo,,,,,70,1,0,,805369,,,,,,,
6480,note_on,,,,,120,0,1,,,,,0,,,62,32
6480,note_on,,,,,0,0,1,,,,,0,,,71,32
6480,control_change,,,,,0,0,1,,,,,0,64,95,,
6480,note_on,,,,,0,0,1,,,,,0,,,66,32
6480,note_on,,,,,120,0,2,,,,,0,,,30,32
6480,note_on,,,,,0,0,2,,,,,0,,,42,32
6615,note_on,,,,,0,0,1,,,,,0,,,62,0
6615,note_on,,,,,135,0,2,,,,,0,,,42,0
6615,note_on,,,,,0,0,2,,,,,0,,,30,0
6615,note_on,,,,,0,0,1,,,,,0,,,66,0
6615,note_on,,,,,135,0,1,,,,,0,,,71,0
6630,note_on,,,,,0,0,1,,,,,0,,,71,31
6630,note_on,,,,,15,0,1,,,,,0,,,62,31
6630,note_on,,,,,15,0,2,,,,,0,,,30,31
6630,note_on,,,,,0,0,2,,,,,0,,,42,31
6630,note_on,,,,,0,0,1,,,,,0,,,66,31
6655,note_on,,,,,0,0,1,,,,,0,,,62,0
6655,note_on,,,,,25,0,2,,,,,0,,,42,0
6655,note_on,,,,,25,0,1,,,,,0,,,71,0
6655,note_on,,,,,0,0,2,,,,,0,,,30,0
6655,note_on,,,,,0,0,1,,,,,0,,,66,0
6660,note_on,,,,,0,0,1,,,,,0,,,67,36
6660,note_on,,,,,5,0,1,,,,,0,,,64,36
6660,note_on,,,,,0,0,2,,,,,0,,,42,36
6660,note_on,,,,,5,0,2,,,,,0,,,30,36
6660,note_on,,,,,0,0,1,,,,,0,,,73,36
6780,control_change,,,,,120,0,1,,,,,0,64,0,,
6825,note_on,,,,,45,0,1,,,,,0,,,73,0
6825,note_on,,,,,165,0,2,,,,,0,,,42,0
6825,note_on,,,,,0,0,2,,,,,0,,,30,0
6825,note_on,,,,,0,0,1,,,,,0,,,64,0
6825,note_on,,,,,0,0,1,,,,,0,,,67,0
6840,note_on,,,,,0,0,2,,,,,0,,,42,32
6840,note_on,,,,,15,0,2,,,,,0,,,30,32
6840,note_on,,,,,0,0,1,,,,,0,,,66,32
6840,note_on,,,,,0,0,1,,,,,0,,,71,32
6840,control_change,,,,,0,0,1,,,,,0,64,96,,
6840,note_on,,,,,15,0,1,,,,,0,,,62,32
6975,note_on,,,,,135,0,2,,,,,0,,,42,0
6975,note_on,,,,,135,0,1,,,,,0,,,71,0
6975,note_on,,,,,0,0,1,,,,,0,,,66,0
6975,note_on,,,,,0,0,1,,,,,0,,,62,0
6975,note_on,,,,,0,0,2,,,,,0,,,30,0
6990,note_on,,,,,15,0,2,,,,,0,,,30,33
6990,note_on,,,,,15,0,1,,,,,0,,,62,31
6990,note_on,,,,,0,0,2,,,,,0,,,42,33
6990,note_on,,,,,0,0,1,,,,,0,,,66,31
6990,note_on,,,,,0,0,1,,,,,0,,,71,31
7015,note_on,,,,,25,0,1,,,,,0,,,71,0
7015,note_on,,,,,0,0,2,,,,,0,,,30,0
7015,note_on,,,,,0,0,1,,,,,0,,,66,0
7015,note_on,,,,,0,0,1,,,,,0,,,62,0
7015,note_on,,,,,25,0,2,,,,,0,,,42,0
7020,note_on,,,,,0,0,1,,,,,0,,,66,33
7020,note_on,,,,,5,0,1,,,,,0,,,61,33
7020,note_on,,,,,0,0,2,,,,,0,,,42,36
7020,note_on,,,,,0,0,1,,,,,0,,,70,33
7020,note_on,,,,,5,0,2,,,,,0,,,30,36
7140,control_change,,,,,120,0,1,,,,,0,64,0,,
7185,note_on,,,,,45,0,1,,,,,0,,,70,0
7185,note_on,,,,,0,0,1,,,,,0,,,61,0
7185,note_on,,,,,0,0,1,,,,,0,,,66,0
7185,note_on,,,,,0,0,2,,,,,0,,,30,0
7185,note_on,,,,,165,0,2,,,,,0,,,42,0
7200,note_on,,,,,15,0,2,,,,,0,,,30,36
7200,note_on,,,,,0,0,1,,,,,0,,,71,37
7200,note_on,,,,,0,0,1,,,,,0,,,66,37
7200,set_tempo,,,,,720,1,0,,789473,,,,,,,
7200,note_on,,,,,15,0,1,,,,,0,,,62,37
7200,note_on,,,,,0,0,2,,,,,0,,,42,36
7250,set_tempo,,,,,50,1,0,,764331,,,,,,,
7252,note_on,,,,,0,0,1,,,,,0,,,62,0
7252,note_on,,,,,0,0,1,,,,,0,,,66,0
7252,note_on,,,,,52,0,1,,,,,0,,,71,0
7252,note_on,,,,,52,0,2,,,,,0,,,42,0
7252,note_on,,,,,0,0,2,,,,,0,,,30,0
7260,note_on,,,,,0,0,1,,,,,0,,,73,43
7260,note_on,,,,,8,0,2,,,,,0,,,30,40
7260,note_on,,,,,8,0,1,,,,,0,,,62,43
7260,note_on,,,,,0,0,1,,,,,0,,,66,43
7260,note_on,,,,,0,0,2,,,,,0,,,42,40
7280,set_tempo,,,,,30,1,0,,745341,,,,,,,
7312,note_on,,,,,0,0,2,,,,,0,,,30,0
7312,note_on,,,,,0,0,1,,,,,0,,,62,0
7312,note_on,,,,,0,0,1,,,,,0,,,66,0
7312,note_on,,,,,52,0,1,,,,,0,,,73,0
7312,note_on,,,,,52,0,2,,,,,0,,,42,0
7320,note_on,,,,,0,0,1,,,,,0,,,71,49
7320,note_on,,,,,0,0,1,,,,,0,,,66,49
7320,note_on,,,,,8,0,1,,,,,0,,,62,49
7320,note_on,,,,,8,0,2,,,,,0,,,30,44
7320,note_on,,,,,0,0,2,,,,,0,,,42,44
7350,set_tempo,,,,,70,1,0,,727272,,,,,,,
7372,note_on,,,,,0,0,2,,,,,0,,,30,0
7372,note_on,,,,,52,0,2,,,,,0,,,42,0
7372,note_on,,,,,52,0,1,,,,,0,,,71,0
7372,note_on,,,,,0,0,1,,,,,0,,,66,0
7372,note_on,,,,,0,0,1,,,,,0,,,62,0
7380,note_on,,,,,0,0,2,,,,,0,,,42,49
7380,set_tempo,,,,,30,1,0,,816326,,,,,,,
7380,note_on,,,,,8,0,1,,,,,0,,,64,52
7380,note_on,,,,,0,0,1,,,,,0,,,67,52
7380,note_on,,,,,0,0,1,,,,,0,,,74,52
7380,control_change,,,,,0,0,1,,,,,0,64,96,,
7380,note_on,,,,,8,0,2,,,,,0,,,30,49
7500,note_on,,,,,120,0,1,,,,,0,,,74,0
7500,note_on,,,,,0,0,1,,,,,0,,,73,38
7520,set_tempo,,,,,140,1,0,,774193,,,,,,,
7545,note_on,,,,,165,0,2,,,,,0,,,42,0
7545,note_on,,,,,0,0,2,,,,,0,,,30,0
7545,note_on,,,,,0,0,1,,,,,0,,,64,0
7545,note_on,,,,,0,0,1,,,,,0,,,67,0
7545,note_on,,,,,45,0,1,,,,,0,,,73,0
7558,control_change,,,,,13,0,1,,,,,0,64,0,,
7560,note_on,,,,,2,0,1,,,,,0,,,62,35
7560,note_on,,,,,0,0,1,,,,,0,,,66,35
7560,note_on,,,,,0,0,1,,,,,0,,,73,35
7560,note_on,,,,,0,0,2,,,,,0,,,42,38
7560,note_on,,,,,15,0,2,,,,,0,,,30,38
7560,set_tempo,,,,,40,1,0,,764331,,,,,,,
7612,note_on,,,,,52,0,1,,,,,0,,,73,0
7612,note_on,,,,,0,0,1,,,,,0,,,66,0
7612,note_on,,,,,0,0,2,,,,,0,,,30,0
7612,note_on,,,,,52,0,2,,,,,0,,,42,0
7612,note_on,,,,,0,0,1,,,,,0,,,62,0
7620,note_on,,,,,8,0,1,,,,,0,,,62,39
7620,note_on,,,,,0,0,1,,,,,0,,,66,39
7620,note_on,,,,,0,0,1,,,,,0,,,71,39
7620,note_on,,,,,8,0,2,,,,,0,,,30,42
7620,note_on,,,,,0,0,2,,,,,0,,,42,42
7630,set_tempo,,,,,70,1,0,,745341,,,,,,,
7672,note_on,,,,,0,0,1,,,,,0,,,66,0
7672,note_on,,,,,52,0,2,,,,,0,,,42,0
7672,note_on,,,,,0,0,2,,,,,0,,,30,0
7672,note_on,,,,,52,0,1,,,,,0,,,71,0
7672,note_on,,,,,0,0,1,,,,,0,,,62,0
7680,note_on,,,,,8,0,2,,,,,0,,,30,47
7680,note_on,,,,,0,0,2,,,,,0,,,42,47
7680,note_on,,,,,0,0,1,,,,,0,,,73,44
7680,note_on,,,,,0,0,1,,,,,0,,,66,44
7680,note_on,,,,,8,0,1,,,,,0,,,62,44
7690,set_tempo,,,,,60,1,0,,727272,,,,,,,
7730,set_tempo,,,,,40,1,0,,714285,,,,,,,
7732,note_on,,,,,0,0,1,,,,,0,,,62,0
7732,note_on,,,,,0,0,2,,,,,0,,,30,0
7732,note_on,,,,,52,0,2,,,,,0,,,42,0
7732,note_on,,,,,52,0,1,,,,,0,,,73,0
7732,note_on,,,,,0,0,1,,,,,0,,,66,0
7740,control_change,,,,,0,0,1,,,,,0,64,94,,
7740,note_on,,,,,0,0,1,,,,,0,,,66,49
7740,note_on,,,,,0,0,1,,,,,0,,,61,49
7740,set_tempo,,,,,10,1,0,,779220,,,,,,,
7740,note_on,,,,,0,0,2,,,,,0,,,42,51
7740,note_on,,,,,8,0,2,,,,,0,,,30,51
7740,note_on,,,,,8,0,1,,,,,0,,,71,49
7750,set_tempo,,,,,10,1,0,,810810,,,,,,,
7860,note_on,,,,,120,0,1,,,,,0,,,71,0
7860,note_on,,,,,0,0,1,,,,,0,,,70,33
7905,note_on,,,,,0,0,2,,,,,0,,,30,0
7905,note_on,,,,,165,0,2,,,,,0,,,42,0
7905,note_on,,,,,45,0,1,,,,,0,,,70,0
7905,note_on,,,,,0,0,1,,,,,0,,,66,0
7905,note_on,,,,,0,0,1,,,,,0,,,61,0
7918,control_change,,,,,13,0,1,,,,,0,64,0,,
7920,note_on,,,,,0,0,1,,,,,0,,,70,44
7920,control_change,,,,,0,0,1,,,,,0,64,95,,
7920,set_tempo,,,,,170,1,0,,764331,,,,,,,
7920,note_on,,,,,0,0,2,,,,,0,,,42,42
7920,note_on,,,,,15,0,2,,,,,0,,,30,42
7920,note_on,,,,,0,0,1,,,,,0,,,66,44
7920,note_on,,,,,2,0,1,,,,,0,,,61,44
7930,set_tempo,,,,,10,1,0,,769230,,,,,,,
7960,set_tempo,,,,,30,1,0,,764331,,,,,,,
7980,note_on,,,,,0,0,1,,,,,0,,,66,0
7980,note_on,,,,,0,0,2,,,,,0,,,30,40
7980,note_on,,,,,0,0,2,,,,,0,,,42,40
7980,note_on,,,,,60,0,2,,,,,0,,,42,0
7980,note_on,,,,,60,0,1,,,,,0,,,70,0
7980,note_on,,,,,0,0,2,,,,,0,,,30,0
7980,note_on,,,,,0,0,1,,,,,0,,,73,37
7980,note_on,,,,,0,0,1,,,,,0,,,70,37
7980,note_on,,,,,0,0,1,,,,,0,,,61,37
7980,note_on,,,,,0,0,1,,,,,0,,,61,0
8030,set_tempo,,,,,70,1,0,,750000,,,,,,,
8036,note_on,,,,,56,0,1,,,,,0,,,73,0
8036,note_on,,,,,0,0,2,,,,,0,,,30,0
8036,note_on,,,,,56,0,2,,,,,0,,,42,0
8036,note_on,,,,,0,0,1,,,,,0,,,70,0
8036,note_on,,,,,0,0,1,,,,,0,,,61,0
8040,note_on,,,,,0,0,1,,,,,0,,,73,39
8040,note_on,,,,,0,0,2,,,,,0,,,42,44
8040,note_on,,,,,0,0,1,,,,,0,,,70,39
8040,note_on,,,,,4,0,1,,,,,0,,,61,39
8040,note_on,,,,,4,0,2,,,,,0,,,30,44
8040,set_tempo,,,,,10,1,0,,745341,,,,,,,
8092,note_on,,,,,0,0,2,,,,,0,,,30,0
8092,note_on,,,,,52,0,1,,,,,0,,,73,0
8092,note_on,,,,,0,0,1,,,,,0,,,70,0
8092,note_on,,,,,0,0,1,,,,,0,,,61,0
8092,note_on,,,,,52,0,2,,,,,0,,,42,0
8098,control_change,,,,,6,0,1,,,,,0,64,0,,
8100,note_on,,,,,2,0,1,,,,,0,,,68,47
8100,note_on,,,,,0,0,1,,,,,0,,,71,47
8100,note_on,,,,,8,0,2,,,,,0,,,30,51
8100,note_on,,,,,0,0,2,,,,,0,,,42,51
8100,note_on,,,,,0,0,1,,,,,0,,,73,47
8100,control_change,,,,,0,0,1,,,,,0,64,95,,
8110,set_tempo,,,,,70,1,0,,731707,,,,,,,
8160,note_on,,,,,0,0,1,,,,,0,,,71,44
8160,note_on,,,,,0,0,1,,,,,0,,,71,0
8160,note_on,,,,,0,0,1,,,,,0,,,68,0
8160,note_on,,,,,60,0,2,,,,,0,,,42,0
8160,note_on,,,,,0,0,2,,,,,0,,,30,0
8160,note_on,,,,,0,0,2,,,,,0,,,30,49
8160,note_on,,,,,0,0,2,,,,,0,,,42,49
8160,note_on,,,,,0,0,1,,,,,0,,,75,44
8160,note_on,,,,,0,0,1,,,,,0,,,68,44
8160,note_on,,,,,60,0,1,,,,,0,,,73,0
8175,set_tempo,,,,,65,1,0,,718562,,,,,,,
8216,note_on,,,,,56,0,2,,,,,0,,,42,0
8216,note_on,,,,,0,0,2,,,,,0,,,30,0
8216,note_on,,,,,0,0,1,,,,,0,,,68,0
8216,note_on,,,,,0,0,1,,,,,0,,,71,0
8216,note_on,,,,,56,0,1,,,,,0,,,75,0
8220,note_on,,,,,4,0,1,,,,,0,,,68,49
8220,note_on,,,,,0,0,1,,,,,0,,,77,49
8220,note_on,,,,,0,0,2,,,,,0,,,42,50
8220,note_on,,,,,0,0,1,,,,,0,,,71,49
8220,note_on,,,,,4,0,2,,,,,0,,,30,50
8230,set_tempo,,,,,55,1,0,,701754,,,,,,,
8240,set_tempo,,,,,10,1,0,,697674,,,,,,,
8270,set_tempo,,,,,30,1,0,,685714,,,,,,,
8272,note_on,,,,,0,0,1,,,,,0,,,68,0
8272,note_on,,,,,52,0,2,,,,,0,,,42,0
8272,note_on,,,,,0,0,2,,,,,0,,,30,0
8272,note_on,,,,,52,0,1,,,,,0,,,77,0
8272,note_on,,,,,0,0,1,,,,,0,,,71,0
8276,control_change,,,,,4,0,1,,,,,0,64,0,,
8280,note_on,,,,,8,0,2,,,,,0,,,30,54
8280,note_on,,,,,0,0,2,,,,,0,,,42,54
8280,note_on,,,,,4,0,1,,,,,0,,,68,53
8280,note_on,,,,,0,0,1,,,,,0,,,71,53
8280,control_change,,,,,0,0,1,,,,,0,64,96,,
8280,note_on,,,,,0,0,1,,,,,0,,,77,53
8340,note_on,,,,,0,0,2,,,,,0,,,42,45
8340,note_on,,,,,0,0,1,,,,,0,,,78,47
8340,note_on,,,,,0,0,1,,,,,0,,,70,47
8340,note_on,,,,,0,0,1,,,,,0,,,66,47
8340,note_on,,,,,0,0,1,,,,,0,,,68,0
8340,note_on,,,,,0,0,2,,,,,0,,,30,45
8340,note_on,,,,,60,0,2,,,,,0,,,42,0
8340,note_on,,,,,0,0,2,,,,,0,,,30,0
8340,note_on,,,,,0,0,1,,,,,0,,,71,0
8340,note_on,,,,,60,0,1,,,,,0,,,77,0
8360,set_tempo,,,,,90,1,0,,693641,,,,,,,
8370,set_tempo,,,,,10,1,0,,705882,,,,,,,
8396,note_on,,,,,56,0,1,,,,,0,,,78,0
8396,note_on,,,,,0,0,1,,,,,0,,,66,0
8396,note_on,,,,,0,0,2,,,,,0,,,30,0
8396,note_on,,,,,0,0,1,,,,,0,,,70,0
8396,note_on,,,,,56,0,2,,,,,0,,,42,0
8400,note_on,,,,,0,0,1,,,,,0,,,70,42
8400,note_on,,,,,4,0,1,,,,,0,,,66,42
8400,note_on,,,,,0,0,1,,,,,0,,,78,42
8400,note_on,,,,,4,0,2,,,,,0,,,30,39
8400,note_on,,,,,0,0,2,,,,,0,,,42,39
8410,set_tempo,,,,,40,1,0,,722891,,,,,,,
8440,set_tempo,,,,,30,1,0,,754716,,,,,,,
8450,set_tempo,,,,,10,1,0,,764331,,,,,,,
8456,note_on,,,,,0,0,1,,,,,0,,,66,0
8456,note_on,,,,,0,0,1,,,,,0,,,70,0
8456,note_on,,,,,56,0,2,,,,,0,,,42,0
8456,note_on,,,,,0,0,2,,,,,0,,,30,0
8456,note_on,,,,,56,0,1,,,,,0,,,78,0
8458,control_change,,,,,2,0,1,,,,,0,64,0,,
8460,note_on,,,,,0,0,1,,,,,0,,,78,43
8460,note_on,,,,,4,0,2,,,,,0,,,30,43
8460,note_on,,,,,0,0,2,,,,,0,,,42,43
8460,control_change,,,,,0,0,1,,,,,0,64,95,,
8460,note_on,,,,,0,0,1,,,,,0,,,70,43
8460,note_on,,,,,2,0,1,,,,,0,,,66,43
8480,set_tempo,,,,,30,1,0,,789473,,,,,,,
8490,set_tempo,,,,,10,1,0,,794701,,,,,,,
8540,set_tempo,,,,,50,1,0,,833333,,,,,,,
8620,set_tempo,,,,,80,1,0,,821917,,,,,,,
8625,note_on,,,,,0,0,2,,,,,0,,,30,0
8625,note_on,,,,,165,0,2,,,,,0,,,42,0
8625,note_on,,,,,165,0,1,,,,,0,,,78,0
8625,note_on,,,,,0,0,1,,,,,0,,,70,0
8625,note_on,,,,,0,0,1,,,,,0,,,66,0
8630,set_tempo,,,,,10,1,0,,769230,,,,,,,
8638,control_change,,,,,13,0,1,,,,,0,64,0,,
8640,note_on,,,,,0,0,2,,,,,0,,,42,32
8640,note_on,,,,,15,0,2,,,,,0,,,30,32
8640,control_change,,,,,0,0,1,,,,,0,64,95,,
8640,note_on,,,,,0,0,1,,,,,0,,,71,32
8640,set_tempo,,,,,10,1,0,,805369,,,,,,,
8640,note_on,,,,,0,0,1,,,,,0,,,66,32
8640,note_on,,,,,2,0,1,,,,,0,,,63,32
8775,note_on,,,,,135,0,1,,,,,0,,,71,0
8775,note_on,,,,,0,0,1,,,,,0,,,63,0
8775,note_on,,,,,0,0,1,,,,,0,,,66,0
8775,note_on,,,,,0,0,2,,,,,0,,,30,0
8775,note_on,,,,,135,0,2,,,,,0,,,42,0
8790,note_on,,,,,15,0,1,,,,,0,,,63,31
8790,note_on,,,,,0,0,1,,,,,0,,,66,31
8790,note_on,,,,,0,0,1,,,,,0,,,71,31
8790,note_on,,,,,15,0,2,,,,,0,,,30,31
8790,note_on,,,,,0,0,2,,,,,0,,,42,31
8815,note_on,,,,,0,0,2,,,,,0,,,30,0
8815,note_on,,,,,25,0,2,,,,,0,,,42,0
8815,note_on,,,,,0,0,1,,,,,0,,,63,0
8815,note_on,,,,,0,0,1,,,,,0,,,66,0
8815,note_on,,,,,25,0,1,,,,,0,,,71,0
8820,note_on,,,,,0,0,1,,,,,0,,,73,36
8820,note_on,,,,,0,0,1,,,,,0,,,64,36
8820,note_on,,,,,5,0,1,,,,,0,,,68,36
8820,note_on,,,,,5,0,2,,,,,0,,,30,36
8820,note_on,,,,,0,0,2,,,,,0,,,42,36
8940,control_change,,,,,120,0,1,,,,,0,64,0,,
8985,note_on,,,,,0,0,1,,,,,0,,,68,0
8985,note_on,,,,,0,0,1,,,,,0,,,64,0
8985,note_on,,,,,45,0,1,,,,,0,,,73,0
8985,note_on,,,,,0,0,2,,,,,0,,,30,0
8985,note_on,,,,,165,0,2,,,,,0,,,42,0
9000,note_on,,,,,0,0,1,,,,,0,,,71,37
9000,note_on,,,,,0,0,2,,,,,0,,,42,37
9000,control_change,,,,,0,0,1,,,,,0,64,96,,
9000,note_on,,,,,0,0,1,,,,,0,,,66,37
9000,note_on,,,,,15,0,1,,,,,0,,,63,37
9000,note_on,,,,,15,0,2,,,,,0,,,30,37
9135,note_on,,,,,135,0,2,,,,,0,,,42,0
9135,note_on,,,,,0,0,1,,,,,0,,,63,0
9135,note_on,,,,,0,0,1,,,,,0,,,66,0
9135,note_on,,,,,135,0,1,,,,,0,,,71,0
9135,note_on,,,,,0,0,2,,,,,0,,,30,0
9150,note_on,,,,,0,0,1,,,,,0,,,66,39
9150,note_on,,,,,0,0,1,,,,,0,,,71,39
9150,note_on,,,,,0,0,2,,,,,0,,,42,37
9150,note_on,,,,,15,0,2,,,,,0,,,30,37
9150,note_on,,,,,15,0,1,,,,,0,,,63,39
9175,note_on,,,,,25,0,1,,,,,0,,,71,0
9175,note_on,,,,,0,0,1,,,,,0,,,66,0
9175,note_on,,,,,0,0,1,,,,,0,,,63,0
9175,note_on,,,,,0,0,2,,,,,0,,,30,0
9175,note_on,,,,,25,0,2,,,,,0,,,42,0
9180,note_on,,,,,5,0,1,,,,,0,,,61,39
9180,note_on,,,,,0,0,1,,,,,0,,,70,39
9180,note_on,,,,,5,0,2,,,,,0,,,30,36
9180,note_on,,,,,0,0,2,,,,,0,,,42,36
9180,note_on,,,,,0,0,1,,,,,0,,,66,39
9300,control_change,,,,,120,0,1,,,,,0,64,0,,
9345,note_on,,,,,165,0,2,,,,,0,,,42,0
9345,note_on,,,,,0,0,2,,,,,0,,,30,0
9345,note_on,,,,,45,0,1,,,,,0,,,70,0
9345,note_on,,,,,0,0,1,,,,,0,,,66,0
9345,note_on,,,,,0,0,1,,,,,0,,,61,0
9360,set_tempo,,,,,720,1,0,,789473,,,,,,,
9360,note_on,,,,,0,0,2,,,,,0,,,42,44
9360,note_on,,,,,15,0,2,,,,,0,,,30,44
9360,note_on,,,,,15,0,1,,,,,0,,,63,44
9360,note_on,,,,,0,0,1,,,,,0,,,66,44
9360,note_on,,,,,0,0,1,,,,,0,,,71,44
9410,set_tempo,,,,,50,1,0,,764331,,,,,,,
9412,note_on,,,,,0,0,2,,,,,0,,,30,0
9412,note_on,,,,,52,0,2,,,,,0,,,42,0
9412,note_on,,,,,52,0,1,,,,,0,,,71,0
9412,note_on,,,,,0,0,1,,,,,0,,,66,0
9412,note_on,,,,,0,0,1,,,,,0,,,63,0
9420,note_on,,,,,0,0,1,,,,,0,,,63,51
9420,note_on,,,,,0,0,2,,,,,0,,,42,45
9420,note_on,,,,,8,0,2,,,,,0,,,30,45
9420,note_on,,,,,0,0,1,,,,,0,,,66,51
9420,note_on,,,,,8,0,1,,,,,0,,,70,51
9440,set_tempo,,,,,30,1,0,,745341,,,,,,,
9472,note_on,,,,,0,0,1,,,,,0,,,70,0
9472,note_on,,,,,0,0,2,,,,,0,,,30,0
9472,note_on,,,,,52,0,1,,,,,0,,,66,0
9472,note_on,,,,,0,0,1,,,,,0,,,63,0
9472,note_on,,,,,52,0,2,,,,,0,,,42,0
9480,note_on,,,,,0,0,1,,,,,0,,,66,56
9480,note_on,,,,,0,0,1,,,,,0,,,71,56
9480,note_on,,,,,0,0,2,,,,,0,,,42,49
9480,note_on,,,,,8,0,1,,,,,0,,,63,56
9480,note_on,,,,,8,0,2,,,,,0,,,30,49
9510,set_tempo,,,,,70,1,0,,727272,,,,,,,
9532,note_on,,,,,52,0,2,,,,,0,,,42,0
9532,note_on,,,,,0,0,2,,,,,0,,,30,0
9532,note_on,,,,,0,0,1,,,,,0,,,66,0
9532,note_on,,,,,52,0,1,,,,,0,,,71,0
9532,note_on,,,,,0,0,1,,,,,0,,,63,0
9540,note_on,,,,,8,0,2,,,,,0,,,30,53
9540,note_on,,,,,0,0,2,,,,,0,,,42,53
9540,set_tempo,,,,,30,1,0,,816326,,,,,,,
9540,note_on,,,,,8,0,1,,,,,0,,,75,58
9540,control_change,,,,,0,0,1,,,,,0,64,96,,
9540,note_on,,,,,0,0,1,,,,,0,,,64,58
9540,note_on,,,,,0,0,1,,,,,0,,,68,58
9660,note_on,,,,,0,0,1,,,,,0,,,73,49
9660,note_on,,,,,120,0,1,,,,,0,,,75,0
9680,set_tempo,,,,,140,1,0,,774193,,,,,,,
9705,note_on,,,,,165,0,2,,,,,0,,,42,0
9705,note_on,,,,,0,0,2,,,,,0,,,30,0
9705,note_on,,,,,0,0,1,,,,,0,,,64,0
9705,note_on,,,,,45,0,1,,,,,0,,,73,0
9705,note_on,,,,,0,0,1,,,,,0,,,68,0
9718,control_change,,,,,13,0,1,,,,,0,64,0,,
9720,note_on,,,,,0,0,1,,,,,0,,,73,46
9720,note_on,,,,,2,0,1,,,,,0,,,63,46
9720,note_on,,,,,0,0,1,,,,,0,,,66,46
9720,set_tempo,,,,,40,1,0,,764331,,,,,,,
9720,note_on,,,,,15,0,2,,,,,0,,,30,38
9720,note_on,,,,,0,0,2,,,,,0,,,42,38
9772,note_on,,,,,0,0,1,,,,,0,,,66,0
9772,note_on,,,,,0,0,1,,,,,0,,,63,0
9772,note_on,,,,,0,0,2,,,,,0,,,30,0
9772,note_on,,,,,52,0,2,,,,,0,,,42,0
9772,note_on,,,,,52,0,1,,,,,0,,,73,0
9780,note_on,,,,,8,0,1,,,,,0,,,63,39
9780,note_on,,,,,0,0,1,,,,,0,,,66,39
9780,note_on,,,,,0,0,2,,,,,0,,,42,42
9780,note_on,,,,,8,0,2,,,,,0,,,30,42
9780,note_on,,,,,0,0,1,,,,,0,,,71,39
9790,set_tempo,,,,,70,1,0,,745341,,,,,,,
9832,note_on,,,,,0,0,1,,,,,0,,,66,0
9832,note_on,,,,,52,0,1,,,,,0,,,71,0
9832,note_on,,,,,52,0,2,,,,,0,,,42,0
9832,note_on,,,,,0,0,2,,,,,0,,,30,0
9832,note_on,,,,,0,0,1,,,,,0,,,63,0
9840,note_on,,,,,0,0,1,,,,,0,,,66,44
9840,note_on,,,,,0,0,1,,,,,0,,,73,44
9840,note_on,,,,,8,0,2,,,,,0,,,30,47
9840,note_on,,,,,0,0,2,,,,,0,,,42,47
9840,note_on,,,,,8,0,1,,,,,0,,,63,44
9850,set_tempo,,,,,60,1,0,,727272,,,,,,,
9890,set_tempo,,,,,40,1,0,,714285,,,,,,,
9892,note_on,,,,,0,0,1,,,,,0,,,63,0
9892,note_on,,,,,52,0,2,,,,,0,,,42,0
9892,note_on,,,,,52,0,1,,,,,0,,,73,0
9892,note_on,,,,,0,0,2,,,,,0,,,30,0
9892,note_on,,,,,0,0,1,,,,,0,,,66,0
9900,control_change,,,,,0,0,1,,,,,0,64,94,,
9900,note_on,,,,,0,0,1,,,,,0,,,61,49
9900,note_on,,,,,0,0,1,,,,,0,,,66,49
9900,note_on,,,,,8,0,1,,,,,0,,,71,49
9900,set_tempo,,,,,10,1,0,,779220,,,,,,,
9900,note_on,,,,,8,0,2,,,,,0,,,30,51
9900,note_on,,,,,0,0,2,,,,,0,,,42,51
9910,set_tempo,,,,,10,1,0,,810810,,,,,,,
10020,note_on,,,,,0,0,1,,,,,0,,,70,33
10020,note_on,,,,,120,0,1,,,,,0,,,71,0
10065,note_on,,,,,0,0,1,,,,,0,,,66,0
10065,note_on,,,,,0,0,1,,,,,0,,,61,0
10065,note_on,,,,,45,0,1,,,,,0,,,70,0
10065,note_on,,,,,165,0,2,,,,,0,,,42,0
10065,note_on,,,,,0,0,2,,,,,0,,,30,0
10078,control_change,,,,,13,0,1,,,,,0,64,0,,
10080,note_on,,,,,0,0,1,,,,,0,,,70,44
10080,note_on,,,,,0,0,1,,,,,0,,,66,44
10080,note_on,,,,,2,0,1,,,,,0,,,61,44
10080,note_on,,,,,0,0,2,,,,,0,,,42,42
10080,control_change,,,,,0,0,1,,,,,0,64,95,,
10080,note_on,,,,,15,0,2,,,,,0,,,30,42
10080,set_tempo,,,,,170,1,0,,759493,,,,,,,
10140,note_on,,,,,0,0,1,,,,,0,,,70,37
10140,note_on,,,,,0,0,1,,,,,0,,,61,37
10140,note_on,,,,,0,0,1,,,,,0,,,61,0
10140,note_on,,,,,60,0,1,,,,,0,,,70,0
10140,note_on,,,,,0,0,1,,,,,0,,,66,0
10140,note_on,,,,,0,0,1,,,,,0,,,73,37
10140,note_on,,,,,0,0,2,,,,,0,,,42,39
10140,note_on,,,,,0,0,2,,,,,0,,,30,39
10140,note_on,,,,,0,0,2,,,,,0,,,30,0
10140,note_on,,,,,60,0,2,,,,,0,,,42,0
10196,note_on,,,,,0,0,1,,,,,0,,,70,0
10196,note_on,,,,,0,0,1,,,,,0,,,61,0
10196,note_on,,,,,56,0,2,,,,,0,,,42,0
10196,note_on,,,,,56,0,1,,,,,0,,,73,0
10196,note_on,,,,,0,0,2,,,,,0,,,30,0
10200,note_on,,,,,4,0,1,,,,,0,,,61,39
10200,note_on,,,,,0,0,1,,,,,0,,,70,39
10200,note_on,,,,,0,0,1,,,,,0,,,73,39
10200,note_on,,,,,4,0,2,,,,,0,,,30,42
10200,note_on,,,,,0,0,2,,,,,0,,,42,42
10245,set_tempo,,,,,165,1,0,,736196,,,,,,,
10252,note_on,,,,,0,0,1,,,,,0,,,70,0
10252,note_on,,,,,0,0,1,,,,,0,,,61,0
10252,note_on,,,,,0,0,2,,,,,0,,,30,0
10252,note_on,,,,,52,0,2,,,,,0,,,42,0
10252,note_on,,,,,52,0,1,,,,,0,,,73,0
10258,control_change,,,,,6,0,1,,,,,0,64,0,,
10260,note_on,,,,,0,0,1,,,,,0,,,71,47
10260,note_on,,,,,0,0,1,,,,,0,,,73,47
10260,control_change,,,,,0,0,1,,,,,0,64,95,,
10260,note_on,,,,,0,0,2,,,,,0,,,42,45
10260,note_on,,,,,8,0,2,,,,,0,,,30,45
10260,note_on,,,,,2,0,1,,,,,0,,,68,47
10295,set_tempo,,,,,50,1,0,,718562,,,,,,,
10300,set_tempo,,,,,5,1,0,,714285,,,,,,,
10320,note_on,,,,,0,0,1,,,,,0,,,75,48
10320,note_on,,,,,0,0,1,,,,,0,,,71,48
10320,note_on,,,,,0,0,1,,,,,0,,,68,48
10320,note_on,,,,,0,0,1,,,,,0,,,68,0
10320,note_on,,,,,0,0,1,,,,,0,,,71,0
10320,note_on,,,,,60,0,1,,,,,0,,,73,0
10320,note_on,,,,,60,0,2,,,,,0,,,42,0
10320,note_on,,,,,0,0,2,,,,,0,,,30,0
10320,note_on,,,,,0,0,2,,,,,0,,,30,50
10320,note_on,,,,,0,0,2,,,,,0,,,42,50
10355,set_tempo,,,,,55,1,0,,685714,,,,,,,
10376,note_on,,,,,0,0,1,,,,,0,,,68,0
10376,note_on,,,,,0,0,1,,,,,0,,,71,0
10376,note_on,,,,,56,0,1,,,,,0,,,75,0
10376,note_on,,,,,56,0,2,,,,,0,,,42,0
10376,note_on,,,,,0,0,2,,,,,0,,,30,0
10380,note_on,,,,,0,0,2,,,,,0,,,42,58
10380,note_on,,,,,4,0,2,,,,,0,,,30,58
10380,note_on,,,,,0,0,1,,,,,0,,,77,55
10380,note_on,,,,,0,0,1,,,,,0,,,71,55
10380,note_on,,,,,4,0,1,,,,,0,,,68,55
10432,note_on,,,,,0,0,1,,,,,0,,,68,0
10432,note_on,,,,,0,0,1,,,,,0,,,71,0
10432,note_on,,,,,52,0,2,,,,,0,,,42,0
10432,note_on,,,,,52,0,1,,,,,0,,,77,0
10432,note_on,,,,,0,0,2,,,,,0,,,30,0
10435,set_tempo,,,,,80,1,0,,674157,,,,,,,
10436,control_change,,,,,4,0,1,,,,,0,64,0,,
10440,control_change,,,,,0,0,1,,,,,0,64,96,,
10440,note_on,,,,,0,0,1,,,,,0,,,71,62
10440,note_on,,,,,4,0,1,,,,,0,,,68,62
10440,note_on,,,,,0,0,2,,,,,0,,,42,63
10440,note_on,,,,,8,0,2,,,,,0,,,30,63
10440,note_on,,,,,0,0,1,,,,,0,,,77,62
10500,note_on,,,,,0,0,1,,,,,0,,,71,0
10500,note_on,,,,,0,0,1,,,,,0,,,68,0
10500,note_on,,,,,60,0,1,,,,,0,,,77,0
10500,note_on,,,,,0,0,1,,,,,0,,,70,65
10500,note_on,,,,,0,0,1,,,,,0,,,66,65
10500,note_on,,,,,0,0,2,,,,,0,,,42,70
10500,note_on,,,,,0,0,2,,,,,0,,,30,70
10500,note_on,,,,,0,0,2,,,,,0,,,30,0
10500,note_on,,,,,60,0,2,,,,,0,,,42,0
10500,note_on,,,,,0,0,1,,,,,0,,,78,65
10530,set_tempo,,,,,95,1,0,,689655,,,,,,,
10535,set_tempo,,,,,5,1,0,,693641,,,,,,,
10556,note_on,,,,,56,0,1,,,,,0,,,78,0
10556,note_on,,,,,0,0,1,,,,,0,,,70,0
10556,note_on,,,,,0,0,1,,,,,0,,,66,0
10556,note_on,,,,,0,0,2,,,,,0,,,30,0
10556,note_on,,,,,56,0,2,,,,,0,,,42,0
10560,note_on,,,,,4,0,2,,,,,0,,,30,79
10560,note_on,,,,,4,0,1,,,,,0,,,66,73
10560,note_on,,,,,0,0,1,,,,,0,,,70,73
10560,note_on,,,,,0,0,1,,,,,0,,,78,73
10560,note_on,,,,,0,0,2,,,,,0,,,42,79
10590,set_tempo,,,,,55,1,0,,714285,,,,,,,
10616,note_on,,,,,56,0,1,,,,,0,,,78,0
10616,note_on,,,,,0,0,1,,,,,0,,,70,0
10616,note_on,,,,,0,0,1,,,,,0,,,66,0
10616,note_on,,,,,56,0,2,,,,,0,,,42,0
10616,note_on,,,,,0,0,2,,,,,0,,,30,0
10618,control_change,,,,,2,0,1,,,,,0,64,0,,
10620,note_on,,,,,0,0,1,,,,,0,,,70,80
10620,note_on,,,,,2,0,1,,,,,0,,,66,80
10620,note_on,,,,,4,0,2,,,,,0,,,30,87
10620,note_on,,,,,0,0,2,,,,,0,,,42,87
10620,note_on,,,,,0,0,1,,,,,0,,,78,80
10620,control_change,,,,,0,0,1,,,,,0,64,95,,
10630,set_tempo,,,,,40,1,0,,731707,,,,,,,
10676,note_on,,,,,0,0,2,,,,,0,,,30,0
10676,note_on,,,,,56,0,1,,,,,0,,,78,0
10676,note_on,,,,,0,0,1,,,,,0,,,66,0
10676,note_on,,,,,0,0,1,,,,,0,,,70,0
10676,note_on,,,,,56,0,2,,,,,0,,,42,0
10680,set_tempo,,,,,50,1,0,,754716,,,,,,,
10680,note_on,,,,,4,0,2,,,,,0,,,42,91
10680,note_on,,,,,0,0,2,,,,,0,,,30,91
10680,note_on,,,,,0,0,1,,,,,0,,,78,89
10680,note_on,,,,,0,0,1,,,,,0,,,70,89
10680,note_on,,,,,4,0,1,,,,,0,,,66,89
10720,set_tempo,,,,,40,1,0,,779220,,,,,,,
10736,note_on,,,,,56,0,2,,,,,0,,,30,0
10736,note_on,,,,,0,0,2,,,,,0,,,42,0
10736,note_on,,,,,0,0,1,,,,,0,,,70,0
10736,note_on,,,,,0,0,1,,,,,0,,,66,0
10736,note_on,,,,,56,0,1,,,,,0,,,78,0
10740,note_on,,,,,4,0,1,,,,,0,,,66,97
10740,note_on,,,,,0,0,1,,,,,0,,,70,97
10740,note_on,,,,,0,0,1,,,,,0,,,78,97
10740,note_on,,,,,0,0,2,,,,,0,,,30,97
10740,note_on,,,,,4,0,2,,,,,0,,,42,97
10750,set_tempo,,,,,30,1,0,,800000,,,,,,,
10760,set_tempo,,,,,10,1,0,,863309,,,,,,,
10780,set_tempo,,,,,20,1,0,,937500,,,,,,,
10790,set_tempo,,,,,10,1,0,,967741,,,,,,,
10796,note_on,,,,,0,0,1,,,,,0,,,66,0
10796,note_on,,,,,0,0,1,,,,,0,,,70,0
10796,note_on,,,,,56,0,2,,,,,0,,,30,0
10796,note_on,,,,,0,0,2,,,,,0,,,42,0
10796,note_on,,,,,56,0,1,,,,,0,,,78,0
10798,control_change,,,,,2,0,1,,,,,0,64,0,,
10800,note_on,,,,,0,0,1,,,,,0,,,78,106
10800,note_on,,,,,0,0,1,,,,,0,,,71,106
10800,note_on,,,,,4,0,2,,,,,0,,,38,101
10800,control_change,,,,,0,0,1,,,,,0,64,96,,
10800,note_on,,,,,2,0,1,,,,,0,,,66,106
10800,set_tempo,,,,,10,1,0,,991735,,,,,,,
10856,note_on,,,,,0,0,1,,,,,0,,,66,0
10856,note_on,,,,,56,0,1,,,,,0,,,78,0
10856,note_on,,,,,0,0,1,,,,,0,,,71,0
10856,note_on,,,,,56,0,2,,,,,0,,,38,0
10856,control_change,,,,,0,0,1,,,,,0,64,0,,
10860,note_on,,,,,0,0,1,,,,,0,,,72,94
10860,note_on,,,,,4,0,2,,,,,0,,,38,89
10860,note_on,,,,,4,0,1,,,,,0,,,66,94
10860,control_change,,,,,0,0,1,,,,,0,64,96,,
10860,note_on,,,,,0,0,1,,,,,0,,,78,94
10910,set_tempo,,,,,110,1,0,,845070,,,,,,,
10916,note_on,,,,,0,0,1,,,,,0,,,66,0
10916,note_on,,,,,56,0,2,,,,,0,,,38,0
10916,note_on,,,,,0,0,1,,,,,0,,,72,0
10916,note_on,,,,,56,0,1,,,,,0,,,78,0
10920,note_on,,,,,0,0,1,,,,,0,,,78,80
10920,note_on,,,,,0,0,1,,,,,0,,,72,80
10920,note_on,,,,,4,0,2,,,,,0,,,38,78
10920,note_on,,,,,4,0,1,,,,,0,,,66,80
10940,set_tempo,,,,,30,1,0,,794701,,,,,,,
10975,set_tempo,,,,,35,1,0,,764331,,,,,,,
10976,note_on,,,,,56,0,1,,,,,0,,,78,0
10976,note_on,,,,,0,0,1,,,,,0,,,66,0
10976,note_on,,,,,56,0,2,,,,,0,,,38,0
10976,note_on,,,,,0,0,1,,,,,0,,,72,0
10980,note_on,,,,,0,0,1,,,,,0,,,72,74
10980,note_on,,,,,0,0,1,,,,,0,,,78,74
10980,note_on,,,,,4,0,1,,,,,0,,,66,74
10980,note_on,,,,,4,0,2,,,,,0,,,38,67
11036,note_on,,,,,56,0,2,,,,,0,,,38,0
11036,note_on,,,,,0,0,1,,,,,0,,,66,0
11036,note_on,,,,,56,0,1,,,,,0,,,78,0
11036,note_on,,,,,0,0,1,,,,,0,,,72,0
11040,note_on,,,,,0,0,1,,,,,0,,,78,60
11040,set_tempo,,,,,65,1,0,,794701,,,,,,,
11040,note_on,,,,,4,0,2,,,,,0,,,38,59
11040,note_on,,,,,0,0,1,,,,,0,,,72,60
11040,note_on,,,,,4,0,1,,,,,0,,,66,60
11096,note_on,,,,,56,0,1,,,,,0,,,78,0
11096,note_on,,,,,0,0,1,,,,,0,,,66,0
11096,note_on,,,,,56,0,2,,,,,0,,,38,0
11096,note_on,,,,,0,0,1,,,,,0,,,72,0
11100,note_on,,,,,4,0,2,,,,,0,,,38,50
11100,note_on,,,,,4,0,1,,,,,0,,,66,55
11100,note_on,,,,,0,0,1,,,,,0,,,72,55
11100,note_on,,,,,0,0,1,,,,,0,,,78,55
11100,set_tempo,,,,,60,1,0,,810810,,,,,,,
11150,set_tempo,,,,,50,1,0,,827586,,,,,,,
11156,note_on,,,,,56,0,1,,,,,0,,,78,0
11156,note_on,,,,,0,0,1,,,,,0,,,72,0
11156,note_on,,,,,0,0,1,,,,,0,,,66,0
11156,note_on,,,,,56,0,2,,,,,0,,,38,0
11160,set_tempo,,,,,10,1,0,,888888,,,,,,,
11160,note_on,,,,,4,0,2,,,,,0,,,38,48
11160,note_on,,,,,0,0,1,,,,,0,,,78,49
11160,note_on,,,,,4,0,1,,,,,0,,,66,49
11160,note_on,,,,,0,0,1,,,,,0,,,72,49
11162,control_change,,,,,2,0,1,,,,,0,64,0,,
11170,set_tempo,,,,,10,1,0,,895522,,,,,,,
11200,set_tempo,,,,,30,1,0,,960000,,,,,,,
11212,note_on,,,,,52,0,2,,,,,0,,,38,0
11212,note_on,,,,,0,0,1,,,,,0,,,66,0
11212,note_on,,,,,0,0,1,,,,,0,,,72,0
11212,note_on,,,,,50,0,1,,,,,0,,,78,0
11220,note_on,,,,,8,0,2,,,,,0,,,50,60
11220,note_on,,,,,8,0,1,,,,,0,,,62,66
11230,set_tempo,,,,,30,1,0,,1025641,,,,,,,
11270,set_tempo,,,,,40,1,0,,800000,,,,,,,
11276,note_on,,,,,56,0,2,,,,,0,,,50,0
11276,note_on,,,,,56,0,1,,,,,0,,,62,0
11280,note_on,,,,,4,0,2,,,,,0,,,48,54
11280,note_on,,,,,0,0,2,,,,,0,,,50,54
11280,note_on,,,,,4,0,1,,,,,0,,,62,59
11280,set_tempo,,,,,10,1,0,,794701,,,,,,,
11285,set_tempo,,,,,5,1,0,,794701,,,,,,,
11300,set_tempo,,,,,15,1,0,,821917,,,,,,,
11336,note_on,,,,,0,0,2,,,,,0,,,48,0
11336,note_on,,,,,56,0,1,,,,,0,,,62,0
11336,note_on,,,,,56,0,2,,,,,0,,,50,0
11340,note_on,,,,,4,0,2,,,,,0,,,47,48
11340,note_on,,,,,0,0,2,,,,,0,,,50,48
11340,note_on,,,,,4,0,1,,,,,0,,,62,51
11345,set_tempo,,,,,45,1,0,,827586,,,,,,,
11350,set_tempo,,,,,5,1,0,,839160,,,,,,,
11375,set_tempo,,,,,25,1,0,,863309,,,,,,,
11396,note_on,,,,,56,0,1,,,,,0,,,62,0
11396,note_on,,,,,56,0,2,,,,,0,,,50,0
11396,note_on,,,,,0,0,2,,,,,0,,,47,0
11400,note_on,,,,,4,0,2,,,,,0,,,45,45
11400,note_on,,,,,0,0,2,,,,,0,,,50,45
11400,note_on,,,,,4,0,1,,,,,0,,,62,45
11410,set_tempo,,,,,35,1,0,,895522,,,,,,,
11452,note_on,,,,,0,0,2,,,,,0,,,45,0
11452,note_on,,,,,52,0,2,,,,,0,,,50,0
11452,note_on,,,,,52,0,1,,,,,0,,,62,0
11455,set_tempo,,,,,45,1,0,,923076,,,,,,,
11460,note_on,,,,,8,0,1,,,,,0,,,62,39
11460,note_on,,,,,8,0,2,,,,,0,,,50,42
11460,note_on,,,,,0,0,2,,,,,0,,,43,42
11505,note_on,,,,,45,0,1,,,,,0,,,62,0
11512,note_on,,,,,0,0,2,,,,,0,,,50,0
11512,note_on,,,,,52,0,2,,,,,0,,,43,0
11520,note_on,,,,,0,0,1,,,,,0,,,71,43
11520,set_tempo,,,,,65,1,0,,750000,,,,,,,
11520,note_on,,,,,0,0,2,,,,,0,,,50,43
11520,note_on,,,,,8,0,2,,,,,0,,,43,43
11520,note_on,,,,,0,0,1,,,,,0,,,67,43
11520,note_on,,,,,15,0,1,,,,,0,,,59,43
11520,control_change,,,,,0,0,1,,,,,0,64,96,,
11530,set_tempo,,,,,10,1,0,,754716,,,,,,,
11835,note_on,,,,,0,0,1,,,,,0,,,59,0
11835,note_on,,,,,0,0,1,,,,,0,,,67,0
11835,note_on,,,,,315,0,1,,,,,0,,,71,0
11835,note_on,,,,,315,0,2,,,,,0,,,50,0
11835,note_on,,,,,0,0,2,,,,,0,,,43,0
11850,note_on,,,,,0,0,1,,,,,0,,,66,39
11850,note_on,,,,,15,0,2,,,,,0,,,43,47
11850,note_on,,,,,0,0,1,,,,,0,,,69,39
11850,note_on,,,,,15,0,1,,,,,0,,,60,39
11850,control_change,,,,,0,0,1,,,,,0,64,0,,
11850,note_on,,,,,0,0,2,,,,,0,,,50,47
11875,note_on,,,,,25,0,1,,,,,0,,,69,0
11875,note_on,,,,,0,0,1,,,,,0,,,66,0
11875,note_on,,,,,0,0,1,,,,,0,,,60,0
11875,note_on,,,,,0,0,2,,,,,0,,,43,0
11875,note_on,,,,,25,0,2,,,,,0,,,50,0
11880,note_on,,,,,5,0,1,,,,,0,,,59,46
11880,note_on,,,,,5,0,2,,,,,0,,,43,53
11880,note_on,,,,,0,0,2,,,,,0,,,50,53
11880,note_on,,,,,0,0,1,,,,,0,,,67,46
11880,control_change,,,,,0,0,1,,,,,0,64,95,,
11880,note_on,,,,,0,0,1,,,,,0,,,71,46
12195,note_on,,,,,0,0,1,,,,,0,,,67,0
12195,note_on,,,,,315,0,1,,,,,0,,,71,0
12195,note_on,,,,,0,0,2,,,,,0,,,43,0
12195,note_on,,,,,315,0,2,,,,,0,,,50,0
12195,note_on,,,,,0,0,1,,,,,0,,,59,0
12210,note_on,,,,,15,0,1,,,,,0,,,60,40
12210,note_on,,,,,15,0,2,,,,,0,,,43,46
12210,note_on,,,,,0,0,2,,,,,0,,,50,46
12210,note_on,,,,,0,0,1,,,,,0,,,69,40
12210,control_change,,,,,0,0,1,,,,,0,64,0,,
12210,note_on,,,,,0,0,1,,,,,0,,,66,40
12235,note_on,,,,,0,0,1,,,,,0,,,66,0
12235,note_on,,,,,25,0,2,,,,,0,,,50,0
12235,note_on,,,,,25,0,1,,,,,0,,,69,0
12235,note_on,,,,,0,0,1,,,,,0,,,60,0
12235,note_on,,,,,0,0,2,,,,,0,,,43,0
12240,note_on,,,,,5,0,2,,,,,0,,,43,53
12240,control_change,,,,,0,0,1,,,,,0,64,96,,
12240,note_on,,,,,0,0,1,,,,,0,,,71,51
12240,note_on,,,,,0,0,1,,,,,0,,,67,51
12240,note_on,,,,,0,0,2,,,,,0,,,50,53
12240,note_on,,,,,5,0,1,,,,,0,,,59,51
12270,set_tempo,,,,,740,1,0,,740740,,,,,,,
12292,note_on,,,,,0,0,1,,,,,0,,,59,0
12292,note_on,,,,,52,0,1,,,,,0,,,71,0
12292,note_on,,,,,0,0,2,,,,,0,,,43,0
12292,note_on,,,,,52,0,2,,,,,0,,,50,0
12292,note_on,,,,,0,0,1,,,,,0,,,67,0
12300,note_on,,,,,8,0,2,,,,,0,,,43,57
12300,note_on,,,,,0,0,1,,,,,0,,,69,55
12300,note_on,,,,,8,0,1,,,,,0,,,60,55
12300,note_on,,,,,0,0,2,,,,,0,,,50,57
12300,note_on,,,,,0,0,1,,,,,0,,,72,55
12340,set_tempo,,,,,70,1,0,,727272,,,,,,,
12352,note_on,,,,,52,0,2,,,,,0,,,50,0
12352,note_on,,,,,0,0,2,,,,,0,,,43,0
12352,note_on,,,,,0,0,1,,,,,0,,,60,0
12352,note_on,,,,,0,0,1,,,,,0,,,69,0
12352,note_on,,,,,52,0,1,,,,,0,,,72,0
12360,note_on,,,,,8,0,2,,,,,0,,,43,61
12360,note_on,,,,,0,0,1,,,,,0,,,74,61
12360,note_on,,,,,0,0,1,,,,,0,,,71,61
12360,note_on,,,,,8,0,1,,,,,0,,,62,61
12360,note_on,,,,,0,0,2,,,,,0,,,50,61
12412,note_on,,,,,0,0,1,,,,,0,,,62,0
12412,note_on,,,,,0,0,1,,,,,0,,,71,0
12412,note_on,,,,,0,0,2,,,,,0,,,43,0
12412,note_on,,,,,52,0,2,,,,,0,,,50,0
12412,note_on,,,,,52,0,1,,,,,0,,,74,0
12418,control_change,,,,,6,0,1,,,,,0,64,0,,
12420,note_on,,,,,0,0,1,,,,,0,,,62,65
12420,note_on,,,,,0,0,2,,,,,0,,,50,64
12420,note_on,,,,,2,0,1,,,,,0,,,66,65
12420,note_on,,,,,0,0,1,,,,,0,,,74,65
12420,note_on,,,,,8,0,2,,,,,0,,,38,64
12420,control_change,,,,,0,0,1,,,,,0,64,96,,
12430,set_tempo,,,,,90,1,0,,714285,,,,,,,
12472,note_on,,,,,52,0,1,,,,,0,,,62,0
12472,note_on,,,,,52,0,2,,,,,0,,,50,0
12472,note_on,,,,,0,0,2,,,,,0,,,38,0
12477,note_on,,,,,0,0,1,,,,,0,,,66,0
12477,note_on,,,,,5,0,1,,,,,0,,,74,0
12480,note_on,,,,,0,0,1,,,,,0,,,66,53
12480,note_on,,,,,3,0,1,,,,,0,,,60,53
12480,note_on,,,,,8,0,2,,,,,0,,,38,57
12480,note_on,,,,,0,0,1,,,,,0,,,72,53
12480,note_on,,,,,0,0,2,,,,,0,,,50,57
12480,set_tempo,,,,,50,1,0,,722891,,,,,,,
12520,set_tempo,,,,,40,1,0,,736196,,,,,,,
12532,note_on,,,,,0,0,1,,,,,0,,,66,0
12532,note_on,,,,,52,0,1,,,,,0,,,72,0
12537,note_on,,,,,0,0,2,,,,,0,,,38,0
12537,note_on,,,,,5,0,1,,,,,0,,,60,0
12537,note_on,,,,,57,0,2,,,,,0,,,50,0
12540,note_on,,,,,0,0,1,,,,,0,,,72,50
12540,note_on,,,,,3,0,1,,,,,0,,,60,50
12540,note_on,,,,,3,0,2,,,,,0,,,38,52
12540,note_on,,,,,0,0,1,,,,,0,,,66,50
12540,note_on,,,,,0,0,2,,,,,0,,,50,52
12550,set_tempo,,,,,30,1,0,,750000,,,,,,,
12580,set_tempo,,,,,30,1,0,,779220,,,,,,,
12592,note_on,,,,,52,0,1,,,,,0,,,72,0
12592,note_on,,,,,0,0,1,,,,,0,,,66,0
12592,note_on,,,,,0,0,1,,,,,0,,,60,0
12597,note_on,,,,,0,0,2,,,,,0,,,38,0
12597,note_on,,,,,57,0,2,,,,,0,,,50,0
12598,control_change,,,,,6,0,1,,,,,0,64,0,,
12600,note_on,,,,,0,0,2,,,,,0,,,50,42
12600,note_on,,,,,0,0,1,,,,,0,,,71,44
12600,note_on,,,,,0,0,1,,,,,0,,,67,44
12600,note_on,,,,,2,0,1,,,,,0,,,59,44
12600,control_change,,,,,0,0,1,,,,,0,64,95,,
12600,note_on,,,,,3,0,2,,,,,0,,,43,42
12652,note_on,,,,,0,0,2,,,,,0,,,43,0
12652,note_on,,,,,0,0,1,,,,,0,,,59,0
12652,note_on,,,,,0,0,1,,,,,0,,,67,0
12652,note_on,,,,,52,0,2,,,,,0,,,50,0
12652,note_on,,,,,52,0,1,,,,,0,,,71,0
12658,control_change,,,,,6,0,1,,,,,0,64,0,,
12660,set_tempo,,,,,80,1,0,,779220,,,,,,,
12660,note_on,,,,,2,0,1,,,,,0,,,67,48
12670,set_tempo,,,,,10,1,0,,750000,,,,,,,
12685,set_tempo,,,,,15,1,0,,754716,,,,,,,
12712,note_on,,,,,52,0,1,,,,,0,,,67,0
12720,note_on,,,,,8,0,1,,,,,0,,,69,52
12730,set_tempo,,,,,45,1,0,,745341,,,,,,,
12772,note_on,,,,,52,0,1,,,,,0,,,69,0
12780,note_on,,,,,8,0,1,,,,,0,,,71,58
12800,set_tempo,,,,,70,1,0,,759493,,,,,,,
12832,note_on,,,,,52,0,1,,,,,0,,,71,0
12840,note_on,,,,,8,0,1,,,,,0,,,72,61
12865,set_tempo,,,,,65,1,0,,784313,,,,,,,
12892,note_on,,,,,52,0,1,,,,,0,,,72,0
12900,note_on,,,,,8,0,1,,,,,0,,,74,56
12910,set_tempo,,,,,45,1,0,,816326,,,,,,,
12950,set_tempo,,,,,40,1,0,,740740,,,,,,,
12952,note_on,,,,,52,0,1,,,,,0,,,74,0
12960,control_change,,,,,0,0,1,,,,,0,64,96,,
12960,note_on,,,,,0,0,1,,,,,0,,,76,59
12960,note_on,,,,,0,0,1,,,,,0,,,72,59
12960,note_on,,,,,8,0,1,,,,,0,,,64,59
12960,note_on,,,,,0,0,2,,,,,0,,,48,57
12960,note_on,,,,,308,0,2,,,,,0,,,36,57
12970,set_tempo,,,,,20,1,0,,754716,,,,,,,
13275,note_on,,,,,0,0,2,,,,,0,,,36,0
13275,note_on,,,,,315,0,2,,,,,0,,,48,0
13275,note_on,,,,,315,0,1,,,,,0,,,76,0
13275,note_on,,,,,0,0,1,,,,,0,,,72,0
13275,note_on,,,,,0,0,1,,,,,0,,,64,0
13290,note_on,,,,,0,0,2,,,,,0,,,48,56
13290,note_on,,,,,15,0,2,,,,,0,,,36,56
13290,note_on,,,,,15,0,1,,,,,0,,,63,51
13290,note_on,,,,,0,0,1,,,,,0,,,71,51
13290,note_on,,,,,0,0,1,,,,,0,,,75,51
13290,control_change,,,,,0,0,1,,,,,0,64,0,,
13315,note_on,,,,,0,0,1,,,,,0,,,71,0
13315,note_on,,,,,25,0,1,,,,,0,,,75,0
13315,note_on,,,,,0,0,1,,,,,0,,,63,0
13315,note_on,,,,,0,0,2,,,,,0,,,36,0
13315,note_on,,,,,25,0,2,,,,,0,,,48,0
13320,control_change,,,,,0,0,1,,,,,0,64,95,,
13320,note_on,,,,,0,0,1,,,,,0,,,76,54
13320,note_on,,,,,0,0,1,,,,,0,,,72,54
13320,note_on,,,,,5,0,1,,,,,0,,,64,54
13320,note_on,,,,,0,0,2,,,,,0,,,48,59
13320,note_on,,,,,5,0,2,,,,,0,,,36,59
13635,note_on,,,,,0,0,1,,,,,0,,,64,0
13635,note_on,,,,,0,0,2,,,,,0,,,36,0
13635,note_on,,,,,0,0,1,,,,,0,,,72,0
13635,note_on,,,,,315,0,1,,,,,0,,,76,0
13635,note_on,,,,,315,0,2,,,,,0,,,48,0
13650,note_on,,,,,15,0,1,,,,,0,,,63,40
13650,note_on,,,,,15,0,2,,,,,0,,,36,46
13650,note_on,,,,,0,0,2,,,,,0,,,48,46
13650,control_change,,,,,0,0,1,,,,,0,64,0,,
13650,note_on,,,,,0,0,1,,,,,0,,,75,40
13650,note_on,,,,,0,0,1,,,,,0,,,71,40
13675,note_on,,,,,25,0,1,,,,,0,,,75,0
13675,note_on,,,,,0,0,2,,,,,0,,,36,0
13675,note_on,,,,,25,0,2,,,,,0,,,48,0
13675,note_on,,,,,0,0,1,,,,,0,,,63,0
13675,note_on,,,,,0,0,1,,,,,0,,,71,0
13680,note_on,,,,,0,0,2,,,,,0,,,48,53
13680,note_on,,,,,5,0,2,,,,,0,,,36,53
13680,note_on,,,,,5,0,1,,,,,0,,,72,51
13680,note_on,,,,,0,0,1,,,,,0,,,64,51
13680,note_on,,,,,0,0,1,,,,,0,,,76,51
13680,control_change,,,,,0,0,1,,,,,0,64,96,,
13710,set_tempo,,,,,740,1,0,,740740,,,,,,,
13732,note_on,,,,,0,0,1,,,,,0,,,72,0
13732,note_on,,,,,0,0,1,,,,,0,,,64,0
13732,note_on,,,,,52,0,2,,,,,0,,,48,0
13732,note_on,,,,,0,0,2,,,,,0,,,36,0
13732,note_on,,,,,52,0,1,,,,,0,,,76,0
13740,note_on,,,,,0,0,2,,,,,0,,,48,57
13740,note_on,,,,,0,0,1,,,,,0,,,77,55
13740,note_on,,,,,8,0,2,,,,,0,,,36,57
13740,note_on,,,,,8,0,1,,,,,0,,,71,55
13740,note_on,,,,,0,0,1,,,,,0,,,65,55
13780,set_tempo,,,,,70,1,0,,727272,,,,,,,
13792,note_on,,,,,0,0,2,,,,,0,,,36,0
13792,note_on,,,,,0,0,1,,,,,0,,,71,0
13792,note_on,,,,,52,0,1,,,,,0,,,77,0
13792,note_on,,,,,52,0,2,,,,,0,,,48,0
13792,note_on,,,,,0,0,1,,,,,0,,,65,0
13800,note_on,,,,,0,0,1,,,,,0,,,76,61
13800,note_on,,,,,8,0,2,,,,,0,,,36,61
13800,note_on,,,,,8,0,1,,,,,0,,,64,61
13800,note_on,,,,,0,0,1,,,,,0,,,72,61
13800,note_on,,,,,0,0,2,,,,,0,,,48,61
13852,note_on,,,,,52,0,2,,,,,0,,,48,0
13852,note_on,,,,,0,0,1,,,,,0,,,64,0
13852,note_on,,,,,0,0,2,,,,,0,,,36,0
13852,note_on,,,,,52,0,1,,,,,0,,,76,0
13852,note_on,,,,,0,0,1,,,,,0,,,72,0
13860,note_on,,,,,8,0,2,,,,,0,,,36,64
13860,note_on,,,,,0,0,2,,,,,0,,,48,64
13860,note_on,,,,,8,0,1,,,,,0,,,71,60
13860,note_on,,,,,0,0,1,,,,,0,,,74,60
13860,note_on,,,,,0,0,1,,,,,0,,,62,60
13870,set_tempo,,,,,90,1,0,,714285,,,,,,,
13912,note_on,,,,,52,0,1,,,,,0,,,62,0
13912,note_on,,,,,0,0,2,,,,,0,,,36,0
13912,note_on,,,,,52,0,2,,,,,0,,,48,0
13917,note_on,,,,,5,0,1,,,,,0,,,74,0
13917,note_on,,,,,0,0,1,,,,,0,,,71,0
13920,note_on,,,,,3,0,1,,,,,0,,,69,59
13920,note_on,,,,,8,0,2,,,,,0,,,36,61
13920,note_on,,,,,0,0,1,,,,,0,,,60,59
13920,note_on,,,,,0,0,1,,,,,0,,,72,59
13920,note_on,,,,,0,0,2,,,,,0,,,48,61
13920,set_tempo,,,,,50,1,0,,722891,,,,,,,
13960,set_tempo,,,,,40,1,0,,736196,,,,,,,
13972,note_on,,,,,0,0,1,,,,,0,,,69,0
13972,note_on,,,,,52,0,1,,,,,0,,,72,0
13975,control_change,,,,,3,0,1,,,,,0,64,0,,
13977,note_on,,,,,57,0,2,,,,,0,,,48,0
13977,note_on,,,,,0,0,2,,,,,0,,,36,0
13977,note_on,,,,,2,0,1,,,,,0,,,60,0
13980,note_on,,,,,3,0,2,,,,,0,,,37,51
13980,note_on,,,,,0,0,2,,,,,0,,,49,51
13980,note_on,,,,,3,0,1,,,,,0,,,59,55
13980,note_on,,,,,0,0,1,,,,,0,,,67,55
13980,note_on,,,,,0,0,1,,,,,0,,,71,55
13990,set_tempo,,,,,30,1,0,,750000,,,,,,,
14020,set_tempo,,,,,30,1,0,,779220,,,,,,,
14032,note_on,,,,,0,0,1,,,,,0,,,59,0
14032,note_on,,,,,0,0,1,,,,,0,,,71,0
14032,note_on,,,,,52,0,1,,,,,0,,,67,0
14037,note_on,,,,,0,0,2,,,,,0,,,37,0
14037,note_on,,,,,57,0,2,,,,,0,,,49,0
14038,control_change,,,,,6,0,1,,,,,0,64,0,,
14040,note_on,,,,,0,0,1,,,,,0,,,66,50
14040,note_on,,,,,2,0,1,,,,,0,,,57,50
14040,note_on,,,,,0,0,2,,,,,0,,,50,49
14040,note_on,,,,,3,0,2,,,,,0,,,38,49
14040,control_change,,,,,0,0,1,,,,,0,64,95,,
14040,note_on,,,,,0,0,1,,,,,0,,,69,50
14090,note_on,,,,,0,0,1,,,,,0,,,66,0
14090,note_on,,,,,0,0,2,,,,,0,,,38,0
14090,note_on,,,,,0,0,1,,,,,0,,,57,0
14090,note_on,,,,,50,0,1,,,,,0,,,69,0
14090,note_on,,,,,50,0,2,,,,,0,,,50,0
14100,set_tempo,,,,,80,1,0,,800000,,,,,,,
14100,note_on,,,,,10,0,2,,,,,0,,,38,65
14110,set_tempo,,,,,10,1,0,,800000,,,,,,,
14120,control_change,,,,,30,0,1,,,,,0,64,0,,
14145,note_on,,,,,45,0,2,,,,,0,,,38,0
14150,set_tempo,,,,,40,1,0,,774193,,,,,,,
14160,set_tempo,,,,,10,1,0,,800000,,,,,,,
14160,note_on,,,,,15,0,2,,,,,0,,,36,73
14165,set_tempo,,,,,5,1,0,,810810,,,,,,,
14205,note_on,,,,,45,0,2,,,,,0,,,36,0
14220,set_tempo,,,,,55,1,0,,833333,,,,,,,
14220,note_on,,,,,15,0,2,,,,,0,,,35,77
14265,set_tempo,,,,,45,1,0,,863309,,,,,,,
14265,note_on,,,,,45,0,2,,,,,0,,,35,0
14280,note_on,,,,,15,0,2,,,,,0,,,33,84
14305,set_tempo,,,,,40,1,0,,902255,,,,,,,
14325,note_on,,,,,45,0,2,,,,,0,,,33,0
14340,set_tempo,,,,,35,1,0,,937500,,,,,,,
14340,note_on,,,,,15,0,2,,,,,0,,,31,93
14385,set_tempo,,,,,45,1,0,,944881,,,,,,,
14385,note_on,,,,,45,0,2,,,,,0,,,31,0
14400,note_on,,,,,280,0,1,,,,,0,,,59,89
14400,set_tempo,,,,,15,1,0,,754716,,,,,,,
14400,note_on,,,,,0,0,2,,,,,0,,,50,97
14400,note_on,,,,,15,0,2,,,,,0,,,43,97
14400,control_change,,,,,0,0,1,,,,,0,64,96,,
14400,note_on,,,,,0,0,1,,,,,0,,,67,89
14400,note_on,,,,,0,0,1,,,,,0,,,71,89
14715,note_on,,,,,315,0,1,,,,,0,,,71,0
14715,note_on,,,,,0,0,1,,,,,0,,,67,0
14715,note_on,,,,,0,0,1,,,,,0,,,59,0
14715,note_on,,,,,0,0,2,,,,,0,,,43,0
14715,note_on,,,,,315,0,2,,,,,0,,,50,0
14730,note_on,,,,,0,0,2,,,,,0,,,50,88
14730,note_on,,,,,15,0,2,,,,,0,,,43,88
14730,note_on,,,,,0,0,1,,,,,0,,,66,92
14730,note_on,,,,,0,0,1,,,,,0,,,69,92
14730,control_change,,,,,0,0,1,,,,,0,64,0,,
14730,note_on,,,,,15,0,1,,,,,0,,,60,92
14755,note_on,,,,,0,0,1,,,,,0,,,66,0
14755,note_on,,,,,25,0,2,,,,,0,,,50,0
14755,note_on,,,,,0,0,2,,,,,0,,,43,0
14755,note_on,,,,,0,0,1,,,,,0,,,60,0
14755,note_on,,,,,25,0,1,,,,,0,,,69,0
14760,note_on,,,,,0,0,2,,,,,0,,,50,91
14760,control_change,,,,,0,0,1,,,,,0,64,95,,
14760,note_on,,,,,5,0,2,,,,,0,,,43,91
14760,note_on,,,,,0,0,1,,,,,0,,,67,94
14760,note_on,,,,,0,0,1,,,,,0,,,71,94
14760,note_on,,,,,5,0,1,,,,,0,,,59,94
15075,note_on,,,,,0,0,1,,,,,0,,,59,0
15075,note_on,,,,,315,0,2,,,,,0,,,50,0
15075,note_on,,,,,0,0,1,,,,,0,,,67,0
15075,note_on,,,,,315,0,1,,,,,0,,,71,0
15075,note_on,,,,,0,0,2,,,,,0,,,43,0
15090,note_on,,,,,0,0,2,,,,,0,,,50,92
15090,note_on,,,,,15,0,2,,,,,0,,,43,92
15090,note_on,,,,,0,0,1,,,,,0,,,66,101
15090,note_on,,,,,0,0,1,,,,,0,,,69,101
15090,control_change,,,,,0,0,1,,,,,0,64,0,,
15090,note_on,,,,,15,0,1,,,,,0,,,60,101
15115,note_on,,,,,25,0,2,,,,,0,,,50,0
15115,note_on,,,,,25,0,1,,,,,0,,,69,0
15115,note_on,,,,,0,0,1,,,,,0,,,66,0
15115,note_on,,,,,0,0,1,,,,,0,,,60,0
15115,note_on,,,,,0,0,2,,,,,0,,,43,0
15120,note_on,,,,,5,0,2,,,,,0,,,43,92
15120,note_on,,,,,5,0,1,,,,,0,,,59,103
15120,note_on,,,,,0,0,1,,,,,0,,,67,103
15120,note_on,,,,,0,0,1,,,,,0,,,71,103
15120,control_change,,,,,0,0,1,,,,,0,64,96,,
15120,note_on,,,,,0,0,2,,,,,0,,,50,92
15145,set_tempo,,,,,745,1,0,,774193,,,,,,,
15172,note_on,,,,,52,0,1,,,,,0,,,71,0
15172,note_on,,,,,0,0,2,,,,,0,,,43,0
15172,note_on,,,,,52,0,2,,,,,0,,,50,0
15172,note_on,,,,,0,0,1,,,,,0,,,59,0
15172,note_on,,,,,0,0,1,,,,,0,,,67,0
15180,set_tempo,,,,,35,1,0,,794701,,,,,,,
15180,note_on,,,,,0,0,1,,,,,0,,,69,103
15180,note_on,,,,,0,0,1,,,,,0,,,72,103
15180,note_on,,,,,8,0,2,,,,,0,,,43,99
15180,note_on,,,,,0,0,2,,,,,0,,,50,99
15180,note_on,,,,,8,0,1,,,,,0,,,60,103
15215,set_tempo,,,,,35,1,0,,800000,,,,,,,
15220,set_tempo,,,,,5,1,0,,839160,,,,,,,
15232,note_on,,,,,0,0,1,,,,,0,,,60,0
15232,note_on,,,,,0,0,1,,,,,0,,,69,0
15232,note_on,,,,,52,0,1,,,,,0,,,72,0
15232,note_on,,,,,52,0,2,,,,,0,,,50,0
15232,note_on,,,,,0,0,2,,,,,0,,,43,0
15240,note_on,,,,,8,0,2,,,,,0,,,43,99
15240,note_on,,,,,8,0,1,,,,,0,,,62,95
15240,note_on,,,,,0,0,2,,,,,0,,,50,99
15240,note_on,,,,,0,0,1,,,,,0,,,71,95
15240,note_on,,,,,0,0,1,,,,,0,,,74,95
15270,set_tempo,,,,,50,1,0,,869565,,,,,,,
15292,note_on,,,,,0,0,1,,,,,0,,,62,0
15292,note_on,,,,,52,0,2,,,,,0,,,50,0
15292,note_on,,,,,0,0,2,,,,,0,,,43,0
15292,note_on,,,,,0,0,1,,,,,0,,,71,0
15292,note_on,,,,,52,0,1,,,,,0,,,74,0
15298,control_change,,,,,6,0,1,,,,,0,64,0,,
15300,note_on,,,,,0,0,2,,,,,0,,,51,94
15300,note_on,,,,,8,0,2,,,,,0,,,39,94
15300,control_change,,,,,0,0,1,,,,,0,64,96,,
15300,note_on,,,,,0,0,1,,,,,0,,,66,90
15300,note_on,,,,,0,0,1,,,,,0,,,71,90
15300,note_on,,,,,2,0,1,,,,,0,,,59,90
15300,set_tempo,,,,,30,1,0,,845070,,,,,,,
15345,set_tempo,,,,,45,1,0,,816326,,,,,,,
15352,note_on,,,,,0,0,2,,,,,0,,,39,0
15352,note_on,,,,,52,0,2,,,,,0,,,51,0
15352,note_on,,,,,52,0,1,,,,,0,,,59,0
15357,note_on,,,,,0,0,1,,,,,0,,,71,0
15357,note_on,,,,,5,0,1,,,,,0,,,66,0
15360,note_on,,,,,0,0,1,,,,,0,,,60,77
15360,note_on,,,,,0,0,1,,,,,0,,,66,77
15360,note_on,,,,,0,0,2,,,,,0,,,51,83
15360,note_on,,,,,8,0,2,,,,,0,,,39,83
15360,note_on,,,,,3,0,1,,,,,0,,,69,77
15390,set_tempo,,,,,45,1,0,,794701,,,,,,,
15412,note_on,,,,,52,0,1,,,,,0,,,66,0
15412,note_on,,,,,0,0,1,,,,,0,,,69,0
15415,set_tempo,,,,,25,1,0,,800000,,,,,,,
15417,note_on,,,,,0,0,2,,,,,0,,,39,0
15417,note_on,,,,,57,0,2,,,,,0,,,51,0
15417,note_on,,,,,5,0,1,,,,,0,,,60,0
15420,note_on,,,,,3,0,2,,,,,0,,,39,74
15420,note_on,,,,,0,0,2,,,,,0,,,51,74
15420,note_on,,,,,3,0,1,,,,,0,,,69,69
15420,note_on,,,,,0,0,1,,,,,0,,,60,69
15420,note_on,,,,,0,0,1,,,,,0,,,66,69
15435,set_tempo,,,,,20,1,0,,769230,,,,,,,
15465,set_tempo,,,,,30,1,0,,731707,,,,,,,
15472,note_on,,,,,52,0,1,,,,,0,,,66,0
15472,note_on,,,,,0,0,1,,,,,0,,,69,0
15472,note_on,,,,,0,0,1,,,,,0,,,60,0
15477,note_on,,,,,57,0,2,,,,,0,,,51,0
15477,note_on,,,,,0,0,2,,,,,0,,,39,0
15478,control_change,,,,,6,0,1,,,,,0,64,0,,
15480,note_on,,,,,3,0,2,,,,,0,,,40,57
15480,note_on,,,,,0,0,1,,,,,0,,,67,67
15480,control_change,,,,,0,0,1,,,,,0,64,95,,
15480,note_on,,,,,2,0,1,,,,,0,,,59,67
15480,note_on,,,,,0,0,2,,,,,0,,,52,57
15480,note_on,,,,,0,0,1,,,,,0,,,64,67
15530,set_tempo,,,,,65,1,0,,710059,,,,,,,
15532,note_on,,,,,0,0,2,,,,,0,,,40,0
15532,note_on,,,,,0,0,1,,,,,0,,,59,0
15532,note_on,,,,,0,0,1,,,,,0,,,64,0
15532,note_on,,,,,52,0,1,,,,,0,,,67,0
15532,note_on,,,,,52,0,2,,,,,0,,,52,0
15540,note_on,,,,,8,0,1,,,,,0,,,64,72
15580,set_tempo,,,,,50,1,0,,705882,,,,,,,
15590,set_tempo,,,,,10,1,0,,701754,,,,,,,
15592,note_on,,,,,52,0,1,,,,,0,,,64,0
15600,note_on,,,,,8,0,1,,,,,0,,,66,79
15645,set_tempo,,,,,55,1,0,,693641,,,,,,,
15652,note_on,,,,,52,0,1,,,,,0,,,66,0
15660,note_on,,,,,8,0,1,,,,,0,,,67,81
15662,control_change,,,,,2,0,1,,,,,0,64,0,,
15685,set_tempo,,,,,40,1,0,,677966,,,,,,,
15712,note_on,,,,,50,0,1,,,,,0,,,67,0
15720,note_on,,,,,8,0,1,,,,,0,,,69,87
15772,note_on,,,,,52,0,1,,,,,0,,,69,0
15780,note_on,,,,,8,0,1,,,,,0,,,71,95
15790,control_change,,,,,10,0,1,,,,,0,64,0,,
15830,set_tempo,,,,,145,1,0,,666666,,,,,,,
15832,note_on,,,,,42,0,1,,,,,0,,,71,0
15840,control_change,,,,,0,0,1,,,,,0,64,96,,
15840,note_on,,,,,0,0,1,,,,,0,,,67,99
15840,note_on,,,,,0,0,1,,,,,0,,,64,99
15840,note_on,,,,,8,0,1,,,,,0,,,71,99
15840,note_on,,,,,308,0,2,,,,,0,,,33,94
15840,note_on,,,,,0,0,2,,,,,0,,,45,94
16020,note_on,,,,,180,0,1,,,,,0,,,71,0
16020,note_on,,,,,0,0,1,,,,,0,,,73,68
16080,note_on,,,,,240,0,2,,,,,0,,,45,0
16080,note_on,,,,,0,0,2,,,,,0,,,33,0
16080,note_on,,,,,0,0,1,,,,,0,,,67,0
16080,note_on,,,,,0,0,1,,,,,0,,,64,0
16080,note_on,,,,,60,0,1,,,,,0,,,73,0
16120,set_tempo,,,,,290,1,0,,645161,,,,,,,
16140,control_change,,,,,60,0,1,,,,,0,64,0,,
16160,set_tempo,,,,,40,1,0,,638297,,,,,,,
16170,note_on,,,,,0,0,1,,,,,0,,,68,92
16170,note_on,,,,,0,0,1,,,,,0,,,73,92
16170,note_on,,,,,30,0,1,,,,,0,,,65,92
16170,note_on,,,,,90,0,2,,,,,0,,,33,99
16170,note_on,,,,,0,0,2,,,,,0,,,45,99
16195,note_on,,,,,0,0,1,,,,,0,,,65,0
16195,note_on,,,,,0,0,1,,,,,0,,,68,0
16195,note_on,,,,,25,0,2,,,,,0,,,45,0
16195,note_on,,,,,0,0,2,,,,,0,,,33,0
16195,note_on,,,,,25,0,1,,,,,0,,,73,0
16200,note_on,,,,,5,0,2,,,,,0,,,33,101
16200,note_on,,,,,0,0,2,,,,,0,,,45,101
16200,control_change,,,,,0,0,1,,,,,0,64,95,,
16200,note_on,,,,,0,0,1,,,,,0,,,69,99
16200,note_on,,,,,0,0,1,,,,,0,,,66,99
16200,note_on,,,,,5,0,1,,,,,0,,,73,99
16380,note_on,,,,,180,0,1,,,,,0,,,73,0
16380,note_on,,,,,0,0,1,,,,,0,,,74,87
16440,note_on,,,,,0,0,1,,,,,0,,,66,0
16440,note_on,,,,,0,0,1,,,,,0,,,69,0
16440,note_on,,,,,60,0,1,,,,,0,,,74,0
16440,note_on,,,,,240,0,2,,,,,0,,,45,0
16440,note_on,,,,,0,0,2,,,,,0,,,33,0
16500,control_change,,,,,60,0,1,,,,,0,64,0,,
16510,set_tempo,,,,,350,1,0,,628272,,,,,,,
16530,note_on,,,,,0,0,1,,,,,0,,,69,106
16530,note_on,,,,,30,0,1,,,,,0,,,66,106
16530,note_on,,,,,0,0,1,,,,,0,,,74,106
16530,note_on,,,,,90,0,2,,,,,0,,,33,116
16530,note_on,,,,,0,0,2,,,,,0,,,45,116
16555,note_on,,,,,25,0,2,,,,,0,,,45,0
16555,note_on,,,,,0,0,1,,,,,0,,,69,0
16555,note_on,,,,,0,0,1,,,,,0,,,66,0
16555,note_on,,,,,0,0,2,,,,,0,,,33,0
16555,note_on,,,,,25,0,1,,,,,0,,,74,0
16560,note_on,,,,,5,0,1,,,,,0,,,74,112
16560,note_on,,,,,0,0,1,,,,,0,,,69,112
16560,note_on,,,,,0,0,1,,,,,0,,,66,112
16560,control_change,,,,,0,0,1,,,,,0,64,96,,
16560,note_on,,,,,5,0,2,,,,,0,,,33,116
16560,note_on,,,,,0,0,2,,,,,0,,,45,116
16620,note_on,,,,,0,0,2,,,,,0,,,33,98
16620,note_on,,,,,0,0,1,,,,,0,,,71,94
16620,note_on,,,,,0,0,2,,,,,0,,,33,0
16620,note_on,,,,,60,0,2,,,,,0,,,45,0
16620,note_on,,,,,60,0,1,,,,,0,,,66,0
16620,note_on,,,,,0,0,1,,,,,0,,,69,0
16620,note_on,,,,,0,0,1,,,,,0,,,74,0
16620,note_on,,,,,0,0,1,,,,,0,,,67,94
16620,note_on,,,,,0,0,2,,,,,0,,,45,98
16620,note_on,,,,,0,0,1,,,,,0,,,74,94
16676,note_on,,,,,0,0,2,,,,,0,,,33,0
16676,note_on,,,,,0,0,1,,,,,0,,,71,0
16676,note_on,,,,,0,0,1,,,,,0,,,67,0
16676,note_on,,,,,56,0,2,,,,,0,,,45,0
16676,note_on,,,,,56,0,1,,,,,0,,,74,0
16680,note_on,,,,,4,0,1,,,,,0,,,67,96
16680,note_on,,,,,0,0,1,,,,,0,,,71,96
16680,note_on,,,,,0,0,1,,,,,0,,,74,96
16680,note_on,,,,,0,0,2,,,,,0,,,45,102
16680,note_on,,,,,4,0,2,,,,,0,,,33,102
16730,set_tempo,,,,,220,1,0,,631578,,,,,,,
16736,note_on,,,,,56,0,2,,,,,0,,,45,0
16736,note_on,,,,,0,0,2,,,,,0,,,33,0
16736,note_on,,,,,0,0,1,,,,,0,,,67,0
16736,note_on,,,,,56,0,1,,,,,0,,,74,0
16736,note_on,,,,,0,0,1,,,,,0,,,71,0
16738,control_change,,,,,2,0,1,,,,,0,64,0,,
16740,control_change,,,,,0,0,1,,,,,0,64,95,,
16740,note_on,,,,,0,0,1,,,,,0,,,74,100
16740,note_on,,,,,2,0,1,,,,,0,,,67,100
16740,note_on,,,,,0,0,1,,,,,0,,,71,100
16740,note_on,,,,,4,0,2,,,,,0,,,33,107
16740,note_on,,,,,0,0,2,,,,,0,,,45,107
16796,note_on,,,,,56,0,1,,,,,0,,,74,0
16796,note_on,,,,,0,0,1,,,,,0,,,71,0
16796,note_on,,,,,0,0,1,,,,,0,,,67,0
16796,note_on,,,,,56,0,2,,,,,0,,,45,0
16796,note_on,,,,,0,0,2,,,,,0,,,33,0
16800,note_on,,,,,4,0,1,,,,,0,,,67,103
16800,note_on,,,,,0,0,2,,,,,0,,,45,110
16800,note_on,,,,,0,0,1,,,,,0,,,76,103
16800,note_on,,,,,0,0,1,,,,,0,,,73,103
16800,note_on,,,,,4,0,2,,,,,0,,,33,110
16856,note_on,,,,,0,0,1,,,,,0,,,67,0
16856,note_on,,,,,0,0,2,,,,,0,,,33,0
16856,note_on,,,,,0,0,1,,,,,0,,,73,0
16856,note_on,,,,,56,0,1,,,,,0,,,76,0
16856,note_on,,,,,56,0,2,,,,,0,,,45,0
16860,note_on,,,,,0,0,1,,,,,0,,,76,108
16860,note_on,,,,,0,0,1,,,,,0,,,73,108
16860,note_on,,,,,4,0,1,,,,,0,,,67,108
16860,note_on,,,,,4,0,2,,,,,0,,,33,115
16860,note_on,,,,,0,0,2,,,,,0,,,45,115
16916,note_on,,,,,0,0,1,,,,,0,,,67,0
16916,note_on,,,,,0,0,1,,,,,0,,,73,0
16916,note_on,,,,,56,0,1,,,,,0,,,76,0
16916,control_change,,,,,0,0,1,,,,,0,64,0,,
16916,note_on,,,,,56,0,2,,,,,0,,,45,0
16916,note_on,,,,,0,0,2,,,,,0,,,33,0
16920,note_on,,,,,4,0,1,,,,,0,,,78,111
16920,note_on,,,,,0,0,1,,,,,0,,,66,111
16920,note_on,,,,,0,0,1,,,,,0,,,74,111
16920,set_tempo,,,,,190,1,0,,615384,,,,,,,
16920,note_on,,,,,4,0,2,,,,,0,,,38,117
16920,note_on,,,,,0,0,2,,,,,0,,,45,117
16970,set_tempo,,,,,50,1,0,,631578,,,,,,,
16976,note_on,,,,,0,0,2,,,,,0,,,38,0
16976,note_on,,,,,56,0,1,,,,,0,,,74,0
16976,note_on,,,,,0,0,1,,,,,0,,,66,0
16976,note_on,,,,,56,0,2,,,,,0,,,45,0
16980,note_on,,,,,4,0,1,,,,,0,,,78,0
16980,set_tempo,,,,,10,1,0,,652173,,,,,,,
16980,note_on,,,,,0,0,1,,,,,0,,,81,91
17030,set_tempo,,,,,50,1,0,,693641,,,,,,,
17036,note_on,,,,,56,0,1,,,,,0,,,81,0
17040,note_on,,,,,4,0,1,,,,,0,,,81,79
17060,set_tempo,,,,,30,1,0,,714285,,,,,,,
17070,set_tempo,,,,,10,1,0,,718562,,,,,,,
17090,set_tempo,,,,,20,1,0,,736196,,,,,,,
17092,note_on,,,,,52,0,1,,,,,0,,,81,0
17100,note_on,,,,,8,0,1,,,,,0,,,81,72
17130,set_tempo,,,,,40,1,0,,779220,,,,,,,
17152,note_on,,,,,52,0,1,,,,,0,,,81,0
17160,note_on,,,,,8,0,1,,,,,0,,,81,65
17212,note_on,,,,,52,0,1,,,,,0,,,81,0
17220,note_on,,,,,8,0,1,,,,,0,,,81,61
17260,set_tempo,,,,,130,1,0,,845070,,,,,,,
17272,note_on,,,,,52,0,1,,,,,0,,,81,0
17280,set_tempo,,,,,20,1,0,,745341,,,,,,,
17280,note_on,,,,,304,0,2,,,,,0,,,33,87
17280,note_on,,,,,0,0,2,,,,,0,,,45,87
17280,note_on,,,,,8,0,1,,,,,0,,,74,86
17280,note_on,,,,,0,0,1,,,,,0,,,69,86
17280,note_on,,,,,0,0,1,,,,,0,,,66,86
17280,control_change,,,,,0,0,1,,,,,0,64,96,,
17290,set_tempo,,,,,10,1,0,,662983,,,,,,,
17295,set_tempo,,,,,5,1,0,,662983,,,,,,,
17340,note_on,,,,,0,0,2,,,,,0,,,45,74
17340,note_on,,,,,0,0,2,,,,,0,,,33,74
17340,note_on,,,,,0,0,1,,,,,0,,,71,74
17340,note_on,,,,,0,0,1,,,,,0,,,74,74
17340,note_on,,,,,0,0,1,,,,,0,,,67,74
17340,note_on,,,,,0,0,1,,,,,0,,,74,0
17340,note_on,,,,,0,0,1,,,,,0,,,69,0
17340,note_on,,,,,60,0,1,,,,,0,,,66,0
17340,note_on,,,,,0,0,2,,,,,0,,,33,0
17340,note_on,,,,,60,0,2,,,,,0,,,45,0
17355,set_tempo,,,,,60,1,0,,628272,,,,,,,
17360,set_tempo,,,,,5,1,0,,645161,,,,,,,
17396,note_on,,,,,0,0,1,,,,,0,,,71,0
17396,note_on,,,,,56,0,1,,,,,0,,,74,0
17396,note_on,,,,,56,0,2,,,,,0,,,45,0
17396,note_on,,,,,0,0,2,,,,,0,,,33,0
17396,note_on,,,,,0,0,1,,,,,0,,,67,0
17400,note_on,,,,,0,0,1,,,,,0,,,74,75
17400,note_on,,,,,4,0,2,,,,,0,,,33,77
17400,note_on,,,,,0,0,1,,,,,0,,,71,75
17400,note_on,,,,,0,0,2,,,,,0,,,45,77
17400,note_on,,,,,4,0,1,,,,,0,,,67,75
17430,set_tempo,,,,,70,1,0,,634920,,,,,,,
17456,note_on,,,,,56,0,1,,,,,0,,,74,0
17456,note_on,,,,,0,0,1,,,,,0,,,71,0
17456,note_on,,,,,0,0,1,,,,,0,,,67,0
17456,note_on,,,,,0,0,2,,,,,0,,,33,0
17456,note_on,,,,,56,0,2,,,,,0,,,45,0
17458,control_change,,,,,2,0,1,,,,,0,64,0,,
17460,note_on,,,,,0,0,1,,,,,0,,,71,78
17460,note_on,,,,,0,0,2,,,,,0,,,45,81
17460,control_change,,,,,0,0,1,,,,,0,64,95,,
17460,note_on,,,,,4,0,2,,,,,0,,,33,81
17460,note_on,,,,,2,0,1,,,,,0,,,67,78
17460,note_on,,,,,0,0,1,,,,,0,,,74,78
17485,set_tempo,,,,,55,1,0,,628272,,,,,,,
17516,note_on,,,,,56,0,1,,,,,0,,,74,0
17516,note_on,,,,,0,0,1,,,,,0,,,67,0
17516,note_on,,,,,0,0,1,,,,,0,,,71,0
17516,note_on,,,,,0,0,2,,,,,0,,,33,0
17516,note_on,,,,,56,0,2,,,,,0,,,45,0
17520,note_on,,,,,0,0,2,,,,,0,,,45,83
17520,note_on,,,,,0,0,1,,,,,0,,,76,82
17520,note_on,,,,,4,0,2,,,,,0,,,33,83
17520,note_on,,,,,4,0,1,,,,,0,,,67,82
17520,note_on,,,,,0,0,1,,,,,0,,,73,82
17576,note_on,,,,,56,0,1,,,,,0,,,76,0
17576,note_on,,,,,0,0,1,,,,,0,,,73,0
17576,note_on,,,,,56,0,2,,,,,0,,,45,0
17576,note_on,,,,,0,0,2,,,,,0,,,33,0
17576,note_on,,,,,0,0,1,,,,,0,,,67,0
17580,note_on,,,,,0,0,1,,,,,0,,,73,87
17580,note_on,,,,,4,0,2,,,,,0,,,33,77
17580,note_on,,,,,0,0,2,,,,,0,,,45,77
17580,note_on,,,,,0,0,1,,,,,0,,,76,87
17580,note_on,,,,,4,0,1,,,,,0,,,67,87
17636,note_on,,,,,56,0,1,,,,,0,,,76,0
17636,note_on,,,,,0,0,1,,,,,0,,,73,0
17636,control_change,,,,,0,0,1,,,,,0,64,0,,
17636,note_on,,,,,0,0,1,,,,,0,,,67,0
17636,note_on,,,,,56,0,2,,,,,0,,,45,0
17636,note_on,,,,,0,0,2,,,,,0,,,33,0
17640,note_on,,,,,4,0,2,,,,,0,,,38,72
17640,note_on,,,,,0,0,2,,,,,0,,,45,72
17640,note_on,,,,,4,0,1,,,,,0,,,78,88
17640,note_on,,,,,0,0,1,,,,,0,,,66,88
17640,note_on,,,,,0,0,1,,,,,0,,,74,88
17680,set_tempo,,,,,195,1,0,,677966,,,,,,,
17690,set_tempo,,,,,10,1,0,,681818,,,,,,,
17696,note_on,,,,,56,0,2,,,,,0,,,45,0
17696,note_on,,,,,0,0,2,,,,,0,,,38,0
17696,note_on,,,,,56,0,1,,,,,0,,,74,0
17696,note_on,,,,,0,0,1,,,,,0,,,66,0
17700,note_on,,,,,0,0,1,,,,,0,,,81,76
17700,note_on,,,,,4,0,1,,,,,0,,,78,0
17725,set_tempo,,,,,35,1,0,,705882,,,,,,,
17735,set_tempo,,,,,10,1,0,,710059,,,,,,,
17756,note_on,,,,,56,0,1,,,,,0,,,81,0
17760,note_on,,,,,4,0,1,,,,,0,,,81,67
17770,set_tempo,,,,,35,1,0,,736196,,,,,,,
17790,set_tempo,,,,,20,1,0,,740740,,,,,,,
17812,note_on,,,,,52,0,1,,,,,0,,,81,0
17820,set_tempo,,,,,30,1,0,,774193,,,,,,,
17820,note_on,,,,,8,0,1,,,,,0,,,81,60
17860,set_tempo,,,,,40,1,0,,821917,,,,,,,
17872,note_on,,,,,52,0,1,,,,,0,,,81,0
17880,note_on,,,,,8,0,1,,,,,0,,,81,52
17900,set_tempo,,,,,40,1,0,,851063,,,,,,,
17932,note_on,,,,,52,0,1,,,,,0,,,81,0
17940,note_on,,,,,8,0,1,,,,,0,,,81,50
17955,set_tempo,,,,,55,1,0,,909090,,,,,,,
17992,note_on,,,,,52,0,1,,,,,0,,,81,0
18000,note_on,,,,,0,0,2,,,,,0,,,45,62
18000,note_on,,,,,304,0,2,,,,,0,,,33,62
18000,set_tempo,,,,,45,1,0,,764331,,,,,,,
18000,note_on,,,,,0,0,1,,,,,0,,,66,75
18000,note_on,,,,,0,0,1,,,,,0,,,69,75
18000,note_on,,,,,8,0,1,,,,,0,,,74,75
18000,control_change,,,,,0,0,1,,,,,0,64,96,,
18060,note_on,,,,,60,0,2,,,,,0,,,45,0
18060,note_on,,,,,0,0,2,,,,,0,,,33,0
18060,note_on,,,,,0,0,2,,,,,0,,,33,44
18060,note_on,,,,,0,0,2,,,,,0,,,45,44
18060,note_on,,,,,0,0,1,,,,,0,,,67,72
18060,note_on,,,,,0,0,1,,,,,0,,,74,72
18060,note_on,,,,,0,0,1,,,,,0,,,74,0
18060,note_on,,,,,0,0,1,,,,,0,,,69,0
18060,note_on,,,,,60,0,1,,,,,0,,,66,0
18060,note_on,,,,,0,0,1,,,,,0,,,71,72
18085,set_tempo,,,,,85,1,0,,736196,,,,,,,
18116,note_on,,,,,0,0,1,,,,,0,,,71,0
18116,note_on,,,,,0,0,1,,,,,0,,,67,0
18116,note_on,,,,,56,0,1,,,,,0,,,74,0
18116,note_on,,,,,56,0,2,,,,,0,,,45,0
18116,note_on,,,,,0,0,2,,,,,0,,,33,0
18120,note_on,,,,,0,0,1,,,,,0,,,74,70
18120,note_on,,,,,4,0,2,,,,,0,,,33,46
18120,note_on,,,,,0,0,2,,,,,0,,,45,46
18120,note_on,,,,,0,0,1,,,,,0,,,71,70
18120,note_on,,,,,4,0,1,,,,,0,,,67,70
18135,set_tempo,,,,,50,1,0,,736196,,,,,,,
18176,note_on,,,,,56,0,2,,,,,0,,,45,0
18176,note_on,,,,,0,0,2,,,,,0,,,33,0
18176,note_on,,,,,0,0,1,,,,,0,,,67,0
18176,note_on,,,,,56,0,1,,,,,0,,,74,0
18176,note_on,,,,,0,0,1,,,,,0,,,71,0
18178,control_change,,,,,2,0,1,,,,,0,64,0,,
18180,note_on,,,,,0,0,1,,,,,0,,,71,64
18180,set_tempo,,,,,45,1,0,,722891,,,,,,,
18180,control_change,,,,,0,0,1,,,,,0,64,95,,
18180,note_on,,,,,0,0,1,,,,,0,,,74,64
18180,note_on,,,,,2,0,1,,,,,0,,,67,64
18180,note_on,,,,,4,0,2,,,,,0,,,33,48
18180,note_on,,,,,0,0,2,,,,,0,,,45,48
18236,note_on,,,,,0,0,1,,,,,0,,,67,0
18236,note_on,,,,,0,0,1,,,,,0,,,71,0
18236,note_on,,,,,56,0,1,,,,,0,,,74,0
18236,note_on,,,,,56,0,2,,,,,0,,,45,0
18236,note_on,,,,,0,0,2,,,,,0,,,33,0
18240,set_tempo,,,,,60,1,0,,710059,,,,,,,
18240,note_on,,,,,0,0,2,,,,,0,,,45,53
18240,note_on,,,,,4,0,2,,,,,0,,,33,53
18240,note_on,,,,,4,0,1,,,,,0,,,67,59
18240,note_on,,,,,0,0,1,,,,,0,,,76,59
18240,note_on,,,,,0,0,1,,,,,0,,,73,59
18270,set_tempo,,,,,30,1,0,,710059,,,,,,,
18290,set_tempo,,,,,20,1,0,,697674,,,,,,,
18296,note_on,,,,,0,0,1,,,,,0,,,67,0
18296,note_on,,,,,0,0,1,,,,,0,,,73,0
18296,note_on,,,,,56,0,2,,,,,0,,,45,0
18296,note_on,,,,,56,0,1,,,,,0,,,76,0
18296,note_on,,,,,0,0,2,,,,,0,,,33,0
18300,note_on,,,,,0,0,2,,,,,0,,,45,46
18300,note_on,,,,,4,0,1,,,,,0,,,67,62
18300,note_on,,,,,0,0,1,,,,,0,,,73,62
18300,note_on,,,,,4,0,2,,,,,0,,,33,46
18300,note_on,,,,,0,0,1,,,,,0,,,76,62
18356,note_on,,,,,0,0,1,,,,,0,,,73,0
18356,note_on,,,,,0,0,1,,,,,0,,,67,0
18356,control_change,,,,,0,0,1,,,,,0,64,0,,
18356,note_on,,,,,56,0,2,,,,,0,,,45,0
18356,note_on,,,,,0,0,2,,,,,0,,,33,0
18356,note_on,,,,,56,0,1,,,,,0,,,76,0
18360,note_on,,,,,4,0,1,,,,,0,,,78,65
18360,note_on,,,,,0,0,1,,,,,0,,,66,65
18360,note_on,,,,,4,0,2,,,,,0,,,38,44
18360,note_on,,,,,0,0,2,,,,,0,,,45,44
18360,note_on,,,,,0,0,1,,,,,0,,,74,65
18370,set_tempo,,,,,80,1,0,,689655,,,,,,,
18380,set_tempo,,,,,10,1,0,,764331,,,,,,,
18416,note_on,,,,,56,0,1,,,,,0,,,74,0
18416,note_on,,,,,0,0,1,,,,,0,,,66,0
18416,note_on,,,,,56,0,2,,,,,0,,,45,0
18416,note_on,,,,,0,0,2,,,,,0,,,38,0
18420,note_on,,,,,4,0,1,,,,,0,,,78,0
18420,note_on,,,,,0,0,1,,,,,0,,,62,55
18420,note_on,,,,,0,0,1,,,,,0,,,74,55
18430,set_tempo,,,,,50,1,0,,821917,,,,,,,
18476,note_on,,,,,56,0,1,,,,,0,,,74,0
18476,note_on,,,,,0,0,1,,,,,0,,,62,0
18480,set_tempo,,,,,50,1,0,,875912,,,,,,,
18480,note_on,,,,,4,0,1,,,,,0,,,62,49
18480,note_on,,,,,0,0,1,,,,,0,,,74,49
18532,note_on,,,,,52,0,1,,,,,0,,,74,0
18532,note_on,,,,,0,0,1,,,,,0,,,62,0
18540,set_tempo,,,,,60,1,0,,930232,,,,,,,
18540,note_on,,,,,0,0,1,,,,,0,,,74,38
18540,note_on,,,,,8,0,1,,,,,0,,,62,38
18590,set_tempo,,,,,50,1,0,,991735,,,,,,,
18592,note_on,,,,,0,0,1,,,,,0,,,62,0
18592,note_on,,,,,52,0,1,,,,,0,,,74,0
18600,note_on,,,,,0,0,1,,,,,0,,,74,43
18600,note_on,,,,,8,0,1,,,,,0,,,62,43
18630,set_tempo,,,,,40,1,0,,1111111,,,,,,,
18652,note_on,,,,,0,0,1,,,,,0,,,62,0
18652,note_on,,,,,52,0,1,,,,,0,,,74,0
18660,note_on,,,,,0,0,2,,,,,0,,,57,44
18660,note_on,,,,,244,0,2,,,,,0,,,54,44
18660,set_tempo,,,,,30,1,0,,857142,,,,,,,
18660,note_on,,,,,8,0,1,,,,,0,,,62,46
18660,note_on,,,,,0,0,1,,,,,0,,,74,46
18670,set_tempo,,,,,10,1,0,,863309,,,,,,,
18712,note_on,,,,,52,0,2,,,,,0,,,57,0
18712,note_on,,,,,52,0,1,,,,,0,,,74,0
18712,note_on,,,,,0,0,1,,,,,0,,,62,0
18712,note_on,,,,,0,0,2,,,,,0,,,54,0
18720,note_on,,,,,8,0,2,,,,,0,,,45,54
18720,note_on,,,,,8,0,1,,,,,0,,,61,50
18720,note_on,,,,,0,0,1,,,,,0,,,73,50
18720,control_change,,,,,0,0,1,,,,,0,64,97,,
18740,set_tempo,,,,,70,1,0,,681818,,,,,,,
18745,set_tempo,,,,,5,1,0,,674157,,,,,,,
18780,note_on,,,,,60,0,2,,,,,0,,,45,0
18810,note_on,,,,,0,0,2,,,,,0,,,55,48
18810,note_on,,,,,30,0,2,,,,,0,,,52,48
18820,set_tempo,,,,,75,1,0,,659340,,,,,,,
18835,note_on,,,,,0,0,2,,,,,0,,,52,0
18835,note_on,,,,,25,0,2,,,,,0,,,55,0
18840,note_on,,,,,5,0,2,,,,,0,,,52,46
18840,control_change,,,,,120,0,1,,,,,0,64,0,,
18840,note_on,,,,,0,0,2,,,,,0,,,55,46
18900,note_on,,,,,0,0,2,,,,,0,,,45,56
18900,note_on,,,,,0,0,1,,,,,0,,,61,0
18900,note_on,,,,,60,0,1,,,,,0,,,73,0
18900,note_on,,,,,0,0,1,,,,,0,,,71,46
18900,control_change,,,,,0,0,1,,,,,0,64,96,,
18900,note_on,,,,,0,0,2,,,,,0,,,52,0
18900,note_on,,,,,60,0,2,,,,,0,,,55,0
18900,note_on,,,,,0,0,1,,,,,0,,,59,46
18925,set_tempo,,,,,105,1,0,,652173,,,,,,,
18960,note_on,,,,,60,0,2,,,,,0,,,45,0
18990,note_on,,,,,30,0,2,,,,,0,,,50,48
18990,note_on,,,,,0,0,2,,,,,0,,,54,48
19015,note_on,,,,,25,0,2,,,,,0,,,54,0
19015,note_on,,,,,0,0,2,,,,,0,,,50,0
19020,note_on,,,,,0,0,2,,,,,0,,,54,47
19020,note_on,,,,,5,0,2,,,,,0,,,50,47
19020,control_change,,,,,120,0,1,,,,,0,64,0,,
19080,note_on,,,,,60,0,1,,,,,0,,,71,0
19080,note_on,,,,,0,0,1,,,,,0,,,59,0
19080,note_on,,,,,60,0,2,,,,,0,,,54,0
19080,note_on,,,,,0,0,2,,,,,0,,,50,0
19080,note_on,,,,,0,0,2,,,,,0,,,45,55
19080,note_on,,,,,0,0,1,,,,,0,,,57,50
19080,note_on,,,,,0,0,1,,,,,0,,,69,50
19134,note_on,,,,,0,0,1,,,,,0,,,57,0
19134,note_on,,,,,54,0,1,,,,,0,,,69,0
19134,note_on,,,,,54,0,2,,,,,0,,,45,0
19140,note_on,,,,,0,0,2,,,,,0,,,49,45
19140,note_on,,,,,0,0,2,,,,,0,,,52,45
19140,note_on,,,,,6,0,1,,,,,0,,,61,38
19140,note_on,,,,,0,0,1,,,,,0,,,73,38
19140,note_on,,,,,6,0,2,,,,,0,,,45,45
19190,note_on,,,,,50,0,1,,,,,0,,,73,0
19190,note_on,,,,,0,0,1,,,,,0,,,61,0
19190,note_on,,,,,50,0,2,,,,,0,,,52,0
19190,note_on,,,,,0,0,2,,,,,0,,,49,0
19190,note_on,,,,,0,0,2,,,,,0,,,45,0
19200,note_on,,,,,0,0,2,,,,,0,,,50,47
19200,note_on,,,,,0,0,2,,,,,0,,,47,47
19200,note_on,,,,,10,0,2,,,,,0,,,45,47
19200,note_on,,,,,10,0,1,,,,,0,,,62,43
19200,note_on,,,,,0,0,1,,,,,0,,,74,43
19250,note_on,,,,,0,0,2,,,,,0,,,47,0
19250,note_on,,,,,50,0,2,,,,,0,,,50,0
19250,note_on,,,,,0,0,2,,,,,0,,,45,0
19250,note_on,,,,,0,0,1,,,,,0,,,62,0
19250,note_on,,,,,50,0,1,,,,,0,,,74,0
19260,note_on,,,,,0,0,2,,,,,0,,,52,51
19260,note_on,,,,,0,0,2,,,,,0,,,49,51
19260,note_on,,,,,10,0,2,,,,,0,,,45,51
19260,note_on,,,,,10,0,1,,,,,0,,,64,44
19260,note_on,,,,,0,0,1,,,,,0,,,76,44
19295,set_tempo,,,,,370,1,0,,638297,,,,,,,
19310,note_on,,,,,0,0,2,,,,,0,,,45,0
19310,note_on,,,,,0,0,2,,,,,0,,,49,0
19310,note_on,,,,,50,0,2,,,,,0,,,52,0
19310,note_on,,,,,50,0,1,,,,,0,,,76,0
19310,note_on,,,,,0,0,1,,,,,0,,,64,0
19320,note_on,,,,,10,0,1,,,,,0,,,66,47
19320,note_on,,,,,0,0,2,,,,,0,,,54,55
19320,note_on,,,,,0,0,1,,,,,0,,,78,47
19320,note_on,,,,,10,0,2,,,,,0,,,45,55
19320,note_on,,,,,0,0,2,,,,,0,,,50,55
19370,note_on,,,,,50,0,1,,,,,0,,,78,0
19370,note_on,,,,,0,0,1,,,,,0,,,66,0
19370,note_on,,,,,50,0,2,,,,,0,,,54,0
19370,note_on,,,,,0,0,2,,,,,0,,,50,0
19370,note_on,,,,,0,0,2,,,,,0,,,45,0
19375,set_tempo,,,,,80,1,0,,648648,,,,,,,
19380,note_on,,,,,10,0,2,,,,,0,,,45,58
19380,note_on,,,,,0,0,2,,,,,0,,,55,58
19380,note_on,,,,,10,0,1,,,,,0,,,67,49
19380,note_on,,,,,0,0,2,,,,,0,,,52,58
19380,note_on,,,,,0,0,1,,,,,0,,,79,49
19425,set_tempo,,,,,50,1,0,,662983,,,,,,,
19430,note_on,,,,,0,0,2,,,,,0,,,52,0
19430,note_on,,,,,50,0,2,,,,,0,,,55,0
19430,note_on,,,,,50,0,1,,,,,0,,,79,0
19430,note_on,,,,,0,0,2,,,,,0,,,45,0
19430,note_on,,,,,0,0,1,,,,,0,,,67,0
19440,note_on,,,,,10,0,2,,,,,0,,,45,61
19440,note_on,,,,,0,0,1,,,,,0,,,78,53
19440,control_change,,,,,0,0,1,,,,,0,64,96,,
19440,note_on,,,,,10,0,1,,,,,0,,,66,53
19500,note_on,,,,,60,0,2,,,,,0,,,45,0
19530,note_on,,,,,30,0,2,,,,,0,,,50,51
19530,note_on,,,,,0,0,2,,,,,0,,,54,51
19555,note_on,,,,,0,0,2,,,,,0,,,50,0
19555,note_on,,,,,25,0,2,,,,,0,,,54,0
19560,control_change,,,,,120,0,1,,,,,0,64,0,,
19560,note_on,,,,,5,0,2,,,,,0,,,50,49
19560,note_on,,,,,0,0,2,,,,,0,,,54,49
19620,note_on,,,,,0,0,2,,,,,0,,,50,0
19620,note_on,,,,,0,0,1,,,,,0,,,79,53
19620,note_on,,,,,0,0,1,,,,,0,,,67,53
19620,note_on,,,,,0,0,1,,,,,0,,,66,0
19620,note_on,,,,,60,0,1,,,,,0,,,78,0
19620,note_on,,,,,60,0,2,,,,,0,,,54,0
19620,note_on,,,,,0,0,2,,,,,0,,,45,57
19620,control_change,,,,,0,0,1,,,,,0,64,96,,
19680,note_on,,,,,60,0,2,,,,,0,,,45,0
19710,note_on,,,,,30,0,2,,,,,0,,,55,48
19710,note_on,,,,,0,0,2,,,,,0,,,52,48
19735,set_tempo,,,,,310,1,0,,662983,,,,,,,
19735,note_on,,,,,25,0,2,,,,,0,,,52,0
19735,note_on,,,,,0,0,2,,,,,0,,,55,0
19740,control_change,,,,,120,0,1,,,,,0,64,0,,
19740,note_on,,,,,5,0,2,,,,,0,,,52,47
19740,note_on,,,,,0,0,2,,,,,0,,,55,47
19790,set_tempo,,,,,55,1,0,,645161,,,,,,,
19795,set_tempo,,,,,5,1,0,,645161,,,,,,,
19800,note_on,,,,,60,0,2,,,,,0,,,55,0
19800,note_on,,,,,0,0,1,,,,,0,,,81,55
19800,note_on,,,,,0,0,2,,,,,0,,,52,0
19800,note_on,,,,,0,0,1,,,,,0,,,67,0
19800,note_on,,,,,60,0,1,,,,,0,,,79,0
19800,note_on,,,,,0,0,1,,,,,0,,,69,55
19800,note_on,,,,,0,0,2,,,,,0,,,45,55
19850,set_tempo,,,,,55,1,0,,634920,,,,,,,
19854,note_on,,,,,54,0,2,,,,,0,,,45,0
19854,note_on,,,,,54,0,1,,,,,0,,,81,0
19854,note_on,,,,,0,0,1,,,,,0,,,69,0
19860,note_on,,,,,6,0,2,,,,,0,,,54,43
19860,note_on,,,,,6,0,1,,,,,0,,,74,40
19860,note_on,,,,,0,0,1,,,,,0,,,86,40
19860,note_on,,,,,0,0,2,,,,,0,,,57,43
19917,note_on,,,,,57,0,1,,,,,0,,,86,0
19917,note_on,,,,,0,0,1,,,,,0,,,74,0
19920,note_on,,,,,3,0,1,,,,,0,,,86,43
19920,note_on,,,,,0,0,1,,,,,0,,,74,43
19920,note_on,,,,,0,0,2,,,,,0,,,56,47
19920,note_on,,,,,60,0,2,,,,,0,,,57,0
19920,note_on,,,,,0,0,2,,,,,0,,,54,0
19920,note_on,,,,,0,0,2,,,,,0,,,53,47
19977,note_on,,,,,57,0,1,,,,,0,,,74,0
19977,note_on,,,,,0,0,1,,,,,0,,,86,0
19980,note_on,,,,,0,0,1,,,,,0,,,74,48
19980,note_on,,,,,60,0,2,,,,,0,,,56,0
19980,note_on,,,,,0,0,2,,,,,0,,,53,0
19980,note_on,,,,,0,0,2,,,,,0,,,54,50
19980,note_on,,,,,0,0,2,,,,,0,,,57,50
19980,note_on,,,,,3,0,1,,,,,0,,,86,48
20037,note_on,,,,,57,0,1,,,,,0,,,74,0
20037,note_on,,,,,0,0,1,,,,,0,,,86,0
20040,note_on,,,,,0,0,1,,,,,0,,,74,51
20040,note_on,,,,,3,0,1,,,,,0,,,86,51
20040,note_on,,,,,0,0,2,,,,,0,,,59,53
20040,note_on,,,,,0,0,2,,,,,0,,,54,0
20040,note_on,,,,,60,0,2,,,,,0,,,57,0
20040,note_on,,,,,0,0,2,,,,,0,,,55,53
20085,set_tempo,,,,,235,1,0,,648648,,,,,,,
20097,note_on,,,,,57,0,1,,,,,0,,,74,0
20097,note_on,,,,,0,0,1,,,,,0,,,86,0
20100,note_on,,,,,60,0,2,,,,,0,,,59,0
20100,note_on,,,,,0,0,2,,,,,0,,,55,0
20100,note_on,,,,,0,0,2,,,,,0,,,54,57
20100,note_on,,,,,0,0,2,,,,,0,,,57,57
20100,note_on,,,,,3,0,1,,,,,0,,,86,54
20100,note_on,,,,,0,0,1,,,,,0,,,74,54
20135,set_tempo,,,,,50,1,0,,666666,,,,,,,
20157,note_on,,,,,57,0,1,,,,,0,,,74,0
20157,note_on,,,,,0,0,1,,,,,0,,,86,0
20160,note_on,,,,,0,0,2,,,,,0,,,54,0
20160,note_on,,,,,0,0,1,,,,,0,,,85,54
20160,control_change,,,,,0,0,1,,,,,0,64,97,,
20160,note_on,,,,,0,0,2,,,,,0,,,45,57
20160,note_on,,,,,60,0,2,,,,,0,,,57,0
20160,note_on,,,,,3,0,1,,,,,0,,,73,54
20220,note_on,,,,,60,0,2,,,,,0,,,45,0
20225,set_tempo,,,,,90,1,0,,652173,,,,,,,
20250,note_on,,,,,30,0,2,,,,,0,,,52,54
20250,note_on,,,,,0,0,2,,,,,0,,,55,54
20275,note_on,,,,,25,0,2,,,,,0,,,55,0
20275,note_on,,,,,0,0,2,,,,,0,,,52,0
20280,control_change,,,,,120,0,1,,,,,0,64,0,,
20280,note_on,,,,,0,0,2,,,,,0,,,55,54
20280,note_on,,,,,5,0,2,,,,,0,,,52,54
20305,set_tempo,,,,,80,1,0,,631578,,,,,,,
20340,note_on,,,,,60,0,2,,,,,0,,,55,0
20340,note_on,,,,,0,0,1,,,,,0,,,73,0
20340,note_on,,,,,0,0,1,,,,,0,,,71,61
20340,note_on,,,,,0,0,1,,,,,0,,,83,61
20340,control_change,,,,,0,0,1,,,,,0,64,96,,
20340,note_on,,,,,0,0,2,,,,,0,,,52,0
20340,note_on,,,,,0,0,2,,,,,0,,,45,59
20340,note_on,,,,,60,0,1,,,,,0,,,85,0
20400,note_on,,,,,60,0,2,,,,,0,,,45,0
20430,note_on,,,,,30,0,2,,,,,0,,,50,59
20430,note_on,,,,,0,0,2,,,,,0,,,54,59
20455,note_on,,,,,25,0,2,,,,,0,,,54,0
20455,note_on,,,,,0,0,2,,,,,0,,,50,0
20460,control_change,,,,,120,0,1,,,,,0,64,0,,
20460,note_on,,,,,5,0,2,,,,,0,,,50,59
20460,note_on,,,,,0,0,2,,,,,0,,,54,59
20520,note_on,,,,,0,0,2,,,,,0,,,45,63
20520,note_on,,,,,0,0,2,,,,,0,,,50,0
20520,note_on,,,,,0,0,1,,,,,0,,,81,67
20520,note_on,,,,,0,0,1,,,,,0,,,69,67
20520,note_on,,,,,0,0,1,,,,,0,,,71,0
20520,note_on,,,,,60,0,1,,,,,0,,,83,0
20520,note_on,,,,,60,0,2,,,,,0,,,54,0
20574,note_on,,,,,0,0,1,,,,,0,,,69,0
20574,note_on,,,,,54,0,1,,,,,0,,,81,0
20574,note_on,,,,,54,0,2,,,,,0,,,45,0
20580,note_on,,,,,6,0,1,,,,,0,,,73,62
20580,note_on,,,,,0,0,1,,,,,0,,,85,62
20580,note_on,,,,,6,0,2,,,,,0,,,45,57
20580,note_on,,,,,0,0,2,,,,,0,,,52,57
20580,note_on,,,,,0,0,2,,,,,0,,,49,57
20605,set_tempo,,,,,300,1,0,,631578,,,,,,,
20630,note_on,,,,,0,0,2,,,,,0,,,49,0
20630,note_on,,,,,0,0,2,,,,,0,,,45,0
20630,note_on,,,,,50,0,1,,,,,0,,,85,0
20630,note_on,,,,,50,0,2,,,,,0,,,52,0
20630,note_on,,,,,0,0,1,,,,,0,,,73,0
20640,note_on,,,,,0,0,2,,,,,0,,,50,63
20640,note_on,,,,,0,0,2,,,,,0,,,47,63
20640,note_on,,,,,10,0,2,,,,,0,,,45,63
20640,note_on,,,,,0,0,1,,,,,0,,,86,65
20640,note_on,,,,,10,0,1,,,,,0,,,74,65
20690,note_on,,,,,0,0,2,,,,,0,,,45,0
20690,note_on,,,,,0,0,1,,,,,0,,,74,0
20690,note_on,,,,,50,0,2,,,,,0,,,50,0
20690,note_on,,,,,50,0,1,,,,,0,,,86,0
20690,note_on,,,,,0,0,2,,,,,0,,,47,0
20700,note_on,,,,,0,0,2,,,,,0,,,52,63
20700,note_on,,,,,0,0,2,,,,,0,,,49,63
20700,note_on,,,,,10,0,2,,,,,0,,,45,63
20700,note_on,,,,,10,0,1,,,,,0,,,76,68
20700,note_on,,,,,0,0,1,,,,,0,,,88,68
20715,set_tempo,,,,,110,1,0,,645161,,,,,,,
20725,set_tempo,,,,,10,1,0,,641711,,,,,,,
20730,set_tempo,,,,,5,1,0,,645161,,,,,,,
20750,note_on,,,,,0,0,1,,,,,0,,,76,0
20750,note_on,,,,,50,0,1,,,,,0,,,88,0
20750,note_on,,,,,0,0,2,,,,,0,,,49,0
20750,note_on,,,,,0,0,2,,,,,0,,,45,0
20750,note_on,,,,,50,0,2,,,,,0,,,52,0
20760,note_on,,,,,0,0,2,,,,,0,,,50,67
20760,note_on,,,,,0,0,2,,,,,0,,,54,67
20760,note_on,,,,,10,0,1,,,,,0,,,78,70
20760,note_on,,,,,0,0,1,,,,,0,,,90,70
20760,note_on,,,,,10,0,2,,,,,0,,,45,67
20805,set_tempo,,,,,75,1,0,,659340,,,,,,,
20810,note_on,,,,,50,0,2,,,,,0,,,54,0
20810,note_on,,,,,0,0,2,,,,,0,,,50,0
20810,note_on,,,,,0,0,2,,,,,0,,,45,0
20810,note_on,,,,,50,0,1,,,,,0,,,90,0
20810,note_on,,,,,0,0,1,,,,,0,,,78,0
20820,note_on,,,,,10,0,1,,,,,0,,,79,73
20820,note_on,,,,,10,0,2,,,,,0,,,45,69
20820,note_on,,,,,0,0,2,,,,,0,,,52,69
20820,note_on,,,,,0,0,2,,,,,0,,,55,69
20820,note_on,,,,,0,0,1,,,,,0,,,91,73
20870,note_on,,,,,50,0,1,,,,,0,,,91,0
20870,note_on,,,,,0,0,2,,,,,0,,,45,0
20870,note_on,,,,,50,0,2,,,,,0,,,55,0
20870,note_on,,,,,0,0,2,,,,,0,,,52,0
20870,note_on,,,,,0,0,1,,,,,0,,,79,0
20880,control_change,,,,,0,0,1,,,,,0,64,96,,
20880,note_on,,,,,10,0,1,,,,,0,,,78,73
20880,note_on,,,,,10,0,2,,,,,0,,,45,71
20880,note_on,,,,,0,0,1,,,,,0,,,90,73
20900,set_tempo,,,,,95,1,0,,645161,,,,,,,
20935,set_tempo,,,,,35,1,0,,631578,,,,,,,
20940,note_on,,,,,60,0,2,,,,,0,,,45,0
20960,set_tempo,,,,,25,1,0,,625000,,,,,,,
20970,note_on,,,,,30,0,2,,,,,0,,,50,67
20970,note_on,,,,,0,0,2,,,,,0,,,54,67
20995,note_on,,,,,25,0,2,,,,,0,,,54,0
20995,note_on,,,,,0,0,2,,,,,0,,,50,0
21000,control_change,,,,,120,0,1,,,,,0,64,0,,
21000,note_on,,,,,5,0,2,,,,,0,,,50,67
21000,note_on,,,,,0,0,2,,,,,0,,,54,67
21060,note_on,,,,,60,0,2,,,,,0,,,54,0
21060,note_on,,,,,0,0,2,,,,,0,,,50,0
21060,note_on,,,,,0,0,2,,,,,0,,,45,71
21060,note_on,,,,,60,0,1,,,,,0,,,90,0
21060,note_on,,,,,0,0,1,,,,,0,,,79,72
21060,note_on,,,,,0,0,1,,,,,0,,,78,0
21060,note_on,,,,,0,0,1,,,,,0,,,91,72
21060,control_change,,,,,0,0,1,,,,,0,64,96,,
21080,set_tempo,,,,,120,1,0,,638297,,,,,,,
21120,note_on,,,,,60,0,2,,,,,0,,,45,0
21130,set_tempo,,,,,50,1,0,,655737,,,,,,,
21150,note_on,,,,,30,0,2,,,,,0,,,55,63
21150,note_on,,,,,0,0,2,,,,,0,,,52,63
21175,note_on,,,,,25,0,2,,,,,0,,,52,0
21175,note_on,,,,,0,0,2,,,,,0,,,55,0
21180,control_change,,,,,120,0,1,,,,,0,64,0,,
21180,note_on,,,,,5,0,2,,,,,0,,,52,62
21180,note_on,,,,,0,0,2,,,,,0,,,55,62
21240,note_on,,,,,60,0,1,,,,,0,,,91,0
21240,note_on,,,,,0,0,1,,,,,0,,,81,72
21240,note_on,,,,,0,0,1,,,,,0,,,93,72
21240,note_on,,,,,60,0,2,,,,,0,,,55,0
21240,note_on,,,,,0,0,1,,,,,0,,,79,0
21240,note_on,,,,,0,0,2,,,,,0,,,45,67
21240,note_on,,,,,0,0,2,,,,,0,,,52,0
21250,set_tempo,,,,,120,1,0,,670391,,,,,,,
21294,note_on,,,,,54,0,2,,,,,0,,,45,0
21294,note_on,,,,,54,0,1,,,,,0,,,93,0
21294,note_on,,,,,0,0,1,,,,,0,,,81,0
21300,note_on,,,,,0,0,1,,,,,0,,,81,62
21300,note_on,,,,,0,0,2,,,,,0,,,57,64
21300,note_on,,,,,6,0,2,,,,,0,,,54,64
21300,note_on,,,,,6,0,1,,,,,0,,,69,62
21345,set_tempo,,,,,95,1,0,,685714,,,,,,,
21357,note_on,,,,,0,0,1,,,,,0,,,69,0
21357,note_on,,,,,57,0,1,,,,,0,,,81,0
21360,note_on,,,,,0,0,2,,,,,0,,,53,60
21360,note_on,,,,,60,0,2,,,,,0,,,57,0
21360,note_on,,,,,0,0,2,,,,,0,,,54,0
21360,note_on,,,,,0,0,2,,,,,0,,,56,60
21360,note_on,,,,,3,0,1,,,,,0,,,69,56
21360,note_on,,,,,0,0,1,,,,,0,,,81,56
21400,set_tempo,,,,,55,1,0,,710059,,,,,,,
21417,note_on,,,,,0,0,1,,,,,0,,,69,0
21417,note_on,,,,,57,0,1,,,,,0,,,81,0
21420,note_on,,,,,3,0,1,,,,,0,,,69,52
21420,note_on,,,,,0,0,1,,,,,0,,,81,52
21420,note_on,,,,,0,0,2,,,,,0,,,57,56
21420,note_on,,,,,0,0,2,,,,,0,,,54,56
21420,note_on,,,,,0,0,2,,,,,0,,,53,0
21420,note_on,,,,,60,0,2,,,,,0,,,56,0
21477,note_on,,,,,57,0,1,,,,,0,,,81,0
21477,note_on,,,,,0,0,1,,,,,0,,,69,0
21480,note_on,,,,,60,0,2,,,,,0,,,57,0
21480,note_on,,,,,0,0,2,,,,,0,,,59,51
21480,note_on,,,,,0,0,2,,,,,0,,,55,51
21480,note_on,,,,,0,0,1,,,,,0,,,81,48
21480,note_on,,,,,3,0,1,,,,,0,,,69,48
21480,note_on,,,,,0,0,2,,,,,0,,,54,0
21490,set_tempo,,,,,90,1,0,,731707,,,,,,,
21537,note_on,,,,,57,0,1,,,,,0,,,81,0
21537,note_on,,,,,0,0,1,,,,,0,,,69,0
21540,note_on,,,,,3,0,1,,,,,0,,,69,45
21540,note_on,,,,,0,0,1,,,,,0,,,81,45
21540,note_on,,,,,0,0,2,,,,,0,,,55,0
21540,note_on,,,,,60,0,2,,,,,0,,,59,0
21540,note_on,,,,,0,0,2,,,,,0,,,54,48
21540,note_on,,,,,0,0,2,,,,,0,,,57,48
21580,set_tempo,,,,,90,1,0,,1008403,,,,,,,
21597,note_on,,,,,0,0,1,,,,,0,,,69,0
21597,note_on,,,,,57,0,1,,,,,0,,,81,0
21600,note_on,,,,,3,0,1,,,,,0,,,83,68
21600,set_tempo,,,,,20,1,0,,693641,,,,,,,
21600,note_on,,,,,0,0,2,,,,,0,,,54,0
21600,note_on,,,,,60,0,2,,,,,0,,,57,0
21600,note_on,,,,,0,0,1,,,,,0,,,71,68
21600,control_change,,,,,0,0,1,,,,,0,64,95,,
21600,note_on,,,,,0,0,2,,,,,0,,,45,46
21605,set_tempo,,,,,5,1,0,,689655,,,,,,,
21660,note_on,,,,,60,0,2,,,,,0,,,45,0
21690,note_on,,,,,30,0,2,,,,,0,,,59,49
21690,note_on,,,,,0,0,2,,,,,0,,,57,49
21690,note_on,,,,,0,0,2,,,,,0,,,54,49
21695,set_tempo,,,,,90,1,0,,681818,,,,,,,
21715,note_on,,,,,25,0,2,,,,,0,,,54,0
21715,note_on,,,,,0,0,2,,,,,0,,,57,0
21715,note_on,,,,,0,0,2,,,,,0,,,59,0
21720,control_change,,,,,120,0,1,,,,,0,64,0,,
21720,note_on,,,,,5,0,2,,,,,0,,,59,52
21720,note_on,,,,,0,0,2,,,,,0,,,57,52
21720,note_on,,,,,0,0,2,,,,,0,,,54,52
21770,set_tempo,,,,,75,1,0,,670391,,,,,,,
21780,note_on,,,,,0,0,1,,,,,0,,,83,0
21780,note_on,,,,,60,0,1,,,,,0,,,71,0
21780,note_on,,,,,0,0,1,,,,,0,,,83,68
21780,control_change,,,,,0,0,1,,,,,0,64,96,,
21780,note_on,,,,,0,0,1,,,,,0,,,95,68
21780,note_on,,,,,0,0,2,,,,,0,,,45,55
21780,note_on,,,,,0,0,2,,,,,0,,,59,0
21780,note_on,,,,,0,0,2,,,,,0,,,57,0
21780,note_on,,,,,60,0,2,,,,,0,,,54,0
21840,note_on,,,,,60,0,2,,,,,0,,,45,0
21870,note_on,,,,,30,0,2,,,,,0,,,59,57
21870,note_on,,,,,0,0,2,,,,,0,,,57,57
21870,note_on,,,,,0,0,2,,,,,0,,,51,57
21870,note_on,,,,,0,0,2,,,,,0,,,54,57
21885,set_tempo,,,,,115,1,0,,659340,,,,,,,
21890,set_tempo,,,,,5,1,0,,655737,,,,,,,
21895,note_on,,,,,0,0,2,,,,,0,,,59,0
21895,note_on,,,,,0,0,2,,,,,0,,,57,0
21895,note_on,,,,,0,0,2,,,,,0,,,51,0
21895,note_on,,,,,25,0,2,,,,,0,,,54,0
21900,note_on,,,,,5,0,2,,,,,0,,,59,57
21900,note_on,,,,,0,0,2,,,,,0,,,57,57
21900,note_on,,,,,0,0,2,,,,,0,,,54,57
21900,note_on,,,,,0,0,2,,,,,0,,,51,57
21902,control_change,,,,,122,0,1,,,,,0,64,0,,
21960,note_on,,,,,0,0,1,,,,,0,,,81,64
21960,note_on,,,,,0,0,1,,,,,0,,,93,64
21960,note_on,,,,,0,0,1,,,,,0,,,95,0
21960,note_on,,,,,0,0,2,,,,,0,,,54,0
21960,note_on,,,,,0,0,2,,,,,0,,,45,59
21960,note_on,,,,,0,0,2,,,,,0,,,59,0
21960,note_on,,,,,60,0,2,,,,,0,,,51,0
21960,note_on,,,,,0,0,2,,,,,0,,,57,0
21960,note_on,,,,,58,0,1,,,,,0,,,83,0
22014,note_on,,,,,54,0,1,,,,,0,,,81,0
22014,note_on,,,,,54,0,2,,,,,0,,,45,0
22014,note_on,,,,,0,0,1,,,,,0,,,93,0
22020,note_on,,,,,0,0,1,,,,,0,,,79,62
22020,note_on,,,,,6,0,2,,,,,0,,,55,56
22020,note_on,,,,,0,0,2,,,,,0,,,52,56
22020,note_on,,,,,6,0,1,,,,,0,,,91,62
22030,set_tempo,,,,,140,1,0,,652173,,,,,,,
22035,set_tempo,,,,,5,1,0,,638297,,,,,,,
22077,note_on,,,,,0,0,1,,,,,0,,,91,0
22077,note_on,,,,,57,0,1,,,,,0,,,79,0
22080,note_on,,,,,0,0,2,,,,,0,,,57,53
22080,note_on,,,,,0,0,2,,,,,0,,,55,0
22080,note_on,,,,,60,0,2,,,,,0,,,52,0
22080,note_on,,,,,0,0,1,,,,,0,,,90,58
22080,note_on,,,,,3,0,1,,,,,0,,,78,58
22080,note_on,,,,,0,0,2,,,,,0,,,54,53
22130,set_tempo,,,,,95,1,0,,648648,,,,,,,
22137,note_on,,,,,0,0,1,,,,,0,,,78,0
22137,note_on,,,,,57,0,1,,,,,0,,,90,0
22140,note_on,,,,,3,0,1,,,,,0,,,76,53
22140,note_on,,,,,0,0,1,,,,,0,,,88,53
22140,note_on,,,,,0,0,2,,,,,0,,,59,50
22140,note_on,,,,,60,0,2,,,,,0,,,54,0
22140,note_on,,,,,0,0,2,,,,,0,,,55,50
22140,note_on,,,,,0,0,2,,,,,0,,,57,0
22165,set_tempo,,,,,35,1,0,,662983,,,,,,,
22197,note_on,,,,,57,0,1,,,,,0,,,88,0
22197,note_on,,,,,0,0,1,,,,,0,,,76,0
22200,note_on,,,,,0,0,2,,,,,0,,,54,48
22200,note_on,,,,,0,0,2,,,,,0,,,57,48
22200,note_on,,,,,0,0,2,,,,,0,,,59,0
22200,note_on,,,,,60,0,2,,,,,0,,,55,0
22200,note_on,,,,,3,0,1,,,,,0,,,78,48
22200,note_on,,,,,0,0,1,,,,,0,,,90,48
22220,set_tempo,,,,,55,1,0,,681818,,,,,,,
22255,set_tempo,,,,,35,1,0,,701754,,,,,,,
22257,note_on,,,,,57,0,1,,,,,0,,,90,0
22257,note_on,,,,,0,0,1,,,,,0,,,78,0
22260,note_on,,,,,0,0,1,,,,,0,,,91,45
22260,note_on,,,,,60,0,2,,,,,0,,,54,0
22260,note_on,,,,,0,0,2,,,,,0,,,52,46
22260,note_on,,,,,0,0,2,,,,,0,,,55,46
22260,note_on,,,,,0,0,2,,,,,0,,,57,0
22260,note_on,,,,,3,0,1,,,,,0,,,79,45
22290,set_tempo,,,,,35,1,0,,693641,,,,,,,
22300,set_tempo,,,,,10,1,0,,851063,,,,,,,
22317,note_on,,,,,57,0,1,,,,,0,,,91,0
22317,note_on,,,,,0,0,1,,,,,0,,,79,0
22320,note_on,,,,,0,0,1,,,,,0,,,81,57
22320,control_change,,,,,0,0,1,,,,,0,64,95,,
22320,set_tempo,,,,,20,1,0,,655737,,,,,,,
22320,note_on,,,,,60,0,2,,,,,0,,,52,0
22320,note_on,,,,,0,0,2,,,,,0,,,55,0
22320,note_on,,,,,0,0,2,,,,,0,,,45,50
22320,note_on,,,,,3,0,1,,,,,0,,,69,57
22325,set_tempo,,,,,5,1,0,,659340,,,,,,,
22380,note_on,,,,,60,0,2,,,,,0,,,45,0
22410,note_on,,,,,0,0,2,,,,,0,,,57,49
22410,note_on,,,,,30,0,2,,,,,0,,,55,49
22410,note_on,,,,,0,0,2,,,,,0,,,52,49
22420,set_tempo,,,,,95,1,0,,648648,,,,,,,
22435,note_on,,,,,25,0,2,,,,,0,,,57,0
22435,note_on,,,,,0,0,2,,,,,0,,,52,0
22435,note_on,,,,,0,0,2,,,,,0,,,55,0
22440,note_on,,,,,5,0,2,,,,,0,,,55,52
22440,note_on,,,,,0,0,2,,,,,0,,,52,52
22440,note_on,,,,,0,0,2,,,,,0,,,57,52
22440,control_change,,,,,120,0,1,,,,,0,64,0,,
22445,set_tempo,,,,,25,1,0,,645161,,,,,,,
22450,set_tempo,,,,,5,1,0,,641711,,,,,,,
22455,set_tempo,,,,,5,1,0,,638297,,,,,,,
22500,note_on,,,,,0,0,1,,,,,0,,,93,64
22500,note_on,,,,,60,0,2,,,,,0,,,57,0
22500,note_on,,,,,0,0,2,,,,,0,,,52,0
22500,note_on,,,,,0,0,2,,,,,0,,,55,0
22500,note_on,,,,,0,0,2,,,,,0,,,45,52
22500,note_on,,,,,60,0,1,,,,,0,,,81,0
22500,control_change,,,,,0,0,1,,,,,0,64,96,,
22500,note_on,,,,,0,0,1,,,,,0,,,81,64
22500,note_on,,,,,0,0,1,,,,,0,,,69,0
22515,set_tempo,,,,,60,1,0,,628272,,,,,,,
22560,note_on,,,,,60,0,2,,,,,0,,,45,0
22575,set_tempo,,,,,60,1,0,,638297,,,,,,,
22590,note_on,,,,,0,0,2,,,,,0,,,52,47
22590,note_on,,,,,30,0,2,,,,,0,,,55,47
22590,note_on,,,,,0,0,2,,,,,0,,,57,47
22590,note_on,,,,,0,0,2,,,,,0,,,49,47
22615,note_on,,,,,25,0,2,,,,,0,,,57,0
22615,note_on,,,,,0,0,2,,,,,0,,,55,0
22615,note_on,,,,,0,0,2,,,,,0,,,52,0
22615,note_on,,,,,0,0,2,,,,,0,,,49,0
22620,note_on,,,,,0,0,2,,,,,0,,,55,46
22620,note_on,,,,,0,0,2,,,,,0,,,52,46
22620,note_on,,,,,0,0,2,,,,,0,,,49,46
22620,note_on,,,,,5,0,2,,,,,0,,,57,46
22622,control_change,,,,,122,0,1,,,,,0,64,0,,
22630,set_tempo,,,,,55,1,0,,648648,,,,,,,
22680,note_on,,,,,60,0,2,,,,,0,,,49,0
22680,note_on,,,,,0,0,2,,,,,0,,,57,0
22680,note_on,,,,,0,0,2,,,,,0,,,52,0
22680,note_on,,,,,0,0,2,,,,,0,,,45,51
22680,note_on,,,,,58,0,1,,,,,0,,,81,0
22680,note_on,,,,,0,0,2,,,,,0,,,55,0
22680,note_on,,,,,0,0,1,,,,,0,,,93,0
22680,note_on,,,,,0,0,1,,,,,0,,,91,57
22680,note_on,,,,,0,0,1,,,,,0,,,79,57
22720,set_tempo,,,,,90,1,0,,659340,,,,,,,
22734,note_on,,,,,0,0,1,,,,,0,,,91,0
22734,note_on,,,,,54,0,2,,,,,0,,,45,0
22734,note_on,,,,,54,0,1,,,,,0,,,79,0
22740,note_on,,,,,6,0,2,,,,,0,,,54,48
22740,note_on,,,,,0,0,2,,,,,0,,,50,48
22740,note_on,,,,,6,0,1,,,,,0,,,78,55
22740,note_on,,,,,0,0,1,,,,,0,,,90,55
22797,note_on,,,,,57,0,1,,,,,0,,,90,0
22797,note_on,,,,,0,0,1,,,,,0,,,78,0
22800,note_on,,,,,0,0,2,,,,,0,,,52,46
22800,note_on,,,,,0,0,2,,,,,0,,,55,46
22800,note_on,,,,,3,0,1,,,,,0,,,88,51
22800,note_on,,,,,0,0,1,,,,,0,,,76,51
22800,note_on,,,,,0,0,2,,,,,0,,,54,0
22800,note_on,,,,,60,0,2,,,,,0,,,50,0
22830,set_tempo,,,,,110,1,0,,677966,,,,,,,
22857,note_on,,,,,57,0,1,,,,,0,,,76,0
22857,note_on,,,,,0,0,1,,,,,0,,,88,0
22860,note_on,,,,,0,0,2,,,,,0,,,57,42
22860,note_on,,,,,0,0,2,,,,,0,,,55,0
22860,note_on,,,,,60,0,2,,,,,0,,,52,0
22860,note_on,,,,,0,0,2,,,,,0,,,54,42
22860,note_on,,,,,0,0,1,,,,,0,,,86,47
22860,note_on,,,,,3,0,1,,,,,0,,,74,47
22917,note_on,,,,,57,0,1,,,,,0,,,86,0
22917,note_on,,,,,0,0,1,,,,,0,,,74,0
22920,note_on,,,,,3,0,1,,,,,0,,,88,43
22920,note_on,,,,,0,0,1,,,,,0,,,76,43
22920,note_on,,,,,60,0,2,,,,,0,,,54,0
22920,note_on,,,,,0,0,2,,,,,0,,,52,38
22920,note_on,,,,,0,0,2,,,,,0,,,55,38
22920,note_on,,,,,0,0,2,,,,,0,,,57,0
22925,set_tempo,,,,,95,1,0,,697674,,,,,,,
22977,note_on,,,,,0,0,1,,,,,0,,,88,0
22977,note_on,,,,,57,0,1,,,,,0,,,76,0
22980,note_on,,,,,0,0,2,,,,,0,,,55,0
22980,note_on,,,,,0,0,2,,,,,0,,,54,34
22980,note_on,,,,,0,0,2,,,,,0,,,50,34
22980,note_on,,,,,0,0,1,,,,,0,,,90,42
22980,note_on,,,,,3,0,1,,,,,0,,,78,42
22980,note_on,,,,,60,0,2,,,,,0,,,52,0
23010,set_tempo,,,,,85,1,0,,705882,,,,,,,
23030,set_tempo,,,,,20,1,0,,710059,,,,,,,
23037,note_on,,,,,0,0,1,,,,,0,,,78,0
23037,note_on,,,,,57,0,1,,,,,0,,,90,0
23040,set_tempo,,,,,10,1,0,,670391,,,,,,,
23040,note_on,,,,,0,0,2,,,,,0,,,54,0
23040,note_on,,,,,0,0,2,,,,,0,,,45,37
23040,note_on,,,,,3,0,1,,,,,0,,,66,50
23040,note_on,,,,,0,0,1,,,,,0,,,78,50
23040,note_on,,,,,60,0,2,,,,,0,,,50,0
23040,control_change,,,,,0,0,1,,,,,0,64,96,,
23100,note_on,,,,,60,0,2,,,,,0,,,45,0
23120,set_tempo,,,,,80,1,0,,659340,,,,,,,
23130,note_on,,,,,30,0,2,,,,,0,,,54,39
23130,note_on,,,,,0,0,2,,,,,0,,,50,39
23155,note_on,,,,,25,0,2,,,,,0,,,50,0
23155,note_on,,,,,0,0,2,,,,,0,,,54,0
23158,control_change,,,,,118,0,1,,,,,0,64,0,,
23160,note_on,,,,,5,0,2,,,,,0,,,54,41
23160,note_on,,,,,0,0,2,,,,,0,,,50,41
23175,set_tempo,,,,,55,1,0,,648648,,,,,,,
23220,note_on,,,,,62,0,1,,,,,0,,,78,0
23220,note_on,,,,,0,0,1,,,,,0,,,67,57
23220,note_on,,,,,0,0,1,,,,,0,,,66,0
23220,note_on,,,,,0,0,1,,,,,0,,,79,57
23220,note_on,,,,,0,0,2,,,,,0,,,54,0
23220,note_on,,,,,60,0,2,,,,,0,,,50,0
23220,note_on,,,,,0,0,2,,,,,0,,,45,43
23220,control_change,,,,,0,0,1,,,,,0,64,95,,
23235,set_tempo,,,,,60,1,0,,621761,,,,,,,
23280,note_on,,,,,60,0,2,,,,,0,,,45,0
23310,note_on,,,,,30,0,2,,,,,0,,,55,46
23310,note_on,,,,,0,0,2,,,,,0,,,52,46
23335,note_on,,,,,25,0,2,,,,,0,,,52,0
23335,note_on,,,,,0,0,2,,,,,0,,,55,0
23340,note_on,,,,,5,0,2,,,,,0,,,55,48
23340,note_on,,,,,0,0,2,,,,,0,,,52,48
23340,control_change,,,,,120,0,1,,,,,0,64,0,,
23395,set_tempo,,,,,160,1,0,,625000,,,,,,,
23400,note_on,,,,,60,0,2,,,,,0,,,52,0
23400,note_on,,,,,0,0,2,,,,,0,,,55,0
23400,note_on,,,,,0,0,2,,,,,0,,,45,51
23400,note_on,,,,,60,0,1,,,,,0,,,67,0
23400,note_on,,,,,0,0,1,,,,,0,,,79,0
23400,note_on,,,,,0,0,1,,,,,0,,,80,62
23400,note_on,,,,,0,0,1,,,,,0,,,68,62
23454,note_on,,,,,54,0,2,,,,,0,,,45,0
23460,note_on,,,,,60,0,1,,,,,0,,,80,0
23460,note_on,,,,,0,0,1,,,,,0,,,68,0
23460,note_on,,,,,0,0,1,,,,,0,,,71,54
23460,note_on,,,,,0,0,1,,,,,0,,,83,54
23460,note_on,,,,,0,0,2,,,,,0,,,56,47
23460,note_on,,,,,6,0,2,,,,,0,,,53,47
23470,set_tempo,,,,,75,1,0,,638297,,,,,,,
23517,note_on,,,,,0,0,1,,,,,0,,,71,0
23517,note_on,,,,,57,0,1,,,,,0,,,83,0
23520,note_on,,,,,0,0,2,,,,,0,,,53,0
23520,note_on,,,,,0,0,2,,,,,0,,,54,42
23520,note_on,,,,,3,0,1,,,,,0,,,69,52
23520,note_on,,,,,0,0,1,,,,,0,,,81,52
23520,note_on,,,,,0,0,2,,,,,0,,,57,42
23520,note_on,,,,,60,0,2,,,,,0,,,56,0
23575,note_on,,,,,55,0,2,,,,,0,,,57,0
23575,note_on,,,,,0,0,2,,,,,0,,,54,0
23575,note_on,,,,,55,0,1,,,,,0,,,81,0
23575,note_on,,,,,0,0,1,,,,,0,,,69,0
23580,note_on,,,,,5,0,2,,,,,0,,,54,37
23580,note_on,,,,,0,0,1,,,,,0,,,81,45
23580,note_on,,,,,0,0,2,,,,,0,,,57,37
23580,note_on,,,,,5,0,1,,,,,0,,,69,45
23585,set_tempo,,,,,115,1,0,,648648,,,,,,,
23632,note_on,,,,,0,0,1,,,,,0,,,69,0
23632,note_on,,,,,52,0,2,,,,,0,,,57,0
23632,note_on,,,,,0,0,2,,,,,0,,,54,0
23632,note_on,,,,,52,0,1,,,,,0,,,81,0
23640,note_on,,,,,0,0,2,,,,,0,,,57,34
23640,note_on,,,,,8,0,1,,,,,0,,,69,41
23640,note_on,,,,,0,0,1,,,,,0,,,81,41
23640,note_on,,,,,8,0,2,,,,,0,,,54,34
23655,set_tempo,,,,,70,1,0,,666666,,,,,,,
23692,note_on,,,,,52,0,2,,,,,0,,,57,0
23692,note_on,,,,,52,0,1,,,,,0,,,81,0
23692,note_on,,,,,0,0,1,,,,,0,,,69,0
23692,note_on,,,,,0,0,2,,,,,0,,,54,0
23700,note_on,,,,,8,0,2,,,,,0,,,54,32
23700,note_on,,,,,8,0,1,,,,,0,,,69,38
23700,note_on,,,,,0,0,1,,,,,0,,,81,38
23700,note_on,,,,,0,0,2,,,,,0,,,57,32
23752,note_on,,,,,52,0,2,,,,,0,,,57,0
23752,note_on,,,,,0,0,2,,,,,0,,,54,0
23752,note_on,,,,,52,0,1,,,,,0,,,81,0
23752,note_on,,,,,0,0,1,,,,,0,,,69,0
23760,note_on,,,,,8,0,2,,,,,0,,,45,54
23760,note_on,,,,,8,0,1,,,,,0,,,71,66
23760,note_on,,,,,0,0,1,,,,,0,,,83,66
23760,control_change,,,,,0,0,1,,,,,0,64,96,,
23820,note_on,,,,,60,0,2,,,,,0,,,45,0
23850,note_on,,,,,30,0,2,,,,,0,,,55,50
23850,note_on,,,,,0,0,2,,,,,0,,,59,50
23865,set_tempo,,,,,210,1,0,,652173,,,,,,,
23875,note_on,,,,,25,0,2,,,,,0,,,59,0
23875,note_on,,,,,0,0,2,,,,,0,,,55,0
23878,control_change,,,,,118,0,1,,,,,0,64,0,,
23880,note_on,,,,,5,0,2,,,,,0,,,55,50
23880,note_on,,,,,0,0,2,,,,,0,,,59,50
23940,note_on,,,,,0,0,1,,,,,0,,,71,0
23940,note_on,,,,,60,0,2,,,,,0,,,59,0
23940,note_on,,,,,62,0,1,,,,,0,,,83,0
23940,note_on,,,,,0,0,2,,,,,0,,,45,53
23940,control_change,,,,,0,0,1,,,,,0,64,95,,
23940,note_on,,,,,0,0,2,,,,,0,,,55,0
23940,note_on,,,,,0,0,1,,,,,0,,,73,69
23940,note_on,,,,,0,0,1,,,,,0,,,85,69
23965,set_tempo,,,,,100,1,0,,631578,,,,,,,
24000,note_on,,,,,60,0,2,,,,,0,,,45,0
24030,note_on,,,,,30,0,2,,,,,0,,,61,53
24030,note_on,,,,,0,0,2,,,,,0,,,52,53
24055,note_on,,,,,25,0,2,,,,,0,,,52,0
24055,note_on,,,,,0,0,2,,,,,0,,,61,0
24060,note_on,,,,,5,0,2,,,,,0,,,61,53
24060,control_change,,,,,120,0,1,,,,,0,64,0,,
24060,note_on,,,,,0,0,2,,,,,0,,,52,53
24075,set_tempo,,,,,110,1,0,,625000,,,,,,,
24120,note_on,,,,,0,0,1,,,,,0,,,73,0
24120,note_on,,,,,60,0,2,,,,,0,,,52,0
24120,note_on,,,,,0,0,2,,,,,0,,,61,0
24120,note_on,,,,,0,0,2,,,,,0,,,45,50
24120,note_on,,,,,60,0,1,,,,,0,,,85,0
24120,note_on,,,,,0,0,1,,,,,0,,,73,71
24120,note_on,,,,,0,0,1,,,,,0,,,85,71
24174,note_on,,,,,54,0,2,,,,,0,,,45,0
24180,note_on,,,,,0,0,1,,,,,0,,,76,60
24180,note_on,,,,,0,0,1,,,,,0,,,73,0
24180,note_on,,,,,6,0,2,,,,,0,,,52,47
24180,note_on,,,,,0,0,2,,,,,0,,,61,47
24180,note_on,,,,,0,0,1,,,,,0,,,88,60
24180,note_on,,,,,60,0,1,,,,,0,,,85,0
24210,set_tempo,,,,,135,1,0,,638297,,,,,,,
24215,set_tempo,,,,,5,1,0,,641711,,,,,,,
24237,note_on,,,,,0,0,1,,,,,0,,,76,0
24237,note_on,,,,,57,0,1,,,,,0,,,88,0
24240,note_on,,,,,0,0,1,,,,,0,,,86,56
24240,note_on,,,,,60,0,2,,,,,0,,,61,0
24240,note_on,,,,,0,0,2,,,,,0,,,52,0
24240,note_on,,,,,3,0,1,,,,,0,,,74,56
24240,note_on,,,,,0,0,2,,,,,0,,,54,44
24240,note_on,,,,,0,0,2,,,,,0,,,62,44
24295,set_tempo,,,,,80,1,0,,659340,,,,,,,
24295,note_on,,,,,55,0,2,,,,,0,,,54,0
24295,note_on,,,,,0,0,2,,,,,0,,,62,0
24295,note_on,,,,,0,0,1,,,,,0,,,74,0
24295,note_on,,,,,55,0,1,,,,,0,,,86,0
24300,note_on,,,,,0,0,2,,,,,0,,,54,40
24300,note_on,,,,,0,0,1,,,,,0,,,86,52
24300,note_on,,,,,5,0,1,,,,,0,,,74,52
24300,note_on,,,,,5,0,2,,,,,0,,,62,40
24352,note_on,,,,,52,0,1,,,,,0,,,86,0
24352,note_on,,,,,0,0,1,,,,,0,,,74,0
24352,note_on,,,,,52,0,2,,,,,0,,,54,0
24352,note_on,,,,,0,0,2,,,,,0,,,62,0
24360,note_on,,,,,8,0,2,,,,,0,,,62,34
24360,note_on,,,,,8,0,1,,,,,0,,,74,49
24360,note_on,,,,,0,0,2,,,,,0,,,54,34
24360,note_on,,,,,0,0,1,,,,,0,,,86,49
24405,set_tempo,,,,,110,1,0,,674157,,,,,,,
24412,note_on,,,,,0,0,1,,,,,0,,,74,0
24412,note_on,,,,,0,0,2,,,,,0,,,62,0
24412,note_on,,,,,52,0,2,,,,,0,,,54,0
24412,note_on,,,,,52,0,1,,,,,0,,,86,0
24420,note_on,,,,,8,0,1,,,,,0,,,74,44
24420,note_on,,,,,0,0,1,,,,,0,,,86,44
24420,note_on,,,,,8,0,2,,,,,0,,,62,30
24420,note_on,,,,,0,0,2,,,,,0,,,54,30
24472,note_on,,,,,52,0,2,,,,,0,,,54,0
24472,note_on,,,,,52,0,1,,,,,0,,,86,0
24472,note_on,,,,,0,0,1,,,,,0,,,74,0
24472,note_on,,,,,0,0,2,,,,,0,,,62,0
24480,note_on,,,,,8,0,2,,,,,0,,,45,45
24480,note_on,,,,,8,0,1,,,,,0,,,76,64
24480,note_on,,,,,0,0,1,,,,,0,,,88,64
24480,control_change,,,,,0,0,1,,,,,0,64,96,,
24500,set_tempo,,,,,95,1,0,,666666,,,,,,,
24540,note_on,,,,,60,0,2,,,,,0,,,45,0
24540,set_tempo,,,,,40,1,0,,662983,,,,,,,
24570,note_on,,,,,30,0,2,,,,,0,,,64,39
24570,note_on,,,,,0,0,2,,,,,0,,,55,39
24595,set_tempo,,,,,55,1,0,,641711,,,,,,,
24595,note_on,,,,,25,0,2,,,,,0,,,55,0
24595,note_on,,,,,0,0,2,,,,,0,,,64,0
24598,control_change,,,,,118,0,1,,,,,0,64,0,,
24600,note_on,,,,,5,0,2,,,,,0,,,64,41
24600,note_on,,,,,0,0,2,,,,,0,,,55,41
24650,set_tempo,,,,,55,1,0,,628272,,,,,,,
24660,note_on,,,,,60,0,2,,,,,0,,,55,0
24660,note_on,,,,,0,0,2,,,,,0,,,64,0
24660,note_on,,,,,62,0,1,,,,,0,,,88,0
24660,note_on,,,,,0,0,1,,,,,0,,,76,0
24660,note_on,,,,,0,0,1,,,,,0,,,78,64
24660,control_change,,,,,0,0,1,,,,,0,64,95,,
24660,note_on,,,,,0,0,1,,,,,0,,,90,64
24660,note_on,,,,,0,0,2,,,,,0,,,45,43
24720,note_on,,,,,60,0,2,,,,,0,,,45,0
24750,note_on,,,,,0,0,2,,,,,0,,,57,46
24750,note_on,,,,,30,0,2,,,,,0,,,66,46
24775,note_on,,,,,0,0,2,,,,,0,,,66,0
24775,note_on,,,,,25,0,2,,,,,0,,,57,0
24780,control_change,,,,,120,0,1,,,,,0,64,0,,
24780,note_on,,,,,0,0,2,,,,,0,,,57,48
24780,note_on,,,,,5,0,2,,,,,0,,,66,48
24820,set_tempo,,,,,170,1,0,,638297,,,,,,,
24840,note_on,,,,,60,0,1,,,,,0,,,90,0
24840,note_on,,,,,0,0,1,,,,,0,,,78,0
24840,note_on,,,,,0,0,1,,,,,0,,,85,62
24840,note_on,,,,,0,0,2,,,,,0,,,45,51
24840,note_on,,,,,0,0,2,,,,,0,,,66,0
24840,note_on,,,,,60,0,2,,,,,0,,,57,0
24840,note_on,,,,,0,0,1,,,,,0,,,73,62
24885,set_tempo,,,,,65,1,0,,648648,,,,,,,
24894,note_on,,,,,54,0,2,,,,,0,,,45,0
24900,note_on,,,,,0,0,1,,,,,0,,,88,59
24900,note_on,,,,,60,0,1,,,,,0,,,85,0
24900,note_on,,,,,0,0,2,,,,,0,,,61,51
24900,note_on,,,,,6,0,2,,,,,0,,,52,51
24900,note_on,,,,,0,0,1,,,,,0,,,73,0
24900,note_on,,,,,0,0,1,,,,,0,,,76,59
24930,set_tempo,,,,,45,1,0,,666666,,,,,,,
24957,note_on,,,,,0,0,1,,,,,0,,,76,0
24957,note_on,,,,,57,0,1,,,,,0,,,88,0
24960,note_on,,,,,60,0,2,,,,,0,,,61,0
24960,note_on,,,,,0,0,2,,,,,0,,,54,46
24960,note_on,,,,,0,0,2,,,,,0,,,52,0
24960,note_on,,,,,3,0,1,,,,,0,,,74,52
24960,note_on,,,,,0,0,1,,,,,0,,,86,52
24960,note_on,,,,,0,0,2,,,,,0,,,62,46
25015,note_on,,,,,0,0,1,,,,,0,,,74,0
25015,note_on,,,,,55,0,1,,,,,0,,,86,0
25015,note_on,,,,,55,0,2,,,,,0,,,54,0
25015,note_on,,,,,0,0,2,,,,,0,,,62,0
25020,note_on,,,,,0,0,1,,,,,0,,,86,46
25020,note_on,,,,,5,0,1,,,,,0,,,74,46
25020,note_on,,,,,5,0,2,,,,,0,,,62,43
25020,note_on,,,,,0,0,2,,,,,0,,,54,43
25060,set_tempo,,,,,130,1,0,,677966,,,,,,,
25065,set_tempo,,,,,5,1,0,,685714,,,,,,,
25072,note_on,,,,,52,0,2,,,,,0,,,54,0
25072,note_on,,,,,0,0,1,,,,,0,,,74,0
25072,note_on,,,,,52,0,1,,,,,0,,,86,0
25072,note_on,,,,,0,0,2,,,,,0,,,62,0
25080,note_on,,,,,8,0,2,,,,,0,,,62,35
25080,note_on,,,,,0,0,2,,,,,0,,,54,35
25080,note_on,,,,,8,0,1,,,,,0,,,74,41
25080,note_on,,,,,0,0,1,,,,,0,,,86,41
25125,set_tempo,,,,,60,1,0,,705882,,,,,,,
25132,note_on,,,,,0,0,2,,,,,0,,,62,0
25132,note_on,,,,,52,0,2,,,,,0,,,54,0
25132,note_on,,,,,0,0,1,,,,,0,,,74,0
25132,note_on,,,,,52,0,1,,,,,0,,,86,0
25140,note_on,,,,,8,0,2,,,,,0,,,62,31
25140,note_on,,,,,0,0,1,,,,,0,,,86,35
25140,note_on,,,,,8,0,1,,,,,0,,,74,35
25140,note_on,,,,,0,0,2,,,,,0,,,54,31
25192,note_on,,,,,52,0,2,,,,,0,,,54,0
25192,note_on,,,,,52,0,1,,,,,0,,,86,0
25192,note_on,,,,,0,0,1,,,,,0,,,74,0
25192,note_on,,,,,0,0,2,,,,,0,,,62,0
25200,note_on,,,,,8,0,2,,,,,0,,,45,41
25200,note_on,,,,,8,0,1,,,,,0,,,83,52
25200,control_change,,,,,0,0,1,,,,,0,64,96,,
25200,note_on,,,,,0,0,1,,,,,0,,,95,52
25210,set_tempo,,,,,85,1,0,,681818,,,,,,,
25260,set_tempo,,,,,50,1,0,,666666,,,,,,,
25260,note_on,,,,,60,0,2,,,,,0,,,45,0
25290,note_on,,,,,0,0,2,,,,,0,,,55,37
25290,note_on,,,,,30,0,2,,,,,0,,,64,37
25315,note_on,,,,,0,0,2,,,,,0,,,64,0
25315,note_on,,,,,25,0,2,,,,,0,,,55,0
25318,control_change,,,,,118,0,1,,,,,0,64,0,,
25320,note_on,,,,,5,0,2,,,,,0,,,64,39
25320,note_on,,,,,0,0,2,,,,,0,,,55,39
25360,set_tempo,,,,,100,1,0,,652173,,,,,,,
25380,note_on,,,,,60,0,2,,,,,0,,,55,0
25380,note_on,,,,,0,0,1,,,,,0,,,83,0
25380,note_on,,,,,62,0,1,,,,,0,,,95,0
25380,note_on,,,,,0,0,2,,,,,0,,,64,0
25380,control_change,,,,,0,0,1,,,,,0,64,95,,
25380,note_on,,,,,0,0,1,,,,,0,,,73,58
25380,note_on,,,,,0,0,2,,,,,0,,,45,42
25380,note_on,,,,,0,0,1,,,,,0,,,85,58
25440,note_on,,,,,60,0,2,,,,,0,,,45,0
25455,set_tempo,,,,,95,1,0,,648648,,,,,,,
25460,set_tempo,,,,,5,1,0,,645161,,,,,,,
25470,note_on,,,,,30,0,2,,,,,0,,,57,37
25470,note_on,,,,,0,0,2,,,,,0,,,66,37
25495,note_on,,,,,25,0,2,,,,,0,,,66,0
25495,note_on,,,,,0,0,2,,,,,0,,,57,0
25500,note_on,,,,,5,0,2,,,,,0,,,57,38
25500,note_on,,,,,0,0,2,,,,,0,,,66,38
25500,control_change,,,,,120,0,1,,,,,0,64,0,,
25535,set_tempo,,,,,75,1,0,,655737,,,,,,,
25560,note_on,,,,,0,0,1,,,,,0,,,73,59
25560,note_on,,,,,0,0,1,,,,,0,,,73,0
25560,note_on,,,,,60,0,1,,,,,0,,,85,0
25560,note_on,,,,,0,0,1,,,,,0,,,85,59
25560,note_on,,,,,60,0,2,,,,,0,,,66,0
25560,note_on,,,,,0,0,2,,,,,0,,,57,0
25560,note_on,,,,,0,0,2,,,,,0,,,38,42
25585,set_tempo,,,,,50,1,0,,693641,,,,,,,
25614,note_on,,,,,54,0,2,,,,,0,,,38,0
25620,note_on,,,,,6,0,2,,,,,0,,,52,41
25620,note_on,,,,,60,0,1,,,,,0,,,85,0
25620,note_on,,,,,0,0,2,,,,,0,,,61,41
25620,note_on,,,,,0,0,1,,,,,0,,,88,54
25620,note_on,,,,,0,0,1,,,,,0,,,76,54
25620,note_on,,,,,0,0,1,,,,,0,,,73,0
25645,set_tempo,,,,,60,1,0,,718562,,,,,,,
25677,note_on,,,,,0,0,1,,,,,0,,,76,0
25677,note_on,,,,,57,0,1,,,,,0,,,88,0
25680,note_on,,,,,0,0,2,,,,,0,,,54,35
25680,note_on,,,,,0,0,2,,,,,0,,,62,35
25680,note_on,,,,,3,0,1,,,,,0,,,74,48
25680,note_on,,,,,0,0,1,,,,,0,,,86,48
25680,note_on,,,,,60,0,2,,,,,0,,,61,0
25680,note_on,,,,,0,0,2,,,,,0,,,52,0
25710,set_tempo,,,,,65,1,0,,736196,,,,,,,
25735,note_on,,,,,55,0,1,,,,,0,,,86,0
25735,note_on,,,,,0,0,2,,,,,0,,,62,0
25735,note_on,,,,,0,0,1,,,,,0,,,74,0
25735,note_on,,,,,55,0,2,,,,,0,,,54,0
25740,note_on,,,,,5,0,1,,,,,0,,,74,45
25740,note_on,,,,,0,0,1,,,,,0,,,86,45
25740,note_on,,,,,5,0,2,,,,,0,,,62,33
25740,note_on,,,,,0,0,2,,,,,0,,,54,33
25792,note_on,,,,,52,0,2,,,,,0,,,54,0
25792,note_on,,,,,52,0,1,,,,,0,,,86,0
25792,note_on,,,,,0,0,1,,,,,0,,,74,0
25792,note_on,,,,,0,0,2,,,,,0,,,62,0
25800,note_on,,,,,0,0,2,,,,,0,,,54,30
25800,note_on,,,,,8,0,2,,,,,0,,,62,30
25800,note_on,,,,,8,0,1,,,,,0,,,74,39
25800,note_on,,,,,0,0,1,,,,,0,,,86,39
25805,set_tempo,,,,,95,1,0,,769230,,,,,,,
25852,note_on,,,,,52,0,1,,,,,0,,,86,0
25852,note_on,,,,,0,0,1,,,,,0,,,74,0
25852,note_on,,,,,52,0,2,,,,,0,,,54,0
25852,note_on,,,,,0,0,2,,,,,0,,,62,0
25860,note_on,,,,,0,0,1,,,,,0,,,86,34
25860,note_on,,,,,8,0,1,,,,,0,,,74,34
25860,note_on,,,,,8,0,2,,,,,0,,,62,28
25860,note_on,,,,,0,0,2,,,,,0,,,54,28
25865,set_tempo,,,,,60,1,0,,800000,,,,,,,
25875,set_tempo,,,,,10,1,0,,805369,,,,,,,
25900,set_tempo,,,,,25,1,0,,839160,,,,,,,
25910,set_tempo,,,,,10,1,0,,685714,,,,,,,
25912,note_on,,,,,52,0,1,,,,,0,,,86,0
25912,note_on,,,,,0,0,1,,,,,0,,,74,0
25912,note_on,,,,,0,0,2,,,,,0,,,62,0
25912,note_on,,,,,52,0,2,,,,,0,,,54,0
25920,control_change,,,,,0,0,1,,,,,0,64,96,,
25920,note_on,,,,,8,0,1,,,,,0,,,73,51
25920,note_on,,,,,8,0,2,,,,,0,,,57,51
25950,note_on,,,,,30,0,1,,,,,0,,,73,0
25950,note_on,,,,,0,0,1,,,,,0,,,81,46
25980,note_on,,,,,30,0,1,,,,,0,,,81,0
25980,note_on,,,,,60,0,2,,,,,0,,,64,43
25980,note_on,,,,,0,0,2,,,,,0,,,67,43
25980,note_on,,,,,0,0,1,,,,,0,,,80,42
26010,note_on,,,,,0,0,1,,,,,0,,,81,38
26010,note_on,,,,,30,0,1,,,,,0,,,80,0
26020,set_tempo,,,,,110,1,0,,685714,,,,,,,
26025,set_tempo,,,,,5,1,0,,685714,,,,,,,
26040,note_on,,,,,0,0,1,,,,,0,,,73,38
26040,note_on,,,,,30,0,1,,,,,0,,,81,0
26070,note_on,,,,,0,0,1,,,,,0,,,81,44
26070,note_on,,,,,30,0,1,,,,,0,,,73,0
26070,note_on,,,,,0,0,2,,,,,0,,,64,0
26070,note_on,,,,,90,0,2,,,,,0,,,67,0
26075,set_tempo,,,,,50,1,0,,670391,,,,,,,
26085,note_on,,,,,15,0,2,,,,,0,,,57,0
26095,control_change,,,,,25,0,1,,,,,0,64,0,,
26100,control_change,,,,,0,0,1,,,,,0,64,97,,
26100,note_on,,,,,15,0,2,,,,,0,,,57,51
26100,note_on,,,,,5,0,1,,,,,0,,,81,0
26100,note_on,,,,,0,0,1,,,,,0,,,71,51
26130,note_on,,,,,0,0,1,,,,,0,,,81,47
26130,note_on,,,,,30,0,1,,,,,0,,,71,0
26145,set_tempo,,,,,70,1,0,,662983,,,,,,,
26160,note_on,,,,,30,0,1,,,,,0,,,81,0
26160,note_on,,,,,0,0,1,,,,,0,,,80,40
26160,note_on,,,,,0,0,2,,,,,0,,,62,43
26160,note_on,,,,,60,0,2,,,,,0,,,66,43
26170,set_tempo,,,,,25,1,0,,662983,,,,,,,
26190,note_on,,,,,0,0,1,,,,,0,,,81,45
26190,note_on,,,,,30,0,1,,,,,0,,,80,0
26220,note_on,,,,,30,0,1,,,,,0,,,81,0
26220,note_on,,,,,0,0,1,,,,,0,,,71,47
26220,set_tempo,,,,,50,1,0,,648648,,,,,,,
26250,note_on,,,,,30,0,1,,,,,0,,,71,0
26250,note_on,,,,,0,0,1,,,,,0,,,81,54
26250,note_on,,,,,0,0,2,,,,,0,,,66,0
26250,note_on,,,,,90,0,2,,,,,0,,,62,0
26265,note_on,,,,,15,0,2,,,,,0,,,57,0
26275,control_change,,,,,25,0,1,,,,,0,64,0,,
26280,control_change,,,,,0,0,1,,,,,0,64,95,,
26280,note_on,,,,,0,0,1,,,,,0,,,69,59
26280,note_on,,,,,5,0,1,,,,,0,,,81,0
26280,note_on,,,,,15,0,2,,,,,0,,,57,51
26290,set_tempo,,,,,70,1,0,,645161,,,,,,,
26310,note_on,,,,,0,0,1,,,,,0,,,71,53
26310,note_on,,,,,30,0,1,,,,,0,,,69,0
26340,note_on,,,,,0,0,1,,,,,0,,,73,55
26340,note_on,,,,,30,0,1,,,,,0,,,71,0
26340,note_on,,,,,0,0,2,,,,,0,,,64,43
26340,note_on,,,,,60,0,2,,,,,0,,,61,43
26370,note_on,,,,,0,0,1,,,,,0,,,74,57
26370,note_on,,,,,30,0,1,,,,,0,,,73,0
26385,set_tempo,,,,,95,1,0,,634920,,,,,,,
26400,note_on,,,,,0,0,2,,,,,0,,,59,47
26400,note_on,,,,,0,0,1,,,,,0,,,76,59
26400,note_on,,,,,0,0,2,,,,,0,,,62,47
26400,note_on,,,,,0,0,2,,,,,0,,,61,0
26400,note_on,,,,,60,0,2,,,,,0,,,64,0
26400,note_on,,,,,30,0,1,,,,,0,,,74,0
26430,note_on,,,,,30,0,1,,,,,0,,,76,0
26430,note_on,,,,,0,0,1,,,,,0,,,74,61
26435,set_tempo,,,,,50,1,0,,618556,,,,,,,
26455,control_change,,,,,25,0,1,,,,,0,64,0,,
26460,note_on,,,,,5,0,1,,,,,0,,,74,0
26460,note_on,,,,,0,0,2,,,,,0,,,59,0
26460,note_on,,,,,60,0,2,,,,,0,,,62,0
26460,note_on,,,,,0,0,1,,,,,0,,,73,66
26460,note_on,,,,,0,0,2,,,,,0,,,61,53
26460,note_on,,,,,0,0,2,,,,,0,,,64,53
26490,note_on,,,,,0,0,1,,,,,0,,,74,63
26490,note_on,,,,,30,0,1,,,,,0,,,73,0
26500,set_tempo,,,,,65,1,0,,638297,,,,,,,
26520,note_on,,,,,60,0,2,,,,,0,,,64,0
26520,set_tempo,,,,,20,1,0,,666666,,,,,,,
26520,note_on,,,,,0,0,1,,,,,0,,,76,66
26520,note_on,,,,,30,0,1,,,,,0,,,74,0
26520,note_on,,,,,0,0,2,,,,,0,,,61,0
26520,note_on,,,,,0,0,2,,,,,0,,,66,51
26520,note_on,,,,,0,0,2,,,,,0,,,62,51
26550,note_on,,,,,30,0,1,,,,,0,,,76,0
26550,note_on,,,,,0,0,1,,,,,0,,,78,61
26575,set_tempo,,,,,55,1,0,,701754,,,,,,,
26580,note_on,,,,,30,0,1,,,,,0,,,78,0
26580,note_on,,,,,60,0,2,,,,,0,,,66,0
26580,note_on,,,,,0,0,2,,,,,0,,,62,0
26580,note_on,,,,,0,0,2,,,,,0,,,64,47
26580,note_on,,,,,0,0,2,,,,,0,,,67,47
26580,note_on,,,,,0,0,1,,,,,0,,,79,56
26610,note_on,,,,,0,0,1,,,,,0,,,81,53
26610,note_on,,,,,30,0,1,,,,,0,,,79,0
26620,set_tempo,,,,,45,1,0,,710059,,,,,,,
26630,set_tempo,,,,,10,1,0,,1008403,,,,,,,
26634,note_on,,,,,24,0,1,,,,,0,,,81,0
26634,note_on,,,,,54,0,2,,,,,0,,,67,0
26634,note_on,,,,,0,0,2,,,,,0,,,64,0
26640,note_on,,,,,0,0,2,,,,,0,,,57,51
26640,note_on,,,,,6,0,2,,,,,0,,,57,0
26640,note_on,,,,,6,0,1,,,,,0,,,78,60
26640,control_change,,,,,0,0,1,,,,,0,64,96,,
26640,set_tempo,,,,,10,1,0,,693641,,,,,,,
26670,note_on,,,,,0,0,1,,,,,0,,,86,56
26670,note_on,,,,,30,0,1,,,,,0,,,78,0
26690,set_tempo,,,,,50,1,0,,670391,,,,,,,
26700,note_on,,,,,30,0,1,,,,,0,,,86,0
26700,note_on,,,,,0,0,1,,,,,0,,,85,50
26700,note_on,,,,,60,0,2,,,,,0,,,66,44
26700,note_on,,,,,0,0,2,,,,,0,,,62,44
26730,note_on,,,,,0,0,1,,,,,0,,,86,49
26730,note_on,,,,,30,0,1,,,,,0,,,85,0
26755,set_tempo,,,,,65,1,0,,666666,,,,,,,
26760,note_on,,,,,0,0,1,,,,,0,,,78,49
26760,note_on,,,,,30,0,1,,,,,0,,,86,0
26760,set_tempo,,,,,5,1,0,,648648,,,,,,,
26790,note_on,,,,,0,0,2,,,,,0,,,66,0
26790,note_on,,,,,0,0,1,,,,,0,,,86,49
26790,note_on,,,,,30,0,1,,,,,0,,,78,0
26790,note_on,,,,,90,0,2,,,,,0,,,62,0
26805,note_on,,,,,15,0,2,,,,,0,,,57,0
26815,control_change,,,,,25,0,1,,,,,0,64,0,,
26820,control_change,,,,,0,0,1,,,,,0,64,96,,
26820,note_on,,,,,5,0,1,,,,,0,,,86,0
26820,note_on,,,,,0,0,1,,,,,0,,,79,58
26820,note_on,,,,,15,0,2,,,,,0,,,57,51
26850,note_on,,,,,0,0,1,,,,,0,,,86,53
26850,note_on,,,,,30,0,1,,,,,0,,,79,0
26880,note_on,,,,,0,0,2,,,,,0,,,64,42
26880,note_on,,,,,60,0,2,,,,,0,,,67,42
26880,note_on,,,,,0,0,1,,,,,0,,,85,50
26880,note_on,,,,,30,0,1,,,,,0,,,86,0
26910,note_on,,,,,0,0,1,,,,,0,,,86,48
26910,set_tempo,,,,,150,1,0,,638297,,,,,,,
26910,note_on,,,,,30,0,1,,,,,0,,,85,0
26940,note_on,,,,,0,0,1,,,,,0,,,79,52
26940,note_on,,,,,30,0,1,,,,,0,,,86,0
26970,note_on,,,,,30,0,1,,,,,0,,,79,0
26970,note_on,,,,,90,0,2,,,,,0,,,64,0
26970,note_on,,,,,0,0,2,,,,,0,,,67,0
26970,note_on,,,,,0,0,1,,,,,0,,,86,52
26985,note_on,,,,,15,0,2,,,,,0,,,57,0
26995,control_change,,,,,25,0,1,,,,,0,64,0,,
27000,note_on,,,,,0,0,1,,,,,0,,,81,55
27000,note_on,,,,,15,0,2,,,,,0,,,57,43
27000,control_change,,,,,0,0,1,,,,,0,64,95,,
27000,note_on,,,,,5,0,1,,,,,0,,,86,0
27015,set_tempo,,,,,105,1,0,,628272,,,,,,,
27020,set_tempo,,,,,5,1,0,,625000,,,,,,,
27030,note_on,,,,,0,0,1,,,,,0,,,83,58
27030,note_on,,,,,30,0,1,,,,,0,,,81,0
27045,note_on,,,,,45,0,2,,,,,0,,,57,0
27060,note_on,,,,,30,0,1,,,,,0,,,83,0
27060,note_on,,,,,0,0,2,,,,,0,,,69,47
27060,note_on,,,,,15,0,2,,,,,0,,,66,47
27060,note_on,,,,,0,0,1,,,,,0,,,85,60
27090,note_on,,,,,30,0,1,,,,,0,,,85,0
27090,note_on,,,,,0,0,1,,,,,0,,,86,63
27115,set_tempo,,,,,95,1,0,,618556,,,,,,,
27120,note_on,,,,,60,0,2,,,,,0,,,69,0
27120,note_on,,,,,0,0,2,,,,,0,,,66,0
27120,note_on,,,,,0,0,2,,,,,0,,,65,50
27120,note_on,,,,,0,0,2,,,,,0,,,68,50
27120,note_on,,,,,30,0,1,,,,,0,,,86,0
27120,note_on,,,,,0,0,1,,,,,0,,,85,66
27120,set_tempo,,,,,5,1,0,,612244,,,,,,,
27150,note_on,,,,,30,0,1,,,,,0,,,85,0
27150,note_on,,,,,0,0,1,,,,,0,,,86,69
27170,set_tempo,,,,,50,1,0,,628272,,,,,,,
27175,control_change,,,,,25,0,1,,,,,0,64,0,,
27180,note_on,,,,,0,0,2,,,,,0,,,66,50
27180,note_on,,,,,0,0,2,,,,,0,,,65,0
27180,note_on,,,,,60,0,2,,,,,0,,,68,0
27180,note_on,,,,,0,0,2,,,,,0,,,69,50
27180,note_on,,,,,0,0,1,,,,,0,,,90,67
27180,note_on,,,,,5,0,1,,,,,0,,,86,0
27210,note_on,,,,,0,0,1,,,,,0,,,88,64
27210,note_on,,,,,30,0,1,,,,,0,,,90,0
27225,set_tempo,,,,,55,1,0,,645161,,,,,,,
27240,note_on,,,,,0,0,2,,,,,0,,,67,46
27240,note_on,,,,,0,0,1,,,,,0,,,86,61
27240,note_on,,,,,30,0,1,,,,,0,,,88,0
27240,note_on,,,,,60,0,2,,,,,0,,,69,0
27240,note_on,,,,,0,0,2,,,,,0,,,71,46
27240,note_on,,,,,0,0,2,,,,,0,,,66,0
27255,note_on,,,,,0,0,1,,,,,0,,,88,61
27255,note_on,,,,,15,0,1,,,,,0,,,86,0
27265,set_tempo,,,,,40,1,0,,674157,,,,,,,
27270,note_on,,,,,0,0,1,,,,,0,,,86,59
27270,note_on,,,,,15,0,1,,,,,0,,,88,0
27285,set_tempo,,,,,20,1,0,,705882,,,,,,,
27285,note_on,,,,,15,0,1,,,,,0,,,86,0
27285,note_on,,,,,0,0,1,,,,,0,,,85,59
27300,note_on,,,,,0,0,1,,,,,0,,,86,57
27300,note_on,,,,,0,0,2,,,,,0,,,66,43
27300,note_on,,,,,15,0,1,,,,,0,,,85,0
27300,note_on,,,,,60,0,2,,,,,0,,,71,0
27300,note_on,,,,,0,0,2,,,,,0,,,69,43
27300,note_on,,,,,0,0,2,,,,,0,,,67,0
27330,note_on,,,,,30,0,1,,,,,0,,,86,0
27330,note_on,,,,,0,0,1,,,,,0,,,88,56
27350,set_tempo,,,,,65,1,0,,1008403,,,,,,,
27354,note_on,,,,,24,0,1,,,,,0,,,88,0
27354,note_on,,,,,0,0,2,,,,,0,,,66,0
27354,note_on,,,,,54,0,2,,,,,0,,,69,0
27360,control_change,,,,,0,0,1,,,,,0,64,96,,
27360,set_tempo,,,,,10,1,0,,685714,,,,,,,
27360,note_on,,,,,6,0,1,,,,,0,,,85,56
27360,note_on,,,,,6,0,2,,,,,0,,,57,51
27390,note_on,,,,,30,0,1,,,,,0,,,85,0
27390,note_on,,,,,0,0,1,,,,,0,,,93,56
27420,note_on,,,,,0,0,1,,,,,0,,,92,53
27420,note_on,,,,,30,0,1,,,,,0,,,93,0
27420,note_on,,,,,0,0,2,,,,,0,,,67,43
27420,note_on,,,,,60,0,2,,,,,0,,,64,43
27450,note_on,,,,,0,0,1,,,,,0,,,93,50
27450,note_on,,,,,30,0,1,,,,,0,,,92,0
27460,set_tempo,,,,,100,1,0,,681818,,,,,,,
27480,note_on,,,,,0,0,1,,,,,0,,,85,50
27480,note_on,,,,,30,0,1,,,,,0,,,93,0
27510,note_on,,,,,0,0,1,,,,,0,,,93,50
27510,note_on,,,,,0,0,2,,,,,0,,,64,0
27510,note_on,,,,,30,0,1,,,,,0,,,85,0
27510,note_on,,,,,90,0,2,,,,,0,,,67,0
27525,set_tempo,,,,,65,1,0,,670391,,,,,,,
27525,note_on,,,,,15,0,2,,,,,0,,,57,0
27535,control_change,,,,,25,0,1,,,,,0,64,0,,
27540,note_on,,,,,15,0,2,,,,,0,,,57,51
27540,note_on,,,,,5,0,1,,,,,0,,,93,0
27540,note_on,,,,,0,0,1,,,,,0,,,83,58
27540,control_change,,,,,0,0,1,,,,,0,64,97,,
27570,note_on,,,,,30,0,1,,,,,0,,,83,0
27570,note_on,,,,,0,0,1,,,,,0,,,93,56
27600,note_on,,,,,0,0,1,,,,,0,,,92,53
27600,note_on,,,,,60,0,2,,,,,0,,,66,43
27600,note_on,,,,,30,0,1,,,,,0,,,93,0
27600,note_on,,,,,0,0,2,,,,,0,,,62,43
27625,set_tempo,,,,,100,1,0,,655737,,,,,,,
27630,note_on,,,,,30,0,1,,,,,0,,,92,0
27630,note_on,,,,,0,0,1,,,,,0,,,93,55
27660,note_on,,,,,0,0,1,,,,,0,,,83,60
27660,note_on,,,,,30,0,1,,,,,0,,,93,0
27690,note_on,,,,,30,0,1,,,,,0,,,83,0
27690,note_on,,,,,90,0,2,,,,,0,,,62,0
27690,note_on,,,,,0,0,2,,,,,0,,,66,0
27690,note_on,,,,,0,0,1,,,,,0,,,93,65
27705,note_on,,,,,15,0,2,,,,,0,,,57,0
27715,control_change,,,,,25,0,1,,,,,0,64,0,,
27720,note_on,,,,,5,0,1,,,,,0,,,93,0
27720,note_on,,,,,0,0,1,,,,,0,,,81,68
27720,control_change,,,,,0,0,1,,,,,0,64,95,,
27720,note_on,,,,,15,0,2,,,,,0,,,57,51
27745,set_tempo,,,,,120,1,0,,641711,,,,,,,
27750,note_on,,,,,30,0,1,,,,,0,,,81,0
27750,note_on,,,,,0,0,1,,,,,0,,,83,71
27780,note_on,,,,,30,0,1,,,,,0,,,83,0
27780,note_on,,,,,0,0,1,,,,,0,,,85,73
27780,note_on,,,,,0,0,2,,,,,0,,,64,43
27780,note_on,,,,,60,0,2,,,,,0,,,61,43
27810,note_on,,,,,30,0,1,,,,,0,,,85,0
27810,note_on,,,,,0,0,1,,,,,0,,,86,76
27840,note_on,,,,,0,0,2,,,,,0,,,61,0
27840,note_on,,,,,60,0,2,,,,,0,,,64,0
27840,note_on,,,,,0,0,2,,,,,0,,,59,47
27840,note_on,,,,,0,0,2,,,,,0,,,62,47
27840,note_on,,,,,30,0,1,,,,,0,,,86,0
27840,note_on,,,,,0,0,1,,,,,0,,,88,78
27845,set_tempo,,,,,100,1,0,,628272,,,,,,,
27870,note_on,,,,,0,0,1,,,,,0,,,86,78
27870,note_on,,,,,30,0,1,,,,,0,,,88,0
27895,control_change,,,,,25,0,1,,,,,0,64,0,,
27900,set_tempo,,,,,55,1,0,,628272,,,,,,,
27900,note_on,,,,,0,0,1,,,,,0,,,85,83
27900,note_on,,,,,5,0,1,,,,,0,,,86,0
27900,note_on,,,,,0,0,2,,,,,0,,,64,53
27900,note_on,,,,,0,0,2,,,,,0,,,59,0
27900,note_on,,,,,60,0,2,,,,,0,,,62,0
27900,note_on,,,,,0,0,2,,,,,0,,,61,53
27910,set_tempo,,,,,10,1,0,,638297,,,,,,,
27930,note_on,,,,,0,0,1,,,,,0,,,86,83
27930,note_on,,,,,30,0,1,,,,,0,,,85,0
27945,set_tempo,,,,,35,1,0,,659340,,,,,,,
27955,set_tempo,,,,,10,1,0,,662983,,,,,,,
27960,note_on,,,,,60,0,2,,,,,0,,,64,0
27960,note_on,,,,,0,0,2,,,,,0,,,62,51
27960,note_on,,,,,0,0,2,,,,,0,,,66,51
27960,note_on,,,,,0,0,2,,,,,0,,,61,0
27960,note_on,,,,,30,0,1,,,,,0,,,86,0
27960,note_on,,,,,0,0,1,,,,,0,,,88,80
27990,note_on,,,,,30,0,1,,,,,0,,,88,0
27990,note_on,,,,,0,0,1,,,,,0,,,90,78
28000,set_tempo,,,,,45,1,0,,689655,,,,,,,
28020,note_on,,,,,60,0,2,,,,,0,,,66,0
28020,note_on,,,,,0,0,2,,,,,0,,,62,0
28020,note_on,,,,,0,0,2,,,,,0,,,64,47
28020,note_on,,,,,30,0,1,,,,,0,,,90,0
28020,note_on,,,,,0,0,2,,,,,0,,,67,47
28020,note_on,,,,,0,0,1,,,,,0,,,91,72
28025,set_tempo,,,,,25,1,0,,710059,,,,,,,
28050,note_on,,,,,30,0,1,,,,,0,,,91,0
28050,note_on,,,,,0,0,1,,,,,0,,,93,69
28070,set_tempo,,,,,45,1,0,,1000000,,,,,,,
28074,note_on,,,,,54,0,2,,,,,0,,,67,0
28074,note_on,,,,,0,0,2,,,,,0,,,64,0
28074,note_on,,,,,24,0,1,,,,,0,,,93,0
28080,set_tempo,,,,,10,1,0,,697674,,,,,,,
28080,note_on,,,,,6,0,2,,,,,0,,,57,0
28080,note_on,,,,,6,0,1,,,,,0,,,90,65
28080,control_change,,,,,0,0,1,,,,,0,64,96,,
28080,note_on,,,,,0,0,2,,,,,0,,,57,59
28110,note_on,,,,,30,0,1,,,,,0,,,90,0
28110,note_on,,,,,0,0,1,,,,,0,,,98,63
28130,set_tempo,,,,,50,1,0,,681818,,,,,,,
28135,set_tempo,,,,,5,1,0,,677966,,,,,,,
28140,note_on,,,,,0,0,1,,,,,0,,,97,64
28140,note_on,,,,,0,0,2,,,,,0,,,62,53
28140,note_on,,,,,60,0,2,,,,,0,,,66,53
28140,note_on,,,,,30,0,1,,,,,0,,,98,0
28170,note_on,,,,,0,0,1,,,,,0,,,98,68
28170,note_on,,,,,30,0,1,,,,,0,,,97,0
28175,set_tempo,,,,,40,1,0,,674157,,,,,,,
28180,set_tempo,,,,,5,1,0,,659340,,,,,,,
28200,note_on,,,,,30,0,1,,,,,0,,,98,0
28200,note_on,,,,,0,0,1,,,,,0,,,90,71
28230,note_on,,,,,30,0,1,,,,,0,,,90,0
28230,note_on,,,,,0,0,1,,,,,0,,,98,72
28230,note_on,,,,,0,0,2,,,,,0,,,66,0
28230,note_on,,,,,90,0,2,,,,,0,,,62,0
28245,note_on,,,,,15,0,2,,,,,0,,,57,0
28255,control_change,,,,,25,0,1,,,,,0,64,0,,
28260,note_on,,,,,5,0,1,,,,,0,,,98,0
28260,note_on,,,,,0,0,1,,,,,0,,,91,72
28260,control_change,,,,,0,0,1,,,,,0,64,96,,
28260,note_on,,,,,15,0,2,,,,,0,,,57,58
28260,set_tempo,,,,,80,1,0,,645161,,,,,,,
28290,note_on,,,,,30,0,1,,,,,0,,,91,0
28290,note_on,,,,,0,0,1,,,,,0,,,98,68
28320,note_on,,,,,0,0,1,,,,,0,,,97,65
28320,note_on,,,,,30,0,1,,,,,0,,,98,0
28320,note_on,,,,,60,0,2,,,,,0,,,67,51
28320,note_on,,,,,0,0,2,,,,,0,,,64,51
28350,note_on,,,,,0,0,1,,,,,0,,,98,63
28350,note_on,,,,,30,0,1,,,,,0,,,97,0
28365,set_tempo,,,,,105,1,0,,638297,,,,,,,
28380,note_on,,,,,30,0,1,,,,,0,,,98,0
28380,note_on,,,,,0,0,1,,,,,0,,,91,63
28410,note_on,,,,,0,0,2,,,,,0,,,67,0
28410,note_on,,,,,30,0,1,,,,,0,,,91,0
28410,note_on,,,,,0,0,1,,,,,0,,,98,64
28410,note_on,,,,,90,0,2,,,,,0,,,64,0
28425,note_on,,,,,15,0,2,,,,,0,,,57,0
28435,control_change,,,,,25,0,1,,,,,0,64,0,,
28440,note_on,,,,,0,0,1,,,,,0,,,93,70
28440,note_on,,,,,5,0,1,,,,,0,,,98,0
28440,note_on,,,,,15,0,2,,,,,0,,,57,56
28440,control_change,,,,,0,0,1,,,,,0,64,95,,
28465,set_tempo,,,,,100,1,0,,625000,,,,,,,
28470,note_on,,,,,30,0,1,,,,,0,,,93,0
28470,note_on,,,,,0,0,1,,,,,0,,,91,74
28485,note_on,,,,,45,0,2,,,,,0,,,57,0
28500,note_on,,,,,0,0,1,,,,,0,,,90,80
28500,note_on,,,,,30,0,1,,,,,0,,,91,0
28500,note_on,,,,,0,0,2,,,,,0,,,69,57
28500,note_on,,,,,15,0,2,,,,,0,,,66,57
28520,set_tempo,,,,,55,1,0,,618556,,,,,,,
28530,note_on,,,,,30,0,1,,,,,0,,,90,0
28530,note_on,,,,,0,0,1,,,,,0,,,88,82
28560,note_on,,,,,0,0,2,,,,,0,,,68,59
28560,note_on,,,,,0,0,1,,,,,0,,,86,86
28560,note_on,,,,,60,0,2,,,,,0,,,69,0
28560,note_on,,,,,0,0,2,,,,,0,,,66,0
28560,note_on,,,,,0,0,2,,,,,0,,,65,59
28560,note_on,,,,,30,0,1,,,,,0,,,88,0
28580,set_tempo,,,,,60,1,0,,618556,,,,,,,
28590,note_on,,,,,30,0,1,,,,,0,,,86,0
28590,note_on,,,,,0,0,1,,,,,0,,,85,90
28600,set_tempo,,,,,20,1,0,,638297,,,,,,,
28615,control_change,,,,,25,0,1,,,,,0,64,0,,
28620,note_on,,,,,0,0,1,,,,,0,,,83,90
28620,note_on,,,,,60,0,2,,,,,0,,,68,0
28620,note_on,,,,,0,0,2,,,,,0,,,65,0
28620,note_on,,,,,0,0,2,,,,,0,,,66,62
28620,note_on,,,,,0,0,2,,,,,0,,,69,62
28620,note_on,,,,,5,0,1,,,,,0,,,85,0
28650,note_on,,,,,30,0,1,,,,,0,,,83,0
28650,note_on,,,,,0,0,1,,,,,0,,,81,92
28655,set_tempo,,,,,55,1,0,,652173,,,,,,,
28680,note_on,,,,,60,0,2,,,,,0,,,69,0
28680,note_on,,,,,0,0,2,,,,,0,,,67,59
28680,note_on,,,,,0,0,2,,,,,0,,,71,59
28680,note_on,,,,,30,0,1,,,,,0,,,81,0
28680,note_on,,,,,0,0,2,,,,,0,,,66,0
28680,note_on,,,,,0,0,1,,,,,0,,,83,87
28690,set_tempo,,,,,35,1,0,,666666,,,,,,,
28695,note_on,,,,,15,0,1,,,,,0,,,83,0
28710,note_on,,,,,15,0,1,,,,,0,,,81,82
28730,set_tempo,,,,,40,1,0,,689655,,,,,,,
28740,note_on,,,,,0,0,2,,,,,0,,,69,52
28740,note_on,,,,,0,0,1,,,,,0,,,83,80
28740,note_on,,,,,60,0,2,,,,,0,,,71,0
28740,note_on,,,,,0,0,2,,,,,0,,,67,0
28740,note_on,,,,,0,0,2,,,,,0,,,66,52
28740,note_on,,,,,30,0,1,,,,,0,,,81,0
28755,note_on,,,,,15,0,1,,,,,0,,,83,0
28770,note_on,,,,,15,0,1,,,,,0,,,81,77
28790,set_tempo,,,,,60,1,0,,1000000,,,,,,,
28794,note_on,,,,,54,0,2,,,,,0,,,69,0
28794,note_on,,,,,0,0,2,,,,,0,,,66,0
28794,note_on,,,,,24,0,1,,,,,0,,,81,0
28800,control_change,,,,,0,0,1,,,,,0,64,95,,
28800,set_tempo,,,,,10,1,0,,666666,,,,,,,
28800,note_on,,,,,6,0,1,,,,,0,,,83,72
28800,note_on,,,,,6,0,2,,,,,0,,,57,59
28805,set_tempo,,,,,5,1,0,,662983,,,,,,,
28830,note_on,,,,,30,0,1,,,,,0,,,83,0
28830,note_on,,,,,0,0,1,,,,,0,,,85,65
28850,set_tempo,,,,,45,1,0,,638297,,,,,,,
28860,note_on,,,,,60,0,2,,,,,0,,,71,53
28860,note_on,,,,,0,0,2,,,,,0,,,69,53
28860,note_on,,,,,0,0,1,,,,,0,,,87,69
28860,note_on,,,,,30,0,1,,,,,0,,,85,0
28860,note_on,,,,,0,0,2,,,,,0,,,66,53
28890,note_on,,,,,0,0,1,,,,,0,,,88,74
28890,note_on,,,,,30,0,1,,,,,0,,,87,0
28920,note_on,,,,,0,0,1,,,,,0,,,90,75
28920,set_tempo,,,,,70,1,0,,634920,,,,,,,
28920,note_on,,,,,30,0,1,,,,,0,,,88,0
28950,note_on,,,,,0,0,2,,,,,0,,,69,0
28950,note_on,,,,,0,0,2,,,,,0,,,71,0
28950,note_on,,,,,0,0,1,,,,,0,,,91,77
28950,note_on,,,,,30,0,1,,,,,0,,,90,0
28950,note_on,,,,,90,0,2,,,,,0,,,66,0
28965,note_on,,,,,15,0,2,,,,,0,,,57,0
28975,control_change,,,,,25,0,1,,,,,0,64,0,,
28980,note_on,,,,,0,0,1,,,,,0,,,93,77
28980,note_on,,,,,5,0,1,,,,,0,,,91,0
28980,note_on,,,,,15,0,2,,,,,0,,,57,58
28980,control_change,,,,,0,0,1,,,,,0,64,95,,
28985,set_tempo,,,,,65,1,0,,625000,,,,,,,
29010,note_on,,,,,30,0,1,,,,,0,,,93,0
29010,note_on,,,,,0,0,1,,,,,0,,,94,74
29030,set_tempo,,,,,45,1,0,,612244,,,,,,,
29040,note_on,,,,,60,0,2,,,,,0,,,71,51
29040,note_on,,,,,0,0,2,,,,,0,,,69,51
29040,note_on,,,,,0,0,2,,,,,0,,,66,51
29040,note_on,,,,,0,0,1,,,,,0,,,95,72
29040,note_on,,,,,30,0,1,,,,,0,,,94,0
29070,note_on,,,,,0,0,1,,,,,0,,,93,69
29070,note_on,,,,,30,0,1,,,,,0,,,95,0
29070,set_tempo,,,,,40,1,0,,603015,,,,,,,
29090,set_tempo,,,,,20,1,0,,600000,,,,,,,
29100,note_on,,,,,0,0,1,,,,,0,,,91,67
29100,note_on,,,,,30,0,1,,,,,0,,,93,0
29125,set_tempo,,,,,35,1,0,,594059,,,,,,,
29130,note_on,,,,,30,0,1,,,,,0,,,91,0
29130,note_on,,,,,0,0,2,,,,,0,,,71,0
29130,note_on,,,,,0,0,2,,,,,0,,,69,0
29130,note_on,,,,,90,0,2,,,,,0,,,66,0
29130,note_on,,,,,0,0,1,,,,,0,,,90,67
29145,note_on,,,,,15,0,2,,,,,0,,,57,0
29155,control_change,,,,,25,0,1,,,,,0,64,0,,
29160,note_on,,,,,15,0,2,,,,,0,,,57,52
29160,note_on,,,,,5,0,1,,,,,0,,,90,0
29160,note_on,,,,,0,0,1,,,,,0,,,93,67
29160,control_change,,,,,0,0,1,,,,,0,64,95,,
29190,set_tempo,,,,,65,1,0,,618556,,,,,,,
29190,note_on,,,,,30,0,1,,,,,0,,,93,0
29190,note_on,,,,,0,0,1,,,,,0,,,91,72
29205,note_on,,,,,45,0,2,,,,,0,,,57,0
29220,note_on,,,,,15,0,2,,,,,0,,,67,56
29220,note_on,,,,,30,0,1,,,,,0,,,91,0
29220,note_on,,,,,0,0,2,,,,,0,,,64,56
29220,note_on,,,,,0,0,1,,,,,0,,,95,79
29240,set_tempo,,,,,50,1,0,,638297,,,,,,,
29250,note_on,,,,,30,0,1,,,,,0,,,95,0
29250,note_on,,,,,0,0,1,,,,,0,,,93,86
29250,set_tempo,,,,,10,1,0,,641711,,,,,,,
29275,set_tempo,,,,,25,1,0,,659340,,,,,,,
29280,note_on,,,,,0,0,2,,,,,0,,,69,62
29280,note_on,,,,,0,0,1,,,,,0,,,91,91
29280,note_on,,,,,30,0,1,,,,,0,,,93,0
29280,note_on,,,,,0,0,2,,,,,0,,,67,0
29280,note_on,,,,,60,0,2,,,,,0,,,64,0
29280,note_on,,,,,0,0,2,,,,,0,,,66,62
29310,note_on,,,,,30,0,1,,,,,0,,,91,0
29310,note_on,,,,,0,0,1,,,,,0,,,90,95
29335,control_change,,,,,25,0,1,,,,,0,64,0,,
29340,note_on,,,,,0,0,2,,,,,0,,,67,65
29340,note_on,,,,,0,0,2,,,,,0,,,71,65
29340,note_on,,,,,5,0,1,,,,,0,,,90,0
29340,note_on,,,,,0,0,2,,,,,0,,,69,0
29340,note_on,,,,,60,0,2,,,,,0,,,66,0
29340,control_change,,,,,0,0,1,,,,,0,64,95,,
29340,note_on,,,,,0,0,1,,,,,0,,,90,97
29345,set_tempo,,,,,70,1,0,,674157,,,,,,,
29370,note_on,,,,,30,0,1,,,,,0,,,90,0
29370,note_on,,,,,0,0,1,,,,,0,,,88,77
29396,note_on,,,,,26,0,1,,,,,0,,,88,0
29400,note_on,,,,,4,0,1,,,,,0,,,88,87
29400,note_on,,,,,0,0,2,,,,,0,,,66,60
29400,note_on,,,,,0,0,2,,,,,0,,,69,60
29400,note_on,,,,,0,0,2,,,,,0,,,71,0
29400,note_on,,,,,60,0,2,,,,,0,,,67,0
29400,set_tempo,,,,,55,1,0,,697674,,,,,,,
29430,note_on,,,,,0,0,1,,,,,0,,,87,68
29430,note_on,,,,,30,0,1,,,,,0,,,88,0
29456,note_on,,,,,26,0,1,,,,,0,,,87,0
29460,note_on,,,,,4,0,1,,,,,0,,,87,77
29460,note_on,,,,,60,0,2,,,,,0,,,66,0
29460,note_on,,,,,0,0,2,,,,,0,,,69,0
29460,note_on,,,,,0,0,2,,,,,0,,,67,56
29460,note_on,,,,,0,0,2,,,,,0,,,64,56
29490,note_on,,,,,0,0,1,,,,,0,,,88,59
29490,note_on,,,,,30,0,1,,,,,0,,,87,0
29500,set_tempo,,,,,100,1,0,,710059,,,,,,,
29510,set_tempo,,,,,10,1,0,,1000000,,,,,,,
29514,note_on,,,,,24,0,1,,,,,0,,,88,0
29514,note_on,,,,,0,0,2,,,,,0,,,67,0
29514,note_on,,,,,54,0,2,,,,,0,,,64,0
29515,control_change,,,,,1,0,1,,,,,0,64,0,,
29520,set_tempo,,,,,10,1,0,,666666,,,,,,,
29520,note_on,,,,,5,0,1,,,,,0,,,81,72
29520,control_change,,,,,0,0,1,,,,,0,64,95,,
29520,note_on,,,,,6,0,2,,,,,0,,,57,59
29525,set_tempo,,,,,5,1,0,,659340,,,,,,,
29540,set_tempo,,,,,15,1,0,,655737,,,,,,,
29550,note_on,,,,,0,0,1,,,,,0,,,83,65
29550,note_on,,,,,30,0,1,,,,,0,,,81,0
29575,set_tempo,,,,,35,1,0,,652173,,,,,,,
29580,note_on,,,,,0,0,1,,,,,0,,,85,69
29580,note_on,,,,,30,0,1,,,,,0,,,83,0
29580,note_on,,,,,0,0,2,,,,,0,,,64,53
29580,note_on,,,,,0,0,2,,,,,0,,,67,53
29580,note_on,,,,,60,0,2,,,,,0,,,69,53
29610,note_on,,,,,30,0,1,,,,,0,,,85,0
29610,note_on,,,,,0,0,1,,,,,0,,,86,74
29635,set_tempo,,,,,60,1,0,,638297,,,,,,,
29640,note_on,,,,,0,0,1,,,,,0,,,88,75
29640,note_on,,,,,30,0,1,,,,,0,,,86,0
29670,note_on,,,,,0,0,1,,,,,0,,,90,77
29670,note_on,,,,,30,0,1,,,,,0,,,88,0
29670,note_on,,,,,90,0,2,,,,,0,,,64,0
29670,note_on,,,,,0,0,2,,,,,0,,,67,0
29670,note_on,,,,,0,0,2,,,,,0,,,69,0
29675,set_tempo,,,,,40,1,0,,628272,,,,,,,
29685,note_on,,,,,15,0,2,,,,,0,,,57,0
29695,control_change,,,,,25,0,1,,,,,0,64,0,,
29700,note_on,,,,,5,0,1,,,,,0,,,90,0
29700,note_on,,,,,15,0,2,,,,,0,,,57,58
29700,note_on,,,,,0,0,1,,,,,0,,,91,77
29700,control_change,,,,,0,0,1,,,,,0,64,95,,
29730,note_on,,,,,30,0,1,,,,,0,,,91,0
29730,note_on,,,,,0,0,1,,,,,0,,,92,74
29760,note_on,,,,,0,0,2,,,,,0,,,67,51
29760,note_on,,,,,60,0,2,,,,,0,,,69,51
29760,note_on,,,,,0,0,1,,,,,0,,,93,72
29760,note_on,,,,,0,0,2,,,,,0,,,64,51
29760,note_on,,,,,30,0,1,,,,,0,,,92,0
29770,set_tempo,,,,,95,1,0,,625000,,,,,,,
29790,note_on,,,,,0,0,1,,,,,0,,,91,69
29790,note_on,,,,,30,0,1,,,,,0,,,93,0
29820,note_on,,,,,30,0,1,,,,,0,,,91,0
29820,note_on,,,,,0,0,1,,,,,0,,,90,67
29850,note_on,,,,,30,0,1,,,,,0,,,90,0
29850,note_on,,,,,0,0,1,,,,,0,,,88,67
29850,note_on,,,,,0,0,2,,,,,0,,,67,0
29850,note_on,,,,,90,0,2,,,,,0,,,64,0
29850,note_on,,,,,0,0,2,,,,,0,,,69,0
29865,note_on,,,,,15,0,2,,,,,0,,,57,0
29875,control_change,,,,,25,0,1,,,,,0,64,0,,
29880,control_change,,,,,0,0,1,,,,,0,64,95,,
29880,note_on,,,,,5,0,1,,,,,0,,,88,0
29880,note_on,,,,,15,0,2,,,,,0,,,57,52
29880,note_on,,,,,0,0,1,,,,,0,,,91,67
29890,set_tempo,,,,,120,1,0,,641711,,,,,,,
29910,note_on,,,,,30,0,1,,,,,0,,,91,0
29910,note_on,,,,,0,0,1,,,,,0,,,90,72
29925,note_on,,,,,45,0,2,,,,,0,,,57,0
29935,set_tempo,,,,,45,1,0,,662983,,,,,,,
29940,note_on,,,,,30,0,1,,,,,0,,,90,0
29940,note_on,,,,,0,0,1,,,,,0,,,93,79
29940,note_on,,,,,0,0,2,,,,,0,,,62,56
29940,note_on,,,,,15,0,2,,,,,0,,,66,56
29970,note_on,,,,,0,0,1,,,,,0,,,91,86
29970,note_on,,,,,30,0,1,,,,,0,,,93,0
30000,note_on,,,,,0,0,2,,,,,0,,,66,0
30000,note_on,,,,,0,0,2,,,,,0,,,67,62
30000,note_on,,,,,0,0,2,,,,,0,,,64,62
30000,set_tempo,,,,,65,1,0,,685714,,,,,,,
30000,note_on,,,,,60,0,2,,,,,0,,,62,0
30000,note_on,,,,,0,0,1,,,,,0,,,90,91
30000,note_on,,,,,30,0,1,,,,,0,,,91,0
30030,note_on,,,,,30,0,1,,,,,0,,,90,0
30030,note_on,,,,,0,0,1,,,,,0,,,88,87
30045,set_tempo,,,,,45,1,0,,710059,,,,,,,
30055,control_change,,,,,25,0,1,,,,,0,64,0,,
30060,note_on,,,,,0,0,2,,,,,0,,,67,0
30060,note_on,,,,,0,0,2,,,,,0,,,66,65
30060,note_on,,,,,0,0,2,,,,,0,,,69,65
30060,note_on,,,,,60,0,2,,,,,0,,,64,0
30060,note_on,,,,,5,0,1,,,,,0,,,88,0
30060,note_on,,,,,0,0,1,,,,,0,,,88,85
30060,control_change,,,,,0,0,1,,,,,0,64,95,,
30085,set_tempo,,,,,40,1,0,,736196,,,,,,,
30090,note_on,,,,,0,0,1,,,,,0,,,86,74
30090,note_on,,,,,30,0,1,,,,,0,,,88,0
30116,note_on,,,,,26,0,1,,,,,0,,,86,0
30120,note_on,,,,,4,0,1,,,,,0,,,86,75
30120,note_on,,,,,0,0,2,,,,,0,,,64,56
30120,note_on,,,,,0,0,2,,,,,0,,,67,56
30120,note_on,,,,,60,0,2,,,,,0,,,69,0
30120,note_on,,,,,0,0,2,,,,,0,,,66,0
30145,set_tempo,,,,,60,1,0,,754716,,,,,,,
30150,note_on,,,,,30,0,1,,,,,0,,,86,0
30150,note_on,,,,,0,0,1,,,,,0,,,85,62
30176,note_on,,,,,26,0,1,,,,,0,,,85,0
30180,note_on,,,,,4,0,1,,,,,0,,,85,67
30180,note_on,,,,,60,0,2,,,,,0,,,64,0
30180,note_on,,,,,0,0,2,,,,,0,,,67,0
30180,note_on,,,,,0,0,2,,,,,0,,,66,45
30180,note_on,,,,,0,0,2,,,,,0,,,62,45
30190,set_tempo,,,,,45,1,0,,779220,,,,,,,
30200,set_tempo,,,,,10,1,0,,789473,,,,,,,
30210,note_on,,,,,30,0,1,,,,,0,,,85,0
30210,note_on,,,,,0,0,1,,,,,0,,,86,50
30230,set_tempo,,,,,30,1,0,,991735,,,,,,,
30234,note_on,,,,,54,0,2,,,,,0,,,62,0
30234,note_on,,,,,0,0,2,,,,,0,,,66,0
30234,note_on,,,,,24,0,1,,,,,0,,,86,0
30235,control_change,,,,,1,0,1,,,,,0,64,0,,
30240,control_change,,,,,0,0,1,,,,,0,64,95,,
30240,note_on,,,,,6,0,2,,,,,0,,,57,56
30240,note_on,,,,,5,0,1,,,,,0,,,78,60
30240,set_tempo,,,,,10,1,0,,666666,,,,,,,
30245,set_tempo,,,,,5,1,0,,659340,,,,,,,
30270,note_on,,,,,30,0,1,,,,,0,,,78,0
30270,note_on,,,,,0,0,1,,,,,0,,,86,59
30285,set_tempo,,,,,40,1,0,,641711,,,,,,,
30300,note_on,,,,,30,0,1,,,,,0,,,86,0
30300,note_on,,,,,0,0,1,,,,,0,,,85,62
30300,note_on,,,,,60,0,2,,,,,0,,,62,52
30300,note_on,,,,,0,0,2,,,,,0,,,66,52
30330,note_on,,,,,30,0,1,,,,,0,,,85,0
30330,note_on,,,,,0,0,1,,,,,0,,,86,66
30360,note_on,,,,,0,0,1,,,,,0,,,78,70
30360,set_tempo,,,,,75,1,0,,618556,,,,,,,
30360,note_on,,,,,30,0,1,,,,,0,,,86,0
30390,note_on,,,,,0,0,1,,,,,0,,,86,78
30390,note_on,,,,,30,0,1,,,,,0,,,78,0
30405,set_tempo,,,,,45,1,0,,615384,,,,,,,
30415,control_change,,,,,25,0,1,,,,,0,64,0,,
30420,note_on,,,,,120,0,2,,,,,0,,,66,0
30420,note_on,,,,,0,0,2,,,,,0,,,57,0
30420,control_change,,,,,0,0,1,,,,,0,64,95,,
30420,note_on,,,,,5,0,1,,,,,0,,,86,0
30420,note_on,,,,,0,0,1,,,,,0,,,79,81
30420,note_on,,,,,0,0,2,,,,,0,,,57,56
30420,note_on,,,,,0,0,2,,,,,0,,,62,0
30450,note_on,,,,,0,0,1,,,,,0,,,86,80
30450,note_on,,,,,30,0,1,,,,,0,,,79,0
30480,note_on,,,,,60,0,2,,,,,0,,,64,52
30480,note_on,,,,,30,0,1,,,,,0,,,86,0
30480,note_on,,,,,0,0,2,,,,,0,,,67,52
30480,note_on,,,,,0,0,1,,,,,0,,,85,75
30480,set_tempo,,,,,75,1,0,,612244,,,,,,,
30510,note_on,,,,,0,0,1,,,,,0,,,86,73
30510,note_on,,,,,30,0,1,,,,,0,,,85,0
30540,note_on,,,,,0,0,1,,,,,0,,,79,69
30540,note_on,,,,,30,0,1,,,,,0,,,86,0
30570,note_on,,,,,0,0,1,,,,,0,,,86,65
30570,note_on,,,,,30,0,1,,,,,0,,,79,0
30590,control_change,,,,,20,0,1,,,,,0,64,0,,
30600,note_on,,,,,0,0,2,,,,,0,,,64,0
30600,note_on,,,,,0,0,1,,,,,0,,,80,62
30600,note_on,,,,,120,0,2,,,,,0,,,67,0
30600,note_on,,,,,10,0,1,,,,,0,,,86,0
30600,note_on,,,,,0,0,2,,,,,0,,,57,54
30600,control_change,,,,,0,0,1,,,,,0,64,95,,
30600,note_on,,,,,0,0,2,,,,,0,,,57,0
30610,set_tempo,,,,,130,1,0,,618556,,,,,,,
30630,note_on,,,,,30,0,1,,,,,0,,,80,0
30630,note_on,,,,,0,0,1,,,,,0,,,81,66
30645,note_on,,,,,45,0,2,,,,,0,,,57,0
30650,set_tempo,,,,,40,1,0,,615384,,,,,,,
30660,note_on,,,,,15,0,2,,,,,0,,,68,60
30660,note_on,,,,,0,0,2,,,,,0,,,65,60
30660,note_on,,,,,30,0,1,,,,,0,,,81,0
30660,note_on,,,,,0,0,1,,,,,0,,,83,70
30690,note_on,,,,,30,0,1,,,,,0,,,83,0
30690,note_on,,,,,0,0,1,,,,,0,,,81,75
30715,set_tempo,,,,,65,1,0,,618556,,,,,,,
30720,note_on,,,,,60,0,2,,,,,0,,,65,0
30720,note_on,,,,,0,0,2,,,,,0,,,68,0
30720,note_on,,,,,0,0,2,,,,,0,,,66,64
30720,note_on,,,,,0,0,2,,,,,0,,,69,64
30720,note_on,,,,,0,0,1,,,,,0,,,86,78
30720,note_on,,,,,30,0,1,,,,,0,,,81,0
30750,note_on,,,,,0,0,1,,,,,0,,,81,86
30750,note_on,,,,,30,0,1,,,,,0,,,86,0
30765,note_on,,,,,45,0,2,,,,,0,,,69,0
30765,note_on,,,,,0,0,2,,,,,0,,,66,0
30775,control_change,,,,,25,0,1,,,,,0,64,0,,
30780,note_on,,,,,5,0,1,,,,,0,,,81,0
30780,note_on,,,,,0,0,1,,,,,0,,,90,86
30780,control_change,,,,,0,0,1,,,,,0,64,96,,
30780,note_on,,,,,0,0,2,,,,,0,,,69,62
30780,note_on,,,,,15,0,2,,,,,0,,,66,62
30810,note_on,,,,,30,0,1,,,,,0,,,90,0
30810,note_on,,,,,0,0,1,,,,,0,,,88,78
30815,set_tempo,,,,,100,1,0,,634920,,,,,,,
30825,set_tempo,,,,,10,1,0,,638297,,,,,,,
30832,note_on,,,,,52,0,2,,,,,0,,,69,0
30832,note_on,,,,,0,0,2,,,,,0,,,66,0
30840,note_on,,,,,0,0,1,,,,,0,,,86,66
30840,note_on,,,,,30,0,1,,,,,0,,,88,0
30840,note_on,,,,,8,0,2,,,,,0,,,66,55
30840,note_on,,,,,0,0,2,,,,,0,,,69,55
30850,set_tempo,,,,,25,1,0,,655737,,,,,,,
30870,note_on,,,,,0,0,1,,,,,0,,,85,56
30870,note_on,,,,,30,0,1,,,,,0,,,86,0
30875,set_tempo,,,,,25,1,0,,666666,,,,,,,
30885,note_on,,,,,45,0,2,,,,,0,,,69,0
30885,note_on,,,,,0,0,2,,,,,0,,,66,0
30890,set_tempo,,,,,15,1,0,,685714,,,,,,,
30900,note_on,,,,,15,0,2,,,,,0,,,66,48
30900,note_on,,,,,0,0,1,,,,,0,,,83,51
30900,set_tempo,,,,,10,1,0,,697674,,,,,,,
30900,note_on,,,,,30,0,1,,,,,0,,,85,0
30900,note_on,,,,,0,0,2,,,,,0,,,69,48
30905,set_tempo,,,,,5,1,0,,710059,,,,,,,
30925,set_tempo,,,,,20,1,0,,731707,,,,,,,
30930,note_on,,,,,0,0,1,,,,,0,,,81,48
30930,note_on,,,,,30,0,1,,,,,0,,,83,0
30945,note_on,,,,,45,0,2,,,,,0,,,69,0
30945,note_on,,,,,0,0,2,,,,,0,,,66,0
30946,set_tempo,,,,,21,1,0,,714285,,,,,,,
30950,set_tempo,,,,,4,1,0,,1000000,,,,,,,
30955,control_change,,,,,25,0,1,,,,,0,64,0,,
30960,note_on,,,,,15,0,2,,,,,0,,,57,56
30960,set_tempo,,,,,10,1,0,,666666,,,,,,,
30960,note_on,,,,,5,0,1,,,,,0,,,81,0
30960,note_on,,,,,0,0,1,,,,,0,,,83,60
30960,control_change,,,,,0,0,1,,,,,0,64,95,,
30965,set_tempo,,,,,5,1,0,,655737,,,,,,,
30980,set_tempo,,,,,15,1,0,,652173,,,,,,,
30990,note_on,,,,,0,0,1,,,,,0,,,86,59
30990,note_on,,,,,30,0,1,,,,,0,,,83,0
31005,set_tempo,,,,,25,1,0,,638297,,,,,,,
31020,note_on,,,,,0,0,2,,,,,0,,,67,52
31020,note_on,,,,,60,0,2,,,,,0,,,71,52
31020,note_on,,,,,30,0,1,,,,,0,,,86,0
31020,note_on,,,,,0,0,1,,,,,0,,,85,62
31050,note_on,,,,,0,0,1,,,,,0,,,86,66
31050,note_on,,,,,30,0,1,,,,,0,,,85,0
31080,note_on,,,,,0,0,1,,,,,0,,,83,70
31080,note_on,,,,,30,0,1,,,,,0,,,86,0
31110,note_on,,,,,0,0,1,,,,,0,,,86,78
31110,note_on,,,,,30,0,1,,,,,0,,,83,0
31135,control_change,,,,,25,0,1,,,,,0,64,0,,
31140,note_on,,,,,5,0,1,,,,,0,,,86,0
31140,note_on,,,,,0,0,1,,,,,0,,,85,81
31140,control_change,,,,,0,0,1,,,,,0,64,95,,
31140,note_on,,,,,120,0,2,,,,,0,,,67,0
31140,note_on,,,,,0,0,2,,,,,0,,,57,0
31140,note_on,,,,,0,0,2,,,,,0,,,71,0
31140,note_on,,,,,0,0,2,,,,,0,,,57,56
31170,note_on,,,,,30,0,1,,,,,0,,,85,0
31170,note_on,,,,,0,0,1,,,,,0,,,93,80
31180,set_tempo,,,,,175,1,0,,628272,,,,,,,
31200,note_on,,,,,0,0,2,,,,,0,,,64,52
31200,note_on,,,,,60,0,2,,,,,0,,,73,52
31200,note_on,,,,,30,0,1,,,,,0,,,93,0
31200,note_on,,,,,0,0,1,,,,,0,,,92,75
31230,note_on,,,,,30,0,1,,,,,0,,,92,0
31230,note_on,,,,,0,0,1,,,,,0,,,93,73
31260,note_on,,,,,0,0,1,,,,,0,,,85,69
31260,note_on,,,,,30,0,1,,,,,0,,,93,0
31275,set_tempo,,,,,95,1,0,,618556,,,,,,,
31290,note_on,,,,,0,0,1,,,,,0,,,93,65
31290,note_on,,,,,30,0,1,,,,,0,,,85,0
31310,control_change,,,,,20,0,1,,,,,0,64,0,,
31320,note_on,,,,,10,0,1,,,,,0,,,93,0
31320,note_on,,,,,0,0,1,,,,,0,,,85,62
31320,control_change,,,,,0,0,1,,,,,0,64,95,,
31320,note_on,,,,,0,0,2,,,,,0,,,57,54
31320,note_on,,,,,120,0,2,,,,,0,,,64,0
31320,note_on,,,,,0,0,2,,,,,0,,,73,0
31320,note_on,,,,,0,0,2,,,,,0,,,57,0
31350,note_on,,,,,0,0,1,,,,,0,,,86,66
31350,note_on,,,,,30,0,1,,,,,0,,,85,0
31365,note_on,,,,,45,0,2,,,,,0,,,57,0
31370,set_tempo,,,,,95,1,0,,615384,,,,,,,
31380,note_on,,,,,0,0,2,,,,,0,,,73,60
31380,note_on,,,,,15,0,2,,,,,0,,,64,60
31380,note_on,,,,,0,0,1,,,,,0,,,88,70
31380,note_on,,,,,30,0,1,,,,,0,,,86,0
31410,note_on,,,,,30,0,1,,,,,0,,,88,0
31410,note_on,,,,,0,0,1,,,,,0,,,86,75
31440,note_on,,,,,60,0,2,,,,,0,,,73,0
31440,note_on,,,,,0,0,2,,,,,0,,,74,64
31440,note_on,,,,,0,0,2,,,,,0,,,66,64
31440,note_on,,,,,0,0,2,,,,,0,,,64,0
31440,note_on,,,,,30,0,1,,,,,0,,,86,0
31440,note_on,,,,,0,0,1,,,,,0,,,90,78
31470,note_on,,,,,0,0,1,,,,,0,,,86,86
31470,note_on,,,,,30,0,1,,,,,0,,,90,0
31480,set_tempo,,,,,110,1,0,,618556,,,,,,,
31485,note_on,,,,,45,0,2,,,,,0,,,66,0
31485,note_on,,,,,0,0,2,,,,,0,,,74,0
31490,set_tempo,,,,,10,1,0,,621761,,,,,,,
31495,control_change,,,,,25,0,1,,,,,0,64,0,,
31500,control_change,,,,,0,0,1,,,,,0,64,96,,
31500,note_on,,,,,5,0,1,,,,,0,,,86,0
31500,note_on,,,,,15,0,2,,,,,0,,,74,62
31500,note_on,,,,,0,0,1,,,,,0,,,98,86
31500,note_on,,,,,0,0,2,,,,,0,,,66,62
31525,set_tempo,,,,,35,1,0,,628272,,,,,,,
31530,note_on,,,,,0,0,1,,,,,0,,,97,78
31530,note_on,,,,,30,0,1,,,,,0,,,98,0
31552,note_on,,,,,52,0,2,,,,,0,,,66,0
31552,note_on,,,,,0,0,2,,,,,0,,,74,0
31560,note_on,,,,,8,0,2,,,,,0,,,74,55
31560,note_on,,,,,30,0,1,,,,,0,,,97,0
31560,note_on,,,,,0,0,2,,,,,0,,,66,55
31560,note_on,,,,,0,0,1,,,,,0,,,95,66
31565,set_tempo,,,,,40,1,0,,641711,,,,,,,
31580,set_tempo,,,,,15,1,0,,659340,,,,,,,
31590,note_on,,,,,30,0,1,,,,,0,,,95,0
31590,set_tempo,,,,,10,1,0,,677966,,,,,,,
31590,note_on,,,,,0,0,1,,,,,0,,,93,56
31600,set_tempo,,,,,10,1,0,,697674,,,,,,,
31605,note_on,,,,,0,0,2,,,,,0,,,74,0
31605,note_on,,,,,45,0,2,,,,,0,,,66,0
31620,note_on,,,,,15,0,2,,,,,0,,,74,48
31620,note_on,,,,,30,0,1,,,,,0,,,93,0
31620,note_on,,,,,0,0,1,,,,,0,,,91,51
31620,note_on,,,,,0,0,2,,,,,0,,,66,48
31635,set_tempo,,,,,35,1,0,,701754,,,,,,,
31650,note_on,,,,,0,0,1,,,,,0,,,90,48
31650,note_on,,,,,30,0,1,,,,,0,,,91,0
31665,note_on,,,,,45,0,2,,,,,0,,,66,0
31665,note_on,,,,,0,0,2,,,,,0,,,74,0
31670,set_tempo,,,,,35,1,0,,1008403,,,,,,,
31673,set_tempo,,,,,3,1,0,,1008403,,,,,,,
31675,control_change,,,,,25,0,1,,,,,0,64,0,,
31680,note_on,,,,,15,0,2,,,,,0,,,57,56
31680,control_change,,,,,0,0,1,,,,,0,64,95,,
31680,note_on,,,,,0,0,1,,,,,0,,,83,60
31680,set_tempo,,,,,7,1,0,,670391,,,,,,,
31680,note_on,,,,,5,0,1,,,,,0,,,90,0
31690,set_tempo,,,,,10,1,0,,659340,,,,,,,
31710,note_on,,,,,30,0,1,,,,,0,,,83,0
31710,note_on,,,,,0,0,1,,,,,0,,,91,49
31740,note_on,,,,,30,0,1,,,,,0,,,91,0
31740,note_on,,,,,0,0,1,,,,,0,,,90,49
31740,note_on,,,,,60,0,2,,,,,0,,,76,52
31740,note_on,,,,,0,0,2,,,,,0,,,67,52
31745,set_tempo,,,,,55,1,0,,645161,,,,,,,
31770,note_on,,,,,30,0,1,,,,,0,,,90,0
31770,note_on,,,,,0,0,1,,,,,0,,,91,49
31800,note_on,,,,,30,0,1,,,,,0,,,91,0
31800,note_on,,,,,0,0,1,,,,,0,,,83,56
31830,note_on,,,,,30,0,1,,,,,0,,,83,0
31830,note_on,,,,,0,0,1,,,,,0,,,91,63
31855,control_change,,,,,25,0,1,,,,,0,64,0,,
31860,set_tempo,,,,,115,1,0,,628272,,,,,,,
31860,note_on,,,,,0,0,1,,,,,0,,,85,68
31860,control_change,,,,,0,0,1,,,,,0,64,95,,
31860,note_on,,,,,0,0,2,,,,,0,,,57,50
31860,note_on,,,,,0,0,2,,,,,0,,,57,0
31860,note_on,,,,,0,0,2,,,,,0,,,76,0
31860,note_on,,,,,120,0,2,,,,,0,,,67,0
31860,note_on,,,,,5,0,1,,,,,0,,,91,0
31890,note_on,,,,,30,0,1,,,,,0,,,85,0
31890,note_on,,,,,0,0,1,,,,,0,,,93,72
31920,note_on,,,,,0,0,2,,,,,0,,,78,49
31920,note_on,,,,,60,0,2,,,,,0,,,69,49
31920,note_on,,,,,30,0,1,,,,,0,,,93,0
31920,note_on,,,,,0,0,1,,,,,0,,,92,63
31950,note_on,,,,,0,0,1,,,,,0,,,93,59
31950,note_on,,,,,30,0,1,,,,,0,,,92,0
31980,note_on,,,,,0,0,1,,,,,0,,,85,58
31980,note_on,,,,,30,0,1,,,,,0,,,93,0
32010,note_on,,,,,0,0,1,,,,,0,,,93,55
32010,note_on,,,,,30,0,1,,,,,0,,,85,0
32010,set_tempo,,,,,150,1,0,,618556,,,,,,,
32030,control_change,,,,,20,0,1,,,,,0,64,0,,
32040,note_on,,,,,0,0,1,,,,,0,,,85,55
32040,control_change,,,,,0,0,1,,,,,0,64,95,,
32040,note_on,,,,,0,0,2,,,,,0,,,57,0
32040,note_on,,,,,120,0,2,,,,,0,,,78,0
32040,note_on,,,,,10,0,1,,,,,0,,,93,0
32040,note_on,,,,,0,0,2,,,,,0,,,57,44
32040,note_on,,,,,0,0,2,,,,,0,,,69,0
32070,note_on,,,,,0,0,1,,,,,0,,,86,52
32070,note_on,,,,,30,0,1,,,,,0,,,85,0
32085,note_on,,,,,45,0,2,,,,,0,,,57,0
32090,set_tempo,,,,,80,1,0,,615384,,,,,,,
32100,note_on,,,,,0,0,1,,,,,0,,,88,53
32100,note_on,,,,,15,0,2,,,,,0,,,64,49
32100,note_on,,,,,0,0,2,,,,,0,,,73,49
32100,note_on,,,,,30,0,1,,,,,0,,,86,0
32130,note_on,,,,,30,0,1,,,,,0,,,88,0
32130,note_on,,,,,0,0,1,,,,,0,,,86,58
32160,note_on,,,,,30,0,1,,,,,0,,,86,0
32160,note_on,,,,,60,0,2,,,,,0,,,73,0
32160,note_on,,,,,0,0,2,,,,,0,,,64,0
32160,note_on,,,,,0,0,2,,,,,0,,,74,52
32160,note_on,,,,,0,0,1,,,,,0,,,93,62
32160,note_on,,,,,0,0,2,,,,,0,,,66,52
32190,note_on,,,,,30,0,1,,,,,0,,,93,0
32190,note_on,,,,,0,0,1,,,,,0,,,90,68
32205,note_on,,,,,45,0,2,,,,,0,,,66,0
32205,note_on,,,,,0,0,2,,,,,0,,,74,0
32205,set_tempo,,,,,115,1,0,,615384,,,,,,,
32215,control_change,,,,,25,0,1,,,,,0,64,0,,
32220,note_on,,,,,15,0,2,,,,,0,,,74,55
32220,note_on,,,,,0,0,2,,,,,0,,,66,55
32220,note_on,,,,,5,0,1,,,,,0,,,90,0
32220,control_change,,,,,0,0,1,,,,,0,64,96,,
32220,note_on,,,,,0,0,1,,,,,0,,,98,74
32245,set_tempo,,,,,40,1,0,,631578,,,,,,,
32250,note_on,,,,,30,0,1,,,,,0,,,98,0
32250,note_on,,,,,0,0,1,,,,,0,,,97,67
32270,set_tempo,,,,,25,1,0,,634920,,,,,,,
32272,note_on,,,,,52,0,2,,,,,0,,,66,0
32272,note_on,,,,,0,0,2,,,,,0,,,74,0
32280,note_on,,,,,8,0,2,,,,,0,,,74,45
32280,note_on,,,,,0,0,2,,,,,0,,,66,45
32280,note_on,,,,,30,0,1,,,,,0,,,97,0
32280,set_tempo,,,,,10,1,0,,652173,,,,,,,
32280,note_on,,,,,0,0,1,,,,,0,,,95,61
32310,note_on,,,,,30,0,1,,,,,0,,,95,0
32310,note_on,,,,,0,0,1,,,,,0,,,93,53
32325,note_on,,,,,45,0,2,,,,,0,,,66,0
32325,note_on,,,,,0,0,2,,,,,0,,,74,0
32340,note_on,,,,,15,0,2,,,,,0,,,74,43
32340,note_on,,,,,0,0,1,,,,,0,,,91,49
32340,note_on,,,,,0,0,2,,,,,0,,,66,43
32340,note_on,,,,,30,0,1,,,,,0,,,93,0
32370,note_on,,,,,30,0,1,,,,,0,,,91,0
32370,note_on,,,,,0,0,1,,,,,0,,,90,49
32373,set_tempo,,,,,93,1,0,,705882,,,,,,,
32385,note_on,,,,,45,0,2,,,,,0,,,66,0
32385,note_on,,,,,0,0,2,,,,,0,,,74,0
32390,set_tempo,,,,,17,1,0,,991735,,,,,,,
32395,control_change,,,,,25,0,1,,,,,0,64,0,,
32400,control_change,,,,,0,0,1,,,,,0,64,95,,
32400,note_on,,,,,15,0,2,,,,,0,,,57,51
32400,note_on,,,,,0,0,1,,,,,0,,,83,49
32400,set_tempo,,,,,10,1,0,,666666,,,,,,,
32400,note_on,,,,,5,0,1,,,,,0,,,90,0
32430,note_on,,,,,0,0,1,,,,,0,,,95,53
32430,note_on,,,,,30,0,1,,,,,0,,,83,0
32460,note_on,,,,,30,0,1,,,,,0,,,95,0
32460,note_on,,,,,60,0,2,,,,,0,,,76,46
32460,note_on,,,,,0,0,2,,,,,0,,,67,46
32460,note_on,,,,,0,0,1,,,,,0,,,94,56
32465,set_tempo,,,,,65,1,0,,648648,,,,,,,
32490,note_on,,,,,0,0,1,,,,,0,,,95,59
32490,note_on,,,,,30,0,1,,,,,0,,,94,0
32520,note_on,,,,,0,0,1,,,,,0,,,91,61
32520,note_on,,,,,30,0,1,,,,,0,,,95,0
32545,set_tempo,,,,,80,1,0,,631578,,,,,,,
32550,note_on,,,,,30,0,1,,,,,0,,,91,0
32550,note_on,,,,,0,0,1,,,,,0,,,88,64
32575,control_change,,,,,25,0,1,,,,,0,64,0,,
32580,note_on,,,,,120,0,2,,,,,0,,,67,0
32580,note_on,,,,,0,0,1,,,,,0,,,85,64
32580,control_change,,,,,0,0,1,,,,,0,64,95,,
32580,note_on,,,,,0,0,2,,,,,0,,,57,45
32580,note_on,,,,,0,0,2,,,,,0,,,57,0
32580,note_on,,,,,0,0,2,,,,,0,,,76,0
32580,note_on,,,,,5,0,1,,,,,0,,,88,0
32610,note_on,,,,,30,0,1,,,,,0,,,85,0
32610,note_on,,,,,0,0,1,,,,,0,,,93,62
32630,set_tempo,,,,,85,1,0,,618556,,,,,,,
32640,note_on,,,,,30,0,1,,,,,0,,,93,0
32640,note_on,,,,,60,0,2,,,,,0,,,69,42
32640,note_on,,,,,0,0,2,,,,,0,,,78,42
32640,note_on,,,,,0,0,1,,,,,0,,,92,56
32670,note_on,,,,,30,0,1,,,,,0,,,92,0
32670,note_on,,,,,0,0,1,,,,,0,,,93,49
32700,note_on,,,,,0,0,1,,,,,0,,,85,47
32700,note_on,,,,,30,0,1,,,,,0,,,93,0
32730,note_on,,,,,30,0,1,,,,,0,,,85,0
32730,note_on,,,,,0,0,1,,,,,0,,,93,45
32745,set_tempo,,,,,115,1,0,,606060,,,,,,,
32750,control_change,,,,,20,0,1,,,,,0,64,0,,
32760,note_on,,,,,0,0,1,,,,,0,,,85,45
32760,note_on,,,,,0,0,2,,,,,0,,,50,44
32760,note_on,,,,,0,0,2,,,,,0,,,57,0
32760,note_on,,,,,0,0,2,,,,,0,,,69,0
32760,note_on,,,,,120,0,2,,,,,0,,,78,0
32760,note_on,,,,,10,0,1,,,,,0,,,93,0
32760,control_change,,,,,0,0,1,,,,,0,64,95,,
32790,note_on,,,,,0,0,1,,,,,0,,,86,45
32790,note_on,,,,,30,0,1,,,,,0,,,85,0
32805,note_on,,,,,45,0,2,,,,,0,,,50,0
32820,note_on,,,,,30,0,1,,,,,0,,,86,0
32820,note_on,,,,,15,0,2,,,,,0,,,64,48
32820,note_on,,,,,0,0,2,,,,,0,,,73,48
32820,note_on,,,,,0,0,1,,,,,0,,,88,46
32850,note_on,,,,,30,0,1,,,,,0,,,88,0
32850,note_on,,,,,0,0,1,,,,,0,,,86,49
32880,note_on,,,,,30,0,1,,,,,0,,,86,0
32880,note_on,,,,,0,0,1,,,,,0,,,98,52
32880,note_on,,,,,0,0,2,,,,,0,,,74,52
32880,note_on,,,,,60,0,2,,,,,0,,,73,0
32880,note_on,,,,,0,0,2,,,,,0,,,64,0
32880,note_on,,,,,0,0,2,,,,,0,,,66,52
32895,set_tempo,,,,,150,1,0,,582524,,,,,,,
32910,note_on,,,,,0,0,1,,,,,0,,,97,58
32910,note_on,,,,,30,0,1,,,,,0,,,98,0
32925,note_on,,,,,0,0,2,,,,,0,,,74,0
32925,note_on,,,,,45,0,2,,,,,0,,,66,0
32935,control_change,,,,,25,0,1,,,,,0,64,0,,
32940,note_on,,,,,0,0,2,,,,,0,,,66,48
32940,control_change,,,,,0,0,1,,,,,0,64,96,,
32940,note_on,,,,,0,0,1,,,,,0,,,95,63
32940,note_on,,,,,5,0,1,,,,,0,,,97,0
32940,note_on,,,,,15,0,2,,,,,0,,,74,48
32970,note_on,,,,,0,0,1,,,,,0,,,93,56
32970,note_on,,,,,30,0,1,,,,,0,,,95,0
32990,set_tempo,,,,,95,1,0,,571428,,,,,,,
32992,note_on,,,,,52,0,2,,,,,0,,,66,0
32992,note_on,,,,,0,0,2,,,,,0,,,74,0
33000,note_on,,,,,8,0,2,,,,,0,,,74,43
33000,note_on,,,,,0,0,2,,,,,0,,,66,43
33000,note_on,,,,,30,0,1,,,,,0,,,93,0
33000,note_on,,,,,0,0,1,,,,,0,,,91,53
33030,note_on,,,,,30,0,1,,,,,0,,,91,0
33030,note_on,,,,,0,0,1,,,,,0,,,90,56
33045,note_on,,,,,45,0,2,,,,,0,,,66,0
33045,note_on,,,,,0,0,2,,,,,0,,,74,0
33060,note_on,,,,,0,0,2,,,,,0,,,66,39
33060,note_on,,,,,15,0,2,,,,,0,,,74,39
33060,note_on,,,,,0,0,1,,,,,0,,,88,60
33060,note_on,,,,,30,0,1,,,,,0,,,90,0
33090,note_on,,,,,0,0,1,,,,,0,,,86,63
33090,note_on,,,,,30,0,1,,,,,0,,,88,0
33090,set_tempo,,,,,100,1,0,,560747,,,,,,,
33105,note_on,,,,,45,0,2,,,,,0,,,66,0
33105,note_on,,,,,0,0,2,,,,,0,,,74,0
33115,control_change,,,,,25,0,1,,,,,0,64,0,,
33120,note_on,,,,,5,0,1,,,,,0,,,86,0
33120,note_on,,,,,0,0,1,,,,,0,,,85,65
33150,note_on,,,,,30,0,1,,,,,0,,,85,0
33150,note_on,,,,,0,0,1,,,,,0,,,83,67
33165,set_tempo,,,,,75,1,0,,558139,,,,,,,
33180,note_on,,,,,30,0,1,,,,,0,,,83,0
33180,note_on,,,,,0,0,1,,,,,0,,,81,72
33210,note_on,,,,,30,0,1,,,,,0,,,81,0
33210,note_on,,,,,0,0,1,,,,,0,,,79,74
33210,set_tempo,,,,,45,1,0,,547945,,,,,,,
33240,note_on,,,,,0,0,1,,,,,0,,,78,76
33240,note_on,,,,,30,0,1,,,,,0,,,79,0
33270,note_on,,,,,30,0,1,,,,,0,,,78,0
33270,note_on,,,,,0,0,1,,,,,0,,,76,79
33290,set_tempo,,,,,80,1,0,,542986,,,,,,,
33295,set_tempo,,,,,5,1,0,,533333,,,,,,,
33300,note_on,,,,,30,0,1,,,,,0,,,76,0
33300,note_on,,,,,0,0,1,,,,,0,,,74,81
33330,note_on,,,,,30,0,1,,,,,0,,,74,0
33330,note_on,,,,,0,0,1,,,,,0,,,73,84
33360,note_on,,,,,30,0,1,,,,,0,,,73,0
33360,note_on,,,,,0,0,1,,,,,0,,,71,88
33390,note_on,,,,,30,0,1,,,,,0,,,71,0
33390,note_on,,,,,0,0,1,,,,,0,,,69,90
33395,set_tempo,,,,,100,1,0,,526315,,,,,,,
33420,note_on,,,,,30,0,1,,,,,0,,,69,0
33420,note_on,,,,,0,0,1,,,,,0,,,67,92
33450,note_on,,,,,0,0,1,,,,,0,,,66,96
33450,note_on,,,,,30,0,1,,,,,0,,,67,0
33470,set_tempo,,,,,75,1,0,,510638,,,,,,,
33480,note_on,,,,,375,0,2,,,,,0,,,64,92
33480,note_on,,,,,30,0,1,,,,,0,,,66,0
33480,note_on,,,,,0,0,1,,,,,0,,,76,97
33510,note_on,,,,,30,0,1,,,,,0,,,76,0
33510,note_on,,,,,0,0,1,,,,,0,,,74,102
33510,note_on,,,,,0,0,2,,,,,0,,,62,94
33510,note_on,,,,,30,0,2,,,,,0,,,64,0
33540,note_on,,,,,0,0,2,,,,,0,,,61,95
33540,note_on,,,,,30,0,2,,,,,0,,,62,0
33540,note_on,,,,,0,0,1,,,,,0,,,73,106
33540,note_on,,,,,30,0,1,,,,,0,,,74,0
33550,set_tempo,,,,,80,1,0,,506329,,,,,,,
33570,note_on,,,,,0,0,1,,,,,0,,,71,108
33570,note_on,,,,,30,0,1,,,,,0,,,73,0
33570,note_on,,,,,0,0,2,,,,,0,,,59,97
33570,note_on,,,,,30,0,2,,,,,0,,,61,0
33600,note_on,,,,,30,0,1,,,,,0,,,71,0
33600,note_on,,,,,0,0,1,,,,,0,,,69,112
33600,note_on,,,,,0,0,2,,,,,0,,,57,100
33600,note_on,,,,,30,0,2,,,,,0,,,59,0
33630,note_on,,,,,30,0,2,,,,,0,,,57,0
33630,note_on,,,,,0,0,2,,,,,0,,,55,104
33630,note_on,,,,,0,0,1,,,,,0,,,67,116
33630,note_on,,,,,30,0,1,,,,,0,,,69,0
33660,note_on,,,,,30,0,1,,,,,0,,,67,0
33660,note_on,,,,,30,0,2,,,,,0,,,55,0
33660,note_on,,,,,0,0,1,,,,,0,,,66,118
33660,note_on,,,,,0,0,2,,,,,0,,,54,106
33680,set_tempo,,,,,130,1,0,,500000,,,,,,,
33690,note_on,,,,,30,0,2,,,,,0,,,54,0
33690,note_on,,,,,0,0,2,,,,,0,,,52,110
33690,note_on,,,,,0,0,1,,,,,0,,,64,121
33690,note_on,,,,,30,0,1,,,,,0,,,66,0
33720,note_on,,,,,30,0,2,,,,,0,,,52,0
33720,note_on,,,,,0,0,2,,,,,0,,,50,113
33720,note_on,,,,,30,0,1,,,,,0,,,64,0
33720,note_on,,,,,0,0,1,,,,,0,,,62,126
33750,note_on,,,,,30,0,2,,,,,0,,,50,0
33750,note_on,,,,,0,0,2,,,,,0,,,49,117
33750,note_on,,,,,0,0,1,,,,,0,,,61,127
33750,note_on,,,,,30,0,1,,,,,0,,,62,0
33775,set_tempo,,,,,95,1,0,,493827,,,,,,,
33780,note_on,,,,,30,0,1,,,,,0,,,61,0
33780,note_on,,,,,0,0,1,,,,,0,,,59,127
33780,note_on,,,,,0,0,2,,,,,0,,,47,118
33780,note_on,,,,,30,0,2,,,,,0,,,49,0
33810,note_on,,,,,30,0,2,,,,,0,,,47,0
33810,note_on,,,,,0,0,2,,,,,0,,,45,122
33810,note_on,,,,,30,0,1,,,,,0,,,59,0
33810,note_on,,,,,0,0,1,,,,,0,,,57,127
33840,note_on,,,,,30,0,1,,,,,0,,,57,0
33840,note_on,,,,,0,0,1,,,,,0,,,56,127
33840,control_change,,,,,0,0,1,,,,,0,64,95,,
33840,note_on,,,,,30,0,2,,,,,0,,,45,0
33840,note_on,,,,,0,0,2,,,,,0,,,44,126
33880,set_tempo,,,,,105,1,0,,508474,,,,,,,
33900,note_on,,,,,60,0,2,,,,,0,,,44,0
33900,note_on,,,,,60,0,1,,,,,0,,,56,0
33910,set_tempo,,,,,30,1,0,,535714,,,,,,,
33930,note_on,,,,,30,0,1,,,,,0,,,56,127
33930,note_on,,,,,0,0,1,,,,,0,,,58,127
33930,note_on,,,,,0,0,1,,,,,0,,,62,127
33930,note_on,,,,,0,0,1,,,,,0,,,64,127
33930,note_on,,,,,30,0,2,,,,,0,,,44,126
33930,note_on,,,,,0,0,2,,,,,0,,,47,126
33930,note_on,,,,,0,0,2,,,,,0,,,50,126
33930,note_on,,,,,0,0,2,,,,,0,,,52,126
33950,set_tempo,,,,,40,1,0,,571428,,,,,,,
33955,note_on,,,,,0,0,1,,,,,0,,,56,0
33955,note_on,,,,,0,0,2,,,,,0,,,44,0
33955,note_on,,,,,25,0,2,,,,,0,,,52,0
33955,note_on,,,,,0,0,2,,,,,0,,,47,0
33955,note_on,,,,,0,0,2,,,,,0,,,50,0
33955,note_on,,,,,0,0,1,,,,,0,,,62,0
33955,note_on,,,,,25,0,1,,,,,0,,,64,0
33955,note_on,,,,,0,0,1,,,,,0,,,58,0
33960,note_on,,,,,0,0,1,,,,,0,,,56,127
33960,note_on,,,,,0,0,1,,,,,0,,,64,127
33960,note_on,,,,,5,0,1,,,,,0,,,62,127
33960,note_on,,,,,0,0,1,,,,,0,,,59,127
33960,note_on,,,,,0,0,2,,,,,0,,,47,127
33960,note_on,,,,,0,0,2,,,,,0,,,50,127
33960,note_on,,,,,5,0,2,,,,,0,,,52,127
33960,note_on,,,,,0,0,2,,,,,0,,,44,127
34005,set_tempo,,,,,55,1,0,,609137,,,,,,,
34010,set_tempo,,,,,5,1,0,,597014,,,,,,,
34013,set_tempo,,,,,3,1,0,,615384,,,,,,,
34500,control_change,,,,,540,0,1,,,,,0,64,0,,
34515,note_on,,,,,0,0,1,,,,,0,,,59,0
34515,note_on,,,,,555,0,2,,,,,0,,,44,0
34515,note_on,,,,,15,0,1,,,,,0,,,56,0
34515,note_on,,,,,0,0,2,,,,,0,,,47,0
34515,note_on,,,,,0,0,2,,,,,0,,,50,0
34515,note_on,,,,,0,0,2,,,,,0,,,52,0
34515,note_on,,,,,0,0,1,,,,,0,,,64,0
34515,note_on,,,,,0,0,1,,,,,0,,,62,0
34530,set_tempo,,,,,517,1,0,,2000000,,,,,,,
34560,note_on,,,,,0,0,1,,,,,0,,,76,41
34560,control_change,,,,,45,0,1,,,,,0,64,95,,
34560,note_on,,,,,45,0,2,,,,,0,,,44,31
34560,set_tempo,,,,,30,1,0,,628272,,,,,,,
34620,note_on,,,,,60,0,1,,,,,0,,,64,36
34650,note_on,,,,,30,0,1,,,,,0,,,64,0
34650,note_on,,,,,0,0,1,,,,,0,,,71,35
34660,set_tempo,,,,,100,1,0,,612244,,,,,,,
34680,note_on,,,,,30,0,1,,,,,0,,,71,0
34680,note_on,,,,,0,0,1,,,,,0,,,74,35
34700,set_tempo,,,,,40,1,0,,606060,,,,,,,
34725,note_on,,,,,45,0,1,,,,,0,,,74,0
34735,control_change,,,,,10,0,1,,,,,0,64,0,,
34740,note_on,,,,,0,0,1,,,,,0,,,77,41
34740,note_on,,,,,180,0,2,,,,,0,,,44,0
34740,note_on,,,,,0,0,2,,,,,0,,,40,35
34740,note_on,,,,,5,0,1,,,,,0,,,76,0
34740,control_change,,,,,0,0,1,,,,,0,64,95,,
34800,note_on,,,,,60,0,1,,,,,0,,,68,37
34830,note_on,,,,,30,0,1,,,,,0,,,68,0
34830,note_on,,,,,0,0,1,,,,,0,,,71,35
34860,note_on,,,,,30,0,1,,,,,0,,,71,0
34860,note_on,,,,,0,0,1,,,,,0,,,74,34
34875,set_tempo,,,,,175,1,0,,582524,,,,,,,
34905,note_on,,,,,45,0,1,,,,,0,,,74,0
34915,control_change,,,,,10,0,1,,,,,0,64,0,,
34920,note_on,,,,,5,0,1,,,,,0,,,77,0
34920,control_change,,,,,0,0,1,,,,,0,64,95,,
34920,note_on,,,,,0,0,1,,,,,0,,,76,46
34920,note_on,,,,,180,0,2,,,,,0,,,40,0
34920,note_on,,,,,0,0,2,,,,,0,,,45,41
34935,set_tempo,,,,,60,1,0,,585365,,,,,,,
34980,note_on,,,,,60,0,1,,,,,0,,,67,42
35010,note_on,,,,,30,0,1,,,,,0,,,67,0
35010,note_on,,,,,0,0,1,,,,,0,,,69,46
35040,note_on,,,,,0,0,1,,,,,0,,,74,51
35040,note_on,,,,,30,0,1,,,,,0,,,69,0
35085,note_on,,,,,45,0,1,,,,,0,,,74,0
35090,set_tempo,,,,,155,1,0,,574162,,,,,,,
35095,set_tempo,,,,,5,1,0,,571428,,,,,,,
35095,control_change,,,,,10,0,1,,,,,0,64,0,,
35100,note_on,,,,,0,0,2,,,,,0,,,33,51
35100,note_on,,,,,5,0,1,,,,,0,,,76,0
35100,control_change,,,,,0,0,1,,,,,0,64,95,,
35100,note_on,,,,,0,0,1,,,,,0,,,81,50
35100,note_on,,,,,180,0,2,,,,,0,,,45,0
35160,note_on,,,,,60,0,1,,,,,0,,,67,53
35190,note_on,,,,,30,0,1,,,,,0,,,67,0
35190,note_on,,,,,0,0,1,,,,,0,,,69,51
35220,note_on,,,,,30,0,1,,,,,0,,,69,0
35220,note_on,,,,,0,0,1,,,,,0,,,73,48
35265,note_on,,,,,165,0,2,,,,,0,,,33,0
35265,note_on,,,,,45,0,1,,,,,0,,,73,0
35265,note_on,,,,,0,0,1,,,,,0,,,81,0
35275,control_change,,,,,10,0,1,,,,,0,64,0,,
35280,control_change,,,,,5,0,1,,,,,0,64,95,,
35280,note_on,,,,,15,0,2,,,,,0,,,34,53
35280,note_on,,,,,0,0,1,,,,,0,,,78,59
35315,set_tempo,,,,,220,1,0,,574162,,,,,,,
35340,note_on,,,,,60,0,1,,,,,0,,,76,53
35370,note_on,,,,,30,0,1,,,,,0,,,76,0
35370,note_on,,,,,0,0,1,,,,,0,,,73,50
35395,set_tempo,,,,,80,1,0,,579710,,,,,,,
35400,note_on,,,,,30,0,1,,,,,0,,,73,0
35400,note_on,,,,,0,0,1,,,,,0,,,66,45
35445,note_on,,,,,45,0,1,,,,,0,,,66,0
35455,control_change,,,,,10,0,1,,,,,0,64,0,,
35460,note_on,,,,,0,0,1,,,,,0,,,75,54
35460,control_change,,,,,0,0,1,,,,,0,64,95,,
35460,note_on,,,,,180,0,2,,,,,0,,,34,0
35460,note_on,,,,,0,0,2,,,,,0,,,35,50
35460,note_on,,,,,5,0,1,,,,,0,,,78,0
35490,set_tempo,,,,,95,1,0,,591133,,,,,,,
35520,note_on,,,,,60,0,1,,,,,0,,,72,50
35550,note_on,,,,,30,0,1,,,,,0,,,72,0
35550,note_on,,,,,0,0,1,,,,,0,,,69,47
35580,note_on,,,,,0,0,1,,,,,0,,,66,44
35580,note_on,,,,,30,0,1,,,,,0,,,69,0
35615,set_tempo,,,,,125,1,0,,600000,,,,,,,
35625,note_on,,,,,45,0,1,,,,,0,,,66,0
35635,control_change,,,,,10,0,1,,,,,0,64,0,,
35640,note_on,,,,,5,0,1,,,,,0,,,75,0
35640,note_on,,,,,0,0,1,,,,,0,,,76,48
35640,note_on,,,,,0,0,2,,,,,0,,,32,46
35640,note_on,,,,,180,0,2,,,,,0,,,35,0
35640,control_change,,,,,0,0,1,,,,,0,64,96,,
35700,note_on,,,,,60,0,1,,,,,0,,,74,43
35730,note_on,,,,,30,0,1,,,,,0,,,74,0
35730,note_on,,,,,0,0,1,,,,,0,,,71,40
35760,note_on,,,,,30,0,1,,,,,0,,,71,0
35760,note_on,,,,,0,0,1,,,,,0,,,64,38
35805,note_on,,,,,45,0,1,,,,,0,,,64,0
35815,control_change,,,,,10,0,1,,,,,0,64,0,,
35820,note_on,,,,,0,0,2,,,,,0,,,33,39
35820,note_on,,,,,180,0,2,,,,,0,,,32,0
35820,note_on,,,,,5,0,1,,,,,0,,,76,0
35820,control_change,,,,,0,0,1,,,,,0,64,95,,
35820,note_on,,,,,0,0,1,,,,,0,,,73,41
35855,set_tempo,,,,,240,1,0,,606060,,,,,,,
35880,note_on,,,,,60,0,1,,,,,0,,,70,44
35910,note_on,,,,,30,0,1,,,,,0,,,70,0
35910,note_on,,,,,0,0,1,,,,,0,,,67,39
35940,note_on,,,,,0,0,1,,,,,0,,,64,37
35940,note_on,,,,,30,0,1,,,,,0,,,67,0
35985,note_on,,,,,45,0,1,,,,,0,,,64,0
35985,note_on,,,,,0,0,1,,,,,0,,,73,0
35985,note_on,,,,,165,0,2,,,,,0,,,33,0
35995,control_change,,,,,10,0,1,,,,,0,64,0,,
36000,control_change,,,,,5,0,1,,,,,0,64,95,,
36000,note_on,,,,,0,0,1,,,,,0,,,74,40
36000,note_on,,,,,15,0,2,,,,,0,,,30,39
36060,note_on,,,,,60,0,1,,,,,0,,,72,41
36090,note_on,,,,,30,0,1,,,,,0,,,72,0
36090,note_on,,,,,0,0,1,,,,,0,,,69,40
36110,set_tempo,,,,,255,1,0,,618556,,,,,,,
36120,note_on,,,,,0,0,1,,,,,0,,,62,37
36120,note_on,,,,,30,0,1,,,,,0,,,69,0
36150,note_on,,,,,30,0,1,,,,,0,,,62,0
36165,note_on,,,,,15,0,1,,,,,0,,,74,0
36175,control_change,,,,,10,0,1,,,,,0,64,0,,
36180,note_on,,,,,0,0,1,,,,,0,,,74,41
36180,control_change,,,,,5,0,1,,,,,0,64,95,,
36180,note_on,,,,,0,0,2,,,,,0,,,31,39
36180,note_on,,,,,180,0,2,,,,,0,,,30,0
36240,note_on,,,,,60,0,1,,,,,0,,,71,39
36270,note_on,,,,,0,0,1,,,,,0,,,67,35
36270,note_on,,,,,30,0,1,,,,,0,,,71,0
36300,note_on,,,,,30,0,1,,,,,0,,,67,0
36300,note_on,,,,,0,0,1,,,,,0,,,62,35
36330,note_on,,,,,30,0,1,,,,,0,,,62,0
36340,set_tempo,,,,,230,1,0,,634920,,,,,,,
36345,note_on,,,,,15,0,1,,,,,0,,,74,0
36355,control_change,,,,,10,0,1,,,,,0,64,0,,
36360,note_on,,,,,180,0,2,,,,,0,,,31,0
36360,note_on,,,,,0,0,1,,,,,0,,,74,43
36360,control_change,,,,,5,0,1,,,,,0,64,96,,
36360,note_on,,,,,0,0,2,,,,,0,,,33,44
36375,set_tempo,,,,,35,1,0,,638297,,,,,,,
36420,note_on,,,,,60,0,1,,,,,0,,,66,33
36450,note_on,,,,,30,0,1,,,,,0,,,66,0
36450,note_on,,,,,0,0,1,,,,,0,,,69,37
36480,note_on,,,,,30,0,1,,,,,0,,,69,0
36480,note_on,,,,,0,0,1,,,,,0,,,71,41
36510,note_on,,,,,30,0,1,,,,,0,,,71,0
36510,note_on,,,,,0,0,1,,,,,0,,,69,43
36525,note_on,,,,,165,0,2,,,,,0,,,33,0
36535,note_on,,,,,25,0,1,,,,,0,,,69,0
36535,control_change,,,,,0,0,1,,,,,0,64,0,,
36540,note_on,,,,,15,0,2,,,,,0,,,33,37
36540,note_on,,,,,5,0,1,,,,,0,,,74,0
36540,control_change,,,,,0,0,1,,,,,0,64,96,,
36540,note_on,,,,,0,0,1,,,,,0,,,73,41
36600,note_on,,,,,60,0,1,,,,,0,,,71,42
36630,note_on,,,,,30,0,1,,,,,0,,,71,0
36630,note_on,,,,,0,0,1,,,,,0,,,67,40
36640,set_tempo,,,,,265,1,0,,645161,,,,,,,
36660,note_on,,,,,30,0,1,,,,,0,,,67,0
36660,note_on,,,,,0,0,1,,,,,0,,,66,37
36690,note_on,,,,,0,0,1,,,,,0,,,67,34
36690,note_on,,,,,30,0,1,,,,,0,,,66,0
36705,note_on,,,,,15,0,1,,,,,0,,,73,0
36705,note_on,,,,,165,0,2,,,,,0,,,33,0
36715,note_on,,,,,10,0,1,,,,,0,,,67,0
36715,control_change,,,,,0,0,1,,,,,0,64,1,,
36720,control_change,,,,,5,0,1,,,,,0,64,95,,
36720,note_on,,,,,0,0,1,,,,,0,,,74,38
36720,note_on,,,,,15,0,2,,,,,0,,,33,37
36780,note_on,,,,,60,0,1,,,,,0,,,66,32
36810,note_on,,,,,30,0,1,,,,,0,,,66,0
36810,note_on,,,,,0,0,1,,,,,0,,,69,32
36820,set_tempo,,,,,180,1,0,,655737,,,,,,,
36840,note_on,,,,,30,0,1,,,,,0,,,69,0
36840,note_on,,,,,0,0,1,,,,,0,,,71,37
36870,note_on,,,,,30,0,1,,,,,0,,,71,0
36870,note_on,,,,,0,0,1,,,,,0,,,69,39
36885,set_tempo,,,,,65,1,0,,666666,,,,,,,
36885,note_on,,,,,165,0,2,,,,,0,,,33,0
36895,note_on,,,,,25,0,1,,,,,0,,,69,0
36900,note_on,,,,,15,0,2,,,,,0,,,33,35
36900,note_on,,,,,5,0,1,,,,,0,,,74,0
36900,note_on,,,,,0,0,1,,,,,0,,,73,35
36900,control_change,,,,,0,0,1,,,,,0,64,95,,
36950,set_tempo,,,,,65,1,0,,689655,,,,,,,
36960,note_on,,,,,60,0,1,,,,,0,,,71,41
36990,note_on,,,,,0,0,1,,,,,0,,,67,39
36990,note_on,,,,,30,0,1,,,,,0,,,71,0
37020,note_on,,,,,30,0,1,,,,,0,,,67,0
37020,note_on,,,,,0,0,1,,,,,0,,,66,36
37020,set_tempo,,,,,70,1,0,,705882,,,,,,,
37050,note_on,,,,,30,0,1,,,,,0,,,66,0
37050,note_on,,,,,0,0,1,,,,,0,,,67,34
37060,set_tempo,,,,,40,1,0,,731707,,,,,,,
37080,note_on,,,,,30,0,1,,,,,0,,,67,0
37080,note_on,,,,,0,0,1,,,,,0,,,73,0
37080,note_on,,,,,0,0,1,,,,,0,,,66,33
37080,note_on,,,,,0,0,1,,,,,0,,,74,33
37080,note_on,,,,,180,0,2,,,,,0,,,33,0
37080,control_change,,,,,0,0,1,,,,,0,64,95,,
37080,note_on,,,,,0,0,2,,,,,0,,,38,33
37105,set_tempo,,,,,45,1,0,,764331,,,,,,,
37130,set_tempo,,,,,25,1,0,,2142857,,,,,,,
37132,note_on,,,,,52,0,1,,,,,0,,,74,0
37132,note_on,,,,,0,0,1,,,,,0,,,66,0
37132,note_on,,,,,52,0,2,,,,,0,,,38,0
37140,set_tempo,,,,,10,1,0,,603015,,,,,,,
37140,note_on,,,,,8,0,1,,,,,0,,,85,46
37155,set_tempo,,,,,15,1,0,,603015,,,,,,,
37170,note_on,,,,,0,0,1,,,,,0,,,86,49
37170,note_on,,,,,30,0,1,,,,,0,,,85,0
37200,note_on,,,,,0,0,1,,,,,0,,,98,52
37200,note_on,,,,,30,0,1,,,,,0,,,86,0
37200,set_tempo,,,,,45,1,0,,585365,,,,,,,
37230,note_on,,,,,0,0,1,,,,,0,,,97,58
37230,note_on,,,,,30,0,1,,,,,0,,,98,0
37255,control_change,,,,,25,0,1,,,,,0,64,0,,
37260,note_on,,,,,5,0,1,,,,,0,,,97,0
37260,note_on,,,,,0,0,1,,,,,0,,,95,63
37260,control_change,,,,,0,0,1,,,,,0,64,96,,
37285,set_tempo,,,,,85,1,0,,574162,,,,,,,
37290,note_on,,,,,30,0,1,,,,,0,,,95,0
37290,note_on,,,,,0,0,1,,,,,0,,,93,56
37320,note_on,,,,,30,0,1,,,,,0,,,93,0
37320,note_on,,,,,0,0,1,,,,,0,,,91,53
37350,note_on,,,,,30,0,1,,,,,0,,,91,0
37350,note_on,,,,,0,0,1,,,,,0,,,90,56
37380,note_on,,,,,0,0,1,,,,,0,,,88,60
37380,note_on,,,,,30,0,1,,,,,0,,,90,0
37380,set_tempo,,,,,95,1,0,,566037,,,,,,,
37410,note_on,,,,,30,0,1,,,,,0,,,88,0
37410,note_on,,,,,0,0,1,,,,,0,,,86,63
37435,control_change,,,,,25,0,1,,,,,0,64,0,,
37440,note_on,,,,,0,0,1,,,,,0,,,85,65
37440,note_on,,,,,5,0,1,,,,,0,,,86,0
37465,set_tempo,,,,,85,1,0,,555555,,,,,,,
37470,note_on,,,,,0,0,1,,,,,0,,,83,67
37470,note_on,,,,,30,0,1,,,,,0,,,85,0
37480,set_tempo,,,,,15,1,0,,552995,,,,,,,
37500,note_on,,,,,0,0,1,,,,,0,,,81,72
37500,note_on,,,,,30,0,1,,,,,0,,,83,0
37530,note_on,,,,,0,0,1,,,,,0,,,79,74
37530,note_on,,,,,30,0,1,,,,,0,,,81,0
37560,note_on,,,,,30,0,1,,,,,0,,,79,0
37560,note_on,,,,,0,0,1,,,,,0,,,78,76
37590,note_on,,,,,0,0,1,,,,,0,,,76,79
37590,note_on,,,,,30,0,1,,,,,0,,,78,0
37600,set_tempo,,,,,120,1,0,,538116,,,,,,,
37620,note_on,,,,,0,0,1,,,,,0,,,74,81
37620,note_on,,,,,30,0,1,,,,,0,,,76,0
37650,note_on,,,,,0,0,1,,,,,0,,,73,84
37650,note_on,,,,,30,0,1,,,,,0,,,74,0
37680,note_on,,,,,0,0,1,,,,,0,,,71,88
37680,note_on,,,,,30,0,1,,,,,0,,,73,0
37710,note_on,,,,,0,0,1,,,,,0,,,69,90
37710,note_on,,,,,30,0,1,,,,,0,,,71,0
37710,set_tempo,,,,,110,1,0,,530973,,,,,,,
37735,set_tempo,,,,,25,1,0,,521739,,,,,,,
37740,note_on,,,,,30,0,1,,,,,0,,,69,0
37740,note_on,,,,,0,0,1,,,,,0,,,67,92
37770,note_on,,,,,0,0,1,,,,,0,,,66,96
37770,note_on,,,,,30,0,1,,,,,0,,,67,0
37785,set_tempo,,,,,50,1,0,,515021,,,,,,,
37800,note_on,,,,,0,0,1,,,,,0,,,76,97
37800,note_on,,,,,30,0,1,,,,,0,,,66,0
37800,note_on,,,,,668,0,2,,,,,0,,,64,92
37830,note_on,,,,,0,0,1,,,,,0,,,74,102
37830,note_on,,,,,30,0,1,,,,,0,,,76,0
37830,note_on,,,,,0,0,2,,,,,0,,,62,94
37830,note_on,,,,,30,0,2,,,,,0,,,64,0
37860,note_on,,,,,0,0,1,,,,,0,,,73,106
37860,set_tempo,,,,,75,1,0,,506329,,,,,,,
37860,note_on,,,,,30,0,1,,,,,0,,,74,0
37860,note_on,,,,,0,0,2,,,,,0,,,61,95
37860,note_on,,,,,30,0,2,,,,,0,,,62,0
37890,note_on,,,,,0,0,1,,,,,0,,,71,108
37890,note_on,,,,,30,0,1,,,,,0,,,73,0
37890,note_on,,,,,0,0,2,,,,,0,,,59,97
37890,note_on,,,,,30,0,2,,,,,0,,,61,0
37920,note_on,,,,,0,0,2,,,,,0,,,57,100
37920,note_on,,,,,30,0,2,,,,,0,,,59,0
37920,note_on,,,,,0,0,1,,,,,0,,,69,112
37920,note_on,,,,,30,0,1,,,,,0,,,71,0
37950,note_on,,,,,30,0,2,,,,,0,,,57,0
37950,note_on,,,,,0,0,2,,,,,0,,,55,104
37950,note_on,,,,,0,0,1,,,,,0,,,67,116
37950,note_on,,,,,30,0,1,,,,,0,,,69,0
37980,note_on,,,,,30,0,2,,,,,0,,,55,0
37980,note_on,,,,,0,0,2,,,,,0,,,54,106
37980,note_on,,,,,0,0,1,,,,,0,,,66,118
37980,note_on,,,,,30,0,1,,,,,0,,,67,0
37980,set_tempo,,,,,120,1,0,,497925,,,,,,,
38010,note_on,,,,,30,0,1,,,,,0,,,66,0
38010,note_on,,,,,30,0,2,,,,,0,,,54,0
38010,note_on,,,,,0,0,2,,,,,0,,,52,110
38010,note_on,,,,,0,0,1,,,,,0,,,64,121
38040,note_on,,,,,0,0,1,,,,,0,,,62,126
38040,note_on,,,,,30,0,1,,,,,0,,,64,0
38040,note_on,,,,,30,0,2,,,,,0,,,52,0
38040,note_on,,,,,0,0,2,,,,,0,,,50,113
38070,note_on,,,,,30,0,2,,,,,0,,,50,0
38070,note_on,,,,,30,0,1,,,,,0,,,62,0
38070,note_on,,,,,0,0,1,,,,,0,,,61,127
38070,note_on,,,,,0,0,2,,,,,0,,,49,117
38095,set_tempo,,,,,115,1,0,,491803,,,,,,,
38100,note_on,,,,,30,0,1,,,,,0,,,61,0
38100,note_on,,,,,30,0,2,,,,,0,,,49,0
38100,note_on,,,,,0,0,2,,,,,0,,,47,118
38100,note_on,,,,,0,0,1,,,,,0,,,59,127
38130,note_on,,,,,30,0,1,,,,,0,,,59,0
38130,note_on,,,,,0,0,1,,,,,0,,,57,127
38130,note_on,,,,,30,0,2,,,,,0,,,47,0
38130,note_on,,,,,0,0,2,,,,,0,,,45,122
38135,set_tempo,,,,,40,1,0,,493827,,,,,,,
38160,note_on,,,,,0,0,2,,,,,0,,,44,126
38160,note_on,,,,,30,0,2,,,,,0,,,45,0
38160,control_change,,,,,0,0,1,,,,,0,64,95,,
38160,note_on,,,,,0,0,1,,,,,0,,,56,127
38160,note_on,,,,,30,0,1,,,,,0,,,57,0
38200,set_tempo,,,,,65,1,0,,495867,,,,,,,
38205,set_tempo,,,,,5,1,0,,508474,,,,,,,
38210,set_tempo,,,,,5,1,0,,510638,,,,,,,
38220,note_on,,,,,60,0,2,,,,,0,,,44,0
38220,note_on,,,,,60,0,1,,,,,0,,,56,0
38240,set_tempo,,,,,30,1,0,,533333,,,,,,,
38250,note_on,,,,,0,0,2,,,,,0,,,47,126
38250,note_on,,,,,30,0,2,,,,,0,,,44,126
38250,note_on,,,,,0,0,2,,,,,0,,,52,126
38250,note_on,,,,,30,0,1,,,,,0,,,56,127
38250,note_on,,,,,0,0,1,,,,,0,,,58,127
38250,note_on,,,,,0,0,1,,,,,0,,,62,127
38250,note_on,,,,,0,0,1,,,,,0,,,64,127
38250,note_on,,,,,0,0,2,,,,,0,,,50,126
38260,set_tempo,,,,,20,1,0,,535714,,,,,,,
38265,set_tempo,,,,,5,1,0,,552995,,,,,,,
38275,note_on,,,,,0,0,2,,,,,0,,,50,0
38275,note_on,,,,,0,0,2,,,,,0,,,47,0
38275,note_on,,,,,0,0,2,,,,,0,,,44,0
38275,note_on,,,,,25,0,2,,,,,0,,,52,0
38275,note_on,,,,,25,0,1,,,,,0,,,64,0
38275,set_tempo,,,,,10,1,0,,555555,,,,,,,
38275,note_on,,,,,0,0,1,,,,,0,,,62,0
38275,note_on,,,,,0,0,1,,,,,0,,,56,0
38275,note_on,,,,,0,0,1,,,,,0,,,58,0
38280,note_on,,,,,0,0,2,,,,,0,,,47,127
38280,note_on,,,,,5,0,2,,,,,0,,,52,127
38280,note_on,,,,,0,0,2,,,,,0,,,50,127
38280,note_on,,,,,0,0,2,,,,,0,,,44,127
38280,note_on,,,,,5,0,1,,,,,0,,,64,127
38280,note_on,,,,,0,0,1,,,,,0,,,62,127
38280,note_on,,,,,0,0,1,,,,,0,,,56,127
38280,note_on,,,,,0,0,1,,,,,0,,,59,127
38290,set_tempo,,,,,15,1,0,,585365,,,,,,,
38315,set_tempo,,,,,25,1,0,,612244,,,,,,,
38333,set_tempo,,,,,18,1,0,,615384,,,,,,,
38820,control_change,,,,,540,0,1,,,,,0,64,0,,
38835,note_on,,,,,0,0,2,,,,,0,,,50,0
38835,note_on,,,,,0,0,2,,,,,0,,,52,0
38835,note_on,,,,,555,0,2,,,,,0,,,44,0
38835,note_on,,,,,15,0,1,,,,,0,,,56,0
38835,note_on,,,,,0,0,1,,,,,0,,,64,0
38835,note_on,,,,,0,0,1,,,,,0,,,62,0
38835,note_on,,,,,0,0,2,,,,,0,,,47,0
38835,note_on,,,,,0,0,1,,,,,0,,,59,0
38845,set_tempo,,,,,512,1,0,,615384,,,,,,,
38850,set_tempo,,,,,5,1,0,,612244,,,,,,,
38880,control_change,,,,,0,0,1,,,,,0,64,96,,
38880,note_on,,,,,45,0,1,,,,,0,,,55,127
38880,note_on,,,,,45,0,2,,,,,0,,,43,121
38930,set_tempo,,,,,80,1,0,,600000,,,,,,,
38940,note_on,,,,,60,0,2,,,,,0,,,43,0
38940,note_on,,,,,60,0,1,,,,,0,,,55,0
38970,note_on,,,,,30,0,1,,,,,0,,,55,127
38970,note_on,,,,,0,0,1,,,,,0,,,59,127
38970,note_on,,,,,0,0,1,,,,,0,,,65,127
38970,note_on,,,,,0,0,2,,,,,0,,,47,103
38970,note_on,,,,,0,0,1,,,,,0,,,62,127
38970,note_on,,,,,30,0,2,,,,,0,,,43,103
38970,note_on,,,,,0,0,2,,,,,0,,,50,103
38970,note_on,,,,,0,0,2,,,,,0,,,53,103
38995,note_on,,,,,0,0,1,,,,,0,,,62,0
38995,note_on,,,,,0,0,1,,,,,0,,,59,0
38995,note_on,,,,,0,0,1,,,,,0,,,55,0
38995,note_on,,,,,25,0,1,,,,,0,,,65,0
38995,note_on,,,,,25,0,2,,,,,0,,,53,0
38995,note_on,,,,,0,0,2,,,,,0,,,43,0
38995,note_on,,,,,0,0,2,,,,,0,,,47,0
38995,note_on,,,,,0,0,2,,,,,0,,,50,0
39000,note_on,,,,,0,0,1,,,,,0,,,65,127
39000,note_on,,,,,0,0,2,,,,,0,,,47,101
39000,note_on,,,,,0,0,2,,,,,0,,,50,101
39000,note_on,,,,,0,0,2,,,,,0,,,53,101
39000,note_on,,,,,0,0,1,,,,,0,,,62,127
39000,note_on,,,,,5,0,1,,,,,0,,,55,127
39000,note_on,,,,,0,0,1,,,,,0,,,59,127
39000,note_on,,,,,5,0,2,,,,,0,,,43,101
39010,set_tempo,,,,,80,1,0,,585365,,,,,,,
39065,set_tempo,,,,,55,1,0,,576923,,,,,,,
39130,set_tempo,,,,,65,1,0,,566037,,,,,,,
39200,set_tempo,,,,,70,1,0,,555555,,,,,,,
39225,note_on,,,,,0,0,1,,,,,0,,,59,0
39225,note_on,,,,,0,0,2,,,,,0,,,47,0
39225,note_on,,,,,0,0,2,,,,,0,,,43,0
39225,note_on,,,,,225,0,2,,,,,0,,,53,0
39225,note_on,,,,,225,0,1,,,,,0,,,65,0
39225,note_on,,,,,0,0,1,,,,,0,,,55,0
39225,note_on,,,,,0,0,1,,,,,0,,,62,0
39225,note_on,,,,,0,0,2,,,,,0,,,50,0
39235,control_change,,,,,10,0,1,,,,,0,64,0,,
39240,note_on,,,,,5,0,1,,,,,0,,,54,127
39240,control_change,,,,,0,0,1,,,,,0,64,96,,
39240,note_on,,,,,0,0,2,,,,,0,,,42,120
39240,note_on,,,,,15,0,2,,,,,0,,,30,120
39290,set_tempo,,,,,90,1,0,,545454,,,,,,,
39300,note_on,,,,,60,0,2,,,,,0,,,42,0
39300,note_on,,,,,0,0,2,,,,,0,,,30,0
39300,note_on,,,,,60,0,1,,,,,0,,,54,0
39330,note_on,,,,,0,0,1,,,,,0,,,57,127
39330,note_on,,,,,30,0,2,,,,,0,,,42,108
39330,note_on,,,,,0,0,2,,,,,0,,,45,108
39330,note_on,,,,,0,0,2,,,,,0,,,50,108
39330,note_on,,,,,0,0,2,,,,,0,,,54,108
39330,note_on,,,,,30,0,1,,,,,0,,,66,127
39330,note_on,,,,,0,0,1,,,,,0,,,62,127
39355,note_on,,,,,0,0,1,,,,,0,,,66,0
39355,note_on,,,,,25,0,1,,,,,0,,,57,0
39355,note_on,,,,,0,0,1,,,,,0,,,62,0
39355,note_on,,,,,25,0,2,,,,,0,,,54,0
39355,note_on,,,,,0,0,2,,,,,0,,,42,0
39355,note_on,,,,,0,0,2,,,,,0,,,45,0
39355,note_on,,,,,0,0,2,,,,,0,,,50,0
39360,note_on,,,,,5,0,2,,,,,0,,,42,105
39360,note_on,,,,,0,0,2,,,,,0,,,45,105
39360,note_on,,,,,0,0,2,,,,,0,,,50,105
39360,note_on,,,,,0,0,2,,,,,0,,,54,105
39360,note_on,,,,,0,0,1,,,,,0,,,66,127
39360,note_on,,,,,0,0,1,,,,,0,,,62,127
39360,note_on,,,,,5,0,1,,,,,0,,,57,127
39390,set_tempo,,,,,100,1,0,,535714,,,,,,,
39485,set_tempo,,,,,95,1,0,,528634,,,,,,,
39545,set_tempo,,,,,60,1,0,,515021,,,,,,,
39585,note_on,,,,,0,0,1,,,,,0,,,57,0
39585,note_on,,,,,0,0,1,,,,,0,,,62,0
39585,note_on,,,,,225,0,1,,,,,0,,,66,0
39585,note_on,,,,,0,0,2,,,,,0,,,50,0
39585,note_on,,,,,0,0,2,,,,,0,,,45,0
39585,control_change,,,,,0,0,1,,,,,0,64,0,,
39585,note_on,,,,,225,0,2,,,,,0,,,54,0
39585,note_on,,,,,0,0,2,,,,,0,,,42,0
39600,note_on,,,,,15,0,2,,,,,0,,,28,116
39600,control_change,,,,,0,0,1,,,,,0,64,95,,
39600,note_on,,,,,15,0,1,,,,,0,,,52,127
39600,note_on,,,,,0,0,2,,,,,0,,,40,116
39660,note_on,,,,,60,0,2,,,,,0,,,40,0
39660,note_on,,,,,0,0,2,,,,,0,,,28,0
39660,note_on,,,,,60,0,1,,,,,0,,,52,0
39690,note_on,,,,,30,0,2,,,,,0,,,40,102
39690,note_on,,,,,0,0,2,,,,,0,,,47,102
39690,note_on,,,,,0,0,2,,,,,0,,,50,102
39690,note_on,,,,,0,0,2,,,,,0,,,52,102
39690,note_on,,,,,0,0,1,,,,,0,,,68,127
39690,note_on,,,,,0,0,1,,,,,0,,,62,127
39690,note_on,,,,,30,0,1,,,,,0,,,59,127
39715,note_on,,,,,25,0,1,,,,,0,,,68,0
39715,note_on,,,,,0,0,2,,,,,0,,,50,0
39715,note_on,,,,,0,0,2,,,,,0,,,47,0
39715,note_on,,,,,0,0,2,,,,,0,,,40,0
39715,note_on,,,,,25,0,2,,,,,0,,,52,0
39715,note_on,,,,,0,0,1,,,,,0,,,59,0
39715,note_on,,,,,0,0,1,,,,,0,,,62,0
39720,note_on,,,,,0,0,1,,,,,0,,,68,127
39720,note_on,,,,,5,0,1,,,,,0,,,59,127
39720,note_on,,,,,0,0,1,,,,,0,,,62,127
39720,note_on,,,,,0,0,2,,,,,0,,,52,100
39720,note_on,,,,,5,0,2,,,,,0,,,40,100
39720,note_on,,,,,0,0,2,,,,,0,,,47,100
39720,note_on,,,,,0,0,2,,,,,0,,,50,100
39780,control_change,,,,,60,0,1,,,,,0,64,0,,
39825,note_on,,,,,0,0,1,,,,,0,,,62,0
39825,note_on,,,,,0,0,1,,,,,0,,,59,0
39825,note_on,,,,,45,0,1,,,,,0,,,68,0
39825,note_on,,,,,105,0,2,,,,,0,,,52,0
39825,note_on,,,,,0,0,2,,,,,0,,,40,0
39825,note_on,,,,,0,0,2,,,,,0,,,47,0
39825,note_on,,,,,0,0,2,,,,,0,,,50,0
39840,note_on,,,,,15,0,2,,,,,0,,,52,103
39840,note_on,,,,,0,0,1,,,,,0,,,71,127
39840,note_on,,,,,0,0,1,,,,,0,,,68,127
39840,note_on,,,,,15,0,1,,,,,0,,,62,127
39885,note_on,,,,,45,0,1,,,,,0,,,71,0
39885,note_on,,,,,45,0,2,,,,,0,,,52,0
39885,note_on,,,,,0,0,1,,,,,0,,,62,0
39885,note_on,,,,,0,0,1,,,,,0,,,68,0
39900,note_on,,,,,15,0,1,,,,,0,,,68,127
39900,note_on,,,,,0,0,1,,,,,0,,,74,127
39900,note_on,,,,,0,0,1,,,,,0,,,71,127
39900,note_on,,,,,15,0,2,,,,,0,,,52,107
39945,note_on,,,,,0,0,1,,,,,0,,,68,0
39945,note_on,,,,,45,0,1,,,,,0,,,74,0
39945,note_on,,,,,0,0,1,,,,,0,,,71,0
39945,note_on,,,,,45,0,2,,,,,0,,,52,0
39960,set_tempo,,,,,415,1,0,,515021,,,,,,,
39960,note_on,,,,,0,0,1,,,,,0,,,80,127
39960,note_on,,,,,15,0,2,,,,,0,,,52,112
39960,note_on,,,,,0,0,1,,,,,0,,,74,127
39960,note_on,,,,,15,0,1,,,,,0,,,71,127
39965,set_tempo,,,,,5,1,0,,517241,,,,,,,
40005,note_on,,,,,45,0,1,,,,,0,,,80,0
40005,note_on,,,,,0,0,1,,,,,0,,,74,0
40005,note_on,,,,,45,0,2,,,,,0,,,52,0
40005,set_tempo,,,,,40,1,0,,526315,,,,,,,
40005,note_on,,,,,0,0,1,,,,,0,,,71,0
40020,note_on,,,,,15,0,2,,,,,0,,,64,114
40020,note_on,,,,,0,0,1,,,,,0,,,83,127
40020,note_on,,,,,0,0,1,,,,,0,,,80,127
40020,note_on,,,,,15,0,1,,,,,0,,,74,127
40050,set_tempo,,,,,45,1,0,,542986,,,,,,,
40065,note_on,,,,,0,0,1,,,,,0,,,80,0
40065,note_on,,,,,45,0,2,,,,,0,,,64,0
40065,note_on,,,,,45,0,1,,,,,0,,,83,0
40065,note_on,,,,,0,0,1,,,,,0,,,74,0
40080,note_on,,,,,15,0,1,,,,,0,,,80,127
40080,note_on,,,,,0,0,1,,,,,0,,,83,127
40080,note_on,,,,,0,0,1,,,,,0,,,86,127
40080,note_on,,,,,15,0,2,,,,,0,,,64,120
40110,set_tempo,,,,,60,1,0,,558139,,,,,,,
40120,set_tempo,,,,,10,1,0,,560747,,,,,,,
40125,note_on,,,,,45,0,1,,,,,0,,,86,0
40125,note_on,,,,,0,0,1,,,,,0,,,83,0
40125,note_on,,,,,0,0,1,,,,,0,,,80,0
40125,note_on,,,,,45,0,2,,,,,0,,,64,0
40125,set_tempo,,,,,5,1,0,,585365,,,,,,,
40130,set_tempo,,,,,5,1,0,,588235,,,,,,,
40135,set_tempo,,,,,5,1,0,,606060,,,,,,,
40140,note_on,,,,,15,0,1,,,,,0,,,83,127
40140,note_on,,,,,0,0,1,,,,,0,,,86,127
40140,note_on,,,,,0,0,1,,,,,0,,,92,127
40140,note_on,,,,,15,0,2,,,,,0,,,64,124
40145,set_tempo,,,,,10,1,0,,615384,,,,,,,
40160,set_tempo,,,,,15,1,0,,655737,,,,,,,
40185,set_tempo,,,,,25,1,0,,693641,,,,,,,
40185,note_on,,,,,45,0,1,,,,,0,,,92,0
40185,note_on,,,,,0,0,1,,,,,0,,,86,0
40185,note_on,,,,,0,0,1,,,,,0,,,83,0
40185,note_on,,,,,45,0,2,,,,,0,,,64,0
40200,note_on,,,,,15,0,1,,,,,0,,,76,127
40200,note_on,,,,,0,0,1,,,,,0,,,86,127
40200,note_on,,,,,0,0,1,,,,,0,,,92,127
40200,note_on,,,,,0,0,1,,,,,0,,,95,127
40210,set_tempo,,,,,25,1,0,,740740,,,,,,,
40225,set_tempo,,,,,15,1,0,,810810,,,,,,,
40245,note_on,,,,,0,0,1,,,,,0,,,86,0
40245,note_on,,,,,0,0,1,,,,,0,,,76,0
40245,note_on,,,,,0,0,1,,,,,0,,,92,0
40245,note_on,,,,,45,0,1,,,,,0,,,95,0
40245,set_tempo,,,,,20,1,0,,851063,,,,,,,
40260,set_tempo,,,,,15,1,0,,857142,,,,,,,
40260,note_on,,,,,15,0,1,,,,,0,,,76,127
40260,note_on,,,,,0,0,1,,,,,0,,,92,127
40260,note_on,,,,,0,0,1,,,,,0,,,95,127
40260,note_on,,,,,0,0,1,,,,,0,,,98,127
40265,set_tempo,,,,,5,1,0,,930232,,,,,,,
40275,set_tempo,,,,,10,1,0,,3000000,,,,,,,
40305,set_tempo,,,,,30,1,0,,2926829,,,,,,,
40305,note_on,,,,,45,0,1,,,,,0,,,98,0
40305,note_on,,,,,0,0,1,,,,,0,,,76,0
40305,note_on,,,,,0,0,1,,,,,0,,,92,0
40305,note_on,,,,,0,0,1,,,,,0,,,95,0
40320,note_on,,,,,135,0,2,,,,,0,,,44,39
40320,set_tempo,,,,,15,1,0,,655737,,,,,,,
40320,control_change,,,,,15,0,1,,,,,0,64,95,,
40320,note_on,,,,,0,0,1,,,,,0,,,76,54
40325,set_tempo,,,,,5,1,0,,634920,,,,,,,
40380,note_on,,,,,60,0,1,,,,,0,,,64,48
40400,set_tempo,,,,,75,1,0,,625000,,,,,,,
40410,note_on,,,,,30,0,1,,,,,0,,,64,0
40410,note_on,,,,,0,0,1,,,,,0,,,71,44
40440,note_on,,,,,30,0,1,,,,,0,,,71,0
40440,note_on,,,,,0,0,1,,,,,0,,,74,41
40445,set_tempo,,,,,45,1,0,,612244,,,,,,,
40485,note_on,,,,,45,0,1,,,,,0,,,74,0
40495,control_change,,,,,10,0,1,,,,,0,64,0,,
40500,note_on,,,,,0,0,2,,,,,0,,,40,41
40500,note_on,,,,,180,0,2,,,,,0,,,44,0
40500,control_change,,,,,0,0,1,,,,,0,64,95,,
40500,note_on,,,,,5,0,1,,,,,0,,,76,0
40500,note_on,,,,,0,0,1,,,,,0,,,77,51
40550,set_tempo,,,,,105,1,0,,603015,,,,,,,
40560,note_on,,,,,60,0,1,,,,,0,,,68,42
40590,note_on,,,,,30,0,1,,,,,0,,,68,0
40590,note_on,,,,,0,0,1,,,,,0,,,71,40
40620,note_on,,,,,30,0,1,,,,,0,,,71,0
40620,note_on,,,,,0,0,1,,,,,0,,,74,40
40665,note_on,,,,,45,0,1,,,,,0,,,74,0
40675,control_change,,,,,10,0,1,,,,,0,64,0,,
40675,set_tempo,,,,,125,1,0,,594059,,,,,,,
40680,note_on,,,,,5,0,1,,,,,0,,,77,0
40680,note_on,,,,,0,0,2,,,,,0,,,45,43
40680,control_change,,,,,0,0,1,,,,,0,64,95,,
40680,note_on,,,,,0,0,1,,,,,0,,,76,46
40680,note_on,,,,,180,0,2,,,,,0,,,40,0
40740,note_on,,,,,60,0,1,,,,,0,,,67,42
40770,note_on,,,,,0,0,1,,,,,0,,,69,46
40770,note_on,,,,,30,0,1,,,,,0,,,67,0
40800,note_on,,,,,0,0,1,,,,,0,,,74,51
40800,note_on,,,,,30,0,1,,,,,0,,,69,0
40815,set_tempo,,,,,140,1,0,,585365,,,,,,,
40845,note_on,,,,,45,0,1,,,,,0,,,74,0
40855,control_change,,,,,10,0,1,,,,,0,64,0,,
40860,note_on,,,,,5,0,1,,,,,0,,,76,0
40860,note_on,,,,,0,0,1,,,,,0,,,81,50
40860,note_on,,,,,0,0,2,,,,,0,,,33,46
40860,note_on,,,,,180,0,2,,,,,0,,,45,0
40860,control_change,,,,,0,0,1,,,,,0,64,95,,
40900,set_tempo,,,,,85,1,0,,576923,,,,,,,
40920,note_on,,,,,60,0,1,,,,,0,,,67,53
40950,note_on,,,,,30,0,1,,,,,0,,,67,0
40950,note_on,,,,,0,0,1,,,,,0,,,69,51
40980,note_on,,,,,0,0,1,,,,,0,,,73,48
40980,note_on,,,,,30,0,1,,,,,0,,,69,0
40995,set_tempo,,,,,95,1,0,,571428,,,,,,,
41025,note_on,,,,,165,0,2,,,,,0,,,33,0
41025,note_on,,,,,0,0,1,,,,,0,,,81,0
41025,note_on,,,,,45,0,1,,,,,0,,,73,0
41035,control_change,,,,,10,0,1,,,,,0,64,0,,
41040,note_on,,,,,15,0,2,,,,,0,,,34,48
41040,note_on,,,,,0,0,1,,,,,0,,,78,59
41040,control_change,,,,,5,0,1,,,,,0,64,95,,
41045,set_tempo,,,,,50,1,0,,579710,,,,,,,
41095,set_tempo,,,,,50,1,0,,579710,,,,,,,
41100,note_on,,,,,60,0,1,,,,,0,,,76,53
41130,note_on,,,,,0,0,1,,,,,0,,,73,50
41130,note_on,,,,,30,0,1,,,,,0,,,76,0
41160,note_on,,,,,0,0,1,,,,,0,,,66,45
41160,note_on,,,,,30,0,1,,,,,0,,,73,0
41205,note_on,,,,,45,0,1,,,,,0,,,66,0
41215,control_change,,,,,10,0,1,,,,,0,64,0,,
41220,note_on,,,,,5,0,1,,,,,0,,,78,0
41220,note_on,,,,,180,0,2,,,,,0,,,34,0
41220,note_on,,,,,0,0,2,,,,,0,,,35,45
41220,control_change,,,,,0,0,1,,,,,0,64,95,,
41220,note_on,,,,,0,0,1,,,,,0,,,75,54
41280,note_on,,,,,60,0,1,,,,,0,,,72,50
41300,set_tempo,,,,,205,1,0,,594059,,,,,,,
41310,note_on,,,,,0,0,1,,,,,0,,,69,47
41310,note_on,,,,,30,0,1,,,,,0,,,72,0
41340,note_on,,,,,0,0,1,,,,,0,,,66,44
41340,note_on,,,,,30,0,1,,,,,0,,,69,0
41385,note_on,,,,,45,0,1,,,,,0,,,66,0
41395,control_change,,,,,10,0,1,,,,,0,64,0,,
41400,note_on,,,,,0,0,1,,,,,0,,,76,48
41400,note_on,,,,,0,0,2,,,,,0,,,32,42
41400,note_on,,,,,180,0,2,,,,,0,,,35,0
41400,note_on,,,,,5,0,1,,,,,0,,,75,0
41400,control_change,,,,,0,0,1,,,,,0,64,96,,
41460,note_on,,,,,60,0,1,,,,,0,,,74,43
41490,note_on,,,,,0,0,1,,,,,0,,,71,40
41490,note_on,,,,,30,0,1,,,,,0,,,74,0
41510,set_tempo,,,,,210,1,0,,603015,,,,,,,
41520,note_on,,,,,30,0,1,,,,,0,,,71,0
41520,note_on,,,,,0,0,1,,,,,0,,,64,38
41565,note_on,,,,,45,0,1,,,,,0,,,64,0
41575,control_change,,,,,10,0,1,,,,,0,64,0,,
41580,note_on,,,,,180,0,2,,,,,0,,,32,0
41580,note_on,,,,,0,0,2,,,,,0,,,33,42
41580,note_on,,,,,0,0,1,,,,,0,,,73,41
41580,control_change,,,,,0,0,1,,,,,0,64,95,,
41580,note_on,,,,,5,0,1,,,,,0,,,76,0
41640,note_on,,,,,60,0,1,,,,,0,,,70,44
41670,note_on,,,,,30,0,1,,,,,0,,,70,0
41670,note_on,,,,,0,0,1,,,,,0,,,67,39
41700,note_on,,,,,30,0,1,,,,,0,,,67,0
41700,note_on,,,,,0,0,1,,,,,0,,,64,37
41745,note_on,,,,,45,0,1,,,,,0,,,64,0
41745,note_on,,,,,0,0,1,,,,,0,,,73,0
41745,note_on,,,,,165,0,2,,,,,0,,,33,0
41755,control_change,,,,,10,0,1,,,,,0,64,0,,
41760,note_on,,,,,15,0,2,,,,,0,,,30,42
41760,control_change,,,,,5,0,1,,,,,0,64,95,,
41760,note_on,,,,,0,0,1,,,,,0,,,74,40
41800,set_tempo,,,,,290,1,0,,615384,,,,,,,
41820,note_on,,,,,60,0,1,,,,,0,,,72,41
41850,note_on,,,,,30,0,1,,,,,0,,,72,0
41850,note_on,,,,,0,0,1,,,,,0,,,69,40
41880,note_on,,,,,30,0,1,,,,,0,,,69,0
41880,note_on,,,,,0,0,1,,,,,0,,,62,37
41910,note_on,,,,,30,0,1,,,,,0,,,62,0
41925,note_on,,,,,15,0,1,,,,,0,,,74,0
41935,control_change,,,,,10,0,1,,,,,0,64,0,,
41940,note_on,,,,,0,0,2,,,,,0,,,31,38
41940,note_on,,,,,180,0,2,,,,,0,,,30,0
41940,control_change,,,,,5,0,1,,,,,0,64,95,,
41940,note_on,,,,,0,0,1,,,,,0,,,74,41
42000,note_on,,,,,60,0,1,,,,,0,,,71,39
42030,note_on,,,,,0,0,1,,,,,0,,,67,35
42030,note_on,,,,,30,0,1,,,,,0,,,71,0
42060,note_on,,,,,30,0,1,,,,,0,,,67,0
42060,note_on,,,,,0,0,1,,,,,0,,,62,35
42060,set_tempo,,,,,260,1,0,,634920,,,,,,,
42090,note_on,,,,,30,0,1,,,,,0,,,62,0
42105,note_on,,,,,15,0,1,,,,,0,,,74,0
42115,control_change,,,,,10,0,1,,,,,0,64,0,,
42120,control_change,,,,,5,0,1,,,,,0,64,96,,
42120,note_on,,,,,0,0,1,,,,,0,,,74,43
42120,note_on,,,,,0,0,2,,,,,0,,,33,40
42120,note_on,,,,,180,0,2,,,,,0,,,31,0
42180,note_on,,,,,60,0,1,,,,,0,,,66,33
42210,note_on,,,,,30,0,1,,,,,0,,,66,0
42210,note_on,,,,,0,0,1,,,,,0,,,69,37
42240,note_on,,,,,30,0,1,,,,,0,,,69,0
42240,note_on,,,,,0,0,1,,,,,0,,,71,41
42270,note_on,,,,,30,0,1,,,,,0,,,71,0
42270,note_on,,,,,0,0,1,,,,,0,,,69,43
42285,note_on,,,,,165,0,2,,,,,0,,,33,0
42295,note_on,,,,,25,0,1,,,,,0,,,69,0
42295,control_change,,,,,0,0,1,,,,,0,64,0,,
42300,note_on,,,,,5,0,1,,,,,0,,,74,0
42300,control_change,,,,,0,0,1,,,,,0,64,96,,
42300,note_on,,,,,0,0,1,,,,,0,,,73,41
42300,note_on,,,,,15,0,2,,,,,0,,,33,45
42305,set_tempo,,,,,245,1,0,,648648,,,,,,,
42360,note_on,,,,,60,0,1,,,,,0,,,71,42
42390,note_on,,,,,0,0,1,,,,,0,,,67,40
42390,note_on,,,,,30,0,1,,,,,0,,,71,0
42420,note_on,,,,,0,0,1,,,,,0,,,66,37
42420,note_on,,,,,30,0,1,,,,,0,,,67,0
42420,set_tempo,,,,,115,1,0,,666666,,,,,,,
42450,note_on,,,,,0,0,1,,,,,0,,,67,34
42450,note_on,,,,,30,0,1,,,,,0,,,66,0
42465,note_on,,,,,15,0,1,,,,,0,,,73,0
42465,note_on,,,,,165,0,2,,,,,0,,,33,0
42475,control_change,,,,,0,0,1,,,,,0,64,1,,
42475,note_on,,,,,10,0,1,,,,,0,,,67,0
42480,note_on,,,,,15,0,2,,,,,0,,,33,39
42480,control_change,,,,,5,0,1,,,,,0,64,95,,
42480,note_on,,,,,0,0,1,,,,,0,,,74,38
42490,set_tempo,,,,,70,1,0,,677966,,,,,,,
42525,set_tempo,,,,,35,1,0,,689655,,,,,,,
42540,note_on,,,,,60,0,1,,,,,0,,,66,32
42550,set_tempo,,,,,25,1,0,,714285,,,,,,,
42570,note_on,,,,,30,0,1,,,,,0,,,66,0
42570,note_on,,,,,0,0,1,,,,,0,,,69,32
42600,note_on,,,,,30,0,1,,,,,0,,,69,0
42600,note_on,,,,,0,0,1,,,,,0,,,71,37
42630,note_on,,,,,30,0,1,,,,,0,,,71,0
42630,note_on,,,,,0,0,1,,,,,0,,,69,39
42645,note_on,,,,,165,0,2,,,,,0,,,33,0
42655,note_on,,,,,25,0,1,,,,,0,,,69,0
42660,note_on,,,,,0,0,1,,,,,0,,,73,35
42660,note_on,,,,,5,0,1,,,,,0,,,74,0
42660,control_change,,,,,0,0,1,,,,,0,64,95,,
42660,note_on,,,,,15,0,2,,,,,0,,,33,36
42720,note_on,,,,,60,0,1,,,,,0,,,71,41
42725,set_tempo,,,,,175,1,0,,745341,,,,,,,
42730,set_tempo,,,,,5,1,0,,750000,,,,,,,
42750,set_tempo,,,,,20,1,0,,774193,,,,,,,
42750,note_on,,,,,30,0,1,,,,,0,,,71,0
42750,note_on,,,,,0,0,1,,,,,0,,,67,39
42755,set_tempo,,,,,5,1,0,,779220,,,,,,,
42780,note_on,,,,,30,0,1,,,,,0,,,67,0
42780,note_on,,,,,0,0,1,,,,,0,,,66,36
42805,set_tempo,,,,,50,1,0,,816326,,,,,,,
42810,note_on,,,,,0,0,1,,,,,0,,,67,34
42810,note_on,,,,,30,0,1,,,,,0,,,66,0
42835,set_tempo,,,,,30,1,0,,863309,,,,,,,
42840,note_on,,,,,180,0,2,,,,,0,,,33,0
42840,note_on,,,,,0,0,2,,,,,0,,,38,34
42840,note_on,,,,,0,0,1,,,,,0,,,73,0
42840,control_change,,,,,0,0,1,,,,,0,64,95,,
42840,note_on,,,,,0,0,1,,,,,0,,,74,33
42840,note_on,,,,,0,0,1,,,,,0,,,66,33
42840,note_on,,,,,30,0,1,,,,,0,,,67,0
42892,note_on,,,,,0,0,1,,,,,0,,,66,0
42892,note_on,,,,,52,0,1,,,,,0,,,74,0
42892,note_on,,,,,52,0,2,,,,,0,,,38,0
42900,control_change,,,,,0,0,1,,,,,0,64,0,,
42900,note_on,,,,,8,0,1,,,,,0,,,57,40
42900,set_tempo,,,,,65,1,0,,882352,,,,,,,
42905,set_tempo,,,,,5,1,0,,697674,,,,,,,
42960,set_tempo,,,,,55,1,0,,685714,,,,,,,
42960,note_on,,,,,60,0,1,,,,,0,,,57,0
42960,note_on,,,,,0,0,1,,,,,0,,,62,48
42970,set_tempo,,,,,10,1,0,,689655,,,,,,,
43010,set_tempo,,,,,40,1,0,,674157,,,,,,,
43020,note_on,,,,,0,0,1,,,,,0,,,66,55
43020,note_on,,,,,60,0,1,,,,,0,,,62,0
43035,set_tempo,,,,,25,1,0,,666666,,,,,,,
43065,set_tempo,,,,,30,1,0,,677966,,,,,,,
43080,note_on,,,,,0,0,1,,,,,0,,,67,65
43080,note_on,,,,,60,0,1,,,,,0,,,66,0
43105,set_tempo,,,,,40,1,0,,701754,,,,,,,
43110,set_tempo,,,,,5,1,0,,705882,,,,,,,
43140,note_on,,,,,60,0,1,,,,,0,,,67,0
43140,note_on,,,,,0,0,1,,,,,0,,,69,72
43150,set_tempo,,,,,40,1,0,,731707,,,,,,,
43195,set_tempo,,,,,45,1,0,,697674,,,,,,,
43200,control_change,,,,,0,0,1,,,,,0,64,96,,
43200,note_on,,,,,0,0,2,,,,,0,,,50,73
43200,note_on,,,,,60,0,1,,,,,0,,,69,0
43200,note_on,,,,,0,0,1,,,,,0,,,57,72
43200,note_on,,,,,0,0,1,,,,,0,,,66,72
43200,note_on,,,,,0,0,1,,,,,0,,,69,72
43200,note_on,,,,,308,0,2,,,,,0,,,38,73
43210,set_tempo,,,,,15,1,0,,689655,,,,,,,
43245,set_tempo,,,,,35,1,0,,677966,,,,,,,
43310,set_tempo,,,,,65,1,0,,666666,,,,,,,
43355,set_tempo,,,,,45,1,0,,659340,,,,,,,
43425,set_tempo,,,,,70,1,0,,641711,,,,,,,
43485,set_tempo,,,,,60,1,0,,634920,,,,,,,
43515,note_on,,,,,315,0,1,,,,,0,,,69,0
43515,note_on,,,,,0,0,2,,,,,0,,,38,0
43515,note_on,,,,,315,0,2,,,,,0,,,50,0
43515,note_on,,,,,0,0,1,,,,,0,,,57,0
43515,note_on,,,,,0,0,1,,,,,0,,,66,0
43530,note_on,,,,,0,0,2,,,,,0,,,50,79
43530,note_on,,,,,0,0,1,,,,,0,,,69,80
43530,note_on,,,,,0,0,1,,,,,0,,,66,80
43530,note_on,,,,,15,0,2,,,,,0,,,38,79
43530,note_on,,,,,15,0,1,,,,,0,,,57,80
43535,set_tempo,,,,,50,1,0,,641711,,,,,,,
43555,control_change,,,,,25,0,1,,,,,0,64,0,,
43560,note_on,,,,,0,0,1,,,,,0,,,57,0
43560,note_on,,,,,0,0,1,,,,,0,,,59,84
43560,note_on,,,,,0,0,1,,,,,0,,,67,84
43560,note_on,,,,,0,0,1,,,,,0,,,71,84
43560,control_change,,,,,0,0,1,,,,,0,64,96,,
43560,note_on,,,,,30,0,2,,,,,0,,,50,0
43560,note_on,,,,,5,0,1,,,,,0,,,69,0
43560,note_on,,,,,0,0,1,,,,,0,,,66,0
43560,note_on,,,,,0,0,2,,,,,0,,,50,80
43560,note_on,,,,,0,0,2,,,,,0,,,43,80
43560,note_on,,,,,0,0,2,,,,,0,,,38,0
43565,set_tempo,,,,,30,1,0,,662983,,,,,,,
43615,set_tempo,,,,,50,1,0,,685714,,,,,,,
43680,note_on,,,,,0,0,2,,,,,0,,,55,96
43680,note_on,,,,,120,0,2,,,,,0,,,50,0
43680,set_tempo,,,,,65,1,0,,705882,,,,,,,
43685,set_tempo,,,,,5,1,0,,701754,,,,,,,
43690,set_tempo,,,,,5,1,0,,705882,,,,,,,
43750,set_tempo,,,,,60,1,0,,718562,,,,,,,
43790,set_tempo,,,,,40,1,0,,745341,,,,,,,
43840,set_tempo,,,,,50,1,0,,764331,,,,,,,
43845,note_on,,,,,165,0,2,,,,,0,,,55,0
43845,note_on,,,,,0,0,2,,,,,0,,,43,0
43845,note_on,,,,,285,0,1,,,,,0,,,71,0
43845,note_on,,,,,0,0,1,,,,,0,,,67,0
43845,note_on,,,,,0,0,1,,,,,0,,,59,0
43855,set_tempo,,,,,15,1,0,,764331,,,,,,,
43860,note_on,,,,,15,0,1,,,,,0,,,59,90
43860,note_on,,,,,0,0,1,,,,,0,,,67,90
43860,note_on,,,,,0,0,1,,,,,0,,,71,90
43860,control_change,,,,,0,0,1,,,,,0,64,0,,
43860,note_on,,,,,15,0,2,,,,,0,,,43,86
43860,note_on,,,,,0,0,2,,,,,0,,,54,86
43895,set_tempo,,,,,40,1,0,,750000,,,,,,,
43920,note_on,,,,,60,0,2,,,,,0,,,54,0
43920,note_on,,,,,0,0,2,,,,,0,,,43,0
43920,note_on,,,,,0,0,2,,,,,0,,,45,84
43920,note_on,,,,,0,0,2,,,,,0,,,52,84
43920,note_on,,,,,0,0,1,,,,,0,,,61,92
43920,note_on,,,,,0,0,1,,,,,0,,,59,0
43920,note_on,,,,,0,0,1,,,,,0,,,67,0
43920,note_on,,,,,60,0,1,,,,,0,,,71,0
43920,note_on,,,,,0,0,1,,,,,0,,,67,92
43920,note_on,,,,,0,0,1,,,,,0,,,73,92
43925,set_tempo,,,,,30,1,0,,731707,,,,,,,
43950,set_tempo,,,,,25,1,0,,710059,,,,,,,
43975,set_tempo,,,,,25,1,0,,697674,,,,,,,
43976,note_on,,,,,0,0,2,,,,,0,,,45,0
43976,note_on,,,,,0,0,1,,,,,0,,,61,0
43976,note_on,,,,,0,0,1,,,,,0,,,67,0
43976,note_on,,,,,56,0,1,,,,,0,,,73,0
43976,note_on,,,,,56,0,2,,,,,0,,,52,0
43980,note_on,,,,,0,0,2,,,,,0,,,52,79
43980,note_on,,,,,0,0,1,,,,,0,,,73,84
43980,note_on,,,,,0,0,1,,,,,0,,,67,84
43980,note_on,,,,,4,0,2,,,,,0,,,45,79
43980,note_on,,,,,4,0,1,,,,,0,,,61,84
44020,set_tempo,,,,,45,1,0,,677966,,,,,,,
44025,set_tempo,,,,,5,1,0,,674157,,,,,,,
44032,note_on,,,,,52,0,1,,,,,0,,,73,0
44032,note_on,,,,,0,0,1,,,,,0,,,67,0
44032,note_on,,,,,0,0,1,,,,,0,,,61,0
44032,note_on,,,,,52,0,2,,,,,0,,,52,0
44032,note_on,,,,,0,0,2,,,,,0,,,45,0
44040,note_on,,,,,0,0,2,,,,,0,,,52,75
44040,note_on,,,,,8,0,1,,,,,0,,,61,75
44040,note_on,,,,,0,0,1,,,,,0,,,67,75
44040,note_on,,,,,0,0,1,,,,,0,,,73,75
44040,note_on,,,,,8,0,2,,,,,0,,,45,75
44080,set_tempo,,,,,55,1,0,,677966,,,,,,,
44092,note_on,,,,,0,0,1,,,,,0,,,67,0
44092,note_on,,,,,0,0,1,,,,,0,,,61,0
44092,note_on,,,,,52,0,1,,,,,0,,,73,0
44092,note_on,,,,,52,0,2,,,,,0,,,52,0
44092,note_on,,,,,0,0,2,,,,,0,,,45,0
44100,note_on,,,,,8,0,2,,,,,0,,,45,73
44100,note_on,,,,,0,0,2,,,,,0,,,52,73
44100,note_on,,,,,8,0,1,,,,,0,,,61,69
44100,note_on,,,,,0,0,1,,,,,0,,,67,69
44100,note_on,,,,,0,0,1,,,,,0,,,73,69
44105,set_tempo,,,,,25,1,0,,689655,,,,,,,
44155,set_tempo,,,,,50,1,0,,705882,,,,,,,
44156,note_on,,,,,0,0,1,,,,,0,,,61,0
44156,note_on,,,,,0,0,1,,,,,0,,,67,0
44156,note_on,,,,,56,0,1,,,,,0,,,73,0
44156,note_on,,,,,0,0,2,,,,,0,,,45,0
44156,note_on,,,,,56,0,2,,,,,0,,,52,0
44160,note_on,,,,,0,0,1,,,,,0,,,74,72
44160,note_on,,,,,0,0,1,,,,,0,,,66,72
44160,note_on,,,,,4,0,1,,,,,0,,,62,72
44160,note_on,,,,,0,0,2,,,,,0,,,54,70
44160,note_on,,,,,4,0,2,,,,,0,,,45,70
44210,set_tempo,,,,,55,1,0,,731707,,,,,,,
44212,note_on,,,,,52,0,2,,,,,0,,,54,0
44212,note_on,,,,,0,0,1,,,,,0,,,62,0
44212,note_on,,,,,0,0,1,,,,,0,,,66,0
44212,note_on,,,,,52,0,1,,,,,0,,,74,0
44212,note_on,,,,,0,0,2,,,,,0,,,45,0
44220,note_on,,,,,8,0,2,,,,,0,,,45,64
44220,note_on,,,,,0,0,2,,,,,0,,,57,64
44220,note_on,,,,,0,0,2,,,,,0,,,55,64
44220,note_on,,,,,0,0,1,,,,,0,,,76,66
44220,note_on,,,,,0,0,1,,,,,0,,,73,66
44220,note_on,,,,,8,0,1,,,,,0,,,64,66
44255,set_tempo,,,,,45,1,0,,759493,,,,,,,
44272,note_on,,,,,0,0,2,,,,,0,,,57,0
44272,note_on,,,,,52,0,2,,,,,0,,,55,0
44272,note_on,,,,,0,0,1,,,,,0,,,64,0
44272,note_on,,,,,0,0,2,,,,,0,,,45,0
44272,note_on,,,,,52,0,1,,,,,0,,,76,0
44272,note_on,,,,,0,0,1,,,,,0,,,73,0
44280,note_on,,,,,0,0,2,,,,,0,,,55,67
44280,control_change,,,,,0,0,1,,,,,0,64,96,,
44280,note_on,,,,,0,0,1,,,,,0,,,76,68
44280,note_on,,,,,0,0,1,,,,,0,,,73,68
44280,note_on,,,,,8,0,1,,,,,0,,,64,68
44280,note_on,,,,,0,0,2,,,,,0,,,45,67
44280,note_on,,,,,8,0,2,,,,,0,,,57,67
44350,set_tempo,,,,,95,1,0,,779220,,,,,,,
44460,note_on,,,,,0,0,1,,,,,0,,,74,39
44460,note_on,,,,,0,0,2,,,,,0,,,54,41
44460,note_on,,,,,0,0,2,,,,,0,,,50,41
44460,note_on,,,,,0,0,2,,,,,0,,,45,0
44460,note_on,,,,,180,0,1,,,,,0,,,76,0
44460,note_on,,,,,0,0,1,,,,,0,,,73,0
44460,note_on,,,,,0,0,1,,,,,0,,,64,0
44460,note_on,,,,,180,0,2,,,,,0,,,55,0
44460,note_on,,,,,0,0,1,,,,,0,,,62,39
44520,note_on,,,,,60,0,2,,,,,0,,,54,0
44520,note_on,,,,,0,0,2,,,,,0,,,57,0
44520,note_on,,,,,60,0,1,,,,,0,,,74,0
44520,note_on,,,,,0,0,2,,,,,0,,,50,0
44520,note_on,,,,,0,0,1,,,,,0,,,62,0
44545,set_tempo,,,,,195,1,0,,784313,,,,,,,
44575,control_change,,,,,55,0,1,,,,,0,64,0,,
44615,set_tempo,,,,,70,1,0,,764331,,,,,,,
44640,note_on,,,,,0,0,1,,,,,0,,,69,34
44640,set_tempo,,,,,25,1,0,,666666,,,,,,,
44640,note_on,,,,,0,0,1,,,,,0,,,66,34
44640,note_on,,,,,65,0,1,,,,,0,,,57,34
44640,note_on,,,,,0,0,2,,,,,0,,,50,32
44640,note_on,,,,,120,0,2,,,,,0,,,38,32
44640,control_change,,,,,0,0,1,,,,,0,64,96,,
44645,set_tempo,,,,,5,1,0,,662983,,,,,,,
44650,set_tempo,,,,,5,1,0,,659340,,,,,,,
44690,set_tempo,,,,,40,1,0,,666666,,,,,,,
44740,set_tempo,,,,,50,1,0,,681818,,,,,,,
44785,set_tempo,,,,,45,1,0,,689655,,,,,,,
44810,set_tempo,,,,,25,1,0,,705882,,,,,,,
44905,set_tempo,,,,,95,1,0,,718562,,,,,,,
44935,set_tempo,,,,,30,1,0,,736196,,,,,,,
44955,note_on,,,,,0,0,1,,,,,0,,,66,0
44955,note_on,,,,,0,0,2,,,,,0,,,38,0
44955,note_on,,,,,315,0,2,,,,,0,,,50,0
44955,note_on,,,,,0,0,1,,,,,0,,,57,0
44955,note_on,,,,,315,0,1,,,,,0,,,69,0
44970,note_on,,,,,0,0,1,,,,,0,,,69,45
44970,note_on,,,,,0,0,1,,,,,0,,,66,45
44970,note_on,,,,,15,0,2,,,,,0,,,38,36
44970,note_on,,,,,0,0,2,,,,,0,,,50,36
44970,note_on,,,,,15,0,1,,,,,0,,,57,45
44970,set_tempo,,,,,35,1,0,,851063,,,,,,,
44995,set_tempo,,,,,25,1,0,,851063,,,,,,,
44995,note_on,,,,,0,0,1,,,,,0,,,66,0
44995,note_on,,,,,0,0,1,,,,,0,,,57,0
44995,control_change,,,,,0,0,1,,,,,0,64,0,,
44995,note_on,,,,,25,0,2,,,,,0,,,50,0
44995,note_on,,,,,0,0,2,,,,,0,,,38,0
44995,note_on,,,,,25,0,1,,,,,0,,,69,0
45000,note_on,,,,,5,0,1,,,,,0,,,59,45
45000,note_on,,,,,0,0,1,,,,,0,,,67,45
45000,control_change,,,,,0,0,1,,,,,0,64,96,,
45000,note_on,,,,,0,0,2,,,,,0,,,50,37
45000,note_on,,,,,0,0,1,,,,,0,,,71,45
45000,note_on,,,,,5,0,2,,,,,0,,,43,37
45000,set_tempo,,,,,5,1,0,,666666,,,,,,,
45005,set_tempo,,,,,5,1,0,,674157,,,,,,,
45050,set_tempo,,,,,45,1,0,,693641,,,,,,,
45070,set_tempo,,,,,20,1,0,,705882,,,,,,,
45090,set_tempo,,,,,20,1,0,,718562,,,,,,,
45120,note_on,,,,,120,0,2,,,,,0,,,50,0
45120,note_on,,,,,0,0,2,,,,,0,,,55,42
45170,set_tempo,,,,,80,1,0,,731707,,,,,,,
45180,set_tempo,,,,,10,1,0,,736196,,,,,,,
45210,set_tempo,,,,,30,1,0,,745341,,,,,,,
45265,set_tempo,,,,,55,1,0,,764331,,,,,,,
45285,note_on,,,,,285,0,1,,,,,0,,,71,0
45285,note_on,,,,,0,0,2,,,,,0,,,43,0
45285,note_on,,,,,165,0,2,,,,,0,,,55,0
45285,note_on,,,,,0,0,1,,,,,0,,,59,0
45285,note_on,,,,,0,0,1,,,,,0,,,67,0
45300,note_on,,,,,15,0,1,,,,,0,,,59,46
45300,note_on,,,,,0,0,1,,,,,0,,,64,46
45300,control_change,,,,,0,0,1,,,,,0,64,0,,
45300,note_on,,,,,0,0,1,,,,,0,,,62,46
45300,note_on,,,,,0,0,2,,,,,0,,,52,42
45300,note_on,,,,,15,0,2,,,,,0,,,44,42
45310,set_tempo,,,,,45,1,0,,779220,,,,,,,
45315,set_tempo,,,,,5,1,0,,784313,,,,,,,
45330,set_tempo,,,,,15,1,0,,1081081,,,,,,,
45355,note_on,,,,,55,0,1,,,,,0,,,64,0
45355,note_on,,,,,0,0,1,,,,,0,,,62,0
45355,note_on,,,,,0,0,1,,,,,0,,,59,0
45355,note_on,,,,,55,0,2,,,,,0,,,52,0
45355,note_on,,,,,0,0,2,,,,,0,,,44,0
45360,note_on,,,,,5,0,1,,,,,0,,,64,41
45360,note_on,,,,,0,0,1,,,,,0,,,61,41
45360,note_on,,,,,5,0,2,,,,,0,,,45,39
45360,note_on,,,,,0,0,2,,,,,0,,,52,39
45385,set_tempo,,,,,55,1,0,,805369,,,,,,,
45390,set_tempo,,,,,5,1,0,,810810,,,,,,,
45415,set_tempo,,,,,25,1,0,,789473,,,,,,,
45416,note_on,,,,,0,0,2,,,,,0,,,45,0
45416,note_on,,,,,56,0,1,,,,,0,,,61,0
45416,note_on,,,,,56,0,2,,,,,0,,,52,0
45416,note_on,,,,,0,0,1,,,,,0,,,64,0
45420,note_on,,,,,0,0,2,,,,,0,,,45,37
45420,note_on,,,,,0,0,1,,,,,0,,,61,35
45420,note_on,,,,,4,0,1,,,,,0,,,64,35
45420,note_on,,,,,4,0,2,,,,,0,,,54,37
45450,set_tempo,,,,,35,1,0,,774193,,,,,,,
45472,note_on,,,,,52,0,2,,,,,0,,,45,0
45472,note_on,,,,,0,0,2,,,,,0,,,54,0
45472,note_on,,,,,0,0,1,,,,,0,,,64,0
45472,note_on,,,,,52,0,1,,,,,0,,,61,0
45480,note_on,,,,,8,0,2,,,,,0,,,55,32
45480,note_on,,,,,0,0,1,,,,,0,,,61,31
45480,note_on,,,,,0,0,2,,,,,0,,,45,32
45480,note_on,,,,,8,0,1,,,,,0,,,64,31
45485,set_tempo,,,,,35,1,0,,750000,,,,,,,
45532,note_on,,,,,0,0,2,,,,,0,,,55,0
45532,note_on,,,,,52,0,1,,,,,0,,,61,0
45532,note_on,,,,,0,0,1,,,,,0,,,64,0
45532,note_on,,,,,52,0,2,,,,,0,,,45,0
45540,note_on,,,,,0,0,2,,,,,0,,,45,31
45540,note_on,,,,,8,0,1,,,,,0,,,64,28
45540,note_on,,,,,0,0,1,,,,,0,,,61,28
45540,note_on,,,,,8,0,2,,,,,0,,,55,31
45565,set_tempo,,,,,80,1,0,,789473,,,,,,,
45585,set_tempo,,,,,20,1,0,,794701,,,,,,,
45596,note_on,,,,,56,0,1,,,,,0,,,61,0
45596,note_on,,,,,0,0,1,,,,,0,,,64,0
45596,note_on,,,,,56,0,2,,,,,0,,,45,0
45596,note_on,,,,,0,0,2,,,,,0,,,55,0
45600,note_on,,,,,0,0,2,,,,,0,,,45,33
45600,note_on,,,,,4,0,2,,,,,0,,,59,33
45600,note_on,,,,,4,0,1,,,,,0,,,61,30
45600,note_on,,,,,0,0,1,,,,,0,,,67,30
45610,set_tempo,,,,,25,1,0,,827586,,,,,,,
45615,set_tempo,,,,,5,1,0,,833333,,,,,,,
45650,set_tempo,,,,,35,1,0,,882352,,,,,,,
45652,note_on,,,,,0,0,2,,,,,0,,,59,0
45652,note_on,,,,,52,0,2,,,,,0,,,45,0
45652,note_on,,,,,52,0,1,,,,,0,,,67,0
45652,note_on,,,,,0,0,1,,,,,0,,,61,0
45660,note_on,,,,,0,0,1,,,,,0,,,61,33
45660,note_on,,,,,0,0,2,,,,,0,,,57,36
45660,note_on,,,,,8,0,2,,,,,0,,,45,36
45660,note_on,,,,,8,0,1,,,,,0,,,66,33
45700,set_tempo,,,,,50,1,0,,916030,,,,,,,
45710,set_tempo,,,,,10,1,0,,923076,,,,,,,
45712,note_on,,,,,0,0,1,,,,,0,,,66,0
45712,note_on,,,,,52,0,1,,,,,0,,,61,0
45712,note_on,,,,,52,0,2,,,,,0,,,57,0
45712,note_on,,,,,0,0,2,,,,,0,,,45,0
45720,note_on,,,,,0,0,2,,,,,0,,,55,40
45720,note_on,,,,,8,0,1,,,,,0,,,61,39
45720,note_on,,,,,0,0,1,,,,,0,,,64,39
45720,control_change,,,,,0,0,1,,,,,0,64,96,,
45720,note_on,,,,,8,0,2,,,,,0,,,45,40
45785,set_tempo,,,,,75,1,0,,967741,,,,,,,
45900,note_on,,,,,0,0,2,,,,,0,,,54,26
45900,note_on,,,,,0,0,2,,,,,0,,,50,26
45900,note_on,,,,,0,0,2,,,,,0,,,45,0
45900,note_on,,,,,180,0,1,,,,,0,,,64,0
45900,note_on,,,,,0,0,1,,,,,0,,,62,26
45900,note_on,,,,,0,0,1,,,,,0,,,61,0
45900,note_on,,,,,180,0,2,,,,,0,,,55,0
45960,note_on,,,,,60,0,1,,,,,0,,,62,0
45960,note_on,,,,,0,0,2,,,,,0,,,50,0
45960,note_on,,,,,60,0,2,,,,,0,,,54,0
46020,control_change,,,,,60,0,1,,,,,0,64,0,,
46075,set_tempo,,,,,290,1,0,,750000,,,,,,,
46080,set_tempo,,,,,5,1,0,,750000,,,,,,,
46080,control_change,,,,,0,0,1,,,,,0,64,96,,
46080,control_change,,,,,60,0,1,,,,,0,91,96,,
46080,marker,,,,,0,1,0,,,,,,,,,
46080,note_on,,,,,0,0,2,,,,,0,,,50,50
46080,note_on,,,,,120,0,2,,,,,0,,,43,50
46081,note_on,,,,,0,0,1,,,,,0,,,59,55
46081,note_on,,,,,0,0,1,,,,,0,,,67,55
46081,note_on,,,,,1,0,1,,,,,0,,,71,55
46090,set_tempo,,,,,10,1,0,,754716,,,,,,,
46395,note_on,,,,,315,0,2,,,,,0,,,50,0
46395,note_on,,,,,0,0,2,,,,,0,,,43,0
46396,note_on,,,,,315,0,1,,,,,0,,,59,0
46396,note_on,,,,,0,0,1,,,,,0,,,71,0
46396,note_on,,,,,0,0,1,,,,,0,,,67,0
46410,control_change,,,,,0,0,1,,,,,0,64,0,,
46410,note_on,,,,,0,0,1,,,,,0,,,69,45
46410,note_on,,,,,0,0,1,,,,,0,,,66,45
46410,note_on,,,,,15,0,2,,,,,0,,,43,50
46410,note_on,,,,,0,0,2,,,,,0,,,50,50
46410,note_on,,,,,14,0,1,,,,,0,,,60,45
46435,note_on,,,,,25,0,2,,,,,0,,,50,0
46435,note_on,,,,,0,0,2,,,,,0,,,43,0
46435,note_on,,,,,0,0,1,,,,,0,,,66,0
46435,note_on,,,,,0,0,1,,,,,0,,,60,0
46435,note_on,,,,,25,0,1,,,,,0,,,69,0
46440,note_on,,,,,5,0,2,,,,,0,,,43,53
46440,note_on,,,,,5,0,1,,,,,0,,,59,46
46440,note_on,,,,,0,0,1,,,,,0,,,67,46
46440,note_on,,,,,0,0,1,,,,,0,,,71,46
46440,control_change,,,,,0,0,1,,,,,0,64,95,,
46440,note_on,,,,,0,0,2,,,,,0,,,50,53
46755,note_on,,,,,315,0,2,,,,,0,,,50,0
46755,note_on,,,,,0,0,2,,,,,0,,,43,0
46755,note_on,,,,,0,0,1,,,,,0,,,59,0
46755,note_on,,,,,0,0,1,,,,,0,,,67,0
46755,note_on,,,,,315,0,1,,,,,0,,,71,0
46770,control_change,,,,,0,0,1,,,,,0,64,0,,
46770,note_on,,,,,0,0,1,,,,,0,,,69,47
46770,note_on,,,,,0,0,1,,,,,0,,,66,47
46770,note_on,,,,,15,0,1,,,,,0,,,60,47
46770,note_on,,,,,0,0,2,,,,,0,,,50,50
46770,note_on,,,,,15,0,2,,,,,0,,,43,50
46795,note_on,,,,,25,0,2,,,,,0,,,50,0
46795,note_on,,,,,0,0,2,,,,,0,,,43,0
46795,note_on,,,,,0,0,1,,,,,0,,,60,0
46795,note_on,,,,,0,0,1,,,,,0,,,66,0
46795,note_on,,,,,25,0,1,,,,,0,,,69,0
46800,note_on,,,,,5,0,1,,,,,0,,,59,51
46800,note_on,,,,,0,0,2,,,,,0,,,50,53
46800,control_change,,,,,0,0,1,,,,,0,64,96,,
46800,note_on,,,,,0,0,1,,,,,0,,,71,51
46800,note_on,,,,,0,0,1,,,,,0,,,67,51
46800,note_on,,,,,5,0,2,,,,,0,,,43,53
46830,set_tempo,,,,,740,1,0,,740740,,,,,,,
46852,note_on,,,,,0,0,1,,,,,0,,,67,0
46852,note_on,,,,,0,0,1,,,,,0,,,59,0
46852,note_on,,,,,0,0,2,,,,,0,,,43,0
46852,note_on,,,,,52,0,1,,,,,0,,,71,0
46852,note_on,,,,,52,0,2,,,,,0,,,50,0
46860,note_on,,,,,8,0,2,,,,,0,,,43,57
46860,note_on,,,,,0,0,2,,,,,0,,,50,57
46860,note_on,,,,,0,0,1,,,,,0,,,72,55
46860,note_on,,,,,8,0,1,,,,,0,,,60,55
46860,note_on,,,,,0,0,1,,,,,0,,,69,55
46900,set_tempo,,,,,70,1,0,,727272,,,,,,,
46912,note_on,,,,,0,0,1,,,,,0,,,60,0
46912,note_on,,,,,52,0,2,,,,,0,,,50,0
46912,note_on,,,,,0,0,2,,,,,0,,,43,0
46912,note_on,,,,,0,0,1,,,,,0,,,69,0
46912,note_on,,,,,52,0,1,,,,,0,,,72,0
46920,note_on,,,,,8,0,1,,,,,0,,,62,61
46920,note_on,,,,,0,0,1,,,,,0,,,71,61
46920,note_on,,,,,0,0,1,,,,,0,,,74,61
46920,note_on,,,,,8,0,2,,,,,0,,,43,61
46920,note_on,,,,,0,0,2,,,,,0,,,50,61
46972,note_on,,,,,0,0,1,,,,,0,,,71,0
46972,note_on,,,,,52,0,2,,,,,0,,,50,0
46972,note_on,,,,,0,0,1,,,,,0,,,62,0
46972,note_on,,,,,0,0,2,,,,,0,,,43,0
46972,note_on,,,,,52,0,1,,,,,0,,,74,0
46978,control_change,,,,,6,0,1,,,,,0,64,0,,
46980,note_on,,,,,2,0,1,,,,,0,,,66,65
46980,note_on,,,,,8,0,2,,,,,0,,,38,64
46980,note_on,,,,,0,0,1,,,,,0,,,74,65
46980,note_on,,,,,0,0,1,,,,,0,,,62,65
46980,note_on,,,,,0,0,2,,,,,0,,,50,64
46980,control_change,,,,,0,0,1,,,,,0,64,96,,
46990,set_tempo,,,,,90,1,0,,714285,,,,,,,
47032,note_on,,,,,52,0,2,,,,,0,,,50,0
47032,note_on,,,,,0,0,2,,,,,0,,,38,0
47032,note_on,,,,,52,0,1,,,,,0,,,62,0
47037,note_on,,,,,0,0,1,,,,,0,,,66,0
47037,note_on,,,,,5,0,1,,,,,0,,,74,0
47040,note_on,,,,,3,0,1,,,,,0,,,60,53
47040,note_on,,,,,0,0,1,,,,,0,,,72,53
47040,note_on,,,,,0,0,2,,,,,0,,,50,57
47040,note_on,,,,,8,0,2,,,,,0,,,38,57
47040,note_on,,,,,0,0,1,,,,,0,,,66,53
47040,set_tempo,,,,,50,1,0,,722891,,,,,,,
47080,set_tempo,,,,,40,1,0,,736196,,,,,,,
47092,note_on,,,,,0,0,1,,,,,0,,,66,0
47092,note_on,,,,,52,0,1,,,,,0,,,72,0
47097,note_on,,,,,0,0,2,,,,,0,,,38,0
47097,note_on,,,,,57,0,2,,,,,0,,,50,0
47097,note_on,,,,,5,0,1,,,,,0,,,60,0
47100,note_on,,,,,0,0,1,,,,,0,,,72,50
47100,note_on,,,,,3,0,1,,,,,0,,,60,50
47100,note_on,,,,,0,0,2,,,,,0,,,50,52
47100,note_on,,,,,0,0,1,,,,,0,,,66,50
47100,note_on,,,,,3,0,2,,,,,0,,,38,52
47110,set_tempo,,,,,30,1,0,,750000,,,,,,,
47140,set_tempo,,,,,30,1,0,,779220,,,,,,,
47152,note_on,,,,,52,0,1,,,,,0,,,72,0
47152,note_on,,,,,0,0,1,,,,,0,,,66,0
47152,note_on,,,,,0,0,1,,,,,0,,,60,0
47157,note_on,,,,,57,0,2,,,,,0,,,50,0
47157,note_on,,,,,0,0,2,,,,,0,,,38,0
47158,control_change,,,,,6,0,1,,,,,0,64,0,,
47160,note_on,,,,,3,0,2,,,,,0,,,43,42
47160,note_on,,,,,0,0,2,,,,,0,,,50,42
47160,control_change,,,,,0,0,1,,,,,0,64,95,,
47160,note_on,,,,,0,0,1,,,,,0,,,71,44
47160,note_on,,,,,0,0,1,,,,,0,,,67,44
47160,note_on,,,,,2,0,1,,,,,0,,,59,44
47220,set_tempo,,,,,80,1,0,,779220,,,,,,,
47340,note_on,,,,,0,0,1,,,,,0,,,59,0
47340,note_on,,,,,180,0,2,,,,,0,,,50,0
47340,note_on,,,,,180,0,1,,,,,0,,,71,0
47340,note_on,,,,,0,0,1,,,,,0,,,67,0
47340,note_on,,,,,0,0,2,,,,,0,,,43,0
47380,set_tempo,,,,,160,1,0,,750000,,,,,,,
47470,control_change,,,,,130,0,1,,,,,0,64,0,,
47520,note_on,,,,,180,0,2,,,,,0,,,36,57
47520,note_on,,,,,0,0,2,,,,,0,,,48,57
47520,control_change,,,,,0,0,1,,,,,0,64,96,,
47520,note_on,,,,,0,0,1,,,,,0,,,72,55
47520,note_on,,,,,0,0,1,,,,,0,,,76,55
47520,set_tempo,,,,,140,1,0,,750000,,,,,,,
47520,note_on,,,,,50,0,1,,,,,0,,,64,55
47530,set_tempo,,,,,10,1,0,,754716,,,,,,,
47835,note_on,,,,,315,0,2,,,,,0,,,48,0
47835,note_on,,,,,0,0,2,,,,,0,,,36,0
47835,note_on,,,,,315,0,1,,,,,0,,,76,0
47835,note_on,,,,,0,0,1,,,,,0,,,64,0
47835,note_on,,,,,0,0,1,,,,,0,,,72,0
47850,note_on,,,,,0,0,1,,,,,0,,,75,51
47850,note_on,,,,,0,0,2,,,,,0,,,48,56
47850,note_on,,,,,15,0,2,,,,,0,,,36,56
47850,note_on,,,,,0,0,1,,,,,0,,,71,51
47850,note_on,,,,,15,0,1,,,,,0,,,63,51
47850,control_change,,,,,0,0,1,,,,,0,64,0,,
47875,note_on,,,,,0,0,2,,,,,0,,,36,0
47875,note_on,,,,,25,0,2,,,,,0,,,48,0
47875,note_on,,,,,0,0,1,,,,,0,,,71,0
47875,note_on,,,,,0,0,1,,,,,0,,,63,0
47875,note_on,,,,,25,0,1,,,,,0,,,75,0
47880,control_change,,,,,0,0,1,,,,,0,64,95,,
47880,note_on,,,,,0,0,1,,,,,0,,,76,54
47880,note_on,,,,,0,0,1,,,,,0,,,72,54
47880,note_on,,,,,5,0,1,,,,,0,,,64,54
47880,note_on,,,,,5,0,2,,,,,0,,,36,59
47880,note_on,,,,,0,0,2,,,,,0,,,48,59
48195,note_on,,,,,315,0,1,,,,,0,,,76,0
48195,note_on,,,,,315,0,2,,,,,0,,,48,0
48195,note_on,,,,,0,0,2,,,,,0,,,36,0
48195,note_on,,,,,0,0,1,,,,,0,,,72,0
48195,note_on,,,,,0,0,1,,,,,0,,,64,0
48210,note_on,,,,,0,0,2,,,,,0,,,48,49
48210,note_on,,,,,15,0,2,,,,,0,,,36,49
48210,note_on,,,,,0,0,1,,,,,0,,,75,40
48210,note_on,,,,,15,0,1,,,,,0,,,63,40
48210,note_on,,,,,0,0,1,,,,,0,,,71,40
48210,control_change,,,,,0,0,1,,,,,0,64,0,,
48235,note_on,,,,,25,0,1,,,,,0,,,75,0
48235,note_on,,,,,25,0,2,,,,,0,,,48,0
48235,note_on,,,,,0,0,1,,,,,0,,,71,0
48235,note_on,,,,,0,0,1,,,,,0,,,63,0
48235,note_on,,,,,0,0,2,,,,,0,,,36,0
48240,note_on,,,,,5,0,1,,,,,0,,,72,51
48240,note_on,,,,,5,0,2,,,,,0,,,36,53
48240,note_on,,,,,0,0,2,,,,,0,,,48,53
48240,note_on,,,,,0,0,1,,,,,0,,,64,51
48240,control_change,,,,,0,0,1,,,,,0,64,96,,
48240,note_on,,,,,0,0,1,,,,,0,,,76,51
48270,set_tempo,,,,,740,1,0,,740740,,,,,,,
48292,note_on,,,,,52,0,1,,,,,0,,,76,0
48292,note_on,,,,,0,0,1,,,,,0,,,72,0
48292,note_on,,,,,52,0,2,,,,,0,,,48,0
48292,note_on,,,,,0,0,2,,,,,0,,,36,0
48292,note_on,,,,,0,0,1,,,,,0,,,64,0
48300,note_on,,,,,8,0,2,,,,,0,,,36,57
48300,note_on,,,,,8,0,1,,,,,0,,,71,55
48300,note_on,,,,,0,0,1,,,,,0,,,65,55
48300,note_on,,,,,0,0,1,,,,,0,,,77,55
48300,note_on,,,,,0,0,2,,,,,0,,,48,57
48340,set_tempo,,,,,70,1,0,,727272,,,,,,,
48352,note_on,,,,,0,0,1,,,,,0,,,71,0
48352,note_on,,,,,0,0,1,,,,,0,,,65,0
48352,note_on,,,,,52,0,2,,,,,0,,,48,0
48352,note_on,,,,,0,0,2,,,,,0,,,36,0
48352,note_on,,,,,52,0,1,,,,,0,,,77,0
48360,note_on,,,,,0,0,2,,,,,0,,,48,61
48360,note_on,,,,,8,0,2,,,,,0,,,36,61
48360,note_on,,,,,8,0,1,,,,,0,,,64,61
48360,note_on,,,,,0,0,1,,,,,0,,,72,61
48360,note_on,,,,,0,0,1,,,,,0,,,76,61
48412,note_on,,,,,0,0,2,,,,,0,,,36,0
48412,note_on,,,,,0,0,1,,,,,0,,,72,0
48412,note_on,,,,,52,0,1,,,,,0,,,76,0
48412,note_on,,,,,52,0,2,,,,,0,,,48,0
48412,note_on,,,,,0,0,1,,,,,0,,,64,0
48418,control_change,,,,,6,0,1,,,,,0,64,0,,
48420,note_on,,,,,8,0,2,,,,,0,,,36,64
48420,note_on,,,,,2,0,1,,,,,0,,,71,60
48420,note_on,,,,,0,0,2,,,,,0,,,48,64
48420,control_change,,,,,0,0,1,,,,,0,64,96,,
48420,note_on,,,,,0,0,1,,,,,0,,,74,60
48420,note_on,,,,,0,0,1,,,,,0,,,62,60
48430,set_tempo,,,,,90,1,0,,714285,,,,,,,
48472,note_on,,,,,0,0,2,,,,,0,,,36,0
48472,note_on,,,,,52,0,1,,,,,0,,,62,0
48472,note_on,,,,,52,0,2,,,,,0,,,48,0
48477,note_on,,,,,5,0,1,,,,,0,,,74,0
48477,note_on,,,,,0,0,1,,,,,0,,,71,0
48480,note_on,,,,,0,0,1,,,,,0,,,72,49
48480,note_on,,,,,3,0,1,,,,,0,,,69,49
48480,note_on,,,,,0,0,2,,,,,0,,,48,57
48480,note_on,,,,,8,0,2,,,,,0,,,36,57
48480,set_tempo,,,,,50,1,0,,722891,,,,,,,
48480,note_on,,,,,0,0,1,,,,,0,,,60,49
48520,set_tempo,,,,,40,1,0,,736196,,,,,,,
48532,note_on,,,,,0,0,1,,,,,0,,,69,0
48532,note_on,,,,,52,0,1,,,,,0,,,72,0
48535,control_change,,,,,3,0,1,,,,,0,64,0,,
48537,note_on,,,,,2,0,1,,,,,0,,,60,0
48537,note_on,,,,,0,0,2,,,,,0,,,36,0
48537,note_on,,,,,57,0,2,,,,,0,,,48,0
48540,note_on,,,,,0,0,1,,,,,0,,,67,42
48540,note_on,,,,,3,0,1,,,,,0,,,59,42
48540,note_on,,,,,0,0,1,,,,,0,,,71,42
48540,note_on,,,,,3,0,2,,,,,0,,,37,52
48540,note_on,,,,,0,0,2,,,,,0,,,49,52
48550,set_tempo,,,,,30,1,0,,750000,,,,,,,
48580,set_tempo,,,,,30,1,0,,779220,,,,,,,
48592,note_on,,,,,52,0,1,,,,,0,,,67,0
48592,note_on,,,,,0,0,1,,,,,0,,,71,0
48592,note_on,,,,,0,0,1,,,,,0,,,59,0
48597,note_on,,,,,57,0,2,,,,,0,,,49,0
48597,note_on,,,,,0,0,2,,,,,0,,,37,0
48598,control_change,,,,,6,0,1,,,,,0,64,0,,
48600,note_on,,,,,2,0,1,,,,,0,,,57,49
48600,note_on,,,,,0,0,1,,,,,0,,,66,49
48600,note_on,,,,,0,0,1,,,,,0,,,69,49
48600,control_change,,,,,0,0,1,,,,,0,64,95,,
48600,note_on,,,,,0,0,2,,,,,0,,,50,42
48600,note_on,,,,,3,0,2,,,,,0,,,38,42
48605,set_tempo,,,,,25,1,0,,779220,,,,,,,
48650,note_on,,,,,50,0,1,,,,,0,,,69,0
48650,note_on,,,,,0,0,1,,,,,0,,,66,0
48650,note_on,,,,,0,0,1,,,,,0,,,57,0
48650,note_on,,,,,0,0,2,,,,,0,,,38,0
48650,note_on,,,,,50,0,2,,,,,0,,,50,0
48660,set_tempo,,,,,55,1,0,,800000,,,,,,,
48660,note_on,,,,,10,0,1,,,,,0,,,62,59
48670,set_tempo,,,,,10,1,0,,800000,,,,,,,
48680,control_change,,,,,20,0,1,,,,,0,64,0,,
48705,note_on,,,,,25,0,1,,,,,0,,,62,0
48710,set_tempo,,,,,40,1,0,,774193,,,,,,,
48720,note_on,,,,,15,0,1,,,,,0,,,64,61
48720,set_tempo,,,,,10,1,0,,769230,,,,,,,
48765,note_on,,,,,45,0,1,,,,,0,,,64,0
48780,note_on,,,,,15,0,1,,,,,0,,,66,68
48825,note_on,,,,,45,0,1,,,,,0,,,66,0
48830,set_tempo,,,,,110,1,0,,774193,,,,,,,
48840,note_on,,,,,15,0,1,,,,,0,,,67,75
48850,set_tempo,,,,,20,1,0,,779220,,,,,,,
48885,note_on,,,,,45,0,1,,,,,0,,,67,0
48900,set_tempo,,,,,50,1,0,,800000,,,,,,,
48900,note_on,,,,,15,0,1,,,,,0,,,69,82
48910,set_tempo,,,,,10,1,0,,816326,,,,,,,
48945,note_on,,,,,45,0,1,,,,,0,,,69,0
48960,note_on,,,,,0,0,1,,,,,0,,,67,89
48960,control_change,,,,,0,0,1,,,,,0,64,96,,
48960,note_on,,,,,310,0,2,,,,,0,,,43,82
48960,note_on,,,,,15,0,1,,,,,0,,,59,89
48960,note_on,,,,,0,0,2,,,,,0,,,50,82
48960,note_on,,,,,0,0,1,,,,,0,,,71,89
48960,set_tempo,,,,,50,1,0,,754716,,,,,,,
49275,note_on,,,,,0,0,1,,,,,0,,,59,0
49275,note_on,,,,,0,0,2,,,,,0,,,43,0
49275,note_on,,,,,0,0,1,,,,,0,,,67,0
49275,note_on,,,,,315,0,1,,,,,0,,,71,0
49275,note_on,,,,,315,0,2,,,,,0,,,50,0
49290,note_on,,,,,0,0,2,,,,,0,,,50,82
49290,note_on,,,,,15,0,2,,,,,0,,,43,82
49290,control_change,,,,,0,0,1,,,,,0,64,0,,
49290,note_on,,,,,0,0,1,,,,,0,,,69,92
49290,note_on,,,,,0,0,1,,,,,0,,,66,92
49290,note_on,,,,,15,0,1,,,,,0,,,60,92
49315,note_on,,,,,0,0,2,,,,,0,,,43,0
49315,note_on,,,,,25,0,2,,,,,0,,,50,0
49315,note_on,,,,,0,0,1,,,,,0,,,60,0
49315,note_on,,,,,25,0,1,,,,,0,,,69,0
49315,note_on,,,,,0,0,1,,,,,0,,,66,0
49320,control_change,,,,,0,0,1,,,,,0,64,95,,
49320,note_on,,,,,5,0,1,,,,,0,,,59,94
49320,note_on,,,,,5,0,2,,,,,0,,,43,82
49320,note_on,,,,,0,0,2,,,,,0,,,50,82
49320,note_on,,,,,0,0,1,,,,,0,,,67,94
49320,note_on,,,,,0,0,1,,,,,0,,,71,94
49635,note_on,,,,,0,0,2,,,,,0,,,43,0
49635,note_on,,,,,315,0,2,,,,,0,,,50,0
49635,note_on,,,,,315,0,1,,,,,0,,,71,0
49635,note_on,,,,,0,0,1,,,,,0,,,67,0
49635,note_on,,,,,0,0,1,,,,,0,,,59,0
49650,control_change,,,,,0,0,1,,,,,0,64,0,,
49650,note_on,,,,,15,0,2,,,,,0,,,43,84
49650,note_on,,,,,0,0,1,,,,,0,,,66,101
49650,note_on,,,,,0,0,2,,,,,0,,,50,84
49650,note_on,,,,,15,0,1,,,,,0,,,60,101
49650,note_on,,,,,0,0,1,,,,,0,,,69,101
49675,note_on,,,,,0,0,2,,,,,0,,,43,0
49675,note_on,,,,,25,0,2,,,,,0,,,50,0
49675,note_on,,,,,25,0,1,,,,,0,,,69,0
49675,note_on,,,,,0,0,1,,,,,0,,,66,0
49675,note_on,,,,,0,0,1,,,,,0,,,60,0
49680,note_on,,,,,0,0,2,,,,,0,,,50,86
49680,note_on,,,,,5,0,2,,,,,0,,,43,86
49680,note_on,,,,,5,0,1,,,,,0,,,59,103
49680,note_on,,,,,0,0,1,,,,,0,,,67,103
49680,note_on,,,,,0,0,1,,,,,0,,,71,103
49680,control_change,,,,,0,0,1,,,,,0,64,96,,
49732,note_on,,,,,52,0,1,,,,,0,,,71,0
49732,note_on,,,,,0,0,1,,,,,0,,,67,0
49732,note_on,,,,,0,0,1,,,,,0,,,59,0
49732,note_on,,,,,52,0,2,,,,,0,,,50,0
49732,note_on,,,,,0,0,2,,,,,0,,,43,0
49740,note_on,,,,,0,0,1,,,,,0,,,72,103
49740,note_on,,,,,8,0,1,,,,,0,,,60,103
49740,note_on,,,,,0,0,1,,,,,0,,,69,103
49740,note_on,,,,,0,0,2,,,,,0,,,50,99
49740,note_on,,,,,8,0,2,,,,,0,,,43,99
49750,set_tempo,,,,,790,1,0,,764331,,,,,,,
49792,note_on,,,,,52,0,2,,,,,0,,,50,0
49792,note_on,,,,,0,0,1,,,,,0,,,60,0
49792,note_on,,,,,0,0,1,,,,,0,,,69,0
49792,note_on,,,,,52,0,1,,,,,0,,,72,0
49792,note_on,,,,,0,0,2,,,,,0,,,43,0
49800,note_on,,,,,0,0,1,,,,,0,,,71,95
49800,note_on,,,,,0,0,1,,,,,0,,,74,95
49800,note_on,,,,,8,0,1,,,,,0,,,62,95
49800,note_on,,,,,8,0,2,,,,,0,,,43,99
49800,note_on,,,,,0,0,2,,,,,0,,,50,99
49840,set_tempo,,,,,90,1,0,,774193,,,,,,,
49852,note_on,,,,,0,0,1,,,,,0,,,71,0
49852,note_on,,,,,0,0,2,,,,,0,,,43,0
49852,note_on,,,,,52,0,1,,,,,0,,,74,0
49852,note_on,,,,,52,0,2,,,,,0,,,50,0
49852,note_on,,,,,0,0,1,,,,,0,,,62,0
49858,control_change,,,,,6,0,1,,,,,0,64,0,,
49860,note_on,,,,,0,0,1,,,,,0,,,71,90
49860,note_on,,,,,2,0,1,,,,,0,,,59,90
49860,note_on,,,,,0,0,1,,,,,0,,,66,90
49860,control_change,,,,,0,0,1,,,,,0,64,96,,
49860,note_on,,,,,0,0,2,,,,,0,,,51,94
49860,note_on,,,,,8,0,2,,,,,0,,,39,94
49912,note_on,,,,,0,0,2,,,,,0,,,39,0
49912,note_on,,,,,52,0,2,,,,,0,,,51,0
49912,note_on,,,,,52,0,1,,,,,0,,,59,0
49917,note_on,,,,,5,0,1,,,,,0,,,66,0
49917,note_on,,,,,0,0,1,,,,,0,,,71,0
49920,note_on,,,,,3,0,1,,,,,0,,,69,77
49920,note_on,,,,,0,0,2,,,,,0,,,51,83
49920,note_on,,,,,0,0,1,,,,,0,,,60,77
49920,note_on,,,,,0,0,1,,,,,0,,,66,77
49920,note_on,,,,,8,0,2,,,,,0,,,39,83
49920,set_tempo,,,,,80,1,0,,784313,,,,,,,
49972,note_on,,,,,52,0,1,,,,,0,,,66,0
49972,note_on,,,,,0,0,1,,,,,0,,,69,0
49977,note_on,,,,,0,0,2,,,,,0,,,39,0
49977,note_on,,,,,5,0,1,,,,,0,,,60,0
49977,note_on,,,,,57,0,2,,,,,0,,,51,0
49980,note_on,,,,,3,0,2,,,,,0,,,39,74
49980,note_on,,,,,0,0,2,,,,,0,,,51,74
49980,note_on,,,,,3,0,1,,,,,0,,,69,64
49980,note_on,,,,,0,0,1,,,,,0,,,66,64
49980,note_on,,,,,0,0,1,,,,,0,,,60,64
49990,set_tempo,,,,,70,1,0,,800000,,,,,,,
50032,note_on,,,,,52,0,1,,,,,0,,,66,0
50032,note_on,,,,,0,0,1,,,,,0,,,60,0
50032,note_on,,,,,0,0,1,,,,,0,,,69,0
50037,note_on,,,,,0,0,2,,,,,0,,,39,0
50037,note_on,,,,,57,0,2,,,,,0,,,51,0
50038,control_change,,,,,6,0,1,,,,,0,64,0,,
50040,note_on,,,,,3,0,2,,,,,0,,,40,57
50040,note_on,,,,,0,0,2,,,,,0,,,52,57
50040,note_on,,,,,0,0,1,,,,,0,,,67,51
50040,note_on,,,,,2,0,1,,,,,0,,,64,51
50040,note_on,,,,,0,0,1,,,,,0,,,59,51
50040,control_change,,,,,0,0,1,,,,,0,64,95,,
50050,set_tempo,,,,,60,1,0,,810810,,,,,,,
50100,set_tempo,,,,,50,1,0,,816326,,,,,,,
50220,note_on,,,,,0,0,2,,,,,0,,,40,0
50220,note_on,,,,,180,0,2,,,,,0,,,52,0
50220,set_tempo,,,,,120,1,0,,937500,,,,,,,
50220,note_on,,,,,0,0,1,,,,,0,,,64,0
50220,note_on,,,,,0,0,1,,,,,0,,,59,0
50220,note_on,,,,,180,0,1,,,,,0,,,67,0
50350,control_change,,,,,130,0,1,,,,,0,64,0,,
50360,set_tempo,,,,,140,1,0,,754716,,,,,,,
50370,note_on,,,,,0,0,2,,,,,0,,,56,41
50370,note_on,,,,,0,0,2,,,,,0,,,53,41
50370,note_on,,,,,0,0,2,,,,,0,,,50,41
50370,note_on,,,,,150,0,2,,,,,0,,,47,41
50370,note_on,,,,,0,0,1,,,,,0,,,68,34
50370,note_on,,,,,0,0,1,,,,,0,,,65,34
50370,note_on,,,,,20,0,1,,,,,0,,,59,34
50370,note_on,,,,,0,0,1,,,,,0,,,62,34
50395,note_on,,,,,0,0,1,,,,,0,,,59,0
50395,note_on,,,,,25,0,1,,,,,0,,,68,0
50395,note_on,,,,,0,0,2,,,,,0,,,47,0
50395,note_on,,,,,0,0,2,,,,,0,,,50,0
50395,note_on,,,,,0,0,2,,,,,0,,,53,0
50395,note_on,,,,,25,0,2,,,,,0,,,56,0
50395,note_on,,,,,0,0,1,,,,,0,,,62,0
50395,note_on,,,,,0,0,1,,,,,0,,,65,0
50400,note_on,,,,,0,0,1,,,,,0,,,59,38
50400,note_on,,,,,0,0,1,,,,,0,,,62,38
50400,control_change,,,,,0,0,1,,,,,0,64,96,,
50400,note_on,,,,,0,0,1,,,,,0,,,65,38
50400,note_on,,,,,5,0,2,,,,,0,,,47,44
50400,note_on,,,,,0,0,2,,,,,0,,,50,44
50400,note_on,,,,,0,0,2,,,,,0,,,53,44
50400,note_on,,,,,0,0,2,,,,,0,,,56,44
50400,note_on,,,,,5,0,1,,,,,0,,,68,38
50680,set_tempo,,,,,320,1,0,,750000,,,,,,,
50715,note_on,,,,,315,0,2,,,,,0,,,56,0
50715,note_on,,,,,0,0,2,,,,,0,,,47,0
50715,note_on,,,,,0,0,2,,,,,0,,,50,0
50715,note_on,,,,,0,0,2,,,,,0,,,53,0
50715,note_on,,,,,0,0,1,,,,,0,,,68,0
50715,note_on,,,,,315,0,1,,,,,0,,,65,0
50715,note_on,,,,,0,0,1,,,,,0,,,59,0
50715,note_on,,,,,0,0,1,,,,,0,,,62,0
50730,note_on,,,,,0,0,2,,,,,0,,,57,44
50730,note_on,,,,,0,0,2,,,,,0,,,52,44
50730,note_on,,,,,15,0,2,,,,,0,,,48,44
50730,note_on,,,,,0,0,1,,,,,0,,,64,43
50730,note_on,,,,,0,0,1,,,,,0,,,69,43
50730,note_on,,,,,15,0,1,,,,,0,,,60,43
50750,control_change,,,,,20,0,1,,,,,0,64,0,,
50755,note_on,,,,,0,0,1,,,,,0,,,60,0
50755,note_on,,,,,5,0,1,,,,,0,,,69,0
50755,note_on,,,,,25,0,2,,,,,0,,,57,0
50755,note_on,,,,,0,0,2,,,,,0,,,52,0
50755,note_on,,,,,0,0,2,,,,,0,,,48,0
50755,note_on,,,,,0,0,1,,,,,0,,,64,0
50760,note_on,,,,,5,0,2,,,,,0,,,56,50
50760,note_on,,,,,0,0,2,,,,,0,,,53,50
50760,note_on,,,,,0,0,2,,,,,0,,,47,50
50760,note_on,,,,,0,0,1,,,,,0,,,77,46
50760,control_change,,,,,0,0,1,,,,,0,64,96,,
50760,note_on,,,,,0,0,1,,,,,0,,,65,46
50760,note_on,,,,,5,0,1,,,,,0,,,68,46
50850,set_tempo,,,,,170,1,0,,754716,,,,,,,
50870,set_tempo,,,,,20,1,0,,759493,,,,,,,
50940,set_tempo,,,,,70,1,0,,779220,,,,,,,
50950,set_tempo,,,,,10,1,0,,789473,,,,,,,
51045,note_on,,,,,0,0,1,,,,,0,,,68,0
51045,note_on,,,,,285,0,1,,,,,0,,,65,0
51045,note_on,,,,,285,0,2,,,,,0,,,47,0
51045,note_on,,,,,0,0,1,,,,,0,,,77,0
51045,note_on,,,,,0,0,2,,,,,0,,,56,0
51045,note_on,,,,,0,0,2,,,,,0,,,53,0
51050,control_change,,,,,5,0,1,,,,,0,64,0,,
51050,set_tempo,,,,,100,1,0,,774193,,,,,,,
51060,note_on,,,,,15,0,2,,,,,0,,,48,46
51060,note_on,,,,,0,0,2,,,,,0,,,52,46
51060,note_on,,,,,0,0,2,,,,,0,,,57,46
51060,note_on,,,,,0,0,1,,,,,0,,,69,42
51060,note_on,,,,,0,0,1,,,,,0,,,76,42
51060,set_tempo,,,,,10,1,0,,769230,,,,,,,
51060,note_on,,,,,10,0,1,,,,,0,,,64,42
51120,note_on,,,,,60,0,1,,,,,0,,,76,0
51120,note_on,,,,,0,0,1,,,,,0,,,69,0
51120,note_on,,,,,0,0,1,,,,,0,,,64,0
51120,note_on,,,,,0,0,1,,,,,0,,,74,44
51120,note_on,,,,,0,0,1,,,,,0,,,64,44
51120,note_on,,,,,60,0,2,,,,,0,,,57,0
51120,note_on,,,,,0,0,2,,,,,0,,,52,0
51120,note_on,,,,,0,0,2,,,,,0,,,48,0
51120,note_on,,,,,0,0,2,,,,,0,,,36,44
51120,note_on,,,,,0,0,2,,,,,0,,,48,44
51120,control_change,,,,,0,0,1,,,,,0,64,95,,
51176,note_on,,,,,0,0,2,,,,,0,,,36,0
51176,note_on,,,,,56,0,1,,,,,0,,,74,0
51176,note_on,,,,,56,0,2,,,,,0,,,48,0
51176,note_on,,,,,0,0,1,,,,,0,,,64,0
51180,note_on,,,,,4,0,1,,,,,0,,,64,46
51180,note_on,,,,,4,0,2,,,,,0,,,36,40
51180,note_on,,,,,0,0,2,,,,,0,,,48,40
51180,note_on,,,,,0,0,1,,,,,0,,,72,46
51200,set_tempo,,,,,140,1,0,,745341,,,,,,,
51210,control_change,,,,,30,0,1,,,,,0,64,0,,
51232,note_on,,,,,0,0,1,,,,,0,,,64,0
51232,note_on,,,,,0,0,2,,,,,0,,,36,0
51232,note_on,,,,,22,0,1,,,,,0,,,72,0
51232,note_on,,,,,52,0,2,,,,,0,,,48,0
51240,note_on,,,,,8,0,2,,,,,0,,,36,40
51240,note_on,,,,,0,0,1,,,,,0,,,71,46
51240,note_on,,,,,0,0,2,,,,,0,,,48,40
51240,note_on,,,,,0,0,1,,,,,0,,,62,46
51240,note_on,,,,,8,0,1,,,,,0,,,64,46
51280,set_tempo,,,,,80,1,0,,727272,,,,,,,
51292,note_on,,,,,52,0,1,,,,,0,,,71,0
51292,note_on,,,,,0,0,1,,,,,0,,,62,0
51292,note_on,,,,,0,0,1,,,,,0,,,64,0
51292,note_on,,,,,0,0,2,,,,,0,,,36,0
51292,note_on,,,,,52,0,2,,,,,0,,,48,0
51300,note_on,,,,,8,0,2,,,,,0,,,36,40
51300,note_on,,,,,0,0,2,,,,,0,,,48,40
51300,note_on,,,,,0,0,1,,,,,0,,,69,46
51300,note_on,,,,,0,0,1,,,,,0,,,64,46
51300,note_on,,,,,8,0,1,,,,,0,,,60,46
51352,note_on,,,,,52,0,2,,,,,0,,,48,0
51352,note_on,,,,,52,0,1,,,,,0,,,69,0
51352,note_on,,,,,0,0,2,,,,,0,,,36,0
51352,note_on,,,,,0,0,1,,,,,0,,,60,0
51352,note_on,,,,,0,0,1,,,,,0,,,64,0
51360,note_on,,,,,0,0,1,,,,,0,,,64,51
51360,note_on,,,,,0,0,2,,,,,0,,,48,42
51360,note_on,,,,,0,0,1,,,,,0,,,71,51
51360,note_on,,,,,8,0,1,,,,,0,,,62,51
51360,note_on,,,,,8,0,2,,,,,0,,,36,42
51390,set_tempo,,,,,110,1,0,,710059,,,,,,,
51412,note_on,,,,,0,0,1,,,,,0,,,64,0
51412,note_on,,,,,52,0,2,,,,,0,,,48,0
51412,note_on,,,,,0,0,2,,,,,0,,,36,0
51412,note_on,,,,,52,0,1,,,,,0,,,71,0
51412,note_on,,,,,0,0,1,,,,,0,,,62,0
51420,note_on,,,,,0,0,2,,,,,0,,,48,45
51420,note_on,,,,,8,0,2,,,,,0,,,36,45
51420,note_on,,,,,0,0,1,,,,,0,,,72,58
51420,note_on,,,,,8,0,1,,,,,0,,,64,58
51465,note_on,,,,,0,0,1,,,,,0,,,64,0
51465,note_on,,,,,0,0,2,,,,,0,,,36,0
51465,note_on,,,,,45,0,2,,,,,0,,,48,0
51465,note_on,,,,,45,0,1,,,,,0,,,72,0
51480,control_change,,,,,0,0,1,,,,,0,64,95,,
51480,note_on,,,,,0,0,1,,,,,0,,,71,67
51480,note_on,,,,,0,0,1,,,,,0,,,64,67
51480,note_on,,,,,15,0,1,,,,,0,,,62,67
51480,note_on,,,,,0,0,2,,,,,0,,,48,51
51480,note_on,,,,,15,0,2,,,,,0,,,36,51
51480,set_tempo,,,,,90,1,0,,740740,,,,,,,
51490,set_tempo,,,,,10,1,0,,736196,,,,,,,
51530,set_tempo,,,,,40,1,0,,731707,,,,,,,
51536,note_on,,,,,56,0,2,,,,,0,,,48,0
51536,note_on,,,,,0,0,2,,,,,0,,,36,0
51536,note_on,,,,,56,0,1,,,,,0,,,71,0
51536,note_on,,,,,0,0,1,,,,,0,,,64,0
51536,note_on,,,,,0,0,1,,,,,0,,,62,0
51540,set_tempo,,,,,10,1,0,,727272,,,,,,,
51540,note_on,,,,,4,0,2,,,,,0,,,36,56
51540,note_on,,,,,0,0,2,,,,,0,,,48,56
51540,note_on,,,,,4,0,1,,,,,0,,,60,54
51540,note_on,,,,,0,0,1,,,,,0,,,64,54
51540,note_on,,,,,0,0,1,,,,,0,,,69,54
51570,control_change,,,,,30,0,1,,,,,0,64,0,,
51592,note_on,,,,,0,0,2,,,,,0,,,36,0
51592,note_on,,,,,52,0,2,,,,,0,,,48,0
51592,note_on,,,,,22,0,1,,,,,0,,,69,0
51592,note_on,,,,,0,0,1,,,,,0,,,64,0
51592,note_on,,,,,0,0,1,,,,,0,,,60,0
51600,note_on,,,,,0,0,2,,,,,0,,,37,62
51600,note_on,,,,,8,0,1,,,,,0,,,59,60
51600,note_on,,,,,0,0,1,,,,,0,,,64,60
51600,note_on,,,,,0,0,1,,,,,0,,,67,60
51600,note_on,,,,,8,0,2,,,,,0,,,49,62
51620,set_tempo,,,,,80,1,0,,710059,,,,,,,
51652,note_on,,,,,52,0,2,,,,,0,,,37,0
51652,note_on,,,,,0,0,2,,,,,0,,,49,0
51652,note_on,,,,,52,0,1,,,,,0,,,67,0
51652,note_on,,,,,0,0,1,,,,,0,,,64,0
51652,note_on,,,,,0,0,1,,,,,0,,,59,0
51660,note_on,,,,,8,0,1,,,,,0,,,57,65
51660,note_on,,,,,0,0,1,,,,,0,,,62,65
51660,note_on,,,,,8,0,2,,,,,0,,,38,68
51660,note_on,,,,,0,0,2,,,,,0,,,50,68
51660,note_on,,,,,0,0,1,,,,,0,,,66,65
51670,set_tempo,,,,,50,1,0,,722891,,,,,,,
51712,note_on,,,,,52,0,1,,,,,0,,,66,0
51712,note_on,,,,,0,0,1,,,,,0,,,57,0
51712,note_on,,,,,0,0,2,,,,,0,,,38,0
51712,note_on,,,,,0,0,1,,,,,0,,,62,0
51712,note_on,,,,,52,0,2,,,,,0,,,50,0
51720,note_on,,,,,8,0,2,,,,,0,,,38,76
51720,note_on,,,,,0,0,2,,,,,0,,,50,76
51720,note_on,,,,,0,0,1,,,,,0,,,62,74
51720,note_on,,,,,0,0,1,,,,,0,,,67,74
51720,note_on,,,,,8,0,1,,,,,0,,,59,74
51730,set_tempo,,,,,60,1,0,,736196,,,,,,,
51772,note_on,,,,,52,0,2,,,,,0,,,50,0
51772,note_on,,,,,0,0,1,,,,,0,,,59,0
51772,note_on,,,,,52,0,1,,,,,0,,,67,0
51772,note_on,,,,,0,0,2,,,,,0,,,38,0
51772,note_on,,,,,0,0,1,,,,,0,,,62,0
51780,note_on,,,,,0,0,2,,,,,0,,,50,83
51780,note_on,,,,,8,0,2,,,,,0,,,38,83
51780,note_on,,,,,8,0,1,,,,,0,,,60,81
51780,note_on,,,,,0,0,1,,,,,0,,,62,81
51780,note_on,,,,,0,0,1,,,,,0,,,69,81
51810,set_tempo,,,,,80,1,0,,750000,,,,,,,
51825,note_on,,,,,0,0,2,,,,,0,,,38,0
51825,note_on,,,,,45,0,2,,,,,0,,,50,0
51825,note_on,,,,,45,0,1,,,,,0,,,69,0
51825,note_on,,,,,0,0,1,,,,,0,,,62,0
51825,note_on,,,,,0,0,1,,,,,0,,,60,0
51840,note_on,,,,,0,0,2,,,,,0,,,50,92
51840,note_on,,,,,0,0,1,,,,,0,,,60,88
51840,note_on,,,,,0,0,1,,,,,0,,,66,88
51840,control_change,,,,,0,0,1,,,,,0,64,95,,
51840,note_on,,,,,15,0,2,,,,,0,,,38,92
51840,note_on,,,,,15,0,1,,,,,0,,,69,88
51840,note_on,,,,,0,0,1,,,,,0,,,62,88
51900,set_tempo,,,,,90,1,0,,769230,,,,,,,
51960,set_tempo,,,,,60,1,0,,774193,,,,,,,
52010,set_tempo,,,,,50,1,0,,794701,,,,,,,
52080,set_tempo,,,,,70,1,0,,810810,,,,,,,
52140,note_on,,,,,0,0,1,,,,,0,,,70,59
52140,note_on,,,,,300,0,1,,,,,0,,,69,0
52190,control_change,,,,,50,0,1,,,,,0,64,0,,
52190,set_tempo,,,,,110,1,0,,794701,,,,,,,
52200,note_on,,,,,0,0,1,,,,,0,,,67,45
52200,note_on,,,,,0,0,1,,,,,0,,,62,45
52200,note_on,,,,,0,0,1,,,,,0,,,59,45
52200,note_on,,,,,0,0,1,,,,,0,,,60,0
52200,note_on,,,,,0,0,1,,,,,0,,,62,0
52200,note_on,,,,,0,0,1,,,,,0,,,66,0
52200,note_on,,,,,10,0,1,,,,,0,,,70,0
52200,note_on,,,,,0,0,1,,,,,0,,,71,45
52200,control_change,,,,,0,0,1,,,,,0,64,96,,
52200,note_on,,,,,0,0,2,,,,,0,,,50,48
52200,note_on,,,,,0,0,2,,,,,0,,,43,48
52200,note_on,,,,,0,0,2,,,,,0,,,38,0
52200,note_on,,,,,360,0,2,,,,,0,,,50,0
52350,set_tempo,,,,,160,1,0,,769230,,,,,,,
52440,note_on,,,,,0,0,1,,,,,0,,,59,0
52440,note_on,,,,,0,0,2,,,,,0,,,43,0
52440,note_on,,,,,240,0,2,,,,,0,,,50,0
52440,control_change,,,,,0,0,1,,,,,0,64,0,,
52440,note_on,,,,,0,0,1,,,,,0,,,67,0
52440,note_on,,,,,0,0,1,,,,,0,,,62,0
52440,note_on,,,,,240,0,1,,,,,0,,,71,0
52490,set_tempo,,,,,140,1,0,,769230,,,,,,,
52560,note_on,,,,,120,0,2,,,,,0,,,30,32
52560,note_on,,,,,120,0,1,,,,,0,,,62,32
52560,note_on,,,,,0,0,1,,,,,0,,,66,32
52560,note_on,,,,,0,0,1,,,,,0,,,71,32
52560,control_change,,,,,0,0,1,,,,,0,64,95,,
52560,note_on,,,,,0,0,2,,,,,0,,,42,32
52560,set_tempo,,,,,70,1,0,,805369,,,,,,,
52695,note_on,,,,,135,0,1,,,,,0,,,71,0
52695,note_on,,,,,0,0,1,,,,,0,,,66,0
52695,note_on,,,,,0,0,1,,,,,0,,,62,0
52695,note_on,,,,,135,0,2,,,,,0,,,42,0
52695,note_on,,,,,0,0,2,,,,,0,,,30,0
52710,note_on,,,,,0,0,2,,,,,0,,,42,31
52710,note_on,,,,,15,0,2,,,,,0,,,30,31
52710,note_on,,,,,15,0,1,,,,,0,,,62,31
52710,note_on,,,,,0,0,1,,,,,0,,,66,31
52710,note_on,,,,,0,0,1,,,,,0,,,71,31
52735,note_on,,,,,0,0,1,,,,,0,,,62,0
52735,note_on,,,,,0,0,2,,,,,0,,,30,0
52735,note_on,,,,,25,0,2,,,,,0,,,42,0
52735,note_on,,,,,25,0,1,,,,,0,,,71,0
52735,note_on,,,,,0,0,1,,,,,0,,,66,0
52740,note_on,,,,,0,0,2,,,,,0,,,42,36
52740,note_on,,,,,5,0,2,,,,,0,,,30,36
52740,note_on,,,,,5,0,1,,,,,0,,,64,36
52740,note_on,,,,,0,0,1,,,,,0,,,67,36
52740,note_on,,,,,0,0,1,,,,,0,,,73,36
52860,control_change,,,,,120,0,1,,,,,0,64,0,,
52905,note_on,,,,,0,0,1,,,,,0,,,64,0
52905,note_on,,,,,165,0,2,,,,,0,,,42,0
52905,note_on,,,,,0,0,2,,,,,0,,,30,0
52905,note_on,,,,,45,0,1,,,,,0,,,73,0
52905,note_on,,,,,0,0,1,,,,,0,,,67,0
52920,note_on,,,,,15,0,2,,,,,0,,,30,32
52920,note_on,,,,,15,0,1,,,,,0,,,62,32
52920,note_on,,,,,0,0,1,,,,,0,,,66,32
52920,note_on,,,,,0,0,2,,,,,0,,,42,32
52920,control_change,,,,,0,0,1,,,,,0,64,96,,
52920,note_on,,,,,0,0,1,,,,,0,,,71,32
53055,note_on,,,,,135,0,1,,,,,0,,,71,0
53055,note_on,,,,,0,0,1,,,,,0,,,66,0
53055,note_on,,,,,0,0,1,,,,,0,,,62,0
53055,note_on,,,,,135,0,2,,,,,0,,,42,0
53055,note_on,,,,,0,0,2,,,,,0,,,30,0
53070,note_on,,,,,15,0,1,,,,,0,,,62,31
53070,note_on,,,,,0,0,1,,,,,0,,,66,31
53070,note_on,,,,,0,0,1,,,,,0,,,71,31
53070,note_on,,,,,15,0,2,,,,,0,,,30,33
53070,note_on,,,,,0,0,2,,,,,0,,,42,33
53095,note_on,,,,,25,0,2,,,,,0,,,42,0
53095,note_on,,,,,0,0,2,,,,,0,,,30,0
53095,note_on,,,,,25,0,1,,,,,0,,,71,0
53095,note_on,,,,,0,0,1,,,,,0,,,66,0
53095,note_on,,,,,0,0,1,,,,,0,,,62,0
53100,note_on,,,,,0,0,2,,,,,0,,,42,36
53100,note_on,,,,,0,0,1,,,,,0,,,70,33
53100,note_on,,,,,0,0,1,,,,,0,,,66,33
53100,note_on,,,,,5,0,2,,,,,0,,,30,36
53100,note_on,,,,,5,0,1,,,,,0,,,61,33
53220,control_change,,,,,120,0,1,,,,,0,64,0,,
53265,note_on,,,,,165,0,2,,,,,0,,,42,0
53265,note_on,,,,,0,0,2,,,,,0,,,30,0
53265,note_on,,,,,0,0,1,,,,,0,,,66,0
53265,note_on,,,,,0,0,1,,,,,0,,,61,0
53265,note_on,,,,,45,0,1,,,,,0,,,70,0
53280,note_on,,,,,0,0,1,,,,,0,,,71,37
53280,note_on,,,,,0,0,1,,,,,0,,,66,37
53280,note_on,,,,,15,0,1,,,,,0,,,62,37
53280,note_on,,,,,0,0,2,,,,,0,,,42,36
53280,set_tempo,,,,,720,1,0,,789473,,,,,,,
53280,note_on,,,,,15,0,2,,,,,0,,,30,36
53330,set_tempo,,,,,50,1,0,,764331,,,,,,,
53332,note_on,,,,,0,0,1,,,,,0,,,66,0
53332,note_on,,,,,52,0,1,,,,,0,,,71,0
53332,note_on,,,,,0,0,1,,,,,0,,,62,0
53332,note_on,,,,,52,0,2,,,,,0,,,42,0
53332,note_on,,,,,0,0,2,,,,,0,,,30,0
53340,note_on,,,,,0,0,1,,,,,0,,,73,43
53340,note_on,,,,,0,0,1,,,,,0,,,66,43
53340,note_on,,,,,8,0,1,,,,,0,,,62,43
53340,note_on,,,,,0,0,2,,,,,0,,,42,40
53340,note_on,,,,,8,0,2,,,,,0,,,30,40
53360,set_tempo,,,,,30,1,0,,745341,,,,,,,
53392,note_on,,,,,0,0,2,,,,,0,,,30,0
53392,note_on,,,,,52,0,2,,,,,0,,,42,0
53392,note_on,,,,,52,0,1,,,,,0,,,73,0
53392,note_on,,,,,0,0,1,,,,,0,,,66,0
53392,note_on,,,,,0,0,1,,,,,0,,,62,0
53400,note_on,,,,,8,0,2,,,,,0,,,30,44
53400,note_on,,,,,8,0,1,,,,,0,,,62,49
53400,note_on,,,,,0,0,1,,,,,0,,,66,49
53400,note_on,,,,,0,0,1,,,,,0,,,71,49
53400,note_on,,,,,0,0,2,,,,,0,,,42,44
53430,set_tempo,,,,,70,1,0,,727272,,,,,,,
53452,note_on,,,,,52,0,2,,,,,0,,,42,0
53452,note_on,,,,,52,0,1,,,,,0,,,71,0
53452,note_on,,,,,0,0,2,,,,,0,,,30,0
53452,note_on,,,,,0,0,1,,,,,0,,,66,0
53452,note_on,,,,,0,0,1,,,,,0,,,62,0
53460,note_on,,,,,0,0,1,,,,,0,,,74,52
53460,note_on,,,,,0,0,2,,,,,0,,,42,49
53460,note_on,,,,,8,0,2,,,,,0,,,30,49
53460,note_on,,,,,8,0,1,,,,,0,,,64,52
53460,note_on,,,,,0,0,1,,,,,0,,,67,52
53460,control_change,,,,,0,0,1,,,,,0,64,96,,
53460,set_tempo,,,,,30,1,0,,816326,,,,,,,
53580,note_on,,,,,120,0,1,,,,,0,,,74,0
53580,note_on,,,,,0,0,1,,,,,0,,,73,38
53600,set_tempo,,,,,140,1,0,,774193,,,,,,,
53625,note_on,,,,,45,0,1,,,,,0,,,73,0
53625,note_on,,,,,0,0,1,,,,,0,,,67,0
53625,note_on,,,,,0,0,1,,,,,0,,,64,0
53625,note_on,,,,,165,0,2,,,,,0,,,42,0
53625,note_on,,,,,0,0,2,,,,,0,,,30,0
53638,control_change,,,,,13,0,1,,,,,0,64,0,,
53640,note_on,,,,,0,0,1,,,,,0,,,66,35
53640,note_on,,,,,2,0,1,,,,,0,,,62,35
53640,note_on,,,,,0,0,1,,,,,0,,,73,35
53640,note_on,,,,,15,0,2,,,,,0,,,30,38
53640,note_on,,,,,0,0,2,,,,,0,,,42,38
53640,set_tempo,,,,,40,1,0,,764331,,,,,,,
53692,note_on,,,,,0,0,1,,,,,0,,,66,0
53692,note_on,,,,,0,0,2,,,,,0,,,30,0
53692,note_on,,,,,52,0,2,,,,,0,,,42,0
53692,note_on,,,,,0,0,1,,,,,0,,,62,0
53692,note_on,,,,,52,0,1,,,,,0,,,73,0
53700,note_on,,,,,0,0,1,,,,,0,,,71,39
53700,note_on,,,,,0,0,1,,,,,0,,,66,39
53700,note_on,,,,,8,0,1,,,,,0,,,62,39
53700,note_on,,,,,0,0,2,,,,,0,,,42,42
53700,note_on,,,,,8,0,2,,,,,0,,,30,42
53710,set_tempo,,,,,70,1,0,,745341,,,,,,,
53752,note_on,,,,,0,0,2,,,,,0,,,30,0
53752,note_on,,,,,52,0,2,,,,,0,,,42,0
53752,note_on,,,,,52,0,1,,,,,0,,,71,0
53752,note_on,,,,,0,0,1,,,,,0,,,66,0
53752,note_on,,,,,0,0,1,,,,,0,,,62,0
53760,note_on,,,,,0,0,2,,,,,0,,,42,47
53760,note_on,,,,,8,0,2,,,,,0,,,30,47
53760,note_on,,,,,8,0,1,,,,,0,,,62,44
53760,note_on,,,,,0,0,1,,,,,0,,,66,44
53760,note_on,,,,,0,0,1,,,,,0,,,73,44
53770,set_tempo,,,,,60,1,0,,727272,,,,,,,
53810,set_tempo,,,,,40,1,0,,714285,,,,,,,
53812,note_on,,,,,52,0,2,,,,,0,,,42,0
53812,note_on,,,,,0,0,2,,,,,0,,,30,0
53812,note_on,,,,,0,0,1,,,,,0,,,66,0
53812,note_on,,,,,52,0,1,,,,,0,,,73,0
53812,note_on,,,,,0,0,1,,,,,0,,,62,0
53820,note_on,,,,,8,0,1,,,,,0,,,71,49
53820,note_on,,,,,0,0,2,,,,,0,,,42,51
53820,note_on,,,,,8,0,2,,,,,0,,,30,51
53820,set_tempo,,,,,10,1,0,,779220,,,,,,,
53820,note_on,,,,,0,0,1,,,,,0,,,66,49
53820,note_on,,,,,0,0,1,,,,,0,,,61,49
53820,control_change,,,,,0,0,1,,,,,0,64,94,,
53830,set_tempo,,,,,10,1,0,,810810,,,,,,,
53940,note_on,,,,,120,0,1,,,,,0,,,71,0
53940,note_on,,,,,0,0,1,,,,,0,,,70,33
53985,note_on,,,,,0,0,2,,,,,0,,,30,0
53985,note_on,,,,,165,0,2,,,,,0,,,42,0
53985,note_on,,,,,0,0,1,,,,,0,,,66,0
53985,note_on,,,,,0,0,1,,,,,0,,,61,0
53985,note_on,,,,,45,0,1,,,,,0,,,70,0
53998,control_change,,,,,13,0,1,,,,,0,64,0,,
54000,note_on,,,,,2,0,1,,,,,0,,,61,44
54000,control_change,,,,,0,0,1,,,,,0,64,95,,
54000,note_on,,,,,0,0,1,,,,,0,,,66,44
54000,note_on,,,,,15,0,2,,,,,0,,,30,42
54000,note_on,,,,,0,0,2,,,,,0,,,42,42
54000,set_tempo,,,,,170,1,0,,764331,,,,,,,
54000,note_on,,,,,0,0,1,,,,,0,,,70,44
54010,set_tempo,,,,,10,1,0,,769230,,,,,,,
54040,set_tempo,,,,,30,1,0,,764331,,,,,,,
54060,note_on,,,,,60,0,2,,,,,0,,,42,0
54060,note_on,,,,,0,0,2,,,,,0,,,42,40
54060,note_on,,,,,0,0,2,,,,,0,,,30,40
54060,note_on,,,,,0,0,1,,,,,0,,,73,37
54060,note_on,,,,,0,0,1,,,,,0,,,70,37
54060,note_on,,,,,0,0,1,,,,,0,,,61,37
54060,note_on,,,,,0,0,1,,,,,0,,,66,0
54060,note_on,,,,,60,0,1,,,,,0,,,70,0
54060,note_on,,,,,0,0,2,,,,,0,,,30,0
54060,note_on,,,,,0,0,1,,,,,0,,,61,0
54110,set_tempo,,,,,70,1,0,,750000,,,,,,,
54116,note_on,,,,,0,0,2,,,,,0,,,30,0
54116,note_on,,,,,0,0,1,,,,,0,,,61,0
54116,note_on,,,,,0,0,1,,,,,0,,,70,0
54116,note_on,,,,,56,0,1,,,,,0,,,73,0
54116,note_on,,,,,56,0,2,,,,,0,,,42,0
54120,note_on,,,,,0,0,1,,,,,0,,,73,39
54120,set_tempo,,,,,10,1,0,,745341,,,,,,,
54120,note_on,,,,,4,0,1,,,,,0,,,61,39
54120,note_on,,,,,4,0,2,,,,,0,,,30,44
54120,note_on,,,,,0,0,2,,,,,0,,,42,44
54120,note_on,,,,,0,0,1,,,,,0,,,70,39
54172,note_on,,,,,52,0,1,,,,,0,,,73,0
54172,note_on,,,,,0,0,1,,,,,0,,,61,0
54172,note_on,,,,,0,0,2,,,,,0,,,30,0
54172,note_on,,,,,52,0,2,,,,,0,,,42,0
54172,note_on,,,,,0,0,1,,,,,0,,,70,0
54178,control_change,,,,,6,0,1,,,,,0,64,0,,
54180,note_on,,,,,2,0,1,,,,,0,,,68,47
54180,note_on,,,,,0,0,1,,,,,0,,,71,47
54180,note_on,,,,,0,0,2,,,,,0,,,42,51
54180,control_change,,,,,0,0,1,,,,,0,64,95,,
54180,note_on,,,,,8,0,2,,,,,0,,,30,51
54180,note_on,,,,,0,0,1,,,,,0,,,73,47
54190,set_tempo,,,,,70,1,0,,731707,,,,,,,
54240,note_on,,,,,0,0,1,,,,,0,,,71,0
54240,note_on,,,,,0,0,1,,,,,0,,,68,0
54240,note_on,,,,,0,0,1,,,,,0,,,68,44
54240,note_on,,,,,0,0,1,,,,,0,,,71,44
54240,note_on,,,,,60,0,2,,,,,0,,,42,0
54240,note_on,,,,,0,0,2,,,,,0,,,42,49
54240,note_on,,,,,0,0,2,,,,,0,,,30,49
54240,note_on,,,,,0,0,2,,,,,0,,,30,0
54240,note_on,,,,,60,0,1,,,,,0,,,73,0
54240,note_on,,,,,0,0,1,,,,,0,,,75,44
54255,set_tempo,,,,,65,1,0,,718562,,,,,,,
54296,note_on,,,,,0,0,1,,,,,0,,,71,0
54296,note_on,,,,,56,0,1,,,,,0,,,75,0
54296,note_on,,,,,0,0,1,,,,,0,,,68,0
54296,note_on,,,,,56,0,2,,,,,0,,,42,0
54296,note_on,,,,,0,0,2,,,,,0,,,30,0
54300,note_on,,,,,0,0,1,,,,,0,,,71,49
54300,note_on,,,,,4,0,2,,,,,0,,,30,50
54300,note_on,,,,,0,0,2,,,,,0,,,42,50
54300,note_on,,,,,4,0,1,,,,,0,,,68,49
54300,note_on,,,,,0,0,1,,,,,0,,,77,49
54310,set_tempo,,,,,55,1,0,,701754,,,,,,,
54320,set_tempo,,,,,10,1,0,,697674,,,,,,,
54350,set_tempo,,,,,30,1,0,,685714,,,,,,,
54352,note_on,,,,,52,0,2,,,,,0,,,42,0
54352,note_on,,,,,0,0,2,,,,,0,,,30,0
54352,note_on,,,,,0,0,1,,,,,0,,,68,0
54352,note_on,,,,,0,0,1,,,,,0,,,71,0
54352,note_on,,,,,52,0,1,,,,,0,,,77,0
54356,control_change,,,,,4,0,1,,,,,0,64,0,,
54360,control_change,,,,,0,0,1,,,,,0,64,96,,
54360,note_on,,,,,0,0,1,,,,,0,,,77,53
54360,note_on,,,,,0,0,1,,,,,0,,,71,53
54360,note_on,,,,,8,0,2,,,,,0,,,30,54
54360,note_on,,,,,0,0,2,,,,,0,,,42,54
54360,note_on,,,,,4,0,1,,,,,0,,,68,53
54420,note_on,,,,,0,0,1,,,,,0,,,78,47
54420,note_on,,,,,60,0,1,,,,,0,,,77,0
54420,note_on,,,,,0,0,1,,,,,0,,,71,0
54420,note_on,,,,,0,0,2,,,,,0,,,42,45
54420,note_on,,,,,0,0,2,,,,,0,,,30,45
54420,note_on,,,,,0,0,2,,,,,0,,,30,0
54420,note_on,,,,,60,0,2,,,,,0,,,42,0
54420,note_on,,,,,0,0,1,,,,,0,,,68,0
54420,note_on,,,,,0,0,1,,,,,0,,,66,47
54420,note_on,,,,,0,0,1,,,,,0,,,70,47
54440,set_tempo,,,,,90,1,0,,693641,,,,,,,
54450,set_tempo,,,,,10,1,0,,705882,,,,,,,
54476,note_on,,,,,0,0,2,,,,,0,,,30,0
54476,note_on,,,,,56,0,1,,,,,0,,,78,0
54476,note_on,,,,,0,0,1,,,,,0,,,70,0
54476,note_on,,,,,0,0,1,,,,,0,,,66,0
54476,note_on,,,,,56,0,2,,,,,0,,,42,0
54480,note_on,,,,,4,0,1,,,,,0,,,66,42
54480,note_on,,,,,0,0,1,,,,,0,,,70,42
54480,note_on,,,,,0,0,1,,,,,0,,,78,42
54480,note_on,,,,,0,0,2,,,,,0,,,42,39
54480,note_on,,,,,4,0,2,,,,,0,,,30,39
54490,set_tempo,,,,,40,1,0,,722891,,,,,,,
54520,set_tempo,,,,,30,1,0,,754716,,,,,,,
54530,set_tempo,,,,,10,1,0,,764331,,,,,,,
54536,note_on,,,,,56,0,2,,,,,0,,,42,0
54536,note_on,,,,,56,0,1,,,,,0,,,78,0
54536,note_on,,,,,0,0,1,,,,,0,,,66,0
54536,note_on,,,,,0,0,1,,,,,0,,,70,0
54536,note_on,,,,,0,0,2,,,,,0,,,30,0
54538,control_change,,,,,2,0,1,,,,,0,64,0,,
54540,note_on,,,,,0,0,1,,,,,0,,,70,43
54540,control_change,,,,,0,0,1,,,,,0,64,95,,
54540,note_on,,,,,0,0,1,,,,,0,,,78,43
54540,note_on,,,,,2,0,1,,,,,0,,,66,43
54540,note_on,,,,,0,0,2,,,,,0,,,42,43
54540,note_on,,,,,4,0,2,,,,,0,,,30,43
54560,set_tempo,,,,,30,1,0,,789473,,,,,,,
54570,set_tempo,,,,,10,1,0,,794701,,,,,,,
54620,set_tempo,,,,,50,1,0,,833333,,,,,,,
54700,set_tempo,,,,,80,1,0,,821917,,,,,,,
54705,note_on,,,,,0,0,2,,,,,0,,,30,0
54705,note_on,,,,,165,0,2,,,,,0,,,42,0
54705,note_on,,,,,165,0,1,,,,,0,,,78,0
54705,note_on,,,,,0,0,1,,,,,0,,,70,0
54705,note_on,,,,,0,0,1,,,,,0,,,66,0
54710,set_tempo,,,,,10,1,0,,769230,,,,,,,
54718,control_change,,,,,13,0,1,,,,,0,64,0,,
54720,control_change,,,,,0,0,1,,,,,0,64,95,,
54720,note_on,,,,,0,0,1,,,,,0,,,66,32
54720,note_on,,,,,0,0,1,,,,,0,,,71,32
54720,note_on,,,,,2,0,1,,,,,0,,,63,32
54720,set_tempo,,,,,10,1,0,,805369,,,,,,,
54720,note_on,,,,,15,0,2,,,,,0,,,30,32
54720,note_on,,,,,0,0,2,,,,,0,,,42,32
54855,note_on,,,,,135,0,1,,,,,0,,,71,0
54855,note_on,,,,,0,0,1,,,,,0,,,66,0
54855,note_on,,,,,0,0,1,,,,,0,,,63,0
54855,note_on,,,,,0,0,2,,,,,0,,,30,0
54855,note_on,,,,,135,0,2,,,,,0,,,42,0
54870,note_on,,,,,0,0,2,,,,,0,,,42,31
54870,note_on,,,,,15,0,1,,,,,0,,,63,31
54870,note_on,,,,,0,0,1,,,,,0,,,66,31
54870,note_on,,,,,0,0,1,,,,,0,,,71,31
54870,note_on,,,,,15,0,2,,,,,0,,,30,31
54895,note_on,,,,,0,0,2,,,,,0,,,30,0
54895,note_on,,,,,0,0,1,,,,,0,,,66,0
54895,note_on,,,,,0,0,1,,,,,0,,,63,0
54895,note_on,,,,,25,0,1,,,,,0,,,71,0
54895,note_on,,,,,25,0,2,,,,,0,,,42,0
54900,note_on,,,,,5,0,1,,,,,0,,,68,36
54900,note_on,,,,,5,0,2,,,,,0,,,30,36
54900,note_on,,,,,0,0,2,,,,,0,,,42,36
54900,note_on,,,,,0,0,1,,,,,0,,,73,36
54900,note_on,,,,,0,0,1,,,,,0,,,64,36
55020,control_change,,,,,120,0,1,,,,,0,64,0,,
55065,note_on,,,,,0,0,1,,,,,0,,,64,0
55065,note_on,,,,,0,0,1,,,,,0,,,68,0
55065,note_on,,,,,45,0,1,,,,,0,,,73,0
55065,note_on,,,,,0,0,2,,,,,0,,,30,0
55065,note_on,,,,,165,0,2,,,,,0,,,42,0
55080,control_change,,,,,0,0,1,,,,,0,64,96,,
55080,note_on,,,,,0,0,1,,,,,0,,,71,37
55080,note_on,,,,,0,0,1,,,,,0,,,66,37
55080,note_on,,,,,15,0,1,,,,,0,,,63,37
55080,note_on,,,,,0,0,2,,,,,0,,,42,37
55080,note_on,,,,,15,0,2,,,,,0,,,30,37
55215,note_on,,,,,135,0,2,,,,,0,,,42,0
55215,note_on,,,,,0,0,1,,,,,0,,,66,0
55215,note_on,,,,,135,0,1,,,,,0,,,71,0
55215,note_on,,,,,0,0,2,,,,,0,,,30,0
55215,note_on,,,,,0,0,1,,,,,0,,,63,0
55230,note_on,,,,,0,0,1,,,,,0,,,71,39
55230,note_on,,,,,0,0,1,,,,,0,,,66,39
55230,note_on,,,,,15,0,1,,,,,0,,,63,39
55230,note_on,,,,,15,0,2,,,,,0,,,30,37
55230,note_on,,,,,0,0,2,,,,,0,,,42,37
55255,note_on,,,,,25,0,1,,,,,0,,,71,0
55255,note_on,,,,,0,0,1,,,,,0,,,63,0
55255,note_on,,,,,0,0,1,,,,,0,,,66,0
55255,note_on,,,,,0,0,2,,,,,0,,,30,0
55255,note_on,,,,,25,0,2,,,,,0,,,42,0
55260,note_on,,,,,5,0,2,,,,,0,,,30,36
55260,note_on,,,,,0,0,1,,,,,0,,,66,39
55260,note_on,,,,,5,0,1,,,,,0,,,61,39
55260,note_on,,,,,0,0,1,,,,,0,,,70,39
55260,note_on,,,,,0,0,2,,,,,0,,,42,36
55380,control_change,,,,,120,0,1,,,,,0,64,0,,
55425,note_on,,,,,0,0,2,,,,,0,,,30,0
55425,note_on,,,,,165,0,2,,,,,0,,,42,0
55425,note_on,,,,,0,0,1,,,,,0,,,66,0
55425,note_on,,,,,0,0,1,,,,,0,,,61,0
55425,note_on,,,,,45,0,1,,,,,0,,,70,0
55440,note_on,,,,,0,0,2,,,,,0,,,42,44
55440,note_on,,,,,15,0,1,,,,,0,,,63,44
55440,set_tempo,,,,,720,1,0,,789473,,,,,,,
55440,note_on,,,,,0,0,1,,,,,0,,,66,44
55440,note_on,,,,,15,0,2,,,,,0,,,30,44
55440,note_on,,,,,0,0,1,,,,,0,,,71,44
55490,set_tempo,,,,,50,1,0,,764331,,,,,,,
55492,note_on,,,,,0,0,1,,,,,0,,,63,0
55492,note_on,,,,,0,0,1,,,,,0,,,66,0
55492,note_on,,,,,52,0,1,,,,,0,,,71,0
55492,note_on,,,,,0,0,2,,,,,0,,,30,0
55492,note_on,,,,,52,0,2,,,,,0,,,42,0
55500,note_on,,,,,0,0,1,,,,,0,,,66,51
55500,note_on,,,,,8,0,1,,,,,0,,,70,51
55500,note_on,,,,,8,0,2,,,,,0,,,30,45
55500,note_on,,,,,0,0,2,,,,,0,,,42,45
55500,note_on,,,,,0,0,1,,,,,0,,,63,51
55520,set_tempo,,,,,30,1,0,,745341,,,,,,,
55552,note_on,,,,,52,0,2,,,,,0,,,42,0
55552,note_on,,,,,0,0,2,,,,,0,,,30,0
55552,note_on,,,,,0,0,1,,,,,0,,,63,0
55552,note_on,,,,,52,0,1,,,,,0,,,66,0
55552,note_on,,,,,0,0,1,,,,,0,,,70,0
55560,note_on,,,,,0,0,1,,,,,0,,,71,56
55560,note_on,,,,,8,0,2,,,,,0,,,30,49
55560,note_on,,,,,0,0,2,,,,,0,,,42,49
55560,note_on,,,,,0,0,1,,,,,0,,,66,56
55560,note_on,,,,,8,0,1,,,,,0,,,63,56
55590,set_tempo,,,,,70,1,0,,727272,,,,,,,
55612,note_on,,,,,0,0,1,,,,,0,,,63,0
55612,note_on,,,,,0,0,1,,,,,0,,,66,0
55612,note_on,,,,,52,0,2,,,,,0,,,42,0
55612,note_on,,,,,52,0,1,,,,,0,,,71,0
55612,note_on,,,,,0,0,2,,,,,0,,,30,0
55620,note_on,,,,,0,0,1,,,,,0,,,68,58
55620,note_on,,,,,0,0,2,,,,,0,,,42,53
55620,note_on,,,,,8,0,2,,,,,0,,,30,53
55620,set_tempo,,,,,30,1,0,,816326,,,,,,,
55620,note_on,,,,,0,0,1,,,,,0,,,64,58
55620,control_change,,,,,0,0,1,,,,,0,64,96,,
55620,note_on,,,,,8,0,1,,,,,0,,,75,58
55740,note_on,,,,,120,0,1,,,,,0,,,75,0
55740,note_on,,,,,0,0,1,,,,,0,,,73,49
55760,set_tempo,,,,,140,1,0,,774193,,,,,,,
55785,note_on,,,,,45,0,1,,,,,0,,,73,0
55785,note_on,,,,,0,0,1,,,,,0,,,68,0
55785,note_on,,,,,165,0,2,,,,,0,,,42,0
55785,note_on,,,,,0,0,2,,,,,0,,,30,0
55785,note_on,,,,,0,0,1,,,,,0,,,64,0
55798,control_change,,,,,13,0,1,,,,,0,64,0,,
55800,note_on,,,,,0,0,2,,,,,0,,,42,38
55800,note_on,,,,,15,0,2,,,,,0,,,30,38
55800,set_tempo,,,,,40,1,0,,764331,,,,,,,
55800,note_on,,,,,0,0,1,,,,,0,,,73,46
55800,note_on,,,,,0,0,1,,,,,0,,,66,46
55800,note_on,,,,,2,0,1,,,,,0,,,63,46
55852,note_on,,,,,0,0,2,,,,,0,,,30,0
55852,note_on,,,,,52,0,2,,,,,0,,,42,0
55852,note_on,,,,,0,0,1,,,,,0,,,66,0
55852,note_on,,,,,0,0,1,,,,,0,,,63,0
55852,note_on,,,,,52,0,1,,,,,0,,,73,0
55860,note_on,,,,,0,0,1,,,,,0,,,71,39
55860,note_on,,,,,0,0,1,,,,,0,,,66,39
55860,note_on,,,,,0,0,2,,,,,0,,,42,42
55860,note_on,,,,,8,0,2,,,,,0,,,30,42
55860,note_on,,,,,8,0,1,,,,,0,,,63,39
55870,set_tempo,,,,,70,1,0,,745341,,,,,,,
55912,note_on,,,,,0,0,2,,,,,0,,,30,0
55912,note_on,,,,,0,0,1,,,,,0,,,66,0
55912,note_on,,,,,0,0,1,,,,,0,,,63,0
55912,note_on,,,,,52,0,2,,,,,0,,,42,0
55912,note_on,,,,,52,0,1,,,,,0,,,71,0
55920,note_on,,,,,8,0,2,,,,,0,,,30,47
55920,note_on,,,,,0,0,2,,,,,0,,,42,47
55920,note_on,,,,,8,0,1,,,,,0,,,63,44
55920,note_on,,,,,0,0,1,,,,,0,,,66,44
55920,note_on,,,,,0,0,1,,,,,0,,,73,44
55930,set_tempo,,,,,60,1,0,,727272,,,,,,,
55970,set_tempo,,,,,40,1,0,,714285,,,,,,,
55972,note_on,,,,,0,0,1,,,,,0,,,66,0
55972,note_on,,,,,0,0,2,,,,,0,,,30,0
55972,note_on,,,,,52,0,2,,,,,0,,,42,0
55972,note_on,,,,,52,0,1,,,,,0,,,73,0
55972,note_on,,,,,0,0,1,,,,,0,,,63,0
55980,note_on,,,,,0,0,2,,,,,0,,,42,51
55980,note_on,,,,,8,0,2,,,,,0,,,30,51
55980,note_on,,,,,8,0,1,,,,,0,,,71,49
55980,note_on,,,,,0,0,1,,,,,0,,,61,49
55980,note_on,,,,,0,0,1,,,,,0,,,66,49
55980,control_change,,,,,0,0,1,,,,,0,64,94,,
55980,set_tempo,,,,,10,1,0,,779220,,,,,,,
55990,set_tempo,,,,,10,1,0,,810810,,,,,,,
56100,note_on,,,,,0,0,1,,,,,0,,,70,33
56100,note_on,,,,,120,0,1,,,,,0,,,71,0
56145,note_on,,,,,0,0,2,,,,,0,,,30,0
56145,note_on,,,,,165,0,2,,,,,0,,,42,0
56145,note_on,,,,,45,0,1,,,,,0,,,70,0
56145,note_on,,,,,0,0,1,,,,,0,,,61,0
56145,note_on,,,,,0,0,1,,,,,0,,,66,0
56158,control_change,,,,,13,0,1,,,,,0,64,0,,
56160,note_on,,,,,2,0,1,,,,,0,,,61,44
56160,note_on,,,,,0,0,1,,,,,0,,,66,44
56160,control_change,,,,,0,0,1,,,,,0,64,95,,
56160,note_on,,,,,0,0,1,,,,,0,,,70,44
56160,note_on,,,,,0,0,2,,,,,0,,,42,42
56160,note_on,,,,,15,0,2,,,,,0,,,30,42
56160,set_tempo,,,,,170,1,0,,759493,,,,,,,
56220,note_on,,,,,0,0,1,,,,,0,,,61,0
56220,note_on,,,,,0,0,2,,,,,0,,,42,39
56220,note_on,,,,,60,0,1,,,,,0,,,70,0
56220,note_on,,,,,0,0,1,,,,,0,,,66,0
56220,note_on,,,,,0,0,2,,,,,0,,,30,39
56220,note_on,,,,,0,0,1,,,,,0,,,61,37
56220,note_on,,,,,60,0,2,,,,,0,,,42,0
56220,note_on,,,,,0,0,1,,,,,0,,,73,37
56220,note_on,,,,,0,0,1,,,,,0,,,70,37
56220,note_on,,,,,0,0,2,,,,,0,,,30,0
56276,note_on,,,,,56,0,1,,,,,0,,,73,0
56276,note_on,,,,,0,0,1,,,,,0,,,70,0
56276,note_on,,,,,0,0,1,,,,,0,,,61,0
56276,note_on,,,,,0,0,2,,,,,0,,,30,0
56276,note_on,,,,,56,0,2,,,,,0,,,42,0
56280,note_on,,,,,4,0,1,,,,,0,,,61,39
56280,note_on,,,,,0,0,1,,,,,0,,,70,39
56280,note_on,,,,,0,0,1,,,,,0,,,73,39
56280,note_on,,,,,4,0,2,,,,,0,,,30,42
56280,note_on,,,,,0,0,2,,,,,0,,,42,42
56325,set_tempo,,,,,165,1,0,,736196,,,,,,,
56332,note_on,,,,,0,0,1,,,,,0,,,70,0
56332,note_on,,,,,52,0,2,,,,,0,,,42,0
56332,note_on,,,,,0,0,2,,,,,0,,,30,0
56332,note_on,,,,,52,0,1,,,,,0,,,73,0
56332,note_on,,,,,0,0,1,,,,,0,,,61,0
56338,control_change,,,,,6,0,1,,,,,0,64,0,,
56340,note_on,,,,,0,0,1,,,,,0,,,73,47
56340,note_on,,,,,0,0,1,,,,,0,,,71,47
56340,note_on,,,,,2,0,1,,,,,0,,,68,47
56340,note_on,,,,,8,0,2,,,,,0,,,30,45
56340,control_change,,,,,0,0,1,,,,,0,64,95,,
56340,note_on,,,,,0,0,2,,,,,0,,,42,45
56375,set_tempo,,,,,50,1,0,,718562,,,,,,,
56380,set_tempo,,,,,5,1,0,,714285,,,,,,,
56400,note_on,,,,,60,0,1,,,,,0,,,73,0
56400,note_on,,,,,0,0,1,,,,,0,,,75,48
56400,note_on,,,,,0,0,1,,,,,0,,,68,0
56400,note_on,,,,,0,0,1,,,,,0,,,68,48
56400,note_on,,,,,0,0,1,,,,,0,,,71,48
56400,note_on,,,,,0,0,2,,,,,0,,,30,0
56400,note_on,,,,,0,0,2,,,,,0,,,42,50
56400,note_on,,,,,60,0,2,,,,,0,,,42,0
56400,note_on,,,,,0,0,1,,,,,0,,,71,0
56400,note_on,,,,,0,0,2,,,,,0,,,30,50
56435,set_tempo,,,,,55,1,0,,685714,,,,,,,
56456,note_on,,,,,0,0,1,,,,,0,,,71,0
56456,note_on,,,,,0,0,1,,,,,0,,,68,0
56456,note_on,,,,,0,0,2,,,,,0,,,30,0
56456,note_on,,,,,56,0,2,,,,,0,,,42,0
56456,note_on,,,,,56,0,1,,,,,0,,,75,0
56460,note_on,,,,,0,0,1,,,,,0,,,71,55
56460,note_on,,,,,0,0,2,,,,,0,,,42,58
56460,note_on,,,,,4,0,2,,,,,0,,,30,58
56460,note_on,,,,,4,0,1,,,,,0,,,68,55
56460,note_on,,,,,0,0,1,,,,,0,,,77,55
56512,note_on,,,,,0,0,2,,,,,0,,,30,0
56512,note_on,,,,,52,0,2,,,,,0,,,42,0
56512,note_on,,,,,52,0,1,,,,,0,,,77,0
56512,note_on,,,,,0,0,1,,,,,0,,,68,0
56512,note_on,,,,,0,0,1,,,,,0,,,71,0
56515,set_tempo,,,,,80,1,0,,674157,,,,,,,
56516,control_change,,,,,4,0,1,,,,,0,64,0,,
56520,note_on,,,,,0,0,1,,,,,0,,,77,62
56520,note_on,,,,,0,0,1,,,,,0,,,71,62
56520,note_on,,,,,4,0,1,,,,,0,,,68,62
56520,control_change,,,,,0,0,1,,,,,0,64,96,,
56520,note_on,,,,,8,0,2,,,,,0,,,30,63
56520,note_on,,,,,0,0,2,,,,,0,,,42,63
56580,note_on,,,,,0,0,2,,,,,0,,,42,70
56580,note_on,,,,,0,0,2,,,,,0,,,30,70
56580,note_on,,,,,0,0,2,,,,,0,,,30,0
56580,note_on,,,,,60,0,2,,,,,0,,,42,0
56580,note_on,,,,,60,0,1,,,,,0,,,77,0
56580,note_on,,,,,0,0,1,,,,,0,,,66,65
56580,note_on,,,,,0,0,1,,,,,0,,,68,0
56580,note_on,,,,,0,0,1,,,,,0,,,71,0
56580,note_on,,,,,0,0,1,,,,,0,,,78,65
56580,note_on,,,,,0,0,1,,,,,0,,,70,65
56610,set_tempo,,,,,95,1,0,,689655,,,,,,,
56615,set_tempo,,,,,5,1,0,,693641,,,,,,,
56636,note_on,,,,,0,0,1,,,,,0,,,70,0
56636,note_on,,,,,56,0,1,,,,,0,,,78,0
56636,note_on,,,,,56,0,2,,,,,0,,,42,0
56636,note_on,,,,,0,0,2,,,,,0,,,30,0
56636,note_on,,,,,0,0,1,,,,,0,,,66,0
56640,note_on,,,,,0,0,1,,,,,0,,,70,73
56640,note_on,,,,,0,0,2,,,,,0,,,42,79
56640,note_on,,,,,4,0,2,,,,,0,,,30,79
56640,note_on,,,,,0,0,1,,,,,0,,,78,73
56640,note_on,,,,,4,0,1,,,,,0,,,66,73
56670,set_tempo,,,,,55,1,0,,714285,,,,,,,
56696,note_on,,,,,0,0,2,,,,,0,,,30,0
56696,note_on,,,,,56,0,2,,,,,0,,,42,0
56696,note_on,,,,,56,0,1,,,,,0,,,78,0
56696,note_on,,,,,0,0,1,,,,,0,,,70,0
56696,note_on,,,,,0,0,1,,,,,0,,,66,0
56698,control_change,,,,,2,0,1,,,,,0,64,0,,
56700,note_on,,,,,0,0,1,,,,,0,,,70,80
56700,note_on,,,,,4,0,2,,,,,0,,,30,87
56700,note_on,,,,,0,0,1,,,,,0,,,78,80
56700,note_on,,,,,2,0,1,,,,,0,,,66,80
56700,control_change,,,,,0,0,1,,,,,0,64,95,,
56700,note_on,,,,,0,0,2,,,,,0,,,42,87
56710,set_tempo,,,,,40,1,0,,731707,,,,,,,
56756,note_on,,,,,0,0,1,,,,,0,,,70,0
56756,note_on,,,,,56,0,1,,,,,0,,,78,0
56756,note_on,,,,,0,0,1,,,,,0,,,66,0
56756,note_on,,,,,0,0,2,,,,,0,,,30,0
56756,note_on,,,,,56,0,2,,,,,0,,,42,0
56760,set_tempo,,,,,50,1,0,,754716,,,,,,,
56760,note_on,,,,,4,0,1,,,,,0,,,66,89
56760,note_on,,,,,0,0,1,,,,,0,,,70,89
56760,note_on,,,,,0,0,2,,,,,0,,,30,91
56760,note_on,,,,,4,0,2,,,,,0,,,42,91
56760,note_on,,,,,0,0,1,,,,,0,,,78,89
56800,set_tempo,,,,,40,1,0,,779220,,,,,,,
56816,note_on,,,,,0,0,2,,,,,0,,,42,0
56816,note_on,,,,,56,0,2,,,,,0,,,30,0
56816,note_on,,,,,56,0,1,,,,,0,,,78,0
56816,note_on,,,,,0,0,1,,,,,0,,,70,0
56816,note_on,,,,,0,0,1,,,,,0,,,66,0
56820,note_on,,,,,4,0,1,,,,,0,,,66,97
56820,note_on,,,,,0,0,1,,,,,0,,,70,97
56820,note_on,,,,,0,0,1,,,,,0,,,78,97
56820,note_on,,,,,4,0,2,,,,,0,,,42,97
56820,note_on,,,,,0,0,2,,,,,0,,,30,97
56830,set_tempo,,,,,30,1,0,,800000,,,,,,,
56840,set_tempo,,,,,10,1,0,,863309,,,,,,,
56860,set_tempo,,,,,20,1,0,,937500,,,,,,,
56870,set_tempo,,,,,10,1,0,,967741,,,,,,,
56876,note_on,,,,,56,0,1,,,,,0,,,78,0
56876,note_on,,,,,0,0,1,,,,,0,,,70,0
56876,note_on,,,,,0,0,1,,,,,0,,,66,0
56876,note_on,,,,,56,0,2,,,,,0,,,30,0
56876,note_on,,,,,0,0,2,,,,,0,,,42,0
56878,control_change,,,,,2,0,1,,,,,0,64,0,,
56880,control_change,,,,,0,0,1,,,,,0,64,96,,
56880,note_on,,,,,0,0,1,,,,,0,,,78,106
56880,note_on,,,,,0,0,1,,,,,0,,,71,106
56880,note_on,,,,,2,0,1,,,,,0,,,66,106
56880,set_tempo,,,,,10,1,0,,991735,,,,,,,
56880,note_on,,,,,4,0,2,,,,,0,,,38,101
56936,note_on,,,,,0,0,1,,,,,0,,,71,0
56936,note_on,,,,,56,0,2,,,,,0,,,38,0
56936,note_on,,,,,56,0,1,,,,,0,,,78,0
56936,note_on,,,,,0,0,1,,,,,0,,,66,0
56936,control_change,,,,,0,0,1,,,,,0,64,0,,
56940,control_change,,,,,0,0,1,,,,,0,64,96,,
56940,note_on,,,,,0,0,1,,,,,0,,,78,94
56940,note_on,,,,,4,0,2,,,,,0,,,38,89
56940,note_on,,,,,0,0,1,,,,,0,,,72,94
56940,note_on,,,,,4,0,1,,,,,0,,,66,94
56990,set_tempo,,,,,110,1,0,,845070,,,,,,,
56996,note_on,,,,,56,0,2,,,,,0,,,38,0
56996,note_on,,,,,56,0,1,,,,,0,,,78,0
56996,note_on,,,,,0,0,1,,,,,0,,,72,0
56996,note_on,,,,,0,0,1,,,,,0,,,66,0
57000,note_on,,,,,4,0,2,,,,,0,,,38,78
57000,note_on,,,,,0,0,1,,,,,0,,,78,80
57000,note_on,,,,,0,0,1,,,,,0,,,72,80
57000,note_on,,,,,4,0,1,,,,,0,,,66,80
57020,set_tempo,,,,,30,1,0,,794701,,,,,,,
57055,set_tempo,,,,,35,1,0,,764331,,,,,,,
57056,note_on,,,,,56,0,1,,,,,0,,,78,0
57056,note_on,,,,,0,0,1,,,,,0,,,72,0
57056,note_on,,,,,0,0,1,,,,,0,,,66,0
57056,note_on,,,,,56,0,2,,,,,0,,,38,0
57060,note_on,,,,,4,0,1,,,,,0,,,66,74
57060,note_on,,,,,0,0,1,,,,,0,,,72,74
57060,note_on,,,,,0,0,1,,,,,0,,,78,74
57060,note_on,,,,,4,0,2,,,,,0,,,38,67
57116,note_on,,,,,56,0,1,,,,,0,,,78,0
57116,note_on,,,,,0,0,1,,,,,0,,,72,0
57116,note_on,,,,,0,0,1,,,,,0,,,66,0
57116,note_on,,,,,56,0,2,,,,,0,,,38,0
57120,note_on,,,,,4,0,1,,,,,0,,,66,60
57120,note_on,,,,,0,0,1,,,,,0,,,78,60
57120,note_on,,,,,0,0,1,,,,,0,,,72,60
57120,note_on,,,,,4,0,2,,,,,0,,,38,59
57120,set_tempo,,,,,65,1,0,,794701,,,,,,,
57176,note_on,,,,,56,0,2,,,,,0,,,38,0
57176,note_on,,,,,56,0,1,,,,,0,,,78,0
57176,note_on,,,,,0,0,1,,,,,0,,,72,0
57176,note_on,,,,,0,0,1,,,,,0,,,66,0
57180,note_on,,,,,4,0,2,,,,,0,,,38,50
57180,note_on,,,,,4,0,1,,,,,0,,,66,55
57180,note_on,,,,,0,0,1,,,,,0,,,72,55
57180,note_on,,,,,0,0,1,,,,,0,,,78,55
57180,set_tempo,,,,,60,1,0,,810810,,,,,,,
57230,set_tempo,,,,,50,1,0,,827586,,,,,,,
57236,note_on,,,,,56,0,2,,,,,0,,,38,0
57236,note_on,,,,,0,0,1,,,,,0,,,66,0
57236,note_on,,,,,0,0,1,,,,,0,,,72,0
57236,note_on,,,,,56,0,1,,,,,0,,,78,0
57240,note_on,,,,,4,0,1,,,,,0,,,66,49
57240,set_tempo,,,,,10,1,0,,888888,,,,,,,
57240,note_on,,,,,4,0,2,,,,,0,,,38,48
57240,note_on,,,,,0,0,1,,,,,0,,,72,49
57240,note_on,,,,,0,0,1,,,,,0,,,78,49
57242,control_change,,,,,2,0,1,,,,,0,64,0,,
57250,set_tempo,,,,,10,1,0,,895522,,,,,,,
57280,set_tempo,,,,,30,1,0,,960000,,,,,,,
57292,note_on,,,,,0,0,1,,,,,0,,,72,0
57292,note_on,,,,,0,0,1,,,,,0,,,66,0
57292,note_on,,,,,52,0,2,,,,,0,,,38,0
57292,note_on,,,,,50,0,1,,,,,0,,,78,0
57300,note_on,,,,,8,0,2,,,,,0,,,50,60
57300,note_on,,,,,8,0,1,,,,,0,,,62,66
57310,set_tempo,,,,,30,1,0,,1025641,,,,,,,
57350,set_tempo,,,,,40,1,0,,800000,,,,,,,
57356,note_on,,,,,56,0,2,,,,,0,,,50,0
57356,note_on,,,,,56,0,1,,,,,0,,,62,0
57360,note_on,,,,,4,0,2,,,,,0,,,48,54
57360,set_tempo,,,,,10,1,0,,794701,,,,,,,
57360,note_on,,,,,0,0,2,,,,,0,,,50,54
57360,note_on,,,,,4,0,1,,,,,0,,,62,59
57365,set_tempo,,,,,5,1,0,,794701,,,,,,,
57380,set_tempo,,,,,15,1,0,,821917,,,,,,,
57416,note_on,,,,,56,0,1,,,,,0,,,62,0
57416,note_on,,,,,0,0,2,,,,,0,,,48,0
57416,note_on,,,,,56,0,2,,,,,0,,,50,0
57420,note_on,,,,,0,0,2,,,,,0,,,50,48
57420,note_on,,,,,4,0,1,,,,,0,,,62,51
57420,note_on,,,,,4,0,2,,,,,0,,,47,48
57425,set_tempo,,,,,45,1,0,,827586,,,,,,,
57430,set_tempo,,,,,5,1,0,,839160,,,,,,,
57455,set_tempo,,,,,25,1,0,,863309,,,,,,,
57476,note_on,,,,,56,0,1,,,,,0,,,62,0
57476,note_on,,,,,0,0,2,,,,,0,,,47,0
57476,note_on,,,,,56,0,2,,,,,0,,,50,0
57480,note_on,,,,,4,0,1,,,,,0,,,62,45
57480,note_on,,,,,0,0,2,,,,,0,,,50,45
57480,note_on,,,,,4,0,2,,,,,0,,,45,45
57490,set_tempo,,,,,35,1,0,,895522,,,,,,,
57532,note_on,,,,,52,0,1,,,,,0,,,62,0
57532,note_on,,,,,52,0,2,,,,,0,,,50,0
57532,note_on,,,,,0,0,2,,,,,0,,,45,0
57535,set_tempo,,,,,45,1,0,,923076,,,,,,,
57540,note_on,,,,,8,0,2,,,,,0,,,50,42
57540,note_on,,,,,0,0,2,,,,,0,,,43,42
57540,note_on,,,,,8,0,1,,,,,0,,,62,39
57585,note_on,,,,,45,0,1,,,,,0,,,62,0
57592,note_on,,,,,0,0,2,,,,,0,,,50,0
57592,note_on,,,,,52,0,2,,,,,0,,,43,0
57600,set_tempo,,,,,65,1,0,,750000,,,,,,,
57600,note_on,,,,,0,0,2,,,,,0,,,50,43
57600,note_on,,,,,8,0,2,,,,,0,,,43,43
57600,control_change,,,,,0,0,1,,,,,0,64,96,,
57600,note_on,,,,,0,0,1,,,,,0,,,71,43
57600,note_on,,,,,0,0,1,,,,,0,,,67,43
57600,note_on,,,,,15,0,1,,,,,0,,,59,43
57610,set_tempo,,,,,10,1,0,,754716,,,,,,,
57915,note_on,,,,,0,0,1,,,,,0,,,67,0
57915,note_on,,,,,315,0,1,,,,,0,,,71,0
57915,note_on,,,,,315,0,2,,,,,0,,,50,0
57915,note_on,,,,,0,0,2,,,,,0,,,43,0
57915,note_on,,,,,0,0,1,,,,,0,,,59,0
57930,note_on,,,,,0,0,2,,,,,0,,,50,47
57930,note_on,,,,,0,0,1,,,,,0,,,69,39
57930,control_change,,,,,0,0,1,,,,,0,64,0,,
57930,note_on,,,,,15,0,1,,,,,0,,,60,39
57930,note_on,,,,,0,0,1,,,,,0,,,66,39
57930,note_on,,,,,15,0,2,,,,,0,,,43,47
57955,note_on,,,,,25,0,2,,,,,0,,,50,0
57955,note_on,,,,,0,0,2,,,,,0,,,43,0
57955,note_on,,,,,25,0,1,,,,,0,,,69,0
57955,note_on,,,,,0,0,1,,,,,0,,,66,0
57955,note_on,,,,,0,0,1,,,,,0,,,60,0
57960,note_on,,,,,0,0,1,,,,,0,,,71,46
57960,control_change,,,,,0,0,1,,,,,0,64,95,,
57960,note_on,,,,,0,0,2,,,,,0,,,50,53
57960,note_on,,,,,5,0,1,,,,,0,,,59,46
57960,note_on,,,,,5,0,2,,,,,0,,,43,53
57960,note_on,,,,,0,0,1,,,,,0,,,67,46
58275,note_on,,,,,315,0,2,,,,,0,,,50,0
58275,note_on,,,,,0,0,1,,,,,0,,,59,0
58275,note_on,,,,,0,0,1,,,,,0,,,67,0
58275,note_on,,,,,315,0,1,,,,,0,,,71,0
58275,note_on,,,,,0,0,2,,,,,0,,,43,0
58290,note_on,,,,,15,0,1,,,,,0,,,60,40
58290,note_on,,,,,0,0,2,,,,,0,,,50,46
58290,note_on,,,,,0,0,1,,,,,0,,,66,40
58290,note_on,,,,,0,0,1,,,,,0,,,69,40
58290,control_change,,,,,0,0,1,,,,,0,64,0,,
58290,note_on,,,,,15,0,2,,,,,0,,,43,46
58315,note_on,,,,,25,0,1,,,,,0,,,69,0
58315,note_on,,,,,0,0,1,,,,,0,,,66,0
58315,note_on,,,,,0,0,1,,,,,0,,,60,0
58315,note_on,,,,,25,0,2,,,,,0,,,50,0
58315,note_on,,,,,0,0,2,,,,,0,,,43,0
58320,note_on,,,,,5,0,2,,,,,0,,,43,53
58320,note_on,,,,,0,0,2,,,,,0,,,50,53
58320,note_on,,,,,0,0,1,,,,,0,,,71,51
58320,control_change,,,,,0,0,1,,,,,0,64,96,,
58320,note_on,,,,,5,0,1,,,,,0,,,59,51
58320,note_on,,,,,0,0,1,,,,,0,,,67,51
58350,set_tempo,,,,,740,1,0,,740740,,,,,,,
58372,note_on,,,,,52,0,2,,,,,0,,,50,0
58372,note_on,,,,,0,0,2,,,,,0,,,43,0
58372,note_on,,,,,0,0,1,,,,,0,,,59,0
58372,note_on,,,,,0,0,1,,,,,0,,,67,0
58372,note_on,,,,,52,0,1,,,,,0,,,71,0
58380,note_on,,,,,0,0,2,,,,,0,,,50,57
58380,note_on,,,,,0,0,1,,,,,0,,,69,55
58380,note_on,,,,,0,0,1,,,,,0,,,72,55
58380,note_on,,,,,8,0,1,,,,,0,,,60,55
58380,note_on,,,,,8,0,2,,,,,0,,,43,57
58420,set_tempo,,,,,70,1,0,,727272,,,,,,,
58432,note_on,,,,,0,0,1,,,,,0,,,69,0
58432,note_on,,,,,0,0,1,,,,,0,,,60,0
58432,note_on,,,,,52,0,1,,,,,0,,,72,0
58432,note_on,,,,,52,0,2,,,,,0,,,50,0
58432,note_on,,,,,0,0,2,,,,,0,,,43,0
58440,note_on,,,,,8,0,1,,,,,0,,,62,61
58440,note_on,,,,,0,0,1,,,,,0,,,74,61
58440,note_on,,,,,8,0,2,,,,,0,,,43,61
58440,note_on,,,,,0,0,2,,,,,0,,,50,61
58440,note_on,,,,,0,0,1,,,,,0,,,71,61
58492,note_on,,,,,0,0,2,,,,,0,,,43,0
58492,note_on,,,,,52,0,1,,,,,0,,,74,0
58492,note_on,,,,,0,0,1,,,,,0,,,71,0
58492,note_on,,,,,0,0,1,,,,,0,,,62,0
58492,note_on,,,,,52,0,2,,,,,0,,,50,0
58498,control_change,,,,,6,0,1,,,,,0,64,0,,
58500,note_on,,,,,2,0,1,,,,,0,,,66,65
58500,note_on,,,,,0,0,1,,,,,0,,,62,65
58500,control_change,,,,,0,0,1,,,,,0,64,96,,
58500,note_on,,,,,0,0,1,,,,,0,,,74,65
58500,note_on,,,,,8,0,2,,,,,0,,,38,64
58500,note_on,,,,,0,0,2,,,,,0,,,50,64
58510,set_tempo,,,,,90,1,0,,714285,,,,,,,
58552,note_on,,,,,0,0,2,,,,,0,,,38,0
58552,note_on,,,,,52,0,2,,,,,0,,,50,0
58552,note_on,,,,,52,0,1,,,,,0,,,62,0
58557,note_on,,,,,0,0,1,,,,,0,,,66,0
58557,note_on,,,,,5,0,1,,,,,0,,,74,0
58560,set_tempo,,,,,50,1,0,,722891,,,,,,,
58560,note_on,,,,,0,0,1,,,,,0,,,66,53
58560,note_on,,,,,0,0,2,,,,,0,,,50,57
58560,note_on,,,,,3,0,1,,,,,0,,,60,53
58560,note_on,,,,,8,0,2,,,,,0,,,38,57
58560,note_on,,,,,0,0,1,,,,,0,,,72,53
58600,set_tempo,,,,,40,1,0,,736196,,,,,,,
58612,note_on,,,,,52,0,1,,,,,0,,,72,0
58612,note_on,,,,,0,0,1,,,,,0,,,66,0
58617,note_on,,,,,0,0,2,,,,,0,,,38,0
58617,note_on,,,,,57,0,2,,,,,0,,,50,0
58617,note_on,,,,,5,0,1,,,,,0,,,60,0
58620,note_on,,,,,0,0,2,,,,,0,,,50,52
58620,note_on,,,,,0,0,1,,,,,0,,,72,50
58620,note_on,,,,,0,0,1,,,,,0,,,66,50
58620,note_on,,,,,3,0,2,,,,,0,,,38,52
58620,note_on,,,,,3,0,1,,,,,0,,,60,50
58630,set_tempo,,,,,30,1,0,,750000,,,,,,,
58660,set_tempo,,,,,30,1,0,,779220,,,,,,,
58672,note_on,,,,,52,0,1,,,,,0,,,72,0
58672,note_on,,,,,0,0,1,,,,,0,,,66,0
58672,note_on,,,,,0,0,1,,,,,0,,,60,0
58677,note_on,,,,,57,0,2,,,,,0,,,50,0
58677,note_on,,,,,0,0,2,,,,,0,,,38,0
58678,control_change,,,,,6,0,1,,,,,0,64,0,,
58680,note_on,,,,,3,0,2,,,,,0,,,43,42
58680,note_on,,,,,0,0,2,,,,,0,,,50,42
58680,control_change,,,,,0,0,1,,,,,0,64,95,,
58680,note_on,,,,,0,0,1,,,,,0,,,71,44
58680,note_on,,,,,0,0,1,,,,,0,,,67,44
58680,note_on,,,,,2,0,1,,,,,0,,,59,44
58732,note_on,,,,,52,0,1,,,,,0,,,71,0
58732,note_on,,,,,0,0,1,,,,,0,,,67,0
58732,note_on,,,,,0,0,1,,,,,0,,,59,0
58732,note_on,,,,,0,0,2,,,,,0,,,43,0
58732,note_on,,,,,52,0,2,,,,,0,,,50,0
58738,control_change,,,,,6,0,1,,,,,0,64,0,,
58740,note_on,,,,,2,0,1,,,,,0,,,67,48
58740,set_tempo,,,,,80,1,0,,779220,,,,,,,
58750,set_tempo,,,,,10,1,0,,750000,,,,,,,
58765,set_tempo,,,,,15,1,0,,754716,,,,,,,
58792,note_on,,,,,52,0,1,,,,,0,,,67,0
58800,note_on,,,,,8,0,1,,,,,0,,,69,52
58810,set_tempo,,,,,45,1,0,,745341,,,,,,,
58852,note_on,,,,,52,0,1,,,,,0,,,69,0
58860,note_on,,,,,8,0,1,,,,,0,,,71,58
58880,set_tempo,,,,,70,1,0,,759493,,,,,,,
58912,note_on,,,,,52,0,1,,,,,0,,,71,0
58920,note_on,,,,,8,0,1,,,,,0,,,72,61
58945,set_tempo,,,,,65,1,0,,784313,,,,,,,
58972,note_on,,,,,52,0,1,,,,,0,,,72,0
58980,note_on,,,,,8,0,1,,,,,0,,,74,56
58990,set_tempo,,,,,45,1,0,,816326,,,,,,,
59030,set_tempo,,,,,40,1,0,,740740,,,,,,,
59032,note_on,,,,,52,0,1,,,,,0,,,74,0
59040,control_change,,,,,0,0,1,,,,,0,64,96,,
59040,note_on,,,,,0,0,2,,,,,0,,,48,57
59040,note_on,,,,,8,0,1,,,,,0,,,64,59
59040,note_on,,,,,0,0,1,,,,,0,,,72,59
59040,note_on,,,,,0,0,1,,,,,0,,,76,59
59040,note_on,,,,,308,0,2,,,,,0,,,36,57
59050,set_tempo,,,,,20,1,0,,754716,,,,,,,
59355,note_on,,,,,315,0,1,,,,,0,,,76,0
59355,note_on,,,,,0,0,1,,,,,0,,,64,0
59355,note_on,,,,,315,0,2,,,,,0,,,48,0
59355,note_on,,,,,0,0,2,,,,,0,,,36,0
59355,note_on,,,,,0,0,1,,,,,0,,,72,0
59370,note_on,,,,,0,0,2,,,,,0,,,48,56
59370,note_on,,,,,15,0,1,,,,,0,,,63,51
59370,note_on,,,,,0,0,1,,,,,0,,,71,51
59370,note_on,,,,,0,0,1,,,,,0,,,75,51
59370,control_change,,,,,0,0,1,,,,,0,64,0,,
59370,note_on,,,,,15,0,2,,,,,0,,,36,56
59395,note_on,,,,,0,0,1,,,,,0,,,71,0
59395,note_on,,,,,25,0,2,,,,,0,,,48,0
59395,note_on,,,,,0,0,2,,,,,0,,,36,0
59395,note_on,,,,,25,0,1,,,,,0,,,75,0
59395,note_on,,,,,0,0,1,,,,,0,,,63,0
59400,note_on,,,,,0,0,1,,,,,0,,,76,54
59400,note_on,,,,,5,0,1,,,,,0,,,64,54
59400,control_change,,,,,0,0,1,,,,,0,64,95,,
59400,note_on,,,,,0,0,1,,,,,0,,,72,54
59400,note_on,,,,,5,0,2,,,,,0,,,36,59
59400,note_on,,,,,0,0,2,,,,,0,,,48,59
59715,note_on,,,,,315,0,1,,,,,0,,,76,0
59715,note_on,,,,,0,0,1,,,,,0,,,72,0
59715,note_on,,,,,0,0,1,,,,,0,,,64,0
59715,note_on,,,,,315,0,2,,,,,0,,,48,0
59715,note_on,,,,,0,0,2,,,,,0,,,36,0
59730,note_on,,,,,0,0,2,,,,,0,,,48,46
59730,note_on,,,,,15,0,2,,,,,0,,,36,46
59730,note_on,,,,,15,0,1,,,,,0,,,63,40
59730,note_on,,,,,0,0,1,,,,,0,,,71,40
59730,note_on,,,,,0,0,1,,,,,0,,,75,40
59730,control_change,,,,,0,0,1,,,,,0,64,0,,
59755,note_on,,,,,25,0,1,,,,,0,,,75,0
59755,note_on,,,,,0,0,1,,,,,0,,,71,0
59755,note_on,,,,,0,0,1,,,,,0,,,63,0
59755,note_on,,,,,25,0,2,,,,,0,,,48,0
59755,note_on,,,,,0,0,2,,,,,0,,,36,0
59760,control_change,,,,,0,0,1,,,,,0,64,96,,
59760,note_on,,,,,5,0,1,,,,,0,,,72,51
59760,note_on,,,,,0,0,1,,,,,0,,,64,51
59760,note_on,,,,,0,0,1,,,,,0,,,76,51
59760,note_on,,,,,0,0,2,,,,,0,,,48,53
59760,note_on,,,,,5,0,2,,,,,0,,,36,53
59790,set_tempo,,,,,740,1,0,,740740,,,,,,,
59812,note_on,,,,,0,0,1,,,,,0,,,64,0
59812,note_on,,,,,52,0,2,,,,,0,,,48,0
59812,note_on,,,,,52,0,1,,,,,0,,,76,0
59812,note_on,,,,,0,0,2,,,,,0,,,36,0
59812,note_on,,,,,0,0,1,,,,,0,,,72,0
59820,note_on,,,,,0,0,1,,,,,0,,,77,55
59820,note_on,,,,,0,0,1,,,,,0,,,65,55
59820,note_on,,,,,8,0,2,,,,,0,,,36,57
59820,note_on,,,,,0,0,2,,,,,0,,,48,57
59820,note_on,,,,,8,0,1,,,,,0,,,71,55
59860,set_tempo,,,,,70,1,0,,727272,,,,,,,
59872,note_on,,,,,52,0,2,,,,,0,,,48,0
59872,note_on,,,,,0,0,2,,,,,0,,,36,0
59872,note_on,,,,,0,0,1,,,,,0,,,65,0
59872,note_on,,,,,0,0,1,,,,,0,,,71,0
59872,note_on,,,,,52,0,1,,,,,0,,,77,0
59880,note_on,,,,,0,0,1,,,,,0,,,76,61
59880,note_on,,,,,0,0,1,,,,,0,,,72,61
59880,note_on,,,,,8,0,1,,,,,0,,,64,61
59880,note_on,,,,,8,0,2,,,,,0,,,36,61
59880,note_on,,,,,0,0,2,,,,,0,,,48,61
59932,note_on,,,,,0,0,1,,,,,0,,,64,0
59932,note_on,,,,,0,0,2,,,,,0,,,36,0
59932,note_on,,,,,52,0,1,,,,,0,,,76,0
59932,note_on,,,,,0,0,1,,,,,0,,,72,0
59932,note_on,,,,,52,0,2,,,,,0,,,48,0
59940,note_on,,,,,8,0,2,,,,,0,,,36,64
59940,note_on,,,,,0,0,2,,,,,0,,,48,64
59940,note_on,,,,,0,0,1,,,,,0,,,62,60
59940,note_on,,,,,0,0,1,,,,,0,,,74,60
59940,note_on,,,,,8,0,1,,,,,0,,,71,60
59950,set_tempo,,,,,90,1,0,,714285,,,,,,,
59992,note_on,,,,,52,0,1,,,,,0,,,62,0
59992,note_on,,,,,0,0,2,,,,,0,,,36,0
59992,note_on,,,,,52,0,2,,,,,0,,,48,0
59997,note_on,,,,,5,0,1,,,,,0,,,74,0
59997,note_on,,,,,0,0,1,,,,,0,,,71,0
60000,set_tempo,,,,,50,1,0,,722891,,,,,,,
60000,note_on,,,,,0,0,2,,,,,0,,,48,61
60000,note_on,,,,,8,0,2,,,,,0,,,36,61
60000,note_on,,,,,3,0,1,,,,,0,,,69,59
60000,note_on,,,,,0,0,1,,,,,0,,,60,59
60000,note_on,,,,,0,0,1,,,,,0,,,72,59
60040,set_tempo,,,,,40,1,0,,736196,,,,,,,
60052,note_on,,,,,0,0,1,,,,,0,,,69,0
60052,note_on,,,,,52,0,1,,,,,0,,,72,0
60055,control_change,,,,,3,0,1,,,,,0,64,0,,
60057,note_on,,,,,0,0,2,,,,,0,,,36,0
60057,note_on,,,,,57,0,2,,,,,0,,,48,0
60057,note_on,,,,,2,0,1,,,,,0,,,60,0
60060,note_on,,,,,3,0,1,,,,,0,,,59,55
60060,note_on,,,,,0,0,1,,,,,0,,,71,55
60060,note_on,,,,,0,0,1,,,,,0,,,67,55
60060,note_on,,,,,0,0,2,,,,,0,,,49,51
60060,note_on,,,,,3,0,2,,,,,0,,,37,51
60070,set_tempo,,,,,30,1,0,,750000,,,,,,,
60100,set_tempo,,,,,30,1,0,,779220,,,,,,,
60112,note_on,,,,,0,0,1,,,,,0,,,71,0
60112,note_on,,,,,52,0,1,,,,,0,,,67,0
60112,note_on,,,,,0,0,1,,,,,0,,,59,0
60117,note_on,,,,,57,0,2,,,,,0,,,49,0
60117,note_on,,,,,0,0,2,,,,,0,,,37,0
60118,control_change,,,,,6,0,1,,,,,0,64,0,,
60120,note_on,,,,,3,0,2,,,,,0,,,38,49
60120,note_on,,,,,0,0,2,,,,,0,,,50,49
60120,control_change,,,,,0,0,1,,,,,0,64,95,,
60120,note_on,,,,,2,0,1,,,,,0,,,57,50
60120,note_on,,,,,0,0,1,,,,,0,,,66,50
60120,note_on,,,,,0,0,1,,,,,0,,,69,50
60170,note_on,,,,,0,0,1,,,,,0,,,57,0
60170,note_on,,,,,50,0,1,,,,,0,,,69,0
60170,note_on,,,,,50,0,2,,,,,0,,,50,0
60170,note_on,,,,,0,0,2,,,,,0,,,38,0
60170,note_on,,,,,0,0,1,,,,,0,,,66,0
60180,note_on,,,,,10,0,2,,,,,0,,,38,65
60180,set_tempo,,,,,80,1,0,,800000,,,,,,,
60190,set_tempo,,,,,10,1,0,,800000,,,,,,,
60200,control_change,,,,,30,0,1,,,,,0,64,0,,
60225,note_on,,,,,45,0,2,,,,,0,,,38,0
60230,set_tempo,,,,,40,1,0,,774193,,,,,,,
60240,note_on,,,,,15,0,2,,,,,0,,,36,73
60240,set_tempo,,,,,10,1,0,,800000,,,,,,,
60245,set_tempo,,,,,5,1,0,,810810,,,,,,,
60285,note_on,,,,,45,0,2,,,,,0,,,36,0
60300,note_on,,,,,15,0,2,,,,,0,,,35,77
60300,set_tempo,,,,,55,1,0,,833333,,,,,,,
60345,note_on,,,,,45,0,2,,,,,0,,,35,0
60345,set_tempo,,,,,45,1,0,,863309,,,,,,,
60360,note_on,,,,,15,0,2,,,,,0,,,33,84
60385,set_tempo,,,,,40,1,0,,902255,,,,,,,
60405,note_on,,,,,45,0,2,,,,,0,,,33,0
60420,set_tempo,,,,,35,1,0,,937500,,,,,,,
60420,note_on,,,,,15,0,2,,,,,0,,,31,93
60465,set_tempo,,,,,45,1,0,,944881,,,,,,,
60465,note_on,,,,,45,0,2,,,,,0,,,31,0
60480,set_tempo,,,,,15,1,0,,754716,,,,,,,
60480,note_on,,,,,280,0,1,,,,,0,,,59,89
60480,note_on,,,,,15,0,2,,,,,0,,,43,97
60480,note_on,,,,,0,0,2,,,,,0,,,50,97
60480,note_on,,,,,0,0,1,,,,,0,,,67,89
60480,note_on,,,,,0,0,1,,,,,0,,,71,89
60480,control_change,,,,,0,0,1,,,,,0,64,96,,
60795,note_on,,,,,315,0,2,,,,,0,,,50,0
60795,note_on,,,,,0,0,2,,,,,0,,,43,0
60795,note_on,,,,,315,0,1,,,,,0,,,71,0
60795,note_on,,,,,0,0,1,,,,,0,,,59,0
60795,note_on,,,,,0,0,1,,,,,0,,,67,0
60810,note_on,,,,,0,0,2,,,,,0,,,50,88
60810,note_on,,,,,15,0,2,,,,,0,,,43,88
60810,control_change,,,,,0,0,1,,,,,0,64,0,,
60810,note_on,,,,,0,0,1,,,,,0,,,69,92
60810,note_on,,,,,0,0,1,,,,,0,,,66,92
60810,note_on,,,,,15,0,1,,,,,0,,,60,92
60835,note_on,,,,,25,0,2,,,,,0,,,50,0
60835,note_on,,,,,0,0,2,,,,,0,,,43,0
60835,note_on,,,,,0,0,1,,,,,0,,,60,0
60835,note_on,,,,,0,0,1,,,,,0,,,66,0
60835,note_on,,,,,25,0,1,,,,,0,,,69,0
60840,control_change,,,,,0,0,1,,,,,0,64,95,,
60840,note_on,,,,,0,0,1,,,,,0,,,71,94
60840,note_on,,,,,0,0,1,,,,,0,,,67,94
60840,note_on,,,,,5,0,1,,,,,0,,,59,94
60840,note_on,,,,,5,0,2,,,,,0,,,43,91
60840,note_on,,,,,0,0,2,,,,,0,,,50,91
61155,note_on,,,,,0,0,1,,,,,0,,,67,0
61155,note_on,,,,,315,0,2,,,,,0,,,50,0
61155,note_on,,,,,0,0,2,,,,,0,,,43,0
61155,note_on,,,,,0,0,1,,,,,0,,,59,0
61155,note_on,,,,,315,0,1,,,,,0,,,71,0
61170,note_on,,,,,15,0,2,,,,,0,,,43,92
61170,note_on,,,,,0,0,2,,,,,0,,,50,92
61170,note_on,,,,,15,0,1,,,,,0,,,60,101
61170,note_on,,,,,0,0,1,,,,,0,,,66,101
61170,note_on,,,,,0,0,1,,,,,0,,,69,101
61170,control_change,,,,,0,0,1,,,,,0,64,0,,
61195,note_on,,,,,0,0,2,,,,,0,,,43,0
61195,note_on,,,,,25,0,2,,,,,0,,,50,0
61195,note_on,,,,,25,0,1,,,,,0,,,69,0
61195,note_on,,,,,0,0,1,,,,,0,,,66,0
61195,note_on,,,,,0,0,1,,,,,0,,,60,0
61200,note_on,,,,,5,0,2,,,,,0,,,43,92
61200,control_change,,,,,0,0,1,,,,,0,64,96,,
61200,note_on,,,,,0,0,1,,,,,0,,,71,103
61200,note_on,,,,,5,0,1,,,,,0,,,59,103
61200,note_on,,,,,0,0,2,,,,,0,,,50,92
61200,note_on,,,,,0,0,1,,,,,0,,,67,103
61225,set_tempo,,,,,745,1,0,,774193,,,,,,,
61252,note_on,,,,,0,0,2,,,,,0,,,43,0
61252,note_on,,,,,52,0,1,,,,,0,,,71,0
61252,note_on,,,,,0,0,1,,,,,0,,,67,0
61252,note_on,,,,,0,0,1,,,,,0,,,59,0
61252,note_on,,,,,52,0,2,,,,,0,,,50,0
61260,note_on,,,,,8,0,2,,,,,0,,,43,99
61260,note_on,,,,,0,0,2,,,,,0,,,50,99
61260,set_tempo,,,,,35,1,0,,794701,,,,,,,
61260,note_on,,,,,0,0,1,,,,,0,,,72,103
61260,note_on,,,,,8,0,1,,,,,0,,,60,103
61260,note_on,,,,,0,0,1,,,,,0,,,69,103
61295,set_tempo,,,,,35,1,0,,800000,,,,,,,
61300,set_tempo,,,,,5,1,0,,839160,,,,,,,
61312,note_on,,,,,52,0,2,,,,,0,,,50,0
61312,note_on,,,,,0,0,2,,,,,0,,,43,0
61312,note_on,,,,,0,0,1,,,,,0,,,69,0
61312,note_on,,,,,0,0,1,,,,,0,,,60,0
61312,note_on,,,,,52,0,1,,,,,0,,,72,0
61320,note_on,,,,,8,0,2,,,,,0,,,43,99
61320,note_on,,,,,0,0,1,,,,,0,,,74,95
61320,note_on,,,,,0,0,2,,,,,0,,,50,99
61320,note_on,,,,,8,0,1,,,,,0,,,62,95
61320,note_on,,,,,0,0,1,,,,,0,,,71,95
61350,set_tempo,,,,,50,1,0,,869565,,,,,,,
61372,note_on,,,,,52,0,2,,,,,0,,,50,0
61372,note_on,,,,,52,0,1,,,,,0,,,74,0
61372,note_on,,,,,0,0,1,,,,,0,,,71,0
61372,note_on,,,,,0,0,1,,,,,0,,,62,0
61372,note_on,,,,,0,0,2,,,,,0,,,43,0
61378,control_change,,,,,6,0,1,,,,,0,64,0,,
61380,note_on,,,,,8,0,2,,,,,0,,,39,94
61380,note_on,,,,,0,0,2,,,,,0,,,51,94
61380,set_tempo,,,,,30,1,0,,845070,,,,,,,
61380,note_on,,,,,2,0,1,,,,,0,,,59,90
61380,note_on,,,,,0,0,1,,,,,0,,,71,90
61380,control_change,,,,,0,0,1,,,,,0,64,96,,
61380,note_on,,,,,0,0,1,,,,,0,,,66,90
61425,set_tempo,,,,,45,1,0,,816326,,,,,,,
61432,note_on,,,,,52,0,2,,,,,0,,,51,0
61432,note_on,,,,,52,0,1,,,,,0,,,59,0
61432,note_on,,,,,0,0,2,,,,,0,,,39,0
61437,note_on,,,,,0,0,1,,,,,0,,,71,0
61437,note_on,,,,,5,0,1,,,,,0,,,66,0
61440,note_on,,,,,3,0,1,,,,,0,,,69,77
61440,note_on,,,,,0,0,1,,,,,0,,,66,77
61440,note_on,,,,,0,0,2,,,,,0,,,51,83
61440,note_on,,,,,0,0,1,,,,,0,,,60,77
61440,note_on,,,,,8,0,2,,,,,0,,,39,83
61470,set_tempo,,,,,45,1,0,,794701,,,,,,,
61492,note_on,,,,,52,0,1,,,,,0,,,66,0
61492,note_on,,,,,0,0,1,,,,,0,,,69,0
61495,set_tempo,,,,,25,1,0,,800000,,,,,,,
61497,note_on,,,,,5,0,1,,,,,0,,,60,0
61497,note_on,,,,,0,0,2,,,,,0,,,39,0
61497,note_on,,,,,57,0,2,,,,,0,,,51,0
61500,note_on,,,,,0,0,2,,,,,0,,,51,74
61500,note_on,,,,,3,0,2,,,,,0,,,39,74
61500,note_on,,,,,0,0,1,,,,,0,,,60,69
61500,note_on,,,,,3,0,1,,,,,0,,,69,69
61500,note_on,,,,,0,0,1,,,,,0,,,66,69
61515,set_tempo,,,,,20,1,0,,769230,,,,,,,
61545,set_tempo,,,,,30,1,0,,731707,,,,,,,
61552,note_on,,,,,0,0,1,,,,,0,,,69,0
61552,note_on,,,,,0,0,1,,,,,0,,,60,0
61552,note_on,,,,,52,0,1,,,,,0,,,66,0
61557,note_on,,,,,57,0,2,,,,,0,,,51,0
61557,note_on,,,,,0,0,2,,,,,0,,,39,0
61558,control_change,,,,,6,0,1,,,,,0,64,0,,
61560,note_on,,,,,0,0,1,,,,,0,,,64,67
61560,note_on,,,,,2,0,1,,,,,0,,,59,67
61560,note_on,,,,,3,0,2,,,,,0,,,40,57
61560,note_on,,,,,0,0,2,,,,,0,,,52,57
61560,note_on,,,,,0,0,1,,,,,0,,,67,67
61560,control_change,,,,,0,0,1,,,,,0,64,95,,
61610,set_tempo,,,,,65,1,0,,710059,,,,,,,
61612,note_on,,,,,52,0,2,,,,,0,,,52,0
61612,note_on,,,,,0,0,1,,,,,0,,,59,0
61612,note_on,,,,,0,0,1,,,,,0,,,64,0
61612,note_on,,,,,52,0,1,,,,,0,,,67,0
61612,note_on,,,,,0,0,2,,,,,0,,,40,0
61620,note_on,,,,,8,0,1,,,,,0,,,64,72
61660,set_tempo,,,,,50,1,0,,705882,,,,,,,
61670,set_tempo,,,,,10,1,0,,701754,,,,,,,
61672,note_on,,,,,52,0,1,,,,,0,,,64,0
61680,note_on,,,,,8,0,1,,,,,0,,,66,79
61725,set_tempo,,,,,55,1,0,,693641,,,,,,,
61732,note_on,,,,,52,0,1,,,,,0,,,66,0
61740,note_on,,,,,8,0,1,,,,,0,,,67,81
61742,control_change,,,,,2,0,1,,,,,0,64,0,,
61765,set_tempo,,,,,40,1,0,,677966,,,,,,,
61792,note_on,,,,,50,0,1,,,,,0,,,67,0
61800,note_on,,,,,8,0,1,,,,,0,,,69,87
61852,note_on,,,,,52,0,1,,,,,0,,,69,0
61860,note_on,,,,,8,0,1,,,,,0,,,71,95
61870,control_change,,,,,10,0,1,,,,,0,64,0,,
61910,set_tempo,,,,,145,1,0,,666666,,,,,,,
61912,note_on,,,,,42,0,1,,,,,0,,,71,0
61920,note_on,,,,,308,0,2,,,,,0,,,33,94
61920,note_on,,,,,0,0,2,,,,,0,,,45,94
61920,control_change,,,,,0,0,1,,,,,0,64,96,,
61920,note_on,,,,,0,0,1,,,,,0,,,67,99
61920,note_on,,,,,0,0,1,,,,,0,,,64,99
61920,note_on,,,,,8,0,1,,,,,0,,,71,99
62100,note_on,,,,,180,0,1,,,,,0,,,71,0
62100,note_on,,,,,0,0,1,,,,,0,,,73,68
62160,note_on,,,,,60,0,1,,,,,0,,,73,0
62160,note_on,,,,,0,0,1,,,,,0,,,67,0
62160,note_on,,,,,0,0,1,,,,,0,,,64,0
62160,note_on,,,,,0,0,2,,,,,0,,,33,0
62160,note_on,,,,,240,0,2,,,,,0,,,45,0
62200,set_tempo,,,,,290,1,0,,645161,,,,,,,
62220,control_change,,,,,60,0,1,,,,,0,64,0,,
62240,set_tempo,,,,,40,1,0,,638297,,,,,,,
62250,note_on,,,,,30,0,1,,,,,0,,,65,92
62250,note_on,,,,,0,0,1,,,,,0,,,73,92
62250,note_on,,,,,0,0,1,,,,,0,,,68,92
62250,note_on,,,,,0,0,2,,,,,0,,,45,99
62250,note_on,,,,,90,0,2,,,,,0,,,33,99
62275,note_on,,,,,25,0,2,,,,,0,,,45,0
62275,note_on,,,,,0,0,2,,,,,0,,,33,0
62275,note_on,,,,,0,0,1,,,,,0,,,65,0
62275,note_on,,,,,0,0,1,,,,,0,,,68,0
62275,note_on,,,,,25,0,1,,,,,0,,,73,0
62280,control_change,,,,,0,0,1,,,,,0,64,95,,
62280,note_on,,,,,0,0,1,,,,,0,,,69,99
62280,note_on,,,,,0,0,1,,,,,0,,,66,99
62280,note_on,,,,,5,0,1,,,,,0,,,73,99
62280,note_on,,,,,0,0,2,,,,,0,,,45,101
62280,note_on,,,,,5,0,2,,,,,0,,,33,101
62460,note_on,,,,,180,0,1,,,,,0,,,73,0
62460,note_on,,,,,0,0,1,,,,,0,,,74,87
62520,note_on,,,,,60,0,1,,,,,0,,,74,0
62520,note_on,,,,,0,0,2,,,,,0,,,33,0
62520,note_on,,,,,240,0,2,,,,,0,,,45,0
62520,note_on,,,,,0,0,1,,,,,0,,,69,0
62520,note_on,,,,,0,0,1,,,,,0,,,66,0
62580,control_change,,,,,60,0,1,,,,,0,64,0,,
62590,set_tempo,,,,,350,1,0,,628272,,,,,,,
62610,note_on,,,,,0,0,1,,,,,0,,,69,106
62610,note_on,,,,,30,0,1,,,,,0,,,66,106
62610,note_on,,,,,90,0,2,,,,,0,,,33,116
62610,note_on,,,,,0,0,1,,,,,0,,,74,106
62610,note_on,,,,,0,0,2,,,,,0,,,45,116
62635,note_on,,,,,25,0,1,,,,,0,,,74,0
62635,note_on,,,,,0,0,2,,,,,0,,,33,0
62635,note_on,,,,,0,0,1,,,,,0,,,69,0
62635,note_on,,,,,0,0,1,,,,,0,,,66,0
62635,note_on,,,,,25,0,2,,,,,0,,,45,0
62640,note_on,,,,,5,0,1,,,,,0,,,74,112
62640,note_on,,,,,0,0,1,,,,,0,,,69,112
62640,note_on,,,,,0,0,1,,,,,0,,,66,112
62640,control_change,,,,,0,0,1,,,,,0,64,96,,
62640,note_on,,,,,5,0,2,,,,,0,,,33,116
62640,note_on,,,,,0,0,2,,,,,0,,,45,116
62700,note_on,,,,,0,0,1,,,,,0,,,74,94
62700,note_on,,,,,0,0,1,,,,,0,,,71,94
62700,note_on,,,,,0,0,1,,,,,0,,,67,94
62700,note_on,,,,,0,0,1,,,,,0,,,74,0
62700,note_on,,,,,0,0,1,,,,,0,,,69,0
62700,note_on,,,,,60,0,1,,,,,0,,,66,0
62700,note_on,,,,,60,0,2,,,,,0,,,45,0
62700,note_on,,,,,0,0,2,,,,,0,,,33,0
62700,note_on,,,,,0,0,2,,,,,0,,,33,98
62700,note_on,,,,,0,0,2,,,,,0,,,45,98
62756,note_on,,,,,56,0,1,,,,,0,,,74,0
62756,note_on,,,,,56,0,2,,,,,0,,,45,0
62756,note_on,,,,,0,0,1,,,,,0,,,71,0
62756,note_on,,,,,0,0,2,,,,,0,,,33,0
62756,note_on,,,,,0,0,1,,,,,0,,,67,0
62760,note_on,,,,,0,0,2,,,,,0,,,45,102
62760,note_on,,,,,0,0,1,,,,,0,,,71,96
62760,note_on,,,,,0,0,1,,,,,0,,,74,96
62760,note_on,,,,,4,0,1,,,,,0,,,67,96
62760,note_on,,,,,4,0,2,,,,,0,,,33,102
62810,set_tempo,,,,,220,1,0,,631578,,,,,,,
62816,note_on,,,,,56,0,2,,,,,0,,,45,0
62816,note_on,,,,,0,0,2,,,,,0,,,33,0
62816,note_on,,,,,56,0,1,,,,,0,,,74,0
62816,note_on,,,,,0,0,1,,,,,0,,,71,0
62816,note_on,,,,,0,0,1,,,,,0,,,67,0
62818,control_change,,,,,2,0,1,,,,,0,64,0,,
62820,note_on,,,,,2,0,1,,,,,0,,,67,100
62820,note_on,,,,,0,0,1,,,,,0,,,71,100
62820,control_change,,,,,0,0,1,,,,,0,64,95,,
62820,note_on,,,,,4,0,2,,,,,0,,,33,107
62820,note_on,,,,,0,0,2,,,,,0,,,45,107
62820,note_on,,,,,0,0,1,,,,,0,,,74,100
62876,note_on,,,,,56,0,2,,,,,0,,,45,0
62876,note_on,,,,,0,0,2,,,,,0,,,33,0
62876,note_on,,,,,0,0,1,,,,,0,,,67,0
62876,note_on,,,,,56,0,1,,,,,0,,,74,0
62876,note_on,,,,,0,0,1,,,,,0,,,71,0
62880,note_on,,,,,0,0,1,,,,,0,,,76,103
62880,note_on,,,,,4,0,1,,,,,0,,,67,103
62880,note_on,,,,,0,0,1,,,,,0,,,73,103
62880,note_on,,,,,0,0,2,,,,,0,,,45,110
62880,note_on,,,,,4,0,2,,,,,0,,,33,110
62936,note_on,,,,,0,0,2,,,,,0,,,33,0
62936,note_on,,,,,56,0,2,,,,,0,,,45,0
62936,note_on,,,,,56,0,1,,,,,0,,,76,0
62936,note_on,,,,,0,0,1,,,,,0,,,73,0
62936,note_on,,,,,0,0,1,,,,,0,,,67,0
62940,note_on,,,,,0,0,2,,,,,0,,,45,115
62940,note_on,,,,,4,0,2,,,,,0,,,33,115
62940,note_on,,,,,4,0,1,,,,,0,,,67,108
62940,note_on,,,,,0,0,1,,,,,0,,,73,108
62940,note_on,,,,,0,0,1,,,,,0,,,76,108
62996,note_on,,,,,0,0,2,,,,,0,,,33,0
62996,note_on,,,,,56,0,2,,,,,0,,,45,0
62996,note_on,,,,,0,0,1,,,,,0,,,73,0
62996,note_on,,,,,56,0,1,,,,,0,,,76,0
62996,note_on,,,,,0,0,1,,,,,0,,,67,0
62996,control_change,,,,,0,0,1,,,,,0,64,0,,
63000,note_on,,,,,4,0,1,,,,,0,,,78,111
63000,note_on,,,,,0,0,1,,,,,0,,,66,111
63000,note_on,,,,,0,0,1,,,,,0,,,74,111
63000,note_on,,,,,4,0,2,,,,,0,,,38,117
63000,note_on,,,,,0,0,2,,,,,0,,,45,117
63000,set_tempo,,,,,190,1,0,,615384,,,,,,,
63050,set_tempo,,,,,50,1,0,,631578,,,,,,,
63056,note_on,,,,,56,0,1,,,,,0,,,74,0
63056,note_on,,,,,0,0,1,,,,,0,,,66,0
63056,note_on,,,,,56,0,2,,,,,0,,,45,0
63056,note_on,,,,,0,0,2,,,,,0,,,38,0
63060,set_tempo,,,,,10,1,0,,652173,,,,,,,
63060,note_on,,,,,4,0,1,,,,,0,,,78,0
63060,note_on,,,,,0,0,1,,,,,0,,,81,91
63110,set_tempo,,,,,50,1,0,,693641,,,,,,,
63116,note_on,,,,,56,0,1,,,,,0,,,81,0
63120,note_on,,,,,4,0,1,,,,,0,,,81,79
63140,set_tempo,,,,,30,1,0,,714285,,,,,,,
63150,set_tempo,,,,,10,1,0,,718562,,,,,,,
63170,set_tempo,,,,,20,1,0,,736196,,,,,,,
63172,note_on,,,,,52,0,1,,,,,0,,,81,0
63180,note_on,,,,,8,0,1,,,,,0,,,81,72
63210,set_tempo,,,,,40,1,0,,779220,,,,,,,
63232,note_on,,,,,52,0,1,,,,,0,,,81,0
63240,note_on,,,,,8,0,1,,,,,0,,,81,65
63292,note_on,,,,,52,0,1,,,,,0,,,81,0
63300,note_on,,,,,8,0,1,,,,,0,,,81,61
63340,set_tempo,,,,,130,1,0,,845070,,,,,,,
63352,note_on,,,,,52,0,1,,,,,0,,,81,0
63360,note_on,,,,,8,0,1,,,,,0,,,74,86
63360,note_on,,,,,0,0,1,,,,,0,,,69,86
63360,note_on,,,,,0,0,1,,,,,0,,,66,86
63360,note_on,,,,,304,0,2,,,,,0,,,33,87
63360,note_on,,,,,0,0,2,,,,,0,,,45,87
63360,control_change,,,,,0,0,1,,,,,0,64,96,,
63360,set_tempo,,,,,20,1,0,,745341,,,,,,,
63370,set_tempo,,,,,10,1,0,,662983,,,,,,,
63375,set_tempo,,,,,5,1,0,,662983,,,,,,,
63420,note_on,,,,,0,0,1,,,,,0,,,67,74
63420,note_on,,,,,0,0,1,,,,,0,,,74,0
63420,note_on,,,,,0,0,1,,,,,0,,,69,0
63420,note_on,,,,,0,0,1,,,,,0,,,71,74
63420,note_on,,,,,0,0,1,,,,,0,,,74,74
63420,note_on,,,,,60,0,1,,,,,0,,,66,0
63420,note_on,,,,,0,0,2,,,,,0,,,33,0
63420,note_on,,,,,0,0,2,,,,,0,,,45,74
63420,note_on,,,,,60,0,2,,,,,0,,,45,0
63420,note_on,,,,,0,0,2,,,,,0,,,33,74
63435,set_tempo,,,,,60,1,0,,628272,,,,,,,
63440,set_tempo,,,,,5,1,0,,645161,,,,,,,
63476,note_on,,,,,0,0,1,,,,,0,,,67,0
63476,note_on,,,,,56,0,1,,,,,0,,,74,0
63476,note_on,,,,,56,0,2,,,,,0,,,45,0
63476,note_on,,,,,0,0,1,,,,,0,,,71,0
63476,note_on,,,,,0,0,2,,,,,0,,,33,0
63480,note_on,,,,,4,0,2,,,,,0,,,33,77
63480,note_on,,,,,0,0,2,,,,,0,,,45,77
63480,note_on,,,,,4,0,1,,,,,0,,,67,75
63480,note_on,,,,,0,0,1,,,,,0,,,71,75
63480,note_on,,,,,0,0,1,,,,,0,,,74,75
63510,set_tempo,,,,,70,1,0,,634920,,,,,,,
63536,note_on,,,,,56,0,2,,,,,0,,,45,0
63536,note_on,,,,,0,0,2,,,,,0,,,33,0
63536,note_on,,,,,56,0,1,,,,,0,,,74,0
63536,note_on,,,,,0,0,1,,,,,0,,,71,0
63536,note_on,,,,,0,0,1,,,,,0,,,67,0
63538,control_change,,,,,2,0,1,,,,,0,64,0,,
63540,note_on,,,,,2,0,1,,,,,0,,,67,78
63540,note_on,,,,,0,0,1,,,,,0,,,71,78
63540,control_change,,,,,0,0,1,,,,,0,64,95,,
63540,note_on,,,,,4,0,2,,,,,0,,,33,81
63540,note_on,,,,,0,0,2,,,,,0,,,45,81
63540,note_on,,,,,0,0,1,,,,,0,,,74,78
63565,set_tempo,,,,,55,1,0,,628272,,,,,,,
63596,note_on,,,,,56,0,2,,,,,0,,,45,0
63596,note_on,,,,,0,0,2,,,,,0,,,33,0
63596,note_on,,,,,56,0,1,,,,,0,,,74,0
63596,note_on,,,,,0,0,1,,,,,0,,,67,0
63596,note_on,,,,,0,0,1,,,,,0,,,71,0
63600,note_on,,,,,0,0,1,,,,,0,,,76,82
63600,note_on,,,,,4,0,1,,,,,0,,,67,82
63600,note_on,,,,,0,0,1,,,,,0,,,73,82
63600,note_on,,,,,4,0,2,,,,,0,,,33,83
63600,note_on,,,,,0,0,2,,,,,0,,,45,83
63656,note_on,,,,,0,0,2,,,,,0,,,33,0
63656,note_on,,,,,56,0,2,,,,,0,,,45,0
63656,note_on,,,,,56,0,1,,,,,0,,,76,0
63656,note_on,,,,,0,0,1,,,,,0,,,73,0
63656,note_on,,,,,0,0,1,,,,,0,,,67,0
63660,note_on,,,,,0,0,1,,,,,0,,,73,87
63660,note_on,,,,,4,0,2,,,,,0,,,33,77
63660,note_on,,,,,0,0,1,,,,,0,,,76,87
63660,note_on,,,,,0,0,2,,,,,0,,,45,77
63660,note_on,,,,,4,0,1,,,,,0,,,67,87
63716,note_on,,,,,0,0,2,,,,,0,,,33,0
63716,note_on,,,,,0,0,1,,,,,0,,,73,0
63716,note_on,,,,,0,0,1,,,,,0,,,67,0
63716,control_change,,,,,0,0,1,,,,,0,64,0,,
63716,note_on,,,,,56,0,1,,,,,0,,,76,0
63716,note_on,,,,,56,0,2,,,,,0,,,45,0
63720,note_on,,,,,4,0,1,,,,,0,,,78,88
63720,note_on,,,,,0,0,1,,,,,0,,,66,88
63720,note_on,,,,,0,0,1,,,,,0,,,74,88
63720,note_on,,,,,4,0,2,,,,,0,,,38,72
63720,note_on,,,,,0,0,2,,,,,0,,,45,72
63760,set_tempo,,,,,195,1,0,,677966,,,,,,,
63770,set_tempo,,,,,10,1,0,,681818,,,,,,,
63776,note_on,,,,,0,0,1,,,,,0,,,66,0
63776,note_on,,,,,56,0,1,,,,,0,,,74,0
63776,note_on,,,,,56,0,2,,,,,0,,,45,0
63776,note_on,,,,,0,0,2,,,,,0,,,38,0
63780,note_on,,,,,0,0,1,,,,,0,,,81,76
63780,note_on,,,,,4,0,1,,,,,0,,,78,0
63805,set_tempo,,,,,35,1,0,,705882,,,,,,,
63815,set_tempo,,,,,10,1,0,,710059,,,,,,,
63836,note_on,,,,,56,0,1,,,,,0,,,81,0
63840,note_on,,,,,4,0,1,,,,,0,,,81,67
63850,set_tempo,,,,,35,1,0,,736196,,,,,,,
63870,set_tempo,,,,,20,1,0,,740740,,,,,,,
63892,note_on,,,,,52,0,1,,,,,0,,,81,0
63900,note_on,,,,,8,0,1,,,,,0,,,81,60
63900,set_tempo,,,,,30,1,0,,774193,,,,,,,
63940,set_tempo,,,,,40,1,0,,821917,,,,,,,
63952,note_on,,,,,52,0,1,,,,,0,,,81,0
63960,note_on,,,,,8,0,1,,,,,0,,,81,52
63980,set_tempo,,,,,40,1,0,,851063,,,,,,,
64012,note_on,,,,,52,0,1,,,,,0,,,81,0
64020,note_on,,,,,8,0,1,,,,,0,,,81,50
64035,set_tempo,,,,,55,1,0,,909090,,,,,,,
64072,note_on,,,,,52,0,1,,,,,0,,,81,0
64080,note_on,,,,,304,0,2,,,,,0,,,33,62
64080,set_tempo,,,,,45,1,0,,764331,,,,,,,
64080,control_change,,,,,0,0,1,,,,,0,64,96,,
64080,note_on,,,,,0,0,1,,,,,0,,,66,75
64080,note_on,,,,,8,0,1,,,,,0,,,74,75
64080,note_on,,,,,0,0,1,,,,,0,,,69,75
64080,note_on,,,,,0,0,2,,,,,0,,,45,62
64140,note_on,,,,,0,0,1,,,,,0,,,69,0
64140,note_on,,,,,0,0,2,,,,,0,,,45,44
64140,note_on,,,,,0,0,2,,,,,0,,,33,44
64140,note_on,,,,,0,0,2,,,,,0,,,33,0
64140,note_on,,,,,60,0,2,,,,,0,,,45,0
64140,note_on,,,,,60,0,1,,,,,0,,,66,0
64140,note_on,,,,,0,0,1,,,,,0,,,74,0
64140,note_on,,,,,0,0,1,,,,,0,,,67,72
64140,note_on,,,,,0,0,1,,,,,0,,,71,72
64140,note_on,,,,,0,0,1,,,,,0,,,74,72
64165,set_tempo,,,,,85,1,0,,736196,,,,,,,
64196,note_on,,,,,56,0,1,,,,,0,,,74,0
64196,note_on,,,,,0,0,2,,,,,0,,,33,0
64196,note_on,,,,,0,0,1,,,,,0,,,71,0
64196,note_on,,,,,56,0,2,,,,,0,,,45,0
64196,note_on,,,,,0,0,1,,,,,0,,,67,0
64200,note_on,,,,,0,0,1,,,,,0,,,74,70
64200,note_on,,,,,0,0,1,,,,,0,,,71,70
64200,note_on,,,,,4,0,1,,,,,0,,,67,70
64200,note_on,,,,,0,0,2,,,,,0,,,45,46
64200,note_on,,,,,4,0,2,,,,,0,,,33,46
64215,set_tempo,,,,,50,1,0,,736196,,,,,,,
64256,note_on,,,,,56,0,2,,,,,0,,,45,0
64256,note_on,,,,,0,0,2,,,,,0,,,33,0
64256,note_on,,,,,0,0,1,,,,,0,,,67,0
64256,note_on,,,,,0,0,1,,,,,0,,,71,0
64256,note_on,,,,,56,0,1,,,,,0,,,74,0
64258,control_change,,,,,2,0,1,,,,,0,64,0,,
64260,note_on,,,,,0,0,1,,,,,0,,,74,64
64260,note_on,,,,,4,0,2,,,,,0,,,33,48
64260,set_tempo,,,,,45,1,0,,722891,,,,,,,
64260,note_on,,,,,2,0,1,,,,,0,,,67,64
64260,note_on,,,,,0,0,1,,,,,0,,,71,64
64260,control_change,,,,,0,0,1,,,,,0,64,95,,
64260,note_on,,,,,0,0,2,,,,,0,,,45,48
64316,note_on,,,,,56,0,2,,,,,0,,,45,0
64316,note_on,,,,,0,0,2,,,,,0,,,33,0
64316,note_on,,,,,0,0,1,,,,,0,,,67,0
64316,note_on,,,,,0,0,1,,,,,0,,,71,0
64316,note_on,,,,,56,0,1,,,,,0,,,74,0
64320,note_on,,,,,0,0,2,,,,,0,,,45,53
64320,note_on,,,,,0,0,1,,,,,0,,,76,59
64320,note_on,,,,,0,0,1,,,,,0,,,73,59
64320,note_on,,,,,4,0,1,,,,,0,,,67,59
64320,set_tempo,,,,,60,1,0,,710059,,,,,,,
64320,note_on,,,,,4,0,2,,,,,0,,,33,53
64350,set_tempo,,,,,30,1,0,,710059,,,,,,,
64370,set_tempo,,,,,20,1,0,,697674,,,,,,,
64376,note_on,,,,,56,0,1,,,,,0,,,76,0
64376,note_on,,,,,0,0,1,,,,,0,,,73,0
64376,note_on,,,,,0,0,1,,,,,0,,,67,0
64376,note_on,,,,,0,0,2,,,,,0,,,33,0
64376,note_on,,,,,56,0,2,,,,,0,,,45,0
64380,note_on,,,,,4,0,1,,,,,0,,,67,62
64380,note_on,,,,,0,0,1,,,,,0,,,76,62
64380,note_on,,,,,0,0,1,,,,,0,,,73,62
64380,note_on,,,,,0,0,2,,,,,0,,,45,46
64380,note_on,,,,,4,0,2,,,,,0,,,33,46
64436,note_on,,,,,56,0,2,,,,,0,,,45,0
64436,control_change,,,,,0,0,1,,,,,0,64,0,,
64436,note_on,,,,,0,0,1,,,,,0,,,67,0
64436,note_on,,,,,0,0,1,,,,,0,,,73,0
64436,note_on,,,,,56,0,1,,,,,0,,,76,0
64436,note_on,,,,,0,0,2,,,,,0,,,33,0
64440,note_on,,,,,0,0,1,,,,,0,,,66,65
64440,note_on,,,,,4,0,2,,,,,0,,,38,44
64440,note_on,,,,,0,0,2,,,,,0,,,45,44
64440,note_on,,,,,4,0,1,,,,,0,,,78,65
64440,note_on,,,,,0,0,1,,,,,0,,,74,65
64450,set_tempo,,,,,80,1,0,,689655,,,,,,,
64460,set_tempo,,,,,10,1,0,,764331,,,,,,,
64496,note_on,,,,,56,0,2,,,,,0,,,45,0
64496,note_on,,,,,0,0,2,,,,,0,,,38,0
64496,note_on,,,,,56,0,1,,,,,0,,,74,0
64496,note_on,,,,,0,0,1,,,,,0,,,66,0
64500,note_on,,,,,4,0,1,,,,,0,,,78,0
64500,note_on,,,,,0,0,1,,,,,0,,,74,55
64500,note_on,,,,,0,0,1,,,,,0,,,62,55
64510,set_tempo,,,,,50,1,0,,821917,,,,,,,
64556,note_on,,,,,0,0,1,,,,,0,,,62,0
64556,note_on,,,,,56,0,1,,,,,0,,,74,0
64560,note_on,,,,,4,0,1,,,,,0,,,62,49
64560,set_tempo,,,,,50,1,0,,875912,,,,,,,
64560,note_on,,,,,0,0,1,,,,,0,,,74,49
64612,note_on,,,,,52,0,1,,,,,0,,,74,0
64612,note_on,,,,,0,0,1,,,,,0,,,62,0
64620,set_tempo,,,,,60,1,0,,930232,,,,,,,
64620,note_on,,,,,8,0,1,,,,,0,,,62,38
64620,note_on,,,,,0,0,1,,,,,0,,,74,38
64670,set_tempo,,,,,50,1,0,,991735,,,,,,,
64672,note_on,,,,,0,0,1,,,,,0,,,62,0
64672,note_on,,,,,52,0,1,,,,,0,,,74,0
64680,note_on,,,,,8,0,1,,,,,0,,,62,43
64680,note_on,,,,,0,0,1,,,,,0,,,74,43
64710,set_tempo,,,,,40,1,0,,1111111,,,,,,,
64732,note_on,,,,,52,0,1,,,,,0,,,74,0
64732,note_on,,,,,0,0,1,,,,,0,,,62,0
64740,note_on,,,,,8,0,1,,,,,0,,,62,46
64740,note_on,,,,,0,0,1,,,,,0,,,74,46
64740,note_on,,,,,244,0,2,,,,,0,,,54,44
64740,note_on,,,,,0,0,2,,,,,0,,,57,44
64740,set_tempo,,,,,30,1,0,,857142,,,,,,,
64750,set_tempo,,,,,10,1,0,,863309,,,,,,,
64792,note_on,,,,,0,0,2,,,,,0,,,54,0
64792,note_on,,,,,52,0,2,,,,,0,,,57,0
64792,note_on,,,,,0,0,1,,,,,0,,,62,0
64792,note_on,,,,,52,0,1,,,,,0,,,74,0
64800,note_on,,,,,8,0,2,,,,,0,,,45,54
64800,note_on,,,,,8,0,1,,,,,0,,,61,50
64800,control_change,,,,,0,0,1,,,,,0,64,97,,
64800,note_on,,,,,0,0,1,,,,,0,,,73,50
64820,set_tempo,,,,,70,1,0,,681818,,,,,,,
64825,set_tempo,,,,,5,1,0,,674157,,,,,,,
64860,note_on,,,,,60,0,2,,,,,0,,,45,0
64890,note_on,,,,,30,0,2,,,,,0,,,52,48
64890,note_on,,,,,0,0,2,,,,,0,,,55,48
64900,set_tempo,,,,,75,1,0,,659340,,,,,,,
64915,note_on,,,,,25,0,2,,,,,0,,,55,0
64915,note_on,,,,,0,0,2,,,,,0,,,52,0
64920,control_change,,,,,120,0,1,,,,,0,64,0,,
64920,note_on,,,,,5,0,2,,,,,0,,,52,46
64920,note_on,,,,,0,0,2,,,,,0,,,55,46
64980,control_change,,,,,0,0,1,,,,,0,64,96,,
64980,note_on,,,,,0,0,1,,,,,0,,,71,46
64980,note_on,,,,,0,0,1,,,,,0,,,59,46
64980,note_on,,,,,0,0,1,,,,,0,,,61,0
64980,note_on,,,,,60,0,1,,,,,0,,,73,0
64980,note_on,,,,,0,0,2,,,,,0,,,52,0
64980,note_on,,,,,60,0,2,,,,,0,,,55,0
64980,note_on,,,,,0,0,2,,,,,0,,,45,56
65005,set_tempo,,,,,105,1,0,,652173,,,,,,,
65040,note_on,,,,,60,0,2,,,,,0,,,45,0
65070,note_on,,,,,30,0,2,,,,,0,,,50,48
65070,note_on,,,,,0,0,2,,,,,0,,,54,48
65095,note_on,,,,,0,0,2,,,,,0,,,50,0
65095,note_on,,,,,25,0,2,,,,,0,,,54,0
65100,control_change,,,,,120,0,1,,,,,0,64,0,,
65100,note_on,,,,,5,0,2,,,,,0,,,50,47
65100,note_on,,,,,0,0,2,,,,,0,,,54,47
65160,note_on,,,,,0,0,1,,,,,0,,,69,50
65160,note_on,,,,,0,0,1,,,,,0,,,59,0
65160,note_on,,,,,0,0,2,,,,,0,,,45,55
65160,note_on,,,,,60,0,1,,,,,0,,,71,0
65160,note_on,,,,,60,0,2,,,,,0,,,54,0
65160,note_on,,,,,0,0,2,,,,,0,,,50,0
65160,note_on,,,,,0,0,1,,,,,0,,,57,50
65214,note_on,,,,,54,0,1,,,,,0,,,69,0
65214,note_on,,,,,0,0,1,,,,,0,,,57,0
65214,note_on,,,,,54,0,2,,,,,0,,,45,0
65220,note_on,,,,,0,0,1,,,,,0,,,73,38
65220,note_on,,,,,6,0,2,,,,,0,,,45,45
65220,note_on,,,,,0,0,2,,,,,0,,,49,45
65220,note_on,,,,,0,0,2,,,,,0,,,52,45
65220,note_on,,,,,6,0,1,,,,,0,,,61,38
65270,note_on,,,,,50,0,2,,,,,0,,,52,0
65270,note_on,,,,,0,0,2,,,,,0,,,49,0
65270,note_on,,,,,0,0,2,,,,,0,,,45,0
65270,note_on,,,,,50,0,1,,,,,0,,,73,0
65270,note_on,,,,,0,0,1,,,,,0,,,61,0
65280,note_on,,,,,10,0,2,,,,,0,,,45,47
65280,note_on,,,,,0,0,2,,,,,0,,,47,47
65280,note_on,,,,,0,0,2,,,,,0,,,50,47
65280,note_on,,,,,10,0,1,,,,,0,,,62,43
65280,note_on,,,,,0,0,1,,,,,0,,,74,43
65330,note_on,,,,,50,0,1,,,,,0,,,74,0
65330,note_on,,,,,0,0,1,,,,,0,,,62,0
65330,note_on,,,,,0,0,2,,,,,0,,,45,0
65330,note_on,,,,,50,0,2,,,,,0,,,50,0
65330,note_on,,,,,0,0,2,,,,,0,,,47,0
65340,note_on,,,,,0,0,1,,,,,0,,,76,44
65340,note_on,,,,,10,0,2,,,,,0,,,45,51
65340,note_on,,,,,0,0,2,,,,,0,,,49,51
65340,note_on,,,,,0,0,2,,,,,0,,,52,51
65340,note_on,,,,,10,0,1,,,,,0,,,64,44
65375,set_tempo,,,,,370,1,0,,638297,,,,,,,
65390,note_on,,,,,50,0,1,,,,,0,,,76,0
65390,note_on,,,,,0,0,1,,,,,0,,,64,0
65390,note_on,,,,,50,0,2,,,,,0,,,52,0
65390,note_on,,,,,0,0,2,,,,,0,,,49,0
65390,note_on,,,,,0,0,2,,,,,0,,,45,0
65400,note_on,,,,,10,0,1,,,,,0,,,66,47
65400,note_on,,,,,0,0,1,,,,,0,,,78,47
65400,note_on,,,,,10,0,2,,,,,0,,,45,55
65400,note_on,,,,,0,0,2,,,,,0,,,50,55
65400,note_on,,,,,0,0,2,,,,,0,,,54,55
65450,note_on,,,,,0,0,1,,,,,0,,,66,0
65450,note_on,,,,,50,0,2,,,,,0,,,54,0
65450,note_on,,,,,0,0,2,,,,,0,,,50,0
65450,note_on,,,,,0,0,2,,,,,0,,,45,0
65450,note_on,,,,,50,0,1,,,,,0,,,78,0
65455,set_tempo,,,,,80,1,0,,648648,,,,,,,
65460,note_on,,,,,0,0,1,,,,,0,,,79,49
65460,note_on,,,,,10,0,1,,,,,0,,,67,49
65460,note_on,,,,,0,0,2,,,,,0,,,55,58
65460,note_on,,,,,0,0,2,,,,,0,,,52,58
65460,note_on,,,,,10,0,2,,,,,0,,,45,58
65505,set_tempo,,,,,50,1,0,,662983,,,,,,,
65510,note_on,,,,,0,0,2,,,,,0,,,45,0
65510,note_on,,,,,0,0,1,,,,,0,,,67,0
65510,note_on,,,,,50,0,1,,,,,0,,,79,0
65510,note_on,,,,,50,0,2,,,,,0,,,55,0
65510,note_on,,,,,0,0,2,,,,,0,,,52,0
65520,note_on,,,,,0,0,1,,,,,0,,,78,53
65520,control_change,,,,,0,0,1,,,,,0,64,96,,
65520,note_on,,,,,10,0,1,,,,,0,,,66,53
65520,note_on,,,,,10,0,2,,,,,0,,,45,61
65580,note_on,,,,,60,0,2,,,,,0,,,45,0
65610,note_on,,,,,0,0,2,,,,,0,,,54,51
65610,note_on,,,,,30,0,2,,,,,0,,,50,51
65635,note_on,,,,,0,0,2,,,,,0,,,50,0
65635,note_on,,,,,25,0,2,,,,,0,,,54,0
65640,note_on,,,,,5,0,2,,,,,0,,,50,49
65640,control_change,,,,,120,0,1,,,,,0,64,0,,
65640,note_on,,,,,0,0,2,,,,,0,,,54,49
65700,control_change,,,,,0,0,1,,,,,0,64,96,,
65700,note_on,,,,,0,0,1,,,,,0,,,79,53
65700,note_on,,,,,0,0,1,,,,,0,,,67,53
65700,note_on,,,,,0,0,1,,,,,0,,,66,0
65700,note_on,,,,,0,0,2,,,,,0,,,45,57
65700,note_on,,,,,0,0,2,,,,,0,,,50,0
65700,note_on,,,,,60,0,1,,,,,0,,,78,0
65700,note_on,,,,,60,0,2,,,,,0,,,54,0
65760,note_on,,,,,60,0,2,,,,,0,,,45,0
65790,note_on,,,,,0,0,2,,,,,0,,,52,48
65790,note_on,,,,,30,0,2,,,,,0,,,55,48
65815,note_on,,,,,0,0,2,,,,,0,,,55,0
65815,note_on,,,,,25,0,2,,,,,0,,,52,0
65815,set_tempo,,,,,310,1,0,,662983,,,,,,,
65820,control_change,,,,,120,0,1,,,,,0,64,0,,
65820,note_on,,,,,0,0,2,,,,,0,,,55,47
65820,note_on,,,,,5,0,2,,,,,0,,,52,47
65870,set_tempo,,,,,55,1,0,,645161,,,,,,,
65875,set_tempo,,,,,5,1,0,,645161,,,,,,,
65880,note_on,,,,,0,0,1,,,,,0,,,67,0
65880,note_on,,,,,60,0,1,,,,,0,,,79,0
65880,note_on,,,,,0,0,2,,,,,0,,,52,0
65880,note_on,,,,,60,0,2,,,,,0,,,55,0
65880,note_on,,,,,0,0,1,,,,,0,,,69,55
65880,note_on,,,,,0,0,2,,,,,0,,,45,55
65880,note_on,,,,,0,0,1,,,,,0,,,81,55
65930,set_tempo,,,,,55,1,0,,634920,,,,,,,
65934,note_on,,,,,0,0,1,,,,,0,,,69,0
65934,note_on,,,,,54,0,2,,,,,0,,,45,0
65934,note_on,,,,,54,0,1,,,,,0,,,81,0
65940,note_on,,,,,6,0,1,,,,,0,,,74,40
65940,note_on,,,,,0,0,1,,,,,0,,,86,40
65940,note_on,,,,,0,0,2,,,,,0,,,57,43
65940,note_on,,,,,6,0,2,,,,,0,,,54,43
65997,note_on,,,,,57,0,1,,,,,0,,,86,0
65997,note_on,,,,,0,0,1,,,,,0,,,74,0
66000,note_on,,,,,0,0,2,,,,,0,,,56,47
66000,note_on,,,,,0,0,2,,,,,0,,,54,0
66000,note_on,,,,,0,0,1,,,,,0,,,74,43
66000,note_on,,,,,60,0,2,,,,,0,,,57,0
66000,note_on,,,,,0,0,2,,,,,0,,,53,47
66000,note_on,,,,,3,0,1,,,,,0,,,86,43
66057,note_on,,,,,57,0,1,,,,,0,,,74,0
66057,note_on,,,,,0,0,1,,,,,0,,,86,0
66060,note_on,,,,,60,0,2,,,,,0,,,56,0
66060,note_on,,,,,0,0,2,,,,,0,,,53,0
66060,note_on,,,,,0,0,2,,,,,0,,,54,50
66060,note_on,,,,,0,0,2,,,,,0,,,57,50
66060,note_on,,,,,0,0,1,,,,,0,,,74,48
66060,note_on,,,,,3,0,1,,,,,0,,,86,48
66117,note_on,,,,,57,0,1,,,,,0,,,74,0
66117,note_on,,,,,0,0,1,,,,,0,,,86,0
66120,note_on,,,,,3,0,1,,,,,0,,,86,51
66120,note_on,,,,,0,0,1,,,,,0,,,74,51
66120,note_on,,,,,60,0,2,,,,,0,,,57,0
66120,note_on,,,,,0,0,2,,,,,0,,,54,0
66120,note_on,,,,,0,0,2,,,,,0,,,59,53
66120,note_on,,,,,0,0,2,,,,,0,,,55,53
66165,set_tempo,,,,,235,1,0,,648648,,,,,,,
66177,note_on,,,,,57,0,1,,,,,0,,,74,0
66177,note_on,,,,,0,0,1,,,,,0,,,86,0
66180,note_on,,,,,0,0,2,,,,,0,,,55,0
66180,note_on,,,,,0,0,1,,,,,0,,,74,54
66180,note_on,,,,,3,0,1,,,,,0,,,86,54
66180,note_on,,,,,0,0,2,,,,,0,,,57,57
66180,note_on,,,,,0,0,2,,,,,0,,,54,57
66180,note_on,,,,,60,0,2,,,,,0,,,59,0
66215,set_tempo,,,,,50,1,0,,666666,,,,,,,
66237,note_on,,,,,57,0,1,,,,,0,,,74,0
66237,note_on,,,,,0,0,1,,,,,0,,,86,0
66240,note_on,,,,,0,0,2,,,,,0,,,54,0
66240,note_on,,,,,0,0,2,,,,,0,,,45,57
66240,note_on,,,,,3,0,1,,,,,0,,,73,54
66240,note_on,,,,,0,0,1,,,,,0,,,85,54
66240,control_change,,,,,0,0,1,,,,,0,64,97,,
66240,note_on,,,,,60,0,2,,,,,0,,,57,0
66300,note_on,,,,,60,0,2,,,,,0,,,45,0
66305,set_tempo,,,,,90,1,0,,652173,,,,,,,
66330,note_on,,,,,0,0,2,,,,,0,,,55,54
66330,note_on,,,,,30,0,2,,,,,0,,,52,54
66355,note_on,,,,,0,0,2,,,,,0,,,52,0
66355,note_on,,,,,25,0,2,,,,,0,,,55,0
66360,note_on,,,,,0,0,2,,,,,0,,,55,54
66360,note_on,,,,,5,0,2,,,,,0,,,52,54
66360,control_change,,,,,120,0,1,,,,,0,64,0,,
66385,set_tempo,,,,,80,1,0,,631578,,,,,,,
66420,note_on,,,,,0,0,2,,,,,0,,,45,59
66420,note_on,,,,,0,0,2,,,,,0,,,52,0
66420,control_change,,,,,0,0,1,,,,,0,64,96,,
66420,note_on,,,,,0,0,1,,,,,0,,,83,61
66420,note_on,,,,,0,0,1,,,,,0,,,71,61
66420,note_on,,,,,60,0,2,,,,,0,,,55,0
66420,note_on,,,,,60,0,1,,,,,0,,,85,0
66420,note_on,,,,,0,0,1,,,,,0,,,73,0
66480,note_on,,,,,60,0,2,,,,,0,,,45,0
66510,note_on,,,,,30,0,2,,,,,0,,,50,59
66510,note_on,,,,,0,0,2,,,,,0,,,54,59
66535,note_on,,,,,0,0,2,,,,,0,,,50,0
66535,note_on,,,,,25,0,2,,,,,0,,,54,0
66540,note_on,,,,,0,0,2,,,,,0,,,54,59
66540,note_on,,,,,5,0,2,,,,,0,,,50,59
66540,control_change,,,,,120,0,1,,,,,0,64,0,,
66600,note_on,,,,,60,0,2,,,,,0,,,54,0
66600,note_on,,,,,0,0,1,,,,,0,,,81,67
66600,note_on,,,,,0,0,1,,,,,0,,,69,67
66600,note_on,,,,,0,0,1,,,,,0,,,71,0
66600,note_on,,,,,0,0,2,,,,,0,,,45,63
66600,note_on,,,,,0,0,2,,,,,0,,,50,0
66600,note_on,,,,,60,0,1,,,,,0,,,83,0
66654,note_on,,,,,54,0,2,,,,,0,,,45,0
66654,note_on,,,,,0,0,1,,,,,0,,,69,0
66654,note_on,,,,,54,0,1,,,,,0,,,81,0
66660,note_on,,,,,6,0,1,,,,,0,,,73,62
66660,note_on,,,,,0,0,1,,,,,0,,,85,62
66660,note_on,,,,,6,0,2,,,,,0,,,45,57
66660,note_on,,,,,0,0,2,,,,,0,,,49,57
66660,note_on,,,,,0,0,2,,,,,0,,,52,57
66685,set_tempo,,,,,300,1,0,,631578,,,,,,,
66710,note_on,,,,,0,0,1,,,,,0,,,73,0
66710,note_on,,,,,0,0,2,,,,,0,,,45,0
66710,note_on,,,,,50,0,2,,,,,0,,,52,0
66710,note_on,,,,,50,0,1,,,,,0,,,85,0
66710,note_on,,,,,0,0,2,,,,,0,,,49,0
66720,note_on,,,,,10,0,2,,,,,0,,,45,63
66720,note_on,,,,,0,0,2,,,,,0,,,47,63
66720,note_on,,,,,0,0,2,,,,,0,,,50,63
66720,note_on,,,,,10,0,1,,,,,0,,,74,65
66720,note_on,,,,,0,0,1,,,,,0,,,86,65
66770,note_on,,,,,0,0,1,,,,,0,,,74,0
66770,note_on,,,,,50,0,1,,,,,0,,,86,0
66770,note_on,,,,,0,0,2,,,,,0,,,45,0
66770,note_on,,,,,50,0,2,,,,,0,,,50,0
66770,note_on,,,,,0,0,2,,,,,0,,,47,0
66780,note_on,,,,,0,0,2,,,,,0,,,52,63
66780,note_on,,,,,10,0,2,,,,,0,,,45,63
66780,note_on,,,,,10,0,1,,,,,0,,,76,68
66780,note_on,,,,,0,0,1,,,,,0,,,88,68
66780,note_on,,,,,0,0,2,,,,,0,,,49,63
66795,set_tempo,,,,,110,1,0,,645161,,,,,,,
66805,set_tempo,,,,,10,1,0,,641711,,,,,,,
66810,set_tempo,,,,,5,1,0,,645161,,,,,,,
66830,note_on,,,,,0,0,1,,,,,0,,,76,0
66830,note_on,,,,,50,0,2,,,,,0,,,52,0
66830,note_on,,,,,0,0,2,,,,,0,,,49,0
66830,note_on,,,,,0,0,2,,,,,0,,,45,0
66830,note_on,,,,,50,0,1,,,,,0,,,88,0
66840,note_on,,,,,10,0,1,,,,,0,,,78,70
66840,note_on,,,,,0,0,1,,,,,0,,,90,70
66840,note_on,,,,,0,0,2,,,,,0,,,50,67
66840,note_on,,,,,10,0,2,,,,,0,,,45,67
66840,note_on,,,,,0,0,2,,,,,0,,,54,67
66885,set_tempo,,,,,75,1,0,,659340,,,,,,,
66890,note_on,,,,,50,0,2,,,,,0,,,54,0
66890,note_on,,,,,0,0,2,,,,,0,,,50,0
66890,note_on,,,,,0,0,2,,,,,0,,,45,0
66890,note_on,,,,,0,0,1,,,,,0,,,78,0
66890,note_on,,,,,50,0,1,,,,,0,,,90,0
66900,note_on,,,,,10,0,2,,,,,0,,,45,69
66900,note_on,,,,,0,0,2,,,,,0,,,55,69
66900,note_on,,,,,0,0,1,,,,,0,,,91,73
66900,note_on,,,,,10,0,1,,,,,0,,,79,73
66900,note_on,,,,,0,0,2,,,,,0,,,52,69
66950,note_on,,,,,50,0,2,,,,,0,,,55,0
66950,note_on,,,,,0,0,2,,,,,0,,,52,0
66950,note_on,,,,,0,0,2,,,,,0,,,45,0
66950,note_on,,,,,0,0,1,,,,,0,,,79,0
66950,note_on,,,,,50,0,1,,,,,0,,,91,0
66960,note_on,,,,,0,0,1,,,,,0,,,90,73
66960,control_change,,,,,0,0,1,,,,,0,64,96,,
66960,note_on,,,,,10,0,2,,,,,0,,,45,71
66960,note_on,,,,,10,0,1,,,,,0,,,78,73
66980,set_tempo,,,,,95,1,0,,645161,,,,,,,
67015,set_tempo,,,,,35,1,0,,631578,,,,,,,
67020,note_on,,,,,60,0,2,,,,,0,,,45,0
67040,set_tempo,,,,,25,1,0,,625000,,,,,,,
67050,note_on,,,,,0,0,2,,,,,0,,,54,67
67050,note_on,,,,,30,0,2,,,,,0,,,50,67
67075,note_on,,,,,25,0,2,,,,,0,,,54,0
67075,note_on,,,,,0,0,2,,,,,0,,,50,0
67080,note_on,,,,,5,0,2,,,,,0,,,50,67
67080,note_on,,,,,0,0,2,,,,,0,,,54,67
67080,control_change,,,,,120,0,1,,,,,0,64,0,,
67140,note_on,,,,,60,0,2,,,,,0,,,54,0
67140,note_on,,,,,0,0,2,,,,,0,,,45,71
67140,note_on,,,,,0,0,2,,,,,0,,,50,0
67140,note_on,,,,,60,0,1,,,,,0,,,90,0
67140,control_change,,,,,0,0,1,,,,,0,64,96,,
67140,note_on,,,,,0,0,1,,,,,0,,,91,72
67140,note_on,,,,,0,0,1,,,,,0,,,79,72
67140,note_on,,,,,0,0,1,,,,,0,,,78,0
67160,set_tempo,,,,,120,1,0,,638297,,,,,,,
67200,note_on,,,,,60,0,2,,,,,0,,,45,0
67210,set_tempo,,,,,50,1,0,,655737,,,,,,,
67230,note_on,,,,,30,0,2,,,,,0,,,55,63
67230,note_on,,,,,0,0,2,,,,,0,,,52,63
67255,note_on,,,,,25,0,2,,,,,0,,,52,0
67255,note_on,,,,,0,0,2,,,,,0,,,55,0
67260,control_change,,,,,120,0,1,,,,,0,64,0,,
67260,note_on,,,,,5,0,2,,,,,0,,,52,62
67260,note_on,,,,,0,0,2,,,,,0,,,55,62
67320,note_on,,,,,0,0,1,,,,,0,,,93,72
67320,note_on,,,,,0,0,2,,,,,0,,,52,0
67320,note_on,,,,,0,0,2,,,,,0,,,45,67
67320,note_on,,,,,60,0,1,,,,,0,,,91,0
67320,note_on,,,,,0,0,1,,,,,0,,,79,0
67320,note_on,,,,,0,0,1,,,,,0,,,81,72
67320,note_on,,,,,60,0,2,,,,,0,,,55,0
67330,set_tempo,,,,,120,1,0,,670391,,,,,,,
67374,note_on,,,,,54,0,1,,,,,0,,,93,0
67374,note_on,,,,,0,0,1,,,,,0,,,81,0
67374,note_on,,,,,54,0,2,,,,,0,,,45,0
67380,note_on,,,,,6,0,2,,,,,0,,,54,64
67380,note_on,,,,,6,0,1,,,,,0,,,69,62
67380,note_on,,,,,0,0,1,,,,,0,,,81,62
67380,note_on,,,,,0,0,2,,,,,0,,,57,64
67425,set_tempo,,,,,95,1,0,,685714,,,,,,,
67437,note_on,,,,,57,0,1,,,,,0,,,81,0
67437,note_on,,,,,0,0,1,,,,,0,,,69,0
67440,note_on,,,,,0,0,2,,,,,0,,,54,0
67440,note_on,,,,,0,0,2,,,,,0,,,53,60
67440,note_on,,,,,0,0,2,,,,,0,,,56,60
67440,note_on,,,,,0,0,1,,,,,0,,,81,56
67440,note_on,,,,,3,0,1,,,,,0,,,69,56
67440,note_on,,,,,60,0,2,,,,,0,,,57,0
67480,set_tempo,,,,,55,1,0,,710059,,,,,,,
67497,note_on,,,,,0,0,1,,,,,0,,,69,0
67497,note_on,,,,,57,0,1,,,,,0,,,81,0
67500,note_on,,,,,60,0,2,,,,,0,,,56,0
67500,note_on,,,,,0,0,2,,,,,0,,,53,0
67500,note_on,,,,,0,0,2,,,,,0,,,57,56
67500,note_on,,,,,0,0,2,,,,,0,,,54,56
67500,note_on,,,,,0,0,1,,,,,0,,,81,52
67500,note_on,,,,,3,0,1,,,,,0,,,69,52
67557,note_on,,,,,57,0,1,,,,,0,,,81,0
67557,note_on,,,,,0,0,1,,,,,0,,,69,0
67560,note_on,,,,,0,0,2,,,,,0,,,55,51
67560,note_on,,,,,0,0,2,,,,,0,,,59,51
67560,note_on,,,,,0,0,2,,,,,0,,,54,0
67560,note_on,,,,,60,0,2,,,,,0,,,57,0
67560,note_on,,,,,3,0,1,,,,,0,,,69,48
67560,note_on,,,,,0,0,1,,,,,0,,,81,48
67570,set_tempo,,,,,90,1,0,,731707,,,,,,,
67617,note_on,,,,,0,0,1,,,,,0,,,69,0
67617,note_on,,,,,57,0,1,,,,,0,,,81,0
67620,note_on,,,,,0,0,1,,,,,0,,,81,45
67620,note_on,,,,,60,0,2,,,,,0,,,59,0
67620,note_on,,,,,3,0,1,,,,,0,,,69,45
67620,note_on,,,,,0,0,2,,,,,0,,,55,0
67620,note_on,,,,,0,0,2,,,,,0,,,54,48
67620,note_on,,,,,0,0,2,,,,,0,,,57,48
67660,set_tempo,,,,,90,1,0,,1008403,,,,,,,
67677,note_on,,,,,57,0,1,,,,,0,,,81,0
67677,note_on,,,,,0,0,1,,,,,0,,,69,0
67680,control_change,,,,,0,0,1,,,,,0,64,95,,
67680,note_on,,,,,0,0,2,,,,,0,,,54,0
67680,note_on,,,,,0,0,2,,,,,0,,,45,46
67680,set_tempo,,,,,20,1,0,,693641,,,,,,,
67680,note_on,,,,,3,0,1,,,,,0,,,83,68
67680,note_on,,,,,0,0,1,,,,,0,,,71,68
67680,note_on,,,,,60,0,2,,,,,0,,,57,0
67685,set_tempo,,,,,5,1,0,,689655,,,,,,,
67740,note_on,,,,,60,0,2,,,,,0,,,45,0
67770,note_on,,,,,0,0,2,,,,,0,,,54,49
67770,note_on,,,,,0,0,2,,,,,0,,,57,49
67770,note_on,,,,,30,0,2,,,,,0,,,59,49
67775,set_tempo,,,,,90,1,0,,681818,,,,,,,
67795,note_on,,,,,0,0,2,,,,,0,,,59,0
67795,note_on,,,,,0,0,2,,,,,0,,,57,0
67795,note_on,,,,,25,0,2,,,,,0,,,54,0
67800,control_change,,,,,120,0,1,,,,,0,64,0,,
67800,note_on,,,,,0,0,2,,,,,0,,,54,52
67800,note_on,,,,,0,0,2,,,,,0,,,57,52
67800,note_on,,,,,5,0,2,,,,,0,,,59,52
67850,set_tempo,,,,,75,1,0,,670391,,,,,,,
67860,note_on,,,,,0,0,2,,,,,0,,,45,55
67860,note_on,,,,,0,0,2,,,,,0,,,59,0
67860,note_on,,,,,0,0,2,,,,,0,,,57,0
67860,note_on,,,,,60,0,2,,,,,0,,,54,0
67860,note_on,,,,,0,0,1,,,,,0,,,95,68
67860,control_change,,,,,0,0,1,,,,,0,64,96,,
67860,note_on,,,,,0,0,1,,,,,0,,,83,68
67860,note_on,,,,,0,0,1,,,,,0,,,83,0
67860,note_on,,,,,60,0,1,,,,,0,,,71,0
67920,note_on,,,,,60,0,2,,,,,0,,,45,0
67950,note_on,,,,,0,0,2,,,,,0,,,51,57
67950,note_on,,,,,0,0,2,,,,,0,,,54,57
67950,note_on,,,,,0,0,2,,,,,0,,,57,57
67950,note_on,,,,,30,0,2,,,,,0,,,59,57
67965,set_tempo,,,,,115,1,0,,659340,,,,,,,
67970,set_tempo,,,,,5,1,0,,655737,,,,,,,
67975,note_on,,,,,25,0,2,,,,,0,,,54,0
67975,note_on,,,,,0,0,2,,,,,0,,,57,0
67975,note_on,,,,,0,0,2,,,,,0,,,51,0
67975,note_on,,,,,0,0,2,,,,,0,,,59,0
67980,note_on,,,,,0,0,2,,,,,0,,,51,57
67980,note_on,,,,,5,0,2,,,,,0,,,59,57
67980,note_on,,,,,0,0,2,,,,,0,,,57,57
67980,note_on,,,,,0,0,2,,,,,0,,,54,57
67982,control_change,,,,,122,0,1,,,,,0,64,0,,
68040,note_on,,,,,0,0,2,,,,,0,,,45,59
68040,note_on,,,,,0,0,2,,,,,0,,,54,0
68040,note_on,,,,,0,0,2,,,,,0,,,59,0
68040,note_on,,,,,60,0,2,,,,,0,,,51,0
68040,note_on,,,,,0,0,2,,,,,0,,,57,0
68040,note_on,,,,,0,0,1,,,,,0,,,81,64
68040,note_on,,,,,0,0,1,,,,,0,,,93,64
68040,note_on,,,,,0,0,1,,,,,0,,,95,0
68040,note_on,,,,,58,0,1,,,,,0,,,83,0
68094,note_on,,,,,54,0,2,,,,,0,,,45,0
68094,note_on,,,,,0,0,1,,,,,0,,,93,0
68094,note_on,,,,,54,0,1,,,,,0,,,81,0
68100,note_on,,,,,6,0,2,,,,,0,,,55,56
68100,note_on,,,,,0,0,2,,,,,0,,,52,56
68100,note_on,,,,,6,0,1,,,,,0,,,91,62
68100,note_on,,,,,0,0,1,,,,,0,,,79,62
68110,set_tempo,,,,,140,1,0,,652173,,,,,,,
68115,set_tempo,,,,,5,1,0,,638297,,,,,,,
68157,note_on,,,,,0,0,1,,,,,0,,,91,0
68157,note_on,,,,,57,0,1,,,,,0,,,79,0
68160,note_on,,,,,3,0,1,,,,,0,,,78,58
68160,note_on,,,,,60,0,2,,,,,0,,,52,0
68160,note_on,,,,,0,0,1,,,,,0,,,90,58
68160,note_on,,,,,0,0,2,,,,,0,,,55,0
68160,note_on,,,,,0,0,2,,,,,0,,,57,53
68160,note_on,,,,,0,0,2,,,,,0,,,54,53
68210,set_tempo,,,,,95,1,0,,648648,,,,,,,
68217,note_on,,,,,57,0,1,,,,,0,,,90,0
68217,note_on,,,,,0,0,1,,,,,0,,,78,0
68220,note_on,,,,,0,0,1,,,,,0,,,88,53
68220,note_on,,,,,0,0,2,,,,,0,,,55,50
68220,note_on,,,,,60,0,2,,,,,0,,,54,0
68220,note_on,,,,,0,0,2,,,,,0,,,57,0
68220,note_on,,,,,3,0,1,,,,,0,,,76,53
68220,note_on,,,,,0,0,2,,,,,0,,,59,50
68245,set_tempo,,,,,35,1,0,,662983,,,,,,,
68277,note_on,,,,,0,0,1,,,,,0,,,76,0
68277,note_on,,,,,57,0,1,,,,,0,,,88,0
68280,note_on,,,,,0,0,1,,,,,0,,,90,48
68280,note_on,,,,,3,0,1,,,,,0,,,78,48
68280,note_on,,,,,0,0,2,,,,,0,,,59,0
68280,note_on,,,,,0,0,2,,,,,0,,,57,48
68280,note_on,,,,,60,0,2,,,,,0,,,55,0
68280,note_on,,,,,0,0,2,,,,,0,,,54,48
68300,set_tempo,,,,,55,1,0,,681818,,,,,,,
68335,set_tempo,,,,,35,1,0,,701754,,,,,,,
68337,note_on,,,,,0,0,1,,,,,0,,,78,0
68337,note_on,,,,,57,0,1,,,,,0,,,90,0
68340,note_on,,,,,60,0,2,,,,,0,,,54,0
68340,note_on,,,,,3,0,1,,,,,0,,,79,45
68340,note_on,,,,,0,0,1,,,,,0,,,91,45
68340,note_on,,,,,0,0,2,,,,,0,,,52,46
68340,note_on,,,,,0,0,2,,,,,0,,,55,46
68340,note_on,,,,,0,0,2,,,,,0,,,57,0
68370,set_tempo,,,,,35,1,0,,693641,,,,,,,
68380,set_tempo,,,,,10,1,0,,851063,,,,,,,
68397,note_on,,,,,57,0,1,,,,,0,,,91,0
68397,note_on,,,,,0,0,1,,,,,0,,,79,0
68400,set_tempo,,,,,20,1,0,,655737,,,,,,,
68400,note_on,,,,,60,0,2,,,,,0,,,52,0
68400,note_on,,,,,3,0,1,,,,,0,,,69,57
68400,note_on,,,,,0,0,1,,,,,0,,,81,57
68400,control_change,,,,,0,0,1,,,,,0,64,95,,
68400,note_on,,,,,0,0,2,,,,,0,,,55,0
68400,note_on,,,,,0,0,2,,,,,0,,,45,50
68405,set_tempo,,,,,5,1,0,,659340,,,,,,,
68460,note_on,,,,,60,0,2,,,,,0,,,45,0
68490,note_on,,,,,30,0,2,,,,,0,,,55,49
68490,note_on,,,,,0,0,2,,,,,0,,,52,49
68490,note_on,,,,,0,0,2,,,,,0,,,57,49
68500,set_tempo,,,,,95,1,0,,648648,,,,,,,
68515,note_on,,,,,0,0,2,,,,,0,,,52,0
68515,note_on,,,,,25,0,2,,,,,0,,,57,0
68515,note_on,,,,,0,0,2,,,,,0,,,55,0
68520,control_change,,,,,120,0,1,,,,,0,64,0,,
68520,note_on,,,,,0,0,2,,,,,0,,,57,52
68520,note_on,,,,,0,0,2,,,,,0,,,52,52
68520,note_on,,,,,5,0,2,,,,,0,,,55,52
68525,set_tempo,,,,,25,1,0,,645161,,,,,,,
68530,set_tempo,,,,,5,1,0,,641711,,,,,,,
68535,set_tempo,,,,,5,1,0,,638297,,,,,,,
68580,note_on,,,,,0,0,2,,,,,0,,,52,0
68580,note_on,,,,,0,0,2,,,,,0,,,55,0
68580,note_on,,,,,0,0,2,,,,,0,,,45,52
68580,control_change,,,,,0,0,1,,,,,0,64,96,,
68580,note_on,,,,,60,0,1,,,,,0,,,81,0
68580,note_on,,,,,0,0,1,,,,,0,,,69,0
68580,note_on,,,,,0,0,1,,,,,0,,,93,64
68580,note_on,,,,,60,0,2,,,,,0,,,57,0
68580,note_on,,,,,0,0,1,,,,,0,,,81,64
68595,set_tempo,,,,,60,1,0,,628272,,,,,,,
68640,note_on,,,,,60,0,2,,,,,0,,,45,0
68655,set_tempo,,,,,60,1,0,,638297,,,,,,,
68670,note_on,,,,,0,0,2,,,,,0,,,49,47
68670,note_on,,,,,0,0,2,,,,,0,,,52,47
68670,note_on,,,,,30,0,2,,,,,0,,,55,47
68670,note_on,,,,,0,0,2,,,,,0,,,57,47
68695,note_on,,,,,25,0,2,,,,,0,,,57,0
68695,note_on,,,,,0,0,2,,,,,0,,,55,0
68695,note_on,,,,,0,0,2,,,,,0,,,52,0
68695,note_on,,,,,0,0,2,,,,,0,,,49,0
68700,note_on,,,,,5,0,2,,,,,0,,,57,46
68700,note_on,,,,,0,0,2,,,,,0,,,55,46
68700,note_on,,,,,0,0,2,,,,,0,,,52,46
68700,note_on,,,,,0,0,2,,,,,0,,,49,46
68702,control_change,,,,,122,0,1,,,,,0,64,0,,
68710,set_tempo,,,,,55,1,0,,648648,,,,,,,
68760,note_on,,,,,0,0,2,,,,,0,,,55,0
68760,note_on,,,,,0,0,1,,,,,0,,,93,0
68760,note_on,,,,,58,0,1,,,,,0,,,81,0
68760,note_on,,,,,0,0,1,,,,,0,,,91,57
68760,note_on,,,,,0,0,2,,,,,0,,,52,0
68760,note_on,,,,,0,0,1,,,,,0,,,79,57
68760,note_on,,,,,0,0,2,,,,,0,,,57,0
68760,note_on,,,,,60,0,2,,,,,0,,,49,0
68760,note_on,,,,,0,0,2,,,,,0,,,45,51
68800,set_tempo,,,,,90,1,0,,659340,,,,,,,
68814,note_on,,,,,54,0,1,,,,,0,,,79,0
68814,note_on,,,,,0,0,1,,,,,0,,,91,0
68814,note_on,,,,,54,0,2,,,,,0,,,45,0
68820,note_on,,,,,6,0,1,,,,,0,,,78,55
68820,note_on,,,,,0,0,2,,,,,0,,,50,48
68820,note_on,,,,,6,0,2,,,,,0,,,54,48
68820,note_on,,,,,0,0,1,,,,,0,,,90,55
68877,note_on,,,,,0,0,1,,,,,0,,,78,0
68877,note_on,,,,,57,0,1,,,,,0,,,90,0
68880,note_on,,,,,0,0,2,,,,,0,,,54,0
68880,note_on,,,,,60,0,2,,,,,0,,,50,0
68880,note_on,,,,,0,0,1,,,,,0,,,76,51
68880,note_on,,,,,3,0,1,,,,,0,,,88,51
68880,note_on,,,,,0,0,2,,,,,0,,,52,46
68880,note_on,,,,,0,0,2,,,,,0,,,55,46
68910,set_tempo,,,,,110,1,0,,677966,,,,,,,
68937,note_on,,,,,0,0,1,,,,,0,,,88,0
68937,note_on,,,,,57,0,1,,,,,0,,,76,0
68940,note_on,,,,,0,0,1,,,,,0,,,86,47
68940,note_on,,,,,0,0,2,,,,,0,,,54,42
68940,note_on,,,,,0,0,2,,,,,0,,,57,42
68940,note_on,,,,,60,0,2,,,,,0,,,52,0
68940,note_on,,,,,3,0,1,,,,,0,,,74,47
68940,note_on,,,,,0,0,2,,,,,0,,,55,0
68997,note_on,,,,,0,0,1,,,,,0,,,74,0
68997,note_on,,,,,57,0,1,,,,,0,,,86,0
69000,note_on,,,,,0,0,1,,,,,0,,,76,43
69000,note_on,,,,,0,0,2,,,,,0,,,55,38
69000,note_on,,,,,0,0,2,,,,,0,,,57,0
69000,note_on,,,,,60,0,2,,,,,0,,,54,0
69000,note_on,,,,,3,0,1,,,,,0,,,88,43
69000,note_on,,,,,0,0,2,,,,,0,,,52,38
69005,set_tempo,,,,,95,1,0,,697674,,,,,,,
69057,note_on,,,,,57,0,1,,,,,0,,,76,0
69057,note_on,,,,,0,0,1,,,,,0,,,88,0
69060,note_on,,,,,0,0,1,,,,,0,,,90,42
69060,note_on,,,,,0,0,2,,,,,0,,,50,34
69060,note_on,,,,,3,0,1,,,,,0,,,78,42
69060,note_on,,,,,0,0,2,,,,,0,,,54,34
69060,note_on,,,,,0,0,2,,,,,0,,,55,0
69060,note_on,,,,,60,0,2,,,,,0,,,52,0
69090,set_tempo,,,,,85,1,0,,705882,,,,,,,
69110,set_tempo,,,,,20,1,0,,710059,,,,,,,
69117,note_on,,,,,0,0,1,,,,,0,,,78,0
69117,note_on,,,,,57,0,1,,,,,0,,,90,0
69120,note_on,,,,,0,0,2,,,,,0,,,45,37
69120,set_tempo,,,,,10,1,0,,670391,,,,,,,
69120,note_on,,,,,0,0,2,,,,,0,,,54,0
69120,note_on,,,,,3,0,1,,,,,0,,,66,50
69120,note_on,,,,,0,0,1,,,,,0,,,78,50
69120,control_change,,,,,0,0,1,,,,,0,64,96,,
69120,note_on,,,,,60,0,2,,,,,0,,,50,0
69180,note_on,,,,,60,0,2,,,,,0,,,45,0
69200,set_tempo,,,,,80,1,0,,659340,,,,,,,
69210,note_on,,,,,0,0,2,,,,,0,,,50,39
69210,note_on,,,,,30,0,2,,,,,0,,,54,39
69235,note_on,,,,,0,0,2,,,,,0,,,54,0
69235,note_on,,,,,25,0,2,,,,,0,,,50,0
69238,control_change,,,,,118,0,1,,,,,0,64,0,,
69240,note_on,,,,,0,0,2,,,,,0,,,50,41
69240,note_on,,,,,5,0,2,,,,,0,,,54,41
69255,set_tempo,,,,,55,1,0,,648648,,,,,,,
69300,note_on,,,,,60,0,2,,,,,0,,,50,0
69300,note_on,,,,,0,0,2,,,,,0,,,45,43
69300,note_on,,,,,0,0,2,,,,,0,,,54,0
69300,note_on,,,,,62,0,1,,,,,0,,,78,0
69300,note_on,,,,,0,0,1,,,,,0,,,66,0
69300,note_on,,,,,0,0,1,,,,,0,,,79,57
69300,note_on,,,,,0,0,1,,,,,0,,,67,57
69300,control_change,,,,,0,0,1,,,,,0,64,95,,
69315,set_tempo,,,,,60,1,0,,621761,,,,,,,
69360,note_on,,,,,60,0,2,,,,,0,,,45,0
69390,note_on,,,,,30,0,2,,,,,0,,,55,46
69390,note_on,,,,,0,0,2,,,,,0,,,52,46
69415,note_on,,,,,0,0,2,,,,,0,,,55,0
69415,note_on,,,,,25,0,2,,,,,0,,,52,0
69420,control_change,,,,,120,0,1,,,,,0,64,0,,
69420,note_on,,,,,0,0,2,,,,,0,,,52,48
69420,note_on,,,,,5,0,2,,,,,0,,,55,48
69475,set_tempo,,,,,160,1,0,,625000,,,,,,,
69480,note_on,,,,,60,0,1,,,,,0,,,67,0
69480,note_on,,,,,0,0,2,,,,,0,,,45,51
69480,note_on,,,,,0,0,1,,,,,0,,,79,0
69480,note_on,,,,,0,0,2,,,,,0,,,55,0
69480,note_on,,,,,60,0,2,,,,,0,,,52,0
69480,note_on,,,,,0,0,1,,,,,0,,,80,62
69480,note_on,,,,,0,0,1,,,,,0,,,68,62
69534,note_on,,,,,54,0,2,,,,,0,,,45,0
69540,note_on,,,,,0,0,1,,,,,0,,,83,55
69540,note_on,,,,,0,0,1,,,,,0,,,71,55
69540,note_on,,,,,0,0,1,,,,,0,,,68,0
69540,note_on,,,,,60,0,1,,,,,0,,,80,0
69540,note_on,,,,,6,0,2,,,,,0,,,53,48
69540,note_on,,,,,0,0,2,,,,,0,,,56,48
69550,set_tempo,,,,,75,1,0,,638297,,,,,,,
69597,note_on,,,,,57,0,1,,,,,0,,,83,0
69597,note_on,,,,,0,0,1,,,,,0,,,71,0
69600,note_on,,,,,3,0,1,,,,,0,,,69,50
69600,note_on,,,,,0,0,2,,,,,0,,,57,43
69600,note_on,,,,,0,0,2,,,,,0,,,53,0
69600,note_on,,,,,0,0,2,,,,,0,,,54,43
69600,note_on,,,,,60,0,2,,,,,0,,,56,0
69600,note_on,,,,,0,0,1,,,,,0,,,81,50
69655,note_on,,,,,0,0,2,,,,,0,,,54,0
69655,note_on,,,,,0,0,1,,,,,0,,,69,0
69655,note_on,,,,,55,0,1,,,,,0,,,81,0
69655,note_on,,,,,55,0,2,,,,,0,,,57,0
69660,note_on,,,,,5,0,2,,,,,0,,,54,38
69660,note_on,,,,,0,0,2,,,,,0,,,57,38
69660,note_on,,,,,0,0,1,,,,,0,,,81,44
69660,note_on,,,,,5,0,1,,,,,0,,,69,44
69665,set_tempo,,,,,115,1,0,,648648,,,,,,,
69712,note_on,,,,,0,0,1,,,,,0,,,69,0
69712,note_on,,,,,0,0,2,,,,,0,,,54,0
69712,note_on,,,,,52,0,1,,,,,0,,,81,0
69712,note_on,,,,,52,0,2,,,,,0,,,57,0
69720,note_on,,,,,8,0,2,,,,,0,,,54,35
69720,note_on,,,,,0,0,2,,,,,0,,,57,35
69720,note_on,,,,,8,0,1,,,,,0,,,69,40
69720,note_on,,,,,0,0,1,,,,,0,,,81,40
69735,set_tempo,,,,,70,1,0,,666666,,,,,,,
69772,note_on,,,,,52,0,2,,,,,0,,,57,0
69772,note_on,,,,,52,0,1,,,,,0,,,81,0
69772,note_on,,,,,0,0,2,,,,,0,,,54,0
69772,note_on,,,,,0,0,1,,,,,0,,,69,0
69780,note_on,,,,,8,0,2,,,,,0,,,54,31
69780,note_on,,,,,0,0,2,,,,,0,,,57,31
69780,note_on,,,,,0,0,1,,,,,0,,,81,36
69780,note_on,,,,,8,0,1,,,,,0,,,69,36
69832,note_on,,,,,52,0,2,,,,,0,,,57,0
69832,note_on,,,,,0,0,2,,,,,0,,,54,0
69832,note_on,,,,,52,0,1,,,,,0,,,81,0
69832,note_on,,,,,0,0,1,,,,,0,,,69,0
69840,note_on,,,,,0,0,1,,,,,0,,,83,66
69840,control_change,,,,,0,0,1,,,,,0,64,96,,
69840,note_on,,,,,8,0,1,,,,,0,,,71,66
69840,note_on,,,,,8,0,2,,,,,0,,,45,54
69900,note_on,,,,,60,0,2,,,,,0,,,45,0
69930,note_on,,,,,0,0,2,,,,,0,,,59,50
69930,note_on,,,,,30,0,2,,,,,0,,,55,50
69945,set_tempo,,,,,210,1,0,,652173,,,,,,,
69955,note_on,,,,,25,0,2,,,,,0,,,59,0
69955,note_on,,,,,0,0,2,,,,,0,,,55,0
69958,control_change,,,,,118,0,1,,,,,0,64,0,,
69960,note_on,,,,,0,0,2,,,,,0,,,59,50
69960,note_on,,,,,5,0,2,,,,,0,,,55,50
70020,control_change,,,,,0,0,1,,,,,0,64,95,,
70020,note_on,,,,,0,0,1,,,,,0,,,85,69
70020,note_on,,,,,0,0,1,,,,,0,,,73,69
70020,note_on,,,,,0,0,1,,,,,0,,,71,0
70020,note_on,,,,,0,0,2,,,,,0,,,55,0
70020,note_on,,,,,0,0,2,,,,,0,,,45,53
70020,note_on,,,,,60,0,2,,,,,0,,,59,0
70020,note_on,,,,,62,0,1,,,,,0,,,83,0
70045,set_tempo,,,,,100,1,0,,631578,,,,,,,
70080,note_on,,,,,60,0,2,,,,,0,,,45,0
70110,note_on,,,,,30,0,2,,,,,0,,,61,53
70110,note_on,,,,,0,0,2,,,,,0,,,52,53
70135,note_on,,,,,0,0,2,,,,,0,,,61,0
70135,note_on,,,,,25,0,2,,,,,0,,,52,0
70140,note_on,,,,,0,0,2,,,,,0,,,52,53
70140,control_change,,,,,120,0,1,,,,,0,64,0,,
70140,note_on,,,,,5,0,2,,,,,0,,,61,53
70155,set_tempo,,,,,110,1,0,,625000,,,,,,,
70200,note_on,,,,,60,0,2,,,,,0,,,52,0
70200,note_on,,,,,0,0,1,,,,,0,,,85,71
70200,note_on,,,,,0,0,1,,,,,0,,,73,71
70200,note_on,,,,,0,0,1,,,,,0,,,73,0
70200,note_on,,,,,60,0,1,,,,,0,,,85,0
70200,note_on,,,,,0,0,2,,,,,0,,,45,53
70200,note_on,,,,,0,0,2,,,,,0,,,61,0
70254,note_on,,,,,54,0,2,,,,,0,,,45,0
70260,note_on,,,,,6,0,2,,,,,0,,,52,50
70260,note_on,,,,,60,0,1,,,,,0,,,85,0
70260,note_on,,,,,0,0,1,,,,,0,,,73,0
70260,note_on,,,,,0,0,1,,,,,0,,,76,60
70260,note_on,,,,,0,0,1,,,,,0,,,88,60
70260,note_on,,,,,0,0,2,,,,,0,,,61,50
70290,set_tempo,,,,,135,1,0,,638297,,,,,,,
70295,set_tempo,,,,,5,1,0,,641711,,,,,,,
70317,note_on,,,,,57,0,1,,,,,0,,,88,0
70317,note_on,,,,,0,0,1,,,,,0,,,76,0
70320,note_on,,,,,3,0,1,,,,,0,,,74,57
70320,note_on,,,,,0,0,1,,,,,0,,,86,57
70320,note_on,,,,,0,0,2,,,,,0,,,54,44
70320,note_on,,,,,60,0,2,,,,,0,,,61,0
70320,note_on,,,,,0,0,2,,,,,0,,,62,44
70320,note_on,,,,,0,0,2,,,,,0,,,52,0
70375,set_tempo,,,,,80,1,0,,659340,,,,,,,
70375,note_on,,,,,0,0,2,,,,,0,,,62,0
70375,note_on,,,,,55,0,2,,,,,0,,,54,0
70375,note_on,,,,,55,0,1,,,,,0,,,86,0
70375,note_on,,,,,0,0,1,,,,,0,,,74,0
70380,note_on,,,,,0,0,2,,,,,0,,,54,41
70380,note_on,,,,,5,0,1,,,,,0,,,74,51
70380,note_on,,,,,0,0,1,,,,,0,,,86,51
70380,note_on,,,,,5,0,2,,,,,0,,,62,41
70432,note_on,,,,,0,0,1,,,,,0,,,74,0
70432,note_on,,,,,52,0,1,,,,,0,,,86,0
70432,note_on,,,,,52,0,2,,,,,0,,,54,0
70432,note_on,,,,,0,0,2,,,,,0,,,62,0
70440,note_on,,,,,8,0,1,,,,,0,,,74,48
70440,note_on,,,,,0,0,1,,,,,0,,,86,48
70440,note_on,,,,,0,0,2,,,,,0,,,54,36
70440,note_on,,,,,8,0,2,,,,,0,,,62,36
70485,set_tempo,,,,,110,1,0,,674157,,,,,,,
70492,note_on,,,,,0,0,2,,,,,0,,,62,0
70492,note_on,,,,,52,0,2,,,,,0,,,54,0
70492,note_on,,,,,0,0,1,,,,,0,,,74,0
70492,note_on,,,,,52,0,1,,,,,0,,,86,0
70500,note_on,,,,,8,0,1,,,,,0,,,74,43
70500,note_on,,,,,8,0,2,,,,,0,,,62,33
70500,note_on,,,,,0,0,2,,,,,0,,,54,33
70500,note_on,,,,,0,0,1,,,,,0,,,86,43
70552,note_on,,,,,52,0,2,,,,,0,,,54,0
70552,note_on,,,,,0,0,2,,,,,0,,,62,0
70552,note_on,,,,,52,0,1,,,,,0,,,86,0
70552,note_on,,,,,0,0,1,,,,,0,,,74,0
70560,note_on,,,,,8,0,2,,,,,0,,,45,45
70560,note_on,,,,,8,0,1,,,,,0,,,76,64
70560,note_on,,,,,0,0,1,,,,,0,,,88,64
70560,control_change,,,,,0,0,1,,,,,0,64,96,,
70580,set_tempo,,,,,95,1,0,,666666,,,,,,,
70620,note_on,,,,,60,0,2,,,,,0,,,45,0
70620,set_tempo,,,,,40,1,0,,662983,,,,,,,
70650,note_on,,,,,30,0,2,,,,,0,,,64,39
70650,note_on,,,,,0,0,2,,,,,0,,,55,39
70675,note_on,,,,,0,0,2,,,,,0,,,64,0
70675,note_on,,,,,25,0,2,,,,,0,,,55,0
70675,set_tempo,,,,,55,1,0,,641711,,,,,,,
70678,control_change,,,,,118,0,1,,,,,0,64,0,,
70680,note_on,,,,,0,0,2,,,,,0,,,55,41
70680,note_on,,,,,5,0,2,,,,,0,,,64,41
70730,set_tempo,,,,,55,1,0,,628272,,,,,,,
70740,note_on,,,,,0,0,2,,,,,0,,,45,43
70740,control_change,,,,,0,0,1,,,,,0,64,95,,
70740,note_on,,,,,0,0,1,,,,,0,,,90,64
70740,note_on,,,,,0,0,1,,,,,0,,,78,64
70740,note_on,,,,,60,0,2,,,,,0,,,55,0
70740,note_on,,,,,0,0,1,,,,,0,,,76,0
70740,note_on,,,,,0,0,2,,,,,0,,,64,0
70740,note_on,,,,,62,0,1,,,,,0,,,88,0
70800,note_on,,,,,60,0,2,,,,,0,,,45,0
70830,note_on,,,,,0,0,2,,,,,0,,,57,46
70830,note_on,,,,,30,0,2,,,,,0,,,66,46
70855,note_on,,,,,25,0,2,,,,,0,,,57,0
70855,note_on,,,,,0,0,2,,,,,0,,,66,0
70860,note_on,,,,,0,0,2,,,,,0,,,57,48
70860,note_on,,,,,5,0,2,,,,,0,,,66,48
70860,control_change,,,,,120,0,1,,,,,0,64,0,,
70900,set_tempo,,,,,170,1,0,,638297,,,,,,,
70920,note_on,,,,,60,0,1,,,,,0,,,90,0
70920,note_on,,,,,0,0,1,,,,,0,,,78,0
70920,note_on,,,,,0,0,1,,,,,0,,,73,62
70920,note_on,,,,,0,0,1,,,,,0,,,85,62
70920,note_on,,,,,60,0,2,,,,,0,,,57,0
70920,note_on,,,,,0,0,2,,,,,0,,,66,0
70920,note_on,,,,,0,0,2,,,,,0,,,45,51
70965,set_tempo,,,,,65,1,0,,648648,,,,,,,
70974,note_on,,,,,54,0,2,,,,,0,,,45,0
70980,note_on,,,,,0,0,1,,,,,0,,,88,59
70980,note_on,,,,,60,0,1,,,,,0,,,85,0
70980,note_on,,,,,0,0,1,,,,,0,,,76,59
70980,note_on,,,,,0,0,1,,,,,0,,,73,0
70980,note_on,,,,,6,0,2,,,,,0,,,52,51
70980,note_on,,,,,0,0,2,,,,,0,,,61,51
71010,set_tempo,,,,,45,1,0,,666666,,,,,,,
71037,note_on,,,,,0,0,1,,,,,0,,,76,0
71037,note_on,,,,,57,0,1,,,,,0,,,88,0
71040,note_on,,,,,60,0,2,,,,,0,,,61,0
71040,note_on,,,,,0,0,1,,,,,0,,,86,52
71040,note_on,,,,,3,0,1,,,,,0,,,74,52
71040,note_on,,,,,0,0,2,,,,,0,,,52,0
71040,note_on,,,,,0,0,2,,,,,0,,,62,46
71040,note_on,,,,,0,0,2,,,,,0,,,54,46
71095,note_on,,,,,55,0,2,,,,,0,,,54,0
71095,note_on,,,,,0,0,2,,,,,0,,,62,0
71095,note_on,,,,,55,0,1,,,,,0,,,86,0
71095,note_on,,,,,0,0,1,,,,,0,,,74,0
71100,note_on,,,,,0,0,2,,,,,0,,,54,43
71100,note_on,,,,,5,0,2,,,,,0,,,62,43
71100,note_on,,,,,5,0,1,,,,,0,,,74,46
71100,note_on,,,,,0,0,1,,,,,0,,,86,46
71140,set_tempo,,,,,130,1,0,,677966,,,,,,,
71145,set_tempo,,,,,5,1,0,,685714,,,,,,,
71152,note_on,,,,,0,0,2,,,,,0,,,62,0
71152,note_on,,,,,52,0,2,,,,,0,,,54,0
71152,note_on,,,,,0,0,1,,,,,0,,,74,0
71152,note_on,,,,,52,0,1,,,,,0,,,86,0
71160,note_on,,,,,8,0,2,,,,,0,,,62,37
71160,note_on,,,,,0,0,1,,,,,0,,,86,41
71160,note_on,,,,,0,0,2,,,,,0,,,54,37
71160,note_on,,,,,8,0,1,,,,,0,,,74,41
71205,set_tempo,,,,,60,1,0,,705882,,,,,,,
71212,note_on,,,,,52,0,1,,,,,0,,,86,0
71212,note_on,,,,,0,0,1,,,,,0,,,74,0
71212,note_on,,,,,52,0,2,,,,,0,,,54,0
71212,note_on,,,,,0,0,2,,,,,0,,,62,0
71220,note_on,,,,,8,0,1,,,,,0,,,74,35
71220,note_on,,,,,0,0,1,,,,,0,,,86,35
71220,note_on,,,,,0,0,2,,,,,0,,,54,31
71220,note_on,,,,,8,0,2,,,,,0,,,62,31
71272,note_on,,,,,52,0,1,,,,,0,,,86,0
71272,note_on,,,,,0,0,1,,,,,0,,,74,0
71272,note_on,,,,,0,0,2,,,,,0,,,62,0
71272,note_on,,,,,52,0,2,,,,,0,,,54,0
71280,note_on,,,,,0,0,1,,,,,0,,,95,52
71280,note_on,,,,,8,0,2,,,,,0,,,45,41
71280,note_on,,,,,8,0,1,,,,,0,,,83,52
71280,control_change,,,,,0,0,1,,,,,0,64,96,,
71290,set_tempo,,,,,85,1,0,,681818,,,,,,,
71340,set_tempo,,,,,50,1,0,,666666,,,,,,,
71340,note_on,,,,,60,0,2,,,,,0,,,45,0
71370,note_on,,,,,0,0,2,,,,,0,,,55,37
71370,note_on,,,,,30,0,2,,,,,0,,,64,37
71395,note_on,,,,,0,0,2,,,,,0,,,64,0
71395,note_on,,,,,25,0,2,,,,,0,,,55,0
71398,control_change,,,,,118,0,1,,,,,0,64,0,,
71400,note_on,,,,,0,0,2,,,,,0,,,55,39
71400,note_on,,,,,5,0,2,,,,,0,,,64,39
71440,set_tempo,,,,,100,1,0,,652173,,,,,,,
71460,note_on,,,,,0,0,2,,,,,0,,,45,42
71460,note_on,,,,,62,0,1,,,,,0,,,95,0
71460,note_on,,,,,0,0,1,,,,,0,,,83,0
71460,note_on,,,,,0,0,1,,,,,0,,,73,58
71460,note_on,,,,,0,0,1,,,,,0,,,85,58
71460,control_change,,,,,0,0,1,,,,,0,64,95,,
71460,note_on,,,,,0,0,2,,,,,0,,,64,0
71460,note_on,,,,,60,0,2,,,,,0,,,55,0
71520,note_on,,,,,60,0,2,,,,,0,,,45,0
71535,set_tempo,,,,,95,1,0,,648648,,,,,,,
71540,set_tempo,,,,,5,1,0,,645161,,,,,,,
71550,note_on,,,,,30,0,2,,,,,0,,,57,37
71550,note_on,,,,,0,0,2,,,,,0,,,66,37
71575,note_on,,,,,0,0,2,,,,,0,,,57,0
71575,note_on,,,,,25,0,2,,,,,0,,,66,0
71580,note_on,,,,,0,0,2,,,,,0,,,66,38
71580,control_change,,,,,120,0,1,,,,,0,64,0,,
71580,note_on,,,,,5,0,2,,,,,0,,,57,38
71615,set_tempo,,,,,75,1,0,,655737,,,,,,,
71640,note_on,,,,,60,0,1,,,,,0,,,85,0
71640,note_on,,,,,0,0,2,,,,,0,,,38,44
71640,note_on,,,,,0,0,2,,,,,0,,,57,0
71640,note_on,,,,,60,0,2,,,,,0,,,66,0
71640,note_on,,,,,0,0,1,,,,,0,,,85,59
71640,note_on,,,,,0,0,1,,,,,0,,,73,0
71640,note_on,,,,,0,0,1,,,,,0,,,73,59
71665,set_tempo,,,,,50,1,0,,693641,,,,,,,
71694,note_on,,,,,54,0,2,,,,,0,,,38,0
71700,note_on,,,,,0,0,2,,,,,0,,,61,38
71700,note_on,,,,,6,0,2,,,,,0,,,52,38
71700,note_on,,,,,60,0,1,,,,,0,,,85,0
71700,note_on,,,,,0,0,1,,,,,0,,,76,54
71700,note_on,,,,,0,0,1,,,,,0,,,73,0
71700,note_on,,,,,0,0,1,,,,,0,,,88,54
71725,set_tempo,,,,,60,1,0,,718562,,,,,,,
71757,note_on,,,,,57,0,1,,,,,0,,,88,0
71757,note_on,,,,,0,0,1,,,,,0,,,76,0
71760,note_on,,,,,0,0,2,,,,,0,,,54,35
71760,note_on,,,,,0,0,2,,,,,0,,,62,35
71760,note_on,,,,,0,0,2,,,,,0,,,52,0
71760,note_on,,,,,60,0,2,,,,,0,,,61,0
71760,note_on,,,,,3,0,1,,,,,0,,,74,48
71760,note_on,,,,,0,0,1,,,,,0,,,86,48
71790,set_tempo,,,,,65,1,0,,736196,,,,,,,
71815,note_on,,,,,55,0,1,,,,,0,,,86,0
71815,note_on,,,,,0,0,2,,,,,0,,,62,0
71815,note_on,,,,,55,0,2,,,,,0,,,54,0
71815,note_on,,,,,0,0,1,,,,,0,,,74,0
71820,note_on,,,,,5,0,2,,,,,0,,,62,33
71820,note_on,,,,,0,0,1,,,,,0,,,86,45
71820,note_on,,,,,0,0,2,,,,,0,,,54,33
71820,note_on,,,,,5,0,1,,,,,0,,,74,45
71872,note_on,,,,,0,0,2,,,,,0,,,62,0
71872,note_on,,,,,52,0,2,,,,,0,,,54,0
71872,note_on,,,,,52,0,1,,,,,0,,,86,0
71872,note_on,,,,,0,0,1,,,,,0,,,74,0
71880,note_on,,,,,8,0,1,,,,,0,,,74,39
71880,note_on,,,,,0,0,1,,,,,0,,,86,39
71880,note_on,,,,,8,0,2,,,,,0,,,62,30
71880,note_on,,,,,0,0,2,,,,,0,,,54,30
71885,set_tempo,,,,,95,1,0,,769230,,,,,,,
71932,note_on,,,,,52,0,1,,,,,0,,,86,0
71932,note_on,,,,,0,0,1,,,,,0,,,74,0
71932,note_on,,,,,52,0,2,,,,,0,,,54,0
71932,note_on,,,,,0,0,2,,,,,0,,,62,0
71940,note_on,,,,,0,0,2,,,,,0,,,54,25
71940,note_on,,,,,8,0,2,,,,,0,,,62,25
71940,note_on,,,,,0,0,1,,,,,0,,,86,34
71940,note_on,,,,,8,0,1,,,,,0,,,74,34
71945,set_tempo,,,,,60,1,0,,800000,,,,,,,
71955,set_tempo,,,,,10,1,0,,805369,,,,,,,
71980,set_tempo,,,,,25,1,0,,839160,,,,,,,
71990,set_tempo,,,,,10,1,0,,685714,,,,,,,
71992,note_on,,,,,0,0,2,,,,,0,,,62,0
71992,note_on,,,,,52,0,1,,,,,0,,,86,0
71992,note_on,,,,,0,0,1,,,,,0,,,74,0
71992,note_on,,,,,52,0,2,,,,,0,,,54,0
72000,note_on,,,,,8,0,1,,,,,0,,,73,51
72000,note_on,,,,,8,0,2,,,,,0,,,57,51
72000,control_change,,,,,0,0,1,,,,,0,64,96,,
72030,note_on,,,,,0,0,1,,,,,0,,,81,46
72030,note_on,,,,,30,0,1,,,,,0,,,73,0
72060,note_on,,,,,0,0,2,,,,,0,,,67,43
72060,note_on,,,,,60,0,2,,,,,0,,,64,43
72060,note_on,,,,,30,0,1,,,,,0,,,81,0
72060,note_on,,,,,0,0,1,,,,,0,,,80,42
72090,note_on,,,,,0,0,1,,,,,0,,,81,38
72090,note_on,,,,,30,0,1,,,,,0,,,80,0
72100,set_tempo,,,,,110,1,0,,685714,,,,,,,
72105,set_tempo,,,,,5,1,0,,685714,,,,,,,
72120,note_on,,,,,0,0,1,,,,,0,,,73,38
72120,note_on,,,,,30,0,1,,,,,0,,,81,0
72150,note_on,,,,,0,0,2,,,,,0,,,64,0
72150,note_on,,,,,30,0,1,,,,,0,,,73,0
72150,note_on,,,,,0,0,1,,,,,0,,,81,44
72150,note_on,,,,,90,0,2,,,,,0,,,67,0
72155,set_tempo,,,,,50,1,0,,670391,,,,,,,
72165,note_on,,,,,15,0,2,,,,,0,,,57,0
72175,control_change,,,,,25,0,1,,,,,0,64,0,,
72180,control_change,,,,,0,0,1,,,,,0,64,97,,
72180,note_on,,,,,0,0,1,,,,,0,,,71,51
72180,note_on,,,,,5,0,1,,,,,0,,,81,0
72180,note_on,,,,,15,0,2,,,,,0,,,57,51
72210,note_on,,,,,30,0,1,,,,,0,,,71,0
72210,note_on,,,,,0,0,1,,,,,0,,,81,47
72225,set_tempo,,,,,70,1,0,,662983,,,,,,,
72240,note_on,,,,,30,0,1,,,,,0,,,81,0
72240,note_on,,,,,0,0,1,,,,,0,,,80,40
72240,note_on,,,,,60,0,2,,,,,0,,,66,43
72240,note_on,,,,,0,0,2,,,,,0,,,62,43
72250,set_tempo,,,,,25,1,0,,662983,,,,,,,
72270,note_on,,,,,30,0,1,,,,,0,,,80,0
72270,note_on,,,,,0,0,1,,,,,0,,,81,45
72300,note_on,,,,,30,0,1,,,,,0,,,81,0
72300,note_on,,,,,0,0,1,,,,,0,,,71,47
72300,set_tempo,,,,,50,1,0,,648648,,,,,,,
72330,note_on,,,,,30,0,1,,,,,0,,,71,0
72330,note_on,,,,,0,0,1,,,,,0,,,81,54
72330,note_on,,,,,0,0,2,,,,,0,,,66,0
72330,note_on,,,,,90,0,2,,,,,0,,,62,0
72345,note_on,,,,,15,0,2,,,,,0,,,57,0
72355,control_change,,,,,25,0,1,,,,,0,64,0,,
72360,control_change,,,,,0,0,1,,,,,0,64,95,,
72360,note_on,,,,,0,0,1,,,,,0,,,69,59
72360,note_on,,,,,15,0,2,,,,,0,,,57,51
72360,note_on,,,,,5,0,1,,,,,0,,,81,0
72370,set_tempo,,,,,70,1,0,,645161,,,,,,,
72390,note_on,,,,,30,0,1,,,,,0,,,69,0
72390,note_on,,,,,0,0,1,,,,,0,,,71,53
72420,note_on,,,,,60,0,2,,,,,0,,,61,43
72420,note_on,,,,,0,0,1,,,,,0,,,73,55
72420,note_on,,,,,30,0,1,,,,,0,,,71,0
72420,note_on,,,,,0,0,2,,,,,0,,,64,43
72450,note_on,,,,,0,0,1,,,,,0,,,74,57
72450,note_on,,,,,30,0,1,,,,,0,,,73,0
72465,set_tempo,,,,,95,1,0,,634920,,,,,,,
72480,note_on,,,,,60,0,2,,,,,0,,,64,0
72480,note_on,,,,,0,0,2,,,,,0,,,61,0
72480,note_on,,,,,0,0,2,,,,,0,,,59,47
72480,note_on,,,,,0,0,2,,,,,0,,,62,47
72480,note_on,,,,,0,0,1,,,,,0,,,76,59
72480,note_on,,,,,30,0,1,,,,,0,,,74,0
72510,note_on,,,,,30,0,1,,,,,0,,,76,0
72510,note_on,,,,,0,0,1,,,,,0,,,74,61
72515,set_tempo,,,,,50,1,0,,618556,,,,,,,
72535,control_change,,,,,25,0,1,,,,,0,64,0,,
72540,note_on,,,,,0,0,1,,,,,0,,,73,66
72540,note_on,,,,,0,0,2,,,,,0,,,64,53
72540,note_on,,,,,0,0,2,,,,,0,,,61,53
72540,note_on,,,,,0,0,2,,,,,0,,,59,0
72540,note_on,,,,,60,0,2,,,,,0,,,62,0
72540,note_on,,,,,5,0,1,,,,,0,,,74,0
72570,note_on,,,,,30,0,1,,,,,0,,,73,0
72570,note_on,,,,,0,0,1,,,,,0,,,74,63
72580,set_tempo,,,,,65,1,0,,638297,,,,,,,
72600,note_on,,,,,30,0,1,,,,,0,,,74,0
72600,note_on,,,,,0,0,1,,,,,0,,,76,66
72600,note_on,,,,,0,0,2,,,,,0,,,66,51
72600,note_on,,,,,0,0,2,,,,,0,,,62,51
72600,note_on,,,,,0,0,2,,,,,0,,,61,0
72600,note_on,,,,,60,0,2,,,,,0,,,64,0
72600,set_tempo,,,,,20,1,0,,666666,,,,,,,
72630,note_on,,,,,0,0,1,,,,,0,,,78,61
72630,note_on,,,,,30,0,1,,,,,0,,,76,0
72655,set_tempo,,,,,55,1,0,,701754,,,,,,,
72660,note_on,,,,,30,0,1,,,,,0,,,78,0
72660,note_on,,,,,0,0,2,,,,,0,,,67,47
72660,note_on,,,,,0,0,2,,,,,0,,,64,47
72660,note_on,,,,,0,0,2,,,,,0,,,62,0
72660,note_on,,,,,60,0,2,,,,,0,,,66,0
72660,note_on,,,,,0,0,1,,,,,0,,,79,56
72690,note_on,,,,,30,0,1,,,,,0,,,79,0
72690,note_on,,,,,0,0,1,,,,,0,,,81,53
72700,set_tempo,,,,,45,1,0,,710059,,,,,,,
72710,set_tempo,,,,,10,1,0,,1008403,,,,,,,
72714,note_on,,,,,54,0,2,,,,,0,,,67,0
72714,note_on,,,,,24,0,1,,,,,0,,,81,0
72714,note_on,,,,,0,0,2,,,,,0,,,64,0
72720,note_on,,,,,6,0,2,,,,,0,,,57,0
72720,note_on,,,,,0,0,2,,,,,0,,,57,51
72720,set_tempo,,,,,10,1,0,,693641,,,,,,,
72720,note_on,,,,,6,0,1,,,,,0,,,78,60
72720,control_change,,,,,0,0,1,,,,,0,64,96,,
72750,note_on,,,,,0,0,1,,,,,0,,,86,56
72750,note_on,,,,,30,0,1,,,,,0,,,78,0
72770,set_tempo,,,,,50,1,0,,670391,,,,,,,
72780,note_on,,,,,0,0,2,,,,,0,,,62,44
72780,note_on,,,,,60,0,2,,,,,0,,,66,44
72780,note_on,,,,,30,0,1,,,,,0,,,86,0
72780,note_on,,,,,0,0,1,,,,,0,,,85,50
72810,note_on,,,,,0,0,1,,,,,0,,,86,49
72810,note_on,,,,,30,0,1,,,,,0,,,85,0
72835,set_tempo,,,,,65,1,0,,666666,,,,,,,
72840,set_tempo,,,,,5,1,0,,648648,,,,,,,
72840,note_on,,,,,0,0,1,,,,,0,,,78,49
72840,note_on,,,,,30,0,1,,,,,0,,,86,0
72870,note_on,,,,,0,0,1,,,,,0,,,86,49
72870,note_on,,,,,0,0,2,,,,,0,,,66,0
72870,note_on,,,,,90,0,2,,,,,0,,,62,0
72870,note_on,,,,,30,0,1,,,,,0,,,78,0
72885,note_on,,,,,15,0,2,,,,,0,,,57,0
72895,control_change,,,,,25,0,1,,,,,0,64,0,,
72900,note_on,,,,,0,0,1,,,,,0,,,79,58
72900,control_change,,,,,0,0,1,,,,,0,64,96,,
72900,note_on,,,,,15,0,2,,,,,0,,,57,51
72900,note_on,,,,,5,0,1,,,,,0,,,86,0
72930,note_on,,,,,30,0,1,,,,,0,,,79,0
72930,note_on,,,,,0,0,1,,,,,0,,,86,53
72960,note_on,,,,,60,0,2,,,,,0,,,67,42
72960,note_on,,,,,0,0,2,,,,,0,,,64,42
72960,note_on,,,,,0,0,1,,,,,0,,,85,50
72960,note_on,,,,,30,0,1,,,,,0,,,86,0
72990,note_on,,,,,30,0,1,,,,,0,,,85,0
72990,note_on,,,,,0,0,1,,,,,0,,,86,48
72990,set_tempo,,,,,150,1,0,,638297,,,,,,,
73020,note_on,,,,,0,0,1,,,,,0,,,79,52
73020,note_on,,,,,30,0,1,,,,,0,,,86,0
73050,note_on,,,,,0,0,2,,,,,0,,,67,0
73050,note_on,,,,,0,0,1,,,,,0,,,86,52
73050,note_on,,,,,30,0,1,,,,,0,,,79,0
73050,note_on,,,,,90,0,2,,,,,0,,,64,0
73065,note_on,,,,,15,0,2,,,,,0,,,57,0
73075,control_change,,,,,25,0,1,,,,,0,64,0,,
73080,note_on,,,,,5,0,1,,,,,0,,,86,0
73080,note_on,,,,,15,0,2,,,,,0,,,57,43
73080,control_change,,,,,0,0,1,,,,,0,64,95,,
73080,note_on,,,,,0,0,1,,,,,0,,,81,55
73095,set_tempo,,,,,105,1,0,,628272,,,,,,,
73100,set_tempo,,,,,5,1,0,,625000,,,,,,,
73110,note_on,,,,,30,0,1,,,,,0,,,81,0
73110,note_on,,,,,0,0,1,,,,,0,,,83,58
73125,note_on,,,,,45,0,2,,,,,0,,,57,0
73140,note_on,,,,,15,0,2,,,,,0,,,66,47
73140,note_on,,,,,0,0,2,,,,,0,,,69,47
73140,note_on,,,,,30,0,1,,,,,0,,,83,0
73140,note_on,,,,,0,0,1,,,,,0,,,85,60
73170,note_on,,,,,0,0,1,,,,,0,,,86,63
73170,note_on,,,,,30,0,1,,,,,0,,,85,0
73195,set_tempo,,,,,95,1,0,,618556,,,,,,,
73200,note_on,,,,,0,0,2,,,,,0,,,68,50
73200,note_on,,,,,0,0,1,,,,,0,,,85,66
73200,note_on,,,,,30,0,1,,,,,0,,,86,0
73200,set_tempo,,,,,5,1,0,,612244,,,,,,,
73200,note_on,,,,,60,0,2,,,,,0,,,69,0
73200,note_on,,,,,0,0,2,,,,,0,,,65,50
73200,note_on,,,,,0,0,2,,,,,0,,,66,0
73230,note_on,,,,,30,0,1,,,,,0,,,85,0
73230,note_on,,,,,0,0,1,,,,,0,,,86,69
73250,set_tempo,,,,,50,1,0,,628272,,,,,,,
73255,control_change,,,,,25,0,1,,,,,0,64,0,,
73260,note_on,,,,,5,0,1,,,,,0,,,86,0
73260,note_on,,,,,0,0,1,,,,,0,,,90,67
73260,note_on,,,,,60,0,2,,,,,0,,,68,0
73260,note_on,,,,,0,0,2,,,,,0,,,69,50
73260,note_on,,,,,0,0,2,,,,,0,,,66,50
73260,note_on,,,,,0,0,2,,,,,0,,,65,0
73290,note_on,,,,,30,0,1,,,,,0,,,90,0
73290,note_on,,,,,0,0,1,,,,,0,,,88,64
73305,set_tempo,,,,,55,1,0,,645161,,,,,,,
73320,note_on,,,,,0,0,2,,,,,0,,,67,46
73320,note_on,,,,,0,0,1,,,,,0,,,86,61
73320,note_on,,,,,30,0,1,,,,,0,,,88,0
73320,note_on,,,,,0,0,2,,,,,0,,,71,46
73320,note_on,,,,,60,0,2,,,,,0,,,69,0
73320,note_on,,,,,0,0,2,,,,,0,,,66,0
73335,note_on,,,,,15,0,1,,,,,0,,,86,0
73335,note_on,,,,,0,0,1,,,,,0,,,88,61
73345,set_tempo,,,,,40,1,0,,674157,,,,,,,
73350,note_on,,,,,0,0,1,,,,,0,,,86,59
73350,note_on,,,,,15,0,1,,,,,0,,,88,0
73365,note_on,,,,,15,0,1,,,,,0,,,86,0
73365,note_on,,,,,0,0,1,,,,,0,,,85,59
73365,set_tempo,,,,,20,1,0,,705882,,,,,,,
73380,note_on,,,,,0,0,2,,,,,0,,,69,43
73380,note_on,,,,,0,0,2,,,,,0,,,66,43
73380,note_on,,,,,0,0,2,,,,,0,,,67,0
73380,note_on,,,,,15,0,1,,,,,0,,,85,0
73380,note_on,,,,,0,0,1,,,,,0,,,86,57
73380,note_on,,,,,60,0,2,,,,,0,,,71,0
73410,note_on,,,,,0,0,1,,,,,0,,,88,56
73410,note_on,,,,,30,0,1,,,,,0,,,86,0
73430,set_tempo,,,,,65,1,0,,1008403,,,,,,,
73434,note_on,,,,,54,0,2,,,,,0,,,69,0
73434,note_on,,,,,0,0,2,,,,,0,,,66,0
73434,note_on,,,,,24,0,1,,,,,0,,,88,0
73440,note_on,,,,,6,0,1,,,,,0,,,85,56
73440,control_change,,,,,0,0,1,,,,,0,64,96,,
73440,set_tempo,,,,,10,1,0,,685714,,,,,,,
73440,note_on,,,,,6,0,2,,,,,0,,,57,51
73470,note_on,,,,,0,0,1,,,,,0,,,93,56
73470,note_on,,,,,30,0,1,,,,,0,,,85,0
73500,note_on,,,,,0,0,1,,,,,0,,,92,53
73500,note_on,,,,,30,0,1,,,,,0,,,93,0
73500,note_on,,,,,0,0,2,,,,,0,,,67,43
73500,note_on,,,,,60,0,2,,,,,0,,,64,43
73530,note_on,,,,,0,0,1,,,,,0,,,93,50
73530,note_on,,,,,30,0,1,,,,,0,,,92,0
73540,set_tempo,,,,,100,1,0,,681818,,,,,,,
73560,note_on,,,,,0,0,1,,,,,0,,,85,50
73560,note_on,,,,,30,0,1,,,,,0,,,93,0
73590,note_on,,,,,0,0,2,,,,,0,,,64,0
73590,note_on,,,,,30,0,1,,,,,0,,,85,0
73590,note_on,,,,,0,0,1,,,,,0,,,93,50
73590,note_on,,,,,90,0,2,,,,,0,,,67,0
73605,set_tempo,,,,,65,1,0,,670391,,,,,,,
73605,note_on,,,,,15,0,2,,,,,0,,,57,0
73615,control_change,,,,,25,0,1,,,,,0,64,0,,
73620,note_on,,,,,0,0,1,,,,,0,,,83,58
73620,note_on,,,,,15,0,2,,,,,0,,,57,51
73620,control_change,,,,,0,0,1,,,,,0,64,97,,
73620,note_on,,,,,5,0,1,,,,,0,,,93,0
73650,note_on,,,,,30,0,1,,,,,0,,,83,0
73650,note_on,,,,,0,0,1,,,,,0,,,93,56
73680,note_on,,,,,60,0,2,,,,,0,,,66,43
73680,note_on,,,,,0,0,2,,,,,0,,,62,43
73680,note_on,,,,,30,0,1,,,,,0,,,93,0
73680,note_on,,,,,0,0,1,,,,,0,,,92,53
73705,set_tempo,,,,,100,1,0,,655737,,,,,,,
73710,note_on,,,,,30,0,1,,,,,0,,,92,0
73710,note_on,,,,,0,0,1,,,,,0,,,93,55
73740,note_on,,,,,30,0,1,,,,,0,,,93,0
73740,note_on,,,,,0,0,1,,,,,0,,,83,60
73770,note_on,,,,,0,0,1,,,,,0,,,93,65
73770,note_on,,,,,0,0,2,,,,,0,,,66,0
73770,note_on,,,,,90,0,2,,,,,0,,,62,0
73770,note_on,,,,,30,0,1,,,,,0,,,83,0
73785,note_on,,,,,15,0,2,,,,,0,,,57,0
73795,control_change,,,,,25,0,1,,,,,0,64,0,,
73800,note_on,,,,,5,0,1,,,,,0,,,93,0
73800,note_on,,,,,0,0,1,,,,,0,,,81,68
73800,control_change,,,,,0,0,1,,,,,0,64,95,,
73800,note_on,,,,,15,0,2,,,,,0,,,57,51
73825,set_tempo,,,,,120,1,0,,641711,,,,,,,
73830,note_on,,,,,30,0,1,,,,,0,,,81,0
73830,note_on,,,,,0,0,1,,,,,0,,,83,71
73860,note_on,,,,,60,0,2,,,,,0,,,61,43
73860,note_on,,,,,0,0,2,,,,,0,,,64,43
73860,note_on,,,,,30,0,1,,,,,0,,,83,0
73860,note_on,,,,,0,0,1,,,,,0,,,85,73
73890,note_on,,,,,0,0,1,,,,,0,,,86,76
73890,note_on,,,,,30,0,1,,,,,0,,,85,0
73920,note_on,,,,,0,0,2,,,,,0,,,61,0
73920,note_on,,,,,0,0,2,,,,,0,,,59,47
73920,note_on,,,,,60,0,2,,,,,0,,,64,0
73920,note_on,,,,,0,0,2,,,,,0,,,62,47
73920,note_on,,,,,30,0,1,,,,,0,,,86,0
73920,note_on,,,,,0,0,1,,,,,0,,,88,78
73925,set_tempo,,,,,100,1,0,,628272,,,,,,,
73950,note_on,,,,,0,0,1,,,,,0,,,86,78
73950,note_on,,,,,30,0,1,,,,,0,,,88,0
73975,control_change,,,,,25,0,1,,,,,0,64,0,,
73980,note_on,,,,,0,0,1,,,,,0,,,85,83
73980,note_on,,,,,5,0,1,,,,,0,,,86,0
73980,set_tempo,,,,,55,1,0,,628272,,,,,,,
73980,note_on,,,,,60,0,2,,,,,0,,,62,0
73980,note_on,,,,,0,0,2,,,,,0,,,59,0
73980,note_on,,,,,0,0,2,,,,,0,,,61,53
73980,note_on,,,,,0,0,2,,,,,0,,,64,53
73990,set_tempo,,,,,10,1,0,,638297,,,,,,,
74010,note_on,,,,,0,0,1,,,,,0,,,86,83
74010,note_on,,,,,30,0,1,,,,,0,,,85,0
74025,set_tempo,,,,,35,1,0,,659340,,,,,,,
74035,set_tempo,,,,,10,1,0,,662983,,,,,,,
74040,note_on,,,,,30,0,1,,,,,0,,,86,0
74040,note_on,,,,,0,0,2,,,,,0,,,66,51
74040,note_on,,,,,0,0,2,,,,,0,,,62,51
74040,note_on,,,,,0,0,2,,,,,0,,,61,0
74040,note_on,,,,,60,0,2,,,,,0,,,64,0
74040,note_on,,,,,0,0,1,,,,,0,,,88,80
74070,note_on,,,,,0,0,1,,,,,0,,,90,78
74070,note_on,,,,,30,0,1,,,,,0,,,88,0
74080,set_tempo,,,,,45,1,0,,689655,,,,,,,
74100,note_on,,,,,0,0,2,,,,,0,,,62,0
74100,note_on,,,,,60,0,2,,,,,0,,,66,0
74100,note_on,,,,,0,0,1,,,,,0,,,91,72
74100,note_on,,,,,30,0,1,,,,,0,,,90,0
74100,note_on,,,,,0,0,2,,,,,0,,,67,47
74100,note_on,,,,,0,0,2,,,,,0,,,64,47
74105,set_tempo,,,,,25,1,0,,710059,,,,,,,
74130,note_on,,,,,30,0,1,,,,,0,,,91,0
74130,note_on,,,,,0,0,1,,,,,0,,,93,69
74150,set_tempo,,,,,45,1,0,,1000000,,,,,,,
74154,note_on,,,,,0,0,2,,,,,0,,,64,0
74154,note_on,,,,,54,0,2,,,,,0,,,67,0
74154,note_on,,,,,24,0,1,,,,,0,,,93,0
74160,control_change,,,,,0,0,1,,,,,0,64,96,,
74160,set_tempo,,,,,10,1,0,,697674,,,,,,,
74160,note_on,,,,,6,0,1,,,,,0,,,90,65
74160,note_on,,,,,0,0,2,,,,,0,,,57,59
74160,note_on,,,,,6,0,2,,,,,0,,,57,0
74190,note_on,,,,,30,0,1,,,,,0,,,90,0
74190,note_on,,,,,0,0,1,,,,,0,,,98,63
74210,set_tempo,,,,,50,1,0,,681818,,,,,,,
74215,set_tempo,,,,,5,1,0,,677966,,,,,,,
74220,note_on,,,,,60,0,2,,,,,0,,,66,53
74220,note_on,,,,,30,0,1,,,,,0,,,98,0
74220,note_on,,,,,0,0,2,,,,,0,,,62,53
74220,note_on,,,,,0,0,1,,,,,0,,,97,64
74250,note_on,,,,,30,0,1,,,,,0,,,97,0
74250,note_on,,,,,0,0,1,,,,,0,,,98,68
74255,set_tempo,,,,,40,1,0,,674157,,,,,,,
74260,set_tempo,,,,,5,1,0,,659340,,,,,,,
74280,note_on,,,,,0,0,1,,,,,0,,,90,71
74280,note_on,,,,,30,0,1,,,,,0,,,98,0
74310,note_on,,,,,0,0,1,,,,,0,,,98,72
74310,note_on,,,,,0,0,2,,,,,0,,,66,0
74310,note_on,,,,,90,0,2,,,,,0,,,62,0
74310,note_on,,,,,30,0,1,,,,,0,,,90,0
74325,note_on,,,,,15,0,2,,,,,0,,,57,0
74335,control_change,,,,,25,0,1,,,,,0,64,0,,
74340,set_tempo,,,,,80,1,0,,645161,,,,,,,
74340,control_change,,,,,0,0,1,,,,,0,64,96,,
74340,note_on,,,,,0,0,1,,,,,0,,,91,72
74340,note_on,,,,,5,0,1,,,,,0,,,98,0
74340,note_on,,,,,15,0,2,,,,,0,,,57,58
74370,note_on,,,,,0,0,1,,,,,0,,,98,68
74370,note_on,,,,,30,0,1,,,,,0,,,91,0
74400,note_on,,,,,30,0,1,,,,,0,,,98,0
74400,note_on,,,,,0,0,2,,,,,0,,,64,51
74400,note_on,,,,,60,0,2,,,,,0,,,67,51
74400,note_on,,,,,0,0,1,,,,,0,,,97,65
74430,note_on,,,,,0,0,1,,,,,0,,,98,63
74430,note_on,,,,,30,0,1,,,,,0,,,97,0
74445,set_tempo,,,,,105,1,0,,638297,,,,,,,
74460,note_on,,,,,0,0,1,,,,,0,,,91,63
74460,note_on,,,,,30,0,1,,,,,0,,,98,0
74490,note_on,,,,,0,0,1,,,,,0,,,98,64
74490,note_on,,,,,0,0,2,,,,,0,,,67,0
74490,note_on,,,,,90,0,2,,,,,0,,,64,0
74490,note_on,,,,,30,0,1,,,,,0,,,91,0
74505,note_on,,,,,15,0,2,,,,,0,,,57,0
74515,control_change,,,,,25,0,1,,,,,0,64,0,,
74520,note_on,,,,,0,0,1,,,,,0,,,93,70
74520,note_on,,,,,15,0,2,,,,,0,,,57,56
74520,control_change,,,,,0,0,1,,,,,0,64,95,,
74520,note_on,,,,,5,0,1,,,,,0,,,98,0
74545,set_tempo,,,,,100,1,0,,625000,,,,,,,
74550,note_on,,,,,0,0,1,,,,,0,,,91,74
74550,note_on,,,,,30,0,1,,,,,0,,,93,0
74565,note_on,,,,,45,0,2,,,,,0,,,57,0
74580,note_on,,,,,0,0,1,,,,,0,,,90,80
74580,note_on,,,,,30,0,1,,,,,0,,,91,0
74580,note_on,,,,,15,0,2,,,,,0,,,66,57
74580,note_on,,,,,0,0,2,,,,,0,,,69,57
74600,set_tempo,,,,,55,1,0,,618556,,,,,,,
74610,note_on,,,,,0,0,1,,,,,0,,,88,82
74610,note_on,,,,,30,0,1,,,,,0,,,90,0
74640,note_on,,,,,0,0,1,,,,,0,,,86,86
74640,note_on,,,,,30,0,1,,,,,0,,,88,0
74640,note_on,,,,,60,0,2,,,,,0,,,69,0
74640,note_on,,,,,0,0,2,,,,,0,,,68,59
74640,note_on,,,,,0,0,2,,,,,0,,,66,0
74640,note_on,,,,,0,0,2,,,,,0,,,65,59
74660,set_tempo,,,,,60,1,0,,618556,,,,,,,
74670,note_on,,,,,0,0,1,,,,,0,,,85,90
74670,note_on,,,,,30,0,1,,,,,0,,,86,0
74680,set_tempo,,,,,20,1,0,,638297,,,,,,,
74695,control_change,,,,,25,0,1,,,,,0,64,0,,
74700,note_on,,,,,0,0,1,,,,,0,,,83,90
74700,note_on,,,,,5,0,1,,,,,0,,,85,0
74700,note_on,,,,,60,0,2,,,,,0,,,68,0
74700,note_on,,,,,0,0,2,,,,,0,,,69,62
74700,note_on,,,,,0,0,2,,,,,0,,,65,0
74700,note_on,,,,,0,0,2,,,,,0,,,66,62
74730,note_on,,,,,0,0,1,,,,,0,,,81,92
74730,note_on,,,,,30,0,1,,,,,0,,,83,0
74735,set_tempo,,,,,55,1,0,,652173,,,,,,,
74760,note_on,,,,,0,0,2,,,,,0,,,66,0
74760,note_on,,,,,60,0,2,,,,,0,,,69,0
74760,note_on,,,,,0,0,2,,,,,0,,,71,59
74760,note_on,,,,,0,0,2,,,,,0,,,67,59
74760,note_on,,,,,0,0,1,,,,,0,,,83,87
74760,note_on,,,,,30,0,1,,,,,0,,,81,0
74770,set_tempo,,,,,35,1,0,,666666,,,,,,,
74775,note_on,,,,,15,0,1,,,,,0,,,83,0
74790,note_on,,,,,15,0,1,,,,,0,,,81,82
74810,set_tempo,,,,,40,1,0,,689655,,,,,,,
74820,note_on,,,,,30,0,1,,,,,0,,,81,0
74820,note_on,,,,,0,0,1,,,,,0,,,83,80
74820,note_on,,,,,0,0,2,,,,,0,,,66,52
74820,note_on,,,,,0,0,2,,,,,0,,,69,52
74820,note_on,,,,,0,0,2,,,,,0,,,67,0
74820,note_on,,,,,60,0,2,,,,,0,,,71,0
74835,note_on,,,,,15,0,1,,,,,0,,,83,0
74850,note_on,,,,,15,0,1,,,,,0,,,81,77
74870,set_tempo,,,,,60,1,0,,1000000,,,,,,,
74874,note_on,,,,,0,0,2,,,,,0,,,66,0
74874,note_on,,,,,54,0,2,,,,,0,,,69,0
74874,note_on,,,,,24,0,1,,,,,0,,,81,0
74880,note_on,,,,,6,0,1,,,,,0,,,83,72
74880,control_change,,,,,0,0,1,,,,,0,64,95,,
74880,set_tempo,,,,,10,1,0,,666666,,,,,,,
74880,note_on,,,,,6,0,2,,,,,0,,,57,59
74885,set_tempo,,,,,5,1,0,,662983,,,,,,,
74910,note_on,,,,,30,0,1,,,,,0,,,83,0
74910,note_on,,,,,0,0,1,,,,,0,,,85,65
74930,set_tempo,,,,,45,1,0,,638297,,,,,,,
74940,note_on,,,,,30,0,1,,,,,0,,,85,0
74940,note_on,,,,,0,0,1,,,,,0,,,87,69
74940,note_on,,,,,0,0,2,,,,,0,,,66,53
74940,note_on,,,,,0,0,2,,,,,0,,,69,53
74940,note_on,,,,,60,0,2,,,,,0,,,71,53
74970,note_on,,,,,0,0,1,,,,,0,,,88,74
74970,note_on,,,,,30,0,1,,,,,0,,,87,0
75000,note_on,,,,,0,0,1,,,,,0,,,90,75
75000,note_on,,,,,30,0,1,,,,,0,,,88,0
75000,set_tempo,,,,,70,1,0,,634920,,,,,,,
75030,note_on,,,,,0,0,2,,,,,0,,,71,0
75030,note_on,,,,,0,0,2,,,,,0,,,69,0
75030,note_on,,,,,0,0,1,,,,,0,,,91,77
75030,note_on,,,,,30,0,1,,,,,0,,,90,0
75030,note_on,,,,,90,0,2,,,,,0,,,66,0
75045,note_on,,,,,15,0,2,,,,,0,,,57,0
75055,control_change,,,,,25,0,1,,,,,0,64,0,,
75060,control_change,,,,,0,0,1,,,,,0,64,95,,
75060,note_on,,,,,15,0,2,,,,,0,,,57,58
75060,note_on,,,,,5,0,1,,,,,0,,,91,0
75060,note_on,,,,,0,0,1,,,,,0,,,93,77
75065,set_tempo,,,,,65,1,0,,625000,,,,,,,
75090,note_on,,,,,30,0,1,,,,,0,,,93,0
75090,note_on,,,,,0,0,1,,,,,0,,,94,74
75110,set_tempo,,,,,45,1,0,,612244,,,,,,,
75120,note_on,,,,,0,0,2,,,,,0,,,69,51
75120,note_on,,,,,0,0,2,,,,,0,,,66,51
75120,note_on,,,,,30,0,1,,,,,0,,,94,0
75120,note_on,,,,,60,0,2,,,,,0,,,71,51
75120,note_on,,,,,0,0,1,,,,,0,,,95,72
75150,set_tempo,,,,,40,1,0,,603015,,,,,,,
75150,note_on,,,,,0,0,1,,,,,0,,,93,69
75150,note_on,,,,,30,0,1,,,,,0,,,95,0
75170,set_tempo,,,,,20,1,0,,600000,,,,,,,
75180,note_on,,,,,30,0,1,,,,,0,,,93,0
75180,note_on,,,,,0,0,1,,,,,0,,,91,67
75205,set_tempo,,,,,35,1,0,,594059,,,,,,,
75210,note_on,,,,,0,0,2,,,,,0,,,71,0
75210,note_on,,,,,0,0,1,,,,,0,,,90,67
75210,note_on,,,,,90,0,2,,,,,0,,,66,0
75210,note_on,,,,,0,0,2,,,,,0,,,69,0
75210,note_on,,,,,30,0,1,,,,,0,,,91,0
75225,note_on,,,,,15,0,2,,,,,0,,,57,0
75235,control_change,,,,,25,0,1,,,,,0,64,0,,
75240,note_on,,,,,5,0,1,,,,,0,,,90,0
75240,note_on,,,,,0,0,1,,,,,0,,,93,67
75240,control_change,,,,,0,0,1,,,,,0,64,95,,
75240,note_on,,,,,15,0,2,,,,,0,,,57,52
75270,set_tempo,,,,,65,1,0,,618556,,,,,,,
75270,note_on,,,,,0,0,1,,,,,0,,,91,72
75270,note_on,,,,,30,0,1,,,,,0,,,93,0
75285,note_on,,,,,45,0,2,,,,,0,,,57,0
75300,note_on,,,,,0,0,1,,,,,0,,,95,79
75300,note_on,,,,,30,0,1,,,,,0,,,91,0
75300,note_on,,,,,0,0,2,,,,,0,,,64,56
75300,note_on,,,,,15,0,2,,,,,0,,,67,56
75320,set_tempo,,,,,50,1,0,,638297,,,,,,,
75330,note_on,,,,,0,0,1,,,,,0,,,93,86
75330,note_on,,,,,30,0,1,,,,,0,,,95,0
75330,set_tempo,,,,,10,1,0,,641711,,,,,,,
75355,set_tempo,,,,,25,1,0,,659340,,,,,,,
75360,note_on,,,,,60,0,2,,,,,0,,,64,0
75360,note_on,,,,,30,0,1,,,,,0,,,93,0
75360,note_on,,,,,0,0,1,,,,,0,,,91,91
75360,note_on,,,,,0,0,2,,,,,0,,,67,0
75360,note_on,,,,,0,0,2,,,,,0,,,66,62
75360,note_on,,,,,0,0,2,,,,,0,,,69,62
75390,note_on,,,,,0,0,1,,,,,0,,,90,95
75390,note_on,,,,,30,0,1,,,,,0,,,91,0
75415,control_change,,,,,25,0,1,,,,,0,64,0,,
75420,note_on,,,,,5,0,1,,,,,0,,,90,0
75420,control_change,,,,,0,0,1,,,,,0,64,95,,
75420,note_on,,,,,0,0,1,,,,,0,,,90,97
75420,note_on,,,,,60,0,2,,,,,0,,,66,0
75420,note_on,,,,,0,0,2,,,,,0,,,69,0
75420,note_on,,,,,0,0,2,,,,,0,,,71,65
75420,note_on,,,,,0,0,2,,,,,0,,,67,65
75425,set_tempo,,,,,70,1,0,,674157,,,,,,,
75450,note_on,,,,,30,0,1,,,,,0,,,90,0
75450,note_on,,,,,0,0,1,,,,,0,,,88,77
75476,note_on,,,,,26,0,1,,,,,0,,,88,0
75480,note_on,,,,,0,0,2,,,,,0,,,71,0
75480,note_on,,,,,60,0,2,,,,,0,,,67,0
75480,note_on,,,,,0,0,2,,,,,0,,,66,60
75480,note_on,,,,,0,0,2,,,,,0,,,69,60
75480,set_tempo,,,,,55,1,0,,697674,,,,,,,
75480,note_on,,,,,4,0,1,,,,,0,,,88,87
75510,note_on,,,,,0,0,1,,,,,0,,,87,68
75510,note_on,,,,,30,0,1,,,,,0,,,88,0
75536,note_on,,,,,26,0,1,,,,,0,,,87,0
75540,note_on,,,,,4,0,1,,,,,0,,,87,77
75540,note_on,,,,,0,0,2,,,,,0,,,64,56
75540,note_on,,,,,0,0,2,,,,,0,,,67,56
75540,note_on,,,,,0,0,2,,,,,0,,,69,0
75540,note_on,,,,,60,0,2,,,,,0,,,66,0
75570,note_on,,,,,0,0,1,,,,,0,,,88,59
75570,note_on,,,,,30,0,1,,,,,0,,,87,0
75580,set_tempo,,,,,100,1,0,,710059,,,,,,,
75590,set_tempo,,,,,10,1,0,,1000000,,,,,,,
75594,note_on,,,,,0,0,2,,,,,0,,,67,0
75594,note_on,,,,,54,0,2,,,,,0,,,64,0
75594,note_on,,,,,24,0,1,,,,,0,,,88,0
75595,control_change,,,,,1,0,1,,,,,0,64,0,,
75600,control_change,,,,,0,0,1,,,,,0,64,95,,
75600,note_on,,,,,6,0,2,,,,,0,,,57,59
75600,set_tempo,,,,,10,1,0,,666666,,,,,,,
75600,note_on,,,,,5,0,1,,,,,0,,,81,72
75605,set_tempo,,,,,5,1,0,,659340,,,,,,,
75620,set_tempo,,,,,15,1,0,,655737,,,,,,,
75630,note_on,,,,,30,0,1,,,,,0,,,81,0
75630,note_on,,,,,0,0,1,,,,,0,,,83,65
75655,set_tempo,,,,,35,1,0,,652173,,,,,,,
75660,note_on,,,,,30,0,1,,,,,0,,,83,0
75660,note_on,,,,,0,0,1,,,,,0,,,85,69
75660,note_on,,,,,0,0,2,,,,,0,,,67,53
75660,note_on,,,,,0,0,2,,,,,0,,,64,53
75660,note_on,,,,,60,0,2,,,,,0,,,69,53
75690,note_on,,,,,0,0,1,,,,,0,,,86,74
75690,note_on,,,,,30,0,1,,,,,0,,,85,0
75715,set_tempo,,,,,60,1,0,,638297,,,,,,,
75720,note_on,,,,,30,0,1,,,,,0,,,86,0
75720,note_on,,,,,0,0,1,,,,,0,,,88,75
75750,note_on,,,,,0,0,2,,,,,0,,,69,0
75750,note_on,,,,,0,0,2,,,,,0,,,67,0
75750,note_on,,,,,90,0,2,,,,,0,,,64,0
75750,note_on,,,,,30,0,1,,,,,0,,,88,0
75750,note_on,,,,,0,0,1,,,,,0,,,90,77
75755,set_tempo,,,,,40,1,0,,628272,,,,,,,
75765,note_on,,,,,15,0,2,,,,,0,,,57,0
75775,control_change,,,,,25,0,1,,,,,0,64,0,,
75780,control_change,,,,,0,0,1,,,,,0,64,95,,
75780,note_on,,,,,0,0,1,,,,,0,,,91,77
75780,note_on,,,,,5,0,1,,,,,0,,,90,0
75780,note_on,,,,,15,0,2,,,,,0,,,57,58
75810,note_on,,,,,0,0,1,,,,,0,,,92,74
75810,note_on,,,,,30,0,1,,,,,0,,,91,0
75840,note_on,,,,,30,0,1,,,,,0,,,92,0
75840,note_on,,,,,0,0,2,,,,,0,,,64,51
75840,note_on,,,,,60,0,2,,,,,0,,,69,51
75840,note_on,,,,,0,0,2,,,,,0,,,67,51
75840,note_on,,,,,0,0,1,,,,,0,,,93,72
75850,set_tempo,,,,,95,1,0,,625000,,,,,,,
75870,note_on,,,,,30,0,1,,,,,0,,,93,0
75870,note_on,,,,,0,0,1,,,,,0,,,91,69
75900,note_on,,,,,30,0,1,,,,,0,,,91,0
75900,note_on,,,,,0,0,1,,,,,0,,,90,67
75930,note_on,,,,,30,0,1,,,,,0,,,90,0
75930,note_on,,,,,0,0,1,,,,,0,,,88,67
75930,note_on,,,,,0,0,2,,,,,0,,,69,0
75930,note_on,,,,,0,0,2,,,,,0,,,67,0
75930,note_on,,,,,90,0,2,,,,,0,,,64,0
75945,note_on,,,,,15,0,2,,,,,0,,,57,0
75955,control_change,,,,,25,0,1,,,,,0,64,0,,
75960,note_on,,,,,15,0,2,,,,,0,,,57,52
75960,control_change,,,,,0,0,1,,,,,0,64,95,,
75960,note_on,,,,,0,0,1,,,,,0,,,91,67
75960,note_on,,,,,5,0,1,,,,,0,,,88,0
75970,set_tempo,,,,,120,1,0,,641711,,,,,,,
75990,note_on,,,,,30,0,1,,,,,0,,,91,0
75990,note_on,,,,,0,0,1,,,,,0,,,90,72
76005,note_on,,,,,45,0,2,,,,,0,,,57,0
76015,set_tempo,,,,,45,1,0,,662983,,,,,,,
76020,note_on,,,,,15,0,2,,,,,0,,,66,56
76020,note_on,,,,,0,0,2,,,,,0,,,62,56
76020,note_on,,,,,30,0,1,,,,,0,,,90,0
76020,note_on,,,,,0,0,1,,,,,0,,,93,79
76050,note_on,,,,,0,0,1,,,,,0,,,91,86
76050,note_on,,,,,30,0,1,,,,,0,,,93,0
76080,note_on,,,,,0,0,2,,,,,0,,,66,0
76080,note_on,,,,,30,0,1,,,,,0,,,91,0
76080,note_on,,,,,0,0,2,,,,,0,,,67,62
76080,note_on,,,,,0,0,2,,,,,0,,,64,62
76080,note_on,,,,,0,0,1,,,,,0,,,90,91
76080,set_tempo,,,,,65,1,0,,685714,,,,,,,
76080,note_on,,,,,60,0,2,,,,,0,,,62,0
76110,note_on,,,,,30,0,1,,,,,0,,,90,0
76110,note_on,,,,,0,0,1,,,,,0,,,88,87
76125,set_tempo,,,,,45,1,0,,710059,,,,,,,
76135,control_change,,,,,25,0,1,,,,,0,64,0,,
76140,note_on,,,,,5,0,1,,,,,0,,,88,0
76140,note_on,,,,,0,0,1,,,,,0,,,88,85
76140,note_on,,,,,0,0,2,,,,,0,,,69,65
76140,note_on,,,,,0,0,2,,,,,0,,,66,65
76140,note_on,,,,,0,0,2,,,,,0,,,67,0
76140,note_on,,,,,60,0,2,,,,,0,,,64,0
76140,control_change,,,,,0,0,1,,,,,0,64,95,,
76165,set_tempo,,,,,40,1,0,,736196,,,,,,,
76170,note_on,,,,,0,0,1,,,,,0,,,86,74
76170,note_on,,,,,30,0,1,,,,,0,,,88,0
76196,note_on,,,,,26,0,1,,,,,0,,,86,0
76200,note_on,,,,,0,0,2,,,,,0,,,66,0
76200,note_on,,,,,0,0,2,,,,,0,,,67,56
76200,note_on,,,,,0,0,2,,,,,0,,,64,56
76200,note_on,,,,,4,0,1,,,,,0,,,86,75
76200,note_on,,,,,60,0,2,,,,,0,,,69,0
76225,set_tempo,,,,,60,1,0,,754716,,,,,,,
76230,note_on,,,,,30,0,1,,,,,0,,,86,0
76230,note_on,,,,,0,0,1,,,,,0,,,85,62
76256,note_on,,,,,26,0,1,,,,,0,,,85,0
76260,note_on,,,,,4,0,1,,,,,0,,,85,67
76260,note_on,,,,,0,0,2,,,,,0,,,62,45
76260,note_on,,,,,60,0,2,,,,,0,,,64,0
76260,note_on,,,,,0,0,2,,,,,0,,,67,0
76260,note_on,,,,,0,0,2,,,,,0,,,66,45
76270,set_tempo,,,,,45,1,0,,779220,,,,,,,
76280,set_tempo,,,,,10,1,0,,789473,,,,,,,
76290,note_on,,,,,30,0,1,,,,,0,,,85,0
76290,note_on,,,,,0,0,1,,,,,0,,,86,50
76310,set_tempo,,,,,30,1,0,,991735,,,,,,,
76314,note_on,,,,,54,0,2,,,,,0,,,62,0
76314,note_on,,,,,0,0,2,,,,,0,,,66,0
76314,note_on,,,,,24,0,1,,,,,0,,,86,0
76315,control_change,,,,,1,0,1,,,,,0,64,0,,
76320,note_on,,,,,5,0,1,,,,,0,,,78,60
76320,control_change,,,,,0,0,1,,,,,0,64,95,,
76320,set_tempo,,,,,10,1,0,,666666,,,,,,,
76320,note_on,,,,,6,0,2,,,,,0,,,57,56
76325,set_tempo,,,,,5,1,0,,659340,,,,,,,
76350,note_on,,,,,30,0,1,,,,,0,,,78,0
76350,note_on,,,,,0,0,1,,,,,0,,,86,59
76365,set_tempo,,,,,40,1,0,,641711,,,,,,,
76380,note_on,,,,,0,0,2,,,,,0,,,66,52
76380,note_on,,,,,60,0,2,,,,,0,,,62,52
76380,note_on,,,,,0,0,1,,,,,0,,,85,62
76380,note_on,,,,,30,0,1,,,,,0,,,86,0
76410,note_on,,,,,0,0,1,,,,,0,,,86,66
76410,note_on,,,,,30,0,1,,,,,0,,,85,0
76440,note_on,,,,,0,0,1,,,,,0,,,78,70
76440,note_on,,,,,30,0,1,,,,,0,,,86,0
76440,set_tempo,,,,,75,1,0,,618556,,,,,,,
76470,note_on,,,,,30,0,1,,,,,0,,,78,0
76470,note_on,,,,,0,0,1,,,,,0,,,86,78
76485,set_tempo,,,,,45,1,0,,615384,,,,,,,
76495,control_change,,,,,25,0,1,,,,,0,64,0,,
76500,note_on,,,,,120,0,2,,,,,0,,,66,0
76500,note_on,,,,,0,0,2,,,,,0,,,62,0
76500,note_on,,,,,5,0,1,,,,,0,,,86,0
76500,note_on,,,,,0,0,2,,,,,0,,,57,56
76500,note_on,,,,,0,0,2,,,,,0,,,57,0
76500,note_on,,,,,0,0,1,,,,,0,,,79,81
76500,control_change,,,,,0,0,1,,,,,0,64,95,,
76530,note_on,,,,,0,0,1,,,,,0,,,86,80
76530,note_on,,,,,30,0,1,,,,,0,,,79,0
76560,note_on,,,,,0,0,1,,,,,0,,,85,75
76560,set_tempo,,,,,75,1,0,,612244,,,,,,,
76560,note_on,,,,,0,0,2,,,,,0,,,67,52
76560,note_on,,,,,60,0,2,,,,,0,,,64,52
76560,note_on,,,,,30,0,1,,,,,0,,,86,0
76590,note_on,,,,,30,0,1,,,,,0,,,85,0
76590,note_on,,,,,0,0,1,,,,,0,,,86,73
76620,note_on,,,,,30,0,1,,,,,0,,,86,0
76620,note_on,,,,,0,0,1,,,,,0,,,79,69
76650,note_on,,,,,0,0,1,,,,,0,,,86,65
76650,note_on,,,,,30,0,1,,,,,0,,,79,0
76670,control_change,,,,,20,0,1,,,,,0,64,0,,
76680,note_on,,,,,0,0,1,,,,,0,,,80,62
76680,note_on,,,,,10,0,1,,,,,0,,,86,0
76680,control_change,,,,,0,0,1,,,,,0,64,95,,
76680,note_on,,,,,0,0,2,,,,,0,,,57,0
76680,note_on,,,,,0,0,2,,,,,0,,,57,54
76680,note_on,,,,,120,0,2,,,,,0,,,67,0
76680,note_on,,,,,0,0,2,,,,,0,,,64,0
76690,set_tempo,,,,,130,1,0,,618556,,,,,,,
76710,note_on,,,,,0,0,1,,,,,0,,,81,66
76710,note_on,,,,,30,0,1,,,,,0,,,80,0
76725,note_on,,,,,45,0,2,,,,,0,,,57,0
76730,set_tempo,,,,,40,1,0,,615384,,,,,,,
76740,note_on,,,,,30,0,1,,,,,0,,,81,0
76740,note_on,,,,,0,0,1,,,,,0,,,83,70
76740,note_on,,,,,15,0,2,,,,,0,,,68,60
76740,note_on,,,,,0,0,2,,,,,0,,,65,60
76770,note_on,,,,,0,0,1,,,,,0,,,81,75
76770,note_on,,,,,30,0,1,,,,,0,,,83,0
76795,set_tempo,,,,,65,1,0,,618556,,,,,,,
76800,note_on,,,,,60,0,2,,,,,0,,,65,0
76800,note_on,,,,,0,0,1,,,,,0,,,86,78
76800,note_on,,,,,30,0,1,,,,,0,,,81,0
76800,note_on,,,,,0,0,2,,,,,0,,,69,64
76800,note_on,,,,,0,0,2,,,,,0,,,68,0
76800,note_on,,,,,0,0,2,,,,,0,,,66,64
76830,note_on,,,,,0,0,1,,,,,0,,,81,86
76830,note_on,,,,,30,0,1,,,,,0,,,86,0
76845,note_on,,,,,0,0,2,,,,,0,,,66,0
76845,note_on,,,,,45,0,2,,,,,0,,,69,0
76855,control_change,,,,,25,0,1,,,,,0,64,0,,
76860,note_on,,,,,15,0,2,,,,,0,,,66,62
76860,note_on,,,,,0,0,2,,,,,0,,,69,62
76860,control_change,,,,,0,0,1,,,,,0,64,96,,
76860,note_on,,,,,0,0,1,,,,,0,,,90,86
76860,note_on,,,,,5,0,1,,,,,0,,,81,0
76890,note_on,,,,,0,0,1,,,,,0,,,88,78
76890,note_on,,,,,30,0,1,,,,,0,,,90,0
76895,set_tempo,,,,,100,1,0,,634920,,,,,,,
76905,set_tempo,,,,,10,1,0,,638297,,,,,,,
76912,note_on,,,,,0,0,2,,,,,0,,,66,0
76912,note_on,,,,,52,0,2,,,,,0,,,69,0
76920,note_on,,,,,0,0,2,,,,,0,,,69,55
76920,note_on,,,,,8,0,2,,,,,0,,,66,55
76920,note_on,,,,,30,0,1,,,,,0,,,88,0
76920,note_on,,,,,0,0,1,,,,,0,,,86,66
76930,set_tempo,,,,,25,1,0,,655737,,,,,,,
76950,note_on,,,,,0,0,1,,,,,0,,,85,56
76950,note_on,,,,,30,0,1,,,,,0,,,86,0
76955,set_tempo,,,,,25,1,0,,666666,,,,,,,
76965,note_on,,,,,0,0,2,,,,,0,,,66,0
76965,note_on,,,,,45,0,2,,,,,0,,,69,0
76970,set_tempo,,,,,15,1,0,,685714,,,,,,,
76980,note_on,,,,,0,0,2,,,,,0,,,69,48
76980,note_on,,,,,15,0,2,,,,,0,,,66,48
76980,set_tempo,,,,,10,1,0,,697674,,,,,,,
76980,note_on,,,,,0,0,1,,,,,0,,,83,51
76980,note_on,,,,,30,0,1,,,,,0,,,85,0
76985,set_tempo,,,,,5,1,0,,710059,,,,,,,
77005,set_tempo,,,,,20,1,0,,731707,,,,,,,
77010,note_on,,,,,0,0,1,,,,,0,,,81,48
77010,note_on,,,,,30,0,1,,,,,0,,,83,0
77025,note_on,,,,,45,0,2,,,,,0,,,69,0
77025,note_on,,,,,0,0,2,,,,,0,,,66,0
77026,set_tempo,,,,,21,1,0,,714285,,,,,,,
77030,set_tempo,,,,,4,1,0,,1000000,,,,,,,
77035,control_change,,,,,25,0,1,,,,,0,64,0,,
77040,note_on,,,,,5,0,1,,,,,0,,,81,0
77040,control_change,,,,,0,0,1,,,,,0,64,95,,
77040,note_on,,,,,15,0,2,,,,,0,,,57,56
77040,set_tempo,,,,,10,1,0,,666666,,,,,,,
77040,note_on,,,,,0,0,1,,,,,0,,,83,60
77045,set_tempo,,,,,5,1,0,,655737,,,,,,,
77060,set_tempo,,,,,15,1,0,,652173,,,,,,,
77070,note_on,,,,,30,0,1,,,,,0,,,83,0
77070,note_on,,,,,0,0,1,,,,,0,,,86,59
77085,set_tempo,,,,,25,1,0,,638297,,,,,,,
77100,note_on,,,,,0,0,2,,,,,0,,,67,52
77100,note_on,,,,,30,0,1,,,,,0,,,86,0
77100,note_on,,,,,0,0,1,,,,,0,,,85,62
77100,note_on,,,,,60,0,2,,,,,0,,,71,52
77130,note_on,,,,,30,0,1,,,,,0,,,85,0
77130,note_on,,,,,0,0,1,,,,,0,,,86,66
77160,note_on,,,,,0,0,1,,,,,0,,,83,70
77160,note_on,,,,,30,0,1,,,,,0,,,86,0
77190,note_on,,,,,0,0,1,,,,,0,,,86,78
77190,note_on,,,,,30,0,1,,,,,0,,,83,0
77215,control_change,,,,,25,0,1,,,,,0,64,0,,
77220,note_on,,,,,120,0,2,,,,,0,,,67,0
77220,note_on,,,,,0,0,2,,,,,0,,,57,56
77220,note_on,,,,,0,0,2,,,,,0,,,71,0
77220,note_on,,,,,0,0,2,,,,,0,,,57,0
77220,control_change,,,,,0,0,1,,,,,0,64,95,,
77220,note_on,,,,,0,0,1,,,,,0,,,85,81
77220,note_on,,,,,5,0,1,,,,,0,,,86,0
77250,note_on,,,,,0,0,1,,,,,0,,,93,80
77250,note_on,,,,,30,0,1,,,,,0,,,85,0
77260,set_tempo,,,,,175,1,0,,628272,,,,,,,
77280,note_on,,,,,30,0,1,,,,,0,,,93,0
77280,note_on,,,,,0,0,1,,,,,0,,,92,75
77280,note_on,,,,,0,0,2,,,,,0,,,64,52
77280,note_on,,,,,60,0,2,,,,,0,,,73,52
77310,note_on,,,,,0,0,1,,,,,0,,,93,73
77310,note_on,,,,,30,0,1,,,,,0,,,92,0
77340,note_on,,,,,30,0,1,,,,,0,,,93,0
77340,note_on,,,,,0,0,1,,,,,0,,,85,69
77355,set_tempo,,,,,95,1,0,,618556,,,,,,,
77370,note_on,,,,,0,0,1,,,,,0,,,93,65
77370,note_on,,,,,30,0,1,,,,,0,,,85,0
77390,control_change,,,,,20,0,1,,,,,0,64,0,,
77400,note_on,,,,,0,0,1,,,,,0,,,85,62
77400,note_on,,,,,120,0,2,,,,,0,,,64,0
77400,note_on,,,,,0,0,2,,,,,0,,,73,0
77400,note_on,,,,,0,0,2,,,,,0,,,57,0
77400,note_on,,,,,0,0,2,,,,,0,,,57,54
77400,note_on,,,,,10,0,1,,,,,0,,,93,0
77400,control_change,,,,,0,0,1,,,,,0,64,95,,
77430,note_on,,,,,0,0,1,,,,,0,,,86,66
77430,note_on,,,,,30,0,1,,,,,0,,,85,0
77445,note_on,,,,,45,0,2,,,,,0,,,57,0
77450,set_tempo,,,,,95,1,0,,615384,,,,,,,
77460,note_on,,,,,30,0,1,,,,,0,,,86,0
77460,note_on,,,,,15,0,2,,,,,0,,,64,60
77460,note_on,,,,,0,0,2,,,,,0,,,73,60
77460,note_on,,,,,0,0,1,,,,,0,,,88,70
77490,note_on,,,,,30,0,1,,,,,0,,,88,0
77490,note_on,,,,,0,0,1,,,,,0,,,86,75
77520,note_on,,,,,0,0,2,,,,,0,,,66,64
77520,note_on,,,,,0,0,2,,,,,0,,,74,64
77520,note_on,,,,,0,0,2,,,,,0,,,64,0
77520,note_on,,,,,60,0,2,,,,,0,,,73,0
77520,note_on,,,,,30,0,1,,,,,0,,,86,0
77520,note_on,,,,,0,0,1,,,,,0,,,90,78
77550,note_on,,,,,0,0,1,,,,,0,,,86,86
77550,note_on,,,,,30,0,1,,,,,0,,,90,0
77560,set_tempo,,,,,110,1,0,,618556,,,,,,,
77565,note_on,,,,,45,0,2,,,,,0,,,66,0
77565,note_on,,,,,0,0,2,,,,,0,,,74,0
77570,set_tempo,,,,,10,1,0,,621761,,,,,,,
77575,control_change,,,,,25,0,1,,,,,0,64,0,,
77580,note_on,,,,,0,0,1,,,,,0,,,98,86
77580,control_change,,,,,0,0,1,,,,,0,64,96,,
77580,note_on,,,,,5,0,1,,,,,0,,,86,0
77580,note_on,,,,,15,0,2,,,,,0,,,74,62
77580,note_on,,,,,0,0,2,,,,,0,,,66,62
77605,set_tempo,,,,,35,1,0,,628272,,,,,,,
77610,note_on,,,,,0,0,1,,,,,0,,,97,78
77610,note_on,,,,,30,0,1,,,,,0,,,98,0
77632,note_on,,,,,52,0,2,,,,,0,,,66,0
77632,note_on,,,,,0,0,2,,,,,0,,,74,0
77640,note_on,,,,,0,0,1,,,,,0,,,95,66
77640,note_on,,,,,30,0,1,,,,,0,,,97,0
77640,note_on,,,,,8,0,2,,,,,0,,,74,55
77640,note_on,,,,,0,0,2,,,,,0,,,66,55
77645,set_tempo,,,,,40,1,0,,641711,,,,,,,
77660,set_tempo,,,,,15,1,0,,659340,,,,,,,
77670,set_tempo,,,,,10,1,0,,677966,,,,,,,
77670,note_on,,,,,0,0,1,,,,,0,,,93,56
77670,note_on,,,,,30,0,1,,,,,0,,,95,0
77680,set_tempo,,,,,10,1,0,,697674,,,,,,,
77685,note_on,,,,,0,0,2,,,,,0,,,74,0
77685,note_on,,,,,45,0,2,,,,,0,,,66,0
77700,note_on,,,,,15,0,2,,,,,0,,,74,48
77700,note_on,,,,,0,0,2,,,,,0,,,66,48
77700,note_on,,,,,30,0,1,,,,,0,,,93,0
77700,note_on,,,,,0,0,1,,,,,0,,,91,51
77715,set_tempo,,,,,35,1,0,,701754,,,,,,,
77730,note_on,,,,,30,0,1,,,,,0,,,91,0
77730,note_on,,,,,0,0,1,,,,,0,,,90,48
77745,note_on,,,,,45,0,2,,,,,0,,,66,0
77745,note_on,,,,,0,0,2,,,,,0,,,74,0
77750,set_tempo,,,,,35,1,0,,1008403,,,,,,,
77753,set_tempo,,,,,3,1,0,,1008403,,,,,,,
77755,control_change,,,,,25,0,1,,,,,0,64,0,,
77760,set_tempo,,,,,7,1,0,,670391,,,,,,,
77760,note_on,,,,,0,0,1,,,,,0,,,83,60
77760,control_change,,,,,0,0,1,,,,,0,64,95,,
77760,note_on,,,,,5,0,1,,,,,0,,,90,0
77760,note_on,,,,,15,0,2,,,,,0,,,57,56
77770,set_tempo,,,,,10,1,0,,659340,,,,,,,
77790,note_on,,,,,30,0,1,,,,,0,,,83,0
77790,note_on,,,,,0,0,1,,,,,0,,,91,49
77820,note_on,,,,,60,0,2,,,,,0,,,76,52
77820,note_on,,,,,0,0,2,,,,,0,,,67,52
77820,note_on,,,,,0,0,1,,,,,0,,,90,49
77820,note_on,,,,,30,0,1,,,,,0,,,91,0
77825,set_tempo,,,,,55,1,0,,645161,,,,,,,
77850,note_on,,,,,0,0,1,,,,,0,,,91,49
77850,note_on,,,,,30,0,1,,,,,0,,,90,0
77880,note_on,,,,,30,0,1,,,,,0,,,91,0
77880,note_on,,,,,0,0,1,,,,,0,,,83,56
77910,note_on,,,,,0,0,1,,,,,0,,,91,63
77910,note_on,,,,,30,0,1,,,,,0,,,83,0
77935,control_change,,,,,25,0,1,,,,,0,64,0,,
77940,note_on,,,,,0,0,2,,,,,0,,,57,0
77940,note_on,,,,,0,0,2,,,,,0,,,76,0
77940,note_on,,,,,120,0,2,,,,,0,,,67,0
77940,set_tempo,,,,,115,1,0,,628272,,,,,,,
77940,control_change,,,,,0,0,1,,,,,0,64,95,,
77940,note_on,,,,,0,0,1,,,,,0,,,85,68
77940,note_on,,,,,5,0,1,,,,,0,,,91,0
77940,note_on,,,,,0,0,2,,,,,0,,,57,50
77970,note_on,,,,,0,0,1,,,,,0,,,93,72
77970,note_on,,,,,30,0,1,,,,,0,,,85,0
78000,note_on,,,,,30,0,1,,,,,0,,,93,0
78000,note_on,,,,,0,0,1,,,,,0,,,92,63
78000,note_on,,,,,0,0,2,,,,,0,,,78,49
78000,note_on,,,,,60,0,2,,,,,0,,,69,49
78030,note_on,,,,,0,0,1,,,,,0,,,93,59
78030,note_on,,,,,30,0,1,,,,,0,,,92,0
78060,note_on,,,,,30,0,1,,,,,0,,,93,0
78060,note_on,,,,,0,0,1,,,,,0,,,85,58
78090,note_on,,,,,0,0,1,,,,,0,,,93,55
78090,note_on,,,,,30,0,1,,,,,0,,,85,0
78090,set_tempo,,,,,150,1,0,,618556,,,,,,,
78110,control_change,,,,,20,0,1,,,,,0,64,0,,
78120,note_on,,,,,0,0,2,,,,,0,,,69,0
78120,note_on,,,,,0,0,2,,,,,0,,,57,0
78120,note_on,,,,,120,0,2,,,,,0,,,78,0
78120,note_on,,,,,0,0,2,,,,,0,,,57,44
78120,note_on,,,,,10,0,1,,,,,0,,,93,0
78120,control_change,,,,,0,0,1,,,,,0,64,95,,
78120,note_on,,,,,0,0,1,,,,,0,,,85,55
78150,note_on,,,,,30,0,1,,,,,0,,,85,0
78150,note_on,,,,,0,0,1,,,,,0,,,86,52
78165,note_on,,,,,45,0,2,,,,,0,,,57,0
78170,set_tempo,,,,,80,1,0,,615384,,,,,,,
78180,note_on,,,,,0,0,1,,,,,0,,,88,53
78180,note_on,,,,,15,0,2,,,,,0,,,64,49
78180,note_on,,,,,0,0,2,,,,,0,,,73,49
78180,note_on,,,,,30,0,1,,,,,0,,,86,0
78210,note_on,,,,,0,0,1,,,,,0,,,86,58
78210,note_on,,,,,30,0,1,,,,,0,,,88,0
78240,note_on,,,,,60,0,2,,,,,0,,,73,0
78240,note_on,,,,,0,0,2,,,,,0,,,64,0
78240,note_on,,,,,0,0,2,,,,,0,,,74,52
78240,note_on,,,,,0,0,2,,,,,0,,,66,52
78240,note_on,,,,,30,0,1,,,,,0,,,86,0
78240,note_on,,,,,0,0,1,,,,,0,,,93,62
78270,note_on,,,,,30,0,1,,,,,0,,,93,0
78270,note_on,,,,,0,0,1,,,,,0,,,90,68
78285,note_on,,,,,45,0,2,,,,,0,,,66,0
78285,set_tempo,,,,,115,1,0,,615384,,,,,,,
78285,note_on,,,,,0,0,2,,,,,0,,,74,0
78295,control_change,,,,,25,0,1,,,,,0,64,0,,
78300,note_on,,,,,5,0,1,,,,,0,,,90,0
78300,note_on,,,,,0,0,1,,,,,0,,,98,74
78300,control_change,,,,,0,0,1,,,,,0,64,96,,
78300,note_on,,,,,15,0,2,,,,,0,,,74,55
78300,note_on,,,,,0,0,2,,,,,0,,,66,55
78325,set_tempo,,,,,40,1,0,,631578,,,,,,,
78330,note_on,,,,,0,0,1,,,,,0,,,97,67
78330,note_on,,,,,30,0,1,,,,,0,,,98,0
78350,set_tempo,,,,,25,1,0,,634920,,,,,,,
78352,note_on,,,,,52,0,2,,,,,0,,,66,0
78352,note_on,,,,,0,0,2,,,,,0,,,74,0
78360,note_on,,,,,0,0,1,,,,,0,,,95,61
78360,note_on,,,,,8,0,2,,,,,0,,,74,45
78360,set_tempo,,,,,10,1,0,,652173,,,,,,,
78360,note_on,,,,,0,0,2,,,,,0,,,66,45
78360,note_on,,,,,30,0,1,,,,,0,,,97,0
78390,note_on,,,,,0,0,1,,,,,0,,,93,53
78390,note_on,,,,,30,0,1,,,,,0,,,95,0
78405,note_on,,,,,45,0,2,,,,,0,,,66,0
78405,note_on,,,,,0,0,2,,,,,0,,,74,0
78420,note_on,,,,,0,0,1,,,,,0,,,91,49
78420,note_on,,,,,30,0,1,,,,,0,,,93,0
78420,note_on,,,,,0,0,2,,,,,0,,,66,43
78420,note_on,,,,,15,0,2,,,,,0,,,74,43
78450,note_on,,,,,0,0,1,,,,,0,,,90,49
78450,note_on,,,,,30,0,1,,,,,0,,,91,0
78453,set_tempo,,,,,93,1,0,,705882,,,,,,,
78465,note_on,,,,,0,0,2,,,,,0,,,74,0
78465,note_on,,,,,45,0,2,,,,,0,,,66,0
78470,set_tempo,,,,,17,1,0,,991735,,,,,,,
78475,control_change,,,,,25,0,1,,,,,0,64,0,,
78480,note_on,,,,,5,0,1,,,,,0,,,90,0
78480,note_on,,,,,0,0,1,,,,,0,,,83,49
78480,control_change,,,,,0,0,1,,,,,0,64,95,,
78480,note_on,,,,,15,0,2,,,,,0,,,57,51
78480,set_tempo,,,,,10,1,0,,666666,,,,,,,
78510,note_on,,,,,0,0,1,,,,,0,,,95,53
78510,note_on,,,,,30,0,1,,,,,0,,,83,0
78540,note_on,,,,,30,0,1,,,,,0,,,95,0
78540,note_on,,,,,0,0,2,,,,,0,,,67,46
78540,note_on,,,,,60,0,2,,,,,0,,,76,46
78540,note_on,,,,,0,0,1,,,,,0,,,94,56
78545,set_tempo,,,,,65,1,0,,648648,,,,,,,
78570,note_on,,,,,0,0,1,,,,,0,,,95,59
78570,note_on,,,,,30,0,1,,,,,0,,,94,0
78600,note_on,,,,,30,0,1,,,,,0,,,95,0
78600,note_on,,,,,0,0,1,,,,,0,,,91,61
78625,set_tempo,,,,,80,1,0,,631578,,,,,,,
78630,note_on,,,,,0,0,1,,,,,0,,,88,64
78630,note_on,,,,,30,0,1,,,,,0,,,91,0
78655,control_change,,,,,25,0,1,,,,,0,64,0,,
78660,note_on,,,,,0,0,2,,,,,0,,,57,0
78660,note_on,,,,,120,0,2,,,,,0,,,67,0
78660,note_on,,,,,0,0,2,,,,,0,,,76,0
78660,note_on,,,,,0,0,2,,,,,0,,,57,45
78660,note_on,,,,,5,0,1,,,,,0,,,88,0
78660,note_on,,,,,0,0,1,,,,,0,,,85,64
78660,control_change,,,,,0,0,1,,,,,0,64,95,,
78690,note_on,,,,,30,0,1,,,,,0,,,85,0
78690,note_on,,,,,0,0,1,,,,,0,,,93,62
78710,set_tempo,,,,,85,1,0,,618556,,,,,,,
78720,note_on,,,,,30,0,1,,,,,0,,,93,0
78720,note_on,,,,,0,0,2,,,,,0,,,78,42
78720,note_on,,,,,60,0,2,,,,,0,,,69,42
78720,note_on,,,,,0,0,1,,,,,0,,,92,56
78750,note_on,,,,,30,0,1,,,,,0,,,92,0
78750,note_on,,,,,0,0,1,,,,,0,,,93,49
78780,note_on,,,,,30,0,1,,,,,0,,,93,0
78780,note_on,,,,,0,0,1,,,,,0,,,85,47
78810,note_on,,,,,0,0,1,,,,,0,,,93,45
78810,note_on,,,,,30,0,1,,,,,0,,,85,0
78825,set_tempo,,,,,115,1,0,,606060,,,,,,,
78830,control_change,,,,,20,0,1,,,,,0,64,0,,
78840,note_on,,,,,10,0,1,,,,,0,,,93,0
78840,note_on,,,,,0,0,1,,,,,0,,,85,45
78840,control_change,,,,,0,0,1,,,,,0,64,95,,
78840,note_on,,,,,120,0,2,,,,,0,,,78,0
78840,note_on,,,,,0,0,2,,,,,0,,,69,0
78840,note_on,,,,,0,0,2,,,,,0,,,57,0
78840,note_on,,,,,0,0,2,,,,,0,,,50,44
78870,note_on,,,,,30,0,1,,,,,0,,,85,0
78870,note_on,,,,,0,0,1,,,,,0,,,86,45
78885,note_on,,,,,45,0,2,,,,,0,,,50,0
78900,note_on,,,,,0,0,2,,,,,0,,,73,48
78900,note_on,,,,,15,0,2,,,,,0,,,64,48
78900,note_on,,,,,0,0,1,,,,,0,,,88,46
78900,note_on,,,,,30,0,1,,,,,0,,,86,0
78930,note_on,,,,,30,0,1,,,,,0,,,88,0
78930,note_on,,,,,0,0,1,,,,,0,,,86,49
78960,note_on,,,,,0,0,1,,,,,0,,,98,52
78960,note_on,,,,,0,0,2,,,,,0,,,66,52
78960,note_on,,,,,0,0,2,,,,,0,,,64,0
78960,note_on,,,,,60,0,2,,,,,0,,,73,0
78960,note_on,,,,,30,0,1,,,,,0,,,86,0
78960,note_on,,,,,0,0,2,,,,,0,,,74,52
78975,set_tempo,,,,,150,1,0,,582524,,,,,,,
78990,note_on,,,,,30,0,1,,,,,0,,,98,0
78990,note_on,,,,,0,0,1,,,,,0,,,97,58
79005,note_on,,,,,0,0,2,,,,,0,,,74,0
79005,note_on,,,,,45,0,2,,,,,0,,,66,0
79015,control_change,,,,,25,0,1,,,,,0,64,0,,
79020,note_on,,,,,0,0,1,,,,,0,,,95,63
79020,control_change,,,,,0,0,1,,,,,0,64,96,,
79020,note_on,,,,,0,0,2,,,,,0,,,66,48
79020,note_on,,,,,5,0,1,,,,,0,,,97,0
79020,note_on,,,,,15,0,2,,,,,0,,,74,48
79050,note_on,,,,,0,0,1,,,,,0,,,93,56
79050,note_on,,,,,30,0,1,,,,,0,,,95,0
79070,set_tempo,,,,,95,1,0,,571428,,,,,,,
79072,note_on,,,,,52,0,2,,,,,0,,,66,0
79072,note_on,,,,,0,0,2,,,,,0,,,74,0
79080,note_on,,,,,0,0,1,,,,,0,,,91,53
79080,note_on,,,,,8,0,2,,,,,0,,,74,43
79080,note_on,,,,,0,0,2,,,,,0,,,66,43
79080,note_on,,,,,30,0,1,,,,,0,,,93,0
79110,note_on,,,,,0,0,1,,,,,0,,,90,56
79110,note_on,,,,,30,0,1,,,,,0,,,91,0
79125,note_on,,,,,0,0,2,,,,,0,,,74,0
79125,note_on,,,,,45,0,2,,,,,0,,,66,0
79140,note_on,,,,,0,0,1,,,,,0,,,88,60
79140,note_on,,,,,30,0,1,,,,,0,,,90,0
79140,note_on,,,,,15,0,2,,,,,0,,,74,39
79140,note_on,,,,,0,0,2,,,,,0,,,66,39
79170,note_on,,,,,0,0,1,,,,,0,,,86,63
79170,note_on,,,,,30,0,1,,,,,0,,,88,0
79170,set_tempo,,,,,100,1,0,,560747,,,,,,,
79185,note_on,,,,,0,0,2,,,,,0,,,74,0
79185,note_on,,,,,45,0,2,,,,,0,,,66,0
79195,control_change,,,,,25,0,1,,,,,0,64,0,,
79200,note_on,,,,,0,0,1,,,,,0,,,85,65
79200,note_on,,,,,5,0,1,,,,,0,,,86,0
79230,note_on,,,,,0,0,1,,,,,0,,,83,67
79230,note_on,,,,,30,0,1,,,,,0,,,85,0
79245,set_tempo,,,,,75,1,0,,558139,,,,,,,
79260,note_on,,,,,30,0,1,,,,,0,,,83,0
79260,note_on,,,,,0,0,1,,,,,0,,,81,72
79290,note_on,,,,,30,0,1,,,,,0,,,81,0
79290,note_on,,,,,0,0,1,,,,,0,,,79,74
79290,set_tempo,,,,,45,1,0,,547945,,,,,,,
79320,note_on,,,,,0,0,1,,,,,0,,,78,76
79320,note_on,,,,,30,0,1,,,,,0,,,79,0
79350,note_on,,,,,30,0,1,,,,,0,,,78,0
79350,note_on,,,,,0,0,1,,,,,0,,,76,79
79370,set_tempo,,,,,80,1,0,,542986,,,,,,,
79375,set_tempo,,,,,5,1,0,,533333,,,,,,,
79380,note_on,,,,,0,0,1,,,,,0,,,74,81
79380,note_on,,,,,30,0,1,,,,,0,,,76,0
79410,note_on,,,,,0,0,1,,,,,0,,,73,84
79410,note_on,,,,,30,0,1,,,,,0,,,74,0
79440,note_on,,,,,0,0,1,,,,,0,,,71,88
79440,note_on,,,,,30,0,1,,,,,0,,,73,0
79470,note_on,,,,,0,0,1,,,,,0,,,69,90
79470,note_on,,,,,30,0,1,,,,,0,,,71,0
79475,set_tempo,,,,,100,1,0,,526315,,,,,,,
79500,note_on,,,,,0,0,1,,,,,0,,,67,92
79500,note_on,,,,,30,0,1,,,,,0,,,69,0
79530,note_on,,,,,0,0,1,,,,,0,,,66,96
79530,note_on,,,,,30,0,1,,,,,0,,,67,0
79550,set_tempo,,,,,75,1,0,,510638,,,,,,,
79560,note_on,,,,,0,0,1,,,,,0,,,76,97
79560,note_on,,,,,30,0,1,,,,,0,,,66,0
79560,note_on,,,,,375,0,2,,,,,0,,,64,92
79590,note_on,,,,,0,0,1,,,,,0,,,74,102
79590,note_on,,,,,30,0,1,,,,,0,,,76,0
79590,note_on,,,,,0,0,2,,,,,0,,,62,94
79590,note_on,,,,,30,0,2,,,,,0,,,64,0
79620,note_on,,,,,30,0,2,,,,,0,,,62,0
79620,note_on,,,,,0,0,2,,,,,0,,,61,95
79620,note_on,,,,,30,0,1,,,,,0,,,74,0
79620,note_on,,,,,0,0,1,,,,,0,,,73,106
79630,set_tempo,,,,,80,1,0,,506329,,,,,,,
79650,note_on,,,,,0,0,2,,,,,0,,,59,97
79650,note_on,,,,,30,0,2,,,,,0,,,61,0
79650,note_on,,,,,30,0,1,,,,,0,,,73,0
79650,note_on,,,,,0,0,1,,,,,0,,,71,108
79680,note_on,,,,,30,0,1,,,,,0,,,71,0
79680,note_on,,,,,0,0,2,,,,,0,,,57,100
79680,note_on,,,,,30,0,2,,,,,0,,,59,0
79680,note_on,,,,,0,0,1,,,,,0,,,69,112
79710,note_on,,,,,0,0,1,,,,,0,,,67,116
79710,note_on,,,,,30,0,1,,,,,0,,,69,0
79710,note_on,,,,,0,0,2,,,,,0,,,55,104
79710,note_on,,,,,30,0,2,,,,,0,,,57,0
79740,note_on,,,,,30,0,1,,,,,0,,,67,0
79740,note_on,,,,,0,0,2,,,,,0,,,54,106
79740,note_on,,,,,30,0,2,,,,,0,,,55,0
79740,note_on,,,,,0,0,1,,,,,0,,,66,118
79760,set_tempo,,,,,130,1,0,,500000,,,,,,,
79770,note_on,,,,,0,0,2,,,,,0,,,52,110
79770,note_on,,,,,0,0,1,,,,,0,,,64,121
79770,note_on,,,,,30,0,1,,,,,0,,,66,0
79770,note_on,,,,,30,0,2,,,,,0,,,54,0
79800,note_on,,,,,0,0,2,,,,,0,,,50,113
79800,note_on,,,,,30,0,2,,,,,0,,,52,0
79800,note_on,,,,,30,0,1,,,,,0,,,64,0
79800,note_on,,,,,0,0,1,,,,,0,,,62,126
79830,note_on,,,,,30,0,2,,,,,0,,,50,0
79830,note_on,,,,,30,0,1,,,,,0,,,62,0
79830,note_on,,,,,0,0,1,,,,,0,,,61,127
79830,note_on,,,,,0,0,2,,,,,0,,,49,117
79855,set_tempo,,,,,95,1,0,,493827,,,,,,,
79860,note_on,,,,,0,0,1,,,,,0,,,59,127
79860,note_on,,,,,30,0,1,,,,,0,,,61,0
79860,note_on,,,,,0,0,2,,,,,0,,,47,118
79860,note_on,,,,,30,0,2,,,,,0,,,49,0
79890,note_on,,,,,0,0,1,,,,,0,,,57,127
79890,note_on,,,,,30,0,1,,,,,0,,,59,0
79890,note_on,,,,,0,0,2,,,,,0,,,45,122
79890,note_on,,,,,30,0,2,,,,,0,,,47,0
79920,note_on,,,,,30,0,2,,,,,0,,,45,0
79920,note_on,,,,,30,0,1,,,,,0,,,57,0
79920,note_on,,,,,0,0,1,,,,,0,,,56,127
79920,control_change,,,,,0,0,1,,,,,0,64,95,,
79920,note_on,,,,,0,0,2,,,,,0,,,44,126
79960,set_tempo,,,,,105,1,0,,508474,,,,,,,
79980,note_on,,,,,60,0,1,,,,,0,,,56,0
79980,note_on,,,,,60,0,2,,,,,0,,,44,0
79990,set_tempo,,,,,30,1,0,,535714,,,,,,,
80010,note_on,,,,,0,0,2,,,,,0,,,47,126
80010,note_on,,,,,0,0,1,,,,,0,,,64,127
80010,note_on,,,,,0,0,2,,,,,0,,,52,126
80010,note_on,,,,,0,0,1,,,,,0,,,58,127
80010,note_on,,,,,30,0,1,,,,,0,,,56,127
80010,note_on,,,,,30,0,2,,,,,0,,,44,126
80010,note_on,,,,,0,0,1,,,,,0,,,62,127
80010,note_on,,,,,0,0,2,,,,,0,,,50,126
80030,set_tempo,,,,,40,1,0,,571428,,,,,,,
80035,note_on,,,,,25,0,2,,,,,0,,,52,0
80035,note_on,,,,,25,0,1,,,,,0,,,64,0
80035,note_on,,,,,0,0,1,,,,,0,,,62,0
80035,note_on,,,,,0,0,1,,,,,0,,,56,0
80035,note_on,,,,,0,0,1,,,,,0,,,58,0
80035,note_on,,,,,0,0,2,,,,,0,,,44,0
80035,note_on,,,,,0,0,2,,,,,0,,,47,0
80035,note_on,,,,,0,0,2,,,,,0,,,50,0
80040,note_on,,,,,5,0,1,,,,,0,,,62,127
80040,note_on,,,,,0,0,1,,,,,0,,,59,127
80040,note_on,,,,,0,0,1,,,,,0,,,64,127
80040,note_on,,,,,5,0,2,,,,,0,,,52,127
80040,note_on,,,,,0,0,2,,,,,0,,,50,127
80040,note_on,,,,,0,0,2,,,,,0,,,47,127
80040,note_on,,,,,0,0,2,,,,,0,,,44,127
80040,note_on,,,,,0,0,1,,,,,0,,,56,127
80085,set_tempo,,,,,55,1,0,,609137,,,,,,,
80090,set_tempo,,,,,5,1,0,,597014,,,,,,,
80093,set_tempo,,,,,3,1,0,,615384,,,,,,,
80580,control_change,,,,,540,0,1,,,,,0,64,0,,
80595,note_on,,,,,555,0,2,,,,,0,,,44,0
80595,note_on,,,,,0,0,2,,,,,0,,,52,0
80595,note_on,,,,,15,0,1,,,,,0,,,56,0
80595,note_on,,,,,0,0,1,,,,,0,,,62,0
80595,note_on,,,,,0,0,1,,,,,0,,,64,0
80595,note_on,,,,,0,0,1,,,,,0,,,59,0
80595,note_on,,,,,0,0,2,,,,,0,,,50,0
80595,note_on,,,,,0,0,2,,,,,0,,,47,0
80610,set_tempo,,,,,517,1,0,,2000000,,,,,,,
80640,note_on,,,,,45,0,2,,,,,0,,,44,37
80640,control_change,,,,,45,0,1,,,,,0,64,95,,
80640,note_on,,,,,0,0,1,,,,,0,,,76,42
80640,set_tempo,,,,,30,1,0,,628272,,,,,,,
80700,note_on,,,,,60,0,1,,,,,0,,,64,40
80730,note_on,,,,,30,0,1,,,,,0,,,64,0
80730,note_on,,,,,0,0,1,,,,,0,,,71,38
80740,set_tempo,,,,,100,1,0,,612244,,,,,,,
80760,note_on,,,,,30,0,1,,,,,0,,,71,0
80760,note_on,,,,,0,0,1,,,,,0,,,74,36
80780,set_tempo,,,,,40,1,0,,606060,,,,,,,
80805,note_on,,,,,45,0,1,,,,,0,,,74,0
80815,control_change,,,,,10,0,1,,,,,0,64,0,,
80820,note_on,,,,,180,0,2,,,,,0,,,44,0
80820,note_on,,,,,0,0,2,,,,,0,,,40,40
80820,note_on,,,,,5,0,1,,,,,0,,,76,0
80820,control_change,,,,,0,0,1,,,,,0,64,95,,
80820,note_on,,,,,0,0,1,,,,,0,,,77,42
80880,note_on,,,,,60,0,1,,,,,0,,,68,40
80910,note_on,,,,,30,0,1,,,,,0,,,68,0
80910,note_on,,,,,0,0,1,,,,,0,,,71,37
80940,note_on,,,,,30,0,1,,,,,0,,,71,0
80940,note_on,,,,,0,0,1,,,,,0,,,74,36
80955,set_tempo,,,,,175,1,0,,582524,,,,,,,
80985,note_on,,,,,45,0,1,,,,,0,,,74,0
80995,control_change,,,,,10,0,1,,,,,0,64,0,,
81000,note_on,,,,,0,0,2,,,,,0,,,45,42
81000,note_on,,,,,180,0,2,,,,,0,,,40,0
81000,control_change,,,,,0,0,1,,,,,0,64,95,,
81000,note_on,,,,,0,0,1,,,,,0,,,76,46
81000,note_on,,,,,5,0,1,,,,,0,,,77,0
81015,set_tempo,,,,,60,1,0,,585365,,,,,,,
81060,note_on,,,,,60,0,1,,,,,0,,,67,42
81090,note_on,,,,,30,0,1,,,,,0,,,67,0
81090,note_on,,,,,0,0,1,,,,,0,,,69,46
81120,note_on,,,,,30,0,1,,,,,0,,,69,0
81120,note_on,,,,,0,0,1,,,,,0,,,74,51
81165,note_on,,,,,45,0,1,,,,,0,,,74,0
81170,set_tempo,,,,,155,1,0,,574162,,,,,,,
81175,set_tempo,,,,,5,1,0,,571428,,,,,,,
81175,control_change,,,,,10,0,1,,,,,0,64,0,,
81180,note_on,,,,,0,0,1,,,,,0,,,81,50
81180,control_change,,,,,0,0,1,,,,,0,64,95,,
81180,note_on,,,,,5,0,1,,,,,0,,,76,0
81180,note_on,,,,,180,0,2,,,,,0,,,45,0
81180,note_on,,,,,0,0,2,,,,,0,,,33,49
81240,note_on,,,,,60,0,1,,,,,0,,,67,53
81270,note_on,,,,,0,0,1,,,,,0,,,69,51
81270,note_on,,,,,30,0,1,,,,,0,,,67,0
81300,note_on,,,,,0,0,1,,,,,0,,,73,48
81300,note_on,,,,,30,0,1,,,,,0,,,69,0
81345,note_on,,,,,0,0,1,,,,,0,,,81,0
81345,note_on,,,,,45,0,1,,,,,0,,,73,0
81345,note_on,,,,,165,0,2,,,,,0,,,33,0
81355,control_change,,,,,10,0,1,,,,,0,64,0,,
81360,note_on,,,,,15,0,2,,,,,0,,,34,56
81360,control_change,,,,,5,0,1,,,,,0,64,95,,
81360,note_on,,,,,0,0,1,,,,,0,,,78,59
81395,set_tempo,,,,,220,1,0,,574162,,,,,,,
81420,note_on,,,,,60,0,1,,,,,0,,,76,53
81450,note_on,,,,,0,0,1,,,,,0,,,73,50
81450,note_on,,,,,30,0,1,,,,,0,,,76,0
81475,set_tempo,,,,,80,1,0,,579710,,,,,,,
81480,note_on,,,,,30,0,1,,,,,0,,,73,0
81480,note_on,,,,,0,0,1,,,,,0,,,66,45
81525,note_on,,,,,45,0,1,,,,,0,,,66,0
81535,control_change,,,,,10,0,1,,,,,0,64,0,,
81540,note_on,,,,,5,0,1,,,,,0,,,78,0
81540,control_change,,,,,0,0,1,,,,,0,64,95,,
81540,note_on,,,,,0,0,1,,,,,0,,,75,54
81540,note_on,,,,,180,0,2,,,,,0,,,34,0
81540,note_on,,,,,0,0,2,,,,,0,,,35,53
81570,set_tempo,,,,,95,1,0,,591133,,,,,,,
81600,note_on,,,,,60,0,1,,,,,0,,,72,50
81630,note_on,,,,,30,0,1,,,,,0,,,72,0
81630,note_on,,,,,0,0,1,,,,,0,,,69,47
81660,note_on,,,,,30,0,1,,,,,0,,,69,0
81660,note_on,,,,,0,0,1,,,,,0,,,66,44
81695,set_tempo,,,,,125,1,0,,600000,,,,,,,
81705,note_on,,,,,45,0,1,,,,,0,,,66,0
81715,control_change,,,,,10,0,1,,,,,0,64,0,,
81720,note_on,,,,,0,0,2,,,,,0,,,32,44
81720,note_on,,,,,5,0,1,,,,,0,,,75,0
81720,control_change,,,,,0,0,1,,,,,0,64,96,,
81720,note_on,,,,,0,0,1,,,,,0,,,76,48
81720,note_on,,,,,180,0,2,,,,,0,,,35,0
81780,note_on,,,,,60,0,1,,,,,0,,,74,43
81810,note_on,,,,,30,0,1,,,,,0,,,74,0
81810,note_on,,,,,0,0,1,,,,,0,,,71,40
81840,note_on,,,,,30,0,1,,,,,0,,,71,0
81840,note_on,,,,,0,0,1,,,,,0,,,64,38
81885,note_on,,,,,45,0,1,,,,,0,,,64,0
81895,control_change,,,,,10,0,1,,,,,0,64,0,,
81900,note_on,,,,,5,0,1,,,,,0,,,76,0
81900,control_change,,,,,0,0,1,,,,,0,64,95,,
81900,note_on,,,,,0,0,1,,,,,0,,,73,41
81900,note_on,,,,,0,0,2,,,,,0,,,33,40
81900,note_on,,,,,180,0,2,,,,,0,,,32,0
81935,set_tempo,,,,,240,1,0,,606060,,,,,,,
81960,note_on,,,,,60,0,1,,,,,0,,,70,44
81990,note_on,,,,,0,0,1,,,,,0,,,67,39
81990,note_on,,,,,30,0,1,,,,,0,,,70,0
82020,note_on,,,,,0,0,1,,,,,0,,,64,37
82020,note_on,,,,,30,0,1,,,,,0,,,67,0
82065,note_on,,,,,45,0,1,,,,,0,,,64,0
82065,note_on,,,,,0,0,1,,,,,0,,,73,0
82065,note_on,,,,,165,0,2,,,,,0,,,33,0
82075,control_change,,,,,10,0,1,,,,,0,64,0,,
82080,control_change,,,,,5,0,1,,,,,0,64,95,,
82080,note_on,,,,,0,0,1,,,,,0,,,74,40
82080,note_on,,,,,15,0,2,,,,,0,,,30,40
82140,note_on,,,,,60,0,1,,,,,0,,,72,41
82170,note_on,,,,,0,0,1,,,,,0,,,69,40
82170,note_on,,,,,30,0,1,,,,,0,,,72,0
82190,set_tempo,,,,,255,1,0,,618556,,,,,,,
82200,note_on,,,,,0,0,1,,,,,0,,,62,37
82200,note_on,,,,,30,0,1,,,,,0,,,69,0
82230,note_on,,,,,30,0,1,,,,,0,,,62,0
82245,note_on,,,,,15,0,1,,,,,0,,,74,0
82255,control_change,,,,,10,0,1,,,,,0,64,0,,
82260,note_on,,,,,0,0,2,,,,,0,,,31,47
82260,note_on,,,,,180,0,2,,,,,0,,,30,0
82260,control_change,,,,,5,0,1,,,,,0,64,95,,
82260,note_on,,,,,0,0,1,,,,,0,,,74,41
82320,note_on,,,,,60,0,1,,,,,0,,,71,39
82350,note_on,,,,,30,0,1,,,,,0,,,71,0
82350,note_on,,,,,0,0,1,,,,,0,,,67,35
82380,note_on,,,,,30,0,1,,,,,0,,,67,0
82380,note_on,,,,,0,0,1,,,,,0,,,62,35
82410,note_on,,,,,30,0,1,,,,,0,,,62,0
82420,set_tempo,,,,,230,1,0,,634920,,,,,,,
82425,note_on,,,,,15,0,1,,,,,0,,,74,0
82435,control_change,,,,,10,0,1,,,,,0,64,0,,
82440,note_on,,,,,0,0,1,,,,,0,,,74,43
82440,control_change,,,,,5,0,1,,,,,0,64,96,,
82440,note_on,,,,,0,0,2,,,,,0,,,33,45
82440,note_on,,,,,180,0,2,,,,,0,,,31,0
82455,set_tempo,,,,,35,1,0,,638297,,,,,,,
82500,note_on,,,,,60,0,1,,,,,0,,,66,33
82530,note_on,,,,,30,0,1,,,,,0,,,66,0
82530,note_on,,,,,0,0,1,,,,,0,,,69,37
82560,note_on,,,,,30,0,1,,,,,0,,,69,0
82560,note_on,,,,,0,0,1,,,,,0,,,71,41
82590,note_on,,,,,30,0,1,,,,,0,,,71,0
82590,note_on,,,,,0,0,1,,,,,0,,,69,43
82605,note_on,,,,,165,0,2,,,,,0,,,33,0
82615,note_on,,,,,25,0,1,,,,,0,,,69,0
82615,control_change,,,,,0,0,1,,,,,0,64,0,,
82620,note_on,,,,,5,0,1,,,,,0,,,74,0
82620,note_on,,,,,0,0,1,,,,,0,,,73,41
82620,control_change,,,,,0,0,1,,,,,0,64,96,,
82620,note_on,,,,,15,0,2,,,,,0,,,33,39
82680,note_on,,,,,60,0,1,,,,,0,,,71,42
82710,note_on,,,,,30,0,1,,,,,0,,,71,0
82710,note_on,,,,,0,0,1,,,,,0,,,67,40
82720,set_tempo,,,,,265,1,0,,645161,,,,,,,
82740,note_on,,,,,0,0,1,,,,,0,,,66,37
82740,note_on,,,,,30,0,1,,,,,0,,,67,0
82770,note_on,,,,,30,0,1,,,,,0,,,66,0
82770,note_on,,,,,0,0,1,,,,,0,,,67,34
82785,note_on,,,,,165,0,2,,,,,0,,,33,0
82785,note_on,,,,,15,0,1,,,,,0,,,73,0
82795,note_on,,,,,10,0,1,,,,,0,,,67,0
82795,control_change,,,,,0,0,1,,,,,0,64,1,,
82800,note_on,,,,,0,0,1,,,,,0,,,74,38
82800,control_change,,,,,5,0,1,,,,,0,64,95,,
82800,note_on,,,,,15,0,2,,,,,0,,,33,37
82860,note_on,,,,,60,0,1,,,,,0,,,66,32
82890,note_on,,,,,0,0,1,,,,,0,,,69,32
82890,note_on,,,,,30,0,1,,,,,0,,,66,0
82900,set_tempo,,,,,180,1,0,,655737,,,,,,,
82920,note_on,,,,,0,0,1,,,,,0,,,71,37
82920,note_on,,,,,30,0,1,,,,,0,,,69,0
82950,note_on,,,,,0,0,1,,,,,0,,,69,39
82950,note_on,,,,,30,0,1,,,,,0,,,71,0
82965,set_tempo,,,,,65,1,0,,666666,,,,,,,
82965,note_on,,,,,165,0,2,,,,,0,,,33,0
82975,note_on,,,,,25,0,1,,,,,0,,,69,0
82980,note_on,,,,,15,0,2,,,,,0,,,33,36
82980,note_on,,,,,0,0,1,,,,,0,,,73,35
82980,note_on,,,,,5,0,1,,,,,0,,,74,0
82980,control_change,,,,,0,0,1,,,,,0,64,95,,
83030,set_tempo,,,,,65,1,0,,689655,,,,,,,
83040,note_on,,,,,60,0,1,,,,,0,,,71,41
83070,note_on,,,,,30,0,1,,,,,0,,,71,0
83070,note_on,,,,,0,0,1,,,,,0,,,67,39
83100,note_on,,,,,30,0,1,,,,,0,,,67,0
83100,note_on,,,,,0,0,1,,,,,0,,,66,36
83100,set_tempo,,,,,70,1,0,,705882,,,,,,,
83130,note_on,,,,,30,0,1,,,,,0,,,66,0
83130,note_on,,,,,0,0,1,,,,,0,,,67,34
83140,set_tempo,,,,,40,1,0,,731707,,,,,,,
83160,control_change,,,,,0,0,1,,,,,0,64,95,,
83160,note_on,,,,,0,0,1,,,,,0,,,74,33
83160,note_on,,,,,0,0,2,,,,,0,,,38,36
83160,note_on,,,,,180,0,2,,,,,0,,,33,0
83160,note_on,,,,,0,0,1,,,,,0,,,66,33
83160,note_on,,,,,0,0,1,,,,,0,,,73,0
83160,note_on,,,,,30,0,1,,,,,0,,,67,0
83185,set_tempo,,,,,45,1,0,,764331,,,,,,,
83210,set_tempo,,,,,25,1,0,,2142857,,,,,,,
83212,note_on,,,,,52,0,1,,,,,0,,,74,0
83212,note_on,,,,,52,0,2,,,,,0,,,38,0
83212,note_on,,,,,0,0,1,,,,,0,,,66,0
83220,set_tempo,,,,,10,1,0,,603015,,,,,,,
83220,note_on,,,,,8,0,1,,,,,0,,,85,46
83235,set_tempo,,,,,15,1,0,,603015,,,,,,,
83250,note_on,,,,,0,0,1,,,,,0,,,86,49
83250,note_on,,,,,30,0,1,,,,,0,,,85,0
83280,note_on,,,,,0,0,1,,,,,0,,,98,52
83280,note_on,,,,,30,0,1,,,,,0,,,86,0
83280,set_tempo,,,,,45,1,0,,585365,,,,,,,
83310,note_on,,,,,0,0,1,,,,,0,,,97,58
83310,note_on,,,,,30,0,1,,,,,0,,,98,0
83335,control_change,,,,,25,0,1,,,,,0,64,0,,
83340,note_on,,,,,5,0,1,,,,,0,,,97,0
83340,note_on,,,,,0,0,1,,,,,0,,,95,63
83340,control_change,,,,,0,0,1,,,,,0,64,96,,
83365,set_tempo,,,,,85,1,0,,574162,,,,,,,
83370,note_on,,,,,0,0,1,,,,,0,,,93,56
83370,note_on,,,,,30,0,1,,,,,0,,,95,0
83400,note_on,,,,,0,0,1,,,,,0,,,91,53
83400,note_on,,,,,30,0,1,,,,,0,,,93,0
83430,note_on,,,,,0,0,1,,,,,0,,,90,56
83430,note_on,,,,,30,0,1,,,,,0,,,91,0
83460,set_tempo,,,,,95,1,0,,566037,,,,,,,
83460,note_on,,,,,0,0,1,,,,,0,,,88,60
83460,note_on,,,,,30,0,1,,,,,0,,,90,0
83490,note_on,,,,,30,0,1,,,,,0,,,88,0
83490,note_on,,,,,0,0,1,,,,,0,,,86,63
83515,control_change,,,,,25,0,1,,,,,0,64,0,,
83520,note_on,,,,,5,0,1,,,,,0,,,86,0
83520,note_on,,,,,0,0,1,,,,,0,,,85,65
83545,set_tempo,,,,,85,1,0,,555555,,,,,,,
83550,note_on,,,,,30,0,1,,,,,0,,,85,0
83550,note_on,,,,,0,0,1,,,,,0,,,83,67
83560,set_tempo,,,,,15,1,0,,552995,,,,,,,
83580,note_on,,,,,0,0,1,,,,,0,,,81,72
83580,note_on,,,,,30,0,1,,,,,0,,,83,0
83610,note_on,,,,,0,0,1,,,,,0,,,79,74
83610,note_on,,,,,30,0,1,,,,,0,,,81,0
83640,note_on,,,,,30,0,1,,,,,0,,,79,0
83640,note_on,,,,,0,0,1,,,,,0,,,78,76
83670,note_on,,,,,30,0,1,,,,,0,,,78,0
83670,note_on,,,,,0,0,1,,,,,0,,,76,79
83680,set_tempo,,,,,120,1,0,,538116,,,,,,,
83700,note_on,,,,,30,0,1,,,,,0,,,76,0
83700,note_on,,,,,0,0,1,,,,,0,,,74,81
83730,note_on,,,,,30,0,1,,,,,0,,,74,0
83730,note_on,,,,,0,0,1,,,,,0,,,73,84
83760,note_on,,,,,30,0,1,,,,,0,,,73,0
83760,note_on,,,,,0,0,1,,,,,0,,,71,88
83790,set_tempo,,,,,110,1,0,,530973,,,,,,,
83790,note_on,,,,,30,0,1,,,,,0,,,71,0
83790,note_on,,,,,0,0,1,,,,,0,,,69,90
83815,set_tempo,,,,,25,1,0,,521739,,,,,,,
83820,note_on,,,,,30,0,1,,,,,0,,,69,0
83820,note_on,,,,,0,0,1,,,,,0,,,67,92
83850,note_on,,,,,30,0,1,,,,,0,,,67,0
83850,note_on,,,,,0,0,1,,,,,0,,,66,96
83865,set_tempo,,,,,50,1,0,,515021,,,,,,,
83880,note_on,,,,,30,0,1,,,,,0,,,66,0
83880,note_on,,,,,0,0,1,,,,,0,,,76,97
83880,note_on,,,,,668,0,2,,,,,0,,,64,92
83910,note_on,,,,,0,0,2,,,,,0,,,62,94
83910,note_on,,,,,30,0,1,,,,,0,,,76,0
83910,note_on,,,,,0,0,1,,,,,0,,,74,102
83910,note_on,,,,,30,0,2,,,,,0,,,64,0
83940,note_on,,,,,0,0,2,,,,,0,,,61,95
83940,note_on,,,,,30,0,2,,,,,0,,,62,0
83940,note_on,,,,,0,0,1,,,,,0,,,73,106
83940,note_on,,,,,30,0,1,,,,,0,,,74,0
83940,set_tempo,,,,,75,1,0,,506329,,,,,,,
83970,note_on,,,,,0,0,1,,,,,0,,,71,108
83970,note_on,,,,,30,0,1,,,,,0,,,73,0
83970,note_on,,,,,0,0,2,,,,,0,,,59,97
83970,note_on,,,,,30,0,2,,,,,0,,,61,0
84000,note_on,,,,,30,0,2,,,,,0,,,59,0
84000,note_on,,,,,30,0,1,,,,,0,,,71,0
84000,note_on,,,,,0,0,1,,,,,0,,,69,112
84000,note_on,,,,,0,0,2,,,,,0,,,57,100
84030,note_on,,,,,30,0,2,,,,,0,,,57,0
84030,note_on,,,,,0,0,2,,,,,0,,,55,104
84030,note_on,,,,,0,0,1,,,,,0,,,67,116
84030,note_on,,,,,30,0,1,,,,,0,,,69,0
84060,note_on,,,,,30,0,2,,,,,0,,,55,0
84060,note_on,,,,,0,0,2,,,,,0,,,54,106
84060,set_tempo,,,,,120,1,0,,497925,,,,,,,
84060,note_on,,,,,30,0,1,,,,,0,,,67,0
84060,note_on,,,,,0,0,1,,,,,0,,,66,118
84090,note_on,,,,,30,0,1,,,,,0,,,66,0
84090,note_on,,,,,0,0,2,,,,,0,,,52,110
84090,note_on,,,,,30,0,2,,,,,0,,,54,0
84090,note_on,,,,,0,0,1,,,,,0,,,64,121
84120,note_on,,,,,0,0,2,,,,,0,,,50,113
84120,note_on,,,,,30,0,2,,,,,0,,,52,0
84120,note_on,,,,,30,0,1,,,,,0,,,64,0
84120,note_on,,,,,0,0,1,,,,,0,,,62,126
84150,note_on,,,,,0,0,2,,,,,0,,,49,117
84150,note_on,,,,,30,0,2,,,,,0,,,50,0
84150,note_on,,,,,0,0,1,,,,,0,,,61,127
84150,note_on,,,,,30,0,1,,,,,0,,,62,0
84175,set_tempo,,,,,115,1,0,,491803,,,,,,,
84180,note_on,,,,,0,0,2,,,,,0,,,47,118
84180,note_on,,,,,0,0,1,,,,,0,,,59,127
84180,note_on,,,,,30,0,2,,,,,0,,,49,0
84180,note_on,,,,,30,0,1,,,,,0,,,61,0
84210,note_on,,,,,30,0,1,,,,,0,,,59,0
84210,note_on,,,,,0,0,1,,,,,0,,,57,127
84210,note_on,,,,,0,0,2,,,,,0,,,45,122
84210,note_on,,,,,30,0,2,,,,,0,,,47,0
84215,set_tempo,,,,,40,1,0,,493827,,,,,,,
84240,note_on,,,,,30,0,1,,,,,0,,,57,0
84240,note_on,,,,,0,0,1,,,,,0,,,56,127
84240,control_change,,,,,0,0,1,,,,,0,64,95,,
84240,note_on,,,,,30,0,2,,,,,0,,,45,0
84240,note_on,,,,,0,0,2,,,,,0,,,44,126
84280,set_tempo,,,,,65,1,0,,495867,,,,,,,
84285,set_tempo,,,,,5,1,0,,508474,,,,,,,
84290,set_tempo,,,,,5,1,0,,510638,,,,,,,
84300,note_on,,,,,60,0,1,,,,,0,,,56,0
84300,note_on,,,,,60,0,2,,,,,0,,,44,0
84320,set_tempo,,,,,30,1,0,,533333,,,,,,,
84330,note_on,,,,,0,0,2,,,,,0,,,52,126
84330,note_on,,,,,0,0,1,,,,,0,,,64,127
84330,note_on,,,,,30,0,2,,,,,0,,,44,126
84330,note_on,,,,,0,0,2,,,,,0,,,47,126
84330,note_on,,,,,0,0,1,,,,,0,,,58,127
84330,note_on,,,,,30,0,1,,,,,0,,,56,127
84330,note_on,,,,,0,0,2,,,,,0,,,50,126
84330,note_on,,,,,0,0,1,,,,,0,,,62,127
84340,set_tempo,,,,,20,1,0,,535714,,,,,,,
84345,set_tempo,,,,,5,1,0,,552995,,,,,,,
84355,note_on,,,,,0,0,1,,,,,0,,,58,0
84355,note_on,,,,,25,0,2,,,,,0,,,52,0
84355,set_tempo,,,,,10,1,0,,555555,,,,,,,
84355,note_on,,,,,0,0,2,,,,,0,,,50,0
84355,note_on,,,,,0,0,2,,,,,0,,,47,0
84355,note_on,,,,,0,0,2,,,,,0,,,44,0
84355,note_on,,,,,25,0,1,,,,,0,,,64,0
84355,note_on,,,,,0,0,1,,,,,0,,,56,0
84355,note_on,,,,,0,0,1,,,,,0,,,62,0
84360,note_on,,,,,0,0,2,,,,,0,,,44,127
84360,note_on,,,,,0,0,2,,,,,0,,,47,127
84360,note_on,,,,,0,0,1,,,,,0,,,56,127
84360,note_on,,,,,0,0,1,,,,,0,,,59,127
84360,note_on,,,,,0,0,1,,,,,0,,,62,127
84360,note_on,,,,,0,0,2,,,,,0,,,50,127
84360,note_on,,,,,5,0,2,,,,,0,,,52,127
84360,note_on,,,,,5,0,1,,,,,0,,,64,127
84370,set_tempo,,,,,15,1,0,,585365,,,,,,,
84395,set_tempo,,,,,25,1,0,,612244,,,,,,,
84413,set_tempo,,,,,18,1,0,,615384,,,,,,,
84900,control_change,,,,,540,0,1,,,,,0,64,0,,
84915,note_on,,,,,0,0,2,,,,,0,,,50,0
84915,note_on,,,,,555,0,2,,,,,0,,,44,0
84915,note_on,,,,,0,0,2,,,,,0,,,52,0
84915,note_on,,,,,0,0,2,,,,,0,,,47,0
84915,note_on,,,,,0,0,1,,,,,0,,,64,0
84915,note_on,,,,,0,0,1,,,,,0,,,59,0
84915,note_on,,,,,0,0,1,,,,,0,,,62,0
84915,note_on,,,,,15,0,1,,,,,0,,,56,0
84925,set_tempo,,,,,512,1,0,,615384,,,,,,,
84930,set_tempo,,,,,5,1,0,,612244,,,,,,,
84960,note_on,,,,,45,0,2,,,,,0,,,43,121
84960,control_change,,,,,0,0,1,,,,,0,64,96,,
84960,note_on,,,,,45,0,1,,,,,0,,,55,127
85010,set_tempo,,,,,80,1,0,,600000,,,,,,,
85020,note_on,,,,,60,0,2,,,,,0,,,43,0
85020,note_on,,,,,60,0,1,,,,,0,,,55,0
85050,note_on,,,,,0,0,2,,,,,0,,,53,103
85050,note_on,,,,,0,0,2,,,,,0,,,50,103
85050,note_on,,,,,0,0,2,,,,,0,,,47,103
85050,note_on,,,,,0,0,1,,,,,0,,,59,127
85050,note_on,,,,,30,0,2,,,,,0,,,43,103
85050,note_on,,,,,0,0,1,,,,,0,,,65,127
85050,note_on,,,,,0,0,1,,,,,0,,,62,127
85050,note_on,,,,,30,0,1,,,,,0,,,55,127
85075,note_on,,,,,0,0,2,,,,,0,,,47,0
85075,note_on,,,,,0,0,1,,,,,0,,,55,0
85075,note_on,,,,,0,0,2,,,,,0,,,43,0
85075,note_on,,,,,25,0,1,,,,,0,,,65,0
85075,note_on,,,,,25,0,2,,,,,0,,,53,0
85075,note_on,,,,,0,0,1,,,,,0,,,59,0
85075,note_on,,,,,0,0,1,,,,,0,,,62,0
85075,note_on,,,,,0,0,2,,,,,0,,,50,0
85080,note_on,,,,,5,0,2,,,,,0,,,43,101
85080,note_on,,,,,5,0,1,,,,,0,,,55,127
85080,note_on,,,,,0,0,1,,,,,0,,,62,127
85080,note_on,,,,,0,0,1,,,,,0,,,59,127
85080,note_on,,,,,0,0,2,,,,,0,,,53,101
85080,note_on,,,,,0,0,2,,,,,0,,,50,101
85080,note_on,,,,,0,0,2,,,,,0,,,47,101
85080,note_on,,,,,0,0,1,,,,,0,,,65,127
85090,set_tempo,,,,,80,1,0,,585365,,,,,,,
85145,set_tempo,,,,,55,1,0,,576923,,,,,,,
85210,set_tempo,,,,,65,1,0,,566037,,,,,,,
85280,set_tempo,,,,,70,1,0,,555555,,,,,,,
85305,note_on,,,,,0,0,2,,,,,0,,,50,0
85305,note_on,,,,,0,0,2,,,,,0,,,47,0
85305,note_on,,,,,0,0,2,,,,,0,,,43,0
85305,note_on,,,,,225,0,2,,,,,0,,,53,0
85305,note_on,,,,,0,0,1,,,,,0,,,55,0
85305,note_on,,,,,0,0,1,,,,,0,,,62,0
85305,note_on,,,,,0,0,1,,,,,0,,,59,0
85305,note_on,,,,,225,0,1,,,,,0,,,65,0
85315,control_change,,,,,10,0,1,,,,,0,64,0,,
85320,control_change,,,,,0,0,1,,,,,0,64,96,,
85320,note_on,,,,,5,0,1,,,,,0,,,54,127
85320,note_on,,,,,15,0,2,,,,,0,,,30,120
85320,note_on,,,,,0,0,2,,,,,0,,,42,120
85370,set_tempo,,,,,90,1,0,,545454,,,,,,,
85380,note_on,,,,,60,0,1,,,,,0,,,54,0
85380,note_on,,,,,60,0,2,,,,,0,,,42,0
85380,note_on,,,,,0,0,2,,,,,0,,,30,0
85410,note_on,,,,,0,0,2,,,,,0,,,54,108
85410,note_on,,,,,0,0,2,,,,,0,,,45,108
85410,note_on,,,,,0,0,2,,,,,0,,,50,108
85410,note_on,,,,,30,0,2,,,,,0,,,42,108
85410,note_on,,,,,0,0,1,,,,,0,,,57,127
85410,note_on,,,,,0,0,1,,,,,0,,,62,127
85410,note_on,,,,,30,0,1,,,,,0,,,66,127
85435,note_on,,,,,0,0,1,,,,,0,,,66,0
85435,note_on,,,,,0,0,1,,,,,0,,,62,0
85435,note_on,,,,,25,0,1,,,,,0,,,57,0
85435,note_on,,,,,0,0,2,,,,,0,,,42,0
85435,note_on,,,,,25,0,2,,,,,0,,,54,0
85435,note_on,,,,,0,0,2,,,,,0,,,45,0
85435,note_on,,,,,0,0,2,,,,,0,,,50,0
85440,note_on,,,,,0,0,1,,,,,0,,,62,127
85440,note_on,,,,,5,0,2,,,,,0,,,42,105
85440,note_on,,,,,5,0,1,,,,,0,,,57,127
85440,note_on,,,,,0,0,2,,,,,0,,,50,105
85440,note_on,,,,,0,0,2,,,,,0,,,54,105
85440,note_on,,,,,0,0,1,,,,,0,,,66,127
85440,note_on,,,,,0,0,2,,,,,0,,,45,105
85470,set_tempo,,,,,100,1,0,,535714,,,,,,,
85565,set_tempo,,,,,95,1,0,,528634,,,,,,,
85625,set_tempo,,,,,60,1,0,,515021,,,,,,,
85665,note_on,,,,,0,0,2,,,,,0,,,50,0
85665,note_on,,,,,225,0,2,,,,,0,,,54,0
85665,note_on,,,,,225,0,1,,,,,0,,,66,0
85665,note_on,,,,,0,0,1,,,,,0,,,62,0
85665,note_on,,,,,0,0,1,,,,,0,,,57,0
85665,note_on,,,,,0,0,2,,,,,0,,,45,0
85665,control_change,,,,,0,0,1,,,,,0,64,0,,
85665,note_on,,,,,0,0,2,,,,,0,,,42,0
85680,note_on,,,,,15,0,1,,,,,0,,,52,127
85680,control_change,,,,,0,0,1,,,,,0,64,95,,
85680,note_on,,,,,0,0,2,,,,,0,,,40,116
85680,note_on,,,,,15,0,2,,,,,0,,,28,116
85740,note_on,,,,,60,0,1,,,,,0,,,52,0
85740,note_on,,,,,0,0,2,,,,,0,,,28,0
85740,note_on,,,,,60,0,2,,,,,0,,,40,0
85770,note_on,,,,,0,0,1,,,,,0,,,62,127
85770,note_on,,,,,0,0,1,,,,,0,,,68,127
85770,note_on,,,,,30,0,1,,,,,0,,,59,127
85770,note_on,,,,,0,0,2,,,,,0,,,52,102
85770,note_on,,,,,30,0,2,,,,,0,,,40,102
85770,note_on,,,,,0,0,2,,,,,0,,,50,102
85770,note_on,,,,,0,0,2,,,,,0,,,47,102
85795,note_on,,,,,0,0,1,,,,,0,,,59,0
85795,note_on,,,,,0,0,1,,,,,0,,,62,0
85795,note_on,,,,,25,0,1,,,,,0,,,68,0
85795,note_on,,,,,25,0,2,,,,,0,,,52,0
85795,note_on,,,,,0,0,2,,,,,0,,,50,0
85795,note_on,,,,,0,0,2,,,,,0,,,47,0
85795,note_on,,,,,0,0,2,,,,,0,,,40,0
85800,note_on,,,,,0,0,2,,,,,0,,,52,100
85800,note_on,,,,,0,0,2,,,,,0,,,47,100
85800,note_on,,,,,5,0,2,,,,,0,,,40,100
85800,note_on,,,,,5,0,1,,,,,0,,,59,127
85800,note_on,,,,,0,0,1,,,,,0,,,62,127
85800,note_on,,,,,0,0,1,,,,,0,,,68,127
85800,note_on,,,,,0,0,2,,,,,0,,,50,100
85860,control_change,,,,,60,0,1,,,,,0,64,0,,
85905,note_on,,,,,0,0,1,,,,,0,,,59,0
85905,note_on,,,,,45,0,1,,,,,0,,,68,0
85905,note_on,,,,,0,0,2,,,,,0,,,50,0
85905,note_on,,,,,0,0,2,,,,,0,,,40,0
85905,note_on,,,,,105,0,2,,,,,0,,,52,0
85905,note_on,,,,,0,0,1,,,,,0,,,62,0
85905,note_on,,,,,0,0,2,,,,,0,,,47,0
85920,note_on,,,,,15,0,2,,,,,0,,,52,103
85920,note_on,,,,,15,0,1,,,,,0,,,62,127
85920,note_on,,,,,0,0,1,,,,,0,,,68,127
85920,note_on,,,,,0,0,1,,,,,0,,,71,127
85965,note_on,,,,,45,0,1,,,,,0,,,71,0
85965,note_on,,,,,45,0,2,,,,,0,,,52,0
85965,note_on,,,,,0,0,1,,,,,0,,,68,0
85965,note_on,,,,,0,0,1,,,,,0,,,62,0
85980,note_on,,,,,15,0,2,,,,,0,,,52,107
85980,note_on,,,,,15,0,1,,,,,0,,,68,127
85980,note_on,,,,,0,0,1,,,,,0,,,71,127
85980,note_on,,,,,0,0,1,,,,,0,,,74,127
86025,note_on,,,,,45,0,2,,,,,0,,,52,0
86025,note_on,,,,,0,0,1,,,,,0,,,68,0
86025,note_on,,,,,0,0,1,,,,,0,,,71,0
86025,note_on,,,,,45,0,1,,,,,0,,,74,0
86040,note_on,,,,,0,0,1,,,,,0,,,80,127
86040,note_on,,,,,0,0,1,,,,,0,,,74,127
86040,set_tempo,,,,,415,1,0,,515021,,,,,,,
86040,note_on,,,,,15,0,1,,,,,0,,,71,127
86040,note_on,,,,,15,0,2,,,,,0,,,52,112
86045,set_tempo,,,,,5,1,0,,517241,,,,,,,
86085,note_on,,,,,0,0,1,,,,,0,,,74,0
86085,note_on,,,,,0,0,1,,,,,0,,,71,0
86085,note_on,,,,,45,0,2,,,,,0,,,52,0
86085,note_on,,,,,45,0,1,,,,,0,,,80,0
86085,set_tempo,,,,,40,1,0,,526315,,,,,,,
86100,note_on,,,,,15,0,2,,,,,0,,,64,114
86100,note_on,,,,,0,0,1,,,,,0,,,83,127
86100,note_on,,,,,0,0,1,,,,,0,,,80,127
86100,note_on,,,,,15,0,1,,,,,0,,,74,127
86130,set_tempo,,,,,45,1,0,,542986,,,,,,,
86145,note_on,,,,,45,0,2,,,,,0,,,64,0
86145,note_on,,,,,0,0,1,,,,,0,,,74,0
86145,note_on,,,,,0,0,1,,,,,0,,,80,0
86145,note_on,,,,,45,0,1,,,,,0,,,83,0
86160,note_on,,,,,0,0,1,,,,,0,,,86,127
86160,note_on,,,,,0,0,1,,,,,0,,,83,127
86160,note_on,,,,,15,0,1,,,,,0,,,80,127
86160,note_on,,,,,15,0,2,,,,,0,,,64,120
86190,set_tempo,,,,,60,1,0,,558139,,,,,,,
86200,set_tempo,,,,,10,1,0,,560747,,,,,,,
86205,set_tempo,,,,,5,1,0,,585365,,,,,,,
86205,note_on,,,,,45,0,1,,,,,0,,,86,0
86205,note_on,,,,,0,0,1,,,,,0,,,80,0
86205,note_on,,,,,0,0,1,,,,,0,,,83,0
86205,note_on,,,,,45,0,2,,,,,0,,,64,0
86210,set_tempo,,,,,5,1,0,,588235,,,,,,,
86215,set_tempo,,,,,5,1,0,,606060,,,,,,,
86220,note_on,,,,,15,0,2,,,,,0,,,64,124
86220,note_on,,,,,0,0,1,,,,,0,,,92,127
86220,note_on,,,,,15,0,1,,,,,0,,,83,127
86220,note_on,,,,,0,0,1,,,,,0,,,86,127
86225,set_tempo,,,,,10,1,0,,615384,,,,,,,
86240,set_tempo,,,,,15,1,0,,655737,,,,,,,
86265,note_on,,,,,45,0,1,,,,,0,,,92,0
86265,note_on,,,,,0,0,1,,,,,0,,,86,0
86265,note_on,,,,,0,0,1,,,,,0,,,83,0
86265,note_on,,,,,45,0,2,,,,,0,,,64,0
86265,set_tempo,,,,,25,1,0,,693641,,,,,,,
86280,note_on,,,,,0,0,1,,,,,0,,,86,127
86280,note_on,,,,,0,0,1,,,,,0,,,92,127
86280,note_on,,,,,15,0,1,,,,,0,,,76,127
86280,note_on,,,,,0,0,1,,,,,0,,,95,127
86290,set_tempo,,,,,25,1,0,,740740,,,,,,,
86305,set_tempo,,,,,15,1,0,,810810,,,,,,,
86325,note_on,,,,,45,0,1,,,,,0,,,95,0
86325,set_tempo,,,,,20,1,0,,851063,,,,,,,
86325,note_on,,,,,0,0,1,,,,,0,,,76,0
86325,note_on,,,,,0,0,1,,,,,0,,,86,0
86325,note_on,,,,,0,0,1,,,,,0,,,92,0
86340,note_on,,,,,0,0,1,,,,,0,,,98,127
86340,note_on,,,,,0,0,1,,,,,0,,,92,127
86340,note_on,,,,,0,0,1,,,,,0,,,95,127
86340,note_on,,,,,15,0,1,,,,,0,,,76,127
86340,set_tempo,,,,,15,1,0,,857142,,,,,,,
86345,set_tempo,,,,,5,1,0,,930232,,,,,,,
86355,set_tempo,,,,,10,1,0,,3000000,,,,,,,
86385,set_tempo,,,,,30,1,0,,2926829,,,,,,,
86385,note_on,,,,,45,0,1,,,,,0,,,98,0
86385,note_on,,,,,0,0,1,,,,,0,,,76,0
86385,note_on,,,,,0,0,1,,,,,0,,,92,0
86385,note_on,,,,,0,0,1,,,,,0,,,95,0
86400,control_change,,,,,15,0,1,,,,,0,64,95,,
86400,set_tempo,,,,,15,1,0,,655737,,,,,,,
86400,note_on,,,,,0,0,1,,,,,0,,,76,54
86400,note_on,,,,,135,0,2,,,,,0,,,44,40
86405,set_tempo,,,,,5,1,0,,634920,,,,,,,
86460,note_on,,,,,60,0,1,,,,,0,,,64,48
86480,set_tempo,,,,,75,1,0,,625000,,,,,,,
86490,note_on,,,,,0,0,1,,,,,0,,,71,44
86490,note_on,,,,,30,0,1,,,,,0,,,64,0
86520,note_on,,,,,30,0,1,,,,,0,,,71,0
86520,note_on,,,,,0,0,1,,,,,0,,,74,41
86525,set_tempo,,,,,45,1,0,,612244,,,,,,,
86565,note_on,,,,,45,0,1,,,,,0,,,74,0
86575,control_change,,,,,10,0,1,,,,,0,64,0,,
86580,control_change,,,,,0,0,1,,,,,0,64,95,,
86580,note_on,,,,,5,0,1,,,,,0,,,76,0
86580,note_on,,,,,0,0,2,,,,,0,,,40,42
86580,note_on,,,,,180,0,2,,,,,0,,,44,0
86580,note_on,,,,,0,0,1,,,,,0,,,77,51
86630,set_tempo,,,,,105,1,0,,603015,,,,,,,
86640,note_on,,,,,60,0,1,,,,,0,,,68,42
86670,note_on,,,,,30,0,1,,,,,0,,,68,0
86670,note_on,,,,,0,0,1,,,,,0,,,71,40
86700,note_on,,,,,0,0,1,,,,,0,,,74,40
86700,note_on,,,,,30,0,1,,,,,0,,,71,0
86745,note_on,,,,,45,0,1,,,,,0,,,74,0
86755,control_change,,,,,10,0,1,,,,,0,64,0,,
86755,set_tempo,,,,,125,1,0,,594059,,,,,,,
86760,note_on,,,,,180,0,2,,,,,0,,,40,0
86760,control_change,,,,,0,0,1,,,,,0,64,95,,
86760,note_on,,,,,0,0,2,,,,,0,,,45,44
86760,note_on,,,,,0,0,1,,,,,0,,,76,46
86760,note_on,,,,,5,0,1,,,,,0,,,77,0
86820,note_on,,,,,60,0,1,,,,,0,,,67,42
86850,note_on,,,,,30,0,1,,,,,0,,,67,0
86850,note_on,,,,,0,0,1,,,,,0,,,69,46
86880,note_on,,,,,30,0,1,,,,,0,,,69,0
86880,note_on,,,,,0,0,1,,,,,0,,,74,51
86895,set_tempo,,,,,140,1,0,,585365,,,,,,,
86925,note_on,,,,,45,0,1,,,,,0,,,74,0
86935,control_change,,,,,10,0,1,,,,,0,64,0,,
86940,note_on,,,,,180,0,2,,,,,0,,,45,0
86940,note_on,,,,,0,0,2,,,,,0,,,33,46
86940,note_on,,,,,5,0,1,,,,,0,,,76,0
86940,control_change,,,,,0,0,1,,,,,0,64,95,,
86940,note_on,,,,,0,0,1,,,,,0,,,81,50
86980,set_tempo,,,,,85,1,0,,576923,,,,,,,
87000,note_on,,,,,60,0,1,,,,,0,,,67,53
87030,note_on,,,,,30,0,1,,,,,0,,,67,0
87030,note_on,,,,,0,0,1,,,,,0,,,69,51
87060,note_on,,,,,30,0,1,,,,,0,,,69,0
87060,note_on,,,,,0,0,1,,,,,0,,,73,48
87075,set_tempo,,,,,95,1,0,,571428,,,,,,,
87105,note_on,,,,,165,0,2,,,,,0,,,33,0
87105,note_on,,,,,0,0,1,,,,,0,,,81,0
87105,note_on,,,,,45,0,1,,,,,0,,,73,0
87115,control_change,,,,,10,0,1,,,,,0,64,0,,
87120,control_change,,,,,5,0,1,,,,,0,64,95,,
87120,note_on,,,,,0,0,1,,,,,0,,,78,59
87120,note_on,,,,,15,0,2,,,,,0,,,34,49
87125,set_tempo,,,,,50,1,0,,579710,,,,,,,
87175,set_tempo,,,,,50,1,0,,579710,,,,,,,
87180,note_on,,,,,60,0,1,,,,,0,,,76,53
87210,note_on,,,,,30,0,1,,,,,0,,,76,0
87210,note_on,,,,,0,0,1,,,,,0,,,73,50
87240,note_on,,,,,30,0,1,,,,,0,,,73,0
87240,note_on,,,,,0,0,1,,,,,0,,,66,45
87285,note_on,,,,,45,0,1,,,,,0,,,66,0
87295,control_change,,,,,10,0,1,,,,,0,64,0,,
87300,note_on,,,,,180,0,2,,,,,0,,,34,0
87300,note_on,,,,,0,0,1,,,,,0,,,75,54
87300,control_change,,,,,0,0,1,,,,,0,64,95,,
87300,note_on,,,,,5,0,1,,,,,0,,,78,0
87300,note_on,,,,,0,0,2,,,,,0,,,35,46
87360,note_on,,,,,60,0,1,,,,,0,,,72,50
87380,set_tempo,,,,,205,1,0,,594059,,,,,,,
87390,note_on,,,,,30,0,1,,,,,0,,,72,0
87390,note_on,,,,,0,0,1,,,,,0,,,69,47
87420,note_on,,,,,30,0,1,,,,,0,,,69,0
87420,note_on,,,,,0,0,1,,,,,0,,,66,44
87465,note_on,,,,,45,0,1,,,,,0,,,66,0
87475,control_change,,,,,10,0,1,,,,,0,64,0,,
87480,note_on,,,,,180,0,2,,,,,0,,,35,0
87480,note_on,,,,,5,0,1,,,,,0,,,75,0
87480,note_on,,,,,0,0,1,,,,,0,,,76,48
87480,control_change,,,,,0,0,1,,,,,0,64,96,,
87480,note_on,,,,,0,0,2,,,,,0,,,32,42
87540,note_on,,,,,60,0,1,,,,,0,,,74,43
87570,note_on,,,,,0,0,1,,,,,0,,,71,40
87570,note_on,,,,,30,0,1,,,,,0,,,74,0
87590,set_tempo,,,,,210,1,0,,603015,,,,,,,
87600,note_on,,,,,0,0,1,,,,,0,,,64,38
87600,note_on,,,,,30,0,1,,,,,0,,,71,0
87645,note_on,,,,,45,0,1,,,,,0,,,64,0
87655,control_change,,,,,10,0,1,,,,,0,64,0,,
87660,note_on,,,,,5,0,1,,,,,0,,,76,0
87660,control_change,,,,,0,0,1,,,,,0,64,95,,
87660,note_on,,,,,0,0,1,,,,,0,,,73,41
87660,note_on,,,,,180,0,2,,,,,0,,,32,0
87660,note_on,,,,,0,0,2,,,,,0,,,33,39
87720,note_on,,,,,60,0,1,,,,,0,,,70,44
87750,note_on,,,,,30,0,1,,,,,0,,,70,0
87750,note_on,,,,,0,0,1,,,,,0,,,67,39
87780,note_on,,,,,0,0,1,,,,,0,,,64,37
87780,note_on,,,,,30,0,1,,,,,0,,,67,0
87825,note_on,,,,,165,0,2,,,,,0,,,33,0
87825,note_on,,,,,0,0,1,,,,,0,,,73,0
87825,note_on,,,,,45,0,1,,,,,0,,,64,0
87835,control_change,,,,,10,0,1,,,,,0,64,0,,
87840,note_on,,,,,0,0,1,,,,,0,,,74,40
87840,control_change,,,,,5,0,1,,,,,0,64,95,,
87840,note_on,,,,,15,0,2,,,,,0,,,30,39
87880,set_tempo,,,,,290,1,0,,615384,,,,,,,
87900,note_on,,,,,60,0,1,,,,,0,,,72,41
87930,note_on,,,,,30,0,1,,,,,0,,,72,0
87930,note_on,,,,,0,0,1,,,,,0,,,69,40
87960,note_on,,,,,0,0,1,,,,,0,,,62,37
87960,note_on,,,,,30,0,1,,,,,0,,,69,0
87990,note_on,,,,,30,0,1,,,,,0,,,62,0
88005,note_on,,,,,15,0,1,,,,,0,,,74,0
88015,control_change,,,,,10,0,1,,,,,0,64,0,,
88020,note_on,,,,,180,0,2,,,,,0,,,30,0
88020,control_change,,,,,5,0,1,,,,,0,64,95,,
88020,note_on,,,,,0,0,1,,,,,0,,,74,41
88020,note_on,,,,,0,0,2,,,,,0,,,31,43
88080,note_on,,,,,60,0,1,,,,,0,,,71,39
88110,note_on,,,,,30,0,1,,,,,0,,,71,0
88110,note_on,,,,,0,0,1,,,,,0,,,67,35
88140,set_tempo,,,,,260,1,0,,634920,,,,,,,
88140,note_on,,,,,30,0,1,,,,,0,,,67,0
88140,note_on,,,,,0,0,1,,,,,0,,,62,35
88170,note_on,,,,,30,0,1,,,,,0,,,62,0
88185,note_on,,,,,15,0,1,,,,,0,,,74,0
88195,control_change,,,,,10,0,1,,,,,0,64,0,,
88200,note_on,,,,,0,0,1,,,,,0,,,74,43
88200,control_change,,,,,5,0,1,,,,,0,64,96,,
88200,note_on,,,,,0,0,2,,,,,0,,,33,47
88200,note_on,,,,,180,0,2,,,,,0,,,31,0
88260,note_on,,,,,60,0,1,,,,,0,,,66,33
88290,note_on,,,,,30,0,1,,,,,0,,,66,0
88290,note_on,,,,,0,0,1,,,,,0,,,69,37
88320,note_on,,,,,30,0,1,,,,,0,,,69,0
88320,note_on,,,,,0,0,1,,,,,0,,,71,41
88350,note_on,,,,,30,0,1,,,,,0,,,71,0
88350,note_on,,,,,0,0,1,,,,,0,,,69,43
88365,note_on,,,,,165,0,2,,,,,0,,,33,0
88375,note_on,,,,,25,0,1,,,,,0,,,69,0
88375,control_change,,,,,0,0,1,,,,,0,64,0,,
88380,note_on,,,,,15,0,2,,,,,0,,,33,39
88380,note_on,,,,,0,0,1,,,,,0,,,73,41
88380,control_change,,,,,0,0,1,,,,,0,64,96,,
88380,note_on,,,,,5,0,1,,,,,0,,,74,0
88385,set_tempo,,,,,245,1,0,,648648,,,,,,,
88440,note_on,,,,,60,0,1,,,,,0,,,71,42
88470,note_on,,,,,0,0,1,,,,,0,,,67,40
88470,note_on,,,,,30,0,1,,,,,0,,,71,0
88500,note_on,,,,,30,0,1,,,,,0,,,67,0
88500,note_on,,,,,0,0,1,,,,,0,,,66,37
88500,set_tempo,,,,,115,1,0,,666666,,,,,,,
88530,note_on,,,,,30,0,1,,,,,0,,,66,0
88530,note_on,,,,,0,0,1,,,,,0,,,67,34
88545,note_on,,,,,15,0,1,,,,,0,,,73,0
88545,note_on,,,,,165,0,2,,,,,0,,,33,0
88555,note_on,,,,,10,0,1,,,,,0,,,67,0
88555,control_change,,,,,0,0,1,,,,,0,64,1,,
88560,note_on,,,,,0,0,1,,,,,0,,,74,38
88560,note_on,,,,,15,0,2,,,,,0,,,33,37
88560,control_change,,,,,5,0,1,,,,,0,64,95,,
88570,set_tempo,,,,,70,1,0,,677966,,,,,,,
88605,set_tempo,,,,,35,1,0,,689655,,,,,,,
88620,note_on,,,,,60,0,1,,,,,0,,,66,32
88630,set_tempo,,,,,25,1,0,,714285,,,,,,,
88650,note_on,,,,,0,0,1,,,,,0,,,69,32
88650,note_on,,,,,30,0,1,,,,,0,,,66,0
88680,note_on,,,,,0,0,1,,,,,0,,,71,37
88680,note_on,,,,,30,0,1,,,,,0,,,69,0
88710,note_on,,,,,0,0,1,,,,,0,,,69,39
88710,note_on,,,,,30,0,1,,,,,0,,,71,0
88725,note_on,,,,,165,0,2,,,,,0,,,33,0
88735,note_on,,,,,25,0,1,,,,,0,,,69,0
88740,note_on,,,,,0,0,1,,,,,0,,,73,35
88740,control_change,,,,,0,0,1,,,,,0,64,95,,
88740,note_on,,,,,5,0,1,,,,,0,,,74,0
88740,note_on,,,,,15,0,2,,,,,0,,,33,36
88800,note_on,,,,,60,0,1,,,,,0,,,71,41
88805,set_tempo,,,,,175,1,0,,745341,,,,,,,
88810,set_tempo,,,,,5,1,0,,750000,,,,,,,
88830,set_tempo,,,,,20,1,0,,774193,,,,,,,
88830,note_on,,,,,30,0,1,,,,,0,,,71,0
88830,note_on,,,,,0,0,1,,,,,0,,,67,39
88835,set_tempo,,,,,5,1,0,,779220,,,,,,,
88860,note_on,,,,,30,0,1,,,,,0,,,67,0
88860,note_on,,,,,0,0,1,,,,,0,,,66,36
88885,set_tempo,,,,,50,1,0,,816326,,,,,,,
88890,note_on,,,,,30,0,1,,,,,0,,,66,0
88890,note_on,,,,,0,0,1,,,,,0,,,67,34
88915,set_tempo,,,,,30,1,0,,863309,,,,,,,
88920,note_on,,,,,0,0,1,,,,,0,,,73,0
88920,note_on,,,,,0,0,1,,,,,0,,,66,33
88920,note_on,,,,,0,0,1,,,,,0,,,74,33
88920,control_change,,,,,0,0,1,,,,,0,64,95,,
88920,note_on,,,,,0,0,2,,,,,0,,,38,36
88920,note_on,,,,,180,0,2,,,,,0,,,33,0
88920,note_on,,,,,30,0,1,,,,,0,,,67,0
88972,note_on,,,,,52,0,1,,,,,0,,,74,0
88972,note_on,,,,,0,0,1,,,,,0,,,66,0
88972,note_on,,,,,52,0,2,,,,,0,,,38,0
88980,note_on,,,,,8,0,1,,,,,0,,,57,40
88980,control_change,,,,,0,0,1,,,,,0,64,0,,
88980,set_tempo,,,,,65,1,0,,882352,,,,,,,
88985,set_tempo,,,,,5,1,0,,697674,,,,,,,
89040,set_tempo,,,,,55,1,0,,685714,,,,,,,
89040,note_on,,,,,60,0,1,,,,,0,,,57,0
89040,note_on,,,,,0,0,1,,,,,0,,,62,48
89050,set_tempo,,,,,10,1,0,,689655,,,,,,,
89090,set_tempo,,,,,40,1,0,,674157,,,,,,,
89100,note_on,,,,,0,0,1,,,,,0,,,66,55
89100,note_on,,,,,60,0,1,,,,,0,,,62,0
89115,set_tempo,,,,,25,1,0,,666666,,,,,,,
89145,set_tempo,,,,,30,1,0,,677966,,,,,,,
89160,note_on,,,,,0,0,1,,,,,0,,,67,65
89160,note_on,,,,,60,0,1,,,,,0,,,66,0
89185,set_tempo,,,,,40,1,0,,701754,,,,,,,
89190,set_tempo,,,,,5,1,0,,705882,,,,,,,
89220,note_on,,,,,60,0,1,,,,,0,,,67,0
89220,note_on,,,,,0,0,1,,,,,0,,,69,72
89230,set_tempo,,,,,40,1,0,,731707,,,,,,,
89275,set_tempo,,,,,45,1,0,,697674,,,,,,,
89280,note_on,,,,,308,0,2,,,,,0,,,38,73
89280,note_on,,,,,0,0,2,,,,,0,,,50,73
89280,control_change,,,,,0,0,1,,,,,0,64,96,,
89280,note_on,,,,,60,0,1,,,,,0,,,69,0
89280,note_on,,,,,0,0,1,,,,,0,,,57,72
89280,note_on,,,,,0,0,1,,,,,0,,,66,72
89280,note_on,,,,,0,0,1,,,,,0,,,69,72
89290,set_tempo,,,,,15,1,0,,689655,,,,,,,
89325,set_tempo,,,,,35,1,0,,677966,,,,,,,
89390,set_tempo,,,,,65,1,0,,666666,,,,,,,
89435,set_tempo,,,,,45,1,0,,659340,,,,,,,
89505,set_tempo,,,,,70,1,0,,641711,,,,,,,
89565,set_tempo,,,,,60,1,0,,634920,,,,,,,
89595,note_on,,,,,0,0,2,,,,,0,,,38,0
89595,note_on,,,,,315,0,2,,,,,0,,,50,0
89595,note_on,,,,,0,0,1,,,,,0,,,66,0
89595,note_on,,,,,0,0,1,,,,,0,,,57,0
89595,note_on,,,,,315,0,1,,,,,0,,,69,0
89610,note_on,,,,,0,0,1,,,,,0,,,69,80
89610,note_on,,,,,0,0,1,,,,,0,,,66,80
89610,note_on,,,,,15,0,1,,,,,0,,,57,80
89610,note_on,,,,,0,0,2,,,,,0,,,50,79
89610,note_on,,,,,15,0,2,,,,,0,,,38,79
89615,set_tempo,,,,,50,1,0,,641711,,,,,,,
89635,control_change,,,,,25,0,1,,,,,0,64,0,,
89640,note_on,,,,,0,0,1,,,,,0,,,67,84
89640,note_on,,,,,0,0,2,,,,,0,,,38,0
89640,note_on,,,,,30,0,2,,,,,0,,,50,0
89640,control_change,,,,,0,0,1,,,,,0,64,96,,
89640,note_on,,,,,0,0,1,,,,,0,,,59,84
89640,note_on,,,,,0,0,1,,,,,0,,,71,84
89640,note_on,,,,,5,0,1,,,,,0,,,69,0
89640,note_on,,,,,0,0,1,,,,,0,,,66,0
89640,note_on,,,,,0,0,2,,,,,0,,,50,80
89640,note_on,,,,,0,0,1,,,,,0,,,57,0
89640,note_on,,,,,0,0,2,,,,,0,,,43,80
89645,set_tempo,,,,,30,1,0,,662983,,,,,,,
89695,set_tempo,,,,,50,1,0,,685714,,,,,,,
89760,note_on,,,,,120,0,2,,,,,0,,,50,0
89760,set_tempo,,,,,65,1,0,,705882,,,,,,,
89760,note_on,,,,,0,0,2,,,,,0,,,55,96
89765,set_tempo,,,,,5,1,0,,701754,,,,,,,
89770,set_tempo,,,,,5,1,0,,705882,,,,,,,
89830,set_tempo,,,,,60,1,0,,718562,,,,,,,
89870,set_tempo,,,,,40,1,0,,745341,,,,,,,
89920,set_tempo,,,,,50,1,0,,764331,,,,,,,
89925,note_on,,,,,165,0,2,,,,,0,,,55,0
89925,note_on,,,,,0,0,2,,,,,0,,,43,0
89925,note_on,,,,,0,0,1,,,,,0,,,59,0
89925,note_on,,,,,285,0,1,,,,,0,,,71,0
89925,note_on,,,,,0,0,1,,,,,0,,,67,0
89935,set_tempo,,,,,15,1,0,,764331,,,,,,,
89940,note_on,,,,,15,0,1,,,,,0,,,59,90
89940,note_on,,,,,0,0,1,,,,,0,,,67,90
89940,note_on,,,,,0,0,1,,,,,0,,,71,90
89940,control_change,,,,,0,0,1,,,,,0,64,0,,
89940,note_on,,,,,0,0,2,,,,,0,,,54,86
89940,note_on,,,,,15,0,2,,,,,0,,,43,86
89975,set_tempo,,,,,40,1,0,,750000,,,,,,,
90000,note_on,,,,,0,0,2,,,,,0,,,43,0
90000,note_on,,,,,60,0,2,,,,,0,,,54,0
90000,note_on,,,,,0,0,2,,,,,0,,,45,84
90000,note_on,,,,,0,0,2,,,,,0,,,52,84
90000,note_on,,,,,0,0,1,,,,,0,,,59,0
90000,note_on,,,,,0,0,1,,,,,0,,,73,92
90000,note_on,,,,,0,0,1,,,,,0,,,67,92
90000,note_on,,,,,0,0,1,,,,,0,,,61,92
90000,note_on,,,,,60,0,1,,,,,0,,,71,0
90000,note_on,,,,,0,0,1,,,,,0,,,67,0
90005,set_tempo,,,,,30,1,0,,731707,,,,,,,
90030,set_tempo,,,,,25,1,0,,710059,,,,,,,
90055,set_tempo,,,,,25,1,0,,697674,,,,,,,
90056,note_on,,,,,0,0,1,,,,,0,,,67,0
90056,note_on,,,,,0,0,2,,,,,0,,,45,0
90056,note_on,,,,,56,0,2,,,,,0,,,52,0
90056,note_on,,,,,56,0,1,,,,,0,,,73,0
90056,note_on,,,,,0,0,1,,,,,0,,,61,0
90060,note_on,,,,,4,0,1,,,,,0,,,61,84
90060,note_on,,,,,0,0,2,,,,,0,,,52,79
90060,note_on,,,,,4,0,2,,,,,0,,,45,79
90060,note_on,,,,,0,0,1,,,,,0,,,67,84
90060,note_on,,,,,0,0,1,,,,,0,,,73,84
90100,set_tempo,,,,,45,1,0,,677966,,,,,,,
90105,set_tempo,,,,,5,1,0,,674157,,,,,,,
90112,note_on,,,,,0,0,1,,,,,0,,,61,0
90112,note_on,,,,,52,0,1,,,,,0,,,73,0
90112,note_on,,,,,0,0,1,,,,,0,,,67,0
90112,note_on,,,,,52,0,2,,,,,0,,,52,0
90112,note_on,,,,,0,0,2,,,,,0,,,45,0
90120,note_on,,,,,8,0,2,,,,,0,,,45,75
90120,note_on,,,,,8,0,1,,,,,0,,,61,75
90120,note_on,,,,,0,0,1,,,,,0,,,73,75
90120,note_on,,,,,0,0,1,,,,,0,,,67,75
90120,note_on,,,,,0,0,2,,,,,0,,,52,75
90160,set_tempo,,,,,55,1,0,,677966,,,,,,,
90172,note_on,,,,,0,0,2,,,,,0,,,45,0
90172,note_on,,,,,0,0,1,,,,,0,,,67,0
90172,note_on,,,,,52,0,1,,,,,0,,,73,0
90172,note_on,,,,,0,0,1,,,,,0,,,61,0
90172,note_on,,,,,52,0,2,,,,,0,,,52,0
90180,note_on,,,,,8,0,2,,,,,0,,,45,73
90180,note_on,,,,,0,0,1,,,,,0,,,73,69
90180,note_on,,,,,0,0,2,,,,,0,,,52,73
90180,note_on,,,,,8,0,1,,,,,0,,,61,69
90180,note_on,,,,,0,0,1,,,,,0,,,67,69
90185,set_tempo,,,,,25,1,0,,689655,,,,,,,
90235,set_tempo,,,,,50,1,0,,705882,,,,,,,
90236,note_on,,,,,0,0,2,,,,,0,,,45,0
90236,note_on,,,,,56,0,1,,,,,0,,,73,0
90236,note_on,,,,,0,0,1,,,,,0,,,67,0
90236,note_on,,,,,0,0,1,,,,,0,,,61,0
90236,note_on,,,,,56,0,2,,,,,0,,,52,0
90240,note_on,,,,,4,0,2,,,,,0,,,45,70
90240,note_on,,,,,4,0,1,,,,,0,,,62,72
90240,note_on,,,,,0,0,2,,,,,0,,,54,70
90240,note_on,,,,,0,0,1,,,,,0,,,74,72
90240,note_on,,,,,0,0,1,,,,,0,,,66,72
90290,set_tempo,,,,,55,1,0,,731707,,,,,,,
90292,note_on,,,,,0,0,1,,,,,0,,,62,0
90292,note_on,,,,,52,0,2,,,,,0,,,54,0
90292,note_on,,,,,0,0,2,,,,,0,,,45,0
90292,note_on,,,,,0,0,1,,,,,0,,,66,0
90292,note_on,,,,,52,0,1,,,,,0,,,74,0
90300,note_on,,,,,8,0,2,,,,,0,,,45,64
90300,note_on,,,,,0,0,2,,,,,0,,,57,64
90300,note_on,,,,,0,0,1,,,,,0,,,76,66
90300,note_on,,,,,0,0,1,,,,,0,,,73,66
90300,note_on,,,,,8,0,1,,,,,0,,,64,66
90300,note_on,,,,,0,0,2,,,,,0,,,55,64
90335,set_tempo,,,,,45,1,0,,759493,,,,,,,
90352,note_on,,,,,0,0,1,,,,,0,,,64,0
90352,note_on,,,,,0,0,2,,,,,0,,,57,0
90352,note_on,,,,,52,0,1,,,,,0,,,76,0
90352,note_on,,,,,0,0,1,,,,,0,,,73,0
90352,note_on,,,,,52,0,2,,,,,0,,,55,0
90352,note_on,,,,,0,0,2,,,,,0,,,45,0
90360,note_on,,,,,0,0,2,,,,,0,,,55,67
90360,note_on,,,,,8,0,1,,,,,0,,,64,68
90360,note_on,,,,,8,0,2,,,,,0,,,57,67
90360,control_change,,,,,0,0,1,,,,,0,64,96,,
90360,note_on,,,,,0,0,1,,,,,0,,,76,68
90360,note_on,,,,,0,0,1,,,,,0,,,73,68
90360,note_on,,,,,0,0,2,,,,,0,,,45,67
90430,set_tempo,,,,,95,1,0,,779220,,,,,,,
90540,note_on,,,,,180,0,2,,,,,0,,,55,0
90540,note_on,,,,,0,0,2,,,,,0,,,45,0
90540,note_on,,,,,0,0,2,,,,,0,,,50,41
90540,note_on,,,,,0,0,2,,,,,0,,,54,41
90540,note_on,,,,,0,0,1,,,,,0,,,73,0
90540,note_on,,,,,0,0,1,,,,,0,,,64,0
90540,note_on,,,,,0,0,1,,,,,0,,,62,39
90540,note_on,,,,,0,0,1,,,,,0,,,74,39
90540,note_on,,,,,180,0,1,,,,,0,,,76,0
90600,note_on,,,,,0,0,2,,,,,0,,,57,0
90600,note_on,,,,,0,0,2,,,,,0,,,50,0
90600,note_on,,,,,60,0,2,,,,,0,,,54,0
90600,note_on,,,,,60,0,1,,,,,0,,,74,0
90600,note_on,,,,,0,0,1,,,,,0,,,62,0
90625,set_tempo,,,,,195,1,0,,784313,,,,,,,
90660,control_change,,,,,60,0,1,,,,,0,64,0,,
90695,set_tempo,,,,,70,1,0,,764331,,,,,,,
90720,control_change,,,,,0,0,1,,,,,0,64,96,,
90720,note_on,,,,,0,0,1,,,,,0,,,69,34
90720,note_on,,,,,0,0,1,,,,,0,,,66,34
90720,note_on,,,,,60,0,1,,,,,0,,,57,34
90720,set_tempo,,,,,25,1,0,,666666,,,,,,,
90720,note_on,,,,,0,0,2,,,,,0,,,50,32
90720,note_on,,,,,120,0,2,,,,,0,,,38,32
90725,set_tempo,,,,,5,1,0,,662983,,,,,,,
90730,set_tempo,,,,,5,1,0,,659340,,,,,,,
90770,set_tempo,,,,,40,1,0,,666666,,,,,,,
90820,set_tempo,,,,,50,1,0,,681818,,,,,,,
90865,set_tempo,,,,,45,1,0,,689655,,,,,,,
90890,set_tempo,,,,,25,1,0,,705882,,,,,,,
90985,set_tempo,,,,,95,1,0,,718562,,,,,,,
91015,set_tempo,,,,,30,1,0,,736196,,,,,,,
91035,note_on,,,,,315,0,2,,,,,0,,,50,0
91035,note_on,,,,,315,0,1,,,,,0,,,69,0
91035,note_on,,,,,0,0,1,,,,,0,,,66,0
91035,note_on,,,,,0,0,1,,,,,0,,,57,0
91035,note_on,,,,,0,0,2,,,,,0,,,38,0
91050,set_tempo,,,,,35,1,0,,851063,,,,,,,
91050,note_on,,,,,0,0,1,,,,,0,,,69,45
91050,note_on,,,,,15,0,2,,,,,0,,,38,36
91050,note_on,,,,,15,0,1,,,,,0,,,57,45
91050,note_on,,,,,0,0,2,,,,,0,,,50,36
91050,note_on,,,,,0,0,1,,,,,0,,,66,45
91075,note_on,,,,,0,0,1,,,,,0,,,66,0
91075,note_on,,,,,0,0,1,,,,,0,,,57,0
91075,control_change,,,,,0,0,1,,,,,0,64,0,,
91075,note_on,,,,,0,0,2,,,,,0,,,38,0
91075,note_on,,,,,25,0,1,,,,,0,,,69,0
91075,note_on,,,,,25,0,2,,,,,0,,,50,0
91075,set_tempo,,,,,25,1,0,,851063,,,,,,,
91080,note_on,,,,,0,0,1,,,,,0,,,67,45
91080,note_on,,,,,5,0,1,,,,,0,,,59,45
91080,note_on,,,,,0,0,1,,,,,0,,,71,45
91080,set_tempo,,,,,5,1,0,,666666,,,,,,,
91080,control_change,,,,,0,0,1,,,,,0,64,96,,
91080,note_on,,,,,5,0,2,,,,,0,,,43,37
91080,note_on,,,,,0,0,2,,,,,0,,,50,37
91085,set_tempo,,,,,5,1,0,,674157,,,,,,,
91130,set_tempo,,,,,45,1,0,,693641,,,,,,,
91150,set_tempo,,,,,20,1,0,,705882,,,,,,,
91170,set_tempo,,,,,20,1,0,,718562,,,,,,,
91200,note_on,,,,,120,0,2,,,,,0,,,50,0
91200,note_on,,,,,0,0,2,,,,,0,,,55,42
91250,set_tempo,,,,,80,1,0,,731707,,,,,,,
91260,set_tempo,,,,,10,1,0,,736196,,,,,,,
91290,set_tempo,,,,,30,1,0,,745341,,,,,,,
91345,set_tempo,,,,,55,1,0,,764331,,,,,,,
91365,note_on,,,,,0,0,1,,,,,0,,,67,0
91365,note_on,,,,,285,0,1,,,,,0,,,71,0
91365,note_on,,,,,165,0,2,,,,,0,,,55,0
91365,note_on,,,,,0,0,2,,,,,0,,,43,0
91365,note_on,,,,,0,0,1,,,,,0,,,59,0
91380,note_on,,,,,15,0,1,,,,,0,,,59,46
91380,note_on,,,,,0,0,1,,,,,0,,,62,46
91380,note_on,,,,,0,0,1,,,,,0,,,64,46
91380,control_change,,,,,0,0,1,,,,,0,64,0,,
91380,note_on,,,,,15,0,2,,,,,0,,,44,42
91380,note_on,,,,,0,0,2,,,,,0,,,52,42
91390,set_tempo,,,,,45,1,0,,779220,,,,,,,
91395,set_tempo,,,,,5,1,0,,784313,,,,,,,
91410,set_tempo,,,,,15,1,0,,1081081,,,,,,,
91435,note_on,,,,,0,0,2,,,,,0,,,44,0
91435,note_on,,,,,0,0,1,,,,,0,,,62,0
91435,note_on,,,,,55,0,2,,,,,0,,,52,0
91435,note_on,,,,,0,0,1,,,,,0,,,59,0
91435,note_on,,,,,55,0,1,,,,,0,,,64,0
91440,note_on,,,,,5,0,2,,,,,0,,,45,39
91440,note_on,,,,,5,0,1,,,,,0,,,64,41
91440,note_on,,,,,0,0,1,,,,,0,,,61,41
91440,note_on,,,,,0,0,2,,,,,0,,,52,39
91465,set_tempo,,,,,55,1,0,,805369,,,,,,,
91470,set_tempo,,,,,5,1,0,,810810,,,,,,,
91495,set_tempo,,,,,25,1,0,,789473,,,,,,,
91496,note_on,,,,,0,0,2,,,,,0,,,45,0
91496,note_on,,,,,56,0,2,,,,,0,,,52,0
91496,note_on,,,,,0,0,1,,,,,0,,,64,0
91496,note_on,,,,,56,0,1,,,,,0,,,61,0
91500,note_on,,,,,0,0,1,,,,,0,,,61,35
91500,note_on,,,,,4,0,2,,,,,0,,,54,37
91500,note_on,,,,,0,0,2,,,,,0,,,45,37
91500,note_on,,,,,4,0,1,,,,,0,,,64,35
91530,set_tempo,,,,,35,1,0,,774193,,,,,,,
91552,note_on,,,,,52,0,1,,,,,0,,,61,0
91552,note_on,,,,,52,0,2,,,,,0,,,45,0
91552,note_on,,,,,0,0,2,,,,,0,,,54,0
91552,note_on,,,,,0,0,1,,,,,0,,,64,0
91560,note_on,,,,,8,0,1,,,,,0,,,64,31
91560,note_on,,,,,8,0,2,,,,,0,,,55,32
91560,note_on,,,,,0,0,2,,,,,0,,,45,32
91560,note_on,,,,,0,0,1,,,,,0,,,61,31
91565,set_tempo,,,,,35,1,0,,750000,,,,,,,
91612,note_on,,,,,52,0,1,,,,,0,,,61,0
91612,note_on,,,,,0,0,1,,,,,0,,,64,0
91612,note_on,,,,,52,0,2,,,,,0,,,45,0
91612,note_on,,,,,0,0,2,,,,,0,,,55,0
91620,note_on,,,,,8,0,1,,,,,0,,,64,28
91620,note_on,,,,,0,0,1,,,,,0,,,61,28
91620,note_on,,,,,8,0,2,,,,,0,,,55,31
91620,note_on,,,,,0,0,2,,,,,0,,,45,31
91645,set_tempo,,,,,80,1,0,,789473,,,,,,,
91665,set_tempo,,,,,20,1,0,,794701,,,,,,,
91676,note_on,,,,,56,0,1,,,,,0,,,61,0
91676,note_on,,,,,0,0,1,,,,,0,,,64,0
91676,note_on,,,,,0,0,2,,,,,0,,,55,0
91676,note_on,,,,,56,0,2,,,,,0,,,45,0
91680,note_on,,,,,4,0,2,,,,,0,,,59,33
91680,note_on,,,,,0,0,1,,,,,0,,,67,30
91680,note_on,,,,,4,0,1,,,,,0,,,61,30
91680,note_on,,,,,0,0,2,,,,,0,,,45,33
91690,set_tempo,,,,,25,1,0,,827586,,,,,,,
91695,set_tempo,,,,,5,1,0,,833333,,,,,,,
91730,set_tempo,,,,,35,1,0,,882352,,,,,,,
91732,note_on,,,,,0,0,2,,,,,0,,,59,0
91732,note_on,,,,,0,0,1,,,,,0,,,61,0
91732,note_on,,,,,52,0,1,,,,,0,,,67,0
91732,note_on,,,,,52,0,2,,,,,0,,,45,0
91740,note_on,,,,,8,0,2,,,,,0,,,45,36
91740,note_on,,,,,0,0,2,,,,,0,,,57,36
91740,note_on,,,,,0,0,1,,,,,0,,,61,33
91740,note_on,,,,,8,0,1,,,,,0,,,66,33
91780,set_tempo,,,,,50,1,0,,916030,,,,,,,
91790,set_tempo,,,,,10,1,0,,923076,,,,,,,
91792,note_on,,,,,0,0,1,,,,,0,,,66,0
91792,note_on,,,,,52,0,1,,,,,0,,,61,0
91792,note_on,,,,,52,0,2,,,,,0,,,57,0
91792,note_on,,,,,0,0,2,,,,,0,,,45,0
91800,control_change,,,,,0,0,1,,,,,0,64,96,,
91800,note_on,,,,,8,0,1,,,,,0,,,61,39
91800,note_on,,,,,0,0,1,,,,,0,,,64,39
91800,note_on,,,,,8,0,2,,,,,0,,,45,40
91800,note_on,,,,,0,0,2,,,,,0,,,55,40
91865,set_tempo,,,,,75,1,0,,967741,,,,,,,
91980,note_on,,,,,180,0,2,,,,,0,,,55,0
91980,note_on,,,,,0,0,2,,,,,0,,,45,0
91980,note_on,,,,,180,0,1,,,,,0,,,64,0
91980,note_on,,,,,0,0,1,,,,,0,,,61,0
91980,note_on,,,,,0,0,1,,,,,0,,,62,26
91980,note_on,,,,,0,0,2,,,,,0,,,50,26
91980,note_on,,,,,0,0,2,,,,,0,,,54,26
92040,set_tempo,,,,,175,1,0,,1212121,,,,,,,
92040,note_on,,,,,60,0,1,,,,,0,,,62,0
92040,note_on,,,,,60,0,2,,,,,0,,,54,0
92040,note_on,,,,,0,0,2,,,,,0,,,50,0
92045,set_tempo,,,,,5,1,0,,1445783,,,,,,,
92100,control_change,,,,,60,0,1,,,,,0,64,0,,
92155,set_tempo,,,,,110,1,0,,750000,,,,,,,
92160,key_signature,,,,,5,1,0,Bb,,,,,,,,
92160,note_on,,,,,0,0,1,,,,,0,,,70,119
92160,note_on,,,,,0,0,2,,,,,0,,,50,116
92160,note_on,,,,,120,0,2,,,,,0,,,43,116
92160,note_on,,,,,60,0,1,,,,,0,,,58,119
92160,note_on,,,,,0,0,1,,,,,0,,,67,119
92160,marker,,,,,0,1,0,,,,,,,,,
92160,control_change,,,,,0,0,1,,,,,0,64,95,,
92165,set_tempo,,,,,5,1,0,,701754,,,,,,,
92170,set_tempo,,,,,5,1,0,,697674,,,,,,,
92190,set_tempo,,,,,20,1,0,,693641,,,,,,,
92225,set_tempo,,,,,35,1,0,,689655,,,,,,,
92260,set_tempo,,,,,35,1,0,,685714,,,,,,,
92270,set_tempo,,,,,10,1,0,,681818,,,,,,,
92280,set_tempo,,,,,10,1,0,,677966,,,,,,,
92310,set_tempo,,,,,30,1,0,,674157,,,,,,,
92330,set_tempo,,,,,20,1,0,,670391,,,,,,,
92335,set_tempo,,,,,5,1,0,,666666,,,,,,,
92370,set_tempo,,,,,35,1,0,,662983,,,,,,,
92430,set_tempo,,,,,60,1,0,,659340,,,,,,,
92460,set_tempo,,,,,30,1,0,,655737,,,,,,,
92460,control_change,,,,,300,0,1,,,,,0,64,0,,
92475,note_on,,,,,15,0,1,,,,,0,,,70,0
92475,note_on,,,,,0,0,1,,,,,0,,,58,0
92475,note_on,,,,,0,0,1,,,,,0,,,67,0
92490,note_on,,,,,0,0,1,,,,,0,,,69,119
92490,note_on,,,,,0,0,1,,,,,0,,,66,119
92490,set_tempo,,,,,30,1,0,,652173,,,,,,,
92490,note_on,,,,,15,0,1,,,,,0,,,60,119
92512,note_on,,,,,0,0,1,,,,,0,,,66,0
92512,note_on,,,,,22,0,1,,,,,0,,,69,0
92512,note_on,,,,,0,0,1,,,,,0,,,60,0
92520,note_on,,,,,0,0,2,,,,,0,,,43,0
92520,note_on,,,,,0,0,2,,,,,0,,,50,116
92520,note_on,,,,,0,0,2,,,,,0,,,43,116
92520,set_tempo,,,,,30,1,0,,648648,,,,,,,
92520,control_change,,,,,0,0,1,,,,,0,64,95,,
92520,note_on,,,,,0,0,1,,,,,0,,,70,123
92520,note_on,,,,,0,0,1,,,,,0,,,67,123
92520,note_on,,,,,8,0,1,,,,,0,,,58,123
92520,note_on,,,,,360,0,2,,,,,0,,,50,0
92530,set_tempo,,,,,10,1,0,,645161,,,,,,,
92565,set_tempo,,,,,35,1,0,,641711,,,,,,,
92595,set_tempo,,,,,30,1,0,,638297,,,,,,,
92605,set_tempo,,,,,10,1,0,,634920,,,,,,,
92635,set_tempo,,,,,30,1,0,,631578,,,,,,,
92695,set_tempo,,,,,60,1,0,,625000,,,,,,,
92715,set_tempo,,,,,20,1,0,,621761,,,,,,,
92735,set_tempo,,,,,20,1,0,,618556,,,,,,,
92820,control_change,,,,,300,0,1,,,,,0,64,0,,
92825,set_tempo,,,,,90,1,0,,621761,,,,,,,
92830,set_tempo,,,,,5,1,0,,625000,,,,,,,
92835,note_on,,,,,15,0,1,,,,,0,,,70,0
92835,note_on,,,,,0,0,1,,,,,0,,,67,0
92835,note_on,,,,,0,0,1,,,,,0,,,58,0
92850,note_on,,,,,0,0,1,,,,,0,,,69,114
92850,note_on,,,,,0,0,1,,,,,0,,,66,114
92850,set_tempo,,,,,20,1,0,,628272,,,,,,,
92850,note_on,,,,,15,0,1,,,,,0,,,60,114
92865,set_tempo,,,,,15,1,0,,631578,,,,,,,
92870,set_tempo,,,,,5,1,0,,634920,,,,,,,
92872,note_on,,,,,0,0,1,,,,,0,,,60,0
92872,note_on,,,,,22,0,1,,,,,0,,,69,0
92872,note_on,,,,,0,0,1,,,,,0,,,66,0
92880,note_on,,,,,360,0,2,,,,,0,,,50,0
92880,note_on,,,,,0,0,2,,,,,0,,,39,119
92880,note_on,,,,,0,0,2,,,,,0,,,43,0
92880,note_on,,,,,8,0,1,,,,,0,,,58,120
92880,note_on,,,,,0,0,1,,,,,0,,,67,120
92880,note_on,,,,,0,0,1,,,,,0,,,70,120
92880,control_change,,,,,0,0,1,,,,,0,64,95,,
92880,control_change,,,,,0,0,1,,,,,0,7,79,,
92880,note_on,,,,,0,0,2,,,,,0,,,51,119
92885,set_tempo,,,,,15,1,0,,638297,,,,,,,
92895,set_tempo,,,,,10,1,0,,641711,,,,,,,
92905,set_tempo,,,,,10,1,0,,645161,,,,,,,
92920,set_tempo,,,,,15,1,0,,648648,,,,,,,
92930,set_tempo,,,,,10,1,0,,652173,,,,,,,
92932,note_on,,,,,0,0,1,,,,,0,,,58,0
92932,note_on,,,,,0,0,1,,,,,0,,,67,0
92932,note_on,,,,,52,0,1,,,,,0,,,70,0
92940,note_on,,,,,0,0,1,,,,,0,,,75,106
92940,note_on,,,,,0,0,1,,,,,0,,,70,106
92940,note_on,,,,,8,0,1,,,,,0,,,67,106
92945,control_change,,,,,5,0,1,,,,,0,7,80,,
92975,control_change,,,,,30,0,1,,,,,0,7,81,,
92985,control_change,,,,,10,0,1,,,,,0,7,82,,
92992,note_on,,,,,0,0,1,,,,,0,,,67,0
92992,note_on,,,,,0,0,1,,,,,0,,,70,0
92992,note_on,,,,,7,0,1,,,,,0,,,75,0
93000,note_on,,,,,8,0,1,,,,,0,,,67,113
93000,note_on,,,,,0,0,1,,,,,0,,,75,113
93000,note_on,,,,,0,0,1,,,,,0,,,70,113
93005,control_change,,,,,5,0,1,,,,,0,7,83,,
93020,control_change,,,,,15,0,1,,,,,0,7,84,,
93025,control_change,,,,,5,0,1,,,,,0,7,85,,
93030,set_tempo,,,,,100,1,0,,648648,,,,,,,
93035,set_tempo,,,,,5,1,0,,645161,,,,,,,
93052,note_on,,,,,0,0,1,,,,,0,,,67,0
93052,note_on,,,,,0,0,1,,,,,0,,,70,0
93052,note_on,,,,,27,0,1,,,,,0,,,75,0
93055,control_change,,,,,3,0,1,,,,,0,64,0,,
93055,control_change,,,,,0,0,1,,,,,0,7,86,,
93060,note_on,,,,,0,0,1,,,,,0,,,70,127
93060,note_on,,,,,0,0,1,,,,,0,,,75,127
93060,set_tempo,,,,,25,1,0,,638297,,,,,,,
93060,note_on,,,,,5,0,1,,,,,0,,,67,127
93060,control_change,,,,,0,0,1,,,,,0,64,95,,
93065,control_change,,,,,5,0,1,,,,,0,7,87,,
93075,set_tempo,,,,,15,1,0,,634920,,,,,,,
93080,set_tempo,,,,,5,1,0,,631578,,,,,,,
93100,control_change,,,,,35,0,1,,,,,0,7,88,,
93100,set_tempo,,,,,20,1,0,,625000,,,,,,,
93112,note_on,,,,,0,0,1,,,,,0,,,67,0
93112,note_on,,,,,0,0,1,,,,,0,,,70,0
93112,note_on,,,,,12,0,1,,,,,0,,,75,0
93120,note_on,,,,,0,0,1,,,,,0,,,77,119
93120,note_on,,,,,8,0,1,,,,,0,,,67,119
93120,note_on,,,,,0,0,1,,,,,0,,,70,119
93130,set_tempo,,,,,30,1,0,,621761,,,,,,,
93135,set_tempo,,,,,5,1,0,,618556,,,,,,,
93150,control_change,,,,,30,0,1,,,,,0,7,90,,
93150,set_tempo,,,,,15,1,0,,612244,,,,,,,
93155,set_tempo,,,,,5,1,0,,609137,,,,,,,
93172,note_on,,,,,22,0,1,,,,,0,,,77,0
93172,note_on,,,,,0,0,1,,,,,0,,,67,0
93172,note_on,,,,,0,0,1,,,,,0,,,70,0
93180,note_on,,,,,0,0,1,,,,,0,,,77,115
93180,note_on,,,,,0,0,1,,,,,0,,,67,115
93180,note_on,,,,,8,0,1,,,,,0,,,70,115
93185,set_tempo,,,,,30,1,0,,603015,,,,,,,
93195,set_tempo,,,,,10,1,0,,600000,,,,,,,
93195,note_on,,,,,0,0,2,,,,,0,,,39,0
93195,note_on,,,,,315,0,2,,,,,0,,,51,0
93200,set_tempo,,,,,5,1,0,,597014,,,,,,,
93200,control_change,,,,,20,0,1,,,,,0,7,91,,
93205,control_change,,,,,5,0,1,,,,,0,7,92,,
93205,set_tempo,,,,,5,1,0,,594059,,,,,,,
93210,note_on,,,,,15,0,2,,,,,0,,,38,119
93210,note_on,,,,,0,0,2,,,,,0,,,50,119
93220,set_tempo,,,,,15,1,0,,591133,,,,,,,
93220,control_change,,,,,15,0,1,,,,,0,7,93,,
93225,set_tempo,,,,,5,1,0,,585365,,,,,,,
93232,note_on,,,,,22,0,2,,,,,0,,,50,0
93232,note_on,,,,,0,0,2,,,,,0,,,38,0
93232,note_on,,,,,0,0,1,,,,,0,,,70,0
93232,note_on,,,,,0,0,1,,,,,0,,,67,0
93232,note_on,,,,,12,0,1,,,,,0,,,77,0
93235,control_change,,,,,3,0,1,,,,,0,64,0,,
93235,control_change,,,,,0,0,1,,,,,0,7,94,,
93240,note_on,,,,,0,0,1,,,,,0,,,79,127
93240,note_on,,,,,0,0,2,,,,,0,,,51,123
93240,note_on,,,,,0,0,1,,,,,0,,,70,127
93240,note_on,,,,,5,0,1,,,,,0,,,67,127
93240,control_change,,,,,0,0,1,,,,,0,64,94,,
93240,note_on,,,,,8,0,2,,,,,0,,,39,123
93245,control_change,,,,,5,0,1,,,,,0,7,95,,
93255,set_tempo,,,,,30,1,0,,582524,,,,,,,
93320,control_change,,,,,75,0,1,,,,,0,7,94,,
93325,control_change,,,,,5,0,1,,,,,0,7,93,,
93340,control_change,,,,,15,0,1,,,,,0,7,92,,
93350,control_change,,,,,10,0,1,,,,,0,7,91,,
93365,control_change,,,,,15,0,1,,,,,0,7,90,,
93380,control_change,,,,,15,0,1,,,,,0,7,89,,
93400,control_change,,,,,20,0,1,,,,,0,7,88,,
93410,control_change,,,,,10,0,1,,,,,0,7,87,,
93420,note_on,,,,,10,0,1,,,,,0,,,79,0
93420,note_on,,,,,0,0,1,,,,,0,,,70,0
93420,note_on,,,,,0,0,1,,,,,0,,,67,0
93425,control_change,,,,,5,0,1,,,,,0,7,86,,
93435,control_change,,,,,10,0,1,,,,,0,7,85,,
93450,control_change,,,,,15,0,1,,,,,0,7,84,,
93465,control_change,,,,,15,0,1,,,,,0,7,83,,
93490,control_change,,,,,25,0,1,,,,,0,7,82,,
93510,set_tempo,,,,,255,1,0,,588235,,,,,,,
93520,control_change,,,,,30,0,1,,,,,0,7,81,,
93520,set_tempo,,,,,10,1,0,,591133,,,,,,,
93530,set_tempo,,,,,10,1,0,,597014,,,,,,,
93540,set_tempo,,,,,10,1,0,,600000,,,,,,,
93540,control_change,,,,,20,0,1,,,,,0,64,0,,
93545,control_change,,,,,5,0,1,,,,,0,7,80,,
93550,set_tempo,,,,,10,1,0,,603015,,,,,,,
93555,set_tempo,,,,,5,1,0,,609137,,,,,,,
93555,note_on,,,,,0,0,2,,,,,0,,,39,0
93555,note_on,,,,,315,0,2,,,,,0,,,51,0
93565,control_change,,,,,20,0,1,,,,,0,7,79,,
93565,set_tempo,,,,,10,1,0,,612244,,,,,,,
93570,note_on,,,,,0,0,2,,,,,0,,,50,114
93570,note_on,,,,,15,0,2,,,,,0,,,38,114
93570,set_tempo,,,,,5,1,0,,615384,,,,,,,
93590,set_tempo,,,,,20,1,0,,618556,,,,,,,
93592,note_on,,,,,22,0,2,,,,,0,,,50,0
93592,note_on,,,,,0,0,2,,,,,0,,,38,0
93595,set_tempo,,,,,5,1,0,,621761,,,,,,,
93600,note_on,,,,,8,0,2,,,,,0,,,37,127
93600,note_on,,,,,0,0,2,,,,,0,,,49,127
93600,note_on,,,,,35,0,1,,,,,0,,,64,119
93600,control_change,,,,,0,0,1,,,,,0,64,95,,
93600,note_on,,,,,0,0,1,,,,,0,,,67,119
93600,note_on,,,,,0,0,1,,,,,0,,,69,119
93615,set_tempo,,,,,20,1,0,,618556,,,,,,,
93620,set_tempo,,,,,5,1,0,,615384,,,,,,,
93635,set_tempo,,,,,15,1,0,,612244,,,,,,,
93640,set_tempo,,,,,5,1,0,,609137,,,,,,,
93652,note_on,,,,,52,0,2,,,,,0,,,49,0
93652,note_on,,,,,0,0,2,,,,,0,,,37,0
93660,note_on,,,,,0,0,2,,,,,0,,,52,122
93660,note_on,,,,,8,0,2,,,,,0,,,40,122
93670,set_tempo,,,,,30,1,0,,606060,,,,,,,
93680,set_tempo,,,,,10,1,0,,603015,,,,,,,
93695,set_tempo,,,,,15,1,0,,600000,,,,,,,
93695,control_change,,,,,95,0,1,,,,,0,7,80,,
93712,note_on,,,,,52,0,2,,,,,0,,,52,0
93712,note_on,,,,,0,0,2,,,,,0,,,40,0
93720,note_on,,,,,0,0,2,,,,,0,,,52,124
93720,note_on,,,,,8,0,2,,,,,0,,,40,124
93725,control_change,,,,,30,0,1,,,,,0,7,81,,
93725,set_tempo,,,,,30,1,0,,597014,,,,,,,
93745,set_tempo,,,,,20,1,0,,594059,,,,,,,
93760,control_change,,,,,35,0,1,,,,,0,7,82,,
93760,set_tempo,,,,,15,1,0,,591133,,,,,,,
93772,note_on,,,,,0,0,2,,,,,0,,,40,0
93772,note_on,,,,,52,0,2,,,,,0,,,52,0
93775,control_change,,,,,15,0,1,,,,,0,64,0,,
93780,note_on,,,,,0,0,2,,,,,0,,,52,127
93780,note_on,,,,,8,0,2,,,,,0,,,40,127
93780,control_change,,,,,5,0,1,,,,,0,64,95,,
93800,control_change,,,,,20,0,1,,,,,0,7,83,,
93810,control_change,,,,,10,0,1,,,,,0,7,84,,
93832,note_on,,,,,0,0,2,,,,,0,,,40,0
93832,note_on,,,,,52,0,2,,,,,0,,,52,0
93840,control_change,,,,,30,0,1,,,,,0,7,85,,
93840,note_on,,,,,0,0,2,,,,,0,,,57,121
93840,note_on,,,,,8,0,2,,,,,0,,,45,121
93850,control_change,,,,,10,0,1,,,,,0,7,86,,
93855,control_change,,,,,5,0,1,,,,,0,7,87,,
93870,control_change,,,,,15,0,1,,,,,0,7,88,,
93880,control_change,,,,,10,0,1,,,,,0,7,89,,
93892,note_on,,,,,0,0,2,,,,,0,,,45,0
93892,note_on,,,,,52,0,2,,,,,0,,,57,0
93900,note_on,,,,,0,0,2,,,,,0,,,57,121
93900,note_on,,,,,8,0,2,,,,,0,,,45,121
93900,control_change,,,,,20,0,1,,,,,0,64,0,,
93910,control_change,,,,,10,0,1,,,,,0,7,90,,
93915,note_on,,,,,0,0,1,,,,,0,,,64,0
93915,note_on,,,,,5,0,1,,,,,0,,,69,0
93915,note_on,,,,,0,0,1,,,,,0,,,67,0
93920,control_change,,,,,5,0,1,,,,,0,7,91,,
93930,note_on,,,,,0,0,1,,,,,0,,,67,119
93930,note_on,,,,,10,0,1,,,,,0,,,64,119
93930,note_on,,,,,0,0,1,,,,,0,,,70,119
93940,control_change,,,,,10,0,1,,,,,0,7,92,,
93950,control_change,,,,,10,0,1,,,,,0,7,93,,
93952,note_on,,,,,0,0,1,,,,,0,,,64,0
93952,note_on,,,,,2,0,1,,,,,0,,,70,0
93952,note_on,,,,,0,0,1,,,,,0,,,67,0
93952,note_on,,,,,52,0,2,,,,,0,,,57,0
93952,note_on,,,,,0,0,2,,,,,0,,,45,0
93955,control_change,,,,,3,0,1,,,,,0,7,94,,
93960,note_on,,,,,0,0,2,,,,,0,,,61,125
93960,note_on,,,,,8,0,2,,,,,0,,,49,125
93960,note_on,,,,,0,0,1,,,,,0,,,67,123
93960,note_on,,,,,5,0,1,,,,,0,,,64,123
93960,note_on,,,,,0,0,1,,,,,0,,,69,123
93960,control_change,,,,,0,0,1,,,,,0,64,95,,
93965,control_change,,,,,5,0,1,,,,,0,7,96,,
93970,control_change,,,,,5,0,1,,,,,0,7,97,,
94000,control_change,,,,,30,0,1,,,,,0,7,96,,
94015,control_change,,,,,15,0,1,,,,,0,7,95,,
94035,control_change,,,,,20,0,1,,,,,0,7,94,,
94045,control_change,,,,,10,0,1,,,,,0,7,93,,
94050,set_tempo,,,,,290,1,0,,585365,,,,,,,
94075,set_tempo,,,,,25,1,0,,588235,,,,,,,
94085,set_tempo,,,,,10,1,0,,591133,,,,,,,
94095,control_change,,,,,50,0,1,,,,,0,7,92,,
94095,set_tempo,,,,,10,1,0,,594059,,,,,,,
94105,control_change,,,,,10,0,1,,,,,0,7,91,,
94110,set_tempo,,,,,15,1,0,,597014,,,,,,,
94115,control_change,,,,,10,0,1,,,,,0,7,90,,
94130,set_tempo,,,,,20,1,0,,600000,,,,,,,
94135,control_change,,,,,20,0,1,,,,,0,7,89,,
94140,note_on,,,,,180,0,2,,,,,0,,,61,0
94140,note_on,,,,,0,0,2,,,,,0,,,49,0
94150,set_tempo,,,,,20,1,0,,603015,,,,,,,
94155,control_change,,,,,20,0,1,,,,,0,7,88,,
94160,control_change,,,,,5,0,1,,,,,0,7,87,,
94160,set_tempo,,,,,10,1,0,,609137,,,,,,,
94190,set_tempo,,,,,30,1,0,,612244,,,,,,,
94200,set_tempo,,,,,10,1,0,,615384,,,,,,,
94205,control_change,,,,,45,0,1,,,,,0,7,86,,
94215,control_change,,,,,10,0,1,,,,,0,7,85,,
94215,set_tempo,,,,,15,1,0,,618556,,,,,,,
94225,set_tempo,,,,,10,1,0,,621761,,,,,,,
94235,control_change,,,,,20,0,1,,,,,0,7,83,,
94250,control_change,,,,,15,0,1,,,,,0,7,82,,
94255,set_tempo,,,,,30,1,0,,625000,,,,,,,
94255,control_change,,,,,5,0,1,,,,,0,7,81,,
94260,control_change,,,,,5,0,1,,,,,0,64,0,,
94275,control_change,,,,,0,0,1,,,,,0,7,80,,
94275,note_on,,,,,0,0,1,,,,,0,,,64,0
94275,note_on,,,,,15,0,1,,,,,0,,,69,0
94275,set_tempo,,,,,20,1,0,,628272,,,,,,,
94275,note_on,,,,,0,0,1,,,,,0,,,67,0
94285,control_change,,,,,10,0,1,,,,,0,7,79,,
94290,note_on,,,,,0,0,1,,,,,0,,,70,114
94290,note_on,,,,,0,0,1,,,,,0,,,67,114
94290,note_on,,,,,5,0,1,,,,,0,,,64,114
94295,control_change,,,,,5,0,1,,,,,0,7,78,,
94310,control_change,,,,,15,0,1,,,,,0,7,77,,
94312,note_on,,,,,2,0,1,,,,,0,,,70,0
94312,note_on,,,,,0,0,1,,,,,0,,,67,0
94312,note_on,,,,,0,0,1,,,,,0,,,64,0
94315,set_tempo,,,,,40,1,0,,631578,,,,,,,
94320,note_on,,,,,180,0,2,,,,,0,,,38,122
94320,note_on,,,,,8,0,1,,,,,0,,,65,120
94320,note_on,,,,,0,0,1,,,,,0,,,69,120
94320,note_on,,,,,0,0,2,,,,,0,,,50,122
94320,control_change,,,,,0,0,1,,,,,0,64,95,,
94320,control_change,,,,,0,0,1,,,,,0,7,76,,
94325,set_tempo,,,,,10,1,0,,634920,,,,,,,
94372,note_on,,,,,52,0,1,,,,,0,,,69,0
94372,note_on,,,,,0,0,1,,,,,0,,,65,0
94380,note_on,,,,,8,0,1,,,,,0,,,65,117
94380,note_on,,,,,0,0,1,,,,,0,,,69,117
94380,note_on,,,,,0,0,1,,,,,0,,,74,117
94390,control_change,,,,,10,0,1,,,,,0,7,77,,
94410,set_tempo,,,,,85,1,0,,631578,,,,,,,
94420,set_tempo,,,,,10,1,0,,628272,,,,,,,
94420,control_change,,,,,30,0,1,,,,,0,7,78,,
94425,control_change,,,,,5,0,1,,,,,0,7,79,,
94432,note_on,,,,,7,0,1,,,,,0,,,74,0
94432,note_on,,,,,0,0,1,,,,,0,,,69,0
94432,note_on,,,,,0,0,1,,,,,0,,,65,0
94435,set_tempo,,,,,15,1,0,,625000,,,,,,,
94440,note_on,,,,,8,0,1,,,,,0,,,65,107
94440,note_on,,,,,0,0,1,,,,,0,,,69,107
94440,note_on,,,,,0,0,1,,,,,0,,,74,107
94445,set_tempo,,,,,10,1,0,,621761,,,,,,,
94455,control_change,,,,,15,0,1,,,,,0,7,80,,
94460,set_tempo,,,,,15,1,0,,618556,,,,,,,
94470,set_tempo,,,,,10,1,0,,615384,,,,,,,
94490,control_change,,,,,35,0,1,,,,,0,7,82,,
94492,note_on,,,,,0,0,1,,,,,0,,,69,0
94492,note_on,,,,,0,0,1,,,,,0,,,65,0
94492,note_on,,,,,2,0,1,,,,,0,,,74,0
94495,control_change,,,,,3,0,1,,,,,0,64,0,,
94495,set_tempo,,,,,25,1,0,,612244,,,,,,,
94500,note_on,,,,,5,0,1,,,,,0,,,69,118
94500,note_on,,,,,0,0,1,,,,,0,,,74,118
94500,note_on,,,,,0,0,1,,,,,0,,,65,118
94500,control_change,,,,,0,0,1,,,,,0,64,95,,
94520,control_change,,,,,20,0,1,,,,,0,7,83,,
94530,set_tempo,,,,,35,1,0,,609137,,,,,,,
94535,control_change,,,,,15,0,1,,,,,0,7,84,,
94545,set_tempo,,,,,15,1,0,,606060,,,,,,,
94552,note_on,,,,,17,0,1,,,,,0,,,65,0
94552,note_on,,,,,0,0,1,,,,,0,,,74,0
94552,note_on,,,,,0,0,1,,,,,0,,,69,0
94555,control_change,,,,,3,0,1,,,,,0,7,85,,
94560,note_on,,,,,0,0,1,,,,,0,,,69,113
94560,note_on,,,,,5,0,1,,,,,0,,,65,113
94560,note_on,,,,,0,0,1,,,,,0,,,76,113
94580,set_tempo,,,,,35,1,0,,603015,,,,,,,
94585,control_change,,,,,25,0,1,,,,,0,7,87,,
94612,note_on,,,,,27,0,1,,,,,0,,,76,0
94612,note_on,,,,,0,0,1,,,,,0,,,65,0
94612,note_on,,,,,0,0,1,,,,,0,,,69,0
94615,control_change,,,,,3,0,1,,,,,0,7,88,,
94620,set_tempo,,,,,40,1,0,,600000,,,,,,,
94620,note_on,,,,,0,0,1,,,,,0,,,76,116
94620,note_on,,,,,0,0,1,,,,,0,,,69,116
94620,note_on,,,,,5,0,1,,,,,0,,,65,116
94630,control_change,,,,,10,0,1,,,,,0,7,89,,
94635,control_change,,,,,5,0,1,,,,,0,7,90,,
94635,note_on,,,,,0,0,2,,,,,0,,,38,0
94635,note_on,,,,,315,0,2,,,,,0,,,50,0
94640,set_tempo,,,,,20,1,0,,597014,,,,,,,
94645,control_change,,,,,10,0,1,,,,,0,7,91,,
94650,note_on,,,,,0,0,2,,,,,0,,,49,124
94650,note_on,,,,,15,0,2,,,,,0,,,37,124
94655,set_tempo,,,,,15,1,0,,594059,,,,,,,
94655,control_change,,,,,10,0,1,,,,,0,7,92,,
94660,control_change,,,,,5,0,1,,,,,0,7,94,,
94665,set_tempo,,,,,10,1,0,,591133,,,,,,,
94672,note_on,,,,,0,0,1,,,,,0,,,65,0
94672,note_on,,,,,12,0,1,,,,,0,,,76,0
94672,note_on,,,,,22,0,2,,,,,0,,,49,0
94672,note_on,,,,,0,0,1,,,,,0,,,69,0
94672,note_on,,,,,0,0,2,,,,,0,,,37,0
94675,control_change,,,,,3,0,1,,,,,0,64,0,,
94675,control_change,,,,,0,0,1,,,,,0,7,95,,
94680,note_on,,,,,0,0,2,,,,,0,,,50,124
94680,note_on,,,,,8,0,2,,,,,0,,,38,124
94680,note_on,,,,,5,0,1,,,,,0,,,69,123
94680,note_on,,,,,0,0,1,,,,,0,,,77,123
94680,note_on,,,,,0,0,1,,,,,0,,,65,123
94680,control_change,,,,,0,0,1,,,,,0,64,94,,
94680,control_change,,,,,0,0,1,,,,,0,7,96,,
94700,set_tempo,,,,,35,1,0,,588235,,,,,,,
94725,control_change,,,,,45,0,1,,,,,0,7,95,,
94730,set_tempo,,,,,30,1,0,,585365,,,,,,,
94735,control_change,,,,,10,0,1,,,,,0,7,94,,
94755,control_change,,,,,20,0,1,,,,,0,7,93,,
94785,control_change,,,,,30,0,1,,,,,0,7,92,,
94805,control_change,,,,,20,0,1,,,,,0,7,91,,
94810,control_change,,,,,5,0,1,,,,,0,7,90,,
94835,control_change,,,,,25,0,1,,,,,0,7,89,,
94850,set_tempo,,,,,120,1,0,,588235,,,,,,,
94860,note_on,,,,,25,0,1,,,,,0,,,65,0
94860,note_on,,,,,0,0,1,,,,,0,,,69,0
94860,note_on,,,,,0,0,1,,,,,0,,,77,0
94865,control_change,,,,,5,0,1,,,,,0,7,88,,
94870,control_change,,,,,5,0,1,,,,,0,7,87,,
94870,set_tempo,,,,,20,1,0,,591133,,,,,,,
94880,set_tempo,,,,,10,1,0,,597014,,,,,,,
94900,set_tempo,,,,,20,1,0,,603015,,,,,,,
94905,control_change,,,,,35,0,1,,,,,0,7,86,,
94910,set_tempo,,,,,10,1,0,,606060,,,,,,,
94920,set_tempo,,,,,10,1,0,,609137,,,,,,,
94945,control_change,,,,,40,0,1,,,,,0,7,85,,
94950,set_tempo,,,,,30,1,0,,612244,,,,,,,
94950,control_change,,,,,5,0,1,,,,,0,7,84,,
94955,set_tempo,,,,,5,1,0,,615384,,,,,,,
94965,control_change,,,,,15,0,1,,,,,0,7,83,,
94980,control_change,,,,,15,0,1,,,,,0,64,0,,
94995,control_change,,,,,15,0,1,,,,,0,7,82,,
94995,note_on,,,,,0,0,2,,,,,0,,,38,0
94995,note_on,,,,,315,0,2,,,,,0,,,50,0
95000,set_tempo,,,,,45,1,0,,618556,,,,,,,
95005,control_change,,,,,10,0,1,,,,,0,7,81,,
95010,note_on,,,,,15,0,2,,,,,0,,,48,124
95010,note_on,,,,,0,0,2,,,,,0,,,36,124
95020,control_change,,,,,15,0,1,,,,,0,7,80,,
95032,note_on,,,,,22,0,2,,,,,0,,,36,0
95032,note_on,,,,,0,0,2,,,,,0,,,48,0
95040,note_on,,,,,0,0,1,,,,,0,,,62,123
95040,note_on,,,,,0,0,1,,,,,0,,,65,123
95040,note_on,,,,,20,0,1,,,,,0,,,67,123
95040,note_on,,,,,8,0,2,,,,,0,,,35,127
95040,note_on,,,,,0,0,2,,,,,0,,,47,127
95040,control_change,,,,,0,0,1,,,,,0,64,95,,
95092,note_on,,,,,52,0,2,,,,,0,,,47,0
95092,note_on,,,,,0,0,2,,,,,0,,,35,0
95100,note_on,,,,,8,0,2,,,,,0,,,38,118
95100,note_on,,,,,0,0,2,,,,,0,,,50,118
95152,note_on,,,,,52,0,2,,,,,0,,,50,0
95152,note_on,,,,,0,0,2,,,,,0,,,38,0
95160,note_on,,,,,8,0,2,,,,,0,,,38,119
95160,note_on,,,,,0,0,2,,,,,0,,,50,119
95205,set_tempo,,,,,205,1,0,,638297,,,,,,,
95212,note_on,,,,,52,0,2,,,,,0,,,50,0
95212,note_on,,,,,0,0,2,,,,,0,,,38,0
95215,control_change,,,,,175,0,1,,,,,0,64,0,,
95220,note_on,,,,,8,0,2,,,,,0,,,38,127
95220,note_on,,,,,0,0,2,,,,,0,,,50,127
95220,control_change,,,,,5,0,1,,,,,0,64,95,,
95230,control_change,,,,,10,0,1,,,,,0,7,81,,
95245,set_tempo,,,,,40,1,0,,634920,,,,,,,
95260,control_change,,,,,30,0,1,,,,,0,7,82,,
95272,note_on,,,,,0,0,2,,,,,0,,,38,0
95272,note_on,,,,,52,0,2,,,,,0,,,50,0
95280,note_on,,,,,8,0,2,,,,,0,,,43,119
95280,note_on,,,,,0,0,2,,,,,0,,,55,119
95285,set_tempo,,,,,40,1,0,,631578,,,,,,,
95290,control_change,,,,,30,0,1,,,,,0,7,83,,
95295,control_change,,,,,5,0,1,,,,,0,7,84,,
95295,set_tempo,,,,,10,1,0,,628272,,,,,,,
95310,set_tempo,,,,,15,1,0,,625000,,,,,,,
95330,control_change,,,,,35,0,1,,,,,0,7,86,,
95332,note_on,,,,,0,0,2,,,,,0,,,43,0
95332,note_on,,,,,52,0,2,,,,,0,,,55,0
95340,note_on,,,,,0,0,2,,,,,0,,,55,119
95340,note_on,,,,,8,0,2,,,,,0,,,43,119
95350,set_tempo,,,,,40,1,0,,621761,,,,,,,
95350,control_change,,,,,20,0,1,,,,,0,7,87,,
95355,note_on,,,,,0,0,1,,,,,0,,,67,0
95355,note_on,,,,,0,0,1,,,,,0,,,65,0
95355,note_on,,,,,5,0,1,,,,,0,,,62,0
95360,control_change,,,,,5,0,1,,,,,0,7,88,,
95370,note_on,,,,,0,0,1,,,,,0,,,65,114
95370,note_on,,,,,10,0,1,,,,,0,,,62,114
95370,note_on,,,,,0,0,1,,,,,0,,,68,114
95375,set_tempo,,,,,25,1,0,,618556,,,,,,,
95380,control_change,,,,,10,0,1,,,,,0,7,89,,
95385,control_change,,,,,5,0,1,,,,,0,7,90,,
95385,set_tempo,,,,,10,1,0,,615384,,,,,,,
95392,note_on,,,,,0,0,2,,,,,0,,,43,0
95392,note_on,,,,,52,0,2,,,,,0,,,55,0
95392,note_on,,,,,0,0,1,,,,,0,,,65,0
95392,note_on,,,,,7,0,1,,,,,0,,,68,0
95392,note_on,,,,,0,0,1,,,,,0,,,62,0
95395,control_change,,,,,3,0,1,,,,,0,64,0,,
95395,control_change,,,,,0,0,1,,,,,0,7,91,,
95400,control_change,,,,,0,0,1,,,,,0,64,95,,
95400,note_on,,,,,5,0,1,,,,,0,,,67,125
95400,note_on,,,,,0,0,1,,,,,0,,,65,125
95400,note_on,,,,,0,0,1,,,,,0,,,62,125
95400,note_on,,,,,8,0,2,,,,,0,,,59,127
95400,note_on,,,,,0,0,2,,,,,0,,,47,127
95405,control_change,,,,,5,0,1,,,,,0,7,92,,
95415,set_tempo,,,,,30,1,0,,612244,,,,,,,
95415,control_change,,,,,10,0,1,,,,,0,7,94,,
95425,control_change,,,,,10,0,1,,,,,0,7,95,,
95430,control_change,,,,,5,0,1,,,,,0,7,96,,
95450,set_tempo,,,,,35,1,0,,609137,,,,,,,
95452,note_on,,,,,22,0,1,,,,,0,,,62,0
95452,note_on,,,,,0,0,1,,,,,0,,,67,0
95452,note_on,,,,,0,0,1,,,,,0,,,65,0
95460,note_on,,,,,8,0,1,,,,,0,,,74,117
95460,note_on,,,,,0,0,1,,,,,0,,,67,117
95460,note_on,,,,,0,0,1,,,,,0,,,65,117
95480,set_tempo,,,,,30,1,0,,606060,,,,,,,
95495,set_tempo,,,,,15,1,0,,603015,,,,,,,
95510,set_tempo,,,,,15,1,0,,600000,,,,,,,
95512,note_on,,,,,0,0,1,,,,,0,,,67,0
95512,note_on,,,,,0,0,1,,,,,0,,,74,0
95512,note_on,,,,,52,0,1,,,,,0,,,65,0
95520,note_on,,,,,0,0,1,,,,,0,,,65,117
95520,note_on,,,,,8,0,1,,,,,0,,,74,117
95520,note_on,,,,,0,0,1,,,,,0,,,67,117
95530,set_tempo,,,,,20,1,0,,597014,,,,,,,
95565,set_tempo,,,,,35,1,0,,594059,,,,,,,
95572,note_on,,,,,52,0,1,,,,,0,,,65,0
95572,note_on,,,,,0,0,1,,,,,0,,,67,0
95572,note_on,,,,,0,0,1,,,,,0,,,74,0
95575,control_change,,,,,3,0,1,,,,,0,64,0,,
95580,note_on,,,,,180,0,2,,,,,0,,,47,0
95580,note_on,,,,,0,0,2,,,,,0,,,59,0
95580,set_tempo,,,,,15,1,0,,591133,,,,,,,
95580,note_on,,,,,5,0,1,,,,,0,,,74,124
95580,note_on,,,,,0,0,1,,,,,0,,,65,124
95580,note_on,,,,,0,0,1,,,,,0,,,67,124
95580,control_change,,,,,0,0,1,,,,,0,64,96,,
95625,set_tempo,,,,,45,1,0,,594059,,,,,,,
95632,note_on,,,,,0,0,1,,,,,0,,,67,0
95632,note_on,,,,,52,0,1,,,,,0,,,65,0
95632,note_on,,,,,0,0,1,,,,,0,,,74,0
95635,set_tempo,,,,,10,1,0,,597014,,,,,,,
95640,note_on,,,,,0,0,1,,,,,0,,,74,113
95640,note_on,,,,,0,0,1,,,,,0,,,67,113
95640,note_on,,,,,8,0,1,,,,,0,,,77,113
95645,set_tempo,,,,,10,1,0,,600000,,,,,,,
95650,set_tempo,,,,,5,1,0,,603015,,,,,,,
95670,set_tempo,,,,,20,1,0,,606060,,,,,,,
95680,set_tempo,,,,,10,1,0,,609137,,,,,,,
95690,set_tempo,,,,,10,1,0,,612244,,,,,,,
95692,note_on,,,,,0,0,1,,,,,0,,,67,0
95692,note_on,,,,,0,0,1,,,,,0,,,77,0
95692,note_on,,,,,52,0,1,,,,,0,,,74,0
95695,set_tempo,,,,,5,1,0,,615384,,,,,,,
95700,note_on,,,,,8,0,1,,,,,0,,,67,121
95700,note_on,,,,,0,0,1,,,,,0,,,77,121
95700,note_on,,,,,0,0,1,,,,,0,,,74,121
95720,set_tempo,,,,,25,1,0,,606060,,,,,,,
95752,note_on,,,,,52,0,1,,,,,0,,,74,0
95752,note_on,,,,,0,0,1,,,,,0,,,77,0
95752,note_on,,,,,0,0,1,,,,,0,,,67,0
95755,control_change,,,,,3,0,1,,,,,0,64,0,,
95760,control_change,,,,,0,0,1,,,,,0,64,95,,
95760,note_on,,,,,5,0,1,,,,,0,,,77,123
95760,note_on,,,,,0,0,1,,,,,0,,,67,123
95760,note_on,,,,,0,0,1,,,,,0,,,72,123
95760,note_on,,,,,0,0,2,,,,,0,,,48,125
95760,control_change,,,,,0,0,1,,,,,0,7,93,,
95760,note_on,,,,,180,0,2,,,,,0,,,36,125
95770,set_tempo,,,,,50,1,0,,594059,,,,,,,
95775,control_change,,,,,15,0,1,,,,,0,7,92,,
95785,control_change,,,,,10,0,1,,,,,0,7,91,,
95800,set_tempo,,,,,30,1,0,,588235,,,,,,,
95800,control_change,,,,,15,0,1,,,,,0,7,90,,
95810,set_tempo,,,,,10,1,0,,582524,,,,,,,
95812,note_on,,,,,0,0,2,,,,,0,,,36,0
95812,note_on,,,,,52,0,2,,,,,0,,,48,0
95815,control_change,,,,,15,0,1,,,,,0,7,89,,
95820,note_on,,,,,0,0,2,,,,,0,,,39,122
95820,note_on,,,,,8,0,2,,,,,0,,,51,122
95835,control_change,,,,,20,0,1,,,,,0,7,88,,
95840,set_tempo,,,,,30,1,0,,576923,,,,,,,
95850,set_tempo,,,,,10,1,0,,571428,,,,,,,
95855,control_change,,,,,20,0,1,,,,,0,7,87,,
95872,note_on,,,,,52,0,2,,,,,0,,,39,0
95872,note_on,,,,,0,0,2,,,,,0,,,51,0
95880,note_on,,,,,8,0,2,,,,,0,,,39,122
95880,note_on,,,,,0,0,2,,,,,0,,,51,122
95885,control_change,,,,,30,0,1,,,,,0,7,86,,
95900,set_tempo,,,,,50,1,0,,566037,,,,,,,
95925,control_change,,,,,40,0,1,,,,,0,7,85,,
95930,set_tempo,,,,,30,1,0,,560747,,,,,,,
95932,note_on,,,,,0,0,2,,,,,0,,,39,0
95932,note_on,,,,,52,0,2,,,,,0,,,51,0
95935,control_change,,,,,10,0,1,,,,,0,64,0,,
95940,note_on,,,,,0,0,2,,,,,0,,,51,119
95940,note_on,,,,,8,0,2,,,,,0,,,39,119
95940,note_on,,,,,5,0,1,,,,,0,,,77,0
95940,note_on,,,,,0,0,1,,,,,0,,,75,100
95940,control_change,,,,,0,0,1,,,,,0,64,95,,
95965,control_change,,,,,25,0,1,,,,,0,7,84,,
95985,control_change,,,,,20,0,1,,,,,0,7,83,,
95992,note_on,,,,,0,0,2,,,,,0,,,39,0
95992,note_on,,,,,52,0,2,,,,,0,,,51,0
95995,control_change,,,,,10,0,1,,,,,0,7,82,,
96000,note_on,,,,,8,0,2,,,,,0,,,43,114
96000,note_on,,,,,0,0,2,,,,,0,,,55,114
96000,note_on,,,,,5,0,1,,,,,0,,,75,0
96000,note_on,,,,,0,0,1,,,,,0,,,67,0
96000,note_on,,,,,0,0,1,,,,,0,,,72,0
96010,control_change,,,,,10,0,1,,,,,0,7,81,,
96040,control_change,,,,,30,0,1,,,,,0,7,82,,
96040,set_tempo,,,,,110,1,0,,555555,,,,,,,
96050,control_change,,,,,10,0,1,,,,,0,7,83,,
96052,note_on,,,,,0,0,2,,,,,0,,,43,0
96052,note_on,,,,,52,0,2,,,,,0,,,55,0
96060,note_on,,,,,0,0,2,,,,,0,,,55,109
96060,note_on,,,,,8,0,2,,,,,0,,,43,109
96070,control_change,,,,,20,0,1,,,,,0,7,84,,
96080,control_change,,,,,10,0,1,,,,,0,7,85,,
96090,control_change,,,,,10,0,1,,,,,0,7,86,,
96100,control_change,,,,,10,0,1,,,,,0,7,87,,
96105,control_change,,,,,5,0,1,,,,,0,7,88,,
96112,note_on,,,,,52,0,2,,,,,0,,,55,0
96112,note_on,,,,,0,0,2,,,,,0,,,43,0
96115,control_change,,,,,10,0,1,,,,,0,64,0,,
96120,note_on,,,,,8,0,2,,,,,0,,,48,127
96120,control_change,,,,,0,0,1,,,,,0,64,94,,
96120,note_on,,,,,5,0,1,,,,,0,,,63,120
96120,note_on,,,,,0,0,2,,,,,0,,,60,127
96150,control_change,,,,,30,0,1,,,,,0,7,89,,
96160,control_change,,,,,10,0,1,,,,,0,7,90,,
96170,control_change,,,,,10,0,1,,,,,0,7,91,,
96172,note_on,,,,,2,0,1,,,,,0,,,63,0
96180,note_on,,,,,8,0,1,,,,,0,,,67,111
96180,note_on,,,,,0,0,1,,,,,0,,,63,111
96190,control_change,,,,,10,0,1,,,,,0,7,92,,
96210,set_tempo,,,,,170,1,0,,560747,,,,,,,
96230,control_change,,,,,40,0,1,,,,,0,7,93,,
96232,note_on,,,,,2,0,1,,,,,0,,,63,0
96232,note_on,,,,,0,0,1,,,,,0,,,67,0
96240,set_tempo,,,,,30,1,0,,566037,,,,,,,
96240,note_on,,,,,8,0,1,,,,,0,,,67,107
96240,control_change,,,,,0,0,1,,,,,0,7,94,,
96240,note_on,,,,,0,0,1,,,,,0,,,63,107
96250,set_tempo,,,,,10,1,0,,571428,,,,,,,
96255,control_change,,,,,15,0,1,,,,,0,7,95,,
96290,set_tempo,,,,,40,1,0,,576923,,,,,,,
96292,note_on,,,,,0,0,1,,,,,0,,,67,0
96292,note_on,,,,,37,0,1,,,,,0,,,63,0
96295,control_change,,,,,0,0,1,,,,,0,7,96,,
96295,control_change,,,,,3,0,1,,,,,0,64,0,,
96300,note_on,,,,,5,0,1,,,,,0,,,67,120
96300,control_change,,,,,0,0,1,,,,,0,64,95,,
96300,note_on,,,,,180,0,2,,,,,0,,,60,0
96300,note_on,,,,,0,0,2,,,,,0,,,48,0
96300,note_on,,,,,0,0,1,,,,,0,,,63,120
96320,set_tempo,,,,,30,1,0,,582524,,,,,,,
96325,control_change,,,,,25,0,1,,,,,0,7,97,,
96340,set_tempo,,,,,20,1,0,,588235,,,,,,,
96352,note_on,,,,,0,0,1,,,,,0,,,67,0
96352,note_on,,,,,27,0,1,,,,,0,,,63,0
96355,control_change,,,,,3,0,1,,,,,0,7,98,,
96360,note_on,,,,,0,0,1,,,,,0,,,67,113
96360,note_on,,,,,0,0,1,,,,,0,,,63,113
96360,set_tempo,,,,,20,1,0,,594059,,,,,,,
96360,note_on,,,,,5,0,1,,,,,0,,,72,113
96365,control_change,,,,,5,0,1,,,,,0,7,99,,
96390,set_tempo,,,,,30,1,0,,600000,,,,,,,
96400,control_change,,,,,35,0,1,,,,,0,7,100,,
96410,set_tempo,,,,,20,1,0,,606060,,,,,,,
96412,note_on,,,,,0,0,1,,,,,0,,,72,0
96412,note_on,,,,,0,0,1,,,,,0,,,63,0
96412,note_on,,,,,12,0,1,,,,,0,,,67,0
96420,note_on,,,,,0,0,1,,,,,0,,,67,117
96420,note_on,,,,,8,0,1,,,,,0,,,63,117
96420,note_on,,,,,0,0,1,,,,,0,,,72,117
96430,set_tempo,,,,,20,1,0,,612244,,,,,,,
96430,control_change,,,,,10,0,1,,,,,0,7,101,,
96445,control_change,,,,,15,0,1,,,,,0,7,102,,
96470,set_tempo,,,,,40,1,0,,810810,,,,,,,
96472,note_on,,,,,0,0,1,,,,,0,,,63,0
96472,note_on,,,,,0,0,1,,,,,0,,,67,0
96472,note_on,,,,,27,0,1,,,,,0,,,72,0
96475,control_change,,,,,3,0,1,,,,,0,64,0,,
96480,note_on,,,,,0,0,2,,,,,0,,,46,127
96480,set_tempo,,,,,10,1,0,,628272,,,,,,,
96480,note_on,,,,,5,0,1,,,,,0,,,66,127
96480,note_on,,,,,0,0,1,,,,,0,,,70,127
96480,note_on,,,,,0,0,1,,,,,0,,,75,127
96480,control_change,,,,,0,0,1,,,,,0,64,95,,
96480,control_change,,,,,0,0,1,,,,,0,7,103,,
96480,note_on,,,,,180,0,2,,,,,0,,,34,127
96490,control_change,,,,,10,0,1,,,,,0,7,101,,
96495,control_change,,,,,5,0,1,,,,,0,7,100,,
96500,set_tempo,,,,,20,1,0,,588235,,,,,,,
96505,control_change,,,,,10,0,1,,,,,0,7,99,,
96510,set_tempo,,,,,10,1,0,,582524,,,,,,,
96510,control_change,,,,,5,0,1,,,,,0,7,98,,
96515,control_change,,,,,5,0,1,,,,,0,7,97,,
96530,control_change,,,,,15,0,1,,,,,0,7,96,,
96532,note_on,,,,,0,0,2,,,,,0,,,34,0
96532,note_on,,,,,52,0,2,,,,,0,,,46,0
96540,control_change,,,,,10,0,1,,,,,0,7,94,,
96540,note_on,,,,,0,0,2,,,,,0,,,51,122
96540,note_on,,,,,8,0,2,,,,,0,,,39,122
96545,control_change,,,,,5,0,1,,,,,0,7,92,,
96550,control_change,,,,,5,0,1,,,,,0,7,91,,
96560,set_tempo,,,,,50,1,0,,571428,,,,,,,
96560,control_change,,,,,10,0,1,,,,,0,7,89,,
96565,control_change,,,,,5,0,1,,,,,0,7,88,,
96575,control_change,,,,,10,0,1,,,,,0,7,86,,
96585,control_change,,,,,10,0,1,,,,,0,7,85,,
96590,control_change,,,,,5,0,1,,,,,0,7,84,,
96592,note_on,,,,,0,0,2,,,,,0,,,39,0
96592,note_on,,,,,52,0,2,,,,,0,,,51,0
96595,control_change,,,,,5,0,1,,,,,0,7,83,,
96600,note_on,,,,,0,0,2,,,,,0,,,51,122
96600,note_on,,,,,8,0,2,,,,,0,,,39,122
96600,set_tempo,,,,,40,1,0,,560747,,,,,,,
96610,control_change,,,,,15,0,1,,,,,0,7,82,,
96620,control_change,,,,,10,0,1,,,,,0,7,80,,
96630,control_change,,,,,10,0,1,,,,,0,7,81,,
96635,control_change,,,,,5,0,1,,,,,0,7,82,,
96640,set_tempo,,,,,40,1,0,,555555,,,,,,,
96640,control_change,,,,,5,0,1,,,,,0,7,83,,
96645,control_change,,,,,5,0,1,,,,,0,7,84,,
96650,control_change,,,,,5,0,1,,,,,0,7,85,,
96652,note_on,,,,,0,0,2,,,,,0,,,39,0
96652,note_on,,,,,52,0,2,,,,,0,,,51,0
96655,control_change,,,,,0,0,1,,,,,0,7,86,,
96655,control_change,,,,,5,0,1,,,,,0,64,0,,
96660,set_tempo,,,,,20,1,0,,550458,,,,,,,
96660,note_on,,,,,0,0,1,,,,,0,,,70,0
96660,note_on,,,,,8,0,2,,,,,0,,,39,127
96660,note_on,,,,,0,0,2,,,,,0,,,51,127
96660,control_change,,,,,0,0,1,,,,,0,64,95,,
96660,note_on,,,,,0,0,1,,,,,0,,,66,0
96660,note_on,,,,,5,0,1,,,,,0,,,75,0
96665,control_change,,,,,5,0,1,,,,,0,7,88,,
96680,control_change,,,,,15,0,1,,,,,0,7,89,,
96685,control_change,,,,,5,0,1,,,,,0,7,90,,
96690,set_tempo,,,,,30,1,0,,545454,,,,,,,
96705,control_change,,,,,20,0,1,,,,,0,7,91,,
96712,note_on,,,,,0,0,2,,,,,0,,,39,0
96712,note_on,,,,,52,0,2,,,,,0,,,51,0
96715,control_change,,,,,10,0,1,,,,,0,7,92,,
96720,control_change,,,,,5,0,1,,,,,0,7,93,,
96720,note_on,,,,,0,0,2,,,,,0,,,54,121
96720,note_on,,,,,8,0,2,,,,,0,,,42,121
96730,set_tempo,,,,,40,1,0,,540540,,,,,,,
96730,control_change,,,,,10,0,1,,,,,0,7,94,,
96745,control_change,,,,,15,0,1,,,,,0,7,95,,
96760,control_change,,,,,15,0,1,,,,,0,7,97,,
96765,control_change,,,,,5,0,1,,,,,0,7,98,,
96770,control_change,,,,,5,0,1,,,,,0,7,99,,
96772,note_on,,,,,52,0,2,,,,,0,,,54,0
96772,note_on,,,,,0,0,2,,,,,0,,,42,0
96780,note_on,,,,,8,0,2,,,,,0,,,42,121
96780,note_on,,,,,0,0,2,,,,,0,,,54,121
96785,control_change,,,,,15,0,1,,,,,0,7,101,,
96790,control_change,,,,,5,0,1,,,,,0,7,102,,
96800,control_change,,,,,10,0,1,,,,,0,7,103,,
96805,control_change,,,,,5,0,1,,,,,0,7,104,,
96820,control_change,,,,,15,0,1,,,,,0,7,105,,
96825,control_change,,,,,5,0,1,,,,,0,7,106,,
96832,note_on,,,,,0,0,2,,,,,0,,,42,0
96832,note_on,,,,,52,0,2,,,,,0,,,54,0
96835,control_change,,,,,10,0,1,,,,,0,64,0,,
96840,control_change,,,,,0,0,1,,,,,0,7,105,,
96840,note_on,,,,,0,0,2,,,,,0,,,58,127
96840,control_change,,,,,0,0,1,,,,,0,64,95,,
96840,note_on,,,,,0,0,1,,,,,0,,,66,120
96840,note_on,,,,,8,0,2,,,,,0,,,46,127
96840,note_on,,,,,5,0,1,,,,,0,,,70,120
96845,control_change,,,,,5,0,1,,,,,0,7,103,,
96855,control_change,,,,,10,0,1,,,,,0,7,102,,
96860,control_change,,,,,5,0,1,,,,,0,7,100,,
96865,control_change,,,,,5,0,1,,,,,0,7,98,,
96892,note_on,,,,,0,0,1,,,,,0,,,70,0
96892,note_on,,,,,27,0,1,,,,,0,,,66,0
96895,control_change,,,,,3,0,1,,,,,0,7,96,,
96900,control_change,,,,,0,0,1,,,,,0,7,94,,
96900,note_on,,,,,0,0,1,,,,,0,,,70,117
96900,note_on,,,,,0,0,1,,,,,0,,,66,117
96900,note_on,,,,,5,0,1,,,,,0,,,75,117
96905,control_change,,,,,5,0,1,,,,,0,7,93,,
96915,control_change,,,,,10,0,1,,,,,0,7,92,,
96920,control_change,,,,,5,0,1,,,,,0,7,91,,
96925,control_change,,,,,5,0,1,,,,,0,7,90,,
96935,control_change,,,,,10,0,1,,,,,0,7,89,,
96940,control_change,,,,,5,0,1,,,,,0,7,87,,
96952,note_on,,,,,0,0,1,,,,,0,,,75,0
96952,note_on,,,,,12,0,1,,,,,0,,,70,0
96952,note_on,,,,,0,0,1,,,,,0,,,66,0
96955,control_change,,,,,3,0,1,,,,,0,7,86,,
96960,note_on,,,,,0,0,1,,,,,0,,,70,113
96960,note_on,,,,,0,0,1,,,,,0,,,75,113
96960,note_on,,,,,5,0,1,,,,,0,,,66,113
96960,set_tempo,,,,,230,1,0,,545454,,,,,,,
96965,control_change,,,,,5,0,1,,,,,0,7,85,,
96970,set_tempo,,,,,10,1,0,,550458,,,,,,,
96995,control_change,,,,,30,0,1,,,,,0,7,83,,
97000,set_tempo,,,,,30,1,0,,555555,,,,,,,
97010,control_change,,,,,15,0,1,,,,,0,7,82,,
97010,set_tempo,,,,,10,1,0,,560747,,,,,,,
97012,note_on,,,,,2,0,1,,,,,0,,,75,0
97012,note_on,,,,,0,0,1,,,,,0,,,70,0
97012,note_on,,,,,0,0,1,,,,,0,,,66,0
97015,control_change,,,,,3,0,1,,,,,0,64,0,,
97020,note_on,,,,,180,0,2,,,,,0,,,58,0
97020,control_change,,,,,0,0,1,,,,,0,64,96,,
97020,control_change,,,,,0,0,1,,,,,0,7,83,,
97020,note_on,,,,,0,0,2,,,,,0,,,46,0
97020,note_on,,,,,0,0,1,,,,,0,,,70,120
97020,note_on,,,,,5,0,1,,,,,0,,,66,120
97020,note_on,,,,,0,0,1,,,,,0,,,75,120
97025,control_change,,,,,5,0,1,,,,,0,7,84,,
97040,set_tempo,,,,,30,1,0,,566037,,,,,,,
97040,control_change,,,,,15,0,1,,,,,0,7,85,,
97050,control_change,,,,,10,0,1,,,,,0,7,86,,
97065,control_change,,,,,15,0,1,,,,,0,7,87,,
97070,set_tempo,,,,,30,1,0,,571428,,,,,,,
97072,note_on,,,,,7,0,1,,,,,0,,,75,0
97072,note_on,,,,,0,0,1,,,,,0,,,70,0
97072,note_on,,,,,0,0,1,,,,,0,,,66,0
97075,control_change,,,,,3,0,1,,,,,0,7,88,,
97080,set_tempo,,,,,10,1,0,,576923,,,,,,,
97080,note_on,,,,,5,0,1,,,,,0,,,75,113
97080,note_on,,,,,0,0,1,,,,,0,,,70,113
97080,note_on,,,,,0,0,1,,,,,0,,,78,113
97080,control_change,,,,,0,0,1,,,,,0,7,89,,
97090,control_change,,,,,10,0,1,,,,,0,7,90,,
97105,control_change,,,,,15,0,1,,,,,0,7,91,,
97115,control_change,,,,,10,0,1,,,,,0,7,92,,
97120,set_tempo,,,,,40,1,0,,582524,,,,,,,
97125,control_change,,,,,10,0,1,,,,,0,7,94,,
97132,note_on,,,,,0,0,1,,,,,0,,,70,0
97132,note_on,,,,,7,0,1,,,,,0,,,78,0
97132,note_on,,,,,0,0,1,,,,,0,,,75,0
97140,control_change,,,,,0,0,1,,,,,0,7,95,,
97140,note_on,,,,,0,0,1,,,,,0,,,78,114
97140,note_on,,,,,0,0,1,,,,,0,,,75,114
97140,note_on,,,,,8,0,1,,,,,0,,,70,114
97150,control_change,,,,,10,0,1,,,,,0,7,97,,
97150,set_tempo,,,,,30,1,0,,588235,,,,,,,
97155,control_change,,,,,5,0,1,,,,,0,7,98,,
97160,control_change,,,,,5,0,1,,,,,0,7,99,,
97170,control_change,,,,,10,0,1,,,,,0,7,100,,
97170,set_tempo,,,,,20,1,0,,652173,,,,,,,
97175,set_tempo,,,,,5,1,0,,666666,,,,,,,
97175,control_change,,,,,5,0,1,,,,,0,7,101,,
97180,set_tempo,,,,,5,1,0,,674157,,,,,,,
97180,control_change,,,,,5,0,1,,,,,0,7,102,,
97185,set_tempo,,,,,5,1,0,,857142,,,,,,,
97185,control_change,,,,,5,0,1,,,,,0,7,103,,
97190,control_change,,,,,5,0,1,,,,,0,7,104,,
97190,set_tempo,,,,,5,1,0,,851063,,,,,,,
97192,note_on,,,,,2,0,1,,,,,0,,,78,0
97192,note_on,,,,,0,0,1,,,,,0,,,75,0
97192,note_on,,,,,0,0,1,,,,,0,,,70,0
97195,control_change,,,,,0,0,1,,,,,0,7,105,,
97195,control_change,,,,,3,0,1,,,,,0,64,0,,
97200,note_on,,,,,0,0,2,,,,,0,,,45,127
97200,note_on,,,,,180,0,2,,,,,0,,,33,127
97200,note_on,,,,,5,0,1,,,,,0,,,72,123
97200,note_on,,,,,0,0,1,,,,,0,,,75,123
97200,note_on,,,,,0,0,1,,,,,0,,,78,123
97200,control_change,,,,,0,0,1,,,,,0,64,95,,
97200,set_tempo,,,,,10,1,0,,655737,,,,,,,
97210,set_tempo,,,,,10,1,0,,582524,,,,,,,
97220,control_change,,,,,20,0,1,,,,,0,7,104,,
97225,control_change,,,,,5,0,1,,,,,0,7,103,,
97240,control_change,,,,,15,0,1,,,,,0,7,101,,
97245,control_change,,,,,5,0,1,,,,,0,7,99,,
97250,control_change,,,,,5,0,1,,,,,0,7,98,,
97252,note_on,,,,,0,0,2,,,,,0,,,33,0
97252,note_on,,,,,52,0,2,,,,,0,,,45,0
97260,set_tempo,,,,,50,1,0,,571428,,,,,,,
97260,control_change,,,,,10,0,1,,,,,0,7,97,,
97260,note_on,,,,,0,0,2,,,,,0,,,48,121
97260,note_on,,,,,8,0,2,,,,,0,,,36,121
97270,set_tempo,,,,,10,1,0,,566037,,,,,,,
97275,control_change,,,,,15,0,1,,,,,0,7,96,,
97285,control_change,,,,,10,0,1,,,,,0,7,95,,
97290,control_change,,,,,5,0,1,,,,,0,7,94,,
97300,control_change,,,,,10,0,1,,,,,0,7,93,,
97305,control_change,,,,,5,0,1,,,,,0,7,92,,
97312,note_on,,,,,0,0,2,,,,,0,,,36,0
97312,note_on,,,,,52,0,2,,,,,0,,,48,0
97320,note_on,,,,,8,0,2,,,,,0,,,36,121
97320,note_on,,,,,0,0,2,,,,,0,,,48,121
97330,set_tempo,,,,,60,1,0,,555555,,,,,,,
97335,control_change,,,,,30,0,1,,,,,0,7,91,,
97340,control_change,,,,,5,0,1,,,,,0,7,90,,
97350,control_change,,,,,10,0,1,,,,,0,7,89,,
97360,set_tempo,,,,,30,1,0,,540540,,,,,,,
97360,control_change,,,,,10,0,1,,,,,0,7,88,,
97372,note_on,,,,,0,0,2,,,,,0,,,36,0
97372,note_on,,,,,52,0,2,,,,,0,,,48,0
97375,control_change,,,,,15,0,1,,,,,0,64,0,,
97375,control_change,,,,,0,0,1,,,,,0,7,87,,
97380,set_tempo,,,,,20,1,0,,535714,,,,,,,
97380,note_on,,,,,0,0,2,,,,,0,,,48,127
97380,note_on,,,,,8,0,2,,,,,0,,,36,127
97380,note_on,,,,,5,0,1,,,,,0,,,78,0
97380,note_on,,,,,0,0,1,,,,,0,,,77,112
97380,control_change,,,,,0,0,1,,,,,0,64,95,,
97390,control_change,,,,,10,0,1,,,,,0,7,86,,
97400,control_change,,,,,10,0,1,,,,,0,7,85,,
97420,control_change,,,,,20,0,1,,,,,0,7,86,,
97430,control_change,,,,,10,0,1,,,,,0,7,87,,
97432,note_on,,,,,52,0,2,,,,,0,,,48,0
97432,note_on,,,,,0,0,2,,,,,0,,,36,0
97435,control_change,,,,,5,0,1,,,,,0,7,88,,
97440,note_on,,,,,5,0,1,,,,,0,,,77,0
97440,note_on,,,,,0,0,1,,,,,0,,,75,0
97440,note_on,,,,,0,0,1,,,,,0,,,72,0
97440,control_change,,,,,0,0,1,,,,,0,7,90,,
97440,note_on,,,,,0,0,2,,,,,0,,,53,120
97440,note_on,,,,,8,0,2,,,,,0,,,41,120
97450,control_change,,,,,10,0,1,,,,,0,7,91,,
97460,control_change,,,,,10,0,1,,,,,0,7,93,,
97470,control_change,,,,,10,0,1,,,,,0,7,95,,
97480,set_tempo,,,,,100,1,0,,540540,,,,,,,
97480,control_change,,,,,10,0,1,,,,,0,7,97,,
97490,set_tempo,,,,,10,1,0,,545454,,,,,,,
97490,control_change,,,,,10,0,1,,,,,0,7,98,,
97492,note_on,,,,,52,0,2,,,,,0,,,53,0
97492,note_on,,,,,0,0,2,,,,,0,,,41,0
97495,control_change,,,,,5,0,1,,,,,0,7,99,,
97500,note_on,,,,,8,0,2,,,,,0,,,41,120
97500,note_on,,,,,0,0,2,,,,,0,,,53,120
97500,set_tempo,,,,,10,1,0,,550458,,,,,,,
97500,control_change,,,,,5,0,1,,,,,0,7,100,,
97505,control_change,,,,,5,0,1,,,,,0,7,101,,
97515,control_change,,,,,10,0,1,,,,,0,7,103,,
97520,control_change,,,,,5,0,1,,,,,0,7,104,,
97525,control_change,,,,,5,0,1,,,,,0,7,105,,
97535,control_change,,,,,10,0,1,,,,,0,7,107,,
97540,set_tempo,,,,,40,1,0,,555555,,,,,,,
97540,control_change,,,,,5,0,1,,,,,0,7,108,,
97545,control_change,,,,,5,0,1,,,,,0,7,109,,
97550,control_change,,,,,5,0,1,,,,,0,7,110,,
97552,note_on,,,,,0,0,2,,,,,0,,,41,0
97552,note_on,,,,,52,0,2,,,,,0,,,53,0
97555,control_change,,,,,5,0,1,,,,,0,64,0,,
97560,note_on,,,,,0,0,2,,,,,0,,,57,127
97560,note_on,,,,,8,0,2,,,,,0,,,45,127
97560,note_on,,,,,0,0,1,,,,,0,,,60,120
97560,note_on,,,,,0,0,1,,,,,0,,,63,120
97560,note_on,,,,,5,0,1,,,,,0,,,65,120
97560,control_change,,,,,0,0,1,,,,,0,64,94,,
97565,control_change,,,,,5,0,1,,,,,0,7,110,,
97570,set_tempo,,,,,30,1,0,,560747,,,,,,,
97580,set_tempo,,,,,10,1,0,,566037,,,,,,,
97585,control_change,,,,,20,0,1,,,,,0,7,109,,
97590,control_change,,,,,5,0,1,,,,,0,7,108,,
97590,set_tempo,,,,,10,1,0,,571428,,,,,,,
97605,control_change,,,,,15,0,1,,,,,0,7,106,,
97612,note_on,,,,,7,0,1,,,,,0,,,60,0
97612,note_on,,,,,0,0,1,,,,,0,,,65,0
97612,note_on,,,,,0,0,1,,,,,0,,,63,0
97615,control_change,,,,,3,0,1,,,,,0,7,104,,
97620,note_on,,,,,0,0,1,,,,,0,,,63,113
97620,note_on,,,,,0,0,1,,,,,0,,,65,113
97620,note_on,,,,,5,0,1,,,,,0,,,72,113
97620,set_tempo,,,,,30,1,0,,576923,,,,,,,
97630,control_change,,,,,10,0,1,,,,,0,7,103,,
97650,set_tempo,,,,,30,1,0,,582524,,,,,,,
97660,control_change,,,,,30,0,1,,,,,0,7,101,,
97660,set_tempo,,,,,10,1,0,,588235,,,,,,,
97670,control_change,,,,,10,0,1,,,,,0,7,100,,
97672,note_on,,,,,0,0,1,,,,,0,,,72,0
97672,note_on,,,,,0,0,1,,,,,0,,,65,0
97672,note_on,,,,,2,0,1,,,,,0,,,63,0
97680,set_tempo,,,,,20,1,0,,594059,,,,,,,
97680,note_on,,,,,0,0,1,,,,,0,,,63,112
97680,note_on,,,,,0,0,1,,,,,0,,,65,112
97680,note_on,,,,,8,0,1,,,,,0,,,72,112
97690,set_tempo,,,,,10,1,0,,594059,,,,,,,
97700,control_change,,,,,20,0,1,,,,,0,7,99,,
97700,set_tempo,,,,,10,1,0,,600000,,,,,,,
97710,set_tempo,,,,,10,1,0,,606060,,,,,,,
97710,control_change,,,,,10,0,1,,,,,0,7,97,,
97725,control_change,,,,,15,0,1,,,,,0,7,98,,
97730,set_tempo,,,,,20,1,0,,612244,,,,,,,
97730,control_change,,,,,5,0,1,,,,,0,7,99,,
97732,note_on,,,,,0,0,1,,,,,0,,,65,0
97732,note_on,,,,,2,0,1,,,,,0,,,63,0
97732,note_on,,,,,0,0,1,,,,,0,,,72,0
97735,control_change,,,,,3,0,1,,,,,0,64,0,,
97740,set_tempo,,,,,10,1,0,,618556,,,,,,,
97740,note_on,,,,,0,0,2,,,,,0,,,45,0
97740,note_on,,,,,5,0,1,,,,,0,,,72,120
97740,note_on,,,,,180,0,2,,,,,0,,,57,0
97740,note_on,,,,,0,0,1,,,,,0,,,63,120
97740,control_change,,,,,0,0,1,,,,,0,64,95,,
97740,control_change,,,,,0,0,1,,,,,0,7,100,,
97740,note_on,,,,,0,0,1,,,,,0,,,65,120
97750,control_change,,,,,10,0,1,,,,,0,7,101,,
97750,set_tempo,,,,,10,1,0,,625000,,,,,,,
97760,set_tempo,,,,,10,1,0,,631578,,,,,,,
97780,set_tempo,,,,,20,1,0,,645161,,,,,,,
97790,control_change,,,,,40,0,1,,,,,0,7,103,,
97790,set_tempo,,,,,10,1,0,,659340,,,,,,,
97792,note_on,,,,,0,0,1,,,,,0,,,72,0
97792,note_on,,,,,2,0,1,,,,,0,,,63,0
97792,note_on,,,,,0,0,1,,,,,0,,,65,0
97800,note_on,,,,,8,0,1,,,,,0,,,65,113
97800,note_on,,,,,0,0,1,,,,,0,,,72,113
97800,note_on,,,,,0,0,1,,,,,0,,,75,113
97810,set_tempo,,,,,20,1,0,,674157,,,,,,,
97815,control_change,,,,,15,0,1,,,,,0,7,105,,
97820,set_tempo,,,,,10,1,0,,689655,,,,,,,
97830,set_tempo,,,,,10,1,0,,714285,,,,,,,
97840,set_tempo,,,,,10,1,0,,722891,,,,,,,
97845,control_change,,,,,30,0,1,,,,,0,7,106,,
97850,set_tempo,,,,,10,1,0,,740740,,,,,,,
97852,note_on,,,,,7,0,1,,,,,0,,,75,0
97852,note_on,,,,,0,0,1,,,,,0,,,72,0
97852,note_on,,,,,0,0,1,,,,,0,,,65,0
97855,control_change,,,,,3,0,1,,,,,0,7,107,,
97860,note_on,,,,,0,0,1,,,,,0,,,72,112
97860,note_on,,,,,0,0,1,,,,,0,,,75,112
97860,note_on,,,,,5,0,1,,,,,0,,,65,112
97865,control_change,,,,,5,0,1,,,,,0,7,108,,
97865,set_tempo,,,,,15,1,0,,769230,,,,,,,
97870,set_tempo,,,,,5,1,0,,774193,,,,,,,
97875,control_change,,,,,10,0,1,,,,,0,7,109,,
97875,set_tempo,,,,,5,1,0,,784313,,,,,,,
97880,set_tempo,,,,,5,1,0,,789473,,,,,,,
97885,set_tempo,,,,,5,1,0,,794701,,,,,,,
97890,set_tempo,,,,,5,1,0,,805369,,,,,,,
97895,set_tempo,,,,,5,1,0,,810810,,,,,,,
97900,control_change,,,,,25,0,1,,,,,0,7,110,,
97905,set_tempo,,,,,10,1,0,,827586,,,,,,,
97910,set_tempo,,,,,5,1,0,,1276595,,,,,,,
97910,control_change,,,,,10,0,1,,,,,0,7,111,,
97912,note_on,,,,,0,0,1,,,,,0,,,65,0
97912,note_on,,,,,0,0,1,,,,,0,,,72,0
97912,note_on,,,,,2,0,1,,,,,0,,,75,0
97915,control_change,,,,,3,0,1,,,,,0,64,0,,
97915,set_tempo,,,,,5,1,0,,1290322,,,,,,,
97920,note_on,,,,,5,0,1,,,,,0,,,65,123
97920,note_on,,,,,0,0,1,,,,,0,,,70,123
97920,control_change,,,,,0,0,1,,,,,0,64,96,,
97920,note_on,,,,,0,0,2,,,,,0,,,46,127
97920,set_tempo,,,,,5,1,0,,609137,,,,,,,
97920,note_on,,,,,0,0,1,,,,,0,,,73,123
97920,note_on,,,,,180,0,2,,,,,0,,,34,127
97950,control_change,,,,,30,0,1,,,,,0,7,110,,
97970,control_change,,,,,20,0,1,,,,,0,7,109,,
97975,control_change,,,,,5,0,1,,,,,0,7,108,,
97985,control_change,,,,,10,0,1,,,,,0,7,107,,
98015,control_change,,,,,30,0,1,,,,,0,7,105,,
98025,control_change,,,,,10,0,1,,,,,0,7,104,,
98025,set_tempo,,,,,105,1,0,,641711,,,,,,,
98055,control_change,,,,,30,0,1,,,,,0,7,103,,
98065,set_tempo,,,,,40,1,0,,634920,,,,,,,
98105,set_tempo,,,,,40,1,0,,628272,,,,,,,
98135,set_tempo,,,,,30,1,0,,625000,,,,,,,
98165,set_tempo,,,,,30,1,0,,618556,,,,,,,
98165,control_change,,,,,110,0,1,,,,,0,7,103,,
98175,set_tempo,,,,,10,1,0,,615384,,,,,,,
98210,set_tempo,,,,,35,1,0,,609137,,,,,,,
98210,control_change,,,,,45,0,1,,,,,0,7,104,,
98220,control_change,,,,,10,0,1,,,,,0,64,0,,
98235,note_on,,,,,0,0,1,,,,,0,,,70,0
98235,note_on,,,,,15,0,1,,,,,0,,,73,0
98235,note_on,,,,,315,0,2,,,,,0,,,46,0
98235,note_on,,,,,0,0,2,,,,,0,,,34,0
98235,note_on,,,,,0,0,1,,,,,0,,,65,0
98240,set_tempo,,,,,30,1,0,,606060,,,,,,,
98245,set_tempo,,,,,5,1,0,,710059,,,,,,,
98250,note_on,,,,,15,0,2,,,,,0,,,34,127
98250,note_on,,,,,0,0,2,,,,,0,,,46,127
98250,note_on,,,,,0,0,1,,,,,0,,,72,123
98250,note_on,,,,,0,0,1,,,,,0,,,69,123
98250,note_on,,,,,15,0,1,,,,,0,,,65,123
98255,control_change,,,,,5,0,1,,,,,0,7,105,,
98275,set_tempo,,,,,30,1,0,,714285,,,,,,,
98276,note_on,,,,,26,0,2,,,,,0,,,46,0
98276,note_on,,,,,0,0,2,,,,,0,,,34,0
98276,note_on,,,,,0,0,1,,,,,0,,,69,0
98276,note_on,,,,,0,0,1,,,,,0,,,65,0
98276,note_on,,,,,21,0,1,,,,,0,,,72,0
98280,control_change,,,,,0,0,1,,,,,0,64,95,,
98280,note_on,,,,,0,0,1,,,,,0,,,73,123
98280,note_on,,,,,0,0,1,,,,,0,,,70,123
98280,note_on,,,,,4,0,1,,,,,0,,,65,123
98280,note_on,,,,,4,0,2,,,,,0,,,34,127
98280,note_on,,,,,0,0,2,,,,,0,,,46,127
98310,set_tempo,,,,,35,1,0,,594059,,,,,,,
98350,set_tempo,,,,,40,1,0,,588235,,,,,,,
98380,set_tempo,,,,,30,1,0,,585365,,,,,,,
98385,set_tempo,,,,,5,1,0,,582524,,,,,,,
98390,control_change,,,,,110,0,1,,,,,0,7,106,,
98395,set_tempo,,,,,10,1,0,,579710,,,,,,,
98405,set_tempo,,,,,10,1,0,,576923,,,,,,,
98435,set_tempo,,,,,30,1,0,,574162,,,,,,,
98440,set_tempo,,,,,5,1,0,,571428,,,,,,,
98475,set_tempo,,,,,35,1,0,,568720,,,,,,,
98500,control_change,,,,,110,0,1,,,,,0,7,107,,
98535,set_tempo,,,,,60,1,0,,566037,,,,,,,
98545,control_change,,,,,45,0,1,,,,,0,7,108,,
98580,control_change,,,,,35,0,1,,,,,0,64,0,,
98590,control_change,,,,,10,0,1,,,,,0,7,110,,
98595,note_on,,,,,0,0,2,,,,,0,,,34,0
98595,note_on,,,,,5,0,1,,,,,0,,,73,0
98595,note_on,,,,,0,0,1,,,,,0,,,70,0
98595,note_on,,,,,0,0,1,,,,,0,,,65,0
98595,note_on,,,,,315,0,2,,,,,0,,,46,0
98600,set_tempo,,,,,65,1,0,,701754,,,,,,,
98610,note_on,,,,,0,0,1,,,,,0,,,72,123
98610,note_on,,,,,0,0,1,,,,,0,,,75,123
98610,note_on,,,,,15,0,1,,,,,0,,,65,123
98610,note_on,,,,,15,0,2,,,,,0,,,34,127
98610,note_on,,,,,0,0,2,,,,,0,,,46,127
98630,control_change,,,,,20,0,1,,,,,0,7,111,,
98636,note_on,,,,,26,0,2,,,,,0,,,46,0
98636,note_on,,,,,0,0,2,,,,,0,,,34,0
98636,note_on,,,,,6,0,1,,,,,0,,,75,0
98636,note_on,,,,,0,0,1,,,,,0,,,72,0
98636,note_on,,,,,0,0,1,,,,,0,,,65,0
98640,note_on,,,,,4,0,2,,,,,0,,,34,127
98640,note_on,,,,,0,0,2,,,,,0,,,46,127
98640,note_on,,,,,4,0,1,,,,,0,,,77,123
98640,note_on,,,,,0,0,1,,,,,0,,,73,123
98640,note_on,,,,,0,0,1,,,,,0,,,65,123
98640,control_change,,,,,0,0,1,,,,,0,64,96,,
98670,set_tempo,,,,,70,1,0,,579710,,,,,,,
98705,set_tempo,,,,,35,1,0,,582524,,,,,,,
98715,control_change,,,,,75,0,1,,,,,0,7,113,,
98730,control_change,,,,,15,0,1,,,,,0,7,114,,
98735,set_tempo,,,,,30,1,0,,585365,,,,,,,
98770,control_change,,,,,40,0,1,,,,,0,7,115,,
98775,set_tempo,,,,,40,1,0,,588235,,,,,,,
98785,set_tempo,,,,,10,1,0,,591133,,,,,,,
98795,set_tempo,,,,,10,1,0,,594059,,,,,,,
98795,control_change,,,,,25,0,1,,,,,0,7,116,,
98800,control_change,,,,,5,0,1,,,,,0,7,117,,
98830,set_tempo,,,,,35,1,0,,597014,,,,,,,
98845,control_change,,,,,45,0,1,,,,,0,7,119,,
98870,set_tempo,,,,,40,1,0,,600000,,,,,,,
98880,control_change,,,,,35,0,1,,,,,0,64,0,,
98880,set_tempo,,,,,10,1,0,,603015,,,,,,,
98885,control_change,,,,,5,0,1,,,,,0,7,120,,
98890,control_change,,,,,5,0,1,,,,,0,7,121,,
98895,control_change,,,,,5,0,1,,,,,0,7,122,,
98905,set_tempo,,,,,25,1,0,,606060,,,,,,,
98910,control_change,,,,,15,0,1,,,,,0,7,123,,
98910,set_tempo,,,,,5,1,0,,609137,,,,,,,
98925,set_tempo,,,,,15,1,0,,612244,,,,,,,
98930,control_change,,,,,20,0,1,,,,,0,7,124,,
98930,set_tempo,,,,,5,1,0,,618556,,,,,,,
98935,set_tempo,,,,,5,1,0,,621761,,,,,,,
98940,control_change,,,,,10,0,1,,,,,0,7,123,,
98950,control_change,,,,,10,0,1,,,,,0,7,121,,
98950,set_tempo,,,,,15,1,0,,625000,,,,,,,
98955,note_on,,,,,0,0,1,,,,,0,,,73,0
98955,note_on,,,,,5,0,1,,,,,0,,,65,0
98955,note_on,,,,,315,0,2,,,,,0,,,46,0
98955,set_tempo,,,,,5,1,0,,784313,,,,,,,
98955,note_on,,,,,0,0,1,,,,,0,,,77,0
98955,note_on,,,,,0,0,2,,,,,0,,,34,0
98960,set_tempo,,,,,5,1,0,,789473,,,,,,,
98970,note_on,,,,,0,0,1,,,,,0,,,75,127
98970,note_on,,,,,15,0,2,,,,,0,,,33,127
98970,note_on,,,,,0,0,1,,,,,0,,,78,127
98970,note_on,,,,,0,0,2,,,,,0,,,45,127
98970,note_on,,,,,15,0,1,,,,,0,,,65,127
98985,control_change,,,,,15,0,1,,,,,0,7,119,,
98990,set_tempo,,,,,30,1,0,,727272,,,,,,,
98996,note_on,,,,,0,0,2,,,,,0,,,33,0
98996,note_on,,,,,0,0,1,,,,,0,,,65,0
98996,note_on,,,,,11,0,1,,,,,0,,,78,0
98996,note_on,,,,,0,0,1,,,,,0,,,75,0
98996,note_on,,,,,26,0,2,,,,,0,,,45,0
99000,note_on,,,,,0,0,2,,,,,0,,,46,127
99000,note_on,,,,,4,0,2,,,,,0,,,34,127
99000,control_change,,,,,0,0,1,,,,,0,7,118,,
99000,note_on,,,,,0,0,1,,,,,0,,,77,127
99000,note_on,,,,,4,0,1,,,,,0,,,65,127
99000,note_on,,,,,0,0,1,,,,,0,,,73,127
99005,set_tempo,,,,,15,1,0,,722891,,,,,,,
99010,control_change,,,,,10,0,1,,,,,0,7,117,,
99010,set_tempo,,,,,5,1,0,,718562,,,,,,,
99020,control_change,,,,,10,0,1,,,,,0,7,115,,
99025,set_tempo,,,,,15,1,0,,714285,,,,,,,
99030,set_tempo,,,,,5,1,0,,697674,,,,,,,
99035,set_tempo,,,,,5,1,0,,677966,,,,,,,
99040,control_change,,,,,20,0,1,,,,,0,7,114,,
99045,control_change,,,,,5,0,1,,,,,0,7,112,,
99085,control_change,,,,,40,0,1,,,,,0,7,111,,
99090,set_tempo,,,,,55,1,0,,670391,,,,,,,
99095,control_change,,,,,10,0,1,,,,,0,7,109,,
99105,set_tempo,,,,,15,1,0,,666666,,,,,,,
99125,control_change,,,,,30,0,1,,,,,0,7,107,,
99135,control_change,,,,,10,0,1,,,,,0,7,106,,
99135,set_tempo,,,,,30,1,0,,652173,,,,,,,
99140,set_tempo,,,,,5,1,0,,645161,,,,,,,
99145,set_tempo,,,,,5,1,0,,641711,,,,,,,
99145,control_change,,,,,10,0,1,,,,,0,7,105,,
99150,set_tempo,,,,,5,1,0,,638297,,,,,,,
99175,control_change,,,,,30,0,1,,,,,0,7,103,,
99205,control_change,,,,,30,0,1,,,,,0,7,102,,
99215,control_change,,,,,10,0,1,,,,,0,7,101,,
99245,control_change,,,,,30,0,1,,,,,0,7,100,,
99285,control_change,,,,,40,0,1,,,,,0,7,98,,
99310,set_tempo,,,,,160,1,0,,705882,,,,,,,
99315,note_on,,,,,30,0,1,,,,,0,,,77,0
99315,note_on,,,,,0,0,1,,,,,0,,,65,0
99315,note_on,,,,,0,0,1,,,,,0,,,73,0
99315,note_on,,,,,0,0,2,,,,,0,,,34,0
99315,note_on,,,,,315,0,2,,,,,0,,,46,0
99325,control_change,,,,,10,0,1,,,,,0,7,97,,
99330,control_change,,,,,0,0,1,,,,,0,7,96,,
99330,note_on,,,,,0,0,1,,,,,0,,,75,123
99330,note_on,,,,,0,0,1,,,,,0,,,72,123
99330,note_on,,,,,5,0,1,,,,,0,,,66,123
99330,note_on,,,,,0,0,2,,,,,0,,,45,123
99330,note_on,,,,,15,0,2,,,,,0,,,33,123
99340,control_change,,,,,10,0,1,,,,,0,7,95,,
99355,set_tempo,,,,,45,1,0,,710059,,,,,,,
99356,note_on,,,,,0,0,1,,,,,0,,,66,0
99356,note_on,,,,,0,0,1,,,,,0,,,72,0
99356,note_on,,,,,0,0,2,,,,,0,,,33,0
99356,note_on,,,,,26,0,2,,,,,0,,,45,0
99356,note_on,,,,,16,0,1,,,,,0,,,75,0
99360,note_on,,,,,0,0,2,,,,,0,,,46,119
99360,note_on,,,,,4,0,2,,,,,0,,,34,119
99360,note_on,,,,,4,0,1,,,,,0,,,65,120
99360,note_on,,,,,0,0,1,,,,,0,,,73,120
99360,note_on,,,,,0,0,1,,,,,0,,,70,120
99360,control_change,,,,,0,0,1,,,,,0,7,97,,
99395,set_tempo,,,,,40,1,0,,631578,,,,,,,
99415,set_tempo,,,,,20,1,0,,634920,,,,,,,
99420,set_tempo,,,,,5,1,0,,638297,,,,,,,
99430,set_tempo,,,,,10,1,0,,641711,,,,,,,
99450,set_tempo,,,,,20,1,0,,645161,,,,,,,
99455,set_tempo,,,,,5,1,0,,648648,,,,,,,
99480,control_change,,,,,120,0,1,,,,,0,7,96,,
99485,set_tempo,,,,,30,1,0,,652173,,,,,,,
99490,set_tempo,,,,,5,1,0,,655737,,,,,,,
99495,note_on,,,,,135,0,2,,,,,0,,,46,0
99495,note_on,,,,,0,0,2,,,,,0,,,34,0
99495,note_on,,,,,0,0,1,,,,,0,,,70,0
99495,note_on,,,,,15,0,1,,,,,0,,,73,0
99495,note_on,,,,,0,0,1,,,,,0,,,65,0
99510,note_on,,,,,15,0,2,,,,,0,,,41,119
99510,note_on,,,,,0,0,2,,,,,0,,,53,119
99510,set_tempo,,,,,20,1,0,,659340,,,,,,,
99510,note_on,,,,,15,0,1,,,,,0,,,63,120
99510,note_on,,,,,0,0,1,,,,,0,,,69,120
99510,note_on,,,,,0,0,1,,,,,0,,,72,120
99540,set_tempo,,,,,30,1,0,,662983,,,,,,,
99540,note_on,,,,,30,0,1,,,,,0,,,72,0
99540,note_on,,,,,0,0,1,,,,,0,,,69,0
99540,note_on,,,,,0,0,1,,,,,0,,,63,0
99540,note_on,,,,,0,0,1,,,,,0,,,61,111
99540,note_on,,,,,0,0,1,,,,,0,,,70,111
99540,note_on,,,,,0,0,2,,,,,0,,,41,0
99540,note_on,,,,,0,0,2,,,,,0,,,42,112
99540,note_on,,,,,0,0,2,,,,,0,,,54,112
99540,note_on,,,,,30,0,2,,,,,0,,,53,0
99580,set_tempo,,,,,40,1,0,,666666,,,,,,,
99610,set_tempo,,,,,30,1,0,,670391,,,,,,,
99650,set_tempo,,,,,40,1,0,,674157,,,,,,,
99675,note_on,,,,,135,0,1,,,,,0,,,70,0
99675,note_on,,,,,0,0,2,,,,,0,,,42,0
99675,note_on,,,,,0,0,1,,,,,0,,,61,0
99675,note_on,,,,,135,0,2,,,,,0,,,54,0
99690,set_tempo,,,,,40,1,0,,774193,,,,,,,
99690,note_on,,,,,0,0,2,,,,,0,,,51,102
99690,note_on,,,,,15,0,2,,,,,0,,,39,102
99690,note_on,,,,,15,0,1,,,,,0,,,63,105
99690,note_on,,,,,0,0,1,,,,,0,,,72,105
99720,note_on,,,,,0,0,2,,,,,0,,,39,0
99720,note_on,,,,,30,0,1,,,,,0,,,72,0
99720,note_on,,,,,0,0,1,,,,,0,,,63,0
99720,control_change,,,,,0,0,1,,,,,0,64,95,,
99720,note_on,,,,,0,0,1,,,,,0,,,70,107
99720,note_on,,,,,0,0,1,,,,,0,,,61,107
99720,note_on,,,,,0,0,2,,,,,0,,,41,103
99720,note_on,,,,,30,0,2,,,,,0,,,51,0
99720,note_on,,,,,0,0,2,,,,,0,,,53,103
99755,set_tempo,,,,,65,1,0,,689655,,,,,,,
99765,set_tempo,,,,,10,1,0,,693641,,,,,,,
99775,set_tempo,,,,,10,1,0,,697674,,,,,,,
99780,set_tempo,,,,,5,1,0,,701754,,,,,,,
99795,set_tempo,,,,,15,1,0,,705882,,,,,,,
99805,set_tempo,,,,,10,1,0,,710059,,,,,,,
99815,set_tempo,,,,,10,1,0,,714285,,,,,,,
99820,set_tempo,,,,,5,1,0,,718562,,,,,,,
99840,set_tempo,,,,,20,1,0,,722891,,,,,,,
99845,set_tempo,,,,,5,1,0,,727272,,,,,,,
99875,set_tempo,,,,,30,1,0,,736196,,,,,,,
99900,note_on,,,,,180,0,1,,,,,0,,,70,0
99900,note_on,,,,,0,0,1,,,,,0,,,69,59
99900,note_on,,,,,0,0,1,,,,,0,,,60,59
99900,note_on,,,,,0,0,1,,,,,0,,,61,0
99905,set_tempo,,,,,30,1,0,,740740,,,,,,,
99910,set_tempo,,,,,5,1,0,,745341,,,,,,,
99915,set_tempo,,,,,5,1,0,,750000,,,,,,,
99925,set_tempo,,,,,10,1,0,,754716,,,,,,,
99945,set_tempo,,,,,20,1,0,,759493,,,,,,,
99950,set_tempo,,,,,5,1,0,,745341,,,,,,,
99960,note_on,,,,,0,0,2,,,,,0,,,41,0
99960,note_on,,,,,0,0,1,,,,,0,,,60,0
99960,note_on,,,,,240,0,2,,,,,0,,,53,0
99960,note_on,,,,,60,0,1,,,,,0,,,69,0
99995,set_tempo,,,,,45,1,0,,710059,,,,,,,
100005,set_tempo,,,,,10,1,0,,701754,,,,,,,
100020,control_change,,,,,0,0,1,,,,,0,64,0,,
100020,set_tempo,,,,,15,1,0,,697674,,,,,,,
100020,control_change,,,,,60,0,1,,,,,0,7,78,,
100040,set_tempo,,,,,20,1,0,,693641,,,,,,,
100050,note_on,,,,,30,0,1,,,,,0,,,65,57
100060,set_tempo,,,,,20,1,0,,685714,,,,,,,
100076,note_on,,,,,26,0,1,,,,,0,,,65,0
100080,note_on,,,,,4,0,1,,,,,0,,,65,67
100090,set_tempo,,,,,30,1,0,,681818,,,,,,,
100095,set_tempo,,,,,5,1,0,,677966,,,,,,,
100115,set_tempo,,,,,20,1,0,,666666,,,,,,,
100140,note_on,,,,,0,0,1,,,,,0,,,65,48
100140,note_on,,,,,60,0,1,,,,,0,,,65,0
100145,set_tempo,,,,,30,1,0,,662983,,,,,,,
100194,note_on,,,,,54,0,1,,,,,0,,,65,0
100200,note_on,,,,,6,0,1,,,,,0,,,65,37
100205,set_tempo,,,,,60,1,0,,659340,,,,,,,
100245,set_tempo,,,,,40,1,0,,652173,,,,,,,
100250,set_tempo,,,,,5,1,0,,648648,,,,,,,
100254,note_on,,,,,54,0,1,,,,,0,,,65,0
100260,note_on,,,,,6,0,1,,,,,0,,,65,38
100270,set_tempo,,,,,20,1,0,,645161,,,,,,,
100300,set_tempo,,,,,30,1,0,,648648,,,,,,,
100317,note_on,,,,,57,0,1,,,,,0,,,65,0
100320,note_on,,,,,3,0,1,,,,,0,,,65,40
100345,set_tempo,,,,,45,1,0,,645161,,,,,,,
100374,note_on,,,,,54,0,1,,,,,0,,,65,0
100375,set_tempo,,,,,30,1,0,,641711,,,,,,,
100380,note_on,,,,,6,0,1,,,,,0,,,65,43
100420,set_tempo,,,,,45,1,0,,638297,,,,,,,
100434,note_on,,,,,54,0,1,,,,,0,,,65,0
100440,note_on,,,,,6,0,1,,,,,0,,,65,46
100497,note_on,,,,,57,0,1,,,,,0,,,65,0
100500,note_on,,,,,3,0,1,,,,,0,,,65,50
100554,note_on,,,,,54,0,1,,,,,0,,,65,0
100555,set_tempo,,,,,135,1,0,,641711,,,,,,,
100560,note_on,,,,,6,0,1,,,,,0,,,65,53
100565,set_tempo,,,,,10,1,0,,645161,,,,,,,
100575,set_tempo,,,,,10,1,0,,648648,,,,,,,
100585,set_tempo,,,,,10,1,0,,652173,,,,,,,
100600,set_tempo,,,,,15,1,0,,655737,,,,,,,
100610,set_tempo,,,,,10,1,0,,662983,,,,,,,
100614,note_on,,,,,54,0,1,,,,,0,,,65,0
100620,note_on,,,,,6,0,1,,,,,0,,,65,58
100640,set_tempo,,,,,30,1,0,,666666,,,,,,,
100645,set_tempo,,,,,5,1,0,,670391,,,,,,,
100650,set_tempo,,,,,5,1,0,,674157,,,,,,,
100655,set_tempo,,,,,5,1,0,,689655,,,,,,,
100665,set_tempo,,,,,10,1,0,,697674,,,,,,,
100670,set_tempo,,,,,5,1,0,,705882,,,,,,,
100675,set_tempo,,,,,5,1,0,,750000,,,,,,,
100677,note_on,,,,,57,0,1,,,,,0,,,65,0
100680,note_on,,,,,3,0,1,,,,,0,,,65,60
100680,set_tempo,,,,,5,1,0,,764331,,,,,,,
100685,set_tempo,,,,,5,1,0,,774193,,,,,,,
100690,set_tempo,,,,,5,1,0,,779220,,,,,,,
100695,set_tempo,,,,,5,1,0,,839160,,,,,,,
100700,set_tempo,,,,,5,1,0,,863309,,,,,,,
100705,set_tempo,,,,,5,1,0,,875912,,,,,,,
100720,note_on,,,,,40,0,1,,,,,0,,,65,0
100720,set_tempo,,,,,15,1,0,,882352,,,,,,,
100725,set_tempo,,,,,5,1,0,,1200000,,,,,,,
100725,note_on,,,,,5,0,1,,,,,0,,,65,64
100740,note_on,,,,,15,0,1,,,,,0,,,65,0
100740,note_on,,,,,780,0,2,,,,,0,,,62,46
100740,note_on,,,,,0,0,2,,,,,0,,,65,46
100740,set_tempo,,,,,15,1,0,,779220,,,,,,,
100740,note_on,,,,,0,0,1,,,,,0,,,70,64
100745,set_tempo,,,,,5,1,0,,784313,,,,,,,
100760,set_tempo,,,,,15,1,0,,769230,,,,,,,
100790,set_tempo,,,,,30,1,0,,750000,,,,,,,
100795,set_tempo,,,,,5,1,0,,736196,,,,,,,
100800,note_on,,,,,60,0,1,,,,,0,,,70,0
100800,note_on,,,,,0,0,2,,,,,0,,,62,0
100800,note_on,,,,,60,0,2,,,,,0,,,65,0
100800,set_tempo,,,,,5,1,0,,670391,,,,,,,
100800,control_change,,,,,0,0,1,,,,,0,64,97,,
100800,note_on,,,,,0,0,1,,,,,0,,,69,67
100800,note_on,,,,,0,0,2,,,,,0,,,53,54
100805,set_tempo,,,,,5,1,0,,666666,,,,,,,
100835,set_tempo,,,,,30,1,0,,674157,,,,,,,
100840,set_tempo,,,,,5,1,0,,677966,,,,,,,
100850,set_tempo,,,,,10,1,0,,685714,,,,,,,
100855,set_tempo,,,,,5,1,0,,689655,,,,,,,
100860,set_tempo,,,,,5,1,0,,693641,,,,,,,
100860,note_on,,,,,60,0,2,,,,,0,,,53,0
100875,set_tempo,,,,,15,1,0,,701754,,,,,,,
100880,set_tempo,,,,,5,1,0,,705882,,,,,,,
100890,note_on,,,,,0,0,2,,,,,0,,,63,49
100890,note_on,,,,,30,0,2,,,,,0,,,60,49
100915,note_on,,,,,0,0,2,,,,,0,,,60,0
100915,note_on,,,,,25,0,2,,,,,0,,,63,0
100920,control_change,,,,,120,0,1,,,,,0,64,0,,
100920,note_on,,,,,0,0,2,,,,,0,,,63,46
100920,note_on,,,,,5,0,2,,,,,0,,,60,46
100980,note_on,,,,,60,0,2,,,,,0,,,63,0
100980,note_on,,,,,0,0,2,,,,,0,,,60,0
100980,note_on,,,,,0,0,1,,,,,0,,,67,60
100980,note_on,,,,,60,0,1,,,,,0,,,69,0
100980,note_on,,,,,0,0,2,,,,,0,,,53,56
100980,control_change,,,,,0,0,1,,,,,0,64,96,,
100990,set_tempo,,,,,110,1,0,,701754,,,,,,,
101040,note_on,,,,,60,0,2,,,,,0,,,53,0
101060,set_tempo,,,,,70,1,0,,697674,,,,,,,
101070,note_on,,,,,30,0,2,,,,,0,,,58,51
101070,note_on,,,,,0,0,2,,,,,0,,,62,51
101095,note_on,,,,,25,0,2,,,,,0,,,62,0
101095,note_on,,,,,0,0,2,,,,,0,,,58,0
101100,note_on,,,,,5,0,2,,,,,0,,,58,47
101100,note_on,,,,,0,0,2,,,,,0,,,62,47
101100,note_on,,,,,120,0,1,,,,,0,,,79,59
101100,control_change,,,,,0,0,1,,,,,0,64,0,,
101115,set_tempo,,,,,55,1,0,,693641,,,,,,,
101155,set_tempo,,,,,40,1,0,,689655,,,,,,,
101160,note_on,,,,,0,0,1,,,,,0,,,65,62
101160,note_on,,,,,0,0,1,,,,,0,,,67,0
101160,note_on,,,,,60,0,1,,,,,0,,,79,0
101160,control_change,,,,,0,0,1,,,,,0,64,96,,
101160,note_on,,,,,0,0,2,,,,,0,,,58,0
101160,note_on,,,,,60,0,2,,,,,0,,,62,0
101160,note_on,,,,,0,0,1,,,,,0,,,77,55
101160,note_on,,,,,0,0,2,,,,,0,,,53,55
101205,set_tempo,,,,,50,1,0,,685714,,,,,,,
101214,note_on,,,,,54,0,2,,,,,0,,,53,0
101214,note_on,,,,,54,0,1,,,,,0,,,65,0
101220,note_on,,,,,6,0,1,,,,,0,,,69,60
101220,note_on,,,,,6,0,2,,,,,0,,,60,55
101220,note_on,,,,,0,0,2,,,,,0,,,57,55
101230,set_tempo,,,,,25,1,0,,681818,,,,,,,
101245,set_tempo,,,,,15,1,0,,677966,,,,,,,
101270,note_on,,,,,50,0,1,,,,,0,,,69,0
101270,note_on,,,,,50,0,2,,,,,0,,,57,0
101270,note_on,,,,,0,0,2,,,,,0,,,60,0
101280,note_on,,,,,0,0,2,,,,,0,,,57,55
101280,note_on,,,,,10,0,1,,,,,0,,,70,65
101280,note_on,,,,,10,0,2,,,,,0,,,60,55
101285,set_tempo,,,,,40,1,0,,674157,,,,,,,
101290,set_tempo,,,,,5,1,0,,670391,,,,,,,
101320,set_tempo,,,,,30,1,0,,666666,,,,,,,
101330,note_on,,,,,50,0,1,,,,,0,,,70,0
101330,note_on,,,,,0,0,2,,,,,0,,,60,0
101330,note_on,,,,,50,0,2,,,,,0,,,57,0
101335,control_change,,,,,5,0,1,,,,,0,64,0,,
101340,control_change,,,,,0,0,1,,,,,0,64,95,,
101340,note_on,,,,,10,0,2,,,,,0,,,51,61
101340,note_on,,,,,0,0,1,,,,,0,,,65,65
101340,note_on,,,,,0,0,1,,,,,0,,,72,65
101340,note_on,,,,,5,0,1,,,,,0,,,77,0
101390,note_on,,,,,50,0,1,,,,,0,,,72,0
101390,set_tempo,,,,,70,1,0,,662983,,,,,,,
101394,note_on,,,,,54,0,2,,,,,0,,,51,0
101400,note_on,,,,,0,0,2,,,,,0,,,53,55
101400,note_on,,,,,6,0,2,,,,,0,,,57,55
101400,note_on,,,,,10,0,1,,,,,0,,,74,61
101400,set_tempo,,,,,10,1,0,,659340,,,,,,,
101400,note_on,,,,,0,0,2,,,,,0,,,60,55
101450,note_on,,,,,50,0,1,,,,,0,,,74,0
101450,note_on,,,,,0,0,2,,,,,0,,,57,0
101450,note_on,,,,,50,0,2,,,,,0,,,60,0
101450,note_on,,,,,0,0,2,,,,,0,,,53,0
101455,set_tempo,,,,,55,1,0,,655737,,,,,,,
101460,note_on,,,,,0,0,2,,,,,0,,,60,49
101460,note_on,,,,,0,0,2,,,,,0,,,57,49
101460,note_on,,,,,10,0,2,,,,,0,,,53,49
101460,note_on,,,,,10,0,1,,,,,0,,,75,56
101475,set_tempo,,,,,20,1,0,,652173,,,,,,,
101510,note_on,,,,,50,0,2,,,,,0,,,60,0
101510,note_on,,,,,0,0,2,,,,,0,,,57,0
101510,note_on,,,,,0,0,2,,,,,0,,,53,0
101510,note_on,,,,,50,0,1,,,,,0,,,75,0
101515,set_tempo,,,,,40,1,0,,645161,,,,,,,
101515,control_change,,,,,5,0,1,,,,,0,64,0,,
101520,note_on,,,,,0,0,1,,,,,0,,,77,62
101520,note_on,,,,,0,0,1,,,,,0,,,70,48
101520,note_on,,,,,5,0,1,,,,,0,,,65,0
101520,note_on,,,,,10,0,2,,,,,0,,,50,62
101520,control_change,,,,,0,0,1,,,,,0,64,96,,
101525,set_tempo,,,,,10,1,0,,645161,,,,,,,
101530,set_tempo,,,,,5,1,0,,641711,,,,,,,
101535,set_tempo,,,,,5,1,0,,645161,,,,,,,
101565,set_tempo,,,,,30,1,0,,648648,,,,,,,
101570,set_tempo,,,,,5,1,0,,652173,,,,,,,
101570,note_on,,,,,50,0,1,,,,,0,,,70,0
101580,note_on,,,,,0,0,2,,,,,0,,,62,53
101580,note_on,,,,,10,0,1,,,,,0,,,74,56
101580,note_on,,,,,0,0,2,,,,,0,,,58,53
101580,note_on,,,,,0,0,2,,,,,0,,,53,53
101580,note_on,,,,,60,0,2,,,,,0,,,50,0
101590,set_tempo,,,,,20,1,0,,659340,,,,,,,
101605,set_tempo,,,,,15,1,0,,662983,,,,,,,
101615,set_tempo,,,,,10,1,0,,666666,,,,,,,
101625,note_on,,,,,0,0,2,,,,,0,,,62,0
101625,note_on,,,,,0,0,2,,,,,0,,,53,0
101625,note_on,,,,,45,0,2,,,,,0,,,58,0
101630,note_on,,,,,50,0,1,,,,,0,,,74,0
101630,set_tempo,,,,,15,1,0,,670391,,,,,,,
101635,set_tempo,,,,,5,1,0,,674157,,,,,,,
101640,note_on,,,,,0,0,2,,,,,0,,,53,53
101640,note_on,,,,,0,0,2,,,,,0,,,58,53
101640,note_on,,,,,15,0,2,,,,,0,,,62,53
101640,note_on,,,,,10,0,1,,,,,0,,,75,59
101645,set_tempo,,,,,10,1,0,,677966,,,,,,,
101650,set_tempo,,,,,5,1,0,,681818,,,,,,,
101665,set_tempo,,,,,15,1,0,,685714,,,,,,,
101670,set_tempo,,,,,5,1,0,,689655,,,,,,,
101685,set_tempo,,,,,15,1,0,,693641,,,,,,,
101685,note_on,,,,,45,0,2,,,,,0,,,53,0
101685,note_on,,,,,0,0,2,,,,,0,,,58,0
101685,note_on,,,,,0,0,2,,,,,0,,,62,0
101690,set_tempo,,,,,5,1,0,,697674,,,,,,,
101690,note_on,,,,,50,0,1,,,,,0,,,75,0
101695,control_change,,,,,5,0,1,,,,,0,64,0,,
101700,control_change,,,,,0,0,1,,,,,0,64,95,,
101700,note_on,,,,,0,0,1,,,,,0,,,77,65
101700,note_on,,,,,0,0,1,,,,,0,,,75,62
101700,note_on,,,,,15,0,2,,,,,0,,,48,62
101700,note_on,,,,,5,0,1,,,,,0,,,77,0
101710,set_tempo,,,,,20,1,0,,705882,,,,,,,
101725,set_tempo,,,,,15,1,0,,710059,,,,,,,
101730,set_tempo,,,,,5,1,0,,718562,,,,,,,
101735,set_tempo,,,,,5,1,0,,722891,,,,,,,
101745,set_tempo,,,,,10,1,0,,727272,,,,,,,
101750,set_tempo,,,,,5,1,0,,731707,,,,,,,
101750,note_on,,,,,50,0,1,,,,,0,,,77,0
101760,note_on,,,,,60,0,2,,,,,0,,,48,0
101760,note_on,,,,,10,0,1,,,,,0,,,79,66
101760,note_on,,,,,0,0,2,,,,,0,,,53,54
101760,note_on,,,,,0,0,2,,,,,0,,,63,54
101760,note_on,,,,,0,0,2,,,,,0,,,57,54
101760,set_tempo,,,,,10,1,0,,736196,,,,,,,
101770,set_tempo,,,,,10,1,0,,740740,,,,,,,
101775,set_tempo,,,,,5,1,0,,745341,,,,,,,
101785,set_tempo,,,,,10,1,0,,750000,,,,,,,
101805,note_on,,,,,0,0,2,,,,,0,,,57,0
101805,note_on,,,,,45,0,2,,,,,0,,,53,0
101805,set_tempo,,,,,20,1,0,,754716,,,,,,,
101805,note_on,,,,,0,0,2,,,,,0,,,63,0
101810,note_on,,,,,50,0,1,,,,,0,,,79,0
101815,set_tempo,,,,,10,1,0,,759493,,,,,,,
101820,note_on,,,,,10,0,1,,,,,0,,,81,71
101820,note_on,,,,,15,0,2,,,,,0,,,63,54
101820,note_on,,,,,0,0,2,,,,,0,,,53,54
101820,note_on,,,,,0,0,2,,,,,0,,,57,54
101830,set_tempo,,,,,15,1,0,,764331,,,,,,,
101835,set_tempo,,,,,5,1,0,,769230,,,,,,,
101840,set_tempo,,,,,5,1,0,,754716,,,,,,,
101845,set_tempo,,,,,5,1,0,,769230,,,,,,,
101845,control_change,,,,,25,0,1,,,,,0,64,0,,
101850,set_tempo,,,,,5,1,0,,827586,,,,,,,
101855,set_tempo,,,,,5,1,0,,851063,,,,,,,
101860,set_tempo,,,,,5,1,0,,857142,,,,,,,
101860,note_on,,,,,15,0,1,,,,,0,,,81,0
101865,note_on,,,,,45,0,2,,,,,0,,,53,0
101865,note_on,,,,,0,0,2,,,,,0,,,57,0
101865,note_on,,,,,0,0,2,,,,,0,,,63,0
101865,set_tempo,,,,,5,1,0,,909090,,,,,,,
101865,note_on,,,,,5,0,1,,,,,0,,,81,84
101880,note_on,,,,,15,0,2,,,,,0,,,46,62
101880,control_change,,,,,0,0,1,,,,,0,64,96,,
101880,note_on,,,,,0,0,1,,,,,0,,,74,69
101880,note_on,,,,,0,0,1,,,,,0,,,84,69
101880,note_on,,,,,0,0,1,,,,,0,,,75,0
101880,note_on,,,,,15,0,1,,,,,0,,,81,0
101885,set_tempo,,,,,20,1,0,,681818,,,,,,,
101890,set_tempo,,,,,5,1,0,,693641,,,,,,,
101915,set_tempo,,,,,25,1,0,,697674,,,,,,,
101940,note_on,,,,,60,0,2,,,,,0,,,46,0
101940,note_on,,,,,0,0,2,,,,,0,,,62,57
101940,note_on,,,,,0,0,2,,,,,0,,,58,57
101940,note_on,,,,,0,0,2,,,,,0,,,53,57
101950,set_tempo,,,,,35,1,0,,701754,,,,,,,
101985,note_on,,,,,45,0,2,,,,,0,,,53,0
101985,note_on,,,,,0,0,2,,,,,0,,,58,0
101985,note_on,,,,,0,0,2,,,,,0,,,62,0
102000,note_on,,,,,0,0,2,,,,,0,,,53,52
102000,note_on,,,,,0,0,2,,,,,0,,,58,52
102000,note_on,,,,,15,0,2,,,,,0,,,62,52
102035,set_tempo,,,,,85,1,0,,705882,,,,,,,
102045,note_on,,,,,0,0,2,,,,,0,,,58,0
102045,note_on,,,,,0,0,2,,,,,0,,,62,0
102045,note_on,,,,,45,0,2,,,,,0,,,53,0
102055,control_change,,,,,175,0,1,,,,,0,64,0,,
102060,note_on,,,,,0,0,2,,,,,0,,,58,47
102060,note_on,,,,,0,0,2,,,,,0,,,53,47
102060,set_tempo,,,,,25,1,0,,710059,,,,,,,
102060,note_on,,,,,5,0,1,,,,,0,,,84,0
102060,note_on,,,,,0,0,1,,,,,0,,,82,58
102060,note_on,,,,,15,0,2,,,,,0,,,62,47
102070,set_tempo,,,,,10,1,0,,714285,,,,,,,
102085,set_tempo,,,,,15,1,0,,718562,,,,,,,
102090,set_tempo,,,,,5,1,0,,714285,,,,,,,
102105,note_on,,,,,0,0,2,,,,,0,,,62,0
102105,note_on,,,,,0,0,2,,,,,0,,,58,0
102105,note_on,,,,,45,0,2,,,,,0,,,53,0
102120,note_on,,,,,15,0,2,,,,,0,,,65,46
102120,note_on,,,,,0,0,1,,,,,0,,,74,0
102120,note_on,,,,,60,0,1,,,,,0,,,82,0
102140,set_tempo,,,,,50,1,0,,710059,,,,,,,
102150,set_tempo,,,,,10,1,0,,705882,,,,,,,
102160,set_tempo,,,,,10,1,0,,701754,,,,,,,
102165,note_on,,,,,45,0,2,,,,,0,,,65,0
102175,set_tempo,,,,,15,1,0,,697674,,,,,,,
102180,note_on,,,,,15,0,2,,,,,0,,,65,46
102180,note_on,,,,,60,0,1,,,,,0,,,82,62
102180,note_on,,,,,0,0,1,,,,,0,,,74,62
102185,set_tempo,,,,,10,1,0,,693641,,,,,,,
102200,set_tempo,,,,,15,1,0,,689655,,,,,,,
102215,set_tempo,,,,,15,1,0,,685714,,,,,,,
102235,set_tempo,,,,,20,1,0,,681818,,,,,,,
102240,note_on,,,,,0,0,2,,,,,0,,,65,59
102240,note_on,,,,,60,0,2,,,,,0,,,65,0
102240,note_on,,,,,0,0,1,,,,,0,,,72,70
102240,note_on,,,,,60,0,1,,,,,0,,,74,0
102240,note_on,,,,,0,0,1,,,,,0,,,82,0
102240,control_change,,,,,0,0,1,,,,,0,64,97,,
102240,note_on,,,,,0,0,1,,,,,0,,,81,70
102255,set_tempo,,,,,20,1,0,,677966,,,,,,,
102270,set_tempo,,,,,15,1,0,,674157,,,,,,,
102300,note_on,,,,,60,0,2,,,,,0,,,65,0
102300,note_on,,,,,0,0,2,,,,,0,,,53,46
102310,set_tempo,,,,,40,1,0,,670391,,,,,,,
102345,note_on,,,,,45,0,2,,,,,0,,,53,0
102360,control_change,,,,,120,0,1,,,,,0,64,0,,
102360,note_on,,,,,15,0,2,,,,,0,,,53,54
102365,set_tempo,,,,,55,1,0,,666666,,,,,,,
102385,set_tempo,,,,,20,1,0,,662983,,,,,,,
102405,note_on,,,,,45,0,2,,,,,0,,,53,0
102420,note_on,,,,,60,0,1,,,,,0,,,72,0
102420,control_change,,,,,0,0,1,,,,,0,64,96,,
102420,note_on,,,,,0,0,1,,,,,0,,,79,63
102420,note_on,,,,,0,0,1,,,,,0,,,69,63
102420,note_on,,,,,0,0,1,,,,,0,,,81,0
102420,note_on,,,,,15,0,2,,,,,0,,,53,60
102425,set_tempo,,,,,40,1,0,,659340,,,,,,,
102465,note_on,,,,,45,0,2,,,,,0,,,53,0
102480,note_on,,,,,15,0,2,,,,,0,,,53,63
102485,set_tempo,,,,,60,1,0,,655737,,,,,,,
102525,note_on,,,,,45,0,2,,,,,0,,,53,0
102540,control_change,,,,,120,0,1,,,,,0,64,0,,
102540,note_on,,,,,15,0,2,,,,,0,,,63,69
102565,set_tempo,,,,,80,1,0,,652173,,,,,,,
102570,set_tempo,,,,,5,1,0,,648648,,,,,,,
102600,note_on,,,,,0,0,2,,,,,0,,,62,75
102600,control_change,,,,,0,0,1,,,,,0,64,96,,
102600,note_on,,,,,0,0,1,,,,,0,,,70,62
102600,note_on,,,,,0,0,1,,,,,0,,,77,62
102600,note_on,,,,,0,0,1,,,,,0,,,69,0
102600,note_on,,,,,60,0,1,,,,,0,,,79,0
102600,note_on,,,,,60,0,2,,,,,0,,,63,0
102625,set_tempo,,,,,55,1,0,,645161,,,,,,,
102645,note_on,,,,,45,0,1,,,,,0,,,70,0
102645,note_on,,,,,0,0,1,,,,,0,,,77,0
102660,note_on,,,,,15,0,1,,,,,0,,,81,64
102660,note_on,,,,,60,0,2,,,,,0,,,65,58
102710,note_on,,,,,50,0,1,,,,,0,,,81,0
102710,note_on,,,,,50,0,2,,,,,0,,,65,0
102720,note_on,,,,,10,0,1,,,,,0,,,82,66
102720,note_on,,,,,10,0,2,,,,,0,,,65,53
102735,set_tempo,,,,,110,1,0,,641711,,,,,,,
102770,note_on,,,,,50,0,2,,,,,0,,,65,0
102770,note_on,,,,,50,0,1,,,,,0,,,82,0
102775,control_change,,,,,5,0,1,,,,,0,64,0,,
102780,control_change,,,,,0,0,1,,,,,0,64,95,,
102780,note_on,,,,,0,0,1,,,,,0,,,84,70
102780,note_on,,,,,5,0,1,,,,,0,,,81,70
102780,note_on,,,,,0,0,2,,,,,0,,,65,63
102780,note_on,,,,,0,0,2,,,,,0,,,60,78
102780,note_on,,,,,10,0,2,,,,,0,,,62,0
102825,set_tempo,,,,,90,1,0,,638297,,,,,,,
102830,note_on,,,,,50,0,1,,,,,0,,,84,0
102834,note_on,,,,,54,0,2,,,,,0,,,65,0
102840,note_on,,,,,6,0,2,,,,,0,,,65,57
102840,note_on,,,,,10,0,1,,,,,0,,,86,72
102890,note_on,,,,,50,0,2,,,,,0,,,65,0
102890,note_on,,,,,50,0,1,,,,,0,,,86,0
102900,note_on,,,,,10,0,2,,,,,0,,,65,57
102900,note_on,,,,,10,0,1,,,,,0,,,87,74
102905,set_tempo,,,,,80,1,0,,634920,,,,,,,
102910,set_tempo,,,,,5,1,0,,631578,,,,,,,
102950,note_on,,,,,50,0,2,,,,,0,,,65,0
102950,note_on,,,,,50,0,1,,,,,0,,,87,0
102955,control_change,,,,,5,0,1,,,,,0,64,0,,
102960,note_on,,,,,10,0,2,,,,,0,,,60,0
102960,note_on,,,,,5,0,1,,,,,0,,,81,0
102960,note_on,,,,,0,0,1,,,,,0,,,82,60
102960,note_on,,,,,0,0,1,,,,,0,,,86,83
102960,control_change,,,,,0,0,1,,,,,0,64,95,,
102960,note_on,,,,,0,0,2,,,,,0,,,58,70
102960,note_on,,,,,0,0,2,,,,,0,,,65,70
102970,set_tempo,,,,,60,1,0,,628272,,,,,,,
103010,set_tempo,,,,,40,1,0,,625000,,,,,,,
103014,note_on,,,,,0,0,2,,,,,0,,,58,0
103014,note_on,,,,,54,0,2,,,,,0,,,65,0
103014,note_on,,,,,54,0,1,,,,,0,,,82,0
103020,note_on,,,,,6,0,1,,,,,0,,,82,73
103020,note_on,,,,,6,0,2,,,,,0,,,62,75
103060,set_tempo,,,,,50,1,0,,621761,,,,,,,
103074,note_on,,,,,54,0,1,,,,,0,,,82,0
103080,note_on,,,,,6,0,1,,,,,0,,,82,72
103080,note_on,,,,,60,0,2,,,,,0,,,62,0
103080,note_on,,,,,0,0,2,,,,,0,,,63,77
103110,set_tempo,,,,,50,1,0,,618556,,,,,,,
103110,note_on,,,,,30,0,1,,,,,0,,,86,0
103115,set_tempo,,,,,5,1,0,,615384,,,,,,,
103134,note_on,,,,,24,0,1,,,,,0,,,82,0
103135,control_change,,,,,1,0,1,,,,,0,64,0,,
103140,note_on,,,,,0,0,1,,,,,0,,,94,94
103140,note_on,,,,,5,0,1,,,,,0,,,82,94
103140,control_change,,,,,0,0,1,,,,,0,64,96,,
103140,note_on,,,,,60,0,2,,,,,0,,,63,0
103140,note_on,,,,,0,0,1,,,,,0,,,86,94
103140,note_on,,,,,0,0,2,,,,,0,,,65,83
103165,set_tempo,,,,,50,1,0,,612244,,,,,,,
103194,note_on,,,,,54,0,1,,,,,0,,,82,0
103195,set_tempo,,,,,30,1,0,,609137,,,,,,,
103200,note_on,,,,,0,0,2,,,,,0,,,67,90
103200,note_on,,,,,6,0,1,,,,,0,,,82,79
103200,note_on,,,,,60,0,2,,,,,0,,,65,0
103230,set_tempo,,,,,35,1,0,,606060,,,,,,,
103254,note_on,,,,,54,0,1,,,,,0,,,82,0
103260,note_on,,,,,6,0,1,,,,,0,,,82,79
103260,note_on,,,,,0,0,2,,,,,0,,,68,94
103260,note_on,,,,,60,0,2,,,,,0,,,67,0
103270,set_tempo,,,,,40,1,0,,603015,,,,,,,
103310,control_change,,,,,50,0,1,,,,,0,64,0,,
103314,note_on,,,,,4,0,1,,,,,0,,,82,0
103320,note_on,,,,,0,0,1,,,,,0,,,82,105
103320,note_on,,,,,0,0,1,,,,,0,,,87,105
103320,note_on,,,,,0,0,1,,,,,0,,,94,105
103320,note_on,,,,,60,0,2,,,,,0,,,68,0
103320,note_on,,,,,0,0,2,,,,,0,,,67,95
103320,note_on,,,,,6,0,1,,,,,0,,,86,0
103320,note_on,,,,,0,0,1,,,,,0,,,94,0
103320,control_change,,,,,0,0,1,,,,,0,64,96,,
103330,set_tempo,,,,,60,1,0,,615384,,,,,,,
103340,set_tempo,,,,,10,1,0,,618556,,,,,,,
103355,set_tempo,,,,,15,1,0,,621761,,,,,,,
103375,set_tempo,,,,,20,1,0,,625000,,,,,,,
103380,note_on,,,,,60,0,2,,,,,0,,,75,93
103380,set_tempo,,,,,5,1,0,,628272,,,,,,,
103380,note_on,,,,,60,0,1,,,,,0,,,94,0
103380,note_on,,,,,0,0,1,,,,,0,,,87,0
103380,note_on,,,,,0,0,1,,,,,0,,,82,0
103380,note_on,,,,,0,0,1,,,,,0,,,91,100
103395,set_tempo,,,,,15,1,0,,631578,,,,,,,
103425,set_tempo,,,,,30,1,0,,638297,,,,,,,
103434,note_on,,,,,54,0,2,,,,,0,,,75,0
103435,set_tempo,,,,,10,1,0,,641711,,,,,,,
103440,note_on,,,,,6,0,2,,,,,0,,,75,85
103440,note_on,,,,,60,0,1,,,,,0,,,91,0
103440,note_on,,,,,0,0,1,,,,,0,,,87,95
103445,set_tempo,,,,,10,1,0,,645161,,,,,,,
103455,set_tempo,,,,,10,1,0,,648648,,,,,,,
103460,set_tempo,,,,,5,1,0,,652173,,,,,,,
103490,set_tempo,,,,,30,1,0,,655737,,,,,,,
103490,note_on,,,,,50,0,1,,,,,0,,,87,0
103494,note_on,,,,,54,0,2,,,,,0,,,75,0
103495,control_change,,,,,5,0,1,,,,,0,64,0,,
103500,note_on,,,,,0,0,2,,,,,0,,,68,80
103500,note_on,,,,,0,0,2,,,,,0,,,72,80
103500,note_on,,,,,6,0,2,,,,,0,,,67,0
103500,note_on,,,,,5,0,1,,,,,0,,,86,96
103500,control_change,,,,,0,0,1,,,,,0,64,96,,
103520,set_tempo,,,,,30,1,0,,662983,,,,,,,
103535,note_on,,,,,35,0,1,,,,,0,,,86,0
103535,note_on,,,,,0,0,1,,,,,0,,,87,89
103540,set_tempo,,,,,20,1,0,,670391,,,,,,,
103550,set_tempo,,,,,10,1,0,,674157,,,,,,,
103560,note_on,,,,,25,0,1,,,,,0,,,87,0
103560,note_on,,,,,60,0,2,,,,,0,,,75,72
103560,note_on,,,,,0,0,1,,,,,0,,,89,85
103575,control_change,,,,,15,0,1,,,,,0,64,0,,
103580,note_on,,,,,5,0,1,,,,,0,,,89,0
103580,note_on,,,,,0,0,1,,,,,0,,,87,82
103580,set_tempo,,,,,30,1,0,,677966,,,,,,,
103600,note_on,,,,,20,0,1,,,,,0,,,87,0
103600,set_tempo,,,,,20,1,0,,685714,,,,,,,
103601,note_on,,,,,1,0,1,,,,,0,,,86,77
103614,note_on,,,,,54,0,2,,,,,0,,,75,0
103620,note_on,,,,,6,0,2,,,,,0,,,75,68
103621,note_on,,,,,20,0,1,,,,,0,,,86,0
103621,note_on,,,,,0,0,1,,,,,0,,,84,74
103630,set_tempo,,,,,30,1,0,,689655,,,,,,,
103635,set_tempo,,,,,5,1,0,,693641,,,,,,,
103640,set_tempo,,,,,5,1,0,,697674,,,,,,,
103641,note_on,,,,,0,0,1,,,,,0,,,82,70
103641,note_on,,,,,20,0,1,,,,,0,,,84,0
103661,note_on,,,,,0,0,1,,,,,0,,,80,67
103661,note_on,,,,,20,0,1,,,,,0,,,82,0
103670,set_tempo,,,,,30,1,0,,701754,,,,,,,
103674,note_on,,,,,54,0,2,,,,,0,,,75,0
103680,note_on,,,,,19,0,1,,,,,0,,,79,65
103680,control_change,,,,,0,0,1,,,,,0,64,95,,
103680,note_on,,,,,6,0,2,,,,,0,,,68,0
103680,note_on,,,,,0,0,2,,,,,0,,,75,68
103680,note_on,,,,,0,0,2,,,,,0,,,70,68
103680,note_on,,,,,0,0,2,,,,,0,,,72,0
103681,note_on,,,,,1,0,1,,,,,0,,,80,0
103705,set_tempo,,,,,35,1,0,,710059,,,,,,,
103710,set_tempo,,,,,5,1,0,,714285,,,,,,,
103740,set_tempo,,,,,30,1,0,,718562,,,,,,,
103750,set_tempo,,,,,10,1,0,,722891,,,,,,,
103760,set_tempo,,,,,10,1,0,,727272,,,,,,,
103770,set_tempo,,,,,10,1,0,,731707,,,,,,,
103775,set_tempo,,,,,5,1,0,,845070,,,,,,,
103860,note_on,,,,,179,0,1,,,,,0,,,79,0
103860,note_on,,,,,0,0,1,,,,,0,,,74,55
103860,note_on,,,,,0,0,1,,,,,0,,,77,55
103860,note_on,,,,,180,0,2,,,,,0,,,75,0
103880,set_tempo,,,,,105,1,0,,839160,,,,,,,
103890,set_tempo,,,,,10,1,0,,794701,,,,,,,
103900,set_tempo,,,,,10,1,0,,779220,,,,,,,
103905,set_tempo,,,,,5,1,0,,769230,,,,,,,
103910,set_tempo,,,,,5,1,0,,764331,,,,,,,
103920,note_on,,,,,0,0,1,,,,,0,,,74,0
103920,note_on,,,,,60,0,2,,,,,0,,,70,0
103920,set_tempo,,,,,10,1,0,,659340,,,,,,,
103920,note_on,,,,,60,0,1,,,,,0,,,77,0
103960,set_tempo,,,,,40,1,0,,662983,,,,,,,
103965,set_tempo,,,,,5,1,0,,666666,,,,,,,
103975,set_tempo,,,,,10,1,0,,666666,,,,,,,
103980,note_on,,,,,60,0,1,,,,,0,,,70,64
103980,control_change,,,,,0,0,1,,,,,0,64,0,,
104030,note_on,,,,,50,0,1,,,,,0,,,70,0
104040,note_on,,,,,10,0,1,,,,,0,,,70,74
104097,note_on,,,,,57,0,1,,,,,0,,,70,0
104100,note_on,,,,,3,0,1,,,,,0,,,70,79
104154,note_on,,,,,54,0,1,,,,,0,,,70,0
104160,note_on,,,,,6,0,1,,,,,0,,,70,86
104214,note_on,,,,,54,0,1,,,,,0,,,70,0
104220,note_on,,,,,6,0,1,,,,,0,,,70,97
104270,set_tempo,,,,,295,1,0,,674157,,,,,,,
104277,note_on,,,,,57,0,1,,,,,0,,,70,0
104280,set_tempo,,,,,10,1,0,,670391,,,,,,,
104280,note_on,,,,,3,0,1,,,,,0,,,70,110
104310,set_tempo,,,,,30,1,0,,666666,,,,,,,
104334,note_on,,,,,54,0,1,,,,,0,,,70,0
104340,note_on,,,,,6,0,1,,,,,0,,,72,122
104340,note_on,,,,,0,0,1,,,,,0,,,70,122
104380,set_tempo,,,,,70,1,0,,659340,,,,,,,
104394,note_on,,,,,54,0,1,,,,,0,,,70,0
104394,note_on,,,,,0,0,1,,,,,0,,,72,0
104400,note_on,,,,,0,0,2,,,,,0,,,53,127
104400,note_on,,,,,0,0,1,,,,,0,,,70,127
104400,note_on,,,,,0,0,1,,,,,0,,,73,127
104400,note_on,,,,,480,0,2,,,,,0,,,46,127
104400,note_on,,,,,6,0,1,,,,,0,,,61,127
104400,control_change,,,,,0,0,1,,,,,0,64,95,,
104420,set_tempo,,,,,40,1,0,,655737,,,,,,,
104450,set_tempo,,,,,30,1,0,,652173,,,,,,,
104490,set_tempo,,,,,40,1,0,,645161,,,,,,,
104540,set_tempo,,,,,50,1,0,,648648,,,,,,,
104685,set_tempo,,,,,145,1,0,,645161,,,,,,,
104700,control_change,,,,,300,0,1,,,,,0,64,0,,
104715,note_on,,,,,15,0,1,,,,,0,,,73,0
104715,note_on,,,,,0,0,1,,,,,0,,,70,0
104715,note_on,,,,,0,0,1,,,,,0,,,61,0
104715,set_tempo,,,,,30,1,0,,641711,,,,,,,
104730,note_on,,,,,15,0,1,,,,,0,,,63,127
104730,note_on,,,,,0,0,1,,,,,0,,,69,127
104730,note_on,,,,,0,0,1,,,,,0,,,72,127
104752,note_on,,,,,0,0,1,,,,,0,,,69,0
104752,note_on,,,,,22,0,1,,,,,0,,,72,0
104752,note_on,,,,,0,0,1,,,,,0,,,63,0
104760,note_on,,,,,0,0,2,,,,,0,,,46,0
104760,note_on,,,,,8,0,1,,,,,0,,,61,127
104760,control_change,,,,,0,0,1,,,,,0,64,95,,
104760,note_on,,,,,0,0,1,,,,,0,,,73,127
104760,note_on,,,,,0,0,1,,,,,0,,,70,127
104760,note_on,,,,,360,0,2,,,,,0,,,53,0
104760,note_on,,,,,0,0,2,,,,,0,,,53,127
104760,note_on,,,,,0,0,2,,,,,0,,,46,127
104795,set_tempo,,,,,80,1,0,,638297,,,,,,,
104860,set_tempo,,,,,65,1,0,,634920,,,,,,,
104870,set_tempo,,,,,10,1,0,,631578,,,,,,,
104930,set_tempo,,,,,60,1,0,,628272,,,,,,,
104985,set_tempo,,,,,55,1,0,,625000,,,,,,,
105025,set_tempo,,,,,40,1,0,,621761,,,,,,,
105055,set_tempo,,,,,30,1,0,,618556,,,,,,,
105060,control_change,,,,,300,0,1,,,,,0,64,0,,
105075,note_on,,,,,0,0,1,,,,,0,,,61,0
105075,note_on,,,,,15,0,1,,,,,0,,,73,0
105075,note_on,,,,,0,0,1,,,,,0,,,70,0
105090,note_on,,,,,15,0,1,,,,,0,,,63,125
105090,note_on,,,,,0,0,1,,,,,0,,,69,125
105090,note_on,,,,,0,0,1,,,,,0,,,72,125
105095,set_tempo,,,,,40,1,0,,615384,,,,,,,
105112,note_on,,,,,22,0,1,,,,,0,,,72,0
105112,note_on,,,,,0,0,1,,,,,0,,,69,0
105112,note_on,,,,,0,0,1,,,,,0,,,63,0
105120,note_on,,,,,360,0,2,,,,,0,,,53,0
105120,note_on,,,,,0,0,2,,,,,0,,,54,127
105120,note_on,,,,,0,0,2,,,,,0,,,42,127
105120,note_on,,,,,0,0,2,,,,,0,,,46,0
105120,note_on,,,,,0,0,1,,,,,0,,,70,127
105120,note_on,,,,,0,0,1,,,,,0,,,73,127
105120,control_change,,,,,0,0,1,,,,,0,64,95,,
105120,control_change,,,,,0,0,1,,,,,0,7,79,,
105120,note_on,,,,,8,0,1,,,,,0,,,61,127
105140,set_tempo,,,,,45,1,0,,612244,,,,,,,
105172,note_on,,,,,52,0,1,,,,,0,,,73,0
105172,note_on,,,,,0,0,1,,,,,0,,,70,0
105172,note_on,,,,,0,0,1,,,,,0,,,61,0
105180,note_on,,,,,8,0,1,,,,,0,,,70,119
105180,note_on,,,,,0,0,1,,,,,0,,,73,119
105180,note_on,,,,,0,0,1,,,,,0,,,78,119
105185,control_change,,,,,5,0,1,,,,,0,7,80,,
105200,set_tempo,,,,,60,1,0,,609137,,,,,,,
105215,control_change,,,,,30,0,1,,,,,0,7,81,,
105225,control_change,,,,,10,0,1,,,,,0,7,82,,
105230,set_tempo,,,,,30,1,0,,606060,,,,,,,
105232,note_on,,,,,0,0,1,,,,,0,,,70,0
105232,note_on,,,,,0,0,1,,,,,0,,,73,0
105232,note_on,,,,,7,0,1,,,,,0,,,78,0
105240,note_on,,,,,0,0,1,,,,,0,,,78,119
105240,note_on,,,,,0,0,1,,,,,0,,,73,119
105240,note_on,,,,,8,0,1,,,,,0,,,70,119
105245,control_change,,,,,5,0,1,,,,,0,7,83,,
105260,set_tempo,,,,,30,1,0,,603015,,,,,,,
105260,control_change,,,,,15,0,1,,,,,0,7,84,,
105265,control_change,,,,,5,0,1,,,,,0,7,85,,
105285,set_tempo,,,,,25,1,0,,600000,,,,,,,
105292,note_on,,,,,27,0,1,,,,,0,,,78,0
105292,note_on,,,,,0,0,1,,,,,0,,,70,0
105292,note_on,,,,,0,0,1,,,,,0,,,73,0
105295,control_change,,,,,3,0,1,,,,,0,64,0,,
105295,control_change,,,,,0,0,1,,,,,0,7,86,,
105300,note_on,,,,,5,0,1,,,,,0,,,70,127
105300,note_on,,,,,0,0,1,,,,,0,,,73,127
105300,note_on,,,,,0,0,1,,,,,0,,,78,127
105300,control_change,,,,,0,0,1,,,,,0,64,95,,
105305,control_change,,,,,5,0,1,,,,,0,7,87,,
105315,set_tempo,,,,,30,1,0,,597014,,,,,,,
105340,control_change,,,,,35,0,1,,,,,0,7,88,,
105352,note_on,,,,,12,0,1,,,,,0,,,78,0
105352,note_on,,,,,0,0,1,,,,,0,,,73,0
105352,note_on,,,,,0,0,1,,,,,0,,,70,0
105360,set_tempo,,,,,45,1,0,,594059,,,,,,,
105360,note_on,,,,,8,0,1,,,,,0,,,70,120
105360,note_on,,,,,0,0,1,,,,,0,,,73,120
105360,note_on,,,,,0,0,1,,,,,0,,,80,120
105390,control_change,,,,,30,0,1,,,,,0,7,90,,
105410,set_tempo,,,,,50,1,0,,591133,,,,,,,
105412,note_on,,,,,22,0,1,,,,,0,,,80,0
105412,note_on,,,,,0,0,1,,,,,0,,,73,0
105412,note_on,,,,,0,0,1,,,,,0,,,70,0
105420,note_on,,,,,8,0,1,,,,,0,,,73,120
105420,note_on,,,,,0,0,1,,,,,0,,,70,120
105420,note_on,,,,,0,0,1,,,,,0,,,80,120
105435,note_on,,,,,315,0,2,,,,,0,,,54,0
105435,note_on,,,,,0,0,2,,,,,0,,,42,0
105440,control_change,,,,,20,0,1,,,,,0,7,91,,
105445,control_change,,,,,5,0,1,,,,,0,7,92,,
105450,note_on,,,,,0,0,2,,,,,0,,,53,127
105450,note_on,,,,,15,0,2,,,,,0,,,41,127
105460,control_change,,,,,15,0,1,,,,,0,7,93,,
105472,note_on,,,,,12,0,1,,,,,0,,,80,0
105472,note_on,,,,,0,0,1,,,,,0,,,70,0
105472,note_on,,,,,0,0,1,,,,,0,,,73,0
105472,note_on,,,,,22,0,2,,,,,0,,,53,0
105472,note_on,,,,,0,0,2,,,,,0,,,41,0
105475,control_change,,,,,3,0,1,,,,,0,64,0,,
105475,control_change,,,,,0,0,1,,,,,0,7,94,,
105480,control_change,,,,,0,0,1,,,,,0,64,94,,
105480,note_on,,,,,0,0,2,,,,,0,,,54,127
105480,note_on,,,,,0,0,1,,,,,0,,,73,127
105480,note_on,,,,,5,0,1,,,,,0,,,70,127
105480,note_on,,,,,8,0,2,,,,,0,,,42,127
105480,note_on,,,,,0,0,1,,,,,0,,,82,127
105485,control_change,,,,,5,0,1,,,,,0,7,95,,
105505,set_tempo,,,,,95,1,0,,588235,,,,,,,
105560,control_change,,,,,75,0,1,,,,,0,7,94,,
105565,control_change,,,,,5,0,1,,,,,0,7,93,,
105580,control_change,,,,,15,0,1,,,,,0,7,92,,
105590,control_change,,,,,10,0,1,,,,,0,7,91,,
105605,control_change,,,,,15,0,1,,,,,0,7,90,,
105610,set_tempo,,,,,105,1,0,,594059,,,,,,,
105620,control_change,,,,,15,0,1,,,,,0,7,89,,
105640,control_change,,,,,20,0,1,,,,,0,7,88,,
105650,control_change,,,,,10,0,1,,,,,0,7,87,,
105650,set_tempo,,,,,40,1,0,,600000,,,,,,,
105660,note_on,,,,,10,0,1,,,,,0,,,82,0
105660,note_on,,,,,0,0,1,,,,,0,,,70,0
105660,note_on,,,,,0,0,1,,,,,0,,,73,0
105665,control_change,,,,,5,0,1,,,,,0,7,86,,
105675,control_change,,,,,10,0,1,,,,,0,7,85,,
105680,set_tempo,,,,,30,1,0,,603015,,,,,,,
105690,control_change,,,,,15,0,1,,,,,0,7,84,,
105705,control_change,,,,,15,0,1,,,,,0,7,83,,
105720,set_tempo,,,,,40,1,0,,606060,,,,,,,
105730,control_change,,,,,25,0,1,,,,,0,7,82,,
105750,set_tempo,,,,,30,1,0,,609137,,,,,,,
105755,set_tempo,,,,,5,1,0,,612244,,,,,,,
105760,control_change,,,,,30,0,1,,,,,0,7,81,,
105780,control_change,,,,,20,0,1,,,,,0,64,0,,
105785,set_tempo,,,,,30,1,0,,615384,,,,,,,
105785,control_change,,,,,5,0,1,,,,,0,7,80,,
105790,set_tempo,,,,,5,1,0,,634920,,,,,,,
105795,note_on,,,,,315,0,2,,,,,0,,,54,0
105795,note_on,,,,,0,0,2,,,,,0,,,42,0
105800,set_tempo,,,,,10,1,0,,631578,,,,,,,
105805,control_change,,,,,20,0,1,,,,,0,7,79,,
105810,note_on,,,,,15,0,2,,,,,0,,,41,114
105810,note_on,,,,,0,0,2,,,,,0,,,53,114
105830,set_tempo,,,,,30,1,0,,628272,,,,,,,
105832,note_on,,,,,22,0,2,,,,,0,,,53,0
105832,note_on,,,,,0,0,2,,,,,0,,,41,0
105840,control_change,,,,,0,0,1,,,,,0,64,95,,
105840,note_on,,,,,35,0,1,,,,,0,,,67,119
105840,note_on,,,,,0,0,1,,,,,0,,,70,119
105840,note_on,,,,,0,0,2,,,,,0,,,52,127
105840,note_on,,,,,8,0,2,,,,,0,,,40,127
105840,note_on,,,,,0,0,1,,,,,0,,,72,119
105845,set_tempo,,,,,15,1,0,,625000,,,,,,,
105855,set_tempo,,,,,10,1,0,,621761,,,,,,,
105885,set_tempo,,,,,30,1,0,,618556,,,,,,,
105892,note_on,,,,,0,0,2,,,,,0,,,40,0
105892,note_on,,,,,52,0,2,,,,,0,,,52,0
105895,set_tempo,,,,,10,1,0,,615384,,,,,,,
105900,note_on,,,,,8,0,2,,,,,0,,,43,122
105900,note_on,,,,,0,0,2,,,,,0,,,55,122
105925,set_tempo,,,,,30,1,0,,612244,,,,,,,
105935,control_change,,,,,95,0,1,,,,,0,7,80,,
105952,note_on,,,,,52,0,2,,,,,0,,,55,0
105952,note_on,,,,,0,0,2,,,,,0,,,43,0
105960,note_on,,,,,0,0,2,,,,,0,,,55,124
105960,note_on,,,,,8,0,2,,,,,0,,,43,124
105965,set_tempo,,,,,40,1,0,,609137,,,,,,,
105965,control_change,,,,,30,0,1,,,,,0,7,81,,
105995,set_tempo,,,,,30,1,0,,606060,,,,,,,
106000,control_change,,,,,35,0,1,,,,,0,7,82,,
106012,note_on,,,,,0,0,2,,,,,0,,,43,0
106012,note_on,,,,,52,0,2,,,,,0,,,55,0
106015,control_change,,,,,15,0,1,,,,,0,64,0,,
106020,set_tempo,,,,,25,1,0,,603015,,,,,,,
106020,note_on,,,,,8,0,2,,,,,0,,,43,127
106020,note_on,,,,,0,0,2,,,,,0,,,55,127
106020,control_change,,,,,5,0,1,,,,,0,64,95,,
106040,control_change,,,,,20,0,1,,,,,0,7,83,,
106050,control_change,,,,,10,0,1,,,,,0,7,84,,
106050,set_tempo,,,,,30,1,0,,600000,,,,,,,
106072,note_on,,,,,52,0,2,,,,,0,,,55,0
106072,note_on,,,,,0,0,2,,,,,0,,,43,0
106080,note_on,,,,,8,0,2,,,,,0,,,48,121
106080,control_change,,,,,30,0,1,,,,,0,7,85,,
106080,note_on,,,,,0,0,2,,,,,0,,,60,121
106085,set_tempo,,,,,35,1,0,,597014,,,,,,,
106090,control_change,,,,,10,0,1,,,,,0,7,86,,
106095,control_change,,,,,5,0,1,,,,,0,7,87,,
106110,control_change,,,,,15,0,1,,,,,0,7,88,,
106120,control_change,,,,,10,0,1,,,,,0,7,89,,
106120,set_tempo,,,,,35,1,0,,594059,,,,,,,
106132,note_on,,,,,52,0,2,,,,,0,,,60,0
106132,note_on,,,,,0,0,2,,,,,0,,,48,0
106140,note_on,,,,,8,0,2,,,,,0,,,48,121
106140,note_on,,,,,0,0,2,,,,,0,,,60,121
106140,control_change,,,,,20,0,1,,,,,0,64,0,,
106150,control_change,,,,,10,0,1,,,,,0,7,90,,
106155,note_on,,,,,0,0,1,,,,,0,,,67,0
106155,note_on,,,,,0,0,1,,,,,0,,,70,0
106155,note_on,,,,,5,0,1,,,,,0,,,72,0
106160,control_change,,,,,5,0,1,,,,,0,7,91,,
106170,note_on,,,,,10,0,1,,,,,0,,,67,119
106170,note_on,,,,,0,0,1,,,,,0,,,70,119
106170,note_on,,,,,0,0,1,,,,,0,,,73,119
106180,control_change,,,,,10,0,1,,,,,0,7,92,,
106190,control_change,,,,,10,0,1,,,,,0,7,93,,
106192,note_on,,,,,2,0,1,,,,,0,,,73,0
106192,note_on,,,,,0,0,1,,,,,0,,,70,0
106192,note_on,,,,,0,0,1,,,,,0,,,67,0
106192,note_on,,,,,52,0,2,,,,,0,,,60,0
106192,note_on,,,,,0,0,2,,,,,0,,,48,0
106195,control_change,,,,,3,0,1,,,,,0,7,94,,
106200,note_on,,,,,0,0,2,,,,,0,,,64,125
106200,note_on,,,,,5,0,1,,,,,0,,,67,123
106200,control_change,,,,,0,0,1,,,,,0,64,95,,
106200,note_on,,,,,0,0,1,,,,,0,,,72,123
106200,note_on,,,,,0,0,1,,,,,0,,,70,123
106200,note_on,,,,,8,0,2,,,,,0,,,52,125
106205,control_change,,,,,5,0,1,,,,,0,7,96,,
106210,control_change,,,,,5,0,1,,,,,0,7,97,,
106240,control_change,,,,,30,0,1,,,,,0,7,96,,
106255,control_change,,,,,15,0,1,,,,,0,7,95,,
106275,control_change,,,,,20,0,1,,,,,0,7,94,,
106285,control_change,,,,,10,0,1,,,,,0,7,93,,
106335,control_change,,,,,50,0,1,,,,,0,7,92,,
106345,control_change,,,,,10,0,1,,,,,0,7,91,,
106350,set_tempo,,,,,230,1,0,,597014,,,,,,,
106355,control_change,,,,,10,0,1,,,,,0,7,90,,
106365,set_tempo,,,,,15,1,0,,603015,,,,,,,
106375,control_change,,,,,20,0,1,,,,,0,7,89,,
106380,set_tempo,,,,,15,1,0,,606060,,,,,,,
106380,note_on,,,,,0,0,2,,,,,0,,,52,0
106380,note_on,,,,,180,0,2,,,,,0,,,64,0
106395,control_change,,,,,20,0,1,,,,,0,7,88,,
106395,set_tempo,,,,,15,1,0,,612244,,,,,,,
106400,control_change,,,,,5,0,1,,,,,0,7,87,,
106405,set_tempo,,,,,10,1,0,,615384,,,,,,,
106410,set_tempo,,,,,5,1,0,,618556,,,,,,,
106425,set_tempo,,,,,15,1,0,,621761,,,,,,,
106435,set_tempo,,,,,10,1,0,,625000,,,,,,,
106440,set_tempo,,,,,5,1,0,,628272,,,,,,,
106445,set_tempo,,,,,5,1,0,,631578,,,,,,,
106445,control_change,,,,,45,0,1,,,,,0,7,86,,
106455,control_change,,,,,10,0,1,,,,,0,7,85,,
106460,set_tempo,,,,,15,1,0,,634920,,,,,,,
106475,control_change,,,,,20,0,1,,,,,0,7,83,,
106490,control_change,,,,,15,0,1,,,,,0,7,82,,
106495,control_change,,,,,5,0,1,,,,,0,7,81,,
106500,control_change,,,,,5,0,1,,,,,0,64,0,,
106515,control_change,,,,,0,0,1,,,,,0,7,80,,
106515,note_on,,,,,0,0,1,,,,,0,,,67,0
106515,note_on,,,,,0,0,1,,,,,0,,,70,0
106515,note_on,,,,,15,0,1,,,,,0,,,72,0
106525,control_change,,,,,10,0,1,,,,,0,7,79,,
106530,note_on,,,,,0,0,1,,,,,0,,,73,114
106530,note_on,,,,,0,0,1,,,,,0,,,70,114
106530,note_on,,,,,5,0,1,,,,,0,,,67,114
106535,control_change,,,,,5,0,1,,,,,0,7,78,,
106550,control_change,,,,,15,0,1,,,,,0,7,77,,
106552,note_on,,,,,2,0,1,,,,,0,,,73,0
106552,note_on,,,,,0,0,1,,,,,0,,,70,0
106552,note_on,,,,,0,0,1,,,,,0,,,67,0
106560,note_on,,,,,180,0,2,,,,,0,,,41,122
106560,note_on,,,,,8,0,1,,,,,0,,,68,120
106560,note_on,,,,,0,0,1,,,,,0,,,72,120
106560,control_change,,,,,0,0,1,,,,,0,64,95,,
106560,control_change,,,,,0,0,1,,,,,0,7,76,,
106560,note_on,,,,,0,0,2,,,,,0,,,53,122
106590,set_tempo,,,,,130,1,0,,631578,,,,,,,
106610,set_tempo,,,,,20,1,0,,628272,,,,,,,
106612,note_on,,,,,0,0,1,,,,,0,,,68,0
106612,note_on,,,,,52,0,1,,,,,0,,,72,0
106620,note_on,,,,,0,0,1,,,,,0,,,72,117
106620,note_on,,,,,0,0,1,,,,,0,,,77,117
106620,note_on,,,,,8,0,1,,,,,0,,,68,117
106625,set_tempo,,,,,15,1,0,,625000,,,,,,,
106630,control_change,,,,,10,0,1,,,,,0,7,77,,
106660,control_change,,,,,30,0,1,,,,,0,7,78,,
106665,control_change,,,,,5,0,1,,,,,0,7,79,,
106665,set_tempo,,,,,40,1,0,,621761,,,,,,,
106672,note_on,,,,,7,0,1,,,,,0,,,77,0
106672,note_on,,,,,0,0,1,,,,,0,,,72,0
106672,note_on,,,,,0,0,1,,,,,0,,,68,0
106675,set_tempo,,,,,10,1,0,,618556,,,,,,,
106680,note_on,,,,,8,0,1,,,,,0,,,68,107
106680,note_on,,,,,0,0,1,,,,,0,,,77,107
106680,note_on,,,,,0,0,1,,,,,0,,,72,107
106680,set_tempo,,,,,5,1,0,,615384,,,,,,,
106690,set_tempo,,,,,10,1,0,,612244,,,,,,,
106695,control_change,,,,,15,0,1,,,,,0,7,80,,
106700,set_tempo,,,,,10,1,0,,609137,,,,,,,
106730,set_tempo,,,,,30,1,0,,606060,,,,,,,
106730,control_change,,,,,35,0,1,,,,,0,7,82,,
106732,note_on,,,,,0,0,1,,,,,0,,,68,0
106732,note_on,,,,,0,0,1,,,,,0,,,72,0
106732,note_on,,,,,2,0,1,,,,,0,,,77,0
106735,control_change,,,,,3,0,1,,,,,0,64,0,,
106740,note_on,,,,,0,0,1,,,,,0,,,68,118
106740,note_on,,,,,0,0,1,,,,,0,,,77,118
106740,note_on,,,,,5,0,1,,,,,0,,,72,118
106740,set_tempo,,,,,10,1,0,,603015,,,,,,,
106740,control_change,,,,,0,0,1,,,,,0,64,95,,
106750,set_tempo,,,,,10,1,0,,600000,,,,,,,
106760,control_change,,,,,20,0,1,,,,,0,7,83,,
106770,set_tempo,,,,,20,1,0,,597014,,,,,,,
106775,control_change,,,,,15,0,1,,,,,0,7,84,,
106785,set_tempo,,,,,15,1,0,,594059,,,,,,,
106792,note_on,,,,,17,0,1,,,,,0,,,68,0
106792,note_on,,,,,0,0,1,,,,,0,,,77,0
106792,note_on,,,,,0,0,1,,,,,0,,,72,0
106795,control_change,,,,,3,0,1,,,,,0,7,85,,
106795,set_tempo,,,,,10,1,0,,591133,,,,,,,
106800,note_on,,,,,5,0,1,,,,,0,,,68,113
106800,note_on,,,,,0,0,1,,,,,0,,,72,113
106800,note_on,,,,,0,0,1,,,,,0,,,79,113
106825,control_change,,,,,25,0,1,,,,,0,7,87,,
106830,set_tempo,,,,,35,1,0,,588235,,,,,,,
106850,set_tempo,,,,,20,1,0,,582524,,,,,,,
106852,note_on,,,,,27,0,1,,,,,0,,,79,0
106852,note_on,,,,,0,0,1,,,,,0,,,72,0
106852,note_on,,,,,0,0,1,,,,,0,,,68,0
106855,control_change,,,,,3,0,1,,,,,0,7,88,,
106860,note_on,,,,,5,0,1,,,,,0,,,68,116
106860,note_on,,,,,0,0,1,,,,,0,,,72,116
106860,note_on,,,,,0,0,1,,,,,0,,,79,116
106870,control_change,,,,,10,0,1,,,,,0,7,89,,
106875,control_change,,,,,5,0,1,,,,,0,7,90,,
106875,note_on,,,,,315,0,2,,,,,0,,,53,0
106875,note_on,,,,,0,0,2,,,,,0,,,41,0
106880,set_tempo,,,,,30,1,0,,579710,,,,,,,
106885,control_change,,,,,10,0,1,,,,,0,7,91,,
106890,note_on,,,,,0,0,2,,,,,0,,,52,124
106890,note_on,,,,,15,0,2,,,,,0,,,40,124
106895,control_change,,,,,10,0,1,,,,,0,7,92,,
106900,control_change,,,,,5,0,1,,,,,0,7,94,,
106912,note_on,,,,,0,0,2,,,,,0,,,40,0
106912,note_on,,,,,22,0,2,,,,,0,,,52,0
106912,note_on,,,,,0,0,1,,,,,0,,,72,0
106912,note_on,,,,,0,0,1,,,,,0,,,68,0
106912,note_on,,,,,12,0,1,,,,,0,,,79,0
106915,control_change,,,,,3,0,1,,,,,0,64,0,,
106915,control_change,,,,,0,0,1,,,,,0,7,95,,
106920,control_change,,,,,0,0,1,,,,,0,7,96,,
106920,note_on,,,,,8,0,2,,,,,0,,,41,114
106920,note_on,,,,,0,0,2,,,,,0,,,53,114
106920,set_tempo,,,,,40,1,0,,576923,,,,,,,
106920,note_on,,,,,5,0,1,,,,,0,,,72,123
106920,note_on,,,,,0,0,1,,,,,0,,,80,123
106920,note_on,,,,,0,0,1,,,,,0,,,68,123
106920,control_change,,,,,0,0,1,,,,,0,64,94,,
106965,control_change,,,,,45,0,1,,,,,0,7,95,,
106975,control_change,,,,,10,0,1,,,,,0,7,94,,
106995,control_change,,,,,20,0,1,,,,,0,7,93,,
107025,control_change,,,,,30,0,1,,,,,0,7,92,,
107040,set_tempo,,,,,120,1,0,,579710,,,,,,,
107045,set_tempo,,,,,5,1,0,,582524,,,,,,,
107045,control_change,,,,,20,0,1,,,,,0,7,91,,
107050,control_change,,,,,5,0,1,,,,,0,7,90,,
107065,set_tempo,,,,,20,1,0,,585365,,,,,,,
107075,set_tempo,,,,,10,1,0,,588235,,,,,,,
107075,control_change,,,,,25,0,1,,,,,0,7,89,,
107080,set_tempo,,,,,5,1,0,,591133,,,,,,,
107090,set_tempo,,,,,10,1,0,,594059,,,,,,,
107100,note_on,,,,,0,0,1,,,,,0,,,72,0
107100,note_on,,,,,0,0,1,,,,,0,,,80,0
107100,note_on,,,,,25,0,1,,,,,0,,,68,0
107100,set_tempo,,,,,10,1,0,,600000,,,,,,,
107105,control_change,,,,,5,0,1,,,,,0,7,88,,
107110,control_change,,,,,5,0,1,,,,,0,7,87,,
107120,set_tempo,,,,,20,1,0,,606060,,,,,,,
107145,control_change,,,,,35,0,1,,,,,0,7,86,,
107150,set_tempo,,,,,30,1,0,,609137,,,,,,,
107160,set_tempo,,,,,10,1,0,,612244,,,,,,,
107185,control_change,,,,,40,0,1,,,,,0,7,85,,
107190,set_tempo,,,,,30,1,0,,618556,,,,,,,
107190,control_change,,,,,5,0,1,,,,,0,7,84,,
107205,control_change,,,,,15,0,1,,,,,0,7,83,,
107220,control_change,,,,,15,0,1,,,,,0,64,0,,
107220,set_tempo,,,,,30,1,0,,621761,,,,,,,
107235,note_on,,,,,315,0,2,,,,,0,,,53,0
107235,note_on,,,,,0,0,2,,,,,0,,,41,0
107235,control_change,,,,,15,0,1,,,,,0,7,82,,
107245,control_change,,,,,10,0,1,,,,,0,7,81,,
107250,note_on,,,,,0,0,2,,,,,0,,,39,73
107250,note_on,,,,,15,0,2,,,,,0,,,51,73
107260,control_change,,,,,15,0,1,,,,,0,7,80,,
107272,note_on,,,,,0,0,2,,,,,0,,,51,0
107272,note_on,,,,,22,0,2,,,,,0,,,39,0
107280,note_on,,,,,0,0,2,,,,,0,,,50,74
107280,note_on,,,,,8,0,2,,,,,0,,,38,74
107280,note_on,,,,,20,0,1,,,,,0,,,70,80
107280,note_on,,,,,0,0,1,,,,,0,,,68,80
107280,note_on,,,,,0,0,1,,,,,0,,,65,80
107280,control_change,,,,,0,0,1,,,,,0,64,95,,
107300,set_tempo,,,,,80,1,0,,625000,,,,,,,
107332,note_on,,,,,52,0,2,,,,,0,,,50,0
107332,note_on,,,,,0,0,2,,,,,0,,,38,0
107340,note_on,,,,,0,0,2,,,,,0,,,53,75
107340,note_on,,,,,8,0,2,,,,,0,,,41,75
107392,note_on,,,,,0,0,2,,,,,0,,,41,0
107392,note_on,,,,,52,0,2,,,,,0,,,53,0
107400,note_on,,,,,8,0,2,,,,,0,,,41,78
107400,note_on,,,,,0,0,2,,,,,0,,,53,78
107410,set_tempo,,,,,110,1,0,,631578,,,,,,,
107452,note_on,,,,,52,0,2,,,,,0,,,53,0
107452,note_on,,,,,0,0,2,,,,,0,,,41,0
107455,control_change,,,,,175,0,1,,,,,0,64,0,,
107460,note_on,,,,,8,0,2,,,,,0,,,41,79
107460,control_change,,,,,5,0,1,,,,,0,64,95,,
107460,note_on,,,,,0,0,2,,,,,0,,,53,79
107470,control_change,,,,,10,0,1,,,,,0,7,81,,
107495,set_tempo,,,,,85,1,0,,634920,,,,,,,
107500,control_change,,,,,30,0,1,,,,,0,7,82,,
107512,note_on,,,,,0,0,2,,,,,0,,,41,0
107512,note_on,,,,,52,0,2,,,,,0,,,53,0
107520,note_on,,,,,0,0,2,,,,,0,,,58,80
107520,note_on,,,,,8,0,2,,,,,0,,,46,80
107525,set_tempo,,,,,30,1,0,,631578,,,,,,,
107530,control_change,,,,,30,0,1,,,,,0,7,83,,
107535,control_change,,,,,5,0,1,,,,,0,7,84,,
107535,set_tempo,,,,,10,1,0,,628272,,,,,,,
107550,set_tempo,,,,,15,1,0,,625000,,,,,,,
107570,control_change,,,,,35,0,1,,,,,0,7,86,,
107572,note_on,,,,,52,0,2,,,,,0,,,58,0
107572,note_on,,,,,0,0,2,,,,,0,,,46,0
107580,note_on,,,,,8,0,2,,,,,0,,,46,82
107580,note_on,,,,,0,0,2,,,,,0,,,58,82
107590,set_tempo,,,,,40,1,0,,621761,,,,,,,
107590,control_change,,,,,20,0,1,,,,,0,7,87,,
107595,note_on,,,,,5,0,1,,,,,0,,,65,0
107595,note_on,,,,,0,0,1,,,,,0,,,70,0
107595,note_on,,,,,0,0,1,,,,,0,,,68,0
107600,control_change,,,,,5,0,1,,,,,0,7,88,,
107610,note_on,,,,,10,0,1,,,,,0,,,65,83
107610,note_on,,,,,0,0,1,,,,,0,,,68,83
107610,note_on,,,,,0,0,1,,,,,0,,,71,83
107615,set_tempo,,,,,25,1,0,,618556,,,,,,,
107620,control_change,,,,,10,0,1,,,,,0,7,89,,
107625,control_change,,,,,5,0,1,,,,,0,7,90,,
107625,set_tempo,,,,,10,1,0,,615384,,,,,,,
107632,note_on,,,,,52,0,2,,,,,0,,,58,0
107632,note_on,,,,,0,0,2,,,,,0,,,46,0
107632,note_on,,,,,0,0,1,,,,,0,,,68,0
107632,note_on,,,,,0,0,1,,,,,0,,,65,0
107632,note_on,,,,,7,0,1,,,,,0,,,71,0
107635,control_change,,,,,3,0,1,,,,,0,64,0,,
107635,control_change,,,,,0,0,1,,,,,0,7,91,,
107640,note_on,,,,,5,0,1,,,,,0,,,70,84
107640,note_on,,,,,0,0,1,,,,,0,,,68,84
107640,note_on,,,,,0,0,1,,,,,0,,,65,84
107640,note_on,,,,,0,0,2,,,,,0,,,50,86
107640,note_on,,,,,8,0,2,,,,,0,,,62,86
107640,control_change,,,,,0,0,1,,,,,0,64,95,,
107645,control_change,,,,,5,0,1,,,,,0,7,92,,
107655,control_change,,,,,10,0,1,,,,,0,7,94,,
107655,set_tempo,,,,,30,1,0,,612244,,,,,,,
107665,control_change,,,,,10,0,1,,,,,0,7,95,,
107670,control_change,,,,,5,0,1,,,,,0,7,96,,
107690,set_tempo,,,,,35,1,0,,609137,,,,,,,
107692,note_on,,,,,0,0,1,,,,,0,,,70,0
107692,note_on,,,,,0,0,1,,,,,0,,,68,0
107692,note_on,,,,,22,0,1,,,,,0,,,65,0
107700,note_on,,,,,0,0,1,,,,,0,,,68,85
107700,note_on,,,,,0,0,1,,,,,0,,,70,85
107700,note_on,,,,,8,0,1,,,,,0,,,77,85
107720,set_tempo,,,,,30,1,0,,606060,,,,,,,
107735,set_tempo,,,,,15,1,0,,603015,,,,,,,
107750,set_tempo,,,,,15,1,0,,600000,,,,,,,
107752,note_on,,,,,0,0,1,,,,,0,,,77,0
107752,note_on,,,,,0,0,1,,,,,0,,,70,0
107752,note_on,,,,,52,0,1,,,,,0,,,68,0
107760,note_on,,,,,0,0,1,,,,,0,,,68,88
107760,note_on,,,,,0,0,1,,,,,0,,,70,88
107760,note_on,,,,,8,0,1,,,,,0,,,77,88
107770,set_tempo,,,,,20,1,0,,597014,,,,,,,
107805,set_tempo,,,,,35,1,0,,594059,,,,,,,
107812,note_on,,,,,0,0,1,,,,,0,,,77,0
107812,note_on,,,,,0,0,1,,,,,0,,,70,0
107812,note_on,,,,,52,0,1,,,,,0,,,68,0
107815,control_change,,,,,3,0,1,,,,,0,64,0,,
107820,note_on,,,,,180,0,2,,,,,0,,,50,0
107820,control_change,,,,,0,0,1,,,,,0,64,96,,
107820,note_on,,,,,0,0,1,,,,,0,,,68,89
107820,note_on,,,,,0,0,1,,,,,0,,,70,89
107820,note_on,,,,,0,0,2,,,,,0,,,62,0
107820,set_tempo,,,,,15,1,0,,591133,,,,,,,
107820,note_on,,,,,5,0,1,,,,,0,,,77,89
107865,set_tempo,,,,,45,1,0,,594059,,,,,,,
107872,note_on,,,,,0,0,1,,,,,0,,,70,0
107872,note_on,,,,,52,0,1,,,,,0,,,68,0
107872,note_on,,,,,0,0,1,,,,,0,,,77,0
107875,set_tempo,,,,,10,1,0,,597014,,,,,,,
107880,note_on,,,,,0,0,1,,,,,0,,,70,93
107880,note_on,,,,,0,0,1,,,,,0,,,77,93
107880,note_on,,,,,8,0,1,,,,,0,,,80,93
107885,set_tempo,,,,,10,1,0,,600000,,,,,,,
107890,set_tempo,,,,,5,1,0,,603015,,,,,,,
107910,set_tempo,,,,,20,1,0,,606060,,,,,,,
107920,set_tempo,,,,,10,1,0,,609137,,,,,,,
107930,set_tempo,,,,,10,1,0,,612244,,,,,,,
107932,note_on,,,,,52,0,1,,,,,0,,,77,0
107932,note_on,,,,,0,0,1,,,,,0,,,70,0
107932,note_on,,,,,0,0,1,,,,,0,,,80,0
107935,set_tempo,,,,,5,1,0,,615384,,,,,,,
107940,note_on,,,,,8,0,1,,,,,0,,,70,100
107940,note_on,,,,,0,0,1,,,,,0,,,80,100
107940,note_on,,,,,0,0,1,,,,,0,,,77,100
107992,note_on,,,,,52,0,1,,,,,0,,,77,0
107992,note_on,,,,,0,0,1,,,,,0,,,80,0
107992,note_on,,,,,0,0,1,,,,,0,,,70,0
107995,control_change,,,,,3,0,1,,,,,0,64,0,,
108000,note_on,,,,,180,0,2,,,,,0,,,39,83
108000,note_on,,,,,0,0,2,,,,,0,,,51,83
108000,note_on,,,,,5,0,1,,,,,0,,,80,101
108000,note_on,,,,,0,0,1,,,,,0,,,75,101
108000,control_change,,,,,0,0,1,,,,,0,64,95,,
108000,control_change,,,,,0,0,1,,,,,0,7,93,,
108000,note_on,,,,,0,0,1,,,,,0,,,70,101
108015,control_change,,,,,15,0,1,,,,,0,7,92,,
108025,control_change,,,,,10,0,1,,,,,0,7,91,,
108040,control_change,,,,,15,0,1,,,,,0,7,90,,
108052,note_on,,,,,0,0,2,,,,,0,,,39,0
108052,note_on,,,,,52,0,2,,,,,0,,,51,0
108055,control_change,,,,,15,0,1,,,,,0,7,89,,
108060,note_on,,,,,8,0,2,,,,,0,,,54,87
108060,note_on,,,,,0,0,2,,,,,0,,,42,87
108075,control_change,,,,,20,0,1,,,,,0,7,88,,
108095,control_change,,,,,20,0,1,,,,,0,7,87,,
108112,note_on,,,,,0,0,2,,,,,0,,,54,0
108112,note_on,,,,,52,0,2,,,,,0,,,42,0
108115,set_tempo,,,,,180,1,0,,612244,,,,,,,
108120,note_on,,,,,0,0,2,,,,,0,,,54,91
108120,note_on,,,,,8,0,2,,,,,0,,,42,91
108125,control_change,,,,,30,0,1,,,,,0,7,86,,
108155,set_tempo,,,,,40,1,0,,609137,,,,,,,
108165,control_change,,,,,40,0,1,,,,,0,7,85,,
108172,note_on,,,,,52,0,2,,,,,0,,,54,0
108172,note_on,,,,,0,0,2,,,,,0,,,42,0
108175,control_change,,,,,10,0,1,,,,,0,64,0,,
108180,control_change,,,,,0,0,1,,,,,0,64,95,,
108180,note_on,,,,,5,0,1,,,,,0,,,80,0
108180,note_on,,,,,0,0,1,,,,,0,,,78,83
108180,note_on,,,,,8,0,2,,,,,0,,,42,94
108180,note_on,,,,,0,0,2,,,,,0,,,54,94
108195,set_tempo,,,,,40,1,0,,606060,,,,,,,
108205,control_change,,,,,25,0,1,,,,,0,7,84,,
108205,set_tempo,,,,,10,1,0,,603015,,,,,,,
108225,control_change,,,,,20,0,1,,,,,0,7,83,,
108225,set_tempo,,,,,20,1,0,,600000,,,,,,,
108232,note_on,,,,,0,0,2,,,,,0,,,42,0
108232,note_on,,,,,52,0,2,,,,,0,,,54,0
108235,control_change,,,,,10,0,1,,,,,0,7,82,,
108240,note_on,,,,,0,0,2,,,,,0,,,58,96
108240,note_on,,,,,8,0,2,,,,,0,,,46,96
108240,note_on,,,,,5,0,1,,,,,0,,,78,0
108240,note_on,,,,,0,0,1,,,,,0,,,75,0
108240,note_on,,,,,0,0,1,,,,,0,,,70,0
108250,control_change,,,,,10,0,1,,,,,0,7,81,,
108265,set_tempo,,,,,40,1,0,,597014,,,,,,,
108280,control_change,,,,,30,0,1,,,,,0,7,82,,
108290,control_change,,,,,10,0,1,,,,,0,7,83,,
108292,note_on,,,,,0,0,2,,,,,0,,,46,0
108292,note_on,,,,,52,0,2,,,,,0,,,58,0
108300,note_on,,,,,8,0,2,,,,,0,,,46,101
108300,note_on,,,,,0,0,2,,,,,0,,,58,101
108310,control_change,,,,,20,0,1,,,,,0,7,84,,
108320,control_change,,,,,10,0,1,,,,,0,7,85,,
108330,control_change,,,,,10,0,1,,,,,0,7,86,,
108340,control_change,,,,,10,0,1,,,,,0,7,87,,
108345,control_change,,,,,5,0,1,,,,,0,7,88,,
108352,note_on,,,,,0,0,2,,,,,0,,,46,0
108352,note_on,,,,,52,0,2,,,,,0,,,58,0
108355,control_change,,,,,10,0,1,,,,,0,64,0,,
108360,note_on,,,,,8,0,2,,,,,0,,,51,103
108360,note_on,,,,,0,0,2,,,,,0,,,63,103
108360,control_change,,,,,0,0,1,,,,,0,64,94,,
108360,note_on,,,,,0,0,1,,,,,0,,,66,83
108360,note_on,,,,,5,0,1,,,,,0,,,70,83
108370,set_tempo,,,,,105,1,0,,579710,,,,,,,
108390,control_change,,,,,30,0,1,,,,,0,7,89,,
108400,control_change,,,,,10,0,1,,,,,0,7,90,,
108410,control_change,,,,,10,0,1,,,,,0,7,91,,
108412,note_on,,,,,2,0,1,,,,,0,,,66,0
108412,note_on,,,,,0,0,1,,,,,0,,,70,0
108420,note_on,,,,,8,0,1,,,,,0,,,75,87
108420,note_on,,,,,0,0,1,,,,,0,,,70,87
108420,note_on,,,,,0,0,1,,,,,0,,,66,87
108430,control_change,,,,,10,0,1,,,,,0,7,92,,
108450,set_tempo,,,,,80,1,0,,582524,,,,,,,
108460,set_tempo,,,,,10,1,0,,585365,,,,,,,
108465,set_tempo,,,,,5,1,0,,588235,,,,,,,
108470,control_change,,,,,40,0,1,,,,,0,7,93,,
108472,note_on,,,,,0,0,1,,,,,0,,,75,0
108472,note_on,,,,,0,0,1,,,,,0,,,70,0
108472,note_on,,,,,2,0,1,,,,,0,,,66,0
108475,set_tempo,,,,,10,1,0,,591133,,,,,,,
108480,note_on,,,,,0,0,1,,,,,0,,,66,89
108480,note_on,,,,,0,0,1,,,,,0,,,70,89
108480,control_change,,,,,0,0,1,,,,,0,7,94,,
108480,note_on,,,,,8,0,1,,,,,0,,,75,89
108495,control_change,,,,,15,0,1,,,,,0,7,95,,
108500,set_tempo,,,,,25,1,0,,594059,,,,,,,
108505,set_tempo,,,,,5,1,0,,597014,,,,,,,
108532,note_on,,,,,0,0,1,,,,,0,,,75,0
108532,note_on,,,,,0,0,1,,,,,0,,,70,0
108532,note_on,,,,,37,0,1,,,,,0,,,66,0
108535,control_change,,,,,3,0,1,,,,,0,64,0,,
108535,control_change,,,,,0,0,1,,,,,0,7,96,,
108540,note_on,,,,,180,0,2,,,,,0,,,63,0
108540,note_on,,,,,0,0,2,,,,,0,,,51,0
108540,control_change,,,,,0,0,1,,,,,0,64,95,,
108540,note_on,,,,,0,0,1,,,,,0,,,66,92
108540,note_on,,,,,0,0,1,,,,,0,,,70,92
108540,note_on,,,,,5,0,1,,,,,0,,,75,92
108555,set_tempo,,,,,50,1,0,,600000,,,,,,,
108565,control_change,,,,,25,0,1,,,,,0,7,97,,
108570,set_tempo,,,,,15,1,0,,603015,,,,,,,
108580,set_tempo,,,,,10,1,0,,603015,,,,,,,
108592,note_on,,,,,0,0,1,,,,,0,,,70,0
108592,note_on,,,,,0,0,1,,,,,0,,,75,0
108592,note_on,,,,,27,0,1,,,,,0,,,66,0
108595,control_change,,,,,3,0,1,,,,,0,7,98,,
108600,note_on,,,,,0,0,1,,,,,0,,,70,97
108600,note_on,,,,,0,0,1,,,,,0,,,66,97
108600,note_on,,,,,0,0,1,,,,,0,,,75,97
108600,note_on,,,,,5,0,1,,,,,0,,,78,97
108605,set_tempo,,,,,25,1,0,,606060,,,,,,,
108605,control_change,,,,,5,0,1,,,,,0,7,99,,
108610,set_tempo,,,,,5,1,0,,609137,,,,,,,
108630,set_tempo,,,,,20,1,0,,612244,,,,,,,
108635,set_tempo,,,,,5,1,0,,615384,,,,,,,
108640,control_change,,,,,35,0,1,,,,,0,7,100,,
108652,note_on,,,,,0,0,1,,,,,0,,,75,0
108652,note_on,,,,,0,0,1,,,,,0,,,66,0
108652,note_on,,,,,0,0,1,,,,,0,,,78,0
108652,note_on,,,,,12,0,1,,,,,0,,,70,0
108655,set_tempo,,,,,20,1,0,,618556,,,,,,,
108660,note_on,,,,,0,0,1,,,,,0,,,75,101
108660,note_on,,,,,8,0,1,,,,,0,,,78,101
108660,note_on,,,,,0,0,1,,,,,0,,,70,101
108660,note_on,,,,,0,0,1,,,,,0,,,66,101
108665,set_tempo,,,,,10,1,0,,625000,,,,,,,
108670,control_change,,,,,10,0,1,,,,,0,7,101,,
108685,control_change,,,,,15,0,1,,,,,0,7,102,,
108710,set_tempo,,,,,45,1,0,,810810,,,,,,,
108712,note_on,,,,,27,0,1,,,,,0,,,75,0
108712,note_on,,,,,0,0,1,,,,,0,,,66,0
108712,note_on,,,,,0,0,1,,,,,0,,,70,0
108712,note_on,,,,,0,0,1,,,,,0,,,78,0
108715,control_change,,,,,3,0,1,,,,,0,64,0,,
108720,set_tempo,,,,,10,1,0,,628272,,,,,,,
108720,note_on,,,,,180,0,2,,,,,0,,,35,105
108720,note_on,,,,,5,0,1,,,,,0,,,75,103
108720,control_change,,,,,0,0,1,,,,,0,7,103,,
108720,control_change,,,,,0,0,1,,,,,0,64,95,,
108720,note_on,,,,,0,0,1,,,,,0,,,71,103
108720,note_on,,,,,0,0,1,,,,,0,,,78,103
108720,note_on,,,,,0,0,1,,,,,0,,,83,103
108720,note_on,,,,,0,0,2,,,,,0,,,47,105
108730,control_change,,,,,10,0,1,,,,,0,7,101,,
108730,set_tempo,,,,,10,1,0,,591133,,,,,,,
108735,control_change,,,,,5,0,1,,,,,0,7,100,,
108740,set_tempo,,,,,10,1,0,,582524,,,,,,,
108745,control_change,,,,,10,0,1,,,,,0,7,99,,
108750,control_change,,,,,5,0,1,,,,,0,7,98,,
108755,control_change,,,,,5,0,1,,,,,0,7,98,,
108772,note_on,,,,,0,0,2,,,,,0,,,35,0
108772,note_on,,,,,52,0,2,,,,,0,,,47,0
108780,note_on,,,,,0,0,2,,,,,0,,,51,113
108780,note_on,,,,,8,0,2,,,,,0,,,39,113
108780,set_tempo,,,,,40,1,0,,576923,,,,,,,
108820,set_tempo,,,,,40,1,0,,571428,,,,,,,
108832,note_on,,,,,0,0,2,,,,,0,,,39,0
108832,note_on,,,,,52,0,2,,,,,0,,,51,0
108840,note_on,,,,,0,0,2,,,,,0,,,51,117
108840,note_on,,,,,8,0,2,,,,,0,,,39,117
108892,note_on,,,,,0,0,2,,,,,0,,,39,0
108892,note_on,,,,,52,0,2,,,,,0,,,51,0
108895,control_change,,,,,140,0,1,,,,,0,64,0,,
108900,note_on,,,,,0,0,2,,,,,0,,,51,117
108900,control_change,,,,,0,0,1,,,,,0,64,95,,
108900,note_on,,,,,0,0,1,,,,,0,,,78,0
108900,note_on,,,,,0,0,1,,,,,0,,,83,0
108900,note_on,,,,,0,0,1,,,,,0,,,75,0
108900,note_on,,,,,5,0,1,,,,,0,,,71,0
108900,note_on,,,,,8,0,2,,,,,0,,,39,117
108920,set_tempo,,,,,100,1,0,,566037,,,,,,,
108952,note_on,,,,,0,0,2,,,,,0,,,39,0
108952,note_on,,,,,52,0,2,,,,,0,,,51,0
108960,note_on,,,,,8,0,2,,,,,0,,,42,117
108960,note_on,,,,,0,0,2,,,,,0,,,54,117
108960,set_tempo,,,,,40,1,0,,560747,,,,,,,
109000,control_change,,,,,100,0,1,,,,,0,7,97,,
109005,control_change,,,,,5,0,1,,,,,0,7,97,,
109012,note_on,,,,,52,0,2,,,,,0,,,54,0
109012,note_on,,,,,0,0,2,,,,,0,,,42,0
109020,note_on,,,,,8,0,2,,,,,0,,,42,117
109020,note_on,,,,,0,0,2,,,,,0,,,54,117
109040,set_tempo,,,,,80,1,0,,555555,,,,,,,
109040,control_change,,,,,35,0,1,,,,,0,7,98,,
109060,control_change,,,,,20,0,1,,,,,0,7,99,,
109072,note_on,,,,,52,0,2,,,,,0,,,54,0
109072,note_on,,,,,0,0,2,,,,,0,,,42,0
109075,control_change,,,,,0,0,1,,,,,0,7,100,,
109075,control_change,,,,,15,0,1,,,,,0,64,0,,
109080,note_on,,,,,0,0,1,,,,,0,,,66,94
109080,note_on,,,,,8,0,2,,,,,0,,,47,117
109080,note_on,,,,,0,0,1,,,,,0,,,75,94
109080,note_on,,,,,5,0,1,,,,,0,,,71,94
109080,note_on,,,,,0,0,2,,,,,0,,,59,117
109095,control_change,,,,,15,0,1,,,,,0,7,101,,
109100,control_change,,,,,5,0,1,,,,,0,7,102,,
109110,set_tempo,,,,,70,1,0,,550458,,,,,,,
109132,note_on,,,,,0,0,1,,,,,0,,,71,0
109132,note_on,,,,,32,0,1,,,,,0,,,66,0
109132,note_on,,,,,0,0,1,,,,,0,,,75,0
109135,control_change,,,,,3,0,1,,,,,0,7,103,,
109140,note_on,,,,,5,0,1,,,,,0,,,71,98
109140,note_on,,,,,0,0,1,,,,,0,,,78,98
109140,note_on,,,,,0,0,1,,,,,0,,,75,98
109155,control_change,,,,,15,0,1,,,,,0,7,104,,
109170,control_change,,,,,15,0,1,,,,,0,7,105,,
109192,note_on,,,,,22,0,1,,,,,0,,,75,0
109192,note_on,,,,,0,0,1,,,,,0,,,78,0
109192,note_on,,,,,0,0,1,,,,,0,,,71,0
109200,note_on,,,,,0,0,1,,,,,0,,,78,101
109200,note_on,,,,,8,0,1,,,,,0,,,71,101
109200,note_on,,,,,0,0,1,,,,,0,,,75,101
109205,control_change,,,,,5,0,1,,,,,0,7,106,,
109245,control_change,,,,,40,0,1,,,,,0,7,107,,
109252,note_on,,,,,7,0,1,,,,,0,,,75,0
109252,note_on,,,,,0,0,1,,,,,0,,,71,0
109252,note_on,,,,,0,0,1,,,,,0,,,78,0
109255,control_change,,,,,3,0,1,,,,,0,7,108,,
109260,set_tempo,,,,,150,1,0,,545454,,,,,,,
109260,note_on,,,,,0,0,1,,,,,0,,,75,104
109260,note_on,,,,,0,0,2,,,,,0,,,47,0
109260,note_on,,,,,5,0,1,,,,,0,,,71,104
109260,note_on,,,,,180,0,2,,,,,0,,,59,0
109260,note_on,,,,,0,0,1,,,,,0,,,78,104
109295,control_change,,,,,35,0,1,,,,,0,7,109,,
109312,note_on,,,,,0,0,1,,,,,0,,,78,0
109312,note_on,,,,,0,0,1,,,,,0,,,71,0
109312,note_on,,,,,17,0,1,,,,,0,,,75,0
109320,note_on,,,,,8,0,1,,,,,0,,,83,108
109320,note_on,,,,,0,0,1,,,,,0,,,78,108
109320,note_on,,,,,0,0,1,,,,,0,,,75,108
109330,control_change,,,,,10,0,1,,,,,0,7,110,,
109355,control_change,,,,,25,0,1,,,,,0,7,111,,
109372,note_on,,,,,17,0,1,,,,,0,,,75,0
109372,note_on,,,,,0,0,1,,,,,0,,,78,0
109372,note_on,,,,,0,0,1,,,,,0,,,83,0
109380,note_on,,,,,0,0,1,,,,,0,,,75,111
109380,note_on,,,,,8,0,1,,,,,0,,,83,111
109380,note_on,,,,,0,0,1,,,,,0,,,78,111
109380,control_change,,,,,0,0,1,,,,,0,7,112,,
109432,note_on,,,,,52,0,1,,,,,0,,,75,0
109432,note_on,,,,,0,0,1,,,,,0,,,78,0
109432,note_on,,,,,0,0,1,,,,,0,,,83,0
109440,control_change,,,,,0,0,1,,,,,0,64,95,,
109440,note_on,,,,,0,0,1,,,,,0,,,81,115
109440,note_on,,,,,0,0,1,,,,,0,,,76,115
109440,note_on,,,,,8,0,1,,,,,0,,,71,115
109440,note_on,,,,,180,0,2,,,,,0,,,35,109
109440,note_on,,,,,0,0,2,,,,,0,,,47,109
109440,set_tempo,,,,,180,1,0,,540540,,,,,,,
109485,control_change,,,,,45,0,1,,,,,0,7,111,,
109492,note_on,,,,,52,0,2,,,,,0,,,47,0
109492,note_on,,,,,0,0,2,,,,,0,,,35,0
109495,control_change,,,,,10,0,1,,,,,0,7,110,,
109500,note_on,,,,,0,0,2,,,,,0,,,52,110
109500,note_on,,,,,8,0,2,,,,,0,,,40,110
109510,control_change,,,,,15,0,1,,,,,0,7,109,,
109515,control_change,,,,,5,0,1,,,,,0,7,108,,
109530,control_change,,,,,15,0,1,,,,,0,7,107,,
109540,control_change,,,,,10,0,1,,,,,0,7,106,,
109550,control_change,,,,,10,0,1,,,,,0,7,105,,
109552,note_on,,,,,0,0,2,,,,,0,,,40,0
109552,note_on,,,,,52,0,2,,,,,0,,,52,0
109555,control_change,,,,,5,0,1,,,,,0,7,104,,
109560,note_on,,,,,0,0,2,,,,,0,,,52,113
109560,note_on,,,,,8,0,2,,,,,0,,,40,113
109575,control_change,,,,,20,0,1,,,,,0,7,102,,
109580,set_tempo,,,,,140,1,0,,535714,,,,,,,
109590,control_change,,,,,15,0,1,,,,,0,7,101,,
109605,control_change,,,,,15,0,1,,,,,0,7,100,,
109612,note_on,,,,,52,0,2,,,,,0,,,52,0
109612,note_on,,,,,0,0,2,,,,,0,,,40,0
109615,control_change,,,,,10,0,1,,,,,0,7,99,,
109620,note_on,,,,,8,0,2,,,,,0,,,40,115
109620,note_on,,,,,0,0,2,,,,,0,,,52,115
109620,control_change,,,,,0,0,1,,,,,0,64,0,,
109620,note_on,,,,,0,0,1,,,,,0,,,79,103
109620,note_on,,,,,5,0,1,,,,,0,,,81,0
109635,control_change,,,,,15,0,1,,,,,0,7,98,,
109672,note_on,,,,,0,0,2,,,,,0,,,40,0
109672,note_on,,,,,52,0,2,,,,,0,,,52,0
109680,note_on,,,,,0,0,1,,,,,0,,,71,0
109680,note_on,,,,,0,0,1,,,,,0,,,76,0
109680,note_on,,,,,45,0,1,,,,,0,,,79,0
109680,note_on,,,,,0,0,2,,,,,0,,,55,116
109680,note_on,,,,,8,0,2,,,,,0,,,43,116
109690,set_tempo,,,,,110,1,0,,530973,,,,,,,
109732,note_on,,,,,0,0,2,,,,,0,,,43,0
109732,note_on,,,,,52,0,2,,,,,0,,,55,0
109740,note_on,,,,,0,0,2,,,,,0,,,55,121
109740,note_on,,,,,8,0,2,,,,,0,,,43,121
109792,note_on,,,,,0,0,2,,,,,0,,,43,0
109792,note_on,,,,,52,0,2,,,,,0,,,55,0
109800,note_on,,,,,0,0,2,,,,,0,,,59,127
109800,note_on,,,,,8,0,2,,,,,0,,,47,127
109800,note_on,,,,,0,0,1,,,,,0,,,67,103
109800,note_on,,,,,0,0,1,,,,,0,,,71,103
109800,note_on,,,,,120,0,1,,,,,0,,,76,103
109800,control_change,,,,,0,0,1,,,,,0,64,96,,
109840,set_tempo,,,,,150,1,0,,526315,,,,,,,
109852,note_on,,,,,52,0,1,,,,,0,,,67,0
109852,note_on,,,,,0,0,1,,,,,0,,,76,0
109852,note_on,,,,,0,0,1,,,,,0,,,71,0
109860,note_on,,,,,0,0,1,,,,,0,,,76,108
109860,note_on,,,,,8,0,1,,,,,0,,,79,108
109860,note_on,,,,,0,0,1,,,,,0,,,71,108
109910,control_change,,,,,50,0,1,,,,,0,7,99,,
109912,note_on,,,,,2,0,1,,,,,0,,,71,0
109912,note_on,,,,,0,0,1,,,,,0,,,79,0
109912,note_on,,,,,0,0,1,,,,,0,,,76,0
109915,control_change,,,,,3,0,1,,,,,0,7,100,,
109920,note_on,,,,,0,0,1,,,,,0,,,76,111
109920,note_on,,,,,0,0,1,,,,,0,,,71,111
109920,note_on,,,,,5,0,1,,,,,0,,,79,111
109950,control_change,,,,,30,0,1,,,,,0,7,101,,
109955,control_change,,,,,5,0,1,,,,,0,7,102,,
109972,note_on,,,,,17,0,1,,,,,0,,,71,0
109972,note_on,,,,,0,0,1,,,,,0,,,76,0
109972,note_on,,,,,0,0,1,,,,,0,,,79,0
109975,control_change,,,,,3,0,1,,,,,0,64,0,,
109980,note_on,,,,,5,0,1,,,,,0,,,79,114
109980,note_on,,,,,0,0,1,,,,,0,,,76,114
109980,note_on,,,,,0,0,1,,,,,0,,,71,114
109980,control_change,,,,,0,0,1,,,,,0,64,95,,
109980,note_on,,,,,0,0,2,,,,,0,,,47,0
109980,note_on,,,,,180,0,2,,,,,0,,,59,0
109985,control_change,,,,,5,0,1,,,,,0,7,103,,
110000,control_change,,,,,15,0,1,,,,,0,7,104,,
110015,control_change,,,,,15,0,1,,,,,0,7,105,,
110020,control_change,,,,,5,0,1,,,,,0,7,106,,
110030,control_change,,,,,10,0,1,,,,,0,7,107,,
110032,note_on,,,,,2,0,1,,,,,0,,,71,0
110032,note_on,,,,,0,0,1,,,,,0,,,76,0
110032,note_on,,,,,0,0,1,,,,,0,,,79,0
110040,note_on,,,,,0,0,1,,,,,0,,,79,120
110040,note_on,,,,,0,0,1,,,,,0,,,76,120
110040,control_change,,,,,0,0,1,,,,,0,7,108,,
110040,note_on,,,,,8,0,1,,,,,0,,,83,120
110045,control_change,,,,,5,0,1,,,,,0,7,109,,
110050,control_change,,,,,5,0,1,,,,,0,7,110,,
110065,control_change,,,,,15,0,1,,,,,0,7,111,,
110070,control_change,,,,,5,0,1,,,,,0,7,112,,
110080,control_change,,,,,10,0,1,,,,,0,7,113,,
110090,control_change,,,,,10,0,1,,,,,0,7,114,,
110092,note_on,,,,,2,0,1,,,,,0,,,76,0
110092,note_on,,,,,0,0,1,,,,,0,,,83,0
110092,note_on,,,,,0,0,1,,,,,0,,,79,0
110100,note_on,,,,,8,0,1,,,,,0,,,83,122
110100,note_on,,,,,0,0,1,,,,,0,,,79,122
110100,note_on,,,,,0,0,1,,,,,0,,,76,122
110105,control_change,,,,,5,0,1,,,,,0,7,115,,
110110,control_change,,,,,5,0,1,,,,,0,7,116,,
110115,control_change,,,,,5,0,1,,,,,0,7,117,,
110125,control_change,,,,,10,0,1,,,,,0,7,118,,
110130,set_tempo,,,,,290,1,0,,521739,,,,,,,
110145,control_change,,,,,20,0,1,,,,,0,7,120,,
110150,control_change,,,,,5,0,1,,,,,0,64,0,,
110152,note_on,,,,,0,0,1,,,,,0,,,83,0
110152,note_on,,,,,0,0,1,,,,,0,,,79,0
110152,note_on,,,,,2,0,1,,,,,0,,,76,0
110160,note_on,,,,,180,0,2,,,,,0,,,36,127
110160,note_on,,,,,8,0,1,,,,,0,,,84,127
110160,note_on,,,,,0,0,1,,,,,0,,,75,127
110160,control_change,,,,,0,0,1,,,,,0,64,96,,
110160,note_on,,,,,0,0,1,,,,,0,,,79,127
110160,note_on,,,,,0,0,2,,,,,0,,,48,127
110165,control_change,,,,,5,0,1,,,,,0,7,120,,
110175,control_change,,,,,10,0,1,,,,,0,7,119,,
110185,control_change,,,,,10,0,1,,,,,0,7,118,,
110195,control_change,,,,,10,0,1,,,,,0,7,117,,
110200,control_change,,,,,5,0,1,,,,,0,7,116,,
110205,control_change,,,,,5,0,1,,,,,0,7,115,,
110212,note_on,,,,,52,0,2,,,,,0,,,48,0
110212,note_on,,,,,0,0,2,,,,,0,,,36,0
110215,control_change,,,,,10,0,1,,,,,0,7,114,,
110220,control_change,,,,,5,0,1,,,,,0,7,113,,
110220,note_on,,,,,8,0,2,,,,,0,,,39,122
110220,note_on,,,,,0,0,2,,,,,0,,,51,122
110225,control_change,,,,,5,0,1,,,,,0,7,112,,
110235,control_change,,,,,10,0,1,,,,,0,7,111,,
110240,control_change,,,,,5,0,1,,,,,0,7,109,,
110240,set_tempo,,,,,110,1,0,,517241,,,,,,,
110255,control_change,,,,,15,0,1,,,,,0,7,107,,
110260,control_change,,,,,5,0,1,,,,,0,7,105,,
110272,note_on,,,,,52,0,2,,,,,0,,,51,0
110272,note_on,,,,,0,0,2,,,,,0,,,39,0
110280,note_on,,,,,8,0,2,,,,,0,,,39,122
110280,note_on,,,,,0,0,2,,,,,0,,,51,122
110280,control_change,,,,,20,0,1,,,,,0,7,103,,
110285,control_change,,,,,5,0,1,,,,,0,7,102,,
110300,control_change,,,,,15,0,1,,,,,0,7,101,,
110305,control_change,,,,,5,0,1,,,,,0,7,100,,
110320,control_change,,,,,15,0,1,,,,,0,7,99,,
110332,note_on,,,,,52,0,2,,,,,0,,,51,0
110332,note_on,,,,,0,0,2,,,,,0,,,39,0
110340,note_on,,,,,0,0,1,,,,,0,,,84,0
110340,note_on,,,,,20,0,1,,,,,0,,,79,0
110340,note_on,,,,,8,0,2,,,,,0,,,39,127
110340,control_change,,,,,0,0,1,,,,,0,64,0,,
110340,control_change,,,,,0,0,1,,,,,0,7,100,,
110340,note_on,,,,,0,0,2,,,,,0,,,51,127
110340,note_on,,,,,0,0,1,,,,,0,,,75,0
110350,control_change,,,,,10,0,1,,,,,0,7,101,,
110360,control_change,,,,,10,0,1,,,,,0,7,102,,
110360,set_tempo,,,,,120,1,0,,512820,,,,,,,
110370,control_change,,,,,10,0,1,,,,,0,7,103,,
110380,control_change,,,,,10,0,1,,,,,0,7,105,,
110390,control_change,,,,,10,0,1,,,,,0,7,106,,
110392,note_on,,,,,52,0,2,,,,,0,,,51,0
110392,note_on,,,,,0,0,2,,,,,0,,,39,0
110395,control_change,,,,,5,0,1,,,,,0,7,107,,
110400,note_on,,,,,0,0,2,,,,,0,,,55,121
110400,control_change,,,,,5,0,1,,,,,0,7,108,,
110400,note_on,,,,,8,0,2,,,,,0,,,43,121
110410,control_change,,,,,10,0,1,,,,,0,7,109,,
110420,control_change,,,,,10,0,1,,,,,0,7,111,,
110435,control_change,,,,,15,0,1,,,,,0,7,113,,
110440,set_tempo,,,,,80,1,0,,508474,,,,,,,
110450,control_change,,,,,15,0,1,,,,,0,7,114,,
110452,note_on,,,,,52,0,2,,,,,0,,,55,0
110452,note_on,,,,,0,0,2,,,,,0,,,43,0
110460,note_on,,,,,0,0,2,,,,,0,,,55,121
110460,control_change,,,,,10,0,1,,,,,0,7,115,,
110460,note_on,,,,,8,0,2,,,,,0,,,43,121
110475,control_change,,,,,15,0,1,,,,,0,7,116,,
110480,control_change,,,,,5,0,1,,,,,0,7,117,,
110500,control_change,,,,,20,0,1,,,,,0,7,118,,
110505,control_change,,,,,5,0,1,,,,,0,7,119,,
110512,note_on,,,,,0,0,2,,,,,0,,,43,0
110512,note_on,,,,,52,0,2,,,,,0,,,55,0
110520,note_on,,,,,0,0,1,,,,,0,,,75,120
110520,note_on,,,,,8,0,2,,,,,0,,,48,127
110520,note_on,,,,,15,0,1,,,,,0,,,67,120
110520,control_change,,,,,0,0,1,,,,,0,7,121,,
110520,control_change,,,,,0,0,1,,,,,0,64,96,,
110520,note_on,,,,,0,0,1,,,,,0,,,72,120
110520,note_on,,,,,0,0,2,,,,,0,,,60,127
110530,control_change,,,,,10,0,1,,,,,0,7,120,,
110545,control_change,,,,,15,0,1,,,,,0,7,119,,
110550,control_change,,,,,5,0,1,,,,,0,7,118,,
110560,control_change,,,,,10,0,1,,,,,0,7,117,,
110572,note_on,,,,,12,0,1,,,,,0,,,75,0
110572,note_on,,,,,0,0,1,,,,,0,,,72,0
110572,note_on,,,,,0,0,1,,,,,0,,,67,0
110575,control_change,,,,,3,0,1,,,,,0,7,116,,
110580,note_on,,,,,5,0,1,,,,,0,,,72,111
110580,note_on,,,,,0,0,1,,,,,0,,,75,111
110580,note_on,,,,,0,0,1,,,,,0,,,79,111
110585,control_change,,,,,5,0,1,,,,,0,7,115,,
110590,set_tempo,,,,,150,1,0,,504201,,,,,,,
110600,control_change,,,,,15,0,1,,,,,0,7,113,,
110620,control_change,,,,,20,0,1,,,,,0,7,112,,
110625,control_change,,,,,5,0,1,,,,,0,7,111,,
110632,note_on,,,,,7,0,1,,,,,0,,,79,0
110632,note_on,,,,,0,0,1,,,,,0,,,75,0
110632,note_on,,,,,0,0,1,,,,,0,,,72,0
110640,note_on,,,,,8,0,1,,,,,0,,,72,107
110640,note_on,,,,,0,0,1,,,,,0,,,75,107
110640,note_on,,,,,0,0,1,,,,,0,,,79,107
110660,control_change,,,,,20,0,1,,,,,0,7,109,,
110665,control_change,,,,,5,0,1,,,,,0,7,108,,
110675,control_change,,,,,10,0,1,,,,,0,7,107,,
110680,control_change,,,,,5,0,1,,,,,0,7,106,,
110690,control_change,,,,,10,0,1,,,,,0,7,105,,
110692,note_on,,,,,2,0,1,,,,,0,,,79,0
110692,note_on,,,,,0,0,1,,,,,0,,,75,0
110692,note_on,,,,,0,0,1,,,,,0,,,72,0
110695,control_change,,,,,3,0,1,,,,,0,64,0,,
110700,note_on,,,,,0,0,2,,,,,0,,,48,0
110700,note_on,,,,,5,0,1,,,,,0,,,72,120
110700,note_on,,,,,180,0,2,,,,,0,,,60,0
110700,note_on,,,,,0,0,1,,,,,0,,,75,120
110700,note_on,,,,,0,0,1,,,,,0,,,79,120
110700,control_change,,,,,0,0,1,,,,,0,64,95,,
110700,control_change,,,,,0,0,1,,,,,0,7,104,,
110705,control_change,,,,,5,0,1,,,,,0,7,103,,
110715,control_change,,,,,10,0,1,,,,,0,7,102,,
110720,set_tempo,,,,,130,1,0,,500000,,,,,,,
110720,control_change,,,,,5,0,1,,,,,0,7,101,,
110725,control_change,,,,,5,0,1,,,,,0,7,100,,
110735,control_change,,,,,10,0,1,,,,,0,7,101,,
110740,control_change,,,,,5,0,1,,,,,0,7,102,,
110750,control_change,,,,,10,0,1,,,,,0,7,103,,
110752,note_on,,,,,2,0,1,,,,,0,,,79,0
110752,note_on,,,,,0,0,1,,,,,0,,,75,0
110752,note_on,,,,,0,0,1,,,,,0,,,72,0
110755,control_change,,,,,3,0,1,,,,,0,7,104,,
110760,note_on,,,,,0,0,1,,,,,0,,,84,113
110760,note_on,,,,,0,0,1,,,,,0,,,79,113
110760,note_on,,,,,5,0,1,,,,,0,,,75,113
110765,control_change,,,,,5,0,1,,,,,0,7,105,,
110775,control_change,,,,,10,0,1,,,,,0,7,106,,
110780,control_change,,,,,5,0,1,,,,,0,7,107,,
110790,control_change,,,,,10,0,1,,,,,0,7,108,,
110800,control_change,,,,,10,0,1,,,,,0,7,109,,
110805,control_change,,,,,5,0,1,,,,,0,7,110,,
110812,note_on,,,,,0,0,1,,,,,0,,,79,0
110812,note_on,,,,,7,0,1,,,,,0,,,84,0
110812,note_on,,,,,0,0,1,,,,,0,,,75,0
110820,note_on,,,,,8,0,1,,,,,0,,,75,117
110820,note_on,,,,,0,0,1,,,,,0,,,84,117
110820,control_change,,,,,0,0,1,,,,,0,7,112,,
110820,note_on,,,,,0,0,1,,,,,0,,,79,117
110835,control_change,,,,,15,0,1,,,,,0,7,113,,
110840,control_change,,,,,5,0,1,,,,,0,7,115,,
110855,control_change,,,,,15,0,1,,,,,0,7,116,,
110860,control_change,,,,,5,0,1,,,,,0,7,117,,
110865,control_change,,,,,5,0,1,,,,,0,7,118,,
110870,control_change,,,,,5,0,1,,,,,0,64,0,,
110870,control_change,,,,,0,0,1,,,,,0,7,119,,
110872,note_on,,,,,2,0,1,,,,,0,,,84,0
110872,note_on,,,,,0,0,1,,,,,0,,,75,0
110872,note_on,,,,,0,0,1,,,,,0,,,79,0
110880,note_on,,,,,0,0,2,,,,,0,,,44,127
110880,note_on,,,,,180,0,2,,,,,0,,,32,127
110880,control_change,,,,,0,0,1,,,,,0,7,120,,
110880,control_change,,,,,0,0,1,,,,,0,64,96,,
110880,note_on,,,,,0,0,1,,,,,0,,,86,113
110880,note_on,,,,,0,0,1,,,,,0,,,84,113
110880,note_on,,,,,0,0,1,,,,,0,,,78,113
110880,note_on,,,,,8,0,1,,,,,0,,,74,113
110930,set_tempo,,,,,210,1,0,,495867,,,,,,,
110932,note_on,,,,,0,0,2,,,,,0,,,32,0
110932,note_on,,,,,52,0,2,,,,,0,,,44,0
110940,note_on,,,,,8,0,2,,,,,0,,,36,122
110940,note_on,,,,,0,0,2,,,,,0,,,48,122
110992,note_on,,,,,0,0,2,,,,,0,,,36,0
110992,note_on,,,,,52,0,2,,,,,0,,,48,0
111000,note_on,,,,,8,0,2,,,,,0,,,36,122
111000,note_on,,,,,0,0,2,,,,,0,,,48,122
111052,note_on,,,,,0,0,2,,,,,0,,,36,0
111052,note_on,,,,,52,0,2,,,,,0,,,48,0
111060,note_on,,,,,0,0,1,,,,,0,,,75,96
111060,note_on,,,,,0,0,1,,,,,0,,,87,96
111060,control_change,,,,,0,0,1,,,,,0,64,0,,
111060,note_on,,,,,0,0,1,,,,,0,,,74,0
111060,note_on,,,,,180,0,1,,,,,0,,,86,0
111060,note_on,,,,,0,0,2,,,,,0,,,48,127
111060,note_on,,,,,8,0,2,,,,,0,,,36,127
111100,set_tempo,,,,,170,1,0,,500000,,,,,,,
111112,note_on,,,,,52,0,2,,,,,0,,,48,0
111112,note_on,,,,,0,0,2,,,,,0,,,36,0
111120,set_tempo,,,,,20,1,0,,504201,,,,,,,
111120,note_on,,,,,0,0,1,,,,,0,,,75,0
111120,note_on,,,,,0,0,1,,,,,0,,,84,0
111120,note_on,,,,,60,0,1,,,,,0,,,87,0
111120,note_on,,,,,8,0,2,,,,,0,,,39,121
111120,note_on,,,,,0,0,2,,,,,0,,,51,121
111120,note_on,,,,,0,0,1,,,,,0,,,78,0
111150,set_tempo,,,,,30,1,0,,508474,,,,,,,
111172,note_on,,,,,0,0,2,,,,,0,,,39,0
111172,note_on,,,,,52,0,2,,,,,0,,,51,0
111180,note_on,,,,,0,0,2,,,,,0,,,51,121
111180,note_on,,,,,8,0,2,,,,,0,,,39,121
111180,set_tempo,,,,,30,1,0,,512820,,,,,,,
111205,set_tempo,,,,,25,1,0,,526315,,,,,,,
111215,set_tempo,,,,,10,1,0,,538116,,,,,,,
111220,set_tempo,,,,,5,1,0,,545454,,,,,,,
111220,control_change,,,,,100,0,1,,,,,0,7,119,,
111225,control_change,,,,,5,0,1,,,,,0,7,118,,
111225,set_tempo,,,,,5,1,0,,547945,,,,,,,
111230,control_change,,,,,5,0,1,,,,,0,7,117,,
111232,note_on,,,,,52,0,2,,,,,0,,,51,0
111232,note_on,,,,,0,0,2,,,,,0,,,39,0
111235,control_change,,,,,5,0,1,,,,,0,7,116,,
111235,set_tempo,,,,,10,1,0,,552995,,,,,,,
111240,note_on,,,,,5,0,1,,,,,0,,,72,120
111240,set_tempo,,,,,5,1,0,,555555,,,,,,,
111240,note_on,,,,,0,0,1,,,,,0,,,66,120
111240,note_on,,,,,0,0,1,,,,,0,,,63,120
111240,control_change,,,,,0,0,1,,,,,0,64,95,,
111240,note_on,,,,,0,0,2,,,,,0,,,56,127
111240,note_on,,,,,8,0,2,,,,,0,,,44,127
111245,set_tempo,,,,,5,1,0,,558139,,,,,,,
111245,control_change,,,,,5,0,1,,,,,0,7,115,,
111250,set_tempo,,,,,5,1,0,,560747,,,,,,,
111255,set_tempo,,,,,5,1,0,,563380,,,,,,,
111255,control_change,,,,,10,0,1,,,,,0,7,114,,
111260,set_tempo,,,,,5,1,0,,568720,,,,,,,
111265,set_tempo,,,,,5,1,0,,571428,,,,,,,
111275,control_change,,,,,20,0,1,,,,,0,7,112,,
111275,set_tempo,,,,,10,1,0,,574162,,,,,,,
111280,set_tempo,,,,,5,1,0,,579710,,,,,,,
111285,set_tempo,,,,,5,1,0,,582524,,,,,,,
111290,control_change,,,,,15,0,1,,,,,0,7,111,,
111292,note_on,,,,,2,0,1,,,,,0,,,63,0
111292,note_on,,,,,0,0,1,,,,,0,,,72,0
111292,note_on,,,,,0,0,1,,,,,0,,,66,0
111295,set_tempo,,,,,10,1,0,,585365,,,,,,,
111300,set_tempo,,,,,5,1,0,,591133,,,,,,,
111300,note_on,,,,,0,0,1,,,,,0,,,72,117
111300,note_on,,,,,0,0,1,,,,,0,,,75,117
111300,note_on,,,,,8,0,1,,,,,0,,,66,117
111305,control_change,,,,,5,0,1,,,,,0,7,110,,
111310,set_tempo,,,,,10,1,0,,594059,,,,,,,
111315,set_tempo,,,,,5,1,0,,600000,,,,,,,
111315,control_change,,,,,10,0,1,,,,,0,7,109,,
111320,set_tempo,,,,,5,1,0,,603015,,,,,,,
111320,control_change,,,,,5,0,1,,,,,0,7,108,,
111325,set_tempo,,,,,5,1,0,,615384,,,,,,,
111330,control_change,,,,,10,0,1,,,,,0,7,107,,
111330,set_tempo,,,,,5,1,0,,618556,,,,,,,
111345,set_tempo,,,,,15,1,0,,621761,,,,,,,
111350,set_tempo,,,,,5,1,0,,625000,,,,,,,
111352,note_on,,,,,0,0,1,,,,,0,,,66,0
111352,note_on,,,,,0,0,1,,,,,0,,,75,0
111352,note_on,,,,,22,0,1,,,,,0,,,72,0
111355,control_change,,,,,3,0,1,,,,,0,7,108,,
111360,note_on,,,,,0,0,1,,,,,0,,,75,113
111360,set_tempo,,,,,10,1,0,,628272,,,,,,,
111360,note_on,,,,,5,0,1,,,,,0,,,66,113
111360,note_on,,,,,0,0,1,,,,,0,,,72,113
111365,set_tempo,,,,,5,1,0,,631578,,,,,,,
111370,control_change,,,,,10,0,1,,,,,0,7,109,,
111375,control_change,,,,,5,0,1,,,,,0,7,110,,
111380,set_tempo,,,,,15,1,0,,634920,,,,,,,
111385,set_tempo,,,,,5,1,0,,638297,,,,,,,
111390,set_tempo,,,,,5,1,0,,641711,,,,,,,
111395,control_change,,,,,20,0,1,,,,,0,7,111,,
111400,set_tempo,,,,,10,1,0,,645161,,,,,,,
111405,set_tempo,,,,,5,1,0,,652173,,,,,,,
111405,control_change,,,,,10,0,1,,,,,0,7,112,,
111410,set_tempo,,,,,5,1,0,,659340,,,,,,,
111412,note_on,,,,,0,0,1,,,,,0,,,75,0
111412,note_on,,,,,7,0,1,,,,,0,,,72,0
111412,note_on,,,,,0,0,1,,,,,0,,,66,0
111415,set_tempo,,,,,5,1,0,,662983,,,,,,,
111415,control_change,,,,,3,0,1,,,,,0,64,0,,
111420,note_on,,,,,0,0,2,,,,,0,,,32,127
111420,note_on,,,,,0,0,2,,,,,0,,,44,127
111420,control_change,,,,,0,0,1,,,,,0,64,96,,
111420,note_on,,,,,0,0,1,,,,,0,,,72,120
111420,control_change,,,,,0,0,1,,,,,0,7,113,,
111420,note_on,,,,,5,0,1,,,,,0,,,66,120
111420,note_on,,,,,0,0,2,,,,,0,,,44,0
111420,note_on,,,,,180,0,2,,,,,0,,,56,0
111420,note_on,,,,,0,0,1,,,,,0,,,75,120
111425,set_tempo,,,,,10,1,0,,677966,,,,,,,
111430,control_change,,,,,10,0,1,,,,,0,7,114,,
111430,set_tempo,,,,,5,1,0,,681818,,,,,,,
111440,set_tempo,,,,,10,1,0,,689655,,,,,,,
111440,control_change,,,,,10,0,1,,,,,0,7,115,,
111445,set_tempo,,,,,5,1,0,,701754,,,,,,,
111455,set_tempo,,,,,10,1,0,,710059,,,,,,,
111455,control_change,,,,,15,0,1,,,,,0,7,116,,
111460,control_change,,,,,5,0,1,,,,,0,7,117,,
111460,set_tempo,,,,,5,1,0,,714285,,,,,,,
111465,set_tempo,,,,,5,1,0,,740740,,,,,,,
111470,set_tempo,,,,,5,1,0,,745341,,,,,,,
111470,control_change,,,,,10,0,1,,,,,0,7,118,,
111472,note_on,,,,,2,0,1,,,,,0,,,72,0
111472,note_on,,,,,0,0,1,,,,,0,,,75,0
111472,note_on,,,,,0,0,1,,,,,0,,,66,0
111475,control_change,,,,,3,0,1,,,,,0,7,119,,
111475,set_tempo,,,,,5,1,0,,754716,,,,,,,
111480,note_on,,,,,5,0,1,,,,,0,,,75,113
111480,note_on,,,,,0,0,1,,,,,0,,,78,113
111480,note_on,,,,,0,0,1,,,,,0,,,72,113
111480,set_tempo,,,,,5,1,0,,764331,,,,,,,
111485,set_tempo,,,,,5,1,0,,774193,,,,,,,
111490,control_change,,,,,10,0,1,,,,,0,7,120,,
111490,set_tempo,,,,,5,1,0,,784313,,,,,,,
111500,set_tempo,,,,,10,1,0,,827586,,,,,,,
111500,control_change,,,,,10,0,1,,,,,0,7,121,,
111505,set_tempo,,,,,5,1,0,,845070,,,,,,,
111510,set_tempo,,,,,5,1,0,,845070,,,,,,,
111515,control_change,,,,,15,0,1,,,,,0,7,122,,
111520,control_change,,,,,5,0,1,,,,,0,7,123,,
111525,set_tempo,,,,,15,1,0,,857142,,,,,,,
111530,control_change,,,,,10,0,1,,,,,0,7,124,,
111532,note_on,,,,,0,0,1,,,,,0,,,75,0
111532,note_on,,,,,0,0,1,,,,,0,,,72,0
111532,note_on,,,,,2,0,1,,,,,0,,,78,0
111540,set_tempo,,,,,15,1,0,,863309,,,,,,,
111540,note_on,,,,,0,0,1,,,,,0,,,72,114
111540,note_on,,,,,8,0,1,,,,,0,,,75,114
111540,note_on,,,,,0,0,1,,,,,0,,,78,114
111545,control_change,,,,,5,0,1,,,,,0,7,125,,
111550,set_tempo,,,,,10,1,0,,869565,,,,,,,
111555,note_on,,,,,135,0,2,,,,,0,,,44,0
111555,control_change,,,,,10,0,1,,,,,0,7,126,,
111555,note_on,,,,,0,0,2,,,,,0,,,32,0
111560,set_tempo,,,,,10,1,0,,875912,,,,,,,
111570,note_on,,,,,15,0,2,,,,,0,,,32,127
111570,note_on,,,,,0,0,2,,,,,0,,,44,127
111570,set_tempo,,,,,10,1,0,,882352,,,,,,,
111585,set_tempo,,,,,15,1,0,,1578947,,,,,,,
111590,control_change,,,,,35,0,1,,,,,0,7,127,,
111592,note_on,,,,,0,0,1,,,,,0,,,72,0
111592,note_on,,,,,0,0,1,,,,,0,,,75,0
111592,note_on,,,,,2,0,1,,,,,0,,,78,0
111595,control_change,,,,,3,0,1,,,,,0,64,0,,
111596,note_on,,,,,0,0,2,,,,,0,,,32,0
111596,note_on,,,,,26,0,2,,,,,0,,,44,0
111600,note_on,,,,,0,0,2,,,,,0,,,43,127
111600,control_change,,,,,0,0,1,,,,,0,64,95,,
111600,note_on,,,,,0,0,1,,,,,0,,,79,123
111600,note_on,,,,,0,0,1,,,,,0,,,75,123
111600,note_on,,,,,5,0,1,,,,,0,,,72,123
111600,set_tempo,,,,,15,1,0,,655737,,,,,,,
111600,note_on,,,,,4,0,2,,,,,0,,,31,127
111605,control_change,,,,,5,0,1,,,,,0,7,126,,
111610,control_change,,,,,5,0,1,,,,,0,7,124,,
111610,set_tempo,,,,,10,1,0,,652173,,,,,,,
111615,control_change,,,,,5,0,1,,,,,0,7,123,,
111615,set_tempo,,,,,5,1,0,,641711,,,,,,,
111620,control_change,,,,,5,0,1,,,,,0,7,122,,
111620,set_tempo,,,,,5,1,0,,638297,,,,,,,
111625,control_change,,,,,5,0,1,,,,,0,7,120,,
111625,set_tempo,,,,,5,1,0,,634920,,,,,,,
111630,control_change,,,,,5,0,1,,,,,0,7,118,,
111635,set_tempo,,,,,10,1,0,,631578,,,,,,,
111635,control_change,,,,,5,0,1,,,,,0,7,117,,
111640,control_change,,,,,5,0,1,,,,,0,7,116,,
111645,control_change,,,,,5,0,1,,,,,0,7,115,,
111645,set_tempo,,,,,10,1,0,,628272,,,,,,,
111650,control_change,,,,,5,0,1,,,,,0,7,114,,
111650,set_tempo,,,,,5,1,0,,625000,,,,,,,
111652,note_on,,,,,0,0,2,,,,,0,,,31,0
111652,note_on,,,,,52,0,2,,,,,0,,,43,0
111655,control_change,,,,,5,0,1,,,,,0,7,113,,
111660,note_on,,,,,0,0,2,,,,,0,,,48,121
111660,note_on,,,,,8,0,2,,,,,0,,,36,121
111665,set_tempo,,,,,15,1,0,,621761,,,,,,,
111670,control_change,,,,,15,0,1,,,,,0,7,110,,
111675,set_tempo,,,,,10,1,0,,618556,,,,,,,
111675,control_change,,,,,5,0,1,,,,,0,7,109,,
111680,set_tempo,,,,,5,1,0,,615384,,,,,,,
111685,control_change,,,,,10,0,1,,,,,0,7,108,,
111690,control_change,,,,,5,0,1,,,,,0,7,106,,
111690,set_tempo,,,,,10,1,0,,612244,,,,,,,
111695,control_change,,,,,5,0,1,,,,,0,7,105,,
111710,control_change,,,,,15,0,1,,,,,0,7,102,,
111710,set_tempo,,,,,20,1,0,,609137,,,,,,,
111712,note_on,,,,,52,0,2,,,,,0,,,48,0
111712,note_on,,,,,0,0,2,,,,,0,,,36,0
111720,set_tempo,,,,,10,1,0,,603015,,,,,,,
111720,note_on,,,,,0,0,2,,,,,0,,,48,121
111720,note_on,,,,,8,0,2,,,,,0,,,36,121
111720,control_change,,,,,10,0,1,,,,,0,7,101,,
111730,control_change,,,,,10,0,1,,,,,0,7,100,,
111735,control_change,,,,,5,0,1,,,,,0,7,99,,
111740,control_change,,,,,5,0,1,,,,,0,7,98,,
111740,set_tempo,,,,,20,1,0,,600000,,,,,,,
111755,control_change,,,,,15,0,1,,,,,0,7,97,,
111770,control_change,,,,,15,0,1,,,,,0,7,96,,
111772,note_on,,,,,0,0,2,,,,,0,,,36,0
111772,note_on,,,,,52,0,2,,,,,0,,,48,0
111775,control_change,,,,,5,0,1,,,,,0,64,0,,
111780,note_on,,,,,0,0,1,,,,,0,,,72,0
111780,control_change,,,,,0,0,1,,,,,0,64,95,,
111780,note_on,,,,,0,0,2,,,,,0,,,36,127
111780,note_on,,,,,8,0,2,,,,,0,,,48,127
111780,note_on,,,,,5,0,1,,,,,0,,,79,0
111780,note_on,,,,,0,0,1,,,,,0,,,75,0
111785,set_tempo,,,,,45,1,0,,597014,,,,,,,
111800,set_tempo,,,,,15,1,0,,594059,,,,,,,
111810,control_change,,,,,30,0,1,,,,,0,7,95,,
111830,set_tempo,,,,,30,1,0,,591133,,,,,,,
111832,note_on,,,,,0,0,2,,,,,0,,,48,0
111832,note_on,,,,,52,0,2,,,,,0,,,36,0
111840,note_on,,,,,8,0,2,,,,,0,,,39,120
111840,note_on,,,,,0,0,2,,,,,0,,,51,120
111850,set_tempo,,,,,20,1,0,,588235,,,,,,,
111860,control_change,,,,,50,0,1,,,,,0,7,93,,
111865,set_tempo,,,,,15,1,0,,594059,,,,,,,
111870,control_change,,,,,10,0,1,,,,,0,7,95,,
111880,control_change,,,,,10,0,1,,,,,0,7,97,,
111880,set_tempo,,,,,15,1,0,,597014,,,,,,,
111885,set_tempo,,,,,5,1,0,,600000,,,,,,,
111890,control_change,,,,,10,0,1,,,,,0,7,98,,
111892,note_on,,,,,52,0,2,,,,,0,,,51,0
111892,note_on,,,,,0,0,2,,,,,0,,,39,0
111895,control_change,,,,,5,0,1,,,,,0,7,99,,
111900,note_on,,,,,0,0,2,,,,,0,,,51,120
111900,note_on,,,,,8,0,2,,,,,0,,,39,120
111900,control_change,,,,,5,0,1,,,,,0,7,100,,
111905,control_change,,,,,5,0,1,,,,,0,7,101,,
111905,set_tempo,,,,,20,1,0,,603015,,,,,,,
111915,set_tempo,,,,,10,1,0,,606060,,,,,,,
111915,control_change,,,,,10,0,1,,,,,0,7,103,,
111920,control_change,,,,,5,0,1,,,,,0,7,104,,
111925,set_tempo,,,,,10,1,0,,609137,,,,,,,
111925,control_change,,,,,5,0,1,,,,,0,7,105,,
111930,set_tempo,,,,,5,1,0,,612244,,,,,,,
111935,control_change,,,,,10,0,1,,,,,0,7,107,,
111940,control_change,,,,,5,0,1,,,,,0,7,108,,
111945,control_change,,,,,5,0,1,,,,,0,7,109,,
111950,set_tempo,,,,,20,1,0,,615384,,,,,,,
111950,control_change,,,,,5,0,1,,,,,0,7,110,,
111952,note_on,,,,,52,0,2,,,,,0,,,51,0
111952,note_on,,,,,0,0,2,,,,,0,,,39,0
111955,control_change,,,,,5,0,1,,,,,0,64,0,,
111960,note_on,,,,,5,0,1,,,,,0,,,71,120
111960,note_on,,,,,8,0,2,,,,,0,,,43,127
111960,note_on,,,,,0,0,1,,,,,0,,,74,120
111960,control_change,,,,,0,0,1,,,,,0,64,94,,
111960,note_on,,,,,0,0,2,,,,,0,,,55,127
111960,set_tempo,,,,,10,1,0,,618556,,,,,,,
111965,control_change,,,,,5,0,1,,,,,0,7,110,,
111970,set_tempo,,,,,10,1,0,,621761,,,,,,,
111985,control_change,,,,,20,0,1,,,,,0,7,109,,
111990,control_change,,,,,5,0,1,,,,,0,7,108,,
112000,set_tempo,,,,,30,1,0,,625000,,,,,,,
112005,control_change,,,,,15,0,1,,,,,0,7,106,,
112010,note_on,,,,,50,0,2,,,,,0,,,55,0
112010,note_on,,,,,0,0,2,,,,,0,,,43,0
112012,note_on,,,,,7,0,1,,,,,0,,,74,0
112012,note_on,,,,,0,0,1,,,,,0,,,71,0
112015,control_change,,,,,0,0,1,,,,,0,64,0,,
112015,control_change,,,,,3,0,1,,,,,0,7,104,,
112020,note_on,,,,,0,0,2,,,,,0,,,53,113
112020,note_on,,,,,0,0,2,,,,,0,,,55,113
112020,note_on,,,,,0,0,2,,,,,0,,,50,113
112020,note_on,,,,,10,0,2,,,,,0,,,43,113
112020,note_on,,,,,5,0,1,,,,,0,,,77,113
112020,note_on,,,,,0,0,1,,,,,0,,,71,113
112020,note_on,,,,,0,0,1,,,,,0,,,79,113
112020,control_change,,,,,0,0,1,,,,,0,64,96,,
112030,set_tempo,,,,,30,1,0,,628272,,,,,,,
112030,control_change,,,,,10,0,1,,,,,0,7,103,,
112035,set_tempo,,,,,5,1,0,,631578,,,,,,,
112050,set_tempo,,,,,15,1,0,,634920,,,,,,,
112055,set_tempo,,,,,5,1,0,,638297,,,,,,,
112060,control_change,,,,,30,0,1,,,,,0,7,101,,
112070,control_change,,,,,10,0,1,,,,,0,7,100,,
112072,note_on,,,,,2,0,1,,,,,0,,,79,0
112072,note_on,,,,,0,0,1,,,,,0,,,71,0
112072,note_on,,,,,0,0,1,,,,,0,,,77,0
112072,note_on,,,,,52,0,2,,,,,0,,,55,0
112072,note_on,,,,,0,0,2,,,,,0,,,43,0
112072,note_on,,,,,0,0,2,,,,,0,,,53,0
112072,note_on,,,,,0,0,2,,,,,0,,,50,0
112075,set_tempo,,,,,20,1,0,,641711,,,,,,,
112080,note_on,,,,,0,0,2,,,,,0,,,55,112
112080,note_on,,,,,0,0,2,,,,,0,,,53,112
112080,note_on,,,,,0,0,2,,,,,0,,,50,112
112080,note_on,,,,,8,0,1,,,,,0,,,71,112
112080,note_on,,,,,8,0,2,,,,,0,,,43,112
112080,note_on,,,,,0,0,1,,,,,0,,,77,112
112080,note_on,,,,,0,0,1,,,,,0,,,79,112
112095,set_tempo,,,,,20,1,0,,645161,,,,,,,
112100,control_change,,,,,20,0,1,,,,,0,7,99,,
112100,set_tempo,,,,,5,1,0,,666666,,,,,,,
112105,control_change,,,,,5,0,1,,,,,0,7,98,,
112110,set_tempo,,,,,10,1,0,,689655,,,,,,,
112115,set_tempo,,,,,5,1,0,,697674,,,,,,,
112120,set_tempo,,,,,5,1,0,,701754,,,,,,,
112125,set_tempo,,,,,5,1,0,,705882,,,,,,,
112132,note_on,,,,,0,0,1,,,,,0,,,77,0
112132,note_on,,,,,27,0,1,,,,,0,,,79,0
112132,note_on,,,,,52,0,2,,,,,0,,,55,0
112132,note_on,,,,,0,0,2,,,,,0,,,43,0
112132,note_on,,,,,0,0,2,,,,,0,,,50,0
112132,note_on,,,,,0,0,2,,,,,0,,,53,0
112132,note_on,,,,,0,0,1,,,,,0,,,71,0
112135,set_tempo,,,,,10,1,0,,714285,,,,,,,
112135,control_change,,,,,3,0,1,,,,,0,7,99,,
112140,note_on,,,,,0,0,2,,,,,0,,,53,120
112140,note_on,,,,,5,0,1,,,,,0,,,71,120
112140,note_on,,,,,0,0,1,,,,,0,,,77,120
112140,note_on,,,,,0,0,1,,,,,0,,,79,120
112140,note_on,,,,,8,0,2,,,,,0,,,43,120
112140,note_on,,,,,0,0,2,,,,,0,,,50,120
112140,note_on,,,,,0,0,2,,,,,0,,,55,120
112140,set_tempo,,,,,5,1,0,,722891,,,,,,,
112145,control_change,,,,,5,0,1,,,,,0,7,100,,
112150,control_change,,,,,5,0,1,,,,,0,7,102,,
112160,control_change,,,,,10,0,1,,,,,0,7,103,,
112170,set_tempo,,,,,30,1,0,,727272,,,,,,,
112170,control_change,,,,,10,0,1,,,,,0,7,105,,
112180,control_change,,,,,10,0,1,,,,,0,7,106,,
112185,set_tempo,,,,,15,1,0,,731707,,,,,,,
112185,control_change,,,,,0,0,1,,,,,0,7,107,,
112185,control_change,,,,,5,0,1,,,,,0,64,0,,
112192,note_on,,,,,0,0,1,,,,,0,,,77,0
112192,note_on,,,,,0,0,2,,,,,0,,,50,0
112192,note_on,,,,,0,0,2,,,,,0,,,53,0
112192,note_on,,,,,7,0,1,,,,,0,,,79,0
112192,note_on,,,,,0,0,2,,,,,0,,,43,0
112192,note_on,,,,,0,0,1,,,,,0,,,71,0
112192,note_on,,,,,52,0,2,,,,,0,,,55,0
112195,set_tempo,,,,,10,1,0,,740740,,,,,,,
112200,note_on,,,,,8,0,2,,,,,0,,,31,113
112200,note_on,,,,,0,0,1,,,,,0,,,77,113
112200,note_on,,,,,0,0,1,,,,,0,,,79,113
112200,note_on,,,,,0,0,2,,,,,0,,,43,113
112200,control_change,,,,,0,0,1,,,,,0,64,95,,
112200,control_change,,,,,0,0,1,,,,,0,7,108,,
112200,note_on,,,,,8,0,1,,,,,0,,,83,113
112200,note_on,,,,,0,0,1,,,,,0,,,71,113
112205,control_change,,,,,5,0,1,,,,,0,7,109,,
112205,set_tempo,,,,,10,1,0,,745341,,,,,,,
112210,control_change,,,,,5,0,1,,,,,0,7,110,,
112220,control_change,,,,,10,0,1,,,,,0,7,111,,
112225,set_tempo,,,,,20,1,0,,750000,,,,,,,
112225,control_change,,,,,5,0,1,,,,,0,7,112,,
112230,control_change,,,,,5,0,1,,,,,0,7,113,,
112230,set_tempo,,,,,5,1,0,,754716,,,,,,,
112240,control_change,,,,,10,0,1,,,,,0,7,114,,
112245,set_tempo,,,,,15,1,0,,759493,,,,,,,
112245,control_change,,,,,5,0,1,,,,,0,7,115,,
112250,set_tempo,,,,,5,1,0,,764331,,,,,,,
112250,control_change,,,,,5,0,1,,,,,0,7,116,,
112252,note_on,,,,,0,0,2,,,,,0,,,31,0
112252,note_on,,,,,0,0,1,,,,,0,,,83,0
112252,note_on,,,,,2,0,1,,,,,0,,,71,0
112252,note_on,,,,,52,0,2,,,,,0,,,43,0
112252,note_on,,,,,0,0,1,,,,,0,,,79,0
112252,note_on,,,,,0,0,1,,,,,0,,,77,0
112260,note_on,,,,,8,0,1,,,,,0,,,83,112
112260,note_on,,,,,0,0,2,,,,,0,,,43,112
112260,note_on,,,,,8,0,2,,,,,0,,,31,112
112260,control_change,,,,,0,0,1,,,,,0,7,117,,
112260,note_on,,,,,0,0,1,,,,,0,,,71,112
112260,note_on,,,,,0,0,1,,,,,0,,,79,112
112260,note_on,,,,,0,0,1,,,,,0,,,77,112
112265,set_tempo,,,,,15,1,0,,769230,,,,,,,
112270,set_tempo,,,,,5,1,0,,774193,,,,,,,
112270,control_change,,,,,10,0,1,,,,,0,7,118,,
112275,control_change,,,,,5,0,1,,,,,0,7,119,,
112275,set_tempo,,,,,5,1,0,,784313,,,,,,,
112280,set_tempo,,,,,5,1,0,,789473,,,,,,,
112285,set_tempo,,,,,5,1,0,,794701,,,,,,,
112290,set_tempo,,,,,5,1,0,,805369,,,,,,,
112295,set_tempo,,,,,5,1,0,,810810,,,,,,,
112305,set_tempo,,,,,10,1,0,,827586,,,,,,,
112310,set_tempo,,,,,5,1,0,,1276595,,,,,,,
112312,note_on,,,,,0,0,1,,,,,0,,,83,0
112312,note_on,,,,,0,0,1,,,,,0,,,79,0
112312,note_on,,,,,0,0,2,,,,,0,,,31,0
112312,note_on,,,,,52,0,2,,,,,0,,,43,0
112312,note_on,,,,,37,0,1,,,,,0,,,71,0
112312,note_on,,,,,0,0,1,,,,,0,,,77,0
112315,control_change,,,,,3,0,1,,,,,0,64,0,,
112315,set_tempo,,,,,5,1,0,,1290322,,,,,,,
112320,set_tempo,,,,,5,1,0,,609137,,,,,,,
112320,note_on,,,,,0,0,2,,,,,0,,,48,127
112320,control_change,,,,,0,0,1,,,,,0,64,96,,
112320,note_on,,,,,0,0,1,,,,,0,,,75,123
112320,note_on,,,,,0,0,1,,,,,0,,,72,123
112320,note_on,,,,,0,0,1,,,,,0,,,79,123
112320,note_on,,,,,5,0,1,,,,,0,,,84,123
112320,note_on,,,,,8,0,2,,,,,0,,,36,127
112345,control_change,,,,,25,0,1,,,,,0,7,118,,
112350,control_change,,,,,5,0,1,,,,,0,7,117,,
112360,control_change,,,,,10,0,1,,,,,0,7,114,,
112365,control_change,,,,,5,0,1,,,,,0,7,113,,
112370,control_change,,,,,5,0,1,,,,,0,7,112,,
112380,control_change,,,,,10,0,1,,,,,0,7,111,,
112385,control_change,,,,,5,0,1,,,,,0,7,110,,
112400,control_change,,,,,15,0,1,,,,,0,7,109,,
112405,control_change,,,,,5,0,1,,,,,0,7,108,,
112420,control_change,,,,,15,0,1,,,,,0,7,107,,
112425,set_tempo,,,,,105,1,0,,641711,,,,,,,
112430,control_change,,,,,10,0,1,,,,,0,7,106,,
112440,control_change,,,,,10,0,1,,,,,0,7,105,,
112455,control_change,,,,,15,0,1,,,,,0,7,103,,
112465,set_tempo,,,,,40,1,0,,634920,,,,,,,
112505,set_tempo,,,,,40,1,0,,628272,,,,,,,
112535,set_tempo,,,,,30,1,0,,625000,,,,,,,
112565,set_tempo,,,,,30,1,0,,618556,,,,,,,
112565,control_change,,,,,110,0,1,,,,,0,7,103,,
112575,set_tempo,,,,,10,1,0,,615384,,,,,,,
112610,control_change,,,,,45,0,1,,,,,0,7,104,,
112610,set_tempo,,,,,35,1,0,,609137,,,,,,,
112620,control_change,,,,,10,0,1,,,,,0,64,0,,
112635,note_on,,,,,0,0,1,,,,,0,,,72,0
112635,note_on,,,,,315,0,2,,,,,0,,,48,0
112635,note_on,,,,,0,0,2,,,,,0,,,36,0
112635,note_on,,,,,0,0,1,,,,,0,,,84,0
112635,note_on,,,,,0,0,1,,,,,0,,,79,0
112635,note_on,,,,,15,0,1,,,,,0,,,75,0
112640,set_tempo,,,,,30,1,0,,606060,,,,,,,
112645,set_tempo,,,,,5,1,0,,710059,,,,,,,
112650,note_on,,,,,15,0,1,,,,,0,,,86,123
112650,note_on,,,,,0,0,1,,,,,0,,,83,123
112650,note_on,,,,,15,0,2,,,,,0,,,36,127
112650,note_on,,,,,0,0,2,,,,,0,,,48,127
112650,note_on,,,,,0,0,1,,,,,0,,,74,123
112650,note_on,,,,,0,0,1,,,,,0,,,79,123
112655,control_change,,,,,5,0,1,,,,,0,7,105,,
112675,set_tempo,,,,,30,1,0,,714285,,,,,,,
112676,note_on,,,,,26,0,2,,,,,0,,,48,0
112676,note_on,,,,,0,0,2,,,,,0,,,36,0
112676,note_on,,,,,21,0,1,,,,,0,,,74,0
112676,note_on,,,,,0,0,1,,,,,0,,,86,0
112676,note_on,,,,,0,0,1,,,,,0,,,79,0
112676,note_on,,,,,0,0,1,,,,,0,,,83,0
112680,note_on,,,,,4,0,2,,,,,0,,,36,127
112680,note_on,,,,,0,0,2,,,,,0,,,48,127
112680,note_on,,,,,0,0,1,,,,,0,,,75,123
112680,note_on,,,,,0,0,1,,,,,0,,,84,123
112680,note_on,,,,,0,0,1,,,,,0,,,79,123
112680,note_on,,,,,4,0,1,,,,,0,,,87,123
112680,control_change,,,,,0,0,1,,,,,0,64,95,,
112710,set_tempo,,,,,35,1,0,,594059,,,,,,,
112750,set_tempo,,,,,40,1,0,,588235,,,,,,,
112780,set_tempo,,,,,30,1,0,,585365,,,,,,,
112785,set_tempo,,,,,5,1,0,,582524,,,,,,,
112790,control_change,,,,,110,0,1,,,,,0,7,106,,
112795,set_tempo,,,,,10,1,0,,579710,,,,,,,
112805,set_tempo,,,,,10,1,0,,576923,,,,,,,
112835,set_tempo,,,,,30,1,0,,574162,,,,,,,
112840,set_tempo,,,,,5,1,0,,571428,,,,,,,
112875,set_tempo,,,,,35,1,0,,568720,,,,,,,
112900,control_change,,,,,110,0,1,,,,,0,7,107,,
112935,set_tempo,,,,,60,1,0,,566037,,,,,,,
112945,control_change,,,,,45,0,1,,,,,0,7,108,,
112990,control_change,,,,,45,0,1,,,,,0,7,110,,
112995,note_on,,,,,0,0,1,,,,,0,,,79,0
112995,note_on,,,,,0,0,1,,,,,0,,,84,0
112995,note_on,,,,,0,0,2,,,,,0,,,36,0
112995,note_on,,,,,315,0,2,,,,,0,,,48,0
112995,note_on,,,,,0,0,1,,,,,0,,,87,0
112995,note_on,,,,,5,0,1,,,,,0,,,75,0
113000,set_tempo,,,,,65,1,0,,701754,,,,,,,
113010,note_on,,,,,15,0,1,,,,,0,,,77,123
113010,note_on,,,,,0,0,1,,,,,0,,,86,123
113010,note_on,,,,,0,0,1,,,,,0,,,89,123
113010,note_on,,,,,15,0,2,,,,,0,,,36,127
113010,note_on,,,,,0,0,2,,,,,0,,,48,127
113030,control_change,,,,,20,0,1,,,,,0,7,111,,
113035,control_change,,,,,5,0,1,,,,,0,64,0,,
113036,note_on,,,,,1,0,1,,,,,0,,,89,0
113036,note_on,,,,,0,0,1,,,,,0,,,86,0
113036,note_on,,,,,0,0,1,,,,,0,,,77,0
113036,note_on,,,,,26,0,2,,,,,0,,,48,0
113036,note_on,,,,,0,0,2,,,,,0,,,36,0
113040,note_on,,,,,4,0,1,,,,,0,,,91,123
113040,note_on,,,,,0,0,1,,,,,0,,,87,123
113040,note_on,,,,,0,0,1,,,,,0,,,79,123
113040,control_change,,,,,0,0,1,,,,,0,64,96,,
113040,note_on,,,,,0,0,2,,,,,0,,,48,127
113040,note_on,,,,,4,0,2,,,,,0,,,36,127
113070,set_tempo,,,,,70,1,0,,579710,,,,,,,
113105,set_tempo,,,,,35,1,0,,582524,,,,,,,
113115,control_change,,,,,75,0,1,,,,,0,7,113,,
113130,control_change,,,,,15,0,1,,,,,0,7,114,,
113135,set_tempo,,,,,30,1,0,,585365,,,,,,,
113170,control_change,,,,,40,0,1,,,,,0,7,115,,
113175,set_tempo,,,,,40,1,0,,588235,,,,,,,
113185,set_tempo,,,,,10,1,0,,591133,,,,,,,
113195,control_change,,,,,25,0,1,,,,,0,7,116,,
113195,set_tempo,,,,,10,1,0,,594059,,,,,,,
113200,control_change,,,,,5,0,1,,,,,0,7,117,,
113230,set_tempo,,,,,35,1,0,,597014,,,,,,,
113245,control_change,,,,,45,0,1,,,,,0,7,119,,
113270,set_tempo,,,,,40,1,0,,600000,,,,,,,
113280,set_tempo,,,,,10,1,0,,603015,,,,,,,
113280,control_change,,,,,35,0,1,,,,,0,64,0,,
113285,control_change,,,,,5,0,1,,,,,0,7,120,,
113290,control_change,,,,,5,0,1,,,,,0,7,121,,
113295,control_change,,,,,5,0,1,,,,,0,7,122,,
113305,set_tempo,,,,,25,1,0,,606060,,,,,,,
113310,control_change,,,,,15,0,1,,,,,0,7,123,,
113310,set_tempo,,,,,5,1,0,,609137,,,,,,,
113325,set_tempo,,,,,15,1,0,,612244,,,,,,,
113330,set_tempo,,,,,5,1,0,,618556,,,,,,,
113330,control_change,,,,,20,0,1,,,,,0,7,124,,
113335,set_tempo,,,,,5,1,0,,621761,,,,,,,
113340,control_change,,,,,10,0,1,,,,,0,7,123,,
113350,control_change,,,,,10,0,1,,,,,0,7,121,,
113350,set_tempo,,,,,15,1,0,,625000,,,,,,,
113355,note_on,,,,,0,0,2,,,,,0,,,36,0
113355,note_on,,,,,315,0,2,,,,,0,,,48,0
113355,note_on,,,,,0,0,1,,,,,0,,,91,0
113355,note_on,,,,,0,0,1,,,,,0,,,87,0
113355,note_on,,,,,5,0,1,,,,,0,,,79,0
113355,set_tempo,,,,,5,1,0,,784313,,,,,,,
113360,set_tempo,,,,,5,1,0,,789473,,,,,,,
113370,note_on,,,,,15,0,1,,,,,0,,,79,127
113370,note_on,,,,,0,0,1,,,,,0,,,92,127
113370,note_on,,,,,15,0,2,,,,,0,,,35,127
113370,note_on,,,,,0,0,2,,,,,0,,,47,127
113370,note_on,,,,,0,0,1,,,,,0,,,89,127
113385,control_change,,,,,15,0,1,,,,,0,7,119,,
113390,set_tempo,,,,,30,1,0,,727272,,,,,,,
113396,note_on,,,,,11,0,1,,,,,0,,,92,0
113396,note_on,,,,,0,0,1,,,,,0,,,89,0
113396,note_on,,,,,0,0,1,,,,,0,,,79,0
113396,note_on,,,,,0,0,2,,,,,0,,,35,0
113396,note_on,,,,,26,0,2,,,,,0,,,47,0
113400,note_on,,,,,4,0,1,,,,,0,,,79,127
113400,note_on,,,,,4,0,2,,,,,0,,,36,127
113400,note_on,,,,,0,0,2,,,,,0,,,48,127
113400,note_on,,,,,0,0,1,,,,,0,,,87,127
113400,note_on,,,,,0,0,1,,,,,0,,,91,127
113400,control_change,,,,,0,0,1,,,,,0,7,118,,
113405,set_tempo,,,,,15,1,0,,722891,,,,,,,
113410,control_change,,,,,10,0,1,,,,,0,7,117,,
113410,set_tempo,,,,,5,1,0,,718562,,,,,,,
113420,control_change,,,,,10,0,1,,,,,0,7,115,,
113425,set_tempo,,,,,15,1,0,,714285,,,,,,,
113430,set_tempo,,,,,5,1,0,,697674,,,,,,,
113435,set_tempo,,,,,5,1,0,,677966,,,,,,,
113440,control_change,,,,,20,0,1,,,,,0,7,114,,
113445,control_change,,,,,5,0,1,,,,,0,7,112,,
113485,control_change,,,,,40,0,1,,,,,0,7,111,,
113490,set_tempo,,,,,55,1,0,,670391,,,,,,,
113495,control_change,,,,,10,0,1,,,,,0,7,109,,
113505,set_tempo,,,,,15,1,0,,666666,,,,,,,
113525,control_change,,,,,30,0,1,,,,,0,7,107,,
113535,control_change,,,,,10,0,1,,,,,0,7,106,,
113535,set_tempo,,,,,30,1,0,,652173,,,,,,,
113540,set_tempo,,,,,5,1,0,,645161,,,,,,,
113545,set_tempo,,,,,5,1,0,,641711,,,,,,,
113545,control_change,,,,,10,0,1,,,,,0,7,105,,
113550,set_tempo,,,,,5,1,0,,638297,,,,,,,
113575,control_change,,,,,30,0,1,,,,,0,7,103,,
113605,control_change,,,,,30,0,1,,,,,0,7,102,,
113615,control_change,,,,,10,0,1,,,,,0,7,101,,
113645,control_change,,,,,30,0,1,,,,,0,7,100,,
113685,control_change,,,,,40,0,1,,,,,0,7,98,,
113710,set_tempo,,,,,160,1,0,,705882,,,,,,,
113715,note_on,,,,,0,0,1,,,,,0,,,79,0
113715,note_on,,,,,0,0,1,,,,,0,,,87,0
113715,note_on,,,,,30,0,1,,,,,0,,,91,0
113715,note_on,,,,,0,0,2,,,,,0,,,36,0
113715,note_on,,,,,315,0,2,,,,,0,,,48,0
113725,control_change,,,,,10,0,1,,,,,0,7,97,,
113730,note_on,,,,,15,0,2,,,,,0,,,35,123
113730,note_on,,,,,0,0,2,,,,,0,,,47,123
113730,note_on,,,,,0,0,1,,,,,0,,,89,123
113730,note_on,,,,,5,0,1,,,,,0,,,80,123
113730,note_on,,,,,0,0,1,,,,,0,,,86,123
113730,control_change,,,,,0,0,1,,,,,0,7,96,,
113740,control_change,,,,,10,0,1,,,,,0,7,95,,
113750,control_change,,,,,10,0,1,,,,,0,7,96,,
113755,set_tempo,,,,,45,1,0,,710059,,,,,,,
113756,note_on,,,,,6,0,1,,,,,0,,,89,0
113756,note_on,,,,,0,0,1,,,,,0,,,86,0
113756,note_on,,,,,0,0,1,,,,,0,,,80,0
113756,note_on,,,,,26,0,2,,,,,0,,,47,0
113756,note_on,,,,,0,0,2,,,,,0,,,35,0
113760,note_on,,,,,0,0,1,,,,,0,,,87,120
113760,note_on,,,,,4,0,1,,,,,0,,,79,120
113760,note_on,,,,,0,0,1,,,,,0,,,84,120
113760,note_on,,,,,4,0,2,,,,,0,,,36,119
113760,note_on,,,,,0,0,2,,,,,0,,,48,119
113795,set_tempo,,,,,40,1,0,,631578,,,,,,,
113800,control_change,,,,,40,0,1,,,,,0,7,97,,
113815,set_tempo,,,,,20,1,0,,634920,,,,,,,
113820,set_tempo,,,,,5,1,0,,638297,,,,,,,
113830,set_tempo,,,,,10,1,0,,641711,,,,,,,
113850,set_tempo,,,,,20,1,0,,645161,,,,,,,
113855,set_tempo,,,,,5,1,0,,648648,,,,,,,
113885,set_tempo,,,,,30,1,0,,652173,,,,,,,
113890,set_tempo,,,,,5,1,0,,655737,,,,,,,
113895,note_on,,,,,135,0,2,,,,,0,,,48,0
113895,note_on,,,,,0,0,2,,,,,0,,,36,0
113895,note_on,,,,,95,0,1,,,,,0,,,87,0
113895,note_on,,,,,0,0,1,,,,,0,,,79,0
113895,note_on,,,,,0,0,1,,,,,0,,,84,0
113910,note_on,,,,,15,0,1,,,,,0,,,77,120
113910,note_on,,,,,0,0,2,,,,,0,,,50,119
113910,note_on,,,,,15,0,2,,,,,0,,,38,119
113910,note_on,,,,,0,0,1,,,,,0,,,86,120
113910,set_tempo,,,,,20,1,0,,659340,,,,,,,
113910,note_on,,,,,0,0,1,,,,,0,,,83,120
113940,note_on,,,,,0,0,2,,,,,0,,,51,112
113940,set_tempo,,,,,30,1,0,,662983,,,,,,,
113940,note_on,,,,,0,0,2,,,,,0,,,38,0
113940,note_on,,,,,0,0,2,,,,,0,,,39,112
113940,note_on,,,,,30,0,2,,,,,0,,,50,0
113940,note_on,,,,,0,0,1,,,,,0,,,83,0
113940,note_on,,,,,0,0,1,,,,,0,,,77,0
113940,note_on,,,,,0,0,1,,,,,0,,,75,111
113940,note_on,,,,,0,0,1,,,,,0,,,84,111
113940,note_on,,,,,30,0,1,,,,,0,,,86,0
113980,set_tempo,,,,,40,1,0,,666666,,,,,,,
114010,set_tempo,,,,,30,1,0,,670391,,,,,,,
114050,set_tempo,,,,,40,1,0,,674157,,,,,,,
114075,note_on,,,,,0,0,2,,,,,0,,,39,0
114075,note_on,,,,,0,0,1,,,,,0,,,75,0
114075,note_on,,,,,135,0,1,,,,,0,,,84,0
114075,note_on,,,,,135,0,2,,,,,0,,,51,0
114090,note_on,,,,,15,0,1,,,,,0,,,77,105
114090,note_on,,,,,15,0,2,,,,,0,,,44,102
114090,note_on,,,,,0,0,2,,,,,0,,,56,102
114090,set_tempo,,,,,40,1,0,,774193,,,,,,,
114090,note_on,,,,,0,0,1,,,,,0,,,86,105
114120,control_change,,,,,0,0,1,,,,,0,64,95,,
114120,note_on,,,,,0,0,1,,,,,0,,,84,107
114120,note_on,,,,,30,0,1,,,,,0,,,86,0
114120,note_on,,,,,0,0,1,,,,,0,,,77,0
114120,note_on,,,,,0,0,2,,,,,0,,,55,103
114120,note_on,,,,,0,0,2,,,,,0,,,43,103
114120,note_on,,,,,0,0,2,,,,,0,,,44,0
114120,note_on,,,,,30,0,2,,,,,0,,,56,0
114120,note_on,,,,,0,0,1,,,,,0,,,75,107
114155,set_tempo,,,,,65,1,0,,689655,,,,,,,
114165,set_tempo,,,,,10,1,0,,693641,,,,,,,
114175,set_tempo,,,,,10,1,0,,697674,,,,,,,
114180,set_tempo,,,,,5,1,0,,701754,,,,,,,
114195,set_tempo,,,,,15,1,0,,705882,,,,,,,
114205,set_tempo,,,,,10,1,0,,710059,,,,,,,
114215,set_tempo,,,,,10,1,0,,714285,,,,,,,
114220,set_tempo,,,,,5,1,0,,718562,,,,,,,
114240,set_tempo,,,,,20,1,0,,722891,,,,,,,
114245,set_tempo,,,,,5,1,0,,727272,,,,,,,
114275,set_tempo,,,,,30,1,0,,736196,,,,,,,
114300,note_on,,,,,0,0,1,,,,,0,,,75,0
114300,note_on,,,,,0,0,1,,,,,0,,,74,59
114300,note_on,,,,,0,0,1,,,,,0,,,83,59
114300,note_on,,,,,180,0,1,,,,,0,,,84,0
114305,set_tempo,,,,,30,1,0,,740740,,,,,,,
114310,set_tempo,,,,,5,1,0,,745341,,,,,,,
114315,set_tempo,,,,,5,1,0,,750000,,,,,,,
114325,set_tempo,,,,,10,1,0,,754716,,,,,,,
114345,set_tempo,,,,,20,1,0,,759493,,,,,,,
114350,set_tempo,,,,,5,1,0,,745341,,,,,,,
114360,note_on,,,,,0,0,1,,,,,0,,,74,0
114360,note_on,,,,,60,0,1,,,,,0,,,83,0
114360,note_on,,,,,240,0,2,,,,,0,,,55,0
114360,note_on,,,,,0,0,2,,,,,0,,,43,0
114395,set_tempo,,,,,45,1,0,,710059,,,,,,,
114405,set_tempo,,,,,10,1,0,,701754,,,,,,,
114420,control_change,,,,,0,0,1,,,,,0,64,0,,
114420,control_change,,,,,60,0,1,,,,,0,7,79,,
114420,set_tempo,,,,,15,1,0,,697674,,,,,,,
114440,set_tempo,,,,,20,1,0,,693641,,,,,,,
114450,note_on,,,,,30,0,1,,,,,0,,,67,57
114460,set_tempo,,,,,20,1,0,,685714,,,,,,,
114470,set_tempo,,,,,10,1,0,,693641,,,,,,,
114476,note_on,,,,,26,0,1,,,,,0,,,67,0
114480,note_on,,,,,4,0,1,,,,,0,,,67,54
114480,set_tempo,,,,,10,1,0,,677966,,,,,,,
114485,set_tempo,,,,,5,1,0,,652173,,,,,,,
114495,set_tempo,,,,,10,1,0,,648648,,,,,,,
114500,set_tempo,,,,,5,1,0,,641711,,,,,,,
114505,set_tempo,,,,,5,1,0,,638297,,,,,,,
114515,set_tempo,,,,,10,1,0,,634920,,,,,,,
114520,set_tempo,,,,,5,1,0,,631578,,,,,,,
114525,set_tempo,,,,,5,1,0,,621761,,,,,,,
114540,note_on,,,,,0,0,1,,,,,0,,,67,47
114540,note_on,,,,,60,0,1,,,,,0,,,67,0
114594,note_on,,,,,54,0,1,,,,,0,,,67,0
114600,note_on,,,,,6,0,1,,,,,0,,,67,47
114654,note_on,,,,,54,0,1,,,,,0,,,67,0
114660,note_on,,,,,6,0,1,,,,,0,,,67,47
114717,note_on,,,,,57,0,1,,,,,0,,,67,0
114720,note_on,,,,,3,0,1,,,,,0,,,67,49
114774,note_on,,,,,54,0,1,,,,,0,,,67,0
114780,note_on,,,,,6,0,1,,,,,0,,,67,53
114834,note_on,,,,,54,0,1,,,,,0,,,67,0
114840,note_on,,,,,6,0,1,,,,,0,,,67,56
114845,set_tempo,,,,,320,1,0,,625000,,,,,,,
114885,set_tempo,,,,,40,1,0,,628272,,,,,,,
114897,note_on,,,,,57,0,1,,,,,0,,,67,0
114900,note_on,,,,,3,0,1,,,,,0,,,67,61
114920,set_tempo,,,,,35,1,0,,631578,,,,,,,
114940,set_tempo,,,,,20,1,0,,634920,,,,,,,
114954,note_on,,,,,54,0,1,,,,,0,,,67,0
114960,note_on,,,,,6,0,1,,,,,0,,,67,64
114980,set_tempo,,,,,40,1,0,,638297,,,,,,,
115000,set_tempo,,,,,20,1,0,,641711,,,,,,,
115014,note_on,,,,,54,0,1,,,,,0,,,67,0
115015,set_tempo,,,,,15,1,0,,645161,,,,,,,
115020,note_on,,,,,6,0,1,,,,,0,,,67,67
115030,set_tempo,,,,,15,1,0,,648648,,,,,,,
115060,set_tempo,,,,,30,1,0,,652173,,,,,,,
115065,set_tempo,,,,,5,1,0,,655737,,,,,,,
115077,note_on,,,,,57,0,1,,,,,0,,,67,0
115080,note_on,,,,,3,0,1,,,,,0,,,67,67
115090,set_tempo,,,,,25,1,0,,659340,,,,,,,
115095,set_tempo,,,,,5,1,0,,662983,,,,,,,
115110,set_tempo,,,,,15,1,0,,666666,,,,,,,
115125,set_tempo,,,,,15,1,0,,670391,,,,,,,
115135,note_on,,,,,55,0,1,,,,,0,,,67,0
115135,set_tempo,,,,,10,1,0,,674157,,,,,,,
115140,set_tempo,,,,,5,1,0,,677966,,,,,,,
115140,note_on,,,,,5,0,1,,,,,0,,,72,68
115140,note_on,,,,,0,0,2,,,,,0,,,67,46
115140,note_on,,,,,780,0,2,,,,,0,,,64,46
115155,set_tempo,,,,,15,1,0,,681818,,,,,,,
115175,set_tempo,,,,,20,1,0,,685714,,,,,,,
115180,set_tempo,,,,,5,1,0,,689655,,,,,,,
115195,set_tempo,,,,,15,1,0,,693641,,,,,,,
115200,note_on,,,,,0,0,2,,,,,0,,,64,0
115200,note_on,,,,,0,0,2,,,,,0,,,55,54
115200,note_on,,,,,60,0,2,,,,,0,,,67,0
115200,note_on,,,,,60,0,1,,,,,0,,,72,0
115200,note_on,,,,,0,0,1,,,,,0,,,71,75
115200,control_change,,,,,0,0,1,,,,,0,64,97,,
115210,set_tempo,,,,,15,1,0,,697674,,,,,,,
115220,set_tempo,,,,,10,1,0,,701754,,,,,,,
115230,set_tempo,,,,,10,1,0,,705882,,,,,,,
115250,set_tempo,,,,,20,1,0,,710059,,,,,,,
115260,note_on,,,,,60,0,2,,,,,0,,,55,0
115290,note_on,,,,,0,0,2,,,,,0,,,65,49
115290,note_on,,,,,30,0,2,,,,,0,,,62,49
115315,note_on,,,,,25,0,2,,,,,0,,,65,0
115315,note_on,,,,,0,0,2,,,,,0,,,62,0
115320,control_change,,,,,120,0,1,,,,,0,64,0,,
115320,note_on,,,,,5,0,2,,,,,0,,,62,46
115320,note_on,,,,,0,0,2,,,,,0,,,65,46
115380,note_on,,,,,60,0,1,,,,,0,,,71,0
115380,note_on,,,,,0,0,1,,,,,0,,,69,60
115380,control_change,,,,,0,0,1,,,,,0,64,96,,
115380,note_on,,,,,60,0,2,,,,,0,,,65,0
115380,note_on,,,,,0,0,2,,,,,0,,,62,0
115380,note_on,,,,,0,0,2,,,,,0,,,55,56
115390,set_tempo,,,,,140,1,0,,701754,,,,,,,
115440,note_on,,,,,60,0,2,,,,,0,,,55,0
115460,set_tempo,,,,,70,1,0,,697674,,,,,,,
115470,note_on,,,,,30,0,2,,,,,0,,,60,51
115470,note_on,,,,,0,0,2,,,,,0,,,64,51
115495,note_on,,,,,0,0,2,,,,,0,,,60,0
115495,note_on,,,,,25,0,2,,,,,0,,,64,0
115500,note_on,,,,,120,0,1,,,,,0,,,81,59
115500,note_on,,,,,5,0,2,,,,,0,,,60,47
115500,note_on,,,,,0,0,2,,,,,0,,,64,47
115500,control_change,,,,,0,0,1,,,,,0,64,0,,
115515,set_tempo,,,,,55,1,0,,693641,,,,,,,
115555,set_tempo,,,,,40,1,0,,689655,,,,,,,
115560,note_on,,,,,60,0,2,,,,,0,,,64,0
115560,note_on,,,,,0,0,2,,,,,0,,,60,0
115560,note_on,,,,,0,0,2,,,,,0,,,55,55
115560,note_on,,,,,0,0,1,,,,,0,,,79,55
115560,control_change,,,,,0,0,1,,,,,0,64,96,,
115560,note_on,,,,,0,0,1,,,,,0,,,67,62
115560,note_on,,,,,0,0,1,,,,,0,,,69,0
115560,note_on,,,,,60,0,1,,,,,0,,,81,0
115605,set_tempo,,,,,50,1,0,,685714,,,,,,,
115614,note_on,,,,,54,0,1,,,,,0,,,67,0
115614,note_on,,,,,54,0,2,,,,,0,,,55,0
115620,note_on,,,,,6,0,1,,,,,0,,,71,60
115620,note_on,,,,,6,0,2,,,,,0,,,62,55
115620,note_on,,,,,0,0,2,,,,,0,,,59,55
115630,set_tempo,,,,,25,1,0,,681818,,,,,,,
115645,set_tempo,,,,,15,1,0,,677966,,,,,,,
115670,note_on,,,,,0,0,2,,,,,0,,,62,0
115670,note_on,,,,,50,0,2,,,,,0,,,59,0
115670,note_on,,,,,50,0,1,,,,,0,,,71,0
115680,note_on,,,,,0,0,2,,,,,0,,,59,55
115680,note_on,,,,,10,0,2,,,,,0,,,62,55
115680,note_on,,,,,10,0,1,,,,,0,,,72,65
115685,set_tempo,,,,,40,1,0,,674157,,,,,,,
115690,set_tempo,,,,,5,1,0,,670391,,,,,,,
115720,set_tempo,,,,,30,1,0,,666666,,,,,,,
115730,note_on,,,,,50,0,1,,,,,0,,,72,0
115730,note_on,,,,,50,0,2,,,,,0,,,59,0
115730,note_on,,,,,0,0,2,,,,,0,,,62,0
115735,control_change,,,,,5,0,1,,,,,0,64,0,,
115740,control_change,,,,,0,0,1,,,,,0,64,95,,
115740,note_on,,,,,5,0,1,,,,,0,,,79,0
115740,note_on,,,,,0,0,1,,,,,0,,,67,65
115740,note_on,,,,,0,0,1,,,,,0,,,74,65
115740,note_on,,,,,10,0,2,,,,,0,,,53,61
115790,set_tempo,,,,,70,1,0,,662983,,,,,,,
115790,note_on,,,,,50,0,1,,,,,0,,,74,0
115794,note_on,,,,,54,0,2,,,,,0,,,53,0
115800,note_on,,,,,10,0,1,,,,,0,,,76,61
115800,set_tempo,,,,,10,1,0,,659340,,,,,,,
115800,note_on,,,,,0,0,2,,,,,0,,,55,55
115800,note_on,,,,,0,0,2,,,,,0,,,62,55
115800,note_on,,,,,6,0,2,,,,,0,,,59,55
115850,note_on,,,,,0,0,2,,,,,0,,,59,0
115850,note_on,,,,,0,0,2,,,,,0,,,55,0
115850,note_on,,,,,50,0,2,,,,,0,,,62,0
115850,note_on,,,,,50,0,1,,,,,0,,,76,0
115855,set_tempo,,,,,55,1,0,,655737,,,,,,,
115860,note_on,,,,,0,0,2,,,,,0,,,62,49
115860,note_on,,,,,0,0,2,,,,,0,,,59,49
115860,note_on,,,,,10,0,2,,,,,0,,,55,49
115860,note_on,,,,,10,0,1,,,,,0,,,77,56
115875,set_tempo,,,,,20,1,0,,652173,,,,,,,
115910,note_on,,,,,0,0,2,,,,,0,,,59,0
115910,note_on,,,,,0,0,2,,,,,0,,,55,0
115910,note_on,,,,,50,0,1,,,,,0,,,77,0
115910,note_on,,,,,50,0,2,,,,,0,,,62,0
115915,set_tempo,,,,,40,1,0,,645161,,,,,,,
115915,control_change,,,,,5,0,1,,,,,0,64,0,,
115920,note_on,,,,,0,0,1,,,,,0,,,79,62
115920,note_on,,,,,10,0,2,,,,,0,,,52,62
115920,note_on,,,,,5,0,1,,,,,0,,,67,0
115920,control_change,,,,,0,0,1,,,,,0,64,96,,
115920,note_on,,,,,0,0,1,,,,,0,,,72,48
115925,set_tempo,,,,,10,1,0,,645161,,,,,,,
115930,set_tempo,,,,,5,1,0,,641711,,,,,,,
115935,set_tempo,,,,,5,1,0,,645161,,,,,,,
115965,set_tempo,,,,,30,1,0,,648648,,,,,,,
115970,note_on,,,,,50,0,1,,,,,0,,,72,0
115970,set_tempo,,,,,5,1,0,,652173,,,,,,,
115980,note_on,,,,,0,0,2,,,,,0,,,60,53
115980,note_on,,,,,10,0,1,,,,,0,,,76,56
115980,note_on,,,,,0,0,2,,,,,0,,,64,53
115980,note_on,,,,,0,0,2,,,,,0,,,55,53
115980,note_on,,,,,60,0,2,,,,,0,,,52,0
115990,set_tempo,,,,,20,1,0,,659340,,,,,,,
116005,set_tempo,,,,,15,1,0,,662983,,,,,,,
116015,set_tempo,,,,,10,1,0,,666666,,,,,,,
116025,note_on,,,,,0,0,2,,,,,0,,,55,0
116025,note_on,,,,,0,0,2,,,,,0,,,64,0
116025,note_on,,,,,45,0,2,,,,,0,,,60,0
116030,note_on,,,,,50,0,1,,,,,0,,,76,0
116030,set_tempo,,,,,15,1,0,,670391,,,,,,,
116035,set_tempo,,,,,5,1,0,,674157,,,,,,,
116040,note_on,,,,,15,0,2,,,,,0,,,64,53
116040,note_on,,,,,0,0,2,,,,,0,,,60,53
116040,note_on,,,,,0,0,2,,,,,0,,,55,53
116040,note_on,,,,,10,0,1,,,,,0,,,77,59
116045,set_tempo,,,,,10,1,0,,677966,,,,,,,
116050,set_tempo,,,,,5,1,0,,681818,,,,,,,
116065,set_tempo,,,,,15,1,0,,685714,,,,,,,
116070,set_tempo,,,,,5,1,0,,689655,,,,,,,
116085,set_tempo,,,,,15,1,0,,693641,,,,,,,
116085,note_on,,,,,45,0,2,,,,,0,,,55,0
116085,note_on,,,,,0,0,2,,,,,0,,,60,0
116085,note_on,,,,,0,0,2,,,,,0,,,64,0
116090,note_on,,,,,50,0,1,,,,,0,,,77,0
116090,set_tempo,,,,,5,1,0,,697674,,,,,,,
116095,control_change,,,,,5,0,1,,,,,0,64,0,,
116100,control_change,,,,,0,0,1,,,,,0,64,95,,
116100,note_on,,,,,0,0,1,,,,,0,,,79,65
116100,note_on,,,,,0,0,1,,,,,0,,,77,62
116100,note_on,,,,,5,0,1,,,,,0,,,79,0
116100,note_on,,,,,15,0,2,,,,,0,,,50,62
116110,set_tempo,,,,,20,1,0,,705882,,,,,,,
116125,set_tempo,,,,,15,1,0,,710059,,,,,,,
116130,set_tempo,,,,,5,1,0,,718562,,,,,,,
116135,set_tempo,,,,,5,1,0,,722891,,,,,,,
116145,set_tempo,,,,,10,1,0,,727272,,,,,,,
116150,note_on,,,,,50,0,1,,,,,0,,,79,0
116150,set_tempo,,,,,5,1,0,,731707,,,,,,,
116160,note_on,,,,,10,0,1,,,,,0,,,81,66
116160,note_on,,,,,60,0,2,,,,,0,,,50,0
116160,note_on,,,,,0,0,2,,,,,0,,,59,54
116160,note_on,,,,,0,0,2,,,,,0,,,55,54
116160,set_tempo,,,,,10,1,0,,736196,,,,,,,
116160,note_on,,,,,0,0,2,,,,,0,,,65,54
116170,set_tempo,,,,,10,1,0,,740740,,,,,,,
116175,set_tempo,,,,,5,1,0,,745341,,,,,,,
116185,set_tempo,,,,,10,1,0,,750000,,,,,,,
116205,set_tempo,,,,,20,1,0,,754716,,,,,,,
116205,note_on,,,,,45,0,2,,,,,0,,,55,0
116205,note_on,,,,,0,0,2,,,,,0,,,59,0
116205,note_on,,,,,0,0,2,,,,,0,,,65,0
116210,note_on,,,,,50,0,1,,,,,0,,,81,0
116215,set_tempo,,,,,10,1,0,,759493,,,,,,,
116220,note_on,,,,,10,0,1,,,,,0,,,83,71
116220,note_on,,,,,0,0,2,,,,,0,,,59,54
116220,note_on,,,,,15,0,2,,,,,0,,,65,54
116220,note_on,,,,,0,0,2,,,,,0,,,55,54
116230,set_tempo,,,,,15,1,0,,764331,,,,,,,
116235,set_tempo,,,,,5,1,0,,769230,,,,,,,
116240,set_tempo,,,,,5,1,0,,754716,,,,,,,
116245,set_tempo,,,,,5,1,0,,769230,,,,,,,
116245,control_change,,,,,25,0,1,,,,,0,64,0,,
116250,set_tempo,,,,,5,1,0,,827586,,,,,,,
116255,set_tempo,,,,,5,1,0,,851063,,,,,,,
116260,note_on,,,,,15,0,1,,,,,0,,,83,0
116260,set_tempo,,,,,5,1,0,,857142,,,,,,,
116265,note_on,,,,,45,0,2,,,,,0,,,55,0
116265,note_on,,,,,5,0,1,,,,,0,,,83,84
116265,set_tempo,,,,,5,1,0,,909090,,,,,,,
116265,note_on,,,,,0,0,2,,,,,0,,,59,0
116265,note_on,,,,,0,0,2,,,,,0,,,65,0
116280,note_on,,,,,15,0,2,,,,,0,,,48,62
116280,control_change,,,,,0,0,1,,,,,0,64,96,,
116280,note_on,,,,,0,0,1,,,,,0,,,76,69
116280,note_on,,,,,0,0,1,,,,,0,,,86,69
116280,note_on,,,,,0,0,1,,,,,0,,,77,0
116280,note_on,,,,,15,0,1,,,,,0,,,83,0
116285,set_tempo,,,,,20,1,0,,681818,,,,,,,
116290,set_tempo,,,,,5,1,0,,693641,,,,,,,
116315,set_tempo,,,,,25,1,0,,697674,,,,,,,
116340,note_on,,,,,0,0,2,,,,,0,,,55,57
116340,note_on,,,,,0,0,2,,,,,0,,,60,57
116340,note_on,,,,,0,0,2,,,,,0,,,64,57
116340,note_on,,,,,60,0,2,,,,,0,,,48,0
116350,set_tempo,,,,,35,1,0,,701754,,,,,,,
116385,note_on,,,,,0,0,2,,,,,0,,,64,0
116385,note_on,,,,,45,0,2,,,,,0,,,55,0
116385,note_on,,,,,0,0,2,,,,,0,,,60,0
116400,note_on,,,,,0,0,2,,,,,0,,,55,52
116400,note_on,,,,,0,0,2,,,,,0,,,60,52
116400,note_on,,,,,15,0,2,,,,,0,,,64,52
116435,set_tempo,,,,,85,1,0,,705882,,,,,,,
116445,note_on,,,,,0,0,2,,,,,0,,,64,0
116445,note_on,,,,,45,0,2,,,,,0,,,55,0
116445,note_on,,,,,0,0,2,,,,,0,,,60,0
116455,control_change,,,,,175,0,1,,,,,0,64,0,,
116460,set_tempo,,,,,25,1,0,,710059,,,,,,,
116460,note_on,,,,,5,0,1,,,,,0,,,86,0
116460,note_on,,,,,0,0,1,,,,,0,,,84,58
116460,note_on,,,,,15,0,2,,,,,0,,,64,47
116460,note_on,,,,,0,0,2,,,,,0,,,60,47
116460,note_on,,,,,0,0,2,,,,,0,,,55,47
116470,set_tempo,,,,,10,1,0,,714285,,,,,,,
116485,set_tempo,,,,,15,1,0,,718562,,,,,,,
116490,set_tempo,,,,,5,1,0,,714285,,,,,,,
116505,note_on,,,,,0,0,2,,,,,0,,,64,0
116505,note_on,,,,,0,0,2,,,,,0,,,60,0
116505,note_on,,,,,45,0,2,,,,,0,,,55,0
116520,note_on,,,,,15,0,2,,,,,0,,,67,46
116520,note_on,,,,,0,0,1,,,,,0,,,76,0
116520,note_on,,,,,60,0,1,,,,,0,,,84,0
116540,set_tempo,,,,,50,1,0,,710059,,,,,,,
116550,set_tempo,,,,,10,1,0,,705882,,,,,,,
116560,set_tempo,,,,,10,1,0,,701754,,,,,,,
116565,note_on,,,,,45,0,2,,,,,0,,,67,0
116575,set_tempo,,,,,15,1,0,,697674,,,,,,,
116580,note_on,,,,,15,0,2,,,,,0,,,67,46
116580,note_on,,,,,60,0,1,,,,,0,,,84,62
116580,note_on,,,,,0,0,1,,,,,0,,,76,62
116585,set_tempo,,,,,10,1,0,,693641,,,,,,,
116600,set_tempo,,,,,15,1,0,,689655,,,,,,,
116615,set_tempo,,,,,15,1,0,,685714,,,,,,,
116635,set_tempo,,,,,20,1,0,,681818,,,,,,,
116640,control_change,,,,,0,0,1,,,,,0,64,97,,
116640,note_on,,,,,0,0,2,,,,,0,,,67,59
116640,note_on,,,,,60,0,2,,,,,0,,,67,0
116640,note_on,,,,,60,0,1,,,,,0,,,76,0
116640,note_on,,,,,0,0,1,,,,,0,,,84,0
116640,note_on,,,,,0,0,1,,,,,0,,,83,70
116640,note_on,,,,,0,0,1,,,,,0,,,74,70
116655,set_tempo,,,,,20,1,0,,677966,,,,,,,
116670,set_tempo,,,,,15,1,0,,674157,,,,,,,
116700,note_on,,,,,0,0,2,,,,,0,,,55,39
116700,note_on,,,,,60,0,2,,,,,0,,,67,0
116710,set_tempo,,,,,40,1,0,,670391,,,,,,,
116745,note_on,,,,,45,0,2,,,,,0,,,55,0
116760,note_on,,,,,15,0,2,,,,,0,,,55,46
116760,control_change,,,,,120,0,1,,,,,0,64,0,,
116765,set_tempo,,,,,55,1,0,,666666,,,,,,,
116785,set_tempo,,,,,20,1,0,,662983,,,,,,,
116805,note_on,,,,,45,0,2,,,,,0,,,55,0
116820,control_change,,,,,0,0,1,,,,,0,64,96,,
116820,note_on,,,,,0,0,1,,,,,0,,,83,0
116820,note_on,,,,,0,0,1,,,,,0,,,71,63
116820,note_on,,,,,0,0,1,,,,,0,,,81,63
116820,note_on,,,,,15,0,2,,,,,0,,,55,56
116820,note_on,,,,,60,0,1,,,,,0,,,74,0
116825,set_tempo,,,,,40,1,0,,659340,,,,,,,
116865,note_on,,,,,45,0,2,,,,,0,,,55,0
116880,note_on,,,,,15,0,2,,,,,0,,,55,64
116885,set_tempo,,,,,60,1,0,,655737,,,,,,,
116925,note_on,,,,,45,0,2,,,,,0,,,55,0
116940,control_change,,,,,120,0,1,,,,,0,64,0,,
116940,note_on,,,,,15,0,2,,,,,0,,,65,69
116965,set_tempo,,,,,80,1,0,,652173,,,,,,,
116970,set_tempo,,,,,5,1,0,,648648,,,,,,,
117000,note_on,,,,,60,0,1,,,,,0,,,81,0
117000,note_on,,,,,0,0,1,,,,,0,,,71,0
117000,note_on,,,,,0,0,1,,,,,0,,,79,62
117000,note_on,,,,,0,0,1,,,,,0,,,72,62
117000,note_on,,,,,60,0,2,,,,,0,,,65,0
117000,note_on,,,,,0,0,2,,,,,0,,,64,75
117000,control_change,,,,,0,0,1,,,,,0,64,96,,
117025,set_tempo,,,,,55,1,0,,645161,,,,,,,
117045,note_on,,,,,0,0,1,,,,,0,,,79,0
117045,note_on,,,,,45,0,1,,,,,0,,,72,0
117060,note_on,,,,,15,0,1,,,,,0,,,83,64
117060,note_on,,,,,60,0,2,,,,,0,,,67,58
117110,note_on,,,,,50,0,1,,,,,0,,,83,0
117110,note_on,,,,,50,0,2,,,,,0,,,67,0
117120,note_on,,,,,10,0,1,,,,,0,,,84,66
117120,note_on,,,,,10,0,2,,,,,0,,,67,53
117135,set_tempo,,,,,110,1,0,,641711,,,,,,,
117170,note_on,,,,,50,0,2,,,,,0,,,67,0
117170,note_on,,,,,50,0,1,,,,,0,,,84,0
117175,control_change,,,,,5,0,1,,,,,0,64,0,,
117180,control_change,,,,,0,0,1,,,,,0,64,95,,
117180,note_on,,,,,0,0,2,,,,,0,,,62,78
117180,note_on,,,,,10,0,2,,,,,0,,,64,0
117180,note_on,,,,,5,0,1,,,,,0,,,83,70
117180,note_on,,,,,0,0,1,,,,,0,,,86,70
117180,note_on,,,,,0,0,2,,,,,0,,,67,63
117225,set_tempo,,,,,90,1,0,,638297,,,,,,,
117230,note_on,,,,,50,0,1,,,,,0,,,86,0
117234,note_on,,,,,54,0,2,,,,,0,,,67,0
117240,note_on,,,,,10,0,1,,,,,0,,,88,72
117240,note_on,,,,,6,0,2,,,,,0,,,67,57
117290,note_on,,,,,50,0,1,,,,,0,,,88,0
117290,note_on,,,,,50,0,2,,,,,0,,,67,0
117300,note_on,,,,,10,0,2,,,,,0,,,67,57
117300,note_on,,,,,10,0,1,,,,,0,,,89,81
117305,set_tempo,,,,,80,1,0,,634920,,,,,,,
117310,set_tempo,,,,,5,1,0,,631578,,,,,,,
117350,note_on,,,,,50,0,2,,,,,0,,,67,0
117350,note_on,,,,,50,0,1,,,,,0,,,89,0
117355,control_change,,,,,5,0,1,,,,,0,64,0,,
117360,note_on,,,,,5,0,1,,,,,0,,,83,0
117360,note_on,,,,,0,0,2,,,,,0,,,67,66
117360,note_on,,,,,0,0,2,,,,,0,,,60,66
117360,note_on,,,,,10,0,2,,,,,0,,,62,0
117360,note_on,,,,,0,0,1,,,,,0,,,84,89
117360,note_on,,,,,0,0,1,,,,,0,,,88,89
117360,control_change,,,,,0,0,1,,,,,0,64,95,,
117370,set_tempo,,,,,60,1,0,,628272,,,,,,,
117410,set_tempo,,,,,40,1,0,,625000,,,,,,,
117414,note_on,,,,,54,0,2,,,,,0,,,67,0
117414,note_on,,,,,0,0,2,,,,,0,,,60,0
117414,note_on,,,,,54,0,1,,,,,0,,,84,0
117420,note_on,,,,,6,0,2,,,,,0,,,64,71
117420,note_on,,,,,6,0,1,,,,,0,,,84,67
117460,set_tempo,,,,,50,1,0,,621761,,,,,,,
117474,note_on,,,,,54,0,1,,,,,0,,,84,0
117480,note_on,,,,,6,0,1,,,,,0,,,84,67
117480,note_on,,,,,60,0,2,,,,,0,,,64,0
117480,note_on,,,,,0,0,2,,,,,0,,,65,76
117510,set_tempo,,,,,50,1,0,,618556,,,,,,,
117510,note_on,,,,,30,0,1,,,,,0,,,88,0
117515,set_tempo,,,,,5,1,0,,615384,,,,,,,
117534,note_on,,,,,24,0,1,,,,,0,,,84,0
117535,control_change,,,,,1,0,1,,,,,0,64,0,,
117540,note_on,,,,,0,0,1,,,,,0,,,88,99
117540,note_on,,,,,0,0,1,,,,,0,,,96,99
117540,note_on,,,,,5,0,1,,,,,0,,,84,99
117540,note_on,,,,,60,0,2,,,,,0,,,65,0
117540,note_on,,,,,0,0,2,,,,,0,,,67,80
117540,control_change,,,,,0,0,1,,,,,0,64,96,,
117565,set_tempo,,,,,50,1,0,,612244,,,,,,,
117594,note_on,,,,,54,0,1,,,,,0,,,84,0
117595,set_tempo,,,,,30,1,0,,609137,,,,,,,
117600,note_on,,,,,60,0,2,,,,,0,,,67,0
117600,note_on,,,,,0,0,2,,,,,0,,,69,84
117600,note_on,,,,,6,0,1,,,,,0,,,84,83
117630,set_tempo,,,,,35,1,0,,606060,,,,,,,
117654,note_on,,,,,54,0,1,,,,,0,,,84,0
117660,note_on,,,,,6,0,1,,,,,0,,,84,88
117660,note_on,,,,,0,0,2,,,,,0,,,70,88
117660,note_on,,,,,60,0,2,,,,,0,,,69,0
117670,set_tempo,,,,,40,1,0,,603015,,,,,,,
117710,control_change,,,,,50,0,1,,,,,0,64,0,,
117714,note_on,,,,,4,0,1,,,,,0,,,84,0
117720,note_on,,,,,0,0,2,,,,,0,,,69,94
117720,control_change,,,,,0,0,1,,,,,0,64,96,,
117720,note_on,,,,,0,0,1,,,,,0,,,96,105
117720,note_on,,,,,60,0,2,,,,,0,,,70,0
117720,note_on,,,,,0,0,1,,,,,0,,,84,105
117720,note_on,,,,,0,0,1,,,,,0,,,96,0
117720,note_on,,,,,6,0,1,,,,,0,,,88,0
117720,note_on,,,,,0,0,1,,,,,0,,,89,105
117730,set_tempo,,,,,60,1,0,,615384,,,,,,,
117740,set_tempo,,,,,10,1,0,,618556,,,,,,,
117755,set_tempo,,,,,15,1,0,,621761,,,,,,,
117775,set_tempo,,,,,20,1,0,,625000,,,,,,,
117780,set_tempo,,,,,5,1,0,,628272,,,,,,,
117780,note_on,,,,,0,0,1,,,,,0,,,84,0
117780,note_on,,,,,0,0,1,,,,,0,,,89,0
117780,note_on,,,,,60,0,1,,,,,0,,,96,0
117780,note_on,,,,,60,0,2,,,,,0,,,77,88
117780,note_on,,,,,0,0,1,,,,,0,,,93,100
117795,set_tempo,,,,,15,1,0,,631578,,,,,,,
117825,set_tempo,,,,,30,1,0,,638297,,,,,,,
117834,note_on,,,,,54,0,2,,,,,0,,,77,0
117835,set_tempo,,,,,10,1,0,,641711,,,,,,,
117840,note_on,,,,,6,0,2,,,,,0,,,77,80
117840,note_on,,,,,0,0,1,,,,,0,,,89,95
117840,note_on,,,,,60,0,1,,,,,0,,,93,0
117845,set_tempo,,,,,10,1,0,,645161,,,,,,,
117855,set_tempo,,,,,10,1,0,,648648,,,,,,,
117860,set_tempo,,,,,5,1,0,,652173,,,,,,,
117890,set_tempo,,,,,30,1,0,,655737,,,,,,,
117890,note_on,,,,,50,0,1,,,,,0,,,89,0
117894,note_on,,,,,54,0,2,,,,,0,,,77,0
117895,control_change,,,,,5,0,1,,,,,0,64,0,,
117900,note_on,,,,,5,0,1,,,,,0,,,88,95
117900,control_change,,,,,0,0,1,,,,,0,64,96,,
117900,note_on,,,,,6,0,2,,,,,0,,,69,0
117900,note_on,,,,,0,0,2,,,,,0,,,74,75
117900,note_on,,,,,0,0,2,,,,,0,,,70,75
117920,set_tempo,,,,,30,1,0,,662983,,,,,,,
117935,note_on,,,,,0,0,1,,,,,0,,,89,85
117935,note_on,,,,,35,0,1,,,,,0,,,88,0
117940,set_tempo,,,,,20,1,0,,670391,,,,,,,
117950,set_tempo,,,,,10,1,0,,674157,,,,,,,
117960,note_on,,,,,60,0,2,,,,,0,,,77,69
117960,note_on,,,,,25,0,1,,,,,0,,,89,0
117960,note_on,,,,,0,0,1,,,,,0,,,91,82
117975,control_change,,,,,15,0,1,,,,,0,64,0,,
117980,note_on,,,,,5,0,1,,,,,0,,,91,0
117980,note_on,,,,,0,0,1,,,,,0,,,89,81
117980,set_tempo,,,,,30,1,0,,677966,,,,,,,
118000,set_tempo,,,,,20,1,0,,685714,,,,,,,
118000,note_on,,,,,20,0,1,,,,,0,,,89,0
118001,note_on,,,,,1,0,1,,,,,0,,,88,77
118014,note_on,,,,,54,0,2,,,,,0,,,77,0
118020,note_on,,,,,6,0,2,,,,,0,,,77,64
118021,note_on,,,,,0,0,1,,,,,0,,,86,74
118021,note_on,,,,,20,0,1,,,,,0,,,88,0
118030,set_tempo,,,,,30,1,0,,689655,,,,,,,
118035,set_tempo,,,,,5,1,0,,693641,,,,,,,
118040,set_tempo,,,,,5,1,0,,697674,,,,,,,
118041,note_on,,,,,20,0,1,,,,,0,,,86,0
118041,note_on,,,,,0,0,1,,,,,0,,,84,71
118061,note_on,,,,,20,0,1,,,,,0,,,84,0
118061,note_on,,,,,0,0,1,,,,,0,,,82,68
118070,set_tempo,,,,,30,1,0,,701754,,,,,,,
118074,note_on,,,,,54,0,2,,,,,0,,,77,0
118080,note_on,,,,,0,0,2,,,,,0,,,74,0
118080,note_on,,,,,0,0,2,,,,,0,,,72,57
118080,note_on,,,,,0,0,2,,,,,0,,,77,57
118080,note_on,,,,,19,0,1,,,,,0,,,81,65
118080,note_on,,,,,6,0,2,,,,,0,,,70,0
118080,control_change,,,,,0,0,1,,,,,0,64,96,,
118081,note_on,,,,,1,0,1,,,,,0,,,82,0
118105,set_tempo,,,,,35,1,0,,710059,,,,,,,
118110,set_tempo,,,,,5,1,0,,714285,,,,,,,
118140,set_tempo,,,,,30,1,0,,718562,,,,,,,
118150,set_tempo,,,,,10,1,0,,722891,,,,,,,
118160,set_tempo,,,,,10,1,0,,727272,,,,,,,
118165,set_tempo,,,,,5,1,0,,727272,,,,,,,
118180,set_tempo,,,,,15,1,0,,731707,,,,,,,
118190,set_tempo,,,,,10,1,0,,736196,,,,,,,
118195,set_tempo,,,,,5,1,0,,745341,,,,,,,
118200,set_tempo,,,,,5,1,0,,750000,,,,,,,
118210,set_tempo,,,,,10,1,0,,759493,,,,,,,
118220,set_tempo,,,,,10,1,0,,769230,,,,,,,
118230,set_tempo,,,,,10,1,0,,800000,,,,,,,
118235,set_tempo,,,,,5,1,0,,805369,,,,,,,
118260,note_on,,,,,0,0,1,,,,,0,,,76,49
118260,note_on,,,,,0,0,1,,,,,0,,,79,49
118260,note_on,,,,,179,0,1,,,,,0,,,81,0
118260,note_on,,,,,180,0,2,,,,,0,,,77,0
118270,set_tempo,,,,,35,1,0,,851063,,,,,,,
118275,set_tempo,,,,,5,1,0,,857142,,,,,,,
118280,set_tempo,,,,,5,1,0,,863309,,,,,,,
118290,set_tempo,,,,,10,1,0,,875912,,,,,,,
118295,set_tempo,,,,,5,1,0,,888888,,,,,,,
118305,set_tempo,,,,,10,1,0,,902255,,,,,,,
118310,set_tempo,,,,,5,1,0,,944881,,,,,,,
118320,note_on,,,,,60,0,1,,,,,0,,,76,0
118320,note_on,,,,,0,0,1,,,,,0,,,79,0
118320,note_on,,,,,60,0,2,,,,,0,,,72,0
118320,set_tempo,,,,,10,1,0,,960000,,,,,,,
118325,set_tempo,,,,,5,1,0,,967741,,,,,,,
118330,set_tempo,,,,,5,1,0,,975609,,,,,,,
118335,set_tempo,,,,,5,1,0,,983606,,,,,,,
118345,set_tempo,,,,,10,1,0,,991735,,,,,,,
118355,set_tempo,,,,,10,1,0,,882352,,,,,,,
118360,set_tempo,,,,,5,1,0,,875912,,,,,,,
118365,set_tempo,,,,,5,1,0,,816326,,,,,,,
118370,set_tempo,,,,,5,1,0,,697674,,,,,,,
118375,control_change,,,,,55,0,1,,,,,0,64,0,,
118375,set_tempo,,,,,5,1,0,,666666,,,,,,,
118380,note_on,,,,,5,0,1,,,,,0,,,67,83
118380,note_on,,,,,0,0,1,,,,,0,,,79,83
118390,set_tempo,,,,,15,1,0,,662983,,,,,,,
118405,set_tempo,,,,,15,1,0,,659340,,,,,,,
118410,set_tempo,,,,,5,1,0,,655737,,,,,,,
118420,set_tempo,,,,,10,1,0,,652173,,,,,,,
118425,set_tempo,,,,,5,1,0,,648648,,,,,,,
118430,note_on,,,,,0,0,1,,,,,0,,,67,0
118430,note_on,,,,,50,0,1,,,,,0,,,79,0
118440,note_on,,,,,10,0,1,,,,,0,,,67,87
118440,note_on,,,,,0,0,1,,,,,0,,,79,87
118440,set_tempo,,,,,15,1,0,,645161,,,,,,,
118445,set_tempo,,,,,5,1,0,,641711,,,,,,,
118460,set_tempo,,,,,15,1,0,,638297,,,,,,,
118480,set_tempo,,,,,20,1,0,,634920,,,,,,,
118485,set_tempo,,,,,5,1,0,,631578,,,,,,,
118497,note_on,,,,,0,0,1,,,,,0,,,67,0
118497,note_on,,,,,57,0,1,,,,,0,,,79,0
118500,note_on,,,,,0,0,1,,,,,0,,,79,92
118500,note_on,,,,,3,0,1,,,,,0,,,67,92
118505,set_tempo,,,,,20,1,0,,628272,,,,,,,
118540,set_tempo,,,,,35,1,0,,625000,,,,,,,
118554,note_on,,,,,0,0,1,,,,,0,,,67,0
118554,note_on,,,,,54,0,1,,,,,0,,,79,0
118555,set_tempo,,,,,15,1,0,,621761,,,,,,,
118560,note_on,,,,,0,0,1,,,,,0,,,79,96
118560,note_on,,,,,6,0,1,,,,,0,,,67,96
118565,set_tempo,,,,,10,1,0,,618556,,,,,,,
118610,set_tempo,,,,,45,1,0,,615384,,,,,,,
118614,note_on,,,,,0,0,1,,,,,0,,,67,0
118614,note_on,,,,,54,0,1,,,,,0,,,79,0
118620,note_on,,,,,0,0,1,,,,,0,,,79,103
118620,note_on,,,,,6,0,1,,,,,0,,,67,103
118635,set_tempo,,,,,25,1,0,,612244,,,,,,,
118677,note_on,,,,,0,0,1,,,,,0,,,67,0
118677,note_on,,,,,57,0,1,,,,,0,,,79,0
118680,note_on,,,,,3,0,1,,,,,0,,,67,108
118680,note_on,,,,,0,0,1,,,,,0,,,79,108
118690,set_tempo,,,,,55,1,0,,609137,,,,,,,
118695,set_tempo,,,,,5,1,0,,606060,,,,,,,
118715,set_tempo,,,,,20,1,0,,603015,,,,,,,
118734,note_on,,,,,54,0,1,,,,,0,,,79,0
118734,note_on,,,,,0,0,1,,,,,0,,,67,0
118740,note_on,,,,,6,0,1,,,,,0,,,84,120
118740,note_on,,,,,0,0,1,,,,,0,,,72,120
118740,note_on,,,,,0,0,2,,,,,0,,,55,111
118740,note_on,,,,,420,0,2,,,,,0,,,43,111
118750,set_tempo,,,,,35,1,0,,600000,,,,,,,
118780,set_tempo,,,,,30,1,0,,597014,,,,,,,
118790,note_on,,,,,50,0,2,,,,,0,,,55,0
118790,note_on,,,,,0,0,2,,,,,0,,,43,0
118794,note_on,,,,,0,0,1,,,,,0,,,84,0
118794,note_on,,,,,54,0,1,,,,,0,,,72,0
118800,note_on,,,,,0,0,1,,,,,0,,,83,120
118800,control_change,,,,,0,0,1,,,,,0,64,95,,
118800,key_signature,,,,,20,1,0,G,,,,,,,,
118800,note_on,,,,,10,0,2,,,,,0,,,43,114
118800,note_on,,,,,6,0,1,,,,,0,,,71,120
118800,note_on,,,,,0,0,2,,,,,0,,,55,114
118820,set_tempo,,,,,20,1,0,,591133,,,,,,,
118857,note_on,,,,,57,0,2,,,,,0,,,55,0
118857,note_on,,,,,0,0,2,,,,,0,,,43,0
118860,note_on,,,,,3,0,2,,,,,0,,,43,116
118860,note_on,,,,,0,0,2,,,,,0,,,55,116
118860,set_tempo,,,,,40,1,0,,588235,,,,,,,
118890,set_tempo,,,,,30,1,0,,585365,,,,,,,
118914,note_on,,,,,54,0,2,,,,,0,,,55,0
118914,note_on,,,,,0,0,2,,,,,0,,,43,0
118920,set_tempo,,,,,30,1,0,,579710,,,,,,,
118920,note_on,,,,,6,0,2,,,,,0,,,43,119
118920,note_on,,,,,0,0,2,,,,,0,,,55,119
118970,set_tempo,,,,,50,1,0,,576923,,,,,,,
118974,note_on,,,,,54,0,2,,,,,0,,,55,0
118974,note_on,,,,,0,0,2,,,,,0,,,43,0
118975,control_change,,,,,175,0,1,,,,,0,64,0,,
118980,note_on,,,,,5,0,1,,,,,0,,,83,0
118980,note_on,,,,,0,0,1,,,,,0,,,71,0
118980,control_change,,,,,0,0,1,,,,,0,64,94,,
118980,note_on,,,,,6,0,2,,,,,0,,,43,120
118980,note_on,,,,,0,0,2,,,,,0,,,55,120
118980,note_on,,,,,0,0,1,,,,,0,,,81,125
118980,note_on,,,,,0,0,1,,,,,0,,,69,125
119000,set_tempo,,,,,30,1,0,,574162,,,,,,,
119037,note_on,,,,,57,0,2,,,,,0,,,55,0
119037,note_on,,,,,0,0,2,,,,,0,,,43,0
119040,set_tempo,,,,,40,1,0,,568720,,,,,,,
119040,note_on,,,,,3,0,2,,,,,0,,,43,122
119040,note_on,,,,,0,0,2,,,,,0,,,55,122
119060,set_tempo,,,,,20,1,0,,566037,,,,,,,
119094,note_on,,,,,54,0,2,,,,,0,,,55,0
119094,note_on,,,,,0,0,2,,,,,0,,,43,0
119095,control_change,,,,,115,0,1,,,,,0,64,0,,
119100,note_on,,,,,0,0,2,,,,,0,,,41,124
119100,note_on,,,,,6,0,2,,,,,0,,,53,124
119145,set_tempo,,,,,85,1,0,,563380,,,,,,,
119154,note_on,,,,,0,0,2,,,,,0,,,53,0
119154,note_on,,,,,54,0,2,,,,,0,,,41,0
119160,note_on,,,,,0,0,1,,,,,0,,,67,126
119160,control_change,,,,,0,0,1,,,,,0,64,96,,
119160,note_on,,,,,0,0,2,,,,,0,,,52,126
119160,note_on,,,,,6,0,2,,,,,0,,,40,126
119160,note_on,,,,,65,0,1,,,,,0,,,81,0
119160,note_on,,,,,0,0,1,,,,,0,,,79,126
119160,note_on,,,,,0,0,1,,,,,0,,,69,0
119175,set_tempo,,,,,30,1,0,,560747,,,,,,,
119208,note_on,,,,,0,0,1,,,,,0,,,67,0
119208,note_on,,,,,48,0,1,,,,,0,,,79,0
119215,set_tempo,,,,,40,1,0,,558139,,,,,,,
119220,control_change,,,,,0,0,1,,,,,0,64,0,,
119220,note_on,,,,,12,0,1,,,,,0,,,71,114
119220,note_on,,,,,0,0,1,,,,,0,,,83,114
119266,note_on,,,,,46,0,1,,,,,0,,,83,0
119266,note_on,,,,,0,0,1,,,,,0,,,71,0
119275,set_tempo,,,,,60,1,0,,555555,,,,,,,
119280,note_on,,,,,14,0,1,,,,,0,,,72,120
119280,note_on,,,,,0,0,1,,,,,0,,,84,120
119326,note_on,,,,,46,0,1,,,,,0,,,84,0
119326,note_on,,,,,0,0,1,,,,,0,,,72,0
119340,note_on,,,,,180,0,2,,,,,0,,,52,0
119340,note_on,,,,,0,0,2,,,,,0,,,40,0
119340,note_on,,,,,0,0,2,,,,,0,,,38,120
119340,note_on,,,,,0,0,1,,,,,0,,,86,123
119340,note_on,,,,,14,0,1,,,,,0,,,74,123
119340,note_on,,,,,0,0,2,,,,,0,,,50,120
119365,set_tempo,,,,,90,1,0,,552995,,,,,,,
119388,note_on,,,,,0,0,1,,,,,0,,,74,0
119388,note_on,,,,,48,0,1,,,,,0,,,86,0
119400,note_on,,,,,12,0,1,,,,,0,,,76,125
119400,note_on,,,,,0,0,1,,,,,0,,,88,125
119446,note_on,,,,,46,0,1,,,,,0,,,88,0
119446,note_on,,,,,0,0,1,,,,,0,,,76,0
119460,note_on,,,,,14,0,1,,,,,0,,,77,126
119460,note_on,,,,,0,0,1,,,,,0,,,89,126
119506,note_on,,,,,46,0,1,,,,,0,,,89,0
119506,note_on,,,,,0,0,1,,,,,0,,,77,0
119520,note_on,,,,,0,0,2,,,,,0,,,36,125
119520,note_on,,,,,0,0,1,,,,,0,,,88,127
119520,control_change,,,,,0,0,1,,,,,0,64,95,,
119520,note_on,,,,,0,0,2,,,,,0,,,38,0
119520,note_on,,,,,14,0,1,,,,,0,,,76,127
119520,note_on,,,,,180,0,2,,,,,0,,,50,0
119520,note_on,,,,,0,0,2,,,,,0,,,48,125
119525,set_tempo,,,,,160,1,0,,550458,,,,,,,
119577,note_on,,,,,57,0,2,,,,,0,,,48,0
119577,note_on,,,,,0,0,2,,,,,0,,,36,0
119580,note_on,,,,,0,0,2,,,,,0,,,52,116
119580,note_on,,,,,3,0,2,,,,,0,,,40,116
119634,note_on,,,,,0,0,2,,,,,0,,,40,0
119634,note_on,,,,,54,0,2,,,,,0,,,52,0
119640,note_on,,,,,0,0,2,,,,,0,,,53,119
119640,note_on,,,,,6,0,2,,,,,0,,,41,119
119690,control_change,,,,,170,0,1,,,,,0,64,0,,
119694,note_on,,,,,0,0,2,,,,,0,,,41,0
119694,note_on,,,,,54,0,2,,,,,0,,,53,0
119700,note_on,,,,,0,0,1,,,,,0,,,76,0
119700,note_on,,,,,0,0,1,,,,,0,,,74,120
119700,note_on,,,,,0,0,1,,,,,0,,,86,120
119700,control_change,,,,,0,0,1,,,,,0,64,95,,
119700,note_on,,,,,10,0,1,,,,,0,,,88,0
119700,note_on,,,,,0,0,2,,,,,0,,,55,120
119700,note_on,,,,,6,0,2,,,,,0,,,43,120
119757,note_on,,,,,0,0,2,,,,,0,,,43,0
119757,note_on,,,,,57,0,2,,,,,0,,,55,0
119760,note_on,,,,,0,0,2,,,,,0,,,57,122
119760,note_on,,,,,3,0,2,,,,,0,,,45,122
119785,set_tempo,,,,,260,1,0,,552995,,,,,,,
119810,set_tempo,,,,,25,1,0,,555555,,,,,,,
119814,note_on,,,,,54,0,2,,,,,0,,,57,0
119814,note_on,,,,,0,0,2,,,,,0,,,45,0
119820,note_on,,,,,6,0,2,,,,,0,,,46,124
119820,note_on,,,,,0,0,2,,,,,0,,,58,124
119835,set_tempo,,,,,25,1,0,,558139,,,,,,,
119845,set_tempo,,,,,10,1,0,,560747,,,,,,,
119874,note_on,,,,,54,0,2,,,,,0,,,58,0
119874,note_on,,,,,0,0,2,,,,,0,,,46,0
119875,control_change,,,,,175,0,1,,,,,0,64,0,,
119880,note_on,,,,,6,0,2,,,,,0,,,57,127
119880,note_on,,,,,5,0,1,,,,,0,,,86,0
119880,note_on,,,,,0,0,1,,,,,0,,,74,0
119880,note_on,,,,,0,0,1,,,,,0,,,73,100
119880,note_on,,,,,0,0,1,,,,,0,,,85,100
119895,set_tempo,,,,,50,1,0,,563380,,,,,,,
119910,set_tempo,,,,,15,1,0,,566037,,,,,,,
119926,note_on,,,,,0,0,1,,,,,0,,,73,0
119926,note_on,,,,,46,0,1,,,,,0,,,85,0
119930,set_tempo,,,,,20,1,0,,568720,,,,,,,
119935,set_tempo,,,,,5,1,0,,571428,,,,,,,
119940,note_on,,,,,14,0,1,,,,,0,,,76,106
119940,note_on,,,,,0,0,1,,,,,0,,,88,106
119950,set_tempo,,,,,15,1,0,,574162,,,,,,,
119970,set_tempo,,,,,20,1,0,,576923,,,,,,,
119983,note_on,,,,,43,0,1,,,,,0,,,88,0
119983,note_on,,,,,0,0,1,,,,,0,,,76,0
119985,set_tempo,,,,,15,1,0,,579710,,,,,,,
120000,note_on,,,,,17,0,1,,,,,0,,,77,109
120000,note_on,,,,,0,0,1,,,,,0,,,89,109
120005,set_tempo,,,,,20,1,0,,582524,,,,,,,
120035,set_tempo,,,,,30,1,0,,585365,,,,,,,
120043,note_on,,,,,0,0,1,,,,,0,,,77,0
120043,note_on,,,,,43,0,1,,,,,0,,,89,0
120045,set_tempo,,,,,10,1,0,,588235,,,,,,,
120060,note_on,,,,,17,0,1,,,,,0,,,90,114
120060,note_on,,,,,0,0,2,,,,,0,,,58,105
120060,note_on,,,,,0,0,2,,,,,0,,,62,105
120060,note_on,,,,,0,0,1,,,,,0,,,78,114
120060,note_on,,,,,180,0,2,,,,,0,,,57,0
120065,set_tempo,,,,,20,1,0,,594059,,,,,,,
120085,set_tempo,,,,,20,1,0,,597014,,,,,,,
120090,set_tempo,,,,,5,1,0,,600000,,,,,,,
120095,set_tempo,,,,,5,1,0,,603015,,,,,,,
120106,note_on,,,,,0,0,1,,,,,0,,,90,0
120106,note_on,,,,,46,0,1,,,,,0,,,78,0
120106,note_on,,,,,46,0,2,,,,,0,,,58,0
120106,note_on,,,,,0,0,2,,,,,0,,,62,0
120110,set_tempo,,,,,15,1,0,,606060,,,,,,,
120120,note_on,,,,,0,0,2,,,,,0,,,58,114
120120,note_on,,,,,14,0,1,,,,,0,,,91,117
120120,note_on,,,,,0,0,1,,,,,0,,,79,117
120120,note_on,,,,,14,0,2,,,,,0,,,62,114
120130,set_tempo,,,,,20,1,0,,612244,,,,,,,
120145,set_tempo,,,,,15,1,0,,615384,,,,,,,
120163,note_on,,,,,0,0,2,,,,,0,,,62,0
120163,note_on,,,,,43,0,2,,,,,0,,,58,0
120163,note_on,,,,,0,0,1,,,,,0,,,91,0
120163,note_on,,,,,43,0,1,,,,,0,,,79,0
120165,set_tempo,,,,,20,1,0,,618556,,,,,,,
120175,set_tempo,,,,,10,1,0,,621761,,,,,,,
120180,note_on,,,,,17,0,2,,,,,0,,,62,119
120180,note_on,,,,,0,0,2,,,,,0,,,58,119
120180,note_on,,,,,17,0,1,,,,,0,,,92,123
120180,note_on,,,,,0,0,1,,,,,0,,,80,123
120205,set_tempo,,,,,30,1,0,,625000,,,,,,,
120215,set_tempo,,,,,10,1,0,,628272,,,,,,,
120223,note_on,,,,,43,0,1,,,,,0,,,80,0
120223,note_on,,,,,0,0,1,,,,,0,,,92,0
120223,note_on,,,,,0,0,2,,,,,0,,,62,0
120223,note_on,,,,,43,0,2,,,,,0,,,58,0
120225,set_tempo,,,,,10,1,0,,631578,,,,,,,
120240,note_on,,,,,0,0,2,,,,,0,,,57,123
120240,note_on,,,,,0,0,2,,,,,0,,,62,123
120240,note_on,,,,,17,0,2,,,,,0,,,65,123
120240,note_on,,,,,17,0,1,,,,,0,,,81,127
120240,note_on,,,,,0,0,1,,,,,0,,,93,127
120240,control_change,,,,,0,0,1,,,,,0,64,95,,
120255,set_tempo,,,,,30,1,0,,634920,,,,,,,
120265,set_tempo,,,,,10,1,0,,638297,,,,,,,
120297,note_on,,,,,57,0,1,,,,,0,,,93,0
120297,note_on,,,,,0,0,1,,,,,0,,,81,0
120300,note_on,,,,,0,0,1,,,,,0,,,93,109
120300,note_on,,,,,3,0,1,,,,,0,,,81,109
120330,set_tempo,,,,,65,1,0,,641711,,,,,,,
120350,note_on,,,,,0,0,1,,,,,0,,,81,0
120350,note_on,,,,,50,0,1,,,,,0,,,93,0
120350,set_tempo,,,,,20,1,0,,645161,,,,,,,
120360,note_on,,,,,10,0,1,,,,,0,,,81,93
120360,control_change,,,,,0,0,1,,,,,0,64,0,,
120360,note_on,,,,,0,0,1,,,,,0,,,93,93
120365,set_tempo,,,,,15,1,0,,648648,,,,,,,
120390,set_tempo,,,,,25,1,0,,655737,,,,,,,
120410,note_on,,,,,50,0,1,,,,,0,,,93,0
120410,note_on,,,,,0,0,1,,,,,0,,,81,0
120420,set_tempo,,,,,30,1,0,,659340,,,,,,,
120420,control_change,,,,,0,0,1,,,,,0,64,96,,
120420,note_on,,,,,0,0,1,,,,,0,,,93,84
120420,note_on,,,,,10,0,1,,,,,0,,,81,84
120420,note_on,,,,,180,0,2,,,,,0,,,62,0
120420,note_on,,,,,0,0,2,,,,,0,,,65,0
120420,note_on,,,,,0,0,2,,,,,0,,,61,81
120420,note_on,,,,,0,0,2,,,,,0,,,64,81
120440,set_tempo,,,,,20,1,0,,662983,,,,,,,
120470,set_tempo,,,,,30,1,0,,666666,,,,,,,
120480,note_on,,,,,0,0,1,,,,,0,,,81,0
120480,note_on,,,,,0,0,2,,,,,0,,,61,0
120480,note_on,,,,,60,0,1,,,,,0,,,93,0
120480,note_on,,,,,60,0,2,,,,,0,,,64,0
120480,set_tempo,,,,,10,1,0,,600000,,,,,,,
120480,note_on,,,,,0,0,2,,,,,0,,,57,0
120540,control_change,,,,,60,0,1,,,,,0,64,0,,
120540,note_on,,,,,60,0,2,,,,,0,,,33,83
120540,note_on,,,,,0,0,2,,,,,0,,,45,83
120590,note_on,,,,,50,0,2,,,,,0,,,45,0
120590,note_on,,,,,0,0,2,,,,,0,,,33,0
120600,note_on,,,,,10,0,2,,,,,0,,,33,87
120600,note_on,,,,,0,0,2,,,,,0,,,45,87
120657,note_on,,,,,57,0,2,,,,,0,,,45,0
120657,note_on,,,,,0,0,2,,,,,0,,,33,0
120660,note_on,,,,,3,0,2,,,,,0,,,33,92
120660,note_on,,,,,0,0,2,,,,,0,,,45,92
120714,note_on,,,,,54,0,2,,,,,0,,,45,0
120714,note_on,,,,,0,0,2,,,,,0,,,33,0
120720,note_on,,,,,6,0,2,,,,,0,,,33,96
120720,note_on,,,,,0,0,2,,,,,0,,,45,96
120760,set_tempo,,,,,280,1,0,,603015,,,,,,,
120774,note_on,,,,,54,0,2,,,,,0,,,45,0
120774,note_on,,,,,0,0,2,,,,,0,,,33,0
120780,note_on,,,,,0,0,2,,,,,0,,,45,103
120780,set_tempo,,,,,20,1,0,,600000,,,,,,,
120780,note_on,,,,,6,0,2,,,,,0,,,33,103
120790,set_tempo,,,,,10,1,0,,597014,,,,,,,
120810,set_tempo,,,,,20,1,0,,594059,,,,,,,
120837,note_on,,,,,57,0,2,,,,,0,,,45,0
120837,note_on,,,,,0,0,2,,,,,0,,,33,0
120840,note_on,,,,,0,0,2,,,,,0,,,45,108
120840,note_on,,,,,3,0,2,,,,,0,,,33,108
120875,set_tempo,,,,,65,1,0,,591133,,,,,,,
120894,note_on,,,,,0,0,2,,,,,0,,,33,0
120894,note_on,,,,,54,0,2,,,,,0,,,45,0
120900,note_on,,,,,360,0,1,,,,,0,,,69,111
120900,note_on,,,,,0,0,1,,,,,0,,,81,111
120900,note_on,,,,,0,0,2,,,,,0,,,38,120
120900,note_on,,,,,6,0,2,,,,,0,,,50,120
120915,set_tempo,,,,,40,1,0,,588235,,,,,,,
120950,note_on,,,,,50,0,1,,,,,0,,,81,0
120950,note_on,,,,,0,0,1,,,,,0,,,69,0
120954,note_on,,,,,54,0,2,,,,,0,,,38,0
120954,note_on,,,,,0,0,2,,,,,0,,,50,0
120955,set_tempo,,,,,40,1,0,,585365,,,,,,,
120960,note_on,,,,,6,0,2,,,,,0,,,37,120
120960,note_on,,,,,0,0,2,,,,,0,,,49,120
120960,control_change,,,,,0,0,2,,,,,0,64,95,,
120960,control_change,,,,,0,0,1,,,,,0,64,97,,
120960,note_on,,,,,0,0,1,,,,,0,,,81,114
120960,note_on,,,,,10,0,1,,,,,0,,,69,114
120995,set_tempo,,,,,40,1,0,,582524,,,,,,,
121017,note_on,,,,,0,0,1,,,,,0,,,69,0
121017,note_on,,,,,57,0,1,,,,,0,,,81,0
121020,note_on,,,,,3,0,1,,,,,0,,,69,116
121020,note_on,,,,,0,0,1,,,,,0,,,81,116
121035,set_tempo,,,,,40,1,0,,579710,,,,,,,
121074,note_on,,,,,0,0,1,,,,,0,,,69,0
121074,note_on,,,,,54,0,1,,,,,0,,,81,0
121080,note_on,,,,,0,0,1,,,,,0,,,81,119
121080,note_on,,,,,6,0,1,,,,,0,,,69,119
121105,set_tempo,,,,,70,1,0,,576923,,,,,,,
121134,note_on,,,,,54,0,1,,,,,0,,,81,0
121134,note_on,,,,,0,0,1,,,,,0,,,69,0
121135,control_change,,,,,175,0,2,,,,,0,64,0,,
121135,control_change,,,,,1,0,1,,,,,0,64,0,,
121140,note_on,,,,,0,0,2,,,,,0,,,37,0
121140,note_on,,,,,0,0,2,,,,,0,,,34,118
121140,note_on,,,,,0,0,2,,,,,0,,,46,118
121140,control_change,,,,,0,0,2,,,,,0,64,94,,
121140,control_change,,,,,0,0,1,,,,,0,64,95,,
121140,note_on,,,,,0,0,1,,,,,0,,,81,120
121140,note_on,,,,,5,0,1,,,,,0,,,69,120
121140,note_on,,,,,5,0,2,,,,,0,,,49,0
121145,set_tempo,,,,,40,1,0,,574162,,,,,,,
121185,set_tempo,,,,,40,1,0,,571428,,,,,,,
121197,note_on,,,,,0,0,1,,,,,0,,,69,0
121197,note_on,,,,,57,0,1,,,,,0,,,81,0
121200,note_on,,,,,3,0,1,,,,,0,,,69,122
121200,note_on,,,,,0,0,1,,,,,0,,,81,122
121215,set_tempo,,,,,30,1,0,,568720,,,,,,,
121254,note_on,,,,,54,0,1,,,,,0,,,81,0
121254,note_on,,,,,0,0,1,,,,,0,,,69,0
121260,note_on,,,,,6,0,1,,,,,0,,,79,124
121260,note_on,,,,,0,0,1,,,,,0,,,67,124
121285,set_tempo,,,,,70,1,0,,566037,,,,,,,
121310,control_change,,,,,50,0,1,,,,,0,64,0,,
121314,note_on,,,,,0,0,1,,,,,0,,,79,0
121314,note_on,,,,,4,0,1,,,,,0,,,67,0
121315,control_change,,,,,175,0,2,,,,,0,64,0,,
121315,set_tempo,,,,,30,1,0,,563380,,,,,,,
121320,note_on,,,,,5,0,2,,,,,0,,,46,0
121320,note_on,,,,,0,0,2,,,,,0,,,45,106
121320,note_on,,,,,6,0,1,,,,,0,,,65,126
121320,note_on,,,,,0,0,2,,,,,0,,,34,0
121320,note_on,,,,,0,0,1,,,,,0,,,77,126
121320,note_on,,,,,0,0,2,,,,,0,,,33,106
121355,set_tempo,,,,,40,1,0,,560747,,,,,,,
121368,note_on,,,,,48,0,2,,,,,0,,,45,0
121368,note_on,,,,,0,0,2,,,,,0,,,33,0
121380,note_on,,,,,12,0,2,,,,,0,,,37,114
121380,note_on,,,,,0,0,2,,,,,0,,,49,114
121415,set_tempo,,,,,60,1,0,,558139,,,,,,,
121426,note_on,,,,,46,0,2,,,,,0,,,49,0
121426,note_on,,,,,0,0,2,,,,,0,,,37,0
121440,note_on,,,,,14,0,2,,,,,0,,,38,120
121440,note_on,,,,,0,0,2,,,,,0,,,50,120
121455,set_tempo,,,,,40,1,0,,555555,,,,,,,
121486,note_on,,,,,46,0,2,,,,,0,,,50,0
121486,note_on,,,,,0,0,2,,,,,0,,,38,0
121495,set_tempo,,,,,40,1,0,,552995,,,,,,,
121500,note_on,,,,,180,0,1,,,,,0,,,77,0
121500,note_on,,,,,0,0,1,,,,,0,,,65,0
121500,note_on,,,,,0,0,1,,,,,0,,,64,120
121500,note_on,,,,,0,0,1,,,,,0,,,76,120
121500,note_on,,,,,0,0,2,,,,,0,,,52,123
121500,note_on,,,,,14,0,2,,,,,0,,,40,123
121505,set_tempo,,,,,10,1,0,,550458,,,,,,,
121548,note_on,,,,,48,0,2,,,,,0,,,52,0
121548,note_on,,,,,0,0,2,,,,,0,,,40,0
121555,set_tempo,,,,,50,1,0,,547945,,,,,,,
121560,note_on,,,,,12,0,2,,,,,0,,,41,125
121560,note_on,,,,,0,0,2,,,,,0,,,53,125
121606,note_on,,,,,0,0,2,,,,,0,,,41,0
121606,note_on,,,,,46,0,2,,,,,0,,,53,0
121615,set_tempo,,,,,60,1,0,,545454,,,,,,,
121620,note_on,,,,,0,0,2,,,,,0,,,55,126
121620,note_on,,,,,14,0,2,,,,,0,,,43,126
121645,set_tempo,,,,,30,1,0,,542986,,,,,,,
121666,note_on,,,,,46,0,2,,,,,0,,,55,0
121666,note_on,,,,,0,0,2,,,,,0,,,43,0
121680,note_on,,,,,0,0,1,,,,,0,,,74,105
121680,note_on,,,,,0,0,1,,,,,0,,,62,105
121680,note_on,,,,,0,0,1,,,,,0,,,64,0
121680,note_on,,,,,180,0,1,,,,,0,,,76,0
121680,control_change,,,,,0,0,2,,,,,0,64,95,,
121680,note_on,,,,,0,0,2,,,,,0,,,53,127
121680,note_on,,,,,14,0,2,,,,,0,,,41,127
121680,control_change,,,,,0,0,1,,,,,0,64,96,,
121685,set_tempo,,,,,40,1,0,,540540,,,,,,,
121715,set_tempo,,,,,30,1,0,,538116,,,,,,,
121735,set_tempo,,,,,20,1,0,,535714,,,,,,,
121737,note_on,,,,,0,0,1,,,,,0,,,62,0
121737,note_on,,,,,57,0,1,,,,,0,,,74,0
121740,note_on,,,,,3,0,1,,,,,0,,,65,116
121740,note_on,,,,,0,0,1,,,,,0,,,77,116
121785,set_tempo,,,,,50,1,0,,530973,,,,,,,
121794,note_on,,,,,54,0,1,,,,,0,,,77,0
121794,note_on,,,,,0,0,1,,,,,0,,,65,0
121800,note_on,,,,,0,0,1,,,,,0,,,79,119
121800,note_on,,,,,6,0,1,,,,,0,,,67,119
121850,control_change,,,,,170,0,2,,,,,0,64,0,,
121854,note_on,,,,,54,0,1,,,,,0,,,79,0
121854,note_on,,,,,0,0,1,,,,,0,,,67,0
121855,control_change,,,,,1,0,1,,,,,0,64,0,,
121860,control_change,,,,,0,0,1,,,,,0,64,94,,
121860,note_on,,,,,0,0,1,,,,,0,,,81,120
121860,note_on,,,,,5,0,1,,,,,0,,,69,120
121860,note_on,,,,,0,0,2,,,,,0,,,41,0
121860,control_change,,,,,0,0,2,,,,,0,64,95,,
121860,note_on,,,,,0,0,2,,,,,0,,,51,120
121860,note_on,,,,,10,0,2,,,,,0,,,53,0
121860,note_on,,,,,0,0,2,,,,,0,,,39,120
121917,note_on,,,,,57,0,1,,,,,0,,,81,0
121917,note_on,,,,,0,0,1,,,,,0,,,69,0
121920,note_on,,,,,3,0,1,,,,,0,,,70,122
121920,note_on,,,,,0,0,1,,,,,0,,,82,122
121974,note_on,,,,,0,0,1,,,,,0,,,70,0
121974,note_on,,,,,54,0,1,,,,,0,,,82,0
121980,note_on,,,,,0,0,1,,,,,0,,,84,124
121980,note_on,,,,,6,0,1,,,,,0,,,72,124
122034,note_on,,,,,0,0,1,,,,,0,,,72,0
122034,note_on,,,,,54,0,1,,,,,0,,,84,0
122035,control_change,,,,,1,0,1,,,,,0,64,0,,
122035,control_change,,,,,175,0,2,,,,,0,64,0,,
122040,note_on,,,,,5,0,2,,,,,0,,,51,0
122040,note_on,,,,,0,0,2,,,,,0,,,39,0
122040,control_change,,,,,0,0,1,,,,,0,64,95,,
122040,note_on,,,,,0,0,1,,,,,0,,,82,115
122040,note_on,,,,,5,0,1,,,,,0,,,70,115
122040,note_on,,,,,0,0,2,,,,,0,,,49,100
122040,note_on,,,,,0,0,2,,,,,0,,,37,100
122094,note_on,,,,,54,0,1,,,,,0,,,82,0
122094,note_on,,,,,0,0,1,,,,,0,,,70,0
122100,note_on,,,,,6,0,1,,,,,0,,,72,108
122100,note_on,,,,,0,0,1,,,,,0,,,84,108
122154,note_on,,,,,0,0,1,,,,,0,,,72,0
122154,note_on,,,,,54,0,1,,,,,0,,,84,0
122160,note_on,,,,,0,0,1,,,,,0,,,85,107
122160,note_on,,,,,6,0,1,,,,,0,,,73,107
122195,set_tempo,,,,,410,1,0,,533333,,,,,,,
122206,note_on,,,,,166,0,2,,,,,0,,,49,0
122206,note_on,,,,,0,0,2,,,,,0,,,37,0
122214,note_on,,,,,54,0,1,,,,,0,,,85,0
122214,note_on,,,,,0,0,1,,,,,0,,,73,0
122215,control_change,,,,,1,0,1,,,,,0,64,0,,
122220,note_on,,,,,5,0,1,,,,,0,,,74,114
122220,note_on,,,,,0,0,1,,,,,0,,,86,114
122220,set_tempo,,,,,25,1,0,,535714,,,,,,,
122220,note_on,,,,,14,0,2,,,,,0,,,54,96
122220,note_on,,,,,0,0,2,,,,,0,,,58,96
122250,set_tempo,,,,,30,1,0,,538116,,,,,,,
122266,note_on,,,,,46,0,1,,,,,0,,,86,0
122266,note_on,,,,,46,0,2,,,,,0,,,58,0
122266,note_on,,,,,0,0,2,,,,,0,,,54,0
122266,note_on,,,,,0,0,1,,,,,0,,,74,0
122280,note_on,,,,,0,0,1,,,,,0,,,87,117
122280,note_on,,,,,14,0,1,,,,,0,,,75,117
122280,note_on,,,,,0,0,2,,,,,0,,,58,109
122280,note_on,,,,,14,0,2,,,,,0,,,54,109
122280,set_tempo,,,,,30,1,0,,540540,,,,,,,
122290,set_tempo,,,,,10,1,0,,542986,,,,,,,
122300,set_tempo,,,,,10,1,0,,545454,,,,,,,
122310,set_tempo,,,,,10,1,0,,547945,,,,,,,
122323,note_on,,,,,0,0,1,,,,,0,,,75,0
122323,note_on,,,,,0,0,2,,,,,0,,,54,0
122323,note_on,,,,,43,0,2,,,,,0,,,58,0
122323,note_on,,,,,43,0,1,,,,,0,,,87,0
122340,note_on,,,,,0,0,1,,,,,0,,,88,123
122340,set_tempo,,,,,30,1,0,,550458,,,,,,,
122340,note_on,,,,,0,0,2,,,,,0,,,58,121
122340,note_on,,,,,17,0,1,,,,,0,,,76,123
122340,note_on,,,,,17,0,2,,,,,0,,,54,121
122345,set_tempo,,,,,5,1,0,,552995,,,,,,,
122360,set_tempo,,,,,15,1,0,,555555,,,,,,,
122370,set_tempo,,,,,10,1,0,,558139,,,,,,,
122380,set_tempo,,,,,10,1,0,,560747,,,,,,,
122383,note_on,,,,,0,0,1,,,,,0,,,76,0
122383,note_on,,,,,43,0,1,,,,,0,,,88,0
122383,note_on,,,,,0,0,2,,,,,0,,,54,0
122383,note_on,,,,,43,0,2,,,,,0,,,58,0
122395,set_tempo,,,,,15,1,0,,563380,,,,,,,
122395,control_change,,,,,12,0,2,,,,,0,64,96,,
122400,note_on,,,,,0,0,2,,,,,0,,,53,127
122400,set_tempo,,,,,5,1,0,,566037,,,,,,,
122400,control_change,,,,,0,0,1,,,,,0,64,96,,
122400,note_on,,,,,0,0,1,,,,,0,,,77,127
122400,note_on,,,,,17,0,1,,,,,0,,,89,127
122400,note_on,,,,,5,0,2,,,,,0,,,61,127
122400,note_on,,,,,0,0,2,,,,,0,,,58,127
122430,set_tempo,,,,,30,1,0,,571428,,,,,,,
122435,set_tempo,,,,,5,1,0,,574162,,,,,,,
122445,set_tempo,,,,,10,1,0,,576923,,,,,,,
122455,set_tempo,,,,,10,1,0,,579710,,,,,,,
122457,note_on,,,,,0,0,1,,,,,0,,,89,0
122457,note_on,,,,,57,0,1,,,,,0,,,77,0
122460,note_on,,,,,3,0,1,,,,,0,,,89,109
122460,set_tempo,,,,,5,1,0,,582524,,,,,,,
122460,note_on,,,,,0,0,1,,,,,0,,,77,109
122470,set_tempo,,,,,10,1,0,,585365,,,,,,,
122480,set_tempo,,,,,10,1,0,,591133,,,,,,,
122490,set_tempo,,,,,10,1,0,,594059,,,,,,,
122495,set_tempo,,,,,5,1,0,,597014,,,,,,,
122500,set_tempo,,,,,5,1,0,,600000,,,,,,,
122510,note_on,,,,,0,0,1,,,,,0,,,89,0
122510,set_tempo,,,,,10,1,0,,603015,,,,,,,
122510,note_on,,,,,50,0,1,,,,,0,,,77,0
122520,control_change,,,,,120,0,2,,,,,0,64,0,,
122520,set_tempo,,,,,10,1,0,,609137,,,,,,,
122520,note_on,,,,,10,0,1,,,,,0,,,89,93
122520,note_on,,,,,0,0,1,,,,,0,,,77,93
122530,set_tempo,,,,,10,1,0,,612244,,,,,,,
122535,set_tempo,,,,,5,1,0,,618556,,,,,,,
122545,set_tempo,,,,,10,1,0,,621761,,,,,,,
122550,set_tempo,,,,,5,1,0,,625000,,,,,,,
122555,set_tempo,,,,,5,1,0,,628272,,,,,,,
122560,set_tempo,,,,,5,1,0,,631578,,,,,,,
122570,note_on,,,,,50,0,1,,,,,0,,,77,0
122570,note_on,,,,,0,0,1,,,,,0,,,89,0
122575,set_tempo,,,,,15,1,0,,638297,,,,,,,
122580,note_on,,,,,10,0,1,,,,,0,,,77,84
122580,note_on,,,,,0,0,1,,,,,0,,,89,84
122580,note_on,,,,,0,0,2,,,,,0,,,61,0
122580,note_on,,,,,60,0,2,,,,,0,,,58,0
122580,note_on,,,,,0,0,2,,,,,0,,,60,95
122580,note_on,,,,,0,0,2,,,,,0,,,57,95
122580,set_tempo,,,,,5,1,0,,641711,,,,,,,
122590,set_tempo,,,,,10,1,0,,645161,,,,,,,
122600,set_tempo,,,,,10,1,0,,652173,,,,,,,
122615,set_tempo,,,,,15,1,0,,659340,,,,,,,
122620,set_tempo,,,,,5,1,0,,662983,,,,,,,
122630,set_tempo,,,,,10,1,0,,666666,,,,,,,
122635,set_tempo,,,,,5,1,0,,674157,,,,,,,
122640,note_on,,,,,60,0,1,,,,,0,,,89,0
122640,control_change,,,,,0,0,1,,,,,0,64,0,,
122640,note_on,,,,,60,0,2,,,,,0,,,60,0
122640,note_on,,,,,0,0,2,,,,,0,,,57,0
122640,note_on,,,,,0,0,2,,,,,0,,,53,0
122640,note_on,,,,,0,0,2,,,,,0,,,53,89
122640,note_on,,,,,0,0,2,,,,,0,,,65,89
122640,note_on,,,,,0,0,1,,,,,0,,,77,0
122650,set_tempo,,,,,15,1,0,,677966,,,,,,,
122665,set_tempo,,,,,15,1,0,,685714,,,,,,,
122690,note_on,,,,,50,0,2,,,,,0,,,65,0
122690,note_on,,,,,0,0,2,,,,,0,,,53,0
122700,note_on,,,,,10,0,2,,,,,0,,,53,82
122700,note_on,,,,,0,0,2,,,,,0,,,65,82
122705,set_tempo,,,,,40,1,0,,689655,,,,,,,
122735,set_tempo,,,,,30,1,0,,693641,,,,,,,
122740,set_tempo,,,,,5,1,0,,697674,,,,,,,
122750,note_on,,,,,0,0,2,,,,,0,,,53,0
122750,note_on,,,,,50,0,2,,,,,0,,,65,0
122760,note_on,,,,,10,0,2,,,,,0,,,53,78
122760,set_tempo,,,,,20,1,0,,701754,,,,,,,
122760,note_on,,,,,0,0,2,,,,,0,,,65,78
122790,set_tempo,,,,,30,1,0,,705882,,,,,,,
122795,set_tempo,,,,,5,1,0,,710059,,,,,,,
122816,note_on,,,,,56,0,2,,,,,0,,,65,0
122816,note_on,,,,,0,0,2,,,,,0,,,53,0
122820,note_on,,,,,4,0,2,,,,,0,,,53,74
122820,note_on,,,,,0,0,2,,,,,0,,,65,74
122840,set_tempo,,,,,45,1,0,,714285,,,,,,,
122855,set_tempo,,,,,15,1,0,,718562,,,,,,,
122870,note_on,,,,,50,0,2,,,,,0,,,65,0
122870,note_on,,,,,0,0,2,,,,,0,,,53,0
122880,note_on,,,,,10,0,2,,,,,0,,,53,70
122880,note_on,,,,,0,0,2,,,,,0,,,65,70
122885,set_tempo,,,,,30,1,0,,722891,,,,,,,
122890,set_tempo,,,,,5,1,0,,722891,,,,,,,
122930,note_on,,,,,50,0,2,,,,,0,,,65,0
122930,note_on,,,,,0,0,2,,,,,0,,,53,0
122935,set_tempo,,,,,45,1,0,,727272,,,,,,,
122940,set_tempo,,,,,5,1,0,,731707,,,,,,,
122940,note_on,,,,,0,0,2,,,,,0,,,65,69
122940,note_on,,,,,10,0,2,,,,,0,,,53,69
122955,set_tempo,,,,,15,1,0,,736196,,,,,,,
122960,set_tempo,,,,,5,1,0,,740740,,,,,,,
122975,set_tempo,,,,,15,1,0,,745341,,,,,,,
122985,set_tempo,,,,,10,1,0,,750000,,,,,,,
122995,set_tempo,,,,,10,1,0,,754716,,,,,,,
122996,note_on,,,,,0,0,2,,,,,0,,,53,0
122996,note_on,,,,,56,0,2,,,,,0,,,65,0
123000,set_tempo,,,,,5,1,0,,759493,,,,,,,
123000,note_on,,,,,4,0,2,,,,,0,,,53,63
123000,note_on,,,,,0,0,2,,,,,0,,,65,63
123020,set_tempo,,,,,20,1,0,,764331,,,,,,,
123030,set_tempo,,,,,10,1,0,,769230,,,,,,,
123035,set_tempo,,,,,5,1,0,,774193,,,,,,,
123050,note_on,,,,,0,0,2,,,,,0,,,53,0
123050,set_tempo,,,,,15,1,0,,779220,,,,,,,
123050,note_on,,,,,50,0,2,,,,,0,,,65,0
123055,set_tempo,,,,,5,1,0,,784313,,,,,,,
123060,note_on,,,,,10,0,2,,,,,0,,,61,59
123060,note_on,,,,,0,0,1,,,,,0,,,89,59
123060,note_on,,,,,420,0,1,,,,,0,,,77,59
123060,note_on,,,,,0,0,2,,,,,0,,,53,59
123060,note_on,,,,,0,0,2,,,,,0,,,65,59
123075,set_tempo,,,,,20,1,0,,794701,,,,,,,
123085,set_tempo,,,,,10,1,0,,839160,,,,,,,
123090,set_tempo,,,,,5,1,0,,888888,,,,,,,
123095,set_tempo,,,,,5,1,0,,1061946,,,,,,,
123100,set_tempo,,,,,5,1,0,,1100917,,,,,,,
123105,set_tempo,,,,,5,1,0,,1132075,,,,,,,
123110,set_tempo,,,,,5,1,0,,1212121,,,,,,,
123110,note_on,,,,,50,0,2,,,,,0,,,65,0
123110,note_on,,,,,0,0,2,,,,,0,,,53,0
123110,note_on,,,,,0,0,2,,,,,0,,,61,0
123117,note_on,,,,,0,0,1,,,,,0,,,77,0
123117,note_on,,,,,57,0,1,,,,,0,,,89,0
123120,note_on,,,,,3,0,1,,,,,0,,,78,54
123120,set_tempo,,,,,10,1,0,,863309,,,,,,,
123120,control_change,,,,,0,0,1,,,,,0,64,97,,
123120,note_on,,,,,10,0,2,,,,,0,,,53,65
123120,note_on,,,,,0,0,1,,,,,0,,,90,54
123140,set_tempo,,,,,20,1,0,,681818,,,,,,,
123150,set_tempo,,,,,10,1,0,,677966,,,,,,,
123160,set_tempo,,,,,10,1,0,,674157,,,,,,,
123180,note_on,,,,,60,0,2,,,,,0,,,53,0
123210,note_on,,,,,30,0,2,,,,,0,,,66,48
123210,note_on,,,,,0,0,2,,,,,0,,,63,48
123220,set_tempo,,,,,60,1,0,,670391,,,,,,,
123235,note_on,,,,,25,0,2,,,,,0,,,63,0
123235,note_on,,,,,0,0,2,,,,,0,,,66,0
123240,note_on,,,,,5,0,2,,,,,0,,,66,46
123240,note_on,,,,,0,0,2,,,,,0,,,63,46
123240,control_change,,,,,120,0,1,,,,,0,64,0,,
123250,set_tempo,,,,,30,1,0,,666666,,,,,,,
123280,set_tempo,,,,,30,1,0,,662983,,,,,,,
123290,set_tempo,,,,,10,1,0,,659340,,,,,,,
123300,note_on,,,,,60,0,2,,,,,0,,,63,0
123300,note_on,,,,,0,0,2,,,,,0,,,66,0
123300,note_on,,,,,0,0,2,,,,,0,,,53,61
123300,control_change,,,,,0,0,1,,,,,0,64,96,,
123300,note_on,,,,,0,0,1,,,,,0,,,77,54
123300,note_on,,,,,0,0,1,,,,,0,,,78,0
123300,note_on,,,,,60,0,1,,,,,0,,,90,0
123300,note_on,,,,,0,0,1,,,,,0,,,89,54
123320,set_tempo,,,,,30,1,0,,655737,,,,,,,
123340,set_tempo,,,,,20,1,0,,652173,,,,,,,
123360,note_on,,,,,60,0,2,,,,,0,,,53,0
123390,note_on,,,,,0,0,2,,,,,0,,,65,48
123390,note_on,,,,,30,0,2,,,,,0,,,61,48
123415,note_on,,,,,25,0,2,,,,,0,,,65,0
123415,note_on,,,,,0,0,2,,,,,0,,,61,0
123420,control_change,,,,,120,0,1,,,,,0,64,0,,
123420,note_on,,,,,5,0,2,,,,,0,,,65,47
123420,note_on,,,,,0,0,2,,,,,0,,,61,47
123460,set_tempo,,,,,120,1,0,,655737,,,,,,,
123480,note_on,,,,,60,0,2,,,,,0,,,61,0
123480,note_on,,,,,0,0,2,,,,,0,,,65,0
123480,note_on,,,,,0,0,2,,,,,0,,,63,51
123480,note_on,,,,,0,0,2,,,,,0,,,60,51
123480,note_on,,,,,0,0,2,,,,,0,,,53,51
123480,note_on,,,,,60,0,1,,,,,0,,,89,0
123480,note_on,,,,,0,0,1,,,,,0,,,87,50
123480,note_on,,,,,0,0,1,,,,,0,,,77,0
123480,note_on,,,,,0,0,1,,,,,0,,,75,50
123490,set_tempo,,,,,30,1,0,,659340,,,,,,,
123539,note_on,,,,,59,0,2,,,,,0,,,53,0
123539,note_on,,,,,0,0,1,,,,,0,,,75,0
123539,note_on,,,,,59,0,1,,,,,0,,,87,0
123539,note_on,,,,,0,0,2,,,,,0,,,60,0
123539,note_on,,,,,0,0,2,,,,,0,,,63,0
123540,note_on,,,,,1,0,1,,,,,0,,,73,50
123540,note_on,,,,,0,0,2,,,,,0,,,53,53
123540,note_on,,,,,0,0,2,,,,,0,,,58,53
123540,note_on,,,,,1,0,2,,,,,0,,,61,53
123540,set_tempo,,,,,50,1,0,,655737,,,,,,,
123540,note_on,,,,,0,0,1,,,,,0,,,85,50
123580,set_tempo,,,,,40,1,0,,652173,,,,,,,
123595,note_on,,,,,0,0,1,,,,,0,,,73,0
123595,note_on,,,,,55,0,1,,,,,0,,,85,0
123595,note_on,,,,,55,0,2,,,,,0,,,53,0
123595,note_on,,,,,0,0,2,,,,,0,,,58,0
123595,note_on,,,,,0,0,2,,,,,0,,,61,0
123600,note_on,,,,,5,0,2,,,,,0,,,60,56
123600,note_on,,,,,0,0,2,,,,,0,,,57,56
123600,note_on,,,,,0,0,2,,,,,0,,,53,56
123600,note_on,,,,,5,0,1,,,,,0,,,72,53
123600,note_on,,,,,0,0,1,,,,,0,,,84,53
123630,set_tempo,,,,,50,1,0,,648648,,,,,,,
123655,note_on,,,,,0,0,1,,,,,0,,,72,0
123655,note_on,,,,,0,0,2,,,,,0,,,60,0
123655,note_on,,,,,0,0,2,,,,,0,,,57,0
123655,note_on,,,,,55,0,2,,,,,0,,,53,0
123655,note_on,,,,,55,0,1,,,,,0,,,84,0
123660,note_on,,,,,5,0,1,,,,,0,,,72,56
123660,note_on,,,,,0,0,2,,,,,0,,,57,58
123660,note_on,,,,,5,0,2,,,,,0,,,53,58
123660,note_on,,,,,0,0,1,,,,,0,,,84,56
123660,set_tempo,,,,,30,1,0,,645161,,,,,,,
123660,note_on,,,,,0,0,2,,,,,0,,,60,58
123670,set_tempo,,,,,10,1,0,,648648,,,,,,,
123680,set_tempo,,,,,10,1,0,,645161,,,,,,,
123700,set_tempo,,,,,20,1,0,,641711,,,,,,,
123715,note_on,,,,,0,0,2,,,,,0,,,57,0
123715,note_on,,,,,55,0,1,,,,,0,,,84,0
123715,note_on,,,,,0,0,1,,,,,0,,,72,0
123715,note_on,,,,,55,0,2,,,,,0,,,60,0
123715,note_on,,,,,0,0,2,,,,,0,,,53,0
123720,note_on,,,,,0,0,1,,,,,0,,,73,60
123720,note_on,,,,,0,0,2,,,,,0,,,58,62
123720,note_on,,,,,5,0,1,,,,,0,,,85,60
123720,note_on,,,,,0,0,2,,,,,0,,,53,62
123720,set_tempo,,,,,20,1,0,,638297,,,,,,,
123720,note_on,,,,,5,0,2,,,,,0,,,61,62
123730,set_tempo,,,,,10,1,0,,631578,,,,,,,
123735,set_tempo,,,,,5,1,0,,625000,,,,,,,
123755,set_tempo,,,,,20,1,0,,628272,,,,,,,
123765,set_tempo,,,,,10,1,0,,631578,,,,,,,
123770,set_tempo,,,,,5,1,0,,638297,,,,,,,
123775,set_tempo,,,,,5,1,0,,641711,,,,,,,
123775,note_on,,,,,55,0,1,,,,,0,,,73,0
123775,note_on,,,,,55,0,2,,,,,0,,,58,0
123775,note_on,,,,,0,0,2,,,,,0,,,53,0
123775,note_on,,,,,0,0,2,,,,,0,,,61,0
123775,note_on,,,,,0,0,1,,,,,0,,,85,0
123780,set_tempo,,,,,5,1,0,,645161,,,,,,,
123780,note_on,,,,,0,0,2,,,,,0,,,63,66
123780,note_on,,,,,0,0,2,,,,,0,,,53,66
123780,note_on,,,,,5,0,2,,,,,0,,,60,66
123780,note_on,,,,,5,0,1,,,,,0,,,75,63
123780,note_on,,,,,0,0,1,,,,,0,,,87,63
123790,set_tempo,,,,,10,1,0,,652173,,,,,,,
123795,set_tempo,,,,,5,1,0,,655737,,,,,,,
123800,set_tempo,,,,,5,1,0,,662983,,,,,,,
123805,set_tempo,,,,,5,1,0,,666666,,,,,,,
123810,set_tempo,,,,,5,1,0,,674157,,,,,,,
123815,set_tempo,,,,,5,1,0,,693641,,,,,,,
123820,set_tempo,,,,,5,1,0,,701754,,,,,,,
123825,set_tempo,,,,,5,1,0,,705882,,,,,,,
123830,set_tempo,,,,,5,1,0,,991735,,,,,,,
123835,set_tempo,,,,,5,1,0,,745341,,,,,,,
123835,note_on,,,,,55,0,2,,,,,0,,,63,0
123835,note_on,,,,,55,0,1,,,,,0,,,87,0
123835,note_on,,,,,0,0,1,,,,,0,,,75,0
123835,note_on,,,,,0,0,2,,,,,0,,,60,0
123835,note_on,,,,,0,0,2,,,,,0,,,53,0
123840,note_on,,,,,0,0,1,,,,,0,,,89,62
123840,control_change,,,,,0,0,1,,,,,0,64,97,,
123840,note_on,,,,,5,0,1,,,,,0,,,77,62
123840,set_tempo,,,,,5,1,0,,662983,,,,,,,
123840,note_on,,,,,5,0,2,,,,,0,,,53,65
123845,set_tempo,,,,,5,1,0,,670391,,,,,,,
123850,set_tempo,,,,,5,1,0,,655737,,,,,,,
123860,set_tempo,,,,,10,1,0,,659340,,,,,,,
123870,set_tempo,,,,,10,1,0,,662983,,,,,,,
123885,set_tempo,,,,,15,1,0,,666666,,,,,,,
123900,note_on,,,,,60,0,2,,,,,0,,,53,0
123930,note_on,,,,,30,0,2,,,,,0,,,65,48
123930,note_on,,,,,0,0,2,,,,,0,,,61,48
123940,set_tempo,,,,,55,1,0,,670391,,,,,,,
123955,note_on,,,,,0,0,2,,,,,0,,,65,0
123955,note_on,,,,,25,0,2,,,,,0,,,61,0
123960,control_change,,,,,120,0,1,,,,,0,64,0,,
123960,note_on,,,,,5,0,2,,,,,0,,,65,46
123960,note_on,,,,,0,0,2,,,,,0,,,61,46
123970,set_tempo,,,,,30,1,0,,666666,,,,,,,
124000,set_tempo,,,,,30,1,0,,662983,,,,,,,
124010,set_tempo,,,,,10,1,0,,659340,,,,,,,
124020,note_on,,,,,0,0,1,,,,,0,,,75,61
124020,note_on,,,,,0,0,1,,,,,0,,,77,0
124020,note_on,,,,,60,0,1,,,,,0,,,89,0
124020,note_on,,,,,60,0,2,,,,,0,,,61,0
124020,note_on,,,,,0,0,2,,,,,0,,,65,0
124020,note_on,,,,,0,0,2,,,,,0,,,53,61
124020,note_on,,,,,0,0,1,,,,,0,,,87,61
124020,control_change,,,,,0,0,1,,,,,0,64,96,,
124040,set_tempo,,,,,30,1,0,,655737,,,,,,,
124060,set_tempo,,,,,20,1,0,,652173,,,,,,,
124080,note_on,,,,,60,0,2,,,,,0,,,53,0
124110,note_on,,,,,0,0,2,,,,,0,,,63,52
124110,note_on,,,,,30,0,2,,,,,0,,,60,52
124135,note_on,,,,,0,0,2,,,,,0,,,60,0
124135,note_on,,,,,25,0,2,,,,,0,,,63,0
124140,note_on,,,,,0,0,2,,,,,0,,,63,52
124140,note_on,,,,,5,0,2,,,,,0,,,60,52
124140,control_change,,,,,120,0,1,,,,,0,64,0,,
124170,set_tempo,,,,,110,1,0,,659340,,,,,,,
124180,set_tempo,,,,,10,1,0,,655737,,,,,,,
124185,set_tempo,,,,,5,1,0,,652173,,,,,,,
124200,note_on,,,,,60,0,1,,,,,0,,,87,0
124200,note_on,,,,,0,0,1,,,,,0,,,75,0
124200,note_on,,,,,0,0,1,,,,,0,,,73,60
124200,note_on,,,,,0,0,1,,,,,0,,,85,60
124200,note_on,,,,,0,0,2,,,,,0,,,53,55
124200,note_on,,,,,0,0,2,,,,,0,,,61,55
124200,note_on,,,,,0,0,2,,,,,0,,,60,0
124200,note_on,,,,,60,0,2,,,,,0,,,63,0
124205,set_tempo,,,,,20,1,0,,645161,,,,,,,
124220,set_tempo,,,,,15,1,0,,641711,,,,,,,
124259,note_on,,,,,59,0,2,,,,,0,,,53,0
124259,note_on,,,,,0,0,2,,,,,0,,,61,0
124259,note_on,,,,,0,0,1,,,,,0,,,73,0
124259,note_on,,,,,59,0,1,,,,,0,,,85,0
124260,note_on,,,,,0,0,1,,,,,0,,,84,66
124260,note_on,,,,,1,0,1,,,,,0,,,72,66
124260,set_tempo,,,,,40,1,0,,638297,,,,,,,
124260,note_on,,,,,0,0,2,,,,,0,,,53,56
124260,note_on,,,,,0,0,2,,,,,0,,,60,56
124260,note_on,,,,,1,0,2,,,,,0,,,51,56
124295,set_tempo,,,,,35,1,0,,631578,,,,,,,
124305,set_tempo,,,,,10,1,0,,628272,,,,,,,
124315,note_on,,,,,55,0,1,,,,,0,,,84,0
124315,note_on,,,,,0,0,1,,,,,0,,,72,0
124315,note_on,,,,,0,0,2,,,,,0,,,60,0
124315,note_on,,,,,55,0,2,,,,,0,,,53,0
124315,note_on,,,,,0,0,2,,,,,0,,,51,0
124315,set_tempo,,,,,10,1,0,,625000,,,,,,,
124320,note_on,,,,,0,0,1,,,,,0,,,82,68
124320,note_on,,,,,0,0,2,,,,,0,,,53,58
124320,note_on,,,,,0,0,2,,,,,0,,,58,58
124320,note_on,,,,,5,0,2,,,,,0,,,49,58
124320,note_on,,,,,5,0,1,,,,,0,,,70,68
124350,set_tempo,,,,,35,1,0,,621761,,,,,,,
124370,set_tempo,,,,,20,1,0,,618556,,,,,,,
124375,note_on,,,,,0,0,2,,,,,0,,,49,0
124375,note_on,,,,,0,0,1,,,,,0,,,70,0
124375,note_on,,,,,55,0,1,,,,,0,,,82,0
124375,note_on,,,,,0,0,2,,,,,0,,,58,0
124375,note_on,,,,,55,0,2,,,,,0,,,53,0
124375,set_tempo,,,,,5,1,0,,615384,,,,,,,
124380,note_on,,,,,0,0,1,,,,,0,,,82,71
124380,set_tempo,,,,,5,1,0,,618556,,,,,,,
124380,note_on,,,,,0,0,2,,,,,0,,,58,62
124380,note_on,,,,,5,0,2,,,,,0,,,49,62
124380,note_on,,,,,5,0,1,,,,,0,,,70,71
124380,note_on,,,,,0,0,2,,,,,0,,,53,62
124395,set_tempo,,,,,15,1,0,,621761,,,,,,,
124400,set_tempo,,,,,5,1,0,,625000,,,,,,,
124435,note_on,,,,,0,0,2,,,,,0,,,49,0
124435,note_on,,,,,55,0,2,,,,,0,,,58,0
124435,set_tempo,,,,,35,1,0,,628272,,,,,,,
124435,note_on,,,,,0,0,2,,,,,0,,,53,0
124435,note_on,,,,,55,0,1,,,,,0,,,82,0
124435,note_on,,,,,0,0,1,,,,,0,,,70,0
124440,note_on,,,,,0,0,1,,,,,0,,,84,75
124440,note_on,,,,,5,0,2,,,,,0,,,57,69
124440,note_on,,,,,0,0,2,,,,,0,,,53,69
124440,note_on,,,,,0,0,2,,,,,0,,,60,69
124440,set_tempo,,,,,5,1,0,,631578,,,,,,,
124440,note_on,,,,,5,0,1,,,,,0,,,72,75
124455,set_tempo,,,,,15,1,0,,634920,,,,,,,
124460,set_tempo,,,,,5,1,0,,638297,,,,,,,
124475,set_tempo,,,,,15,1,0,,641711,,,,,,,
124480,set_tempo,,,,,5,1,0,,645161,,,,,,,
124490,set_tempo,,,,,10,1,0,,652173,,,,,,,
124495,note_on,,,,,0,0,2,,,,,0,,,57,0
124495,note_on,,,,,0,0,2,,,,,0,,,53,0
124495,note_on,,,,,0,0,1,,,,,0,,,72,0
124495,note_on,,,,,55,0,2,,,,,0,,,60,0
124495,note_on,,,,,55,0,1,,,,,0,,,84,0
124495,set_tempo,,,,,5,1,0,,655737,,,,,,,
124500,note_on,,,,,5,0,1,,,,,0,,,73,84
124500,set_tempo,,,,,5,1,0,,659340,,,,,,,
124500,note_on,,,,,0,0,2,,,,,0,,,61,78
124500,note_on,,,,,0,0,2,,,,,0,,,53,78
124500,note_on,,,,,5,0,2,,,,,0,,,58,78
124500,note_on,,,,,0,0,1,,,,,0,,,85,84
124510,set_tempo,,,,,10,1,0,,666666,,,,,,,
124515,set_tempo,,,,,5,1,0,,674157,,,,,,,
124525,set_tempo,,,,,10,1,0,,681818,,,,,,,
124530,set_tempo,,,,,5,1,0,,689655,,,,,,,
124545,set_tempo,,,,,15,1,0,,693641,,,,,,,
124555,note_on,,,,,55,0,1,,,,,0,,,85,0
124555,note_on,,,,,55,0,2,,,,,0,,,61,0
124555,note_on,,,,,0,0,1,,,,,0,,,73,0
124555,note_on,,,,,0,0,2,,,,,0,,,53,0
124555,note_on,,,,,0,0,2,,,,,0,,,58,0
124560,note_on,,,,,0,0,2,,,,,0,,,58,87
124560,note_on,,,,,5,0,2,,,,,0,,,63,87
124560,note_on,,,,,5,0,1,,,,,0,,,75,89
124560,note_on,,,,,0,0,2,,,,,0,,,54,87
124560,control_change,,,,,0,0,1,,,,,0,64,96,,
124560,note_on,,,,,0,0,1,,,,,0,,,87,89
124560,set_tempo,,,,,15,1,0,,745341,,,,,,,
124615,set_tempo,,,,,55,1,0,,666666,,,,,,,
124617,note_on,,,,,0,0,2,,,,,0,,,63,0
124617,note_on,,,,,0,0,2,,,,,0,,,58,0
124617,note_on,,,,,57,0,2,,,,,0,,,54,0
124620,note_on,,,,,3,0,2,,,,,0,,,63,76
124620,note_on,,,,,0,0,2,,,,,0,,,58,76
124620,note_on,,,,,0,0,2,,,,,0,,,54,76
124672,note_on,,,,,0,0,2,,,,,0,,,58,0
124672,note_on,,,,,52,0,2,,,,,0,,,54,0
124672,note_on,,,,,0,0,2,,,,,0,,,63,0
124680,note_on,,,,,0,0,2,,,,,0,,,54,76
124680,note_on,,,,,0,0,2,,,,,0,,,58,76
124680,note_on,,,,,8,0,2,,,,,0,,,63,76
124680,note_on,,,,,0,0,1,,,,,0,,,75,0
124680,note_on,,,,,0,0,1,,,,,0,,,70,65
124680,note_on,,,,,0,0,1,,,,,0,,,82,65
124680,note_on,,,,,120,0,1,,,,,0,,,87,0
124710,set_tempo,,,,,95,1,0,,648648,,,,,,,
124728,note_on,,,,,48,0,2,,,,,0,,,54,0
124728,note_on,,,,,0,0,2,,,,,0,,,63,0
124728,note_on,,,,,0,0,1,,,,,0,,,70,0
124728,note_on,,,,,48,0,1,,,,,0,,,82,0
124728,note_on,,,,,0,0,2,,,,,0,,,58,0
124730,control_change,,,,,2,0,1,,,,,0,64,0,,
124740,control_change,,,,,0,0,1,,,,,0,64,96,,
124740,note_on,,,,,0,0,2,,,,,0,,,58,81
124740,note_on,,,,,0,0,2,,,,,0,,,54,81
124740,note_on,,,,,10,0,1,,,,,0,,,82,76
124740,note_on,,,,,0,0,1,,,,,0,,,70,76
124740,note_on,,,,,12,0,2,,,,,0,,,64,81
124750,set_tempo,,,,,40,1,0,,638297,,,,,,,
124765,set_tempo,,,,,15,1,0,,641711,,,,,,,
124780,set_tempo,,,,,15,1,0,,645161,,,,,,,
124785,set_tempo,,,,,5,1,0,,648648,,,,,,,
124800,note_on,,,,,0,0,2,,,,,0,,,54,73
124800,note_on,,,,,0,0,1,,,,,0,,,84,58
124800,note_on,,,,,60,0,2,,,,,0,,,54,0
124800,note_on,,,,,0,0,2,,,,,0,,,58,0
124800,note_on,,,,,0,0,2,,,,,0,,,64,0
124800,note_on,,,,,0,0,2,,,,,0,,,64,73
124800,note_on,,,,,0,0,1,,,,,0,,,72,58
124800,set_tempo,,,,,15,1,0,,652173,,,,,,,
124800,note_on,,,,,0,0,1,,,,,0,,,82,0
124800,note_on,,,,,60,0,1,,,,,0,,,70,0
124800,note_on,,,,,0,0,2,,,,,0,,,58,73
124805,set_tempo,,,,,5,1,0,,655737,,,,,,,
124810,set_tempo,,,,,5,1,0,,659340,,,,,,,
124815,set_tempo,,,,,5,1,0,,670391,,,,,,,
124845,set_tempo,,,,,30,1,0,,677966,,,,,,,
124850,set_tempo,,,,,5,1,0,,701754,,,,,,,
124855,set_tempo,,,,,5,1,0,,714285,,,,,,,
124860,note_on,,,,,0,0,2,,,,,0,,,58,0
124860,note_on,,,,,60,0,2,,,,,0,,,54,0
124860,note_on,,,,,0,0,2,,,,,0,,,64,63
124860,note_on,,,,,60,0,1,,,,,0,,,84,0
124860,note_on,,,,,0,0,2,,,,,0,,,64,0
124860,note_on,,,,,0,0,2,,,,,0,,,58,63
124860,note_on,,,,,0,0,2,,,,,0,,,54,63
124860,note_on,,,,,0,0,1,,,,,0,,,72,0
124860,note_on,,,,,0,0,1,,,,,0,,,70,64
124860,note_on,,,,,0,0,1,,,,,0,,,82,64
124885,set_tempo,,,,,30,1,0,,718562,,,,,,,
124890,set_tempo,,,,,5,1,0,,727272,,,,,,,
124905,set_tempo,,,,,15,1,0,,736196,,,,,,,
124908,note_on,,,,,48,0,2,,,,,0,,,54,0
124908,note_on,,,,,0,0,2,,,,,0,,,58,0
124908,note_on,,,,,0,0,2,,,,,0,,,64,0
124908,note_on,,,,,48,0,1,,,,,0,,,82,0
124908,note_on,,,,,0,0,1,,,,,0,,,70,0
124910,set_tempo,,,,,5,1,0,,745341,,,,,,,
124915,control_change,,,,,7,0,1,,,,,0,64,0,,
124915,set_tempo,,,,,5,1,0,,754716,,,,,,,
124920,note_on,,,,,5,0,1,,,,,0,,,73,74
124920,control_change,,,,,0,0,1,,,,,0,64,95,,
124920,note_on,,,,,0,0,2,,,,,0,,,61,73
124920,note_on,,,,,0,0,2,,,,,0,,,58,73
124920,note_on,,,,,0,0,2,,,,,0,,,53,73
124920,note_on,,,,,12,0,2,,,,,0,,,65,73
124920,note_on,,,,,0,0,1,,,,,0,,,85,74
124925,set_tempo,,,,,10,1,0,,769230,,,,,,,
124935,set_tempo,,,,,10,1,0,,800000,,,,,,,
124945,set_tempo,,,,,10,1,0,,810810,,,,,,,
124950,set_tempo,,,,,5,1,0,,821917,,,,,,,
124955,set_tempo,,,,,5,1,0,,869565,,,,,,,
124960,set_tempo,,,,,5,1,0,,810810,,,,,,,
124995,set_tempo,,,,,35,1,0,,779220,,,,,,,
125000,set_tempo,,,,,5,1,0,,750000,,,,,,,
125010,set_tempo,,,,,10,1,0,,722891,,,,,,,
125020,set_tempo,,,,,10,1,0,,697674,,,,,,,
125030,set_tempo,,,,,10,1,0,,674157,,,,,,,
125035,set_tempo,,,,,5,1,0,,666666,,,,,,,
125045,set_tempo,,,,,10,1,0,,659340,,,,,,,
125050,set_tempo,,,,,5,1,0,,655737,,,,,,,
125100,note_on,,,,,0,0,1,,,,,0,,,84,48
125100,note_on,,,,,180,0,1,,,,,0,,,85,0
125100,note_on,,,,,0,0,1,,,,,0,,,72,48
125100,note_on,,,,,0,0,2,,,,,0,,,60,48
125100,note_on,,,,,0,0,2,,,,,0,,,57,48
125100,note_on,,,,,0,0,2,,,,,0,,,58,0
125100,note_on,,,,,180,0,2,,,,,0,,,61,0
125100,note_on,,,,,0,0,1,,,,,0,,,73,0
125148,note_on,,,,,0,0,2,,,,,0,,,57,0
125148,note_on,,,,,48,0,1,,,,,0,,,84,0
125148,note_on,,,,,48,0,2,,,,,0,,,60,0
125148,note_on,,,,,0,0,1,,,,,0,,,72,0
125160,note_on,,,,,0,0,2,,,,,0,,,65,0
125160,note_on,,,,,12,0,2,,,,,0,,,53,0
125160,set_tempo,,,,,110,1,0,,1008403,,,,,,,
125205,control_change,,,,,57,0,1,,,,,0,64,0,,
125220,note_on,,,,,15,0,1,,,,,0,,,69,43
125220,note_on,,,,,0,0,1,,,,,0,,,72,43
125220,set_tempo,,,,,60,1,0,,754716,,,,,,,
125220,note_on,,,,,0,0,2,,,,,0,,,60,41
125220,note_on,,,,,60,0,2,,,,,0,,,57,41
125280,note_on,,,,,60,0,1,,,,,0,,,72,0
125280,note_on,,,,,0,0,1,,,,,0,,,72,35
125280,note_on,,,,,0,0,1,,,,,0,,,75,35
125280,control_change,,,,,0,0,1,,,,,0,64,97,,
125280,note_on,,,,,0,0,1,,,,,0,,,69,0
125280,note_on,,,,,0,0,2,,,,,0,,,50,39
125280,note_on,,,,,0,0,2,,,,,0,,,57,0
125280,set_tempo,,,,,60,1,0,,863309,,,,,,,
125280,note_on,,,,,60,0,2,,,,,0,,,60,0
125300,set_tempo,,,,,20,1,0,,681818,,,,,,,
125310,set_tempo,,,,,10,1,0,,677966,,,,,,,
125320,set_tempo,,,,,10,1,0,,674157,,,,,,,
125340,note_on,,,,,60,0,2,,,,,0,,,50,0
125370,note_on,,,,,30,0,2,,,,,0,,,63,38
125370,note_on,,,,,0,0,2,,,,,0,,,60,38
125380,set_tempo,,,,,60,1,0,,670391,,,,,,,
125395,note_on,,,,,25,0,2,,,,,0,,,60,0
125395,note_on,,,,,0,0,2,,,,,0,,,63,0
125400,control_change,,,,,120,0,1,,,,,0,64,0,,
125400,note_on,,,,,5,0,2,,,,,0,,,60,38
125400,note_on,,,,,0,0,2,,,,,0,,,63,38
125410,set_tempo,,,,,30,1,0,,666666,,,,,,,
125440,set_tempo,,,,,30,1,0,,662983,,,,,,,
125450,set_tempo,,,,,10,1,0,,659340,,,,,,,
125460,note_on,,,,,0,0,1,,,,,0,,,72,43
125460,note_on,,,,,60,0,1,,,,,0,,,75,0
125460,note_on,,,,,0,0,1,,,,,0,,,72,0
125460,note_on,,,,,0,0,1,,,,,0,,,69,43
125460,control_change,,,,,0,0,1,,,,,0,64,96,,
125460,note_on,,,,,0,0,2,,,,,0,,,60,0
125460,note_on,,,,,0,0,2,,,,,0,,,50,44
125460,note_on,,,,,60,0,2,,,,,0,,,63,0
125480,set_tempo,,,,,30,1,0,,655737,,,,,,,
125500,set_tempo,,,,,20,1,0,,652173,,,,,,,
125520,note_on,,,,,60,0,2,,,,,0,,,50,0
125550,note_on,,,,,30,0,2,,,,,0,,,60,37
125550,note_on,,,,,0,0,2,,,,,0,,,57,37
125575,note_on,,,,,0,0,2,,,,,0,,,60,0
125575,note_on,,,,,25,0,2,,,,,0,,,57,0
125580,note_on,,,,,0,0,2,,,,,0,,,57,37
125580,note_on,,,,,5,0,2,,,,,0,,,60,37
125580,control_change,,,,,120,0,1,,,,,0,64,0,,
125620,set_tempo,,,,,120,1,0,,655737,,,,,,,
125640,note_on,,,,,0,0,2,,,,,0,,,50,33
125640,note_on,,,,,0,0,1,,,,,0,,,69,0
125640,control_change,,,,,0,0,1,,,,,0,64,95,,
125640,note_on,,,,,0,0,1,,,,,0,,,66,36
125640,note_on,,,,,60,0,2,,,,,0,,,57,0
125640,note_on,,,,,0,0,2,,,,,0,,,60,0
125640,note_on,,,,,0,0,2,,,,,0,,,57,33
125640,note_on,,,,,0,0,2,,,,,0,,,54,33
125640,note_on,,,,,60,0,1,,,,,0,,,72,0
125640,note_on,,,,,0,0,1,,,,,0,,,69,36
125650,set_tempo,,,,,30,1,0,,659340,,,,,,,
125660,set_tempo,,,,,10,1,0,,662983,,,,,,,
125699,note_on,,,,,0,0,1,,,,,0,,,69,0
125699,note_on,,,,,0,0,2,,,,,0,,,57,0
125699,note_on,,,,,0,0,2,,,,,0,,,54,0
125699,note_on,,,,,59,0,2,,,,,0,,,50,0
125699,note_on,,,,,59,0,1,,,,,0,,,66,0
125700,note_on,,,,,1,0,1,,,,,0,,,70,41
125700,note_on,,,,,0,0,1,,,,,0,,,67,41
125700,set_tempo,,,,,40,1,0,,666666,,,,,,,
125700,note_on,,,,,1,0,2,,,,,0,,,55,38
125700,note_on,,,,,0,0,2,,,,,0,,,50,38
125700,note_on,,,,,0,0,2,,,,,0,,,58,38
125705,set_tempo,,,,,5,1,0,,670391,,,,,,,
125730,set_tempo,,,,,25,1,0,,677966,,,,,,,
125740,set_tempo,,,,,10,1,0,,681818,,,,,,,
125755,note_on,,,,,0,0,2,,,,,0,,,50,0
125755,note_on,,,,,0,0,2,,,,,0,,,55,0
125755,set_tempo,,,,,15,1,0,,685714,,,,,,,
125755,note_on,,,,,55,0,1,,,,,0,,,67,0
125755,note_on,,,,,55,0,2,,,,,0,,,58,0
125755,note_on,,,,,0,0,1,,,,,0,,,70,0
125760,note_on,,,,,5,0,1,,,,,0,,,69,46
125760,note_on,,,,,0,0,1,,,,,0,,,72,46
125760,note_on,,,,,0,0,2,,,,,0,,,57,45
125760,note_on,,,,,0,0,2,,,,,0,,,60,45
125760,note_on,,,,,5,0,2,,,,,0,,,50,45
125765,set_tempo,,,,,10,1,0,,689655,,,,,,,
125780,set_tempo,,,,,15,1,0,,693641,,,,,,,
125815,note_on,,,,,0,0,2,,,,,0,,,50,0
125815,note_on,,,,,0,0,2,,,,,0,,,60,0
125815,note_on,,,,,55,0,2,,,,,0,,,57,0
125815,note_on,,,,,55,0,1,,,,,0,,,72,0
125815,note_on,,,,,0,0,1,,,,,0,,,69,0
125815,set_tempo,,,,,35,1,0,,697674,,,,,,,
125815,control_change,,,,,0,0,1,,,,,0,64,0,,
125820,control_change,,,,,0,0,1,,,,,0,64,96,,
125820,note_on,,,,,0,0,2,,,,,0,,,60,46
125820,note_on,,,,,0,0,2,,,,,0,,,57,46
125820,note_on,,,,,5,0,2,,,,,0,,,50,46
125820,note_on,,,,,5,0,1,,,,,0,,,69,47
125820,note_on,,,,,0,0,1,,,,,0,,,72,47
125825,set_tempo,,,,,10,1,0,,701754,,,,,,,
125875,note_on,,,,,55,0,2,,,,,0,,,60,0
125875,note_on,,,,,0,0,2,,,,,0,,,50,0
125875,note_on,,,,,0,0,1,,,,,0,,,69,0
125875,note_on,,,,,55,0,1,,,,,0,,,72,0
125875,note_on,,,,,0,0,2,,,,,0,,,57,0
125880,note_on,,,,,5,0,2,,,,,0,,,55,41
125880,note_on,,,,,0,0,2,,,,,0,,,58,41
125880,note_on,,,,,0,0,1,,,,,0,,,67,40
125880,note_on,,,,,0,0,2,,,,,0,,,50,41
125880,note_on,,,,,5,0,1,,,,,0,,,70,40
125935,note_on,,,,,0,0,2,,,,,0,,,55,0
125935,note_on,,,,,0,0,1,,,,,0,,,70,0
125935,note_on,,,,,55,0,1,,,,,0,,,67,0
125935,note_on,,,,,0,0,2,,,,,0,,,50,0
125935,note_on,,,,,55,0,2,,,,,0,,,58,0
125940,note_on,,,,,0,0,1,,,,,0,,,66,37
125940,note_on,,,,,0,0,2,,,,,0,,,50,37
125940,note_on,,,,,5,0,1,,,,,0,,,69,37
125940,note_on,,,,,5,0,2,,,,,0,,,57,37
125940,note_on,,,,,0,0,2,,,,,0,,,54,37
125985,control_change,,,,,45,0,1,,,,,0,64,0,,
125985,set_tempo,,,,,160,1,0,,681818,,,,,,,
125990,set_tempo,,,,,5,1,0,,677966,,,,,,,
125995,note_on,,,,,55,0,2,,,,,0,,,50,0
125995,note_on,,,,,0,0,2,,,,,0,,,54,0
125995,note_on,,,,,0,0,2,,,,,0,,,57,0
125995,set_tempo,,,,,5,1,0,,670391,,,,,,,
125995,note_on,,,,,10,0,1,,,,,0,,,66,0
125995,note_on,,,,,0,0,1,,,,,0,,,69,0
126000,note_on,,,,,5,0,2,,,,,0,,,50,41
126000,control_change,,,,,0,0,1,,,,,0,64,97,,
126000,note_on,,,,,5,0,1,,,,,0,,,70,41
126000,note_on,,,,,0,0,1,,,,,0,,,74,41
126020,set_tempo,,,,,25,1,0,,659340,,,,,,,
126030,set_tempo,,,,,10,1,0,,662983,,,,,,,
126045,set_tempo,,,,,15,1,0,,666666,,,,,,,
126060,note_on,,,,,60,0,2,,,,,0,,,50,0
126090,note_on,,,,,30,0,2,,,,,0,,,62,36
126090,note_on,,,,,0,0,2,,,,,0,,,58,36
126100,set_tempo,,,,,55,1,0,,670391,,,,,,,
126115,note_on,,,,,0,0,2,,,,,0,,,62,0
126115,note_on,,,,,25,0,2,,,,,0,,,58,0
126120,control_change,,,,,120,0,1,,,,,0,64,0,,
126120,note_on,,,,,0,0,2,,,,,0,,,58,39
126120,note_on,,,,,5,0,2,,,,,0,,,62,39
126130,set_tempo,,,,,30,1,0,,666666,,,,,,,
126160,set_tempo,,,,,30,1,0,,662983,,,,,,,
126170,set_tempo,,,,,10,1,0,,659340,,,,,,,
126180,note_on,,,,,0,0,1,,,,,0,,,70,0
126180,note_on,,,,,0,0,1,,,,,0,,,67,40
126180,note_on,,,,,0,0,1,,,,,0,,,70,40
126180,note_on,,,,,60,0,1,,,,,0,,,74,0
126180,control_change,,,,,0,0,1,,,,,0,64,96,,
126180,note_on,,,,,60,0,2,,,,,0,,,58,0
126180,note_on,,,,,0,0,2,,,,,0,,,62,0
126180,note_on,,,,,0,0,2,,,,,0,,,50,40
126200,set_tempo,,,,,30,1,0,,655737,,,,,,,
126220,set_tempo,,,,,20,1,0,,652173,,,,,,,
126240,note_on,,,,,60,0,2,,,,,0,,,50,0
126270,note_on,,,,,0,0,2,,,,,0,,,55,36
126270,note_on,,,,,30,0,2,,,,,0,,,58,36
126295,note_on,,,,,0,0,2,,,,,0,,,58,0
126295,note_on,,,,,25,0,2,,,,,0,,,55,0
126300,control_change,,,,,120,0,1,,,,,0,64,0,,
126300,note_on,,,,,0,0,2,,,,,0,,,55,37
126300,note_on,,,,,5,0,2,,,,,0,,,58,37
126330,set_tempo,,,,,110,1,0,,659340,,,,,,,
126340,set_tempo,,,,,10,1,0,,655737,,,,,,,
126345,set_tempo,,,,,5,1,0,,652173,,,,,,,
126355,set_tempo,,,,,10,1,0,,662983,,,,,,,
126360,note_on,,,,,60,0,1,,,,,0,,,70,0
126360,note_on,,,,,0,0,1,,,,,0,,,67,0
126360,control_change,,,,,0,0,1,,,,,0,64,96,,
126360,note_on,,,,,0,0,1,,,,,0,,,67,33
126360,note_on,,,,,0,0,1,,,,,0,,,62,33
126360,note_on,,,,,60,0,2,,,,,0,,,55,0
126360,note_on,,,,,0,0,2,,,,,0,,,58,0
126360,note_on,,,,,0,0,2,,,,,0,,,55,34
126360,set_tempo,,,,,5,1,0,,670391,,,,,,,
126360,note_on,,,,,0,0,2,,,,,0,,,46,34
126370,set_tempo,,,,,10,1,0,,689655,,,,,,,
126419,note_on,,,,,59,0,2,,,,,0,,,46,0
126419,note_on,,,,,0,0,2,,,,,0,,,55,0
126419,note_on,,,,,59,0,1,,,,,0,,,67,0
126419,note_on,,,,,0,0,1,,,,,0,,,62,0
126420,note_on,,,,,0,0,2,,,,,0,,,50,37
126420,note_on,,,,,1,0,1,,,,,0,,,62,37
126420,note_on,,,,,0,0,1,,,,,0,,,66,37
126420,note_on,,,,,0,0,1,,,,,0,,,69,37
126420,note_on,,,,,1,0,2,,,,,0,,,57,37
126475,note_on,,,,,55,0,2,,,,,0,,,50,0
126475,note_on,,,,,0,0,1,,,,,0,,,62,0
126475,note_on,,,,,0,0,1,,,,,0,,,66,0
126475,note_on,,,,,55,0,1,,,,,0,,,69,0
126475,note_on,,,,,0,0,2,,,,,0,,,57,0
126480,note_on,,,,,0,0,1,,,,,0,,,67,42
126480,note_on,,,,,5,0,2,,,,,0,,,55,40
126480,note_on,,,,,0,0,2,,,,,0,,,58,40
126480,note_on,,,,,0,0,1,,,,,0,,,70,42
126480,note_on,,,,,5,0,1,,,,,0,,,62,42
126500,set_tempo,,,,,130,1,0,,693641,,,,,,,
126515,set_tempo,,,,,15,1,0,,697674,,,,,,,
126530,control_change,,,,,50,0,1,,,,,0,64,0,,
126530,set_tempo,,,,,15,1,0,,701754,,,,,,,
126535,note_on,,,,,5,0,1,,,,,0,,,70,0
126535,note_on,,,,,0,0,1,,,,,0,,,67,0
126535,note_on,,,,,0,0,1,,,,,0,,,62,0
126535,note_on,,,,,55,0,2,,,,,0,,,58,0
126535,note_on,,,,,0,0,2,,,,,0,,,55,0
126540,note_on,,,,,5,0,1,,,,,0,,,62,47
126540,note_on,,,,,0,0,1,,,,,0,,,67,47
126540,control_change,,,,,0,0,1,,,,,0,64,96,,
126540,note_on,,,,,0,0,2,,,,,0,,,58,42
126540,note_on,,,,,5,0,2,,,,,0,,,55,42
126540,note_on,,,,,0,0,1,,,,,0,,,70,47
126545,set_tempo,,,,,15,1,0,,705882,,,,,,,
126550,set_tempo,,,,,5,1,0,,710059,,,,,,,
126575,set_tempo,,,,,25,1,0,,714285,,,,,,,
126595,note_on,,,,,55,0,2,,,,,0,,,58,0
126595,note_on,,,,,0,0,2,,,,,0,,,55,0
126595,note_on,,,,,0,0,1,,,,,0,,,62,0
126595,note_on,,,,,0,0,1,,,,,0,,,67,0
126595,note_on,,,,,55,0,1,,,,,0,,,70,0
126600,note_on,,,,,5,0,1,,,,,0,,,62,43
126600,note_on,,,,,0,0,1,,,,,0,,,66,43
126600,note_on,,,,,0,0,1,,,,,0,,,69,43
126600,note_on,,,,,5,0,2,,,,,0,,,50,38
126600,note_on,,,,,0,0,2,,,,,0,,,57,38
126605,set_tempo,,,,,30,1,0,,718562,,,,,,,
126620,set_tempo,,,,,15,1,0,,722891,,,,,,,
126630,set_tempo,,,,,10,1,0,,727272,,,,,,,
126640,set_tempo,,,,,10,1,0,,731707,,,,,,,
126650,set_tempo,,,,,10,1,0,,740740,,,,,,,
126655,note_on,,,,,0,0,2,,,,,0,,,50,0
126655,note_on,,,,,55,0,2,,,,,0,,,57,0
126655,note_on,,,,,0,0,1,,,,,0,,,62,0
126655,note_on,,,,,0,0,1,,,,,0,,,66,0
126655,note_on,,,,,55,0,1,,,,,0,,,69,0
126660,note_on,,,,,0,0,1,,,,,0,,,67,38
126660,note_on,,,,,5,0,1,,,,,0,,,62,38
126660,note_on,,,,,0,0,2,,,,,0,,,46,35
126660,note_on,,,,,5,0,2,,,,,0,,,55,35
126665,set_tempo,,,,,15,1,0,,745341,,,,,,,
126675,set_tempo,,,,,10,1,0,,754716,,,,,,,
126680,set_tempo,,,,,5,1,0,,759493,,,,,,,
126685,set_tempo,,,,,5,1,0,,774193,,,,,,,
126690,set_tempo,,,,,5,1,0,,794701,,,,,,,
126715,note_on,,,,,0,0,1,,,,,0,,,62,0
126715,note_on,,,,,0,0,2,,,,,0,,,55,0
126715,note_on,,,,,55,0,2,,,,,0,,,46,0
126715,note_on,,,,,55,0,1,,,,,0,,,67,0
126715,control_change,,,,,0,0,1,,,,,0,64,0,,
126720,note_on,,,,,0,0,2,,,,,0,,,51,40
126720,note_on,,,,,5,0,1,,,,,0,,,67,42
126720,note_on,,,,,0,0,1,,,,,0,,,72,42
126720,control_change,,,,,0,0,1,,,,,0,64,96,,
126720,note_on,,,,,0,0,2,,,,,0,,,55,40
126720,note_on,,,,,5,0,2,,,,,0,,,60,40
126725,set_tempo,,,,,35,1,0,,851063,,,,,,,
126775,set_tempo,,,,,50,1,0,,750000,,,,,,,
126777,note_on,,,,,0,0,2,,,,,0,,,60,0
126777,note_on,,,,,57,0,2,,,,,0,,,51,0
126777,note_on,,,,,0,0,2,,,,,0,,,55,0
126780,note_on,,,,,3,0,2,,,,,0,,,60,33
126780,note_on,,,,,0,0,2,,,,,0,,,55,33
126780,note_on,,,,,0,0,2,,,,,0,,,51,33
126790,set_tempo,,,,,15,1,0,,754716,,,,,,,
126795,set_tempo,,,,,5,1,0,,759493,,,,,,,
126810,set_tempo,,,,,15,1,0,,764331,,,,,,,
126815,set_tempo,,,,,5,1,0,,769230,,,,,,,
126820,set_tempo,,,,,5,1,0,,774193,,,,,,,
126830,note_on,,,,,110,0,1,,,,,0,,,67,0
126832,note_on,,,,,52,0,2,,,,,0,,,51,0
126832,note_on,,,,,0,0,2,,,,,0,,,55,0
126832,note_on,,,,,0,0,2,,,,,0,,,60,0
126835,set_tempo,,,,,15,1,0,,779220,,,,,,,
126840,note_on,,,,,8,0,2,,,,,0,,,60,33
126840,note_on,,,,,0,0,2,,,,,0,,,55,33
126840,note_on,,,,,0,0,2,,,,,0,,,51,33
126840,note_on,,,,,10,0,1,,,,,0,,,72,0
126840,note_on,,,,,0,0,1,,,,,0,,,67,36
126850,set_tempo,,,,,15,1,0,,784313,,,,,,,
126860,set_tempo,,,,,10,1,0,,789473,,,,,,,
126885,set_tempo,,,,,25,1,0,,794701,,,,,,,
126888,note_on,,,,,48,0,2,,,,,0,,,51,0
126888,note_on,,,,,0,0,2,,,,,0,,,55,0
126888,note_on,,,,,0,0,2,,,,,0,,,60,0
126888,note_on,,,,,48,0,1,,,,,0,,,67,0
126890,control_change,,,,,2,0,1,,,,,0,64,0,,
126900,note_on,,,,,12,0,2,,,,,0,,,61,40
126900,note_on,,,,,0,0,2,,,,,0,,,55,40
126900,note_on,,,,,0,0,2,,,,,0,,,51,40
126900,note_on,,,,,10,0,1,,,,,0,,,67,36
126900,control_change,,,,,0,0,1,,,,,0,64,96,,
126915,set_tempo,,,,,30,1,0,,800000,,,,,,,
126955,set_tempo,,,,,40,1,0,,805369,,,,,,,
126960,note_on,,,,,60,0,2,,,,,0,,,51,0
126960,note_on,,,,,0,0,2,,,,,0,,,55,0
126960,note_on,,,,,0,0,2,,,,,0,,,61,0
126960,note_on,,,,,0,0,2,,,,,0,,,61,36
126960,note_on,,,,,0,0,2,,,,,0,,,55,36
126960,note_on,,,,,0,0,2,,,,,0,,,51,36
126960,note_on,,,,,60,0,1,,,,,0,,,67,0
126960,note_on,,,,,0,0,1,,,,,0,,,69,39
126970,set_tempo,,,,,15,1,0,,810810,,,,,,,
127005,set_tempo,,,,,35,1,0,,816326,,,,,,,
127020,note_on,,,,,0,0,2,,,,,0,,,51,42
127020,note_on,,,,,60,0,2,,,,,0,,,51,0
127020,note_on,,,,,0,0,2,,,,,0,,,55,0
127020,note_on,,,,,0,0,2,,,,,0,,,61,0
127020,note_on,,,,,0,0,1,,,,,0,,,67,41
127020,note_on,,,,,0,0,2,,,,,0,,,55,42
127020,note_on,,,,,0,0,2,,,,,0,,,61,42
127020,note_on,,,,,60,0,1,,,,,0,,,69,0
127030,set_tempo,,,,,25,1,0,,821917,,,,,,,
127035,set_tempo,,,,,5,1,0,,827586,,,,,,,
127050,set_tempo,,,,,15,1,0,,833333,,,,,,,
127065,set_tempo,,,,,15,1,0,,839160,,,,,,,
127068,note_on,,,,,48,0,1,,,,,0,,,67,0
127068,note_on,,,,,0,0,2,,,,,0,,,61,0
127068,note_on,,,,,0,0,2,,,,,0,,,55,0
127068,note_on,,,,,48,0,2,,,,,0,,,51,0
127075,control_change,,,,,7,0,1,,,,,0,64,0,,
127075,set_tempo,,,,,10,1,0,,863309,,,,,,,
127080,note_on,,,,,5,0,1,,,,,0,,,70,44
127080,note_on,,,,,0,0,1,,,,,0,,,67,44
127080,control_change,,,,,0,0,1,,,,,0,64,95,,
127080,note_on,,,,,0,0,2,,,,,0,,,50,43
127080,note_on,,,,,0,0,2,,,,,0,,,55,43
127080,note_on,,,,,0,0,2,,,,,0,,,58,43
127080,note_on,,,,,12,0,2,,,,,0,,,62,43
127155,set_tempo,,,,,80,1,0,,750000,,,,,,,
127240,set_tempo,,,,,85,1,0,,851063,,,,,,,
127260,note_on,,,,,180,0,2,,,,,0,,,55,0
127260,note_on,,,,,0,0,2,,,,,0,,,57,29
127260,note_on,,,,,0,0,2,,,,,0,,,54,29
127260,note_on,,,,,0,0,2,,,,,0,,,58,0
127260,note_on,,,,,180,0,1,,,,,0,,,67,0
127260,note_on,,,,,0,0,1,,,,,0,,,70,0
127260,note_on,,,,,0,0,1,,,,,0,,,69,30
127290,set_tempo,,,,,50,1,0,,1188118,,,,,,,
127308,note_on,,,,,48,0,1,,,,,0,,,69,0
127308,note_on,,,,,48,0,2,,,,,0,,,57,0
127308,note_on,,,,,0,0,2,,,,,0,,,54,0
127320,set_tempo,,,,,30,1,0,,857142,,,,,,,
127320,note_on,,,,,12,0,2,,,,,0,,,62,0
127320,note_on,,,,,0,0,2,,,,,0,,,50,0
127330,set_tempo,,,,,10,1,0,,827586,,,,,,,
127335,set_tempo,,,,,5,1,0,,810810,,,,,,,
127345,set_tempo,,,,,10,1,0,,805369,,,,,,,
127350,set_tempo,,,,,5,1,0,,800000,,,,,,,
127365,control_change,,,,,57,0,1,,,,,0,64,0,,
127380,note_on,,,,,60,0,2,,,,,0,,,57,38
127380,set_tempo,,,,,30,1,0,,784313,,,,,,,
127385,set_tempo,,,,,5,1,0,,779220,,,,,,,
127390,set_tempo,,,,,5,1,0,,769230,,,,,,,
127410,set_tempo,,,,,20,1,0,,779220,,,,,,,
127430,note_on,,,,,50,0,2,,,,,0,,,57,0
127440,note_on,,,,,0,0,2,,,,,0,,,57,38
127440,note_on,,,,,10,0,2,,,,,0,,,51,38
127440,set_tempo,,,,,30,1,0,,769230,,,,,,,
127440,control_change,,,,,0,0,1,,,,,0,64,95,,
127440,note_on,,,,,0,0,1,,,,,0,,,61,35
127440,note_on,,,,,0,0,1,,,,,0,,,67,35
127440,note_on,,,,,75,0,1,,,,,0,,,69,35
127450,set_tempo,,,,,10,1,0,,740740,,,,,,,
127460,set_tempo,,,,,10,1,0,,718562,,,,,,,
127470,set_tempo,,,,,10,1,0,,722891,,,,,,,
127490,note_on,,,,,50,0,2,,,,,0,,,57,0
127500,note_on,,,,,10,0,2,,,,,0,,,57,28
127510,set_tempo,,,,,40,1,0,,727272,,,,,,,
127525,set_tempo,,,,,15,1,0,,731707,,,,,,,
127550,note_on,,,,,50,0,2,,,,,0,,,57,0
127560,note_on,,,,,10,0,2,,,,,0,,,57,26
127565,set_tempo,,,,,40,1,0,,736196,,,,,,,
127600,set_tempo,,,,,35,1,0,,740740,,,,,,,
127610,note_on,,,,,50,0,2,,,,,0,,,57,0
127620,note_on,,,,,10,0,2,,,,,0,,,57,26
127645,set_tempo,,,,,45,1,0,,745341,,,,,,,
127655,set_tempo,,,,,10,1,0,,750000,,,,,,,
127670,note_on,,,,,50,0,2,,,,,0,,,57,0
127680,note_on,,,,,10,0,2,,,,,0,,,57,26
127715,set_tempo,,,,,60,1,0,,754716,,,,,,,
127730,note_on,,,,,50,0,2,,,,,0,,,57,0
127740,note_on,,,,,10,0,2,,,,,0,,,57,26
127755,set_tempo,,,,,40,1,0,,759493,,,,,,,
127760,note_on,,,,,320,0,1,,,,,0,,,69,0
127770,control_change,,,,,0,0,1,,,,,0,64,0,,
127770,note_on,,,,,10,0,1,,,,,0,,,69,33
127790,note_on,,,,,50,0,2,,,,,0,,,57,0
127798,note_on,,,,,28,0,1,,,,,0,,,69,0
127800,note_on,,,,,0,0,1,,,,,0,,,66,33
127800,note_on,,,,,0,0,1,,,,,0,,,62,33
127800,note_on,,,,,0,0,1,,,,,0,,,69,33
127800,note_on,,,,,0,0,1,,,,,0,,,67,0
127800,note_on,,,,,2,0,1,,,,,0,,,61,0
127800,note_on,,,,,0,0,2,,,,,0,,,57,36
127800,control_change,,,,,0,0,1,,,,,0,64,95,,
127800,note_on,,,,,10,0,2,,,,,0,,,51,0
127800,note_on,,,,,0,0,2,,,,,0,,,50,36
127825,set_tempo,,,,,70,1,0,,764331,,,,,,,
127850,note_on,,,,,50,0,2,,,,,0,,,57,0
127860,note_on,,,,,10,0,2,,,,,0,,,57,30
127875,set_tempo,,,,,50,1,0,,769230,,,,,,,
127910,note_on,,,,,50,0,2,,,,,0,,,57,0
127915,set_tempo,,,,,40,1,0,,779220,,,,,,,
127920,note_on,,,,,10,0,2,,,,,0,,,57,28
127970,note_on,,,,,50,0,2,,,,,0,,,57,0
127980,note_on,,,,,10,0,2,,,,,0,,,57,26
127985,set_tempo,,,,,70,1,0,,789473,,,,,,,
128025,set_tempo,,,,,40,1,0,,794701,,,,,,,
128030,note_on,,,,,50,0,2,,,,,0,,,57,0
128040,note_on,,,,,10,0,2,,,,,0,,,57,26
128045,set_tempo,,,,,20,1,0,,800000,,,,,,,
128090,note_on,,,,,50,0,2,,,,,0,,,57,0
128100,note_on,,,,,10,0,2,,,,,0,,,57,26
128120,note_on,,,,,320,0,1,,,,,0,,,69,0
128120,set_tempo,,,,,75,1,0,,810810,,,,,,,
128130,note_on,,,,,10,0,1,,,,,0,,,69,30
128130,control_change,,,,,0,0,1,,,,,0,64,0,,
128150,note_on,,,,,50,0,2,,,,,0,,,57,0
128150,note_on,,,,,0,0,2,,,,,0,,,50,0
128150,note_on,,,,,0,0,1,,,,,0,,,62,0
128150,note_on,,,,,20,0,1,,,,,0,,,66,0
128158,note_on,,,,,8,0,1,,,,,0,,,69,0
128160,note_on,,,,,0,0,2,,,,,0,,,51,34
128160,note_on,,,,,10,0,2,,,,,0,,,57,34
128160,set_tempo,,,,,40,1,0,,816326,,,,,,,
128160,control_change,,,,,0,0,1,,,,,0,64,95,,
128160,note_on,,,,,0,0,1,,,,,0,,,61,30
128160,note_on,,,,,0,0,1,,,,,0,,,67,30
128160,note_on,,,,,2,0,1,,,,,0,,,69,30
128180,set_tempo,,,,,20,1,0,,821917,,,,,,,
128210,note_on,,,,,50,0,2,,,,,0,,,57,0
128220,note_on,,,,,10,0,2,,,,,0,,,57,28
128240,set_tempo,,,,,60,1,0,,827586,,,,,,,
128270,note_on,,,,,50,0,2,,,,,0,,,57,0
128280,note_on,,,,,10,0,2,,,,,0,,,57,27
128290,set_tempo,,,,,50,1,0,,833333,,,,,,,
128330,note_on,,,,,50,0,2,,,,,0,,,57,0
128340,note_on,,,,,10,0,2,,,,,0,,,57,25
128350,set_tempo,,,,,60,1,0,,845070,,,,,,,
128390,note_on,,,,,50,0,2,,,,,0,,,57,0
128400,note_on,,,,,10,0,2,,,,,0,,,57,24
128425,set_tempo,,,,,75,1,0,,869565,,,,,,,
128450,note_on,,,,,50,0,2,,,,,0,,,57,0
128460,note_on,,,,,10,0,2,,,,,0,,,57,22
128465,set_tempo,,,,,40,1,0,,895522,,,,,,,
128480,note_on,,,,,320,0,1,,,,,0,,,69,0
128490,note_on,,,,,10,0,1,,,,,0,,,69,27
128490,control_change,,,,,0,0,1,,,,,0,64,0,,
128505,set_tempo,,,,,40,1,0,,944881,,,,,,,
128510,note_on,,,,,50,0,2,,,,,0,,,57,0
128518,note_on,,,,,28,0,1,,,,,0,,,69,0
128520,note_on,,,,,0,0,2,,,,,0,,,50,26
128520,note_on,,,,,0,0,1,,,,,0,,,67,0
128520,note_on,,,,,0,0,1,,,,,0,,,69,27
128520,note_on,,,,,0,0,1,,,,,0,,,66,27
128520,note_on,,,,,0,0,1,,,,,0,,,62,27
128520,control_change,,,,,0,0,1,,,,,0,64,95,,
128520,note_on,,,,,2,0,1,,,,,0,,,61,0
128520,set_tempo,,,,,15,1,0,,1200000,,,,,,,
128520,note_on,,,,,0,0,2,,,,,0,,,57,26
128520,note_on,,,,,10,0,2,,,,,0,,,51,0
128560,control_change,,,,,40,0,1,,,,,0,64,0,,
128565,note_on,,,,,0,0,2,,,,,0,,,50,0
128565,note_on,,,,,0,0,1,,,,,0,,,69,0
128565,note_on,,,,,0,0,1,,,,,0,,,66,0
128565,note_on,,,,,5,0,1,,,,,0,,,62,0
128565,set_tempo,,,,,45,1,0,,952380,,,,,,,
128565,note_on,,,,,45,0,2,,,,,0,,,57,0
128580,note_on,,,,,15,0,2,,,,,0,,,50,30
128580,note_on,,,,,15,0,1,,,,,0,,,62,28
128580,set_tempo,,,,,15,1,0,,895522,,,,,,,
128615,set_tempo,,,,,35,1,0,,869565,,,,,,,
128630,note_on,,,,,50,0,1,,,,,0,,,62,0
128630,note_on,,,,,50,0,2,,,,,0,,,50,0
128640,note_on,,,,,0,0,2,,,,,0,,,50,33
128640,note_on,,,,,10,0,1,,,,,0,,,62,31
128640,note_on,,,,,10,0,2,,,,,0,,,48,33
128690,note_on,,,,,50,0,1,,,,,0,,,62,0
128690,set_tempo,,,,,75,1,0,,851063,,,,,,,
128690,note_on,,,,,0,0,2,,,,,0,,,48,0
128690,note_on,,,,,50,0,2,,,,,0,,,50,0
128700,note_on,,,,,10,0,2,,,,,0,,,47,43
128700,note_on,,,,,0,0,2,,,,,0,,,50,43
128700,note_on,,,,,10,0,1,,,,,0,,,62,36
128700,set_tempo,,,,,10,1,0,,845070,,,,,,,
128710,set_tempo,,,,,10,1,0,,839160,,,,,,,
128715,set_tempo,,,,,5,1,0,,833333,,,,,,,
128730,set_tempo,,,,,15,1,0,,827586,,,,,,,
128735,set_tempo,,,,,5,1,0,,821917,,,,,,,
128750,set_tempo,,,,,15,1,0,,816326,,,,,,,
128755,set_tempo,,,,,5,1,0,,810810,,,,,,,
128757,note_on,,,,,57,0,1,,,,,0,,,62,0
128757,note_on,,,,,0,0,2,,,,,0,,,47,0
128757,note_on,,,,,57,0,2,,,,,0,,,50,0
128760,note_on,,,,,0,0,2,,,,,0,,,50,46
128760,set_tempo,,,,,5,1,0,,805369,,,,,,,
128760,note_on,,,,,3,0,1,,,,,0,,,62,46
128760,note_on,,,,,3,0,2,,,,,0,,,45,46
128770,set_tempo,,,,,10,1,0,,800000,,,,,,,
128785,set_tempo,,,,,15,1,0,,794701,,,,,,,
128790,set_tempo,,,,,5,1,0,,789473,,,,,,,
128814,note_on,,,,,0,0,2,,,,,0,,,45,0
128814,note_on,,,,,54,0,1,,,,,0,,,62,0
128814,note_on,,,,,54,0,2,,,,,0,,,50,0
128820,note_on,,,,,6,0,2,,,,,0,,,43,49
128820,note_on,,,,,0,0,2,,,,,0,,,50,49
128820,note_on,,,,,6,0,1,,,,,0,,,62,49
128840,set_tempo,,,,,50,1,0,,800000,,,,,,,
128850,set_tempo,,,,,10,1,0,,833333,,,,,,,
128870,set_tempo,,,,,20,1,0,,1034482,,,,,,,
128871,note_on,,,,,0,0,2,,,,,0,,,43,0
128871,note_on,,,,,51,0,2,,,,,0,,,50,0
128871,note_on,,,,,51,0,1,,,,,0,,,62,0
128880,note_on,,,,,0,0,2,,,,,0,,,50,43
128880,note_on,,,,,9,0,2,,,,,0,,,43,43
128880,marker,,,,,0,1,0,,,,,,,,,
128880,set_tempo,,,,,10,1,0,,769230,,,,,,,
128880,note_on,,,,,9,0,1,,,,,0,,,59,43
128880,note_on,,,,,0,0,1,,,,,0,,,67,43
128880,note_on,,,,,0,0,1,,,,,0,,,71,43
128880,control_change,,,,,0,0,1,,,,,0,64,96,,
128890,set_tempo,,,,,10,1,0,,754716,,,,,,,
129195,note_on,,,,,0,0,2,,,,,0,,,43,0
129195,note_on,,,,,315,0,2,,,,,0,,,50,0
129195,note_on,,,,,0,0,1,,,,,0,,,59,0
129195,note_on,,,,,0,0,1,,,,,0,,,67,0
129195,note_on,,,,,315,0,1,,,,,0,,,71,0
129210,note_on,,,,,15,0,1,,,,,0,,,60,39
129210,note_on,,,,,0,0,1,,,,,0,,,66,39
129210,note_on,,,,,0,0,1,,,,,0,,,69,39
129210,control_change,,,,,0,0,1,,,,,0,64,0,,
129210,note_on,,,,,15,0,2,,,,,0,,,43,47
129210,note_on,,,,,0,0,2,,,,,0,,,50,47
129235,note_on,,,,,0,0,1,,,,,0,,,66,0
129235,note_on,,,,,25,0,1,,,,,0,,,69,0
129235,note_on,,,,,25,0,2,,,,,0,,,50,0
129235,note_on,,,,,0,0,2,,,,,0,,,43,0
129235,note_on,,,,,0,0,1,,,,,0,,,60,0
129240,note_on,,,,,0,0,1,,,,,0,,,71,46
129240,note_on,,,,,0,0,1,,,,,0,,,67,46
129240,note_on,,,,,0,0,2,,,,,0,,,50,53
129240,note_on,,,,,5,0,1,,,,,0,,,59,46
129240,control_change,,,,,0,0,1,,,,,0,64,95,,
129240,note_on,,,,,5,0,2,,,,,0,,,43,53
129555,note_on,,,,,315,0,2,,,,,0,,,50,0
129555,note_on,,,,,0,0,2,,,,,0,,,43,0
129555,note_on,,,,,315,0,1,,,,,0,,,71,0
129555,note_on,,,,,0,0,1,,,,,0,,,67,0
129555,note_on,,,,,0,0,1,,,,,0,,,59,0
129570,note_on,,,,,15,0,2,,,,,0,,,43,46
129570,note_on,,,,,0,0,2,,,,,0,,,50,46
129570,note_on,,,,,15,0,1,,,,,0,,,60,40
129570,note_on,,,,,0,0,1,,,,,0,,,66,40
129570,note_on,,,,,0,0,1,,,,,0,,,69,40
129570,control_change,,,,,0,0,1,,,,,0,64,0,,
129595,note_on,,,,,25,0,2,,,,,0,,,50,0
129595,note_on,,,,,0,0,2,,,,,0,,,43,0
129595,note_on,,,,,0,0,1,,,,,0,,,60,0
129595,note_on,,,,,25,0,1,,,,,0,,,69,0
129595,note_on,,,,,0,0,1,,,,,0,,,66,0
129600,note_on,,,,,0,0,1,,,,,0,,,71,51
129600,control_change,,,,,0,0,1,,,,,0,64,96,,
129600,note_on,,,,,0,0,2,,,,,0,,,50,53
129600,note_on,,,,,5,0,2,,,,,0,,,43,53
129600,note_on,,,,,5,0,1,,,,,0,,,59,51
129600,note_on,,,,,0,0,1,,,,,0,,,67,51
129630,set_tempo,,,,,740,1,0,,740740,,,,,,,
129652,note_on,,,,,52,0,1,,,,,0,,,71,0
129652,note_on,,,,,0,0,1,,,,,0,,,67,0
129652,note_on,,,,,0,0,1,,,,,0,,,59,0
129652,note_on,,,,,0,0,2,,,,,0,,,43,0
129652,note_on,,,,,52,0,2,,,,,0,,,50,0
129660,note_on,,,,,0,0,2,,,,,0,,,50,57
129660,note_on,,,,,8,0,1,,,,,0,,,60,55
129660,note_on,,,,,0,0,1,,,,,0,,,69,55
129660,note_on,,,,,0,0,1,,,,,0,,,72,55
129660,note_on,,,,,8,0,2,,,,,0,,,43,57
129700,set_tempo,,,,,70,1,0,,727272,,,,,,,
129712,note_on,,,,,0,0,1,,,,,0,,,69,0
129712,note_on,,,,,0,0,2,,,,,0,,,43,0
129712,note_on,,,,,52,0,1,,,,,0,,,72,0
129712,note_on,,,,,52,0,2,,,,,0,,,50,0
129712,note_on,,,,,0,0,1,,,,,0,,,60,0
129720,note_on,,,,,8,0,2,,,,,0,,,43,61
129720,note_on,,,,,0,0,2,,,,,0,,,50,61
129720,note_on,,,,,8,0,1,,,,,0,,,62,61
129720,note_on,,,,,0,0,1,,,,,0,,,71,61
129720,note_on,,,,,0,0,1,,,,,0,,,74,61
129772,note_on,,,,,52,0,2,,,,,0,,,50,0
129772,note_on,,,,,0,0,2,,,,,0,,,43,0
129772,note_on,,,,,0,0,1,,,,,0,,,62,0
129772,note_on,,,,,0,0,1,,,,,0,,,71,0
129772,note_on,,,,,52,0,1,,,,,0,,,74,0
129778,control_change,,,,,6,0,1,,,,,0,64,0,,
129780,note_on,,,,,8,0,2,,,,,0,,,38,64
129780,control_change,,,,,0,0,1,,,,,0,64,96,,
129780,note_on,,,,,0,0,1,,,,,0,,,62,65
129780,note_on,,,,,0,0,2,,,,,0,,,50,64
129780,note_on,,,,,2,0,1,,,,,0,,,66,65
129780,note_on,,,,,0,0,1,,,,,0,,,74,65
129790,set_tempo,,,,,90,1,0,,714285,,,,,,,
129832,note_on,,,,,0,0,2,,,,,0,,,38,0
129832,note_on,,,,,52,0,1,,,,,0,,,62,0
129832,note_on,,,,,52,0,2,,,,,0,,,50,0
129837,note_on,,,,,5,0,1,,,,,0,,,74,0
129837,note_on,,,,,0,0,1,,,,,0,,,66,0
129840,note_on,,,,,8,0,2,,,,,0,,,38,57
129840,note_on,,,,,3,0,1,,,,,0,,,60,53
129840,note_on,,,,,0,0,2,,,,,0,,,50,57
129840,note_on,,,,,0,0,1,,,,,0,,,66,53
129840,note_on,,,,,0,0,1,,,,,0,,,72,53
129840,set_tempo,,,,,50,1,0,,722891,,,,,,,
129880,set_tempo,,,,,40,1,0,,736196,,,,,,,
129892,note_on,,,,,52,0,1,,,,,0,,,72,0
129892,note_on,,,,,0,0,1,,,,,0,,,66,0
129897,note_on,,,,,5,0,1,,,,,0,,,60,0
129897,note_on,,,,,0,0,2,,,,,0,,,38,0
129897,note_on,,,,,57,0,2,,,,,0,,,50,0
129900,note_on,,,,,0,0,1,,,,,0,,,72,50
129900,note_on,,,,,0,0,1,,,,,0,,,66,50
129900,note_on,,,,,3,0,1,,,,,0,,,60,50
129900,note_on,,,,,0,0,2,,,,,0,,,50,52
129900,note_on,,,,,3,0,2,,,,,0,,,38,52
129910,set_tempo,,,,,30,1,0,,750000,,,,,,,
129940,set_tempo,,,,,30,1,0,,779220,,,,,,,
129952,note_on,,,,,0,0,1,,,,,0,,,66,0
129952,note_on,,,,,52,0,1,,,,,0,,,72,0
129952,note_on,,,,,0,0,1,,,,,0,,,60,0
129957,note_on,,,,,0,0,2,,,,,0,,,38,0
129957,note_on,,,,,57,0,2,,,,,0,,,50,0
129958,control_change,,,,,6,0,1,,,,,0,64,0,,
129960,control_change,,,,,0,0,1,,,,,0,64,95,,
129960,note_on,,,,,0,0,1,,,,,0,,,67,44
129960,note_on,,,,,0,0,2,,,,,0,,,50,42
129960,note_on,,,,,3,0,2,,,,,0,,,43,42
129960,note_on,,,,,0,0,1,,,,,0,,,71,44
129960,note_on,,,,,2,0,1,,,,,0,,,59,44
130012,note_on,,,,,0,0,2,,,,,0,,,43,0
130012,note_on,,,,,52,0,2,,,,,0,,,50,0
130012,note_on,,,,,0,0,1,,,,,0,,,59,0
130012,note_on,,,,,0,0,1,,,,,0,,,67,0
130012,note_on,,,,,52,0,1,,,,,0,,,71,0
130020,set_tempo,,,,,80,1,0,,779220,,,,,,,
130030,set_tempo,,,,,10,1,0,,759493,,,,,,,
130060,set_tempo,,,,,30,1,0,,764331,,,,,,,
130070,set_tempo,,,,,10,1,0,,759493,,,,,,,
130100,set_tempo,,,,,30,1,0,,750000,,,,,,,
130110,set_tempo,,,,,10,1,0,,745341,,,,,,,
130120,set_tempo,,,,,10,1,0,,750000,,,,,,,
130140,control_change,,,,,128,0,1,,,,,0,64,0,,
130140,set_tempo,,,,,20,1,0,,754716,,,,,,,
130160,set_tempo,,,,,20,1,0,,769230,,,,,,,
130180,set_tempo,,,,,20,1,0,,779220,,,,,,,
130200,set_tempo,,,,,20,1,0,,789473,,,,,,,
130220,set_tempo,,,,,20,1,0,,794701,,,,,,,
130230,set_tempo,,,,,10,1,0,,805369,,,,,,,
130250,set_tempo,,,,,20,1,0,,810810,,,,,,,
130270,set_tempo,,,,,20,1,0,,816326,,,,,,,
130310,set_tempo,,,,,40,1,0,,740740,,,,,,,
130320,control_change,,,,,0,0,1,,,,,0,64,96,,
130320,note_on,,,,,0,0,1,,,,,0,,,76,59
130320,note_on,,,,,0,0,1,,,,,0,,,72,59
130320,note_on,,,,,0,0,2,,,,,0,,,48,57
130320,note_on,,,,,308,0,2,,,,,0,,,36,57
130320,note_on,,,,,180,0,1,,,,,0,,,64,59
130330,set_tempo,,,,,20,1,0,,754716,,,,,,,
130635,note_on,,,,,0,0,1,,,,,0,,,64,0
130635,note_on,,,,,315,0,1,,,,,0,,,76,0
130635,note_on,,,,,315,0,2,,,,,0,,,48,0
130635,note_on,,,,,0,0,2,,,,,0,,,36,0
130635,note_on,,,,,0,0,1,,,,,0,,,72,0
130650,note_on,,,,,0,0,1,,,,,0,,,75,51
130650,control_change,,,,,0,0,1,,,,,0,64,0,,
130650,note_on,,,,,15,0,2,,,,,0,,,36,56
130650,note_on,,,,,0,0,2,,,,,0,,,48,56
130650,note_on,,,,,0,0,1,,,,,0,,,71,51
130650,note_on,,,,,15,0,1,,,,,0,,,63,51
130675,note_on,,,,,25,0,2,,,,,0,,,48,0
130675,note_on,,,,,25,0,1,,,,,0,,,75,0
130675,note_on,,,,,0,0,1,,,,,0,,,71,0
130675,note_on,,,,,0,0,1,,,,,0,,,63,0
130675,note_on,,,,,0,0,2,,,,,0,,,36,0
130680,note_on,,,,,5,0,1,,,,,0,,,64,54
130680,note_on,,,,,0,0,1,,,,,0,,,72,54
130680,note_on,,,,,0,0,1,,,,,0,,,76,54
130680,control_change,,,,,0,0,1,,,,,0,64,95,,
130680,note_on,,,,,5,0,2,,,,,0,,,36,59
130680,note_on,,,,,0,0,2,,,,,0,,,48,59
130995,note_on,,,,,315,0,1,,,,,0,,,76,0
130995,note_on,,,,,0,0,1,,,,,0,,,64,0
130995,note_on,,,,,0,0,1,,,,,0,,,72,0
130995,note_on,,,,,0,0,2,,,,,0,,,36,0
130995,note_on,,,,,315,0,2,,,,,0,,,48,0
131010,note_on,,,,,0,0,2,,,,,0,,,48,46
131010,note_on,,,,,15,0,2,,,,,0,,,36,46
131010,control_change,,,,,0,0,1,,,,,0,64,0,,
131010,note_on,,,,,0,0,1,,,,,0,,,75,40
131010,note_on,,,,,0,0,1,,,,,0,,,71,40
131010,note_on,,,,,15,0,1,,,,,0,,,63,40
131035,note_on,,,,,0,0,1,,,,,0,,,71,0
131035,note_on,,,,,25,0,1,,,,,0,,,75,0
131035,note_on,,,,,25,0,2,,,,,0,,,48,0
131035,note_on,,,,,0,0,2,,,,,0,,,36,0
131035,note_on,,,,,0,0,1,,,,,0,,,63,0
131040,note_on,,,,,0,0,1,,,,,0,,,64,51
131040,control_change,,,,,0,0,1,,,,,0,64,96,,
131040,note_on,,,,,0,0,1,,,,,0,,,76,51
131040,note_on,,,,,0,0,2,,,,,0,,,48,53
131040,note_on,,,,,5,0,2,,,,,0,,,36,53
131040,note_on,,,,,5,0,1,,,,,0,,,72,51
131070,set_tempo,,,,,740,1,0,,740740,,,,,,,
131092,note_on,,,,,52,0,2,,,,,0,,,48,0
131092,note_on,,,,,0,0,1,,,,,0,,,72,0
131092,note_on,,,,,0,0,1,,,,,0,,,64,0
131092,note_on,,,,,52,0,1,,,,,0,,,76,0
131092,note_on,,,,,0,0,2,,,,,0,,,36,0
131100,note_on,,,,,8,0,2,,,,,0,,,36,57
131100,note_on,,,,,0,0,2,,,,,0,,,48,57
131100,note_on,,,,,0,0,1,,,,,0,,,77,55
131100,note_on,,,,,0,0,1,,,,,0,,,65,55
131100,note_on,,,,,8,0,1,,,,,0,,,71,55
131140,set_tempo,,,,,70,1,0,,727272,,,,,,,
131152,note_on,,,,,0,0,1,,,,,0,,,65,0
131152,note_on,,,,,52,0,1,,,,,0,,,77,0
131152,note_on,,,,,0,0,1,,,,,0,,,71,0
131152,note_on,,,,,0,0,2,,,,,0,,,36,0
131152,note_on,,,,,52,0,2,,,,,0,,,48,0
131160,note_on,,,,,0,0,1,,,,,0,,,76,61
131160,note_on,,,,,0,0,1,,,,,0,,,72,61
131160,note_on,,,,,8,0,1,,,,,0,,,64,61
131160,note_on,,,,,8,0,2,,,,,0,,,36,61
131160,note_on,,,,,0,0,2,,,,,0,,,48,61
131212,note_on,,,,,0,0,2,,,,,0,,,36,0
131212,note_on,,,,,52,0,2,,,,,0,,,48,0
131212,note_on,,,,,0,0,1,,,,,0,,,72,0
131212,note_on,,,,,52,0,1,,,,,0,,,76,0
131212,note_on,,,,,0,0,1,,,,,0,,,64,0
131220,note_on,,,,,0,0,2,,,,,0,,,48,64
131220,note_on,,,,,0,0,1,,,,,0,,,62,60
131220,note_on,,,,,8,0,1,,,,,0,,,71,60
131220,note_on,,,,,0,0,1,,,,,0,,,74,60
131220,note_on,,,,,8,0,2,,,,,0,,,36,64
131230,set_tempo,,,,,90,1,0,,714285,,,,,,,
131272,note_on,,,,,52,0,1,,,,,0,,,62,0
131272,note_on,,,,,0,0,2,,,,,0,,,36,0
131272,note_on,,,,,52,0,2,,,,,0,,,48,0
131277,note_on,,,,,0,0,1,,,,,0,,,71,0
131277,note_on,,,,,5,0,1,,,,,0,,,74,0
131280,note_on,,,,,0,0,1,,,,,0,,,60,59
131280,note_on,,,,,3,0,1,,,,,0,,,69,59
131280,note_on,,,,,8,0,2,,,,,0,,,36,61
131280,note_on,,,,,0,0,1,,,,,0,,,72,59
131280,note_on,,,,,0,0,2,,,,,0,,,48,61
131280,set_tempo,,,,,50,1,0,,722891,,,,,,,
131320,set_tempo,,,,,40,1,0,,736196,,,,,,,
131332,note_on,,,,,0,0,1,,,,,0,,,69,0
131332,note_on,,,,,52,0,1,,,,,0,,,72,0
131335,control_change,,,,,3,0,1,,,,,0,64,0,,
131337,note_on,,,,,57,0,2,,,,,0,,,48,0
131337,note_on,,,,,0,0,2,,,,,0,,,36,0
131337,note_on,,,,,2,0,1,,,,,0,,,60,0
131340,note_on,,,,,0,0,2,,,,,0,,,49,51
131340,note_on,,,,,3,0,2,,,,,0,,,37,51
131340,note_on,,,,,0,0,1,,,,,0,,,71,55
131340,note_on,,,,,0,0,1,,,,,0,,,67,55
131340,note_on,,,,,3,0,1,,,,,0,,,59,55
131350,set_tempo,,,,,30,1,0,,750000,,,,,,,
131380,set_tempo,,,,,30,1,0,,779220,,,,,,,
131392,note_on,,,,,52,0,1,,,,,0,,,67,0
131392,note_on,,,,,0,0,1,,,,,0,,,71,0
131392,note_on,,,,,0,0,1,,,,,0,,,59,0
131397,note_on,,,,,0,0,2,,,,,0,,,37,0
131397,note_on,,,,,57,0,2,,,,,0,,,49,0
131398,control_change,,,,,6,0,1,,,,,0,64,0,,
131400,note_on,,,,,3,0,2,,,,,0,,,38,49
131400,note_on,,,,,0,0,2,,,,,0,,,50,49
131400,note_on,,,,,2,0,1,,,,,0,,,57,50
131400,control_change,,,,,0,0,1,,,,,0,64,95,,
131400,note_on,,,,,0,0,1,,,,,0,,,69,50
131400,note_on,,,,,0,0,1,,,,,0,,,66,50
131450,note_on,,,,,50,0,1,,,,,0,,,69,0
131450,note_on,,,,,50,0,2,,,,,0,,,50,0
131450,note_on,,,,,0,0,2,,,,,0,,,38,0
131450,note_on,,,,,0,0,1,,,,,0,,,57,0
131450,note_on,,,,,0,0,1,,,,,0,,,66,0
131460,set_tempo,,,,,80,1,0,,800000,,,,,,,
131460,note_on,,,,,10,0,1,,,,,0,,,62,65
131470,set_tempo,,,,,10,1,0,,800000,,,,,,,
131480,control_change,,,,,20,0,1,,,,,0,64,0,,
131505,note_on,,,,,25,0,1,,,,,0,,,62,0
131510,set_tempo,,,,,40,1,0,,774193,,,,,,,
131520,note_on,,,,,15,0,1,,,,,0,,,64,73
131520,set_tempo,,,,,10,1,0,,800000,,,,,,,
131530,set_tempo,,,,,10,1,0,,805369,,,,,,,
131550,set_tempo,,,,,20,1,0,,810810,,,,,,,
131560,set_tempo,,,,,10,1,0,,821917,,,,,,,
131565,note_on,,,,,45,0,1,,,,,0,,,64,0
131570,set_tempo,,,,,10,1,0,,833333,,,,,,,
131580,note_on,,,,,15,0,1,,,,,0,,,66,77
131580,set_tempo,,,,,10,1,0,,845070,,,,,,,
131600,set_tempo,,,,,20,1,0,,857142,,,,,,,
131610,set_tempo,,,,,10,1,0,,869565,,,,,,,
131620,set_tempo,,,,,10,1,0,,875912,,,,,,,
131625,note_on,,,,,45,0,1,,,,,0,,,66,0
131640,note_on,,,,,15,0,1,,,,,0,,,67,84
131640,set_tempo,,,,,20,1,0,,888888,,,,,,,
131650,set_tempo,,,,,10,1,0,,895522,,,,,,,
131660,set_tempo,,,,,10,1,0,,902255,,,,,,,
131680,set_tempo,,,,,20,1,0,,909090,,,,,,,
131685,note_on,,,,,45,0,1,,,,,0,,,67,0
131700,note_on,,,,,15,0,1,,,,,0,,,69,93
131700,set_tempo,,,,,20,1,0,,916030,,,,,,,
131710,set_tempo,,,,,10,1,0,,923076,,,,,,,
131720,set_tempo,,,,,10,1,0,,930232,,,,,,,
131745,note_on,,,,,45,0,1,,,,,0,,,69,0
131760,note_on,,,,,310,0,2,,,,,0,,,43,97
131760,note_on,,,,,0,0,2,,,,,0,,,50,97
131760,note_on,,,,,0,0,1,,,,,0,,,67,89
131760,note_on,,,,,0,0,1,,,,,0,,,71,89
131760,control_change,,,,,0,0,1,,,,,0,64,96,,
131760,note_on,,,,,15,0,1,,,,,0,,,59,89
131760,set_tempo,,,,,40,1,0,,754716,,,,,,,
132075,note_on,,,,,0,0,1,,,,,0,,,59,0
132075,note_on,,,,,0,0,1,,,,,0,,,67,0
132075,note_on,,,,,315,0,1,,,,,0,,,71,0
132075,note_on,,,,,0,0,2,,,,,0,,,43,0
132075,note_on,,,,,315,0,2,,,,,0,,,50,0
132090,control_change,,,,,0,0,1,,,,,0,64,0,,
132090,note_on,,,,,0,0,1,,,,,0,,,69,92
132090,note_on,,,,,0,0,1,,,,,0,,,66,92
132090,note_on,,,,,15,0,1,,,,,0,,,60,92
132090,note_on,,,,,0,0,2,,,,,0,,,50,88
132090,note_on,,,,,15,0,2,,,,,0,,,43,88
132115,note_on,,,,,0,0,1,,,,,0,,,60,0
132115,note_on,,,,,0,0,2,,,,,0,,,43,0
132115,note_on,,,,,25,0,2,,,,,0,,,50,0
132115,note_on,,,,,25,0,1,,,,,0,,,69,0
132115,note_on,,,,,0,0,1,,,,,0,,,66,0
132120,control_change,,,,,0,0,1,,,,,0,64,95,,
132120,note_on,,,,,0,0,2,,,,,0,,,50,91
132120,note_on,,,,,5,0,2,,,,,0,,,43,91
132120,note_on,,,,,0,0,1,,,,,0,,,71,94
132120,note_on,,,,,0,0,1,,,,,0,,,67,94
132120,note_on,,,,,5,0,1,,,,,0,,,59,94
132435,note_on,,,,,0,0,2,,,,,0,,,43,0
132435,note_on,,,,,315,0,2,,,,,0,,,50,0
132435,note_on,,,,,315,0,1,,,,,0,,,71,0
132435,note_on,,,,,0,0,1,,,,,0,,,67,0
132435,note_on,,,,,0,0,1,,,,,0,,,59,0
132450,note_on,,,,,15,0,1,,,,,0,,,60,101
132450,note_on,,,,,0,0,2,,,,,0,,,50,92
132450,note_on,,,,,15,0,2,,,,,0,,,43,92
132450,note_on,,,,,0,0,1,,,,,0,,,69,101
132450,note_on,,,,,0,0,1,,,,,0,,,66,101
132450,control_change,,,,,0,0,1,,,,,0,64,0,,
132460,set_tempo,,,,,700,1,0,,759493,,,,,,,
132475,set_tempo,,,,,15,1,0,,740740,,,,,,,
132475,note_on,,,,,0,0,2,,,,,0,,,43,0
132475,note_on,,,,,25,0,2,,,,,0,,,50,0
132475,note_on,,,,,0,0,1,,,,,0,,,66,0
132475,note_on,,,,,25,0,1,,,,,0,,,69,0
132475,note_on,,,,,0,0,1,,,,,0,,,60,0
132480,set_tempo,,,,,5,1,0,,740740,,,,,,,
132480,note_on,,,,,5,0,2,,,,,0,,,43,92
132480,note_on,,,,,0,0,2,,,,,0,,,50,92
132480,control_change,,,,,0,0,1,,,,,0,64,96,,
132480,note_on,,,,,0,0,1,,,,,0,,,71,103
132480,note_on,,,,,0,0,1,,,,,0,,,67,103
132480,note_on,,,,,5,0,1,,,,,0,,,59,103
132485,set_tempo,,,,,5,1,0,,745341,,,,,,,
132495,set_tempo,,,,,10,1,0,,750000,,,,,,,
132505,set_tempo,,,,,10,1,0,,754716,,,,,,,
132515,set_tempo,,,,,10,1,0,,759493,,,,,,,
132525,set_tempo,,,,,10,1,0,,764331,,,,,,,
132532,note_on,,,,,0,0,1,,,,,0,,,59,0
132532,note_on,,,,,52,0,1,,,,,0,,,71,0
132532,note_on,,,,,0,0,1,,,,,0,,,67,0
132532,note_on,,,,,52,0,2,,,,,0,,,50,0
132532,note_on,,,,,0,0,2,,,,,0,,,43,0
132535,set_tempo,,,,,10,1,0,,769230,,,,,,,
132540,note_on,,,,,0,0,2,,,,,0,,,50,99
132540,note_on,,,,,8,0,2,,,,,0,,,43,99
132540,set_tempo,,,,,5,1,0,,774193,,,,,,,
132540,note_on,,,,,8,0,1,,,,,0,,,60,103
132540,note_on,,,,,0,0,1,,,,,0,,,69,103
132540,note_on,,,,,0,0,1,,,,,0,,,72,103
132555,set_tempo,,,,,15,1,0,,779220,,,,,,,
132565,set_tempo,,,,,10,1,0,,789473,,,,,,,
132575,set_tempo,,,,,10,1,0,,794701,,,,,,,
132580,set_tempo,,,,,5,1,0,,805369,,,,,,,
132585,set_tempo,,,,,5,1,0,,816326,,,,,,,
132592,note_on,,,,,0,0,1,,,,,0,,,60,0
132592,note_on,,,,,0,0,1,,,,,0,,,69,0
132592,note_on,,,,,52,0,2,,,,,0,,,50,0
132592,note_on,,,,,0,0,2,,,,,0,,,43,0
132592,note_on,,,,,52,0,1,,,,,0,,,72,0
132595,set_tempo,,,,,10,1,0,,821917,,,,,,,
132600,note_on,,,,,0,0,1,,,,,0,,,71,95
132600,note_on,,,,,8,0,1,,,,,0,,,62,95
132600,note_on,,,,,0,0,1,,,,,0,,,74,95
132600,set_tempo,,,,,5,1,0,,833333,,,,,,,
132600,note_on,,,,,8,0,2,,,,,0,,,43,99
132600,note_on,,,,,0,0,2,,,,,0,,,50,99
132610,set_tempo,,,,,10,1,0,,839160,,,,,,,
132625,set_tempo,,,,,15,1,0,,857142,,,,,,,
132652,note_on,,,,,52,0,2,,,,,0,,,50,0
132652,note_on,,,,,0,0,1,,,,,0,,,62,0
132652,note_on,,,,,0,0,1,,,,,0,,,71,0
132652,note_on,,,,,52,0,1,,,,,0,,,74,0
132652,note_on,,,,,0,0,2,,,,,0,,,43,0
132655,set_tempo,,,,,30,1,0,,839160,,,,,,,
132658,control_change,,,,,6,0,1,,,,,0,64,0,,
132660,note_on,,,,,8,0,2,,,,,0,,,39,94
132660,note_on,,,,,0,0,2,,,,,0,,,51,94
132660,control_change,,,,,0,0,1,,,,,0,64,96,,
132660,note_on,,,,,0,0,1,,,,,0,,,66,90
132660,note_on,,,,,0,0,1,,,,,0,,,71,90
132660,note_on,,,,,2,0,1,,,,,0,,,59,90
132680,set_tempo,,,,,25,1,0,,833333,,,,,,,
132695,set_tempo,,,,,15,1,0,,827586,,,,,,,
132712,note_on,,,,,52,0,1,,,,,0,,,59,0
132712,note_on,,,,,52,0,2,,,,,0,,,51,0
132712,note_on,,,,,0,0,2,,,,,0,,,39,0
132717,note_on,,,,,0,0,1,,,,,0,,,71,0
132717,note_on,,,,,5,0,1,,,,,0,,,66,0
132720,note_on,,,,,0,0,1,,,,,0,,,60,77
132720,note_on,,,,,3,0,1,,,,,0,,,69,77
132720,note_on,,,,,8,0,2,,,,,0,,,39,83
132720,note_on,,,,,0,0,2,,,,,0,,,51,83
132720,note_on,,,,,0,0,1,,,,,0,,,66,77
132735,set_tempo,,,,,40,1,0,,821917,,,,,,,
132740,set_tempo,,,,,5,1,0,,810810,,,,,,,
132770,set_tempo,,,,,30,1,0,,805369,,,,,,,
132772,note_on,,,,,52,0,1,,,,,0,,,66,0
132772,note_on,,,,,0,0,1,,,,,0,,,69,0
132775,set_tempo,,,,,5,1,0,,800000,,,,,,,
132777,note_on,,,,,57,0,2,,,,,0,,,51,0
132777,note_on,,,,,5,0,1,,,,,0,,,60,0
132777,note_on,,,,,0,0,2,,,,,0,,,39,0
132780,note_on,,,,,3,0,2,,,,,0,,,39,74
132780,note_on,,,,,0,0,2,,,,,0,,,51,74
132780,set_tempo,,,,,5,1,0,,794701,,,,,,,
132780,note_on,,,,,3,0,1,,,,,0,,,69,69
132780,note_on,,,,,0,0,1,,,,,0,,,60,69
132780,note_on,,,,,0,0,1,,,,,0,,,66,69
132790,set_tempo,,,,,10,1,0,,789473,,,,,,,
132795,set_tempo,,,,,5,1,0,,784313,,,,,,,
132810,set_tempo,,,,,15,1,0,,774193,,,,,,,
132815,set_tempo,,,,,5,1,0,,764331,,,,,,,
132825,set_tempo,,,,,10,1,0,,759493,,,,,,,
132830,set_tempo,,,,,5,1,0,,754716,,,,,,,
132832,note_on,,,,,0,0,1,,,,,0,,,69,0
132832,note_on,,,,,0,0,1,,,,,0,,,60,0
132832,note_on,,,,,52,0,1,,,,,0,,,66,0
132835,set_tempo,,,,,5,1,0,,750000,,,,,,,
132837,note_on,,,,,57,0,2,,,,,0,,,51,0
132837,note_on,,,,,0,0,2,,,,,0,,,39,0
132838,control_change,,,,,6,0,1,,,,,0,64,0,,
132840,note_on,,,,,0,0,2,,,,,0,,,52,57
132840,note_on,,,,,3,0,2,,,,,0,,,40,57
132840,note_on,,,,,0,0,1,,,,,0,,,64,67
132840,note_on,,,,,2,0,1,,,,,0,,,59,67
132840,set_tempo,,,,,5,1,0,,745341,,,,,,,
132840,control_change,,,,,0,0,1,,,,,0,64,95,,
132840,note_on,,,,,0,0,1,,,,,0,,,67,67
132850,set_tempo,,,,,10,1,0,,736196,,,,,,,
132855,set_tempo,,,,,5,1,0,,727272,,,,,,,
132865,set_tempo,,,,,10,1,0,,718562,,,,,,,
132890,set_tempo,,,,,25,1,0,,710059,,,,,,,
132892,note_on,,,,,52,0,2,,,,,0,,,52,0
132892,note_on,,,,,0,0,2,,,,,0,,,40,0
132892,note_on,,,,,0,0,1,,,,,0,,,64,0
132892,note_on,,,,,0,0,1,,,,,0,,,59,0
132892,note_on,,,,,52,0,1,,,,,0,,,67,0
132900,note_on,,,,,8,0,1,,,,,0,,,67,72
132940,set_tempo,,,,,50,1,0,,705882,,,,,,,
132952,note_on,,,,,52,0,1,,,,,0,,,67,0
132960,set_tempo,,,,,20,1,0,,701754,,,,,,,
132960,note_on,,,,,8,0,1,,,,,0,,,69,79
132970,set_tempo,,,,,10,1,0,,697674,,,,,,,
133010,set_tempo,,,,,40,1,0,,693641,,,,,,,
133012,note_on,,,,,52,0,1,,,,,0,,,69,0
133020,set_tempo,,,,,10,1,0,,689655,,,,,,,
133020,note_on,,,,,8,0,1,,,,,0,,,71,81
133022,control_change,,,,,2,0,1,,,,,0,64,0,,
133070,set_tempo,,,,,50,1,0,,685714,,,,,,,
133072,note_on,,,,,50,0,1,,,,,0,,,71,0
133080,note_on,,,,,8,0,1,,,,,0,,,72,87
133080,set_tempo,,,,,10,1,0,,681818,,,,,,,
133110,set_tempo,,,,,30,1,0,,677966,,,,,,,
133132,note_on,,,,,52,0,1,,,,,0,,,72,0
133140,note_on,,,,,8,0,1,,,,,0,,,74,95
133150,control_change,,,,,10,0,1,,,,,0,64,0,,
133150,set_tempo,,,,,40,1,0,,674157,,,,,,,
133160,set_tempo,,,,,10,1,0,,670391,,,,,,,
133190,set_tempo,,,,,30,1,0,,666666,,,,,,,
133192,note_on,,,,,42,0,1,,,,,0,,,74,0
133200,note_on,,,,,308,0,2,,,,,0,,,36,103
133200,note_on,,,,,0,0,1,,,,,0,,,72,110
133200,note_on,,,,,8,0,1,,,,,0,,,64,110
133200,note_on,,,,,0,0,2,,,,,0,,,48,103
133200,control_change,,,,,0,0,1,,,,,0,64,96,,
133200,note_on,,,,,0,0,1,,,,,0,,,76,110
133515,note_on,,,,,315,0,1,,,,,0,,,76,0
133515,note_on,,,,,0,0,1,,,,,0,,,64,0
133515,note_on,,,,,0,0,2,,,,,0,,,36,0
133515,note_on,,,,,315,0,2,,,,,0,,,48,0
133515,note_on,,,,,0,0,1,,,,,0,,,72,0
133530,note_on,,,,,15,0,1,,,,,0,,,65,111
133530,note_on,,,,,0,0,1,,,,,0,,,71,111
133530,note_on,,,,,0,0,1,,,,,0,,,74,111
133530,control_change,,,,,0,0,1,,,,,0,64,0,,
133530,note_on,,,,,15,0,2,,,,,0,,,36,105
133530,note_on,,,,,0,0,2,,,,,0,,,48,105
133555,note_on,,,,,25,0,2,,,,,0,,,48,0
133555,note_on,,,,,0,0,2,,,,,0,,,36,0
133555,note_on,,,,,0,0,1,,,,,0,,,71,0
133555,note_on,,,,,25,0,1,,,,,0,,,74,0
133555,note_on,,,,,0,0,1,,,,,0,,,65,0
133560,note_on,,,,,0,0,1,,,,,0,,,72,113
133560,note_on,,,,,0,0,1,,,,,0,,,76,113
133560,control_change,,,,,0,0,1,,,,,0,64,95,,
133560,note_on,,,,,5,0,1,,,,,0,,,64,113
133560,note_on,,,,,0,0,2,,,,,0,,,48,105
133560,note_on,,,,,5,0,2,,,,,0,,,36,105
133875,note_on,,,,,0,0,1,,,,,0,,,72,0
133875,note_on,,,,,315,0,1,,,,,0,,,76,0
133875,note_on,,,,,0,0,2,,,,,0,,,36,0
133875,note_on,,,,,315,0,2,,,,,0,,,48,0
133875,note_on,,,,,0,0,1,,,,,0,,,64,0
133890,note_on,,,,,0,0,1,,,,,0,,,71,109
133890,control_change,,,,,0,0,1,,,,,0,64,0,,
133890,note_on,,,,,15,0,1,,,,,0,,,65,109
133890,note_on,,,,,0,0,1,,,,,0,,,74,109
133890,note_on,,,,,0,0,2,,,,,0,,,48,113
133890,note_on,,,,,15,0,2,,,,,0,,,36,113
133915,note_on,,,,,25,0,1,,,,,0,,,74,0
133915,note_on,,,,,0,0,1,,,,,0,,,71,0
133915,note_on,,,,,0,0,1,,,,,0,,,65,0
133915,note_on,,,,,0,0,2,,,,,0,,,36,0
133915,note_on,,,,,25,0,2,,,,,0,,,48,0
133920,note_on,,,,,0,0,1,,,,,0,,,72,113
133920,note_on,,,,,5,0,1,,,,,0,,,64,113
133920,set_tempo,,,,,730,1,0,,750000,,,,,,,
133920,note_on,,,,,5,0,2,,,,,0,,,36,113
133920,note_on,,,,,0,0,2,,,,,0,,,48,113
133920,control_change,,,,,0,0,1,,,,,0,64,96,,
133920,note_on,,,,,0,0,1,,,,,0,,,76,113
133972,note_on,,,,,52,0,2,,,,,0,,,48,0
133972,note_on,,,,,0,0,2,,,,,0,,,36,0
133972,note_on,,,,,0,0,1,,,,,0,,,64,0
133972,note_on,,,,,0,0,1,,,,,0,,,72,0
133972,note_on,,,,,52,0,1,,,,,0,,,76,0
133980,note_on,,,,,8,0,2,,,,,0,,,36,113
133980,note_on,,,,,0,0,2,,,,,0,,,48,113
133980,note_on,,,,,0,0,1,,,,,0,,,74,117
133980,note_on,,,,,8,0,1,,,,,0,,,77,117
133980,note_on,,,,,0,0,1,,,,,0,,,65,117
133990,set_tempo,,,,,70,1,0,,769230,,,,,,,
134030,set_tempo,,,,,40,1,0,,784313,,,,,,,
134032,note_on,,,,,0,0,1,,,,,0,,,77,0
134032,note_on,,,,,0,0,1,,,,,0,,,65,0
134032,note_on,,,,,0,0,2,,,,,0,,,36,0
134032,note_on,,,,,52,0,2,,,,,0,,,48,0
134032,note_on,,,,,52,0,1,,,,,0,,,74,0
134040,note_on,,,,,8,0,1,,,,,0,,,67,103
134040,note_on,,,,,0,0,1,,,,,0,,,76,103
134040,note_on,,,,,0,0,1,,,,,0,,,79,103
134040,note_on,,,,,0,0,2,,,,,0,,,48,112
134040,note_on,,,,,8,0,2,,,,,0,,,36,112
134060,set_tempo,,,,,30,1,0,,821917,,,,,,,
134080,set_tempo,,,,,20,1,0,,1000000,,,,,,,
134085,set_tempo,,,,,5,1,0,,1000000,,,,,,,
134092,note_on,,,,,52,0,1,,,,,0,,,79,0
134092,note_on,,,,,0,0,1,,,,,0,,,67,0
134092,note_on,,,,,0,0,2,,,,,0,,,36,0
134092,note_on,,,,,52,0,2,,,,,0,,,48,0
134092,note_on,,,,,0,0,1,,,,,0,,,76,0
134098,control_change,,,,,6,0,1,,,,,0,64,0,,
134100,note_on,,,,,0,0,1,,,,,0,,,71,100
134100,note_on,,,,,0,0,2,,,,,0,,,32,100
134100,note_on,,,,,8,0,2,,,,,0,,,44,100
134100,note_on,,,,,0,0,1,,,,,0,,,76,100
134100,note_on,,,,,2,0,1,,,,,0,,,64,100
134100,control_change,,,,,0,0,1,,,,,0,64,96,,
134105,set_tempo,,,,,20,1,0,,952380,,,,,,,
134152,note_on,,,,,0,0,2,,,,,0,,,44,0
134152,note_on,,,,,52,0,2,,,,,0,,,32,0
134152,note_on,,,,,52,0,1,,,,,0,,,64,0
134157,note_on,,,,,5,0,1,,,,,0,,,71,0
134157,note_on,,,,,0,0,1,,,,,0,,,76,0
134160,note_on,,,,,0,0,2,,,,,0,,,32,96
134160,note_on,,,,,8,0,2,,,,,0,,,44,96
134160,note_on,,,,,3,0,1,,,,,0,,,65,98
134160,note_on,,,,,0,0,1,,,,,0,,,74,98
134160,note_on,,,,,0,0,1,,,,,0,,,71,98
134180,set_tempo,,,,,75,1,0,,833333,,,,,,,
134212,note_on,,,,,0,0,1,,,,,0,,,74,0
134212,note_on,,,,,52,0,1,,,,,0,,,71,0
134217,note_on,,,,,0,0,2,,,,,0,,,44,0
134217,note_on,,,,,5,0,1,,,,,0,,,65,0
134217,note_on,,,,,57,0,2,,,,,0,,,32,0
134220,set_tempo,,,,,40,1,0,,816326,,,,,,,
134220,note_on,,,,,0,0,1,,,,,0,,,71,95
134220,note_on,,,,,0,0,1,,,,,0,,,74,95
134220,note_on,,,,,3,0,1,,,,,0,,,65,95
134220,note_on,,,,,3,0,2,,,,,0,,,44,91
134220,note_on,,,,,0,0,2,,,,,0,,,32,91
134255,set_tempo,,,,,35,1,0,,789473,,,,,,,
134272,note_on,,,,,0,0,1,,,,,0,,,65,0
134272,note_on,,,,,52,0,1,,,,,0,,,71,0
134272,note_on,,,,,0,0,1,,,,,0,,,74,0
134277,note_on,,,,,57,0,2,,,,,0,,,32,0
134277,note_on,,,,,0,0,2,,,,,0,,,44,0
134278,control_change,,,,,6,0,1,,,,,0,64,0,,
134280,set_tempo,,,,,25,1,0,,754716,,,,,,,
134280,note_on,,,,,0,0,2,,,,,0,,,45,87
134280,control_change,,,,,0,0,1,,,,,0,64,95,,
134280,note_on,,,,,0,0,1,,,,,0,,,72,90
134280,note_on,,,,,0,0,1,,,,,0,,,69,90
134280,note_on,,,,,3,0,2,,,,,0,,,33,87
134280,note_on,,,,,2,0,1,,,,,0,,,64,90
134315,set_tempo,,,,,35,1,0,,731707,,,,,,,
134332,note_on,,,,,52,0,2,,,,,0,,,45,0
134332,note_on,,,,,0,0,2,,,,,0,,,33,0
134332,note_on,,,,,0,0,1,,,,,0,,,69,0
134332,note_on,,,,,0,0,1,,,,,0,,,64,0
134332,note_on,,,,,52,0,1,,,,,0,,,72,0
134340,note_on,,,,,8,0,1,,,,,0,,,69,92
134385,set_tempo,,,,,70,1,0,,693641,,,,,,,
134390,set_tempo,,,,,5,1,0,,705882,,,,,,,
134392,note_on,,,,,52,0,1,,,,,0,,,69,0
134400,note_on,,,,,8,0,1,,,,,0,,,71,94
134452,note_on,,,,,52,0,1,,,,,0,,,71,0
134460,note_on,,,,,8,0,1,,,,,0,,,72,96
134462,control_change,,,,,2,0,1,,,,,0,64,0,,
134512,note_on,,,,,50,0,1,,,,,0,,,72,0
134520,note_on,,,,,8,0,1,,,,,0,,,74,98
134555,set_tempo,,,,,165,1,0,,701754,,,,,,,
134565,set_tempo,,,,,10,1,0,,697674,,,,,,,
134572,note_on,,,,,52,0,1,,,,,0,,,74,0
134575,set_tempo,,,,,10,1,0,,693641,,,,,,,
134580,note_on,,,,,8,0,1,,,,,0,,,76,102
134590,control_change,,,,,10,0,1,,,,,0,64,0,,
134595,set_tempo,,,,,20,1,0,,697674,,,,,,,
134632,note_on,,,,,42,0,1,,,,,0,,,76,0
134640,note_on,,,,,0,0,1,,,,,0,,,69,99
134640,set_tempo,,,,,45,1,0,,648648,,,,,,,
134640,note_on,,,,,308,0,2,,,,,0,,,38,94
134640,note_on,,,,,8,0,1,,,,,0,,,76,99
134640,note_on,,,,,0,0,2,,,,,0,,,50,94
134640,note_on,,,,,0,0,1,,,,,0,,,72,99
134640,control_change,,,,,0,0,1,,,,,0,64,96,,
134820,note_on,,,,,0,0,1,,,,,0,,,78,68
134820,note_on,,,,,180,0,1,,,,,0,,,76,0
134880,note_on,,,,,0,0,2,,,,,0,,,38,0
134880,note_on,,,,,0,0,1,,,,,0,,,69,0
134880,note_on,,,,,0,0,1,,,,,0,,,72,0
134880,note_on,,,,,60,0,1,,,,,0,,,78,0
134880,note_on,,,,,240,0,2,,,,,0,,,50,0
134920,set_tempo,,,,,280,1,0,,645161,,,,,,,
134940,control_change,,,,,60,0,1,,,,,0,64,0,,
134960,set_tempo,,,,,40,1,0,,638297,,,,,,,
134970,note_on,,,,,0,0,2,,,,,0,,,50,99
134970,note_on,,,,,90,0,2,,,,,0,,,38,99
134970,note_on,,,,,30,0,1,,,,,0,,,70,92
134970,note_on,,,,,0,0,1,,,,,0,,,73,92
134970,note_on,,,,,0,0,1,,,,,0,,,78,92
134995,note_on,,,,,0,0,1,,,,,0,,,73,0
134995,note_on,,,,,25,0,1,,,,,0,,,78,0
134995,note_on,,,,,0,0,1,,,,,0,,,70,0
134995,note_on,,,,,25,0,2,,,,,0,,,50,0
134995,note_on,,,,,0,0,2,,,,,0,,,38,0
135000,note_on,,,,,0,0,1,,,,,0,,,74,99
135000,note_on,,,,,5,0,2,,,,,0,,,38,101
135000,note_on,,,,,0,0,2,,,,,0,,,50,101
135000,note_on,,,,,0,0,1,,,,,0,,,71,99
135000,note_on,,,,,5,0,1,,,,,0,,,78,99
135000,control_change,,,,,0,0,1,,,,,0,64,95,,
135180,note_on,,,,,0,0,1,,,,,0,,,79,87
135180,note_on,,,,,180,0,1,,,,,0,,,78,0
135240,note_on,,,,,0,0,1,,,,,0,,,74,0
135240,note_on,,,,,240,0,2,,,,,0,,,50,0
135240,note_on,,,,,60,0,1,,,,,0,,,79,0
135240,note_on,,,,,0,0,1,,,,,0,,,71,0
135240,note_on,,,,,0,0,2,,,,,0,,,38,0
135300,control_change,,,,,60,0,1,,,,,0,64,0,,
135310,set_tempo,,,,,350,1,0,,628272,,,,,,,
135330,note_on,,,,,0,0,1,,,,,0,,,79,106
135330,note_on,,,,,30,0,1,,,,,0,,,71,106
135330,note_on,,,,,0,0,1,,,,,0,,,74,106
135330,note_on,,,,,90,0,2,,,,,0,,,38,116
135330,note_on,,,,,0,0,2,,,,,0,,,50,116
135355,note_on,,,,,25,0,1,,,,,0,,,79,0
135355,note_on,,,,,0,0,1,,,,,0,,,74,0
135355,note_on,,,,,0,0,1,,,,,0,,,71,0
135355,note_on,,,,,25,0,2,,,,,0,,,50,0
135355,note_on,,,,,0,0,2,,,,,0,,,38,0
135360,note_on,,,,,5,0,1,,,,,0,,,79,112
135360,note_on,,,,,0,0,1,,,,,0,,,71,112
135360,control_change,,,,,0,0,1,,,,,0,64,96,,
135360,note_on,,,,,0,0,1,,,,,0,,,74,112
135360,note_on,,,,,0,0,2,,,,,0,,,50,116
135360,note_on,,,,,5,0,2,,,,,0,,,38,116
135420,note_on,,,,,0,0,1,,,,,0,,,79,94
135420,note_on,,,,,0,0,1,,,,,0,,,76,94
135420,note_on,,,,,0,0,1,,,,,0,,,72,94
135420,note_on,,,,,0,0,1,,,,,0,,,79,0
135420,note_on,,,,,60,0,1,,,,,0,,,71,0
135420,note_on,,,,,0,0,2,,,,,0,,,50,98
135420,note_on,,,,,0,0,1,,,,,0,,,74,0
135420,note_on,,,,,0,0,2,,,,,0,,,38,98
135420,note_on,,,,,60,0,2,,,,,0,,,50,0
135420,note_on,,,,,0,0,2,,,,,0,,,38,0
135476,note_on,,,,,56,0,2,,,,,0,,,50,0
135476,note_on,,,,,0,0,1,,,,,0,,,72,0
135476,note_on,,,,,0,0,1,,,,,0,,,76,0
135476,note_on,,,,,56,0,1,,,,,0,,,79,0
135476,note_on,,,,,0,0,2,,,,,0,,,38,0
135480,note_on,,,,,0,0,2,,,,,0,,,50,102
135480,note_on,,,,,4,0,2,,,,,0,,,38,102
135480,note_on,,,,,4,0,1,,,,,0,,,72,96
135480,note_on,,,,,0,0,1,,,,,0,,,76,96
135480,note_on,,,,,0,0,1,,,,,0,,,79,96
135530,set_tempo,,,,,220,1,0,,631578,,,,,,,
135536,note_on,,,,,0,0,2,,,,,0,,,38,0
135536,note_on,,,,,56,0,2,,,,,0,,,50,0
135536,note_on,,,,,56,0,1,,,,,0,,,79,0
135536,note_on,,,,,0,0,1,,,,,0,,,76,0
135536,note_on,,,,,0,0,1,,,,,0,,,72,0
135538,control_change,,,,,2,0,1,,,,,0,64,0,,
135540,note_on,,,,,0,0,1,,,,,0,,,76,100
135540,control_change,,,,,0,0,1,,,,,0,64,95,,
135540,note_on,,,,,0,0,1,,,,,0,,,79,100
135540,note_on,,,,,2,0,1,,,,,0,,,72,100
135540,note_on,,,,,4,0,2,,,,,0,,,38,107
135540,note_on,,,,,0,0,2,,,,,0,,,50,107
135596,note_on,,,,,0,0,1,,,,,0,,,72,0
135596,note_on,,,,,0,0,1,,,,,0,,,76,0
135596,note_on,,,,,56,0,1,,,,,0,,,79,0
135596,note_on,,,,,56,0,2,,,,,0,,,50,0
135596,note_on,,,,,0,0,2,,,,,0,,,38,0
135600,note_on,,,,,0,0,1,,,,,0,,,81,103
135600,note_on,,,,,4,0,1,,,,,0,,,72,103
135600,note_on,,,,,0,0,2,,,,,0,,,50,110
135600,note_on,,,,,4,0,2,,,,,0,,,38,110
135600,note_on,,,,,0,0,1,,,,,0,,,78,103
135656,note_on,,,,,56,0,2,,,,,0,,,50,0
135656,note_on,,,,,0,0,2,,,,,0,,,38,0
135656,note_on,,,,,0,0,1,,,,,0,,,72,0
135656,note_on,,,,,0,0,1,,,,,0,,,78,0
135656,note_on,,,,,56,0,1,,,,,0,,,81,0
135660,note_on,,,,,0,0,1,,,,,0,,,78,108
135660,note_on,,,,,4,0,2,,,,,0,,,38,115
135660,note_on,,,,,0,0,2,,,,,0,,,50,115
135660,note_on,,,,,0,0,1,,,,,0,,,81,108
135660,note_on,,,,,4,0,1,,,,,0,,,72,108
135716,note_on,,,,,0,0,1,,,,,0,,,78,0
135716,note_on,,,,,56,0,1,,,,,0,,,81,0
135716,control_change,,,,,0,0,1,,,,,0,64,0,,
135716,note_on,,,,,0,0,2,,,,,0,,,38,0
135716,note_on,,,,,56,0,2,,,,,0,,,50,0
135716,note_on,,,,,0,0,1,,,,,0,,,72,0
135720,note_on,,,,,0,0,1,,,,,0,,,71,111
135720,set_tempo,,,,,190,1,0,,615384,,,,,,,
135720,note_on,,,,,0,0,2,,,,,0,,,50,117
135720,note_on,,,,,4,0,1,,,,,0,,,83,111
135720,note_on,,,,,4,0,2,,,,,0,,,43,117
135720,note_on,,,,,0,0,1,,,,,0,,,79,111
135770,set_tempo,,,,,50,1,0,,631578,,,,,,,
135776,note_on,,,,,56,0,1,,,,,0,,,79,0
135776,note_on,,,,,0,0,1,,,,,0,,,71,0
135776,note_on,,,,,0,0,2,,,,,0,,,43,0
135776,note_on,,,,,56,0,2,,,,,0,,,50,0
135780,set_tempo,,,,,10,1,0,,652173,,,,,,,
135780,note_on,,,,,4,0,1,,,,,0,,,83,0
135780,note_on,,,,,0,0,1,,,,,0,,,86,91
135830,set_tempo,,,,,50,1,0,,693641,,,,,,,
135836,note_on,,,,,56,0,1,,,,,0,,,86,0
135840,note_on,,,,,4,0,1,,,,,0,,,86,79
135860,set_tempo,,,,,30,1,0,,714285,,,,,,,
135870,set_tempo,,,,,10,1,0,,718562,,,,,,,
135890,set_tempo,,,,,20,1,0,,736196,,,,,,,
135892,note_on,,,,,52,0,1,,,,,0,,,86,0
135900,note_on,,,,,8,0,1,,,,,0,,,86,72
135930,set_tempo,,,,,40,1,0,,779220,,,,,,,
135952,note_on,,,,,52,0,1,,,,,0,,,86,0
135960,note_on,,,,,8,0,1,,,,,0,,,86,65
136012,note_on,,,,,52,0,1,,,,,0,,,86,0
136020,note_on,,,,,8,0,1,,,,,0,,,86,61
136060,set_tempo,,,,,130,1,0,,845070,,,,,,,
136072,note_on,,,,,52,0,1,,,,,0,,,86,0
136080,note_on,,,,,0,0,2,,,,,0,,,50,87
136080,note_on,,,,,304,0,2,,,,,0,,,38,87
136080,set_tempo,,,,,20,1,0,,745341,,,,,,,
136080,note_on,,,,,8,0,1,,,,,0,,,79,86
136080,note_on,,,,,0,0,1,,,,,0,,,74,86
136080,note_on,,,,,0,0,1,,,,,0,,,71,86
136080,control_change,,,,,0,0,1,,,,,0,64,96,,
136090,set_tempo,,,,,10,1,0,,662983,,,,,,,
136095,set_tempo,,,,,5,1,0,,662983,,,,,,,
136140,note_on,,,,,0,0,1,,,,,0,,,72,74
136140,note_on,,,,,0,0,2,,,,,0,,,50,74
136140,note_on,,,,,60,0,2,,,,,0,,,50,0
136140,note_on,,,,,0,0,2,,,,,0,,,38,0
136140,note_on,,,,,0,0,1,,,,,0,,,79,0
136140,note_on,,,,,0,0,2,,,,,0,,,38,74
136140,note_on,,,,,0,0,1,,,,,0,,,74,0
136140,note_on,,,,,0,0,1,,,,,0,,,79,74
136140,note_on,,,,,0,0,1,,,,,0,,,76,74
136140,note_on,,,,,60,0,1,,,,,0,,,71,0
136155,set_tempo,,,,,60,1,0,,628272,,,,,,,
136160,set_tempo,,,,,5,1,0,,645161,,,,,,,
136196,note_on,,,,,56,0,2,,,,,0,,,50,0
136196,note_on,,,,,56,0,1,,,,,0,,,79,0
136196,note_on,,,,,0,0,2,,,,,0,,,38,0
136196,note_on,,,,,0,0,1,,,,,0,,,72,0
136196,note_on,,,,,0,0,1,,,,,0,,,76,0
136200,note_on,,,,,4,0,2,,,,,0,,,38,77
136200,note_on,,,,,0,0,2,,,,,0,,,50,77
136200,note_on,,,,,0,0,1,,,,,0,,,79,75
136200,note_on,,,,,0,0,1,,,,,0,,,76,75
136200,note_on,,,,,4,0,1,,,,,0,,,72,75
136230,set_tempo,,,,,70,1,0,,634920,,,,,,,
136256,note_on,,,,,0,0,1,,,,,0,,,72,0
136256,note_on,,,,,0,0,1,,,,,0,,,76,0
136256,note_on,,,,,56,0,1,,,,,0,,,79,0
136256,note_on,,,,,56,0,2,,,,,0,,,50,0
136256,note_on,,,,,0,0,2,,,,,0,,,38,0
136258,control_change,,,,,2,0,1,,,,,0,64,0,,
136260,note_on,,,,,4,0,2,,,,,0,,,38,81
136260,note_on,,,,,0,0,2,,,,,0,,,50,81
136260,note_on,,,,,2,0,1,,,,,0,,,72,78
136260,note_on,,,,,0,0,1,,,,,0,,,76,78
136260,note_on,,,,,0,0,1,,,,,0,,,79,78
136260,control_change,,,,,0,0,1,,,,,0,64,95,,
136285,set_tempo,,,,,55,1,0,,628272,,,,,,,
136316,note_on,,,,,56,0,1,,,,,0,,,79,0
136316,note_on,,,,,0,0,2,,,,,0,,,38,0
136316,note_on,,,,,56,0,2,,,,,0,,,50,0
136316,note_on,,,,,0,0,1,,,,,0,,,76,0
136316,note_on,,,,,0,0,1,,,,,0,,,72,0
136320,note_on,,,,,4,0,2,,,,,0,,,38,83
136320,note_on,,,,,4,0,1,,,,,0,,,72,82
136320,note_on,,,,,0,0,2,,,,,0,,,50,83
136320,note_on,,,,,0,0,1,,,,,0,,,81,82
136320,note_on,,,,,0,0,1,,,,,0,,,78,82
136376,note_on,,,,,0,0,1,,,,,0,,,72,0
136376,note_on,,,,,0,0,2,,,,,0,,,38,0
136376,note_on,,,,,56,0,2,,,,,0,,,50,0
136376,note_on,,,,,0,0,1,,,,,0,,,78,0
136376,note_on,,,,,56,0,1,,,,,0,,,81,0
136380,note_on,,,,,0,0,1,,,,,0,,,78,87
136380,note_on,,,,,4,0,2,,,,,0,,,38,77
136380,note_on,,,,,4,0,1,,,,,0,,,72,87
136380,note_on,,,,,0,0,2,,,,,0,,,50,77
136380,note_on,,,,,0,0,1,,,,,0,,,81,87
136436,control_change,,,,,0,0,1,,,,,0,64,0,,
136436,note_on,,,,,0,0,1,,,,,0,,,72,0
136436,note_on,,,,,0,0,1,,,,,0,,,78,0
136436,note_on,,,,,56,0,1,,,,,0,,,81,0
136436,note_on,,,,,0,0,2,,,,,0,,,38,0
136436,note_on,,,,,56,0,2,,,,,0,,,50,0
136440,note_on,,,,,4,0,1,,,,,0,,,83,88
136440,note_on,,,,,0,0,1,,,,,0,,,79,88
136440,note_on,,,,,4,0,2,,,,,0,,,43,72
136440,note_on,,,,,0,0,2,,,,,0,,,50,72
136440,note_on,,,,,0,0,1,,,,,0,,,71,88
136480,set_tempo,,,,,195,1,0,,677966,,,,,,,
136490,set_tempo,,,,,10,1,0,,681818,,,,,,,
136496,note_on,,,,,56,0,2,,,,,0,,,50,0
136496,note_on,,,,,0,0,2,,,,,0,,,43,0
136496,note_on,,,,,56,0,1,,,,,0,,,79,0
136496,note_on,,,,,0,0,1,,,,,0,,,71,0
136500,note_on,,,,,4,0,1,,,,,0,,,83,0
136500,note_on,,,,,0,0,1,,,,,0,,,86,76
136525,set_tempo,,,,,35,1,0,,705882,,,,,,,
136535,set_tempo,,,,,10,1,0,,710059,,,,,,,
136556,note_on,,,,,56,0,1,,,,,0,,,86,0
136560,note_on,,,,,4,0,1,,,,,0,,,86,67
136570,set_tempo,,,,,35,1,0,,736196,,,,,,,
136590,set_tempo,,,,,20,1,0,,740740,,,,,,,
136612,note_on,,,,,52,0,1,,,,,0,,,86,0
136620,note_on,,,,,8,0,1,,,,,0,,,86,60
136620,set_tempo,,,,,30,1,0,,774193,,,,,,,
136660,set_tempo,,,,,40,1,0,,821917,,,,,,,
136672,note_on,,,,,52,0,1,,,,,0,,,86,0
136680,note_on,,,,,8,0,1,,,,,0,,,86,52
136700,set_tempo,,,,,40,1,0,,851063,,,,,,,
136732,note_on,,,,,52,0,1,,,,,0,,,86,0
136740,note_on,,,,,8,0,1,,,,,0,,,86,50
136755,set_tempo,,,,,55,1,0,,909090,,,,,,,
136792,note_on,,,,,52,0,1,,,,,0,,,86,0
136800,control_change,,,,,0,0,1,,,,,0,64,96,,
136800,note_on,,,,,0,0,1,,,,,0,,,71,75
136800,note_on,,,,,0,0,1,,,,,0,,,74,75
136800,note_on,,,,,8,0,1,,,,,0,,,79,75
136800,note_on,,,,,304,0,2,,,,,0,,,38,62
136800,set_tempo,,,,,45,1,0,,764331,,,,,,,
136800,note_on,,,,,0,0,2,,,,,0,,,50,62
136860,note_on,,,,,0,0,1,,,,,0,,,72,72
136860,note_on,,,,,0,0,1,,,,,0,,,79,72
136860,note_on,,,,,0,0,1,,,,,0,,,76,72
136860,note_on,,,,,0,0,1,,,,,0,,,79,0
136860,note_on,,,,,0,0,1,,,,,0,,,74,0
136860,note_on,,,,,60,0,1,,,,,0,,,71,0
136860,note_on,,,,,0,0,2,,,,,0,,,50,44
136860,note_on,,,,,0,0,2,,,,,0,,,38,44
136860,note_on,,,,,0,0,2,,,,,0,,,38,0
136860,note_on,,,,,60,0,2,,,,,0,,,50,0
136885,set_tempo,,,,,85,1,0,,736196,,,,,,,
136916,note_on,,,,,0,0,1,,,,,0,,,72,0
136916,note_on,,,,,0,0,2,,,,,0,,,38,0
136916,note_on,,,,,56,0,2,,,,,0,,,50,0
136916,note_on,,,,,56,0,1,,,,,0,,,79,0
136916,note_on,,,,,0,0,1,,,,,0,,,76,0
136920,note_on,,,,,0,0,2,,,,,0,,,50,46
136920,note_on,,,,,0,0,1,,,,,0,,,79,70
136920,note_on,,,,,0,0,1,,,,,0,,,76,70
136920,note_on,,,,,4,0,1,,,,,0,,,72,70
136920,note_on,,,,,4,0,2,,,,,0,,,38,46
136935,set_tempo,,,,,50,1,0,,736196,,,,,,,
136976,note_on,,,,,56,0,2,,,,,0,,,50,0
136976,note_on,,,,,0,0,1,,,,,0,,,76,0
136976,note_on,,,,,0,0,1,,,,,0,,,72,0
136976,note_on,,,,,0,0,2,,,,,0,,,38,0
136976,note_on,,,,,56,0,1,,,,,0,,,79,0
136978,control_change,,,,,2,0,1,,,,,0,64,0,,
136980,note_on,,,,,0,0,2,,,,,0,,,50,48
136980,note_on,,,,,4,0,2,,,,,0,,,38,48
136980,note_on,,,,,2,0,1,,,,,0,,,72,64
136980,note_on,,,,,0,0,1,,,,,0,,,76,64
136980,note_on,,,,,0,0,1,,,,,0,,,79,64
136980,control_change,,,,,0,0,1,,,,,0,64,95,,
136980,set_tempo,,,,,45,1,0,,722891,,,,,,,
137036,note_on,,,,,56,0,1,,,,,0,,,79,0
137036,note_on,,,,,0,0,1,,,,,0,,,76,0
137036,note_on,,,,,56,0,2,,,,,0,,,50,0
137036,note_on,,,,,0,0,2,,,,,0,,,38,0
137036,note_on,,,,,0,0,1,,,,,0,,,72,0
137040,set_tempo,,,,,60,1,0,,710059,,,,,,,
137040,note_on,,,,,4,0,2,,,,,0,,,38,53
137040,note_on,,,,,0,0,2,,,,,0,,,50,53
137040,note_on,,,,,0,0,1,,,,,0,,,81,59
137040,note_on,,,,,0,0,1,,,,,0,,,78,59
137040,note_on,,,,,4,0,1,,,,,0,,,72,59
137070,set_tempo,,,,,30,1,0,,710059,,,,,,,
137090,set_tempo,,,,,20,1,0,,697674,,,,,,,
137096,note_on,,,,,56,0,1,,,,,0,,,81,0
137096,note_on,,,,,0,0,1,,,,,0,,,78,0
137096,note_on,,,,,0,0,2,,,,,0,,,38,0
137096,note_on,,,,,56,0,2,,,,,0,,,50,0
137096,note_on,,,,,0,0,1,,,,,0,,,72,0
137100,note_on,,,,,4,0,2,,,,,0,,,38,46
137100,note_on,,,,,0,0,1,,,,,0,,,81,62
137100,note_on,,,,,0,0,1,,,,,0,,,78,62
137100,note_on,,,,,4,0,1,,,,,0,,,72,62
137100,note_on,,,,,0,0,2,,,,,0,,,50,46
137156,note_on,,,,,0,0,1,,,,,0,,,72,0
137156,note_on,,,,,0,0,1,,,,,0,,,78,0
137156,control_change,,,,,0,0,1,,,,,0,64,0,,
137156,note_on,,,,,56,0,2,,,,,0,,,50,0
137156,note_on,,,,,56,0,1,,,,,0,,,81,0
137156,note_on,,,,,0,0,2,,,,,0,,,38,0
137160,note_on,,,,,0,0,1,,,,,0,,,71,65
137160,note_on,,,,,4,0,2,,,,,0,,,43,44
137160,note_on,,,,,0,0,1,,,,,0,,,79,65
137160,note_on,,,,,0,0,2,,,,,0,,,50,44
137160,note_on,,,,,4,0,1,,,,,0,,,83,65
137170,set_tempo,,,,,80,1,0,,689655,,,,,,,
137180,set_tempo,,,,,10,1,0,,764331,,,,,,,
137216,note_on,,,,,0,0,2,,,,,0,,,43,0
137216,note_on,,,,,56,0,2,,,,,0,,,50,0
137216,note_on,,,,,0,0,1,,,,,0,,,71,0
137216,note_on,,,,,56,0,1,,,,,0,,,79,0
137220,note_on,,,,,0,0,1,,,,,0,,,79,55
137220,note_on,,,,,0,0,1,,,,,0,,,67,55
137220,note_on,,,,,4,0,1,,,,,0,,,83,0
137230,set_tempo,,,,,50,1,0,,821917,,,,,,,
137276,note_on,,,,,56,0,1,,,,,0,,,79,0
137276,note_on,,,,,0,0,1,,,,,0,,,67,0
137280,set_tempo,,,,,50,1,0,,875912,,,,,,,
137280,note_on,,,,,0,0,1,,,,,0,,,79,49
137280,note_on,,,,,4,0,1,,,,,0,,,67,49
137332,note_on,,,,,0,0,1,,,,,0,,,67,0
137332,note_on,,,,,52,0,1,,,,,0,,,79,0
137340,set_tempo,,,,,60,1,0,,930232,,,,,,,
137340,note_on,,,,,0,0,1,,,,,0,,,79,38
137340,note_on,,,,,8,0,1,,,,,0,,,67,38
137390,set_tempo,,,,,50,1,0,,991735,,,,,,,
137392,note_on,,,,,0,0,1,,,,,0,,,67,0
137392,note_on,,,,,52,0,1,,,,,0,,,79,0
137400,note_on,,,,,0,0,1,,,,,0,,,79,43
137400,note_on,,,,,8,0,1,,,,,0,,,67,43
137430,set_tempo,,,,,40,1,0,,1111111,,,,,,,
137452,note_on,,,,,52,0,1,,,,,0,,,79,0
137452,note_on,,,,,0,0,1,,,,,0,,,67,0
137460,note_on,,,,,244,0,2,,,,,0,,,59,44
137460,note_on,,,,,8,0,1,,,,,0,,,67,46
137460,note_on,,,,,0,0,1,,,,,0,,,79,46
137460,set_tempo,,,,,30,1,0,,857142,,,,,,,
137460,note_on,,,,,0,0,2,,,,,0,,,62,44
137470,set_tempo,,,,,10,1,0,,863309,,,,,,,
137512,note_on,,,,,0,0,1,,,,,0,,,67,0
137512,note_on,,,,,52,0,1,,,,,0,,,79,0
137512,note_on,,,,,52,0,2,,,,,0,,,62,0
137512,note_on,,,,,0,0,2,,,,,0,,,59,0
137520,note_on,,,,,0,0,1,,,,,0,,,78,50
137520,control_change,,,,,0,0,1,,,,,0,64,97,,
137520,note_on,,,,,8,0,2,,,,,0,,,50,54
137520,note_on,,,,,8,0,1,,,,,0,,,66,50
137540,set_tempo,,,,,70,1,0,,681818,,,,,,,
137545,set_tempo,,,,,5,1,0,,674157,,,,,,,
137580,note_on,,,,,60,0,2,,,,,0,,,50,0
137610,note_on,,,,,30,0,2,,,,,0,,,57,48
137610,note_on,,,,,0,0,2,,,,,0,,,60,48
137620,set_tempo,,,,,75,1,0,,659340,,,,,,,
137635,note_on,,,,,25,0,2,,,,,0,,,60,0
137635,note_on,,,,,0,0,2,,,,,0,,,57,0
137640,control_change,,,,,120,0,1,,,,,0,64,0,,
137640,note_on,,,,,5,0,2,,,,,0,,,57,46
137640,note_on,,,,,0,0,2,,,,,0,,,60,46
137700,note_on,,,,,0,0,1,,,,,0,,,66,0
137700,note_on,,,,,0,0,1,,,,,0,,,64,46
137700,note_on,,,,,0,0,1,,,,,0,,,76,46
137700,control_change,,,,,0,0,1,,,,,0,64,96,,
137700,note_on,,,,,0,0,2,,,,,0,,,50,56
137700,note_on,,,,,60,0,2,,,,,0,,,60,0
137700,note_on,,,,,0,0,2,,,,,0,,,57,0
137700,note_on,,,,,60,0,1,,,,,0,,,78,0
137725,set_tempo,,,,,105,1,0,,652173,,,,,,,
137760,note_on,,,,,60,0,2,,,,,0,,,50,0
137790,note_on,,,,,0,0,2,,,,,0,,,59,48
137790,note_on,,,,,30,0,2,,,,,0,,,55,48
137815,note_on,,,,,25,0,2,,,,,0,,,59,0
137815,note_on,,,,,0,0,2,,,,,0,,,55,0
137820,control_change,,,,,120,0,1,,,,,0,64,0,,
137820,note_on,,,,,5,0,2,,,,,0,,,55,47
137820,note_on,,,,,0,0,2,,,,,0,,,59,47
137880,note_on,,,,,0,0,1,,,,,0,,,74,50
137880,note_on,,,,,0,0,2,,,,,0,,,50,55
137880,note_on,,,,,0,0,2,,,,,0,,,55,0
137880,note_on,,,,,60,0,2,,,,,0,,,59,0
137880,note_on,,,,,60,0,1,,,,,0,,,76,0
137880,note_on,,,,,0,0,1,,,,,0,,,64,0
137880,note_on,,,,,0,0,1,,,,,0,,,62,50
137934,note_on,,,,,54,0,2,,,,,0,,,50,0
137934,note_on,,,,,54,0,1,,,,,0,,,74,0
137934,note_on,,,,,0,0,1,,,,,0,,,62,0
137940,note_on,,,,,6,0,2,,,,,0,,,50,45
137940,note_on,,,,,0,0,2,,,,,0,,,54,45
137940,note_on,,,,,0,0,2,,,,,0,,,57,45
137940,note_on,,,,,0,0,1,,,,,0,,,78,38
137940,note_on,,,,,6,0,1,,,,,0,,,66,38
137990,note_on,,,,,0,0,1,,,,,0,,,66,0
137990,note_on,,,,,50,0,1,,,,,0,,,78,0
137990,note_on,,,,,0,0,2,,,,,0,,,50,0
137990,note_on,,,,,0,0,2,,,,,0,,,54,0
137990,note_on,,,,,50,0,2,,,,,0,,,57,0
138000,note_on,,,,,0,0,2,,,,,0,,,52,47
138000,note_on,,,,,10,0,2,,,,,0,,,50,47
138000,note_on,,,,,10,0,1,,,,,0,,,67,43
138000,note_on,,,,,0,0,1,,,,,0,,,79,43
138000,note_on,,,,,0,0,2,,,,,0,,,55,47
138050,note_on,,,,,0,0,2,,,,,0,,,52,0
138050,note_on,,,,,0,0,2,,,,,0,,,50,0
138050,note_on,,,,,50,0,1,,,,,0,,,79,0
138050,note_on,,,,,50,0,2,,,,,0,,,55,0
138050,note_on,,,,,0,0,1,,,,,0,,,67,0
138060,note_on,,,,,0,0,1,,,,,0,,,81,44
138060,note_on,,,,,10,0,1,,,,,0,,,69,44
138060,note_on,,,,,0,0,2,,,,,0,,,54,51
138060,note_on,,,,,10,0,2,,,,,0,,,50,51
138060,note_on,,,,,0,0,2,,,,,0,,,57,51
138095,set_tempo,,,,,370,1,0,,638297,,,,,,,
138110,note_on,,,,,0,0,2,,,,,0,,,50,0
138110,note_on,,,,,0,0,2,,,,,0,,,54,0
138110,note_on,,,,,50,0,2,,,,,0,,,57,0
138110,note_on,,,,,50,0,1,,,,,0,,,81,0
138110,note_on,,,,,0,0,1,,,,,0,,,69,0
138120,note_on,,,,,0,0,2,,,,,0,,,59,55
138120,note_on,,,,,0,0,2,,,,,0,,,55,55
138120,note_on,,,,,10,0,2,,,,,0,,,50,55
138120,note_on,,,,,10,0,1,,,,,0,,,71,47
138120,note_on,,,,,0,0,1,,,,,0,,,83,47
138170,note_on,,,,,0,0,2,,,,,0,,,55,0
138170,note_on,,,,,0,0,1,,,,,0,,,71,0
138170,note_on,,,,,50,0,1,,,,,0,,,83,0
138170,note_on,,,,,50,0,2,,,,,0,,,59,0
138170,note_on,,,,,0,0,2,,,,,0,,,50,0
138175,set_tempo,,,,,80,1,0,,648648,,,,,,,
138180,note_on,,,,,0,0,1,,,,,0,,,84,49
138180,note_on,,,,,10,0,1,,,,,0,,,72,49
138180,note_on,,,,,10,0,2,,,,,0,,,50,58
138180,note_on,,,,,0,0,2,,,,,0,,,60,58
138180,note_on,,,,,0,0,2,,,,,0,,,57,58
138225,set_tempo,,,,,50,1,0,,662983,,,,,,,
138230,note_on,,,,,0,0,2,,,,,0,,,50,0
138230,note_on,,,,,0,0,2,,,,,0,,,57,0
138230,note_on,,,,,50,0,2,,,,,0,,,60,0
138230,note_on,,,,,0,0,1,,,,,0,,,72,0
138230,note_on,,,,,50,0,1,,,,,0,,,84,0
138240,control_change,,,,,0,0,1,,,,,0,64,96,,
138240,note_on,,,,,10,0,1,,,,,0,,,71,53
138240,note_on,,,,,10,0,2,,,,,0,,,50,61
138240,note_on,,,,,0,0,1,,,,,0,,,83,53
138300,note_on,,,,,60,0,2,,,,,0,,,50,0
138330,note_on,,,,,0,0,2,,,,,0,,,59,51
138330,note_on,,,,,30,0,2,,,,,0,,,55,51
138355,note_on,,,,,25,0,2,,,,,0,,,59,0
138355,note_on,,,,,0,0,2,,,,,0,,,55,0
138360,note_on,,,,,0,0,2,,,,,0,,,59,49
138360,note_on,,,,,5,0,2,,,,,0,,,55,49
138360,control_change,,,,,120,0,1,,,,,0,64,0,,
138420,note_on,,,,,0,0,2,,,,,0,,,55,0
138420,note_on,,,,,0,0,2,,,,,0,,,50,57
138420,note_on,,,,,60,0,2,,,,,0,,,59,0
138420,note_on,,,,,60,0,1,,,,,0,,,83,0
138420,control_change,,,,,0,0,1,,,,,0,64,96,,
138420,note_on,,,,,0,0,1,,,,,0,,,84,53
138420,note_on,,,,,0,0,1,,,,,0,,,72,53
138420,note_on,,,,,0,0,1,,,,,0,,,71,0
138480,note_on,,,,,60,0,2,,,,,0,,,50,0
138510,note_on,,,,,0,0,2,,,,,0,,,57,48
138510,note_on,,,,,30,0,2,,,,,0,,,60,48
138535,set_tempo,,,,,310,1,0,,662983,,,,,,,
138535,note_on,,,,,25,0,2,,,,,0,,,57,0
138535,note_on,,,,,0,0,2,,,,,0,,,60,0
138540,note_on,,,,,5,0,2,,,,,0,,,57,47
138540,note_on,,,,,0,0,2,,,,,0,,,60,47
138540,control_change,,,,,120,0,1,,,,,0,64,0,,
138590,set_tempo,,,,,55,1,0,,645161,,,,,,,
138595,set_tempo,,,,,5,1,0,,645161,,,,,,,
138600,note_on,,,,,0,0,2,,,,,0,,,50,55
138600,note_on,,,,,60,0,2,,,,,0,,,60,0
138600,note_on,,,,,0,0,2,,,,,0,,,57,0
138600,note_on,,,,,60,0,1,,,,,0,,,84,0
138600,note_on,,,,,0,0,1,,,,,0,,,72,0
138600,note_on,,,,,0,0,1,,,,,0,,,74,55
138600,note_on,,,,,0,0,1,,,,,0,,,86,55
138650,set_tempo,,,,,55,1,0,,634920,,,,,,,
138654,note_on,,,,,0,0,1,,,,,0,,,74,0
138654,note_on,,,,,54,0,1,,,,,0,,,86,0
138654,note_on,,,,,54,0,2,,,,,0,,,50,0
138660,note_on,,,,,6,0,2,,,,,0,,,59,43
138660,note_on,,,,,6,0,1,,,,,0,,,79,40
138660,note_on,,,,,0,0,1,,,,,0,,,91,40
138660,note_on,,,,,0,0,2,,,,,0,,,62,43
138717,note_on,,,,,0,0,1,,,,,0,,,79,0
138717,note_on,,,,,57,0,1,,,,,0,,,91,0
138720,note_on,,,,,60,0,2,,,,,0,,,62,0
138720,note_on,,,,,0,0,1,,,,,0,,,79,43
138720,note_on,,,,,0,0,2,,,,,0,,,61,47
138720,note_on,,,,,3,0,1,,,,,0,,,91,43
138720,note_on,,,,,0,0,2,,,,,0,,,58,47
138720,note_on,,,,,0,0,2,,,,,0,,,59,0
138777,note_on,,,,,0,0,1,,,,,0,,,91,0
138777,note_on,,,,,57,0,1,,,,,0,,,79,0
138780,note_on,,,,,3,0,1,,,,,0,,,91,48
138780,note_on,,,,,0,0,1,,,,,0,,,79,48
138780,note_on,,,,,0,0,2,,,,,0,,,58,0
138780,note_on,,,,,0,0,2,,,,,0,,,59,50
138780,note_on,,,,,0,0,2,,,,,0,,,62,50
138780,note_on,,,,,60,0,2,,,,,0,,,61,0
138837,note_on,,,,,57,0,1,,,,,0,,,79,0
138837,note_on,,,,,0,0,1,,,,,0,,,91,0
138840,note_on,,,,,0,0,1,,,,,0,,,79,51
138840,note_on,,,,,3,0,1,,,,,0,,,91,51
138840,note_on,,,,,60,0,2,,,,,0,,,62,0
138840,note_on,,,,,0,0,2,,,,,0,,,59,0
138840,note_on,,,,,0,0,2,,,,,0,,,60,53
138840,note_on,,,,,0,0,2,,,,,0,,,64,53
138885,set_tempo,,,,,235,1,0,,648648,,,,,,,
138897,note_on,,,,,57,0,1,,,,,0,,,79,0
138897,note_on,,,,,0,0,1,,,,,0,,,91,0
138900,note_on,,,,,3,0,1,,,,,0,,,91,54
138900,note_on,,,,,0,0,2,,,,,0,,,60,0
138900,note_on,,,,,0,0,2,,,,,0,,,59,57
138900,note_on,,,,,0,0,2,,,,,0,,,62,57
138900,note_on,,,,,0,0,1,,,,,0,,,79,54
138900,note_on,,,,,60,0,2,,,,,0,,,64,0
138935,set_tempo,,,,,50,1,0,,666666,,,,,,,
138957,note_on,,,,,57,0,1,,,,,0,,,79,0
138957,note_on,,,,,0,0,1,,,,,0,,,91,0
138960,note_on,,,,,3,0,1,,,,,0,,,78,59
138960,note_on,,,,,0,0,2,,,,,0,,,59,0
138960,note_on,,,,,0,0,1,,,,,0,,,90,59
138960,note_on,,,,,0,0,2,,,,,0,,,50,57
138960,control_change,,,,,0,0,1,,,,,0,64,97,,
138960,note_on,,,,,60,0,2,,,,,0,,,62,0
139020,note_on,,,,,60,0,2,,,,,0,,,50,0
139025,set_tempo,,,,,90,1,0,,652173,,,,,,,
139050,note_on,,,,,0,0,2,,,,,0,,,60,54
139050,note_on,,,,,30,0,2,,,,,0,,,57,54
139075,note_on,,,,,25,0,2,,,,,0,,,60,0
139075,note_on,,,,,0,0,2,,,,,0,,,57,0
139080,note_on,,,,,5,0,2,,,,,0,,,57,54
139080,note_on,,,,,0,0,2,,,,,0,,,60,54
139080,control_change,,,,,120,0,1,,,,,0,64,0,,
139105,set_tempo,,,,,80,1,0,,631578,,,,,,,
139140,note_on,,,,,60,0,2,,,,,0,,,60,0
139140,note_on,,,,,0,0,2,,,,,0,,,50,59
139140,note_on,,,,,0,0,2,,,,,0,,,57,0
139140,note_on,,,,,0,0,1,,,,,0,,,78,0
139140,note_on,,,,,0,0,1,,,,,0,,,76,58
139140,note_on,,,,,0,0,1,,,,,0,,,88,58
139140,control_change,,,,,0,0,1,,,,,0,64,96,,
139140,note_on,,,,,60,0,1,,,,,0,,,90,0
139200,note_on,,,,,60,0,2,,,,,0,,,50,0
139230,note_on,,,,,0,0,2,,,,,0,,,59,59
139230,note_on,,,,,30,0,2,,,,,0,,,55,59
139255,note_on,,,,,0,0,2,,,,,0,,,55,0
139255,note_on,,,,,25,0,2,,,,,0,,,59,0
139260,note_on,,,,,5,0,2,,,,,0,,,55,59
139260,control_change,,,,,120,0,1,,,,,0,64,0,,
139260,note_on,,,,,0,0,2,,,,,0,,,59,59
139320,note_on,,,,,60,0,2,,,,,0,,,59,0
139320,note_on,,,,,0,0,1,,,,,0,,,86,67
139320,note_on,,,,,0,0,1,,,,,0,,,74,67
139320,note_on,,,,,0,0,1,,,,,0,,,76,0
139320,note_on,,,,,60,0,1,,,,,0,,,88,0
139320,note_on,,,,,0,0,2,,,,,0,,,55,0
139320,note_on,,,,,0,0,2,,,,,0,,,50,63
139374,note_on,,,,,54,0,2,,,,,0,,,50,0
139374,note_on,,,,,0,0,1,,,,,0,,,74,0
139374,note_on,,,,,54,0,1,,,,,0,,,86,0
139380,note_on,,,,,6,0,2,,,,,0,,,50,57
139380,note_on,,,,,6,0,1,,,,,0,,,78,62
139380,note_on,,,,,0,0,1,,,,,0,,,90,62
139380,note_on,,,,,0,0,2,,,,,0,,,54,57
139380,note_on,,,,,0,0,2,,,,,0,,,57,57
139405,set_tempo,,,,,300,1,0,,631578,,,,,,,
139430,note_on,,,,,50,0,2,,,,,0,,,57,0
139430,note_on,,,,,0,0,2,,,,,0,,,54,0
139430,note_on,,,,,0,0,2,,,,,0,,,50,0
139430,note_on,,,,,0,0,1,,,,,0,,,78,0
139430,note_on,,,,,50,0,1,,,,,0,,,90,0
139440,note_on,,,,,0,0,2,,,,,0,,,52,63
139440,note_on,,,,,0,0,2,,,,,0,,,55,63
139440,note_on,,,,,10,0,2,,,,,0,,,50,63
139440,note_on,,,,,0,0,1,,,,,0,,,91,65
139440,note_on,,,,,10,0,1,,,,,0,,,79,65
139490,note_on,,,,,0,0,2,,,,,0,,,50,0
139490,note_on,,,,,0,0,2,,,,,0,,,52,0
139490,note_on,,,,,50,0,2,,,,,0,,,55,0
139490,note_on,,,,,50,0,1,,,,,0,,,91,0
139490,note_on,,,,,0,0,1,,,,,0,,,79,0
139500,note_on,,,,,0,0,1,,,,,0,,,93,68
139500,note_on,,,,,10,0,1,,,,,0,,,81,68
139500,note_on,,,,,10,0,2,,,,,0,,,50,63
139500,note_on,,,,,0,0,2,,,,,0,,,54,63
139500,note_on,,,,,0,0,2,,,,,0,,,57,63
139515,set_tempo,,,,,110,1,0,,645161,,,,,,,
139525,set_tempo,,,,,10,1,0,,641711,,,,,,,
139530,set_tempo,,,,,5,1,0,,645161,,,,,,,
139550,note_on,,,,,0,0,1,,,,,0,,,81,0
139550,note_on,,,,,0,0,2,,,,,0,,,54,0
139550,note_on,,,,,0,0,2,,,,,0,,,50,0
139550,note_on,,,,,50,0,1,,,,,0,,,93,0
139550,note_on,,,,,50,0,2,,,,,0,,,57,0
139560,note_on,,,,,10,0,1,,,,,0,,,83,70
139560,note_on,,,,,0,0,2,,,,,0,,,59,67
139560,note_on,,,,,0,0,2,,,,,0,,,55,67
139560,note_on,,,,,10,0,2,,,,,0,,,50,67
139560,note_on,,,,,0,0,1,,,,,0,,,95,70
139605,set_tempo,,,,,75,1,0,,659340,,,,,,,
139610,note_on,,,,,0,0,2,,,,,0,,,50,0
139610,note_on,,,,,0,0,2,,,,,0,,,55,0
139610,note_on,,,,,50,0,2,,,,,0,,,59,0
139610,note_on,,,,,50,0,1,,,,,0,,,95,0
139610,note_on,,,,,0,0,1,,,,,0,,,83,0
139620,note_on,,,,,0,0,2,,,,,0,,,60,69
139620,note_on,,,,,0,0,2,,,,,0,,,57,69
139620,note_on,,,,,10,0,1,,,,,0,,,84,73
139620,note_on,,,,,0,0,1,,,,,0,,,96,73
139620,note_on,,,,,10,0,2,,,,,0,,,50,69
139670,note_on,,,,,0,0,2,,,,,0,,,50,0
139670,note_on,,,,,0,0,2,,,,,0,,,57,0
139670,note_on,,,,,50,0,2,,,,,0,,,60,0
139670,note_on,,,,,50,0,1,,,,,0,,,96,0
139670,note_on,,,,,0,0,1,,,,,0,,,84,0
139680,note_on,,,,,10,0,2,,,,,0,,,50,71
139680,note_on,,,,,10,0,1,,,,,0,,,83,73
139680,note_on,,,,,0,0,1,,,,,0,,,95,73
139680,control_change,,,,,0,0,1,,,,,0,64,96,,
139700,set_tempo,,,,,95,1,0,,645161,,,,,,,
139735,set_tempo,,,,,35,1,0,,631578,,,,,,,
139740,note_on,,,,,60,0,2,,,,,0,,,50,0
139760,set_tempo,,,,,25,1,0,,625000,,,,,,,
139770,note_on,,,,,0,0,2,,,,,0,,,59,67
139770,note_on,,,,,30,0,2,,,,,0,,,55,67
139795,note_on,,,,,25,0,2,,,,,0,,,59,0
139795,note_on,,,,,0,0,2,,,,,0,,,55,0
139800,note_on,,,,,5,0,2,,,,,0,,,55,67
139800,note_on,,,,,0,0,2,,,,,0,,,59,67
139800,control_change,,,,,120,0,1,,,,,0,64,0,,
139860,note_on,,,,,60,0,2,,,,,0,,,59,0
139860,note_on,,,,,0,0,2,,,,,0,,,50,71
139860,note_on,,,,,60,0,1,,,,,0,,,95,0
139860,note_on,,,,,0,0,1,,,,,0,,,83,0
139860,note_on,,,,,0,0,1,,,,,0,,,84,72
139860,note_on,,,,,0,0,1,,,,,0,,,96,72
139860,control_change,,,,,0,0,1,,,,,0,64,96,,
139860,note_on,,,,,0,0,2,,,,,0,,,55,0
139880,set_tempo,,,,,120,1,0,,638297,,,,,,,
139920,note_on,,,,,60,0,2,,,,,0,,,50,0
139930,set_tempo,,,,,50,1,0,,655737,,,,,,,
139950,note_on,,,,,30,0,2,,,,,0,,,60,63
139950,note_on,,,,,0,0,2,,,,,0,,,57,63
139975,note_on,,,,,25,0,2,,,,,0,,,57,0
139975,note_on,,,,,0,0,2,,,,,0,,,60,0
139980,note_on,,,,,5,0,2,,,,,0,,,57,62
139980,note_on,,,,,0,0,2,,,,,0,,,60,62
139980,control_change,,,,,120,0,1,,,,,0,64,0,,
140040,note_on,,,,,60,0,2,,,,,0,,,60,0
140040,note_on,,,,,0,0,2,,,,,0,,,57,0
140040,note_on,,,,,0,0,2,,,,,0,,,50,67
140040,note_on,,,,,0,0,1,,,,,0,,,84,0
140040,note_on,,,,,60,0,1,,,,,0,,,96,0
140040,note_on,,,,,0,0,1,,,,,0,,,98,71
140040,note_on,,,,,0,0,1,,,,,0,,,86,71
140050,set_tempo,,,,,120,1,0,,670391,,,,,,,
140094,note_on,,,,,54,0,1,,,,,0,,,98,0
140094,note_on,,,,,54,0,2,,,,,0,,,50,0
140094,note_on,,,,,0,0,1,,,,,0,,,86,0
140100,note_on,,,,,6,0,2,,,,,0,,,59,64
140100,note_on,,,,,6,0,1,,,,,0,,,74,67
140100,note_on,,,,,0,0,1,,,,,0,,,86,67
140100,note_on,,,,,0,0,2,,,,,0,,,62,64
140145,set_tempo,,,,,95,1,0,,685714,,,,,,,
140157,note_on,,,,,57,0,1,,,,,0,,,86,0
140157,note_on,,,,,0,0,1,,,,,0,,,74,0
140160,note_on,,,,,0,0,2,,,,,0,,,58,60
140160,note_on,,,,,60,0,2,,,,,0,,,62,0
140160,note_on,,,,,3,0,1,,,,,0,,,74,63
140160,note_on,,,,,0,0,1,,,,,0,,,86,63
140160,note_on,,,,,0,0,2,,,,,0,,,61,60
140160,note_on,,,,,0,0,2,,,,,0,,,59,0
140200,set_tempo,,,,,55,1,0,,710059,,,,,,,
140217,note_on,,,,,57,0,1,,,,,0,,,86,0
140217,note_on,,,,,0,0,1,,,,,0,,,74,0
140220,note_on,,,,,0,0,2,,,,,0,,,59,56
140220,note_on,,,,,0,0,2,,,,,0,,,62,56
140220,note_on,,,,,0,0,2,,,,,0,,,58,0
140220,note_on,,,,,60,0,2,,,,,0,,,61,0
140220,note_on,,,,,3,0,1,,,,,0,,,74,54
140220,note_on,,,,,0,0,1,,,,,0,,,86,54
140277,note_on,,,,,0,0,1,,,,,0,,,74,0
140277,note_on,,,,,57,0,1,,,,,0,,,86,0
140280,note_on,,,,,60,0,2,,,,,0,,,62,0
140280,note_on,,,,,0,0,2,,,,,0,,,59,0
140280,note_on,,,,,0,0,2,,,,,0,,,64,51
140280,note_on,,,,,0,0,1,,,,,0,,,86,48
140280,note_on,,,,,3,0,1,,,,,0,,,74,48
140280,note_on,,,,,0,0,2,,,,,0,,,60,51
140290,set_tempo,,,,,90,1,0,,731707,,,,,,,
140337,note_on,,,,,0,0,1,,,,,0,,,74,0
140337,note_on,,,,,57,0,1,,,,,0,,,86,0
140340,note_on,,,,,0,0,1,,,,,0,,,86,38
140340,note_on,,,,,3,0,1,,,,,0,,,74,38
140340,note_on,,,,,0,0,2,,,,,0,,,62,48
140340,note_on,,,,,0,0,2,,,,,0,,,59,48
140340,note_on,,,,,60,0,2,,,,,0,,,64,0
140340,note_on,,,,,0,0,2,,,,,0,,,60,0
140380,set_tempo,,,,,90,1,0,,1008403,,,,,,,
140397,note_on,,,,,0,0,1,,,,,0,,,74,0
140397,note_on,,,,,57,0,1,,,,,0,,,86,0
140400,set_tempo,,,,,20,1,0,,693641,,,,,,,
140400,control_change,,,,,0,0,1,,,,,0,64,95,,
140400,note_on,,,,,0,0,1,,,,,0,,,76,60
140400,note_on,,,,,3,0,1,,,,,0,,,88,60
140400,note_on,,,,,60,0,2,,,,,0,,,62,0
140400,note_on,,,,,0,0,2,,,,,0,,,50,38
140400,note_on,,,,,0,0,2,,,,,0,,,59,0
140405,set_tempo,,,,,5,1,0,,689655,,,,,,,
140460,note_on,,,,,60,0,2,,,,,0,,,50,0
140490,note_on,,,,,0,0,2,,,,,0,,,62,49
140490,note_on,,,,,30,0,2,,,,,0,,,64,49
140490,note_on,,,,,0,0,2,,,,,0,,,59,49
140495,set_tempo,,,,,90,1,0,,681818,,,,,,,
140515,note_on,,,,,0,0,2,,,,,0,,,64,0
140515,note_on,,,,,25,0,2,,,,,0,,,59,0
140515,note_on,,,,,0,0,2,,,,,0,,,62,0
140520,note_on,,,,,0,0,2,,,,,0,,,59,52
140520,note_on,,,,,0,0,2,,,,,0,,,62,52
140520,note_on,,,,,5,0,2,,,,,0,,,64,52
140520,control_change,,,,,120,0,1,,,,,0,64,0,,
140570,set_tempo,,,,,75,1,0,,670391,,,,,,,
140580,note_on,,,,,60,0,1,,,,,0,,,76,0
140580,note_on,,,,,0,0,2,,,,,0,,,50,55
140580,note_on,,,,,0,0,2,,,,,0,,,64,0
140580,note_on,,,,,0,0,2,,,,,0,,,62,0
140580,note_on,,,,,60,0,2,,,,,0,,,59,0
140580,note_on,,,,,0,0,1,,,,,0,,,88,0
140580,control_change,,,,,0,0,1,,,,,0,64,96,,
140580,note_on,,,,,0,0,1,,,,,0,,,88,68
140580,note_on,,,,,0,0,1,,,,,0,,,100,68
140640,note_on,,,,,60,0,2,,,,,0,,,50,0
140670,note_on,,,,,0,0,2,,,,,0,,,59,57
140670,note_on,,,,,0,0,2,,,,,0,,,56,57
140670,note_on,,,,,0,0,2,,,,,0,,,62,57
140670,note_on,,,,,30,0,2,,,,,0,,,64,57
140685,set_tempo,,,,,115,1,0,,659340,,,,,,,
140690,set_tempo,,,,,5,1,0,,655737,,,,,,,
140695,note_on,,,,,0,0,2,,,,,0,,,56,0
140695,note_on,,,,,0,0,2,,,,,0,,,64,0
140695,note_on,,,,,25,0,2,,,,,0,,,59,0
140695,note_on,,,,,0,0,2,,,,,0,,,62,0
140700,note_on,,,,,5,0,2,,,,,0,,,64,57
140700,note_on,,,,,0,0,2,,,,,0,,,62,57
140700,note_on,,,,,0,0,2,,,,,0,,,59,57
140700,note_on,,,,,0,0,2,,,,,0,,,56,57
140702,control_change,,,,,122,0,1,,,,,0,64,0,,
140760,note_on,,,,,0,0,2,,,,,0,,,59,0
140760,note_on,,,,,0,0,2,,,,,0,,,62,0
140760,note_on,,,,,0,0,1,,,,,0,,,98,64
140760,note_on,,,,,0,0,1,,,,,0,,,100,0
140760,note_on,,,,,58,0,1,,,,,0,,,88,0
140760,note_on,,,,,0,0,2,,,,,0,,,50,59
140760,note_on,,,,,0,0,1,,,,,0,,,86,64
140760,note_on,,,,,60,0,2,,,,,0,,,56,0
140760,note_on,,,,,0,0,2,,,,,0,,,64,0
140814,note_on,,,,,54,0,1,,,,,0,,,86,0
140814,note_on,,,,,0,0,1,,,,,0,,,98,0
140814,note_on,,,,,54,0,2,,,,,0,,,50,0
140820,note_on,,,,,6,0,2,,,,,0,,,60,56
140820,note_on,,,,,0,0,2,,,,,0,,,57,56
140820,note_on,,,,,6,0,1,,,,,0,,,96,62
140820,note_on,,,,,0,0,1,,,,,0,,,84,62
140830,set_tempo,,,,,140,1,0,,652173,,,,,,,
140835,set_tempo,,,,,5,1,0,,638297,,,,,,,
140877,note_on,,,,,57,0,1,,,,,0,,,84,0
140877,note_on,,,,,0,0,1,,,,,0,,,96,0
140880,note_on,,,,,0,0,2,,,,,0,,,62,53
140880,note_on,,,,,3,0,1,,,,,0,,,83,58
140880,note_on,,,,,0,0,1,,,,,0,,,95,58
140880,note_on,,,,,0,0,2,,,,,0,,,60,0
140880,note_on,,,,,60,0,2,,,,,0,,,57,0
140880,note_on,,,,,0,0,2,,,,,0,,,59,53
140930,set_tempo,,,,,95,1,0,,648648,,,,,,,
140937,note_on,,,,,57,0,1,,,,,0,,,95,0
140937,note_on,,,,,0,0,1,,,,,0,,,83,0
140940,note_on,,,,,60,0,2,,,,,0,,,59,0
140940,note_on,,,,,0,0,2,,,,,0,,,62,0
140940,note_on,,,,,0,0,2,,,,,0,,,64,50
140940,note_on,,,,,0,0,2,,,,,0,,,60,50
140940,note_on,,,,,3,0,1,,,,,0,,,81,54
140940,note_on,,,,,0,0,1,,,,,0,,,93,54
140965,set_tempo,,,,,35,1,0,,662983,,,,,,,
140997,note_on,,,,,57,0,1,,,,,0,,,93,0
140997,note_on,,,,,0,0,1,,,,,0,,,81,0
141000,note_on,,,,,0,0,2,,,,,0,,,62,48
141000,note_on,,,,,0,0,2,,,,,0,,,64,0
141000,note_on,,,,,0,0,1,,,,,0,,,95,48
141000,note_on,,,,,3,0,1,,,,,0,,,83,48
141000,note_on,,,,,0,0,2,,,,,0,,,59,48
141000,note_on,,,,,60,0,2,,,,,0,,,60,0
141020,set_tempo,,,,,55,1,0,,681818,,,,,,,
141055,set_tempo,,,,,35,1,0,,701754,,,,,,,
141057,note_on,,,,,0,0,1,,,,,0,,,83,0
141057,note_on,,,,,57,0,1,,,,,0,,,95,0
141060,note_on,,,,,60,0,2,,,,,0,,,59,0
141060,note_on,,,,,0,0,2,,,,,0,,,62,0
141060,note_on,,,,,0,0,2,,,,,0,,,60,46
141060,note_on,,,,,0,0,1,,,,,0,,,96,39
141060,note_on,,,,,0,0,2,,,,,0,,,57,46
141060,note_on,,,,,3,0,1,,,,,0,,,84,39
141090,set_tempo,,,,,35,1,0,,693641,,,,,,,
141100,set_tempo,,,,,10,1,0,,851063,,,,,,,
141117,note_on,,,,,0,0,1,,,,,0,,,84,0
141117,note_on,,,,,57,0,1,,,,,0,,,96,0
141120,control_change,,,,,0,0,1,,,,,0,64,95,,
141120,note_on,,,,,0,0,1,,,,,0,,,86,57
141120,set_tempo,,,,,20,1,0,,655737,,,,,,,
141120,note_on,,,,,3,0,1,,,,,0,,,74,57
141120,note_on,,,,,60,0,2,,,,,0,,,57,0
141120,note_on,,,,,0,0,2,,,,,0,,,50,40
141120,note_on,,,,,0,0,2,,,,,0,,,60,0
141125,set_tempo,,,,,5,1,0,,659340,,,,,,,
141180,note_on,,,,,60,0,2,,,,,0,,,50,0
141210,note_on,,,,,0,0,2,,,,,0,,,62,49
141210,note_on,,,,,0,0,2,,,,,0,,,57,49
141210,note_on,,,,,30,0,2,,,,,0,,,60,49
141220,set_tempo,,,,,95,1,0,,648648,,,,,,,
141235,note_on,,,,,0,0,2,,,,,0,,,60,0
141235,note_on,,,,,25,0,2,,,,,0,,,62,0
141235,note_on,,,,,0,0,2,,,,,0,,,57,0
141240,note_on,,,,,0,0,2,,,,,0,,,62,52
141240,note_on,,,,,5,0,2,,,,,0,,,60,52
141240,control_change,,,,,120,0,1,,,,,0,64,0,,
141240,note_on,,,,,0,0,2,,,,,0,,,57,52
141245,set_tempo,,,,,25,1,0,,645161,,,,,,,
141250,set_tempo,,,,,5,1,0,,641711,,,,,,,
141255,set_tempo,,,,,5,1,0,,638297,,,,,,,
141300,note_on,,,,,60,0,2,,,,,0,,,62,0
141300,note_on,,,,,0,0,2,,,,,0,,,60,0
141300,note_on,,,,,0,0,2,,,,,0,,,50,52
141300,note_on,,,,,0,0,2,,,,,0,,,57,0
141300,note_on,,,,,0,0,1,,,,,0,,,74,0
141300,note_on,,,,,0,0,1,,,,,0,,,98,64
141300,note_on,,,,,0,0,1,,,,,0,,,86,64
141300,control_change,,,,,0,0,1,,,,,0,64,96,,
141300,note_on,,,,,60,0,1,,,,,0,,,86,0
141315,set_tempo,,,,,60,1,0,,628272,,,,,,,
141360,note_on,,,,,60,0,2,,,,,0,,,50,0
141375,set_tempo,,,,,60,1,0,,638297,,,,,,,
141390,note_on,,,,,30,0,2,,,,,0,,,60,47
141390,note_on,,,,,0,0,2,,,,,0,,,57,47
141390,note_on,,,,,0,0,2,,,,,0,,,54,47
141390,note_on,,,,,0,0,2,,,,,0,,,62,47
141415,note_on,,,,,0,0,2,,,,,0,,,54,0
141415,note_on,,,,,0,0,2,,,,,0,,,57,0
141415,note_on,,,,,25,0,2,,,,,0,,,62,0
141415,note_on,,,,,0,0,2,,,,,0,,,60,0
141420,note_on,,,,,5,0,2,,,,,0,,,62,46
141420,note_on,,,,,0,0,2,,,,,0,,,60,46
141420,note_on,,,,,0,0,2,,,,,0,,,57,46
141420,note_on,,,,,0,0,2,,,,,0,,,54,46
141422,control_change,,,,,122,0,1,,,,,0,64,0,,
141430,set_tempo,,,,,55,1,0,,648648,,,,,,,
141480,note_on,,,,,58,0,1,,,,,0,,,86,0
141480,note_on,,,,,0,0,1,,,,,0,,,98,0
141480,note_on,,,,,0,0,1,,,,,0,,,96,57
141480,note_on,,,,,0,0,1,,,,,0,,,84,57
141480,note_on,,,,,0,0,2,,,,,0,,,62,0
141480,note_on,,,,,60,0,2,,,,,0,,,54,0
141480,note_on,,,,,0,0,2,,,,,0,,,60,0
141480,note_on,,,,,0,0,2,,,,,0,,,57,0
141480,note_on,,,,,0,0,2,,,,,0,,,50,51
141520,set_tempo,,,,,90,1,0,,659340,,,,,,,
141534,note_on,,,,,0,0,1,,,,,0,,,96,0
141534,note_on,,,,,54,0,2,,,,,0,,,50,0
141534,note_on,,,,,54,0,1,,,,,0,,,84,0
141540,note_on,,,,,0,0,1,,,,,0,,,95,55
141540,note_on,,,,,6,0,1,,,,,0,,,83,55
141540,note_on,,,,,6,0,2,,,,,0,,,59,48
141540,note_on,,,,,0,0,2,,,,,0,,,55,48
141597,note_on,,,,,57,0,1,,,,,0,,,95,0
141597,note_on,,,,,0,0,1,,,,,0,,,83,0
141600,note_on,,,,,0,0,1,,,,,0,,,81,51
141600,note_on,,,,,3,0,1,,,,,0,,,93,51
141600,note_on,,,,,60,0,2,,,,,0,,,55,0
141600,note_on,,,,,0,0,2,,,,,0,,,59,0
141600,note_on,,,,,0,0,2,,,,,0,,,60,46
141600,note_on,,,,,0,0,2,,,,,0,,,57,46
141630,set_tempo,,,,,110,1,0,,677966,,,,,,,
141657,note_on,,,,,57,0,1,,,,,0,,,81,0
141657,note_on,,,,,0,0,1,,,,,0,,,93,0
141660,note_on,,,,,3,0,1,,,,,0,,,79,47
141660,note_on,,,,,0,0,1,,,,,0,,,91,47
141660,note_on,,,,,60,0,2,,,,,0,,,57,0
141660,note_on,,,,,0,0,2,,,,,0,,,60,0
141660,note_on,,,,,0,0,2,,,,,0,,,62,42
141660,note_on,,,,,0,0,2,,,,,0,,,59,42
141717,note_on,,,,,57,0,1,,,,,0,,,91,0
141717,note_on,,,,,0,0,1,,,,,0,,,79,0
141720,note_on,,,,,3,0,1,,,,,0,,,93,43
141720,note_on,,,,,0,0,1,,,,,0,,,81,43
141720,note_on,,,,,0,0,2,,,,,0,,,62,0
141720,note_on,,,,,0,0,2,,,,,0,,,60,38
141720,note_on,,,,,0,0,2,,,,,0,,,57,38
141720,note_on,,,,,60,0,2,,,,,0,,,59,0
141725,set_tempo,,,,,95,1,0,,697674,,,,,,,
141777,note_on,,,,,57,0,1,,,,,0,,,81,0
141777,note_on,,,,,0,0,1,,,,,0,,,93,0
141780,note_on,,,,,0,0,2,,,,,0,,,55,34
141780,note_on,,,,,3,0,1,,,,,0,,,83,42
141780,note_on,,,,,0,0,1,,,,,0,,,95,42
141780,note_on,,,,,0,0,2,,,,,0,,,59,34
141780,note_on,,,,,60,0,2,,,,,0,,,57,0
141780,note_on,,,,,0,0,2,,,,,0,,,60,0
141810,set_tempo,,,,,85,1,0,,705882,,,,,,,
141830,set_tempo,,,,,20,1,0,,710059,,,,,,,
141837,note_on,,,,,57,0,1,,,,,0,,,95,0
141837,note_on,,,,,0,0,1,,,,,0,,,83,0
141840,note_on,,,,,0,0,2,,,,,0,,,59,0
141840,note_on,,,,,60,0,2,,,,,0,,,55,0
141840,set_tempo,,,,,10,1,0,,670391,,,,,,,
141840,control_change,,,,,0,0,1,,,,,0,64,96,,
141840,note_on,,,,,0,0,1,,,,,0,,,83,50
141840,note_on,,,,,3,0,1,,,,,0,,,71,50
141840,note_on,,,,,0,0,2,,,,,0,,,50,37
141900,note_on,,,,,60,0,2,,,,,0,,,50,0
141920,set_tempo,,,,,80,1,0,,659340,,,,,,,
141930,note_on,,,,,0,0,2,,,,,0,,,55,39
141930,note_on,,,,,30,0,2,,,,,0,,,59,39
141955,note_on,,,,,25,0,2,,,,,0,,,55,0
141955,note_on,,,,,0,0,2,,,,,0,,,59,0
141958,control_change,,,,,118,0,1,,,,,0,64,0,,
141960,note_on,,,,,5,0,2,,,,,0,,,59,41
141960,note_on,,,,,0,0,2,,,,,0,,,55,41
141975,set_tempo,,,,,55,1,0,,648648,,,,,,,
142020,note_on,,,,,0,0,1,,,,,0,,,84,57
142020,note_on,,,,,0,0,1,,,,,0,,,72,57
142020,control_change,,,,,0,0,1,,,,,0,64,95,,
142020,note_on,,,,,62,0,1,,,,,0,,,83,0
142020,note_on,,,,,0,0,2,,,,,0,,,50,43
142020,note_on,,,,,0,0,2,,,,,0,,,59,0
142020,note_on,,,,,60,0,2,,,,,0,,,55,0
142020,note_on,,,,,0,0,1,,,,,0,,,71,0
142035,set_tempo,,,,,60,1,0,,621761,,,,,,,
142080,note_on,,,,,60,0,2,,,,,0,,,50,0
142110,note_on,,,,,30,0,2,,,,,0,,,60,46
142110,note_on,,,,,0,0,2,,,,,0,,,57,46
142135,note_on,,,,,0,0,2,,,,,0,,,60,0
142135,note_on,,,,,25,0,2,,,,,0,,,57,0
142140,control_change,,,,,120,0,1,,,,,0,64,0,,
142140,note_on,,,,,0,0,2,,,,,0,,,57,48
142140,note_on,,,,,5,0,2,,,,,0,,,60,48
142195,set_tempo,,,,,160,1,0,,625000,,,,,,,
142200,note_on,,,,,0,0,2,,,,,0,,,50,51
142200,note_on,,,,,60,0,1,,,,,0,,,72,0
142200,note_on,,,,,0,0,1,,,,,0,,,84,0
142200,note_on,,,,,0,0,1,,,,,0,,,73,62
142200,note_on,,,,,60,0,2,,,,,0,,,57,0
142200,note_on,,,,,0,0,1,,,,,0,,,85,62
142200,note_on,,,,,0,0,2,,,,,0,,,60,0
142254,note_on,,,,,54,0,2,,,,,0,,,50,0
142260,note_on,,,,,0,0,1,,,,,0,,,73,0
142260,note_on,,,,,0,0,1,,,,,0,,,88,53
142260,note_on,,,,,6,0,2,,,,,0,,,58,50
142260,note_on,,,,,0,0,2,,,,,0,,,61,50
142260,note_on,,,,,60,0,1,,,,,0,,,85,0
142260,note_on,,,,,0,0,1,,,,,0,,,76,53
142270,set_tempo,,,,,75,1,0,,638297,,,,,,,
142317,note_on,,,,,57,0,1,,,,,0,,,88,0
142317,note_on,,,,,0,0,1,,,,,0,,,76,0
142320,note_on,,,,,60,0,2,,,,,0,,,61,0
142320,note_on,,,,,0,0,2,,,,,0,,,58,0
142320,note_on,,,,,0,0,2,,,,,0,,,59,47
142320,note_on,,,,,0,0,2,,,,,0,,,62,47
142320,note_on,,,,,3,0,1,,,,,0,,,74,50
142320,note_on,,,,,0,0,1,,,,,0,,,86,50
142375,note_on,,,,,55,0,1,,,,,0,,,86,0
142375,note_on,,,,,0,0,1,,,,,0,,,74,0
142375,note_on,,,,,55,0,2,,,,,0,,,62,0
142375,note_on,,,,,0,0,2,,,,,0,,,59,0
142380,note_on,,,,,5,0,1,,,,,0,,,74,44
142380,note_on,,,,,0,0,2,,,,,0,,,62,41
142380,note_on,,,,,0,0,1,,,,,0,,,86,44
142380,note_on,,,,,5,0,2,,,,,0,,,59,41
142385,set_tempo,,,,,115,1,0,,648648,,,,,,,
142432,note_on,,,,,0,0,1,,,,,0,,,74,0
142432,note_on,,,,,52,0,2,,,,,0,,,62,0
142432,note_on,,,,,0,0,2,,,,,0,,,59,0
142432,note_on,,,,,52,0,1,,,,,0,,,86,0
142440,note_on,,,,,8,0,1,,,,,0,,,74,38
142440,note_on,,,,,0,0,1,,,,,0,,,86,38
142440,note_on,,,,,8,0,2,,,,,0,,,59,34
142440,note_on,,,,,0,0,2,,,,,0,,,62,34
142455,set_tempo,,,,,70,1,0,,666666,,,,,,,
142492,note_on,,,,,0,0,2,,,,,0,,,59,0
142492,note_on,,,,,52,0,2,,,,,0,,,62,0
142492,note_on,,,,,52,0,1,,,,,0,,,86,0
142492,note_on,,,,,0,0,1,,,,,0,,,74,0
142500,note_on,,,,,0,0,2,,,,,0,,,62,28
142500,note_on,,,,,8,0,2,,,,,0,,,59,28
142500,note_on,,,,,0,0,1,,,,,0,,,86,34
142500,note_on,,,,,8,0,1,,,,,0,,,74,34
142552,note_on,,,,,0,0,1,,,,,0,,,74,0
142552,note_on,,,,,0,0,2,,,,,0,,,59,0
142552,note_on,,,,,52,0,2,,,,,0,,,62,0
142552,note_on,,,,,52,0,1,,,,,0,,,86,0
142560,note_on,,,,,0,0,1,,,,,0,,,88,53
142560,note_on,,,,,8,0,1,,,,,0,,,76,53
142560,control_change,,,,,0,0,1,,,,,0,64,96,,
142560,note_on,,,,,8,0,2,,,,,0,,,50,41
142620,note_on,,,,,60,0,2,,,,,0,,,50,0
142650,note_on,,,,,0,0,2,,,,,0,,,64,50
142650,note_on,,,,,30,0,2,,,,,0,,,60,50
142665,set_tempo,,,,,210,1,0,,652173,,,,,,,
142675,note_on,,,,,25,0,2,,,,,0,,,64,0
142675,note_on,,,,,0,0,2,,,,,0,,,60,0
142678,control_change,,,,,118,0,1,,,,,0,64,0,,
142680,note_on,,,,,0,0,2,,,,,0,,,64,50
142680,note_on,,,,,5,0,2,,,,,0,,,60,50
142740,note_on,,,,,60,0,2,,,,,0,,,64,0
142740,note_on,,,,,0,0,2,,,,,0,,,60,0
142740,note_on,,,,,0,0,2,,,,,0,,,50,53
142740,note_on,,,,,62,0,1,,,,,0,,,88,0
142740,control_change,,,,,0,0,1,,,,,0,64,95,,
142740,note_on,,,,,0,0,1,,,,,0,,,90,59
142740,note_on,,,,,0,0,1,,,,,0,,,78,59
142740,note_on,,,,,0,0,1,,,,,0,,,76,0
142765,set_tempo,,,,,100,1,0,,631578,,,,,,,
142800,note_on,,,,,60,0,2,,,,,0,,,50,0
142830,note_on,,,,,0,0,2,,,,,0,,,57,53
142830,note_on,,,,,30,0,2,,,,,0,,,66,53
142855,note_on,,,,,0,0,2,,,,,0,,,66,0
142855,note_on,,,,,25,0,2,,,,,0,,,57,0
142860,control_change,,,,,120,0,1,,,,,0,64,0,,
142860,note_on,,,,,5,0,2,,,,,0,,,66,53
142860,note_on,,,,,0,0,2,,,,,0,,,57,53
142875,set_tempo,,,,,110,1,0,,625000,,,,,,,
142920,note_on,,,,,0,0,2,,,,,0,,,66,0
142920,note_on,,,,,0,0,2,,,,,0,,,50,52
142920,note_on,,,,,60,0,2,,,,,0,,,57,0
142920,note_on,,,,,0,0,1,,,,,0,,,90,71
142920,note_on,,,,,0,0,1,,,,,0,,,78,0
142920,note_on,,,,,60,0,1,,,,,0,,,90,0
142920,note_on,,,,,0,0,1,,,,,0,,,78,71
142974,note_on,,,,,54,0,2,,,,,0,,,50,0
142980,note_on,,,,,6,0,2,,,,,0,,,57,48
142980,note_on,,,,,60,0,1,,,,,0,,,90,0
142980,note_on,,,,,0,0,1,,,,,0,,,78,0
142980,note_on,,,,,0,0,1,,,,,0,,,81,61
142980,note_on,,,,,0,0,1,,,,,0,,,93,61
142980,note_on,,,,,0,0,2,,,,,0,,,66,48
143010,set_tempo,,,,,135,1,0,,638297,,,,,,,
143015,set_tempo,,,,,5,1,0,,641711,,,,,,,
143037,note_on,,,,,0,0,1,,,,,0,,,81,0
143037,note_on,,,,,57,0,1,,,,,0,,,93,0
143040,note_on,,,,,60,0,2,,,,,0,,,66,0
143040,note_on,,,,,0,0,2,,,,,0,,,57,0
143040,note_on,,,,,0,0,2,,,,,0,,,67,45
143040,note_on,,,,,0,0,2,,,,,0,,,59,45
143040,note_on,,,,,0,0,1,,,,,0,,,91,55
143040,note_on,,,,,3,0,1,,,,,0,,,79,55
143095,note_on,,,,,55,0,2,,,,,0,,,59,0
143095,note_on,,,,,55,0,1,,,,,0,,,91,0
143095,note_on,,,,,0,0,1,,,,,0,,,79,0
143095,note_on,,,,,0,0,2,,,,,0,,,67,0
143095,set_tempo,,,,,80,1,0,,659340,,,,,,,
143100,note_on,,,,,5,0,2,,,,,0,,,67,41
143100,note_on,,,,,0,0,2,,,,,0,,,59,41
143100,note_on,,,,,5,0,1,,,,,0,,,79,48
143100,note_on,,,,,0,0,1,,,,,0,,,91,48
143152,note_on,,,,,0,0,1,,,,,0,,,79,0
143152,note_on,,,,,52,0,1,,,,,0,,,91,0
143152,note_on,,,,,52,0,2,,,,,0,,,59,0
143152,note_on,,,,,0,0,2,,,,,0,,,67,0
143160,note_on,,,,,0,0,1,,,,,0,,,91,43
143160,note_on,,,,,8,0,2,,,,,0,,,67,33
143160,note_on,,,,,0,0,2,,,,,0,,,59,33
143160,note_on,,,,,8,0,1,,,,,0,,,79,43
143205,set_tempo,,,,,110,1,0,,674157,,,,,,,
143212,note_on,,,,,0,0,1,,,,,0,,,79,0
143212,note_on,,,,,52,0,1,,,,,0,,,91,0
143212,note_on,,,,,0,0,2,,,,,0,,,67,0
143212,note_on,,,,,52,0,2,,,,,0,,,59,0
143220,note_on,,,,,0,0,1,,,,,0,,,91,35
143220,note_on,,,,,8,0,1,,,,,0,,,79,35
143220,note_on,,,,,0,0,2,,,,,0,,,59,29
143220,note_on,,,,,8,0,2,,,,,0,,,67,29
143272,note_on,,,,,52,0,2,,,,,0,,,59,0
143272,note_on,,,,,0,0,2,,,,,0,,,67,0
143272,note_on,,,,,0,0,1,,,,,0,,,79,0
143272,note_on,,,,,52,0,1,,,,,0,,,91,0
143280,note_on,,,,,8,0,1,,,,,0,,,81,57
143280,control_change,,,,,0,0,1,,,,,0,64,96,,
143280,note_on,,,,,0,0,1,,,,,0,,,93,57
143280,note_on,,,,,8,0,2,,,,,0,,,50,45
143300,set_tempo,,,,,95,1,0,,666666,,,,,,,
143340,note_on,,,,,60,0,2,,,,,0,,,50,0
143340,set_tempo,,,,,40,1,0,,662983,,,,,,,
143370,note_on,,,,,0,0,2,,,,,0,,,60,39
143370,note_on,,,,,30,0,2,,,,,0,,,69,39
143395,note_on,,,,,25,0,2,,,,,0,,,60,0
143395,set_tempo,,,,,55,1,0,,641711,,,,,,,
143395,note_on,,,,,0,0,2,,,,,0,,,69,0
143398,control_change,,,,,118,0,1,,,,,0,64,0,,
143400,note_on,,,,,0,0,2,,,,,0,,,60,41
143400,note_on,,,,,5,0,2,,,,,0,,,69,41
143450,set_tempo,,,,,55,1,0,,628272,,,,,,,
143460,note_on,,,,,60,0,2,,,,,0,,,60,0
143460,note_on,,,,,62,0,1,,,,,0,,,93,0
143460,note_on,,,,,0,0,1,,,,,0,,,83,64
143460,note_on,,,,,0,0,1,,,,,0,,,95,64
143460,control_change,,,,,0,0,1,,,,,0,64,95,,
143460,note_on,,,,,0,0,2,,,,,0,,,69,0
143460,note_on,,,,,0,0,1,,,,,0,,,81,0
143460,note_on,,,,,0,0,2,,,,,0,,,50,43
143520,note_on,,,,,60,0,2,,,,,0,,,50,0
143550,note_on,,,,,0,0,2,,,,,0,,,62,46
143550,note_on,,,,,30,0,2,,,,,0,,,71,46
143575,note_on,,,,,25,0,2,,,,,0,,,62,0
143575,note_on,,,,,0,0,2,,,,,0,,,71,0
143580,control_change,,,,,120,0,1,,,,,0,64,0,,
143580,note_on,,,,,0,0,2,,,,,0,,,62,48
143580,note_on,,,,,5,0,2,,,,,0,,,71,48
143620,set_tempo,,,,,170,1,0,,638297,,,,,,,
143640,note_on,,,,,60,0,2,,,,,0,,,62,0
143640,note_on,,,,,60,0,1,,,,,0,,,95,0
143640,note_on,,,,,0,0,1,,,,,0,,,83,0
143640,note_on,,,,,0,0,1,,,,,0,,,78,62
143640,note_on,,,,,0,0,1,,,,,0,,,90,62
143640,note_on,,,,,0,0,2,,,,,0,,,71,0
143640,note_on,,,,,0,0,2,,,,,0,,,50,51
143685,set_tempo,,,,,65,1,0,,648648,,,,,,,
143694,note_on,,,,,54,0,2,,,,,0,,,50,0
143700,note_on,,,,,0,0,1,,,,,0,,,81,59
143700,note_on,,,,,0,0,1,,,,,0,,,78,0
143700,note_on,,,,,60,0,1,,,,,0,,,90,0
143700,note_on,,,,,6,0,2,,,,,0,,,57,51
143700,note_on,,,,,0,0,2,,,,,0,,,66,51
143700,note_on,,,,,0,0,1,,,,,0,,,93,59
143730,set_tempo,,,,,45,1,0,,666666,,,,,,,
143757,note_on,,,,,0,0,1,,,,,0,,,81,0
143757,note_on,,,,,57,0,1,,,,,0,,,93,0
143760,note_on,,,,,60,0,2,,,,,0,,,66,0
143760,note_on,,,,,0,0,2,,,,,0,,,57,0
143760,note_on,,,,,0,0,2,,,,,0,,,67,46
143760,note_on,,,,,0,0,1,,,,,0,,,91,52
143760,note_on,,,,,0,0,2,,,,,0,,,59,46
143760,note_on,,,,,3,0,1,,,,,0,,,79,52
143815,note_on,,,,,0,0,2,,,,,0,,,67,0
143815,note_on,,,,,55,0,2,,,,,0,,,59,0
143815,note_on,,,,,0,0,1,,,,,0,,,79,0
143815,note_on,,,,,55,0,1,,,,,0,,,91,0
143820,note_on,,,,,0,0,1,,,,,0,,,91,46
143820,note_on,,,,,5,0,1,,,,,0,,,79,46
143820,note_on,,,,,5,0,2,,,,,0,,,67,43
143820,note_on,,,,,0,0,2,,,,,0,,,59,43
143860,set_tempo,,,,,130,1,0,,677966,,,,,,,
143865,set_tempo,,,,,5,1,0,,685714,,,,,,,
143872,note_on,,,,,0,0,1,,,,,0,,,79,0
143872,note_on,,,,,52,0,1,,,,,0,,,91,0
143872,note_on,,,,,0,0,2,,,,,0,,,67,0
143872,note_on,,,,,52,0,2,,,,,0,,,59,0
143880,note_on,,,,,8,0,2,,,,,0,,,67,37
143880,note_on,,,,,0,0,1,,,,,0,,,91,41
143880,note_on,,,,,8,0,1,,,,,0,,,79,41
143880,note_on,,,,,0,0,2,,,,,0,,,59,37
143925,set_tempo,,,,,60,1,0,,705882,,,,,,,
143932,note_on,,,,,52,0,2,,,,,0,,,59,0
143932,note_on,,,,,52,0,1,,,,,0,,,91,0
143932,note_on,,,,,0,0,2,,,,,0,,,67,0
143932,note_on,,,,,0,0,1,,,,,0,,,79,0
143940,note_on,,,,,8,0,1,,,,,0,,,79,35
143940,note_on,,,,,0,0,1,,,,,0,,,91,35
143940,note_on,,,,,0,0,2,,,,,0,,,59,31
143940,note_on,,,,,8,0,2,,,,,0,,,67,31
143992,note_on,,,,,0,0,2,,,,,0,,,67,0
143992,note_on,,,,,52,0,2,,,,,0,,,59,0
143992,note_on,,,,,52,0,1,,,,,0,,,91,0
143992,note_on,,,,,0,0,1,,,,,0,,,79,0
144000,note_on,,,,,8,0,2,,,,,0,,,50,41
144000,note_on,,,,,8,0,1,,,,,0,,,100,61
144000,control_change,,,,,0,0,1,,,,,0,64,96,,
144010,set_tempo,,,,,85,1,0,,681818,,,,,,,
144060,set_tempo,,,,,50,1,0,,666666,,,,,,,
144060,note_on,,,,,60,0,2,,,,,0,,,50,0
144085,set_tempo,,,,,25,1,0,,652173,,,,,,,
144090,note_on,,,,,0,0,2,,,,,0,,,60,37
144090,note_on,,,,,30,0,2,,,,,0,,,69,37
144115,note_on,,,,,25,0,2,,,,,0,,,60,0
144115,note_on,,,,,0,0,2,,,,,0,,,69,0
144118,control_change,,,,,118,0,1,,,,,0,64,0,,
144120,note_on,,,,,0,0,2,,,,,0,,,60,39
144120,note_on,,,,,5,0,2,,,,,0,,,69,39
144120,note_on,,,,,2,0,1,,,,,0,,,100,0
144120,note_on,,,,,0,0,1,,,,,0,,,88,56
144125,set_tempo,,,,,40,1,0,,638297,,,,,,,
144160,set_tempo,,,,,35,1,0,,628272,,,,,,,
144180,note_on,,,,,60,0,2,,,,,0,,,60,0
144180,note_on,,,,,0,0,2,,,,,0,,,69,0
144180,note_on,,,,,0,0,2,,,,,0,,,50,42
144180,control_change,,,,,0,0,1,,,,,0,64,95,,
144180,note_on,,,,,0,0,1,,,,,0,,,90,52
144180,note_on,,,,,60,0,1,,,,,0,,,88,0
144200,note_on,,,,,20,0,1,,,,,0,,,90,0
144200,note_on,,,,,0,0,1,,,,,0,,,91,54
144220,note_on,,,,,0,0,1,,,,,0,,,90,56
144220,note_on,,,,,20,0,1,,,,,0,,,91,0
144240,note_on,,,,,60,0,2,,,,,0,,,50,0
144240,note_on,,,,,20,0,1,,,,,0,,,90,0
144240,note_on,,,,,0,0,1,,,,,0,,,91,59
144255,set_tempo,,,,,95,1,0,,648648,,,,,,,
144260,note_on,,,,,20,0,1,,,,,0,,,91,0
144260,note_on,,,,,0,0,1,,,,,0,,,90,61
144260,set_tempo,,,,,5,1,0,,645161,,,,,,,
144270,note_on,,,,,0,0,2,,,,,0,,,71,37
144270,note_on,,,,,30,0,2,,,,,0,,,62,37
144280,note_on,,,,,20,0,1,,,,,0,,,90,0
144280,note_on,,,,,0,0,1,,,,,0,,,91,61
144295,note_on,,,,,25,0,2,,,,,0,,,71,0
144295,note_on,,,,,0,0,2,,,,,0,,,62,0
144300,note_on,,,,,0,0,2,,,,,0,,,71,38
144300,note_on,,,,,20,0,1,,,,,0,,,91,0
144300,note_on,,,,,0,0,1,,,,,0,,,90,63
144300,note_on,,,,,5,0,2,,,,,0,,,62,38
144320,note_on,,,,,20,0,1,,,,,0,,,90,0
144320,note_on,,,,,0,0,1,,,,,0,,,88,64
144335,set_tempo,,,,,75,1,0,,655737,,,,,,,
144340,note_on,,,,,20,0,1,,,,,0,,,88,0
144340,control_change,,,,,0,0,1,,,,,0,64,0,,
144340,note_on,,,,,0,0,1,,,,,0,,,90,66
144360,note_on,,,,,60,0,2,,,,,0,,,71,0
144360,note_on,,,,,0,0,2,,,,,0,,,62,0
144360,note_on,,,,,0,0,2,,,,,0,,,43,42
144360,note_on,,,,,0,0,1,,,,,0,,,90,66
144360,note_on,,,,,20,0,1,,,,,0,,,90,0
144385,set_tempo,,,,,50,1,0,,693641,,,,,,,
144414,note_on,,,,,54,0,2,,,,,0,,,43,0
144420,note_on,,,,,0,0,2,,,,,0,,,66,41
144420,note_on,,,,,60,0,1,,,,,0,,,90,0
144420,note_on,,,,,6,0,2,,,,,0,,,57,41
144420,note_on,,,,,0,0,1,,,,,0,,,93,54
144445,set_tempo,,,,,60,1,0,,718562,,,,,,,
144477,note_on,,,,,57,0,1,,,,,0,,,93,0
144480,note_on,,,,,3,0,1,,,,,0,,,91,53
144480,note_on,,,,,0,0,2,,,,,0,,,57,0
144480,note_on,,,,,0,0,2,,,,,0,,,67,35
144480,note_on,,,,,0,0,2,,,,,0,,,59,35
144480,note_on,,,,,60,0,2,,,,,0,,,66,0
144510,set_tempo,,,,,65,1,0,,736196,,,,,,,
144535,note_on,,,,,55,0,1,,,,,0,,,91,0
144535,note_on,,,,,55,0,2,,,,,0,,,59,0
144535,note_on,,,,,0,0,2,,,,,0,,,67,0
144540,note_on,,,,,0,0,2,,,,,0,,,59,33
144540,note_on,,,,,5,0,1,,,,,0,,,91,50
144540,note_on,,,,,5,0,2,,,,,0,,,67,33
144592,note_on,,,,,52,0,1,,,,,0,,,91,0
144592,note_on,,,,,0,0,2,,,,,0,,,67,0
144592,note_on,,,,,52,0,2,,,,,0,,,59,0
144600,note_on,,,,,8,0,2,,,,,0,,,67,30
144600,note_on,,,,,0,0,2,,,,,0,,,59,30
144600,note_on,,,,,8,0,1,,,,,0,,,91,48
144605,set_tempo,,,,,95,1,0,,769230,,,,,,,
144652,note_on,,,,,52,0,2,,,,,0,,,59,0
144652,note_on,,,,,0,0,2,,,,,0,,,67,0
144652,note_on,,,,,52,0,1,,,,,0,,,91,0
144660,note_on,,,,,8,0,2,,,,,0,,,67,28
144660,note_on,,,,,0,0,2,,,,,0,,,59,28
144660,note_on,,,,,8,0,1,,,,,0,,,91,45
144665,set_tempo,,,,,60,1,0,,800000,,,,,,,
144675,set_tempo,,,,,10,1,0,,805369,,,,,,,
144700,set_tempo,,,,,25,1,0,,839160,,,,,,,
144710,set_tempo,,,,,10,1,0,,685714,,,,,,,
144712,note_on,,,,,52,0,1,,,,,0,,,91,0
144712,note_on,,,,,52,0,2,,,,,0,,,59,0
144712,note_on,,,,,0,0,2,,,,,0,,,67,0
144720,note_on,,,,,8,0,2,,,,,0,,,50,51
144720,control_change,,,,,0,0,1,,,,,0,64,96,,
144720,note_on,,,,,8,0,1,,,,,0,,,66,51
144750,note_on,,,,,30,0,1,,,,,0,,,66,0
144750,note_on,,,,,0,0,1,,,,,0,,,74,46
144780,note_on,,,,,0,0,2,,,,,0,,,60,43
144780,note_on,,,,,0,0,1,,,,,0,,,73,42
144780,note_on,,,,,30,0,1,,,,,0,,,74,0
144780,note_on,,,,,60,0,2,,,,,0,,,57,43
144810,note_on,,,,,30,0,1,,,,,0,,,73,0
144810,note_on,,,,,0,0,1,,,,,0,,,74,38
144820,set_tempo,,,,,110,1,0,,685714,,,,,,,
144825,set_tempo,,,,,5,1,0,,685714,,,,,,,
144840,note_on,,,,,30,0,1,,,,,0,,,74,0
144840,note_on,,,,,0,0,1,,,,,0,,,66,38
144870,note_on,,,,,0,0,1,,,,,0,,,74,44
144870,note_on,,,,,30,0,1,,,,,0,,,66,0
144870,note_on,,,,,90,0,2,,,,,0,,,60,0
144870,note_on,,,,,0,0,2,,,,,0,,,57,0
144875,set_tempo,,,,,50,1,0,,670391,,,,,,,
144885,note_on,,,,,15,0,2,,,,,0,,,50,0
144895,control_change,,,,,25,0,1,,,,,0,64,0,,
144900,note_on,,,,,5,0,1,,,,,0,,,74,0
144900,note_on,,,,,15,0,2,,,,,0,,,50,51
144900,control_change,,,,,0,0,1,,,,,0,64,97,,
144900,note_on,,,,,0,0,1,,,,,0,,,64,51
144930,note_on,,,,,0,0,1,,,,,0,,,74,47
144930,note_on,,,,,30,0,1,,,,,0,,,64,0
144945,set_tempo,,,,,70,1,0,,662983,,,,,,,
144960,note_on,,,,,30,0,1,,,,,0,,,74,0
144960,note_on,,,,,0,0,1,,,,,0,,,73,40
144960,note_on,,,,,60,0,2,,,,,0,,,59,43
144960,note_on,,,,,0,0,2,,,,,0,,,55,43
144970,set_tempo,,,,,25,1,0,,662983,,,,,,,
144990,note_on,,,,,0,0,1,,,,,0,,,74,45
144990,note_on,,,,,30,0,1,,,,,0,,,73,0
145020,note_on,,,,,0,0,1,,,,,0,,,64,47
145020,note_on,,,,,30,0,1,,,,,0,,,74,0
145020,set_tempo,,,,,50,1,0,,648648,,,,,,,
145050,note_on,,,,,0,0,1,,,,,0,,,74,54
145050,note_on,,,,,30,0,1,,,,,0,,,64,0
145050,note_on,,,,,90,0,2,,,,,0,,,55,0
145050,note_on,,,,,0,0,2,,,,,0,,,59,0
145065,note_on,,,,,15,0,2,,,,,0,,,50,0
145075,control_change,,,,,25,0,1,,,,,0,64,0,,
145080,note_on,,,,,15,0,2,,,,,0,,,50,51
145080,control_change,,,,,0,0,1,,,,,0,64,95,,
145080,note_on,,,,,0,0,1,,,,,0,,,62,59
145080,note_on,,,,,5,0,1,,,,,0,,,74,0
145090,set_tempo,,,,,70,1,0,,645161,,,,,,,
145110,note_on,,,,,30,0,1,,,,,0,,,62,0
145110,note_on,,,,,0,0,1,,,,,0,,,64,53
145140,note_on,,,,,30,0,1,,,,,0,,,64,0
145140,note_on,,,,,0,0,2,,,,,0,,,57,43
145140,note_on,,,,,0,0,1,,,,,0,,,66,55
145140,note_on,,,,,60,0,2,,,,,0,,,54,43
145170,note_on,,,,,0,0,1,,,,,0,,,67,57
145170,note_on,,,,,30,0,1,,,,,0,,,66,0
145185,set_tempo,,,,,95,1,0,,634920,,,,,,,
145200,note_on,,,,,0,0,1,,,,,0,,,69,59
145200,note_on,,,,,60,0,2,,,,,0,,,57,0
145200,note_on,,,,,0,0,2,,,,,0,,,54,0
145200,note_on,,,,,0,0,2,,,,,0,,,52,47
145200,note_on,,,,,0,0,2,,,,,0,,,55,47
145200,note_on,,,,,30,0,1,,,,,0,,,67,0
145230,note_on,,,,,30,0,1,,,,,0,,,69,0
145230,note_on,,,,,0,0,1,,,,,0,,,67,61
145235,set_tempo,,,,,50,1,0,,618556,,,,,,,
145255,control_change,,,,,25,0,1,,,,,0,64,0,,
145260,note_on,,,,,0,0,1,,,,,0,,,66,66
145260,note_on,,,,,60,0,2,,,,,0,,,55,0
145260,note_on,,,,,0,0,2,,,,,0,,,52,0
145260,note_on,,,,,0,0,2,,,,,0,,,54,53
145260,note_on,,,,,0,0,2,,,,,0,,,57,53
145260,note_on,,,,,5,0,1,,,,,0,,,67,0
145290,note_on,,,,,0,0,1,,,,,0,,,67,63
145290,note_on,,,,,30,0,1,,,,,0,,,66,0
145300,set_tempo,,,,,65,1,0,,638297,,,,,,,
145320,note_on,,,,,0,0,2,,,,,0,,,54,0
145320,note_on,,,,,0,0,1,,,,,0,,,69,66
145320,note_on,,,,,30,0,1,,,,,0,,,67,0
145320,note_on,,,,,0,0,2,,,,,0,,,55,51
145320,set_tempo,,,,,20,1,0,,666666,,,,,,,
145320,note_on,,,,,0,0,2,,,,,0,,,59,51
145320,note_on,,,,,60,0,2,,,,,0,,,57,0
145350,note_on,,,,,30,0,1,,,,,0,,,69,0
145350,note_on,,,,,0,0,1,,,,,0,,,71,61
145375,set_tempo,,,,,55,1,0,,701754,,,,,,,
145380,note_on,,,,,0,0,2,,,,,0,,,60,47
145380,note_on,,,,,60,0,2,,,,,0,,,59,0
145380,note_on,,,,,0,0,2,,,,,0,,,57,47
145380,note_on,,,,,0,0,2,,,,,0,,,55,0
145380,note_on,,,,,30,0,1,,,,,0,,,71,0
145380,note_on,,,,,0,0,1,,,,,0,,,72,56
145410,note_on,,,,,0,0,1,,,,,0,,,74,53
145410,note_on,,,,,30,0,1,,,,,0,,,72,0
145420,set_tempo,,,,,45,1,0,,710059,,,,,,,
145430,set_tempo,,,,,10,1,0,,1008403,,,,,,,
145434,note_on,,,,,54,0,2,,,,,0,,,60,0
145434,note_on,,,,,24,0,1,,,,,0,,,74,0
145434,note_on,,,,,0,0,2,,,,,0,,,57,0
145440,note_on,,,,,6,0,1,,,,,0,,,71,60
145440,control_change,,,,,0,0,1,,,,,0,64,96,,
145440,set_tempo,,,,,10,1,0,,693641,,,,,,,
145440,note_on,,,,,0,0,2,,,,,0,,,50,51
145440,note_on,,,,,6,0,2,,,,,0,,,50,0
145470,note_on,,,,,30,0,1,,,,,0,,,71,0
145470,note_on,,,,,0,0,1,,,,,0,,,79,56
145490,set_tempo,,,,,50,1,0,,670391,,,,,,,
145500,note_on,,,,,0,0,1,,,,,0,,,78,50
145500,note_on,,,,,30,0,1,,,,,0,,,79,0
145500,note_on,,,,,0,0,2,,,,,0,,,55,44
145500,note_on,,,,,60,0,2,,,,,0,,,59,44
145530,note_on,,,,,0,0,1,,,,,0,,,79,49
145530,note_on,,,,,30,0,1,,,,,0,,,78,0
145555,set_tempo,,,,,65,1,0,,666666,,,,,,,
145560,note_on,,,,,30,0,1,,,,,0,,,79,0
145560,set_tempo,,,,,5,1,0,,648648,,,,,,,
145560,note_on,,,,,0,0,1,,,,,0,,,71,49
145590,note_on,,,,,30,0,1,,,,,0,,,71,0
145590,note_on,,,,,0,0,1,,,,,0,,,79,49
145590,note_on,,,,,0,0,2,,,,,0,,,59,0
145590,note_on,,,,,90,0,2,,,,,0,,,55,0
145605,note_on,,,,,15,0,2,,,,,0,,,50,0
145615,control_change,,,,,25,0,1,,,,,0,64,0,,
145620,note_on,,,,,15,0,2,,,,,0,,,50,51
145620,note_on,,,,,5,0,1,,,,,0,,,79,0
145620,control_change,,,,,0,0,1,,,,,0,64,96,,
145620,note_on,,,,,0,0,1,,,,,0,,,72,58
145650,note_on,,,,,0,0,1,,,,,0,,,79,53
145650,note_on,,,,,30,0,1,,,,,0,,,72,0
145680,note_on,,,,,0,0,1,,,,,0,,,78,50
145680,note_on,,,,,0,0,2,,,,,0,,,57,42
145680,note_on,,,,,60,0,2,,,,,0,,,60,42
145680,note_on,,,,,30,0,1,,,,,0,,,79,0
145710,note_on,,,,,0,0,1,,,,,0,,,79,48
145710,set_tempo,,,,,150,1,0,,638297,,,,,,,
145710,note_on,,,,,30,0,1,,,,,0,,,78,0
145740,note_on,,,,,30,0,1,,,,,0,,,79,0
145740,note_on,,,,,0,0,1,,,,,0,,,72,52
145770,note_on,,,,,0,0,2,,,,,0,,,60,0
145770,note_on,,,,,90,0,2,,,,,0,,,57,0
145770,note_on,,,,,30,0,1,,,,,0,,,72,0
145770,note_on,,,,,0,0,1,,,,,0,,,79,52
145785,note_on,,,,,15,0,2,,,,,0,,,50,0
145795,control_change,,,,,25,0,1,,,,,0,64,0,,
145800,control_change,,,,,0,0,1,,,,,0,64,95,,
145800,note_on,,,,,15,0,2,,,,,0,,,50,43
145800,note_on,,,,,0,0,1,,,,,0,,,74,55
145800,note_on,,,,,5,0,1,,,,,0,,,79,0
145815,set_tempo,,,,,105,1,0,,628272,,,,,,,
145820,set_tempo,,,,,5,1,0,,625000,,,,,,,
145830,note_on,,,,,30,0,1,,,,,0,,,74,0
145830,note_on,,,,,0,0,1,,,,,0,,,76,58
145845,note_on,,,,,45,0,2,,,,,0,,,50,0
145860,note_on,,,,,15,0,2,,,,,0,,,59,47
145860,note_on,,,,,0,0,2,,,,,0,,,62,47
145860,note_on,,,,,30,0,1,,,,,0,,,76,0
145860,note_on,,,,,0,0,1,,,,,0,,,78,60
145890,note_on,,,,,30,0,1,,,,,0,,,78,0
145890,note_on,,,,,0,0,1,,,,,0,,,79,63
145915,set_tempo,,,,,95,1,0,,618556,,,,,,,
145920,note_on,,,,,60,0,2,,,,,0,,,62,0
145920,note_on,,,,,0,0,2,,,,,0,,,61,50
145920,note_on,,,,,0,0,2,,,,,0,,,58,50
145920,note_on,,,,,0,0,2,,,,,0,,,59,0
145920,set_tempo,,,,,5,1,0,,612244,,,,,,,
145920,note_on,,,,,0,0,1,,,,,0,,,78,66
145920,note_on,,,,,30,0,1,,,,,0,,,79,0
145950,note_on,,,,,30,0,1,,,,,0,,,78,0
145950,note_on,,,,,0,0,1,,,,,0,,,79,69
145970,set_tempo,,,,,50,1,0,,628272,,,,,,,
145975,control_change,,,,,25,0,1,,,,,0,64,0,,
145980,note_on,,,,,60,0,2,,,,,0,,,61,0
145980,note_on,,,,,0,0,2,,,,,0,,,58,0
145980,note_on,,,,,0,0,2,,,,,0,,,59,50
145980,note_on,,,,,0,0,2,,,,,0,,,62,50
145980,note_on,,,,,5,0,1,,,,,0,,,79,0
145980,note_on,,,,,0,0,1,,,,,0,,,81,67
146010,note_on,,,,,30,0,1,,,,,0,,,81,0
146010,note_on,,,,,0,0,1,,,,,0,,,79,64
146025,set_tempo,,,,,55,1,0,,645161,,,,,,,
146040,note_on,,,,,30,0,1,,,,,0,,,79,0
146040,note_on,,,,,0,0,2,,,,,0,,,64,46
146040,note_on,,,,,0,0,2,,,,,0,,,60,46
146040,note_on,,,,,0,0,2,,,,,0,,,59,0
146040,note_on,,,,,60,0,2,,,,,0,,,62,0
146040,note_on,,,,,0,0,1,,,,,0,,,83,61
146065,set_tempo,,,,,40,1,0,,674157,,,,,,,
146070,note_on,,,,,30,0,1,,,,,0,,,83,0
146070,note_on,,,,,0,0,1,,,,,0,,,81,59
146085,set_tempo,,,,,20,1,0,,705882,,,,,,,
146100,note_on,,,,,60,0,2,,,,,0,,,64,0
146100,note_on,,,,,0,0,2,,,,,0,,,60,0
146100,note_on,,,,,0,0,2,,,,,0,,,59,43
146100,note_on,,,,,0,0,2,,,,,0,,,62,43
146100,note_on,,,,,0,0,1,,,,,0,,,79,57
146100,note_on,,,,,30,0,1,,,,,0,,,81,0
146130,note_on,,,,,30,0,1,,,,,0,,,79,0
146130,note_on,,,,,0,0,1,,,,,0,,,81,56
146150,set_tempo,,,,,65,1,0,,1008403,,,,,,,
146154,note_on,,,,,0,0,2,,,,,0,,,59,0
146154,note_on,,,,,54,0,2,,,,,0,,,62,0
146154,note_on,,,,,24,0,1,,,,,0,,,81,0
146160,set_tempo,,,,,10,1,0,,685714,,,,,,,
146160,note_on,,,,,6,0,2,,,,,0,,,50,51
146160,note_on,,,,,6,0,1,,,,,0,,,78,56
146160,control_change,,,,,0,0,1,,,,,0,64,96,,
146190,note_on,,,,,30,0,1,,,,,0,,,78,0
146190,note_on,,,,,0,0,1,,,,,0,,,86,56
146220,note_on,,,,,0,0,2,,,,,0,,,60,43
146220,note_on,,,,,60,0,2,,,,,0,,,57,43
146220,note_on,,,,,30,0,1,,,,,0,,,86,0
146220,note_on,,,,,0,0,1,,,,,0,,,85,53
146250,note_on,,,,,0,0,1,,,,,0,,,86,50
146250,note_on,,,,,30,0,1,,,,,0,,,85,0
146260,set_tempo,,,,,100,1,0,,681818,,,,,,,
146280,note_on,,,,,0,0,1,,,,,0,,,78,50
146280,note_on,,,,,30,0,1,,,,,0,,,86,0
146310,note_on,,,,,0,0,2,,,,,0,,,57,0
146310,note_on,,,,,0,0,1,,,,,0,,,86,50
146310,note_on,,,,,30,0,1,,,,,0,,,78,0
146310,note_on,,,,,90,0,2,,,,,0,,,60,0
146325,note_on,,,,,15,0,2,,,,,0,,,50,0
146325,set_tempo,,,,,65,1,0,,670391,,,,,,,
146335,control_change,,,,,25,0,1,,,,,0,64,0,,
146340,note_on,,,,,5,0,1,,,,,0,,,86,0
146340,note_on,,,,,15,0,2,,,,,0,,,50,51
146340,note_on,,,,,0,0,1,,,,,0,,,76,58
146340,control_change,,,,,0,0,1,,,,,0,64,97,,
146370,note_on,,,,,30,0,1,,,,,0,,,76,0
146370,note_on,,,,,0,0,1,,,,,0,,,86,56
146400,note_on,,,,,0,0,1,,,,,0,,,85,53
146400,note_on,,,,,30,0,1,,,,,0,,,86,0
146400,note_on,,,,,0,0,2,,,,,0,,,55,43
146400,note_on,,,,,60,0,2,,,,,0,,,59,43
146425,set_tempo,,,,,100,1,0,,655737,,,,,,,
146430,note_on,,,,,30,0,1,,,,,0,,,85,0
146430,note_on,,,,,0,0,1,,,,,0,,,86,55
146460,note_on,,,,,30,0,1,,,,,0,,,86,0
146460,note_on,,,,,0,0,1,,,,,0,,,76,60
146490,note_on,,,,,30,0,1,,,,,0,,,76,0
146490,note_on,,,,,90,0,2,,,,,0,,,55,0
146490,note_on,,,,,0,0,2,,,,,0,,,59,0
146490,note_on,,,,,0,0,1,,,,,0,,,86,65
146505,note_on,,,,,15,0,2,,,,,0,,,50,0
146515,control_change,,,,,25,0,1,,,,,0,64,0,,
146520,note_on,,,,,5,0,1,,,,,0,,,86,0
146520,note_on,,,,,0,0,1,,,,,0,,,74,68
146520,note_on,,,,,15,0,2,,,,,0,,,50,51
146520,control_change,,,,,0,0,1,,,,,0,64,95,,
146545,set_tempo,,,,,120,1,0,,641711,,,,,,,
146550,note_on,,,,,0,0,1,,,,,0,,,76,71
146550,note_on,,,,,30,0,1,,,,,0,,,74,0
146580,note_on,,,,,0,0,1,,,,,0,,,78,73
146580,note_on,,,,,0,0,2,,,,,0,,,57,43
146580,note_on,,,,,60,0,2,,,,,0,,,54,43
146580,note_on,,,,,30,0,1,,,,,0,,,76,0
146610,note_on,,,,,0,0,1,,,,,0,,,79,76
146610,note_on,,,,,30,0,1,,,,,0,,,78,0
146640,note_on,,,,,0,0,2,,,,,0,,,52,47
146640,note_on,,,,,0,0,2,,,,,0,,,54,0
146640,note_on,,,,,30,0,1,,,,,0,,,79,0
146640,note_on,,,,,60,0,2,,,,,0,,,57,0
146640,note_on,,,,,0,0,2,,,,,0,,,55,47
146640,note_on,,,,,0,0,1,,,,,0,,,81,78
146645,set_tempo,,,,,100,1,0,,628272,,,,,,,
146670,note_on,,,,,30,0,1,,,,,0,,,81,0
146670,note_on,,,,,0,0,1,,,,,0,,,79,78
146695,control_change,,,,,25,0,1,,,,,0,64,0,,
146700,note_on,,,,,0,0,2,,,,,0,,,54,53
146700,note_on,,,,,0,0,2,,,,,0,,,52,0
146700,note_on,,,,,0,0,2,,,,,0,,,57,53
146700,note_on,,,,,5,0,1,,,,,0,,,79,0
146700,note_on,,,,,60,0,2,,,,,0,,,55,0
146700,note_on,,,,,0,0,1,,,,,0,,,78,83
146700,set_tempo,,,,,55,1,0,,628272,,,,,,,
146710,set_tempo,,,,,10,1,0,,638297,,,,,,,
146730,note_on,,,,,0,0,1,,,,,0,,,79,83
146730,note_on,,,,,30,0,1,,,,,0,,,78,0
146745,set_tempo,,,,,35,1,0,,659340,,,,,,,
146755,set_tempo,,,,,10,1,0,,662983,,,,,,,
146760,note_on,,,,,0,0,2,,,,,0,,,54,0
146760,note_on,,,,,0,0,2,,,,,0,,,55,51
146760,note_on,,,,,60,0,2,,,,,0,,,57,0
146760,note_on,,,,,0,0,2,,,,,0,,,59,51
146760,note_on,,,,,30,0,1,,,,,0,,,79,0
146760,note_on,,,,,0,0,1,,,,,0,,,81,80
146790,note_on,,,,,30,0,1,,,,,0,,,81,0
146790,note_on,,,,,0,0,1,,,,,0,,,83,78
146800,set_tempo,,,,,45,1,0,,689655,,,,,,,
146820,note_on,,,,,0,0,1,,,,,0,,,84,72
146820,note_on,,,,,0,0,2,,,,,0,,,60,47
146820,note_on,,,,,0,0,2,,,,,0,,,55,0
146820,note_on,,,,,60,0,2,,,,,0,,,59,0
146820,note_on,,,,,0,0,2,,,,,0,,,57,47
146820,note_on,,,,,30,0,1,,,,,0,,,83,0
146825,set_tempo,,,,,25,1,0,,710059,,,,,,,
146850,note_on,,,,,0,0,1,,,,,0,,,86,69
146850,note_on,,,,,30,0,1,,,,,0,,,84,0
146870,set_tempo,,,,,45,1,0,,1000000,,,,,,,
146874,note_on,,,,,24,0,1,,,,,0,,,86,0
146874,note_on,,,,,54,0,2,,,,,0,,,60,0
146874,note_on,,,,,0,0,2,,,,,0,,,57,0
146880,note_on,,,,,6,0,2,,,,,0,,,50,0
146880,note_on,,,,,0,0,2,,,,,0,,,50,59
146880,note_on,,,,,6,0,1,,,,,0,,,83,65
146880,control_change,,,,,0,0,1,,,,,0,64,96,,
146880,set_tempo,,,,,10,1,0,,697674,,,,,,,
146910,note_on,,,,,0,0,1,,,,,0,,,91,63
146910,note_on,,,,,30,0,1,,,,,0,,,83,0
146930,set_tempo,,,,,50,1,0,,681818,,,,,,,
146935,set_tempo,,,,,5,1,0,,677966,,,,,,,
146940,note_on,,,,,0,0,1,,,,,0,,,90,64
146940,note_on,,,,,60,0,2,,,,,0,,,59,53
146940,note_on,,,,,30,0,1,,,,,0,,,91,0
146940,note_on,,,,,0,0,2,,,,,0,,,55,53
146970,note_on,,,,,0,0,1,,,,,0,,,91,68
146970,note_on,,,,,30,0,1,,,,,0,,,90,0
146975,set_tempo,,,,,40,1,0,,674157,,,,,,,
146980,set_tempo,,,,,5,1,0,,659340,,,,,,,
147000,note_on,,,,,30,0,1,,,,,0,,,91,0
147000,note_on,,,,,0,0,1,,,,,0,,,83,71
147030,note_on,,,,,0,0,1,,,,,0,,,91,72
147030,note_on,,,,,0,0,2,,,,,0,,,59,0
147030,note_on,,,,,90,0,2,,,,,0,,,55,0
147030,note_on,,,,,30,0,1,,,,,0,,,83,0
147045,note_on,,,,,15,0,2,,,,,0,,,50,0
147055,control_change,,,,,25,0,1,,,,,0,64,0,,
147060,note_on,,,,,15,0,2,,,,,0,,,50,58
147060,control_change,,,,,0,0,1,,,,,0,64,96,,
147060,note_on,,,,,0,0,1,,,,,0,,,84,72
147060,note_on,,,,,5,0,1,,,,,0,,,91,0
147060,set_tempo,,,,,80,1,0,,645161,,,,,,,
147090,note_on,,,,,0,0,1,,,,,0,,,91,68
147090,note_on,,,,,30,0,1,,,,,0,,,84,0
147120,note_on,,,,,30,0,1,,,,,0,,,91,0
147120,note_on,,,,,0,0,2,,,,,0,,,57,51
147120,note_on,,,,,60,0,2,,,,,0,,,60,51
147120,note_on,,,,,0,0,1,,,,,0,,,90,65
147150,note_on,,,,,30,0,1,,,,,0,,,90,0
147150,note_on,,,,,0,0,1,,,,,0,,,91,63
147165,set_tempo,,,,,105,1,0,,638297,,,,,,,
147180,note_on,,,,,0,0,1,,,,,0,,,84,63
147180,note_on,,,,,30,0,1,,,,,0,,,91,0
147210,note_on,,,,,0,0,1,,,,,0,,,91,64
147210,note_on,,,,,30,0,1,,,,,0,,,84,0
147210,note_on,,,,,90,0,2,,,,,0,,,57,0
147210,note_on,,,,,0,0,2,,,,,0,,,60,0
147225,note_on,,,,,15,0,2,,,,,0,,,50,0
147235,control_change,,,,,25,0,1,,,,,0,64,0,,
147240,control_change,,,,,0,0,1,,,,,0,64,95,,
147240,note_on,,,,,0,0,1,,,,,0,,,86,70
147240,note_on,,,,,15,0,2,,,,,0,,,50,56
147240,note_on,,,,,5,0,1,,,,,0,,,91,0
147265,set_tempo,,,,,100,1,0,,625000,,,,,,,
147270,note_on,,,,,0,0,1,,,,,0,,,84,74
147270,note_on,,,,,30,0,1,,,,,0,,,86,0
147285,note_on,,,,,45,0,2,,,,,0,,,50,0
147300,note_on,,,,,30,0,1,,,,,0,,,84,0
147300,note_on,,,,,0,0,2,,,,,0,,,62,57
147300,note_on,,,,,15,0,2,,,,,0,,,59,57
147300,note_on,,,,,0,0,1,,,,,0,,,83,80
147320,set_tempo,,,,,55,1,0,,618556,,,,,,,
147330,note_on,,,,,30,0,1,,,,,0,,,83,0
147330,note_on,,,,,0,0,1,,,,,0,,,81,82
147360,note_on,,,,,30,0,1,,,,,0,,,81,0
147360,note_on,,,,,60,0,2,,,,,0,,,62,0
147360,note_on,,,,,0,0,2,,,,,0,,,59,0
147360,note_on,,,,,0,0,2,,,,,0,,,58,59
147360,note_on,,,,,0,0,2,,,,,0,,,61,59
147360,note_on,,,,,0,0,1,,,,,0,,,79,86
147380,set_tempo,,,,,60,1,0,,618556,,,,,,,
147390,note_on,,,,,0,0,1,,,,,0,,,78,90
147390,note_on,,,,,30,0,1,,,,,0,,,79,0
147400,set_tempo,,,,,20,1,0,,638297,,,,,,,
147415,control_change,,,,,25,0,1,,,,,0,64,0,,
147420,note_on,,,,,0,0,1,,,,,0,,,76,90
147420,note_on,,,,,5,0,1,,,,,0,,,78,0
147420,note_on,,,,,0,0,2,,,,,0,,,59,62
147420,note_on,,,,,0,0,2,,,,,0,,,58,0
147420,note_on,,,,,0,0,2,,,,,0,,,62,62
147420,note_on,,,,,60,0,2,,,,,0,,,61,0
147450,note_on,,,,,0,0,1,,,,,0,,,74,92
147450,note_on,,,,,30,0,1,,,,,0,,,76,0
147455,set_tempo,,,,,55,1,0,,652173,,,,,,,
147480,note_on,,,,,0,0,2,,,,,0,,,60,59
147480,note_on,,,,,0,0,2,,,,,0,,,59,0
147480,note_on,,,,,0,0,1,,,,,0,,,76,87
147480,note_on,,,,,30,0,1,,,,,0,,,74,0
147480,note_on,,,,,60,0,2,,,,,0,,,62,0
147480,note_on,,,,,0,0,2,,,,,0,,,64,59
147490,set_tempo,,,,,35,1,0,,666666,,,,,,,
147495,note_on,,,,,15,0,1,,,,,0,,,76,0
147510,note_on,,,,,15,0,1,,,,,0,,,74,82
147530,set_tempo,,,,,40,1,0,,689655,,,,,,,
147540,note_on,,,,,0,0,1,,,,,0,,,76,80
147540,note_on,,,,,0,0,2,,,,,0,,,62,52
147540,note_on,,,,,0,0,2,,,,,0,,,60,0
147540,note_on,,,,,60,0,2,,,,,0,,,64,0
147540,note_on,,,,,0,0,2,,,,,0,,,59,52
147540,note_on,,,,,30,0,1,,,,,0,,,74,0
147555,note_on,,,,,15,0,1,,,,,0,,,76,0
147570,note_on,,,,,15,0,1,,,,,0,,,74,77
147590,set_tempo,,,,,60,1,0,,1000000,,,,,,,
147594,note_on,,,,,0,0,2,,,,,0,,,59,0
147594,note_on,,,,,54,0,2,,,,,0,,,62,0
147594,note_on,,,,,24,0,1,,,,,0,,,74,0
147600,note_on,,,,,6,0,1,,,,,0,,,76,72
147600,control_change,,,,,0,0,1,,,,,0,64,95,,
147600,note_on,,,,,6,0,2,,,,,0,,,50,59
147600,set_tempo,,,,,10,1,0,,666666,,,,,,,
147605,set_tempo,,,,,5,1,0,,662983,,,,,,,
147630,note_on,,,,,0,0,1,,,,,0,,,78,65
147630,note_on,,,,,30,0,1,,,,,0,,,76,0
147650,set_tempo,,,,,45,1,0,,638297,,,,,,,
147660,note_on,,,,,60,0,2,,,,,0,,,64,53
147660,note_on,,,,,0,0,1,,,,,0,,,80,69
147660,note_on,,,,,30,0,1,,,,,0,,,78,0
147660,note_on,,,,,0,0,2,,,,,0,,,62,53
147660,note_on,,,,,0,0,2,,,,,0,,,59,53
147690,note_on,,,,,0,0,1,,,,,0,,,81,74
147690,note_on,,,,,30,0,1,,,,,0,,,80,0
147720,note_on,,,,,0,0,1,,,,,0,,,83,75
147720,note_on,,,,,30,0,1,,,,,0,,,81,0
147720,set_tempo,,,,,70,1,0,,634920,,,,,,,
147750,note_on,,,,,90,0,2,,,,,0,,,59,0
147750,note_on,,,,,0,0,1,,,,,0,,,84,77
147750,note_on,,,,,30,0,1,,,,,0,,,83,0
147750,note_on,,,,,0,0,2,,,,,0,,,64,0
147750,note_on,,,,,0,0,2,,,,,0,,,62,0
147765,note_on,,,,,15,0,2,,,,,0,,,50,0
147775,control_change,,,,,25,0,1,,,,,0,64,0,,
147780,note_on,,,,,15,0,2,,,,,0,,,50,58
147780,control_change,,,,,0,0,1,,,,,0,64,95,,
147780,note_on,,,,,0,0,1,,,,,0,,,86,77
147780,note_on,,,,,5,0,1,,,,,0,,,84,0
147785,set_tempo,,,,,65,1,0,,625000,,,,,,,
147810,note_on,,,,,30,0,1,,,,,0,,,86,0
147810,note_on,,,,,0,0,1,,,,,0,,,87,74
147830,set_tempo,,,,,45,1,0,,612244,,,,,,,
147840,note_on,,,,,0,0,1,,,,,0,,,88,72
147840,note_on,,,,,30,0,1,,,,,0,,,87,0
147840,note_on,,,,,0,0,2,,,,,0,,,59,51
147840,note_on,,,,,0,0,2,,,,,0,,,62,51
147840,note_on,,,,,60,0,2,,,,,0,,,64,51
147870,set_tempo,,,,,40,1,0,,603015,,,,,,,
147870,note_on,,,,,0,0,1,,,,,0,,,86,69
147870,note_on,,,,,30,0,1,,,,,0,,,88,0
147890,set_tempo,,,,,20,1,0,,600000,,,,,,,
147900,note_on,,,,,0,0,1,,,,,0,,,84,67
147900,note_on,,,,,30,0,1,,,,,0,,,86,0
147925,set_tempo,,,,,35,1,0,,594059,,,,,,,
147930,note_on,,,,,0,0,2,,,,,0,,,62,0
147930,note_on,,,,,0,0,1,,,,,0,,,83,67
147930,note_on,,,,,90,0,2,,,,,0,,,59,0
147930,note_on,,,,,0,0,2,,,,,0,,,64,0
147930,note_on,,,,,30,0,1,,,,,0,,,84,0
147945,note_on,,,,,15,0,2,,,,,0,,,50,0
147955,control_change,,,,,25,0,1,,,,,0,64,0,,
147960,control_change,,,,,0,0,1,,,,,0,64,95,,
147960,note_on,,,,,15,0,2,,,,,0,,,50,52
147960,note_on,,,,,5,0,1,,,,,0,,,83,0
147960,note_on,,,,,0,0,1,,,,,0,,,86,67
147990,note_on,,,,,30,0,1,,,,,0,,,86,0
147990,note_on,,,,,0,0,1,,,,,0,,,84,72
147990,set_tempo,,,,,65,1,0,,618556,,,,,,,
148005,note_on,,,,,45,0,2,,,,,0,,,50,0
148020,note_on,,,,,0,0,1,,,,,0,,,88,79
148020,note_on,,,,,30,0,1,,,,,0,,,84,0
148020,note_on,,,,,15,0,2,,,,,0,,,60,56
148020,note_on,,,,,0,0,2,,,,,0,,,57,56
148040,set_tempo,,,,,50,1,0,,638297,,,,,,,
148050,note_on,,,,,30,0,1,,,,,0,,,88,0
148050,set_tempo,,,,,10,1,0,,641711,,,,,,,
148050,note_on,,,,,0,0,1,,,,,0,,,86,86
148075,set_tempo,,,,,25,1,0,,659340,,,,,,,
148080,note_on,,,,,30,0,1,,,,,0,,,86,0
148080,note_on,,,,,0,0,1,,,,,0,,,84,91
148080,note_on,,,,,0,0,2,,,,,0,,,60,0
148080,note_on,,,,,60,0,2,,,,,0,,,57,0
148080,note_on,,,,,0,0,2,,,,,0,,,62,62
148080,note_on,,,,,0,0,2,,,,,0,,,59,62
148110,note_on,,,,,30,0,1,,,,,0,,,84,0
148110,note_on,,,,,0,0,1,,,,,0,,,83,95
148135,control_change,,,,,25,0,1,,,,,0,64,0,,
148140,control_change,,,,,0,0,1,,,,,0,64,95,,
148140,note_on,,,,,0,0,2,,,,,0,,,60,65
148140,note_on,,,,,0,0,2,,,,,0,,,64,65
148140,note_on,,,,,0,0,2,,,,,0,,,62,0
148140,note_on,,,,,5,0,1,,,,,0,,,83,0
148140,note_on,,,,,0,0,1,,,,,0,,,83,97
148140,note_on,,,,,60,0,2,,,,,0,,,59,0
148145,set_tempo,,,,,70,1,0,,674157,,,,,,,
148170,note_on,,,,,0,0,1,,,,,0,,,81,77
148170,note_on,,,,,30,0,1,,,,,0,,,83,0
148196,note_on,,,,,26,0,1,,,,,0,,,81,0
148200,note_on,,,,,4,0,1,,,,,0,,,81,87
148200,set_tempo,,,,,55,1,0,,697674,,,,,,,
148200,note_on,,,,,60,0,2,,,,,0,,,60,0
148200,note_on,,,,,0,0,2,,,,,0,,,64,0
148200,note_on,,,,,0,0,2,,,,,0,,,62,60
148200,note_on,,,,,0,0,2,,,,,0,,,59,60
148230,note_on,,,,,30,0,1,,,,,0,,,81,0
148230,note_on,,,,,0,0,1,,,,,0,,,80,68
148256,note_on,,,,,26,0,1,,,,,0,,,80,0
148260,note_on,,,,,60,0,2,,,,,0,,,59,0
148260,note_on,,,,,0,0,2,,,,,0,,,62,0
148260,note_on,,,,,0,0,2,,,,,0,,,60,56
148260,note_on,,,,,0,0,2,,,,,0,,,57,56
148260,note_on,,,,,4,0,1,,,,,0,,,80,77
148290,note_on,,,,,0,0,1,,,,,0,,,81,59
148290,note_on,,,,,30,0,1,,,,,0,,,80,0
148300,set_tempo,,,,,100,1,0,,710059,,,,,,,
148310,set_tempo,,,,,10,1,0,,1000000,,,,,,,
148314,note_on,,,,,24,0,1,,,,,0,,,81,0
148314,note_on,,,,,54,0,2,,,,,0,,,57,0
148314,note_on,,,,,0,0,2,,,,,0,,,60,0
148315,control_change,,,,,1,0,1,,,,,0,64,0,,
148320,set_tempo,,,,,10,1,0,,666666,,,,,,,
148320,note_on,,,,,5,0,1,,,,,0,,,74,72
148320,control_change,,,,,0,0,1,,,,,0,64,95,,
148320,note_on,,,,,6,0,2,,,,,0,,,50,59
148325,set_tempo,,,,,5,1,0,,659340,,,,,,,
148340,set_tempo,,,,,15,1,0,,655737,,,,,,,
148350,note_on,,,,,30,0,1,,,,,0,,,74,0
148350,note_on,,,,,0,0,1,,,,,0,,,76,65
148375,set_tempo,,,,,35,1,0,,652173,,,,,,,
148380,note_on,,,,,60,0,2,,,,,0,,,62,53
148380,note_on,,,,,0,0,2,,,,,0,,,57,53
148380,note_on,,,,,0,0,1,,,,,0,,,78,69
148380,note_on,,,,,30,0,1,,,,,0,,,76,0
148380,note_on,,,,,0,0,2,,,,,0,,,60,53
148410,note_on,,,,,30,0,1,,,,,0,,,78,0
148410,note_on,,,,,0,0,1,,,,,0,,,79,74
148435,set_tempo,,,,,60,1,0,,638297,,,,,,,
148440,note_on,,,,,30,0,1,,,,,0,,,79,0
148440,note_on,,,,,0,0,1,,,,,0,,,81,75
148470,note_on,,,,,30,0,1,,,,,0,,,81,0
148470,note_on,,,,,90,0,2,,,,,0,,,57,0
148470,note_on,,,,,0,0,2,,,,,0,,,60,0
148470,note_on,,,,,0,0,2,,,,,0,,,62,0
148470,note_on,,,,,0,0,1,,,,,0,,,83,77
148475,set_tempo,,,,,40,1,0,,628272,,,,,,,
148485,note_on,,,,,15,0,2,,,,,0,,,50,0
148495,control_change,,,,,25,0,1,,,,,0,64,0,,
148500,control_change,,,,,0,0,1,,,,,0,64,95,,
148500,note_on,,,,,0,0,1,,,,,0,,,84,77
148500,note_on,,,,,5,0,1,,,,,0,,,83,0
148500,note_on,,,,,15,0,2,,,,,0,,,50,58
148530,note_on,,,,,0,0,1,,,,,0,,,85,74
148530,note_on,,,,,30,0,1,,,,,0,,,84,0
148560,note_on,,,,,0,0,2,,,,,0,,,57,51
148560,note_on,,,,,0,0,1,,,,,0,,,86,72
148560,note_on,,,,,30,0,1,,,,,0,,,85,0
148560,note_on,,,,,0,0,2,,,,,0,,,60,51
148560,note_on,,,,,60,0,2,,,,,0,,,62,51
148570,set_tempo,,,,,95,1,0,,625000,,,,,,,
148590,note_on,,,,,0,0,1,,,,,0,,,84,69
148590,note_on,,,,,30,0,1,,,,,0,,,86,0
148620,note_on,,,,,30,0,1,,,,,0,,,84,0
148620,note_on,,,,,0,0,1,,,,,0,,,83,67
148650,note_on,,,,,0,0,2,,,,,0,,,60,0
148650,note_on,,,,,30,0,1,,,,,0,,,83,0
148650,note_on,,,,,0,0,1,,,,,0,,,81,67
148650,note_on,,,,,0,0,2,,,,,0,,,62,0
148650,note_on,,,,,90,0,2,,,,,0,,,57,0
148665,note_on,,,,,15,0,2,,,,,0,,,50,0
148675,control_change,,,,,25,0,1,,,,,0,64,0,,
148680,control_change,,,,,0,0,1,,,,,0,64,95,,
148680,note_on,,,,,0,0,1,,,,,0,,,84,67
148680,note_on,,,,,5,0,1,,,,,0,,,81,0
148680,note_on,,,,,15,0,2,,,,,0,,,50,52
148690,set_tempo,,,,,120,1,0,,641711,,,,,,,
148710,note_on,,,,,0,0,1,,,,,0,,,83,72
148710,note_on,,,,,30,0,1,,,,,0,,,84,0
148725,note_on,,,,,45,0,2,,,,,0,,,50,0
148735,set_tempo,,,,,45,1,0,,662983,,,,,,,
148740,note_on,,,,,15,0,2,,,,,0,,,59,56
148740,note_on,,,,,0,0,2,,,,,0,,,55,56
148740,note_on,,,,,30,0,1,,,,,0,,,83,0
148740,note_on,,,,,0,0,1,,,,,0,,,86,79
148770,note_on,,,,,0,0,1,,,,,0,,,84,86
148770,note_on,,,,,30,0,1,,,,,0,,,86,0
148800,note_on,,,,,0,0,1,,,,,0,,,83,91
148800,note_on,,,,,30,0,1,,,,,0,,,84,0
148800,note_on,,,,,60,0,2,,,,,0,,,55,0
148800,note_on,,,,,0,0,2,,,,,0,,,59,0
148800,note_on,,,,,0,0,2,,,,,0,,,60,62
148800,note_on,,,,,0,0,2,,,,,0,,,57,62
148800,set_tempo,,,,,65,1,0,,685714,,,,,,,
148830,note_on,,,,,30,0,1,,,,,0,,,83,0
148830,note_on,,,,,0,0,1,,,,,0,,,81,87
148845,set_tempo,,,,,45,1,0,,710059,,,,,,,
148855,control_change,,,,,25,0,1,,,,,0,64,0,,
148860,note_on,,,,,0,0,2,,,,,0,,,62,65
148860,note_on,,,,,5,0,1,,,,,0,,,81,0
148860,note_on,,,,,0,0,1,,,,,0,,,81,85
148860,control_change,,,,,0,0,1,,,,,0,64,95,,
148860,note_on,,,,,0,0,2,,,,,0,,,59,65
148860,note_on,,,,,0,0,2,,,,,0,,,60,0
148860,note_on,,,,,60,0,2,,,,,0,,,57,0
148885,set_tempo,,,,,40,1,0,,736196,,,,,,,
148890,note_on,,,,,30,0,1,,,,,0,,,81,0
148890,note_on,,,,,0,0,1,,,,,0,,,79,74
148916,note_on,,,,,26,0,1,,,,,0,,,79,0
148920,note_on,,,,,0,0,2,,,,,0,,,60,56
148920,note_on,,,,,0,0,2,,,,,0,,,57,56
148920,note_on,,,,,60,0,2,,,,,0,,,62,0
148920,note_on,,,,,0,0,2,,,,,0,,,59,0
148920,note_on,,,,,4,0,1,,,,,0,,,79,75
148945,set_tempo,,,,,60,1,0,,754716,,,,,,,
148950,note_on,,,,,30,0,1,,,,,0,,,79,0
148950,note_on,,,,,0,0,1,,,,,0,,,78,62
148976,note_on,,,,,26,0,1,,,,,0,,,78,0
148980,note_on,,,,,0,0,2,,,,,0,,,55,45
148980,note_on,,,,,0,0,2,,,,,0,,,59,45
148980,note_on,,,,,0,0,2,,,,,0,,,60,0
148980,note_on,,,,,60,0,2,,,,,0,,,57,0
148980,note_on,,,,,4,0,1,,,,,0,,,78,67
148990,set_tempo,,,,,45,1,0,,779220,,,,,,,
149000,set_tempo,,,,,10,1,0,,789473,,,,,,,
149010,note_on,,,,,30,0,1,,,,,0,,,78,0
149010,note_on,,,,,0,0,1,,,,,0,,,79,50
149030,set_tempo,,,,,30,1,0,,991735,,,,,,,
149034,note_on,,,,,0,0,2,,,,,0,,,59,0
149034,note_on,,,,,54,0,2,,,,,0,,,55,0
149034,note_on,,,,,24,0,1,,,,,0,,,79,0
149035,control_change,,,,,1,0,1,,,,,0,64,0,,
149040,control_change,,,,,0,0,1,,,,,0,64,95,,
149040,set_tempo,,,,,10,1,0,,666666,,,,,,,
149040,note_on,,,,,6,0,2,,,,,0,,,50,56
149040,note_on,,,,,5,0,1,,,,,0,,,71,60
149045,set_tempo,,,,,5,1,0,,659340,,,,,,,
149070,note_on,,,,,30,0,1,,,,,0,,,71,0
149070,note_on,,,,,0,0,1,,,,,0,,,79,59
149085,set_tempo,,,,,40,1,0,,641711,,,,,,,
149100,note_on,,,,,0,0,1,,,,,0,,,78,62
149100,note_on,,,,,60,0,2,,,,,0,,,55,52
149100,note_on,,,,,0,0,2,,,,,0,,,59,52
149100,note_on,,,,,30,0,1,,,,,0,,,79,0
149130,note_on,,,,,30,0,1,,,,,0,,,78,0
149130,note_on,,,,,0,0,1,,,,,0,,,79,66
149160,set_tempo,,,,,75,1,0,,618556,,,,,,,
149160,note_on,,,,,0,0,1,,,,,0,,,71,70
149160,note_on,,,,,30,0,1,,,,,0,,,79,0
149190,note_on,,,,,0,0,1,,,,,0,,,79,78
149190,note_on,,,,,30,0,1,,,,,0,,,71,0
149205,set_tempo,,,,,45,1,0,,615384,,,,,,,
149215,control_change,,,,,25,0,1,,,,,0,64,0,,
149220,note_on,,,,,5,0,1,,,,,0,,,79,0
149220,note_on,,,,,0,0,1,,,,,0,,,72,81
149220,control_change,,,,,0,0,1,,,,,0,64,95,,
149220,note_on,,,,,0,0,2,,,,,0,,,50,0
149220,note_on,,,,,0,0,2,,,,,0,,,55,0
149220,note_on,,,,,120,0,2,,,,,0,,,59,0
149220,note_on,,,,,0,0,2,,,,,0,,,50,56
149250,note_on,,,,,30,0,1,,,,,0,,,72,0
149250,note_on,,,,,0,0,1,,,,,0,,,79,80
149280,note_on,,,,,60,0,2,,,,,0,,,57,52
149280,set_tempo,,,,,75,1,0,,612244,,,,,,,
149280,note_on,,,,,30,0,1,,,,,0,,,79,0
149280,note_on,,,,,0,0,1,,,,,0,,,78,75
149280,note_on,,,,,0,0,2,,,,,0,,,60,52
149310,note_on,,,,,30,0,1,,,,,0,,,78,0
149310,note_on,,,,,0,0,1,,,,,0,,,79,73
149340,note_on,,,,,30,0,1,,,,,0,,,79,0
149340,note_on,,,,,0,0,1,,,,,0,,,72,69
149370,note_on,,,,,30,0,1,,,,,0,,,72,0
149370,note_on,,,,,0,0,1,,,,,0,,,79,65
149390,control_change,,,,,20,0,1,,,,,0,64,0,,
149400,note_on,,,,,120,0,2,,,,,0,,,60,0
149400,note_on,,,,,0,0,2,,,,,0,,,57,0
149400,note_on,,,,,0,0,1,,,,,0,,,73,62
149400,note_on,,,,,0,0,2,,,,,0,,,50,54
149400,note_on,,,,,10,0,1,,,,,0,,,79,0
149400,note_on,,,,,0,0,2,,,,,0,,,50,0
149400,control_change,,,,,0,0,1,,,,,0,64,95,,
149410,set_tempo,,,,,130,1,0,,618556,,,,,,,
149430,note_on,,,,,30,0,1,,,,,0,,,73,0
149430,note_on,,,,,0,0,1,,,,,0,,,74,66
149445,note_on,,,,,45,0,2,,,,,0,,,50,0
149450,set_tempo,,,,,40,1,0,,615384,,,,,,,
149460,note_on,,,,,0,0,1,,,,,0,,,76,70
149460,note_on,,,,,30,0,1,,,,,0,,,74,0
149460,note_on,,,,,15,0,2,,,,,0,,,61,60
149460,note_on,,,,,0,0,2,,,,,0,,,58,60
149490,note_on,,,,,0,0,1,,,,,0,,,74,75
149490,note_on,,,,,30,0,1,,,,,0,,,76,0
149515,set_tempo,,,,,65,1,0,,618556,,,,,,,
149520,note_on,,,,,60,0,2,,,,,0,,,58,0
149520,note_on,,,,,0,0,2,,,,,0,,,61,0
149520,note_on,,,,,0,0,2,,,,,0,,,59,64
149520,note_on,,,,,0,0,2,,,,,0,,,62,64
149520,note_on,,,,,0,0,1,,,,,0,,,79,78
149520,note_on,,,,,30,0,1,,,,,0,,,74,0
149550,note_on,,,,,30,0,1,,,,,0,,,79,0
149550,note_on,,,,,0,0,1,,,,,0,,,74,86
149565,note_on,,,,,45,0,2,,,,,0,,,62,0
149565,note_on,,,,,0,0,2,,,,,0,,,59,0
149575,control_change,,,,,25,0,1,,,,,0,64,0,,
149580,control_change,,,,,0,0,1,,,,,0,64,96,,
149580,note_on,,,,,0,0,1,,,,,0,,,83,86
149580,note_on,,,,,5,0,1,,,,,0,,,74,0
149580,note_on,,,,,15,0,2,,,,,0,,,59,62
149580,note_on,,,,,0,0,2,,,,,0,,,62,62
149610,note_on,,,,,0,0,1,,,,,0,,,81,78
149610,note_on,,,,,30,0,1,,,,,0,,,83,0
149615,set_tempo,,,,,100,1,0,,634920,,,,,,,
149625,set_tempo,,,,,10,1,0,,638297,,,,,,,
149632,note_on,,,,,0,0,2,,,,,0,,,59,0
149632,note_on,,,,,52,0,2,,,,,0,,,62,0
149640,note_on,,,,,0,0,2,,,,,0,,,62,55
149640,note_on,,,,,8,0,2,,,,,0,,,59,55
149640,note_on,,,,,0,0,1,,,,,0,,,79,66
149640,note_on,,,,,30,0,1,,,,,0,,,81,0
149650,set_tempo,,,,,25,1,0,,655737,,,,,,,
149670,note_on,,,,,0,0,1,,,,,0,,,78,56
149670,note_on,,,,,30,0,1,,,,,0,,,79,0
149675,set_tempo,,,,,25,1,0,,666666,,,,,,,
149685,note_on,,,,,0,0,2,,,,,0,,,59,0
149685,note_on,,,,,45,0,2,,,,,0,,,62,0
149690,set_tempo,,,,,15,1,0,,685714,,,,,,,
149700,note_on,,,,,30,0,1,,,,,0,,,78,0
149700,note_on,,,,,0,0,1,,,,,0,,,76,51
149700,set_tempo,,,,,10,1,0,,697674,,,,,,,
149700,note_on,,,,,15,0,2,,,,,0,,,59,48
149700,note_on,,,,,0,0,2,,,,,0,,,62,48
149705,set_tempo,,,,,5,1,0,,710059,,,,,,,
149725,set_tempo,,,,,20,1,0,,731707,,,,,,,
149730,note_on,,,,,30,0,1,,,,,0,,,76,0
149730,note_on,,,,,0,0,1,,,,,0,,,74,48
149745,note_on,,,,,0,0,2,,,,,0,,,59,0
149745,note_on,,,,,45,0,2,,,,,0,,,62,0
149746,set_tempo,,,,,21,1,0,,714285,,,,,,,
149750,set_tempo,,,,,4,1,0,,1000000,,,,,,,
149755,control_change,,,,,25,0,1,,,,,0,64,0,,
149760,control_change,,,,,0,0,1,,,,,0,64,95,,
149760,set_tempo,,,,,10,1,0,,666666,,,,,,,
149760,note_on,,,,,5,0,1,,,,,0,,,74,0
149760,note_on,,,,,15,0,2,,,,,0,,,50,56
149760,note_on,,,,,0,0,1,,,,,0,,,76,60
149765,set_tempo,,,,,5,1,0,,655737,,,,,,,
149780,set_tempo,,,,,15,1,0,,652173,,,,,,,
149790,note_on,,,,,0,0,1,,,,,0,,,79,59
149790,note_on,,,,,30,0,1,,,,,0,,,76,0
149805,set_tempo,,,,,25,1,0,,638297,,,,,,,
149820,note_on,,,,,60,0,2,,,,,0,,,64,52
149820,note_on,,,,,30,0,1,,,,,0,,,79,0
149820,note_on,,,,,0,0,1,,,,,0,,,78,62
149820,note_on,,,,,0,0,2,,,,,0,,,60,52
149850,note_on,,,,,30,0,1,,,,,0,,,78,0
149850,note_on,,,,,0,0,1,,,,,0,,,79,66
149880,note_on,,,,,0,0,1,,,,,0,,,76,70
149880,note_on,,,,,30,0,1,,,,,0,,,79,0
149910,note_on,,,,,30,0,1,,,,,0,,,76,0
149910,note_on,,,,,0,0,1,,,,,0,,,79,78
149935,control_change,,,,,25,0,1,,,,,0,64,0,,
149940,control_change,,,,,0,0,1,,,,,0,64,95,,
149940,note_on,,,,,0,0,1,,,,,0,,,78,81
149940,note_on,,,,,5,0,1,,,,,0,,,79,0
149940,note_on,,,,,0,0,2,,,,,0,,,64,0
149940,note_on,,,,,120,0,2,,,,,0,,,60,0
149940,note_on,,,,,0,0,2,,,,,0,,,50,0
149940,note_on,,,,,0,0,2,,,,,0,,,50,56
149970,note_on,,,,,0,0,1,,,,,0,,,86,80
149970,note_on,,,,,30,0,1,,,,,0,,,78,0
149980,set_tempo,,,,,175,1,0,,628272,,,,,,,
150000,note_on,,,,,60,0,2,,,,,0,,,66,52
150000,note_on,,,,,0,0,2,,,,,0,,,57,52
150000,note_on,,,,,30,0,1,,,,,0,,,86,0
150000,note_on,,,,,0,0,1,,,,,0,,,85,75
150030,note_on,,,,,30,0,1,,,,,0,,,85,0
150030,note_on,,,,,0,0,1,,,,,0,,,86,73
150060,note_on,,,,,30,0,1,,,,,0,,,86,0
150060,note_on,,,,,0,0,1,,,,,0,,,78,69
150075,set_tempo,,,,,95,1,0,,618556,,,,,,,
150090,note_on,,,,,30,0,1,,,,,0,,,78,0
150090,note_on,,,,,0,0,1,,,,,0,,,86,65
150110,control_change,,,,,20,0,1,,,,,0,64,0,,
150120,control_change,,,,,0,0,1,,,,,0,64,95,,
150120,note_on,,,,,0,0,2,,,,,0,,,66,0
150120,note_on,,,,,0,0,1,,,,,0,,,78,62
150120,note_on,,,,,0,0,2,,,,,0,,,50,0
150120,note_on,,,,,0,0,2,,,,,0,,,50,54
150120,note_on,,,,,10,0,1,,,,,0,,,86,0
150120,note_on,,,,,120,0,2,,,,,0,,,57,0
150150,note_on,,,,,0,0,1,,,,,0,,,79,66
150150,note_on,,,,,30,0,1,,,,,0,,,78,0
150165,note_on,,,,,45,0,2,,,,,0,,,50,0
150170,set_tempo,,,,,95,1,0,,615384,,,,,,,
150180,note_on,,,,,15,0,2,,,,,0,,,60,60
150180,note_on,,,,,0,0,2,,,,,0,,,69,60
150180,note_on,,,,,0,0,1,,,,,0,,,81,70
150180,note_on,,,,,30,0,1,,,,,0,,,79,0
150210,note_on,,,,,30,0,1,,,,,0,,,81,0
150210,note_on,,,,,0,0,1,,,,,0,,,79,75
150240,note_on,,,,,30,0,1,,,,,0,,,79,0
150240,note_on,,,,,0,0,1,,,,,0,,,83,78
150240,note_on,,,,,0,0,2,,,,,0,,,67,64
150240,note_on,,,,,60,0,2,,,,,0,,,69,0
150240,note_on,,,,,0,0,2,,,,,0,,,59,64
150240,note_on,,,,,0,0,2,,,,,0,,,60,0
150270,note_on,,,,,0,0,1,,,,,0,,,79,86
150270,note_on,,,,,30,0,1,,,,,0,,,83,0
150280,set_tempo,,,,,110,1,0,,618556,,,,,,,
150285,note_on,,,,,45,0,2,,,,,0,,,59,0
150285,note_on,,,,,0,0,2,,,,,0,,,67,0
150290,set_tempo,,,,,10,1,0,,621761,,,,,,,
150295,control_change,,,,,25,0,1,,,,,0,64,0,,
150300,note_on,,,,,15,0,2,,,,,0,,,67,62
150300,control_change,,,,,0,0,1,,,,,0,64,96,,
150300,note_on,,,,,0,0,1,,,,,0,,,91,86
150300,note_on,,,,,5,0,1,,,,,0,,,79,0
150300,note_on,,,,,0,0,2,,,,,0,,,59,62
150325,set_tempo,,,,,35,1,0,,628272,,,,,,,
150330,note_on,,,,,30,0,1,,,,,0,,,91,0
150330,note_on,,,,,0,0,1,,,,,0,,,90,78
150352,note_on,,,,,0,0,2,,,,,0,,,67,0
150352,note_on,,,,,52,0,2,,,,,0,,,59,0
150360,note_on,,,,,8,0,2,,,,,0,,,67,55
150360,note_on,,,,,30,0,1,,,,,0,,,90,0
150360,note_on,,,,,0,0,1,,,,,0,,,88,66
150360,note_on,,,,,0,0,2,,,,,0,,,59,55
150365,set_tempo,,,,,40,1,0,,641711,,,,,,,
150380,set_tempo,,,,,15,1,0,,659340,,,,,,,
150390,set_tempo,,,,,10,1,0,,677966,,,,,,,
150390,note_on,,,,,30,0,1,,,,,0,,,88,0
150390,note_on,,,,,0,0,1,,,,,0,,,86,56
150400,set_tempo,,,,,10,1,0,,697674,,,,,,,
150405,note_on,,,,,45,0,2,,,,,0,,,59,0
150405,note_on,,,,,0,0,2,,,,,0,,,67,0
150420,note_on,,,,,15,0,2,,,,,0,,,67,48
150420,note_on,,,,,0,0,2,,,,,0,,,59,48
150420,note_on,,,,,0,0,1,,,,,0,,,84,51
150420,note_on,,,,,30,0,1,,,,,0,,,86,0
150435,set_tempo,,,,,35,1,0,,701754,,,,,,,
150450,note_on,,,,,0,0,1,,,,,0,,,83,48
150450,note_on,,,,,30,0,1,,,,,0,,,84,0
150465,note_on,,,,,45,0,2,,,,,0,,,59,0
150465,note_on,,,,,0,0,2,,,,,0,,,67,0
150470,set_tempo,,,,,35,1,0,,1008403,,,,,,,
150473,set_tempo,,,,,3,1,0,,1008403,,,,,,,
150475,control_change,,,,,25,0,1,,,,,0,64,0,,
150480,note_on,,,,,5,0,1,,,,,0,,,83,0
150480,set_tempo,,,,,7,1,0,,670391,,,,,,,
150480,note_on,,,,,15,0,2,,,,,0,,,50,56
150480,control_change,,,,,0,0,1,,,,,0,64,95,,
150480,note_on,,,,,0,0,1,,,,,0,,,76,60
150490,set_tempo,,,,,10,1,0,,659340,,,,,,,
150510,note_on,,,,,0,0,1,,,,,0,,,84,49
150510,note_on,,,,,30,0,1,,,,,0,,,76,0
150540,note_on,,,,,60,0,2,,,,,0,,,69,52
150540,note_on,,,,,0,0,1,,,,,0,,,83,49
150540,note_on,,,,,30,0,1,,,,,0,,,84,0
150540,note_on,,,,,0,0,2,,,,,0,,,60,52
150545,set_tempo,,,,,55,1,0,,645161,,,,,,,
150570,note_on,,,,,0,0,1,,,,,0,,,84,49
150570,note_on,,,,,30,0,1,,,,,0,,,83,0
150600,note_on,,,,,0,0,1,,,,,0,,,76,56
150600,note_on,,,,,30,0,1,,,,,0,,,84,0
150630,note_on,,,,,0,0,1,,,,,0,,,84,63
150630,note_on,,,,,30,0,1,,,,,0,,,76,0
150655,control_change,,,,,25,0,1,,,,,0,64,0,,
150660,note_on,,,,,0,0,2,,,,,0,,,50,50
150660,note_on,,,,,0,0,2,,,,,0,,,50,0
150660,note_on,,,,,0,0,2,,,,,0,,,69,0
150660,note_on,,,,,120,0,2,,,,,0,,,60,0
150660,set_tempo,,,,,115,1,0,,628272,,,,,,,
150660,control_change,,,,,0,0,1,,,,,0,64,95,,
150660,note_on,,,,,5,0,1,,,,,0,,,84,0
150660,note_on,,,,,0,0,1,,,,,0,,,78,68
150690,note_on,,,,,0,0,1,,,,,0,,,86,72
150690,note_on,,,,,30,0,1,,,,,0,,,78,0
150720,note_on,,,,,0,0,1,,,,,0,,,85,63
150720,note_on,,,,,60,0,2,,,,,0,,,62,49
150720,note_on,,,,,0,0,2,,,,,0,,,71,49
150720,note_on,,,,,30,0,1,,,,,0,,,86,0
150750,note_on,,,,,30,0,1,,,,,0,,,85,0
150750,note_on,,,,,0,0,1,,,,,0,,,86,59
150780,note_on,,,,,0,0,1,,,,,0,,,78,58
150780,note_on,,,,,30,0,1,,,,,0,,,86,0
150810,set_tempo,,,,,150,1,0,,618556,,,,,,,
150810,note_on,,,,,0,0,1,,,,,0,,,86,55
150810,note_on,,,,,30,0,1,,,,,0,,,78,0
150830,control_change,,,,,20,0,1,,,,,0,64,0,,
150840,note_on,,,,,120,0,2,,,,,0,,,71,0
150840,note_on,,,,,0,0,2,,,,,0,,,50,0
150840,note_on,,,,,0,0,2,,,,,0,,,50,44
150840,note_on,,,,,0,0,2,,,,,0,,,62,0
150840,control_change,,,,,0,0,1,,,,,0,64,95,,
150840,note_on,,,,,0,0,1,,,,,0,,,78,55
150840,note_on,,,,,10,0,1,,,,,0,,,86,0
150870,note_on,,,,,0,0,1,,,,,0,,,79,52
150870,note_on,,,,,30,0,1,,,,,0,,,78,0
150885,note_on,,,,,45,0,2,,,,,0,,,50,0
150890,set_tempo,,,,,80,1,0,,615384,,,,,,,
150900,note_on,,,,,15,0,2,,,,,0,,,60,49
150900,note_on,,,,,0,0,2,,,,,0,,,69,49
150900,note_on,,,,,0,0,1,,,,,0,,,81,53
150900,note_on,,,,,30,0,1,,,,,0,,,79,0
150930,note_on,,,,,0,0,1,,,,,0,,,79,58
150930,note_on,,,,,30,0,1,,,,,0,,,81,0
150960,note_on,,,,,0,0,2,,,,,0,,,59,52
150960,note_on,,,,,60,0,2,,,,,0,,,69,0
150960,note_on,,,,,30,0,1,,,,,0,,,79,0
150960,note_on,,,,,0,0,1,,,,,0,,,86,62
150960,note_on,,,,,0,0,2,,,,,0,,,67,52
150960,note_on,,,,,0,0,2,,,,,0,,,60,0
150990,note_on,,,,,30,0,1,,,,,0,,,86,0
150990,note_on,,,,,0,0,1,,,,,0,,,83,68
151005,set_tempo,,,,,115,1,0,,615384,,,,,,,
151005,note_on,,,,,0,0,2,,,,,0,,,67,0
151005,note_on,,,,,45,0,2,,,,,0,,,59,0
151015,control_change,,,,,25,0,1,,,,,0,64,0,,
151020,note_on,,,,,0,0,2,,,,,0,,,59,55
151020,note_on,,,,,15,0,2,,,,,0,,,67,55
151020,control_change,,,,,0,0,1,,,,,0,64,96,,
151020,note_on,,,,,5,0,1,,,,,0,,,83,0
151020,note_on,,,,,0,0,1,,,,,0,,,91,74
151045,set_tempo,,,,,40,1,0,,631578,,,,,,,
151050,note_on,,,,,0,0,1,,,,,0,,,90,67
151050,note_on,,,,,30,0,1,,,,,0,,,91,0
151070,set_tempo,,,,,25,1,0,,634920,,,,,,,
151072,note_on,,,,,52,0,2,,,,,0,,,59,0
151072,note_on,,,,,0,0,2,,,,,0,,,67,0
151080,note_on,,,,,0,0,2,,,,,0,,,59,45
151080,note_on,,,,,30,0,1,,,,,0,,,90,0
151080,note_on,,,,,0,0,1,,,,,0,,,88,61
151080,set_tempo,,,,,10,1,0,,652173,,,,,,,
151080,note_on,,,,,8,0,2,,,,,0,,,67,45
151110,note_on,,,,,0,0,1,,,,,0,,,86,53
151110,note_on,,,,,30,0,1,,,,,0,,,88,0
151125,note_on,,,,,0,0,2,,,,,0,,,67,0
151125,note_on,,,,,45,0,2,,,,,0,,,59,0
151140,note_on,,,,,0,0,2,,,,,0,,,59,43
151140,note_on,,,,,0,0,1,,,,,0,,,84,49
151140,note_on,,,,,30,0,1,,,,,0,,,86,0
151140,note_on,,,,,15,0,2,,,,,0,,,67,43
151170,note_on,,,,,0,0,1,,,,,0,,,83,49
151170,note_on,,,,,30,0,1,,,,,0,,,84,0
151173,set_tempo,,,,,93,1,0,,705882,,,,,,,
151185,note_on,,,,,0,0,2,,,,,0,,,67,0
151185,note_on,,,,,45,0,2,,,,,0,,,59,0
151190,set_tempo,,,,,17,1,0,,991735,,,,,,,
151195,control_change,,,,,25,0,1,,,,,0,64,0,,
151200,note_on,,,,,15,0,2,,,,,0,,,50,51
151200,set_tempo,,,,,10,1,0,,666666,,,,,,,
151200,note_on,,,,,0,0,1,,,,,0,,,76,49
151200,note_on,,,,,5,0,1,,,,,0,,,83,0
151200,control_change,,,,,0,0,1,,,,,0,64,95,,
151230,note_on,,,,,30,0,1,,,,,0,,,76,0
151230,note_on,,,,,0,0,1,,,,,0,,,88,53
151260,note_on,,,,,0,0,1,,,,,0,,,87,56
151260,note_on,,,,,30,0,1,,,,,0,,,88,0
151260,note_on,,,,,60,0,2,,,,,0,,,69,46
151260,note_on,,,,,0,0,2,,,,,0,,,60,46
151265,set_tempo,,,,,65,1,0,,648648,,,,,,,
151290,note_on,,,,,30,0,1,,,,,0,,,87,0
151290,note_on,,,,,0,0,1,,,,,0,,,88,59
151320,note_on,,,,,30,0,1,,,,,0,,,88,0
151320,note_on,,,,,0,0,1,,,,,0,,,84,61
151345,set_tempo,,,,,80,1,0,,631578,,,,,,,
151350,note_on,,,,,30,0,1,,,,,0,,,84,0
151350,note_on,,,,,0,0,1,,,,,0,,,81,64
151375,control_change,,,,,25,0,1,,,,,0,64,0,,
151380,note_on,,,,,0,0,2,,,,,0,,,50,45
151380,note_on,,,,,0,0,1,,,,,0,,,78,64
151380,control_change,,,,,0,0,1,,,,,0,64,95,,
151380,note_on,,,,,5,0,1,,,,,0,,,81,0
151380,note_on,,,,,0,0,2,,,,,0,,,50,0
151380,note_on,,,,,0,0,2,,,,,0,,,69,0
151380,note_on,,,,,120,0,2,,,,,0,,,60,0
151410,note_on,,,,,0,0,1,,,,,0,,,86,62
151410,note_on,,,,,30,0,1,,,,,0,,,78,0
151430,set_tempo,,,,,85,1,0,,618556,,,,,,,
151440,note_on,,,,,30,0,1,,,,,0,,,86,0
151440,note_on,,,,,0,0,1,,,,,0,,,85,56
151440,note_on,,,,,0,0,2,,,,,0,,,71,42
151440,note_on,,,,,60,0,2,,,,,0,,,62,42
151470,note_on,,,,,30,0,1,,,,,0,,,85,0
151470,note_on,,,,,0,0,1,,,,,0,,,86,49
151500,note_on,,,,,30,0,1,,,,,0,,,86,0
151500,note_on,,,,,0,0,1,,,,,0,,,78,47
151530,note_on,,,,,0,0,1,,,,,0,,,86,45
151530,note_on,,,,,30,0,1,,,,,0,,,78,0
151545,set_tempo,,,,,115,1,0,,606060,,,,,,,
151550,control_change,,,,,20,0,1,,,,,0,64,0,,
151560,note_on,,,,,0,0,1,,,,,0,,,78,45
151560,note_on,,,,,10,0,1,,,,,0,,,86,0
151560,note_on,,,,,0,0,2,,,,,0,,,43,44
151560,note_on,,,,,120,0,2,,,,,0,,,71,0
151560,control_change,,,,,0,0,1,,,,,0,64,95,,
151560,note_on,,,,,0,0,2,,,,,0,,,62,0
151560,note_on,,,,,0,0,2,,,,,0,,,50,0
151590,note_on,,,,,0,0,1,,,,,0,,,79,45
151590,note_on,,,,,30,0,1,,,,,0,,,78,0
151605,note_on,,,,,45,0,2,,,,,0,,,43,0
151620,note_on,,,,,0,0,1,,,,,0,,,81,46
151620,note_on,,,,,15,0,2,,,,,0,,,60,48
151620,note_on,,,,,0,0,2,,,,,0,,,69,48
151620,note_on,,,,,30,0,1,,,,,0,,,79,0
151650,note_on,,,,,0,0,1,,,,,0,,,79,49
151650,note_on,,,,,30,0,1,,,,,0,,,81,0
151680,note_on,,,,,0,0,2,,,,,0,,,59,52
151680,note_on,,,,,0,0,1,,,,,0,,,91,52
151680,note_on,,,,,0,0,2,,,,,0,,,60,0
151680,note_on,,,,,0,0,2,,,,,0,,,67,52
151680,note_on,,,,,30,0,1,,,,,0,,,79,0
151680,note_on,,,,,60,0,2,,,,,0,,,69,0
151695,set_tempo,,,,,150,1,0,,582524,,,,,,,
151710,note_on,,,,,0,0,1,,,,,0,,,90,58
151710,note_on,,,,,30,0,1,,,,,0,,,91,0
151725,note_on,,,,,45,0,2,,,,,0,,,59,0
151725,note_on,,,,,0,0,2,,,,,0,,,67,0
151735,control_change,,,,,25,0,1,,,,,0,64,0,,
151740,note_on,,,,,15,0,2,,,,,0,,,67,48
151740,note_on,,,,,0,0,2,,,,,0,,,59,48
151740,note_on,,,,,5,0,1,,,,,0,,,90,0
151740,note_on,,,,,0,0,1,,,,,0,,,88,63
151740,control_change,,,,,0,0,1,,,,,0,64,96,,
151770,note_on,,,,,30,0,1,,,,,0,,,88,0
151770,note_on,,,,,0,0,1,,,,,0,,,86,56
151790,set_tempo,,,,,95,1,0,,571428,,,,,,,
151792,note_on,,,,,52,0,2,,,,,0,,,59,0
151792,note_on,,,,,0,0,2,,,,,0,,,67,0
151800,note_on,,,,,30,0,1,,,,,0,,,86,0
151800,note_on,,,,,0,0,1,,,,,0,,,84,53
151800,note_on,,,,,0,0,2,,,,,0,,,59,43
151800,note_on,,,,,8,0,2,,,,,0,,,67,43
151830,note_on,,,,,0,0,1,,,,,0,,,83,56
151830,note_on,,,,,30,0,1,,,,,0,,,84,0
151845,note_on,,,,,45,0,2,,,,,0,,,59,0
151845,note_on,,,,,0,0,2,,,,,0,,,67,0
151860,note_on,,,,,0,0,1,,,,,0,,,81,60
151860,note_on,,,,,15,0,2,,,,,0,,,67,39
151860,note_on,,,,,30,0,1,,,,,0,,,83,0
151860,note_on,,,,,0,0,2,,,,,0,,,59,39
151890,note_on,,,,,30,0,1,,,,,0,,,81,0
151890,note_on,,,,,0,0,1,,,,,0,,,79,63
151890,set_tempo,,,,,100,1,0,,560747,,,,,,,
151905,note_on,,,,,45,0,2,,,,,0,,,59,0
151905,note_on,,,,,0,0,2,,,,,0,,,67,0
151915,control_change,,,,,25,0,1,,,,,0,64,0,,
151920,note_on,,,,,5,0,1,,,,,0,,,79,0
151920,note_on,,,,,0,0,1,,,,,0,,,78,65
151950,note_on,,,,,30,0,1,,,,,0,,,78,0
151950,note_on,,,,,0,0,1,,,,,0,,,76,67
151965,set_tempo,,,,,75,1,0,,558139,,,,,,,
151980,note_on,,,,,30,0,1,,,,,0,,,76,0
151980,note_on,,,,,0,0,1,,,,,0,,,74,72
152010,note_on,,,,,30,0,1,,,,,0,,,74,0
152010,note_on,,,,,0,0,1,,,,,0,,,72,74
152010,set_tempo,,,,,45,1,0,,547945,,,,,,,
152040,note_on,,,,,30,0,1,,,,,0,,,72,0
152040,note_on,,,,,0,0,1,,,,,0,,,71,76
152070,note_on,,,,,30,0,1,,,,,0,,,71,0
152070,note_on,,,,,0,0,1,,,,,0,,,69,79
152090,set_tempo,,,,,80,1,0,,542986,,,,,,,
152095,set_tempo,,,,,5,1,0,,533333,,,,,,,
152100,note_on,,,,,30,0,1,,,,,0,,,69,0
152100,note_on,,,,,0,0,1,,,,,0,,,67,81
152130,note_on,,,,,0,0,1,,,,,0,,,66,84
152130,note_on,,,,,30,0,1,,,,,0,,,67,0
152160,note_on,,,,,30,0,1,,,,,0,,,66,0
152160,note_on,,,,,0,0,1,,,,,0,,,64,88
152190,note_on,,,,,30,0,1,,,,,0,,,64,0
152190,note_on,,,,,0,0,1,,,,,0,,,62,90
152195,set_tempo,,,,,100,1,0,,526315,,,,,,,
152220,note_on,,,,,30,0,1,,,,,0,,,62,0
152220,note_on,,,,,0,0,1,,,,,0,,,60,92
152250,note_on,,,,,30,0,1,,,,,0,,,60,0
152250,note_on,,,,,0,0,1,,,,,0,,,59,96
152270,set_tempo,,,,,75,1,0,,510638,,,,,,,
152280,note_on,,,,,0,0,1,,,,,0,,,69,97
152280,note_on,,,,,30,0,1,,,,,0,,,59,0
152280,note_on,,,,,375,0,2,,,,,0,,,57,92
152310,note_on,,,,,0,0,2,,,,,0,,,55,94
152310,note_on,,,,,30,0,1,,,,,0,,,69,0
152310,note_on,,,,,0,0,1,,,,,0,,,67,102
152310,note_on,,,,,30,0,2,,,,,0,,,57,0
152340,note_on,,,,,0,0,1,,,,,0,,,66,106
152340,note_on,,,,,30,0,1,,,,,0,,,67,0
152340,note_on,,,,,0,0,2,,,,,0,,,54,95
152340,note_on,,,,,30,0,2,,,,,0,,,55,0
152350,set_tempo,,,,,80,1,0,,506329,,,,,,,
152370,note_on,,,,,0,0,1,,,,,0,,,64,108
152370,note_on,,,,,30,0,1,,,,,0,,,66,0
152370,note_on,,,,,30,0,2,,,,,0,,,54,0
152370,note_on,,,,,0,0,2,,,,,0,,,52,97
152400,note_on,,,,,30,0,1,,,,,0,,,64,0
152400,note_on,,,,,0,0,2,,,,,0,,,50,100
152400,note_on,,,,,30,0,2,,,,,0,,,52,0
152400,note_on,,,,,0,0,1,,,,,0,,,62,112
152430,note_on,,,,,30,0,2,,,,,0,,,50,0
152430,note_on,,,,,30,0,1,,,,,0,,,62,0
152430,note_on,,,,,0,0,1,,,,,0,,,60,116
152430,note_on,,,,,0,0,2,,,,,0,,,48,104
152460,note_on,,,,,30,0,1,,,,,0,,,60,0
152460,note_on,,,,,0,0,1,,,,,0,,,59,118
152460,note_on,,,,,0,0,2,,,,,0,,,47,106
152460,note_on,,,,,30,0,2,,,,,0,,,48,0
152480,set_tempo,,,,,130,1,0,,500000,,,,,,,
152490,note_on,,,,,30,0,1,,,,,0,,,59,0
152490,note_on,,,,,0,0,1,,,,,0,,,57,121
152490,note_on,,,,,0,0,2,,,,,0,,,45,110
152490,note_on,,,,,30,0,2,,,,,0,,,47,0
152520,note_on,,,,,30,0,1,,,,,0,,,57,0
152520,note_on,,,,,0,0,1,,,,,0,,,55,126
152520,note_on,,,,,30,0,2,,,,,0,,,45,0
152520,note_on,,,,,0,0,2,,,,,0,,,43,113
152550,note_on,,,,,30,0,1,,,,,0,,,55,0
152550,note_on,,,,,0,0,1,,,,,0,,,54,127
152550,note_on,,,,,30,0,2,,,,,0,,,43,0
152550,note_on,,,,,0,0,2,,,,,0,,,42,117
152575,set_tempo,,,,,95,1,0,,493827,,,,,,,
152580,note_on,,,,,0,0,2,,,,,0,,,40,118
152580,note_on,,,,,30,0,2,,,,,0,,,42,0
152580,note_on,,,,,30,0,1,,,,,0,,,54,0
152580,note_on,,,,,0,0,1,,,,,0,,,52,127
152610,note_on,,,,,30,0,2,,,,,0,,,40,0
152610,note_on,,,,,0,0,2,,,,,0,,,38,122
152610,note_on,,,,,0,0,1,,,,,0,,,50,127
152610,note_on,,,,,30,0,1,,,,,0,,,52,0
152640,note_on,,,,,0,0,1,,,,,0,,,49,127
152640,note_on,,,,,30,0,2,,,,,0,,,38,0
152640,note_on,,,,,0,0,2,,,,,0,,,37,126
152640,control_change,,,,,0,0,1,,,,,0,64,95,,
152640,note_on,,,,,30,0,1,,,,,0,,,50,0
152680,set_tempo,,,,,105,1,0,,508474,,,,,,,
152700,note_on,,,,,60,0,2,,,,,0,,,37,0
152700,note_on,,,,,60,0,1,,,,,0,,,49,0
152710,set_tempo,,,,,30,1,0,,535714,,,,,,,
152730,note_on,,,,,0,0,2,,,,,0,,,55,126
152730,note_on,,,,,30,0,2,,,,,0,,,49,126
152730,note_on,,,,,0,0,2,,,,,0,,,52,126
152730,note_on,,,,,0,0,2,,,,,0,,,57,126
152730,note_on,,,,,0,0,1,,,,,0,,,63,127
152730,note_on,,,,,0,0,1,,,,,0,,,67,127
152730,note_on,,,,,0,0,1,,,,,0,,,69,127
152730,note_on,,,,,30,0,1,,,,,0,,,61,127
152750,set_tempo,,,,,40,1,0,,571428,,,,,,,
152755,note_on,,,,,0,0,1,,,,,0,,,67,0
152755,note_on,,,,,0,0,1,,,,,0,,,61,0
152755,note_on,,,,,25,0,1,,,,,0,,,69,0
152755,note_on,,,,,0,0,1,,,,,0,,,63,0
152755,note_on,,,,,25,0,2,,,,,0,,,57,0
152755,note_on,,,,,0,0,2,,,,,0,,,49,0
152755,note_on,,,,,0,0,2,,,,,0,,,52,0
152755,note_on,,,,,0,0,2,,,,,0,,,55,0
152760,note_on,,,,,0,0,1,,,,,0,,,61,127
152760,note_on,,,,,0,0,1,,,,,0,,,69,127
152760,note_on,,,,,5,0,1,,,,,0,,,67,127
152760,note_on,,,,,0,0,1,,,,,0,,,64,127
152760,note_on,,,,,5,0,2,,,,,0,,,57,127
152760,note_on,,,,,0,0,2,,,,,0,,,49,127
152760,note_on,,,,,0,0,2,,,,,0,,,52,127
152760,note_on,,,,,0,0,2,,,,,0,,,55,127
152805,set_tempo,,,,,55,1,0,,609137,,,,,,,
152810,set_tempo,,,,,5,1,0,,597014,,,,,,,
152813,set_tempo,,,,,3,1,0,,615384,,,,,,,
153300,control_change,,,,,540,0,1,,,,,0,64,0,,
153315,note_on,,,,,555,0,2,,,,,0,,,49,0
153315,note_on,,,,,15,0,1,,,,,0,,,61,0
153315,note_on,,,,,0,0,1,,,,,0,,,67,0
153315,note_on,,,,,0,0,1,,,,,0,,,69,0
153315,note_on,,,,,0,0,1,,,,,0,,,64,0
153315,note_on,,,,,0,0,2,,,,,0,,,57,0
153315,note_on,,,,,0,0,2,,,,,0,,,52,0
153315,note_on,,,,,0,0,2,,,,,0,,,55,0
153330,set_tempo,,,,,517,1,0,,2000000,,,,,,,
153360,set_tempo,,,,,30,1,0,,628272,,,,,,,
153360,note_on,,,,,45,0,2,,,,,0,,,49,34
153360,control_change,,,,,45,0,1,,,,,0,64,95,,
153360,note_on,,,,,0,0,1,,,,,0,,,81,43
153420,note_on,,,,,60,0,1,,,,,0,,,69,39
153450,note_on,,,,,30,0,1,,,,,0,,,69,0
153450,note_on,,,,,0,0,1,,,,,0,,,76,39
153460,set_tempo,,,,,100,1,0,,612244,,,,,,,
153480,note_on,,,,,30,0,1,,,,,0,,,76,0
153480,note_on,,,,,0,0,1,,,,,0,,,79,37
153500,set_tempo,,,,,40,1,0,,606060,,,,,,,
153525,note_on,,,,,45,0,1,,,,,0,,,79,0
153535,control_change,,,,,10,0,1,,,,,0,64,0,,
153540,note_on,,,,,5,0,1,,,,,0,,,81,0
153540,control_change,,,,,0,0,1,,,,,0,64,95,,
153540,note_on,,,,,0,0,1,,,,,0,,,82,45
153540,note_on,,,,,180,0,2,,,,,0,,,49,0
153540,note_on,,,,,0,0,2,,,,,0,,,45,38
153600,note_on,,,,,60,0,1,,,,,0,,,73,40
153630,note_on,,,,,30,0,1,,,,,0,,,73,0
153630,note_on,,,,,0,0,1,,,,,0,,,76,37
153660,note_on,,,,,30,0,1,,,,,0,,,76,0
153660,note_on,,,,,0,0,1,,,,,0,,,79,35
153675,set_tempo,,,,,175,1,0,,582524,,,,,,,
153705,note_on,,,,,45,0,1,,,,,0,,,79,0
153715,control_change,,,,,10,0,1,,,,,0,64,0,,
153720,note_on,,,,,0,0,2,,,,,0,,,50,45
153720,note_on,,,,,180,0,2,,,,,0,,,45,0
153720,note_on,,,,,5,0,1,,,,,0,,,82,0
153720,control_change,,,,,0,0,1,,,,,0,64,95,,
153720,note_on,,,,,0,0,1,,,,,0,,,81,46
153735,set_tempo,,,,,60,1,0,,585365,,,,,,,
153780,note_on,,,,,60,0,1,,,,,0,,,72,42
153810,note_on,,,,,30,0,1,,,,,0,,,72,0
153810,note_on,,,,,0,0,1,,,,,0,,,74,46
153840,note_on,,,,,0,0,1,,,,,0,,,79,51
153840,note_on,,,,,30,0,1,,,,,0,,,74,0
153885,note_on,,,,,45,0,1,,,,,0,,,79,0
153890,set_tempo,,,,,155,1,0,,574162,,,,,,,
153895,control_change,,,,,10,0,1,,,,,0,64,0,,
153895,set_tempo,,,,,5,1,0,,571428,,,,,,,
153900,note_on,,,,,0,0,2,,,,,0,,,38,49
153900,control_change,,,,,0,0,1,,,,,0,64,95,,
153900,note_on,,,,,0,0,1,,,,,0,,,86,50
153900,note_on,,,,,180,0,2,,,,,0,,,50,0
153900,note_on,,,,,5,0,1,,,,,0,,,81,0
153960,note_on,,,,,60,0,1,,,,,0,,,72,53
153990,note_on,,,,,0,0,1,,,,,0,,,74,51
153990,note_on,,,,,30,0,1,,,,,0,,,72,0
154020,note_on,,,,,0,0,1,,,,,0,,,78,48
154020,note_on,,,,,30,0,1,,,,,0,,,74,0
154065,note_on,,,,,0,0,1,,,,,0,,,86,0
154065,note_on,,,,,45,0,1,,,,,0,,,78,0
154065,note_on,,,,,165,0,2,,,,,0,,,38,0
154075,control_change,,,,,10,0,1,,,,,0,64,0,,
154080,control_change,,,,,5,0,1,,,,,0,64,95,,
154080,note_on,,,,,15,0,2,,,,,0,,,39,51
154080,note_on,,,,,0,0,1,,,,,0,,,83,59
154115,set_tempo,,,,,220,1,0,,574162,,,,,,,
154140,note_on,,,,,60,0,1,,,,,0,,,81,53
154170,note_on,,,,,0,0,1,,,,,0,,,78,50
154170,note_on,,,,,30,0,1,,,,,0,,,81,0
154195,set_tempo,,,,,80,1,0,,579710,,,,,,,
154200,note_on,,,,,30,0,1,,,,,0,,,78,0
154200,note_on,,,,,0,0,1,,,,,0,,,71,45
154245,note_on,,,,,45,0,1,,,,,0,,,71,0
154255,control_change,,,,,10,0,1,,,,,0,64,0,,
154260,note_on,,,,,0,0,2,,,,,0,,,40,50
154260,note_on,,,,,180,0,2,,,,,0,,,39,0
154260,note_on,,,,,5,0,1,,,,,0,,,83,0
154260,control_change,,,,,0,0,1,,,,,0,64,95,,
154260,note_on,,,,,0,0,1,,,,,0,,,80,54
154290,set_tempo,,,,,95,1,0,,591133,,,,,,,
154320,note_on,,,,,60,0,1,,,,,0,,,77,50
154350,note_on,,,,,0,0,1,,,,,0,,,74,47
154350,note_on,,,,,30,0,1,,,,,0,,,77,0
154380,note_on,,,,,30,0,1,,,,,0,,,74,0
154380,note_on,,,,,0,0,1,,,,,0,,,71,44
154415,set_tempo,,,,,125,1,0,,600000,,,,,,,
154425,note_on,,,,,45,0,1,,,,,0,,,71,0
154435,control_change,,,,,10,0,1,,,,,0,64,0,,
154440,note_on,,,,,180,0,2,,,,,0,,,40,0
154440,note_on,,,,,0,0,2,,,,,0,,,37,46
154440,note_on,,,,,0,0,1,,,,,0,,,81,48
154440,control_change,,,,,0,0,1,,,,,0,64,96,,
154440,note_on,,,,,5,0,1,,,,,0,,,80,0
154500,note_on,,,,,60,0,1,,,,,0,,,79,43
154530,note_on,,,,,0,0,1,,,,,0,,,76,40
154530,note_on,,,,,30,0,1,,,,,0,,,79,0
154560,note_on,,,,,30,0,1,,,,,0,,,76,0
154560,note_on,,,,,0,0,1,,,,,0,,,69,38
154605,note_on,,,,,45,0,1,,,,,0,,,69,0
154615,control_change,,,,,10,0,1,,,,,0,64,0,,
154620,note_on,,,,,0,0,1,,,,,0,,,78,41
154620,control_change,,,,,0,0,1,,,,,0,64,95,,
154620,note_on,,,,,5,0,1,,,,,0,,,81,0
154620,note_on,,,,,0,0,2,,,,,0,,,38,42
154620,note_on,,,,,180,0,2,,,,,0,,,37,0
154655,set_tempo,,,,,240,1,0,,606060,,,,,,,
154680,note_on,,,,,60,0,1,,,,,0,,,75,44
154710,note_on,,,,,30,0,1,,,,,0,,,75,0
154710,note_on,,,,,0,0,1,,,,,0,,,72,39
154740,note_on,,,,,30,0,1,,,,,0,,,72,0
154740,note_on,,,,,0,0,1,,,,,0,,,69,37
154785,note_on,,,,,165,0,2,,,,,0,,,38,0
154785,note_on,,,,,45,0,1,,,,,0,,,69,0
154785,note_on,,,,,0,0,1,,,,,0,,,78,0
154795,control_change,,,,,10,0,1,,,,,0,64,0,,
154800,note_on,,,,,15,0,2,,,,,0,,,35,40
154800,note_on,,,,,0,0,1,,,,,0,,,79,40
154800,control_change,,,,,5,0,1,,,,,0,64,95,,
154860,note_on,,,,,60,0,1,,,,,0,,,77,41
154890,note_on,,,,,30,0,1,,,,,0,,,77,0
154890,note_on,,,,,0,0,1,,,,,0,,,74,40
154910,set_tempo,,,,,255,1,0,,618556,,,,,,,
154920,note_on,,,,,30,0,1,,,,,0,,,74,0
154920,note_on,,,,,0,0,1,,,,,0,,,67,37
154950,note_on,,,,,30,0,1,,,,,0,,,67,0
154965,note_on,,,,,15,0,1,,,,,0,,,79,0
154975,control_change,,,,,10,0,1,,,,,0,64,0,,
154980,note_on,,,,,180,0,2,,,,,0,,,35,0
154980,control_change,,,,,5,0,1,,,,,0,64,95,,
154980,note_on,,,,,0,0,1,,,,,0,,,79,41
154980,note_on,,,,,0,0,2,,,,,0,,,36,40
155040,note_on,,,,,60,0,1,,,,,0,,,76,39
155070,note_on,,,,,30,0,1,,,,,0,,,76,0
155070,note_on,,,,,0,0,1,,,,,0,,,72,35
155100,note_on,,,,,30,0,1,,,,,0,,,72,0
155100,note_on,,,,,0,0,1,,,,,0,,,67,35
155130,note_on,,,,,30,0,1,,,,,0,,,67,0
155140,set_tempo,,,,,230,1,0,,634920,,,,,,,
155145,note_on,,,,,15,0,1,,,,,0,,,79,0
155155,control_change,,,,,10,0,1,,,,,0,64,0,,
155160,note_on,,,,,180,0,2,,,,,0,,,36,0
155160,note_on,,,,,0,0,2,,,,,0,,,38,43
155160,control_change,,,,,5,0,1,,,,,0,64,96,,
155160,note_on,,,,,0,0,1,,,,,0,,,79,43
155175,set_tempo,,,,,35,1,0,,638297,,,,,,,
155220,note_on,,,,,60,0,1,,,,,0,,,71,33
155250,note_on,,,,,30,0,1,,,,,0,,,71,0
155250,note_on,,,,,0,0,1,,,,,0,,,74,37
155280,note_on,,,,,30,0,1,,,,,0,,,74,0
155280,note_on,,,,,0,0,1,,,,,0,,,76,41
155310,note_on,,,,,30,0,1,,,,,0,,,76,0
155310,note_on,,,,,0,0,1,,,,,0,,,74,43
155325,note_on,,,,,165,0,2,,,,,0,,,38,0
155335,note_on,,,,,25,0,1,,,,,0,,,74,0
155335,control_change,,,,,0,0,1,,,,,0,64,0,,
155340,note_on,,,,,5,0,1,,,,,0,,,79,0
155340,control_change,,,,,0,0,1,,,,,0,64,96,,
155340,note_on,,,,,15,0,2,,,,,0,,,38,40
155340,note_on,,,,,0,0,1,,,,,0,,,78,41
155400,note_on,,,,,60,0,1,,,,,0,,,76,42
155430,note_on,,,,,0,0,1,,,,,0,,,72,40
155430,note_on,,,,,30,0,1,,,,,0,,,76,0
155440,set_tempo,,,,,265,1,0,,645161,,,,,,,
155460,note_on,,,,,0,0,1,,,,,0,,,71,37
155460,note_on,,,,,30,0,1,,,,,0,,,72,0
155490,note_on,,,,,0,0,1,,,,,0,,,72,34
155490,note_on,,,,,30,0,1,,,,,0,,,71,0
155505,note_on,,,,,15,0,1,,,,,0,,,78,0
155505,note_on,,,,,165,0,2,,,,,0,,,38,0
155515,control_change,,,,,0,0,1,,,,,0,64,1,,
155515,note_on,,,,,10,0,1,,,,,0,,,72,0
155520,note_on,,,,,0,0,1,,,,,0,,,79,38
155520,control_change,,,,,5,0,1,,,,,0,64,95,,
155520,note_on,,,,,15,0,2,,,,,0,,,38,37
155580,note_on,,,,,60,0,1,,,,,0,,,71,32
155610,note_on,,,,,0,0,1,,,,,0,,,74,32
155610,note_on,,,,,30,0,1,,,,,0,,,71,0
155620,set_tempo,,,,,180,1,0,,655737,,,,,,,
155640,note_on,,,,,0,0,1,,,,,0,,,76,37
155640,note_on,,,,,30,0,1,,,,,0,,,74,0
155670,note_on,,,,,0,0,1,,,,,0,,,74,39
155670,note_on,,,,,30,0,1,,,,,0,,,76,0
155685,note_on,,,,,165,0,2,,,,,0,,,38,0
155685,set_tempo,,,,,65,1,0,,666666,,,,,,,
155695,note_on,,,,,25,0,1,,,,,0,,,74,0
155700,note_on,,,,,0,0,1,,,,,0,,,78,35
155700,control_change,,,,,0,0,1,,,,,0,64,95,,
155700,note_on,,,,,5,0,1,,,,,0,,,79,0
155700,note_on,,,,,15,0,2,,,,,0,,,38,34
155750,set_tempo,,,,,65,1,0,,689655,,,,,,,
155760,note_on,,,,,60,0,1,,,,,0,,,76,41
155790,note_on,,,,,0,0,1,,,,,0,,,72,39
155790,note_on,,,,,30,0,1,,,,,0,,,76,0
155820,note_on,,,,,30,0,1,,,,,0,,,72,0
155820,note_on,,,,,0,0,1,,,,,0,,,71,36
155820,set_tempo,,,,,70,1,0,,705882,,,,,,,
155850,note_on,,,,,0,0,1,,,,,0,,,72,34
155850,note_on,,,,,30,0,1,,,,,0,,,71,0
155860,set_tempo,,,,,40,1,0,,731707,,,,,,,
155880,note_on,,,,,0,0,1,,,,,0,,,78,0
155880,note_on,,,,,0,0,1,,,,,0,,,79,33
155880,note_on,,,,,180,0,2,,,,,0,,,38,0
155880,note_on,,,,,30,0,1,,,,,0,,,72,0
155880,control_change,,,,,0,0,1,,,,,0,64,95,,
155880,note_on,,,,,0,0,1,,,,,0,,,71,33
155880,note_on,,,,,0,0,2,,,,,0,,,43,34
155905,set_tempo,,,,,45,1,0,,764331,,,,,,,
155930,set_tempo,,,,,25,1,0,,2142857,,,,,,,
155932,note_on,,,,,52,0,2,,,,,0,,,43,0
155932,note_on,,,,,52,0,1,,,,,0,,,79,0
155932,note_on,,,,,0,0,1,,,,,0,,,71,0
155940,set_tempo,,,,,10,1,0,,603015,,,,,,,
155940,note_on,,,,,8,0,1,,,,,0,,,78,46
155955,set_tempo,,,,,15,1,0,,603015,,,,,,,
155970,note_on,,,,,30,0,1,,,,,0,,,78,0
155970,note_on,,,,,0,0,1,,,,,0,,,79,49
156000,note_on,,,,,30,0,1,,,,,0,,,79,0
156000,set_tempo,,,,,45,1,0,,585365,,,,,,,
156000,note_on,,,,,0,0,1,,,,,0,,,91,52
156030,note_on,,,,,0,0,1,,,,,0,,,90,58
156030,note_on,,,,,30,0,1,,,,,0,,,91,0
156055,control_change,,,,,25,0,1,,,,,0,64,0,,
156060,note_on,,,,,5,0,1,,,,,0,,,90,0
156060,note_on,,,,,0,0,1,,,,,0,,,88,63
156060,control_change,,,,,0,0,1,,,,,0,64,96,,
156085,set_tempo,,,,,85,1,0,,574162,,,,,,,
156090,note_on,,,,,0,0,1,,,,,0,,,86,56
156090,note_on,,,,,30,0,1,,,,,0,,,88,0
156120,note_on,,,,,0,0,1,,,,,0,,,84,53
156120,note_on,,,,,30,0,1,,,,,0,,,86,0
156150,note_on,,,,,0,0,1,,,,,0,,,83,56
156150,note_on,,,,,30,0,1,,,,,0,,,84,0
156180,note_on,,,,,0,0,1,,,,,0,,,81,60
156180,note_on,,,,,30,0,1,,,,,0,,,83,0
156180,set_tempo,,,,,95,1,0,,566037,,,,,,,
156210,note_on,,,,,0,0,1,,,,,0,,,79,63
156210,note_on,,,,,30,0,1,,,,,0,,,81,0
156235,control_change,,,,,25,0,1,,,,,0,64,0,,
156240,note_on,,,,,5,0,1,,,,,0,,,79,0
156240,note_on,,,,,0,0,1,,,,,0,,,78,65
156265,set_tempo,,,,,85,1,0,,555555,,,,,,,
156270,note_on,,,,,30,0,1,,,,,0,,,78,0
156270,note_on,,,,,0,0,1,,,,,0,,,76,67
156280,set_tempo,,,,,15,1,0,,552995,,,,,,,
156300,note_on,,,,,30,0,1,,,,,0,,,76,0
156300,note_on,,,,,0,0,1,,,,,0,,,74,72
156330,note_on,,,,,30,0,1,,,,,0,,,74,0
156330,note_on,,,,,0,0,1,,,,,0,,,72,74
156360,note_on,,,,,30,0,1,,,,,0,,,72,0
156360,note_on,,,,,0,0,1,,,,,0,,,71,76
156390,note_on,,,,,0,0,1,,,,,0,,,69,79
156390,note_on,,,,,30,0,1,,,,,0,,,71,0
156400,set_tempo,,,,,120,1,0,,538116,,,,,,,
156420,note_on,,,,,0,0,1,,,,,0,,,67,81
156420,note_on,,,,,30,0,1,,,,,0,,,69,0
156450,note_on,,,,,0,0,1,,,,,0,,,66,84
156450,note_on,,,,,30,0,1,,,,,0,,,67,0
156480,note_on,,,,,0,0,1,,,,,0,,,64,88
156480,note_on,,,,,30,0,1,,,,,0,,,66,0
156510,note_on,,,,,30,0,1,,,,,0,,,64,0
156510,note_on,,,,,0,0,1,,,,,0,,,62,90
156510,set_tempo,,,,,110,1,0,,530973,,,,,,,
156535,set_tempo,,,,,25,1,0,,521739,,,,,,,
156540,note_on,,,,,30,0,1,,,,,0,,,62,0
156540,note_on,,,,,0,0,1,,,,,0,,,60,92
156570,note_on,,,,,30,0,1,,,,,0,,,60,0
156570,note_on,,,,,0,0,1,,,,,0,,,59,96
156585,set_tempo,,,,,50,1,0,,515021,,,,,,,
156600,note_on,,,,,668,0,2,,,,,0,,,57,92
156600,note_on,,,,,30,0,1,,,,,0,,,59,0
156600,note_on,,,,,0,0,1,,,,,0,,,69,97
156630,note_on,,,,,30,0,2,,,,,0,,,57,0
156630,note_on,,,,,0,0,2,,,,,0,,,55,94
156630,note_on,,,,,30,0,1,,,,,0,,,69,0
156630,note_on,,,,,0,0,1,,,,,0,,,67,102
156660,note_on,,,,,30,0,1,,,,,0,,,67,0
156660,note_on,,,,,0,0,1,,,,,0,,,66,106
156660,note_on,,,,,30,0,2,,,,,0,,,55,0
156660,note_on,,,,,0,0,2,,,,,0,,,54,95
156660,set_tempo,,,,,75,1,0,,506329,,,,,,,
156690,note_on,,,,,0,0,2,,,,,0,,,52,97
156690,note_on,,,,,30,0,2,,,,,0,,,54,0
156690,note_on,,,,,30,0,1,,,,,0,,,66,0
156690,note_on,,,,,0,0,1,,,,,0,,,64,108
156720,note_on,,,,,0,0,2,,,,,0,,,50,100
156720,note_on,,,,,30,0,2,,,,,0,,,52,0
156720,note_on,,,,,30,0,1,,,,,0,,,64,0
156720,note_on,,,,,0,0,1,,,,,0,,,62,112
156750,note_on,,,,,30,0,2,,,,,0,,,50,0
156750,note_on,,,,,0,0,2,,,,,0,,,48,104
156750,note_on,,,,,0,0,1,,,,,0,,,60,116
156750,note_on,,,,,30,0,1,,,,,0,,,62,0
156780,note_on,,,,,30,0,2,,,,,0,,,48,0
156780,set_tempo,,,,,120,1,0,,497925,,,,,,,
156780,note_on,,,,,0,0,2,,,,,0,,,47,106
156780,note_on,,,,,0,0,1,,,,,0,,,59,118
156780,note_on,,,,,30,0,1,,,,,0,,,60,0
156810,note_on,,,,,30,0,1,,,,,0,,,59,0
156810,note_on,,,,,30,0,2,,,,,0,,,47,0
156810,note_on,,,,,0,0,1,,,,,0,,,57,121
156810,note_on,,,,,0,0,2,,,,,0,,,45,110
156840,note_on,,,,,30,0,2,,,,,0,,,45,0
156840,note_on,,,,,30,0,1,,,,,0,,,57,0
156840,note_on,,,,,0,0,1,,,,,0,,,55,126
156840,note_on,,,,,0,0,2,,,,,0,,,43,113
156870,note_on,,,,,30,0,2,,,,,0,,,43,0
156870,note_on,,,,,0,0,2,,,,,0,,,42,117
156870,note_on,,,,,30,0,1,,,,,0,,,55,0
156870,note_on,,,,,0,0,1,,,,,0,,,54,127
156895,set_tempo,,,,,115,1,0,,491803,,,,,,,
156900,note_on,,,,,30,0,2,,,,,0,,,42,0
156900,note_on,,,,,0,0,2,,,,,0,,,40,118
156900,note_on,,,,,0,0,1,,,,,0,,,52,127
156900,note_on,,,,,30,0,1,,,,,0,,,54,0
156930,note_on,,,,,0,0,1,,,,,0,,,50,127
156930,note_on,,,,,30,0,1,,,,,0,,,52,0
156930,note_on,,,,,30,0,2,,,,,0,,,40,0
156930,note_on,,,,,0,0,2,,,,,0,,,38,122
156935,set_tempo,,,,,40,1,0,,493827,,,,,,,
156960,note_on,,,,,0,0,1,,,,,0,,,49,127
156960,note_on,,,,,30,0,1,,,,,0,,,50,0
156960,control_change,,,,,0,0,1,,,,,0,64,95,,
156960,note_on,,,,,0,0,2,,,,,0,,,37,126
156960,note_on,,,,,30,0,2,,,,,0,,,38,0
157000,set_tempo,,,,,65,1,0,,495867,,,,,,,
157005,set_tempo,,,,,5,1,0,,508474,,,,,,,
157010,set_tempo,,,,,5,1,0,,510638,,,,,,,
157020,note_on,,,,,60,0,2,,,,,0,,,37,0
157020,note_on,,,,,60,0,1,,,,,0,,,49,0
157040,set_tempo,,,,,30,1,0,,533333,,,,,,,
157050,note_on,,,,,0,0,2,,,,,0,,,52,126
157050,note_on,,,,,0,0,2,,,,,0,,,55,126
157050,note_on,,,,,0,0,2,,,,,0,,,57,126
157050,note_on,,,,,0,0,1,,,,,0,,,69,127
157050,note_on,,,,,30,0,1,,,,,0,,,61,127
157050,note_on,,,,,0,0,1,,,,,0,,,63,127
157050,note_on,,,,,0,0,1,,,,,0,,,67,127
157050,note_on,,,,,30,0,2,,,,,0,,,49,126
157060,set_tempo,,,,,20,1,0,,535714,,,,,,,
157065,set_tempo,,,,,5,1,0,,552995,,,,,,,
157075,note_on,,,,,0,0,1,,,,,0,,,67,0
157075,note_on,,,,,25,0,2,,,,,0,,,57,0
157075,note_on,,,,,0,0,2,,,,,0,,,49,0
157075,note_on,,,,,0,0,2,,,,,0,,,52,0
157075,note_on,,,,,0,0,2,,,,,0,,,55,0
157075,note_on,,,,,0,0,1,,,,,0,,,63,0
157075,note_on,,,,,0,0,1,,,,,0,,,61,0
157075,set_tempo,,,,,10,1,0,,555555,,,,,,,
157075,note_on,,,,,25,0,1,,,,,0,,,69,0
157080,note_on,,,,,0,0,2,,,,,0,,,52,127
157080,note_on,,,,,5,0,2,,,,,0,,,57,127
157080,note_on,,,,,0,0,2,,,,,0,,,49,127
157080,note_on,,,,,5,0,1,,,,,0,,,69,127
157080,note_on,,,,,0,0,1,,,,,0,,,67,127
157080,note_on,,,,,0,0,2,,,,,0,,,55,127
157080,note_on,,,,,0,0,1,,,,,0,,,61,127
157080,note_on,,,,,0,0,1,,,,,0,,,64,127
157090,set_tempo,,,,,15,1,0,,585365,,,,,,,
157115,set_tempo,,,,,25,1,0,,612244,,,,,,,
157133,set_tempo,,,,,18,1,0,,615384,,,,,,,
157620,control_change,,,,,540,0,1,,,,,0,64,0,,
157635,note_on,,,,,0,0,1,,,,,0,,,67,0
157635,note_on,,,,,0,0,2,,,,,0,,,55,0
157635,note_on,,,,,0,0,2,,,,,0,,,52,0
157635,note_on,,,,,0,0,1,,,,,0,,,69,0
157635,note_on,,,,,555,0,2,,,,,0,,,49,0
157635,note_on,,,,,15,0,1,,,,,0,,,61,0
157635,note_on,,,,,0,0,1,,,,,0,,,64,0
157635,note_on,,,,,0,0,2,,,,,0,,,57,0
157645,set_tempo,,,,,512,1,0,,615384,,,,,,,
157650,set_tempo,,,,,5,1,0,,612244,,,,,,,
157680,control_change,,,,,0,0,1,,,,,0,64,96,,
157680,note_on,,,,,0,0,2,,,,,0,,,48,121
157680,note_on,,,,,45,0,2,,,,,0,,,36,121
157680,note_on,,,,,45,0,1,,,,,0,,,60,127
157730,set_tempo,,,,,80,1,0,,600000,,,,,,,
157740,note_on,,,,,60,0,2,,,,,0,,,48,0
157740,note_on,,,,,0,0,2,,,,,0,,,36,0
157740,note_on,,,,,60,0,1,,,,,0,,,60,0
157770,note_on,,,,,0,0,1,,,,,0,,,64,127
157770,note_on,,,,,0,0,2,,,,,0,,,52,103
157770,note_on,,,,,0,0,2,,,,,0,,,55,103
157770,note_on,,,,,0,0,2,,,,,0,,,58,103
157770,note_on,,,,,30,0,2,,,,,0,,,48,103
157770,note_on,,,,,30,0,1,,,,,0,,,60,127
157770,note_on,,,,,0,0,1,,,,,0,,,67,127
157770,note_on,,,,,0,0,1,,,,,0,,,70,127
157795,note_on,,,,,0,0,2,,,,,0,,,52,0
157795,note_on,,,,,0,0,2,,,,,0,,,48,0
157795,note_on,,,,,0,0,1,,,,,0,,,60,0
157795,note_on,,,,,0,0,1,,,,,0,,,64,0
157795,note_on,,,,,0,0,2,,,,,0,,,55,0
157795,note_on,,,,,25,0,2,,,,,0,,,58,0
157795,note_on,,,,,0,0,1,,,,,0,,,67,0
157795,note_on,,,,,25,0,1,,,,,0,,,70,0
157800,note_on,,,,,5,0,2,,,,,0,,,48,101
157800,note_on,,,,,0,0,2,,,,,0,,,55,101
157800,note_on,,,,,0,0,1,,,,,0,,,70,127
157800,note_on,,,,,0,0,2,,,,,0,,,58,101
157800,note_on,,,,,5,0,1,,,,,0,,,60,127
157800,note_on,,,,,0,0,1,,,,,0,,,64,127
157800,note_on,,,,,0,0,1,,,,,0,,,67,127
157800,note_on,,,,,0,0,2,,,,,0,,,52,101
157810,set_tempo,,,,,80,1,0,,585365,,,,,,,
157865,set_tempo,,,,,55,1,0,,576923,,,,,,,
157930,set_tempo,,,,,65,1,0,,566037,,,,,,,
158000,set_tempo,,,,,70,1,0,,555555,,,,,,,
158025,note_on,,,,,0,0,1,,,,,0,,,60,0
158025,note_on,,,,,0,0,2,,,,,0,,,48,0
158025,note_on,,,,,0,0,2,,,,,0,,,52,0
158025,note_on,,,,,0,0,2,,,,,0,,,55,0
158025,note_on,,,,,225,0,2,,,,,0,,,58,0
158025,note_on,,,,,225,0,1,,,,,0,,,70,0
158025,note_on,,,,,0,0,1,,,,,0,,,64,0
158025,note_on,,,,,0,0,1,,,,,0,,,67,0
158035,control_change,,,,,10,0,1,,,,,0,64,0,,
158040,control_change,,,,,0,0,1,,,,,0,64,96,,
158040,note_on,,,,,15,0,2,,,,,0,,,35,120
158040,note_on,,,,,0,0,2,,,,,0,,,47,120
158040,note_on,,,,,5,0,1,,,,,0,,,59,127
158090,set_tempo,,,,,90,1,0,,545454,,,,,,,
158100,note_on,,,,,60,0,1,,,,,0,,,59,0
158100,note_on,,,,,0,0,2,,,,,0,,,35,0
158100,note_on,,,,,60,0,2,,,,,0,,,47,0
158130,note_on,,,,,0,0,1,,,,,0,,,62,127
158130,note_on,,,,,30,0,1,,,,,0,,,71,127
158130,note_on,,,,,0,0,1,,,,,0,,,67,127
158130,note_on,,,,,30,0,2,,,,,0,,,47,108
158130,note_on,,,,,0,0,2,,,,,0,,,55,108
158130,note_on,,,,,0,0,2,,,,,0,,,59,108
158130,note_on,,,,,0,0,2,,,,,0,,,50,108
158155,note_on,,,,,0,0,2,,,,,0,,,47,0
158155,note_on,,,,,0,0,1,,,,,0,,,67,0
158155,note_on,,,,,0,0,1,,,,,0,,,71,0
158155,note_on,,,,,25,0,1,,,,,0,,,62,0
158155,note_on,,,,,0,0,2,,,,,0,,,50,0
158155,note_on,,,,,0,0,2,,,,,0,,,55,0
158155,note_on,,,,,25,0,2,,,,,0,,,59,0
158160,note_on,,,,,0,0,2,,,,,0,,,50,105
158160,note_on,,,,,5,0,1,,,,,0,,,62,127
158160,note_on,,,,,0,0,1,,,,,0,,,71,127
158160,note_on,,,,,0,0,2,,,,,0,,,55,105
158160,note_on,,,,,0,0,2,,,,,0,,,59,105
158160,note_on,,,,,5,0,2,,,,,0,,,47,105
158160,note_on,,,,,0,0,1,,,,,0,,,67,127
158190,set_tempo,,,,,100,1,0,,535714,,,,,,,
158285,set_tempo,,,,,95,1,0,,528634,,,,,,,
158345,set_tempo,,,,,60,1,0,,515021,,,,,,,
158385,note_on,,,,,225,0,1,,,,,0,,,71,0
158385,control_change,,,,,0,0,1,,,,,0,64,0,,
158385,note_on,,,,,225,0,2,,,,,0,,,59,0
158385,note_on,,,,,0,0,2,,,,,0,,,47,0
158385,note_on,,,,,0,0,2,,,,,0,,,50,0
158385,note_on,,,,,0,0,2,,,,,0,,,55,0
158385,note_on,,,,,0,0,1,,,,,0,,,62,0
158385,note_on,,,,,0,0,1,,,,,0,,,67,0
158400,control_change,,,,,15,0,1,,,,,0,64,95,,
158400,note_on,,,,,15,0,2,,,,,0,,,33,127
158400,note_on,,,,,0,0,2,,,,,0,,,45,127
158460,note_on,,,,,60,0,2,,,,,0,,,45,0
158460,note_on,,,,,0,0,2,,,,,0,,,33,0
158490,note_on,,,,,30,0,2,,,,,0,,,45,127
158490,note_on,,,,,0,0,2,,,,,0,,,52,127
158490,note_on,,,,,0,0,2,,,,,0,,,61,127
158490,note_on,,,,,0,0,2,,,,,0,,,55,127
158515,note_on,,,,,25,0,2,,,,,0,,,61,0
158515,note_on,,,,,0,0,2,,,,,0,,,45,0
158515,note_on,,,,,0,0,2,,,,,0,,,52,0
158515,note_on,,,,,0,0,2,,,,,0,,,55,0
158520,note_on,,,,,5,0,2,,,,,0,,,45,127
158520,note_on,,,,,0,0,2,,,,,0,,,52,127
158520,note_on,,,,,0,0,2,,,,,0,,,55,127
158520,note_on,,,,,0,0,2,,,,,0,,,61,127
158580,control_change,,,,,180,0,1,,,,,0,64,0,,
158625,note_on,,,,,0,0,2,,,,,0,,,55,0
158625,note_on,,,,,0,0,2,,,,,0,,,52,0
158625,note_on,,,,,0,0,2,,,,,0,,,45,0
158625,note_on,,,,,105,0,2,,,,,0,,,61,0
158640,note_on,,,,,60,0,1,,,,,0,,,55,127
158640,note_on,,,,,0,0,1,,,,,0,,,64,127
158640,note_on,,,,,0,0,1,,,,,0,,,61,127
158640,note_on,,,,,15,0,2,,,,,0,,,45,103
158685,note_on,,,,,0,0,1,,,,,0,,,61,0
158685,note_on,,,,,0,0,1,,,,,0,,,55,0
158685,note_on,,,,,45,0,1,,,,,0,,,64,0
158685,note_on,,,,,45,0,2,,,,,0,,,45,0
158700,note_on,,,,,15,0,2,,,,,0,,,45,107
158700,note_on,,,,,15,0,1,,,,,0,,,61,127
158700,note_on,,,,,0,0,1,,,,,0,,,64,127
158700,note_on,,,,,0,0,1,,,,,0,,,67,127
158745,note_on,,,,,45,0,1,,,,,0,,,67,0
158745,note_on,,,,,0,0,1,,,,,0,,,61,0
158745,note_on,,,,,45,0,2,,,,,0,,,45,0
158745,note_on,,,,,0,0,1,,,,,0,,,64,0
158760,note_on,,,,,15,0,1,,,,,0,,,64,127
158760,note_on,,,,,0,0,1,,,,,0,,,67,127
158760,note_on,,,,,15,0,2,,,,,0,,,45,112
158760,set_tempo,,,,,415,1,0,,515021,,,,,,,
158760,note_on,,,,,0,0,1,,,,,0,,,73,127
158765,set_tempo,,,,,5,1,0,,517241,,,,,,,
158805,set_tempo,,,,,40,1,0,,526315,,,,,,,
158805,note_on,,,,,45,0,2,,,,,0,,,45,0
158805,note_on,,,,,0,0,1,,,,,0,,,64,0
158805,note_on,,,,,0,0,1,,,,,0,,,67,0
158805,note_on,,,,,45,0,1,,,,,0,,,73,0
158820,note_on,,,,,15,0,2,,,,,0,,,57,114
158820,note_on,,,,,0,0,1,,,,,0,,,76,127
158820,note_on,,,,,0,0,1,,,,,0,,,73,127
158820,note_on,,,,,15,0,1,,,,,0,,,67,127
158850,set_tempo,,,,,45,1,0,,542986,,,,,,,
158865,note_on,,,,,45,0,2,,,,,0,,,57,0
158865,note_on,,,,,0,0,1,,,,,0,,,67,0
158865,note_on,,,,,0,0,1,,,,,0,,,73,0
158865,note_on,,,,,45,0,1,,,,,0,,,76,0
158880,note_on,,,,,15,0,2,,,,,0,,,57,120
158880,note_on,,,,,15,0,1,,,,,0,,,73,127
158880,note_on,,,,,0,0,1,,,,,0,,,79,127
158880,note_on,,,,,0,0,1,,,,,0,,,76,127
158910,set_tempo,,,,,60,1,0,,558139,,,,,,,
158920,set_tempo,,,,,10,1,0,,560747,,,,,,,
158925,note_on,,,,,45,0,1,,,,,0,,,79,0
158925,note_on,,,,,45,0,2,,,,,0,,,57,0
158925,set_tempo,,,,,5,1,0,,585365,,,,,,,
158925,note_on,,,,,0,0,1,,,,,0,,,73,0
158925,note_on,,,,,0,0,1,,,,,0,,,76,0
158930,set_tempo,,,,,5,1,0,,588235,,,,,,,
158935,set_tempo,,,,,5,1,0,,606060,,,,,,,
158940,note_on,,,,,15,0,1,,,,,0,,,76,127
158940,note_on,,,,,0,0,1,,,,,0,,,79,127
158940,note_on,,,,,0,0,1,,,,,0,,,85,127
158940,note_on,,,,,15,0,2,,,,,0,,,57,124
158945,set_tempo,,,,,10,1,0,,615384,,,,,,,
158960,set_tempo,,,,,15,1,0,,655737,,,,,,,
158985,note_on,,,,,45,0,2,,,,,0,,,57,0
158985,note_on,,,,,0,0,1,,,,,0,,,79,0
158985,note_on,,,,,45,0,1,,,,,0,,,85,0
158985,note_on,,,,,0,0,1,,,,,0,,,76,0
158985,set_tempo,,,,,25,1,0,,693641,,,,,,,
159000,note_on,,,,,0,0,1,,,,,0,,,85,127
159000,note_on,,,,,0,0,1,,,,,0,,,88,127
159000,note_on,,,,,0,0,1,,,,,0,,,79,127
159000,note_on,,,,,15,0,1,,,,,0,,,69,127
159010,set_tempo,,,,,25,1,0,,740740,,,,,,,
159025,set_tempo,,,,,15,1,0,,810810,,,,,,,
159045,note_on,,,,,0,0,1,,,,,0,,,79,0
159045,note_on,,,,,0,0,1,,,,,0,,,69,0
159045,note_on,,,,,45,0,1,,,,,0,,,88,0
159045,note_on,,,,,0,0,1,,,,,0,,,85,0
159045,set_tempo,,,,,20,1,0,,851063,,,,,,,
159060,note_on,,,,,0,0,1,,,,,0,,,88,127
159060,note_on,,,,,0,0,1,,,,,0,,,91,127
159060,note_on,,,,,0,0,1,,,,,0,,,85,127
159060,set_tempo,,,,,15,1,0,,857142,,,,,,,
159060,note_on,,,,,15,0,1,,,,,0,,,69,127
159065,set_tempo,,,,,5,1,0,,930232,,,,,,,
159075,set_tempo,,,,,10,1,0,,3000000,,,,,,,
159105,note_on,,,,,45,0,1,,,,,0,,,91,0
159105,note_on,,,,,0,0,1,,,,,0,,,69,0
159105,note_on,,,,,0,0,1,,,,,0,,,85,0
159105,note_on,,,,,0,0,1,,,,,0,,,88,0
159105,set_tempo,,,,,30,1,0,,2926829,,,,,,,
159120,set_tempo,,,,,15,1,0,,655737,,,,,,,
159120,note_on,,,,,135,0,2,,,,,0,,,49,42
159120,note_on,,,,,0,0,1,,,,,0,,,81,54
159120,control_change,,,,,15,0,1,,,,,0,64,95,,
159125,set_tempo,,,,,5,1,0,,634920,,,,,,,
159180,note_on,,,,,60,0,1,,,,,0,,,69,48
159200,set_tempo,,,,,75,1,0,,625000,,,,,,,
159210,note_on,,,,,0,0,1,,,,,0,,,76,44
159210,note_on,,,,,30,0,1,,,,,0,,,69,0
159240,note_on,,,,,0,0,1,,,,,0,,,79,41
159240,note_on,,,,,30,0,1,,,,,0,,,76,0
159245,set_tempo,,,,,45,1,0,,612244,,,,,,,
159285,note_on,,,,,45,0,1,,,,,0,,,79,0
159295,control_change,,,,,10,0,1,,,,,0,64,0,,
159300,note_on,,,,,180,0,2,,,,,0,,,49,0
159300,control_change,,,,,0,0,1,,,,,0,64,95,,
159300,note_on,,,,,0,0,1,,,,,0,,,82,51
159300,note_on,,,,,0,0,2,,,,,0,,,45,45
159300,note_on,,,,,5,0,1,,,,,0,,,81,0
159350,set_tempo,,,,,105,1,0,,603015,,,,,,,
159360,note_on,,,,,60,0,1,,,,,0,,,73,42
159390,note_on,,,,,30,0,1,,,,,0,,,73,0
159390,note_on,,,,,0,0,1,,,,,0,,,76,40
159420,note_on,,,,,30,0,1,,,,,0,,,76,0
159420,note_on,,,,,0,0,1,,,,,0,,,79,40
159465,note_on,,,,,45,0,1,,,,,0,,,79,0
159475,control_change,,,,,10,0,1,,,,,0,64,0,,
159475,set_tempo,,,,,125,1,0,,594059,,,,,,,
159480,note_on,,,,,0,0,1,,,,,0,,,81,46
159480,note_on,,,,,180,0,2,,,,,0,,,45,0
159480,control_change,,,,,0,0,1,,,,,0,64,95,,
159480,note_on,,,,,5,0,1,,,,,0,,,82,0
159480,note_on,,,,,0,0,2,,,,,0,,,50,48
159540,note_on,,,,,60,0,1,,,,,0,,,72,42
159570,note_on,,,,,0,0,1,,,,,0,,,74,46
159570,note_on,,,,,30,0,1,,,,,0,,,72,0
159600,note_on,,,,,30,0,1,,,,,0,,,74,0
159600,note_on,,,,,0,0,1,,,,,0,,,79,51
159615,set_tempo,,,,,140,1,0,,585365,,,,,,,
159645,note_on,,,,,45,0,1,,,,,0,,,79,0
159655,control_change,,,,,10,0,1,,,,,0,64,0,,
159660,note_on,,,,,0,0,2,,,,,0,,,38,51
159660,note_on,,,,,5,0,1,,,,,0,,,81,0
159660,control_change,,,,,0,0,1,,,,,0,64,95,,
159660,note_on,,,,,180,0,2,,,,,0,,,50,0
159660,note_on,,,,,0,0,1,,,,,0,,,86,50
159700,set_tempo,,,,,85,1,0,,576923,,,,,,,
159720,note_on,,,,,60,0,1,,,,,0,,,72,53
159750,note_on,,,,,0,0,1,,,,,0,,,74,51
159750,note_on,,,,,30,0,1,,,,,0,,,72,0
159780,note_on,,,,,0,0,1,,,,,0,,,78,48
159780,note_on,,,,,30,0,1,,,,,0,,,74,0
159795,set_tempo,,,,,95,1,0,,571428,,,,,,,
159825,note_on,,,,,165,0,2,,,,,0,,,38,0
159825,note_on,,,,,0,0,1,,,,,0,,,86,0
159825,note_on,,,,,45,0,1,,,,,0,,,78,0
159835,control_change,,,,,10,0,1,,,,,0,64,0,,
159840,note_on,,,,,0,0,1,,,,,0,,,83,59
159840,control_change,,,,,5,0,1,,,,,0,64,95,,
159840,note_on,,,,,15,0,2,,,,,0,,,39,54
159845,set_tempo,,,,,50,1,0,,579710,,,,,,,
159895,set_tempo,,,,,50,1,0,,579710,,,,,,,
159900,note_on,,,,,60,0,1,,,,,0,,,81,53
159930,note_on,,,,,30,0,1,,,,,0,,,81,0
159930,note_on,,,,,0,0,1,,,,,0,,,78,50
159960,note_on,,,,,30,0,1,,,,,0,,,78,0
159960,note_on,,,,,0,0,1,,,,,0,,,71,45
160005,note_on,,,,,45,0,1,,,,,0,,,71,0
160015,control_change,,,,,10,0,1,,,,,0,64,0,,
160020,note_on,,,,,0,0,1,,,,,0,,,80,54
160020,note_on,,,,,0,0,2,,,,,0,,,40,47
160020,note_on,,,,,180,0,2,,,,,0,,,39,0
160020,note_on,,,,,5,0,1,,,,,0,,,83,0
160020,control_change,,,,,0,0,1,,,,,0,64,95,,
160080,note_on,,,,,60,0,1,,,,,0,,,77,50
160100,set_tempo,,,,,205,1,0,,594059,,,,,,,
160110,note_on,,,,,30,0,1,,,,,0,,,77,0
160110,note_on,,,,,0,0,1,,,,,0,,,74,47
160140,note_on,,,,,30,0,1,,,,,0,,,74,0
160140,note_on,,,,,0,0,1,,,,,0,,,71,44
160185,note_on,,,,,45,0,1,,,,,0,,,71,0
160195,control_change,,,,,10,0,1,,,,,0,64,0,,
160200,note_on,,,,,180,0,2,,,,,0,,,40,0
160200,note_on,,,,,0,0,2,,,,,0,,,37,42
160200,note_on,,,,,5,0,1,,,,,0,,,80,0
160200,control_change,,,,,0,0,1,,,,,0,64,96,,
160200,note_on,,,,,0,0,1,,,,,0,,,81,48
160260,note_on,,,,,60,0,1,,,,,0,,,79,43
160290,note_on,,,,,30,0,1,,,,,0,,,79,0
160290,note_on,,,,,0,0,1,,,,,0,,,76,40
160310,set_tempo,,,,,210,1,0,,603015,,,,,,,
160320,note_on,,,,,30,0,1,,,,,0,,,76,0
160320,note_on,,,,,0,0,1,,,,,0,,,69,38
160365,note_on,,,,,45,0,1,,,,,0,,,69,0
160375,control_change,,,,,10,0,1,,,,,0,64,0,,
160380,note_on,,,,,0,0,2,,,,,0,,,38,44
160380,note_on,,,,,5,0,1,,,,,0,,,81,0
160380,control_change,,,,,0,0,1,,,,,0,64,95,,
160380,note_on,,,,,0,0,1,,,,,0,,,78,41
160380,note_on,,,,,180,0,2,,,,,0,,,37,0
160440,note_on,,,,,60,0,1,,,,,0,,,75,44
160470,note_on,,,,,30,0,1,,,,,0,,,75,0
160470,note_on,,,,,0,0,1,,,,,0,,,72,39
160500,note_on,,,,,30,0,1,,,,,0,,,72,0
160500,note_on,,,,,0,0,1,,,,,0,,,69,37
160545,note_on,,,,,0,0,1,,,,,0,,,78,0
160545,note_on,,,,,45,0,1,,,,,0,,,69,0
160545,note_on,,,,,165,0,2,,,,,0,,,38,0
160555,control_change,,,,,10,0,1,,,,,0,64,0,,
160560,control_change,,,,,5,0,1,,,,,0,64,95,,
160560,note_on,,,,,0,0,1,,,,,0,,,79,40
160560,note_on,,,,,15,0,2,,,,,0,,,35,47
160600,set_tempo,,,,,290,1,0,,615384,,,,,,,
160620,note_on,,,,,60,0,1,,,,,0,,,77,41
160650,note_on,,,,,0,0,1,,,,,0,,,74,40
160650,note_on,,,,,30,0,1,,,,,0,,,77,0
160680,note_on,,,,,0,0,1,,,,,0,,,67,37
160680,note_on,,,,,30,0,1,,,,,0,,,74,0
160710,note_on,,,,,30,0,1,,,,,0,,,67,0
160725,note_on,,,,,15,0,1,,,,,0,,,79,0
160735,control_change,,,,,10,0,1,,,,,0,64,0,,
160740,note_on,,,,,0,0,2,,,,,0,,,36,42
160740,note_on,,,,,180,0,2,,,,,0,,,35,0
160740,control_change,,,,,5,0,1,,,,,0,64,95,,
160740,note_on,,,,,0,0,1,,,,,0,,,79,41
160800,note_on,,,,,60,0,1,,,,,0,,,76,39
160830,note_on,,,,,30,0,1,,,,,0,,,76,0
160830,note_on,,,,,0,0,1,,,,,0,,,72,35
160860,note_on,,,,,30,0,1,,,,,0,,,72,0
160860,set_tempo,,,,,260,1,0,,634920,,,,,,,
160860,note_on,,,,,0,0,1,,,,,0,,,67,35
160890,note_on,,,,,30,0,1,,,,,0,,,67,0
160905,note_on,,,,,15,0,1,,,,,0,,,79,0
160915,control_change,,,,,10,0,1,,,,,0,64,0,,
160920,note_on,,,,,180,0,2,,,,,0,,,36,0
160920,note_on,,,,,0,0,2,,,,,0,,,38,38
160920,note_on,,,,,0,0,1,,,,,0,,,79,43
160920,control_change,,,,,5,0,1,,,,,0,64,96,,
160980,note_on,,,,,60,0,1,,,,,0,,,71,33
161010,note_on,,,,,30,0,1,,,,,0,,,71,0
161010,note_on,,,,,0,0,1,,,,,0,,,74,37
161040,note_on,,,,,30,0,1,,,,,0,,,74,0
161040,note_on,,,,,0,0,1,,,,,0,,,76,41
161070,note_on,,,,,0,0,1,,,,,0,,,74,43
161070,note_on,,,,,30,0,1,,,,,0,,,76,0
161085,note_on,,,,,165,0,2,,,,,0,,,38,0
161095,control_change,,,,,0,0,1,,,,,0,64,0,,
161095,note_on,,,,,25,0,1,,,,,0,,,74,0
161100,note_on,,,,,15,0,2,,,,,0,,,38,35
161100,note_on,,,,,5,0,1,,,,,0,,,79,0
161100,control_change,,,,,0,0,1,,,,,0,64,96,,
161100,note_on,,,,,0,0,1,,,,,0,,,78,41
161105,set_tempo,,,,,245,1,0,,648648,,,,,,,
161160,note_on,,,,,60,0,1,,,,,0,,,76,42
161190,note_on,,,,,30,0,1,,,,,0,,,76,0
161190,note_on,,,,,0,0,1,,,,,0,,,72,40
161220,set_tempo,,,,,115,1,0,,666666,,,,,,,
161220,note_on,,,,,0,0,1,,,,,0,,,71,37
161220,note_on,,,,,30,0,1,,,,,0,,,72,0
161250,note_on,,,,,0,0,1,,,,,0,,,72,34
161250,note_on,,,,,30,0,1,,,,,0,,,71,0
161265,note_on,,,,,165,0,2,,,,,0,,,38,0
161265,note_on,,,,,15,0,1,,,,,0,,,78,0
161275,control_change,,,,,0,0,1,,,,,0,64,1,,
161275,note_on,,,,,10,0,1,,,,,0,,,72,0
161280,note_on,,,,,15,0,2,,,,,0,,,38,33
161280,note_on,,,,,0,0,1,,,,,0,,,79,38
161280,control_change,,,,,5,0,1,,,,,0,64,95,,
161290,set_tempo,,,,,70,1,0,,677966,,,,,,,
161325,set_tempo,,,,,35,1,0,,689655,,,,,,,
161340,note_on,,,,,60,0,1,,,,,0,,,71,32
161350,set_tempo,,,,,25,1,0,,714285,,,,,,,
161370,note_on,,,,,30,0,1,,,,,0,,,71,0
161370,note_on,,,,,0,0,1,,,,,0,,,74,32
161400,note_on,,,,,30,0,1,,,,,0,,,74,0
161400,note_on,,,,,0,0,1,,,,,0,,,76,37
161430,note_on,,,,,30,0,1,,,,,0,,,76,0
161430,note_on,,,,,0,0,1,,,,,0,,,74,39
161445,note_on,,,,,165,0,2,,,,,0,,,38,0
161455,note_on,,,,,25,0,1,,,,,0,,,74,0
161460,note_on,,,,,5,0,1,,,,,0,,,79,0
161460,control_change,,,,,0,0,1,,,,,0,64,95,,
161460,note_on,,,,,0,0,1,,,,,0,,,78,35
161460,note_on,,,,,15,0,2,,,,,0,,,38,41
161520,note_on,,,,,60,0,1,,,,,0,,,76,41
161525,set_tempo,,,,,175,1,0,,745341,,,,,,,
161530,set_tempo,,,,,5,1,0,,750000,,,,,,,
161550,note_on,,,,,0,0,1,,,,,0,,,72,39
161550,set_tempo,,,,,20,1,0,,774193,,,,,,,
161550,note_on,,,,,30,0,1,,,,,0,,,76,0
161555,set_tempo,,,,,5,1,0,,779220,,,,,,,
161580,note_on,,,,,30,0,1,,,,,0,,,72,0
161580,note_on,,,,,0,0,1,,,,,0,,,71,36
161605,set_tempo,,,,,50,1,0,,816326,,,,,,,
161610,note_on,,,,,0,0,1,,,,,0,,,72,34
161610,note_on,,,,,30,0,1,,,,,0,,,71,0
161635,set_tempo,,,,,30,1,0,,863309,,,,,,,
161640,note_on,,,,,0,0,1,,,,,0,,,79,33
161640,control_change,,,,,0,0,1,,,,,0,64,95,,
161640,note_on,,,,,0,0,2,,,,,0,,,43,36
161640,note_on,,,,,0,0,1,,,,,0,,,71,33
161640,note_on,,,,,0,0,1,,,,,0,,,78,0
161640,note_on,,,,,30,0,1,,,,,0,,,72,0
161640,note_on,,,,,180,0,2,,,,,0,,,38,0
161692,note_on,,,,,52,0,1,,,,,0,,,79,0
161692,note_on,,,,,0,0,1,,,,,0,,,71,0
161692,note_on,,,,,52,0,2,,,,,0,,,43,0
161700,control_change,,,,,0,0,1,,,,,0,64,0,,
161700,note_on,,,,,8,0,1,,,,,0,,,62,40
161700,set_tempo,,,,,65,1,0,,882352,,,,,,,
161705,set_tempo,,,,,5,1,0,,697674,,,,,,,
161760,note_on,,,,,0,0,1,,,,,0,,,67,48
161760,note_on,,,,,60,0,1,,,,,0,,,62,0
161760,set_tempo,,,,,55,1,0,,685714,,,,,,,
161770,set_tempo,,,,,10,1,0,,689655,,,,,,,
161810,set_tempo,,,,,40,1,0,,674157,,,,,,,
161820,note_on,,,,,0,0,1,,,,,0,,,71,55
161820,note_on,,,,,60,0,1,,,,,0,,,67,0
161835,set_tempo,,,,,25,1,0,,666666,,,,,,,
161865,set_tempo,,,,,30,1,0,,677966,,,,,,,
161880,note_on,,,,,60,0,1,,,,,0,,,71,0
161880,note_on,,,,,0,0,1,,,,,0,,,72,65
161905,set_tempo,,,,,40,1,0,,701754,,,,,,,
161910,set_tempo,,,,,5,1,0,,705882,,,,,,,
161940,note_on,,,,,0,0,1,,,,,0,,,74,72
161940,note_on,,,,,60,0,1,,,,,0,,,72,0
161950,set_tempo,,,,,40,1,0,,731707,,,,,,,
161995,set_tempo,,,,,45,1,0,,697674,,,,,,,
162000,note_on,,,,,60,0,1,,,,,0,,,74,0
162000,note_on,,,,,0,0,1,,,,,0,,,62,72
162000,note_on,,,,,0,0,1,,,,,0,,,74,72
162000,note_on,,,,,0,0,1,,,,,0,,,71,72
162000,note_on,,,,,0,0,2,,,,,0,,,55,73
162000,note_on,,,,,308,0,2,,,,,0,,,43,73
162000,control_change,,,,,0,0,1,,,,,0,64,96,,
162010,set_tempo,,,,,15,1,0,,689655,,,,,,,
162045,set_tempo,,,,,35,1,0,,677966,,,,,,,
162110,set_tempo,,,,,65,1,0,,666666,,,,,,,
162155,set_tempo,,,,,45,1,0,,659340,,,,,,,
162225,set_tempo,,,,,70,1,0,,641711,,,,,,,
162285,set_tempo,,,,,60,1,0,,634920,,,,,,,
162315,note_on,,,,,0,0,2,,,,,0,,,43,0
162315,note_on,,,,,0,0,1,,,,,0,,,62,0
162315,note_on,,,,,315,0,2,,,,,0,,,55,0
162315,note_on,,,,,0,0,1,,,,,0,,,71,0
162315,note_on,,,,,315,0,1,,,,,0,,,74,0
162330,note_on,,,,,0,0,1,,,,,0,,,71,80
162330,note_on,,,,,15,0,1,,,,,0,,,62,80
162330,note_on,,,,,15,0,2,,,,,0,,,43,79
162330,note_on,,,,,0,0,2,,,,,0,,,55,79
162330,note_on,,,,,0,0,1,,,,,0,,,74,80
162335,set_tempo,,,,,50,1,0,,641711,,,,,,,
162355,control_change,,,,,25,0,1,,,,,0,64,0,,
162360,note_on,,,,,0,0,2,,,,,0,,,48,80
162360,note_on,,,,,0,0,2,,,,,0,,,43,0
162360,note_on,,,,,30,0,2,,,,,0,,,55,0
162360,note_on,,,,,0,0,2,,,,,0,,,55,80
162360,control_change,,,,,0,0,1,,,,,0,64,96,,
162360,note_on,,,,,0,0,1,,,,,0,,,71,0
162360,note_on,,,,,0,0,1,,,,,0,,,62,0
162360,note_on,,,,,0,0,1,,,,,0,,,64,84
162360,note_on,,,,,0,0,1,,,,,0,,,72,84
162360,note_on,,,,,0,0,1,,,,,0,,,76,84
162360,note_on,,,,,5,0,1,,,,,0,,,74,0
162365,set_tempo,,,,,30,1,0,,662983,,,,,,,
162415,set_tempo,,,,,50,1,0,,685714,,,,,,,
162480,note_on,,,,,0,0,2,,,,,0,,,60,96
162480,note_on,,,,,120,0,2,,,,,0,,,55,0
162480,set_tempo,,,,,65,1,0,,705882,,,,,,,
162485,set_tempo,,,,,5,1,0,,701754,,,,,,,
162490,set_tempo,,,,,5,1,0,,705882,,,,,,,
162550,set_tempo,,,,,60,1,0,,718562,,,,,,,
162590,set_tempo,,,,,40,1,0,,745341,,,,,,,
162640,set_tempo,,,,,50,1,0,,764331,,,,,,,
162645,note_on,,,,,0,0,1,,,,,0,,,64,0
162645,note_on,,,,,0,0,2,,,,,0,,,48,0
162645,note_on,,,,,165,0,2,,,,,0,,,60,0
162645,note_on,,,,,285,0,1,,,,,0,,,76,0
162645,note_on,,,,,0,0,1,,,,,0,,,72,0
162655,set_tempo,,,,,15,1,0,,764331,,,,,,,
162660,note_on,,,,,0,0,2,,,,,0,,,59,86
162660,control_change,,,,,0,0,1,,,,,0,64,0,,
162660,note_on,,,,,0,0,1,,,,,0,,,76,90
162660,note_on,,,,,0,0,1,,,,,0,,,72,90
162660,note_on,,,,,15,0,1,,,,,0,,,64,90
162660,note_on,,,,,15,0,2,,,,,0,,,48,86
162695,set_tempo,,,,,40,1,0,,750000,,,,,,,
162720,note_on,,,,,0,0,2,,,,,0,,,57,84
162720,note_on,,,,,0,0,2,,,,,0,,,50,84
162720,note_on,,,,,0,0,2,,,,,0,,,48,0
162720,note_on,,,,,0,0,1,,,,,0,,,66,92
162720,note_on,,,,,0,0,1,,,,,0,,,78,92
162720,note_on,,,,,0,0,1,,,,,0,,,72,92
162720,note_on,,,,,0,0,1,,,,,0,,,64,0
162720,note_on,,,,,0,0,1,,,,,0,,,72,0
162720,note_on,,,,,60,0,1,,,,,0,,,76,0
162720,note_on,,,,,60,0,2,,,,,0,,,59,0
162725,set_tempo,,,,,30,1,0,,731707,,,,,,,
162750,set_tempo,,,,,25,1,0,,710059,,,,,,,
162775,set_tempo,,,,,25,1,0,,697674,,,,,,,
162776,note_on,,,,,56,0,1,,,,,0,,,78,0
162776,note_on,,,,,0,0,1,,,,,0,,,72,0
162776,note_on,,,,,0,0,1,,,,,0,,,66,0
162776,note_on,,,,,0,0,2,,,,,0,,,50,0
162776,note_on,,,,,56,0,2,,,,,0,,,57,0
162780,note_on,,,,,4,0,1,,,,,0,,,66,84
162780,note_on,,,,,0,0,1,,,,,0,,,72,84
162780,note_on,,,,,0,0,1,,,,,0,,,78,84
162780,note_on,,,,,0,0,2,,,,,0,,,57,79
162780,note_on,,,,,4,0,2,,,,,0,,,50,79
162820,set_tempo,,,,,45,1,0,,677966,,,,,,,
162825,set_tempo,,,,,5,1,0,,674157,,,,,,,
162832,note_on,,,,,52,0,1,,,,,0,,,78,0
162832,note_on,,,,,0,0,1,,,,,0,,,72,0
162832,note_on,,,,,0,0,1,,,,,0,,,66,0
162832,note_on,,,,,52,0,2,,,,,0,,,57,0
162832,note_on,,,,,0,0,2,,,,,0,,,50,0
162840,note_on,,,,,0,0,1,,,,,0,,,78,75
162840,note_on,,,,,8,0,2,,,,,0,,,50,75
162840,note_on,,,,,0,0,2,,,,,0,,,57,75
162840,note_on,,,,,0,0,1,,,,,0,,,72,75
162840,note_on,,,,,8,0,1,,,,,0,,,66,75
162880,set_tempo,,,,,55,1,0,,677966,,,,,,,
162892,note_on,,,,,52,0,1,,,,,0,,,78,0
162892,note_on,,,,,52,0,2,,,,,0,,,57,0
162892,note_on,,,,,0,0,2,,,,,0,,,50,0
162892,note_on,,,,,0,0,1,,,,,0,,,66,0
162892,note_on,,,,,0,0,1,,,,,0,,,72,0
162900,note_on,,,,,0,0,1,,,,,0,,,78,69
162900,note_on,,,,,8,0,2,,,,,0,,,50,73
162900,note_on,,,,,8,0,1,,,,,0,,,66,69
162900,note_on,,,,,0,0,2,,,,,0,,,57,73
162900,note_on,,,,,0,0,1,,,,,0,,,72,69
162905,set_tempo,,,,,25,1,0,,689655,,,,,,,
162955,set_tempo,,,,,50,1,0,,705882,,,,,,,
162956,note_on,,,,,0,0,1,,,,,0,,,66,0
162956,note_on,,,,,0,0,2,,,,,0,,,50,0
162956,note_on,,,,,56,0,2,,,,,0,,,57,0
162956,note_on,,,,,56,0,1,,,,,0,,,78,0
162956,note_on,,,,,0,0,1,,,,,0,,,72,0
162960,note_on,,,,,4,0,1,,,,,0,,,67,72
162960,note_on,,,,,0,0,1,,,,,0,,,71,72
162960,note_on,,,,,0,0,1,,,,,0,,,79,72
162960,note_on,,,,,0,0,2,,,,,0,,,59,70
162960,note_on,,,,,4,0,2,,,,,0,,,50,70
163010,set_tempo,,,,,55,1,0,,731707,,,,,,,
163012,note_on,,,,,0,0,2,,,,,0,,,50,0
163012,note_on,,,,,52,0,1,,,,,0,,,79,0
163012,note_on,,,,,0,0,1,,,,,0,,,71,0
163012,note_on,,,,,52,0,2,,,,,0,,,59,0
163012,note_on,,,,,0,0,1,,,,,0,,,67,0
163020,note_on,,,,,0,0,1,,,,,0,,,81,66
163020,note_on,,,,,0,0,1,,,,,0,,,78,66
163020,note_on,,,,,0,0,2,,,,,0,,,60,64
163020,note_on,,,,,0,0,2,,,,,0,,,62,64
163020,note_on,,,,,8,0,2,,,,,0,,,50,64
163020,note_on,,,,,8,0,1,,,,,0,,,69,66
163055,set_tempo,,,,,45,1,0,,759493,,,,,,,
163072,note_on,,,,,0,0,1,,,,,0,,,69,0
163072,note_on,,,,,0,0,1,,,,,0,,,78,0
163072,note_on,,,,,52,0,1,,,,,0,,,81,0
163072,note_on,,,,,52,0,2,,,,,0,,,60,0
163072,note_on,,,,,0,0,2,,,,,0,,,62,0
163072,note_on,,,,,0,0,2,,,,,0,,,50,0
163080,note_on,,,,,0,0,2,,,,,0,,,50,67
163080,control_change,,,,,0,0,1,,,,,0,64,96,,
163080,note_on,,,,,0,0,1,,,,,0,,,81,68
163080,note_on,,,,,0,0,1,,,,,0,,,78,68
163080,note_on,,,,,8,0,1,,,,,0,,,69,68
163080,note_on,,,,,0,0,2,,,,,0,,,60,67
163080,note_on,,,,,8,0,2,,,,,0,,,62,67
163150,set_tempo,,,,,95,1,0,,779220,,,,,,,
163260,note_on,,,,,0,0,1,,,,,0,,,67,39
163260,note_on,,,,,0,0,2,,,,,0,,,50,0
163260,note_on,,,,,0,0,2,,,,,0,,,55,41
163260,note_on,,,,,0,0,2,,,,,0,,,59,41
163260,note_on,,,,,180,0,1,,,,,0,,,81,0
163260,note_on,,,,,0,0,1,,,,,0,,,78,0
163260,note_on,,,,,0,0,1,,,,,0,,,69,0
163260,note_on,,,,,180,0,2,,,,,0,,,60,0
163260,note_on,,,,,0,0,1,,,,,0,,,79,39
163320,note_on,,,,,60,0,1,,,,,0,,,79,0
163320,note_on,,,,,0,0,1,,,,,0,,,67,0
163320,note_on,,,,,0,0,2,,,,,0,,,62,0
163320,note_on,,,,,0,0,2,,,,,0,,,55,0
163320,note_on,,,,,60,0,2,,,,,0,,,59,0
163345,set_tempo,,,,,195,1,0,,784313,,,,,,,
163385,control_change,,,,,65,0,1,,,,,0,64,0,,
163415,set_tempo,,,,,70,1,0,,764331,,,,,,,
163440,note_on,,,,,0,0,2,,,,,0,,,55,32
163440,note_on,,,,,55,0,1,,,,,0,,,65,34
163440,note_on,,,,,0,0,1,,,,,0,,,71,34
163440,note_on,,,,,0,0,1,,,,,0,,,74,34
163440,control_change,,,,,0,0,1,,,,,0,64,96,,
163440,note_on,,,,,120,0,2,,,,,0,,,43,32
163440,set_tempo,,,,,25,1,0,,666666,,,,,,,
163445,set_tempo,,,,,5,1,0,,662983,,,,,,,
163450,set_tempo,,,,,5,1,0,,659340,,,,,,,
163490,set_tempo,,,,,40,1,0,,666666,,,,,,,
163540,set_tempo,,,,,50,1,0,,681818,,,,,,,
163585,set_tempo,,,,,45,1,0,,689655,,,,,,,
163610,set_tempo,,,,,25,1,0,,705882,,,,,,,
163705,set_tempo,,,,,95,1,0,,718562,,,,,,,
163735,set_tempo,,,,,30,1,0,,736196,,,,,,,
163755,note_on,,,,,0,0,1,,,,,0,,,65,0
163755,note_on,,,,,0,0,1,,,,,0,,,71,0
163755,note_on,,,,,315,0,1,,,,,0,,,74,0
163755,note_on,,,,,315,0,2,,,,,0,,,55,0
163755,note_on,,,,,0,0,2,,,,,0,,,43,0
163770,note_on,,,,,15,0,2,,,,,0,,,43,36
163770,note_on,,,,,0,0,2,,,,,0,,,55,36
163770,note_on,,,,,15,0,1,,,,,0,,,65,45
163770,note_on,,,,,0,0,1,,,,,0,,,71,45
163770,note_on,,,,,0,0,1,,,,,0,,,74,45
163770,set_tempo,,,,,35,1,0,,851063,,,,,,,
163795,control_change,,,,,0,0,1,,,,,0,64,0,,
163795,note_on,,,,,25,0,1,,,,,0,,,74,0
163795,note_on,,,,,0,0,1,,,,,0,,,65,0
163795,note_on,,,,,0,0,2,,,,,0,,,43,0
163795,note_on,,,,,25,0,2,,,,,0,,,55,0
163795,note_on,,,,,0,0,1,,,,,0,,,71,0
163795,set_tempo,,,,,25,1,0,,851063,,,,,,,
163800,note_on,,,,,0,0,1,,,,,0,,,72,45
163800,note_on,,,,,0,0,1,,,,,0,,,76,45
163800,control_change,,,,,0,0,1,,,,,0,64,96,,
163800,note_on,,,,,5,0,1,,,,,0,,,64,45
163800,note_on,,,,,0,0,2,,,,,0,,,55,37
163800,note_on,,,,,5,0,2,,,,,0,,,48,37
163800,set_tempo,,,,,5,1,0,,666666,,,,,,,
163805,set_tempo,,,,,5,1,0,,674157,,,,,,,
163850,set_tempo,,,,,45,1,0,,693641,,,,,,,
163870,set_tempo,,,,,20,1,0,,705882,,,,,,,
163890,set_tempo,,,,,20,1,0,,718562,,,,,,,
163920,note_on,,,,,0,0,2,,,,,0,,,60,42
163920,note_on,,,,,120,0,2,,,,,0,,,55,0
163970,set_tempo,,,,,80,1,0,,731707,,,,,,,
163980,set_tempo,,,,,10,1,0,,736196,,,,,,,
164010,set_tempo,,,,,30,1,0,,745341,,,,,,,
164065,set_tempo,,,,,55,1,0,,764331,,,,,,,
164085,note_on,,,,,285,0,1,,,,,0,,,76,0
164085,note_on,,,,,0,0,1,,,,,0,,,72,0
164085,note_on,,,,,0,0,1,,,,,0,,,64,0
164085,note_on,,,,,0,0,2,,,,,0,,,48,0
164085,note_on,,,,,165,0,2,,,,,0,,,60,0
164100,note_on,,,,,15,0,2,,,,,0,,,49,42
164100,control_change,,,,,0,0,1,,,,,0,64,0,,
164100,note_on,,,,,0,0,2,,,,,0,,,57,42
164100,note_on,,,,,0,0,1,,,,,0,,,67,46
164100,note_on,,,,,15,0,1,,,,,0,,,64,46
164100,note_on,,,,,0,0,1,,,,,0,,,69,46
164110,set_tempo,,,,,45,1,0,,779220,,,,,,,
164115,set_tempo,,,,,5,1,0,,784313,,,,,,,
164130,set_tempo,,,,,15,1,0,,1081081,,,,,,,
164155,note_on,,,,,55,0,1,,,,,0,,,69,0
164155,note_on,,,,,0,0,1,,,,,0,,,67,0
164155,note_on,,,,,0,0,1,,,,,0,,,64,0
164155,note_on,,,,,55,0,2,,,,,0,,,57,0
164155,note_on,,,,,0,0,2,,,,,0,,,49,0
164160,note_on,,,,,0,0,1,,,,,0,,,66,41
164160,note_on,,,,,0,0,2,,,,,0,,,57,39
164160,note_on,,,,,5,0,2,,,,,0,,,50,39
164160,note_on,,,,,5,0,1,,,,,0,,,69,41
164185,set_tempo,,,,,55,1,0,,805369,,,,,,,
164190,set_tempo,,,,,5,1,0,,810810,,,,,,,
164215,set_tempo,,,,,25,1,0,,789473,,,,,,,
164216,note_on,,,,,56,0,1,,,,,0,,,66,0
164216,note_on,,,,,0,0,2,,,,,0,,,50,0
164216,note_on,,,,,56,0,2,,,,,0,,,57,0
164216,note_on,,,,,0,0,1,,,,,0,,,69,0
164220,note_on,,,,,4,0,2,,,,,0,,,59,37
164220,note_on,,,,,0,0,2,,,,,0,,,50,37
164220,note_on,,,,,0,0,1,,,,,0,,,66,35
164220,note_on,,,,,4,0,1,,,,,0,,,69,35
164250,set_tempo,,,,,35,1,0,,774193,,,,,,,
164272,note_on,,,,,52,0,1,,,,,0,,,66,0
164272,note_on,,,,,0,0,1,,,,,0,,,69,0
164272,note_on,,,,,52,0,2,,,,,0,,,50,0
164272,note_on,,,,,0,0,2,,,,,0,,,59,0
164280,note_on,,,,,8,0,2,,,,,0,,,60,32
164280,note_on,,,,,8,0,1,,,,,0,,,69,31
164280,note_on,,,,,0,0,2,,,,,0,,,50,32
164280,note_on,,,,,0,0,1,,,,,0,,,66,31
164285,set_tempo,,,,,35,1,0,,750000,,,,,,,
164332,note_on,,,,,52,0,2,,,,,0,,,50,0
164332,note_on,,,,,0,0,1,,,,,0,,,69,0
164332,note_on,,,,,52,0,1,,,,,0,,,66,0
164332,note_on,,,,,0,0,2,,,,,0,,,60,0
164340,note_on,,,,,0,0,1,,,,,0,,,66,28
164340,note_on,,,,,8,0,1,,,,,0,,,69,28
164340,note_on,,,,,8,0,2,,,,,0,,,60,31
164340,note_on,,,,,0,0,2,,,,,0,,,50,31
164365,set_tempo,,,,,80,1,0,,789473,,,,,,,
164385,set_tempo,,,,,20,1,0,,794701,,,,,,,
164396,note_on,,,,,56,0,1,,,,,0,,,66,0
164396,note_on,,,,,56,0,2,,,,,0,,,50,0
164396,note_on,,,,,0,0,2,,,,,0,,,60,0
164396,note_on,,,,,0,0,1,,,,,0,,,69,0
164400,note_on,,,,,0,0,1,,,,,0,,,72,30
164400,note_on,,,,,4,0,2,,,,,0,,,64,33
164400,note_on,,,,,4,0,1,,,,,0,,,66,30
164400,note_on,,,,,0,0,2,,,,,0,,,50,33
164410,set_tempo,,,,,25,1,0,,827586,,,,,,,
164415,set_tempo,,,,,5,1,0,,833333,,,,,,,
164450,set_tempo,,,,,35,1,0,,882352,,,,,,,
164452,note_on,,,,,0,0,2,,,,,0,,,64,0
164452,note_on,,,,,0,0,1,,,,,0,,,66,0
164452,note_on,,,,,52,0,1,,,,,0,,,72,0
164452,note_on,,,,,52,0,2,,,,,0,,,50,0
164460,note_on,,,,,0,0,1,,,,,0,,,66,33
164460,note_on,,,,,8,0,1,,,,,0,,,71,33
164460,note_on,,,,,8,0,2,,,,,0,,,50,36
164460,note_on,,,,,0,0,2,,,,,0,,,62,36
164500,set_tempo,,,,,50,1,0,,916030,,,,,,,
164510,set_tempo,,,,,10,1,0,,923076,,,,,,,
164512,note_on,,,,,0,0,2,,,,,0,,,50,0
164512,note_on,,,,,52,0,2,,,,,0,,,62,0
164512,note_on,,,,,0,0,1,,,,,0,,,71,0
164512,note_on,,,,,52,0,1,,,,,0,,,66,0
164520,note_on,,,,,0,0,1,,,,,0,,,69,39
164520,control_change,,,,,0,0,1,,,,,0,64,96,,
164520,note_on,,,,,8,0,2,,,,,0,,,50,40
164520,note_on,,,,,0,0,2,,,,,0,,,60,40
164520,note_on,,,,,8,0,1,,,,,0,,,66,39
164585,set_tempo,,,,,75,1,0,,967741,,,,,,,
164700,set_tempo,,,,,115,1,0,,1200000,,,,,,,
164700,note_on,,,,,180,0,1,,,,,0,,,69,0
164700,note_on,,,,,0,0,1,,,,,0,,,66,0
164700,note_on,,,,,0,0,1,,,,,0,,,67,26
164700,control_change,,,,,0,0,1,,,,,0,64,0,,
164700,note_on,,,,,180,0,2,,,,,0,,,60,0
164700,note_on,,,,,0,0,2,,,,,0,,,59,26
164700,note_on,,,,,0,0,2,,,,,0,,,55,26
164700,note_on,,,,,0,0,2,,,,,0,,,50,0
164760,note_on,,,,,0,0,2,,,,,0,,,55,0
164760,note_on,,,,,60,0,1,,,,,0,,,67,0
164760,note_on,,,,,60,0,2,,,,,0,,,59,0
164820,control_change,,,,,60,0,1,,,,,0,64,95,,
164850,note_on,,,,,90,0,2,,,,,0,,,31,50
164875,set_tempo,,,,,175,1,0,,750000,,,,,,,
164880,set_tempo,,,,,5,1,0,,750000,,,,,,,
164880,marker,,,,,0,1,0,,,,,,,,,
164880,note_on,,,,,30,0,2,,,,,0,,,31,0
164880,note_on,,,,,0,0,2,,,,,0,,,43,44
164880,note_on,,,,,0,0,2,,,,,0,,,50,44
164880,control_change,,,,,60,0,1,,,,,0,91,96,,
164881,note_on,,,,,1,0,1,,,,,0,,,71,45
164881,note_on,,,,,0,0,1,,,,,0,,,67,45
164881,note_on,,,,,0,0,1,,,,,0,,,59,45
164890,set_tempo,,,,,10,1,0,,754716,,,,,,,
165195,note_on,,,,,0,0,2,,,,,0,,,43,0
165195,note_on,,,,,315,0,2,,,,,0,,,50,0
165196,note_on,,,,,0,0,1,,,,,0,,,71,0
165196,note_on,,,,,0,0,1,,,,,0,,,67,0
165196,note_on,,,,,315,0,1,,,,,0,,,59,0
165210,note_on,,,,,0,0,1,,,,,0,,,69,45
165210,note_on,,,,,0,0,2,,,,,0,,,50,48
165210,note_on,,,,,0,0,1,,,,,0,,,66,45
165210,note_on,,,,,14,0,1,,,,,0,,,60,45
165210,control_change,,,,,0,0,1,,,,,0,64,0,,
165210,note_on,,,,,15,0,2,,,,,0,,,43,48
165235,note_on,,,,,0,0,1,,,,,0,,,66,0
165235,note_on,,,,,0,0,1,,,,,0,,,60,0
165235,note_on,,,,,25,0,1,,,,,0,,,69,0
165235,note_on,,,,,0,0,2,,,,,0,,,43,0
165235,note_on,,,,,25,0,2,,,,,0,,,50,0
165240,set_tempo,,,,,350,1,0,,750000,,,,,,,
165240,note_on,,,,,5,0,2,,,,,0,,,43,49
165240,note_on,,,,,0,0,2,,,,,0,,,50,49
165240,control_change,,,,,5,0,1,,,,,0,91,96,,
165240,control_change,,,,,0,0,1,,,,,0,64,96,,
165241,note_on,,,,,1,0,1,,,,,0,,,71,45
165241,note_on,,,,,0,0,1,,,,,0,,,67,45
165241,note_on,,,,,0,0,1,,,,,0,,,59,45
165250,set_tempo,,,,,10,1,0,,754716,,,,,,,
165555,note_on,,,,,315,0,2,,,,,0,,,50,0
165555,note_on,,,,,0,0,2,,,,,0,,,43,0
165556,note_on,,,,,315,0,1,,,,,0,,,59,0
165556,note_on,,,,,0,0,1,,,,,0,,,67,0
165556,note_on,,,,,0,0,1,,,,,0,,,71,0
165570,note_on,,,,,0,0,1,,,,,0,,,69,50
165570,note_on,,,,,0,0,1,,,,,0,,,66,50
165570,control_change,,,,,0,0,1,,,,,0,64,0,,
165570,note_on,,,,,0,0,2,,,,,0,,,50,50
165570,note_on,,,,,15,0,2,,,,,0,,,43,50
165570,note_on,,,,,14,0,1,,,,,0,,,60,50
165595,note_on,,,,,25,0,1,,,,,0,,,69,0
165595,note_on,,,,,0,0,1,,,,,0,,,66,0
165595,note_on,,,,,25,0,2,,,,,0,,,50,0
165595,note_on,,,,,0,0,2,,,,,0,,,43,0
165595,note_on,,,,,0,0,1,,,,,0,,,60,0
165600,control_change,,,,,0,0,1,,,,,0,64,96,,
165600,control_change,,,,,5,0,1,,,,,0,91,96,,
165600,note_on,,,,,5,0,2,,,,,0,,,43,48
165600,note_on,,,,,0,0,2,,,,,0,,,50,48
165600,set_tempo,,,,,350,1,0,,750000,,,,,,,
165601,note_on,,,,,1,0,1,,,,,0,,,71,50
165601,note_on,,,,,0,0,1,,,,,0,,,67,50
165601,note_on,,,,,0,0,1,,,,,0,,,59,50
165610,set_tempo,,,,,10,1,0,,754716,,,,,,,
165915,note_on,,,,,315,0,2,,,,,0,,,50,0
165915,note_on,,,,,0,0,2,,,,,0,,,43,0
165916,note_on,,,,,315,0,1,,,,,0,,,59,0
165916,note_on,,,,,0,0,1,,,,,0,,,71,0
165916,note_on,,,,,0,0,1,,,,,0,,,67,0
165930,note_on,,,,,14,0,1,,,,,0,,,69,44
165930,note_on,,,,,0,0,1,,,,,0,,,60,44
165930,note_on,,,,,0,0,1,,,,,0,,,66,44
165930,control_change,,,,,0,0,1,,,,,0,64,0,,
165930,note_on,,,,,15,0,2,,,,,0,,,43,46
165930,note_on,,,,,0,0,2,,,,,0,,,50,46
165955,note_on,,,,,0,0,2,,,,,0,,,43,0
165955,note_on,,,,,25,0,2,,,,,0,,,50,0
165955,note_on,,,,,0,0,1,,,,,0,,,69,0
165955,note_on,,,,,0,0,1,,,,,0,,,60,0
165955,note_on,,,,,25,0,1,,,,,0,,,66,0
165960,note_on,,,,,0,0,1,,,,,0,,,71,44
165960,control_change,,,,,0,0,1,,,,,0,64,94,,
165960,note_on,,,,,0,0,2,,,,,0,,,50,48
165960,note_on,,,,,5,0,2,,,,,0,,,43,48
165960,note_on,,,,,5,0,1,,,,,0,,,59,44
165960,note_on,,,,,0,0,1,,,,,0,,,67,44
165965,set_tempo,,,,,355,1,0,,779220,,,,,,,
166020,note_on,,,,,0,0,1,,,,,0,,,59,0
166020,note_on,,,,,0,0,1,,,,,0,,,67,0
166020,note_on,,,,,60,0,2,,,,,0,,,50,0
166020,note_on,,,,,0,0,2,,,,,0,,,43,0
166020,note_on,,,,,0,0,2,,,,,0,,,38,54
166020,note_on,,,,,60,0,1,,,,,0,,,71,0
166035,set_tempo,,,,,70,1,0,,805369,,,,,,,
166065,note_on,,,,,45,0,2,,,,,0,,,38,0
166075,control_change,,,,,55,0,1,,,,,0,64,0,,
166080,note_on,,,,,15,0,2,,,,,0,,,36,56
166105,set_tempo,,,,,70,1,0,,827586,,,,,,,
166125,note_on,,,,,45,0,2,,,,,0,,,36,0
166140,note_on,,,,,15,0,2,,,,,0,,,35,61
166170,set_tempo,,,,,65,1,0,,851063,,,,,,,
166185,note_on,,,,,45,0,2,,,,,0,,,35,0
166200,note_on,,,,,15,0,2,,,,,0,,,33,64
166230,set_tempo,,,,,60,1,0,,888888,,,,,,,
166245,note_on,,,,,45,0,2,,,,,0,,,33,0
166260,note_on,,,,,15,0,2,,,,,0,,,31,65
166280,set_tempo,,,,,50,1,0,,930232,,,,,,,
166305,note_on,,,,,45,0,2,,,,,0,,,31,0
166320,note_on,,,,,15,0,2,,,,,0,,,43,69
166320,note_on,,,,,245,0,1,,,,,0,,,79,64
166320,note_on,,,,,0,0,2,,,,,0,,,50,69
166320,control_change,,,,,0,0,1,,,,,0,64,96,,
166320,set_tempo,,,,,40,1,0,,816326,,,,,,,
166320,control_change,,,,,0,0,1,,,,,0,91,96,,
166321,note_on,,,,,0,0,1,,,,,0,,,67,64
166321,note_on,,,,,1,0,1,,,,,0,,,71,64
166635,note_on,,,,,0,0,2,,,,,0,,,43,0
166635,note_on,,,,,314,0,1,,,,,0,,,79,0
166635,note_on,,,,,315,0,2,,,,,0,,,50,0
166636,note_on,,,,,0,0,1,,,,,0,,,71,0
166636,note_on,,,,,1,0,1,,,,,0,,,67,0
166650,note_on,,,,,0,0,2,,,,,0,,,50,68
166650,note_on,,,,,15,0,2,,,,,0,,,43,68
166650,note_on,,,,,0,0,1,,,,,0,,,66,75
166650,note_on,,,,,14,0,1,,,,,0,,,78,75
166650,note_on,,,,,0,0,1,,,,,0,,,69,75
166650,control_change,,,,,0,0,1,,,,,0,64,0,,
166675,note_on,,,,,0,0,2,,,,,0,,,43,0
166675,note_on,,,,,25,0,2,,,,,0,,,50,0
166675,note_on,,,,,0,0,1,,,,,0,,,78,0
166675,note_on,,,,,25,0,1,,,,,0,,,69,0
166675,note_on,,,,,0,0,1,,,,,0,,,66,0
166680,note_on,,,,,0,0,2,,,,,0,,,50,70
166680,note_on,,,,,5,0,2,,,,,0,,,43,70
166680,control_change,,,,,0,0,1,,,,,0,64,96,,
166680,note_on,,,,,5,0,1,,,,,0,,,79,77
166680,control_change,,,,,0,0,1,,,,,0,91,96,,
166681,note_on,,,,,1,0,1,,,,,0,,,71,77
166681,note_on,,,,,0,0,1,,,,,0,,,67,77
166995,note_on,,,,,0,0,2,,,,,0,,,43,0
166995,note_on,,,,,314,0,1,,,,,0,,,79,0
166995,note_on,,,,,315,0,2,,,,,0,,,50,0
166996,note_on,,,,,1,0,1,,,,,0,,,67,0
166996,note_on,,,,,0,0,1,,,,,0,,,71,0
167010,note_on,,,,,0,0,1,,,,,0,,,66,83
167010,note_on,,,,,15,0,2,,,,,0,,,43,84
167010,control_change,,,,,0,0,1,,,,,0,64,0,,
167010,note_on,,,,,14,0,1,,,,,0,,,78,83
167010,note_on,,,,,0,0,1,,,,,0,,,69,83
167010,note_on,,,,,0,0,2,,,,,0,,,50,84
167035,note_on,,,,,0,0,1,,,,,0,,,66,0
167035,note_on,,,,,0,0,1,,,,,0,,,78,0
167035,note_on,,,,,25,0,1,,,,,0,,,69,0
167035,note_on,,,,,0,0,2,,,,,0,,,43,0
167035,note_on,,,,,25,0,2,,,,,0,,,50,0
167040,note_on,,,,,5,0,1,,,,,0,,,79,84
167040,note_on,,,,,0,0,2,,,,,0,,,50,85
167040,control_change,,,,,0,0,1,,,,,0,64,96,,
167040,note_on,,,,,5,0,2,,,,,0,,,43,85
167040,control_change,,,,,0,0,1,,,,,0,91,96,,
167041,note_on,,,,,0,0,1,,,,,0,,,67,84
167041,note_on,,,,,1,0,1,,,,,0,,,71,84
167355,note_on,,,,,0,0,2,,,,,0,,,43,0
167355,note_on,,,,,315,0,2,,,,,0,,,50,0
167355,note_on,,,,,314,0,1,,,,,0,,,79,0
167356,note_on,,,,,0,0,1,,,,,0,,,71,0
167356,note_on,,,,,1,0,1,,,,,0,,,67,0
167370,note_on,,,,,0,0,1,,,,,0,,,69,71
167370,note_on,,,,,0,0,1,,,,,0,,,66,71
167370,note_on,,,,,14,0,1,,,,,0,,,78,71
167370,note_on,,,,,0,0,2,,,,,0,,,50,68
167370,note_on,,,,,15,0,2,,,,,0,,,43,68
167370,control_change,,,,,0,0,1,,,,,0,64,0,,
167395,note_on,,,,,25,0,1,,,,,0,,,69,0
167395,note_on,,,,,0,0,1,,,,,0,,,66,0
167395,note_on,,,,,0,0,1,,,,,0,,,78,0
167395,set_tempo,,,,,1075,1,0,,851063,,,,,,,
167395,note_on,,,,,0,0,2,,,,,0,,,43,0
167395,note_on,,,,,25,0,2,,,,,0,,,50,0
167400,note_on,,,,,5,0,2,,,,,0,,,43,71
167400,note_on,,,,,0,0,2,,,,,0,,,50,71
167400,control_change,,,,,0,0,1,,,,,0,64,95,,
167400,note_on,,,,,0,0,1,,,,,0,,,79,71
167400,note_on,,,,,0,0,1,,,,,0,,,71,71
167400,note_on,,,,,5,0,1,,,,,0,,,67,71
167445,note_on,,,,,45,0,2,,,,,0,,,50,0
167445,note_on,,,,,0,0,2,,,,,0,,,43,0
167445,note_on,,,,,0,0,1,,,,,0,,,71,0
167445,note_on,,,,,0,0,1,,,,,0,,,67,0
167445,note_on,,,,,45,0,1,,,,,0,,,79,0
167460,note_on,,,,,15,0,2,,,,,0,,,38,79
167465,set_tempo,,,,,70,1,0,,882352,,,,,,,
167505,note_on,,,,,45,0,2,,,,,0,,,38,0
167515,set_tempo,,,,,50,1,0,,902255,,,,,,,
167515,control_change,,,,,70,0,1,,,,,0,64,0,,
167520,note_on,,,,,15,0,2,,,,,0,,,36,84
167565,note_on,,,,,45,0,2,,,,,0,,,36,0
167580,note_on,,,,,15,0,2,,,,,0,,,35,87
167580,set_tempo,,,,,65,1,0,,923076,,,,,,,
167625,note_on,,,,,45,0,2,,,,,0,,,35,0
167640,note_on,,,,,15,0,2,,,,,0,,,33,91
167645,set_tempo,,,,,65,1,0,,944881,,,,,,,
167685,note_on,,,,,45,0,2,,,,,0,,,33,0
167690,set_tempo,,,,,45,1,0,,983606,,,,,,,
167700,note_on,,,,,15,0,2,,,,,0,,,31,101
167730,set_tempo,,,,,40,1,0,,1025641,,,,,,,
167745,note_on,,,,,45,0,2,,,,,0,,,31,0
167760,note_on,,,,,0,0,1,,,,,0,,,79,110
167760,control_change,,,,,0,0,1,,,,,0,64,96,,
167760,control_change,,,,,0,0,1,,,,,0,91,96,,
167760,note_on,,,,,245,0,1,,,,,0,,,83,110
167760,note_on,,,,,0,0,2,,,,,0,,,50,108
167760,note_on,,,,,15,0,2,,,,,0,,,43,108
167760,set_tempo,,,,,30,1,0,,882352,,,,,,,
167761,note_on,,,,,1,0,1,,,,,0,,,71,110
168075,note_on,,,,,315,0,2,,,,,0,,,50,0
168075,note_on,,,,,0,0,2,,,,,0,,,43,0
168075,note_on,,,,,314,0,1,,,,,0,,,79,0
168075,note_on,,,,,0,0,1,,,,,0,,,83,0
168076,note_on,,,,,1,0,1,,,,,0,,,71,0
168090,note_on,,,,,0,0,2,,,,,0,,,50,101
168090,note_on,,,,,15,0,2,,,,,0,,,43,101
168090,note_on,,,,,14,0,1,,,,,0,,,81,112
168090,note_on,,,,,0,0,1,,,,,0,,,78,112
168090,note_on,,,,,0,0,1,,,,,0,,,69,112
168090,control_change,,,,,0,0,1,,,,,0,64,0,,
168115,note_on,,,,,25,0,2,,,,,0,,,50,0
168115,note_on,,,,,25,0,1,,,,,0,,,69,0
168115,note_on,,,,,0,0,2,,,,,0,,,43,0
168115,note_on,,,,,0,0,1,,,,,0,,,78,0
168115,note_on,,,,,0,0,1,,,,,0,,,81,0
168120,note_on,,,,,5,0,1,,,,,0,,,83,112
168120,control_change,,,,,0,0,1,,,,,0,91,96,,
168120,control_change,,,,,0,0,1,,,,,0,64,96,,
168120,note_on,,,,,0,0,1,,,,,0,,,79,112
168120,note_on,,,,,0,0,2,,,,,0,,,50,101
168120,note_on,,,,,5,0,2,,,,,0,,,43,101
168121,note_on,,,,,1,0,1,,,,,0,,,71,112
168435,note_on,,,,,314,0,1,,,,,0,,,79,0
168435,note_on,,,,,0,0,1,,,,,0,,,83,0
168435,note_on,,,,,0,0,2,,,,,0,,,43,0
168435,note_on,,,,,315,0,2,,,,,0,,,50,0
168436,note_on,,,,,1,0,1,,,,,0,,,71,0
168450,note_on,,,,,14,0,1,,,,,0,,,81,114
168450,note_on,,,,,0,0,1,,,,,0,,,78,114
168450,control_change,,,,,0,0,1,,,,,0,64,0,,
168450,note_on,,,,,15,0,2,,,,,0,,,43,108
168450,note_on,,,,,0,0,1,,,,,0,,,69,114
168450,note_on,,,,,0,0,2,,,,,0,,,50,108
168460,set_tempo,,,,,700,1,0,,888888,,,,,,,
168475,note_on,,,,,25,0,1,,,,,0,,,69,0
168475,note_on,,,,,0,0,1,,,,,0,,,81,0
168475,note_on,,,,,0,0,2,,,,,0,,,43,0
168475,note_on,,,,,0,0,1,,,,,0,,,78,0
168475,note_on,,,,,25,0,2,,,,,0,,,50,0
168480,note_on,,,,,5,0,2,,,,,0,,,43,108
168480,control_change,,,,,0,0,1,,,,,0,64,96,,
168480,note_on,,,,,0,0,1,,,,,0,,,79,113
168480,control_change,,,,,0,0,1,,,,,0,91,96,,
168480,note_on,,,,,0,0,2,,,,,0,,,50,108
168480,note_on,,,,,5,0,1,,,,,0,,,83,113
168481,note_on,,,,,1,0,1,,,,,0,,,71,113
168535,set_tempo,,,,,75,1,0,,944881,,,,,,,
168600,set_tempo,,,,,65,1,0,,1000000,,,,,,,
168655,set_tempo,,,,,55,1,0,,1090909,,,,,,,
168795,note_on,,,,,314,0,1,,,,,0,,,79,0
168795,note_on,,,,,0,0,2,,,,,0,,,43,0
168795,note_on,,,,,0,0,1,,,,,0,,,83,0
168795,note_on,,,,,315,0,2,,,,,0,,,50,0
168796,note_on,,,,,1,0,1,,,,,0,,,71,0
168810,note_on,,,,,14,0,1,,,,,0,,,84,116
168810,note_on,,,,,0,0,1,,,,,0,,,72,116
168810,note_on,,,,,0,0,1,,,,,0,,,78,116
168810,control_change,,,,,0,0,1,,,,,0,64,0,,
168810,note_on,,,,,15,0,2,,,,,0,,,43,109
168810,set_tempo,,,,,155,1,0,,1764705,,,,,,,
168810,note_on,,,,,0,0,2,,,,,0,,,57,109
168810,note_on,,,,,0,0,2,,,,,0,,,50,109
168830,set_tempo,,,,,20,1,0,,1764705,,,,,,,
168835,note_on,,,,,0,0,1,,,,,0,,,72,0
168835,note_on,,,,,0,0,1,,,,,0,,,84,0
168835,note_on,,,,,25,0,1,,,,,0,,,78,0
168835,note_on,,,,,25,0,2,,,,,0,,,50,0
168835,note_on,,,,,0,0,2,,,,,0,,,57,0
168835,note_on,,,,,0,0,2,,,,,0,,,43,0
168840,control_change,,,,,0,0,1,,,,,0,64,95,,
168840,note_on,,,,,0,0,1,,,,,0,,,84,116
168840,note_on,,,,,5,0,2,,,,,0,,,43,109
168840,note_on,,,,,0,0,2,,,,,0,,,57,109
168840,note_on,,,,,0,0,2,,,,,0,,,50,109
168840,note_on,,,,,0,0,1,,,,,0,,,78,116
168840,note_on,,,,,5,0,1,,,,,0,,,72,116
168860,set_tempo,,,,,30,1,0,,1188118,,,,,,,
168885,set_tempo,,,,,25,1,0,,1176470,,,,,,,
168897,note_on,,,,,57,0,2,,,,,0,,,50,0
168900,note_on,,,,,3,0,2,,,,,0,,,50,74
168945,set_tempo,,,,,60,1,0,,1025641,,,,,,,
168954,note_on,,,,,54,0,2,,,,,0,,,50,0
168960,note_on,,,,,6,0,2,,,,,0,,,50,71
168995,set_tempo,,,,,50,1,0,,930232,,,,,,,
169011,note_on,,,,,51,0,2,,,,,0,,,50,0
169020,note_on,,,,,9,0,2,,,,,0,,,50,65
169045,set_tempo,,,,,50,1,0,,875912,,,,,,,
169071,note_on,,,,,51,0,2,,,,,0,,,50,0
169075,set_tempo,,,,,30,1,0,,863309,,,,,,,
169080,set_tempo,,,,,5,1,0,,857142,,,,,,,
169080,note_on,,,,,9,0,2,,,,,0,,,50,62
169115,set_tempo,,,,,35,1,0,,845070,,,,,,,
169131,note_on,,,,,51,0,2,,,,,0,,,50,0
169140,note_on,,,,,9,0,2,,,,,0,,,50,59
169155,set_tempo,,,,,40,1,0,,810810,,,,,,,
169185,set_tempo,,,,,30,1,0,,800000,,,,,,,
169191,note_on,,,,,51,0,2,,,,,0,,,50,0
169200,note_on,,,,,9,0,2,,,,,0,,,50,57
169215,set_tempo,,,,,30,1,0,,789473,,,,,,,
169225,set_tempo,,,,,10,1,0,,779220,,,,,,,
169235,set_tempo,,,,,10,1,0,,769230,,,,,,,
169240,set_tempo,,,,,5,1,0,,764331,,,,,,,
169245,set_tempo,,,,,5,1,0,,754716,,,,,,,
169254,note_on,,,,,54,0,2,,,,,0,,,50,0
169260,set_tempo,,,,,15,1,0,,714285,,,,,,,
169260,note_on,,,,,6,0,2,,,,,0,,,50,54
169290,set_tempo,,,,,30,1,0,,722891,,,,,,,
169310,set_tempo,,,,,20,1,0,,731707,,,,,,,
169311,note_on,,,,,51,0,2,,,,,0,,,50,0
169320,note_on,,,,,9,0,2,,,,,0,,,50,52
169330,set_tempo,,,,,20,1,0,,736196,,,,,,,
169340,set_tempo,,,,,10,1,0,,740740,,,,,,,
169350,set_tempo,,,,,10,1,0,,745341,,,,,,,
169360,set_tempo,,,,,10,1,0,,750000,,,,,,,
169371,note_on,,,,,51,0,2,,,,,0,,,50,0
169380,note_on,,,,,9,0,2,,,,,0,,,50,50
169395,set_tempo,,,,,35,1,0,,759493,,,,,,,
169405,set_tempo,,,,,10,1,0,,764331,,,,,,,
169410,set_tempo,,,,,5,1,0,,769230,,,,,,,
169431,note_on,,,,,51,0,2,,,,,0,,,50,0
169435,set_tempo,,,,,25,1,0,,764331,,,,,,,
169440,set_tempo,,,,,5,1,0,,769230,,,,,,,
169440,note_on,,,,,9,0,2,,,,,0,,,50,48
169450,set_tempo,,,,,10,1,0,,774193,,,,,,,
169465,set_tempo,,,,,15,1,0,,779220,,,,,,,
169491,note_on,,,,,51,0,2,,,,,0,,,50,0
169495,set_tempo,,,,,30,1,0,,789473,,,,,,,
169500,note_on,,,,,9,0,2,,,,,0,,,50,46
169535,set_tempo,,,,,40,1,0,,821917,,,,,,,
169545,set_tempo,,,,,10,1,0,,827586,,,,,,,
169551,note_on,,,,,51,0,2,,,,,0,,,50,0
169555,set_tempo,,,,,10,1,0,,839160,,,,,,,
169555,control_change,,,,,715,0,1,,,,,0,64,0,,
169560,note_on,,,,,9,0,2,,,,,0,,,50,45
169560,control_change,,,,,5,0,1,,,,,0,64,95,,
169590,set_tempo,,,,,35,1,0,,851063,,,,,,,
169611,note_on,,,,,51,0,2,,,,,0,,,50,0
169615,note_on,,,,,4,0,2,,,,,0,,,57,0
169615,note_on,,,,,0,0,2,,,,,0,,,43,0
169615,note_on,,,,,55,0,1,,,,,0,,,84,0
169615,note_on,,,,,0,0,1,,,,,0,,,78,0
169615,note_on,,,,,0,0,1,,,,,0,,,72,0
169620,note_on,,,,,5,0,1,,,,,0,,,84,65
169620,note_on,,,,,0,0,1,,,,,0,,,72,65
169620,note_on,,,,,0,0,2,,,,,0,,,50,43
169620,note_on,,,,,0,0,2,,,,,0,,,43,43
169620,note_on,,,,,5,0,2,,,,,0,,,57,43
169620,note_on,,,,,0,0,1,,,,,0,,,78,65
169630,set_tempo,,,,,40,1,0,,888888,,,,,,,
169635,set_tempo,,,,,5,1,0,,895522,,,,,,,
169650,set_tempo,,,,,15,1,0,,902255,,,,,,,
169655,set_tempo,,,,,5,1,0,,909090,,,,,,,
169670,set_tempo,,,,,15,1,0,,916030,,,,,,,
169675,note_on,,,,,0,0,2,,,,,0,,,43,0
169675,note_on,,,,,55,0,1,,,,,0,,,72,0
169675,note_on,,,,,0,0,1,,,,,0,,,78,0
169675,note_on,,,,,0,0,1,,,,,0,,,84,0
169675,note_on,,,,,0,0,2,,,,,0,,,57,0
169675,note_on,,,,,55,0,2,,,,,0,,,50,0
169680,note_on,,,,,0,0,2,,,,,0,,,43,42
169680,set_tempo,,,,,10,1,0,,923076,,,,,,,
169680,note_on,,,,,5,0,2,,,,,0,,,57,42
169680,note_on,,,,,0,0,2,,,,,0,,,50,42
169680,note_on,,,,,0,0,1,,,,,0,,,72,60
169680,note_on,,,,,0,0,1,,,,,0,,,78,60
169680,note_on,,,,,5,0,1,,,,,0,,,84,60
169690,set_tempo,,,,,10,1,0,,937500,,,,,,,
169695,set_tempo,,,,,5,1,0,,944881,,,,,,,
169710,set_tempo,,,,,15,1,0,,952380,,,,,,,
169715,set_tempo,,,,,5,1,0,,960000,,,,,,,
169725,set_tempo,,,,,10,1,0,,967741,,,,,,,
169735,note_on,,,,,0,0,1,,,,,0,,,78,0
169735,note_on,,,,,55,0,2,,,,,0,,,50,0
169735,note_on,,,,,55,0,1,,,,,0,,,72,0
169735,note_on,,,,,0,0,1,,,,,0,,,84,0
169735,note_on,,,,,0,0,2,,,,,0,,,43,0
169735,note_on,,,,,0,0,2,,,,,0,,,57,0
169735,set_tempo,,,,,10,1,0,,975609,,,,,,,
169740,note_on,,,,,0,0,2,,,,,0,,,43,40
169740,note_on,,,,,5,0,1,,,,,0,,,84,54
169740,note_on,,,,,0,0,1,,,,,0,,,78,54
169740,note_on,,,,,5,0,2,,,,,0,,,57,40
169740,note_on,,,,,0,0,1,,,,,0,,,72,54
169740,note_on,,,,,0,0,2,,,,,0,,,50,40
169745,set_tempo,,,,,10,1,0,,991735,,,,,,,
169755,set_tempo,,,,,10,1,0,,1000000,,,,,,,
169770,set_tempo,,,,,15,1,0,,1016949,,,,,,,
169780,set_tempo,,,,,10,1,0,,1025641,,,,,,,
169790,set_tempo,,,,,10,1,0,,1034482,,,,,,,
169795,note_on,,,,,0,0,1,,,,,0,,,78,0
169795,note_on,,,,,55,0,1,,,,,0,,,72,0
169795,note_on,,,,,0,0,2,,,,,0,,,57,0
169795,note_on,,,,,0,0,2,,,,,0,,,43,0
169795,note_on,,,,,0,0,1,,,,,0,,,84,0
169795,note_on,,,,,55,0,2,,,,,0,,,50,0
169800,note_on,,,,,5,0,1,,,,,0,,,84,50
169800,note_on,,,,,0,0,2,,,,,0,,,50,39
169800,note_on,,,,,0,0,1,,,,,0,,,78,50
169800,note_on,,,,,0,0,1,,,,,0,,,72,50
169800,set_tempo,,,,,10,1,0,,1043478,,,,,,,
169800,note_on,,,,,0,0,2,,,,,0,,,43,39
169800,note_on,,,,,5,0,2,,,,,0,,,57,39
169805,set_tempo,,,,,5,1,0,,1052631,,,,,,,
169815,set_tempo,,,,,10,1,0,,1121495,,,,,,,
169820,set_tempo,,,,,5,1,0,,1132075,,,,,,,
169825,set_tempo,,,,,5,1,0,,1142857,,,,,,,
169830,set_tempo,,,,,5,1,0,,1153846,,,,,,,
169835,set_tempo,,,,,5,1,0,,1176470,,,,,,,
169840,set_tempo,,,,,5,1,0,,1200000,,,,,,,
169845,set_tempo,,,,,5,1,0,,1212121,,,,,,,
169850,set_tempo,,,,,5,1,0,,1224489,,,,,,,
169855,note_on,,,,,55,0,1,,,,,0,,,72,0
169855,set_tempo,,,,,5,1,0,,1237113,,,,,,,
169855,note_on,,,,,0,0,1,,,,,0,,,84,0
169855,note_on,,,,,55,0,2,,,,,0,,,50,0
169855,note_on,,,,,0,0,1,,,,,0,,,78,0
169855,note_on,,,,,0,0,2,,,,,0,,,43,0
169855,note_on,,,,,0,0,2,,,,,0,,,57,0
169860,note_on,,,,,5,0,1,,,,,0,,,84,49
169860,note_on,,,,,0,0,1,,,,,0,,,78,49
169860,note_on,,,,,0,0,1,,,,,0,,,72,49
169860,note_on,,,,,0,0,2,,,,,0,,,43,39
169860,note_on,,,,,0,0,2,,,,,0,,,50,39
169860,set_tempo,,,,,5,1,0,,1276595,,,,,,,
169860,note_on,,,,,5,0,2,,,,,0,,,57,39
169870,set_tempo,,,,,10,1,0,,1348314,,,,,,,
169910,set_tempo,,,,,40,1,0,,1333333,,,,,,,
169915,note_on,,,,,0,0,1,,,,,0,,,84,0
169915,note_on,,,,,0,0,1,,,,,0,,,78,0
169915,note_on,,,,,55,0,1,,,,,0,,,72,0
169915,note_on,,,,,55,0,2,,,,,0,,,50,0
169915,note_on,,,,,0,0,2,,,,,0,,,43,0
169915,note_on,,,,,0,0,2,,,,,0,,,57,0
169920,note_on,,,,,5,0,1,,,,,0,,,71,49
169920,note_on,,,,,5,0,2,,,,,0,,,43,39
169920,note_on,,,,,0,0,2,,,,,0,,,50,39
169920,note_on,,,,,0,0,2,,,,,0,,,55,39
169920,note_on,,,,,0,0,1,,,,,0,,,83,49
169920,note_on,,,,,0,0,1,,,,,0,,,79,49
169940,set_tempo,,,,,30,1,0,,1348314,,,,,,,
169955,set_tempo,,,,,15,1,0,,1165048,,,,,,,
169975,note_on,,,,,55,0,2,,,,,0,,,55,0
169975,note_on,,,,,0,0,2,,,,,0,,,50,0
169975,note_on,,,,,0,0,2,,,,,0,,,43,0
169975,note_on,,,,,0,0,1,,,,,0,,,79,0
169975,note_on,,,,,55,0,1,,,,,0,,,83,0
169975,note_on,,,,,0,0,1,,,,,0,,,71,0
169980,note_on,,,,,5,0,2,,,,,0,,,38,51
169995,set_tempo,,,,,40,1,0,,1090909,,,,,,,
170000,set_tempo,,,,,5,1,0,,1100917,,,,,,,
170015,set_tempo,,,,,15,1,0,,1111111,,,,,,,
170025,note_on,,,,,45,0,2,,,,,0,,,38,0
170030,set_tempo,,,,,15,1,0,,1121495,,,,,,,
170035,set_tempo,,,,,5,1,0,,1132075,,,,,,,
170040,control_change,,,,,65,0,1,,,,,0,64,0,,
170040,note_on,,,,,15,0,2,,,,,0,,,36,50
170050,set_tempo,,,,,15,1,0,,1142857,,,,,,,
170055,set_tempo,,,,,5,1,0,,1153846,,,,,,,
170070,set_tempo,,,,,15,1,0,,1165048,,,,,,,
170075,set_tempo,,,,,5,1,0,,1176470,,,,,,,
170080,set_tempo,,,,,5,1,0,,1188118,,,,,,,
170085,note_on,,,,,45,0,2,,,,,0,,,36,0
170090,set_tempo,,,,,10,1,0,,1200000,,,,,,,
170095,set_tempo,,,,,5,1,0,,1212121,,,,,,,
170100,note_on,,,,,15,0,2,,,,,0,,,35,48
170100,set_tempo,,,,,5,1,0,,1224489,,,,,,,
170110,set_tempo,,,,,10,1,0,,1237113,,,,,,,
170115,set_tempo,,,,,5,1,0,,1250000,,,,,,,
170130,set_tempo,,,,,15,1,0,,1263157,,,,,,,
170145,set_tempo,,,,,15,1,0,,1276595,,,,,,,
170145,note_on,,,,,45,0,2,,,,,0,,,35,0
170150,set_tempo,,,,,5,1,0,,1290322,,,,,,,
170155,set_tempo,,,,,5,1,0,,1304347,,,,,,,
170160,note_on,,,,,15,0,2,,,,,0,,,33,47
170175,set_tempo,,,,,20,1,0,,1304347,,,,,,,
170190,set_tempo,,,,,15,1,0,,1318681,,,,,,,
170195,set_tempo,,,,,5,1,0,,1333333,,,,,,,
170205,note_on,,,,,45,0,2,,,,,0,,,33,0
170215,control_change,,,,,175,0,1,,,,,0,64,96,,
170220,note_on,,,,,15,0,2,,,,,0,,,31,45
170250,set_tempo,,,,,55,1,0,,1600000,,,,,,,
170265,note_on,,,,,45,0,2,,,,,0,,,31,0
170275,set_tempo,,,,,25,1,0,,1411764,,,,,,,
170280,note_on,,,,,15,0,2,,,,,0,,,43,53
170280,note_on,,,,,0,0,2,,,,,0,,,50,53
170280,set_tempo,,,,,5,1,0,,1304347,,,,,,,
170280,note_on,,,,,65,0,1,,,,,0,,,71,41
170280,note_on,,,,,0,0,1,,,,,0,,,79,41
170280,note_on,,,,,0,0,1,,,,,0,,,83,41
170335,note_on,,,,,55,0,1,,,,,0,,,83,0
170335,note_on,,,,,0,0,1,,,,,0,,,71,0
170335,note_on,,,,,0,0,1,,,,,0,,,79,0
170335,note_on,,,,,55,0,2,,,,,0,,,50,0
170335,note_on,,,,,0,0,2,,,,,0,,,43,0
170340,note_on,,,,,5,0,2,,,,,0,,,38,49
170380,control_change,,,,,45,0,1,,,,,0,64,0,,
170385,note_on,,,,,45,0,2,,,,,0,,,38,0
170400,note_on,,,,,15,0,2,,,,,0,,,36,45
170445,note_on,,,,,45,0,2,,,,,0,,,36,0
170460,note_on,,,,,15,0,2,,,,,0,,,35,42
170465,set_tempo,,,,,185,1,0,,1333333,,,,,,,
170480,set_tempo,,,,,15,1,0,,1333333,,,,,,,
170500,set_tempo,,,,,20,1,0,,1348314,,,,,,,
170505,set_tempo,,,,,5,1,0,,1363636,,,,,,,
170505,note_on,,,,,45,0,2,,,,,0,,,35,0
170520,note_on,,,,,15,0,2,,,,,0,,,33,40
170545,set_tempo,,,,,40,1,0,,1411764,,,,,,,
170565,note_on,,,,,45,0,2,,,,,0,,,33,0
170570,set_tempo,,,,,25,1,0,,1500000,,,,,,,
170575,control_change,,,,,195,0,1,,,,,0,64,95,,
170580,note_on,,,,,15,0,2,,,,,0,,,31,38
170595,set_tempo,,,,,25,1,0,,1578947,,,,,,,
170610,set_tempo,,,,,15,1,0,,2142857,,,,,,,
170625,note_on,,,,,45,0,2,,,,,0,,,31,0
170625,set_tempo,,,,,15,1,0,,2181818,,,,,,,
170630,set_tempo,,,,,5,1,0,,2142857,,,,,,,
170635,set_tempo,,,,,5,1,0,,1578947,,,,,,,
170640,set_tempo,,,,,5,1,0,,1538461,,,,,,,
170640,note_on,,,,,65,0,1,,,,,0,,,71,37
170640,note_on,,,,,0,0,2,,,,,0,,,50,36
170640,note_on,,,,,15,0,2,,,,,0,,,43,36
170640,note_on,,,,,0,0,1,,,,,0,,,83,37
170640,note_on,,,,,0,0,1,,,,,0,,,79,37
170645,end_of_track,,,,,0,1,0,,,,,,,,,
170645,set_tempo,,,,,5,1,0,,975609,,,,,,,
171360,end_of_track,,,,,0,1,1,,,,,,,,,
171360,note_on,,,,,0,0,2,,,,,0,,,43,0
171360,note_on,,,,,720,0,2,,,,,0,,,50,0
171360,note_on,,,,,0,0,1,,,,,0,,,71,0
171360,note_on,,,,,0,0,1,,,,,0,,,79,0
171360,note_on,,,,,720,0,1,,,,,0,,,83,0
171360,control_change,,,,,0,0,1,,,,,0,64,0,,
171360,end_of_track,,,,,0,1,2,,,,,,,,,
