tick,type,tempo,time,meta,track,control,value,channel,program,note,velocity
0,set_tempo,500000,0,1,0,,,,,,
0,text,,0,1,0,,,,,,
0,control_change,,0,0,0,103,0,0,,,
0,program_change,,0,0,0,,,0,0,,
0,control_change,,0,0,0,105,2,1,,,
0,program_change,,0,0,0,,,1,0,,
0,control_change,,0,0,0,105,5,2,,,
0,program_change,,0,0,0,,,2,0,,
0,control_change,,0,0,0,105,7,3,,,
0,program_change,,0,0,0,,,3,0,,
0,control_change,,0,0,0,105,10,4,,,
0,program_change,,0,0,0,,,4,0,,
0,control_change,,0,0,0,105,1,5,,,
0,program_change,,0,0,0,,,5,0,,
0,control_change,,0,0,0,105,3,6,,,
0,program_change,,0,0,0,,,6,0,,
0,control_change,,0,0,0,105,6,7,,,
0,program_change,,0,0,0,,,7,0,,
0,control_change,,0,0,0,105,8,8,,,
0,program_change,,0,0,0,,,8,0,,
0,note_on,,0,0,0,,,0,,64,95
0,note_on,,0,0,0,,,1,,60,95
0,note_on,,0,0,0,,,2,,55,95
0,note_on,,0,0,0,,,3,,52,95
0,note_on,,0,0,0,,,4,,48,95
0,note_on,,0,0,0,,,5,,43,95
0,note_on,,0,0,0,,,6,,36,95
48,note_on,,48,0,0,,,0,,64,0
48,note_on,,0,0,0,,,0,,64,95
48,note_on,,0,0,0,,,1,,60,0
48,note_on,,0,0,0,,,2,,55,0
48,note_on,,0,0,0,,,3,,52,0
48,note_on,,0,0,0,,,4,,48,0
48,note_on,,0,0,0,,,5,,43,0
48,note_on,,0,0,0,,,6,,36,0
48,note_on,,0,0,0,,,1,,60,95
48,note_on,,0,0,0,,,2,,55,95
48,note_on,,0,0,0,,,3,,52,95
48,note_on,,0,0,0,,,4,,48,95
48,note_on,,0,0,0,,,5,,43,95
48,note_on,,0,0,0,,,6,,36,95
72,note_on,,24,0,0,,,0,,64,0
72,note_on,,0,0,0,,,0,,64,95
72,note_on,,0,0,0,,,1,,60,0
72,note_on,,0,0,0,,,2,,55,0
72,note_on,,0,0,0,,,3,,52,0
72,note_on,,0,0,0,,,4,,48,0
72,note_on,,0,0,0,,,5,,43,0
72,note_on,,0,0,0,,,6,,36,0
72,note_on,,0,0,0,,,1,,60,95
72,note_on,,0,0,0,,,2,,55,95
72,note_on,,0,0,0,,,3,,52,95
72,note_on,,0,0,0,,,4,,48,95
72,note_on,,0,0,0,,,5,,43,95
72,note_on,,0,0,0,,,6,,36,95
96,note_on,,24,0,0,,,0,,64,0
96,note_on,,0,0,0,,,0,,64,95
96,note_on,,0,0,0,,,1,,60,0
96,note_on,,0,0,0,,,2,,55,0
96,note_on,,0,0,0,,,3,,52,0
96,note_on,,0,0,0,,,4,,48,0
96,note_on,,0,0,0,,,5,,43,0
96,note_on,,0,0,0,,,6,,36,0
96,note_on,,0,0,0,,,1,,60,95
96,note_on,,0,0,0,,,2,,55,95
96,note_on,,0,0,0,,,3,,52,95
96,note_on,,0,0,0,,,4,,48,95
96,note_on,,0,0,0,,,5,,43,95
96,note_on,,0,0,0,,,6,,36,95
144,note_on,,48,0,0,,,0,,64,0
144,note_on,,0,0,0,,,0,,64,95
144,note_on,,0,0,0,,,1,,60,0
144,note_on,,0,0,0,,,2,,55,0
144,note_on,,0,0,0,,,3,,52,0
144,note_on,,0,0,0,,,4,,48,0
144,note_on,,0,0,0,,,5,,43,0
144,note_on,,0,0,0,,,6,,36,0
144,note_on,,0,0,0,,,1,,60,95
144,note_on,,0,0,0,,,2,,55,95
144,note_on,,0,0,0,,,3,,52,95
144,note_on,,0,0,0,,,4,,48,95
144,note_on,,0,0,0,,,5,,43,95
144,note_on,,0,0,0,,,6,,36,95
168,note_on,,24,0,0,,,0,,64,0
168,note_on,,0,0,0,,,0,,64,95
168,note_on,,0,0,0,,,1,,60,0
168,note_on,,0,0,0,,,2,,55,0
168,note_on,,0,0,0,,,3,,52,0
168,note_on,,0,0,0,,,4,,48,0
168,note_on,,0,0,0,,,5,,43,0
168,note_on,,0,0,0,,,6,,36,0
168,note_on,,0,0,0,,,1,,60,95
168,note_on,,0,0,0,,,2,,55,95
168,note_on,,0,0,0,,,3,,52,95
168,note_on,,0,0,0,,,4,,48,95
168,note_on,,0,0,0,,,5,,43,95
168,note_on,,0,0,0,,,6,,36,95
192,note_on,,24,0,0,,,0,,64,0
192,note_on,,0,0,0,,,0,,64,95
192,note_on,,0,0,0,,,1,,60,0
192,note_on,,0,0,0,,,2,,55,0
192,note_on,,0,0,0,,,3,,52,0
192,note_on,,0,0,0,,,4,,48,0
192,note_on,,0,0,0,,,5,,43,0
192,note_on,,0,0,0,,,6,,36,0
192,note_on,,0,0,0,,,1,,60,95
192,note_on,,0,0,0,,,2,,55,95
192,note_on,,0,0,0,,,3,,52,95
192,note_on,,0,0,0,,,4,,48,95
192,note_on,,0,0,0,,,5,,43,95
192,note_on,,0,0,0,,,6,,36,95
216,note_on,,24,0,0,,,0,,64,0
216,note_on,,0,0,0,,,0,,48,95
216,note_on,,0,0,0,,,1,,60,0
216,note_on,,0,0,0,,,2,,55,0
216,note_on,,0,0,0,,,3,,52,0
216,note_on,,0,0,0,,,4,,48,0
216,note_on,,0,0,0,,,5,,43,0
216,note_on,,0,0,0,,,6,,36,0
228,note_on,,12,0,0,,,0,,48,0
228,note_on,,0,0,0,,,0,,52,95
240,note_on,,12,0,0,,,0,,52,0
240,note_on,,0,0,0,,,0,,55,95
252,note_on,,12,0,0,,,0,,55,0
252,note_on,,0,0,0,,,0,,60,95
264,note_on,,12,0,0,,,0,,60,0
264,note_on,,0,0,0,,,0,,64,95
276,note_on,,12,0,0,,,0,,64,0
276,note_on,,0,0,0,,,0,,67,95
288,note_on,,12,0,0,,,0,,67,0
288,note_on,,0,0,0,,,0,,71,95
288,note_on,,0,0,0,,,1,,59,95
336,note_on,,48,0,0,,,0,,71,0
336,note_on,,0,0,0,,,0,,72,95
336,note_on,,0,0,0,,,1,,59,0
336,note_on,,0,0,0,,,1,,60,95
360,note_on,,24,0,0,,,0,,72,0
360,note_on,,0,0,0,,,0,,72,95
360,note_on,,0,0,0,,,1,,60,0
360,note_on,,0,0,0,,,1,,60,95
384,note_on,,24,0,0,,,0,,72,0
384,note_on,,0,0,0,,,0,,73,95
384,note_on,,0,0,0,,,1,,60,0
384,note_on,,0,0,0,,,1,,61,95
384,note_on,,0,0,0,,,2,,59,95
384,note_on,,0,0,0,,,3,,53,95
384,note_on,,0,0,0,,,4,,43,95
432,note_on,,48,0,0,,,0,,73,0
432,note_on,,0,0,0,,,0,,74,95
432,note_on,,0,0,0,,,1,,61,0
432,note_on,,0,0,0,,,2,,59,0
432,note_on,,0,0,0,,,3,,53,0
432,note_on,,0,0,0,,,4,,43,0
432,note_on,,0,0,0,,,1,,62,95
432,note_on,,0,0,0,,,2,,59,95
432,note_on,,0,0,0,,,3,,53,95
432,note_on,,0,0,0,,,4,,43,95
480,note_on,,48,0,0,,,0,,74,0
480,note_on,,0,0,0,,,1,,62,0
480,note_on,,0,0,0,,,2,,59,0
480,note_on,,0,0,0,,,3,,53,0
480,note_on,,0,0,0,,,4,,43,0
576,note_on,,96,0,0,,,0,,62,95
576,note_on,,0,0,0,,,1,,59,95
576,note_on,,0,0,0,,,2,,55,95
576,note_on,,0,0,0,,,3,,53,95
576,note_on,,0,0,0,,,4,,43,95
576,note_on,,0,0,0,,,5,,31,95
624,note_on,,48,0,0,,,0,,62,0
624,note_on,,0,0,0,,,0,,62,95
624,note_on,,0,0,0,,,1,,59,0
624,note_on,,0,0,0,,,2,,55,0
624,note_on,,0,0,0,,,3,,53,0
624,note_on,,0,0,0,,,4,,43,0
624,note_on,,0,0,0,,,5,,31,0
624,note_on,,0,0,0,,,1,,59,95
624,note_on,,0,0,0,,,2,,55,95
624,note_on,,0,0,0,,,3,,53,95
624,note_on,,0,0,0,,,4,,43,95
624,note_on,,0,0,0,,,5,,31,95
648,note_on,,24,0,0,,,0,,62,0
648,note_on,,0,0,0,,,0,,62,95
648,note_on,,0,0,0,,,1,,59,0
648,note_on,,0,0,0,,,2,,55,0
648,note_on,,0,0,0,,,3,,53,0
648,note_on,,0,0,0,,,4,,43,0
648,note_on,,0,0,0,,,5,,31,0
648,note_on,,0,0,0,,,1,,59,95
648,note_on,,0,0,0,,,2,,55,95
648,note_on,,0,0,0,,,3,,53,95
648,note_on,,0,0,0,,,4,,43,95
648,note_on,,0,0,0,,,5,,31,95
672,note_on,,24,0,0,,,0,,62,0
672,note_on,,0,0,0,,,0,,62,95
672,note_on,,0,0,0,,,1,,59,0
672,note_on,,0,0,0,,,2,,55,0
672,note_on,,0,0,0,,,3,,53,0
672,note_on,,0,0,0,,,4,,43,0
672,note_on,,0,0,0,,,5,,31,0
672,note_on,,0,0,0,,,1,,59,95
672,note_on,,0,0,0,,,2,,55,95
672,note_on,,0,0,0,,,3,,53,95
672,note_on,,0,0,0,,,4,,43,95
672,note_on,,0,0,0,,,5,,31,95
720,note_on,,48,0,0,,,0,,62,0
720,note_on,,0,0,0,,,0,,62,95
720,note_on,,0,0,0,,,1,,59,0
720,note_on,,0,0,0,,,2,,55,0
720,note_on,,0,0,0,,,3,,53,0
720,note_on,,0,0,0,,,4,,43,0
720,note_on,,0,0,0,,,5,,31,0
720,note_on,,0,0,0,,,1,,59,95
720,note_on,,0,0,0,,,2,,55,95
720,note_on,,0,0,0,,,3,,53,95
720,note_on,,0,0,0,,,4,,43,95
720,note_on,,0,0,0,,,5,,31,95
744,note_on,,24,0,0,,,0,,62,0
744,note_on,,0,0,0,,,0,,62,95
744,note_on,,0,0,0,,,1,,59,0
744,note_on,,0,0,0,,,2,,55,0
744,note_on,,0,0,0,,,3,,53,0
744,note_on,,0,0,0,,,4,,43,0
744,note_on,,0,0,0,,,5,,31,0
744,note_on,,0,0,0,,,1,,59,95
744,note_on,,0,0,0,,,2,,55,95
744,note_on,,0,0,0,,,3,,53,95
744,note_on,,0,0,0,,,4,,43,95
744,note_on,,0,0,0,,,5,,31,95
768,note_on,,24,0,0,,,0,,62,0
768,note_on,,0,0,0,,,0,,62,95
768,note_on,,0,0,0,,,1,,59,0
768,note_on,,0,0,0,,,2,,55,0
768,note_on,,0,0,0,,,3,,53,0
768,note_on,,0,0,0,,,4,,43,0
768,note_on,,0,0,0,,,5,,31,0
768,note_on,,0,0,0,,,1,,59,95
768,note_on,,0,0,0,,,2,,55,95
768,note_on,,0,0,0,,,3,,53,95
768,note_on,,0,0,0,,,4,,43,95
768,note_on,,0,0,0,,,5,,31,95
792,note_on,,24,0,0,,,0,,62,0
792,note_on,,0,0,0,,,0,,55,95
792,note_on,,0,0,0,,,1,,59,0
792,note_on,,0,0,0,,,2,,55,0
792,note_on,,0,0,0,,,3,,53,0
792,note_on,,0,0,0,,,4,,43,0
792,note_on,,0,0,0,,,5,,31,0
804,note_on,,12,0,0,,,0,,55,0
804,note_on,,0,0,0,,,0,,59,95
816,note_on,,12,0,0,,,0,,59,0
816,note_on,,0,0,0,,,0,,62,95
828,note_on,,12,0,0,,,0,,62,0
828,note_on,,0,0,0,,,0,,65,95
840,note_on,,12,0,0,,,0,,65,0
840,note_on,,0,0,0,,,0,,67,95
852,note_on,,12,0,0,,,0,,67,0
852,note_on,,0,0,0,,,0,,71,95
864,note_on,,12,0,0,,,0,,71,0
864,note_on,,0,0,0,,,0,,73,95
864,note_on,,0,0,0,,,1,,61,95
912,note_on,,48,0,0,,,0,,73,0
912,note_on,,0,0,0,,,0,,74,95
912,note_on,,0,0,0,,,1,,61,0
912,note_on,,0,0,0,,,1,,62,95
936,note_on,,24,0,0,,,0,,74,0
936,note_on,,0,0,0,,,0,,74,95
936,note_on,,0,0,0,,,1,,62,0
936,note_on,,0,0,0,,,1,,62,95
960,note_on,,24,0,0,,,0,,74,0
960,note_on,,0,0,0,,,0,,75,95
960,note_on,,0,0,0,,,1,,62,0
960,note_on,,0,0,0,,,1,,63,95
960,note_on,,0,0,0,,,2,,60,95
960,note_on,,0,0,0,,,3,,55,95
960,note_on,,0,0,0,,,4,,48,95
1008,note_on,,48,0,0,,,0,,75,0
1008,note_on,,0,0,0,,,0,,76,95
1008,note_on,,0,0,0,,,1,,63,0
1008,note_on,,0,0,0,,,2,,60,0
1008,note_on,,0,0,0,,,3,,55,0
1008,note_on,,0,0,0,,,4,,48,0
1008,note_on,,0,0,0,,,1,,64,95
1008,note_on,,0,0,0,,,2,,60,95
1008,note_on,,0,0,0,,,3,,55,95
1008,note_on,,0,0,0,,,4,,48,95
1056,note_on,,48,0,0,,,0,,76,0
1056,note_on,,0,0,0,,,1,,64,0
1056,note_on,,0,0,0,,,2,,60,0
1056,note_on,,0,0,0,,,3,,55,0
1056,note_on,,0,0,0,,,4,,48,0
1080,note_on,,24,0,0,,,0,,55,95
1092,note_on,,12,0,0,,,0,,55,0
1092,note_on,,0,0,0,,,0,,60,95
1104,note_on,,12,0,0,,,0,,60,0
1104,note_on,,0,0,0,,,0,,64,95
1116,note_on,,12,0,0,,,0,,64,0
1116,note_on,,0,0,0,,,0,,67,95
1128,note_on,,12,0,0,,,0,,67,0
1128,note_on,,0,0,0,,,0,,72,95
1140,note_on,,12,0,0,,,0,,72,0
1140,note_on,,0,0,0,,,0,,76,95
1152,note_on,,12,0,0,,,0,,76,0
1152,note_on,,0,0,0,,,0,,79,95
1152,note_on,,0,0,0,,,1,,76,95
1152,note_on,,0,0,0,,,2,,67,95
1152,note_on,,0,0,0,,,3,,48,95
1152,note_on,,0,0,0,,,4,,36,95
1200,note_on,,48,0,0,,,0,,79,0
1200,note_on,,0,0,0,,,0,,79,95
1200,note_on,,0,0,0,,,1,,76,0
1200,note_on,,0,0,0,,,2,,67,0
1200,note_on,,0,0,0,,,1,,76,95
1200,note_on,,0,0,0,,,2,,67,95
1224,note_on,,24,0,0,,,0,,79,0
1224,note_on,,0,0,0,,,0,,79,95
1224,note_on,,0,0,0,,,1,,76,0
1224,note_on,,0,0,0,,,2,,67,0
1224,note_on,,0,0,0,,,1,,76,95
1224,note_on,,0,0,0,,,2,,67,95
1248,note_on,,24,0,0,,,3,,48,0
1248,note_on,,0,0,0,,,0,,79,95
1248,note_on,,0,0,0,,,4,,36,0
1248,note_on,,0,0,0,,,0,,79,0
1248,note_on,,0,0,0,,,1,,76,0
1248,note_on,,0,0,0,,,2,,67,0
1248,note_on,,0,0,0,,,1,,74,95
1248,note_on,,0,0,0,,,2,,67,95
1248,note_on,,0,0,0,,,3,,47,95
1248,note_on,,0,0,0,,,4,,35,95
1296,note_on,,48,0,0,,,3,,47,0
1296,note_on,,0,0,0,,,4,,35,0
1296,note_on,,0,0,0,,,3,,59,95
1296,note_on,,0,0,0,,,4,,47,95
1320,note_on,,24,0,0,,,0,,79,0
1320,note_on,,0,0,0,,,0,,79,95
1320,note_on,,0,0,0,,,1,,74,0
1320,note_on,,0,0,0,,,2,,67,0
1320,note_on,,0,0,0,,,3,,59,0
1320,note_on,,0,0,0,,,4,,47,0
1320,note_on,,0,0,0,,,1,,74,95
1320,note_on,,0,0,0,,,2,,67,95
1320,note_on,,0,0,0,,,3,,59,95
1320,note_on,,0,0,0,,,4,,47,95
1344,note_on,,24,0,0,,,0,,79,0
1344,note_on,,0,0,0,,,0,,84,95
1344,note_on,,0,0,0,,,1,,74,0
1344,note_on,,0,0,0,,,2,,67,0
1344,note_on,,0,0,0,,,3,,59,0
1344,note_on,,0,0,0,,,4,,47,0
1344,note_on,,0,0,0,,,1,,79,95
1344,note_on,,0,0,0,,,2,,72,95
1344,note_on,,0,0,0,,,3,,57,95
1344,note_on,,0,0,0,,,4,,45,95
1392,note_on,,48,0,0,,,0,,84,0
1392,note_on,,0,0,0,,,0,,84,95
1392,note_on,,0,0,0,,,1,,79,0
1392,note_on,,0,0,0,,,2,,72,0
1392,note_on,,0,0,0,,,3,,57,0
1392,note_on,,0,0,0,,,4,,45,0
1392,note_on,,0,0,0,,,1,,78,95
1392,note_on,,0,0,0,,,2,,72,95
1392,note_on,,0,0,0,,,3,,50,95
1392,note_on,,0,0,0,,,4,,38,95
1416,note_on,,24,0,0,,,0,,84,0
1416,note_on,,0,0,0,,,0,,84,95
1416,note_on,,0,0,0,,,1,,78,0
1416,note_on,,0,0,0,,,2,,72,0
1416,note_on,,0,0,0,,,1,,78,95
1416,note_on,,0,0,0,,,2,,72,95
1440,note_on,,24,0,0,,,3,,50,0
1440,note_on,,0,0,0,,,0,,83,95
1440,note_on,,0,0,0,,,4,,38,0
1440,note_on,,0,0,0,,,0,,84,0
1440,note_on,,0,0,0,,,1,,78,0
1440,note_on,,0,0,0,,,2,,72,0
1440,note_on,,0,0,0,,,1,,79,95
1440,note_on,,0,0,0,,,2,,71,95
1440,note_on,,0,0,0,,,3,,55,95
1440,note_on,,0,0,0,,,4,,43,95
1464,note_on,,24,0,0,,,0,,83,0
1464,note_on,,0,0,0,,,0,,55,95
1464,note_on,,0,0,0,,,1,,79,0
1464,note_on,,0,0,0,,,2,,71,0
1464,note_on,,0,0,0,,,3,,55,0
1464,note_on,,0,0,0,,,4,,43,0
1476,note_on,,12,0,0,,,0,,55,0
1476,note_on,,0,0,0,,,0,,60,95
1488,note_on,,12,0,0,,,0,,60,0
1488,note_on,,0,0,0,,,0,,64,95
1500,note_on,,12,0,0,,,0,,64,0
1500,note_on,,0,0,0,,,0,,67,95
1512,note_on,,12,0,0,,,0,,67,0
1512,note_on,,0,0,0,,,0,,72,95
1524,note_on,,12,0,0,,,0,,72,0
1524,note_on,,0,0,0,,,0,,76,95
1536,note_on,,12,0,0,,,0,,76,0
1536,note_on,,0,0,0,,,0,,79,95
1536,note_on,,0,0,0,,,1,,76,95
1536,note_on,,0,0,0,,,2,,67,95
1536,note_on,,0,0,0,,,3,,48,95
1536,note_on,,0,0,0,,,4,,36,95
1584,note_on,,48,0,0,,,0,,79,0
1584,note_on,,0,0,0,,,0,,79,95
1584,note_on,,0,0,0,,,1,,76,0
1584,note_on,,0,0,0,,,2,,67,0
1584,note_on,,0,0,0,,,1,,76,95
1584,note_on,,0,0,0,,,2,,67,95
1608,note_on,,24,0,0,,,0,,79,0
1608,note_on,,0,0,0,,,0,,79,95
1608,note_on,,0,0,0,,,1,,76,0
1608,note_on,,0,0,0,,,2,,67,0
1608,note_on,,0,0,0,,,1,,76,95
1608,note_on,,0,0,0,,,2,,67,95
1632,note_on,,24,0,0,,,3,,48,0
1632,note_on,,0,0,0,,,0,,79,95
1632,note_on,,0,0,0,,,4,,36,0
1632,note_on,,0,0,0,,,0,,79,0
1632,note_on,,0,0,0,,,1,,76,0
1632,note_on,,0,0,0,,,2,,67,0
1632,note_on,,0,0,0,,,1,,74,95
1632,note_on,,0,0,0,,,2,,67,95
1632,note_on,,0,0,0,,,3,,47,95
1632,note_on,,0,0,0,,,4,,35,95
1680,note_on,,48,0,0,,,3,,47,0
1680,note_on,,0,0,0,,,4,,35,0
1680,note_on,,0,0,0,,,3,,59,95
1680,note_on,,0,0,0,,,4,,47,95
1704,note_on,,24,0,0,,,0,,79,0
1704,note_on,,0,0,0,,,0,,79,95
1704,note_on,,0,0,0,,,1,,74,0
1704,note_on,,0,0,0,,,2,,67,0
1704,note_on,,0,0,0,,,3,,59,0
1704,note_on,,0,0,0,,,4,,47,0
1704,note_on,,0,0,0,,,1,,74,95
1704,note_on,,0,0,0,,,2,,67,95
1704,note_on,,0,0,0,,,3,,59,95
1704,note_on,,0,0,0,,,4,,47,95
1728,note_on,,24,0,0,,,0,,79,0
1728,note_on,,0,0,0,,,0,,84,95
1728,note_on,,0,0,0,,,1,,74,0
1728,note_on,,0,0,0,,,2,,67,0
1728,note_on,,0,0,0,,,3,,59,0
1728,note_on,,0,0,0,,,4,,47,0
1728,note_on,,0,0,0,,,1,,79,95
1728,note_on,,0,0,0,,,2,,72,95
1728,note_on,,0,0,0,,,3,,57,95
1728,note_on,,0,0,0,,,4,,45,95
1776,note_on,,48,0,0,,,0,,84,0
1776,note_on,,0,0,0,,,0,,84,95
1776,note_on,,0,0,0,,,1,,79,0
1776,note_on,,0,0,0,,,2,,72,0
1776,note_on,,0,0,0,,,3,,57,0
1776,note_on,,0,0,0,,,4,,45,0
1776,note_on,,0,0,0,,,1,,78,95
1776,note_on,,0,0,0,,,2,,72,95
1776,note_on,,0,0,0,,,3,,50,95
1776,note_on,,0,0,0,,,4,,38,95
1800,note_on,,24,0,0,,,0,,84,0
1800,note_on,,0,0,0,,,0,,84,95
1800,note_on,,0,0,0,,,1,,78,0
1800,note_on,,0,0,0,,,2,,72,0
1800,note_on,,0,0,0,,,1,,78,95
1800,note_on,,0,0,0,,,2,,72,95
1824,note_on,,24,0,0,,,3,,50,0
1824,note_on,,0,0,0,,,0,,83,95
1824,note_on,,0,0,0,,,4,,38,0
1824,note_on,,0,0,0,,,0,,84,0
1824,note_on,,0,0,0,,,1,,78,0
1824,note_on,,0,0,0,,,2,,72,0
1824,note_on,,0,0,0,,,1,,79,95
1824,note_on,,0,0,0,,,2,,71,95
1824,note_on,,0,0,0,,,3,,55,95
1824,note_on,,0,0,0,,,4,,43,95
1848,note_on,,24,0,0,,,0,,83,0
1848,note_on,,0,0,0,,,0,,60,95
1848,note_on,,0,0,0,,,1,,79,0
1848,note_on,,0,0,0,,,2,,71,0
1848,note_on,,0,0,0,,,3,,55,0
1848,note_on,,0,0,0,,,4,,43,0
1860,note_on,,12,0,0,,,0,,60,0
1860,note_on,,0,0,0,,,0,,65,95
1872,note_on,,12,0,0,,,0,,65,0
1872,note_on,,0,0,0,,,0,,69,95
1884,note_on,,12,0,0,,,0,,69,0
1884,note_on,,0,0,0,,,0,,72,95
1896,note_on,,12,0,0,,,0,,72,0
1896,note_on,,0,0,0,,,0,,77,95
1908,note_on,,12,0,0,,,0,,77,0
1908,note_on,,0,0,0,,,0,,81,95
1920,note_on,,12,0,0,,,0,,81,0
1920,note_on,,0,0,0,,,0,,84,95
1920,note_on,,0,0,0,,,1,,81,95
1920,note_on,,0,0,0,,,2,,72,95
1920,note_on,,0,0,0,,,3,,53,95
1920,note_on,,0,0,0,,,4,,41,95
1968,note_on,,48,0,0,,,0,,84,0
1968,note_on,,0,0,0,,,0,,84,95
1968,note_on,,0,0,0,,,1,,81,0
1968,note_on,,0,0,0,,,2,,72,0
1968,note_on,,0,0,0,,,1,,81,95
1968,note_on,,0,0,0,,,2,,72,95
1992,note_on,,24,0,0,,,0,,84,0
1992,note_on,,0,0,0,,,0,,84,95
1992,note_on,,0,0,0,,,1,,81,0
1992,note_on,,0,0,0,,,2,,72,0
1992,note_on,,0,0,0,,,1,,81,95
1992,note_on,,0,0,0,,,2,,72,95
2016,note_on,,24,0,0,,,3,,53,0
2016,note_on,,0,0,0,,,0,,84,95
2016,note_on,,0,0,0,,,4,,41,0
2016,note_on,,0,0,0,,,0,,84,0
2016,note_on,,0,0,0,,,1,,81,0
2016,note_on,,0,0,0,,,2,,72,0
2016,note_on,,0,0,0,,,1,,79,95
2016,note_on,,0,0,0,,,2,,72,95
2016,note_on,,0,0,0,,,3,,52,95
2016,note_on,,0,0,0,,,4,,40,95
2064,note_on,,48,0,0,,,3,,52,0
2064,note_on,,0,0,0,,,4,,40,0
2064,note_on,,0,0,0,,,3,,64,95
2064,note_on,,0,0,0,,,4,,52,95
2088,note_on,,24,0,0,,,0,,84,0
2088,note_on,,0,0,0,,,0,,84,95
2088,note_on,,0,0,0,,,1,,79,0
2088,note_on,,0,0,0,,,2,,72,0
2088,note_on,,0,0,0,,,3,,64,0
2088,note_on,,0,0,0,,,4,,52,0
2088,note_on,,0,0,0,,,1,,79,95
2088,note_on,,0,0,0,,,2,,72,95
2088,note_on,,0,0,0,,,3,,64,95
2088,note_on,,0,0,0,,,4,,52,95
2112,note_on,,24,0,0,,,0,,84,0
2112,note_on,,0,0,0,,,0,,89,95
2112,note_on,,0,0,0,,,1,,79,0
2112,note_on,,0,0,0,,,2,,72,0
2112,note_on,,0,0,0,,,3,,64,0
2112,note_on,,0,0,0,,,4,,52,0
2112,note_on,,0,0,0,,,1,,83,95
2112,note_on,,0,0,0,,,2,,77,95
2112,note_on,,0,0,0,,,3,,62,95
2112,note_on,,0,0,0,,,4,,50,95
2160,note_on,,48,0,0,,,0,,89,0
2160,note_on,,0,0,0,,,0,,89,95
2160,note_on,,0,0,0,,,1,,83,0
2160,note_on,,0,0,0,,,2,,77,0
2160,note_on,,0,0,0,,,3,,62,0
2160,note_on,,0,0,0,,,4,,50,0
2160,note_on,,0,0,0,,,1,,83,95
2160,note_on,,0,0,0,,,2,,77,95
2160,note_on,,0,0,0,,,3,,55,95
2160,note_on,,0,0,0,,,4,,43,95
2184,note_on,,24,0,0,,,0,,89,0
2184,note_on,,0,0,0,,,0,,89,95
2184,note_on,,0,0,0,,,1,,83,0
2184,note_on,,0,0,0,,,2,,77,0
2184,note_on,,0,0,0,,,1,,83,95
2184,note_on,,0,0,0,,,2,,77,95
2208,note_on,,24,0,0,,,3,,55,0
2208,note_on,,0,0,0,,,0,,88,95
2208,note_on,,0,0,0,,,4,,43,0
2208,note_on,,0,0,0,,,0,,89,0
2208,note_on,,0,0,0,,,1,,83,0
2208,note_on,,0,0,0,,,2,,77,0
2208,note_on,,0,0,0,,,1,,84,95
2208,note_on,,0,0,0,,,2,,76,95
2208,note_on,,0,0,0,,,3,,60,95
2208,note_on,,0,0,0,,,4,,48,95
2256,note_on,,48,0,0,,,0,,88,0
2256,note_on,,0,0,0,,,0,,88,95
2256,note_on,,0,0,0,,,1,,84,0
2256,note_on,,0,0,0,,,2,,76,0
2256,note_on,,0,0,0,,,3,,60,0
2256,note_on,,0,0,0,,,4,,48,0
2256,note_on,,0,0,0,,,1,,81,95
2256,note_on,,0,0,0,,,2,,76,95
2256,note_on,,0,0,0,,,3,,53,95
2256,note_on,,0,0,0,,,4,,41,95
2280,note_on,,24,0,0,,,3,,53,0
2280,note_on,,0,0,0,,,4,,41,0
2280,note_on,,0,0,0,,,3,,53,95
2280,note_on,,0,0,0,,,4,,41,95
2304,note_on,,24,0,0,,,0,,88,0
2304,note_on,,0,0,0,,,0,,86,95
2304,note_on,,0,0,0,,,1,,81,0
2304,note_on,,0,0,0,,,2,,76,0
2304,note_on,,0,0,0,,,3,,53,0
2304,note_on,,0,0,0,,,4,,41,0
2304,note_on,,0,0,0,,,1,,81,95
2304,note_on,,0,0,0,,,2,,74,95
2304,note_on,,0,0,0,,,4,,59,95
2304,note_on,,0,0,0,,,5,,47,95
2352,note_on,,48,0,0,,,0,,86,0
2352,note_on,,0,0,0,,,0,,86,95
2352,note_on,,0,0,0,,,1,,81,0
2352,note_on,,0,0,0,,,2,,74,0
2352,note_on,,0,0,0,,,4,,59,0
2352,note_on,,0,0,0,,,5,,47,0
2352,note_on,,0,0,0,,,1,,80,95
2352,note_on,,0,0,0,,,2,,74,95
2352,note_on,,0,0,0,,,4,,52,95
2352,note_on,,0,0,0,,,5,,40,95
2376,note_on,,24,0,0,,,0,,86,0
2376,note_on,,0,0,0,,,0,,86,95
2376,note_on,,0,0,0,,,1,,80,0
2376,note_on,,0,0,0,,,2,,74,0
2376,note_on,,0,0,0,,,1,,80,95
2376,note_on,,0,0,0,,,2,,74,95
2400,note_on,,24,0,0,,,4,,52,0
2400,note_on,,0,0,0,,,0,,84,95
2400,note_on,,0,0,0,,,5,,40,0
2400,note_on,,0,0,0,,,0,,86,0
2400,note_on,,0,0,0,,,1,,80,0
2400,note_on,,0,0,0,,,2,,74,0
2400,note_on,,0,0,0,,,1,,81,95
2400,note_on,,0,0,0,,,2,,72,95
2400,note_on,,0,0,0,,,4,,57,95
2400,note_on,,0,0,0,,,5,,45,95
2448,note_on,,48,0,0,,,0,,84,0
2448,note_on,,0,0,0,,,0,,69,95
2448,note_on,,0,0,0,,,1,,81,0
2448,note_on,,0,0,0,,,2,,72,0
2448,note_on,,0,0,0,,,4,,57,0
2448,note_on,,0,0,0,,,5,,45,0
2448,note_on,,0,0,0,,,1,,64,95
2448,note_on,,0,0,0,,,2,,60,95
2448,note_on,,0,0,0,,,3,,57,95
2448,note_on,,0,0,0,,,4,,45,95
2448,note_on,,0,0,0,,,5,,33,95
2472,note_on,,24,0,0,,,4,,45,0
2472,note_on,,0,0,0,,,5,,33,0
2472,note_on,,0,0,0,,,4,,43,95
2472,note_on,,0,0,0,,,5,,31,95
2496,note_on,,24,0,0,,,0,,69,0
2496,note_on,,0,0,0,,,0,,64,95
2496,note_on,,0,0,0,,,1,,64,0
2496,note_on,,0,0,0,,,2,,60,0
2496,note_on,,0,0,0,,,3,,57,0
2496,note_on,,0,0,0,,,4,,43,0
2496,note_on,,0,0,0,,,5,,31,0
2496,note_on,,0,0,0,,,1,,57,95
2496,note_on,,0,0,0,,,2,,29,95
2508,note_on,,12,0,0,,,0,,64,0
2508,note_on,,0,0,0,,,0,,69,95
2508,note_on,,0,0,0,,,1,,57,0
2508,note_on,,0,0,0,,,2,,29,0
2508,note_on,,0,0,0,,,2,,41,95
2520,note_on,,12,0,0,,,0,,69,0
2520,note_on,,0,0,0,,,0,,64,95
2520,note_on,,0,0,0,,,2,,41,0
2520,note_on,,0,0,0,,,1,,57,95
2520,note_on,,0,0,0,,,2,,29,95
2532,note_on,,12,0,0,,,0,,64,0
2532,note_on,,0,0,0,,,0,,69,95
2532,note_on,,0,0,0,,,1,,57,0
2532,note_on,,0,0,0,,,2,,29,0
2532,note_on,,0,0,0,,,2,,41,95
2544,note_on,,12,0,0,,,0,,69,0
2544,note_on,,0,0,0,,,0,,64,95
2544,note_on,,0,0,0,,,2,,41,0
2544,note_on,,0,0,0,,,1,,57,95
2544,note_on,,0,0,0,,,2,,29,95
2556,note_on,,12,0,0,,,0,,64,0
2556,note_on,,0,0,0,,,0,,69,95
2556,note_on,,0,0,0,,,1,,57,0
2556,note_on,,0,0,0,,,2,,29,0
2556,note_on,,0,0,0,,,2,,41,95
2568,note_on,,12,0,0,,,0,,69,0
2568,note_on,,0,0,0,,,0,,64,95
2568,note_on,,0,0,0,,,2,,41,0
2568,note_on,,0,0,0,,,1,,57,95
2568,note_on,,0,0,0,,,2,,30,95
2580,note_on,,12,0,0,,,0,,64,0
2580,note_on,,0,0,0,,,0,,69,95
2580,note_on,,0,0,0,,,1,,57,0
2580,note_on,,0,0,0,,,2,,30,0
2580,note_on,,0,0,0,,,2,,42,95
2592,note_on,,12,0,0,,,0,,69,0
2592,note_on,,0,0,0,,,0,,64,95
2592,note_on,,0,0,0,,,2,,42,0
2592,note_on,,0,0,0,,,1,,57,95
2592,note_on,,0,0,0,,,2,,31,95
2604,note_on,,12,0,0,,,0,,64,0
2604,note_on,,0,0,0,,,0,,69,95
2604,note_on,,0,0,0,,,1,,57,0
2604,note_on,,0,0,0,,,2,,31,0
2604,note_on,,0,0,0,,,2,,43,95
2616,note_on,,12,0,0,,,0,,69,0
2616,note_on,,0,0,0,,,0,,64,95
2616,note_on,,0,0,0,,,2,,43,0
2616,note_on,,0,0,0,,,1,,57,95
2616,note_on,,0,0,0,,,2,,32,95
2628,note_on,,12,0,0,,,0,,64,0
2628,note_on,,0,0,0,,,0,,69,95
2628,note_on,,0,0,0,,,1,,57,0
2628,note_on,,0,0,0,,,2,,32,0
2628,note_on,,0,0,0,,,2,,44,95
2640,note_on,,12,0,0,,,0,,69,0
2640,note_on,,0,0,0,,,0,,64,95
2640,note_on,,0,0,0,,,2,,44,0
2640,note_on,,0,0,0,,,1,,57,95
2640,note_on,,0,0,0,,,2,,33,95
2652,note_on,,12,0,0,,,0,,64,0
2652,note_on,,0,0,0,,,0,,69,95
2652,note_on,,0,0,0,,,1,,57,0
2652,note_on,,0,0,0,,,2,,33,0
2652,note_on,,0,0,0,,,2,,45,95
2664,note_on,,12,0,0,,,0,,69,0
2664,note_on,,0,0,0,,,0,,64,95
2664,note_on,,0,0,0,,,2,,45,0
2664,note_on,,0,0,0,,,1,,57,95
2664,note_on,,0,0,0,,,2,,34,95
2676,note_on,,12,0,0,,,0,,64,0
2676,note_on,,0,0,0,,,0,,69,95
2676,note_on,,0,0,0,,,1,,57,0
2676,note_on,,0,0,0,,,2,,34,0
2676,note_on,,0,0,0,,,2,,46,95
2688,note_on,,12,0,0,,,0,,69,0
2688,note_on,,0,0,0,,,0,,63,95
2688,note_on,,0,0,0,,,2,,46,0
2688,note_on,,0,0,0,,,1,,57,95
2688,note_on,,0,0,0,,,2,,35,95
2700,note_on,,12,0,0,,,0,,63,0
2700,note_on,,0,0,0,,,0,,69,95
2700,note_on,,0,0,0,,,1,,57,0
2700,note_on,,0,0,0,,,2,,35,0
2700,note_on,,0,0,0,,,2,,47,95
2712,note_on,,12,0,0,,,0,,69,0
2712,note_on,,0,0,0,,,0,,63,95
2712,note_on,,0,0,0,,,2,,47,0
2712,note_on,,0,0,0,,,1,,57,95
2712,note_on,,0,0,0,,,2,,36,95
2724,note_on,,12,0,0,,,0,,63,0
2724,note_on,,0,0,0,,,0,,69,95
2724,note_on,,0,0,0,,,1,,57,0
2724,note_on,,0,0,0,,,2,,36,0
2724,note_on,,0,0,0,,,2,,48,95
2736,note_on,,12,0,0,,,0,,69,0
2736,note_on,,0,0,0,,,0,,63,95
2736,note_on,,0,0,0,,,2,,48,0
2736,note_on,,0,0,0,,,1,,57,95
2736,note_on,,0,0,0,,,2,,37,95
2748,note_on,,12,0,0,,,0,,63,0
2748,note_on,,0,0,0,,,0,,69,95
2748,note_on,,0,0,0,,,1,,57,0
2748,note_on,,0,0,0,,,2,,37,0
2748,note_on,,0,0,0,,,2,,49,95
2760,note_on,,12,0,0,,,0,,69,0
2760,note_on,,0,0,0,,,0,,63,95
2760,note_on,,0,0,0,,,2,,49,0
2760,note_on,,0,0,0,,,1,,57,95
2760,note_on,,0,0,0,,,2,,38,95
2772,note_on,,12,0,0,,,0,,63,0
2772,note_on,,0,0,0,,,0,,69,95
2772,note_on,,0,0,0,,,1,,57,0
2772,note_on,,0,0,0,,,2,,38,0
2772,note_on,,0,0,0,,,2,,50,95
2784,note_on,,12,0,0,,,0,,69,0
2784,note_on,,0,0,0,,,0,,63,95
2784,note_on,,0,0,0,,,2,,50,0
2784,note_on,,0,0,0,,,1,,57,95
2784,note_on,,0,0,0,,,2,,39,95
2796,note_on,,12,0,0,,,0,,63,0
2796,note_on,,0,0,0,,,0,,69,95
2796,note_on,,0,0,0,,,1,,57,0
2796,note_on,,0,0,0,,,2,,39,0
2796,note_on,,0,0,0,,,2,,51,95
2808,note_on,,12,0,0,,,0,,69,0
2808,note_on,,0,0,0,,,0,,63,95
2808,note_on,,0,0,0,,,2,,51,0
2808,note_on,,0,0,0,,,1,,57,95
2808,note_on,,0,0,0,,,2,,40,95
2820,note_on,,12,0,0,,,0,,63,0
2820,note_on,,0,0,0,,,0,,69,95
2820,note_on,,0,0,0,,,1,,57,0
2820,note_on,,0,0,0,,,2,,40,0
2820,note_on,,0,0,0,,,2,,52,95
2832,note_on,,12,0,0,,,0,,69,0
2832,note_on,,0,0,0,,,0,,63,95
2832,note_on,,0,0,0,,,2,,52,0
2832,note_on,,0,0,0,,,1,,57,95
2832,note_on,,0,0,0,,,2,,41,95
2844,note_on,,12,0,0,,,0,,63,0
2844,note_on,,0,0,0,,,0,,69,95
2844,note_on,,0,0,0,,,1,,57,0
2844,note_on,,0,0,0,,,2,,41,0
2844,note_on,,0,0,0,,,2,,53,95
2856,note_on,,12,0,0,,,0,,69,0
2856,note_on,,0,0,0,,,0,,63,95
2856,note_on,,0,0,0,,,2,,53,0
2856,note_on,,0,0,0,,,1,,57,95
2856,note_on,,0,0,0,,,2,,41,95
2868,note_on,,12,0,0,,,0,,63,0
2868,note_on,,0,0,0,,,0,,69,95
2868,note_on,,0,0,0,,,1,,57,0
2868,note_on,,0,0,0,,,2,,41,0
2868,note_on,,0,0,0,,,2,,53,95
2880,note_on,,12,0,0,,,0,,69,0
2880,note_on,,0,0,0,,,0,,69,95
2880,note_on,,0,0,0,,,2,,53,0
2880,note_on,,0,0,0,,,1,,63,95
2880,note_on,,0,0,0,,,2,,57,95
2880,note_on,,0,0,0,,,3,,53,95
2880,note_on,,0,0,0,,,4,,41,95
2904,note_on,,24,0,0,,,0,,69,0
2904,note_on,,0,0,0,,,0,,83,95
2904,note_on,,0,0,0,,,1,,63,0
2904,note_on,,0,0,0,,,2,,57,0
2904,note_on,,0,0,0,,,3,,53,0
2904,note_on,,0,0,0,,,4,,41,0
2904,note_on,,0,0,0,,,1,,81,95
2904,note_on,,0,0,0,,,2,,75,95
2904,note_on,,0,0,0,,,3,,71,95
2904,note_on,,0,0,0,,,4,,63,95
2904,note_on,,0,0,0,,,5,,59,95
2904,note_on,,0,0,0,,,6,,57,95
2904,note_on,,0,0,0,,,7,,53,95
2928,note_on,,24,0,0,,,0,,83,0
2928,note_on,,0,0,0,,,0,,83,95
2928,note_on,,0,0,0,,,1,,81,0
2928,note_on,,0,0,0,,,2,,75,0
2928,note_on,,0,0,0,,,3,,71,0
2928,note_on,,0,0,0,,,4,,63,0
2928,note_on,,0,0,0,,,5,,59,0
2928,note_on,,0,0,0,,,6,,57,0
2928,note_on,,0,0,0,,,7,,53,0
2928,note_on,,0,0,0,,,1,,81,95
2928,note_on,,0,0,0,,,2,,75,95
2928,note_on,,0,0,0,,,3,,71,95
2928,note_on,,0,0,0,,,4,,63,95
2928,note_on,,0,0,0,,,5,,59,95
2928,note_on,,0,0,0,,,6,,57,95
2928,note_on,,0,0,0,,,7,,53,95
2952,note_on,,24,0,0,,,0,,83,0
2952,note_on,,0,0,0,,,0,,83,95
2952,note_on,,0,0,0,,,1,,81,0
2952,note_on,,0,0,0,,,2,,75,0
2952,note_on,,0,0,0,,,3,,71,0
2952,note_on,,0,0,0,,,4,,63,0
2952,note_on,,0,0,0,,,5,,59,0
2952,note_on,,0,0,0,,,6,,57,0
2952,note_on,,0,0,0,,,7,,53,0
2952,note_on,,0,0,0,,,1,,81,95
2952,note_on,,0,0,0,,,2,,75,95
2952,note_on,,0,0,0,,,3,,71,95
2952,note_on,,0,0,0,,,4,,63,95
2952,note_on,,0,0,0,,,5,,59,95
2952,note_on,,0,0,0,,,6,,57,95
2952,note_on,,0,0,0,,,7,,53,95
2976,note_on,,24,0,0,,,0,,83,0
2976,note_on,,0,0,0,,,0,,83,95
2976,note_on,,0,0,0,,,1,,81,0
2976,note_on,,0,0,0,,,2,,75,0
2976,note_on,,0,0,0,,,3,,71,0
2976,note_on,,0,0,0,,,4,,63,0
2976,note_on,,0,0,0,,,5,,59,0
2976,note_on,,0,0,0,,,6,,57,0
2976,note_on,,0,0,0,,,7,,53,0
2976,note_on,,0,0,0,,,1,,81,95
2976,note_on,,0,0,0,,,2,,75,95
2976,note_on,,0,0,0,,,3,,71,95
2976,note_on,,0,0,0,,,4,,63,95
2976,note_on,,0,0,0,,,5,,59,95
2976,note_on,,0,0,0,,,6,,57,95
2976,note_on,,0,0,0,,,7,,53,95
3000,note_on,,24,0,0,,,0,,83,0
3000,note_on,,0,0,0,,,0,,83,95
3000,note_on,,0,0,0,,,1,,81,0
3000,note_on,,0,0,0,,,2,,75,0
3000,note_on,,0,0,0,,,3,,71,0
3000,note_on,,0,0,0,,,4,,63,0
3000,note_on,,0,0,0,,,5,,59,0
3000,note_on,,0,0,0,,,6,,57,0
3000,note_on,,0,0,0,,,7,,53,0
3000,note_on,,0,0,0,,,1,,81,95
3000,note_on,,0,0,0,,,2,,75,95
3000,note_on,,0,0,0,,,3,,71,95
3000,note_on,,0,0,0,,,4,,63,95
3000,note_on,,0,0,0,,,5,,59,95
3000,note_on,,0,0,0,,,6,,57,95
3000,note_on,,0,0,0,,,7,,53,95
3024,note_on,,24,0,0,,,0,,83,0
3024,note_on,,0,0,0,,,0,,83,95
3024,note_on,,0,0,0,,,1,,81,0
3024,note_on,,0,0,0,,,2,,75,0
3024,note_on,,0,0,0,,,3,,71,0
3024,note_on,,0,0,0,,,4,,63,0
3024,note_on,,0,0,0,,,5,,59,0
3024,note_on,,0,0,0,,,6,,57,0
3024,note_on,,0,0,0,,,7,,53,0
3024,note_on,,0,0,0,,,1,,81,95
3024,note_on,,0,0,0,,,2,,75,95
3024,note_on,,0,0,0,,,3,,71,95
3024,note_on,,0,0,0,,,4,,63,95
3024,note_on,,0,0,0,,,5,,59,95
3024,note_on,,0,0,0,,,6,,57,95
3024,note_on,,0,0,0,,,7,,53,95
3048,note_on,,24,0,0,,,0,,83,0
3048,note_on,,0,0,0,,,0,,83,95
3048,note_on,,0,0,0,,,1,,81,0
3048,note_on,,0,0,0,,,2,,75,0
3048,note_on,,0,0,0,,,3,,71,0
3048,note_on,,0,0,0,,,4,,63,0
3048,note_on,,0,0,0,,,5,,59,0
3048,note_on,,0,0,0,,,6,,57,0
3048,note_on,,0,0,0,,,7,,53,0
3048,note_on,,0,0,0,,,1,,81,95
3048,note_on,,0,0,0,,,2,,75,95
3048,note_on,,0,0,0,,,3,,71,95
3048,note_on,,0,0,0,,,4,,63,95
3048,note_on,,0,0,0,,,5,,59,95
3048,note_on,,0,0,0,,,6,,57,95
3048,note_on,,0,0,0,,,7,,53,95
3072,note_on,,24,0,0,,,0,,83,0
3072,note_on,,0,0,0,,,0,,83,95
3072,note_on,,0,0,0,,,1,,81,0
3072,note_on,,0,0,0,,,2,,75,0
3072,note_on,,0,0,0,,,3,,71,0
3072,note_on,,0,0,0,,,4,,63,0
3072,note_on,,0,0,0,,,5,,59,0
3072,note_on,,0,0,0,,,6,,57,0
3072,note_on,,0,0,0,,,7,,53,0
3072,note_on,,0,0,0,,,1,,80,95
3072,note_on,,0,0,0,,,2,,76,95
3072,note_on,,0,0,0,,,3,,71,95
3072,note_on,,0,0,0,,,4,,64,95
3072,note_on,,0,0,0,,,5,,59,95
3072,note_on,,0,0,0,,,6,,56,95
3072,note_on,,0,0,0,,,7,,52,95
3120,note_on,,48,0,0,,,0,,83,0
3120,note_on,,0,0,0,,,0,,88,95
3120,note_on,,0,0,0,,,1,,80,0
3120,note_on,,0,0,0,,,2,,76,0
3120,note_on,,0,0,0,,,3,,71,0
3120,note_on,,0,0,0,,,4,,64,0
3120,note_on,,0,0,0,,,5,,59,0
3120,note_on,,0,0,0,,,6,,56,0
3120,note_on,,0,0,0,,,7,,52,0
3120,note_on,,0,0,0,,,1,,83,95
3120,note_on,,0,0,0,,,2,,80,95
3120,note_on,,0,0,0,,,3,,76,95
3120,note_on,,0,0,0,,,4,,52,95
3120,note_on,,0,0,0,,,5,,47,95
3120,note_on,,0,0,0,,,6,,44,95
3120,note_on,,0,0,0,,,7,,40,95
3168,note_on,,48,0,0,,,0,,88,0
3168,note_on,,0,0,0,,,1,,83,0
3168,note_on,,0,0,0,,,2,,80,0
3168,note_on,,0,0,0,,,3,,76,0
3168,note_on,,0,0,0,,,4,,52,0
3168,note_on,,0,0,0,,,5,,47,0
3168,note_on,,0,0,0,,,6,,44,0
3168,note_on,,0,0,0,,,7,,40,0
3264,note_on,,96,0,0,,,0,,64,95
3264,note_on,,0,0,0,,,1,,60,95
3264,note_on,,0,0,0,,,2,,55,95
3264,note_on,,0,0,0,,,3,,52,95
3264,note_on,,0,0,0,,,4,,48,95
3264,note_on,,0,0,0,,,5,,43,95
3264,note_on,,0,0,0,,,6,,36,95
3312,note_on,,48,0,0,,,0,,64,0
3312,note_on,,0,0,0,,,0,,64,95
3312,note_on,,0,0,0,,,1,,60,0
3312,note_on,,0,0,0,,,2,,55,0
3312,note_on,,0,0,0,,,3,,52,0
3312,note_on,,0,0,0,,,4,,48,0
3312,note_on,,0,0,0,,,5,,43,0
3312,note_on,,0,0,0,,,6,,36,0
3312,note_on,,0,0,0,,,1,,60,95
3312,note_on,,0,0,0,,,2,,55,95
3312,note_on,,0,0,0,,,3,,52,95
3312,note_on,,0,0,0,,,4,,48,95
3312,note_on,,0,0,0,,,5,,43,95
3312,note_on,,0,0,0,,,6,,36,95
3336,note_on,,24,0,0,,,0,,64,0
3336,note_on,,0,0,0,,,0,,64,95
3336,note_on,,0,0,0,,,1,,60,0
3336,note_on,,0,0,0,,,2,,55,0
3336,note_on,,0,0,0,,,3,,52,0
3336,note_on,,0,0,0,,,4,,48,0
3336,note_on,,0,0,0,,,5,,43,0
3336,note_on,,0,0,0,,,6,,36,0
3336,note_on,,0,0,0,,,1,,60,95
3336,note_on,,0,0,0,,,2,,55,95
3336,note_on,,0,0,0,,,3,,52,95
3336,note_on,,0,0,0,,,4,,48,95
3336,note_on,,0,0,0,,,5,,43,95
3336,note_on,,0,0,0,,,6,,36,95
3360,note_on,,24,0,0,,,0,,64,0
3360,note_on,,0,0,0,,,0,,64,95
3360,note_on,,0,0,0,,,1,,60,0
3360,note_on,,0,0,0,,,2,,55,0
3360,note_on,,0,0,0,,,3,,52,0
3360,note_on,,0,0,0,,,4,,48,0
3360,note_on,,0,0,0,,,5,,43,0
3360,note_on,,0,0,0,,,6,,36,0
3360,note_on,,0,0,0,,,1,,60,95
3360,note_on,,0,0,0,,,2,,55,95
3360,note_on,,0,0,0,,,3,,52,95
3360,note_on,,0,0,0,,,4,,48,95
3360,note_on,,0,0,0,,,5,,43,95
3360,note_on,,0,0,0,,,6,,36,95
3408,note_on,,48,0,0,,,0,,64,0
3408,note_on,,0,0,0,,,0,,64,95
3408,note_on,,0,0,0,,,1,,60,0
3408,note_on,,0,0,0,,,2,,55,0
3408,note_on,,0,0,0,,,3,,52,0
3408,note_on,,0,0,0,,,4,,48,0
3408,note_on,,0,0,0,,,5,,43,0
3408,note_on,,0,0,0,,,6,,36,0
3408,note_on,,0,0,0,,,1,,60,95
3408,note_on,,0,0,0,,,2,,55,95
3408,note_on,,0,0,0,,,3,,52,95
3408,note_on,,0,0,0,,,4,,48,95
3408,note_on,,0,0,0,,,5,,43,95
3408,note_on,,0,0,0,,,6,,36,95
3432,note_on,,24,0,0,,,0,,64,0
3432,note_on,,0,0,0,,,0,,64,95
3432,note_on,,0,0,0,,,1,,60,0
3432,note_on,,0,0,0,,,2,,55,0
3432,note_on,,0,0,0,,,3,,52,0
3432,note_on,,0,0,0,,,4,,48,0
3432,note_on,,0,0,0,,,5,,43,0
3432,note_on,,0,0,0,,,6,,36,0
3432,note_on,,0,0,0,,,1,,60,95
3432,note_on,,0,0,0,,,2,,55,95
3432,note_on,,0,0,0,,,3,,52,95
3432,note_on,,0,0,0,,,4,,48,95
3432,note_on,,0,0,0,,,5,,43,95
3432,note_on,,0,0,0,,,6,,36,95
3456,note_on,,24,0,0,,,0,,64,0
3456,note_on,,0,0,0,,,0,,64,95
3456,note_on,,0,0,0,,,1,,60,0
3456,note_on,,0,0,0,,,2,,55,0
3456,note_on,,0,0,0,,,3,,52,0
3456,note_on,,0,0,0,,,4,,48,0
3456,note_on,,0,0,0,,,5,,43,0
3456,note_on,,0,0,0,,,6,,36,0
3456,note_on,,0,0,0,,,1,,60,95
3456,note_on,,0,0,0,,,2,,55,95
3456,note_on,,0,0,0,,,3,,52,95
3456,note_on,,0,0,0,,,4,,48,95
3456,note_on,,0,0,0,,,5,,43,95
3456,note_on,,0,0,0,,,6,,36,95
3480,note_on,,24,0,0,,,0,,64,0
3480,note_on,,0,0,0,,,0,,48,95
3480,note_on,,0,0,0,,,1,,60,0
3480,note_on,,0,0,0,,,2,,55,0
3480,note_on,,0,0,0,,,3,,52,0
3480,note_on,,0,0,0,,,4,,48,0
3480,note_on,,0,0,0,,,5,,43,0
3480,note_on,,0,0,0,,,6,,36,0
3492,note_on,,12,0,0,,,0,,48,0
3492,note_on,,0,0,0,,,0,,52,95
3504,note_on,,12,0,0,,,0,,52,0
3504,note_on,,0,0,0,,,0,,55,95
3516,note_on,,12,0,0,,,0,,55,0
3516,note_on,,0,0,0,,,0,,60,95
3528,note_on,,12,0,0,,,0,,60,0
3528,note_on,,0,0,0,,,0,,64,95
3540,note_on,,12,0,0,,,0,,64,0
3540,note_on,,0,0,0,,,0,,67,95
3552,note_on,,12,0,0,,,0,,67,0
3552,note_on,,0,0,0,,,0,,71,95
3552,note_on,,0,0,0,,,1,,59,95
3600,note_on,,48,0,0,,,0,,71,0
3600,note_on,,0,0,0,,,0,,72,95
3600,note_on,,0,0,0,,,1,,59,0
3600,note_on,,0,0,0,,,1,,60,95
3624,note_on,,24,0,0,,,0,,72,0
3624,note_on,,0,0,0,,,0,,72,95
3624,note_on,,0,0,0,,,1,,60,0
3624,note_on,,0,0,0,,,1,,60,95
3648,note_on,,24,0,0,,,0,,72,0
3648,note_on,,0,0,0,,,0,,73,95
3648,note_on,,0,0,0,,,1,,60,0
3648,note_on,,0,0,0,,,1,,71,95
3648,note_on,,0,0,0,,,2,,67,95
3648,note_on,,0,0,0,,,3,,65,95
3648,note_on,,0,0,0,,,4,,43,95
3648,note_on,,0,0,0,,,5,,31,95
3696,note_on,,48,0,0,,,0,,73,0
3696,note_on,,0,0,0,,,0,,74,95
3696,note_on,,0,0,0,,,1,,71,0
3696,note_on,,0,0,0,,,2,,67,0
3696,note_on,,0,0,0,,,3,,65,0
3696,note_on,,0,0,0,,,4,,43,0
3696,note_on,,0,0,0,,,5,,31,0
3696,note_on,,0,0,0,,,1,,71,95
3696,note_on,,0,0,0,,,2,,67,95
3696,note_on,,0,0,0,,,3,,65,95
3696,note_on,,0,0,0,,,4,,55,95
3696,note_on,,0,0,0,,,5,,43,95
3744,note_on,,48,0,0,,,0,,74,0
3744,note_on,,0,0,0,,,0,,86,95
3744,note_on,,0,0,0,,,1,,71,0
3744,note_on,,0,0,0,,,2,,67,0
3744,note_on,,0,0,0,,,3,,65,0
3744,note_on,,0,0,0,,,4,,55,0
3744,note_on,,0,0,0,,,5,,43,0
3744,note_on,,0,0,0,,,1,,83,95
3744,note_on,,0,0,0,,,2,,79,95
3744,note_on,,0,0,0,,,3,,77,95
3744,note_on,,0,0,0,,,4,,74,95
3744,note_on,,0,0,0,,,5,,71,95
3744,note_on,,0,0,0,,,6,,67,95
3840,note_on,,96,0,0,,,0,,86,0
3840,note_on,,0,0,0,,,0,,62,95
3840,note_on,,0,0,0,,,1,,83,0
3840,note_on,,0,0,0,,,2,,79,0
3840,note_on,,0,0,0,,,3,,77,0
3840,note_on,,0,0,0,,,4,,74,0
3840,note_on,,0,0,0,,,5,,71,0
3840,note_on,,0,0,0,,,6,,67,0
3840,note_on,,0,0,0,,,1,,59,95
3840,note_on,,0,0,0,,,2,,55,95
3840,note_on,,0,0,0,,,3,,53,95
3840,note_on,,0,0,0,,,4,,43,95
3840,note_on,,0,0,0,,,5,,31,95
3888,note_on,,48,0,0,,,0,,62,0
3888,note_on,,0,0,0,,,0,,62,95
3888,note_on,,0,0,0,,,1,,59,0
3888,note_on,,0,0,0,,,2,,55,0
3888,note_on,,0,0,0,,,3,,53,0
3888,note_on,,0,0,0,,,4,,43,0
3888,note_on,,0,0,0,,,5,,31,0
3888,note_on,,0,0,0,,,1,,59,95
3888,note_on,,0,0,0,,,2,,55,95
3888,note_on,,0,0,0,,,3,,53,95
3888,note_on,,0,0,0,,,4,,43,95
3888,note_on,,0,0,0,,,5,,31,95
3912,note_on,,24,0,0,,,0,,62,0
3912,note_on,,0,0,0,,,0,,62,95
3912,note_on,,0,0,0,,,1,,59,0
3912,note_on,,0,0,0,,,2,,55,0
3912,note_on,,0,0,0,,,3,,53,0
3912,note_on,,0,0,0,,,4,,43,0
3912,note_on,,0,0,0,,,5,,31,0
3912,note_on,,0,0,0,,,1,,59,95
3912,note_on,,0,0,0,,,2,,55,95
3912,note_on,,0,0,0,,,3,,53,95
3912,note_on,,0,0,0,,,4,,43,95
3912,note_on,,0,0,0,,,5,,31,95
3936,note_on,,24,0,0,,,0,,62,0
3936,note_on,,0,0,0,,,0,,62,95
3936,note_on,,0,0,0,,,1,,59,0
3936,note_on,,0,0,0,,,2,,55,0
3936,note_on,,0,0,0,,,3,,53,0
3936,note_on,,0,0,0,,,4,,43,0
3936,note_on,,0,0,0,,,5,,31,0
3936,note_on,,0,0,0,,,1,,59,95
3936,note_on,,0,0,0,,,2,,55,95
3936,note_on,,0,0,0,,,3,,53,95
3936,note_on,,0,0,0,,,4,,43,95
3936,note_on,,0,0,0,,,5,,31,95
3984,note_on,,48,0,0,,,0,,62,0
3984,note_on,,0,0,0,,,0,,62,95
3984,note_on,,0,0,0,,,1,,59,0
3984,note_on,,0,0,0,,,2,,55,0
3984,note_on,,0,0,0,,,3,,53,0
3984,note_on,,0,0,0,,,4,,43,0
3984,note_on,,0,0,0,,,5,,31,0
3984,note_on,,0,0,0,,,1,,59,95
3984,note_on,,0,0,0,,,2,,55,95
3984,note_on,,0,0,0,,,3,,53,95
3984,note_on,,0,0,0,,,4,,43,95
3984,note_on,,0,0,0,,,5,,31,95
4008,note_on,,24,0,0,,,0,,62,0
4008,note_on,,0,0,0,,,0,,62,95
4008,note_on,,0,0,0,,,1,,59,0
4008,note_on,,0,0,0,,,2,,55,0
4008,note_on,,0,0,0,,,3,,53,0
4008,note_on,,0,0,0,,,4,,43,0
4008,note_on,,0,0,0,,,5,,31,0
4008,note_on,,0,0,0,,,1,,59,95
4008,note_on,,0,0,0,,,2,,55,95
4008,note_on,,0,0,0,,,3,,53,95
4008,note_on,,0,0,0,,,4,,43,95
4008,note_on,,0,0,0,,,5,,31,95
4032,note_on,,24,0,0,,,0,,62,0
4032,note_on,,0,0,0,,,0,,62,95
4032,note_on,,0,0,0,,,1,,59,0
4032,note_on,,0,0,0,,,2,,55,0
4032,note_on,,0,0,0,,,3,,53,0
4032,note_on,,0,0,0,,,4,,43,0
4032,note_on,,0,0,0,,,5,,31,0
4032,note_on,,0,0,0,,,1,,59,95
4032,note_on,,0,0,0,,,2,,55,95
4032,note_on,,0,0,0,,,3,,53,95
4032,note_on,,0,0,0,,,4,,43,95
4032,note_on,,0,0,0,,,5,,31,95
4056,note_on,,24,0,0,,,0,,62,0
4056,note_on,,0,0,0,,,0,,55,95
4056,note_on,,0,0,0,,,1,,59,0
4056,note_on,,0,0,0,,,2,,55,0
4056,note_on,,0,0,0,,,3,,53,0
4056,note_on,,0,0,0,,,4,,43,0
4056,note_on,,0,0,0,,,5,,31,0
4068,note_on,,12,0,0,,,0,,55,0
4068,note_on,,0,0,0,,,0,,59,95
4080,note_on,,12,0,0,,,0,,59,0
4080,note_on,,0,0,0,,,0,,62,95
4092,note_on,,12,0,0,,,0,,62,0
4092,note_on,,0,0,0,,,0,,65,95
4104,note_on,,12,0,0,,,0,,65,0
4104,note_on,,0,0,0,,,0,,67,95
4116,note_on,,12,0,0,,,0,,67,0
4116,note_on,,0,0,0,,,0,,71,95
4128,note_on,,12,0,0,,,0,,71,0
4128,note_on,,0,0,0,,,0,,73,95
4128,note_on,,0,0,0,,,1,,61,95
4176,note_on,,48,0,0,,,0,,73,0
4176,note_on,,0,0,0,,,0,,74,95
4176,note_on,,0,0,0,,,1,,61,0
4176,note_on,,0,0,0,,,1,,62,95
4200,note_on,,24,0,0,,,0,,74,0
4200,note_on,,0,0,0,,,0,,74,95
4200,note_on,,0,0,0,,,1,,62,0
4200,note_on,,0,0,0,,,1,,62,95
4224,note_on,,24,0,0,,,0,,74,0
4224,note_on,,0,0,0,,,0,,75,95
4224,note_on,,0,0,0,,,1,,62,0
4224,note_on,,0,0,0,,,1,,72,95
4224,note_on,,0,0,0,,,2,,67,95
4224,note_on,,0,0,0,,,3,,63,95
4224,note_on,,0,0,0,,,4,,48,95
4224,note_on,,0,0,0,,,5,,43,95
4224,note_on,,0,0,0,,,6,,36,95
4272,note_on,,48,0,0,,,0,,75,0
4272,note_on,,0,0,0,,,0,,76,95
4272,note_on,,0,0,0,,,1,,72,0
4272,note_on,,0,0,0,,,2,,67,0
4272,note_on,,0,0,0,,,3,,63,0
4272,note_on,,0,0,0,,,4,,48,0
4272,note_on,,0,0,0,,,5,,43,0
4272,note_on,,0,0,0,,,6,,36,0
4272,note_on,,0,0,0,,,1,,72,95
4272,note_on,,0,0,0,,,2,,67,95
4272,note_on,,0,0,0,,,3,,64,95
4272,note_on,,0,0,0,,,4,,60,95
4272,note_on,,0,0,0,,,5,,55,95
4272,note_on,,0,0,0,,,6,,48,95
4320,note_on,,48,0,0,,,0,,76,0
4320,note_on,,0,0,0,,,0,,88,95
4320,note_on,,0,0,0,,,1,,72,0
4320,note_on,,0,0,0,,,2,,67,0
4320,note_on,,0,0,0,,,3,,64,0
4320,note_on,,0,0,0,,,4,,60,0
4320,note_on,,0,0,0,,,5,,55,0
4320,note_on,,0,0,0,,,6,,48,0
4320,note_on,,0,0,0,,,1,,84,95
4320,note_on,,0,0,0,,,2,,79,95
4320,note_on,,0,0,0,,,3,,76,95
4320,note_on,,0,0,0,,,4,,72,95
4320,note_on,,0,0,0,,,5,,67,95
4320,note_on,,0,0,0,,,6,,60,95
4416,note_on,,96,0,0,,,0,,88,0
4416,note_on,,0,0,0,,,1,,84,0
4416,note_on,,0,0,0,,,2,,79,0
4416,note_on,,0,0,0,,,3,,76,0
4416,note_on,,0,0,0,,,4,,72,0
4416,note_on,,0,0,0,,,5,,67,0
4416,note_on,,0,0,0,,,6,,60,0
4440,note_on,,24,0,0,,,0,,55,95
4452,note_on,,12,0,0,,,0,,55,0
4452,note_on,,0,0,0,,,0,,60,95
4464,note_on,,12,0,0,,,0,,60,0
4464,note_on,,0,0,0,,,0,,64,95
4476,note_on,,12,0,0,,,0,,64,0
4476,note_on,,0,0,0,,,0,,67,95
4488,note_on,,12,0,0,,,0,,67,0
4488,note_on,,0,0,0,,,0,,72,95
4500,note_on,,12,0,0,,,0,,72,0
4500,note_on,,0,0,0,,,0,,76,95
4512,note_on,,12,0,0,,,0,,76,0
4512,note_on,,0,0,0,,,0,,79,95
4512,note_on,,0,0,0,,,1,,72,95
4512,note_on,,0,0,0,,,2,,67,95
4512,note_on,,0,0,0,,,3,,45,95
4512,note_on,,0,0,0,,,4,,33,95
4560,note_on,,48,0,0,,,0,,79,0
4560,note_on,,0,0,0,,,0,,77,95
4560,note_on,,0,0,0,,,1,,72,0
4560,note_on,,0,0,0,,,2,,67,0
4560,note_on,,0,0,0,,,3,,45,0
4560,note_on,,0,0,0,,,4,,33,0
4560,note_on,,0,0,0,,,1,,72,95
4560,note_on,,0,0,0,,,2,,65,95
4560,note_on,,0,0,0,,,3,,60,95
4560,note_on,,0,0,0,,,4,,57,95
4608,note_on,,48,0,0,,,0,,77,0
4608,note_on,,0,0,0,,,0,,84,95
4608,note_on,,0,0,0,,,1,,72,0
4608,note_on,,0,0,0,,,2,,65,0
4608,note_on,,0,0,0,,,3,,60,0
4608,note_on,,0,0,0,,,4,,57,0
4608,note_on,,0,0,0,,,1,,77,95
4608,note_on,,0,0,0,,,2,,72,95
4608,note_on,,0,0,0,,,3,,69,95
4704,note_on,,96,0,0,,,0,,84,0
4704,note_on,,0,0,0,,,1,,77,0
4704,note_on,,0,0,0,,,2,,72,0
4704,note_on,,0,0,0,,,3,,69,0
4728,note_on,,24,0,0,,,0,,57,95
4740,note_on,,12,0,0,,,0,,57,0
4740,note_on,,0,0,0,,,0,,60,95
4752,note_on,,12,0,0,,,0,,60,0
4752,note_on,,0,0,0,,,0,,65,95
4764,note_on,,12,0,0,,,0,,65,0
4764,note_on,,0,0,0,,,0,,69,95
4776,note_on,,12,0,0,,,0,,69,0
4776,note_on,,0,0,0,,,0,,72,95
4788,note_on,,12,0,0,,,0,,72,0
4788,note_on,,0,0,0,,,0,,77,95
4800,note_on,,12,0,0,,,0,,77,0
4800,note_on,,0,0,0,,,0,,81,95
4800,note_on,,0,0,0,,,1,,72,95
4800,note_on,,0,0,0,,,2,,69,95
4800,note_on,,0,0,0,,,3,,52,95
4800,note_on,,0,0,0,,,4,,40,95
4848,note_on,,48,0,0,,,0,,81,0
4848,note_on,,0,0,0,,,0,,79,95
4848,note_on,,0,0,0,,,1,,72,0
4848,note_on,,0,0,0,,,2,,69,0
4848,note_on,,0,0,0,,,3,,52,0
4848,note_on,,0,0,0,,,4,,40,0
4848,note_on,,0,0,0,,,1,,72,95
4848,note_on,,0,0,0,,,2,,67,95
4848,note_on,,0,0,0,,,3,,55,95
4848,note_on,,0,0,0,,,4,,52,95
4896,note_on,,48,0,0,,,0,,79,0
4896,note_on,,0,0,0,,,0,,84,95
4896,note_on,,0,0,0,,,1,,72,0
4896,note_on,,0,0,0,,,2,,67,0
4896,note_on,,0,0,0,,,3,,55,0
4896,note_on,,0,0,0,,,4,,52,0
4896,note_on,,0,0,0,,,1,,79,95
4896,note_on,,0,0,0,,,2,,72,95
4896,note_on,,0,0,0,,,3,,67,95
4896,note_on,,0,0,0,,,4,,64,95
5088,note_on,,192,0,0,,,0,,84,0
5088,note_on,,0,0,0,,,1,,79,0
5088,note_on,,0,0,0,,,2,,72,0
5088,note_on,,0,0,0,,,3,,67,0
5088,note_on,,0,0,0,,,4,,64,0
5112,note_on,,24,0,0,,,0,,60,95
5124,note_on,,12,0,0,,,0,,60,0
5124,note_on,,0,0,0,,,0,,64,95
5136,note_on,,12,0,0,,,0,,64,0
5136,note_on,,0,0,0,,,0,,67,95
5148,note_on,,12,0,0,,,0,,67,0
5148,note_on,,0,0,0,,,0,,72,95
5160,note_on,,12,0,0,,,0,,72,0
5160,note_on,,0,0,0,,,0,,76,95
5172,note_on,,12,0,0,,,0,,76,0
5172,note_on,,0,0,0,,,0,,79,95
5184,note_on,,12,0,0,,,0,,79,0
5184,note_on,,0,0,0,,,0,,84,95
5184,note_on,,0,0,0,,,1,,80,95
5184,note_on,,0,0,0,,,2,,77,95
5184,note_on,,0,0,0,,,4,,72,95
5184,note_on,,0,0,0,,,5,,68,95
5184,note_on,,0,0,0,,,6,,65,95
5184,note_on,,0,0,0,,,7,,60,95
5184,note_on,,0,0,0,,,8,,53,95
5208,note_on,,24,0,0,,,3,,38,95
5220,note_on,,12,0,0,,,3,,38,0
5220,note_on,,0,0,0,,,3,,41,95
5232,note_on,,12,0,0,,,3,,41,0
5232,note_on,,0,0,0,,,3,,44,95
5244,note_on,,12,0,0,,,3,,44,0
5244,note_on,,0,0,0,,,3,,50,95
5256,note_on,,12,0,0,,,3,,50,0
5256,note_on,,0,0,0,,,3,,53,95
5268,note_on,,12,0,0,,,3,,53,0
5268,note_on,,0,0,0,,,3,,56,95
5280,note_on,,12,0,0,,,0,,84,0
5280,note_on,,0,0,0,,,0,,83,95
5280,note_on,,0,0,0,,,1,,80,0
5280,note_on,,0,0,0,,,2,,77,0
5280,note_on,,0,0,0,,,4,,72,0
5280,note_on,,0,0,0,,,5,,68,0
5280,note_on,,0,0,0,,,7,,60,0
5280,note_on,,0,0,0,,,3,,56,0
5280,note_on,,0,0,0,,,1,,79,95
5280,note_on,,0,0,0,,,2,,77,95
5280,note_on,,0,0,0,,,3,,62,95
5280,note_on,,0,0,0,,,4,,55,95
5280,note_on,,0,0,0,,,5,,71,95
5280,note_on,,0,0,0,,,7,,50,95
5376,note_on,,96,0,0,,,6,,65,0
5376,note_on,,0,0,0,,,0,,84,95
5376,note_on,,0,0,0,,,8,,53,0
5376,note_on,,0,0,0,,,0,,83,0
5376,note_on,,0,0,0,,,1,,79,0
5376,note_on,,0,0,0,,,2,,77,0
5376,note_on,,0,0,0,,,3,,62,0
5376,note_on,,0,0,0,,,4,,55,0
5376,note_on,,0,0,0,,,5,,71,0
5376,note_on,,0,0,0,,,7,,50,0
5376,note_on,,0,0,0,,,1,,79,95
5376,note_on,,0,0,0,,,2,,72,95
5376,note_on,,0,0,0,,,3,,64,95
5376,note_on,,0,0,0,,,4,,52,95
5376,note_on,,0,0,0,,,5,,67,95
5376,note_on,,0,0,0,,,6,,60,95
5376,note_on,,0,0,0,,,7,,55,95
5376,note_on,,0,0,0,,,8,,52,95
5424,note_on,,48,0,0,,,0,,84,0
5424,note_on,,0,0,0,,,0,,88,95
5424,note_on,,0,0,0,,,1,,79,0
5424,note_on,,0,0,0,,,2,,72,0
5424,note_on,,0,0,0,,,3,,64,0
5424,note_on,,0,0,0,,,4,,52,0
5424,note_on,,0,0,0,,,5,,67,0
5424,note_on,,0,0,0,,,6,,60,0
5424,note_on,,0,0,0,,,7,,55,0
5424,note_on,,0,0,0,,,8,,52,0
5424,note_on,,0,0,0,,,1,,81,95
5424,note_on,,0,0,0,,,2,,78,95
5424,note_on,,0,0,0,,,3,,60,95
5424,note_on,,0,0,0,,,4,,48,95
5424,note_on,,0,0,0,,,5,,76,95
5424,note_on,,0,0,0,,,6,,69,95
5424,note_on,,0,0,0,,,7,,66,95
5424,note_on,,0,0,0,,,8,,57,95
5472,note_on,,48,0,0,,,0,,88,0
5472,note_on,,0,0,0,,,0,,86,95
5472,note_on,,0,0,0,,,1,,81,0
5472,note_on,,0,0,0,,,2,,78,0
5472,note_on,,0,0,0,,,3,,60,0
5472,note_on,,0,0,0,,,4,,48,0
5472,note_on,,0,0,0,,,5,,76,0
5472,note_on,,0,0,0,,,6,,69,0
5472,note_on,,0,0,0,,,7,,66,0
5472,note_on,,0,0,0,,,8,,57,0
5472,note_on,,0,0,0,,,1,,83,95
5472,note_on,,0,0,0,,,2,,79,95
5472,note_on,,0,0,0,,,4,,74,95
5472,note_on,,0,0,0,,,5,,71,95
5472,note_on,,0,0,0,,,6,,67,95
5472,note_on,,0,0,0,,,8,,50,95
5476,note_on,,4,0,0,,,3,,55,95
5480,note_on,,4,0,0,,,7,,59,95
5496,note_on,,16,0,0,,,0,,86,0
5496,note_on,,0,0,0,,,0,,62,95
5496,note_on,,0,0,0,,,1,,83,0
5496,note_on,,0,0,0,,,2,,79,0
5496,note_on,,0,0,0,,,3,,55,0
5508,note_on,,12,0,0,,,0,,62,0
5508,note_on,,0,0,0,,,0,,67,95
5520,note_on,,12,0,0,,,4,,74,0
5520,note_on,,0,0,0,,,0,,71,95
5520,note_on,,0,0,0,,,5,,71,0
5520,note_on,,0,0,0,,,6,,67,0
5520,note_on,,0,0,0,,,8,,50,0
5520,note_on,,0,0,0,,,7,,59,0
5520,note_on,,0,0,0,,,0,,67,0
5532,note_on,,12,0,0,,,0,,71,0
5532,note_on,,0,0,0,,,0,,74,95
5544,note_on,,12,0,0,,,0,,74,0
5544,note_on,,0,0,0,,,0,,79,95
5556,note_on,,12,0,0,,,0,,79,0
5556,note_on,,0,0,0,,,0,,83,95
5568,note_on,,12,0,0,,,0,,83,0
5568,note_on,,0,0,0,,,0,,84,95
5568,note_on,,0,0,0,,,1,,80,95
5568,note_on,,0,0,0,,,2,,77,95
5568,note_on,,0,0,0,,,4,,72,95
5568,note_on,,0,0,0,,,5,,68,95
5568,note_on,,0,0,0,,,6,,65,95
5568,note_on,,0,0,0,,,7,,60,95
5568,note_on,,0,0,0,,,8,,53,95
5592,note_on,,24,0,0,,,3,,38,95
5604,note_on,,12,0,0,,,3,,38,0
5604,note_on,,0,0,0,,,3,,41,95
5616,note_on,,12,0,0,,,3,,41,0
5616,note_on,,0,0,0,,,3,,44,95
5628,note_on,,12,0,0,,,3,,44,0
5628,note_on,,0,0,0,,,3,,50,95
5640,note_on,,12,0,0,,,3,,50,0
5640,note_on,,0,0,0,,,3,,53,95
5652,note_on,,12,0,0,,,3,,53,0
5652,note_on,,0,0,0,,,3,,56,95
5664,note_on,,12,0,0,,,0,,84,0
5664,note_on,,0,0,0,,,0,,83,95
5664,note_on,,0,0,0,,,1,,80,0
5664,note_on,,0,0,0,,,2,,77,0
5664,note_on,,0,0,0,,,4,,72,0
5664,note_on,,0,0,0,,,5,,68,0
5664,note_on,,0,0,0,,,7,,60,0
5664,note_on,,0,0,0,,,3,,56,0
5664,note_on,,0,0,0,,,1,,79,95
5664,note_on,,0,0,0,,,2,,77,95
5664,note_on,,0,0,0,,,3,,62,95
5664,note_on,,0,0,0,,,4,,55,95
5664,note_on,,0,0,0,,,5,,71,95
5664,note_on,,0,0,0,,,7,,50,95
5760,note_on,,96,0,0,,,6,,65,0
5760,note_on,,0,0,0,,,0,,84,95
5760,note_on,,0,0,0,,,8,,53,0
5760,note_on,,0,0,0,,,0,,83,0
5760,note_on,,0,0,0,,,1,,79,0
5760,note_on,,0,0,0,,,2,,77,0
5760,note_on,,0,0,0,,,3,,62,0
5760,note_on,,0,0,0,,,4,,55,0
5760,note_on,,0,0,0,,,5,,71,0
5760,note_on,,0,0,0,,,7,,50,0
5760,note_on,,0,0,0,,,1,,79,95
5760,note_on,,0,0,0,,,2,,72,95
5760,note_on,,0,0,0,,,3,,64,95
5760,note_on,,0,0,0,,,4,,52,95
5760,note_on,,0,0,0,,,5,,67,95
5760,note_on,,0,0,0,,,6,,60,95
5760,note_on,,0,0,0,,,7,,55,95
5760,note_on,,0,0,0,,,8,,52,95
5808,note_on,,48,0,0,,,0,,84,0
5808,note_on,,0,0,0,,,0,,88,95
5808,note_on,,0,0,0,,,1,,79,0
5808,note_on,,0,0,0,,,2,,72,0
5808,note_on,,0,0,0,,,3,,64,0
5808,note_on,,0,0,0,,,4,,52,0
5808,note_on,,0,0,0,,,5,,67,0
5808,note_on,,0,0,0,,,6,,60,0
5808,note_on,,0,0,0,,,7,,55,0
5808,note_on,,0,0,0,,,8,,52,0
5808,note_on,,0,0,0,,,1,,81,95
5808,note_on,,0,0,0,,,2,,78,95
5808,note_on,,0,0,0,,,3,,60,95
5808,note_on,,0,0,0,,,4,,48,95
5808,note_on,,0,0,0,,,5,,76,95
5808,note_on,,0,0,0,,,6,,69,95
5808,note_on,,0,0,0,,,7,,66,95
5808,note_on,,0,0,0,,,8,,57,95
5856,note_on,,48,0,0,,,0,,88,0
5856,note_on,,0,0,0,,,0,,86,95
5856,note_on,,0,0,0,,,1,,81,0
5856,note_on,,0,0,0,,,2,,78,0
5856,note_on,,0,0,0,,,3,,60,0
5856,note_on,,0,0,0,,,4,,48,0
5856,note_on,,0,0,0,,,5,,76,0
5856,note_on,,0,0,0,,,6,,69,0
5856,note_on,,0,0,0,,,7,,66,0
5856,note_on,,0,0,0,,,8,,57,0
5856,note_on,,0,0,0,,,1,,83,95
5856,note_on,,0,0,0,,,2,,79,95
5856,note_on,,0,0,0,,,3,,55,95
5856,note_on,,0,0,0,,,4,,74,95
5856,note_on,,0,0,0,,,5,,71,95
5856,note_on,,0,0,0,,,6,,67,95
5856,note_on,,0,0,0,,,7,,59,95
5856,note_on,,0,0,0,,,8,,50,95
5880,note_on,,24,0,0,,,0,,86,0
5880,note_on,,0,0,0,,,0,,67,95
5880,note_on,,0,0,0,,,1,,83,0
5880,note_on,,0,0,0,,,2,,79,0
5880,note_on,,0,0,0,,,3,,55,0
5892,note_on,,12,0,0,,,0,,67,0
5892,note_on,,0,0,0,,,0,,71,95
5904,note_on,,12,0,0,,,4,,74,0
5904,note_on,,0,0,0,,,0,,74,95
5904,note_on,,0,0,0,,,5,,71,0
5904,note_on,,0,0,0,,,6,,67,0
5904,note_on,,0,0,0,,,7,,59,0
5904,note_on,,0,0,0,,,8,,50,0
5904,note_on,,0,0,0,,,0,,71,0
5916,note_on,,12,0,0,,,0,,74,0
5916,note_on,,0,0,0,,,0,,79,95
5928,note_on,,12,0,0,,,0,,79,0
5928,note_on,,0,0,0,,,0,,83,95
5940,note_on,,12,0,0,,,0,,83,0
5940,note_on,,0,0,0,,,0,,86,95
5952,note_on,,12,0,0,,,0,,86,0
5952,note_on,,0,0,0,,,0,,91,95
5952,note_on,,0,0,0,,,1,,85,95
5952,note_on,,0,0,0,,,2,,82,95
5952,note_on,,0,0,0,,,3,,40,95
5952,note_on,,0,0,0,,,4,,91,95
5952,note_on,,0,0,0,,,5,,85,95
5952,note_on,,0,0,0,,,6,,82,95
5952,note_on,,0,0,0,,,7,,67,95
5952,note_on,,0,0,0,,,8,,55,95
5964,note_on,,12,0,0,,,3,,40,0
5964,note_on,,0,0,0,,,3,,52,95
5976,note_on,,12,0,0,,,3,,52,0
5976,note_on,,0,0,0,,,3,,55,95
5988,note_on,,12,0,0,,,3,,55,0
5988,note_on,,0,0,0,,,3,,58,95
6000,note_on,,12,0,0,,,7,,67,0
6000,note_on,,0,0,0,,,8,,55,0
6000,note_on,,0,0,0,,,3,,58,0
6000,note_on,,0,0,0,,,3,,61,95
6000,note_on,,0,0,0,,,7,,67,95
6000,note_on,,0,0,0,,,8,,55,95
6012,note_on,,12,0,0,,,3,,61,0
6012,note_on,,0,0,0,,,3,,64,95
6024,note_on,,12,0,0,,,7,,67,0
6024,note_on,,0,0,0,,,8,,55,0
6024,note_on,,0,0,0,,,3,,64,0
6024,note_on,,0,0,0,,,3,,67,95
6024,note_on,,0,0,0,,,7,,67,95
6024,note_on,,0,0,0,,,8,,55,95
6036,note_on,,12,0,0,,,3,,67,0
6036,note_on,,0,0,0,,,3,,70,95
6048,note_on,,12,0,0,,,0,,91,0
6048,note_on,,0,0,0,,,1,,85,0
6048,note_on,,0,0,0,,,2,,82,0
6048,note_on,,0,0,0,,,7,,67,0
6048,note_on,,0,0,0,,,8,,55,0
6048,note_on,,0,0,0,,,3,,70,0
6048,note_on,,0,0,0,,,2,,73,95
6048,note_on,,0,0,0,,,3,,61,95
6048,note_on,,0,0,0,,,7,,67,95
6048,note_on,,0,0,0,,,8,,55,95
6060,note_on,,12,0,0,,,2,,73,0
6060,note_on,,0,0,0,,,3,,61,0
6060,note_on,,0,0,0,,,2,,88,95
6060,note_on,,0,0,0,,,3,,76,95
6072,note_on,,12,0,0,,,2,,88,0
6072,note_on,,0,0,0,,,3,,76,0
6072,note_on,,0,0,0,,,2,,76,95
6072,note_on,,0,0,0,,,3,,64,95
6084,note_on,,12,0,0,,,2,,76,0
6084,note_on,,0,0,0,,,3,,64,0
6084,note_on,,0,0,0,,,2,,91,95
6084,note_on,,0,0,0,,,3,,79,95
6096,note_on,,12,0,0,,,7,,67,0
6096,note_on,,0,0,0,,,8,,55,0
6096,note_on,,0,0,0,,,2,,91,0
6096,note_on,,0,0,0,,,3,,79,0
6096,note_on,,0,0,0,,,2,,73,95
6096,note_on,,0,0,0,,,3,,61,95
6096,note_on,,0,0,0,,,7,,67,95
6096,note_on,,0,0,0,,,8,,55,95
6108,note_on,,12,0,0,,,2,,73,0
6108,note_on,,0,0,0,,,3,,61,0
6108,note_on,,0,0,0,,,2,,88,95
6108,note_on,,0,0,0,,,3,,76,95
6120,note_on,,12,0,0,,,7,,67,0
6120,note_on,,0,0,0,,,8,,55,0
6120,note_on,,0,0,0,,,2,,88,0
6120,note_on,,0,0,0,,,3,,76,0
6120,note_on,,0,0,0,,,2,,70,95
6120,note_on,,0,0,0,,,3,,58,95
6120,note_on,,0,0,0,,,7,,67,95
6120,note_on,,0,0,0,,,8,,55,95
6132,note_on,,12,0,0,,,2,,70,0
6132,note_on,,0,0,0,,,3,,58,0
6132,note_on,,0,0,0,,,2,,85,95
6132,note_on,,0,0,0,,,3,,73,95
6144,note_on,,12,0,0,,,7,,67,0
6144,note_on,,0,0,0,,,0,,67,95
6144,note_on,,0,0,0,,,8,,55,0
6144,note_on,,0,0,0,,,2,,85,0
6144,note_on,,0,0,0,,,3,,73,0
6144,note_on,,0,0,0,,,1,,55,95
6144,note_on,,0,0,0,,,7,,67,95
6144,note_on,,0,0,0,,,8,,55,95
6156,note_on,,12,0,0,,,0,,67,0
6156,note_on,,0,0,0,,,0,,82,95
6156,note_on,,0,0,0,,,1,,55,0
6156,note_on,,0,0,0,,,1,,70,95
6168,note_on,,12,0,0,,,4,,91,0
6168,note_on,,0,0,0,,,0,,64,95
6168,note_on,,0,0,0,,,5,,85,0
6168,note_on,,0,0,0,,,6,,82,0
6168,note_on,,0,0,0,,,7,,67,0
6168,note_on,,0,0,0,,,8,,55,0
6168,note_on,,0,0,0,,,0,,82,0
6168,note_on,,0,0,0,,,1,,70,0
6168,note_on,,0,0,0,,,1,,52,95
6180,note_on,,12,0,0,,,0,,64,0
6180,note_on,,0,0,0,,,0,,79,95
6180,note_on,,0,0,0,,,1,,52,0
6180,note_on,,0,0,0,,,1,,67,95
6192,note_on,,12,0,0,,,0,,79,0
6192,note_on,,0,0,0,,,0,,61,95
6192,note_on,,0,0,0,,,1,,67,0
6192,note_on,,0,0,0,,,1,,49,95
6192,note_on,,0,0,0,,,7,,43,95
6192,note_on,,0,0,0,,,8,,40,95
6204,note_on,,12,0,0,,,0,,61,0
6204,note_on,,0,0,0,,,0,,76,95
6204,note_on,,0,0,0,,,1,,49,0
6204,note_on,,0,0,0,,,1,,64,95
6216,note_on,,12,0,0,,,7,,43,0
6216,note_on,,0,0,0,,,0,,64,95
6216,note_on,,0,0,0,,,8,,40,0
6216,note_on,,0,0,0,,,0,,76,0
6216,note_on,,0,0,0,,,1,,64,0
6216,note_on,,0,0,0,,,1,,52,95
6216,note_on,,0,0,0,,,7,,43,95
6216,note_on,,0,0,0,,,8,,40,95
6228,note_on,,12,0,0,,,0,,64,0
6228,note_on,,0,0,0,,,0,,79,95
6228,note_on,,0,0,0,,,1,,52,0
6228,note_on,,0,0,0,,,1,,67,95
6240,note_on,,12,0,0,,,7,,43,0
6240,note_on,,0,0,0,,,0,,61,95
6240,note_on,,0,0,0,,,8,,40,0
6240,note_on,,0,0,0,,,0,,79,0
6240,note_on,,0,0,0,,,1,,67,0
6240,note_on,,0,0,0,,,1,,49,95
6240,note_on,,0,0,0,,,7,,43,95
6240,note_on,,0,0,0,,,8,,40,95
6252,note_on,,12,0,0,,,0,,61,0
6252,note_on,,0,0,0,,,0,,76,95
6252,note_on,,0,0,0,,,1,,49,0
6252,note_on,,0,0,0,,,1,,64,95
6264,note_on,,12,0,0,,,0,,76,0
6264,note_on,,0,0,0,,,0,,58,95
6264,note_on,,0,0,0,,,1,,64,0
6264,note_on,,0,0,0,,,1,,46,95
6276,note_on,,12,0,0,,,0,,58,0
6276,note_on,,0,0,0,,,0,,73,95
6276,note_on,,0,0,0,,,1,,46,0
6276,note_on,,0,0,0,,,1,,61,95
6288,note_on,,12,0,0,,,7,,43,0
6288,note_on,,0,0,0,,,0,,55,95
6288,note_on,,0,0,0,,,8,,40,0
6288,note_on,,0,0,0,,,0,,73,0
6288,note_on,,0,0,0,,,1,,61,0
6288,note_on,,0,0,0,,,1,,43,95
6288,note_on,,0,0,0,,,7,,43,95
6288,note_on,,0,0,0,,,8,,40,95
6300,note_on,,12,0,0,,,0,,55,0
6300,note_on,,0,0,0,,,0,,70,95
6300,note_on,,0,0,0,,,1,,43,0
6300,note_on,,0,0,0,,,1,,58,95
6312,note_on,,12,0,0,,,7,,43,0
6312,note_on,,0,0,0,,,0,,52,95
6312,note_on,,0,0,0,,,8,,40,0
6312,note_on,,0,0,0,,,0,,70,0
6312,note_on,,0,0,0,,,1,,58,0
6312,note_on,,0,0,0,,,1,,40,95
6312,note_on,,0,0,0,,,7,,43,95
6312,note_on,,0,0,0,,,8,,40,95
6324,note_on,,12,0,0,,,0,,52,0
6324,note_on,,0,0,0,,,0,,67,95
6324,note_on,,0,0,0,,,1,,40,0
6324,note_on,,0,0,0,,,1,,55,95
6336,note_on,,12,0,0,,,7,,43,0
6336,note_on,,0,0,0,,,0,,64,95
6336,note_on,,0,0,0,,,8,,40,0
6336,note_on,,0,0,0,,,0,,67,0
6336,note_on,,0,0,0,,,1,,55,0
6336,note_on,,0,0,0,,,1,,55,95
6336,note_on,,0,0,0,,,2,,46,95
6336,note_on,,0,0,0,,,3,,37,95
6336,note_on,,0,0,0,,,4,,46,95
6336,note_on,,0,0,0,,,5,,37,95
6348,note_on,,12,0,0,,,0,,64,0
6348,note_on,,0,0,0,,,0,,67,95
6348,note_on,,0,0,0,,,1,,55,0
6360,note_on,,12,0,0,,,2,,46,0
6360,note_on,,0,0,0,,,0,,64,95
6360,note_on,,0,0,0,,,3,,37,0
6360,note_on,,0,0,0,,,4,,46,0
6360,note_on,,0,0,0,,,5,,37,0
6360,note_on,,0,0,0,,,0,,67,0
6372,note_on,,12,0,0,,,0,,64,0
6372,note_on,,0,0,0,,,0,,55,95
6384,note_on,,12,0,0,,,0,,55,0
6384,note_on,,0,0,0,,,0,,64,95
6384,note_on,,0,0,0,,,2,,49,95
6384,note_on,,0,0,0,,,3,,34,95
6396,note_on,,12,0,0,,,0,,64,0
6396,note_on,,0,0,0,,,0,,67,95
6408,note_on,,12,0,0,,,2,,49,0
6408,note_on,,0,0,0,,,0,,64,95
6408,note_on,,0,0,0,,,3,,34,0
6408,note_on,,0,0,0,,,0,,67,0
6408,note_on,,0,0,0,,,2,,49,95
6408,note_on,,0,0,0,,,3,,34,95
6420,note_on,,12,0,0,,,0,,64,0
6420,note_on,,0,0,0,,,0,,55,95
6432,note_on,,12,0,0,,,2,,49,0
6432,note_on,,0,0,0,,,0,,64,95
6432,note_on,,0,0,0,,,3,,34,0
6432,note_on,,0,0,0,,,0,,55,0
6432,note_on,,0,0,0,,,2,,49,95
6432,note_on,,0,0,0,,,3,,34,95
6444,note_on,,12,0,0,,,0,,64,0
6444,note_on,,0,0,0,,,0,,67,95
6456,note_on,,12,0,0,,,2,,49,0
6456,note_on,,0,0,0,,,0,,64,95
6456,note_on,,0,0,0,,,3,,34,0
6456,note_on,,0,0,0,,,0,,67,0
6468,note_on,,12,0,0,,,0,,64,0
6468,note_on,,0,0,0,,,0,,55,95
6480,note_on,,12,0,0,,,0,,55,0
6480,note_on,,0,0,0,,,0,,64,95
6480,note_on,,0,0,0,,,2,,49,95
6480,note_on,,0,0,0,,,3,,34,95
6480,note_on,,0,0,0,,,4,,67,95
6480,note_on,,0,0,0,,,5,,64,95
6480,note_on,,0,0,0,,,6,,61,95
6480,note_on,,0,0,0,,,7,,58,95
6492,note_on,,12,0,0,,,0,,64,0
6492,note_on,,0,0,0,,,0,,67,95
6492,note_on,,0,0,0,,,1,,67,95
6504,note_on,,12,0,0,,,2,,49,0
6504,note_on,,0,0,0,,,0,,64,95
6504,note_on,,0,0,0,,,3,,34,0
6504,note_on,,0,0,0,,,0,,67,0
6504,note_on,,0,0,0,,,2,,49,95
6504,note_on,,0,0,0,,,3,,34,95
6516,note_on,,12,0,0,,,0,,64,0
6516,note_on,,0,0,0,,,0,,55,95
6528,note_on,,12,0,0,,,4,,67,0
6528,note_on,,0,0,0,,,0,,62,95
6528,note_on,,0,0,0,,,5,,64,0
6528,note_on,,0,0,0,,,6,,61,0
6528,note_on,,0,0,0,,,7,,58,0
6528,note_on,,0,0,0,,,1,,67,0
6528,note_on,,0,0,0,,,2,,49,0
6528,note_on,,0,0,0,,,3,,34,0
6528,note_on,,0,0,0,,,0,,55,0
6528,note_on,,0,0,0,,,3,,50,95
6528,note_on,,0,0,0,,,4,,35,95
6528,note_on,,0,0,0,,,6,,67,95
6528,note_on,,0,0,0,,,7,,62,95
6528,note_on,,0,0,0,,,8,,59,95
6540,note_on,,12,0,0,,,0,,62,0
6540,note_on,,0,0,0,,,0,,67,95
6540,note_on,,0,0,0,,,1,,67,95
6552,note_on,,12,0,0,,,3,,50,0
6552,note_on,,0,0,0,,,0,,62,95
6552,note_on,,0,0,0,,,4,,35,0
6552,note_on,,0,0,0,,,0,,67,0
6552,note_on,,0,0,0,,,5,,71,95
6564,note_on,,12,0,0,,,0,,62,0
6564,note_on,,0,0,0,,,0,,55,95
6564,note_on,,0,0,0,,,5,,71,0
6564,note_on,,0,0,0,,,5,,74,95
6576,note_on,,12,0,0,,,0,,55,0
6576,note_on,,0,0,0,,,0,,62,95
6576,note_on,,0,0,0,,,5,,74,0
6576,note_on,,0,0,0,,,5,,79,95
6588,note_on,,12,0,0,,,0,,62,0
6588,note_on,,0,0,0,,,0,,67,95
6588,note_on,,0,0,0,,,5,,79,0
6588,note_on,,0,0,0,,,5,,74,95
6600,note_on,,12,0,0,,,0,,67,0
6600,note_on,,0,0,0,,,0,,62,95
6600,note_on,,0,0,0,,,5,,74,0
6600,note_on,,0,0,0,,,5,,79,95
6612,note_on,,12,0,0,,,0,,62,0
6612,note_on,,0,0,0,,,0,,55,95
6612,note_on,,0,0,0,,,5,,79,0
6612,note_on,,0,0,0,,,5,,81,95
6624,note_on,,12,0,0,,,1,,67,0
6624,note_on,,0,0,0,,,0,,62,95
6624,note_on,,0,0,0,,,0,,55,0
6624,note_on,,0,0,0,,,5,,81,0
6624,note_on,,0,0,0,,,2,,79,95
6624,note_on,,0,0,0,,,3,,74,95
6624,note_on,,0,0,0,,,4,,71,95
6624,note_on,,0,0,0,,,5,,82,95
6636,note_on,,12,0,0,,,0,,62,0
6636,note_on,,0,0,0,,,0,,67,95
6648,note_on,,12,0,0,,,0,,67,0
6648,note_on,,0,0,0,,,0,,62,95
6660,note_on,,12,0,0,,,0,,62,0
6660,note_on,,0,0,0,,,0,,55,95
6672,note_on,,12,0,0,,,6,,67,0
6672,note_on,,0,0,0,,,0,,62,95
6672,note_on,,0,0,0,,,7,,62,0
6672,note_on,,0,0,0,,,8,,59,0
6672,note_on,,0,0,0,,,5,,82,0
6672,note_on,,0,0,0,,,0,,55,0
6672,note_on,,0,0,0,,,5,,83,95
6672,note_on,,0,0,0,,,6,,67,95
6672,note_on,,0,0,0,,,7,,62,95
6672,note_on,,0,0,0,,,8,,59,95
6684,note_on,,12,0,0,,,0,,62,0
6684,note_on,,0,0,0,,,0,,67,95
6684,note_on,,0,0,0,,,1,,67,95
6696,note_on,,12,0,0,,,5,,83,0
6696,note_on,,0,0,0,,,0,,62,95
6696,note_on,,0,0,0,,,0,,67,0
6696,note_on,,0,0,0,,,5,,83,95
6708,note_on,,12,0,0,,,0,,62,0
6708,note_on,,0,0,0,,,0,,55,95
6720,note_on,,12,0,0,,,2,,79,0
6720,note_on,,0,0,0,,,0,,64,95
6720,note_on,,0,0,0,,,3,,74,0
6720,note_on,,0,0,0,,,4,,71,0
6720,note_on,,0,0,0,,,6,,67,0
6720,note_on,,0,0,0,,,7,,62,0
6720,note_on,,0,0,0,,,8,,59,0
6720,note_on,,0,0,0,,,1,,67,0
6720,note_on,,0,0,0,,,5,,83,0
6720,note_on,,0,0,0,,,0,,55,0
6720,note_on,,0,0,0,,,2,,48,95
6720,note_on,,0,0,0,,,3,,36,95
6720,note_on,,0,0,0,,,6,,71,95
6720,note_on,,0,0,0,,,7,,64,95
6720,note_on,,0,0,0,,,8,,60,95
6732,note_on,,12,0,0,,,0,,64,0
6732,note_on,,0,0,0,,,0,,71,95
6744,note_on,,12,0,0,,,0,,71,0
6744,note_on,,0,0,0,,,0,,64,95
6744,note_on,,0,0,0,,,5,,76,95
6756,note_on,,12,0,0,,,0,,64,0
6756,note_on,,0,0,0,,,0,,59,95
6756,note_on,,0,0,0,,,5,,76,0
6756,note_on,,0,0,0,,,5,,79,95
6768,note_on,,12,0,0,,,2,,48,0
6768,note_on,,0,0,0,,,0,,64,95
6768,note_on,,0,0,0,,,3,,36,0
6768,note_on,,0,0,0,,,0,,59,0
6768,note_on,,0,0,0,,,5,,79,0
6768,note_on,,0,0,0,,,5,,84,95
6780,note_on,,12,0,0,,,0,,64,0
6780,note_on,,0,0,0,,,0,,71,95
6780,note_on,,0,0,0,,,5,,84,0
6780,note_on,,0,0,0,,,5,,79,95
6792,note_on,,12,0,0,,,0,,71,0
6792,note_on,,0,0,0,,,0,,64,95
6792,note_on,,0,0,0,,,5,,79,0
6792,note_on,,0,0,0,,,5,,84,95
6804,note_on,,12,0,0,,,0,,64,0
6804,note_on,,0,0,0,,,0,,59,95
6804,note_on,,0,0,0,,,5,,84,0
6804,note_on,,0,0,0,,,5,,86,95
6816,note_on,,12,0,0,,,0,,59,0
6816,note_on,,0,0,0,,,0,,64,95
6816,note_on,,0,0,0,,,5,,86,0
6816,note_on,,0,0,0,,,2,,83,95
6816,note_on,,0,0,0,,,3,,76,95
6816,note_on,,0,0,0,,,4,,72,95
6816,note_on,,0,0,0,,,5,,87,95
6828,note_on,,12,0,0,,,0,,64,0
6828,note_on,,0,0,0,,,0,,71,95
6840,note_on,,12,0,0,,,0,,71,0
6840,note_on,,0,0,0,,,0,,64,95
6852,note_on,,12,0,0,,,0,,64,0
6852,note_on,,0,0,0,,,0,,59,95
6864,note_on,,12,0,0,,,6,,71,0
6864,note_on,,0,0,0,,,0,,64,95
6864,note_on,,0,0,0,,,7,,64,0
6864,note_on,,0,0,0,,,8,,60,0
6864,note_on,,0,0,0,,,2,,83,0
6864,note_on,,0,0,0,,,5,,87,0
6864,note_on,,0,0,0,,,0,,59,0
6864,note_on,,0,0,0,,,2,,81,95
6864,note_on,,0,0,0,,,5,,88,95
6864,note_on,,0,0,0,,,6,,69,95
6864,note_on,,0,0,0,,,7,,64,95
6864,note_on,,0,0,0,,,8,,60,95
6876,note_on,,12,0,0,,,0,,64,0
6876,note_on,,0,0,0,,,0,,69,95
6876,note_on,,0,0,0,,,1,,69,95
6888,note_on,,12,0,0,,,5,,88,0
6888,note_on,,0,0,0,,,0,,64,95
6888,note_on,,0,0,0,,,0,,69,0
6888,note_on,,0,0,0,,,5,,88,95
6900,note_on,,12,0,0,,,0,,64,0
6900,note_on,,0,0,0,,,0,,57,95
6912,note_on,,12,0,0,,,3,,76,0
6912,note_on,,0,0,0,,,0,,62,95
6912,note_on,,0,0,0,,,4,,72,0
6912,note_on,,0,0,0,,,2,,81,0
6912,note_on,,0,0,0,,,6,,69,0
6912,note_on,,0,0,0,,,7,,64,0
6912,note_on,,0,0,0,,,8,,60,0
6912,note_on,,0,0,0,,,1,,69,0
6912,note_on,,0,0,0,,,5,,88,0
6912,note_on,,0,0,0,,,0,,57,0
6912,note_on,,0,0,0,,,2,,50,95
6912,note_on,,0,0,0,,,3,,38,95
6912,note_on,,0,0,0,,,6,,48,95
6912,note_on,,0,0,0,,,8,,59,95
6916,note_on,,4,0,0,,,7,,62,95
6920,note_on,,4,0,0,,,6,,48,0
6920,note_on,,0,0,0,,,6,,69,95
6924,note_on,,4,0,0,,,0,,62,0
6924,note_on,,0,0,0,,,0,,69,95
6924,note_on,,0,0,0,,,1,,69,95
6936,note_on,,12,0,0,,,0,,69,0
6936,note_on,,0,0,0,,,0,,62,95
6936,note_on,,0,0,0,,,5,,74,95
6948,note_on,,12,0,0,,,0,,62,0
6948,note_on,,0,0,0,,,0,,59,95
6948,note_on,,0,0,0,,,5,,74,0
6948,note_on,,0,0,0,,,5,,79,95
6960,note_on,,12,0,0,,,2,,50,0
6960,note_on,,0,0,0,,,0,,62,95
6960,note_on,,0,0,0,,,3,,38,0
6960,note_on,,0,0,0,,,6,,69,0
6960,note_on,,0,0,0,,,0,,59,0
6960,note_on,,0,0,0,,,5,,79,0
6960,note_on,,0,0,0,,,2,,79,95
6960,note_on,,0,0,0,,,3,,74,95
6960,note_on,,0,0,0,,,4,,71,95
6960,note_on,,0,0,0,,,5,,83,95
6960,note_on,,0,0,0,,,6,,67,95
6972,note_on,,12,0,0,,,1,,69,0
6972,note_on,,0,0,0,,,0,,67,95
6972,note_on,,0,0,0,,,0,,62,0
6972,note_on,,0,0,0,,,5,,83,0
6972,note_on,,0,0,0,,,1,,67,95
6972,note_on,,0,0,0,,,5,,79,95
6984,note_on,,12,0,0,,,0,,67,0
6984,note_on,,0,0,0,,,0,,62,95
6984,note_on,,0,0,0,,,5,,79,0
6984,note_on,,0,0,0,,,5,,83,95
6996,note_on,,12,0,0,,,0,,62,0
6996,note_on,,0,0,0,,,0,,59,95
6996,note_on,,0,0,0,,,5,,83,0
6996,note_on,,0,0,0,,,5,,84,95
7008,note_on,,12,0,0,,,8,,59,0
7008,note_on,,0,0,0,,,0,,60,95
7008,note_on,,0,0,0,,,7,,62,0
7008,note_on,,0,0,0,,,2,,79,0
7008,note_on,,0,0,0,,,3,,74,0
7008,note_on,,0,0,0,,,4,,71,0
7008,note_on,,0,0,0,,,6,,67,0
7008,note_on,,0,0,0,,,0,,59,0
7008,note_on,,0,0,0,,,5,,84,0
7008,note_on,,0,0,0,,,2,,79,95
7008,note_on,,0,0,0,,,3,,72,95
7008,note_on,,0,0,0,,,4,,69,95
7008,note_on,,0,0,0,,,5,,86,95
7008,note_on,,0,0,0,,,8,,57,95
7012,note_on,,4,0,0,,,7,,60,95
7016,note_on,,4,0,0,,,6,,67,95
7020,note_on,,4,0,0,,,1,,67,0
7020,note_on,,0,0,0,,,0,,67,95
7020,note_on,,0,0,0,,,0,,60,0
7020,note_on,,0,0,0,,,1,,67,95
7032,note_on,,12,0,0,,,5,,86,0
7032,note_on,,0,0,0,,,0,,60,95
7032,note_on,,0,0,0,,,0,,67,0
7032,note_on,,0,0,0,,,5,,74,95
7044,note_on,,12,0,0,,,0,,60,0
7044,note_on,,0,0,0,,,0,,57,95
7044,note_on,,0,0,0,,,5,,74,0
7044,note_on,,0,0,0,,,5,,78,95
7056,note_on,,12,0,0,,,2,,79,0
7056,note_on,,0,0,0,,,0,,60,95
7056,note_on,,0,0,0,,,6,,67,0
7056,note_on,,0,0,0,,,0,,57,0
7056,note_on,,0,0,0,,,5,,78,0
7056,note_on,,0,0,0,,,2,,78,95
7056,note_on,,0,0,0,,,5,,81,95
7056,note_on,,0,0,0,,,6,,66,95
7068,note_on,,12,0,0,,,1,,67,0
7068,note_on,,0,0,0,,,0,,66,95
7068,note_on,,0,0,0,,,0,,60,0
7068,note_on,,0,0,0,,,5,,81,0
7068,note_on,,0,0,0,,,1,,66,95
7068,note_on,,0,0,0,,,5,,86,95
7080,note_on,,12,0,0,,,0,,66,0
7080,note_on,,0,0,0,,,0,,60,95
7080,note_on,,0,0,0,,,5,,86,0
7080,note_on,,0,0,0,,,5,,88,95
7092,note_on,,12,0,0,,,0,,60,0
7092,note_on,,0,0,0,,,0,,57,95
7092,note_on,,0,0,0,,,5,,88,0
7092,note_on,,0,0,0,,,5,,90,95
7104,note_on,,12,0,0,,,3,,72,0
7104,note_on,,0,0,0,,,0,,91,95
7104,note_on,,0,0,0,,,4,,69,0
7104,note_on,,0,0,0,,,8,,57,0
7104,note_on,,0,0,0,,,7,,60,0
7104,note_on,,0,0,0,,,2,,78,0
7104,note_on,,0,0,0,,,6,,66,0
7104,note_on,,0,0,0,,,1,,66,0
7104,note_on,,0,0,0,,,0,,57,0
7104,note_on,,0,0,0,,,5,,90,0
7104,note_on,,0,0,0,,,1,,85,95
7104,note_on,,0,0,0,,,2,,82,95
7104,note_on,,0,0,0,,,3,,40,95
7104,note_on,,0,0,0,,,4,,91,95
7104,note_on,,0,0,0,,,5,,85,95
7104,note_on,,0,0,0,,,6,,82,95
7104,note_on,,0,0,0,,,7,,67,95
7104,note_on,,0,0,0,,,8,,55,95
7116,note_on,,12,0,0,,,3,,40,0
7116,note_on,,0,0,0,,,3,,52,95
7128,note_on,,12,0,0,,,3,,52,0
7128,note_on,,0,0,0,,,3,,55,95
7140,note_on,,12,0,0,,,3,,55,0
7140,note_on,,0,0,0,,,3,,58,95
7152,note_on,,12,0,0,,,7,,67,0
7152,note_on,,0,0,0,,,8,,55,0
7152,note_on,,0,0,0,,,3,,58,0
7152,note_on,,0,0,0,,,3,,61,95
7152,note_on,,0,0,0,,,7,,67,95
7152,note_on,,0,0,0,,,8,,55,95
7164,note_on,,12,0,0,,,3,,61,0
7164,note_on,,0,0,0,,,3,,64,95
7176,note_on,,12,0,0,,,7,,67,0
7176,note_on,,0,0,0,,,8,,55,0
7176,note_on,,0,0,0,,,3,,64,0
7176,note_on,,0,0,0,,,3,,67,95
7176,note_on,,0,0,0,,,7,,67,95
7176,note_on,,0,0,0,,,8,,55,95
7188,note_on,,12,0,0,,,3,,67,0
7188,note_on,,0,0,0,,,3,,70,95
7200,note_on,,12,0,0,,,0,,91,0
7200,note_on,,0,0,0,,,1,,85,0
7200,note_on,,0,0,0,,,2,,82,0
7200,note_on,,0,0,0,,,7,,67,0
7200,note_on,,0,0,0,,,8,,55,0
7200,note_on,,0,0,0,,,3,,70,0
7200,note_on,,0,0,0,,,2,,73,95
7200,note_on,,0,0,0,,,3,,61,95
7200,note_on,,0,0,0,,,7,,67,95
7200,note_on,,0,0,0,,,8,,55,95
7212,note_on,,12,0,0,,,2,,73,0
7212,note_on,,0,0,0,,,3,,61,0
7212,note_on,,0,0,0,,,2,,88,95
7212,note_on,,0,0,0,,,3,,76,95
7224,note_on,,12,0,0,,,2,,88,0
7224,note_on,,0,0,0,,,3,,76,0
7224,note_on,,0,0,0,,,2,,76,95
7224,note_on,,0,0,0,,,3,,64,95
7236,note_on,,12,0,0,,,2,,76,0
7236,note_on,,0,0,0,,,3,,64,0
7236,note_on,,0,0,0,,,2,,91,95
7236,note_on,,0,0,0,,,3,,79,95
7248,note_on,,12,0,0,,,7,,67,0
7248,note_on,,0,0,0,,,8,,55,0
7248,note_on,,0,0,0,,,2,,91,0
7248,note_on,,0,0,0,,,3,,79,0
7248,note_on,,0,0,0,,,2,,73,95
7248,note_on,,0,0,0,,,3,,61,95
7248,note_on,,0,0,0,,,7,,67,95
7248,note_on,,0,0,0,,,8,,55,95
7260,note_on,,12,0,0,,,2,,73,0
7260,note_on,,0,0,0,,,3,,61,0
7260,note_on,,0,0,0,,,2,,88,95
7260,note_on,,0,0,0,,,3,,76,95
7272,note_on,,12,0,0,,,7,,67,0
7272,note_on,,0,0,0,,,8,,55,0
7272,note_on,,0,0,0,,,2,,88,0
7272,note_on,,0,0,0,,,3,,76,0
7272,note_on,,0,0,0,,,2,,70,95
7272,note_on,,0,0,0,,,3,,58,95
7272,note_on,,0,0,0,,,7,,67,95
7272,note_on,,0,0,0,,,8,,55,95
7284,note_on,,12,0,0,,,2,,70,0
7284,note_on,,0,0,0,,,3,,58,0
7284,note_on,,0,0,0,,,2,,85,95
7284,note_on,,0,0,0,,,3,,73,95
7296,note_on,,12,0,0,,,7,,67,0
7296,note_on,,0,0,0,,,0,,67,95
7296,note_on,,0,0,0,,,8,,55,0
7296,note_on,,0,0,0,,,2,,85,0
7296,note_on,,0,0,0,,,3,,73,0
7296,note_on,,0,0,0,,,1,,55,95
7296,note_on,,0,0,0,,,7,,67,95
7296,note_on,,0,0,0,,,8,,55,95
7308,note_on,,12,0,0,,,0,,67,0
7308,note_on,,0,0,0,,,0,,82,95
7308,note_on,,0,0,0,,,1,,55,0
7308,note_on,,0,0,0,,,1,,70,95
7320,note_on,,12,0,0,,,4,,91,0
7320,note_on,,0,0,0,,,0,,64,95
7320,note_on,,0,0,0,,,5,,85,0
7320,note_on,,0,0,0,,,6,,82,0
7320,note_on,,0,0,0,,,7,,67,0
7320,note_on,,0,0,0,,,8,,55,0
7320,note_on,,0,0,0,,,0,,82,0
7320,note_on,,0,0,0,,,1,,70,0
7320,note_on,,0,0,0,,,1,,52,95
7332,note_on,,12,0,0,,,0,,64,0
7332,note_on,,0,0,0,,,0,,79,95
7332,note_on,,0,0,0,,,1,,52,0
7332,note_on,,0,0,0,,,1,,67,95
7344,note_on,,12,0,0,,,0,,79,0
7344,note_on,,0,0,0,,,0,,61,95
7344,note_on,,0,0,0,,,1,,67,0
7344,note_on,,0,0,0,,,1,,49,95
7344,note_on,,0,0,0,,,7,,43,95
7344,note_on,,0,0,0,,,8,,40,95
7356,note_on,,12,0,0,,,0,,61,0
7356,note_on,,0,0,0,,,0,,76,95
7356,note_on,,0,0,0,,,1,,49,0
7356,note_on,,0,0,0,,,1,,64,95
7368,note_on,,12,0,0,,,7,,43,0
7368,note_on,,0,0,0,,,0,,64,95
7368,note_on,,0,0,0,,,8,,40,0
7368,note_on,,0,0,0,,,0,,76,0
7368,note_on,,0,0,0,,,1,,64,0
7368,note_on,,0,0,0,,,1,,52,95
7368,note_on,,0,0,0,,,7,,43,95
7368,note_on,,0,0,0,,,8,,40,95
7380,note_on,,12,0,0,,,0,,64,0
7380,note_on,,0,0,0,,,0,,79,95
7380,note_on,,0,0,0,,,1,,52,0
7380,note_on,,0,0,0,,,1,,67,95
7392,note_on,,12,0,0,,,7,,43,0
7392,note_on,,0,0,0,,,0,,61,95
7392,note_on,,0,0,0,,,8,,40,0
7392,note_on,,0,0,0,,,0,,79,0
7392,note_on,,0,0,0,,,1,,67,0
7392,note_on,,0,0,0,,,1,,49,95
7392,note_on,,0,0,0,,,7,,43,95
7392,note_on,,0,0,0,,,8,,40,95
7404,note_on,,12,0,0,,,0,,61,0
7404,note_on,,0,0,0,,,0,,76,95
7404,note_on,,0,0,0,,,1,,49,0
7404,note_on,,0,0,0,,,1,,64,95
7416,note_on,,12,0,0,,,0,,76,0
7416,note_on,,0,0,0,,,0,,58,95
7416,note_on,,0,0,0,,,1,,64,0
7416,note_on,,0,0,0,,,1,,46,95
7428,note_on,,12,0,0,,,0,,58,0
7428,note_on,,0,0,0,,,0,,73,95
7428,note_on,,0,0,0,,,1,,46,0
7428,note_on,,0,0,0,,,1,,61,95
7440,note_on,,12,0,0,,,7,,43,0
7440,note_on,,0,0,0,,,0,,55,95
7440,note_on,,0,0,0,,,8,,40,0
7440,note_on,,0,0,0,,,0,,73,0
7440,note_on,,0,0,0,,,1,,61,0
7440,note_on,,0,0,0,,,1,,43,95
7440,note_on,,0,0,0,,,7,,43,95
7440,note_on,,0,0,0,,,8,,40,95
7452,note_on,,12,0,0,,,0,,55,0
7452,note_on,,0,0,0,,,0,,70,95
7452,note_on,,0,0,0,,,1,,43,0
7452,note_on,,0,0,0,,,1,,58,95
7464,note_on,,12,0,0,,,7,,43,0
7464,note_on,,0,0,0,,,0,,52,95
7464,note_on,,0,0,0,,,8,,40,0
7464,note_on,,0,0,0,,,0,,70,0
7464,note_on,,0,0,0,,,1,,58,0
7464,note_on,,0,0,0,,,1,,40,95
7464,note_on,,0,0,0,,,7,,43,95
7464,note_on,,0,0,0,,,8,,40,95
7476,note_on,,12,0,0,,,0,,52,0
7476,note_on,,0,0,0,,,0,,67,95
7476,note_on,,0,0,0,,,1,,40,0
7476,note_on,,0,0,0,,,1,,55,95
7488,note_on,,12,0,0,,,7,,43,0
7488,note_on,,0,0,0,,,0,,64,95
7488,note_on,,0,0,0,,,8,,40,0
7488,note_on,,0,0,0,,,0,,67,0
7488,note_on,,0,0,0,,,1,,55,0
7488,note_on,,0,0,0,,,1,,55,95
7488,note_on,,0,0,0,,,2,,46,95
7488,note_on,,0,0,0,,,3,,37,95
7488,note_on,,0,0,0,,,4,,46,95
7488,note_on,,0,0,0,,,5,,37,95
7500,note_on,,12,0,0,,,0,,64,0
7500,note_on,,0,0,0,,,0,,67,95
7500,note_on,,0,0,0,,,1,,55,0
7512,note_on,,12,0,0,,,2,,46,0
7512,note_on,,0,0,0,,,0,,64,95
7512,note_on,,0,0,0,,,3,,37,0
7512,note_on,,0,0,0,,,4,,46,0
7512,note_on,,0,0,0,,,5,,37,0
7512,note_on,,0,0,0,,,0,,67,0
7524,note_on,,12,0,0,,,0,,64,0
7524,note_on,,0,0,0,,,0,,55,95
7536,note_on,,12,0,0,,,0,,55,0
7536,note_on,,0,0,0,,,0,,64,95
7536,note_on,,0,0,0,,,2,,49,95
7536,note_on,,0,0,0,,,3,,34,95
7548,note_on,,12,0,0,,,0,,64,0
7548,note_on,,0,0,0,,,0,,67,95
7560,note_on,,12,0,0,,,2,,49,0
7560,note_on,,0,0,0,,,0,,64,95
7560,note_on,,0,0,0,,,3,,34,0
7560,note_on,,0,0,0,,,0,,67,0
7560,note_on,,0,0,0,,,2,,49,95
7560,note_on,,0,0,0,,,3,,34,95
7572,note_on,,12,0,0,,,0,,64,0
7572,note_on,,0,0,0,,,0,,55,95
7584,note_on,,12,0,0,,,2,,49,0
7584,note_on,,0,0,0,,,0,,64,95
7584,note_on,,0,0,0,,,3,,34,0
7584,note_on,,0,0,0,,,0,,55,0
7584,note_on,,0,0,0,,,2,,49,95
7584,note_on,,0,0,0,,,3,,34,95
7596,note_on,,12,0,0,,,0,,64,0
7596,note_on,,0,0,0,,,0,,67,95
7608,note_on,,12,0,0,,,2,,49,0
7608,note_on,,0,0,0,,,0,,64,95
7608,note_on,,0,0,0,,,3,,34,0
7608,note_on,,0,0,0,,,0,,67,0
7620,note_on,,12,0,0,,,0,,64,0
7620,note_on,,0,0,0,,,0,,55,95
7632,note_on,,12,0,0,,,0,,55,0
7632,note_on,,0,0,0,,,0,,64,95
7632,note_on,,0,0,0,,,2,,49,95
7632,note_on,,0,0,0,,,3,,34,95
7632,note_on,,0,0,0,,,4,,67,95
7632,note_on,,0,0,0,,,5,,64,95
7632,note_on,,0,0,0,,,6,,61,95
7632,note_on,,0,0,0,,,7,,58,95
7644,note_on,,12,0,0,,,0,,64,0
7644,note_on,,0,0,0,,,0,,67,95
7644,note_on,,0,0,0,,,1,,67,95
7656,note_on,,12,0,0,,,2,,49,0
7656,note_on,,0,0,0,,,0,,64,95
7656,note_on,,0,0,0,,,3,,34,0
7656,note_on,,0,0,0,,,0,,67,0
7656,note_on,,0,0,0,,,2,,49,95
7656,note_on,,0,0,0,,,3,,34,95
7668,note_on,,12,0,0,,,0,,64,0
7668,note_on,,0,0,0,,,0,,55,95
7680,note_on,,12,0,0,,,4,,67,0
7680,note_on,,0,0,0,,,0,,64,95
7680,note_on,,0,0,0,,,5,,64,0
7680,note_on,,0,0,0,,,6,,61,0
7680,note_on,,0,0,0,,,7,,58,0
7680,note_on,,0,0,0,,,1,,67,0
7680,note_on,,0,0,0,,,2,,49,0
7680,note_on,,0,0,0,,,3,,34,0
7680,note_on,,0,0,0,,,0,,55,0
7680,note_on,,0,0,0,,,1,,47,95
7680,note_on,,0,0,0,,,2,,35,95
7680,note_on,,0,0,0,,,5,,67,95
7680,note_on,,0,0,0,,,6,,64,95
7680,note_on,,0,0,0,,,7,,59,95
7692,note_on,,12,0,0,,,0,,64,0
7692,note_on,,0,0,0,,,0,,67,95
7704,note_on,,12,0,0,,,0,,67,0
7704,note_on,,0,0,0,,,0,,64,95
7704,note_on,,0,0,0,,,4,,71,95
7716,note_on,,12,0,0,,,0,,64,0
7716,note_on,,0,0,0,,,0,,55,95
7716,note_on,,0,0,0,,,4,,71,0
7716,note_on,,0,0,0,,,4,,76,95
7728,note_on,,12,0,0,,,1,,47,0
7728,note_on,,0,0,0,,,0,,64,95
7728,note_on,,0,0,0,,,2,,35,0
7728,note_on,,0,0,0,,,0,,55,0
7728,note_on,,0,0,0,,,4,,76,0
7728,note_on,,0,0,0,,,4,,79,95
7740,note_on,,12,0,0,,,0,,64,0
7740,note_on,,0,0,0,,,0,,67,95
7740,note_on,,0,0,0,,,4,,79,0
7740,note_on,,0,0,0,,,4,,76,95
7752,note_on,,12,0,0,,,0,,67,0
7752,note_on,,0,0,0,,,0,,64,95
7752,note_on,,0,0,0,,,4,,76,0
7752,note_on,,0,0,0,,,4,,79,95
7764,note_on,,12,0,0,,,0,,64,0
7764,note_on,,0,0,0,,,0,,55,95
7764,note_on,,0,0,0,,,4,,79,0
7764,note_on,,0,0,0,,,4,,81,95
7776,note_on,,12,0,0,,,0,,55,0
7776,note_on,,0,0,0,,,0,,64,95
7776,note_on,,0,0,0,,,4,,81,0
7776,note_on,,0,0,0,,,1,,79,95
7776,note_on,,0,0,0,,,2,,76,95
7776,note_on,,0,0,0,,,3,,71,95
7776,note_on,,0,0,0,,,4,,82,95
7788,note_on,,12,0,0,,,0,,64,0
7788,note_on,,0,0,0,,,0,,67,95
7800,note_on,,12,0,0,,,0,,67,0
7800,note_on,,0,0,0,,,0,,64,95
7812,note_on,,12,0,0,,,0,,64,0
7812,note_on,,0,0,0,,,0,,55,95
7824,note_on,,12,0,0,,,5,,67,0
7824,note_on,,0,0,0,,,0,,64,95
7824,note_on,,0,0,0,,,6,,64,0
7824,note_on,,0,0,0,,,7,,59,0
7824,note_on,,0,0,0,,,4,,82,0
7824,note_on,,0,0,0,,,0,,55,0
7824,note_on,,0,0,0,,,4,,83,95
7824,note_on,,0,0,0,,,5,,67,95
7824,note_on,,0,0,0,,,6,,64,95
7824,note_on,,0,0,0,,,7,,59,95
7836,note_on,,12,0,0,,,0,,64,0
7836,note_on,,0,0,0,,,0,,67,95
7848,note_on,,12,0,0,,,4,,83,0
7848,note_on,,0,0,0,,,0,,64,95
7848,note_on,,0,0,0,,,0,,67,0
7848,note_on,,0,0,0,,,4,,83,95
7860,note_on,,12,0,0,,,0,,64,0
7860,note_on,,0,0,0,,,0,,55,95
7872,note_on,,12,0,0,,,1,,79,0
7872,note_on,,0,0,0,,,0,,64,95
7872,note_on,,0,0,0,,,2,,76,0
7872,note_on,,0,0,0,,,3,,71,0
7872,note_on,,0,0,0,,,5,,67,0
7872,note_on,,0,0,0,,,6,,64,0
7872,note_on,,0,0,0,,,7,,59,0
7872,note_on,,0,0,0,,,4,,83,0
7872,note_on,,0,0,0,,,0,,55,0
7872,note_on,,0,0,0,,,1,,48,95
7872,note_on,,0,0,0,,,2,,36,95
7872,note_on,,0,0,0,,,5,,71,95
7872,note_on,,0,0,0,,,6,,64,95
7872,note_on,,0,0,0,,,7,,60,95
7884,note_on,,12,0,0,,,0,,64,0
7884,note_on,,0,0,0,,,0,,71,95
7896,note_on,,12,0,0,,,0,,71,0
7896,note_on,,0,0,0,,,0,,64,95
7896,note_on,,0,0,0,,,4,,76,95
7908,note_on,,12,0,0,,,0,,64,0
7908,note_on,,0,0,0,,,0,,59,95
7908,note_on,,0,0,0,,,4,,76,0
7908,note_on,,0,0,0,,,4,,79,95
7920,note_on,,12,0,0,,,1,,48,0
7920,note_on,,0,0,0,,,0,,64,95
7920,note_on,,0,0,0,,,2,,36,0
7920,note_on,,0,0,0,,,0,,59,0
7920,note_on,,0,0,0,,,4,,79,0
7920,note_on,,0,0,0,,,4,,84,95
7932,note_on,,12,0,0,,,0,,64,0
7932,note_on,,0,0,0,,,0,,71,95
7932,note_on,,0,0,0,,,4,,84,0
7932,note_on,,0,0,0,,,4,,79,95
7944,note_on,,12,0,0,,,0,,71,0
7944,note_on,,0,0,0,,,0,,64,95
7944,note_on,,0,0,0,,,4,,79,0
7944,note_on,,0,0,0,,,4,,84,95
7956,note_on,,12,0,0,,,0,,64,0
7956,note_on,,0,0,0,,,0,,59,95
7956,note_on,,0,0,0,,,4,,84,0
7956,note_on,,0,0,0,,,4,,86,95
7968,note_on,,12,0,0,,,0,,59,0
7968,note_on,,0,0,0,,,0,,64,95
7968,note_on,,0,0,0,,,4,,86,0
7968,note_on,,0,0,0,,,1,,83,95
7968,note_on,,0,0,0,,,2,,76,95
7968,note_on,,0,0,0,,,3,,72,95
7968,note_on,,0,0,0,,,4,,87,95
7980,note_on,,12,0,0,,,0,,64,0
7980,note_on,,0,0,0,,,0,,71,95
7992,note_on,,12,0,0,,,0,,71,0
7992,note_on,,0,0,0,,,0,,64,95
8004,note_on,,12,0,0,,,0,,64,0
8004,note_on,,0,0,0,,,0,,59,95
8016,note_on,,12,0,0,,,5,,71,0
8016,note_on,,0,0,0,,,0,,64,95
8016,note_on,,0,0,0,,,6,,64,0
8016,note_on,,0,0,0,,,7,,60,0
8016,note_on,,0,0,0,,,1,,83,0
8016,note_on,,0,0,0,,,4,,87,0
8016,note_on,,0,0,0,,,0,,59,0
8016,note_on,,0,0,0,,,1,,81,95
8016,note_on,,0,0,0,,,4,,88,95
8016,note_on,,0,0,0,,,5,,69,95
8016,note_on,,0,0,0,,,6,,64,95
8016,note_on,,0,0,0,,,7,,60,95
8028,note_on,,12,0,0,,,0,,64,0
8028,note_on,,0,0,0,,,0,,69,95
8040,note_on,,12,0,0,,,4,,88,0
8040,note_on,,0,0,0,,,0,,64,95
8040,note_on,,0,0,0,,,0,,69,0
8040,note_on,,0,0,0,,,4,,88,95
8052,note_on,,12,0,0,,,0,,64,0
8052,note_on,,0,0,0,,,0,,57,95
8064,note_on,,12,0,0,,,2,,76,0
8064,note_on,,0,0,0,,,0,,62,95
8064,note_on,,0,0,0,,,3,,72,0
8064,note_on,,0,0,0,,,1,,81,0
8064,note_on,,0,0,0,,,5,,69,0
8064,note_on,,0,0,0,,,6,,64,0
8064,note_on,,0,0,0,,,7,,60,0
8064,note_on,,0,0,0,,,4,,88,0
8064,note_on,,0,0,0,,,0,,57,0
8064,note_on,,0,0,0,,,1,,71,95
8064,note_on,,0,0,0,,,2,,38,95
8064,note_on,,0,0,0,,,5,,69,95
8064,note_on,,0,0,0,,,6,,62,95
8064,note_on,,0,0,0,,,7,,59,95
8076,note_on,,12,0,0,,,0,,62,0
8076,note_on,,0,0,0,,,0,,69,95
8088,note_on,,12,0,0,,,0,,69,0
8088,note_on,,0,0,0,,,0,,62,95
8088,note_on,,0,0,0,,,4,,74,95
8100,note_on,,12,0,0,,,0,,62,0
8100,note_on,,0,0,0,,,0,,59,95
8100,note_on,,0,0,0,,,4,,74,0
8100,note_on,,0,0,0,,,4,,73,95
8112,note_on,,12,0,0,,,1,,71,0
8112,note_on,,0,0,0,,,0,,62,95
8112,note_on,,0,0,0,,,2,,38,0
8112,note_on,,0,0,0,,,0,,59,0
8112,note_on,,0,0,0,,,4,,73,0
8112,note_on,,0,0,0,,,4,,76,95
8124,note_on,,12,0,0,,,0,,62,0
8124,note_on,,0,0,0,,,0,,69,95
8124,note_on,,0,0,0,,,4,,76,0
8124,note_on,,0,0,0,,,4,,74,95
8136,note_on,,12,0,0,,,0,,69,0
8136,note_on,,0,0,0,,,0,,62,95
8136,note_on,,0,0,0,,,4,,74,0
8136,note_on,,0,0,0,,,4,,78,95
8148,note_on,,12,0,0,,,0,,62,0
8148,note_on,,0,0,0,,,0,,59,95
8148,note_on,,0,0,0,,,4,,78,0
8148,note_on,,0,0,0,,,4,,76,95
8160,note_on,,12,0,0,,,0,,59,0
8160,note_on,,0,0,0,,,0,,62,95
8160,note_on,,0,0,0,,,4,,76,0
8160,note_on,,0,0,0,,,1,,81,95
8160,note_on,,0,0,0,,,2,,74,95
8160,note_on,,0,0,0,,,3,,71,95
8160,note_on,,0,0,0,,,4,,79,95
8172,note_on,,12,0,0,,,0,,62,0
8172,note_on,,0,0,0,,,0,,69,95
8172,note_on,,0,0,0,,,4,,79,0
8172,note_on,,0,0,0,,,4,,78,95
8184,note_on,,12,0,0,,,0,,69,0
8184,note_on,,0,0,0,,,0,,62,95
8184,note_on,,0,0,0,,,4,,78,0
8184,note_on,,0,0,0,,,4,,81,95
8196,note_on,,12,0,0,,,0,,62,0
8196,note_on,,0,0,0,,,0,,59,95
8196,note_on,,0,0,0,,,4,,81,0
8196,note_on,,0,0,0,,,4,,79,95
8208,note_on,,12,0,0,,,5,,69,0
8208,note_on,,0,0,0,,,0,,62,95
8208,note_on,,0,0,0,,,6,,62,0
8208,note_on,,0,0,0,,,7,,59,0
8208,note_on,,0,0,0,,,1,,81,0
8208,note_on,,0,0,0,,,0,,59,0
8208,note_on,,0,0,0,,,4,,79,0
8208,note_on,,0,0,0,,,1,,79,95
8208,note_on,,0,0,0,,,4,,83,95
8208,note_on,,0,0,0,,,5,,67,95
8208,note_on,,0,0,0,,,6,,62,95
8208,note_on,,0,0,0,,,7,,59,95
8220,note_on,,12,0,0,,,0,,62,0
8220,note_on,,0,0,0,,,0,,67,95
8220,note_on,,0,0,0,,,4,,83,0
8220,note_on,,0,0,0,,,4,,81,95
8232,note_on,,12,0,0,,,0,,67,0
8232,note_on,,0,0,0,,,0,,62,95
8232,note_on,,0,0,0,,,4,,81,0
8232,note_on,,0,0,0,,,4,,84,95
8244,note_on,,12,0,0,,,0,,62,0
8244,note_on,,0,0,0,,,0,,59,95
8244,note_on,,0,0,0,,,4,,84,0
8244,note_on,,0,0,0,,,4,,83,95
8256,note_on,,12,0,0,,,2,,74,0
8256,note_on,,0,0,0,,,0,,60,95
8256,note_on,,0,0,0,,,3,,71,0
8256,note_on,,0,0,0,,,1,,79,0
8256,note_on,,0,0,0,,,5,,67,0
8256,note_on,,0,0,0,,,6,,62,0
8256,note_on,,0,0,0,,,7,,59,0
8256,note_on,,0,0,0,,,0,,59,0
8256,note_on,,0,0,0,,,4,,83,0
8256,note_on,,0,0,0,,,1,,50,95
8256,note_on,,0,0,0,,,2,,38,95
8256,note_on,,0,0,0,,,4,,86,95
8256,note_on,,0,0,0,,,5,,67,95
8256,note_on,,0,0,0,,,6,,60,95
8256,note_on,,0,0,0,,,7,,57,95
8268,note_on,,12,0,0,,,0,,60,0
8268,note_on,,0,0,0,,,0,,67,95
8268,note_on,,0,0,0,,,4,,86,0
8268,note_on,,0,0,0,,,4,,85,95
8280,note_on,,12,0,0,,,0,,67,0
8280,note_on,,0,0,0,,,0,,60,95
8280,note_on,,0,0,0,,,4,,85,0
8280,note_on,,0,0,0,,,4,,88,95
8280,note_on,,0,0,0,,,8,,88,95
8292,note_on,,12,0,0,,,0,,60,0
8292,note_on,,0,0,0,,,0,,57,95
8292,note_on,,0,0,0,,,4,,88,0
8292,note_on,,0,0,0,,,4,,86,95
8304,note_on,,12,0,0,,,1,,50,0
8304,note_on,,0,0,0,,,0,,60,95
8304,note_on,,0,0,0,,,2,,38,0
8304,note_on,,0,0,0,,,5,,67,0
8304,note_on,,0,0,0,,,8,,88,0
8304,note_on,,0,0,0,,,0,,57,0
8304,note_on,,0,0,0,,,4,,86,0
8304,note_on,,0,0,0,,,4,,86,95
8304,note_on,,0,0,0,,,5,,66,95
8316,note_on,,12,0,0,,,0,,60,0
8316,note_on,,0,0,0,,,0,,66,95
8328,note_on,,12,0,0,,,0,,66,0
8328,note_on,,0,0,0,,,0,,60,95
8340,note_on,,12,0,0,,,0,,60,0
8340,note_on,,0,0,0,,,0,,57,95
8352,note_on,,12,0,0,,,6,,60,0
8352,note_on,,0,0,0,,,0,,60,95
8352,note_on,,0,0,0,,,7,,57,0
8352,note_on,,0,0,0,,,5,,66,0
8352,note_on,,0,0,0,,,0,,57,0
8352,note_on,,0,0,0,,,1,,76,95
8352,note_on,,0,0,0,,,2,,72,95
8352,note_on,,0,0,0,,,3,,69,95
8352,note_on,,0,0,0,,,5,,64,95
8352,note_on,,0,0,0,,,6,,60,95
8352,note_on,,0,0,0,,,7,,57,95
8364,note_on,,12,0,0,,,0,,60,0
8364,note_on,,0,0,0,,,0,,64,95
8376,note_on,,12,0,0,,,0,,64,0
8376,note_on,,0,0,0,,,0,,60,95
8388,note_on,,12,0,0,,,0,,60,0
8388,note_on,,0,0,0,,,0,,57,95
8400,note_on,,12,0,0,,,1,,76,0
8400,note_on,,0,0,0,,,0,,60,95
8400,note_on,,0,0,0,,,5,,64,0
8400,note_on,,0,0,0,,,0,,57,0
8400,note_on,,0,0,0,,,1,,78,95
8400,note_on,,0,0,0,,,5,,66,95
8412,note_on,,12,0,0,,,0,,60,0
8412,note_on,,0,0,0,,,0,,66,95
8424,note_on,,12,0,0,,,0,,66,0
8424,note_on,,0,0,0,,,0,,60,95
8424,note_on,,0,0,0,,,8,,84,95
8430,note_on,,6,0,0,,,8,,84,0
8430,note_on,,0,0,0,,,8,,86,95
8436,note_on,,6,0,0,,,0,,60,0
8436,note_on,,0,0,0,,,0,,57,95
8436,note_on,,0,0,0,,,8,,86,0
8436,note_on,,0,0,0,,,8,,88,95
8442,note_on,,6,0,0,,,8,,88,0
8442,note_on,,0,0,0,,,8,,90,95
8448,note_on,,6,0,0,,,4,,86,0
8448,note_on,,0,0,0,,,0,,67,95
8448,note_on,,0,0,0,,,2,,72,0
8448,note_on,,0,0,0,,,3,,69,0
8448,note_on,,0,0,0,,,6,,60,0
8448,note_on,,0,0,0,,,7,,57,0
8448,note_on,,0,0,0,,,1,,78,0
8448,note_on,,0,0,0,,,5,,66,0
8448,note_on,,0,0,0,,,0,,57,0
8448,note_on,,0,0,0,,,8,,90,0
8448,note_on,,0,0,0,,,1,,59,95
8448,note_on,,0,0,0,,,2,,55,95
8448,note_on,,0,0,0,,,3,,50,95
8448,note_on,,0,0,0,,,4,,43,95
8472,note_on,,24,0,0,,,0,,67,0
8472,note_on,,0,0,0,,,0,,71,95
8472,note_on,,0,0,0,,,1,,59,0
8472,note_on,,0,0,0,,,2,,55,0
8472,note_on,,0,0,0,,,3,,50,0
8472,note_on,,0,0,0,,,4,,43,0
8520,note_on,,48,0,0,,,0,,71,0
8520,note_on,,0,0,0,,,0,,71,95
8568,note_on,,48,0,0,,,0,,71,0
8568,note_on,,0,0,0,,,0,,71,95
8616,note_on,,48,0,0,,,0,,71,0
8616,note_on,,0,0,0,,,0,,71,95
8664,note_on,,48,0,0,,,0,,71,0
8664,note_on,,0,0,0,,,0,,72,95
8712,note_on,,48,0,0,,,0,,72,0
8712,note_on,,0,0,0,,,0,,71,95
8760,note_on,,48,0,0,,,0,,71,0
8760,note_on,,0,0,0,,,0,,70,95
8804,note_on,,44,0,0,,,0,,70,0
8804,note_on,,0,0,0,,,0,,69,95
8832,note_on,,28,0,0,,,0,,69,0
8832,note_on,,0,0,0,,,0,,68,95
8832,note_on,,0,0,0,,,1,,56,95
8832,note_on,,0,0,0,,,3,,40,95
8856,note_on,,24,0,0,,,2,,47,95
8880,note_on,,24,0,0,,,0,,68,0
8880,note_on,,0,0,0,,,0,,68,95
8904,note_on,,24,0,0,,,1,,56,0
8904,note_on,,0,0,0,,,0,,68,95
8904,note_on,,0,0,0,,,0,,68,0
8904,note_on,,0,0,0,,,1,,56,95
8928,note_on,,24,0,0,,,3,,40,0
8928,note_on,,0,0,0,,,0,,68,95
8928,note_on,,0,0,0,,,2,,47,0
8928,note_on,,0,0,0,,,0,,68,0
8928,note_on,,0,0,0,,,1,,56,0
8928,note_on,,0,0,0,,,1,,56,95
8928,note_on,,0,0,0,,,3,,40,95
8952,note_on,,24,0,0,,,2,,47,95
8976,note_on,,24,0,0,,,0,,68,0
8976,note_on,,0,0,0,,,0,,68,95
8976,note_on,,0,0,0,,,1,,56,0
8976,note_on,,0,0,0,,,1,,56,95
9000,note_on,,24,0,0,,,0,,68,0
9000,note_on,,0,0,0,,,0,,68,95
9000,note_on,,0,0,0,,,1,,56,0
9000,note_on,,0,0,0,,,1,,56,95
9024,note_on,,24,0,0,,,3,,40,0
9024,note_on,,0,0,0,,,0,,68,95
9024,note_on,,0,0,0,,,2,,47,0
9024,note_on,,0,0,0,,,0,,68,0
9024,note_on,,0,0,0,,,1,,56,0
9024,note_on,,0,0,0,,,1,,56,95
9024,note_on,,0,0,0,,,3,,42,95
9048,note_on,,24,0,0,,,0,,68,0
9048,note_on,,0,0,0,,,0,,71,95
9048,note_on,,0,0,0,,,1,,56,0
9048,note_on,,0,0,0,,,1,,59,95
9048,note_on,,0,0,0,,,2,,47,95
9072,note_on,,24,0,0,,,0,,71,0
9072,note_on,,0,0,0,,,0,,69,95
9072,note_on,,0,0,0,,,1,,59,0
9072,note_on,,0,0,0,,,2,,47,0
9072,note_on,,0,0,0,,,1,,57,95
9072,note_on,,0,0,0,,,2,,47,95
9096,note_on,,24,0,0,,,2,,47,0
9096,note_on,,0,0,0,,,2,,47,95
9120,note_on,,24,0,0,,,0,,69,0
9120,note_on,,0,0,0,,,1,,57,0
9120,note_on,,0,0,0,,,2,,47,0
9120,note_on,,0,0,0,,,2,,47,95
9144,note_on,,24,0,0,,,2,,47,0
9144,note_on,,0,0,0,,,2,,49,95
9168,note_on,,24,0,0,,,2,,49,0
9168,note_on,,0,0,0,,,2,,47,95
9192,note_on,,24,0,0,,,2,,47,0
9192,note_on,,0,0,0,,,2,,47,95
9216,note_on,,24,0,0,,,3,,42,0
9216,note_on,,0,0,0,,,0,,69,95
9216,note_on,,0,0,0,,,2,,47,0
9216,note_on,,0,0,0,,,1,,57,95
9216,note_on,,0,0,0,,,3,,42,95
9240,note_on,,24,0,0,,,2,,47,95
9264,note_on,,24,0,0,,,0,,69,0
9264,note_on,,0,0,0,,,0,,69,95
9264,note_on,,0,0,0,,,1,,57,0
9264,note_on,,0,0,0,,,1,,57,95
9288,note_on,,24,0,0,,,0,,69,0
9288,note_on,,0,0,0,,,0,,69,95
9288,note_on,,0,0,0,,,1,,57,0
9288,note_on,,0,0,0,,,1,,57,95
9312,note_on,,24,0,0,,,3,,42,0
9312,note_on,,0,0,0,,,0,,69,95
9312,note_on,,0,0,0,,,2,,47,0
9312,note_on,,0,0,0,,,0,,69,0
9312,note_on,,0,0,0,,,1,,57,0
9312,note_on,,0,0,0,,,1,,57,95
9312,note_on,,0,0,0,,,3,,42,95
9336,note_on,,24,0,0,,,2,,47,95
9360,note_on,,24,0,0,,,0,,69,0
9360,note_on,,0,0,0,,,0,,69,95
9360,note_on,,0,0,0,,,1,,57,0
9360,note_on,,0,0,0,,,1,,57,95
9384,note_on,,24,0,0,,,0,,69,0
9384,note_on,,0,0,0,,,0,,69,95
9384,note_on,,0,0,0,,,1,,57,0
9384,note_on,,0,0,0,,,1,,57,95
9408,note_on,,24,0,0,,,3,,42,0
9408,note_on,,0,0,0,,,0,,70,95
9408,note_on,,0,0,0,,,2,,47,0
9408,note_on,,0,0,0,,,0,,69,0
9408,note_on,,0,0,0,,,1,,57,0
9408,note_on,,0,0,0,,,1,,58,95
9408,note_on,,0,0,0,,,4,,44,95
9432,note_on,,24,0,0,,,0,,70,0
9432,note_on,,0,0,0,,,0,,73,95
9432,note_on,,0,0,0,,,1,,58,0
9432,note_on,,0,0,0,,,1,,61,95
9432,note_on,,0,0,0,,,3,,47,95
9456,note_on,,24,0,0,,,0,,73,0
9456,note_on,,0,0,0,,,0,,71,95
9456,note_on,,0,0,0,,,1,,61,0
9456,note_on,,0,0,0,,,3,,47,0
9456,note_on,,0,0,0,,,1,,59,95
9456,note_on,,0,0,0,,,3,,47,95
9480,note_on,,24,0,0,,,3,,47,0
9480,note_on,,0,0,0,,,3,,47,95
9504,note_on,,24,0,0,,,3,,47,0
9504,note_on,,0,0,0,,,3,,47,95
9528,note_on,,24,0,0,,,0,,71,0
9528,note_on,,0,0,0,,,0,,76,95
9528,note_on,,0,0,0,,,1,,59,0
9528,note_on,,0,0,0,,,3,,47,0
9528,note_on,,0,0,0,,,1,,64,95
9528,note_on,,0,0,0,,,3,,49,95
9552,note_on,,24,0,0,,,0,,76,0
9552,note_on,,0,0,0,,,0,,78,95
9552,note_on,,0,0,0,,,1,,64,0
9552,note_on,,0,0,0,,,3,,49,0
9552,note_on,,0,0,0,,,1,,66,95
9552,note_on,,0,0,0,,,3,,47,95
9576,note_on,,24,0,0,,,0,,78,0
9576,note_on,,0,0,0,,,0,,80,95
9576,note_on,,0,0,0,,,1,,66,0
9576,note_on,,0,0,0,,,3,,47,0
9576,note_on,,0,0,0,,,1,,68,95
9576,note_on,,0,0,0,,,2,,76,95
9576,note_on,,0,0,0,,,3,,47,95
9600,note_on,,24,0,0,,,4,,44,0
9600,note_on,,0,0,0,,,0,,81,95
9600,note_on,,0,0,0,,,0,,80,0
9600,note_on,,0,0,0,,,1,,68,0
9600,note_on,,0,0,0,,,3,,47,0
9600,note_on,,0,0,0,,,1,,69,95
9600,note_on,,0,0,0,,,4,,54,95
9624,note_on,,24,0,0,,,2,,76,0
9624,note_on,,0,0,0,,,2,,75,95
9624,note_on,,0,0,0,,,3,,59,95
9648,note_on,,24,0,0,,,2,,75,0
9648,note_on,,0,0,0,,,3,,59,0
9648,note_on,,0,0,0,,,2,,73,95
9648,note_on,,0,0,0,,,3,,61,95
9672,note_on,,24,0,0,,,2,,73,0
9672,note_on,,0,0,0,,,3,,61,0
9672,note_on,,0,0,0,,,2,,71,95
9672,note_on,,0,0,0,,,3,,63,95
9696,note_on,,24,0,0,,,4,,54,0
9696,note_on,,0,0,0,,,2,,71,0
9696,note_on,,0,0,0,,,3,,63,0
9696,note_on,,0,0,0,,,2,,71,95
9696,note_on,,0,0,0,,,3,,64,95
9696,note_on,,0,0,0,,,4,,52,95
9720,note_on,,24,0,0,,,0,,81,0
9720,note_on,,0,0,0,,,0,,80,95
9720,note_on,,0,0,0,,,1,,69,0
9720,note_on,,0,0,0,,,1,,68,95
9744,note_on,,24,0,0,,,3,,64,0
9744,note_on,,0,0,0,,,0,,78,95
9744,note_on,,0,0,0,,,4,,52,0
9744,note_on,,0,0,0,,,0,,80,0
9744,note_on,,0,0,0,,,1,,68,0
9744,note_on,,0,0,0,,,1,,69,95
9744,note_on,,0,0,0,,,3,,63,95
9744,note_on,,0,0,0,,,4,,54,95
9768,note_on,,24,0,0,,,0,,78,0
9768,note_on,,0,0,0,,,0,,76,95
9768,note_on,,0,0,0,,,1,,69,0
9768,note_on,,0,0,0,,,3,,63,0
9768,note_on,,0,0,0,,,4,,54,0
9768,note_on,,0,0,0,,,1,,71,95
9768,note_on,,0,0,0,,,3,,64,95
9768,note_on,,0,0,0,,,4,,56,95
9792,note_on,,24,0,0,,,2,,71,0
9792,note_on,,0,0,0,,,0,,76,95
9792,note_on,,0,0,0,,,0,,76,0
9792,note_on,,0,0,0,,,1,,71,0
9792,note_on,,0,0,0,,,3,,64,0
9792,note_on,,0,0,0,,,4,,56,0
9792,note_on,,0,0,0,,,1,,71,95
9792,note_on,,0,0,0,,,2,,66,95
9792,note_on,,0,0,0,,,3,,54,95
9816,note_on,,24,0,0,,,0,,76,0
9816,note_on,,0,0,0,,,0,,75,95
9840,note_on,,24,0,0,,,1,,71,0
9840,note_on,,0,0,0,,,0,,75,95
9840,note_on,,0,0,0,,,2,,66,0
9840,note_on,,0,0,0,,,3,,54,0
9840,note_on,,0,0,0,,,0,,75,0
9840,note_on,,0,0,0,,,1,,70,95
9840,note_on,,0,0,0,,,2,,64,95
9840,note_on,,0,0,0,,,3,,54,95
9864,note_on,,24,0,0,,,0,,75,0
9864,note_on,,0,0,0,,,0,,73,95
9888,note_on,,24,0,0,,,1,,70,0
9888,note_on,,0,0,0,,,0,,71,95
9888,note_on,,0,0,0,,,2,,64,0
9888,note_on,,0,0,0,,,3,,54,0
9888,note_on,,0,0,0,,,0,,73,0
9888,note_on,,0,0,0,,,1,,71,95
9888,note_on,,0,0,0,,,2,,63,95
9888,note_on,,0,0,0,,,3,,59,95
9912,note_on,,24,0,0,,,0,,71,0
9912,note_on,,0,0,0,,,0,,83,95
9912,note_on,,0,0,0,,,1,,71,0
9912,note_on,,0,0,0,,,2,,63,0
9912,note_on,,0,0,0,,,3,,59,0
9912,note_on,,0,0,0,,,1,,71,95
9936,note_on,,24,0,0,,,0,,83,0
9936,note_on,,0,0,0,,,0,,82,95
9936,note_on,,0,0,0,,,1,,71,0
9936,note_on,,0,0,0,,,1,,70,95
9960,note_on,,24,0,0,,,0,,82,0
9960,note_on,,0,0,0,,,0,,81,95
9960,note_on,,0,0,0,,,1,,70,0
9960,note_on,,0,0,0,,,1,,69,95
9984,note_on,,24,0,0,,,0,,81,0
9984,note_on,,0,0,0,,,0,,80,95
9984,note_on,,0,0,0,,,1,,69,0
9984,note_on,,0,0,0,,,1,,68,95
9984,note_on,,0,0,0,,,3,,52,95
10008,note_on,,24,0,0,,,2,,59,95
10032,note_on,,24,0,0,,,0,,80,0
10032,note_on,,0,0,0,,,0,,80,95
10032,note_on,,0,0,0,,,1,,68,0
10032,note_on,,0,0,0,,,1,,68,95
10056,note_on,,24,0,0,,,0,,80,0
10056,note_on,,0,0,0,,,0,,80,95
10056,note_on,,0,0,0,,,1,,68,0
10056,note_on,,0,0,0,,,1,,68,95
10080,note_on,,24,0,0,,,3,,52,0
10080,note_on,,0,0,0,,,0,,80,95
10080,note_on,,0,0,0,,,2,,59,0
10080,note_on,,0,0,0,,,0,,80,0
10080,note_on,,0,0,0,,,1,,68,0
10080,note_on,,0,0,0,,,1,,68,95
10080,note_on,,0,0,0,,,3,,52,95
10104,note_on,,24,0,0,,,2,,59,95
10128,note_on,,24,0,0,,,0,,80,0
10128,note_on,,0,0,0,,,0,,80,95
10128,note_on,,0,0,0,,,1,,68,0
10128,note_on,,0,0,0,,,1,,68,95
10152,note_on,,24,0,0,,,0,,80,0
10152,note_on,,0,0,0,,,0,,80,95
10152,note_on,,0,0,0,,,1,,68,0
10152,note_on,,0,0,0,,,1,,68,95
10176,note_on,,24,0,0,,,3,,52,0
10176,note_on,,0,0,0,,,0,,80,95
10176,note_on,,0,0,0,,,2,,59,0
10176,note_on,,0,0,0,,,0,,80,0
10176,note_on,,0,0,0,,,1,,68,0
10176,note_on,,0,0,0,,,1,,68,95
10176,note_on,,0,0,0,,,3,,54,95
10200,note_on,,24,0,0,,,0,,80,0
10200,note_on,,0,0,0,,,0,,83,95
10200,note_on,,0,0,0,,,1,,68,0
10200,note_on,,0,0,0,,,1,,71,95
10200,note_on,,0,0,0,,,2,,59,95
10224,note_on,,24,0,0,,,0,,83,0
10224,note_on,,0,0,0,,,0,,81,95
10224,note_on,,0,0,0,,,1,,71,0
10224,note_on,,0,0,0,,,2,,59,0
10224,note_on,,0,0,0,,,1,,69,95
10224,note_on,,0,0,0,,,2,,59,95
10248,note_on,,24,0,0,,,2,,59,0
10248,note_on,,0,0,0,,,2,,59,95
10272,note_on,,24,0,0,,,0,,81,0
10272,note_on,,0,0,0,,,1,,69,0
10272,note_on,,0,0,0,,,2,,59,0
10272,note_on,,0,0,0,,,2,,58,95
10272,note_on,,0,0,0,,,4,,81,95
10272,note_on,,0,0,0,,,5,,75,95
10272,note_on,,0,0,0,,,6,,71,95
10272,note_on,,0,0,0,,,7,,66,95
10284,note_on,,12,0,0,,,2,,58,0
10284,note_on,,0,0,0,,,2,,59,95
10296,note_on,,12,0,0,,,2,,59,0
10296,note_on,,0,0,0,,,2,,61,95
10308,note_on,,12,0,0,,,2,,61,0
10308,note_on,,0,0,0,,,2,,59,95
10320,note_on,,12,0,0,,,4,,81,0
10320,note_on,,0,0,0,,,7,,66,0
10320,note_on,,0,0,0,,,2,,59,0
10320,note_on,,0,0,0,,,2,,59,95
10320,note_on,,0,0,0,,,4,,78,95
10320,note_on,,0,0,0,,,7,,63,95
10344,note_on,,24,0,0,,,2,,59,0
10344,note_on,,0,0,0,,,2,,59,95
10368,note_on,,24,0,0,,,3,,54,0
10368,note_on,,0,0,0,,,0,,81,95
10368,note_on,,0,0,0,,,5,,75,0
10368,note_on,,0,0,0,,,6,,71,0
10368,note_on,,0,0,0,,,4,,78,0
10368,note_on,,0,0,0,,,7,,63,0
10368,note_on,,0,0,0,,,2,,59,0
10368,note_on,,0,0,0,,,1,,69,95
10368,note_on,,0,0,0,,,3,,54,95
10392,note_on,,24,0,0,,,2,,59,95
10416,note_on,,24,0,0,,,0,,81,0
10416,note_on,,0,0,0,,,0,,81,95
10416,note_on,,0,0,0,,,1,,69,0
10416,note_on,,0,0,0,,,1,,69,95
10440,note_on,,24,0,0,,,1,,69,0
10440,note_on,,0,0,0,,,1,,69,95
10464,note_on,,24,0,0,,,3,,54,0
10464,note_on,,0,0,0,,,0,,81,95
10464,note_on,,0,0,0,,,2,,59,0
10464,note_on,,0,0,0,,,0,,81,0
10464,note_on,,0,0,0,,,1,,69,0
10464,note_on,,0,0,0,,,1,,69,95
10464,note_on,,0,0,0,,,3,,54,95
10488,note_on,,24,0,0,,,2,,59,95
10512,note_on,,24,0,0,,,0,,81,0
10512,note_on,,0,0,0,,,0,,81,95
10512,note_on,,0,0,0,,,1,,69,0
10512,note_on,,0,0,0,,,1,,69,95
10536,note_on,,24,0,0,,,1,,69,0
10536,note_on,,0,0,0,,,1,,69,95
10560,note_on,,24,0,0,,,3,,54,0
10560,note_on,,0,0,0,,,0,,82,95
10560,note_on,,0,0,0,,,2,,59,0
10560,note_on,,0,0,0,,,0,,81,0
10560,note_on,,0,0,0,,,1,,69,0
10560,note_on,,0,0,0,,,1,,70,95
10560,note_on,,0,0,0,,,3,,55,95
10584,note_on,,24,0,0,,,0,,82,0
10584,note_on,,0,0,0,,,0,,84,95
10584,note_on,,0,0,0,,,1,,70,0
10584,note_on,,0,0,0,,,1,,72,95
10584,note_on,,0,0,0,,,2,,59,95
10608,note_on,,24,0,0,,,0,,84,0
10608,note_on,,0,0,0,,,0,,83,95
10608,note_on,,0,0,0,,,1,,72,0
10608,note_on,,0,0,0,,,2,,59,0
10608,note_on,,0,0,0,,,1,,71,95
10608,note_on,,0,0,0,,,2,,59,95
10632,note_on,,24,0,0,,,2,,59,0
10632,note_on,,0,0,0,,,2,,59,95
10656,note_on,,24,0,0,,,0,,83,0
10656,note_on,,0,0,0,,,1,,71,0
10656,note_on,,0,0,0,,,2,,59,0
10656,note_on,,0,0,0,,,2,,58,95
10656,note_on,,0,0,0,,,4,,83,95
10656,note_on,,0,0,0,,,5,,76,95
10656,note_on,,0,0,0,,,6,,71,95
10656,note_on,,0,0,0,,,7,,67,95
10668,note_on,,12,0,0,,,2,,58,0
10668,note_on,,0,0,0,,,2,,59,95
10680,note_on,,12,0,0,,,2,,59,0
10680,note_on,,0,0,0,,,2,,60,95
10692,note_on,,12,0,0,,,2,,60,0
10692,note_on,,0,0,0,,,2,,59,95
10704,note_on,,12,0,0,,,4,,83,0
10704,note_on,,0,0,0,,,7,,67,0
10704,note_on,,0,0,0,,,2,,59,0
10704,note_on,,0,0,0,,,2,,59,95
10704,note_on,,0,0,0,,,4,,79,95
10704,note_on,,0,0,0,,,7,,64,95
10728,note_on,,24,0,0,,,2,,59,0
10728,note_on,,0,0,0,,,2,,59,95
10752,note_on,,24,0,0,,,3,,55,0
10752,note_on,,0,0,0,,,0,,83,95
10752,note_on,,0,0,0,,,5,,76,0
10752,note_on,,0,0,0,,,6,,71,0
10752,note_on,,0,0,0,,,4,,79,0
10752,note_on,,0,0,0,,,7,,64,0
10752,note_on,,0,0,0,,,2,,59,0
10752,note_on,,0,0,0,,,1,,71,95
10752,note_on,,0,0,0,,,3,,57,95
10776,note_on,,24,0,0,,,0,,83,0
10776,note_on,,0,0,0,,,0,,86,95
10776,note_on,,0,0,0,,,1,,71,0
10776,note_on,,0,0,0,,,1,,74,95
10776,note_on,,0,0,0,,,2,,64,95
10800,note_on,,24,0,0,,,0,,86,0
10800,note_on,,0,0,0,,,0,,84,95
10800,note_on,,0,0,0,,,1,,74,0
10800,note_on,,0,0,0,,,2,,64,0
10800,note_on,,0,0,0,,,1,,72,95
10800,note_on,,0,0,0,,,2,,64,95
10824,note_on,,24,0,0,,,2,,64,0
10824,note_on,,0,0,0,,,2,,64,95
10848,note_on,,24,0,0,,,0,,84,0
10848,note_on,,0,0,0,,,0,,88,95
10848,note_on,,0,0,0,,,1,,72,0
10848,note_on,,0,0,0,,,2,,64,0
10848,note_on,,0,0,0,,,1,,76,95
10848,note_on,,0,0,0,,,2,,59,95
10860,note_on,,12,0,0,,,2,,59,0
10860,note_on,,0,0,0,,,2,,60,95
10872,note_on,,12,0,0,,,2,,60,0
10872,note_on,,0,0,0,,,2,,62,95
10884,note_on,,12,0,0,,,2,,62,0
10884,note_on,,0,0,0,,,2,,60,95
10896,note_on,,12,0,0,,,2,,60,0
10896,note_on,,0,0,0,,,2,,63,95
10920,note_on,,24,0,0,,,0,,88,0
10920,note_on,,0,0,0,,,0,,84,95
10920,note_on,,0,0,0,,,1,,76,0
10920,note_on,,0,0,0,,,2,,63,0
10920,note_on,,0,0,0,,,1,,72,95
10920,note_on,,0,0,0,,,2,,64,95
10944,note_on,,24,0,0,,,3,,57,0
10944,note_on,,0,0,0,,,0,,82,95
10944,note_on,,0,0,0,,,0,,84,0
10944,note_on,,0,0,0,,,1,,72,0
10944,note_on,,0,0,0,,,2,,64,0
10944,note_on,,0,0,0,,,1,,70,95
10944,note_on,,0,0,0,,,3,,55,95
10968,note_on,,24,0,0,,,0,,82,0
10968,note_on,,0,0,0,,,0,,84,95
10968,note_on,,0,0,0,,,1,,70,0
10968,note_on,,0,0,0,,,1,,72,95
10968,note_on,,0,0,0,,,2,,64,95
10992,note_on,,24,0,0,,,0,,84,0
10992,note_on,,0,0,0,,,0,,83,95
10992,note_on,,0,0,0,,,1,,72,0
10992,note_on,,0,0,0,,,2,,64,0
10992,note_on,,0,0,0,,,1,,71,95
10992,note_on,,0,0,0,,,2,,64,95
11016,note_on,,24,0,0,,,2,,64,0
11016,note_on,,0,0,0,,,2,,64,95
11040,note_on,,24,0,0,,,0,,83,0
11040,note_on,,0,0,0,,,0,,88,95
11040,note_on,,0,0,0,,,1,,71,0
11040,note_on,,0,0,0,,,2,,64,0
11040,note_on,,0,0,0,,,1,,76,95
11040,note_on,,0,0,0,,,2,,58,95
11052,note_on,,12,0,0,,,2,,58,0
11052,note_on,,0,0,0,,,2,,59,95
11064,note_on,,12,0,0,,,2,,59,0
11064,note_on,,0,0,0,,,2,,60,95
11076,note_on,,12,0,0,,,2,,60,0
11076,note_on,,0,0,0,,,2,,59,95
11088,note_on,,12,0,0,,,2,,59,0
11088,note_on,,0,0,0,,,2,,64,95
11112,note_on,,24,0,0,,,0,,88,0
11112,note_on,,0,0,0,,,0,,83,95
11112,note_on,,0,0,0,,,1,,76,0
11112,note_on,,0,0,0,,,2,,64,0
11112,note_on,,0,0,0,,,1,,71,95
11112,note_on,,0,0,0,,,2,,67,95
11136,note_on,,24,0,0,,,3,,55,0
11136,note_on,,0,0,0,,,0,,81,95
11136,note_on,,0,0,0,,,0,,83,0
11136,note_on,,0,0,0,,,1,,71,0
11136,note_on,,0,0,0,,,2,,67,0
11136,note_on,,0,0,0,,,1,,69,95
11136,note_on,,0,0,0,,,3,,54,95
11160,note_on,,24,0,0,,,0,,81,0
11160,note_on,,0,0,0,,,0,,83,95
11160,note_on,,0,0,0,,,1,,69,0
11160,note_on,,0,0,0,,,3,,54,0
11160,note_on,,0,0,0,,,1,,71,95
11160,note_on,,0,0,0,,,3,,55,95
11184,note_on,,24,0,0,,,0,,83,0
11184,note_on,,0,0,0,,,0,,84,95
11184,note_on,,0,0,0,,,1,,71,0
11184,note_on,,0,0,0,,,3,,55,0
11184,note_on,,0,0,0,,,1,,72,95
11184,note_on,,0,0,0,,,2,,59,95
11184,note_on,,0,0,0,,,3,,57,95
11208,note_on,,24,0,0,,,0,,84,0
11208,note_on,,0,0,0,,,0,,81,95
11208,note_on,,0,0,0,,,1,,72,0
11208,note_on,,0,0,0,,,2,,59,0
11208,note_on,,0,0,0,,,3,,57,0
11208,note_on,,0,0,0,,,1,,69,95
11208,note_on,,0,0,0,,,2,,59,95
11208,note_on,,0,0,0,,,3,,54,95
11232,note_on,,24,0,0,,,0,,81,0
11232,note_on,,0,0,0,,,0,,79,95
11232,note_on,,0,0,0,,,1,,69,0
11232,note_on,,0,0,0,,,2,,59,0
11232,note_on,,0,0,0,,,3,,54,0
11232,note_on,,0,0,0,,,1,,67,95
11232,note_on,,0,0,0,,,3,,52,95
11256,note_on,,24,0,0,,,0,,79,0
11256,note_on,,0,0,0,,,0,,82,95
11256,note_on,,0,0,0,,,1,,67,0
11256,note_on,,0,0,0,,,3,,52,0
11256,note_on,,0,0,0,,,1,,70,95
11256,note_on,,0,0,0,,,3,,54,95
11280,note_on,,24,0,0,,,0,,82,0
11280,note_on,,0,0,0,,,0,,83,95
11280,note_on,,0,0,0,,,1,,70,0
11280,note_on,,0,0,0,,,3,,54,0
11280,note_on,,0,0,0,,,1,,71,95
11280,note_on,,0,0,0,,,2,,59,95
11280,note_on,,0,0,0,,,3,,55,95
11304,note_on,,24,0,0,,,0,,83,0
11304,note_on,,0,0,0,,,0,,79,95
11304,note_on,,0,0,0,,,1,,71,0
11304,note_on,,0,0,0,,,2,,59,0
11304,note_on,,0,0,0,,,3,,55,0
11304,note_on,,0,0,0,,,1,,67,95
11304,note_on,,0,0,0,,,2,,59,95
11304,note_on,,0,0,0,,,3,,52,95
11328,note_on,,24,0,0,,,0,,79,0
11328,note_on,,0,0,0,,,0,,78,95
11328,note_on,,0,0,0,,,1,,67,0
11328,note_on,,0,0,0,,,2,,59,0
11328,note_on,,0,0,0,,,3,,52,0
11328,note_on,,0,0,0,,,1,,75,95
11328,note_on,,0,0,0,,,2,,66,95
11328,note_on,,0,0,0,,,3,,59,95
11328,note_on,,0,0,0,,,4,,47,95
11352,note_on,,24,0,0,,,3,,59,0
11352,note_on,,0,0,0,,,3,,58,95
11376,note_on,,24,0,0,,,3,,58,0
11376,note_on,,0,0,0,,,3,,59,95
11400,note_on,,24,0,0,,,3,,59,0
11400,note_on,,0,0,0,,,3,,60,95
11424,note_on,,24,0,0,,,0,,78,0
11424,note_on,,0,0,0,,,1,,75,0
11424,note_on,,0,0,0,,,2,,66,0
11424,note_on,,0,0,0,,,3,,60,0
11424,note_on,,0,0,0,,,3,,59,95
11448,note_on,,24,0,0,,,3,,59,0
11448,note_on,,0,0,0,,,3,,57,95
11472,note_on,,24,0,0,,,3,,57,0
11472,note_on,,0,0,0,,,3,,54,95
11496,note_on,,24,0,0,,,3,,54,0
11496,note_on,,0,0,0,,,3,,51,95
11520,note_on,,24,0,0,,,4,,47,0
11520,note_on,,0,0,0,,,0,,69,95
11520,note_on,,0,0,0,,,3,,51,0
11520,note_on,,0,0,0,,,1,,57,95
11520,note_on,,0,0,0,,,3,,42,95
11544,note_on,,24,0,0,,,0,,69,0
11544,note_on,,0,0,0,,,0,,71,95
11544,note_on,,0,0,0,,,1,,57,0
11544,note_on,,0,0,0,,,3,,42,0
11544,note_on,,0,0,0,,,1,,59,95
11544,note_on,,0,0,0,,,3,,43,95
11568,note_on,,24,0,0,,,0,,71,0
11568,note_on,,0,0,0,,,0,,72,95
11568,note_on,,0,0,0,,,1,,59,0
11568,note_on,,0,0,0,,,3,,43,0
11568,note_on,,0,0,0,,,1,,60,95
11568,note_on,,0,0,0,,,2,,47,95
11568,note_on,,0,0,0,,,3,,45,95
11592,note_on,,24,0,0,,,0,,72,0
11592,note_on,,0,0,0,,,0,,69,95
11592,note_on,,0,0,0,,,1,,60,0
11592,note_on,,0,0,0,,,2,,47,0
11592,note_on,,0,0,0,,,3,,45,0
11592,note_on,,0,0,0,,,1,,57,95
11592,note_on,,0,0,0,,,2,,47,95
11592,note_on,,0,0,0,,,3,,42,95
11616,note_on,,24,0,0,,,0,,69,0
11616,note_on,,0,0,0,,,0,,67,95
11616,note_on,,0,0,0,,,1,,57,0
11616,note_on,,0,0,0,,,2,,47,0
11616,note_on,,0,0,0,,,3,,42,0
11616,note_on,,0,0,0,,,1,,55,95
11616,note_on,,0,0,0,,,3,,40,95
11640,note_on,,24,0,0,,,0,,67,0
11640,note_on,,0,0,0,,,0,,70,95
11640,note_on,,0,0,0,,,1,,55,0
11640,note_on,,0,0,0,,,3,,40,0
11640,note_on,,0,0,0,,,1,,58,95
11640,note_on,,0,0,0,,,3,,42,95
11664,note_on,,24,0,0,,,0,,70,0
11664,note_on,,0,0,0,,,0,,71,95
11664,note_on,,0,0,0,,,1,,58,0
11664,note_on,,0,0,0,,,3,,42,0
11664,note_on,,0,0,0,,,1,,59,95
11664,note_on,,0,0,0,,,2,,47,95
11664,note_on,,0,0,0,,,3,,43,95
11688,note_on,,24,0,0,,,0,,71,0
11688,note_on,,0,0,0,,,0,,67,95
11688,note_on,,0,0,0,,,1,,59,0
11688,note_on,,0,0,0,,,2,,47,0
11688,note_on,,0,0,0,,,3,,43,0
11688,note_on,,0,0,0,,,1,,55,95
11688,note_on,,0,0,0,,,2,,47,95
11688,note_on,,0,0,0,,,3,,40,95
11712,note_on,,24,0,0,,,0,,67,0
11712,note_on,,0,0,0,,,0,,66,95
11712,note_on,,0,0,0,,,1,,55,0
11712,note_on,,0,0,0,,,2,,47,0
11712,note_on,,0,0,0,,,3,,40,0
11712,note_on,,0,0,0,,,1,,63,95
11712,note_on,,0,0,0,,,2,,54,95
11712,note_on,,0,0,0,,,3,,47,95
11712,note_on,,0,0,0,,,4,,35,95
11712,note_on,,0,0,0,,,5,,47,95
11712,note_on,,0,0,0,,,6,,35,95
11760,note_on,,48,0,0,,,3,,47,0
11760,note_on,,0,0,0,,,4,,35,0
11760,note_on,,0,0,0,,,5,,47,0
11760,note_on,,0,0,0,,,6,,35,0
11760,note_on,,0,0,0,,,5,,47,95
11760,note_on,,0,0,0,,,6,,35,95
11784,note_on,,24,0,0,,,5,,47,0
11784,note_on,,0,0,0,,,6,,35,0
11784,note_on,,0,0,0,,,5,,47,95
11784,note_on,,0,0,0,,,6,,35,95
11808,note_on,,24,0,0,,,0,,66,0
11808,note_on,,0,0,0,,,1,,63,0
11808,note_on,,0,0,0,,,2,,54,0
11808,note_on,,0,0,0,,,5,,47,0
11808,note_on,,0,0,0,,,6,,35,0
11808,note_on,,0,0,0,,,5,,47,95
11808,note_on,,0,0,0,,,6,,35,95
11832,note_on,,24,0,0,,,2,,66,95
11832,note_on,,0,0,0,,,3,,62,95
11856,note_on,,24,0,0,,,5,,47,0
11856,note_on,,0,0,0,,,6,,35,0
11856,note_on,,0,0,0,,,2,,66,0
11856,note_on,,0,0,0,,,3,,62,0
11856,note_on,,0,0,0,,,2,,66,95
11856,note_on,,0,0,0,,,3,,64,95
11856,note_on,,0,0,0,,,4,,61,95
11856,note_on,,0,0,0,,,5,,47,95
11856,note_on,,0,0,0,,,6,,35,95
11880,note_on,,24,0,0,,,2,,66,0
11880,note_on,,0,0,0,,,3,,64,0
11880,note_on,,0,0,0,,,4,,61,0
11880,note_on,,0,0,0,,,5,,47,0
11880,note_on,,0,0,0,,,6,,35,0
11880,note_on,,0,0,0,,,2,,66,95
11880,note_on,,0,0,0,,,3,,62,95
11880,note_on,,0,0,0,,,4,,59,95
11880,note_on,,0,0,0,,,5,,47,95
11880,note_on,,0,0,0,,,6,,35,95
11904,note_on,,24,0,0,,,2,,66,0
11904,note_on,,0,0,0,,,0,,66,95
11904,note_on,,0,0,0,,,3,,62,0
11904,note_on,,0,0,0,,,4,,59,0
11904,note_on,,0,0,0,,,5,,47,0
11904,note_on,,0,0,0,,,6,,35,0
11904,note_on,,0,0,0,,,1,,62,95
11904,note_on,,0,0,0,,,2,,56,95
11904,note_on,,0,0,0,,,3,,47,95
11904,note_on,,0,0,0,,,4,,35,95
11928,note_on,,24,0,0,,,1,,62,0
11928,note_on,,0,0,0,,,3,,47,0
11928,note_on,,0,0,0,,,4,,35,0
11928,note_on,,0,0,0,,,1,,59,95
11928,note_on,,0,0,0,,,3,,50,95
11928,note_on,,0,0,0,,,4,,38,95
11952,note_on,,24,0,0,,,0,,66,0
11952,note_on,,0,0,0,,,0,,65,95
11952,note_on,,0,0,0,,,3,,50,0
11952,note_on,,0,0,0,,,4,,38,0
11952,note_on,,0,0,0,,,3,,49,95
11952,note_on,,0,0,0,,,4,,37,95
11976,note_on,,24,0,0,,,2,,56,0
11976,note_on,,0,0,0,,,0,,66,95
11976,note_on,,0,0,0,,,1,,59,0
11976,note_on,,0,0,0,,,0,,65,0
11976,note_on,,0,0,0,,,1,,61,95
11976,note_on,,0,0,0,,,2,,57,95
12000,note_on,,24,0,0,,,0,,66,0
12000,note_on,,0,0,0,,,0,,68,95
12000,note_on,,0,0,0,,,1,,61,0
12000,note_on,,0,0,0,,,2,,57,0
12000,note_on,,0,0,0,,,1,,65,95
12000,note_on,,0,0,0,,,2,,61,95
12024,note_on,,24,0,0,,,3,,49,0
12024,note_on,,0,0,0,,,4,,37,0
12024,note_on,,0,0,0,,,3,,47,95
12024,note_on,,0,0,0,,,4,,35,95
12048,note_on,,24,0,0,,,0,,68,0
12048,note_on,,0,0,0,,,0,,69,95
12048,note_on,,0,0,0,,,1,,65,0
12048,note_on,,0,0,0,,,2,,61,0
12048,note_on,,0,0,0,,,3,,47,0
12048,note_on,,0,0,0,,,4,,35,0
12048,note_on,,0,0,0,,,1,,66,95
12048,note_on,,0,0,0,,,2,,61,95
12048,note_on,,0,0,0,,,3,,45,95
12048,note_on,,0,0,0,,,4,,33,95
12072,note_on,,24,0,0,,,0,,69,0
12072,note_on,,0,0,0,,,0,,73,95
12072,note_on,,0,0,0,,,1,,66,0
12072,note_on,,0,0,0,,,2,,61,0
12072,note_on,,0,0,0,,,3,,45,0
12072,note_on,,0,0,0,,,4,,33,0
12072,note_on,,0,0,0,,,1,,65,95
12072,note_on,,0,0,0,,,2,,61,95
12072,note_on,,0,0,0,,,3,,44,95
12072,note_on,,0,0,0,,,4,,32,95
12096,note_on,,24,0,0,,,0,,73,0
12096,note_on,,0,0,0,,,0,,71,95
12096,note_on,,0,0,0,,,1,,65,0
12096,note_on,,0,0,0,,,2,,61,0
12096,note_on,,0,0,0,,,3,,44,0
12096,note_on,,0,0,0,,,4,,32,0
12096,note_on,,0,0,0,,,1,,66,95
12096,note_on,,0,0,0,,,2,,61,95
12096,note_on,,0,0,0,,,3,,42,95
12096,note_on,,0,0,0,,,4,,30,95
12144,note_on,,48,0,0,,,0,,71,0
12144,note_on,,0,0,0,,,0,,69,95
12168,note_on,,24,0,0,,,1,,66,0
12168,note_on,,0,0,0,,,0,,68,95
12168,note_on,,0,0,0,,,2,,61,0
12168,note_on,,0,0,0,,,0,,69,0
12168,note_on,,0,0,0,,,1,,61,95
12168,note_on,,0,0,0,,,2,,59,95
12192,note_on,,24,0,0,,,0,,68,0
12192,note_on,,0,0,0,,,0,,66,95
12192,note_on,,0,0,0,,,1,,61,0
12192,note_on,,0,0,0,,,2,,59,0
12192,note_on,,0,0,0,,,1,,61,95
12192,note_on,,0,0,0,,,2,,57,95
12216,note_on,,24,0,0,,,3,,42,0
12216,note_on,,0,0,0,,,4,,30,0
12216,note_on,,0,0,0,,,3,,44,95
12216,note_on,,0,0,0,,,4,,32,95
12240,note_on,,24,0,0,,,3,,44,0
12240,note_on,,0,0,0,,,4,,32,0
12240,note_on,,0,0,0,,,3,,45,95
12240,note_on,,0,0,0,,,4,,33,95
12264,note_on,,24,0,0,,,0,,66,0
12264,note_on,,0,0,0,,,0,,64,95
12264,note_on,,0,0,0,,,1,,61,0
12264,note_on,,0,0,0,,,2,,57,0
12264,note_on,,0,0,0,,,3,,45,0
12264,note_on,,0,0,0,,,4,,33,0
12264,note_on,,0,0,0,,,1,,61,95
12264,note_on,,0,0,0,,,2,,56,95
12264,note_on,,0,0,0,,,3,,46,95
12264,note_on,,0,0,0,,,4,,34,95
12288,note_on,,24,0,0,,,1,,61,0
12288,note_on,,0,0,0,,,2,,56,0
12288,note_on,,0,0,0,,,3,,46,0
12288,note_on,,0,0,0,,,4,,34,0
12288,note_on,,0,0,0,,,1,,61,95
12288,note_on,,0,0,0,,,2,,54,95
12288,note_on,,0,0,0,,,3,,46,95
12288,note_on,,0,0,0,,,4,,34,95
12312,note_on,,24,0,0,,,1,,61,0
12312,note_on,,0,0,0,,,3,,46,0
12312,note_on,,0,0,0,,,4,,34,0
12312,note_on,,0,0,0,,,1,,58,95
12312,note_on,,0,0,0,,,3,,49,95
12312,note_on,,0,0,0,,,4,,37,95
12336,note_on,,24,0,0,,,0,,64,0
12336,note_on,,0,0,0,,,0,,63,95
12336,note_on,,0,0,0,,,1,,58,0
12336,note_on,,0,0,0,,,3,,49,0
12336,note_on,,0,0,0,,,4,,37,0
12336,note_on,,0,0,0,,,1,,59,95
12336,note_on,,0,0,0,,,3,,47,95
12336,note_on,,0,0,0,,,4,,35,95
12360,note_on,,24,0,0,,,2,,54,0
12360,note_on,,0,0,0,,,0,,64,95
12360,note_on,,0,0,0,,,0,,63,0
12360,note_on,,0,0,0,,,2,,56,95
12384,note_on,,24,0,0,,,1,,59,0
12384,note_on,,0,0,0,,,0,,66,95
12384,note_on,,0,0,0,,,0,,64,0
12384,note_on,,0,0,0,,,2,,56,0
12384,note_on,,0,0,0,,,1,,63,95
12384,note_on,,0,0,0,,,2,,59,95
12408,note_on,,24,0,0,,,3,,47,0
12408,note_on,,0,0,0,,,4,,35,0
12408,note_on,,0,0,0,,,3,,45,95
12408,note_on,,0,0,0,,,4,,33,95
12432,note_on,,24,0,0,,,0,,66,0
12432,note_on,,0,0,0,,,0,,68,95
12432,note_on,,0,0,0,,,1,,63,0
12432,note_on,,0,0,0,,,2,,59,0
12432,note_on,,0,0,0,,,3,,45,0
12432,note_on,,0,0,0,,,4,,33,0
12432,note_on,,0,0,0,,,1,,64,95
12432,note_on,,0,0,0,,,2,,59,95
12432,note_on,,0,0,0,,,3,,44,95
12432,note_on,,0,0,0,,,4,,32,95
12456,note_on,,24,0,0,,,0,,68,0
12456,note_on,,0,0,0,,,0,,71,95
12456,note_on,,0,0,0,,,1,,64,0
12456,note_on,,0,0,0,,,2,,59,0
12456,note_on,,0,0,0,,,3,,44,0
12456,note_on,,0,0,0,,,4,,32,0
12456,note_on,,0,0,0,,,1,,63,95
12456,note_on,,0,0,0,,,2,,59,95
12456,note_on,,0,0,0,,,3,,42,95
12456,note_on,,0,0,0,,,4,,30,95
12480,note_on,,24,0,0,,,0,,71,0
12480,note_on,,0,0,0,,,0,,69,95
12480,note_on,,0,0,0,,,1,,63,0
12480,note_on,,0,0,0,,,2,,59,0
12480,note_on,,0,0,0,,,3,,42,0
12480,note_on,,0,0,0,,,4,,30,0
12480,note_on,,0,0,0,,,1,,64,95
12480,note_on,,0,0,0,,,2,,59,95
12480,note_on,,0,0,0,,,3,,40,95
12480,note_on,,0,0,0,,,4,,28,95
12528,note_on,,48,0,0,,,0,,69,0
12528,note_on,,0,0,0,,,0,,68,95
12552,note_on,,24,0,0,,,1,,64,0
12552,note_on,,0,0,0,,,0,,66,95
12552,note_on,,0,0,0,,,2,,59,0
12552,note_on,,0,0,0,,,0,,68,0
12552,note_on,,0,0,0,,,1,,59,95
12552,note_on,,0,0,0,,,2,,57,95
12576,note_on,,24,0,0,,,0,,66,0
12576,note_on,,0,0,0,,,0,,64,95
12576,note_on,,0,0,0,,,1,,59,0
12576,note_on,,0,0,0,,,2,,57,0
12576,note_on,,0,0,0,,,1,,59,95
12576,note_on,,0,0,0,,,2,,56,95
12624,note_on,,48,0,0,,,3,,40,0
12624,note_on,,0,0,0,,,0,,64,95
12624,note_on,,0,0,0,,,4,,28,0
12624,note_on,,0,0,0,,,0,,64,0
12624,note_on,,0,0,0,,,1,,59,0
12624,note_on,,0,0,0,,,2,,56,0
12624,note_on,,0,0,0,,,1,,59,95
12624,note_on,,0,0,0,,,2,,56,95
12624,note_on,,0,0,0,,,3,,38,95
12672,note_on,,48,0,0,,,0,,64,0
12672,note_on,,0,0,0,,,0,,64,95
12672,note_on,,0,0,0,,,1,,59,0
12672,note_on,,0,0,0,,,2,,56,0
12672,note_on,,0,0,0,,,3,,38,0
12672,note_on,,0,0,0,,,1,,60,95
12672,note_on,,0,0,0,,,2,,55,95
12672,note_on,,0,0,0,,,3,,52,95
12672,note_on,,0,0,0,,,4,,48,95
12672,note_on,,0,0,0,,,5,,60,95
12672,note_on,,0,0,0,,,6,,55,95
12672,note_on,,0,0,0,,,7,,43,95
12672,note_on,,0,0,0,,,8,,36,95
12684,note_on,,12,0,0,,,5,,60,0
12684,note_on,,0,0,0,,,6,,55,0
12684,note_on,,0,0,0,,,7,,43,0
12684,note_on,,0,0,0,,,8,,36,0
12684,note_on,,0,0,0,,,5,,64,95
12684,note_on,,0,0,0,,,7,,48,95
12696,note_on,,12,0,0,,,5,,64,0
12696,note_on,,0,0,0,,,7,,48,0
12696,note_on,,0,0,0,,,5,,60,95
12696,note_on,,0,0,0,,,6,,55,95
12696,note_on,,0,0,0,,,7,,43,95
12696,note_on,,0,0,0,,,8,,36,95
12708,note_on,,12,0,0,,,5,,60,0
12708,note_on,,0,0,0,,,6,,55,0
12708,note_on,,0,0,0,,,7,,43,0
12708,note_on,,0,0,0,,,8,,36,0
12708,note_on,,0,0,0,,,5,,64,95
12708,note_on,,0,0,0,,,7,,48,95
12720,note_on,,12,0,0,,,0,,64,0
12720,note_on,,0,0,0,,,0,,64,95
12720,note_on,,0,0,0,,,1,,60,0
12720,note_on,,0,0,0,,,2,,55,0
12720,note_on,,0,0,0,,,3,,52,0
12720,note_on,,0,0,0,,,4,,48,0
12720,note_on,,0,0,0,,,5,,64,0
12720,note_on,,0,0,0,,,7,,48,0
12720,note_on,,0,0,0,,,1,,60,95
12720,note_on,,0,0,0,,,2,,55,95
12720,note_on,,0,0,0,,,3,,52,95
12720,note_on,,0,0,0,,,4,,48,95
12720,note_on,,0,0,0,,,5,,60,95
12720,note_on,,0,0,0,,,6,,55,95
12720,note_on,,0,0,0,,,7,,43,95
12720,note_on,,0,0,0,,,8,,36,95
12732,note_on,,12,0,0,,,5,,60,0
12732,note_on,,0,0,0,,,6,,55,0
12732,note_on,,0,0,0,,,7,,43,0
12732,note_on,,0,0,0,,,8,,36,0
12732,note_on,,0,0,0,,,5,,64,95
12732,note_on,,0,0,0,,,7,,48,95
12744,note_on,,12,0,0,,,0,,64,0
12744,note_on,,0,0,0,,,0,,64,95
12744,note_on,,0,0,0,,,1,,60,0
12744,note_on,,0,0,0,,,2,,55,0
12744,note_on,,0,0,0,,,3,,52,0
12744,note_on,,0,0,0,,,4,,48,0
12744,note_on,,0,0,0,,,5,,64,0
12744,note_on,,0,0,0,,,7,,48,0
12744,note_on,,0,0,0,,,1,,60,95
12744,note_on,,0,0,0,,,2,,55,95
12744,note_on,,0,0,0,,,3,,52,95
12744,note_on,,0,0,0,,,4,,48,95
12744,note_on,,0,0,0,,,5,,60,95
12744,note_on,,0,0,0,,,6,,55,95
12744,note_on,,0,0,0,,,7,,43,95
12744,note_on,,0,0,0,,,8,,36,95
12756,note_on,,12,0,0,,,5,,60,0
12756,note_on,,0,0,0,,,6,,55,0
12756,note_on,,0,0,0,,,7,,43,0
12756,note_on,,0,0,0,,,8,,36,0
12756,note_on,,0,0,0,,,5,,64,95
12756,note_on,,0,0,0,,,7,,48,95
12768,note_on,,12,0,0,,,0,,64,0
12768,note_on,,0,0,0,,,0,,64,95
12768,note_on,,0,0,0,,,1,,60,0
12768,note_on,,0,0,0,,,2,,55,0
12768,note_on,,0,0,0,,,3,,52,0
12768,note_on,,0,0,0,,,4,,48,0
12768,note_on,,0,0,0,,,5,,64,0
12768,note_on,,0,0,0,,,7,,48,0
12768,note_on,,0,0,0,,,1,,60,95
12768,note_on,,0,0,0,,,2,,55,95
12768,note_on,,0,0,0,,,3,,52,95
12768,note_on,,0,0,0,,,4,,48,95
12768,note_on,,0,0,0,,,5,,60,95
12768,note_on,,0,0,0,,,6,,55,95
12768,note_on,,0,0,0,,,7,,43,95
12768,note_on,,0,0,0,,,8,,36,95
12780,note_on,,12,0,0,,,5,,60,0
12780,note_on,,0,0,0,,,6,,55,0
12780,note_on,,0,0,0,,,7,,43,0
12780,note_on,,0,0,0,,,8,,36,0
12780,note_on,,0,0,0,,,5,,64,95
12780,note_on,,0,0,0,,,7,,48,95
12792,note_on,,12,0,0,,,5,,64,0
12792,note_on,,0,0,0,,,7,,48,0
12792,note_on,,0,0,0,,,5,,60,95
12792,note_on,,0,0,0,,,6,,55,95
12792,note_on,,0,0,0,,,7,,43,95
12792,note_on,,0,0,0,,,8,,36,95
12804,note_on,,12,0,0,,,5,,60,0
12804,note_on,,0,0,0,,,6,,55,0
12804,note_on,,0,0,0,,,7,,43,0
12804,note_on,,0,0,0,,,8,,36,0
12804,note_on,,0,0,0,,,5,,64,95
12804,note_on,,0,0,0,,,7,,48,95
12816,note_on,,12,0,0,,,0,,64,0
12816,note_on,,0,0,0,,,0,,64,95
12816,note_on,,0,0,0,,,1,,60,0
12816,note_on,,0,0,0,,,2,,55,0
12816,note_on,,0,0,0,,,3,,52,0
12816,note_on,,0,0,0,,,4,,48,0
12816,note_on,,0,0,0,,,5,,64,0
12816,note_on,,0,0,0,,,7,,48,0
12816,note_on,,0,0,0,,,1,,60,95
12816,note_on,,0,0,0,,,2,,55,95
12816,note_on,,0,0,0,,,3,,52,95
12816,note_on,,0,0,0,,,4,,48,95
12816,note_on,,0,0,0,,,5,,60,95
12816,note_on,,0,0,0,,,6,,55,95
12816,note_on,,0,0,0,,,7,,43,95
12816,note_on,,0,0,0,,,8,,36,95
12828,note_on,,12,0,0,,,5,,60,0
12828,note_on,,0,0,0,,,6,,55,0
12828,note_on,,0,0,0,,,7,,43,0
12828,note_on,,0,0,0,,,8,,36,0
12828,note_on,,0,0,0,,,5,,64,95
12828,note_on,,0,0,0,,,7,,48,95
12840,note_on,,12,0,0,,,0,,64,0
12840,note_on,,0,0,0,,,0,,64,95
12840,note_on,,0,0,0,,,1,,60,0
12840,note_on,,0,0,0,,,2,,55,0
12840,note_on,,0,0,0,,,3,,52,0
12840,note_on,,0,0,0,,,4,,48,0
12840,note_on,,0,0,0,,,5,,64,0
12840,note_on,,0,0,0,,,7,,48,0
12840,note_on,,0,0,0,,,1,,60,95
12840,note_on,,0,0,0,,,2,,55,95
12840,note_on,,0,0,0,,,3,,52,95
12840,note_on,,0,0,0,,,4,,48,95
12840,note_on,,0,0,0,,,5,,60,95
12840,note_on,,0,0,0,,,6,,55,95
12840,note_on,,0,0,0,,,7,,43,95
12840,note_on,,0,0,0,,,8,,36,95
12852,note_on,,12,0,0,,,5,,60,0
12852,note_on,,0,0,0,,,6,,55,0
12852,note_on,,0,0,0,,,7,,43,0
12852,note_on,,0,0,0,,,8,,36,0
12852,note_on,,0,0,0,,,5,,64,95
12852,note_on,,0,0,0,,,7,,48,95
12864,note_on,,12,0,0,,,0,,64,0
12864,note_on,,0,0,0,,,0,,67,95
12864,note_on,,0,0,0,,,1,,60,0
12864,note_on,,0,0,0,,,2,,55,0
12864,note_on,,0,0,0,,,3,,52,0
12864,note_on,,0,0,0,,,4,,48,0
12864,note_on,,0,0,0,,,5,,64,0
12864,note_on,,0,0,0,,,7,,48,0
12864,note_on,,0,0,0,,,1,,64,95
12864,note_on,,0,0,0,,,2,,60,95
12864,note_on,,0,0,0,,,3,,55,95
12864,note_on,,0,0,0,,,4,,48,95
12864,note_on,,0,0,0,,,5,,64,95
12864,note_on,,0,0,0,,,6,,55,95
12864,note_on,,0,0,0,,,7,,43,95
12864,note_on,,0,0,0,,,8,,36,95
12876,note_on,,12,0,0,,,5,,64,0
12876,note_on,,0,0,0,,,6,,55,0
12876,note_on,,0,0,0,,,7,,43,0
12876,note_on,,0,0,0,,,8,,36,0
12876,note_on,,0,0,0,,,5,,67,95
12876,note_on,,0,0,0,,,7,,48,95
12888,note_on,,12,0,0,,,5,,67,0
12888,note_on,,0,0,0,,,7,,48,0
12888,note_on,,0,0,0,,,5,,64,95
12888,note_on,,0,0,0,,,6,,55,95
12888,note_on,,0,0,0,,,7,,43,95
12888,note_on,,0,0,0,,,8,,36,95
12900,note_on,,12,0,0,,,5,,64,0
12900,note_on,,0,0,0,,,6,,55,0
12900,note_on,,0,0,0,,,7,,43,0
12900,note_on,,0,0,0,,,8,,36,0
12900,note_on,,0,0,0,,,5,,67,95
12900,note_on,,0,0,0,,,7,,48,95
12912,note_on,,12,0,0,,,0,,67,0
12912,note_on,,0,0,0,,,0,,67,95
12912,note_on,,0,0,0,,,1,,64,0
12912,note_on,,0,0,0,,,2,,60,0
12912,note_on,,0,0,0,,,3,,55,0
12912,note_on,,0,0,0,,,4,,48,0
12912,note_on,,0,0,0,,,5,,67,0
12912,note_on,,0,0,0,,,7,,48,0
12912,note_on,,0,0,0,,,1,,64,95
12912,note_on,,0,0,0,,,2,,60,95
12912,note_on,,0,0,0,,,3,,55,95
12912,note_on,,0,0,0,,,4,,48,95
12912,note_on,,0,0,0,,,5,,64,95
12912,note_on,,0,0,0,,,6,,55,95
12912,note_on,,0,0,0,,,7,,43,95
12912,note_on,,0,0,0,,,8,,36,95
12924,note_on,,12,0,0,,,5,,64,0
12924,note_on,,0,0,0,,,6,,55,0
12924,note_on,,0,0,0,,,7,,43,0
12924,note_on,,0,0,0,,,8,,36,0
12924,note_on,,0,0,0,,,5,,67,95
12924,note_on,,0,0,0,,,7,,48,95
12936,note_on,,12,0,0,,,0,,67,0
12936,note_on,,0,0,0,,,0,,67,95
12936,note_on,,0,0,0,,,1,,64,0
12936,note_on,,0,0,0,,,2,,60,0
12936,note_on,,0,0,0,,,3,,55,0
12936,note_on,,0,0,0,,,4,,48,0
12936,note_on,,0,0,0,,,5,,67,0
12936,note_on,,0,0,0,,,7,,48,0
12936,note_on,,0,0,0,,,1,,64,95
12936,note_on,,0,0,0,,,2,,60,95
12936,note_on,,0,0,0,,,3,,55,95
12936,note_on,,0,0,0,,,4,,48,95
12936,note_on,,0,0,0,,,5,,64,95
12936,note_on,,0,0,0,,,6,,55,95
12936,note_on,,0,0,0,,,7,,43,95
12936,note_on,,0,0,0,,,8,,36,95
12948,note_on,,12,0,0,,,5,,64,0
12948,note_on,,0,0,0,,,6,,55,0
12948,note_on,,0,0,0,,,7,,43,0
12948,note_on,,0,0,0,,,8,,36,0
12948,note_on,,0,0,0,,,5,,67,95
12948,note_on,,0,0,0,,,7,,48,95
12960,note_on,,12,0,0,,,0,,67,0
12960,note_on,,0,0,0,,,0,,72,95
12960,note_on,,0,0,0,,,1,,64,0
12960,note_on,,0,0,0,,,2,,60,0
12960,note_on,,0,0,0,,,3,,55,0
12960,note_on,,0,0,0,,,4,,48,0
12960,note_on,,0,0,0,,,5,,67,0
12960,note_on,,0,0,0,,,7,,48,0
12960,note_on,,0,0,0,,,1,,67,95
12960,note_on,,0,0,0,,,2,,64,95
12960,note_on,,0,0,0,,,3,,60,95
12960,note_on,,0,0,0,,,4,,48,95
12960,note_on,,0,0,0,,,5,,64,95
12960,note_on,,0,0,0,,,7,,43,95
12960,note_on,,0,0,0,,,8,,36,95
12972,note_on,,12,0,0,,,5,,64,0
12972,note_on,,0,0,0,,,7,,43,0
12972,note_on,,0,0,0,,,8,,36,0
12972,note_on,,0,0,0,,,5,,72,95
12972,note_on,,0,0,0,,,7,,48,95
12984,note_on,,12,0,0,,,5,,72,0
12984,note_on,,0,0,0,,,7,,48,0
12984,note_on,,0,0,0,,,5,,64,95
12984,note_on,,0,0,0,,,7,,43,95
12984,note_on,,0,0,0,,,8,,36,95
12996,note_on,,12,0,0,,,5,,64,0
12996,note_on,,0,0,0,,,7,,43,0
12996,note_on,,0,0,0,,,8,,36,0
12996,note_on,,0,0,0,,,5,,72,95
12996,note_on,,0,0,0,,,7,,48,95
13008,note_on,,12,0,0,,,0,,72,0
13008,note_on,,0,0,0,,,0,,72,95
13008,note_on,,0,0,0,,,1,,67,0
13008,note_on,,0,0,0,,,2,,64,0
13008,note_on,,0,0,0,,,3,,60,0
13008,note_on,,0,0,0,,,4,,48,0
13008,note_on,,0,0,0,,,5,,72,0
13008,note_on,,0,0,0,,,7,,48,0
13008,note_on,,0,0,0,,,1,,67,95
13008,note_on,,0,0,0,,,2,,64,95
13008,note_on,,0,0,0,,,3,,60,95
13008,note_on,,0,0,0,,,4,,48,95
13008,note_on,,0,0,0,,,5,,64,95
13008,note_on,,0,0,0,,,7,,43,95
13008,note_on,,0,0,0,,,8,,36,95
13020,note_on,,12,0,0,,,5,,64,0
13020,note_on,,0,0,0,,,7,,43,0
13020,note_on,,0,0,0,,,8,,36,0
13020,note_on,,0,0,0,,,5,,72,95
13020,note_on,,0,0,0,,,7,,48,95
13032,note_on,,12,0,0,,,0,,72,0
13032,note_on,,0,0,0,,,0,,72,95
13032,note_on,,0,0,0,,,1,,67,0
13032,note_on,,0,0,0,,,2,,64,0
13032,note_on,,0,0,0,,,3,,60,0
13032,note_on,,0,0,0,,,4,,48,0
13032,note_on,,0,0,0,,,5,,72,0
13032,note_on,,0,0,0,,,7,,48,0
13032,note_on,,0,0,0,,,1,,67,95
13032,note_on,,0,0,0,,,2,,64,95
13032,note_on,,0,0,0,,,3,,60,95
13032,note_on,,0,0,0,,,4,,48,95
13032,note_on,,0,0,0,,,5,,64,95
13032,note_on,,0,0,0,,,7,,43,95
13032,note_on,,0,0,0,,,8,,36,95
13044,note_on,,12,0,0,,,5,,64,0
13044,note_on,,0,0,0,,,7,,43,0
13044,note_on,,0,0,0,,,8,,36,0
13044,note_on,,0,0,0,,,5,,72,95
13044,note_on,,0,0,0,,,7,,48,95
13056,note_on,,12,0,0,,,0,,72,0
13056,note_on,,0,0,0,,,0,,76,95
13056,note_on,,0,0,0,,,1,,67,0
13056,note_on,,0,0,0,,,2,,64,0
13056,note_on,,0,0,0,,,3,,60,0
13056,note_on,,0,0,0,,,4,,48,0
13056,note_on,,0,0,0,,,5,,72,0
13056,note_on,,0,0,0,,,7,,48,0
13056,note_on,,0,0,0,,,1,,72,95
13056,note_on,,0,0,0,,,2,,67,95
13056,note_on,,0,0,0,,,3,,64,95
13056,note_on,,0,0,0,,,4,,48,95
13056,note_on,,0,0,0,,,5,,43,95
13056,note_on,,0,0,0,,,6,,64,95
13056,note_on,,0,0,0,,,7,,43,95
13056,note_on,,0,0,0,,,8,,36,95
13068,note_on,,12,0,0,,,6,,64,0
13068,note_on,,0,0,0,,,7,,43,0
13068,note_on,,0,0,0,,,8,,36,0
13068,note_on,,0,0,0,,,6,,76,95
13068,note_on,,0,0,0,,,7,,48,95
13080,note_on,,12,0,0,,,6,,76,0
13080,note_on,,0,0,0,,,7,,48,0
13080,note_on,,0,0,0,,,6,,64,95
13080,note_on,,0,0,0,,,7,,43,95
13080,note_on,,0,0,0,,,8,,36,95
13092,note_on,,12,0,0,,,6,,64,0
13092,note_on,,0,0,0,,,7,,43,0
13092,note_on,,0,0,0,,,8,,36,0
13092,note_on,,0,0,0,,,6,,76,95
13092,note_on,,0,0,0,,,7,,48,95
13104,note_on,,12,0,0,,,0,,76,0
13104,note_on,,0,0,0,,,0,,79,95
13104,note_on,,0,0,0,,,1,,72,0
13104,note_on,,0,0,0,,,2,,67,0
13104,note_on,,0,0,0,,,3,,64,0
13104,note_on,,0,0,0,,,4,,48,0
13104,note_on,,0,0,0,,,5,,43,0
13104,note_on,,0,0,0,,,6,,76,0
13104,note_on,,0,0,0,,,7,,48,0
13104,note_on,,0,0,0,,,1,,76,95
13104,note_on,,0,0,0,,,2,,72,95
13104,note_on,,0,0,0,,,3,,55,95
13104,note_on,,0,0,0,,,4,,52,95
13104,note_on,,0,0,0,,,5,,48,95
13104,note_on,,0,0,0,,,6,,67,95
13104,note_on,,0,0,0,,,7,,43,95
13104,note_on,,0,0,0,,,8,,36,95
13116,note_on,,12,0,0,,,6,,67,0
13116,note_on,,0,0,0,,,7,,43,0
13116,note_on,,0,0,0,,,8,,36,0
13116,note_on,,0,0,0,,,6,,79,95
13116,note_on,,0,0,0,,,7,,48,95
13128,note_on,,12,0,0,,,0,,79,0
13128,note_on,,0,0,0,,,0,,79,95
13128,note_on,,0,0,0,,,1,,76,0
13128,note_on,,0,0,0,,,2,,72,0
13128,note_on,,0,0,0,,,3,,55,0
13128,note_on,,0,0,0,,,4,,52,0
13128,note_on,,0,0,0,,,5,,48,0
13128,note_on,,0,0,0,,,6,,79,0
13128,note_on,,0,0,0,,,7,,48,0
13128,note_on,,0,0,0,,,1,,76,95
13128,note_on,,0,0,0,,,2,,72,95
13128,note_on,,0,0,0,,,3,,55,95
13128,note_on,,0,0,0,,,4,,52,95
13128,note_on,,0,0,0,,,5,,48,95
13128,note_on,,0,0,0,,,6,,67,95
13128,note_on,,0,0,0,,,7,,43,95
13128,note_on,,0,0,0,,,8,,36,95
13140,note_on,,12,0,0,,,6,,67,0
13140,note_on,,0,0,0,,,7,,43,0
13140,note_on,,0,0,0,,,8,,36,0
13140,note_on,,0,0,0,,,6,,79,95
13140,note_on,,0,0,0,,,7,,48,95
13152,note_on,,12,0,0,,,0,,79,0
13152,note_on,,0,0,0,,,0,,84,95
13152,note_on,,0,0,0,,,1,,76,0
13152,note_on,,0,0,0,,,2,,72,0
13152,note_on,,0,0,0,,,3,,55,0
13152,note_on,,0,0,0,,,4,,52,0
13152,note_on,,0,0,0,,,5,,48,0
13152,note_on,,0,0,0,,,6,,79,0
13152,note_on,,0,0,0,,,7,,48,0
13152,note_on,,0,0,0,,,1,,79,95
13152,note_on,,0,0,0,,,2,,76,95
13152,note_on,,0,0,0,,,3,,60,95
13152,note_on,,0,0,0,,,4,,55,95
13152,note_on,,0,0,0,,,5,,52,95
13152,note_on,,0,0,0,,,6,,72,95
13152,note_on,,0,0,0,,,7,,43,95
13152,note_on,,0,0,0,,,8,,36,95
13164,note_on,,12,0,0,,,6,,72,0
13164,note_on,,0,0,0,,,7,,43,0
13164,note_on,,0,0,0,,,8,,36,0
13164,note_on,,0,0,0,,,6,,84,95
13164,note_on,,0,0,0,,,7,,48,95
13176,note_on,,12,0,0,,,6,,84,0
13176,note_on,,0,0,0,,,7,,48,0
13176,note_on,,0,0,0,,,6,,72,95
13176,note_on,,0,0,0,,,7,,43,95
13176,note_on,,0,0,0,,,8,,36,95
13188,note_on,,12,0,0,,,6,,72,0
13188,note_on,,0,0,0,,,7,,43,0
13188,note_on,,0,0,0,,,8,,36,0
13188,note_on,,0,0,0,,,6,,84,95
13188,note_on,,0,0,0,,,7,,48,95
13200,note_on,,12,0,0,,,0,,84,0
13200,note_on,,0,0,0,,,0,,88,95
13200,note_on,,0,0,0,,,1,,79,0
13200,note_on,,0,0,0,,,2,,76,0
13200,note_on,,0,0,0,,,3,,60,0
13200,note_on,,0,0,0,,,4,,55,0
13200,note_on,,0,0,0,,,5,,52,0
13200,note_on,,0,0,0,,,6,,84,0
13200,note_on,,0,0,0,,,7,,48,0
13200,note_on,,0,0,0,,,1,,84,95
13200,note_on,,0,0,0,,,2,,79,95
13200,note_on,,0,0,0,,,3,,60,95
13200,note_on,,0,0,0,,,4,,55,95
13200,note_on,,0,0,0,,,5,,52,95
13200,note_on,,0,0,0,,,6,,76,95
13200,note_on,,0,0,0,,,7,,43,95
13200,note_on,,0,0,0,,,8,,36,95
13212,note_on,,12,0,0,,,6,,76,0
13212,note_on,,0,0,0,,,7,,43,0
13212,note_on,,0,0,0,,,8,,36,0
13212,note_on,,0,0,0,,,6,,88,95
13212,note_on,,0,0,0,,,7,,48,95
13224,note_on,,12,0,0,,,0,,88,0
13224,note_on,,0,0,0,,,0,,88,95
13224,note_on,,0,0,0,,,1,,84,0
13224,note_on,,0,0,0,,,2,,79,0
13224,note_on,,0,0,0,,,3,,60,0
13224,note_on,,0,0,0,,,4,,55,0
13224,note_on,,0,0,0,,,5,,52,0
13224,note_on,,0,0,0,,,6,,88,0
13224,note_on,,0,0,0,,,7,,48,0
13224,note_on,,0,0,0,,,1,,84,95
13224,note_on,,0,0,0,,,2,,79,95
13224,note_on,,0,0,0,,,3,,60,95
13224,note_on,,0,0,0,,,4,,55,95
13224,note_on,,0,0,0,,,5,,52,95
13224,note_on,,0,0,0,,,6,,76,95
13224,note_on,,0,0,0,,,7,,43,95
13224,note_on,,0,0,0,,,8,,36,95
13236,note_on,,12,0,0,,,6,,76,0
13236,note_on,,0,0,0,,,7,,43,0
13236,note_on,,0,0,0,,,8,,36,0
13236,note_on,,0,0,0,,,6,,88,95
13236,note_on,,0,0,0,,,7,,48,95
13248,note_on,,12,0,0,,,0,,88,0
13248,note_on,,0,0,0,,,0,,88,95
13248,note_on,,0,0,0,,,1,,84,0
13248,note_on,,0,0,0,,,2,,79,0
13248,note_on,,0,0,0,,,3,,60,0
13248,note_on,,0,0,0,,,4,,55,0
13248,note_on,,0,0,0,,,5,,52,0
13248,note_on,,0,0,0,,,6,,88,0
13248,note_on,,0,0,0,,,7,,48,0
13248,note_on,,0,0,0,,,1,,84,95
13248,note_on,,0,0,0,,,2,,79,95
13248,note_on,,0,0,0,,,3,,67,95
13248,note_on,,0,0,0,,,4,,64,95
13248,note_on,,0,0,0,,,5,,60,95
13248,note_on,,0,0,0,,,6,,48,95
13248,note_on,,0,0,0,,,7,,43,95
13248,note_on,,0,0,0,,,8,,36,95
13296,note_on,,48,0,0,,,0,,88,0
13296,note_on,,0,0,0,,,0,,88,95
13296,note_on,,0,0,0,,,1,,84,0
13296,note_on,,0,0,0,,,2,,79,0
13296,note_on,,0,0,0,,,3,,67,0
13296,note_on,,0,0,0,,,4,,64,0
13296,note_on,,0,0,0,,,5,,60,0
13296,note_on,,0,0,0,,,6,,48,0
13296,note_on,,0,0,0,,,7,,43,0
13296,note_on,,0,0,0,,,8,,36,0
13296,note_on,,0,0,0,,,1,,84,95
13296,note_on,,0,0,0,,,2,,79,95
13296,note_on,,0,0,0,,,3,,76,95
13296,note_on,,0,0,0,,,4,,67,95
13296,note_on,,0,0,0,,,5,,64,95
13296,note_on,,0,0,0,,,6,,60,95
13296,note_on,,0,0,0,,,7,,55,95
13320,note_on,,24,0,0,,,0,,88,0
13320,note_on,,0,0,0,,,0,,88,95
13320,note_on,,0,0,0,,,1,,84,0
13320,note_on,,0,0,0,,,2,,79,0
13320,note_on,,0,0,0,,,3,,76,0
13320,note_on,,0,0,0,,,4,,67,0
13320,note_on,,0,0,0,,,5,,64,0
13320,note_on,,0,0,0,,,6,,60,0
13320,note_on,,0,0,0,,,7,,55,0
13320,note_on,,0,0,0,,,1,,84,95
13320,note_on,,0,0,0,,,2,,79,95
13320,note_on,,0,0,0,,,3,,76,95
13320,note_on,,0,0,0,,,4,,67,95
13320,note_on,,0,0,0,,,5,,64,95
13320,note_on,,0,0,0,,,6,,60,95
13320,note_on,,0,0,0,,,7,,55,95
13344,note_on,,24,0,0,,,0,,88,0
13344,note_on,,0,0,0,,,0,,88,95
13344,note_on,,0,0,0,,,1,,84,0
13344,note_on,,0,0,0,,,2,,79,0
13344,note_on,,0,0,0,,,3,,76,0
13344,note_on,,0,0,0,,,4,,67,0
13344,note_on,,0,0,0,,,5,,64,0
13344,note_on,,0,0,0,,,6,,60,0
13344,note_on,,0,0,0,,,7,,55,0
13344,note_on,,0,0,0,,,1,,84,95
13344,note_on,,0,0,0,,,2,,79,95
13344,note_on,,0,0,0,,,3,,76,95
13344,note_on,,0,0,0,,,4,,67,95
13344,note_on,,0,0,0,,,5,,64,95
13344,note_on,,0,0,0,,,6,,60,95
13344,note_on,,0,0,0,,,7,,55,95
13392,note_on,,48,0,0,,,0,,88,0
13392,note_on,,0,0,0,,,0,,88,95
13392,note_on,,0,0,0,,,1,,84,0
13392,note_on,,0,0,0,,,2,,79,0
13392,note_on,,0,0,0,,,3,,76,0
13392,note_on,,0,0,0,,,4,,67,0
13392,note_on,,0,0,0,,,5,,64,0
13392,note_on,,0,0,0,,,6,,60,0
13392,note_on,,0,0,0,,,7,,55,0
13392,note_on,,0,0,0,,,1,,84,95
13392,note_on,,0,0,0,,,2,,79,95
13392,note_on,,0,0,0,,,3,,76,95
13392,note_on,,0,0,0,,,4,,67,95
13392,note_on,,0,0,0,,,5,,64,95
13392,note_on,,0,0,0,,,6,,60,95
13392,note_on,,0,0,0,,,7,,55,95
13416,note_on,,24,0,0,,,0,,88,0
13416,note_on,,0,0,0,,,0,,88,95
13416,note_on,,0,0,0,,,1,,84,0
13416,note_on,,0,0,0,,,2,,79,0
13416,note_on,,0,0,0,,,3,,76,0
13416,note_on,,0,0,0,,,4,,67,0
13416,note_on,,0,0,0,,,5,,64,0
13416,note_on,,0,0,0,,,6,,60,0
13416,note_on,,0,0,0,,,7,,55,0
13416,note_on,,0,0,0,,,1,,84,95
13416,note_on,,0,0,0,,,2,,79,95
13416,note_on,,0,0,0,,,3,,76,95
13416,note_on,,0,0,0,,,4,,67,95
13416,note_on,,0,0,0,,,5,,64,95
13416,note_on,,0,0,0,,,6,,60,95
13416,note_on,,0,0,0,,,7,,55,95
13440,note_on,,24,0,0,,,0,,88,0
13440,note_on,,0,0,0,,,1,,84,0
13440,note_on,,0,0,0,,,2,,79,0
13440,note_on,,0,0,0,,,3,,76,0
13440,note_on,,0,0,0,,,4,,67,0
13440,note_on,,0,0,0,,,5,,64,0
13440,note_on,,0,0,0,,,6,,60,0
13440,note_on,,0,0,0,,,7,,55,0
13440,note_on,,0,0,0,,,2,,88,95
13440,note_on,,0,0,0,,,3,,84,95
13440,note_on,,0,0,0,,,4,,79,95
13440,note_on,,0,0,0,,,5,,67,95
13440,note_on,,0,0,0,,,6,,64,95
13440,note_on,,0,0,0,,,7,,60,95
13440,note_on,,0,0,0,,,8,,55,95
13464,note_on,,24,0,0,,,0,,67,95
13464,note_on,,0,0,0,,,1,,55,95
13476,note_on,,12,0,0,,,0,,67,0
13476,note_on,,0,0,0,,,0,,64,95
13476,note_on,,0,0,0,,,1,,55,0
13476,note_on,,0,0,0,,,1,,52,95
13488,note_on,,12,0,0,,,2,,88,0
13488,note_on,,0,0,0,,,0,,60,95
13488,note_on,,0,0,0,,,3,,84,0
13488,note_on,,0,0,0,,,4,,79,0
13488,note_on,,0,0,0,,,5,,67,0
13488,note_on,,0,0,0,,,6,,64,0
13488,note_on,,0,0,0,,,7,,60,0
13488,note_on,,0,0,0,,,8,,55,0
13488,note_on,,0,0,0,,,0,,64,0
13488,note_on,,0,0,0,,,1,,52,0
13488,note_on,,0,0,0,,,1,,48,95
13488,note_on,,0,0,0,,,2,,48,95
13488,note_on,,0,0,0,,,3,,36,95
13500,note_on,,12,0,0,,,0,,60,0
13500,note_on,,0,0,0,,,0,,55,95
13500,note_on,,0,0,0,,,1,,48,0
13500,note_on,,0,0,0,,,1,,43,95
13512,note_on,,12,0,0,,,2,,48,0
13512,note_on,,0,0,0,,,0,,52,95
13512,note_on,,0,0,0,,,3,,36,0
13512,note_on,,0,0,0,,,0,,55,0
13512,note_on,,0,0,0,,,1,,43,0
13512,note_on,,0,0,0,,,1,,40,95
13512,note_on,,0,0,0,,,2,,48,95
13512,note_on,,0,0,0,,,3,,36,95
13524,note_on,,12,0,0,,,0,,52,0
13524,note_on,,0,0,0,,,0,,48,95
13524,note_on,,0,0,0,,,1,,40,0
13524,note_on,,0,0,0,,,1,,36,95
13536,note_on,,12,0,0,,,2,,48,0
13536,note_on,,0,0,0,,,0,,47,95
13536,note_on,,0,0,0,,,3,,36,0
13536,note_on,,0,0,0,,,0,,48,0
13536,note_on,,0,0,0,,,1,,36,0
13536,note_on,,0,0,0,,,1,,35,95
13536,note_on,,0,0,0,,,2,,47,95
13536,note_on,,0,0,0,,,3,,35,95
13584,note_on,,48,0,0,,,0,,47,0
13584,note_on,,0,0,0,,,0,,48,95
13584,note_on,,0,0,0,,,1,,35,0
13584,note_on,,0,0,0,,,2,,47,0
13584,note_on,,0,0,0,,,3,,35,0
13584,note_on,,0,0,0,,,1,,36,95
13584,note_on,,0,0,0,,,2,,48,95
13584,note_on,,0,0,0,,,3,,36,95
13608,note_on,,24,0,0,,,0,,48,0
13608,note_on,,0,0,0,,,0,,48,95
13608,note_on,,0,0,0,,,1,,36,0
13608,note_on,,0,0,0,,,2,,48,0
13608,note_on,,0,0,0,,,3,,36,0
13608,note_on,,0,0,0,,,1,,36,95
13608,note_on,,0,0,0,,,2,,48,95
13608,note_on,,0,0,0,,,3,,36,95
13632,note_on,,24,0,0,,,0,,48,0
13632,note_on,,0,0,0,,,0,,49,95
13632,note_on,,0,0,0,,,1,,36,0
13632,note_on,,0,0,0,,,2,,48,0
13632,note_on,,0,0,0,,,3,,36,0
13632,note_on,,0,0,0,,,1,,37,95
13632,note_on,,0,0,0,,,2,,79,95
13632,note_on,,0,0,0,,,3,,71,95
13632,note_on,,0,0,0,,,4,,65,95
13632,note_on,,0,0,0,,,5,,49,95
13632,note_on,,0,0,0,,,6,,37,95
13680,note_on,,48,0,0,,,0,,49,0
13680,note_on,,0,0,0,,,0,,50,95
13680,note_on,,0,0,0,,,1,,37,0
13680,note_on,,0,0,0,,,2,,79,0
13680,note_on,,0,0,0,,,3,,71,0
13680,note_on,,0,0,0,,,4,,65,0
13680,note_on,,0,0,0,,,5,,49,0
13680,note_on,,0,0,0,,,6,,37,0
13680,note_on,,0,0,0,,,1,,38,95
13680,note_on,,0,0,0,,,2,,67,95
13680,note_on,,0,0,0,,,3,,65,95
13680,note_on,,0,0,0,,,4,,59,95
13680,note_on,,0,0,0,,,5,,50,95
13680,note_on,,0,0,0,,,6,,38,95
13728,note_on,,48,0,0,,,0,,50,0
13728,note_on,,0,0,0,,,1,,38,0
13728,note_on,,0,0,0,,,2,,67,0
13728,note_on,,0,0,0,,,3,,65,0
13728,note_on,,0,0,0,,,4,,59,0
13728,note_on,,0,0,0,,,5,,50,0
13728,note_on,,0,0,0,,,6,,38,0
13824,note_on,,96,0,0,,,0,,86,95
13824,note_on,,0,0,0,,,1,,83,95
13824,note_on,,0,0,0,,,2,,77,95
13824,note_on,,0,0,0,,,3,,74,95
13824,note_on,,0,0,0,,,4,,67,95
13824,note_on,,0,0,0,,,5,,62,95
13824,note_on,,0,0,0,,,6,,59,95
13824,note_on,,0,0,0,,,7,,55,95
13872,note_on,,48,0,0,,,0,,86,0
13872,note_on,,0,0,0,,,0,,86,95
13872,note_on,,0,0,0,,,1,,83,0
13872,note_on,,0,0,0,,,2,,77,0
13872,note_on,,0,0,0,,,3,,74,0
13872,note_on,,0,0,0,,,4,,67,0
13872,note_on,,0,0,0,,,5,,62,0
13872,note_on,,0,0,0,,,6,,59,0
13872,note_on,,0,0,0,,,7,,55,0
13872,note_on,,0,0,0,,,1,,83,95
13872,note_on,,0,0,0,,,2,,77,95
13872,note_on,,0,0,0,,,3,,74,95
13872,note_on,,0,0,0,,,4,,67,95
13872,note_on,,0,0,0,,,5,,62,95
13872,note_on,,0,0,0,,,6,,59,95
13872,note_on,,0,0,0,,,7,,55,95
13896,note_on,,24,0,0,,,0,,86,0
13896,note_on,,0,0,0,,,0,,86,95
13896,note_on,,0,0,0,,,1,,83,0
13896,note_on,,0,0,0,,,2,,77,0
13896,note_on,,0,0,0,,,3,,74,0
13896,note_on,,0,0,0,,,4,,67,0
13896,note_on,,0,0,0,,,5,,62,0
13896,note_on,,0,0,0,,,6,,59,0
13896,note_on,,0,0,0,,,7,,55,0
13896,note_on,,0,0,0,,,1,,83,95
13896,note_on,,0,0,0,,,2,,77,95
13896,note_on,,0,0,0,,,3,,74,95
13896,note_on,,0,0,0,,,4,,67,95
13896,note_on,,0,0,0,,,5,,62,95
13896,note_on,,0,0,0,,,6,,59,95
13896,note_on,,0,0,0,,,7,,55,95
13920,note_on,,24,0,0,,,0,,86,0
13920,note_on,,0,0,0,,,0,,86,95
13920,note_on,,0,0,0,,,1,,83,0
13920,note_on,,0,0,0,,,2,,77,0
13920,note_on,,0,0,0,,,3,,74,0
13920,note_on,,0,0,0,,,4,,67,0
13920,note_on,,0,0,0,,,5,,62,0
13920,note_on,,0,0,0,,,6,,59,0
13920,note_on,,0,0,0,,,7,,55,0
13920,note_on,,0,0,0,,,1,,83,95
13920,note_on,,0,0,0,,,2,,77,95
13920,note_on,,0,0,0,,,3,,74,95
13920,note_on,,0,0,0,,,4,,67,95
13920,note_on,,0,0,0,,,5,,62,95
13920,note_on,,0,0,0,,,6,,59,95
13920,note_on,,0,0,0,,,7,,55,95
13968,note_on,,48,0,0,,,0,,86,0
13968,note_on,,0,0,0,,,0,,86,95
13968,note_on,,0,0,0,,,1,,83,0
13968,note_on,,0,0,0,,,2,,77,0
13968,note_on,,0,0,0,,,3,,74,0
13968,note_on,,0,0,0,,,4,,67,0
13968,note_on,,0,0,0,,,5,,62,0
13968,note_on,,0,0,0,,,6,,59,0
13968,note_on,,0,0,0,,,7,,55,0
13968,note_on,,0,0,0,,,1,,83,95
13968,note_on,,0,0,0,,,2,,77,95
13968,note_on,,0,0,0,,,3,,74,95
13968,note_on,,0,0,0,,,4,,67,95
13968,note_on,,0,0,0,,,5,,62,95
13968,note_on,,0,0,0,,,6,,59,95
13968,note_on,,0,0,0,,,7,,55,95
13992,note_on,,24,0,0,,,0,,86,0
13992,note_on,,0,0,0,,,0,,86,95
13992,note_on,,0,0,0,,,1,,83,0
13992,note_on,,0,0,0,,,2,,77,0
13992,note_on,,0,0,0,,,3,,74,0
13992,note_on,,0,0,0,,,4,,67,0
13992,note_on,,0,0,0,,,5,,62,0
13992,note_on,,0,0,0,,,6,,59,0
13992,note_on,,0,0,0,,,7,,55,0
13992,note_on,,0,0,0,,,1,,83,95
13992,note_on,,0,0,0,,,2,,77,95
13992,note_on,,0,0,0,,,3,,74,95
13992,note_on,,0,0,0,,,4,,67,95
13992,note_on,,0,0,0,,,5,,62,95
13992,note_on,,0,0,0,,,6,,59,95
13992,note_on,,0,0,0,,,7,,55,95
14016,note_on,,24,0,0,,,0,,86,0
14016,note_on,,0,0,0,,,0,,86,95
14016,note_on,,0,0,0,,,1,,83,0
14016,note_on,,0,0,0,,,2,,77,0
14016,note_on,,0,0,0,,,3,,74,0
14016,note_on,,0,0,0,,,4,,67,0
14016,note_on,,0,0,0,,,5,,62,0
14016,note_on,,0,0,0,,,6,,59,0
14016,note_on,,0,0,0,,,7,,55,0
14016,note_on,,0,0,0,,,1,,83,95
14016,note_on,,0,0,0,,,2,,77,95
14016,note_on,,0,0,0,,,3,,74,95
14016,note_on,,0,0,0,,,4,,67,95
14016,note_on,,0,0,0,,,5,,62,95
14016,note_on,,0,0,0,,,6,,59,95
14016,note_on,,0,0,0,,,7,,55,95
14040,note_on,,24,0,0,,,0,,86,0
14040,note_on,,0,0,0,,,0,,65,95
14040,note_on,,0,0,0,,,1,,83,0
14040,note_on,,0,0,0,,,2,,77,0
14040,note_on,,0,0,0,,,3,,74,0
14040,note_on,,0,0,0,,,4,,67,0
14040,note_on,,0,0,0,,,5,,62,0
14040,note_on,,0,0,0,,,6,,59,0
14040,note_on,,0,0,0,,,7,,55,0
14040,note_on,,0,0,0,,,1,,53,95
14052,note_on,,12,0,0,,,0,,65,0
14052,note_on,,0,0,0,,,0,,62,95
14052,note_on,,0,0,0,,,1,,53,0
14052,note_on,,0,0,0,,,1,,50,95
14064,note_on,,12,0,0,,,0,,62,0
14064,note_on,,0,0,0,,,0,,59,95
14064,note_on,,0,0,0,,,1,,50,0
14064,note_on,,0,0,0,,,1,,47,95
14064,note_on,,0,0,0,,,2,,50,95
14064,note_on,,0,0,0,,,3,,38,95
14076,note_on,,12,0,0,,,0,,59,0
14076,note_on,,0,0,0,,,0,,55,95
14076,note_on,,0,0,0,,,1,,47,0
14076,note_on,,0,0,0,,,1,,43,95
14088,note_on,,12,0,0,,,2,,50,0
14088,note_on,,0,0,0,,,0,,53,95
14088,note_on,,0,0,0,,,3,,38,0
14088,note_on,,0,0,0,,,0,,55,0
14088,note_on,,0,0,0,,,1,,43,0
14088,note_on,,0,0,0,,,1,,41,95
14088,note_on,,0,0,0,,,2,,50,95
14088,note_on,,0,0,0,,,3,,38,95
14100,note_on,,12,0,0,,,0,,53,0
14100,note_on,,0,0,0,,,0,,50,95
14100,note_on,,0,0,0,,,1,,41,0
14100,note_on,,0,0,0,,,1,,38,95
14112,note_on,,12,0,0,,,2,,50,0
14112,note_on,,0,0,0,,,0,,49,95
14112,note_on,,0,0,0,,,3,,38,0
14112,note_on,,0,0,0,,,0,,50,0
14112,note_on,,0,0,0,,,1,,38,0
14112,note_on,,0,0,0,,,1,,37,95
14112,note_on,,0,0,0,,,2,,49,95
14112,note_on,,0,0,0,,,3,,37,95
14160,note_on,,48,0,0,,,0,,49,0
14160,note_on,,0,0,0,,,0,,50,95
14160,note_on,,0,0,0,,,1,,37,0
14160,note_on,,0,0,0,,,2,,49,0
14160,note_on,,0,0,0,,,3,,37,0
14160,note_on,,0,0,0,,,1,,38,95
14160,note_on,,0,0,0,,,2,,50,95
14160,note_on,,0,0,0,,,3,,38,95
14184,note_on,,24,0,0,,,0,,50,0
14184,note_on,,0,0,0,,,0,,50,95
14184,note_on,,0,0,0,,,1,,38,0
14184,note_on,,0,0,0,,,2,,50,0
14184,note_on,,0,0,0,,,3,,38,0
14184,note_on,,0,0,0,,,1,,38,95
14184,note_on,,0,0,0,,,2,,50,95
14184,note_on,,0,0,0,,,3,,38,95
14208,note_on,,24,0,0,,,0,,50,0
14208,note_on,,0,0,0,,,0,,51,95
14208,note_on,,0,0,0,,,1,,38,0
14208,note_on,,0,0,0,,,2,,50,0
14208,note_on,,0,0,0,,,3,,38,0
14208,note_on,,0,0,0,,,1,,39,95
14208,note_on,,0,0,0,,,2,,79,95
14208,note_on,,0,0,0,,,3,,72,95
14208,note_on,,0,0,0,,,4,,67,95
14208,note_on,,0,0,0,,,5,,51,95
14208,note_on,,0,0,0,,,6,,39,95
14256,note_on,,48,0,0,,,0,,51,0
14256,note_on,,0,0,0,,,0,,52,95
14256,note_on,,0,0,0,,,1,,39,0
14256,note_on,,0,0,0,,,2,,79,0
14256,note_on,,0,0,0,,,3,,72,0
14256,note_on,,0,0,0,,,4,,67,0
14256,note_on,,0,0,0,,,5,,51,0
14256,note_on,,0,0,0,,,6,,39,0
14256,note_on,,0,0,0,,,1,,40,95
14256,note_on,,0,0,0,,,2,,67,95
14256,note_on,,0,0,0,,,3,,60,95
14256,note_on,,0,0,0,,,4,,55,95
14256,note_on,,0,0,0,,,5,,52,95
14256,note_on,,0,0,0,,,6,,40,95
14304,note_on,,48,0,0,,,0,,52,0
14304,note_on,,0,0,0,,,1,,40,0
14304,note_on,,0,0,0,,,2,,67,0
14304,note_on,,0,0,0,,,3,,60,0
14304,note_on,,0,0,0,,,4,,55,0
14304,note_on,,0,0,0,,,5,,52,0
14304,note_on,,0,0,0,,,6,,40,0
14328,note_on,,24,0,0,,,0,,55,95
14340,note_on,,12,0,0,,,0,,55,0
14340,note_on,,0,0,0,,,0,,60,95
14352,note_on,,12,0,0,,,0,,60,0
14352,note_on,,0,0,0,,,0,,64,95
14364,note_on,,12,0,0,,,0,,64,0
14364,note_on,,0,0,0,,,0,,67,95
14376,note_on,,12,0,0,,,0,,67,0
14376,note_on,,0,0,0,,,0,,72,95
14388,note_on,,12,0,0,,,0,,72,0
14388,note_on,,0,0,0,,,0,,76,95
14400,note_on,,12,0,0,,,0,,76,0
14400,note_on,,0,0,0,,,0,,79,95
14400,note_on,,0,0,0,,,1,,76,95
14400,note_on,,0,0,0,,,2,,67,95
14400,note_on,,0,0,0,,,3,,48,95
14400,note_on,,0,0,0,,,4,,36,95
14448,note_on,,48,0,0,,,0,,79,0
14448,note_on,,0,0,0,,,0,,79,95
14448,note_on,,0,0,0,,,1,,76,0
14448,note_on,,0,0,0,,,2,,67,0
14448,note_on,,0,0,0,,,1,,76,95
14448,note_on,,0,0,0,,,2,,67,95
14472,note_on,,24,0,0,,,0,,79,0
14472,note_on,,0,0,0,,,0,,79,95
14472,note_on,,0,0,0,,,1,,76,0
14472,note_on,,0,0,0,,,2,,67,0
14472,note_on,,0,0,0,,,1,,76,95
14472,note_on,,0,0,0,,,2,,67,95
14496,note_on,,24,0,0,,,3,,48,0
14496,note_on,,0,0,0,,,0,,79,95
14496,note_on,,0,0,0,,,4,,36,0
14496,note_on,,0,0,0,,,0,,79,0
14496,note_on,,0,0,0,,,1,,76,0
14496,note_on,,0,0,0,,,2,,67,0
14496,note_on,,0,0,0,,,1,,74,95
14496,note_on,,0,0,0,,,2,,67,95
14496,note_on,,0,0,0,,,3,,47,95
14496,note_on,,0,0,0,,,4,,35,95
14544,note_on,,48,0,0,,,3,,47,0
14544,note_on,,0,0,0,,,4,,35,0
14544,note_on,,0,0,0,,,3,,59,95
14544,note_on,,0,0,0,,,4,,47,95
14568,note_on,,24,0,0,,,0,,79,0
14568,note_on,,0,0,0,,,0,,79,95
14568,note_on,,0,0,0,,,1,,74,0
14568,note_on,,0,0,0,,,2,,67,0
14568,note_on,,0,0,0,,,3,,59,0
14568,note_on,,0,0,0,,,4,,47,0
14568,note_on,,0,0,0,,,1,,74,95
14568,note_on,,0,0,0,,,2,,67,95
14568,note_on,,0,0,0,,,3,,59,95
14568,note_on,,0,0,0,,,4,,47,95
14592,note_on,,24,0,0,,,0,,79,0
14592,note_on,,0,0,0,,,0,,84,95
14592,note_on,,0,0,0,,,1,,74,0
14592,note_on,,0,0,0,,,2,,67,0
14592,note_on,,0,0,0,,,3,,59,0
14592,note_on,,0,0,0,,,4,,47,0
14592,note_on,,0,0,0,,,1,,79,95
14592,note_on,,0,0,0,,,2,,72,95
14592,note_on,,0,0,0,,,3,,57,95
14592,note_on,,0,0,0,,,4,,45,95
14640,note_on,,48,0,0,,,0,,84,0
14640,note_on,,0,0,0,,,0,,84,95
14640,note_on,,0,0,0,,,1,,79,0
14640,note_on,,0,0,0,,,2,,72,0
14640,note_on,,0,0,0,,,3,,57,0
14640,note_on,,0,0,0,,,4,,45,0
14640,note_on,,0,0,0,,,1,,78,95
14640,note_on,,0,0,0,,,2,,72,95
14640,note_on,,0,0,0,,,3,,50,95
14640,note_on,,0,0,0,,,4,,38,95
14664,note_on,,24,0,0,,,0,,84,0
14664,note_on,,0,0,0,,,0,,84,95
14664,note_on,,0,0,0,,,1,,78,0
14664,note_on,,0,0,0,,,2,,72,0
14664,note_on,,0,0,0,,,1,,78,95
14664,note_on,,0,0,0,,,2,,72,95
14688,note_on,,24,0,0,,,3,,50,0
14688,note_on,,0,0,0,,,0,,83,95
14688,note_on,,0,0,0,,,4,,38,0
14688,note_on,,0,0,0,,,0,,84,0
14688,note_on,,0,0,0,,,1,,78,0
14688,note_on,,0,0,0,,,2,,72,0
14688,note_on,,0,0,0,,,1,,79,95
14688,note_on,,0,0,0,,,2,,71,95
14688,note_on,,0,0,0,,,3,,55,95
14688,note_on,,0,0,0,,,4,,43,95
14712,note_on,,24,0,0,,,0,,83,0
14712,note_on,,0,0,0,,,0,,55,95
14712,note_on,,0,0,0,,,1,,79,0
14712,note_on,,0,0,0,,,2,,71,0
14724,note_on,,12,0,0,,,0,,55,0
14724,note_on,,0,0,0,,,0,,60,95
14736,note_on,,12,0,0,,,3,,55,0
14736,note_on,,0,0,0,,,0,,64,95
14736,note_on,,0,0,0,,,4,,43,0
14736,note_on,,0,0,0,,,0,,60,0
14748,note_on,,12,0,0,,,0,,64,0
14748,note_on,,0,0,0,,,0,,67,95
14760,note_on,,12,0,0,,,0,,67,0
14760,note_on,,0,0,0,,,0,,72,95
14772,note_on,,12,0,0,,,0,,72,0
14772,note_on,,0,0,0,,,0,,76,95
14784,note_on,,12,0,0,,,0,,76,0
14784,note_on,,0,0,0,,,0,,79,95
14784,note_on,,0,0,0,,,1,,76,95
14784,note_on,,0,0,0,,,2,,67,95
14784,note_on,,0,0,0,,,3,,48,95
14784,note_on,,0,0,0,,,4,,36,95
14832,note_on,,48,0,0,,,0,,79,0
14832,note_on,,0,0,0,,,0,,79,95
14832,note_on,,0,0,0,,,1,,76,0
14832,note_on,,0,0,0,,,2,,67,0
14832,note_on,,0,0,0,,,1,,76,95
14832,note_on,,0,0,0,,,2,,67,95
14856,note_on,,24,0,0,,,0,,79,0
14856,note_on,,0,0,0,,,0,,79,95
14856,note_on,,0,0,0,,,1,,76,0
14856,note_on,,0,0,0,,,2,,67,0
14856,note_on,,0,0,0,,,1,,76,95
14856,note_on,,0,0,0,,,2,,67,95
14880,note_on,,24,0,0,,,3,,48,0
14880,note_on,,0,0,0,,,0,,79,95
14880,note_on,,0,0,0,,,4,,36,0
14880,note_on,,0,0,0,,,0,,79,0
14880,note_on,,0,0,0,,,1,,76,0
14880,note_on,,0,0,0,,,2,,67,0
14880,note_on,,0,0,0,,,1,,74,95
14880,note_on,,0,0,0,,,2,,67,95
14880,note_on,,0,0,0,,,3,,47,95
14880,note_on,,0,0,0,,,4,,35,95
14928,note_on,,48,0,0,,,3,,47,0
14928,note_on,,0,0,0,,,4,,35,0
14928,note_on,,0,0,0,,,3,,59,95
14928,note_on,,0,0,0,,,4,,47,95
14952,note_on,,24,0,0,,,0,,79,0
14952,note_on,,0,0,0,,,0,,79,95
14952,note_on,,0,0,0,,,1,,74,0
14952,note_on,,0,0,0,,,2,,67,0
14952,note_on,,0,0,0,,,3,,59,0
14952,note_on,,0,0,0,,,4,,47,0
14952,note_on,,0,0,0,,,1,,74,95
14952,note_on,,0,0,0,,,2,,67,95
14952,note_on,,0,0,0,,,3,,59,95
14952,note_on,,0,0,0,,,4,,47,95
14976,note_on,,24,0,0,,,0,,79,0
14976,note_on,,0,0,0,,,0,,84,95
14976,note_on,,0,0,0,,,1,,74,0
14976,note_on,,0,0,0,,,2,,67,0
14976,note_on,,0,0,0,,,3,,59,0
14976,note_on,,0,0,0,,,4,,47,0
14976,note_on,,0,0,0,,,1,,79,95
14976,note_on,,0,0,0,,,2,,72,95
14976,note_on,,0,0,0,,,3,,57,95
14976,note_on,,0,0,0,,,4,,45,95
15024,note_on,,48,0,0,,,0,,84,0
15024,note_on,,0,0,0,,,0,,84,95
15024,note_on,,0,0,0,,,1,,79,0
15024,note_on,,0,0,0,,,2,,72,0
15024,note_on,,0,0,0,,,3,,57,0
15024,note_on,,0,0,0,,,4,,45,0
15024,note_on,,0,0,0,,,1,,78,95
15024,note_on,,0,0,0,,,2,,72,95
15024,note_on,,0,0,0,,,3,,50,95
15024,note_on,,0,0,0,,,4,,38,95
15048,note_on,,24,0,0,,,0,,84,0
15048,note_on,,0,0,0,,,0,,84,95
15048,note_on,,0,0,0,,,1,,78,0
15048,note_on,,0,0,0,,,2,,72,0
15048,note_on,,0,0,0,,,1,,78,95
15048,note_on,,0,0,0,,,2,,72,95
15072,note_on,,24,0,0,,,3,,50,0
15072,note_on,,0,0,0,,,0,,83,95
15072,note_on,,0,0,0,,,4,,38,0
15072,note_on,,0,0,0,,,0,,84,0
15072,note_on,,0,0,0,,,1,,78,0
15072,note_on,,0,0,0,,,2,,72,0
15072,note_on,,0,0,0,,,1,,79,95
15072,note_on,,0,0,0,,,2,,71,95
15072,note_on,,0,0,0,,,3,,55,95
15072,note_on,,0,0,0,,,4,,43,95
15096,note_on,,24,0,0,,,0,,83,0
15096,note_on,,0,0,0,,,0,,60,95
15096,note_on,,0,0,0,,,1,,79,0
15096,note_on,,0,0,0,,,2,,71,0
15096,note_on,,0,0,0,,,3,,55,0
15096,note_on,,0,0,0,,,4,,43,0
15108,note_on,,12,0,0,,,0,,60,0
15108,note_on,,0,0,0,,,0,,65,95
15120,note_on,,12,0,0,,,0,,65,0
15120,note_on,,0,0,0,,,0,,69,95
15132,note_on,,12,0,0,,,0,,69,0
15132,note_on,,0,0,0,,,0,,72,95
15144,note_on,,12,0,0,,,0,,72,0
15144,note_on,,0,0,0,,,0,,77,95
15156,note_on,,12,0,0,,,0,,77,0
15156,note_on,,0,0,0,,,0,,81,95
15168,note_on,,12,0,0,,,0,,81,0
15168,note_on,,0,0,0,,,0,,84,95
15168,note_on,,0,0,0,,,1,,81,95
15168,note_on,,0,0,0,,,2,,72,95
15168,note_on,,0,0,0,,,3,,53,95
15168,note_on,,0,0,0,,,4,,41,95
15216,note_on,,48,0,0,,,0,,84,0
15216,note_on,,0,0,0,,,0,,84,95
15216,note_on,,0,0,0,,,1,,81,0
15216,note_on,,0,0,0,,,2,,72,0
15216,note_on,,0,0,0,,,1,,81,95
15216,note_on,,0,0,0,,,2,,72,95
15240,note_on,,24,0,0,,,0,,84,0
15240,note_on,,0,0,0,,,0,,84,95
15240,note_on,,0,0,0,,,1,,81,0
15240,note_on,,0,0,0,,,2,,72,0
15240,note_on,,0,0,0,,,1,,81,95
15240,note_on,,0,0,0,,,2,,72,95
15264,note_on,,24,0,0,,,3,,53,0
15264,note_on,,0,0,0,,,0,,84,95
15264,note_on,,0,0,0,,,4,,41,0
15264,note_on,,0,0,0,,,0,,84,0
15264,note_on,,0,0,0,,,1,,81,0
15264,note_on,,0,0,0,,,2,,72,0
15264,note_on,,0,0,0,,,1,,79,95
15264,note_on,,0,0,0,,,2,,72,95
15264,note_on,,0,0,0,,,3,,52,95
15264,note_on,,0,0,0,,,4,,40,95
15312,note_on,,48,0,0,,,3,,52,0
15312,note_on,,0,0,0,,,4,,40,0
15312,note_on,,0,0,0,,,3,,64,95
15312,note_on,,0,0,0,,,4,,52,95
15336,note_on,,24,0,0,,,0,,84,0
15336,note_on,,0,0,0,,,0,,84,95
15336,note_on,,0,0,0,,,1,,79,0
15336,note_on,,0,0,0,,,2,,72,0
15336,note_on,,0,0,0,,,3,,64,0
15336,note_on,,0,0,0,,,4,,52,0
15336,note_on,,0,0,0,,,1,,79,95
15336,note_on,,0,0,0,,,2,,72,95
15336,note_on,,0,0,0,,,3,,64,95
15336,note_on,,0,0,0,,,4,,52,95
15360,note_on,,24,0,0,,,0,,84,0
15360,note_on,,0,0,0,,,0,,89,95
15360,note_on,,0,0,0,,,1,,79,0
15360,note_on,,0,0,0,,,2,,72,0
15360,note_on,,0,0,0,,,3,,64,0
15360,note_on,,0,0,0,,,4,,52,0
15360,note_on,,0,0,0,,,1,,84,95
15360,note_on,,0,0,0,,,2,,77,95
15360,note_on,,0,0,0,,,3,,62,95
15360,note_on,,0,0,0,,,4,,50,95
15408,note_on,,48,0,0,,,0,,89,0
15408,note_on,,0,0,0,,,0,,89,95
15408,note_on,,0,0,0,,,1,,84,0
15408,note_on,,0,0,0,,,2,,77,0
15408,note_on,,0,0,0,,,3,,62,0
15408,note_on,,0,0,0,,,4,,50,0
15408,note_on,,0,0,0,,,1,,83,95
15408,note_on,,0,0,0,,,2,,77,95
15408,note_on,,0,0,0,,,3,,55,95
15408,note_on,,0,0,0,,,4,,43,95
15432,note_on,,24,0,0,,,0,,89,0
15432,note_on,,0,0,0,,,0,,89,95
15432,note_on,,0,0,0,,,1,,83,0
15432,note_on,,0,0,0,,,2,,77,0
15432,note_on,,0,0,0,,,1,,83,95
15432,note_on,,0,0,0,,,2,,77,95
15456,note_on,,24,0,0,,,3,,55,0
15456,note_on,,0,0,0,,,0,,88,95
15456,note_on,,0,0,0,,,4,,43,0
15456,note_on,,0,0,0,,,0,,89,0
15456,note_on,,0,0,0,,,1,,83,0
15456,note_on,,0,0,0,,,2,,77,0
15456,note_on,,0,0,0,,,1,,83,95
15456,note_on,,0,0,0,,,2,,76,95
15456,note_on,,0,0,0,,,3,,60,95
15456,note_on,,0,0,0,,,4,,48,95
15504,note_on,,48,0,0,,,0,,88,0
15504,note_on,,0,0,0,,,0,,88,95
15504,note_on,,0,0,0,,,1,,83,0
15504,note_on,,0,0,0,,,2,,76,0
15504,note_on,,0,0,0,,,3,,60,0
15504,note_on,,0,0,0,,,4,,48,0
15504,note_on,,0,0,0,,,1,,81,95
15504,note_on,,0,0,0,,,2,,76,95
15504,note_on,,0,0,0,,,3,,53,95
15504,note_on,,0,0,0,,,4,,41,95
15528,note_on,,24,0,0,,,3,,53,0
15528,note_on,,0,0,0,,,4,,41,0
15528,note_on,,0,0,0,,,3,,53,95
15528,note_on,,0,0,0,,,4,,41,95
15552,note_on,,24,0,0,,,0,,88,0
15552,note_on,,0,0,0,,,0,,86,95
15552,note_on,,0,0,0,,,1,,81,0
15552,note_on,,0,0,0,,,2,,76,0
15552,note_on,,0,0,0,,,3,,53,0
15552,note_on,,0,0,0,,,4,,41,0
15552,note_on,,0,0,0,,,1,,81,95
15552,note_on,,0,0,0,,,2,,74,95
15552,note_on,,0,0,0,,,4,,59,95
15552,note_on,,0,0,0,,,5,,47,95
15576,note_on,,24,0,0,,,0,,86,0
15576,note_on,,0,0,0,,,0,,86,95
15576,note_on,,0,0,0,,,1,,81,0
15576,note_on,,0,0,0,,,2,,74,0
15576,note_on,,0,0,0,,,1,,80,95
15576,note_on,,0,0,0,,,2,,74,95
15600,note_on,,24,0,0,,,4,,59,0
15600,note_on,,0,0,0,,,0,,84,95
15600,note_on,,0,0,0,,,5,,47,0
15600,note_on,,0,0,0,,,0,,86,0
15600,note_on,,0,0,0,,,1,,80,0
15600,note_on,,0,0,0,,,2,,74,0
15600,note_on,,0,0,0,,,1,,81,95
15600,note_on,,0,0,0,,,2,,72,95
15600,note_on,,0,0,0,,,4,,60,95
15600,note_on,,0,0,0,,,5,,48,95
15648,note_on,,48,0,0,,,0,,84,0
15648,note_on,,0,0,0,,,0,,83,95
15648,note_on,,0,0,0,,,1,,81,0
15648,note_on,,0,0,0,,,2,,72,0
15648,note_on,,0,0,0,,,4,,60,0
15648,note_on,,0,0,0,,,5,,48,0
15648,note_on,,0,0,0,,,1,,81,95
15648,note_on,,0,0,0,,,2,,77,95
15648,note_on,,0,0,0,,,3,,71,95
15648,note_on,,0,0,0,,,4,,62,95
15648,note_on,,0,0,0,,,5,,50,95
15672,note_on,,24,0,0,,,4,,62,0
15672,note_on,,0,0,0,,,5,,50,0
15672,note_on,,0,0,0,,,4,,62,95
15672,note_on,,0,0,0,,,5,,50,95
15696,note_on,,24,0,0,,,0,,83,0
15696,note_on,,0,0,0,,,0,,83,95
15696,note_on,,0,0,0,,,1,,81,0
15696,note_on,,0,0,0,,,2,,77,0
15696,note_on,,0,0,0,,,3,,71,0
15696,note_on,,0,0,0,,,4,,62,0
15696,note_on,,0,0,0,,,5,,50,0
15696,note_on,,0,0,0,,,1,,80,95
15696,note_on,,0,0,0,,,2,,76,95
15696,note_on,,0,0,0,,,3,,71,95
15696,note_on,,0,0,0,,,4,,64,95
15696,note_on,,0,0,0,,,5,,52,95
15744,note_on,,48,0,0,,,0,,83,0
15744,note_on,,0,0,0,,,0,,93,95
15744,note_on,,0,0,0,,,1,,80,0
15744,note_on,,0,0,0,,,2,,76,0
15744,note_on,,0,0,0,,,3,,71,0
15744,note_on,,0,0,0,,,4,,64,0
15744,note_on,,0,0,0,,,5,,52,0
15744,note_on,,0,0,0,,,1,,81,95
15744,note_on,,0,0,0,,,2,,69,95
15744,note_on,,0,0,0,,,3,,57,95
15744,note_on,,0,0,0,,,4,,57,95
15744,note_on,,0,0,0,,,5,,45,95
15744,note_on,,0,0,0,,,6,,33,95
15768,note_on,,24,0,0,,,0,,93,0
15768,note_on,,0,0,0,,,0,,79,95
15768,note_on,,0,0,0,,,1,,81,0
15768,note_on,,0,0,0,,,2,,69,0
15768,note_on,,0,0,0,,,3,,57,0
15768,note_on,,0,0,0,,,2,,67,95
15780,note_on,,12,0,0,,,0,,79,0
15780,note_on,,0,0,0,,,0,,77,95
15780,note_on,,0,0,0,,,2,,67,0
15780,note_on,,0,0,0,,,2,,65,95
15792,note_on,,12,0,0,,,4,,57,0
15792,note_on,,0,0,0,,,0,,76,95
15792,note_on,,0,0,0,,,5,,45,0
15792,note_on,,0,0,0,,,6,,33,0
15792,note_on,,0,0,0,,,0,,77,0
15792,note_on,,0,0,0,,,2,,65,0
15792,note_on,,0,0,0,,,2,,64,95
15792,note_on,,0,0,0,,,4,,57,95
15792,note_on,,0,0,0,,,5,,45,95
15792,note_on,,0,0,0,,,6,,33,95
15804,note_on,,12,0,0,,,0,,76,0
15804,note_on,,0,0,0,,,0,,74,95
15804,note_on,,0,0,0,,,2,,64,0
15804,note_on,,0,0,0,,,2,,62,95
15816,note_on,,12,0,0,,,4,,57,0
15816,note_on,,0,0,0,,,0,,72,95
15816,note_on,,0,0,0,,,5,,45,0
15816,note_on,,0,0,0,,,6,,33,0
15816,note_on,,0,0,0,,,0,,74,0
15816,note_on,,0,0,0,,,2,,62,0
15816,note_on,,0,0,0,,,2,,60,95
15816,note_on,,0,0,0,,,4,,57,95
15816,note_on,,0,0,0,,,5,,45,95
15816,note_on,,0,0,0,,,6,,33,95
15828,note_on,,12,0,0,,,0,,72,0
15828,note_on,,0,0,0,,,0,,71,95
15828,note_on,,0,0,0,,,2,,60,0
15828,note_on,,0,0,0,,,2,,59,95
15840,note_on,,12,0,0,,,4,,57,0
15840,note_on,,0,0,0,,,0,,69,95
15840,note_on,,0,0,0,,,5,,45,0
15840,note_on,,0,0,0,,,6,,33,0
15840,note_on,,0,0,0,,,0,,71,0
15840,note_on,,0,0,0,,,2,,59,0
15840,note_on,,0,0,0,,,2,,57,95
15840,note_on,,0,0,0,,,4,,57,95
15840,note_on,,0,0,0,,,5,,45,95
15840,note_on,,0,0,0,,,6,,33,95
15852,note_on,,12,0,0,,,0,,69,0
15852,note_on,,0,0,0,,,0,,67,95
15852,note_on,,0,0,0,,,2,,57,0
15852,note_on,,0,0,0,,,2,,55,95
15864,note_on,,12,0,0,,,0,,67,0
15864,note_on,,0,0,0,,,0,,65,95
15864,note_on,,0,0,0,,,2,,55,0
15864,note_on,,0,0,0,,,2,,53,95
15876,note_on,,12,0,0,,,0,,65,0
15876,note_on,,0,0,0,,,0,,64,95
15876,note_on,,0,0,0,,,2,,53,0
15876,note_on,,0,0,0,,,2,,52,95
15888,note_on,,12,0,0,,,4,,57,0
15888,note_on,,0,0,0,,,0,,62,95
15888,note_on,,0,0,0,,,5,,45,0
15888,note_on,,0,0,0,,,6,,33,0
15888,note_on,,0,0,0,,,0,,64,0
15888,note_on,,0,0,0,,,2,,52,0
15888,note_on,,0,0,0,,,2,,50,95
15888,note_on,,0,0,0,,,4,,57,95
15888,note_on,,0,0,0,,,5,,45,95
15888,note_on,,0,0,0,,,6,,33,95
15900,note_on,,12,0,0,,,0,,62,0
15900,note_on,,0,0,0,,,0,,60,95
15900,note_on,,0,0,0,,,2,,50,0
15900,note_on,,0,0,0,,,2,,48,95
15912,note_on,,12,0,0,,,4,,57,0
15912,note_on,,0,0,0,,,0,,59,95
15912,note_on,,0,0,0,,,5,,45,0
15912,note_on,,0,0,0,,,6,,33,0
15912,note_on,,0,0,0,,,0,,60,0
15912,note_on,,0,0,0,,,2,,48,0
15912,note_on,,0,0,0,,,2,,47,95
15912,note_on,,0,0,0,,,4,,57,95
15912,note_on,,0,0,0,,,5,,45,95
15912,note_on,,0,0,0,,,6,,33,95
15924,note_on,,12,0,0,,,0,,59,0
15924,note_on,,0,0,0,,,0,,57,95
15924,note_on,,0,0,0,,,2,,47,0
15924,note_on,,0,0,0,,,2,,45,95
15936,note_on,,12,0,0,,,4,,57,0
15936,note_on,,0,0,0,,,0,,56,95
15936,note_on,,0,0,0,,,5,,45,0
15936,note_on,,0,0,0,,,6,,33,0
15936,note_on,,0,0,0,,,0,,57,0
15936,note_on,,0,0,0,,,2,,45,0
15936,note_on,,0,0,0,,,3,,44,95
15936,note_on,,0,0,0,,,6,,57,95
15936,note_on,,0,0,0,,,7,,45,95
15936,note_on,,0,0,0,,,8,,33,95
15948,note_on,,12,0,0,,,0,,56,0
15948,note_on,,0,0,0,,,0,,53,95
15948,note_on,,0,0,0,,,3,,44,0
15948,note_on,,0,0,0,,,3,,41,95
15960,note_on,,12,0,0,,,6,,57,0
15960,note_on,,0,0,0,,,0,,52,95
15960,note_on,,0,0,0,,,7,,45,0
15960,note_on,,0,0,0,,,8,,33,0
15960,note_on,,0,0,0,,,0,,53,0
15960,note_on,,0,0,0,,,3,,41,0
15960,note_on,,0,0,0,,,3,,40,95
15960,note_on,,0,0,0,,,6,,60,95
15960,note_on,,0,0,0,,,7,,48,95
15960,note_on,,0,0,0,,,8,,36,95
15972,note_on,,12,0,0,,,0,,52,0
15972,note_on,,0,0,0,,,0,,50,95
15972,note_on,,0,0,0,,,3,,40,0
15972,note_on,,0,0,0,,,3,,38,95
15984,note_on,,12,0,0,,,6,,60,0
15984,note_on,,0,0,0,,,0,,52,95
15984,note_on,,0,0,0,,,7,,48,0
15984,note_on,,0,0,0,,,8,,36,0
15984,note_on,,0,0,0,,,0,,50,0
15984,note_on,,0,0,0,,,3,,38,0
15984,note_on,,0,0,0,,,3,,40,95
15984,note_on,,0,0,0,,,6,,59,95
15984,note_on,,0,0,0,,,7,,47,95
15984,note_on,,0,0,0,,,8,,35,95
15996,note_on,,12,0,0,,,0,,52,0
15996,note_on,,0,0,0,,,0,,50,95
15996,note_on,,0,0,0,,,3,,40,0
15996,note_on,,0,0,0,,,3,,38,95
16008,note_on,,12,0,0,,,0,,50,0
16008,note_on,,0,0,0,,,0,,48,95
16008,note_on,,0,0,0,,,3,,38,0
16008,note_on,,0,0,0,,,3,,36,95
16020,note_on,,12,0,0,,,0,,48,0
16020,note_on,,0,0,0,,,0,,47,95
16020,note_on,,0,0,0,,,3,,36,0
16020,note_on,,0,0,0,,,3,,35,95
16032,note_on,,12,0,0,,,6,,59,0
16032,note_on,,0,0,0,,,7,,47,0
16032,note_on,,0,0,0,,,8,,35,0
16032,note_on,,0,0,0,,,0,,47,0
16032,note_on,,0,0,0,,,3,,35,0
16032,note_on,,0,0,0,,,6,,68,95
16032,note_on,,0,0,0,,,7,,56,95
16032,note_on,,0,0,0,,,8,,44,95
16056,note_on,,24,0,0,,,6,,68,0
16056,note_on,,0,0,0,,,7,,56,0
16056,note_on,,0,0,0,,,8,,44,0
16056,note_on,,0,0,0,,,6,,65,95
16056,note_on,,0,0,0,,,7,,53,95
16056,note_on,,0,0,0,,,8,,41,95
16080,note_on,,24,0,0,,,6,,65,0
16080,note_on,,0,0,0,,,0,,77,95
16080,note_on,,0,0,0,,,7,,53,0
16080,note_on,,0,0,0,,,8,,41,0
16080,note_on,,0,0,0,,,1,,71,95
16080,note_on,,0,0,0,,,2,,68,95
16080,note_on,,0,0,0,,,3,,62,95
16080,note_on,,0,0,0,,,4,,59,95
16080,note_on,,0,0,0,,,5,,56,95
16080,note_on,,0,0,0,,,6,,62,95
16080,note_on,,0,0,0,,,7,,50,95
16080,note_on,,0,0,0,,,8,,38,95
16104,note_on,,24,0,0,,,0,,77,0
16104,note_on,,0,0,0,,,1,,71,0
16104,note_on,,0,0,0,,,2,,68,0
16104,note_on,,0,0,0,,,3,,62,0
16104,note_on,,0,0,0,,,4,,59,0
16104,note_on,,0,0,0,,,5,,56,0
16104,note_on,,0,0,0,,,6,,62,0
16104,note_on,,0,0,0,,,7,,50,0
16104,note_on,,0,0,0,,,8,,38,0
16104,note_on,,0,0,0,,,6,,60,95
16104,note_on,,0,0,0,,,7,,48,95
16104,note_on,,0,0,0,,,8,,36,95
16128,note_on,,24,0,0,,,6,,60,0
16128,note_on,,0,0,0,,,0,,95,95
16128,note_on,,0,0,0,,,7,,48,0
16128,note_on,,0,0,0,,,8,,36,0
16128,note_on,,0,0,0,,,1,,83,95
16128,note_on,,0,0,0,,,2,,71,95
16128,note_on,,0,0,0,,,3,,59,95
16128,note_on,,0,0,0,,,4,,47,95
16128,note_on,,0,0,0,,,5,,35,95
16152,note_on,,24,0,0,,,0,,95,0
16152,note_on,,0,0,0,,,0,,81,95
16152,note_on,,0,0,0,,,1,,83,0
16152,note_on,,0,0,0,,,2,,71,0
16152,note_on,,0,0,0,,,2,,69,95
16164,note_on,,12,0,0,,,0,,81,0
16164,note_on,,0,0,0,,,0,,80,95
16164,note_on,,0,0,0,,,2,,69,0
16164,note_on,,0,0,0,,,2,,68,95
16176,note_on,,12,0,0,,,3,,59,0
16176,note_on,,0,0,0,,,0,,77,95
16176,note_on,,0,0,0,,,4,,47,0
16176,note_on,,0,0,0,,,5,,35,0
16176,note_on,,0,0,0,,,0,,80,0
16176,note_on,,0,0,0,,,2,,68,0
16176,note_on,,0,0,0,,,2,,65,95
16176,note_on,,0,0,0,,,3,,59,95
16176,note_on,,0,0,0,,,4,,47,95
16176,note_on,,0,0,0,,,5,,35,95
16188,note_on,,12,0,0,,,0,,77,0
16188,note_on,,0,0,0,,,0,,76,95
16188,note_on,,0,0,0,,,2,,65,0
16188,note_on,,0,0,0,,,2,,64,95
16200,note_on,,12,0,0,,,3,,59,0
16200,note_on,,0,0,0,,,0,,74,95
16200,note_on,,0,0,0,,,4,,47,0
16200,note_on,,0,0,0,,,5,,35,0
16200,note_on,,0,0,0,,,0,,76,0
16200,note_on,,0,0,0,,,2,,64,0
16200,note_on,,0,0,0,,,2,,62,95
16200,note_on,,0,0,0,,,3,,59,95
16200,note_on,,0,0,0,,,4,,47,95
16200,note_on,,0,0,0,,,5,,35,95
16212,note_on,,12,0,0,,,0,,74,0
16212,note_on,,0,0,0,,,0,,72,95
16212,note_on,,0,0,0,,,2,,62,0
16212,note_on,,0,0,0,,,2,,60,95
16224,note_on,,12,0,0,,,3,,59,0
16224,note_on,,0,0,0,,,0,,71,95
16224,note_on,,0,0,0,,,4,,47,0
16224,note_on,,0,0,0,,,5,,35,0
16224,note_on,,0,0,0,,,0,,72,0
16224,note_on,,0,0,0,,,2,,60,0
16224,note_on,,0,0,0,,,2,,59,95
16224,note_on,,0,0,0,,,3,,59,95
16224,note_on,,0,0,0,,,4,,47,95
16224,note_on,,0,0,0,,,5,,35,95
16236,note_on,,12,0,0,,,0,,71,0
16236,note_on,,0,0,0,,,0,,69,95
16236,note_on,,0,0,0,,,2,,59,0
16236,note_on,,0,0,0,,,2,,57,95
16248,note_on,,12,0,0,,,0,,69,0
16248,note_on,,0,0,0,,,0,,68,95
16248,note_on,,0,0,0,,,2,,57,0
16248,note_on,,0,0,0,,,2,,56,95
16260,note_on,,12,0,0,,,0,,68,0
16260,note_on,,0,0,0,,,0,,65,95
16260,note_on,,0,0,0,,,2,,56,0
16260,note_on,,0,0,0,,,2,,53,95
16272,note_on,,12,0,0,,,3,,59,0
16272,note_on,,0,0,0,,,0,,64,95
16272,note_on,,0,0,0,,,4,,47,0
16272,note_on,,0,0,0,,,5,,35,0
16272,note_on,,0,0,0,,,0,,65,0
16272,note_on,,0,0,0,,,2,,53,0
16272,note_on,,0,0,0,,,2,,52,95
16272,note_on,,0,0,0,,,3,,59,95
16272,note_on,,0,0,0,,,4,,47,95
16272,note_on,,0,0,0,,,5,,35,95
16284,note_on,,12,0,0,,,0,,64,0
16284,note_on,,0,0,0,,,0,,62,95
16284,note_on,,0,0,0,,,2,,52,0
16284,note_on,,0,0,0,,,2,,50,95
16296,note_on,,12,0,0,,,3,,59,0
16296,note_on,,0,0,0,,,0,,60,95
16296,note_on,,0,0,0,,,4,,47,0
16296,note_on,,0,0,0,,,5,,35,0
16296,note_on,,0,0,0,,,0,,62,0
16296,note_on,,0,0,0,,,2,,50,0
16296,note_on,,0,0,0,,,2,,48,95
16296,note_on,,0,0,0,,,3,,59,95
16296,note_on,,0,0,0,,,4,,47,95
16296,note_on,,0,0,0,,,5,,35,95
16308,note_on,,12,0,0,,,0,,60,0
16308,note_on,,0,0,0,,,0,,59,95
16308,note_on,,0,0,0,,,2,,48,0
16308,note_on,,0,0,0,,,2,,47,95
16320,note_on,,12,0,0,,,3,,59,0
16320,note_on,,0,0,0,,,0,,57,95
16320,note_on,,0,0,0,,,4,,47,0
16320,note_on,,0,0,0,,,5,,35,0
16320,note_on,,0,0,0,,,0,,59,0
16320,note_on,,0,0,0,,,2,,47,0
16320,note_on,,0,0,0,,,3,,45,95
16320,note_on,,0,0,0,,,6,,59,95
16320,note_on,,0,0,0,,,7,,47,95
16320,note_on,,0,0,0,,,8,,35,95
16332,note_on,,12,0,0,,,0,,57,0
16332,note_on,,0,0,0,,,0,,56,95
16332,note_on,,0,0,0,,,3,,45,0
16332,note_on,,0,0,0,,,3,,44,95
16344,note_on,,12,0,0,,,6,,59,0
16344,note_on,,0,0,0,,,0,,53,95
16344,note_on,,0,0,0,,,7,,47,0
16344,note_on,,0,0,0,,,8,,35,0
16344,note_on,,0,0,0,,,0,,56,0
16344,note_on,,0,0,0,,,3,,44,0
16344,note_on,,0,0,0,,,3,,41,95
16344,note_on,,0,0,0,,,6,,62,95
16344,note_on,,0,0,0,,,7,,50,95
16344,note_on,,0,0,0,,,8,,38,95
16356,note_on,,12,0,0,,,0,,53,0
16356,note_on,,0,0,0,,,0,,52,95
16356,note_on,,0,0,0,,,3,,41,0
16356,note_on,,0,0,0,,,3,,40,95
16368,note_on,,12,0,0,,,6,,62,0
16368,note_on,,0,0,0,,,0,,53,95
16368,note_on,,0,0,0,,,7,,50,0
16368,note_on,,0,0,0,,,8,,38,0
16368,note_on,,0,0,0,,,0,,52,0
16368,note_on,,0,0,0,,,3,,40,0
16368,note_on,,0,0,0,,,3,,41,95
16368,note_on,,0,0,0,,,6,,60,95
16368,note_on,,0,0,0,,,7,,48,95
16368,note_on,,0,0,0,,,8,,36,95
16380,note_on,,12,0,0,,,0,,53,0
16380,note_on,,0,0,0,,,0,,52,95
16380,note_on,,0,0,0,,,3,,41,0
16380,note_on,,0,0,0,,,3,,40,95
16392,note_on,,12,0,0,,,0,,52,0
16392,note_on,,0,0,0,,,0,,50,95
16392,note_on,,0,0,0,,,3,,40,0
16392,note_on,,0,0,0,,,3,,38,95
16404,note_on,,12,0,0,,,0,,50,0
16404,note_on,,0,0,0,,,0,,48,95
16404,note_on,,0,0,0,,,3,,38,0
16404,note_on,,0,0,0,,,3,,36,95
16416,note_on,,12,0,0,,,6,,60,0
16416,note_on,,0,0,0,,,7,,48,0
16416,note_on,,0,0,0,,,8,,36,0
16416,note_on,,0,0,0,,,0,,48,0
16416,note_on,,0,0,0,,,3,,36,0
16416,note_on,,0,0,0,,,6,,69,95
16416,note_on,,0,0,0,,,7,,57,95
16416,note_on,,0,0,0,,,8,,45,95
16440,note_on,,24,0,0,,,6,,69,0
16440,note_on,,0,0,0,,,7,,57,0
16440,note_on,,0,0,0,,,8,,45,0
16440,note_on,,0,0,0,,,6,,65,95
16440,note_on,,0,0,0,,,7,,55,95
16440,note_on,,0,0,0,,,8,,43,95
16464,note_on,,24,0,0,,,6,,65,0
16464,note_on,,0,0,0,,,0,,81,95
16464,note_on,,0,0,0,,,7,,55,0
16464,note_on,,0,0,0,,,8,,43,0
16464,note_on,,0,0,0,,,1,,76,95
16464,note_on,,0,0,0,,,2,,72,95
16464,note_on,,0,0,0,,,3,,64,95
16464,note_on,,0,0,0,,,4,,57,95
16464,note_on,,0,0,0,,,5,,48,95
16464,note_on,,0,0,0,,,6,,64,95
16464,note_on,,0,0,0,,,7,,52,95
16464,note_on,,0,0,0,,,8,,40,95
16488,note_on,,24,0,0,,,0,,81,0
16488,note_on,,0,0,0,,,1,,76,0
16488,note_on,,0,0,0,,,2,,72,0
16488,note_on,,0,0,0,,,3,,64,0
16488,note_on,,0,0,0,,,4,,57,0
16488,note_on,,0,0,0,,,5,,48,0
16488,note_on,,0,0,0,,,6,,64,0
16488,note_on,,0,0,0,,,7,,52,0
16488,note_on,,0,0,0,,,8,,40,0
16488,note_on,,0,0,0,,,6,,60,95
16488,note_on,,0,0,0,,,7,,48,95
16488,note_on,,0,0,0,,,8,,36,95
16512,note_on,,24,0,0,,,6,,60,0
16512,note_on,,0,0,0,,,0,,58,95
16512,note_on,,0,0,0,,,7,,48,0
16512,note_on,,0,0,0,,,8,,36,0
16512,note_on,,0,0,0,,,3,,47,95
16512,note_on,,0,0,0,,,6,,61,95
16512,note_on,,0,0,0,,,7,,49,95
16512,note_on,,0,0,0,,,8,,37,95
16524,note_on,,12,0,0,,,0,,58,0
16524,note_on,,0,0,0,,,0,,57,95
16524,note_on,,0,0,0,,,3,,47,0
16524,note_on,,0,0,0,,,3,,45,95
16536,note_on,,12,0,0,,,6,,61,0
16536,note_on,,0,0,0,,,0,,55,95
16536,note_on,,0,0,0,,,7,,49,0
16536,note_on,,0,0,0,,,8,,37,0
16536,note_on,,0,0,0,,,0,,57,0
16536,note_on,,0,0,0,,,3,,45,0
16536,note_on,,0,0,0,,,3,,43,95
16536,note_on,,0,0,0,,,6,,64,95
16536,note_on,,0,0,0,,,7,,52,95
16536,note_on,,0,0,0,,,8,,40,95
16548,note_on,,12,0,0,,,0,,55,0
16548,note_on,,0,0,0,,,0,,53,95
16548,note_on,,0,0,0,,,3,,43,0
16548,note_on,,0,0,0,,,3,,41,95
16560,note_on,,12,0,0,,,6,,64,0
16560,note_on,,0,0,0,,,0,,55,95
16560,note_on,,0,0,0,,,7,,52,0
16560,note_on,,0,0,0,,,8,,40,0
16560,note_on,,0,0,0,,,0,,53,0
16560,note_on,,0,0,0,,,3,,41,0
16560,note_on,,0,0,0,,,3,,43,95
16560,note_on,,0,0,0,,,6,,62,95
16560,note_on,,0,0,0,,,7,,50,95
16560,note_on,,0,0,0,,,8,,38,95
16572,note_on,,12,0,0,,,0,,55,0
16572,note_on,,0,0,0,,,0,,53,95
16572,note_on,,0,0,0,,,3,,43,0
16572,note_on,,0,0,0,,,3,,41,95
16584,note_on,,12,0,0,,,0,,53,0
16584,note_on,,0,0,0,,,0,,52,95
16584,note_on,,0,0,0,,,3,,41,0
16584,note_on,,0,0,0,,,3,,40,95
16596,note_on,,12,0,0,,,0,,52,0
16596,note_on,,0,0,0,,,0,,50,95
16596,note_on,,0,0,0,,,3,,40,0
16596,note_on,,0,0,0,,,3,,38,95
16608,note_on,,12,0,0,,,6,,62,0
16608,note_on,,0,0,0,,,7,,50,0
16608,note_on,,0,0,0,,,8,,38,0
16608,note_on,,0,0,0,,,0,,50,0
16608,note_on,,0,0,0,,,3,,38,0
16608,note_on,,0,0,0,,,6,,70,95
16608,note_on,,0,0,0,,,7,,58,95
16608,note_on,,0,0,0,,,8,,46,95
16632,note_on,,24,0,0,,,6,,70,0
16632,note_on,,0,0,0,,,7,,58,0
16632,note_on,,0,0,0,,,8,,46,0
16632,note_on,,0,0,0,,,6,,67,95
16632,note_on,,0,0,0,,,7,,55,95
16632,note_on,,0,0,0,,,8,,43,95
16656,note_on,,24,0,0,,,6,,67,0
16656,note_on,,0,0,0,,,0,,82,95
16656,note_on,,0,0,0,,,7,,55,0
16656,note_on,,0,0,0,,,8,,43,0
16656,note_on,,0,0,0,,,1,,77,95
16656,note_on,,0,0,0,,,2,,74,95
16656,note_on,,0,0,0,,,3,,65,95
16656,note_on,,0,0,0,,,4,,58,95
16656,note_on,,0,0,0,,,5,,50,95
16656,note_on,,0,0,0,,,6,,65,95
16656,note_on,,0,0,0,,,7,,53,95
16656,note_on,,0,0,0,,,8,,41,95
16680,note_on,,24,0,0,,,0,,82,0
16680,note_on,,0,0,0,,,1,,77,0
16680,note_on,,0,0,0,,,2,,74,0
16680,note_on,,0,0,0,,,3,,65,0
16680,note_on,,0,0,0,,,4,,58,0
16680,note_on,,0,0,0,,,5,,50,0
16680,note_on,,0,0,0,,,6,,65,0
16680,note_on,,0,0,0,,,7,,53,0
16680,note_on,,0,0,0,,,8,,41,0
16680,note_on,,0,0,0,,,6,,62,95
16680,note_on,,0,0,0,,,7,,50,95
16680,note_on,,0,0,0,,,8,,38,95
16704,note_on,,24,0,0,,,6,,62,0
16704,note_on,,0,0,0,,,0,,61,95
16704,note_on,,0,0,0,,,7,,50,0
16704,note_on,,0,0,0,,,8,,38,0
16704,note_on,,0,0,0,,,2,,40,95
16704,note_on,,0,0,0,,,3,,61,95
16704,note_on,,0,0,0,,,4,,55,95
16704,note_on,,0,0,0,,,5,,52,95
16704,note_on,,0,0,0,,,6,,40,95
16716,note_on,,12,0,0,,,0,,61,0
16716,note_on,,0,0,0,,,0,,64,95
16728,note_on,,12,0,0,,,2,,40,0
16728,note_on,,0,0,0,,,0,,67,95
16728,note_on,,0,0,0,,,0,,64,0
16728,note_on,,0,0,0,,,2,,55,95
16740,note_on,,12,0,0,,,0,,67,0
16740,note_on,,0,0,0,,,0,,73,95
16752,note_on,,12,0,0,,,3,,61,0
16752,note_on,,0,0,0,,,0,,74,95
16752,note_on,,0,0,0,,,4,,55,0
16752,note_on,,0,0,0,,,5,,52,0
16752,note_on,,0,0,0,,,6,,40,0
16752,note_on,,0,0,0,,,2,,55,0
16752,note_on,,0,0,0,,,0,,73,0
16752,note_on,,0,0,0,,,1,,74,95
16752,note_on,,0,0,0,,,2,,41,95
16752,note_on,,0,0,0,,,3,,62,95
16752,note_on,,0,0,0,,,4,,57,95
16752,note_on,,0,0,0,,,5,,53,95
16752,note_on,,0,0,0,,,6,,41,95
16764,note_on,,12,0,0,,,0,,74,0
16764,note_on,,0,0,0,,,0,,77,95
16776,note_on,,12,0,0,,,1,,74,0
16776,note_on,,0,0,0,,,0,,81,95
16776,note_on,,0,0,0,,,2,,41,0
16776,note_on,,0,0,0,,,3,,62,0
16776,note_on,,0,0,0,,,4,,57,0
16776,note_on,,0,0,0,,,5,,53,0
16776,note_on,,0,0,0,,,6,,41,0
16776,note_on,,0,0,0,,,0,,77,0
16776,note_on,,0,0,0,,,2,,57,95
16776,note_on,,0,0,0,,,3,,62,95
16776,note_on,,0,0,0,,,4,,57,95
16776,note_on,,0,0,0,,,5,,53,95
16776,note_on,,0,0,0,,,6,,41,95
16788,note_on,,12,0,0,,,0,,81,0
16788,note_on,,0,0,0,,,0,,86,95
16800,note_on,,12,0,0,,,2,,57,0
16800,note_on,,0,0,0,,,0,,64,95
16800,note_on,,0,0,0,,,3,,62,0
16800,note_on,,0,0,0,,,4,,57,0
16800,note_on,,0,0,0,,,5,,53,0
16800,note_on,,0,0,0,,,6,,41,0
16800,note_on,,0,0,0,,,0,,86,0
16800,note_on,,0,0,0,,,2,,44,95
16800,note_on,,0,0,0,,,3,,64,95
16800,note_on,,0,0,0,,,4,,59,95
16800,note_on,,0,0,0,,,5,,56,95
16800,note_on,,0,0,0,,,6,,44,95
16812,note_on,,12,0,0,,,0,,64,0
16812,note_on,,0,0,0,,,0,,68,95
16824,note_on,,12,0,0,,,2,,44,0
16824,note_on,,0,0,0,,,0,,71,95
16824,note_on,,0,0,0,,,0,,68,0
16824,note_on,,0,0,0,,,2,,59,95
16836,note_on,,12,0,0,,,0,,71,0
16836,note_on,,0,0,0,,,0,,76,95
16848,note_on,,12,0,0,,,3,,64,0
16848,note_on,,0,0,0,,,0,,77,95
16848,note_on,,0,0,0,,,4,,59,0
16848,note_on,,0,0,0,,,5,,56,0
16848,note_on,,0,0,0,,,6,,44,0
16848,note_on,,0,0,0,,,2,,59,0
16848,note_on,,0,0,0,,,0,,76,0
16848,note_on,,0,0,0,,,1,,77,95
16848,note_on,,0,0,0,,,2,,45,95
16848,note_on,,0,0,0,,,3,,65,95
16848,note_on,,0,0,0,,,4,,60,95
16848,note_on,,0,0,0,,,5,,57,95
16848,note_on,,0,0,0,,,6,,45,95
16860,note_on,,12,0,0,,,0,,77,0
16860,note_on,,0,0,0,,,0,,81,95
16872,note_on,,12,0,0,,,1,,77,0
16872,note_on,,0,0,0,,,0,,84,95
16872,note_on,,0,0,0,,,2,,45,0
16872,note_on,,0,0,0,,,3,,65,0
16872,note_on,,0,0,0,,,4,,60,0
16872,note_on,,0,0,0,,,5,,57,0
16872,note_on,,0,0,0,,,6,,45,0
16872,note_on,,0,0,0,,,0,,81,0
16872,note_on,,0,0,0,,,2,,60,95
16872,note_on,,0,0,0,,,3,,65,95
16872,note_on,,0,0,0,,,4,,60,95
16872,note_on,,0,0,0,,,5,,57,95
16872,note_on,,0,0,0,,,6,,45,95
16884,note_on,,12,0,0,,,0,,84,0
16884,note_on,,0,0,0,,,0,,89,95
16896,note_on,,12,0,0,,,2,,60,0
16896,note_on,,0,0,0,,,0,,68,95
16896,note_on,,0,0,0,,,3,,65,0
16896,note_on,,0,0,0,,,4,,60,0
16896,note_on,,0,0,0,,,5,,57,0
16896,note_on,,0,0,0,,,6,,45,0
16896,note_on,,0,0,0,,,0,,89,0
16896,note_on,,0,0,0,,,2,,47,95
16896,note_on,,0,0,0,,,4,,68,95
16896,note_on,,0,0,0,,,5,,62,95
16896,note_on,,0,0,0,,,6,,59,95
16896,note_on,,0,0,0,,,7,,47,95
16908,note_on,,12,0,0,,,0,,68,0
16908,note_on,,0,0,0,,,0,,71,95
16920,note_on,,12,0,0,,,2,,47,0
16920,note_on,,0,0,0,,,0,,74,95
16920,note_on,,0,0,0,,,0,,71,0
16920,note_on,,0,0,0,,,2,,62,95
16932,note_on,,12,0,0,,,0,,74,0
16932,note_on,,0,0,0,,,0,,80,95
16944,note_on,,12,0,0,,,4,,68,0
16944,note_on,,0,0,0,,,0,,81,95
16944,note_on,,0,0,0,,,5,,62,0
16944,note_on,,0,0,0,,,6,,59,0
16944,note_on,,0,0,0,,,7,,47,0
16944,note_on,,0,0,0,,,2,,62,0
16944,note_on,,0,0,0,,,0,,80,0
16944,note_on,,0,0,0,,,1,,81,95
16944,note_on,,0,0,0,,,2,,48,95
16944,note_on,,0,0,0,,,4,,69,95
16944,note_on,,0,0,0,,,5,,64,95
16944,note_on,,0,0,0,,,6,,60,95
16944,note_on,,0,0,0,,,7,,48,95
16956,note_on,,12,0,0,,,0,,81,0
16956,note_on,,0,0,0,,,0,,84,95
16968,note_on,,12,0,0,,,1,,81,0
16968,note_on,,0,0,0,,,0,,88,95
16968,note_on,,0,0,0,,,2,,48,0
16968,note_on,,0,0,0,,,4,,69,0
16968,note_on,,0,0,0,,,5,,64,0
16968,note_on,,0,0,0,,,6,,60,0
16968,note_on,,0,0,0,,,7,,48,0
16968,note_on,,0,0,0,,,0,,84,0
16968,note_on,,0,0,0,,,2,,64,95
16968,note_on,,0,0,0,,,4,,69,95
16968,note_on,,0,0,0,,,5,,64,95
16968,note_on,,0,0,0,,,6,,60,95
16968,note_on,,0,0,0,,,7,,48,95
16980,note_on,,12,0,0,,,0,,88,0
16980,note_on,,0,0,0,,,0,,93,95
16992,note_on,,12,0,0,,,2,,64,0
16992,note_on,,0,0,0,,,0,,71,95
16992,note_on,,0,0,0,,,4,,69,0
16992,note_on,,0,0,0,,,5,,64,0
16992,note_on,,0,0,0,,,6,,60,0
16992,note_on,,0,0,0,,,7,,48,0
16992,note_on,,0,0,0,,,0,,93,0
16992,note_on,,0,0,0,,,2,,53,95
16992,note_on,,0,0,0,,,4,,69,95
16992,note_on,,0,0,0,,,5,,63,95
16992,note_on,,0,0,0,,,6,,53,95
16992,note_on,,0,0,0,,,7,,41,95
17004,note_on,,12,0,0,,,0,,71,0
17004,note_on,,0,0,0,,,0,,75,95
17016,note_on,,12,0,0,,,2,,53,0
17016,note_on,,0,0,0,,,0,,81,95
17016,note_on,,0,0,0,,,0,,75,0
17016,note_on,,0,0,0,,,1,,69,95
17016,note_on,,0,0,0,,,2,,63,95
17028,note_on,,12,0,0,,,0,,81,0
17028,note_on,,0,0,0,,,0,,83,95
17040,note_on,,12,0,0,,,4,,69,0
17040,note_on,,0,0,0,,,0,,72,95
17040,note_on,,0,0,0,,,5,,63,0
17040,note_on,,0,0,0,,,6,,53,0
17040,note_on,,0,0,0,,,7,,41,0
17040,note_on,,0,0,0,,,1,,69,0
17040,note_on,,0,0,0,,,2,,63,0
17040,note_on,,0,0,0,,,0,,83,0
17040,note_on,,0,0,0,,,2,,52,95
17040,note_on,,0,0,0,,,4,,68,95
17040,note_on,,0,0,0,,,5,,64,95
17040,note_on,,0,0,0,,,6,,52,95
17040,note_on,,0,0,0,,,7,,40,95
17052,note_on,,12,0,0,,,0,,72,0
17052,note_on,,0,0,0,,,0,,84,95
17064,note_on,,12,0,0,,,2,,52,0
17064,note_on,,0,0,0,,,0,,76,95
17064,note_on,,0,0,0,,,0,,84,0
17064,note_on,,0,0,0,,,1,,68,95
17064,note_on,,0,0,0,,,2,,64,95
17064,note_on,,0,0,0,,,3,,62,95
17076,note_on,,12,0,0,,,0,,76,0
17076,note_on,,0,0,0,,,0,,88,95
17088,note_on,,12,0,0,,,4,,68,0
17088,note_on,,0,0,0,,,0,,93,95
17088,note_on,,0,0,0,,,5,,64,0
17088,note_on,,0,0,0,,,6,,52,0
17088,note_on,,0,0,0,,,7,,40,0
17088,note_on,,0,0,0,,,1,,68,0
17088,note_on,,0,0,0,,,2,,64,0
17088,note_on,,0,0,0,,,3,,62,0
17088,note_on,,0,0,0,,,0,,88,0
17088,note_on,,0,0,0,,,1,,88,95
17088,note_on,,0,0,0,,,2,,84,95
17088,note_on,,0,0,0,,,3,,69,95
17088,note_on,,0,0,0,,,4,,64,95
17088,note_on,,0,0,0,,,5,,60,95
17088,note_on,,0,0,0,,,6,,57,95
17088,note_on,,0,0,0,,,7,,45,95
17088,note_on,,0,0,0,,,8,,33,95
17100,note_on,,12,0,0,,,7,,45,0
17100,note_on,,0,0,0,,,8,,33,0
17100,note_on,,0,0,0,,,7,,69,95
17100,note_on,,0,0,0,,,8,,57,95
17112,note_on,,12,0,0,,,7,,69,0
17112,note_on,,0,0,0,,,8,,57,0
17112,note_on,,0,0,0,,,7,,47,95
17112,note_on,,0,0,0,,,8,,35,95
17124,note_on,,12,0,0,,,7,,47,0
17124,note_on,,0,0,0,,,8,,35,0
17124,note_on,,0,0,0,,,7,,71,95
17124,note_on,,0,0,0,,,8,,59,95
17136,note_on,,12,0,0,,,0,,93,0
17136,note_on,,0,0,0,,,0,,93,95
17136,note_on,,0,0,0,,,1,,88,0
17136,note_on,,0,0,0,,,2,,84,0
17136,note_on,,0,0,0,,,3,,69,0
17136,note_on,,0,0,0,,,4,,64,0
17136,note_on,,0,0,0,,,5,,60,0
17136,note_on,,0,0,0,,,6,,57,0
17136,note_on,,0,0,0,,,7,,71,0
17136,note_on,,0,0,0,,,8,,59,0
17136,note_on,,0,0,0,,,1,,88,95
17136,note_on,,0,0,0,,,2,,84,95
17136,note_on,,0,0,0,,,3,,69,95
17136,note_on,,0,0,0,,,4,,64,95
17136,note_on,,0,0,0,,,5,,60,95
17136,note_on,,0,0,0,,,6,,57,95
17136,note_on,,0,0,0,,,7,,48,95
17136,note_on,,0,0,0,,,8,,36,95
17148,note_on,,12,0,0,,,7,,48,0
17148,note_on,,0,0,0,,,8,,36,0
17148,note_on,,0,0,0,,,7,,72,95
17148,note_on,,0,0,0,,,8,,60,95
17160,note_on,,12,0,0,,,0,,93,0
17160,note_on,,0,0,0,,,0,,93,95
17160,note_on,,0,0,0,,,1,,88,0
17160,note_on,,0,0,0,,,2,,84,0
17160,note_on,,0,0,0,,,3,,69,0
17160,note_on,,0,0,0,,,4,,64,0
17160,note_on,,0,0,0,,,5,,60,0
17160,note_on,,0,0,0,,,6,,57,0
17160,note_on,,0,0,0,,,7,,72,0
17160,note_on,,0,0,0,,,8,,60,0
17160,note_on,,0,0,0,,,1,,88,95
17160,note_on,,0,0,0,,,2,,84,95
17160,note_on,,0,0,0,,,3,,69,95
17160,note_on,,0,0,0,,,4,,64,95
17160,note_on,,0,0,0,,,5,,60,95
17160,note_on,,0,0,0,,,6,,57,95
17160,note_on,,0,0,0,,,7,,50,95
17160,note_on,,0,0,0,,,8,,38,95
17172,note_on,,12,0,0,,,7,,50,0
17172,note_on,,0,0,0,,,8,,38,0
17172,note_on,,0,0,0,,,7,,74,95
17172,note_on,,0,0,0,,,8,,62,95
17184,note_on,,12,0,0,,,0,,93,0
17184,note_on,,0,0,0,,,0,,93,95
17184,note_on,,0,0,0,,,1,,88,0
17184,note_on,,0,0,0,,,2,,84,0
17184,note_on,,0,0,0,,,3,,69,0
17184,note_on,,0,0,0,,,4,,64,0
17184,note_on,,0,0,0,,,5,,60,0
17184,note_on,,0,0,0,,,6,,57,0
17184,note_on,,0,0,0,,,7,,74,0
17184,note_on,,0,0,0,,,8,,62,0
17184,note_on,,0,0,0,,,1,,88,95
17184,note_on,,0,0,0,,,2,,84,95
17184,note_on,,0,0,0,,,3,,69,95
17184,note_on,,0,0,0,,,4,,64,95
17184,note_on,,0,0,0,,,5,,60,95
17184,note_on,,0,0,0,,,6,,57,95
17184,note_on,,0,0,0,,,7,,52,95
17184,note_on,,0,0,0,,,8,,40,95
17196,note_on,,12,0,0,,,7,,52,0
17196,note_on,,0,0,0,,,8,,40,0
17196,note_on,,0,0,0,,,7,,76,95
17196,note_on,,0,0,0,,,8,,64,95
17208,note_on,,12,0,0,,,7,,76,0
17208,note_on,,0,0,0,,,8,,64,0
17208,note_on,,0,0,0,,,7,,54,95
17208,note_on,,0,0,0,,,8,,42,95
17220,note_on,,12,0,0,,,7,,54,0
17220,note_on,,0,0,0,,,8,,42,0
17220,note_on,,0,0,0,,,7,,78,95
17220,note_on,,0,0,0,,,8,,66,95
17232,note_on,,12,0,0,,,0,,93,0
17232,note_on,,0,0,0,,,0,,93,95
17232,note_on,,0,0,0,,,1,,88,0
17232,note_on,,0,0,0,,,2,,84,0
17232,note_on,,0,0,0,,,3,,69,0
17232,note_on,,0,0,0,,,4,,64,0
17232,note_on,,0,0,0,,,5,,60,0
17232,note_on,,0,0,0,,,6,,57,0
17232,note_on,,0,0,0,,,7,,78,0
17232,note_on,,0,0,0,,,8,,66,0
17232,note_on,,0,0,0,,,1,,88,95
17232,note_on,,0,0,0,,,2,,84,95
17232,note_on,,0,0,0,,,3,,69,95
17232,note_on,,0,0,0,,,4,,64,95
17232,note_on,,0,0,0,,,5,,60,95
17232,note_on,,0,0,0,,,6,,57,95
17232,note_on,,0,0,0,,,7,,56,95
17232,note_on,,0,0,0,,,8,,44,95
17244,note_on,,12,0,0,,,7,,56,0
17244,note_on,,0,0,0,,,8,,44,0
17244,note_on,,0,0,0,,,7,,80,95
17244,note_on,,0,0,0,,,8,,68,95
17256,note_on,,12,0,0,,,0,,93,0
17256,note_on,,0,0,0,,,0,,93,95
17256,note_on,,0,0,0,,,1,,88,0
17256,note_on,,0,0,0,,,2,,84,0
17256,note_on,,0,0,0,,,3,,69,0
17256,note_on,,0,0,0,,,4,,64,0
17256,note_on,,0,0,0,,,5,,60,0
17256,note_on,,0,0,0,,,6,,57,0
17256,note_on,,0,0,0,,,7,,80,0
17256,note_on,,0,0,0,,,8,,68,0
17256,note_on,,0,0,0,,,1,,88,95
17256,note_on,,0,0,0,,,2,,84,95
17256,note_on,,0,0,0,,,3,,69,95
17256,note_on,,0,0,0,,,4,,64,95
17256,note_on,,0,0,0,,,5,,60,95
17256,note_on,,0,0,0,,,6,,57,95
17256,note_on,,0,0,0,,,7,,57,95
17256,note_on,,0,0,0,,,8,,45,95
17268,note_on,,12,0,0,,,7,,57,0
17268,note_on,,0,0,0,,,8,,45,0
17268,note_on,,0,0,0,,,7,,81,95
17268,note_on,,0,0,0,,,8,,69,95
17280,note_on,,12,0,0,,,0,,93,0
17280,note_on,,0,0,0,,,0,,93,95
17280,note_on,,0,0,0,,,1,,88,0
17280,note_on,,0,0,0,,,2,,84,0
17280,note_on,,0,0,0,,,3,,69,0
17280,note_on,,0,0,0,,,4,,64,0
17280,note_on,,0,0,0,,,5,,60,0
17280,note_on,,0,0,0,,,6,,57,0
17280,note_on,,0,0,0,,,7,,81,0
17280,note_on,,0,0,0,,,8,,69,0
17280,note_on,,0,0,0,,,1,,88,95
17280,note_on,,0,0,0,,,2,,85,95
17280,note_on,,0,0,0,,,3,,69,95
17280,note_on,,0,0,0,,,4,,64,95
17280,note_on,,0,0,0,,,5,,61,95
17280,note_on,,0,0,0,,,6,,58,95
17280,note_on,,0,0,0,,,7,,70,95
17280,note_on,,0,0,0,,,8,,46,95
17292,note_on,,12,0,0,,,7,,70,0
17292,note_on,,0,0,0,,,8,,46,0
17292,note_on,,0,0,0,,,7,,82,95
17292,note_on,,0,0,0,,,8,,58,95
17304,note_on,,12,0,0,,,0,,93,0
17304,note_on,,0,0,0,,,0,,90,95
17304,note_on,,0,0,0,,,1,,88,0
17304,note_on,,0,0,0,,,2,,85,0
17304,note_on,,0,0,0,,,3,,69,0
17304,note_on,,0,0,0,,,4,,64,0
17304,note_on,,0,0,0,,,5,,61,0
17304,note_on,,0,0,0,,,6,,58,0
17304,note_on,,0,0,0,,,7,,82,0
17304,note_on,,0,0,0,,,8,,58,0
17304,note_on,,0,0,0,,,1,,88,95
17304,note_on,,0,0,0,,,2,,78,95
17304,note_on,,0,0,0,,,3,,66,95
17304,note_on,,0,0,0,,,4,,64,95
17304,note_on,,0,0,0,,,5,,61,95
17304,note_on,,0,0,0,,,6,,58,95
17304,note_on,,0,0,0,,,7,,70,95
17304,note_on,,0,0,0,,,8,,46,95
17316,note_on,,12,0,0,,,7,,70,0
17316,note_on,,0,0,0,,,8,,46,0
17316,note_on,,0,0,0,,,7,,82,95
17316,note_on,,0,0,0,,,8,,58,95
17328,note_on,,12,0,0,,,0,,90,0
17328,note_on,,0,0,0,,,0,,91,95
17328,note_on,,0,0,0,,,1,,88,0
17328,note_on,,0,0,0,,,2,,78,0
17328,note_on,,0,0,0,,,3,,66,0
17328,note_on,,0,0,0,,,4,,64,0
17328,note_on,,0,0,0,,,5,,61,0
17328,note_on,,0,0,0,,,6,,58,0
17328,note_on,,0,0,0,,,7,,82,0
17328,note_on,,0,0,0,,,8,,58,0
17328,note_on,,0,0,0,,,1,,88,95
17328,note_on,,0,0,0,,,2,,79,95
17328,note_on,,0,0,0,,,3,,67,95
17328,note_on,,0,0,0,,,4,,64,95
17328,note_on,,0,0,0,,,5,,61,95
17328,note_on,,0,0,0,,,6,,58,95
17328,note_on,,0,0,0,,,7,,70,95
17328,note_on,,0,0,0,,,8,,46,95
17340,note_on,,12,0,0,,,7,,70,0
17340,note_on,,0,0,0,,,8,,46,0
17340,note_on,,0,0,0,,,7,,82,95
17340,note_on,,0,0,0,,,8,,58,95
17352,note_on,,12,0,0,,,7,,82,0
17352,note_on,,0,0,0,,,8,,58,0
17352,note_on,,0,0,0,,,7,,70,95
17352,note_on,,0,0,0,,,8,,46,95
17364,note_on,,12,0,0,,,7,,70,0
17364,note_on,,0,0,0,,,8,,46,0
17364,note_on,,0,0,0,,,7,,82,95
17364,note_on,,0,0,0,,,8,,58,95
17376,note_on,,12,0,0,,,0,,91,0
17376,note_on,,0,0,0,,,1,,88,0
17376,note_on,,0,0,0,,,2,,79,0
17376,note_on,,0,0,0,,,3,,67,0
17376,note_on,,0,0,0,,,4,,64,0
17376,note_on,,0,0,0,,,5,,61,0
17376,note_on,,0,0,0,,,6,,58,0
17376,note_on,,0,0,0,,,7,,82,0
17376,note_on,,0,0,0,,,8,,58,0
17376,note_on,,0,0,0,,,1,,67,95
17376,note_on,,0,0,0,,,2,,64,95
17376,note_on,,0,0,0,,,3,,61,95
17376,note_on,,0,0,0,,,4,,58,95
17376,note_on,,0,0,0,,,5,,55,95
17376,note_on,,0,0,0,,,6,,52,95
17376,note_on,,0,0,0,,,7,,49,95
17376,note_on,,0,0,0,,,8,,46,95
17400,note_on,,24,0,0,,,1,,67,0
17400,note_on,,0,0,0,,,2,,64,0
17400,note_on,,0,0,0,,,3,,61,0
17400,note_on,,0,0,0,,,4,,58,0
17400,note_on,,0,0,0,,,5,,55,0
17400,note_on,,0,0,0,,,6,,52,0
17400,note_on,,0,0,0,,,7,,49,0
17400,note_on,,0,0,0,,,8,,46,0
17400,note_on,,0,0,0,,,1,,67,95
17400,note_on,,0,0,0,,,2,,64,95
17400,note_on,,0,0,0,,,3,,61,95
17400,note_on,,0,0,0,,,4,,58,95
17400,note_on,,0,0,0,,,5,,55,95
17400,note_on,,0,0,0,,,6,,52,95
17400,note_on,,0,0,0,,,7,,49,95
17400,note_on,,0,0,0,,,8,,46,95
17424,note_on,,24,0,0,,,1,,67,0
17424,note_on,,0,0,0,,,2,,64,0
17424,note_on,,0,0,0,,,3,,61,0
17424,note_on,,0,0,0,,,4,,58,0
17424,note_on,,0,0,0,,,5,,55,0
17424,note_on,,0,0,0,,,6,,52,0
17424,note_on,,0,0,0,,,7,,49,0
17424,note_on,,0,0,0,,,8,,46,0
17424,note_on,,0,0,0,,,1,,67,95
17424,note_on,,0,0,0,,,2,,64,95
17424,note_on,,0,0,0,,,3,,61,95
17424,note_on,,0,0,0,,,4,,58,95
17424,note_on,,0,0,0,,,5,,55,95
17424,note_on,,0,0,0,,,6,,52,95
17424,note_on,,0,0,0,,,7,,49,95
17424,note_on,,0,0,0,,,8,,46,95
17472,note_on,,48,0,0,,,1,,67,0
17472,note_on,,0,0,0,,,0,,91,95
17472,note_on,,0,0,0,,,2,,64,0
17472,note_on,,0,0,0,,,3,,61,0
17472,note_on,,0,0,0,,,4,,58,0
17472,note_on,,0,0,0,,,5,,55,0
17472,note_on,,0,0,0,,,6,,52,0
17472,note_on,,0,0,0,,,7,,49,0
17472,note_on,,0,0,0,,,8,,46,0
17472,note_on,,0,0,0,,,1,,88,95
17472,note_on,,0,0,0,,,2,,79,95
17472,note_on,,0,0,0,,,3,,67,95
17472,note_on,,0,0,0,,,4,,64,95
17472,note_on,,0,0,0,,,5,,58,95
17472,note_on,,0,0,0,,,6,,45,95
17472,note_on,,0,0,0,,,7,,33,95
17484,note_on,,12,0,0,,,6,,45,0
17484,note_on,,0,0,0,,,7,,33,0
17484,note_on,,0,0,0,,,6,,69,95
17484,note_on,,0,0,0,,,7,,57,95
17496,note_on,,12,0,0,,,6,,69,0
17496,note_on,,0,0,0,,,7,,57,0
17496,note_on,,0,0,0,,,6,,47,95
17496,note_on,,0,0,0,,,7,,35,95
17508,note_on,,12,0,0,,,6,,47,0
17508,note_on,,0,0,0,,,7,,35,0
17508,note_on,,0,0,0,,,6,,71,95
17508,note_on,,0,0,0,,,7,,59,95
17520,note_on,,12,0,0,,,0,,91,0
17520,note_on,,0,0,0,,,0,,91,95
17520,note_on,,0,0,0,,,1,,88,0
17520,note_on,,0,0,0,,,2,,79,0
17520,note_on,,0,0,0,,,3,,67,0
17520,note_on,,0,0,0,,,4,,64,0
17520,note_on,,0,0,0,,,5,,58,0
17520,note_on,,0,0,0,,,6,,71,0
17520,note_on,,0,0,0,,,7,,59,0
17520,note_on,,0,0,0,,,1,,88,95
17520,note_on,,0,0,0,,,2,,79,95
17520,note_on,,0,0,0,,,3,,67,95
17520,note_on,,0,0,0,,,4,,64,95
17520,note_on,,0,0,0,,,5,,58,95
17520,note_on,,0,0,0,,,6,,49,95
17520,note_on,,0,0,0,,,7,,37,95
17532,note_on,,12,0,0,,,6,,49,0
17532,note_on,,0,0,0,,,7,,37,0
17532,note_on,,0,0,0,,,6,,73,95
17532,note_on,,0,0,0,,,7,,61,95
17544,note_on,,12,0,0,,,0,,91,0
17544,note_on,,0,0,0,,,0,,91,95
17544,note_on,,0,0,0,,,1,,88,0
17544,note_on,,0,0,0,,,2,,79,0
17544,note_on,,0,0,0,,,3,,67,0
17544,note_on,,0,0,0,,,4,,64,0
17544,note_on,,0,0,0,,,5,,58,0
17544,note_on,,0,0,0,,,6,,73,0
17544,note_on,,0,0,0,,,7,,61,0
17544,note_on,,0,0,0,,,1,,88,95
17544,note_on,,0,0,0,,,2,,79,95
17544,note_on,,0,0,0,,,3,,67,95
17544,note_on,,0,0,0,,,4,,64,95
17544,note_on,,0,0,0,,,5,,58,95
17544,note_on,,0,0,0,,,6,,50,95
17544,note_on,,0,0,0,,,7,,38,95
17556,note_on,,12,0,0,,,6,,50,0
17556,note_on,,0,0,0,,,7,,38,0
17556,note_on,,0,0,0,,,6,,74,95
17556,note_on,,0,0,0,,,7,,62,95
17568,note_on,,12,0,0,,,0,,91,0
17568,note_on,,0,0,0,,,0,,91,95
17568,note_on,,0,0,0,,,1,,88,0
17568,note_on,,0,0,0,,,2,,79,0
17568,note_on,,0,0,0,,,3,,67,0
17568,note_on,,0,0,0,,,4,,64,0
17568,note_on,,0,0,0,,,5,,58,0
17568,note_on,,0,0,0,,,6,,74,0
17568,note_on,,0,0,0,,,7,,62,0
17568,note_on,,0,0,0,,,1,,88,95
17568,note_on,,0,0,0,,,2,,79,95
17568,note_on,,0,0,0,,,3,,67,95
17568,note_on,,0,0,0,,,4,,64,95
17568,note_on,,0,0,0,,,5,,58,95
17568,note_on,,0,0,0,,,6,,52,95
17568,note_on,,0,0,0,,,7,,40,95
17580,note_on,,12,0,0,,,6,,52,0
17580,note_on,,0,0,0,,,7,,40,0
17580,note_on,,0,0,0,,,6,,76,95
17580,note_on,,0,0,0,,,7,,64,95
17592,note_on,,12,0,0,,,6,,76,0
17592,note_on,,0,0,0,,,7,,64,0
17592,note_on,,0,0,0,,,6,,53,95
17592,note_on,,0,0,0,,,7,,41,95
17604,note_on,,12,0,0,,,6,,53,0
17604,note_on,,0,0,0,,,7,,41,0
17604,note_on,,0,0,0,,,6,,77,95
17604,note_on,,0,0,0,,,7,,65,95
17616,note_on,,12,0,0,,,0,,91,0
17616,note_on,,0,0,0,,,0,,91,95
17616,note_on,,0,0,0,,,1,,88,0
17616,note_on,,0,0,0,,,2,,79,0
17616,note_on,,0,0,0,,,3,,67,0
17616,note_on,,0,0,0,,,4,,64,0
17616,note_on,,0,0,0,,,5,,58,0
17616,note_on,,0,0,0,,,6,,77,0
17616,note_on,,0,0,0,,,7,,65,0
17616,note_on,,0,0,0,,,1,,88,95
17616,note_on,,0,0,0,,,2,,79,95
17616,note_on,,0,0,0,,,3,,67,95
17616,note_on,,0,0,0,,,4,,64,95
17616,note_on,,0,0,0,,,5,,58,95
17616,note_on,,0,0,0,,,6,,55,95
17616,note_on,,0,0,0,,,7,,43,95
17628,note_on,,12,0,0,,,6,,55,0
17628,note_on,,0,0,0,,,7,,43,0
17628,note_on,,0,0,0,,,6,,79,95
17628,note_on,,0,0,0,,,7,,67,95
17640,note_on,,12,0,0,,,0,,91,0
17640,note_on,,0,0,0,,,0,,91,95
17640,note_on,,0,0,0,,,1,,88,0
17640,note_on,,0,0,0,,,2,,79,0
17640,note_on,,0,0,0,,,3,,67,0
17640,note_on,,0,0,0,,,4,,64,0
17640,note_on,,0,0,0,,,5,,58,0
17640,note_on,,0,0,0,,,6,,79,0
17640,note_on,,0,0,0,,,7,,67,0
17640,note_on,,0,0,0,,,1,,88,95
17640,note_on,,0,0,0,,,2,,79,95
17640,note_on,,0,0,0,,,3,,67,95
17640,note_on,,0,0,0,,,4,,64,95
17640,note_on,,0,0,0,,,5,,58,95
17640,note_on,,0,0,0,,,6,,56,95
17640,note_on,,0,0,0,,,7,,44,95
17652,note_on,,12,0,0,,,6,,56,0
17652,note_on,,0,0,0,,,7,,44,0
17652,note_on,,0,0,0,,,6,,80,95
17652,note_on,,0,0,0,,,7,,68,95
17664,note_on,,12,0,0,,,0,,91,0
17664,note_on,,0,0,0,,,0,,91,95
17664,note_on,,0,0,0,,,1,,88,0
17664,note_on,,0,0,0,,,2,,79,0
17664,note_on,,0,0,0,,,3,,67,0
17664,note_on,,0,0,0,,,4,,64,0
17664,note_on,,0,0,0,,,5,,58,0
17664,note_on,,0,0,0,,,6,,80,0
17664,note_on,,0,0,0,,,7,,68,0
17664,note_on,,0,0,0,,,1,,88,95
17664,note_on,,0,0,0,,,2,,79,95
17664,note_on,,0,0,0,,,3,,67,95
17664,note_on,,0,0,0,,,4,,64,95
17664,note_on,,0,0,0,,,5,,57,95
17664,note_on,,0,0,0,,,6,,69,95
17664,note_on,,0,0,0,,,7,,45,95
17676,note_on,,12,0,0,,,6,,69,0
17676,note_on,,0,0,0,,,7,,45,0
17676,note_on,,0,0,0,,,6,,81,95
17676,note_on,,0,0,0,,,7,,57,95
17688,note_on,,12,0,0,,,0,,91,0
17688,note_on,,0,0,0,,,0,,88,95
17688,note_on,,0,0,0,,,1,,88,0
17688,note_on,,0,0,0,,,2,,79,0
17688,note_on,,0,0,0,,,3,,67,0
17688,note_on,,0,0,0,,,4,,64,0
17688,note_on,,0,0,0,,,5,,57,0
17688,note_on,,0,0,0,,,6,,81,0
17688,note_on,,0,0,0,,,7,,57,0
17688,note_on,,0,0,0,,,1,,85,95
17688,note_on,,0,0,0,,,2,,76,95
17688,note_on,,0,0,0,,,3,,64,95
17688,note_on,,0,0,0,,,4,,61,95
17688,note_on,,0,0,0,,,5,,57,95
17688,note_on,,0,0,0,,,6,,69,95
17688,note_on,,0,0,0,,,7,,45,95
17700,note_on,,12,0,0,,,6,,69,0
17700,note_on,,0,0,0,,,7,,45,0
17700,note_on,,0,0,0,,,6,,81,95
17700,note_on,,0,0,0,,,7,,57,95
17712,note_on,,12,0,0,,,0,,88,0
17712,note_on,,0,0,0,,,0,,89,95
17712,note_on,,0,0,0,,,1,,85,0
17712,note_on,,0,0,0,,,2,,76,0
17712,note_on,,0,0,0,,,3,,64,0
17712,note_on,,0,0,0,,,4,,61,0
17712,note_on,,0,0,0,,,5,,57,0
17712,note_on,,0,0,0,,,6,,81,0
17712,note_on,,0,0,0,,,7,,57,0
17712,note_on,,0,0,0,,,1,,86,95
17712,note_on,,0,0,0,,,2,,77,95
17712,note_on,,0,0,0,,,3,,65,95
17712,note_on,,0,0,0,,,4,,62,95
17712,note_on,,0,0,0,,,5,,57,95
17712,note_on,,0,0,0,,,6,,69,95
17712,note_on,,0,0,0,,,7,,45,95
17724,note_on,,12,0,0,,,6,,69,0
17724,note_on,,0,0,0,,,7,,45,0
17724,note_on,,0,0,0,,,6,,81,95
17724,note_on,,0,0,0,,,7,,57,95
17736,note_on,,12,0,0,,,6,,81,0
17736,note_on,,0,0,0,,,7,,57,0
17736,note_on,,0,0,0,,,6,,69,95
17736,note_on,,0,0,0,,,7,,45,95
17748,note_on,,12,0,0,,,6,,69,0
17748,note_on,,0,0,0,,,7,,45,0
17748,note_on,,0,0,0,,,6,,81,95
17748,note_on,,0,0,0,,,7,,57,95
17760,note_on,,12,0,0,,,0,,89,0
17760,note_on,,0,0,0,,,0,,65,95
17760,note_on,,0,0,0,,,1,,86,0
17760,note_on,,0,0,0,,,2,,77,0
17760,note_on,,0,0,0,,,3,,65,0
17760,note_on,,0,0,0,,,4,,62,0
17760,note_on,,0,0,0,,,5,,57,0
17760,note_on,,0,0,0,,,6,,81,0
17760,note_on,,0,0,0,,,7,,57,0
17760,note_on,,0,0,0,,,1,,62,95
17760,note_on,,0,0,0,,,2,,57,95
17760,note_on,,0,0,0,,,3,,53,95
17760,note_on,,0,0,0,,,4,,50,95
17784,note_on,,24,0,0,,,0,,65,0
17784,note_on,,0,0,0,,,0,,65,95
17784,note_on,,0,0,0,,,1,,62,0
17784,note_on,,0,0,0,,,2,,57,0
17784,note_on,,0,0,0,,,3,,53,0
17784,note_on,,0,0,0,,,4,,50,0
17784,note_on,,0,0,0,,,1,,62,95
17784,note_on,,0,0,0,,,2,,57,95
17784,note_on,,0,0,0,,,3,,53,95
17784,note_on,,0,0,0,,,4,,50,95
17808,note_on,,24,0,0,,,0,,65,0
17808,note_on,,0,0,0,,,0,,65,95
17808,note_on,,0,0,0,,,1,,62,0
17808,note_on,,0,0,0,,,2,,57,0
17808,note_on,,0,0,0,,,3,,53,0
17808,note_on,,0,0,0,,,4,,50,0
17808,note_on,,0,0,0,,,1,,62,95
17808,note_on,,0,0,0,,,2,,57,95
17808,note_on,,0,0,0,,,3,,53,95
17808,note_on,,0,0,0,,,4,,50,95
17856,note_on,,48,0,0,,,0,,65,0
17856,note_on,,0,0,0,,,0,,89,95
17856,note_on,,0,0,0,,,1,,62,0
17856,note_on,,0,0,0,,,2,,57,0
17856,note_on,,0,0,0,,,3,,53,0
17856,note_on,,0,0,0,,,4,,50,0
17856,note_on,,0,0,0,,,1,,86,95
17856,note_on,,0,0,0,,,2,,77,95
17856,note_on,,0,0,0,,,3,,65,95
17856,note_on,,0,0,0,,,4,,62,95
17856,note_on,,0,0,0,,,5,,57,95
17856,note_on,,0,0,0,,,6,,69,95
17856,note_on,,0,0,0,,,7,,45,95
17868,note_on,,12,0,0,,,6,,69,0
17868,note_on,,0,0,0,,,7,,45,0
17868,note_on,,0,0,0,,,6,,81,95
17868,note_on,,0,0,0,,,7,,57,95
17880,note_on,,12,0,0,,,0,,89,0
17880,note_on,,0,0,0,,,0,,87,95
17880,note_on,,0,0,0,,,1,,86,0
17880,note_on,,0,0,0,,,2,,77,0
17880,note_on,,0,0,0,,,3,,65,0
17880,note_on,,0,0,0,,,4,,62,0
17880,note_on,,0,0,0,,,5,,57,0
17880,note_on,,0,0,0,,,6,,81,0
17880,note_on,,0,0,0,,,7,,57,0
17880,note_on,,0,0,0,,,1,,83,95
17880,note_on,,0,0,0,,,2,,75,95
17880,note_on,,0,0,0,,,3,,63,95
17880,note_on,,0,0,0,,,4,,59,95
17880,note_on,,0,0,0,,,5,,57,95
17880,note_on,,0,0,0,,,6,,69,95
17880,note_on,,0,0,0,,,7,,45,95
17892,note_on,,12,0,0,,,6,,69,0
17892,note_on,,0,0,0,,,7,,45,0
17892,note_on,,0,0,0,,,6,,81,95
17892,note_on,,0,0,0,,,7,,57,95
17904,note_on,,12,0,0,,,0,,87,0
17904,note_on,,0,0,0,,,0,,88,95
17904,note_on,,0,0,0,,,1,,83,0
17904,note_on,,0,0,0,,,2,,75,0
17904,note_on,,0,0,0,,,3,,63,0
17904,note_on,,0,0,0,,,4,,59,0
17904,note_on,,0,0,0,,,5,,57,0
17904,note_on,,0,0,0,,,6,,81,0
17904,note_on,,0,0,0,,,7,,57,0
17904,note_on,,0,0,0,,,1,,84,95
17904,note_on,,0,0,0,,,2,,76,95
17904,note_on,,0,0,0,,,3,,64,95
17904,note_on,,0,0,0,,,4,,60,95
17904,note_on,,0,0,0,,,5,,57,95
17904,note_on,,0,0,0,,,6,,69,95
17904,note_on,,0,0,0,,,7,,45,95
17916,note_on,,12,0,0,,,6,,69,0
17916,note_on,,0,0,0,,,7,,45,0
17916,note_on,,0,0,0,,,6,,81,95
17916,note_on,,0,0,0,,,7,,57,95
17928,note_on,,12,0,0,,,6,,81,0
17928,note_on,,0,0,0,,,7,,57,0
17928,note_on,,0,0,0,,,6,,69,95
17928,note_on,,0,0,0,,,7,,45,95
17940,note_on,,12,0,0,,,6,,69,0
17940,note_on,,0,0,0,,,7,,45,0
17940,note_on,,0,0,0,,,6,,81,95
17940,note_on,,0,0,0,,,7,,57,95
17952,note_on,,12,0,0,,,0,,88,0
17952,note_on,,0,0,0,,,0,,64,95
17952,note_on,,0,0,0,,,1,,84,0
17952,note_on,,0,0,0,,,2,,76,0
17952,note_on,,0,0,0,,,3,,64,0
17952,note_on,,0,0,0,,,4,,60,0
17952,note_on,,0,0,0,,,5,,57,0
17952,note_on,,0,0,0,,,6,,81,0
17952,note_on,,0,0,0,,,7,,57,0
17952,note_on,,0,0,0,,,1,,60,95
17952,note_on,,0,0,0,,,2,,57,95
17952,note_on,,0,0,0,,,3,,52,95
17952,note_on,,0,0,0,,,4,,48,95
17952,note_on,,0,0,0,,,5,,45,95
17976,note_on,,24,0,0,,,0,,64,0
17976,note_on,,0,0,0,,,0,,64,95
17976,note_on,,0,0,0,,,1,,60,0
17976,note_on,,0,0,0,,,2,,57,0
17976,note_on,,0,0,0,,,3,,52,0
17976,note_on,,0,0,0,,,4,,48,0
17976,note_on,,0,0,0,,,5,,45,0
17976,note_on,,0,0,0,,,1,,60,95
17976,note_on,,0,0,0,,,2,,57,95
17976,note_on,,0,0,0,,,3,,52,95
17976,note_on,,0,0,0,,,4,,48,95
17976,note_on,,0,0,0,,,5,,45,95
18000,note_on,,24,0,0,,,0,,64,0
18000,note_on,,0,0,0,,,0,,64,95
18000,note_on,,0,0,0,,,1,,60,0
18000,note_on,,0,0,0,,,2,,57,0
18000,note_on,,0,0,0,,,3,,52,0
18000,note_on,,0,0,0,,,4,,48,0
18000,note_on,,0,0,0,,,5,,45,0
18000,note_on,,0,0,0,,,1,,60,95
18000,note_on,,0,0,0,,,2,,57,95
18000,note_on,,0,0,0,,,3,,52,95
18000,note_on,,0,0,0,,,4,,48,95
18000,note_on,,0,0,0,,,5,,45,95
18048,note_on,,48,0,0,,,0,,64,0
18048,note_on,,0,0,0,,,0,,88,95
18048,note_on,,0,0,0,,,1,,60,0
18048,note_on,,0,0,0,,,2,,57,0
18048,note_on,,0,0,0,,,3,,52,0
18048,note_on,,0,0,0,,,4,,48,0
18048,note_on,,0,0,0,,,5,,45,0
18048,note_on,,0,0,0,,,1,,83,95
18048,note_on,,0,0,0,,,2,,76,95
18048,note_on,,0,0,0,,,3,,64,95
18048,note_on,,0,0,0,,,4,,59,95
18048,note_on,,0,0,0,,,5,,57,95
18048,note_on,,0,0,0,,,6,,69,95
18048,note_on,,0,0,0,,,7,,45,95
18060,note_on,,12,0,0,,,6,,69,0
18060,note_on,,0,0,0,,,7,,45,0
18060,note_on,,0,0,0,,,6,,81,95
18060,note_on,,0,0,0,,,7,,57,95
18072,note_on,,12,0,0,,,0,,88,0
18072,note_on,,0,0,0,,,0,,85,95
18072,note_on,,0,0,0,,,1,,83,0
18072,note_on,,0,0,0,,,2,,76,0
18072,note_on,,0,0,0,,,3,,64,0
18072,note_on,,0,0,0,,,4,,59,0
18072,note_on,,0,0,0,,,5,,57,0
18072,note_on,,0,0,0,,,6,,81,0
18072,note_on,,0,0,0,,,7,,57,0
18072,note_on,,0,0,0,,,1,,83,95
18072,note_on,,0,0,0,,,2,,73,95
18072,note_on,,0,0,0,,,3,,61,95
18072,note_on,,0,0,0,,,4,,59,95
18072,note_on,,0,0,0,,,5,,57,95
18072,note_on,,0,0,0,,,6,,69,95
18072,note_on,,0,0,0,,,7,,45,95
18084,note_on,,12,0,0,,,6,,69,0
18084,note_on,,0,0,0,,,7,,45,0
18084,note_on,,0,0,0,,,6,,81,95
18084,note_on,,0,0,0,,,7,,57,95
18096,note_on,,12,0,0,,,0,,85,0
18096,note_on,,0,0,0,,,0,,86,95
18096,note_on,,0,0,0,,,1,,83,0
18096,note_on,,0,0,0,,,2,,73,0
18096,note_on,,0,0,0,,,3,,61,0
18096,note_on,,0,0,0,,,4,,59,0
18096,note_on,,0,0,0,,,5,,57,0
18096,note_on,,0,0,0,,,6,,81,0
18096,note_on,,0,0,0,,,7,,57,0
18096,note_on,,0,0,0,,,1,,83,95
18096,note_on,,0,0,0,,,2,,74,95
18096,note_on,,0,0,0,,,3,,62,95
18096,note_on,,0,0,0,,,4,,59,95
18096,note_on,,0,0,0,,,5,,57,95
18096,note_on,,0,0,0,,,6,,69,95
18096,note_on,,0,0,0,,,7,,45,95
18108,note_on,,12,0,0,,,6,,69,0
18108,note_on,,0,0,0,,,7,,45,0
18108,note_on,,0,0,0,,,6,,81,95
18108,note_on,,0,0,0,,,7,,57,95
18120,note_on,,12,0,0,,,6,,81,0
18120,note_on,,0,0,0,,,7,,57,0
18120,note_on,,0,0,0,,,6,,69,95
18120,note_on,,0,0,0,,,7,,45,95
18132,note_on,,12,0,0,,,6,,69,0
18132,note_on,,0,0,0,,,7,,45,0
18132,note_on,,0,0,0,,,6,,81,95
18132,note_on,,0,0,0,,,7,,57,95
18144,note_on,,12,0,0,,,0,,86,0
18144,note_on,,0,0,0,,,1,,83,0
18144,note_on,,0,0,0,,,2,,74,0
18144,note_on,,0,0,0,,,3,,62,0
18144,note_on,,0,0,0,,,4,,59,0
18144,note_on,,0,0,0,,,5,,57,0
18144,note_on,,0,0,0,,,6,,81,0
18144,note_on,,0,0,0,,,7,,57,0
18144,note_on,,0,0,0,,,2,,62,95
18144,note_on,,0,0,0,,,3,,59,95
18144,note_on,,0,0,0,,,4,,57,95
18144,note_on,,0,0,0,,,5,,50,95
18144,note_on,,0,0,0,,,6,,47,95
18144,note_on,,0,0,0,,,7,,45,95
18168,note_on,,24,0,0,,,2,,62,0
18168,note_on,,0,0,0,,,3,,59,0
18168,note_on,,0,0,0,,,4,,57,0
18168,note_on,,0,0,0,,,5,,50,0
18168,note_on,,0,0,0,,,6,,47,0
18168,note_on,,0,0,0,,,7,,45,0
18168,note_on,,0,0,0,,,2,,62,95
18168,note_on,,0,0,0,,,3,,59,95
18168,note_on,,0,0,0,,,4,,57,95
18168,note_on,,0,0,0,,,5,,50,95
18168,note_on,,0,0,0,,,6,,47,95
18168,note_on,,0,0,0,,,7,,45,95
18192,note_on,,24,0,0,,,2,,62,0
18192,note_on,,0,0,0,,,3,,59,0
18192,note_on,,0,0,0,,,4,,57,0
18192,note_on,,0,0,0,,,5,,50,0
18192,note_on,,0,0,0,,,6,,47,0
18192,note_on,,0,0,0,,,7,,45,0
18192,note_on,,0,0,0,,,2,,62,95
18192,note_on,,0,0,0,,,3,,59,95
18192,note_on,,0,0,0,,,4,,57,95
18192,note_on,,0,0,0,,,5,,50,95
18192,note_on,,0,0,0,,,6,,47,95
18192,note_on,,0,0,0,,,7,,45,95
18240,note_on,,48,0,0,,,2,,62,0
18240,note_on,,0,0,0,,,0,,86,95
18240,note_on,,0,0,0,,,3,,59,0
18240,note_on,,0,0,0,,,4,,57,0
18240,note_on,,0,0,0,,,5,,50,0
18240,note_on,,0,0,0,,,6,,47,0
18240,note_on,,0,0,0,,,7,,45,0
18240,note_on,,0,0,0,,,1,,83,95
18240,note_on,,0,0,0,,,2,,74,95
18240,note_on,,0,0,0,,,3,,62,95
18240,note_on,,0,0,0,,,4,,59,95
18240,note_on,,0,0,0,,,5,,57,95
18264,note_on,,24,0,0,,,0,,86,0
18264,note_on,,0,0,0,,,0,,83,95
18264,note_on,,0,0,0,,,1,,83,0
18264,note_on,,0,0,0,,,2,,74,0
18264,note_on,,0,0,0,,,3,,62,0
18264,note_on,,0,0,0,,,4,,59,0
18264,note_on,,0,0,0,,,1,,80,95
18264,note_on,,0,0,0,,,2,,71,95
18264,note_on,,0,0,0,,,3,,59,95
18264,note_on,,0,0,0,,,4,,57,95
18288,note_on,,24,0,0,,,5,,57,0
18288,note_on,,0,0,0,,,0,,84,95
18288,note_on,,0,0,0,,,0,,83,0
18288,note_on,,0,0,0,,,1,,80,0
18288,note_on,,0,0,0,,,2,,71,0
18288,note_on,,0,0,0,,,3,,59,0
18288,note_on,,0,0,0,,,4,,57,0
18288,note_on,,0,0,0,,,1,,81,95
18288,note_on,,0,0,0,,,2,,72,95
18288,note_on,,0,0,0,,,3,,60,95
18288,note_on,,0,0,0,,,4,,57,95
18288,note_on,,0,0,0,,,5,,57,95
18288,note_on,,0,0,0,,,6,,45,95
18297,note_on,,9,0,0,,,6,,45,0
18297,note_on,,0,0,0,,,6,,47,95
18299,note_on,,2,0,0,,,5,,57,0
18299,note_on,,0,0,0,,,5,,60,95
18307,note_on,,8,0,0,,,6,,47,0
18307,note_on,,0,0,0,,,6,,48,95
18311,note_on,,4,0,0,,,5,,60,0
18311,note_on,,0,0,0,,,5,,64,95
18316,note_on,,5,0,0,,,6,,48,0
18316,note_on,,0,0,0,,,6,,50,95
18323,note_on,,7,0,0,,,5,,64,0
18323,note_on,,0,0,0,,,5,,69,95
18326,note_on,,3,0,0,,,6,,50,0
18326,note_on,,0,0,0,,,6,,52,95
18335,note_on,,9,0,0,,,0,,84,0
18335,note_on,,0,0,0,,,0,,69,95
18335,note_on,,0,0,0,,,1,,81,0
18335,note_on,,0,0,0,,,2,,72,0
18335,note_on,,0,0,0,,,3,,60,0
18335,note_on,,0,0,0,,,4,,57,0
18335,note_on,,0,0,0,,,5,,69,0
18335,note_on,,0,0,0,,,6,,52,0
18335,note_on,,0,0,0,,,5,,57,95
18335,note_on,,0,0,0,,,6,,53,95
18335,note_on,,0,0,0,,,7,,41,95
18347,note_on,,12,0,0,,,5,,57,0
18347,note_on,,0,0,0,,,5,,62,95
18359,note_on,,12,0,0,,,0,,69,0
18359,note_on,,0,0,0,,,0,,71,95
18359,note_on,,0,0,0,,,5,,62,0
18359,note_on,,0,0,0,,,5,,65,95
18371,note_on,,12,0,0,,,5,,65,0
18371,note_on,,0,0,0,,,5,,62,95
18383,note_on,,12,0,0,,,0,,71,0
18383,note_on,,0,0,0,,,0,,72,95
18383,note_on,,0,0,0,,,5,,62,0
18383,note_on,,0,0,0,,,5,,69,95
18395,note_on,,12,0,0,,,5,,69,0
18395,note_on,,0,0,0,,,5,,62,95
18407,note_on,,12,0,0,,,0,,72,0
18407,note_on,,0,0,0,,,0,,74,95
18407,note_on,,0,0,0,,,5,,62,0
18407,note_on,,0,0,0,,,5,,65,95
18419,note_on,,12,0,0,,,5,,65,0
18419,note_on,,0,0,0,,,5,,62,95
18431,note_on,,12,0,0,,,6,,53,0
18431,note_on,,0,0,0,,,0,,76,95
18431,note_on,,0,0,0,,,7,,41,0
18431,note_on,,0,0,0,,,0,,74,0
18431,note_on,,0,0,0,,,5,,62,0
18431,note_on,,0,0,0,,,1,,57,95
18431,note_on,,0,0,0,,,2,,48,95
18431,note_on,,0,0,0,,,3,,36,95
18443,note_on,,12,0,0,,,1,,57,0
18443,note_on,,0,0,0,,,1,,64,95
18455,note_on,,12,0,0,,,1,,64,0
18455,note_on,,0,0,0,,,1,,69,95
18467,note_on,,12,0,0,,,1,,69,0
18467,note_on,,0,0,0,,,1,,64,95
18479,note_on,,12,0,0,,,0,,76,0
18479,note_on,,0,0,0,,,0,,74,95
18479,note_on,,0,0,0,,,2,,48,0
18479,note_on,,0,0,0,,,3,,36,0
18479,note_on,,0,0,0,,,1,,64,0
18479,note_on,,0,0,0,,,1,,59,95
18479,note_on,,0,0,0,,,2,,50,95
18479,note_on,,0,0,0,,,3,,38,95
18491,note_on,,12,0,0,,,1,,59,0
18491,note_on,,0,0,0,,,1,,65,95
18503,note_on,,12,0,0,,,1,,65,0
18503,note_on,,0,0,0,,,1,,69,95
18515,note_on,,12,0,0,,,0,,74,0
18515,note_on,,0,0,0,,,0,,72,95
18515,note_on,,0,0,0,,,1,,69,0
18515,note_on,,0,0,0,,,1,,65,95
18527,note_on,,12,0,0,,,2,,50,0
18527,note_on,,0,0,0,,,0,,72,95
18527,note_on,,0,0,0,,,3,,38,0
18527,note_on,,0,0,0,,,0,,72,0
18527,note_on,,0,0,0,,,1,,65,0
18527,note_on,,0,0,0,,,1,,60,95
18527,note_on,,0,0,0,,,2,,52,95
18527,note_on,,0,0,0,,,3,,40,95
18539,note_on,,12,0,0,,,1,,60,0
18539,note_on,,0,0,0,,,1,,64,95
18551,note_on,,12,0,0,,,1,,64,0
18551,note_on,,0,0,0,,,1,,69,95
18563,note_on,,12,0,0,,,1,,69,0
18563,note_on,,0,0,0,,,1,,64,95
18575,note_on,,12,0,0,,,0,,72,0
18575,note_on,,0,0,0,,,0,,71,95
18575,note_on,,0,0,0,,,1,,64,0
18575,note_on,,0,0,0,,,1,,62,95
18587,note_on,,12,0,0,,,1,,62,0
18587,note_on,,0,0,0,,,1,,64,95
18599,note_on,,12,0,0,,,1,,64,0
18599,note_on,,0,0,0,,,1,,68,95
18611,note_on,,12,0,0,,,1,,68,0
18611,note_on,,0,0,0,,,1,,64,95
18623,note_on,,12,0,0,,,2,,52,0
18623,note_on,,0,0,0,,,0,,68,95
18623,note_on,,0,0,0,,,3,,40,0
18623,note_on,,0,0,0,,,0,,71,0
18623,note_on,,0,0,0,,,1,,64,0
18623,note_on,,0,0,0,,,2,,57,95
18623,note_on,,0,0,0,,,3,,41,95
18635,note_on,,12,0,0,,,2,,57,0
18635,note_on,,0,0,0,,,3,,41,0
18635,note_on,,0,0,0,,,2,,60,95
18635,note_on,,0,0,0,,,3,,44,95
18647,note_on,,12,0,0,,,2,,60,0
18647,note_on,,0,0,0,,,3,,44,0
18647,note_on,,0,0,0,,,2,,65,95
18647,note_on,,0,0,0,,,3,,45,95
18659,note_on,,12,0,0,,,2,,65,0
18659,note_on,,0,0,0,,,3,,45,0
18659,note_on,,0,0,0,,,2,,60,95
18659,note_on,,0,0,0,,,3,,47,95
18671,note_on,,12,0,0,,,0,,68,0
18671,note_on,,0,0,0,,,0,,69,95
18671,note_on,,0,0,0,,,2,,60,0
18671,note_on,,0,0,0,,,3,,47,0
18671,note_on,,0,0,0,,,2,,69,95
18671,note_on,,0,0,0,,,3,,48,95
18683,note_on,,12,0,0,,,2,,69,0
18683,note_on,,0,0,0,,,3,,48,0
18683,note_on,,0,0,0,,,2,,60,95
18683,note_on,,0,0,0,,,3,,50,95
18695,note_on,,12,0,0,,,0,,69,0
18695,note_on,,0,0,0,,,2,,60,0
18695,note_on,,0,0,0,,,3,,50,0
18695,note_on,,0,0,0,,,2,,65,95
18695,note_on,,0,0,0,,,3,,52,95
18707,note_on,,12,0,0,,,2,,65,0
18707,note_on,,0,0,0,,,3,,52,0
18707,note_on,,0,0,0,,,2,,60,95
18707,note_on,,0,0,0,,,3,,53,95
18719,note_on,,12,0,0,,,2,,60,0
18719,note_on,,0,0,0,,,0,,81,95
18719,note_on,,0,0,0,,,3,,53,0
18719,note_on,,0,0,0,,,1,,69,95
18719,note_on,,0,0,0,,,2,,57,95
18719,note_on,,0,0,0,,,3,,53,95
18719,note_on,,0,0,0,,,4,,41,95
18731,note_on,,12,0,0,,,2,,57,0
18731,note_on,,0,0,0,,,2,,62,95
18743,note_on,,12,0,0,,,0,,81,0
18743,note_on,,0,0,0,,,0,,83,95
18743,note_on,,0,0,0,,,1,,69,0
18743,note_on,,0,0,0,,,2,,62,0
18743,note_on,,0,0,0,,,1,,71,95
18743,note_on,,0,0,0,,,2,,65,95
18755,note_on,,12,0,0,,,2,,65,0
18755,note_on,,0,0,0,,,2,,62,95
18767,note_on,,12,0,0,,,0,,83,0
18767,note_on,,0,0,0,,,0,,84,95
18767,note_on,,0,0,0,,,1,,71,0
18767,note_on,,0,0,0,,,2,,62,0
18767,note_on,,0,0,0,,,1,,72,95
18767,note_on,,0,0,0,,,2,,69,95
18779,note_on,,12,0,0,,,2,,69,0
18779,note_on,,0,0,0,,,2,,62,95
18791,note_on,,12,0,0,,,0,,84,0
18791,note_on,,0,0,0,,,0,,86,95
18791,note_on,,0,0,0,,,1,,72,0
18791,note_on,,0,0,0,,,2,,62,0
18791,note_on,,0,0,0,,,1,,74,95
18791,note_on,,0,0,0,,,2,,65,95
18803,note_on,,12,0,0,,,2,,65,0
18803,note_on,,0,0,0,,,2,,62,95
18815,note_on,,12,0,0,,,3,,53,0
18815,note_on,,0,0,0,,,0,,88,95
18815,note_on,,0,0,0,,,4,,41,0
18815,note_on,,0,0,0,,,0,,86,0
18815,note_on,,0,0,0,,,1,,74,0
18815,note_on,,0,0,0,,,2,,62,0
18815,note_on,,0,0,0,,,1,,76,95
18815,note_on,,0,0,0,,,2,,57,95
18815,note_on,,0,0,0,,,3,,48,95
18815,note_on,,0,0,0,,,4,,36,95
18827,note_on,,12,0,0,,,2,,57,0
18827,note_on,,0,0,0,,,2,,64,95
18839,note_on,,12,0,0,,,2,,64,0
18839,note_on,,0,0,0,,,2,,69,95
18851,note_on,,12,0,0,,,2,,69,0
18851,note_on,,0,0,0,,,2,,64,95
18863,note_on,,12,0,0,,,0,,88,0
18863,note_on,,0,0,0,,,0,,86,95
18863,note_on,,0,0,0,,,1,,76,0
18863,note_on,,0,0,0,,,3,,48,0
18863,note_on,,0,0,0,,,4,,36,0
18863,note_on,,0,0,0,,,2,,64,0
18863,note_on,,0,0,0,,,1,,74,95
18863,note_on,,0,0,0,,,2,,59,95
18863,note_on,,0,0,0,,,3,,50,95
18863,note_on,,0,0,0,,,4,,38,95
18875,note_on,,12,0,0,,,2,,59,0
18875,note_on,,0,0,0,,,2,,65,95
18887,note_on,,12,0,0,,,2,,65,0
18887,note_on,,0,0,0,,,2,,69,95
18899,note_on,,12,0,0,,,0,,86,0
18899,note_on,,0,0,0,,,0,,84,95
18899,note_on,,0,0,0,,,1,,74,0
18899,note_on,,0,0,0,,,2,,69,0
18899,note_on,,0,0,0,,,1,,72,95
18899,note_on,,0,0,0,,,2,,65,95
18911,note_on,,12,0,0,,,3,,50,0
18911,note_on,,0,0,0,,,0,,84,95
18911,note_on,,0,0,0,,,4,,38,0
18911,note_on,,0,0,0,,,0,,84,0
18911,note_on,,0,0,0,,,1,,72,0
18911,note_on,,0,0,0,,,2,,65,0
18911,note_on,,0,0,0,,,1,,72,95
18911,note_on,,0,0,0,,,2,,60,95
18911,note_on,,0,0,0,,,3,,52,95
18911,note_on,,0,0,0,,,4,,40,95
18923,note_on,,12,0,0,,,2,,60,0
18923,note_on,,0,0,0,,,2,,64,95
18935,note_on,,12,0,0,,,2,,64,0
18935,note_on,,0,0,0,,,2,,69,95
18947,note_on,,12,0,0,,,2,,69,0
18947,note_on,,0,0,0,,,2,,64,95
18959,note_on,,12,0,0,,,0,,84,0
18959,note_on,,0,0,0,,,0,,83,95
18959,note_on,,0,0,0,,,1,,72,0
18959,note_on,,0,0,0,,,2,,64,0
18959,note_on,,0,0,0,,,1,,71,95
18959,note_on,,0,0,0,,,2,,62,95
18971,note_on,,12,0,0,,,2,,62,0
18971,note_on,,0,0,0,,,2,,64,95
18983,note_on,,12,0,0,,,2,,64,0
18983,note_on,,0,0,0,,,2,,68,95
18995,note_on,,12,0,0,,,2,,68,0
18995,note_on,,0,0,0,,,2,,64,95
19007,note_on,,12,0,0,,,3,,52,0
19007,note_on,,0,0,0,,,0,,81,95
19007,note_on,,0,0,0,,,4,,40,0
19007,note_on,,0,0,0,,,0,,83,0
19007,note_on,,0,0,0,,,1,,71,0
19007,note_on,,0,0,0,,,2,,64,0
19007,note_on,,0,0,0,,,1,,69,95
19007,note_on,,0,0,0,,,2,,59,95
19007,note_on,,0,0,0,,,3,,47,95
19019,note_on,,12,0,0,,,0,,81,0
19019,note_on,,0,0,0,,,0,,75,95
19019,note_on,,0,0,0,,,1,,69,0
19031,note_on,,12,0,0,,,2,,59,0
19031,note_on,,0,0,0,,,0,,76,95
19031,note_on,,0,0,0,,,3,,47,0
19031,note_on,,0,0,0,,,0,,75,0
19031,note_on,,0,0,0,,,2,,62,95
19031,note_on,,0,0,0,,,3,,50,95
19043,note_on,,12,0,0,,,0,,76,0
19043,note_on,,0,0,0,,,0,,69,95
19055,note_on,,12,0,0,,,2,,62,0
19055,note_on,,0,0,0,,,0,,69,95
19055,note_on,,0,0,0,,,3,,50,0
19055,note_on,,0,0,0,,,0,,69,0
19055,note_on,,0,0,0,,,1,,57,95
19055,note_on,,0,0,0,,,2,,60,95
19055,note_on,,0,0,0,,,3,,48,95
19067,note_on,,12,0,0,,,0,,69,0
19067,note_on,,0,0,0,,,0,,63,95
19067,note_on,,0,0,0,,,1,,57,0
19079,note_on,,12,0,0,,,0,,63,0
19079,note_on,,0,0,0,,,0,,64,95
19091,note_on,,12,0,0,,,0,,64,0
19091,note_on,,0,0,0,,,0,,57,95
19103,note_on,,12,0,0,,,2,,60,0
19103,note_on,,0,0,0,,,0,,82,95
19103,note_on,,0,0,0,,,3,,48,0
19103,note_on,,0,0,0,,,0,,57,0
19103,note_on,,0,0,0,,,1,,70,95
19103,note_on,,0,0,0,,,2,,61,95
19103,note_on,,0,0,0,,,3,,49,95
19115,note_on,,12,0,0,,,0,,82,0
19115,note_on,,0,0,0,,,0,,76,95
19115,note_on,,0,0,0,,,1,,70,0
19127,note_on,,12,0,0,,,2,,61,0
19127,note_on,,0,0,0,,,0,,77,95
19127,note_on,,0,0,0,,,3,,49,0
19127,note_on,,0,0,0,,,0,,76,0
19127,note_on,,0,0,0,,,2,,64,95
19127,note_on,,0,0,0,,,3,,52,95
19139,note_on,,12,0,0,,,0,,77,0
19139,note_on,,0,0,0,,,0,,70,95
19151,note_on,,12,0,0,,,2,,64,0
19151,note_on,,0,0,0,,,0,,70,95
19151,note_on,,0,0,0,,,3,,52,0
19151,note_on,,0,0,0,,,0,,70,0
19151,note_on,,0,0,0,,,1,,58,95
19151,note_on,,0,0,0,,,2,,62,95
19151,note_on,,0,0,0,,,3,,50,95
19163,note_on,,12,0,0,,,0,,70,0
19163,note_on,,0,0,0,,,0,,64,95
19163,note_on,,0,0,0,,,1,,58,0
19175,note_on,,12,0,0,,,0,,64,0
19175,note_on,,0,0,0,,,0,,65,95
19187,note_on,,12,0,0,,,0,,65,0
19187,note_on,,0,0,0,,,0,,58,95
19199,note_on,,12,0,0,,,2,,62,0
19199,note_on,,0,0,0,,,0,,85,95
19199,note_on,,0,0,0,,,3,,50,0
19199,note_on,,0,0,0,,,0,,58,0
19199,note_on,,0,0,0,,,1,,73,95
19199,note_on,,0,0,0,,,2,,63,95
19199,note_on,,0,0,0,,,3,,51,95
19199,note_on,,0,0,0,,,4,,39,95
19211,note_on,,12,0,0,,,0,,85,0
19211,note_on,,0,0,0,,,0,,78,95
19211,note_on,,0,0,0,,,1,,73,0
19223,note_on,,12,0,0,,,2,,63,0
19223,note_on,,0,0,0,,,0,,79,95
19223,note_on,,0,0,0,,,3,,51,0
19223,note_on,,0,0,0,,,4,,39,0
19223,note_on,,0,0,0,,,0,,78,0
19223,note_on,,0,0,0,,,2,,65,95
19223,note_on,,0,0,0,,,3,,53,95
19223,note_on,,0,0,0,,,4,,41,95
19235,note_on,,12,0,0,,,0,,79,0
19235,note_on,,0,0,0,,,0,,72,95
19247,note_on,,12,0,0,,,2,,65,0
19247,note_on,,0,0,0,,,0,,73,95
19247,note_on,,0,0,0,,,3,,53,0
19247,note_on,,0,0,0,,,4,,41,0
19247,note_on,,0,0,0,,,0,,72,0
19247,note_on,,0,0,0,,,1,,61,95
19247,note_on,,0,0,0,,,2,,64,95
19247,note_on,,0,0,0,,,3,,52,95
19247,note_on,,0,0,0,,,4,,40,95
19259,note_on,,12,0,0,,,0,,73,0
19259,note_on,,0,0,0,,,0,,66,95
19259,note_on,,0,0,0,,,1,,61,0
19271,note_on,,12,0,0,,,0,,66,0
19271,note_on,,0,0,0,,,0,,67,95
19283,note_on,,12,0,0,,,0,,67,0
19283,note_on,,0,0,0,,,0,,60,95
19295,note_on,,12,0,0,,,2,,64,0
19295,note_on,,0,0,0,,,0,,86,95
19295,note_on,,0,0,0,,,3,,52,0
19295,note_on,,0,0,0,,,4,,40,0
19295,note_on,,0,0,0,,,0,,60,0
19295,note_on,,0,0,0,,,1,,74,95
19295,note_on,,0,0,0,,,2,,64,95
19295,note_on,,0,0,0,,,3,,52,95
19295,note_on,,0,0,0,,,4,,40,95
19307,note_on,,12,0,0,,,0,,86,0
19307,note_on,,0,0,0,,,0,,80,95
19307,note_on,,0,0,0,,,1,,74,0
19319,note_on,,12,0,0,,,2,,64,0
19319,note_on,,0,0,0,,,0,,81,95
19319,note_on,,0,0,0,,,3,,52,0
19319,note_on,,0,0,0,,,4,,40,0
19319,note_on,,0,0,0,,,0,,80,0
19319,note_on,,0,0,0,,,2,,67,95
19319,note_on,,0,0,0,,,3,,55,95
19319,note_on,,0,0,0,,,4,,43,95
19331,note_on,,12,0,0,,,0,,81,0
19331,note_on,,0,0,0,,,0,,74,95
19343,note_on,,12,0,0,,,2,,67,0
19343,note_on,,0,0,0,,,0,,74,95
19343,note_on,,0,0,0,,,3,,55,0
19343,note_on,,0,0,0,,,4,,43,0
19343,note_on,,0,0,0,,,0,,74,0
19343,note_on,,0,0,0,,,1,,62,95
19343,note_on,,0,0,0,,,2,,65,95
19343,note_on,,0,0,0,,,3,,53,95
19343,note_on,,0,0,0,,,4,,41,95
19355,note_on,,12,0,0,,,0,,74,0
19355,note_on,,0,0,0,,,0,,68,95
19355,note_on,,0,0,0,,,1,,62,0
19367,note_on,,12,0,0,,,0,,68,0
19367,note_on,,0,0,0,,,0,,69,95
19379,note_on,,12,0,0,,,0,,69,0
19379,note_on,,0,0,0,,,0,,62,95
19391,note_on,,12,0,0,,,2,,65,0
19391,note_on,,0,0,0,,,0,,89,95
19391,note_on,,0,0,0,,,3,,53,0
19391,note_on,,0,0,0,,,4,,41,0
19391,note_on,,0,0,0,,,0,,62,0
19391,note_on,,0,0,0,,,1,,77,95
19391,note_on,,0,0,0,,,2,,65,95
19391,note_on,,0,0,0,,,3,,53,95
19391,note_on,,0,0,0,,,4,,41,95
19403,note_on,,12,0,0,,,0,,89,0
19403,note_on,,0,0,0,,,0,,85,95
19403,note_on,,0,0,0,,,1,,77,0
19415,note_on,,12,0,0,,,2,,65,0
19415,note_on,,0,0,0,,,0,,86,95
19415,note_on,,0,0,0,,,3,,53,0
19415,note_on,,0,0,0,,,4,,41,0
19415,note_on,,0,0,0,,,0,,85,0
19415,note_on,,0,0,0,,,2,,69,95
19415,note_on,,0,0,0,,,3,,57,95
19415,note_on,,0,0,0,,,4,,45,95
19427,note_on,,12,0,0,,,0,,86,0
19427,note_on,,0,0,0,,,0,,77,95
19439,note_on,,12,0,0,,,2,,69,0
19439,note_on,,0,0,0,,,0,,77,95
19439,note_on,,0,0,0,,,3,,57,0
19439,note_on,,0,0,0,,,4,,45,0
19439,note_on,,0,0,0,,,0,,77,0
19439,note_on,,0,0,0,,,1,,65,95
19439,note_on,,0,0,0,,,2,,68,95
19439,note_on,,0,0,0,,,3,,56,95
19439,note_on,,0,0,0,,,4,,44,95
19451,note_on,,12,0,0,,,0,,77,0
19451,note_on,,0,0,0,,,0,,73,95
19451,note_on,,0,0,0,,,1,,65,0
19463,note_on,,12,0,0,,,0,,73,0
19463,note_on,,0,0,0,,,0,,74,95
19475,note_on,,12,0,0,,,0,,74,0
19475,note_on,,0,0,0,,,0,,65,95
19487,note_on,,12,0,0,,,2,,68,0
19487,note_on,,0,0,0,,,0,,89,95
19487,note_on,,0,0,0,,,3,,56,0
19487,note_on,,0,0,0,,,4,,44,0
19487,note_on,,0,0,0,,,0,,65,0
19487,note_on,,0,0,0,,,1,,77,95
19499,note_on,,12,0,0,,,0,,89,0
19499,note_on,,0,0,0,,,0,,85,95
19499,note_on,,0,0,0,,,1,,77,0
19511,note_on,,12,0,0,,,0,,85,0
19511,note_on,,0,0,0,,,0,,86,95
19523,note_on,,12,0,0,,,0,,86,0
19523,note_on,,0,0,0,,,0,,77,95
19535,note_on,,12,0,0,,,0,,77,0
19535,note_on,,0,0,0,,,0,,80,95
19535,note_on,,0,0,0,,,4,,50,95
19543,note_on,,8,0,0,,,3,,56,95
19547,note_on,,4,0,0,,,0,,80,0
19547,note_on,,0,0,0,,,0,,83,95
19551,note_on,,4,0,0,,,2,,59,95
19559,note_on,,8,0,0,,,0,,83,0
19559,note_on,,0,0,0,,,0,,77,95
19559,note_on,,0,0,0,,,1,,65,95
19571,note_on,,12,0,0,,,0,,77,0
19571,note_on,,0,0,0,,,0,,89,95
19583,note_on,,12,0,0,,,4,,50,0
19583,note_on,,0,0,0,,,0,,88,95
19583,note_on,,0,0,0,,,3,,56,0
19583,note_on,,0,0,0,,,2,,59,0
19583,note_on,,0,0,0,,,1,,65,0
19583,note_on,,0,0,0,,,0,,89,0
19583,note_on,,0,0,0,,,1,,76,95
19583,note_on,,0,0,0,,,2,,48,95
19595,note_on,,12,0,0,,,2,,48,0
19595,note_on,,0,0,0,,,2,,64,95
19607,note_on,,12,0,0,,,2,,64,0
19607,note_on,,0,0,0,,,2,,57,95
19619,note_on,,12,0,0,,,2,,57,0
19619,note_on,,0,0,0,,,2,,64,95
19631,note_on,,12,0,0,,,0,,88,0
19631,note_on,,0,0,0,,,0,,86,95
19631,note_on,,0,0,0,,,1,,76,0
19631,note_on,,0,0,0,,,2,,64,0
19631,note_on,,0,0,0,,,1,,74,95
19631,note_on,,0,0,0,,,2,,50,95
19643,note_on,,12,0,0,,,2,,50,0
19643,note_on,,0,0,0,,,2,,65,95
19655,note_on,,12,0,0,,,2,,65,0
19655,note_on,,0,0,0,,,2,,57,95
19667,note_on,,12,0,0,,,0,,86,0
19667,note_on,,0,0,0,,,0,,84,95
19667,note_on,,0,0,0,,,1,,74,0
19667,note_on,,0,0,0,,,2,,57,0
19667,note_on,,0,0,0,,,1,,72,95
19667,note_on,,0,0,0,,,2,,65,95
19679,note_on,,12,0,0,,,0,,84,0
19679,note_on,,0,0,0,,,0,,84,95
19679,note_on,,0,0,0,,,1,,72,0
19679,note_on,,0,0,0,,,2,,65,0
19679,note_on,,0,0,0,,,1,,72,95
19679,note_on,,0,0,0,,,2,,52,95
19691,note_on,,12,0,0,,,2,,52,0
19691,note_on,,0,0,0,,,2,,69,95
19703,note_on,,12,0,0,,,2,,69,0
19703,note_on,,0,0,0,,,2,,60,95
19715,note_on,,12,0,0,,,2,,60,0
19715,note_on,,0,0,0,,,2,,64,95
19727,note_on,,12,0,0,,,0,,84,0
19727,note_on,,0,0,0,,,0,,83,95
19727,note_on,,0,0,0,,,1,,72,0
19727,note_on,,0,0,0,,,2,,64,0
19727,note_on,,0,0,0,,,1,,71,95
19727,note_on,,0,0,0,,,2,,52,95
19739,note_on,,12,0,0,,,2,,52,0
19739,note_on,,0,0,0,,,2,,68,95
19751,note_on,,12,0,0,,,2,,68,0
19751,note_on,,0,0,0,,,2,,62,95
19763,note_on,,12,0,0,,,2,,62,0
19763,note_on,,0,0,0,,,2,,64,95
19775,control_change,,12,0,0,105,5,0,,,
19775,note_on,,0,0,0,,,0,,83,0
19775,note_on,,0,0,0,,,0,,48,95
19775,note_on,,0,0,0,,,1,,71,0
19775,note_on,,0,0,0,,,2,,64,0
19775,note_on,,0,0,0,,,1,,88,95
19775,note_on,,0,0,0,,,2,,76,95
19775,note_on,,0,0,0,,,3,,64,95
19787,note_on,,12,0,0,,,0,,48,0
19787,note_on,,0,0,0,,,0,,64,95
19799,note_on,,12,0,0,,,0,,64,0
19799,note_on,,0,0,0,,,0,,57,95
19811,note_on,,12,0,0,,,0,,57,0
19811,note_on,,0,0,0,,,0,,64,95
19823,note_on,,12,0,0,,,1,,88,0
19823,note_on,,0,0,0,,,0,,50,95
19823,note_on,,0,0,0,,,2,,76,0
19823,note_on,,0,0,0,,,3,,64,0
19823,note_on,,0,0,0,,,0,,64,0
19823,note_on,,0,0,0,,,1,,86,95
19823,note_on,,0,0,0,,,2,,74,95
19823,note_on,,0,0,0,,,3,,62,95
19835,note_on,,12,0,0,,,0,,50,0
19835,note_on,,0,0,0,,,0,,65,95
19847,note_on,,12,0,0,,,0,,65,0
19847,note_on,,0,0,0,,,0,,57,95
19859,note_on,,12,0,0,,,1,,86,0
19859,note_on,,0,0,0,,,0,,65,95
19859,note_on,,0,0,0,,,2,,74,0
19859,note_on,,0,0,0,,,3,,62,0
19859,note_on,,0,0,0,,,0,,57,0
19859,note_on,,0,0,0,,,1,,84,95
19859,note_on,,0,0,0,,,2,,72,95
19859,note_on,,0,0,0,,,3,,60,95
19871,note_on,,12,0,0,,,0,,65,0
19871,note_on,,0,0,0,,,0,,52,95
19871,note_on,,0,0,0,,,1,,84,0
19871,note_on,,0,0,0,,,2,,72,0
19871,note_on,,0,0,0,,,3,,60,0
19871,note_on,,0,0,0,,,1,,84,95
19871,note_on,,0,0,0,,,2,,72,95
19871,note_on,,0,0,0,,,3,,60,95
19883,note_on,,12,0,0,,,0,,52,0
19883,note_on,,0,0,0,,,0,,69,95
19895,note_on,,12,0,0,,,0,,69,0
19895,note_on,,0,0,0,,,0,,60,95
19907,note_on,,12,0,0,,,0,,60,0
19907,note_on,,0,0,0,,,0,,64,95
19919,note_on,,12,0,0,,,1,,84,0
19919,note_on,,0,0,0,,,0,,52,95
19919,note_on,,0,0,0,,,2,,72,0
19919,note_on,,0,0,0,,,3,,60,0
19919,note_on,,0,0,0,,,0,,64,0
19919,note_on,,0,0,0,,,1,,83,95
19919,note_on,,0,0,0,,,2,,71,95
19919,note_on,,0,0,0,,,3,,59,95
19931,note_on,,12,0,0,,,0,,52,0
19931,note_on,,0,0,0,,,0,,68,95
19943,note_on,,12,0,0,,,0,,68,0
19943,note_on,,0,0,0,,,0,,62,95
19955,note_on,,12,0,0,,,0,,62,0
19955,note_on,,0,0,0,,,0,,64,95
19967,control_change,,12,0,0,105,0,0,,,
19967,note_on,,0,0,0,,,1,,83,0
19967,note_on,,0,0,0,,,0,,81,95
19967,note_on,,0,0,0,,,2,,71,0
19967,note_on,,0,0,0,,,3,,59,0
19967,note_on,,0,0,0,,,0,,64,0
19967,note_on,,0,0,0,,,1,,69,95
19967,note_on,,0,0,0,,,2,,59,95
19967,note_on,,0,0,0,,,3,,47,95
19979,note_on,,12,0,0,,,0,,81,0
19979,note_on,,0,0,0,,,0,,75,95
19979,note_on,,0,0,0,,,1,,69,0
19991,note_on,,12,0,0,,,2,,59,0
19991,note_on,,0,0,0,,,0,,76,95
19991,note_on,,0,0,0,,,3,,47,0
19991,note_on,,0,0,0,,,0,,75,0
19991,note_on,,0,0,0,,,2,,62,95
19991,note_on,,0,0,0,,,3,,50,95
20003,note_on,,12,0,0,,,0,,76,0
20003,note_on,,0,0,0,,,0,,69,95
20015,note_on,,12,0,0,,,2,,62,0
20015,note_on,,0,0,0,,,0,,69,95
20015,note_on,,0,0,0,,,3,,50,0
20015,note_on,,0,0,0,,,0,,69,0
20015,note_on,,0,0,0,,,1,,57,95
20015,note_on,,0,0,0,,,2,,60,95
20015,note_on,,0,0,0,,,3,,48,95
20027,note_on,,12,0,0,,,0,,69,0
20027,note_on,,0,0,0,,,0,,63,95
20027,note_on,,0,0,0,,,1,,57,0
20039,note_on,,12,0,0,,,0,,63,0
20039,note_on,,0,0,0,,,0,,64,95
20051,note_on,,12,0,0,,,0,,64,0
20051,note_on,,0,0,0,,,0,,57,95
20063,note_on,,12,0,0,,,2,,60,0
20063,note_on,,0,0,0,,,0,,82,95
20063,note_on,,0,0,0,,,3,,48,0
20063,note_on,,0,0,0,,,0,,57,0
20063,note_on,,0,0,0,,,1,,70,95
20063,note_on,,0,0,0,,,2,,61,95
20063,note_on,,0,0,0,,,3,,49,95
20075,note_on,,12,0,0,,,0,,82,0
20075,note_on,,0,0,0,,,0,,76,95
20075,note_on,,0,0,0,,,1,,70,0
20087,note_on,,12,0,0,,,2,,61,0
20087,note_on,,0,0,0,,,0,,77,95
20087,note_on,,0,0,0,,,3,,49,0
20087,note_on,,0,0,0,,,0,,76,0
20087,note_on,,0,0,0,,,2,,64,95
20087,note_on,,0,0,0,,,3,,52,95
20099,note_on,,12,0,0,,,0,,77,0
20099,note_on,,0,0,0,,,0,,70,95
20111,note_on,,12,0,0,,,2,,64,0
20111,note_on,,0,0,0,,,0,,70,95
20111,note_on,,0,0,0,,,3,,52,0
20111,note_on,,0,0,0,,,0,,70,0
20111,note_on,,0,0,0,,,1,,58,95
20111,note_on,,0,0,0,,,2,,62,95
20111,note_on,,0,0,0,,,3,,50,95
20123,note_on,,12,0,0,,,0,,70,0
20123,note_on,,0,0,0,,,0,,64,95
20123,note_on,,0,0,0,,,1,,58,0
20135,note_on,,12,0,0,,,0,,64,0
20135,note_on,,0,0,0,,,0,,65,95
20147,note_on,,12,0,0,,,0,,65,0
20147,note_on,,0,0,0,,,0,,58,95
20159,note_on,,12,0,0,,,2,,62,0
20159,note_on,,0,0,0,,,0,,85,95
20159,note_on,,0,0,0,,,3,,50,0
20159,note_on,,0,0,0,,,0,,58,0
20159,note_on,,0,0,0,,,1,,73,95
20159,note_on,,0,0,0,,,2,,63,95
20159,note_on,,0,0,0,,,3,,51,95
20159,note_on,,0,0,0,,,4,,39,95
20171,note_on,,12,0,0,,,0,,85,0
20171,note_on,,0,0,0,,,0,,78,95
20171,note_on,,0,0,0,,,1,,73,0
20183,note_on,,12,0,0,,,2,,63,0
20183,note_on,,0,0,0,,,0,,79,95
20183,note_on,,0,0,0,,,3,,51,0
20183,note_on,,0,0,0,,,4,,39,0
20183,note_on,,0,0,0,,,0,,78,0
20183,note_on,,0,0,0,,,2,,65,95
20183,note_on,,0,0,0,,,3,,53,95
20183,note_on,,0,0,0,,,4,,41,95
20195,note_on,,12,0,0,,,0,,79,0
20195,note_on,,0,0,0,,,0,,72,95
20207,note_on,,12,0,0,,,2,,65,0
20207,note_on,,0,0,0,,,0,,73,95
20207,note_on,,0,0,0,,,3,,53,0
20207,note_on,,0,0,0,,,4,,41,0
20207,note_on,,0,0,0,,,0,,72,0
20207,note_on,,0,0,0,,,1,,61,95
20207,note_on,,0,0,0,,,2,,64,95
20207,note_on,,0,0,0,,,3,,52,95
20207,note_on,,0,0,0,,,4,,40,95
20219,note_on,,12,0,0,,,0,,73,0
20219,note_on,,0,0,0,,,0,,66,95
20219,note_on,,0,0,0,,,1,,61,0
20231,note_on,,12,0,0,,,0,,66,0
20231,note_on,,0,0,0,,,0,,67,95
20243,note_on,,12,0,0,,,0,,67,0
20243,note_on,,0,0,0,,,0,,60,95
20255,note_on,,12,0,0,,,2,,64,0
20255,note_on,,0,0,0,,,0,,86,95
20255,note_on,,0,0,0,,,3,,52,0
20255,note_on,,0,0,0,,,4,,40,0
20255,note_on,,0,0,0,,,0,,60,0
20255,note_on,,0,0,0,,,1,,74,95
20255,note_on,,0,0,0,,,2,,64,95
20255,note_on,,0,0,0,,,3,,52,95
20255,note_on,,0,0,0,,,4,,40,95
20267,note_on,,12,0,0,,,0,,86,0
20267,note_on,,0,0,0,,,0,,80,95
20267,note_on,,0,0,0,,,1,,74,0
20279,note_on,,12,0,0,,,2,,64,0
20279,note_on,,0,0,0,,,0,,81,95
20279,note_on,,0,0,0,,,3,,52,0
20279,note_on,,0,0,0,,,4,,40,0
20279,note_on,,0,0,0,,,0,,80,0
20279,note_on,,0,0,0,,,2,,67,95
20279,note_on,,0,0,0,,,3,,55,95
20279,note_on,,0,0,0,,,4,,43,95
20291,note_on,,12,0,0,,,0,,81,0
20291,note_on,,0,0,0,,,0,,74,95
20303,note_on,,12,0,0,,,2,,67,0
20303,note_on,,0,0,0,,,0,,74,95
20303,note_on,,0,0,0,,,3,,55,0
20303,note_on,,0,0,0,,,4,,43,0
20303,note_on,,0,0,0,,,0,,74,0
20303,note_on,,0,0,0,,,1,,62,95
20303,note_on,,0,0,0,,,2,,65,95
20303,note_on,,0,0,0,,,3,,53,95
20303,note_on,,0,0,0,,,4,,41,95
20315,note_on,,12,0,0,,,0,,74,0
20315,note_on,,0,0,0,,,0,,68,95
20315,note_on,,0,0,0,,,1,,62,0
20327,note_on,,12,0,0,,,0,,68,0
20327,note_on,,0,0,0,,,0,,69,95
20339,note_on,,12,0,0,,,0,,69,0
20339,note_on,,0,0,0,,,0,,62,95
20351,note_on,,12,0,0,,,2,,65,0
20351,note_on,,0,0,0,,,0,,88,95
20351,note_on,,0,0,0,,,3,,53,0
20351,note_on,,0,0,0,,,4,,41,0
20351,note_on,,0,0,0,,,0,,62,0
20351,note_on,,0,0,0,,,1,,76,95
20351,note_on,,0,0,0,,,2,,66,95
20351,note_on,,0,0,0,,,3,,54,95
20351,note_on,,0,0,0,,,4,,42,95
20363,note_on,,12,0,0,,,0,,88,0
20363,note_on,,0,0,0,,,0,,82,95
20363,note_on,,0,0,0,,,1,,76,0
20375,note_on,,12,0,0,,,2,,66,0
20375,note_on,,0,0,0,,,0,,83,95
20375,note_on,,0,0,0,,,3,,54,0
20375,note_on,,0,0,0,,,4,,42,0
20375,note_on,,0,0,0,,,0,,82,0
20375,note_on,,0,0,0,,,2,,69,95
20375,note_on,,0,0,0,,,3,,57,95
20375,note_on,,0,0,0,,,4,,45,95
20387,note_on,,12,0,0,,,0,,83,0
20387,note_on,,0,0,0,,,0,,76,95
20399,note_on,,12,0,0,,,2,,69,0
20399,note_on,,0,0,0,,,0,,76,95
20399,note_on,,0,0,0,,,3,,57,0
20399,note_on,,0,0,0,,,4,,45,0
20399,note_on,,0,0,0,,,0,,76,0
20399,note_on,,0,0,0,,,1,,64,95
20399,note_on,,0,0,0,,,2,,68,95
20399,note_on,,0,0,0,,,3,,56,95
20399,note_on,,0,0,0,,,4,,44,95
20411,note_on,,12,0,0,,,0,,76,0
20411,note_on,,0,0,0,,,0,,70,95
20411,note_on,,0,0,0,,,1,,64,0
20423,note_on,,12,0,0,,,0,,70,0
20423,note_on,,0,0,0,,,0,,71,95
20435,note_on,,12,0,0,,,0,,71,0
20435,note_on,,0,0,0,,,0,,64,95
20447,note_on,,12,0,0,,,2,,68,0
20447,note_on,,0,0,0,,,0,,89,95
20447,note_on,,0,0,0,,,3,,56,0
20447,note_on,,0,0,0,,,4,,44,0
20447,note_on,,0,0,0,,,0,,64,0
20447,note_on,,0,0,0,,,1,,77,95
20447,note_on,,0,0,0,,,2,,68,95
20447,note_on,,0,0,0,,,3,,56,95
20447,note_on,,0,0,0,,,4,,44,95
20459,note_on,,12,0,0,,,0,,89,0
20459,note_on,,0,0,0,,,0,,83,95
20459,note_on,,0,0,0,,,1,,77,0
20471,note_on,,12,0,0,,,2,,68,0
20471,note_on,,0,0,0,,,0,,84,95
20471,note_on,,0,0,0,,,3,,56,0
20471,note_on,,0,0,0,,,4,,44,0
20471,note_on,,0,0,0,,,0,,83,0
20471,note_on,,0,0,0,,,2,,71,95
20471,note_on,,0,0,0,,,3,,59,95
20471,note_on,,0,0,0,,,4,,47,95
20483,note_on,,12,0,0,,,0,,84,0
20483,note_on,,0,0,0,,,0,,77,95
20495,note_on,,12,0,0,,,2,,71,0
20495,note_on,,0,0,0,,,0,,77,95
20495,note_on,,0,0,0,,,3,,59,0
20495,note_on,,0,0,0,,,4,,47,0
20495,note_on,,0,0,0,,,0,,77,0
20495,note_on,,0,0,0,,,1,,65,95
20495,note_on,,0,0,0,,,2,,69,95
20495,note_on,,0,0,0,,,3,,57,95
20495,note_on,,0,0,0,,,4,,45,95
20507,note_on,,12,0,0,,,0,,77,0
20507,note_on,,0,0,0,,,0,,71,95
20507,note_on,,0,0,0,,,1,,65,0
20519,note_on,,12,0,0,,,0,,71,0
20519,note_on,,0,0,0,,,0,,72,95
20531,note_on,,12,0,0,,,0,,72,0
20531,note_on,,0,0,0,,,0,,65,95
20543,note_on,,12,0,0,,,2,,69,0
20543,note_on,,0,0,0,,,3,,57,0
20543,note_on,,0,0,0,,,4,,45,0
20543,note_on,,0,0,0,,,0,,65,0
20543,note_on,,0,0,0,,,4,,70,95
20543,note_on,,0,0,0,,,8,,46,95
20547,note_on,,4,0,0,,,3,,74,95
20547,note_on,,0,0,0,,,7,,53,95
20551,note_on,,4,0,0,,,2,,77,95
20551,note_on,,0,0,0,,,6,,56,95
20555,note_on,,4,0,0,,,1,,86,95
20555,note_on,,0,0,0,,,5,,62,95
20559,note_on,,4,0,0,,,0,,92,95
20567,note_on,,8,0,0,,,1,,86,0
20567,note_on,,0,0,0,,,0,,91,95
20567,note_on,,0,0,0,,,0,,92,0
20579,note_on,,12,0,0,,,0,,91,0
20579,note_on,,0,0,0,,,0,,89,95
20591,note_on,,12,0,0,,,4,,70,0
20591,note_on,,0,0,0,,,0,,87,95
20591,note_on,,0,0,0,,,8,,46,0
20591,note_on,,0,0,0,,,3,,74,0
20591,note_on,,0,0,0,,,7,,53,0
20591,note_on,,0,0,0,,,2,,77,0
20591,note_on,,0,0,0,,,6,,56,0
20591,note_on,,0,0,0,,,5,,62,0
20591,note_on,,0,0,0,,,0,,89,0
20603,note_on,,12,0,0,,,0,,87,0
20603,note_on,,0,0,0,,,0,,86,95
20615,note_on,,12,0,0,,,0,,86,0
20615,note_on,,0,0,0,,,0,,84,95
20627,note_on,,12,0,0,,,0,,84,0
20627,note_on,,0,0,0,,,0,,82,95
20639,note_on,,12,0,0,,,0,,82,0
20639,note_on,,0,0,0,,,0,,80,95
20651,note_on,,12,0,0,,,0,,80,0
20651,note_on,,0,0,0,,,0,,79,95
20663,note_on,,12,0,0,,,0,,79,0
20663,note_on,,0,0,0,,,0,,77,95
20675,note_on,,12,0,0,,,0,,77,0
20675,note_on,,0,0,0,,,0,,75,95
20687,note_on,,12,0,0,,,0,,75,0
20687,note_on,,0,0,0,,,0,,74,95
20699,note_on,,12,0,0,,,0,,74,0
20699,note_on,,0,0,0,,,0,,72,95
20711,note_on,,12,0,0,,,0,,72,0
20711,note_on,,0,0,0,,,0,,70,95
20723,note_on,,12,0,0,,,0,,70,0
20723,note_on,,0,0,0,,,0,,69,95
20735,note_on,,12,0,0,,,0,,69,0
20735,note_on,,0,0,0,,,0,,68,95
20747,note_on,,12,0,0,,,0,,68,0
20747,note_on,,0,0,0,,,0,,67,95
20759,note_on,,12,0,0,,,0,,67,0
20759,note_on,,0,0,0,,,0,,65,95
20771,note_on,,12,0,0,,,0,,65,0
20771,note_on,,0,0,0,,,0,,63,95
20783,note_on,,12,0,0,,,0,,63,0
20783,note_on,,0,0,0,,,0,,62,95
20795,note_on,,12,0,0,,,0,,62,0
20795,note_on,,0,0,0,,,0,,60,95
20807,note_on,,12,0,0,,,0,,60,0
20807,note_on,,0,0,0,,,0,,58,95
20819,note_on,,12,0,0,,,0,,58,0
20819,note_on,,0,0,0,,,0,,57,95
20831,note_on,,12,0,0,,,0,,57,0
20831,note_on,,0,0,0,,,0,,56,95
20843,note_on,,12,0,0,,,0,,56,0
20843,note_on,,0,0,0,,,0,,55,95
20855,note_on,,12,0,0,,,0,,55,0
20855,note_on,,0,0,0,,,0,,53,95
20867,note_on,,12,0,0,,,0,,53,0
20867,note_on,,0,0,0,,,0,,51,95
20879,note_on,,12,0,0,,,0,,51,0
20879,note_on,,0,0,0,,,0,,50,95
20891,note_on,,12,0,0,,,0,,50,0
20891,note_on,,0,0,0,,,0,,48,95
20903,note_on,,12,0,0,,,0,,48,0
20903,note_on,,0,0,0,,,0,,46,95
20915,note_on,,12,0,0,,,0,,46,0
20915,note_on,,0,0,0,,,0,,45,95
20927,note_on,,12,0,0,,,0,,45,0
20927,note_on,,0,0,0,,,0,,46,95
20939,note_on,,12,0,0,,,0,,46,0
20939,note_on,,0,0,0,,,0,,50,95
20951,note_on,,12,0,0,,,0,,50,0
20951,note_on,,0,0,0,,,0,,53,95
20963,note_on,,12,0,0,,,0,,53,0
20963,note_on,,0,0,0,,,0,,56,95
20975,note_on,,12,0,0,,,0,,56,0
20975,note_on,,0,0,0,,,0,,58,95
20987,note_on,,12,0,0,,,0,,58,0
20987,note_on,,0,0,0,,,0,,62,95
20999,note_on,,12,0,0,,,0,,62,0
20999,note_on,,0,0,0,,,0,,65,95
21011,note_on,,12,0,0,,,0,,65,0
21011,note_on,,0,0,0,,,0,,68,95
21023,note_on,,12,0,0,,,0,,68,0
21023,note_on,,0,0,0,,,0,,70,95
21035,note_on,,12,0,0,,,0,,70,0
21035,note_on,,0,0,0,,,0,,74,95
21047,note_on,,12,0,0,,,0,,74,0
21047,note_on,,0,0,0,,,0,,77,95
21059,note_on,,12,0,0,,,0,,77,0
21059,note_on,,0,0,0,,,0,,80,95
21071,note_on,,12,0,0,,,0,,80,0
21071,note_on,,0,0,0,,,0,,82,95
21083,note_on,,12,0,0,,,0,,82,0
21083,note_on,,0,0,0,,,0,,86,95
21095,note_on,,12,0,0,,,0,,86,0
21095,note_on,,0,0,0,,,0,,89,95
21107,note_on,,12,0,0,,,0,,89,0
21107,note_on,,0,0,0,,,0,,92,95
21119,note_on,,12,0,0,,,0,,92,0
21119,note_on,,0,0,0,,,0,,93,95
21131,note_on,,12,0,0,,,0,,93,0
21131,note_on,,0,0,0,,,0,,94,95
21143,note_on,,12,0,0,,,0,,94,0
21143,note_on,,0,0,0,,,0,,95,95
21155,note_on,,12,0,0,,,0,,95,0
21155,note_on,,0,0,0,,,0,,98,95
21167,note_on,,12,0,0,,,0,,98,0
21167,note_on,,0,0,0,,,0,,96,95
21179,note_on,,12,0,0,,,0,,96,0
21179,note_on,,0,0,0,,,0,,92,95
21191,note_on,,12,0,0,,,0,,92,0
21191,note_on,,0,0,0,,,0,,91,95
21203,note_on,,12,0,0,,,0,,91,0
21203,note_on,,0,0,0,,,0,,88,95
21215,note_on,,12,0,0,,,0,,88,0
21215,note_on,,0,0,0,,,0,,89,95
21227,note_on,,12,0,0,,,0,,89,0
21227,note_on,,0,0,0,,,0,,90,95
21239,note_on,,12,0,0,,,0,,90,0
21239,note_on,,0,0,0,,,0,,91,95
21251,note_on,,12,0,0,,,0,,91,0
21251,note_on,,0,0,0,,,0,,94,95
21263,note_on,,12,0,0,,,0,,94,0
21263,note_on,,0,0,0,,,0,,92,95
21275,note_on,,12,0,0,,,0,,92,0
21275,note_on,,0,0,0,,,0,,89,95
21287,note_on,,12,0,0,,,0,,89,0
21287,note_on,,0,0,0,,,0,,87,95
21299,note_on,,12,0,0,,,0,,87,0
21299,note_on,,0,0,0,,,0,,84,95
21311,note_on,,12,0,0,,,0,,84,0
21311,note_on,,0,0,0,,,0,,85,95
21323,note_on,,12,0,0,,,0,,85,0
21323,note_on,,0,0,0,,,0,,86,95
21335,note_on,,12,0,0,,,0,,86,0
21335,note_on,,0,0,0,,,0,,87,95
21347,note_on,,12,0,0,,,0,,87,0
21347,note_on,,0,0,0,,,0,,88,95
21359,note_on,,12,0,0,,,0,,88,0
21359,note_on,,0,0,0,,,0,,91,95
21371,note_on,,12,0,0,,,0,,91,0
21371,note_on,,0,0,0,,,0,,89,95
21383,note_on,,12,0,0,,,0,,89,0
21383,note_on,,0,0,0,,,0,,86,95
21395,note_on,,12,0,0,,,0,,86,0
21395,note_on,,0,0,0,,,0,,84,95
21407,note_on,,12,0,0,,,0,,84,0
21407,note_on,,0,0,0,,,0,,81,95
21419,note_on,,12,0,0,,,0,,81,0
21419,note_on,,0,0,0,,,0,,82,95
21431,note_on,,12,0,0,,,0,,82,0
21431,note_on,,0,0,0,,,0,,83,95
21443,note_on,,12,0,0,,,0,,83,0
21443,note_on,,0,0,0,,,0,,86,95
21455,note_on,,12,0,0,,,0,,86,0
21455,note_on,,0,0,0,,,0,,84,95
21467,note_on,,12,0,0,,,0,,84,0
21467,note_on,,0,0,0,,,0,,80,95
21479,note_on,,12,0,0,,,0,,80,0
21479,note_on,,0,0,0,,,0,,79,95
21491,note_on,,12,0,0,,,0,,79,0
21491,note_on,,0,0,0,,,0,,76,95
21503,note_on,,12,0,0,,,0,,76,0
21503,note_on,,0,0,0,,,0,,77,95
21515,note_on,,12,0,0,,,0,,77,0
21515,note_on,,0,0,0,,,0,,78,95
21527,note_on,,12,0,0,,,0,,78,0
21527,note_on,,0,0,0,,,0,,79,95
21539,note_on,,12,0,0,,,0,,79,0
21539,note_on,,0,0,0,,,0,,82,95
21551,note_on,,12,0,0,,,0,,82,0
21551,note_on,,0,0,0,,,0,,80,95
21563,note_on,,12,0,0,,,0,,80,0
21563,note_on,,0,0,0,,,0,,77,95
21575,note_on,,12,0,0,,,0,,77,0
21575,note_on,,0,0,0,,,0,,75,95
21587,note_on,,12,0,0,,,0,,75,0
21587,note_on,,0,0,0,,,0,,72,95
21599,note_on,,12,0,0,,,0,,72,0
21599,note_on,,0,0,0,,,0,,73,95
21611,note_on,,12,0,0,,,0,,73,0
21611,note_on,,0,0,0,,,0,,74,95
21623,note_on,,12,0,0,,,0,,74,0
21623,note_on,,0,0,0,,,0,,75,95
21635,note_on,,12,0,0,,,0,,75,0
21635,note_on,,0,0,0,,,0,,76,95
21647,note_on,,12,0,0,,,0,,76,0
21647,note_on,,0,0,0,,,0,,79,95
21659,note_on,,12,0,0,,,0,,79,0
21659,note_on,,0,0,0,,,0,,77,95
21671,note_on,,12,0,0,,,0,,77,0
21671,note_on,,0,0,0,,,0,,74,95
21683,note_on,,12,0,0,,,0,,74,0
21683,note_on,,0,0,0,,,0,,72,95
21695,note_on,,12,0,0,,,0,,72,0
21695,note_on,,0,0,0,,,0,,69,95
21707,note_on,,12,0,0,,,0,,69,0
21707,note_on,,0,0,0,,,0,,70,95
21719,note_on,,12,0,0,,,0,,70,0
21719,note_on,,0,0,0,,,0,,71,95
21731,note_on,,12,0,0,,,0,,71,0
21731,note_on,,0,0,0,,,0,,74,95
21743,note_on,,12,0,0,,,0,,74,0
21743,note_on,,0,0,0,,,0,,72,95
21755,note_on,,12,0,0,,,0,,72,0
21755,note_on,,0,0,0,,,0,,68,95
21767,note_on,,12,0,0,,,0,,68,0
21767,note_on,,0,0,0,,,0,,67,95
21779,note_on,,12,0,0,,,0,,67,0
21779,note_on,,0,0,0,,,0,,64,95
21791,note_on,,12,0,0,,,0,,64,0
21791,note_on,,0,0,0,,,0,,65,95
21803,note_on,,12,0,0,,,0,,65,0
21803,note_on,,0,0,0,,,0,,66,95
21815,note_on,,12,0,0,,,0,,66,0
21815,note_on,,0,0,0,,,0,,67,95
21827,note_on,,12,0,0,,,0,,67,0
21827,note_on,,0,0,0,,,0,,70,95
21839,note_on,,12,0,0,,,0,,70,0
21839,note_on,,0,0,0,,,0,,68,95
21851,note_on,,12,0,0,,,0,,68,0
21851,note_on,,0,0,0,,,0,,65,95
21863,note_on,,12,0,0,,,0,,65,0
21863,note_on,,0,0,0,,,0,,63,95
21875,note_on,,12,0,0,,,0,,63,0
21875,note_on,,0,0,0,,,0,,60,95
21887,note_on,,12,0,0,,,0,,60,0
21887,note_on,,0,0,0,,,0,,61,95
21911,note_on,,24,0,0,,,0,,61,0
21911,note_on,,0,0,0,,,0,,62,95
21935,note_on,,24,0,0,,,0,,62,0
21935,note_on,,0,0,0,,,0,,63,95
21959,note_on,,24,0,0,,,0,,63,0
21959,note_on,,0,0,0,,,0,,64,95
21983,note_on,,24,0,0,,,0,,64,0
21983,note_on,,0,0,0,,,0,,65,95
22007,note_on,,24,0,0,,,0,,65,0
22007,note_on,,0,0,0,,,0,,66,95
22031,note_on,,24,0,0,,,0,,66,0
22031,note_on,,0,0,0,,,0,,67,95
22055,note_on,,24,0,0,,,0,,67,0
22055,note_on,,0,0,0,,,0,,68,95
22079,note_on,,24,0,0,,,0,,68,0
22079,note_on,,0,0,0,,,0,,69,95
22079,note_on,,0,0,0,,,1,,64,95
22079,note_on,,0,0,0,,,2,,61,95
22103,note_on,,24,0,0,,,0,,69,0
22103,note_on,,0,0,0,,,0,,72,95
22127,note_on,,24,0,0,,,1,,64,0
22127,note_on,,0,0,0,,,0,,70,95
22127,note_on,,0,0,0,,,2,,61,0
22127,note_on,,0,0,0,,,0,,72,0
22127,note_on,,0,0,0,,,1,,65,95
22127,note_on,,0,0,0,,,2,,62,95
22175,note_on,,48,0,0,,,1,,65,0
22175,note_on,,0,0,0,,,2,,62,0
22175,note_on,,0,0,0,,,1,,66,95
22175,note_on,,0,0,0,,,2,,63,95
22199,note_on,,24,0,0,,,0,,70,0
22199,note_on,,0,0,0,,,0,,69,95
22223,note_on,,24,0,0,,,1,,66,0
22223,note_on,,0,0,0,,,0,,72,95
22223,note_on,,0,0,0,,,2,,63,0
22223,note_on,,0,0,0,,,0,,69,0
22223,note_on,,0,0,0,,,1,,67,95
22223,note_on,,0,0,0,,,2,,64,95
22247,note_on,,24,0,0,,,0,,72,0
22247,note_on,,0,0,0,,,0,,70,95
22271,note_on,,24,0,0,,,1,,67,0
22271,note_on,,0,0,0,,,0,,68,95
22271,note_on,,0,0,0,,,2,,64,0
22271,note_on,,0,0,0,,,0,,70,0
22271,note_on,,0,0,0,,,1,,68,95
22271,note_on,,0,0,0,,,2,,65,95
22295,note_on,,24,0,0,,,0,,68,0
22295,note_on,,0,0,0,,,0,,72,95
22319,note_on,,24,0,0,,,1,,68,0
22319,note_on,,0,0,0,,,0,,70,95
22319,note_on,,0,0,0,,,2,,65,0
22319,note_on,,0,0,0,,,0,,72,0
22367,note_on,,48,0,0,,,1,,64,95
22367,note_on,,0,0,0,,,2,,61,95
22391,note_on,,24,0,0,,,0,,70,0
22391,note_on,,0,0,0,,,0,,69,95
22415,note_on,,24,0,0,,,0,,69,0
22415,note_on,,0,0,0,,,0,,72,95
22439,note_on,,24,0,0,,,0,,72,0
22439,note_on,,0,0,0,,,0,,70,95
22463,note_on,,24,0,0,,,1,,64,0
22463,note_on,,0,0,0,,,0,,69,95
22463,note_on,,0,0,0,,,2,,61,0
22463,note_on,,0,0,0,,,0,,70,0
22463,note_on,,0,0,0,,,1,,65,95
22463,note_on,,0,0,0,,,2,,62,95
22487,note_on,,24,0,0,,,0,,69,0
22487,note_on,,0,0,0,,,0,,72,95
22511,note_on,,24,0,0,,,1,,65,0
22511,note_on,,0,0,0,,,0,,70,95
22511,note_on,,0,0,0,,,2,,62,0
22511,note_on,,0,0,0,,,0,,72,0
22535,note_on,,24,0,0,,,0,,70,0
22535,note_on,,0,0,0,,,0,,69,95
22535,note_on,,0,0,0,,,1,,66,95
22559,note_on,,24,0,0,,,0,,69,0
22559,note_on,,0,0,0,,,0,,72,95
22559,note_on,,0,0,0,,,1,,66,0
22631,note_on,,72,0,0,,,0,,72,0
22631,note_on,,0,0,0,,,0,,70,95
22655,note_on,,24,0,0,,,0,,70,0
22655,note_on,,0,0,0,,,0,,69,95
22655,note_on,,0,0,0,,,1,,51,95
22675,note_on,,20,0,0,,,1,,51,0
22675,note_on,,0,0,0,,,1,,58,95
22695,note_on,,20,0,0,,,0,,69,0
22695,note_on,,0,0,0,,,0,,72,95
22695,note_on,,0,0,0,,,1,,58,0
22695,note_on,,0,0,0,,,1,,55,95
22715,note_on,,20,0,0,,,1,,55,0
22715,note_on,,0,0,0,,,1,,58,95
22735,note_on,,20,0,0,,,0,,72,0
22735,note_on,,0,0,0,,,0,,70,95
22735,note_on,,0,0,0,,,1,,58,0
22735,note_on,,0,0,0,,,1,,63,95
22755,note_on,,20,0,0,,,1,,63,0
22755,note_on,,0,0,0,,,1,,58,95
22775,note_on,,20,0,0,,,1,,58,0
22775,note_on,,0,0,0,,,1,,55,95
22795,note_on,,20,0,0,,,1,,55,0
22795,note_on,,0,0,0,,,1,,58,95
22815,note_on,,20,0,0,,,1,,58,0
22815,note_on,,0,0,0,,,1,,51,95
22835,note_on,,20,0,0,,,1,,51,0
22835,note_on,,0,0,0,,,1,,58,95
22855,note_on,,20,0,0,,,0,,70,0
22855,note_on,,0,0,0,,,0,,72,95
22855,note_on,,0,0,0,,,1,,58,0
22855,note_on,,0,0,0,,,1,,55,95
22875,note_on,,20,0,0,,,1,,55,0
22875,note_on,,0,0,0,,,1,,58,95
22895,note_on,,20,0,0,,,0,,72,0
22895,note_on,,0,0,0,,,0,,74,95
22895,note_on,,0,0,0,,,1,,58,0
22895,note_on,,0,0,0,,,1,,63,95
22915,note_on,,20,0,0,,,1,,63,0
22915,note_on,,0,0,0,,,1,,58,95
22935,note_on,,20,0,0,,,0,,74,0
22935,note_on,,0,0,0,,,0,,75,95
22935,note_on,,0,0,0,,,1,,58,0
22935,note_on,,0,0,0,,,1,,55,95
22955,note_on,,20,0,0,,,1,,55,0
22955,note_on,,0,0,0,,,1,,58,95
22975,note_on,,20,0,0,,,0,,75,0
22975,note_on,,0,0,0,,,0,,69,95
22975,note_on,,0,0,0,,,1,,58,0
22975,note_on,,0,0,0,,,1,,51,95
22995,note_on,,20,0,0,,,1,,51,0
22995,note_on,,0,0,0,,,1,,58,95
23015,note_on,,20,0,0,,,0,,69,0
23015,note_on,,0,0,0,,,0,,72,95
23015,note_on,,0,0,0,,,1,,58,0
23015,note_on,,0,0,0,,,1,,55,95
23035,note_on,,20,0,0,,,1,,55,0
23035,note_on,,0,0,0,,,1,,58,95
23055,note_on,,20,0,0,,,0,,72,0
23055,note_on,,0,0,0,,,0,,70,95
23055,note_on,,0,0,0,,,1,,58,0
23055,note_on,,0,0,0,,,1,,63,95
23075,note_on,,20,0,0,,,1,,63,0
23075,note_on,,0,0,0,,,1,,58,95
23095,note_on,,20,0,0,,,1,,58,0
23095,note_on,,0,0,0,,,1,,55,95
23115,note_on,,20,0,0,,,1,,55,0
23115,note_on,,0,0,0,,,1,,58,95
23135,note_on,,20,0,0,,,1,,58,0
23135,note_on,,0,0,0,,,1,,51,95
23155,note_on,,20,0,0,,,1,,51,0
23155,note_on,,0,0,0,,,1,,58,95
23175,note_on,,20,0,0,,,0,,70,0
23175,note_on,,0,0,0,,,0,,72,95
23175,note_on,,0,0,0,,,1,,58,0
23175,note_on,,0,0,0,,,1,,55,95
23195,note_on,,20,0,0,,,1,,55,0
23195,note_on,,0,0,0,,,1,,58,95
23215,note_on,,20,0,0,,,0,,72,0
23215,note_on,,0,0,0,,,0,,74,95
23215,note_on,,0,0,0,,,1,,58,0
23215,note_on,,0,0,0,,,1,,63,95
23235,note_on,,20,0,0,,,1,,63,0
23235,note_on,,0,0,0,,,1,,58,95
23255,note_on,,20,0,0,,,0,,74,0
23255,note_on,,0,0,0,,,0,,75,95
23255,note_on,,0,0,0,,,1,,58,0
23255,note_on,,0,0,0,,,1,,55,95
23275,note_on,,20,0,0,,,1,,55,0
23275,note_on,,0,0,0,,,1,,58,95
23295,note_on,,20,0,0,,,0,,75,0
23295,note_on,,0,0,0,,,0,,76,95
23295,note_on,,0,0,0,,,1,,58,0
23295,note_on,,0,0,0,,,1,,46,95
23315,note_on,,20,0,0,,,1,,46,0
23315,note_on,,0,0,0,,,1,,58,95
23335,note_on,,20,0,0,,,0,,76,0
23335,note_on,,0,0,0,,,0,,79,95
23335,note_on,,0,0,0,,,1,,58,0
23335,note_on,,0,0,0,,,1,,56,95
23355,note_on,,20,0,0,,,1,,56,0
23355,note_on,,0,0,0,,,1,,58,95
23375,note_on,,20,0,0,,,0,,79,0
23375,note_on,,0,0,0,,,0,,77,95
23375,note_on,,0,0,0,,,1,,58,0
23375,note_on,,0,0,0,,,1,,62,95
23395,note_on,,20,0,0,,,1,,62,0
23395,note_on,,0,0,0,,,1,,58,95
23415,note_on,,20,0,0,,,1,,58,0
23415,note_on,,0,0,0,,,1,,56,95
23435,note_on,,20,0,0,,,1,,56,0
23435,note_on,,0,0,0,,,1,,58,95
23455,note_on,,20,0,0,,,1,,58,0
23455,note_on,,0,0,0,,,1,,46,95
23475,note_on,,20,0,0,,,1,,46,0
23475,note_on,,0,0,0,,,1,,58,95
23495,note_on,,20,0,0,,,0,,77,0
23495,note_on,,0,0,0,,,0,,74,95
23495,note_on,,0,0,0,,,1,,58,0
23495,note_on,,0,0,0,,,1,,56,95
23515,note_on,,20,0,0,,,1,,56,0
23515,note_on,,0,0,0,,,1,,58,95
23535,note_on,,20,0,0,,,0,,74,0
23535,note_on,,0,0,0,,,0,,72,95
23535,note_on,,0,0,0,,,1,,58,0
23535,note_on,,0,0,0,,,1,,62,95
23555,note_on,,20,0,0,,,1,,62,0
23555,note_on,,0,0,0,,,1,,58,95
23575,note_on,,20,0,0,,,0,,72,0
23575,note_on,,0,0,0,,,0,,70,95
23575,note_on,,0,0,0,,,1,,58,0
23575,note_on,,0,0,0,,,1,,56,95
23595,note_on,,20,0,0,,,1,,56,0
23595,note_on,,0,0,0,,,1,,58,95
23615,note_on,,20,0,0,,,0,,70,0
23615,note_on,,0,0,0,,,0,,76,95
23615,note_on,,0,0,0,,,1,,58,0
23615,note_on,,0,0,0,,,1,,46,95
23635,note_on,,20,0,0,,,1,,46,0
23635,note_on,,0,0,0,,,1,,58,95
23655,note_on,,20,0,0,,,0,,76,0
23655,note_on,,0,0,0,,,0,,79,95
23655,note_on,,0,0,0,,,1,,58,0
23655,note_on,,0,0,0,,,1,,56,95
23675,note_on,,20,0,0,,,1,,56,0
23675,note_on,,0,0,0,,,1,,58,95
23695,note_on,,20,0,0,,,0,,79,0
23695,note_on,,0,0,0,,,0,,77,95
23695,note_on,,0,0,0,,,1,,58,0
23695,note_on,,0,0,0,,,1,,62,95
23715,note_on,,20,0,0,,,1,,62,0
23715,note_on,,0,0,0,,,1,,58,95
23735,note_on,,20,0,0,,,1,,58,0
23735,note_on,,0,0,0,,,1,,56,95
23755,note_on,,20,0,0,,,1,,56,0
23755,note_on,,0,0,0,,,1,,58,95
23775,note_on,,20,0,0,,,1,,58,0
23775,note_on,,0,0,0,,,1,,46,95
23795,note_on,,20,0,0,,,1,,46,0
23795,note_on,,0,0,0,,,1,,58,95
23815,note_on,,20,0,0,,,0,,77,0
23815,note_on,,0,0,0,,,0,,74,95
23815,note_on,,0,0,0,,,1,,58,0
23815,note_on,,0,0,0,,,1,,56,95
23835,note_on,,20,0,0,,,1,,56,0
23835,note_on,,0,0,0,,,1,,58,95
23855,note_on,,20,0,0,,,0,,74,0
23855,note_on,,0,0,0,,,0,,72,95
23855,note_on,,0,0,0,,,1,,58,0
23855,note_on,,0,0,0,,,1,,62,95
23875,note_on,,20,0,0,,,1,,62,0
23875,note_on,,0,0,0,,,1,,58,95
23895,note_on,,20,0,0,,,0,,72,0
23895,note_on,,0,0,0,,,0,,70,95
23895,note_on,,0,0,0,,,1,,58,0
23895,note_on,,0,0,0,,,1,,56,95
23915,note_on,,20,0,0,,,1,,56,0
23915,note_on,,0,0,0,,,1,,58,95
23935,note_on,,20,0,0,,,0,,70,0
23935,note_on,,0,0,0,,,0,,81,95
23935,note_on,,0,0,0,,,1,,58,0
23935,note_on,,0,0,0,,,1,,69,95
23935,note_on,,0,0,0,,,2,,51,95
23955,note_on,,20,0,0,,,2,,51,0
23955,note_on,,0,0,0,,,2,,58,95
23975,note_on,,20,0,0,,,0,,81,0
23975,note_on,,0,0,0,,,0,,84,95
23975,note_on,,0,0,0,,,1,,69,0
23975,note_on,,0,0,0,,,2,,58,0
23975,note_on,,0,0,0,,,1,,72,95
23975,note_on,,0,0,0,,,2,,55,95
23995,note_on,,20,0,0,,,2,,55,0
23995,note_on,,0,0,0,,,2,,58,95
24015,note_on,,20,0,0,,,0,,84,0
24015,note_on,,0,0,0,,,0,,82,95
24015,note_on,,0,0,0,,,1,,72,0
24015,note_on,,0,0,0,,,2,,58,0
24015,note_on,,0,0,0,,,1,,70,95
24015,note_on,,0,0,0,,,2,,63,95
24035,note_on,,20,0,0,,,2,,63,0
24035,note_on,,0,0,0,,,2,,58,95
24055,note_on,,20,0,0,,,2,,58,0
24055,note_on,,0,0,0,,,2,,55,95
24075,note_on,,20,0,0,,,2,,55,0
24075,note_on,,0,0,0,,,2,,58,95
24095,note_on,,20,0,0,,,2,,58,0
24095,note_on,,0,0,0,,,2,,51,95
24095,note_on,,0,0,0,,,3,,67,95
24095,note_on,,0,0,0,,,4,,63,95
24095,note_on,,0,0,0,,,5,,58,95
24095,note_on,,0,0,0,,,6,,51,95
24095,note_on,,0,0,0,,,7,,39,95
24115,note_on,,20,0,0,,,2,,51,0
24115,note_on,,0,0,0,,,2,,58,95
24135,note_on,,20,0,0,,,0,,82,0
24135,note_on,,0,0,0,,,0,,84,95
24135,note_on,,0,0,0,,,1,,70,0
24135,note_on,,0,0,0,,,2,,58,0
24135,note_on,,0,0,0,,,1,,72,95
24135,note_on,,0,0,0,,,2,,55,95
24155,note_on,,20,0,0,,,2,,55,0
24155,note_on,,0,0,0,,,2,,58,95
24175,note_on,,20,0,0,,,3,,67,0
24175,note_on,,0,0,0,,,0,,86,95
24175,note_on,,0,0,0,,,4,,63,0
24175,note_on,,0,0,0,,,5,,58,0
24175,note_on,,0,0,0,,,6,,51,0
24175,note_on,,0,0,0,,,7,,39,0
24175,note_on,,0,0,0,,,0,,84,0
24175,note_on,,0,0,0,,,1,,72,0
24175,note_on,,0,0,0,,,2,,58,0
24175,note_on,,0,0,0,,,1,,74,95
24175,note_on,,0,0,0,,,2,,63,95
24195,note_on,,20,0,0,,,2,,63,0
24195,note_on,,0,0,0,,,2,,58,95
24215,note_on,,20,0,0,,,0,,86,0
24215,note_on,,0,0,0,,,0,,87,95
24215,note_on,,0,0,0,,,1,,74,0
24215,note_on,,0,0,0,,,2,,58,0
24215,note_on,,0,0,0,,,1,,75,95
24215,note_on,,0,0,0,,,2,,55,95
24235,note_on,,20,0,0,,,2,,55,0
24235,note_on,,0,0,0,,,2,,58,95
24255,note_on,,20,0,0,,,0,,87,0
24255,note_on,,0,0,0,,,0,,81,95
24255,note_on,,0,0,0,,,1,,75,0
24255,note_on,,0,0,0,,,2,,58,0
24255,note_on,,0,0,0,,,1,,69,95
24255,note_on,,0,0,0,,,2,,51,95
24275,note_on,,20,0,0,,,2,,51,0
24275,note_on,,0,0,0,,,2,,58,95
24295,note_on,,20,0,0,,,0,,81,0
24295,note_on,,0,0,0,,,0,,84,95
24295,note_on,,0,0,0,,,1,,69,0
24295,note_on,,0,0,0,,,2,,58,0
24295,note_on,,0,0,0,,,1,,72,95
24295,note_on,,0,0,0,,,2,,55,95
24315,note_on,,20,0,0,,,2,,55,0
24315,note_on,,0,0,0,,,2,,58,95
24335,note_on,,20,0,0,,,0,,84,0
24335,note_on,,0,0,0,,,0,,82,95
24335,note_on,,0,0,0,,,1,,72,0
24335,note_on,,0,0,0,,,2,,58,0
24335,note_on,,0,0,0,,,1,,70,95
24335,note_on,,0,0,0,,,2,,63,95
24355,note_on,,20,0,0,,,2,,63,0
24355,note_on,,0,0,0,,,2,,58,95
24375,note_on,,20,0,0,,,2,,58,0
24375,note_on,,0,0,0,,,2,,55,95
24395,note_on,,20,0,0,,,2,,55,0
24395,note_on,,0,0,0,,,2,,58,95
24415,note_on,,20,0,0,,,2,,58,0
24415,note_on,,0,0,0,,,2,,51,95
24415,note_on,,0,0,0,,,3,,67,95
24415,note_on,,0,0,0,,,4,,63,95
24415,note_on,,0,0,0,,,5,,58,95
24415,note_on,,0,0,0,,,6,,51,95
24415,note_on,,0,0,0,,,7,,39,95
24435,note_on,,20,0,0,,,2,,51,0
24435,note_on,,0,0,0,,,2,,58,95
24455,note_on,,20,0,0,,,0,,82,0
24455,note_on,,0,0,0,,,0,,84,95
24455,note_on,,0,0,0,,,1,,70,0
24455,note_on,,0,0,0,,,2,,58,0
24455,note_on,,0,0,0,,,1,,72,95
24455,note_on,,0,0,0,,,2,,55,95
24475,note_on,,20,0,0,,,2,,55,0
24475,note_on,,0,0,0,,,2,,58,95
24495,note_on,,20,0,0,,,3,,67,0
24495,note_on,,0,0,0,,,0,,86,95
24495,note_on,,0,0,0,,,4,,63,0
24495,note_on,,0,0,0,,,5,,58,0
24495,note_on,,0,0,0,,,6,,51,0
24495,note_on,,0,0,0,,,7,,39,0
24495,note_on,,0,0,0,,,0,,84,0
24495,note_on,,0,0,0,,,1,,72,0
24495,note_on,,0,0,0,,,2,,58,0
24495,note_on,,0,0,0,,,1,,74,95
24495,note_on,,0,0,0,,,2,,63,95
24515,note_on,,20,0,0,,,2,,63,0
24515,note_on,,0,0,0,,,2,,58,95
24535,note_on,,20,0,0,,,0,,86,0
24535,note_on,,0,0,0,,,0,,87,95
24535,note_on,,0,0,0,,,1,,74,0
24535,note_on,,0,0,0,,,2,,58,0
24535,note_on,,0,0,0,,,1,,75,95
24535,note_on,,0,0,0,,,2,,55,95
24555,note_on,,20,0,0,,,2,,55,0
24555,note_on,,0,0,0,,,2,,58,95
24575,note_on,,20,0,0,,,0,,87,0
24575,note_on,,0,0,0,,,0,,88,95
24575,note_on,,0,0,0,,,1,,75,0
24575,note_on,,0,0,0,,,2,,58,0
24575,note_on,,0,0,0,,,1,,76,95
24575,note_on,,0,0,0,,,2,,46,95
24595,note_on,,20,0,0,,,2,,46,0
24595,note_on,,0,0,0,,,2,,58,95
24615,note_on,,20,0,0,,,0,,88,0
24615,note_on,,0,0,0,,,0,,91,95
24615,note_on,,0,0,0,,,1,,76,0
24615,note_on,,0,0,0,,,2,,58,0
24615,note_on,,0,0,0,,,1,,79,95
24615,note_on,,0,0,0,,,2,,56,95
24635,note_on,,20,0,0,,,2,,56,0
24635,note_on,,0,0,0,,,2,,58,95
24655,note_on,,20,0,0,,,0,,91,0
24655,note_on,,0,0,0,,,0,,89,95
24655,note_on,,0,0,0,,,1,,79,0
24655,note_on,,0,0,0,,,2,,58,0
24655,note_on,,0,0,0,,,1,,77,95
24655,note_on,,0,0,0,,,2,,62,95
24675,note_on,,20,0,0,,,2,,62,0
24675,note_on,,0,0,0,,,2,,58,95
24695,note_on,,20,0,0,,,2,,58,0
24695,note_on,,0,0,0,,,2,,56,95
24715,note_on,,20,0,0,,,2,,56,0
24715,note_on,,0,0,0,,,2,,58,95
24735,note_on,,20,0,0,,,2,,58,0
24735,note_on,,0,0,0,,,2,,46,95
24735,note_on,,0,0,0,,,3,,68,95
24735,note_on,,0,0,0,,,4,,62,95
24735,note_on,,0,0,0,,,5,,58,95
24735,note_on,,0,0,0,,,6,,46,95
24735,note_on,,0,0,0,,,7,,34,95
24755,note_on,,20,0,0,,,2,,46,0
24755,note_on,,0,0,0,,,2,,58,95
24775,note_on,,20,0,0,,,0,,89,0
24775,note_on,,0,0,0,,,0,,86,95
24775,note_on,,0,0,0,,,1,,77,0
24775,note_on,,0,0,0,,,2,,58,0
24775,note_on,,0,0,0,,,1,,74,95
24775,note_on,,0,0,0,,,2,,56,95
24795,note_on,,20,0,0,,,2,,56,0
24795,note_on,,0,0,0,,,2,,58,95
24815,note_on,,20,0,0,,,3,,68,0
24815,note_on,,0,0,0,,,0,,84,95
24815,note_on,,0,0,0,,,4,,62,0
24815,note_on,,0,0,0,,,5,,58,0
24815,note_on,,0,0,0,,,6,,46,0
24815,note_on,,0,0,0,,,7,,34,0
24815,note_on,,0,0,0,,,0,,86,0
24815,note_on,,0,0,0,,,1,,74,0
24815,note_on,,0,0,0,,,2,,58,0
24815,note_on,,0,0,0,,,1,,72,95
24815,note_on,,0,0,0,,,2,,62,95
24835,note_on,,20,0,0,,,2,,62,0
24835,note_on,,0,0,0,,,2,,58,95
24855,note_on,,20,0,0,,,0,,84,0
24855,note_on,,0,0,0,,,0,,82,95
24855,note_on,,0,0,0,,,1,,72,0
24855,note_on,,0,0,0,,,2,,58,0
24855,note_on,,0,0,0,,,1,,70,95
24855,note_on,,0,0,0,,,2,,56,95
24875,note_on,,20,0,0,,,2,,56,0
24875,note_on,,0,0,0,,,2,,58,95
24895,note_on,,20,0,0,,,0,,82,0
24895,note_on,,0,0,0,,,0,,88,95
24895,note_on,,0,0,0,,,1,,70,0
24895,note_on,,0,0,0,,,2,,58,0
24895,note_on,,0,0,0,,,1,,76,95
24895,note_on,,0,0,0,,,2,,46,95
24915,note_on,,20,0,0,,,2,,46,0
24915,note_on,,0,0,0,,,2,,58,95
24935,note_on,,20,0,0,,,0,,88,0
24935,note_on,,0,0,0,,,0,,91,95
24935,note_on,,0,0,0,,,1,,76,0
24935,note_on,,0,0,0,,,2,,58,0
24935,note_on,,0,0,0,,,1,,79,95
24935,note_on,,0,0,0,,,2,,56,95
24955,note_on,,20,0,0,,,2,,56,0
24955,note_on,,0,0,0,,,2,,58,95
24975,note_on,,20,0,0,,,0,,91,0
24975,note_on,,0,0,0,,,0,,89,95
24975,note_on,,0,0,0,,,1,,79,0
24975,note_on,,0,0,0,,,2,,58,0
24975,note_on,,0,0,0,,,1,,77,95
24975,note_on,,0,0,0,,,2,,62,95
24995,note_on,,20,0,0,,,2,,62,0
24995,note_on,,0,0,0,,,2,,58,95
25015,note_on,,20,0,0,,,2,,58,0
25015,note_on,,0,0,0,,,2,,56,95
25035,note_on,,20,0,0,,,2,,56,0
25035,note_on,,0,0,0,,,2,,58,95
25055,note_on,,20,0,0,,,2,,58,0
25055,note_on,,0,0,0,,,2,,46,95
25055,note_on,,0,0,0,,,3,,68,95
25055,note_on,,0,0,0,,,4,,62,95
25055,note_on,,0,0,0,,,5,,58,95
25055,note_on,,0,0,0,,,6,,46,95
25055,note_on,,0,0,0,,,7,,34,95
25075,note_on,,20,0,0,,,2,,46,0
25075,note_on,,0,0,0,,,2,,58,95
25095,note_on,,20,0,0,,,0,,89,0
25095,note_on,,0,0,0,,,0,,86,95
25095,note_on,,0,0,0,,,1,,77,0
25095,note_on,,0,0,0,,,2,,58,0
25095,note_on,,0,0,0,,,1,,74,95
25095,note_on,,0,0,0,,,2,,56,95
25115,note_on,,20,0,0,,,2,,56,0
25115,note_on,,0,0,0,,,2,,58,95
25135,note_on,,20,0,0,,,3,,68,0
25135,note_on,,0,0,0,,,0,,84,95
25135,note_on,,0,0,0,,,4,,62,0
25135,note_on,,0,0,0,,,5,,58,0
25135,note_on,,0,0,0,,,6,,46,0
25135,note_on,,0,0,0,,,7,,34,0
25135,note_on,,0,0,0,,,0,,86,0
25135,note_on,,0,0,0,,,1,,74,0
25135,note_on,,0,0,0,,,2,,58,0
25135,note_on,,0,0,0,,,1,,72,95
25135,note_on,,0,0,0,,,2,,62,95
25155,note_on,,20,0,0,,,2,,62,0
25155,note_on,,0,0,0,,,2,,58,95
25175,note_on,,20,0,0,,,0,,84,0
25175,note_on,,0,0,0,,,0,,82,95
25175,note_on,,0,0,0,,,1,,72,0
25175,note_on,,0,0,0,,,2,,58,0
25175,note_on,,0,0,0,,,1,,70,95
25175,note_on,,0,0,0,,,2,,56,95
25195,note_on,,20,0,0,,,2,,56,0
25195,note_on,,0,0,0,,,2,,58,95
25215,note_on,,20,0,0,,,0,,82,0
25215,note_on,,0,0,0,,,0,,82,95
25215,note_on,,0,0,0,,,1,,70,0
25215,note_on,,0,0,0,,,2,,58,0
25215,note_on,,0,0,0,,,1,,70,95
25215,note_on,,0,0,0,,,2,,51,95
25215,note_on,,0,0,0,,,3,,67,95
25215,note_on,,0,0,0,,,4,,63,95
25215,note_on,,0,0,0,,,5,,58,95
25215,note_on,,0,0,0,,,6,,51,95
25215,note_on,,0,0,0,,,7,,39,95
25235,note_on,,20,0,0,,,2,,51,0
25235,note_on,,0,0,0,,,2,,58,95
25255,note_on,,20,0,0,,,0,,82,0
25255,note_on,,0,0,0,,,0,,92,95
25255,note_on,,0,0,0,,,1,,70,0
25255,note_on,,0,0,0,,,2,,58,0
25255,note_on,,0,0,0,,,1,,80,95
25255,note_on,,0,0,0,,,2,,55,95
25275,note_on,,20,0,0,,,2,,55,0
25275,note_on,,0,0,0,,,2,,58,95
25295,note_on,,20,0,0,,,3,,67,0
25295,note_on,,0,0,0,,,0,,91,95
25295,note_on,,0,0,0,,,4,,63,0
25295,note_on,,0,0,0,,,5,,58,0
25295,note_on,,0,0,0,,,6,,51,0
25295,note_on,,0,0,0,,,7,,39,0
25295,note_on,,0,0,0,,,0,,92,0
25295,note_on,,0,0,0,,,1,,80,0
25295,note_on,,0,0,0,,,2,,58,0
25295,note_on,,0,0,0,,,1,,79,95
25295,note_on,,0,0,0,,,2,,63,95
25315,note_on,,20,0,0,,,2,,63,0
25315,note_on,,0,0,0,,,2,,58,95
25335,note_on,,20,0,0,,,2,,58,0
25335,note_on,,0,0,0,,,2,,55,95
25355,note_on,,20,0,0,,,2,,55,0
25355,note_on,,0,0,0,,,2,,58,95
25375,note_on,,20,0,0,,,2,,58,0
25375,note_on,,0,0,0,,,2,,43,95
25375,note_on,,0,0,0,,,3,,71,95
25375,note_on,,0,0,0,,,4,,65,95
25375,note_on,,0,0,0,,,5,,62,95
25375,note_on,,0,0,0,,,6,,43,95
25395,note_on,,20,0,0,,,2,,43,0
25395,note_on,,0,0,0,,,2,,59,95
25415,note_on,,20,0,0,,,0,,91,0
25415,note_on,,0,0,0,,,0,,89,95
25415,note_on,,0,0,0,,,1,,79,0
25415,note_on,,0,0,0,,,2,,59,0
25415,note_on,,0,0,0,,,1,,77,95
25415,note_on,,0,0,0,,,2,,55,95
25435,note_on,,20,0,0,,,2,,55,0
25435,note_on,,0,0,0,,,2,,59,95
25455,note_on,,20,0,0,,,3,,71,0
25455,note_on,,0,0,0,,,0,,86,95
25455,note_on,,0,0,0,,,4,,65,0
25455,note_on,,0,0,0,,,5,,62,0
25455,note_on,,0,0,0,,,6,,43,0
25455,note_on,,0,0,0,,,0,,89,0
25455,note_on,,0,0,0,,,1,,77,0
25455,note_on,,0,0,0,,,2,,59,0
25455,note_on,,0,0,0,,,1,,74,95
25455,note_on,,0,0,0,,,2,,65,95
25475,note_on,,20,0,0,,,2,,65,0
25475,note_on,,0,0,0,,,2,,59,95
25495,note_on,,20,0,0,,,0,,86,0
25495,note_on,,0,0,0,,,0,,83,95
25495,note_on,,0,0,0,,,1,,74,0
25495,note_on,,0,0,0,,,2,,59,0
25495,note_on,,0,0,0,,,1,,71,95
25495,note_on,,0,0,0,,,2,,55,95
25515,note_on,,20,0,0,,,2,,55,0
25515,note_on,,0,0,0,,,2,,59,95
25535,note_on,,20,0,0,,,0,,83,0
25535,note_on,,0,0,0,,,0,,79,95
25535,note_on,,0,0,0,,,1,,71,0
25535,note_on,,0,0,0,,,2,,59,0
25535,note_on,,0,0,0,,,1,,67,95
25535,note_on,,0,0,0,,,2,,48,95
25535,note_on,,0,0,0,,,3,,72,95
25535,note_on,,0,0,0,,,4,,67,95
25535,note_on,,0,0,0,,,5,,63,95
25535,note_on,,0,0,0,,,6,,48,95
25535,note_on,,0,0,0,,,7,,36,95
25555,note_on,,20,0,0,,,2,,48,0
25555,note_on,,0,0,0,,,2,,55,95
25575,note_on,,20,0,0,,,0,,79,0
25575,note_on,,0,0,0,,,0,,89,95
25575,note_on,,0,0,0,,,1,,67,0
25575,note_on,,0,0,0,,,2,,55,0
25575,note_on,,0,0,0,,,1,,77,95
25575,note_on,,0,0,0,,,2,,51,95
25595,note_on,,20,0,0,,,2,,51,0
25595,note_on,,0,0,0,,,2,,55,95
25615,note_on,,20,0,0,,,3,,72,0
25615,note_on,,0,0,0,,,0,,87,95
25615,note_on,,0,0,0,,,4,,67,0
25615,note_on,,0,0,0,,,5,,63,0
25615,note_on,,0,0,0,,,6,,48,0
25615,note_on,,0,0,0,,,7,,36,0
25615,note_on,,0,0,0,,,0,,89,0
25615,note_on,,0,0,0,,,1,,77,0
25615,note_on,,0,0,0,,,2,,55,0
25615,note_on,,0,0,0,,,1,,75,95
25615,note_on,,0,0,0,,,2,,60,95
25635,note_on,,20,0,0,,,2,,60,0
25635,note_on,,0,0,0,,,2,,55,95
25655,note_on,,20,0,0,,,2,,55,0
25655,note_on,,0,0,0,,,2,,51,95
25675,note_on,,20,0,0,,,2,,51,0
25675,note_on,,0,0,0,,,2,,55,95
25695,note_on,,20,0,0,,,2,,55,0
25695,note_on,,0,0,0,,,2,,39,95
25695,note_on,,0,0,0,,,3,,73,95
25695,note_on,,0,0,0,,,4,,67,95
25695,note_on,,0,0,0,,,5,,63,95
25695,note_on,,0,0,0,,,6,,51,95
25695,note_on,,0,0,0,,,7,,39,95
25715,note_on,,20,0,0,,,2,,39,0
25715,note_on,,0,0,0,,,2,,55,95
25735,note_on,,20,0,0,,,0,,87,0
25735,note_on,,0,0,0,,,0,,85,95
25735,note_on,,0,0,0,,,1,,75,0
25735,note_on,,0,0,0,,,2,,55,0
25735,note_on,,0,0,0,,,1,,73,95
25735,note_on,,0,0,0,,,2,,51,95
25755,note_on,,20,0,0,,,2,,51,0
25755,note_on,,0,0,0,,,2,,55,95
25775,note_on,,20,0,0,,,3,,73,0
25775,note_on,,0,0,0,,,0,,82,95
25775,note_on,,0,0,0,,,4,,67,0
25775,note_on,,0,0,0,,,5,,63,0
25775,note_on,,0,0,0,,,6,,51,0
25775,note_on,,0,0,0,,,7,,39,0
25775,note_on,,0,0,0,,,0,,85,0
25775,note_on,,0,0,0,,,1,,73,0
25775,note_on,,0,0,0,,,2,,55,0
25775,note_on,,0,0,0,,,1,,70,95
25775,note_on,,0,0,0,,,2,,61,95
25795,note_on,,20,0,0,,,2,,61,0
25795,note_on,,0,0,0,,,2,,55,95
25815,note_on,,20,0,0,,,0,,82,0
25815,note_on,,0,0,0,,,0,,79,95
25815,note_on,,0,0,0,,,1,,70,0
25815,note_on,,0,0,0,,,2,,55,0
25815,note_on,,0,0,0,,,1,,67,95
25815,note_on,,0,0,0,,,2,,51,95
25835,note_on,,20,0,0,,,2,,51,0
25835,note_on,,0,0,0,,,2,,55,95
25855,note_on,,20,0,0,,,0,,79,0
25855,note_on,,0,0,0,,,0,,75,95
25855,note_on,,0,0,0,,,1,,67,0
25855,note_on,,0,0,0,,,2,,55,0
25855,note_on,,0,0,0,,,1,,63,95
25855,note_on,,0,0,0,,,2,,44,95
25855,note_on,,0,0,0,,,3,,72,95
25855,note_on,,0,0,0,,,4,,68,95
25855,note_on,,0,0,0,,,5,,63,95
25855,note_on,,0,0,0,,,6,,56,95
25855,note_on,,0,0,0,,,7,,44,95
25875,note_on,,20,0,0,,,2,,44,0
25875,note_on,,0,0,0,,,2,,51,95
25895,note_on,,20,0,0,,,0,,75,0
25895,note_on,,0,0,0,,,0,,85,95
25895,note_on,,0,0,0,,,1,,63,0
25895,note_on,,0,0,0,,,2,,51,0
25895,note_on,,0,0,0,,,1,,73,95
25895,note_on,,0,0,0,,,2,,48,95
25915,note_on,,20,0,0,,,2,,48,0
25915,note_on,,0,0,0,,,2,,51,95
25935,note_on,,20,0,0,,,3,,72,0
25935,note_on,,0,0,0,,,0,,84,95
25935,note_on,,0,0,0,,,4,,68,0
25935,note_on,,0,0,0,,,5,,63,0
25935,note_on,,0,0,0,,,6,,56,0
25935,note_on,,0,0,0,,,7,,44,0
25935,note_on,,0,0,0,,,0,,85,0
25935,note_on,,0,0,0,,,1,,73,0
25935,note_on,,0,0,0,,,2,,51,0
25935,note_on,,0,0,0,,,1,,72,95
25935,note_on,,0,0,0,,,2,,56,95
25955,note_on,,20,0,0,,,2,,56,0
25955,note_on,,0,0,0,,,2,,51,95
25975,note_on,,20,0,0,,,2,,51,0
25975,note_on,,0,0,0,,,2,,48,95
25995,note_on,,20,0,0,,,2,,48,0
25995,note_on,,0,0,0,,,2,,51,95
26015,note_on,,20,0,0,,,2,,51,0
26015,note_on,,0,0,0,,,2,,37,95
26015,note_on,,0,0,0,,,3,,70,95
26015,note_on,,0,0,0,,,4,,65,95
26015,note_on,,0,0,0,,,5,,61,95
26015,note_on,,0,0,0,,,6,,49,95
26015,note_on,,0,0,0,,,7,,37,95
26035,note_on,,20,0,0,,,2,,37,0
26035,note_on,,0,0,0,,,2,,53,95
26055,note_on,,20,0,0,,,0,,84,0
26055,note_on,,0,0,0,,,0,,82,95
26055,note_on,,0,0,0,,,1,,72,0
26055,note_on,,0,0,0,,,2,,53,0
26055,note_on,,0,0,0,,,1,,70,95
26055,note_on,,0,0,0,,,2,,49,95
26075,note_on,,20,0,0,,,2,,49,0
26075,note_on,,0,0,0,,,2,,53,95
26095,note_on,,20,0,0,,,3,,70,0
26095,note_on,,0,0,0,,,0,,84,95
26095,note_on,,0,0,0,,,4,,65,0
26095,note_on,,0,0,0,,,5,,61,0
26095,note_on,,0,0,0,,,6,,49,0
26095,note_on,,0,0,0,,,7,,37,0
26095,note_on,,0,0,0,,,0,,82,0
26095,note_on,,0,0,0,,,1,,70,0
26095,note_on,,0,0,0,,,2,,53,0
26095,note_on,,0,0,0,,,1,,72,95
26095,note_on,,0,0,0,,,2,,58,95
26115,note_on,,20,0,0,,,2,,58,0
26115,note_on,,0,0,0,,,2,,53,95
26135,note_on,,20,0,0,,,0,,84,0
26135,note_on,,0,0,0,,,0,,85,95
26135,note_on,,0,0,0,,,1,,72,0
26135,note_on,,0,0,0,,,2,,53,0
26135,note_on,,0,0,0,,,1,,73,95
26135,note_on,,0,0,0,,,2,,49,95
26155,note_on,,20,0,0,,,2,,49,0
26155,note_on,,0,0,0,,,2,,53,95
26175,note_on,,20,0,0,,,0,,85,0
26175,note_on,,0,0,0,,,0,,75,95
26175,note_on,,0,0,0,,,1,,73,0
26175,note_on,,0,0,0,,,2,,53,0
26175,note_on,,0,0,0,,,1,,63,95
26175,note_on,,0,0,0,,,2,,39,95
26175,note_on,,0,0,0,,,3,,68,95
26175,note_on,,0,0,0,,,4,,63,95
26175,note_on,,0,0,0,,,5,,60,95
26175,note_on,,0,0,0,,,6,,51,95
26175,note_on,,0,0,0,,,7,,39,95
26195,note_on,,20,0,0,,,2,,39,0
26195,note_on,,0,0,0,,,2,,51,95
26215,note_on,,20,0,0,,,0,,75,0
26215,note_on,,0,0,0,,,0,,82,95
26215,note_on,,0,0,0,,,1,,63,0
26215,note_on,,0,0,0,,,2,,51,0
26215,note_on,,0,0,0,,,1,,70,95
26215,note_on,,0,0,0,,,2,,48,95
26235,note_on,,20,0,0,,,2,,48,0
26235,note_on,,0,0,0,,,2,,51,95
26255,note_on,,20,0,0,,,3,,68,0
26255,note_on,,0,0,0,,,0,,80,95
26255,note_on,,0,0,0,,,4,,63,0
26255,note_on,,0,0,0,,,5,,60,0
26255,note_on,,0,0,0,,,6,,51,0
26255,note_on,,0,0,0,,,7,,39,0
26255,note_on,,0,0,0,,,0,,82,0
26255,note_on,,0,0,0,,,1,,70,0
26255,note_on,,0,0,0,,,2,,51,0
26255,note_on,,0,0,0,,,1,,68,95
26255,note_on,,0,0,0,,,2,,56,95
26275,note_on,,20,0,0,,,2,,56,0
26275,note_on,,0,0,0,,,2,,51,95
26295,note_on,,20,0,0,,,2,,51,0
26295,note_on,,0,0,0,,,2,,48,95
26315,note_on,,20,0,0,,,2,,48,0
26315,note_on,,0,0,0,,,2,,51,95
26335,note_on,,20,0,0,,,2,,51,0
26335,note_on,,0,0,0,,,2,,39,95
26335,note_on,,0,0,0,,,3,,67,95
26335,note_on,,0,0,0,,,4,,63,95
26335,note_on,,0,0,0,,,5,,61,95
26335,note_on,,0,0,0,,,6,,51,95
26335,note_on,,0,0,0,,,7,,39,95
26355,note_on,,20,0,0,,,2,,39,0
26355,note_on,,0,0,0,,,2,,51,95
26375,note_on,,20,0,0,,,0,,80,0
26375,note_on,,0,0,0,,,0,,79,95
26375,note_on,,0,0,0,,,1,,68,0
26375,note_on,,0,0,0,,,2,,51,0
26375,note_on,,0,0,0,,,1,,67,95
26375,note_on,,0,0,0,,,2,,49,95
26395,note_on,,20,0,0,,,2,,49,0
26395,note_on,,0,0,0,,,2,,51,95
26415,note_on,,20,0,0,,,3,,67,0
26415,note_on,,0,0,0,,,0,,80,95
26415,note_on,,0,0,0,,,4,,63,0
26415,note_on,,0,0,0,,,5,,61,0
26415,note_on,,0,0,0,,,6,,51,0
26415,note_on,,0,0,0,,,7,,39,0
26415,note_on,,0,0,0,,,0,,79,0
26415,note_on,,0,0,0,,,1,,67,0
26415,note_on,,0,0,0,,,2,,51,0
26415,note_on,,0,0,0,,,1,,68,95
26415,note_on,,0,0,0,,,2,,58,95
26435,note_on,,20,0,0,,,2,,58,0
26435,note_on,,0,0,0,,,2,,51,95
26455,note_on,,20,0,0,,,0,,80,0
26455,note_on,,0,0,0,,,0,,82,95
26455,note_on,,0,0,0,,,1,,68,0
26455,note_on,,0,0,0,,,2,,51,0
26455,note_on,,0,0,0,,,1,,70,95
26455,note_on,,0,0,0,,,2,,49,95
26475,note_on,,20,0,0,,,2,,49,0
26475,note_on,,0,0,0,,,2,,51,95
26495,note_on,,20,0,0,,,0,,82,0
26495,note_on,,0,0,0,,,1,,70,0
26495,note_on,,0,0,0,,,2,,51,0
26495,note_on,,0,0,0,,,2,,56,95
26495,note_on,,0,0,0,,,3,,56,95
26495,note_on,,0,0,0,,,4,,74,95
26495,note_on,,0,0,0,,,5,,44,95
26515,note_on,,20,0,0,,,2,,56,0
26515,note_on,,0,0,0,,,2,,63,95
26535,note_on,,20,0,0,,,4,,74,0
26535,note_on,,0,0,0,,,2,,63,0
26535,note_on,,0,0,0,,,2,,60,95
26535,note_on,,0,0,0,,,4,,77,95
26555,note_on,,20,0,0,,,2,,60,0
26555,note_on,,0,0,0,,,2,,63,95
26575,note_on,,20,0,0,,,3,,56,0
26575,note_on,,0,0,0,,,5,,44,0
26575,note_on,,0,0,0,,,4,,77,0
26575,note_on,,0,0,0,,,2,,63,0
26575,note_on,,0,0,0,,,2,,68,95
26575,note_on,,0,0,0,,,4,,75,95
26575,note_on,,0,0,0,,,5,,68,95
26575,note_on,,0,0,0,,,6,,63,95
26575,note_on,,0,0,0,,,7,,60,95
26595,note_on,,20,0,0,,,2,,68,0
26595,note_on,,0,0,0,,,2,,63,95
26615,note_on,,20,0,0,,,2,,63,0
26615,note_on,,0,0,0,,,2,,60,95
26635,note_on,,20,0,0,,,2,,60,0
26635,note_on,,0,0,0,,,2,,63,95
26655,note_on,,20,0,0,,,5,,68,0
26655,note_on,,0,0,0,,,6,,63,0
26655,note_on,,0,0,0,,,7,,60,0
26655,note_on,,0,0,0,,,2,,63,0
26655,note_on,,0,0,0,,,1,,84,95
26655,note_on,,0,0,0,,,2,,56,95
26655,note_on,,0,0,0,,,3,,56,95
26655,note_on,,0,0,0,,,5,,56,95
26675,note_on,,20,0,0,,,2,,56,0
26675,note_on,,0,0,0,,,2,,63,95
26695,note_on,,20,0,0,,,4,,75,0
26695,note_on,,0,0,0,,,0,,99,95
26695,note_on,,0,0,0,,,1,,84,0
26695,note_on,,0,0,0,,,2,,63,0
26695,note_on,,0,0,0,,,2,,60,95
26695,note_on,,0,0,0,,,4,,77,95
26715,note_on,,20,0,0,,,2,,60,0
26715,note_on,,0,0,0,,,2,,63,95
26735,note_on,,20,0,0,,,3,,56,0
26735,note_on,,0,0,0,,,0,,97,95
26735,note_on,,0,0,0,,,5,,56,0
26735,note_on,,0,0,0,,,0,,99,0
26735,note_on,,0,0,0,,,4,,77,0
26735,note_on,,0,0,0,,,2,,63,0
26735,note_on,,0,0,0,,,2,,67,95
26735,note_on,,0,0,0,,,4,,79,95
26735,note_on,,0,0,0,,,5,,51,95
26755,note_on,,20,0,0,,,2,,67,0
26755,note_on,,0,0,0,,,2,,63,95
26775,note_on,,20,0,0,,,0,,97,0
26775,note_on,,0,0,0,,,0,,96,95
26775,note_on,,0,0,0,,,4,,79,0
26775,note_on,,0,0,0,,,2,,63,0
26775,note_on,,0,0,0,,,2,,68,95
26775,note_on,,0,0,0,,,4,,80,95
26795,note_on,,20,0,0,,,2,,68,0
26795,note_on,,0,0,0,,,2,,63,95
26815,note_on,,20,0,0,,,5,,51,0
26815,note_on,,0,0,0,,,0,,96,0
26815,note_on,,0,0,0,,,4,,80,0
26815,note_on,,0,0,0,,,2,,63,0
26815,note_on,,0,0,0,,,2,,56,95
26815,note_on,,0,0,0,,,3,,56,95
26815,note_on,,0,0,0,,,4,,74,95
26815,note_on,,0,0,0,,,5,,44,95
26835,note_on,,20,0,0,,,2,,56,0
26835,note_on,,0,0,0,,,2,,63,95
26855,note_on,,20,0,0,,,4,,74,0
26855,note_on,,0,0,0,,,2,,63,0
26855,note_on,,0,0,0,,,2,,60,95
26855,note_on,,0,0,0,,,4,,77,95
26875,note_on,,20,0,0,,,2,,60,0
26875,note_on,,0,0,0,,,2,,63,95
26895,note_on,,20,0,0,,,3,,56,0
26895,note_on,,0,0,0,,,5,,44,0
26895,note_on,,0,0,0,,,4,,77,0
26895,note_on,,0,0,0,,,2,,63,0
26895,note_on,,0,0,0,,,2,,68,95
26895,note_on,,0,0,0,,,4,,75,95
26895,note_on,,0,0,0,,,5,,68,95
26895,note_on,,0,0,0,,,6,,63,95
26895,note_on,,0,0,0,,,7,,60,95
26915,note_on,,20,0,0,,,2,,68,0
26915,note_on,,0,0,0,,,2,,63,95
26935,note_on,,20,0,0,,,2,,63,0
26935,note_on,,0,0,0,,,2,,60,95
26955,note_on,,20,0,0,,,2,,60,0
26955,note_on,,0,0,0,,,2,,63,95
26975,note_on,,20,0,0,,,5,,68,0
26975,note_on,,0,0,0,,,6,,63,0
26975,note_on,,0,0,0,,,7,,60,0
26975,note_on,,0,0,0,,,2,,63,0
26975,note_on,,0,0,0,,,1,,84,95
26975,note_on,,0,0,0,,,2,,56,95
26975,note_on,,0,0,0,,,3,,56,95
26975,note_on,,0,0,0,,,5,,56,95
26995,note_on,,20,0,0,,,2,,56,0
26995,note_on,,0,0,0,,,2,,63,95
27015,note_on,,20,0,0,,,4,,75,0
27015,note_on,,0,0,0,,,0,,99,95
27015,note_on,,0,0,0,,,1,,84,0
27015,note_on,,0,0,0,,,2,,63,0
27015,note_on,,0,0,0,,,2,,60,95
27015,note_on,,0,0,0,,,4,,77,95
27035,note_on,,20,0,0,,,2,,60,0
27035,note_on,,0,0,0,,,2,,63,95
27055,note_on,,20,0,0,,,3,,56,0
27055,note_on,,0,0,0,,,0,,97,95
27055,note_on,,0,0,0,,,5,,56,0
27055,note_on,,0,0,0,,,0,,99,0
27055,note_on,,0,0,0,,,4,,77,0
27055,note_on,,0,0,0,,,2,,63,0
27055,note_on,,0,0,0,,,2,,67,95
27055,note_on,,0,0,0,,,4,,79,95
27055,note_on,,0,0,0,,,5,,51,95
27075,note_on,,20,0,0,,,2,,67,0
27075,note_on,,0,0,0,,,2,,63,95
27095,note_on,,20,0,0,,,0,,97,0
27095,note_on,,0,0,0,,,0,,96,95
27095,note_on,,0,0,0,,,4,,79,0
27095,note_on,,0,0,0,,,2,,63,0
27095,note_on,,0,0,0,,,2,,68,95
27095,note_on,,0,0,0,,,4,,80,95
27115,note_on,,20,0,0,,,2,,68,0
27115,note_on,,0,0,0,,,2,,63,95
27135,note_on,,20,0,0,,,5,,51,0
27135,note_on,,0,0,0,,,0,,96,0
27135,note_on,,0,0,0,,,4,,80,0
27135,note_on,,0,0,0,,,2,,63,0
27135,note_on,,0,0,0,,,2,,51,95
27135,note_on,,0,0,0,,,3,,81,95
27135,note_on,,0,0,0,,,4,,39,95
27155,note_on,,20,0,0,,,2,,51,0
27155,note_on,,0,0,0,,,2,,63,95
27175,note_on,,20,0,0,,,3,,81,0
27175,note_on,,0,0,0,,,2,,63,0
27175,note_on,,0,0,0,,,2,,61,95
27175,note_on,,0,0,0,,,3,,84,95
27195,note_on,,20,0,0,,,2,,61,0
27195,note_on,,0,0,0,,,2,,63,95
27215,note_on,,20,0,0,,,4,,39,0
27215,note_on,,0,0,0,,,3,,84,0
27215,note_on,,0,0,0,,,2,,63,0
27215,note_on,,0,0,0,,,2,,67,95
27215,note_on,,0,0,0,,,3,,82,95
27215,note_on,,0,0,0,,,4,,67,95
27215,note_on,,0,0,0,,,5,,63,95
27215,note_on,,0,0,0,,,6,,61,95
27235,note_on,,20,0,0,,,2,,67,0
27235,note_on,,0,0,0,,,2,,63,95
27255,note_on,,20,0,0,,,2,,63,0
27255,note_on,,0,0,0,,,2,,61,95
27275,note_on,,20,0,0,,,2,,61,0
27275,note_on,,0,0,0,,,2,,63,95
27295,note_on,,20,0,0,,,4,,67,0
27295,note_on,,0,0,0,,,5,,63,0
27295,note_on,,0,0,0,,,6,,61,0
27295,note_on,,0,0,0,,,2,,63,0
27295,note_on,,0,0,0,,,1,,75,95
27295,note_on,,0,0,0,,,2,,51,95
27295,note_on,,0,0,0,,,4,,55,95
27315,note_on,,20,0,0,,,2,,51,0
27315,note_on,,0,0,0,,,2,,63,95
27335,note_on,,20,0,0,,,3,,82,0
27335,note_on,,0,0,0,,,0,,91,95
27335,note_on,,0,0,0,,,1,,75,0
27335,note_on,,0,0,0,,,2,,63,0
27335,note_on,,0,0,0,,,2,,65,95
27335,note_on,,0,0,0,,,3,,79,95
27355,note_on,,20,0,0,,,2,,65,0
27355,note_on,,0,0,0,,,2,,63,95
27375,note_on,,20,0,0,,,4,,55,0
27375,note_on,,0,0,0,,,0,,92,95
27375,note_on,,0,0,0,,,0,,91,0
27375,note_on,,0,0,0,,,3,,79,0
27375,note_on,,0,0,0,,,2,,63,0
27375,note_on,,0,0,0,,,2,,61,95
27375,note_on,,0,0,0,,,3,,77,95
27375,note_on,,0,0,0,,,4,,51,95
27395,note_on,,20,0,0,,,2,,61,0
27395,note_on,,0,0,0,,,2,,63,95
27415,note_on,,20,0,0,,,0,,92,0
27415,note_on,,0,0,0,,,0,,94,95
27415,note_on,,0,0,0,,,3,,77,0
27415,note_on,,0,0,0,,,2,,63,0
27415,note_on,,0,0,0,,,2,,61,95
27415,note_on,,0,0,0,,,3,,75,95
27435,note_on,,20,0,0,,,2,,61,0
27435,note_on,,0,0,0,,,2,,63,95
27455,note_on,,20,0,0,,,4,,51,0
27455,note_on,,0,0,0,,,0,,94,0
27455,note_on,,0,0,0,,,3,,75,0
27455,note_on,,0,0,0,,,2,,63,0
27455,note_on,,0,0,0,,,2,,51,95
27455,note_on,,0,0,0,,,3,,81,95
27455,note_on,,0,0,0,,,4,,39,95
27475,note_on,,20,0,0,,,2,,51,0
27475,note_on,,0,0,0,,,2,,63,95
27495,note_on,,20,0,0,,,3,,81,0
27495,note_on,,0,0,0,,,2,,63,0
27495,note_on,,0,0,0,,,2,,61,95
27495,note_on,,0,0,0,,,3,,84,95
27515,note_on,,20,0,0,,,2,,61,0
27515,note_on,,0,0,0,,,2,,63,95
27535,note_on,,20,0,0,,,4,,39,0
27535,note_on,,0,0,0,,,3,,84,0
27535,note_on,,0,0,0,,,2,,63,0
27535,note_on,,0,0,0,,,2,,67,95
27535,note_on,,0,0,0,,,3,,82,95
27535,note_on,,0,0,0,,,4,,67,95
27535,note_on,,0,0,0,,,5,,63,95
27535,note_on,,0,0,0,,,6,,61,95
27555,note_on,,20,0,0,,,2,,67,0
27555,note_on,,0,0,0,,,2,,63,95
27575,note_on,,20,0,0,,,2,,63,0
27575,note_on,,0,0,0,,,2,,61,95
27595,note_on,,20,0,0,,,2,,61,0
27595,note_on,,0,0,0,,,2,,63,95
27615,note_on,,20,0,0,,,4,,67,0
27615,note_on,,0,0,0,,,5,,63,0
27615,note_on,,0,0,0,,,6,,61,0
27615,note_on,,0,0,0,,,2,,63,0
27615,note_on,,0,0,0,,,1,,75,95
27615,note_on,,0,0,0,,,2,,51,95
27615,note_on,,0,0,0,,,4,,55,95
27635,note_on,,20,0,0,,,2,,51,0
27635,note_on,,0,0,0,,,2,,63,95
27655,note_on,,20,0,0,,,3,,82,0
27655,note_on,,0,0,0,,,0,,91,95
27655,note_on,,0,0,0,,,1,,75,0
27655,note_on,,0,0,0,,,2,,63,0
27655,note_on,,0,0,0,,,2,,65,95
27655,note_on,,0,0,0,,,3,,79,95
27675,note_on,,20,0,0,,,2,,65,0
27675,note_on,,0,0,0,,,2,,63,95
27695,note_on,,20,0,0,,,4,,55,0
27695,note_on,,0,0,0,,,0,,92,95
27695,note_on,,0,0,0,,,0,,91,0
27695,note_on,,0,0,0,,,3,,79,0
27695,note_on,,0,0,0,,,2,,63,0
27695,note_on,,0,0,0,,,2,,61,95
27695,note_on,,0,0,0,,,3,,77,95
27695,note_on,,0,0,0,,,4,,51,95
27715,note_on,,20,0,0,,,2,,61,0
27715,note_on,,0,0,0,,,2,,63,95
27735,note_on,,20,0,0,,,0,,92,0
27735,note_on,,0,0,0,,,0,,94,95
27735,note_on,,0,0,0,,,3,,77,0
27735,note_on,,0,0,0,,,2,,63,0
27735,note_on,,0,0,0,,,2,,61,95
27735,note_on,,0,0,0,,,3,,75,95
27755,note_on,,20,0,0,,,2,,61,0
27755,note_on,,0,0,0,,,2,,63,95
27775,note_on,,20,0,0,,,4,,51,0
27775,note_on,,0,0,0,,,0,,87,95
27775,note_on,,0,0,0,,,0,,94,0
27775,note_on,,0,0,0,,,3,,75,0
27775,note_on,,0,0,0,,,2,,63,0
27775,note_on,,0,0,0,,,1,,75,95
27775,note_on,,0,0,0,,,2,,56,95
27775,note_on,,0,0,0,,,3,,75,95
27775,note_on,,0,0,0,,,4,,44,95
27795,note_on,,20,0,0,,,2,,56,0
27795,note_on,,0,0,0,,,2,,63,95
27815,note_on,,20,0,0,,,0,,87,0
27815,note_on,,0,0,0,,,0,,97,95
27815,note_on,,0,0,0,,,1,,75,0
27815,note_on,,0,0,0,,,3,,75,0
27815,note_on,,0,0,0,,,2,,63,0
27815,note_on,,0,0,0,,,1,,85,95
27815,note_on,,0,0,0,,,2,,60,95
27815,note_on,,0,0,0,,,3,,85,95
27835,note_on,,20,0,0,,,2,,60,0
27835,note_on,,0,0,0,,,2,,63,95
27855,note_on,,20,0,0,,,4,,44,0
27855,note_on,,0,0,0,,,0,,96,95
27855,note_on,,0,0,0,,,0,,97,0
27855,note_on,,0,0,0,,,1,,85,0
27855,note_on,,0,0,0,,,3,,85,0
27855,note_on,,0,0,0,,,2,,63,0
27855,note_on,,0,0,0,,,1,,84,95
27855,note_on,,0,0,0,,,2,,68,95
27855,note_on,,0,0,0,,,3,,84,95
27855,note_on,,0,0,0,,,4,,68,95
27855,note_on,,0,0,0,,,5,,63,95
27855,note_on,,0,0,0,,,6,,60,95
27875,note_on,,20,0,0,,,2,,68,0
27875,note_on,,0,0,0,,,2,,63,95
27895,note_on,,20,0,0,,,2,,63,0
27895,note_on,,0,0,0,,,2,,60,95
27915,note_on,,20,0,0,,,2,,60,0
27915,note_on,,0,0,0,,,2,,63,95
27935,note_on,,20,0,0,,,4,,68,0
27935,note_on,,0,0,0,,,5,,63,0
27935,note_on,,0,0,0,,,6,,60,0
27935,note_on,,0,0,0,,,2,,63,0
27935,note_on,,0,0,0,,,2,,48,95
27935,note_on,,0,0,0,,,4,,48,95
27955,note_on,,20,0,0,,,2,,48,0
27955,note_on,,0,0,0,,,2,,60,95
27975,note_on,,20,0,0,,,0,,96,0
27975,note_on,,0,0,0,,,0,,94,95
27975,note_on,,0,0,0,,,1,,84,0
27975,note_on,,0,0,0,,,3,,84,0
27975,note_on,,0,0,0,,,2,,60,0
27975,note_on,,0,0,0,,,1,,82,95
27975,note_on,,0,0,0,,,2,,55,95
27975,note_on,,0,0,0,,,3,,82,95
27995,note_on,,20,0,0,,,2,,55,0
27995,note_on,,0,0,0,,,2,,60,95
28015,note_on,,20,0,0,,,4,,48,0
28015,note_on,,0,0,0,,,0,,91,95
28015,note_on,,0,0,0,,,0,,94,0
28015,note_on,,0,0,0,,,1,,82,0
28015,note_on,,0,0,0,,,3,,82,0
28015,note_on,,0,0,0,,,2,,60,0
28015,note_on,,0,0,0,,,1,,79,95
28015,note_on,,0,0,0,,,2,,64,95
28015,note_on,,0,0,0,,,3,,79,95
28015,note_on,,0,0,0,,,4,,67,95
28015,note_on,,0,0,0,,,5,,64,95
28015,note_on,,0,0,0,,,6,,58,95
28035,note_on,,20,0,0,,,2,,64,0
28035,note_on,,0,0,0,,,2,,60,95
28055,note_on,,20,0,0,,,0,,91,0
28055,note_on,,0,0,0,,,0,,88,95
28055,note_on,,0,0,0,,,1,,79,0
28055,note_on,,0,0,0,,,3,,79,0
28055,note_on,,0,0,0,,,2,,60,0
28055,note_on,,0,0,0,,,1,,76,95
28055,note_on,,0,0,0,,,2,,55,95
28055,note_on,,0,0,0,,,3,,76,95
28075,note_on,,20,0,0,,,2,,55,0
28075,note_on,,0,0,0,,,2,,60,95
28095,note_on,,20,0,0,,,4,,67,0
28095,note_on,,0,0,0,,,0,,84,95
28095,note_on,,0,0,0,,,5,,64,0
28095,note_on,,0,0,0,,,6,,58,0
28095,note_on,,0,0,0,,,0,,88,0
28095,note_on,,0,0,0,,,1,,76,0
28095,note_on,,0,0,0,,,3,,76,0
28095,note_on,,0,0,0,,,2,,60,0
28095,note_on,,0,0,0,,,1,,72,95
28095,note_on,,0,0,0,,,2,,53,95
28095,note_on,,0,0,0,,,3,,72,95
28095,note_on,,0,0,0,,,4,,53,95
28115,note_on,,20,0,0,,,2,,53,0
28115,note_on,,0,0,0,,,2,,60,95
28135,note_on,,20,0,0,,,0,,84,0
28135,note_on,,0,0,0,,,0,,94,95
28135,note_on,,0,0,0,,,1,,72,0
28135,note_on,,0,0,0,,,3,,72,0
28135,note_on,,0,0,0,,,2,,60,0
28135,note_on,,0,0,0,,,1,,82,95
28135,note_on,,0,0,0,,,2,,56,95
28135,note_on,,0,0,0,,,3,,82,95
28155,note_on,,20,0,0,,,2,,56,0
28155,note_on,,0,0,0,,,2,,60,95
28175,note_on,,20,0,0,,,4,,53,0
28175,note_on,,0,0,0,,,0,,92,95
28175,note_on,,0,0,0,,,0,,94,0
28175,note_on,,0,0,0,,,1,,82,0
28175,note_on,,0,0,0,,,3,,82,0
28175,note_on,,0,0,0,,,2,,60,0
28175,note_on,,0,0,0,,,1,,80,95
28175,note_on,,0,0,0,,,2,,65,95
28175,note_on,,0,0,0,,,3,,80,95
28175,note_on,,0,0,0,,,4,,65,95
28175,note_on,,0,0,0,,,5,,60,95
28175,note_on,,0,0,0,,,6,,56,95
28195,note_on,,20,0,0,,,2,,65,0
28195,note_on,,0,0,0,,,2,,60,95
28215,note_on,,20,0,0,,,2,,60,0
28215,note_on,,0,0,0,,,2,,56,95
28235,note_on,,20,0,0,,,2,,56,0
28235,note_on,,0,0,0,,,2,,60,95
28255,note_on,,20,0,0,,,4,,65,0
28255,note_on,,0,0,0,,,5,,60,0
28255,note_on,,0,0,0,,,6,,56,0
28255,note_on,,0,0,0,,,2,,60,0
28255,note_on,,0,0,0,,,2,,44,95
28255,note_on,,0,0,0,,,4,,44,95
28275,note_on,,20,0,0,,,2,,44,0
28275,note_on,,0,0,0,,,2,,56,95
28295,note_on,,20,0,0,,,0,,92,0
28295,note_on,,0,0,0,,,0,,90,95
28295,note_on,,0,0,0,,,1,,80,0
28295,note_on,,0,0,0,,,3,,80,0
28295,note_on,,0,0,0,,,2,,56,0
28295,note_on,,0,0,0,,,1,,78,95
28295,note_on,,0,0,0,,,2,,51,95
28295,note_on,,0,0,0,,,3,,78,95
28315,note_on,,20,0,0,,,2,,51,0
28315,note_on,,0,0,0,,,2,,56,95
28335,note_on,,20,0,0,,,4,,44,0
28335,note_on,,0,0,0,,,0,,87,95
28335,note_on,,0,0,0,,,0,,90,0
28335,note_on,,0,0,0,,,1,,78,0
28335,note_on,,0,0,0,,,3,,78,0
28335,note_on,,0,0,0,,,2,,56,0
28335,note_on,,0,0,0,,,1,,75,95
28335,note_on,,0,0,0,,,2,,60,95
28335,note_on,,0,0,0,,,3,,75,95
28335,note_on,,0,0,0,,,4,,63,95
28335,note_on,,0,0,0,,,5,,60,95
28335,note_on,,0,0,0,,,6,,54,95
28355,note_on,,20,0,0,,,2,,60,0
28355,note_on,,0,0,0,,,2,,56,95
28375,note_on,,20,0,0,,,0,,87,0
28375,note_on,,0,0,0,,,0,,84,95
28375,note_on,,0,0,0,,,1,,75,0
28375,note_on,,0,0,0,,,3,,75,0
28375,note_on,,0,0,0,,,2,,56,0
28375,note_on,,0,0,0,,,1,,72,95
28375,note_on,,0,0,0,,,2,,51,95
28375,note_on,,0,0,0,,,3,,72,95
28395,note_on,,20,0,0,,,2,,51,0
28395,note_on,,0,0,0,,,2,,56,95
28415,note_on,,20,0,0,,,4,,63,0
28415,note_on,,0,0,0,,,0,,80,95
28415,note_on,,0,0,0,,,5,,60,0
28415,note_on,,0,0,0,,,6,,54,0
28415,note_on,,0,0,0,,,0,,84,0
28415,note_on,,0,0,0,,,1,,72,0
28415,note_on,,0,0,0,,,3,,72,0
28415,note_on,,0,0,0,,,2,,56,0
28415,note_on,,0,0,0,,,1,,68,95
28415,note_on,,0,0,0,,,2,,49,95
28415,note_on,,0,0,0,,,3,,68,95
28415,note_on,,0,0,0,,,4,,49,95
28435,note_on,,20,0,0,,,2,,49,0
28435,note_on,,0,0,0,,,2,,56,95
28455,note_on,,20,0,0,,,0,,80,0
28455,note_on,,0,0,0,,,0,,90,95
28455,note_on,,0,0,0,,,1,,68,0
28455,note_on,,0,0,0,,,3,,68,0
28455,note_on,,0,0,0,,,2,,56,0
28455,note_on,,0,0,0,,,1,,78,95
28455,note_on,,0,0,0,,,2,,53,95
28455,note_on,,0,0,0,,,3,,78,95
28475,note_on,,20,0,0,,,2,,53,0
28475,note_on,,0,0,0,,,2,,56,95
28495,note_on,,20,0,0,,,4,,49,0
28495,note_on,,0,0,0,,,0,,89,95
28495,note_on,,0,0,0,,,0,,90,0
28495,note_on,,0,0,0,,,1,,78,0
28495,note_on,,0,0,0,,,3,,78,0
28495,note_on,,0,0,0,,,2,,56,0
28495,note_on,,0,0,0,,,1,,77,95
28495,note_on,,0,0,0,,,2,,61,95
28495,note_on,,0,0,0,,,3,,77,95
28495,note_on,,0,0,0,,,4,,65,95
28495,note_on,,0,0,0,,,5,,61,95
28495,note_on,,0,0,0,,,6,,56,95
28515,note_on,,20,0,0,,,2,,61,0
28515,note_on,,0,0,0,,,2,,56,95
28535,note_on,,20,0,0,,,2,,56,0
28535,note_on,,0,0,0,,,2,,53,95
28555,note_on,,20,0,0,,,2,,53,0
28555,note_on,,0,0,0,,,2,,56,95
28575,note_on,,20,0,0,,,4,,65,0
28575,note_on,,0,0,0,,,5,,61,0
28575,note_on,,0,0,0,,,6,,56,0
28575,note_on,,0,0,0,,,2,,56,0
28575,note_on,,0,0,0,,,2,,42,95
28575,note_on,,0,0,0,,,4,,42,95
28595,note_on,,20,0,0,,,2,,42,0
28595,note_on,,0,0,0,,,2,,58,95
28615,note_on,,20,0,0,,,0,,89,0
28615,note_on,,0,0,0,,,0,,87,95
28615,note_on,,0,0,0,,,1,,77,0
28615,note_on,,0,0,0,,,3,,77,0
28615,note_on,,0,0,0,,,2,,58,0
28615,note_on,,0,0,0,,,1,,75,95
28615,note_on,,0,0,0,,,2,,54,95
28615,note_on,,0,0,0,,,3,,75,95
28635,note_on,,20,0,0,,,2,,54,0
28635,note_on,,0,0,0,,,2,,58,95
28655,note_on,,20,0,0,,,4,,42,0
28655,note_on,,0,0,0,,,0,,89,95
28655,note_on,,0,0,0,,,0,,87,0
28655,note_on,,0,0,0,,,1,,75,0
28655,note_on,,0,0,0,,,3,,75,0
28655,note_on,,0,0,0,,,2,,58,0
28655,note_on,,0,0,0,,,1,,77,95
28655,note_on,,0,0,0,,,2,,63,95
28655,note_on,,0,0,0,,,3,,77,95
28655,note_on,,0,0,0,,,4,,63,95
28655,note_on,,0,0,0,,,5,,58,95
28655,note_on,,0,0,0,,,6,,54,95
28675,note_on,,20,0,0,,,2,,63,0
28675,note_on,,0,0,0,,,2,,58,95
28695,note_on,,20,0,0,,,0,,89,0
28695,note_on,,0,0,0,,,0,,90,95
28695,note_on,,0,0,0,,,1,,77,0
28695,note_on,,0,0,0,,,3,,77,0
28695,note_on,,0,0,0,,,2,,58,0
28695,note_on,,0,0,0,,,1,,78,95
28695,note_on,,0,0,0,,,2,,54,95
28695,note_on,,0,0,0,,,3,,78,95
28715,note_on,,20,0,0,,,2,,54,0
28715,note_on,,0,0,0,,,2,,58,95
28735,note_on,,20,0,0,,,4,,63,0
28735,note_on,,0,0,0,,,0,,80,95
28735,note_on,,0,0,0,,,5,,58,0
28735,note_on,,0,0,0,,,6,,54,0
28735,note_on,,0,0,0,,,0,,90,0
28735,note_on,,0,0,0,,,1,,78,0
28735,note_on,,0,0,0,,,3,,78,0
28735,note_on,,0,0,0,,,2,,58,0
28735,note_on,,0,0,0,,,1,,68,95
28735,note_on,,0,0,0,,,2,,44,95
28735,note_on,,0,0,0,,,3,,68,95
28735,note_on,,0,0,0,,,4,,44,95
28755,note_on,,20,0,0,,,2,,44,0
28755,note_on,,0,0,0,,,2,,56,95
28775,note_on,,20,0,0,,,0,,80,0
28775,note_on,,0,0,0,,,0,,87,95
28775,note_on,,0,0,0,,,1,,68,0
28775,note_on,,0,0,0,,,3,,68,0
28775,note_on,,0,0,0,,,2,,56,0
28775,note_on,,0,0,0,,,1,,75,95
28775,note_on,,0,0,0,,,2,,53,95
28775,note_on,,0,0,0,,,3,,75,95
28795,note_on,,20,0,0,,,2,,53,0
28795,note_on,,0,0,0,,,2,,56,95
28815,note_on,,20,0,0,,,4,,44,0
28815,note_on,,0,0,0,,,0,,85,95
28815,note_on,,0,0,0,,,0,,87,0
28815,note_on,,0,0,0,,,1,,75,0
28815,note_on,,0,0,0,,,3,,75,0
28815,note_on,,0,0,0,,,2,,56,0
28815,note_on,,0,0,0,,,1,,73,95
28815,note_on,,0,0,0,,,2,,61,95
28815,note_on,,0,0,0,,,3,,73,95
28815,note_on,,0,0,0,,,4,,61,95
28815,note_on,,0,0,0,,,5,,56,95
28815,note_on,,0,0,0,,,6,,53,95
28835,note_on,,20,0,0,,,2,,61,0
28835,note_on,,0,0,0,,,2,,56,95
28855,note_on,,20,0,0,,,2,,56,0
28855,note_on,,0,0,0,,,2,,53,95
28875,note_on,,20,0,0,,,2,,53,0
28875,note_on,,0,0,0,,,2,,56,95
28895,note_on,,20,0,0,,,4,,61,0
28895,note_on,,0,0,0,,,5,,56,0
28895,note_on,,0,0,0,,,6,,53,0
28895,note_on,,0,0,0,,,2,,56,0
28895,note_on,,0,0,0,,,2,,44,95
28895,note_on,,0,0,0,,,4,,44,95
28915,note_on,,20,0,0,,,2,,44,0
28915,note_on,,0,0,0,,,2,,56,95
28935,note_on,,20,0,0,,,0,,85,0
28935,note_on,,0,0,0,,,0,,84,95
28935,note_on,,0,0,0,,,1,,73,0
28935,note_on,,0,0,0,,,3,,73,0
28935,note_on,,0,0,0,,,2,,56,0
28935,note_on,,0,0,0,,,1,,72,95
28935,note_on,,0,0,0,,,2,,54,95
28935,note_on,,0,0,0,,,3,,72,95
28955,note_on,,20,0,0,,,2,,54,0
28955,note_on,,0,0,0,,,2,,56,95
28975,note_on,,20,0,0,,,4,,44,0
28975,note_on,,0,0,0,,,0,,85,95
28975,note_on,,0,0,0,,,0,,84,0
28975,note_on,,0,0,0,,,1,,72,0
28975,note_on,,0,0,0,,,3,,72,0
28975,note_on,,0,0,0,,,2,,56,0
28975,note_on,,0,0,0,,,1,,73,95
28975,note_on,,0,0,0,,,2,,63,95
28975,note_on,,0,0,0,,,3,,73,95
28975,note_on,,0,0,0,,,4,,60,95
28975,note_on,,0,0,0,,,5,,56,95
28975,note_on,,0,0,0,,,6,,51,95
28995,note_on,,20,0,0,,,2,,63,0
28995,note_on,,0,0,0,,,2,,56,95
29015,note_on,,20,0,0,,,0,,85,0
29015,note_on,,0,0,0,,,0,,87,95
29015,note_on,,0,0,0,,,1,,73,0
29015,note_on,,0,0,0,,,3,,73,0
29015,note_on,,0,0,0,,,2,,56,0
29015,note_on,,0,0,0,,,1,,75,95
29015,note_on,,0,0,0,,,2,,54,95
29015,note_on,,0,0,0,,,3,,75,95
29035,note_on,,20,0,0,,,2,,54,0
29035,note_on,,0,0,0,,,2,,56,95
29055,note_on,,20,0,0,,,4,,60,0
29055,note_on,,0,0,0,,,0,,89,95
29055,note_on,,0,0,0,,,5,,56,0
29055,note_on,,0,0,0,,,6,,51,0
29055,note_on,,0,0,0,,,0,,87,0
29055,note_on,,0,0,0,,,1,,75,0
29055,note_on,,0,0,0,,,3,,75,0
29055,note_on,,0,0,0,,,2,,56,0
29055,note_on,,0,0,0,,,1,,85,95
29055,note_on,,0,0,0,,,2,,80,95
29055,note_on,,0,0,0,,,3,,77,95
29055,note_on,,0,0,0,,,4,,61,95
29055,note_on,,0,0,0,,,5,,56,95
29055,note_on,,0,0,0,,,6,,53,95
29055,note_on,,0,0,0,,,7,,49,95
29055,note_on,,0,0,0,,,8,,65,95
29135,note_on,,80,0,0,,,0,,89,0
29135,note_on,,0,0,0,,,0,,77,95
29135,note_on,,0,0,0,,,1,,85,0
29135,note_on,,0,0,0,,,2,,80,0
29135,note_on,,0,0,0,,,3,,77,0
29135,note_on,,0,0,0,,,4,,61,0
29135,note_on,,0,0,0,,,5,,56,0
29135,note_on,,0,0,0,,,6,,53,0
29135,note_on,,0,0,0,,,7,,49,0
29135,note_on,,0,0,0,,,8,,65,0
29135,note_on,,0,0,0,,,1,,73,95
29135,note_on,,0,0,0,,,2,,68,95
29135,note_on,,0,0,0,,,3,,65,95
29135,note_on,,0,0,0,,,4,,61,95
29135,note_on,,0,0,0,,,5,,56,95
29135,note_on,,0,0,0,,,6,,53,95
29135,note_on,,0,0,0,,,7,,49,95
29175,note_on,,40,0,0,,,0,,77,0
29175,note_on,,0,0,0,,,0,,77,95
29175,note_on,,0,0,0,,,1,,73,0
29175,note_on,,0,0,0,,,2,,68,0
29175,note_on,,0,0,0,,,3,,65,0
29175,note_on,,0,0,0,,,4,,61,0
29175,note_on,,0,0,0,,,5,,56,0
29175,note_on,,0,0,0,,,6,,53,0
29175,note_on,,0,0,0,,,7,,49,0
29175,note_on,,0,0,0,,,1,,73,95
29175,note_on,,0,0,0,,,2,,68,95
29175,note_on,,0,0,0,,,3,,65,95
29175,note_on,,0,0,0,,,4,,61,95
29175,note_on,,0,0,0,,,5,,56,95
29175,note_on,,0,0,0,,,6,,53,95
29175,note_on,,0,0,0,,,7,,49,95
29215,note_on,,40,0,0,,,0,,77,0
29215,note_on,,0,0,0,,,0,,77,95
29215,note_on,,0,0,0,,,1,,73,0
29215,note_on,,0,0,0,,,2,,68,0
29215,note_on,,0,0,0,,,3,,65,0
29215,note_on,,0,0,0,,,4,,61,0
29215,note_on,,0,0,0,,,5,,56,0
29215,note_on,,0,0,0,,,6,,53,0
29215,note_on,,0,0,0,,,7,,49,0
29215,note_on,,0,0,0,,,1,,73,95
29215,note_on,,0,0,0,,,2,,68,95
29215,note_on,,0,0,0,,,3,,65,95
29215,note_on,,0,0,0,,,4,,61,95
29215,note_on,,0,0,0,,,5,,56,95
29215,note_on,,0,0,0,,,6,,53,95
29215,note_on,,0,0,0,,,7,,49,95
29295,note_on,,80,0,0,,,1,,73,0
29295,note_on,,0,0,0,,,2,,68,0
29295,note_on,,0,0,0,,,3,,65,0
29295,note_on,,0,0,0,,,4,,61,0
29295,note_on,,0,0,0,,,5,,56,0
29295,note_on,,0,0,0,,,6,,53,0
29295,note_on,,0,0,0,,,7,,49,0
29295,note_on,,0,0,0,,,1,,73,95
29295,note_on,,0,0,0,,,2,,68,95
29295,note_on,,0,0,0,,,3,,65,95
29295,note_on,,0,0,0,,,4,,61,95
29295,note_on,,0,0,0,,,5,,56,95
29295,note_on,,0,0,0,,,6,,53,95
29295,note_on,,0,0,0,,,7,,49,95
29335,note_on,,40,0,0,,,0,,77,0
29335,note_on,,0,0,0,,,0,,77,95
29335,note_on,,0,0,0,,,1,,73,0
29335,note_on,,0,0,0,,,2,,68,0
29335,note_on,,0,0,0,,,3,,65,0
29335,note_on,,0,0,0,,,4,,61,0
29335,note_on,,0,0,0,,,5,,56,0
29335,note_on,,0,0,0,,,6,,53,0
29335,note_on,,0,0,0,,,7,,49,0
29335,note_on,,0,0,0,,,1,,73,95
29335,note_on,,0,0,0,,,2,,68,95
29335,note_on,,0,0,0,,,3,,65,95
29335,note_on,,0,0,0,,,4,,61,95
29335,note_on,,0,0,0,,,5,,56,95
29335,note_on,,0,0,0,,,6,,53,95
29335,note_on,,0,0,0,,,7,,49,95
29375,note_on,,40,0,0,,,0,,77,0
29375,note_on,,0,0,0,,,0,,77,95
29375,note_on,,0,0,0,,,2,,68,0
29375,note_on,,0,0,0,,,3,,65,0
29375,note_on,,0,0,0,,,4,,61,0
29375,note_on,,0,0,0,,,5,,56,0
29375,note_on,,0,0,0,,,6,,53,0
29375,note_on,,0,0,0,,,7,,49,0
29375,note_on,,0,0,0,,,2,,68,95
29375,note_on,,0,0,0,,,3,,65,95
29375,note_on,,0,0,0,,,4,,61,95
29375,note_on,,0,0,0,,,5,,56,95
29375,note_on,,0,0,0,,,6,,53,95
29375,note_on,,0,0,0,,,7,,49,95
29415,note_on,,40,0,0,,,1,,73,0
29415,note_on,,0,0,0,,,0,,53,95
29415,note_on,,0,0,0,,,0,,77,0
29415,note_on,,0,0,0,,,2,,68,0
29415,note_on,,0,0,0,,,3,,65,0
29415,note_on,,0,0,0,,,4,,61,0
29415,note_on,,0,0,0,,,5,,56,0
29415,note_on,,0,0,0,,,6,,53,0
29415,note_on,,0,0,0,,,7,,49,0
29415,note_on,,0,0,0,,,2,,37,95
29415,note_on,,0,0,0,,,3,,61,95
29415,note_on,,0,0,0,,,4,,49,95
29415,note_on,,0,0,0,,,5,,37,95
29435,note_on,,20,0,0,,,0,,53,0
29435,note_on,,0,0,0,,,0,,56,95
29435,note_on,,0,0,0,,,2,,37,0
29435,note_on,,0,0,0,,,2,,44,95
29455,note_on,,20,0,0,,,3,,61,0
29455,note_on,,0,0,0,,,0,,65,95
29455,note_on,,0,0,0,,,4,,49,0
29455,note_on,,0,0,0,,,5,,37,0
29455,note_on,,0,0,0,,,0,,56,0
29455,note_on,,0,0,0,,,2,,44,0
29455,note_on,,0,0,0,,,1,,61,95
29455,note_on,,0,0,0,,,2,,49,95
29455,note_on,,0,0,0,,,3,,65,95
29455,note_on,,0,0,0,,,4,,53,95
29455,note_on,,0,0,0,,,5,,41,95
29475,note_on,,20,0,0,,,1,,61,0
29475,note_on,,0,0,0,,,2,,49,0
29475,note_on,,0,0,0,,,2,,49,95
29495,note_on,,20,0,0,,,0,,65,0
29495,note_on,,0,0,0,,,0,,68,95
29495,note_on,,0,0,0,,,3,,65,0
29495,note_on,,0,0,0,,,4,,53,0
29495,note_on,,0,0,0,,,5,,41,0
29495,note_on,,0,0,0,,,2,,49,0
29495,note_on,,0,0,0,,,2,,56,95
29495,note_on,,0,0,0,,,3,,68,95
29495,note_on,,0,0,0,,,4,,56,95
29495,note_on,,0,0,0,,,5,,44,95
29515,note_on,,20,0,0,,,0,,68,0
29515,note_on,,0,0,0,,,0,,77,95
29515,note_on,,0,0,0,,,2,,56,0
29515,note_on,,0,0,0,,,1,,73,95
29515,note_on,,0,0,0,,,2,,61,95
29535,note_on,,20,0,0,,,3,,68,0
29535,note_on,,0,0,0,,,4,,56,0
29535,note_on,,0,0,0,,,5,,44,0
29535,note_on,,0,0,0,,,1,,73,0
29535,note_on,,0,0,0,,,2,,61,0
29535,note_on,,0,0,0,,,2,,61,95
29535,note_on,,0,0,0,,,3,,72,95
29535,note_on,,0,0,0,,,4,,60,95
29535,note_on,,0,0,0,,,5,,48,95
29551,note_on,,16,0,0,,,0,,77,0
29551,note_on,,0,0,0,,,0,,80,95
29551,note_on,,0,0,0,,,2,,61,0
29551,note_on,,0,0,0,,,2,,68,95
29567,note_on,,16,0,0,,,0,,80,0
29567,note_on,,0,0,0,,,0,,89,95
29567,note_on,,0,0,0,,,2,,68,0
29567,note_on,,0,0,0,,,1,,85,95
29567,note_on,,0,0,0,,,2,,73,95
29583,note_on,,16,0,0,,,0,,89,0
29583,note_on,,0,0,0,,,0,,89,95
29583,note_on,,0,0,0,,,1,,85,0
29583,note_on,,0,0,0,,,2,,73,0
29583,note_on,,0,0,0,,,2,,73,95
29599,note_on,,16,0,0,,,0,,89,0
29599,note_on,,0,0,0,,,0,,92,95
29599,note_on,,0,0,0,,,2,,73,0
29599,note_on,,0,0,0,,,2,,80,95
29615,note_on,,16,0,0,,,3,,72,0
29615,note_on,,0,0,0,,,0,,101,95
29615,note_on,,0,0,0,,,4,,60,0
29615,note_on,,0,0,0,,,5,,48,0
29615,note_on,,0,0,0,,,0,,92,0
29615,note_on,,0,0,0,,,2,,80,0
29615,note_on,,0,0,0,,,1,,97,95
29615,note_on,,0,0,0,,,2,,85,95
29615,note_on,,0,0,0,,,3,,73,95
29615,note_on,,0,0,0,,,4,,61,95
29615,note_on,,0,0,0,,,5,,49,95
29655,note_on,,40,0,0,,,0,,101,0
29655,note_on,,0,0,0,,,1,,97,0
29655,note_on,,0,0,0,,,2,,85,0
29655,note_on,,0,0,0,,,3,,73,0
29655,note_on,,0,0,0,,,4,,61,0
29655,note_on,,0,0,0,,,5,,49,0
29655,note_on,,0,0,0,,,3,,73,95
29655,note_on,,0,0,0,,,4,,61,95
29655,note_on,,0,0,0,,,5,,49,95
29695,note_on,,40,0,0,,,3,,73,0
29695,note_on,,0,0,0,,,0,,77,95
29695,note_on,,0,0,0,,,4,,61,0
29695,note_on,,0,0,0,,,5,,49,0
29695,note_on,,0,0,0,,,1,,73,95
29695,note_on,,0,0,0,,,2,,70,95
29695,note_on,,0,0,0,,,3,,65,95
29695,note_on,,0,0,0,,,4,,58,95
29695,note_on,,0,0,0,,,5,,53,95
29695,note_on,,0,0,0,,,6,,49,95
29695,note_on,,0,0,0,,,7,,46,95
29775,note_on,,80,0,0,,,0,,77,0
29775,note_on,,0,0,0,,,0,,77,95
29775,note_on,,0,0,0,,,1,,73,0
29775,note_on,,0,0,0,,,2,,70,0
29775,note_on,,0,0,0,,,3,,65,0
29775,note_on,,0,0,0,,,4,,58,0
29775,note_on,,0,0,0,,,5,,53,0
29775,note_on,,0,0,0,,,6,,49,0
29775,note_on,,0,0,0,,,7,,46,0
29775,note_on,,0,0,0,,,1,,73,95
29775,note_on,,0,0,0,,,2,,70,95
29775,note_on,,0,0,0,,,3,,65,95
29775,note_on,,0,0,0,,,4,,58,95
29775,note_on,,0,0,0,,,5,,53,95
29775,note_on,,0,0,0,,,6,,49,95
29775,note_on,,0,0,0,,,7,,46,95
29815,note_on,,40,0,0,,,0,,77,0
29815,note_on,,0,0,0,,,0,,77,95
29815,note_on,,0,0,0,,,1,,73,0
29815,note_on,,0,0,0,,,2,,70,0
29815,note_on,,0,0,0,,,3,,65,0
29815,note_on,,0,0,0,,,4,,58,0
29815,note_on,,0,0,0,,,5,,53,0
29815,note_on,,0,0,0,,,6,,49,0
29815,note_on,,0,0,0,,,7,,46,0
29815,note_on,,0,0,0,,,1,,73,95
29815,note_on,,0,0,0,,,2,,70,95
29815,note_on,,0,0,0,,,3,,65,95
29815,note_on,,0,0,0,,,4,,58,95
29815,note_on,,0,0,0,,,5,,53,95
29815,note_on,,0,0,0,,,6,,49,95
29815,note_on,,0,0,0,,,7,,46,95
29855,note_on,,40,0,0,,,0,,77,0
29855,note_on,,0,0,0,,,0,,77,95
29855,note_on,,0,0,0,,,1,,73,0
29855,note_on,,0,0,0,,,2,,70,0
29855,note_on,,0,0,0,,,3,,65,0
29855,note_on,,0,0,0,,,4,,58,0
29855,note_on,,0,0,0,,,5,,53,0
29855,note_on,,0,0,0,,,6,,49,0
29855,note_on,,0,0,0,,,7,,46,0
29855,note_on,,0,0,0,,,1,,73,95
29855,note_on,,0,0,0,,,2,,70,95
29855,note_on,,0,0,0,,,3,,65,95
29855,note_on,,0,0,0,,,4,,58,95
29855,note_on,,0,0,0,,,5,,53,95
29855,note_on,,0,0,0,,,6,,49,95
29855,note_on,,0,0,0,,,7,,46,95
29935,note_on,,80,0,0,,,0,,77,0
29935,note_on,,0,0,0,,,0,,77,95
29935,note_on,,0,0,0,,,1,,73,0
29935,note_on,,0,0,0,,,2,,70,0
29935,note_on,,0,0,0,,,3,,65,0
29935,note_on,,0,0,0,,,4,,58,0
29935,note_on,,0,0,0,,,5,,53,0
29935,note_on,,0,0,0,,,6,,49,0
29935,note_on,,0,0,0,,,7,,46,0
29935,note_on,,0,0,0,,,1,,73,95
29935,note_on,,0,0,0,,,2,,70,95
29935,note_on,,0,0,0,,,3,,65,95
29935,note_on,,0,0,0,,,4,,58,95
29935,note_on,,0,0,0,,,5,,53,95
29935,note_on,,0,0,0,,,6,,49,95
29935,note_on,,0,0,0,,,7,,46,95
29975,note_on,,40,0,0,,,0,,77,0
29975,note_on,,0,0,0,,,0,,77,95
29975,note_on,,0,0,0,,,1,,73,0
29975,note_on,,0,0,0,,,2,,70,0
29975,note_on,,0,0,0,,,3,,65,0
29975,note_on,,0,0,0,,,4,,58,0
29975,note_on,,0,0,0,,,5,,53,0
29975,note_on,,0,0,0,,,6,,49,0
29975,note_on,,0,0,0,,,7,,46,0
29975,note_on,,0,0,0,,,1,,73,95
29975,note_on,,0,0,0,,,2,,70,95
29975,note_on,,0,0,0,,,3,,65,95
29975,note_on,,0,0,0,,,4,,58,95
29975,note_on,,0,0,0,,,5,,53,95
29975,note_on,,0,0,0,,,6,,49,95
29975,note_on,,0,0,0,,,7,,46,95
30015,note_on,,40,0,0,,,0,,77,0
30015,note_on,,0,0,0,,,0,,77,95
30015,note_on,,0,0,0,,,1,,73,0
30015,note_on,,0,0,0,,,2,,70,0
30015,note_on,,0,0,0,,,3,,65,0
30015,note_on,,0,0,0,,,4,,58,0
30015,note_on,,0,0,0,,,5,,53,0
30015,note_on,,0,0,0,,,6,,49,0
30015,note_on,,0,0,0,,,7,,46,0
30015,note_on,,0,0,0,,,1,,73,95
30015,note_on,,0,0,0,,,2,,70,95
30015,note_on,,0,0,0,,,3,,65,95
30015,note_on,,0,0,0,,,4,,58,95
30015,note_on,,0,0,0,,,5,,53,95
30015,note_on,,0,0,0,,,6,,49,95
30015,note_on,,0,0,0,,,7,,46,95
30055,note_on,,40,0,0,,,0,,77,0
30055,note_on,,0,0,0,,,0,,53,95
30055,note_on,,0,0,0,,,1,,73,0
30055,note_on,,0,0,0,,,2,,70,0
30055,note_on,,0,0,0,,,3,,65,0
30055,note_on,,0,0,0,,,4,,58,0
30055,note_on,,0,0,0,,,5,,53,0
30055,note_on,,0,0,0,,,6,,49,0
30055,note_on,,0,0,0,,,7,,46,0
30055,note_on,,0,0,0,,,2,,34,95
30055,note_on,,0,0,0,,,3,,58,95
30055,note_on,,0,0,0,,,4,,46,95
30055,note_on,,0,0,0,,,5,,34,95
30075,note_on,,20,0,0,,,0,,53,0
30075,note_on,,0,0,0,,,0,,58,95
30075,note_on,,0,0,0,,,2,,34,0
30075,note_on,,0,0,0,,,2,,41,95
30095,note_on,,20,0,0,,,3,,58,0
30095,note_on,,0,0,0,,,0,,65,95
30095,note_on,,0,0,0,,,4,,46,0
30095,note_on,,0,0,0,,,5,,34,0
30095,note_on,,0,0,0,,,0,,58,0
30095,note_on,,0,0,0,,,2,,41,0
30095,note_on,,0,0,0,,,1,,61,95
30095,note_on,,0,0,0,,,2,,46,95
30095,note_on,,0,0,0,,,3,,61,95
30095,note_on,,0,0,0,,,4,,49,95
30095,note_on,,0,0,0,,,5,,37,95
30115,note_on,,20,0,0,,,0,,65,0
30115,note_on,,0,0,0,,,0,,65,95
30115,note_on,,0,0,0,,,1,,61,0
30115,note_on,,0,0,0,,,2,,46,0
30115,note_on,,0,0,0,,,2,,46,95
30135,note_on,,20,0,0,,,3,,61,0
30135,note_on,,0,0,0,,,0,,70,95
30135,note_on,,0,0,0,,,4,,49,0
30135,note_on,,0,0,0,,,5,,37,0
30135,note_on,,0,0,0,,,0,,65,0
30135,note_on,,0,0,0,,,2,,46,0
30135,note_on,,0,0,0,,,2,,53,95
30135,note_on,,0,0,0,,,3,,65,95
30135,note_on,,0,0,0,,,4,,53,95
30135,note_on,,0,0,0,,,5,,41,95
30155,note_on,,20,0,0,,,0,,70,0
30155,note_on,,0,0,0,,,0,,77,95
30155,note_on,,0,0,0,,,2,,53,0
30155,note_on,,0,0,0,,,1,,73,95
30155,note_on,,0,0,0,,,2,,58,95
30175,note_on,,20,0,0,,,3,,65,0
30175,note_on,,0,0,0,,,4,,53,0
30175,note_on,,0,0,0,,,5,,41,0
30175,note_on,,0,0,0,,,1,,73,0
30175,note_on,,0,0,0,,,2,,58,0
30175,note_on,,0,0,0,,,2,,58,95
30175,note_on,,0,0,0,,,3,,69,95
30175,note_on,,0,0,0,,,4,,57,95
30175,note_on,,0,0,0,,,5,,45,95
30191,note_on,,16,0,0,,,0,,77,0
30191,note_on,,0,0,0,,,0,,82,95
30191,note_on,,0,0,0,,,2,,58,0
30191,note_on,,0,0,0,,,2,,65,95
30207,note_on,,16,0,0,,,0,,82,0
30207,note_on,,0,0,0,,,0,,89,95
30207,note_on,,0,0,0,,,2,,65,0
30207,note_on,,0,0,0,,,1,,85,95
30207,note_on,,0,0,0,,,2,,70,95
30223,note_on,,16,0,0,,,0,,89,0
30223,note_on,,0,0,0,,,0,,89,95
30223,note_on,,0,0,0,,,1,,85,0
30223,note_on,,0,0,0,,,2,,70,0
30223,note_on,,0,0,0,,,2,,70,95
30239,note_on,,16,0,0,,,0,,89,0
30239,note_on,,0,0,0,,,0,,94,95
30239,note_on,,0,0,0,,,2,,70,0
30239,note_on,,0,0,0,,,2,,77,95
30255,note_on,,16,0,0,,,3,,69,0
30255,note_on,,0,0,0,,,0,,101,95
30255,note_on,,0,0,0,,,4,,57,0
30255,note_on,,0,0,0,,,5,,45,0
30255,note_on,,0,0,0,,,0,,94,0
30255,note_on,,0,0,0,,,2,,77,0
30255,note_on,,0,0,0,,,1,,97,95
30255,note_on,,0,0,0,,,2,,82,95
30255,note_on,,0,0,0,,,3,,70,95
30255,note_on,,0,0,0,,,4,,58,95
30255,note_on,,0,0,0,,,5,,46,95
30295,note_on,,40,0,0,,,0,,101,0
30295,note_on,,0,0,0,,,1,,97,0
30295,note_on,,0,0,0,,,2,,82,0
30295,note_on,,0,0,0,,,3,,70,0
30295,note_on,,0,0,0,,,4,,58,0
30295,note_on,,0,0,0,,,5,,46,0
30295,note_on,,0,0,0,,,3,,70,95
30295,note_on,,0,0,0,,,4,,58,95
30295,note_on,,0,0,0,,,5,,46,95
30335,note_on,,40,0,0,,,3,,70,0
30335,note_on,,0,0,0,,,0,,90,95
30335,note_on,,0,0,0,,,4,,58,0
30335,note_on,,0,0,0,,,5,,46,0
30335,note_on,,0,0,0,,,1,,85,95
30335,note_on,,0,0,0,,,2,,82,95
30335,note_on,,0,0,0,,,3,,78,95
30335,note_on,,0,0,0,,,4,,66,95
30335,note_on,,0,0,0,,,5,,61,95
30335,note_on,,0,0,0,,,6,,58,95
30335,note_on,,0,0,0,,,7,,54,95
30335,note_on,,0,0,0,,,8,,42,95
30415,note_on,,80,0,0,,,0,,90,0
30415,note_on,,0,0,0,,,0,,90,95
30415,note_on,,0,0,0,,,1,,85,0
30415,note_on,,0,0,0,,,2,,82,0
30415,note_on,,0,0,0,,,3,,78,0
30415,note_on,,0,0,0,,,4,,66,0
30415,note_on,,0,0,0,,,5,,61,0
30415,note_on,,0,0,0,,,6,,58,0
30415,note_on,,0,0,0,,,7,,54,0
30415,note_on,,0,0,0,,,8,,42,0
30415,note_on,,0,0,0,,,1,,85,95
30415,note_on,,0,0,0,,,2,,82,95
30415,note_on,,0,0,0,,,3,,78,95
30415,note_on,,0,0,0,,,4,,66,95
30415,note_on,,0,0,0,,,5,,61,95
30415,note_on,,0,0,0,,,6,,58,95
30415,note_on,,0,0,0,,,7,,54,95
30455,note_on,,40,0,0,,,0,,90,0
30455,note_on,,0,0,0,,,0,,90,95
30455,note_on,,0,0,0,,,1,,85,0
30455,note_on,,0,0,0,,,2,,82,0
30455,note_on,,0,0,0,,,3,,78,0
30455,note_on,,0,0,0,,,4,,66,0
30455,note_on,,0,0,0,,,5,,61,0
30455,note_on,,0,0,0,,,6,,58,0
30455,note_on,,0,0,0,,,7,,54,0
30455,note_on,,0,0,0,,,1,,85,95
30455,note_on,,0,0,0,,,2,,82,95
30455,note_on,,0,0,0,,,3,,78,95
30455,note_on,,0,0,0,,,4,,66,95
30455,note_on,,0,0,0,,,5,,61,95
30455,note_on,,0,0,0,,,6,,58,95
30455,note_on,,0,0,0,,,7,,54,95
30495,note_on,,40,0,0,,,0,,90,0
30495,note_on,,0,0,0,,,0,,90,95
30495,note_on,,0,0,0,,,1,,85,0
30495,note_on,,0,0,0,,,2,,82,0
30495,note_on,,0,0,0,,,3,,78,0
30495,note_on,,0,0,0,,,4,,66,0
30495,note_on,,0,0,0,,,5,,61,0
30495,note_on,,0,0,0,,,6,,58,0
30495,note_on,,0,0,0,,,7,,54,0
30495,note_on,,0,0,0,,,1,,86,95
30495,note_on,,0,0,0,,,2,,81,95
30495,note_on,,0,0,0,,,3,,78,95
30495,note_on,,0,0,0,,,4,,62,95
30495,note_on,,0,0,0,,,5,,57,95
30495,note_on,,0,0,0,,,6,,54,95
30495,note_on,,0,0,0,,,7,,50,95
30575,note_on,,80,0,0,,,0,,90,0
30575,note_on,,0,0,0,,,0,,90,95
30575,note_on,,0,0,0,,,1,,86,0
30575,note_on,,0,0,0,,,2,,81,0
30575,note_on,,0,0,0,,,3,,78,0
30575,note_on,,0,0,0,,,4,,62,0
30575,note_on,,0,0,0,,,5,,57,0
30575,note_on,,0,0,0,,,6,,54,0
30575,note_on,,0,0,0,,,7,,50,0
30575,note_on,,0,0,0,,,1,,86,95
30575,note_on,,0,0,0,,,2,,81,95
30575,note_on,,0,0,0,,,3,,78,95
30575,note_on,,0,0,0,,,4,,62,95
30575,note_on,,0,0,0,,,5,,57,95
30575,note_on,,0,0,0,,,6,,54,95
30575,note_on,,0,0,0,,,7,,50,95
30615,note_on,,40,0,0,,,0,,90,0
30615,note_on,,0,0,0,,,0,,90,95
30615,note_on,,0,0,0,,,1,,86,0
30615,note_on,,0,0,0,,,2,,81,0
30615,note_on,,0,0,0,,,3,,78,0
30615,note_on,,0,0,0,,,4,,62,0
30615,note_on,,0,0,0,,,5,,57,0
30615,note_on,,0,0,0,,,6,,54,0
30615,note_on,,0,0,0,,,7,,50,0
30615,note_on,,0,0,0,,,1,,86,95
30615,note_on,,0,0,0,,,2,,81,95
30615,note_on,,0,0,0,,,3,,78,95
30615,note_on,,0,0,0,,,4,,62,95
30615,note_on,,0,0,0,,,5,,57,95
30615,note_on,,0,0,0,,,6,,54,95
30615,note_on,,0,0,0,,,7,,50,95
30655,note_on,,40,0,0,,,0,,90,0
30655,note_on,,0,0,0,,,0,,90,95
30655,note_on,,0,0,0,,,1,,86,0
30655,note_on,,0,0,0,,,2,,81,0
30655,note_on,,0,0,0,,,3,,78,0
30655,note_on,,0,0,0,,,4,,62,0
30655,note_on,,0,0,0,,,5,,57,0
30655,note_on,,0,0,0,,,6,,54,0
30655,note_on,,0,0,0,,,7,,50,0
30655,note_on,,0,0,0,,,1,,87,95
30655,note_on,,0,0,0,,,2,,80,95
30655,note_on,,0,0,0,,,3,,78,95
30655,note_on,,0,0,0,,,4,,60,95
30655,note_on,,0,0,0,,,5,,56,95
30655,note_on,,0,0,0,,,6,,51,95
30655,note_on,,0,0,0,,,7,,48,95
30696,note_on,,41,0,0,,,0,,90,0
30696,note_on,,0,0,0,,,1,,87,0
30696,note_on,,0,0,0,,,2,,80,0
30696,note_on,,0,0,0,,,3,,78,0
30696,note_on,,0,0,0,,,4,,60,0
30696,note_on,,0,0,0,,,5,,56,0
30696,note_on,,0,0,0,,,6,,51,0
30696,note_on,,0,0,0,,,7,,48,0
30736,note_on,,40,0,0,,,0,,68,95
30736,note_on,,0,0,0,,,1,,66,95
30736,note_on,,0,0,0,,,2,,66,95
30736,note_on,,0,0,0,,,3,,54,95
30756,note_on,,20,0,0,,,0,,68,0
30756,note_on,,0,0,0,,,0,,72,95
30756,note_on,,0,0,0,,,1,,66,0
30756,note_on,,0,0,0,,,1,,63,95
30776,note_on,,20,0,0,,,2,,66,0
30776,note_on,,0,0,0,,,0,,75,95
30776,note_on,,0,0,0,,,3,,54,0
30776,note_on,,0,0,0,,,0,,72,0
30776,note_on,,0,0,0,,,1,,63,0
30776,note_on,,0,0,0,,,1,,60,95
30776,note_on,,0,0,0,,,2,,66,95
30776,note_on,,0,0,0,,,3,,54,95
30796,note_on,,20,0,0,,,0,,75,0
30796,note_on,,0,0,0,,,0,,78,95
30796,note_on,,0,0,0,,,1,,60,0
30796,note_on,,0,0,0,,,1,,56,95
30816,note_on,,20,0,0,,,2,,66,0
30816,note_on,,0,0,0,,,0,,80,95
30816,note_on,,0,0,0,,,3,,54,0
30816,note_on,,0,0,0,,,0,,78,0
30816,note_on,,0,0,0,,,1,,56,0
30816,note_on,,0,0,0,,,1,,54,95
30816,note_on,,0,0,0,,,2,,66,95
30816,note_on,,0,0,0,,,3,,54,95
30827,note_on,,11,0,0,,,0,,80,0
30827,note_on,,0,0,0,,,0,,84,95
30827,note_on,,0,0,0,,,1,,54,0
30827,note_on,,0,0,0,,,1,,51,95
30838,note_on,,11,0,0,,,0,,84,0
30838,note_on,,0,0,0,,,0,,87,95
30838,note_on,,0,0,0,,,1,,51,0
30838,note_on,,0,0,0,,,1,,48,95
30850,note_on,,12,0,0,,,0,,87,0
30850,note_on,,0,0,0,,,0,,90,95
30850,note_on,,0,0,0,,,1,,48,0
30850,note_on,,0,0,0,,,1,,44,95
30861,note_on,,11,0,0,,,0,,90,0
30861,note_on,,0,0,0,,,0,,92,95
30861,note_on,,0,0,0,,,1,,44,0
30861,note_on,,0,0,0,,,1,,42,95
30873,note_on,,12,0,0,,,0,,92,0
30873,note_on,,0,0,0,,,0,,96,95
30873,note_on,,0,0,0,,,1,,42,0
30873,note_on,,0,0,0,,,1,,39,95
30884,note_on,,11,0,0,,,0,,96,0
30884,note_on,,0,0,0,,,0,,99,95
30884,note_on,,0,0,0,,,1,,39,0
30884,note_on,,0,0,0,,,1,,36,95
30896,note_on,,12,0,0,,,2,,66,0
30896,note_on,,0,0,0,,,0,,102,95
30896,note_on,,0,0,0,,,3,,54,0
30896,note_on,,0,0,0,,,0,,99,0
30896,note_on,,0,0,0,,,1,,36,0
30896,note_on,,0,0,0,,,1,,32,95
30896,note_on,,0,0,0,,,2,,66,95
30896,note_on,,0,0,0,,,3,,54,95
30936,note_on,,40,0,0,,,0,,102,0
30936,note_on,,0,0,0,,,1,,32,0
30936,note_on,,0,0,0,,,2,,66,0
30936,note_on,,0,0,0,,,3,,54,0
30936,note_on,,0,0,0,,,2,,66,95
30936,note_on,,0,0,0,,,3,,54,95
30976,note_on,,40,0,0,,,2,,66,0
30976,note_on,,0,0,0,,,0,,90,95
30976,note_on,,0,0,0,,,3,,54,0
30976,note_on,,0,0,0,,,1,,85,95
30976,note_on,,0,0,0,,,2,,82,95
30976,note_on,,0,0,0,,,3,,78,95
30976,note_on,,0,0,0,,,4,,66,95
30976,note_on,,0,0,0,,,5,,61,95
30976,note_on,,0,0,0,,,6,,58,95
30976,note_on,,0,0,0,,,7,,66,95
30976,note_on,,0,0,0,,,8,,54,95
31056,note_on,,80,0,0,,,0,,90,0
31056,note_on,,0,0,0,,,0,,90,95
31056,note_on,,0,0,0,,,1,,85,0
31056,note_on,,0,0,0,,,2,,82,0
31056,note_on,,0,0,0,,,3,,78,0
31056,note_on,,0,0,0,,,4,,66,0
31056,note_on,,0,0,0,,,5,,61,0
31056,note_on,,0,0,0,,,6,,58,0
31056,note_on,,0,0,0,,,1,,85,95
31056,note_on,,0,0,0,,,2,,82,95
31056,note_on,,0,0,0,,,3,,78,95
31056,note_on,,0,0,0,,,4,,66,95
31056,note_on,,0,0,0,,,5,,61,95
31056,note_on,,0,0,0,,,6,,58,95
31096,note_on,,40,0,0,,,0,,90,0
31096,note_on,,0,0,0,,,0,,90,95
31096,note_on,,0,0,0,,,1,,85,0
31096,note_on,,0,0,0,,,2,,82,0
31096,note_on,,0,0,0,,,3,,78,0
31096,note_on,,0,0,0,,,4,,66,0
31096,note_on,,0,0,0,,,5,,61,0
31096,note_on,,0,0,0,,,6,,58,0
31096,note_on,,0,0,0,,,1,,85,95
31096,note_on,,0,0,0,,,2,,82,95
31096,note_on,,0,0,0,,,3,,78,95
31096,note_on,,0,0,0,,,4,,66,95
31096,note_on,,0,0,0,,,5,,61,95
31096,note_on,,0,0,0,,,6,,58,95
31136,note_on,,40,0,0,,,0,,90,0
31136,note_on,,0,0,0,,,0,,90,95
31136,note_on,,0,0,0,,,1,,85,0
31136,note_on,,0,0,0,,,2,,82,0
31136,note_on,,0,0,0,,,3,,78,0
31136,note_on,,0,0,0,,,4,,66,0
31136,note_on,,0,0,0,,,5,,61,0
31136,note_on,,0,0,0,,,6,,58,0
31136,note_on,,0,0,0,,,1,,86,95
31136,note_on,,0,0,0,,,2,,81,95
31136,note_on,,0,0,0,,,3,,78,95
31136,note_on,,0,0,0,,,4,,62,95
31136,note_on,,0,0,0,,,5,,57,95
31136,note_on,,0,0,0,,,6,,54,95
31216,note_on,,80,0,0,,,7,,66,0
31216,note_on,,0,0,0,,,0,,90,95
31216,note_on,,0,0,0,,,8,,54,0
31216,note_on,,0,0,0,,,0,,90,0
31216,note_on,,0,0,0,,,1,,86,0
31216,note_on,,0,0,0,,,2,,81,0
31216,note_on,,0,0,0,,,3,,78,0
31216,note_on,,0,0,0,,,4,,62,0
31216,note_on,,0,0,0,,,5,,57,0
31216,note_on,,0,0,0,,,6,,54,0
31216,note_on,,0,0,0,,,1,,86,95
31216,note_on,,0,0,0,,,2,,81,95
31216,note_on,,0,0,0,,,3,,78,95
31216,note_on,,0,0,0,,,4,,62,95
31216,note_on,,0,0,0,,,5,,57,95
31216,note_on,,0,0,0,,,6,,54,95
31216,note_on,,0,0,0,,,7,,50,95
31256,note_on,,40,0,0,,,0,,90,0
31256,note_on,,0,0,0,,,0,,90,95
31256,note_on,,0,0,0,,,1,,86,0
31256,note_on,,0,0,0,,,2,,81,0
31256,note_on,,0,0,0,,,3,,78,0
31256,note_on,,0,0,0,,,4,,62,0
31256,note_on,,0,0,0,,,5,,57,0
31256,note_on,,0,0,0,,,6,,54,0
31256,note_on,,0,0,0,,,7,,50,0
31256,note_on,,0,0,0,,,1,,86,95
31256,note_on,,0,0,0,,,2,,81,95
31256,note_on,,0,0,0,,,3,,78,95
31256,note_on,,0,0,0,,,4,,62,95
31256,note_on,,0,0,0,,,5,,57,95
31256,note_on,,0,0,0,,,6,,54,95
31256,note_on,,0,0,0,,,7,,50,95
31296,note_on,,40,0,0,,,0,,90,0
31296,note_on,,0,0,0,,,0,,90,95
31296,note_on,,0,0,0,,,1,,86,0
31296,note_on,,0,0,0,,,2,,81,0
31296,note_on,,0,0,0,,,3,,78,0
31296,note_on,,0,0,0,,,4,,62,0
31296,note_on,,0,0,0,,,5,,57,0
31296,note_on,,0,0,0,,,6,,54,0
31296,note_on,,0,0,0,,,7,,50,0
31296,note_on,,0,0,0,,,1,,87,95
31296,note_on,,0,0,0,,,2,,80,95
31296,note_on,,0,0,0,,,3,,78,95
31296,note_on,,0,0,0,,,4,,60,95
31296,note_on,,0,0,0,,,5,,56,95
31296,note_on,,0,0,0,,,6,,51,95
31296,note_on,,0,0,0,,,7,,48,95
31336,note_on,,40,0,0,,,0,,90,0
31336,note_on,,0,0,0,,,1,,87,0
31336,note_on,,0,0,0,,,2,,80,0
31336,note_on,,0,0,0,,,3,,78,0
31336,note_on,,0,0,0,,,4,,60,0
31336,note_on,,0,0,0,,,5,,56,0
31336,note_on,,0,0,0,,,6,,51,0
31336,note_on,,0,0,0,,,7,,48,0
31376,note_on,,40,0,0,,,0,,68,95
31376,note_on,,0,0,0,,,1,,66,95
31376,note_on,,0,0,0,,,2,,66,95
31376,note_on,,0,0,0,,,3,,54,95
31396,note_on,,20,0,0,,,0,,68,0
31396,note_on,,0,0,0,,,0,,72,95
31396,note_on,,0,0,0,,,1,,66,0
31396,note_on,,0,0,0,,,1,,63,95
31416,note_on,,20,0,0,,,2,,66,0
31416,note_on,,0,0,0,,,0,,75,95
31416,note_on,,0,0,0,,,3,,54,0
31416,note_on,,0,0,0,,,0,,72,0
31416,note_on,,0,0,0,,,1,,63,0
31416,note_on,,0,0,0,,,1,,60,95
31416,note_on,,0,0,0,,,2,,66,95
31416,note_on,,0,0,0,,,3,,54,95
31436,note_on,,20,0,0,,,0,,75,0
31436,note_on,,0,0,0,,,0,,78,95
31436,note_on,,0,0,0,,,1,,60,0
31436,note_on,,0,0,0,,,1,,56,95
31456,note_on,,20,0,0,,,2,,66,0
31456,note_on,,0,0,0,,,0,,80,95
31456,note_on,,0,0,0,,,3,,54,0
31456,note_on,,0,0,0,,,0,,78,0
31456,note_on,,0,0,0,,,1,,56,0
31456,note_on,,0,0,0,,,1,,54,95
31456,note_on,,0,0,0,,,2,,66,95
31456,note_on,,0,0,0,,,3,,54,95
31467,note_on,,11,0,0,,,0,,80,0
31467,note_on,,0,0,0,,,0,,84,95
31467,note_on,,0,0,0,,,1,,54,0
31467,note_on,,0,0,0,,,1,,51,95
31478,note_on,,11,0,0,,,0,,84,0
31478,note_on,,0,0,0,,,0,,87,95
31478,note_on,,0,0,0,,,1,,51,0
31478,note_on,,0,0,0,,,1,,48,95
31490,note_on,,12,0,0,,,0,,87,0
31490,note_on,,0,0,0,,,0,,90,95
31490,note_on,,0,0,0,,,1,,48,0
31490,note_on,,0,0,0,,,1,,44,95
31501,note_on,,11,0,0,,,0,,90,0
31501,note_on,,0,0,0,,,0,,92,95
31501,note_on,,0,0,0,,,1,,44,0
31501,note_on,,0,0,0,,,1,,42,95
31513,note_on,,12,0,0,,,0,,92,0
31513,note_on,,0,0,0,,,0,,96,95
31513,note_on,,0,0,0,,,1,,42,0
31513,note_on,,0,0,0,,,1,,39,95
31524,note_on,,11,0,0,,,0,,96,0
31524,note_on,,0,0,0,,,0,,99,95
31524,note_on,,0,0,0,,,1,,39,0
31524,note_on,,0,0,0,,,1,,36,95
31536,note_on,,12,0,0,,,2,,66,0
31536,note_on,,0,0,0,,,0,,102,95
31536,note_on,,0,0,0,,,3,,54,0
31536,note_on,,0,0,0,,,0,,99,0
31536,note_on,,0,0,0,,,1,,36,0
31536,note_on,,0,0,0,,,1,,32,95
31536,note_on,,0,0,0,,,2,,66,95
31536,note_on,,0,0,0,,,3,,54,95
31576,note_on,,40,0,0,,,0,,102,0
31576,note_on,,0,0,0,,,1,,32,0
31576,note_on,,0,0,0,,,2,,66,0
31576,note_on,,0,0,0,,,3,,54,0
31576,note_on,,0,0,0,,,2,,66,95
31576,note_on,,0,0,0,,,3,,54,95
31616,note_on,,40,0,0,,,2,,66,0
31616,note_on,,0,0,0,,,0,,81,95
31616,note_on,,0,0,0,,,3,,54,0
31616,note_on,,0,0,0,,,1,,78,95
31616,note_on,,0,0,0,,,2,,73,95
31616,note_on,,0,0,0,,,3,,69,95
31616,note_on,,0,0,0,,,4,,61,95
31616,note_on,,0,0,0,,,5,,57,95
31616,note_on,,0,0,0,,,6,,54,95
31616,note_on,,0,0,0,,,7,,66,95
31616,note_on,,0,0,0,,,8,,54,95
31696,note_on,,80,0,0,,,0,,81,0
31696,note_on,,0,0,0,,,0,,81,95
31696,note_on,,0,0,0,,,1,,78,0
31696,note_on,,0,0,0,,,2,,73,0
31696,note_on,,0,0,0,,,3,,69,0
31696,note_on,,0,0,0,,,4,,61,0
31696,note_on,,0,0,0,,,5,,57,0
31696,note_on,,0,0,0,,,6,,54,0
31696,note_on,,0,0,0,,,1,,78,95
31696,note_on,,0,0,0,,,2,,73,95
31696,note_on,,0,0,0,,,3,,69,95
31696,note_on,,0,0,0,,,4,,61,95
31696,note_on,,0,0,0,,,5,,57,95
31696,note_on,,0,0,0,,,6,,54,95
31736,note_on,,40,0,0,,,0,,81,0
31736,note_on,,0,0,0,,,0,,81,95
31736,note_on,,0,0,0,,,1,,78,0
31736,note_on,,0,0,0,,,2,,73,0
31736,note_on,,0,0,0,,,3,,69,0
31736,note_on,,0,0,0,,,4,,61,0
31736,note_on,,0,0,0,,,5,,57,0
31736,note_on,,0,0,0,,,6,,54,0
31736,note_on,,0,0,0,,,1,,78,95
31736,note_on,,0,0,0,,,2,,73,95
31736,note_on,,0,0,0,,,3,,69,95
31736,note_on,,0,0,0,,,4,,61,95
31736,note_on,,0,0,0,,,5,,57,95
31736,note_on,,0,0,0,,,6,,54,95
31776,note_on,,40,0,0,,,0,,81,0
31776,note_on,,0,0,0,,,0,,86,95
31776,note_on,,0,0,0,,,1,,78,0
31776,note_on,,0,0,0,,,2,,73,0
31776,note_on,,0,0,0,,,3,,69,0
31776,note_on,,0,0,0,,,4,,61,0
31776,note_on,,0,0,0,,,5,,57,0
31776,note_on,,0,0,0,,,6,,54,0
31776,note_on,,0,0,0,,,1,,81,95
31776,note_on,,0,0,0,,,2,,78,95
31776,note_on,,0,0,0,,,3,,74,95
31776,note_on,,0,0,0,,,4,,57,95
31776,note_on,,0,0,0,,,5,,54,95
31776,note_on,,0,0,0,,,6,,50,95
31856,note_on,,80,0,0,,,7,,66,0
31856,note_on,,0,0,0,,,0,,86,95
31856,note_on,,0,0,0,,,8,,54,0
31856,note_on,,0,0,0,,,0,,86,0
31856,note_on,,0,0,0,,,1,,81,0
31856,note_on,,0,0,0,,,2,,78,0
31856,note_on,,0,0,0,,,3,,74,0
31856,note_on,,0,0,0,,,4,,57,0
31856,note_on,,0,0,0,,,5,,54,0
31856,note_on,,0,0,0,,,6,,50,0
31856,note_on,,0,0,0,,,1,,81,95
31856,note_on,,0,0,0,,,2,,78,95
31856,note_on,,0,0,0,,,3,,74,95
31856,note_on,,0,0,0,,,4,,62,95
31856,note_on,,0,0,0,,,5,,57,95
31856,note_on,,0,0,0,,,6,,54,95
31856,note_on,,0,0,0,,,7,,50,95
31896,note_on,,40,0,0,,,0,,86,0
31896,note_on,,0,0,0,,,0,,86,95
31896,note_on,,0,0,0,,,1,,81,0
31896,note_on,,0,0,0,,,2,,78,0
31896,note_on,,0,0,0,,,3,,74,0
31896,note_on,,0,0,0,,,4,,62,0
31896,note_on,,0,0,0,,,5,,57,0
31896,note_on,,0,0,0,,,6,,54,0
31896,note_on,,0,0,0,,,7,,50,0
31896,note_on,,0,0,0,,,1,,81,95
31896,note_on,,0,0,0,,,2,,78,95
31896,note_on,,0,0,0,,,3,,74,95
31896,note_on,,0,0,0,,,4,,62,95
31896,note_on,,0,0,0,,,5,,57,95
31896,note_on,,0,0,0,,,6,,54,95
31896,note_on,,0,0,0,,,7,,50,95
31936,note_on,,40,0,0,,,0,,86,0
31936,note_on,,0,0,0,,,0,,83,95
31936,note_on,,0,0,0,,,1,,81,0
31936,note_on,,0,0,0,,,2,,78,0
31936,note_on,,0,0,0,,,3,,74,0
31936,note_on,,0,0,0,,,4,,62,0
31936,note_on,,0,0,0,,,5,,57,0
31936,note_on,,0,0,0,,,6,,54,0
31936,note_on,,0,0,0,,,7,,50,0
31936,note_on,,0,0,0,,,1,,79,95
31936,note_on,,0,0,0,,,2,,71,95
31936,note_on,,0,0,0,,,3,,64,95
31936,note_on,,0,0,0,,,4,,59,95
31936,note_on,,0,0,0,,,5,,55,95
31936,note_on,,0,0,0,,,6,,52,95
32016,note_on,,80,0,0,,,0,,83,0
32016,note_on,,0,0,0,,,0,,84,95
32016,note_on,,0,0,0,,,1,,79,0
32016,note_on,,0,0,0,,,2,,71,0
32016,note_on,,0,0,0,,,3,,64,0
32016,note_on,,0,0,0,,,4,,59,0
32016,note_on,,0,0,0,,,5,,55,0
32016,note_on,,0,0,0,,,6,,52,0
32016,note_on,,0,0,0,,,1,,81,95
32016,note_on,,0,0,0,,,2,,76,95
32016,note_on,,0,0,0,,,3,,72,95
32016,note_on,,0,0,0,,,4,,60,95
32016,note_on,,0,0,0,,,5,,57,95
32016,note_on,,0,0,0,,,6,,52,95
32016,note_on,,0,0,0,,,7,,48,95
32096,note_on,,80,0,0,,,0,,84,0
32096,note_on,,0,0,0,,,0,,81,95
32096,note_on,,0,0,0,,,1,,81,0
32096,note_on,,0,0,0,,,2,,76,0
32096,note_on,,0,0,0,,,3,,72,0
32096,note_on,,0,0,0,,,4,,60,0
32096,note_on,,0,0,0,,,5,,57,0
32096,note_on,,0,0,0,,,6,,52,0
32096,note_on,,0,0,0,,,7,,48,0
32096,note_on,,0,0,0,,,1,,79,95
32096,note_on,,0,0,0,,,2,,74,95
32096,note_on,,0,0,0,,,3,,69,95
32096,note_on,,0,0,0,,,4,,62,95
32096,note_on,,0,0,0,,,5,,57,95
32096,note_on,,0,0,0,,,6,,50,95
32176,note_on,,80,0,0,,,0,,81,0
32176,note_on,,0,0,0,,,0,,86,95
32176,note_on,,0,0,0,,,1,,79,0
32176,note_on,,0,0,0,,,2,,74,0
32176,note_on,,0,0,0,,,3,,69,0
32176,note_on,,0,0,0,,,4,,62,0
32176,note_on,,0,0,0,,,5,,57,0
32176,note_on,,0,0,0,,,6,,50,0
32176,note_on,,0,0,0,,,1,,81,95
32176,note_on,,0,0,0,,,2,,78,95
32176,note_on,,0,0,0,,,3,,74,95
32176,note_on,,0,0,0,,,4,,50,95
32176,note_on,,0,0,0,,,5,,38,95
32176,note_on,,0,0,0,,,6,,62,95
32176,note_on,,0,0,0,,,7,,38,95
32176,note_on,,0,0,0,,,8,,26,95
32216,note_on,,40,0,0,,,6,,62,0
32216,note_on,,0,0,0,,,7,,38,0
32216,note_on,,0,0,0,,,8,,26,0
32216,note_on,,0,0,0,,,6,,62,95
32216,note_on,,0,0,0,,,7,,38,95
32216,note_on,,0,0,0,,,8,,26,95
32256,note_on,,40,0,0,,,0,,86,0
32256,note_on,,0,0,0,,,0,,83,95
32256,note_on,,0,0,0,,,1,,81,0
32256,note_on,,0,0,0,,,2,,78,0
32256,note_on,,0,0,0,,,3,,74,0
32256,note_on,,0,0,0,,,4,,50,0
32256,note_on,,0,0,0,,,5,,38,0
32256,note_on,,0,0,0,,,6,,62,0
32256,note_on,,0,0,0,,,7,,38,0
32256,note_on,,0,0,0,,,8,,26,0
32256,note_on,,0,0,0,,,1,,79,95
32256,note_on,,0,0,0,,,2,,71,95
32256,note_on,,0,0,0,,,3,,52,95
32256,note_on,,0,0,0,,,4,,40,95
32256,note_on,,0,0,0,,,5,,64,95
32256,note_on,,0,0,0,,,6,,52,95
32256,note_on,,0,0,0,,,7,,40,95
32336,note_on,,80,0,0,,,0,,83,0
32336,note_on,,0,0,0,,,0,,84,95
32336,note_on,,0,0,0,,,1,,79,0
32336,note_on,,0,0,0,,,2,,71,0
32336,note_on,,0,0,0,,,3,,52,0
32336,note_on,,0,0,0,,,4,,40,0
32336,note_on,,0,0,0,,,5,,64,0
32336,note_on,,0,0,0,,,6,,52,0
32336,note_on,,0,0,0,,,7,,40,0
32336,note_on,,0,0,0,,,1,,81,95
32336,note_on,,0,0,0,,,2,,76,95
32336,note_on,,0,0,0,,,3,,72,95
32336,note_on,,0,0,0,,,4,,60,95
32336,note_on,,0,0,0,,,5,,57,95
32336,note_on,,0,0,0,,,6,,52,95
32336,note_on,,0,0,0,,,7,,57,95
32336,note_on,,0,0,0,,,8,,45,95
32362,note_on,,26,0,0,,,7,,57,0
32362,note_on,,0,0,0,,,8,,45,0
32362,note_on,,0,0,0,,,7,,59,95
32362,note_on,,0,0,0,,,8,,47,95
32389,note_on,,27,0,0,,,7,,59,0
32389,note_on,,0,0,0,,,8,,47,0
32389,note_on,,0,0,0,,,7,,60,95
32389,note_on,,0,0,0,,,8,,48,95
32416,note_on,,27,0,0,,,0,,84,0
32416,note_on,,0,0,0,,,0,,81,95
32416,note_on,,0,0,0,,,1,,81,0
32416,note_on,,0,0,0,,,2,,76,0
32416,note_on,,0,0,0,,,3,,72,0
32416,note_on,,0,0,0,,,4,,60,0
32416,note_on,,0,0,0,,,5,,57,0
32416,note_on,,0,0,0,,,6,,52,0
32416,note_on,,0,0,0,,,7,,60,0
32416,note_on,,0,0,0,,,8,,48,0
32416,note_on,,0,0,0,,,1,,79,95
32416,note_on,,0,0,0,,,2,,74,95
32416,note_on,,0,0,0,,,3,,69,95
32416,note_on,,0,0,0,,,4,,62,95
32416,note_on,,0,0,0,,,5,,57,95
32416,note_on,,0,0,0,,,6,,62,95
32416,note_on,,0,0,0,,,7,,50,95
32416,note_on,,0,0,0,,,8,,38,95
32496,note_on,,80,0,0,,,0,,81,0
32496,note_on,,0,0,0,,,0,,86,95
32496,note_on,,0,0,0,,,1,,79,0
32496,note_on,,0,0,0,,,2,,74,0
32496,note_on,,0,0,0,,,3,,69,0
32496,note_on,,0,0,0,,,4,,62,0
32496,note_on,,0,0,0,,,5,,57,0
32496,note_on,,0,0,0,,,6,,62,0
32496,note_on,,0,0,0,,,7,,50,0
32496,note_on,,0,0,0,,,8,,38,0
32496,note_on,,0,0,0,,,1,,81,95
32496,note_on,,0,0,0,,,2,,78,95
32496,note_on,,0,0,0,,,3,,74,95
32496,note_on,,0,0,0,,,4,,50,95
32496,note_on,,0,0,0,,,5,,38,95
32496,note_on,,0,0,0,,,6,,62,95
32496,note_on,,0,0,0,,,7,,50,95
32522,note_on,,26,0,0,,,6,,62,0
32522,note_on,,0,0,0,,,7,,50,0
32522,note_on,,0,0,0,,,6,,64,95
32522,note_on,,0,0,0,,,7,,52,95
32549,note_on,,27,0,0,,,6,,64,0
32549,note_on,,0,0,0,,,7,,52,0
32549,note_on,,0,0,0,,,6,,66,95
32549,note_on,,0,0,0,,,7,,54,95
32576,note_on,,27,0,0,,,0,,86,0
32576,note_on,,0,0,0,,,0,,43,95
32576,note_on,,0,0,0,,,1,,81,0
32576,note_on,,0,0,0,,,2,,78,0
32576,note_on,,0,0,0,,,3,,74,0
32576,note_on,,0,0,0,,,4,,50,0
32576,note_on,,0,0,0,,,5,,38,0
32576,note_on,,0,0,0,,,6,,66,0
32576,note_on,,0,0,0,,,7,,54,0
32576,note_on,,0,0,0,,,1,,31,95
32576,note_on,,0,0,0,,,2,,67,95
32576,note_on,,0,0,0,,,3,,55,95
32576,note_on,,0,0,0,,,4,,43,95
32596,note_on,,20,0,0,,,0,,43,0
32596,note_on,,0,0,0,,,0,,57,95
32596,note_on,,0,0,0,,,1,,31,0
32596,note_on,,0,0,0,,,1,,45,95
32616,note_on,,20,0,0,,,0,,57,0
32616,note_on,,0,0,0,,,0,,43,95
32616,note_on,,0,0,0,,,1,,45,0
32616,note_on,,0,0,0,,,1,,31,95
32636,note_on,,20,0,0,,,0,,43,0
32636,note_on,,0,0,0,,,0,,57,95
32636,note_on,,0,0,0,,,1,,31,0
32636,note_on,,0,0,0,,,1,,45,95
32656,note_on,,20,0,0,,,2,,67,0
32656,note_on,,0,0,0,,,0,,47,95
32656,note_on,,0,0,0,,,3,,55,0
32656,note_on,,0,0,0,,,4,,43,0
32656,note_on,,0,0,0,,,0,,57,0
32656,note_on,,0,0,0,,,1,,45,0
32656,note_on,,0,0,0,,,1,,35,95
32656,note_on,,0,0,0,,,2,,79,95
32656,note_on,,0,0,0,,,3,,71,95
32656,note_on,,0,0,0,,,4,,67,95
32656,note_on,,0,0,0,,,5,,62,95
32656,note_on,,0,0,0,,,6,,59,95
32656,note_on,,0,0,0,,,7,,55,95
32676,note_on,,20,0,0,,,0,,47,0
32676,note_on,,0,0,0,,,0,,60,95
32676,note_on,,0,0,0,,,1,,35,0
32676,note_on,,0,0,0,,,1,,48,95
32696,note_on,,20,0,0,,,2,,79,0
32696,note_on,,0,0,0,,,0,,47,95
32696,note_on,,0,0,0,,,3,,71,0
32696,note_on,,0,0,0,,,4,,67,0
32696,note_on,,0,0,0,,,5,,62,0
32696,note_on,,0,0,0,,,6,,59,0
32696,note_on,,0,0,0,,,7,,55,0
32696,note_on,,0,0,0,,,0,,60,0
32696,note_on,,0,0,0,,,1,,48,0
32696,note_on,,0,0,0,,,1,,35,95
32696,note_on,,0,0,0,,,2,,79,95
32696,note_on,,0,0,0,,,3,,71,95
32696,note_on,,0,0,0,,,4,,67,95
32696,note_on,,0,0,0,,,5,,62,95
32696,note_on,,0,0,0,,,6,,59,95
32696,note_on,,0,0,0,,,7,,55,95
32716,note_on,,20,0,0,,,0,,47,0
32716,note_on,,0,0,0,,,0,,60,95
32716,note_on,,0,0,0,,,1,,35,0
32716,note_on,,0,0,0,,,1,,48,95
32736,note_on,,20,0,0,,,2,,79,0
32736,note_on,,0,0,0,,,0,,50,95
32736,note_on,,0,0,0,,,3,,71,0
32736,note_on,,0,0,0,,,4,,67,0
32736,note_on,,0,0,0,,,5,,62,0
32736,note_on,,0,0,0,,,6,,59,0
32736,note_on,,0,0,0,,,7,,55,0
32736,note_on,,0,0,0,,,0,,60,0
32736,note_on,,0,0,0,,,1,,48,0
32736,note_on,,0,0,0,,,1,,38,95
32736,note_on,,0,0,0,,,2,,79,95
32736,note_on,,0,0,0,,,3,,71,95
32736,note_on,,0,0,0,,,4,,67,95
32736,note_on,,0,0,0,,,5,,62,95
32736,note_on,,0,0,0,,,6,,59,95
32736,note_on,,0,0,0,,,7,,55,95
32756,note_on,,20,0,0,,,0,,50,0
32756,note_on,,0,0,0,,,0,,63,95
32756,note_on,,0,0,0,,,1,,38,0
32756,note_on,,0,0,0,,,1,,51,95
32776,note_on,,20,0,0,,,0,,63,0
32776,note_on,,0,0,0,,,0,,50,95
32776,note_on,,0,0,0,,,1,,51,0
32776,note_on,,0,0,0,,,1,,38,95
32796,note_on,,20,0,0,,,0,,50,0
32796,note_on,,0,0,0,,,0,,63,95
32796,note_on,,0,0,0,,,1,,38,0
32796,note_on,,0,0,0,,,1,,51,95
32816,note_on,,20,0,0,,,2,,79,0
32816,note_on,,0,0,0,,,0,,53,95
32816,note_on,,0,0,0,,,3,,71,0
32816,note_on,,0,0,0,,,4,,67,0
32816,note_on,,0,0,0,,,5,,62,0
32816,note_on,,0,0,0,,,6,,59,0
32816,note_on,,0,0,0,,,7,,55,0
32816,note_on,,0,0,0,,,0,,63,0
32816,note_on,,0,0,0,,,1,,51,0
32816,note_on,,0,0,0,,,1,,41,95
32816,note_on,,0,0,0,,,2,,79,95
32816,note_on,,0,0,0,,,3,,71,95
32816,note_on,,0,0,0,,,4,,67,95
32816,note_on,,0,0,0,,,5,,62,95
32816,note_on,,0,0,0,,,6,,59,95
32816,note_on,,0,0,0,,,7,,55,95
32836,note_on,,20,0,0,,,0,,53,0
32836,note_on,,0,0,0,,,0,,67,95
32836,note_on,,0,0,0,,,1,,41,0
32836,note_on,,0,0,0,,,1,,55,95
32856,note_on,,20,0,0,,,2,,79,0
32856,note_on,,0,0,0,,,0,,53,95
32856,note_on,,0,0,0,,,3,,71,0
32856,note_on,,0,0,0,,,4,,67,0
32856,note_on,,0,0,0,,,5,,62,0
32856,note_on,,0,0,0,,,6,,59,0
32856,note_on,,0,0,0,,,7,,55,0
32856,note_on,,0,0,0,,,0,,67,0
32856,note_on,,0,0,0,,,1,,55,0
32856,note_on,,0,0,0,,,1,,41,95
32856,note_on,,0,0,0,,,2,,79,95
32856,note_on,,0,0,0,,,3,,71,95
32856,note_on,,0,0,0,,,4,,67,95
32856,note_on,,0,0,0,,,5,,62,95
32856,note_on,,0,0,0,,,6,,59,95
32856,note_on,,0,0,0,,,7,,55,95
32876,note_on,,20,0,0,,,0,,53,0
32876,note_on,,0,0,0,,,0,,67,95
32876,note_on,,0,0,0,,,1,,41,0
32876,note_on,,0,0,0,,,1,,55,95
32896,note_on,,20,0,0,,,2,,79,0
32896,note_on,,0,0,0,,,0,,56,95
32896,note_on,,0,0,0,,,3,,71,0
32896,note_on,,0,0,0,,,4,,67,0
32896,note_on,,0,0,0,,,5,,62,0
32896,note_on,,0,0,0,,,6,,59,0
32896,note_on,,0,0,0,,,7,,55,0
32896,note_on,,0,0,0,,,0,,67,0
32896,note_on,,0,0,0,,,1,,55,0
32896,note_on,,0,0,0,,,1,,44,95
32896,note_on,,0,0,0,,,2,,79,95
32896,note_on,,0,0,0,,,3,,72,95
32896,note_on,,0,0,0,,,4,,67,95
32896,note_on,,0,0,0,,,5,,60,95
32896,note_on,,0,0,0,,,6,,56,95
32902,note_on,,6,0,0,,,1,,44,0
32902,note_on,,0,0,0,,,1,,43,95
32909,note_on,,7,0,0,,,0,,56,0
32909,note_on,,0,0,0,,,0,,55,95
32916,note_on,,7,0,0,,,1,,43,0
32916,note_on,,0,0,0,,,1,,44,95
32922,note_on,,6,0,0,,,0,,55,0
32922,note_on,,0,0,0,,,0,,56,95
32929,note_on,,7,0,0,,,1,,44,0
32929,note_on,,0,0,0,,,1,,43,95
32936,note_on,,7,0,0,,,0,,56,0
32936,note_on,,0,0,0,,,0,,55,95
32942,note_on,,6,0,0,,,1,,43,0
32942,note_on,,0,0,0,,,1,,44,95
32949,note_on,,7,0,0,,,0,,55,0
32949,note_on,,0,0,0,,,0,,56,95
32956,note_on,,7,0,0,,,1,,44,0
32956,note_on,,0,0,0,,,1,,43,95
32962,note_on,,6,0,0,,,0,,56,0
32962,note_on,,0,0,0,,,0,,55,95
32969,note_on,,7,0,0,,,1,,43,0
32969,note_on,,0,0,0,,,1,,44,95
32976,note_on,,7,0,0,,,2,,79,0
32976,note_on,,0,0,0,,,0,,56,95
32976,note_on,,0,0,0,,,3,,72,0
32976,note_on,,0,0,0,,,4,,67,0
32976,note_on,,0,0,0,,,5,,60,0
32976,note_on,,0,0,0,,,6,,56,0
32976,note_on,,0,0,0,,,0,,55,0
32976,note_on,,0,0,0,,,2,,77,95
32976,note_on,,0,0,0,,,3,,72,95
32976,note_on,,0,0,0,,,4,,65,95
32976,note_on,,0,0,0,,,5,,60,95
32976,note_on,,0,0,0,,,6,,56,95
32982,note_on,,6,0,0,,,1,,44,0
32982,note_on,,0,0,0,,,1,,43,95
32989,note_on,,7,0,0,,,0,,56,0
32989,note_on,,0,0,0,,,0,,55,95
32996,note_on,,7,0,0,,,1,,43,0
32996,note_on,,0,0,0,,,1,,44,95
33002,note_on,,6,0,0,,,0,,55,0
33002,note_on,,0,0,0,,,0,,56,95
33009,note_on,,7,0,0,,,1,,44,0
33009,note_on,,0,0,0,,,1,,43,95
33016,note_on,,7,0,0,,,0,,56,0
33016,note_on,,0,0,0,,,0,,55,95
33022,note_on,,6,0,0,,,1,,43,0
33022,note_on,,0,0,0,,,1,,44,95
33029,note_on,,7,0,0,,,0,,55,0
33029,note_on,,0,0,0,,,0,,56,95
33036,note_on,,7,0,0,,,1,,44,0
33036,note_on,,0,0,0,,,1,,43,95
33042,note_on,,6,0,0,,,0,,56,0
33042,note_on,,0,0,0,,,0,,55,95
33049,note_on,,7,0,0,,,1,,43,0
33049,note_on,,0,0,0,,,1,,44,95
33056,note_on,,7,0,0,,,2,,77,0
33056,note_on,,0,0,0,,,0,,44,95
33056,note_on,,0,0,0,,,3,,72,0
33056,note_on,,0,0,0,,,4,,65,0
33056,note_on,,0,0,0,,,5,,60,0
33056,note_on,,0,0,0,,,6,,56,0
33056,note_on,,0,0,0,,,0,,55,0
33056,note_on,,0,0,0,,,1,,44,0
33056,note_on,,0,0,0,,,1,,32,95
33056,note_on,,0,0,0,,,2,,89,95
33056,note_on,,0,0,0,,,3,,84,95
33056,note_on,,0,0,0,,,4,,80,95
33056,note_on,,0,0,0,,,5,,77,95
33056,note_on,,0,0,0,,,6,,56,95
33056,note_on,,0,0,0,,,7,,53,95
33056,note_on,,0,0,0,,,8,,48,95
33062,note_on,,6,0,0,,,1,,32,0
33062,note_on,,0,0,0,,,1,,31,95
33069,note_on,,7,0,0,,,0,,44,0
33069,note_on,,0,0,0,,,0,,43,95
33076,note_on,,7,0,0,,,1,,31,0
33076,note_on,,0,0,0,,,1,,32,95
33082,note_on,,6,0,0,,,0,,43,0
33082,note_on,,0,0,0,,,0,,44,95
33089,note_on,,7,0,0,,,1,,32,0
33089,note_on,,0,0,0,,,1,,31,95
33096,note_on,,7,0,0,,,2,,89,0
33096,note_on,,0,0,0,,,0,,43,95
33096,note_on,,0,0,0,,,3,,84,0
33096,note_on,,0,0,0,,,4,,80,0
33096,note_on,,0,0,0,,,5,,77,0
33096,note_on,,0,0,0,,,6,,56,0
33096,note_on,,0,0,0,,,7,,53,0
33096,note_on,,0,0,0,,,8,,48,0
33096,note_on,,0,0,0,,,0,,44,0
33102,note_on,,6,0,0,,,1,,31,0
33102,note_on,,0,0,0,,,1,,32,95
33109,note_on,,7,0,0,,,0,,43,0
33109,note_on,,0,0,0,,,0,,44,95
33116,note_on,,7,0,0,,,1,,32,0
33116,note_on,,0,0,0,,,1,,31,95
33122,note_on,,6,0,0,,,0,,44,0
33122,note_on,,0,0,0,,,0,,43,95
33129,note_on,,7,0,0,,,1,,31,0
33129,note_on,,0,0,0,,,1,,32,95
33136,note_on,,7,0,0,,,0,,43,0
33136,note_on,,0,0,0,,,0,,44,95
33136,note_on,,0,0,0,,,2,,65,95
33136,note_on,,0,0,0,,,4,,60,95
33136,note_on,,0,0,0,,,5,,56,95
33142,note_on,,6,0,0,,,1,,32,0
33142,note_on,,0,0,0,,,1,,31,95
33149,note_on,,7,0,0,,,0,,44,0
33149,note_on,,0,0,0,,,0,,43,95
33156,note_on,,7,0,0,,,1,,31,0
33156,note_on,,0,0,0,,,1,,32,95
33162,note_on,,6,0,0,,,2,,65,0
33162,note_on,,0,0,0,,,0,,44,95
33162,note_on,,0,0,0,,,4,,60,0
33162,note_on,,0,0,0,,,5,,56,0
33162,note_on,,0,0,0,,,0,,43,0
33162,note_on,,0,0,0,,,2,,68,95
33162,note_on,,0,0,0,,,3,,65,95
33162,note_on,,0,0,0,,,4,,60,95
33162,note_on,,0,0,0,,,5,,56,95
33169,note_on,,7,0,0,,,1,,32,0
33169,note_on,,0,0,0,,,1,,31,95
33176,note_on,,7,0,0,,,0,,44,0
33176,note_on,,0,0,0,,,0,,43,95
33182,note_on,,6,0,0,,,1,,31,0
33182,note_on,,0,0,0,,,1,,32,95
33189,note_on,,7,0,0,,,2,,68,0
33189,note_on,,0,0,0,,,0,,44,95
33189,note_on,,0,0,0,,,3,,65,0
33189,note_on,,0,0,0,,,4,,60,0
33189,note_on,,0,0,0,,,5,,56,0
33189,note_on,,0,0,0,,,0,,43,0
33189,note_on,,0,0,0,,,2,,72,95
33189,note_on,,0,0,0,,,3,,65,95
33189,note_on,,0,0,0,,,4,,60,95
33189,note_on,,0,0,0,,,5,,56,95
33196,note_on,,7,0,0,,,1,,32,0
33196,note_on,,0,0,0,,,1,,31,95
33202,note_on,,6,0,0,,,0,,44,0
33202,note_on,,0,0,0,,,0,,43,95
33209,note_on,,7,0,0,,,1,,31,0
33209,note_on,,0,0,0,,,1,,32,95
33216,note_on,,7,0,0,,,2,,72,0
33216,note_on,,0,0,0,,,0,,41,95
33216,note_on,,0,0,0,,,3,,65,0
33216,note_on,,0,0,0,,,4,,60,0
33216,note_on,,0,0,0,,,5,,56,0
33216,note_on,,0,0,0,,,0,,43,0
33216,note_on,,0,0,0,,,1,,32,0
33216,note_on,,0,0,0,,,1,,29,95
33216,note_on,,0,0,0,,,2,,77,95
33216,note_on,,0,0,0,,,3,,72,95
33216,note_on,,0,0,0,,,4,,68,95
33216,note_on,,0,0,0,,,5,,65,95
33216,note_on,,0,0,0,,,6,,60,95
33216,note_on,,0,0,0,,,7,,56,95
33216,note_on,,0,0,0,,,8,,53,95
33236,note_on,,20,0,0,,,0,,41,0
33236,note_on,,0,0,0,,,0,,55,95
33236,note_on,,0,0,0,,,1,,29,0
33236,note_on,,0,0,0,,,1,,43,95
33256,note_on,,20,0,0,,,0,,55,0
33256,note_on,,0,0,0,,,0,,41,95
33256,note_on,,0,0,0,,,1,,43,0
33256,note_on,,0,0,0,,,1,,29,95
33276,note_on,,20,0,0,,,0,,41,0
33276,note_on,,0,0,0,,,0,,55,95
33276,note_on,,0,0,0,,,1,,29,0
33276,note_on,,0,0,0,,,1,,43,95
33296,note_on,,20,0,0,,,2,,77,0
33296,note_on,,0,0,0,,,0,,44,95
33296,note_on,,0,0,0,,,3,,72,0
33296,note_on,,0,0,0,,,4,,68,0
33296,note_on,,0,0,0,,,5,,65,0
33296,note_on,,0,0,0,,,6,,60,0
33296,note_on,,0,0,0,,,7,,56,0
33296,note_on,,0,0,0,,,8,,53,0
33296,note_on,,0,0,0,,,0,,55,0
33296,note_on,,0,0,0,,,1,,43,0
33296,note_on,,0,0,0,,,1,,32,95
33296,note_on,,0,0,0,,,2,,77,95
33296,note_on,,0,0,0,,,3,,72,95
33296,note_on,,0,0,0,,,4,,68,95
33296,note_on,,0,0,0,,,5,,65,95
33296,note_on,,0,0,0,,,6,,60,95
33296,note_on,,0,0,0,,,7,,56,95
33296,note_on,,0,0,0,,,8,,53,95
33316,note_on,,20,0,0,,,0,,44,0
33316,note_on,,0,0,0,,,0,,58,95
33316,note_on,,0,0,0,,,1,,32,0
33316,note_on,,0,0,0,,,1,,46,95
33336,note_on,,20,0,0,,,2,,77,0
33336,note_on,,0,0,0,,,0,,44,95
33336,note_on,,0,0,0,,,3,,72,0
33336,note_on,,0,0,0,,,4,,68,0
33336,note_on,,0,0,0,,,5,,65,0
33336,note_on,,0,0,0,,,6,,60,0
33336,note_on,,0,0,0,,,7,,56,0
33336,note_on,,0,0,0,,,8,,53,0
33336,note_on,,0,0,0,,,0,,58,0
33336,note_on,,0,0,0,,,1,,46,0
33336,note_on,,0,0,0,,,1,,32,95
33336,note_on,,0,0,0,,,2,,77,95
33336,note_on,,0,0,0,,,3,,72,95
33336,note_on,,0,0,0,,,4,,68,95
33336,note_on,,0,0,0,,,5,,65,95
33336,note_on,,0,0,0,,,6,,60,95
33336,note_on,,0,0,0,,,7,,56,95
33336,note_on,,0,0,0,,,8,,53,95
33356,note_on,,20,0,0,,,0,,44,0
33356,note_on,,0,0,0,,,0,,58,95
33356,note_on,,0,0,0,,,1,,32,0
33356,note_on,,0,0,0,,,1,,46,95
33376,note_on,,20,0,0,,,2,,77,0
33376,note_on,,0,0,0,,,0,,48,95
33376,note_on,,0,0,0,,,3,,72,0
33376,note_on,,0,0,0,,,4,,68,0
33376,note_on,,0,0,0,,,5,,65,0
33376,note_on,,0,0,0,,,6,,60,0
33376,note_on,,0,0,0,,,7,,56,0
33376,note_on,,0,0,0,,,8,,53,0
33376,note_on,,0,0,0,,,0,,58,0
33376,note_on,,0,0,0,,,1,,46,0
33376,note_on,,0,0,0,,,1,,36,95
33376,note_on,,0,0,0,,,2,,77,95
33376,note_on,,0,0,0,,,3,,72,95
33376,note_on,,0,0,0,,,4,,68,95
33376,note_on,,0,0,0,,,5,,65,95
33376,note_on,,0,0,0,,,6,,60,95
33376,note_on,,0,0,0,,,7,,56,95
33376,note_on,,0,0,0,,,8,,53,95
33396,note_on,,20,0,0,,,0,,48,0
33396,note_on,,0,0,0,,,0,,62,95
33396,note_on,,0,0,0,,,1,,36,0
33396,note_on,,0,0,0,,,1,,50,95
33416,note_on,,20,0,0,,,0,,62,0
33416,note_on,,0,0,0,,,0,,48,95
33416,note_on,,0,0,0,,,1,,50,0
33416,note_on,,0,0,0,,,1,,36,95
33436,note_on,,20,0,0,,,0,,48,0
33436,note_on,,0,0,0,,,0,,62,95
33436,note_on,,0,0,0,,,1,,36,0
33436,note_on,,0,0,0,,,1,,50,95
33456,note_on,,20,0,0,,,2,,77,0
33456,note_on,,0,0,0,,,0,,52,95
33456,note_on,,0,0,0,,,3,,72,0
33456,note_on,,0,0,0,,,4,,68,0
33456,note_on,,0,0,0,,,5,,65,0
33456,note_on,,0,0,0,,,6,,60,0
33456,note_on,,0,0,0,,,7,,56,0
33456,note_on,,0,0,0,,,8,,53,0
33456,note_on,,0,0,0,,,0,,62,0
33456,note_on,,0,0,0,,,1,,50,0
33456,note_on,,0,0,0,,,1,,40,95
33456,note_on,,0,0,0,,,2,,77,95
33456,note_on,,0,0,0,,,3,,72,95
33456,note_on,,0,0,0,,,4,,68,95
33456,note_on,,0,0,0,,,5,,65,95
33456,note_on,,0,0,0,,,6,,60,95
33456,note_on,,0,0,0,,,7,,56,95
33456,note_on,,0,0,0,,,8,,53,95
33476,note_on,,20,0,0,,,0,,52,0
33476,note_on,,0,0,0,,,0,,65,95
33476,note_on,,0,0,0,,,1,,40,0
33476,note_on,,0,0,0,,,1,,53,95
33496,note_on,,20,0,0,,,2,,77,0
33496,note_on,,0,0,0,,,0,,52,95
33496,note_on,,0,0,0,,,3,,72,0
33496,note_on,,0,0,0,,,4,,68,0
33496,note_on,,0,0,0,,,5,,65,0
33496,note_on,,0,0,0,,,6,,60,0
33496,note_on,,0,0,0,,,7,,56,0
33496,note_on,,0,0,0,,,8,,53,0
33496,note_on,,0,0,0,,,0,,65,0
33496,note_on,,0,0,0,,,1,,53,0
33496,note_on,,0,0,0,,,1,,40,95
33496,note_on,,0,0,0,,,2,,77,95
33496,note_on,,0,0,0,,,3,,72,95
33496,note_on,,0,0,0,,,4,,68,95
33496,note_on,,0,0,0,,,5,,65,95
33496,note_on,,0,0,0,,,6,,60,95
33496,note_on,,0,0,0,,,7,,56,95
33496,note_on,,0,0,0,,,8,,53,95
33516,note_on,,20,0,0,,,0,,52,0
33516,note_on,,0,0,0,,,0,,65,95
33516,note_on,,0,0,0,,,1,,40,0
33516,note_on,,0,0,0,,,1,,53,95
33536,note_on,,20,0,0,,,2,,77,0
33536,note_on,,0,0,0,,,0,,55,95
33536,note_on,,0,0,0,,,3,,72,0
33536,note_on,,0,0,0,,,4,,68,0
33536,note_on,,0,0,0,,,5,,65,0
33536,note_on,,0,0,0,,,6,,60,0
33536,note_on,,0,0,0,,,7,,56,0
33536,note_on,,0,0,0,,,8,,53,0
33536,note_on,,0,0,0,,,0,,65,0
33536,note_on,,0,0,0,,,1,,53,0
33536,note_on,,0,0,0,,,1,,43,95
33536,note_on,,0,0,0,,,2,,77,95
33536,note_on,,0,0,0,,,3,,70,95
33536,note_on,,0,0,0,,,4,,65,95
33536,note_on,,0,0,0,,,5,,58,95
33536,note_on,,0,0,0,,,6,,55,95
33542,note_on,,6,0,0,,,1,,43,0
33542,note_on,,0,0,0,,,1,,42,95
33549,note_on,,7,0,0,,,0,,55,0
33549,note_on,,0,0,0,,,0,,54,95
33556,note_on,,7,0,0,,,1,,42,0
33556,note_on,,0,0,0,,,1,,43,95
33562,note_on,,6,0,0,,,0,,54,0
33562,note_on,,0,0,0,,,0,,55,95
33569,note_on,,7,0,0,,,1,,43,0
33569,note_on,,0,0,0,,,1,,42,95
33576,note_on,,7,0,0,,,0,,55,0
33576,note_on,,0,0,0,,,0,,54,95
33582,note_on,,6,0,0,,,1,,42,0
33582,note_on,,0,0,0,,,1,,43,95
33589,note_on,,7,0,0,,,0,,54,0
33589,note_on,,0,0,0,,,0,,55,95
33596,note_on,,7,0,0,,,1,,43,0
33596,note_on,,0,0,0,,,1,,42,95
33602,note_on,,6,0,0,,,0,,55,0
33602,note_on,,0,0,0,,,0,,54,95
33609,note_on,,7,0,0,,,1,,42,0
33609,note_on,,0,0,0,,,1,,43,95
33616,note_on,,7,0,0,,,2,,77,0
33616,note_on,,0,0,0,,,0,,55,95
33616,note_on,,0,0,0,,,3,,70,0
33616,note_on,,0,0,0,,,4,,65,0
33616,note_on,,0,0,0,,,5,,58,0
33616,note_on,,0,0,0,,,6,,55,0
33616,note_on,,0,0,0,,,0,,54,0
33616,note_on,,0,0,0,,,2,,75,95
33616,note_on,,0,0,0,,,3,,70,95
33616,note_on,,0,0,0,,,4,,63,95
33616,note_on,,0,0,0,,,5,,58,95
33616,note_on,,0,0,0,,,6,,55,95
33622,note_on,,6,0,0,,,1,,43,0
33622,note_on,,0,0,0,,,1,,42,95
33629,note_on,,7,0,0,,,0,,55,0
33629,note_on,,0,0,0,,,0,,54,95
33636,note_on,,7,0,0,,,1,,42,0
33636,note_on,,0,0,0,,,1,,43,95
33642,note_on,,6,0,0,,,0,,54,0
33642,note_on,,0,0,0,,,0,,55,95
33649,note_on,,7,0,0,,,1,,43,0
33649,note_on,,0,0,0,,,1,,42,95
33656,note_on,,7,0,0,,,0,,55,0
33656,note_on,,0,0,0,,,0,,54,95
33662,note_on,,6,0,0,,,1,,42,0
33662,note_on,,0,0,0,,,1,,43,95
33669,note_on,,7,0,0,,,0,,54,0
33669,note_on,,0,0,0,,,0,,55,95
33676,note_on,,7,0,0,,,1,,43,0
33676,note_on,,0,0,0,,,1,,42,95
33682,note_on,,6,0,0,,,0,,55,0
33682,note_on,,0,0,0,,,0,,54,95
33689,note_on,,7,0,0,,,1,,42,0
33689,note_on,,0,0,0,,,1,,43,95
33696,note_on,,7,0,0,,,2,,75,0
33696,note_on,,0,0,0,,,0,,43,95
33696,note_on,,0,0,0,,,3,,70,0
33696,note_on,,0,0,0,,,4,,63,0
33696,note_on,,0,0,0,,,5,,58,0
33696,note_on,,0,0,0,,,6,,55,0
33696,note_on,,0,0,0,,,0,,54,0
33696,note_on,,0,0,0,,,1,,43,0
33696,note_on,,0,0,0,,,1,,31,95
33696,note_on,,0,0,0,,,2,,87,95
33696,note_on,,0,0,0,,,3,,82,95
33696,note_on,,0,0,0,,,4,,79,95
33696,note_on,,0,0,0,,,5,,55,95
33696,note_on,,0,0,0,,,6,,51,95
33696,note_on,,0,0,0,,,7,,46,95
33696,note_on,,0,0,0,,,8,,43,95
33702,note_on,,6,0,0,,,1,,31,0
33702,note_on,,0,0,0,,,1,,30,95
33709,note_on,,7,0,0,,,0,,43,0
33709,note_on,,0,0,0,,,0,,42,95
33716,note_on,,7,0,0,,,1,,30,0
33716,note_on,,0,0,0,,,1,,31,95
33722,note_on,,6,0,0,,,0,,42,0
33722,note_on,,0,0,0,,,0,,43,95
33729,note_on,,7,0,0,,,1,,31,0
33729,note_on,,0,0,0,,,1,,30,95
33736,note_on,,7,0,0,,,2,,87,0
33736,note_on,,0,0,0,,,0,,42,95
33736,note_on,,0,0,0,,,3,,82,0
33736,note_on,,0,0,0,,,4,,79,0
33736,note_on,,0,0,0,,,5,,55,0
33736,note_on,,0,0,0,,,0,,43,0
33742,note_on,,6,0,0,,,1,,30,0
33742,note_on,,0,0,0,,,1,,31,95
33749,note_on,,7,0,0,,,0,,42,0
33749,note_on,,0,0,0,,,0,,43,95
33756,note_on,,7,0,0,,,1,,31,0
33756,note_on,,0,0,0,,,1,,30,95
33762,note_on,,6,0,0,,,0,,43,0
33762,note_on,,0,0,0,,,0,,42,95
33769,note_on,,7,0,0,,,1,,30,0
33769,note_on,,0,0,0,,,1,,31,95
33776,note_on,,7,0,0,,,6,,51,0
33776,note_on,,0,0,0,,,0,,43,95
33776,note_on,,0,0,0,,,7,,46,0
33776,note_on,,0,0,0,,,8,,43,0
33776,note_on,,0,0,0,,,0,,42,0
33776,note_on,,0,0,0,,,2,,63,95
33776,note_on,,0,0,0,,,4,,58,95
33776,note_on,,0,0,0,,,5,,55,95
33782,note_on,,6,0,0,,,1,,31,0
33782,note_on,,0,0,0,,,1,,30,95
33789,note_on,,7,0,0,,,0,,43,0
33789,note_on,,0,0,0,,,0,,42,95
33795,note_on,,6,0,0,,,1,,30,0
33795,note_on,,0,0,0,,,1,,31,95
33802,note_on,,7,0,0,,,2,,63,0
33802,note_on,,0,0,0,,,0,,43,95
33802,note_on,,0,0,0,,,4,,58,0
33802,note_on,,0,0,0,,,5,,55,0
33802,note_on,,0,0,0,,,0,,42,0
33802,note_on,,0,0,0,,,2,,67,95
33802,note_on,,0,0,0,,,3,,63,95
33802,note_on,,0,0,0,,,4,,58,95
33802,note_on,,0,0,0,,,5,,55,95
33809,note_on,,7,0,0,,,1,,31,0
33809,note_on,,0,0,0,,,1,,30,95
33815,note_on,,6,0,0,,,0,,43,0
33815,note_on,,0,0,0,,,0,,42,95
33822,note_on,,7,0,0,,,1,,30,0
33822,note_on,,0,0,0,,,1,,31,95
33829,note_on,,7,0,0,,,2,,67,0
33829,note_on,,0,0,0,,,0,,43,95
33829,note_on,,0,0,0,,,3,,63,0
33829,note_on,,0,0,0,,,4,,58,0
33829,note_on,,0,0,0,,,5,,55,0
33829,note_on,,0,0,0,,,0,,42,0
33829,note_on,,0,0,0,,,2,,70,95
33829,note_on,,0,0,0,,,3,,63,95
33829,note_on,,0,0,0,,,4,,58,95
33829,note_on,,0,0,0,,,5,,55,95
33835,note_on,,6,0,0,,,1,,31,0
33835,note_on,,0,0,0,,,1,,30,95
33842,note_on,,7,0,0,,,0,,43,0
33842,note_on,,0,0,0,,,0,,42,95
33849,note_on,,7,0,0,,,1,,30,0
33849,note_on,,0,0,0,,,1,,31,95
33855,note_on,,6,0,0,,,2,,70,0
33855,note_on,,0,0,0,,,0,,39,95
33855,note_on,,0,0,0,,,3,,63,0
33855,note_on,,0,0,0,,,4,,58,0
33855,note_on,,0,0,0,,,5,,55,0
33855,note_on,,0,0,0,,,0,,42,0
33855,note_on,,0,0,0,,,1,,31,0
33855,note_on,,0,0,0,,,1,,27,95
33855,note_on,,0,0,0,,,2,,75,95
33855,note_on,,0,0,0,,,3,,70,95
33855,note_on,,0,0,0,,,4,,67,95
33855,note_on,,0,0,0,,,5,,63,95
33855,note_on,,0,0,0,,,6,,58,95
33855,note_on,,0,0,0,,,7,,55,95
33855,note_on,,0,0,0,,,8,,51,95
33875,note_on,,20,0,0,,,0,,39,0
33875,note_on,,0,0,0,,,0,,53,95
33875,note_on,,0,0,0,,,1,,27,0
33875,note_on,,0,0,0,,,1,,41,95
33895,note_on,,20,0,0,,,0,,53,0
33895,note_on,,0,0,0,,,0,,39,95
33895,note_on,,0,0,0,,,1,,41,0
33895,note_on,,0,0,0,,,1,,27,95
33915,note_on,,20,0,0,,,0,,39,0
33915,note_on,,0,0,0,,,0,,53,95
33915,note_on,,0,0,0,,,1,,27,0
33915,note_on,,0,0,0,,,1,,41,95
33935,note_on,,20,0,0,,,2,,75,0
33935,note_on,,0,0,0,,,0,,43,95
33935,note_on,,0,0,0,,,3,,70,0
33935,note_on,,0,0,0,,,4,,67,0
33935,note_on,,0,0,0,,,5,,63,0
33935,note_on,,0,0,0,,,6,,58,0
33935,note_on,,0,0,0,,,7,,55,0
33935,note_on,,0,0,0,,,8,,51,0
33935,note_on,,0,0,0,,,0,,53,0
33935,note_on,,0,0,0,,,1,,41,0
33935,note_on,,0,0,0,,,1,,31,95
33935,note_on,,0,0,0,,,2,,75,95
33935,note_on,,0,0,0,,,3,,70,95
33935,note_on,,0,0,0,,,4,,67,95
33935,note_on,,0,0,0,,,5,,63,95
33935,note_on,,0,0,0,,,6,,58,95
33935,note_on,,0,0,0,,,7,,55,95
33935,note_on,,0,0,0,,,8,,51,95
33955,note_on,,20,0,0,,,0,,43,0
33955,note_on,,0,0,0,,,0,,56,95
33955,note_on,,0,0,0,,,1,,31,0
33955,note_on,,0,0,0,,,1,,44,95
33975,note_on,,20,0,0,,,2,,75,0
33975,note_on,,0,0,0,,,0,,43,95
33975,note_on,,0,0,0,,,3,,70,0
33975,note_on,,0,0,0,,,4,,67,0
33975,note_on,,0,0,0,,,5,,63,0
33975,note_on,,0,0,0,,,6,,58,0
33975,note_on,,0,0,0,,,7,,55,0
33975,note_on,,0,0,0,,,8,,51,0
33975,note_on,,0,0,0,,,0,,56,0
33975,note_on,,0,0,0,,,1,,44,0
33975,note_on,,0,0,0,,,1,,31,95
33975,note_on,,0,0,0,,,2,,75,95
33975,note_on,,0,0,0,,,3,,70,95
33975,note_on,,0,0,0,,,4,,67,95
33975,note_on,,0,0,0,,,5,,63,95
33975,note_on,,0,0,0,,,6,,58,95
33975,note_on,,0,0,0,,,7,,55,95
33975,note_on,,0,0,0,,,8,,51,95
33995,note_on,,20,0,0,,,0,,43,0
33995,note_on,,0,0,0,,,0,,56,95
33995,note_on,,0,0,0,,,1,,31,0
33995,note_on,,0,0,0,,,1,,44,95
34015,note_on,,20,0,0,,,2,,75,0
34015,note_on,,0,0,0,,,0,,46,95
34015,note_on,,0,0,0,,,3,,70,0
34015,note_on,,0,0,0,,,4,,67,0
34015,note_on,,0,0,0,,,5,,63,0
34015,note_on,,0,0,0,,,6,,58,0
34015,note_on,,0,0,0,,,7,,55,0
34015,note_on,,0,0,0,,,8,,51,0
34015,note_on,,0,0,0,,,0,,56,0
34015,note_on,,0,0,0,,,1,,44,0
34015,note_on,,0,0,0,,,1,,34,95
34015,note_on,,0,0,0,,,2,,75,95
34015,note_on,,0,0,0,,,3,,70,95
34015,note_on,,0,0,0,,,4,,67,95
34015,note_on,,0,0,0,,,5,,63,95
34015,note_on,,0,0,0,,,6,,58,95
34015,note_on,,0,0,0,,,7,,55,95
34015,note_on,,0,0,0,,,8,,51,95
34035,note_on,,20,0,0,,,0,,46,0
34035,note_on,,0,0,0,,,0,,60,95
34035,note_on,,0,0,0,,,1,,34,0
34035,note_on,,0,0,0,,,1,,48,95
34055,note_on,,20,0,0,,,0,,60,0
34055,note_on,,0,0,0,,,0,,46,95
34055,note_on,,0,0,0,,,1,,48,0
34055,note_on,,0,0,0,,,1,,34,95
34075,note_on,,20,0,0,,,0,,46,0
34075,note_on,,0,0,0,,,0,,60,95
34075,note_on,,0,0,0,,,1,,34,0
34075,note_on,,0,0,0,,,1,,48,95
34095,note_on,,20,0,0,,,2,,75,0
34095,note_on,,0,0,0,,,0,,50,95
34095,note_on,,0,0,0,,,3,,70,0
34095,note_on,,0,0,0,,,4,,67,0
34095,note_on,,0,0,0,,,5,,63,0
34095,note_on,,0,0,0,,,6,,58,0
34095,note_on,,0,0,0,,,7,,55,0
34095,note_on,,0,0,0,,,8,,51,0
34095,note_on,,0,0,0,,,0,,60,0
34095,note_on,,0,0,0,,,1,,48,0
34095,note_on,,0,0,0,,,1,,38,95
34095,note_on,,0,0,0,,,2,,75,95
34095,note_on,,0,0,0,,,3,,70,95
34095,note_on,,0,0,0,,,4,,67,95
34095,note_on,,0,0,0,,,5,,63,95
34095,note_on,,0,0,0,,,6,,58,95
34095,note_on,,0,0,0,,,7,,55,95
34095,note_on,,0,0,0,,,8,,51,95
34115,note_on,,20,0,0,,,0,,50,0
34115,note_on,,0,0,0,,,0,,63,95
34115,note_on,,0,0,0,,,1,,38,0
34115,note_on,,0,0,0,,,1,,51,95
34135,note_on,,20,0,0,,,2,,75,0
34135,note_on,,0,0,0,,,0,,50,95
34135,note_on,,0,0,0,,,3,,70,0
34135,note_on,,0,0,0,,,4,,67,0
34135,note_on,,0,0,0,,,5,,63,0
34135,note_on,,0,0,0,,,6,,58,0
34135,note_on,,0,0,0,,,7,,55,0
34135,note_on,,0,0,0,,,8,,51,0
34135,note_on,,0,0,0,,,0,,63,0
34135,note_on,,0,0,0,,,1,,51,0
34135,note_on,,0,0,0,,,1,,38,95
34135,note_on,,0,0,0,,,2,,75,95
34135,note_on,,0,0,0,,,3,,70,95
34135,note_on,,0,0,0,,,4,,67,95
34135,note_on,,0,0,0,,,5,,63,95
34135,note_on,,0,0,0,,,6,,58,95
34135,note_on,,0,0,0,,,7,,55,95
34135,note_on,,0,0,0,,,8,,51,95
34155,note_on,,20,0,0,,,0,,50,0
34155,note_on,,0,0,0,,,0,,63,95
34155,note_on,,0,0,0,,,1,,38,0
34155,note_on,,0,0,0,,,1,,51,95
34175,note_on,,20,0,0,,,2,,75,0
34175,note_on,,0,0,0,,,0,,53,95
34175,note_on,,0,0,0,,,3,,70,0
34175,note_on,,0,0,0,,,4,,67,0
34175,note_on,,0,0,0,,,5,,63,0
34175,note_on,,0,0,0,,,6,,58,0
34175,note_on,,0,0,0,,,7,,55,0
34175,note_on,,0,0,0,,,8,,51,0
34175,note_on,,0,0,0,,,0,,63,0
34175,note_on,,0,0,0,,,1,,51,0
34175,note_on,,0,0,0,,,1,,41,95
34175,note_on,,0,0,0,,,2,,75,95
34175,note_on,,0,0,0,,,3,,68,95
34175,note_on,,0,0,0,,,4,,63,95
34175,note_on,,0,0,0,,,5,,56,95
34182,note_on,,7,0,0,,,1,,41,0
34182,note_on,,0,0,0,,,1,,41,95
34189,note_on,,7,0,0,,,0,,53,0
34189,note_on,,0,0,0,,,0,,53,95
34195,note_on,,6,0,0,,,1,,41,0
34195,note_on,,0,0,0,,,1,,41,95
34202,note_on,,7,0,0,,,0,,53,0
34202,note_on,,0,0,0,,,0,,53,95
34209,note_on,,7,0,0,,,1,,41,0
34209,note_on,,0,0,0,,,1,,41,95
34215,note_on,,6,0,0,,,0,,53,0
34215,note_on,,0,0,0,,,0,,53,95
34222,note_on,,7,0,0,,,1,,41,0
34222,note_on,,0,0,0,,,1,,41,95
34229,note_on,,7,0,0,,,0,,53,0
34229,note_on,,0,0,0,,,0,,53,95
34235,note_on,,6,0,0,,,1,,41,0
34235,note_on,,0,0,0,,,1,,41,95
34242,note_on,,7,0,0,,,0,,53,0
34242,note_on,,0,0,0,,,0,,53,95
34249,note_on,,7,0,0,,,1,,41,0
34249,note_on,,0,0,0,,,1,,41,95
34255,note_on,,6,0,0,,,2,,75,0
34255,note_on,,0,0,0,,,0,,53,95
34255,note_on,,0,0,0,,,3,,68,0
34255,note_on,,0,0,0,,,4,,63,0
34255,note_on,,0,0,0,,,5,,56,0
34255,note_on,,0,0,0,,,0,,53,0
34255,note_on,,0,0,0,,,2,,73,95
34255,note_on,,0,0,0,,,3,,68,95
34255,note_on,,0,0,0,,,4,,61,95
34255,note_on,,0,0,0,,,5,,56,95
34262,note_on,,7,0,0,,,1,,41,0
34262,note_on,,0,0,0,,,1,,41,95
34269,note_on,,7,0,0,,,0,,53,0
34269,note_on,,0,0,0,,,0,,53,95
34275,note_on,,6,0,0,,,1,,41,0
34275,note_on,,0,0,0,,,1,,41,95
34282,note_on,,7,0,0,,,0,,53,0
34282,note_on,,0,0,0,,,0,,53,95
34289,note_on,,7,0,0,,,1,,41,0
34289,note_on,,0,0,0,,,1,,41,95
34295,note_on,,6,0,0,,,0,,53,0
34295,note_on,,0,0,0,,,0,,53,95
34302,note_on,,7,0,0,,,1,,41,0
34302,note_on,,0,0,0,,,1,,41,95
34309,note_on,,7,0,0,,,0,,53,0
34309,note_on,,0,0,0,,,0,,53,95
34315,note_on,,6,0,0,,,1,,41,0
34315,note_on,,0,0,0,,,1,,41,95
34322,note_on,,7,0,0,,,0,,53,0
34322,note_on,,0,0,0,,,0,,53,95
34329,note_on,,7,0,0,,,1,,41,0
34329,note_on,,0,0,0,,,1,,41,95
34335,note_on,,6,0,0,,,2,,73,0
34335,note_on,,0,0,0,,,0,,41,95
34335,note_on,,0,0,0,,,3,,68,0
34335,note_on,,0,0,0,,,4,,61,0
34335,note_on,,0,0,0,,,5,,56,0
34335,note_on,,0,0,0,,,0,,53,0
34335,note_on,,0,0,0,,,1,,41,0
34335,note_on,,0,0,0,,,1,,29,95
34335,note_on,,0,0,0,,,2,,85,95
34335,note_on,,0,0,0,,,3,,80,95
34335,note_on,,0,0,0,,,4,,77,95
34335,note_on,,0,0,0,,,5,,73,95
34335,note_on,,0,0,0,,,6,,65,95
34335,note_on,,0,0,0,,,7,,61,95
34335,note_on,,0,0,0,,,8,,56,95
34342,note_on,,7,0,0,,,1,,29,0
34342,note_on,,0,0,0,,,1,,29,95
34349,note_on,,7,0,0,,,0,,41,0
34349,note_on,,0,0,0,,,0,,41,95
34355,note_on,,6,0,0,,,1,,29,0
34355,note_on,,0,0,0,,,1,,29,95
34362,note_on,,7,0,0,,,0,,41,0
34362,note_on,,0,0,0,,,0,,41,95
34369,note_on,,7,0,0,,,1,,29,0
34369,note_on,,0,0,0,,,1,,29,95
34375,note_on,,6,0,0,,,2,,85,0
34375,note_on,,0,0,0,,,0,,41,95
34375,note_on,,0,0,0,,,3,,80,0
34375,note_on,,0,0,0,,,4,,77,0
34375,note_on,,0,0,0,,,5,,73,0
34375,note_on,,0,0,0,,,6,,65,0
34375,note_on,,0,0,0,,,7,,61,0
34375,note_on,,0,0,0,,,8,,56,0
34375,note_on,,0,0,0,,,0,,41,0
34382,note_on,,7,0,0,,,1,,29,0
34382,note_on,,0,0,0,,,1,,29,95
34389,note_on,,7,0,0,,,0,,41,0
34389,note_on,,0,0,0,,,0,,41,95
34395,note_on,,6,0,0,,,1,,29,0
34395,note_on,,0,0,0,,,1,,29,95
34402,note_on,,7,0,0,,,0,,41,0
34402,note_on,,0,0,0,,,0,,41,95
34409,note_on,,7,0,0,,,1,,29,0
34409,note_on,,0,0,0,,,1,,29,95
34415,note_on,,6,0,0,,,0,,41,0
34415,note_on,,0,0,0,,,0,,41,95
34415,note_on,,0,0,0,,,2,,61,95
34415,note_on,,0,0,0,,,4,,56,95
34415,note_on,,0,0,0,,,5,,53,95
34422,note_on,,7,0,0,,,1,,29,0
34422,note_on,,0,0,0,,,1,,29,95
34429,note_on,,7,0,0,,,0,,41,0
34429,note_on,,0,0,0,,,0,,41,95
34435,note_on,,6,0,0,,,1,,29,0
34435,note_on,,0,0,0,,,1,,29,95
34442,note_on,,7,0,0,,,2,,61,0
34442,note_on,,0,0,0,,,0,,41,95
34442,note_on,,0,0,0,,,4,,56,0
34442,note_on,,0,0,0,,,5,,53,0
34442,note_on,,0,0,0,,,0,,41,0
34442,note_on,,0,0,0,,,2,,65,95
34442,note_on,,0,0,0,,,3,,61,95
34442,note_on,,0,0,0,,,4,,56,95
34442,note_on,,0,0,0,,,5,,53,95
34449,note_on,,7,0,0,,,1,,29,0
34449,note_on,,0,0,0,,,1,,29,95
34455,note_on,,6,0,0,,,0,,41,0
34455,note_on,,0,0,0,,,0,,41,95
34462,note_on,,7,0,0,,,1,,29,0
34462,note_on,,0,0,0,,,1,,29,95
34469,note_on,,7,0,0,,,2,,65,0
34469,note_on,,0,0,0,,,0,,41,95
34469,note_on,,0,0,0,,,3,,61,0
34469,note_on,,0,0,0,,,4,,56,0
34469,note_on,,0,0,0,,,5,,53,0
34469,note_on,,0,0,0,,,0,,41,0
34469,note_on,,0,0,0,,,2,,68,95
34469,note_on,,0,0,0,,,3,,61,95
34469,note_on,,0,0,0,,,4,,56,95
34469,note_on,,0,0,0,,,5,,53,95
34475,note_on,,6,0,0,,,1,,29,0
34475,note_on,,0,0,0,,,1,,29,95
34482,note_on,,7,0,0,,,0,,41,0
34482,note_on,,0,0,0,,,0,,41,95
34489,note_on,,7,0,0,,,1,,29,0
34489,note_on,,0,0,0,,,1,,29,95
34495,note_on,,6,0,0,,,2,,68,0
34495,note_on,,0,0,0,,,0,,51,95
34495,note_on,,0,0,0,,,3,,61,0
34495,note_on,,0,0,0,,,4,,56,0
34495,note_on,,0,0,0,,,5,,53,0
34495,note_on,,0,0,0,,,0,,41,0
34495,note_on,,0,0,0,,,1,,29,0
34495,note_on,,0,0,0,,,1,,39,95
34495,note_on,,0,0,0,,,2,,73,95
34495,note_on,,0,0,0,,,3,,67,95
34495,note_on,,0,0,0,,,4,,61,95
34495,note_on,,0,0,0,,,5,,55,95
34495,note_on,,0,0,0,,,6,,51,95
34502,note_on,,7,0,0,,,1,,39,0
34502,note_on,,0,0,0,,,1,,39,95
34509,note_on,,7,0,0,,,0,,51,0
34509,note_on,,0,0,0,,,0,,51,95
34515,note_on,,6,0,0,,,1,,39,0
34515,note_on,,0,0,0,,,1,,39,95
34522,note_on,,7,0,0,,,0,,51,0
34522,note_on,,0,0,0,,,0,,51,95
34529,note_on,,7,0,0,,,1,,39,0
34529,note_on,,0,0,0,,,1,,39,95
34535,note_on,,6,0,0,,,0,,51,0
34535,note_on,,0,0,0,,,0,,51,95
34542,note_on,,7,0,0,,,1,,39,0
34542,note_on,,0,0,0,,,1,,39,95
34549,note_on,,7,0,0,,,0,,51,0
34549,note_on,,0,0,0,,,0,,51,95
34555,note_on,,6,0,0,,,1,,39,0
34555,note_on,,0,0,0,,,1,,39,95
34562,note_on,,7,0,0,,,0,,51,0
34562,note_on,,0,0,0,,,0,,51,95
34569,note_on,,7,0,0,,,1,,39,0
34569,note_on,,0,0,0,,,1,,39,95
34575,note_on,,6,0,0,,,2,,73,0
34575,note_on,,0,0,0,,,0,,51,95
34575,note_on,,0,0,0,,,3,,67,0
34575,note_on,,0,0,0,,,4,,61,0
34575,note_on,,0,0,0,,,5,,55,0
34575,note_on,,0,0,0,,,6,,51,0
34575,note_on,,0,0,0,,,0,,51,0
34575,note_on,,0,0,0,,,2,,72,95
34575,note_on,,0,0,0,,,3,,67,95
34575,note_on,,0,0,0,,,4,,60,95
34575,note_on,,0,0,0,,,5,,55,95
34575,note_on,,0,0,0,,,6,,51,95
34582,note_on,,7,0,0,,,1,,39,0
34582,note_on,,0,0,0,,,1,,39,95
34589,note_on,,7,0,0,,,0,,51,0
34589,note_on,,0,0,0,,,0,,51,95
34595,note_on,,6,0,0,,,1,,39,0
34595,note_on,,0,0,0,,,1,,39,95
34602,note_on,,7,0,0,,,0,,51,0
34602,note_on,,0,0,0,,,0,,51,95
34609,note_on,,7,0,0,,,1,,39,0
34609,note_on,,0,0,0,,,1,,39,95
34615,note_on,,6,0,0,,,0,,51,0
34615,note_on,,0,0,0,,,0,,51,95
34622,note_on,,7,0,0,,,1,,39,0
34622,note_on,,0,0,0,,,1,,39,95
34629,note_on,,7,0,0,,,0,,51,0
34629,note_on,,0,0,0,,,0,,51,95
34635,note_on,,6,0,0,,,1,,39,0
34635,note_on,,0,0,0,,,1,,39,95
34642,note_on,,7,0,0,,,0,,51,0
34642,note_on,,0,0,0,,,0,,51,95
34649,note_on,,7,0,0,,,1,,39,0
34649,note_on,,0,0,0,,,1,,39,95
34655,note_on,,6,0,0,,,2,,72,0
34655,note_on,,0,0,0,,,0,,39,95
34655,note_on,,0,0,0,,,3,,67,0
34655,note_on,,0,0,0,,,4,,60,0
34655,note_on,,0,0,0,,,5,,55,0
34655,note_on,,0,0,0,,,6,,51,0
34655,note_on,,0,0,0,,,0,,51,0
34655,note_on,,0,0,0,,,1,,39,0
34655,note_on,,0,0,0,,,1,,27,95
34655,note_on,,0,0,0,,,2,,84,95
34655,note_on,,0,0,0,,,3,,79,95
34655,note_on,,0,0,0,,,4,,75,95
34655,note_on,,0,0,0,,,5,,72,95
34655,note_on,,0,0,0,,,6,,51,95
34655,note_on,,0,0,0,,,7,,48,95
34655,note_on,,0,0,0,,,8,,43,95
34662,note_on,,7,0,0,,,1,,27,0
34662,note_on,,0,0,0,,,1,,27,95
34669,note_on,,7,0,0,,,0,,39,0
34669,note_on,,0,0,0,,,0,,39,95
34675,note_on,,6,0,0,,,1,,27,0
34675,note_on,,0,0,0,,,1,,27,95
34682,note_on,,7,0,0,,,0,,39,0
34682,note_on,,0,0,0,,,0,,39,95
34689,note_on,,7,0,0,,,1,,27,0
34689,note_on,,0,0,0,,,1,,27,95
34695,note_on,,6,0,0,,,2,,84,0
34695,note_on,,0,0,0,,,0,,39,95
34695,note_on,,0,0,0,,,3,,79,0
34695,note_on,,0,0,0,,,4,,75,0
34695,note_on,,0,0,0,,,5,,72,0
34695,note_on,,0,0,0,,,6,,51,0
34695,note_on,,0,0,0,,,7,,48,0
34695,note_on,,0,0,0,,,8,,43,0
34695,note_on,,0,0,0,,,0,,39,0
34702,note_on,,7,0,0,,,1,,27,0
34702,note_on,,0,0,0,,,1,,27,95
34709,note_on,,7,0,0,,,0,,39,0
34709,note_on,,0,0,0,,,0,,39,95
34715,note_on,,6,0,0,,,1,,27,0
34715,note_on,,0,0,0,,,1,,27,95
34722,note_on,,7,0,0,,,0,,39,0
34722,note_on,,0,0,0,,,0,,39,95
34729,note_on,,7,0,0,,,1,,27,0
34729,note_on,,0,0,0,,,1,,27,95
34735,note_on,,6,0,0,,,0,,39,0
34735,note_on,,0,0,0,,,0,,39,95
34735,note_on,,0,0,0,,,2,,60,95
34735,note_on,,0,0,0,,,4,,55,95
34735,note_on,,0,0,0,,,5,,51,95
34742,note_on,,7,0,0,,,1,,27,0
34742,note_on,,0,0,0,,,1,,27,95
34749,note_on,,7,0,0,,,0,,39,0
34749,note_on,,0,0,0,,,0,,39,95
34755,note_on,,6,0,0,,,1,,27,0
34755,note_on,,0,0,0,,,1,,27,95
34762,note_on,,7,0,0,,,2,,60,0
34762,note_on,,0,0,0,,,0,,39,95
34762,note_on,,0,0,0,,,4,,55,0
34762,note_on,,0,0,0,,,5,,51,0
34762,note_on,,0,0,0,,,0,,39,0
34762,note_on,,0,0,0,,,2,,63,95
34762,note_on,,0,0,0,,,3,,60,95
34762,note_on,,0,0,0,,,4,,55,95
34762,note_on,,0,0,0,,,5,,51,95
34769,note_on,,7,0,0,,,1,,27,0
34769,note_on,,0,0,0,,,1,,27,95
34775,note_on,,6,0,0,,,0,,39,0
34775,note_on,,0,0,0,,,0,,39,95
34782,note_on,,7,0,0,,,1,,27,0
34782,note_on,,0,0,0,,,1,,27,95
34789,note_on,,7,0,0,,,2,,63,0
34789,note_on,,0,0,0,,,0,,39,95
34789,note_on,,0,0,0,,,3,,60,0
34789,note_on,,0,0,0,,,4,,55,0
34789,note_on,,0,0,0,,,5,,51,0
34789,note_on,,0,0,0,,,0,,39,0
34789,note_on,,0,0,0,,,2,,67,95
34789,note_on,,0,0,0,,,3,,60,95
34789,note_on,,0,0,0,,,4,,55,95
34789,note_on,,0,0,0,,,5,,51,95
34795,note_on,,6,0,0,,,1,,27,0
34795,note_on,,0,0,0,,,1,,27,95
34802,note_on,,7,0,0,,,0,,39,0
34802,note_on,,0,0,0,,,0,,39,95
34809,note_on,,7,0,0,,,1,,27,0
34809,note_on,,0,0,0,,,1,,27,95
34815,note_on,,6,0,0,,,2,,67,0
34815,note_on,,0,0,0,,,0,,50,95
34815,note_on,,0,0,0,,,3,,60,0
34815,note_on,,0,0,0,,,4,,55,0
34815,note_on,,0,0,0,,,5,,51,0
34815,note_on,,0,0,0,,,0,,39,0
34815,note_on,,0,0,0,,,1,,27,0
34815,note_on,,0,0,0,,,1,,38,95
34815,note_on,,0,0,0,,,2,,72,95
34815,note_on,,0,0,0,,,3,,65,95
34815,note_on,,0,0,0,,,4,,60,95
34815,note_on,,0,0,0,,,5,,53,95
34822,note_on,,7,0,0,,,1,,38,0
34822,note_on,,0,0,0,,,1,,37,95
34829,note_on,,7,0,0,,,0,,50,0
34829,note_on,,0,0,0,,,0,,49,95
34835,note_on,,6,0,0,,,1,,37,0
34835,note_on,,0,0,0,,,1,,38,95
34842,note_on,,7,0,0,,,0,,49,0
34842,note_on,,0,0,0,,,0,,50,95
34849,note_on,,7,0,0,,,1,,38,0
34849,note_on,,0,0,0,,,1,,37,95
34855,note_on,,6,0,0,,,0,,50,0
34855,note_on,,0,0,0,,,0,,49,95
34862,note_on,,7,0,0,,,1,,37,0
34862,note_on,,0,0,0,,,1,,38,95
34869,note_on,,7,0,0,,,0,,49,0
34869,note_on,,0,0,0,,,0,,50,95
34875,note_on,,6,0,0,,,1,,38,0
34875,note_on,,0,0,0,,,1,,37,95
34882,note_on,,7,0,0,,,0,,50,0
34882,note_on,,0,0,0,,,0,,49,95
34889,note_on,,7,0,0,,,1,,37,0
34889,note_on,,0,0,0,,,1,,38,95
34895,note_on,,6,0,0,,,2,,72,0
34895,note_on,,0,0,0,,,0,,50,95
34895,note_on,,0,0,0,,,3,,65,0
34895,note_on,,0,0,0,,,4,,60,0
34895,note_on,,0,0,0,,,5,,53,0
34895,note_on,,0,0,0,,,0,,49,0
34895,note_on,,0,0,0,,,2,,70,95
34895,note_on,,0,0,0,,,3,,65,95
34895,note_on,,0,0,0,,,4,,58,95
34895,note_on,,0,0,0,,,5,,53,95
34902,note_on,,7,0,0,,,1,,38,0
34902,note_on,,0,0,0,,,1,,37,95
34909,note_on,,7,0,0,,,0,,50,0
34909,note_on,,0,0,0,,,0,,49,95
34915,note_on,,6,0,0,,,1,,37,0
34915,note_on,,0,0,0,,,1,,38,95
34922,note_on,,7,0,0,,,0,,49,0
34922,note_on,,0,0,0,,,0,,50,95
34929,note_on,,7,0,0,,,1,,38,0
34929,note_on,,0,0,0,,,1,,37,95
34935,note_on,,6,0,0,,,0,,50,0
34935,note_on,,0,0,0,,,0,,49,95
34942,note_on,,7,0,0,,,1,,37,0
34942,note_on,,0,0,0,,,1,,38,95
34949,note_on,,7,0,0,,,0,,49,0
34949,note_on,,0,0,0,,,0,,50,95
34955,note_on,,6,0,0,,,1,,38,0
34955,note_on,,0,0,0,,,1,,37,95
34962,note_on,,7,0,0,,,0,,50,0
34962,note_on,,0,0,0,,,0,,49,95
34969,note_on,,7,0,0,,,1,,37,0
34969,note_on,,0,0,0,,,1,,38,95
34975,note_on,,6,0,0,,,3,,65,0
34975,note_on,,0,0,0,,,0,,48,95
34975,note_on,,0,0,0,,,5,,53,0
34975,note_on,,0,0,0,,,0,,49,0
34975,note_on,,0,0,0,,,1,,38,0
34975,note_on,,0,0,0,,,1,,36,95
34975,note_on,,0,0,0,,,3,,63,95
34975,note_on,,0,0,0,,,5,,51,95
34982,note_on,,7,0,0,,,1,,36,0
34982,note_on,,0,0,0,,,1,,36,95
34989,note_on,,7,0,0,,,0,,48,0
34989,note_on,,0,0,0,,,0,,48,95
34995,note_on,,6,0,0,,,1,,36,0
34995,note_on,,0,0,0,,,1,,36,95
35002,note_on,,7,0,0,,,0,,48,0
35002,note_on,,0,0,0,,,0,,48,95
35009,note_on,,7,0,0,,,1,,36,0
35009,note_on,,0,0,0,,,1,,36,95
35015,note_on,,6,0,0,,,0,,48,0
35015,note_on,,0,0,0,,,0,,48,95
35022,note_on,,7,0,0,,,1,,36,0
35022,note_on,,0,0,0,,,1,,36,95
35029,note_on,,7,0,0,,,0,,48,0
35029,note_on,,0,0,0,,,0,,48,95
35035,note_on,,6,0,0,,,1,,36,0
35035,note_on,,0,0,0,,,1,,36,95
35042,note_on,,7,0,0,,,0,,48,0
35042,note_on,,0,0,0,,,0,,48,95
35049,note_on,,7,0,0,,,1,,36,0
35049,note_on,,0,0,0,,,1,,36,95
35055,note_on,,6,0,0,,,2,,70,0
35055,note_on,,0,0,0,,,0,,48,95
35055,note_on,,0,0,0,,,4,,58,0
35055,note_on,,0,0,0,,,3,,63,0
35055,note_on,,0,0,0,,,5,,51,0
35055,note_on,,0,0,0,,,0,,48,0
35055,note_on,,0,0,0,,,2,,68,95
35055,note_on,,0,0,0,,,3,,63,95
35055,note_on,,0,0,0,,,4,,56,95
35055,note_on,,0,0,0,,,5,,51,95
35062,note_on,,7,0,0,,,1,,36,0
35062,note_on,,0,0,0,,,1,,36,95
35069,note_on,,7,0,0,,,0,,48,0
35069,note_on,,0,0,0,,,0,,48,95
35075,note_on,,6,0,0,,,1,,36,0
35075,note_on,,0,0,0,,,1,,36,95
35082,note_on,,7,0,0,,,0,,48,0
35082,note_on,,0,0,0,,,0,,48,95
35089,note_on,,7,0,0,,,1,,36,0
35089,note_on,,0,0,0,,,1,,36,95
35095,note_on,,6,0,0,,,0,,48,0
35095,note_on,,0,0,0,,,0,,48,95
35102,note_on,,7,0,0,,,1,,36,0
35102,note_on,,0,0,0,,,1,,36,95
35109,note_on,,7,0,0,,,0,,48,0
35109,note_on,,0,0,0,,,0,,48,95
35115,note_on,,6,0,0,,,1,,36,0
35115,note_on,,0,0,0,,,1,,36,95
35122,note_on,,7,0,0,,,0,,48,0
35122,note_on,,0,0,0,,,0,,48,95
35129,note_on,,7,0,0,,,1,,36,0
35129,note_on,,0,0,0,,,1,,36,95
35135,note_on,,6,0,0,,,3,,63,0
35135,note_on,,0,0,0,,,0,,46,95
35135,note_on,,0,0,0,,,5,,51,0
35135,note_on,,0,0,0,,,0,,48,0
35135,note_on,,0,0,0,,,1,,36,0
35135,note_on,,0,0,0,,,1,,34,95
35135,note_on,,0,0,0,,,3,,62,95
35135,note_on,,0,0,0,,,5,,50,95
35142,note_on,,7,0,0,,,1,,34,0
35142,note_on,,0,0,0,,,1,,34,95
35149,note_on,,7,0,0,,,0,,46,0
35149,note_on,,0,0,0,,,0,,46,95
35155,note_on,,6,0,0,,,1,,34,0
35155,note_on,,0,0,0,,,1,,34,95
35162,note_on,,7,0,0,,,0,,46,0
35162,note_on,,0,0,0,,,0,,46,95
35169,note_on,,7,0,0,,,1,,34,0
35169,note_on,,0,0,0,,,1,,34,95
35175,note_on,,6,0,0,,,0,,46,0
35175,note_on,,0,0,0,,,0,,46,95
35182,note_on,,7,0,0,,,1,,34,0
35182,note_on,,0,0,0,,,1,,34,95
35189,note_on,,7,0,0,,,0,,46,0
35189,note_on,,0,0,0,,,0,,46,95
35195,note_on,,6,0,0,,,1,,34,0
35195,note_on,,0,0,0,,,1,,34,95
35202,note_on,,7,0,0,,,0,,46,0
35202,note_on,,0,0,0,,,0,,46,95
35209,note_on,,7,0,0,,,1,,34,0
35209,note_on,,0,0,0,,,1,,34,95
35215,note_on,,6,0,0,,,2,,68,0
35215,note_on,,0,0,0,,,0,,46,95
35215,note_on,,0,0,0,,,4,,56,0
35215,note_on,,0,0,0,,,3,,62,0
35215,note_on,,0,0,0,,,5,,50,0
35215,note_on,,0,0,0,,,0,,46,0
35215,note_on,,0,0,0,,,2,,67,95
35215,note_on,,0,0,0,,,3,,62,95
35215,note_on,,0,0,0,,,4,,55,95
35215,note_on,,0,0,0,,,5,,50,95
35222,note_on,,7,0,0,,,1,,34,0
35222,note_on,,0,0,0,,,1,,34,95
35229,note_on,,7,0,0,,,0,,46,0
35229,note_on,,0,0,0,,,0,,46,95
35235,note_on,,6,0,0,,,1,,34,0
35235,note_on,,0,0,0,,,1,,34,95
35242,note_on,,7,0,0,,,0,,46,0
35242,note_on,,0,0,0,,,0,,46,95
35249,note_on,,7,0,0,,,1,,34,0
35249,note_on,,0,0,0,,,1,,34,95
35255,note_on,,6,0,0,,,0,,46,0
35255,note_on,,0,0,0,,,0,,46,95
35262,note_on,,7,0,0,,,1,,34,0
35262,note_on,,0,0,0,,,1,,34,95
35269,note_on,,7,0,0,,,0,,46,0
35269,note_on,,0,0,0,,,0,,46,95
35275,note_on,,6,0,0,,,1,,34,0
35275,note_on,,0,0,0,,,1,,34,95
35282,note_on,,7,0,0,,,0,,46,0
35282,note_on,,0,0,0,,,0,,46,95
35289,note_on,,7,0,0,,,1,,34,0
35289,note_on,,0,0,0,,,1,,34,95
35295,note_on,,6,0,0,,,3,,62,0
35295,note_on,,0,0,0,,,0,,44,95
35295,note_on,,0,0,0,,,5,,50,0
35295,note_on,,0,0,0,,,0,,46,0
35295,note_on,,0,0,0,,,1,,34,0
35295,note_on,,0,0,0,,,1,,32,95
35295,note_on,,0,0,0,,,3,,60,95
35295,note_on,,0,0,0,,,5,,48,95
35302,note_on,,7,0,0,,,1,,32,0
35302,note_on,,0,0,0,,,1,,32,95
35309,note_on,,7,0,0,,,0,,44,0
35309,note_on,,0,0,0,,,0,,44,95
35315,note_on,,6,0,0,,,1,,32,0
35315,note_on,,0,0,0,,,1,,32,95
35322,note_on,,7,0,0,,,0,,44,0
35322,note_on,,0,0,0,,,0,,44,95
35329,note_on,,7,0,0,,,1,,32,0
35329,note_on,,0,0,0,,,1,,32,95
35335,note_on,,6,0,0,,,0,,44,0
35335,note_on,,0,0,0,,,0,,44,95
35342,note_on,,7,0,0,,,1,,32,0
35342,note_on,,0,0,0,,,1,,32,95
35349,note_on,,7,0,0,,,0,,44,0
35349,note_on,,0,0,0,,,0,,44,95
35355,note_on,,6,0,0,,,1,,32,0
35355,note_on,,0,0,0,,,1,,32,95
35362,note_on,,7,0,0,,,0,,44,0
35362,note_on,,0,0,0,,,0,,44,95
35369,note_on,,7,0,0,,,1,,32,0
35369,note_on,,0,0,0,,,1,,32,95
35375,note_on,,6,0,0,,,2,,67,0
35375,note_on,,0,0,0,,,0,,44,95
35375,note_on,,0,0,0,,,4,,55,0
35375,note_on,,0,0,0,,,3,,60,0
35375,note_on,,0,0,0,,,5,,48,0
35375,note_on,,0,0,0,,,0,,44,0
35375,note_on,,0,0,0,,,2,,66,95
35375,note_on,,0,0,0,,,3,,60,95
35375,note_on,,0,0,0,,,4,,54,95
35375,note_on,,0,0,0,,,5,,48,95
35382,note_on,,7,0,0,,,1,,32,0
35382,note_on,,0,0,0,,,1,,32,95
35389,note_on,,7,0,0,,,0,,44,0
35389,note_on,,0,0,0,,,0,,44,95
35395,note_on,,6,0,0,,,1,,32,0
35395,note_on,,0,0,0,,,1,,32,95
35402,note_on,,7,0,0,,,0,,44,0
35402,note_on,,0,0,0,,,0,,44,95
35409,note_on,,7,0,0,,,1,,32,0
35409,note_on,,0,0,0,,,1,,32,95
35415,note_on,,6,0,0,,,0,,44,0
35415,note_on,,0,0,0,,,0,,44,95
35422,note_on,,7,0,0,,,1,,32,0
35422,note_on,,0,0,0,,,1,,32,95
35429,note_on,,7,0,0,,,0,,44,0
35429,note_on,,0,0,0,,,0,,44,95
35435,note_on,,6,0,0,,,1,,32,0
35435,note_on,,0,0,0,,,1,,32,95
35442,note_on,,7,0,0,,,0,,44,0
35442,note_on,,0,0,0,,,0,,44,95
35449,note_on,,7,0,0,,,1,,32,0
35449,note_on,,0,0,0,,,1,,32,95
35455,note_on,,6,0,0,,,2,,66,0
35455,note_on,,0,0,0,,,0,,43,95
35455,note_on,,0,0,0,,,3,,60,0
35455,note_on,,0,0,0,,,4,,54,0
35455,note_on,,0,0,0,,,5,,48,0
35455,note_on,,0,0,0,,,0,,44,0
35455,note_on,,0,0,0,,,1,,32,0
35455,note_on,,0,0,0,,,1,,31,95
35455,note_on,,0,0,0,,,2,,67,95
35455,note_on,,0,0,0,,,3,,59,95
35455,note_on,,0,0,0,,,4,,55,95
35455,note_on,,0,0,0,,,5,,50,95
35455,note_on,,0,0,0,,,6,,43,95
35495,note_on,,40,0,0,,,0,,43,0
35495,note_on,,0,0,0,,,0,,67,95
35495,note_on,,0,0,0,,,1,,31,0
35495,note_on,,0,0,0,,,1,,55,95
35515,note_on,,20,0,0,,,0,,67,0
35515,note_on,,0,0,0,,,0,,81,95
35515,note_on,,0,0,0,,,1,,55,0
35515,note_on,,0,0,0,,,1,,69,95
35535,note_on,,20,0,0,,,2,,67,0
35535,note_on,,0,0,0,,,0,,71,95
35535,note_on,,0,0,0,,,3,,59,0
35535,note_on,,0,0,0,,,4,,55,0
35535,note_on,,0,0,0,,,5,,50,0
35535,note_on,,0,0,0,,,6,,43,0
35535,note_on,,0,0,0,,,0,,81,0
35535,note_on,,0,0,0,,,1,,69,0
35535,note_on,,0,0,0,,,1,,59,95
35535,note_on,,0,0,0,,,4,,67,95
35535,note_on,,0,0,0,,,5,,55,95
35555,note_on,,20,0,0,,,0,,71,0
35555,note_on,,0,0,0,,,0,,84,95
35555,note_on,,0,0,0,,,1,,59,0
35555,note_on,,0,0,0,,,1,,72,95
35575,note_on,,20,0,0,,,4,,67,0
35575,note_on,,0,0,0,,,0,,71,95
35575,note_on,,0,0,0,,,5,,55,0
35575,note_on,,0,0,0,,,0,,84,0
35575,note_on,,0,0,0,,,1,,72,0
35575,note_on,,0,0,0,,,1,,59,95
35575,note_on,,0,0,0,,,4,,67,95
35575,note_on,,0,0,0,,,5,,55,95
35595,note_on,,20,0,0,,,0,,71,0
35595,note_on,,0,0,0,,,0,,84,95
35595,note_on,,0,0,0,,,1,,59,0
35595,note_on,,0,0,0,,,1,,72,95
35615,note_on,,20,0,0,,,4,,67,0
35615,note_on,,0,0,0,,,0,,74,95
35615,note_on,,0,0,0,,,5,,55,0
35615,note_on,,0,0,0,,,0,,84,0
35615,note_on,,0,0,0,,,1,,72,0
35615,note_on,,0,0,0,,,1,,62,95
35615,note_on,,0,0,0,,,4,,67,95
35615,note_on,,0,0,0,,,5,,55,95
35635,note_on,,20,0,0,,,0,,74,0
35635,note_on,,0,0,0,,,0,,87,95
35635,note_on,,0,0,0,,,1,,62,0
35635,note_on,,0,0,0,,,1,,75,95
35655,note_on,,20,0,0,,,0,,87,0
35655,note_on,,0,0,0,,,0,,74,95
35655,note_on,,0,0,0,,,1,,75,0
35655,note_on,,0,0,0,,,1,,62,95
35675,note_on,,20,0,0,,,0,,74,0
35675,note_on,,0,0,0,,,0,,87,95
35675,note_on,,0,0,0,,,1,,62,0
35675,note_on,,0,0,0,,,1,,75,95
35695,note_on,,20,0,0,,,4,,67,0
35695,note_on,,0,0,0,,,0,,77,95
35695,note_on,,0,0,0,,,5,,55,0
35695,note_on,,0,0,0,,,0,,87,0
35695,note_on,,0,0,0,,,1,,75,0
35695,note_on,,0,0,0,,,1,,65,95
35695,note_on,,0,0,0,,,4,,67,95
35695,note_on,,0,0,0,,,5,,55,95
35715,note_on,,20,0,0,,,0,,77,0
35715,note_on,,0,0,0,,,0,,91,95
35715,note_on,,0,0,0,,,1,,65,0
35715,note_on,,0,0,0,,,1,,79,95
35735,note_on,,20,0,0,,,4,,67,0
35735,note_on,,0,0,0,,,0,,77,95
35735,note_on,,0,0,0,,,5,,55,0
35735,note_on,,0,0,0,,,0,,91,0
35735,note_on,,0,0,0,,,1,,79,0
35735,note_on,,0,0,0,,,1,,65,95
35735,note_on,,0,0,0,,,4,,67,95
35735,note_on,,0,0,0,,,5,,55,95
35755,note_on,,20,0,0,,,0,,77,0
35755,note_on,,0,0,0,,,0,,91,95
35755,note_on,,0,0,0,,,1,,65,0
35755,note_on,,0,0,0,,,1,,79,95
35775,note_on,,20,0,0,,,0,,91,0
35775,note_on,,0,0,0,,,0,,92,95
35775,note_on,,0,0,0,,,1,,79,0
35775,note_on,,0,0,0,,,1,,80,95
35775,note_on,,0,0,0,,,2,,84,95
35775,note_on,,0,0,0,,,3,,72,95
35782,note_on,,7,0,0,,,1,,80,0
35782,note_on,,0,0,0,,,1,,79,95
35789,note_on,,7,0,0,,,0,,92,0
35789,note_on,,0,0,0,,,0,,91,95
35789,note_on,,0,0,0,,,1,,79,0
35789,note_on,,0,0,0,,,1,,80,95
35795,note_on,,6,0,0,,,1,,80,0
35795,note_on,,0,0,0,,,1,,79,95
35802,note_on,,7,0,0,,,4,,67,0
35802,note_on,,0,0,0,,,0,,92,95
35802,note_on,,0,0,0,,,5,,55,0
35802,note_on,,0,0,0,,,0,,91,0
35802,note_on,,0,0,0,,,1,,79,0
35802,note_on,,0,0,0,,,1,,80,95
35802,note_on,,0,0,0,,,4,,65,95
35802,note_on,,0,0,0,,,5,,53,95
35809,note_on,,7,0,0,,,1,,80,0
35809,note_on,,0,0,0,,,1,,79,95
35815,note_on,,6,0,0,,,0,,92,0
35815,note_on,,0,0,0,,,0,,91,95
35815,note_on,,0,0,0,,,1,,79,0
35815,note_on,,0,0,0,,,1,,80,95
35822,note_on,,7,0,0,,,1,,80,0
35822,note_on,,0,0,0,,,1,,79,95
35829,note_on,,7,0,0,,,4,,65,0
35829,note_on,,0,0,0,,,0,,92,95
35829,note_on,,0,0,0,,,5,,53,0
35829,note_on,,0,0,0,,,0,,91,0
35829,note_on,,0,0,0,,,1,,79,0
35829,note_on,,0,0,0,,,1,,80,95
35829,note_on,,0,0,0,,,4,,64,95
35829,note_on,,0,0,0,,,5,,52,95
35835,note_on,,6,0,0,,,1,,80,0
35835,note_on,,0,0,0,,,1,,79,95
35842,note_on,,7,0,0,,,0,,92,0
35842,note_on,,0,0,0,,,0,,91,95
35842,note_on,,0,0,0,,,1,,79,0
35842,note_on,,0,0,0,,,1,,80,95
35849,note_on,,7,0,0,,,1,,80,0
35849,note_on,,0,0,0,,,1,,79,95
35855,note_on,,6,0,0,,,2,,84,0
35855,note_on,,0,0,0,,,0,,92,95
35855,note_on,,0,0,0,,,3,,72,0
35855,note_on,,0,0,0,,,4,,64,0
35855,note_on,,0,0,0,,,5,,52,0
35855,note_on,,0,0,0,,,0,,91,0
35855,note_on,,0,0,0,,,1,,79,0
35855,note_on,,0,0,0,,,1,,80,95
35855,note_on,,0,0,0,,,2,,84,95
35855,note_on,,0,0,0,,,3,,72,95
35855,note_on,,0,0,0,,,4,,65,95
35855,note_on,,0,0,0,,,5,,53,95
35862,note_on,,7,0,0,,,1,,80,0
35862,note_on,,0,0,0,,,1,,79,95
35869,note_on,,7,0,0,,,0,,92,0
35869,note_on,,0,0,0,,,0,,91,95
35869,note_on,,0,0,0,,,1,,79,0
35869,note_on,,0,0,0,,,1,,80,95
35875,note_on,,6,0,0,,,1,,80,0
35875,note_on,,0,0,0,,,1,,79,95
35882,note_on,,7,0,0,,,0,,91,0
35882,note_on,,0,0,0,,,0,,92,95
35882,note_on,,0,0,0,,,1,,79,0
35882,note_on,,0,0,0,,,1,,80,95
35889,note_on,,7,0,0,,,1,,80,0
35889,note_on,,0,0,0,,,1,,79,95
35895,note_on,,6,0,0,,,2,,84,0
35895,note_on,,0,0,0,,,0,,91,95
35895,note_on,,0,0,0,,,3,,72,0
35895,note_on,,0,0,0,,,4,,65,0
35895,note_on,,0,0,0,,,5,,53,0
35895,note_on,,0,0,0,,,0,,92,0
35895,note_on,,0,0,0,,,1,,79,0
35895,note_on,,0,0,0,,,1,,80,95
35895,note_on,,0,0,0,,,2,,84,95
35895,note_on,,0,0,0,,,3,,72,95
35895,note_on,,0,0,0,,,4,,60,95
35895,note_on,,0,0,0,,,5,,48,95
35902,note_on,,7,0,0,,,1,,80,0
35902,note_on,,0,0,0,,,1,,79,95
35909,note_on,,7,0,0,,,0,,91,0
35909,note_on,,0,0,0,,,0,,92,95
35909,note_on,,0,0,0,,,1,,79,0
35909,note_on,,0,0,0,,,1,,80,95
35915,note_on,,6,0,0,,,1,,80,0
35915,note_on,,0,0,0,,,1,,79,95
35922,note_on,,7,0,0,,,0,,92,0
35922,note_on,,0,0,0,,,0,,91,95
35922,note_on,,0,0,0,,,1,,79,0
35922,note_on,,0,0,0,,,1,,80,95
35929,note_on,,7,0,0,,,1,,80,0
35929,note_on,,0,0,0,,,1,,79,95
35935,note_on,,6,0,0,,,2,,84,0
35935,note_on,,0,0,0,,,0,,80,95
35935,note_on,,0,0,0,,,3,,72,0
35935,note_on,,0,0,0,,,4,,60,0
35935,note_on,,0,0,0,,,5,,48,0
35935,note_on,,0,0,0,,,0,,91,0
35935,note_on,,0,0,0,,,1,,79,0
35935,note_on,,0,0,0,,,1,,68,95
35935,note_on,,0,0,0,,,2,,84,95
35935,note_on,,0,0,0,,,3,,72,95
35935,note_on,,0,0,0,,,4,,56,95
35935,note_on,,0,0,0,,,5,,44,95
35942,note_on,,7,0,0,,,1,,68,0
35942,note_on,,0,0,0,,,1,,67,95
35949,note_on,,7,0,0,,,0,,80,0
35949,note_on,,0,0,0,,,0,,79,95
35949,note_on,,0,0,0,,,1,,67,0
35949,note_on,,0,0,0,,,1,,68,95
35955,note_on,,6,0,0,,,1,,68,0
35955,note_on,,0,0,0,,,1,,67,95
35962,note_on,,7,0,0,,,0,,79,0
35962,note_on,,0,0,0,,,0,,80,95
35962,note_on,,0,0,0,,,1,,67,0
35962,note_on,,0,0,0,,,1,,68,95
35969,note_on,,7,0,0,,,1,,68,0
35969,note_on,,0,0,0,,,1,,67,95
35975,note_on,,6,0,0,,,4,,56,0
35975,note_on,,0,0,0,,,0,,79,95
35975,note_on,,0,0,0,,,5,,44,0
35975,note_on,,0,0,0,,,0,,80,0
35975,note_on,,0,0,0,,,1,,67,0
35975,note_on,,0,0,0,,,1,,68,95
35975,note_on,,0,0,0,,,4,,60,95
35975,note_on,,0,0,0,,,5,,48,95
35982,note_on,,7,0,0,,,1,,68,0
35982,note_on,,0,0,0,,,1,,67,95
35989,note_on,,7,0,0,,,0,,79,0
35989,note_on,,0,0,0,,,0,,80,95
35989,note_on,,0,0,0,,,1,,67,0
35989,note_on,,0,0,0,,,1,,68,95
35995,note_on,,6,0,0,,,1,,68,0
35995,note_on,,0,0,0,,,1,,67,95
36002,note_on,,7,0,0,,,0,,80,0
36002,note_on,,0,0,0,,,0,,79,95
36002,note_on,,0,0,0,,,1,,67,0
36002,note_on,,0,0,0,,,1,,68,95
36009,note_on,,7,0,0,,,1,,68,0
36009,note_on,,0,0,0,,,1,,67,95
36015,note_on,,6,0,0,,,2,,84,0
36015,note_on,,0,0,0,,,0,,80,95
36015,note_on,,0,0,0,,,3,,72,0
36015,note_on,,0,0,0,,,4,,60,0
36015,note_on,,0,0,0,,,5,,48,0
36015,note_on,,0,0,0,,,0,,79,0
36015,note_on,,0,0,0,,,1,,67,0
36015,note_on,,0,0,0,,,1,,68,95
36015,note_on,,0,0,0,,,2,,84,95
36015,note_on,,0,0,0,,,3,,72,95
36015,note_on,,0,0,0,,,4,,62,95
36015,note_on,,0,0,0,,,5,,50,95
36022,note_on,,7,0,0,,,1,,68,0
36022,note_on,,0,0,0,,,1,,67,95
36029,note_on,,7,0,0,,,0,,80,0
36029,note_on,,0,0,0,,,0,,79,95
36029,note_on,,0,0,0,,,1,,67,0
36029,note_on,,0,0,0,,,1,,68,95
36035,note_on,,6,0,0,,,1,,68,0
36035,note_on,,0,0,0,,,1,,67,95
36042,note_on,,7,0,0,,,0,,79,0
36042,note_on,,0,0,0,,,0,,80,95
36042,note_on,,0,0,0,,,1,,67,0
36042,note_on,,0,0,0,,,1,,68,95
36049,note_on,,7,0,0,,,1,,68,0
36049,note_on,,0,0,0,,,1,,67,95
36055,note_on,,6,0,0,,,2,,84,0
36055,note_on,,0,0,0,,,0,,79,95
36055,note_on,,0,0,0,,,3,,72,0
36055,note_on,,0,0,0,,,4,,62,0
36055,note_on,,0,0,0,,,5,,50,0
36055,note_on,,0,0,0,,,0,,80,0
36055,note_on,,0,0,0,,,1,,67,0
36055,note_on,,0,0,0,,,1,,68,95
36055,note_on,,0,0,0,,,2,,84,95
36055,note_on,,0,0,0,,,3,,72,95
36055,note_on,,0,0,0,,,4,,64,95
36055,note_on,,0,0,0,,,5,,52,95
36062,note_on,,7,0,0,,,1,,68,0
36062,note_on,,0,0,0,,,1,,67,95
36069,note_on,,7,0,0,,,0,,79,0
36069,note_on,,0,0,0,,,0,,80,95
36069,note_on,,0,0,0,,,1,,67,0
36069,note_on,,0,0,0,,,1,,68,95
36075,note_on,,6,0,0,,,1,,68,0
36075,note_on,,0,0,0,,,1,,67,95
36082,note_on,,7,0,0,,,0,,80,0
36082,note_on,,0,0,0,,,0,,79,95
36082,note_on,,0,0,0,,,1,,67,0
36082,note_on,,0,0,0,,,1,,68,95
36089,note_on,,7,0,0,,,1,,68,0
36089,note_on,,0,0,0,,,1,,67,95
36095,note_on,,6,0,0,,,2,,84,0
36095,note_on,,0,0,0,,,0,,65,95
36095,note_on,,0,0,0,,,3,,72,0
36095,note_on,,0,0,0,,,4,,64,0
36095,note_on,,0,0,0,,,5,,52,0
36095,note_on,,0,0,0,,,0,,79,0
36095,note_on,,0,0,0,,,1,,67,0
36095,note_on,,0,0,0,,,1,,53,95
36095,note_on,,0,0,0,,,2,,84,95
36095,note_on,,0,0,0,,,3,,72,95
36095,note_on,,0,0,0,,,4,,65,95
36095,note_on,,0,0,0,,,5,,53,95
36115,note_on,,20,0,0,,,0,,65,0
36115,note_on,,0,0,0,,,0,,79,95
36115,note_on,,0,0,0,,,1,,53,0
36115,note_on,,0,0,0,,,1,,67,95
36135,note_on,,20,0,0,,,0,,79,0
36135,note_on,,0,0,0,,,0,,65,95
36135,note_on,,0,0,0,,,1,,67,0
36135,note_on,,0,0,0,,,1,,53,95
36155,note_on,,20,0,0,,,0,,65,0
36155,note_on,,0,0,0,,,0,,79,95
36155,note_on,,0,0,0,,,1,,53,0
36155,note_on,,0,0,0,,,1,,67,95
36175,note_on,,20,0,0,,,2,,84,0
36175,note_on,,0,0,0,,,0,,68,95
36175,note_on,,0,0,0,,,3,,72,0
36175,note_on,,0,0,0,,,4,,65,0
36175,note_on,,0,0,0,,,5,,53,0
36175,note_on,,0,0,0,,,0,,79,0
36175,note_on,,0,0,0,,,1,,67,0
36175,note_on,,0,0,0,,,1,,56,95
36175,note_on,,0,0,0,,,2,,77,95
36175,note_on,,0,0,0,,,4,,65,95
36175,note_on,,0,0,0,,,5,,53,95
36195,note_on,,20,0,0,,,0,,68,0
36195,note_on,,0,0,0,,,0,,82,95
36195,note_on,,0,0,0,,,1,,56,0
36195,note_on,,0,0,0,,,1,,70,95
36215,note_on,,20,0,0,,,4,,65,0
36215,note_on,,0,0,0,,,0,,68,95
36215,note_on,,0,0,0,,,5,,53,0
36215,note_on,,0,0,0,,,0,,82,0
36215,note_on,,0,0,0,,,1,,70,0
36215,note_on,,0,0,0,,,1,,56,95
36215,note_on,,0,0,0,,,4,,65,95
36215,note_on,,0,0,0,,,5,,53,95
36235,note_on,,20,0,0,,,0,,68,0
36235,note_on,,0,0,0,,,0,,82,95
36235,note_on,,0,0,0,,,1,,56,0
36235,note_on,,0,0,0,,,1,,70,95
36255,note_on,,20,0,0,,,2,,77,0
36255,note_on,,0,0,0,,,0,,72,95
36255,note_on,,0,0,0,,,4,,65,0
36255,note_on,,0,0,0,,,5,,53,0
36255,note_on,,0,0,0,,,0,,82,0
36255,note_on,,0,0,0,,,1,,70,0
36255,note_on,,0,0,0,,,1,,60,95
36255,note_on,,0,0,0,,,4,,65,95
36255,note_on,,0,0,0,,,5,,53,95
36275,note_on,,20,0,0,,,0,,72,0
36275,note_on,,0,0,0,,,0,,86,95
36275,note_on,,0,0,0,,,1,,60,0
36275,note_on,,0,0,0,,,1,,74,95
36295,note_on,,20,0,0,,,0,,86,0
36295,note_on,,0,0,0,,,0,,72,95
36295,note_on,,0,0,0,,,1,,74,0
36295,note_on,,0,0,0,,,1,,60,95
36315,note_on,,20,0,0,,,0,,72,0
36315,note_on,,0,0,0,,,0,,86,95
36315,note_on,,0,0,0,,,1,,60,0
36315,note_on,,0,0,0,,,1,,74,95
36335,note_on,,20,0,0,,,4,,65,0
36335,note_on,,0,0,0,,,0,,75,95
36335,note_on,,0,0,0,,,5,,53,0
36335,note_on,,0,0,0,,,0,,86,0
36335,note_on,,0,0,0,,,1,,74,0
36335,note_on,,0,0,0,,,1,,63,95
36335,note_on,,0,0,0,,,4,,65,95
36335,note_on,,0,0,0,,,5,,53,95
36355,note_on,,20,0,0,,,0,,75,0
36355,note_on,,0,0,0,,,0,,89,95
36355,note_on,,0,0,0,,,1,,63,0
36355,note_on,,0,0,0,,,1,,77,95
36375,note_on,,20,0,0,,,4,,65,0
36375,note_on,,0,0,0,,,0,,75,95
36375,note_on,,0,0,0,,,5,,53,0
36375,note_on,,0,0,0,,,0,,89,0
36375,note_on,,0,0,0,,,1,,77,0
36375,note_on,,0,0,0,,,1,,63,95
36375,note_on,,0,0,0,,,4,,65,95
36375,note_on,,0,0,0,,,5,,53,95
36395,note_on,,20,0,0,,,0,,75,0
36395,note_on,,0,0,0,,,0,,89,95
36395,note_on,,0,0,0,,,1,,63,0
36395,note_on,,0,0,0,,,1,,77,95
36415,note_on,,20,0,0,,,0,,89,0
36415,note_on,,0,0,0,,,0,,91,95
36415,note_on,,0,0,0,,,1,,77,0
36415,note_on,,0,0,0,,,1,,79,95
36415,note_on,,0,0,0,,,2,,82,95
36415,note_on,,0,0,0,,,3,,70,95
36422,note_on,,7,0,0,,,1,,79,0
36422,note_on,,0,0,0,,,1,,78,95
36429,note_on,,7,0,0,,,0,,91,0
36429,note_on,,0,0,0,,,0,,90,95
36429,note_on,,0,0,0,,,1,,78,0
36429,note_on,,0,0,0,,,1,,79,95
36435,note_on,,6,0,0,,,1,,79,0
36435,note_on,,0,0,0,,,1,,78,95
36442,note_on,,7,0,0,,,4,,65,0
36442,note_on,,0,0,0,,,0,,91,95
36442,note_on,,0,0,0,,,5,,53,0
36442,note_on,,0,0,0,,,0,,90,0
36442,note_on,,0,0,0,,,1,,78,0
36442,note_on,,0,0,0,,,1,,79,95
36442,note_on,,0,0,0,,,4,,63,95
36442,note_on,,0,0,0,,,5,,51,95
36449,note_on,,7,0,0,,,1,,79,0
36449,note_on,,0,0,0,,,1,,78,95
36455,note_on,,6,0,0,,,0,,91,0
36455,note_on,,0,0,0,,,0,,90,95
36455,note_on,,0,0,0,,,1,,78,0
36455,note_on,,0,0,0,,,1,,79,95
36462,note_on,,7,0,0,,,1,,79,0
36462,note_on,,0,0,0,,,1,,78,95
36469,note_on,,7,0,0,,,4,,63,0
36469,note_on,,0,0,0,,,0,,91,95
36469,note_on,,0,0,0,,,5,,51,0
36469,note_on,,0,0,0,,,0,,90,0
36469,note_on,,0,0,0,,,1,,78,0
36469,note_on,,0,0,0,,,1,,79,95
36469,note_on,,0,0,0,,,4,,62,95
36469,note_on,,0,0,0,,,5,,50,95
36475,note_on,,6,0,0,,,1,,79,0
36475,note_on,,0,0,0,,,1,,78,95
36482,note_on,,7,0,0,,,0,,91,0
36482,note_on,,0,0,0,,,0,,90,95
36482,note_on,,0,0,0,,,1,,78,0
36482,note_on,,0,0,0,,,1,,79,95
36489,note_on,,7,0,0,,,1,,79,0
36489,note_on,,0,0,0,,,1,,78,95
36495,note_on,,6,0,0,,,2,,82,0
36495,note_on,,0,0,0,,,0,,91,95
36495,note_on,,0,0,0,,,3,,70,0
36495,note_on,,0,0,0,,,4,,62,0
36495,note_on,,0,0,0,,,5,,50,0
36495,note_on,,0,0,0,,,0,,90,0
36495,note_on,,0,0,0,,,1,,78,0
36495,note_on,,0,0,0,,,1,,79,95
36495,note_on,,0,0,0,,,2,,82,95
36495,note_on,,0,0,0,,,3,,70,95
36495,note_on,,0,0,0,,,4,,63,95
36495,note_on,,0,0,0,,,5,,51,95
36502,note_on,,7,0,0,,,1,,79,0
36502,note_on,,0,0,0,,,1,,78,95
36509,note_on,,7,0,0,,,0,,91,0
36509,note_on,,0,0,0,,,0,,90,95
36509,note_on,,0,0,0,,,1,,78,0
36509,note_on,,0,0,0,,,1,,79,95
36515,note_on,,6,0,0,,,1,,79,0
36515,note_on,,0,0,0,,,1,,78,95
36522,note_on,,7,0,0,,,0,,90,0
36522,note_on,,0,0,0,,,0,,91,95
36522,note_on,,0,0,0,,,1,,78,0
36522,note_on,,0,0,0,,,1,,79,95
36529,note_on,,7,0,0,,,1,,79,0
36529,note_on,,0,0,0,,,1,,78,95
36535,note_on,,6,0,0,,,2,,82,0
36535,note_on,,0,0,0,,,0,,90,95
36535,note_on,,0,0,0,,,3,,70,0
36535,note_on,,0,0,0,,,4,,63,0
36535,note_on,,0,0,0,,,5,,51,0
36535,note_on,,0,0,0,,,0,,91,0
36535,note_on,,0,0,0,,,1,,78,0
36535,note_on,,0,0,0,,,1,,79,95
36535,note_on,,0,0,0,,,2,,82,95
36535,note_on,,0,0,0,,,3,,70,95
36535,note_on,,0,0,0,,,4,,58,95
36535,note_on,,0,0,0,,,5,,46,95
36542,note_on,,7,0,0,,,1,,79,0
36542,note_on,,0,0,0,,,1,,78,95
36549,note_on,,7,0,0,,,0,,90,0
36549,note_on,,0,0,0,,,0,,91,95
36549,note_on,,0,0,0,,,1,,78,0
36549,note_on,,0,0,0,,,1,,79,95
36555,note_on,,6,0,0,,,1,,79,0
36555,note_on,,0,0,0,,,1,,78,95
36562,note_on,,7,0,0,,,0,,91,0
36562,note_on,,0,0,0,,,0,,90,95
36562,note_on,,0,0,0,,,1,,78,0
36562,note_on,,0,0,0,,,1,,79,95
36569,note_on,,7,0,0,,,1,,79,0
36569,note_on,,0,0,0,,,1,,78,95
36575,note_on,,6,0,0,,,2,,82,0
36575,note_on,,0,0,0,,,0,,79,95
36575,note_on,,0,0,0,,,3,,70,0
36575,note_on,,0,0,0,,,4,,58,0
36575,note_on,,0,0,0,,,5,,46,0
36575,note_on,,0,0,0,,,0,,90,0
36575,note_on,,0,0,0,,,1,,78,0
36575,note_on,,0,0,0,,,1,,67,95
36575,note_on,,0,0,0,,,2,,82,95
36575,note_on,,0,0,0,,,3,,70,95
36575,note_on,,0,0,0,,,4,,55,95
36575,note_on,,0,0,0,,,5,,43,95
36582,note_on,,7,0,0,,,1,,67,0
36582,note_on,,0,0,0,,,1,,66,95
36589,note_on,,7,0,0,,,0,,79,0
36589,note_on,,0,0,0,,,0,,78,95
36589,note_on,,0,0,0,,,1,,66,0
36589,note_on,,0,0,0,,,1,,67,95
36595,note_on,,6,0,0,,,1,,67,0
36595,note_on,,0,0,0,,,1,,66,95
36602,note_on,,7,0,0,,,0,,78,0
36602,note_on,,0,0,0,,,0,,79,95
36602,note_on,,0,0,0,,,1,,66,0
36602,note_on,,0,0,0,,,1,,67,95
36609,note_on,,7,0,0,,,1,,67,0
36609,note_on,,0,0,0,,,1,,66,95
36615,note_on,,6,0,0,,,4,,55,0
36615,note_on,,0,0,0,,,0,,78,95
36615,note_on,,0,0,0,,,5,,43,0
36615,note_on,,0,0,0,,,0,,79,0
36615,note_on,,0,0,0,,,1,,66,0
36615,note_on,,0,0,0,,,1,,67,95
36615,note_on,,0,0,0,,,4,,58,95
36615,note_on,,0,0,0,,,5,,46,95
36622,note_on,,7,0,0,,,1,,67,0
36622,note_on,,0,0,0,,,1,,66,95
36629,note_on,,7,0,0,,,0,,78,0
36629,note_on,,0,0,0,,,0,,79,95
36629,note_on,,0,0,0,,,1,,66,0
36629,note_on,,0,0,0,,,1,,67,95
36635,note_on,,6,0,0,,,1,,67,0
36635,note_on,,0,0,0,,,1,,66,95
36642,note_on,,7,0,0,,,0,,79,0
36642,note_on,,0,0,0,,,0,,78,95
36642,note_on,,0,0,0,,,1,,66,0
36642,note_on,,0,0,0,,,1,,67,95
36649,note_on,,7,0,0,,,1,,67,0
36649,note_on,,0,0,0,,,1,,66,95
36655,note_on,,6,0,0,,,2,,82,0
36655,note_on,,0,0,0,,,0,,79,95
36655,note_on,,0,0,0,,,3,,70,0
36655,note_on,,0,0,0,,,4,,58,0
36655,note_on,,0,0,0,,,5,,46,0
36655,note_on,,0,0,0,,,0,,78,0
36655,note_on,,0,0,0,,,1,,66,0
36655,note_on,,0,0,0,,,1,,67,95
36655,note_on,,0,0,0,,,2,,82,95
36655,note_on,,0,0,0,,,3,,70,95
36655,note_on,,0,0,0,,,4,,60,95
36655,note_on,,0,0,0,,,5,,48,95
36662,note_on,,7,0,0,,,1,,67,0
36662,note_on,,0,0,0,,,1,,66,95
36669,note_on,,7,0,0,,,0,,79,0
36669,note_on,,0,0,0,,,0,,78,95
36669,note_on,,0,0,0,,,1,,66,0
36669,note_on,,0,0,0,,,1,,67,95
36675,note_on,,6,0,0,,,1,,67,0
36675,note_on,,0,0,0,,,1,,66,95
36682,note_on,,7,0,0,,,0,,78,0
36682,note_on,,0,0,0,,,0,,79,95
36682,note_on,,0,0,0,,,1,,66,0
36682,note_on,,0,0,0,,,1,,67,95
36689,note_on,,7,0,0,,,1,,67,0
36689,note_on,,0,0,0,,,1,,66,95
36695,note_on,,6,0,0,,,2,,82,0
36695,note_on,,0,0,0,,,0,,78,95
36695,note_on,,0,0,0,,,3,,70,0
36695,note_on,,0,0,0,,,4,,60,0
36695,note_on,,0,0,0,,,5,,48,0
36695,note_on,,0,0,0,,,0,,79,0
36695,note_on,,0,0,0,,,1,,66,0
36695,note_on,,0,0,0,,,1,,67,95
36695,note_on,,0,0,0,,,2,,82,95
36695,note_on,,0,0,0,,,3,,70,95
36695,note_on,,0,0,0,,,4,,62,95
36695,note_on,,0,0,0,,,5,,50,95
36702,note_on,,7,0,0,,,1,,67,0
36702,note_on,,0,0,0,,,1,,66,95
36709,note_on,,7,0,0,,,0,,78,0
36709,note_on,,0,0,0,,,0,,79,95
36709,note_on,,0,0,0,,,1,,66,0
36709,note_on,,0,0,0,,,1,,67,95
36715,note_on,,6,0,0,,,1,,67,0
36715,note_on,,0,0,0,,,1,,66,95
36722,note_on,,7,0,0,,,0,,79,0
36722,note_on,,0,0,0,,,0,,78,95
36722,note_on,,0,0,0,,,1,,66,0
36722,note_on,,0,0,0,,,1,,67,95
36729,note_on,,7,0,0,,,1,,67,0
36729,note_on,,0,0,0,,,1,,66,95
36735,note_on,,6,0,0,,,2,,82,0
36735,note_on,,0,0,0,,,0,,63,95
36735,note_on,,0,0,0,,,3,,70,0
36735,note_on,,0,0,0,,,4,,62,0
36735,note_on,,0,0,0,,,5,,50,0
36735,note_on,,0,0,0,,,0,,78,0
36735,note_on,,0,0,0,,,1,,66,0
36735,note_on,,0,0,0,,,1,,51,95
36735,note_on,,0,0,0,,,2,,82,95
36735,note_on,,0,0,0,,,3,,70,95
36735,note_on,,0,0,0,,,4,,63,95
36735,note_on,,0,0,0,,,5,,51,95
36755,note_on,,20,0,0,,,0,,63,0
36755,note_on,,0,0,0,,,0,,77,95
36755,note_on,,0,0,0,,,1,,51,0
36755,note_on,,0,0,0,,,1,,65,95
36775,note_on,,20,0,0,,,0,,77,0
36775,note_on,,0,0,0,,,0,,63,95
36775,note_on,,0,0,0,,,1,,65,0
36775,note_on,,0,0,0,,,1,,51,95
36795,note_on,,20,0,0,,,0,,63,0
36795,note_on,,0,0,0,,,0,,77,95
36795,note_on,,0,0,0,,,1,,51,0
36795,note_on,,0,0,0,,,1,,65,95
36815,note_on,,20,0,0,,,2,,82,0
36815,note_on,,0,0,0,,,0,,67,95
36815,note_on,,0,0,0,,,3,,70,0
36815,note_on,,0,0,0,,,4,,63,0
36815,note_on,,0,0,0,,,5,,51,0
36815,note_on,,0,0,0,,,0,,77,0
36815,note_on,,0,0,0,,,1,,65,0
36815,note_on,,0,0,0,,,1,,55,95
36815,note_on,,0,0,0,,,2,,75,95
36815,note_on,,0,0,0,,,4,,63,95
36815,note_on,,0,0,0,,,5,,51,95
36835,note_on,,20,0,0,,,0,,67,0
36835,note_on,,0,0,0,,,0,,80,95
36835,note_on,,0,0,0,,,1,,55,0
36835,note_on,,0,0,0,,,1,,68,95
36855,note_on,,20,0,0,,,4,,63,0
36855,note_on,,0,0,0,,,0,,67,95
36855,note_on,,0,0,0,,,5,,51,0
36855,note_on,,0,0,0,,,0,,80,0
36855,note_on,,0,0,0,,,1,,68,0
36855,note_on,,0,0,0,,,1,,55,95
36855,note_on,,0,0,0,,,4,,63,95
36855,note_on,,0,0,0,,,5,,51,95
36875,note_on,,20,0,0,,,0,,67,0
36875,note_on,,0,0,0,,,0,,80,95
36875,note_on,,0,0,0,,,1,,55,0
36875,note_on,,0,0,0,,,1,,68,95
36895,note_on,,20,0,0,,,2,,75,0
36895,note_on,,0,0,0,,,0,,70,95
36895,note_on,,0,0,0,,,4,,63,0
36895,note_on,,0,0,0,,,5,,51,0
36895,note_on,,0,0,0,,,0,,80,0
36895,note_on,,0,0,0,,,1,,68,0
36895,note_on,,0,0,0,,,1,,58,95
36895,note_on,,0,0,0,,,4,,63,95
36895,note_on,,0,0,0,,,5,,51,95
36915,note_on,,20,0,0,,,0,,70,0
36915,note_on,,0,0,0,,,0,,84,95
36915,note_on,,0,0,0,,,1,,58,0
36915,note_on,,0,0,0,,,1,,72,95
36935,note_on,,20,0,0,,,0,,84,0
36935,note_on,,0,0,0,,,0,,70,95
36935,note_on,,0,0,0,,,1,,72,0
36935,note_on,,0,0,0,,,1,,58,95
36955,note_on,,20,0,0,,,0,,70,0
36955,note_on,,0,0,0,,,0,,84,95
36955,note_on,,0,0,0,,,1,,58,0
36955,note_on,,0,0,0,,,1,,72,95
36975,note_on,,20,0,0,,,4,,63,0
36975,note_on,,0,0,0,,,0,,74,95
36975,note_on,,0,0,0,,,5,,51,0
36975,note_on,,0,0,0,,,0,,84,0
36975,note_on,,0,0,0,,,1,,72,0
36975,note_on,,0,0,0,,,1,,62,95
36975,note_on,,0,0,0,,,4,,63,95
36975,note_on,,0,0,0,,,5,,51,95
36995,note_on,,20,0,0,,,0,,74,0
36995,note_on,,0,0,0,,,0,,87,95
36995,note_on,,0,0,0,,,1,,62,0
36995,note_on,,0,0,0,,,1,,75,95
37015,note_on,,20,0,0,,,4,,63,0
37015,note_on,,0,0,0,,,0,,74,95
37015,note_on,,0,0,0,,,5,,51,0
37015,note_on,,0,0,0,,,0,,87,0
37015,note_on,,0,0,0,,,1,,75,0
37015,note_on,,0,0,0,,,1,,62,95
37015,note_on,,0,0,0,,,4,,63,95
37015,note_on,,0,0,0,,,5,,51,95
37035,note_on,,20,0,0,,,0,,74,0
37035,note_on,,0,0,0,,,0,,87,95
37035,note_on,,0,0,0,,,1,,62,0
37035,note_on,,0,0,0,,,1,,75,95
37055,note_on,,20,0,0,,,0,,87,0
37055,note_on,,0,0,0,,,0,,89,95
37055,note_on,,0,0,0,,,1,,75,0
37055,note_on,,0,0,0,,,1,,56,95
37055,note_on,,0,0,0,,,2,,80,95
37055,note_on,,0,0,0,,,3,,68,95
37062,note_on,,7,0,0,,,1,,56,0
37062,note_on,,0,0,0,,,1,,56,95
37069,note_on,,7,0,0,,,0,,89,0
37069,note_on,,0,0,0,,,0,,89,95
37075,note_on,,6,0,0,,,1,,56,0
37075,note_on,,0,0,0,,,1,,56,95
37082,note_on,,7,0,0,,,4,,63,0
37082,note_on,,0,0,0,,,0,,89,95
37082,note_on,,0,0,0,,,5,,51,0
37082,note_on,,0,0,0,,,0,,89,0
37082,note_on,,0,0,0,,,4,,61,95
37082,note_on,,0,0,0,,,5,,49,95
37089,note_on,,7,0,0,,,1,,56,0
37089,note_on,,0,0,0,,,1,,56,95
37095,note_on,,6,0,0,,,0,,89,0
37095,note_on,,0,0,0,,,0,,89,95
37102,note_on,,7,0,0,,,1,,56,0
37102,note_on,,0,0,0,,,1,,56,95
37109,note_on,,7,0,0,,,4,,61,0
37109,note_on,,0,0,0,,,0,,89,95
37109,note_on,,0,0,0,,,5,,49,0
37109,note_on,,0,0,0,,,0,,89,0
37109,note_on,,0,0,0,,,4,,60,95
37109,note_on,,0,0,0,,,5,,48,95
37115,note_on,,6,0,0,,,1,,56,0
37115,note_on,,0,0,0,,,1,,56,95
37122,note_on,,7,0,0,,,0,,89,0
37122,note_on,,0,0,0,,,0,,89,95
37129,note_on,,7,0,0,,,1,,56,0
37129,note_on,,0,0,0,,,1,,56,95
37135,note_on,,6,0,0,,,2,,80,0
37135,note_on,,0,0,0,,,0,,89,95
37135,note_on,,0,0,0,,,3,,68,0
37135,note_on,,0,0,0,,,4,,60,0
37135,note_on,,0,0,0,,,5,,48,0
37135,note_on,,0,0,0,,,0,,89,0
37135,note_on,,0,0,0,,,2,,80,95
37135,note_on,,0,0,0,,,3,,68,95
37135,note_on,,0,0,0,,,4,,61,95
37135,note_on,,0,0,0,,,5,,49,95
37142,note_on,,7,0,0,,,1,,56,0
37142,note_on,,0,0,0,,,1,,56,95
37149,note_on,,7,0,0,,,0,,89,0
37149,note_on,,0,0,0,,,0,,89,95
37155,note_on,,6,0,0,,,1,,56,0
37155,note_on,,0,0,0,,,1,,56,95
37162,note_on,,7,0,0,,,0,,89,0
37162,note_on,,0,0,0,,,0,,89,95
37169,note_on,,7,0,0,,,1,,56,0
37169,note_on,,0,0,0,,,1,,56,95
37175,note_on,,6,0,0,,,2,,80,0
37175,note_on,,0,0,0,,,0,,89,95
37175,note_on,,0,0,0,,,3,,68,0
37175,note_on,,0,0,0,,,4,,61,0
37175,note_on,,0,0,0,,,5,,49,0
37175,note_on,,0,0,0,,,0,,89,0
37175,note_on,,0,0,0,,,2,,80,95
37175,note_on,,0,0,0,,,3,,68,95
37175,note_on,,0,0,0,,,4,,61,95
37175,note_on,,0,0,0,,,5,,49,95
37182,note_on,,7,0,0,,,1,,56,0
37182,note_on,,0,0,0,,,1,,56,95
37189,note_on,,7,0,0,,,0,,89,0
37189,note_on,,0,0,0,,,0,,89,95
37195,note_on,,6,0,0,,,1,,56,0
37195,note_on,,0,0,0,,,1,,56,95
37202,note_on,,7,0,0,,,0,,89,0
37202,note_on,,0,0,0,,,0,,89,95
37209,note_on,,7,0,0,,,1,,56,0
37209,note_on,,0,0,0,,,1,,56,95
37215,note_on,,6,0,0,,,2,,80,0
37215,note_on,,0,0,0,,,0,,77,95
37215,note_on,,0,0,0,,,3,,68,0
37215,note_on,,0,0,0,,,4,,61,0
37215,note_on,,0,0,0,,,5,,49,0
37215,note_on,,0,0,0,,,0,,89,0
37215,note_on,,0,0,0,,,1,,56,0
37215,note_on,,0,0,0,,,1,,44,95
37215,note_on,,0,0,0,,,2,,80,95
37215,note_on,,0,0,0,,,3,,68,95
37215,note_on,,0,0,0,,,4,,56,95
37215,note_on,,0,0,0,,,5,,44,95
37222,note_on,,7,0,0,,,1,,44,0
37222,note_on,,0,0,0,,,1,,44,95
37229,note_on,,7,0,0,,,0,,77,0
37229,note_on,,0,0,0,,,0,,77,95
37235,note_on,,6,0,0,,,1,,44,0
37235,note_on,,0,0,0,,,1,,44,95
37242,note_on,,7,0,0,,,0,,77,0
37242,note_on,,0,0,0,,,0,,77,95
37249,note_on,,7,0,0,,,1,,44,0
37249,note_on,,0,0,0,,,1,,44,95
37255,note_on,,6,0,0,,,4,,56,0
37255,note_on,,0,0,0,,,0,,77,95
37255,note_on,,0,0,0,,,5,,44,0
37255,note_on,,0,0,0,,,0,,77,0
37255,note_on,,0,0,0,,,4,,53,95
37255,note_on,,0,0,0,,,5,,41,95
37262,note_on,,7,0,0,,,1,,44,0
37262,note_on,,0,0,0,,,1,,44,95
37269,note_on,,7,0,0,,,0,,77,0
37269,note_on,,0,0,0,,,0,,77,95
37275,note_on,,6,0,0,,,1,,44,0
37275,note_on,,0,0,0,,,1,,44,95
37282,note_on,,7,0,0,,,0,,77,0
37282,note_on,,0,0,0,,,0,,77,95
37289,note_on,,7,0,0,,,1,,44,0
37289,note_on,,0,0,0,,,1,,44,95
37295,note_on,,6,0,0,,,2,,80,0
37295,note_on,,0,0,0,,,0,,77,95
37295,note_on,,0,0,0,,,3,,68,0
37295,note_on,,0,0,0,,,4,,53,0
37295,note_on,,0,0,0,,,5,,41,0
37295,note_on,,0,0,0,,,0,,77,0
37295,note_on,,0,0,0,,,2,,73,95
37295,note_on,,0,0,0,,,4,,56,95
37295,note_on,,0,0,0,,,5,,44,95
37302,note_on,,7,0,0,,,1,,44,0
37302,note_on,,0,0,0,,,1,,44,95
37309,note_on,,7,0,0,,,0,,77,0
37309,note_on,,0,0,0,,,0,,77,95
37315,note_on,,6,0,0,,,1,,44,0
37315,note_on,,0,0,0,,,1,,44,95
37322,note_on,,7,0,0,,,0,,77,0
37322,note_on,,0,0,0,,,0,,77,95
37329,note_on,,7,0,0,,,1,,44,0
37329,note_on,,0,0,0,,,1,,44,95
37335,note_on,,6,0,0,,,4,,56,0
37335,note_on,,0,0,0,,,0,,77,95
37335,note_on,,0,0,0,,,5,,44,0
37335,note_on,,0,0,0,,,0,,77,0
37335,note_on,,0,0,0,,,4,,61,95
37335,note_on,,0,0,0,,,5,,49,95
37342,note_on,,7,0,0,,,1,,44,0
37342,note_on,,0,0,0,,,1,,44,95
37349,note_on,,7,0,0,,,0,,77,0
37349,note_on,,0,0,0,,,0,,77,95
37355,note_on,,6,0,0,,,1,,44,0
37355,note_on,,0,0,0,,,1,,44,95
37362,note_on,,7,0,0,,,0,,77,0
37362,note_on,,0,0,0,,,0,,77,95
37369,note_on,,7,0,0,,,1,,44,0
37369,note_on,,0,0,0,,,1,,44,95
37375,note_on,,6,0,0,,,2,,73,0
37375,note_on,,0,0,0,,,0,,87,95
37375,note_on,,0,0,0,,,0,,77,0
37375,note_on,,0,0,0,,,1,,44,0
37375,note_on,,0,0,0,,,1,,54,95
37375,note_on,,0,0,0,,,2,,79,95
37375,note_on,,0,0,0,,,3,,67,95
37382,note_on,,7,0,0,,,1,,54,0
37382,note_on,,0,0,0,,,1,,54,95
37389,note_on,,7,0,0,,,0,,87,0
37389,note_on,,0,0,0,,,0,,87,95
37395,note_on,,6,0,0,,,1,,54,0
37395,note_on,,0,0,0,,,1,,54,95
37402,note_on,,7,0,0,,,4,,61,0
37402,note_on,,0,0,0,,,0,,87,95
37402,note_on,,0,0,0,,,5,,49,0
37402,note_on,,0,0,0,,,0,,87,0
37402,note_on,,0,0,0,,,4,,60,95
37402,note_on,,0,0,0,,,5,,48,95
37409,note_on,,7,0,0,,,1,,54,0
37409,note_on,,0,0,0,,,1,,54,95
37415,note_on,,6,0,0,,,0,,87,0
37415,note_on,,0,0,0,,,0,,87,95
37422,note_on,,7,0,0,,,1,,54,0
37422,note_on,,0,0,0,,,1,,54,95
37429,note_on,,7,0,0,,,4,,60,0
37429,note_on,,0,0,0,,,0,,87,95
37429,note_on,,0,0,0,,,5,,48,0
37429,note_on,,0,0,0,,,0,,87,0
37429,note_on,,0,0,0,,,4,,59,95
37429,note_on,,0,0,0,,,5,,47,95
37435,note_on,,6,0,0,,,1,,54,0
37435,note_on,,0,0,0,,,1,,54,95
37442,note_on,,7,0,0,,,0,,87,0
37442,note_on,,0,0,0,,,0,,87,95
37449,note_on,,7,0,0,,,1,,54,0
37449,note_on,,0,0,0,,,1,,54,95
37455,note_on,,6,0,0,,,2,,79,0
37455,note_on,,0,0,0,,,0,,87,95
37455,note_on,,0,0,0,,,3,,67,0
37455,note_on,,0,0,0,,,4,,59,0
37455,note_on,,0,0,0,,,5,,47,0
37455,note_on,,0,0,0,,,0,,87,0
37455,note_on,,0,0,0,,,2,,79,95
37455,note_on,,0,0,0,,,3,,67,95
37455,note_on,,0,0,0,,,4,,60,95
37455,note_on,,0,0,0,,,5,,48,95
37462,note_on,,7,0,0,,,1,,54,0
37462,note_on,,0,0,0,,,1,,54,95
37469,note_on,,7,0,0,,,0,,87,0
37469,note_on,,0,0,0,,,0,,87,95
37475,note_on,,6,0,0,,,1,,54,0
37475,note_on,,0,0,0,,,1,,54,95
37482,note_on,,7,0,0,,,0,,87,0
37482,note_on,,0,0,0,,,0,,87,95
37489,note_on,,7,0,0,,,1,,54,0
37489,note_on,,0,0,0,,,1,,54,95
37495,note_on,,6,0,0,,,2,,79,0
37495,note_on,,0,0,0,,,0,,87,95
37495,note_on,,0,0,0,,,3,,67,0
37495,note_on,,0,0,0,,,4,,60,0
37495,note_on,,0,0,0,,,5,,48,0
37495,note_on,,0,0,0,,,0,,87,0
37495,note_on,,0,0,0,,,2,,79,95
37495,note_on,,0,0,0,,,3,,67,95
37495,note_on,,0,0,0,,,4,,60,95
37495,note_on,,0,0,0,,,5,,48,95
37502,note_on,,7,0,0,,,1,,54,0
37502,note_on,,0,0,0,,,1,,54,95
37509,note_on,,7,0,0,,,0,,87,0
37509,note_on,,0,0,0,,,0,,87,95
37515,note_on,,6,0,0,,,1,,54,0
37515,note_on,,0,0,0,,,1,,54,95
37522,note_on,,7,0,0,,,0,,87,0
37522,note_on,,0,0,0,,,0,,87,95
37529,note_on,,7,0,0,,,1,,54,0
37529,note_on,,0,0,0,,,1,,54,95
37535,note_on,,6,0,0,,,2,,79,0
37535,note_on,,0,0,0,,,0,,75,95
37535,note_on,,0,0,0,,,3,,67,0
37535,note_on,,0,0,0,,,4,,60,0
37535,note_on,,0,0,0,,,5,,48,0
37535,note_on,,0,0,0,,,0,,87,0
37535,note_on,,0,0,0,,,1,,54,0
37535,note_on,,0,0,0,,,1,,42,95
37535,note_on,,0,0,0,,,2,,79,95
37535,note_on,,0,0,0,,,3,,67,95
37535,note_on,,0,0,0,,,4,,55,95
37535,note_on,,0,0,0,,,5,,43,95
37542,note_on,,7,0,0,,,1,,42,0
37542,note_on,,0,0,0,,,1,,42,95
37549,note_on,,7,0,0,,,0,,75,0
37549,note_on,,0,0,0,,,0,,75,95
37555,note_on,,6,0,0,,,1,,42,0
37555,note_on,,0,0,0,,,1,,42,95
37562,note_on,,7,0,0,,,0,,75,0
37562,note_on,,0,0,0,,,0,,75,95
37569,note_on,,7,0,0,,,1,,42,0
37569,note_on,,0,0,0,,,1,,42,95
37575,note_on,,6,0,0,,,4,,55,0
37575,note_on,,0,0,0,,,0,,75,95
37575,note_on,,0,0,0,,,5,,43,0
37575,note_on,,0,0,0,,,0,,75,0
37575,note_on,,0,0,0,,,4,,51,95
37575,note_on,,0,0,0,,,5,,39,95
37582,note_on,,7,0,0,,,1,,42,0
37582,note_on,,0,0,0,,,1,,42,95
37589,note_on,,7,0,0,,,0,,75,0
37589,note_on,,0,0,0,,,0,,75,95
37595,note_on,,6,0,0,,,1,,42,0
37595,note_on,,0,0,0,,,1,,42,95
37602,note_on,,7,0,0,,,0,,75,0
37602,note_on,,0,0,0,,,0,,75,95
37609,note_on,,7,0,0,,,1,,42,0
37609,note_on,,0,0,0,,,1,,42,95
37615,note_on,,6,0,0,,,2,,79,0
37615,note_on,,0,0,0,,,0,,75,95
37615,note_on,,0,0,0,,,3,,67,0
37615,note_on,,0,0,0,,,4,,51,0
37615,note_on,,0,0,0,,,5,,39,0
37615,note_on,,0,0,0,,,0,,75,0
37615,note_on,,0,0,0,,,2,,72,95
37615,note_on,,0,0,0,,,4,,55,95
37615,note_on,,0,0,0,,,5,,43,95
37622,note_on,,7,0,0,,,1,,42,0
37622,note_on,,0,0,0,,,1,,42,95
37629,note_on,,7,0,0,,,0,,75,0
37629,note_on,,0,0,0,,,0,,75,95
37635,note_on,,6,0,0,,,1,,42,0
37635,note_on,,0,0,0,,,1,,42,95
37642,note_on,,7,0,0,,,0,,75,0
37642,note_on,,0,0,0,,,0,,75,95
37649,note_on,,7,0,0,,,1,,42,0
37649,note_on,,0,0,0,,,1,,42,95
37655,note_on,,6,0,0,,,4,,55,0
37655,note_on,,0,0,0,,,0,,75,95
37655,note_on,,0,0,0,,,5,,43,0
37655,note_on,,0,0,0,,,0,,75,0
37655,note_on,,0,0,0,,,7,,60,95
37655,note_on,,0,0,0,,,8,,48,95
37662,note_on,,7,0,0,,,1,,42,0
37662,note_on,,0,0,0,,,1,,42,95
37669,note_on,,7,0,0,,,0,,75,0
37669,note_on,,0,0,0,,,0,,75,95
37675,note_on,,6,0,0,,,1,,42,0
37675,note_on,,0,0,0,,,1,,42,95
37682,note_on,,7,0,0,,,0,,75,0
37682,note_on,,0,0,0,,,0,,75,95
37689,note_on,,7,0,0,,,1,,42,0
37689,note_on,,0,0,0,,,1,,42,95
37695,note_on,,6,0,0,,,2,,72,0
37695,note_on,,0,0,0,,,0,,75,0
37695,note_on,,0,0,0,,,1,,42,0
37695,note_on,,0,0,0,,,1,,85,95
37695,note_on,,0,0,0,,,2,,73,95
37695,note_on,,0,0,0,,,4,,77,95
37695,note_on,,0,0,0,,,5,,73,95
37695,note_on,,0,0,0,,,6,,65,95
37702,note_on,,7,0,0,,,2,,73,0
37702,note_on,,0,0,0,,,2,,72,95
37709,note_on,,7,0,0,,,1,,85,0
37709,note_on,,0,0,0,,,2,,72,0
37709,note_on,,0,0,0,,,1,,84,95
37709,note_on,,0,0,0,,,2,,73,95
37715,note_on,,6,0,0,,,2,,73,0
37715,note_on,,0,0,0,,,2,,72,95
37722,note_on,,7,0,0,,,7,,60,0
37722,note_on,,0,0,0,,,8,,48,0
37722,note_on,,0,0,0,,,1,,84,0
37722,note_on,,0,0,0,,,2,,72,0
37722,note_on,,0,0,0,,,1,,85,95
37722,note_on,,0,0,0,,,2,,73,95
37722,note_on,,0,0,0,,,7,,58,95
37722,note_on,,0,0,0,,,8,,46,95
37729,note_on,,7,0,0,,,2,,73,0
37729,note_on,,0,0,0,,,2,,72,95
37735,note_on,,6,0,0,,,1,,85,0
37735,note_on,,0,0,0,,,2,,72,0
37735,note_on,,0,0,0,,,1,,84,95
37735,note_on,,0,0,0,,,2,,73,95
37742,note_on,,7,0,0,,,2,,73,0
37742,note_on,,0,0,0,,,2,,72,95
37749,note_on,,7,0,0,,,7,,58,0
37749,note_on,,0,0,0,,,8,,46,0
37749,note_on,,0,0,0,,,1,,84,0
37749,note_on,,0,0,0,,,2,,72,0
37749,note_on,,0,0,0,,,1,,85,95
37749,note_on,,0,0,0,,,2,,73,95
37749,note_on,,0,0,0,,,7,,57,95
37749,note_on,,0,0,0,,,8,,45,95
37755,note_on,,6,0,0,,,2,,73,0
37755,note_on,,0,0,0,,,2,,72,95
37762,note_on,,7,0,0,,,1,,85,0
37762,note_on,,0,0,0,,,2,,72,0
37762,note_on,,0,0,0,,,1,,84,95
37762,note_on,,0,0,0,,,2,,73,95
37769,note_on,,7,0,0,,,2,,73,0
37769,note_on,,0,0,0,,,2,,72,95
37775,note_on,,6,0,0,,,5,,73,0
37775,note_on,,0,0,0,,,0,,97,95
37775,note_on,,0,0,0,,,6,,65,0
37775,note_on,,0,0,0,,,7,,57,0
37775,note_on,,0,0,0,,,8,,45,0
37775,note_on,,0,0,0,,,2,,72,0
37775,note_on,,0,0,0,,,2,,73,95
37775,note_on,,0,0,0,,,3,,61,95
37775,note_on,,0,0,0,,,5,,73,95
37775,note_on,,0,0,0,,,6,,67,95
37775,note_on,,0,0,0,,,7,,58,95
37775,note_on,,0,0,0,,,8,,46,95
37815,note_on,,40,0,0,,,4,,77,0
37815,note_on,,0,0,0,,,1,,84,0
37815,note_on,,0,0,0,,,0,,97,0
37815,note_on,,0,0,0,,,2,,73,0
37815,note_on,,0,0,0,,,3,,61,0
37815,note_on,,0,0,0,,,5,,73,0
37815,note_on,,0,0,0,,,6,,67,0
37815,note_on,,0,0,0,,,7,,58,0
37815,note_on,,0,0,0,,,8,,46,0
37815,note_on,,0,0,0,,,4,,77,95
37815,note_on,,0,0,0,,,5,,73,95
37815,note_on,,0,0,0,,,6,,67,95
37815,note_on,,0,0,0,,,7,,58,95
37815,note_on,,0,0,0,,,8,,46,95
37855,note_on,,40,0,0,,,4,,77,0
37855,note_on,,0,0,0,,,5,,73,0
37855,note_on,,0,0,0,,,6,,67,0
37855,note_on,,0,0,0,,,1,,84,95
37855,note_on,,0,0,0,,,2,,72,95
37855,note_on,,0,0,0,,,4,,76,95
37855,note_on,,0,0,0,,,5,,72,95
37855,note_on,,0,0,0,,,6,,64,95
37862,note_on,,7,0,0,,,2,,72,0
37862,note_on,,0,0,0,,,2,,72,95
37869,note_on,,7,0,0,,,1,,84,0
37869,note_on,,0,0,0,,,2,,72,0
37869,note_on,,0,0,0,,,1,,84,95
37869,note_on,,0,0,0,,,2,,72,95
37875,note_on,,6,0,0,,,2,,72,0
37875,note_on,,0,0,0,,,2,,72,95
37882,note_on,,7,0,0,,,7,,58,0
37882,note_on,,0,0,0,,,8,,46,0
37882,note_on,,0,0,0,,,1,,84,0
37882,note_on,,0,0,0,,,2,,72,0
37882,note_on,,0,0,0,,,1,,84,95
37882,note_on,,0,0,0,,,2,,72,95
37882,note_on,,0,0,0,,,7,,56,95
37882,note_on,,0,0,0,,,8,,44,95
37889,note_on,,7,0,0,,,2,,72,0
37889,note_on,,0,0,0,,,2,,72,95
37895,note_on,,6,0,0,,,1,,84,0
37895,note_on,,0,0,0,,,2,,72,0
37895,note_on,,0,0,0,,,1,,84,95
37895,note_on,,0,0,0,,,2,,72,95
37902,note_on,,7,0,0,,,2,,72,0
37902,note_on,,0,0,0,,,2,,72,95
37909,note_on,,7,0,0,,,7,,56,0
37909,note_on,,0,0,0,,,8,,44,0
37909,note_on,,0,0,0,,,1,,84,0
37909,note_on,,0,0,0,,,2,,72,0
37909,note_on,,0,0,0,,,1,,84,95
37909,note_on,,0,0,0,,,2,,72,95
37909,note_on,,0,0,0,,,7,,55,95
37909,note_on,,0,0,0,,,8,,43,95
37915,note_on,,6,0,0,,,2,,72,0
37915,note_on,,0,0,0,,,2,,72,95
37922,note_on,,7,0,0,,,1,,84,0
37922,note_on,,0,0,0,,,2,,72,0
37922,note_on,,0,0,0,,,1,,84,95
37922,note_on,,0,0,0,,,2,,72,95
37929,note_on,,7,0,0,,,2,,72,0
37929,note_on,,0,0,0,,,2,,72,95
37935,note_on,,6,0,0,,,4,,76,0
37935,note_on,,0,0,0,,,0,,96,95
37935,note_on,,0,0,0,,,5,,72,0
37935,note_on,,0,0,0,,,6,,64,0
37935,note_on,,0,0,0,,,7,,55,0
37935,note_on,,0,0,0,,,8,,43,0
37935,note_on,,0,0,0,,,3,,60,95
37935,note_on,,0,0,0,,,4,,77,95
37935,note_on,,0,0,0,,,5,,72,95
37935,note_on,,0,0,0,,,6,,65,95
37935,note_on,,0,0,0,,,7,,56,95
37935,note_on,,0,0,0,,,8,,44,95
37975,note_on,,40,0,0,,,1,,84,0
37975,note_on,,0,0,0,,,2,,72,0
37975,note_on,,0,0,0,,,0,,96,0
37975,note_on,,0,0,0,,,3,,60,0
37975,note_on,,0,0,0,,,4,,77,0
37975,note_on,,0,0,0,,,5,,72,0
37975,note_on,,0,0,0,,,6,,65,0
37975,note_on,,0,0,0,,,7,,56,0
37975,note_on,,0,0,0,,,8,,44,0
37975,note_on,,0,0,0,,,4,,77,95
37975,note_on,,0,0,0,,,5,,72,95
37975,note_on,,0,0,0,,,6,,65,95
37975,note_on,,0,0,0,,,7,,56,95
37975,note_on,,0,0,0,,,8,,44,95
38015,note_on,,40,0,0,,,4,,77,0
38015,note_on,,0,0,0,,,5,,72,0
38015,note_on,,0,0,0,,,6,,65,0
38015,note_on,,0,0,0,,,1,,82,95
38015,note_on,,0,0,0,,,2,,70,95
38015,note_on,,0,0,0,,,4,,73,95
38015,note_on,,0,0,0,,,5,,70,95
38015,note_on,,0,0,0,,,6,,61,95
38022,note_on,,7,0,0,,,2,,70,0
38022,note_on,,0,0,0,,,2,,70,95
38029,note_on,,7,0,0,,,1,,82,0
38029,note_on,,0,0,0,,,2,,70,0
38029,note_on,,0,0,0,,,1,,82,95
38029,note_on,,0,0,0,,,2,,70,95
38035,note_on,,6,0,0,,,2,,70,0
38035,note_on,,0,0,0,,,2,,70,95
38042,note_on,,7,0,0,,,7,,56,0
38042,note_on,,0,0,0,,,8,,44,0
38042,note_on,,0,0,0,,,1,,82,0
38042,note_on,,0,0,0,,,2,,70,0
38042,note_on,,0,0,0,,,1,,82,95
38042,note_on,,0,0,0,,,2,,70,95
38042,note_on,,0,0,0,,,7,,55,95
38042,note_on,,0,0,0,,,8,,43,95
38049,note_on,,7,0,0,,,2,,70,0
38049,note_on,,0,0,0,,,2,,70,95
38055,note_on,,6,0,0,,,1,,82,0
38055,note_on,,0,0,0,,,2,,70,0
38055,note_on,,0,0,0,,,1,,82,95
38055,note_on,,0,0,0,,,2,,70,95
38062,note_on,,7,0,0,,,2,,70,0
38062,note_on,,0,0,0,,,2,,70,95
38069,note_on,,7,0,0,,,7,,55,0
38069,note_on,,0,0,0,,,8,,43,0
38069,note_on,,0,0,0,,,1,,82,0
38069,note_on,,0,0,0,,,2,,70,0
38069,note_on,,0,0,0,,,1,,82,95
38069,note_on,,0,0,0,,,2,,70,95
38069,note_on,,0,0,0,,,7,,53,95
38069,note_on,,0,0,0,,,8,,41,95
38075,note_on,,6,0,0,,,2,,70,0
38075,note_on,,0,0,0,,,2,,70,95
38082,note_on,,7,0,0,,,1,,82,0
38082,note_on,,0,0,0,,,2,,70,0
38082,note_on,,0,0,0,,,1,,82,95
38082,note_on,,0,0,0,,,2,,70,95
38089,note_on,,7,0,0,,,2,,70,0
38089,note_on,,0,0,0,,,2,,70,95
38095,note_on,,6,0,0,,,4,,73,0
38095,note_on,,0,0,0,,,0,,94,95
38095,note_on,,0,0,0,,,5,,70,0
38095,note_on,,0,0,0,,,6,,61,0
38095,note_on,,0,0,0,,,7,,53,0
38095,note_on,,0,0,0,,,8,,41,0
38095,note_on,,0,0,0,,,3,,58,95
38095,note_on,,0,0,0,,,4,,75,95
38095,note_on,,0,0,0,,,5,,70,95
38095,note_on,,0,0,0,,,6,,63,95
38095,note_on,,0,0,0,,,7,,55,95
38095,note_on,,0,0,0,,,8,,43,95
38135,note_on,,40,0,0,,,1,,82,0
38135,note_on,,0,0,0,,,2,,70,0
38135,note_on,,0,0,0,,,0,,94,0
38135,note_on,,0,0,0,,,3,,58,0
38135,note_on,,0,0,0,,,4,,75,0
38135,note_on,,0,0,0,,,5,,70,0
38135,note_on,,0,0,0,,,6,,63,0
38135,note_on,,0,0,0,,,7,,55,0
38135,note_on,,0,0,0,,,8,,43,0
38135,note_on,,0,0,0,,,4,,75,95
38135,note_on,,0,0,0,,,5,,70,95
38135,note_on,,0,0,0,,,6,,63,95
38135,note_on,,0,0,0,,,7,,55,95
38135,note_on,,0,0,0,,,8,,43,95
38175,note_on,,40,0,0,,,4,,75,0
38175,note_on,,0,0,0,,,5,,70,0
38175,note_on,,0,0,0,,,6,,63,0
38175,note_on,,0,0,0,,,1,,80,95
38175,note_on,,0,0,0,,,2,,68,95
38175,note_on,,0,0,0,,,4,,72,95
38175,note_on,,0,0,0,,,5,,68,95
38175,note_on,,0,0,0,,,6,,60,95
38182,note_on,,7,0,0,,,2,,68,0
38182,note_on,,0,0,0,,,2,,68,95
38189,note_on,,7,0,0,,,1,,80,0
38189,note_on,,0,0,0,,,2,,68,0
38189,note_on,,0,0,0,,,1,,80,95
38189,note_on,,0,0,0,,,2,,68,95
38195,note_on,,6,0,0,,,2,,68,0
38195,note_on,,0,0,0,,,2,,68,95
38202,note_on,,7,0,0,,,7,,55,0
38202,note_on,,0,0,0,,,8,,43,0
38202,note_on,,0,0,0,,,1,,80,0
38202,note_on,,0,0,0,,,2,,68,0
38202,note_on,,0,0,0,,,1,,80,95
38202,note_on,,0,0,0,,,2,,68,95
38202,note_on,,0,0,0,,,7,,53,95
38202,note_on,,0,0,0,,,8,,41,95
38209,note_on,,7,0,0,,,2,,68,0
38209,note_on,,0,0,0,,,2,,68,95
38215,note_on,,6,0,0,,,1,,80,0
38215,note_on,,0,0,0,,,2,,68,0
38215,note_on,,0,0,0,,,1,,80,95
38215,note_on,,0,0,0,,,2,,68,95
38222,note_on,,7,0,0,,,2,,68,0
38222,note_on,,0,0,0,,,2,,68,95
38229,note_on,,7,0,0,,,7,,53,0
38229,note_on,,0,0,0,,,8,,41,0
38229,note_on,,0,0,0,,,1,,80,0
38229,note_on,,0,0,0,,,2,,68,0
38229,note_on,,0,0,0,,,1,,80,95
38229,note_on,,0,0,0,,,2,,68,95
38229,note_on,,0,0,0,,,7,,52,95
38229,note_on,,0,0,0,,,8,,40,95
38235,note_on,,6,0,0,,,2,,68,0
38235,note_on,,0,0,0,,,2,,68,95
38242,note_on,,7,0,0,,,1,,80,0
38242,note_on,,0,0,0,,,2,,68,0
38242,note_on,,0,0,0,,,1,,80,95
38242,note_on,,0,0,0,,,2,,68,95
38249,note_on,,7,0,0,,,2,,68,0
38249,note_on,,0,0,0,,,2,,68,95
38255,note_on,,6,0,0,,,5,,68,0
38255,note_on,,0,0,0,,,0,,92,95
38255,note_on,,0,0,0,,,6,,60,0
38255,note_on,,0,0,0,,,7,,52,0
38255,note_on,,0,0,0,,,8,,40,0
38255,note_on,,0,0,0,,,3,,56,95
38255,note_on,,0,0,0,,,5,,68,95
38255,note_on,,0,0,0,,,6,,63,95
38255,note_on,,0,0,0,,,7,,53,95
38255,note_on,,0,0,0,,,8,,41,95
38295,note_on,,40,0,0,,,4,,72,0
38295,note_on,,0,0,0,,,1,,80,0
38295,note_on,,0,0,0,,,2,,68,0
38295,note_on,,0,0,0,,,0,,92,0
38295,note_on,,0,0,0,,,3,,56,0
38295,note_on,,0,0,0,,,5,,68,0
38295,note_on,,0,0,0,,,6,,63,0
38295,note_on,,0,0,0,,,7,,53,0
38295,note_on,,0,0,0,,,8,,41,0
38295,note_on,,0,0,0,,,4,,72,95
38295,note_on,,0,0,0,,,5,,68,95
38295,note_on,,0,0,0,,,6,,63,95
38295,note_on,,0,0,0,,,7,,54,95
38295,note_on,,0,0,0,,,8,,42,95
38335,note_on,,40,0,0,,,4,,72,0
38335,note_on,,0,0,0,,,0,,91,95
38335,note_on,,0,0,0,,,5,,68,0
38335,note_on,,0,0,0,,,6,,63,0
38335,note_on,,0,0,0,,,7,,54,0
38335,note_on,,0,0,0,,,8,,42,0
38335,note_on,,0,0,0,,,1,,86,95
38335,note_on,,0,0,0,,,2,,83,95
38335,note_on,,0,0,0,,,3,,67,95
38335,note_on,,0,0,0,,,4,,62,95
38335,note_on,,0,0,0,,,5,,59,95
38335,note_on,,0,0,0,,,6,,71,95
38335,note_on,,0,0,0,,,7,,55,95
38335,note_on,,0,0,0,,,8,,43,95
38375,note_on,,40,0,0,,,0,,91,0
38375,note_on,,0,0,0,,,1,,86,0
38375,note_on,,0,0,0,,,2,,83,0
38375,note_on,,0,0,0,,,3,,67,0
38375,note_on,,0,0,0,,,4,,62,0
38375,note_on,,0,0,0,,,5,,59,0
38375,note_on,,0,0,0,,,6,,71,0
38375,note_on,,0,0,0,,,7,,55,0
38375,note_on,,0,0,0,,,8,,43,0
38415,note_on,,40,0,0,,,6,,74,95
38415,note_on,,0,0,0,,,7,,62,95
38435,note_on,,20,0,0,,,6,,74,0
38435,note_on,,0,0,0,,,7,,62,0
38435,note_on,,0,0,0,,,6,,75,95
38435,note_on,,0,0,0,,,7,,63,95
38455,note_on,,20,0,0,,,6,,75,0
38455,note_on,,0,0,0,,,7,,63,0
38455,note_on,,0,0,0,,,6,,77,95
38455,note_on,,0,0,0,,,7,,65,95
38475,note_on,,20,0,0,,,6,,77,0
38475,note_on,,0,0,0,,,7,,65,0
38475,note_on,,0,0,0,,,6,,79,95
38475,note_on,,0,0,0,,,7,,67,95
38495,note_on,,20,0,0,,,6,,79,0
38495,note_on,,0,0,0,,,0,,63,95
38495,note_on,,0,0,0,,,7,,67,0
38495,note_on,,0,0,0,,,1,,60,95
38495,note_on,,0,0,0,,,2,,56,95
38495,note_on,,0,0,0,,,3,,51,95
38495,note_on,,0,0,0,,,4,,48,95
38495,note_on,,0,0,0,,,5,,36,95
38495,note_on,,0,0,0,,,6,,80,95
38495,note_on,,0,0,0,,,7,,75,95
38495,note_on,,0,0,0,,,8,,72,95
38535,note_on,,40,0,0,,,4,,48,0
38535,note_on,,0,0,0,,,5,,36,0
38535,note_on,,0,0,0,,,4,,51,95
38535,note_on,,0,0,0,,,5,,39,95
38555,note_on,,20,0,0,,,4,,51,0
38555,note_on,,0,0,0,,,5,,39,0
38555,note_on,,0,0,0,,,4,,56,95
38555,note_on,,0,0,0,,,5,,44,95
38575,note_on,,20,0,0,,,0,,63,0
38575,note_on,,0,0,0,,,0,,63,95
38575,note_on,,0,0,0,,,1,,60,0
38575,note_on,,0,0,0,,,2,,56,0
38575,note_on,,0,0,0,,,3,,51,0
38575,note_on,,0,0,0,,,6,,80,0
38575,note_on,,0,0,0,,,7,,75,0
38575,note_on,,0,0,0,,,8,,72,0
38575,note_on,,0,0,0,,,4,,56,0
38575,note_on,,0,0,0,,,5,,44,0
38575,note_on,,0,0,0,,,1,,60,95
38575,note_on,,0,0,0,,,2,,56,95
38575,note_on,,0,0,0,,,3,,51,95
38575,note_on,,0,0,0,,,4,,60,95
38575,note_on,,0,0,0,,,5,,48,95
38575,note_on,,0,0,0,,,6,,80,95
38575,note_on,,0,0,0,,,7,,75,95
38575,note_on,,0,0,0,,,8,,72,95
38595,note_on,,20,0,0,,,4,,60,0
38595,note_on,,0,0,0,,,5,,48,0
38595,note_on,,0,0,0,,,4,,62,95
38595,note_on,,0,0,0,,,5,,50,95
38615,note_on,,20,0,0,,,0,,63,0
38615,note_on,,0,0,0,,,0,,63,95
38615,note_on,,0,0,0,,,1,,60,0
38615,note_on,,0,0,0,,,2,,56,0
38615,note_on,,0,0,0,,,3,,51,0
38615,note_on,,0,0,0,,,6,,80,0
38615,note_on,,0,0,0,,,7,,75,0
38615,note_on,,0,0,0,,,8,,72,0
38615,note_on,,0,0,0,,,4,,62,0
38615,note_on,,0,0,0,,,5,,50,0
38615,note_on,,0,0,0,,,1,,60,95
38615,note_on,,0,0,0,,,2,,56,95
38615,note_on,,0,0,0,,,3,,51,95
38615,note_on,,0,0,0,,,4,,63,95
38615,note_on,,0,0,0,,,5,,51,95
38615,note_on,,0,0,0,,,6,,80,95
38615,note_on,,0,0,0,,,7,,75,95
38615,note_on,,0,0,0,,,8,,72,95
38635,note_on,,20,0,0,,,4,,63,0
38635,note_on,,0,0,0,,,5,,51,0
38635,note_on,,0,0,0,,,4,,65,95
38635,note_on,,0,0,0,,,5,,53,95
38655,note_on,,20,0,0,,,0,,63,0
38655,note_on,,0,0,0,,,0,,62,95
38655,note_on,,0,0,0,,,1,,60,0
38655,note_on,,0,0,0,,,2,,56,0
38655,note_on,,0,0,0,,,3,,51,0
38655,note_on,,0,0,0,,,6,,80,0
38655,note_on,,0,0,0,,,7,,75,0
38655,note_on,,0,0,0,,,8,,72,0
38655,note_on,,0,0,0,,,4,,65,0
38655,note_on,,0,0,0,,,5,,53,0
38655,note_on,,0,0,0,,,1,,59,95
38655,note_on,,0,0,0,,,2,,55,95
38655,note_on,,0,0,0,,,3,,50,95
38655,note_on,,0,0,0,,,4,,67,95
38655,note_on,,0,0,0,,,5,,55,95
38655,note_on,,0,0,0,,,6,,79,95
38655,note_on,,0,0,0,,,7,,74,95
38655,note_on,,0,0,0,,,8,,71,95
38695,note_on,,40,0,0,,,4,,67,0
38695,note_on,,0,0,0,,,5,,55,0
38695,note_on,,0,0,0,,,6,,79,0
38695,note_on,,0,0,0,,,7,,74,0
38695,note_on,,0,0,0,,,8,,71,0
38735,note_on,,40,0,0,,,0,,62,0
38735,note_on,,0,0,0,,,1,,59,0
38735,note_on,,0,0,0,,,2,,55,0
38735,note_on,,0,0,0,,,3,,50,0
38735,note_on,,0,0,0,,,6,,86,95
38735,note_on,,0,0,0,,,7,,74,95
38755,note_on,,20,0,0,,,6,,86,0
38755,note_on,,0,0,0,,,7,,74,0
38755,note_on,,0,0,0,,,6,,87,95
38755,note_on,,0,0,0,,,7,,75,95
38775,note_on,,20,0,0,,,6,,87,0
38775,note_on,,0,0,0,,,7,,75,0
38775,note_on,,0,0,0,,,6,,89,95
38775,note_on,,0,0,0,,,7,,77,95
38795,note_on,,20,0,0,,,6,,89,0
38795,note_on,,0,0,0,,,7,,77,0
38795,note_on,,0,0,0,,,6,,91,95
38795,note_on,,0,0,0,,,7,,79,95
38815,note_on,,20,0,0,,,6,,91,0
38815,note_on,,0,0,0,,,0,,75,95
38815,note_on,,0,0,0,,,7,,79,0
38815,note_on,,0,0,0,,,1,,72,95
38815,note_on,,0,0,0,,,2,,68,95
38815,note_on,,0,0,0,,,3,,63,95
38815,note_on,,0,0,0,,,4,,60,95
38815,note_on,,0,0,0,,,5,,48,95
38815,note_on,,0,0,0,,,6,,92,95
38815,note_on,,0,0,0,,,7,,87,95
38815,note_on,,0,0,0,,,8,,84,95
38855,note_on,,40,0,0,,,4,,60,0
38855,note_on,,0,0,0,,,5,,48,0
38855,note_on,,0,0,0,,,4,,63,95
38855,note_on,,0,0,0,,,5,,51,95
38875,note_on,,20,0,0,,,4,,63,0
38875,note_on,,0,0,0,,,5,,51,0
38875,note_on,,0,0,0,,,4,,68,95
38875,note_on,,0,0,0,,,5,,56,95
38895,note_on,,20,0,0,,,0,,75,0
38895,note_on,,0,0,0,,,0,,75,95
38895,note_on,,0,0,0,,,1,,72,0
38895,note_on,,0,0,0,,,2,,68,0
38895,note_on,,0,0,0,,,3,,63,0
38895,note_on,,0,0,0,,,6,,92,0
38895,note_on,,0,0,0,,,7,,87,0
38895,note_on,,0,0,0,,,8,,84,0
38895,note_on,,0,0,0,,,4,,68,0
38895,note_on,,0,0,0,,,5,,56,0
38895,note_on,,0,0,0,,,1,,72,95
38895,note_on,,0,0,0,,,2,,68,95
38895,note_on,,0,0,0,,,3,,63,95
38895,note_on,,0,0,0,,,4,,72,95
38895,note_on,,0,0,0,,,5,,60,95
38895,note_on,,0,0,0,,,6,,92,95
38895,note_on,,0,0,0,,,7,,87,95
38895,note_on,,0,0,0,,,8,,84,95
38915,note_on,,20,0,0,,,4,,72,0
38915,note_on,,0,0,0,,,5,,60,0
38915,note_on,,0,0,0,,,4,,74,95
38915,note_on,,0,0,0,,,5,,62,95
38935,note_on,,20,0,0,,,0,,75,0
38935,note_on,,0,0,0,,,0,,75,95
38935,note_on,,0,0,0,,,1,,72,0
38935,note_on,,0,0,0,,,2,,68,0
38935,note_on,,0,0,0,,,3,,63,0
38935,note_on,,0,0,0,,,6,,92,0
38935,note_on,,0,0,0,,,7,,87,0
38935,note_on,,0,0,0,,,8,,84,0
38935,note_on,,0,0,0,,,4,,74,0
38935,note_on,,0,0,0,,,5,,62,0
38935,note_on,,0,0,0,,,1,,72,95
38935,note_on,,0,0,0,,,2,,68,95
38935,note_on,,0,0,0,,,3,,63,95
38935,note_on,,0,0,0,,,4,,75,95
38935,note_on,,0,0,0,,,5,,63,95
38935,note_on,,0,0,0,,,6,,92,95
38935,note_on,,0,0,0,,,7,,87,95
38935,note_on,,0,0,0,,,8,,84,95
38955,note_on,,20,0,0,,,4,,75,0
38955,note_on,,0,0,0,,,5,,63,0
38955,note_on,,0,0,0,,,4,,77,95
38955,note_on,,0,0,0,,,5,,65,95
38975,note_on,,20,0,0,,,0,,75,0
38975,note_on,,0,0,0,,,0,,74,95
38975,note_on,,0,0,0,,,1,,72,0
38975,note_on,,0,0,0,,,2,,68,0
38975,note_on,,0,0,0,,,3,,63,0
38975,note_on,,0,0,0,,,6,,92,0
38975,note_on,,0,0,0,,,7,,87,0
38975,note_on,,0,0,0,,,8,,84,0
38975,note_on,,0,0,0,,,4,,77,0
38975,note_on,,0,0,0,,,5,,65,0
38975,note_on,,0,0,0,,,1,,71,95
38975,note_on,,0,0,0,,,2,,67,95
38975,note_on,,0,0,0,,,3,,62,95
38975,note_on,,0,0,0,,,4,,79,95
38975,note_on,,0,0,0,,,5,,67,95
38975,note_on,,0,0,0,,,6,,86,95
38975,note_on,,0,0,0,,,7,,83,95
38975,note_on,,0,0,0,,,8,,74,95
38995,note_on,,20,0,0,,,6,,86,0
38995,note_on,,0,0,0,,,8,,74,0
38995,note_on,,0,0,0,,,6,,87,95
38995,note_on,,0,0,0,,,8,,75,95
39015,note_on,,20,0,0,,,4,,79,0
39015,note_on,,0,0,0,,,5,,67,0
39015,note_on,,0,0,0,,,7,,83,0
39015,note_on,,0,0,0,,,6,,87,0
39015,note_on,,0,0,0,,,8,,75,0
39015,note_on,,0,0,0,,,6,,89,95
39015,note_on,,0,0,0,,,8,,77,95
39035,note_on,,20,0,0,,,6,,89,0
39035,note_on,,0,0,0,,,8,,77,0
39035,note_on,,0,0,0,,,6,,91,95
39035,note_on,,0,0,0,,,8,,79,95
39055,note_on,,20,0,0,,,0,,74,0
39055,note_on,,0,0,0,,,0,,87,95
39055,note_on,,0,0,0,,,1,,71,0
39055,note_on,,0,0,0,,,2,,67,0
39055,note_on,,0,0,0,,,3,,62,0
39055,note_on,,0,0,0,,,6,,91,0
39055,note_on,,0,0,0,,,8,,79,0
39055,note_on,,0,0,0,,,1,,84,95
39055,note_on,,0,0,0,,,2,,80,95
39055,note_on,,0,0,0,,,3,,75,95
39055,note_on,,0,0,0,,,4,,72,95
39055,note_on,,0,0,0,,,5,,60,95
39055,note_on,,0,0,0,,,6,,92,95
39055,note_on,,0,0,0,,,7,,87,95
39055,note_on,,0,0,0,,,8,,84,95
39075,note_on,,20,0,0,,,4,,72,0
39075,note_on,,0,0,0,,,5,,60,0
39075,note_on,,0,0,0,,,4,,74,95
39075,note_on,,0,0,0,,,5,,62,95
39095,note_on,,20,0,0,,,0,,87,0
39095,note_on,,0,0,0,,,0,,87,95
39095,note_on,,0,0,0,,,1,,84,0
39095,note_on,,0,0,0,,,2,,80,0
39095,note_on,,0,0,0,,,3,,75,0
39095,note_on,,0,0,0,,,4,,74,0
39095,note_on,,0,0,0,,,5,,62,0
39095,note_on,,0,0,0,,,1,,84,95
39095,note_on,,0,0,0,,,2,,80,95
39095,note_on,,0,0,0,,,3,,75,95
39095,note_on,,0,0,0,,,4,,75,95
39095,note_on,,0,0,0,,,5,,63,95
39115,note_on,,20,0,0,,,4,,75,0
39115,note_on,,0,0,0,,,5,,63,0
39115,note_on,,0,0,0,,,4,,77,95
39115,note_on,,0,0,0,,,5,,65,95
39135,note_on,,20,0,0,,,6,,92,0
39135,note_on,,0,0,0,,,0,,86,95
39135,note_on,,0,0,0,,,7,,87,0
39135,note_on,,0,0,0,,,8,,84,0
39135,note_on,,0,0,0,,,0,,87,0
39135,note_on,,0,0,0,,,1,,84,0
39135,note_on,,0,0,0,,,2,,80,0
39135,note_on,,0,0,0,,,3,,75,0
39135,note_on,,0,0,0,,,4,,77,0
39135,note_on,,0,0,0,,,5,,65,0
39135,note_on,,0,0,0,,,1,,83,95
39135,note_on,,0,0,0,,,2,,79,95
39135,note_on,,0,0,0,,,3,,74,95
39135,note_on,,0,0,0,,,4,,79,95
39135,note_on,,0,0,0,,,5,,67,95
39135,note_on,,0,0,0,,,6,,86,95
39135,note_on,,0,0,0,,,7,,83,95
39135,note_on,,0,0,0,,,8,,74,95
39155,note_on,,20,0,0,,,6,,86,0
39155,note_on,,0,0,0,,,6,,87,95
39175,note_on,,20,0,0,,,4,,79,0
39175,note_on,,0,0,0,,,5,,67,0
39175,note_on,,0,0,0,,,7,,83,0
39175,note_on,,0,0,0,,,8,,74,0
39175,note_on,,0,0,0,,,6,,87,0
39175,note_on,,0,0,0,,,6,,89,95
39195,note_on,,20,0,0,,,6,,89,0
39195,note_on,,0,0,0,,,6,,91,95
39215,note_on,,20,0,0,,,0,,86,0
39215,note_on,,0,0,0,,,0,,75,95
39215,note_on,,0,0,0,,,1,,83,0
39215,note_on,,0,0,0,,,2,,79,0
39215,note_on,,0,0,0,,,3,,74,0
39215,note_on,,0,0,0,,,6,,91,0
39215,note_on,,0,0,0,,,1,,72,95
39215,note_on,,0,0,0,,,2,,68,95
39215,note_on,,0,0,0,,,3,,63,95
39215,note_on,,0,0,0,,,4,,60,95
39215,note_on,,0,0,0,,,5,,48,95
39215,note_on,,0,0,0,,,6,,92,95
39215,note_on,,0,0,0,,,7,,87,95
39215,note_on,,0,0,0,,,8,,84,95
39235,note_on,,20,0,0,,,4,,60,0
39235,note_on,,0,0,0,,,5,,48,0
39235,note_on,,0,0,0,,,4,,62,95
39235,note_on,,0,0,0,,,5,,50,95
39255,note_on,,20,0,0,,,0,,75,0
39255,note_on,,0,0,0,,,0,,75,95
39255,note_on,,0,0,0,,,1,,72,0
39255,note_on,,0,0,0,,,2,,68,0
39255,note_on,,0,0,0,,,3,,63,0
39255,note_on,,0,0,0,,,4,,62,0
39255,note_on,,0,0,0,,,5,,50,0
39255,note_on,,0,0,0,,,1,,72,95
39255,note_on,,0,0,0,,,2,,68,95
39255,note_on,,0,0,0,,,3,,63,95
39255,note_on,,0,0,0,,,4,,63,95
39255,note_on,,0,0,0,,,5,,51,95
39275,note_on,,20,0,0,,,4,,63,0
39275,note_on,,0,0,0,,,5,,51,0
39275,note_on,,0,0,0,,,4,,65,95
39275,note_on,,0,0,0,,,5,,53,95
39295,note_on,,20,0,0,,,6,,92,0
39295,note_on,,0,0,0,,,0,,74,95
39295,note_on,,0,0,0,,,7,,87,0
39295,note_on,,0,0,0,,,8,,84,0
39295,note_on,,0,0,0,,,0,,75,0
39295,note_on,,0,0,0,,,1,,72,0
39295,note_on,,0,0,0,,,2,,68,0
39295,note_on,,0,0,0,,,3,,63,0
39295,note_on,,0,0,0,,,4,,65,0
39295,note_on,,0,0,0,,,5,,53,0
39295,note_on,,0,0,0,,,1,,71,95
39295,note_on,,0,0,0,,,2,,67,95
39295,note_on,,0,0,0,,,3,,62,95
39295,note_on,,0,0,0,,,4,,67,95
39295,note_on,,0,0,0,,,5,,55,95
39295,note_on,,0,0,0,,,6,,86,95
39295,note_on,,0,0,0,,,7,,83,95
39295,note_on,,0,0,0,,,8,,74,95
39315,note_on,,20,0,0,,,6,,86,0
39315,note_on,,0,0,0,,,8,,74,0
39315,note_on,,0,0,0,,,6,,87,95
39315,note_on,,0,0,0,,,8,,75,95
39335,note_on,,20,0,0,,,4,,67,0
39335,note_on,,0,0,0,,,5,,55,0
39335,note_on,,0,0,0,,,7,,83,0
39335,note_on,,0,0,0,,,6,,87,0
39335,note_on,,0,0,0,,,8,,75,0
39335,note_on,,0,0,0,,,6,,89,95
39335,note_on,,0,0,0,,,8,,77,95
39355,note_on,,20,0,0,,,6,,89,0
39355,note_on,,0,0,0,,,8,,77,0
39355,note_on,,0,0,0,,,6,,91,95
39355,note_on,,0,0,0,,,8,,79,95
39375,note_on,,20,0,0,,,0,,74,0
39375,note_on,,0,0,0,,,0,,63,95
39375,note_on,,0,0,0,,,1,,71,0
39375,note_on,,0,0,0,,,2,,67,0
39375,note_on,,0,0,0,,,3,,62,0
39375,note_on,,0,0,0,,,6,,91,0
39375,note_on,,0,0,0,,,8,,79,0
39375,note_on,,0,0,0,,,1,,60,95
39375,note_on,,0,0,0,,,2,,56,95
39375,note_on,,0,0,0,,,3,,51,95
39375,note_on,,0,0,0,,,4,,72,95
39375,note_on,,0,0,0,,,5,,60,95
39375,note_on,,0,0,0,,,6,,92,95
39375,note_on,,0,0,0,,,7,,87,95
39375,note_on,,0,0,0,,,8,,80,95
39395,note_on,,20,0,0,,,4,,72,0
39395,note_on,,0,0,0,,,5,,60,0
39395,note_on,,0,0,0,,,4,,74,95
39395,note_on,,0,0,0,,,5,,62,95
39415,note_on,,20,0,0,,,0,,63,0
39415,note_on,,0,0,0,,,0,,63,95
39415,note_on,,0,0,0,,,1,,60,0
39415,note_on,,0,0,0,,,2,,56,0
39415,note_on,,0,0,0,,,3,,51,0
39415,note_on,,0,0,0,,,4,,74,0
39415,note_on,,0,0,0,,,5,,62,0
39415,note_on,,0,0,0,,,1,,60,95
39415,note_on,,0,0,0,,,2,,56,95
39415,note_on,,0,0,0,,,3,,51,95
39415,note_on,,0,0,0,,,4,,75,95
39415,note_on,,0,0,0,,,5,,63,95
39435,note_on,,20,0,0,,,4,,75,0
39435,note_on,,0,0,0,,,5,,63,0
39435,note_on,,0,0,0,,,4,,77,95
39435,note_on,,0,0,0,,,5,,65,95
39455,note_on,,20,0,0,,,6,,92,0
39455,note_on,,0,0,0,,,0,,62,95
39455,note_on,,0,0,0,,,7,,87,0
39455,note_on,,0,0,0,,,8,,80,0
39455,note_on,,0,0,0,,,0,,63,0
39455,note_on,,0,0,0,,,1,,60,0
39455,note_on,,0,0,0,,,2,,56,0
39455,note_on,,0,0,0,,,3,,51,0
39455,note_on,,0,0,0,,,4,,77,0
39455,note_on,,0,0,0,,,5,,65,0
39455,note_on,,0,0,0,,,1,,59,95
39455,note_on,,0,0,0,,,2,,55,95
39455,note_on,,0,0,0,,,3,,50,95
39455,note_on,,0,0,0,,,4,,79,95
39455,note_on,,0,0,0,,,5,,67,95
39455,note_on,,0,0,0,,,6,,86,95
39455,note_on,,0,0,0,,,7,,83,95
39455,note_on,,0,0,0,,,8,,74,95
39475,note_on,,20,0,0,,,6,,86,0
39475,note_on,,0,0,0,,,8,,74,0
39475,note_on,,0,0,0,,,6,,87,95
39475,note_on,,0,0,0,,,8,,75,95
39495,note_on,,20,0,0,,,0,,62,0
39495,note_on,,0,0,0,,,1,,59,0
39495,note_on,,0,0,0,,,2,,55,0
39495,note_on,,0,0,0,,,3,,50,0
39495,note_on,,0,0,0,,,4,,79,0
39495,note_on,,0,0,0,,,5,,67,0
39495,note_on,,0,0,0,,,7,,83,0
39495,note_on,,0,0,0,,,6,,87,0
39495,note_on,,0,0,0,,,8,,75,0
39495,note_on,,0,0,0,,,6,,89,95
39495,note_on,,0,0,0,,,8,,77,95
39515,note_on,,20,0,0,,,6,,89,0
39515,note_on,,0,0,0,,,8,,77,0
39515,note_on,,0,0,0,,,6,,91,95
39515,note_on,,0,0,0,,,8,,79,95
39535,note_on,,20,0,0,,,6,,91,0
39535,note_on,,0,0,0,,,0,,48,95
39535,note_on,,0,0,0,,,8,,79,0
39535,note_on,,0,0,0,,,1,,36,95
39535,note_on,,0,0,0,,,2,,60,95
39535,note_on,,0,0,0,,,3,,48,95
39535,note_on,,0,0,0,,,4,,92,95
39535,note_on,,0,0,0,,,5,,87,95
39535,note_on,,0,0,0,,,6,,84,95
39535,note_on,,0,0,0,,,7,,80,95
39535,note_on,,0,0,0,,,8,,72,95
39555,note_on,,20,0,0,,,0,,48,0
39555,note_on,,0,0,0,,,0,,50,95
39555,note_on,,0,0,0,,,1,,36,0
39555,note_on,,0,0,0,,,2,,60,0
39555,note_on,,0,0,0,,,3,,48,0
39555,note_on,,0,0,0,,,1,,38,95
39555,note_on,,0,0,0,,,2,,62,95
39555,note_on,,0,0,0,,,3,,50,95
39575,note_on,,20,0,0,,,0,,50,0
39575,note_on,,0,0,0,,,0,,51,95
39575,note_on,,0,0,0,,,1,,38,0
39575,note_on,,0,0,0,,,2,,62,0
39575,note_on,,0,0,0,,,3,,50,0
39575,note_on,,0,0,0,,,1,,39,95
39575,note_on,,0,0,0,,,2,,63,95
39575,note_on,,0,0,0,,,3,,51,95
39595,note_on,,20,0,0,,,0,,51,0
39595,note_on,,0,0,0,,,0,,53,95
39595,note_on,,0,0,0,,,1,,39,0
39595,note_on,,0,0,0,,,2,,63,0
39595,note_on,,0,0,0,,,3,,51,0
39595,note_on,,0,0,0,,,1,,41,95
39595,note_on,,0,0,0,,,2,,65,95
39595,note_on,,0,0,0,,,3,,53,95
39615,note_on,,20,0,0,,,4,,92,0
39615,note_on,,0,0,0,,,0,,55,95
39615,note_on,,0,0,0,,,5,,87,0
39615,note_on,,0,0,0,,,6,,84,0
39615,note_on,,0,0,0,,,7,,80,0
39615,note_on,,0,0,0,,,8,,72,0
39615,note_on,,0,0,0,,,0,,53,0
39615,note_on,,0,0,0,,,1,,41,0
39615,note_on,,0,0,0,,,2,,65,0
39615,note_on,,0,0,0,,,3,,53,0
39615,note_on,,0,0,0,,,1,,31,95
39615,note_on,,0,0,0,,,2,,67,95
39615,note_on,,0,0,0,,,3,,91,95
39615,note_on,,0,0,0,,,4,,86,95
39615,note_on,,0,0,0,,,5,,83,95
39615,note_on,,0,0,0,,,6,,79,95
39615,note_on,,0,0,0,,,7,,74,95
39615,note_on,,0,0,0,,,8,,71,95
39655,note_on,,40,0,0,,,0,,55,0
39655,note_on,,0,0,0,,,1,,31,0
39655,note_on,,0,0,0,,,2,,67,0
39655,note_on,,0,0,0,,,3,,91,0
39655,note_on,,0,0,0,,,4,,86,0
39655,note_on,,0,0,0,,,5,,83,0
39655,note_on,,0,0,0,,,6,,79,0
39655,note_on,,0,0,0,,,7,,74,0
39655,note_on,,0,0,0,,,8,,71,0
39695,note_on,,40,0,0,,,0,,67,95
39735,note_on,,40,0,0,,,0,,67,0
39735,note_on,,0,0,0,,,0,,67,95
39775,note_on,,40,0,0,,,0,,67,0
39775,note_on,,0,0,0,,,0,,67,95
39855,note_on,,80,0,0,,,0,,67,0
39855,note_on,,0,0,0,,,0,,67,95
39895,note_on,,40,0,0,,,0,,67,0
39895,note_on,,0,0,0,,,0,,67,95
39935,note_on,,40,0,0,,,0,,67,0
39935,note_on,,0,0,0,,,0,,67,95
40015,note_on,,80,0,0,,,0,,67,0
40015,note_on,,0,0,0,,,0,,67,95
40055,note_on,,40,0,0,,,0,,67,0
40055,note_on,,0,0,0,,,0,,67,95
40095,note_on,,40,0,0,,,0,,67,0
40095,note_on,,0,0,0,,,0,,67,95
40175,note_on,,80,0,0,,,0,,67,0
40175,note_on,,0,0,0,,,0,,67,95
40215,note_on,,40,0,0,,,0,,67,0
40215,note_on,,0,0,0,,,0,,67,95
40255,note_on,,40,0,0,,,0,,67,0
40255,note_on,,0,0,0,,,0,,80,95
40255,note_on,,0,0,0,,,1,,74,95
40255,note_on,,0,0,0,,,2,,71,95
40255,note_on,,0,0,0,,,3,,68,95
40255,note_on,,0,0,0,,,4,,53,95
40255,note_on,,0,0,0,,,5,,41,95
40255,note_on,,0,0,0,,,6,,62,95
40255,note_on,,0,0,0,,,7,,59,95
40255,note_on,,0,0,0,,,8,,53,95
40335,note_on,,80,0,0,,,0,,80,0
40335,note_on,,0,0,0,,,0,,67,95
40335,note_on,,0,0,0,,,1,,74,0
40335,note_on,,0,0,0,,,2,,71,0
40335,note_on,,0,0,0,,,3,,68,0
40335,note_on,,0,0,0,,,4,,53,0
40335,note_on,,0,0,0,,,5,,41,0
40335,note_on,,0,0,0,,,6,,62,0
40335,note_on,,0,0,0,,,7,,59,0
40335,note_on,,0,0,0,,,8,,53,0
40375,note_on,,40,0,0,,,0,,67,0
40375,note_on,,0,0,0,,,0,,67,95
40415,note_on,,40,0,0,,,0,,67,0
40415,note_on,,0,0,0,,,0,,67,95
40495,note_on,,80,0,0,,,0,,67,0
40495,note_on,,0,0,0,,,0,,71,95
40495,note_on,,0,0,0,,,1,,67,95
40535,note_on,,40,0,0,,,0,,71,0
40535,note_on,,0,0,0,,,0,,71,95
40535,note_on,,0,0,0,,,1,,67,0
40535,note_on,,0,0,0,,,1,,67,95
40575,note_on,,40,0,0,,,0,,71,0
40575,note_on,,0,0,0,,,0,,71,95
40575,note_on,,0,0,0,,,1,,67,0
40575,note_on,,0,0,0,,,1,,68,95
40655,note_on,,80,0,0,,,0,,71,0
40655,note_on,,0,0,0,,,0,,71,95
40655,note_on,,0,0,0,,,1,,68,0
40655,note_on,,0,0,0,,,1,,68,95
40695,note_on,,40,0,0,,,0,,71,0
40695,note_on,,0,0,0,,,0,,71,95
40695,note_on,,0,0,0,,,1,,68,0
40695,note_on,,0,0,0,,,1,,68,95
40735,note_on,,40,0,0,,,0,,71,0
40735,note_on,,0,0,0,,,0,,71,95
40735,note_on,,0,0,0,,,1,,68,0
40735,note_on,,0,0,0,,,1,,68,95
40815,note_on,,80,0,0,,,0,,71,0
40815,note_on,,0,0,0,,,0,,71,95
40815,note_on,,0,0,0,,,1,,68,0
40815,note_on,,0,0,0,,,1,,68,95
40855,note_on,,40,0,0,,,0,,71,0
40855,note_on,,0,0,0,,,0,,71,95
40855,note_on,,0,0,0,,,1,,68,0
40855,note_on,,0,0,0,,,1,,68,95
40895,note_on,,40,0,0,,,0,,71,0
40895,note_on,,0,0,0,,,0,,80,95
40895,note_on,,0,0,0,,,1,,68,0
40895,note_on,,0,0,0,,,1,,73,95
40895,note_on,,0,0,0,,,2,,71,95
40895,note_on,,0,0,0,,,3,,68,95
40895,note_on,,0,0,0,,,4,,53,95
40895,note_on,,0,0,0,,,5,,41,95
40895,note_on,,0,0,0,,,6,,80,95
40895,note_on,,0,0,0,,,7,,61,95
40895,note_on,,0,0,0,,,8,,59,95
40975,note_on,,80,0,0,,,0,,80,0
40975,note_on,,0,0,0,,,0,,71,95
40975,note_on,,0,0,0,,,1,,73,0
40975,note_on,,0,0,0,,,2,,71,0
40975,note_on,,0,0,0,,,3,,68,0
40975,note_on,,0,0,0,,,4,,53,0
40975,note_on,,0,0,0,,,5,,41,0
40975,note_on,,0,0,0,,,6,,80,0
40975,note_on,,0,0,0,,,7,,61,0
40975,note_on,,0,0,0,,,8,,59,0
40975,note_on,,0,0,0,,,1,,68,95
41015,note_on,,40,0,0,,,0,,71,0
41015,note_on,,0,0,0,,,0,,71,95
41015,note_on,,0,0,0,,,1,,68,0
41015,note_on,,0,0,0,,,1,,68,95
41055,note_on,,40,0,0,,,0,,71,0
41055,note_on,,0,0,0,,,0,,73,95
41055,note_on,,0,0,0,,,1,,68,0
41055,note_on,,0,0,0,,,1,,71,95
41055,note_on,,0,0,0,,,2,,68,95
41135,note_on,,80,0,0,,,0,,73,0
41135,note_on,,0,0,0,,,0,,73,95
41135,note_on,,0,0,0,,,1,,71,0
41135,note_on,,0,0,0,,,2,,68,0
41135,note_on,,0,0,0,,,1,,71,95
41135,note_on,,0,0,0,,,2,,68,95
41175,note_on,,40,0,0,,,0,,73,0
41175,note_on,,0,0,0,,,0,,73,95
41175,note_on,,0,0,0,,,1,,71,0
41175,note_on,,0,0,0,,,2,,68,0
41175,note_on,,0,0,0,,,1,,71,95
41175,note_on,,0,0,0,,,2,,68,95
41215,note_on,,40,0,0,,,0,,73,0
41215,note_on,,0,0,0,,,0,,80,95
41215,note_on,,0,0,0,,,1,,71,0
41215,note_on,,0,0,0,,,2,,68,0
41215,note_on,,0,0,0,,,1,,74,95
41215,note_on,,0,0,0,,,2,,71,95
41215,note_on,,0,0,0,,,3,,68,95
41215,note_on,,0,0,0,,,4,,54,95
41215,note_on,,0,0,0,,,5,,42,95
41215,note_on,,0,0,0,,,6,,80,95
41215,note_on,,0,0,0,,,7,,62,95
41215,note_on,,0,0,0,,,8,,59,95
41295,note_on,,80,0,0,,,0,,80,0
41295,note_on,,0,0,0,,,0,,71,95
41295,note_on,,0,0,0,,,1,,74,0
41295,note_on,,0,0,0,,,2,,71,0
41295,note_on,,0,0,0,,,3,,68,0
41295,note_on,,0,0,0,,,4,,54,0
41295,note_on,,0,0,0,,,5,,42,0
41295,note_on,,0,0,0,,,6,,80,0
41295,note_on,,0,0,0,,,7,,62,0
41295,note_on,,0,0,0,,,8,,59,0
41295,note_on,,0,0,0,,,1,,68,95
41335,note_on,,40,0,0,,,0,,71,0
41335,note_on,,0,0,0,,,0,,71,95
41335,note_on,,0,0,0,,,1,,68,0
41335,note_on,,0,0,0,,,1,,68,95
41375,note_on,,40,0,0,,,0,,71,0
41375,note_on,,0,0,0,,,0,,74,95
41375,note_on,,0,0,0,,,1,,68,0
41375,note_on,,0,0,0,,,1,,71,95
41375,note_on,,0,0,0,,,2,,68,95
41455,note_on,,80,0,0,,,0,,74,0
41455,note_on,,0,0,0,,,0,,74,95
41455,note_on,,0,0,0,,,1,,71,0
41455,note_on,,0,0,0,,,2,,68,0
41455,note_on,,0,0,0,,,1,,71,95
41455,note_on,,0,0,0,,,2,,68,95
41495,note_on,,40,0,0,,,0,,74,0
41495,note_on,,0,0,0,,,0,,74,95
41495,note_on,,0,0,0,,,1,,71,0
41495,note_on,,0,0,0,,,2,,68,0
41495,note_on,,0,0,0,,,1,,71,95
41495,note_on,,0,0,0,,,2,,68,95
41535,note_on,,40,0,0,,,0,,74,0
41535,note_on,,0,0,0,,,0,,80,95
41535,note_on,,0,0,0,,,1,,71,0
41535,note_on,,0,0,0,,,2,,68,0
41535,note_on,,0,0,0,,,1,,73,95
41535,note_on,,0,0,0,,,2,,71,95
41535,note_on,,0,0,0,,,3,,68,95
41535,note_on,,0,0,0,,,4,,53,95
41535,note_on,,0,0,0,,,5,,41,95
41535,note_on,,0,0,0,,,6,,80,95
41535,note_on,,0,0,0,,,7,,61,95
41535,note_on,,0,0,0,,,8,,59,95
41615,note_on,,80,0,0,,,0,,80,0
41615,note_on,,0,0,0,,,0,,71,95
41615,note_on,,0,0,0,,,1,,73,0
41615,note_on,,0,0,0,,,2,,71,0
41615,note_on,,0,0,0,,,3,,68,0
41615,note_on,,0,0,0,,,4,,53,0
41615,note_on,,0,0,0,,,5,,41,0
41615,note_on,,0,0,0,,,6,,80,0
41615,note_on,,0,0,0,,,7,,61,0
41615,note_on,,0,0,0,,,8,,59,0
41615,note_on,,0,0,0,,,1,,68,95
41655,note_on,,40,0,0,,,0,,71,0
41655,note_on,,0,0,0,,,0,,71,95
41655,note_on,,0,0,0,,,1,,68,0
41655,note_on,,0,0,0,,,1,,68,95
41695,note_on,,40,0,0,,,0,,71,0
41695,note_on,,0,0,0,,,0,,73,95
41695,note_on,,0,0,0,,,1,,68,0
41695,note_on,,0,0,0,,,1,,71,95
41695,note_on,,0,0,0,,,2,,68,95
41775,note_on,,80,0,0,,,0,,73,0
41775,note_on,,0,0,0,,,0,,73,95
41775,note_on,,0,0,0,,,1,,71,0
41775,note_on,,0,0,0,,,2,,68,0
41775,note_on,,0,0,0,,,1,,71,95
41775,note_on,,0,0,0,,,2,,68,95
41815,note_on,,40,0,0,,,0,,73,0
41815,note_on,,0,0,0,,,0,,73,95
41815,note_on,,0,0,0,,,1,,71,0
41815,note_on,,0,0,0,,,2,,68,0
41815,note_on,,0,0,0,,,1,,71,95
41815,note_on,,0,0,0,,,2,,68,95
41855,note_on,,40,0,0,,,0,,73,0
41855,note_on,,0,0,0,,,0,,80,95
41855,note_on,,0,0,0,,,1,,71,0
41855,note_on,,0,0,0,,,2,,68,0
41855,note_on,,0,0,0,,,1,,74,95
41855,note_on,,0,0,0,,,2,,71,95
41855,note_on,,0,0,0,,,3,,68,95
41855,note_on,,0,0,0,,,4,,54,95
41855,note_on,,0,0,0,,,5,,42,95
41855,note_on,,0,0,0,,,6,,80,95
41855,note_on,,0,0,0,,,7,,62,95
41855,note_on,,0,0,0,,,8,,59,95
41935,note_on,,80,0,0,,,0,,80,0
41935,note_on,,0,0,0,,,0,,71,95
41935,note_on,,0,0,0,,,1,,74,0
41935,note_on,,0,0,0,,,2,,71,0
41935,note_on,,0,0,0,,,3,,68,0
41935,note_on,,0,0,0,,,4,,54,0
41935,note_on,,0,0,0,,,5,,42,0
41935,note_on,,0,0,0,,,6,,80,0
41935,note_on,,0,0,0,,,7,,62,0
41935,note_on,,0,0,0,,,8,,59,0
41935,note_on,,0,0,0,,,1,,68,95
41975,note_on,,40,0,0,,,0,,71,0
41975,note_on,,0,0,0,,,0,,71,95
41975,note_on,,0,0,0,,,1,,68,0
41975,note_on,,0,0,0,,,1,,68,95
42015,note_on,,40,0,0,,,0,,71,0
42015,note_on,,0,0,0,,,0,,74,95
42015,note_on,,0,0,0,,,1,,68,0
42015,note_on,,0,0,0,,,1,,71,95
42015,note_on,,0,0,0,,,2,,68,95
42095,note_on,,80,0,0,,,0,,74,0
42095,note_on,,0,0,0,,,0,,74,95
42095,note_on,,0,0,0,,,1,,71,0
42095,note_on,,0,0,0,,,2,,68,0
42095,note_on,,0,0,0,,,1,,71,95
42095,note_on,,0,0,0,,,2,,68,95
42135,note_on,,40,0,0,,,0,,74,0
42135,note_on,,0,0,0,,,0,,74,95
42135,note_on,,0,0,0,,,1,,71,0
42135,note_on,,0,0,0,,,2,,68,0
42135,note_on,,0,0,0,,,1,,71,95
42135,note_on,,0,0,0,,,2,,68,95
42175,note_on,,40,0,0,,,0,,74,0
42175,note_on,,0,0,0,,,0,,80,95
42175,note_on,,0,0,0,,,1,,71,0
42175,note_on,,0,0,0,,,2,,68,0
42175,note_on,,0,0,0,,,1,,74,95
42175,note_on,,0,0,0,,,2,,71,95
42175,note_on,,0,0,0,,,3,,68,95
42175,note_on,,0,0,0,,,4,,54,95
42175,note_on,,0,0,0,,,5,,42,95
42175,note_on,,0,0,0,,,6,,80,95
42175,note_on,,0,0,0,,,7,,62,95
42175,note_on,,0,0,0,,,8,,59,95
42255,note_on,,80,0,0,,,0,,80,0
42255,note_on,,0,0,0,,,0,,74,95
42255,note_on,,0,0,0,,,1,,74,0
42255,note_on,,0,0,0,,,2,,71,0
42255,note_on,,0,0,0,,,3,,68,0
42255,note_on,,0,0,0,,,4,,54,0
42255,note_on,,0,0,0,,,5,,42,0
42255,note_on,,0,0,0,,,6,,80,0
42255,note_on,,0,0,0,,,7,,62,0
42255,note_on,,0,0,0,,,8,,59,0
42255,note_on,,0,0,0,,,1,,71,95
42255,note_on,,0,0,0,,,2,,62,95
42255,note_on,,0,0,0,,,3,,59,95
42295,note_on,,40,0,0,,,0,,74,0
42295,note_on,,0,0,0,,,0,,74,95
42295,note_on,,0,0,0,,,1,,71,0
42295,note_on,,0,0,0,,,2,,62,0
42295,note_on,,0,0,0,,,3,,59,0
42295,note_on,,0,0,0,,,1,,71,95
42295,note_on,,0,0,0,,,2,,62,95
42295,note_on,,0,0,0,,,3,,59,95
42335,note_on,,40,0,0,,,0,,74,0
42335,note_on,,0,0,0,,,0,,73,95
42335,note_on,,0,0,0,,,1,,71,0
42335,note_on,,0,0,0,,,2,,62,0
42335,note_on,,0,0,0,,,3,,59,0
42335,note_on,,0,0,0,,,1,,71,95
42335,note_on,,0,0,0,,,2,,61,95
42335,note_on,,0,0,0,,,3,,59,95
42335,note_on,,0,0,0,,,4,,80,95
42335,note_on,,0,0,0,,,5,,73,95
42335,note_on,,0,0,0,,,6,,68,95
42335,note_on,,0,0,0,,,7,,54,95
42335,note_on,,0,0,0,,,8,,42,95
42415,note_on,,80,0,0,,,0,,73,0
42415,note_on,,0,0,0,,,0,,73,95
42415,note_on,,0,0,0,,,1,,71,0
42415,note_on,,0,0,0,,,2,,61,0
42415,note_on,,0,0,0,,,3,,59,0
42415,note_on,,0,0,0,,,4,,80,0
42415,note_on,,0,0,0,,,5,,73,0
42415,note_on,,0,0,0,,,6,,68,0
42415,note_on,,0,0,0,,,7,,54,0
42415,note_on,,0,0,0,,,8,,42,0
42415,note_on,,0,0,0,,,1,,71,95
42415,note_on,,0,0,0,,,2,,61,95
42415,note_on,,0,0,0,,,3,,59,95
42455,note_on,,40,0,0,,,0,,73,0
42455,note_on,,0,0,0,,,0,,73,95
42455,note_on,,0,0,0,,,1,,71,0
42455,note_on,,0,0,0,,,2,,61,0
42455,note_on,,0,0,0,,,3,,59,0
42455,note_on,,0,0,0,,,1,,71,95
42455,note_on,,0,0,0,,,2,,61,95
42455,note_on,,0,0,0,,,3,,59,95
42495,note_on,,40,0,0,,,0,,73,0
42495,note_on,,0,0,0,,,0,,73,95
42495,note_on,,0,0,0,,,1,,71,0
42495,note_on,,0,0,0,,,2,,61,0
42495,note_on,,0,0,0,,,3,,59,0
42495,note_on,,0,0,0,,,1,,71,95
42495,note_on,,0,0,0,,,2,,61,95
42495,note_on,,0,0,0,,,3,,59,95
42495,note_on,,0,0,0,,,4,,80,95
42495,note_on,,0,0,0,,,5,,73,95
42495,note_on,,0,0,0,,,6,,68,95
42495,note_on,,0,0,0,,,7,,54,95
42495,note_on,,0,0,0,,,8,,42,95
42575,note_on,,80,0,0,,,0,,73,0
42575,note_on,,0,0,0,,,0,,73,95
42575,note_on,,0,0,0,,,1,,71,0
42575,note_on,,0,0,0,,,2,,61,0
42575,note_on,,0,0,0,,,3,,59,0
42575,note_on,,0,0,0,,,4,,80,0
42575,note_on,,0,0,0,,,5,,73,0
42575,note_on,,0,0,0,,,6,,68,0
42575,note_on,,0,0,0,,,7,,54,0
42575,note_on,,0,0,0,,,8,,42,0
42575,note_on,,0,0,0,,,1,,71,95
42575,note_on,,0,0,0,,,2,,61,95
42575,note_on,,0,0,0,,,3,,59,95
42615,note_on,,40,0,0,,,0,,73,0
42615,note_on,,0,0,0,,,0,,73,95
42615,note_on,,0,0,0,,,1,,71,0
42615,note_on,,0,0,0,,,2,,61,0
42615,note_on,,0,0,0,,,3,,59,0
42615,note_on,,0,0,0,,,1,,71,95
42615,note_on,,0,0,0,,,2,,61,95
42615,note_on,,0,0,0,,,3,,59,95
42655,note_on,,40,0,0,,,0,,73,0
42655,note_on,,0,0,0,,,0,,73,95
42655,note_on,,0,0,0,,,1,,71,0
42655,note_on,,0,0,0,,,2,,61,0
42655,note_on,,0,0,0,,,3,,59,0
42655,note_on,,0,0,0,,,1,,69,95
42655,note_on,,0,0,0,,,2,,61,95
42655,note_on,,0,0,0,,,3,,57,95
42655,note_on,,0,0,0,,,4,,78,95
42655,note_on,,0,0,0,,,5,,73,95
42655,note_on,,0,0,0,,,6,,66,95
42655,note_on,,0,0,0,,,7,,57,95
42655,note_on,,0,0,0,,,8,,45,95
42735,note_on,,80,0,0,,,0,,73,0
42735,note_on,,0,0,0,,,0,,69,95
42735,note_on,,0,0,0,,,1,,69,0
42735,note_on,,0,0,0,,,2,,61,0
42735,note_on,,0,0,0,,,3,,57,0
42735,note_on,,0,0,0,,,4,,78,0
42735,note_on,,0,0,0,,,5,,73,0
42735,note_on,,0,0,0,,,6,,66,0
42735,note_on,,0,0,0,,,7,,57,0
42735,note_on,,0,0,0,,,8,,45,0
42735,note_on,,0,0,0,,,1,,66,95
42735,note_on,,0,0,0,,,2,,57,95
42735,note_on,,0,0,0,,,3,,54,95
42775,note_on,,40,0,0,,,0,,69,0
42775,note_on,,0,0,0,,,0,,69,95
42775,note_on,,0,0,0,,,1,,66,0
42775,note_on,,0,0,0,,,2,,57,0
42775,note_on,,0,0,0,,,3,,54,0
42775,note_on,,0,0,0,,,1,,66,95
42775,note_on,,0,0,0,,,2,,57,95
42775,note_on,,0,0,0,,,3,,54,95
42815,note_on,,40,0,0,,,0,,69,0
42815,note_on,,0,0,0,,,0,,68,95
42815,note_on,,0,0,0,,,1,,66,0
42815,note_on,,0,0,0,,,2,,57,0
42815,note_on,,0,0,0,,,3,,54,0
42815,note_on,,0,0,0,,,1,,66,95
42815,note_on,,0,0,0,,,2,,56,95
42815,note_on,,0,0,0,,,3,,54,95
42815,note_on,,0,0,0,,,4,,78,95
42815,note_on,,0,0,0,,,5,,73,95
42815,note_on,,0,0,0,,,6,,66,95
42815,note_on,,0,0,0,,,7,,49,95
42815,note_on,,0,0,0,,,8,,37,95
42895,note_on,,80,0,0,,,0,,68,0
42895,note_on,,0,0,0,,,0,,68,95
42895,note_on,,0,0,0,,,1,,66,0
42895,note_on,,0,0,0,,,2,,56,0
42895,note_on,,0,0,0,,,3,,54,0
42895,note_on,,0,0,0,,,4,,78,0
42895,note_on,,0,0,0,,,5,,73,0
42895,note_on,,0,0,0,,,6,,66,0
42895,note_on,,0,0,0,,,7,,49,0
42895,note_on,,0,0,0,,,8,,37,0
42895,note_on,,0,0,0,,,1,,66,95
42895,note_on,,0,0,0,,,2,,56,95
42895,note_on,,0,0,0,,,3,,54,95
42935,note_on,,40,0,0,,,0,,68,0
42935,note_on,,0,0,0,,,0,,68,95
42935,note_on,,0,0,0,,,1,,66,0
42935,note_on,,0,0,0,,,2,,56,0
42935,note_on,,0,0,0,,,3,,54,0
42935,note_on,,0,0,0,,,1,,66,95
42935,note_on,,0,0,0,,,2,,56,95
42935,note_on,,0,0,0,,,3,,54,95
42975,note_on,,40,0,0,,,0,,68,0
42975,note_on,,0,0,0,,,0,,68,95
42975,note_on,,0,0,0,,,1,,66,0
42975,note_on,,0,0,0,,,2,,56,0
42975,note_on,,0,0,0,,,3,,54,0
42975,note_on,,0,0,0,,,1,,64,95
42975,note_on,,0,0,0,,,2,,56,95
42975,note_on,,0,0,0,,,3,,52,95
42975,note_on,,0,0,0,,,4,,76,95
42975,note_on,,0,0,0,,,5,,73,95
42975,note_on,,0,0,0,,,6,,64,95
42975,note_on,,0,0,0,,,7,,52,95
42975,note_on,,0,0,0,,,8,,40,95
43055,note_on,,80,0,0,,,0,,68,0
43055,note_on,,0,0,0,,,0,,68,95
43055,note_on,,0,0,0,,,1,,64,0
43055,note_on,,0,0,0,,,2,,56,0
43055,note_on,,0,0,0,,,3,,52,0
43055,note_on,,0,0,0,,,4,,76,0
43055,note_on,,0,0,0,,,5,,73,0
43055,note_on,,0,0,0,,,6,,64,0
43055,note_on,,0,0,0,,,7,,52,0
43055,note_on,,0,0,0,,,8,,40,0
43055,note_on,,0,0,0,,,1,,64,95
43055,note_on,,0,0,0,,,2,,56,95
43055,note_on,,0,0,0,,,3,,52,95
43095,note_on,,40,0,0,,,0,,68,0
43095,note_on,,0,0,0,,,0,,68,95
43095,note_on,,0,0,0,,,1,,64,0
43095,note_on,,0,0,0,,,2,,56,0
43095,note_on,,0,0,0,,,3,,52,0
43095,note_on,,0,0,0,,,1,,64,95
43095,note_on,,0,0,0,,,2,,56,95
43095,note_on,,0,0,0,,,3,,52,95
43135,note_on,,40,0,0,,,0,,68,0
43135,note_on,,0,0,0,,,0,,72,95
43135,note_on,,0,0,0,,,1,,64,0
43135,note_on,,0,0,0,,,2,,56,0
43135,note_on,,0,0,0,,,3,,52,0
43135,note_on,,0,0,0,,,1,,68,95
43135,note_on,,0,0,0,,,2,,63,95
43135,note_on,,0,0,0,,,3,,60,95
43135,note_on,,0,0,0,,,4,,56,95
43135,note_on,,0,0,0,,,5,,51,95
43135,note_on,,0,0,0,,,6,,75,95
43135,note_on,,0,0,0,,,7,,56,95
43135,note_on,,0,0,0,,,8,,44,95
43215,note_on,,80,0,0,,,0,,72,0
43215,note_on,,0,0,0,,,0,,72,95
43215,note_on,,0,0,0,,,1,,68,0
43215,note_on,,0,0,0,,,2,,63,0
43215,note_on,,0,0,0,,,3,,60,0
43215,note_on,,0,0,0,,,4,,56,0
43215,note_on,,0,0,0,,,5,,51,0
43215,note_on,,0,0,0,,,6,,75,0
43215,note_on,,0,0,0,,,7,,56,0
43215,note_on,,0,0,0,,,8,,44,0
43215,note_on,,0,0,0,,,1,,68,95
43215,note_on,,0,0,0,,,2,,63,95
43215,note_on,,0,0,0,,,3,,60,95
43215,note_on,,0,0,0,,,4,,56,95
43215,note_on,,0,0,0,,,5,,51,95
43255,note_on,,40,0,0,,,0,,72,0
43255,note_on,,0,0,0,,,0,,72,95
43255,note_on,,0,0,0,,,1,,68,0
43255,note_on,,0,0,0,,,2,,63,0
43255,note_on,,0,0,0,,,3,,60,0
43255,note_on,,0,0,0,,,4,,56,0
43255,note_on,,0,0,0,,,5,,51,0
43255,note_on,,0,0,0,,,1,,68,95
43255,note_on,,0,0,0,,,2,,63,95
43255,note_on,,0,0,0,,,3,,60,95
43255,note_on,,0,0,0,,,4,,56,95
43255,note_on,,0,0,0,,,5,,51,95
43295,note_on,,40,0,0,,,0,,72,0
43295,note_on,,0,0,0,,,0,,73,95
43295,note_on,,0,0,0,,,1,,68,0
43295,note_on,,0,0,0,,,2,,63,0
43295,note_on,,0,0,0,,,3,,60,0
43295,note_on,,0,0,0,,,4,,56,0
43295,note_on,,0,0,0,,,5,,51,0
43295,note_on,,0,0,0,,,1,,67,95
43295,note_on,,0,0,0,,,2,,63,95
43295,note_on,,0,0,0,,,3,,61,95
43295,note_on,,0,0,0,,,4,,55,95
43295,note_on,,0,0,0,,,5,,51,95
43295,note_on,,0,0,0,,,6,,75,95
43295,note_on,,0,0,0,,,7,,58,95
43295,note_on,,0,0,0,,,8,,46,95
43375,note_on,,80,0,0,,,0,,73,0
43375,note_on,,0,0,0,,,0,,73,95
43375,note_on,,0,0,0,,,1,,67,0
43375,note_on,,0,0,0,,,2,,63,0
43375,note_on,,0,0,0,,,3,,61,0
43375,note_on,,0,0,0,,,4,,55,0
43375,note_on,,0,0,0,,,5,,51,0
43375,note_on,,0,0,0,,,6,,75,0
43375,note_on,,0,0,0,,,7,,58,0
43375,note_on,,0,0,0,,,8,,46,0
43375,note_on,,0,0,0,,,1,,67,95
43375,note_on,,0,0,0,,,2,,63,95
43375,note_on,,0,0,0,,,3,,61,95
43375,note_on,,0,0,0,,,4,,55,95
43375,note_on,,0,0,0,,,5,,51,95
43415,note_on,,40,0,0,,,0,,73,0
43415,note_on,,0,0,0,,,0,,73,95
43415,note_on,,0,0,0,,,1,,67,0
43415,note_on,,0,0,0,,,2,,63,0
43415,note_on,,0,0,0,,,3,,61,0
43415,note_on,,0,0,0,,,4,,55,0
43415,note_on,,0,0,0,,,5,,51,0
43415,note_on,,0,0,0,,,1,,67,95
43415,note_on,,0,0,0,,,2,,63,95
43415,note_on,,0,0,0,,,3,,61,95
43415,note_on,,0,0,0,,,4,,55,95
43415,note_on,,0,0,0,,,5,,51,95
43455,note_on,,40,0,0,,,0,,73,0
43455,note_on,,0,0,0,,,0,,72,95
43455,note_on,,0,0,0,,,1,,67,0
43455,note_on,,0,0,0,,,2,,63,0
43455,note_on,,0,0,0,,,3,,61,0
43455,note_on,,0,0,0,,,4,,55,0
43455,note_on,,0,0,0,,,5,,51,0
43455,note_on,,0,0,0,,,1,,68,95
43455,note_on,,0,0,0,,,2,,63,95
43455,note_on,,0,0,0,,,3,,60,95
43455,note_on,,0,0,0,,,4,,56,95
43455,note_on,,0,0,0,,,5,,51,95
43455,note_on,,0,0,0,,,6,,75,95
43455,note_on,,0,0,0,,,7,,72,95
43455,note_on,,0,0,0,,,8,,44,95
43535,note_on,,80,0,0,,,0,,72,0
43535,note_on,,0,0,0,,,1,,68,0
43535,note_on,,0,0,0,,,2,,63,0
43535,note_on,,0,0,0,,,3,,60,0
43535,note_on,,0,0,0,,,4,,56,0
43535,note_on,,0,0,0,,,5,,51,0
43535,note_on,,0,0,0,,,6,,75,0
43535,note_on,,0,0,0,,,7,,72,0
43535,note_on,,0,0,0,,,8,,44,0
43535,note_on,,0,0,0,,,2,,63,95
43535,note_on,,0,0,0,,,3,,60,95
43575,note_on,,40,0,0,,,2,,63,0
43575,note_on,,0,0,0,,,3,,60,0
43575,note_on,,0,0,0,,,2,,63,95
43575,note_on,,0,0,0,,,3,,60,95
43615,note_on,,40,0,0,,,2,,63,0
43615,note_on,,0,0,0,,,3,,60,0
43615,note_on,,0,0,0,,,2,,63,95
43615,note_on,,0,0,0,,,3,,60,95
43695,note_on,,80,0,0,,,2,,63,0
43695,note_on,,0,0,0,,,0,,44,95
43695,note_on,,0,0,0,,,3,,60,0
43695,note_on,,0,0,0,,,1,,32,95
43695,note_on,,0,0,0,,,2,,63,95
43695,note_on,,0,0,0,,,3,,60,95
43715,note_on,,20,0,0,,,0,,44,0
43715,note_on,,0,0,0,,,0,,48,95
43715,note_on,,0,0,0,,,1,,32,0
43715,note_on,,0,0,0,,,1,,36,95
43735,note_on,,20,0,0,,,2,,63,0
43735,note_on,,0,0,0,,,0,,51,95
43735,note_on,,0,0,0,,,3,,60,0
43735,note_on,,0,0,0,,,0,,48,0
43735,note_on,,0,0,0,,,1,,36,0
43735,note_on,,0,0,0,,,1,,39,95
43735,note_on,,0,0,0,,,2,,63,95
43735,note_on,,0,0,0,,,3,,60,95
43755,note_on,,20,0,0,,,0,,51,0
43755,note_on,,0,0,0,,,0,,56,95
43755,note_on,,0,0,0,,,1,,39,0
43755,note_on,,0,0,0,,,1,,44,95
43775,note_on,,20,0,0,,,2,,63,0
43775,note_on,,0,0,0,,,0,,57,95
43775,note_on,,0,0,0,,,3,,60,0
43775,note_on,,0,0,0,,,0,,56,0
43775,note_on,,0,0,0,,,1,,44,0
43775,note_on,,0,0,0,,,1,,45,95
43775,note_on,,0,0,0,,,2,,63,95
43775,note_on,,0,0,0,,,3,,61,95
43815,note_on,,40,0,0,,,0,,57,0
43815,note_on,,0,0,0,,,1,,45,0
43855,note_on,,40,0,0,,,2,,63,0
43855,note_on,,0,0,0,,,3,,61,0
43855,note_on,,0,0,0,,,2,,63,95
43855,note_on,,0,0,0,,,3,,61,95
43895,note_on,,40,0,0,,,2,,63,0
43895,note_on,,0,0,0,,,3,,61,0
43895,note_on,,0,0,0,,,2,,63,95
43895,note_on,,0,0,0,,,3,,61,95
43935,note_on,,40,0,0,,,2,,63,0
43935,note_on,,0,0,0,,,3,,61,0
43935,note_on,,0,0,0,,,2,,63,95
43935,note_on,,0,0,0,,,3,,61,95
44015,note_on,,80,0,0,,,2,,63,0
44015,note_on,,0,0,0,,,0,,43,95
44015,note_on,,0,0,0,,,3,,61,0
44015,note_on,,0,0,0,,,1,,31,95
44015,note_on,,0,0,0,,,2,,63,95
44015,note_on,,0,0,0,,,3,,61,95
44035,note_on,,20,0,0,,,0,,43,0
44035,note_on,,0,0,0,,,0,,46,95
44035,note_on,,0,0,0,,,1,,31,0
44035,note_on,,0,0,0,,,1,,34,95
44055,note_on,,20,0,0,,,2,,63,0
44055,note_on,,0,0,0,,,0,,51,95
44055,note_on,,0,0,0,,,3,,61,0
44055,note_on,,0,0,0,,,0,,46,0
44055,note_on,,0,0,0,,,1,,34,0
44055,note_on,,0,0,0,,,1,,39,95
44055,note_on,,0,0,0,,,2,,63,95
44055,note_on,,0,0,0,,,3,,61,95
44075,note_on,,20,0,0,,,0,,51,0
44075,note_on,,0,0,0,,,0,,55,95
44075,note_on,,0,0,0,,,1,,39,0
44075,note_on,,0,0,0,,,1,,43,95
44095,note_on,,20,0,0,,,2,,63,0
44095,note_on,,0,0,0,,,0,,56,95
44095,note_on,,0,0,0,,,3,,61,0
44095,note_on,,0,0,0,,,0,,55,0
44095,note_on,,0,0,0,,,1,,43,0
44095,note_on,,0,0,0,,,1,,44,95
44095,note_on,,0,0,0,,,2,,63,95
44095,note_on,,0,0,0,,,3,,60,95
44135,note_on,,40,0,0,,,0,,56,0
44135,note_on,,0,0,0,,,1,,44,0
44175,note_on,,40,0,0,,,2,,63,0
44175,note_on,,0,0,0,,,3,,60,0
44175,note_on,,0,0,0,,,2,,63,95
44175,note_on,,0,0,0,,,3,,60,95
44215,note_on,,40,0,0,,,2,,63,0
44215,note_on,,0,0,0,,,3,,60,0
44215,note_on,,0,0,0,,,2,,63,95
44215,note_on,,0,0,0,,,3,,60,95
44255,note_on,,40,0,0,,,2,,63,0
44255,note_on,,0,0,0,,,3,,60,0
44255,note_on,,0,0,0,,,2,,63,95
44255,note_on,,0,0,0,,,3,,60,95
44335,note_on,,80,0,0,,,2,,63,0
44335,note_on,,0,0,0,,,0,,44,95
44335,note_on,,0,0,0,,,3,,60,0
44335,note_on,,0,0,0,,,1,,32,95
44335,note_on,,0,0,0,,,2,,63,95
44335,note_on,,0,0,0,,,3,,60,95
44355,note_on,,20,0,0,,,0,,44,0
44355,note_on,,0,0,0,,,0,,48,95
44355,note_on,,0,0,0,,,1,,32,0
44355,note_on,,0,0,0,,,1,,36,95
44375,note_on,,20,0,0,,,2,,63,0
44375,note_on,,0,0,0,,,0,,51,95
44375,note_on,,0,0,0,,,3,,60,0
44375,note_on,,0,0,0,,,0,,48,0
44375,note_on,,0,0,0,,,1,,36,0
44375,note_on,,0,0,0,,,1,,39,95
44375,note_on,,0,0,0,,,2,,63,95
44375,note_on,,0,0,0,,,3,,60,95
44395,note_on,,20,0,0,,,0,,51,0
44395,note_on,,0,0,0,,,0,,56,95
44395,note_on,,0,0,0,,,1,,39,0
44395,note_on,,0,0,0,,,1,,44,95
44415,note_on,,20,0,0,,,2,,63,0
44415,note_on,,0,0,0,,,0,,57,95
44415,note_on,,0,0,0,,,3,,60,0
44415,note_on,,0,0,0,,,0,,56,0
44415,note_on,,0,0,0,,,1,,44,0
44415,note_on,,0,0,0,,,1,,45,95
44415,note_on,,0,0,0,,,2,,63,95
44415,note_on,,0,0,0,,,3,,61,95
44455,note_on,,40,0,0,,,0,,57,0
44455,note_on,,0,0,0,,,1,,45,0
44495,note_on,,40,0,0,,,2,,63,0
44495,note_on,,0,0,0,,,3,,61,0
44495,note_on,,0,0,0,,,2,,63,95
44495,note_on,,0,0,0,,,3,,61,95
44535,note_on,,40,0,0,,,2,,63,0
44535,note_on,,0,0,0,,,3,,61,0
44535,note_on,,0,0,0,,,2,,63,95
44535,note_on,,0,0,0,,,3,,61,95
44575,note_on,,40,0,0,,,2,,63,0
44575,note_on,,0,0,0,,,3,,61,0
44575,note_on,,0,0,0,,,2,,63,95
44575,note_on,,0,0,0,,,3,,61,95
44655,note_on,,80,0,0,,,2,,63,0
44655,note_on,,0,0,0,,,0,,43,95
44655,note_on,,0,0,0,,,3,,61,0
44655,note_on,,0,0,0,,,1,,31,95
44655,note_on,,0,0,0,,,2,,63,95
44655,note_on,,0,0,0,,,3,,61,95
44675,note_on,,20,0,0,,,0,,43,0
44675,note_on,,0,0,0,,,0,,46,95
44675,note_on,,0,0,0,,,1,,31,0
44675,note_on,,0,0,0,,,1,,34,95
44695,note_on,,20,0,0,,,2,,63,0
44695,note_on,,0,0,0,,,0,,51,95
44695,note_on,,0,0,0,,,3,,61,0
44695,note_on,,0,0,0,,,0,,46,0
44695,note_on,,0,0,0,,,1,,34,0
44695,note_on,,0,0,0,,,1,,39,95
44695,note_on,,0,0,0,,,2,,63,95
44695,note_on,,0,0,0,,,3,,61,95
44715,note_on,,20,0,0,,,0,,51,0
44715,note_on,,0,0,0,,,0,,55,95
44715,note_on,,0,0,0,,,1,,39,0
44715,note_on,,0,0,0,,,1,,43,95
44735,note_on,,20,0,0,,,2,,63,0
44735,note_on,,0,0,0,,,0,,56,95
44735,note_on,,0,0,0,,,3,,61,0
44735,note_on,,0,0,0,,,0,,55,0
44735,note_on,,0,0,0,,,1,,43,0
44735,note_on,,0,0,0,,,1,,44,95
44735,note_on,,0,0,0,,,2,,63,95
44735,note_on,,0,0,0,,,3,,60,95
44775,note_on,,40,0,0,,,0,,56,0
44775,note_on,,0,0,0,,,1,,44,0
44815,note_on,,40,0,0,,,2,,63,0
44815,note_on,,0,0,0,,,3,,60,0
44815,note_on,,0,0,0,,,2,,68,95
44815,note_on,,0,0,0,,,3,,56,95
44855,note_on,,40,0,0,,,2,,68,0
44855,note_on,,0,0,0,,,3,,56,0
44855,note_on,,0,0,0,,,2,,68,95
44855,note_on,,0,0,0,,,3,,56,95
44895,note_on,,40,0,0,,,2,,68,0
44895,note_on,,0,0,0,,,3,,56,0
44895,note_on,,0,0,0,,,2,,68,95
44895,note_on,,0,0,0,,,3,,56,95
44975,note_on,,80,0,0,,,2,,68,0
44975,note_on,,0,0,0,,,0,,60,95
44975,note_on,,0,0,0,,,3,,56,0
44975,note_on,,0,0,0,,,1,,56,95
44975,note_on,,0,0,0,,,2,,48,95
44975,note_on,,0,0,0,,,3,,44,95
44975,note_on,,0,0,0,,,4,,32,95
45015,note_on,,40,0,0,,,1,,56,0
45015,note_on,,0,0,0,,,2,,48,0
45015,note_on,,0,0,0,,,3,,44,0
45015,note_on,,0,0,0,,,1,,56,95
45015,note_on,,0,0,0,,,2,,48,95
45015,note_on,,0,0,0,,,3,,44,95
45055,note_on,,40,0,0,,,1,,56,0
45055,note_on,,0,0,0,,,2,,48,0
45055,note_on,,0,0,0,,,3,,44,0
45055,note_on,,0,0,0,,,1,,56,95
45055,note_on,,0,0,0,,,2,,48,95
45055,note_on,,0,0,0,,,3,,44,95
45135,note_on,,80,0,0,,,0,,60,0
45135,note_on,,0,0,0,,,0,,68,95
45135,note_on,,0,0,0,,,4,,32,0
45135,note_on,,0,0,0,,,1,,56,0
45135,note_on,,0,0,0,,,2,,48,0
45135,note_on,,0,0,0,,,3,,44,0
45135,note_on,,0,0,0,,,1,,56,95
45175,note_on,,40,0,0,,,0,,68,0
45175,note_on,,0,0,0,,,0,,68,95
45175,note_on,,0,0,0,,,1,,56,0
45175,note_on,,0,0,0,,,1,,56,95
45215,note_on,,40,0,0,,,0,,68,0
45215,note_on,,0,0,0,,,0,,68,95
45215,note_on,,0,0,0,,,1,,56,0
45215,note_on,,0,0,0,,,1,,56,95
45295,note_on,,80,0,0,,,0,,68,0
45295,note_on,,0,0,0,,,0,,60,95
45295,note_on,,0,0,0,,,1,,56,0
45295,note_on,,0,0,0,,,1,,56,95
45295,note_on,,0,0,0,,,2,,48,95
45295,note_on,,0,0,0,,,3,,44,95
45295,note_on,,0,0,0,,,4,,32,95
45335,note_on,,40,0,0,,,0,,60,0
45335,note_on,,0,0,0,,,0,,60,95
45335,note_on,,0,0,0,,,1,,56,0
45335,note_on,,0,0,0,,,2,,48,0
45335,note_on,,0,0,0,,,3,,44,0
45335,note_on,,0,0,0,,,4,,32,0
45335,note_on,,0,0,0,,,1,,56,95
45335,note_on,,0,0,0,,,2,,48,95
45335,note_on,,0,0,0,,,3,,44,95
45335,note_on,,0,0,0,,,4,,32,95
45375,note_on,,40,0,0,,,0,,60,0
45375,note_on,,0,0,0,,,0,,60,95
45375,note_on,,0,0,0,,,1,,56,0
45375,note_on,,0,0,0,,,2,,48,0
45375,note_on,,0,0,0,,,3,,44,0
45375,note_on,,0,0,0,,,4,,32,0
45375,note_on,,0,0,0,,,1,,56,95
45375,note_on,,0,0,0,,,2,,48,95
45375,note_on,,0,0,0,,,3,,44,95
45375,note_on,,0,0,0,,,4,,32,95
45455,note_on,,80,0,0,,,0,,60,0
45455,note_on,,0,0,0,,,0,,68,95
45455,note_on,,0,0,0,,,1,,56,0
45455,note_on,,0,0,0,,,2,,48,0
45455,note_on,,0,0,0,,,3,,44,0
45455,note_on,,0,0,0,,,4,,32,0
45455,note_on,,0,0,0,,,1,,56,95
45495,note_on,,40,0,0,,,0,,68,0
45495,note_on,,0,0,0,,,0,,68,95
45495,note_on,,0,0,0,,,1,,56,0
45495,note_on,,0,0,0,,,1,,56,95
45535,note_on,,40,0,0,,,0,,68,0
45535,note_on,,0,0,0,,,0,,68,95
45535,note_on,,0,0,0,,,1,,56,0
45535,note_on,,0,0,0,,,1,,56,95
45615,note_on,,80,0,0,,,0,,68,0
45615,note_on,,0,0,0,,,0,,61,95
45615,note_on,,0,0,0,,,1,,56,0
45615,note_on,,0,0,0,,,1,,56,95
45615,note_on,,0,0,0,,,2,,49,95
45615,note_on,,0,0,0,,,3,,45,95
45615,note_on,,0,0,0,,,4,,33,95
45655,note_on,,40,0,0,,,0,,61,0
45655,note_on,,0,0,0,,,0,,61,95
45655,note_on,,0,0,0,,,1,,56,0
45655,note_on,,0,0,0,,,2,,49,0
45655,note_on,,0,0,0,,,3,,45,0
45655,note_on,,0,0,0,,,4,,33,0
45655,note_on,,0,0,0,,,1,,56,95
45655,note_on,,0,0,0,,,2,,49,95
45655,note_on,,0,0,0,,,3,,45,95
45655,note_on,,0,0,0,,,4,,33,95
45695,note_on,,40,0,0,,,0,,61,0
45695,note_on,,0,0,0,,,0,,61,95
45695,note_on,,0,0,0,,,1,,56,0
45695,note_on,,0,0,0,,,2,,49,0
45695,note_on,,0,0,0,,,3,,45,0
45695,note_on,,0,0,0,,,4,,33,0
45695,note_on,,0,0,0,,,1,,56,95
45695,note_on,,0,0,0,,,2,,49,95
45695,note_on,,0,0,0,,,3,,45,95
45695,note_on,,0,0,0,,,4,,33,95
45775,note_on,,80,0,0,,,0,,61,0
45775,note_on,,0,0,0,,,0,,68,95
45775,note_on,,0,0,0,,,1,,56,0
45775,note_on,,0,0,0,,,2,,49,0
45775,note_on,,0,0,0,,,3,,45,0
45775,note_on,,0,0,0,,,4,,33,0
45775,note_on,,0,0,0,,,1,,56,95
45815,note_on,,40,0,0,,,0,,68,0
45815,note_on,,0,0,0,,,0,,68,95
45815,note_on,,0,0,0,,,1,,56,0
45815,note_on,,0,0,0,,,1,,56,95
45855,note_on,,40,0,0,,,0,,68,0
45855,note_on,,0,0,0,,,0,,68,95
45855,note_on,,0,0,0,,,1,,56,0
45855,note_on,,0,0,0,,,1,,56,95
45935,note_on,,80,0,0,,,0,,68,0
45935,note_on,,0,0,0,,,0,,61,95
45935,note_on,,0,0,0,,,1,,56,0
45935,note_on,,0,0,0,,,1,,56,95
45935,note_on,,0,0,0,,,2,,49,95
45935,note_on,,0,0,0,,,3,,45,95
45935,note_on,,0,0,0,,,4,,33,95
45975,note_on,,40,0,0,,,1,,56,0
45975,note_on,,0,0,0,,,2,,49,0
45975,note_on,,0,0,0,,,3,,45,0
45975,note_on,,0,0,0,,,4,,33,0
45975,note_on,,0,0,0,,,1,,56,95
45975,note_on,,0,0,0,,,2,,49,95
45975,note_on,,0,0,0,,,3,,45,95
45975,note_on,,0,0,0,,,4,,33,95
46015,note_on,,40,0,0,,,0,,61,0
46015,note_on,,0,0,0,,,0,,63,95
46015,note_on,,0,0,0,,,1,,56,0
46015,note_on,,0,0,0,,,2,,49,0
46015,note_on,,0,0,0,,,3,,45,0
46015,note_on,,0,0,0,,,4,,33,0
46015,note_on,,0,0,0,,,1,,56,95
46015,note_on,,0,0,0,,,2,,51,95
46015,note_on,,0,0,0,,,3,,48,95
46015,note_on,,0,0,0,,,4,,36,95
46095,note_on,,80,0,0,,,0,,63,0
46095,note_on,,0,0,0,,,0,,68,95
46095,note_on,,0,0,0,,,1,,56,0
46095,note_on,,0,0,0,,,2,,51,0
46095,note_on,,0,0,0,,,3,,48,0
46095,note_on,,0,0,0,,,4,,36,0
46095,note_on,,0,0,0,,,1,,66,95
46095,note_on,,0,0,0,,,2,,63,95
46095,note_on,,0,0,0,,,3,,56,95
46135,note_on,,40,0,0,,,0,,68,0
46135,note_on,,0,0,0,,,0,,68,95
46135,note_on,,0,0,0,,,1,,66,0
46135,note_on,,0,0,0,,,2,,63,0
46135,note_on,,0,0,0,,,3,,56,0
46135,note_on,,0,0,0,,,1,,66,95
46135,note_on,,0,0,0,,,2,,63,95
46135,note_on,,0,0,0,,,3,,56,95
46175,note_on,,40,0,0,,,0,,68,0
46175,note_on,,0,0,0,,,0,,68,95
46175,note_on,,0,0,0,,,1,,66,0
46175,note_on,,0,0,0,,,2,,63,0
46175,note_on,,0,0,0,,,3,,56,0
46175,note_on,,0,0,0,,,1,,66,95
46175,note_on,,0,0,0,,,2,,63,95
46175,note_on,,0,0,0,,,3,,56,95
46255,note_on,,80,0,0,,,0,,68,0
46255,note_on,,0,0,0,,,0,,63,95
46255,note_on,,0,0,0,,,1,,66,0
46255,note_on,,0,0,0,,,2,,63,0
46255,note_on,,0,0,0,,,3,,56,0
46255,note_on,,0,0,0,,,1,,56,95
46255,note_on,,0,0,0,,,2,,51,95
46255,note_on,,0,0,0,,,3,,48,95
46255,note_on,,0,0,0,,,4,,44,95
46255,note_on,,0,0,0,,,5,,36,95
46295,note_on,,40,0,0,,,1,,56,0
46295,note_on,,0,0,0,,,2,,51,0
46295,note_on,,0,0,0,,,3,,48,0
46295,note_on,,0,0,0,,,4,,44,0
46295,note_on,,0,0,0,,,1,,56,95
46295,note_on,,0,0,0,,,2,,51,95
46295,note_on,,0,0,0,,,3,,48,95
46295,note_on,,0,0,0,,,4,,44,95
46335,note_on,,40,0,0,,,0,,63,0
46335,note_on,,0,0,0,,,0,,63,95
46335,note_on,,0,0,0,,,5,,36,0
46335,note_on,,0,0,0,,,1,,56,0
46335,note_on,,0,0,0,,,2,,51,0
46335,note_on,,0,0,0,,,3,,48,0
46335,note_on,,0,0,0,,,4,,44,0
46335,note_on,,0,0,0,,,1,,56,95
46335,note_on,,0,0,0,,,2,,51,95
46335,note_on,,0,0,0,,,3,,48,95
46335,note_on,,0,0,0,,,4,,44,95
46335,note_on,,0,0,0,,,5,,36,95
46415,note_on,,80,0,0,,,0,,63,0
46415,note_on,,0,0,0,,,0,,68,95
46415,note_on,,0,0,0,,,1,,56,0
46415,note_on,,0,0,0,,,2,,51,0
46415,note_on,,0,0,0,,,3,,48,0
46415,note_on,,0,0,0,,,4,,44,0
46415,note_on,,0,0,0,,,5,,36,0
46415,note_on,,0,0,0,,,1,,66,95
46415,note_on,,0,0,0,,,2,,63,95
46415,note_on,,0,0,0,,,3,,56,95
46455,note_on,,40,0,0,,,0,,68,0
46455,note_on,,0,0,0,,,0,,68,95
46455,note_on,,0,0,0,,,1,,66,0
46455,note_on,,0,0,0,,,2,,63,0
46455,note_on,,0,0,0,,,1,,66,95
46455,note_on,,0,0,0,,,2,,63,95
46495,note_on,,40,0,0,,,3,,56,0
46495,note_on,,0,0,0,,,0,,63,95
46495,note_on,,0,0,0,,,0,,68,0
46495,note_on,,0,0,0,,,1,,66,0
46495,note_on,,0,0,0,,,2,,63,0
46495,note_on,,0,0,0,,,1,,56,95
46495,note_on,,0,0,0,,,2,,51,95
46495,note_on,,0,0,0,,,3,,48,95
46495,note_on,,0,0,0,,,4,,44,95
46495,note_on,,0,0,0,,,5,,36,95
46575,note_on,,80,0,0,,,0,,63,0
46575,note_on,,0,0,0,,,0,,68,95
46575,note_on,,0,0,0,,,1,,56,0
46575,note_on,,0,0,0,,,2,,51,0
46575,note_on,,0,0,0,,,3,,48,0
46575,note_on,,0,0,0,,,4,,44,0
46575,note_on,,0,0,0,,,5,,36,0
46575,note_on,,0,0,0,,,1,,66,95
46575,note_on,,0,0,0,,,2,,63,95
46575,note_on,,0,0,0,,,3,,56,95
46615,note_on,,40,0,0,,,0,,68,0
46615,note_on,,0,0,0,,,0,,68,95
46615,note_on,,0,0,0,,,1,,66,0
46615,note_on,,0,0,0,,,2,,63,0
46615,note_on,,0,0,0,,,1,,66,95
46615,note_on,,0,0,0,,,2,,63,95
46655,note_on,,40,0,0,,,3,,56,0
46655,note_on,,0,0,0,,,0,,63,95
46655,note_on,,0,0,0,,,0,,68,0
46655,note_on,,0,0,0,,,1,,66,0
46655,note_on,,0,0,0,,,2,,63,0
46655,note_on,,0,0,0,,,1,,56,95
46655,note_on,,0,0,0,,,2,,51,95
46655,note_on,,0,0,0,,,3,,48,95
46655,note_on,,0,0,0,,,4,,44,95
46655,note_on,,0,0,0,,,5,,36,95
46735,note_on,,80,0,0,,,0,,63,0
46735,note_on,,0,0,0,,,0,,68,95
46735,note_on,,0,0,0,,,1,,56,0
46735,note_on,,0,0,0,,,2,,51,0
46735,note_on,,0,0,0,,,3,,48,0
46735,note_on,,0,0,0,,,4,,44,0
46735,note_on,,0,0,0,,,5,,36,0
46735,note_on,,0,0,0,,,1,,66,95
46735,note_on,,0,0,0,,,2,,63,95
46735,note_on,,0,0,0,,,3,,56,95
46815,note_on,,80,0,0,,,0,,68,0
46815,note_on,,0,0,0,,,0,,63,95
46815,note_on,,0,0,0,,,1,,66,0
46815,note_on,,0,0,0,,,2,,63,0
46815,note_on,,0,0,0,,,3,,56,0
46815,note_on,,0,0,0,,,1,,56,95
46815,note_on,,0,0,0,,,2,,51,95
46815,note_on,,0,0,0,,,3,,48,95
46815,note_on,,0,0,0,,,4,,44,95
46815,note_on,,0,0,0,,,5,,36,95
46975,note_on,,160,0,0,,,0,,63,0
46975,note_on,,0,0,0,,,1,,56,0
46975,note_on,,0,0,0,,,2,,51,0
46975,note_on,,0,0,0,,,3,,48,0
46975,note_on,,0,0,0,,,4,,44,0
46975,note_on,,0,0,0,,,5,,36,0
46975,end_of_track,,0,1,0,,,,,,
